<?xml version="1.0" standalone="no"?>
<!DOCTYPE svg PUBLIC "-//W3C//DTD SVG 1.1//EN" "http://www.w3.org/Graphics/SVG/1.1/DTD/svg11.dtd">
<svg width="16mm" height="186mm" viewBox="-8 -327 16 186" xmlns="http://www.w3.org/2000/svg" version="1.1">
<title>OpenSCAD Model</title>
<path d="
M 3.4369,-297.089 L 4.04507,-297.245 L 4.62889,-297.476 L 5.17912,-297.778 L 5.68712,-298.147 L 6.14484,-298.577
 L 6.54507,-299.061 L 6.88153,-299.591 L 7.14888,-300.159 L 7.34291,-300.757 L 7.46057,-301.373 L 7.5,-302
 L 7.5,-322 L 7.46057,-322.627 L 7.34291,-323.243 L 7.14888,-323.841 L 6.88153,-324.409 L 6.54507,-324.939
 L 6.14484,-325.423 L 5.68712,-325.853 L 5.17912,-326.222 L 4.62889,-326.524 L 4.04507,-326.755 L 3.4369,-326.911
 L 2.81395,-326.99 L -2.81395,-326.99 L -3.4369,-326.911 L -4.04507,-326.755 L -4.62889,-326.524 L -5.17912,-326.222
 L -5.68712,-325.853 L -6.14484,-325.423 L -6.54507,-324.939 L -6.88153,-324.409 L -7.14888,-323.841 L -7.34291,-323.243
 L -7.46057,-322.627 L -7.5,-322 L -7.5,-302 L -7.46057,-301.373 L -7.34291,-300.757 L -7.14888,-300.159
 L -6.88153,-299.591 L -6.54507,-299.061 L -6.14484,-298.577 L -5.68712,-298.147 L -5.17912,-297.778 L -4.62889,-297.476
 L -4.04507,-297.245 L -3.4369,-297.089 L -2.81395,-297.01 L 2.81395,-297.01 z
M -2.54825,-297.509 L -3.14006,-297.584 L -3.71782,-297.732 L -4.27245,-297.952 L -4.79517,-298.239 L -5.27776,-298.59
 L -5.7126,-298.998 L -6.09282,-299.458 L -6.41245,-299.962 L -6.66643,-300.501 L -6.85077,-301.069 L -6.96254,-301.655
 L -7,-302.25 L -7,-321.75 L -6.96254,-322.345 L -6.85077,-322.931 L -6.66643,-323.499 L -6.41245,-324.038
 L -6.09282,-324.542 L -5.7126,-325.002 L -5.27776,-325.41 L -4.79517,-325.761 L -4.27245,-326.048 L -3.71782,-326.268
 L -3.14006,-326.416 L -2.54825,-326.491 L 2.54825,-326.491 L 3.14006,-326.416 L 3.71782,-326.268 L 4.27245,-326.048
 L 4.79517,-325.761 L 5.27776,-325.41 L 5.7126,-325.002 L 6.09282,-324.542 L 6.41245,-324.038 L 6.66643,-323.499
 L 6.85077,-322.931 L 6.96254,-322.345 L 7,-321.75 L 7,-302.25 L 6.96254,-301.655 L 6.85077,-301.069
 L 6.66643,-300.501 L 6.41245,-299.962 L 6.09282,-299.458 L 5.7126,-298.998 L 5.27776,-298.59 L 4.79517,-298.239
 L 4.27245,-297.952 L 3.71782,-297.732 L 3.14006,-297.584 L 2.54825,-297.509 z
M 3.4369,-258.089 L 4.04507,-258.245 L 4.62889,-258.476 L 5.17912,-258.778 L 5.68712,-259.147 L 6.14484,-259.577
 L 6.54507,-260.061 L 6.88153,-260.591 L 7.14888,-261.159 L 7.34291,-261.757 L 7.46057,-262.373 L 7.5,-263
 L 7.5,-283 L 7.46057,-283.627 L 7.34291,-284.243 L 7.14888,-284.841 L 6.88153,-285.409 L 6.54507,-285.939
 L 6.14484,-286.423 L 5.68712,-286.853 L 5.17912,-287.222 L 4.62889,-287.524 L 4.04507,-287.755 L 3.4369,-287.911
 L 2.81395,-287.99 L -2.81395,-287.99 L -3.4369,-287.911 L -4.04507,-287.755 L -4.62889,-287.524 L -5.17912,-287.222
 L -5.68712,-286.853 L -6.14484,-286.423 L -6.54507,-285.939 L -6.88153,-285.409 L -7.14888,-284.841 L -7.34291,-284.243
 L -7.46057,-283.627 L -7.5,-283 L -7.5,-263 L -7.46057,-262.373 L -7.34291,-261.757 L -7.14888,-261.159
 L -6.88153,-260.591 L -6.54507,-260.061 L -6.14484,-259.577 L -5.68712,-259.147 L -5.17912,-258.778 L -4.62889,-258.476
 L -4.04507,-258.245 L -3.4369,-258.089 L -2.81395,-258.01 L 2.81395,-258.01 z
M -2.54825,-258.509 L -3.14006,-258.584 L -3.71782,-258.732 L -4.27245,-258.952 L -4.79517,-259.239 L -5.27776,-259.59
 L -5.7126,-259.998 L -6.09282,-260.458 L -6.41245,-260.962 L -6.66643,-261.501 L -6.85077,-262.069 L -6.96254,-262.655
 L -7,-263.25 L -7,-282.75 L -6.96254,-283.345 L -6.85077,-283.931 L -6.66643,-284.499 L -6.41245,-285.038
 L -6.09282,-285.542 L -5.7126,-286.002 L -5.27776,-286.41 L -4.79517,-286.761 L -4.27245,-287.048 L -3.71782,-287.268
 L -3.14006,-287.416 L -2.54825,-287.491 L 2.54825,-287.491 L 3.14006,-287.416 L 3.71782,-287.268 L 4.27245,-287.048
 L 4.79517,-286.761 L 5.27776,-286.41 L 5.7126,-286.002 L 6.09282,-285.542 L 6.41245,-285.038 L 6.66643,-284.499
 L 6.85077,-283.931 L 6.96254,-283.345 L 7,-282.75 L 7,-263.25 L 6.96254,-262.655 L 6.85077,-262.069
 L 6.66643,-261.501 L 6.41245,-260.962 L 6.09282,-260.458 L 5.7126,-259.998 L 5.27776,-259.59 L 4.79517,-259.239
 L 4.27245,-258.952 L 3.71782,-258.732 L 3.14006,-258.584 L 2.54825,-258.509 z
M 3.4369,-219.089 L 4.04507,-219.245 L 4.62889,-219.476 L 5.17912,-219.778 L 5.68712,-220.147 L 6.14484,-220.577
 L 6.54507,-221.061 L 6.88153,-221.591 L 7.14888,-222.159 L 7.34291,-222.757 L 7.46057,-223.373 L 7.5,-224
 L 7.5,-244 L 7.46057,-244.627 L 7.34291,-245.243 L 7.14888,-245.841 L 6.88153,-246.409 L 6.54507,-246.939
 L 6.14484,-247.423 L 5.68712,-247.853 L 5.17912,-248.222 L 4.62889,-248.524 L 4.04507,-248.755 L 3.4369,-248.911
 L 2.81395,-248.99 L -2.81395,-248.99 L -3.4369,-248.911 L -4.04507,-248.755 L -4.62889,-248.524 L -5.17912,-248.222
 L -5.68712,-247.853 L -6.14484,-247.423 L -6.54507,-246.939 L -6.88153,-246.409 L -7.14888,-245.841 L -7.34291,-245.243
 L -7.46057,-244.627 L -7.5,-244 L -7.5,-224 L -7.46057,-223.373 L -7.34291,-222.757 L -7.14888,-222.159
 L -6.88153,-221.591 L -6.54507,-221.061 L -6.14484,-220.577 L -5.68712,-220.147 L -5.17912,-219.778 L -4.62889,-219.476
 L -4.04507,-219.245 L -3.4369,-219.089 L -2.81395,-219.01 L 2.81395,-219.01 z
M -2.54825,-219.509 L -3.14006,-219.584 L -3.71782,-219.732 L -4.27245,-219.952 L -4.79517,-220.239 L -5.27776,-220.59
 L -5.7126,-220.998 L -6.09282,-221.458 L -6.41245,-221.962 L -6.66643,-222.501 L -6.85077,-223.069 L -6.96254,-223.655
 L -7,-224.25 L -7,-243.75 L -6.96254,-244.345 L -6.85077,-244.931 L -6.66643,-245.499 L -6.41245,-246.038
 L -6.09282,-246.542 L -5.7126,-247.002 L -5.27776,-247.41 L -4.79517,-247.761 L -4.27245,-248.048 L -3.71782,-248.268
 L -3.14006,-248.416 L -2.54825,-248.491 L 2.54825,-248.491 L 3.14006,-248.416 L 3.71782,-248.268 L 4.27245,-248.048
 L 4.79517,-247.761 L 5.27776,-247.41 L 5.7126,-247.002 L 6.09282,-246.542 L 6.41245,-246.038 L 6.66643,-245.499
 L 6.85077,-244.931 L 6.96254,-244.345 L 7,-243.75 L 7,-224.25 L 6.96254,-223.655 L 6.85077,-223.069
 L 6.66643,-222.501 L 6.41245,-221.962 L 6.09282,-221.458 L 5.7126,-220.998 L 5.27776,-220.59 L 4.79517,-220.239
 L 4.27245,-219.952 L 3.71782,-219.732 L 3.14006,-219.584 L 2.54825,-219.509 z
M 3.4369,-180.089 L 4.04507,-180.245 L 4.62889,-180.476 L 5.17912,-180.778 L 5.68712,-181.147 L 6.14484,-181.577
 L 6.54507,-182.061 L 6.88153,-182.591 L 7.14888,-183.159 L 7.34291,-183.757 L 7.46057,-184.373 L 7.5,-185
 L 7.5,-205 L 7.46057,-205.627 L 7.34291,-206.243 L 7.14888,-206.841 L 6.88153,-207.409 L 6.54507,-207.939
 L 6.14484,-208.423 L 5.68712,-208.853 L 5.17912,-209.222 L 4.62889,-209.524 L 4.04507,-209.755 L 3.4369,-209.911
 L 2.81395,-209.99 L -2.81395,-209.99 L -3.4369,-209.911 L -4.04507,-209.755 L -4.62889,-209.524 L -5.17912,-209.222
 L -5.68712,-208.853 L -6.14484,-208.423 L -6.54507,-207.939 L -6.88153,-207.409 L -7.14888,-206.841 L -7.34291,-206.243
 L -7.46057,-205.627 L -7.5,-205 L -7.5,-185 L -7.46057,-184.373 L -7.34291,-183.757 L -7.14888,-183.159
 L -6.88153,-182.591 L -6.54507,-182.061 L -6.14484,-181.577 L -5.68712,-181.147 L -5.17912,-180.778 L -4.62889,-180.476
 L -4.04507,-180.245 L -3.4369,-180.089 L -2.81395,-180.01 L 2.81395,-180.01 z
M -2.49297,-181.388 L -2.97505,-181.449 L -3.44572,-181.57 L -3.89754,-181.749 L -4.32336,-181.983 L -4.71649,-182.269
 L -5.07071,-182.601 L -5.38046,-182.976 L -5.64084,-183.386 L -5.84773,-183.826 L -5.99789,-184.288 L -6.08896,-184.765
 L -6.11946,-185.25 L -6.11946,-204.75 L -6.08896,-205.235 L -5.99789,-205.712 L -5.84773,-206.174 L -5.64084,-206.614
 L -5.38046,-207.024 L -5.07071,-207.399 L -4.71649,-207.731 L -4.32336,-208.017 L -3.89754,-208.251 L -3.44572,-208.43
 L -2.97505,-208.551 L -2.49297,-208.612 L 2.49297,-208.612 L 2.97505,-208.551 L 3.44572,-208.43 L 3.89754,-208.251
 L 4.32336,-208.017 L 4.71649,-207.731 L 5.07071,-207.399 L 5.38046,-207.024 L 5.64084,-206.614 L 5.84773,-206.174
 L 5.99789,-205.712 L 6.08896,-205.235 L 6.11946,-204.75 L 6.11946,-185.25 L 6.08896,-184.765 L 5.99789,-184.288
 L 5.84773,-183.826 L 5.64084,-183.386 L 5.38046,-182.976 L 5.07071,-182.601 L 4.71649,-182.269 L 4.32336,-181.983
 L 3.89754,-181.749 L 3.44572,-181.57 L 2.97505,-181.449 L 2.49297,-181.388 z
M 3.4369,-141.089 L 4.04507,-141.245 L 4.62889,-141.476 L 5.17912,-141.778 L 5.68712,-142.147 L 6.14484,-142.577
 L 6.54507,-143.061 L 6.88153,-143.591 L 7.14888,-144.159 L 7.34291,-144.757 L 7.46057,-145.373 L 7.5,-146
 L 7.5,-166 L 7.46057,-166.627 L 7.34291,-167.243 L 7.14888,-167.841 L 6.88153,-168.409 L 6.54507,-168.939
 L 6.14484,-169.423 L 5.68712,-169.853 L 5.17912,-170.222 L 4.62889,-170.524 L 4.04507,-170.755 L 3.4369,-170.911
 L 2.81395,-170.99 L -2.81395,-170.99 L -3.4369,-170.911 L -4.04507,-170.755 L -4.62889,-170.524 L -5.17912,-170.222
 L -5.68712,-169.853 L -6.14484,-169.423 L -6.54507,-168.939 L -6.88153,-168.409 L -7.14888,-167.841 L -7.34291,-167.243
 L -7.46057,-166.627 L -7.5,-166 L -7.5,-146 L -7.46057,-145.373 L -7.34291,-144.757 L -7.14888,-144.159
 L -6.88153,-143.591 L -6.54507,-143.061 L -6.14484,-142.577 L -5.68712,-142.147 L -5.17912,-141.778 L -4.62889,-141.476
 L -4.04507,-141.245 L -3.4369,-141.089 L -2.81395,-141.01 L 2.81395,-141.01 z
M -0.0941772,-162.003 L -0.281067,-162.027 L -0.463516,-162.073 L -0.638657,-162.143 L -0.803726,-162.234 L -0.956131,-162.344
 L -1.09344,-162.473 L -1.21352,-162.618 L -1.31445,-162.777 L -1.39465,-162.948 L -1.45287,-163.127 L -1.48816,-163.312
 L -1.5,-163.5 L -1.48816,-163.688 L -1.45287,-163.873 L -1.39465,-164.052 L -1.31445,-164.223 L -1.21352,-164.382
 L -1.09344,-164.527 L -0.956131,-164.656 L -0.803726,-164.766 L -0.638657,-164.857 L -0.463516,-164.927 L -0.281067,-164.973
 L -0.0941772,-164.997 L 0.0941772,-164.997 L 0.281067,-164.973 L 0.463516,-164.927 L 0.638657,-164.857 L 0.803726,-164.766
 L 0.956131,-164.656 L 1.09344,-164.527 L 1.21352,-164.382 L 1.31445,-164.223 L 1.39465,-164.052 L 1.45287,-163.873
 L 1.48816,-163.688 L 1.5,-163.5 L 1.48816,-163.312 L 1.45287,-163.127 L 1.39465,-162.948 L 1.31445,-162.777
 L 1.21352,-162.618 L 1.09344,-162.473 L 0.956131,-162.344 L 0.803726,-162.234 L 0.638657,-162.143 L 0.463516,-162.073
 L 0.281067,-162.027 L 0.0941772,-162.003 z
M -0.0941772,-147.003 L -0.281067,-147.027 L -0.463516,-147.073 L -0.638657,-147.143 L -0.803726,-147.234 L -0.956131,-147.344
 L -1.09344,-147.473 L -1.21352,-147.618 L -1.31445,-147.777 L -1.39465,-147.948 L -1.45287,-148.127 L -1.48816,-148.312
 L -1.5,-148.5 L -1.48816,-148.688 L -1.45287,-148.873 L -1.39465,-149.052 L -1.31445,-149.223 L -1.21352,-149.382
 L -1.09344,-149.527 L -0.956131,-149.656 L -0.803726,-149.766 L -0.638657,-149.857 L -0.463516,-149.927 L -0.281067,-149.973
 L -0.0941772,-149.997 L 0.0941772,-149.997 L 0.281067,-149.973 L 0.463516,-149.927 L 0.638657,-149.857 L 0.803726,-149.766
 L 0.956131,-149.656 L 1.09344,-149.527 L 1.21352,-149.382 L 1.31445,-149.223 L 1.39465,-149.052 L 1.45287,-148.873
 L 1.48816,-148.688 L 1.5,-148.5 L 1.48816,-148.312 L 1.45287,-148.127 L 1.39465,-147.948 L 1.31445,-147.777
 L 1.21352,-147.618 L 1.09344,-147.473 L 0.956131,-147.344 L 0.803726,-147.234 L 0.638657,-147.143 L 0.463516,-147.073
 L 0.281067,-147.027 L 0.0941772,-147.003 z
" stroke="black" fill="lightgray" stroke-width="0.5"/>
</svg>
