<?xml version="1.0" standalone="no"?>
<!DOCTYPE svg PUBLIC "-//W3C//DTD SVG 1.1//EN" "http://www.w3.org/Graphics/SVG/1.1/DTD/svg11.dtd">
<svg width="46mm" height="154mm" viewBox="-23 -239 46 154" xmlns="http://www.w3.org/2000/svg" version="1.1">
<title>OpenSCAD Model</title>
<path d="
M 18.4369,-193.589 L 19.0451,-193.745 L 19.6289,-193.976 L 20.1791,-194.278 L 20.6871,-194.647 L 21.1448,-195.077
 L 21.5451,-195.561 L 21.8815,-196.091 L 22.1489,-196.659 L 22.3429,-197.257 L 22.4606,-197.873 L 22.5,-198.5
 L 22.5,-233.5 L 22.4606,-234.127 L 22.3429,-234.743 L 22.1489,-235.341 L 21.8815,-235.909 L 21.5451,-236.439
 L 21.1448,-236.923 L 20.6871,-237.353 L 20.1791,-237.722 L 19.6289,-238.024 L 19.0451,-238.255 L 18.4369,-238.411
 L 17.8139,-238.49 L -17.8139,-238.49 L -18.4369,-238.411 L -19.0451,-238.255 L -19.6289,-238.024 L -20.1791,-237.722
 L -20.6871,-237.353 L -21.1448,-236.923 L -21.5451,-236.439 L -21.8815,-235.909 L -22.1489,-235.341 L -22.3429,-234.743
 L -22.4606,-234.127 L -22.5,-233.5 L -22.5,-198.5 L -22.4606,-197.873 L -22.3429,-197.257 L -22.1489,-196.659
 L -21.8815,-196.091 L -21.5451,-195.561 L -21.1448,-195.077 L -20.6871,-194.647 L -20.1791,-194.278 L -19.6289,-193.976
 L -19.0451,-193.745 L -18.4369,-193.589 L -17.8139,-193.51 L 17.8139,-193.51 z
M -12.311,-194.009 L -11.8209,-194.278 L -11.3129,-194.647 L -10.8551,-195.077 L -10.4549,-195.561 L -10.1185,-196.091
 L -9.8511,-196.659 L -9.65707,-197.257 L -9.53941,-197.873 L -9.5,-198.5 L -9.5,-201.5 L -9.53941,-202.127
 L -9.65707,-202.743 L -9.8511,-203.341 L -10.1185,-203.909 L -10.4549,-204.439 L -10.8551,-204.923 L -11.3129,-205.353
 L -11.8209,-205.722 L -12.3711,-206.024 L -12.9549,-206.255 L -13.5631,-206.411 L -14.186,-206.49 L -17.8139,-206.49
 L -18.4369,-206.411 L -19.0451,-206.255 L -19.6289,-206.024 L -20.1791,-205.722 L -20.6871,-205.353 L -21.1448,-204.923
 L -21.5451,-204.439 L -21.8815,-203.909 L -22,-203.657 L -22,-233.5 L -21.9645,-234.064 L -21.8586,-234.619
 L -21.684,-235.157 L -21.4434,-235.668 L -21.1406,-236.145 L -20.7803,-236.58 L -20.3684,-236.967 L -19.9112,-237.299
 L -19.416,-237.572 L -18.8906,-237.78 L -18.3432,-237.92 L -17.7825,-237.991 L 17.7825,-237.991 L 18.3432,-237.92
 L 18.8906,-237.78 L 19.416,-237.572 L 19.9112,-237.299 L 20.3684,-236.967 L 20.7803,-236.58 L 21.1406,-236.145
 L 21.4434,-235.668 L 21.684,-235.157 L 21.8586,-234.619 L 21.9645,-234.064 L 22,-233.5 L 22,-198.5
 L 21.9645,-197.936 L 21.8586,-197.381 L 21.684,-196.843 L 21.4434,-196.332 L 21.1406,-195.855 L 20.7803,-195.42
 L 20.3684,-195.033 L 19.9112,-194.701 L 19.416,-194.428 L 18.8906,-194.22 L 18.3432,-194.08 L 17.7825,-194.009
 z
M 15.4684,-228.544 L 15.7725,-228.622 L 16.0644,-228.738 L 16.3396,-228.889 L 16.5936,-229.074 L 16.8224,-229.289
 L 17.0225,-229.531 L 17.1908,-229.796 L 17.3244,-230.08 L 17.4214,-230.378 L 17.4803,-230.687 L 17.5,-231
 L 17.4803,-231.313 L 17.4214,-231.622 L 17.3244,-231.92 L 17.1908,-232.204 L 17.0225,-232.469 L 16.8224,-232.711
 L 16.5936,-232.926 L 16.3396,-233.111 L 16.0644,-233.262 L 15.7725,-233.378 L 15.4684,-233.456 L 15.157,-233.495
 L 14.843,-233.495 L 14.5315,-233.456 L 14.2274,-233.378 L 13.9355,-233.262 L 13.6604,-233.111 L 13.4064,-232.926
 L 13.1776,-232.711 L 12.9774,-232.469 L 12.8092,-232.204 L 12.6756,-231.92 L 12.5785,-231.622 L 12.5197,-231.313
 L 12.5,-231 L 12.5197,-230.687 L 12.5785,-230.378 L 12.6756,-230.08 L 12.8092,-229.796 L 12.9774,-229.531
 L 13.1776,-229.289 L 13.4064,-229.074 L 13.6604,-228.889 L 13.9355,-228.738 L 14.2274,-228.622 L 14.5315,-228.544
 L 14.843,-228.505 L 15.157,-228.505 z
M 14.9058,-229.503 L 14.7189,-229.527 L 14.5365,-229.573 L 14.3613,-229.643 L 14.1963,-229.734 L 14.0439,-229.844
 L 13.9065,-229.973 L 13.7865,-230.118 L 13.6855,-230.277 L 13.6053,-230.448 L 13.5471,-230.627 L 13.5118,-230.812
 L 13.5,-231 L 13.5118,-231.188 L 13.5471,-231.373 L 13.6053,-231.552 L 13.6855,-231.723 L 13.7865,-231.882
 L 13.9065,-232.027 L 14.0439,-232.156 L 14.1963,-232.266 L 14.3613,-232.357 L 14.5365,-232.427 L 14.7189,-232.473
 L 14.9058,-232.497 L 15.0942,-232.497 L 15.2811,-232.473 L 15.4635,-232.427 L 15.6387,-232.357 L 15.8037,-232.266
 L 15.9561,-232.156 L 16.0934,-232.027 L 16.2135,-231.882 L 16.3145,-231.723 L 16.3947,-231.552 L 16.4529,-231.373
 L 16.4882,-231.188 L 16.5,-231 L 16.4882,-230.812 L 16.4529,-230.627 L 16.3947,-230.448 L 16.3145,-230.277
 L 16.2135,-230.118 L 16.0934,-229.973 L 15.9561,-229.844 L 15.8037,-229.734 L 15.6387,-229.643 L 15.4635,-229.573
 L 15.2811,-229.527 L 15.0942,-229.503 z
M -15.0942,-199.503 L -15.2811,-199.527 L -15.4635,-199.573 L -15.6387,-199.643 L -15.8037,-199.734 L -15.9561,-199.844
 L -16.0934,-199.973 L -16.2135,-200.118 L -16.3145,-200.277 L -16.3947,-200.448 L -16.4529,-200.627 L -16.4882,-200.812
 L -16.5,-201 L -16.4882,-201.188 L -16.4529,-201.373 L -16.3947,-201.552 L -16.3145,-201.723 L -16.2135,-201.882
 L -16.0934,-202.027 L -15.9561,-202.156 L -15.8037,-202.266 L -15.6387,-202.357 L -15.4635,-202.427 L -15.2811,-202.473
 L -15.0942,-202.497 L -14.9058,-202.497 L -14.7189,-202.473 L -14.5365,-202.427 L -14.3613,-202.357 L -14.1963,-202.266
 L -14.0439,-202.156 L -13.9065,-202.027 L -13.7865,-201.882 L -13.6855,-201.723 L -13.6053,-201.552 L -13.5471,-201.373
 L -13.5118,-201.188 L -13.5,-201 L -13.5118,-200.812 L -13.5471,-200.627 L -13.6053,-200.448 L -13.6855,-200.277
 L -13.7865,-200.118 L -13.9065,-199.973 L -14.0439,-199.844 L -14.1963,-199.734 L -14.3613,-199.643 L -14.5365,-199.573
 L -14.7189,-199.527 L -14.9058,-199.503 z
M 18.4369,-139.589 L 19.0451,-139.745 L 19.6289,-139.976 L 20.1791,-140.278 L 20.6871,-140.647 L 21.1448,-141.077
 L 21.5451,-141.561 L 21.8815,-142.091 L 22.1489,-142.659 L 22.3429,-143.257 L 22.4606,-143.873 L 22.5,-144.5
 L 22.5,-179.5 L 22.4606,-180.127 L 22.3429,-180.743 L 22.1489,-181.341 L 21.8815,-181.909 L 21.5451,-182.439
 L 21.1448,-182.923 L 20.6871,-183.353 L 20.1791,-183.722 L 19.6289,-184.024 L 19.0451,-184.255 L 18.4369,-184.411
 L 17.8139,-184.49 L -17.8139,-184.49 L -18.4369,-184.411 L -19.0451,-184.255 L -19.6289,-184.024 L -20.1791,-183.722
 L -20.6871,-183.353 L -21.1448,-182.923 L -21.5451,-182.439 L -21.8815,-181.909 L -22.1489,-181.341 L -22.3429,-180.743
 L -22.4606,-180.127 L -22.5,-179.5 L -22.5,-144.5 L -22.4606,-143.873 L -22.3429,-143.257 L -22.1489,-142.659
 L -21.8815,-142.091 L -21.5451,-141.561 L -21.1448,-141.077 L -20.6871,-140.647 L -20.1791,-140.278 L -19.6289,-139.976
 L -19.0451,-139.745 L -18.4369,-139.589 L -17.8139,-139.51 L 17.8139,-139.51 z
M -11.5357,-140.486 L -11.3129,-140.647 L -10.8551,-141.077 L -10.4549,-141.561 L -10.1185,-142.091 L -9.8511,-142.659
 L -9.65707,-143.257 L -9.53941,-143.873 L -9.5,-144.5 L -9.5,-147.5 L -9.53941,-148.127 L -9.65707,-148.743
 L -9.8511,-149.341 L -10.1185,-149.909 L -10.4549,-150.439 L -10.8551,-150.923 L -11.3129,-151.353 L -11.8209,-151.722
 L -12.3711,-152.024 L -12.9549,-152.255 L -13.5631,-152.411 L -14.186,-152.49 L -17.8139,-152.49 L -18.4369,-152.411
 L -19.0451,-152.255 L -19.6289,-152.024 L -20.1791,-151.722 L -20.6871,-151.353 L -21.1448,-150.923 L -21.5224,-150.466
 L -21.5224,-179.5 L -21.4907,-180.004 L -21.396,-180.5 L -21.2399,-180.981 L -21.0248,-181.438 L -20.7542,-181.864
 L -20.4322,-182.254 L -20.0639,-182.599 L -19.6553,-182.896 L -19.2126,-183.14 L -18.743,-183.326 L -18.2537,-183.451
 L -17.7526,-183.514 L 11.5357,-183.514 L 11.3129,-183.353 L 10.8551,-182.923 L 10.4549,-182.439 L 10.1185,-181.909
 L 9.8511,-181.341 L 9.65707,-180.743 L 9.53941,-180.127 L 9.5,-179.5 L 9.5,-176.5 L 9.53941,-175.873
 L 9.65707,-175.257 L 9.8511,-174.659 L 10.1185,-174.091 L 10.4549,-173.561 L 10.8551,-173.077 L 11.3129,-172.647
 L 11.8209,-172.278 L 12.3711,-171.976 L 12.9549,-171.745 L 13.5631,-171.589 L 14.186,-171.51 L 17.8139,-171.51
 L 18.4369,-171.589 L 19.0451,-171.745 L 19.6289,-171.976 L 20.1791,-172.278 L 20.6871,-172.647 L 21.1448,-173.077
 L 21.5224,-173.534 L 21.5224,-144.5 L 21.4907,-143.996 L 21.396,-143.5 L 21.2399,-143.019 L 21.0248,-142.562
 L 20.7542,-142.136 L 20.4322,-141.746 L 20.0639,-141.401 L 19.6553,-141.104 L 19.2126,-140.86 L 18.743,-140.674
 L 18.2537,-140.549 L 17.7526,-140.486 z
M 14.9058,-175.503 L 14.7189,-175.527 L 14.5365,-175.573 L 14.3613,-175.643 L 14.1963,-175.734 L 14.0439,-175.844
 L 13.9065,-175.973 L 13.7865,-176.118 L 13.6855,-176.277 L 13.6053,-176.448 L 13.5471,-176.627 L 13.5118,-176.812
 L 13.5,-177 L 13.5118,-177.188 L 13.5471,-177.373 L 13.6053,-177.552 L 13.6855,-177.723 L 13.7865,-177.882
 L 13.9065,-178.027 L 14.0439,-178.156 L 14.1963,-178.266 L 14.3613,-178.357 L 14.5365,-178.427 L 14.7189,-178.473
 L 14.9058,-178.497 L 15.0942,-178.497 L 15.2811,-178.473 L 15.4635,-178.427 L 15.6387,-178.357 L 15.8037,-178.266
 L 15.9561,-178.156 L 16.0934,-178.027 L 16.2135,-177.882 L 16.3145,-177.723 L 16.3947,-177.552 L 16.4529,-177.373
 L 16.4882,-177.188 L 16.5,-177 L 16.4882,-176.812 L 16.4529,-176.627 L 16.3947,-176.448 L 16.3145,-176.277
 L 16.2135,-176.118 L 16.0934,-175.973 L 15.9561,-175.844 L 15.8037,-175.734 L 15.6387,-175.643 L 15.4635,-175.573
 L 15.2811,-175.527 L 15.0942,-175.503 z
M -15.0942,-145.503 L -15.2811,-145.527 L -15.4635,-145.573 L -15.6387,-145.643 L -15.8037,-145.734 L -15.9561,-145.844
 L -16.0934,-145.973 L -16.2135,-146.118 L -16.3145,-146.277 L -16.3947,-146.448 L -16.4529,-146.627 L -16.4882,-146.812
 L -16.5,-147 L -16.4882,-147.188 L -16.4529,-147.373 L -16.3947,-147.552 L -16.3145,-147.723 L -16.2135,-147.882
 L -16.0934,-148.027 L -15.9561,-148.156 L -15.8037,-148.266 L -15.6387,-148.357 L -15.4635,-148.427 L -15.2811,-148.473
 L -15.0942,-148.497 L -14.9058,-148.497 L -14.7189,-148.473 L -14.5365,-148.427 L -14.3613,-148.357 L -14.1963,-148.266
 L -14.0439,-148.156 L -13.9065,-148.027 L -13.7865,-147.882 L -13.6855,-147.723 L -13.6053,-147.552 L -13.5471,-147.373
 L -13.5118,-147.188 L -13.5,-147 L -13.5118,-146.812 L -13.5471,-146.627 L -13.6053,-146.448 L -13.6855,-146.277
 L -13.7865,-146.118 L -13.9065,-145.973 L -14.0439,-145.844 L -14.1963,-145.734 L -14.3613,-145.643 L -14.5365,-145.573
 L -14.7189,-145.527 L -14.9058,-145.503 z
M 18.4369,-85.5886 L 19.0451,-85.7447 L 19.6289,-85.9759 L 20.1791,-86.2784 L 20.6871,-86.6474 L 21.1448,-87.0773
 L 21.5451,-87.5611 L 21.8815,-88.0912 L 22.1489,-88.6594 L 22.3429,-89.2566 L 22.4606,-89.8733 L 22.5,-90.5
 L 22.5,-125.5 L 22.4606,-126.127 L 22.3429,-126.743 L 22.1489,-127.341 L 21.8815,-127.909 L 21.5451,-128.439
 L 21.1448,-128.923 L 20.6871,-129.353 L 20.1791,-129.722 L 19.6289,-130.024 L 19.0451,-130.255 L 18.4369,-130.411
 L 17.8139,-130.49 L -17.8139,-130.49 L -18.4369,-130.411 L -19.0451,-130.255 L -19.6289,-130.024 L -20.1791,-129.722
 L -20.6871,-129.353 L -21.1448,-128.923 L -21.5451,-128.439 L -21.8815,-127.909 L -22.1489,-127.341 L -22.3429,-126.743
 L -22.4606,-126.127 L -22.5,-125.5 L -22.5,-90.5 L -22.4606,-89.8733 L -22.3429,-89.2566 L -22.1489,-88.6594
 L -21.8815,-88.0912 L -21.5451,-87.5611 L -21.1448,-87.0773 L -20.6871,-86.6474 L -20.1791,-86.2784 L -19.6289,-85.9759
 L -19.0451,-85.7447 L -18.4369,-85.5886 L -17.8139,-85.5099 L 17.8139,-85.5099 z
M 14.8493,-120.605 L 14.5503,-120.643 L 14.2583,-120.717 L 13.9781,-120.828 L 13.714,-120.974 L 13.4702,-121.151
 L 13.2505,-121.357 L 13.0583,-121.589 L 12.8969,-121.844 L 12.7685,-122.117 L 12.6754,-122.403 L 12.6189,-122.699
 L 12.6,-123 L 12.6189,-123.301 L 12.6754,-123.597 L 12.7685,-123.883 L 12.8969,-124.156 L 13.0583,-124.411
 L 13.2505,-124.643 L 13.4702,-124.849 L 13.714,-125.026 L 13.9781,-125.172 L 14.2583,-125.283 L 14.5503,-125.357
 L 14.8493,-125.395 L 15.1507,-125.395 L 15.4497,-125.357 L 15.7416,-125.283 L 16.0219,-125.172 L 16.286,-125.026
 L 16.5298,-124.849 L 16.7495,-124.643 L 16.9416,-124.411 L 17.1031,-124.156 L 17.2315,-123.883 L 17.3246,-123.597
 L 17.3811,-123.301 L 17.4,-123 L 17.3811,-122.699 L 17.3246,-122.403 L 17.2315,-122.117 L 17.1031,-121.844
 L 16.9416,-121.589 L 16.7495,-121.357 L 16.5298,-121.151 L 16.286,-120.974 L 16.0219,-120.828 L 15.7416,-120.717
 L 15.4497,-120.643 L 15.1507,-120.605 z
M -15.0942,-121.503 L -15.2811,-121.527 L -15.4635,-121.573 L -15.6387,-121.643 L -15.8037,-121.734 L -15.9561,-121.844
 L -16.0934,-121.973 L -16.2135,-122.118 L -16.3145,-122.277 L -16.3947,-122.448 L -16.4529,-122.627 L -16.4882,-122.812
 L -16.5,-123 L -16.4882,-123.188 L -16.4529,-123.373 L -16.3947,-123.552 L -16.3145,-123.723 L -16.2135,-123.882
 L -16.0934,-124.027 L -15.9561,-124.156 L -15.8037,-124.266 L -15.6387,-124.357 L -15.4635,-124.427 L -15.2811,-124.473
 L -15.0942,-124.497 L -14.9058,-124.497 L -14.7189,-124.473 L -14.5365,-124.427 L -14.3613,-124.357 L -14.1963,-124.266
 L -14.0439,-124.156 L -13.9065,-124.027 L -13.7865,-123.882 L -13.6855,-123.723 L -13.6053,-123.552 L -13.5471,-123.373
 L -13.5118,-123.188 L -13.5,-123 L -13.5118,-122.812 L -13.5471,-122.627 L -13.6053,-122.448 L -13.6855,-122.277
 L -13.7865,-122.118 L -13.9065,-121.973 L -14.0439,-121.844 L -14.1963,-121.734 L -14.3613,-121.643 L -14.5365,-121.573
 L -14.7189,-121.527 L -14.9058,-121.503 z
M -15.1507,-90.6047 L -15.4497,-90.6425 L -15.7416,-90.7175 L -16.0219,-90.8284 L -16.286,-90.9736 L -16.5298,-91.1508
 L -16.7495,-91.3571 L -16.9416,-91.5893 L -17.1031,-91.8438 L -17.2315,-92.1165 L -17.3246,-92.4032 L -17.3811,-92.6992
 L -17.4,-93 L -17.3811,-93.3008 L -17.3246,-93.5969 L -17.2315,-93.8835 L -17.1031,-94.1562 L -16.9416,-94.4107
 L -16.7495,-94.6429 L -16.5298,-94.8492 L -16.286,-95.0264 L -16.0219,-95.1716 L -15.7416,-95.2825 L -15.4497,-95.3575
 L -15.1507,-95.3953 L -14.8493,-95.3953 L -14.5503,-95.3575 L -14.2583,-95.2825 L -13.9781,-95.1716 L -13.714,-95.0264
 L -13.4702,-94.8492 L -13.2505,-94.6429 L -13.0583,-94.4107 L -12.8969,-94.1562 L -12.7685,-93.8835 L -12.6754,-93.5969
 L -12.6189,-93.3008 L -12.6,-93 L -12.6189,-92.6992 L -12.6754,-92.4032 L -12.7685,-92.1165 L -12.8969,-91.8438
 L -13.0583,-91.5893 L -13.2505,-91.3571 L -13.4702,-91.1508 L -13.714,-90.9736 L -13.9781,-90.8284 L -14.2583,-90.7175
 L -14.5503,-90.6425 L -14.8493,-90.6047 z
M 14.9058,-91.503 L 14.7189,-91.5266 L 14.5365,-91.5734 L 14.3613,-91.6428 L 14.1963,-91.7335 L 14.0439,-91.8442
 L 13.9065,-91.9732 L 13.7865,-92.1183 L 13.6855,-92.2774 L 13.6053,-92.4478 L 13.5471,-92.627 L 13.5118,-92.812
 L 13.5,-93 L 13.5118,-93.188 L 13.5471,-93.373 L 13.6053,-93.5522 L 13.6855,-93.7226 L 13.7865,-93.8817
 L 13.9065,-94.0268 L 14.0439,-94.1558 L 14.1963,-94.2665 L 14.3613,-94.3573 L 14.5365,-94.4266 L 14.7189,-94.4734
 L 14.9058,-94.4971 L 15.0942,-94.4971 L 15.2811,-94.4734 L 15.4635,-94.4266 L 15.6387,-94.3573 L 15.8037,-94.2665
 L 15.9561,-94.1558 L 16.0934,-94.0268 L 16.2135,-93.8817 L 16.3145,-93.7226 L 16.3947,-93.5522 L 16.4529,-93.373
 L 16.4882,-93.188 L 16.5,-93 L 16.4882,-92.812 L 16.4529,-92.627 L 16.3947,-92.4478 L 16.3145,-92.2774
 L 16.2135,-92.1183 L 16.0934,-91.9732 L 15.9561,-91.8442 L 15.8037,-91.7335 L 15.6387,-91.6428 L 15.4635,-91.5734
 L 15.2811,-91.5266 L 15.0942,-91.503 z
" stroke="black" fill="lightgray" stroke-width="0.5"/>
</svg>
