<?xml version="1.0" standalone="no"?>
<!DOCTYPE svg PUBLIC "-//W3C//DTD SVG 1.1//EN" "http://www.w3.org/Graphics/SVG/1.1/DTD/svg11.dtd">
<svg width="30mm" height="84mm" viewBox="-15 -158 30 84" xmlns="http://www.w3.org/2000/svg" version="1.1">
<title>OpenSCAD Model</title>
<path d="
M 10.4369,-121.339 L 11.0451,-121.495 L 11.6289,-121.726 L 12.1791,-122.028 L 12.6871,-122.397 L 13.1448,-122.827
 L 13.5451,-123.311 L 13.8815,-123.841 L 14.1489,-124.409 L 14.3429,-125.007 L 14.4606,-125.623 L 14.5,-126.25
 L 14.5,-152.75 L 14.4606,-153.377 L 14.3429,-153.993 L 14.1489,-154.591 L 13.8815,-155.159 L 13.5451,-155.689
 L 13.1448,-156.173 L 12.6871,-156.603 L 12.1791,-156.972 L 11.6289,-157.274 L 11.0451,-157.505 L 10.4369,-157.661
 L 9.81395,-157.74 L -9.81395,-157.74 L -10.4369,-157.661 L -11.0451,-157.505 L -11.6289,-157.274 L -12.1791,-156.972
 L -12.6871,-156.603 L -13.1448,-156.173 L -13.5451,-155.689 L -13.8815,-155.159 L -14.1489,-154.591 L -14.3429,-153.993
 L -14.4606,-153.377 L -14.5,-152.75 L -14.5,-126.25 L -14.4606,-125.623 L -14.3429,-125.007 L -14.1489,-124.409
 L -13.8815,-123.841 L -13.5451,-123.311 L -13.1448,-122.827 L -12.6871,-122.397 L -12.1791,-122.028 L -11.6289,-121.726
 L -11.0451,-121.495 L -10.4369,-121.339 L -9.81395,-121.26 L 9.81395,-121.26 z
M -9.69545,-123.143 L -10.0833,-123.192 L -10.4619,-123.289 L -10.8254,-123.433 L -11.168,-123.622 L -11.4842,-123.851
 L -11.7692,-124.119 L -12.0184,-124.42 L -12.2279,-124.75 L -12.3943,-125.104 L -12.5151,-125.476 L -12.5884,-125.86
 L -12.6129,-126.25 L -12.6129,-152.75 L -12.5884,-153.14 L -12.5151,-153.524 L -12.3943,-153.896 L -12.2279,-154.25
 L -12.0184,-154.58 L -11.7692,-154.881 L -11.4842,-155.149 L -11.168,-155.378 L -10.8254,-155.567 L -10.4619,-155.711
 L -10.0833,-155.808 L -9.69545,-155.857 L 9.69545,-155.857 L 10.0833,-155.808 L 10.4619,-155.711 L 10.8254,-155.567
 L 11.168,-155.378 L 11.4842,-155.149 L 11.7692,-154.881 L 12.0184,-154.58 L 12.2279,-154.25 L 12.3943,-153.896
 L 12.5151,-153.524 L 12.5884,-153.14 L 12.6129,-152.75 L 12.6129,-126.25 L 12.5884,-125.86 L 12.5151,-125.476
 L 12.3943,-125.104 L 12.2279,-124.75 L 12.0184,-124.42 L 11.7692,-124.119 L 11.4842,-123.851 L 11.168,-123.622
 L 10.8254,-123.433 L 10.4619,-123.289 L 10.0833,-123.192 L 9.69545,-123.143 z
M 10.4369,-74.8386 L 11.0451,-74.9947 L 11.6289,-75.2259 L 12.1791,-75.5284 L 12.6871,-75.8974 L 13.1448,-76.3273
 L 13.5451,-76.8111 L 13.8815,-77.3412 L 14.1489,-77.9094 L 14.3429,-78.5066 L 14.4606,-79.1233 L 14.5,-79.75
 L 14.5,-106.25 L 14.4606,-106.877 L 14.3429,-107.493 L 14.1489,-108.091 L 13.8815,-108.659 L 13.5451,-109.189
 L 13.1448,-109.673 L 12.6871,-110.103 L 12.1791,-110.472 L 11.6289,-110.774 L 11.0451,-111.005 L 10.4369,-111.161
 L 9.81395,-111.24 L -9.81395,-111.24 L -10.4369,-111.161 L -11.0451,-111.005 L -11.6289,-110.774 L -12.1791,-110.472
 L -12.6871,-110.103 L -13.1448,-109.673 L -13.5451,-109.189 L -13.8815,-108.659 L -14.1489,-108.091 L -14.3429,-107.493
 L -14.4606,-106.877 L -14.5,-106.25 L -14.5,-79.75 L -14.4606,-79.1233 L -14.3429,-78.5066 L -14.1489,-77.9094
 L -13.8815,-77.3412 L -13.5451,-76.8111 L -13.1448,-76.3273 L -12.6871,-75.8974 L -12.1791,-75.5284 L -11.6289,-75.2259
 L -11.0451,-74.9947 L -10.4369,-74.8386 L -9.81395,-74.7599 L 9.81395,-74.7599 z
M 7.34929,-101.855 L 7.05028,-101.893 L 6.75835,-101.967 L 6.47812,-102.078 L 6.214,-102.224 L 5.97017,-102.401
 L 5.75047,-102.607 L 5.55835,-102.839 L 5.39685,-103.094 L 5.26852,-103.367 L 5.1754,-103.653 L 5.11891,-103.949
 L 5.09999,-104.25 L 5.11891,-104.551 L 5.1754,-104.847 L 5.26852,-105.133 L 5.39685,-105.406 L 5.55835,-105.661
 L 5.75047,-105.893 L 5.97017,-106.099 L 6.214,-106.276 L 6.47812,-106.422 L 6.75835,-106.533 L 7.05028,-106.607
 L 7.34929,-106.645 L 7.6507,-106.645 L 7.94971,-106.607 L 8.24164,-106.533 L 8.52187,-106.422 L 8.78598,-106.276
 L 9.02982,-106.099 L 9.24951,-105.893 L 9.44164,-105.661 L 9.60313,-105.406 L 9.73146,-105.133 L 9.82458,-104.847
 L 9.88107,-104.551 L 9.89999,-104.25 L 9.88107,-103.949 L 9.82458,-103.653 L 9.73146,-103.367 L 9.60313,-103.094
 L 9.44164,-102.839 L 9.24951,-102.607 L 9.02982,-102.401 L 8.78598,-102.224 L 8.52187,-102.078 L 8.24164,-101.967
 L 7.94971,-101.893 L 7.6507,-101.855 z
M -7.6507,-101.855 L -7.94971,-101.893 L -8.24164,-101.967 L -8.52187,-102.078 L -8.78598,-102.224 L -9.02982,-102.401
 L -9.24951,-102.607 L -9.44164,-102.839 L -9.60313,-103.094 L -9.73146,-103.367 L -9.82458,-103.653 L -9.88107,-103.949
 L -9.89999,-104.25 L -9.88107,-104.551 L -9.82458,-104.847 L -9.73146,-105.133 L -9.60313,-105.406 L -9.44164,-105.661
 L -9.24951,-105.893 L -9.02982,-106.099 L -8.78598,-106.276 L -8.52187,-106.422 L -8.24164,-106.533 L -7.94971,-106.607
 L -7.6507,-106.645 L -7.34929,-106.645 L -7.05028,-106.607 L -6.75835,-106.533 L -6.47812,-106.422 L -6.214,-106.276
 L -5.97017,-106.099 L -5.75047,-105.893 L -5.55835,-105.661 L -5.39685,-105.406 L -5.26852,-105.133 L -5.1754,-104.847
 L -5.11891,-104.551 L -5.09999,-104.25 L -5.11891,-103.949 L -5.1754,-103.653 L -5.26852,-103.367 L -5.39685,-103.094
 L -5.55835,-102.839 L -5.75047,-102.607 L -5.97017,-102.401 L -6.214,-102.224 L -6.47812,-102.078 L -6.75835,-101.967
 L -7.05028,-101.893 L -7.34929,-101.855 z
M 7.34929,-79.3547 L 7.05028,-79.3925 L 6.75835,-79.4675 L 6.47812,-79.5784 L 6.214,-79.7236 L 5.97017,-79.9008
 L 5.75047,-80.1071 L 5.55835,-80.3393 L 5.39685,-80.5938 L 5.26852,-80.8665 L 5.1754,-81.1532 L 5.11891,-81.4492
 L 5.09999,-81.75 L 5.11891,-82.0508 L 5.1754,-82.3469 L 5.26852,-82.6335 L 5.39685,-82.9062 L 5.55835,-83.1607
 L 5.75047,-83.3929 L 5.97017,-83.5992 L 6.214,-83.7764 L 6.47812,-83.9216 L 6.75835,-84.0325 L 7.05028,-84.1075
 L 7.34929,-84.1453 L 7.6507,-84.1453 L 7.94971,-84.1075 L 8.24164,-84.0325 L 8.52187,-83.9216 L 8.78598,-83.7764
 L 9.02982,-83.5992 L 9.24951,-83.3929 L 9.44164,-83.1607 L 9.60313,-82.9062 L 9.73146,-82.6335 L 9.82458,-82.3469
 L 9.88107,-82.0508 L 9.89999,-81.75 L 9.88107,-81.4492 L 9.82458,-81.1532 L 9.73146,-80.8665 L 9.60313,-80.5938
 L 9.44164,-80.3393 L 9.24951,-80.1071 L 9.02982,-79.9008 L 8.78598,-79.7236 L 8.52187,-79.5784 L 8.24164,-79.4675
 L 7.94971,-79.3925 L 7.6507,-79.3547 z
M -7.6507,-79.3547 L -7.94971,-79.3925 L -8.24164,-79.4675 L -8.52187,-79.5784 L -8.78598,-79.7236 L -9.02982,-79.9008
 L -9.24951,-80.1071 L -9.44164,-80.3393 L -9.60313,-80.5938 L -9.73146,-80.8665 L -9.82458,-81.1532 L -9.88107,-81.4492
 L -9.89999,-81.75 L -9.88107,-82.0508 L -9.82458,-82.3469 L -9.73146,-82.6335 L -9.60313,-82.9062 L -9.44164,-83.1607
 L -9.24951,-83.3929 L -9.02982,-83.5992 L -8.78598,-83.7764 L -8.52187,-83.9216 L -8.24164,-84.0325 L -7.94971,-84.1075
 L -7.6507,-84.1453 L -7.34929,-84.1453 L -7.05028,-84.1075 L -6.75835,-84.0325 L -6.47812,-83.9216 L -6.214,-83.7764
 L -5.97017,-83.5992 L -5.75047,-83.3929 L -5.55835,-83.1607 L -5.39685,-82.9062 L -5.26852,-82.6335 L -5.1754,-82.3469
 L -5.11891,-82.0508 L -5.09999,-81.75 L -5.11891,-81.4492 L -5.1754,-81.1532 L -5.26852,-80.8665 L -5.39685,-80.5938
 L -5.55835,-80.3393 L -5.75047,-80.1071 L -5.97017,-79.9008 L -6.214,-79.7236 L -6.47812,-79.5784 L -6.75835,-79.4675
 L -7.05028,-79.3925 L -7.34929,-79.3547 z
" stroke="black" fill="lightgray" stroke-width="0.5"/>
</svg>
