<?xml version="1.0" standalone="no"?>
<!DOCTYPE svg PUBLIC "-//W3C//DTD SVG 1.1//EN" "http://www.w3.org/Graphics/SVG/1.1/DTD/svg11.dtd">
<svg width="44mm" height="251mm" viewBox="-22 -436 44 251" xmlns="http://www.w3.org/2000/svg" version="1.1">
<title>OpenSCAD Model</title>
<path d="
M 17.9369,-392.089 L 18.5451,-392.245 L 19.1289,-392.476 L 19.6791,-392.778 L 20.1871,-393.147 L 20.6448,-393.577
 L 21.0451,-394.061 L 21.3815,-394.591 L 21.6489,-395.159 L 21.8429,-395.757 L 21.9606,-396.373 L 22,-397
 L 22,-431 L 21.9606,-431.627 L 21.8429,-432.243 L 21.6489,-432.841 L 21.3815,-433.409 L 21.0451,-433.939
 L 20.6448,-434.423 L 20.1871,-434.853 L 19.6791,-435.222 L 19.1289,-435.524 L 18.5451,-435.755 L 17.9369,-435.911
 L 17.3139,-435.99 L -17.3139,-435.99 L -17.9369,-435.911 L -18.5451,-435.755 L -19.1289,-435.524 L -19.6791,-435.222
 L -20.1871,-434.853 L -20.6448,-434.423 L -21.0451,-433.939 L -21.3815,-433.409 L -21.6489,-432.841 L -21.8429,-432.243
 L -21.9606,-431.627 L -22,-431 L -22,-397 L -21.9606,-396.373 L -21.8429,-395.757 L -21.6489,-395.159
 L -21.3815,-394.591 L -21.0451,-394.061 L -20.6448,-393.577 L -20.1871,-393.147 L -19.6791,-392.778 L -19.1289,-392.476
 L -18.5451,-392.245 L -17.9369,-392.089 L -17.3139,-392.01 L 17.3139,-392.01 z
M 14.8116,-426.006 L 14.4379,-426.053 L 14.0729,-426.147 L 13.7227,-426.286 L 13.3925,-426.467 L 13.0877,-426.688
 L 12.8131,-426.946 L 12.5729,-427.237 L 12.3711,-427.555 L 12.2107,-427.896 L 12.0942,-428.254 L 12.0237,-428.624
 L 12,-429 L 12.0237,-429.376 L 12.0942,-429.746 L 12.2107,-430.104 L 12.3711,-430.445 L 12.5729,-430.763
 L 12.8131,-431.054 L 13.0877,-431.312 L 13.3925,-431.533 L 13.7227,-431.714 L 14.0729,-431.853 L 14.4379,-431.947
 L 14.8116,-431.994 L 15.1884,-431.994 L 15.5621,-431.947 L 15.927,-431.853 L 16.2773,-431.714 L 16.6075,-431.533
 L 16.9123,-431.312 L 17.1869,-431.054 L 17.427,-430.763 L 17.6289,-430.445 L 17.7893,-430.104 L 17.9057,-429.746
 L 17.9763,-429.376 L 18,-429 L 17.9763,-428.624 L 17.9057,-428.254 L 17.7893,-427.896 L 17.6289,-427.555
 L 17.427,-427.237 L 17.1869,-426.946 L 16.9123,-426.688 L 16.6075,-426.467 L 16.2773,-426.286 L 15.927,-426.147
 L 15.5621,-426.053 L 15.1884,-426.006 z
M -15.1884,-426.006 L -15.5621,-426.053 L -15.927,-426.147 L -16.2773,-426.286 L -16.6075,-426.467 L -16.9123,-426.688
 L -17.1869,-426.946 L -17.427,-427.237 L -17.6289,-427.555 L -17.7893,-427.896 L -17.9057,-428.254 L -17.9763,-428.624
 L -18,-429 L -17.9763,-429.376 L -17.9057,-429.746 L -17.7893,-430.104 L -17.6289,-430.445 L -17.427,-430.763
 L -17.1869,-431.054 L -16.9123,-431.312 L -16.6075,-431.533 L -16.2773,-431.714 L -15.927,-431.853 L -15.5621,-431.947
 L -15.1884,-431.994 L -14.8116,-431.994 L -14.4379,-431.947 L -14.0729,-431.853 L -13.7227,-431.714 L -13.3925,-431.533
 L -13.0877,-431.312 L -12.8131,-431.054 L -12.5729,-430.763 L -12.3711,-430.445 L -12.2107,-430.104 L -12.0942,-429.746
 L -12.0237,-429.376 L -12,-429 L -12.0237,-428.624 L -12.0942,-428.254 L -12.2107,-427.896 L -12.3711,-427.555
 L -12.5729,-427.237 L -12.8131,-426.946 L -13.0877,-426.688 L -13.3925,-426.467 L -13.7227,-426.286 L -14.0729,-426.147
 L -14.4379,-426.053 L -14.8116,-426.006 z
M -0.18837,-426.006 L -0.562134,-426.053 L -0.927048,-426.147 L -1.27733,-426.286 L -1.60747,-426.467 L -1.91226,-426.688
 L -2.1869,-426.946 L -2.42705,-427.237 L -2.62891,-427.555 L -2.78932,-427.896 L -2.90575,-428.254 L -2.97633,-428.624
 L -3,-429 L -2.97633,-429.376 L -2.90575,-429.746 L -2.78932,-430.104 L -2.62891,-430.445 L -2.42705,-430.763
 L -2.1869,-431.054 L -1.91226,-431.312 L -1.60747,-431.533 L -1.27733,-431.714 L -0.927048,-431.853 L -0.562134,-431.947
 L -0.18837,-431.994 L 0.18837,-431.994 L 0.562134,-431.947 L 0.927048,-431.853 L 1.27733,-431.714 L 1.60747,-431.533
 L 1.91226,-431.312 L 2.1869,-431.054 L 2.42705,-430.763 L 2.62891,-430.445 L 2.78932,-430.104 L 2.90575,-429.746
 L 2.97633,-429.376 L 3,-429 L 2.97633,-428.624 L 2.90575,-428.254 L 2.78932,-427.896 L 2.62891,-427.555
 L 2.42705,-427.237 L 2.1869,-426.946 L 1.91226,-426.688 L 1.60747,-426.467 L 1.27733,-426.286 L 0.927048,-426.147
 L 0.562134,-426.053 L 0.18837,-426.006 z
M -7.59418,-427.503 L -7.78107,-427.527 L -7.96352,-427.573 L -8.13866,-427.643 L -8.30373,-427.734 L -8.45613,-427.844
 L -8.59344,-427.973 L -8.71352,-428.118 L -8.81445,-428.277 L -8.89465,-428.448 L -8.95287,-428.627 L -8.98816,-428.812
 L -9,-429 L -8.98816,-429.188 L -8.95287,-429.373 L -8.89465,-429.552 L -8.81445,-429.723 L -8.71352,-429.882
 L -8.59344,-430.027 L -8.45613,-430.156 L -8.30373,-430.266 L -8.13866,-430.357 L -7.96352,-430.427 L -7.78107,-430.473
 L -7.59418,-430.497 L -7.40581,-430.497 L -7.21892,-430.473 L -7.03647,-430.427 L -6.86133,-430.357 L -6.69626,-430.266
 L -6.54385,-430.156 L -6.40654,-430.027 L -6.28647,-429.882 L -6.18553,-429.723 L -6.10533,-429.552 L -6.04712,-429.373
 L -6.01183,-429.188 L -6,-429 L -6.01183,-428.812 L -6.04712,-428.627 L -6.10533,-428.448 L -6.18553,-428.277
 L -6.28647,-428.118 L -6.40654,-427.973 L -6.54385,-427.844 L -6.69626,-427.734 L -6.86133,-427.643 L -7.03647,-427.573
 L -7.21892,-427.527 L -7.40581,-427.503 z
M 7.40581,-427.503 L 7.21892,-427.527 L 7.03647,-427.573 L 6.86133,-427.643 L 6.69626,-427.734 L 6.54385,-427.844
 L 6.40654,-427.973 L 6.28647,-428.118 L 6.18553,-428.277 L 6.10533,-428.448 L 6.04712,-428.627 L 6.01183,-428.812
 L 6,-429 L 6.01183,-429.188 L 6.04712,-429.373 L 6.10533,-429.552 L 6.18553,-429.723 L 6.28647,-429.882
 L 6.40654,-430.027 L 6.54385,-430.156 L 6.69626,-430.266 L 6.86133,-430.357 L 7.03647,-430.427 L 7.21892,-430.473
 L 7.40581,-430.497 L 7.59418,-430.497 L 7.78107,-430.473 L 7.96352,-430.427 L 8.13866,-430.357 L 8.30373,-430.266
 L 8.45613,-430.156 L 8.59344,-430.027 L 8.71352,-429.882 L 8.81445,-429.723 L 8.89465,-429.552 L 8.95287,-429.373
 L 8.98816,-429.188 L 9,-429 L 8.98816,-428.812 L 8.95287,-428.627 L 8.89465,-428.448 L 8.81445,-428.277
 L 8.71352,-428.118 L 8.59344,-427.973 L 8.45613,-427.844 L 8.30373,-427.734 L 8.13866,-427.643 L 7.96352,-427.573
 L 7.78107,-427.527 L 7.59418,-427.503 z
M -7.31395,-403.51 L -7.9369,-403.589 L -8.54507,-403.745 L -9.12889,-403.976 L -9.67912,-404.278 L -10.1871,-404.647
 L -10.6448,-405.077 L -11.0451,-405.561 L -11.3815,-406.091 L -11.6489,-406.659 L -11.8429,-407.257 L -11.9606,-407.873
 L -12,-408.5 L -12,-419.5 L -11.9606,-420.127 L -11.8429,-420.743 L -11.6489,-421.341 L -11.3815,-421.909
 L -11.0451,-422.439 L -10.6448,-422.923 L -10.1871,-423.353 L -9.67912,-423.722 L -9.12889,-424.024 L -8.54507,-424.255
 L -7.9369,-424.411 L -7.31395,-424.49 L 7.31395,-424.49 L 7.9369,-424.411 L 8.54507,-424.255 L 9.12889,-424.024
 L 9.67912,-423.722 L 10.1871,-423.353 L 10.6448,-422.923 L 11.0451,-422.439 L 11.3815,-421.909 L 11.6489,-421.341
 L 11.8429,-420.743 L 11.9606,-420.127 L 12,-419.5 L 12,-408.5 L 11.9606,-407.873 L 11.8429,-407.257
 L 11.6489,-406.659 L 11.3815,-406.091 L 11.0451,-405.561 L 10.6448,-405.077 L 10.1871,-404.647 L 9.67912,-404.278
 L 9.12889,-403.976 L 8.54507,-403.745 L 7.9369,-403.589 L 7.31395,-403.51 z
M 14.9058,-420.003 L 14.7189,-420.027 L 14.5365,-420.073 L 14.3613,-420.143 L 14.1963,-420.234 L 14.0439,-420.344
 L 13.9065,-420.473 L 13.7865,-420.618 L 13.6855,-420.777 L 13.6053,-420.948 L 13.5471,-421.127 L 13.5118,-421.312
 L 13.5,-421.5 L 13.5118,-421.688 L 13.5471,-421.873 L 13.6053,-422.052 L 13.6855,-422.223 L 13.7865,-422.382
 L 13.9065,-422.527 L 14.0439,-422.656 L 14.1963,-422.766 L 14.3613,-422.857 L 14.5365,-422.927 L 14.7189,-422.973
 L 14.9058,-422.997 L 15.0942,-422.997 L 15.2811,-422.973 L 15.4635,-422.927 L 15.6387,-422.857 L 15.8037,-422.766
 L 15.9561,-422.656 L 16.0934,-422.527 L 16.2135,-422.382 L 16.3145,-422.223 L 16.3947,-422.052 L 16.4529,-421.873
 L 16.4882,-421.688 L 16.5,-421.5 L 16.4882,-421.312 L 16.4529,-421.127 L 16.3947,-420.948 L 16.3145,-420.777
 L 16.2135,-420.618 L 16.0934,-420.473 L 15.9561,-420.344 L 15.8037,-420.234 L 15.6387,-420.143 L 15.4635,-420.073
 L 15.2811,-420.027 L 15.0942,-420.003 z
M -15.0942,-420.003 L -15.2811,-420.027 L -15.4635,-420.073 L -15.6387,-420.143 L -15.8037,-420.234 L -15.9561,-420.344
 L -16.0934,-420.473 L -16.2135,-420.618 L -16.3145,-420.777 L -16.3947,-420.948 L -16.4529,-421.127 L -16.4882,-421.312
 L -16.5,-421.5 L -16.4882,-421.688 L -16.4529,-421.873 L -16.3947,-422.052 L -16.3145,-422.223 L -16.2135,-422.382
 L -16.0934,-422.527 L -15.9561,-422.656 L -15.8037,-422.766 L -15.6387,-422.857 L -15.4635,-422.927 L -15.2811,-422.973
 L -15.0942,-422.997 L -14.9058,-422.997 L -14.7189,-422.973 L -14.5365,-422.927 L -14.3613,-422.857 L -14.1963,-422.766
 L -14.0439,-422.656 L -13.9065,-422.527 L -13.7865,-422.382 L -13.6855,-422.223 L -13.6053,-422.052 L -13.5471,-421.873
 L -13.5118,-421.688 L -13.5,-421.5 L -13.5118,-421.312 L -13.5471,-421.127 L -13.6053,-420.948 L -13.6855,-420.777
 L -13.7865,-420.618 L -13.9065,-420.473 L -14.0439,-420.344 L -14.1963,-420.234 L -14.3613,-420.143 L -14.5365,-420.073
 L -14.7189,-420.027 L -14.9058,-420.003 z
M 14.9058,-412.503 L 14.7189,-412.527 L 14.5365,-412.573 L 14.3613,-412.643 L 14.1963,-412.734 L 14.0439,-412.844
 L 13.9065,-412.973 L 13.7865,-413.118 L 13.6855,-413.277 L 13.6053,-413.448 L 13.5471,-413.627 L 13.5118,-413.812
 L 13.5,-414 L 13.5118,-414.188 L 13.5471,-414.373 L 13.6053,-414.552 L 13.6855,-414.723 L 13.7865,-414.882
 L 13.9065,-415.027 L 14.0439,-415.156 L 14.1963,-415.266 L 14.3613,-415.357 L 14.5365,-415.427 L 14.7189,-415.473
 L 14.9058,-415.497 L 15.0942,-415.497 L 15.2811,-415.473 L 15.4635,-415.427 L 15.6387,-415.357 L 15.8037,-415.266
 L 15.9561,-415.156 L 16.0934,-415.027 L 16.2135,-414.882 L 16.3145,-414.723 L 16.3947,-414.552 L 16.4529,-414.373
 L 16.4882,-414.188 L 16.5,-414 L 16.4882,-413.812 L 16.4529,-413.627 L 16.3947,-413.448 L 16.3145,-413.277
 L 16.2135,-413.118 L 16.0934,-412.973 L 15.9561,-412.844 L 15.8037,-412.734 L 15.6387,-412.643 L 15.4635,-412.573
 L 15.2811,-412.527 L 15.0942,-412.503 z
M -15.0942,-412.503 L -15.2811,-412.527 L -15.4635,-412.573 L -15.6387,-412.643 L -15.8037,-412.734 L -15.9561,-412.844
 L -16.0934,-412.973 L -16.2135,-413.118 L -16.3145,-413.277 L -16.3947,-413.448 L -16.4529,-413.627 L -16.4882,-413.812
 L -16.5,-414 L -16.4882,-414.188 L -16.4529,-414.373 L -16.3947,-414.552 L -16.3145,-414.723 L -16.2135,-414.882
 L -16.0934,-415.027 L -15.9561,-415.156 L -15.8037,-415.266 L -15.6387,-415.357 L -15.4635,-415.427 L -15.2811,-415.473
 L -15.0942,-415.497 L -14.9058,-415.497 L -14.7189,-415.473 L -14.5365,-415.427 L -14.3613,-415.357 L -14.1963,-415.266
 L -14.0439,-415.156 L -13.9065,-415.027 L -13.7865,-414.882 L -13.6855,-414.723 L -13.6053,-414.552 L -13.5471,-414.373
 L -13.5118,-414.188 L -13.5,-414 L -13.5118,-413.812 L -13.5471,-413.627 L -13.6053,-413.448 L -13.6855,-413.277
 L -13.7865,-413.118 L -13.9065,-412.973 L -14.0439,-412.844 L -14.1963,-412.734 L -14.3613,-412.643 L -14.5365,-412.573
 L -14.7189,-412.527 L -14.9058,-412.503 z
M 14.9058,-405.003 L 14.7189,-405.027 L 14.5365,-405.073 L 14.3613,-405.143 L 14.1963,-405.234 L 14.0439,-405.344
 L 13.9065,-405.473 L 13.7865,-405.618 L 13.6855,-405.777 L 13.6053,-405.948 L 13.5471,-406.127 L 13.5118,-406.312
 L 13.5,-406.5 L 13.5118,-406.688 L 13.5471,-406.873 L 13.6053,-407.052 L 13.6855,-407.223 L 13.7865,-407.382
 L 13.9065,-407.527 L 14.0439,-407.656 L 14.1963,-407.766 L 14.3613,-407.857 L 14.5365,-407.927 L 14.7189,-407.973
 L 14.9058,-407.997 L 15.0942,-407.997 L 15.2811,-407.973 L 15.4635,-407.927 L 15.6387,-407.857 L 15.8037,-407.766
 L 15.9561,-407.656 L 16.0934,-407.527 L 16.2135,-407.382 L 16.3145,-407.223 L 16.3947,-407.052 L 16.4529,-406.873
 L 16.4882,-406.688 L 16.5,-406.5 L 16.4882,-406.312 L 16.4529,-406.127 L 16.3947,-405.948 L 16.3145,-405.777
 L 16.2135,-405.618 L 16.0934,-405.473 L 15.9561,-405.344 L 15.8037,-405.234 L 15.6387,-405.143 L 15.4635,-405.073
 L 15.2811,-405.027 L 15.0942,-405.003 z
M -15.0942,-405.003 L -15.2811,-405.027 L -15.4635,-405.073 L -15.6387,-405.143 L -15.8037,-405.234 L -15.9561,-405.344
 L -16.0934,-405.473 L -16.2135,-405.618 L -16.3145,-405.777 L -16.3947,-405.948 L -16.4529,-406.127 L -16.4882,-406.312
 L -16.5,-406.5 L -16.4882,-406.688 L -16.4529,-406.873 L -16.3947,-407.052 L -16.3145,-407.223 L -16.2135,-407.382
 L -16.0934,-407.527 L -15.9561,-407.656 L -15.8037,-407.766 L -15.6387,-407.857 L -15.4635,-407.927 L -15.2811,-407.973
 L -15.0942,-407.997 L -14.9058,-407.997 L -14.7189,-407.973 L -14.5365,-407.927 L -14.3613,-407.857 L -14.1963,-407.766
 L -14.0439,-407.656 L -13.9065,-407.527 L -13.7865,-407.382 L -13.6855,-407.223 L -13.6053,-407.052 L -13.5471,-406.873
 L -13.5118,-406.688 L -13.5,-406.5 L -13.5118,-406.312 L -13.5471,-406.127 L -13.6053,-405.948 L -13.6855,-405.777
 L -13.7865,-405.618 L -13.9065,-405.473 L -14.0439,-405.344 L -14.1963,-405.234 L -14.3613,-405.143 L -14.5365,-405.073
 L -14.7189,-405.027 L -14.9058,-405.003 z
M 14.8116,-396.006 L 14.4379,-396.053 L 14.0729,-396.147 L 13.7227,-396.286 L 13.3925,-396.467 L 13.0877,-396.688
 L 12.8131,-396.946 L 12.5729,-397.237 L 12.3711,-397.555 L 12.2107,-397.896 L 12.0942,-398.254 L 12.0237,-398.624
 L 12,-399 L 12.0237,-399.376 L 12.0942,-399.746 L 12.2107,-400.104 L 12.3711,-400.445 L 12.5729,-400.763
 L 12.8131,-401.054 L 13.0877,-401.312 L 13.3925,-401.533 L 13.7227,-401.714 L 14.0729,-401.853 L 14.4379,-401.947
 L 14.8116,-401.994 L 15.1884,-401.994 L 15.5621,-401.947 L 15.927,-401.853 L 16.2773,-401.714 L 16.6075,-401.533
 L 16.9123,-401.312 L 17.1869,-401.054 L 17.427,-400.763 L 17.6289,-400.445 L 17.7893,-400.104 L 17.9057,-399.746
 L 17.9763,-399.376 L 18,-399 L 17.9763,-398.624 L 17.9057,-398.254 L 17.7893,-397.896 L 17.6289,-397.555
 L 17.427,-397.237 L 17.1869,-396.946 L 16.9123,-396.688 L 16.6075,-396.467 L 16.2773,-396.286 L 15.927,-396.147
 L 15.5621,-396.053 L 15.1884,-396.006 z
M -15.1884,-396.006 L -15.5621,-396.053 L -15.927,-396.147 L -16.2773,-396.286 L -16.6075,-396.467 L -16.9123,-396.688
 L -17.1869,-396.946 L -17.427,-397.237 L -17.6289,-397.555 L -17.7893,-397.896 L -17.9057,-398.254 L -17.9763,-398.624
 L -18,-399 L -17.9763,-399.376 L -17.9057,-399.746 L -17.7893,-400.104 L -17.6289,-400.445 L -17.427,-400.763
 L -17.1869,-401.054 L -16.9123,-401.312 L -16.6075,-401.533 L -16.2773,-401.714 L -15.927,-401.853 L -15.5621,-401.947
 L -15.1884,-401.994 L -14.8116,-401.994 L -14.4379,-401.947 L -14.0729,-401.853 L -13.7227,-401.714 L -13.3925,-401.533
 L -13.0877,-401.312 L -12.8131,-401.054 L -12.5729,-400.763 L -12.3711,-400.445 L -12.2107,-400.104 L -12.0942,-399.746
 L -12.0237,-399.376 L -12,-399 L -12.0237,-398.624 L -12.0942,-398.254 L -12.2107,-397.896 L -12.3711,-397.555
 L -12.5729,-397.237 L -12.8131,-396.946 L -13.0877,-396.688 L -13.3925,-396.467 L -13.7227,-396.286 L -14.0729,-396.147
 L -14.4379,-396.053 L -14.8116,-396.006 z
M 17.9369,-323.089 L 18.5451,-323.245 L 19.1289,-323.476 L 19.6791,-323.778 L 20.1871,-324.147 L 20.6448,-324.577
 L 21.0451,-325.061 L 21.3815,-325.591 L 21.6489,-326.159 L 21.8429,-326.757 L 21.9606,-327.373 L 22,-328
 L 22,-362 L 21.9606,-362.627 L 21.8429,-363.243 L 21.6489,-363.841 L 21.3815,-364.409 L 21.0451,-364.939
 L 20.6448,-365.423 L 20.1871,-365.853 L 19.6791,-366.222 L 19.1289,-366.524 L 18.5451,-366.755 L 17.9369,-366.911
 L 17.3139,-366.99 L -17.3139,-366.99 L -17.9369,-366.911 L -18.5451,-366.755 L -19.1289,-366.524 L -19.6791,-366.222
 L -20.1871,-365.853 L -20.6448,-365.423 L -21.0451,-364.939 L -21.3815,-364.409 L -21.6489,-363.841 L -21.8429,-363.243
 L -21.9606,-362.627 L -22,-362 L -22,-328 L -21.9606,-327.373 L -21.8429,-326.757 L -21.6489,-326.159
 L -21.3815,-325.591 L -21.0451,-325.061 L -20.6448,-324.577 L -20.1871,-324.147 L -19.6791,-323.778 L -19.1289,-323.476
 L -18.5451,-323.245 L -17.9369,-323.089 L -17.3139,-323.01 L 17.3139,-323.01 z
M 14.8116,-357.006 L 14.4379,-357.053 L 14.0729,-357.147 L 13.7227,-357.286 L 13.3925,-357.467 L 13.0877,-357.688
 L 12.8131,-357.946 L 12.5729,-358.237 L 12.3711,-358.555 L 12.2107,-358.896 L 12.0942,-359.254 L 12.0237,-359.624
 L 12,-360 L 12.0237,-360.376 L 12.0942,-360.746 L 12.2107,-361.104 L 12.3711,-361.445 L 12.5729,-361.763
 L 12.8131,-362.054 L 13.0877,-362.312 L 13.3925,-362.533 L 13.7227,-362.714 L 14.0729,-362.853 L 14.4379,-362.947
 L 14.8116,-362.994 L 15.1884,-362.994 L 15.5621,-362.947 L 15.927,-362.853 L 16.2773,-362.714 L 16.6075,-362.533
 L 16.9123,-362.312 L 17.1869,-362.054 L 17.427,-361.763 L 17.6289,-361.445 L 17.7893,-361.104 L 17.9057,-360.746
 L 17.9763,-360.376 L 18,-360 L 17.9763,-359.624 L 17.9057,-359.254 L 17.7893,-358.896 L 17.6289,-358.555
 L 17.427,-358.237 L 17.1869,-357.946 L 16.9123,-357.688 L 16.6075,-357.467 L 16.2773,-357.286 L 15.927,-357.147
 L 15.5621,-357.053 L 15.1884,-357.006 z
M -15.1884,-357.006 L -15.5621,-357.053 L -15.927,-357.147 L -16.2773,-357.286 L -16.6075,-357.467 L -16.9123,-357.688
 L -17.1869,-357.946 L -17.427,-358.237 L -17.6289,-358.555 L -17.7893,-358.896 L -17.9057,-359.254 L -17.9763,-359.624
 L -18,-360 L -17.9763,-360.376 L -17.9057,-360.746 L -17.7893,-361.104 L -17.6289,-361.445 L -17.427,-361.763
 L -17.1869,-362.054 L -16.9123,-362.312 L -16.6075,-362.533 L -16.2773,-362.714 L -15.927,-362.853 L -15.5621,-362.947
 L -15.1884,-362.994 L -14.8116,-362.994 L -14.4379,-362.947 L -14.0729,-362.853 L -13.7227,-362.714 L -13.3925,-362.533
 L -13.0877,-362.312 L -12.8131,-362.054 L -12.5729,-361.763 L -12.3711,-361.445 L -12.2107,-361.104 L -12.0942,-360.746
 L -12.0237,-360.376 L -12,-360 L -12.0237,-359.624 L -12.0942,-359.254 L -12.2107,-358.896 L -12.3711,-358.555
 L -12.5729,-358.237 L -12.8131,-357.946 L -13.0877,-357.688 L -13.3925,-357.467 L -13.7227,-357.286 L -14.0729,-357.147
 L -14.4379,-357.053 L -14.8116,-357.006 z
M -0.18837,-357.006 L -0.562134,-357.053 L -0.927048,-357.147 L -1.27733,-357.286 L -1.60747,-357.467 L -1.91226,-357.688
 L -2.1869,-357.946 L -2.42705,-358.237 L -2.62891,-358.555 L -2.78932,-358.896 L -2.90575,-359.254 L -2.97633,-359.624
 L -3,-360 L -2.97633,-360.376 L -2.90575,-360.746 L -2.78932,-361.104 L -2.62891,-361.445 L -2.42705,-361.763
 L -2.1869,-362.054 L -1.91226,-362.312 L -1.60747,-362.533 L -1.27733,-362.714 L -0.927048,-362.853 L -0.562134,-362.947
 L -0.18837,-362.994 L 0.18837,-362.994 L 0.562134,-362.947 L 0.927048,-362.853 L 1.27733,-362.714 L 1.60747,-362.533
 L 1.91226,-362.312 L 2.1869,-362.054 L 2.42705,-361.763 L 2.62891,-361.445 L 2.78932,-361.104 L 2.90575,-360.746
 L 2.97633,-360.376 L 3,-360 L 2.97633,-359.624 L 2.90575,-359.254 L 2.78932,-358.896 L 2.62891,-358.555
 L 2.42705,-358.237 L 2.1869,-357.946 L 1.91226,-357.688 L 1.60747,-357.467 L 1.27733,-357.286 L 0.927048,-357.147
 L 0.562134,-357.053 L 0.18837,-357.006 z
M -7.59418,-358.503 L -7.78107,-358.527 L -7.96352,-358.573 L -8.13866,-358.643 L -8.30373,-358.734 L -8.45613,-358.844
 L -8.59344,-358.973 L -8.71352,-359.118 L -8.81445,-359.277 L -8.89465,-359.448 L -8.95287,-359.627 L -8.98816,-359.812
 L -9,-360 L -8.98816,-360.188 L -8.95287,-360.373 L -8.89465,-360.552 L -8.81445,-360.723 L -8.71352,-360.882
 L -8.59344,-361.027 L -8.45613,-361.156 L -8.30373,-361.266 L -8.13866,-361.357 L -7.96352,-361.427 L -7.78107,-361.473
 L -7.59418,-361.497 L -7.40581,-361.497 L -7.21892,-361.473 L -7.03647,-361.427 L -6.86133,-361.357 L -6.69626,-361.266
 L -6.54385,-361.156 L -6.40654,-361.027 L -6.28647,-360.882 L -6.18553,-360.723 L -6.10533,-360.552 L -6.04712,-360.373
 L -6.01183,-360.188 L -6,-360 L -6.01183,-359.812 L -6.04712,-359.627 L -6.10533,-359.448 L -6.18553,-359.277
 L -6.28647,-359.118 L -6.40654,-358.973 L -6.54385,-358.844 L -6.69626,-358.734 L -6.86133,-358.643 L -7.03647,-358.573
 L -7.21892,-358.527 L -7.40581,-358.503 z
M 7.40581,-358.503 L 7.21892,-358.527 L 7.03647,-358.573 L 6.86133,-358.643 L 6.69626,-358.734 L 6.54385,-358.844
 L 6.40654,-358.973 L 6.28647,-359.118 L 6.18553,-359.277 L 6.10533,-359.448 L 6.04712,-359.627 L 6.01183,-359.812
 L 6,-360 L 6.01183,-360.188 L 6.04712,-360.373 L 6.10533,-360.552 L 6.18553,-360.723 L 6.28647,-360.882
 L 6.40654,-361.027 L 6.54385,-361.156 L 6.69626,-361.266 L 6.86133,-361.357 L 7.03647,-361.427 L 7.21892,-361.473
 L 7.40581,-361.497 L 7.59418,-361.497 L 7.78107,-361.473 L 7.96352,-361.427 L 8.13866,-361.357 L 8.30373,-361.266
 L 8.45613,-361.156 L 8.59344,-361.027 L 8.71352,-360.882 L 8.81445,-360.723 L 8.89465,-360.552 L 8.95287,-360.373
 L 8.98816,-360.188 L 9,-360 L 8.98816,-359.812 L 8.95287,-359.627 L 8.89465,-359.448 L 8.81445,-359.277
 L 8.71352,-359.118 L 8.59344,-358.973 L 8.45613,-358.844 L 8.30373,-358.734 L 8.13866,-358.643 L 7.96352,-358.573
 L 7.78107,-358.527 L 7.59418,-358.503 z
M -7.31395,-334.51 L -7.9369,-334.589 L -8.54507,-334.745 L -9.12889,-334.976 L -9.67912,-335.278 L -10.1871,-335.647
 L -10.6448,-336.077 L -11.0451,-336.561 L -11.3815,-337.091 L -11.6489,-337.659 L -11.8429,-338.257 L -11.9606,-338.873
 L -12,-339.5 L -12,-350.5 L -11.9606,-351.127 L -11.8429,-351.743 L -11.6489,-352.341 L -11.3815,-352.909
 L -11.0451,-353.439 L -10.6448,-353.923 L -10.1871,-354.353 L -9.67912,-354.722 L -9.12889,-355.024 L -8.54507,-355.255
 L -7.9369,-355.411 L -7.31395,-355.49 L 7.31395,-355.49 L 7.9369,-355.411 L 8.54507,-355.255 L 9.12889,-355.024
 L 9.67912,-354.722 L 10.1871,-354.353 L 10.6448,-353.923 L 11.0451,-353.439 L 11.3815,-352.909 L 11.6489,-352.341
 L 11.8429,-351.743 L 11.9606,-351.127 L 12,-350.5 L 12,-339.5 L 11.9606,-338.873 L 11.8429,-338.257
 L 11.6489,-337.659 L 11.3815,-337.091 L 11.0451,-336.561 L 10.6448,-336.077 L 10.1871,-335.647 L 9.67912,-335.278
 L 9.12889,-334.976 L 8.54507,-334.745 L 7.9369,-334.589 L 7.31395,-334.51 z
M 14.9058,-351.003 L 14.7189,-351.027 L 14.5365,-351.073 L 14.3613,-351.143 L 14.1963,-351.234 L 14.0439,-351.344
 L 13.9065,-351.473 L 13.7865,-351.618 L 13.6855,-351.777 L 13.6053,-351.948 L 13.5471,-352.127 L 13.5118,-352.312
 L 13.5,-352.5 L 13.5118,-352.688 L 13.5471,-352.873 L 13.6053,-353.052 L 13.6855,-353.223 L 13.7865,-353.382
 L 13.9065,-353.527 L 14.0439,-353.656 L 14.1963,-353.766 L 14.3613,-353.857 L 14.5365,-353.927 L 14.7189,-353.973
 L 14.9058,-353.997 L 15.0942,-353.997 L 15.2811,-353.973 L 15.4635,-353.927 L 15.6387,-353.857 L 15.8037,-353.766
 L 15.9561,-353.656 L 16.0934,-353.527 L 16.2135,-353.382 L 16.3145,-353.223 L 16.3947,-353.052 L 16.4529,-352.873
 L 16.4882,-352.688 L 16.5,-352.5 L 16.4882,-352.312 L 16.4529,-352.127 L 16.3947,-351.948 L 16.3145,-351.777
 L 16.2135,-351.618 L 16.0934,-351.473 L 15.9561,-351.344 L 15.8037,-351.234 L 15.6387,-351.143 L 15.4635,-351.073
 L 15.2811,-351.027 L 15.0942,-351.003 z
M -15.0942,-351.003 L -15.2811,-351.027 L -15.4635,-351.073 L -15.6387,-351.143 L -15.8037,-351.234 L -15.9561,-351.344
 L -16.0934,-351.473 L -16.2135,-351.618 L -16.3145,-351.777 L -16.3947,-351.948 L -16.4529,-352.127 L -16.4882,-352.312
 L -16.5,-352.5 L -16.4882,-352.688 L -16.4529,-352.873 L -16.3947,-353.052 L -16.3145,-353.223 L -16.2135,-353.382
 L -16.0934,-353.527 L -15.9561,-353.656 L -15.8037,-353.766 L -15.6387,-353.857 L -15.4635,-353.927 L -15.2811,-353.973
 L -15.0942,-353.997 L -14.9058,-353.997 L -14.7189,-353.973 L -14.5365,-353.927 L -14.3613,-353.857 L -14.1963,-353.766
 L -14.0439,-353.656 L -13.9065,-353.527 L -13.7865,-353.382 L -13.6855,-353.223 L -13.6053,-353.052 L -13.5471,-352.873
 L -13.5118,-352.688 L -13.5,-352.5 L -13.5118,-352.312 L -13.5471,-352.127 L -13.6053,-351.948 L -13.6855,-351.777
 L -13.7865,-351.618 L -13.9065,-351.473 L -14.0439,-351.344 L -14.1963,-351.234 L -14.3613,-351.143 L -14.5365,-351.073
 L -14.7189,-351.027 L -14.9058,-351.003 z
M 14.9058,-343.503 L 14.7189,-343.527 L 14.5365,-343.573 L 14.3613,-343.643 L 14.1963,-343.734 L 14.0439,-343.844
 L 13.9065,-343.973 L 13.7865,-344.118 L 13.6855,-344.277 L 13.6053,-344.448 L 13.5471,-344.627 L 13.5118,-344.812
 L 13.5,-345 L 13.5118,-345.188 L 13.5471,-345.373 L 13.6053,-345.552 L 13.6855,-345.723 L 13.7865,-345.882
 L 13.9065,-346.027 L 14.0439,-346.156 L 14.1963,-346.266 L 14.3613,-346.357 L 14.5365,-346.427 L 14.7189,-346.473
 L 14.9058,-346.497 L 15.0942,-346.497 L 15.2811,-346.473 L 15.4635,-346.427 L 15.6387,-346.357 L 15.8037,-346.266
 L 15.9561,-346.156 L 16.0934,-346.027 L 16.2135,-345.882 L 16.3145,-345.723 L 16.3947,-345.552 L 16.4529,-345.373
 L 16.4882,-345.188 L 16.5,-345 L 16.4882,-344.812 L 16.4529,-344.627 L 16.3947,-344.448 L 16.3145,-344.277
 L 16.2135,-344.118 L 16.0934,-343.973 L 15.9561,-343.844 L 15.8037,-343.734 L 15.6387,-343.643 L 15.4635,-343.573
 L 15.2811,-343.527 L 15.0942,-343.503 z
M -15.0942,-343.503 L -15.2811,-343.527 L -15.4635,-343.573 L -15.6387,-343.643 L -15.8037,-343.734 L -15.9561,-343.844
 L -16.0934,-343.973 L -16.2135,-344.118 L -16.3145,-344.277 L -16.3947,-344.448 L -16.4529,-344.627 L -16.4882,-344.812
 L -16.5,-345 L -16.4882,-345.188 L -16.4529,-345.373 L -16.3947,-345.552 L -16.3145,-345.723 L -16.2135,-345.882
 L -16.0934,-346.027 L -15.9561,-346.156 L -15.8037,-346.266 L -15.6387,-346.357 L -15.4635,-346.427 L -15.2811,-346.473
 L -15.0942,-346.497 L -14.9058,-346.497 L -14.7189,-346.473 L -14.5365,-346.427 L -14.3613,-346.357 L -14.1963,-346.266
 L -14.0439,-346.156 L -13.9065,-346.027 L -13.7865,-345.882 L -13.6855,-345.723 L -13.6053,-345.552 L -13.5471,-345.373
 L -13.5118,-345.188 L -13.5,-345 L -13.5118,-344.812 L -13.5471,-344.627 L -13.6053,-344.448 L -13.6855,-344.277
 L -13.7865,-344.118 L -13.9065,-343.973 L -14.0439,-343.844 L -14.1963,-343.734 L -14.3613,-343.643 L -14.5365,-343.573
 L -14.7189,-343.527 L -14.9058,-343.503 z
M 14.9058,-336.003 L 14.7189,-336.027 L 14.5365,-336.073 L 14.3613,-336.143 L 14.1963,-336.234 L 14.0439,-336.344
 L 13.9065,-336.473 L 13.7865,-336.618 L 13.6855,-336.777 L 13.6053,-336.948 L 13.5471,-337.127 L 13.5118,-337.312
 L 13.5,-337.5 L 13.5118,-337.688 L 13.5471,-337.873 L 13.6053,-338.052 L 13.6855,-338.223 L 13.7865,-338.382
 L 13.9065,-338.527 L 14.0439,-338.656 L 14.1963,-338.766 L 14.3613,-338.857 L 14.5365,-338.927 L 14.7189,-338.973
 L 14.9058,-338.997 L 15.0942,-338.997 L 15.2811,-338.973 L 15.4635,-338.927 L 15.6387,-338.857 L 15.8037,-338.766
 L 15.9561,-338.656 L 16.0934,-338.527 L 16.2135,-338.382 L 16.3145,-338.223 L 16.3947,-338.052 L 16.4529,-337.873
 L 16.4882,-337.688 L 16.5,-337.5 L 16.4882,-337.312 L 16.4529,-337.127 L 16.3947,-336.948 L 16.3145,-336.777
 L 16.2135,-336.618 L 16.0934,-336.473 L 15.9561,-336.344 L 15.8037,-336.234 L 15.6387,-336.143 L 15.4635,-336.073
 L 15.2811,-336.027 L 15.0942,-336.003 z
M -15.0942,-336.003 L -15.2811,-336.027 L -15.4635,-336.073 L -15.6387,-336.143 L -15.8037,-336.234 L -15.9561,-336.344
 L -16.0934,-336.473 L -16.2135,-336.618 L -16.3145,-336.777 L -16.3947,-336.948 L -16.4529,-337.127 L -16.4882,-337.312
 L -16.5,-337.5 L -16.4882,-337.688 L -16.4529,-337.873 L -16.3947,-338.052 L -16.3145,-338.223 L -16.2135,-338.382
 L -16.0934,-338.527 L -15.9561,-338.656 L -15.8037,-338.766 L -15.6387,-338.857 L -15.4635,-338.927 L -15.2811,-338.973
 L -15.0942,-338.997 L -14.9058,-338.997 L -14.7189,-338.973 L -14.5365,-338.927 L -14.3613,-338.857 L -14.1963,-338.766
 L -14.0439,-338.656 L -13.9065,-338.527 L -13.7865,-338.382 L -13.6855,-338.223 L -13.6053,-338.052 L -13.5471,-337.873
 L -13.5118,-337.688 L -13.5,-337.5 L -13.5118,-337.312 L -13.5471,-337.127 L -13.6053,-336.948 L -13.6855,-336.777
 L -13.7865,-336.618 L -13.9065,-336.473 L -14.0439,-336.344 L -14.1963,-336.234 L -14.3613,-336.143 L -14.5365,-336.073
 L -14.7189,-336.027 L -14.9058,-336.003 z
M 14.8116,-327.006 L 14.4379,-327.053 L 14.0729,-327.147 L 13.7227,-327.286 L 13.3925,-327.467 L 13.0877,-327.688
 L 12.8131,-327.946 L 12.5729,-328.237 L 12.3711,-328.555 L 12.2107,-328.896 L 12.0942,-329.254 L 12.0237,-329.624
 L 12,-330 L 12.0237,-330.376 L 12.0942,-330.746 L 12.2107,-331.104 L 12.3711,-331.445 L 12.5729,-331.763
 L 12.8131,-332.054 L 13.0877,-332.312 L 13.3925,-332.533 L 13.7227,-332.714 L 14.0729,-332.853 L 14.4379,-332.947
 L 14.8116,-332.994 L 15.1884,-332.994 L 15.5621,-332.947 L 15.927,-332.853 L 16.2773,-332.714 L 16.6075,-332.533
 L 16.9123,-332.312 L 17.1869,-332.054 L 17.427,-331.763 L 17.6289,-331.445 L 17.7893,-331.104 L 17.9057,-330.746
 L 17.9763,-330.376 L 18,-330 L 17.9763,-329.624 L 17.9057,-329.254 L 17.7893,-328.896 L 17.6289,-328.555
 L 17.427,-328.237 L 17.1869,-327.946 L 16.9123,-327.688 L 16.6075,-327.467 L 16.2773,-327.286 L 15.927,-327.147
 L 15.5621,-327.053 L 15.1884,-327.006 z
M -15.1884,-327.006 L -15.5621,-327.053 L -15.927,-327.147 L -16.2773,-327.286 L -16.6075,-327.467 L -16.9123,-327.688
 L -17.1869,-327.946 L -17.427,-328.237 L -17.6289,-328.555 L -17.7893,-328.896 L -17.9057,-329.254 L -17.9763,-329.624
 L -18,-330 L -17.9763,-330.376 L -17.9057,-330.746 L -17.7893,-331.104 L -17.6289,-331.445 L -17.427,-331.763
 L -17.1869,-332.054 L -16.9123,-332.312 L -16.6075,-332.533 L -16.2773,-332.714 L -15.927,-332.853 L -15.5621,-332.947
 L -15.1884,-332.994 L -14.8116,-332.994 L -14.4379,-332.947 L -14.0729,-332.853 L -13.7227,-332.714 L -13.3925,-332.533
 L -13.0877,-332.312 L -12.8131,-332.054 L -12.5729,-331.763 L -12.3711,-331.445 L -12.2107,-331.104 L -12.0942,-330.746
 L -12.0237,-330.376 L -12,-330 L -12.0237,-329.624 L -12.0942,-329.254 L -12.2107,-328.896 L -12.3711,-328.555
 L -12.5729,-328.237 L -12.8131,-327.946 L -13.0877,-327.688 L -13.3925,-327.467 L -13.7227,-327.286 L -14.0729,-327.147
 L -14.4379,-327.053 L -14.8116,-327.006 z
M 17.9369,-254.089 L 18.5451,-254.245 L 19.1289,-254.476 L 19.6791,-254.778 L 20.1871,-255.147 L 20.6448,-255.577
 L 21.0451,-256.061 L 21.3815,-256.591 L 21.6489,-257.159 L 21.8429,-257.757 L 21.9606,-258.373 L 22,-259
 L 22,-293 L 21.9606,-293.627 L 21.8429,-294.243 L 21.6489,-294.841 L 21.3815,-295.409 L 21.0451,-295.939
 L 20.6448,-296.423 L 20.1871,-296.853 L 19.6791,-297.222 L 19.1289,-297.524 L 18.5451,-297.755 L 17.9369,-297.911
 L 17.3139,-297.99 L -17.3139,-297.99 L -17.9369,-297.911 L -18.5451,-297.755 L -19.1289,-297.524 L -19.6791,-297.222
 L -20.1871,-296.853 L -20.6448,-296.423 L -21.0451,-295.939 L -21.3815,-295.409 L -21.6489,-294.841 L -21.8429,-294.243
 L -21.9606,-293.627 L -22,-293 L -22,-259 L -21.9606,-258.373 L -21.8429,-257.757 L -21.6489,-257.159
 L -21.3815,-256.591 L -21.0451,-256.061 L -20.6448,-255.577 L -20.1871,-255.147 L -19.6791,-254.778 L -19.1289,-254.476
 L -18.5451,-254.245 L -17.9369,-254.089 L -17.3139,-254.01 L 17.3139,-254.01 z
M -15.1884,-288.006 L -15.5621,-288.053 L -15.927,-288.147 L -16.2773,-288.286 L -16.6075,-288.467 L -16.9123,-288.688
 L -17.1869,-288.946 L -17.427,-289.237 L -17.6289,-289.555 L -17.7893,-289.896 L -17.9057,-290.254 L -17.9763,-290.624
 L -18,-291 L -17.9763,-291.376 L -17.9057,-291.746 L -17.7893,-292.104 L -17.6289,-292.445 L -17.427,-292.763
 L -17.1869,-293.054 L -16.9123,-293.312 L -16.6075,-293.533 L -16.2773,-293.714 L -15.927,-293.853 L -15.5621,-293.947
 L -15.1884,-293.994 L -14.8116,-293.994 L -14.4379,-293.947 L -14.0729,-293.853 L -13.7227,-293.714 L -13.3925,-293.533
 L -13.0877,-293.312 L -12.8131,-293.054 L -12.5729,-292.763 L -12.3711,-292.445 L -12.2107,-292.104 L -12.0942,-291.746
 L -12.0237,-291.376 L -12,-291 L -12.0237,-290.624 L -12.0942,-290.254 L -12.2107,-289.896 L -12.3711,-289.555
 L -12.5729,-289.237 L -12.8131,-288.946 L -13.0877,-288.688 L -13.3925,-288.467 L -13.7227,-288.286 L -14.0729,-288.147
 L -14.4379,-288.053 L -14.8116,-288.006 z
M -0.18837,-288.006 L -0.562134,-288.053 L -0.927048,-288.147 L -1.27733,-288.286 L -1.60747,-288.467 L -1.91226,-288.688
 L -2.1869,-288.946 L -2.42705,-289.237 L -2.62891,-289.555 L -2.78932,-289.896 L -2.90575,-290.254 L -2.97633,-290.624
 L -3,-291 L -2.97633,-291.376 L -2.90575,-291.746 L -2.78932,-292.104 L -2.62891,-292.445 L -2.42705,-292.763
 L -2.1869,-293.054 L -1.91226,-293.312 L -1.60747,-293.533 L -1.27733,-293.714 L -0.927048,-293.853 L -0.562134,-293.947
 L -0.18837,-293.994 L 0.18837,-293.994 L 0.562134,-293.947 L 0.927048,-293.853 L 1.27733,-293.714 L 1.60747,-293.533
 L 1.91226,-293.312 L 2.1869,-293.054 L 2.42705,-292.763 L 2.62891,-292.445 L 2.78932,-292.104 L 2.90575,-291.746
 L 2.97633,-291.376 L 3,-291 L 2.97633,-290.624 L 2.90575,-290.254 L 2.78932,-289.896 L 2.62891,-289.555
 L 2.42705,-289.237 L 2.1869,-288.946 L 1.91226,-288.688 L 1.60747,-288.467 L 1.27733,-288.286 L 0.927048,-288.147
 L 0.562134,-288.053 L 0.18837,-288.006 z
M 14.8116,-288.006 L 14.4379,-288.053 L 14.0729,-288.147 L 13.7227,-288.286 L 13.3925,-288.467 L 13.0877,-288.688
 L 12.8131,-288.946 L 12.5729,-289.237 L 12.3711,-289.555 L 12.2107,-289.896 L 12.0942,-290.254 L 12.0237,-290.624
 L 12,-291 L 12.0237,-291.376 L 12.0942,-291.746 L 12.2107,-292.104 L 12.3711,-292.445 L 12.5729,-292.763
 L 12.8131,-293.054 L 13.0877,-293.312 L 13.3925,-293.533 L 13.7227,-293.714 L 14.0729,-293.853 L 14.4379,-293.947
 L 14.8116,-293.994 L 15.1884,-293.994 L 15.5621,-293.947 L 15.927,-293.853 L 16.2773,-293.714 L 16.6075,-293.533
 L 16.9123,-293.312 L 17.1869,-293.054 L 17.427,-292.763 L 17.6289,-292.445 L 17.7893,-292.104 L 17.9057,-291.746
 L 17.9763,-291.376 L 18,-291 L 17.9763,-290.624 L 17.9057,-290.254 L 17.7893,-289.896 L 17.6289,-289.555
 L 17.427,-289.237 L 17.1869,-288.946 L 16.9123,-288.688 L 16.6075,-288.467 L 16.2773,-288.286 L 15.927,-288.147
 L 15.5621,-288.053 L 15.1884,-288.006 z
M -7.59418,-289.503 L -7.78107,-289.527 L -7.96352,-289.573 L -8.13866,-289.643 L -8.30373,-289.734 L -8.45613,-289.844
 L -8.59344,-289.973 L -8.71352,-290.118 L -8.81445,-290.277 L -8.89465,-290.448 L -8.95287,-290.627 L -8.98816,-290.812
 L -9,-291 L -8.98816,-291.188 L -8.95287,-291.373 L -8.89465,-291.552 L -8.81445,-291.723 L -8.71352,-291.882
 L -8.59344,-292.027 L -8.45613,-292.156 L -8.30373,-292.266 L -8.13866,-292.357 L -7.96352,-292.427 L -7.78107,-292.473
 L -7.59418,-292.497 L -7.40581,-292.497 L -7.21892,-292.473 L -7.03647,-292.427 L -6.86133,-292.357 L -6.69626,-292.266
 L -6.54385,-292.156 L -6.40654,-292.027 L -6.28647,-291.882 L -6.18553,-291.723 L -6.10533,-291.552 L -6.04712,-291.373
 L -6.01183,-291.188 L -6,-291 L -6.01183,-290.812 L -6.04712,-290.627 L -6.10533,-290.448 L -6.18553,-290.277
 L -6.28647,-290.118 L -6.40654,-289.973 L -6.54385,-289.844 L -6.69626,-289.734 L -6.86133,-289.643 L -7.03647,-289.573
 L -7.21892,-289.527 L -7.40581,-289.503 z
M 7.40581,-289.503 L 7.21892,-289.527 L 7.03647,-289.573 L 6.86133,-289.643 L 6.69626,-289.734 L 6.54385,-289.844
 L 6.40654,-289.973 L 6.28647,-290.118 L 6.18553,-290.277 L 6.10533,-290.448 L 6.04712,-290.627 L 6.01183,-290.812
 L 6,-291 L 6.01183,-291.188 L 6.04712,-291.373 L 6.10533,-291.552 L 6.18553,-291.723 L 6.28647,-291.882
 L 6.40654,-292.027 L 6.54385,-292.156 L 6.69626,-292.266 L 6.86133,-292.357 L 7.03647,-292.427 L 7.21892,-292.473
 L 7.40581,-292.497 L 7.59418,-292.497 L 7.78107,-292.473 L 7.96352,-292.427 L 8.13866,-292.357 L 8.30373,-292.266
 L 8.45613,-292.156 L 8.59344,-292.027 L 8.71352,-291.882 L 8.81445,-291.723 L 8.89465,-291.552 L 8.95287,-291.373
 L 8.98816,-291.188 L 9,-291 L 8.98816,-290.812 L 8.95287,-290.627 L 8.89465,-290.448 L 8.81445,-290.277
 L 8.71352,-290.118 L 8.59344,-289.973 L 8.45613,-289.844 L 8.30373,-289.734 L 8.13866,-289.643 L 7.96352,-289.573
 L 7.78107,-289.527 L 7.59418,-289.503 z
M -7.31395,-265.51 L -7.9369,-265.589 L -8.54507,-265.745 L -9.12889,-265.976 L -9.67912,-266.278 L -10.1871,-266.647
 L -10.6448,-267.077 L -11.0451,-267.561 L -11.3815,-268.091 L -11.6489,-268.659 L -11.8429,-269.257 L -11.9606,-269.873
 L -12,-270.5 L -12,-281.5 L -11.9606,-282.127 L -11.8429,-282.743 L -11.6489,-283.341 L -11.3815,-283.909
 L -11.0451,-284.439 L -10.6448,-284.923 L -10.1871,-285.353 L -9.67912,-285.722 L -9.12889,-286.024 L -8.54507,-286.255
 L -7.9369,-286.411 L -7.31395,-286.49 L 7.31395,-286.49 L 7.9369,-286.411 L 8.54507,-286.255 L 9.12889,-286.024
 L 9.67912,-285.722 L 10.1871,-285.353 L 10.6448,-284.923 L 11.0451,-284.439 L 11.3815,-283.909 L 11.6489,-283.341
 L 11.8429,-282.743 L 11.9606,-282.127 L 12,-281.5 L 12,-270.5 L 11.9606,-269.873 L 11.8429,-269.257
 L 11.6489,-268.659 L 11.3815,-268.091 L 11.0451,-267.561 L 10.6448,-267.077 L 10.1871,-266.647 L 9.67912,-266.278
 L 9.12889,-265.976 L 8.54507,-265.745 L 7.9369,-265.589 L 7.31395,-265.51 z
M 14.9058,-282.003 L 14.7189,-282.027 L 14.5365,-282.073 L 14.3613,-282.143 L 14.1963,-282.234 L 14.0439,-282.344
 L 13.9065,-282.473 L 13.7865,-282.618 L 13.6855,-282.777 L 13.6053,-282.948 L 13.5471,-283.127 L 13.5118,-283.312
 L 13.5,-283.5 L 13.5118,-283.688 L 13.5471,-283.873 L 13.6053,-284.052 L 13.6855,-284.223 L 13.7865,-284.382
 L 13.9065,-284.527 L 14.0439,-284.656 L 14.1963,-284.766 L 14.3613,-284.857 L 14.5365,-284.927 L 14.7189,-284.973
 L 14.9058,-284.997 L 15.0942,-284.997 L 15.2811,-284.973 L 15.4635,-284.927 L 15.6387,-284.857 L 15.8037,-284.766
 L 15.9561,-284.656 L 16.0934,-284.527 L 16.2135,-284.382 L 16.3145,-284.223 L 16.3947,-284.052 L 16.4529,-283.873
 L 16.4882,-283.688 L 16.5,-283.5 L 16.4882,-283.312 L 16.4529,-283.127 L 16.3947,-282.948 L 16.3145,-282.777
 L 16.2135,-282.618 L 16.0934,-282.473 L 15.9561,-282.344 L 15.8037,-282.234 L 15.6387,-282.143 L 15.4635,-282.073
 L 15.2811,-282.027 L 15.0942,-282.003 z
M -15.0942,-282.003 L -15.2811,-282.027 L -15.4635,-282.073 L -15.6387,-282.143 L -15.8037,-282.234 L -15.9561,-282.344
 L -16.0934,-282.473 L -16.2135,-282.618 L -16.3145,-282.777 L -16.3947,-282.948 L -16.4529,-283.127 L -16.4882,-283.312
 L -16.5,-283.5 L -16.4882,-283.688 L -16.4529,-283.873 L -16.3947,-284.052 L -16.3145,-284.223 L -16.2135,-284.382
 L -16.0934,-284.527 L -15.9561,-284.656 L -15.8037,-284.766 L -15.6387,-284.857 L -15.4635,-284.927 L -15.2811,-284.973
 L -15.0942,-284.997 L -14.9058,-284.997 L -14.7189,-284.973 L -14.5365,-284.927 L -14.3613,-284.857 L -14.1963,-284.766
 L -14.0439,-284.656 L -13.9065,-284.527 L -13.7865,-284.382 L -13.6855,-284.223 L -13.6053,-284.052 L -13.5471,-283.873
 L -13.5118,-283.688 L -13.5,-283.5 L -13.5118,-283.312 L -13.5471,-283.127 L -13.6053,-282.948 L -13.6855,-282.777
 L -13.7865,-282.618 L -13.9065,-282.473 L -14.0439,-282.344 L -14.1963,-282.234 L -14.3613,-282.143 L -14.5365,-282.073
 L -14.7189,-282.027 L -14.9058,-282.003 z
M 14.9058,-274.503 L 14.7189,-274.527 L 14.5365,-274.573 L 14.3613,-274.643 L 14.1963,-274.734 L 14.0439,-274.844
 L 13.9065,-274.973 L 13.7865,-275.118 L 13.6855,-275.277 L 13.6053,-275.448 L 13.5471,-275.627 L 13.5118,-275.812
 L 13.5,-276 L 13.5118,-276.188 L 13.5471,-276.373 L 13.6053,-276.552 L 13.6855,-276.723 L 13.7865,-276.882
 L 13.9065,-277.027 L 14.0439,-277.156 L 14.1963,-277.266 L 14.3613,-277.357 L 14.5365,-277.427 L 14.7189,-277.473
 L 14.9058,-277.497 L 15.0942,-277.497 L 15.2811,-277.473 L 15.4635,-277.427 L 15.6387,-277.357 L 15.8037,-277.266
 L 15.9561,-277.156 L 16.0934,-277.027 L 16.2135,-276.882 L 16.3145,-276.723 L 16.3947,-276.552 L 16.4529,-276.373
 L 16.4882,-276.188 L 16.5,-276 L 16.4882,-275.812 L 16.4529,-275.627 L 16.3947,-275.448 L 16.3145,-275.277
 L 16.2135,-275.118 L 16.0934,-274.973 L 15.9561,-274.844 L 15.8037,-274.734 L 15.6387,-274.643 L 15.4635,-274.573
 L 15.2811,-274.527 L 15.0942,-274.503 z
M -15.0942,-274.503 L -15.2811,-274.527 L -15.4635,-274.573 L -15.6387,-274.643 L -15.8037,-274.734 L -15.9561,-274.844
 L -16.0934,-274.973 L -16.2135,-275.118 L -16.3145,-275.277 L -16.3947,-275.448 L -16.4529,-275.627 L -16.4882,-275.812
 L -16.5,-276 L -16.4882,-276.188 L -16.4529,-276.373 L -16.3947,-276.552 L -16.3145,-276.723 L -16.2135,-276.882
 L -16.0934,-277.027 L -15.9561,-277.156 L -15.8037,-277.266 L -15.6387,-277.357 L -15.4635,-277.427 L -15.2811,-277.473
 L -15.0942,-277.497 L -14.9058,-277.497 L -14.7189,-277.473 L -14.5365,-277.427 L -14.3613,-277.357 L -14.1963,-277.266
 L -14.0439,-277.156 L -13.9065,-277.027 L -13.7865,-276.882 L -13.6855,-276.723 L -13.6053,-276.552 L -13.5471,-276.373
 L -13.5118,-276.188 L -13.5,-276 L -13.5118,-275.812 L -13.5471,-275.627 L -13.6053,-275.448 L -13.6855,-275.277
 L -13.7865,-275.118 L -13.9065,-274.973 L -14.0439,-274.844 L -14.1963,-274.734 L -14.3613,-274.643 L -14.5365,-274.573
 L -14.7189,-274.527 L -14.9058,-274.503 z
M 14.9058,-267.003 L 14.7189,-267.027 L 14.5365,-267.073 L 14.3613,-267.143 L 14.1963,-267.234 L 14.0439,-267.344
 L 13.9065,-267.473 L 13.7865,-267.618 L 13.6855,-267.777 L 13.6053,-267.948 L 13.5471,-268.127 L 13.5118,-268.312
 L 13.5,-268.5 L 13.5118,-268.688 L 13.5471,-268.873 L 13.6053,-269.052 L 13.6855,-269.223 L 13.7865,-269.382
 L 13.9065,-269.527 L 14.0439,-269.656 L 14.1963,-269.766 L 14.3613,-269.857 L 14.5365,-269.927 L 14.7189,-269.973
 L 14.9058,-269.997 L 15.0942,-269.997 L 15.2811,-269.973 L 15.4635,-269.927 L 15.6387,-269.857 L 15.8037,-269.766
 L 15.9561,-269.656 L 16.0934,-269.527 L 16.2135,-269.382 L 16.3145,-269.223 L 16.3947,-269.052 L 16.4529,-268.873
 L 16.4882,-268.688 L 16.5,-268.5 L 16.4882,-268.312 L 16.4529,-268.127 L 16.3947,-267.948 L 16.3145,-267.777
 L 16.2135,-267.618 L 16.0934,-267.473 L 15.9561,-267.344 L 15.8037,-267.234 L 15.6387,-267.143 L 15.4635,-267.073
 L 15.2811,-267.027 L 15.0942,-267.003 z
M -15.0942,-267.003 L -15.2811,-267.027 L -15.4635,-267.073 L -15.6387,-267.143 L -15.8037,-267.234 L -15.9561,-267.344
 L -16.0934,-267.473 L -16.2135,-267.618 L -16.3145,-267.777 L -16.3947,-267.948 L -16.4529,-268.127 L -16.4882,-268.312
 L -16.5,-268.5 L -16.4882,-268.688 L -16.4529,-268.873 L -16.3947,-269.052 L -16.3145,-269.223 L -16.2135,-269.382
 L -16.0934,-269.527 L -15.9561,-269.656 L -15.8037,-269.766 L -15.6387,-269.857 L -15.4635,-269.927 L -15.2811,-269.973
 L -15.0942,-269.997 L -14.9058,-269.997 L -14.7189,-269.973 L -14.5365,-269.927 L -14.3613,-269.857 L -14.1963,-269.766
 L -14.0439,-269.656 L -13.9065,-269.527 L -13.7865,-269.382 L -13.6855,-269.223 L -13.6053,-269.052 L -13.5471,-268.873
 L -13.5118,-268.688 L -13.5,-268.5 L -13.5118,-268.312 L -13.5471,-268.127 L -13.6053,-267.948 L -13.6855,-267.777
 L -13.7865,-267.618 L -13.9065,-267.473 L -14.0439,-267.344 L -14.1963,-267.234 L -14.3613,-267.143 L -14.5365,-267.073
 L -14.7189,-267.027 L -14.9058,-267.003 z
M 14.8116,-258.006 L 14.4379,-258.053 L 14.0729,-258.147 L 13.7227,-258.286 L 13.3925,-258.467 L 13.0877,-258.688
 L 12.8131,-258.946 L 12.5729,-259.237 L 12.3711,-259.555 L 12.2107,-259.896 L 12.0942,-260.254 L 12.0237,-260.624
 L 12,-261 L 12.0237,-261.376 L 12.0942,-261.746 L 12.2107,-262.104 L 12.3711,-262.445 L 12.5729,-262.763
 L 12.8131,-263.054 L 13.0877,-263.312 L 13.3925,-263.533 L 13.7227,-263.714 L 14.0729,-263.853 L 14.4379,-263.947
 L 14.8116,-263.994 L 15.1884,-263.994 L 15.5621,-263.947 L 15.927,-263.853 L 16.2773,-263.714 L 16.6075,-263.533
 L 16.9123,-263.312 L 17.1869,-263.054 L 17.427,-262.763 L 17.6289,-262.445 L 17.7893,-262.104 L 17.9057,-261.746
 L 17.9763,-261.376 L 18,-261 L 17.9763,-260.624 L 17.9057,-260.254 L 17.7893,-259.896 L 17.6289,-259.555
 L 17.427,-259.237 L 17.1869,-258.946 L 16.9123,-258.688 L 16.6075,-258.467 L 16.2773,-258.286 L 15.927,-258.147
 L 15.5621,-258.053 L 15.1884,-258.006 z
M -15.1884,-258.006 L -15.5621,-258.053 L -15.927,-258.147 L -16.2773,-258.286 L -16.6075,-258.467 L -16.9123,-258.688
 L -17.1869,-258.946 L -17.427,-259.237 L -17.6289,-259.555 L -17.7893,-259.896 L -17.9057,-260.254 L -17.9763,-260.624
 L -18,-261 L -17.9763,-261.376 L -17.9057,-261.746 L -17.7893,-262.104 L -17.6289,-262.445 L -17.427,-262.763
 L -17.1869,-263.054 L -16.9123,-263.312 L -16.6075,-263.533 L -16.2773,-263.714 L -15.927,-263.853 L -15.5621,-263.947
 L -15.1884,-263.994 L -14.8116,-263.994 L -14.4379,-263.947 L -14.0729,-263.853 L -13.7227,-263.714 L -13.3925,-263.533
 L -13.0877,-263.312 L -12.8131,-263.054 L -12.5729,-262.763 L -12.3711,-262.445 L -12.2107,-262.104 L -12.0942,-261.746
 L -12.0237,-261.376 L -12,-261 L -12.0237,-260.624 L -12.0942,-260.254 L -12.2107,-259.896 L -12.3711,-259.555
 L -12.5729,-259.237 L -12.8131,-258.946 L -13.0877,-258.688 L -13.3925,-258.467 L -13.7227,-258.286 L -14.0729,-258.147
 L -14.4379,-258.053 L -14.8116,-258.006 z
M 17.9369,-185.089 L 18.5451,-185.245 L 19.1289,-185.476 L 19.6791,-185.778 L 20.1871,-186.147 L 20.6448,-186.577
 L 21.0451,-187.061 L 21.3815,-187.591 L 21.6489,-188.159 L 21.8429,-188.757 L 21.9606,-189.373 L 22,-190
 L 22,-224 L 21.9606,-224.627 L 21.8429,-225.243 L 21.6489,-225.841 L 21.3815,-226.409 L 21.0451,-226.939
 L 20.6448,-227.423 L 20.1871,-227.853 L 19.6791,-228.222 L 19.1289,-228.524 L 18.5451,-228.755 L 17.9369,-228.911
 L 17.3139,-228.99 L -17.3139,-228.99 L -17.9369,-228.911 L -18.5451,-228.755 L -19.1289,-228.524 L -19.6791,-228.222
 L -20.1871,-227.853 L -20.6448,-227.423 L -21.0451,-226.939 L -21.3815,-226.409 L -21.6489,-225.841 L -21.8429,-225.243
 L -21.9606,-224.627 L -22,-224 L -22,-190 L -21.9606,-189.373 L -21.8429,-188.757 L -21.6489,-188.159
 L -21.3815,-187.591 L -21.0451,-187.061 L -20.6448,-186.577 L -20.1871,-186.147 L -19.6791,-185.778 L -19.1289,-185.476
 L -18.5451,-185.245 L -17.9369,-185.089 L -17.3139,-185.01 L 17.3139,-185.01 z
M 14.8116,-219.006 L 14.4379,-219.053 L 14.0729,-219.147 L 13.7227,-219.286 L 13.3925,-219.467 L 13.0877,-219.688
 L 12.8131,-219.946 L 12.5729,-220.237 L 12.3711,-220.555 L 12.2107,-220.896 L 12.0942,-221.254 L 12.0237,-221.624
 L 12,-222 L 12.0237,-222.376 L 12.0942,-222.746 L 12.2107,-223.104 L 12.3711,-223.445 L 12.5729,-223.763
 L 12.8131,-224.054 L 13.0877,-224.312 L 13.3925,-224.533 L 13.7227,-224.714 L 14.0729,-224.853 L 14.4379,-224.947
 L 14.8116,-224.994 L 15.1884,-224.994 L 15.5621,-224.947 L 15.927,-224.853 L 16.2773,-224.714 L 16.6075,-224.533
 L 16.9123,-224.312 L 17.1869,-224.054 L 17.427,-223.763 L 17.6289,-223.445 L 17.7893,-223.104 L 17.9057,-222.746
 L 17.9763,-222.376 L 18,-222 L 17.9763,-221.624 L 17.9057,-221.254 L 17.7893,-220.896 L 17.6289,-220.555
 L 17.427,-220.237 L 17.1869,-219.946 L 16.9123,-219.688 L 16.6075,-219.467 L 16.2773,-219.286 L 15.927,-219.147
 L 15.5621,-219.053 L 15.1884,-219.006 z
M -0.18837,-219.006 L -0.562134,-219.053 L -0.927048,-219.147 L -1.27733,-219.286 L -1.60747,-219.467 L -1.91226,-219.688
 L -2.1869,-219.946 L -2.42705,-220.237 L -2.62891,-220.555 L -2.78932,-220.896 L -2.90575,-221.254 L -2.97633,-221.624
 L -3,-222 L -2.97633,-222.376 L -2.90575,-222.746 L -2.78932,-223.104 L -2.62891,-223.445 L -2.42705,-223.763
 L -2.1869,-224.054 L -1.91226,-224.312 L -1.60747,-224.533 L -1.27733,-224.714 L -0.927048,-224.853 L -0.562134,-224.947
 L -0.18837,-224.994 L 0.18837,-224.994 L 0.562134,-224.947 L 0.927048,-224.853 L 1.27733,-224.714 L 1.60747,-224.533
 L 1.91226,-224.312 L 2.1869,-224.054 L 2.42705,-223.763 L 2.62891,-223.445 L 2.78932,-223.104 L 2.90575,-222.746
 L 2.97633,-222.376 L 3,-222 L 2.97633,-221.624 L 2.90575,-221.254 L 2.78932,-220.896 L 2.62891,-220.555
 L 2.42705,-220.237 L 2.1869,-219.946 L 1.91226,-219.688 L 1.60747,-219.467 L 1.27733,-219.286 L 0.927048,-219.147
 L 0.562134,-219.053 L 0.18837,-219.006 z
M -15.1884,-219.006 L -15.5621,-219.053 L -15.927,-219.147 L -16.2773,-219.286 L -16.6075,-219.467 L -16.9123,-219.688
 L -17.1869,-219.946 L -17.427,-220.237 L -17.6289,-220.555 L -17.7893,-220.896 L -17.9057,-221.254 L -17.9763,-221.624
 L -18,-222 L -17.9763,-222.376 L -17.9057,-222.746 L -17.7893,-223.104 L -17.6289,-223.445 L -17.427,-223.763
 L -17.1869,-224.054 L -16.9123,-224.312 L -16.6075,-224.533 L -16.2773,-224.714 L -15.927,-224.853 L -15.5621,-224.947
 L -15.1884,-224.994 L -14.8116,-224.994 L -14.4379,-224.947 L -14.0729,-224.853 L -13.7227,-224.714 L -13.3925,-224.533
 L -13.0877,-224.312 L -12.8131,-224.054 L -12.5729,-223.763 L -12.3711,-223.445 L -12.2107,-223.104 L -12.0942,-222.746
 L -12.0237,-222.376 L -12,-222 L -12.0237,-221.624 L -12.0942,-221.254 L -12.2107,-220.896 L -12.3711,-220.555
 L -12.5729,-220.237 L -12.8131,-219.946 L -13.0877,-219.688 L -13.3925,-219.467 L -13.7227,-219.286 L -14.0729,-219.147
 L -14.4379,-219.053 L -14.8116,-219.006 z
M -7.59418,-220.503 L -7.78107,-220.527 L -7.96352,-220.573 L -8.13866,-220.643 L -8.30373,-220.734 L -8.45613,-220.844
 L -8.59344,-220.973 L -8.71352,-221.118 L -8.81445,-221.277 L -8.89465,-221.448 L -8.95287,-221.627 L -8.98816,-221.812
 L -9,-222 L -8.98816,-222.188 L -8.95287,-222.373 L -8.89465,-222.552 L -8.81445,-222.723 L -8.71352,-222.882
 L -8.59344,-223.027 L -8.45613,-223.156 L -8.30373,-223.266 L -8.13866,-223.357 L -7.96352,-223.427 L -7.78107,-223.473
 L -7.59418,-223.497 L -7.40581,-223.497 L -7.21892,-223.473 L -7.03647,-223.427 L -6.86133,-223.357 L -6.69626,-223.266
 L -6.54385,-223.156 L -6.40654,-223.027 L -6.28647,-222.882 L -6.18553,-222.723 L -6.10533,-222.552 L -6.04712,-222.373
 L -6.01183,-222.188 L -6,-222 L -6.01183,-221.812 L -6.04712,-221.627 L -6.10533,-221.448 L -6.18553,-221.277
 L -6.28647,-221.118 L -6.40654,-220.973 L -6.54385,-220.844 L -6.69626,-220.734 L -6.86133,-220.643 L -7.03647,-220.573
 L -7.21892,-220.527 L -7.40581,-220.503 z
M 7.40581,-220.503 L 7.21892,-220.527 L 7.03647,-220.573 L 6.86133,-220.643 L 6.69626,-220.734 L 6.54385,-220.844
 L 6.40654,-220.973 L 6.28647,-221.118 L 6.18553,-221.277 L 6.10533,-221.448 L 6.04712,-221.627 L 6.01183,-221.812
 L 6,-222 L 6.01183,-222.188 L 6.04712,-222.373 L 6.10533,-222.552 L 6.18553,-222.723 L 6.28647,-222.882
 L 6.40654,-223.027 L 6.54385,-223.156 L 6.69626,-223.266 L 6.86133,-223.357 L 7.03647,-223.427 L 7.21892,-223.473
 L 7.40581,-223.497 L 7.59418,-223.497 L 7.78107,-223.473 L 7.96352,-223.427 L 8.13866,-223.357 L 8.30373,-223.266
 L 8.45613,-223.156 L 8.59344,-223.027 L 8.71352,-222.882 L 8.81445,-222.723 L 8.89465,-222.552 L 8.95287,-222.373
 L 8.98816,-222.188 L 9,-222 L 8.98816,-221.812 L 8.95287,-221.627 L 8.89465,-221.448 L 8.81445,-221.277
 L 8.71352,-221.118 L 8.59344,-220.973 L 8.45613,-220.844 L 8.30373,-220.734 L 8.13866,-220.643 L 7.96352,-220.573
 L 7.78107,-220.527 L 7.59418,-220.503 z
M -7.31395,-196.51 L -7.9369,-196.589 L -8.54507,-196.745 L -9.12889,-196.976 L -9.67912,-197.278 L -10.1871,-197.647
 L -10.6448,-198.077 L -11.0451,-198.561 L -11.3815,-199.091 L -11.6489,-199.659 L -11.8429,-200.257 L -11.9606,-200.873
 L -12,-201.5 L -12,-212.5 L -11.9606,-213.127 L -11.8429,-213.743 L -11.6489,-214.341 L -11.3815,-214.909
 L -11.0451,-215.439 L -10.6448,-215.923 L -10.1871,-216.353 L -9.67912,-216.722 L -9.12889,-217.024 L -8.54507,-217.255
 L -7.9369,-217.411 L -7.31395,-217.49 L 7.31395,-217.49 L 7.9369,-217.411 L 8.54507,-217.255 L 9.12889,-217.024
 L 9.67912,-216.722 L 10.1871,-216.353 L 10.6448,-215.923 L 11.0451,-215.439 L 11.3815,-214.909 L 11.6489,-214.341
 L 11.8429,-213.743 L 11.9606,-213.127 L 12,-212.5 L 12,-201.5 L 11.9606,-200.873 L 11.8429,-200.257
 L 11.6489,-199.659 L 11.3815,-199.091 L 11.0451,-198.561 L 10.6448,-198.077 L 10.1871,-197.647 L 9.67912,-197.278
 L 9.12889,-196.976 L 8.54507,-196.745 L 7.9369,-196.589 L 7.31395,-196.51 z
M 14.9058,-213.003 L 14.7189,-213.027 L 14.5365,-213.073 L 14.3613,-213.143 L 14.1963,-213.234 L 14.0439,-213.344
 L 13.9065,-213.473 L 13.7865,-213.618 L 13.6855,-213.777 L 13.6053,-213.948 L 13.5471,-214.127 L 13.5118,-214.312
 L 13.5,-214.5 L 13.5118,-214.688 L 13.5471,-214.873 L 13.6053,-215.052 L 13.6855,-215.223 L 13.7865,-215.382
 L 13.9065,-215.527 L 14.0439,-215.656 L 14.1963,-215.766 L 14.3613,-215.857 L 14.5365,-215.927 L 14.7189,-215.973
 L 14.9058,-215.997 L 15.0942,-215.997 L 15.2811,-215.973 L 15.4635,-215.927 L 15.6387,-215.857 L 15.8037,-215.766
 L 15.9561,-215.656 L 16.0934,-215.527 L 16.2135,-215.382 L 16.3145,-215.223 L 16.3947,-215.052 L 16.4529,-214.873
 L 16.4882,-214.688 L 16.5,-214.5 L 16.4882,-214.312 L 16.4529,-214.127 L 16.3947,-213.948 L 16.3145,-213.777
 L 16.2135,-213.618 L 16.0934,-213.473 L 15.9561,-213.344 L 15.8037,-213.234 L 15.6387,-213.143 L 15.4635,-213.073
 L 15.2811,-213.027 L 15.0942,-213.003 z
M -15.0942,-213.003 L -15.2811,-213.027 L -15.4635,-213.073 L -15.6387,-213.143 L -15.8037,-213.234 L -15.9561,-213.344
 L -16.0934,-213.473 L -16.2135,-213.618 L -16.3145,-213.777 L -16.3947,-213.948 L -16.4529,-214.127 L -16.4882,-214.312
 L -16.5,-214.5 L -16.4882,-214.688 L -16.4529,-214.873 L -16.3947,-215.052 L -16.3145,-215.223 L -16.2135,-215.382
 L -16.0934,-215.527 L -15.9561,-215.656 L -15.8037,-215.766 L -15.6387,-215.857 L -15.4635,-215.927 L -15.2811,-215.973
 L -15.0942,-215.997 L -14.9058,-215.997 L -14.7189,-215.973 L -14.5365,-215.927 L -14.3613,-215.857 L -14.1963,-215.766
 L -14.0439,-215.656 L -13.9065,-215.527 L -13.7865,-215.382 L -13.6855,-215.223 L -13.6053,-215.052 L -13.5471,-214.873
 L -13.5118,-214.688 L -13.5,-214.5 L -13.5118,-214.312 L -13.5471,-214.127 L -13.6053,-213.948 L -13.6855,-213.777
 L -13.7865,-213.618 L -13.9065,-213.473 L -14.0439,-213.344 L -14.1963,-213.234 L -14.3613,-213.143 L -14.5365,-213.073
 L -14.7189,-213.027 L -14.9058,-213.003 z
M -15.0942,-205.503 L -15.2811,-205.527 L -15.4635,-205.573 L -15.6387,-205.643 L -15.8037,-205.734 L -15.9561,-205.844
 L -16.0934,-205.973 L -16.2135,-206.118 L -16.3145,-206.277 L -16.3947,-206.448 L -16.4529,-206.627 L -16.4882,-206.812
 L -16.5,-207 L -16.4882,-207.188 L -16.4529,-207.373 L -16.3947,-207.552 L -16.3145,-207.723 L -16.2135,-207.882
 L -16.0934,-208.027 L -15.9561,-208.156 L -15.8037,-208.266 L -15.6387,-208.357 L -15.4635,-208.427 L -15.2811,-208.473
 L -15.0942,-208.497 L -14.9058,-208.497 L -14.7189,-208.473 L -14.5365,-208.427 L -14.3613,-208.357 L -14.1963,-208.266
 L -14.0439,-208.156 L -13.9065,-208.027 L -13.7865,-207.882 L -13.6855,-207.723 L -13.6053,-207.552 L -13.5471,-207.373
 L -13.5118,-207.188 L -13.5,-207 L -13.5118,-206.812 L -13.5471,-206.627 L -13.6053,-206.448 L -13.6855,-206.277
 L -13.7865,-206.118 L -13.9065,-205.973 L -14.0439,-205.844 L -14.1963,-205.734 L -14.3613,-205.643 L -14.5365,-205.573
 L -14.7189,-205.527 L -14.9058,-205.503 z
M 14.9058,-205.503 L 14.7189,-205.527 L 14.5365,-205.573 L 14.3613,-205.643 L 14.1963,-205.734 L 14.0439,-205.844
 L 13.9065,-205.973 L 13.7865,-206.118 L 13.6855,-206.277 L 13.6053,-206.448 L 13.5471,-206.627 L 13.5118,-206.812
 L 13.5,-207 L 13.5118,-207.188 L 13.5471,-207.373 L 13.6053,-207.552 L 13.6855,-207.723 L 13.7865,-207.882
 L 13.9065,-208.027 L 14.0439,-208.156 L 14.1963,-208.266 L 14.3613,-208.357 L 14.5365,-208.427 L 14.7189,-208.473
 L 14.9058,-208.497 L 15.0942,-208.497 L 15.2811,-208.473 L 15.4635,-208.427 L 15.6387,-208.357 L 15.8037,-208.266
 L 15.9561,-208.156 L 16.0934,-208.027 L 16.2135,-207.882 L 16.3145,-207.723 L 16.3947,-207.552 L 16.4529,-207.373
 L 16.4882,-207.188 L 16.5,-207 L 16.4882,-206.812 L 16.4529,-206.627 L 16.3947,-206.448 L 16.3145,-206.277
 L 16.2135,-206.118 L 16.0934,-205.973 L 15.9561,-205.844 L 15.8037,-205.734 L 15.6387,-205.643 L 15.4635,-205.573
 L 15.2811,-205.527 L 15.0942,-205.503 z
M -15.0942,-198.003 L -15.2811,-198.027 L -15.4635,-198.073 L -15.6387,-198.143 L -15.8037,-198.234 L -15.9561,-198.344
 L -16.0934,-198.473 L -16.2135,-198.618 L -16.3145,-198.777 L -16.3947,-198.948 L -16.4529,-199.127 L -16.4882,-199.312
 L -16.5,-199.5 L -16.4882,-199.688 L -16.4529,-199.873 L -16.3947,-200.052 L -16.3145,-200.223 L -16.2135,-200.382
 L -16.0934,-200.527 L -15.9561,-200.656 L -15.8037,-200.766 L -15.6387,-200.857 L -15.4635,-200.927 L -15.2811,-200.973
 L -15.0942,-200.997 L -14.9058,-200.997 L -14.7189,-200.973 L -14.5365,-200.927 L -14.3613,-200.857 L -14.1963,-200.766
 L -14.0439,-200.656 L -13.9065,-200.527 L -13.7865,-200.382 L -13.6855,-200.223 L -13.6053,-200.052 L -13.5471,-199.873
 L -13.5118,-199.688 L -13.5,-199.5 L -13.5118,-199.312 L -13.5471,-199.127 L -13.6053,-198.948 L -13.6855,-198.777
 L -13.7865,-198.618 L -13.9065,-198.473 L -14.0439,-198.344 L -14.1963,-198.234 L -14.3613,-198.143 L -14.5365,-198.073
 L -14.7189,-198.027 L -14.9058,-198.003 z
M 14.9058,-198.003 L 14.7189,-198.027 L 14.5365,-198.073 L 14.3613,-198.143 L 14.1963,-198.234 L 14.0439,-198.344
 L 13.9065,-198.473 L 13.7865,-198.618 L 13.6855,-198.777 L 13.6053,-198.948 L 13.5471,-199.127 L 13.5118,-199.312
 L 13.5,-199.5 L 13.5118,-199.688 L 13.5471,-199.873 L 13.6053,-200.052 L 13.6855,-200.223 L 13.7865,-200.382
 L 13.9065,-200.527 L 14.0439,-200.656 L 14.1963,-200.766 L 14.3613,-200.857 L 14.5365,-200.927 L 14.7189,-200.973
 L 14.9058,-200.997 L 15.0942,-200.997 L 15.2811,-200.973 L 15.4635,-200.927 L 15.6387,-200.857 L 15.8037,-200.766
 L 15.9561,-200.656 L 16.0934,-200.527 L 16.2135,-200.382 L 16.3145,-200.223 L 16.3947,-200.052 L 16.4529,-199.873
 L 16.4882,-199.688 L 16.5,-199.5 L 16.4882,-199.312 L 16.4529,-199.127 L 16.3947,-198.948 L 16.3145,-198.777
 L 16.2135,-198.618 L 16.0934,-198.473 L 15.9561,-198.344 L 15.8037,-198.234 L 15.6387,-198.143 L 15.4635,-198.073
 L 15.2811,-198.027 L 15.0942,-198.003 z
M -15.1884,-189.006 L -15.5621,-189.053 L -15.927,-189.147 L -16.2773,-189.286 L -16.6075,-189.467 L -16.9123,-189.688
 L -17.1869,-189.946 L -17.427,-190.237 L -17.6289,-190.555 L -17.7893,-190.896 L -17.9057,-191.254 L -17.9763,-191.624
 L -18,-192 L -17.9763,-192.376 L -17.9057,-192.746 L -17.7893,-193.104 L -17.6289,-193.445 L -17.427,-193.763
 L -17.1869,-194.054 L -16.9123,-194.312 L -16.6075,-194.533 L -16.2773,-194.714 L -15.927,-194.853 L -15.5621,-194.947
 L -15.1884,-194.994 L -14.8116,-194.994 L -14.4379,-194.947 L -14.0729,-194.853 L -13.7227,-194.714 L -13.3925,-194.533
 L -13.0877,-194.312 L -12.8131,-194.054 L -12.5729,-193.763 L -12.3711,-193.445 L -12.2107,-193.104 L -12.0942,-192.746
 L -12.0237,-192.376 L -12,-192 L -12.0237,-191.624 L -12.0942,-191.254 L -12.2107,-190.896 L -12.3711,-190.555
 L -12.5729,-190.237 L -12.8131,-189.946 L -13.0877,-189.688 L -13.3925,-189.467 L -13.7227,-189.286 L -14.0729,-189.147
 L -14.4379,-189.053 L -14.8116,-189.006 z
M 14.8116,-189.006 L 14.4379,-189.053 L 14.0729,-189.147 L 13.7227,-189.286 L 13.3925,-189.467 L 13.0877,-189.688
 L 12.8131,-189.946 L 12.5729,-190.237 L 12.3711,-190.555 L 12.2107,-190.896 L 12.0942,-191.254 L 12.0237,-191.624
 L 12,-192 L 12.0237,-192.376 L 12.0942,-192.746 L 12.2107,-193.104 L 12.3711,-193.445 L 12.5729,-193.763
 L 12.8131,-194.054 L 13.0877,-194.312 L 13.3925,-194.533 L 13.7227,-194.714 L 14.0729,-194.853 L 14.4379,-194.947
 L 14.8116,-194.994 L 15.1884,-194.994 L 15.5621,-194.947 L 15.927,-194.853 L 16.2773,-194.714 L 16.6075,-194.533
 L 16.9123,-194.312 L 17.1869,-194.054 L 17.427,-193.763 L 17.6289,-193.445 L 17.7893,-193.104 L 17.9057,-192.746
 L 17.9763,-192.376 L 18,-192 L 17.9763,-191.624 L 17.9057,-191.254 L 17.7893,-190.896 L 17.6289,-190.555
 L 17.427,-190.237 L 17.1869,-189.946 L 16.9123,-189.688 L 16.6075,-189.467 L 16.2773,-189.286 L 15.927,-189.147
 L 15.5621,-189.053 L 15.1884,-189.006 z
" stroke="black" fill="lightgray" stroke-width="0.5"/>
</svg>
