solid OpenSCAD_Model
  facet normal 0.998026 0.0628038 0
    outer loop
      vertex 2.3 0 0
      vertex 2.28186 0.288266 -3
      vertex 2.28186 0.288266 0
    endloop
  endfacet
  facet normal 0.998026 0.0628038 0
    outer loop
      vertex 2.28186 0.288266 -3
      vertex 2.3 0 0
      vertex 2.3 0 -3
    endloop
  endfacet
  facet normal -0.998026 0.0628038 0
    outer loop
      vertex -2.3 0 -3
      vertex -2.28186 0.288266 0
      vertex -2.28186 0.288266 -3
    endloop
  endfacet
  facet normal -0.998026 0.0628038 0
    outer loop
      vertex -2.28186 0.288266 0
      vertex -2.3 0 -3
      vertex -2.3 0 0
    endloop
  endfacet
  facet normal 0 1 -0
    outer loop
      vertex 0.144418 2.29546 -3
      vertex -0.144418 2.29546 0
      vertex 0.144418 2.29546 0
    endloop
  endfacet
  facet normal 0 1 0
    outer loop
      vertex -0.144418 2.29546 0
      vertex 0.144418 2.29546 -3
      vertex -0.144418 2.29546 -3
    endloop
  endfacet
  facet normal 0 -1 0
    outer loop
      vertex -0.144418 -2.29546 -3
      vertex 0.144418 -2.29546 0
      vertex -0.144418 -2.29546 0
    endloop
  endfacet
  facet normal 0 -1 -0
    outer loop
      vertex 0.144418 -2.29546 0
      vertex -0.144418 -2.29546 -3
      vertex 0.144418 -2.29546 -3
    endloop
  endfacet
  facet normal 0.684531 0.728984 -0
    outer loop
      vertex 1.67663 1.57446 -3
      vertex 1.46607 1.77218 0
      vertex 1.67663 1.57446 0
    endloop
  endfacet
  facet normal 0.684531 0.728984 0
    outer loop
      vertex 1.46607 1.77218 0
      vertex 1.67663 1.57446 -3
      vertex 1.46607 1.77218 -3
    endloop
  endfacet
  facet normal -0.684531 0.728984 0
    outer loop
      vertex -1.46607 1.77218 -3
      vertex -1.67663 1.57446 0
      vertex -1.46607 1.77218 0
    endloop
  endfacet
  facet normal -0.684531 0.728984 0
    outer loop
      vertex -1.67663 1.57446 0
      vertex -1.46607 1.77218 -3
      vertex -1.67663 1.57446 -3
    endloop
  endfacet
  facet normal -0.36813 0.929774 0
    outer loop
      vertex -0.710738 2.18743 -3
      vertex -0.979292 2.0811 0
      vertex -0.710738 2.18743 0
    endloop
  endfacet
  facet normal -0.36813 0.929774 0
    outer loop
      vertex -0.979292 2.0811 0
      vertex -0.710738 2.18743 -3
      vertex -0.979292 2.0811 -3
    endloop
  endfacet
  facet normal 0.904813 0.42581 0
    outer loop
      vertex 2.13849 0.846686 0
      vertex 2.0155 1.10803 -3
      vertex 2.0155 1.10803 0
    endloop
  endfacet
  facet normal 0.904813 0.42581 0
    outer loop
      vertex 2.0155 1.10803 -3
      vertex 2.13849 0.846686 0
      vertex 2.13849 0.846686 -3
    endloop
  endfacet
  facet normal 0.844345 0.5358 0
    outer loop
      vertex 2.0155 1.10803 0
      vertex 1.86074 1.35191 -3
      vertex 1.86074 1.35191 0
    endloop
  endfacet
  facet normal 0.844345 0.5358 0
    outer loop
      vertex 1.86074 1.35191 -3
      vertex 2.0155 1.10803 0
      vertex 2.0155 1.10803 -3
    endloop
  endfacet
  facet normal 0.36813 0.929774 -0
    outer loop
      vertex 0.979292 2.0811 -3
      vertex 0.710738 2.18743 0
      vertex 0.979292 2.0811 0
    endloop
  endfacet
  facet normal 0.36813 0.929774 0
    outer loop
      vertex 0.710738 2.18743 0
      vertex 0.979292 2.0811 -3
      vertex 0.710738 2.18743 -3
    endloop
  endfacet
  facet normal 0.248689 0.968584 -0
    outer loop
      vertex 0.710738 2.18743 -3
      vertex 0.430977 2.25926 0
      vertex 0.710738 2.18743 0
    endloop
  endfacet
  facet normal 0.248689 0.968584 0
    outer loop
      vertex 0.430977 2.25926 0
      vertex 0.710738 2.18743 -3
      vertex 0.430977 2.25926 -3
    endloop
  endfacet
  facet normal 0.587783 0.809019 -0
    outer loop
      vertex 1.46607 1.77218 -3
      vertex 1.2324 1.94195 0
      vertex 1.46607 1.77218 0
    endloop
  endfacet
  facet normal 0.587783 0.809019 0
    outer loop
      vertex 1.2324 1.94195 0
      vertex 1.46607 1.77218 -3
      vertex 1.2324 1.94195 -3
    endloop
  endfacet
  facet normal -0.844345 0.5358 0
    outer loop
      vertex -2.0155 1.10803 -3
      vertex -1.86074 1.35191 0
      vertex -1.86074 1.35191 -3
    endloop
  endfacet
  facet normal -0.844345 0.5358 0
    outer loop
      vertex -1.86074 1.35191 0
      vertex -2.0155 1.10803 -3
      vertex -2.0155 1.10803 0
    endloop
  endfacet
  facet normal -0.770512 0.637425 0
    outer loop
      vertex -1.86074 1.35191 -3
      vertex -1.67663 1.57446 0
      vertex -1.67663 1.57446 -3
    endloop
  endfacet
  facet normal -0.770512 0.637425 0
    outer loop
      vertex -1.67663 1.57446 0
      vertex -1.86074 1.35191 -3
      vertex -1.86074 1.35191 0
    endloop
  endfacet
  facet normal -0.951062 0.309 0
    outer loop
      vertex -2.22774 0.571986 -3
      vertex -2.13849 0.846686 0
      vertex -2.13849 0.846686 -3
    endloop
  endfacet
  facet normal -0.951062 0.309 0
    outer loop
      vertex -2.13849 0.846686 0
      vertex -2.22774 0.571986 -3
      vertex -2.22774 0.571986 0
    endloop
  endfacet
  facet normal -0.481761 0.876303 0
    outer loop
      vertex -0.979292 2.0811 -3
      vertex -1.2324 1.94195 0
      vertex -0.979292 2.0811 0
    endloop
  endfacet
  facet normal -0.481761 0.876303 0
    outer loop
      vertex -1.2324 1.94195 0
      vertex -0.979292 2.0811 -3
      vertex -1.2324 1.94195 -3
    endloop
  endfacet
  facet normal -0.12533 0.992115 0
    outer loop
      vertex -0.144418 2.29546 -3
      vertex -0.430977 2.25926 0
      vertex -0.144418 2.29546 0
    endloop
  endfacet
  facet normal -0.12533 0.992115 0
    outer loop
      vertex -0.430977 2.25926 0
      vertex -0.144418 2.29546 -3
      vertex -0.430977 2.25926 -3
    endloop
  endfacet
  facet normal 0.12533 -0.992115 0
    outer loop
      vertex 0.144418 -2.29546 -3
      vertex 0.430977 -2.25926 0
      vertex 0.144418 -2.29546 0
    endloop
  endfacet
  facet normal 0.12533 -0.992115 0
    outer loop
      vertex 0.430977 -2.25926 0
      vertex 0.144418 -2.29546 -3
      vertex 0.430977 -2.25926 -3
    endloop
  endfacet
  facet normal 0.951062 0.309 0
    outer loop
      vertex 2.22774 0.571986 0
      vertex 2.13849 0.846686 -3
      vertex 2.13849 0.846686 0
    endloop
  endfacet
  facet normal 0.951062 0.309 0
    outer loop
      vertex 2.13849 0.846686 -3
      vertex 2.22774 0.571986 0
      vertex 2.22774 0.571986 -3
    endloop
  endfacet
  facet normal 0.982289 0.187373 0
    outer loop
      vertex 2.28186 0.288266 0
      vertex 2.22774 0.571986 -3
      vertex 2.22774 0.571986 0
    endloop
  endfacet
  facet normal 0.982289 0.187373 0
    outer loop
      vertex 2.22774 0.571986 -3
      vertex 2.28186 0.288266 0
      vertex 2.28186 0.288266 -3
    endloop
  endfacet
  facet normal 0.770512 0.637425 0
    outer loop
      vertex 1.86074 1.35191 0
      vertex 1.67663 1.57446 -3
      vertex 1.67663 1.57446 0
    endloop
  endfacet
  facet normal 0.770512 0.637425 0
    outer loop
      vertex 1.67663 1.57446 -3
      vertex 1.86074 1.35191 0
      vertex 1.86074 1.35191 -3
    endloop
  endfacet
  facet normal 0.12533 0.992115 -0
    outer loop
      vertex 0.430977 2.25926 -3
      vertex 0.144418 2.29546 0
      vertex 0.430977 2.25926 0
    endloop
  endfacet
  facet normal 0.12533 0.992115 0
    outer loop
      vertex 0.144418 2.29546 0
      vertex 0.430977 2.25926 -3
      vertex 0.144418 2.29546 -3
    endloop
  endfacet
  facet normal -0.904813 0.42581 0
    outer loop
      vertex -2.13849 0.846686 -3
      vertex -2.0155 1.10803 0
      vertex -2.0155 1.10803 -3
    endloop
  endfacet
  facet normal -0.904813 0.42581 0
    outer loop
      vertex -2.0155 1.10803 0
      vertex -2.13849 0.846686 -3
      vertex -2.13849 0.846686 0
    endloop
  endfacet
  facet normal -0.982289 0.187373 0
    outer loop
      vertex -2.28186 0.288266 -3
      vertex -2.22774 0.571986 0
      vertex -2.22774 0.571986 -3
    endloop
  endfacet
  facet normal -0.982289 0.187373 0
    outer loop
      vertex -2.22774 0.571986 0
      vertex -2.28186 0.288266 -3
      vertex -2.28186 0.288266 0
    endloop
  endfacet
  facet normal 0 0 1
    outer loop
      vertex 2.28186 0.288266 0
      vertex 2.28186 -0.288266 0
      vertex 2.3 0 0
    endloop
  endfacet
  facet normal 0 0 1
    outer loop
      vertex 2.22774 0.571986 0
      vertex 2.28186 -0.288266 0
      vertex 2.28186 0.288266 0
    endloop
  endfacet
  facet normal 0 0 1
    outer loop
      vertex 2.22774 0.571986 0
      vertex 2.22774 -0.571986 0
      vertex 2.28186 -0.288266 0
    endloop
  endfacet
  facet normal 0 0 1
    outer loop
      vertex 2.13849 0.846686 0
      vertex 2.22774 -0.571986 0
      vertex 2.22774 0.571986 0
    endloop
  endfacet
  facet normal 0 0 1
    outer loop
      vertex 2.13849 0.846686 0
      vertex 2.13849 -0.846686 0
      vertex 2.22774 -0.571986 0
    endloop
  endfacet
  facet normal 0 0 1
    outer loop
      vertex 2.0155 1.10803 0
      vertex 2.13849 -0.846686 0
      vertex 2.13849 0.846686 0
    endloop
  endfacet
  facet normal 0 0 1
    outer loop
      vertex 2.0155 1.10803 0
      vertex 2.0155 -1.10803 0
      vertex 2.13849 -0.846686 0
    endloop
  endfacet
  facet normal 0 0 1
    outer loop
      vertex 1.86074 1.35191 0
      vertex 2.0155 -1.10803 0
      vertex 2.0155 1.10803 0
    endloop
  endfacet
  facet normal 0 0 1
    outer loop
      vertex 1.86074 1.35191 0
      vertex 1.86074 -1.35191 0
      vertex 2.0155 -1.10803 0
    endloop
  endfacet
  facet normal 0 0 1
    outer loop
      vertex 1.67663 1.57446 0
      vertex 1.86074 -1.35191 0
      vertex 1.86074 1.35191 0
    endloop
  endfacet
  facet normal 0 0 1
    outer loop
      vertex 1.67663 1.57446 0
      vertex 1.67663 -1.57446 0
      vertex 1.86074 -1.35191 0
    endloop
  endfacet
  facet normal 0 0 1
    outer loop
      vertex 1.46607 1.77218 0
      vertex 1.67663 -1.57446 0
      vertex 1.67663 1.57446 0
    endloop
  endfacet
  facet normal 0 0 1
    outer loop
      vertex 1.46607 1.77218 0
      vertex 1.46607 -1.77218 0
      vertex 1.67663 -1.57446 0
    endloop
  endfacet
  facet normal 0 0 1
    outer loop
      vertex 1.2324 1.94195 0
      vertex 1.46607 -1.77218 0
      vertex 1.46607 1.77218 0
    endloop
  endfacet
  facet normal 0 0 1
    outer loop
      vertex 1.2324 1.94195 0
      vertex 1.2324 -1.94195 0
      vertex 1.46607 -1.77218 0
    endloop
  endfacet
  facet normal 0 0 1
    outer loop
      vertex 0.979292 2.0811 0
      vertex 1.2324 -1.94195 0
      vertex 1.2324 1.94195 0
    endloop
  endfacet
  facet normal 0 0 1
    outer loop
      vertex 0.979292 2.0811 0
      vertex 0.979292 -2.0811 0
      vertex 1.2324 -1.94195 0
    endloop
  endfacet
  facet normal 0 0 1
    outer loop
      vertex 0.710738 2.18743 0
      vertex 0.979292 -2.0811 0
      vertex 0.979292 2.0811 0
    endloop
  endfacet
  facet normal 0 0 1
    outer loop
      vertex 0.710738 2.18743 0
      vertex 0.710738 -2.18743 0
      vertex 0.979292 -2.0811 0
    endloop
  endfacet
  facet normal 0 0 1
    outer loop
      vertex 0.430977 2.25926 0
      vertex 0.710738 -2.18743 0
      vertex 0.710738 2.18743 0
    endloop
  endfacet
  facet normal 0 0 1
    outer loop
      vertex 0.430977 2.25926 0
      vertex 0.430977 -2.25926 0
      vertex 0.710738 -2.18743 0
    endloop
  endfacet
  facet normal 0 0 1
    outer loop
      vertex 0.144418 2.29546 0
      vertex 0.430977 -2.25926 0
      vertex 0.430977 2.25926 0
    endloop
  endfacet
  facet normal 0 0 1
    outer loop
      vertex 0.144418 2.29546 0
      vertex 0.144418 -2.29546 0
      vertex 0.430977 -2.25926 0
    endloop
  endfacet
  facet normal -0 0 1
    outer loop
      vertex -0.144418 2.29546 0
      vertex 0.144418 -2.29546 0
      vertex 0.144418 2.29546 0
    endloop
  endfacet
  facet normal 0 0 1
    outer loop
      vertex -0.144418 2.29546 0
      vertex -0.144418 -2.29546 0
      vertex 0.144418 -2.29546 0
    endloop
  endfacet
  facet normal -0 0 1
    outer loop
      vertex -0.430977 2.25926 0
      vertex -0.144418 -2.29546 0
      vertex -0.144418 2.29546 0
    endloop
  endfacet
  facet normal 0 0 1
    outer loop
      vertex -0.430977 2.25926 0
      vertex -0.430977 -2.25926 0
      vertex -0.144418 -2.29546 0
    endloop
  endfacet
  facet normal -0 0 1
    outer loop
      vertex -0.710738 2.18743 0
      vertex -0.430977 -2.25926 0
      vertex -0.430977 2.25926 0
    endloop
  endfacet
  facet normal 0 0 1
    outer loop
      vertex -0.710738 2.18743 0
      vertex -0.710738 -2.18743 0
      vertex -0.430977 -2.25926 0
    endloop
  endfacet
  facet normal -0 0 1
    outer loop
      vertex -0.979292 2.0811 0
      vertex -0.710738 -2.18743 0
      vertex -0.710738 2.18743 0
    endloop
  endfacet
  facet normal 0 0 1
    outer loop
      vertex -0.979292 2.0811 0
      vertex -0.979292 -2.0811 0
      vertex -0.710738 -2.18743 0
    endloop
  endfacet
  facet normal -0 0 1
    outer loop
      vertex -1.2324 1.94195 0
      vertex -0.979292 -2.0811 0
      vertex -0.979292 2.0811 0
    endloop
  endfacet
  facet normal 0 0 1
    outer loop
      vertex -1.2324 1.94195 0
      vertex -1.2324 -1.94195 0
      vertex -0.979292 -2.0811 0
    endloop
  endfacet
  facet normal -0 0 1
    outer loop
      vertex -1.46607 1.77218 0
      vertex -1.2324 -1.94195 0
      vertex -1.2324 1.94195 0
    endloop
  endfacet
  facet normal 0 0 1
    outer loop
      vertex -1.46607 1.77218 0
      vertex -1.46607 -1.77218 0
      vertex -1.2324 -1.94195 0
    endloop
  endfacet
  facet normal -0 0 1
    outer loop
      vertex -1.67663 1.57446 0
      vertex -1.46607 -1.77218 0
      vertex -1.46607 1.77218 0
    endloop
  endfacet
  facet normal 0 0 1
    outer loop
      vertex -1.67663 1.57446 0
      vertex -1.67663 -1.57446 0
      vertex -1.46607 -1.77218 0
    endloop
  endfacet
  facet normal -0 0 1
    outer loop
      vertex -1.86074 1.35191 0
      vertex -1.67663 -1.57446 0
      vertex -1.67663 1.57446 0
    endloop
  endfacet
  facet normal 0 0 1
    outer loop
      vertex -1.86074 1.35191 0
      vertex -1.86074 -1.35191 0
      vertex -1.67663 -1.57446 0
    endloop
  endfacet
  facet normal -0 0 1
    outer loop
      vertex -2.0155 1.10803 0
      vertex -1.86074 -1.35191 0
      vertex -1.86074 1.35191 0
    endloop
  endfacet
  facet normal 0 0 1
    outer loop
      vertex -2.0155 1.10803 0
      vertex -2.0155 -1.10803 0
      vertex -1.86074 -1.35191 0
    endloop
  endfacet
  facet normal -0 0 1
    outer loop
      vertex -2.13849 0.846686 0
      vertex -2.0155 -1.10803 0
      vertex -2.0155 1.10803 0
    endloop
  endfacet
  facet normal 0 0 1
    outer loop
      vertex -2.13849 0.846686 0
      vertex -2.13849 -0.846686 0
      vertex -2.0155 -1.10803 0
    endloop
  endfacet
  facet normal -0 0 1
    outer loop
      vertex -2.22774 0.571986 0
      vertex -2.13849 -0.846686 0
      vertex -2.13849 0.846686 0
    endloop
  endfacet
  facet normal 0 0 1
    outer loop
      vertex -2.22774 0.571986 0
      vertex -2.22774 -0.571986 0
      vertex -2.13849 -0.846686 0
    endloop
  endfacet
  facet normal -0 0 1
    outer loop
      vertex -2.28186 0.288266 0
      vertex -2.22774 -0.571986 0
      vertex -2.22774 0.571986 0
    endloop
  endfacet
  facet normal 0 0 1
    outer loop
      vertex -2.28186 0.288266 0
      vertex -2.28186 -0.288266 0
      vertex -2.22774 -0.571986 0
    endloop
  endfacet
  facet normal 0 -0 1
    outer loop
      vertex -2.28186 -0.288266 0
      vertex -2.28186 0.288266 0
      vertex -2.3 0 0
    endloop
  endfacet
  facet normal -0.248689 0.968584 0
    outer loop
      vertex -0.430977 2.25926 -3
      vertex -0.710738 2.18743 0
      vertex -0.430977 2.25926 0
    endloop
  endfacet
  facet normal -0.248689 0.968584 0
    outer loop
      vertex -0.710738 2.18743 0
      vertex -0.430977 2.25926 -3
      vertex -0.710738 2.18743 -3
    endloop
  endfacet
  facet normal 0.770512 -0.637425 0
    outer loop
      vertex 1.67663 -1.57446 0
      vertex 1.86074 -1.35191 -3
      vertex 1.86074 -1.35191 0
    endloop
  endfacet
  facet normal 0.770512 -0.637425 0
    outer loop
      vertex 1.86074 -1.35191 -3
      vertex 1.67663 -1.57446 0
      vertex 1.67663 -1.57446 -3
    endloop
  endfacet
  facet normal 0.951062 -0.309 0
    outer loop
      vertex 2.13849 -0.846686 0
      vertex 2.22774 -0.571986 -3
      vertex 2.22774 -0.571986 0
    endloop
  endfacet
  facet normal 0.951062 -0.309 0
    outer loop
      vertex 2.22774 -0.571986 -3
      vertex 2.13849 -0.846686 0
      vertex 2.13849 -0.846686 -3
    endloop
  endfacet
  facet normal 0.982289 -0.187373 0
    outer loop
      vertex 2.22774 -0.571986 0
      vertex 2.28186 -0.288266 -3
      vertex 2.28186 -0.288266 0
    endloop
  endfacet
  facet normal 0.982289 -0.187373 0
    outer loop
      vertex 2.28186 -0.288266 -3
      vertex 2.22774 -0.571986 0
      vertex 2.22774 -0.571986 -3
    endloop
  endfacet
  facet normal -0.36813 -0.929774 0
    outer loop
      vertex -0.979292 -2.0811 -3
      vertex -0.710738 -2.18743 0
      vertex -0.979292 -2.0811 0
    endloop
  endfacet
  facet normal -0.36813 -0.929774 -0
    outer loop
      vertex -0.710738 -2.18743 0
      vertex -0.979292 -2.0811 -3
      vertex -0.710738 -2.18743 -3
    endloop
  endfacet
  facet normal 0 0 -1
    outer loop
      vertex 1.5 0 -3
      vertex 2.3 0 -3
      vertex 2.28186 -0.288266 -3
    endloop
  endfacet
  facet normal 0 0 -1
    outer loop
      vertex 1.48817 -0.188 -3
      vertex 2.28186 -0.288266 -3
      vertex 2.22774 -0.571986 -3
    endloop
  endfacet
  facet normal 0 0 -1
    outer loop
      vertex 2.3 0 -3
      vertex 1.5 0 -3
      vertex 2.28186 0.288266 -3
    endloop
  endfacet
  facet normal 0 0 -1
    outer loop
      vertex 1.45287 -0.373034 -3
      vertex 2.22774 -0.571986 -3
      vertex 2.13849 -0.846686 -3
    endloop
  endfacet
  facet normal 0 0 -1
    outer loop
      vertex 1.48817 0.188 -3
      vertex 2.28186 0.288266 -3
      vertex 1.5 0 -3
    endloop
  endfacet
  facet normal 0 0 -1
    outer loop
      vertex 1.39466 -0.552186 -3
      vertex 2.13849 -0.846686 -3
      vertex 2.0155 -1.10803 -3
    endloop
  endfacet
  facet normal -0 0 -1
    outer loop
      vertex 2.28186 0.288266 -3
      vertex 1.48817 0.188 -3
      vertex 2.22774 0.571986 -3
    endloop
  endfacet
  facet normal 0 0 -1
    outer loop
      vertex 1.31446 -0.722631 -3
      vertex 2.0155 -1.10803 -3
      vertex 1.86074 -1.35191 -3
    endloop
  endfacet
  facet normal 0 0 -1
    outer loop
      vertex 1.45287 0.373034 -3
      vertex 2.22774 0.571986 -3
      vertex 1.48817 0.188 -3
    endloop
  endfacet
  facet normal 0 0 -1
    outer loop
      vertex 1.21352 -0.881678 -3
      vertex 1.86074 -1.35191 -3
      vertex 1.67663 -1.57446 -3
    endloop
  endfacet
  facet normal -0 0 -1
    outer loop
      vertex 2.22774 0.571986 -3
      vertex 1.45287 0.373034 -3
      vertex 2.13849 0.846686 -3
    endloop
  endfacet
  facet normal 0 0 -1
    outer loop
      vertex 1.39466 0.552186 -3
      vertex 2.13849 0.846686 -3
      vertex 1.45287 0.373034 -3
    endloop
  endfacet
  facet normal 0 0 -1
    outer loop
      vertex 2.28186 -0.288266 -3
      vertex 1.48817 -0.188 -3
      vertex 1.5 0 -3
    endloop
  endfacet
  facet normal 0 0 -1
    outer loop
      vertex 1.09345 -1.02682 -3
      vertex 1.67663 -1.57446 -3
      vertex 1.46607 -1.77218 -3
    endloop
  endfacet
  facet normal 0 0 -1
    outer loop
      vertex 2.22774 -0.571986 -3
      vertex 1.45287 -0.373034 -3
      vertex 1.48817 -0.188 -3
    endloop
  endfacet
  facet normal 0 0 -1
    outer loop
      vertex 2.13849 -0.846686 -3
      vertex 1.39466 -0.552186 -3
      vertex 1.45287 -0.373034 -3
    endloop
  endfacet
  facet normal 0 0 -1
    outer loop
      vertex 2.0155 -1.10803 -3
      vertex 1.31446 -0.722631 -3
      vertex 1.39466 -0.552186 -3
    endloop
  endfacet
  facet normal 0 0 -1
    outer loop
      vertex 0.956136 -1.15577 -3
      vertex 1.46607 -1.77218 -3
      vertex 1.2324 -1.94195 -3
    endloop
  endfacet
  facet normal 0 0 -1
    outer loop
      vertex 1.86074 -1.35191 -3
      vertex 1.21352 -0.881678 -3
      vertex 1.31446 -0.722631 -3
    endloop
  endfacet
  facet normal 0 0 -1
    outer loop
      vertex 1.67663 -1.57446 -3
      vertex 1.09345 -1.02682 -3
      vertex 1.21352 -0.881678 -3
    endloop
  endfacet
  facet normal 0 0 -1
    outer loop
      vertex 0.80374 -1.26649 -3
      vertex 1.2324 -1.94195 -3
      vertex 0.979292 -2.0811 -3
    endloop
  endfacet
  facet normal 0 0 -1
    outer loop
      vertex 1.46607 -1.77218 -3
      vertex 0.956136 -1.15577 -3
      vertex 1.09345 -1.02682 -3
    endloop
  endfacet
  facet normal 0 0 -1
    outer loop
      vertex 1.2324 -1.94195 -3
      vertex 0.80374 -1.26649 -3
      vertex 0.956136 -1.15577 -3
    endloop
  endfacet
  facet normal 0 0 -1
    outer loop
      vertex 0.638668 -1.35724 -3
      vertex 0.979292 -2.0811 -3
      vertex 0.710738 -2.18743 -3
    endloop
  endfacet
  facet normal 0 0 -1
    outer loop
      vertex 0.979292 -2.0811 -3
      vertex 0.638668 -1.35724 -3
      vertex 0.80374 -1.26649 -3
    endloop
  endfacet
  facet normal 0 0 -1
    outer loop
      vertex 0.710738 -2.18743 -3
      vertex 0.463525 -1.42658 -3
      vertex 0.638668 -1.35724 -3
    endloop
  endfacet
  facet normal 0 0 -1
    outer loop
      vertex 0.430977 -2.25926 -3
      vertex 0.463525 -1.42658 -3
      vertex 0.710738 -2.18743 -3
    endloop
  endfacet
  facet normal 0 0 -1
    outer loop
      vertex 0.430977 -2.25926 -3
      vertex 0.281072 -1.47343 -3
      vertex 0.463525 -1.42658 -3
    endloop
  endfacet
  facet normal 0 0 -1
    outer loop
      vertex 0.144418 -2.29546 -3
      vertex 0.281072 -1.47343 -3
      vertex 0.430977 -2.25926 -3
    endloop
  endfacet
  facet normal 0 0 -1
    outer loop
      vertex 0.144418 -2.29546 -3
      vertex 0.0941849 -1.49704 -3
      vertex 0.281072 -1.47343 -3
    endloop
  endfacet
  facet normal 0 0 -1
    outer loop
      vertex 0.144418 -2.29546 -3
      vertex -0.0941849 -1.49704 -3
      vertex 0.0941849 -1.49704 -3
    endloop
  endfacet
  facet normal 0 0 -1
    outer loop
      vertex -0.144418 -2.29546 -3
      vertex -0.0941849 -1.49704 -3
      vertex 0.144418 -2.29546 -3
    endloop
  endfacet
  facet normal 0 0 -1
    outer loop
      vertex -0.144418 -2.29546 -3
      vertex -0.281072 -1.47343 -3
      vertex -0.0941849 -1.49704 -3
    endloop
  endfacet
  facet normal 0 0 -1
    outer loop
      vertex -0.430977 -2.25926 -3
      vertex -0.281072 -1.47343 -3
      vertex -0.144418 -2.29546 -3
    endloop
  endfacet
  facet normal 0 0 -1
    outer loop
      vertex -0.430977 -2.25926 -3
      vertex -0.463525 -1.42658 -3
      vertex -0.281072 -1.47343 -3
    endloop
  endfacet
  facet normal 0 0 -1
    outer loop
      vertex -0.710738 -2.18743 -3
      vertex -0.463525 -1.42658 -3
      vertex -0.430977 -2.25926 -3
    endloop
  endfacet
  facet normal -0 0 -1
    outer loop
      vertex -0.463525 -1.42658 -3
      vertex -0.710738 -2.18743 -3
      vertex -0.638668 -1.35724 -3
    endloop
  endfacet
  facet normal 0 0 -1
    outer loop
      vertex -0.979292 -2.0811 -3
      vertex -0.638668 -1.35724 -3
      vertex -0.710738 -2.18743 -3
    endloop
  endfacet
  facet normal -0 0 -1
    outer loop
      vertex -0.638668 -1.35724 -3
      vertex -0.979292 -2.0811 -3
      vertex -0.80374 -1.26649 -3
    endloop
  endfacet
  facet normal 0 0 -1
    outer loop
      vertex -1.2324 -1.94195 -3
      vertex -0.80374 -1.26649 -3
      vertex -0.979292 -2.0811 -3
    endloop
  endfacet
  facet normal -0 0 -1
    outer loop
      vertex -0.80374 -1.26649 -3
      vertex -1.2324 -1.94195 -3
      vertex -0.956136 -1.15577 -3
    endloop
  endfacet
  facet normal 0 0 -1
    outer loop
      vertex -1.46607 -1.77218 -3
      vertex -0.956136 -1.15577 -3
      vertex -1.2324 -1.94195 -3
    endloop
  endfacet
  facet normal -0 0 -1
    outer loop
      vertex -0.956136 -1.15577 -3
      vertex -1.46607 -1.77218 -3
      vertex -1.09345 -1.02682 -3
    endloop
  endfacet
  facet normal 0 0 -1
    outer loop
      vertex -1.67663 -1.57446 -3
      vertex -1.09345 -1.02682 -3
      vertex -1.46607 -1.77218 -3
    endloop
  endfacet
  facet normal -0 0 -1
    outer loop
      vertex -1.09345 -1.02682 -3
      vertex -1.67663 -1.57446 -3
      vertex -1.21352 -0.881678 -3
    endloop
  endfacet
  facet normal 0 0 -1
    outer loop
      vertex -1.86074 -1.35191 -3
      vertex -1.21352 -0.881678 -3
      vertex -1.67663 -1.57446 -3
    endloop
  endfacet
  facet normal -0 0 -1
    outer loop
      vertex -1.21352 -0.881678 -3
      vertex -1.86074 -1.35191 -3
      vertex -1.31446 -0.722631 -3
    endloop
  endfacet
  facet normal 0 0 -1
    outer loop
      vertex -2.0155 -1.10803 -3
      vertex -1.31446 -0.722631 -3
      vertex -1.86074 -1.35191 -3
    endloop
  endfacet
  facet normal -0 0 -1
    outer loop
      vertex -1.31446 -0.722631 -3
      vertex -2.0155 -1.10803 -3
      vertex -1.39466 -0.552186 -3
    endloop
  endfacet
  facet normal 0 0 -1
    outer loop
      vertex -2.13849 -0.846686 -3
      vertex -1.39466 -0.552186 -3
      vertex -2.0155 -1.10803 -3
    endloop
  endfacet
  facet normal -0 0 -1
    outer loop
      vertex 2.13849 0.846686 -3
      vertex 1.39466 0.552186 -3
      vertex 2.0155 1.10803 -3
    endloop
  endfacet
  facet normal 0 0 -1
    outer loop
      vertex 1.31446 0.722631 -3
      vertex 2.0155 1.10803 -3
      vertex 1.39466 0.552186 -3
    endloop
  endfacet
  facet normal -0 0 -1
    outer loop
      vertex 2.0155 1.10803 -3
      vertex 1.31446 0.722631 -3
      vertex 1.86074 1.35191 -3
    endloop
  endfacet
  facet normal 0 0 -1
    outer loop
      vertex 1.21352 0.881678 -3
      vertex 1.86074 1.35191 -3
      vertex 1.31446 0.722631 -3
    endloop
  endfacet
  facet normal -0 0 -1
    outer loop
      vertex 1.86074 1.35191 -3
      vertex 1.21352 0.881678 -3
      vertex 1.67663 1.57446 -3
    endloop
  endfacet
  facet normal 0 0 -1
    outer loop
      vertex 1.09345 1.02682 -3
      vertex 1.67663 1.57446 -3
      vertex 1.21352 0.881678 -3
    endloop
  endfacet
  facet normal -0 0 -1
    outer loop
      vertex 1.67663 1.57446 -3
      vertex 1.09345 1.02682 -3
      vertex 1.46607 1.77218 -3
    endloop
  endfacet
  facet normal 0 0 -1
    outer loop
      vertex 0.956136 1.15577 -3
      vertex 1.46607 1.77218 -3
      vertex 1.09345 1.02682 -3
    endloop
  endfacet
  facet normal -0 0 -1
    outer loop
      vertex 1.46607 1.77218 -3
      vertex 0.956136 1.15577 -3
      vertex 1.2324 1.94195 -3
    endloop
  endfacet
  facet normal 0 0 -1
    outer loop
      vertex 0.80374 1.26649 -3
      vertex 1.2324 1.94195 -3
      vertex 0.956136 1.15577 -3
    endloop
  endfacet
  facet normal -0 0 -1
    outer loop
      vertex 1.2324 1.94195 -3
      vertex 0.80374 1.26649 -3
      vertex 0.979292 2.0811 -3
    endloop
  endfacet
  facet normal 0 0 -1
    outer loop
      vertex 0.638668 1.35724 -3
      vertex 0.979292 2.0811 -3
      vertex 0.80374 1.26649 -3
    endloop
  endfacet
  facet normal -0 0 -1
    outer loop
      vertex 0.979292 2.0811 -3
      vertex 0.638668 1.35724 -3
      vertex 0.710738 2.18743 -3
    endloop
  endfacet
  facet normal 0 0 -1
    outer loop
      vertex 0.463525 1.42658 -3
      vertex 0.710738 2.18743 -3
      vertex 0.638668 1.35724 -3
    endloop
  endfacet
  facet normal 0 0 -1
    outer loop
      vertex 0.463525 1.42658 -3
      vertex 0.430977 2.25926 -3
      vertex 0.710738 2.18743 -3
    endloop
  endfacet
  facet normal 0 0 -1
    outer loop
      vertex 0.281072 1.47343 -3
      vertex 0.430977 2.25926 -3
      vertex 0.463525 1.42658 -3
    endloop
  endfacet
  facet normal 0 0 -1
    outer loop
      vertex 0.281072 1.47343 -3
      vertex 0.144418 2.29546 -3
      vertex 0.430977 2.25926 -3
    endloop
  endfacet
  facet normal 0 0 -1
    outer loop
      vertex 0.0941849 1.49704 -3
      vertex 0.144418 2.29546 -3
      vertex 0.281072 1.47343 -3
    endloop
  endfacet
  facet normal 0 0 -1
    outer loop
      vertex -0.0941849 1.49704 -3
      vertex 0.144418 2.29546 -3
      vertex 0.0941849 1.49704 -3
    endloop
  endfacet
  facet normal 0 0 -1
    outer loop
      vertex -0.0941849 1.49704 -3
      vertex -0.144418 2.29546 -3
      vertex 0.144418 2.29546 -3
    endloop
  endfacet
  facet normal 0 0 -1
    outer loop
      vertex -0.281072 1.47343 -3
      vertex -0.144418 2.29546 -3
      vertex -0.0941849 1.49704 -3
    endloop
  endfacet
  facet normal 0 0 -1
    outer loop
      vertex -0.281072 1.47343 -3
      vertex -0.430977 2.25926 -3
      vertex -0.144418 2.29546 -3
    endloop
  endfacet
  facet normal 0 0 -1
    outer loop
      vertex -0.463525 1.42658 -3
      vertex -0.430977 2.25926 -3
      vertex -0.281072 1.47343 -3
    endloop
  endfacet
  facet normal 0 0 -1
    outer loop
      vertex -0.710738 2.18743 -3
      vertex -0.463525 1.42658 -3
      vertex -0.638668 1.35724 -3
    endloop
  endfacet
  facet normal 0 0 -1
    outer loop
      vertex -0.463525 1.42658 -3
      vertex -0.710738 2.18743 -3
      vertex -0.430977 2.25926 -3
    endloop
  endfacet
  facet normal 0 0 -1
    outer loop
      vertex -0.979292 2.0811 -3
      vertex -0.638668 1.35724 -3
      vertex -0.80374 1.26649 -3
    endloop
  endfacet
  facet normal 0 0 -1
    outer loop
      vertex -1.2324 1.94195 -3
      vertex -0.80374 1.26649 -3
      vertex -0.956136 1.15577 -3
    endloop
  endfacet
  facet normal 0 0 -1
    outer loop
      vertex -0.638668 1.35724 -3
      vertex -0.979292 2.0811 -3
      vertex -0.710738 2.18743 -3
    endloop
  endfacet
  facet normal 0 0 -1
    outer loop
      vertex -1.46607 1.77218 -3
      vertex -0.956136 1.15577 -3
      vertex -1.09345 1.02682 -3
    endloop
  endfacet
  facet normal 0 0 -1
    outer loop
      vertex -1.67663 1.57446 -3
      vertex -1.09345 1.02682 -3
      vertex -1.21352 0.881678 -3
    endloop
  endfacet
  facet normal 0 0 -1
    outer loop
      vertex -0.80374 1.26649 -3
      vertex -1.2324 1.94195 -3
      vertex -0.979292 2.0811 -3
    endloop
  endfacet
  facet normal 0 0 -1
    outer loop
      vertex -1.86074 1.35191 -3
      vertex -1.21352 0.881678 -3
      vertex -1.31446 0.722631 -3
    endloop
  endfacet
  facet normal 0 0 -1
    outer loop
      vertex -2.0155 1.10803 -3
      vertex -1.31446 0.722631 -3
      vertex -1.39466 0.552186 -3
    endloop
  endfacet
  facet normal 0 0 -1
    outer loop
      vertex -2.13849 0.846686 -3
      vertex -1.39466 0.552186 -3
      vertex -1.45287 0.373034 -3
    endloop
  endfacet
  facet normal 0 0 -1
    outer loop
      vertex -0.956136 1.15577 -3
      vertex -1.46607 1.77218 -3
      vertex -1.2324 1.94195 -3
    endloop
  endfacet
  facet normal 0 0 -1
    outer loop
      vertex -2.22774 0.571986 -3
      vertex -1.45287 0.373034 -3
      vertex -1.48817 0.188 -3
    endloop
  endfacet
  facet normal 0 0 -1
    outer loop
      vertex -2.28186 0.288266 -3
      vertex -1.48817 0.188 -3
      vertex -1.5 0 -3
    endloop
  endfacet
  facet normal -0 0 -1
    outer loop
      vertex -1.39466 -0.552186 -3
      vertex -2.13849 -0.846686 -3
      vertex -1.45287 -0.373034 -3
    endloop
  endfacet
  facet normal 0 0 -1
    outer loop
      vertex -1.09345 1.02682 -3
      vertex -1.67663 1.57446 -3
      vertex -1.46607 1.77218 -3
    endloop
  endfacet
  facet normal 0 0 -1
    outer loop
      vertex -2.22774 -0.571986 -3
      vertex -1.45287 -0.373034 -3
      vertex -2.13849 -0.846686 -3
    endloop
  endfacet
  facet normal 0 0 -1
    outer loop
      vertex -1.21352 0.881678 -3
      vertex -1.86074 1.35191 -3
      vertex -1.67663 1.57446 -3
    endloop
  endfacet
  facet normal -0 0 -1
    outer loop
      vertex -1.45287 -0.373034 -3
      vertex -2.22774 -0.571986 -3
      vertex -1.48817 -0.188 -3
    endloop
  endfacet
  facet normal 0 0 -1
    outer loop
      vertex -1.31446 0.722631 -3
      vertex -2.0155 1.10803 -3
      vertex -1.86074 1.35191 -3
    endloop
  endfacet
  facet normal 0 0 -1
    outer loop
      vertex -2.28186 -0.288266 -3
      vertex -1.48817 -0.188 -3
      vertex -2.22774 -0.571986 -3
    endloop
  endfacet
  facet normal 0 0 -1
    outer loop
      vertex -1.39466 0.552186 -3
      vertex -2.13849 0.846686 -3
      vertex -2.0155 1.10803 -3
    endloop
  endfacet
  facet normal -0 0 -1
    outer loop
      vertex -1.48817 -0.188 -3
      vertex -2.28186 -0.288266 -3
      vertex -1.5 0 -3
    endloop
  endfacet
  facet normal 0 0 -1
    outer loop
      vertex -1.45287 0.373034 -3
      vertex -2.22774 0.571986 -3
      vertex -2.13849 0.846686 -3
    endloop
  endfacet
  facet normal 0 0 -1
    outer loop
      vertex -2.3 0 -3
      vertex -1.5 0 -3
      vertex -2.28186 -0.288266 -3
    endloop
  endfacet
  facet normal 0 0 -1
    outer loop
      vertex -1.48817 0.188 -3
      vertex -2.28186 0.288266 -3
      vertex -2.22774 0.571986 -3
    endloop
  endfacet
  facet normal 0 0 -1
    outer loop
      vertex -1.5 0 -3
      vertex -2.3 0 -3
      vertex -2.28186 0.288266 -3
    endloop
  endfacet
  facet normal 0.36813 -0.929774 0
    outer loop
      vertex 0.710738 -2.18743 -3
      vertex 0.979292 -2.0811 0
      vertex 0.710738 -2.18743 0
    endloop
  endfacet
  facet normal 0.36813 -0.929774 0
    outer loop
      vertex 0.979292 -2.0811 0
      vertex 0.710738 -2.18743 -3
      vertex 0.979292 -2.0811 -3
    endloop
  endfacet
  facet normal 0.481761 0.876303 -0
    outer loop
      vertex 1.2324 1.94195 -3
      vertex 0.979292 2.0811 0
      vertex 1.2324 1.94195 0
    endloop
  endfacet
  facet normal 0.481761 0.876303 0
    outer loop
      vertex 0.979292 2.0811 0
      vertex 1.2324 1.94195 -3
      vertex 0.979292 2.0811 -3
    endloop
  endfacet
  facet normal -0.587783 0.809019 0
    outer loop
      vertex -1.2324 1.94195 -3
      vertex -1.46607 1.77218 0
      vertex -1.2324 1.94195 0
    endloop
  endfacet
  facet normal -0.587783 0.809019 0
    outer loop
      vertex -1.46607 1.77218 0
      vertex -1.2324 1.94195 -3
      vertex -1.46607 1.77218 -3
    endloop
  endfacet
  facet normal 0.481761 -0.876303 0
    outer loop
      vertex 0.979292 -2.0811 -3
      vertex 1.2324 -1.94195 0
      vertex 0.979292 -2.0811 0
    endloop
  endfacet
  facet normal 0.481761 -0.876303 0
    outer loop
      vertex 1.2324 -1.94195 0
      vertex 0.979292 -2.0811 -3
      vertex 1.2324 -1.94195 -3
    endloop
  endfacet
  facet normal 0.844345 -0.5358 0
    outer loop
      vertex 1.86074 -1.35191 0
      vertex 2.0155 -1.10803 -3
      vertex 2.0155 -1.10803 0
    endloop
  endfacet
  facet normal 0.844345 -0.5358 0
    outer loop
      vertex 2.0155 -1.10803 -3
      vertex 1.86074 -1.35191 0
      vertex 1.86074 -1.35191 -3
    endloop
  endfacet
  facet normal 0.998026 -0.0628038 0
    outer loop
      vertex 2.28186 -0.288266 0
      vertex 2.3 0 -3
      vertex 2.3 0 0
    endloop
  endfacet
  facet normal 0.998026 -0.0628038 0
    outer loop
      vertex 2.3 0 -3
      vertex 2.28186 -0.288266 0
      vertex 2.28186 -0.288266 -3
    endloop
  endfacet
  facet normal -0.770512 -0.637425 0
    outer loop
      vertex -1.67663 -1.57446 -3
      vertex -1.86074 -1.35191 0
      vertex -1.86074 -1.35191 -3
    endloop
  endfacet
  facet normal -0.770512 -0.637425 0
    outer loop
      vertex -1.86074 -1.35191 0
      vertex -1.67663 -1.57446 -3
      vertex -1.67663 -1.57446 0
    endloop
  endfacet
  facet normal -0.951062 -0.309 0
    outer loop
      vertex -2.13849 -0.846686 -3
      vertex -2.22774 -0.571986 0
      vertex -2.22774 -0.571986 -3
    endloop
  endfacet
  facet normal -0.951062 -0.309 0
    outer loop
      vertex -2.22774 -0.571986 0
      vertex -2.13849 -0.846686 -3
      vertex -2.13849 -0.846686 0
    endloop
  endfacet
  facet normal 0.248689 -0.968584 0
    outer loop
      vertex 0.430977 -2.25926 -3
      vertex 0.710738 -2.18743 0
      vertex 0.430977 -2.25926 0
    endloop
  endfacet
  facet normal 0.248689 -0.968584 0
    outer loop
      vertex 0.710738 -2.18743 0
      vertex 0.430977 -2.25926 -3
      vertex 0.710738 -2.18743 -3
    endloop
  endfacet
  facet normal 0.684531 -0.728984 0
    outer loop
      vertex 1.46607 -1.77218 -3
      vertex 1.67663 -1.57446 0
      vertex 1.46607 -1.77218 0
    endloop
  endfacet
  facet normal 0.684531 -0.728984 0
    outer loop
      vertex 1.67663 -1.57446 0
      vertex 1.46607 -1.77218 -3
      vertex 1.67663 -1.57446 -3
    endloop
  endfacet
  facet normal 0.587783 -0.809019 0
    outer loop
      vertex 1.2324 -1.94195 -3
      vertex 1.46607 -1.77218 0
      vertex 1.2324 -1.94195 0
    endloop
  endfacet
  facet normal 0.587783 -0.809019 0
    outer loop
      vertex 1.46607 -1.77218 0
      vertex 1.2324 -1.94195 -3
      vertex 1.46607 -1.77218 -3
    endloop
  endfacet
  facet normal 0.904813 -0.42581 0
    outer loop
      vertex 2.0155 -1.10803 0
      vertex 2.13849 -0.846686 -3
      vertex 2.13849 -0.846686 0
    endloop
  endfacet
  facet normal 0.904813 -0.42581 0
    outer loop
      vertex 2.13849 -0.846686 -3
      vertex 2.0155 -1.10803 0
      vertex 2.0155 -1.10803 -3
    endloop
  endfacet
  facet normal -0.12533 -0.992115 0
    outer loop
      vertex -0.430977 -2.25926 -3
      vertex -0.144418 -2.29546 0
      vertex -0.430977 -2.25926 0
    endloop
  endfacet
  facet normal -0.12533 -0.992115 -0
    outer loop
      vertex -0.144418 -2.29546 0
      vertex -0.430977 -2.25926 -3
      vertex -0.144418 -2.29546 -3
    endloop
  endfacet
  facet normal -0.481761 -0.876303 0
    outer loop
      vertex -1.2324 -1.94195 -3
      vertex -0.979292 -2.0811 0
      vertex -1.2324 -1.94195 0
    endloop
  endfacet
  facet normal -0.481761 -0.876303 -0
    outer loop
      vertex -0.979292 -2.0811 0
      vertex -1.2324 -1.94195 -3
      vertex -0.979292 -2.0811 -3
    endloop
  endfacet
  facet normal -0.248689 -0.968584 0
    outer loop
      vertex -0.710738 -2.18743 -3
      vertex -0.430977 -2.25926 0
      vertex -0.710738 -2.18743 0
    endloop
  endfacet
  facet normal -0.248689 -0.968584 -0
    outer loop
      vertex -0.430977 -2.25926 0
      vertex -0.710738 -2.18743 -3
      vertex -0.430977 -2.25926 -3
    endloop
  endfacet
  facet normal -0.844345 -0.5358 0
    outer loop
      vertex -1.86074 -1.35191 -3
      vertex -2.0155 -1.10803 0
      vertex -2.0155 -1.10803 -3
    endloop
  endfacet
  facet normal -0.844345 -0.5358 0
    outer loop
      vertex -2.0155 -1.10803 0
      vertex -1.86074 -1.35191 -3
      vertex -1.86074 -1.35191 0
    endloop
  endfacet
  facet normal -0.904813 -0.42581 0
    outer loop
      vertex -2.0155 -1.10803 -3
      vertex -2.13849 -0.846686 0
      vertex -2.13849 -0.846686 -3
    endloop
  endfacet
  facet normal -0.904813 -0.42581 0
    outer loop
      vertex -2.13849 -0.846686 0
      vertex -2.0155 -1.10803 -3
      vertex -2.0155 -1.10803 0
    endloop
  endfacet
  facet normal -0.982289 -0.187373 0
    outer loop
      vertex -2.22774 -0.571986 -3
      vertex -2.28186 -0.288266 0
      vertex -2.28186 -0.288266 -3
    endloop
  endfacet
  facet normal -0.982289 -0.187373 0
    outer loop
      vertex -2.28186 -0.288266 0
      vertex -2.22774 -0.571986 -3
      vertex -2.22774 -0.571986 0
    endloop
  endfacet
  facet normal -0.998026 -0.0628038 0
    outer loop
      vertex -2.28186 -0.288266 -3
      vertex -2.3 0 0
      vertex -2.3 0 -3
    endloop
  endfacet
  facet normal -0.998026 -0.0628038 0
    outer loop
      vertex -2.3 0 0
      vertex -2.28186 -0.288266 -3
      vertex -2.28186 -0.288266 0
    endloop
  endfacet
  facet normal -0.684531 -0.728984 0
    outer loop
      vertex -1.67663 -1.57446 -3
      vertex -1.46607 -1.77218 0
      vertex -1.67663 -1.57446 0
    endloop
  endfacet
  facet normal -0.684531 -0.728984 -0
    outer loop
      vertex -1.46607 -1.77218 0
      vertex -1.67663 -1.57446 -3
      vertex -1.46607 -1.77218 -3
    endloop
  endfacet
  facet normal -0.587783 -0.809019 0
    outer loop
      vertex -1.46607 -1.77218 -3
      vertex -1.2324 -1.94195 0
      vertex -1.46607 -1.77218 0
    endloop
  endfacet
  facet normal -0.587783 -0.809019 -0
    outer loop
      vertex -1.2324 -1.94195 0
      vertex -1.46607 -1.77218 -3
      vertex -1.2324 -1.94195 -3
    endloop
  endfacet
  facet normal -0.951057 0.309017 0
    outer loop
      vertex -1.45287 0.373034 -25
      vertex -1.39466 0.552186 -3
      vertex -1.39466 0.552186 -25
    endloop
  endfacet
  facet normal -0.951057 0.309017 0
    outer loop
      vertex -1.39466 0.552186 -3
      vertex -1.45287 0.373034 -25
      vertex -1.45287 0.373034 -3
    endloop
  endfacet
  facet normal 0.844314 0.535848 0
    outer loop
      vertex 1.31446 0.722631 -3
      vertex 1.21352 0.881678 -25
      vertex 1.21352 0.881678 -3
    endloop
  endfacet
  facet normal 0.844314 0.535848 0
    outer loop
      vertex 1.21352 0.881678 -25
      vertex 1.31446 0.722631 -3
      vertex 1.31446 0.722631 -25
    endloop
  endfacet
  facet normal 0.24871 0.968578 -0
    outer loop
      vertex 0.463525 1.42658 -25
      vertex 0.281072 1.47343 -3
      vertex 0.463525 1.42658 -3
    endloop
  endfacet
  facet normal 0.24871 0.968578 0
    outer loop
      vertex 0.281072 1.47343 -3
      vertex 0.463525 1.42658 -25
      vertex 0.281072 1.47343 -25
    endloop
  endfacet
  facet normal 0.368106 0.929784 -0
    outer loop
      vertex 0.638668 1.35724 -25
      vertex 0.463525 1.42658 -3
      vertex 0.638668 1.35724 -3
    endloop
  endfacet
  facet normal 0.368106 0.929784 0
    outer loop
      vertex 0.463525 1.42658 -3
      vertex 0.638668 1.35724 -25
      vertex 0.463525 1.42658 -25
    endloop
  endfacet
  facet normal -0.368106 0.929784 0
    outer loop
      vertex -0.463525 1.42658 -25
      vertex -0.638668 1.35724 -3
      vertex -0.463525 1.42658 -3
    endloop
  endfacet
  facet normal -0.368106 0.929784 0
    outer loop
      vertex -0.638668 1.35724 -3
      vertex -0.463525 1.42658 -25
      vertex -0.638668 1.35724 -25
    endloop
  endfacet
  facet normal -0.904838 0.425756 0
    outer loop
      vertex -1.39466 0.552186 -25
      vertex -1.31446 0.722631 -3
      vertex -1.31446 0.722631 -25
    endloop
  endfacet
  facet normal -0.904838 0.425756 0
    outer loop
      vertex -1.31446 0.722631 -3
      vertex -1.39466 0.552186 -25
      vertex -1.39466 0.552186 -3
    endloop
  endfacet
  facet normal 0.998026 -0.0628013 0
    outer loop
      vertex 1.48817 -0.188 -3
      vertex 1.5 0 -25
      vertex 1.5 0 -3
    endloop
  endfacet
  facet normal 0.998026 -0.0628013 0
    outer loop
      vertex 1.5 0 -25
      vertex 1.48817 -0.188 -3
      vertex 1.48817 -0.188 -25
    endloop
  endfacet
  facet normal 0.368106 -0.929784 0
    outer loop
      vertex 0.463525 -1.42658 -25
      vertex 0.638668 -1.35724 -3
      vertex 0.463525 -1.42658 -3
    endloop
  endfacet
  facet normal 0.368106 -0.929784 0
    outer loop
      vertex 0.638668 -1.35724 -3
      vertex 0.463525 -1.42658 -25
      vertex 0.638668 -1.35724 -25
    endloop
  endfacet
  facet normal 0.684557 0.728959 -0
    outer loop
      vertex 1.09345 1.02682 -25
      vertex 0.956136 1.15577 -3
      vertex 1.09345 1.02682 -3
    endloop
  endfacet
  facet normal 0.684557 0.728959 0
    outer loop
      vertex 0.956136 1.15577 -3
      vertex 1.09345 1.02682 -25
      vertex 0.956136 1.15577 -25
    endloop
  endfacet
  facet normal 0.125337 0.992114 -0
    outer loop
      vertex 0.281072 1.47343 -25
      vertex 0.0941849 1.49704 -3
      vertex 0.281072 1.47343 -3
    endloop
  endfacet
  facet normal 0.125337 0.992114 0
    outer loop
      vertex 0.0941849 1.49704 -3
      vertex 0.281072 1.47343 -25
      vertex 0.0941849 1.49704 -25
    endloop
  endfacet
  facet normal -0.770518 0.637418 0
    outer loop
      vertex -1.21352 0.881678 -25
      vertex -1.09345 1.02682 -3
      vertex -1.09345 1.02682 -25
    endloop
  endfacet
  facet normal -0.770518 0.637418 0
    outer loop
      vertex -1.09345 1.02682 -3
      vertex -1.21352 0.881678 -25
      vertex -1.21352 0.881678 -3
    endloop
  endfacet
  facet normal -0.125337 0.992114 0
    outer loop
      vertex -0.0941849 1.49704 -25
      vertex -0.281072 1.47343 -3
      vertex -0.0941849 1.49704 -3
    endloop
  endfacet
  facet normal -0.125337 0.992114 0
    outer loop
      vertex -0.281072 1.47343 -3
      vertex -0.0941849 1.49704 -25
      vertex -0.281072 1.47343 -25
    endloop
  endfacet
  facet normal -0.684557 0.728959 0
    outer loop
      vertex -0.956136 1.15577 -25
      vertex -1.09345 1.02682 -3
      vertex -0.956136 1.15577 -3
    endloop
  endfacet
  facet normal -0.684557 0.728959 0
    outer loop
      vertex -1.09345 1.02682 -3
      vertex -0.956136 1.15577 -25
      vertex -1.09345 1.02682 -25
    endloop
  endfacet
  facet normal 0.998026 0.0628013 0
    outer loop
      vertex 1.5 0 -3
      vertex 1.48817 0.188 -25
      vertex 1.48817 0.188 -3
    endloop
  endfacet
  facet normal 0.998026 0.0628013 0
    outer loop
      vertex 1.48817 0.188 -25
      vertex 1.5 0 -3
      vertex 1.5 0 -25
    endloop
  endfacet
  facet normal 0.24871 -0.968578 0
    outer loop
      vertex 0.281072 -1.47343 -25
      vertex 0.463525 -1.42658 -3
      vertex 0.281072 -1.47343 -3
    endloop
  endfacet
  facet normal 0.24871 -0.968578 0
    outer loop
      vertex 0.463525 -1.42658 -3
      vertex 0.281072 -1.47343 -25
      vertex 0.463525 -1.42658 -25
    endloop
  endfacet
  facet normal 0.770518 0.637418 0
    outer loop
      vertex 1.21352 0.881678 -3
      vertex 1.09345 1.02682 -25
      vertex 1.09345 1.02682 -3
    endloop
  endfacet
  facet normal 0.770518 0.637418 0
    outer loop
      vertex 1.09345 1.02682 -25
      vertex 1.21352 0.881678 -3
      vertex 1.21352 0.881678 -25
    endloop
  endfacet
  facet normal 0 1 -0
    outer loop
      vertex 0.0941849 1.49704 -25
      vertex -0.0941849 1.49704 -3
      vertex 0.0941849 1.49704 -3
    endloop
  endfacet
  facet normal 0 1 0
    outer loop
      vertex -0.0941849 1.49704 -3
      vertex 0.0941849 1.49704 -25
      vertex -0.0941849 1.49704 -25
    endloop
  endfacet
  facet normal 0.587778 0.809022 -0
    outer loop
      vertex 0.956136 1.15577 -25
      vertex 0.80374 1.26649 -3
      vertex 0.956136 1.15577 -3
    endloop
  endfacet
  facet normal 0.587778 0.809022 0
    outer loop
      vertex 0.80374 1.26649 -3
      vertex 0.956136 1.15577 -25
      vertex 0.80374 1.26649 -25
    endloop
  endfacet
  facet normal 0.481757 0.876305 -0
    outer loop
      vertex 0.80374 1.26649 -25
      vertex 0.638668 1.35724 -3
      vertex 0.80374 1.26649 -3
    endloop
  endfacet
  facet normal 0.481757 0.876305 0
    outer loop
      vertex 0.638668 1.35724 -3
      vertex 0.80374 1.26649 -25
      vertex 0.638668 1.35724 -25
    endloop
  endfacet
  facet normal -0.998026 0.0628013 0
    outer loop
      vertex -1.5 0 -25
      vertex -1.48817 0.188 -3
      vertex -1.48817 0.188 -25
    endloop
  endfacet
  facet normal -0.998026 0.0628013 0
    outer loop
      vertex -1.48817 0.188 -3
      vertex -1.5 0 -25
      vertex -1.5 0 -3
    endloop
  endfacet
  facet normal -0.982284 0.187396 0
    outer loop
      vertex -1.48817 0.188 -25
      vertex -1.45287 0.373034 -3
      vertex -1.45287 0.373034 -25
    endloop
  endfacet
  facet normal -0.982284 0.187396 0
    outer loop
      vertex -1.45287 0.373034 -3
      vertex -1.48817 0.188 -25
      vertex -1.48817 0.188 -3
    endloop
  endfacet
  facet normal -0.844314 0.535848 0
    outer loop
      vertex -1.31446 0.722631 -25
      vertex -1.21352 0.881678 -3
      vertex -1.21352 0.881678 -25
    endloop
  endfacet
  facet normal -0.844314 0.535848 0
    outer loop
      vertex -1.21352 0.881678 -3
      vertex -1.31446 0.722631 -25
      vertex -1.31446 0.722631 -3
    endloop
  endfacet
  facet normal -0.24871 0.968578 0
    outer loop
      vertex -0.281072 1.47343 -25
      vertex -0.463525 1.42658 -3
      vertex -0.281072 1.47343 -3
    endloop
  endfacet
  facet normal -0.24871 0.968578 0
    outer loop
      vertex -0.463525 1.42658 -3
      vertex -0.281072 1.47343 -25
      vertex -0.463525 1.42658 -25
    endloop
  endfacet
  facet normal -0.481757 0.876305 0
    outer loop
      vertex -0.638668 1.35724 -25
      vertex -0.80374 1.26649 -3
      vertex -0.638668 1.35724 -3
    endloop
  endfacet
  facet normal -0.481757 0.876305 0
    outer loop
      vertex -0.80374 1.26649 -3
      vertex -0.638668 1.35724 -25
      vertex -0.80374 1.26649 -25
    endloop
  endfacet
  facet normal -0.587778 0.809022 0
    outer loop
      vertex -0.80374 1.26649 -25
      vertex -0.956136 1.15577 -3
      vertex -0.80374 1.26649 -3
    endloop
  endfacet
  facet normal -0.587778 0.809022 0
    outer loop
      vertex -0.956136 1.15577 -3
      vertex -0.80374 1.26649 -25
      vertex -0.956136 1.15577 -25
    endloop
  endfacet
  facet normal 0.982284 -0.187396 0
    outer loop
      vertex 1.45287 -0.373034 -3
      vertex 1.48817 -0.188 -25
      vertex 1.48817 -0.188 -3
    endloop
  endfacet
  facet normal 0.982284 -0.187396 0
    outer loop
      vertex 1.48817 -0.188 -25
      vertex 1.45287 -0.373034 -3
      vertex 1.45287 -0.373034 -25
    endloop
  endfacet
  facet normal 0.125337 -0.992114 0
    outer loop
      vertex 0.0941849 -1.49704 -25
      vertex 0.281072 -1.47343 -3
      vertex 0.0941849 -1.49704 -3
    endloop
  endfacet
  facet normal 0.125337 -0.992114 0
    outer loop
      vertex 0.281072 -1.47343 -3
      vertex 0.0941849 -1.49704 -25
      vertex 0.281072 -1.47343 -25
    endloop
  endfacet
  facet normal 0.904838 0.425756 0
    outer loop
      vertex 1.39466 0.552186 -3
      vertex 1.31446 0.722631 -25
      vertex 1.31446 0.722631 -3
    endloop
  endfacet
  facet normal 0.904838 0.425756 0
    outer loop
      vertex 1.31446 0.722631 -25
      vertex 1.39466 0.552186 -3
      vertex 1.39466 0.552186 -25
    endloop
  endfacet
  facet normal 0.951057 0.309017 0
    outer loop
      vertex 1.45287 0.373034 -3
      vertex 1.39466 0.552186 -25
      vertex 1.39466 0.552186 -3
    endloop
  endfacet
  facet normal 0.951057 0.309017 0
    outer loop
      vertex 1.39466 0.552186 -25
      vertex 1.45287 0.373034 -3
      vertex 1.45287 0.373034 -25
    endloop
  endfacet
  facet normal 0.982284 0.187396 0
    outer loop
      vertex 1.48817 0.188 -3
      vertex 1.45287 0.373034 -25
      vertex 1.45287 0.373034 -3
    endloop
  endfacet
  facet normal 0.982284 0.187396 0
    outer loop
      vertex 1.45287 0.373034 -25
      vertex 1.48817 0.188 -3
      vertex 1.48817 0.188 -25
    endloop
  endfacet
  facet normal 0.481757 -0.876305 0
    outer loop
      vertex 0.638668 -1.35724 -25
      vertex 0.80374 -1.26649 -3
      vertex 0.638668 -1.35724 -3
    endloop
  endfacet
  facet normal 0.481757 -0.876305 0
    outer loop
      vertex 0.80374 -1.26649 -3
      vertex 0.638668 -1.35724 -25
      vertex 0.80374 -1.26649 -25
    endloop
  endfacet
  facet normal 0.684557 -0.728959 0
    outer loop
      vertex 0.956136 -1.15577 -25
      vertex 1.09345 -1.02682 -3
      vertex 0.956136 -1.15577 -3
    endloop
  endfacet
  facet normal 0.684557 -0.728959 0
    outer loop
      vertex 1.09345 -1.02682 -3
      vertex 0.956136 -1.15577 -25
      vertex 1.09345 -1.02682 -25
    endloop
  endfacet
  facet normal 0.770518 -0.637418 0
    outer loop
      vertex 1.09345 -1.02682 -3
      vertex 1.21352 -0.881678 -25
      vertex 1.21352 -0.881678 -3
    endloop
  endfacet
  facet normal 0.770518 -0.637418 0
    outer loop
      vertex 1.21352 -0.881678 -25
      vertex 1.09345 -1.02682 -3
      vertex 1.09345 -1.02682 -25
    endloop
  endfacet
  facet normal -0.368106 -0.929784 0
    outer loop
      vertex -0.638668 -1.35724 -25
      vertex -0.463525 -1.42658 -3
      vertex -0.638668 -1.35724 -3
    endloop
  endfacet
  facet normal -0.368106 -0.929784 -0
    outer loop
      vertex -0.463525 -1.42658 -3
      vertex -0.638668 -1.35724 -25
      vertex -0.463525 -1.42658 -25
    endloop
  endfacet
  facet normal -0.998026 -0.0628013 0
    outer loop
      vertex -1.48817 -0.188 -25
      vertex -1.5 0 -3
      vertex -1.5 0 -25
    endloop
  endfacet
  facet normal -0.998026 -0.0628013 0
    outer loop
      vertex -1.5 0 -3
      vertex -1.48817 -0.188 -25
      vertex -1.48817 -0.188 -3
    endloop
  endfacet
  facet normal -0.904838 -0.425756 0
    outer loop
      vertex -1.31446 -0.722631 -25
      vertex -1.39466 -0.552186 -3
      vertex -1.39466 -0.552186 -25
    endloop
  endfacet
  facet normal -0.904838 -0.425756 0
    outer loop
      vertex -1.39466 -0.552186 -3
      vertex -1.31446 -0.722631 -25
      vertex -1.31446 -0.722631 -3
    endloop
  endfacet
  facet normal -0.951057 -0.309017 0
    outer loop
      vertex -1.39466 -0.552186 -25
      vertex -1.45287 -0.373034 -3
      vertex -1.45287 -0.373034 -25
    endloop
  endfacet
  facet normal -0.951057 -0.309017 0
    outer loop
      vertex -1.45287 -0.373034 -3
      vertex -1.39466 -0.552186 -25
      vertex -1.39466 -0.552186 -3
    endloop
  endfacet
  facet normal -0.684557 -0.728959 0
    outer loop
      vertex -1.09345 -1.02682 -25
      vertex -0.956136 -1.15577 -3
      vertex -1.09345 -1.02682 -3
    endloop
  endfacet
  facet normal -0.684557 -0.728959 -0
    outer loop
      vertex -0.956136 -1.15577 -3
      vertex -1.09345 -1.02682 -25
      vertex -0.956136 -1.15577 -25
    endloop
  endfacet
  facet normal 0.951057 -0.309017 0
    outer loop
      vertex 1.39466 -0.552186 -3
      vertex 1.45287 -0.373034 -25
      vertex 1.45287 -0.373034 -3
    endloop
  endfacet
  facet normal 0.951057 -0.309017 0
    outer loop
      vertex 1.45287 -0.373034 -25
      vertex 1.39466 -0.552186 -3
      vertex 1.39466 -0.552186 -25
    endloop
  endfacet
  facet normal 0.904838 -0.425756 0
    outer loop
      vertex 1.31446 -0.722631 -3
      vertex 1.39466 -0.552186 -25
      vertex 1.39466 -0.552186 -3
    endloop
  endfacet
  facet normal 0.904838 -0.425756 0
    outer loop
      vertex 1.39466 -0.552186 -25
      vertex 1.31446 -0.722631 -3
      vertex 1.31446 -0.722631 -25
    endloop
  endfacet
  facet normal 0.587778 -0.809022 0
    outer loop
      vertex 0.80374 -1.26649 -25
      vertex 0.956136 -1.15577 -3
      vertex 0.80374 -1.26649 -3
    endloop
  endfacet
  facet normal 0.587778 -0.809022 0
    outer loop
      vertex 0.956136 -1.15577 -3
      vertex 0.80374 -1.26649 -25
      vertex 0.956136 -1.15577 -25
    endloop
  endfacet
  facet normal 0.844314 -0.535848 0
    outer loop
      vertex 1.21352 -0.881678 -3
      vertex 1.31446 -0.722631 -25
      vertex 1.31446 -0.722631 -3
    endloop
  endfacet
  facet normal 0.844314 -0.535848 0
    outer loop
      vertex 1.31446 -0.722631 -25
      vertex 1.21352 -0.881678 -3
      vertex 1.21352 -0.881678 -25
    endloop
  endfacet
  facet normal -0.587778 -0.809022 0
    outer loop
      vertex -0.956136 -1.15577 -25
      vertex -0.80374 -1.26649 -3
      vertex -0.956136 -1.15577 -3
    endloop
  endfacet
  facet normal -0.587778 -0.809022 -0
    outer loop
      vertex -0.80374 -1.26649 -3
      vertex -0.956136 -1.15577 -25
      vertex -0.80374 -1.26649 -25
    endloop
  endfacet
  facet normal 0 -1 0
    outer loop
      vertex -0.0941849 -1.49704 -25
      vertex 0.0941849 -1.49704 -3
      vertex -0.0941849 -1.49704 -3
    endloop
  endfacet
  facet normal 0 -1 -0
    outer loop
      vertex 0.0941849 -1.49704 -3
      vertex -0.0941849 -1.49704 -25
      vertex 0.0941849 -1.49704 -25
    endloop
  endfacet
  facet normal -0.125337 -0.992114 0
    outer loop
      vertex -0.281072 -1.47343 -25
      vertex -0.0941849 -1.49704 -3
      vertex -0.281072 -1.47343 -3
    endloop
  endfacet
  facet normal -0.125337 -0.992114 -0
    outer loop
      vertex -0.0941849 -1.49704 -3
      vertex -0.281072 -1.47343 -25
      vertex -0.0941849 -1.49704 -25
    endloop
  endfacet
  facet normal -0.24871 -0.968578 0
    outer loop
      vertex -0.463525 -1.42658 -25
      vertex -0.281072 -1.47343 -3
      vertex -0.463525 -1.42658 -3
    endloop
  endfacet
  facet normal -0.24871 -0.968578 -0
    outer loop
      vertex -0.281072 -1.47343 -3
      vertex -0.463525 -1.42658 -25
      vertex -0.281072 -1.47343 -25
    endloop
  endfacet
  facet normal 0 0 -1
    outer loop
      vertex 1.48817 -0.188 -25
      vertex 1.48817 0.188 -25
      vertex 1.5 0 -25
    endloop
  endfacet
  facet normal 0 0 -1
    outer loop
      vertex 1.45287 -0.373034 -25
      vertex 1.48817 0.188 -25
      vertex 1.48817 -0.188 -25
    endloop
  endfacet
  facet normal 0 0 -1
    outer loop
      vertex 1.45287 -0.373034 -25
      vertex 1.45287 0.373034 -25
      vertex 1.48817 0.188 -25
    endloop
  endfacet
  facet normal 0 0 -1
    outer loop
      vertex 1.39466 -0.552186 -25
      vertex 1.45287 0.373034 -25
      vertex 1.45287 -0.373034 -25
    endloop
  endfacet
  facet normal 0 0 -1
    outer loop
      vertex 1.39466 -0.552186 -25
      vertex 1.39466 0.552186 -25
      vertex 1.45287 0.373034 -25
    endloop
  endfacet
  facet normal 0 0 -1
    outer loop
      vertex 1.31446 -0.722631 -25
      vertex 1.39466 0.552186 -25
      vertex 1.39466 -0.552186 -25
    endloop
  endfacet
  facet normal 0 0 -1
    outer loop
      vertex 1.31446 -0.722631 -25
      vertex 1.31446 0.722631 -25
      vertex 1.39466 0.552186 -25
    endloop
  endfacet
  facet normal 0 0 -1
    outer loop
      vertex 1.21352 -0.881678 -25
      vertex 1.31446 0.722631 -25
      vertex 1.31446 -0.722631 -25
    endloop
  endfacet
  facet normal 0 0 -1
    outer loop
      vertex 1.21352 -0.881678 -25
      vertex 1.21352 0.881678 -25
      vertex 1.31446 0.722631 -25
    endloop
  endfacet
  facet normal 0 0 -1
    outer loop
      vertex 1.09345 -1.02682 -25
      vertex 1.21352 0.881678 -25
      vertex 1.21352 -0.881678 -25
    endloop
  endfacet
  facet normal 0 0 -1
    outer loop
      vertex 1.09345 -1.02682 -25
      vertex 1.09345 1.02682 -25
      vertex 1.21352 0.881678 -25
    endloop
  endfacet
  facet normal 0 0 -1
    outer loop
      vertex 0.956136 -1.15577 -25
      vertex 1.09345 1.02682 -25
      vertex 1.09345 -1.02682 -25
    endloop
  endfacet
  facet normal 0 0 -1
    outer loop
      vertex 0.956136 -1.15577 -25
      vertex 0.956136 1.15577 -25
      vertex 1.09345 1.02682 -25
    endloop
  endfacet
  facet normal 0 0 -1
    outer loop
      vertex 0.80374 -1.26649 -25
      vertex 0.956136 1.15577 -25
      vertex 0.956136 -1.15577 -25
    endloop
  endfacet
  facet normal 0 0 -1
    outer loop
      vertex 0.80374 -1.26649 -25
      vertex 0.80374 1.26649 -25
      vertex 0.956136 1.15577 -25
    endloop
  endfacet
  facet normal 0 0 -1
    outer loop
      vertex 0.638668 -1.35724 -25
      vertex 0.80374 1.26649 -25
      vertex 0.80374 -1.26649 -25
    endloop
  endfacet
  facet normal 0 0 -1
    outer loop
      vertex 0.638668 -1.35724 -25
      vertex 0.638668 1.35724 -25
      vertex 0.80374 1.26649 -25
    endloop
  endfacet
  facet normal 0 0 -1
    outer loop
      vertex 0.463525 -1.42658 -25
      vertex 0.638668 1.35724 -25
      vertex 0.638668 -1.35724 -25
    endloop
  endfacet
  facet normal 0 0 -1
    outer loop
      vertex 0.463525 -1.42658 -25
      vertex 0.463525 1.42658 -25
      vertex 0.638668 1.35724 -25
    endloop
  endfacet
  facet normal 0 0 -1
    outer loop
      vertex 0.281072 -1.47343 -25
      vertex 0.463525 1.42658 -25
      vertex 0.463525 -1.42658 -25
    endloop
  endfacet
  facet normal 0 0 -1
    outer loop
      vertex 0.281072 -1.47343 -25
      vertex 0.281072 1.47343 -25
      vertex 0.463525 1.42658 -25
    endloop
  endfacet
  facet normal 0 0 -1
    outer loop
      vertex 0.0941849 -1.49704 -25
      vertex 0.281072 1.47343 -25
      vertex 0.281072 -1.47343 -25
    endloop
  endfacet
  facet normal 0 0 -1
    outer loop
      vertex 0.0941849 -1.49704 -25
      vertex 0.0941849 1.49704 -25
      vertex 0.281072 1.47343 -25
    endloop
  endfacet
  facet normal 0 0 -1
    outer loop
      vertex -0.0941849 -1.49704 -25
      vertex 0.0941849 1.49704 -25
      vertex 0.0941849 -1.49704 -25
    endloop
  endfacet
  facet normal 0 0 -1
    outer loop
      vertex -0.0941849 -1.49704 -25
      vertex -0.0941849 1.49704 -25
      vertex 0.0941849 1.49704 -25
    endloop
  endfacet
  facet normal 0 0 -1
    outer loop
      vertex -0.281072 -1.47343 -25
      vertex -0.0941849 1.49704 -25
      vertex -0.0941849 -1.49704 -25
    endloop
  endfacet
  facet normal 0 0 -1
    outer loop
      vertex -0.281072 -1.47343 -25
      vertex -0.281072 1.47343 -25
      vertex -0.0941849 1.49704 -25
    endloop
  endfacet
  facet normal 0 0 -1
    outer loop
      vertex -0.463525 -1.42658 -25
      vertex -0.281072 1.47343 -25
      vertex -0.281072 -1.47343 -25
    endloop
  endfacet
  facet normal 0 0 -1
    outer loop
      vertex -0.463525 -1.42658 -25
      vertex -0.463525 1.42658 -25
      vertex -0.281072 1.47343 -25
    endloop
  endfacet
  facet normal 0 0 -1
    outer loop
      vertex -0.638668 -1.35724 -25
      vertex -0.463525 1.42658 -25
      vertex -0.463525 -1.42658 -25
    endloop
  endfacet
  facet normal 0 0 -1
    outer loop
      vertex -0.638668 -1.35724 -25
      vertex -0.638668 1.35724 -25
      vertex -0.463525 1.42658 -25
    endloop
  endfacet
  facet normal 0 0 -1
    outer loop
      vertex -0.80374 -1.26649 -25
      vertex -0.638668 1.35724 -25
      vertex -0.638668 -1.35724 -25
    endloop
  endfacet
  facet normal 0 0 -1
    outer loop
      vertex -0.80374 -1.26649 -25
      vertex -0.80374 1.26649 -25
      vertex -0.638668 1.35724 -25
    endloop
  endfacet
  facet normal 0 0 -1
    outer loop
      vertex -0.956136 -1.15577 -25
      vertex -0.80374 1.26649 -25
      vertex -0.80374 -1.26649 -25
    endloop
  endfacet
  facet normal 0 0 -1
    outer loop
      vertex -0.956136 -1.15577 -25
      vertex -0.956136 1.15577 -25
      vertex -0.80374 1.26649 -25
    endloop
  endfacet
  facet normal 0 0 -1
    outer loop
      vertex -1.09345 -1.02682 -25
      vertex -0.956136 1.15577 -25
      vertex -0.956136 -1.15577 -25
    endloop
  endfacet
  facet normal 0 0 -1
    outer loop
      vertex -1.09345 -1.02682 -25
      vertex -1.09345 1.02682 -25
      vertex -0.956136 1.15577 -25
    endloop
  endfacet
  facet normal 0 0 -1
    outer loop
      vertex -1.21352 -0.881678 -25
      vertex -1.09345 1.02682 -25
      vertex -1.09345 -1.02682 -25
    endloop
  endfacet
  facet normal 0 0 -1
    outer loop
      vertex -1.21352 -0.881678 -25
      vertex -1.21352 0.881678 -25
      vertex -1.09345 1.02682 -25
    endloop
  endfacet
  facet normal 0 0 -1
    outer loop
      vertex -1.31446 -0.722631 -25
      vertex -1.21352 0.881678 -25
      vertex -1.21352 -0.881678 -25
    endloop
  endfacet
  facet normal 0 0 -1
    outer loop
      vertex -1.31446 -0.722631 -25
      vertex -1.31446 0.722631 -25
      vertex -1.21352 0.881678 -25
    endloop
  endfacet
  facet normal 0 0 -1
    outer loop
      vertex -1.39466 -0.552186 -25
      vertex -1.31446 0.722631 -25
      vertex -1.31446 -0.722631 -25
    endloop
  endfacet
  facet normal 0 0 -1
    outer loop
      vertex -1.39466 -0.552186 -25
      vertex -1.39466 0.552186 -25
      vertex -1.31446 0.722631 -25
    endloop
  endfacet
  facet normal 0 0 -1
    outer loop
      vertex -1.45287 -0.373034 -25
      vertex -1.39466 0.552186 -25
      vertex -1.39466 -0.552186 -25
    endloop
  endfacet
  facet normal 0 0 -1
    outer loop
      vertex -1.45287 -0.373034 -25
      vertex -1.45287 0.373034 -25
      vertex -1.39466 0.552186 -25
    endloop
  endfacet
  facet normal 0 0 -1
    outer loop
      vertex -1.48817 -0.188 -25
      vertex -1.45287 0.373034 -25
      vertex -1.45287 -0.373034 -25
    endloop
  endfacet
  facet normal 0 0 -1
    outer loop
      vertex -1.48817 -0.188 -25
      vertex -1.48817 0.188 -25
      vertex -1.45287 0.373034 -25
    endloop
  endfacet
  facet normal 0 -0 -1
    outer loop
      vertex -1.48817 0.188 -25
      vertex -1.48817 -0.188 -25
      vertex -1.5 0 -25
    endloop
  endfacet
  facet normal -0.982284 -0.187396 0
    outer loop
      vertex -1.45287 -0.373034 -25
      vertex -1.48817 -0.188 -3
      vertex -1.48817 -0.188 -25
    endloop
  endfacet
  facet normal -0.982284 -0.187396 0
    outer loop
      vertex -1.48817 -0.188 -3
      vertex -1.45287 -0.373034 -25
      vertex -1.45287 -0.373034 -3
    endloop
  endfacet
  facet normal -0.844314 -0.535848 0
    outer loop
      vertex -1.21352 -0.881678 -25
      vertex -1.31446 -0.722631 -3
      vertex -1.31446 -0.722631 -25
    endloop
  endfacet
  facet normal -0.844314 -0.535848 0
    outer loop
      vertex -1.31446 -0.722631 -3
      vertex -1.21352 -0.881678 -25
      vertex -1.21352 -0.881678 -3
    endloop
  endfacet
  facet normal -0.481757 -0.876305 0
    outer loop
      vertex -0.80374 -1.26649 -25
      vertex -0.638668 -1.35724 -3
      vertex -0.80374 -1.26649 -3
    endloop
  endfacet
  facet normal -0.481757 -0.876305 -0
    outer loop
      vertex -0.638668 -1.35724 -3
      vertex -0.80374 -1.26649 -25
      vertex -0.638668 -1.35724 -25
    endloop
  endfacet
  facet normal -0.770518 -0.637418 0
    outer loop
      vertex -1.09345 -1.02682 -25
      vertex -1.21352 -0.881678 -3
      vertex -1.21352 -0.881678 -25
    endloop
  endfacet
  facet normal -0.770518 -0.637418 0
    outer loop
      vertex -1.21352 -0.881678 -3
      vertex -1.09345 -1.02682 -25
      vertex -1.09345 -1.02682 -3
    endloop
  endfacet
endsolid OpenSCAD_Model
