<?xml version="1.0" standalone="no"?>
<!DOCTYPE svg PUBLIC "-//W3C//DTD SVG 1.1//EN" "http://www.w3.org/Graphics/SVG/1.1/DTD/svg11.dtd">
<svg width="16mm" height="262mm" viewBox="-8 -509 16 262" xmlns="http://www.w3.org/2000/svg" version="1.1">
<title>OpenSCAD Model</title>
<path d="
M 3.4369,-463.589 L 4.04507,-463.745 L 4.62889,-463.976 L 5.17912,-464.278 L 5.68712,-464.647 L 6.14484,-465.077
 L 6.54507,-465.561 L 6.88153,-466.091 L 7.14888,-466.659 L 7.34291,-467.257 L 7.46057,-467.873 L 7.5,-468.5
 L 7.5,-503.5 L 7.46057,-504.127 L 7.34291,-504.743 L 7.14888,-505.341 L 6.88153,-505.909 L 6.54507,-506.439
 L 6.14484,-506.923 L 5.68712,-507.353 L 5.17912,-507.722 L 4.62889,-508.024 L 4.04507,-508.255 L 3.4369,-508.411
 L 2.81395,-508.49 L -2.81395,-508.49 L -3.4369,-508.411 L -4.04507,-508.255 L -4.62889,-508.024 L -5.17912,-507.722
 L -5.68712,-507.353 L -6.14484,-506.923 L -6.54507,-506.439 L -6.88153,-505.909 L -7.14888,-505.341 L -7.34291,-504.743
 L -7.46057,-504.127 L -7.5,-503.5 L -7.5,-468.5 L -7.46057,-467.873 L -7.34291,-467.257 L -7.14888,-466.659
 L -6.88153,-466.091 L -6.54507,-465.561 L -6.14484,-465.077 L -5.68712,-464.647 L -5.17912,-464.278 L -4.62889,-463.976
 L -4.04507,-463.745 L -3.4369,-463.589 L -2.81395,-463.51 L 2.81395,-463.51 z
M 2.68895,-464.009 L 3.17912,-464.278 L 3.68712,-464.647 L 4.14484,-465.077 L 4.54507,-465.561 L 4.88153,-466.091
 L 5.14888,-466.659 L 5.34291,-467.257 L 5.46057,-467.873 L 5.5,-468.5 L 5.5,-471.5 L 5.46057,-472.127
 L 5.34291,-472.743 L 5.14888,-473.341 L 4.88153,-473.909 L 4.54507,-474.439 L 4.14484,-474.923 L 3.68712,-475.353
 L 3.17912,-475.722 L 2.62889,-476.024 L 2.04507,-476.255 L 1.4369,-476.411 L 0.81395,-476.49 L -2.81395,-476.49
 L -3.4369,-476.411 L -4.04507,-476.255 L -4.62889,-476.024 L -5.17912,-475.722 L -5.68712,-475.353 L -6.14484,-474.923
 L -6.54507,-474.439 L -6.88153,-473.909 L -7,-473.657 L -7,-496.343 L -6.88153,-496.091 L -6.54507,-495.561
 L -6.14484,-495.077 L -5.68712,-494.647 L -5.17912,-494.278 L -4.62889,-493.976 L -4.04507,-493.745 L -3.4369,-493.589
 L -2.81395,-493.51 L 0.81395,-493.51 L 1.4369,-493.589 L 2.04507,-493.745 L 2.62889,-493.976 L 3.17912,-494.278
 L 3.68712,-494.647 L 4.14484,-495.077 L 4.54507,-495.561 L 4.88153,-496.091 L 5.14888,-496.659 L 5.34291,-497.257
 L 5.46057,-497.873 L 5.5,-498.5 L 5.5,-501.5 L 5.46057,-502.127 L 5.34291,-502.743 L 5.14888,-503.341
 L 4.88153,-503.909 L 4.54507,-504.439 L 4.14484,-504.923 L 3.68712,-505.353 L 3.17912,-505.722 L 2.62889,-506.024
 L 2.04507,-506.255 L 1.4369,-506.411 L 0.81395,-506.49 L -2.81395,-506.49 L -3.4369,-506.411 L -4.04507,-506.255
 L -4.62889,-506.024 L -5.17912,-505.722 L -5.68712,-505.353 L -6.14484,-504.923 L -6.54507,-504.439 L -6.88153,-503.909
 L -6.98859,-503.681 L -6.96451,-504.064 L -6.85861,-504.619 L -6.68399,-505.157 L -6.44337,-505.668 L -6.14056,-506.145
 L -5.78035,-506.58 L -5.36839,-506.967 L -4.91121,-507.299 L -4.416,-507.572 L -3.89056,-507.78 L -3.3432,-507.92
 L -2.78255,-507.991 L 2.78255,-507.991 L 3.3432,-507.92 L 3.89056,-507.78 L 4.416,-507.572 L 4.91121,-507.299
 L 5.36839,-506.967 L 5.78035,-506.58 L 6.14056,-506.145 L 6.44337,-505.668 L 6.68399,-505.157 L 6.85861,-504.619
 L 6.96451,-504.064 L 7,-503.5 L 7,-468.5 L 6.96451,-467.936 L 6.85861,-467.381 L 6.68399,-466.843
 L 6.44337,-466.332 L 6.14056,-465.855 L 5.78035,-465.42 L 5.36839,-465.033 L 4.91121,-464.701 L 4.416,-464.428
 L 3.89056,-464.22 L 3.3432,-464.08 L 2.78255,-464.009 z
M -0.0941772,-499.503 L -0.281067,-499.527 L -0.463516,-499.573 L -0.638657,-499.643 L -0.803726,-499.734 L -0.956131,-499.844
 L -1.09344,-499.973 L -1.21352,-500.118 L -1.31445,-500.277 L -1.39465,-500.448 L -1.45287,-500.627 L -1.48816,-500.812
 L -1.5,-501 L -1.48816,-501.188 L -1.45287,-501.373 L -1.39465,-501.552 L -1.31445,-501.723 L -1.21352,-501.882
 L -1.09344,-502.027 L -0.956131,-502.156 L -0.803726,-502.266 L -0.638657,-502.357 L -0.463516,-502.427 L -0.281067,-502.473
 L -0.0941772,-502.497 L 0.0941772,-502.497 L 0.281067,-502.473 L 0.463516,-502.427 L 0.638657,-502.357 L 0.803726,-502.266
 L 0.956131,-502.156 L 1.09344,-502.027 L 1.21352,-501.882 L 1.31445,-501.723 L 1.39465,-501.552 L 1.45287,-501.373
 L 1.48816,-501.188 L 1.5,-501 L 1.48816,-500.812 L 1.45287,-500.627 L 1.39465,-500.448 L 1.31445,-500.277
 L 1.21352,-500.118 L 1.09344,-499.973 L 0.956131,-499.844 L 0.803726,-499.734 L 0.638657,-499.643 L 0.463516,-499.573
 L 0.281067,-499.527 L 0.0941772,-499.503 z
M -0.0941772,-469.503 L -0.281067,-469.527 L -0.463516,-469.573 L -0.638657,-469.643 L -0.803726,-469.734 L -0.956131,-469.844
 L -1.09344,-469.973 L -1.21352,-470.118 L -1.31445,-470.277 L -1.39465,-470.448 L -1.45287,-470.627 L -1.48816,-470.812
 L -1.5,-471 L -1.48816,-471.188 L -1.45287,-471.373 L -1.39465,-471.552 L -1.31445,-471.723 L -1.21352,-471.882
 L -1.09344,-472.027 L -0.956131,-472.156 L -0.803726,-472.266 L -0.638657,-472.357 L -0.463516,-472.427 L -0.281067,-472.473
 L -0.0941772,-472.497 L 0.0941772,-472.497 L 0.281067,-472.473 L 0.463516,-472.427 L 0.638657,-472.357 L 0.803726,-472.266
 L 0.956131,-472.156 L 1.09344,-472.027 L 1.21352,-471.882 L 1.31445,-471.723 L 1.39465,-471.552 L 1.45287,-471.373
 L 1.48816,-471.188 L 1.5,-471 L 1.48816,-470.812 L 1.45287,-470.627 L 1.39465,-470.448 L 1.31445,-470.277
 L 1.21352,-470.118 L 1.09344,-469.973 L 0.956131,-469.844 L 0.803726,-469.734 L 0.638657,-469.643 L 0.463516,-469.573
 L 0.281067,-469.527 L 0.0941772,-469.503 z
M 3.4369,-409.589 L 4.04507,-409.745 L 4.62889,-409.976 L 5.17912,-410.278 L 5.68712,-410.647 L 6.14484,-411.077
 L 6.54507,-411.561 L 6.88153,-412.091 L 7.14888,-412.659 L 7.34291,-413.257 L 7.46057,-413.873 L 7.5,-414.5
 L 7.5,-449.5 L 7.46057,-450.127 L 7.34291,-450.743 L 7.14888,-451.341 L 6.88153,-451.909 L 6.54507,-452.439
 L 6.14484,-452.923 L 5.68712,-453.353 L 5.17912,-453.722 L 4.62889,-454.024 L 4.04507,-454.255 L 3.4369,-454.411
 L 2.81395,-454.49 L -2.81395,-454.49 L -3.4369,-454.411 L -4.04507,-454.255 L -4.62889,-454.024 L -5.17912,-453.722
 L -5.68712,-453.353 L -6.14484,-452.923 L -6.54507,-452.439 L -6.88153,-451.909 L -7.14888,-451.341 L -7.34291,-450.743
 L -7.46057,-450.127 L -7.5,-449.5 L -7.5,-414.5 L -7.46057,-413.873 L -7.34291,-413.257 L -7.14888,-412.659
 L -6.88153,-412.091 L -6.54507,-411.561 L -6.14484,-411.077 L -5.68712,-410.647 L -5.17912,-410.278 L -4.62889,-409.976
 L -4.04507,-409.745 L -3.4369,-409.589 L -2.81395,-409.51 L 2.81395,-409.51 z
M 2.68895,-410.009 L 3.17912,-410.278 L 3.68712,-410.647 L 4.14484,-411.077 L 4.54507,-411.561 L 4.88153,-412.091
 L 5.14888,-412.659 L 5.34291,-413.257 L 5.46057,-413.873 L 5.5,-414.5 L 5.5,-417.5 L 5.46057,-418.127
 L 5.34291,-418.743 L 5.14888,-419.341 L 4.88153,-419.909 L 4.54507,-420.439 L 4.14484,-420.923 L 3.68712,-421.353
 L 3.17912,-421.722 L 2.62889,-422.024 L 2.04507,-422.255 L 1.4369,-422.411 L 0.81395,-422.49 L -2.81395,-422.49
 L -3.4369,-422.411 L -4.04507,-422.255 L -4.62889,-422.024 L -5.17912,-421.722 L -5.68712,-421.353 L -6.14484,-420.923
 L -6.54507,-420.439 L -6.88153,-419.909 L -7,-419.657 L -7,-442.343 L -6.88153,-442.091 L -6.54507,-441.561
 L -6.14484,-441.077 L -5.68712,-440.647 L -5.17912,-440.278 L -4.62889,-439.976 L -4.04507,-439.745 L -3.4369,-439.589
 L -2.81395,-439.51 L 0.81395,-439.51 L 1.4369,-439.589 L 2.04507,-439.745 L 2.62889,-439.976 L 3.17912,-440.278
 L 3.68712,-440.647 L 4.14484,-441.077 L 4.54507,-441.561 L 4.88153,-442.091 L 5.14888,-442.659 L 5.34291,-443.257
 L 5.46057,-443.873 L 5.5,-444.5 L 5.5,-447.5 L 5.46057,-448.127 L 5.34291,-448.743 L 5.14888,-449.341
 L 4.88153,-449.909 L 4.54507,-450.439 L 4.14484,-450.923 L 3.68712,-451.353 L 3.17912,-451.722 L 2.62889,-452.024
 L 2.04507,-452.255 L 1.4369,-452.411 L 0.81395,-452.49 L -2.81395,-452.49 L -3.4369,-452.411 L -4.04507,-452.255
 L -4.62889,-452.024 L -5.17912,-451.722 L -5.68712,-451.353 L -6.14484,-450.923 L -6.54507,-450.439 L -6.88153,-449.909
 L -6.98859,-449.681 L -6.96451,-450.064 L -6.85861,-450.619 L -6.68399,-451.157 L -6.44337,-451.668 L -6.14056,-452.145
 L -5.78035,-452.58 L -5.36839,-452.967 L -4.91121,-453.299 L -4.416,-453.572 L -3.89056,-453.78 L -3.3432,-453.92
 L -2.78255,-453.991 L 2.78255,-453.991 L 3.3432,-453.92 L 3.89056,-453.78 L 4.416,-453.572 L 4.91121,-453.299
 L 5.36839,-452.967 L 5.78035,-452.58 L 6.14056,-452.145 L 6.44337,-451.668 L 6.68399,-451.157 L 6.85861,-450.619
 L 6.96451,-450.064 L 7,-449.5 L 7,-414.5 L 6.96451,-413.936 L 6.85861,-413.381 L 6.68399,-412.843
 L 6.44337,-412.332 L 6.14056,-411.855 L 5.78035,-411.42 L 5.36839,-411.033 L 4.91121,-410.701 L 4.416,-410.428
 L 3.89056,-410.22 L 3.3432,-410.08 L 2.78255,-410.009 z
M -0.0941772,-445.503 L -0.281067,-445.527 L -0.463516,-445.573 L -0.638657,-445.643 L -0.803726,-445.734 L -0.956131,-445.844
 L -1.09344,-445.973 L -1.21352,-446.118 L -1.31445,-446.277 L -1.39465,-446.448 L -1.45287,-446.627 L -1.48816,-446.812
 L -1.5,-447 L -1.48816,-447.188 L -1.45287,-447.373 L -1.39465,-447.552 L -1.31445,-447.723 L -1.21352,-447.882
 L -1.09344,-448.027 L -0.956131,-448.156 L -0.803726,-448.266 L -0.638657,-448.357 L -0.463516,-448.427 L -0.281067,-448.473
 L -0.0941772,-448.497 L 0.0941772,-448.497 L 0.281067,-448.473 L 0.463516,-448.427 L 0.638657,-448.357 L 0.803726,-448.266
 L 0.956131,-448.156 L 1.09344,-448.027 L 1.21352,-447.882 L 1.31445,-447.723 L 1.39465,-447.552 L 1.45287,-447.373
 L 1.48816,-447.188 L 1.5,-447 L 1.48816,-446.812 L 1.45287,-446.627 L 1.39465,-446.448 L 1.31445,-446.277
 L 1.21352,-446.118 L 1.09344,-445.973 L 0.956131,-445.844 L 0.803726,-445.734 L 0.638657,-445.643 L 0.463516,-445.573
 L 0.281067,-445.527 L 0.0941772,-445.503 z
M -0.0941772,-415.503 L -0.281067,-415.527 L -0.463516,-415.573 L -0.638657,-415.643 L -0.803726,-415.734 L -0.956131,-415.844
 L -1.09344,-415.973 L -1.21352,-416.118 L -1.31445,-416.277 L -1.39465,-416.448 L -1.45287,-416.627 L -1.48816,-416.812
 L -1.5,-417 L -1.48816,-417.188 L -1.45287,-417.373 L -1.39465,-417.552 L -1.31445,-417.723 L -1.21352,-417.882
 L -1.09344,-418.027 L -0.956131,-418.156 L -0.803726,-418.266 L -0.638657,-418.357 L -0.463516,-418.427 L -0.281067,-418.473
 L -0.0941772,-418.497 L 0.0941772,-418.497 L 0.281067,-418.473 L 0.463516,-418.427 L 0.638657,-418.357 L 0.803726,-418.266
 L 0.956131,-418.156 L 1.09344,-418.027 L 1.21352,-417.882 L 1.31445,-417.723 L 1.39465,-417.552 L 1.45287,-417.373
 L 1.48816,-417.188 L 1.5,-417 L 1.48816,-416.812 L 1.45287,-416.627 L 1.39465,-416.448 L 1.31445,-416.277
 L 1.21352,-416.118 L 1.09344,-415.973 L 0.956131,-415.844 L 0.803726,-415.734 L 0.638657,-415.643 L 0.463516,-415.573
 L 0.281067,-415.527 L 0.0941772,-415.503 z
M 3.4369,-355.589 L 4.04507,-355.745 L 4.62889,-355.976 L 5.17912,-356.278 L 5.68712,-356.647 L 6.14484,-357.077
 L 6.54507,-357.561 L 6.88153,-358.091 L 7.14888,-358.659 L 7.34291,-359.257 L 7.46057,-359.873 L 7.5,-360.5
 L 7.5,-395.5 L 7.46057,-396.127 L 7.34291,-396.743 L 7.14888,-397.341 L 6.88153,-397.909 L 6.54507,-398.439
 L 6.14484,-398.923 L 5.68712,-399.353 L 5.17912,-399.722 L 4.62889,-400.024 L 4.04507,-400.255 L 3.4369,-400.411
 L 2.81395,-400.49 L -2.81395,-400.49 L -3.4369,-400.411 L -4.04507,-400.255 L -4.62889,-400.024 L -5.17912,-399.722
 L -5.68712,-399.353 L -6.14484,-398.923 L -6.54507,-398.439 L -6.88153,-397.909 L -7.14888,-397.341 L -7.34291,-396.743
 L -7.46057,-396.127 L -7.5,-395.5 L -7.5,-360.5 L -7.46057,-359.873 L -7.34291,-359.257 L -7.14888,-358.659
 L -6.88153,-358.091 L -6.54507,-357.561 L -6.14484,-357.077 L -5.68712,-356.647 L -5.17912,-356.278 L -4.62889,-355.976
 L -4.04507,-355.745 L -3.4369,-355.589 L -2.81395,-355.51 L 2.81395,-355.51 z
M 2.68895,-356.009 L 3.17912,-356.278 L 3.68712,-356.647 L 4.14484,-357.077 L 4.54507,-357.561 L 4.88153,-358.091
 L 5.14888,-358.659 L 5.34291,-359.257 L 5.46057,-359.873 L 5.5,-360.5 L 5.5,-363.5 L 5.46057,-364.127
 L 5.34291,-364.743 L 5.14888,-365.341 L 4.88153,-365.909 L 4.54507,-366.439 L 4.14484,-366.923 L 3.68712,-367.353
 L 3.17912,-367.722 L 2.62889,-368.024 L 2.04507,-368.255 L 1.4369,-368.411 L 0.81395,-368.49 L -2.81395,-368.49
 L -3.4369,-368.411 L -4.04507,-368.255 L -4.62889,-368.024 L -5.17912,-367.722 L -5.68712,-367.353 L -6.14484,-366.923
 L -6.54507,-366.439 L -6.88153,-365.909 L -7,-365.657 L -7,-388.343 L -6.88153,-388.091 L -6.54507,-387.561
 L -6.14484,-387.077 L -5.68712,-386.647 L -5.17912,-386.278 L -4.62889,-385.976 L -4.04507,-385.745 L -3.4369,-385.589
 L -2.81395,-385.51 L 0.81395,-385.51 L 1.4369,-385.589 L 2.04507,-385.745 L 2.62889,-385.976 L 3.17912,-386.278
 L 3.68712,-386.647 L 4.14484,-387.077 L 4.54507,-387.561 L 4.88153,-388.091 L 5.14888,-388.659 L 5.34291,-389.257
 L 5.46057,-389.873 L 5.5,-390.5 L 5.5,-393.5 L 5.46057,-394.127 L 5.34291,-394.743 L 5.14888,-395.341
 L 4.88153,-395.909 L 4.54507,-396.439 L 4.14484,-396.923 L 3.68712,-397.353 L 3.17912,-397.722 L 2.62889,-398.024
 L 2.04507,-398.255 L 1.4369,-398.411 L 0.81395,-398.49 L -2.81395,-398.49 L -3.4369,-398.411 L -4.04507,-398.255
 L -4.62889,-398.024 L -5.17912,-397.722 L -5.68712,-397.353 L -6.14484,-396.923 L -6.54507,-396.439 L -6.88153,-395.909
 L -6.98859,-395.681 L -6.96451,-396.064 L -6.85861,-396.619 L -6.68399,-397.157 L -6.44337,-397.668 L -6.14056,-398.145
 L -5.78035,-398.58 L -5.36839,-398.967 L -4.91121,-399.299 L -4.416,-399.572 L -3.89056,-399.78 L -3.3432,-399.92
 L -2.78255,-399.991 L 2.78255,-399.991 L 3.3432,-399.92 L 3.89056,-399.78 L 4.416,-399.572 L 4.91121,-399.299
 L 5.36839,-398.967 L 5.78035,-398.58 L 6.14056,-398.145 L 6.44337,-397.668 L 6.68399,-397.157 L 6.85861,-396.619
 L 6.96451,-396.064 L 7,-395.5 L 7,-360.5 L 6.96451,-359.936 L 6.85861,-359.381 L 6.68399,-358.843
 L 6.44337,-358.332 L 6.14056,-357.855 L 5.78035,-357.42 L 5.36839,-357.033 L 4.91121,-356.701 L 4.416,-356.428
 L 3.89056,-356.22 L 3.3432,-356.08 L 2.78255,-356.009 z
M -0.0941772,-391.503 L -0.281067,-391.527 L -0.463516,-391.573 L -0.638657,-391.643 L -0.803726,-391.734 L -0.956131,-391.844
 L -1.09344,-391.973 L -1.21352,-392.118 L -1.31445,-392.277 L -1.39465,-392.448 L -1.45287,-392.627 L -1.48816,-392.812
 L -1.5,-393 L -1.48816,-393.188 L -1.45287,-393.373 L -1.39465,-393.552 L -1.31445,-393.723 L -1.21352,-393.882
 L -1.09344,-394.027 L -0.956131,-394.156 L -0.803726,-394.266 L -0.638657,-394.357 L -0.463516,-394.427 L -0.281067,-394.473
 L -0.0941772,-394.497 L 0.0941772,-394.497 L 0.281067,-394.473 L 0.463516,-394.427 L 0.638657,-394.357 L 0.803726,-394.266
 L 0.956131,-394.156 L 1.09344,-394.027 L 1.21352,-393.882 L 1.31445,-393.723 L 1.39465,-393.552 L 1.45287,-393.373
 L 1.48816,-393.188 L 1.5,-393 L 1.48816,-392.812 L 1.45287,-392.627 L 1.39465,-392.448 L 1.31445,-392.277
 L 1.21352,-392.118 L 1.09344,-391.973 L 0.956131,-391.844 L 0.803726,-391.734 L 0.638657,-391.643 L 0.463516,-391.573
 L 0.281067,-391.527 L 0.0941772,-391.503 z
M -0.0941772,-361.503 L -0.281067,-361.527 L -0.463516,-361.573 L -0.638657,-361.643 L -0.803726,-361.734 L -0.956131,-361.844
 L -1.09344,-361.973 L -1.21352,-362.118 L -1.31445,-362.277 L -1.39465,-362.448 L -1.45287,-362.627 L -1.48816,-362.812
 L -1.5,-363 L -1.48816,-363.188 L -1.45287,-363.373 L -1.39465,-363.552 L -1.31445,-363.723 L -1.21352,-363.882
 L -1.09344,-364.027 L -0.956131,-364.156 L -0.803726,-364.266 L -0.638657,-364.357 L -0.463516,-364.427 L -0.281067,-364.473
 L -0.0941772,-364.497 L 0.0941772,-364.497 L 0.281067,-364.473 L 0.463516,-364.427 L 0.638657,-364.357 L 0.803726,-364.266
 L 0.956131,-364.156 L 1.09344,-364.027 L 1.21352,-363.882 L 1.31445,-363.723 L 1.39465,-363.552 L 1.45287,-363.373
 L 1.48816,-363.188 L 1.5,-363 L 1.48816,-362.812 L 1.45287,-362.627 L 1.39465,-362.448 L 1.31445,-362.277
 L 1.21352,-362.118 L 1.09344,-361.973 L 0.956131,-361.844 L 0.803726,-361.734 L 0.638657,-361.643 L 0.463516,-361.573
 L 0.281067,-361.527 L 0.0941772,-361.503 z
M 3.4369,-301.589 L 4.04507,-301.745 L 4.62889,-301.976 L 5.17912,-302.278 L 5.68712,-302.647 L 6.14484,-303.077
 L 6.54507,-303.561 L 6.88153,-304.091 L 7.14888,-304.659 L 7.34291,-305.257 L 7.46057,-305.873 L 7.5,-306.5
 L 7.5,-341.5 L 7.46057,-342.127 L 7.34291,-342.743 L 7.14888,-343.341 L 6.88153,-343.909 L 6.54507,-344.439
 L 6.14484,-344.923 L 5.68712,-345.353 L 5.17912,-345.722 L 4.62889,-346.024 L 4.04507,-346.255 L 3.4369,-346.411
 L 2.81395,-346.49 L -2.81395,-346.49 L -3.4369,-346.411 L -4.04507,-346.255 L -4.62889,-346.024 L -5.17912,-345.722
 L -5.68712,-345.353 L -6.14484,-344.923 L -6.54507,-344.439 L -6.88153,-343.909 L -7.14888,-343.341 L -7.34291,-342.743
 L -7.46057,-342.127 L -7.5,-341.5 L -7.5,-306.5 L -7.46057,-305.873 L -7.34291,-305.257 L -7.14888,-304.659
 L -6.88153,-304.091 L -6.54507,-303.561 L -6.14484,-303.077 L -5.68712,-302.647 L -5.17912,-302.278 L -4.62889,-301.976
 L -4.04507,-301.745 L -3.4369,-301.589 L -2.81395,-301.51 L 2.81395,-301.51 z
M 2.74606,-302.04 L 3.17912,-302.278 L 3.68712,-302.647 L 4.14484,-303.077 L 4.54507,-303.561 L 4.88153,-304.091
 L 5.14888,-304.659 L 5.34291,-305.257 L 5.46057,-305.873 L 5.5,-306.5 L 5.5,-309.5 L 5.46057,-310.127
 L 5.34291,-310.743 L 5.14888,-311.341 L 4.88153,-311.909 L 4.54507,-312.439 L 4.14484,-312.923 L 3.68712,-313.353
 L 3.17912,-313.722 L 2.62889,-314.024 L 2.04507,-314.255 L 1.4369,-314.411 L 0.81395,-314.49 L -2.81395,-314.49
 L -3.4369,-314.411 L -4.04507,-314.255 L -4.62889,-314.024 L -5.17912,-313.722 L -5.68712,-313.353 L -6.14484,-312.923
 L -6.54507,-312.439 L -6.88153,-311.909 L -6.96854,-311.724 L -6.96854,-334.276 L -6.88153,-334.091 L -6.54507,-333.561
 L -6.14484,-333.077 L -5.68712,-332.647 L -5.17912,-332.278 L -4.62889,-331.976 L -4.04507,-331.745 L -3.4369,-331.589
 L -2.81395,-331.51 L 0.81395,-331.51 L 1.4369,-331.589 L 2.04507,-331.745 L 2.62889,-331.976 L 3.17912,-332.278
 L 3.68712,-332.647 L 4.14484,-333.077 L 4.54507,-333.561 L 4.88153,-334.091 L 5.14888,-334.659 L 5.34291,-335.257
 L 5.46057,-335.873 L 5.5,-336.5 L 5.5,-339.5 L 5.46057,-340.127 L 5.34291,-340.743 L 5.14888,-341.341
 L 4.88153,-341.909 L 4.54507,-342.439 L 4.14484,-342.923 L 3.68712,-343.353 L 3.17912,-343.722 L 2.62889,-344.024
 L 2.04507,-344.255 L 1.4369,-344.411 L 0.81395,-344.49 L -2.81395,-344.49 L -3.4369,-344.411 L -4.04507,-344.255
 L -4.62889,-344.024 L -5.17912,-343.722 L -5.68712,-343.353 L -6.14484,-342.923 L -6.54507,-342.439 L -6.88153,-341.909
 L -6.95227,-341.758 L -6.9333,-342.06 L -6.82814,-342.611 L -6.65474,-343.145 L -6.4158,-343.653 L -6.11511,-344.127
 L -5.75742,-344.559 L -5.34834,-344.943 L -4.89436,-345.273 L -4.4026,-345.543 L -3.88084,-345.75 L -3.33731,-345.889
 L -2.78058,-345.96 L 2.78058,-345.96 L 3.33731,-345.889 L 3.88084,-345.75 L 4.4026,-345.543 L 4.89436,-345.273
 L 5.34834,-344.943 L 5.75742,-344.559 L 6.11511,-344.127 L 6.4158,-343.653 L 6.65474,-343.145 L 6.82814,-342.611
 L 6.9333,-342.06 L 6.96854,-341.5 L 6.96854,-306.5 L 6.9333,-305.94 L 6.82814,-305.389 L 6.65474,-304.855
 L 6.4158,-304.347 L 6.11511,-303.873 L 5.75742,-303.441 L 5.34834,-303.057 L 4.89436,-302.727 L 4.4026,-302.457
 L 3.88084,-302.25 L 3.33731,-302.111 L 2.78058,-302.04 z
M -0.0941772,-337.503 L -0.281067,-337.527 L -0.463516,-337.573 L -0.638657,-337.643 L -0.803726,-337.734 L -0.956131,-337.844
 L -1.09344,-337.973 L -1.21352,-338.118 L -1.31445,-338.277 L -1.39465,-338.448 L -1.45287,-338.627 L -1.48816,-338.812
 L -1.5,-339 L -1.48816,-339.188 L -1.45287,-339.373 L -1.39465,-339.552 L -1.31445,-339.723 L -1.21352,-339.882
 L -1.09344,-340.027 L -0.956131,-340.156 L -0.803726,-340.266 L -0.638657,-340.357 L -0.463516,-340.427 L -0.281067,-340.473
 L -0.0941772,-340.497 L 0.0941772,-340.497 L 0.281067,-340.473 L 0.463516,-340.427 L 0.638657,-340.357 L 0.803726,-340.266
 L 0.956131,-340.156 L 1.09344,-340.027 L 1.21352,-339.882 L 1.31445,-339.723 L 1.39465,-339.552 L 1.45287,-339.373
 L 1.48816,-339.188 L 1.5,-339 L 1.48816,-338.812 L 1.45287,-338.627 L 1.39465,-338.448 L 1.31445,-338.277
 L 1.21352,-338.118 L 1.09344,-337.973 L 0.956131,-337.844 L 0.803726,-337.734 L 0.638657,-337.643 L 0.463516,-337.573
 L 0.281067,-337.527 L 0.0941772,-337.503 z
M -0.0941772,-307.503 L -0.281067,-307.527 L -0.463516,-307.573 L -0.638657,-307.643 L -0.803726,-307.734 L -0.956131,-307.844
 L -1.09344,-307.973 L -1.21352,-308.118 L -1.31445,-308.277 L -1.39465,-308.448 L -1.45287,-308.627 L -1.48816,-308.812
 L -1.5,-309 L -1.48816,-309.188 L -1.45287,-309.373 L -1.39465,-309.552 L -1.31445,-309.723 L -1.21352,-309.882
 L -1.09344,-310.027 L -0.956131,-310.156 L -0.803726,-310.266 L -0.638657,-310.357 L -0.463516,-310.427 L -0.281067,-310.473
 L -0.0941772,-310.497 L 0.0941772,-310.497 L 0.281067,-310.473 L 0.463516,-310.427 L 0.638657,-310.357 L 0.803726,-310.266
 L 0.956131,-310.156 L 1.09344,-310.027 L 1.21352,-309.882 L 1.31445,-309.723 L 1.39465,-309.552 L 1.45287,-309.373
 L 1.48816,-309.188 L 1.5,-309 L 1.48816,-308.812 L 1.45287,-308.627 L 1.39465,-308.448 L 1.31445,-308.277
 L 1.21352,-308.118 L 1.09344,-307.973 L 0.956131,-307.844 L 0.803726,-307.734 L 0.638657,-307.643 L 0.463516,-307.573
 L 0.281067,-307.527 L 0.0941772,-307.503 z
M 3.4369,-247.589 L 4.04507,-247.745 L 4.62889,-247.976 L 5.17912,-248.278 L 5.68712,-248.647 L 6.14484,-249.077
 L 6.54507,-249.561 L 6.88153,-250.091 L 7.14888,-250.659 L 7.34291,-251.257 L 7.46057,-251.873 L 7.5,-252.5
 L 7.5,-287.5 L 7.46057,-288.127 L 7.34291,-288.743 L 7.14888,-289.341 L 6.88153,-289.909 L 6.54507,-290.439
 L 6.14484,-290.923 L 5.68712,-291.353 L 5.17912,-291.722 L 4.62889,-292.024 L 4.04507,-292.255 L 3.4369,-292.411
 L 2.81395,-292.49 L -2.81395,-292.49 L -3.4369,-292.411 L -4.04507,-292.255 L -4.62889,-292.024 L -5.17912,-291.722
 L -5.68712,-291.353 L -6.14484,-290.923 L -6.54507,-290.439 L -6.88153,-289.909 L -7.14888,-289.341 L -7.34291,-288.743
 L -7.46057,-288.127 L -7.5,-287.5 L -7.5,-252.5 L -7.46057,-251.873 L -7.34291,-251.257 L -7.14888,-250.659
 L -6.88153,-250.091 L -6.54507,-249.561 L -6.14484,-249.077 L -5.68712,-248.647 L -5.17912,-248.278 L -4.62889,-247.976
 L -4.04507,-247.745 L -3.4369,-247.589 L -2.81395,-247.51 L 2.81395,-247.51 z
M 5.14888,-287.341 L 4.88153,-287.909 L 4.54507,-288.439 L 4.14484,-288.923 L 3.68712,-289.353 L 3.17912,-289.722
 L 2.62889,-290.024 L 2.04507,-290.255 L 1.80142,-290.318 L 2.67728,-290.318 L 3.02905,-290.273 L 3.37247,-290.185
 L 3.70215,-290.055 L 4.01285,-289.884 L 4.2997,-289.675 L 4.55817,-289.433 L 4.78418,-289.16 L 4.97417,-288.86
 L 5.12514,-288.539 L 5.2347,-288.202 L 5.30115,-287.854 L 5.32341,-287.5 L 5.32341,-286.803 z
M -0.150696,-282.605 L -0.449707,-282.643 L -0.741638,-282.717 L -1.02187,-282.828 L -1.28598,-282.974 L -1.52982,-283.151
 L -1.74951,-283.357 L -1.94164,-283.589 L -2.10313,-283.844 L -2.23146,-284.117 L -2.32458,-284.403 L -2.38107,-284.699
 L -2.39999,-285 L -2.38107,-285.301 L -2.32458,-285.597 L -2.23146,-285.883 L -2.10313,-286.156 L -1.94164,-286.411
 L -1.74951,-286.643 L -1.52982,-286.849 L -1.28598,-287.026 L -1.02187,-287.172 L -0.741638,-287.283 L -0.449707,-287.357
 L -0.150696,-287.395 L 0.150696,-287.395 L 0.449707,-287.357 L 0.741638,-287.283 L 1.02187,-287.172 L 1.28598,-287.026
 L 1.52982,-286.849 L 1.74951,-286.643 L 1.94164,-286.411 L 2.10313,-286.156 L 2.23146,-285.883 L 2.32458,-285.597
 L 2.38107,-285.301 L 2.39999,-285 L 2.38107,-284.699 L 2.32458,-284.403 L 2.23146,-284.117 L 2.10313,-283.844
 L 1.94164,-283.589 L 1.74951,-283.357 L 1.52982,-283.151 L 1.28598,-282.974 L 1.02187,-282.828 L 0.741638,-282.717
 L 0.449707,-282.643 L 0.150696,-282.605 z
M 5.14888,-257.341 L 4.88153,-257.909 L 4.54507,-258.439 L 4.14484,-258.923 L 3.68712,-259.353 L 3.17912,-259.722
 L 2.62889,-260.024 L 2.04507,-260.255 L 1.4369,-260.411 L 0.81395,-260.49 L -2.81395,-260.49 L -3.4369,-260.411
 L -4.04507,-260.255 L -4.62889,-260.024 L -5.17912,-259.722 L -5.32341,-259.617 L -5.32341,-278.383 L -5.17912,-278.278
 L -4.62889,-277.976 L -4.04507,-277.745 L -3.4369,-277.589 L -2.81395,-277.51 L 0.81395,-277.51 L 1.4369,-277.589
 L 2.04507,-277.745 L 2.62889,-277.976 L 3.17912,-278.278 L 3.68712,-278.647 L 4.14484,-279.077 L 4.54507,-279.561
 L 4.88153,-280.091 L 5.14888,-280.659 L 5.32341,-281.197 L 5.32341,-256.803 z
M -0.150696,-252.605 L -0.449707,-252.643 L -0.741638,-252.717 L -1.02187,-252.828 L -1.28598,-252.974 L -1.52982,-253.151
 L -1.74951,-253.357 L -1.94164,-253.589 L -2.10313,-253.844 L -2.23146,-254.117 L -2.32458,-254.403 L -2.38107,-254.699
 L -2.39999,-255 L -2.38107,-255.301 L -2.32458,-255.597 L -2.23146,-255.883 L -2.10313,-256.156 L -1.94164,-256.411
 L -1.74951,-256.643 L -1.52982,-256.849 L -1.28598,-257.026 L -1.02187,-257.172 L -0.741638,-257.283 L -0.449707,-257.357
 L -0.150696,-257.395 L 0.150696,-257.395 L 0.449707,-257.357 L 0.741638,-257.283 L 1.02187,-257.172 L 1.28598,-257.026
 L 1.52982,-256.849 L 1.74951,-256.643 L 1.94164,-256.411 L 2.10313,-256.156 L 2.23146,-255.883 L 2.32458,-255.597
 L 2.38107,-255.301 L 2.39999,-255 L 2.38107,-254.699 L 2.32458,-254.403 L 2.23146,-254.117 L 2.10313,-253.844
 L 1.94164,-253.589 L 1.74951,-253.357 L 1.52982,-253.151 L 1.28598,-252.974 L 1.02187,-252.828 L 0.741638,-252.717
 L 0.449707,-252.643 L 0.150696,-252.605 z
" stroke="black" fill="lightgray" stroke-width="0.5"/>
</svg>
