  0
SECTION
  2
BLOCKS
  0
ENDSEC
  0
SECTION
  2
ENTITIES
  0
LINE
  8
0
 10
3.4369
 20
463.589
 11
4.04507
 21
463.745
  0
LINE
  8
0
 10
4.04507
 20
463.745
 11
4.62889
 21
463.976
  0
LINE
  8
0
 10
4.62889
 20
463.976
 11
5.17912
 21
464.278
  0
LINE
  8
0
 10
5.17912
 20
464.278
 11
5.68712
 21
464.647
  0
LINE
  8
0
 10
5.68712
 20
464.647
 11
6.14484
 21
465.077
  0
LINE
  8
0
 10
6.14484
 20
465.077
 11
6.54507
 21
465.561
  0
LINE
  8
0
 10
6.54507
 20
465.561
 11
6.88153
 21
466.091
  0
LINE
  8
0
 10
6.88153
 20
466.091
 11
7.14888
 21
466.659
  0
LINE
  8
0
 10
7.14888
 20
466.659
 11
7.34291
 21
467.257
  0
LINE
  8
0
 10
7.34291
 20
467.257
 11
7.46057
 21
467.873
  0
LINE
  8
0
 10
7.46057
 20
467.873
 11
7.5
 21
468.5
  0
LINE
  8
0
 10
7.5
 20
468.5
 11
7.5
 21
503.5
  0
LINE
  8
0
 10
7.5
 20
503.5
 11
7.46057
 21
504.127
  0
LINE
  8
0
 10
7.46057
 20
504.127
 11
7.34291
 21
504.743
  0
LINE
  8
0
 10
7.34291
 20
504.743
 11
7.14888
 21
505.341
  0
LINE
  8
0
 10
7.14888
 20
505.341
 11
6.88153
 21
505.909
  0
LINE
  8
0
 10
6.88153
 20
505.909
 11
6.54507
 21
506.439
  0
LINE
  8
0
 10
6.54507
 20
506.439
 11
6.14484
 21
506.923
  0
LINE
  8
0
 10
6.14484
 20
506.923
 11
5.68712
 21
507.353
  0
LINE
  8
0
 10
5.68712
 20
507.353
 11
5.17912
 21
507.722
  0
LINE
  8
0
 10
5.17912
 20
507.722
 11
4.62889
 21
508.024
  0
LINE
  8
0
 10
4.62889
 20
508.024
 11
4.04507
 21
508.255
  0
LINE
  8
0
 10
4.04507
 20
508.255
 11
3.4369
 21
508.411
  0
LINE
  8
0
 10
3.4369
 20
508.411
 11
2.81395
 21
508.49
  0
LINE
  8
0
 10
2.81395
 20
508.49
 11
-2.81395
 21
508.49
  0
LINE
  8
0
 10
-2.81395
 20
508.49
 11
-3.4369
 21
508.411
  0
LINE
  8
0
 10
-3.4369
 20
508.411
 11
-4.04507
 21
508.255
  0
LINE
  8
0
 10
-4.04507
 20
508.255
 11
-4.62889
 21
508.024
  0
LINE
  8
0
 10
-4.62889
 20
508.024
 11
-5.17912
 21
507.722
  0
LINE
  8
0
 10
-5.17912
 20
507.722
 11
-5.68712
 21
507.353
  0
LINE
  8
0
 10
-5.68712
 20
507.353
 11
-6.14484
 21
506.923
  0
LINE
  8
0
 10
-6.14484
 20
506.923
 11
-6.54507
 21
506.439
  0
LINE
  8
0
 10
-6.54507
 20
506.439
 11
-6.88153
 21
505.909
  0
LINE
  8
0
 10
-6.88153
 20
505.909
 11
-7.14888
 21
505.341
  0
LINE
  8
0
 10
-7.14888
 20
505.341
 11
-7.34291
 21
504.743
  0
LINE
  8
0
 10
-7.34291
 20
504.743
 11
-7.46057
 21
504.127
  0
LINE
  8
0
 10
-7.46057
 20
504.127
 11
-7.5
 21
503.5
  0
LINE
  8
0
 10
-7.5
 20
503.5
 11
-7.5
 21
468.5
  0
LINE
  8
0
 10
-7.5
 20
468.5
 11
-7.46057
 21
467.873
  0
LINE
  8
0
 10
-7.46057
 20
467.873
 11
-7.34291
 21
467.257
  0
LINE
  8
0
 10
-7.34291
 20
467.257
 11
-7.14888
 21
466.659
  0
LINE
  8
0
 10
-7.14888
 20
466.659
 11
-6.88153
 21
466.091
  0
LINE
  8
0
 10
-6.88153
 20
466.091
 11
-6.54507
 21
465.561
  0
LINE
  8
0
 10
-6.54507
 20
465.561
 11
-6.14484
 21
465.077
  0
LINE
  8
0
 10
-6.14484
 20
465.077
 11
-5.68712
 21
464.647
  0
LINE
  8
0
 10
-5.68712
 20
464.647
 11
-5.17912
 21
464.278
  0
LINE
  8
0
 10
-5.17912
 20
464.278
 11
-4.62889
 21
463.976
  0
LINE
  8
0
 10
-4.62889
 20
463.976
 11
-4.04507
 21
463.745
  0
LINE
  8
0
 10
-4.04507
 20
463.745
 11
-3.4369
 21
463.589
  0
LINE
  8
0
 10
-3.4369
 20
463.589
 11
-2.81395
 21
463.51
  0
LINE
  8
0
 10
-2.81395
 20
463.51
 11
2.81395
 21
463.51
  0
LINE
  8
0
 10
2.81395
 20
463.51
 11
3.4369
 21
463.589
  0
LINE
  8
0
 10
2.68895
 20
464.009
 11
3.17912
 21
464.278
  0
LINE
  8
0
 10
3.17912
 20
464.278
 11
3.68712
 21
464.647
  0
LINE
  8
0
 10
3.68712
 20
464.647
 11
4.14484
 21
465.077
  0
LINE
  8
0
 10
4.14484
 20
465.077
 11
4.54507
 21
465.561
  0
LINE
  8
0
 10
4.54507
 20
465.561
 11
4.88153
 21
466.091
  0
LINE
  8
0
 10
4.88153
 20
466.091
 11
5.14888
 21
466.659
  0
LINE
  8
0
 10
5.14888
 20
466.659
 11
5.34291
 21
467.257
  0
LINE
  8
0
 10
5.34291
 20
467.257
 11
5.46057
 21
467.873
  0
LINE
  8
0
 10
5.46057
 20
467.873
 11
5.5
 21
468.5
  0
LINE
  8
0
 10
5.5
 20
468.5
 11
5.5
 21
471.5
  0
LINE
  8
0
 10
5.5
 20
471.5
 11
5.46057
 21
472.127
  0
LINE
  8
0
 10
5.46057
 20
472.127
 11
5.34291
 21
472.743
  0
LINE
  8
0
 10
5.34291
 20
472.743
 11
5.14888
 21
473.341
  0
LINE
  8
0
 10
5.14888
 20
473.341
 11
4.88153
 21
473.909
  0
LINE
  8
0
 10
4.88153
 20
473.909
 11
4.54507
 21
474.439
  0
LINE
  8
0
 10
4.54507
 20
474.439
 11
4.14484
 21
474.923
  0
LINE
  8
0
 10
4.14484
 20
474.923
 11
3.68712
 21
475.353
  0
LINE
  8
0
 10
3.68712
 20
475.353
 11
3.17912
 21
475.722
  0
LINE
  8
0
 10
3.17912
 20
475.722
 11
2.62889
 21
476.024
  0
LINE
  8
0
 10
2.62889
 20
476.024
 11
2.04507
 21
476.255
  0
LINE
  8
0
 10
2.04507
 20
476.255
 11
1.4369
 21
476.411
  0
LINE
  8
0
 10
1.4369
 20
476.411
 11
0.81395
 21
476.49
  0
LINE
  8
0
 10
0.81395
 20
476.49
 11
-2.81395
 21
476.49
  0
LINE
  8
0
 10
-2.81395
 20
476.49
 11
-3.4369
 21
476.411
  0
LINE
  8
0
 10
-3.4369
 20
476.411
 11
-4.04507
 21
476.255
  0
LINE
  8
0
 10
-4.04507
 20
476.255
 11
-4.62889
 21
476.024
  0
LINE
  8
0
 10
-4.62889
 20
476.024
 11
-5.17912
 21
475.722
  0
LINE
  8
0
 10
-5.17912
 20
475.722
 11
-5.68712
 21
475.353
  0
LINE
  8
0
 10
-5.68712
 20
475.353
 11
-6.14484
 21
474.923
  0
LINE
  8
0
 10
-6.14484
 20
474.923
 11
-6.54507
 21
474.439
  0
LINE
  8
0
 10
-6.54507
 20
474.439
 11
-6.88153
 21
473.909
  0
LINE
  8
0
 10
-6.88153
 20
473.909
 11
-7
 21
473.657
  0
LINE
  8
0
 10
-7
 20
473.657
 11
-7
 21
496.343
  0
LINE
  8
0
 10
-7
 20
496.343
 11
-6.88153
 21
496.091
  0
LINE
  8
0
 10
-6.88153
 20
496.091
 11
-6.54507
 21
495.561
  0
LINE
  8
0
 10
-6.54507
 20
495.561
 11
-6.14484
 21
495.077
  0
LINE
  8
0
 10
-6.14484
 20
495.077
 11
-5.68712
 21
494.647
  0
LINE
  8
0
 10
-5.68712
 20
494.647
 11
-5.17912
 21
494.278
  0
LINE
  8
0
 10
-5.17912
 20
494.278
 11
-4.62889
 21
493.976
  0
LINE
  8
0
 10
-4.62889
 20
493.976
 11
-4.04507
 21
493.745
  0
LINE
  8
0
 10
-4.04507
 20
493.745
 11
-3.4369
 21
493.589
  0
LINE
  8
0
 10
-3.4369
 20
493.589
 11
-2.81395
 21
493.51
  0
LINE
  8
0
 10
-2.81395
 20
493.51
 11
0.81395
 21
493.51
  0
LINE
  8
0
 10
0.81395
 20
493.51
 11
1.4369
 21
493.589
  0
LINE
  8
0
 10
1.4369
 20
493.589
 11
2.04507
 21
493.745
  0
LINE
  8
0
 10
2.04507
 20
493.745
 11
2.62889
 21
493.976
  0
LINE
  8
0
 10
2.62889
 20
493.976
 11
3.17912
 21
494.278
  0
LINE
  8
0
 10
3.17912
 20
494.278
 11
3.68712
 21
494.647
  0
LINE
  8
0
 10
3.68712
 20
494.647
 11
4.14484
 21
495.077
  0
LINE
  8
0
 10
4.14484
 20
495.077
 11
4.54507
 21
495.561
  0
LINE
  8
0
 10
4.54507
 20
495.561
 11
4.88153
 21
496.091
  0
LINE
  8
0
 10
4.88153
 20
496.091
 11
5.14888
 21
496.659
  0
LINE
  8
0
 10
5.14888
 20
496.659
 11
5.34291
 21
497.257
  0
LINE
  8
0
 10
5.34291
 20
497.257
 11
5.46057
 21
497.873
  0
LINE
  8
0
 10
5.46057
 20
497.873
 11
5.5
 21
498.5
  0
LINE
  8
0
 10
5.5
 20
498.5
 11
5.5
 21
501.5
  0
LINE
  8
0
 10
5.5
 20
501.5
 11
5.46057
 21
502.127
  0
LINE
  8
0
 10
5.46057
 20
502.127
 11
5.34291
 21
502.743
  0
LINE
  8
0
 10
5.34291
 20
502.743
 11
5.14888
 21
503.341
  0
LINE
  8
0
 10
5.14888
 20
503.341
 11
4.88153
 21
503.909
  0
LINE
  8
0
 10
4.88153
 20
503.909
 11
4.54507
 21
504.439
  0
LINE
  8
0
 10
4.54507
 20
504.439
 11
4.14484
 21
504.923
  0
LINE
  8
0
 10
4.14484
 20
504.923
 11
3.68712
 21
505.353
  0
LINE
  8
0
 10
3.68712
 20
505.353
 11
3.17912
 21
505.722
  0
LINE
  8
0
 10
3.17912
 20
505.722
 11
2.62889
 21
506.024
  0
LINE
  8
0
 10
2.62889
 20
506.024
 11
2.04507
 21
506.255
  0
LINE
  8
0
 10
2.04507
 20
506.255
 11
1.4369
 21
506.411
  0
LINE
  8
0
 10
1.4369
 20
506.411
 11
0.81395
 21
506.49
  0
LINE
  8
0
 10
0.81395
 20
506.49
 11
-2.81395
 21
506.49
  0
LINE
  8
0
 10
-2.81395
 20
506.49
 11
-3.4369
 21
506.411
  0
LINE
  8
0
 10
-3.4369
 20
506.411
 11
-4.04507
 21
506.255
  0
LINE
  8
0
 10
-4.04507
 20
506.255
 11
-4.62889
 21
506.024
  0
LINE
  8
0
 10
-4.62889
 20
506.024
 11
-5.17912
 21
505.722
  0
LINE
  8
0
 10
-5.17912
 20
505.722
 11
-5.68712
 21
505.353
  0
LINE
  8
0
 10
-5.68712
 20
505.353
 11
-6.14484
 21
504.923
  0
LINE
  8
0
 10
-6.14484
 20
504.923
 11
-6.54507
 21
504.439
  0
LINE
  8
0
 10
-6.54507
 20
504.439
 11
-6.88153
 21
503.909
  0
LINE
  8
0
 10
-6.88153
 20
503.909
 11
-6.98859
 21
503.681
  0
LINE
  8
0
 10
-6.98859
 20
503.681
 11
-6.96451
 21
504.064
  0
LINE
  8
0
 10
-6.96451
 20
504.064
 11
-6.85861
 21
504.619
  0
LINE
  8
0
 10
-6.85861
 20
504.619
 11
-6.68399
 21
505.157
  0
LINE
  8
0
 10
-6.68399
 20
505.157
 11
-6.44337
 21
505.668
  0
LINE
  8
0
 10
-6.44337
 20
505.668
 11
-6.14056
 21
506.145
  0
LINE
  8
0
 10
-6.14056
 20
506.145
 11
-5.78035
 21
506.58
  0
LINE
  8
0
 10
-5.78035
 20
506.58
 11
-5.36839
 21
506.967
  0
LINE
  8
0
 10
-5.36839
 20
506.967
 11
-4.91121
 21
507.299
  0
LINE
  8
0
 10
-4.91121
 20
507.299
 11
-4.416
 21
507.572
  0
LINE
  8
0
 10
-4.416
 20
507.572
 11
-3.89056
 21
507.78
  0
LINE
  8
0
 10
-3.89056
 20
507.78
 11
-3.3432
 21
507.92
  0
LINE
  8
0
 10
-3.3432
 20
507.92
 11
-2.78255
 21
507.991
  0
LINE
  8
0
 10
-2.78255
 20
507.991
 11
2.78255
 21
507.991
  0
LINE
  8
0
 10
2.78255
 20
507.991
 11
3.3432
 21
507.92
  0
LINE
  8
0
 10
3.3432
 20
507.92
 11
3.89056
 21
507.78
  0
LINE
  8
0
 10
3.89056
 20
507.78
 11
4.416
 21
507.572
  0
LINE
  8
0
 10
4.416
 20
507.572
 11
4.91121
 21
507.299
  0
LINE
  8
0
 10
4.91121
 20
507.299
 11
5.36839
 21
506.967
  0
LINE
  8
0
 10
5.36839
 20
506.967
 11
5.78035
 21
506.58
  0
LINE
  8
0
 10
5.78035
 20
506.58
 11
6.14056
 21
506.145
  0
LINE
  8
0
 10
6.14056
 20
506.145
 11
6.44337
 21
505.668
  0
LINE
  8
0
 10
6.44337
 20
505.668
 11
6.68399
 21
505.157
  0
LINE
  8
0
 10
6.68399
 20
505.157
 11
6.85861
 21
504.619
  0
LINE
  8
0
 10
6.85861
 20
504.619
 11
6.96451
 21
504.064
  0
LINE
  8
0
 10
6.96451
 20
504.064
 11
7
 21
503.5
  0
LINE
  8
0
 10
7
 20
503.5
 11
7
 21
468.5
  0
LINE
  8
0
 10
7
 20
468.5
 11
6.96451
 21
467.936
  0
LINE
  8
0
 10
6.96451
 20
467.936
 11
6.85861
 21
467.381
  0
LINE
  8
0
 10
6.85861
 20
467.381
 11
6.68399
 21
466.843
  0
LINE
  8
0
 10
6.68399
 20
466.843
 11
6.44337
 21
466.332
  0
LINE
  8
0
 10
6.44337
 20
466.332
 11
6.14056
 21
465.855
  0
LINE
  8
0
 10
6.14056
 20
465.855
 11
5.78035
 21
465.42
  0
LINE
  8
0
 10
5.78035
 20
465.42
 11
5.36839
 21
465.033
  0
LINE
  8
0
 10
5.36839
 20
465.033
 11
4.91121
 21
464.701
  0
LINE
  8
0
 10
4.91121
 20
464.701
 11
4.416
 21
464.428
  0
LINE
  8
0
 10
4.416
 20
464.428
 11
3.89056
 21
464.22
  0
LINE
  8
0
 10
3.89056
 20
464.22
 11
3.3432
 21
464.08
  0
LINE
  8
0
 10
3.3432
 20
464.08
 11
2.78255
 21
464.009
  0
LINE
  8
0
 10
2.78255
 20
464.009
 11
2.68895
 21
464.009
  0
LINE
  8
0
 10
-0.0941772
 20
499.503
 11
-0.281067
 21
499.527
  0
LINE
  8
0
 10
-0.281067
 20
499.527
 11
-0.463516
 21
499.573
  0
LINE
  8
0
 10
-0.463516
 20
499.573
 11
-0.638657
 21
499.643
  0
LINE
  8
0
 10
-0.638657
 20
499.643
 11
-0.803726
 21
499.734
  0
LINE
  8
0
 10
-0.803726
 20
499.734
 11
-0.956131
 21
499.844
  0
LINE
  8
0
 10
-0.956131
 20
499.844
 11
-1.09344
 21
499.973
  0
LINE
  8
0
 10
-1.09344
 20
499.973
 11
-1.21352
 21
500.118
  0
LINE
  8
0
 10
-1.21352
 20
500.118
 11
-1.31445
 21
500.277
  0
LINE
  8
0
 10
-1.31445
 20
500.277
 11
-1.39465
 21
500.448
  0
LINE
  8
0
 10
-1.39465
 20
500.448
 11
-1.45287
 21
500.627
  0
LINE
  8
0
 10
-1.45287
 20
500.627
 11
-1.48816
 21
500.812
  0
LINE
  8
0
 10
-1.48816
 20
500.812
 11
-1.5
 21
501
  0
LINE
  8
0
 10
-1.5
 20
501
 11
-1.48816
 21
501.188
  0
LINE
  8
0
 10
-1.48816
 20
501.188
 11
-1.45287
 21
501.373
  0
LINE
  8
0
 10
-1.45287
 20
501.373
 11
-1.39465
 21
501.552
  0
LINE
  8
0
 10
-1.39465
 20
501.552
 11
-1.31445
 21
501.723
  0
LINE
  8
0
 10
-1.31445
 20
501.723
 11
-1.21352
 21
501.882
  0
LINE
  8
0
 10
-1.21352
 20
501.882
 11
-1.09344
 21
502.027
  0
LINE
  8
0
 10
-1.09344
 20
502.027
 11
-0.956131
 21
502.156
  0
LINE
  8
0
 10
-0.956131
 20
502.156
 11
-0.803726
 21
502.266
  0
LINE
  8
0
 10
-0.803726
 20
502.266
 11
-0.638657
 21
502.357
  0
LINE
  8
0
 10
-0.638657
 20
502.357
 11
-0.463516
 21
502.427
  0
LINE
  8
0
 10
-0.463516
 20
502.427
 11
-0.281067
 21
502.473
  0
LINE
  8
0
 10
-0.281067
 20
502.473
 11
-0.0941772
 21
502.497
  0
LINE
  8
0
 10
-0.0941772
 20
502.497
 11
0.0941772
 21
502.497
  0
LINE
  8
0
 10
0.0941772
 20
502.497
 11
0.281067
 21
502.473
  0
LINE
  8
0
 10
0.281067
 20
502.473
 11
0.463516
 21
502.427
  0
LINE
  8
0
 10
0.463516
 20
502.427
 11
0.638657
 21
502.357
  0
LINE
  8
0
 10
0.638657
 20
502.357
 11
0.803726
 21
502.266
  0
LINE
  8
0
 10
0.803726
 20
502.266
 11
0.956131
 21
502.156
  0
LINE
  8
0
 10
0.956131
 20
502.156
 11
1.09344
 21
502.027
  0
LINE
  8
0
 10
1.09344
 20
502.027
 11
1.21352
 21
501.882
  0
LINE
  8
0
 10
1.21352
 20
501.882
 11
1.31445
 21
501.723
  0
LINE
  8
0
 10
1.31445
 20
501.723
 11
1.39465
 21
501.552
  0
LINE
  8
0
 10
1.39465
 20
501.552
 11
1.45287
 21
501.373
  0
LINE
  8
0
 10
1.45287
 20
501.373
 11
1.48816
 21
501.188
  0
LINE
  8
0
 10
1.48816
 20
501.188
 11
1.5
 21
501
  0
LINE
  8
0
 10
1.5
 20
501
 11
1.48816
 21
500.812
  0
LINE
  8
0
 10
1.48816
 20
500.812
 11
1.45287
 21
500.627
  0
LINE
  8
0
 10
1.45287
 20
500.627
 11
1.39465
 21
500.448
  0
LINE
  8
0
 10
1.39465
 20
500.448
 11
1.31445
 21
500.277
  0
LINE
  8
0
 10
1.31445
 20
500.277
 11
1.21352
 21
500.118
  0
LINE
  8
0
 10
1.21352
 20
500.118
 11
1.09344
 21
499.973
  0
LINE
  8
0
 10
1.09344
 20
499.973
 11
0.956131
 21
499.844
  0
LINE
  8
0
 10
0.956131
 20
499.844
 11
0.803726
 21
499.734
  0
LINE
  8
0
 10
0.803726
 20
499.734
 11
0.638657
 21
499.643
  0
LINE
  8
0
 10
0.638657
 20
499.643
 11
0.463516
 21
499.573
  0
LINE
  8
0
 10
0.463516
 20
499.573
 11
0.281067
 21
499.527
  0
LINE
  8
0
 10
0.281067
 20
499.527
 11
0.0941772
 21
499.503
  0
LINE
  8
0
 10
0.0941772
 20
499.503
 11
-0.0941772
 21
499.503
  0
LINE
  8
0
 10
-0.0941772
 20
469.503
 11
-0.281067
 21
469.527
  0
LINE
  8
0
 10
-0.281067
 20
469.527
 11
-0.463516
 21
469.573
  0
LINE
  8
0
 10
-0.463516
 20
469.573
 11
-0.638657
 21
469.643
  0
LINE
  8
0
 10
-0.638657
 20
469.643
 11
-0.803726
 21
469.734
  0
LINE
  8
0
 10
-0.803726
 20
469.734
 11
-0.956131
 21
469.844
  0
LINE
  8
0
 10
-0.956131
 20
469.844
 11
-1.09344
 21
469.973
  0
LINE
  8
0
 10
-1.09344
 20
469.973
 11
-1.21352
 21
470.118
  0
LINE
  8
0
 10
-1.21352
 20
470.118
 11
-1.31445
 21
470.277
  0
LINE
  8
0
 10
-1.31445
 20
470.277
 11
-1.39465
 21
470.448
  0
LINE
  8
0
 10
-1.39465
 20
470.448
 11
-1.45287
 21
470.627
  0
LINE
  8
0
 10
-1.45287
 20
470.627
 11
-1.48816
 21
470.812
  0
LINE
  8
0
 10
-1.48816
 20
470.812
 11
-1.5
 21
471
  0
LINE
  8
0
 10
-1.5
 20
471
 11
-1.48816
 21
471.188
  0
LINE
  8
0
 10
-1.48816
 20
471.188
 11
-1.45287
 21
471.373
  0
LINE
  8
0
 10
-1.45287
 20
471.373
 11
-1.39465
 21
471.552
  0
LINE
  8
0
 10
-1.39465
 20
471.552
 11
-1.31445
 21
471.723
  0
LINE
  8
0
 10
-1.31445
 20
471.723
 11
-1.21352
 21
471.882
  0
LINE
  8
0
 10
-1.21352
 20
471.882
 11
-1.09344
 21
472.027
  0
LINE
  8
0
 10
-1.09344
 20
472.027
 11
-0.956131
 21
472.156
  0
LINE
  8
0
 10
-0.956131
 20
472.156
 11
-0.803726
 21
472.266
  0
LINE
  8
0
 10
-0.803726
 20
472.266
 11
-0.638657
 21
472.357
  0
LINE
  8
0
 10
-0.638657
 20
472.357
 11
-0.463516
 21
472.427
  0
LINE
  8
0
 10
-0.463516
 20
472.427
 11
-0.281067
 21
472.473
  0
LINE
  8
0
 10
-0.281067
 20
472.473
 11
-0.0941772
 21
472.497
  0
LINE
  8
0
 10
-0.0941772
 20
472.497
 11
0.0941772
 21
472.497
  0
LINE
  8
0
 10
0.0941772
 20
472.497
 11
0.281067
 21
472.473
  0
LINE
  8
0
 10
0.281067
 20
472.473
 11
0.463516
 21
472.427
  0
LINE
  8
0
 10
0.463516
 20
472.427
 11
0.638657
 21
472.357
  0
LINE
  8
0
 10
0.638657
 20
472.357
 11
0.803726
 21
472.266
  0
LINE
  8
0
 10
0.803726
 20
472.266
 11
0.956131
 21
472.156
  0
LINE
  8
0
 10
0.956131
 20
472.156
 11
1.09344
 21
472.027
  0
LINE
  8
0
 10
1.09344
 20
472.027
 11
1.21352
 21
471.882
  0
LINE
  8
0
 10
1.21352
 20
471.882
 11
1.31445
 21
471.723
  0
LINE
  8
0
 10
1.31445
 20
471.723
 11
1.39465
 21
471.552
  0
LINE
  8
0
 10
1.39465
 20
471.552
 11
1.45287
 21
471.373
  0
LINE
  8
0
 10
1.45287
 20
471.373
 11
1.48816
 21
471.188
  0
LINE
  8
0
 10
1.48816
 20
471.188
 11
1.5
 21
471
  0
LINE
  8
0
 10
1.5
 20
471
 11
1.48816
 21
470.812
  0
LINE
  8
0
 10
1.48816
 20
470.812
 11
1.45287
 21
470.627
  0
LINE
  8
0
 10
1.45287
 20
470.627
 11
1.39465
 21
470.448
  0
LINE
  8
0
 10
1.39465
 20
470.448
 11
1.31445
 21
470.277
  0
LINE
  8
0
 10
1.31445
 20
470.277
 11
1.21352
 21
470.118
  0
LINE
  8
0
 10
1.21352
 20
470.118
 11
1.09344
 21
469.973
  0
LINE
  8
0
 10
1.09344
 20
469.973
 11
0.956131
 21
469.844
  0
LINE
  8
0
 10
0.956131
 20
469.844
 11
0.803726
 21
469.734
  0
LINE
  8
0
 10
0.803726
 20
469.734
 11
0.638657
 21
469.643
  0
LINE
  8
0
 10
0.638657
 20
469.643
 11
0.463516
 21
469.573
  0
LINE
  8
0
 10
0.463516
 20
469.573
 11
0.281067
 21
469.527
  0
LINE
  8
0
 10
0.281067
 20
469.527
 11
0.0941772
 21
469.503
  0
LINE
  8
0
 10
0.0941772
 20
469.503
 11
-0.0941772
 21
469.503
  0
LINE
  8
0
 10
3.4369
 20
409.589
 11
4.04507
 21
409.745
  0
LINE
  8
0
 10
4.04507
 20
409.745
 11
4.62889
 21
409.976
  0
LINE
  8
0
 10
4.62889
 20
409.976
 11
5.17912
 21
410.278
  0
LINE
  8
0
 10
5.17912
 20
410.278
 11
5.68712
 21
410.647
  0
LINE
  8
0
 10
5.68712
 20
410.647
 11
6.14484
 21
411.077
  0
LINE
  8
0
 10
6.14484
 20
411.077
 11
6.54507
 21
411.561
  0
LINE
  8
0
 10
6.54507
 20
411.561
 11
6.88153
 21
412.091
  0
LINE
  8
0
 10
6.88153
 20
412.091
 11
7.14888
 21
412.659
  0
LINE
  8
0
 10
7.14888
 20
412.659
 11
7.34291
 21
413.257
  0
LINE
  8
0
 10
7.34291
 20
413.257
 11
7.46057
 21
413.873
  0
LINE
  8
0
 10
7.46057
 20
413.873
 11
7.5
 21
414.5
  0
LINE
  8
0
 10
7.5
 20
414.5
 11
7.5
 21
449.5
  0
LINE
  8
0
 10
7.5
 20
449.5
 11
7.46057
 21
450.127
  0
LINE
  8
0
 10
7.46057
 20
450.127
 11
7.34291
 21
450.743
  0
LINE
  8
0
 10
7.34291
 20
450.743
 11
7.14888
 21
451.341
  0
LINE
  8
0
 10
7.14888
 20
451.341
 11
6.88153
 21
451.909
  0
LINE
  8
0
 10
6.88153
 20
451.909
 11
6.54507
 21
452.439
  0
LINE
  8
0
 10
6.54507
 20
452.439
 11
6.14484
 21
452.923
  0
LINE
  8
0
 10
6.14484
 20
452.923
 11
5.68712
 21
453.353
  0
LINE
  8
0
 10
5.68712
 20
453.353
 11
5.17912
 21
453.722
  0
LINE
  8
0
 10
5.17912
 20
453.722
 11
4.62889
 21
454.024
  0
LINE
  8
0
 10
4.62889
 20
454.024
 11
4.04507
 21
454.255
  0
LINE
  8
0
 10
4.04507
 20
454.255
 11
3.4369
 21
454.411
  0
LINE
  8
0
 10
3.4369
 20
454.411
 11
2.81395
 21
454.49
  0
LINE
  8
0
 10
2.81395
 20
454.49
 11
-2.81395
 21
454.49
  0
LINE
  8
0
 10
-2.81395
 20
454.49
 11
-3.4369
 21
454.411
  0
LINE
  8
0
 10
-3.4369
 20
454.411
 11
-4.04507
 21
454.255
  0
LINE
  8
0
 10
-4.04507
 20
454.255
 11
-4.62889
 21
454.024
  0
LINE
  8
0
 10
-4.62889
 20
454.024
 11
-5.17912
 21
453.722
  0
LINE
  8
0
 10
-5.17912
 20
453.722
 11
-5.68712
 21
453.353
  0
LINE
  8
0
 10
-5.68712
 20
453.353
 11
-6.14484
 21
452.923
  0
LINE
  8
0
 10
-6.14484
 20
452.923
 11
-6.54507
 21
452.439
  0
LINE
  8
0
 10
-6.54507
 20
452.439
 11
-6.88153
 21
451.909
  0
LINE
  8
0
 10
-6.88153
 20
451.909
 11
-7.14888
 21
451.341
  0
LINE
  8
0
 10
-7.14888
 20
451.341
 11
-7.34291
 21
450.743
  0
LINE
  8
0
 10
-7.34291
 20
450.743
 11
-7.46057
 21
450.127
  0
LINE
  8
0
 10
-7.46057
 20
450.127
 11
-7.5
 21
449.5
  0
LINE
  8
0
 10
-7.5
 20
449.5
 11
-7.5
 21
414.5
  0
LINE
  8
0
 10
-7.5
 20
414.5
 11
-7.46057
 21
413.873
  0
LINE
  8
0
 10
-7.46057
 20
413.873
 11
-7.34291
 21
413.257
  0
LINE
  8
0
 10
-7.34291
 20
413.257
 11
-7.14888
 21
412.659
  0
LINE
  8
0
 10
-7.14888
 20
412.659
 11
-6.88153
 21
412.091
  0
LINE
  8
0
 10
-6.88153
 20
412.091
 11
-6.54507
 21
411.561
  0
LINE
  8
0
 10
-6.54507
 20
411.561
 11
-6.14484
 21
411.077
  0
LINE
  8
0
 10
-6.14484
 20
411.077
 11
-5.68712
 21
410.647
  0
LINE
  8
0
 10
-5.68712
 20
410.647
 11
-5.17912
 21
410.278
  0
LINE
  8
0
 10
-5.17912
 20
410.278
 11
-4.62889
 21
409.976
  0
LINE
  8
0
 10
-4.62889
 20
409.976
 11
-4.04507
 21
409.745
  0
LINE
  8
0
 10
-4.04507
 20
409.745
 11
-3.4369
 21
409.589
  0
LINE
  8
0
 10
-3.4369
 20
409.589
 11
-2.81395
 21
409.51
  0
LINE
  8
0
 10
-2.81395
 20
409.51
 11
2.81395
 21
409.51
  0
LINE
  8
0
 10
2.81395
 20
409.51
 11
3.4369
 21
409.589
  0
LINE
  8
0
 10
2.68895
 20
410.009
 11
3.17912
 21
410.278
  0
LINE
  8
0
 10
3.17912
 20
410.278
 11
3.68712
 21
410.647
  0
LINE
  8
0
 10
3.68712
 20
410.647
 11
4.14484
 21
411.077
  0
LINE
  8
0
 10
4.14484
 20
411.077
 11
4.54507
 21
411.561
  0
LINE
  8
0
 10
4.54507
 20
411.561
 11
4.88153
 21
412.091
  0
LINE
  8
0
 10
4.88153
 20
412.091
 11
5.14888
 21
412.659
  0
LINE
  8
0
 10
5.14888
 20
412.659
 11
5.34291
 21
413.257
  0
LINE
  8
0
 10
5.34291
 20
413.257
 11
5.46057
 21
413.873
  0
LINE
  8
0
 10
5.46057
 20
413.873
 11
5.5
 21
414.5
  0
LINE
  8
0
 10
5.5
 20
414.5
 11
5.5
 21
417.5
  0
LINE
  8
0
 10
5.5
 20
417.5
 11
5.46057
 21
418.127
  0
LINE
  8
0
 10
5.46057
 20
418.127
 11
5.34291
 21
418.743
  0
LINE
  8
0
 10
5.34291
 20
418.743
 11
5.14888
 21
419.341
  0
LINE
  8
0
 10
5.14888
 20
419.341
 11
4.88153
 21
419.909
  0
LINE
  8
0
 10
4.88153
 20
419.909
 11
4.54507
 21
420.439
  0
LINE
  8
0
 10
4.54507
 20
420.439
 11
4.14484
 21
420.923
  0
LINE
  8
0
 10
4.14484
 20
420.923
 11
3.68712
 21
421.353
  0
LINE
  8
0
 10
3.68712
 20
421.353
 11
3.17912
 21
421.722
  0
LINE
  8
0
 10
3.17912
 20
421.722
 11
2.62889
 21
422.024
  0
LINE
  8
0
 10
2.62889
 20
422.024
 11
2.04507
 21
422.255
  0
LINE
  8
0
 10
2.04507
 20
422.255
 11
1.4369
 21
422.411
  0
LINE
  8
0
 10
1.4369
 20
422.411
 11
0.81395
 21
422.49
  0
LINE
  8
0
 10
0.81395
 20
422.49
 11
-2.81395
 21
422.49
  0
LINE
  8
0
 10
-2.81395
 20
422.49
 11
-3.4369
 21
422.411
  0
LINE
  8
0
 10
-3.4369
 20
422.411
 11
-4.04507
 21
422.255
  0
LINE
  8
0
 10
-4.04507
 20
422.255
 11
-4.62889
 21
422.024
  0
LINE
  8
0
 10
-4.62889
 20
422.024
 11
-5.17912
 21
421.722
  0
LINE
  8
0
 10
-5.17912
 20
421.722
 11
-5.68712
 21
421.353
  0
LINE
  8
0
 10
-5.68712
 20
421.353
 11
-6.14484
 21
420.923
  0
LINE
  8
0
 10
-6.14484
 20
420.923
 11
-6.54507
 21
420.439
  0
LINE
  8
0
 10
-6.54507
 20
420.439
 11
-6.88153
 21
419.909
  0
LINE
  8
0
 10
-6.88153
 20
419.909
 11
-7
 21
419.657
  0
LINE
  8
0
 10
-7
 20
419.657
 11
-7
 21
442.343
  0
LINE
  8
0
 10
-7
 20
442.343
 11
-6.88153
 21
442.091
  0
LINE
  8
0
 10
-6.88153
 20
442.091
 11
-6.54507
 21
441.561
  0
LINE
  8
0
 10
-6.54507
 20
441.561
 11
-6.14484
 21
441.077
  0
LINE
  8
0
 10
-6.14484
 20
441.077
 11
-5.68712
 21
440.647
  0
LINE
  8
0
 10
-5.68712
 20
440.647
 11
-5.17912
 21
440.278
  0
LINE
  8
0
 10
-5.17912
 20
440.278
 11
-4.62889
 21
439.976
  0
LINE
  8
0
 10
-4.62889
 20
439.976
 11
-4.04507
 21
439.745
  0
LINE
  8
0
 10
-4.04507
 20
439.745
 11
-3.4369
 21
439.589
  0
LINE
  8
0
 10
-3.4369
 20
439.589
 11
-2.81395
 21
439.51
  0
LINE
  8
0
 10
-2.81395
 20
439.51
 11
0.81395
 21
439.51
  0
LINE
  8
0
 10
0.81395
 20
439.51
 11
1.4369
 21
439.589
  0
LINE
  8
0
 10
1.4369
 20
439.589
 11
2.04507
 21
439.745
  0
LINE
  8
0
 10
2.04507
 20
439.745
 11
2.62889
 21
439.976
  0
LINE
  8
0
 10
2.62889
 20
439.976
 11
3.17912
 21
440.278
  0
LINE
  8
0
 10
3.17912
 20
440.278
 11
3.68712
 21
440.647
  0
LINE
  8
0
 10
3.68712
 20
440.647
 11
4.14484
 21
441.077
  0
LINE
  8
0
 10
4.14484
 20
441.077
 11
4.54507
 21
441.561
  0
LINE
  8
0
 10
4.54507
 20
441.561
 11
4.88153
 21
442.091
  0
LINE
  8
0
 10
4.88153
 20
442.091
 11
5.14888
 21
442.659
  0
LINE
  8
0
 10
5.14888
 20
442.659
 11
5.34291
 21
443.257
  0
LINE
  8
0
 10
5.34291
 20
443.257
 11
5.46057
 21
443.873
  0
LINE
  8
0
 10
5.46057
 20
443.873
 11
5.5
 21
444.5
  0
LINE
  8
0
 10
5.5
 20
444.5
 11
5.5
 21
447.5
  0
LINE
  8
0
 10
5.5
 20
447.5
 11
5.46057
 21
448.127
  0
LINE
  8
0
 10
5.46057
 20
448.127
 11
5.34291
 21
448.743
  0
LINE
  8
0
 10
5.34291
 20
448.743
 11
5.14888
 21
449.341
  0
LINE
  8
0
 10
5.14888
 20
449.341
 11
4.88153
 21
449.909
  0
LINE
  8
0
 10
4.88153
 20
449.909
 11
4.54507
 21
450.439
  0
LINE
  8
0
 10
4.54507
 20
450.439
 11
4.14484
 21
450.923
  0
LINE
  8
0
 10
4.14484
 20
450.923
 11
3.68712
 21
451.353
  0
LINE
  8
0
 10
3.68712
 20
451.353
 11
3.17912
 21
451.722
  0
LINE
  8
0
 10
3.17912
 20
451.722
 11
2.62889
 21
452.024
  0
LINE
  8
0
 10
2.62889
 20
452.024
 11
2.04507
 21
452.255
  0
LINE
  8
0
 10
2.04507
 20
452.255
 11
1.4369
 21
452.411
  0
LINE
  8
0
 10
1.4369
 20
452.411
 11
0.81395
 21
452.49
  0
LINE
  8
0
 10
0.81395
 20
452.49
 11
-2.81395
 21
452.49
  0
LINE
  8
0
 10
-2.81395
 20
452.49
 11
-3.4369
 21
452.411
  0
LINE
  8
0
 10
-3.4369
 20
452.411
 11
-4.04507
 21
452.255
  0
LINE
  8
0
 10
-4.04507
 20
452.255
 11
-4.62889
 21
452.024
  0
LINE
  8
0
 10
-4.62889
 20
452.024
 11
-5.17912
 21
451.722
  0
LINE
  8
0
 10
-5.17912
 20
451.722
 11
-5.68712
 21
451.353
  0
LINE
  8
0
 10
-5.68712
 20
451.353
 11
-6.14484
 21
450.923
  0
LINE
  8
0
 10
-6.14484
 20
450.923
 11
-6.54507
 21
450.439
  0
LINE
  8
0
 10
-6.54507
 20
450.439
 11
-6.88153
 21
449.909
  0
LINE
  8
0
 10
-6.88153
 20
449.909
 11
-6.98859
 21
449.681
  0
LINE
  8
0
 10
-6.98859
 20
449.681
 11
-6.96451
 21
450.064
  0
LINE
  8
0
 10
-6.96451
 20
450.064
 11
-6.85861
 21
450.619
  0
LINE
  8
0
 10
-6.85861
 20
450.619
 11
-6.68399
 21
451.157
  0
LINE
  8
0
 10
-6.68399
 20
451.157
 11
-6.44337
 21
451.668
  0
LINE
  8
0
 10
-6.44337
 20
451.668
 11
-6.14056
 21
452.145
  0
LINE
  8
0
 10
-6.14056
 20
452.145
 11
-5.78035
 21
452.58
  0
LINE
  8
0
 10
-5.78035
 20
452.58
 11
-5.36839
 21
452.967
  0
LINE
  8
0
 10
-5.36839
 20
452.967
 11
-4.91121
 21
453.299
  0
LINE
  8
0
 10
-4.91121
 20
453.299
 11
-4.416
 21
453.572
  0
LINE
  8
0
 10
-4.416
 20
453.572
 11
-3.89056
 21
453.78
  0
LINE
  8
0
 10
-3.89056
 20
453.78
 11
-3.3432
 21
453.92
  0
LINE
  8
0
 10
-3.3432
 20
453.92
 11
-2.78255
 21
453.991
  0
LINE
  8
0
 10
-2.78255
 20
453.991
 11
2.78255
 21
453.991
  0
LINE
  8
0
 10
2.78255
 20
453.991
 11
3.3432
 21
453.92
  0
LINE
  8
0
 10
3.3432
 20
453.92
 11
3.89056
 21
453.78
  0
LINE
  8
0
 10
3.89056
 20
453.78
 11
4.416
 21
453.572
  0
LINE
  8
0
 10
4.416
 20
453.572
 11
4.91121
 21
453.299
  0
LINE
  8
0
 10
4.91121
 20
453.299
 11
5.36839
 21
452.967
  0
LINE
  8
0
 10
5.36839
 20
452.967
 11
5.78035
 21
452.58
  0
LINE
  8
0
 10
5.78035
 20
452.58
 11
6.14056
 21
452.145
  0
LINE
  8
0
 10
6.14056
 20
452.145
 11
6.44337
 21
451.668
  0
LINE
  8
0
 10
6.44337
 20
451.668
 11
6.68399
 21
451.157
  0
LINE
  8
0
 10
6.68399
 20
451.157
 11
6.85861
 21
450.619
  0
LINE
  8
0
 10
6.85861
 20
450.619
 11
6.96451
 21
450.064
  0
LINE
  8
0
 10
6.96451
 20
450.064
 11
7
 21
449.5
  0
LINE
  8
0
 10
7
 20
449.5
 11
7
 21
414.5
  0
LINE
  8
0
 10
7
 20
414.5
 11
6.96451
 21
413.936
  0
LINE
  8
0
 10
6.96451
 20
413.936
 11
6.85861
 21
413.381
  0
LINE
  8
0
 10
6.85861
 20
413.381
 11
6.68399
 21
412.843
  0
LINE
  8
0
 10
6.68399
 20
412.843
 11
6.44337
 21
412.332
  0
LINE
  8
0
 10
6.44337
 20
412.332
 11
6.14056
 21
411.855
  0
LINE
  8
0
 10
6.14056
 20
411.855
 11
5.78035
 21
411.42
  0
LINE
  8
0
 10
5.78035
 20
411.42
 11
5.36839
 21
411.033
  0
LINE
  8
0
 10
5.36839
 20
411.033
 11
4.91121
 21
410.701
  0
LINE
  8
0
 10
4.91121
 20
410.701
 11
4.416
 21
410.428
  0
LINE
  8
0
 10
4.416
 20
410.428
 11
3.89056
 21
410.22
  0
LINE
  8
0
 10
3.89056
 20
410.22
 11
3.3432
 21
410.08
  0
LINE
  8
0
 10
3.3432
 20
410.08
 11
2.78255
 21
410.009
  0
LINE
  8
0
 10
2.78255
 20
410.009
 11
2.68895
 21
410.009
  0
LINE
  8
0
 10
-0.0941772
 20
445.503
 11
-0.281067
 21
445.527
  0
LINE
  8
0
 10
-0.281067
 20
445.527
 11
-0.463516
 21
445.573
  0
LINE
  8
0
 10
-0.463516
 20
445.573
 11
-0.638657
 21
445.643
  0
LINE
  8
0
 10
-0.638657
 20
445.643
 11
-0.803726
 21
445.734
  0
LINE
  8
0
 10
-0.803726
 20
445.734
 11
-0.956131
 21
445.844
  0
LINE
  8
0
 10
-0.956131
 20
445.844
 11
-1.09344
 21
445.973
  0
LINE
  8
0
 10
-1.09344
 20
445.973
 11
-1.21352
 21
446.118
  0
LINE
  8
0
 10
-1.21352
 20
446.118
 11
-1.31445
 21
446.277
  0
LINE
  8
0
 10
-1.31445
 20
446.277
 11
-1.39465
 21
446.448
  0
LINE
  8
0
 10
-1.39465
 20
446.448
 11
-1.45287
 21
446.627
  0
LINE
  8
0
 10
-1.45287
 20
446.627
 11
-1.48816
 21
446.812
  0
LINE
  8
0
 10
-1.48816
 20
446.812
 11
-1.5
 21
447
  0
LINE
  8
0
 10
-1.5
 20
447
 11
-1.48816
 21
447.188
  0
LINE
  8
0
 10
-1.48816
 20
447.188
 11
-1.45287
 21
447.373
  0
LINE
  8
0
 10
-1.45287
 20
447.373
 11
-1.39465
 21
447.552
  0
LINE
  8
0
 10
-1.39465
 20
447.552
 11
-1.31445
 21
447.723
  0
LINE
  8
0
 10
-1.31445
 20
447.723
 11
-1.21352
 21
447.882
  0
LINE
  8
0
 10
-1.21352
 20
447.882
 11
-1.09344
 21
448.027
  0
LINE
  8
0
 10
-1.09344
 20
448.027
 11
-0.956131
 21
448.156
  0
LINE
  8
0
 10
-0.956131
 20
448.156
 11
-0.803726
 21
448.266
  0
LINE
  8
0
 10
-0.803726
 20
448.266
 11
-0.638657
 21
448.357
  0
LINE
  8
0
 10
-0.638657
 20
448.357
 11
-0.463516
 21
448.427
  0
LINE
  8
0
 10
-0.463516
 20
448.427
 11
-0.281067
 21
448.473
  0
LINE
  8
0
 10
-0.281067
 20
448.473
 11
-0.0941772
 21
448.497
  0
LINE
  8
0
 10
-0.0941772
 20
448.497
 11
0.0941772
 21
448.497
  0
LINE
  8
0
 10
0.0941772
 20
448.497
 11
0.281067
 21
448.473
  0
LINE
  8
0
 10
0.281067
 20
448.473
 11
0.463516
 21
448.427
  0
LINE
  8
0
 10
0.463516
 20
448.427
 11
0.638657
 21
448.357
  0
LINE
  8
0
 10
0.638657
 20
448.357
 11
0.803726
 21
448.266
  0
LINE
  8
0
 10
0.803726
 20
448.266
 11
0.956131
 21
448.156
  0
LINE
  8
0
 10
0.956131
 20
448.156
 11
1.09344
 21
448.027
  0
LINE
  8
0
 10
1.09344
 20
448.027
 11
1.21352
 21
447.882
  0
LINE
  8
0
 10
1.21352
 20
447.882
 11
1.31445
 21
447.723
  0
LINE
  8
0
 10
1.31445
 20
447.723
 11
1.39465
 21
447.552
  0
LINE
  8
0
 10
1.39465
 20
447.552
 11
1.45287
 21
447.373
  0
LINE
  8
0
 10
1.45287
 20
447.373
 11
1.48816
 21
447.188
  0
LINE
  8
0
 10
1.48816
 20
447.188
 11
1.5
 21
447
  0
LINE
  8
0
 10
1.5
 20
447
 11
1.48816
 21
446.812
  0
LINE
  8
0
 10
1.48816
 20
446.812
 11
1.45287
 21
446.627
  0
LINE
  8
0
 10
1.45287
 20
446.627
 11
1.39465
 21
446.448
  0
LINE
  8
0
 10
1.39465
 20
446.448
 11
1.31445
 21
446.277
  0
LINE
  8
0
 10
1.31445
 20
446.277
 11
1.21352
 21
446.118
  0
LINE
  8
0
 10
1.21352
 20
446.118
 11
1.09344
 21
445.973
  0
LINE
  8
0
 10
1.09344
 20
445.973
 11
0.956131
 21
445.844
  0
LINE
  8
0
 10
0.956131
 20
445.844
 11
0.803726
 21
445.734
  0
LINE
  8
0
 10
0.803726
 20
445.734
 11
0.638657
 21
445.643
  0
LINE
  8
0
 10
0.638657
 20
445.643
 11
0.463516
 21
445.573
  0
LINE
  8
0
 10
0.463516
 20
445.573
 11
0.281067
 21
445.527
  0
LINE
  8
0
 10
0.281067
 20
445.527
 11
0.0941772
 21
445.503
  0
LINE
  8
0
 10
0.0941772
 20
445.503
 11
-0.0941772
 21
445.503
  0
LINE
  8
0
 10
-0.0941772
 20
415.503
 11
-0.281067
 21
415.527
  0
LINE
  8
0
 10
-0.281067
 20
415.527
 11
-0.463516
 21
415.573
  0
LINE
  8
0
 10
-0.463516
 20
415.573
 11
-0.638657
 21
415.643
  0
LINE
  8
0
 10
-0.638657
 20
415.643
 11
-0.803726
 21
415.734
  0
LINE
  8
0
 10
-0.803726
 20
415.734
 11
-0.956131
 21
415.844
  0
LINE
  8
0
 10
-0.956131
 20
415.844
 11
-1.09344
 21
415.973
  0
LINE
  8
0
 10
-1.09344
 20
415.973
 11
-1.21352
 21
416.118
  0
LINE
  8
0
 10
-1.21352
 20
416.118
 11
-1.31445
 21
416.277
  0
LINE
  8
0
 10
-1.31445
 20
416.277
 11
-1.39465
 21
416.448
  0
LINE
  8
0
 10
-1.39465
 20
416.448
 11
-1.45287
 21
416.627
  0
LINE
  8
0
 10
-1.45287
 20
416.627
 11
-1.48816
 21
416.812
  0
LINE
  8
0
 10
-1.48816
 20
416.812
 11
-1.5
 21
417
  0
LINE
  8
0
 10
-1.5
 20
417
 11
-1.48816
 21
417.188
  0
LINE
  8
0
 10
-1.48816
 20
417.188
 11
-1.45287
 21
417.373
  0
LINE
  8
0
 10
-1.45287
 20
417.373
 11
-1.39465
 21
417.552
  0
LINE
  8
0
 10
-1.39465
 20
417.552
 11
-1.31445
 21
417.723
  0
LINE
  8
0
 10
-1.31445
 20
417.723
 11
-1.21352
 21
417.882
  0
LINE
  8
0
 10
-1.21352
 20
417.882
 11
-1.09344
 21
418.027
  0
LINE
  8
0
 10
-1.09344
 20
418.027
 11
-0.956131
 21
418.156
  0
LINE
  8
0
 10
-0.956131
 20
418.156
 11
-0.803726
 21
418.266
  0
LINE
  8
0
 10
-0.803726
 20
418.266
 11
-0.638657
 21
418.357
  0
LINE
  8
0
 10
-0.638657
 20
418.357
 11
-0.463516
 21
418.427
  0
LINE
  8
0
 10
-0.463516
 20
418.427
 11
-0.281067
 21
418.473
  0
LINE
  8
0
 10
-0.281067
 20
418.473
 11
-0.0941772
 21
418.497
  0
LINE
  8
0
 10
-0.0941772
 20
418.497
 11
0.0941772
 21
418.497
  0
LINE
  8
0
 10
0.0941772
 20
418.497
 11
0.281067
 21
418.473
  0
LINE
  8
0
 10
0.281067
 20
418.473
 11
0.463516
 21
418.427
  0
LINE
  8
0
 10
0.463516
 20
418.427
 11
0.638657
 21
418.357
  0
LINE
  8
0
 10
0.638657
 20
418.357
 11
0.803726
 21
418.266
  0
LINE
  8
0
 10
0.803726
 20
418.266
 11
0.956131
 21
418.156
  0
LINE
  8
0
 10
0.956131
 20
418.156
 11
1.09344
 21
418.027
  0
LINE
  8
0
 10
1.09344
 20
418.027
 11
1.21352
 21
417.882
  0
LINE
  8
0
 10
1.21352
 20
417.882
 11
1.31445
 21
417.723
  0
LINE
  8
0
 10
1.31445
 20
417.723
 11
1.39465
 21
417.552
  0
LINE
  8
0
 10
1.39465
 20
417.552
 11
1.45287
 21
417.373
  0
LINE
  8
0
 10
1.45287
 20
417.373
 11
1.48816
 21
417.188
  0
LINE
  8
0
 10
1.48816
 20
417.188
 11
1.5
 21
417
  0
LINE
  8
0
 10
1.5
 20
417
 11
1.48816
 21
416.812
  0
LINE
  8
0
 10
1.48816
 20
416.812
 11
1.45287
 21
416.627
  0
LINE
  8
0
 10
1.45287
 20
416.627
 11
1.39465
 21
416.448
  0
LINE
  8
0
 10
1.39465
 20
416.448
 11
1.31445
 21
416.277
  0
LINE
  8
0
 10
1.31445
 20
416.277
 11
1.21352
 21
416.118
  0
LINE
  8
0
 10
1.21352
 20
416.118
 11
1.09344
 21
415.973
  0
LINE
  8
0
 10
1.09344
 20
415.973
 11
0.956131
 21
415.844
  0
LINE
  8
0
 10
0.956131
 20
415.844
 11
0.803726
 21
415.734
  0
LINE
  8
0
 10
0.803726
 20
415.734
 11
0.638657
 21
415.643
  0
LINE
  8
0
 10
0.638657
 20
415.643
 11
0.463516
 21
415.573
  0
LINE
  8
0
 10
0.463516
 20
415.573
 11
0.281067
 21
415.527
  0
LINE
  8
0
 10
0.281067
 20
415.527
 11
0.0941772
 21
415.503
  0
LINE
  8
0
 10
0.0941772
 20
415.503
 11
-0.0941772
 21
415.503
  0
LINE
  8
0
 10
3.4369
 20
355.589
 11
4.04507
 21
355.745
  0
LINE
  8
0
 10
4.04507
 20
355.745
 11
4.62889
 21
355.976
  0
LINE
  8
0
 10
4.62889
 20
355.976
 11
5.17912
 21
356.278
  0
LINE
  8
0
 10
5.17912
 20
356.278
 11
5.68712
 21
356.647
  0
LINE
  8
0
 10
5.68712
 20
356.647
 11
6.14484
 21
357.077
  0
LINE
  8
0
 10
6.14484
 20
357.077
 11
6.54507
 21
357.561
  0
LINE
  8
0
 10
6.54507
 20
357.561
 11
6.88153
 21
358.091
  0
LINE
  8
0
 10
6.88153
 20
358.091
 11
7.14888
 21
358.659
  0
LINE
  8
0
 10
7.14888
 20
358.659
 11
7.34291
 21
359.257
  0
LINE
  8
0
 10
7.34291
 20
359.257
 11
7.46057
 21
359.873
  0
LINE
  8
0
 10
7.46057
 20
359.873
 11
7.5
 21
360.5
  0
LINE
  8
0
 10
7.5
 20
360.5
 11
7.5
 21
395.5
  0
LINE
  8
0
 10
7.5
 20
395.5
 11
7.46057
 21
396.127
  0
LINE
  8
0
 10
7.46057
 20
396.127
 11
7.34291
 21
396.743
  0
LINE
  8
0
 10
7.34291
 20
396.743
 11
7.14888
 21
397.341
  0
LINE
  8
0
 10
7.14888
 20
397.341
 11
6.88153
 21
397.909
  0
LINE
  8
0
 10
6.88153
 20
397.909
 11
6.54507
 21
398.439
  0
LINE
  8
0
 10
6.54507
 20
398.439
 11
6.14484
 21
398.923
  0
LINE
  8
0
 10
6.14484
 20
398.923
 11
5.68712
 21
399.353
  0
LINE
  8
0
 10
5.68712
 20
399.353
 11
5.17912
 21
399.722
  0
LINE
  8
0
 10
5.17912
 20
399.722
 11
4.62889
 21
400.024
  0
LINE
  8
0
 10
4.62889
 20
400.024
 11
4.04507
 21
400.255
  0
LINE
  8
0
 10
4.04507
 20
400.255
 11
3.4369
 21
400.411
  0
LINE
  8
0
 10
3.4369
 20
400.411
 11
2.81395
 21
400.49
  0
LINE
  8
0
 10
2.81395
 20
400.49
 11
-2.81395
 21
400.49
  0
LINE
  8
0
 10
-2.81395
 20
400.49
 11
-3.4369
 21
400.411
  0
LINE
  8
0
 10
-3.4369
 20
400.411
 11
-4.04507
 21
400.255
  0
LINE
  8
0
 10
-4.04507
 20
400.255
 11
-4.62889
 21
400.024
  0
LINE
  8
0
 10
-4.62889
 20
400.024
 11
-5.17912
 21
399.722
  0
LINE
  8
0
 10
-5.17912
 20
399.722
 11
-5.68712
 21
399.353
  0
LINE
  8
0
 10
-5.68712
 20
399.353
 11
-6.14484
 21
398.923
  0
LINE
  8
0
 10
-6.14484
 20
398.923
 11
-6.54507
 21
398.439
  0
LINE
  8
0
 10
-6.54507
 20
398.439
 11
-6.88153
 21
397.909
  0
LINE
  8
0
 10
-6.88153
 20
397.909
 11
-7.14888
 21
397.341
  0
LINE
  8
0
 10
-7.14888
 20
397.341
 11
-7.34291
 21
396.743
  0
LINE
  8
0
 10
-7.34291
 20
396.743
 11
-7.46057
 21
396.127
  0
LINE
  8
0
 10
-7.46057
 20
396.127
 11
-7.5
 21
395.5
  0
LINE
  8
0
 10
-7.5
 20
395.5
 11
-7.5
 21
360.5
  0
LINE
  8
0
 10
-7.5
 20
360.5
 11
-7.46057
 21
359.873
  0
LINE
  8
0
 10
-7.46057
 20
359.873
 11
-7.34291
 21
359.257
  0
LINE
  8
0
 10
-7.34291
 20
359.257
 11
-7.14888
 21
358.659
  0
LINE
  8
0
 10
-7.14888
 20
358.659
 11
-6.88153
 21
358.091
  0
LINE
  8
0
 10
-6.88153
 20
358.091
 11
-6.54507
 21
357.561
  0
LINE
  8
0
 10
-6.54507
 20
357.561
 11
-6.14484
 21
357.077
  0
LINE
  8
0
 10
-6.14484
 20
357.077
 11
-5.68712
 21
356.647
  0
LINE
  8
0
 10
-5.68712
 20
356.647
 11
-5.17912
 21
356.278
  0
LINE
  8
0
 10
-5.17912
 20
356.278
 11
-4.62889
 21
355.976
  0
LINE
  8
0
 10
-4.62889
 20
355.976
 11
-4.04507
 21
355.745
  0
LINE
  8
0
 10
-4.04507
 20
355.745
 11
-3.4369
 21
355.589
  0
LINE
  8
0
 10
-3.4369
 20
355.589
 11
-2.81395
 21
355.51
  0
LINE
  8
0
 10
-2.81395
 20
355.51
 11
2.81395
 21
355.51
  0
LINE
  8
0
 10
2.81395
 20
355.51
 11
3.4369
 21
355.589
  0
LINE
  8
0
 10
2.68895
 20
356.009
 11
3.17912
 21
356.278
  0
LINE
  8
0
 10
3.17912
 20
356.278
 11
3.68712
 21
356.647
  0
LINE
  8
0
 10
3.68712
 20
356.647
 11
4.14484
 21
357.077
  0
LINE
  8
0
 10
4.14484
 20
357.077
 11
4.54507
 21
357.561
  0
LINE
  8
0
 10
4.54507
 20
357.561
 11
4.88153
 21
358.091
  0
LINE
  8
0
 10
4.88153
 20
358.091
 11
5.14888
 21
358.659
  0
LINE
  8
0
 10
5.14888
 20
358.659
 11
5.34291
 21
359.257
  0
LINE
  8
0
 10
5.34291
 20
359.257
 11
5.46057
 21
359.873
  0
LINE
  8
0
 10
5.46057
 20
359.873
 11
5.5
 21
360.5
  0
LINE
  8
0
 10
5.5
 20
360.5
 11
5.5
 21
363.5
  0
LINE
  8
0
 10
5.5
 20
363.5
 11
5.46057
 21
364.127
  0
LINE
  8
0
 10
5.46057
 20
364.127
 11
5.34291
 21
364.743
  0
LINE
  8
0
 10
5.34291
 20
364.743
 11
5.14888
 21
365.341
  0
LINE
  8
0
 10
5.14888
 20
365.341
 11
4.88153
 21
365.909
  0
LINE
  8
0
 10
4.88153
 20
365.909
 11
4.54507
 21
366.439
  0
LINE
  8
0
 10
4.54507
 20
366.439
 11
4.14484
 21
366.923
  0
LINE
  8
0
 10
4.14484
 20
366.923
 11
3.68712
 21
367.353
  0
LINE
  8
0
 10
3.68712
 20
367.353
 11
3.17912
 21
367.722
  0
LINE
  8
0
 10
3.17912
 20
367.722
 11
2.62889
 21
368.024
  0
LINE
  8
0
 10
2.62889
 20
368.024
 11
2.04507
 21
368.255
  0
LINE
  8
0
 10
2.04507
 20
368.255
 11
1.4369
 21
368.411
  0
LINE
  8
0
 10
1.4369
 20
368.411
 11
0.81395
 21
368.49
  0
LINE
  8
0
 10
0.81395
 20
368.49
 11
-2.81395
 21
368.49
  0
LINE
  8
0
 10
-2.81395
 20
368.49
 11
-3.4369
 21
368.411
  0
LINE
  8
0
 10
-3.4369
 20
368.411
 11
-4.04507
 21
368.255
  0
LINE
  8
0
 10
-4.04507
 20
368.255
 11
-4.62889
 21
368.024
  0
LINE
  8
0
 10
-4.62889
 20
368.024
 11
-5.17912
 21
367.722
  0
LINE
  8
0
 10
-5.17912
 20
367.722
 11
-5.68712
 21
367.353
  0
LINE
  8
0
 10
-5.68712
 20
367.353
 11
-6.14484
 21
366.923
  0
LINE
  8
0
 10
-6.14484
 20
366.923
 11
-6.54507
 21
366.439
  0
LINE
  8
0
 10
-6.54507
 20
366.439
 11
-6.88153
 21
365.909
  0
LINE
  8
0
 10
-6.88153
 20
365.909
 11
-7
 21
365.657
  0
LINE
  8
0
 10
-7
 20
365.657
 11
-7
 21
388.343
  0
LINE
  8
0
 10
-7
 20
388.343
 11
-6.88153
 21
388.091
  0
LINE
  8
0
 10
-6.88153
 20
388.091
 11
-6.54507
 21
387.561
  0
LINE
  8
0
 10
-6.54507
 20
387.561
 11
-6.14484
 21
387.077
  0
LINE
  8
0
 10
-6.14484
 20
387.077
 11
-5.68712
 21
386.647
  0
LINE
  8
0
 10
-5.68712
 20
386.647
 11
-5.17912
 21
386.278
  0
LINE
  8
0
 10
-5.17912
 20
386.278
 11
-4.62889
 21
385.976
  0
LINE
  8
0
 10
-4.62889
 20
385.976
 11
-4.04507
 21
385.745
  0
LINE
  8
0
 10
-4.04507
 20
385.745
 11
-3.4369
 21
385.589
  0
LINE
  8
0
 10
-3.4369
 20
385.589
 11
-2.81395
 21
385.51
  0
LINE
  8
0
 10
-2.81395
 20
385.51
 11
0.81395
 21
385.51
  0
LINE
  8
0
 10
0.81395
 20
385.51
 11
1.4369
 21
385.589
  0
LINE
  8
0
 10
1.4369
 20
385.589
 11
2.04507
 21
385.745
  0
LINE
  8
0
 10
2.04507
 20
385.745
 11
2.62889
 21
385.976
  0
LINE
  8
0
 10
2.62889
 20
385.976
 11
3.17912
 21
386.278
  0
LINE
  8
0
 10
3.17912
 20
386.278
 11
3.68712
 21
386.647
  0
LINE
  8
0
 10
3.68712
 20
386.647
 11
4.14484
 21
387.077
  0
LINE
  8
0
 10
4.14484
 20
387.077
 11
4.54507
 21
387.561
  0
LINE
  8
0
 10
4.54507
 20
387.561
 11
4.88153
 21
388.091
  0
LINE
  8
0
 10
4.88153
 20
388.091
 11
5.14888
 21
388.659
  0
LINE
  8
0
 10
5.14888
 20
388.659
 11
5.34291
 21
389.257
  0
LINE
  8
0
 10
5.34291
 20
389.257
 11
5.46057
 21
389.873
  0
LINE
  8
0
 10
5.46057
 20
389.873
 11
5.5
 21
390.5
  0
LINE
  8
0
 10
5.5
 20
390.5
 11
5.5
 21
393.5
  0
LINE
  8
0
 10
5.5
 20
393.5
 11
5.46057
 21
394.127
  0
LINE
  8
0
 10
5.46057
 20
394.127
 11
5.34291
 21
394.743
  0
LINE
  8
0
 10
5.34291
 20
394.743
 11
5.14888
 21
395.341
  0
LINE
  8
0
 10
5.14888
 20
395.341
 11
4.88153
 21
395.909
  0
LINE
  8
0
 10
4.88153
 20
395.909
 11
4.54507
 21
396.439
  0
LINE
  8
0
 10
4.54507
 20
396.439
 11
4.14484
 21
396.923
  0
LINE
  8
0
 10
4.14484
 20
396.923
 11
3.68712
 21
397.353
  0
LINE
  8
0
 10
3.68712
 20
397.353
 11
3.17912
 21
397.722
  0
LINE
  8
0
 10
3.17912
 20
397.722
 11
2.62889
 21
398.024
  0
LINE
  8
0
 10
2.62889
 20
398.024
 11
2.04507
 21
398.255
  0
LINE
  8
0
 10
2.04507
 20
398.255
 11
1.4369
 21
398.411
  0
LINE
  8
0
 10
1.4369
 20
398.411
 11
0.81395
 21
398.49
  0
LINE
  8
0
 10
0.81395
 20
398.49
 11
-2.81395
 21
398.49
  0
LINE
  8
0
 10
-2.81395
 20
398.49
 11
-3.4369
 21
398.411
  0
LINE
  8
0
 10
-3.4369
 20
398.411
 11
-4.04507
 21
398.255
  0
LINE
  8
0
 10
-4.04507
 20
398.255
 11
-4.62889
 21
398.024
  0
LINE
  8
0
 10
-4.62889
 20
398.024
 11
-5.17912
 21
397.722
  0
LINE
  8
0
 10
-5.17912
 20
397.722
 11
-5.68712
 21
397.353
  0
LINE
  8
0
 10
-5.68712
 20
397.353
 11
-6.14484
 21
396.923
  0
LINE
  8
0
 10
-6.14484
 20
396.923
 11
-6.54507
 21
396.439
  0
LINE
  8
0
 10
-6.54507
 20
396.439
 11
-6.88153
 21
395.909
  0
LINE
  8
0
 10
-6.88153
 20
395.909
 11
-6.98859
 21
395.681
  0
LINE
  8
0
 10
-6.98859
 20
395.681
 11
-6.96451
 21
396.064
  0
LINE
  8
0
 10
-6.96451
 20
396.064
 11
-6.85861
 21
396.619
  0
LINE
  8
0
 10
-6.85861
 20
396.619
 11
-6.68399
 21
397.157
  0
LINE
  8
0
 10
-6.68399
 20
397.157
 11
-6.44337
 21
397.668
  0
LINE
  8
0
 10
-6.44337
 20
397.668
 11
-6.14056
 21
398.145
  0
LINE
  8
0
 10
-6.14056
 20
398.145
 11
-5.78035
 21
398.58
  0
LINE
  8
0
 10
-5.78035
 20
398.58
 11
-5.36839
 21
398.967
  0
LINE
  8
0
 10
-5.36839
 20
398.967
 11
-4.91121
 21
399.299
  0
LINE
  8
0
 10
-4.91121
 20
399.299
 11
-4.416
 21
399.572
  0
LINE
  8
0
 10
-4.416
 20
399.572
 11
-3.89056
 21
399.78
  0
LINE
  8
0
 10
-3.89056
 20
399.78
 11
-3.3432
 21
399.92
  0
LINE
  8
0
 10
-3.3432
 20
399.92
 11
-2.78255
 21
399.991
  0
LINE
  8
0
 10
-2.78255
 20
399.991
 11
2.78255
 21
399.991
  0
LINE
  8
0
 10
2.78255
 20
399.991
 11
3.3432
 21
399.92
  0
LINE
  8
0
 10
3.3432
 20
399.92
 11
3.89056
 21
399.78
  0
LINE
  8
0
 10
3.89056
 20
399.78
 11
4.416
 21
399.572
  0
LINE
  8
0
 10
4.416
 20
399.572
 11
4.91121
 21
399.299
  0
LINE
  8
0
 10
4.91121
 20
399.299
 11
5.36839
 21
398.967
  0
LINE
  8
0
 10
5.36839
 20
398.967
 11
5.78035
 21
398.58
  0
LINE
  8
0
 10
5.78035
 20
398.58
 11
6.14056
 21
398.145
  0
LINE
  8
0
 10
6.14056
 20
398.145
 11
6.44337
 21
397.668
  0
LINE
  8
0
 10
6.44337
 20
397.668
 11
6.68399
 21
397.157
  0
LINE
  8
0
 10
6.68399
 20
397.157
 11
6.85861
 21
396.619
  0
LINE
  8
0
 10
6.85861
 20
396.619
 11
6.96451
 21
396.064
  0
LINE
  8
0
 10
6.96451
 20
396.064
 11
7
 21
395.5
  0
LINE
  8
0
 10
7
 20
395.5
 11
7
 21
360.5
  0
LINE
  8
0
 10
7
 20
360.5
 11
6.96451
 21
359.936
  0
LINE
  8
0
 10
6.96451
 20
359.936
 11
6.85861
 21
359.381
  0
LINE
  8
0
 10
6.85861
 20
359.381
 11
6.68399
 21
358.843
  0
LINE
  8
0
 10
6.68399
 20
358.843
 11
6.44337
 21
358.332
  0
LINE
  8
0
 10
6.44337
 20
358.332
 11
6.14056
 21
357.855
  0
LINE
  8
0
 10
6.14056
 20
357.855
 11
5.78035
 21
357.42
  0
LINE
  8
0
 10
5.78035
 20
357.42
 11
5.36839
 21
357.033
  0
LINE
  8
0
 10
5.36839
 20
357.033
 11
4.91121
 21
356.701
  0
LINE
  8
0
 10
4.91121
 20
356.701
 11
4.416
 21
356.428
  0
LINE
  8
0
 10
4.416
 20
356.428
 11
3.89056
 21
356.22
  0
LINE
  8
0
 10
3.89056
 20
356.22
 11
3.3432
 21
356.08
  0
LINE
  8
0
 10
3.3432
 20
356.08
 11
2.78255
 21
356.009
  0
LINE
  8
0
 10
2.78255
 20
356.009
 11
2.68895
 21
356.009
  0
LINE
  8
0
 10
-0.0941772
 20
391.503
 11
-0.281067
 21
391.527
  0
LINE
  8
0
 10
-0.281067
 20
391.527
 11
-0.463516
 21
391.573
  0
LINE
  8
0
 10
-0.463516
 20
391.573
 11
-0.638657
 21
391.643
  0
LINE
  8
0
 10
-0.638657
 20
391.643
 11
-0.803726
 21
391.734
  0
LINE
  8
0
 10
-0.803726
 20
391.734
 11
-0.956131
 21
391.844
  0
LINE
  8
0
 10
-0.956131
 20
391.844
 11
-1.09344
 21
391.973
  0
LINE
  8
0
 10
-1.09344
 20
391.973
 11
-1.21352
 21
392.118
  0
LINE
  8
0
 10
-1.21352
 20
392.118
 11
-1.31445
 21
392.277
  0
LINE
  8
0
 10
-1.31445
 20
392.277
 11
-1.39465
 21
392.448
  0
LINE
  8
0
 10
-1.39465
 20
392.448
 11
-1.45287
 21
392.627
  0
LINE
  8
0
 10
-1.45287
 20
392.627
 11
-1.48816
 21
392.812
  0
LINE
  8
0
 10
-1.48816
 20
392.812
 11
-1.5
 21
393
  0
LINE
  8
0
 10
-1.5
 20
393
 11
-1.48816
 21
393.188
  0
LINE
  8
0
 10
-1.48816
 20
393.188
 11
-1.45287
 21
393.373
  0
LINE
  8
0
 10
-1.45287
 20
393.373
 11
-1.39465
 21
393.552
  0
LINE
  8
0
 10
-1.39465
 20
393.552
 11
-1.31445
 21
393.723
  0
LINE
  8
0
 10
-1.31445
 20
393.723
 11
-1.21352
 21
393.882
  0
LINE
  8
0
 10
-1.21352
 20
393.882
 11
-1.09344
 21
394.027
  0
LINE
  8
0
 10
-1.09344
 20
394.027
 11
-0.956131
 21
394.156
  0
LINE
  8
0
 10
-0.956131
 20
394.156
 11
-0.803726
 21
394.266
  0
LINE
  8
0
 10
-0.803726
 20
394.266
 11
-0.638657
 21
394.357
  0
LINE
  8
0
 10
-0.638657
 20
394.357
 11
-0.463516
 21
394.427
  0
LINE
  8
0
 10
-0.463516
 20
394.427
 11
-0.281067
 21
394.473
  0
LINE
  8
0
 10
-0.281067
 20
394.473
 11
-0.0941772
 21
394.497
  0
LINE
  8
0
 10
-0.0941772
 20
394.497
 11
0.0941772
 21
394.497
  0
LINE
  8
0
 10
0.0941772
 20
394.497
 11
0.281067
 21
394.473
  0
LINE
  8
0
 10
0.281067
 20
394.473
 11
0.463516
 21
394.427
  0
LINE
  8
0
 10
0.463516
 20
394.427
 11
0.638657
 21
394.357
  0
LINE
  8
0
 10
0.638657
 20
394.357
 11
0.803726
 21
394.266
  0
LINE
  8
0
 10
0.803726
 20
394.266
 11
0.956131
 21
394.156
  0
LINE
  8
0
 10
0.956131
 20
394.156
 11
1.09344
 21
394.027
  0
LINE
  8
0
 10
1.09344
 20
394.027
 11
1.21352
 21
393.882
  0
LINE
  8
0
 10
1.21352
 20
393.882
 11
1.31445
 21
393.723
  0
LINE
  8
0
 10
1.31445
 20
393.723
 11
1.39465
 21
393.552
  0
LINE
  8
0
 10
1.39465
 20
393.552
 11
1.45287
 21
393.373
  0
LINE
  8
0
 10
1.45287
 20
393.373
 11
1.48816
 21
393.188
  0
LINE
  8
0
 10
1.48816
 20
393.188
 11
1.5
 21
393
  0
LINE
  8
0
 10
1.5
 20
393
 11
1.48816
 21
392.812
  0
LINE
  8
0
 10
1.48816
 20
392.812
 11
1.45287
 21
392.627
  0
LINE
  8
0
 10
1.45287
 20
392.627
 11
1.39465
 21
392.448
  0
LINE
  8
0
 10
1.39465
 20
392.448
 11
1.31445
 21
392.277
  0
LINE
  8
0
 10
1.31445
 20
392.277
 11
1.21352
 21
392.118
  0
LINE
  8
0
 10
1.21352
 20
392.118
 11
1.09344
 21
391.973
  0
LINE
  8
0
 10
1.09344
 20
391.973
 11
0.956131
 21
391.844
  0
LINE
  8
0
 10
0.956131
 20
391.844
 11
0.803726
 21
391.734
  0
LINE
  8
0
 10
0.803726
 20
391.734
 11
0.638657
 21
391.643
  0
LINE
  8
0
 10
0.638657
 20
391.643
 11
0.463516
 21
391.573
  0
LINE
  8
0
 10
0.463516
 20
391.573
 11
0.281067
 21
391.527
  0
LINE
  8
0
 10
0.281067
 20
391.527
 11
0.0941772
 21
391.503
  0
LINE
  8
0
 10
0.0941772
 20
391.503
 11
-0.0941772
 21
391.503
  0
LINE
  8
0
 10
-0.0941772
 20
361.503
 11
-0.281067
 21
361.527
  0
LINE
  8
0
 10
-0.281067
 20
361.527
 11
-0.463516
 21
361.573
  0
LINE
  8
0
 10
-0.463516
 20
361.573
 11
-0.638657
 21
361.643
  0
LINE
  8
0
 10
-0.638657
 20
361.643
 11
-0.803726
 21
361.734
  0
LINE
  8
0
 10
-0.803726
 20
361.734
 11
-0.956131
 21
361.844
  0
LINE
  8
0
 10
-0.956131
 20
361.844
 11
-1.09344
 21
361.973
  0
LINE
  8
0
 10
-1.09344
 20
361.973
 11
-1.21352
 21
362.118
  0
LINE
  8
0
 10
-1.21352
 20
362.118
 11
-1.31445
 21
362.277
  0
LINE
  8
0
 10
-1.31445
 20
362.277
 11
-1.39465
 21
362.448
  0
LINE
  8
0
 10
-1.39465
 20
362.448
 11
-1.45287
 21
362.627
  0
LINE
  8
0
 10
-1.45287
 20
362.627
 11
-1.48816
 21
362.812
  0
LINE
  8
0
 10
-1.48816
 20
362.812
 11
-1.5
 21
363
  0
LINE
  8
0
 10
-1.5
 20
363
 11
-1.48816
 21
363.188
  0
LINE
  8
0
 10
-1.48816
 20
363.188
 11
-1.45287
 21
363.373
  0
LINE
  8
0
 10
-1.45287
 20
363.373
 11
-1.39465
 21
363.552
  0
LINE
  8
0
 10
-1.39465
 20
363.552
 11
-1.31445
 21
363.723
  0
LINE
  8
0
 10
-1.31445
 20
363.723
 11
-1.21352
 21
363.882
  0
LINE
  8
0
 10
-1.21352
 20
363.882
 11
-1.09344
 21
364.027
  0
LINE
  8
0
 10
-1.09344
 20
364.027
 11
-0.956131
 21
364.156
  0
LINE
  8
0
 10
-0.956131
 20
364.156
 11
-0.803726
 21
364.266
  0
LINE
  8
0
 10
-0.803726
 20
364.266
 11
-0.638657
 21
364.357
  0
LINE
  8
0
 10
-0.638657
 20
364.357
 11
-0.463516
 21
364.427
  0
LINE
  8
0
 10
-0.463516
 20
364.427
 11
-0.281067
 21
364.473
  0
LINE
  8
0
 10
-0.281067
 20
364.473
 11
-0.0941772
 21
364.497
  0
LINE
  8
0
 10
-0.0941772
 20
364.497
 11
0.0941772
 21
364.497
  0
LINE
  8
0
 10
0.0941772
 20
364.497
 11
0.281067
 21
364.473
  0
LINE
  8
0
 10
0.281067
 20
364.473
 11
0.463516
 21
364.427
  0
LINE
  8
0
 10
0.463516
 20
364.427
 11
0.638657
 21
364.357
  0
LINE
  8
0
 10
0.638657
 20
364.357
 11
0.803726
 21
364.266
  0
LINE
  8
0
 10
0.803726
 20
364.266
 11
0.956131
 21
364.156
  0
LINE
  8
0
 10
0.956131
 20
364.156
 11
1.09344
 21
364.027
  0
LINE
  8
0
 10
1.09344
 20
364.027
 11
1.21352
 21
363.882
  0
LINE
  8
0
 10
1.21352
 20
363.882
 11
1.31445
 21
363.723
  0
LINE
  8
0
 10
1.31445
 20
363.723
 11
1.39465
 21
363.552
  0
LINE
  8
0
 10
1.39465
 20
363.552
 11
1.45287
 21
363.373
  0
LINE
  8
0
 10
1.45287
 20
363.373
 11
1.48816
 21
363.188
  0
LINE
  8
0
 10
1.48816
 20
363.188
 11
1.5
 21
363
  0
LINE
  8
0
 10
1.5
 20
363
 11
1.48816
 21
362.812
  0
LINE
  8
0
 10
1.48816
 20
362.812
 11
1.45287
 21
362.627
  0
LINE
  8
0
 10
1.45287
 20
362.627
 11
1.39465
 21
362.448
  0
LINE
  8
0
 10
1.39465
 20
362.448
 11
1.31445
 21
362.277
  0
LINE
  8
0
 10
1.31445
 20
362.277
 11
1.21352
 21
362.118
  0
LINE
  8
0
 10
1.21352
 20
362.118
 11
1.09344
 21
361.973
  0
LINE
  8
0
 10
1.09344
 20
361.973
 11
0.956131
 21
361.844
  0
LINE
  8
0
 10
0.956131
 20
361.844
 11
0.803726
 21
361.734
  0
LINE
  8
0
 10
0.803726
 20
361.734
 11
0.638657
 21
361.643
  0
LINE
  8
0
 10
0.638657
 20
361.643
 11
0.463516
 21
361.573
  0
LINE
  8
0
 10
0.463516
 20
361.573
 11
0.281067
 21
361.527
  0
LINE
  8
0
 10
0.281067
 20
361.527
 11
0.0941772
 21
361.503
  0
LINE
  8
0
 10
0.0941772
 20
361.503
 11
-0.0941772
 21
361.503
  0
LINE
  8
0
 10
3.4369
 20
301.589
 11
4.04507
 21
301.745
  0
LINE
  8
0
 10
4.04507
 20
301.745
 11
4.62889
 21
301.976
  0
LINE
  8
0
 10
4.62889
 20
301.976
 11
5.17912
 21
302.278
  0
LINE
  8
0
 10
5.17912
 20
302.278
 11
5.68712
 21
302.647
  0
LINE
  8
0
 10
5.68712
 20
302.647
 11
6.14484
 21
303.077
  0
LINE
  8
0
 10
6.14484
 20
303.077
 11
6.54507
 21
303.561
  0
LINE
  8
0
 10
6.54507
 20
303.561
 11
6.88153
 21
304.091
  0
LINE
  8
0
 10
6.88153
 20
304.091
 11
7.14888
 21
304.659
  0
LINE
  8
0
 10
7.14888
 20
304.659
 11
7.34291
 21
305.257
  0
LINE
  8
0
 10
7.34291
 20
305.257
 11
7.46057
 21
305.873
  0
LINE
  8
0
 10
7.46057
 20
305.873
 11
7.5
 21
306.5
  0
LINE
  8
0
 10
7.5
 20
306.5
 11
7.5
 21
341.5
  0
LINE
  8
0
 10
7.5
 20
341.5
 11
7.46057
 21
342.127
  0
LINE
  8
0
 10
7.46057
 20
342.127
 11
7.34291
 21
342.743
  0
LINE
  8
0
 10
7.34291
 20
342.743
 11
7.14888
 21
343.341
  0
LINE
  8
0
 10
7.14888
 20
343.341
 11
6.88153
 21
343.909
  0
LINE
  8
0
 10
6.88153
 20
343.909
 11
6.54507
 21
344.439
  0
LINE
  8
0
 10
6.54507
 20
344.439
 11
6.14484
 21
344.923
  0
LINE
  8
0
 10
6.14484
 20
344.923
 11
5.68712
 21
345.353
  0
LINE
  8
0
 10
5.68712
 20
345.353
 11
5.17912
 21
345.722
  0
LINE
  8
0
 10
5.17912
 20
345.722
 11
4.62889
 21
346.024
  0
LINE
  8
0
 10
4.62889
 20
346.024
 11
4.04507
 21
346.255
  0
LINE
  8
0
 10
4.04507
 20
346.255
 11
3.4369
 21
346.411
  0
LINE
  8
0
 10
3.4369
 20
346.411
 11
2.81395
 21
346.49
  0
LINE
  8
0
 10
2.81395
 20
346.49
 11
-2.81395
 21
346.49
  0
LINE
  8
0
 10
-2.81395
 20
346.49
 11
-3.4369
 21
346.411
  0
LINE
  8
0
 10
-3.4369
 20
346.411
 11
-4.04507
 21
346.255
  0
LINE
  8
0
 10
-4.04507
 20
346.255
 11
-4.62889
 21
346.024
  0
LINE
  8
0
 10
-4.62889
 20
346.024
 11
-5.17912
 21
345.722
  0
LINE
  8
0
 10
-5.17912
 20
345.722
 11
-5.68712
 21
345.353
  0
LINE
  8
0
 10
-5.68712
 20
345.353
 11
-6.14484
 21
344.923
  0
LINE
  8
0
 10
-6.14484
 20
344.923
 11
-6.54507
 21
344.439
  0
LINE
  8
0
 10
-6.54507
 20
344.439
 11
-6.88153
 21
343.909
  0
LINE
  8
0
 10
-6.88153
 20
343.909
 11
-7.14888
 21
343.341
  0
LINE
  8
0
 10
-7.14888
 20
343.341
 11
-7.34291
 21
342.743
  0
LINE
  8
0
 10
-7.34291
 20
342.743
 11
-7.46057
 21
342.127
  0
LINE
  8
0
 10
-7.46057
 20
342.127
 11
-7.5
 21
341.5
  0
LINE
  8
0
 10
-7.5
 20
341.5
 11
-7.5
 21
306.5
  0
LINE
  8
0
 10
-7.5
 20
306.5
 11
-7.46057
 21
305.873
  0
LINE
  8
0
 10
-7.46057
 20
305.873
 11
-7.34291
 21
305.257
  0
LINE
  8
0
 10
-7.34291
 20
305.257
 11
-7.14888
 21
304.659
  0
LINE
  8
0
 10
-7.14888
 20
304.659
 11
-6.88153
 21
304.091
  0
LINE
  8
0
 10
-6.88153
 20
304.091
 11
-6.54507
 21
303.561
  0
LINE
  8
0
 10
-6.54507
 20
303.561
 11
-6.14484
 21
303.077
  0
LINE
  8
0
 10
-6.14484
 20
303.077
 11
-5.68712
 21
302.647
  0
LINE
  8
0
 10
-5.68712
 20
302.647
 11
-5.17912
 21
302.278
  0
LINE
  8
0
 10
-5.17912
 20
302.278
 11
-4.62889
 21
301.976
  0
LINE
  8
0
 10
-4.62889
 20
301.976
 11
-4.04507
 21
301.745
  0
LINE
  8
0
 10
-4.04507
 20
301.745
 11
-3.4369
 21
301.589
  0
LINE
  8
0
 10
-3.4369
 20
301.589
 11
-2.81395
 21
301.51
  0
LINE
  8
0
 10
-2.81395
 20
301.51
 11
2.81395
 21
301.51
  0
LINE
  8
0
 10
2.81395
 20
301.51
 11
3.4369
 21
301.589
  0
LINE
  8
0
 10
2.74606
 20
302.04
 11
3.17912
 21
302.278
  0
LINE
  8
0
 10
3.17912
 20
302.278
 11
3.68712
 21
302.647
  0
LINE
  8
0
 10
3.68712
 20
302.647
 11
4.14484
 21
303.077
  0
LINE
  8
0
 10
4.14484
 20
303.077
 11
4.54507
 21
303.561
  0
LINE
  8
0
 10
4.54507
 20
303.561
 11
4.88153
 21
304.091
  0
LINE
  8
0
 10
4.88153
 20
304.091
 11
5.14888
 21
304.659
  0
LINE
  8
0
 10
5.14888
 20
304.659
 11
5.34291
 21
305.257
  0
LINE
  8
0
 10
5.34291
 20
305.257
 11
5.46057
 21
305.873
  0
LINE
  8
0
 10
5.46057
 20
305.873
 11
5.5
 21
306.5
  0
LINE
  8
0
 10
5.5
 20
306.5
 11
5.5
 21
309.5
  0
LINE
  8
0
 10
5.5
 20
309.5
 11
5.46057
 21
310.127
  0
LINE
  8
0
 10
5.46057
 20
310.127
 11
5.34291
 21
310.743
  0
LINE
  8
0
 10
5.34291
 20
310.743
 11
5.14888
 21
311.341
  0
LINE
  8
0
 10
5.14888
 20
311.341
 11
4.88153
 21
311.909
  0
LINE
  8
0
 10
4.88153
 20
311.909
 11
4.54507
 21
312.439
  0
LINE
  8
0
 10
4.54507
 20
312.439
 11
4.14484
 21
312.923
  0
LINE
  8
0
 10
4.14484
 20
312.923
 11
3.68712
 21
313.353
  0
LINE
  8
0
 10
3.68712
 20
313.353
 11
3.17912
 21
313.722
  0
LINE
  8
0
 10
3.17912
 20
313.722
 11
2.62889
 21
314.024
  0
LINE
  8
0
 10
2.62889
 20
314.024
 11
2.04507
 21
314.255
  0
LINE
  8
0
 10
2.04507
 20
314.255
 11
1.4369
 21
314.411
  0
LINE
  8
0
 10
1.4369
 20
314.411
 11
0.81395
 21
314.49
  0
LINE
  8
0
 10
0.81395
 20
314.49
 11
-2.81395
 21
314.49
  0
LINE
  8
0
 10
-2.81395
 20
314.49
 11
-3.4369
 21
314.411
  0
LINE
  8
0
 10
-3.4369
 20
314.411
 11
-4.04507
 21
314.255
  0
LINE
  8
0
 10
-4.04507
 20
314.255
 11
-4.62889
 21
314.024
  0
LINE
  8
0
 10
-4.62889
 20
314.024
 11
-5.17912
 21
313.722
  0
LINE
  8
0
 10
-5.17912
 20
313.722
 11
-5.68712
 21
313.353
  0
LINE
  8
0
 10
-5.68712
 20
313.353
 11
-6.14484
 21
312.923
  0
LINE
  8
0
 10
-6.14484
 20
312.923
 11
-6.54507
 21
312.439
  0
LINE
  8
0
 10
-6.54507
 20
312.439
 11
-6.88153
 21
311.909
  0
LINE
  8
0
 10
-6.88153
 20
311.909
 11
-6.96854
 21
311.724
  0
LINE
  8
0
 10
-6.96854
 20
311.724
 11
-6.96854
 21
334.276
  0
LINE
  8
0
 10
-6.96854
 20
334.276
 11
-6.88153
 21
334.091
  0
LINE
  8
0
 10
-6.88153
 20
334.091
 11
-6.54507
 21
333.561
  0
LINE
  8
0
 10
-6.54507
 20
333.561
 11
-6.14484
 21
333.077
  0
LINE
  8
0
 10
-6.14484
 20
333.077
 11
-5.68712
 21
332.647
  0
LINE
  8
0
 10
-5.68712
 20
332.647
 11
-5.17912
 21
332.278
  0
LINE
  8
0
 10
-5.17912
 20
332.278
 11
-4.62889
 21
331.976
  0
LINE
  8
0
 10
-4.62889
 20
331.976
 11
-4.04507
 21
331.745
  0
LINE
  8
0
 10
-4.04507
 20
331.745
 11
-3.4369
 21
331.589
  0
LINE
  8
0
 10
-3.4369
 20
331.589
 11
-2.81395
 21
331.51
  0
LINE
  8
0
 10
-2.81395
 20
331.51
 11
0.81395
 21
331.51
  0
LINE
  8
0
 10
0.81395
 20
331.51
 11
1.4369
 21
331.589
  0
LINE
  8
0
 10
1.4369
 20
331.589
 11
2.04507
 21
331.745
  0
LINE
  8
0
 10
2.04507
 20
331.745
 11
2.62889
 21
331.976
  0
LINE
  8
0
 10
2.62889
 20
331.976
 11
3.17912
 21
332.278
  0
LINE
  8
0
 10
3.17912
 20
332.278
 11
3.68712
 21
332.647
  0
LINE
  8
0
 10
3.68712
 20
332.647
 11
4.14484
 21
333.077
  0
LINE
  8
0
 10
4.14484
 20
333.077
 11
4.54507
 21
333.561
  0
LINE
  8
0
 10
4.54507
 20
333.561
 11
4.88153
 21
334.091
  0
LINE
  8
0
 10
4.88153
 20
334.091
 11
5.14888
 21
334.659
  0
LINE
  8
0
 10
5.14888
 20
334.659
 11
5.34291
 21
335.257
  0
LINE
  8
0
 10
5.34291
 20
335.257
 11
5.46057
 21
335.873
  0
LINE
  8
0
 10
5.46057
 20
335.873
 11
5.5
 21
336.5
  0
LINE
  8
0
 10
5.5
 20
336.5
 11
5.5
 21
339.5
  0
LINE
  8
0
 10
5.5
 20
339.5
 11
5.46057
 21
340.127
  0
LINE
  8
0
 10
5.46057
 20
340.127
 11
5.34291
 21
340.743
  0
LINE
  8
0
 10
5.34291
 20
340.743
 11
5.14888
 21
341.341
  0
LINE
  8
0
 10
5.14888
 20
341.341
 11
4.88153
 21
341.909
  0
LINE
  8
0
 10
4.88153
 20
341.909
 11
4.54507
 21
342.439
  0
LINE
  8
0
 10
4.54507
 20
342.439
 11
4.14484
 21
342.923
  0
LINE
  8
0
 10
4.14484
 20
342.923
 11
3.68712
 21
343.353
  0
LINE
  8
0
 10
3.68712
 20
343.353
 11
3.17912
 21
343.722
  0
LINE
  8
0
 10
3.17912
 20
343.722
 11
2.62889
 21
344.024
  0
LINE
  8
0
 10
2.62889
 20
344.024
 11
2.04507
 21
344.255
  0
LINE
  8
0
 10
2.04507
 20
344.255
 11
1.4369
 21
344.411
  0
LINE
  8
0
 10
1.4369
 20
344.411
 11
0.81395
 21
344.49
  0
LINE
  8
0
 10
0.81395
 20
344.49
 11
-2.81395
 21
344.49
  0
LINE
  8
0
 10
-2.81395
 20
344.49
 11
-3.4369
 21
344.411
  0
LINE
  8
0
 10
-3.4369
 20
344.411
 11
-4.04507
 21
344.255
  0
LINE
  8
0
 10
-4.04507
 20
344.255
 11
-4.62889
 21
344.024
  0
LINE
  8
0
 10
-4.62889
 20
344.024
 11
-5.17912
 21
343.722
  0
LINE
  8
0
 10
-5.17912
 20
343.722
 11
-5.68712
 21
343.353
  0
LINE
  8
0
 10
-5.68712
 20
343.353
 11
-6.14484
 21
342.923
  0
LINE
  8
0
 10
-6.14484
 20
342.923
 11
-6.54507
 21
342.439
  0
LINE
  8
0
 10
-6.54507
 20
342.439
 11
-6.88153
 21
341.909
  0
LINE
  8
0
 10
-6.88153
 20
341.909
 11
-6.95227
 21
341.758
  0
LINE
  8
0
 10
-6.95227
 20
341.758
 11
-6.9333
 21
342.06
  0
LINE
  8
0
 10
-6.9333
 20
342.06
 11
-6.82814
 21
342.611
  0
LINE
  8
0
 10
-6.82814
 20
342.611
 11
-6.65474
 21
343.145
  0
LINE
  8
0
 10
-6.65474
 20
343.145
 11
-6.4158
 21
343.653
  0
LINE
  8
0
 10
-6.4158
 20
343.653
 11
-6.11511
 21
344.127
  0
LINE
  8
0
 10
-6.11511
 20
344.127
 11
-5.75742
 21
344.559
  0
LINE
  8
0
 10
-5.75742
 20
344.559
 11
-5.34834
 21
344.943
  0
LINE
  8
0
 10
-5.34834
 20
344.943
 11
-4.89436
 21
345.273
  0
LINE
  8
0
 10
-4.89436
 20
345.273
 11
-4.4026
 21
345.543
  0
LINE
  8
0
 10
-4.4026
 20
345.543
 11
-3.88084
 21
345.75
  0
LINE
  8
0
 10
-3.88084
 20
345.75
 11
-3.33731
 21
345.889
  0
LINE
  8
0
 10
-3.33731
 20
345.889
 11
-2.78058
 21
345.96
  0
LINE
  8
0
 10
-2.78058
 20
345.96
 11
2.78058
 21
345.96
  0
LINE
  8
0
 10
2.78058
 20
345.96
 11
3.33731
 21
345.889
  0
LINE
  8
0
 10
3.33731
 20
345.889
 11
3.88084
 21
345.75
  0
LINE
  8
0
 10
3.88084
 20
345.75
 11
4.4026
 21
345.543
  0
LINE
  8
0
 10
4.4026
 20
345.543
 11
4.89436
 21
345.273
  0
LINE
  8
0
 10
4.89436
 20
345.273
 11
5.34834
 21
344.943
  0
LINE
  8
0
 10
5.34834
 20
344.943
 11
5.75742
 21
344.559
  0
LINE
  8
0
 10
5.75742
 20
344.559
 11
6.11511
 21
344.127
  0
LINE
  8
0
 10
6.11511
 20
344.127
 11
6.4158
 21
343.653
  0
LINE
  8
0
 10
6.4158
 20
343.653
 11
6.65474
 21
343.145
  0
LINE
  8
0
 10
6.65474
 20
343.145
 11
6.82814
 21
342.611
  0
LINE
  8
0
 10
6.82814
 20
342.611
 11
6.9333
 21
342.06
  0
LINE
  8
0
 10
6.9333
 20
342.06
 11
6.96854
 21
341.5
  0
LINE
  8
0
 10
6.96854
 20
341.5
 11
6.96854
 21
306.5
  0
LINE
  8
0
 10
6.96854
 20
306.5
 11
6.9333
 21
305.94
  0
LINE
  8
0
 10
6.9333
 20
305.94
 11
6.82814
 21
305.389
  0
LINE
  8
0
 10
6.82814
 20
305.389
 11
6.65474
 21
304.855
  0
LINE
  8
0
 10
6.65474
 20
304.855
 11
6.4158
 21
304.347
  0
LINE
  8
0
 10
6.4158
 20
304.347
 11
6.11511
 21
303.873
  0
LINE
  8
0
 10
6.11511
 20
303.873
 11
5.75742
 21
303.441
  0
LINE
  8
0
 10
5.75742
 20
303.441
 11
5.34834
 21
303.057
  0
LINE
  8
0
 10
5.34834
 20
303.057
 11
4.89436
 21
302.727
  0
LINE
  8
0
 10
4.89436
 20
302.727
 11
4.4026
 21
302.457
  0
LINE
  8
0
 10
4.4026
 20
302.457
 11
3.88084
 21
302.25
  0
LINE
  8
0
 10
3.88084
 20
302.25
 11
3.33731
 21
302.111
  0
LINE
  8
0
 10
3.33731
 20
302.111
 11
2.78058
 21
302.04
  0
LINE
  8
0
 10
2.78058
 20
302.04
 11
2.74606
 21
302.04
  0
LINE
  8
0
 10
-0.0941772
 20
337.503
 11
-0.281067
 21
337.527
  0
LINE
  8
0
 10
-0.281067
 20
337.527
 11
-0.463516
 21
337.573
  0
LINE
  8
0
 10
-0.463516
 20
337.573
 11
-0.638657
 21
337.643
  0
LINE
  8
0
 10
-0.638657
 20
337.643
 11
-0.803726
 21
337.734
  0
LINE
  8
0
 10
-0.803726
 20
337.734
 11
-0.956131
 21
337.844
  0
LINE
  8
0
 10
-0.956131
 20
337.844
 11
-1.09344
 21
337.973
  0
LINE
  8
0
 10
-1.09344
 20
337.973
 11
-1.21352
 21
338.118
  0
LINE
  8
0
 10
-1.21352
 20
338.118
 11
-1.31445
 21
338.277
  0
LINE
  8
0
 10
-1.31445
 20
338.277
 11
-1.39465
 21
338.448
  0
LINE
  8
0
 10
-1.39465
 20
338.448
 11
-1.45287
 21
338.627
  0
LINE
  8
0
 10
-1.45287
 20
338.627
 11
-1.48816
 21
338.812
  0
LINE
  8
0
 10
-1.48816
 20
338.812
 11
-1.5
 21
339
  0
LINE
  8
0
 10
-1.5
 20
339
 11
-1.48816
 21
339.188
  0
LINE
  8
0
 10
-1.48816
 20
339.188
 11
-1.45287
 21
339.373
  0
LINE
  8
0
 10
-1.45287
 20
339.373
 11
-1.39465
 21
339.552
  0
LINE
  8
0
 10
-1.39465
 20
339.552
 11
-1.31445
 21
339.723
  0
LINE
  8
0
 10
-1.31445
 20
339.723
 11
-1.21352
 21
339.882
  0
LINE
  8
0
 10
-1.21352
 20
339.882
 11
-1.09344
 21
340.027
  0
LINE
  8
0
 10
-1.09344
 20
340.027
 11
-0.956131
 21
340.156
  0
LINE
  8
0
 10
-0.956131
 20
340.156
 11
-0.803726
 21
340.266
  0
LINE
  8
0
 10
-0.803726
 20
340.266
 11
-0.638657
 21
340.357
  0
LINE
  8
0
 10
-0.638657
 20
340.357
 11
-0.463516
 21
340.427
  0
LINE
  8
0
 10
-0.463516
 20
340.427
 11
-0.281067
 21
340.473
  0
LINE
  8
0
 10
-0.281067
 20
340.473
 11
-0.0941772
 21
340.497
  0
LINE
  8
0
 10
-0.0941772
 20
340.497
 11
0.0941772
 21
340.497
  0
LINE
  8
0
 10
0.0941772
 20
340.497
 11
0.281067
 21
340.473
  0
LINE
  8
0
 10
0.281067
 20
340.473
 11
0.463516
 21
340.427
  0
LINE
  8
0
 10
0.463516
 20
340.427
 11
0.638657
 21
340.357
  0
LINE
  8
0
 10
0.638657
 20
340.357
 11
0.803726
 21
340.266
  0
LINE
  8
0
 10
0.803726
 20
340.266
 11
0.956131
 21
340.156
  0
LINE
  8
0
 10
0.956131
 20
340.156
 11
1.09344
 21
340.027
  0
LINE
  8
0
 10
1.09344
 20
340.027
 11
1.21352
 21
339.882
  0
LINE
  8
0
 10
1.21352
 20
339.882
 11
1.31445
 21
339.723
  0
LINE
  8
0
 10
1.31445
 20
339.723
 11
1.39465
 21
339.552
  0
LINE
  8
0
 10
1.39465
 20
339.552
 11
1.45287
 21
339.373
  0
LINE
  8
0
 10
1.45287
 20
339.373
 11
1.48816
 21
339.188
  0
LINE
  8
0
 10
1.48816
 20
339.188
 11
1.5
 21
339
  0
LINE
  8
0
 10
1.5
 20
339
 11
1.48816
 21
338.812
  0
LINE
  8
0
 10
1.48816
 20
338.812
 11
1.45287
 21
338.627
  0
LINE
  8
0
 10
1.45287
 20
338.627
 11
1.39465
 21
338.448
  0
LINE
  8
0
 10
1.39465
 20
338.448
 11
1.31445
 21
338.277
  0
LINE
  8
0
 10
1.31445
 20
338.277
 11
1.21352
 21
338.118
  0
LINE
  8
0
 10
1.21352
 20
338.118
 11
1.09344
 21
337.973
  0
LINE
  8
0
 10
1.09344
 20
337.973
 11
0.956131
 21
337.844
  0
LINE
  8
0
 10
0.956131
 20
337.844
 11
0.803726
 21
337.734
  0
LINE
  8
0
 10
0.803726
 20
337.734
 11
0.638657
 21
337.643
  0
LINE
  8
0
 10
0.638657
 20
337.643
 11
0.463516
 21
337.573
  0
LINE
  8
0
 10
0.463516
 20
337.573
 11
0.281067
 21
337.527
  0
LINE
  8
0
 10
0.281067
 20
337.527
 11
0.0941772
 21
337.503
  0
LINE
  8
0
 10
0.0941772
 20
337.503
 11
-0.0941772
 21
337.503
  0
LINE
  8
0
 10
-0.0941772
 20
307.503
 11
-0.281067
 21
307.527
  0
LINE
  8
0
 10
-0.281067
 20
307.527
 11
-0.463516
 21
307.573
  0
LINE
  8
0
 10
-0.463516
 20
307.573
 11
-0.638657
 21
307.643
  0
LINE
  8
0
 10
-0.638657
 20
307.643
 11
-0.803726
 21
307.734
  0
LINE
  8
0
 10
-0.803726
 20
307.734
 11
-0.956131
 21
307.844
  0
LINE
  8
0
 10
-0.956131
 20
307.844
 11
-1.09344
 21
307.973
  0
LINE
  8
0
 10
-1.09344
 20
307.973
 11
-1.21352
 21
308.118
  0
LINE
  8
0
 10
-1.21352
 20
308.118
 11
-1.31445
 21
308.277
  0
LINE
  8
0
 10
-1.31445
 20
308.277
 11
-1.39465
 21
308.448
  0
LINE
  8
0
 10
-1.39465
 20
308.448
 11
-1.45287
 21
308.627
  0
LINE
  8
0
 10
-1.45287
 20
308.627
 11
-1.48816
 21
308.812
  0
LINE
  8
0
 10
-1.48816
 20
308.812
 11
-1.5
 21
309
  0
LINE
  8
0
 10
-1.5
 20
309
 11
-1.48816
 21
309.188
  0
LINE
  8
0
 10
-1.48816
 20
309.188
 11
-1.45287
 21
309.373
  0
LINE
  8
0
 10
-1.45287
 20
309.373
 11
-1.39465
 21
309.552
  0
LINE
  8
0
 10
-1.39465
 20
309.552
 11
-1.31445
 21
309.723
  0
LINE
  8
0
 10
-1.31445
 20
309.723
 11
-1.21352
 21
309.882
  0
LINE
  8
0
 10
-1.21352
 20
309.882
 11
-1.09344
 21
310.027
  0
LINE
  8
0
 10
-1.09344
 20
310.027
 11
-0.956131
 21
310.156
  0
LINE
  8
0
 10
-0.956131
 20
310.156
 11
-0.803726
 21
310.266
  0
LINE
  8
0
 10
-0.803726
 20
310.266
 11
-0.638657
 21
310.357
  0
LINE
  8
0
 10
-0.638657
 20
310.357
 11
-0.463516
 21
310.427
  0
LINE
  8
0
 10
-0.463516
 20
310.427
 11
-0.281067
 21
310.473
  0
LINE
  8
0
 10
-0.281067
 20
310.473
 11
-0.0941772
 21
310.497
  0
LINE
  8
0
 10
-0.0941772
 20
310.497
 11
0.0941772
 21
310.497
  0
LINE
  8
0
 10
0.0941772
 20
310.497
 11
0.281067
 21
310.473
  0
LINE
  8
0
 10
0.281067
 20
310.473
 11
0.463516
 21
310.427
  0
LINE
  8
0
 10
0.463516
 20
310.427
 11
0.638657
 21
310.357
  0
LINE
  8
0
 10
0.638657
 20
310.357
 11
0.803726
 21
310.266
  0
LINE
  8
0
 10
0.803726
 20
310.266
 11
0.956131
 21
310.156
  0
LINE
  8
0
 10
0.956131
 20
310.156
 11
1.09344
 21
310.027
  0
LINE
  8
0
 10
1.09344
 20
310.027
 11
1.21352
 21
309.882
  0
LINE
  8
0
 10
1.21352
 20
309.882
 11
1.31445
 21
309.723
  0
LINE
  8
0
 10
1.31445
 20
309.723
 11
1.39465
 21
309.552
  0
LINE
  8
0
 10
1.39465
 20
309.552
 11
1.45287
 21
309.373
  0
LINE
  8
0
 10
1.45287
 20
309.373
 11
1.48816
 21
309.188
  0
LINE
  8
0
 10
1.48816
 20
309.188
 11
1.5
 21
309
  0
LINE
  8
0
 10
1.5
 20
309
 11
1.48816
 21
308.812
  0
LINE
  8
0
 10
1.48816
 20
308.812
 11
1.45287
 21
308.627
  0
LINE
  8
0
 10
1.45287
 20
308.627
 11
1.39465
 21
308.448
  0
LINE
  8
0
 10
1.39465
 20
308.448
 11
1.31445
 21
308.277
  0
LINE
  8
0
 10
1.31445
 20
308.277
 11
1.21352
 21
308.118
  0
LINE
  8
0
 10
1.21352
 20
308.118
 11
1.09344
 21
307.973
  0
LINE
  8
0
 10
1.09344
 20
307.973
 11
0.956131
 21
307.844
  0
LINE
  8
0
 10
0.956131
 20
307.844
 11
0.803726
 21
307.734
  0
LINE
  8
0
 10
0.803726
 20
307.734
 11
0.638657
 21
307.643
  0
LINE
  8
0
 10
0.638657
 20
307.643
 11
0.463516
 21
307.573
  0
LINE
  8
0
 10
0.463516
 20
307.573
 11
0.281067
 21
307.527
  0
LINE
  8
0
 10
0.281067
 20
307.527
 11
0.0941772
 21
307.503
  0
LINE
  8
0
 10
0.0941772
 20
307.503
 11
-0.0941772
 21
307.503
  0
LINE
  8
0
 10
3.4369
 20
247.589
 11
4.04507
 21
247.745
  0
LINE
  8
0
 10
4.04507
 20
247.745
 11
4.62889
 21
247.976
  0
LINE
  8
0
 10
4.62889
 20
247.976
 11
5.17912
 21
248.278
  0
LINE
  8
0
 10
5.17912
 20
248.278
 11
5.68712
 21
248.647
  0
LINE
  8
0
 10
5.68712
 20
248.647
 11
6.14484
 21
249.077
  0
LINE
  8
0
 10
6.14484
 20
249.077
 11
6.54507
 21
249.561
  0
LINE
  8
0
 10
6.54507
 20
249.561
 11
6.88153
 21
250.091
  0
LINE
  8
0
 10
6.88153
 20
250.091
 11
7.14888
 21
250.659
  0
LINE
  8
0
 10
7.14888
 20
250.659
 11
7.34291
 21
251.257
  0
LINE
  8
0
 10
7.34291
 20
251.257
 11
7.46057
 21
251.873
  0
LINE
  8
0
 10
7.46057
 20
251.873
 11
7.5
 21
252.5
  0
LINE
  8
0
 10
7.5
 20
252.5
 11
7.5
 21
287.5
  0
LINE
  8
0
 10
7.5
 20
287.5
 11
7.46057
 21
288.127
  0
LINE
  8
0
 10
7.46057
 20
288.127
 11
7.34291
 21
288.743
  0
LINE
  8
0
 10
7.34291
 20
288.743
 11
7.14888
 21
289.341
  0
LINE
  8
0
 10
7.14888
 20
289.341
 11
6.88153
 21
289.909
  0
LINE
  8
0
 10
6.88153
 20
289.909
 11
6.54507
 21
290.439
  0
LINE
  8
0
 10
6.54507
 20
290.439
 11
6.14484
 21
290.923
  0
LINE
  8
0
 10
6.14484
 20
290.923
 11
5.68712
 21
291.353
  0
LINE
  8
0
 10
5.68712
 20
291.353
 11
5.17912
 21
291.722
  0
LINE
  8
0
 10
5.17912
 20
291.722
 11
4.62889
 21
292.024
  0
LINE
  8
0
 10
4.62889
 20
292.024
 11
4.04507
 21
292.255
  0
LINE
  8
0
 10
4.04507
 20
292.255
 11
3.4369
 21
292.411
  0
LINE
  8
0
 10
3.4369
 20
292.411
 11
2.81395
 21
292.49
  0
LINE
  8
0
 10
2.81395
 20
292.49
 11
-2.81395
 21
292.49
  0
LINE
  8
0
 10
-2.81395
 20
292.49
 11
-3.4369
 21
292.411
  0
LINE
  8
0
 10
-3.4369
 20
292.411
 11
-4.04507
 21
292.255
  0
LINE
  8
0
 10
-4.04507
 20
292.255
 11
-4.62889
 21
292.024
  0
LINE
  8
0
 10
-4.62889
 20
292.024
 11
-5.17912
 21
291.722
  0
LINE
  8
0
 10
-5.17912
 20
291.722
 11
-5.68712
 21
291.353
  0
LINE
  8
0
 10
-5.68712
 20
291.353
 11
-6.14484
 21
290.923
  0
LINE
  8
0
 10
-6.14484
 20
290.923
 11
-6.54507
 21
290.439
  0
LINE
  8
0
 10
-6.54507
 20
290.439
 11
-6.88153
 21
289.909
  0
LINE
  8
0
 10
-6.88153
 20
289.909
 11
-7.14888
 21
289.341
  0
LINE
  8
0
 10
-7.14888
 20
289.341
 11
-7.34291
 21
288.743
  0
LINE
  8
0
 10
-7.34291
 20
288.743
 11
-7.46057
 21
288.127
  0
LINE
  8
0
 10
-7.46057
 20
288.127
 11
-7.5
 21
287.5
  0
LINE
  8
0
 10
-7.5
 20
287.5
 11
-7.5
 21
252.5
  0
LINE
  8
0
 10
-7.5
 20
252.5
 11
-7.46057
 21
251.873
  0
LINE
  8
0
 10
-7.46057
 20
251.873
 11
-7.34291
 21
251.257
  0
LINE
  8
0
 10
-7.34291
 20
251.257
 11
-7.14888
 21
250.659
  0
LINE
  8
0
 10
-7.14888
 20
250.659
 11
-6.88153
 21
250.091
  0
LINE
  8
0
 10
-6.88153
 20
250.091
 11
-6.54507
 21
249.561
  0
LINE
  8
0
 10
-6.54507
 20
249.561
 11
-6.14484
 21
249.077
  0
LINE
  8
0
 10
-6.14484
 20
249.077
 11
-5.68712
 21
248.647
  0
LINE
  8
0
 10
-5.68712
 20
248.647
 11
-5.17912
 21
248.278
  0
LINE
  8
0
 10
-5.17912
 20
248.278
 11
-4.62889
 21
247.976
  0
LINE
  8
0
 10
-4.62889
 20
247.976
 11
-4.04507
 21
247.745
  0
LINE
  8
0
 10
-4.04507
 20
247.745
 11
-3.4369
 21
247.589
  0
LINE
  8
0
 10
-3.4369
 20
247.589
 11
-2.81395
 21
247.51
  0
LINE
  8
0
 10
-2.81395
 20
247.51
 11
2.81395
 21
247.51
  0
LINE
  8
0
 10
2.81395
 20
247.51
 11
3.4369
 21
247.589
  0
LINE
  8
0
 10
5.14888
 20
287.341
 11
4.88153
 21
287.909
  0
LINE
  8
0
 10
4.88153
 20
287.909
 11
4.54507
 21
288.439
  0
LINE
  8
0
 10
4.54507
 20
288.439
 11
4.14484
 21
288.923
  0
LINE
  8
0
 10
4.14484
 20
288.923
 11
3.68712
 21
289.353
  0
LINE
  8
0
 10
3.68712
 20
289.353
 11
3.17912
 21
289.722
  0
LINE
  8
0
 10
3.17912
 20
289.722
 11
2.62889
 21
290.024
  0
LINE
  8
0
 10
2.62889
 20
290.024
 11
2.04507
 21
290.255
  0
LINE
  8
0
 10
2.04507
 20
290.255
 11
1.80142
 21
290.318
  0
LINE
  8
0
 10
1.80142
 20
290.318
 11
2.67728
 21
290.318
  0
LINE
  8
0
 10
2.67728
 20
290.318
 11
3.02905
 21
290.273
  0
LINE
  8
0
 10
3.02905
 20
290.273
 11
3.37247
 21
290.185
  0
LINE
  8
0
 10
3.37247
 20
290.185
 11
3.70215
 21
290.055
  0
LINE
  8
0
 10
3.70215
 20
290.055
 11
4.01285
 21
289.884
  0
LINE
  8
0
 10
4.01285
 20
289.884
 11
4.2997
 21
289.675
  0
LINE
  8
0
 10
4.2997
 20
289.675
 11
4.55817
 21
289.433
  0
LINE
  8
0
 10
4.55817
 20
289.433
 11
4.78418
 21
289.16
  0
LINE
  8
0
 10
4.78418
 20
289.16
 11
4.97417
 21
288.86
  0
LINE
  8
0
 10
4.97417
 20
288.86
 11
5.12514
 21
288.539
  0
LINE
  8
0
 10
5.12514
 20
288.539
 11
5.2347
 21
288.202
  0
LINE
  8
0
 10
5.2347
 20
288.202
 11
5.30115
 21
287.854
  0
LINE
  8
0
 10
5.30115
 20
287.854
 11
5.32341
 21
287.5
  0
LINE
  8
0
 10
5.32341
 20
287.5
 11
5.32341
 21
286.803
  0
LINE
  8
0
 10
5.32341
 20
286.803
 11
5.14888
 21
287.341
  0
LINE
  8
0
 10
-0.150696
 20
282.605
 11
-0.449707
 21
282.643
  0
LINE
  8
0
 10
-0.449707
 20
282.643
 11
-0.741638
 21
282.717
  0
LINE
  8
0
 10
-0.741638
 20
282.717
 11
-1.02187
 21
282.828
  0
LINE
  8
0
 10
-1.02187
 20
282.828
 11
-1.28598
 21
282.974
  0
LINE
  8
0
 10
-1.28598
 20
282.974
 11
-1.52982
 21
283.151
  0
LINE
  8
0
 10
-1.52982
 20
283.151
 11
-1.74951
 21
283.357
  0
LINE
  8
0
 10
-1.74951
 20
283.357
 11
-1.94164
 21
283.589
  0
LINE
  8
0
 10
-1.94164
 20
283.589
 11
-2.10313
 21
283.844
  0
LINE
  8
0
 10
-2.10313
 20
283.844
 11
-2.23146
 21
284.117
  0
LINE
  8
0
 10
-2.23146
 20
284.117
 11
-2.32458
 21
284.403
  0
LINE
  8
0
 10
-2.32458
 20
284.403
 11
-2.38107
 21
284.699
  0
LINE
  8
0
 10
-2.38107
 20
284.699
 11
-2.39999
 21
285
  0
LINE
  8
0
 10
-2.39999
 20
285
 11
-2.38107
 21
285.301
  0
LINE
  8
0
 10
-2.38107
 20
285.301
 11
-2.32458
 21
285.597
  0
LINE
  8
0
 10
-2.32458
 20
285.597
 11
-2.23146
 21
285.883
  0
LINE
  8
0
 10
-2.23146
 20
285.883
 11
-2.10313
 21
286.156
  0
LINE
  8
0
 10
-2.10313
 20
286.156
 11
-1.94164
 21
286.411
  0
LINE
  8
0
 10
-1.94164
 20
286.411
 11
-1.74951
 21
286.643
  0
LINE
  8
0
 10
-1.74951
 20
286.643
 11
-1.52982
 21
286.849
  0
LINE
  8
0
 10
-1.52982
 20
286.849
 11
-1.28598
 21
287.026
  0
LINE
  8
0
 10
-1.28598
 20
287.026
 11
-1.02187
 21
287.172
  0
LINE
  8
0
 10
-1.02187
 20
287.172
 11
-0.741638
 21
287.283
  0
LINE
  8
0
 10
-0.741638
 20
287.283
 11
-0.449707
 21
287.357
  0
LINE
  8
0
 10
-0.449707
 20
287.357
 11
-0.150696
 21
287.395
  0
LINE
  8
0
 10
-0.150696
 20
287.395
 11
0.150696
 21
287.395
  0
LINE
  8
0
 10
0.150696
 20
287.395
 11
0.449707
 21
287.357
  0
LINE
  8
0
 10
0.449707
 20
287.357
 11
0.741638
 21
287.283
  0
LINE
  8
0
 10
0.741638
 20
287.283
 11
1.02187
 21
287.172
  0
LINE
  8
0
 10
1.02187
 20
287.172
 11
1.28598
 21
287.026
  0
LINE
  8
0
 10
1.28598
 20
287.026
 11
1.52982
 21
286.849
  0
LINE
  8
0
 10
1.52982
 20
286.849
 11
1.74951
 21
286.643
  0
LINE
  8
0
 10
1.74951
 20
286.643
 11
1.94164
 21
286.411
  0
LINE
  8
0
 10
1.94164
 20
286.411
 11
2.10313
 21
286.156
  0
LINE
  8
0
 10
2.10313
 20
286.156
 11
2.23146
 21
285.883
  0
LINE
  8
0
 10
2.23146
 20
285.883
 11
2.32458
 21
285.597
  0
LINE
  8
0
 10
2.32458
 20
285.597
 11
2.38107
 21
285.301
  0
LINE
  8
0
 10
2.38107
 20
285.301
 11
2.39999
 21
285
  0
LINE
  8
0
 10
2.39999
 20
285
 11
2.38107
 21
284.699
  0
LINE
  8
0
 10
2.38107
 20
284.699
 11
2.32458
 21
284.403
  0
LINE
  8
0
 10
2.32458
 20
284.403
 11
2.23146
 21
284.117
  0
LINE
  8
0
 10
2.23146
 20
284.117
 11
2.10313
 21
283.844
  0
LINE
  8
0
 10
2.10313
 20
283.844
 11
1.94164
 21
283.589
  0
LINE
  8
0
 10
1.94164
 20
283.589
 11
1.74951
 21
283.357
  0
LINE
  8
0
 10
1.74951
 20
283.357
 11
1.52982
 21
283.151
  0
LINE
  8
0
 10
1.52982
 20
283.151
 11
1.28598
 21
282.974
  0
LINE
  8
0
 10
1.28598
 20
282.974
 11
1.02187
 21
282.828
  0
LINE
  8
0
 10
1.02187
 20
282.828
 11
0.741638
 21
282.717
  0
LINE
  8
0
 10
0.741638
 20
282.717
 11
0.449707
 21
282.643
  0
LINE
  8
0
 10
0.449707
 20
282.643
 11
0.150696
 21
282.605
  0
LINE
  8
0
 10
0.150696
 20
282.605
 11
-0.150696
 21
282.605
  0
LINE
  8
0
 10
5.14888
 20
257.341
 11
4.88153
 21
257.909
  0
LINE
  8
0
 10
4.88153
 20
257.909
 11
4.54507
 21
258.439
  0
LINE
  8
0
 10
4.54507
 20
258.439
 11
4.14484
 21
258.923
  0
LINE
  8
0
 10
4.14484
 20
258.923
 11
3.68712
 21
259.353
  0
LINE
  8
0
 10
3.68712
 20
259.353
 11
3.17912
 21
259.722
  0
LINE
  8
0
 10
3.17912
 20
259.722
 11
2.62889
 21
260.024
  0
LINE
  8
0
 10
2.62889
 20
260.024
 11
2.04507
 21
260.255
  0
LINE
  8
0
 10
2.04507
 20
260.255
 11
1.4369
 21
260.411
  0
LINE
  8
0
 10
1.4369
 20
260.411
 11
0.81395
 21
260.49
  0
LINE
  8
0
 10
0.81395
 20
260.49
 11
-2.81395
 21
260.49
  0
LINE
  8
0
 10
-2.81395
 20
260.49
 11
-3.4369
 21
260.411
  0
LINE
  8
0
 10
-3.4369
 20
260.411
 11
-4.04507
 21
260.255
  0
LINE
  8
0
 10
-4.04507
 20
260.255
 11
-4.62889
 21
260.024
  0
LINE
  8
0
 10
-4.62889
 20
260.024
 11
-5.17912
 21
259.722
  0
LINE
  8
0
 10
-5.17912
 20
259.722
 11
-5.32341
 21
259.617
  0
LINE
  8
0
 10
-5.32341
 20
259.617
 11
-5.32341
 21
278.383
  0
LINE
  8
0
 10
-5.32341
 20
278.383
 11
-5.17912
 21
278.278
  0
LINE
  8
0
 10
-5.17912
 20
278.278
 11
-4.62889
 21
277.976
  0
LINE
  8
0
 10
-4.62889
 20
277.976
 11
-4.04507
 21
277.745
  0
LINE
  8
0
 10
-4.04507
 20
277.745
 11
-3.4369
 21
277.589
  0
LINE
  8
0
 10
-3.4369
 20
277.589
 11
-2.81395
 21
277.51
  0
LINE
  8
0
 10
-2.81395
 20
277.51
 11
0.81395
 21
277.51
  0
LINE
  8
0
 10
0.81395
 20
277.51
 11
1.4369
 21
277.589
  0
LINE
  8
0
 10
1.4369
 20
277.589
 11
2.04507
 21
277.745
  0
LINE
  8
0
 10
2.04507
 20
277.745
 11
2.62889
 21
277.976
  0
LINE
  8
0
 10
2.62889
 20
277.976
 11
3.17912
 21
278.278
  0
LINE
  8
0
 10
3.17912
 20
278.278
 11
3.68712
 21
278.647
  0
LINE
  8
0
 10
3.68712
 20
278.647
 11
4.14484
 21
279.077
  0
LINE
  8
0
 10
4.14484
 20
279.077
 11
4.54507
 21
279.561
  0
LINE
  8
0
 10
4.54507
 20
279.561
 11
4.88153
 21
280.091
  0
LINE
  8
0
 10
4.88153
 20
280.091
 11
5.14888
 21
280.659
  0
LINE
  8
0
 10
5.14888
 20
280.659
 11
5.32341
 21
281.197
  0
LINE
  8
0
 10
5.32341
 20
281.197
 11
5.32341
 21
256.803
  0
LINE
  8
0
 10
5.32341
 20
256.803
 11
5.14888
 21
257.341
  0
LINE
  8
0
 10
-0.150696
 20
252.605
 11
-0.449707
 21
252.643
  0
LINE
  8
0
 10
-0.449707
 20
252.643
 11
-0.741638
 21
252.717
  0
LINE
  8
0
 10
-0.741638
 20
252.717
 11
-1.02187
 21
252.828
  0
LINE
  8
0
 10
-1.02187
 20
252.828
 11
-1.28598
 21
252.974
  0
LINE
  8
0
 10
-1.28598
 20
252.974
 11
-1.52982
 21
253.151
  0
LINE
  8
0
 10
-1.52982
 20
253.151
 11
-1.74951
 21
253.357
  0
LINE
  8
0
 10
-1.74951
 20
253.357
 11
-1.94164
 21
253.589
  0
LINE
  8
0
 10
-1.94164
 20
253.589
 11
-2.10313
 21
253.844
  0
LINE
  8
0
 10
-2.10313
 20
253.844
 11
-2.23146
 21
254.117
  0
LINE
  8
0
 10
-2.23146
 20
254.117
 11
-2.32458
 21
254.403
  0
LINE
  8
0
 10
-2.32458
 20
254.403
 11
-2.38107
 21
254.699
  0
LINE
  8
0
 10
-2.38107
 20
254.699
 11
-2.39999
 21
255
  0
LINE
  8
0
 10
-2.39999
 20
255
 11
-2.38107
 21
255.301
  0
LINE
  8
0
 10
-2.38107
 20
255.301
 11
-2.32458
 21
255.597
  0
LINE
  8
0
 10
-2.32458
 20
255.597
 11
-2.23146
 21
255.883
  0
LINE
  8
0
 10
-2.23146
 20
255.883
 11
-2.10313
 21
256.156
  0
LINE
  8
0
 10
-2.10313
 20
256.156
 11
-1.94164
 21
256.411
  0
LINE
  8
0
 10
-1.94164
 20
256.411
 11
-1.74951
 21
256.643
  0
LINE
  8
0
 10
-1.74951
 20
256.643
 11
-1.52982
 21
256.849
  0
LINE
  8
0
 10
-1.52982
 20
256.849
 11
-1.28598
 21
257.026
  0
LINE
  8
0
 10
-1.28598
 20
257.026
 11
-1.02187
 21
257.172
  0
LINE
  8
0
 10
-1.02187
 20
257.172
 11
-0.741638
 21
257.283
  0
LINE
  8
0
 10
-0.741638
 20
257.283
 11
-0.449707
 21
257.357
  0
LINE
  8
0
 10
-0.449707
 20
257.357
 11
-0.150696
 21
257.395
  0
LINE
  8
0
 10
-0.150696
 20
257.395
 11
0.150696
 21
257.395
  0
LINE
  8
0
 10
0.150696
 20
257.395
 11
0.449707
 21
257.357
  0
LINE
  8
0
 10
0.449707
 20
257.357
 11
0.741638
 21
257.283
  0
LINE
  8
0
 10
0.741638
 20
257.283
 11
1.02187
 21
257.172
  0
LINE
  8
0
 10
1.02187
 20
257.172
 11
1.28598
 21
257.026
  0
LINE
  8
0
 10
1.28598
 20
257.026
 11
1.52982
 21
256.849
  0
LINE
  8
0
 10
1.52982
 20
256.849
 11
1.74951
 21
256.643
  0
LINE
  8
0
 10
1.74951
 20
256.643
 11
1.94164
 21
256.411
  0
LINE
  8
0
 10
1.94164
 20
256.411
 11
2.10313
 21
256.156
  0
LINE
  8
0
 10
2.10313
 20
256.156
 11
2.23146
 21
255.883
  0
LINE
  8
0
 10
2.23146
 20
255.883
 11
2.32458
 21
255.597
  0
LINE
  8
0
 10
2.32458
 20
255.597
 11
2.38107
 21
255.301
  0
LINE
  8
0
 10
2.38107
 20
255.301
 11
2.39999
 21
255
  0
LINE
  8
0
 10
2.39999
 20
255
 11
2.38107
 21
254.699
  0
LINE
  8
0
 10
2.38107
 20
254.699
 11
2.32458
 21
254.403
  0
LINE
  8
0
 10
2.32458
 20
254.403
 11
2.23146
 21
254.117
  0
LINE
  8
0
 10
2.23146
 20
254.117
 11
2.10313
 21
253.844
  0
LINE
  8
0
 10
2.10313
 20
253.844
 11
1.94164
 21
253.589
  0
LINE
  8
0
 10
1.94164
 20
253.589
 11
1.74951
 21
253.357
  0
LINE
  8
0
 10
1.74951
 20
253.357
 11
1.52982
 21
253.151
  0
LINE
  8
0
 10
1.52982
 20
253.151
 11
1.28598
 21
252.974
  0
LINE
  8
0
 10
1.28598
 20
252.974
 11
1.02187
 21
252.828
  0
LINE
  8
0
 10
1.02187
 20
252.828
 11
0.741638
 21
252.717
  0
LINE
  8
0
 10
0.741638
 20
252.717
 11
0.449707
 21
252.643
  0
LINE
  8
0
 10
0.449707
 20
252.643
 11
0.150696
 21
252.605
  0
LINE
  8
0
 10
0.150696
 20
252.605
 11
-0.150696
 21
252.605
  0
ENDSEC
  0
SECTION
  2
OBJECTS
  0
DICTIONARY
  0
ENDSEC
  0
EOF
