<?xml version="1.0" standalone="no"?>
<!DOCTYPE svg PUBLIC "-//W3C//DTD SVG 1.1//EN" "http://www.w3.org/Graphics/SVG/1.1/DTD/svg11.dtd">
<svg width="44mm" height="108mm" viewBox="-22 -171 44 108" xmlns="http://www.w3.org/2000/svg" version="1.1">
<title>OpenSCAD Model</title>
<path d="
M 17.9369,-141.589 L 18.5451,-141.745 L 19.1289,-141.976 L 19.6791,-142.278 L 20.1871,-142.647 L 20.6448,-143.077
 L 21.0451,-143.561 L 21.3815,-144.091 L 21.6489,-144.659 L 21.8429,-145.257 L 21.9606,-145.873 L 22,-146.5
 L 22,-165.5 L 21.9606,-166.127 L 21.8429,-166.743 L 21.6489,-167.341 L 21.3815,-167.909 L 21.0451,-168.439
 L 20.6448,-168.923 L 20.1871,-169.353 L 19.6791,-169.722 L 19.1289,-170.024 L 18.5451,-170.255 L 17.9369,-170.411
 L 17.3139,-170.49 L -17.3139,-170.49 L -17.9369,-170.411 L -18.5451,-170.255 L -19.1289,-170.024 L -19.6791,-169.722
 L -20.1871,-169.353 L -20.6448,-168.923 L -21.0451,-168.439 L -21.3815,-167.909 L -21.6489,-167.341 L -21.8429,-166.743
 L -21.9606,-166.127 L -22,-165.5 L -22,-146.5 L -21.9606,-145.873 L -21.8429,-145.257 L -21.6489,-144.659
 L -21.3815,-144.091 L -21.0451,-143.561 L -20.6448,-143.077 L -20.1871,-142.647 L -19.6791,-142.278 L -19.1289,-141.976
 L -18.5451,-141.745 L -17.9369,-141.589 L -17.3139,-141.51 L 17.3139,-141.51 z
M -15.3258,-143.322 L -15.9722,-143.404 L -16.6033,-143.566 L -17.2091,-143.805 L -17.7801,-144.119 L -18.3072,-144.502
 L -18.7822,-144.948 L -19.1975,-145.45 L -19.5466,-146 L -19.824,-146.59 L -20.0254,-147.21 L -20.1474,-147.85
 L -20.1884,-148.5 L -20.1884,-163.5 L -20.1474,-164.15 L -20.0254,-164.79 L -19.824,-165.41 L -19.5466,-166
 L -19.1975,-166.55 L -18.7822,-167.052 L -18.3072,-167.498 L -17.7801,-167.881 L -17.2091,-168.195 L -16.6033,-168.434
 L -15.9722,-168.596 L -15.3258,-168.678 L 15.3258,-168.678 L 15.9722,-168.596 L 16.6033,-168.434 L 17.2091,-168.195
 L 17.7801,-167.881 L 18.3072,-167.498 L 18.7822,-167.052 L 19.1975,-166.55 L 19.5466,-166 L 19.824,-165.41
 L 20.0254,-164.79 L 20.1474,-164.15 L 20.1884,-163.5 L 20.1884,-148.5 L 20.1474,-147.85 L 20.0254,-147.21
 L 19.824,-146.59 L 19.5466,-146 L 19.1975,-145.45 L 18.7822,-144.948 L 18.3072,-144.502 L 17.7801,-144.119
 L 17.2091,-143.805 L 16.6033,-143.566 L 15.9722,-143.404 L 15.3258,-143.322 z
M 17.9369,-102.589 L 18.5451,-102.745 L 19.1289,-102.976 L 19.6791,-103.278 L 20.1871,-103.647 L 20.6448,-104.077
 L 21.0451,-104.561 L 21.3815,-105.091 L 21.6489,-105.659 L 21.8429,-106.257 L 21.9606,-106.873 L 22,-107.5
 L 22,-126.5 L 21.9606,-127.127 L 21.8429,-127.743 L 21.6489,-128.341 L 21.3815,-128.909 L 21.0451,-129.439
 L 20.6448,-129.923 L 20.1871,-130.353 L 19.6791,-130.722 L 19.1289,-131.024 L 18.5451,-131.255 L 17.9369,-131.411
 L 17.3139,-131.49 L -17.3139,-131.49 L -17.9369,-131.411 L -18.5451,-131.255 L -19.1289,-131.024 L -19.6791,-130.722
 L -20.1871,-130.353 L -20.6448,-129.923 L -21.0451,-129.439 L -21.3815,-128.909 L -21.6489,-128.341 L -21.8429,-127.743
 L -21.9606,-127.127 L -22,-126.5 L -22,-107.5 L -21.9606,-106.873 L -21.8429,-106.257 L -21.6489,-105.659
 L -21.3815,-105.091 L -21.0451,-104.561 L -20.6448,-104.077 L -20.1871,-103.647 L -19.6791,-103.278 L -19.1289,-102.976
 L -18.5451,-102.745 L -17.9369,-102.589 L -17.3139,-102.51 L 17.3139,-102.51 z
M 17.9369,-63.5886 L 18.5451,-63.7447 L 19.1289,-63.9759 L 19.6791,-64.2784 L 20.1871,-64.6474 L 20.6448,-65.0773
 L 21.0451,-65.5611 L 21.3815,-66.0912 L 21.6489,-66.6594 L 21.8429,-67.2566 L 21.9606,-67.8733 L 22,-68.5
 L 22,-87.5 L 21.9606,-88.1267 L 21.8429,-88.7434 L 21.6489,-89.3406 L 21.3815,-89.9088 L 21.0451,-90.4389
 L 20.6448,-90.9227 L 20.1871,-91.3526 L 19.6791,-91.7216 L 19.1289,-92.0241 L 18.5451,-92.2553 L 17.9369,-92.4114
 L 17.3139,-92.4901 L -17.3139,-92.4901 L -17.9369,-92.4114 L -18.5451,-92.2553 L -19.1289,-92.0241 L -19.6791,-91.7216
 L -20.1871,-91.3526 L -20.6448,-90.9227 L -21.0451,-90.4389 L -21.3815,-89.9088 L -21.6489,-89.3406 L -21.8429,-88.7434
 L -21.9606,-88.1267 L -22,-87.5 L -22,-68.5 L -21.9606,-67.8733 L -21.8429,-67.2566 L -21.6489,-66.6594
 L -21.3815,-66.0912 L -21.0451,-65.5611 L -20.6448,-65.0773 L -20.1871,-64.6474 L -19.6791,-64.2784 L -19.1289,-63.9759
 L -18.5451,-63.7447 L -17.9369,-63.5886 L -17.3139,-63.5099 L 17.3139,-63.5099 z
M 14.8493,-83.1047 L 14.5503,-83.1425 L 14.2583,-83.2175 L 13.9781,-83.3284 L 13.714,-83.4736 L 13.4702,-83.6508
 L 13.2505,-83.8571 L 13.0583,-84.0893 L 12.8969,-84.3438 L 12.7685,-84.6165 L 12.6754,-84.9031 L 12.6189,-85.1992
 L 12.6,-85.5 L 12.6189,-85.8008 L 12.6754,-86.0968 L 12.7685,-86.3835 L 12.8969,-86.6562 L 13.0583,-86.9107
 L 13.2505,-87.1429 L 13.4702,-87.3492 L 13.714,-87.5264 L 13.9781,-87.6716 L 14.2583,-87.7825 L 14.5503,-87.8575
 L 14.8493,-87.8953 L 15.1507,-87.8953 L 15.4497,-87.8575 L 15.7416,-87.7825 L 16.0219,-87.6716 L 16.286,-87.5264
 L 16.5298,-87.3492 L 16.7495,-87.1429 L 16.9416,-86.9107 L 17.1031,-86.6562 L 17.2315,-86.3835 L 17.3246,-86.0968
 L 17.3811,-85.8008 L 17.4,-85.5 L 17.3811,-85.1992 L 17.3246,-84.9031 L 17.2315,-84.6165 L 17.1031,-84.3438
 L 16.9416,-84.0893 L 16.7495,-83.8571 L 16.5298,-83.6508 L 16.286,-83.4736 L 16.0219,-83.3284 L 15.7416,-83.2175
 L 15.4497,-83.1425 L 15.1507,-83.1047 z
M -15.1507,-83.1047 L -15.4497,-83.1425 L -15.7416,-83.2175 L -16.0219,-83.3284 L -16.286,-83.4736 L -16.5298,-83.6508
 L -16.7495,-83.8571 L -16.9416,-84.0893 L -17.1031,-84.3438 L -17.2315,-84.6165 L -17.3246,-84.9031 L -17.3811,-85.1992
 L -17.4,-85.5 L -17.3811,-85.8008 L -17.3246,-86.0968 L -17.2315,-86.3835 L -17.1031,-86.6562 L -16.9416,-86.9107
 L -16.7495,-87.1429 L -16.5298,-87.3492 L -16.286,-87.5264 L -16.0219,-87.6716 L -15.7416,-87.7825 L -15.4497,-87.8575
 L -15.1507,-87.8953 L -14.8493,-87.8953 L -14.5503,-87.8575 L -14.2583,-87.7825 L -13.9781,-87.6716 L -13.714,-87.5264
 L -13.4702,-87.3492 L -13.2505,-87.1429 L -13.0583,-86.9107 L -12.8969,-86.6562 L -12.7685,-86.3835 L -12.6754,-86.0968
 L -12.6189,-85.8008 L -12.6,-85.5 L -12.6189,-85.1992 L -12.6754,-84.9031 L -12.7685,-84.6165 L -12.8969,-84.3438
 L -13.0583,-84.0893 L -13.2505,-83.8571 L -13.4702,-83.6508 L -13.714,-83.4736 L -13.9781,-83.3284 L -14.2583,-83.2175
 L -14.5503,-83.1425 L -14.8493,-83.1047 z
M -15.1507,-68.1047 L -15.4497,-68.1425 L -15.7416,-68.2175 L -16.0219,-68.3284 L -16.286,-68.4736 L -16.5298,-68.6508
 L -16.7495,-68.8571 L -16.9416,-69.0893 L -17.1031,-69.3438 L -17.2315,-69.6165 L -17.3246,-69.9032 L -17.3811,-70.1992
 L -17.4,-70.5 L -17.3811,-70.8008 L -17.3246,-71.0969 L -17.2315,-71.3835 L -17.1031,-71.6562 L -16.9416,-71.9107
 L -16.7495,-72.1429 L -16.5298,-72.3492 L -16.286,-72.5264 L -16.0219,-72.6716 L -15.7416,-72.7825 L -15.4497,-72.8575
 L -15.1507,-72.8953 L -14.8493,-72.8953 L -14.5503,-72.8575 L -14.2583,-72.7825 L -13.9781,-72.6716 L -13.714,-72.5264
 L -13.4702,-72.3492 L -13.2505,-72.1429 L -13.0583,-71.9107 L -12.8969,-71.6562 L -12.7685,-71.3835 L -12.6754,-71.0969
 L -12.6189,-70.8008 L -12.6,-70.5 L -12.6189,-70.1992 L -12.6754,-69.9032 L -12.7685,-69.6165 L -12.8969,-69.3438
 L -13.0583,-69.0893 L -13.2505,-68.8571 L -13.4702,-68.6508 L -13.714,-68.4736 L -13.9781,-68.3284 L -14.2583,-68.2175
 L -14.5503,-68.1425 L -14.8493,-68.1047 z
M 14.8493,-68.1047 L 14.5503,-68.1425 L 14.2583,-68.2175 L 13.9781,-68.3284 L 13.714,-68.4736 L 13.4702,-68.6508
 L 13.2505,-68.8571 L 13.0583,-69.0893 L 12.8969,-69.3438 L 12.7685,-69.6165 L 12.6754,-69.9032 L 12.6189,-70.1992
 L 12.6,-70.5 L 12.6189,-70.8008 L 12.6754,-71.0969 L 12.7685,-71.3835 L 12.8969,-71.6562 L 13.0583,-71.9107
 L 13.2505,-72.1429 L 13.4702,-72.3492 L 13.714,-72.5264 L 13.9781,-72.6716 L 14.2583,-72.7825 L 14.5503,-72.8575
 L 14.8493,-72.8953 L 15.1507,-72.8953 L 15.4497,-72.8575 L 15.7416,-72.7825 L 16.0219,-72.6716 L 16.286,-72.5264
 L 16.5298,-72.3492 L 16.7495,-72.1429 L 16.9416,-71.9107 L 17.1031,-71.6562 L 17.2315,-71.3835 L 17.3246,-71.0969
 L 17.3811,-70.8008 L 17.4,-70.5 L 17.3811,-70.1992 L 17.3246,-69.9032 L 17.2315,-69.6165 L 17.1031,-69.3438
 L 16.9416,-69.0893 L 16.7495,-68.8571 L 16.5298,-68.6508 L 16.286,-68.4736 L 16.0219,-68.3284 L 15.7416,-68.2175
 L 15.4497,-68.1425 L 15.1507,-68.1047 z
" stroke="black" fill="lightgray" stroke-width="0.5"/>
</svg>
