<?xml version="1.0" standalone="no"?>
<!DOCTYPE svg PUBLIC "-//W3C//DTD SVG 1.1//EN" "http://www.w3.org/Graphics/SVG/1.1/DTD/svg11.dtd">
<svg width="44mm" height="213mm" viewBox="-22 -213 44 213" xmlns="http://www.w3.org/2000/svg" version="1.1">
<title>OpenSCAD Model</title>
<path d="
M 22,-207.5 L 21.9606,-208.127 L 21.8429,-208.743 L 21.6489,-209.341 L 21.3815,-209.909 L 21.0451,-210.439
 L 20.6448,-210.923 L 20.1871,-211.353 L 19.6791,-211.722 L 19.1289,-212.024 L 18.5451,-212.255 L 17.9369,-212.411
 L 17.3139,-212.49 L -17.3139,-212.49 L -17.9369,-212.411 L -18.5451,-212.255 L -19.1289,-212.024 L -19.6791,-211.722
 L -20.1871,-211.353 L -20.6448,-210.923 L -21.0451,-210.439 L -21.3815,-209.909 L -21.6489,-209.341 L -21.8429,-208.743
 L -21.9606,-208.127 L -22,-207.5 L -22,-162 L 22,-162 z
M -15.1884,-202.506 L -15.5621,-202.553 L -15.927,-202.647 L -16.2773,-202.786 L -16.6075,-202.967 L -16.9123,-203.188
 L -17.1869,-203.446 L -17.427,-203.737 L -17.6289,-204.055 L -17.7893,-204.396 L -17.9057,-204.754 L -17.9763,-205.124
 L -18,-205.5 L -17.9763,-205.876 L -17.9057,-206.246 L -17.7893,-206.604 L -17.6289,-206.945 L -17.427,-207.263
 L -17.1869,-207.554 L -16.9123,-207.812 L -16.6075,-208.033 L -16.2773,-208.214 L -15.927,-208.353 L -15.5621,-208.447
 L -15.1884,-208.494 L -14.8116,-208.494 L -14.4379,-208.447 L -14.0729,-208.353 L -13.7227,-208.214 L -13.3925,-208.033
 L -13.0877,-207.812 L -12.8131,-207.554 L -12.5729,-207.263 L -12.3711,-206.945 L -12.2107,-206.604 L -12.0942,-206.246
 L -12.0237,-205.876 L -12,-205.5 L -12.0237,-205.124 L -12.0942,-204.754 L -12.2107,-204.396 L -12.3711,-204.055
 L -12.5729,-203.737 L -12.8131,-203.446 L -13.0877,-203.188 L -13.3925,-202.967 L -13.7227,-202.786 L -14.0729,-202.647
 L -14.4379,-202.553 L -14.8116,-202.506 z
M -0.18837,-202.506 L -0.562134,-202.553 L -0.927048,-202.647 L -1.27733,-202.786 L -1.60747,-202.967 L -1.91226,-203.188
 L -2.1869,-203.446 L -2.42705,-203.737 L -2.62891,-204.055 L -2.78932,-204.396 L -2.90575,-204.754 L -2.97633,-205.124
 L -3,-205.5 L -2.97633,-205.876 L -2.90575,-206.246 L -2.78932,-206.604 L -2.62891,-206.945 L -2.42705,-207.263
 L -2.1869,-207.554 L -1.91226,-207.812 L -1.60747,-208.033 L -1.27733,-208.214 L -0.927048,-208.353 L -0.562134,-208.447
 L -0.18837,-208.494 L 0.18837,-208.494 L 0.562134,-208.447 L 0.927048,-208.353 L 1.27733,-208.214 L 1.60747,-208.033
 L 1.91226,-207.812 L 2.1869,-207.554 L 2.42705,-207.263 L 2.62891,-206.945 L 2.78932,-206.604 L 2.90575,-206.246
 L 2.97633,-205.876 L 3,-205.5 L 2.97633,-205.124 L 2.90575,-204.754 L 2.78932,-204.396 L 2.62891,-204.055
 L 2.42705,-203.737 L 2.1869,-203.446 L 1.91226,-203.188 L 1.60747,-202.967 L 1.27733,-202.786 L 0.927048,-202.647
 L 0.562134,-202.553 L 0.18837,-202.506 z
M 14.8116,-202.506 L 14.4379,-202.553 L 14.0729,-202.647 L 13.7227,-202.786 L 13.3925,-202.967 L 13.0877,-203.188
 L 12.8131,-203.446 L 12.5729,-203.737 L 12.3711,-204.055 L 12.2107,-204.396 L 12.0942,-204.754 L 12.0237,-205.124
 L 12,-205.5 L 12.0237,-205.876 L 12.0942,-206.246 L 12.2107,-206.604 L 12.3711,-206.945 L 12.5729,-207.263
 L 12.8131,-207.554 L 13.0877,-207.812 L 13.3925,-208.033 L 13.7227,-208.214 L 14.0729,-208.353 L 14.4379,-208.447
 L 14.8116,-208.494 L 15.1884,-208.494 L 15.5621,-208.447 L 15.927,-208.353 L 16.2773,-208.214 L 16.6075,-208.033
 L 16.9123,-207.812 L 17.1869,-207.554 L 17.427,-207.263 L 17.6289,-206.945 L 17.7893,-206.604 L 17.9057,-206.246
 L 17.9763,-205.876 L 18,-205.5 L 17.9763,-205.124 L 17.9057,-204.754 L 17.7893,-204.396 L 17.6289,-204.055
 L 17.427,-203.737 L 17.1869,-203.446 L 16.9123,-203.188 L 16.6075,-202.967 L 16.2773,-202.786 L 15.927,-202.647
 L 15.5621,-202.553 L 15.1884,-202.506 z
M 14.8116,-187.506 L 14.4379,-187.553 L 14.0729,-187.647 L 13.7227,-187.786 L 13.3925,-187.967 L 13.0877,-188.188
 L 12.8131,-188.446 L 12.5729,-188.737 L 12.3711,-189.055 L 12.2107,-189.396 L 12.0942,-189.754 L 12.0237,-190.124
 L 12,-190.5 L 12.0237,-190.876 L 12.0942,-191.246 L 12.2107,-191.604 L 12.3711,-191.945 L 12.5729,-192.263
 L 12.8131,-192.554 L 13.0877,-192.812 L 13.3925,-193.033 L 13.7227,-193.214 L 14.0729,-193.353 L 14.4379,-193.447
 L 14.8116,-193.494 L 15.1884,-193.494 L 15.5621,-193.447 L 15.927,-193.353 L 16.2773,-193.214 L 16.6075,-193.033
 L 16.9123,-192.812 L 17.1869,-192.554 L 17.427,-192.263 L 17.6289,-191.945 L 17.7893,-191.604 L 17.9057,-191.246
 L 17.9763,-190.876 L 18,-190.5 L 17.9763,-190.124 L 17.9057,-189.754 L 17.7893,-189.396 L 17.6289,-189.055
 L 17.427,-188.737 L 17.1869,-188.446 L 16.9123,-188.188 L 16.6075,-187.967 L 16.2773,-187.786 L 15.927,-187.647
 L 15.5621,-187.553 L 15.1884,-187.506 z
M -15.1884,-187.506 L -15.5621,-187.553 L -15.927,-187.647 L -16.2773,-187.786 L -16.6075,-187.967 L -16.9123,-188.188
 L -17.1869,-188.446 L -17.427,-188.737 L -17.6289,-189.055 L -17.7893,-189.396 L -17.9057,-189.754 L -17.9763,-190.124
 L -18,-190.5 L -17.9763,-190.876 L -17.9057,-191.246 L -17.7893,-191.604 L -17.6289,-191.945 L -17.427,-192.263
 L -17.1869,-192.554 L -16.9123,-192.812 L -16.6075,-193.033 L -16.2773,-193.214 L -15.927,-193.353 L -15.5621,-193.447
 L -15.1884,-193.494 L -14.8116,-193.494 L -14.4379,-193.447 L -14.0729,-193.353 L -13.7227,-193.214 L -13.3925,-193.033
 L -13.0877,-192.812 L -12.8131,-192.554 L -12.5729,-192.263 L -12.3711,-191.945 L -12.2107,-191.604 L -12.0942,-191.246
 L -12.0237,-190.876 L -12,-190.5 L -12.0237,-190.124 L -12.0942,-189.754 L -12.2107,-189.396 L -12.3711,-189.055
 L -12.5729,-188.737 L -12.8131,-188.446 L -13.0877,-188.188 L -13.3925,-187.967 L -13.7227,-187.786 L -14.0729,-187.647
 L -14.4379,-187.553 L -14.8116,-187.506 z
M -0.18837,-187.506 L -0.562134,-187.553 L -0.927048,-187.647 L -1.27733,-187.786 L -1.60747,-187.967 L -1.91226,-188.188
 L -2.1869,-188.446 L -2.42705,-188.737 L -2.62891,-189.055 L -2.78932,-189.396 L -2.90575,-189.754 L -2.97633,-190.124
 L -3,-190.5 L -2.97633,-190.876 L -2.90575,-191.246 L -2.78932,-191.604 L -2.62891,-191.945 L -2.42705,-192.263
 L -2.1869,-192.554 L -1.91226,-192.812 L -1.60747,-193.033 L -1.27733,-193.214 L -0.927048,-193.353 L -0.562134,-193.447
 L -0.18837,-193.494 L 0.18837,-193.494 L 0.562134,-193.447 L 0.927048,-193.353 L 1.27733,-193.214 L 1.60747,-193.033
 L 1.91226,-192.812 L 2.1869,-192.554 L 2.42705,-192.263 L 2.62891,-191.945 L 2.78932,-191.604 L 2.90575,-191.246
 L 2.97633,-190.876 L 3,-190.5 L 2.97633,-190.124 L 2.90575,-189.754 L 2.78932,-189.396 L 2.62891,-189.055
 L 2.42705,-188.737 L 2.1869,-188.446 L 1.91226,-188.188 L 1.60747,-187.967 L 1.27733,-187.786 L 0.927048,-187.647
 L 0.562134,-187.553 L 0.18837,-187.506 z
M -0.18837,-172.506 L -0.562134,-172.553 L -0.927048,-172.647 L -1.27733,-172.786 L -1.60747,-172.967 L -1.91226,-173.188
 L -2.1869,-173.446 L -2.42705,-173.737 L -2.62891,-174.055 L -2.78932,-174.396 L -2.90575,-174.754 L -2.97633,-175.124
 L -3,-175.5 L -2.97633,-175.876 L -2.90575,-176.246 L -2.78932,-176.604 L -2.62891,-176.945 L -2.42705,-177.263
 L -2.1869,-177.554 L -1.91226,-177.812 L -1.60747,-178.033 L -1.27733,-178.214 L -0.927048,-178.353 L -0.562134,-178.447
 L -0.18837,-178.494 L 0.18837,-178.494 L 0.562134,-178.447 L 0.927048,-178.353 L 1.27733,-178.214 L 1.60747,-178.033
 L 1.91226,-177.812 L 2.1869,-177.554 L 2.42705,-177.263 L 2.62891,-176.945 L 2.78932,-176.604 L 2.90575,-176.246
 L 2.97633,-175.876 L 3,-175.5 L 2.97633,-175.124 L 2.90575,-174.754 L 2.78932,-174.396 L 2.62891,-174.055
 L 2.42705,-173.737 L 2.1869,-173.446 L 1.91226,-173.188 L 1.60747,-172.967 L 1.27733,-172.786 L 0.927048,-172.647
 L 0.562134,-172.553 L 0.18837,-172.506 z
M 14.8116,-172.506 L 14.4379,-172.553 L 14.0729,-172.647 L 13.7227,-172.786 L 13.3925,-172.967 L 13.0877,-173.188
 L 12.8131,-173.446 L 12.5729,-173.737 L 12.3711,-174.055 L 12.2107,-174.396 L 12.0942,-174.754 L 12.0237,-175.124
 L 12,-175.5 L 12.0237,-175.876 L 12.0942,-176.246 L 12.2107,-176.604 L 12.3711,-176.945 L 12.5729,-177.263
 L 12.8131,-177.554 L 13.0877,-177.812 L 13.3925,-178.033 L 13.7227,-178.214 L 14.0729,-178.353 L 14.4379,-178.447
 L 14.8116,-178.494 L 15.1884,-178.494 L 15.5621,-178.447 L 15.927,-178.353 L 16.2773,-178.214 L 16.6075,-178.033
 L 16.9123,-177.812 L 17.1869,-177.554 L 17.427,-177.263 L 17.6289,-176.945 L 17.7893,-176.604 L 17.9057,-176.246
 L 17.9763,-175.876 L 18,-175.5 L 17.9763,-175.124 L 17.9057,-174.754 L 17.7893,-174.396 L 17.6289,-174.055
 L 17.427,-173.737 L 17.1869,-173.446 L 16.9123,-173.188 L 16.6075,-172.967 L 16.2773,-172.786 L 15.927,-172.647
 L 15.5621,-172.553 L 15.1884,-172.506 z
M -15.1884,-172.506 L -15.5621,-172.553 L -15.927,-172.647 L -16.2773,-172.786 L -16.6075,-172.967 L -16.9123,-173.188
 L -17.1869,-173.446 L -17.427,-173.737 L -17.6289,-174.055 L -17.7893,-174.396 L -17.9057,-174.754 L -17.9763,-175.124
 L -18,-175.5 L -17.9763,-175.876 L -17.9057,-176.246 L -17.7893,-176.604 L -17.6289,-176.945 L -17.427,-177.263
 L -17.1869,-177.554 L -16.9123,-177.812 L -16.6075,-178.033 L -16.2773,-178.214 L -15.927,-178.353 L -15.5621,-178.447
 L -15.1884,-178.494 L -14.8116,-178.494 L -14.4379,-178.447 L -14.0729,-178.353 L -13.7227,-178.214 L -13.3925,-178.033
 L -13.0877,-177.812 L -12.8131,-177.554 L -12.5729,-177.263 L -12.3711,-176.945 L -12.2107,-176.604 L -12.0942,-176.246
 L -12.0237,-175.876 L -12,-175.5 L -12.0237,-175.124 L -12.0942,-174.754 L -12.2107,-174.396 L -12.3711,-174.055
 L -12.5729,-173.737 L -12.8131,-173.446 L -13.0877,-173.188 L -13.3925,-172.967 L -13.7227,-172.786 L -14.0729,-172.647
 L -14.4379,-172.553 L -14.8116,-172.506 z
M 7.34929,-173.105 L 7.05028,-173.143 L 6.75835,-173.217 L 6.47812,-173.328 L 6.214,-173.474 L 5.97017,-173.651
 L 5.75047,-173.857 L 5.55835,-174.089 L 5.39685,-174.344 L 5.26852,-174.617 L 5.1754,-174.903 L 5.11891,-175.199
 L 5.09999,-175.5 L 5.11891,-175.801 L 5.1754,-176.097 L 5.26852,-176.383 L 5.39685,-176.656 L 5.55835,-176.911
 L 5.75047,-177.143 L 5.97017,-177.349 L 6.214,-177.526 L 6.47812,-177.672 L 6.75835,-177.783 L 7.05028,-177.857
 L 7.34929,-177.895 L 7.6507,-177.895 L 7.94971,-177.857 L 8.24164,-177.783 L 8.52187,-177.672 L 8.78598,-177.526
 L 9.02982,-177.349 L 9.24951,-177.143 L 9.44164,-176.911 L 9.60313,-176.656 L 9.73146,-176.383 L 9.82458,-176.097
 L 9.88107,-175.801 L 9.89999,-175.5 L 9.88107,-175.199 L 9.82458,-174.903 L 9.73146,-174.617 L 9.60313,-174.344
 L 9.44164,-174.089 L 9.24951,-173.857 L 9.02982,-173.651 L 8.78598,-173.474 L 8.52187,-173.328 L 8.24164,-173.217
 L 7.94971,-173.143 L 7.6507,-173.105 z
M -7.6507,-173.105 L -7.94971,-173.143 L -8.24164,-173.217 L -8.52187,-173.328 L -8.78598,-173.474 L -9.02982,-173.651
 L -9.24951,-173.857 L -9.44164,-174.089 L -9.60313,-174.344 L -9.73146,-174.617 L -9.82458,-174.903 L -9.88107,-175.199
 L -9.89999,-175.5 L -9.88107,-175.801 L -9.82458,-176.097 L -9.73146,-176.383 L -9.60313,-176.656 L -9.44164,-176.911
 L -9.24951,-177.143 L -9.02982,-177.349 L -8.78598,-177.526 L -8.52187,-177.672 L -8.24164,-177.783 L -7.94971,-177.857
 L -7.6507,-177.895 L -7.34929,-177.895 L -7.05028,-177.857 L -6.75835,-177.783 L -6.47812,-177.672 L -6.214,-177.526
 L -5.97017,-177.349 L -5.75047,-177.143 L -5.55835,-176.911 L -5.39685,-176.656 L -5.26852,-176.383 L -5.1754,-176.097
 L -5.11891,-175.801 L -5.09999,-175.5 L -5.11891,-175.199 L -5.1754,-174.903 L -5.26852,-174.617 L -5.39685,-174.344
 L -5.55835,-174.089 L -5.75047,-173.857 L -5.97017,-173.651 L -6.214,-173.474 L -6.47812,-173.328 L -6.75835,-173.217
 L -7.05028,-173.143 L -7.34929,-173.105 z
M 11.4858,-165.6 L 11.4858,-171 L 18.5142,-171 L 18.5142,-165.6 z
M -3.51418,-165.6 L -3.51418,-171 L 3.51418,-171 L 3.51418,-165.6 z
M -18.5142,-165.6 L -18.5142,-171 L -11.4858,-171 L -11.4858,-165.6 z
M -17.5307,-111.6 L -20.2462,-111.6 L -20.2462,-117 L -17.5307,-117 L -17.5307,-119.9 L -17.6289,-120.055
 L -17.7893,-120.396 L -17.9057,-120.754 L -17.9763,-121.124 L -18,-121.5 L -17.9763,-121.876 L -17.9057,-122.246
 L -17.7893,-122.604 L -17.6289,-122.945 L -17.427,-123.263 L -17.1869,-123.554 L -16.9123,-123.812 L -16.6075,-124.033
 L -16.2773,-124.214 L -15.927,-124.353 L -15.5621,-124.447 L -15.1884,-124.494 L -14.8116,-124.494 L -14.4379,-124.447
 L -14.0729,-124.353 L -13.7227,-124.214 L -13.3925,-124.033 L -13.0877,-123.812 L -12.8131,-123.554 L -12.5729,-123.263
 L -12.3711,-122.945 L -12.2107,-122.604 L -12.0942,-122.246 L -12.0237,-121.876 L -12,-121.5 L -12.0237,-121.124
 L -12.0942,-120.754 L -12.2107,-120.396 L -12.3711,-120.055 L -12.4693,-119.9 L -12.4693,-117 L -9.75375,-117
 L -9.75375,-111.6 L -12.4693,-111.6 L -12.4693,-108 L -2.53072,-108 L -2.53072,-111.6 L -5.24623,-111.6
 L -5.24623,-117 L -2.53072,-117 L -2.53072,-119.9 L -2.62891,-120.055 L -2.78932,-120.396 L -2.90575,-120.754
 L -2.97633,-121.124 L -3,-121.5 L -2.97633,-121.876 L -2.90575,-122.246 L -2.78932,-122.604 L -2.62891,-122.945
 L -2.42705,-123.263 L -2.1869,-123.554 L -1.91226,-123.812 L -1.60747,-124.033 L -1.27733,-124.214 L -0.927048,-124.353
 L -0.562134,-124.447 L -0.18837,-124.494 L 0.18837,-124.494 L 0.562134,-124.447 L 0.927048,-124.353 L 1.27733,-124.214
 L 1.60747,-124.033 L 1.91226,-123.812 L 2.1869,-123.554 L 2.42705,-123.263 L 2.62891,-122.945 L 2.78932,-122.604
 L 2.90575,-122.246 L 2.97633,-121.876 L 3,-121.5 L 2.97633,-121.124 L 2.90575,-120.754 L 2.78932,-120.396
 L 2.62891,-120.055 L 2.53072,-119.9 L 2.53072,-117 L 5.24623,-117 L 5.24623,-111.6 L 2.53072,-111.6
 L 2.53072,-108 L 12.4693,-108 L 12.4693,-111.6 L 9.75375,-111.6 L 9.75375,-117 L 12.4693,-117
 L 12.4693,-119.9 L 12.3711,-120.055 L 12.2107,-120.396 L 12.0942,-120.754 L 12.0237,-121.124 L 12,-121.5
 L 12.0237,-121.876 L 12.0942,-122.246 L 12.2107,-122.604 L 12.3711,-122.945 L 12.5729,-123.263 L 12.8131,-123.554
 L 13.0877,-123.812 L 13.3925,-124.033 L 13.7227,-124.214 L 14.0729,-124.353 L 14.4379,-124.447 L 14.8116,-124.494
 L 15.1884,-124.494 L 15.5621,-124.447 L 15.927,-124.353 L 16.2773,-124.214 L 16.6075,-124.033 L 16.9123,-123.812
 L 17.1869,-123.554 L 17.427,-123.263 L 17.6289,-122.945 L 17.7893,-122.604 L 17.9057,-122.246 L 17.9763,-121.876
 L 18,-121.5 L 17.9763,-121.124 L 17.9057,-120.754 L 17.7893,-120.396 L 17.6289,-120.055 L 17.5307,-119.9
 L 17.5307,-117 L 20.2462,-117 L 20.2462,-111.6 L 17.5307,-111.6 L 17.5307,-108 L 22,-108
 L 22,-153.5 L 21.9606,-154.127 L 21.8429,-154.743 L 21.6489,-155.341 L 21.3815,-155.909 L 21.0451,-156.439
 L 20.6448,-156.923 L 20.1871,-157.353 L 19.6791,-157.722 L 19.1289,-158.024 L 18.5451,-158.255 L 17.9369,-158.411
 L 17.3139,-158.49 L -17.3139,-158.49 L -17.9369,-158.411 L -18.5451,-158.255 L -19.1289,-158.024 L -19.6791,-157.722
 L -20.1871,-157.353 L -20.6448,-156.923 L -21.0451,-156.439 L -21.3815,-155.909 L -21.6489,-155.341 L -21.8429,-154.743
 L -21.9606,-154.127 L -22,-153.5 L -22,-108 L -17.5307,-108 z
M -0.18837,-148.506 L -0.562134,-148.553 L -0.927048,-148.647 L -1.27733,-148.786 L -1.60747,-148.967 L -1.91226,-149.188
 L -2.1869,-149.446 L -2.42705,-149.737 L -2.62891,-150.055 L -2.78932,-150.396 L -2.90575,-150.754 L -2.97633,-151.124
 L -3,-151.5 L -2.97633,-151.876 L -2.90575,-152.246 L -2.78932,-152.604 L -2.62891,-152.945 L -2.42705,-153.263
 L -2.1869,-153.554 L -1.91226,-153.812 L -1.60747,-154.033 L -1.27733,-154.214 L -0.927048,-154.353 L -0.562134,-154.447
 L -0.18837,-154.494 L 0.18837,-154.494 L 0.562134,-154.447 L 0.927048,-154.353 L 1.27733,-154.214 L 1.60747,-154.033
 L 1.91226,-153.812 L 2.1869,-153.554 L 2.42705,-153.263 L 2.62891,-152.945 L 2.78932,-152.604 L 2.90575,-152.246
 L 2.97633,-151.876 L 3,-151.5 L 2.97633,-151.124 L 2.90575,-150.754 L 2.78932,-150.396 L 2.62891,-150.055
 L 2.42705,-149.737 L 2.1869,-149.446 L 1.91226,-149.188 L 1.60747,-148.967 L 1.27733,-148.786 L 0.927048,-148.647
 L 0.562134,-148.553 L 0.18837,-148.506 z
M 14.8116,-148.506 L 14.4379,-148.553 L 14.0729,-148.647 L 13.7227,-148.786 L 13.3925,-148.967 L 13.0877,-149.188
 L 12.8131,-149.446 L 12.5729,-149.737 L 12.3711,-150.055 L 12.2107,-150.396 L 12.0942,-150.754 L 12.0237,-151.124
 L 12,-151.5 L 12.0237,-151.876 L 12.0942,-152.246 L 12.2107,-152.604 L 12.3711,-152.945 L 12.5729,-153.263
 L 12.8131,-153.554 L 13.0877,-153.812 L 13.3925,-154.033 L 13.7227,-154.214 L 14.0729,-154.353 L 14.4379,-154.447
 L 14.8116,-154.494 L 15.1884,-154.494 L 15.5621,-154.447 L 15.927,-154.353 L 16.2773,-154.214 L 16.6075,-154.033
 L 16.9123,-153.812 L 17.1869,-153.554 L 17.427,-153.263 L 17.6289,-152.945 L 17.7893,-152.604 L 17.9057,-152.246
 L 17.9763,-151.876 L 18,-151.5 L 17.9763,-151.124 L 17.9057,-150.754 L 17.7893,-150.396 L 17.6289,-150.055
 L 17.427,-149.737 L 17.1869,-149.446 L 16.9123,-149.188 L 16.6075,-148.967 L 16.2773,-148.786 L 15.927,-148.647
 L 15.5621,-148.553 L 15.1884,-148.506 z
M -15.1884,-148.506 L -15.5621,-148.553 L -15.927,-148.647 L -16.2773,-148.786 L -16.6075,-148.967 L -16.9123,-149.188
 L -17.1869,-149.446 L -17.427,-149.737 L -17.6289,-150.055 L -17.7893,-150.396 L -17.9057,-150.754 L -17.9763,-151.124
 L -18,-151.5 L -17.9763,-151.876 L -17.9057,-152.246 L -17.7893,-152.604 L -17.6289,-152.945 L -17.427,-153.263
 L -17.1869,-153.554 L -16.9123,-153.812 L -16.6075,-154.033 L -16.2773,-154.214 L -15.927,-154.353 L -15.5621,-154.447
 L -15.1884,-154.494 L -14.8116,-154.494 L -14.4379,-154.447 L -14.0729,-154.353 L -13.7227,-154.214 L -13.3925,-154.033
 L -13.0877,-153.812 L -12.8131,-153.554 L -12.5729,-153.263 L -12.3711,-152.945 L -12.2107,-152.604 L -12.0942,-152.246
 L -12.0237,-151.876 L -12,-151.5 L -12.0237,-151.124 L -12.0942,-150.754 L -12.2107,-150.396 L -12.3711,-150.055
 L -12.5729,-149.737 L -12.8131,-149.446 L -13.0877,-149.188 L -13.3925,-148.967 L -13.7227,-148.786 L -14.0729,-148.647
 L -14.4379,-148.553 L -14.8116,-148.506 z
M -0.18837,-133.506 L -0.562134,-133.553 L -0.927048,-133.647 L -1.27733,-133.786 L -1.60747,-133.967 L -1.91226,-134.188
 L -2.1869,-134.446 L -2.42705,-134.737 L -2.62891,-135.055 L -2.78932,-135.396 L -2.90575,-135.754 L -2.97633,-136.124
 L -3,-136.5 L -2.97633,-136.876 L -2.90575,-137.246 L -2.78932,-137.604 L -2.62891,-137.945 L -2.42705,-138.263
 L -2.1869,-138.554 L -1.91226,-138.812 L -1.60747,-139.033 L -1.27733,-139.214 L -0.927048,-139.353 L -0.562134,-139.447
 L -0.18837,-139.494 L 0.18837,-139.494 L 0.562134,-139.447 L 0.927048,-139.353 L 1.27733,-139.214 L 1.60747,-139.033
 L 1.91226,-138.812 L 2.1869,-138.554 L 2.42705,-138.263 L 2.62891,-137.945 L 2.78932,-137.604 L 2.90575,-137.246
 L 2.97633,-136.876 L 3,-136.5 L 2.97633,-136.124 L 2.90575,-135.754 L 2.78932,-135.396 L 2.62891,-135.055
 L 2.42705,-134.737 L 2.1869,-134.446 L 1.91226,-134.188 L 1.60747,-133.967 L 1.27733,-133.786 L 0.927048,-133.647
 L 0.562134,-133.553 L 0.18837,-133.506 z
M 14.8116,-133.506 L 14.4379,-133.553 L 14.0729,-133.647 L 13.7227,-133.786 L 13.3925,-133.967 L 13.0877,-134.188
 L 12.8131,-134.446 L 12.5729,-134.737 L 12.3711,-135.055 L 12.2107,-135.396 L 12.0942,-135.754 L 12.0237,-136.124
 L 12,-136.5 L 12.0237,-136.876 L 12.0942,-137.246 L 12.2107,-137.604 L 12.3711,-137.945 L 12.5729,-138.263
 L 12.8131,-138.554 L 13.0877,-138.812 L 13.3925,-139.033 L 13.7227,-139.214 L 14.0729,-139.353 L 14.4379,-139.447
 L 14.8116,-139.494 L 15.1884,-139.494 L 15.5621,-139.447 L 15.927,-139.353 L 16.2773,-139.214 L 16.6075,-139.033
 L 16.9123,-138.812 L 17.1869,-138.554 L 17.427,-138.263 L 17.6289,-137.945 L 17.7893,-137.604 L 17.9057,-137.246
 L 17.9763,-136.876 L 18,-136.5 L 17.9763,-136.124 L 17.9057,-135.754 L 17.7893,-135.396 L 17.6289,-135.055
 L 17.427,-134.737 L 17.1869,-134.446 L 16.9123,-134.188 L 16.6075,-133.967 L 16.2773,-133.786 L 15.927,-133.647
 L 15.5621,-133.553 L 15.1884,-133.506 z
M -15.1884,-133.506 L -15.5621,-133.553 L -15.927,-133.647 L -16.2773,-133.786 L -16.6075,-133.967 L -16.9123,-134.188
 L -17.1869,-134.446 L -17.427,-134.737 L -17.6289,-135.055 L -17.7893,-135.396 L -17.9057,-135.754 L -17.9763,-136.124
 L -18,-136.5 L -17.9763,-136.876 L -17.9057,-137.246 L -17.7893,-137.604 L -17.6289,-137.945 L -17.427,-138.263
 L -17.1869,-138.554 L -16.9123,-138.812 L -16.6075,-139.033 L -16.2773,-139.214 L -15.927,-139.353 L -15.5621,-139.447
 L -15.1884,-139.494 L -14.8116,-139.494 L -14.4379,-139.447 L -14.0729,-139.353 L -13.7227,-139.214 L -13.3925,-139.033
 L -13.0877,-138.812 L -12.8131,-138.554 L -12.5729,-138.263 L -12.3711,-137.945 L -12.2107,-137.604 L -12.0942,-137.246
 L -12.0237,-136.876 L -12,-136.5 L -12.0237,-136.124 L -12.0942,-135.754 L -12.2107,-135.396 L -12.3711,-135.055
 L -12.5729,-134.737 L -12.8131,-134.446 L -13.0877,-134.188 L -13.3925,-133.967 L -13.7227,-133.786 L -14.0729,-133.647
 L -14.4379,-133.553 L -14.8116,-133.506 z
M 5.82671,-118.602 L 4.15341,-121.5 L 5.82671,-124.398 L 9.17329,-124.398 L 10.8466,-121.5 L 9.17329,-118.602
 z
M -9.17329,-118.602 L -10.8466,-121.5 L -9.17329,-124.398 L -5.82671,-124.398 L -4.15341,-121.5 L -5.82671,-118.602
 z
M -17.5942,-57.6 L -20.304,-57.6 L -20.304,-63 L -17.5942,-63 L -17.5942,-66 L -17.6289,-66.0547
 L -17.7893,-66.3956 L -17.9057,-66.7539 L -17.9763,-67.124 L -18,-67.5 L -17.9763,-67.876 L -17.9057,-68.2461
 L -17.7893,-68.6044 L -17.6289,-68.9453 L -17.427,-69.2634 L -17.1869,-69.5536 L -16.9123,-69.8115 L -16.6075,-70.033
 L -16.2773,-70.2145 L -15.927,-70.3532 L -15.5621,-70.4469 L -15.1884,-70.4941 L -14.8116,-70.4941 L -14.4379,-70.4469
 L -14.0729,-70.3532 L -13.7227,-70.2145 L -13.3925,-70.033 L -13.0877,-69.8115 L -12.8131,-69.5536 L -12.5729,-69.2634
 L -12.3711,-68.9453 L -12.2107,-68.6044 L -12.0942,-68.2461 L -12.0237,-67.876 L -12,-67.5 L -12.0237,-67.124
 L -12.0942,-66.7539 L -12.2107,-66.3956 L -12.3711,-66.0547 L -12.4058,-66 L -12.4058,-63 L -9.69603,-63
 L -9.69603,-57.6 L -12.4058,-57.6 L -12.4058,-54 L -2.59418,-54 L -2.59418,-57.6 L -5.30396,-57.6
 L -5.30396,-63 L -2.59418,-63 L -2.59418,-66 L -2.62891,-66.0547 L -2.78932,-66.3956 L -2.90575,-66.7539
 L -2.97633,-67.124 L -3,-67.5 L -2.97633,-67.876 L -2.90575,-68.2461 L -2.78932,-68.6044 L -2.62891,-68.9453
 L -2.42705,-69.2634 L -2.1869,-69.5536 L -1.91226,-69.8115 L -1.60747,-70.033 L -1.27733,-70.2145 L -0.927048,-70.3532
 L -0.562134,-70.4469 L -0.18837,-70.4941 L 0.18837,-70.4941 L 0.562134,-70.4469 L 0.927048,-70.3532 L 1.27733,-70.2145
 L 1.60747,-70.033 L 1.91226,-69.8115 L 2.1869,-69.5536 L 2.42705,-69.2634 L 2.62891,-68.9453 L 2.78932,-68.6044
 L 2.90575,-68.2461 L 2.97633,-67.876 L 3,-67.5 L 2.97633,-67.124 L 2.90575,-66.7539 L 2.78932,-66.3956
 L 2.62891,-66.0547 L 2.59418,-66 L 2.59418,-63 L 5.30396,-63 L 5.30396,-57.6 L 2.59418,-57.6
 L 2.59418,-54 L 12.4058,-54 L 12.4058,-57.6 L 9.69603,-57.6 L 9.69603,-63 L 12.4058,-63
 L 12.4058,-66 L 12.3711,-66.0547 L 12.2107,-66.3956 L 12.0942,-66.7539 L 12.0237,-67.124 L 12,-67.5
 L 12.0237,-67.876 L 12.0942,-68.2461 L 12.2107,-68.6044 L 12.3711,-68.9453 L 12.5729,-69.2634 L 12.8131,-69.5536
 L 13.0877,-69.8115 L 13.3925,-70.033 L 13.7227,-70.2145 L 14.0729,-70.3532 L 14.4379,-70.4469 L 14.8116,-70.4941
 L 15.1884,-70.4941 L 15.5621,-70.4469 L 15.927,-70.3532 L 16.2773,-70.2145 L 16.6075,-70.033 L 16.9123,-69.8115
 L 17.1869,-69.5536 L 17.427,-69.2634 L 17.6289,-68.9453 L 17.7893,-68.6044 L 17.9057,-68.2461 L 17.9763,-67.876
 L 18,-67.5 L 17.9763,-67.124 L 17.9057,-66.7539 L 17.7893,-66.3956 L 17.6289,-66.0547 L 17.5942,-66
 L 17.5942,-63 L 20.304,-63 L 20.304,-57.6 L 17.5942,-57.6 L 17.5942,-54 L 22,-54
 L 22,-99.5 L 21.9606,-100.127 L 21.8429,-100.743 L 21.6489,-101.341 L 21.3815,-101.909 L 21.0451,-102.439
 L 20.6448,-102.923 L 20.1871,-103.353 L 19.6791,-103.722 L 19.1289,-104.024 L 18.5451,-104.255 L 17.9369,-104.411
 L 17.3139,-104.49 L -17.3139,-104.49 L -17.9369,-104.411 L -18.5451,-104.255 L -19.1289,-104.024 L -19.6791,-103.722
 L -20.1871,-103.353 L -20.6448,-102.923 L -21.0451,-102.439 L -21.3815,-101.909 L -21.6489,-101.341 L -21.8429,-100.743
 L -21.9606,-100.127 L -22,-99.5 L -22,-54 L -17.5942,-54 z
M 14.8116,-94.5059 L 14.4379,-94.5531 L 14.0729,-94.6468 L 13.7227,-94.7855 L 13.3925,-94.967 L 13.0877,-95.1885
 L 12.8131,-95.4464 L 12.5729,-95.7366 L 12.3711,-96.0547 L 12.2107,-96.3956 L 12.0942,-96.7539 L 12.0237,-97.124
 L 12,-97.5 L 12.0237,-97.876 L 12.0942,-98.2461 L 12.2107,-98.6044 L 12.3711,-98.9453 L 12.5729,-99.2634
 L 12.8131,-99.5536 L 13.0877,-99.8115 L 13.3925,-100.033 L 13.7227,-100.214 L 14.0729,-100.353 L 14.4379,-100.447
 L 14.8116,-100.494 L 15.1884,-100.494 L 15.5621,-100.447 L 15.927,-100.353 L 16.2773,-100.214 L 16.6075,-100.033
 L 16.9123,-99.8115 L 17.1869,-99.5536 L 17.427,-99.2634 L 17.6289,-98.9453 L 17.7893,-98.6044 L 17.9057,-98.2461
 L 17.9763,-97.876 L 18,-97.5 L 17.9763,-97.124 L 17.9057,-96.7539 L 17.7893,-96.3956 L 17.6289,-96.0547
 L 17.427,-95.7366 L 17.1869,-95.4464 L 16.9123,-95.1885 L 16.6075,-94.967 L 16.2773,-94.7855 L 15.927,-94.6468
 L 15.5621,-94.5531 L 15.1884,-94.5059 z
M -15.1884,-94.5059 L -15.5621,-94.5531 L -15.927,-94.6468 L -16.2773,-94.7855 L -16.6075,-94.967 L -16.9123,-95.1885
 L -17.1869,-95.4464 L -17.427,-95.7366 L -17.6289,-96.0547 L -17.7893,-96.3956 L -17.9057,-96.7539 L -17.9763,-97.124
 L -18,-97.5 L -17.9763,-97.876 L -17.9057,-98.2461 L -17.7893,-98.6044 L -17.6289,-98.9453 L -17.427,-99.2634
 L -17.1869,-99.5536 L -16.9123,-99.8115 L -16.6075,-100.033 L -16.2773,-100.214 L -15.927,-100.353 L -15.5621,-100.447
 L -15.1884,-100.494 L -14.8116,-100.494 L -14.4379,-100.447 L -14.0729,-100.353 L -13.7227,-100.214 L -13.3925,-100.033
 L -13.0877,-99.8115 L -12.8131,-99.5536 L -12.5729,-99.2634 L -12.3711,-98.9453 L -12.2107,-98.6044 L -12.0942,-98.2461
 L -12.0237,-97.876 L -12,-97.5 L -12.0237,-97.124 L -12.0942,-96.7539 L -12.2107,-96.3956 L -12.3711,-96.0547
 L -12.5729,-95.7366 L -12.8131,-95.4464 L -13.0877,-95.1885 L -13.3925,-94.967 L -13.7227,-94.7855 L -14.0729,-94.6468
 L -14.4379,-94.5531 L -14.8116,-94.5059 z
M -0.18837,-94.5059 L -0.562134,-94.5531 L -0.927048,-94.6468 L -1.27733,-94.7855 L -1.60747,-94.967 L -1.91226,-95.1885
 L -2.1869,-95.4464 L -2.42705,-95.7366 L -2.62891,-96.0547 L -2.78932,-96.3956 L -2.90575,-96.7539 L -2.97633,-97.124
 L -3,-97.5 L -2.97633,-97.876 L -2.90575,-98.2461 L -2.78932,-98.6044 L -2.62891,-98.9453 L -2.42705,-99.2634
 L -2.1869,-99.5536 L -1.91226,-99.8115 L -1.60747,-100.033 L -1.27733,-100.214 L -0.927048,-100.353 L -0.562134,-100.447
 L -0.18837,-100.494 L 0.18837,-100.494 L 0.562134,-100.447 L 0.927048,-100.353 L 1.27733,-100.214 L 1.60747,-100.033
 L 1.91226,-99.8115 L 2.1869,-99.5536 L 2.42705,-99.2634 L 2.62891,-98.9453 L 2.78932,-98.6044 L 2.90575,-98.2461
 L 2.97633,-97.876 L 3,-97.5 L 2.97633,-97.124 L 2.90575,-96.7539 L 2.78932,-96.3956 L 2.62891,-96.0547
 L 2.42705,-95.7366 L 2.1869,-95.4464 L 1.91226,-95.1885 L 1.60747,-94.967 L 1.27733,-94.7855 L 0.927048,-94.6468
 L 0.562134,-94.5531 L 0.18837,-94.5059 z
M -0.18837,-79.5059 L -0.562134,-79.5531 L -0.927048,-79.6468 L -1.27733,-79.7855 L -1.60747,-79.967 L -1.91226,-80.1884
 L -2.1869,-80.4464 L -2.42705,-80.7366 L -2.62891,-81.0547 L -2.78932,-81.3956 L -2.90575,-81.7539 L -2.97633,-82.124
 L -3,-82.5 L -2.97633,-82.876 L -2.90575,-83.2461 L -2.78932,-83.6044 L -2.62891,-83.9453 L -2.42705,-84.2634
 L -2.1869,-84.5536 L -1.91226,-84.8115 L -1.60747,-85.033 L -1.27733,-85.2145 L -0.927048,-85.3532 L -0.562134,-85.4469
 L -0.18837,-85.4941 L 0.18837,-85.4941 L 0.562134,-85.4469 L 0.927048,-85.3532 L 1.27733,-85.2145 L 1.60747,-85.033
 L 1.91226,-84.8115 L 2.1869,-84.5536 L 2.42705,-84.2634 L 2.62891,-83.9453 L 2.78932,-83.6044 L 2.90575,-83.2461
 L 2.97633,-82.876 L 3,-82.5 L 2.97633,-82.124 L 2.90575,-81.7539 L 2.78932,-81.3956 L 2.62891,-81.0547
 L 2.42705,-80.7366 L 2.1869,-80.4464 L 1.91226,-80.1884 L 1.60747,-79.967 L 1.27733,-79.7855 L 0.927048,-79.6468
 L 0.562134,-79.5531 L 0.18837,-79.5059 z
M -15.1884,-79.5059 L -15.5621,-79.5531 L -15.927,-79.6468 L -16.2773,-79.7855 L -16.6075,-79.967 L -16.9123,-80.1884
 L -17.1869,-80.4464 L -17.427,-80.7366 L -17.6289,-81.0547 L -17.7893,-81.3956 L -17.9057,-81.7539 L -17.9763,-82.124
 L -18,-82.5 L -17.9763,-82.876 L -17.9057,-83.2461 L -17.7893,-83.6044 L -17.6289,-83.9453 L -17.427,-84.2634
 L -17.1869,-84.5536 L -16.9123,-84.8115 L -16.6075,-85.033 L -16.2773,-85.2145 L -15.927,-85.3532 L -15.5621,-85.4469
 L -15.1884,-85.4941 L -14.8116,-85.4941 L -14.4379,-85.4469 L -14.0729,-85.3532 L -13.7227,-85.2145 L -13.3925,-85.033
 L -13.0877,-84.8115 L -12.8131,-84.5536 L -12.5729,-84.2634 L -12.3711,-83.9453 L -12.2107,-83.6044 L -12.0942,-83.2461
 L -12.0237,-82.876 L -12,-82.5 L -12.0237,-82.124 L -12.0942,-81.7539 L -12.2107,-81.3956 L -12.3711,-81.0547
 L -12.5729,-80.7366 L -12.8131,-80.4464 L -13.0877,-80.1884 L -13.3925,-79.967 L -13.7227,-79.7855 L -14.0729,-79.6468
 L -14.4379,-79.5531 L -14.8116,-79.5059 z
M 14.8116,-79.5059 L 14.4379,-79.5531 L 14.0729,-79.6468 L 13.7227,-79.7855 L 13.3925,-79.967 L 13.0877,-80.1884
 L 12.8131,-80.4464 L 12.5729,-80.7366 L 12.3711,-81.0547 L 12.2107,-81.3956 L 12.0942,-81.7539 L 12.0237,-82.124
 L 12,-82.5 L 12.0237,-82.876 L 12.0942,-83.2461 L 12.2107,-83.6044 L 12.3711,-83.9453 L 12.5729,-84.2634
 L 12.8131,-84.5536 L 13.0877,-84.8115 L 13.3925,-85.033 L 13.7227,-85.2145 L 14.0729,-85.3532 L 14.4379,-85.4469
 L 14.8116,-85.4941 L 15.1884,-85.4941 L 15.5621,-85.4469 L 15.927,-85.3532 L 16.2773,-85.2145 L 16.6075,-85.033
 L 16.9123,-84.8115 L 17.1869,-84.5536 L 17.427,-84.2634 L 17.6289,-83.9453 L 17.7893,-83.6044 L 17.9057,-83.2461
 L 17.9763,-82.876 L 18,-82.5 L 17.9763,-82.124 L 17.9057,-81.7539 L 17.7893,-81.3956 L 17.6289,-81.0547
 L 17.427,-80.7366 L 17.1869,-80.4464 L 16.9123,-80.1884 L 16.6075,-79.967 L 16.2773,-79.7855 L 15.927,-79.6468
 L 15.5621,-79.5531 L 15.1884,-79.5059 z
M -9.17329,-64.6018 L -10.8466,-67.5 L -9.17329,-70.3982 L -5.82671,-70.3982 L -4.15341,-67.5 L -5.82671,-64.6018
 z
M 5.82671,-64.6018 L 4.15341,-67.5 L 5.82671,-70.3982 L 9.17329,-70.3982 L 10.8466,-67.5 L 9.17329,-64.6018
 z
M 22,-45.5 L 21.9606,-46.1267 L 21.8429,-46.7434 L 21.6489,-47.3406 L 21.3815,-47.9088 L 21.0451,-48.4389
 L 20.6448,-48.9227 L 20.1871,-49.3526 L 19.6791,-49.7216 L 19.1289,-50.0241 L 18.5451,-50.2553 L 17.9369,-50.4114
 L 17.3139,-50.4901 L -17.3139,-50.4901 L -17.9369,-50.4114 L -18.5451,-50.2553 L -19.1289,-50.0241 L -19.6791,-49.7216
 L -20.1871,-49.3526 L -20.6448,-48.9227 L -21.0451,-48.4389 L -21.3815,-47.9088 L -21.6489,-47.3406 L -21.8429,-46.7434
 L -21.9606,-46.1267 L -22,-45.5 L -22,-0 L 22,-0 z
M -0.18837,-40.5059 L -0.562134,-40.5531 L -0.927048,-40.6468 L -1.27733,-40.7855 L -1.60747,-40.967 L -1.91226,-41.1885
 L -2.1869,-41.4464 L -2.42705,-41.7366 L -2.62891,-42.0547 L -2.78932,-42.3956 L -2.90575,-42.7539 L -2.97633,-43.124
 L -3,-43.5 L -2.97633,-43.876 L -2.90575,-44.2461 L -2.78932,-44.6044 L -2.62891,-44.9453 L -2.42705,-45.2634
 L -2.1869,-45.5536 L -1.91226,-45.8115 L -1.60747,-46.033 L -1.27733,-46.2145 L -0.927048,-46.3532 L -0.562134,-46.4469
 L -0.18837,-46.4941 L 0.18837,-46.4941 L 0.562134,-46.4469 L 0.927048,-46.3532 L 1.27733,-46.2145 L 1.60747,-46.033
 L 1.91226,-45.8115 L 2.1869,-45.5536 L 2.42705,-45.2634 L 2.62891,-44.9453 L 2.78932,-44.6044 L 2.90575,-44.2461
 L 2.97633,-43.876 L 3,-43.5 L 2.97633,-43.124 L 2.90575,-42.7539 L 2.78932,-42.3956 L 2.62891,-42.0547
 L 2.42705,-41.7366 L 2.1869,-41.4464 L 1.91226,-41.1885 L 1.60747,-40.967 L 1.27733,-40.7855 L 0.927048,-40.6468
 L 0.562134,-40.5531 L 0.18837,-40.5059 z
M -15.1884,-40.5059 L -15.5621,-40.5531 L -15.927,-40.6468 L -16.2773,-40.7855 L -16.6075,-40.967 L -16.9123,-41.1885
 L -17.1869,-41.4464 L -17.427,-41.7366 L -17.6289,-42.0547 L -17.7893,-42.3956 L -17.9057,-42.7539 L -17.9763,-43.124
 L -18,-43.5 L -17.9763,-43.876 L -17.9057,-44.2461 L -17.7893,-44.6044 L -17.6289,-44.9453 L -17.427,-45.2634
 L -17.1869,-45.5536 L -16.9123,-45.8115 L -16.6075,-46.033 L -16.2773,-46.2145 L -15.927,-46.3532 L -15.5621,-46.4469
 L -15.1884,-46.4941 L -14.8116,-46.4941 L -14.4379,-46.4469 L -14.0729,-46.3532 L -13.7227,-46.2145 L -13.3925,-46.033
 L -13.0877,-45.8115 L -12.8131,-45.5536 L -12.5729,-45.2634 L -12.3711,-44.9453 L -12.2107,-44.6044 L -12.0942,-44.2461
 L -12.0237,-43.876 L -12,-43.5 L -12.0237,-43.124 L -12.0942,-42.7539 L -12.2107,-42.3956 L -12.3711,-42.0547
 L -12.5729,-41.7366 L -12.8131,-41.4464 L -13.0877,-41.1885 L -13.3925,-40.967 L -13.7227,-40.7855 L -14.0729,-40.6468
 L -14.4379,-40.5531 L -14.8116,-40.5059 z
M 14.8116,-40.5059 L 14.4379,-40.5531 L 14.0729,-40.6468 L 13.7227,-40.7855 L 13.3925,-40.967 L 13.0877,-41.1885
 L 12.8131,-41.4464 L 12.5729,-41.7366 L 12.3711,-42.0547 L 12.2107,-42.3956 L 12.0942,-42.7539 L 12.0237,-43.124
 L 12,-43.5 L 12.0237,-43.876 L 12.0942,-44.2461 L 12.2107,-44.6044 L 12.3711,-44.9453 L 12.5729,-45.2634
 L 12.8131,-45.5536 L 13.0877,-45.8115 L 13.3925,-46.033 L 13.7227,-46.2145 L 14.0729,-46.3532 L 14.4379,-46.4469
 L 14.8116,-46.4941 L 15.1884,-46.4941 L 15.5621,-46.4469 L 15.927,-46.3532 L 16.2773,-46.2145 L 16.6075,-46.033
 L 16.9123,-45.8115 L 17.1869,-45.5536 L 17.427,-45.2634 L 17.6289,-44.9453 L 17.7893,-44.6044 L 17.9057,-44.2461
 L 17.9763,-43.876 L 18,-43.5 L 17.9763,-43.124 L 17.9057,-42.7539 L 17.7893,-42.3956 L 17.6289,-42.0547
 L 17.427,-41.7366 L 17.1869,-41.4464 L 16.9123,-41.1885 L 16.6075,-40.967 L 16.2773,-40.7855 L 15.927,-40.6468
 L 15.5621,-40.5531 L 15.1884,-40.5059 z
M -15.1884,-25.5059 L -15.5621,-25.5531 L -15.927,-25.6468 L -16.2773,-25.7855 L -16.6075,-25.967 L -16.9123,-26.1884
 L -17.1869,-26.4464 L -17.427,-26.7366 L -17.6289,-27.0547 L -17.7893,-27.3956 L -17.9057,-27.7539 L -17.9763,-28.124
 L -18,-28.5 L -17.9763,-28.876 L -17.9057,-29.2461 L -17.7893,-29.6044 L -17.6289,-29.9453 L -17.427,-30.2634
 L -17.1869,-30.5536 L -16.9123,-30.8115 L -16.6075,-31.033 L -16.2773,-31.2145 L -15.927,-31.3532 L -15.5621,-31.4469
 L -15.1884,-31.4941 L -14.8116,-31.4941 L -14.4379,-31.4469 L -14.0729,-31.3532 L -13.7227,-31.2145 L -13.3925,-31.033
 L -13.0877,-30.8115 L -12.8131,-30.5536 L -12.5729,-30.2634 L -12.3711,-29.9453 L -12.2107,-29.6044 L -12.0942,-29.2461
 L -12.0237,-28.876 L -12,-28.5 L -12.0237,-28.124 L -12.0942,-27.7539 L -12.2107,-27.3956 L -12.3711,-27.0547
 L -12.5729,-26.7366 L -12.8131,-26.4464 L -13.0877,-26.1884 L -13.3925,-25.967 L -13.7227,-25.7855 L -14.0729,-25.6468
 L -14.4379,-25.5531 L -14.8116,-25.5059 z
M -0.18837,-25.5059 L -0.562134,-25.5531 L -0.927048,-25.6468 L -1.27733,-25.7855 L -1.60747,-25.967 L -1.91226,-26.1884
 L -2.1869,-26.4464 L -2.42705,-26.7366 L -2.62891,-27.0547 L -2.78932,-27.3956 L -2.90575,-27.7539 L -2.97633,-28.124
 L -3,-28.5 L -2.97633,-28.876 L -2.90575,-29.2461 L -2.78932,-29.6044 L -2.62891,-29.9453 L -2.42705,-30.2634
 L -2.1869,-30.5536 L -1.91226,-30.8115 L -1.60747,-31.033 L -1.27733,-31.2145 L -0.927048,-31.3532 L -0.562134,-31.4469
 L -0.18837,-31.4941 L 0.18837,-31.4941 L 0.562134,-31.4469 L 0.927048,-31.3532 L 1.27733,-31.2145 L 1.60747,-31.033
 L 1.91226,-30.8115 L 2.1869,-30.5536 L 2.42705,-30.2634 L 2.62891,-29.9453 L 2.78932,-29.6044 L 2.90575,-29.2461
 L 2.97633,-28.876 L 3,-28.5 L 2.97633,-28.124 L 2.90575,-27.7539 L 2.78932,-27.3956 L 2.62891,-27.0547
 L 2.42705,-26.7366 L 2.1869,-26.4464 L 1.91226,-26.1884 L 1.60747,-25.967 L 1.27733,-25.7855 L 0.927048,-25.6468
 L 0.562134,-25.5531 L 0.18837,-25.5059 z
M 14.8116,-25.5059 L 14.4379,-25.5531 L 14.0729,-25.6468 L 13.7227,-25.7855 L 13.3925,-25.967 L 13.0877,-26.1884
 L 12.8131,-26.4464 L 12.5729,-26.7366 L 12.3711,-27.0547 L 12.2107,-27.3956 L 12.0942,-27.7539 L 12.0237,-28.124
 L 12,-28.5 L 12.0237,-28.876 L 12.0942,-29.2461 L 12.2107,-29.6044 L 12.3711,-29.9453 L 12.5729,-30.2634
 L 12.8131,-30.5536 L 13.0877,-30.8115 L 13.3925,-31.033 L 13.7227,-31.2145 L 14.0729,-31.3532 L 14.4379,-31.4469
 L 14.8116,-31.4941 L 15.1884,-31.4941 L 15.5621,-31.4469 L 15.927,-31.3532 L 16.2773,-31.2145 L 16.6075,-31.033
 L 16.9123,-30.8115 L 17.1869,-30.5536 L 17.427,-30.2634 L 17.6289,-29.9453 L 17.7893,-29.6044 L 17.9057,-29.2461
 L 17.9763,-28.876 L 18,-28.5 L 17.9763,-28.124 L 17.9057,-27.7539 L 17.7893,-27.3956 L 17.6289,-27.0547
 L 17.427,-26.7366 L 17.1869,-26.4464 L 16.9123,-26.1884 L 16.6075,-25.967 L 16.2773,-25.7855 L 15.927,-25.6468
 L 15.5621,-25.5531 L 15.1884,-25.5059 z
M -0.18837,-10.5059 L -0.562134,-10.5531 L -0.927048,-10.6468 L -1.27733,-10.7855 L -1.60747,-10.967 L -1.91226,-11.1884
 L -2.1869,-11.4464 L -2.42705,-11.7366 L -2.62891,-12.0547 L -2.78932,-12.3956 L -2.90575,-12.7539 L -2.97633,-13.124
 L -3,-13.5 L -2.97633,-13.876 L -2.90575,-14.2461 L -2.78932,-14.6044 L -2.62891,-14.9453 L -2.42705,-15.2634
 L -2.1869,-15.5536 L -1.91226,-15.8115 L -1.60747,-16.033 L -1.27733,-16.2145 L -0.927048,-16.3532 L -0.562134,-16.4469
 L -0.18837,-16.4941 L 0.18837,-16.4941 L 0.562134,-16.4469 L 0.927048,-16.3532 L 1.27733,-16.2145 L 1.60747,-16.033
 L 1.91226,-15.8115 L 2.1869,-15.5536 L 2.42705,-15.2634 L 2.62891,-14.9453 L 2.78932,-14.6044 L 2.90575,-14.2461
 L 2.97633,-13.876 L 3,-13.5 L 2.97633,-13.124 L 2.90575,-12.7539 L 2.78932,-12.3956 L 2.62891,-12.0547
 L 2.42705,-11.7366 L 2.1869,-11.4464 L 1.91226,-11.1884 L 1.60747,-10.967 L 1.27733,-10.7855 L 0.927048,-10.6468
 L 0.562134,-10.5531 L 0.18837,-10.5059 z
M -15.1884,-10.5059 L -15.5621,-10.5531 L -15.927,-10.6468 L -16.2773,-10.7855 L -16.6075,-10.967 L -16.9123,-11.1884
 L -17.1869,-11.4464 L -17.427,-11.7366 L -17.6289,-12.0547 L -17.7893,-12.3956 L -17.9057,-12.7539 L -17.9763,-13.124
 L -18,-13.5 L -17.9763,-13.876 L -17.9057,-14.2461 L -17.7893,-14.6044 L -17.6289,-14.9453 L -17.427,-15.2634
 L -17.1869,-15.5536 L -16.9123,-15.8115 L -16.6075,-16.033 L -16.2773,-16.2145 L -15.927,-16.3532 L -15.5621,-16.4469
 L -15.1884,-16.4941 L -14.8116,-16.4941 L -14.4379,-16.4469 L -14.0729,-16.3532 L -13.7227,-16.2145 L -13.3925,-16.033
 L -13.0877,-15.8115 L -12.8131,-15.5536 L -12.5729,-15.2634 L -12.3711,-14.9453 L -12.2107,-14.6044 L -12.0942,-14.2461
 L -12.0237,-13.876 L -12,-13.5 L -12.0237,-13.124 L -12.0942,-12.7539 L -12.2107,-12.3956 L -12.3711,-12.0547
 L -12.5729,-11.7366 L -12.8131,-11.4464 L -13.0877,-11.1884 L -13.3925,-10.967 L -13.7227,-10.7855 L -14.0729,-10.6468
 L -14.4379,-10.5531 L -14.8116,-10.5059 z
M 14.8116,-10.5059 L 14.4379,-10.5531 L 14.0729,-10.6468 L 13.7227,-10.7855 L 13.3925,-10.967 L 13.0877,-11.1884
 L 12.8131,-11.4464 L 12.5729,-11.7366 L 12.3711,-12.0547 L 12.2107,-12.3956 L 12.0942,-12.7539 L 12.0237,-13.124
 L 12,-13.5 L 12.0237,-13.876 L 12.0942,-14.2461 L 12.2107,-14.6044 L 12.3711,-14.9453 L 12.5729,-15.2634
 L 12.8131,-15.5536 L 13.0877,-15.8115 L 13.3925,-16.033 L 13.7227,-16.2145 L 14.0729,-16.3532 L 14.4379,-16.4469
 L 14.8116,-16.4941 L 15.1884,-16.4941 L 15.5621,-16.4469 L 15.927,-16.3532 L 16.2773,-16.2145 L 16.6075,-16.033
 L 16.9123,-15.8115 L 17.1869,-15.5536 L 17.427,-15.2634 L 17.6289,-14.9453 L 17.7893,-14.6044 L 17.9057,-14.2461
 L 17.9763,-13.876 L 18,-13.5 L 17.9763,-13.124 L 17.9057,-12.7539 L 17.7893,-12.3956 L 17.6289,-12.0547
 L 17.427,-11.7366 L 17.1869,-11.4464 L 16.9123,-11.1884 L 16.6075,-10.967 L 16.2773,-10.7855 L 15.927,-10.6468
 L 15.5621,-10.5531 L 15.1884,-10.5059 z
M 7.34929,-11.1047 L 7.05028,-11.1425 L 6.75835,-11.2175 L 6.47812,-11.3284 L 6.214,-11.4736 L 5.97017,-11.6508
 L 5.75047,-11.8571 L 5.55835,-12.0893 L 5.39685,-12.3438 L 5.26852,-12.6165 L 5.1754,-12.9031 L 5.11891,-13.1992
 L 5.09999,-13.5 L 5.11891,-13.8008 L 5.1754,-14.0968 L 5.26852,-14.3835 L 5.39685,-14.6562 L 5.55835,-14.9107
 L 5.75047,-15.1429 L 5.97017,-15.3492 L 6.214,-15.5264 L 6.47812,-15.6716 L 6.75835,-15.7825 L 7.05028,-15.8575
 L 7.34929,-15.8953 L 7.6507,-15.8953 L 7.94971,-15.8575 L 8.24164,-15.7825 L 8.52187,-15.6716 L 8.78598,-15.5264
 L 9.02982,-15.3492 L 9.24951,-15.1429 L 9.44164,-14.9107 L 9.60313,-14.6562 L 9.73146,-14.3835 L 9.82458,-14.0968
 L 9.88107,-13.8008 L 9.89999,-13.5 L 9.88107,-13.1992 L 9.82458,-12.9031 L 9.73146,-12.6165 L 9.60313,-12.3438
 L 9.44164,-12.0893 L 9.24951,-11.8571 L 9.02982,-11.6508 L 8.78598,-11.4736 L 8.52187,-11.3284 L 8.24164,-11.2175
 L 7.94971,-11.1425 L 7.6507,-11.1047 z
M -7.6507,-11.1047 L -7.94971,-11.1425 L -8.24164,-11.2175 L -8.52187,-11.3284 L -8.78598,-11.4736 L -9.02982,-11.6508
 L -9.24951,-11.8571 L -9.44164,-12.0893 L -9.60313,-12.3438 L -9.73146,-12.6165 L -9.82458,-12.9031 L -9.88107,-13.1992
 L -9.89999,-13.5 L -9.88107,-13.8008 L -9.82458,-14.0968 L -9.73146,-14.3835 L -9.60313,-14.6562 L -9.44164,-14.9107
 L -9.24951,-15.1429 L -9.02982,-15.3492 L -8.78598,-15.5264 L -8.52187,-15.6716 L -8.24164,-15.7825 L -7.94971,-15.8575
 L -7.6507,-15.8953 L -7.34929,-15.8953 L -7.05028,-15.8575 L -6.75835,-15.7825 L -6.47812,-15.6716 L -6.214,-15.5264
 L -5.97017,-15.3492 L -5.75047,-15.1429 L -5.55835,-14.9107 L -5.39685,-14.6562 L -5.26852,-14.3835 L -5.1754,-14.0968
 L -5.11891,-13.8008 L -5.09999,-13.5 L -5.11891,-13.1992 L -5.1754,-12.9031 L -5.26852,-12.6165 L -5.39685,-12.3438
 L -5.55835,-12.0893 L -5.75047,-11.8571 L -5.97017,-11.6508 L -6.214,-11.4736 L -6.47812,-11.3284 L -6.75835,-11.2175
 L -7.05028,-11.1425 L -7.34929,-11.1047 z
M -18.5719,-3.59999 L -18.5719,-9 L -11.4281,-9 L -11.4281,-3.59999 z
M -3.5719,-3.59999 L -3.5719,-9 L 3.5719,-9 L 3.5719,-3.59999 z
M 11.4281,-3.59999 L 11.4281,-9 L 18.5719,-9 L 18.5719,-3.59999 z
" stroke="black" fill="lightgray" stroke-width="0.5"/>
</svg>
