<?xml version="1.0" standalone="no"?>
<!DOCTYPE svg PUBLIC "-//W3C//DTD SVG 1.1//EN" "http://www.w3.org/Graphics/SVG/1.1/DTD/svg11.dtd">
<svg width="44mm" height="223mm" viewBox="-22 -437 44 223" xmlns="http://www.w3.org/2000/svg" version="1.1">
<title>OpenSCAD Model</title>
<path d="
M 17.9369,-400.339 L 18.5451,-400.495 L 19.1289,-400.726 L 19.6791,-401.028 L 20.1871,-401.397 L 20.6448,-401.827
 L 21.0451,-402.311 L 21.3815,-402.841 L 21.6489,-403.409 L 21.8429,-404.007 L 21.9606,-404.623 L 22,-405.25
 L 22,-431.75 L 21.9606,-432.377 L 21.8429,-432.993 L 21.6489,-433.591 L 21.3815,-434.159 L 21.0451,-434.689
 L 20.6448,-435.173 L 20.1871,-435.603 L 19.6791,-435.972 L 19.1289,-436.274 L 18.5451,-436.505 L 17.9369,-436.661
 L 17.3139,-436.74 L -17.3139,-436.74 L -17.9369,-436.661 L -18.5451,-436.505 L -19.1289,-436.274 L -19.6791,-435.972
 L -20.1871,-435.603 L -20.6448,-435.173 L -21.0451,-434.689 L -21.3815,-434.159 L -21.6489,-433.591 L -21.8429,-432.993
 L -21.9606,-432.377 L -22,-431.75 L -22,-405.25 L -21.9606,-404.623 L -21.8429,-404.007 L -21.6489,-403.409
 L -21.3815,-402.841 L -21.0451,-402.311 L -20.6448,-401.827 L -20.1871,-401.397 L -19.6791,-401.028 L -19.1289,-400.726
 L -18.5451,-400.495 L -17.9369,-400.339 L -17.3139,-400.26 L 17.3139,-400.26 z
M -17.2512,-401.258 L -17.7495,-401.321 L -18.2361,-401.446 L -18.7031,-401.631 L -19.1433,-401.873 L -19.5497,-402.168
 L -19.9159,-402.512 L -20.2361,-402.899 L -20.5052,-403.323 L -20.7191,-403.778 L -20.8743,-404.255 L -20.9684,-404.749
 L -21,-405.25 L -21,-431.75 L -20.9684,-432.251 L -20.8743,-432.745 L -20.7191,-433.222 L -20.5052,-433.677
 L -20.2361,-434.101 L -19.9159,-434.488 L -19.5497,-434.832 L -19.1433,-435.127 L -18.7031,-435.369 L -18.2361,-435.554
 L -17.7495,-435.679 L -17.2512,-435.742 L 17.2512,-435.742 L 17.7495,-435.679 L 18.2361,-435.554 L 18.7031,-435.369
 L 19.1433,-435.127 L 19.5497,-434.832 L 19.9159,-434.488 L 20.2361,-434.101 L 20.5052,-433.677 L 20.7191,-433.222
 L 20.8743,-432.745 L 20.9684,-432.251 L 21,-431.75 L 21,-405.25 L 20.9684,-404.749 L 20.8743,-404.255
 L 20.7191,-403.778 L 20.5052,-403.323 L 20.2361,-402.899 L 19.9159,-402.512 L 19.5497,-402.168 L 19.1433,-401.873
 L 18.7031,-401.631 L 18.2361,-401.446 L 17.7495,-401.321 L 17.2512,-401.258 z
M 17.9369,-353.839 L 18.5451,-353.995 L 19.1289,-354.226 L 19.6791,-354.528 L 20.1871,-354.897 L 20.6448,-355.327
 L 21.0451,-355.811 L 21.3815,-356.341 L 21.6489,-356.909 L 21.8429,-357.507 L 21.9606,-358.123 L 22,-358.75
 L 22,-385.25 L 21.9606,-385.877 L 21.8429,-386.493 L 21.6489,-387.091 L 21.3815,-387.659 L 21.0451,-388.189
 L 20.6448,-388.673 L 20.1871,-389.103 L 19.6791,-389.472 L 19.1289,-389.774 L 18.5451,-390.005 L 17.9369,-390.161
 L 17.3139,-390.24 L -17.3139,-390.24 L -17.9369,-390.161 L -18.5451,-390.005 L -19.1289,-389.774 L -19.6791,-389.472
 L -20.1871,-389.103 L -20.6448,-388.673 L -21.0451,-388.189 L -21.3815,-387.659 L -21.6489,-387.091 L -21.8429,-386.493
 L -21.9606,-385.877 L -22,-385.25 L -22,-358.75 L -21.9606,-358.123 L -21.8429,-357.507 L -21.6489,-356.909
 L -21.3815,-356.341 L -21.0451,-355.811 L -20.6448,-355.327 L -20.1871,-354.897 L -19.6791,-354.528 L -19.1289,-354.226
 L -18.5451,-353.995 L -17.9369,-353.839 L -17.3139,-353.76 L 17.3139,-353.76 z
M -17.2512,-354.758 L -17.7495,-354.821 L -18.2361,-354.946 L -18.7031,-355.131 L -19.1433,-355.373 L -19.5497,-355.668
 L -19.9159,-356.012 L -20.2361,-356.399 L -20.5052,-356.823 L -20.7191,-357.278 L -20.8743,-357.755 L -20.9684,-358.249
 L -21,-358.75 L -21,-385.25 L -20.9684,-385.751 L -20.8743,-386.245 L -20.7191,-386.722 L -20.5052,-387.177
 L -20.2361,-387.601 L -19.9159,-387.988 L -19.5497,-388.332 L -19.1433,-388.627 L -18.7031,-388.869 L -18.2361,-389.054
 L -17.7495,-389.179 L -17.2512,-389.242 L 17.2512,-389.242 L 17.7495,-389.179 L 18.2361,-389.054 L 18.7031,-388.869
 L 19.1433,-388.627 L 19.5497,-388.332 L 19.9159,-387.988 L 20.2361,-387.601 L 20.5052,-387.177 L 20.7191,-386.722
 L 20.8743,-386.245 L 20.9684,-385.751 L 21,-385.25 L 21,-358.75 L 20.9684,-358.249 L 20.8743,-357.755
 L 20.7191,-357.278 L 20.5052,-356.823 L 20.2361,-356.399 L 19.9159,-356.012 L 19.5497,-355.668 L 19.1433,-355.373
 L 18.7031,-355.131 L 18.2361,-354.946 L 17.7495,-354.821 L 17.2512,-354.758 z
M 17.9369,-307.339 L 18.5451,-307.495 L 19.1289,-307.726 L 19.6791,-308.028 L 20.1871,-308.397 L 20.6448,-308.827
 L 21.0451,-309.311 L 21.3815,-309.841 L 21.6489,-310.409 L 21.8429,-311.007 L 21.9606,-311.623 L 22,-312.25
 L 22,-338.75 L 21.9606,-339.377 L 21.8429,-339.993 L 21.6489,-340.591 L 21.3815,-341.159 L 21.0451,-341.689
 L 20.6448,-342.173 L 20.1871,-342.603 L 19.6791,-342.972 L 19.1289,-343.274 L 18.5451,-343.505 L 17.9369,-343.661
 L 17.3139,-343.74 L -17.3139,-343.74 L -17.9369,-343.661 L -18.5451,-343.505 L -19.1289,-343.274 L -19.6791,-342.972
 L -20.1871,-342.603 L -20.6448,-342.173 L -21.0451,-341.689 L -21.3815,-341.159 L -21.6489,-340.591 L -21.8429,-339.993
 L -21.9606,-339.377 L -22,-338.75 L -22,-312.25 L -21.9606,-311.623 L -21.8429,-311.007 L -21.6489,-310.409
 L -21.3815,-309.841 L -21.0451,-309.311 L -20.6448,-308.827 L -20.1871,-308.397 L -19.6791,-308.028 L -19.1289,-307.726
 L -18.5451,-307.495 L -17.9369,-307.339 L -17.3139,-307.26 L 17.3139,-307.26 z
M -17.2512,-308.258 L -17.7495,-308.321 L -18.2361,-308.446 L -18.7031,-308.631 L -19.1433,-308.873 L -19.5497,-309.168
 L -19.9159,-309.512 L -20.2361,-309.899 L -20.5052,-310.323 L -20.7191,-310.778 L -20.8743,-311.255 L -20.9684,-311.749
 L -21,-312.25 L -21,-338.75 L -20.9684,-339.251 L -20.8743,-339.745 L -20.7191,-340.222 L -20.5052,-340.677
 L -20.2361,-341.101 L -19.9159,-341.488 L -19.5497,-341.832 L -19.1433,-342.127 L -18.7031,-342.369 L -18.2361,-342.554
 L -17.7495,-342.679 L -17.2512,-342.742 L 17.2512,-342.742 L 17.7495,-342.679 L 18.2361,-342.554 L 18.7031,-342.369
 L 19.1433,-342.127 L 19.5497,-341.832 L 19.9159,-341.488 L 20.2361,-341.101 L 20.5052,-340.677 L 20.7191,-340.222
 L 20.8743,-339.745 L 20.9684,-339.251 L 21,-338.75 L 21,-312.25 L 20.9684,-311.749 L 20.8743,-311.255
 L 20.7191,-310.778 L 20.5052,-310.323 L 20.2361,-309.899 L 19.9159,-309.512 L 19.5497,-309.168 L 19.1433,-308.873
 L 18.7031,-308.631 L 18.2361,-308.446 L 17.7495,-308.321 L 17.2512,-308.258 z
M 17.9369,-260.839 L 18.5451,-260.995 L 19.1289,-261.226 L 19.6791,-261.528 L 20.1871,-261.897 L 20.6448,-262.327
 L 21.0451,-262.811 L 21.3815,-263.341 L 21.6489,-263.909 L 21.8429,-264.507 L 21.9606,-265.123 L 22,-265.75
 L 22,-292.25 L 21.9606,-292.877 L 21.8429,-293.493 L 21.6489,-294.091 L 21.3815,-294.659 L 21.0451,-295.189
 L 20.6448,-295.673 L 20.1871,-296.103 L 19.6791,-296.472 L 19.1289,-296.774 L 18.5451,-297.005 L 17.9369,-297.161
 L 17.3139,-297.24 L -17.3139,-297.24 L -17.9369,-297.161 L -18.5451,-297.005 L -19.1289,-296.774 L -19.6791,-296.472
 L -20.1871,-296.103 L -20.6448,-295.673 L -21.0451,-295.189 L -21.3815,-294.659 L -21.6489,-294.091 L -21.8429,-293.493
 L -21.9606,-292.877 L -22,-292.25 L -22,-265.75 L -21.9606,-265.123 L -21.8429,-264.507 L -21.6489,-263.909
 L -21.3815,-263.341 L -21.0451,-262.811 L -20.6448,-262.327 L -20.1871,-261.897 L -19.6791,-261.528 L -19.1289,-261.226
 L -18.5451,-260.995 L -17.9369,-260.839 L -17.3139,-260.76 L 17.3139,-260.76 z
M -17.1954,-262.643 L -17.5833,-262.692 L -17.9619,-262.789 L -18.3254,-262.933 L -18.668,-263.122 L -18.9842,-263.351
 L -19.2692,-263.619 L -19.5184,-263.92 L -19.7279,-264.25 L -19.8943,-264.604 L -20.0151,-264.976 L -20.0884,-265.36
 L -20.1129,-265.75 L -20.1129,-292.25 L -20.0884,-292.64 L -20.0151,-293.024 L -19.8943,-293.396 L -19.7279,-293.75
 L -19.5184,-294.08 L -19.2692,-294.381 L -18.9842,-294.649 L -18.668,-294.878 L -18.3254,-295.067 L -17.9619,-295.211
 L -17.5833,-295.308 L -17.1954,-295.357 L 17.1954,-295.357 L 17.5833,-295.308 L 17.9619,-295.211 L 18.3254,-295.067
 L 18.668,-294.878 L 18.9842,-294.649 L 19.2692,-294.381 L 19.5184,-294.08 L 19.7279,-293.75 L 19.8943,-293.396
 L 20.0151,-293.024 L 20.0884,-292.64 L 20.1129,-292.25 L 20.1129,-265.75 L 20.0884,-265.36 L 20.0151,-264.976
 L 19.8943,-264.604 L 19.7279,-264.25 L 19.5184,-263.92 L 19.2692,-263.619 L 18.9842,-263.351 L 18.668,-263.122
 L 18.3254,-262.933 L 17.9619,-262.789 L 17.5833,-262.692 L 17.1954,-262.643 z
M 17.9369,-214.339 L 18.5451,-214.495 L 19.1289,-214.726 L 19.6791,-215.028 L 20.1871,-215.397 L 20.6448,-215.827
 L 21.0451,-216.311 L 21.3815,-216.841 L 21.6489,-217.409 L 21.8429,-218.007 L 21.9606,-218.623 L 22,-219.25
 L 22,-245.75 L 21.9606,-246.377 L 21.8429,-246.993 L 21.6489,-247.591 L 21.3815,-248.159 L 21.0451,-248.689
 L 20.6448,-249.173 L 20.1871,-249.603 L 19.6791,-249.972 L 19.1289,-250.274 L 18.5451,-250.505 L 17.9369,-250.661
 L 17.3139,-250.74 L -17.3139,-250.74 L -17.9369,-250.661 L -18.5451,-250.505 L -19.1289,-250.274 L -19.6791,-249.972
 L -20.1871,-249.603 L -20.6448,-249.173 L -21.0451,-248.689 L -21.3815,-248.159 L -21.6489,-247.591 L -21.8429,-246.993
 L -21.9606,-246.377 L -22,-245.75 L -22,-219.25 L -21.9606,-218.623 L -21.8429,-218.007 L -21.6489,-217.409
 L -21.3815,-216.841 L -21.0451,-216.311 L -20.6448,-215.827 L -20.1871,-215.397 L -19.6791,-215.028 L -19.1289,-214.726
 L -18.5451,-214.495 L -17.9369,-214.339 L -17.3139,-214.26 L 17.3139,-214.26 z
M -15.1507,-241.355 L -15.4497,-241.393 L -15.7416,-241.467 L -16.0219,-241.578 L -16.286,-241.724 L -16.5298,-241.901
 L -16.7495,-242.107 L -16.9416,-242.339 L -17.1031,-242.594 L -17.2315,-242.867 L -17.3246,-243.153 L -17.3811,-243.449
 L -17.4,-243.75 L -17.3811,-244.051 L -17.3246,-244.347 L -17.2315,-244.633 L -17.1031,-244.906 L -16.9416,-245.161
 L -16.7495,-245.393 L -16.5298,-245.599 L -16.286,-245.776 L -16.0219,-245.922 L -15.7416,-246.033 L -15.4497,-246.107
 L -15.1507,-246.145 L -14.8493,-246.145 L -14.5503,-246.107 L -14.2583,-246.033 L -13.9781,-245.922 L -13.714,-245.776
 L -13.4702,-245.599 L -13.2505,-245.393 L -13.0583,-245.161 L -12.8969,-244.906 L -12.7685,-244.633 L -12.6754,-244.347
 L -12.6189,-244.051 L -12.6,-243.75 L -12.6189,-243.449 L -12.6754,-243.153 L -12.7685,-242.867 L -12.8969,-242.594
 L -13.0583,-242.339 L -13.2505,-242.107 L -13.4702,-241.901 L -13.714,-241.724 L -13.9781,-241.578 L -14.2583,-241.467
 L -14.5503,-241.393 L -14.8493,-241.355 z
M 14.8493,-241.355 L 14.5503,-241.393 L 14.2583,-241.467 L 13.9781,-241.578 L 13.714,-241.724 L 13.4702,-241.901
 L 13.2505,-242.107 L 13.0583,-242.339 L 12.8969,-242.594 L 12.7685,-242.867 L 12.6754,-243.153 L 12.6189,-243.449
 L 12.6,-243.75 L 12.6189,-244.051 L 12.6754,-244.347 L 12.7685,-244.633 L 12.8969,-244.906 L 13.0583,-245.161
 L 13.2505,-245.393 L 13.4702,-245.599 L 13.714,-245.776 L 13.9781,-245.922 L 14.2583,-246.033 L 14.5503,-246.107
 L 14.8493,-246.145 L 15.1507,-246.145 L 15.4497,-246.107 L 15.7416,-246.033 L 16.0219,-245.922 L 16.286,-245.776
 L 16.5298,-245.599 L 16.7495,-245.393 L 16.9416,-245.161 L 17.1031,-244.906 L 17.2315,-244.633 L 17.3246,-244.347
 L 17.3811,-244.051 L 17.4,-243.75 L 17.3811,-243.449 L 17.3246,-243.153 L 17.2315,-242.867 L 17.1031,-242.594
 L 16.9416,-242.339 L 16.7495,-242.107 L 16.5298,-241.901 L 16.286,-241.724 L 16.0219,-241.578 L 15.7416,-241.467
 L 15.4497,-241.393 L 15.1507,-241.355 z
M -15.1507,-218.855 L -15.4497,-218.893 L -15.7416,-218.967 L -16.0219,-219.078 L -16.286,-219.224 L -16.5298,-219.401
 L -16.7495,-219.607 L -16.9416,-219.839 L -17.1031,-220.094 L -17.2315,-220.367 L -17.3246,-220.653 L -17.3811,-220.949
 L -17.4,-221.25 L -17.3811,-221.551 L -17.3246,-221.847 L -17.2315,-222.133 L -17.1031,-222.406 L -16.9416,-222.661
 L -16.7495,-222.893 L -16.5298,-223.099 L -16.286,-223.276 L -16.0219,-223.422 L -15.7416,-223.533 L -15.4497,-223.607
 L -15.1507,-223.645 L -14.8493,-223.645 L -14.5503,-223.607 L -14.2583,-223.533 L -13.9781,-223.422 L -13.714,-223.276
 L -13.4702,-223.099 L -13.2505,-222.893 L -13.0583,-222.661 L -12.8969,-222.406 L -12.7685,-222.133 L -12.6754,-221.847
 L -12.6189,-221.551 L -12.6,-221.25 L -12.6189,-220.949 L -12.6754,-220.653 L -12.7685,-220.367 L -12.8969,-220.094
 L -13.0583,-219.839 L -13.2505,-219.607 L -13.4702,-219.401 L -13.714,-219.224 L -13.9781,-219.078 L -14.2583,-218.967
 L -14.5503,-218.893 L -14.8493,-218.855 z
M 14.8493,-218.855 L 14.5503,-218.893 L 14.2583,-218.967 L 13.9781,-219.078 L 13.714,-219.224 L 13.4702,-219.401
 L 13.2505,-219.607 L 13.0583,-219.839 L 12.8969,-220.094 L 12.7685,-220.367 L 12.6754,-220.653 L 12.6189,-220.949
 L 12.6,-221.25 L 12.6189,-221.551 L 12.6754,-221.847 L 12.7685,-222.133 L 12.8969,-222.406 L 13.0583,-222.661
 L 13.2505,-222.893 L 13.4702,-223.099 L 13.714,-223.276 L 13.9781,-223.422 L 14.2583,-223.533 L 14.5503,-223.607
 L 14.8493,-223.645 L 15.1507,-223.645 L 15.4497,-223.607 L 15.7416,-223.533 L 16.0219,-223.422 L 16.286,-223.276
 L 16.5298,-223.099 L 16.7495,-222.893 L 16.9416,-222.661 L 17.1031,-222.406 L 17.2315,-222.133 L 17.3246,-221.847
 L 17.3811,-221.551 L 17.4,-221.25 L 17.3811,-220.949 L 17.3246,-220.653 L 17.2315,-220.367 L 17.1031,-220.094
 L 16.9416,-219.839 L 16.7495,-219.607 L 16.5298,-219.401 L 16.286,-219.224 L 16.0219,-219.078 L 15.7416,-218.967
 L 15.4497,-218.893 L 15.1507,-218.855 z
" stroke="black" fill="lightgray" stroke-width="0.5"/>
</svg>
