  0
SECTION
  2
BLOCKS
  0
ENDSEC
  0
SECTION
  2
ENTITIES
  0
LINE
  8
0
 10
14.6869
 20
247.589
 11
15.2951
 21
247.745
  0
LINE
  8
0
 10
15.2951
 20
247.745
 11
15.8789
 21
247.976
  0
LINE
  8
0
 10
15.8789
 20
247.976
 11
16.4291
 21
248.278
  0
LINE
  8
0
 10
16.4291
 20
248.278
 11
16.9371
 21
248.647
  0
LINE
  8
0
 10
16.9371
 20
248.647
 11
17.3948
 21
249.077
  0
LINE
  8
0
 10
17.3948
 20
249.077
 11
17.7951
 21
249.561
  0
LINE
  8
0
 10
17.7951
 20
249.561
 11
18.1315
 21
250.091
  0
LINE
  8
0
 10
18.1315
 20
250.091
 11
18.3989
 21
250.659
  0
LINE
  8
0
 10
18.3989
 20
250.659
 11
18.5929
 21
251.257
  0
LINE
  8
0
 10
18.5929
 20
251.257
 11
18.7106
 21
251.873
  0
LINE
  8
0
 10
18.7106
 20
251.873
 11
18.75
 21
252.5
  0
LINE
  8
0
 10
18.75
 20
252.5
 11
18.75
 21
287.5
  0
LINE
  8
0
 10
18.75
 20
287.5
 11
18.7106
 21
288.127
  0
LINE
  8
0
 10
18.7106
 20
288.127
 11
18.5929
 21
288.743
  0
LINE
  8
0
 10
18.5929
 20
288.743
 11
18.3989
 21
289.341
  0
LINE
  8
0
 10
18.3989
 20
289.341
 11
18.1315
 21
289.909
  0
LINE
  8
0
 10
18.1315
 20
289.909
 11
17.7951
 21
290.439
  0
LINE
  8
0
 10
17.7951
 20
290.439
 11
17.3948
 21
290.923
  0
LINE
  8
0
 10
17.3948
 20
290.923
 11
16.9371
 21
291.353
  0
LINE
  8
0
 10
16.9371
 20
291.353
 11
16.4291
 21
291.722
  0
LINE
  8
0
 10
16.4291
 20
291.722
 11
15.8789
 21
292.024
  0
LINE
  8
0
 10
15.8789
 20
292.024
 11
15.2951
 21
292.255
  0
LINE
  8
0
 10
15.2951
 20
292.255
 11
14.6869
 21
292.411
  0
LINE
  8
0
 10
14.6869
 20
292.411
 11
14.0639
 21
292.49
  0
LINE
  8
0
 10
14.0639
 20
292.49
 11
-14.0639
 21
292.49
  0
LINE
  8
0
 10
-14.0639
 20
292.49
 11
-14.6869
 21
292.411
  0
LINE
  8
0
 10
-14.6869
 20
292.411
 11
-15.2951
 21
292.255
  0
LINE
  8
0
 10
-15.2951
 20
292.255
 11
-15.8789
 21
292.024
  0
LINE
  8
0
 10
-15.8789
 20
292.024
 11
-16.4291
 21
291.722
  0
LINE
  8
0
 10
-16.4291
 20
291.722
 11
-16.9371
 21
291.353
  0
LINE
  8
0
 10
-16.9371
 20
291.353
 11
-17.3948
 21
290.923
  0
LINE
  8
0
 10
-17.3948
 20
290.923
 11
-17.7951
 21
290.439
  0
LINE
  8
0
 10
-17.7951
 20
290.439
 11
-18.1315
 21
289.909
  0
LINE
  8
0
 10
-18.1315
 20
289.909
 11
-18.3989
 21
289.341
  0
LINE
  8
0
 10
-18.3989
 20
289.341
 11
-18.5929
 21
288.743
  0
LINE
  8
0
 10
-18.5929
 20
288.743
 11
-18.7106
 21
288.127
  0
LINE
  8
0
 10
-18.7106
 20
288.127
 11
-18.75
 21
287.5
  0
LINE
  8
0
 10
-18.75
 20
287.5
 11
-18.75
 21
252.5
  0
LINE
  8
0
 10
-18.75
 20
252.5
 11
-18.7106
 21
251.873
  0
LINE
  8
0
 10
-18.7106
 20
251.873
 11
-18.5929
 21
251.257
  0
LINE
  8
0
 10
-18.5929
 20
251.257
 11
-18.3989
 21
250.659
  0
LINE
  8
0
 10
-18.3989
 20
250.659
 11
-18.1315
 21
250.091
  0
LINE
  8
0
 10
-18.1315
 20
250.091
 11
-17.7951
 21
249.561
  0
LINE
  8
0
 10
-17.7951
 20
249.561
 11
-17.3948
 21
249.077
  0
LINE
  8
0
 10
-17.3948
 20
249.077
 11
-16.9371
 21
248.647
  0
LINE
  8
0
 10
-16.9371
 20
248.647
 11
-16.4291
 21
248.278
  0
LINE
  8
0
 10
-16.4291
 20
248.278
 11
-15.8789
 21
247.976
  0
LINE
  8
0
 10
-15.8789
 20
247.976
 11
-15.2951
 21
247.745
  0
LINE
  8
0
 10
-15.2951
 20
247.745
 11
-14.6869
 21
247.589
  0
LINE
  8
0
 10
-14.6869
 20
247.589
 11
-14.0639
 21
247.51
  0
LINE
  8
0
 10
-14.0639
 20
247.51
 11
14.0639
 21
247.51
  0
LINE
  8
0
 10
14.0639
 20
247.51
 11
14.6869
 21
247.589
  0
LINE
  8
0
 10
-8.56104
 20
248.009
 11
-8.07086
 21
248.278
  0
LINE
  8
0
 10
-8.07086
 20
248.278
 11
-7.56287
 21
248.647
  0
LINE
  8
0
 10
-7.56287
 20
248.647
 11
-7.10515
 21
249.077
  0
LINE
  8
0
 10
-7.10515
 20
249.077
 11
-6.70491
 21
249.561
  0
LINE
  8
0
 10
-6.70491
 20
249.561
 11
-6.36845
 21
250.091
  0
LINE
  8
0
 10
-6.36845
 20
250.091
 11
-6.1011
 21
250.659
  0
LINE
  8
0
 10
-6.1011
 20
250.659
 11
-5.90707
 21
251.257
  0
LINE
  8
0
 10
-5.90707
 20
251.257
 11
-5.78941
 21
251.873
  0
LINE
  8
0
 10
-5.78941
 20
251.873
 11
-5.75
 21
252.5
  0
LINE
  8
0
 10
-5.75
 20
252.5
 11
-5.75
 21
255.5
  0
LINE
  8
0
 10
-5.75
 20
255.5
 11
-5.78941
 21
256.127
  0
LINE
  8
0
 10
-5.78941
 20
256.127
 11
-5.90707
 21
256.743
  0
LINE
  8
0
 10
-5.90707
 20
256.743
 11
-6.1011
 21
257.341
  0
LINE
  8
0
 10
-6.1011
 20
257.341
 11
-6.36845
 21
257.909
  0
LINE
  8
0
 10
-6.36845
 20
257.909
 11
-6.70491
 21
258.439
  0
LINE
  8
0
 10
-6.70491
 20
258.439
 11
-7.10515
 21
258.923
  0
LINE
  8
0
 10
-7.10515
 20
258.923
 11
-7.56287
 21
259.353
  0
LINE
  8
0
 10
-7.56287
 20
259.353
 11
-8.07086
 21
259.722
  0
LINE
  8
0
 10
-8.07086
 20
259.722
 11
-8.62109
 21
260.024
  0
LINE
  8
0
 10
-8.62109
 20
260.024
 11
-9.20491
 21
260.255
  0
LINE
  8
0
 10
-9.20491
 20
260.255
 11
-9.81308
 21
260.411
  0
LINE
  8
0
 10
-9.81308
 20
260.411
 11
-10.436
 21
260.49
  0
LINE
  8
0
 10
-10.436
 20
260.49
 11
-14.0639
 21
260.49
  0
LINE
  8
0
 10
-14.0639
 20
260.49
 11
-14.6869
 21
260.411
  0
LINE
  8
0
 10
-14.6869
 20
260.411
 11
-15.2951
 21
260.255
  0
LINE
  8
0
 10
-15.2951
 20
260.255
 11
-15.8789
 21
260.024
  0
LINE
  8
0
 10
-15.8789
 20
260.024
 11
-16.4291
 21
259.722
  0
LINE
  8
0
 10
-16.4291
 20
259.722
 11
-16.9371
 21
259.353
  0
LINE
  8
0
 10
-16.9371
 20
259.353
 11
-17.3948
 21
258.923
  0
LINE
  8
0
 10
-17.3948
 20
258.923
 11
-17.7951
 21
258.439
  0
LINE
  8
0
 10
-17.7951
 20
258.439
 11
-18.1315
 21
257.909
  0
LINE
  8
0
 10
-18.1315
 20
257.909
 11
-18.25
 21
257.657
  0
LINE
  8
0
 10
-18.25
 20
257.657
 11
-18.25
 21
287.5
  0
LINE
  8
0
 10
-18.25
 20
287.5
 11
-18.2145
 21
288.064
  0
LINE
  8
0
 10
-18.2145
 20
288.064
 11
-18.1086
 21
288.619
  0
LINE
  8
0
 10
-18.1086
 20
288.619
 11
-17.934
 21
289.157
  0
LINE
  8
0
 10
-17.934
 20
289.157
 11
-17.6934
 21
289.668
  0
LINE
  8
0
 10
-17.6934
 20
289.668
 11
-17.3906
 21
290.145
  0
LINE
  8
0
 10
-17.3906
 20
290.145
 11
-17.0303
 21
290.58
  0
LINE
  8
0
 10
-17.0303
 20
290.58
 11
-16.6184
 21
290.967
  0
LINE
  8
0
 10
-16.6184
 20
290.967
 11
-16.1612
 21
291.299
  0
LINE
  8
0
 10
-16.1612
 20
291.299
 11
-15.666
 21
291.572
  0
LINE
  8
0
 10
-15.666
 20
291.572
 11
-15.1406
 21
291.78
  0
LINE
  8
0
 10
-15.1406
 20
291.78
 11
-14.5932
 21
291.92
  0
LINE
  8
0
 10
-14.5932
 20
291.92
 11
-14.0325
 21
291.991
  0
LINE
  8
0
 10
-14.0325
 20
291.991
 11
14.0325
 21
291.991
  0
LINE
  8
0
 10
14.0325
 20
291.991
 11
14.5932
 21
291.92
  0
LINE
  8
0
 10
14.5932
 20
291.92
 11
15.1406
 21
291.78
  0
LINE
  8
0
 10
15.1406
 20
291.78
 11
15.666
 21
291.572
  0
LINE
  8
0
 10
15.666
 20
291.572
 11
16.1612
 21
291.299
  0
LINE
  8
0
 10
16.1612
 20
291.299
 11
16.6184
 21
290.967
  0
LINE
  8
0
 10
16.6184
 20
290.967
 11
17.0303
 21
290.58
  0
LINE
  8
0
 10
17.0303
 20
290.58
 11
17.3906
 21
290.145
  0
LINE
  8
0
 10
17.3906
 20
290.145
 11
17.6934
 21
289.668
  0
LINE
  8
0
 10
17.6934
 20
289.668
 11
17.934
 21
289.157
  0
LINE
  8
0
 10
17.934
 20
289.157
 11
18.1086
 21
288.619
  0
LINE
  8
0
 10
18.1086
 20
288.619
 11
18.2145
 21
288.064
  0
LINE
  8
0
 10
18.2145
 20
288.064
 11
18.25
 21
287.5
  0
LINE
  8
0
 10
18.25
 20
287.5
 11
18.25
 21
252.5
  0
LINE
  8
0
 10
18.25
 20
252.5
 11
18.2145
 21
251.936
  0
LINE
  8
0
 10
18.2145
 20
251.936
 11
18.1086
 21
251.381
  0
LINE
  8
0
 10
18.1086
 20
251.381
 11
17.934
 21
250.843
  0
LINE
  8
0
 10
17.934
 20
250.843
 11
17.6934
 21
250.332
  0
LINE
  8
0
 10
17.6934
 20
250.332
 11
17.3906
 21
249.855
  0
LINE
  8
0
 10
17.3906
 20
249.855
 11
17.0303
 21
249.42
  0
LINE
  8
0
 10
17.0303
 20
249.42
 11
16.6184
 21
249.033
  0
LINE
  8
0
 10
16.6184
 20
249.033
 11
16.1612
 21
248.701
  0
LINE
  8
0
 10
16.1612
 20
248.701
 11
15.666
 21
248.428
  0
LINE
  8
0
 10
15.666
 20
248.428
 11
15.1406
 21
248.22
  0
LINE
  8
0
 10
15.1406
 20
248.22
 11
14.5932
 21
248.08
  0
LINE
  8
0
 10
14.5932
 20
248.08
 11
14.0325
 21
248.009
  0
LINE
  8
0
 10
14.0325
 20
248.009
 11
-8.56104
 21
248.009
  0
LINE
  8
0
 10
11.7184
 20
282.544
 11
12.0225
 21
282.622
  0
LINE
  8
0
 10
12.0225
 20
282.622
 11
12.3144
 21
282.738
  0
LINE
  8
0
 10
12.3144
 20
282.738
 11
12.5896
 21
282.889
  0
LINE
  8
0
 10
12.5896
 20
282.889
 11
12.8436
 21
283.074
  0
LINE
  8
0
 10
12.8436
 20
283.074
 11
13.0724
 21
283.289
  0
LINE
  8
0
 10
13.0724
 20
283.289
 11
13.2725
 21
283.531
  0
LINE
  8
0
 10
13.2725
 20
283.531
 11
13.4408
 21
283.796
  0
LINE
  8
0
 10
13.4408
 20
283.796
 11
13.5744
 21
284.08
  0
LINE
  8
0
 10
13.5744
 20
284.08
 11
13.6714
 21
284.378
  0
LINE
  8
0
 10
13.6714
 20
284.378
 11
13.7303
 21
284.687
  0
LINE
  8
0
 10
13.7303
 20
284.687
 11
13.75
 21
285
  0
LINE
  8
0
 10
13.75
 20
285
 11
13.7303
 21
285.313
  0
LINE
  8
0
 10
13.7303
 20
285.313
 11
13.6714
 21
285.622
  0
LINE
  8
0
 10
13.6714
 20
285.622
 11
13.5744
 21
285.92
  0
LINE
  8
0
 10
13.5744
 20
285.92
 11
13.4408
 21
286.204
  0
LINE
  8
0
 10
13.4408
 20
286.204
 11
13.2725
 21
286.469
  0
LINE
  8
0
 10
13.2725
 20
286.469
 11
13.0724
 21
286.711
  0
LINE
  8
0
 10
13.0724
 20
286.711
 11
12.8436
 21
286.926
  0
LINE
  8
0
 10
12.8436
 20
286.926
 11
12.5896
 21
287.111
  0
LINE
  8
0
 10
12.5896
 20
287.111
 11
12.3144
 21
287.262
  0
LINE
  8
0
 10
12.3144
 20
287.262
 11
12.0225
 21
287.378
  0
LINE
  8
0
 10
12.0225
 20
287.378
 11
11.7184
 21
287.456
  0
LINE
  8
0
 10
11.7184
 20
287.456
 11
11.407
 21
287.495
  0
LINE
  8
0
 10
11.407
 20
287.495
 11
11.093
 21
287.495
  0
LINE
  8
0
 10
11.093
 20
287.495
 11
10.7815
 21
287.456
  0
LINE
  8
0
 10
10.7815
 20
287.456
 11
10.4774
 21
287.378
  0
LINE
  8
0
 10
10.4774
 20
287.378
 11
10.1855
 21
287.262
  0
LINE
  8
0
 10
10.1855
 20
287.262
 11
9.91043
 21
287.111
  0
LINE
  8
0
 10
9.91043
 20
287.111
 11
9.65643
 21
286.926
  0
LINE
  8
0
 10
9.65643
 20
286.926
 11
9.42757
 21
286.711
  0
LINE
  8
0
 10
9.42757
 20
286.711
 11
9.22745
 21
286.469
  0
LINE
  8
0
 10
9.22745
 20
286.469
 11
9.05922
 21
286.204
  0
LINE
  8
0
 10
9.05922
 20
286.204
 11
8.92555
 21
285.92
  0
LINE
  8
0
 10
8.92555
 20
285.92
 11
8.82854
 21
285.622
  0
LINE
  8
0
 10
8.82854
 20
285.622
 11
8.7697
 21
285.313
  0
LINE
  8
0
 10
8.7697
 20
285.313
 11
8.75
 21
285
  0
LINE
  8
0
 10
8.75
 20
285
 11
8.7697
 21
284.687
  0
LINE
  8
0
 10
8.7697
 20
284.687
 11
8.82854
 21
284.378
  0
LINE
  8
0
 10
8.82854
 20
284.378
 11
8.92555
 21
284.08
  0
LINE
  8
0
 10
8.92555
 20
284.08
 11
9.05922
 21
283.796
  0
LINE
  8
0
 10
9.05922
 20
283.796
 11
9.22745
 21
283.531
  0
LINE
  8
0
 10
9.22745
 20
283.531
 11
9.42757
 21
283.289
  0
LINE
  8
0
 10
9.42757
 20
283.289
 11
9.65643
 21
283.074
  0
LINE
  8
0
 10
9.65643
 20
283.074
 11
9.91043
 21
282.889
  0
LINE
  8
0
 10
9.91043
 20
282.889
 11
10.1855
 21
282.738
  0
LINE
  8
0
 10
10.1855
 20
282.738
 11
10.4774
 21
282.622
  0
LINE
  8
0
 10
10.4774
 20
282.622
 11
10.7815
 21
282.544
  0
LINE
  8
0
 10
10.7815
 20
282.544
 11
11.093
 21
282.505
  0
LINE
  8
0
 10
11.093
 20
282.505
 11
11.407
 21
282.505
  0
LINE
  8
0
 10
11.407
 20
282.505
 11
11.7184
 21
282.544
  0
LINE
  8
0
 10
11.1558
 20
283.503
 11
10.9689
 21
283.527
  0
LINE
  8
0
 10
10.9689
 20
283.527
 11
10.7865
 21
283.573
  0
LINE
  8
0
 10
10.7865
 20
283.573
 11
10.6113
 21
283.643
  0
LINE
  8
0
 10
10.6113
 20
283.643
 11
10.4463
 21
283.734
  0
LINE
  8
0
 10
10.4463
 20
283.734
 11
10.2939
 21
283.844
  0
LINE
  8
0
 10
10.2939
 20
283.844
 11
10.1565
 21
283.973
  0
LINE
  8
0
 10
10.1565
 20
283.973
 11
10.0365
 21
284.118
  0
LINE
  8
0
 10
10.0365
 20
284.118
 11
9.93553
 21
284.277
  0
LINE
  8
0
 10
9.93553
 20
284.277
 11
9.85533
 21
284.448
  0
LINE
  8
0
 10
9.85533
 20
284.448
 11
9.79712
 21
284.627
  0
LINE
  8
0
 10
9.79712
 20
284.627
 11
9.76183
 21
284.812
  0
LINE
  8
0
 10
9.76183
 20
284.812
 11
9.75
 21
285
  0
LINE
  8
0
 10
9.75
 20
285
 11
9.76183
 21
285.188
  0
LINE
  8
0
 10
9.76183
 20
285.188
 11
9.79712
 21
285.373
  0
LINE
  8
0
 10
9.79712
 20
285.373
 11
9.85533
 21
285.552
  0
LINE
  8
0
 10
9.85533
 20
285.552
 11
9.93553
 21
285.723
  0
LINE
  8
0
 10
9.93553
 20
285.723
 11
10.0365
 21
285.882
  0
LINE
  8
0
 10
10.0365
 20
285.882
 11
10.1565
 21
286.027
  0
LINE
  8
0
 10
10.1565
 20
286.027
 11
10.2939
 21
286.156
  0
LINE
  8
0
 10
10.2939
 20
286.156
 11
10.4463
 21
286.266
  0
LINE
  8
0
 10
10.4463
 20
286.266
 11
10.6113
 21
286.357
  0
LINE
  8
0
 10
10.6113
 20
286.357
 11
10.7865
 21
286.427
  0
LINE
  8
0
 10
10.7865
 20
286.427
 11
10.9689
 21
286.473
  0
LINE
  8
0
 10
10.9689
 20
286.473
 11
11.1558
 21
286.497
  0
LINE
  8
0
 10
11.1558
 20
286.497
 11
11.3442
 21
286.497
  0
LINE
  8
0
 10
11.3442
 20
286.497
 11
11.5311
 21
286.473
  0
LINE
  8
0
 10
11.5311
 20
286.473
 11
11.7135
 21
286.427
  0
LINE
  8
0
 10
11.7135
 20
286.427
 11
11.8887
 21
286.357
  0
LINE
  8
0
 10
11.8887
 20
286.357
 11
12.0537
 21
286.266
  0
LINE
  8
0
 10
12.0537
 20
286.266
 11
12.2061
 21
286.156
  0
LINE
  8
0
 10
12.2061
 20
286.156
 11
12.3434
 21
286.027
  0
LINE
  8
0
 10
12.3434
 20
286.027
 11
12.4635
 21
285.882
  0
LINE
  8
0
 10
12.4635
 20
285.882
 11
12.5645
 21
285.723
  0
LINE
  8
0
 10
12.5645
 20
285.723
 11
12.6447
 21
285.552
  0
LINE
  8
0
 10
12.6447
 20
285.552
 11
12.7029
 21
285.373
  0
LINE
  8
0
 10
12.7029
 20
285.373
 11
12.7382
 21
285.188
  0
LINE
  8
0
 10
12.7382
 20
285.188
 11
12.75
 21
285
  0
LINE
  8
0
 10
12.75
 20
285
 11
12.7382
 21
284.812
  0
LINE
  8
0
 10
12.7382
 20
284.812
 11
12.7029
 21
284.627
  0
LINE
  8
0
 10
12.7029
 20
284.627
 11
12.6447
 21
284.448
  0
LINE
  8
0
 10
12.6447
 20
284.448
 11
12.5645
 21
284.277
  0
LINE
  8
0
 10
12.5645
 20
284.277
 11
12.4635
 21
284.118
  0
LINE
  8
0
 10
12.4635
 20
284.118
 11
12.3434
 21
283.973
  0
LINE
  8
0
 10
12.3434
 20
283.973
 11
12.2061
 21
283.844
  0
LINE
  8
0
 10
12.2061
 20
283.844
 11
12.0537
 21
283.734
  0
LINE
  8
0
 10
12.0537
 20
283.734
 11
11.8887
 21
283.643
  0
LINE
  8
0
 10
11.8887
 20
283.643
 11
11.7135
 21
283.573
  0
LINE
  8
0
 10
11.7135
 20
283.573
 11
11.5311
 21
283.527
  0
LINE
  8
0
 10
11.5311
 20
283.527
 11
11.3442
 21
283.503
  0
LINE
  8
0
 10
11.3442
 20
283.503
 11
11.1558
 21
283.503
  0
LINE
  8
0
 10
-11.3442
 20
253.503
 11
-11.5311
 21
253.527
  0
LINE
  8
0
 10
-11.5311
 20
253.527
 11
-11.7135
 21
253.573
  0
LINE
  8
0
 10
-11.7135
 20
253.573
 11
-11.8887
 21
253.643
  0
LINE
  8
0
 10
-11.8887
 20
253.643
 11
-12.0537
 21
253.734
  0
LINE
  8
0
 10
-12.0537
 20
253.734
 11
-12.2061
 21
253.844
  0
LINE
  8
0
 10
-12.2061
 20
253.844
 11
-12.3434
 21
253.973
  0
LINE
  8
0
 10
-12.3434
 20
253.973
 11
-12.4635
 21
254.118
  0
LINE
  8
0
 10
-12.4635
 20
254.118
 11
-12.5645
 21
254.277
  0
LINE
  8
0
 10
-12.5645
 20
254.277
 11
-12.6447
 21
254.448
  0
LINE
  8
0
 10
-12.6447
 20
254.448
 11
-12.7029
 21
254.627
  0
LINE
  8
0
 10
-12.7029
 20
254.627
 11
-12.7382
 21
254.812
  0
LINE
  8
0
 10
-12.7382
 20
254.812
 11
-12.75
 21
255
  0
LINE
  8
0
 10
-12.75
 20
255
 11
-12.7382
 21
255.188
  0
LINE
  8
0
 10
-12.7382
 20
255.188
 11
-12.7029
 21
255.373
  0
LINE
  8
0
 10
-12.7029
 20
255.373
 11
-12.6447
 21
255.552
  0
LINE
  8
0
 10
-12.6447
 20
255.552
 11
-12.5645
 21
255.723
  0
LINE
  8
0
 10
-12.5645
 20
255.723
 11
-12.4635
 21
255.882
  0
LINE
  8
0
 10
-12.4635
 20
255.882
 11
-12.3434
 21
256.027
  0
LINE
  8
0
 10
-12.3434
 20
256.027
 11
-12.2061
 21
256.156
  0
LINE
  8
0
 10
-12.2061
 20
256.156
 11
-12.0537
 21
256.266
  0
LINE
  8
0
 10
-12.0537
 20
256.266
 11
-11.8887
 21
256.357
  0
LINE
  8
0
 10
-11.8887
 20
256.357
 11
-11.7135
 21
256.427
  0
LINE
  8
0
 10
-11.7135
 20
256.427
 11
-11.5311
 21
256.473
  0
LINE
  8
0
 10
-11.5311
 20
256.473
 11
-11.3442
 21
256.497
  0
LINE
  8
0
 10
-11.3442
 20
256.497
 11
-11.1558
 21
256.497
  0
LINE
  8
0
 10
-11.1558
 20
256.497
 11
-10.9689
 21
256.473
  0
LINE
  8
0
 10
-10.9689
 20
256.473
 11
-10.7865
 21
256.427
  0
LINE
  8
0
 10
-10.7865
 20
256.427
 11
-10.6113
 21
256.357
  0
LINE
  8
0
 10
-10.6113
 20
256.357
 11
-10.4463
 21
256.266
  0
LINE
  8
0
 10
-10.4463
 20
256.266
 11
-10.2939
 21
256.156
  0
LINE
  8
0
 10
-10.2939
 20
256.156
 11
-10.1565
 21
256.027
  0
LINE
  8
0
 10
-10.1565
 20
256.027
 11
-10.0365
 21
255.882
  0
LINE
  8
0
 10
-10.0365
 20
255.882
 11
-9.93553
 21
255.723
  0
LINE
  8
0
 10
-9.93553
 20
255.723
 11
-9.85533
 21
255.552
  0
LINE
  8
0
 10
-9.85533
 20
255.552
 11
-9.79712
 21
255.373
  0
LINE
  8
0
 10
-9.79712
 20
255.373
 11
-9.76183
 21
255.188
  0
LINE
  8
0
 10
-9.76183
 20
255.188
 11
-9.75
 21
255
  0
LINE
  8
0
 10
-9.75
 20
255
 11
-9.76183
 21
254.812
  0
LINE
  8
0
 10
-9.76183
 20
254.812
 11
-9.79712
 21
254.627
  0
LINE
  8
0
 10
-9.79712
 20
254.627
 11
-9.85533
 21
254.448
  0
LINE
  8
0
 10
-9.85533
 20
254.448
 11
-9.93553
 21
254.277
  0
LINE
  8
0
 10
-9.93553
 20
254.277
 11
-10.0365
 21
254.118
  0
LINE
  8
0
 10
-10.0365
 20
254.118
 11
-10.1565
 21
253.973
  0
LINE
  8
0
 10
-10.1565
 20
253.973
 11
-10.2939
 21
253.844
  0
LINE
  8
0
 10
-10.2939
 20
253.844
 11
-10.4463
 21
253.734
  0
LINE
  8
0
 10
-10.4463
 20
253.734
 11
-10.6113
 21
253.643
  0
LINE
  8
0
 10
-10.6113
 20
253.643
 11
-10.7865
 21
253.573
  0
LINE
  8
0
 10
-10.7865
 20
253.573
 11
-10.9689
 21
253.527
  0
LINE
  8
0
 10
-10.9689
 20
253.527
 11
-11.1558
 21
253.503
  0
LINE
  8
0
 10
-11.1558
 20
253.503
 11
-11.3442
 21
253.503
  0
LINE
  8
0
 10
14.6869
 20
193.589
 11
15.2951
 21
193.745
  0
LINE
  8
0
 10
15.2951
 20
193.745
 11
15.8789
 21
193.976
  0
LINE
  8
0
 10
15.8789
 20
193.976
 11
16.4291
 21
194.278
  0
LINE
  8
0
 10
16.4291
 20
194.278
 11
16.9371
 21
194.647
  0
LINE
  8
0
 10
16.9371
 20
194.647
 11
17.3948
 21
195.077
  0
LINE
  8
0
 10
17.3948
 20
195.077
 11
17.7951
 21
195.561
  0
LINE
  8
0
 10
17.7951
 20
195.561
 11
18.1315
 21
196.091
  0
LINE
  8
0
 10
18.1315
 20
196.091
 11
18.3989
 21
196.659
  0
LINE
  8
0
 10
18.3989
 20
196.659
 11
18.5929
 21
197.257
  0
LINE
  8
0
 10
18.5929
 20
197.257
 11
18.7106
 21
197.873
  0
LINE
  8
0
 10
18.7106
 20
197.873
 11
18.75
 21
198.5
  0
LINE
  8
0
 10
18.75
 20
198.5
 11
18.75
 21
233.5
  0
LINE
  8
0
 10
18.75
 20
233.5
 11
18.7106
 21
234.127
  0
LINE
  8
0
 10
18.7106
 20
234.127
 11
18.5929
 21
234.743
  0
LINE
  8
0
 10
18.5929
 20
234.743
 11
18.3989
 21
235.341
  0
LINE
  8
0
 10
18.3989
 20
235.341
 11
18.1315
 21
235.909
  0
LINE
  8
0
 10
18.1315
 20
235.909
 11
17.7951
 21
236.439
  0
LINE
  8
0
 10
17.7951
 20
236.439
 11
17.3948
 21
236.923
  0
LINE
  8
0
 10
17.3948
 20
236.923
 11
16.9371
 21
237.353
  0
LINE
  8
0
 10
16.9371
 20
237.353
 11
16.4291
 21
237.722
  0
LINE
  8
0
 10
16.4291
 20
237.722
 11
15.8789
 21
238.024
  0
LINE
  8
0
 10
15.8789
 20
238.024
 11
15.2951
 21
238.255
  0
LINE
  8
0
 10
15.2951
 20
238.255
 11
14.6869
 21
238.411
  0
LINE
  8
0
 10
14.6869
 20
238.411
 11
14.0639
 21
238.49
  0
LINE
  8
0
 10
14.0639
 20
238.49
 11
-14.0639
 21
238.49
  0
LINE
  8
0
 10
-14.0639
 20
238.49
 11
-14.6869
 21
238.411
  0
LINE
  8
0
 10
-14.6869
 20
238.411
 11
-15.2951
 21
238.255
  0
LINE
  8
0
 10
-15.2951
 20
238.255
 11
-15.8789
 21
238.024
  0
LINE
  8
0
 10
-15.8789
 20
238.024
 11
-16.4291
 21
237.722
  0
LINE
  8
0
 10
-16.4291
 20
237.722
 11
-16.9371
 21
237.353
  0
LINE
  8
0
 10
-16.9371
 20
237.353
 11
-17.3948
 21
236.923
  0
LINE
  8
0
 10
-17.3948
 20
236.923
 11
-17.7951
 21
236.439
  0
LINE
  8
0
 10
-17.7951
 20
236.439
 11
-18.1315
 21
235.909
  0
LINE
  8
0
 10
-18.1315
 20
235.909
 11
-18.3989
 21
235.341
  0
LINE
  8
0
 10
-18.3989
 20
235.341
 11
-18.5929
 21
234.743
  0
LINE
  8
0
 10
-18.5929
 20
234.743
 11
-18.7106
 21
234.127
  0
LINE
  8
0
 10
-18.7106
 20
234.127
 11
-18.75
 21
233.5
  0
LINE
  8
0
 10
-18.75
 20
233.5
 11
-18.75
 21
198.5
  0
LINE
  8
0
 10
-18.75
 20
198.5
 11
-18.7106
 21
197.873
  0
LINE
  8
0
 10
-18.7106
 20
197.873
 11
-18.5929
 21
197.257
  0
LINE
  8
0
 10
-18.5929
 20
197.257
 11
-18.3989
 21
196.659
  0
LINE
  8
0
 10
-18.3989
 20
196.659
 11
-18.1315
 21
196.091
  0
LINE
  8
0
 10
-18.1315
 20
196.091
 11
-17.7951
 21
195.561
  0
LINE
  8
0
 10
-17.7951
 20
195.561
 11
-17.3948
 21
195.077
  0
LINE
  8
0
 10
-17.3948
 20
195.077
 11
-16.9371
 21
194.647
  0
LINE
  8
0
 10
-16.9371
 20
194.647
 11
-16.4291
 21
194.278
  0
LINE
  8
0
 10
-16.4291
 20
194.278
 11
-15.8789
 21
193.976
  0
LINE
  8
0
 10
-15.8789
 20
193.976
 11
-15.2951
 21
193.745
  0
LINE
  8
0
 10
-15.2951
 20
193.745
 11
-14.6869
 21
193.589
  0
LINE
  8
0
 10
-14.6869
 20
193.589
 11
-14.0639
 21
193.51
  0
LINE
  8
0
 10
-14.0639
 20
193.51
 11
14.0639
 21
193.51
  0
LINE
  8
0
 10
14.0639
 20
193.51
 11
14.6869
 21
193.589
  0
LINE
  8
0
 10
-8.50392
 20
194.04
 11
-8.07086
 21
194.278
  0
LINE
  8
0
 10
-8.07086
 20
194.278
 11
-7.56287
 21
194.647
  0
LINE
  8
0
 10
-7.56287
 20
194.647
 11
-7.10515
 21
195.077
  0
LINE
  8
0
 10
-7.10515
 20
195.077
 11
-6.70491
 21
195.561
  0
LINE
  8
0
 10
-6.70491
 20
195.561
 11
-6.36845
 21
196.091
  0
LINE
  8
0
 10
-6.36845
 20
196.091
 11
-6.1011
 21
196.659
  0
LINE
  8
0
 10
-6.1011
 20
196.659
 11
-5.90707
 21
197.257
  0
LINE
  8
0
 10
-5.90707
 20
197.257
 11
-5.78941
 21
197.873
  0
LINE
  8
0
 10
-5.78941
 20
197.873
 11
-5.75
 21
198.5
  0
LINE
  8
0
 10
-5.75
 20
198.5
 11
-5.75
 21
201.5
  0
LINE
  8
0
 10
-5.75
 20
201.5
 11
-5.78941
 21
202.127
  0
LINE
  8
0
 10
-5.78941
 20
202.127
 11
-5.90707
 21
202.743
  0
LINE
  8
0
 10
-5.90707
 20
202.743
 11
-6.1011
 21
203.341
  0
LINE
  8
0
 10
-6.1011
 20
203.341
 11
-6.36845
 21
203.909
  0
LINE
  8
0
 10
-6.36845
 20
203.909
 11
-6.70491
 21
204.439
  0
LINE
  8
0
 10
-6.70491
 20
204.439
 11
-7.10515
 21
204.923
  0
LINE
  8
0
 10
-7.10515
 20
204.923
 11
-7.56287
 21
205.353
  0
LINE
  8
0
 10
-7.56287
 20
205.353
 11
-8.07086
 21
205.722
  0
LINE
  8
0
 10
-8.07086
 20
205.722
 11
-8.62109
 21
206.024
  0
LINE
  8
0
 10
-8.62109
 20
206.024
 11
-9.20491
 21
206.255
  0
LINE
  8
0
 10
-9.20491
 20
206.255
 11
-9.81308
 21
206.411
  0
LINE
  8
0
 10
-9.81308
 20
206.411
 11
-10.436
 21
206.49
  0
LINE
  8
0
 10
-10.436
 20
206.49
 11
-14.0639
 21
206.49
  0
LINE
  8
0
 10
-14.0639
 20
206.49
 11
-14.6869
 21
206.411
  0
LINE
  8
0
 10
-14.6869
 20
206.411
 11
-15.2951
 21
206.255
  0
LINE
  8
0
 10
-15.2951
 20
206.255
 11
-15.8789
 21
206.024
  0
LINE
  8
0
 10
-15.8789
 20
206.024
 11
-16.4291
 21
205.722
  0
LINE
  8
0
 10
-16.4291
 20
205.722
 11
-16.9371
 21
205.353
  0
LINE
  8
0
 10
-16.9371
 20
205.353
 11
-17.3948
 21
204.923
  0
LINE
  8
0
 10
-17.3948
 20
204.923
 11
-17.7951
 21
204.439
  0
LINE
  8
0
 10
-17.7951
 20
204.439
 11
-18.1315
 21
203.909
  0
LINE
  8
0
 10
-18.1315
 20
203.909
 11
-18.2185
 21
203.724
  0
LINE
  8
0
 10
-18.2185
 20
203.724
 11
-18.2185
 21
233.5
  0
LINE
  8
0
 10
-18.2185
 20
233.5
 11
-18.1833
 21
234.06
  0
LINE
  8
0
 10
-18.1833
 20
234.06
 11
-18.0782
 21
234.611
  0
LINE
  8
0
 10
-18.0782
 20
234.611
 11
-17.9047
 21
235.145
  0
LINE
  8
0
 10
-17.9047
 20
235.145
 11
-17.6658
 21
235.653
  0
LINE
  8
0
 10
-17.6658
 20
235.653
 11
-17.3651
 21
236.127
  0
LINE
  8
0
 10
-17.3651
 20
236.127
 11
-17.0074
 21
236.559
  0
LINE
  8
0
 10
-17.0074
 20
236.559
 11
-16.5983
 21
236.943
  0
LINE
  8
0
 10
-16.5983
 20
236.943
 11
-16.1444
 21
237.273
  0
LINE
  8
0
 10
-16.1444
 20
237.273
 11
-15.6526
 21
237.543
  0
LINE
  8
0
 10
-15.6526
 20
237.543
 11
-15.1308
 21
237.75
  0
LINE
  8
0
 10
-15.1308
 20
237.75
 11
-14.5873
 21
237.889
  0
LINE
  8
0
 10
-14.5873
 20
237.889
 11
-14.0306
 21
237.96
  0
LINE
  8
0
 10
-14.0306
 20
237.96
 11
14.0306
 21
237.96
  0
LINE
  8
0
 10
14.0306
 20
237.96
 11
14.5873
 21
237.889
  0
LINE
  8
0
 10
14.5873
 20
237.889
 11
15.1308
 21
237.75
  0
LINE
  8
0
 10
15.1308
 20
237.75
 11
15.6526
 21
237.543
  0
LINE
  8
0
 10
15.6526
 20
237.543
 11
16.1444
 21
237.273
  0
LINE
  8
0
 10
16.1444
 20
237.273
 11
16.5983
 21
236.943
  0
LINE
  8
0
 10
16.5983
 20
236.943
 11
17.0074
 21
236.559
  0
LINE
  8
0
 10
17.0074
 20
236.559
 11
17.3651
 21
236.127
  0
LINE
  8
0
 10
17.3651
 20
236.127
 11
17.6658
 21
235.653
  0
LINE
  8
0
 10
17.6658
 20
235.653
 11
17.9047
 21
235.145
  0
LINE
  8
0
 10
17.9047
 20
235.145
 11
18.0782
 21
234.611
  0
LINE
  8
0
 10
18.0782
 20
234.611
 11
18.1833
 21
234.06
  0
LINE
  8
0
 10
18.1833
 20
234.06
 11
18.2185
 21
233.5
  0
LINE
  8
0
 10
18.2185
 20
233.5
 11
18.2185
 21
198.5
  0
LINE
  8
0
 10
18.2185
 20
198.5
 11
18.1833
 21
197.94
  0
LINE
  8
0
 10
18.1833
 20
197.94
 11
18.0782
 21
197.389
  0
LINE
  8
0
 10
18.0782
 20
197.389
 11
17.9047
 21
196.855
  0
LINE
  8
0
 10
17.9047
 20
196.855
 11
17.6658
 21
196.347
  0
LINE
  8
0
 10
17.6658
 20
196.347
 11
17.3651
 21
195.873
  0
LINE
  8
0
 10
17.3651
 20
195.873
 11
17.0074
 21
195.441
  0
LINE
  8
0
 10
17.0074
 20
195.441
 11
16.5983
 21
195.057
  0
LINE
  8
0
 10
16.5983
 20
195.057
 11
16.1444
 21
194.727
  0
LINE
  8
0
 10
16.1444
 20
194.727
 11
15.6526
 21
194.457
  0
LINE
  8
0
 10
15.6526
 20
194.457
 11
15.1308
 21
194.25
  0
LINE
  8
0
 10
15.1308
 20
194.25
 11
14.5873
 21
194.111
  0
LINE
  8
0
 10
14.5873
 20
194.111
 11
14.0306
 21
194.04
  0
LINE
  8
0
 10
14.0306
 20
194.04
 11
-8.50392
 21
194.04
  0
LINE
  8
0
 10
11.7184
 20
228.544
 11
12.0225
 21
228.622
  0
LINE
  8
0
 10
12.0225
 20
228.622
 11
12.3144
 21
228.738
  0
LINE
  8
0
 10
12.3144
 20
228.738
 11
12.5896
 21
228.889
  0
LINE
  8
0
 10
12.5896
 20
228.889
 11
12.8436
 21
229.074
  0
LINE
  8
0
 10
12.8436
 20
229.074
 11
13.0724
 21
229.289
  0
LINE
  8
0
 10
13.0724
 20
229.289
 11
13.2725
 21
229.531
  0
LINE
  8
0
 10
13.2725
 20
229.531
 11
13.4408
 21
229.796
  0
LINE
  8
0
 10
13.4408
 20
229.796
 11
13.5744
 21
230.08
  0
LINE
  8
0
 10
13.5744
 20
230.08
 11
13.6714
 21
230.378
  0
LINE
  8
0
 10
13.6714
 20
230.378
 11
13.7303
 21
230.687
  0
LINE
  8
0
 10
13.7303
 20
230.687
 11
13.75
 21
231
  0
LINE
  8
0
 10
13.75
 20
231
 11
13.7303
 21
231.313
  0
LINE
  8
0
 10
13.7303
 20
231.313
 11
13.6714
 21
231.622
  0
LINE
  8
0
 10
13.6714
 20
231.622
 11
13.5744
 21
231.92
  0
LINE
  8
0
 10
13.5744
 20
231.92
 11
13.4408
 21
232.204
  0
LINE
  8
0
 10
13.4408
 20
232.204
 11
13.2725
 21
232.469
  0
LINE
  8
0
 10
13.2725
 20
232.469
 11
13.0724
 21
232.711
  0
LINE
  8
0
 10
13.0724
 20
232.711
 11
12.8436
 21
232.926
  0
LINE
  8
0
 10
12.8436
 20
232.926
 11
12.5896
 21
233.111
  0
LINE
  8
0
 10
12.5896
 20
233.111
 11
12.3144
 21
233.262
  0
LINE
  8
0
 10
12.3144
 20
233.262
 11
12.0225
 21
233.378
  0
LINE
  8
0
 10
12.0225
 20
233.378
 11
11.7184
 21
233.456
  0
LINE
  8
0
 10
11.7184
 20
233.456
 11
11.407
 21
233.495
  0
LINE
  8
0
 10
11.407
 20
233.495
 11
11.093
 21
233.495
  0
LINE
  8
0
 10
11.093
 20
233.495
 11
10.7815
 21
233.456
  0
LINE
  8
0
 10
10.7815
 20
233.456
 11
10.4774
 21
233.378
  0
LINE
  8
0
 10
10.4774
 20
233.378
 11
10.1855
 21
233.262
  0
LINE
  8
0
 10
10.1855
 20
233.262
 11
9.91043
 21
233.111
  0
LINE
  8
0
 10
9.91043
 20
233.111
 11
9.65643
 21
232.926
  0
LINE
  8
0
 10
9.65643
 20
232.926
 11
9.42757
 21
232.711
  0
LINE
  8
0
 10
9.42757
 20
232.711
 11
9.22745
 21
232.469
  0
LINE
  8
0
 10
9.22745
 20
232.469
 11
9.05922
 21
232.204
  0
LINE
  8
0
 10
9.05922
 20
232.204
 11
8.92555
 21
231.92
  0
LINE
  8
0
 10
8.92555
 20
231.92
 11
8.82854
 21
231.622
  0
LINE
  8
0
 10
8.82854
 20
231.622
 11
8.7697
 21
231.313
  0
LINE
  8
0
 10
8.7697
 20
231.313
 11
8.75
 21
231
  0
LINE
  8
0
 10
8.75
 20
231
 11
8.7697
 21
230.687
  0
LINE
  8
0
 10
8.7697
 20
230.687
 11
8.82854
 21
230.378
  0
LINE
  8
0
 10
8.82854
 20
230.378
 11
8.92555
 21
230.08
  0
LINE
  8
0
 10
8.92555
 20
230.08
 11
9.05922
 21
229.796
  0
LINE
  8
0
 10
9.05922
 20
229.796
 11
9.22745
 21
229.531
  0
LINE
  8
0
 10
9.22745
 20
229.531
 11
9.42757
 21
229.289
  0
LINE
  8
0
 10
9.42757
 20
229.289
 11
9.65643
 21
229.074
  0
LINE
  8
0
 10
9.65643
 20
229.074
 11
9.91043
 21
228.889
  0
LINE
  8
0
 10
9.91043
 20
228.889
 11
10.1855
 21
228.738
  0
LINE
  8
0
 10
10.1855
 20
228.738
 11
10.4774
 21
228.622
  0
LINE
  8
0
 10
10.4774
 20
228.622
 11
10.7815
 21
228.544
  0
LINE
  8
0
 10
10.7815
 20
228.544
 11
11.093
 21
228.505
  0
LINE
  8
0
 10
11.093
 20
228.505
 11
11.407
 21
228.505
  0
LINE
  8
0
 10
11.407
 20
228.505
 11
11.7184
 21
228.544
  0
LINE
  8
0
 10
11.1558
 20
229.503
 11
10.9689
 21
229.527
  0
LINE
  8
0
 10
10.9689
 20
229.527
 11
10.7865
 21
229.573
  0
LINE
  8
0
 10
10.7865
 20
229.573
 11
10.6113
 21
229.643
  0
LINE
  8
0
 10
10.6113
 20
229.643
 11
10.4463
 21
229.734
  0
LINE
  8
0
 10
10.4463
 20
229.734
 11
10.2939
 21
229.844
  0
LINE
  8
0
 10
10.2939
 20
229.844
 11
10.1565
 21
229.973
  0
LINE
  8
0
 10
10.1565
 20
229.973
 11
10.0365
 21
230.118
  0
LINE
  8
0
 10
10.0365
 20
230.118
 11
9.93553
 21
230.277
  0
LINE
  8
0
 10
9.93553
 20
230.277
 11
9.85533
 21
230.448
  0
LINE
  8
0
 10
9.85533
 20
230.448
 11
9.79712
 21
230.627
  0
LINE
  8
0
 10
9.79712
 20
230.627
 11
9.76183
 21
230.812
  0
LINE
  8
0
 10
9.76183
 20
230.812
 11
9.75
 21
231
  0
LINE
  8
0
 10
9.75
 20
231
 11
9.76183
 21
231.188
  0
LINE
  8
0
 10
9.76183
 20
231.188
 11
9.79712
 21
231.373
  0
LINE
  8
0
 10
9.79712
 20
231.373
 11
9.85533
 21
231.552
  0
LINE
  8
0
 10
9.85533
 20
231.552
 11
9.93553
 21
231.723
  0
LINE
  8
0
 10
9.93553
 20
231.723
 11
10.0365
 21
231.882
  0
LINE
  8
0
 10
10.0365
 20
231.882
 11
10.1565
 21
232.027
  0
LINE
  8
0
 10
10.1565
 20
232.027
 11
10.2939
 21
232.156
  0
LINE
  8
0
 10
10.2939
 20
232.156
 11
10.4463
 21
232.266
  0
LINE
  8
0
 10
10.4463
 20
232.266
 11
10.6113
 21
232.357
  0
LINE
  8
0
 10
10.6113
 20
232.357
 11
10.7865
 21
232.427
  0
LINE
  8
0
 10
10.7865
 20
232.427
 11
10.9689
 21
232.473
  0
LINE
  8
0
 10
10.9689
 20
232.473
 11
11.1558
 21
232.497
  0
LINE
  8
0
 10
11.1558
 20
232.497
 11
11.3442
 21
232.497
  0
LINE
  8
0
 10
11.3442
 20
232.497
 11
11.5311
 21
232.473
  0
LINE
  8
0
 10
11.5311
 20
232.473
 11
11.7135
 21
232.427
  0
LINE
  8
0
 10
11.7135
 20
232.427
 11
11.8887
 21
232.357
  0
LINE
  8
0
 10
11.8887
 20
232.357
 11
12.0537
 21
232.266
  0
LINE
  8
0
 10
12.0537
 20
232.266
 11
12.2061
 21
232.156
  0
LINE
  8
0
 10
12.2061
 20
232.156
 11
12.3434
 21
232.027
  0
LINE
  8
0
 10
12.3434
 20
232.027
 11
12.4635
 21
231.882
  0
LINE
  8
0
 10
12.4635
 20
231.882
 11
12.5645
 21
231.723
  0
LINE
  8
0
 10
12.5645
 20
231.723
 11
12.6447
 21
231.552
  0
LINE
  8
0
 10
12.6447
 20
231.552
 11
12.7029
 21
231.373
  0
LINE
  8
0
 10
12.7029
 20
231.373
 11
12.7382
 21
231.188
  0
LINE
  8
0
 10
12.7382
 20
231.188
 11
12.75
 21
231
  0
LINE
  8
0
 10
12.75
 20
231
 11
12.7382
 21
230.812
  0
LINE
  8
0
 10
12.7382
 20
230.812
 11
12.7029
 21
230.627
  0
LINE
  8
0
 10
12.7029
 20
230.627
 11
12.6447
 21
230.448
  0
LINE
  8
0
 10
12.6447
 20
230.448
 11
12.5645
 21
230.277
  0
LINE
  8
0
 10
12.5645
 20
230.277
 11
12.4635
 21
230.118
  0
LINE
  8
0
 10
12.4635
 20
230.118
 11
12.3434
 21
229.973
  0
LINE
  8
0
 10
12.3434
 20
229.973
 11
12.2061
 21
229.844
  0
LINE
  8
0
 10
12.2061
 20
229.844
 11
12.0537
 21
229.734
  0
LINE
  8
0
 10
12.0537
 20
229.734
 11
11.8887
 21
229.643
  0
LINE
  8
0
 10
11.8887
 20
229.643
 11
11.7135
 21
229.573
  0
LINE
  8
0
 10
11.7135
 20
229.573
 11
11.5311
 21
229.527
  0
LINE
  8
0
 10
11.5311
 20
229.527
 11
11.3442
 21
229.503
  0
LINE
  8
0
 10
11.3442
 20
229.503
 11
11.1558
 21
229.503
  0
LINE
  8
0
 10
-11.3442
 20
199.503
 11
-11.5311
 21
199.527
  0
LINE
  8
0
 10
-11.5311
 20
199.527
 11
-11.7135
 21
199.573
  0
LINE
  8
0
 10
-11.7135
 20
199.573
 11
-11.8887
 21
199.643
  0
LINE
  8
0
 10
-11.8887
 20
199.643
 11
-12.0537
 21
199.734
  0
LINE
  8
0
 10
-12.0537
 20
199.734
 11
-12.2061
 21
199.844
  0
LINE
  8
0
 10
-12.2061
 20
199.844
 11
-12.3434
 21
199.973
  0
LINE
  8
0
 10
-12.3434
 20
199.973
 11
-12.4635
 21
200.118
  0
LINE
  8
0
 10
-12.4635
 20
200.118
 11
-12.5645
 21
200.277
  0
LINE
  8
0
 10
-12.5645
 20
200.277
 11
-12.6447
 21
200.448
  0
LINE
  8
0
 10
-12.6447
 20
200.448
 11
-12.7029
 21
200.627
  0
LINE
  8
0
 10
-12.7029
 20
200.627
 11
-12.7382
 21
200.812
  0
LINE
  8
0
 10
-12.7382
 20
200.812
 11
-12.75
 21
201
  0
LINE
  8
0
 10
-12.75
 20
201
 11
-12.7382
 21
201.188
  0
LINE
  8
0
 10
-12.7382
 20
201.188
 11
-12.7029
 21
201.373
  0
LINE
  8
0
 10
-12.7029
 20
201.373
 11
-12.6447
 21
201.552
  0
LINE
  8
0
 10
-12.6447
 20
201.552
 11
-12.5645
 21
201.723
  0
LINE
  8
0
 10
-12.5645
 20
201.723
 11
-12.4635
 21
201.882
  0
LINE
  8
0
 10
-12.4635
 20
201.882
 11
-12.3434
 21
202.027
  0
LINE
  8
0
 10
-12.3434
 20
202.027
 11
-12.2061
 21
202.156
  0
LINE
  8
0
 10
-12.2061
 20
202.156
 11
-12.0537
 21
202.266
  0
LINE
  8
0
 10
-12.0537
 20
202.266
 11
-11.8887
 21
202.357
  0
LINE
  8
0
 10
-11.8887
 20
202.357
 11
-11.7135
 21
202.427
  0
LINE
  8
0
 10
-11.7135
 20
202.427
 11
-11.5311
 21
202.473
  0
LINE
  8
0
 10
-11.5311
 20
202.473
 11
-11.3442
 21
202.497
  0
LINE
  8
0
 10
-11.3442
 20
202.497
 11
-11.1558
 21
202.497
  0
LINE
  8
0
 10
-11.1558
 20
202.497
 11
-10.9689
 21
202.473
  0
LINE
  8
0
 10
-10.9689
 20
202.473
 11
-10.7865
 21
202.427
  0
LINE
  8
0
 10
-10.7865
 20
202.427
 11
-10.6113
 21
202.357
  0
LINE
  8
0
 10
-10.6113
 20
202.357
 11
-10.4463
 21
202.266
  0
LINE
  8
0
 10
-10.4463
 20
202.266
 11
-10.2939
 21
202.156
  0
LINE
  8
0
 10
-10.2939
 20
202.156
 11
-10.1565
 21
202.027
  0
LINE
  8
0
 10
-10.1565
 20
202.027
 11
-10.0365
 21
201.882
  0
LINE
  8
0
 10
-10.0365
 20
201.882
 11
-9.93553
 21
201.723
  0
LINE
  8
0
 10
-9.93553
 20
201.723
 11
-9.85533
 21
201.552
  0
LINE
  8
0
 10
-9.85533
 20
201.552
 11
-9.79712
 21
201.373
  0
LINE
  8
0
 10
-9.79712
 20
201.373
 11
-9.76183
 21
201.188
  0
LINE
  8
0
 10
-9.76183
 20
201.188
 11
-9.75
 21
201
  0
LINE
  8
0
 10
-9.75
 20
201
 11
-9.76183
 21
200.812
  0
LINE
  8
0
 10
-9.76183
 20
200.812
 11
-9.79712
 21
200.627
  0
LINE
  8
0
 10
-9.79712
 20
200.627
 11
-9.85533
 21
200.448
  0
LINE
  8
0
 10
-9.85533
 20
200.448
 11
-9.93553
 21
200.277
  0
LINE
  8
0
 10
-9.93553
 20
200.277
 11
-10.0365
 21
200.118
  0
LINE
  8
0
 10
-10.0365
 20
200.118
 11
-10.1565
 21
199.973
  0
LINE
  8
0
 10
-10.1565
 20
199.973
 11
-10.2939
 21
199.844
  0
LINE
  8
0
 10
-10.2939
 20
199.844
 11
-10.4463
 21
199.734
  0
LINE
  8
0
 10
-10.4463
 20
199.734
 11
-10.6113
 21
199.643
  0
LINE
  8
0
 10
-10.6113
 20
199.643
 11
-10.7865
 21
199.573
  0
LINE
  8
0
 10
-10.7865
 20
199.573
 11
-10.9689
 21
199.527
  0
LINE
  8
0
 10
-10.9689
 20
199.527
 11
-11.1558
 21
199.503
  0
LINE
  8
0
 10
-11.1558
 20
199.503
 11
-11.3442
 21
199.503
  0
LINE
  8
0
 10
14.6869
 20
139.589
 11
15.2951
 21
139.745
  0
LINE
  8
0
 10
15.2951
 20
139.745
 11
15.8789
 21
139.976
  0
LINE
  8
0
 10
15.8789
 20
139.976
 11
16.4291
 21
140.278
  0
LINE
  8
0
 10
16.4291
 20
140.278
 11
16.9371
 21
140.647
  0
LINE
  8
0
 10
16.9371
 20
140.647
 11
17.3948
 21
141.077
  0
LINE
  8
0
 10
17.3948
 20
141.077
 11
17.7951
 21
141.561
  0
LINE
  8
0
 10
17.7951
 20
141.561
 11
18.1315
 21
142.091
  0
LINE
  8
0
 10
18.1315
 20
142.091
 11
18.3989
 21
142.659
  0
LINE
  8
0
 10
18.3989
 20
142.659
 11
18.5929
 21
143.257
  0
LINE
  8
0
 10
18.5929
 20
143.257
 11
18.7106
 21
143.873
  0
LINE
  8
0
 10
18.7106
 20
143.873
 11
18.75
 21
144.5
  0
LINE
  8
0
 10
18.75
 20
144.5
 11
18.75
 21
179.5
  0
LINE
  8
0
 10
18.75
 20
179.5
 11
18.7106
 21
180.127
  0
LINE
  8
0
 10
18.7106
 20
180.127
 11
18.5929
 21
180.743
  0
LINE
  8
0
 10
18.5929
 20
180.743
 11
18.3989
 21
181.341
  0
LINE
  8
0
 10
18.3989
 20
181.341
 11
18.1315
 21
181.909
  0
LINE
  8
0
 10
18.1315
 20
181.909
 11
17.7951
 21
182.439
  0
LINE
  8
0
 10
17.7951
 20
182.439
 11
17.3948
 21
182.923
  0
LINE
  8
0
 10
17.3948
 20
182.923
 11
16.9371
 21
183.353
  0
LINE
  8
0
 10
16.9371
 20
183.353
 11
16.4291
 21
183.722
  0
LINE
  8
0
 10
16.4291
 20
183.722
 11
15.8789
 21
184.024
  0
LINE
  8
0
 10
15.8789
 20
184.024
 11
15.2951
 21
184.255
  0
LINE
  8
0
 10
15.2951
 20
184.255
 11
14.6869
 21
184.411
  0
LINE
  8
0
 10
14.6869
 20
184.411
 11
14.0639
 21
184.49
  0
LINE
  8
0
 10
14.0639
 20
184.49
 11
-14.0639
 21
184.49
  0
LINE
  8
0
 10
-14.0639
 20
184.49
 11
-14.6869
 21
184.411
  0
LINE
  8
0
 10
-14.6869
 20
184.411
 11
-15.2951
 21
184.255
  0
LINE
  8
0
 10
-15.2951
 20
184.255
 11
-15.8789
 21
184.024
  0
LINE
  8
0
 10
-15.8789
 20
184.024
 11
-16.4291
 21
183.722
  0
LINE
  8
0
 10
-16.4291
 20
183.722
 11
-16.9371
 21
183.353
  0
LINE
  8
0
 10
-16.9371
 20
183.353
 11
-17.3948
 21
182.923
  0
LINE
  8
0
 10
-17.3948
 20
182.923
 11
-17.7951
 21
182.439
  0
LINE
  8
0
 10
-17.7951
 20
182.439
 11
-18.1315
 21
181.909
  0
LINE
  8
0
 10
-18.1315
 20
181.909
 11
-18.3989
 21
181.341
  0
LINE
  8
0
 10
-18.3989
 20
181.341
 11
-18.5929
 21
180.743
  0
LINE
  8
0
 10
-18.5929
 20
180.743
 11
-18.7106
 21
180.127
  0
LINE
  8
0
 10
-18.7106
 20
180.127
 11
-18.75
 21
179.5
  0
LINE
  8
0
 10
-18.75
 20
179.5
 11
-18.75
 21
144.5
  0
LINE
  8
0
 10
-18.75
 20
144.5
 11
-18.7106
 21
143.873
  0
LINE
  8
0
 10
-18.7106
 20
143.873
 11
-18.5929
 21
143.257
  0
LINE
  8
0
 10
-18.5929
 20
143.257
 11
-18.3989
 21
142.659
  0
LINE
  8
0
 10
-18.3989
 20
142.659
 11
-18.1315
 21
142.091
  0
LINE
  8
0
 10
-18.1315
 20
142.091
 11
-17.7951
 21
141.561
  0
LINE
  8
0
 10
-17.7951
 20
141.561
 11
-17.3948
 21
141.077
  0
LINE
  8
0
 10
-17.3948
 20
141.077
 11
-16.9371
 21
140.647
  0
LINE
  8
0
 10
-16.9371
 20
140.647
 11
-16.4291
 21
140.278
  0
LINE
  8
0
 10
-16.4291
 20
140.278
 11
-15.8789
 21
139.976
  0
LINE
  8
0
 10
-15.8789
 20
139.976
 11
-15.2951
 21
139.745
  0
LINE
  8
0
 10
-15.2951
 20
139.745
 11
-14.6869
 21
139.589
  0
LINE
  8
0
 10
-14.6869
 20
139.589
 11
-14.0639
 21
139.51
  0
LINE
  8
0
 10
-14.0639
 20
139.51
 11
14.0639
 21
139.51
  0
LINE
  8
0
 10
14.0639
 20
139.51
 11
14.6869
 21
139.589
  0
LINE
  8
0
 10
-6.62805
 20
141.682
 11
-6.36845
 21
142.091
  0
LINE
  8
0
 10
-6.36845
 20
142.091
 11
-6.1011
 21
142.659
  0
LINE
  8
0
 10
-6.1011
 20
142.659
 11
-5.90707
 21
143.257
  0
LINE
  8
0
 10
-5.90707
 20
143.257
 11
-5.78941
 21
143.873
  0
LINE
  8
0
 10
-5.78941
 20
143.873
 11
-5.75
 21
144.5
  0
LINE
  8
0
 10
-5.75
 20
144.5
 11
-5.75
 21
147.5
  0
LINE
  8
0
 10
-5.75
 20
147.5
 11
-5.78941
 21
148.127
  0
LINE
  8
0
 10
-5.78941
 20
148.127
 11
-5.90707
 21
148.743
  0
LINE
  8
0
 10
-5.90707
 20
148.743
 11
-6.1011
 21
149.341
  0
LINE
  8
0
 10
-6.1011
 20
149.341
 11
-6.36845
 21
149.909
  0
LINE
  8
0
 10
-6.36845
 20
149.909
 11
-6.70491
 21
150.439
  0
LINE
  8
0
 10
-6.70491
 20
150.439
 11
-7.10515
 21
150.923
  0
LINE
  8
0
 10
-7.10515
 20
150.923
 11
-7.56287
 21
151.353
  0
LINE
  8
0
 10
-7.56287
 20
151.353
 11
-8.07086
 21
151.722
  0
LINE
  8
0
 10
-8.07086
 20
151.722
 11
-8.62109
 21
152.024
  0
LINE
  8
0
 10
-8.62109
 20
152.024
 11
-9.20491
 21
152.255
  0
LINE
  8
0
 10
-9.20491
 20
152.255
 11
-9.81308
 21
152.411
  0
LINE
  8
0
 10
-9.81308
 20
152.411
 11
-10.436
 21
152.49
  0
LINE
  8
0
 10
-10.436
 20
152.49
 11
-14.0639
 21
152.49
  0
LINE
  8
0
 10
-14.0639
 20
152.49
 11
-14.6869
 21
152.411
  0
LINE
  8
0
 10
-14.6869
 20
152.411
 11
-15.2951
 21
152.255
  0
LINE
  8
0
 10
-15.2951
 20
152.255
 11
-15.8789
 21
152.024
  0
LINE
  8
0
 10
-15.8789
 20
152.024
 11
-16.4291
 21
151.722
  0
LINE
  8
0
 10
-16.4291
 20
151.722
 11
-16.5734
 21
151.617
  0
LINE
  8
0
 10
-16.5734
 20
151.617
 11
-16.5734
 21
179.5
  0
LINE
  8
0
 10
-16.5734
 20
179.5
 11
-16.5511
 21
179.854
  0
LINE
  8
0
 10
-16.5511
 20
179.854
 11
-16.4847
 21
180.202
  0
LINE
  8
0
 10
-16.4847
 20
180.202
 11
-16.3751
 21
180.539
  0
LINE
  8
0
 10
-16.3751
 20
180.539
 11
-16.2242
 21
180.86
  0
LINE
  8
0
 10
-16.2242
 20
180.86
 11
-16.0342
 21
181.16
  0
LINE
  8
0
 10
-16.0342
 20
181.16
 11
-15.8082
 21
181.433
  0
LINE
  8
0
 10
-15.8082
 20
181.433
 11
-15.5497
 21
181.675
  0
LINE
  8
0
 10
-15.5497
 20
181.675
 11
-15.2628
 21
181.884
  0
LINE
  8
0
 10
-15.2628
 20
181.884
 11
-14.9521
 21
182.055
  0
LINE
  8
0
 10
-14.9521
 20
182.055
 11
-14.6225
 21
182.185
  0
LINE
  8
0
 10
-14.6225
 20
182.185
 11
-14.2791
 21
182.273
  0
LINE
  8
0
 10
-14.2791
 20
182.273
 11
-13.9273
 21
182.318
  0
LINE
  8
0
 10
-13.9273
 20
182.318
 11
6.62805
 21
182.318
  0
LINE
  8
0
 10
6.62805
 20
182.318
 11
6.36845
 21
181.909
  0
LINE
  8
0
 10
6.36845
 20
181.909
 11
6.1011
 21
181.341
  0
LINE
  8
0
 10
6.1011
 20
181.341
 11
5.90707
 21
180.743
  0
LINE
  8
0
 10
5.90707
 20
180.743
 11
5.78941
 21
180.127
  0
LINE
  8
0
 10
5.78941
 20
180.127
 11
5.75
 21
179.5
  0
LINE
  8
0
 10
5.75
 20
179.5
 11
5.75
 21
176.5
  0
LINE
  8
0
 10
5.75
 20
176.5
 11
5.78941
 21
175.873
  0
LINE
  8
0
 10
5.78941
 20
175.873
 11
5.90707
 21
175.257
  0
LINE
  8
0
 10
5.90707
 20
175.257
 11
6.1011
 21
174.659
  0
LINE
  8
0
 10
6.1011
 20
174.659
 11
6.36845
 21
174.091
  0
LINE
  8
0
 10
6.36845
 20
174.091
 11
6.70491
 21
173.561
  0
LINE
  8
0
 10
6.70491
 20
173.561
 11
7.10515
 21
173.077
  0
LINE
  8
0
 10
7.10515
 20
173.077
 11
7.56287
 21
172.647
  0
LINE
  8
0
 10
7.56287
 20
172.647
 11
8.07086
 21
172.278
  0
LINE
  8
0
 10
8.07086
 20
172.278
 11
8.62109
 21
171.976
  0
LINE
  8
0
 10
8.62109
 20
171.976
 11
9.20491
 21
171.745
  0
LINE
  8
0
 10
9.20491
 20
171.745
 11
9.81308
 21
171.589
  0
LINE
  8
0
 10
9.81308
 20
171.589
 11
10.436
 21
171.51
  0
LINE
  8
0
 10
10.436
 20
171.51
 11
14.0639
 21
171.51
  0
LINE
  8
0
 10
14.0639
 20
171.51
 11
14.6869
 21
171.589
  0
LINE
  8
0
 10
14.6869
 20
171.589
 11
15.2951
 21
171.745
  0
LINE
  8
0
 10
15.2951
 20
171.745
 11
15.8789
 21
171.976
  0
LINE
  8
0
 10
15.8789
 20
171.976
 11
16.4291
 21
172.278
  0
LINE
  8
0
 10
16.4291
 20
172.278
 11
16.5734
 21
172.383
  0
LINE
  8
0
 10
16.5734
 20
172.383
 11
16.5734
 21
144.5
  0
LINE
  8
0
 10
16.5734
 20
144.5
 11
16.5511
 21
144.146
  0
LINE
  8
0
 10
16.5511
 20
144.146
 11
16.4847
 21
143.798
  0
LINE
  8
0
 10
16.4847
 20
143.798
 11
16.3751
 21
143.461
  0
LINE
  8
0
 10
16.3751
 20
143.461
 11
16.2242
 21
143.14
  0
LINE
  8
0
 10
16.2242
 20
143.14
 11
16.0342
 21
142.84
  0
LINE
  8
0
 10
16.0342
 20
142.84
 11
15.8082
 21
142.567
  0
LINE
  8
0
 10
15.8082
 20
142.567
 11
15.5497
 21
142.325
  0
LINE
  8
0
 10
15.5497
 20
142.325
 11
15.2628
 21
142.116
  0
LINE
  8
0
 10
15.2628
 20
142.116
 11
14.9521
 21
141.945
  0
LINE
  8
0
 10
14.9521
 20
141.945
 11
14.6225
 21
141.815
  0
LINE
  8
0
 10
14.6225
 20
141.815
 11
14.2791
 21
141.727
  0
LINE
  8
0
 10
14.2791
 20
141.727
 11
13.9273
 21
141.682
  0
LINE
  8
0
 10
13.9273
 20
141.682
 11
-6.62805
 21
141.682
  0
LINE
  8
0
 10
11.0993
 20
174.605
 11
10.8003
 21
174.643
  0
LINE
  8
0
 10
10.8003
 20
174.643
 11
10.5083
 21
174.717
  0
LINE
  8
0
 10
10.5083
 20
174.717
 11
10.2281
 21
174.828
  0
LINE
  8
0
 10
10.2281
 20
174.828
 11
9.964
 21
174.974
  0
LINE
  8
0
 10
9.964
 20
174.974
 11
9.72017
 21
175.151
  0
LINE
  8
0
 10
9.72017
 20
175.151
 11
9.50047
 21
175.357
  0
LINE
  8
0
 10
9.50047
 20
175.357
 11
9.30835
 21
175.589
  0
LINE
  8
0
 10
9.30835
 20
175.589
 11
9.14685
 21
175.844
  0
LINE
  8
0
 10
9.14685
 20
175.844
 11
9.01852
 21
176.117
  0
LINE
  8
0
 10
9.01852
 20
176.117
 11
8.9254
 21
176.403
  0
LINE
  8
0
 10
8.9254
 20
176.403
 11
8.86891
 21
176.699
  0
LINE
  8
0
 10
8.86891
 20
176.699
 11
8.84999
 21
177
  0
LINE
  8
0
 10
8.84999
 20
177
 11
8.86891
 21
177.301
  0
LINE
  8
0
 10
8.86891
 20
177.301
 11
8.9254
 21
177.597
  0
LINE
  8
0
 10
8.9254
 20
177.597
 11
9.01852
 21
177.883
  0
LINE
  8
0
 10
9.01852
 20
177.883
 11
9.14685
 21
178.156
  0
LINE
  8
0
 10
9.14685
 20
178.156
 11
9.30835
 21
178.411
  0
LINE
  8
0
 10
9.30835
 20
178.411
 11
9.50047
 21
178.643
  0
LINE
  8
0
 10
9.50047
 20
178.643
 11
9.72017
 21
178.849
  0
LINE
  8
0
 10
9.72017
 20
178.849
 11
9.964
 21
179.026
  0
LINE
  8
0
 10
9.964
 20
179.026
 11
10.2281
 21
179.172
  0
LINE
  8
0
 10
10.2281
 20
179.172
 11
10.5083
 21
179.283
  0
LINE
  8
0
 10
10.5083
 20
179.283
 11
10.8003
 21
179.357
  0
LINE
  8
0
 10
10.8003
 20
179.357
 11
11.0993
 21
179.395
  0
LINE
  8
0
 10
11.0993
 20
179.395
 11
11.4007
 21
179.395
  0
LINE
  8
0
 10
11.4007
 20
179.395
 11
11.6997
 21
179.357
  0
LINE
  8
0
 10
11.6997
 20
179.357
 11
11.9916
 21
179.283
  0
LINE
  8
0
 10
11.9916
 20
179.283
 11
12.2719
 21
179.172
  0
LINE
  8
0
 10
12.2719
 20
179.172
 11
12.536
 21
179.026
  0
LINE
  8
0
 10
12.536
 20
179.026
 11
12.7798
 21
178.849
  0
LINE
  8
0
 10
12.7798
 20
178.849
 11
12.9995
 21
178.643
  0
LINE
  8
0
 10
12.9995
 20
178.643
 11
13.1916
 21
178.411
  0
LINE
  8
0
 10
13.1916
 20
178.411
 11
13.3531
 21
178.156
  0
LINE
  8
0
 10
13.3531
 20
178.156
 11
13.4815
 21
177.883
  0
LINE
  8
0
 10
13.4815
 20
177.883
 11
13.5746
 21
177.597
  0
LINE
  8
0
 10
13.5746
 20
177.597
 11
13.6311
 21
177.301
  0
LINE
  8
0
 10
13.6311
 20
177.301
 11
13.65
 21
177
  0
LINE
  8
0
 10
13.65
 20
177
 11
13.6311
 21
176.699
  0
LINE
  8
0
 10
13.6311
 20
176.699
 11
13.5746
 21
176.403
  0
LINE
  8
0
 10
13.5746
 20
176.403
 11
13.4815
 21
176.117
  0
LINE
  8
0
 10
13.4815
 20
176.117
 11
13.3531
 21
175.844
  0
LINE
  8
0
 10
13.3531
 20
175.844
 11
13.1916
 21
175.589
  0
LINE
  8
0
 10
13.1916
 20
175.589
 11
12.9995
 21
175.357
  0
LINE
  8
0
 10
12.9995
 20
175.357
 11
12.7798
 21
175.151
  0
LINE
  8
0
 10
12.7798
 20
175.151
 11
12.536
 21
174.974
  0
LINE
  8
0
 10
12.536
 20
174.974
 11
12.2719
 21
174.828
  0
LINE
  8
0
 10
12.2719
 20
174.828
 11
11.9916
 21
174.717
  0
LINE
  8
0
 10
11.9916
 20
174.717
 11
11.6997
 21
174.643
  0
LINE
  8
0
 10
11.6997
 20
174.643
 11
11.4007
 21
174.605
  0
LINE
  8
0
 10
11.4007
 20
174.605
 11
11.0993
 21
174.605
  0
LINE
  8
0
 10
-11.4007
 20
144.605
 11
-11.6997
 21
144.643
  0
LINE
  8
0
 10
-11.6997
 20
144.643
 11
-11.9916
 21
144.717
  0
LINE
  8
0
 10
-11.9916
 20
144.717
 11
-12.2719
 21
144.828
  0
LINE
  8
0
 10
-12.2719
 20
144.828
 11
-12.536
 21
144.974
  0
LINE
  8
0
 10
-12.536
 20
144.974
 11
-12.7798
 21
145.151
  0
LINE
  8
0
 10
-12.7798
 20
145.151
 11
-12.9995
 21
145.357
  0
LINE
  8
0
 10
-12.9995
 20
145.357
 11
-13.1916
 21
145.589
  0
LINE
  8
0
 10
-13.1916
 20
145.589
 11
-13.3531
 21
145.844
  0
LINE
  8
0
 10
-13.3531
 20
145.844
 11
-13.4815
 21
146.117
  0
LINE
  8
0
 10
-13.4815
 20
146.117
 11
-13.5746
 21
146.403
  0
LINE
  8
0
 10
-13.5746
 20
146.403
 11
-13.6311
 21
146.699
  0
LINE
  8
0
 10
-13.6311
 20
146.699
 11
-13.65
 21
147
  0
LINE
  8
0
 10
-13.65
 20
147
 11
-13.6311
 21
147.301
  0
LINE
  8
0
 10
-13.6311
 20
147.301
 11
-13.5746
 21
147.597
  0
LINE
  8
0
 10
-13.5746
 20
147.597
 11
-13.4815
 21
147.883
  0
LINE
  8
0
 10
-13.4815
 20
147.883
 11
-13.3531
 21
148.156
  0
LINE
  8
0
 10
-13.3531
 20
148.156
 11
-13.1916
 21
148.411
  0
LINE
  8
0
 10
-13.1916
 20
148.411
 11
-12.9995
 21
148.643
  0
LINE
  8
0
 10
-12.9995
 20
148.643
 11
-12.7798
 21
148.849
  0
LINE
  8
0
 10
-12.7798
 20
148.849
 11
-12.536
 21
149.026
  0
LINE
  8
0
 10
-12.536
 20
149.026
 11
-12.2719
 21
149.172
  0
LINE
  8
0
 10
-12.2719
 20
149.172
 11
-11.9916
 21
149.283
  0
LINE
  8
0
 10
-11.9916
 20
149.283
 11
-11.6997
 21
149.357
  0
LINE
  8
0
 10
-11.6997
 20
149.357
 11
-11.4007
 21
149.395
  0
LINE
  8
0
 10
-11.4007
 20
149.395
 11
-11.0993
 21
149.395
  0
LINE
  8
0
 10
-11.0993
 20
149.395
 11
-10.8003
 21
149.357
  0
LINE
  8
0
 10
-10.8003
 20
149.357
 11
-10.5083
 21
149.283
  0
LINE
  8
0
 10
-10.5083
 20
149.283
 11
-10.2281
 21
149.172
  0
LINE
  8
0
 10
-10.2281
 20
149.172
 11
-9.964
 21
149.026
  0
LINE
  8
0
 10
-9.964
 20
149.026
 11
-9.72017
 21
148.849
  0
LINE
  8
0
 10
-9.72017
 20
148.849
 11
-9.50047
 21
148.643
  0
LINE
  8
0
 10
-9.50047
 20
148.643
 11
-9.30835
 21
148.411
  0
LINE
  8
0
 10
-9.30835
 20
148.411
 11
-9.14685
 21
148.156
  0
LINE
  8
0
 10
-9.14685
 20
148.156
 11
-9.01852
 21
147.883
  0
LINE
  8
0
 10
-9.01852
 20
147.883
 11
-8.9254
 21
147.597
  0
LINE
  8
0
 10
-8.9254
 20
147.597
 11
-8.86891
 21
147.301
  0
LINE
  8
0
 10
-8.86891
 20
147.301
 11
-8.84999
 21
147
  0
LINE
  8
0
 10
-8.84999
 20
147
 11
-8.86891
 21
146.699
  0
LINE
  8
0
 10
-8.86891
 20
146.699
 11
-8.9254
 21
146.403
  0
LINE
  8
0
 10
-8.9254
 20
146.403
 11
-9.01852
 21
146.117
  0
LINE
  8
0
 10
-9.01852
 20
146.117
 11
-9.14685
 21
145.844
  0
LINE
  8
0
 10
-9.14685
 20
145.844
 11
-9.30835
 21
145.589
  0
LINE
  8
0
 10
-9.30835
 20
145.589
 11
-9.50047
 21
145.357
  0
LINE
  8
0
 10
-9.50047
 20
145.357
 11
-9.72017
 21
145.151
  0
LINE
  8
0
 10
-9.72017
 20
145.151
 11
-9.964
 21
144.974
  0
LINE
  8
0
 10
-9.964
 20
144.974
 11
-10.2281
 21
144.828
  0
LINE
  8
0
 10
-10.2281
 20
144.828
 11
-10.5083
 21
144.717
  0
LINE
  8
0
 10
-10.5083
 20
144.717
 11
-10.8003
 21
144.643
  0
LINE
  8
0
 10
-10.8003
 20
144.643
 11
-11.0993
 21
144.605
  0
LINE
  8
0
 10
-11.0993
 20
144.605
 11
-11.4007
 21
144.605
  0
ENDSEC
  0
SECTION
  2
OBJECTS
  0
DICTIONARY
  0
ENDSEC
  0
EOF
