<?xml version="1.0" standalone="no"?>
<!DOCTYPE svg PUBLIC "-//W3C//DTD SVG 1.1//EN" "http://www.w3.org/Graphics/SVG/1.1/DTD/svg11.dtd">
<svg width="38mm" height="154mm" viewBox="-19 -293 38 154" xmlns="http://www.w3.org/2000/svg" version="1.1">
<title>OpenSCAD Model</title>
<path d="
M 14.6869,-247.589 L 15.2951,-247.745 L 15.8789,-247.976 L 16.4291,-248.278 L 16.9371,-248.647 L 17.3948,-249.077
 L 17.7951,-249.561 L 18.1315,-250.091 L 18.3989,-250.659 L 18.5929,-251.257 L 18.7106,-251.873 L 18.75,-252.5
 L 18.75,-287.5 L 18.7106,-288.127 L 18.5929,-288.743 L 18.3989,-289.341 L 18.1315,-289.909 L 17.7951,-290.439
 L 17.3948,-290.923 L 16.9371,-291.353 L 16.4291,-291.722 L 15.8789,-292.024 L 15.2951,-292.255 L 14.6869,-292.411
 L 14.0639,-292.49 L -14.0639,-292.49 L -14.6869,-292.411 L -15.2951,-292.255 L -15.8789,-292.024 L -16.4291,-291.722
 L -16.9371,-291.353 L -17.3948,-290.923 L -17.7951,-290.439 L -18.1315,-289.909 L -18.3989,-289.341 L -18.5929,-288.743
 L -18.7106,-288.127 L -18.75,-287.5 L -18.75,-252.5 L -18.7106,-251.873 L -18.5929,-251.257 L -18.3989,-250.659
 L -18.1315,-250.091 L -17.7951,-249.561 L -17.3948,-249.077 L -16.9371,-248.647 L -16.4291,-248.278 L -15.8789,-247.976
 L -15.2951,-247.745 L -14.6869,-247.589 L -14.0639,-247.51 L 14.0639,-247.51 z
M -8.56104,-248.009 L -8.07086,-248.278 L -7.56287,-248.647 L -7.10515,-249.077 L -6.70491,-249.561 L -6.36845,-250.091
 L -6.1011,-250.659 L -5.90707,-251.257 L -5.78941,-251.873 L -5.75,-252.5 L -5.75,-255.5 L -5.78941,-256.127
 L -5.90707,-256.743 L -6.1011,-257.341 L -6.36845,-257.909 L -6.70491,-258.439 L -7.10515,-258.923 L -7.56287,-259.353
 L -8.07086,-259.722 L -8.62109,-260.024 L -9.20491,-260.255 L -9.81308,-260.411 L -10.436,-260.49 L -14.0639,-260.49
 L -14.6869,-260.411 L -15.2951,-260.255 L -15.8789,-260.024 L -16.4291,-259.722 L -16.9371,-259.353 L -17.3948,-258.923
 L -17.7951,-258.439 L -18.1315,-257.909 L -18.25,-257.657 L -18.25,-287.5 L -18.2145,-288.064 L -18.1086,-288.619
 L -17.934,-289.157 L -17.6934,-289.668 L -17.3906,-290.145 L -17.0303,-290.58 L -16.6184,-290.967 L -16.1612,-291.299
 L -15.666,-291.572 L -15.1406,-291.78 L -14.5932,-291.92 L -14.0325,-291.991 L 14.0325,-291.991 L 14.5932,-291.92
 L 15.1406,-291.78 L 15.666,-291.572 L 16.1612,-291.299 L 16.6184,-290.967 L 17.0303,-290.58 L 17.3906,-290.145
 L 17.6934,-289.668 L 17.934,-289.157 L 18.1086,-288.619 L 18.2145,-288.064 L 18.25,-287.5 L 18.25,-252.5
 L 18.2145,-251.936 L 18.1086,-251.381 L 17.934,-250.843 L 17.6934,-250.332 L 17.3906,-249.855 L 17.0303,-249.42
 L 16.6184,-249.033 L 16.1612,-248.701 L 15.666,-248.428 L 15.1406,-248.22 L 14.5932,-248.08 L 14.0325,-248.009
 z
M 11.7184,-282.544 L 12.0225,-282.622 L 12.3144,-282.738 L 12.5896,-282.889 L 12.8436,-283.074 L 13.0724,-283.289
 L 13.2725,-283.531 L 13.4408,-283.796 L 13.5744,-284.08 L 13.6714,-284.378 L 13.7303,-284.687 L 13.75,-285
 L 13.7303,-285.313 L 13.6714,-285.622 L 13.5744,-285.92 L 13.4408,-286.204 L 13.2725,-286.469 L 13.0724,-286.711
 L 12.8436,-286.926 L 12.5896,-287.111 L 12.3144,-287.262 L 12.0225,-287.378 L 11.7184,-287.456 L 11.407,-287.495
 L 11.093,-287.495 L 10.7815,-287.456 L 10.4774,-287.378 L 10.1855,-287.262 L 9.91043,-287.111 L 9.65643,-286.926
 L 9.42757,-286.711 L 9.22745,-286.469 L 9.05922,-286.204 L 8.92555,-285.92 L 8.82854,-285.622 L 8.7697,-285.313
 L 8.75,-285 L 8.7697,-284.687 L 8.82854,-284.378 L 8.92555,-284.08 L 9.05922,-283.796 L 9.22745,-283.531
 L 9.42757,-283.289 L 9.65643,-283.074 L 9.91043,-282.889 L 10.1855,-282.738 L 10.4774,-282.622 L 10.7815,-282.544
 L 11.093,-282.505 L 11.407,-282.505 z
M 11.1558,-283.503 L 10.9689,-283.527 L 10.7865,-283.573 L 10.6113,-283.643 L 10.4463,-283.734 L 10.2939,-283.844
 L 10.1565,-283.973 L 10.0365,-284.118 L 9.93553,-284.277 L 9.85533,-284.448 L 9.79712,-284.627 L 9.76183,-284.812
 L 9.75,-285 L 9.76183,-285.188 L 9.79712,-285.373 L 9.85533,-285.552 L 9.93553,-285.723 L 10.0365,-285.882
 L 10.1565,-286.027 L 10.2939,-286.156 L 10.4463,-286.266 L 10.6113,-286.357 L 10.7865,-286.427 L 10.9689,-286.473
 L 11.1558,-286.497 L 11.3442,-286.497 L 11.5311,-286.473 L 11.7135,-286.427 L 11.8887,-286.357 L 12.0537,-286.266
 L 12.2061,-286.156 L 12.3434,-286.027 L 12.4635,-285.882 L 12.5645,-285.723 L 12.6447,-285.552 L 12.7029,-285.373
 L 12.7382,-285.188 L 12.75,-285 L 12.7382,-284.812 L 12.7029,-284.627 L 12.6447,-284.448 L 12.5645,-284.277
 L 12.4635,-284.118 L 12.3434,-283.973 L 12.2061,-283.844 L 12.0537,-283.734 L 11.8887,-283.643 L 11.7135,-283.573
 L 11.5311,-283.527 L 11.3442,-283.503 z
M -11.3442,-253.503 L -11.5311,-253.527 L -11.7135,-253.573 L -11.8887,-253.643 L -12.0537,-253.734 L -12.2061,-253.844
 L -12.3434,-253.973 L -12.4635,-254.118 L -12.5645,-254.277 L -12.6447,-254.448 L -12.7029,-254.627 L -12.7382,-254.812
 L -12.75,-255 L -12.7382,-255.188 L -12.7029,-255.373 L -12.6447,-255.552 L -12.5645,-255.723 L -12.4635,-255.882
 L -12.3434,-256.027 L -12.2061,-256.156 L -12.0537,-256.266 L -11.8887,-256.357 L -11.7135,-256.427 L -11.5311,-256.473
 L -11.3442,-256.497 L -11.1558,-256.497 L -10.9689,-256.473 L -10.7865,-256.427 L -10.6113,-256.357 L -10.4463,-256.266
 L -10.2939,-256.156 L -10.1565,-256.027 L -10.0365,-255.882 L -9.93553,-255.723 L -9.85533,-255.552 L -9.79712,-255.373
 L -9.76183,-255.188 L -9.75,-255 L -9.76183,-254.812 L -9.79712,-254.627 L -9.85533,-254.448 L -9.93553,-254.277
 L -10.0365,-254.118 L -10.1565,-253.973 L -10.2939,-253.844 L -10.4463,-253.734 L -10.6113,-253.643 L -10.7865,-253.573
 L -10.9689,-253.527 L -11.1558,-253.503 z
M 14.6869,-193.589 L 15.2951,-193.745 L 15.8789,-193.976 L 16.4291,-194.278 L 16.9371,-194.647 L 17.3948,-195.077
 L 17.7951,-195.561 L 18.1315,-196.091 L 18.3989,-196.659 L 18.5929,-197.257 L 18.7106,-197.873 L 18.75,-198.5
 L 18.75,-233.5 L 18.7106,-234.127 L 18.5929,-234.743 L 18.3989,-235.341 L 18.1315,-235.909 L 17.7951,-236.439
 L 17.3948,-236.923 L 16.9371,-237.353 L 16.4291,-237.722 L 15.8789,-238.024 L 15.2951,-238.255 L 14.6869,-238.411
 L 14.0639,-238.49 L -14.0639,-238.49 L -14.6869,-238.411 L -15.2951,-238.255 L -15.8789,-238.024 L -16.4291,-237.722
 L -16.9371,-237.353 L -17.3948,-236.923 L -17.7951,-236.439 L -18.1315,-235.909 L -18.3989,-235.341 L -18.5929,-234.743
 L -18.7106,-234.127 L -18.75,-233.5 L -18.75,-198.5 L -18.7106,-197.873 L -18.5929,-197.257 L -18.3989,-196.659
 L -18.1315,-196.091 L -17.7951,-195.561 L -17.3948,-195.077 L -16.9371,-194.647 L -16.4291,-194.278 L -15.8789,-193.976
 L -15.2951,-193.745 L -14.6869,-193.589 L -14.0639,-193.51 L 14.0639,-193.51 z
M -8.50392,-194.04 L -8.07086,-194.278 L -7.56287,-194.647 L -7.10515,-195.077 L -6.70491,-195.561 L -6.36845,-196.091
 L -6.1011,-196.659 L -5.90707,-197.257 L -5.78941,-197.873 L -5.75,-198.5 L -5.75,-201.5 L -5.78941,-202.127
 L -5.90707,-202.743 L -6.1011,-203.341 L -6.36845,-203.909 L -6.70491,-204.439 L -7.10515,-204.923 L -7.56287,-205.353
 L -8.07086,-205.722 L -8.62109,-206.024 L -9.20491,-206.255 L -9.81308,-206.411 L -10.436,-206.49 L -14.0639,-206.49
 L -14.6869,-206.411 L -15.2951,-206.255 L -15.8789,-206.024 L -16.4291,-205.722 L -16.9371,-205.353 L -17.3948,-204.923
 L -17.7951,-204.439 L -18.1315,-203.909 L -18.2185,-203.724 L -18.2185,-233.5 L -18.1833,-234.06 L -18.0782,-234.611
 L -17.9047,-235.145 L -17.6658,-235.653 L -17.3651,-236.127 L -17.0074,-236.559 L -16.5983,-236.943 L -16.1444,-237.273
 L -15.6526,-237.543 L -15.1308,-237.75 L -14.5873,-237.889 L -14.0306,-237.96 L 14.0306,-237.96 L 14.5873,-237.889
 L 15.1308,-237.75 L 15.6526,-237.543 L 16.1444,-237.273 L 16.5983,-236.943 L 17.0074,-236.559 L 17.3651,-236.127
 L 17.6658,-235.653 L 17.9047,-235.145 L 18.0782,-234.611 L 18.1833,-234.06 L 18.2185,-233.5 L 18.2185,-198.5
 L 18.1833,-197.94 L 18.0782,-197.389 L 17.9047,-196.855 L 17.6658,-196.347 L 17.3651,-195.873 L 17.0074,-195.441
 L 16.5983,-195.057 L 16.1444,-194.727 L 15.6526,-194.457 L 15.1308,-194.25 L 14.5873,-194.111 L 14.0306,-194.04
 z
M 11.7184,-228.544 L 12.0225,-228.622 L 12.3144,-228.738 L 12.5896,-228.889 L 12.8436,-229.074 L 13.0724,-229.289
 L 13.2725,-229.531 L 13.4408,-229.796 L 13.5744,-230.08 L 13.6714,-230.378 L 13.7303,-230.687 L 13.75,-231
 L 13.7303,-231.313 L 13.6714,-231.622 L 13.5744,-231.92 L 13.4408,-232.204 L 13.2725,-232.469 L 13.0724,-232.711
 L 12.8436,-232.926 L 12.5896,-233.111 L 12.3144,-233.262 L 12.0225,-233.378 L 11.7184,-233.456 L 11.407,-233.495
 L 11.093,-233.495 L 10.7815,-233.456 L 10.4774,-233.378 L 10.1855,-233.262 L 9.91043,-233.111 L 9.65643,-232.926
 L 9.42757,-232.711 L 9.22745,-232.469 L 9.05922,-232.204 L 8.92555,-231.92 L 8.82854,-231.622 L 8.7697,-231.313
 L 8.75,-231 L 8.7697,-230.687 L 8.82854,-230.378 L 8.92555,-230.08 L 9.05922,-229.796 L 9.22745,-229.531
 L 9.42757,-229.289 L 9.65643,-229.074 L 9.91043,-228.889 L 10.1855,-228.738 L 10.4774,-228.622 L 10.7815,-228.544
 L 11.093,-228.505 L 11.407,-228.505 z
M 11.1558,-229.503 L 10.9689,-229.527 L 10.7865,-229.573 L 10.6113,-229.643 L 10.4463,-229.734 L 10.2939,-229.844
 L 10.1565,-229.973 L 10.0365,-230.118 L 9.93553,-230.277 L 9.85533,-230.448 L 9.79712,-230.627 L 9.76183,-230.812
 L 9.75,-231 L 9.76183,-231.188 L 9.79712,-231.373 L 9.85533,-231.552 L 9.93553,-231.723 L 10.0365,-231.882
 L 10.1565,-232.027 L 10.2939,-232.156 L 10.4463,-232.266 L 10.6113,-232.357 L 10.7865,-232.427 L 10.9689,-232.473
 L 11.1558,-232.497 L 11.3442,-232.497 L 11.5311,-232.473 L 11.7135,-232.427 L 11.8887,-232.357 L 12.0537,-232.266
 L 12.2061,-232.156 L 12.3434,-232.027 L 12.4635,-231.882 L 12.5645,-231.723 L 12.6447,-231.552 L 12.7029,-231.373
 L 12.7382,-231.188 L 12.75,-231 L 12.7382,-230.812 L 12.7029,-230.627 L 12.6447,-230.448 L 12.5645,-230.277
 L 12.4635,-230.118 L 12.3434,-229.973 L 12.2061,-229.844 L 12.0537,-229.734 L 11.8887,-229.643 L 11.7135,-229.573
 L 11.5311,-229.527 L 11.3442,-229.503 z
M -11.3442,-199.503 L -11.5311,-199.527 L -11.7135,-199.573 L -11.8887,-199.643 L -12.0537,-199.734 L -12.2061,-199.844
 L -12.3434,-199.973 L -12.4635,-200.118 L -12.5645,-200.277 L -12.6447,-200.448 L -12.7029,-200.627 L -12.7382,-200.812
 L -12.75,-201 L -12.7382,-201.188 L -12.7029,-201.373 L -12.6447,-201.552 L -12.5645,-201.723 L -12.4635,-201.882
 L -12.3434,-202.027 L -12.2061,-202.156 L -12.0537,-202.266 L -11.8887,-202.357 L -11.7135,-202.427 L -11.5311,-202.473
 L -11.3442,-202.497 L -11.1558,-202.497 L -10.9689,-202.473 L -10.7865,-202.427 L -10.6113,-202.357 L -10.4463,-202.266
 L -10.2939,-202.156 L -10.1565,-202.027 L -10.0365,-201.882 L -9.93553,-201.723 L -9.85533,-201.552 L -9.79712,-201.373
 L -9.76183,-201.188 L -9.75,-201 L -9.76183,-200.812 L -9.79712,-200.627 L -9.85533,-200.448 L -9.93553,-200.277
 L -10.0365,-200.118 L -10.1565,-199.973 L -10.2939,-199.844 L -10.4463,-199.734 L -10.6113,-199.643 L -10.7865,-199.573
 L -10.9689,-199.527 L -11.1558,-199.503 z
M 14.6869,-139.589 L 15.2951,-139.745 L 15.8789,-139.976 L 16.4291,-140.278 L 16.9371,-140.647 L 17.3948,-141.077
 L 17.7951,-141.561 L 18.1315,-142.091 L 18.3989,-142.659 L 18.5929,-143.257 L 18.7106,-143.873 L 18.75,-144.5
 L 18.75,-179.5 L 18.7106,-180.127 L 18.5929,-180.743 L 18.3989,-181.341 L 18.1315,-181.909 L 17.7951,-182.439
 L 17.3948,-182.923 L 16.9371,-183.353 L 16.4291,-183.722 L 15.8789,-184.024 L 15.2951,-184.255 L 14.6869,-184.411
 L 14.0639,-184.49 L -14.0639,-184.49 L -14.6869,-184.411 L -15.2951,-184.255 L -15.8789,-184.024 L -16.4291,-183.722
 L -16.9371,-183.353 L -17.3948,-182.923 L -17.7951,-182.439 L -18.1315,-181.909 L -18.3989,-181.341 L -18.5929,-180.743
 L -18.7106,-180.127 L -18.75,-179.5 L -18.75,-144.5 L -18.7106,-143.873 L -18.5929,-143.257 L -18.3989,-142.659
 L -18.1315,-142.091 L -17.7951,-141.561 L -17.3948,-141.077 L -16.9371,-140.647 L -16.4291,-140.278 L -15.8789,-139.976
 L -15.2951,-139.745 L -14.6869,-139.589 L -14.0639,-139.51 L 14.0639,-139.51 z
M -6.62805,-141.682 L -6.36845,-142.091 L -6.1011,-142.659 L -5.90707,-143.257 L -5.78941,-143.873 L -5.75,-144.5
 L -5.75,-147.5 L -5.78941,-148.127 L -5.90707,-148.743 L -6.1011,-149.341 L -6.36845,-149.909 L -6.70491,-150.439
 L -7.10515,-150.923 L -7.56287,-151.353 L -8.07086,-151.722 L -8.62109,-152.024 L -9.20491,-152.255 L -9.81308,-152.411
 L -10.436,-152.49 L -14.0639,-152.49 L -14.6869,-152.411 L -15.2951,-152.255 L -15.8789,-152.024 L -16.4291,-151.722
 L -16.5734,-151.617 L -16.5734,-179.5 L -16.5511,-179.854 L -16.4847,-180.202 L -16.3751,-180.539 L -16.2242,-180.86
 L -16.0342,-181.16 L -15.8082,-181.433 L -15.5497,-181.675 L -15.2628,-181.884 L -14.9521,-182.055 L -14.6225,-182.185
 L -14.2791,-182.273 L -13.9273,-182.318 L 6.62805,-182.318 L 6.36845,-181.909 L 6.1011,-181.341 L 5.90707,-180.743
 L 5.78941,-180.127 L 5.75,-179.5 L 5.75,-176.5 L 5.78941,-175.873 L 5.90707,-175.257 L 6.1011,-174.659
 L 6.36845,-174.091 L 6.70491,-173.561 L 7.10515,-173.077 L 7.56287,-172.647 L 8.07086,-172.278 L 8.62109,-171.976
 L 9.20491,-171.745 L 9.81308,-171.589 L 10.436,-171.51 L 14.0639,-171.51 L 14.6869,-171.589 L 15.2951,-171.745
 L 15.8789,-171.976 L 16.4291,-172.278 L 16.5734,-172.383 L 16.5734,-144.5 L 16.5511,-144.146 L 16.4847,-143.798
 L 16.3751,-143.461 L 16.2242,-143.14 L 16.0342,-142.84 L 15.8082,-142.567 L 15.5497,-142.325 L 15.2628,-142.116
 L 14.9521,-141.945 L 14.6225,-141.815 L 14.2791,-141.727 L 13.9273,-141.682 z
M 11.0993,-174.605 L 10.8003,-174.643 L 10.5083,-174.717 L 10.2281,-174.828 L 9.964,-174.974 L 9.72017,-175.151
 L 9.50047,-175.357 L 9.30835,-175.589 L 9.14685,-175.844 L 9.01852,-176.117 L 8.9254,-176.403 L 8.86891,-176.699
 L 8.84999,-177 L 8.86891,-177.301 L 8.9254,-177.597 L 9.01852,-177.883 L 9.14685,-178.156 L 9.30835,-178.411
 L 9.50047,-178.643 L 9.72017,-178.849 L 9.964,-179.026 L 10.2281,-179.172 L 10.5083,-179.283 L 10.8003,-179.357
 L 11.0993,-179.395 L 11.4007,-179.395 L 11.6997,-179.357 L 11.9916,-179.283 L 12.2719,-179.172 L 12.536,-179.026
 L 12.7798,-178.849 L 12.9995,-178.643 L 13.1916,-178.411 L 13.3531,-178.156 L 13.4815,-177.883 L 13.5746,-177.597
 L 13.6311,-177.301 L 13.65,-177 L 13.6311,-176.699 L 13.5746,-176.403 L 13.4815,-176.117 L 13.3531,-175.844
 L 13.1916,-175.589 L 12.9995,-175.357 L 12.7798,-175.151 L 12.536,-174.974 L 12.2719,-174.828 L 11.9916,-174.717
 L 11.6997,-174.643 L 11.4007,-174.605 z
M -11.4007,-144.605 L -11.6997,-144.643 L -11.9916,-144.717 L -12.2719,-144.828 L -12.536,-144.974 L -12.7798,-145.151
 L -12.9995,-145.357 L -13.1916,-145.589 L -13.3531,-145.844 L -13.4815,-146.117 L -13.5746,-146.403 L -13.6311,-146.699
 L -13.65,-147 L -13.6311,-147.301 L -13.5746,-147.597 L -13.4815,-147.883 L -13.3531,-148.156 L -13.1916,-148.411
 L -12.9995,-148.643 L -12.7798,-148.849 L -12.536,-149.026 L -12.2719,-149.172 L -11.9916,-149.283 L -11.6997,-149.357
 L -11.4007,-149.395 L -11.0993,-149.395 L -10.8003,-149.357 L -10.5083,-149.283 L -10.2281,-149.172 L -9.964,-149.026
 L -9.72017,-148.849 L -9.50047,-148.643 L -9.30835,-148.411 L -9.14685,-148.156 L -9.01852,-147.883 L -8.9254,-147.597
 L -8.86891,-147.301 L -8.84999,-147 L -8.86891,-146.699 L -8.9254,-146.403 L -9.01852,-146.117 L -9.14685,-145.844
 L -9.30835,-145.589 L -9.50047,-145.357 L -9.72017,-145.151 L -9.964,-144.974 L -10.2281,-144.828 L -10.5083,-144.717
 L -10.8003,-144.643 L -11.0993,-144.605 z
" stroke="black" fill="lightgray" stroke-width="0.5"/>
</svg>
