  0
SECTION
  2
BLOCKS
  0
ENDSEC
  0
SECTION
  2
ENTITIES
  0
LINE
  8
0
 10
2.94315
 20
94.5715
 11
4.85364
 21
95.062
  0
LINE
  8
0
 10
4.85364
 20
95.062
 11
6.68759
 21
95.7881
  0
LINE
  8
0
 10
6.68759
 20
95.7881
 11
8.41608
 21
96.7384
  0
LINE
  8
0
 10
8.41608
 20
96.7384
 11
10.0118
 21
97.8978
  0
LINE
  8
0
 10
10.0118
 20
97.8978
 11
11.4497
 21
99.248
  0
LINE
  8
0
 10
11.4497
 20
99.248
 11
12.707
 21
100.768
  0
LINE
  8
0
 10
12.707
 20
100.768
 11
13.7639
 21
102.433
  0
LINE
  8
0
 10
13.7639
 20
102.433
 11
14.6037
 21
104.218
  0
LINE
  8
0
 10
14.6037
 20
104.218
 11
15.2133
 21
106.094
  0
LINE
  8
0
 10
15.2133
 20
106.094
 11
15.5829
 21
108.031
  0
LINE
  8
0
 10
15.5829
 20
108.031
 11
15.7067
 21
110
  0
LINE
  8
0
 10
15.7067
 20
110
 11
15.5829
 21
111.969
  0
LINE
  8
0
 10
15.5829
 20
111.969
 11
15.2133
 21
113.906
  0
LINE
  8
0
 10
15.2133
 20
113.906
 11
14.6037
 21
115.782
  0
LINE
  8
0
 10
14.6037
 20
115.782
 11
13.7639
 21
117.567
  0
LINE
  8
0
 10
13.7639
 20
117.567
 11
12.707
 21
119.232
  0
LINE
  8
0
 10
12.707
 20
119.232
 11
11.4497
 21
120.752
  0
LINE
  8
0
 10
11.4497
 20
120.752
 11
10.0118
 21
122.102
  0
LINE
  8
0
 10
10.0118
 20
122.102
 11
8.41608
 21
123.262
  0
LINE
  8
0
 10
8.41608
 20
123.262
 11
6.68759
 21
124.212
  0
LINE
  8
0
 10
6.68759
 20
124.212
 11
4.85364
 21
124.938
  0
LINE
  8
0
 10
4.85364
 20
124.938
 11
2.94315
 21
125.429
  0
LINE
  8
0
 10
2.94315
 20
125.429
 11
0.986221
 21
125.676
  0
LINE
  8
0
 10
0.986221
 20
125.676
 11
-0.986221
 21
125.676
  0
LINE
  8
0
 10
-0.986221
 20
125.676
 11
-2.94315
 21
125.429
  0
LINE
  8
0
 10
-2.94315
 20
125.429
 11
-4.85364
 21
124.938
  0
LINE
  8
0
 10
-4.85364
 20
124.938
 11
-6.68759
 21
124.212
  0
LINE
  8
0
 10
-6.68759
 20
124.212
 11
-8.41608
 21
123.262
  0
LINE
  8
0
 10
-8.41608
 20
123.262
 11
-10.0118
 21
122.102
  0
LINE
  8
0
 10
-10.0118
 20
122.102
 11
-11.4497
 21
120.752
  0
LINE
  8
0
 10
-11.4497
 20
120.752
 11
-12.707
 21
119.232
  0
LINE
  8
0
 10
-12.707
 20
119.232
 11
-13.7639
 21
117.567
  0
LINE
  8
0
 10
-13.7639
 20
117.567
 11
-14.6037
 21
115.782
  0
LINE
  8
0
 10
-14.6037
 20
115.782
 11
-15.2133
 21
113.906
  0
LINE
  8
0
 10
-15.2133
 20
113.906
 11
-15.5829
 21
111.969
  0
LINE
  8
0
 10
-15.5829
 20
111.969
 11
-15.7067
 21
110
  0
LINE
  8
0
 10
-15.7067
 20
110
 11
-15.5829
 21
108.031
  0
LINE
  8
0
 10
-15.5829
 20
108.031
 11
-15.2133
 21
106.094
  0
LINE
  8
0
 10
-15.2133
 20
106.094
 11
-14.6037
 21
104.218
  0
LINE
  8
0
 10
-14.6037
 20
104.218
 11
-13.7639
 21
102.433
  0
LINE
  8
0
 10
-13.7639
 20
102.433
 11
-12.707
 21
100.768
  0
LINE
  8
0
 10
-12.707
 20
100.768
 11
-11.4497
 21
99.248
  0
LINE
  8
0
 10
-11.4497
 20
99.248
 11
-10.0118
 21
97.8978
  0
LINE
  8
0
 10
-10.0118
 20
97.8978
 11
-8.41608
 21
96.7384
  0
LINE
  8
0
 10
-8.41608
 20
96.7384
 11
-6.68759
 21
95.7881
  0
LINE
  8
0
 10
-6.68759
 20
95.7881
 11
-4.85364
 21
95.062
  0
LINE
  8
0
 10
-4.85364
 20
95.062
 11
-2.94315
 21
94.5715
  0
LINE
  8
0
 10
-2.94315
 20
94.5715
 11
-0.986221
 21
94.3243
  0
LINE
  8
0
 10
-0.986221
 20
94.3243
 11
0.986221
 21
94.3243
  0
LINE
  8
0
 10
0.986221
 20
94.3243
 11
2.94315
 21
94.5715
  0
LINE
  8
0
 10
-0.0941772
 20
116.003
 11
-0.281067
 21
116.027
  0
LINE
  8
0
 10
-0.281067
 20
116.027
 11
-0.463516
 21
116.073
  0
LINE
  8
0
 10
-0.463516
 20
116.073
 11
-0.638657
 21
116.143
  0
LINE
  8
0
 10
-0.638657
 20
116.143
 11
-0.803726
 21
116.234
  0
LINE
  8
0
 10
-0.803726
 20
116.234
 11
-0.956131
 21
116.344
  0
LINE
  8
0
 10
-0.956131
 20
116.344
 11
-1.09344
 21
116.473
  0
LINE
  8
0
 10
-1.09344
 20
116.473
 11
-1.21352
 21
116.618
  0
LINE
  8
0
 10
-1.21352
 20
116.618
 11
-1.31445
 21
116.777
  0
LINE
  8
0
 10
-1.31445
 20
116.777
 11
-1.39465
 21
116.948
  0
LINE
  8
0
 10
-1.39465
 20
116.948
 11
-1.45287
 21
117.127
  0
LINE
  8
0
 10
-1.45287
 20
117.127
 11
-1.48816
 21
117.312
  0
LINE
  8
0
 10
-1.48816
 20
117.312
 11
-1.5
 21
117.5
  0
LINE
  8
0
 10
-1.5
 20
117.5
 11
-1.48816
 21
117.688
  0
LINE
  8
0
 10
-1.48816
 20
117.688
 11
-1.45287
 21
117.873
  0
LINE
  8
0
 10
-1.45287
 20
117.873
 11
-1.39465
 21
118.052
  0
LINE
  8
0
 10
-1.39465
 20
118.052
 11
-1.31445
 21
118.223
  0
LINE
  8
0
 10
-1.31445
 20
118.223
 11
-1.21352
 21
118.382
  0
LINE
  8
0
 10
-1.21352
 20
118.382
 11
-1.09344
 21
118.527
  0
LINE
  8
0
 10
-1.09344
 20
118.527
 11
-0.956131
 21
118.656
  0
LINE
  8
0
 10
-0.956131
 20
118.656
 11
-0.803726
 21
118.766
  0
LINE
  8
0
 10
-0.803726
 20
118.766
 11
-0.638657
 21
118.857
  0
LINE
  8
0
 10
-0.638657
 20
118.857
 11
-0.463516
 21
118.927
  0
LINE
  8
0
 10
-0.463516
 20
118.927
 11
-0.281067
 21
118.973
  0
LINE
  8
0
 10
-0.281067
 20
118.973
 11
-0.0941772
 21
118.997
  0
LINE
  8
0
 10
-0.0941772
 20
118.997
 11
0.0941772
 21
118.997
  0
LINE
  8
0
 10
0.0941772
 20
118.997
 11
0.281067
 21
118.973
  0
LINE
  8
0
 10
0.281067
 20
118.973
 11
0.463516
 21
118.927
  0
LINE
  8
0
 10
0.463516
 20
118.927
 11
0.638657
 21
118.857
  0
LINE
  8
0
 10
0.638657
 20
118.857
 11
0.803726
 21
118.766
  0
LINE
  8
0
 10
0.803726
 20
118.766
 11
0.956131
 21
118.656
  0
LINE
  8
0
 10
0.956131
 20
118.656
 11
1.09344
 21
118.527
  0
LINE
  8
0
 10
1.09344
 20
118.527
 11
1.21352
 21
118.382
  0
LINE
  8
0
 10
1.21352
 20
118.382
 11
1.31445
 21
118.223
  0
LINE
  8
0
 10
1.31445
 20
118.223
 11
1.39465
 21
118.052
  0
LINE
  8
0
 10
1.39465
 20
118.052
 11
1.45287
 21
117.873
  0
LINE
  8
0
 10
1.45287
 20
117.873
 11
1.48816
 21
117.688
  0
LINE
  8
0
 10
1.48816
 20
117.688
 11
1.5
 21
117.5
  0
LINE
  8
0
 10
1.5
 20
117.5
 11
1.48816
 21
117.312
  0
LINE
  8
0
 10
1.48816
 20
117.312
 11
1.45287
 21
117.127
  0
LINE
  8
0
 10
1.45287
 20
117.127
 11
1.39465
 21
116.948
  0
LINE
  8
0
 10
1.39465
 20
116.948
 11
1.31445
 21
116.777
  0
LINE
  8
0
 10
1.31445
 20
116.777
 11
1.21352
 21
116.618
  0
LINE
  8
0
 10
1.21352
 20
116.618
 11
1.09344
 21
116.473
  0
LINE
  8
0
 10
1.09344
 20
116.473
 11
0.956131
 21
116.344
  0
LINE
  8
0
 10
0.956131
 20
116.344
 11
0.803726
 21
116.234
  0
LINE
  8
0
 10
0.803726
 20
116.234
 11
0.638657
 21
116.143
  0
LINE
  8
0
 10
0.638657
 20
116.143
 11
0.463516
 21
116.073
  0
LINE
  8
0
 10
0.463516
 20
116.073
 11
0.281067
 21
116.027
  0
LINE
  8
0
 10
0.281067
 20
116.027
 11
0.0941772
 21
116.003
  0
LINE
  8
0
 10
0.0941772
 20
116.003
 11
-0.0941772
 21
116.003
  0
LINE
  8
0
 10
-0.18837
 20
107.006
 11
-0.562134
 21
107.053
  0
LINE
  8
0
 10
-0.562134
 20
107.053
 11
-0.927048
 21
107.147
  0
LINE
  8
0
 10
-0.927048
 20
107.147
 11
-1.27733
 21
107.286
  0
LINE
  8
0
 10
-1.27733
 20
107.286
 11
-1.60747
 21
107.467
  0
LINE
  8
0
 10
-1.60747
 20
107.467
 11
-1.91226
 21
107.688
  0
LINE
  8
0
 10
-1.91226
 20
107.688
 11
-2.1869
 21
107.946
  0
LINE
  8
0
 10
-2.1869
 20
107.946
 11
-2.42705
 21
108.237
  0
LINE
  8
0
 10
-2.42705
 20
108.237
 11
-2.62891
 21
108.555
  0
LINE
  8
0
 10
-2.62891
 20
108.555
 11
-2.78932
 21
108.896
  0
LINE
  8
0
 10
-2.78932
 20
108.896
 11
-2.90575
 21
109.254
  0
LINE
  8
0
 10
-2.90575
 20
109.254
 11
-2.97633
 21
109.624
  0
LINE
  8
0
 10
-2.97633
 20
109.624
 11
-3
 21
110
  0
LINE
  8
0
 10
-3
 20
110
 11
-2.97633
 21
110.376
  0
LINE
  8
0
 10
-2.97633
 20
110.376
 11
-2.90575
 21
110.746
  0
LINE
  8
0
 10
-2.90575
 20
110.746
 11
-2.78932
 21
111.104
  0
LINE
  8
0
 10
-2.78932
 20
111.104
 11
-2.62891
 21
111.445
  0
LINE
  8
0
 10
-2.62891
 20
111.445
 11
-2.42705
 21
111.763
  0
LINE
  8
0
 10
-2.42705
 20
111.763
 11
-2.1869
 21
112.054
  0
LINE
  8
0
 10
-2.1869
 20
112.054
 11
-1.91226
 21
112.312
  0
LINE
  8
0
 10
-1.91226
 20
112.312
 11
-1.60747
 21
112.533
  0
LINE
  8
0
 10
-1.60747
 20
112.533
 11
-1.27733
 21
112.714
  0
LINE
  8
0
 10
-1.27733
 20
112.714
 11
-0.927048
 21
112.853
  0
LINE
  8
0
 10
-0.927048
 20
112.853
 11
-0.562134
 21
112.947
  0
LINE
  8
0
 10
-0.562134
 20
112.947
 11
-0.18837
 21
112.994
  0
LINE
  8
0
 10
-0.18837
 20
112.994
 11
0.18837
 21
112.994
  0
LINE
  8
0
 10
0.18837
 20
112.994
 11
0.562134
 21
112.947
  0
LINE
  8
0
 10
0.562134
 20
112.947
 11
0.927048
 21
112.853
  0
LINE
  8
0
 10
0.927048
 20
112.853
 11
1.27733
 21
112.714
  0
LINE
  8
0
 10
1.27733
 20
112.714
 11
1.60747
 21
112.533
  0
LINE
  8
0
 10
1.60747
 20
112.533
 11
1.91226
 21
112.312
  0
LINE
  8
0
 10
1.91226
 20
112.312
 11
2.1869
 21
112.054
  0
LINE
  8
0
 10
2.1869
 20
112.054
 11
2.42705
 21
111.763
  0
LINE
  8
0
 10
2.42705
 20
111.763
 11
2.62891
 21
111.445
  0
LINE
  8
0
 10
2.62891
 20
111.445
 11
2.78932
 21
111.104
  0
LINE
  8
0
 10
2.78932
 20
111.104
 11
2.90575
 21
110.746
  0
LINE
  8
0
 10
2.90575
 20
110.746
 11
2.97633
 21
110.376
  0
LINE
  8
0
 10
2.97633
 20
110.376
 11
3
 21
110
  0
LINE
  8
0
 10
3
 20
110
 11
2.97633
 21
109.624
  0
LINE
  8
0
 10
2.97633
 20
109.624
 11
2.90575
 21
109.254
  0
LINE
  8
0
 10
2.90575
 20
109.254
 11
2.78932
 21
108.896
  0
LINE
  8
0
 10
2.78932
 20
108.896
 11
2.62891
 21
108.555
  0
LINE
  8
0
 10
2.62891
 20
108.555
 11
2.42705
 21
108.237
  0
LINE
  8
0
 10
2.42705
 20
108.237
 11
2.1869
 21
107.946
  0
LINE
  8
0
 10
2.1869
 20
107.946
 11
1.91226
 21
107.688
  0
LINE
  8
0
 10
1.91226
 20
107.688
 11
1.60747
 21
107.467
  0
LINE
  8
0
 10
1.60747
 20
107.467
 11
1.27733
 21
107.286
  0
LINE
  8
0
 10
1.27733
 20
107.286
 11
0.927048
 21
107.147
  0
LINE
  8
0
 10
0.927048
 20
107.147
 11
0.562134
 21
107.053
  0
LINE
  8
0
 10
0.562134
 20
107.053
 11
0.18837
 21
107.006
  0
LINE
  8
0
 10
0.18837
 20
107.006
 11
-0.18837
 21
107.006
  0
LINE
  8
0
 10
-8.09418
 20
108.503
 11
-8.28107
 21
108.527
  0
LINE
  8
0
 10
-8.28107
 20
108.527
 11
-8.46352
 21
108.573
  0
LINE
  8
0
 10
-8.46352
 20
108.573
 11
-8.63866
 21
108.643
  0
LINE
  8
0
 10
-8.63866
 20
108.643
 11
-8.80373
 21
108.734
  0
LINE
  8
0
 10
-8.80373
 20
108.734
 11
-8.95613
 21
108.844
  0
LINE
  8
0
 10
-8.95613
 20
108.844
 11
-9.09344
 21
108.973
  0
LINE
  8
0
 10
-9.09344
 20
108.973
 11
-9.21352
 21
109.118
  0
LINE
  8
0
 10
-9.21352
 20
109.118
 11
-9.31445
 21
109.277
  0
LINE
  8
0
 10
-9.31445
 20
109.277
 11
-9.39465
 21
109.448
  0
LINE
  8
0
 10
-9.39465
 20
109.448
 11
-9.45287
 21
109.627
  0
LINE
  8
0
 10
-9.45287
 20
109.627
 11
-9.48816
 21
109.812
  0
LINE
  8
0
 10
-9.48816
 20
109.812
 11
-9.5
 21
110
  0
LINE
  8
0
 10
-9.5
 20
110
 11
-9.48816
 21
110.188
  0
LINE
  8
0
 10
-9.48816
 20
110.188
 11
-9.45287
 21
110.373
  0
LINE
  8
0
 10
-9.45287
 20
110.373
 11
-9.39465
 21
110.552
  0
LINE
  8
0
 10
-9.39465
 20
110.552
 11
-9.31445
 21
110.723
  0
LINE
  8
0
 10
-9.31445
 20
110.723
 11
-9.21352
 21
110.882
  0
LINE
  8
0
 10
-9.21352
 20
110.882
 11
-9.09344
 21
111.027
  0
LINE
  8
0
 10
-9.09344
 20
111.027
 11
-8.95613
 21
111.156
  0
LINE
  8
0
 10
-8.95613
 20
111.156
 11
-8.80373
 21
111.266
  0
LINE
  8
0
 10
-8.80373
 20
111.266
 11
-8.63866
 21
111.357
  0
LINE
  8
0
 10
-8.63866
 20
111.357
 11
-8.46352
 21
111.427
  0
LINE
  8
0
 10
-8.46352
 20
111.427
 11
-8.28107
 21
111.473
  0
LINE
  8
0
 10
-8.28107
 20
111.473
 11
-8.09418
 21
111.497
  0
LINE
  8
0
 10
-8.09418
 20
111.497
 11
-7.40581
 21
111.497
  0
LINE
  8
0
 10
-7.40581
 20
111.497
 11
-7.21892
 21
111.473
  0
LINE
  8
0
 10
-7.21892
 20
111.473
 11
-7.03647
 21
111.427
  0
LINE
  8
0
 10
-7.03647
 20
111.427
 11
-6.86133
 21
111.357
  0
LINE
  8
0
 10
-6.86133
 20
111.357
 11
-6.69626
 21
111.266
  0
LINE
  8
0
 10
-6.69626
 20
111.266
 11
-6.54385
 21
111.156
  0
LINE
  8
0
 10
-6.54385
 20
111.156
 11
-6.40654
 21
111.027
  0
LINE
  8
0
 10
-6.40654
 20
111.027
 11
-6.28647
 21
110.882
  0
LINE
  8
0
 10
-6.28647
 20
110.882
 11
-6.18553
 21
110.723
  0
LINE
  8
0
 10
-6.18553
 20
110.723
 11
-6.10533
 21
110.552
  0
LINE
  8
0
 10
-6.10533
 20
110.552
 11
-6.04712
 21
110.373
  0
LINE
  8
0
 10
-6.04712
 20
110.373
 11
-6.01183
 21
110.188
  0
LINE
  8
0
 10
-6.01183
 20
110.188
 11
-6
 21
110
  0
LINE
  8
0
 10
-6
 20
110
 11
-6.01183
 21
109.812
  0
LINE
  8
0
 10
-6.01183
 20
109.812
 11
-6.04712
 21
109.627
  0
LINE
  8
0
 10
-6.04712
 20
109.627
 11
-6.10533
 21
109.448
  0
LINE
  8
0
 10
-6.10533
 20
109.448
 11
-6.18553
 21
109.277
  0
LINE
  8
0
 10
-6.18553
 20
109.277
 11
-6.28647
 21
109.118
  0
LINE
  8
0
 10
-6.28647
 20
109.118
 11
-6.40654
 21
108.973
  0
LINE
  8
0
 10
-6.40654
 20
108.973
 11
-6.54385
 21
108.844
  0
LINE
  8
0
 10
-6.54385
 20
108.844
 11
-6.69626
 21
108.734
  0
LINE
  8
0
 10
-6.69626
 20
108.734
 11
-6.86133
 21
108.643
  0
LINE
  8
0
 10
-6.86133
 20
108.643
 11
-7.03647
 21
108.573
  0
LINE
  8
0
 10
-7.03647
 20
108.573
 11
-7.21892
 21
108.527
  0
LINE
  8
0
 10
-7.21892
 20
108.527
 11
-7.40581
 21
108.503
  0
LINE
  8
0
 10
-7.40581
 20
108.503
 11
-8.09418
 21
108.503
  0
LINE
  8
0
 10
7.40581
 20
108.503
 11
7.21892
 21
108.527
  0
LINE
  8
0
 10
7.21892
 20
108.527
 11
7.03647
 21
108.573
  0
LINE
  8
0
 10
7.03647
 20
108.573
 11
6.86133
 21
108.643
  0
LINE
  8
0
 10
6.86133
 20
108.643
 11
6.69626
 21
108.734
  0
LINE
  8
0
 10
6.69626
 20
108.734
 11
6.54385
 21
108.844
  0
LINE
  8
0
 10
6.54385
 20
108.844
 11
6.40654
 21
108.973
  0
LINE
  8
0
 10
6.40654
 20
108.973
 11
6.28647
 21
109.118
  0
LINE
  8
0
 10
6.28647
 20
109.118
 11
6.18553
 21
109.277
  0
LINE
  8
0
 10
6.18553
 20
109.277
 11
6.10533
 21
109.448
  0
LINE
  8
0
 10
6.10533
 20
109.448
 11
6.04712
 21
109.627
  0
LINE
  8
0
 10
6.04712
 20
109.627
 11
6.01183
 21
109.812
  0
LINE
  8
0
 10
6.01183
 20
109.812
 11
6
 21
110
  0
LINE
  8
0
 10
6
 20
110
 11
6.01183
 21
110.188
  0
LINE
  8
0
 10
6.01183
 20
110.188
 11
6.04712
 21
110.373
  0
LINE
  8
0
 10
6.04712
 20
110.373
 11
6.10533
 21
110.552
  0
LINE
  8
0
 10
6.10533
 20
110.552
 11
6.18553
 21
110.723
  0
LINE
  8
0
 10
6.18553
 20
110.723
 11
6.28647
 21
110.882
  0
LINE
  8
0
 10
6.28647
 20
110.882
 11
6.40654
 21
111.027
  0
LINE
  8
0
 10
6.40654
 20
111.027
 11
6.54385
 21
111.156
  0
LINE
  8
0
 10
6.54385
 20
111.156
 11
6.69626
 21
111.266
  0
LINE
  8
0
 10
6.69626
 20
111.266
 11
6.86133
 21
111.357
  0
LINE
  8
0
 10
6.86133
 20
111.357
 11
7.03647
 21
111.427
  0
LINE
  8
0
 10
7.03647
 20
111.427
 11
7.21892
 21
111.473
  0
LINE
  8
0
 10
7.21892
 20
111.473
 11
7.40581
 21
111.497
  0
LINE
  8
0
 10
7.40581
 20
111.497
 11
8.09418
 21
111.497
  0
LINE
  8
0
 10
8.09418
 20
111.497
 11
8.28107
 21
111.473
  0
LINE
  8
0
 10
8.28107
 20
111.473
 11
8.46352
 21
111.427
  0
LINE
  8
0
 10
8.46352
 20
111.427
 11
8.63866
 21
111.357
  0
LINE
  8
0
 10
8.63866
 20
111.357
 11
8.80373
 21
111.266
  0
LINE
  8
0
 10
8.80373
 20
111.266
 11
8.95613
 21
111.156
  0
LINE
  8
0
 10
8.95613
 20
111.156
 11
9.09344
 21
111.027
  0
LINE
  8
0
 10
9.09344
 20
111.027
 11
9.21352
 21
110.882
  0
LINE
  8
0
 10
9.21352
 20
110.882
 11
9.31445
 21
110.723
  0
LINE
  8
0
 10
9.31445
 20
110.723
 11
9.39465
 21
110.552
  0
LINE
  8
0
 10
9.39465
 20
110.552
 11
9.45287
 21
110.373
  0
LINE
  8
0
 10
9.45287
 20
110.373
 11
9.48816
 21
110.188
  0
LINE
  8
0
 10
9.48816
 20
110.188
 11
9.5
 21
110
  0
LINE
  8
0
 10
9.5
 20
110
 11
9.48816
 21
109.812
  0
LINE
  8
0
 10
9.48816
 20
109.812
 11
9.45287
 21
109.627
  0
LINE
  8
0
 10
9.45287
 20
109.627
 11
9.39465
 21
109.448
  0
LINE
  8
0
 10
9.39465
 20
109.448
 11
9.31445
 21
109.277
  0
LINE
  8
0
 10
9.31445
 20
109.277
 11
9.21352
 21
109.118
  0
LINE
  8
0
 10
9.21352
 20
109.118
 11
9.09344
 21
108.973
  0
LINE
  8
0
 10
9.09344
 20
108.973
 11
8.95613
 21
108.844
  0
LINE
  8
0
 10
8.95613
 20
108.844
 11
8.80373
 21
108.734
  0
LINE
  8
0
 10
8.80373
 20
108.734
 11
8.63866
 21
108.643
  0
LINE
  8
0
 10
8.63866
 20
108.643
 11
8.46352
 21
108.573
  0
LINE
  8
0
 10
8.46352
 20
108.573
 11
8.28107
 21
108.527
  0
LINE
  8
0
 10
8.28107
 20
108.527
 11
8.09418
 21
108.503
  0
LINE
  8
0
 10
8.09418
 20
108.503
 11
7.40581
 21
108.503
  0
LINE
  8
0
 10
-0.0941772
 20
101.003
 11
-0.281067
 21
101.027
  0
LINE
  8
0
 10
-0.281067
 20
101.027
 11
-0.463516
 21
101.073
  0
LINE
  8
0
 10
-0.463516
 20
101.073
 11
-0.638657
 21
101.143
  0
LINE
  8
0
 10
-0.638657
 20
101.143
 11
-0.803726
 21
101.234
  0
LINE
  8
0
 10
-0.803726
 20
101.234
 11
-0.956131
 21
101.344
  0
LINE
  8
0
 10
-0.956131
 20
101.344
 11
-1.09344
 21
101.473
  0
LINE
  8
0
 10
-1.09344
 20
101.473
 11
-1.21352
 21
101.618
  0
LINE
  8
0
 10
-1.21352
 20
101.618
 11
-1.31445
 21
101.777
  0
LINE
  8
0
 10
-1.31445
 20
101.777
 11
-1.39465
 21
101.948
  0
LINE
  8
0
 10
-1.39465
 20
101.948
 11
-1.45287
 21
102.127
  0
LINE
  8
0
 10
-1.45287
 20
102.127
 11
-1.48816
 21
102.312
  0
LINE
  8
0
 10
-1.48816
 20
102.312
 11
-1.5
 21
102.5
  0
LINE
  8
0
 10
-1.5
 20
102.5
 11
-1.48816
 21
102.688
  0
LINE
  8
0
 10
-1.48816
 20
102.688
 11
-1.45287
 21
102.873
  0
LINE
  8
0
 10
-1.45287
 20
102.873
 11
-1.39465
 21
103.052
  0
LINE
  8
0
 10
-1.39465
 20
103.052
 11
-1.31445
 21
103.223
  0
LINE
  8
0
 10
-1.31445
 20
103.223
 11
-1.21352
 21
103.382
  0
LINE
  8
0
 10
-1.21352
 20
103.382
 11
-1.09344
 21
103.527
  0
LINE
  8
0
 10
-1.09344
 20
103.527
 11
-0.956131
 21
103.656
  0
LINE
  8
0
 10
-0.956131
 20
103.656
 11
-0.803726
 21
103.766
  0
LINE
  8
0
 10
-0.803726
 20
103.766
 11
-0.638657
 21
103.857
  0
LINE
  8
0
 10
-0.638657
 20
103.857
 11
-0.463516
 21
103.927
  0
LINE
  8
0
 10
-0.463516
 20
103.927
 11
-0.281067
 21
103.973
  0
LINE
  8
0
 10
-0.281067
 20
103.973
 11
-0.0941772
 21
103.997
  0
LINE
  8
0
 10
-0.0941772
 20
103.997
 11
0.0941772
 21
103.997
  0
LINE
  8
0
 10
0.0941772
 20
103.997
 11
0.281067
 21
103.973
  0
LINE
  8
0
 10
0.281067
 20
103.973
 11
0.463516
 21
103.927
  0
LINE
  8
0
 10
0.463516
 20
103.927
 11
0.638657
 21
103.857
  0
LINE
  8
0
 10
0.638657
 20
103.857
 11
0.803726
 21
103.766
  0
LINE
  8
0
 10
0.803726
 20
103.766
 11
0.956131
 21
103.656
  0
LINE
  8
0
 10
0.956131
 20
103.656
 11
1.09344
 21
103.527
  0
LINE
  8
0
 10
1.09344
 20
103.527
 11
1.21352
 21
103.382
  0
LINE
  8
0
 10
1.21352
 20
103.382
 11
1.31445
 21
103.223
  0
LINE
  8
0
 10
1.31445
 20
103.223
 11
1.39465
 21
103.052
  0
LINE
  8
0
 10
1.39465
 20
103.052
 11
1.45287
 21
102.873
  0
LINE
  8
0
 10
1.45287
 20
102.873
 11
1.48816
 21
102.688
  0
LINE
  8
0
 10
1.48816
 20
102.688
 11
1.5
 21
102.5
  0
LINE
  8
0
 10
1.5
 20
102.5
 11
1.48816
 21
102.312
  0
LINE
  8
0
 10
1.48816
 20
102.312
 11
1.45287
 21
102.127
  0
LINE
  8
0
 10
1.45287
 20
102.127
 11
1.39465
 21
101.948
  0
LINE
  8
0
 10
1.39465
 20
101.948
 11
1.31445
 21
101.777
  0
LINE
  8
0
 10
1.31445
 20
101.777
 11
1.21352
 21
101.618
  0
LINE
  8
0
 10
1.21352
 20
101.618
 11
1.09344
 21
101.473
  0
LINE
  8
0
 10
1.09344
 20
101.473
 11
0.956131
 21
101.344
  0
LINE
  8
0
 10
0.956131
 20
101.344
 11
0.803726
 21
101.234
  0
LINE
  8
0
 10
0.803726
 20
101.234
 11
0.638657
 21
101.143
  0
LINE
  8
0
 10
0.638657
 20
101.143
 11
0.463516
 21
101.073
  0
LINE
  8
0
 10
0.463516
 20
101.073
 11
0.281067
 21
101.027
  0
LINE
  8
0
 10
0.281067
 20
101.027
 11
0.0941772
 21
101.003
  0
LINE
  8
0
 10
0.0941772
 20
101.003
 11
-0.0941772
 21
101.003
  0
LINE
  8
0
 10
2.93004
 20
-15.3598
 11
4.83203
 21
-14.8715
  0
LINE
  8
0
 10
4.83203
 20
-14.8715
 11
6.65782
 21
-14.1486
  0
LINE
  8
0
 10
6.65782
 20
-14.1486
 11
8.37862
 21
-13.2026
  0
LINE
  8
0
 10
8.37862
 20
-13.2026
 11
9.96727
 21
-12.0484
  0
LINE
  8
0
 10
9.96727
 20
-12.0484
 11
11.3987
 21
-10.7041
  0
LINE
  8
0
 10
11.3987
 20
-10.7041
 11
12.6504
 21
-9.19107
  0
LINE
  8
0
 10
12.6504
 20
-9.19107
 11
13.7026
 21
-7.53308
  0
LINE
  8
0
 10
13.7026
 20
-7.53308
 11
14.5387
 21
-5.75629
  0
LINE
  8
0
 10
14.5387
 20
-5.75629
 11
15.1455
 21
-3.8887
  0
LINE
  8
0
 10
15.1455
 20
-3.8887
 11
15.5135
 21
-1.95981
  0
LINE
  8
0
 10
15.5135
 20
-1.95981
 11
15.6368
 21
0
  0
LINE
  8
0
 10
15.6368
 20
0
 11
15.5135
 21
1.95981
  0
LINE
  8
0
 10
15.5135
 20
1.95981
 11
15.1455
 21
3.8887
  0
LINE
  8
0
 10
15.1455
 20
3.8887
 11
14.5387
 21
5.75629
  0
LINE
  8
0
 10
14.5387
 20
5.75629
 11
13.7026
 21
7.53308
  0
LINE
  8
0
 10
13.7026
 20
7.53308
 11
12.6504
 21
9.19107
  0
LINE
  8
0
 10
12.6504
 20
9.19107
 11
11.3987
 21
10.7041
  0
LINE
  8
0
 10
11.3987
 20
10.7041
 11
9.96727
 21
12.0484
  0
LINE
  8
0
 10
9.96727
 20
12.0484
 11
8.37862
 21
13.2026
  0
LINE
  8
0
 10
8.37862
 20
13.2026
 11
6.65782
 21
14.1486
  0
LINE
  8
0
 10
6.65782
 20
14.1486
 11
4.83203
 21
14.8715
  0
LINE
  8
0
 10
4.83203
 20
14.8715
 11
2.93004
 21
15.3598
  0
LINE
  8
0
 10
2.93004
 20
15.3598
 11
0.981842
 21
15.6059
  0
LINE
  8
0
 10
0.981842
 20
15.6059
 11
-0.981842
 21
15.6059
  0
LINE
  8
0
 10
-0.981842
 20
15.6059
 11
-2.93004
 21
15.3598
  0
LINE
  8
0
 10
-2.93004
 20
15.3598
 11
-4.83203
 21
14.8715
  0
LINE
  8
0
 10
-4.83203
 20
14.8715
 11
-6.65782
 21
14.1486
  0
LINE
  8
0
 10
-6.65782
 20
14.1486
 11
-8.37862
 21
13.2026
  0
LINE
  8
0
 10
-8.37862
 20
13.2026
 11
-9.96727
 21
12.0484
  0
LINE
  8
0
 10
-9.96727
 20
12.0484
 11
-11.3987
 21
10.7041
  0
LINE
  8
0
 10
-11.3987
 20
10.7041
 11
-12.6504
 21
9.19107
  0
LINE
  8
0
 10
-12.6504
 20
9.19107
 11
-13.7026
 21
7.53308
  0
LINE
  8
0
 10
-13.7026
 20
7.53308
 11
-14.5387
 21
5.75629
  0
LINE
  8
0
 10
-14.5387
 20
5.75629
 11
-15.1455
 21
3.8887
  0
LINE
  8
0
 10
-15.1455
 20
3.8887
 11
-15.5135
 21
1.95981
  0
LINE
  8
0
 10
-15.5135
 20
1.95981
 11
-15.6368
 21
0
  0
LINE
  8
0
 10
-15.6368
 20
0
 11
-15.5135
 21
-1.95981
  0
LINE
  8
0
 10
-15.5135
 20
-1.95981
 11
-15.1455
 21
-3.8887
  0
LINE
  8
0
 10
-15.1455
 20
-3.8887
 11
-14.5387
 21
-5.75629
  0
LINE
  8
0
 10
-14.5387
 20
-5.75629
 11
-13.7026
 21
-7.53308
  0
LINE
  8
0
 10
-13.7026
 20
-7.53308
 11
-12.6504
 21
-9.19107
  0
LINE
  8
0
 10
-12.6504
 20
-9.19107
 11
-11.3987
 21
-10.7041
  0
LINE
  8
0
 10
-11.3987
 20
-10.7041
 11
-9.96727
 21
-12.0484
  0
LINE
  8
0
 10
-9.96727
 20
-12.0484
 11
-8.37862
 21
-13.2026
  0
LINE
  8
0
 10
-8.37862
 20
-13.2026
 11
-6.65782
 21
-14.1486
  0
LINE
  8
0
 10
-6.65782
 20
-14.1486
 11
-4.83203
 21
-14.8715
  0
LINE
  8
0
 10
-4.83203
 20
-14.8715
 11
-2.93004
 21
-15.3598
  0
LINE
  8
0
 10
-2.93004
 20
-15.3598
 11
-0.981842
 21
-15.6059
  0
LINE
  8
0
 10
-0.981842
 20
-15.6059
 11
0.981842
 21
-15.6059
  0
LINE
  8
0
 10
0.981842
 20
-15.6059
 11
2.93004
 21
-15.3598
  0
LINE
  8
0
 10
-0.0941772
 20
6.00294
 11
-0.281067
 21
6.02657
  0
LINE
  8
0
 10
-0.281067
 20
6.02657
 11
-0.463516
 21
6.07341
  0
LINE
  8
0
 10
-0.463516
 20
6.07341
 11
-0.638657
 21
6.14275
  0
LINE
  8
0
 10
-0.638657
 20
6.14275
 11
-0.803726
 21
6.23351
  0
LINE
  8
0
 10
-0.803726
 20
6.23351
 11
-0.956131
 21
6.34422
  0
LINE
  8
0
 10
-0.956131
 20
6.34422
 11
-1.09344
 21
6.47318
  0
LINE
  8
0
 10
-1.09344
 20
6.47318
 11
-1.21352
 21
6.61832
  0
LINE
  8
0
 10
-1.21352
 20
6.61832
 11
-1.31445
 21
6.77736
  0
LINE
  8
0
 10
-1.31445
 20
6.77736
 11
-1.39465
 21
6.9478
  0
LINE
  8
0
 10
-1.39465
 20
6.9478
 11
-1.45287
 21
7.12695
  0
LINE
  8
0
 10
-1.45287
 20
7.12695
 11
-1.48816
 21
7.312
  0
LINE
  8
0
 10
-1.48816
 20
7.312
 11
-1.5
 21
7.5
  0
LINE
  8
0
 10
-1.5
 20
7.5
 11
-1.48816
 21
7.68799
  0
LINE
  8
0
 10
-1.48816
 20
7.68799
 11
-1.45287
 21
7.87303
  0
LINE
  8
0
 10
-1.45287
 20
7.87303
 11
-1.39465
 21
8.05219
  0
LINE
  8
0
 10
-1.39465
 20
8.05219
 11
-1.31445
 21
8.22263
  0
LINE
  8
0
 10
-1.31445
 20
8.22263
 11
-1.21352
 21
8.38167
  0
LINE
  8
0
 10
-1.21352
 20
8.38167
 11
-1.09344
 21
8.52681
  0
LINE
  8
0
 10
-1.09344
 20
8.52681
 11
-0.956131
 21
8.65576
  0
LINE
  8
0
 10
-0.956131
 20
8.65576
 11
-0.803726
 21
8.76648
  0
LINE
  8
0
 10
-0.803726
 20
8.76648
 11
-0.638657
 21
8.85724
  0
LINE
  8
0
 10
-0.638657
 20
8.85724
 11
-0.463516
 21
8.92657
  0
LINE
  8
0
 10
-0.463516
 20
8.92657
 11
-0.281067
 21
8.97342
  0
LINE
  8
0
 10
-0.281067
 20
8.97342
 11
-0.0941772
 21
8.99704
  0
LINE
  8
0
 10
-0.0941772
 20
8.99704
 11
0.0941772
 21
8.99704
  0
LINE
  8
0
 10
0.0941772
 20
8.99704
 11
0.281067
 21
8.97342
  0
LINE
  8
0
 10
0.281067
 20
8.97342
 11
0.463516
 21
8.92657
  0
LINE
  8
0
 10
0.463516
 20
8.92657
 11
0.638657
 21
8.85724
  0
LINE
  8
0
 10
0.638657
 20
8.85724
 11
0.803726
 21
8.76648
  0
LINE
  8
0
 10
0.803726
 20
8.76648
 11
0.956131
 21
8.65576
  0
LINE
  8
0
 10
0.956131
 20
8.65576
 11
1.09344
 21
8.52681
  0
LINE
  8
0
 10
1.09344
 20
8.52681
 11
1.21352
 21
8.38167
  0
LINE
  8
0
 10
1.21352
 20
8.38167
 11
1.31445
 21
8.22263
  0
LINE
  8
0
 10
1.31445
 20
8.22263
 11
1.39465
 21
8.05219
  0
LINE
  8
0
 10
1.39465
 20
8.05219
 11
1.45287
 21
7.87303
  0
LINE
  8
0
 10
1.45287
 20
7.87303
 11
1.48816
 21
7.68799
  0
LINE
  8
0
 10
1.48816
 20
7.68799
 11
1.5
 21
7.5
  0
LINE
  8
0
 10
1.5
 20
7.5
 11
1.48816
 21
7.312
  0
LINE
  8
0
 10
1.48816
 20
7.312
 11
1.45287
 21
7.12695
  0
LINE
  8
0
 10
1.45287
 20
7.12695
 11
1.39465
 21
6.9478
  0
LINE
  8
0
 10
1.39465
 20
6.9478
 11
1.31445
 21
6.77736
  0
LINE
  8
0
 10
1.31445
 20
6.77736
 11
1.21352
 21
6.61832
  0
LINE
  8
0
 10
1.21352
 20
6.61832
 11
1.09344
 21
6.47318
  0
LINE
  8
0
 10
1.09344
 20
6.47318
 11
0.956131
 21
6.34422
  0
LINE
  8
0
 10
0.956131
 20
6.34422
 11
0.803726
 21
6.23351
  0
LINE
  8
0
 10
0.803726
 20
6.23351
 11
0.638657
 21
6.14275
  0
LINE
  8
0
 10
0.638657
 20
6.14275
 11
0.463516
 21
6.07341
  0
LINE
  8
0
 10
0.463516
 20
6.07341
 11
0.281067
 21
6.02657
  0
LINE
  8
0
 10
0.281067
 20
6.02657
 11
0.0941772
 21
6.00294
  0
LINE
  8
0
 10
0.0941772
 20
6.00294
 11
-0.0941772
 21
6.00294
  0
LINE
  8
0
 10
-0.18837
 20
-2.99408
 11
-0.562134
 21
-2.94685
  0
LINE
  8
0
 10
-0.562134
 20
-2.94685
 11
-0.927048
 21
-2.85316
  0
LINE
  8
0
 10
-0.927048
 20
-2.85316
 11
-1.27733
 21
-2.71448
  0
LINE
  8
0
 10
-1.27733
 20
-2.71448
 11
-1.60747
 21
-2.53297
  0
LINE
  8
0
 10
-1.60747
 20
-2.53297
 11
-1.91226
 21
-2.31154
  0
LINE
  8
0
 10
-1.91226
 20
-2.31154
 11
-2.1869
 21
-2.05363
  0
LINE
  8
0
 10
-2.1869
 20
-2.05363
 11
-2.42705
 21
-1.76335
  0
LINE
  8
0
 10
-2.42705
 20
-1.76335
 11
-2.62891
 21
-1.44525
  0
LINE
  8
0
 10
-2.62891
 20
-1.44525
 11
-2.78932
 21
-1.10437
  0
LINE
  8
0
 10
-2.78932
 20
-1.10437
 11
-2.90575
 21
-0.746063
  0
LINE
  8
0
 10
-2.90575
 20
-0.746063
 11
-2.97633
 21
-0.375992
  0
LINE
  8
0
 10
-2.97633
 20
-0.375992
 11
-3
 21
0
  0
LINE
  8
0
 10
-3
 20
0
 11
-2.97633
 21
0.375992
  0
LINE
  8
0
 10
-2.97633
 20
0.375992
 11
-2.90575
 21
0.746063
  0
LINE
  8
0
 10
-2.90575
 20
0.746063
 11
-2.78932
 21
1.10437
  0
LINE
  8
0
 10
-2.78932
 20
1.10437
 11
-2.62891
 21
1.44525
  0
LINE
  8
0
 10
-2.62891
 20
1.44525
 11
-2.42705
 21
1.76335
  0
LINE
  8
0
 10
-2.42705
 20
1.76335
 11
-2.1869
 21
2.05363
  0
LINE
  8
0
 10
-2.1869
 20
2.05363
 11
-1.91226
 21
2.31154
  0
LINE
  8
0
 10
-1.91226
 20
2.31154
 11
-1.60747
 21
2.53297
  0
LINE
  8
0
 10
-1.60747
 20
2.53297
 11
-1.27733
 21
2.71448
  0
LINE
  8
0
 10
-1.27733
 20
2.71448
 11
-0.927048
 21
2.85316
  0
LINE
  8
0
 10
-0.927048
 20
2.85316
 11
-0.562134
 21
2.94685
  0
LINE
  8
0
 10
-0.562134
 20
2.94685
 11
-0.18837
 21
2.99408
  0
LINE
  8
0
 10
-0.18837
 20
2.99408
 11
0.18837
 21
2.99408
  0
LINE
  8
0
 10
0.18837
 20
2.99408
 11
0.562134
 21
2.94685
  0
LINE
  8
0
 10
0.562134
 20
2.94685
 11
0.927048
 21
2.85316
  0
LINE
  8
0
 10
0.927048
 20
2.85316
 11
1.27733
 21
2.71448
  0
LINE
  8
0
 10
1.27733
 20
2.71448
 11
1.60747
 21
2.53297
  0
LINE
  8
0
 10
1.60747
 20
2.53297
 11
1.91226
 21
2.31154
  0
LINE
  8
0
 10
1.91226
 20
2.31154
 11
2.1869
 21
2.05363
  0
LINE
  8
0
 10
2.1869
 20
2.05363
 11
2.42705
 21
1.76335
  0
LINE
  8
0
 10
2.42705
 20
1.76335
 11
2.62891
 21
1.44525
  0
LINE
  8
0
 10
2.62891
 20
1.44525
 11
2.78932
 21
1.10437
  0
LINE
  8
0
 10
2.78932
 20
1.10437
 11
2.90575
 21
0.746063
  0
LINE
  8
0
 10
2.90575
 20
0.746063
 11
2.97633
 21
0.375992
  0
LINE
  8
0
 10
2.97633
 20
0.375992
 11
3
 21
0
  0
LINE
  8
0
 10
3
 20
0
 11
2.97633
 21
-0.375992
  0
LINE
  8
0
 10
2.97633
 20
-0.375992
 11
2.90575
 21
-0.746063
  0
LINE
  8
0
 10
2.90575
 20
-0.746063
 11
2.78932
 21
-1.10437
  0
LINE
  8
0
 10
2.78932
 20
-1.10437
 11
2.62891
 21
-1.44525
  0
LINE
  8
0
 10
2.62891
 20
-1.44525
 11
2.42705
 21
-1.76335
  0
LINE
  8
0
 10
2.42705
 20
-1.76335
 11
2.1869
 21
-2.05363
  0
LINE
  8
0
 10
2.1869
 20
-2.05363
 11
1.91226
 21
-2.31154
  0
LINE
  8
0
 10
1.91226
 20
-2.31154
 11
1.60747
 21
-2.53297
  0
LINE
  8
0
 10
1.60747
 20
-2.53297
 11
1.27733
 21
-2.71448
  0
LINE
  8
0
 10
1.27733
 20
-2.71448
 11
0.927048
 21
-2.85316
  0
LINE
  8
0
 10
0.927048
 20
-2.85316
 11
0.562134
 21
-2.94685
  0
LINE
  8
0
 10
0.562134
 20
-2.94685
 11
0.18837
 21
-2.99408
  0
LINE
  8
0
 10
0.18837
 20
-2.99408
 11
-0.18837
 21
-2.99408
  0
LINE
  8
0
 10
7.40581
 20
-1.49704
 11
7.21892
 21
-1.47342
  0
LINE
  8
0
 10
7.21892
 20
-1.47342
 11
7.03647
 21
-1.42657
  0
LINE
  8
0
 10
7.03647
 20
-1.42657
 11
6.86133
 21
-1.35724
  0
LINE
  8
0
 10
6.86133
 20
-1.35724
 11
6.69626
 21
-1.26648
  0
LINE
  8
0
 10
6.69626
 20
-1.26648
 11
6.54385
 21
-1.15576
  0
LINE
  8
0
 10
6.54385
 20
-1.15576
 11
6.40654
 21
-1.02681
  0
LINE
  8
0
 10
6.40654
 20
-1.02681
 11
6.28647
 21
-0.881668
  0
LINE
  8
0
 10
6.28647
 20
-0.881668
 11
6.18553
 21
-0.722626
  0
LINE
  8
0
 10
6.18553
 20
-0.722626
 11
6.10533
 21
-0.552185
  0
LINE
  8
0
 10
6.10533
 20
-0.552185
 11
6.04712
 21
-0.373032
  0
LINE
  8
0
 10
6.04712
 20
-0.373032
 11
6.01183
 21
-0.187988
  0
LINE
  8
0
 10
6.01183
 20
-0.187988
 11
6
 21
0
  0
LINE
  8
0
 10
6
 20
0
 11
6.01183
 21
0.187988
  0
LINE
  8
0
 10
6.01183
 20
0.187988
 11
6.04712
 21
0.373032
  0
LINE
  8
0
 10
6.04712
 20
0.373032
 11
6.10533
 21
0.552185
  0
LINE
  8
0
 10
6.10533
 20
0.552185
 11
6.18553
 21
0.722626
  0
LINE
  8
0
 10
6.18553
 20
0.722626
 11
6.28647
 21
0.881668
  0
LINE
  8
0
 10
6.28647
 20
0.881668
 11
6.40654
 21
1.02681
  0
LINE
  8
0
 10
6.40654
 20
1.02681
 11
6.54385
 21
1.15576
  0
LINE
  8
0
 10
6.54385
 20
1.15576
 11
6.69626
 21
1.26648
  0
LINE
  8
0
 10
6.69626
 20
1.26648
 11
6.86133
 21
1.35724
  0
LINE
  8
0
 10
6.86133
 20
1.35724
 11
7.03647
 21
1.42657
  0
LINE
  8
0
 10
7.03647
 20
1.42657
 11
7.21892
 21
1.47342
  0
LINE
  8
0
 10
7.21892
 20
1.47342
 11
7.40581
 21
1.49704
  0
LINE
  8
0
 10
7.40581
 20
1.49704
 11
8.09418
 21
1.49704
  0
LINE
  8
0
 10
8.09418
 20
1.49704
 11
8.28107
 21
1.47342
  0
LINE
  8
0
 10
8.28107
 20
1.47342
 11
8.46352
 21
1.42657
  0
LINE
  8
0
 10
8.46352
 20
1.42657
 11
8.63866
 21
1.35724
  0
LINE
  8
0
 10
8.63866
 20
1.35724
 11
8.80373
 21
1.26648
  0
LINE
  8
0
 10
8.80373
 20
1.26648
 11
8.95613
 21
1.15576
  0
LINE
  8
0
 10
8.95613
 20
1.15576
 11
9.09344
 21
1.02681
  0
LINE
  8
0
 10
9.09344
 20
1.02681
 11
9.21352
 21
0.881668
  0
LINE
  8
0
 10
9.21352
 20
0.881668
 11
9.31445
 21
0.722626
  0
LINE
  8
0
 10
9.31445
 20
0.722626
 11
9.39465
 21
0.552185
  0
LINE
  8
0
 10
9.39465
 20
0.552185
 11
9.45287
 21
0.373032
  0
LINE
  8
0
 10
9.45287
 20
0.373032
 11
9.48816
 21
0.187988
  0
LINE
  8
0
 10
9.48816
 20
0.187988
 11
9.5
 21
0
  0
LINE
  8
0
 10
9.5
 20
0
 11
9.48816
 21
-0.187988
  0
LINE
  8
0
 10
9.48816
 20
-0.187988
 11
9.45287
 21
-0.373032
  0
LINE
  8
0
 10
9.45287
 20
-0.373032
 11
9.39465
 21
-0.552185
  0
LINE
  8
0
 10
9.39465
 20
-0.552185
 11
9.31445
 21
-0.722626
  0
LINE
  8
0
 10
9.31445
 20
-0.722626
 11
9.21352
 21
-0.881668
  0
LINE
  8
0
 10
9.21352
 20
-0.881668
 11
9.09344
 21
-1.02681
  0
LINE
  8
0
 10
9.09344
 20
-1.02681
 11
8.95613
 21
-1.15576
  0
LINE
  8
0
 10
8.95613
 20
-1.15576
 11
8.80373
 21
-1.26648
  0
LINE
  8
0
 10
8.80373
 20
-1.26648
 11
8.63866
 21
-1.35724
  0
LINE
  8
0
 10
8.63866
 20
-1.35724
 11
8.46352
 21
-1.42657
  0
LINE
  8
0
 10
8.46352
 20
-1.42657
 11
8.28107
 21
-1.47342
  0
LINE
  8
0
 10
8.28107
 20
-1.47342
 11
8.09418
 21
-1.49704
  0
LINE
  8
0
 10
8.09418
 20
-1.49704
 11
7.40581
 21
-1.49704
  0
LINE
  8
0
 10
-8.09418
 20
-1.49704
 11
-8.28107
 21
-1.47342
  0
LINE
  8
0
 10
-8.28107
 20
-1.47342
 11
-8.46352
 21
-1.42657
  0
LINE
  8
0
 10
-8.46352
 20
-1.42657
 11
-8.63866
 21
-1.35724
  0
LINE
  8
0
 10
-8.63866
 20
-1.35724
 11
-8.80373
 21
-1.26648
  0
LINE
  8
0
 10
-8.80373
 20
-1.26648
 11
-8.95613
 21
-1.15576
  0
LINE
  8
0
 10
-8.95613
 20
-1.15576
 11
-9.09344
 21
-1.02681
  0
LINE
  8
0
 10
-9.09344
 20
-1.02681
 11
-9.21352
 21
-0.881668
  0
LINE
  8
0
 10
-9.21352
 20
-0.881668
 11
-9.31445
 21
-0.722626
  0
LINE
  8
0
 10
-9.31445
 20
-0.722626
 11
-9.39465
 21
-0.552185
  0
LINE
  8
0
 10
-9.39465
 20
-0.552185
 11
-9.45287
 21
-0.373032
  0
LINE
  8
0
 10
-9.45287
 20
-0.373032
 11
-9.48816
 21
-0.187988
  0
LINE
  8
0
 10
-9.48816
 20
-0.187988
 11
-9.5
 21
0
  0
LINE
  8
0
 10
-9.5
 20
0
 11
-9.48816
 21
0.187988
  0
LINE
  8
0
 10
-9.48816
 20
0.187988
 11
-9.45287
 21
0.373032
  0
LINE
  8
0
 10
-9.45287
 20
0.373032
 11
-9.39465
 21
0.552185
  0
LINE
  8
0
 10
-9.39465
 20
0.552185
 11
-9.31445
 21
0.722626
  0
LINE
  8
0
 10
-9.31445
 20
0.722626
 11
-9.21352
 21
0.881668
  0
LINE
  8
0
 10
-9.21352
 20
0.881668
 11
-9.09344
 21
1.02681
  0
LINE
  8
0
 10
-9.09344
 20
1.02681
 11
-8.95613
 21
1.15576
  0
LINE
  8
0
 10
-8.95613
 20
1.15576
 11
-8.80373
 21
1.26648
  0
LINE
  8
0
 10
-8.80373
 20
1.26648
 11
-8.63866
 21
1.35724
  0
LINE
  8
0
 10
-8.63866
 20
1.35724
 11
-8.46352
 21
1.42657
  0
LINE
  8
0
 10
-8.46352
 20
1.42657
 11
-8.28107
 21
1.47342
  0
LINE
  8
0
 10
-8.28107
 20
1.47342
 11
-8.09418
 21
1.49704
  0
LINE
  8
0
 10
-8.09418
 20
1.49704
 11
-7.40581
 21
1.49704
  0
LINE
  8
0
 10
-7.40581
 20
1.49704
 11
-7.21892
 21
1.47342
  0
LINE
  8
0
 10
-7.21892
 20
1.47342
 11
-7.03647
 21
1.42657
  0
LINE
  8
0
 10
-7.03647
 20
1.42657
 11
-6.86133
 21
1.35724
  0
LINE
  8
0
 10
-6.86133
 20
1.35724
 11
-6.69626
 21
1.26648
  0
LINE
  8
0
 10
-6.69626
 20
1.26648
 11
-6.54385
 21
1.15576
  0
LINE
  8
0
 10
-6.54385
 20
1.15576
 11
-6.40654
 21
1.02681
  0
LINE
  8
0
 10
-6.40654
 20
1.02681
 11
-6.28647
 21
0.881668
  0
LINE
  8
0
 10
-6.28647
 20
0.881668
 11
-6.18553
 21
0.722626
  0
LINE
  8
0
 10
-6.18553
 20
0.722626
 11
-6.10533
 21
0.552185
  0
LINE
  8
0
 10
-6.10533
 20
0.552185
 11
-6.04712
 21
0.373032
  0
LINE
  8
0
 10
-6.04712
 20
0.373032
 11
-6.01183
 21
0.187988
  0
LINE
  8
0
 10
-6.01183
 20
0.187988
 11
-6
 21
0
  0
LINE
  8
0
 10
-6
 20
0
 11
-6.01183
 21
-0.187988
  0
LINE
  8
0
 10
-6.01183
 20
-0.187988
 11
-6.04712
 21
-0.373032
  0
LINE
  8
0
 10
-6.04712
 20
-0.373032
 11
-6.10533
 21
-0.552185
  0
LINE
  8
0
 10
-6.10533
 20
-0.552185
 11
-6.18553
 21
-0.722626
  0
LINE
  8
0
 10
-6.18553
 20
-0.722626
 11
-6.28647
 21
-0.881668
  0
LINE
  8
0
 10
-6.28647
 20
-0.881668
 11
-6.40654
 21
-1.02681
  0
LINE
  8
0
 10
-6.40654
 20
-1.02681
 11
-6.54385
 21
-1.15576
  0
LINE
  8
0
 10
-6.54385
 20
-1.15576
 11
-6.69626
 21
-1.26648
  0
LINE
  8
0
 10
-6.69626
 20
-1.26648
 11
-6.86133
 21
-1.35724
  0
LINE
  8
0
 10
-6.86133
 20
-1.35724
 11
-7.03647
 21
-1.42657
  0
LINE
  8
0
 10
-7.03647
 20
-1.42657
 11
-7.21892
 21
-1.47342
  0
LINE
  8
0
 10
-7.21892
 20
-1.47342
 11
-7.40581
 21
-1.49704
  0
LINE
  8
0
 10
-7.40581
 20
-1.49704
 11
-8.09418
 21
-1.49704
  0
LINE
  8
0
 10
-0.0941772
 20
-8.99704
 11
-0.281067
 21
-8.97342
  0
LINE
  8
0
 10
-0.281067
 20
-8.97342
 11
-0.463516
 21
-8.92657
  0
LINE
  8
0
 10
-0.463516
 20
-8.92657
 11
-0.638657
 21
-8.85724
  0
LINE
  8
0
 10
-0.638657
 20
-8.85724
 11
-0.803726
 21
-8.76648
  0
LINE
  8
0
 10
-0.803726
 20
-8.76648
 11
-0.956131
 21
-8.65576
  0
LINE
  8
0
 10
-0.956131
 20
-8.65576
 11
-1.09344
 21
-8.52681
  0
LINE
  8
0
 10
-1.09344
 20
-8.52681
 11
-1.21352
 21
-8.38167
  0
LINE
  8
0
 10
-1.21352
 20
-8.38167
 11
-1.31445
 21
-8.22263
  0
LINE
  8
0
 10
-1.31445
 20
-8.22263
 11
-1.39465
 21
-8.05219
  0
LINE
  8
0
 10
-1.39465
 20
-8.05219
 11
-1.45287
 21
-7.87303
  0
LINE
  8
0
 10
-1.45287
 20
-7.87303
 11
-1.48816
 21
-7.68799
  0
LINE
  8
0
 10
-1.48816
 20
-7.68799
 11
-1.5
 21
-7.5
  0
LINE
  8
0
 10
-1.5
 20
-7.5
 11
-1.48816
 21
-7.312
  0
LINE
  8
0
 10
-1.48816
 20
-7.312
 11
-1.45287
 21
-7.12695
  0
LINE
  8
0
 10
-1.45287
 20
-7.12695
 11
-1.39465
 21
-6.9478
  0
LINE
  8
0
 10
-1.39465
 20
-6.9478
 11
-1.31445
 21
-6.77736
  0
LINE
  8
0
 10
-1.31445
 20
-6.77736
 11
-1.21352
 21
-6.61832
  0
LINE
  8
0
 10
-1.21352
 20
-6.61832
 11
-1.09344
 21
-6.47318
  0
LINE
  8
0
 10
-1.09344
 20
-6.47318
 11
-0.956131
 21
-6.34422
  0
LINE
  8
0
 10
-0.956131
 20
-6.34422
 11
-0.803726
 21
-6.23351
  0
LINE
  8
0
 10
-0.803726
 20
-6.23351
 11
-0.638657
 21
-6.14275
  0
LINE
  8
0
 10
-0.638657
 20
-6.14275
 11
-0.463516
 21
-6.07341
  0
LINE
  8
0
 10
-0.463516
 20
-6.07341
 11
-0.281067
 21
-6.02657
  0
LINE
  8
0
 10
-0.281067
 20
-6.02657
 11
-0.0941772
 21
-6.00294
  0
LINE
  8
0
 10
-0.0941772
 20
-6.00294
 11
0.0941772
 21
-6.00294
  0
LINE
  8
0
 10
0.0941772
 20
-6.00294
 11
0.281067
 21
-6.02657
  0
LINE
  8
0
 10
0.281067
 20
-6.02657
 11
0.463516
 21
-6.07341
  0
LINE
  8
0
 10
0.463516
 20
-6.07341
 11
0.638657
 21
-6.14275
  0
LINE
  8
0
 10
0.638657
 20
-6.14275
 11
0.803726
 21
-6.23351
  0
LINE
  8
0
 10
0.803726
 20
-6.23351
 11
0.956131
 21
-6.34422
  0
LINE
  8
0
 10
0.956131
 20
-6.34422
 11
1.09344
 21
-6.47318
  0
LINE
  8
0
 10
1.09344
 20
-6.47318
 11
1.21352
 21
-6.61832
  0
LINE
  8
0
 10
1.21352
 20
-6.61832
 11
1.31445
 21
-6.77736
  0
LINE
  8
0
 10
1.31445
 20
-6.77736
 11
1.39465
 21
-6.9478
  0
LINE
  8
0
 10
1.39465
 20
-6.9478
 11
1.45287
 21
-7.12695
  0
LINE
  8
0
 10
1.45287
 20
-7.12695
 11
1.48816
 21
-7.312
  0
LINE
  8
0
 10
1.48816
 20
-7.312
 11
1.5
 21
-7.5
  0
LINE
  8
0
 10
1.5
 20
-7.5
 11
1.48816
 21
-7.68799
  0
LINE
  8
0
 10
1.48816
 20
-7.68799
 11
1.45287
 21
-7.87303
  0
LINE
  8
0
 10
1.45287
 20
-7.87303
 11
1.39465
 21
-8.05219
  0
LINE
  8
0
 10
1.39465
 20
-8.05219
 11
1.31445
 21
-8.22263
  0
LINE
  8
0
 10
1.31445
 20
-8.22263
 11
1.21352
 21
-8.38167
  0
LINE
  8
0
 10
1.21352
 20
-8.38167
 11
1.09344
 21
-8.52681
  0
LINE
  8
0
 10
1.09344
 20
-8.52681
 11
0.956131
 21
-8.65576
  0
LINE
  8
0
 10
0.956131
 20
-8.65576
 11
0.803726
 21
-8.76648
  0
LINE
  8
0
 10
0.803726
 20
-8.76648
 11
0.638657
 21
-8.85724
  0
LINE
  8
0
 10
0.638657
 20
-8.85724
 11
0.463516
 21
-8.92657
  0
LINE
  8
0
 10
0.463516
 20
-8.92657
 11
0.281067
 21
-8.97342
  0
LINE
  8
0
 10
0.281067
 20
-8.97342
 11
0.0941772
 21
-8.99704
  0
LINE
  8
0
 10
0.0941772
 20
-8.99704
 11
-0.0941772
 21
-8.99704
  0
ENDSEC
  0
SECTION
  2
OBJECTS
  0
DICTIONARY
  0
ENDSEC
  0
EOF
