<?xml version="1.0" standalone="no"?>
<!DOCTYPE svg PUBLIC "-//W3C//DTD SVG 1.1//EN" "http://www.w3.org/Graphics/SVG/1.1/DTD/svg11.dtd">
<svg width="14mm" height="93mm" viewBox="-7 -93 14 93" xmlns="http://www.w3.org/2000/svg" version="1.1">
<title>OpenSCAD Model</title>
<path d="
M 7,-87.5 L 6.96057,-88.1267 L 6.84291,-88.7434 L 6.64888,-89.3406 L 6.38153,-89.9088 L 6.04507,-90.4389
 L 5.64484,-90.9227 L 5.18712,-91.3526 L 4.67912,-91.7216 L 4.12889,-92.0241 L 3.54507,-92.2553 L 2.9369,-92.4114
 L 2.31395,-92.4901 L -2.31395,-92.4901 L -2.9369,-92.4114 L -3.54507,-92.2553 L -4.12889,-92.0241 L -4.67912,-91.7216
 L -5.18712,-91.3526 L -5.64484,-90.9227 L -6.04507,-90.4389 L -6.38153,-89.9088 L -6.64888,-89.3406 L -6.84291,-88.7434
 L -6.96057,-88.1267 L -7,-87.5 L -7,-72 L 7,-72 z
M -0.18837,-82.5059 L -0.562134,-82.5531 L -0.927048,-82.6468 L -1.27733,-82.7855 L -1.60747,-82.967 L -1.91226,-83.1884
 L -2.1869,-83.4464 L -2.42705,-83.7366 L -2.62891,-84.0547 L -2.78932,-84.3956 L -2.90575,-84.7539 L -2.97633,-85.124
 L -3,-85.5 L -2.97633,-85.876 L -2.90575,-86.2461 L -2.78932,-86.6044 L -2.62891,-86.9453 L -2.42705,-87.2634
 L -2.1869,-87.5536 L -1.91226,-87.8115 L -1.60747,-88.033 L -1.27733,-88.2145 L -0.927048,-88.3532 L -0.562134,-88.4469
 L -0.18837,-88.4941 L 0.18837,-88.4941 L 0.562134,-88.4469 L 0.927048,-88.3532 L 1.27733,-88.2145 L 1.60747,-88.033
 L 1.91226,-87.8115 L 2.1869,-87.5536 L 2.42705,-87.2634 L 2.62891,-86.9453 L 2.78932,-86.6044 L 2.90575,-86.2461
 L 2.97633,-85.876 L 3,-85.5 L 2.97633,-85.124 L 2.90575,-84.7539 L 2.78932,-84.3956 L 2.62891,-84.0547
 L 2.42705,-83.7366 L 2.1869,-83.4464 L 1.91226,-83.1884 L 1.60747,-82.967 L 1.27733,-82.7855 L 0.927048,-82.6468
 L 0.562134,-82.5531 L 0.18837,-82.5059 z
M -5.34662,-75.6 L -5.34662,-81 L 5.34662,-81 L 5.34662,-75.6 z
M -2.53072,-51.6 L -5.34662,-51.6 L -5.34662,-57 L -2.53072,-57 L -2.53072,-59.9 L -2.62891,-60.0547
 L -2.78932,-60.3956 L -2.90575,-60.7539 L -2.97633,-61.124 L -3,-61.5 L -2.97633,-61.876 L -2.90575,-62.2461
 L -2.78932,-62.6044 L -2.62891,-62.9453 L -2.42705,-63.2634 L -2.1869,-63.5536 L -1.91226,-63.8115 L -1.60747,-64.033
 L -1.27733,-64.2145 L -0.927048,-64.3532 L -0.562134,-64.4469 L -0.18837,-64.4941 L 0.18837,-64.4941 L 0.562134,-64.4469
 L 0.927048,-64.3532 L 1.27733,-64.2145 L 1.60747,-64.033 L 1.91226,-63.8115 L 2.1869,-63.5536 L 2.42705,-63.2634
 L 2.62891,-62.9453 L 2.78932,-62.6044 L 2.90575,-62.2461 L 2.97633,-61.876 L 3,-61.5 L 2.97633,-61.124
 L 2.90575,-60.7539 L 2.78932,-60.3956 L 2.62891,-60.0547 L 2.53072,-59.9 L 2.53072,-57 L 5.34662,-57
 L 5.34662,-51.6 L 2.53072,-51.6 L 2.53072,-48 L 7,-48 L 7,-63.5 L 6.96057,-64.1267
 L 6.84291,-64.7434 L 6.64888,-65.3406 L 6.38153,-65.9088 L 6.04507,-66.4389 L 5.64484,-66.9227 L 5.18712,-67.3526
 L 4.67912,-67.7216 L 4.12889,-68.0241 L 3.54507,-68.2553 L 2.9369,-68.4114 L 2.31395,-68.4901 L -2.31395,-68.4901
 L -2.9369,-68.4114 L -3.54507,-68.2553 L -4.12889,-68.0241 L -4.67912,-67.7216 L -5.18712,-67.3526 L -5.64484,-66.9227
 L -6.04507,-66.4389 L -6.38153,-65.9088 L -6.64888,-65.3406 L -6.84291,-64.7434 L -6.96057,-64.1267 L -7,-63.5
 L -7,-48 L -2.53072,-48 z
M -2.59418,-27.6 L -5.34662,-27.6 L -5.34662,-33 L -2.59418,-33 L -2.59418,-36 L -2.62891,-36.0547
 L -2.78932,-36.3956 L -2.90575,-36.7539 L -2.97633,-37.124 L -3,-37.5 L -2.97633,-37.876 L -2.90575,-38.2461
 L -2.78932,-38.6044 L -2.62891,-38.9453 L -2.42705,-39.2634 L -2.1869,-39.5536 L -1.91226,-39.8115 L -1.60747,-40.033
 L -1.27733,-40.2145 L -0.927048,-40.3532 L -0.562134,-40.4469 L -0.18837,-40.4941 L 0.18837,-40.4941 L 0.562134,-40.4469
 L 0.927048,-40.3532 L 1.27733,-40.2145 L 1.60747,-40.033 L 1.91226,-39.8115 L 2.1869,-39.5536 L 2.42705,-39.2634
 L 2.62891,-38.9453 L 2.78932,-38.6044 L 2.90575,-38.2461 L 2.97633,-37.876 L 3,-37.5 L 2.97633,-37.124
 L 2.90575,-36.7539 L 2.78932,-36.3956 L 2.62891,-36.0547 L 2.59418,-36 L 2.59418,-33 L 5.34662,-33
 L 5.34662,-27.6 L 2.59418,-27.6 L 2.59418,-24 L 7,-24 L 7,-39.5 L 6.96057,-40.1267
 L 6.84291,-40.7434 L 6.64888,-41.3406 L 6.38153,-41.9088 L 6.04507,-42.4389 L 5.64484,-42.9227 L 5.18712,-43.3526
 L 4.67912,-43.7216 L 4.12889,-44.0241 L 3.54507,-44.2553 L 2.9369,-44.4114 L 2.31395,-44.4901 L -2.31395,-44.4901
 L -2.9369,-44.4114 L -3.54507,-44.2553 L -4.12889,-44.0241 L -4.67912,-43.7216 L -5.18712,-43.3526 L -5.64484,-42.9227
 L -6.04507,-42.4389 L -6.38153,-41.9088 L -6.64888,-41.3406 L -6.84291,-40.7434 L -6.96057,-40.1267 L -7,-39.5
 L -7,-24 L -2.59418,-24 z
M 7,-15.5 L 6.96057,-16.1267 L 6.84291,-16.7434 L 6.64888,-17.3406 L 6.38153,-17.9088 L 6.04507,-18.4389
 L 5.64484,-18.9227 L 5.18712,-19.3526 L 4.67912,-19.7216 L 4.12889,-20.0241 L 3.54507,-20.2553 L 2.9369,-20.4114
 L 2.31395,-20.4901 L -2.31395,-20.4901 L -2.9369,-20.4114 L -3.54507,-20.2553 L -4.12889,-20.0241 L -4.67912,-19.7216
 L -5.18712,-19.3526 L -5.64484,-18.9227 L -6.04507,-18.4389 L -6.38153,-17.9088 L -6.64888,-17.3406 L -6.84291,-16.7434
 L -6.96057,-16.1267 L -7,-15.5 L -7,-0 L 7,-0 z
M -0.18837,-10.5059 L -0.562134,-10.5531 L -0.927048,-10.6468 L -1.27733,-10.7855 L -1.60747,-10.967 L -1.91226,-11.1884
 L -2.1869,-11.4464 L -2.42705,-11.7366 L -2.62891,-12.0547 L -2.78932,-12.3956 L -2.90575,-12.7539 L -2.97633,-13.124
 L -3,-13.5 L -2.97633,-13.876 L -2.90575,-14.2461 L -2.78932,-14.6044 L -2.62891,-14.9453 L -2.42705,-15.2634
 L -2.1869,-15.5536 L -1.91226,-15.8115 L -1.60747,-16.033 L -1.27733,-16.2145 L -0.927048,-16.3532 L -0.562134,-16.4469
 L -0.18837,-16.4941 L 0.18837,-16.4941 L 0.562134,-16.4469 L 0.927048,-16.3532 L 1.27733,-16.2145 L 1.60747,-16.033
 L 1.91226,-15.8115 L 2.1869,-15.5536 L 2.42705,-15.2634 L 2.62891,-14.9453 L 2.78932,-14.6044 L 2.90575,-14.2461
 L 2.97633,-13.876 L 3,-13.5 L 2.97633,-13.124 L 2.90575,-12.7539 L 2.78932,-12.3956 L 2.62891,-12.0547
 L 2.42705,-11.7366 L 2.1869,-11.4464 L 1.91226,-11.1884 L 1.60747,-10.967 L 1.27733,-10.7855 L 0.927048,-10.6468
 L 0.562134,-10.5531 L 0.18837,-10.5059 z
M -5.34662,-3.59999 L -5.34662,-9 L 5.34662,-9 L 5.34662,-3.59999 z
" stroke="black" fill="lightgray" stroke-width="0.5"/>
</svg>
