<?xml version="1.0" standalone="no"?>
<!DOCTYPE svg PUBLIC "-//W3C//DTD SVG 1.1//EN" "http://www.w3.org/Graphics/SVG/1.1/DTD/svg11.dtd">
<svg width="44mm" height="152mm" viewBox="-22 -238 44 152" xmlns="http://www.w3.org/2000/svg" version="1.1">
<title>OpenSCAD Model</title>
<path d="
M 17.9369,-194.089 L 18.5451,-194.245 L 19.1289,-194.476 L 19.6791,-194.778 L 20.1871,-195.147 L 20.6448,-195.577
 L 21.0451,-196.061 L 21.3815,-196.591 L 21.6489,-197.159 L 21.8429,-197.757 L 21.9606,-198.373 L 22,-199
 L 22,-233 L 21.9606,-233.627 L 21.8429,-234.243 L 21.6489,-234.841 L 21.3815,-235.409 L 21.0451,-235.939
 L 20.6448,-236.423 L 20.1871,-236.853 L 19.6791,-237.222 L 19.1289,-237.524 L 18.5451,-237.755 L 17.9369,-237.911
 L 17.3139,-237.99 L -17.3139,-237.99 L -17.9369,-237.911 L -18.5451,-237.755 L -19.1289,-237.524 L -19.6791,-237.222
 L -20.1871,-236.853 L -20.6448,-236.423 L -21.0451,-235.939 L -21.3815,-235.409 L -21.6489,-234.841 L -21.8429,-234.243
 L -21.9606,-233.627 L -22,-233 L -22,-199 L -21.9606,-198.373 L -21.8429,-197.757 L -21.6489,-197.159
 L -21.3815,-196.591 L -21.0451,-196.061 L -20.6448,-195.577 L -20.1871,-195.147 L -19.6791,-194.778 L -19.1289,-194.476
 L -18.5451,-194.245 L -17.9369,-194.089 L -17.3139,-194.01 L 17.3139,-194.01 z
M -17.0482,-194.509 L -17.6401,-194.584 L -18.2178,-194.732 L -18.7724,-194.952 L -19.2952,-195.239 L -19.7778,-195.59
 L -20.2126,-195.998 L -20.5928,-196.458 L -20.9124,-196.962 L -21.1664,-197.501 L -21.3508,-198.069 L -21.4625,-198.655
 L -21.5,-199.25 L -21.5,-232.75 L -21.4625,-233.345 L -21.3508,-233.931 L -21.1664,-234.499 L -20.9124,-235.038
 L -20.5928,-235.542 L -20.2126,-236.002 L -19.7778,-236.41 L -19.2952,-236.761 L -18.7724,-237.048 L -18.2178,-237.268
 L -17.6401,-237.416 L -17.0482,-237.491 L 17.0482,-237.491 L 17.6401,-237.416 L 18.2178,-237.268 L 18.7724,-237.048
 L 19.2952,-236.761 L 19.7778,-236.41 L 20.2126,-236.002 L 20.5928,-235.542 L 20.9124,-235.038 L 21.1664,-234.499
 L 21.3508,-233.931 L 21.4625,-233.345 L 21.5,-232.75 L 21.5,-199.25 L 21.4625,-198.655 L 21.3508,-198.069
 L 21.1664,-197.501 L 20.9124,-196.962 L 20.5928,-196.458 L 20.2126,-195.998 L 19.7778,-195.59 L 19.2952,-195.239
 L 18.7724,-194.952 L 18.2178,-194.732 L 17.6401,-194.584 L 17.0482,-194.509 z
M 17.9369,-140.089 L 18.5451,-140.245 L 19.1289,-140.476 L 19.6791,-140.778 L 20.1871,-141.147 L 20.6448,-141.577
 L 21.0451,-142.061 L 21.3815,-142.591 L 21.6489,-143.159 L 21.8429,-143.757 L 21.9606,-144.373 L 22,-145
 L 22,-179 L 21.9606,-179.627 L 21.8429,-180.243 L 21.6489,-180.841 L 21.3815,-181.409 L 21.0451,-181.939
 L 20.6448,-182.423 L 20.1871,-182.853 L 19.6791,-183.222 L 19.1289,-183.524 L 18.5451,-183.755 L 17.9369,-183.911
 L 17.3139,-183.99 L -17.3139,-183.99 L -17.9369,-183.911 L -18.5451,-183.755 L -19.1289,-183.524 L -19.6791,-183.222
 L -20.1871,-182.853 L -20.6448,-182.423 L -21.0451,-181.939 L -21.3815,-181.409 L -21.6489,-180.841 L -21.8429,-180.243
 L -21.9606,-179.627 L -22,-179 L -22,-145 L -21.9606,-144.373 L -21.8429,-143.757 L -21.6489,-143.159
 L -21.3815,-142.591 L -21.0451,-142.061 L -20.6448,-141.577 L -20.1871,-141.147 L -19.6791,-140.778 L -19.1289,-140.476
 L -18.5451,-140.245 L -17.9369,-140.089 L -17.3139,-140.01 L 17.3139,-140.01 z
M -16.993,-141.388 L -17.4751,-141.449 L -17.9457,-141.57 L -18.3975,-141.749 L -18.8234,-141.983 L -19.2165,-142.269
 L -19.5707,-142.601 L -19.8805,-142.976 L -20.1408,-143.386 L -20.3477,-143.826 L -20.4979,-144.288 L -20.589,-144.765
 L -20.6195,-145.25 L -20.6195,-178.75 L -20.589,-179.235 L -20.4979,-179.712 L -20.3477,-180.174 L -20.1408,-180.614
 L -19.8805,-181.024 L -19.5707,-181.399 L -19.2165,-181.731 L -18.8234,-182.017 L -18.3975,-182.251 L -17.9457,-182.43
 L -17.4751,-182.551 L -16.993,-182.612 L 16.993,-182.612 L 17.4751,-182.551 L 17.9457,-182.43 L 18.3975,-182.251
 L 18.8234,-182.017 L 19.2165,-181.731 L 19.5707,-181.399 L 19.8805,-181.024 L 20.1408,-180.614 L 20.3477,-180.174
 L 20.4979,-179.712 L 20.589,-179.235 L 20.6195,-178.75 L 20.6195,-145.25 L 20.589,-144.765 L 20.4979,-144.288
 L 20.3477,-143.826 L 20.1408,-143.386 L 19.8805,-142.976 L 19.5707,-142.601 L 19.2165,-142.269 L 18.8234,-141.983
 L 18.3975,-141.749 L 17.9457,-141.57 L 17.4751,-141.449 L 16.993,-141.388 z
M 17.9369,-86.0886 L 18.5451,-86.2447 L 19.1289,-86.4759 L 19.6791,-86.7784 L 20.1871,-87.1474 L 20.6448,-87.5773
 L 21.0451,-88.0611 L 21.3815,-88.5912 L 21.6489,-89.1594 L 21.8429,-89.7566 L 21.9606,-90.3733 L 22,-91
 L 22,-125 L 21.9606,-125.627 L 21.8429,-126.243 L 21.6489,-126.841 L 21.3815,-127.409 L 21.0451,-127.939
 L 20.6448,-128.423 L 20.1871,-128.853 L 19.6791,-129.222 L 19.1289,-129.524 L 18.5451,-129.755 L 17.9369,-129.911
 L 17.3139,-129.99 L -17.3139,-129.99 L -17.9369,-129.911 L -18.5451,-129.755 L -19.1289,-129.524 L -19.6791,-129.222
 L -20.1871,-128.853 L -20.6448,-128.423 L -21.0451,-127.939 L -21.3815,-127.409 L -21.6489,-126.841 L -21.8429,-126.243
 L -21.9606,-125.627 L -22,-125 L -22,-91 L -21.9606,-90.3733 L -21.8429,-89.7566 L -21.6489,-89.1594
 L -21.3815,-88.5912 L -21.0451,-88.0611 L -20.6448,-87.5773 L -20.1871,-87.1474 L -19.6791,-86.7784 L -19.1289,-86.4759
 L -18.5451,-86.2447 L -17.9369,-86.0886 L -17.3139,-86.0099 L 17.3139,-86.0099 z
M 14.9058,-121.503 L 14.7189,-121.527 L 14.5365,-121.573 L 14.3613,-121.643 L 14.1963,-121.734 L 14.0439,-121.844
 L 13.9065,-121.973 L 13.7865,-122.118 L 13.6855,-122.277 L 13.6053,-122.448 L 13.5471,-122.627 L 13.5118,-122.812
 L 13.5,-123 L 13.5118,-123.188 L 13.5471,-123.373 L 13.6053,-123.552 L 13.6855,-123.723 L 13.7865,-123.882
 L 13.9065,-124.027 L 14.0439,-124.156 L 14.1963,-124.266 L 14.3613,-124.357 L 14.5365,-124.427 L 14.7189,-124.473
 L 14.9058,-124.497 L 15.0942,-124.497 L 15.2811,-124.473 L 15.4635,-124.427 L 15.6387,-124.357 L 15.8037,-124.266
 L 15.9561,-124.156 L 16.0934,-124.027 L 16.2135,-123.882 L 16.3145,-123.723 L 16.3947,-123.552 L 16.4529,-123.373
 L 16.4882,-123.188 L 16.5,-123 L 16.4882,-122.812 L 16.4529,-122.627 L 16.3947,-122.448 L 16.3145,-122.277
 L 16.2135,-122.118 L 16.0934,-121.973 L 15.9561,-121.844 L 15.8037,-121.734 L 15.6387,-121.643 L 15.4635,-121.573
 L 15.2811,-121.527 L 15.0942,-121.503 z
M -15.0942,-121.503 L -15.2811,-121.527 L -15.4635,-121.573 L -15.6387,-121.643 L -15.8037,-121.734 L -15.9561,-121.844
 L -16.0934,-121.973 L -16.2135,-122.118 L -16.3145,-122.277 L -16.3947,-122.448 L -16.4529,-122.627 L -16.4882,-122.812
 L -16.5,-123 L -16.4882,-123.188 L -16.4529,-123.373 L -16.3947,-123.552 L -16.3145,-123.723 L -16.2135,-123.882
 L -16.0934,-124.027 L -15.9561,-124.156 L -15.8037,-124.266 L -15.6387,-124.357 L -15.4635,-124.427 L -15.2811,-124.473
 L -15.0942,-124.497 L -14.9058,-124.497 L -14.7189,-124.473 L -14.5365,-124.427 L -14.3613,-124.357 L -14.1963,-124.266
 L -14.0439,-124.156 L -13.9065,-124.027 L -13.7865,-123.882 L -13.6855,-123.723 L -13.6053,-123.552 L -13.5471,-123.373
 L -13.5118,-123.188 L -13.5,-123 L -13.5118,-122.812 L -13.5471,-122.627 L -13.6053,-122.448 L -13.6855,-122.277
 L -13.7865,-122.118 L -13.9065,-121.973 L -14.0439,-121.844 L -14.1963,-121.734 L -14.3613,-121.643 L -14.5365,-121.573
 L -14.7189,-121.527 L -14.9058,-121.503 z
M 14.9058,-91.503 L 14.7189,-91.5266 L 14.5365,-91.5734 L 14.3613,-91.6428 L 14.1963,-91.7335 L 14.0439,-91.8442
 L 13.9065,-91.9732 L 13.7865,-92.1183 L 13.6855,-92.2774 L 13.6053,-92.4478 L 13.5471,-92.627 L 13.5118,-92.812
 L 13.5,-93 L 13.5118,-93.188 L 13.5471,-93.373 L 13.6053,-93.5522 L 13.6855,-93.7226 L 13.7865,-93.8817
 L 13.9065,-94.0268 L 14.0439,-94.1558 L 14.1963,-94.2665 L 14.3613,-94.3573 L 14.5365,-94.4266 L 14.7189,-94.4734
 L 14.9058,-94.4971 L 15.0942,-94.4971 L 15.2811,-94.4734 L 15.4635,-94.4266 L 15.6387,-94.3573 L 15.8037,-94.2665
 L 15.9561,-94.1558 L 16.0934,-94.0268 L 16.2135,-93.8817 L 16.3145,-93.7226 L 16.3947,-93.5522 L 16.4529,-93.373
 L 16.4882,-93.188 L 16.5,-93 L 16.4882,-92.812 L 16.4529,-92.627 L 16.3947,-92.4478 L 16.3145,-92.2774
 L 16.2135,-92.1183 L 16.0934,-91.9732 L 15.9561,-91.8442 L 15.8037,-91.7335 L 15.6387,-91.6428 L 15.4635,-91.5734
 L 15.2811,-91.5266 L 15.0942,-91.503 z
M -15.0942,-91.503 L -15.2811,-91.5266 L -15.4635,-91.5734 L -15.6387,-91.6428 L -15.8037,-91.7335 L -15.9561,-91.8442
 L -16.0934,-91.9732 L -16.2135,-92.1183 L -16.3145,-92.2774 L -16.3947,-92.4478 L -16.4529,-92.627 L -16.4882,-92.812
 L -16.5,-93 L -16.4882,-93.188 L -16.4529,-93.373 L -16.3947,-93.5522 L -16.3145,-93.7226 L -16.2135,-93.8817
 L -16.0934,-94.0268 L -15.9561,-94.1558 L -15.8037,-94.2665 L -15.6387,-94.3573 L -15.4635,-94.4266 L -15.2811,-94.4734
 L -15.0942,-94.4971 L -14.9058,-94.4971 L -14.7189,-94.4734 L -14.5365,-94.4266 L -14.3613,-94.3573 L -14.1963,-94.2665
 L -14.0439,-94.1558 L -13.9065,-94.0268 L -13.7865,-93.8817 L -13.6855,-93.7226 L -13.6053,-93.5522 L -13.5471,-93.373
 L -13.5118,-93.188 L -13.5,-93 L -13.5118,-92.812 L -13.5471,-92.627 L -13.6053,-92.4478 L -13.6855,-92.2774
 L -13.7865,-92.1183 L -13.9065,-91.9732 L -14.0439,-91.8442 L -14.1963,-91.7335 L -14.3613,-91.6428 L -14.5365,-91.5734
 L -14.7189,-91.5266 L -14.9058,-91.503 z
" stroke="black" fill="lightgray" stroke-width="0.5"/>
</svg>
