<?xml version="1.0" standalone="no"?>
<!DOCTYPE svg PUBLIC "-//W3C//DTD SVG 1.1//EN" "http://www.w3.org/Graphics/SVG/1.1/DTD/svg11.dtd">
<svg width="46mm" height="129mm" viewBox="-23 -237 46 129" xmlns="http://www.w3.org/2000/svg" version="1.1">
<title>OpenSCAD Model</title>
<path d="
M 18.4369,-177.089 L 19.0451,-177.245 L 19.6289,-177.476 L 20.1791,-177.778 L 20.6871,-178.147 L 21.1448,-178.577
 L 21.5451,-179.061 L 21.8815,-179.591 L 22.1489,-180.159 L 22.3429,-180.757 L 22.4606,-181.373 L 22.5,-182
 L 22.5,-232 L 22.4606,-232.627 L 22.3429,-233.243 L 22.1489,-233.841 L 21.8815,-234.409 L 21.5451,-234.939
 L 21.1448,-235.423 L 20.6871,-235.853 L 20.1791,-236.222 L 19.6289,-236.524 L 19.0451,-236.755 L 18.4369,-236.911
 L 17.8139,-236.99 L -17.8139,-236.99 L -18.4369,-236.911 L -19.0451,-236.755 L -19.6289,-236.524 L -20.1791,-236.222
 L -20.6871,-235.853 L -21.1448,-235.423 L -21.5451,-234.939 L -21.8815,-234.409 L -22.1489,-233.841 L -22.3429,-233.243
 L -22.4606,-232.627 L -22.5,-232 L -22.5,-182 L -22.4606,-181.373 L -22.3429,-180.757 L -22.1489,-180.159
 L -21.8815,-179.591 L -21.5451,-179.061 L -21.1448,-178.577 L -20.6871,-178.147 L -20.1791,-177.778 L -19.6289,-177.476
 L -19.0451,-177.245 L -18.4369,-177.089 L -17.8139,-177.01 L 17.8139,-177.01 z
M -12.2539,-177.54 L -11.8209,-177.778 L -11.3129,-178.147 L -10.8551,-178.577 L -10.4549,-179.061 L -10.1185,-179.591
 L -9.8511,-180.159 L -9.65707,-180.757 L -9.53941,-181.373 L -9.5,-182 L -9.5,-185 L -9.53941,-185.627
 L -9.65707,-186.243 L -9.8511,-186.841 L -10.1185,-187.409 L -10.4549,-187.939 L -10.8551,-188.423 L -11.3129,-188.853
 L -11.8209,-189.222 L -12.3711,-189.524 L -12.9549,-189.755 L -13.5631,-189.911 L -14.186,-189.99 L -17.8139,-189.99
 L -18.4369,-189.911 L -19.0451,-189.755 L -19.6289,-189.524 L -20.1791,-189.222 L -20.6871,-188.853 L -21.1448,-188.423
 L -21.5451,-187.939 L -21.8815,-187.409 L -21.9685,-187.224 L -21.9685,-232 L -21.9333,-232.56 L -21.8282,-233.111
 L -21.6547,-233.645 L -21.4158,-234.153 L -21.1151,-234.627 L -20.7574,-235.059 L -20.3483,-235.443 L -19.8944,-235.773
 L -19.4026,-236.043 L -18.8808,-236.25 L -18.3373,-236.389 L -17.7806,-236.46 L 17.7806,-236.46 L 18.3373,-236.389
 L 18.8808,-236.25 L 19.4026,-236.043 L 19.8944,-235.773 L 20.3483,-235.443 L 20.7574,-235.059 L 21.1151,-234.627
 L 21.4158,-234.153 L 21.6547,-233.645 L 21.8282,-233.111 L 21.9333,-232.56 L 21.9685,-232 L 21.9685,-182
 L 21.9333,-181.44 L 21.8282,-180.889 L 21.6547,-180.355 L 21.4158,-179.847 L 21.1151,-179.373 L 20.7574,-178.941
 L 20.3483,-178.557 L 19.8944,-178.227 L 19.4026,-177.957 L 18.8808,-177.75 L 18.3373,-177.611 L 17.7806,-177.54
 z
M 15.4684,-227.044 L 15.7725,-227.122 L 16.0644,-227.238 L 16.3396,-227.389 L 16.5936,-227.574 L 16.8224,-227.789
 L 17.0225,-228.031 L 17.1908,-228.296 L 17.3244,-228.58 L 17.4214,-228.878 L 17.4803,-229.187 L 17.5,-229.5
 L 17.4803,-229.813 L 17.4214,-230.122 L 17.3244,-230.42 L 17.1908,-230.704 L 17.0225,-230.969 L 16.8224,-231.211
 L 16.5936,-231.426 L 16.3396,-231.611 L 16.0644,-231.762 L 15.7725,-231.878 L 15.4684,-231.956 L 15.157,-231.995
 L 14.843,-231.995 L 14.5315,-231.956 L 14.2274,-231.878 L 13.9355,-231.762 L 13.6604,-231.611 L 13.4064,-231.426
 L 13.1776,-231.211 L 12.9774,-230.969 L 12.8092,-230.704 L 12.6756,-230.42 L 12.5785,-230.122 L 12.5197,-229.813
 L 12.5,-229.5 L 12.5197,-229.187 L 12.5785,-228.878 L 12.6756,-228.58 L 12.8092,-228.296 L 12.9774,-228.031
 L 13.1776,-227.789 L 13.4064,-227.574 L 13.6604,-227.389 L 13.9355,-227.238 L 14.2274,-227.122 L 14.5315,-227.044
 L 14.843,-227.005 L 15.157,-227.005 z
M 14.9058,-228.003 L 14.7189,-228.027 L 14.5365,-228.073 L 14.3613,-228.143 L 14.1963,-228.234 L 14.0439,-228.344
 L 13.9065,-228.473 L 13.7865,-228.618 L 13.6855,-228.777 L 13.6053,-228.948 L 13.5471,-229.127 L 13.5118,-229.312
 L 13.5,-229.5 L 13.5118,-229.688 L 13.5471,-229.873 L 13.6053,-230.052 L 13.6855,-230.223 L 13.7865,-230.382
 L 13.9065,-230.527 L 14.0439,-230.656 L 14.1963,-230.766 L 14.3613,-230.857 L 14.5365,-230.927 L 14.7189,-230.973
 L 14.9058,-230.997 L 15.0942,-230.997 L 15.2811,-230.973 L 15.4635,-230.927 L 15.6387,-230.857 L 15.8037,-230.766
 L 15.9561,-230.656 L 16.0934,-230.527 L 16.2135,-230.382 L 16.3145,-230.223 L 16.3947,-230.052 L 16.4529,-229.873
 L 16.4882,-229.688 L 16.5,-229.5 L 16.4882,-229.312 L 16.4529,-229.127 L 16.3947,-228.948 L 16.3145,-228.777
 L 16.2135,-228.618 L 16.0934,-228.473 L 15.9561,-228.344 L 15.8037,-228.234 L 15.6387,-228.143 L 15.4635,-228.073
 L 15.2811,-228.027 L 15.0942,-228.003 z
M -15.0942,-183.003 L -15.2811,-183.027 L -15.4635,-183.073 L -15.6387,-183.143 L -15.8037,-183.234 L -15.9561,-183.344
 L -16.0934,-183.473 L -16.2135,-183.618 L -16.3145,-183.777 L -16.3947,-183.948 L -16.4529,-184.127 L -16.4882,-184.312
 L -16.5,-184.5 L -16.4882,-184.688 L -16.4529,-184.873 L -16.3947,-185.052 L -16.3145,-185.223 L -16.2135,-185.382
 L -16.0934,-185.527 L -15.9561,-185.656 L -15.8037,-185.766 L -15.6387,-185.857 L -15.4635,-185.927 L -15.2811,-185.973
 L -15.0942,-185.997 L -14.9058,-185.997 L -14.7189,-185.973 L -14.5365,-185.927 L -14.3613,-185.857 L -14.1963,-185.766
 L -14.0439,-185.656 L -13.9065,-185.527 L -13.7865,-185.382 L -13.6855,-185.223 L -13.6053,-185.052 L -13.5471,-184.873
 L -13.5118,-184.688 L -13.5,-184.5 L -13.5118,-184.312 L -13.5471,-184.127 L -13.6053,-183.948 L -13.6855,-183.777
 L -13.7865,-183.618 L -13.9065,-183.473 L -14.0439,-183.344 L -14.1963,-183.234 L -14.3613,-183.143 L -14.5365,-183.073
 L -14.7189,-183.027 L -14.9058,-183.003 z
M 18.4369,-108.089 L 19.0451,-108.245 L 19.6289,-108.476 L 20.1791,-108.778 L 20.6871,-109.147 L 21.1448,-109.577
 L 21.5451,-110.061 L 21.8815,-110.591 L 22.1489,-111.159 L 22.3429,-111.757 L 22.4606,-112.373 L 22.5,-113
 L 22.5,-163 L 22.4606,-163.627 L 22.3429,-164.243 L 22.1489,-164.841 L 21.8815,-165.409 L 21.5451,-165.939
 L 21.1448,-166.423 L 20.6871,-166.853 L 20.1791,-167.222 L 19.6289,-167.524 L 19.0451,-167.755 L 18.4369,-167.911
 L 17.8139,-167.99 L -17.8139,-167.99 L -18.4369,-167.911 L -19.0451,-167.755 L -19.6289,-167.524 L -20.1791,-167.222
 L -20.6871,-166.853 L -21.1448,-166.423 L -21.5451,-165.939 L -21.8815,-165.409 L -22.1489,-164.841 L -22.3429,-164.243
 L -22.4606,-163.627 L -22.5,-163 L -22.5,-113 L -22.4606,-112.373 L -22.3429,-111.757 L -22.1489,-111.159
 L -21.8815,-110.591 L -21.5451,-110.061 L -21.1448,-109.577 L -20.6871,-109.147 L -20.1791,-108.778 L -19.6289,-108.476
 L -19.0451,-108.245 L -18.4369,-108.089 L -17.8139,-108.01 L 17.8139,-108.01 z
M -10.3781,-110.182 L -10.1185,-110.591 L -9.8511,-111.159 L -9.65707,-111.757 L -9.53941,-112.373 L -9.5,-113
 L -9.5,-116 L -9.53941,-116.627 L -9.65707,-117.243 L -9.8511,-117.841 L -10.1185,-118.409 L -10.4549,-118.939
 L -10.8551,-119.423 L -11.3129,-119.853 L -11.8209,-120.222 L -12.3711,-120.524 L -12.9549,-120.755 L -13.5631,-120.911
 L -14.186,-120.99 L -17.8139,-120.99 L -18.4369,-120.911 L -19.0451,-120.755 L -19.6289,-120.524 L -20.1791,-120.222
 L -20.3234,-120.117 L -20.3234,-163 L -20.3011,-163.354 L -20.2347,-163.702 L -20.1251,-164.039 L -19.9742,-164.36
 L -19.7842,-164.66 L -19.5582,-164.933 L -19.2997,-165.175 L -19.0128,-165.384 L -18.7021,-165.555 L -18.3725,-165.685
 L -18.0291,-165.773 L -17.6773,-165.818 L 10.3781,-165.818 L 10.1185,-165.409 L 9.8511,-164.841 L 9.65707,-164.243
 L 9.53941,-163.627 L 9.5,-163 L 9.5,-160 L 9.53941,-159.373 L 9.65707,-158.757 L 9.8511,-158.159
 L 10.1185,-157.591 L 10.4549,-157.061 L 10.8551,-156.577 L 11.3129,-156.147 L 11.8209,-155.778 L 12.3711,-155.476
 L 12.9549,-155.245 L 13.5631,-155.089 L 14.186,-155.01 L 17.8139,-155.01 L 18.4369,-155.089 L 19.0451,-155.245
 L 19.6289,-155.476 L 20.1791,-155.778 L 20.3234,-155.883 L 20.3234,-113 L 20.3011,-112.646 L 20.2347,-112.298
 L 20.1251,-111.961 L 19.9742,-111.64 L 19.7842,-111.34 L 19.5582,-111.067 L 19.2997,-110.825 L 19.0128,-110.616
 L 18.7021,-110.445 L 18.3725,-110.315 L 18.0291,-110.227 L 17.6773,-110.182 z
M 14.8493,-158.105 L 14.5503,-158.143 L 14.2583,-158.217 L 13.9781,-158.328 L 13.714,-158.474 L 13.4702,-158.651
 L 13.2505,-158.857 L 13.0583,-159.089 L 12.8969,-159.344 L 12.7685,-159.617 L 12.6754,-159.903 L 12.6189,-160.199
 L 12.6,-160.5 L 12.6189,-160.801 L 12.6754,-161.097 L 12.7685,-161.383 L 12.8969,-161.656 L 13.0583,-161.911
 L 13.2505,-162.143 L 13.4702,-162.349 L 13.714,-162.526 L 13.9781,-162.672 L 14.2583,-162.783 L 14.5503,-162.857
 L 14.8493,-162.895 L 15.1507,-162.895 L 15.4497,-162.857 L 15.7416,-162.783 L 16.0219,-162.672 L 16.286,-162.526
 L 16.5298,-162.349 L 16.7495,-162.143 L 16.9416,-161.911 L 17.1031,-161.656 L 17.2315,-161.383 L 17.3246,-161.097
 L 17.3811,-160.801 L 17.4,-160.5 L 17.3811,-160.199 L 17.3246,-159.903 L 17.2315,-159.617 L 17.1031,-159.344
 L 16.9416,-159.089 L 16.7495,-158.857 L 16.5298,-158.651 L 16.286,-158.474 L 16.0219,-158.328 L 15.7416,-158.217
 L 15.4497,-158.143 L 15.1507,-158.105 z
M -15.1507,-113.105 L -15.4497,-113.143 L -15.7416,-113.217 L -16.0219,-113.328 L -16.286,-113.474 L -16.5298,-113.651
 L -16.7495,-113.857 L -16.9416,-114.089 L -17.1031,-114.344 L -17.2315,-114.617 L -17.3246,-114.903 L -17.3811,-115.199
 L -17.4,-115.5 L -17.3811,-115.801 L -17.3246,-116.097 L -17.2315,-116.383 L -17.1031,-116.656 L -16.9416,-116.911
 L -16.7495,-117.143 L -16.5298,-117.349 L -16.286,-117.526 L -16.0219,-117.672 L -15.7416,-117.783 L -15.4497,-117.857
 L -15.1507,-117.895 L -14.8493,-117.895 L -14.5503,-117.857 L -14.2583,-117.783 L -13.9781,-117.672 L -13.714,-117.526
 L -13.4702,-117.349 L -13.2505,-117.143 L -13.0583,-116.911 L -12.8969,-116.656 L -12.7685,-116.383 L -12.6754,-116.097
 L -12.6189,-115.801 L -12.6,-115.5 L -12.6189,-115.199 L -12.6754,-114.903 L -12.7685,-114.617 L -12.8969,-114.344
 L -13.0583,-114.089 L -13.2505,-113.857 L -13.4702,-113.651 L -13.714,-113.474 L -13.9781,-113.328 L -14.2583,-113.217
 L -14.5503,-113.143 L -14.8493,-113.105 z
" stroke="black" fill="lightgray" stroke-width="0.5"/>
</svg>
