solid OpenSCAD_Model
  facet normal 0.998027 0.0627883 0
    outer loop
      vertex 2 0 0
      vertex 1.98423 0.250666 -6
      vertex 1.98423 0.250666 0
    endloop
  endfacet
  facet normal 0.998027 0.0627883 0
    outer loop
      vertex 1.98423 0.250666 -6
      vertex 2 0 0
      vertex 2 0 -6
    endloop
  endfacet
  facet normal -0.998027 0.0627883 0
    outer loop
      vertex -2 0 -6
      vertex -1.98423 0.250666 0
      vertex -1.98423 0.250666 -6
    endloop
  endfacet
  facet normal -0.998027 0.0627883 0
    outer loop
      vertex -1.98423 0.250666 0
      vertex -2 0 -6
      vertex -2 0 0
    endloop
  endfacet
  facet normal 0 1 -0
    outer loop
      vertex 0.125581 1.99605 -6
      vertex -0.125581 1.99605 0
      vertex 0.125581 1.99605 0
    endloop
  endfacet
  facet normal 0 1 0
    outer loop
      vertex -0.125581 1.99605 0
      vertex 0.125581 1.99605 -6
      vertex -0.125581 1.99605 -6
    endloop
  endfacet
  facet normal 0 -1 0
    outer loop
      vertex -0.125581 -1.99605 -6
      vertex 0.125581 -1.99605 0
      vertex -0.125581 -1.99605 0
    endloop
  endfacet
  facet normal 0 -1 -0
    outer loop
      vertex 0.125581 -1.99605 0
      vertex -0.125581 -1.99605 -6
      vertex 0.125581 -1.99605 -6
    endloop
  endfacet
  facet normal 0.684562 -0.728955 0
    outer loop
      vertex 1.27485 -1.54103 -6
      vertex 1.45794 -1.36909 0
      vertex 1.27485 -1.54103 0
    endloop
  endfacet
  facet normal 0.684562 -0.728955 0
    outer loop
      vertex 1.45794 -1.36909 0
      vertex 1.27485 -1.54103 -6
      vertex 1.45794 -1.36909 -6
    endloop
  endfacet
  facet normal 0.684562 0.728955 -0
    outer loop
      vertex 1.45794 1.36909 -6
      vertex 1.27485 1.54103 0
      vertex 1.45794 1.36909 0
    endloop
  endfacet
  facet normal 0.684562 0.728955 0
    outer loop
      vertex 1.27485 1.54103 0
      vertex 1.45794 1.36909 -6
      vertex 1.27485 1.54103 -6
    endloop
  endfacet
  facet normal -0.684562 0.728955 0
    outer loop
      vertex -1.27485 1.54103 -6
      vertex -1.45794 1.36909 0
      vertex -1.27485 1.54103 0
    endloop
  endfacet
  facet normal -0.684562 0.728955 0
    outer loop
      vertex -1.45794 1.36909 0
      vertex -1.27485 1.54103 -6
      vertex -1.45794 1.36909 -6
    endloop
  endfacet
  facet normal -0.368128 0.929775 0
    outer loop
      vertex -0.618033 1.90211 -6
      vertex -0.851558 1.80965 0
      vertex -0.618033 1.90211 0
    endloop
  endfacet
  facet normal -0.368128 0.929775 0
    outer loop
      vertex -0.851558 1.80965 0
      vertex -0.618033 1.90211 -6
      vertex -0.851558 1.80965 -6
    endloop
  endfacet
  facet normal 0.904826 0.425781 0
    outer loop
      vertex 1.85955 0.736249 0
      vertex 1.75261 0.963507 -6
      vertex 1.75261 0.963507 0
    endloop
  endfacet
  facet normal 0.904826 0.425781 0
    outer loop
      vertex 1.75261 0.963507 -6
      vertex 1.85955 0.736249 0
      vertex 1.85955 0.736249 -6
    endloop
  endfacet
  facet normal 0.982289 0.18737 0
    outer loop
      vertex 1.98423 0.250666 0
      vertex 1.93717 0.497379 -6
      vertex 1.93717 0.497379 0
    endloop
  endfacet
  facet normal 0.982289 0.18737 0
    outer loop
      vertex 1.93717 0.497379 -6
      vertex 1.98423 0.250666 0
      vertex 1.98423 0.250666 -6
    endloop
  endfacet
  facet normal 0.368128 0.929775 -0
    outer loop
      vertex 0.851558 1.80965 -6
      vertex 0.618033 1.90211 0
      vertex 0.851558 1.80965 0
    endloop
  endfacet
  facet normal 0.368128 0.929775 0
    outer loop
      vertex 0.618033 1.90211 0
      vertex 0.851558 1.80965 -6
      vertex 0.618033 1.90211 -6
    endloop
  endfacet
  facet normal 0.58775 0.809042 -0
    outer loop
      vertex 1.27485 1.54103 -6
      vertex 1.07165 1.68865 0
      vertex 1.27485 1.54103 0
    endloop
  endfacet
  facet normal 0.58775 0.809042 0
    outer loop
      vertex 1.07165 1.68865 0
      vertex 1.27485 1.54103 -6
      vertex 1.07165 1.68865 -6
    endloop
  endfacet
  facet normal -0.904826 0.425781 0
    outer loop
      vertex -1.85955 0.736249 -6
      vertex -1.75261 0.963507 0
      vertex -1.75261 0.963507 -6
    endloop
  endfacet
  facet normal -0.904826 0.425781 0
    outer loop
      vertex -1.75261 0.963507 0
      vertex -1.85955 0.736249 -6
      vertex -1.85955 0.736249 0
    endloop
  endfacet
  facet normal -0.844327 0.535829 0
    outer loop
      vertex -1.75261 0.963507 -6
      vertex -1.61803 1.17557 0
      vertex -1.61803 1.17557 -6
    endloop
  endfacet
  facet normal -0.844327 0.535829 0
    outer loop
      vertex -1.61803 1.17557 0
      vertex -1.75261 0.963507 -6
      vertex -1.75261 0.963507 0
    endloop
  endfacet
  facet normal -0.951049 0.30904 0
    outer loop
      vertex -1.93717 0.497379 -6
      vertex -1.85955 0.736249 0
      vertex -1.85955 0.736249 -6
    endloop
  endfacet
  facet normal -0.951049 0.30904 0
    outer loop
      vertex -1.85955 0.736249 0
      vertex -1.93717 0.497379 -6
      vertex -1.93717 0.497379 0
    endloop
  endfacet
  facet normal -0.481764 0.876301 0
    outer loop
      vertex -0.851558 1.80965 -6
      vertex -1.07165 1.68865 0
      vertex -0.851558 1.80965 0
    endloop
  endfacet
  facet normal -0.481764 0.876301 0
    outer loop
      vertex -1.07165 1.68865 0
      vertex -0.851558 1.80965 -6
      vertex -1.07165 1.68865 -6
    endloop
  endfacet
  facet normal -0.248686 0.968584 0
    outer loop
      vertex -0.374763 1.96457 -6
      vertex -0.618033 1.90211 0
      vertex -0.374763 1.96457 0
    endloop
  endfacet
  facet normal -0.248686 0.968584 0
    outer loop
      vertex -0.618033 1.90211 0
      vertex -0.374763 1.96457 -6
      vertex -0.618033 1.90211 -6
    endloop
  endfacet
  facet normal 0.125337 -0.992114 0
    outer loop
      vertex 0.125581 -1.99605 -6
      vertex 0.374763 -1.96457 0
      vertex 0.125581 -1.99605 0
    endloop
  endfacet
  facet normal 0.125337 -0.992114 0
    outer loop
      vertex 0.374763 -1.96457 0
      vertex 0.125581 -1.99605 -6
      vertex 0.374763 -1.96457 -6
    endloop
  endfacet
  facet normal 0.951049 0.30904 0
    outer loop
      vertex 1.93717 0.497379 0
      vertex 1.85955 0.736249 -6
      vertex 1.85955 0.736249 0
    endloop
  endfacet
  facet normal 0.951049 0.30904 0
    outer loop
      vertex 1.85955 0.736249 -6
      vertex 1.93717 0.497379 0
      vertex 1.93717 0.497379 -6
    endloop
  endfacet
  facet normal 0.77052 0.637415 0
    outer loop
      vertex 1.61803 1.17557 0
      vertex 1.45794 1.36909 -6
      vertex 1.45794 1.36909 0
    endloop
  endfacet
  facet normal 0.77052 0.637415 0
    outer loop
      vertex 1.45794 1.36909 -6
      vertex 1.61803 1.17557 0
      vertex 1.61803 1.17557 -6
    endloop
  endfacet
  facet normal 0.844327 0.535829 0
    outer loop
      vertex 1.75261 0.963507 0
      vertex 1.61803 1.17557 -6
      vertex 1.61803 1.17557 0
    endloop
  endfacet
  facet normal 0.844327 0.535829 0
    outer loop
      vertex 1.61803 1.17557 -6
      vertex 1.75261 0.963507 0
      vertex 1.75261 0.963507 -6
    endloop
  endfacet
  facet normal 0.248686 0.968584 -0
    outer loop
      vertex 0.618033 1.90211 -6
      vertex 0.374763 1.96457 0
      vertex 0.618033 1.90211 0
    endloop
  endfacet
  facet normal 0.248686 0.968584 0
    outer loop
      vertex 0.374763 1.96457 0
      vertex 0.618033 1.90211 -6
      vertex 0.374763 1.96457 -6
    endloop
  endfacet
  facet normal 0.125337 0.992114 -0
    outer loop
      vertex 0.374763 1.96457 -6
      vertex 0.125581 1.99605 0
      vertex 0.374763 1.96457 0
    endloop
  endfacet
  facet normal 0.125337 0.992114 0
    outer loop
      vertex 0.125581 1.99605 0
      vertex 0.374763 1.96457 -6
      vertex 0.125581 1.99605 -6
    endloop
  endfacet
  facet normal -0.982289 0.18737 0
    outer loop
      vertex -1.98423 0.250666 -6
      vertex -1.93717 0.497379 0
      vertex -1.93717 0.497379 -6
    endloop
  endfacet
  facet normal -0.982289 0.18737 0
    outer loop
      vertex -1.93717 0.497379 0
      vertex -1.98423 0.250666 -6
      vertex -1.98423 0.250666 0
    endloop
  endfacet
  facet normal 0 0 1
    outer loop
      vertex 1.8 0 0
      vertex 2 0 0
      vertex 1.98423 0.250666 0
    endloop
  endfacet
  facet normal 0 0 1
    outer loop
      vertex 1.78581 0.225599 0
      vertex 1.98423 0.250666 0
      vertex 1.93717 0.497379 0
    endloop
  endfacet
  facet normal 0 0 1
    outer loop
      vertex 2 0 0
      vertex 1.8 0 0
      vertex 1.98423 -0.250666 0
    endloop
  endfacet
  facet normal 0 0 1
    outer loop
      vertex 1.74345 0.447641 0
      vertex 1.93717 0.497379 0
      vertex 1.85955 0.736249 0
    endloop
  endfacet
  facet normal -0 0 1
    outer loop
      vertex 1.78581 -0.225599 0
      vertex 1.98423 -0.250666 0
      vertex 1.8 0 0
    endloop
  endfacet
  facet normal 0 0 1
    outer loop
      vertex 1.98423 -0.250666 0
      vertex 1.78581 -0.225599 0
      vertex 1.93717 -0.497379 0
    endloop
  endfacet
  facet normal 0 0 1
    outer loop
      vertex 1.98423 0.250666 0
      vertex 1.78581 0.225599 0
      vertex 1.8 0 0
    endloop
  endfacet
  facet normal 0 0 1
    outer loop
      vertex 1.6736 0.662623 0
      vertex 1.85955 0.736249 0
      vertex 1.75261 0.963507 0
    endloop
  endfacet
  facet normal 0 0 1
    outer loop
      vertex 1.93717 0.497379 0
      vertex 1.74345 0.447641 0
      vertex 1.78581 0.225599 0
    endloop
  endfacet
  facet normal 0 0 1
    outer loop
      vertex 1.85955 0.736249 0
      vertex 1.6736 0.662623 0
      vertex 1.74345 0.447641 0
    endloop
  endfacet
  facet normal 0 0 1
    outer loop
      vertex 1.57735 0.867156 0
      vertex 1.75261 0.963507 0
      vertex 1.61803 1.17557 0
    endloop
  endfacet
  facet normal 0 0 1
    outer loop
      vertex 1.75261 0.963507 0
      vertex 1.57735 0.867156 0
      vertex 1.6736 0.662623 0
    endloop
  endfacet
  facet normal 0 0 1
    outer loop
      vertex 1.45623 1.05801 0
      vertex 1.61803 1.17557 0
      vertex 1.45794 1.36909 0
    endloop
  endfacet
  facet normal 0 0 1
    outer loop
      vertex 1.61803 1.17557 0
      vertex 1.45623 1.05801 0
      vertex 1.57735 0.867156 0
    endloop
  endfacet
  facet normal 0 0 1
    outer loop
      vertex 1.45794 1.36909 0
      vertex 1.31214 1.23218 0
      vertex 1.45623 1.05801 0
    endloop
  endfacet
  facet normal 0 0 1
    outer loop
      vertex 1.27485 1.54103 0
      vertex 1.31214 1.23218 0
      vertex 1.45794 1.36909 0
    endloop
  endfacet
  facet normal 0 0 1
    outer loop
      vertex 1.27485 1.54103 0
      vertex 1.14736 1.38692 0
      vertex 1.31214 1.23218 0
    endloop
  endfacet
  facet normal 0 0 1
    outer loop
      vertex 1.07165 1.68865 0
      vertex 1.14736 1.38692 0
      vertex 1.27485 1.54103 0
    endloop
  endfacet
  facet normal 0 0 1
    outer loop
      vertex 1.07165 1.68865 0
      vertex 0.964488 1.51979 0
      vertex 1.14736 1.38692 0
    endloop
  endfacet
  facet normal 0 0 1
    outer loop
      vertex 0.851558 1.80965 0
      vertex 0.964488 1.51979 0
      vertex 1.07165 1.68865 0
    endloop
  endfacet
  facet normal 0 0 1
    outer loop
      vertex 0.851558 1.80965 0
      vertex 0.766402 1.62869 0
      vertex 0.964488 1.51979 0
    endloop
  endfacet
  facet normal 0 0 1
    outer loop
      vertex 0.618033 1.90211 0
      vertex 0.766402 1.62869 0
      vertex 0.851558 1.80965 0
    endloop
  endfacet
  facet normal 0 0 1
    outer loop
      vertex 0.618033 1.90211 0
      vertex 0.556231 1.7119 0
      vertex 0.766402 1.62869 0
    endloop
  endfacet
  facet normal 0 0 1
    outer loop
      vertex 0.374763 1.96457 0
      vertex 0.556231 1.7119 0
      vertex 0.618033 1.90211 0
    endloop
  endfacet
  facet normal 0 0 1
    outer loop
      vertex 0.374763 1.96457 0
      vertex 0.337286 1.76812 0
      vertex 0.556231 1.7119 0
    endloop
  endfacet
  facet normal 0 0 1
    outer loop
      vertex 0.125581 1.99605 0
      vertex 0.337286 1.76812 0
      vertex 0.374763 1.96457 0
    endloop
  endfacet
  facet normal 0 0 1
    outer loop
      vertex 0.125581 1.99605 0
      vertex 0.113023 1.79645 0
      vertex 0.337286 1.76812 0
    endloop
  endfacet
  facet normal 0 0 1
    outer loop
      vertex 0.125581 1.99605 0
      vertex -0.113023 1.79645 0
      vertex 0.113023 1.79645 0
    endloop
  endfacet
  facet normal -0 0 1
    outer loop
      vertex -0.125581 1.99605 0
      vertex -0.113023 1.79645 0
      vertex 0.125581 1.99605 0
    endloop
  endfacet
  facet normal 0 0 1
    outer loop
      vertex -0.125581 1.99605 0
      vertex -0.337286 1.76812 0
      vertex -0.113023 1.79645 0
    endloop
  endfacet
  facet normal -0 0 1
    outer loop
      vertex -0.374763 1.96457 0
      vertex -0.337286 1.76812 0
      vertex -0.125581 1.99605 0
    endloop
  endfacet
  facet normal 0 0 1
    outer loop
      vertex -0.374763 1.96457 0
      vertex -0.556231 1.7119 0
      vertex -0.337286 1.76812 0
    endloop
  endfacet
  facet normal -0 0 1
    outer loop
      vertex -0.618033 1.90211 0
      vertex -0.556231 1.7119 0
      vertex -0.374763 1.96457 0
    endloop
  endfacet
  facet normal 0 0 1
    outer loop
      vertex -0.618033 1.90211 0
      vertex -0.766402 1.62869 0
      vertex -0.556231 1.7119 0
    endloop
  endfacet
  facet normal -0 0 1
    outer loop
      vertex -0.851558 1.80965 0
      vertex -0.766402 1.62869 0
      vertex -0.618033 1.90211 0
    endloop
  endfacet
  facet normal 0 0 1
    outer loop
      vertex -0.851558 1.80965 0
      vertex -0.964488 1.51979 0
      vertex -0.766402 1.62869 0
    endloop
  endfacet
  facet normal -0 0 1
    outer loop
      vertex -1.07165 1.68865 0
      vertex -0.964488 1.51979 0
      vertex -0.851558 1.80965 0
    endloop
  endfacet
  facet normal 0 0 1
    outer loop
      vertex -1.07165 1.68865 0
      vertex -1.14736 1.38692 0
      vertex -0.964488 1.51979 0
    endloop
  endfacet
  facet normal -0 0 1
    outer loop
      vertex -1.27485 1.54103 0
      vertex -1.14736 1.38692 0
      vertex -1.07165 1.68865 0
    endloop
  endfacet
  facet normal 0 0 1
    outer loop
      vertex -1.27485 1.54103 0
      vertex -1.31214 1.23218 0
      vertex -1.14736 1.38692 0
    endloop
  endfacet
  facet normal -0 0 1
    outer loop
      vertex -1.45794 1.36909 0
      vertex -1.31214 1.23218 0
      vertex -1.27485 1.54103 0
    endloop
  endfacet
  facet normal 0 0 1
    outer loop
      vertex -1.31214 1.23218 0
      vertex -1.45794 1.36909 0
      vertex -1.45623 1.05801 0
    endloop
  endfacet
  facet normal -0 0 1
    outer loop
      vertex -1.61803 1.17557 0
      vertex -1.45623 1.05801 0
      vertex -1.45794 1.36909 0
    endloop
  endfacet
  facet normal 0 0 1
    outer loop
      vertex -1.45623 1.05801 0
      vertex -1.61803 1.17557 0
      vertex -1.57735 0.867156 0
    endloop
  endfacet
  facet normal -0 0 1
    outer loop
      vertex -1.75261 0.963507 0
      vertex -1.57735 0.867156 0
      vertex -1.61803 1.17557 0
    endloop
  endfacet
  facet normal 0 0 1
    outer loop
      vertex -1.57735 0.867156 0
      vertex -1.75261 0.963507 0
      vertex -1.6736 0.662623 0
    endloop
  endfacet
  facet normal -0 0 1
    outer loop
      vertex -1.85955 0.736249 0
      vertex -1.6736 0.662623 0
      vertex -1.75261 0.963507 0
    endloop
  endfacet
  facet normal 0 0 1
    outer loop
      vertex -1.6736 0.662623 0
      vertex -1.85955 0.736249 0
      vertex -1.74345 0.447641 0
    endloop
  endfacet
  facet normal -0 0 1
    outer loop
      vertex -1.93717 0.497379 0
      vertex -1.74345 0.447641 0
      vertex -1.85955 0.736249 0
    endloop
  endfacet
  facet normal 0 0 1
    outer loop
      vertex -1.74345 0.447641 0
      vertex -1.93717 0.497379 0
      vertex -1.78581 0.225599 0
    endloop
  endfacet
  facet normal -0 0 1
    outer loop
      vertex 1.74345 -0.447641 0
      vertex 1.93717 -0.497379 0
      vertex 1.78581 -0.225599 0
    endloop
  endfacet
  facet normal 0 0 1
    outer loop
      vertex 1.93717 -0.497379 0
      vertex 1.74345 -0.447641 0
      vertex 1.85955 -0.736249 0
    endloop
  endfacet
  facet normal -0 0 1
    outer loop
      vertex 1.6736 -0.662623 0
      vertex 1.85955 -0.736249 0
      vertex 1.74345 -0.447641 0
    endloop
  endfacet
  facet normal 0 0 1
    outer loop
      vertex 1.85955 -0.736249 0
      vertex 1.6736 -0.662623 0
      vertex 1.75261 -0.963507 0
    endloop
  endfacet
  facet normal -0 0 1
    outer loop
      vertex 1.57735 -0.867156 0
      vertex 1.75261 -0.963507 0
      vertex 1.6736 -0.662623 0
    endloop
  endfacet
  facet normal 0 0 1
    outer loop
      vertex 1.75261 -0.963507 0
      vertex 1.57735 -0.867156 0
      vertex 1.61803 -1.17557 0
    endloop
  endfacet
  facet normal -0 0 1
    outer loop
      vertex 1.45623 -1.05801 0
      vertex 1.61803 -1.17557 0
      vertex 1.57735 -0.867156 0
    endloop
  endfacet
  facet normal 0 0 1
    outer loop
      vertex 1.61803 -1.17557 0
      vertex 1.45623 -1.05801 0
      vertex 1.45794 -1.36909 0
    endloop
  endfacet
  facet normal -0 0 1
    outer loop
      vertex 1.31214 -1.23218 0
      vertex 1.45794 -1.36909 0
      vertex 1.45623 -1.05801 0
    endloop
  endfacet
  facet normal 0 0 1
    outer loop
      vertex 1.31214 -1.23218 0
      vertex 1.27485 -1.54103 0
      vertex 1.45794 -1.36909 0
    endloop
  endfacet
  facet normal -0 0 1
    outer loop
      vertex 1.14736 -1.38692 0
      vertex 1.27485 -1.54103 0
      vertex 1.31214 -1.23218 0
    endloop
  endfacet
  facet normal 0 0 1
    outer loop
      vertex 1.14736 -1.38692 0
      vertex 1.07165 -1.68865 0
      vertex 1.27485 -1.54103 0
    endloop
  endfacet
  facet normal -0 0 1
    outer loop
      vertex 0.964488 -1.51979 0
      vertex 1.07165 -1.68865 0
      vertex 1.14736 -1.38692 0
    endloop
  endfacet
  facet normal 0 0 1
    outer loop
      vertex 0.964488 -1.51979 0
      vertex 0.851558 -1.80965 0
      vertex 1.07165 -1.68865 0
    endloop
  endfacet
  facet normal -0 0 1
    outer loop
      vertex 0.766402 -1.62869 0
      vertex 0.851558 -1.80965 0
      vertex 0.964488 -1.51979 0
    endloop
  endfacet
  facet normal 0 0 1
    outer loop
      vertex 0.766402 -1.62869 0
      vertex 0.618033 -1.90211 0
      vertex 0.851558 -1.80965 0
    endloop
  endfacet
  facet normal -0 0 1
    outer loop
      vertex 0.556231 -1.7119 0
      vertex 0.618033 -1.90211 0
      vertex 0.766402 -1.62869 0
    endloop
  endfacet
  facet normal 0 0 1
    outer loop
      vertex 0.556231 -1.7119 0
      vertex 0.374763 -1.96457 0
      vertex 0.618033 -1.90211 0
    endloop
  endfacet
  facet normal -0 0 1
    outer loop
      vertex 0.337286 -1.76812 0
      vertex 0.374763 -1.96457 0
      vertex 0.556231 -1.7119 0
    endloop
  endfacet
  facet normal 0 0 1
    outer loop
      vertex 0.337286 -1.76812 0
      vertex 0.125581 -1.99605 0
      vertex 0.374763 -1.96457 0
    endloop
  endfacet
  facet normal -0 0 1
    outer loop
      vertex 0.113023 -1.79645 0
      vertex 0.125581 -1.99605 0
      vertex 0.337286 -1.76812 0
    endloop
  endfacet
  facet normal -0 0 1
    outer loop
      vertex -0.113023 -1.79645 0
      vertex 0.125581 -1.99605 0
      vertex 0.113023 -1.79645 0
    endloop
  endfacet
  facet normal 0 0 1
    outer loop
      vertex -0.113023 -1.79645 0
      vertex -0.125581 -1.99605 0
      vertex 0.125581 -1.99605 0
    endloop
  endfacet
  facet normal 0 0 1
    outer loop
      vertex -0.337286 -1.76812 0
      vertex -0.125581 -1.99605 0
      vertex -0.113023 -1.79645 0
    endloop
  endfacet
  facet normal 0 0 1
    outer loop
      vertex -0.337286 -1.76812 0
      vertex -0.374763 -1.96457 0
      vertex -0.125581 -1.99605 0
    endloop
  endfacet
  facet normal 0 0 1
    outer loop
      vertex -0.556231 -1.7119 0
      vertex -0.374763 -1.96457 0
      vertex -0.337286 -1.76812 0
    endloop
  endfacet
  facet normal 0 0 1
    outer loop
      vertex -0.556231 -1.7119 0
      vertex -0.618033 -1.90211 0
      vertex -0.374763 -1.96457 0
    endloop
  endfacet
  facet normal 0 0 1
    outer loop
      vertex -0.766402 -1.62869 0
      vertex -0.618033 -1.90211 0
      vertex -0.556231 -1.7119 0
    endloop
  endfacet
  facet normal 0 0 1
    outer loop
      vertex -0.766402 -1.62869 0
      vertex -0.851558 -1.80965 0
      vertex -0.618033 -1.90211 0
    endloop
  endfacet
  facet normal 0 0 1
    outer loop
      vertex -0.964488 -1.51979 0
      vertex -0.851558 -1.80965 0
      vertex -0.766402 -1.62869 0
    endloop
  endfacet
  facet normal 0 0 1
    outer loop
      vertex -0.964488 -1.51979 0
      vertex -1.07165 -1.68865 0
      vertex -0.851558 -1.80965 0
    endloop
  endfacet
  facet normal 0 0 1
    outer loop
      vertex -1.14736 -1.38692 0
      vertex -1.07165 -1.68865 0
      vertex -0.964488 -1.51979 0
    endloop
  endfacet
  facet normal 0 0 1
    outer loop
      vertex -1.14736 -1.38692 0
      vertex -1.27485 -1.54103 0
      vertex -1.07165 -1.68865 0
    endloop
  endfacet
  facet normal 0 0 1
    outer loop
      vertex -1.31214 -1.23218 0
      vertex -1.27485 -1.54103 0
      vertex -1.14736 -1.38692 0
    endloop
  endfacet
  facet normal 0 0 1
    outer loop
      vertex -1.45794 -1.36909 0
      vertex -1.31214 -1.23218 0
      vertex -1.45623 -1.05801 0
    endloop
  endfacet
  facet normal 0 0 1
    outer loop
      vertex -1.31214 -1.23218 0
      vertex -1.45794 -1.36909 0
      vertex -1.27485 -1.54103 0
    endloop
  endfacet
  facet normal 0 0 1
    outer loop
      vertex -1.61803 -1.17557 0
      vertex -1.45623 -1.05801 0
      vertex -1.57735 -0.867156 0
    endloop
  endfacet
  facet normal 0 0 1
    outer loop
      vertex -1.45623 -1.05801 0
      vertex -1.61803 -1.17557 0
      vertex -1.45794 -1.36909 0
    endloop
  endfacet
  facet normal 0 0 1
    outer loop
      vertex -1.75261 -0.963507 0
      vertex -1.57735 -0.867156 0
      vertex -1.6736 -0.662623 0
    endloop
  endfacet
  facet normal 0 0 1
    outer loop
      vertex -1.85955 -0.736249 0
      vertex -1.6736 -0.662623 0
      vertex -1.74345 -0.447641 0
    endloop
  endfacet
  facet normal 0 0 1
    outer loop
      vertex -1.57735 -0.867156 0
      vertex -1.75261 -0.963507 0
      vertex -1.61803 -1.17557 0
    endloop
  endfacet
  facet normal 0 0 1
    outer loop
      vertex -1.93717 -0.497379 0
      vertex -1.74345 -0.447641 0
      vertex -1.78581 -0.225599 0
    endloop
  endfacet
  facet normal 0 0 1
    outer loop
      vertex -1.98423 -0.250666 0
      vertex -1.78581 -0.225599 0
      vertex -1.8 0 0
    endloop
  endfacet
  facet normal -0 0 1
    outer loop
      vertex -1.98423 0.250666 0
      vertex -1.78581 0.225599 0
      vertex -1.93717 0.497379 0
    endloop
  endfacet
  facet normal 0 0 1
    outer loop
      vertex -1.6736 -0.662623 0
      vertex -1.85955 -0.736249 0
      vertex -1.75261 -0.963507 0
    endloop
  endfacet
  facet normal 0 0 1
    outer loop
      vertex -1.78581 0.225599 0
      vertex -1.98423 0.250666 0
      vertex -1.8 0 0
    endloop
  endfacet
  facet normal 0 0 1
    outer loop
      vertex -1.74345 -0.447641 0
      vertex -1.93717 -0.497379 0
      vertex -1.85955 -0.736249 0
    endloop
  endfacet
  facet normal 0 0 1
    outer loop
      vertex -2 0 0
      vertex -1.8 0 0
      vertex -1.98423 0.250666 0
    endloop
  endfacet
  facet normal 0 0 1
    outer loop
      vertex -1.78581 -0.225599 0
      vertex -1.98423 -0.250666 0
      vertex -1.93717 -0.497379 0
    endloop
  endfacet
  facet normal 0 0 1
    outer loop
      vertex -1.8 0 0
      vertex -2 0 0
      vertex -1.98423 -0.250666 0
    endloop
  endfacet
  facet normal -0.125337 0.992114 0
    outer loop
      vertex -0.125581 1.99605 -6
      vertex -0.374763 1.96457 0
      vertex -0.125581 1.99605 0
    endloop
  endfacet
  facet normal -0.125337 0.992114 0
    outer loop
      vertex -0.374763 1.96457 0
      vertex -0.125581 1.99605 -6
      vertex -0.374763 1.96457 -6
    endloop
  endfacet
  facet normal 0.998027 -0.0627883 0
    outer loop
      vertex 1.98423 -0.250666 0
      vertex 2 0 -6
      vertex 2 0 0
    endloop
  endfacet
  facet normal 0.998027 -0.0627883 0
    outer loop
      vertex 2 0 -6
      vertex 1.98423 -0.250666 0
      vertex 1.98423 -0.250666 -6
    endloop
  endfacet
  facet normal 0.982289 -0.18737 0
    outer loop
      vertex 1.93717 -0.497379 0
      vertex 1.98423 -0.250666 -6
      vertex 1.98423 -0.250666 0
    endloop
  endfacet
  facet normal 0.982289 -0.18737 0
    outer loop
      vertex 1.98423 -0.250666 -6
      vertex 1.93717 -0.497379 0
      vertex 1.93717 -0.497379 -6
    endloop
  endfacet
  facet normal -0.684562 -0.728955 0
    outer loop
      vertex -1.45794 -1.36909 -6
      vertex -1.27485 -1.54103 0
      vertex -1.45794 -1.36909 0
    endloop
  endfacet
  facet normal -0.684562 -0.728955 -0
    outer loop
      vertex -1.27485 -1.54103 0
      vertex -1.45794 -1.36909 -6
      vertex -1.27485 -1.54103 -6
    endloop
  endfacet
  facet normal -0.904826 -0.425781 0
    outer loop
      vertex -1.75261 -0.963507 -6
      vertex -1.85955 -0.736249 0
      vertex -1.85955 -0.736249 -6
    endloop
  endfacet
  facet normal -0.904826 -0.425781 0
    outer loop
      vertex -1.85955 -0.736249 0
      vertex -1.75261 -0.963507 -6
      vertex -1.75261 -0.963507 0
    endloop
  endfacet
  facet normal 0 0 -1
    outer loop
      vertex 1.8 0 -6
      vertex 2 0 -6
      vertex 1.98423 -0.250666 -6
    endloop
  endfacet
  facet normal 0 0 -1
    outer loop
      vertex 1.78581 -0.225599 -6
      vertex 1.98423 -0.250666 -6
      vertex 1.93717 -0.497379 -6
    endloop
  endfacet
  facet normal 0 0 -1
    outer loop
      vertex 2 0 -6
      vertex 1.8 0 -6
      vertex 1.98423 0.250666 -6
    endloop
  endfacet
  facet normal 0 0 -1
    outer loop
      vertex 1.74345 -0.447641 -6
      vertex 1.93717 -0.497379 -6
      vertex 1.85955 -0.736249 -6
    endloop
  endfacet
  facet normal 0 0 -1
    outer loop
      vertex 1.78581 0.225599 -6
      vertex 1.98423 0.250666 -6
      vertex 1.8 0 -6
    endloop
  endfacet
  facet normal -0 0 -1
    outer loop
      vertex 1.98423 0.250666 -6
      vertex 1.78581 0.225599 -6
      vertex 1.93717 0.497379 -6
    endloop
  endfacet
  facet normal 0 0 -1
    outer loop
      vertex 1.98423 -0.250666 -6
      vertex 1.78581 -0.225599 -6
      vertex 1.8 0 -6
    endloop
  endfacet
  facet normal 0 0 -1
    outer loop
      vertex 1.6736 -0.662623 -6
      vertex 1.85955 -0.736249 -6
      vertex 1.75261 -0.963507 -6
    endloop
  endfacet
  facet normal 0 0 -1
    outer loop
      vertex 1.93717 -0.497379 -6
      vertex 1.74345 -0.447641 -6
      vertex 1.78581 -0.225599 -6
    endloop
  endfacet
  facet normal 0 0 -1
    outer loop
      vertex 1.85955 -0.736249 -6
      vertex 1.6736 -0.662623 -6
      vertex 1.74345 -0.447641 -6
    endloop
  endfacet
  facet normal 0 0 -1
    outer loop
      vertex 1.57735 -0.867156 -6
      vertex 1.75261 -0.963507 -6
      vertex 1.61803 -1.17557 -6
    endloop
  endfacet
  facet normal 0 0 -1
    outer loop
      vertex 1.75261 -0.963507 -6
      vertex 1.57735 -0.867156 -6
      vertex 1.6736 -0.662623 -6
    endloop
  endfacet
  facet normal 0 0 -1
    outer loop
      vertex 1.45623 -1.05801 -6
      vertex 1.61803 -1.17557 -6
      vertex 1.45794 -1.36909 -6
    endloop
  endfacet
  facet normal 0 0 -1
    outer loop
      vertex 1.61803 -1.17557 -6
      vertex 1.45623 -1.05801 -6
      vertex 1.57735 -0.867156 -6
    endloop
  endfacet
  facet normal 0 0 -1
    outer loop
      vertex 1.45794 -1.36909 -6
      vertex 1.31214 -1.23218 -6
      vertex 1.45623 -1.05801 -6
    endloop
  endfacet
  facet normal 0 0 -1
    outer loop
      vertex 1.27485 -1.54103 -6
      vertex 1.31214 -1.23218 -6
      vertex 1.45794 -1.36909 -6
    endloop
  endfacet
  facet normal 0 0 -1
    outer loop
      vertex 1.27485 -1.54103 -6
      vertex 1.14736 -1.38692 -6
      vertex 1.31214 -1.23218 -6
    endloop
  endfacet
  facet normal 0 0 -1
    outer loop
      vertex 1.07165 -1.68865 -6
      vertex 1.14736 -1.38692 -6
      vertex 1.27485 -1.54103 -6
    endloop
  endfacet
  facet normal 0 0 -1
    outer loop
      vertex 1.07165 -1.68865 -6
      vertex 0.964488 -1.51979 -6
      vertex 1.14736 -1.38692 -6
    endloop
  endfacet
  facet normal 0 0 -1
    outer loop
      vertex 0.851558 -1.80965 -6
      vertex 0.964488 -1.51979 -6
      vertex 1.07165 -1.68865 -6
    endloop
  endfacet
  facet normal 0 0 -1
    outer loop
      vertex 0.851558 -1.80965 -6
      vertex 0.766402 -1.62869 -6
      vertex 0.964488 -1.51979 -6
    endloop
  endfacet
  facet normal 0 0 -1
    outer loop
      vertex 0.618033 -1.90211 -6
      vertex 0.766402 -1.62869 -6
      vertex 0.851558 -1.80965 -6
    endloop
  endfacet
  facet normal 0 0 -1
    outer loop
      vertex 0.618033 -1.90211 -6
      vertex 0.556231 -1.7119 -6
      vertex 0.766402 -1.62869 -6
    endloop
  endfacet
  facet normal 0 0 -1
    outer loop
      vertex 0.374763 -1.96457 -6
      vertex 0.556231 -1.7119 -6
      vertex 0.618033 -1.90211 -6
    endloop
  endfacet
  facet normal 0 0 -1
    outer loop
      vertex 0.374763 -1.96457 -6
      vertex 0.337286 -1.76812 -6
      vertex 0.556231 -1.7119 -6
    endloop
  endfacet
  facet normal 0 0 -1
    outer loop
      vertex 0.125581 -1.99605 -6
      vertex 0.337286 -1.76812 -6
      vertex 0.374763 -1.96457 -6
    endloop
  endfacet
  facet normal 0 0 -1
    outer loop
      vertex 0.125581 -1.99605 -6
      vertex 0.113023 -1.79645 -6
      vertex 0.337286 -1.76812 -6
    endloop
  endfacet
  facet normal 0 0 -1
    outer loop
      vertex 0.125581 -1.99605 -6
      vertex -0.113023 -1.79645 -6
      vertex 0.113023 -1.79645 -6
    endloop
  endfacet
  facet normal 0 0 -1
    outer loop
      vertex -0.125581 -1.99605 -6
      vertex -0.113023 -1.79645 -6
      vertex 0.125581 -1.99605 -6
    endloop
  endfacet
  facet normal 0 0 -1
    outer loop
      vertex -0.125581 -1.99605 -6
      vertex -0.337286 -1.76812 -6
      vertex -0.113023 -1.79645 -6
    endloop
  endfacet
  facet normal 0 0 -1
    outer loop
      vertex -0.374763 -1.96457 -6
      vertex -0.337286 -1.76812 -6
      vertex -0.125581 -1.99605 -6
    endloop
  endfacet
  facet normal 0 0 -1
    outer loop
      vertex -0.374763 -1.96457 -6
      vertex -0.556231 -1.7119 -6
      vertex -0.337286 -1.76812 -6
    endloop
  endfacet
  facet normal 0 0 -1
    outer loop
      vertex -0.618033 -1.90211 -6
      vertex -0.556231 -1.7119 -6
      vertex -0.374763 -1.96457 -6
    endloop
  endfacet
  facet normal 0 0 -1
    outer loop
      vertex -0.618033 -1.90211 -6
      vertex -0.766402 -1.62869 -6
      vertex -0.556231 -1.7119 -6
    endloop
  endfacet
  facet normal 0 0 -1
    outer loop
      vertex -0.851558 -1.80965 -6
      vertex -0.766402 -1.62869 -6
      vertex -0.618033 -1.90211 -6
    endloop
  endfacet
  facet normal 0 0 -1
    outer loop
      vertex -0.851558 -1.80965 -6
      vertex -0.964488 -1.51979 -6
      vertex -0.766402 -1.62869 -6
    endloop
  endfacet
  facet normal 0 0 -1
    outer loop
      vertex -1.07165 -1.68865 -6
      vertex -0.964488 -1.51979 -6
      vertex -0.851558 -1.80965 -6
    endloop
  endfacet
  facet normal 0 0 -1
    outer loop
      vertex -1.07165 -1.68865 -6
      vertex -1.14736 -1.38692 -6
      vertex -0.964488 -1.51979 -6
    endloop
  endfacet
  facet normal 0 0 -1
    outer loop
      vertex -1.27485 -1.54103 -6
      vertex -1.14736 -1.38692 -6
      vertex -1.07165 -1.68865 -6
    endloop
  endfacet
  facet normal 0 0 -1
    outer loop
      vertex -1.27485 -1.54103 -6
      vertex -1.31214 -1.23218 -6
      vertex -1.14736 -1.38692 -6
    endloop
  endfacet
  facet normal 0 0 -1
    outer loop
      vertex -1.45794 -1.36909 -6
      vertex -1.31214 -1.23218 -6
      vertex -1.27485 -1.54103 -6
    endloop
  endfacet
  facet normal -0 0 -1
    outer loop
      vertex -1.31214 -1.23218 -6
      vertex -1.45794 -1.36909 -6
      vertex -1.45623 -1.05801 -6
    endloop
  endfacet
  facet normal 0 0 -1
    outer loop
      vertex -1.61803 -1.17557 -6
      vertex -1.45623 -1.05801 -6
      vertex -1.45794 -1.36909 -6
    endloop
  endfacet
  facet normal -0 0 -1
    outer loop
      vertex -1.45623 -1.05801 -6
      vertex -1.61803 -1.17557 -6
      vertex -1.57735 -0.867156 -6
    endloop
  endfacet
  facet normal 0 0 -1
    outer loop
      vertex -1.75261 -0.963507 -6
      vertex -1.57735 -0.867156 -6
      vertex -1.61803 -1.17557 -6
    endloop
  endfacet
  facet normal -0 0 -1
    outer loop
      vertex -1.57735 -0.867156 -6
      vertex -1.75261 -0.963507 -6
      vertex -1.6736 -0.662623 -6
    endloop
  endfacet
  facet normal 0 0 -1
    outer loop
      vertex -1.85955 -0.736249 -6
      vertex -1.6736 -0.662623 -6
      vertex -1.75261 -0.963507 -6
    endloop
  endfacet
  facet normal -0 0 -1
    outer loop
      vertex -1.6736 -0.662623 -6
      vertex -1.85955 -0.736249 -6
      vertex -1.74345 -0.447641 -6
    endloop
  endfacet
  facet normal 0 0 -1
    outer loop
      vertex -1.93717 -0.497379 -6
      vertex -1.74345 -0.447641 -6
      vertex -1.85955 -0.736249 -6
    endloop
  endfacet
  facet normal -0 0 -1
    outer loop
      vertex -1.74345 -0.447641 -6
      vertex -1.93717 -0.497379 -6
      vertex -1.78581 -0.225599 -6
    endloop
  endfacet
  facet normal 0 0 -1
    outer loop
      vertex 1.74345 0.447641 -6
      vertex 1.93717 0.497379 -6
      vertex 1.78581 0.225599 -6
    endloop
  endfacet
  facet normal -0 0 -1
    outer loop
      vertex 1.93717 0.497379 -6
      vertex 1.74345 0.447641 -6
      vertex 1.85955 0.736249 -6
    endloop
  endfacet
  facet normal 0 0 -1
    outer loop
      vertex 1.6736 0.662623 -6
      vertex 1.85955 0.736249 -6
      vertex 1.74345 0.447641 -6
    endloop
  endfacet
  facet normal -0 0 -1
    outer loop
      vertex 1.85955 0.736249 -6
      vertex 1.6736 0.662623 -6
      vertex 1.75261 0.963507 -6
    endloop
  endfacet
  facet normal 0 0 -1
    outer loop
      vertex 1.57735 0.867156 -6
      vertex 1.75261 0.963507 -6
      vertex 1.6736 0.662623 -6
    endloop
  endfacet
  facet normal -0 0 -1
    outer loop
      vertex 1.75261 0.963507 -6
      vertex 1.57735 0.867156 -6
      vertex 1.61803 1.17557 -6
    endloop
  endfacet
  facet normal 0 0 -1
    outer loop
      vertex 1.45623 1.05801 -6
      vertex 1.61803 1.17557 -6
      vertex 1.57735 0.867156 -6
    endloop
  endfacet
  facet normal -0 0 -1
    outer loop
      vertex 1.61803 1.17557 -6
      vertex 1.45623 1.05801 -6
      vertex 1.45794 1.36909 -6
    endloop
  endfacet
  facet normal 0 0 -1
    outer loop
      vertex 1.31214 1.23218 -6
      vertex 1.45794 1.36909 -6
      vertex 1.45623 1.05801 -6
    endloop
  endfacet
  facet normal 0 0 -1
    outer loop
      vertex 1.31214 1.23218 -6
      vertex 1.27485 1.54103 -6
      vertex 1.45794 1.36909 -6
    endloop
  endfacet
  facet normal 0 0 -1
    outer loop
      vertex 1.14736 1.38692 -6
      vertex 1.27485 1.54103 -6
      vertex 1.31214 1.23218 -6
    endloop
  endfacet
  facet normal 0 0 -1
    outer loop
      vertex 1.14736 1.38692 -6
      vertex 1.07165 1.68865 -6
      vertex 1.27485 1.54103 -6
    endloop
  endfacet
  facet normal 0 0 -1
    outer loop
      vertex 0.964488 1.51979 -6
      vertex 1.07165 1.68865 -6
      vertex 1.14736 1.38692 -6
    endloop
  endfacet
  facet normal 0 0 -1
    outer loop
      vertex 0.964488 1.51979 -6
      vertex 0.851558 1.80965 -6
      vertex 1.07165 1.68865 -6
    endloop
  endfacet
  facet normal 0 0 -1
    outer loop
      vertex 0.766402 1.62869 -6
      vertex 0.851558 1.80965 -6
      vertex 0.964488 1.51979 -6
    endloop
  endfacet
  facet normal 0 0 -1
    outer loop
      vertex 0.766402 1.62869 -6
      vertex 0.618033 1.90211 -6
      vertex 0.851558 1.80965 -6
    endloop
  endfacet
  facet normal 0 0 -1
    outer loop
      vertex 0.556231 1.7119 -6
      vertex 0.618033 1.90211 -6
      vertex 0.766402 1.62869 -6
    endloop
  endfacet
  facet normal 0 0 -1
    outer loop
      vertex 0.556231 1.7119 -6
      vertex 0.374763 1.96457 -6
      vertex 0.618033 1.90211 -6
    endloop
  endfacet
  facet normal 0 0 -1
    outer loop
      vertex 0.337286 1.76812 -6
      vertex 0.374763 1.96457 -6
      vertex 0.556231 1.7119 -6
    endloop
  endfacet
  facet normal 0 0 -1
    outer loop
      vertex 0.337286 1.76812 -6
      vertex 0.125581 1.99605 -6
      vertex 0.374763 1.96457 -6
    endloop
  endfacet
  facet normal 0 0 -1
    outer loop
      vertex 0.113023 1.79645 -6
      vertex 0.125581 1.99605 -6
      vertex 0.337286 1.76812 -6
    endloop
  endfacet
  facet normal 0 0 -1
    outer loop
      vertex -0.113023 1.79645 -6
      vertex 0.125581 1.99605 -6
      vertex 0.113023 1.79645 -6
    endloop
  endfacet
  facet normal 0 0 -1
    outer loop
      vertex -0.113023 1.79645 -6
      vertex -0.125581 1.99605 -6
      vertex 0.125581 1.99605 -6
    endloop
  endfacet
  facet normal 0 0 -1
    outer loop
      vertex -0.337286 1.76812 -6
      vertex -0.125581 1.99605 -6
      vertex -0.113023 1.79645 -6
    endloop
  endfacet
  facet normal 0 0 -1
    outer loop
      vertex -0.337286 1.76812 -6
      vertex -0.374763 1.96457 -6
      vertex -0.125581 1.99605 -6
    endloop
  endfacet
  facet normal 0 0 -1
    outer loop
      vertex -0.556231 1.7119 -6
      vertex -0.374763 1.96457 -6
      vertex -0.337286 1.76812 -6
    endloop
  endfacet
  facet normal 0 0 -1
    outer loop
      vertex -0.556231 1.7119 -6
      vertex -0.618033 1.90211 -6
      vertex -0.374763 1.96457 -6
    endloop
  endfacet
  facet normal 0 0 -1
    outer loop
      vertex -0.766402 1.62869 -6
      vertex -0.618033 1.90211 -6
      vertex -0.556231 1.7119 -6
    endloop
  endfacet
  facet normal 0 0 -1
    outer loop
      vertex -0.766402 1.62869 -6
      vertex -0.851558 1.80965 -6
      vertex -0.618033 1.90211 -6
    endloop
  endfacet
  facet normal 0 0 -1
    outer loop
      vertex -0.964488 1.51979 -6
      vertex -0.851558 1.80965 -6
      vertex -0.766402 1.62869 -6
    endloop
  endfacet
  facet normal 0 0 -1
    outer loop
      vertex -0.964488 1.51979 -6
      vertex -1.07165 1.68865 -6
      vertex -0.851558 1.80965 -6
    endloop
  endfacet
  facet normal 0 0 -1
    outer loop
      vertex -1.14736 1.38692 -6
      vertex -1.07165 1.68865 -6
      vertex -0.964488 1.51979 -6
    endloop
  endfacet
  facet normal 0 0 -1
    outer loop
      vertex -1.14736 1.38692 -6
      vertex -1.27485 1.54103 -6
      vertex -1.07165 1.68865 -6
    endloop
  endfacet
  facet normal 0 0 -1
    outer loop
      vertex -1.31214 1.23218 -6
      vertex -1.27485 1.54103 -6
      vertex -1.14736 1.38692 -6
    endloop
  endfacet
  facet normal 0 0 -1
    outer loop
      vertex -1.45794 1.36909 -6
      vertex -1.31214 1.23218 -6
      vertex -1.45623 1.05801 -6
    endloop
  endfacet
  facet normal 0 0 -1
    outer loop
      vertex -1.31214 1.23218 -6
      vertex -1.45794 1.36909 -6
      vertex -1.27485 1.54103 -6
    endloop
  endfacet
  facet normal 0 0 -1
    outer loop
      vertex -1.61803 1.17557 -6
      vertex -1.45623 1.05801 -6
      vertex -1.57735 0.867156 -6
    endloop
  endfacet
  facet normal 0 0 -1
    outer loop
      vertex -1.45623 1.05801 -6
      vertex -1.61803 1.17557 -6
      vertex -1.45794 1.36909 -6
    endloop
  endfacet
  facet normal 0 0 -1
    outer loop
      vertex -1.75261 0.963507 -6
      vertex -1.57735 0.867156 -6
      vertex -1.6736 0.662623 -6
    endloop
  endfacet
  facet normal 0 0 -1
    outer loop
      vertex -1.85955 0.736249 -6
      vertex -1.6736 0.662623 -6
      vertex -1.74345 0.447641 -6
    endloop
  endfacet
  facet normal 0 0 -1
    outer loop
      vertex -1.57735 0.867156 -6
      vertex -1.75261 0.963507 -6
      vertex -1.61803 1.17557 -6
    endloop
  endfacet
  facet normal 0 0 -1
    outer loop
      vertex -1.93717 0.497379 -6
      vertex -1.74345 0.447641 -6
      vertex -1.78581 0.225599 -6
    endloop
  endfacet
  facet normal 0 0 -1
    outer loop
      vertex -1.98423 0.250666 -6
      vertex -1.78581 0.225599 -6
      vertex -1.8 0 -6
    endloop
  endfacet
  facet normal 0 0 -1
    outer loop
      vertex -1.98423 -0.250666 -6
      vertex -1.78581 -0.225599 -6
      vertex -1.93717 -0.497379 -6
    endloop
  endfacet
  facet normal 0 0 -1
    outer loop
      vertex -1.6736 0.662623 -6
      vertex -1.85955 0.736249 -6
      vertex -1.75261 0.963507 -6
    endloop
  endfacet
  facet normal -0 0 -1
    outer loop
      vertex -1.78581 -0.225599 -6
      vertex -1.98423 -0.250666 -6
      vertex -1.8 0 -6
    endloop
  endfacet
  facet normal 0 0 -1
    outer loop
      vertex -1.74345 0.447641 -6
      vertex -1.93717 0.497379 -6
      vertex -1.85955 0.736249 -6
    endloop
  endfacet
  facet normal 0 0 -1
    outer loop
      vertex -2 0 -6
      vertex -1.8 0 -6
      vertex -1.98423 -0.250666 -6
    endloop
  endfacet
  facet normal 0 0 -1
    outer loop
      vertex -1.78581 0.225599 -6
      vertex -1.98423 0.250666 -6
      vertex -1.93717 0.497379 -6
    endloop
  endfacet
  facet normal 0 0 -1
    outer loop
      vertex -1.8 0 -6
      vertex -2 0 -6
      vertex -1.98423 0.250666 -6
    endloop
  endfacet
  facet normal 0.481764 -0.876301 0
    outer loop
      vertex 0.851558 -1.80965 -6
      vertex 1.07165 -1.68865 0
      vertex 0.851558 -1.80965 0
    endloop
  endfacet
  facet normal 0.481764 -0.876301 0
    outer loop
      vertex 1.07165 -1.68865 0
      vertex 0.851558 -1.80965 -6
      vertex 1.07165 -1.68865 -6
    endloop
  endfacet
  facet normal 0.368128 -0.929775 0
    outer loop
      vertex 0.618033 -1.90211 -6
      vertex 0.851558 -1.80965 0
      vertex 0.618033 -1.90211 0
    endloop
  endfacet
  facet normal 0.368128 -0.929775 0
    outer loop
      vertex 0.851558 -1.80965 0
      vertex 0.618033 -1.90211 -6
      vertex 0.851558 -1.80965 -6
    endloop
  endfacet
  facet normal 0.481764 0.876301 -0
    outer loop
      vertex 1.07165 1.68865 -6
      vertex 0.851558 1.80965 0
      vertex 1.07165 1.68865 0
    endloop
  endfacet
  facet normal 0.481764 0.876301 0
    outer loop
      vertex 0.851558 1.80965 0
      vertex 1.07165 1.68865 -6
      vertex 0.851558 1.80965 -6
    endloop
  endfacet
  facet normal -0.77052 0.637415 0
    outer loop
      vertex -1.61803 1.17557 -6
      vertex -1.45794 1.36909 0
      vertex -1.45794 1.36909 -6
    endloop
  endfacet
  facet normal -0.77052 0.637415 0
    outer loop
      vertex -1.45794 1.36909 0
      vertex -1.61803 1.17557 -6
      vertex -1.61803 1.17557 0
    endloop
  endfacet
  facet normal -0.58775 0.809042 0
    outer loop
      vertex -1.07165 1.68865 -6
      vertex -1.27485 1.54103 0
      vertex -1.07165 1.68865 0
    endloop
  endfacet
  facet normal -0.58775 0.809042 0
    outer loop
      vertex -1.27485 1.54103 0
      vertex -1.07165 1.68865 -6
      vertex -1.27485 1.54103 -6
    endloop
  endfacet
  facet normal 0.904826 -0.425781 0
    outer loop
      vertex 1.75261 -0.963507 0
      vertex 1.85955 -0.736249 -6
      vertex 1.85955 -0.736249 0
    endloop
  endfacet
  facet normal 0.904826 -0.425781 0
    outer loop
      vertex 1.85955 -0.736249 -6
      vertex 1.75261 -0.963507 0
      vertex 1.75261 -0.963507 -6
    endloop
  endfacet
  facet normal -0.951049 -0.30904 0
    outer loop
      vertex -1.85955 -0.736249 -6
      vertex -1.93717 -0.497379 0
      vertex -1.93717 -0.497379 -6
    endloop
  endfacet
  facet normal -0.951049 -0.30904 0
    outer loop
      vertex -1.93717 -0.497379 0
      vertex -1.85955 -0.736249 -6
      vertex -1.85955 -0.736249 0
    endloop
  endfacet
  facet normal 0.58775 -0.809042 0
    outer loop
      vertex 1.07165 -1.68865 -6
      vertex 1.27485 -1.54103 0
      vertex 1.07165 -1.68865 0
    endloop
  endfacet
  facet normal 0.58775 -0.809042 0
    outer loop
      vertex 1.27485 -1.54103 0
      vertex 1.07165 -1.68865 -6
      vertex 1.27485 -1.54103 -6
    endloop
  endfacet
  facet normal 0.248686 -0.968584 0
    outer loop
      vertex 0.374763 -1.96457 -6
      vertex 0.618033 -1.90211 0
      vertex 0.374763 -1.96457 0
    endloop
  endfacet
  facet normal 0.248686 -0.968584 0
    outer loop
      vertex 0.618033 -1.90211 0
      vertex 0.374763 -1.96457 -6
      vertex 0.618033 -1.90211 -6
    endloop
  endfacet
  facet normal 0.844327 -0.535829 0
    outer loop
      vertex 1.61803 -1.17557 0
      vertex 1.75261 -0.963507 -6
      vertex 1.75261 -0.963507 0
    endloop
  endfacet
  facet normal 0.844327 -0.535829 0
    outer loop
      vertex 1.75261 -0.963507 -6
      vertex 1.61803 -1.17557 0
      vertex 1.61803 -1.17557 -6
    endloop
  endfacet
  facet normal 0.77052 -0.637415 0
    outer loop
      vertex 1.45794 -1.36909 0
      vertex 1.61803 -1.17557 -6
      vertex 1.61803 -1.17557 0
    endloop
  endfacet
  facet normal 0.77052 -0.637415 0
    outer loop
      vertex 1.61803 -1.17557 -6
      vertex 1.45794 -1.36909 0
      vertex 1.45794 -1.36909 -6
    endloop
  endfacet
  facet normal 0.951049 -0.30904 0
    outer loop
      vertex 1.85955 -0.736249 0
      vertex 1.93717 -0.497379 -6
      vertex 1.93717 -0.497379 0
    endloop
  endfacet
  facet normal 0.951049 -0.30904 0
    outer loop
      vertex 1.93717 -0.497379 -6
      vertex 1.85955 -0.736249 0
      vertex 1.85955 -0.736249 -6
    endloop
  endfacet
  facet normal -0.125337 -0.992114 0
    outer loop
      vertex -0.374763 -1.96457 -6
      vertex -0.125581 -1.99605 0
      vertex -0.374763 -1.96457 0
    endloop
  endfacet
  facet normal -0.125337 -0.992114 -0
    outer loop
      vertex -0.125581 -1.99605 0
      vertex -0.374763 -1.96457 -6
      vertex -0.125581 -1.99605 -6
    endloop
  endfacet
  facet normal -0.248686 -0.968584 0
    outer loop
      vertex -0.618033 -1.90211 -6
      vertex -0.374763 -1.96457 0
      vertex -0.618033 -1.90211 0
    endloop
  endfacet
  facet normal -0.248686 -0.968584 -0
    outer loop
      vertex -0.374763 -1.96457 0
      vertex -0.618033 -1.90211 -6
      vertex -0.374763 -1.96457 -6
    endloop
  endfacet
  facet normal -0.77052 -0.637415 0
    outer loop
      vertex -1.45794 -1.36909 -6
      vertex -1.61803 -1.17557 0
      vertex -1.61803 -1.17557 -6
    endloop
  endfacet
  facet normal -0.77052 -0.637415 0
    outer loop
      vertex -1.61803 -1.17557 0
      vertex -1.45794 -1.36909 -6
      vertex -1.45794 -1.36909 0
    endloop
  endfacet
  facet normal -0.844327 -0.535829 0
    outer loop
      vertex -1.61803 -1.17557 -6
      vertex -1.75261 -0.963507 0
      vertex -1.75261 -0.963507 -6
    endloop
  endfacet
  facet normal -0.844327 -0.535829 0
    outer loop
      vertex -1.75261 -0.963507 0
      vertex -1.61803 -1.17557 -6
      vertex -1.61803 -1.17557 0
    endloop
  endfacet
  facet normal -0.982289 -0.18737 0
    outer loop
      vertex -1.93717 -0.497379 -6
      vertex -1.98423 -0.250666 0
      vertex -1.98423 -0.250666 -6
    endloop
  endfacet
  facet normal -0.982289 -0.18737 0
    outer loop
      vertex -1.98423 -0.250666 0
      vertex -1.93717 -0.497379 -6
      vertex -1.93717 -0.497379 0
    endloop
  endfacet
  facet normal -0.998027 -0.0627883 0
    outer loop
      vertex -1.98423 -0.250666 -6
      vertex -2 0 0
      vertex -2 0 -6
    endloop
  endfacet
  facet normal -0.998027 -0.0627883 0
    outer loop
      vertex -2 0 0
      vertex -1.98423 -0.250666 -6
      vertex -1.98423 -0.250666 0
    endloop
  endfacet
  facet normal -0.481764 -0.876301 0
    outer loop
      vertex -1.07165 -1.68865 -6
      vertex -0.851558 -1.80965 0
      vertex -1.07165 -1.68865 0
    endloop
  endfacet
  facet normal -0.481764 -0.876301 -0
    outer loop
      vertex -0.851558 -1.80965 0
      vertex -1.07165 -1.68865 -6
      vertex -0.851558 -1.80965 -6
    endloop
  endfacet
  facet normal -0.58775 -0.809042 0
    outer loop
      vertex -1.27485 -1.54103 -6
      vertex -1.07165 -1.68865 0
      vertex -1.27485 -1.54103 0
    endloop
  endfacet
  facet normal -0.58775 -0.809042 -0
    outer loop
      vertex -1.07165 -1.68865 0
      vertex -1.27485 -1.54103 -6
      vertex -1.07165 -1.68865 -6
    endloop
  endfacet
  facet normal -0.368128 -0.929775 0
    outer loop
      vertex -0.851558 -1.80965 -6
      vertex -0.618033 -1.90211 0
      vertex -0.851558 -1.80965 0
    endloop
  endfacet
  facet normal -0.368128 -0.929775 -0
    outer loop
      vertex -0.618033 -1.90211 0
      vertex -0.851558 -1.80965 -6
      vertex -0.618033 -1.90211 -6
    endloop
  endfacet
  facet normal -0.998028 -0.0627752 0
    outer loop
      vertex 1.8 0 -6
      vertex 1.78581 0.225599 0
      vertex 1.78581 0.225599 -6
    endloop
  endfacet
  facet normal -0.998028 -0.0627752 0
    outer loop
      vertex 1.78581 0.225599 0
      vertex 1.8 0 -6
      vertex 1.8 0 0
    endloop
  endfacet
  facet normal 0.998028 -0.0627752 0
    outer loop
      vertex -1.8 0 0
      vertex -1.78581 0.225599 -6
      vertex -1.78581 0.225599 0
    endloop
  endfacet
  facet normal 0.998028 -0.0627752 0
    outer loop
      vertex -1.78581 0.225599 -6
      vertex -1.8 0 0
      vertex -1.8 0 -6
    endloop
  endfacet
  facet normal 0 -1 0
    outer loop
      vertex -0.113023 1.79645 -6
      vertex 0.113023 1.79645 0
      vertex -0.113023 1.79645 0
    endloop
  endfacet
  facet normal 0 -1 -0
    outer loop
      vertex 0.113023 1.79645 0
      vertex -0.113023 1.79645 -6
      vertex 0.113023 1.79645 -6
    endloop
  endfacet
  facet normal 0 1 -0
    outer loop
      vertex 0.113023 -1.79645 -6
      vertex -0.113023 -1.79645 0
      vertex 0.113023 -1.79645 0
    endloop
  endfacet
  facet normal 0 1 0
    outer loop
      vertex -0.113023 -1.79645 0
      vertex 0.113023 -1.79645 -6
      vertex -0.113023 -1.79645 -6
    endloop
  endfacet
  facet normal -0.68455 -0.728966 0
    outer loop
      vertex 1.14736 1.38692 -6
      vertex 1.31214 1.23218 0
      vertex 1.14736 1.38692 0
    endloop
  endfacet
  facet normal -0.68455 -0.728966 -0
    outer loop
      vertex 1.31214 1.23218 0
      vertex 1.14736 1.38692 -6
      vertex 1.31214 1.23218 -6
    endloop
  endfacet
  facet normal 0.68455 -0.728966 0
    outer loop
      vertex -1.31214 1.23218 -6
      vertex -1.14736 1.38692 0
      vertex -1.31214 1.23218 0
    endloop
  endfacet
  facet normal 0.68455 -0.728966 0
    outer loop
      vertex -1.14736 1.38692 0
      vertex -1.31214 1.23218 -6
      vertex -1.14736 1.38692 -6
    endloop
  endfacet
  facet normal 0.368115 -0.92978 0
    outer loop
      vertex -0.766402 1.62869 -6
      vertex -0.556231 1.7119 0
      vertex -0.766402 1.62869 0
    endloop
  endfacet
  facet normal 0.368115 -0.92978 0
    outer loop
      vertex -0.556231 1.7119 0
      vertex -0.766402 1.62869 -6
      vertex -0.556231 1.7119 -6
    endloop
  endfacet
  facet normal -0.90482 -0.425794 0
    outer loop
      vertex 1.6736 0.662623 -6
      vertex 1.57735 0.867156 0
      vertex 1.57735 0.867156 -6
    endloop
  endfacet
  facet normal -0.90482 -0.425794 0
    outer loop
      vertex 1.57735 0.867156 0
      vertex 1.6736 0.662623 -6
      vertex 1.6736 0.662623 0
    endloop
  endfacet
  facet normal -0.982285 -0.187395 0
    outer loop
      vertex 1.78581 0.225599 -6
      vertex 1.74345 0.447641 0
      vertex 1.74345 0.447641 -6
    endloop
  endfacet
  facet normal -0.982285 -0.187395 0
    outer loop
      vertex 1.74345 0.447641 0
      vertex 1.78581 0.225599 -6
      vertex 1.78581 0.225599 0
    endloop
  endfacet
  facet normal -0.368115 -0.92978 0
    outer loop
      vertex 0.556231 1.7119 -6
      vertex 0.766402 1.62869 0
      vertex 0.556231 1.7119 0
    endloop
  endfacet
  facet normal -0.368115 -0.92978 -0
    outer loop
      vertex 0.766402 1.62869 0
      vertex 0.556231 1.7119 -6
      vertex 0.766402 1.62869 -6
    endloop
  endfacet
  facet normal -0.248708 -0.968578 0
    outer loop
      vertex 0.337286 1.76812 -6
      vertex 0.556231 1.7119 0
      vertex 0.337286 1.76812 0
    endloop
  endfacet
  facet normal -0.248708 -0.968578 -0
    outer loop
      vertex 0.556231 1.7119 0
      vertex 0.337286 1.76812 -6
      vertex 0.556231 1.7119 -6
    endloop
  endfacet
  facet normal -0.587802 -0.809005 0
    outer loop
      vertex 0.964488 1.51979 -6
      vertex 1.14736 1.38692 0
      vertex 0.964488 1.51979 0
    endloop
  endfacet
  facet normal -0.587802 -0.809005 -0
    outer loop
      vertex 1.14736 1.38692 0
      vertex 0.964488 1.51979 -6
      vertex 1.14736 1.38692 -6
    endloop
  endfacet
  facet normal 0.90482 -0.425794 0
    outer loop
      vertex -1.6736 0.662623 0
      vertex -1.57735 0.867156 -6
      vertex -1.57735 0.867156 0
    endloop
  endfacet
  facet normal 0.90482 -0.425794 0
    outer loop
      vertex -1.57735 0.867156 -6
      vertex -1.6736 0.662623 0
      vertex -1.6736 0.662623 -6
    endloop
  endfacet
  facet normal 0.951059 -0.309009 0
    outer loop
      vertex -1.74345 0.447641 0
      vertex -1.6736 0.662623 -6
      vertex -1.6736 0.662623 0
    endloop
  endfacet
  facet normal 0.951059 -0.309009 0
    outer loop
      vertex -1.6736 0.662623 -6
      vertex -1.74345 0.447641 0
      vertex -1.74345 0.447641 -6
    endloop
  endfacet
  facet normal 0.248708 -0.968578 0
    outer loop
      vertex -0.556231 1.7119 -6
      vertex -0.337286 1.76812 0
      vertex -0.556231 1.7119 0
    endloop
  endfacet
  facet normal 0.248708 -0.968578 0
    outer loop
      vertex -0.337286 1.76812 0
      vertex -0.556231 1.7119 -6
      vertex -0.337286 1.76812 -6
    endloop
  endfacet
  facet normal -0.125329 0.992115 0
    outer loop
      vertex 0.337286 -1.76812 -6
      vertex 0.113023 -1.79645 0
      vertex 0.337286 -1.76812 0
    endloop
  endfacet
  facet normal -0.125329 0.992115 0
    outer loop
      vertex 0.113023 -1.79645 0
      vertex 0.337286 -1.76812 -6
      vertex 0.113023 -1.79645 -6
    endloop
  endfacet
  facet normal -0.951059 -0.309009 0
    outer loop
      vertex 1.74345 0.447641 -6
      vertex 1.6736 0.662623 0
      vertex 1.6736 0.662623 -6
    endloop
  endfacet
  facet normal -0.951059 -0.309009 0
    outer loop
      vertex 1.6736 0.662623 0
      vertex 1.74345 0.447641 -6
      vertex 1.74345 0.447641 0
    endloop
  endfacet
  facet normal -0.770504 -0.637435 0
    outer loop
      vertex 1.45623 1.05801 -6
      vertex 1.31214 1.23218 0
      vertex 1.31214 1.23218 -6
    endloop
  endfacet
  facet normal -0.770504 -0.637435 0
    outer loop
      vertex 1.31214 1.23218 0
      vertex 1.45623 1.05801 -6
      vertex 1.45623 1.05801 0
    endloop
  endfacet
  facet normal -0.844327 -0.535828 0
    outer loop
      vertex 1.57735 0.867156 -6
      vertex 1.45623 1.05801 0
      vertex 1.45623 1.05801 -6
    endloop
  endfacet
  facet normal -0.844327 -0.535828 0
    outer loop
      vertex 1.45623 1.05801 0
      vertex 1.57735 0.867156 -6
      vertex 1.57735 0.867156 0
    endloop
  endfacet
  facet normal -0.125329 -0.992115 0
    outer loop
      vertex 0.113023 1.79645 -6
      vertex 0.337286 1.76812 0
      vertex 0.113023 1.79645 0
    endloop
  endfacet
  facet normal -0.125329 -0.992115 -0
    outer loop
      vertex 0.337286 1.76812 0
      vertex 0.113023 1.79645 -6
      vertex 0.337286 1.76812 -6
    endloop
  endfacet
  facet normal -0.481758 -0.876304 0
    outer loop
      vertex 0.766402 1.62869 -6
      vertex 0.964488 1.51979 0
      vertex 0.766402 1.62869 0
    endloop
  endfacet
  facet normal -0.481758 -0.876304 -0
    outer loop
      vertex 0.964488 1.51979 0
      vertex 0.766402 1.62869 -6
      vertex 0.964488 1.51979 -6
    endloop
  endfacet
  facet normal 0.844327 -0.535828 0
    outer loop
      vertex -1.57735 0.867156 0
      vertex -1.45623 1.05801 -6
      vertex -1.45623 1.05801 0
    endloop
  endfacet
  facet normal 0.844327 -0.535828 0
    outer loop
      vertex -1.45623 1.05801 -6
      vertex -1.57735 0.867156 0
      vertex -1.57735 0.867156 -6
    endloop
  endfacet
  facet normal 0.770504 -0.637435 0
    outer loop
      vertex -1.45623 1.05801 0
      vertex -1.31214 1.23218 -6
      vertex -1.31214 1.23218 0
    endloop
  endfacet
  facet normal 0.770504 -0.637435 0
    outer loop
      vertex -1.31214 1.23218 -6
      vertex -1.45623 1.05801 0
      vertex -1.45623 1.05801 -6
    endloop
  endfacet
  facet normal 0.982285 -0.187395 0
    outer loop
      vertex -1.78581 0.225599 0
      vertex -1.74345 0.447641 -6
      vertex -1.74345 0.447641 0
    endloop
  endfacet
  facet normal 0.982285 -0.187395 0
    outer loop
      vertex -1.74345 0.447641 -6
      vertex -1.78581 0.225599 0
      vertex -1.78581 0.225599 -6
    endloop
  endfacet
  facet normal 0.481758 -0.876304 0
    outer loop
      vertex -0.964488 1.51979 -6
      vertex -0.766402 1.62869 0
      vertex -0.964488 1.51979 0
    endloop
  endfacet
  facet normal 0.481758 -0.876304 0
    outer loop
      vertex -0.766402 1.62869 0
      vertex -0.964488 1.51979 -6
      vertex -0.766402 1.62869 -6
    endloop
  endfacet
  facet normal 0.587802 -0.809005 0
    outer loop
      vertex -1.14736 1.38692 -6
      vertex -0.964488 1.51979 0
      vertex -1.14736 1.38692 0
    endloop
  endfacet
  facet normal 0.587802 -0.809005 0
    outer loop
      vertex -0.964488 1.51979 0
      vertex -1.14736 1.38692 -6
      vertex -0.964488 1.51979 -6
    endloop
  endfacet
  facet normal 0.125329 -0.992115 0
    outer loop
      vertex -0.337286 1.76812 -6
      vertex -0.113023 1.79645 0
      vertex -0.337286 1.76812 0
    endloop
  endfacet
  facet normal 0.125329 -0.992115 0
    outer loop
      vertex -0.113023 1.79645 0
      vertex -0.337286 1.76812 -6
      vertex -0.113023 1.79645 -6
    endloop
  endfacet
  facet normal -0.481758 0.876304 0
    outer loop
      vertex 0.964488 -1.51979 -6
      vertex 0.766402 -1.62869 0
      vertex 0.964488 -1.51979 0
    endloop
  endfacet
  facet normal -0.481758 0.876304 0
    outer loop
      vertex 0.766402 -1.62869 0
      vertex 0.964488 -1.51979 -6
      vertex 0.766402 -1.62869 -6
    endloop
  endfacet
  facet normal -0.68455 0.728966 0
    outer loop
      vertex 1.31214 -1.23218 -6
      vertex 1.14736 -1.38692 0
      vertex 1.31214 -1.23218 0
    endloop
  endfacet
  facet normal -0.68455 0.728966 0
    outer loop
      vertex 1.14736 -1.38692 0
      vertex 1.31214 -1.23218 -6
      vertex 1.14736 -1.38692 -6
    endloop
  endfacet
  facet normal -0.982285 0.187395 0
    outer loop
      vertex 1.74345 -0.447641 -6
      vertex 1.78581 -0.225599 0
      vertex 1.78581 -0.225599 -6
    endloop
  endfacet
  facet normal -0.982285 0.187395 0
    outer loop
      vertex 1.78581 -0.225599 0
      vertex 1.74345 -0.447641 -6
      vertex 1.74345 -0.447641 0
    endloop
  endfacet
  facet normal 0.90482 0.425794 0
    outer loop
      vertex -1.57735 -0.867156 0
      vertex -1.6736 -0.662623 -6
      vertex -1.6736 -0.662623 0
    endloop
  endfacet
  facet normal 0.90482 0.425794 0
    outer loop
      vertex -1.6736 -0.662623 -6
      vertex -1.57735 -0.867156 0
      vertex -1.57735 -0.867156 -6
    endloop
  endfacet
  facet normal -0.90482 0.425794 0
    outer loop
      vertex 1.57735 -0.867156 -6
      vertex 1.6736 -0.662623 0
      vertex 1.6736 -0.662623 -6
    endloop
  endfacet
  facet normal -0.90482 0.425794 0
    outer loop
      vertex 1.6736 -0.662623 0
      vertex 1.57735 -0.867156 -6
      vertex 1.57735 -0.867156 0
    endloop
  endfacet
  facet normal -0.770504 0.637435 0
    outer loop
      vertex 1.31214 -1.23218 -6
      vertex 1.45623 -1.05801 0
      vertex 1.45623 -1.05801 -6
    endloop
  endfacet
  facet normal -0.770504 0.637435 0
    outer loop
      vertex 1.45623 -1.05801 0
      vertex 1.31214 -1.23218 -6
      vertex 1.31214 -1.23218 0
    endloop
  endfacet
  facet normal -0.998028 0.0627752 0
    outer loop
      vertex 1.78581 -0.225599 -6
      vertex 1.8 0 0
      vertex 1.8 0 -6
    endloop
  endfacet
  facet normal -0.998028 0.0627752 0
    outer loop
      vertex 1.8 0 0
      vertex 1.78581 -0.225599 -6
      vertex 1.78581 -0.225599 0
    endloop
  endfacet
  facet normal 0.248708 0.968578 -0
    outer loop
      vertex -0.337286 -1.76812 -6
      vertex -0.556231 -1.7119 0
      vertex -0.337286 -1.76812 0
    endloop
  endfacet
  facet normal 0.248708 0.968578 0
    outer loop
      vertex -0.556231 -1.7119 0
      vertex -0.337286 -1.76812 -6
      vertex -0.556231 -1.7119 -6
    endloop
  endfacet
  facet normal 0.770504 0.637435 0
    outer loop
      vertex -1.31214 -1.23218 0
      vertex -1.45623 -1.05801 -6
      vertex -1.45623 -1.05801 0
    endloop
  endfacet
  facet normal 0.770504 0.637435 0
    outer loop
      vertex -1.45623 -1.05801 -6
      vertex -1.31214 -1.23218 0
      vertex -1.31214 -1.23218 -6
    endloop
  endfacet
  facet normal 0.951059 0.309009 0
    outer loop
      vertex -1.6736 -0.662623 0
      vertex -1.74345 -0.447641 -6
      vertex -1.74345 -0.447641 0
    endloop
  endfacet
  facet normal 0.951059 0.309009 0
    outer loop
      vertex -1.74345 -0.447641 -6
      vertex -1.6736 -0.662623 0
      vertex -1.6736 -0.662623 -6
    endloop
  endfacet
  facet normal 0.998028 0.0627752 0
    outer loop
      vertex -1.78581 -0.225599 0
      vertex -1.8 0 -6
      vertex -1.8 0 0
    endloop
  endfacet
  facet normal 0.998028 0.0627752 0
    outer loop
      vertex -1.8 0 -6
      vertex -1.78581 -0.225599 0
      vertex -1.78581 -0.225599 -6
    endloop
  endfacet
  facet normal -0.368115 0.92978 0
    outer loop
      vertex 0.766402 -1.62869 -6
      vertex 0.556231 -1.7119 0
      vertex 0.766402 -1.62869 0
    endloop
  endfacet
  facet normal -0.368115 0.92978 0
    outer loop
      vertex 0.556231 -1.7119 0
      vertex 0.766402 -1.62869 -6
      vertex 0.556231 -1.7119 -6
    endloop
  endfacet
  facet normal -0.248708 0.968578 0
    outer loop
      vertex 0.556231 -1.7119 -6
      vertex 0.337286 -1.76812 0
      vertex 0.556231 -1.7119 0
    endloop
  endfacet
  facet normal -0.248708 0.968578 0
    outer loop
      vertex 0.337286 -1.76812 0
      vertex 0.556231 -1.7119 -6
      vertex 0.337286 -1.76812 -6
    endloop
  endfacet
  facet normal -0.587802 0.809005 0
    outer loop
      vertex 1.14736 -1.38692 -6
      vertex 0.964488 -1.51979 0
      vertex 1.14736 -1.38692 0
    endloop
  endfacet
  facet normal -0.587802 0.809005 0
    outer loop
      vertex 0.964488 -1.51979 0
      vertex 1.14736 -1.38692 -6
      vertex 0.964488 -1.51979 -6
    endloop
  endfacet
  facet normal -0.951059 0.309009 0
    outer loop
      vertex 1.6736 -0.662623 -6
      vertex 1.74345 -0.447641 0
      vertex 1.74345 -0.447641 -6
    endloop
  endfacet
  facet normal -0.951059 0.309009 0
    outer loop
      vertex 1.74345 -0.447641 0
      vertex 1.6736 -0.662623 -6
      vertex 1.6736 -0.662623 0
    endloop
  endfacet
  facet normal -0.844327 0.535828 0
    outer loop
      vertex 1.45623 -1.05801 -6
      vertex 1.57735 -0.867156 0
      vertex 1.57735 -0.867156 -6
    endloop
  endfacet
  facet normal -0.844327 0.535828 0
    outer loop
      vertex 1.57735 -0.867156 0
      vertex 1.45623 -1.05801 -6
      vertex 1.45623 -1.05801 0
    endloop
  endfacet
  facet normal 0.125329 0.992115 -0
    outer loop
      vertex -0.113023 -1.79645 -6
      vertex -0.337286 -1.76812 0
      vertex -0.113023 -1.79645 0
    endloop
  endfacet
  facet normal 0.125329 0.992115 0
    outer loop
      vertex -0.337286 -1.76812 0
      vertex -0.113023 -1.79645 -6
      vertex -0.337286 -1.76812 -6
    endloop
  endfacet
  facet normal 0.368115 0.92978 -0
    outer loop
      vertex -0.556231 -1.7119 -6
      vertex -0.766402 -1.62869 0
      vertex -0.556231 -1.7119 0
    endloop
  endfacet
  facet normal 0.368115 0.92978 0
    outer loop
      vertex -0.766402 -1.62869 0
      vertex -0.556231 -1.7119 -6
      vertex -0.766402 -1.62869 -6
    endloop
  endfacet
  facet normal 0.587802 0.809005 -0
    outer loop
      vertex -0.964488 -1.51979 -6
      vertex -1.14736 -1.38692 0
      vertex -0.964488 -1.51979 0
    endloop
  endfacet
  facet normal 0.587802 0.809005 0
    outer loop
      vertex -1.14736 -1.38692 0
      vertex -0.964488 -1.51979 -6
      vertex -1.14736 -1.38692 -6
    endloop
  endfacet
  facet normal 0.68455 0.728966 -0
    outer loop
      vertex -1.14736 -1.38692 -6
      vertex -1.31214 -1.23218 0
      vertex -1.14736 -1.38692 0
    endloop
  endfacet
  facet normal 0.68455 0.728966 0
    outer loop
      vertex -1.31214 -1.23218 0
      vertex -1.14736 -1.38692 -6
      vertex -1.31214 -1.23218 -6
    endloop
  endfacet
  facet normal 0.982285 0.187395 0
    outer loop
      vertex -1.74345 -0.447641 0
      vertex -1.78581 -0.225599 -6
      vertex -1.78581 -0.225599 0
    endloop
  endfacet
  facet normal 0.982285 0.187395 0
    outer loop
      vertex -1.78581 -0.225599 -6
      vertex -1.74345 -0.447641 0
      vertex -1.74345 -0.447641 -6
    endloop
  endfacet
  facet normal 0.481758 0.876304 -0
    outer loop
      vertex -0.766402 -1.62869 -6
      vertex -0.964488 -1.51979 0
      vertex -0.766402 -1.62869 0
    endloop
  endfacet
  facet normal 0.481758 0.876304 0
    outer loop
      vertex -0.964488 -1.51979 0
      vertex -0.766402 -1.62869 -6
      vertex -0.964488 -1.51979 -6
    endloop
  endfacet
  facet normal 0.844327 0.535828 0
    outer loop
      vertex -1.45623 -1.05801 0
      vertex -1.57735 -0.867156 -6
      vertex -1.57735 -0.867156 0
    endloop
  endfacet
  facet normal 0.844327 0.535828 0
    outer loop
      vertex -1.57735 -0.867156 -6
      vertex -1.45623 -1.05801 0
      vertex -1.45623 -1.05801 -6
    endloop
  endfacet
endsolid OpenSCAD_Model
