solid OpenSCAD_Model
  facet normal 0.998027 0.0627822 0
    outer loop
      vertex 1.9 0 0
      vertex 1.88502 0.238132 -6
      vertex 1.88502 0.238132 0
    endloop
  endfacet
  facet normal 0.998027 0.0627822 0
    outer loop
      vertex 1.88502 0.238132 -6
      vertex 1.9 0 0
      vertex 1.9 0 -6
    endloop
  endfacet
  facet normal -0.998027 0.0627822 0
    outer loop
      vertex -1.9 0 -6
      vertex -1.88502 0.238132 0
      vertex -1.88502 0.238132 -6
    endloop
  endfacet
  facet normal -0.998027 0.0627822 0
    outer loop
      vertex -1.88502 0.238132 0
      vertex -1.9 0 -6
      vertex -1.9 0 0
    endloop
  endfacet
  facet normal 0 1 -0
    outer loop
      vertex 0.119302 1.89625 -6
      vertex -0.119302 1.89625 0
      vertex 0.119302 1.89625 0
    endloop
  endfacet
  facet normal 0 1 0
    outer loop
      vertex -0.119302 1.89625 0
      vertex 0.119302 1.89625 -6
      vertex -0.119302 1.89625 -6
    endloop
  endfacet
  facet normal 0 -1 0
    outer loop
      vertex -0.119302 -1.89625 -6
      vertex 0.119302 -1.89625 0
      vertex -0.119302 -1.89625 0
    endloop
  endfacet
  facet normal 0 -1 -0
    outer loop
      vertex 0.119302 -1.89625 0
      vertex -0.119302 -1.89625 -6
      vertex 0.119302 -1.89625 -6
    endloop
  endfacet
  facet normal 0.684545 0.728971 -0
    outer loop
      vertex 1.38504 1.30064 -6
      vertex 1.21111 1.46397 0
      vertex 1.38504 1.30064 0
    endloop
  endfacet
  facet normal 0.684545 0.728971 0
    outer loop
      vertex 1.21111 1.46397 0
      vertex 1.38504 1.30064 -6
      vertex 1.21111 1.46397 -6
    endloop
  endfacet
  facet normal -0.684545 0.728971 0
    outer loop
      vertex -1.21111 1.46397 -6
      vertex -1.38504 1.30064 0
      vertex -1.21111 1.46397 0
    endloop
  endfacet
  facet normal -0.684545 0.728971 0
    outer loop
      vertex -1.38504 1.30064 0
      vertex -1.21111 1.46397 -6
      vertex -1.38504 1.30064 -6
    endloop
  endfacet
  facet normal -0.36814 0.929771 0
    outer loop
      vertex -0.587132 1.80701 -6
      vertex -0.80898 1.71917 0
      vertex -0.587132 1.80701 0
    endloop
  endfacet
  facet normal -0.36814 0.929771 0
    outer loop
      vertex -0.80898 1.71917 0
      vertex -0.587132 1.80701 -6
      vertex -0.80898 1.71917 -6
    endloop
  endfacet
  facet normal 0.904832 0.425769 0
    outer loop
      vertex 1.76657 0.699436 0
      vertex 1.66498 0.915332 -6
      vertex 1.66498 0.915332 0
    endloop
  endfacet
  facet normal 0.904832 0.425769 0
    outer loop
      vertex 1.66498 0.915332 -6
      vertex 1.76657 0.699436 0
      vertex 1.76657 0.699436 -6
    endloop
  endfacet
  facet normal 0.844326 0.535829 0
    outer loop
      vertex 1.66498 0.915332 0
      vertex 1.53713 1.11679 -6
      vertex 1.53713 1.11679 0
    endloop
  endfacet
  facet normal 0.844326 0.535829 0
    outer loop
      vertex 1.53713 1.11679 -6
      vertex 1.66498 0.915332 0
      vertex 1.66498 0.915332 -6
    endloop
  endfacet
  facet normal 0.36814 0.929771 -0
    outer loop
      vertex 0.80898 1.71917 -6
      vertex 0.587132 1.80701 0
      vertex 0.80898 1.71917 0
    endloop
  endfacet
  facet normal 0.36814 0.929771 0
    outer loop
      vertex 0.587132 1.80701 0
      vertex 0.80898 1.71917 -6
      vertex 0.587132 1.80701 -6
    endloop
  endfacet
  facet normal 0.481759 0.876303 -0
    outer loop
      vertex 1.01807 1.60422 -6
      vertex 0.80898 1.71917 0
      vertex 1.01807 1.60422 0
    endloop
  endfacet
  facet normal 0.481759 0.876303 0
    outer loop
      vertex 0.80898 1.71917 0
      vertex 1.01807 1.60422 -6
      vertex 0.80898 1.71917 -6
    endloop
  endfacet
  facet normal -0.904832 0.425769 0
    outer loop
      vertex -1.76657 0.699436 -6
      vertex -1.66498 0.915332 0
      vertex -1.66498 0.915332 -6
    endloop
  endfacet
  facet normal -0.904832 0.425769 0
    outer loop
      vertex -1.66498 0.915332 0
      vertex -1.76657 0.699436 -6
      vertex -1.76657 0.699436 0
    endloop
  endfacet
  facet normal -0.770521 0.637414 0
    outer loop
      vertex -1.53713 1.11679 -6
      vertex -1.38504 1.30064 0
      vertex -1.38504 1.30064 -6
    endloop
  endfacet
  facet normal -0.770521 0.637414 0
    outer loop
      vertex -1.38504 1.30064 0
      vertex -1.53713 1.11679 -6
      vertex -1.53713 1.11679 0
    endloop
  endfacet
  facet normal 0 0 1
    outer loop
      vertex 1.5 0 0
      vertex 1.9 0 0
      vertex 1.88502 0.238132 0
    endloop
  endfacet
  facet normal 0 0 1
    outer loop
      vertex 1.48817 0.188 0
      vertex 1.88502 0.238132 0
      vertex 1.84031 0.47251 0
    endloop
  endfacet
  facet normal 0 0 1
    outer loop
      vertex 1.9 0 0
      vertex 1.5 0 0
      vertex 1.88502 -0.238132 0
    endloop
  endfacet
  facet normal 0 0 1
    outer loop
      vertex 1.45287 0.373034 0
      vertex 1.84031 0.47251 0
      vertex 1.76657 0.699436 0
    endloop
  endfacet
  facet normal -0 0 1
    outer loop
      vertex 1.48817 -0.188 0
      vertex 1.88502 -0.238132 0
      vertex 1.5 0 0
    endloop
  endfacet
  facet normal 0 0 1
    outer loop
      vertex 1.39466 0.552186 0
      vertex 1.76657 0.699436 0
      vertex 1.66498 0.915332 0
    endloop
  endfacet
  facet normal 0 0 1
    outer loop
      vertex 1.88502 -0.238132 0
      vertex 1.48817 -0.188 0
      vertex 1.84031 -0.47251 0
    endloop
  endfacet
  facet normal 0 0 1
    outer loop
      vertex 1.31446 0.722631 0
      vertex 1.66498 0.915332 0
      vertex 1.53713 1.11679 0
    endloop
  endfacet
  facet normal -0 0 1
    outer loop
      vertex 1.45287 -0.373034 0
      vertex 1.84031 -0.47251 0
      vertex 1.48817 -0.188 0
    endloop
  endfacet
  facet normal 0 0 1
    outer loop
      vertex 1.84031 -0.47251 0
      vertex 1.45287 -0.373034 0
      vertex 1.76657 -0.699436 0
    endloop
  endfacet
  facet normal 0 0 1
    outer loop
      vertex 1.88502 0.238132 0
      vertex 1.48817 0.188 0
      vertex 1.5 0 0
    endloop
  endfacet
  facet normal 0 0 1
    outer loop
      vertex 1.84031 0.47251 0
      vertex 1.45287 0.373034 0
      vertex 1.48817 0.188 0
    endloop
  endfacet
  facet normal 0 0 1
    outer loop
      vertex 1.76657 0.699436 0
      vertex 1.39466 0.552186 0
      vertex 1.45287 0.373034 0
    endloop
  endfacet
  facet normal 0 0 1
    outer loop
      vertex 1.21352 0.881678 0
      vertex 1.53713 1.11679 0
      vertex 1.38504 1.30064 0
    endloop
  endfacet
  facet normal 0 0 1
    outer loop
      vertex 1.66498 0.915332 0
      vertex 1.31446 0.722631 0
      vertex 1.39466 0.552186 0
    endloop
  endfacet
  facet normal 0 0 1
    outer loop
      vertex 1.53713 1.11679 0
      vertex 1.21352 0.881678 0
      vertex 1.31446 0.722631 0
    endloop
  endfacet
  facet normal 0 0 1
    outer loop
      vertex 1.09345 1.02682 0
      vertex 1.38504 1.30064 0
      vertex 1.21111 1.46397 0
    endloop
  endfacet
  facet normal 0 0 1
    outer loop
      vertex 1.38504 1.30064 0
      vertex 1.09345 1.02682 0
      vertex 1.21352 0.881678 0
    endloop
  endfacet
  facet normal 0 0 1
    outer loop
      vertex 0.956136 1.15577 0
      vertex 1.21111 1.46397 0
      vertex 1.01807 1.60422 0
    endloop
  endfacet
  facet normal 0 0 1
    outer loop
      vertex 1.21111 1.46397 0
      vertex 0.956136 1.15577 0
      vertex 1.09345 1.02682 0
    endloop
  endfacet
  facet normal 0 0 1
    outer loop
      vertex 0.80374 1.26649 0
      vertex 1.01807 1.60422 0
      vertex 0.80898 1.71917 0
    endloop
  endfacet
  facet normal 0 0 1
    outer loop
      vertex 1.01807 1.60422 0
      vertex 0.80374 1.26649 0
      vertex 0.956136 1.15577 0
    endloop
  endfacet
  facet normal 0 0 1
    outer loop
      vertex 0.80898 1.71917 0
      vertex 0.638668 1.35724 0
      vertex 0.80374 1.26649 0
    endloop
  endfacet
  facet normal 0 0 1
    outer loop
      vertex 0.587132 1.80701 0
      vertex 0.638668 1.35724 0
      vertex 0.80898 1.71917 0
    endloop
  endfacet
  facet normal 0 0 1
    outer loop
      vertex 0.587132 1.80701 0
      vertex 0.463525 1.42658 0
      vertex 0.638668 1.35724 0
    endloop
  endfacet
  facet normal 0 0 1
    outer loop
      vertex 0.356024 1.86635 0
      vertex 0.463525 1.42658 0
      vertex 0.587132 1.80701 0
    endloop
  endfacet
  facet normal 0 0 1
    outer loop
      vertex 0.356024 1.86635 0
      vertex 0.281072 1.47343 0
      vertex 0.463525 1.42658 0
    endloop
  endfacet
  facet normal 0 0 1
    outer loop
      vertex 0.119302 1.89625 0
      vertex 0.281072 1.47343 0
      vertex 0.356024 1.86635 0
    endloop
  endfacet
  facet normal 0 0 1
    outer loop
      vertex 0.119302 1.89625 0
      vertex 0.0941849 1.49704 0
      vertex 0.281072 1.47343 0
    endloop
  endfacet
  facet normal 0 0 1
    outer loop
      vertex 0.119302 1.89625 0
      vertex -0.0941849 1.49704 0
      vertex 0.0941849 1.49704 0
    endloop
  endfacet
  facet normal -0 0 1
    outer loop
      vertex -0.119302 1.89625 0
      vertex -0.0941849 1.49704 0
      vertex 0.119302 1.89625 0
    endloop
  endfacet
  facet normal 0 0 1
    outer loop
      vertex -0.119302 1.89625 0
      vertex -0.281072 1.47343 0
      vertex -0.0941849 1.49704 0
    endloop
  endfacet
  facet normal -0 0 1
    outer loop
      vertex -0.356024 1.86635 0
      vertex -0.281072 1.47343 0
      vertex -0.119302 1.89625 0
    endloop
  endfacet
  facet normal 0 0 1
    outer loop
      vertex -0.356024 1.86635 0
      vertex -0.463525 1.42658 0
      vertex -0.281072 1.47343 0
    endloop
  endfacet
  facet normal -0 0 1
    outer loop
      vertex -0.587132 1.80701 0
      vertex -0.463525 1.42658 0
      vertex -0.356024 1.86635 0
    endloop
  endfacet
  facet normal 0 0 1
    outer loop
      vertex -0.587132 1.80701 0
      vertex -0.638668 1.35724 0
      vertex -0.463525 1.42658 0
    endloop
  endfacet
  facet normal -0 0 1
    outer loop
      vertex -0.80898 1.71917 0
      vertex -0.638668 1.35724 0
      vertex -0.587132 1.80701 0
    endloop
  endfacet
  facet normal 0 0 1
    outer loop
      vertex -0.638668 1.35724 0
      vertex -0.80898 1.71917 0
      vertex -0.80374 1.26649 0
    endloop
  endfacet
  facet normal -0 0 1
    outer loop
      vertex -1.01807 1.60422 0
      vertex -0.80374 1.26649 0
      vertex -0.80898 1.71917 0
    endloop
  endfacet
  facet normal 0 0 1
    outer loop
      vertex -0.80374 1.26649 0
      vertex -1.01807 1.60422 0
      vertex -0.956136 1.15577 0
    endloop
  endfacet
  facet normal -0 0 1
    outer loop
      vertex -1.21111 1.46397 0
      vertex -0.956136 1.15577 0
      vertex -1.01807 1.60422 0
    endloop
  endfacet
  facet normal 0 0 1
    outer loop
      vertex -0.956136 1.15577 0
      vertex -1.21111 1.46397 0
      vertex -1.09345 1.02682 0
    endloop
  endfacet
  facet normal -0 0 1
    outer loop
      vertex -1.38504 1.30064 0
      vertex -1.09345 1.02682 0
      vertex -1.21111 1.46397 0
    endloop
  endfacet
  facet normal 0 0 1
    outer loop
      vertex -1.09345 1.02682 0
      vertex -1.38504 1.30064 0
      vertex -1.21352 0.881678 0
    endloop
  endfacet
  facet normal -0 0 1
    outer loop
      vertex -1.53713 1.11679 0
      vertex -1.21352 0.881678 0
      vertex -1.38504 1.30064 0
    endloop
  endfacet
  facet normal 0 0 1
    outer loop
      vertex -1.21352 0.881678 0
      vertex -1.53713 1.11679 0
      vertex -1.31446 0.722631 0
    endloop
  endfacet
  facet normal -0 0 1
    outer loop
      vertex -1.66498 0.915332 0
      vertex -1.31446 0.722631 0
      vertex -1.53713 1.11679 0
    endloop
  endfacet
  facet normal 0 0 1
    outer loop
      vertex -1.31446 0.722631 0
      vertex -1.66498 0.915332 0
      vertex -1.39466 0.552186 0
    endloop
  endfacet
  facet normal 0 0 1
    outer loop
      vertex -1.39466 0.552186 0
      vertex -1.76657 0.699436 0
      vertex -1.45287 0.373034 0
    endloop
  endfacet
  facet normal -0 0 1
    outer loop
      vertex -1.76657 0.699436 0
      vertex -1.39466 0.552186 0
      vertex -1.66498 0.915332 0
    endloop
  endfacet
  facet normal -0 0 1
    outer loop
      vertex 1.39466 -0.552186 0
      vertex 1.76657 -0.699436 0
      vertex 1.45287 -0.373034 0
    endloop
  endfacet
  facet normal 0 0 1
    outer loop
      vertex 1.76657 -0.699436 0
      vertex 1.39466 -0.552186 0
      vertex 1.66498 -0.915332 0
    endloop
  endfacet
  facet normal -0 0 1
    outer loop
      vertex 1.31446 -0.722631 0
      vertex 1.66498 -0.915332 0
      vertex 1.39466 -0.552186 0
    endloop
  endfacet
  facet normal 0 0 1
    outer loop
      vertex 1.66498 -0.915332 0
      vertex 1.31446 -0.722631 0
      vertex 1.53713 -1.11679 0
    endloop
  endfacet
  facet normal -0 0 1
    outer loop
      vertex 1.21352 -0.881678 0
      vertex 1.53713 -1.11679 0
      vertex 1.31446 -0.722631 0
    endloop
  endfacet
  facet normal 0 0 1
    outer loop
      vertex 1.53713 -1.11679 0
      vertex 1.21352 -0.881678 0
      vertex 1.38504 -1.30064 0
    endloop
  endfacet
  facet normal -0 0 1
    outer loop
      vertex 1.09345 -1.02682 0
      vertex 1.38504 -1.30064 0
      vertex 1.21352 -0.881678 0
    endloop
  endfacet
  facet normal 0 0 1
    outer loop
      vertex 1.38504 -1.30064 0
      vertex 1.09345 -1.02682 0
      vertex 1.21111 -1.46397 0
    endloop
  endfacet
  facet normal -0 0 1
    outer loop
      vertex 0.956136 -1.15577 0
      vertex 1.21111 -1.46397 0
      vertex 1.09345 -1.02682 0
    endloop
  endfacet
  facet normal 0 0 1
    outer loop
      vertex 1.21111 -1.46397 0
      vertex 0.956136 -1.15577 0
      vertex 1.01807 -1.60422 0
    endloop
  endfacet
  facet normal -0 0 1
    outer loop
      vertex 0.80374 -1.26649 0
      vertex 1.01807 -1.60422 0
      vertex 0.956136 -1.15577 0
    endloop
  endfacet
  facet normal 0 0 1
    outer loop
      vertex 1.01807 -1.60422 0
      vertex 0.80374 -1.26649 0
      vertex 0.80898 -1.71917 0
    endloop
  endfacet
  facet normal -0 0 1
    outer loop
      vertex 0.638668 -1.35724 0
      vertex 0.80898 -1.71917 0
      vertex 0.80374 -1.26649 0
    endloop
  endfacet
  facet normal 0 0 1
    outer loop
      vertex 0.638668 -1.35724 0
      vertex 0.587132 -1.80701 0
      vertex 0.80898 -1.71917 0
    endloop
  endfacet
  facet normal -0 0 1
    outer loop
      vertex 0.463525 -1.42658 0
      vertex 0.587132 -1.80701 0
      vertex 0.638668 -1.35724 0
    endloop
  endfacet
  facet normal 0 0 1
    outer loop
      vertex 0.463525 -1.42658 0
      vertex 0.356024 -1.86635 0
      vertex 0.587132 -1.80701 0
    endloop
  endfacet
  facet normal -0 0 1
    outer loop
      vertex 0.281072 -1.47343 0
      vertex 0.356024 -1.86635 0
      vertex 0.463525 -1.42658 0
    endloop
  endfacet
  facet normal 0 0 1
    outer loop
      vertex 0.281072 -1.47343 0
      vertex 0.119302 -1.89625 0
      vertex 0.356024 -1.86635 0
    endloop
  endfacet
  facet normal -0 0 1
    outer loop
      vertex 0.0941849 -1.49704 0
      vertex 0.119302 -1.89625 0
      vertex 0.281072 -1.47343 0
    endloop
  endfacet
  facet normal -0 0 1
    outer loop
      vertex -0.0941849 -1.49704 0
      vertex 0.119302 -1.89625 0
      vertex 0.0941849 -1.49704 0
    endloop
  endfacet
  facet normal 0 0 1
    outer loop
      vertex -0.0941849 -1.49704 0
      vertex -0.119302 -1.89625 0
      vertex 0.119302 -1.89625 0
    endloop
  endfacet
  facet normal 0 0 1
    outer loop
      vertex -0.281072 -1.47343 0
      vertex -0.119302 -1.89625 0
      vertex -0.0941849 -1.49704 0
    endloop
  endfacet
  facet normal 0 0 1
    outer loop
      vertex -0.281072 -1.47343 0
      vertex -0.356024 -1.86635 0
      vertex -0.119302 -1.89625 0
    endloop
  endfacet
  facet normal 0 0 1
    outer loop
      vertex -0.463525 -1.42658 0
      vertex -0.356024 -1.86635 0
      vertex -0.281072 -1.47343 0
    endloop
  endfacet
  facet normal 0 0 1
    outer loop
      vertex -0.463525 -1.42658 0
      vertex -0.587132 -1.80701 0
      vertex -0.356024 -1.86635 0
    endloop
  endfacet
  facet normal 0 0 1
    outer loop
      vertex -0.638668 -1.35724 0
      vertex -0.587132 -1.80701 0
      vertex -0.463525 -1.42658 0
    endloop
  endfacet
  facet normal 0 0 1
    outer loop
      vertex -0.80898 -1.71917 0
      vertex -0.638668 -1.35724 0
      vertex -0.80374 -1.26649 0
    endloop
  endfacet
  facet normal 0 0 1
    outer loop
      vertex -0.638668 -1.35724 0
      vertex -0.80898 -1.71917 0
      vertex -0.587132 -1.80701 0
    endloop
  endfacet
  facet normal 0 0 1
    outer loop
      vertex -1.01807 -1.60422 0
      vertex -0.80374 -1.26649 0
      vertex -0.956136 -1.15577 0
    endloop
  endfacet
  facet normal 0 0 1
    outer loop
      vertex -0.80374 -1.26649 0
      vertex -1.01807 -1.60422 0
      vertex -0.80898 -1.71917 0
    endloop
  endfacet
  facet normal 0 0 1
    outer loop
      vertex -1.21111 -1.46397 0
      vertex -0.956136 -1.15577 0
      vertex -1.09345 -1.02682 0
    endloop
  endfacet
  facet normal 0 0 1
    outer loop
      vertex -0.956136 -1.15577 0
      vertex -1.21111 -1.46397 0
      vertex -1.01807 -1.60422 0
    endloop
  endfacet
  facet normal 0 0 1
    outer loop
      vertex -1.38504 -1.30064 0
      vertex -1.09345 -1.02682 0
      vertex -1.21352 -0.881678 0
    endloop
  endfacet
  facet normal 0 0 1
    outer loop
      vertex -1.53713 -1.11679 0
      vertex -1.21352 -0.881678 0
      vertex -1.31446 -0.722631 0
    endloop
  endfacet
  facet normal 0 0 1
    outer loop
      vertex -1.09345 -1.02682 0
      vertex -1.38504 -1.30064 0
      vertex -1.21111 -1.46397 0
    endloop
  endfacet
  facet normal 0 0 1
    outer loop
      vertex -1.66498 -0.915332 0
      vertex -1.31446 -0.722631 0
      vertex -1.39466 -0.552186 0
    endloop
  endfacet
  facet normal 0 0 1
    outer loop
      vertex -1.76657 -0.699436 0
      vertex -1.39466 -0.552186 0
      vertex -1.45287 -0.373034 0
    endloop
  endfacet
  facet normal 0 0 1
    outer loop
      vertex -1.84031 -0.47251 0
      vertex -1.45287 -0.373034 0
      vertex -1.48817 -0.188 0
    endloop
  endfacet
  facet normal 0 0 1
    outer loop
      vertex -1.21352 -0.881678 0
      vertex -1.53713 -1.11679 0
      vertex -1.38504 -1.30064 0
    endloop
  endfacet
  facet normal 0 0 1
    outer loop
      vertex -1.88502 -0.238132 0
      vertex -1.48817 -0.188 0
      vertex -1.5 0 0
    endloop
  endfacet
  facet normal -0 0 1
    outer loop
      vertex -1.84031 0.47251 0
      vertex -1.45287 0.373034 0
      vertex -1.76657 0.699436 0
    endloop
  endfacet
  facet normal 0 0 1
    outer loop
      vertex -1.45287 0.373034 0
      vertex -1.84031 0.47251 0
      vertex -1.48817 0.188 0
    endloop
  endfacet
  facet normal 0 0 1
    outer loop
      vertex -1.31446 -0.722631 0
      vertex -1.66498 -0.915332 0
      vertex -1.53713 -1.11679 0
    endloop
  endfacet
  facet normal -0 0 1
    outer loop
      vertex -1.88502 0.238132 0
      vertex -1.48817 0.188 0
      vertex -1.84031 0.47251 0
    endloop
  endfacet
  facet normal 0 0 1
    outer loop
      vertex -1.39466 -0.552186 0
      vertex -1.76657 -0.699436 0
      vertex -1.66498 -0.915332 0
    endloop
  endfacet
  facet normal 0 0 1
    outer loop
      vertex -1.48817 0.188 0
      vertex -1.88502 0.238132 0
      vertex -1.5 0 0
    endloop
  endfacet
  facet normal 0 0 1
    outer loop
      vertex -1.45287 -0.373034 0
      vertex -1.84031 -0.47251 0
      vertex -1.76657 -0.699436 0
    endloop
  endfacet
  facet normal 0 0 1
    outer loop
      vertex -1.9 0 0
      vertex -1.5 0 0
      vertex -1.88502 0.238132 0
    endloop
  endfacet
  facet normal 0 0 1
    outer loop
      vertex -1.48817 -0.188 0
      vertex -1.88502 -0.238132 0
      vertex -1.84031 -0.47251 0
    endloop
  endfacet
  facet normal 0 0 1
    outer loop
      vertex -1.5 0 0
      vertex -1.9 0 0
      vertex -1.88502 -0.238132 0
    endloop
  endfacet
  facet normal -0.248696 0.968582 0
    outer loop
      vertex -0.356024 1.86635 -6
      vertex -0.587132 1.80701 0
      vertex -0.356024 1.86635 0
    endloop
  endfacet
  facet normal -0.248696 0.968582 0
    outer loop
      vertex -0.587132 1.80701 0
      vertex -0.356024 1.86635 -6
      vertex -0.587132 1.80701 -6
    endloop
  endfacet
  facet normal 0.982287 -0.187381 0
    outer loop
      vertex 1.84031 -0.47251 0
      vertex 1.88502 -0.238132 -6
      vertex 1.88502 -0.238132 0
    endloop
  endfacet
  facet normal 0.982287 -0.187381 0
    outer loop
      vertex 1.88502 -0.238132 -6
      vertex 1.84031 -0.47251 0
      vertex 1.84031 -0.47251 -6
    endloop
  endfacet
  facet normal 0 0 -1
    outer loop
      vertex 1.5 0 -6
      vertex 1.9 0 -6
      vertex 1.88502 -0.238132 -6
    endloop
  endfacet
  facet normal 0 0 -1
    outer loop
      vertex 1.48817 -0.188 -6
      vertex 1.88502 -0.238132 -6
      vertex 1.84031 -0.47251 -6
    endloop
  endfacet
  facet normal 0 0 -1
    outer loop
      vertex 1.9 0 -6
      vertex 1.5 0 -6
      vertex 1.88502 0.238132 -6
    endloop
  endfacet
  facet normal 0 0 -1
    outer loop
      vertex 1.45287 -0.373034 -6
      vertex 1.84031 -0.47251 -6
      vertex 1.76657 -0.699436 -6
    endloop
  endfacet
  facet normal 0 0 -1
    outer loop
      vertex 1.48817 0.188 -6
      vertex 1.88502 0.238132 -6
      vertex 1.5 0 -6
    endloop
  endfacet
  facet normal 0 0 -1
    outer loop
      vertex 1.39466 -0.552186 -6
      vertex 1.76657 -0.699436 -6
      vertex 1.66498 -0.915332 -6
    endloop
  endfacet
  facet normal -0 0 -1
    outer loop
      vertex 1.88502 0.238132 -6
      vertex 1.48817 0.188 -6
      vertex 1.84031 0.47251 -6
    endloop
  endfacet
  facet normal 0 0 -1
    outer loop
      vertex 1.31446 -0.722631 -6
      vertex 1.66498 -0.915332 -6
      vertex 1.53713 -1.11679 -6
    endloop
  endfacet
  facet normal 0 0 -1
    outer loop
      vertex 1.45287 0.373034 -6
      vertex 1.84031 0.47251 -6
      vertex 1.48817 0.188 -6
    endloop
  endfacet
  facet normal -0 0 -1
    outer loop
      vertex 1.84031 0.47251 -6
      vertex 1.45287 0.373034 -6
      vertex 1.76657 0.699436 -6
    endloop
  endfacet
  facet normal 0 0 -1
    outer loop
      vertex 1.88502 -0.238132 -6
      vertex 1.48817 -0.188 -6
      vertex 1.5 0 -6
    endloop
  endfacet
  facet normal 0 0 -1
    outer loop
      vertex 1.84031 -0.47251 -6
      vertex 1.45287 -0.373034 -6
      vertex 1.48817 -0.188 -6
    endloop
  endfacet
  facet normal 0 0 -1
    outer loop
      vertex 1.76657 -0.699436 -6
      vertex 1.39466 -0.552186 -6
      vertex 1.45287 -0.373034 -6
    endloop
  endfacet
  facet normal 0 0 -1
    outer loop
      vertex 1.21352 -0.881678 -6
      vertex 1.53713 -1.11679 -6
      vertex 1.38504 -1.30064 -6
    endloop
  endfacet
  facet normal 0 0 -1
    outer loop
      vertex 1.66498 -0.915332 -6
      vertex 1.31446 -0.722631 -6
      vertex 1.39466 -0.552186 -6
    endloop
  endfacet
  facet normal 0 0 -1
    outer loop
      vertex 1.53713 -1.11679 -6
      vertex 1.21352 -0.881678 -6
      vertex 1.31446 -0.722631 -6
    endloop
  endfacet
  facet normal 0 0 -1
    outer loop
      vertex 1.09345 -1.02682 -6
      vertex 1.38504 -1.30064 -6
      vertex 1.21111 -1.46397 -6
    endloop
  endfacet
  facet normal 0 0 -1
    outer loop
      vertex 1.38504 -1.30064 -6
      vertex 1.09345 -1.02682 -6
      vertex 1.21352 -0.881678 -6
    endloop
  endfacet
  facet normal 0 0 -1
    outer loop
      vertex 0.956136 -1.15577 -6
      vertex 1.21111 -1.46397 -6
      vertex 1.01807 -1.60422 -6
    endloop
  endfacet
  facet normal 0 0 -1
    outer loop
      vertex 1.21111 -1.46397 -6
      vertex 0.956136 -1.15577 -6
      vertex 1.09345 -1.02682 -6
    endloop
  endfacet
  facet normal 0 0 -1
    outer loop
      vertex 0.80374 -1.26649 -6
      vertex 1.01807 -1.60422 -6
      vertex 0.80898 -1.71917 -6
    endloop
  endfacet
  facet normal 0 0 -1
    outer loop
      vertex 1.01807 -1.60422 -6
      vertex 0.80374 -1.26649 -6
      vertex 0.956136 -1.15577 -6
    endloop
  endfacet
  facet normal 0 0 -1
    outer loop
      vertex 0.80898 -1.71917 -6
      vertex 0.638668 -1.35724 -6
      vertex 0.80374 -1.26649 -6
    endloop
  endfacet
  facet normal 0 0 -1
    outer loop
      vertex 0.587132 -1.80701 -6
      vertex 0.638668 -1.35724 -6
      vertex 0.80898 -1.71917 -6
    endloop
  endfacet
  facet normal 0 0 -1
    outer loop
      vertex 0.587132 -1.80701 -6
      vertex 0.463525 -1.42658 -6
      vertex 0.638668 -1.35724 -6
    endloop
  endfacet
  facet normal 0 0 -1
    outer loop
      vertex 0.356024 -1.86635 -6
      vertex 0.463525 -1.42658 -6
      vertex 0.587132 -1.80701 -6
    endloop
  endfacet
  facet normal 0 0 -1
    outer loop
      vertex 0.356024 -1.86635 -6
      vertex 0.281072 -1.47343 -6
      vertex 0.463525 -1.42658 -6
    endloop
  endfacet
  facet normal 0 0 -1
    outer loop
      vertex 0.119302 -1.89625 -6
      vertex 0.281072 -1.47343 -6
      vertex 0.356024 -1.86635 -6
    endloop
  endfacet
  facet normal 0 0 -1
    outer loop
      vertex 0.119302 -1.89625 -6
      vertex 0.0941849 -1.49704 -6
      vertex 0.281072 -1.47343 -6
    endloop
  endfacet
  facet normal 0 0 -1
    outer loop
      vertex 0.119302 -1.89625 -6
      vertex -0.0941849 -1.49704 -6
      vertex 0.0941849 -1.49704 -6
    endloop
  endfacet
  facet normal 0 0 -1
    outer loop
      vertex -0.119302 -1.89625 -6
      vertex -0.0941849 -1.49704 -6
      vertex 0.119302 -1.89625 -6
    endloop
  endfacet
  facet normal 0 0 -1
    outer loop
      vertex -0.119302 -1.89625 -6
      vertex -0.281072 -1.47343 -6
      vertex -0.0941849 -1.49704 -6
    endloop
  endfacet
  facet normal 0 0 -1
    outer loop
      vertex -0.356024 -1.86635 -6
      vertex -0.281072 -1.47343 -6
      vertex -0.119302 -1.89625 -6
    endloop
  endfacet
  facet normal 0 0 -1
    outer loop
      vertex -0.356024 -1.86635 -6
      vertex -0.463525 -1.42658 -6
      vertex -0.281072 -1.47343 -6
    endloop
  endfacet
  facet normal 0 0 -1
    outer loop
      vertex -0.587132 -1.80701 -6
      vertex -0.463525 -1.42658 -6
      vertex -0.356024 -1.86635 -6
    endloop
  endfacet
  facet normal 0 0 -1
    outer loop
      vertex -0.587132 -1.80701 -6
      vertex -0.638668 -1.35724 -6
      vertex -0.463525 -1.42658 -6
    endloop
  endfacet
  facet normal 0 0 -1
    outer loop
      vertex -0.80898 -1.71917 -6
      vertex -0.638668 -1.35724 -6
      vertex -0.587132 -1.80701 -6
    endloop
  endfacet
  facet normal -0 0 -1
    outer loop
      vertex -0.638668 -1.35724 -6
      vertex -0.80898 -1.71917 -6
      vertex -0.80374 -1.26649 -6
    endloop
  endfacet
  facet normal 0 0 -1
    outer loop
      vertex -1.01807 -1.60422 -6
      vertex -0.80374 -1.26649 -6
      vertex -0.80898 -1.71917 -6
    endloop
  endfacet
  facet normal -0 0 -1
    outer loop
      vertex -0.80374 -1.26649 -6
      vertex -1.01807 -1.60422 -6
      vertex -0.956136 -1.15577 -6
    endloop
  endfacet
  facet normal 0 0 -1
    outer loop
      vertex -1.21111 -1.46397 -6
      vertex -0.956136 -1.15577 -6
      vertex -1.01807 -1.60422 -6
    endloop
  endfacet
  facet normal -0 0 -1
    outer loop
      vertex -0.956136 -1.15577 -6
      vertex -1.21111 -1.46397 -6
      vertex -1.09345 -1.02682 -6
    endloop
  endfacet
  facet normal 0 0 -1
    outer loop
      vertex -1.38504 -1.30064 -6
      vertex -1.09345 -1.02682 -6
      vertex -1.21111 -1.46397 -6
    endloop
  endfacet
  facet normal -0 0 -1
    outer loop
      vertex -1.09345 -1.02682 -6
      vertex -1.38504 -1.30064 -6
      vertex -1.21352 -0.881678 -6
    endloop
  endfacet
  facet normal 0 0 -1
    outer loop
      vertex -1.53713 -1.11679 -6
      vertex -1.21352 -0.881678 -6
      vertex -1.38504 -1.30064 -6
    endloop
  endfacet
  facet normal -0 0 -1
    outer loop
      vertex -1.21352 -0.881678 -6
      vertex -1.53713 -1.11679 -6
      vertex -1.31446 -0.722631 -6
    endloop
  endfacet
  facet normal 0 0 -1
    outer loop
      vertex -1.66498 -0.915332 -6
      vertex -1.31446 -0.722631 -6
      vertex -1.53713 -1.11679 -6
    endloop
  endfacet
  facet normal -0 0 -1
    outer loop
      vertex -1.31446 -0.722631 -6
      vertex -1.66498 -0.915332 -6
      vertex -1.39466 -0.552186 -6
    endloop
  endfacet
  facet normal -0 0 -1
    outer loop
      vertex -1.39466 -0.552186 -6
      vertex -1.76657 -0.699436 -6
      vertex -1.45287 -0.373034 -6
    endloop
  endfacet
  facet normal 0 0 -1
    outer loop
      vertex -1.76657 -0.699436 -6
      vertex -1.39466 -0.552186 -6
      vertex -1.66498 -0.915332 -6
    endloop
  endfacet
  facet normal 0 0 -1
    outer loop
      vertex 1.39466 0.552186 -6
      vertex 1.76657 0.699436 -6
      vertex 1.45287 0.373034 -6
    endloop
  endfacet
  facet normal -0 0 -1
    outer loop
      vertex 1.76657 0.699436 -6
      vertex 1.39466 0.552186 -6
      vertex 1.66498 0.915332 -6
    endloop
  endfacet
  facet normal 0 0 -1
    outer loop
      vertex 1.31446 0.722631 -6
      vertex 1.66498 0.915332 -6
      vertex 1.39466 0.552186 -6
    endloop
  endfacet
  facet normal -0 0 -1
    outer loop
      vertex 1.66498 0.915332 -6
      vertex 1.31446 0.722631 -6
      vertex 1.53713 1.11679 -6
    endloop
  endfacet
  facet normal 0 0 -1
    outer loop
      vertex 1.21352 0.881678 -6
      vertex 1.53713 1.11679 -6
      vertex 1.31446 0.722631 -6
    endloop
  endfacet
  facet normal -0 0 -1
    outer loop
      vertex 1.53713 1.11679 -6
      vertex 1.21352 0.881678 -6
      vertex 1.38504 1.30064 -6
    endloop
  endfacet
  facet normal 0 0 -1
    outer loop
      vertex 1.09345 1.02682 -6
      vertex 1.38504 1.30064 -6
      vertex 1.21352 0.881678 -6
    endloop
  endfacet
  facet normal -0 0 -1
    outer loop
      vertex 1.38504 1.30064 -6
      vertex 1.09345 1.02682 -6
      vertex 1.21111 1.46397 -6
    endloop
  endfacet
  facet normal 0 0 -1
    outer loop
      vertex 0.956136 1.15577 -6
      vertex 1.21111 1.46397 -6
      vertex 1.09345 1.02682 -6
    endloop
  endfacet
  facet normal -0 0 -1
    outer loop
      vertex 1.21111 1.46397 -6
      vertex 0.956136 1.15577 -6
      vertex 1.01807 1.60422 -6
    endloop
  endfacet
  facet normal 0 0 -1
    outer loop
      vertex 0.80374 1.26649 -6
      vertex 1.01807 1.60422 -6
      vertex 0.956136 1.15577 -6
    endloop
  endfacet
  facet normal -0 0 -1
    outer loop
      vertex 1.01807 1.60422 -6
      vertex 0.80374 1.26649 -6
      vertex 0.80898 1.71917 -6
    endloop
  endfacet
  facet normal 0 0 -1
    outer loop
      vertex 0.638668 1.35724 -6
      vertex 0.80898 1.71917 -6
      vertex 0.80374 1.26649 -6
    endloop
  endfacet
  facet normal 0 0 -1
    outer loop
      vertex 0.638668 1.35724 -6
      vertex 0.587132 1.80701 -6
      vertex 0.80898 1.71917 -6
    endloop
  endfacet
  facet normal 0 0 -1
    outer loop
      vertex 0.463525 1.42658 -6
      vertex 0.587132 1.80701 -6
      vertex 0.638668 1.35724 -6
    endloop
  endfacet
  facet normal 0 0 -1
    outer loop
      vertex 0.463525 1.42658 -6
      vertex 0.356024 1.86635 -6
      vertex 0.587132 1.80701 -6
    endloop
  endfacet
  facet normal 0 0 -1
    outer loop
      vertex 0.281072 1.47343 -6
      vertex 0.356024 1.86635 -6
      vertex 0.463525 1.42658 -6
    endloop
  endfacet
  facet normal 0 0 -1
    outer loop
      vertex 0.281072 1.47343 -6
      vertex 0.119302 1.89625 -6
      vertex 0.356024 1.86635 -6
    endloop
  endfacet
  facet normal 0 0 -1
    outer loop
      vertex 0.0941849 1.49704 -6
      vertex 0.119302 1.89625 -6
      vertex 0.281072 1.47343 -6
    endloop
  endfacet
  facet normal 0 0 -1
    outer loop
      vertex -0.0941849 1.49704 -6
      vertex 0.119302 1.89625 -6
      vertex 0.0941849 1.49704 -6
    endloop
  endfacet
  facet normal 0 0 -1
    outer loop
      vertex -0.0941849 1.49704 -6
      vertex -0.119302 1.89625 -6
      vertex 0.119302 1.89625 -6
    endloop
  endfacet
  facet normal 0 0 -1
    outer loop
      vertex -0.281072 1.47343 -6
      vertex -0.119302 1.89625 -6
      vertex -0.0941849 1.49704 -6
    endloop
  endfacet
  facet normal 0 0 -1
    outer loop
      vertex -0.281072 1.47343 -6
      vertex -0.356024 1.86635 -6
      vertex -0.119302 1.89625 -6
    endloop
  endfacet
  facet normal 0 0 -1
    outer loop
      vertex -0.463525 1.42658 -6
      vertex -0.356024 1.86635 -6
      vertex -0.281072 1.47343 -6
    endloop
  endfacet
  facet normal 0 0 -1
    outer loop
      vertex -0.463525 1.42658 -6
      vertex -0.587132 1.80701 -6
      vertex -0.356024 1.86635 -6
    endloop
  endfacet
  facet normal 0 0 -1
    outer loop
      vertex -0.638668 1.35724 -6
      vertex -0.587132 1.80701 -6
      vertex -0.463525 1.42658 -6
    endloop
  endfacet
  facet normal 0 0 -1
    outer loop
      vertex -0.80898 1.71917 -6
      vertex -0.638668 1.35724 -6
      vertex -0.80374 1.26649 -6
    endloop
  endfacet
  facet normal 0 0 -1
    outer loop
      vertex -0.638668 1.35724 -6
      vertex -0.80898 1.71917 -6
      vertex -0.587132 1.80701 -6
    endloop
  endfacet
  facet normal 0 0 -1
    outer loop
      vertex -1.01807 1.60422 -6
      vertex -0.80374 1.26649 -6
      vertex -0.956136 1.15577 -6
    endloop
  endfacet
  facet normal 0 0 -1
    outer loop
      vertex -0.80374 1.26649 -6
      vertex -1.01807 1.60422 -6
      vertex -0.80898 1.71917 -6
    endloop
  endfacet
  facet normal 0 0 -1
    outer loop
      vertex -1.21111 1.46397 -6
      vertex -0.956136 1.15577 -6
      vertex -1.09345 1.02682 -6
    endloop
  endfacet
  facet normal 0 0 -1
    outer loop
      vertex -0.956136 1.15577 -6
      vertex -1.21111 1.46397 -6
      vertex -1.01807 1.60422 -6
    endloop
  endfacet
  facet normal 0 0 -1
    outer loop
      vertex -1.38504 1.30064 -6
      vertex -1.09345 1.02682 -6
      vertex -1.21352 0.881678 -6
    endloop
  endfacet
  facet normal 0 0 -1
    outer loop
      vertex -1.53713 1.11679 -6
      vertex -1.21352 0.881678 -6
      vertex -1.31446 0.722631 -6
    endloop
  endfacet
  facet normal 0 0 -1
    outer loop
      vertex -1.09345 1.02682 -6
      vertex -1.38504 1.30064 -6
      vertex -1.21111 1.46397 -6
    endloop
  endfacet
  facet normal 0 0 -1
    outer loop
      vertex -1.66498 0.915332 -6
      vertex -1.31446 0.722631 -6
      vertex -1.39466 0.552186 -6
    endloop
  endfacet
  facet normal 0 0 -1
    outer loop
      vertex -1.76657 0.699436 -6
      vertex -1.39466 0.552186 -6
      vertex -1.45287 0.373034 -6
    endloop
  endfacet
  facet normal 0 0 -1
    outer loop
      vertex -1.84031 0.47251 -6
      vertex -1.45287 0.373034 -6
      vertex -1.48817 0.188 -6
    endloop
  endfacet
  facet normal 0 0 -1
    outer loop
      vertex -1.21352 0.881678 -6
      vertex -1.53713 1.11679 -6
      vertex -1.38504 1.30064 -6
    endloop
  endfacet
  facet normal 0 0 -1
    outer loop
      vertex -1.88502 0.238132 -6
      vertex -1.48817 0.188 -6
      vertex -1.5 0 -6
    endloop
  endfacet
  facet normal 0 0 -1
    outer loop
      vertex -1.84031 -0.47251 -6
      vertex -1.45287 -0.373034 -6
      vertex -1.76657 -0.699436 -6
    endloop
  endfacet
  facet normal -0 0 -1
    outer loop
      vertex -1.45287 -0.373034 -6
      vertex -1.84031 -0.47251 -6
      vertex -1.48817 -0.188 -6
    endloop
  endfacet
  facet normal 0 0 -1
    outer loop
      vertex -1.31446 0.722631 -6
      vertex -1.66498 0.915332 -6
      vertex -1.53713 1.11679 -6
    endloop
  endfacet
  facet normal 0 0 -1
    outer loop
      vertex -1.88502 -0.238132 -6
      vertex -1.48817 -0.188 -6
      vertex -1.84031 -0.47251 -6
    endloop
  endfacet
  facet normal 0 0 -1
    outer loop
      vertex -1.39466 0.552186 -6
      vertex -1.76657 0.699436 -6
      vertex -1.66498 0.915332 -6
    endloop
  endfacet
  facet normal -0 0 -1
    outer loop
      vertex -1.48817 -0.188 -6
      vertex -1.88502 -0.238132 -6
      vertex -1.5 0 -6
    endloop
  endfacet
  facet normal 0 0 -1
    outer loop
      vertex -1.45287 0.373034 -6
      vertex -1.84031 0.47251 -6
      vertex -1.76657 0.699436 -6
    endloop
  endfacet
  facet normal 0 0 -1
    outer loop
      vertex -1.9 0 -6
      vertex -1.5 0 -6
      vertex -1.88502 -0.238132 -6
    endloop
  endfacet
  facet normal 0 0 -1
    outer loop
      vertex -1.48817 0.188 -6
      vertex -1.88502 0.238132 -6
      vertex -1.84031 0.47251 -6
    endloop
  endfacet
  facet normal 0 0 -1
    outer loop
      vertex -1.5 0 -6
      vertex -1.9 0 -6
      vertex -1.88502 0.238132 -6
    endloop
  endfacet
  facet normal 0.951048 0.309045 0
    outer loop
      vertex 1.84031 0.47251 0
      vertex 1.76657 0.699436 -6
      vertex 1.76657 0.699436 0
    endloop
  endfacet
  facet normal 0.951048 0.309045 0
    outer loop
      vertex 1.76657 0.699436 -6
      vertex 1.84031 0.47251 0
      vertex 1.84031 0.47251 -6
    endloop
  endfacet
  facet normal 0.982287 0.187381 0
    outer loop
      vertex 1.88502 0.238132 0
      vertex 1.84031 0.47251 -6
      vertex 1.84031 0.47251 0
    endloop
  endfacet
  facet normal 0.982287 0.187381 0
    outer loop
      vertex 1.84031 0.47251 -6
      vertex 1.88502 0.238132 0
      vertex 1.88502 0.238132 -6
    endloop
  endfacet
  facet normal 0.770521 0.637414 0
    outer loop
      vertex 1.53713 1.11679 0
      vertex 1.38504 1.30064 -6
      vertex 1.38504 1.30064 0
    endloop
  endfacet
  facet normal 0.770521 0.637414 0
    outer loop
      vertex 1.38504 1.30064 -6
      vertex 1.53713 1.11679 0
      vertex 1.53713 1.11679 -6
    endloop
  endfacet
  facet normal 0.248696 0.968582 -0
    outer loop
      vertex 0.587132 1.80701 -6
      vertex 0.356024 1.86635 0
      vertex 0.587132 1.80701 0
    endloop
  endfacet
  facet normal 0.248696 0.968582 0
    outer loop
      vertex 0.356024 1.86635 0
      vertex 0.587132 1.80701 -6
      vertex 0.356024 1.86635 -6
    endloop
  endfacet
  facet normal 0.125313 0.992117 -0
    outer loop
      vertex 0.356024 1.86635 -6
      vertex 0.119302 1.89625 0
      vertex 0.356024 1.86635 0
    endloop
  endfacet
  facet normal 0.125313 0.992117 0
    outer loop
      vertex 0.119302 1.89625 0
      vertex 0.356024 1.86635 -6
      vertex 0.119302 1.89625 -6
    endloop
  endfacet
  facet normal 0.58778 0.809021 -0
    outer loop
      vertex 1.21111 1.46397 -6
      vertex 1.01807 1.60422 0
      vertex 1.21111 1.46397 0
    endloop
  endfacet
  facet normal 0.58778 0.809021 0
    outer loop
      vertex 1.01807 1.60422 0
      vertex 1.21111 1.46397 -6
      vertex 1.01807 1.60422 -6
    endloop
  endfacet
  facet normal -0.844326 0.535829 0
    outer loop
      vertex -1.66498 0.915332 -6
      vertex -1.53713 1.11679 0
      vertex -1.53713 1.11679 -6
    endloop
  endfacet
  facet normal -0.844326 0.535829 0
    outer loop
      vertex -1.53713 1.11679 0
      vertex -1.66498 0.915332 -6
      vertex -1.66498 0.915332 0
    endloop
  endfacet
  facet normal -0.951048 0.309045 0
    outer loop
      vertex -1.84031 0.47251 -6
      vertex -1.76657 0.699436 0
      vertex -1.76657 0.699436 -6
    endloop
  endfacet
  facet normal -0.951048 0.309045 0
    outer loop
      vertex -1.76657 0.699436 0
      vertex -1.84031 0.47251 -6
      vertex -1.84031 0.47251 0
    endloop
  endfacet
  facet normal -0.982287 0.187381 0
    outer loop
      vertex -1.88502 0.238132 -6
      vertex -1.84031 0.47251 0
      vertex -1.84031 0.47251 -6
    endloop
  endfacet
  facet normal -0.982287 0.187381 0
    outer loop
      vertex -1.84031 0.47251 0
      vertex -1.88502 0.238132 -6
      vertex -1.88502 0.238132 0
    endloop
  endfacet
  facet normal -0.481759 0.876303 0
    outer loop
      vertex -0.80898 1.71917 -6
      vertex -1.01807 1.60422 0
      vertex -0.80898 1.71917 0
    endloop
  endfacet
  facet normal -0.481759 0.876303 0
    outer loop
      vertex -1.01807 1.60422 0
      vertex -0.80898 1.71917 -6
      vertex -1.01807 1.60422 -6
    endloop
  endfacet
  facet normal -0.58778 0.809021 0
    outer loop
      vertex -1.01807 1.60422 -6
      vertex -1.21111 1.46397 0
      vertex -1.01807 1.60422 0
    endloop
  endfacet
  facet normal -0.58778 0.809021 0
    outer loop
      vertex -1.21111 1.46397 0
      vertex -1.01807 1.60422 -6
      vertex -1.21111 1.46397 -6
    endloop
  endfacet
  facet normal -0.125313 0.992117 0
    outer loop
      vertex -0.119302 1.89625 -6
      vertex -0.356024 1.86635 0
      vertex -0.119302 1.89625 0
    endloop
  endfacet
  facet normal -0.125313 0.992117 0
    outer loop
      vertex -0.356024 1.86635 0
      vertex -0.119302 1.89625 -6
      vertex -0.356024 1.86635 -6
    endloop
  endfacet
  facet normal 0.998027 -0.0627822 0
    outer loop
      vertex 1.88502 -0.238132 0
      vertex 1.9 0 -6
      vertex 1.9 0 0
    endloop
  endfacet
  facet normal 0.998027 -0.0627822 0
    outer loop
      vertex 1.9 0 -6
      vertex 1.88502 -0.238132 0
      vertex 1.88502 -0.238132 -6
    endloop
  endfacet
  facet normal 0.951048 -0.309045 0
    outer loop
      vertex 1.76657 -0.699436 0
      vertex 1.84031 -0.47251 -6
      vertex 1.84031 -0.47251 0
    endloop
  endfacet
  facet normal 0.951048 -0.309045 0
    outer loop
      vertex 1.84031 -0.47251 -6
      vertex 1.76657 -0.699436 0
      vertex 1.76657 -0.699436 -6
    endloop
  endfacet
  facet normal -0.684545 -0.728971 0
    outer loop
      vertex -1.38504 -1.30064 -6
      vertex -1.21111 -1.46397 0
      vertex -1.38504 -1.30064 0
    endloop
  endfacet
  facet normal -0.684545 -0.728971 -0
    outer loop
      vertex -1.21111 -1.46397 0
      vertex -1.38504 -1.30064 -6
      vertex -1.21111 -1.46397 -6
    endloop
  endfacet
  facet normal -0.904832 -0.425769 0
    outer loop
      vertex -1.66498 -0.915332 -6
      vertex -1.76657 -0.699436 0
      vertex -1.76657 -0.699436 -6
    endloop
  endfacet
  facet normal -0.904832 -0.425769 0
    outer loop
      vertex -1.76657 -0.699436 0
      vertex -1.66498 -0.915332 -6
      vertex -1.66498 -0.915332 0
    endloop
  endfacet
  facet normal -0.770521 -0.637414 0
    outer loop
      vertex -1.38504 -1.30064 -6
      vertex -1.53713 -1.11679 0
      vertex -1.53713 -1.11679 -6
    endloop
  endfacet
  facet normal -0.770521 -0.637414 0
    outer loop
      vertex -1.53713 -1.11679 0
      vertex -1.38504 -1.30064 -6
      vertex -1.38504 -1.30064 0
    endloop
  endfacet
  facet normal 0.58778 -0.809021 0
    outer loop
      vertex 1.01807 -1.60422 -6
      vertex 1.21111 -1.46397 0
      vertex 1.01807 -1.60422 0
    endloop
  endfacet
  facet normal 0.58778 -0.809021 0
    outer loop
      vertex 1.21111 -1.46397 0
      vertex 1.01807 -1.60422 -6
      vertex 1.21111 -1.46397 -6
    endloop
  endfacet
  facet normal -0.982287 -0.187381 0
    outer loop
      vertex -1.84031 -0.47251 -6
      vertex -1.88502 -0.238132 0
      vertex -1.88502 -0.238132 -6
    endloop
  endfacet
  facet normal -0.982287 -0.187381 0
    outer loop
      vertex -1.88502 -0.238132 0
      vertex -1.84031 -0.47251 -6
      vertex -1.84031 -0.47251 0
    endloop
  endfacet
  facet normal -0.998027 -0.0627822 0
    outer loop
      vertex -1.88502 -0.238132 -6
      vertex -1.9 0 0
      vertex -1.9 0 -6
    endloop
  endfacet
  facet normal -0.998027 -0.0627822 0
    outer loop
      vertex -1.9 0 0
      vertex -1.88502 -0.238132 -6
      vertex -1.88502 -0.238132 0
    endloop
  endfacet
  facet normal -0.951048 -0.309045 0
    outer loop
      vertex -1.76657 -0.699436 -6
      vertex -1.84031 -0.47251 0
      vertex -1.84031 -0.47251 -6
    endloop
  endfacet
  facet normal -0.951048 -0.309045 0
    outer loop
      vertex -1.84031 -0.47251 0
      vertex -1.76657 -0.699436 -6
      vertex -1.76657 -0.699436 0
    endloop
  endfacet
  facet normal 0.684545 -0.728971 0
    outer loop
      vertex 1.21111 -1.46397 -6
      vertex 1.38504 -1.30064 0
      vertex 1.21111 -1.46397 0
    endloop
  endfacet
  facet normal 0.684545 -0.728971 0
    outer loop
      vertex 1.38504 -1.30064 0
      vertex 1.21111 -1.46397 -6
      vertex 1.38504 -1.30064 -6
    endloop
  endfacet
  facet normal 0.481759 -0.876303 0
    outer loop
      vertex 0.80898 -1.71917 -6
      vertex 1.01807 -1.60422 0
      vertex 0.80898 -1.71917 0
    endloop
  endfacet
  facet normal 0.481759 -0.876303 0
    outer loop
      vertex 1.01807 -1.60422 0
      vertex 0.80898 -1.71917 -6
      vertex 1.01807 -1.60422 -6
    endloop
  endfacet
  facet normal 0.36814 -0.929771 0
    outer loop
      vertex 0.587132 -1.80701 -6
      vertex 0.80898 -1.71917 0
      vertex 0.587132 -1.80701 0
    endloop
  endfacet
  facet normal 0.36814 -0.929771 0
    outer loop
      vertex 0.80898 -1.71917 0
      vertex 0.587132 -1.80701 -6
      vertex 0.80898 -1.71917 -6
    endloop
  endfacet
  facet normal 0.248696 -0.968582 0
    outer loop
      vertex 0.356024 -1.86635 -6
      vertex 0.587132 -1.80701 0
      vertex 0.356024 -1.86635 0
    endloop
  endfacet
  facet normal 0.248696 -0.968582 0
    outer loop
      vertex 0.587132 -1.80701 0
      vertex 0.356024 -1.86635 -6
      vertex 0.587132 -1.80701 -6
    endloop
  endfacet
  facet normal 0.125313 -0.992117 0
    outer loop
      vertex 0.119302 -1.89625 -6
      vertex 0.356024 -1.86635 0
      vertex 0.119302 -1.89625 0
    endloop
  endfacet
  facet normal 0.125313 -0.992117 0
    outer loop
      vertex 0.356024 -1.86635 0
      vertex 0.119302 -1.89625 -6
      vertex 0.356024 -1.86635 -6
    endloop
  endfacet
  facet normal 0.904832 -0.425769 0
    outer loop
      vertex 1.66498 -0.915332 0
      vertex 1.76657 -0.699436 -6
      vertex 1.76657 -0.699436 0
    endloop
  endfacet
  facet normal 0.904832 -0.425769 0
    outer loop
      vertex 1.76657 -0.699436 -6
      vertex 1.66498 -0.915332 0
      vertex 1.66498 -0.915332 -6
    endloop
  endfacet
  facet normal 0.844326 -0.535829 0
    outer loop
      vertex 1.53713 -1.11679 0
      vertex 1.66498 -0.915332 -6
      vertex 1.66498 -0.915332 0
    endloop
  endfacet
  facet normal 0.844326 -0.535829 0
    outer loop
      vertex 1.66498 -0.915332 -6
      vertex 1.53713 -1.11679 0
      vertex 1.53713 -1.11679 -6
    endloop
  endfacet
  facet normal -0.125313 -0.992117 0
    outer loop
      vertex -0.356024 -1.86635 -6
      vertex -0.119302 -1.89625 0
      vertex -0.356024 -1.86635 0
    endloop
  endfacet
  facet normal -0.125313 -0.992117 -0
    outer loop
      vertex -0.119302 -1.89625 0
      vertex -0.356024 -1.86635 -6
      vertex -0.119302 -1.89625 -6
    endloop
  endfacet
  facet normal -0.36814 -0.929771 0
    outer loop
      vertex -0.80898 -1.71917 -6
      vertex -0.587132 -1.80701 0
      vertex -0.80898 -1.71917 0
    endloop
  endfacet
  facet normal -0.36814 -0.929771 -0
    outer loop
      vertex -0.587132 -1.80701 0
      vertex -0.80898 -1.71917 -6
      vertex -0.587132 -1.80701 -6
    endloop
  endfacet
  facet normal -0.248696 -0.968582 0
    outer loop
      vertex -0.587132 -1.80701 -6
      vertex -0.356024 -1.86635 0
      vertex -0.587132 -1.80701 0
    endloop
  endfacet
  facet normal -0.248696 -0.968582 -0
    outer loop
      vertex -0.356024 -1.86635 0
      vertex -0.587132 -1.80701 -6
      vertex -0.356024 -1.86635 -6
    endloop
  endfacet
  facet normal -0.844326 -0.535829 0
    outer loop
      vertex -1.53713 -1.11679 -6
      vertex -1.66498 -0.915332 0
      vertex -1.66498 -0.915332 -6
    endloop
  endfacet
  facet normal -0.844326 -0.535829 0
    outer loop
      vertex -1.66498 -0.915332 0
      vertex -1.53713 -1.11679 -6
      vertex -1.53713 -1.11679 0
    endloop
  endfacet
  facet normal 0.770521 -0.637414 0
    outer loop
      vertex 1.38504 -1.30064 0
      vertex 1.53713 -1.11679 -6
      vertex 1.53713 -1.11679 0
    endloop
  endfacet
  facet normal 0.770521 -0.637414 0
    outer loop
      vertex 1.53713 -1.11679 -6
      vertex 1.38504 -1.30064 0
      vertex 1.38504 -1.30064 -6
    endloop
  endfacet
  facet normal -0.481759 -0.876303 0
    outer loop
      vertex -1.01807 -1.60422 -6
      vertex -0.80898 -1.71917 0
      vertex -1.01807 -1.60422 0
    endloop
  endfacet
  facet normal -0.481759 -0.876303 -0
    outer loop
      vertex -0.80898 -1.71917 0
      vertex -1.01807 -1.60422 -6
      vertex -0.80898 -1.71917 -6
    endloop
  endfacet
  facet normal -0.58778 -0.809021 0
    outer loop
      vertex -1.21111 -1.46397 -6
      vertex -1.01807 -1.60422 0
      vertex -1.21111 -1.46397 0
    endloop
  endfacet
  facet normal -0.58778 -0.809021 -0
    outer loop
      vertex -1.01807 -1.60422 0
      vertex -1.21111 -1.46397 -6
      vertex -1.01807 -1.60422 -6
    endloop
  endfacet
  facet normal -0.998026 -0.0628013 0
    outer loop
      vertex 1.5 0 -6
      vertex 1.48817 0.188 0
      vertex 1.48817 0.188 -6
    endloop
  endfacet
  facet normal -0.998026 -0.0628013 0
    outer loop
      vertex 1.48817 0.188 0
      vertex 1.5 0 -6
      vertex 1.5 0 0
    endloop
  endfacet
  facet normal 0.998026 -0.0628013 0
    outer loop
      vertex -1.5 0 0
      vertex -1.48817 0.188 -6
      vertex -1.48817 0.188 0
    endloop
  endfacet
  facet normal 0.998026 -0.0628013 0
    outer loop
      vertex -1.48817 0.188 -6
      vertex -1.5 0 0
      vertex -1.5 0 -6
    endloop
  endfacet
  facet normal 0 -1 0
    outer loop
      vertex -0.0941849 1.49704 -6
      vertex 0.0941849 1.49704 0
      vertex -0.0941849 1.49704 0
    endloop
  endfacet
  facet normal 0 -1 -0
    outer loop
      vertex 0.0941849 1.49704 0
      vertex -0.0941849 1.49704 -6
      vertex 0.0941849 1.49704 -6
    endloop
  endfacet
  facet normal -0.684557 -0.728959 0
    outer loop
      vertex 0.956136 1.15577 -6
      vertex 1.09345 1.02682 0
      vertex 0.956136 1.15577 0
    endloop
  endfacet
  facet normal -0.684557 -0.728959 -0
    outer loop
      vertex 1.09345 1.02682 0
      vertex 0.956136 1.15577 -6
      vertex 1.09345 1.02682 -6
    endloop
  endfacet
  facet normal 0.684557 -0.728959 0
    outer loop
      vertex -1.09345 1.02682 -6
      vertex -0.956136 1.15577 0
      vertex -1.09345 1.02682 0
    endloop
  endfacet
  facet normal 0.684557 -0.728959 0
    outer loop
      vertex -0.956136 1.15577 0
      vertex -1.09345 1.02682 -6
      vertex -0.956136 1.15577 -6
    endloop
  endfacet
  facet normal 0.368106 -0.929784 0
    outer loop
      vertex -0.638668 1.35724 -6
      vertex -0.463525 1.42658 0
      vertex -0.638668 1.35724 0
    endloop
  endfacet
  facet normal 0.368106 -0.929784 0
    outer loop
      vertex -0.463525 1.42658 0
      vertex -0.638668 1.35724 -6
      vertex -0.463525 1.42658 -6
    endloop
  endfacet
  facet normal -0.904838 -0.425756 0
    outer loop
      vertex 1.39466 0.552186 -6
      vertex 1.31446 0.722631 0
      vertex 1.31446 0.722631 -6
    endloop
  endfacet
  facet normal -0.904838 -0.425756 0
    outer loop
      vertex 1.31446 0.722631 0
      vertex 1.39466 0.552186 -6
      vertex 1.39466 0.552186 0
    endloop
  endfacet
  facet normal -0.982284 -0.187396 0
    outer loop
      vertex 1.48817 0.188 -6
      vertex 1.45287 0.373034 0
      vertex 1.45287 0.373034 -6
    endloop
  endfacet
  facet normal -0.982284 -0.187396 0
    outer loop
      vertex 1.45287 0.373034 0
      vertex 1.48817 0.188 -6
      vertex 1.48817 0.188 0
    endloop
  endfacet
  facet normal -0.368106 -0.929784 0
    outer loop
      vertex 0.463525 1.42658 -6
      vertex 0.638668 1.35724 0
      vertex 0.463525 1.42658 0
    endloop
  endfacet
  facet normal -0.368106 -0.929784 -0
    outer loop
      vertex 0.638668 1.35724 0
      vertex 0.463525 1.42658 -6
      vertex 0.638668 1.35724 -6
    endloop
  endfacet
  facet normal -0.24871 -0.968578 0
    outer loop
      vertex 0.281072 1.47343 -6
      vertex 0.463525 1.42658 0
      vertex 0.281072 1.47343 0
    endloop
  endfacet
  facet normal -0.24871 -0.968578 -0
    outer loop
      vertex 0.463525 1.42658 0
      vertex 0.281072 1.47343 -6
      vertex 0.463525 1.42658 -6
    endloop
  endfacet
  facet normal -0.587778 -0.809022 0
    outer loop
      vertex 0.80374 1.26649 -6
      vertex 0.956136 1.15577 0
      vertex 0.80374 1.26649 0
    endloop
  endfacet
  facet normal -0.587778 -0.809022 -0
    outer loop
      vertex 0.956136 1.15577 0
      vertex 0.80374 1.26649 -6
      vertex 0.956136 1.15577 -6
    endloop
  endfacet
  facet normal 0.904838 -0.425756 0
    outer loop
      vertex -1.39466 0.552186 0
      vertex -1.31446 0.722631 -6
      vertex -1.31446 0.722631 0
    endloop
  endfacet
  facet normal 0.904838 -0.425756 0
    outer loop
      vertex -1.31446 0.722631 -6
      vertex -1.39466 0.552186 0
      vertex -1.39466 0.552186 -6
    endloop
  endfacet
  facet normal 0.844314 -0.535848 0
    outer loop
      vertex -1.31446 0.722631 0
      vertex -1.21352 0.881678 -6
      vertex -1.21352 0.881678 0
    endloop
  endfacet
  facet normal 0.844314 -0.535848 0
    outer loop
      vertex -1.21352 0.881678 -6
      vertex -1.31446 0.722631 0
      vertex -1.31446 0.722631 -6
    endloop
  endfacet
  facet normal 0.951057 -0.309017 0
    outer loop
      vertex -1.45287 0.373034 0
      vertex -1.39466 0.552186 -6
      vertex -1.39466 0.552186 0
    endloop
  endfacet
  facet normal 0.951057 -0.309017 0
    outer loop
      vertex -1.39466 0.552186 -6
      vertex -1.45287 0.373034 0
      vertex -1.45287 0.373034 -6
    endloop
  endfacet
  facet normal 0.587778 -0.809022 0
    outer loop
      vertex -0.956136 1.15577 -6
      vertex -0.80374 1.26649 0
      vertex -0.956136 1.15577 0
    endloop
  endfacet
  facet normal 0.587778 -0.809022 0
    outer loop
      vertex -0.80374 1.26649 0
      vertex -0.956136 1.15577 -6
      vertex -0.80374 1.26649 -6
    endloop
  endfacet
  facet normal 0.125337 -0.992114 0
    outer loop
      vertex -0.281072 1.47343 -6
      vertex -0.0941849 1.49704 0
      vertex -0.281072 1.47343 0
    endloop
  endfacet
  facet normal 0.125337 -0.992114 0
    outer loop
      vertex -0.0941849 1.49704 0
      vertex -0.281072 1.47343 -6
      vertex -0.0941849 1.49704 -6
    endloop
  endfacet
  facet normal -0.998026 0.0628013 0
    outer loop
      vertex 1.48817 -0.188 -6
      vertex 1.5 0 0
      vertex 1.5 0 -6
    endloop
  endfacet
  facet normal -0.998026 0.0628013 0
    outer loop
      vertex 1.5 0 0
      vertex 1.48817 -0.188 -6
      vertex 1.48817 -0.188 0
    endloop
  endfacet
  facet normal 0.24871 0.968578 -0
    outer loop
      vertex -0.281072 -1.47343 -6
      vertex -0.463525 -1.42658 0
      vertex -0.281072 -1.47343 0
    endloop
  endfacet
  facet normal 0.24871 0.968578 0
    outer loop
      vertex -0.463525 -1.42658 0
      vertex -0.281072 -1.47343 -6
      vertex -0.463525 -1.42658 -6
    endloop
  endfacet
  facet normal 0.904838 0.425756 0
    outer loop
      vertex -1.31446 -0.722631 0
      vertex -1.39466 -0.552186 -6
      vertex -1.39466 -0.552186 0
    endloop
  endfacet
  facet normal 0.904838 0.425756 0
    outer loop
      vertex -1.39466 -0.552186 -6
      vertex -1.31446 -0.722631 0
      vertex -1.31446 -0.722631 -6
    endloop
  endfacet
  facet normal -0.125337 0.992114 0
    outer loop
      vertex 0.281072 -1.47343 -6
      vertex 0.0941849 -1.49704 0
      vertex 0.281072 -1.47343 0
    endloop
  endfacet
  facet normal -0.125337 0.992114 0
    outer loop
      vertex 0.0941849 -1.49704 0
      vertex 0.281072 -1.47343 -6
      vertex 0.0941849 -1.49704 -6
    endloop
  endfacet
  facet normal -0.951057 -0.309017 0
    outer loop
      vertex 1.45287 0.373034 -6
      vertex 1.39466 0.552186 0
      vertex 1.39466 0.552186 -6
    endloop
  endfacet
  facet normal -0.951057 -0.309017 0
    outer loop
      vertex 1.39466 0.552186 0
      vertex 1.45287 0.373034 -6
      vertex 1.45287 0.373034 0
    endloop
  endfacet
  facet normal -0.770518 -0.637418 0
    outer loop
      vertex 1.21352 0.881678 -6
      vertex 1.09345 1.02682 0
      vertex 1.09345 1.02682 -6
    endloop
  endfacet
  facet normal -0.770518 -0.637418 0
    outer loop
      vertex 1.09345 1.02682 0
      vertex 1.21352 0.881678 -6
      vertex 1.21352 0.881678 0
    endloop
  endfacet
  facet normal -0.844314 -0.535848 0
    outer loop
      vertex 1.31446 0.722631 -6
      vertex 1.21352 0.881678 0
      vertex 1.21352 0.881678 -6
    endloop
  endfacet
  facet normal -0.844314 -0.535848 0
    outer loop
      vertex 1.21352 0.881678 0
      vertex 1.31446 0.722631 -6
      vertex 1.31446 0.722631 0
    endloop
  endfacet
  facet normal -0.125337 -0.992114 0
    outer loop
      vertex 0.0941849 1.49704 -6
      vertex 0.281072 1.47343 0
      vertex 0.0941849 1.49704 0
    endloop
  endfacet
  facet normal -0.125337 -0.992114 -0
    outer loop
      vertex 0.281072 1.47343 0
      vertex 0.0941849 1.49704 -6
      vertex 0.281072 1.47343 -6
    endloop
  endfacet
  facet normal -0.481757 -0.876305 0
    outer loop
      vertex 0.638668 1.35724 -6
      vertex 0.80374 1.26649 0
      vertex 0.638668 1.35724 0
    endloop
  endfacet
  facet normal -0.481757 -0.876305 -0
    outer loop
      vertex 0.80374 1.26649 0
      vertex 0.638668 1.35724 -6
      vertex 0.80374 1.26649 -6
    endloop
  endfacet
  facet normal 0.770518 -0.637418 0
    outer loop
      vertex -1.21352 0.881678 0
      vertex -1.09345 1.02682 -6
      vertex -1.09345 1.02682 0
    endloop
  endfacet
  facet normal 0.770518 -0.637418 0
    outer loop
      vertex -1.09345 1.02682 -6
      vertex -1.21352 0.881678 0
      vertex -1.21352 0.881678 -6
    endloop
  endfacet
  facet normal 0.982284 -0.187396 0
    outer loop
      vertex -1.48817 0.188 0
      vertex -1.45287 0.373034 -6
      vertex -1.45287 0.373034 0
    endloop
  endfacet
  facet normal 0.982284 -0.187396 0
    outer loop
      vertex -1.45287 0.373034 -6
      vertex -1.48817 0.188 0
      vertex -1.48817 0.188 -6
    endloop
  endfacet
  facet normal 0.481757 -0.876305 0
    outer loop
      vertex -0.80374 1.26649 -6
      vertex -0.638668 1.35724 0
      vertex -0.80374 1.26649 0
    endloop
  endfacet
  facet normal 0.481757 -0.876305 0
    outer loop
      vertex -0.638668 1.35724 0
      vertex -0.80374 1.26649 -6
      vertex -0.638668 1.35724 -6
    endloop
  endfacet
  facet normal -0.951057 0.309017 0
    outer loop
      vertex 1.39466 -0.552186 -6
      vertex 1.45287 -0.373034 0
      vertex 1.45287 -0.373034 -6
    endloop
  endfacet
  facet normal -0.951057 0.309017 0
    outer loop
      vertex 1.45287 -0.373034 0
      vertex 1.39466 -0.552186 -6
      vertex 1.39466 -0.552186 0
    endloop
  endfacet
  facet normal -0.982284 0.187396 0
    outer loop
      vertex 1.45287 -0.373034 -6
      vertex 1.48817 -0.188 0
      vertex 1.48817 -0.188 -6
    endloop
  endfacet
  facet normal -0.982284 0.187396 0
    outer loop
      vertex 1.48817 -0.188 0
      vertex 1.45287 -0.373034 -6
      vertex 1.45287 -0.373034 0
    endloop
  endfacet
  facet normal 0.125337 0.992114 -0
    outer loop
      vertex -0.0941849 -1.49704 -6
      vertex -0.281072 -1.47343 0
      vertex -0.0941849 -1.49704 0
    endloop
  endfacet
  facet normal 0.125337 0.992114 0
    outer loop
      vertex -0.281072 -1.47343 0
      vertex -0.0941849 -1.49704 -6
      vertex -0.281072 -1.47343 -6
    endloop
  endfacet
  facet normal 0.951057 0.309017 0
    outer loop
      vertex -1.39466 -0.552186 0
      vertex -1.45287 -0.373034 -6
      vertex -1.45287 -0.373034 0
    endloop
  endfacet
  facet normal 0.951057 0.309017 0
    outer loop
      vertex -1.45287 -0.373034 -6
      vertex -1.39466 -0.552186 0
      vertex -1.39466 -0.552186 -6
    endloop
  endfacet
  facet normal -0.368106 0.929784 0
    outer loop
      vertex 0.638668 -1.35724 -6
      vertex 0.463525 -1.42658 0
      vertex 0.638668 -1.35724 0
    endloop
  endfacet
  facet normal -0.368106 0.929784 0
    outer loop
      vertex 0.463525 -1.42658 0
      vertex 0.638668 -1.35724 -6
      vertex 0.463525 -1.42658 -6
    endloop
  endfacet
  facet normal -0.24871 0.968578 0
    outer loop
      vertex 0.463525 -1.42658 -6
      vertex 0.281072 -1.47343 0
      vertex 0.463525 -1.42658 0
    endloop
  endfacet
  facet normal -0.24871 0.968578 0
    outer loop
      vertex 0.281072 -1.47343 0
      vertex 0.463525 -1.42658 -6
      vertex 0.281072 -1.47343 -6
    endloop
  endfacet
  facet normal 0.24871 -0.968578 0
    outer loop
      vertex -0.463525 1.42658 -6
      vertex -0.281072 1.47343 0
      vertex -0.463525 1.42658 0
    endloop
  endfacet
  facet normal 0.24871 -0.968578 0
    outer loop
      vertex -0.281072 1.47343 0
      vertex -0.463525 1.42658 -6
      vertex -0.281072 1.47343 -6
    endloop
  endfacet
  facet normal -0.481757 0.876305 0
    outer loop
      vertex 0.80374 -1.26649 -6
      vertex 0.638668 -1.35724 0
      vertex 0.80374 -1.26649 0
    endloop
  endfacet
  facet normal -0.481757 0.876305 0
    outer loop
      vertex 0.638668 -1.35724 0
      vertex 0.80374 -1.26649 -6
      vertex 0.638668 -1.35724 -6
    endloop
  endfacet
  facet normal -0.684557 0.728959 0
    outer loop
      vertex 1.09345 -1.02682 -6
      vertex 0.956136 -1.15577 0
      vertex 1.09345 -1.02682 0
    endloop
  endfacet
  facet normal -0.684557 0.728959 0
    outer loop
      vertex 0.956136 -1.15577 0
      vertex 1.09345 -1.02682 -6
      vertex 0.956136 -1.15577 -6
    endloop
  endfacet
  facet normal -0.904838 0.425756 0
    outer loop
      vertex 1.31446 -0.722631 -6
      vertex 1.39466 -0.552186 0
      vertex 1.39466 -0.552186 -6
    endloop
  endfacet
  facet normal -0.904838 0.425756 0
    outer loop
      vertex 1.39466 -0.552186 0
      vertex 1.31446 -0.722631 -6
      vertex 1.31446 -0.722631 0
    endloop
  endfacet
  facet normal -0.770518 0.637418 0
    outer loop
      vertex 1.09345 -1.02682 -6
      vertex 1.21352 -0.881678 0
      vertex 1.21352 -0.881678 -6
    endloop
  endfacet
  facet normal -0.770518 0.637418 0
    outer loop
      vertex 1.21352 -0.881678 0
      vertex 1.09345 -1.02682 -6
      vertex 1.09345 -1.02682 0
    endloop
  endfacet
  facet normal 0.368106 0.929784 -0
    outer loop
      vertex -0.463525 -1.42658 -6
      vertex -0.638668 -1.35724 0
      vertex -0.463525 -1.42658 0
    endloop
  endfacet
  facet normal 0.368106 0.929784 0
    outer loop
      vertex -0.638668 -1.35724 0
      vertex -0.463525 -1.42658 -6
      vertex -0.638668 -1.35724 -6
    endloop
  endfacet
  facet normal 0.684557 0.728959 -0
    outer loop
      vertex -0.956136 -1.15577 -6
      vertex -1.09345 -1.02682 0
      vertex -0.956136 -1.15577 0
    endloop
  endfacet
  facet normal 0.684557 0.728959 0
    outer loop
      vertex -1.09345 -1.02682 0
      vertex -0.956136 -1.15577 -6
      vertex -1.09345 -1.02682 -6
    endloop
  endfacet
  facet normal 0.998026 0.0628013 0
    outer loop
      vertex -1.48817 -0.188 0
      vertex -1.5 0 -6
      vertex -1.5 0 0
    endloop
  endfacet
  facet normal 0.998026 0.0628013 0
    outer loop
      vertex -1.5 0 -6
      vertex -1.48817 -0.188 0
      vertex -1.48817 -0.188 -6
    endloop
  endfacet
  facet normal 0.982284 0.187396 0
    outer loop
      vertex -1.45287 -0.373034 0
      vertex -1.48817 -0.188 -6
      vertex -1.48817 -0.188 0
    endloop
  endfacet
  facet normal 0.982284 0.187396 0
    outer loop
      vertex -1.48817 -0.188 -6
      vertex -1.45287 -0.373034 0
      vertex -1.45287 -0.373034 -6
    endloop
  endfacet
  facet normal -0.587778 0.809022 0
    outer loop
      vertex 0.956136 -1.15577 -6
      vertex 0.80374 -1.26649 0
      vertex 0.956136 -1.15577 0
    endloop
  endfacet
  facet normal -0.587778 0.809022 0
    outer loop
      vertex 0.80374 -1.26649 0
      vertex 0.956136 -1.15577 -6
      vertex 0.80374 -1.26649 -6
    endloop
  endfacet
  facet normal -0.844314 0.535848 0
    outer loop
      vertex 1.21352 -0.881678 -6
      vertex 1.31446 -0.722631 0
      vertex 1.31446 -0.722631 -6
    endloop
  endfacet
  facet normal -0.844314 0.535848 0
    outer loop
      vertex 1.31446 -0.722631 0
      vertex 1.21352 -0.881678 -6
      vertex 1.21352 -0.881678 0
    endloop
  endfacet
  facet normal 0 1 -0
    outer loop
      vertex 0.0941849 -1.49704 -6
      vertex -0.0941849 -1.49704 0
      vertex 0.0941849 -1.49704 0
    endloop
  endfacet
  facet normal 0 1 0
    outer loop
      vertex -0.0941849 -1.49704 0
      vertex 0.0941849 -1.49704 -6
      vertex -0.0941849 -1.49704 -6
    endloop
  endfacet
  facet normal 0.844314 0.535848 0
    outer loop
      vertex -1.21352 -0.881678 0
      vertex -1.31446 -0.722631 -6
      vertex -1.31446 -0.722631 0
    endloop
  endfacet
  facet normal 0.844314 0.535848 0
    outer loop
      vertex -1.31446 -0.722631 -6
      vertex -1.21352 -0.881678 0
      vertex -1.21352 -0.881678 -6
    endloop
  endfacet
  facet normal 0.770518 0.637418 0
    outer loop
      vertex -1.09345 -1.02682 0
      vertex -1.21352 -0.881678 -6
      vertex -1.21352 -0.881678 0
    endloop
  endfacet
  facet normal 0.770518 0.637418 0
    outer loop
      vertex -1.21352 -0.881678 -6
      vertex -1.09345 -1.02682 0
      vertex -1.09345 -1.02682 -6
    endloop
  endfacet
  facet normal 0.481757 0.876305 -0
    outer loop
      vertex -0.638668 -1.35724 -6
      vertex -0.80374 -1.26649 0
      vertex -0.638668 -1.35724 0
    endloop
  endfacet
  facet normal 0.481757 0.876305 0
    outer loop
      vertex -0.80374 -1.26649 0
      vertex -0.638668 -1.35724 -6
      vertex -0.80374 -1.26649 -6
    endloop
  endfacet
  facet normal 0.587778 0.809022 -0
    outer loop
      vertex -0.80374 -1.26649 -6
      vertex -0.956136 -1.15577 0
      vertex -0.80374 -1.26649 0
    endloop
  endfacet
  facet normal 0.587778 0.809022 0
    outer loop
      vertex -0.956136 -1.15577 0
      vertex -0.80374 -1.26649 -6
      vertex -0.956136 -1.15577 -6
    endloop
  endfacet
endsolid OpenSCAD_Model
