<?xml version="1.0" standalone="no"?>
<!DOCTYPE svg PUBLIC "-//W3C//DTD SVG 1.1//EN" "http://www.w3.org/Graphics/SVG/1.1/DTD/svg11.dtd">
<svg width="40mm" height="186mm" viewBox="-21 -366 40 186" xmlns="http://www.w3.org/2000/svg" version="1.1">
<title>OpenSCAD Model</title>
<path d="
M -17.25,-338.507 L -16.8948,-338.077 L -16.4371,-337.647 L -15.9291,-337.278 L -15.3789,-336.976 L -14.7951,-336.745
 L -14.1869,-336.589 L -13.5639,-336.51 L 13.5639,-336.51 L 14.1869,-336.589 L 14.7951,-336.745 L 15.3789,-336.976
 L 15.9291,-337.278 L 16.4371,-337.647 L 16.8948,-338.077 L 17.2951,-338.561 L 17.6315,-339.091 L 17.8989,-339.659
 L 18.0929,-340.257 L 18.2106,-340.873 L 18.25,-341.5 L 18.25,-360.5 L 18.2106,-361.127 L 18.0929,-361.743
 L 17.8989,-362.341 L 17.6315,-362.909 L 17.2951,-363.439 L 16.8948,-363.923 L 16.4371,-364.353 L 15.9291,-364.722
 L 15.3789,-365.024 L 14.7951,-365.255 L 14.1869,-365.411 L 13.5639,-365.49 L -13.5639,-365.49 L -14.1869,-365.411
 L -14.7951,-365.255 L -15.3789,-365.024 L -15.9291,-364.722 L -16.4371,-364.353 L -16.8948,-363.923 L -17.25,-363.493
 L -17.25,-365.99 L -20.25,-365.99 L -20.25,-336.01 L -17.25,-336.01 z
M -13.5012,-337.508 L -13.9995,-337.571 L -14.4861,-337.696 L -14.9531,-337.881 L -15.3933,-338.123 L -15.7997,-338.418
 L -16.1659,-338.762 L -16.4861,-339.149 L -16.7552,-339.573 L -16.9691,-340.028 L -17.1243,-340.505 L -17.2184,-340.999
 L -17.25,-341.5 L -17.25,-360.5 L -17.2184,-361.001 L -17.1243,-361.495 L -16.9691,-361.972 L -16.7552,-362.427
 L -16.4861,-362.851 L -16.1659,-363.238 L -15.7997,-363.582 L -15.3933,-363.877 L -14.9531,-364.119 L -14.4861,-364.304
 L -13.9995,-364.429 L -13.5012,-364.492 L 13.5012,-364.492 L 13.9995,-364.429 L 14.4861,-364.304 L 14.9531,-364.119
 L 15.3933,-363.877 L 15.7997,-363.582 L 16.1659,-363.238 L 16.4861,-362.851 L 16.7552,-362.427 L 16.9691,-361.972
 L 17.1243,-361.495 L 17.2184,-361.001 L 17.25,-360.5 L 17.25,-341.5 L 17.2184,-340.999 L 17.1243,-340.505
 L 16.9691,-340.028 L 16.7552,-339.573 L 16.4861,-339.149 L 16.1659,-338.762 L 15.7997,-338.418 L 15.3933,-338.123
 L 14.9531,-337.881 L 14.4861,-337.696 L 13.9995,-337.571 L 13.5012,-337.508 z
M -17.25,-299.507 L -16.8948,-299.077 L -16.4371,-298.647 L -15.9291,-298.278 L -15.3789,-297.976 L -14.7951,-297.745
 L -14.1869,-297.589 L -13.5639,-297.51 L 13.5639,-297.51 L 14.1869,-297.589 L 14.7951,-297.745 L 15.3789,-297.976
 L 15.9291,-298.278 L 16.4371,-298.647 L 16.8948,-299.077 L 17.2951,-299.561 L 17.6315,-300.091 L 17.8989,-300.659
 L 18.0929,-301.257 L 18.2106,-301.873 L 18.25,-302.5 L 18.25,-321.5 L 18.2106,-322.127 L 18.0929,-322.743
 L 17.8989,-323.341 L 17.6315,-323.909 L 17.2951,-324.439 L 16.8948,-324.923 L 16.4371,-325.353 L 15.9291,-325.722
 L 15.3789,-326.024 L 14.7951,-326.255 L 14.1869,-326.411 L 13.5639,-326.49 L -13.5639,-326.49 L -14.1869,-326.411
 L -14.7951,-326.255 L -15.3789,-326.024 L -15.9291,-325.722 L -16.4371,-325.353 L -16.8948,-324.923 L -17.25,-324.493
 L -17.25,-326.99 L -20.25,-326.99 L -20.25,-297.01 L -17.25,-297.01 z
M -13.5012,-298.508 L -13.9995,-298.571 L -14.4861,-298.696 L -14.9531,-298.881 L -15.3933,-299.123 L -15.7997,-299.418
 L -16.1659,-299.762 L -16.4861,-300.149 L -16.7552,-300.573 L -16.9691,-301.028 L -17.1243,-301.505 L -17.2184,-301.999
 L -17.25,-302.5 L -17.25,-321.5 L -17.2184,-322.001 L -17.1243,-322.495 L -16.9691,-322.972 L -16.7552,-323.427
 L -16.4861,-323.851 L -16.1659,-324.238 L -15.7997,-324.582 L -15.3933,-324.877 L -14.9531,-325.119 L -14.4861,-325.304
 L -13.9995,-325.429 L -13.5012,-325.492 L 13.5012,-325.492 L 13.9995,-325.429 L 14.4861,-325.304 L 14.9531,-325.119
 L 15.3933,-324.877 L 15.7997,-324.582 L 16.1659,-324.238 L 16.4861,-323.851 L 16.7552,-323.427 L 16.9691,-322.972
 L 17.1243,-322.495 L 17.2184,-322.001 L 17.25,-321.5 L 17.25,-302.5 L 17.2184,-301.999 L 17.1243,-301.505
 L 16.9691,-301.028 L 16.7552,-300.573 L 16.4861,-300.149 L 16.1659,-299.762 L 15.7997,-299.418 L 15.3933,-299.123
 L 14.9531,-298.881 L 14.4861,-298.696 L 13.9995,-298.571 L 13.5012,-298.508 z
M -17.25,-260.507 L -16.8948,-260.077 L -16.4371,-259.647 L -15.9291,-259.278 L -15.3789,-258.976 L -14.7951,-258.745
 L -14.1869,-258.589 L -13.5639,-258.51 L 13.5639,-258.51 L 14.1869,-258.589 L 14.7951,-258.745 L 15.3789,-258.976
 L 15.9291,-259.278 L 16.4371,-259.647 L 16.8948,-260.077 L 17.2951,-260.561 L 17.6315,-261.091 L 17.8989,-261.659
 L 18.0929,-262.257 L 18.2106,-262.873 L 18.25,-263.5 L 18.25,-282.5 L 18.2106,-283.127 L 18.0929,-283.743
 L 17.8989,-284.341 L 17.6315,-284.909 L 17.2951,-285.439 L 16.8948,-285.923 L 16.4371,-286.353 L 15.9291,-286.722
 L 15.3789,-287.024 L 14.7951,-287.255 L 14.1869,-287.411 L 13.5639,-287.49 L -13.5639,-287.49 L -14.1869,-287.411
 L -14.7951,-287.255 L -15.3789,-287.024 L -15.9291,-286.722 L -16.4371,-286.353 L -16.8948,-285.923 L -17.25,-285.493
 L -17.25,-287.99 L -20.25,-287.99 L -20.25,-258.01 L -17.25,-258.01 z
M -13.5012,-259.508 L -13.9995,-259.571 L -14.4861,-259.696 L -14.9531,-259.881 L -15.3933,-260.123 L -15.7997,-260.418
 L -16.1659,-260.762 L -16.4861,-261.149 L -16.7552,-261.573 L -16.9691,-262.028 L -17.1243,-262.505 L -17.2184,-262.999
 L -17.25,-263.5 L -17.25,-282.5 L -17.2184,-283.001 L -17.1243,-283.495 L -16.9691,-283.972 L -16.7552,-284.427
 L -16.4861,-284.851 L -16.1659,-285.238 L -15.7997,-285.582 L -15.3933,-285.877 L -14.9531,-286.119 L -14.4861,-286.304
 L -13.9995,-286.429 L -13.5012,-286.492 L 13.5012,-286.492 L 13.9995,-286.429 L 14.4861,-286.304 L 14.9531,-286.119
 L 15.3933,-285.877 L 15.7997,-285.582 L 16.1659,-285.238 L 16.4861,-284.851 L 16.7552,-284.427 L 16.9691,-283.972
 L 17.1243,-283.495 L 17.2184,-283.001 L 17.25,-282.5 L 17.25,-263.5 L 17.2184,-262.999 L 17.1243,-262.505
 L 16.9691,-262.028 L 16.7552,-261.573 L 16.4861,-261.149 L 16.1659,-260.762 L 15.7997,-260.418 L 15.3933,-260.123
 L 14.9531,-259.881 L 14.4861,-259.696 L 13.9995,-259.571 L 13.5012,-259.508 z
M -17.25,-221.507 L -16.8948,-221.077 L -16.4371,-220.647 L -15.9291,-220.278 L -15.3789,-219.976 L -14.7951,-219.745
 L -14.1869,-219.589 L -13.5639,-219.51 L 13.5639,-219.51 L 14.1869,-219.589 L 14.7951,-219.745 L 15.3789,-219.976
 L 15.9291,-220.278 L 16.4371,-220.647 L 16.8948,-221.077 L 17.2951,-221.561 L 17.6315,-222.091 L 17.8989,-222.659
 L 18.0929,-223.257 L 18.2106,-223.873 L 18.25,-224.5 L 18.25,-243.5 L 18.2106,-244.127 L 18.0929,-244.743
 L 17.8989,-245.341 L 17.6315,-245.909 L 17.2951,-246.439 L 16.8948,-246.923 L 16.4371,-247.353 L 15.9291,-247.722
 L 15.3789,-248.024 L 14.7951,-248.255 L 14.1869,-248.411 L 13.5639,-248.49 L -13.5639,-248.49 L -14.1869,-248.411
 L -14.7951,-248.255 L -15.3789,-248.024 L -15.9291,-247.722 L -16.4371,-247.353 L -16.8948,-246.923 L -17.25,-246.493
 L -17.25,-248.979 L -20.25,-248.979 L -20.25,-219.021 L -17.25,-219.021 z
M -13.4454,-221.393 L -13.8333,-221.442 L -14.2119,-221.539 L -14.5754,-221.683 L -14.918,-221.872 L -15.2342,-222.101
 L -15.5192,-222.369 L -15.7684,-222.67 L -15.9779,-223 L -16.1443,-223.354 L -16.2651,-223.726 L -16.3384,-224.11
 L -16.3629,-224.5 L -16.3629,-243.5 L -16.3384,-243.89 L -16.2651,-244.274 L -16.1443,-244.646 L -15.9779,-245
 L -15.7684,-245.33 L -15.5192,-245.631 L -15.2342,-245.899 L -14.918,-246.128 L -14.5754,-246.317 L -14.2119,-246.461
 L -13.8333,-246.558 L -13.4454,-246.607 L 13.4454,-246.607 L 13.8333,-246.558 L 14.2119,-246.461 L 14.5754,-246.317
 L 14.918,-246.128 L 15.2342,-245.899 L 15.5192,-245.631 L 15.7684,-245.33 L 15.9779,-245 L 16.1443,-244.646
 L 16.2651,-244.274 L 16.3384,-243.89 L 16.3629,-243.5 L 16.3629,-224.5 L 16.3384,-224.11 L 16.2651,-223.726
 L 16.1443,-223.354 L 15.9779,-223 L 15.7684,-222.67 L 15.5192,-222.369 L 15.2342,-222.101 L 14.918,-221.872
 L 14.5754,-221.683 L 14.2119,-221.539 L 13.8333,-221.442 L 13.4454,-221.393 z
M 14.1869,-180.589 L 14.7951,-180.745 L 15.3789,-180.976 L 15.9291,-181.278 L 16.4371,-181.647 L 16.8948,-182.077
 L 17.2951,-182.561 L 17.6315,-183.091 L 17.8989,-183.659 L 18.0929,-184.257 L 18.2106,-184.873 L 18.25,-185.5
 L 18.25,-204.5 L 18.2106,-205.127 L 18.0929,-205.743 L 17.8989,-206.341 L 17.6315,-206.909 L 17.2951,-207.439
 L 16.8948,-207.923 L 16.4371,-208.353 L 15.9291,-208.722 L 15.3789,-209.024 L 14.7951,-209.255 L 14.1869,-209.411
 L 13.5639,-209.49 L -13.5639,-209.49 L -14.1869,-209.411 L -14.7951,-209.255 L -15.3789,-209.024 L -15.9291,-208.722
 L -16.4371,-208.353 L -16.8948,-207.923 L -17.25,-207.493 L -17.25,-208.653 L -20.25,-208.653 L -20.25,-181.347
 L -17.25,-181.347 L -17.25,-182.507 L -16.8948,-182.077 L -16.4371,-181.647 L -15.9291,-181.278 L -15.3789,-180.976
 L -14.7951,-180.745 L -14.1869,-180.589 L -13.5639,-180.51 L 13.5639,-180.51 z
M -11.4007,-200.105 L -11.6997,-200.143 L -11.9916,-200.217 L -12.2719,-200.328 L -12.536,-200.474 L -12.7798,-200.651
 L -12.9995,-200.857 L -13.1916,-201.089 L -13.3531,-201.344 L -13.4815,-201.617 L -13.5746,-201.903 L -13.6311,-202.199
 L -13.65,-202.5 L -13.6311,-202.801 L -13.5746,-203.097 L -13.4815,-203.383 L -13.3531,-203.656 L -13.1916,-203.911
 L -12.9995,-204.143 L -12.7798,-204.349 L -12.536,-204.526 L -12.2719,-204.672 L -11.9916,-204.783 L -11.6997,-204.857
 L -11.4007,-204.895 L -11.0993,-204.895 L -10.8003,-204.857 L -10.5083,-204.783 L -10.2281,-204.672 L -9.964,-204.526
 L -9.72017,-204.349 L -9.50047,-204.143 L -9.30835,-203.911 L -9.14685,-203.656 L -9.01852,-203.383 L -8.9254,-203.097
 L -8.86891,-202.801 L -8.84999,-202.5 L -8.86891,-202.199 L -8.9254,-201.903 L -9.01852,-201.617 L -9.14685,-201.344
 L -9.30835,-201.089 L -9.50047,-200.857 L -9.72017,-200.651 L -9.964,-200.474 L -10.2281,-200.328 L -10.5083,-200.217
 L -10.8003,-200.143 L -11.0993,-200.105 z
M 11.0993,-200.105 L 10.8003,-200.143 L 10.5083,-200.217 L 10.2281,-200.328 L 9.964,-200.474 L 9.72017,-200.651
 L 9.50047,-200.857 L 9.30835,-201.089 L 9.14685,-201.344 L 9.01852,-201.617 L 8.9254,-201.903 L 8.86891,-202.199
 L 8.84999,-202.5 L 8.86891,-202.801 L 8.9254,-203.097 L 9.01852,-203.383 L 9.14685,-203.656 L 9.30835,-203.911
 L 9.50047,-204.143 L 9.72017,-204.349 L 9.964,-204.526 L 10.2281,-204.672 L 10.5083,-204.783 L 10.8003,-204.857
 L 11.0993,-204.895 L 11.4007,-204.895 L 11.6997,-204.857 L 11.9916,-204.783 L 12.2719,-204.672 L 12.536,-204.526
 L 12.7798,-204.349 L 12.9995,-204.143 L 13.1916,-203.911 L 13.3531,-203.656 L 13.4815,-203.383 L 13.5746,-203.097
 L 13.6311,-202.801 L 13.65,-202.5 L 13.6311,-202.199 L 13.5746,-201.903 L 13.4815,-201.617 L 13.3531,-201.344
 L 13.1916,-201.089 L 12.9995,-200.857 L 12.7798,-200.651 L 12.536,-200.474 L 12.2719,-200.328 L 11.9916,-200.217
 L 11.6997,-200.143 L 11.4007,-200.105 z
M 11.0993,-185.105 L 10.8003,-185.143 L 10.5083,-185.217 L 10.2281,-185.328 L 9.964,-185.474 L 9.72017,-185.651
 L 9.50047,-185.857 L 9.30835,-186.089 L 9.14685,-186.344 L 9.01852,-186.617 L 8.9254,-186.903 L 8.86891,-187.199
 L 8.84999,-187.5 L 8.86891,-187.801 L 8.9254,-188.097 L 9.01852,-188.383 L 9.14685,-188.656 L 9.30835,-188.911
 L 9.50047,-189.143 L 9.72017,-189.349 L 9.964,-189.526 L 10.2281,-189.672 L 10.5083,-189.783 L 10.8003,-189.857
 L 11.0993,-189.895 L 11.4007,-189.895 L 11.6997,-189.857 L 11.9916,-189.783 L 12.2719,-189.672 L 12.536,-189.526
 L 12.7798,-189.349 L 12.9995,-189.143 L 13.1916,-188.911 L 13.3531,-188.656 L 13.4815,-188.383 L 13.5746,-188.097
 L 13.6311,-187.801 L 13.65,-187.5 L 13.6311,-187.199 L 13.5746,-186.903 L 13.4815,-186.617 L 13.3531,-186.344
 L 13.1916,-186.089 L 12.9995,-185.857 L 12.7798,-185.651 L 12.536,-185.474 L 12.2719,-185.328 L 11.9916,-185.217
 L 11.6997,-185.143 L 11.4007,-185.105 z
M -11.4007,-185.105 L -11.6997,-185.143 L -11.9916,-185.217 L -12.2719,-185.328 L -12.536,-185.474 L -12.7798,-185.651
 L -12.9995,-185.857 L -13.1916,-186.089 L -13.3531,-186.344 L -13.4815,-186.617 L -13.5746,-186.903 L -13.6311,-187.199
 L -13.65,-187.5 L -13.6311,-187.801 L -13.5746,-188.097 L -13.4815,-188.383 L -13.3531,-188.656 L -13.1916,-188.911
 L -12.9995,-189.143 L -12.7798,-189.349 L -12.536,-189.526 L -12.2719,-189.672 L -11.9916,-189.783 L -11.6997,-189.857
 L -11.4007,-189.895 L -11.0993,-189.895 L -10.8003,-189.857 L -10.5083,-189.783 L -10.2281,-189.672 L -9.964,-189.526
 L -9.72017,-189.349 L -9.50047,-189.143 L -9.30835,-188.911 L -9.14685,-188.656 L -9.01852,-188.383 L -8.9254,-188.097
 L -8.86891,-187.801 L -8.84999,-187.5 L -8.86891,-187.199 L -8.9254,-186.903 L -9.01852,-186.617 L -9.14685,-186.344
 L -9.30835,-186.089 L -9.50047,-185.857 L -9.72017,-185.651 L -9.964,-185.474 L -10.2281,-185.328 L -10.5083,-185.217
 L -10.8003,-185.143 L -11.0993,-185.105 z
" stroke="black" fill="lightgray" stroke-width="0.5"/>
</svg>
