<?xml version="1.0" standalone="no"?>
<!DOCTYPE svg PUBLIC "-//W3C//DTD SVG 1.1//EN" "http://www.w3.org/Graphics/SVG/1.1/DTD/svg11.dtd">
<svg width="30mm" height="152mm" viewBox="-15 -292 30 152" xmlns="http://www.w3.org/2000/svg" version="1.1">
<title>OpenSCAD Model</title>
<path d="
M 10.4369,-248.089 L 11.0451,-248.245 L 11.6289,-248.476 L 12.1791,-248.778 L 12.6871,-249.147 L 13.1448,-249.577
 L 13.5451,-250.061 L 13.8815,-250.591 L 14.1489,-251.159 L 14.3429,-251.757 L 14.4606,-252.373 L 14.5,-253
 L 14.5,-287 L 14.4606,-287.627 L 14.3429,-288.243 L 14.1489,-288.841 L 13.8815,-289.409 L 13.5451,-289.939
 L 13.1448,-290.423 L 12.6871,-290.853 L 12.1791,-291.222 L 11.6289,-291.524 L 11.0451,-291.755 L 10.4369,-291.911
 L 9.81395,-291.99 L -9.81395,-291.99 L -10.4369,-291.911 L -11.0451,-291.755 L -11.6289,-291.524 L -12.1791,-291.222
 L -12.6871,-290.853 L -13.1448,-290.423 L -13.5451,-289.939 L -13.8815,-289.409 L -14.1489,-288.841 L -14.3429,-288.243
 L -14.4606,-287.627 L -14.5,-287 L -14.5,-253 L -14.4606,-252.373 L -14.3429,-251.757 L -14.1489,-251.159
 L -13.8815,-250.591 L -13.5451,-250.061 L -13.1448,-249.577 L -12.6871,-249.147 L -12.1791,-248.778 L -11.6289,-248.476
 L -11.0451,-248.245 L -10.4369,-248.089 L -9.81395,-248.01 L 9.81395,-248.01 z
M -9.54825,-248.509 L -10.1401,-248.584 L -10.7178,-248.732 L -11.2724,-248.952 L -11.7952,-249.239 L -12.2778,-249.59
 L -12.7126,-249.998 L -13.0928,-250.458 L -13.4124,-250.962 L -13.6664,-251.501 L -13.8508,-252.069 L -13.9625,-252.655
 L -14,-253.25 L -14,-286.75 L -13.9625,-287.345 L -13.8508,-287.931 L -13.6664,-288.499 L -13.4124,-289.038
 L -13.0928,-289.542 L -12.7126,-290.002 L -12.2778,-290.41 L -11.7952,-290.761 L -11.2724,-291.048 L -10.7178,-291.268
 L -10.1401,-291.416 L -9.54825,-291.491 L 9.54825,-291.491 L 10.1401,-291.416 L 10.7178,-291.268 L 11.2724,-291.048
 L 11.7952,-290.761 L 12.2778,-290.41 L 12.7126,-290.002 L 13.0928,-289.542 L 13.4124,-289.038 L 13.6664,-288.499
 L 13.8508,-287.931 L 13.9625,-287.345 L 14,-286.75 L 14,-253.25 L 13.9625,-252.655 L 13.8508,-252.069
 L 13.6664,-251.501 L 13.4124,-250.962 L 13.0928,-250.458 L 12.7126,-249.998 L 12.2778,-249.59 L 11.7952,-249.239
 L 11.2724,-248.952 L 10.7178,-248.732 L 10.1401,-248.584 L 9.54825,-248.509 z
M 10.4369,-194.089 L 11.0451,-194.245 L 11.6289,-194.476 L 12.1791,-194.778 L 12.6871,-195.147 L 13.1448,-195.577
 L 13.5451,-196.061 L 13.8815,-196.591 L 14.1489,-197.159 L 14.3429,-197.757 L 14.4606,-198.373 L 14.5,-199
 L 14.5,-233 L 14.4606,-233.627 L 14.3429,-234.243 L 14.1489,-234.841 L 13.8815,-235.409 L 13.5451,-235.939
 L 13.1448,-236.423 L 12.6871,-236.853 L 12.1791,-237.222 L 11.6289,-237.524 L 11.0451,-237.755 L 10.4369,-237.911
 L 9.81395,-237.99 L -9.81395,-237.99 L -10.4369,-237.911 L -11.0451,-237.755 L -11.6289,-237.524 L -12.1791,-237.222
 L -12.6871,-236.853 L -13.1448,-236.423 L -13.5451,-235.939 L -13.8815,-235.409 L -14.1489,-234.841 L -14.3429,-234.243
 L -14.4606,-233.627 L -14.5,-233 L -14.5,-199 L -14.4606,-198.373 L -14.3429,-197.757 L -14.1489,-197.159
 L -13.8815,-196.591 L -13.5451,-196.061 L -13.1448,-195.577 L -12.6871,-195.147 L -12.1791,-194.778 L -11.6289,-194.476
 L -11.0451,-194.245 L -10.4369,-194.089 L -9.81395,-194.01 L 9.81395,-194.01 z
M -9.53748,-194.681 L -10.1079,-194.753 L -10.6648,-194.896 L -11.1994,-195.107 L -11.7032,-195.384 L -12.1684,-195.722
 L -12.5875,-196.116 L -12.954,-196.559 L -13.2621,-197.044 L -13.5069,-197.565 L -13.6846,-198.111 L -13.7923,-198.676
 L -13.8284,-199.25 L -13.8284,-232.75 L -13.7923,-233.324 L -13.6846,-233.889 L -13.5069,-234.435 L -13.2621,-234.956
 L -12.954,-235.441 L -12.5875,-235.884 L -12.1684,-236.278 L -11.7032,-236.616 L -11.1994,-236.893 L -10.6648,-237.104
 L -10.1079,-237.247 L -9.53748,-237.319 L 9.53748,-237.319 L 10.1079,-237.247 L 10.6648,-237.104 L 11.1994,-236.893
 L 11.7032,-236.616 L 12.1684,-236.278 L 12.5875,-235.884 L 12.954,-235.441 L 13.2621,-234.956 L 13.5069,-234.435
 L 13.6846,-233.889 L 13.7923,-233.324 L 13.8284,-232.75 L 13.8284,-199.25 L 13.7923,-198.676 L 13.6846,-198.111
 L 13.5069,-197.565 L 13.2621,-197.044 L 12.954,-196.559 L 12.5875,-196.116 L 12.1684,-195.722 L 11.7032,-195.384
 L 11.1994,-195.107 L 10.6648,-194.896 L 10.1079,-194.753 L 9.53748,-194.681 z
M 10.4369,-140.089 L 11.0451,-140.245 L 11.6289,-140.476 L 12.1791,-140.778 L 12.6871,-141.147 L 13.1448,-141.577
 L 13.5451,-142.061 L 13.8815,-142.591 L 14.1489,-143.159 L 14.3429,-143.757 L 14.4606,-144.373 L 14.5,-145
 L 14.5,-179 L 14.4606,-179.627 L 14.3429,-180.243 L 14.1489,-180.841 L 13.8815,-181.409 L 13.5451,-181.939
 L 13.1448,-182.423 L 12.6871,-182.853 L 12.1791,-183.222 L 11.6289,-183.524 L 11.0451,-183.755 L 10.4369,-183.911
 L 9.81395,-183.99 L -9.81395,-183.99 L -10.4369,-183.911 L -11.0451,-183.755 L -11.6289,-183.524 L -12.1791,-183.222
 L -12.6871,-182.853 L -13.1448,-182.423 L -13.5451,-181.939 L -13.8815,-181.409 L -14.1489,-180.841 L -14.3429,-180.243
 L -14.4606,-179.627 L -14.5,-179 L -14.5,-145 L -14.4606,-144.373 L -14.3429,-143.757 L -14.1489,-143.159
 L -13.8815,-142.591 L -13.5451,-142.061 L -13.1448,-141.577 L -12.6871,-141.147 L -12.1791,-140.778 L -11.6289,-140.476
 L -11.0451,-140.245 L -10.4369,-140.089 L -9.81395,-140.01 L 9.81395,-140.01 z
M -9.38246,-143.145 L -9.64529,-143.178 L -9.9019,-143.244 L -10.1482,-143.341 L -10.3804,-143.469 L -10.5947,-143.625
 L -10.7878,-143.806 L -10.9567,-144.01 L -11.0987,-144.234 L -11.2115,-144.473 L -11.2934,-144.725 L -11.343,-144.986
 L -11.3596,-145.25 L -11.3596,-178.75 L -11.343,-179.014 L -11.2934,-179.275 L -11.2115,-179.527 L -11.0987,-179.766
 L -10.9567,-179.99 L -10.7878,-180.194 L -10.5947,-180.375 L -10.3804,-180.531 L -10.1482,-180.659 L -9.9019,-180.756
 L -9.64529,-180.822 L -9.38246,-180.855 L 9.38246,-180.855 L 9.64529,-180.822 L 9.9019,-180.756 L 10.1482,-180.659
 L 10.3804,-180.531 L 10.5947,-180.375 L 10.7878,-180.194 L 10.9567,-179.99 L 11.0987,-179.766 L 11.2115,-179.527
 L 11.2934,-179.275 L 11.343,-179.014 L 11.3596,-178.75 L 11.3596,-145.25 L 11.343,-144.986 L 11.2934,-144.725
 L 11.2115,-144.473 L 11.0987,-144.234 L 10.9567,-144.01 L 10.7878,-143.806 L 10.5947,-143.625 L 10.3804,-143.469
 L 10.1482,-143.341 L 9.9019,-143.244 L 9.64529,-143.178 L 9.38246,-143.145 z
" stroke="black" fill="lightgray" stroke-width="0.5"/>
</svg>
