  0
SECTION
  2
BLOCKS
  0
ENDSEC
  0
SECTION
  2
ENTITIES
  0
LINE
  8
0
 10
17.9369
 20
383.089
 11
18.5451
 21
383.245
  0
LINE
  8
0
 10
18.5451
 20
383.245
 11
19.1289
 21
383.476
  0
LINE
  8
0
 10
19.1289
 20
383.476
 11
19.6791
 21
383.778
  0
LINE
  8
0
 10
19.6791
 20
383.778
 11
20.1871
 21
384.147
  0
LINE
  8
0
 10
20.1871
 20
384.147
 11
20.6448
 21
384.577
  0
LINE
  8
0
 10
20.6448
 20
384.577
 11
21.0451
 21
385.061
  0
LINE
  8
0
 10
21.0451
 20
385.061
 11
21.3815
 21
385.591
  0
LINE
  8
0
 10
21.3815
 20
385.591
 11
21.6489
 21
386.159
  0
LINE
  8
0
 10
21.6489
 20
386.159
 11
21.8429
 21
386.757
  0
LINE
  8
0
 10
21.8429
 20
386.757
 11
21.9606
 21
387.373
  0
LINE
  8
0
 10
21.9606
 20
387.373
 11
22
 21
388
  0
LINE
  8
0
 10
22
 20
388
 11
22
 21
452
  0
LINE
  8
0
 10
22
 20
452
 11
21.9606
 21
452.627
  0
LINE
  8
0
 10
21.9606
 20
452.627
 11
21.8429
 21
453.243
  0
LINE
  8
0
 10
21.8429
 20
453.243
 11
21.6489
 21
453.841
  0
LINE
  8
0
 10
21.6489
 20
453.841
 11
21.3815
 21
454.409
  0
LINE
  8
0
 10
21.3815
 20
454.409
 11
21.0451
 21
454.939
  0
LINE
  8
0
 10
21.0451
 20
454.939
 11
20.6448
 21
455.423
  0
LINE
  8
0
 10
20.6448
 20
455.423
 11
20.1871
 21
455.853
  0
LINE
  8
0
 10
20.1871
 20
455.853
 11
19.6791
 21
456.222
  0
LINE
  8
0
 10
19.6791
 20
456.222
 11
19.1289
 21
456.524
  0
LINE
  8
0
 10
19.1289
 20
456.524
 11
18.5451
 21
456.755
  0
LINE
  8
0
 10
18.5451
 20
456.755
 11
17.9369
 21
456.911
  0
LINE
  8
0
 10
17.9369
 20
456.911
 11
17.3139
 21
456.99
  0
LINE
  8
0
 10
17.3139
 20
456.99
 11
-17.3139
 21
456.99
  0
LINE
  8
0
 10
-17.3139
 20
456.99
 11
-17.9369
 21
456.911
  0
LINE
  8
0
 10
-17.9369
 20
456.911
 11
-18.5451
 21
456.755
  0
LINE
  8
0
 10
-18.5451
 20
456.755
 11
-19.1289
 21
456.524
  0
LINE
  8
0
 10
-19.1289
 20
456.524
 11
-19.6791
 21
456.222
  0
LINE
  8
0
 10
-19.6791
 20
456.222
 11
-20.1871
 21
455.853
  0
LINE
  8
0
 10
-20.1871
 20
455.853
 11
-20.6448
 21
455.423
  0
LINE
  8
0
 10
-20.6448
 20
455.423
 11
-21.0451
 21
454.939
  0
LINE
  8
0
 10
-21.0451
 20
454.939
 11
-21.3815
 21
454.409
  0
LINE
  8
0
 10
-21.3815
 20
454.409
 11
-21.6489
 21
453.841
  0
LINE
  8
0
 10
-21.6489
 20
453.841
 11
-21.8429
 21
453.243
  0
LINE
  8
0
 10
-21.8429
 20
453.243
 11
-21.9606
 21
452.627
  0
LINE
  8
0
 10
-21.9606
 20
452.627
 11
-22
 21
452
  0
LINE
  8
0
 10
-22
 20
452
 11
-22
 21
388
  0
LINE
  8
0
 10
-22
 20
388
 11
-21.9606
 21
387.373
  0
LINE
  8
0
 10
-21.9606
 20
387.373
 11
-21.8429
 21
386.757
  0
LINE
  8
0
 10
-21.8429
 20
386.757
 11
-21.6489
 21
386.159
  0
LINE
  8
0
 10
-21.6489
 20
386.159
 11
-21.3815
 21
385.591
  0
LINE
  8
0
 10
-21.3815
 20
385.591
 11
-21.0451
 21
385.061
  0
LINE
  8
0
 10
-21.0451
 20
385.061
 11
-20.6448
 21
384.577
  0
LINE
  8
0
 10
-20.6448
 20
384.577
 11
-20.1871
 21
384.147
  0
LINE
  8
0
 10
-20.1871
 20
384.147
 11
-19.6791
 21
383.778
  0
LINE
  8
0
 10
-19.6791
 20
383.778
 11
-19.1289
 21
383.476
  0
LINE
  8
0
 10
-19.1289
 20
383.476
 11
-18.5451
 21
383.245
  0
LINE
  8
0
 10
-18.5451
 20
383.245
 11
-17.9369
 21
383.089
  0
LINE
  8
0
 10
-17.9369
 20
383.089
 11
-17.3139
 21
383.01
  0
LINE
  8
0
 10
-17.3139
 20
383.01
 11
17.3139
 21
383.01
  0
LINE
  8
0
 10
17.3139
 20
383.01
 11
17.9369
 21
383.089
  0
LINE
  8
0
 10
-17.0482
 20
383.509
 11
-17.6401
 21
383.584
  0
LINE
  8
0
 10
-17.6401
 20
383.584
 11
-18.2178
 21
383.732
  0
LINE
  8
0
 10
-18.2178
 20
383.732
 11
-18.7724
 21
383.952
  0
LINE
  8
0
 10
-18.7724
 20
383.952
 11
-19.2952
 21
384.239
  0
LINE
  8
0
 10
-19.2952
 20
384.239
 11
-19.7778
 21
384.59
  0
LINE
  8
0
 10
-19.7778
 20
384.59
 11
-20.2126
 21
384.998
  0
LINE
  8
0
 10
-20.2126
 20
384.998
 11
-20.5928
 21
385.458
  0
LINE
  8
0
 10
-20.5928
 20
385.458
 11
-20.9124
 21
385.962
  0
LINE
  8
0
 10
-20.9124
 20
385.962
 11
-21.1664
 21
386.501
  0
LINE
  8
0
 10
-21.1664
 20
386.501
 11
-21.3508
 21
387.069
  0
LINE
  8
0
 10
-21.3508
 20
387.069
 11
-21.4625
 21
387.655
  0
LINE
  8
0
 10
-21.4625
 20
387.655
 11
-21.5
 21
388.25
  0
LINE
  8
0
 10
-21.5
 20
388.25
 11
-21.5
 21
451.75
  0
LINE
  8
0
 10
-21.5
 20
451.75
 11
-21.4625
 21
452.345
  0
LINE
  8
0
 10
-21.4625
 20
452.345
 11
-21.3508
 21
452.931
  0
LINE
  8
0
 10
-21.3508
 20
452.931
 11
-21.1664
 21
453.499
  0
LINE
  8
0
 10
-21.1664
 20
453.499
 11
-20.9124
 21
454.038
  0
LINE
  8
0
 10
-20.9124
 20
454.038
 11
-20.5928
 21
454.542
  0
LINE
  8
0
 10
-20.5928
 20
454.542
 11
-20.2126
 21
455.002
  0
LINE
  8
0
 10
-20.2126
 20
455.002
 11
-19.7778
 21
455.41
  0
LINE
  8
0
 10
-19.7778
 20
455.41
 11
-19.2952
 21
455.761
  0
LINE
  8
0
 10
-19.2952
 20
455.761
 11
-18.7724
 21
456.048
  0
LINE
  8
0
 10
-18.7724
 20
456.048
 11
-18.2178
 21
456.268
  0
LINE
  8
0
 10
-18.2178
 20
456.268
 11
-17.6401
 21
456.416
  0
LINE
  8
0
 10
-17.6401
 20
456.416
 11
-17.0482
 21
456.491
  0
LINE
  8
0
 10
-17.0482
 20
456.491
 11
17.0482
 21
456.491
  0
LINE
  8
0
 10
17.0482
 20
456.491
 11
17.6401
 21
456.416
  0
LINE
  8
0
 10
17.6401
 20
456.416
 11
18.2178
 21
456.268
  0
LINE
  8
0
 10
18.2178
 20
456.268
 11
18.7724
 21
456.048
  0
LINE
  8
0
 10
18.7724
 20
456.048
 11
19.2952
 21
455.761
  0
LINE
  8
0
 10
19.2952
 20
455.761
 11
19.7778
 21
455.41
  0
LINE
  8
0
 10
19.7778
 20
455.41
 11
20.2126
 21
455.002
  0
LINE
  8
0
 10
20.2126
 20
455.002
 11
20.5928
 21
454.542
  0
LINE
  8
0
 10
20.5928
 20
454.542
 11
20.9124
 21
454.038
  0
LINE
  8
0
 10
20.9124
 20
454.038
 11
21.1664
 21
453.499
  0
LINE
  8
0
 10
21.1664
 20
453.499
 11
21.3508
 21
452.931
  0
LINE
  8
0
 10
21.3508
 20
452.931
 11
21.4625
 21
452.345
  0
LINE
  8
0
 10
21.4625
 20
452.345
 11
21.5
 21
451.75
  0
LINE
  8
0
 10
21.5
 20
451.75
 11
21.5
 21
388.25
  0
LINE
  8
0
 10
21.5
 20
388.25
 11
21.4625
 21
387.655
  0
LINE
  8
0
 10
21.4625
 20
387.655
 11
21.3508
 21
387.069
  0
LINE
  8
0
 10
21.3508
 20
387.069
 11
21.1664
 21
386.501
  0
LINE
  8
0
 10
21.1664
 20
386.501
 11
20.9124
 21
385.962
  0
LINE
  8
0
 10
20.9124
 20
385.962
 11
20.5928
 21
385.458
  0
LINE
  8
0
 10
20.5928
 20
385.458
 11
20.2126
 21
384.998
  0
LINE
  8
0
 10
20.2126
 20
384.998
 11
19.7778
 21
384.59
  0
LINE
  8
0
 10
19.7778
 20
384.59
 11
19.2952
 21
384.239
  0
LINE
  8
0
 10
19.2952
 20
384.239
 11
18.7724
 21
383.952
  0
LINE
  8
0
 10
18.7724
 20
383.952
 11
18.2178
 21
383.732
  0
LINE
  8
0
 10
18.2178
 20
383.732
 11
17.6401
 21
383.584
  0
LINE
  8
0
 10
17.6401
 20
383.584
 11
17.0482
 21
383.509
  0
LINE
  8
0
 10
17.0482
 20
383.509
 11
-17.0482
 21
383.509
  0
LINE
  8
0
 10
17.9369
 20
299.089
 11
18.5451
 21
299.245
  0
LINE
  8
0
 10
18.5451
 20
299.245
 11
19.1289
 21
299.476
  0
LINE
  8
0
 10
19.1289
 20
299.476
 11
19.6791
 21
299.778
  0
LINE
  8
0
 10
19.6791
 20
299.778
 11
20.1871
 21
300.147
  0
LINE
  8
0
 10
20.1871
 20
300.147
 11
20.6448
 21
300.577
  0
LINE
  8
0
 10
20.6448
 20
300.577
 11
21.0451
 21
301.061
  0
LINE
  8
0
 10
21.0451
 20
301.061
 11
21.3815
 21
301.591
  0
LINE
  8
0
 10
21.3815
 20
301.591
 11
21.6489
 21
302.159
  0
LINE
  8
0
 10
21.6489
 20
302.159
 11
21.8429
 21
302.757
  0
LINE
  8
0
 10
21.8429
 20
302.757
 11
21.9606
 21
303.373
  0
LINE
  8
0
 10
21.9606
 20
303.373
 11
22
 21
304
  0
LINE
  8
0
 10
22
 20
304
 11
22
 21
368
  0
LINE
  8
0
 10
22
 20
368
 11
21.9606
 21
368.627
  0
LINE
  8
0
 10
21.9606
 20
368.627
 11
21.8429
 21
369.243
  0
LINE
  8
0
 10
21.8429
 20
369.243
 11
21.6489
 21
369.841
  0
LINE
  8
0
 10
21.6489
 20
369.841
 11
21.3815
 21
370.409
  0
LINE
  8
0
 10
21.3815
 20
370.409
 11
21.0451
 21
370.939
  0
LINE
  8
0
 10
21.0451
 20
370.939
 11
20.6448
 21
371.423
  0
LINE
  8
0
 10
20.6448
 20
371.423
 11
20.1871
 21
371.853
  0
LINE
  8
0
 10
20.1871
 20
371.853
 11
19.6791
 21
372.222
  0
LINE
  8
0
 10
19.6791
 20
372.222
 11
19.1289
 21
372.524
  0
LINE
  8
0
 10
19.1289
 20
372.524
 11
18.5451
 21
372.755
  0
LINE
  8
0
 10
18.5451
 20
372.755
 11
17.9369
 21
372.911
  0
LINE
  8
0
 10
17.9369
 20
372.911
 11
17.3139
 21
372.99
  0
LINE
  8
0
 10
17.3139
 20
372.99
 11
-17.3139
 21
372.99
  0
LINE
  8
0
 10
-17.3139
 20
372.99
 11
-17.9369
 21
372.911
  0
LINE
  8
0
 10
-17.9369
 20
372.911
 11
-18.5451
 21
372.755
  0
LINE
  8
0
 10
-18.5451
 20
372.755
 11
-19.1289
 21
372.524
  0
LINE
  8
0
 10
-19.1289
 20
372.524
 11
-19.6791
 21
372.222
  0
LINE
  8
0
 10
-19.6791
 20
372.222
 11
-20.1871
 21
371.853
  0
LINE
  8
0
 10
-20.1871
 20
371.853
 11
-20.6448
 21
371.423
  0
LINE
  8
0
 10
-20.6448
 20
371.423
 11
-21.0451
 21
370.939
  0
LINE
  8
0
 10
-21.0451
 20
370.939
 11
-21.3815
 21
370.409
  0
LINE
  8
0
 10
-21.3815
 20
370.409
 11
-21.6489
 21
369.841
  0
LINE
  8
0
 10
-21.6489
 20
369.841
 11
-21.8429
 21
369.243
  0
LINE
  8
0
 10
-21.8429
 20
369.243
 11
-21.9606
 21
368.627
  0
LINE
  8
0
 10
-21.9606
 20
368.627
 11
-22
 21
368
  0
LINE
  8
0
 10
-22
 20
368
 11
-22
 21
304
  0
LINE
  8
0
 10
-22
 20
304
 11
-21.9606
 21
303.373
  0
LINE
  8
0
 10
-21.9606
 20
303.373
 11
-21.8429
 21
302.757
  0
LINE
  8
0
 10
-21.8429
 20
302.757
 11
-21.6489
 21
302.159
  0
LINE
  8
0
 10
-21.6489
 20
302.159
 11
-21.3815
 21
301.591
  0
LINE
  8
0
 10
-21.3815
 20
301.591
 11
-21.0451
 21
301.061
  0
LINE
  8
0
 10
-21.0451
 20
301.061
 11
-20.6448
 21
300.577
  0
LINE
  8
0
 10
-20.6448
 20
300.577
 11
-20.1871
 21
300.147
  0
LINE
  8
0
 10
-20.1871
 20
300.147
 11
-19.6791
 21
299.778
  0
LINE
  8
0
 10
-19.6791
 20
299.778
 11
-19.1289
 21
299.476
  0
LINE
  8
0
 10
-19.1289
 20
299.476
 11
-18.5451
 21
299.245
  0
LINE
  8
0
 10
-18.5451
 20
299.245
 11
-17.9369
 21
299.089
  0
LINE
  8
0
 10
-17.9369
 20
299.089
 11
-17.3139
 21
299.01
  0
LINE
  8
0
 10
-17.3139
 20
299.01
 11
17.3139
 21
299.01
  0
LINE
  8
0
 10
17.3139
 20
299.01
 11
17.9369
 21
299.089
  0
LINE
  8
0
 10
-17.0375
 20
299.681
 11
-17.6079
 21
299.753
  0
LINE
  8
0
 10
-17.6079
 20
299.753
 11
-18.1648
 21
299.896
  0
LINE
  8
0
 10
-18.1648
 20
299.896
 11
-18.6994
 21
300.107
  0
LINE
  8
0
 10
-18.6994
 20
300.107
 11
-19.2032
 21
300.384
  0
LINE
  8
0
 10
-19.2032
 20
300.384
 11
-19.6684
 21
300.722
  0
LINE
  8
0
 10
-19.6684
 20
300.722
 11
-20.0875
 21
301.116
  0
LINE
  8
0
 10
-20.0875
 20
301.116
 11
-20.454
 21
301.559
  0
LINE
  8
0
 10
-20.454
 20
301.559
 11
-20.7621
 21
302.044
  0
LINE
  8
0
 10
-20.7621
 20
302.044
 11
-21.0069
 21
302.565
  0
LINE
  8
0
 10
-21.0069
 20
302.565
 11
-21.1846
 21
303.111
  0
LINE
  8
0
 10
-21.1846
 20
303.111
 11
-21.2923
 21
303.676
  0
LINE
  8
0
 10
-21.2923
 20
303.676
 11
-21.3284
 21
304.25
  0
LINE
  8
0
 10
-21.3284
 20
304.25
 11
-21.3284
 21
367.75
  0
LINE
  8
0
 10
-21.3284
 20
367.75
 11
-21.2923
 21
368.324
  0
LINE
  8
0
 10
-21.2923
 20
368.324
 11
-21.1846
 21
368.889
  0
LINE
  8
0
 10
-21.1846
 20
368.889
 11
-21.0069
 21
369.435
  0
LINE
  8
0
 10
-21.0069
 20
369.435
 11
-20.7621
 21
369.956
  0
LINE
  8
0
 10
-20.7621
 20
369.956
 11
-20.454
 21
370.441
  0
LINE
  8
0
 10
-20.454
 20
370.441
 11
-20.0875
 21
370.884
  0
LINE
  8
0
 10
-20.0875
 20
370.884
 11
-19.6684
 21
371.278
  0
LINE
  8
0
 10
-19.6684
 20
371.278
 11
-19.2032
 21
371.616
  0
LINE
  8
0
 10
-19.2032
 20
371.616
 11
-18.6994
 21
371.893
  0
LINE
  8
0
 10
-18.6994
 20
371.893
 11
-18.1648
 21
372.104
  0
LINE
  8
0
 10
-18.1648
 20
372.104
 11
-17.6079
 21
372.247
  0
LINE
  8
0
 10
-17.6079
 20
372.247
 11
-17.0375
 21
372.319
  0
LINE
  8
0
 10
-17.0375
 20
372.319
 11
17.0375
 21
372.319
  0
LINE
  8
0
 10
17.0375
 20
372.319
 11
17.6079
 21
372.247
  0
LINE
  8
0
 10
17.6079
 20
372.247
 11
18.1648
 21
372.104
  0
LINE
  8
0
 10
18.1648
 20
372.104
 11
18.6994
 21
371.893
  0
LINE
  8
0
 10
18.6994
 20
371.893
 11
19.2032
 21
371.616
  0
LINE
  8
0
 10
19.2032
 20
371.616
 11
19.6684
 21
371.278
  0
LINE
  8
0
 10
19.6684
 20
371.278
 11
20.0875
 21
370.884
  0
LINE
  8
0
 10
20.0875
 20
370.884
 11
20.454
 21
370.441
  0
LINE
  8
0
 10
20.454
 20
370.441
 11
20.7621
 21
369.956
  0
LINE
  8
0
 10
20.7621
 20
369.956
 11
21.0069
 21
369.435
  0
LINE
  8
0
 10
21.0069
 20
369.435
 11
21.1846
 21
368.889
  0
LINE
  8
0
 10
21.1846
 20
368.889
 11
21.2923
 21
368.324
  0
LINE
  8
0
 10
21.2923
 20
368.324
 11
21.3284
 21
367.75
  0
LINE
  8
0
 10
21.3284
 20
367.75
 11
21.3284
 21
304.25
  0
LINE
  8
0
 10
21.3284
 20
304.25
 11
21.2923
 21
303.676
  0
LINE
  8
0
 10
21.2923
 20
303.676
 11
21.1846
 21
303.111
  0
LINE
  8
0
 10
21.1846
 20
303.111
 11
21.0069
 21
302.565
  0
LINE
  8
0
 10
21.0069
 20
302.565
 11
20.7621
 21
302.044
  0
LINE
  8
0
 10
20.7621
 20
302.044
 11
20.454
 21
301.559
  0
LINE
  8
0
 10
20.454
 20
301.559
 11
20.0875
 21
301.116
  0
LINE
  8
0
 10
20.0875
 20
301.116
 11
19.6684
 21
300.722
  0
LINE
  8
0
 10
19.6684
 20
300.722
 11
19.2032
 21
300.384
  0
LINE
  8
0
 10
19.2032
 20
300.384
 11
18.6994
 21
300.107
  0
LINE
  8
0
 10
18.6994
 20
300.107
 11
18.1648
 21
299.896
  0
LINE
  8
0
 10
18.1648
 20
299.896
 11
17.6079
 21
299.753
  0
LINE
  8
0
 10
17.6079
 20
299.753
 11
17.0375
 21
299.681
  0
LINE
  8
0
 10
17.0375
 20
299.681
 11
-17.0375
 21
299.681
  0
LINE
  8
0
 10
17.9369
 20
215.089
 11
18.5451
 21
215.245
  0
LINE
  8
0
 10
18.5451
 20
215.245
 11
19.1289
 21
215.476
  0
LINE
  8
0
 10
19.1289
 20
215.476
 11
19.6791
 21
215.778
  0
LINE
  8
0
 10
19.6791
 20
215.778
 11
20.1871
 21
216.147
  0
LINE
  8
0
 10
20.1871
 20
216.147
 11
20.6448
 21
216.577
  0
LINE
  8
0
 10
20.6448
 20
216.577
 11
21.0451
 21
217.061
  0
LINE
  8
0
 10
21.0451
 20
217.061
 11
21.3815
 21
217.591
  0
LINE
  8
0
 10
21.3815
 20
217.591
 11
21.6489
 21
218.159
  0
LINE
  8
0
 10
21.6489
 20
218.159
 11
21.8429
 21
218.757
  0
LINE
  8
0
 10
21.8429
 20
218.757
 11
21.9606
 21
219.373
  0
LINE
  8
0
 10
21.9606
 20
219.373
 11
22
 21
220
  0
LINE
  8
0
 10
22
 20
220
 11
22
 21
284
  0
LINE
  8
0
 10
22
 20
284
 11
21.9606
 21
284.627
  0
LINE
  8
0
 10
21.9606
 20
284.627
 11
21.8429
 21
285.243
  0
LINE
  8
0
 10
21.8429
 20
285.243
 11
21.6489
 21
285.841
  0
LINE
  8
0
 10
21.6489
 20
285.841
 11
21.3815
 21
286.409
  0
LINE
  8
0
 10
21.3815
 20
286.409
 11
21.0451
 21
286.939
  0
LINE
  8
0
 10
21.0451
 20
286.939
 11
20.6448
 21
287.423
  0
LINE
  8
0
 10
20.6448
 20
287.423
 11
20.1871
 21
287.853
  0
LINE
  8
0
 10
20.1871
 20
287.853
 11
19.6791
 21
288.222
  0
LINE
  8
0
 10
19.6791
 20
288.222
 11
19.1289
 21
288.524
  0
LINE
  8
0
 10
19.1289
 20
288.524
 11
18.5451
 21
288.755
  0
LINE
  8
0
 10
18.5451
 20
288.755
 11
17.9369
 21
288.911
  0
LINE
  8
0
 10
17.9369
 20
288.911
 11
17.3139
 21
288.99
  0
LINE
  8
0
 10
17.3139
 20
288.99
 11
-17.3139
 21
288.99
  0
LINE
  8
0
 10
-17.3139
 20
288.99
 11
-17.9369
 21
288.911
  0
LINE
  8
0
 10
-17.9369
 20
288.911
 11
-18.5451
 21
288.755
  0
LINE
  8
0
 10
-18.5451
 20
288.755
 11
-19.1289
 21
288.524
  0
LINE
  8
0
 10
-19.1289
 20
288.524
 11
-19.6791
 21
288.222
  0
LINE
  8
0
 10
-19.6791
 20
288.222
 11
-20.1871
 21
287.853
  0
LINE
  8
0
 10
-20.1871
 20
287.853
 11
-20.6448
 21
287.423
  0
LINE
  8
0
 10
-20.6448
 20
287.423
 11
-21.0451
 21
286.939
  0
LINE
  8
0
 10
-21.0451
 20
286.939
 11
-21.3815
 21
286.409
  0
LINE
  8
0
 10
-21.3815
 20
286.409
 11
-21.6489
 21
285.841
  0
LINE
  8
0
 10
-21.6489
 20
285.841
 11
-21.8429
 21
285.243
  0
LINE
  8
0
 10
-21.8429
 20
285.243
 11
-21.9606
 21
284.627
  0
LINE
  8
0
 10
-21.9606
 20
284.627
 11
-22
 21
284
  0
LINE
  8
0
 10
-22
 20
284
 11
-22
 21
220
  0
LINE
  8
0
 10
-22
 20
220
 11
-21.9606
 21
219.373
  0
LINE
  8
0
 10
-21.9606
 20
219.373
 11
-21.8429
 21
218.757
  0
LINE
  8
0
 10
-21.8429
 20
218.757
 11
-21.6489
 21
218.159
  0
LINE
  8
0
 10
-21.6489
 20
218.159
 11
-21.3815
 21
217.591
  0
LINE
  8
0
 10
-21.3815
 20
217.591
 11
-21.0451
 21
217.061
  0
LINE
  8
0
 10
-21.0451
 20
217.061
 11
-20.6448
 21
216.577
  0
LINE
  8
0
 10
-20.6448
 20
216.577
 11
-20.1871
 21
216.147
  0
LINE
  8
0
 10
-20.1871
 20
216.147
 11
-19.6791
 21
215.778
  0
LINE
  8
0
 10
-19.6791
 20
215.778
 11
-19.1289
 21
215.476
  0
LINE
  8
0
 10
-19.1289
 20
215.476
 11
-18.5451
 21
215.245
  0
LINE
  8
0
 10
-18.5451
 20
215.245
 11
-17.9369
 21
215.089
  0
LINE
  8
0
 10
-17.9369
 20
215.089
 11
-17.3139
 21
215.01
  0
LINE
  8
0
 10
-17.3139
 20
215.01
 11
17.3139
 21
215.01
  0
LINE
  8
0
 10
17.3139
 20
215.01
 11
17.9369
 21
215.089
  0
LINE
  8
0
 10
-16.8825
 20
218.145
 11
-17.1453
 21
218.178
  0
LINE
  8
0
 10
-17.1453
 20
218.178
 11
-17.4019
 21
218.244
  0
LINE
  8
0
 10
-17.4019
 20
218.244
 11
-17.6482
 21
218.341
  0
LINE
  8
0
 10
-17.6482
 20
218.341
 11
-17.8804
 21
218.469
  0
LINE
  8
0
 10
-17.8804
 20
218.469
 11
-18.0947
 21
218.625
  0
LINE
  8
0
 10
-18.0947
 20
218.625
 11
-18.2879
 21
218.806
  0
LINE
  8
0
 10
-18.2879
 20
218.806
 11
-18.4567
 21
219.01
  0
LINE
  8
0
 10
-18.4567
 20
219.01
 11
-18.5987
 21
219.234
  0
LINE
  8
0
 10
-18.5987
 20
219.234
 11
-18.7115
 21
219.473
  0
LINE
  8
0
 10
-18.7115
 20
219.473
 11
-18.7934
 21
219.725
  0
LINE
  8
0
 10
-18.7934
 20
219.725
 11
-18.843
 21
219.986
  0
LINE
  8
0
 10
-18.843
 20
219.986
 11
-18.8596
 21
220.25
  0
LINE
  8
0
 10
-18.8596
 20
220.25
 11
-18.8596
 21
283.75
  0
LINE
  8
0
 10
-18.8596
 20
283.75
 11
-18.843
 21
284.014
  0
LINE
  8
0
 10
-18.843
 20
284.014
 11
-18.7934
 21
284.275
  0
LINE
  8
0
 10
-18.7934
 20
284.275
 11
-18.7115
 21
284.527
  0
LINE
  8
0
 10
-18.7115
 20
284.527
 11
-18.5987
 21
284.766
  0
LINE
  8
0
 10
-18.5987
 20
284.766
 11
-18.4567
 21
284.99
  0
LINE
  8
0
 10
-18.4567
 20
284.99
 11
-18.2879
 21
285.194
  0
LINE
  8
0
 10
-18.2879
 20
285.194
 11
-18.0947
 21
285.375
  0
LINE
  8
0
 10
-18.0947
 20
285.375
 11
-17.8804
 21
285.531
  0
LINE
  8
0
 10
-17.8804
 20
285.531
 11
-17.6482
 21
285.659
  0
LINE
  8
0
 10
-17.6482
 20
285.659
 11
-17.4019
 21
285.756
  0
LINE
  8
0
 10
-17.4019
 20
285.756
 11
-17.1453
 21
285.822
  0
LINE
  8
0
 10
-17.1453
 20
285.822
 11
-16.8825
 21
285.855
  0
LINE
  8
0
 10
-16.8825
 20
285.855
 11
16.8825
 21
285.855
  0
LINE
  8
0
 10
16.8825
 20
285.855
 11
17.1453
 21
285.822
  0
LINE
  8
0
 10
17.1453
 20
285.822
 11
17.4019
 21
285.756
  0
LINE
  8
0
 10
17.4019
 20
285.756
 11
17.6482
 21
285.659
  0
LINE
  8
0
 10
17.6482
 20
285.659
 11
17.8804
 21
285.531
  0
LINE
  8
0
 10
17.8804
 20
285.531
 11
18.0947
 21
285.375
  0
LINE
  8
0
 10
18.0947
 20
285.375
 11
18.2879
 21
285.194
  0
LINE
  8
0
 10
18.2879
 20
285.194
 11
18.4567
 21
284.99
  0
LINE
  8
0
 10
18.4567
 20
284.99
 11
18.5987
 21
284.766
  0
LINE
  8
0
 10
18.5987
 20
284.766
 11
18.7115
 21
284.527
  0
LINE
  8
0
 10
18.7115
 20
284.527
 11
18.7934
 21
284.275
  0
LINE
  8
0
 10
18.7934
 20
284.275
 11
18.843
 21
284.014
  0
LINE
  8
0
 10
18.843
 20
284.014
 11
18.8596
 21
283.75
  0
LINE
  8
0
 10
18.8596
 20
283.75
 11
18.8596
 21
220.25
  0
LINE
  8
0
 10
18.8596
 20
220.25
 11
18.843
 21
219.986
  0
LINE
  8
0
 10
18.843
 20
219.986
 11
18.7934
 21
219.725
  0
LINE
  8
0
 10
18.7934
 20
219.725
 11
18.7115
 21
219.473
  0
LINE
  8
0
 10
18.7115
 20
219.473
 11
18.5987
 21
219.234
  0
LINE
  8
0
 10
18.5987
 20
219.234
 11
18.4567
 21
219.01
  0
LINE
  8
0
 10
18.4567
 20
219.01
 11
18.2879
 21
218.806
  0
LINE
  8
0
 10
18.2879
 20
218.806
 11
18.0947
 21
218.625
  0
LINE
  8
0
 10
18.0947
 20
218.625
 11
17.8804
 21
218.469
  0
LINE
  8
0
 10
17.8804
 20
218.469
 11
17.6482
 21
218.341
  0
LINE
  8
0
 10
17.6482
 20
218.341
 11
17.4019
 21
218.244
  0
LINE
  8
0
 10
17.4019
 20
218.244
 11
17.1453
 21
218.178
  0
LINE
  8
0
 10
17.1453
 20
218.178
 11
16.8825
 21
218.145
  0
LINE
  8
0
 10
16.8825
 20
218.145
 11
-16.8825
 21
218.145
  0
ENDSEC
  0
SECTION
  2
OBJECTS
  0
DICTIONARY
  0
ENDSEC
  0
EOF
