<?xml version="1.0" standalone="no"?>
<!DOCTYPE svg PUBLIC "-//W3C//DTD SVG 1.1//EN" "http://www.w3.org/Graphics/SVG/1.1/DTD/svg11.dtd">
<svg width="46mm" height="244mm" viewBox="-23 -458 46 244" xmlns="http://www.w3.org/2000/svg" version="1.1">
<title>OpenSCAD Model</title>
<path d="
M 18.4369,-382.589 L 19.0451,-382.745 L 19.6289,-382.976 L 20.1791,-383.278 L 20.6871,-383.647 L 21.1448,-384.077
 L 21.5451,-384.561 L 21.8815,-385.091 L 22.1489,-385.659 L 22.3429,-386.257 L 22.4606,-386.873 L 22.5,-387.5
 L 22.5,-452.5 L 22.4606,-453.127 L 22.3429,-453.743 L 22.1489,-454.341 L 21.8815,-454.909 L 21.5451,-455.439
 L 21.1448,-455.923 L 20.6871,-456.353 L 20.1791,-456.722 L 19.6289,-457.024 L 19.0451,-457.255 L 18.4369,-457.411
 L 17.8139,-457.49 L -17.8139,-457.49 L -18.4369,-457.411 L -19.0451,-457.255 L -19.6289,-457.024 L -20.1791,-456.722
 L -20.6871,-456.353 L -21.1448,-455.923 L -21.5451,-455.439 L -21.8815,-454.909 L -22.1489,-454.341 L -22.3429,-453.743
 L -22.4606,-453.127 L -22.5,-452.5 L -22.5,-387.5 L -22.4606,-386.873 L -22.3429,-386.257 L -22.1489,-385.659
 L -21.8815,-385.091 L -21.5451,-384.561 L -21.1448,-384.077 L -20.6871,-383.647 L -20.1791,-383.278 L -19.6289,-382.976
 L -19.0451,-382.745 L -18.4369,-382.589 L -17.8139,-382.51 L 17.8139,-382.51 z
M -17.5482,-383.009 L -18.1401,-383.084 L -18.7178,-383.232 L -19.2724,-383.452 L -19.7952,-383.739 L -20.2778,-384.09
 L -20.7126,-384.498 L -21.0928,-384.958 L -21.4124,-385.462 L -21.6664,-386.001 L -21.8508,-386.569 L -21.9625,-387.155
 L -22,-387.75 L -22,-452.25 L -21.9625,-452.845 L -21.8508,-453.431 L -21.6664,-453.999 L -21.4124,-454.538
 L -21.0928,-455.042 L -20.7126,-455.502 L -20.2778,-455.91 L -19.7952,-456.261 L -19.2724,-456.548 L -18.7178,-456.768
 L -18.1401,-456.916 L -17.5482,-456.991 L 17.5482,-456.991 L 18.1401,-456.916 L 18.7178,-456.768 L 19.2724,-456.548
 L 19.7952,-456.261 L 20.2778,-455.91 L 20.7126,-455.502 L 21.0928,-455.042 L 21.4124,-454.538 L 21.6664,-453.999
 L 21.8508,-453.431 L 21.9625,-452.845 L 22,-452.25 L 22,-387.75 L 21.9625,-387.155 L 21.8508,-386.569
 L 21.6664,-386.001 L 21.4124,-385.462 L 21.0928,-384.958 L 20.7126,-384.498 L 20.2778,-384.09 L 19.7952,-383.739
 L 19.2724,-383.452 L 18.7178,-383.232 L 18.1401,-383.084 L 17.5482,-383.009 z
M 18.4369,-298.589 L 19.0451,-298.745 L 19.6289,-298.976 L 20.1791,-299.278 L 20.6871,-299.647 L 21.1448,-300.077
 L 21.5451,-300.561 L 21.8815,-301.091 L 22.1489,-301.659 L 22.3429,-302.257 L 22.4606,-302.873 L 22.5,-303.5
 L 22.5,-368.5 L 22.4606,-369.127 L 22.3429,-369.743 L 22.1489,-370.341 L 21.8815,-370.909 L 21.5451,-371.439
 L 21.1448,-371.923 L 20.6871,-372.353 L 20.1791,-372.722 L 19.6289,-373.024 L 19.0451,-373.255 L 18.4369,-373.411
 L 17.8139,-373.49 L -17.8139,-373.49 L -18.4369,-373.411 L -19.0451,-373.255 L -19.6289,-373.024 L -20.1791,-372.722
 L -20.6871,-372.353 L -21.1448,-371.923 L -21.5451,-371.439 L -21.8815,-370.909 L -22.1489,-370.341 L -22.3429,-369.743
 L -22.4606,-369.127 L -22.5,-368.5 L -22.5,-303.5 L -22.4606,-302.873 L -22.3429,-302.257 L -22.1489,-301.659
 L -21.8815,-301.091 L -21.5451,-300.561 L -21.1448,-300.077 L -20.6871,-299.647 L -20.1791,-299.278 L -19.6289,-298.976
 L -19.0451,-298.745 L -18.4369,-298.589 L -17.8139,-298.51 L 17.8139,-298.51 z
M -17.5375,-299.181 L -18.1079,-299.253 L -18.6648,-299.396 L -19.1994,-299.607 L -19.7032,-299.884 L -20.1684,-300.222
 L -20.5875,-300.616 L -20.954,-301.059 L -21.2621,-301.544 L -21.5069,-302.065 L -21.6846,-302.611 L -21.7923,-303.176
 L -21.8284,-303.75 L -21.8284,-368.25 L -21.7923,-368.824 L -21.6846,-369.389 L -21.5069,-369.935 L -21.2621,-370.456
 L -20.954,-370.941 L -20.5875,-371.384 L -20.1684,-371.778 L -19.7032,-372.116 L -19.1994,-372.393 L -18.6648,-372.604
 L -18.1079,-372.747 L -17.5375,-372.819 L 17.5375,-372.819 L 18.1079,-372.747 L 18.6648,-372.604 L 19.1994,-372.393
 L 19.7032,-372.116 L 20.1684,-371.778 L 20.5875,-371.384 L 20.954,-370.941 L 21.2621,-370.456 L 21.5069,-369.935
 L 21.6846,-369.389 L 21.7923,-368.824 L 21.8284,-368.25 L 21.8284,-303.75 L 21.7923,-303.176 L 21.6846,-302.611
 L 21.5069,-302.065 L 21.2621,-301.544 L 20.954,-301.059 L 20.5875,-300.616 L 20.1684,-300.222 L 19.7032,-299.884
 L 19.1994,-299.607 L 18.6648,-299.396 L 18.1079,-299.253 L 17.5375,-299.181 z
M 18.4369,-214.589 L 19.0451,-214.745 L 19.6289,-214.976 L 20.1791,-215.278 L 20.6871,-215.647 L 21.1448,-216.077
 L 21.5451,-216.561 L 21.8815,-217.091 L 22.1489,-217.659 L 22.3429,-218.257 L 22.4606,-218.873 L 22.5,-219.5
 L 22.5,-284.5 L 22.4606,-285.127 L 22.3429,-285.743 L 22.1489,-286.341 L 21.8815,-286.909 L 21.5451,-287.439
 L 21.1448,-287.923 L 20.6871,-288.353 L 20.1791,-288.722 L 19.6289,-289.024 L 19.0451,-289.255 L 18.4369,-289.411
 L 17.8139,-289.49 L -17.8139,-289.49 L -18.4369,-289.411 L -19.0451,-289.255 L -19.6289,-289.024 L -20.1791,-288.722
 L -20.6871,-288.353 L -21.1448,-287.923 L -21.5451,-287.439 L -21.8815,-286.909 L -22.1489,-286.341 L -22.3429,-285.743
 L -22.4606,-285.127 L -22.5,-284.5 L -22.5,-219.5 L -22.4606,-218.873 L -22.3429,-218.257 L -22.1489,-217.659
 L -21.8815,-217.091 L -21.5451,-216.561 L -21.1448,-216.077 L -20.6871,-215.647 L -20.1791,-215.278 L -19.6289,-214.976
 L -19.0451,-214.745 L -18.4369,-214.589 L -17.8139,-214.51 L 17.8139,-214.51 z
M -17.3825,-217.645 L -17.6453,-217.678 L -17.9019,-217.744 L -18.1482,-217.841 L -18.3804,-217.969 L -18.5947,-218.125
 L -18.7879,-218.306 L -18.9567,-218.51 L -19.0987,-218.734 L -19.2115,-218.973 L -19.2934,-219.225 L -19.343,-219.486
 L -19.3596,-219.75 L -19.3596,-284.25 L -19.343,-284.514 L -19.2934,-284.775 L -19.2115,-285.027 L -19.0987,-285.266
 L -18.9567,-285.49 L -18.7879,-285.694 L -18.5947,-285.875 L -18.3804,-286.031 L -18.1482,-286.159 L -17.9019,-286.256
 L -17.6453,-286.322 L -17.3825,-286.355 L 17.3825,-286.355 L 17.6453,-286.322 L 17.9019,-286.256 L 18.1482,-286.159
 L 18.3804,-286.031 L 18.5947,-285.875 L 18.7879,-285.694 L 18.9567,-285.49 L 19.0987,-285.266 L 19.2115,-285.027
 L 19.2934,-284.775 L 19.343,-284.514 L 19.3596,-284.25 L 19.3596,-219.75 L 19.343,-219.486 L 19.2934,-219.225
 L 19.2115,-218.973 L 19.0987,-218.734 L 18.9567,-218.51 L 18.7879,-218.306 L 18.5947,-218.125 L 18.3804,-217.969
 L 18.1482,-217.841 L 17.9019,-217.744 L 17.6453,-217.678 L 17.3825,-217.645 z
" stroke="black" fill="lightgray" stroke-width="0.5"/>
</svg>
