<?xml version="1.0" standalone="no"?>
<!DOCTYPE svg PUBLIC "-//W3C//DTD SVG 1.1//EN" "http://www.w3.org/Graphics/SVG/1.1/DTD/svg11.dtd">
<svg width="30mm" height="328mm" viewBox="-15 -542 30 328" xmlns="http://www.w3.org/2000/svg" version="1.1">
<title>OpenSCAD Model</title>
<path d="
M 10.9369,-466.589 L 11.5451,-466.745 L 12.1289,-466.976 L 12.6791,-467.278 L 13.1871,-467.647 L 13.6448,-468.077
 L 14.0451,-468.561 L 14.3815,-469.091 L 14.6489,-469.659 L 14.8429,-470.257 L 14.9606,-470.873 L 15,-471.5
 L 15,-536.5 L 14.9606,-537.127 L 14.8429,-537.743 L 14.6489,-538.341 L 14.3815,-538.909 L 14.0451,-539.439
 L 13.6448,-539.923 L 13.1871,-540.353 L 12.6791,-540.722 L 12.1289,-541.024 L 11.5451,-541.255 L 10.9369,-541.411
 L 10.3139,-541.49 L -10.3139,-541.49 L -10.9369,-541.411 L -11.5451,-541.255 L -12.1289,-541.024 L -12.6791,-540.722
 L -13.1871,-540.353 L -13.6448,-539.923 L -14.0451,-539.439 L -14.3815,-538.909 L -14.6489,-538.341 L -14.8429,-537.743
 L -14.9606,-537.127 L -15,-536.5 L -15,-471.5 L -14.9606,-470.873 L -14.8429,-470.257 L -14.6489,-469.659
 L -14.3815,-469.091 L -14.0451,-468.561 L -13.6448,-468.077 L -13.1871,-467.647 L -12.6791,-467.278 L -12.1289,-466.976
 L -11.5451,-466.745 L -10.9369,-466.589 L -10.3139,-466.51 L 10.3139,-466.51 z
M -4.81104,-467.009 L -4.32086,-467.278 L -3.81287,-467.647 L -3.35515,-468.077 L -2.95491,-468.561 L -2.61845,-469.091
 L -2.3511,-469.659 L -2.15707,-470.257 L -2.03941,-470.873 L -2,-471.5 L -2,-474.5 L -2.03941,-475.127
 L -2.15707,-475.743 L -2.3511,-476.341 L -2.61845,-476.909 L -2.95491,-477.439 L -3.35515,-477.923 L -3.81287,-478.353
 L -4.32086,-478.722 L -4.87109,-479.024 L -5.45491,-479.255 L -6.06308,-479.411 L -6.68604,-479.49 L -10.3139,-479.49
 L -10.9369,-479.411 L -11.5451,-479.255 L -12.1289,-479.024 L -12.6791,-478.722 L -13.1871,-478.353 L -13.6448,-477.923
 L -14.0451,-477.439 L -14.3815,-476.909 L -14.5,-476.657 L -14.5,-536.5 L -14.4645,-537.064 L -14.3586,-537.619
 L -14.184,-538.157 L -13.9434,-538.668 L -13.6406,-539.145 L -13.2803,-539.58 L -12.8684,-539.967 L -12.4112,-540.299
 L -11.916,-540.572 L -11.3906,-540.78 L -10.8432,-540.92 L -10.2825,-540.991 L 10.2825,-540.991 L 10.8432,-540.92
 L 11.3906,-540.78 L 11.916,-540.572 L 12.4112,-540.299 L 12.8684,-539.967 L 13.2803,-539.58 L 13.6406,-539.145
 L 13.9434,-538.668 L 14.184,-538.157 L 14.3586,-537.619 L 14.4645,-537.064 L 14.5,-536.5 L 14.5,-471.5
 L 14.4645,-470.936 L 14.3586,-470.381 L 14.184,-469.843 L 13.9434,-469.332 L 13.6406,-468.855 L 13.2803,-468.42
 L 12.8684,-468.033 L 12.4112,-467.701 L 11.916,-467.428 L 11.3906,-467.22 L 10.8432,-467.08 L 10.2825,-467.009
 z
M 7.96844,-531.544 L 8.27254,-531.622 L 8.56444,-531.738 L 8.83955,-531.889 L 9.09355,-532.074 L 9.32242,-532.289
 L 9.52254,-532.531 L 9.69077,-532.796 L 9.82443,-533.08 L 9.92145,-533.378 L 9.98029,-533.687 L 10,-534
 L 9.98029,-534.313 L 9.92145,-534.622 L 9.82443,-534.92 L 9.69077,-535.204 L 9.52254,-535.469 L 9.32242,-535.711
 L 9.09355,-535.926 L 8.83955,-536.111 L 8.56444,-536.262 L 8.27254,-536.378 L 7.96844,-536.456 L 7.65697,-536.495
 L 7.34302,-536.495 L 7.03154,-536.456 L 6.72745,-536.378 L 6.43555,-536.262 L 6.16043,-536.111 L 5.90643,-535.926
 L 5.67757,-535.711 L 5.47745,-535.469 L 5.30922,-535.204 L 5.17555,-534.92 L 5.07854,-534.622 L 5.0197,-534.313
 L 5,-534 L 5.0197,-533.687 L 5.07854,-533.378 L 5.17555,-533.08 L 5.30922,-532.796 L 5.47745,-532.531
 L 5.67757,-532.289 L 5.90643,-532.074 L 6.16043,-531.889 L 6.43555,-531.738 L 6.72745,-531.622 L 7.03154,-531.544
 L 7.34302,-531.505 L 7.65697,-531.505 z
M 7.40581,-532.503 L 7.21892,-532.527 L 7.03647,-532.573 L 6.86133,-532.643 L 6.69626,-532.734 L 6.54385,-532.844
 L 6.40654,-532.973 L 6.28647,-533.118 L 6.18553,-533.277 L 6.10533,-533.448 L 6.04712,-533.627 L 6.01183,-533.812
 L 6,-534 L 6.01183,-534.188 L 6.04712,-534.373 L 6.10533,-534.552 L 6.18553,-534.723 L 6.28647,-534.882
 L 6.40654,-535.027 L 6.54385,-535.156 L 6.69626,-535.266 L 6.86133,-535.357 L 7.03647,-535.427 L 7.21892,-535.473
 L 7.40581,-535.497 L 7.59418,-535.497 L 7.78107,-535.473 L 7.96352,-535.427 L 8.13866,-535.357 L 8.30373,-535.266
 L 8.45613,-535.156 L 8.59344,-535.027 L 8.71352,-534.882 L 8.81445,-534.723 L 8.89465,-534.552 L 8.95287,-534.373
 L 8.98816,-534.188 L 9,-534 L 8.98816,-533.812 L 8.95287,-533.627 L 8.89465,-533.448 L 8.81445,-533.277
 L 8.71352,-533.118 L 8.59344,-532.973 L 8.45613,-532.844 L 8.30373,-532.734 L 8.13866,-532.643 L 7.96352,-532.573
 L 7.78107,-532.527 L 7.59418,-532.503 z
M -7.59418,-472.503 L -7.78107,-472.527 L -7.96352,-472.573 L -8.13866,-472.643 L -8.30373,-472.734 L -8.45613,-472.844
 L -8.59344,-472.973 L -8.71352,-473.118 L -8.81445,-473.277 L -8.89465,-473.448 L -8.95287,-473.627 L -8.98816,-473.812
 L -9,-474 L -8.98816,-474.188 L -8.95287,-474.373 L -8.89465,-474.552 L -8.81445,-474.723 L -8.71352,-474.882
 L -8.59344,-475.027 L -8.45613,-475.156 L -8.30373,-475.266 L -8.13866,-475.357 L -7.96352,-475.427 L -7.78107,-475.473
 L -7.59418,-475.497 L -7.40581,-475.497 L -7.21892,-475.473 L -7.03647,-475.427 L -6.86133,-475.357 L -6.69626,-475.266
 L -6.54385,-475.156 L -6.40654,-475.027 L -6.28647,-474.882 L -6.18553,-474.723 L -6.10533,-474.552 L -6.04712,-474.373
 L -6.01183,-474.188 L -6,-474 L -6.01183,-473.812 L -6.04712,-473.627 L -6.10533,-473.448 L -6.18553,-473.277
 L -6.28647,-473.118 L -6.40654,-472.973 L -6.54385,-472.844 L -6.69626,-472.734 L -6.86133,-472.643 L -7.03647,-472.573
 L -7.21892,-472.527 L -7.40581,-472.503 z
M 10.9369,-382.589 L 11.5451,-382.745 L 12.1289,-382.976 L 12.6791,-383.278 L 13.1871,-383.647 L 13.6448,-384.077
 L 14.0451,-384.561 L 14.3815,-385.091 L 14.6489,-385.659 L 14.8429,-386.257 L 14.9606,-386.873 L 15,-387.5
 L 15,-452.5 L 14.9606,-453.127 L 14.8429,-453.743 L 14.6489,-454.341 L 14.3815,-454.909 L 14.0451,-455.439
 L 13.6448,-455.923 L 13.1871,-456.353 L 12.6791,-456.722 L 12.1289,-457.024 L 11.5451,-457.255 L 10.9369,-457.411
 L 10.3139,-457.49 L -10.3139,-457.49 L -10.9369,-457.411 L -11.5451,-457.255 L -12.1289,-457.024 L -12.6791,-456.722
 L -13.1871,-456.353 L -13.6448,-455.923 L -14.0451,-455.439 L -14.3815,-454.909 L -14.6489,-454.341 L -14.8429,-453.743
 L -14.9606,-453.127 L -15,-452.5 L -15,-387.5 L -14.9606,-386.873 L -14.8429,-386.257 L -14.6489,-385.659
 L -14.3815,-385.091 L -14.0451,-384.561 L -13.6448,-384.077 L -13.1871,-383.647 L -12.6791,-383.278 L -12.1289,-382.976
 L -11.5451,-382.745 L -10.9369,-382.589 L -10.3139,-382.51 L 10.3139,-382.51 z
M -4.81104,-383.009 L -4.32086,-383.278 L -3.81287,-383.647 L -3.35515,-384.077 L -2.95491,-384.561 L -2.61845,-385.091
 L -2.3511,-385.659 L -2.15707,-386.257 L -2.03941,-386.873 L -2,-387.5 L -2,-390.5 L -2.03941,-391.127
 L -2.15707,-391.743 L -2.3511,-392.341 L -2.61845,-392.909 L -2.95491,-393.439 L -3.35515,-393.923 L -3.81287,-394.353
 L -4.32086,-394.722 L -4.87109,-395.024 L -5.45491,-395.255 L -6.06308,-395.411 L -6.68604,-395.49 L -10.3139,-395.49
 L -10.9369,-395.411 L -11.5451,-395.255 L -12.1289,-395.024 L -12.6791,-394.722 L -13.1871,-394.353 L -13.6448,-393.923
 L -14.0451,-393.439 L -14.3815,-392.909 L -14.5,-392.657 L -14.5,-452.5 L -14.4645,-453.064 L -14.3586,-453.619
 L -14.184,-454.157 L -13.9434,-454.668 L -13.6406,-455.145 L -13.2803,-455.58 L -12.8684,-455.967 L -12.4112,-456.299
 L -11.916,-456.572 L -11.3906,-456.78 L -10.8432,-456.92 L -10.2825,-456.991 L 10.2825,-456.991 L 10.8432,-456.92
 L 11.3906,-456.78 L 11.916,-456.572 L 12.4112,-456.299 L 12.8684,-455.967 L 13.2803,-455.58 L 13.6406,-455.145
 L 13.9434,-454.668 L 14.184,-454.157 L 14.3586,-453.619 L 14.4645,-453.064 L 14.5,-452.5 L 14.5,-387.5
 L 14.4645,-386.936 L 14.3586,-386.381 L 14.184,-385.843 L 13.9434,-385.332 L 13.6406,-384.855 L 13.2803,-384.42
 L 12.8684,-384.033 L 12.4112,-383.701 L 11.916,-383.428 L 11.3906,-383.22 L 10.8432,-383.08 L 10.2825,-383.009
 z
M 7.96844,-447.544 L 8.27254,-447.622 L 8.56444,-447.738 L 8.83955,-447.889 L 9.09355,-448.074 L 9.32242,-448.289
 L 9.52254,-448.531 L 9.69077,-448.796 L 9.82443,-449.08 L 9.92145,-449.378 L 9.98029,-449.687 L 10,-450
 L 9.98029,-450.313 L 9.92145,-450.622 L 9.82443,-450.92 L 9.69077,-451.204 L 9.52254,-451.469 L 9.32242,-451.711
 L 9.09355,-451.926 L 8.83955,-452.111 L 8.56444,-452.262 L 8.27254,-452.378 L 7.96844,-452.456 L 7.65697,-452.495
 L 7.34302,-452.495 L 7.03154,-452.456 L 6.72745,-452.378 L 6.43555,-452.262 L 6.16043,-452.111 L 5.90643,-451.926
 L 5.67757,-451.711 L 5.47745,-451.469 L 5.30922,-451.204 L 5.17555,-450.92 L 5.07854,-450.622 L 5.0197,-450.313
 L 5,-450 L 5.0197,-449.687 L 5.07854,-449.378 L 5.17555,-449.08 L 5.30922,-448.796 L 5.47745,-448.531
 L 5.67757,-448.289 L 5.90643,-448.074 L 6.16043,-447.889 L 6.43555,-447.738 L 6.72745,-447.622 L 7.03154,-447.544
 L 7.34302,-447.505 L 7.65697,-447.505 z
M 7.40581,-448.503 L 7.21892,-448.527 L 7.03647,-448.573 L 6.86133,-448.643 L 6.69626,-448.734 L 6.54385,-448.844
 L 6.40654,-448.973 L 6.28647,-449.118 L 6.18553,-449.277 L 6.10533,-449.448 L 6.04712,-449.627 L 6.01183,-449.812
 L 6,-450 L 6.01183,-450.188 L 6.04712,-450.373 L 6.10533,-450.552 L 6.18553,-450.723 L 6.28647,-450.882
 L 6.40654,-451.027 L 6.54385,-451.156 L 6.69626,-451.266 L 6.86133,-451.357 L 7.03647,-451.427 L 7.21892,-451.473
 L 7.40581,-451.497 L 7.59418,-451.497 L 7.78107,-451.473 L 7.96352,-451.427 L 8.13866,-451.357 L 8.30373,-451.266
 L 8.45613,-451.156 L 8.59344,-451.027 L 8.71352,-450.882 L 8.81445,-450.723 L 8.89465,-450.552 L 8.95287,-450.373
 L 8.98816,-450.188 L 9,-450 L 8.98816,-449.812 L 8.95287,-449.627 L 8.89465,-449.448 L 8.81445,-449.277
 L 8.71352,-449.118 L 8.59344,-448.973 L 8.45613,-448.844 L 8.30373,-448.734 L 8.13866,-448.643 L 7.96352,-448.573
 L 7.78107,-448.527 L 7.59418,-448.503 z
M -7.59418,-388.503 L -7.78107,-388.527 L -7.96352,-388.573 L -8.13866,-388.643 L -8.30373,-388.734 L -8.45613,-388.844
 L -8.59344,-388.973 L -8.71352,-389.118 L -8.81445,-389.277 L -8.89465,-389.448 L -8.95287,-389.627 L -8.98816,-389.812
 L -9,-390 L -8.98816,-390.188 L -8.95287,-390.373 L -8.89465,-390.552 L -8.81445,-390.723 L -8.71352,-390.882
 L -8.59344,-391.027 L -8.45613,-391.156 L -8.30373,-391.266 L -8.13866,-391.357 L -7.96352,-391.427 L -7.78107,-391.473
 L -7.59418,-391.497 L -7.40581,-391.497 L -7.21892,-391.473 L -7.03647,-391.427 L -6.86133,-391.357 L -6.69626,-391.266
 L -6.54385,-391.156 L -6.40654,-391.027 L -6.28647,-390.882 L -6.18553,-390.723 L -6.10533,-390.552 L -6.04712,-390.373
 L -6.01183,-390.188 L -6,-390 L -6.01183,-389.812 L -6.04712,-389.627 L -6.10533,-389.448 L -6.18553,-389.277
 L -6.28647,-389.118 L -6.40654,-388.973 L -6.54385,-388.844 L -6.69626,-388.734 L -6.86133,-388.643 L -7.03647,-388.573
 L -7.21892,-388.527 L -7.40581,-388.503 z
M 10.9369,-298.589 L 11.5451,-298.745 L 12.1289,-298.976 L 12.6791,-299.278 L 13.1871,-299.647 L 13.6448,-300.077
 L 14.0451,-300.561 L 14.3815,-301.091 L 14.6489,-301.659 L 14.8429,-302.257 L 14.9606,-302.873 L 15,-303.5
 L 15,-368.5 L 14.9606,-369.127 L 14.8429,-369.743 L 14.6489,-370.341 L 14.3815,-370.909 L 14.0451,-371.439
 L 13.6448,-371.923 L 13.1871,-372.353 L 12.6791,-372.722 L 12.1289,-373.024 L 11.5451,-373.255 L 10.9369,-373.411
 L 10.3139,-373.49 L -10.3139,-373.49 L -10.9369,-373.411 L -11.5451,-373.255 L -12.1289,-373.024 L -12.6791,-372.722
 L -13.1871,-372.353 L -13.6448,-371.923 L -14.0451,-371.439 L -14.3815,-370.909 L -14.6489,-370.341 L -14.8429,-369.743
 L -14.9606,-369.127 L -15,-368.5 L -15,-303.5 L -14.9606,-302.873 L -14.8429,-302.257 L -14.6489,-301.659
 L -14.3815,-301.091 L -14.0451,-300.561 L -13.6448,-300.077 L -13.1871,-299.647 L -12.6791,-299.278 L -12.1289,-298.976
 L -11.5451,-298.745 L -10.9369,-298.589 L -10.3139,-298.51 L 10.3139,-298.51 z
M -4.03568,-299.486 L -3.81287,-299.647 L -3.35515,-300.077 L -2.95491,-300.561 L -2.61845,-301.091 L -2.3511,-301.659
 L -2.15707,-302.257 L -2.03941,-302.873 L -2,-303.5 L -2,-306.5 L -2.03941,-307.127 L -2.15707,-307.743
 L -2.3511,-308.341 L -2.61845,-308.909 L -2.95491,-309.439 L -3.35515,-309.923 L -3.81287,-310.353 L -4.32086,-310.722
 L -4.87109,-311.024 L -5.45491,-311.255 L -6.06308,-311.411 L -6.68604,-311.49 L -10.3139,-311.49 L -10.9369,-311.411
 L -11.5451,-311.255 L -12.1289,-311.024 L -12.6791,-310.722 L -13.1871,-310.353 L -13.6448,-309.923 L -14.0224,-309.466
 L -14.0224,-368.5 L -13.9907,-369.004 L -13.896,-369.5 L -13.7399,-369.981 L -13.5248,-370.438 L -13.2542,-370.864
 L -12.9322,-371.254 L -12.5639,-371.599 L -12.1553,-371.896 L -11.7126,-372.14 L -11.243,-372.326 L -10.7537,-372.451
 L -10.2526,-372.514 L 4.03568,-372.514 L 3.81287,-372.353 L 3.35515,-371.923 L 2.95491,-371.439 L 2.61845,-370.909
 L 2.3511,-370.341 L 2.15707,-369.743 L 2.03941,-369.127 L 2,-368.5 L 2,-365.5 L 2.03941,-364.873
 L 2.15707,-364.257 L 2.3511,-363.659 L 2.61845,-363.091 L 2.95491,-362.561 L 3.35515,-362.077 L 3.81287,-361.647
 L 4.32086,-361.278 L 4.87109,-360.976 L 5.45491,-360.745 L 6.06308,-360.589 L 6.68604,-360.51 L 10.3139,-360.51
 L 10.9369,-360.589 L 11.5451,-360.745 L 12.1289,-360.976 L 12.6791,-361.278 L 13.1871,-361.647 L 13.6448,-362.077
 L 14.0224,-362.534 L 14.0224,-303.5 L 13.9907,-302.996 L 13.896,-302.5 L 13.7399,-302.019 L 13.5248,-301.562
 L 13.2542,-301.136 L 12.9322,-300.746 L 12.5639,-300.401 L 12.1553,-300.104 L 11.7126,-299.86 L 11.243,-299.674
 L 10.7537,-299.549 L 10.2526,-299.486 z
M 7.40581,-364.503 L 7.21892,-364.527 L 7.03647,-364.573 L 6.86133,-364.643 L 6.69626,-364.734 L 6.54385,-364.844
 L 6.40654,-364.973 L 6.28647,-365.118 L 6.18553,-365.277 L 6.10533,-365.448 L 6.04712,-365.627 L 6.01183,-365.812
 L 6,-366 L 6.01183,-366.188 L 6.04712,-366.373 L 6.10533,-366.552 L 6.18553,-366.723 L 6.28647,-366.882
 L 6.40654,-367.027 L 6.54385,-367.156 L 6.69626,-367.266 L 6.86133,-367.357 L 7.03647,-367.427 L 7.21892,-367.473
 L 7.40581,-367.497 L 7.59418,-367.497 L 7.78107,-367.473 L 7.96352,-367.427 L 8.13866,-367.357 L 8.30373,-367.266
 L 8.45613,-367.156 L 8.59344,-367.027 L 8.71352,-366.882 L 8.81445,-366.723 L 8.89465,-366.552 L 8.95287,-366.373
 L 8.98816,-366.188 L 9,-366 L 8.98816,-365.812 L 8.95287,-365.627 L 8.89465,-365.448 L 8.81445,-365.277
 L 8.71352,-365.118 L 8.59344,-364.973 L 8.45613,-364.844 L 8.30373,-364.734 L 8.13866,-364.643 L 7.96352,-364.573
 L 7.78107,-364.527 L 7.59418,-364.503 z
M -7.59418,-304.503 L -7.78107,-304.527 L -7.96352,-304.573 L -8.13866,-304.643 L -8.30373,-304.734 L -8.45613,-304.844
 L -8.59344,-304.973 L -8.71352,-305.118 L -8.81445,-305.277 L -8.89465,-305.448 L -8.95287,-305.627 L -8.98816,-305.812
 L -9,-306 L -8.98816,-306.188 L -8.95287,-306.373 L -8.89465,-306.552 L -8.81445,-306.723 L -8.71352,-306.882
 L -8.59344,-307.027 L -8.45613,-307.156 L -8.30373,-307.266 L -8.13866,-307.357 L -7.96352,-307.427 L -7.78107,-307.473
 L -7.59418,-307.497 L -7.40581,-307.497 L -7.21892,-307.473 L -7.03647,-307.427 L -6.86133,-307.357 L -6.69626,-307.266
 L -6.54385,-307.156 L -6.40654,-307.027 L -6.28647,-306.882 L -6.18553,-306.723 L -6.10533,-306.552 L -6.04712,-306.373
 L -6.01183,-306.188 L -6,-306 L -6.01183,-305.812 L -6.04712,-305.627 L -6.10533,-305.448 L -6.18553,-305.277
 L -6.28647,-305.118 L -6.40654,-304.973 L -6.54385,-304.844 L -6.69626,-304.734 L -6.86133,-304.643 L -7.03647,-304.573
 L -7.21892,-304.527 L -7.40581,-304.503 z
M 10.9369,-214.589 L 11.5451,-214.745 L 12.1289,-214.976 L 12.6791,-215.278 L 13.1871,-215.647 L 13.6448,-216.077
 L 14.0451,-216.561 L 14.3815,-217.091 L 14.6489,-217.659 L 14.8429,-218.257 L 14.9606,-218.873 L 15,-219.5
 L 15,-284.5 L 14.9606,-285.127 L 14.8429,-285.743 L 14.6489,-286.341 L 14.3815,-286.909 L 14.0451,-287.439
 L 13.6448,-287.923 L 13.1871,-288.353 L 12.6791,-288.722 L 12.1289,-289.024 L 11.5451,-289.255 L 10.9369,-289.411
 L 10.3139,-289.49 L -10.3139,-289.49 L -10.9369,-289.411 L -11.5451,-289.255 L -12.1289,-289.024 L -12.6791,-288.722
 L -13.1871,-288.353 L -13.6448,-287.923 L -14.0451,-287.439 L -14.3815,-286.909 L -14.6489,-286.341 L -14.8429,-285.743
 L -14.9606,-285.127 L -15,-284.5 L -15,-219.5 L -14.9606,-218.873 L -14.8429,-218.257 L -14.6489,-217.659
 L -14.3815,-217.091 L -14.0451,-216.561 L -13.6448,-216.077 L -13.1871,-215.647 L -12.6791,-215.278 L -12.1289,-214.976
 L -11.5451,-214.745 L -10.9369,-214.589 L -10.3139,-214.51 L 10.3139,-214.51 z
M 7.34929,-279.605 L 7.05028,-279.643 L 6.75835,-279.717 L 6.47812,-279.828 L 6.214,-279.974 L 5.97017,-280.151
 L 5.75047,-280.357 L 5.55835,-280.589 L 5.39685,-280.844 L 5.26852,-281.117 L 5.1754,-281.403 L 5.11891,-281.699
 L 5.09999,-282 L 5.11891,-282.301 L 5.1754,-282.597 L 5.26852,-282.883 L 5.39685,-283.156 L 5.55835,-283.411
 L 5.75047,-283.643 L 5.97017,-283.849 L 6.214,-284.026 L 6.47812,-284.172 L 6.75835,-284.283 L 7.05028,-284.357
 L 7.34929,-284.395 L 7.6507,-284.395 L 7.94971,-284.357 L 8.24164,-284.283 L 8.52187,-284.172 L 8.78598,-284.026
 L 9.02982,-283.849 L 9.24951,-283.643 L 9.44164,-283.411 L 9.60313,-283.156 L 9.73146,-282.883 L 9.82458,-282.597
 L 9.88107,-282.301 L 9.89999,-282 L 9.88107,-281.699 L 9.82458,-281.403 L 9.73146,-281.117 L 9.60313,-280.844
 L 9.44164,-280.589 L 9.24951,-280.357 L 9.02982,-280.151 L 8.78598,-279.974 L 8.52187,-279.828 L 8.24164,-279.717
 L 7.94971,-279.643 L 7.6507,-279.605 z
M -7.59418,-280.503 L -7.78107,-280.527 L -7.96352,-280.573 L -8.13866,-280.643 L -8.30373,-280.734 L -8.45613,-280.844
 L -8.59344,-280.973 L -8.71352,-281.118 L -8.81445,-281.277 L -8.89465,-281.448 L -8.95287,-281.627 L -8.98816,-281.812
 L -9,-282 L -8.98816,-282.188 L -8.95287,-282.373 L -8.89465,-282.552 L -8.81445,-282.723 L -8.71352,-282.882
 L -8.59344,-283.027 L -8.45613,-283.156 L -8.30373,-283.266 L -8.13866,-283.357 L -7.96352,-283.427 L -7.78107,-283.473
 L -7.59418,-283.497 L -7.40581,-283.497 L -7.21892,-283.473 L -7.03647,-283.427 L -6.86133,-283.357 L -6.69626,-283.266
 L -6.54385,-283.156 L -6.40654,-283.027 L -6.28647,-282.882 L -6.18553,-282.723 L -6.10533,-282.552 L -6.04712,-282.373
 L -6.01183,-282.188 L -6,-282 L -6.01183,-281.812 L -6.04712,-281.627 L -6.10533,-281.448 L -6.18553,-281.277
 L -6.28647,-281.118 L -6.40654,-280.973 L -6.54385,-280.844 L -6.69626,-280.734 L -6.86133,-280.643 L -7.03647,-280.573
 L -7.21892,-280.527 L -7.40581,-280.503 z
M -7.6507,-219.605 L -7.94971,-219.643 L -8.24164,-219.717 L -8.52187,-219.828 L -8.78598,-219.974 L -9.02982,-220.151
 L -9.24951,-220.357 L -9.44164,-220.589 L -9.60313,-220.844 L -9.73146,-221.117 L -9.82458,-221.403 L -9.88107,-221.699
 L -9.89999,-222 L -9.88107,-222.301 L -9.82458,-222.597 L -9.73146,-222.883 L -9.60313,-223.156 L -9.44164,-223.411
 L -9.24951,-223.643 L -9.02982,-223.849 L -8.78598,-224.026 L -8.52187,-224.172 L -8.24164,-224.283 L -7.94971,-224.357
 L -7.6507,-224.395 L -7.34929,-224.395 L -7.05028,-224.357 L -6.75835,-224.283 L -6.47812,-224.172 L -6.214,-224.026
 L -5.97017,-223.849 L -5.75047,-223.643 L -5.55835,-223.411 L -5.39685,-223.156 L -5.26852,-222.883 L -5.1754,-222.597
 L -5.11891,-222.301 L -5.09999,-222 L -5.11891,-221.699 L -5.1754,-221.403 L -5.26852,-221.117 L -5.39685,-220.844
 L -5.55835,-220.589 L -5.75047,-220.357 L -5.97017,-220.151 L -6.214,-219.974 L -6.47812,-219.828 L -6.75835,-219.717
 L -7.05028,-219.643 L -7.34929,-219.605 z
M 7.40581,-220.503 L 7.21892,-220.527 L 7.03647,-220.573 L 6.86133,-220.643 L 6.69626,-220.734 L 6.54385,-220.844
 L 6.40654,-220.973 L 6.28647,-221.118 L 6.18553,-221.277 L 6.10533,-221.448 L 6.04712,-221.627 L 6.01183,-221.812
 L 6,-222 L 6.01183,-222.188 L 6.04712,-222.373 L 6.10533,-222.552 L 6.18553,-222.723 L 6.28647,-222.882
 L 6.40654,-223.027 L 6.54385,-223.156 L 6.69626,-223.266 L 6.86133,-223.357 L 7.03647,-223.427 L 7.21892,-223.473
 L 7.40581,-223.497 L 7.59418,-223.497 L 7.78107,-223.473 L 7.96352,-223.427 L 8.13866,-223.357 L 8.30373,-223.266
 L 8.45613,-223.156 L 8.59344,-223.027 L 8.71352,-222.882 L 8.81445,-222.723 L 8.89465,-222.552 L 8.95287,-222.373
 L 8.98816,-222.188 L 9,-222 L 8.98816,-221.812 L 8.95287,-221.627 L 8.89465,-221.448 L 8.81445,-221.277
 L 8.71352,-221.118 L 8.59344,-220.973 L 8.45613,-220.844 L 8.30373,-220.734 L 8.13866,-220.643 L 7.96352,-220.573
 L 7.78107,-220.527 L 7.59418,-220.503 z
" stroke="black" fill="lightgray" stroke-width="0.5"/>
</svg>
