<?xml version="1.0" standalone="no"?>
<!DOCTYPE svg PUBLIC "-//W3C//DTD SVG 1.1//EN" "http://www.w3.org/Graphics/SVG/1.1/DTD/svg11.dtd">
<svg width="74mm" height="44mm" viewBox="-37 -22 74 44" xmlns="http://www.w3.org/2000/svg" version="1.1">
<title>OpenSCAD Model</title>
<path d="
M 33.2495,21.4291 L 33.7361,21.3042 L 34.2031,21.1193 L 34.6433,20.8773 L 35.0497,20.582 L 35.4159,20.2382
 L 35.7361,19.8511 L 36.0052,19.427 L 36.2191,18.9725 L 36.3743,18.4948 L 36.4685,18.0013 L 36.5,17.5
 L 36.5,-17.5 L 36.4685,-18.0013 L 36.3743,-18.4948 L 36.2191,-18.9725 L 36.0052,-19.427 L 35.7361,-19.8511
 L 35.4159,-20.2382 L 35.0497,-20.582 L 34.6433,-20.8773 L 34.2031,-21.1193 L 33.7361,-21.3042 L 33.2495,-21.4291
 L 32.7512,-21.4921 L -32.7512,-21.4921 L -33.2495,-21.4291 L -33.7361,-21.3042 L -34.2031,-21.1193 L -34.6433,-20.8773
 L -35.0497,-20.582 L -35.4159,-20.2382 L -35.7361,-19.8511 L -36.0052,-19.427 L -36.2191,-18.9725 L -36.3743,-18.4948
 L -36.4685,-18.0013 L -36.5,-17.5 L -36.5,17.5 L -36.4685,18.0013 L -36.3743,18.4948 L -36.2191,18.9725
 L -36.0052,19.427 L -35.7361,19.8511 L -35.4159,20.2382 L -35.0497,20.582 L -34.6433,20.8773 L -34.2031,21.1193
 L -33.7361,21.3042 L -33.2495,21.4291 L -32.7512,21.4921 L 32.7512,21.4921 z
M -30.1821,-12.1057 L -30.5434,-12.1514 L -30.8961,-12.2419 L -31.2348,-12.376 L -31.5539,-12.5514 L -31.8485,-12.7655
 L -32.114,-13.0148 L -32.3461,-13.2954 L -32.5413,-13.6029 L -32.6964,-13.9324 L -32.8089,-14.2788 L -32.8771,-14.6365
 L -32.9,-15 L -32.8771,-15.3635 L -32.8089,-15.7212 L -32.6964,-16.0676 L -32.5413,-16.3971 L -32.3461,-16.7046
 L -32.114,-16.9852 L -31.8485,-17.2345 L -31.5539,-17.4485 L -31.2348,-17.624 L -30.8961,-17.7581 L -30.5434,-17.8486
 L -30.1821,-17.8943 L -29.8179,-17.8943 L -29.4566,-17.8486 L -29.1039,-17.7581 L -28.7652,-17.624 L -28.4461,-17.4485
 L -28.1515,-17.2345 L -27.886,-16.9852 L -27.6538,-16.7046 L -27.4587,-16.3971 L -27.3036,-16.0676 L -27.1911,-15.7212
 L -27.1229,-15.3635 L -27.1,-15 L -27.1229,-14.6365 L -27.1911,-14.2788 L -27.3036,-13.9324 L -27.4587,-13.6029
 L -27.6538,-13.2954 L -27.886,-13.0148 L -28.1515,-12.7655 L -28.4461,-12.5514 L -28.7652,-12.376 L -29.1039,-12.2419
 L -29.4566,-12.1514 L -29.8179,-12.1057 z
M 29.8179,-12.1057 L 29.4566,-12.1514 L 29.1039,-12.2419 L 28.7652,-12.376 L 28.4461,-12.5514 L 28.1515,-12.7655
 L 27.886,-13.0148 L 27.6538,-13.2954 L 27.4587,-13.6029 L 27.3036,-13.9324 L 27.1911,-14.2788 L 27.1229,-14.6365
 L 27.1,-15 L 27.1229,-15.3635 L 27.1911,-15.7212 L 27.3036,-16.0676 L 27.4587,-16.3971 L 27.6538,-16.7046
 L 27.886,-16.9852 L 28.1515,-17.2345 L 28.4461,-17.4485 L 28.7652,-17.624 L 29.1039,-17.7581 L 29.4566,-17.8486
 L 29.8179,-17.8943 L 30.1821,-17.8943 L 30.5434,-17.8486 L 30.8961,-17.7581 L 31.2348,-17.624 L 31.5539,-17.4485
 L 31.8485,-17.2345 L 32.114,-16.9852 L 32.3461,-16.7046 L 32.5413,-16.3971 L 32.6964,-16.0676 L 32.8089,-15.7212
 L 32.8771,-15.3635 L 32.9,-15 L 32.8771,-14.6365 L 32.8089,-14.2788 L 32.6964,-13.9324 L 32.5413,-13.6029
 L 32.3461,-13.2954 L 32.114,-13.0148 L 31.8485,-12.7655 L 31.5539,-12.5514 L 31.2348,-12.376 L 30.8961,-12.2419
 L 30.5434,-12.1514 L 30.1821,-12.1057 z
M 27.6538,16.7046 L 27.4587,16.3971 L 27.3036,16.0676 L 27.1911,15.7212 L 27.1229,15.3635 L 27.1,15
 L 27.1229,14.6365 L 27.1911,14.2788 L 27.3036,13.9324 L 27.4587,13.6029 L 27.6538,13.2954 L 27.886,13.0148
 L 28.1515,12.7655 L 28.4461,12.5514 L 28.7652,12.376 L 29.1039,12.2419 L 29.4566,12.1514 L 29.8179,12.1057
 L 30.1821,12.1057 L 30.5434,12.1514 L 30.8961,12.2419 L 31.2348,12.376 L 31.5539,12.5514 L 31.8485,12.7655
 L 32.114,13.0148 L 32.3461,13.2954 L 32.5413,13.6029 L 32.6964,13.9324 L 32.8089,14.2788 L 32.8771,14.6365
 L 32.9,15 L 32.8771,15.3635 L 32.8089,15.7212 L 32.6964,16.0676 L 32.5413,16.3971 L 32.3461,16.7046
 L 32.114,16.9852 L 31.8485,17.2345 L 31.5539,17.4485 L 31.2348,17.624 L 30.8961,17.7581 L 30.5434,17.8486
 L 30.1821,17.8943 L 29.8179,17.8943 L 29.4566,17.8486 L 29.1039,17.7581 L 28.7652,17.624 L 28.4461,17.4485
 L 28.1515,17.2345 L 27.886,16.9852 z
M -28.7652,17.624 L -29.1039,17.7581 L -29.4566,17.8486 L -29.8179,17.8943 L -30.1821,17.8943 L -30.5434,17.8486
 L -30.8961,17.7581 L -31.2348,17.624 L -31.5539,17.4485 L -31.8485,17.2345 L -32.114,16.9852 L -32.3461,16.7046
 L -32.5413,16.3971 L -32.6964,16.0676 L -32.8089,15.7212 L -32.8771,15.3635 L -32.9,15 L -32.8771,14.6365
 L -32.8089,14.2788 L -32.6964,13.9324 L -32.5413,13.6029 L -32.3461,13.2954 L -32.114,13.0148 L -31.8485,12.7655
 L -31.5539,12.5514 L -31.2348,12.376 L -30.8961,12.2419 L -30.5434,12.1514 L -30.1821,12.1057 L -29.8179,12.1057
 L -29.4566,12.1514 L -29.1039,12.2419 L -28.7652,12.376 L -28.4461,12.5514 L -28.1515,12.7655 L -27.886,13.0148
 L -27.6538,13.2954 L -27.4587,13.6029 L -27.3036,13.9324 L -27.1911,14.2788 L -27.1229,14.6365 L -27.1,15
 L -27.1229,15.3635 L -27.1911,15.7212 L -27.3036,16.0676 L -27.4587,16.3971 L -27.6538,16.7046 L -27.886,16.9852
 L -28.1515,17.2345 L -28.4461,17.4485 z
" stroke="black" fill="lightgray" stroke-width="0.5"/>
</svg>
