<?xml version="1.0" standalone="no"?>
<!DOCTYPE svg PUBLIC "-//W3C//DTD SVG 1.1//EN" "http://www.w3.org/Graphics/SVG/1.1/DTD/svg11.dtd">
<svg width="16mm" height="147mm" viewBox="-8 -249 16 147" xmlns="http://www.w3.org/2000/svg" version="1.1">
<title>OpenSCAD Model</title>
<path d="
M 3.4369,-219.089 L 4.04507,-219.245 L 4.62889,-219.476 L 5.17912,-219.778 L 5.68712,-220.147 L 6.14484,-220.577
 L 6.54507,-221.061 L 6.88153,-221.591 L 7.14888,-222.159 L 7.34291,-222.757 L 7.46057,-223.373 L 7.5,-224
 L 7.5,-244 L 7.46057,-244.627 L 7.34291,-245.243 L 7.14888,-245.841 L 6.88153,-246.409 L 6.54507,-246.939
 L 6.14484,-247.423 L 5.68712,-247.853 L 5.17912,-248.222 L 4.62889,-248.524 L 4.04507,-248.755 L 3.4369,-248.911
 L 2.81395,-248.99 L -2.81395,-248.99 L -3.4369,-248.911 L -4.04507,-248.755 L -4.62889,-248.524 L -5.17912,-248.222
 L -5.68712,-247.853 L -6.14484,-247.423 L -6.54507,-246.939 L -6.88153,-246.409 L -7.14888,-245.841 L -7.34291,-245.243
 L -7.46057,-244.627 L -7.5,-244 L -7.5,-224 L -7.46057,-223.373 L -7.34291,-222.757 L -7.14888,-222.159
 L -6.88153,-221.591 L -6.54507,-221.061 L -6.14484,-220.577 L -5.68712,-220.147 L -5.17912,-219.778 L -4.62889,-219.476
 L -4.04507,-219.245 L -3.4369,-219.089 L -2.81395,-219.01 L 2.81395,-219.01 z
M 2.68895,-219.509 L 3.17912,-219.778 L 3.68712,-220.147 L 4.14484,-220.577 L 4.54507,-221.061 L 4.88153,-221.591
 L 5.14888,-222.159 L 5.34291,-222.757 L 5.46057,-223.373 L 5.5,-224 L 5.5,-227 L 5.46057,-227.627
 L 5.34291,-228.243 L 5.14888,-228.841 L 4.88153,-229.409 L 4.54507,-229.939 L 4.14484,-230.423 L 3.68712,-230.853
 L 3.17912,-231.222 L 2.62889,-231.524 L 2.04507,-231.755 L 1.4369,-231.911 L 0.81395,-231.99 L -2.81395,-231.99
 L -3.4369,-231.911 L -4.04507,-231.755 L -4.62889,-231.524 L -5.17912,-231.222 L -5.68712,-230.853 L -6.14484,-230.423
 L -6.54507,-229.939 L -6.88153,-229.409 L -7,-229.157 L -7,-236.843 L -6.88153,-236.591 L -6.54507,-236.061
 L -6.14484,-235.577 L -5.68712,-235.147 L -5.17912,-234.778 L -4.62889,-234.476 L -4.04507,-234.245 L -3.4369,-234.089
 L -2.81395,-234.01 L 0.81395,-234.01 L 1.4369,-234.089 L 2.04507,-234.245 L 2.62889,-234.476 L 3.17912,-234.778
 L 3.68712,-235.147 L 4.14484,-235.577 L 4.54507,-236.061 L 4.88153,-236.591 L 5.14888,-237.159 L 5.34291,-237.757
 L 5.46057,-238.373 L 5.5,-239 L 5.5,-242 L 5.46057,-242.627 L 5.34291,-243.243 L 5.14888,-243.841
 L 4.88153,-244.409 L 4.54507,-244.939 L 4.14484,-245.423 L 3.68712,-245.853 L 3.17912,-246.222 L 2.62889,-246.524
 L 2.04507,-246.755 L 1.4369,-246.911 L 0.81395,-246.99 L -2.81395,-246.99 L -3.4369,-246.911 L -4.04507,-246.755
 L -4.62889,-246.524 L -5.17912,-246.222 L -5.68712,-245.853 L -6.14484,-245.423 L -6.54507,-244.939 L -6.88153,-244.409
 L -6.98859,-244.181 L -6.96451,-244.564 L -6.85861,-245.119 L -6.68399,-245.657 L -6.44337,-246.168 L -6.14056,-246.645
 L -5.78035,-247.08 L -5.36839,-247.467 L -4.91121,-247.799 L -4.416,-248.072 L -3.89056,-248.28 L -3.3432,-248.42
 L -2.78255,-248.491 L 2.78255,-248.491 L 3.3432,-248.42 L 3.89056,-248.28 L 4.416,-248.072 L 4.91121,-247.799
 L 5.36839,-247.467 L 5.78035,-247.08 L 6.14056,-246.645 L 6.44337,-246.168 L 6.68399,-245.657 L 6.85861,-245.119
 L 6.96451,-244.564 L 7,-244 L 7,-224 L 6.96451,-223.436 L 6.85861,-222.881 L 6.68399,-222.343
 L 6.44337,-221.832 L 6.14056,-221.355 L 5.78035,-220.92 L 5.36839,-220.533 L 4.91121,-220.201 L 4.416,-219.928
 L 3.89056,-219.72 L 3.3432,-219.58 L 2.78255,-219.509 z
M -0.0941772,-240.003 L -0.281067,-240.027 L -0.463516,-240.073 L -0.638657,-240.143 L -0.803726,-240.234 L -0.956131,-240.344
 L -1.09344,-240.473 L -1.21352,-240.618 L -1.31445,-240.777 L -1.39465,-240.948 L -1.45287,-241.127 L -1.48816,-241.312
 L -1.5,-241.5 L -1.48816,-241.688 L -1.45287,-241.873 L -1.39465,-242.052 L -1.31445,-242.223 L -1.21352,-242.382
 L -1.09344,-242.527 L -0.956131,-242.656 L -0.803726,-242.766 L -0.638657,-242.857 L -0.463516,-242.927 L -0.281067,-242.973
 L -0.0941772,-242.997 L 0.0941772,-242.997 L 0.281067,-242.973 L 0.463516,-242.927 L 0.638657,-242.857 L 0.803726,-242.766
 L 0.956131,-242.656 L 1.09344,-242.527 L 1.21352,-242.382 L 1.31445,-242.223 L 1.39465,-242.052 L 1.45287,-241.873
 L 1.48816,-241.688 L 1.5,-241.5 L 1.48816,-241.312 L 1.45287,-241.127 L 1.39465,-240.948 L 1.31445,-240.777
 L 1.21352,-240.618 L 1.09344,-240.473 L 0.956131,-240.344 L 0.803726,-240.234 L 0.638657,-240.143 L 0.463516,-240.073
 L 0.281067,-240.027 L 0.0941772,-240.003 z
M -0.0941772,-225.003 L -0.281067,-225.027 L -0.463516,-225.073 L -0.638657,-225.143 L -0.803726,-225.234 L -0.956131,-225.344
 L -1.09344,-225.473 L -1.21352,-225.618 L -1.31445,-225.777 L -1.39465,-225.948 L -1.45287,-226.127 L -1.48816,-226.312
 L -1.5,-226.5 L -1.48816,-226.688 L -1.45287,-226.873 L -1.39465,-227.052 L -1.31445,-227.223 L -1.21352,-227.382
 L -1.09344,-227.527 L -0.956131,-227.656 L -0.803726,-227.766 L -0.638657,-227.857 L -0.463516,-227.927 L -0.281067,-227.973
 L -0.0941772,-227.997 L 0.0941772,-227.997 L 0.281067,-227.973 L 0.463516,-227.927 L 0.638657,-227.857 L 0.803726,-227.766
 L 0.956131,-227.656 L 1.09344,-227.527 L 1.21352,-227.382 L 1.31445,-227.223 L 1.39465,-227.052 L 1.45287,-226.873
 L 1.48816,-226.688 L 1.5,-226.5 L 1.48816,-226.312 L 1.45287,-226.127 L 1.39465,-225.948 L 1.31445,-225.777
 L 1.21352,-225.618 L 1.09344,-225.473 L 0.956131,-225.344 L 0.803726,-225.234 L 0.638657,-225.143 L 0.463516,-225.073
 L 0.281067,-225.027 L 0.0941772,-225.003 z
M 3.4369,-180.089 L 4.04507,-180.245 L 4.62889,-180.476 L 5.17912,-180.778 L 5.68712,-181.147 L 6.14484,-181.577
 L 6.54507,-182.061 L 6.88153,-182.591 L 7.14888,-183.159 L 7.34291,-183.757 L 7.46057,-184.373 L 7.5,-185
 L 7.5,-205 L 7.46057,-205.627 L 7.34291,-206.243 L 7.14888,-206.841 L 6.88153,-207.409 L 6.54507,-207.939
 L 6.14484,-208.423 L 5.68712,-208.853 L 5.17912,-209.222 L 4.62889,-209.524 L 4.04507,-209.755 L 3.4369,-209.911
 L 2.81395,-209.99 L -2.81395,-209.99 L -3.4369,-209.911 L -4.04507,-209.755 L -4.62889,-209.524 L -5.17912,-209.222
 L -5.68712,-208.853 L -6.14484,-208.423 L -6.54507,-207.939 L -6.88153,-207.409 L -7.14888,-206.841 L -7.34291,-206.243
 L -7.46057,-205.627 L -7.5,-205 L -7.5,-185 L -7.46057,-184.373 L -7.34291,-183.757 L -7.14888,-183.159
 L -6.88153,-182.591 L -6.54507,-182.061 L -6.14484,-181.577 L -5.68712,-181.147 L -5.17912,-180.778 L -4.62889,-180.476
 L -4.04507,-180.245 L -3.4369,-180.089 L -2.81395,-180.01 L 2.81395,-180.01 z
M 2.68895,-180.509 L 3.17912,-180.778 L 3.68712,-181.147 L 4.14484,-181.577 L 4.54507,-182.061 L 4.88153,-182.591
 L 5.14888,-183.159 L 5.34291,-183.757 L 5.46057,-184.373 L 5.5,-185 L 5.5,-188 L 5.46057,-188.627
 L 5.34291,-189.243 L 5.14888,-189.841 L 4.88153,-190.409 L 4.54507,-190.939 L 4.14484,-191.423 L 3.68712,-191.853
 L 3.17912,-192.222 L 2.62889,-192.524 L 2.04507,-192.755 L 1.4369,-192.911 L 0.81395,-192.99 L -2.81395,-192.99
 L -3.4369,-192.911 L -4.04507,-192.755 L -4.62889,-192.524 L -5.17912,-192.222 L -5.68712,-191.853 L -6.14484,-191.423
 L -6.54507,-190.939 L -6.88153,-190.409 L -7,-190.157 L -7,-197.843 L -6.88153,-197.591 L -6.54507,-197.061
 L -6.14484,-196.577 L -5.68712,-196.147 L -5.17912,-195.778 L -4.62889,-195.476 L -4.04507,-195.245 L -3.4369,-195.089
 L -2.81395,-195.01 L 0.81395,-195.01 L 1.4369,-195.089 L 2.04507,-195.245 L 2.62889,-195.476 L 3.17912,-195.778
 L 3.68712,-196.147 L 4.14484,-196.577 L 4.54507,-197.061 L 4.88153,-197.591 L 5.14888,-198.159 L 5.34291,-198.757
 L 5.46057,-199.373 L 5.5,-200 L 5.5,-203 L 5.46057,-203.627 L 5.34291,-204.243 L 5.14888,-204.841
 L 4.88153,-205.409 L 4.54507,-205.939 L 4.14484,-206.423 L 3.68712,-206.853 L 3.17912,-207.222 L 2.62889,-207.524
 L 2.04507,-207.755 L 1.4369,-207.911 L 0.81395,-207.99 L -2.81395,-207.99 L -3.4369,-207.911 L -4.04507,-207.755
 L -4.62889,-207.524 L -5.17912,-207.222 L -5.68712,-206.853 L -6.14484,-206.423 L -6.54507,-205.939 L -6.88153,-205.409
 L -6.98859,-205.181 L -6.96451,-205.564 L -6.85861,-206.119 L -6.68399,-206.657 L -6.44337,-207.168 L -6.14056,-207.645
 L -5.78035,-208.08 L -5.36839,-208.467 L -4.91121,-208.799 L -4.416,-209.072 L -3.89056,-209.28 L -3.3432,-209.42
 L -2.78255,-209.491 L 2.78255,-209.491 L 3.3432,-209.42 L 3.89056,-209.28 L 4.416,-209.072 L 4.91121,-208.799
 L 5.36839,-208.467 L 5.78035,-208.08 L 6.14056,-207.645 L 6.44337,-207.168 L 6.68399,-206.657 L 6.85861,-206.119
 L 6.96451,-205.564 L 7,-205 L 7,-185 L 6.96451,-184.436 L 6.85861,-183.881 L 6.68399,-183.343
 L 6.44337,-182.832 L 6.14056,-182.355 L 5.78035,-181.92 L 5.36839,-181.533 L 4.91121,-181.201 L 4.416,-180.928
 L 3.89056,-180.72 L 3.3432,-180.58 L 2.78255,-180.509 z
M -0.0941772,-201.003 L -0.281067,-201.027 L -0.463516,-201.073 L -0.638657,-201.143 L -0.803726,-201.234 L -0.956131,-201.344
 L -1.09344,-201.473 L -1.21352,-201.618 L -1.31445,-201.777 L -1.39465,-201.948 L -1.45287,-202.127 L -1.48816,-202.312
 L -1.5,-202.5 L -1.48816,-202.688 L -1.45287,-202.873 L -1.39465,-203.052 L -1.31445,-203.223 L -1.21352,-203.382
 L -1.09344,-203.527 L -0.956131,-203.656 L -0.803726,-203.766 L -0.638657,-203.857 L -0.463516,-203.927 L -0.281067,-203.973
 L -0.0941772,-203.997 L 0.0941772,-203.997 L 0.281067,-203.973 L 0.463516,-203.927 L 0.638657,-203.857 L 0.803726,-203.766
 L 0.956131,-203.656 L 1.09344,-203.527 L 1.21352,-203.382 L 1.31445,-203.223 L 1.39465,-203.052 L 1.45287,-202.873
 L 1.48816,-202.688 L 1.5,-202.5 L 1.48816,-202.312 L 1.45287,-202.127 L 1.39465,-201.948 L 1.31445,-201.777
 L 1.21352,-201.618 L 1.09344,-201.473 L 0.956131,-201.344 L 0.803726,-201.234 L 0.638657,-201.143 L 0.463516,-201.073
 L 0.281067,-201.027 L 0.0941772,-201.003 z
M -0.0941772,-186.003 L -0.281067,-186.027 L -0.463516,-186.073 L -0.638657,-186.143 L -0.803726,-186.234 L -0.956131,-186.344
 L -1.09344,-186.473 L -1.21352,-186.618 L -1.31445,-186.777 L -1.39465,-186.948 L -1.45287,-187.127 L -1.48816,-187.312
 L -1.5,-187.5 L -1.48816,-187.688 L -1.45287,-187.873 L -1.39465,-188.052 L -1.31445,-188.223 L -1.21352,-188.382
 L -1.09344,-188.527 L -0.956131,-188.656 L -0.803726,-188.766 L -0.638657,-188.857 L -0.463516,-188.927 L -0.281067,-188.973
 L -0.0941772,-188.997 L 0.0941772,-188.997 L 0.281067,-188.973 L 0.463516,-188.927 L 0.638657,-188.857 L 0.803726,-188.766
 L 0.956131,-188.656 L 1.09344,-188.527 L 1.21352,-188.382 L 1.31445,-188.223 L 1.39465,-188.052 L 1.45287,-187.873
 L 1.48816,-187.688 L 1.5,-187.5 L 1.48816,-187.312 L 1.45287,-187.127 L 1.39465,-186.948 L 1.31445,-186.777
 L 1.21352,-186.618 L 1.09344,-186.473 L 0.956131,-186.344 L 0.803726,-186.234 L 0.638657,-186.143 L 0.463516,-186.073
 L 0.281067,-186.027 L 0.0941772,-186.003 z
M 3.4369,-141.089 L 4.04507,-141.245 L 4.62889,-141.476 L 5.17912,-141.778 L 5.68712,-142.147 L 6.14484,-142.577
 L 6.54507,-143.061 L 6.88153,-143.591 L 7.14888,-144.159 L 7.34291,-144.757 L 7.46057,-145.373 L 7.5,-146
 L 7.5,-166 L 7.46057,-166.627 L 7.34291,-167.243 L 7.14888,-167.841 L 6.88153,-168.409 L 6.54507,-168.939
 L 6.14484,-169.423 L 5.68712,-169.853 L 5.17912,-170.222 L 4.62889,-170.524 L 4.04507,-170.755 L 3.4369,-170.911
 L 2.81395,-170.99 L -2.81395,-170.99 L -3.4369,-170.911 L -4.04507,-170.755 L -4.62889,-170.524 L -5.17912,-170.222
 L -5.68712,-169.853 L -6.14484,-169.423 L -6.54507,-168.939 L -6.88153,-168.409 L -7.14888,-167.841 L -7.34291,-167.243
 L -7.46057,-166.627 L -7.5,-166 L -7.5,-146 L -7.46057,-145.373 L -7.34291,-144.757 L -7.14888,-144.159
 L -6.88153,-143.591 L -6.54507,-143.061 L -6.14484,-142.577 L -5.68712,-142.147 L -5.17912,-141.778 L -4.62889,-141.476
 L -4.04507,-141.245 L -3.4369,-141.089 L -2.81395,-141.01 L 2.81395,-141.01 z
M 4.14484,-142.577 L 4.54507,-143.061 L 4.88153,-143.591 L 5.14888,-144.159 L 5.34291,-144.757 L 5.46057,-145.373
 L 5.5,-146 L 5.5,-149 L 5.46057,-149.627 L 5.34291,-150.243 L 5.14888,-150.841 L 4.88153,-151.409
 L 4.54507,-151.939 L 4.14484,-152.423 L 3.68712,-152.853 L 3.17912,-153.222 L 2.62889,-153.524 L 2.04507,-153.755
 L 1.4369,-153.911 L 0.81395,-153.99 L -2.81395,-153.99 L -3.4369,-153.911 L -4.04507,-153.755 L -4.62889,-153.524
 L -5.17912,-153.222 L -5.68712,-152.853 L -6.14484,-152.423 L -6.52237,-151.966 L -6.52237,-158.034 L -6.14484,-157.577
 L -5.68712,-157.147 L -5.17912,-156.778 L -4.62889,-156.476 L -4.04507,-156.245 L -3.4369,-156.089 L -2.81395,-156.01
 L 0.81395,-156.01 L 1.4369,-156.089 L 2.04507,-156.245 L 2.62889,-156.476 L 3.17912,-156.778 L 3.68712,-157.147
 L 4.14484,-157.577 L 4.54507,-158.061 L 4.88153,-158.591 L 5.14888,-159.159 L 5.34291,-159.757 L 5.46057,-160.373
 L 5.5,-161 L 5.5,-164 L 5.46057,-164.627 L 5.34291,-165.243 L 5.14888,-165.841 L 4.88153,-166.409
 L 4.54507,-166.939 L 4.14484,-167.423 L 3.68712,-167.853 L 3.17912,-168.222 L 2.62889,-168.524 L 2.04507,-168.755
 L 1.4369,-168.911 L 0.81395,-168.99 L -2.81395,-168.99 L -3.4369,-168.911 L -4.04507,-168.755 L -4.62889,-168.524
 L -5.17912,-168.222 L -5.68712,-167.853 L -6.14484,-167.423 L -6.33244,-167.196 L -6.23991,-167.481 L -6.02484,-167.938
 L -5.75417,-168.364 L -5.43219,-168.754 L -5.06395,-169.099 L -4.65529,-169.396 L -4.21265,-169.64 L -3.74298,-169.826
 L -3.25371,-169.951 L -2.75256,-170.014 L 2.75256,-170.014 L 3.25371,-169.951 L 3.74298,-169.826 L 4.21265,-169.64
 L 4.65529,-169.396 L 5.06395,-169.099 L 5.43219,-168.754 L 5.75417,-168.364 L 6.02484,-167.938 L 6.23991,-167.481
 L 6.39601,-167 L 6.49066,-166.504 L 6.52237,-166 L 6.52237,-146 L 6.49066,-145.496 L 6.39601,-145
 L 6.23991,-144.519 L 6.02484,-144.062 L 5.75417,-143.636 L 5.43219,-143.246 L 5.06395,-142.901 L 4.65529,-142.604
 L 4.21265,-142.36 L 3.74298,-142.174 L 3.70573,-142.165 z
M -0.0941772,-162.003 L -0.281067,-162.027 L -0.463516,-162.073 L -0.638657,-162.143 L -0.803726,-162.234 L -0.956131,-162.344
 L -1.09344,-162.473 L -1.21352,-162.618 L -1.31445,-162.777 L -1.39465,-162.948 L -1.45287,-163.127 L -1.48816,-163.312
 L -1.5,-163.5 L -1.48816,-163.688 L -1.45287,-163.873 L -1.39465,-164.052 L -1.31445,-164.223 L -1.21352,-164.382
 L -1.09344,-164.527 L -0.956131,-164.656 L -0.803726,-164.766 L -0.638657,-164.857 L -0.463516,-164.927 L -0.281067,-164.973
 L -0.0941772,-164.997 L 0.0941772,-164.997 L 0.281067,-164.973 L 0.463516,-164.927 L 0.638657,-164.857 L 0.803726,-164.766
 L 0.956131,-164.656 L 1.09344,-164.527 L 1.21352,-164.382 L 1.31445,-164.223 L 1.39465,-164.052 L 1.45287,-163.873
 L 1.48816,-163.688 L 1.5,-163.5 L 1.48816,-163.312 L 1.45287,-163.127 L 1.39465,-162.948 L 1.31445,-162.777
 L 1.21352,-162.618 L 1.09344,-162.473 L 0.956131,-162.344 L 0.803726,-162.234 L 0.638657,-162.143 L 0.463516,-162.073
 L 0.281067,-162.027 L 0.0941772,-162.003 z
M -0.0941772,-147.003 L -0.281067,-147.027 L -0.463516,-147.073 L -0.638657,-147.143 L -0.803726,-147.234 L -0.956131,-147.344
 L -1.09344,-147.473 L -1.21352,-147.618 L -1.31445,-147.777 L -1.39465,-147.948 L -1.45287,-148.127 L -1.48816,-148.312
 L -1.5,-148.5 L -1.48816,-148.688 L -1.45287,-148.873 L -1.39465,-149.052 L -1.31445,-149.223 L -1.21352,-149.382
 L -1.09344,-149.527 L -0.956131,-149.656 L -0.803726,-149.766 L -0.638657,-149.857 L -0.463516,-149.927 L -0.281067,-149.973
 L -0.0941772,-149.997 L 0.0941772,-149.997 L 0.281067,-149.973 L 0.463516,-149.927 L 0.638657,-149.857 L 0.803726,-149.766
 L 0.956131,-149.656 L 1.09344,-149.527 L 1.21352,-149.382 L 1.31445,-149.223 L 1.39465,-149.052 L 1.45287,-148.873
 L 1.48816,-148.688 L 1.5,-148.5 L 1.48816,-148.312 L 1.45287,-148.127 L 1.39465,-147.948 L 1.31445,-147.777
 L 1.21352,-147.618 L 1.09344,-147.473 L 0.956131,-147.344 L 0.803726,-147.234 L 0.638657,-147.143 L 0.463516,-147.073
 L 0.281067,-147.027 L 0.0941772,-147.003 z
M 3.4369,-102.089 L 4.04507,-102.245 L 4.62889,-102.476 L 5.17912,-102.778 L 5.68712,-103.147 L 6.14484,-103.577
 L 6.54507,-104.061 L 6.88153,-104.591 L 7.14888,-105.159 L 7.34291,-105.757 L 7.46057,-106.373 L 7.5,-107
 L 7.5,-127 L 7.46057,-127.627 L 7.34291,-128.243 L 7.14888,-128.841 L 6.88153,-129.409 L 6.54507,-129.939
 L 6.14484,-130.423 L 5.68712,-130.853 L 5.17912,-131.222 L 4.62889,-131.524 L 4.04507,-131.755 L 3.4369,-131.911
 L 2.81395,-131.99 L -2.81395,-131.99 L -3.4369,-131.911 L -4.04507,-131.755 L -4.62889,-131.524 L -5.17912,-131.222
 L -5.68712,-130.853 L -6.14484,-130.423 L -6.54507,-129.939 L -6.88153,-129.409 L -7.14888,-128.841 L -7.34291,-128.243
 L -7.46057,-127.627 L -7.5,-127 L -7.5,-107 L -7.46057,-106.373 L -7.34291,-105.757 L -7.14888,-105.159
 L -6.88153,-104.591 L -6.54507,-104.061 L -6.14484,-103.577 L -5.68712,-103.147 L -5.17912,-102.778 L -4.62889,-102.476
 L -4.04507,-102.245 L -3.4369,-102.089 L -2.81395,-102.01 L 2.81395,-102.01 z
M -0.150696,-122.105 L -0.449707,-122.143 L -0.741638,-122.217 L -1.02187,-122.328 L -1.28598,-122.474 L -1.52982,-122.651
 L -1.74951,-122.857 L -1.94164,-123.089 L -2.10313,-123.344 L -2.23146,-123.617 L -2.32458,-123.903 L -2.38107,-124.199
 L -2.39999,-124.5 L -2.38107,-124.801 L -2.32458,-125.097 L -2.23146,-125.383 L -2.10313,-125.656 L -1.94164,-125.911
 L -1.74951,-126.143 L -1.52982,-126.349 L -1.28598,-126.526 L -1.02187,-126.672 L -0.741638,-126.783 L -0.449707,-126.857
 L -0.150696,-126.895 L 0.150696,-126.895 L 0.449707,-126.857 L 0.741638,-126.783 L 1.02187,-126.672 L 1.28598,-126.526
 L 1.52982,-126.349 L 1.74951,-126.143 L 1.94164,-125.911 L 2.10313,-125.656 L 2.23146,-125.383 L 2.32458,-125.097
 L 2.38107,-124.801 L 2.39999,-124.5 L 2.38107,-124.199 L 2.32458,-123.903 L 2.23146,-123.617 L 2.10313,-123.344
 L 1.94164,-123.089 L 1.74951,-122.857 L 1.52982,-122.651 L 1.28598,-122.474 L 1.02187,-122.328 L 0.741638,-122.217
 L 0.449707,-122.143 L 0.150696,-122.105 z
M -0.150696,-107.105 L -0.449707,-107.143 L -0.741638,-107.217 L -1.02187,-107.328 L -1.28598,-107.474 L -1.52982,-107.651
 L -1.74951,-107.857 L -1.94164,-108.089 L -2.10313,-108.344 L -2.23146,-108.617 L -2.32458,-108.903 L -2.38107,-109.199
 L -2.39999,-109.5 L -2.38107,-109.801 L -2.32458,-110.097 L -2.23146,-110.383 L -2.10313,-110.656 L -1.94164,-110.911
 L -1.74951,-111.143 L -1.52982,-111.349 L -1.28598,-111.526 L -1.02187,-111.672 L -0.741638,-111.783 L -0.449707,-111.857
 L -0.150696,-111.895 L 0.150696,-111.895 L 0.449707,-111.857 L 0.741638,-111.783 L 1.02187,-111.672 L 1.28598,-111.526
 L 1.52982,-111.349 L 1.74951,-111.143 L 1.94164,-110.911 L 2.10313,-110.656 L 2.23146,-110.383 L 2.32458,-110.097
 L 2.38107,-109.801 L 2.39999,-109.5 L 2.38107,-109.199 L 2.32458,-108.903 L 2.23146,-108.617 L 2.10313,-108.344
 L 1.94164,-108.089 L 1.74951,-107.857 L 1.52982,-107.651 L 1.28598,-107.474 L 1.02187,-107.328 L 0.741638,-107.217
 L 0.449707,-107.143 L 0.150696,-107.105 z
" stroke="black" fill="lightgray" stroke-width="0.5"/>
</svg>
