<?xml version="1.0" standalone="no"?>
<!DOCTYPE svg PUBLIC "-//W3C//DTD SVG 1.1//EN" "http://www.w3.org/Graphics/SVG/1.1/DTD/svg11.dtd">
<svg width="16mm" height="147mm" viewBox="-8 -288 16 147" xmlns="http://www.w3.org/2000/svg" version="1.1">
<title>OpenSCAD Model</title>
<path d="
M 3.4369,-258.089 L 4.04507,-258.245 L 4.62889,-258.476 L 5.17912,-258.778 L 5.68712,-259.147 L 6.14484,-259.577
 L 6.54507,-260.061 L 6.88153,-260.591 L 7.14888,-261.159 L 7.34291,-261.757 L 7.46057,-262.373 L 7.5,-263
 L 7.5,-283 L 7.46057,-283.627 L 7.34291,-284.243 L 7.14888,-284.841 L 6.88153,-285.409 L 6.54507,-285.939
 L 6.14484,-286.423 L 5.68712,-286.853 L 5.17912,-287.222 L 4.62889,-287.524 L 4.04507,-287.755 L 3.4369,-287.911
 L 2.81395,-287.99 L -2.81395,-287.99 L -3.4369,-287.911 L -4.04507,-287.755 L -4.62889,-287.524 L -5.17912,-287.222
 L -5.68712,-286.853 L -6.14484,-286.423 L -6.54507,-285.939 L -6.88153,-285.409 L -7.14888,-284.841 L -7.34291,-284.243
 L -7.46057,-283.627 L -7.5,-283 L -7.5,-263 L -7.46057,-262.373 L -7.34291,-261.757 L -7.14888,-261.159
 L -6.88153,-260.591 L -6.54507,-260.061 L -6.14484,-259.577 L -5.68712,-259.147 L -5.17912,-258.778 L -4.62889,-258.476
 L -4.04507,-258.245 L -3.4369,-258.089 L -2.81395,-258.01 L 2.81395,-258.01 z
M 2.68895,-258.509 L 3.17912,-258.778 L 3.68712,-259.147 L 4.14484,-259.577 L 4.54507,-260.061 L 4.88153,-260.591
 L 5.14888,-261.159 L 5.34291,-261.757 L 5.46057,-262.373 L 5.5,-263 L 5.5,-266 L 5.46057,-266.627
 L 5.34291,-267.243 L 5.14888,-267.841 L 4.88153,-268.409 L 4.54507,-268.939 L 4.14484,-269.423 L 3.68712,-269.853
 L 3.17912,-270.222 L 2.62889,-270.524 L 2.04507,-270.755 L 1.4369,-270.911 L 0.81395,-270.99 L -2.81395,-270.99
 L -3.4369,-270.911 L -4.04507,-270.755 L -4.62889,-270.524 L -5.17912,-270.222 L -5.68712,-269.853 L -6.14484,-269.423
 L -6.54507,-268.939 L -6.88153,-268.409 L -7,-268.157 L -7,-275.843 L -6.88153,-275.591 L -6.54507,-275.061
 L -6.14484,-274.577 L -5.68712,-274.147 L -5.17912,-273.778 L -4.62889,-273.476 L -4.04507,-273.245 L -3.4369,-273.089
 L -2.81395,-273.01 L 0.81395,-273.01 L 1.4369,-273.089 L 2.04507,-273.245 L 2.62889,-273.476 L 3.17912,-273.778
 L 3.68712,-274.147 L 4.14484,-274.577 L 4.54507,-275.061 L 4.88153,-275.591 L 5.14888,-276.159 L 5.34291,-276.757
 L 5.46057,-277.373 L 5.5,-278 L 5.5,-281 L 5.46057,-281.627 L 5.34291,-282.243 L 5.14888,-282.841
 L 4.88153,-283.409 L 4.54507,-283.939 L 4.14484,-284.423 L 3.68712,-284.853 L 3.17912,-285.222 L 2.62889,-285.524
 L 2.04507,-285.755 L 1.4369,-285.911 L 0.81395,-285.99 L -2.81395,-285.99 L -3.4369,-285.911 L -4.04507,-285.755
 L -4.62889,-285.524 L -5.17912,-285.222 L -5.68712,-284.853 L -6.14484,-284.423 L -6.54507,-283.939 L -6.88153,-283.409
 L -6.98859,-283.181 L -6.96451,-283.564 L -6.85861,-284.119 L -6.68399,-284.657 L -6.44337,-285.168 L -6.14056,-285.645
 L -5.78035,-286.08 L -5.36839,-286.467 L -4.91121,-286.799 L -4.416,-287.072 L -3.89056,-287.28 L -3.3432,-287.42
 L -2.78255,-287.491 L 2.78255,-287.491 L 3.3432,-287.42 L 3.89056,-287.28 L 4.416,-287.072 L 4.91121,-286.799
 L 5.36839,-286.467 L 5.78035,-286.08 L 6.14056,-285.645 L 6.44337,-285.168 L 6.68399,-284.657 L 6.85861,-284.119
 L 6.96451,-283.564 L 7,-283 L 7,-263 L 6.96451,-262.436 L 6.85861,-261.881 L 6.68399,-261.343
 L 6.44337,-260.832 L 6.14056,-260.355 L 5.78035,-259.92 L 5.36839,-259.533 L 4.91121,-259.201 L 4.416,-258.928
 L 3.89056,-258.72 L 3.3432,-258.58 L 2.78255,-258.509 z
M -0.0941772,-279.003 L -0.281067,-279.027 L -0.463516,-279.073 L -0.638657,-279.143 L -0.803726,-279.234 L -0.956131,-279.344
 L -1.09344,-279.473 L -1.21352,-279.618 L -1.31445,-279.777 L -1.39465,-279.948 L -1.45287,-280.127 L -1.48816,-280.312
 L -1.5,-280.5 L -1.48816,-280.688 L -1.45287,-280.873 L -1.39465,-281.052 L -1.31445,-281.223 L -1.21352,-281.382
 L -1.09344,-281.527 L -0.956131,-281.656 L -0.803726,-281.766 L -0.638657,-281.857 L -0.463516,-281.927 L -0.281067,-281.973
 L -0.0941772,-281.997 L 0.0941772,-281.997 L 0.281067,-281.973 L 0.463516,-281.927 L 0.638657,-281.857 L 0.803726,-281.766
 L 0.956131,-281.656 L 1.09344,-281.527 L 1.21352,-281.382 L 1.31445,-281.223 L 1.39465,-281.052 L 1.45287,-280.873
 L 1.48816,-280.688 L 1.5,-280.5 L 1.48816,-280.312 L 1.45287,-280.127 L 1.39465,-279.948 L 1.31445,-279.777
 L 1.21352,-279.618 L 1.09344,-279.473 L 0.956131,-279.344 L 0.803726,-279.234 L 0.638657,-279.143 L 0.463516,-279.073
 L 0.281067,-279.027 L 0.0941772,-279.003 z
M -0.0941772,-264.003 L -0.281067,-264.027 L -0.463516,-264.073 L -0.638657,-264.143 L -0.803726,-264.234 L -0.956131,-264.344
 L -1.09344,-264.473 L -1.21352,-264.618 L -1.31445,-264.777 L -1.39465,-264.948 L -1.45287,-265.127 L -1.48816,-265.312
 L -1.5,-265.5 L -1.48816,-265.688 L -1.45287,-265.873 L -1.39465,-266.052 L -1.31445,-266.223 L -1.21352,-266.382
 L -1.09344,-266.527 L -0.956131,-266.656 L -0.803726,-266.766 L -0.638657,-266.857 L -0.463516,-266.927 L -0.281067,-266.973
 L -0.0941772,-266.997 L 0.0941772,-266.997 L 0.281067,-266.973 L 0.463516,-266.927 L 0.638657,-266.857 L 0.803726,-266.766
 L 0.956131,-266.656 L 1.09344,-266.527 L 1.21352,-266.382 L 1.31445,-266.223 L 1.39465,-266.052 L 1.45287,-265.873
 L 1.48816,-265.688 L 1.5,-265.5 L 1.48816,-265.312 L 1.45287,-265.127 L 1.39465,-264.948 L 1.31445,-264.777
 L 1.21352,-264.618 L 1.09344,-264.473 L 0.956131,-264.344 L 0.803726,-264.234 L 0.638657,-264.143 L 0.463516,-264.073
 L 0.281067,-264.027 L 0.0941772,-264.003 z
M 3.4369,-219.089 L 4.04507,-219.245 L 4.62889,-219.476 L 5.17912,-219.778 L 5.68712,-220.147 L 6.14484,-220.577
 L 6.54507,-221.061 L 6.88153,-221.591 L 7.14888,-222.159 L 7.34291,-222.757 L 7.46057,-223.373 L 7.5,-224
 L 7.5,-244 L 7.46057,-244.627 L 7.34291,-245.243 L 7.14888,-245.841 L 6.88153,-246.409 L 6.54507,-246.939
 L 6.14484,-247.423 L 5.68712,-247.853 L 5.17912,-248.222 L 4.62889,-248.524 L 4.04507,-248.755 L 3.4369,-248.911
 L 2.81395,-248.99 L -2.81395,-248.99 L -3.4369,-248.911 L -4.04507,-248.755 L -4.62889,-248.524 L -5.17912,-248.222
 L -5.68712,-247.853 L -6.14484,-247.423 L -6.54507,-246.939 L -6.88153,-246.409 L -7.14888,-245.841 L -7.34291,-245.243
 L -7.46057,-244.627 L -7.5,-244 L -7.5,-224 L -7.46057,-223.373 L -7.34291,-222.757 L -7.14888,-222.159
 L -6.88153,-221.591 L -6.54507,-221.061 L -6.14484,-220.577 L -5.68712,-220.147 L -5.17912,-219.778 L -4.62889,-219.476
 L -4.04507,-219.245 L -3.4369,-219.089 L -2.81395,-219.01 L 2.81395,-219.01 z
M 2.68895,-219.509 L 3.17912,-219.778 L 3.68712,-220.147 L 4.14484,-220.577 L 4.54507,-221.061 L 4.88153,-221.591
 L 5.14888,-222.159 L 5.34291,-222.757 L 5.46057,-223.373 L 5.5,-224 L 5.5,-227 L 5.46057,-227.627
 L 5.34291,-228.243 L 5.14888,-228.841 L 4.88153,-229.409 L 4.54507,-229.939 L 4.14484,-230.423 L 3.68712,-230.853
 L 3.17912,-231.222 L 2.62889,-231.524 L 2.04507,-231.755 L 1.4369,-231.911 L 0.81395,-231.99 L -2.81395,-231.99
 L -3.4369,-231.911 L -4.04507,-231.755 L -4.62889,-231.524 L -5.17912,-231.222 L -5.68712,-230.853 L -6.14484,-230.423
 L -6.54507,-229.939 L -6.88153,-229.409 L -7,-229.157 L -7,-236.843 L -6.88153,-236.591 L -6.54507,-236.061
 L -6.14484,-235.577 L -5.68712,-235.147 L -5.17912,-234.778 L -4.62889,-234.476 L -4.04507,-234.245 L -3.4369,-234.089
 L -2.81395,-234.01 L 0.81395,-234.01 L 1.4369,-234.089 L 2.04507,-234.245 L 2.62889,-234.476 L 3.17912,-234.778
 L 3.68712,-235.147 L 4.14484,-235.577 L 4.54507,-236.061 L 4.88153,-236.591 L 5.14888,-237.159 L 5.34291,-237.757
 L 5.46057,-238.373 L 5.5,-239 L 5.5,-242 L 5.46057,-242.627 L 5.34291,-243.243 L 5.14888,-243.841
 L 4.88153,-244.409 L 4.54507,-244.939 L 4.14484,-245.423 L 3.68712,-245.853 L 3.17912,-246.222 L 2.62889,-246.524
 L 2.04507,-246.755 L 1.4369,-246.911 L 0.81395,-246.99 L -2.81395,-246.99 L -3.4369,-246.911 L -4.04507,-246.755
 L -4.62889,-246.524 L -5.17912,-246.222 L -5.68712,-245.853 L -6.14484,-245.423 L -6.54507,-244.939 L -6.88153,-244.409
 L -6.98859,-244.181 L -6.96451,-244.564 L -6.85861,-245.119 L -6.68399,-245.657 L -6.44337,-246.168 L -6.14056,-246.645
 L -5.78035,-247.08 L -5.36839,-247.467 L -4.91121,-247.799 L -4.416,-248.072 L -3.89056,-248.28 L -3.3432,-248.42
 L -2.78255,-248.491 L 2.78255,-248.491 L 3.3432,-248.42 L 3.89056,-248.28 L 4.416,-248.072 L 4.91121,-247.799
 L 5.36839,-247.467 L 5.78035,-247.08 L 6.14056,-246.645 L 6.44337,-246.168 L 6.68399,-245.657 L 6.85861,-245.119
 L 6.96451,-244.564 L 7,-244 L 7,-224 L 6.96451,-223.436 L 6.85861,-222.881 L 6.68399,-222.343
 L 6.44337,-221.832 L 6.14056,-221.355 L 5.78035,-220.92 L 5.36839,-220.533 L 4.91121,-220.201 L 4.416,-219.928
 L 3.89056,-219.72 L 3.3432,-219.58 L 2.78255,-219.509 z
M -0.0941772,-240.003 L -0.281067,-240.027 L -0.463516,-240.073 L -0.638657,-240.143 L -0.803726,-240.234 L -0.956131,-240.344
 L -1.09344,-240.473 L -1.21352,-240.618 L -1.31445,-240.777 L -1.39465,-240.948 L -1.45287,-241.127 L -1.48816,-241.312
 L -1.5,-241.5 L -1.48816,-241.688 L -1.45287,-241.873 L -1.39465,-242.052 L -1.31445,-242.223 L -1.21352,-242.382
 L -1.09344,-242.527 L -0.956131,-242.656 L -0.803726,-242.766 L -0.638657,-242.857 L -0.463516,-242.927 L -0.281067,-242.973
 L -0.0941772,-242.997 L 0.0941772,-242.997 L 0.281067,-242.973 L 0.463516,-242.927 L 0.638657,-242.857 L 0.803726,-242.766
 L 0.956131,-242.656 L 1.09344,-242.527 L 1.21352,-242.382 L 1.31445,-242.223 L 1.39465,-242.052 L 1.45287,-241.873
 L 1.48816,-241.688 L 1.5,-241.5 L 1.48816,-241.312 L 1.45287,-241.127 L 1.39465,-240.948 L 1.31445,-240.777
 L 1.21352,-240.618 L 1.09344,-240.473 L 0.956131,-240.344 L 0.803726,-240.234 L 0.638657,-240.143 L 0.463516,-240.073
 L 0.281067,-240.027 L 0.0941772,-240.003 z
M -0.0941772,-225.003 L -0.281067,-225.027 L -0.463516,-225.073 L -0.638657,-225.143 L -0.803726,-225.234 L -0.956131,-225.344
 L -1.09344,-225.473 L -1.21352,-225.618 L -1.31445,-225.777 L -1.39465,-225.948 L -1.45287,-226.127 L -1.48816,-226.312
 L -1.5,-226.5 L -1.48816,-226.688 L -1.45287,-226.873 L -1.39465,-227.052 L -1.31445,-227.223 L -1.21352,-227.382
 L -1.09344,-227.527 L -0.956131,-227.656 L -0.803726,-227.766 L -0.638657,-227.857 L -0.463516,-227.927 L -0.281067,-227.973
 L -0.0941772,-227.997 L 0.0941772,-227.997 L 0.281067,-227.973 L 0.463516,-227.927 L 0.638657,-227.857 L 0.803726,-227.766
 L 0.956131,-227.656 L 1.09344,-227.527 L 1.21352,-227.382 L 1.31445,-227.223 L 1.39465,-227.052 L 1.45287,-226.873
 L 1.48816,-226.688 L 1.5,-226.5 L 1.48816,-226.312 L 1.45287,-226.127 L 1.39465,-225.948 L 1.31445,-225.777
 L 1.21352,-225.618 L 1.09344,-225.473 L 0.956131,-225.344 L 0.803726,-225.234 L 0.638657,-225.143 L 0.463516,-225.073
 L 0.281067,-225.027 L 0.0941772,-225.003 z
M 3.4369,-180.089 L 4.04507,-180.245 L 4.62889,-180.476 L 5.17912,-180.778 L 5.68712,-181.147 L 6.14484,-181.577
 L 6.54507,-182.061 L 6.88153,-182.591 L 7.14888,-183.159 L 7.34291,-183.757 L 7.46057,-184.373 L 7.5,-185
 L 7.5,-205 L 7.46057,-205.627 L 7.34291,-206.243 L 7.14888,-206.841 L 6.88153,-207.409 L 6.54507,-207.939
 L 6.14484,-208.423 L 5.68712,-208.853 L 5.17912,-209.222 L 4.62889,-209.524 L 4.04507,-209.755 L 3.4369,-209.911
 L 2.81395,-209.99 L -2.81395,-209.99 L -3.4369,-209.911 L -4.04507,-209.755 L -4.62889,-209.524 L -5.17912,-209.222
 L -5.68712,-208.853 L -6.14484,-208.423 L -6.54507,-207.939 L -6.88153,-207.409 L -7.14888,-206.841 L -7.34291,-206.243
 L -7.46057,-205.627 L -7.5,-205 L -7.5,-185 L -7.46057,-184.373 L -7.34291,-183.757 L -7.14888,-183.159
 L -6.88153,-182.591 L -6.54507,-182.061 L -6.14484,-181.577 L -5.68712,-181.147 L -5.17912,-180.778 L -4.62889,-180.476
 L -4.04507,-180.245 L -3.4369,-180.089 L -2.81395,-180.01 L 2.81395,-180.01 z
M 2.74606,-180.54 L 3.17912,-180.778 L 3.68712,-181.147 L 4.14484,-181.577 L 4.54507,-182.061 L 4.88153,-182.591
 L 5.14888,-183.159 L 5.34291,-183.757 L 5.46057,-184.373 L 5.5,-185 L 5.5,-188 L 5.46057,-188.627
 L 5.34291,-189.243 L 5.14888,-189.841 L 4.88153,-190.409 L 4.54507,-190.939 L 4.14484,-191.423 L 3.68712,-191.853
 L 3.17912,-192.222 L 2.62889,-192.524 L 2.04507,-192.755 L 1.4369,-192.911 L 0.81395,-192.99 L -2.81395,-192.99
 L -3.4369,-192.911 L -4.04507,-192.755 L -4.62889,-192.524 L -5.17912,-192.222 L -5.68712,-191.853 L -6.14484,-191.423
 L -6.54507,-190.939 L -6.88153,-190.409 L -6.96854,-190.224 L -6.96854,-197.776 L -6.88153,-197.591 L -6.54507,-197.061
 L -6.14484,-196.577 L -5.68712,-196.147 L -5.17912,-195.778 L -4.62889,-195.476 L -4.04507,-195.245 L -3.4369,-195.089
 L -2.81395,-195.01 L 0.81395,-195.01 L 1.4369,-195.089 L 2.04507,-195.245 L 2.62889,-195.476 L 3.17912,-195.778
 L 3.68712,-196.147 L 4.14484,-196.577 L 4.54507,-197.061 L 4.88153,-197.591 L 5.14888,-198.159 L 5.34291,-198.757
 L 5.46057,-199.373 L 5.5,-200 L 5.5,-203 L 5.46057,-203.627 L 5.34291,-204.243 L 5.14888,-204.841
 L 4.88153,-205.409 L 4.54507,-205.939 L 4.14484,-206.423 L 3.68712,-206.853 L 3.17912,-207.222 L 2.62889,-207.524
 L 2.04507,-207.755 L 1.4369,-207.911 L 0.81395,-207.99 L -2.81395,-207.99 L -3.4369,-207.911 L -4.04507,-207.755
 L -4.62889,-207.524 L -5.17912,-207.222 L -5.68712,-206.853 L -6.14484,-206.423 L -6.54507,-205.939 L -6.88153,-205.409
 L -6.95227,-205.258 L -6.9333,-205.56 L -6.82814,-206.111 L -6.65474,-206.645 L -6.4158,-207.153 L -6.11511,-207.627
 L -5.75742,-208.059 L -5.34834,-208.443 L -4.89436,-208.773 L -4.4026,-209.043 L -3.88084,-209.25 L -3.33731,-209.389
 L -2.78058,-209.46 L 2.78058,-209.46 L 3.33731,-209.389 L 3.88084,-209.25 L 4.4026,-209.043 L 4.89436,-208.773
 L 5.34834,-208.443 L 5.75742,-208.059 L 6.11511,-207.627 L 6.4158,-207.153 L 6.65474,-206.645 L 6.82814,-206.111
 L 6.9333,-205.56 L 6.96854,-205 L 6.96854,-185 L 6.9333,-184.44 L 6.82814,-183.889 L 6.65474,-183.355
 L 6.4158,-182.847 L 6.11511,-182.373 L 5.75742,-181.941 L 5.34834,-181.557 L 4.89436,-181.227 L 4.4026,-180.957
 L 3.88084,-180.75 L 3.33731,-180.611 L 2.78058,-180.54 z
M -0.0941772,-201.003 L -0.281067,-201.027 L -0.463516,-201.073 L -0.638657,-201.143 L -0.803726,-201.234 L -0.956131,-201.344
 L -1.09344,-201.473 L -1.21352,-201.618 L -1.31445,-201.777 L -1.39465,-201.948 L -1.45287,-202.127 L -1.48816,-202.312
 L -1.5,-202.5 L -1.48816,-202.688 L -1.45287,-202.873 L -1.39465,-203.052 L -1.31445,-203.223 L -1.21352,-203.382
 L -1.09344,-203.527 L -0.956131,-203.656 L -0.803726,-203.766 L -0.638657,-203.857 L -0.463516,-203.927 L -0.281067,-203.973
 L -0.0941772,-203.997 L 0.0941772,-203.997 L 0.281067,-203.973 L 0.463516,-203.927 L 0.638657,-203.857 L 0.803726,-203.766
 L 0.956131,-203.656 L 1.09344,-203.527 L 1.21352,-203.382 L 1.31445,-203.223 L 1.39465,-203.052 L 1.45287,-202.873
 L 1.48816,-202.688 L 1.5,-202.5 L 1.48816,-202.312 L 1.45287,-202.127 L 1.39465,-201.948 L 1.31445,-201.777
 L 1.21352,-201.618 L 1.09344,-201.473 L 0.956131,-201.344 L 0.803726,-201.234 L 0.638657,-201.143 L 0.463516,-201.073
 L 0.281067,-201.027 L 0.0941772,-201.003 z
M -0.0941772,-186.003 L -0.281067,-186.027 L -0.463516,-186.073 L -0.638657,-186.143 L -0.803726,-186.234 L -0.956131,-186.344
 L -1.09344,-186.473 L -1.21352,-186.618 L -1.31445,-186.777 L -1.39465,-186.948 L -1.45287,-187.127 L -1.48816,-187.312
 L -1.5,-187.5 L -1.48816,-187.688 L -1.45287,-187.873 L -1.39465,-188.052 L -1.31445,-188.223 L -1.21352,-188.382
 L -1.09344,-188.527 L -0.956131,-188.656 L -0.803726,-188.766 L -0.638657,-188.857 L -0.463516,-188.927 L -0.281067,-188.973
 L -0.0941772,-188.997 L 0.0941772,-188.997 L 0.281067,-188.973 L 0.463516,-188.927 L 0.638657,-188.857 L 0.803726,-188.766
 L 0.956131,-188.656 L 1.09344,-188.527 L 1.21352,-188.382 L 1.31445,-188.223 L 1.39465,-188.052 L 1.45287,-187.873
 L 1.48816,-187.688 L 1.5,-187.5 L 1.48816,-187.312 L 1.45287,-187.127 L 1.39465,-186.948 L 1.31445,-186.777
 L 1.21352,-186.618 L 1.09344,-186.473 L 0.956131,-186.344 L 0.803726,-186.234 L 0.638657,-186.143 L 0.463516,-186.073
 L 0.281067,-186.027 L 0.0941772,-186.003 z
M 3.4369,-141.089 L 4.04507,-141.245 L 4.62889,-141.476 L 5.17912,-141.778 L 5.68712,-142.147 L 6.14484,-142.577
 L 6.54507,-143.061 L 6.88153,-143.591 L 7.14888,-144.159 L 7.34291,-144.757 L 7.46057,-145.373 L 7.5,-146
 L 7.5,-166 L 7.46057,-166.627 L 7.34291,-167.243 L 7.14888,-167.841 L 6.88153,-168.409 L 6.54507,-168.939
 L 6.14484,-169.423 L 5.68712,-169.853 L 5.17912,-170.222 L 4.62889,-170.524 L 4.04507,-170.755 L 3.4369,-170.911
 L 2.81395,-170.99 L -2.81395,-170.99 L -3.4369,-170.911 L -4.04507,-170.755 L -4.62889,-170.524 L -5.17912,-170.222
 L -5.68712,-169.853 L -6.14484,-169.423 L -6.54507,-168.939 L -6.88153,-168.409 L -7.14888,-167.841 L -7.34291,-167.243
 L -7.46057,-166.627 L -7.5,-166 L -7.5,-146 L -7.46057,-145.373 L -7.34291,-144.757 L -7.14888,-144.159
 L -6.88153,-143.591 L -6.54507,-143.061 L -6.14484,-142.577 L -5.68712,-142.147 L -5.17912,-141.778 L -4.62889,-141.476
 L -4.04507,-141.245 L -3.4369,-141.089 L -2.81395,-141.01 L 2.81395,-141.01 z
M 5.14888,-165.841 L 4.88153,-166.409 L 4.54507,-166.939 L 4.14484,-167.423 L 3.68712,-167.853 L 3.17912,-168.222
 L 2.62889,-168.524 L 2.04507,-168.755 L 1.80142,-168.818 L 2.67728,-168.818 L 3.02905,-168.773 L 3.37247,-168.685
 L 3.70215,-168.555 L 4.01285,-168.384 L 4.2997,-168.175 L 4.55817,-167.933 L 4.78418,-167.66 L 4.97417,-167.36
 L 5.12514,-167.039 L 5.2347,-166.702 L 5.30115,-166.354 L 5.32341,-166 L 5.32341,-165.303 z
M -0.150696,-161.105 L -0.449707,-161.143 L -0.741638,-161.217 L -1.02187,-161.328 L -1.28598,-161.474 L -1.52982,-161.651
 L -1.74951,-161.857 L -1.94164,-162.089 L -2.10313,-162.344 L -2.23146,-162.617 L -2.32458,-162.903 L -2.38107,-163.199
 L -2.39999,-163.5 L -2.38107,-163.801 L -2.32458,-164.097 L -2.23146,-164.383 L -2.10313,-164.656 L -1.94164,-164.911
 L -1.74951,-165.143 L -1.52982,-165.349 L -1.28598,-165.526 L -1.02187,-165.672 L -0.741638,-165.783 L -0.449707,-165.857
 L -0.150696,-165.895 L 0.150696,-165.895 L 0.449707,-165.857 L 0.741638,-165.783 L 1.02187,-165.672 L 1.28598,-165.526
 L 1.52982,-165.349 L 1.74951,-165.143 L 1.94164,-164.911 L 2.10313,-164.656 L 2.23146,-164.383 L 2.32458,-164.097
 L 2.38107,-163.801 L 2.39999,-163.5 L 2.38107,-163.199 L 2.32458,-162.903 L 2.23146,-162.617 L 2.10313,-162.344
 L 1.94164,-162.089 L 1.74951,-161.857 L 1.52982,-161.651 L 1.28598,-161.474 L 1.02187,-161.328 L 0.741638,-161.217
 L 0.449707,-161.143 L 0.150696,-161.105 z
M 5.14888,-150.841 L 4.88153,-151.409 L 4.54507,-151.939 L 4.14484,-152.423 L 3.68712,-152.853 L 3.17912,-153.222
 L 2.62889,-153.524 L 2.04507,-153.755 L 1.4369,-153.911 L 0.81395,-153.99 L -2.81395,-153.99 L -3.4369,-153.911
 L -4.04507,-153.755 L -4.62889,-153.524 L -5.17912,-153.222 L -5.32341,-153.117 L -5.32341,-156.883 L -5.17912,-156.778
 L -4.62889,-156.476 L -4.04507,-156.245 L -3.4369,-156.089 L -2.81395,-156.01 L 0.81395,-156.01 L 1.4369,-156.089
 L 2.04507,-156.245 L 2.62889,-156.476 L 3.17912,-156.778 L 3.68712,-157.147 L 4.14484,-157.577 L 4.54507,-158.061
 L 4.88153,-158.591 L 5.14888,-159.159 L 5.32341,-159.697 L 5.32341,-150.303 z
M -0.150696,-146.105 L -0.449707,-146.143 L -0.741638,-146.217 L -1.02187,-146.328 L -1.28598,-146.474 L -1.52982,-146.651
 L -1.74951,-146.857 L -1.94164,-147.089 L -2.10313,-147.344 L -2.23146,-147.617 L -2.32458,-147.903 L -2.38107,-148.199
 L -2.39999,-148.5 L -2.38107,-148.801 L -2.32458,-149.097 L -2.23146,-149.383 L -2.10313,-149.656 L -1.94164,-149.911
 L -1.74951,-150.143 L -1.52982,-150.349 L -1.28598,-150.526 L -1.02187,-150.672 L -0.741638,-150.783 L -0.449707,-150.857
 L -0.150696,-150.895 L 0.150696,-150.895 L 0.449707,-150.857 L 0.741638,-150.783 L 1.02187,-150.672 L 1.28598,-150.526
 L 1.52982,-150.349 L 1.74951,-150.143 L 1.94164,-149.911 L 2.10313,-149.656 L 2.23146,-149.383 L 2.32458,-149.097
 L 2.38107,-148.801 L 2.39999,-148.5 L 2.38107,-148.199 L 2.32458,-147.903 L 2.23146,-147.617 L 2.10313,-147.344
 L 1.94164,-147.089 L 1.74951,-146.857 L 1.52982,-146.651 L 1.28598,-146.474 L 1.02187,-146.328 L 0.741638,-146.217
 L 0.449707,-146.143 L 0.150696,-146.105 z
" stroke="black" fill="lightgray" stroke-width="0.5"/>
</svg>
