<?xml version="1.0" standalone="no"?>
<!DOCTYPE svg PUBLIC "-//W3C//DTD SVG 1.1//EN" "http://www.w3.org/Graphics/SVG/1.1/DTD/svg11.dtd">
<svg width="40mm" height="129mm" viewBox="-21 -237 40 129" xmlns="http://www.w3.org/2000/svg" version="1.1">
<title>OpenSCAD Model</title>
<path d="
M -17.25,-179.507 L -16.8948,-179.077 L -16.4371,-178.647 L -15.9291,-178.278 L -15.3789,-177.976 L -14.7951,-177.745
 L -14.1869,-177.589 L -13.5639,-177.51 L 13.5639,-177.51 L 14.1869,-177.589 L 14.7951,-177.745 L 15.3789,-177.976
 L 15.9291,-178.278 L 16.4371,-178.647 L 16.8948,-179.077 L 17.2951,-179.561 L 17.6315,-180.091 L 17.8989,-180.659
 L 18.0929,-181.257 L 18.2106,-181.873 L 18.25,-182.5 L 18.25,-231.5 L 18.2106,-232.127 L 18.0929,-232.743
 L 17.8989,-233.341 L 17.6315,-233.909 L 17.2951,-234.439 L 16.8948,-234.923 L 16.4371,-235.353 L 15.9291,-235.722
 L 15.3789,-236.024 L 14.7951,-236.255 L 14.1869,-236.411 L 13.5639,-236.49 L -13.5639,-236.49 L -14.1869,-236.411
 L -14.7951,-236.255 L -15.3789,-236.024 L -15.9291,-235.722 L -16.4371,-235.353 L -16.8948,-234.923 L -17.25,-234.493
 L -17.25,-236.979 L -20.25,-236.979 L -20.25,-177.021 L -17.25,-177.021 z
M -13.4454,-179.393 L -13.8333,-179.442 L -14.2119,-179.539 L -14.5754,-179.683 L -14.918,-179.872 L -15.2342,-180.101
 L -15.5192,-180.369 L -15.7684,-180.67 L -15.9779,-181 L -16.1443,-181.354 L -16.2651,-181.726 L -16.3384,-182.11
 L -16.3629,-182.5 L -16.3629,-231.5 L -16.3384,-231.89 L -16.2651,-232.274 L -16.1443,-232.646 L -15.9779,-233
 L -15.7684,-233.33 L -15.5192,-233.631 L -15.2342,-233.899 L -14.918,-234.128 L -14.5754,-234.317 L -14.2119,-234.461
 L -13.8333,-234.558 L -13.4454,-234.607 L 13.4454,-234.607 L 13.8333,-234.558 L 14.2119,-234.461 L 14.5754,-234.317
 L 14.918,-234.128 L 15.2342,-233.899 L 15.5192,-233.631 L 15.7684,-233.33 L 15.9779,-233 L 16.1443,-232.646
 L 16.2651,-232.274 L 16.3384,-231.89 L 16.3629,-231.5 L 16.3629,-182.5 L 16.3384,-182.11 L 16.2651,-181.726
 L 16.1443,-181.354 L 15.9779,-181 L 15.7684,-180.67 L 15.5192,-180.369 L 15.2342,-180.101 L 14.918,-179.872
 L 14.5754,-179.683 L 14.2119,-179.539 L 13.8333,-179.442 L 13.4454,-179.393 z
M 14.1869,-108.589 L 14.7951,-108.745 L 15.3789,-108.976 L 15.9291,-109.278 L 16.4371,-109.647 L 16.8948,-110.077
 L 17.2951,-110.561 L 17.6315,-111.091 L 17.8989,-111.659 L 18.0929,-112.257 L 18.2106,-112.873 L 18.25,-113.5
 L 18.25,-162.5 L 18.2106,-163.127 L 18.0929,-163.743 L 17.8989,-164.341 L 17.6315,-164.909 L 17.2951,-165.439
 L 16.8948,-165.923 L 16.4371,-166.353 L 15.9291,-166.722 L 15.3789,-167.024 L 14.7951,-167.255 L 14.1869,-167.411
 L 13.5639,-167.49 L -13.5639,-167.49 L -14.1869,-167.411 L -14.7951,-167.255 L -15.3789,-167.024 L -15.9291,-166.722
 L -16.4371,-166.353 L -16.8948,-165.923 L -17.25,-165.493 L -17.25,-166.653 L -20.25,-166.653 L -20.25,-109.347
 L -17.25,-109.347 L -17.25,-110.507 L -16.8948,-110.077 L -16.4371,-109.647 L -15.9291,-109.278 L -15.3789,-108.976
 L -14.7951,-108.745 L -14.1869,-108.589 L -13.5639,-108.51 L 13.5639,-108.51 z
M -11.4007,-158.105 L -11.6997,-158.143 L -11.9916,-158.217 L -12.2719,-158.328 L -12.536,-158.474 L -12.7798,-158.651
 L -12.9995,-158.857 L -13.1916,-159.089 L -13.3531,-159.344 L -13.4815,-159.617 L -13.5746,-159.903 L -13.6311,-160.199
 L -13.65,-160.5 L -13.6311,-160.801 L -13.5746,-161.097 L -13.4815,-161.383 L -13.3531,-161.656 L -13.1916,-161.911
 L -12.9995,-162.143 L -12.7798,-162.349 L -12.536,-162.526 L -12.2719,-162.672 L -11.9916,-162.783 L -11.6997,-162.857
 L -11.4007,-162.895 L -11.0993,-162.895 L -10.8003,-162.857 L -10.5083,-162.783 L -10.2281,-162.672 L -9.964,-162.526
 L -9.72017,-162.349 L -9.50047,-162.143 L -9.30835,-161.911 L -9.14685,-161.656 L -9.01852,-161.383 L -8.9254,-161.097
 L -8.86891,-160.801 L -8.84999,-160.5 L -8.86891,-160.199 L -8.9254,-159.903 L -9.01852,-159.617 L -9.14685,-159.344
 L -9.30835,-159.089 L -9.50047,-158.857 L -9.72017,-158.651 L -9.964,-158.474 L -10.2281,-158.328 L -10.5083,-158.217
 L -10.8003,-158.143 L -11.0993,-158.105 z
M 11.0993,-158.105 L 10.8003,-158.143 L 10.5083,-158.217 L 10.2281,-158.328 L 9.964,-158.474 L 9.72017,-158.651
 L 9.50047,-158.857 L 9.30835,-159.089 L 9.14685,-159.344 L 9.01852,-159.617 L 8.9254,-159.903 L 8.86891,-160.199
 L 8.84999,-160.5 L 8.86891,-160.801 L 8.9254,-161.097 L 9.01852,-161.383 L 9.14685,-161.656 L 9.30835,-161.911
 L 9.50047,-162.143 L 9.72017,-162.349 L 9.964,-162.526 L 10.2281,-162.672 L 10.5083,-162.783 L 10.8003,-162.857
 L 11.0993,-162.895 L 11.4007,-162.895 L 11.6997,-162.857 L 11.9916,-162.783 L 12.2719,-162.672 L 12.536,-162.526
 L 12.7798,-162.349 L 12.9995,-162.143 L 13.1916,-161.911 L 13.3531,-161.656 L 13.4815,-161.383 L 13.5746,-161.097
 L 13.6311,-160.801 L 13.65,-160.5 L 13.6311,-160.199 L 13.5746,-159.903 L 13.4815,-159.617 L 13.3531,-159.344
 L 13.1916,-159.089 L 12.9995,-158.857 L 12.7798,-158.651 L 12.536,-158.474 L 12.2719,-158.328 L 11.9916,-158.217
 L 11.6997,-158.143 L 11.4007,-158.105 z
M 11.0993,-113.105 L 10.8003,-113.143 L 10.5083,-113.217 L 10.2281,-113.328 L 9.964,-113.474 L 9.72017,-113.651
 L 9.50047,-113.857 L 9.30835,-114.089 L 9.14685,-114.344 L 9.01852,-114.617 L 8.9254,-114.903 L 8.86891,-115.199
 L 8.84999,-115.5 L 8.86891,-115.801 L 8.9254,-116.097 L 9.01852,-116.383 L 9.14685,-116.656 L 9.30835,-116.911
 L 9.50047,-117.143 L 9.72017,-117.349 L 9.964,-117.526 L 10.2281,-117.672 L 10.5083,-117.783 L 10.8003,-117.857
 L 11.0993,-117.895 L 11.4007,-117.895 L 11.6997,-117.857 L 11.9916,-117.783 L 12.2719,-117.672 L 12.536,-117.526
 L 12.7798,-117.349 L 12.9995,-117.143 L 13.1916,-116.911 L 13.3531,-116.656 L 13.4815,-116.383 L 13.5746,-116.097
 L 13.6311,-115.801 L 13.65,-115.5 L 13.6311,-115.199 L 13.5746,-114.903 L 13.4815,-114.617 L 13.3531,-114.344
 L 13.1916,-114.089 L 12.9995,-113.857 L 12.7798,-113.651 L 12.536,-113.474 L 12.2719,-113.328 L 11.9916,-113.217
 L 11.6997,-113.143 L 11.4007,-113.105 z
M -11.4007,-113.105 L -11.6997,-113.143 L -11.9916,-113.217 L -12.2719,-113.328 L -12.536,-113.474 L -12.7798,-113.651
 L -12.9995,-113.857 L -13.1916,-114.089 L -13.3531,-114.344 L -13.4815,-114.617 L -13.5746,-114.903 L -13.6311,-115.199
 L -13.65,-115.5 L -13.6311,-115.801 L -13.5746,-116.097 L -13.4815,-116.383 L -13.3531,-116.656 L -13.1916,-116.911
 L -12.9995,-117.143 L -12.7798,-117.349 L -12.536,-117.526 L -12.2719,-117.672 L -11.9916,-117.783 L -11.6997,-117.857
 L -11.4007,-117.895 L -11.0993,-117.895 L -10.8003,-117.857 L -10.5083,-117.783 L -10.2281,-117.672 L -9.964,-117.526
 L -9.72017,-117.349 L -9.50047,-117.143 L -9.30835,-116.911 L -9.14685,-116.656 L -9.01852,-116.383 L -8.9254,-116.097
 L -8.86891,-115.801 L -8.84999,-115.5 L -8.86891,-115.199 L -8.9254,-114.903 L -9.01852,-114.617 L -9.14685,-114.344
 L -9.30835,-114.089 L -9.50047,-113.857 L -9.72017,-113.651 L -9.964,-113.474 L -10.2281,-113.328 L -10.5083,-113.217
 L -10.8003,-113.143 L -11.0993,-113.105 z
" stroke="black" fill="lightgray" stroke-width="0.5"/>
</svg>
