<?xml version="1.0" standalone="no"?>
<!DOCTYPE svg PUBLIC "-//W3C//DTD SVG 1.1//EN" "http://www.w3.org/Graphics/SVG/1.1/DTD/svg11.dtd">
<svg width="59mm" height="214mm" viewBox="-37 -184 59 214" xmlns="http://www.w3.org/2000/svg" version="1.1">
<title>OpenSCAD Model</title>
<path d="
M 22,-152 L 9.76219,-152 L 8.92393,-151.213 L 7.50157,-150.179 L 5.96091,-149.332 L 4.32623,-148.685
 L 2.62334,-148.248 L 0.879059,-148.028 L -0.879059,-148.028 L -2.62334,-148.248 L -4.32623,-148.685 L -5.96091,-149.332
 L -7.50157,-150.179 L -8.92393,-151.213 L -10.2056,-152.416 L -11.3262,-153.771 L -12.2683,-155.255 L -13.0169,-156.846
 L -13.5602,-158.518 L -13.8896,-160.245 L -14,-162 L -13.8896,-163.755 L -13.5602,-165.482 L -13.0169,-167.154
 L -12.2683,-168.745 L -11.3262,-170.229 L -10.2056,-171.584 L -8.92393,-172.787 L -7.50157,-173.821 L -5.96091,-174.668
 L -4.32623,-175.315 L -2.62334,-175.752 L -0.879059,-175.972 L 0.879059,-175.972 L 2.62334,-175.752 L 4.32623,-175.315
 L 5.96091,-174.668 L 7.50157,-173.821 L 8.92393,-172.787 L 9.76219,-172 L 22,-172 L 22,-179
 L 21.9606,-179.627 L 21.8429,-180.243 L 21.6489,-180.841 L 21.3815,-181.409 L 21.0451,-181.939 L 20.6448,-182.423
 L 20.1871,-182.853 L 19.6791,-183.222 L 19.1289,-183.524 L 18.5451,-183.755 L 17.9369,-183.911 L 17.3139,-183.99
 L -32.3139,-183.99 L -32.9369,-183.911 L -33.5451,-183.755 L -34.1289,-183.524 L -34.6791,-183.222 L -35.1871,-182.853
 L -35.6448,-182.423 L -36.0451,-181.939 L -36.3815,-181.409 L -36.6489,-180.841 L -36.8429,-180.243 L -36.9606,-179.627
 L -37,-179 L -37,-145 L -36.9606,-144.373 L -36.8429,-143.757 L -36.6489,-143.159 L -36.3815,-142.591
 L -36.0451,-142.061 L -35.6448,-141.577 L -35.1871,-141.147 L -34.6791,-140.778 L -34.1289,-140.476 L -33.5451,-140.245
 L -32.9369,-140.089 L -32.3139,-140.01 L -22,-140.01 L -22,-132 L 22,-132 z
M 15.3179,-174.606 L 14.9566,-174.651 L 14.6038,-174.742 L 14.2652,-174.876 L 13.9461,-175.051 L 13.6515,-175.266
 L 13.386,-175.515 L 13.1538,-175.795 L 12.9587,-176.103 L 12.8036,-176.432 L 12.6911,-176.779 L 12.6229,-177.137
 L 12.6,-177.5 L 12.6229,-177.863 L 12.6911,-178.221 L 12.8036,-178.568 L 12.9587,-178.897 L 13.1538,-179.205
 L 13.386,-179.485 L 13.6515,-179.734 L 13.9461,-179.949 L 14.2652,-180.124 L 14.6038,-180.258 L 14.9566,-180.349
 L 15.3179,-180.394 L 15.6821,-180.394 L 16.0434,-180.349 L 16.3961,-180.258 L 16.7348,-180.124 L 17.0539,-179.949
 L 17.3485,-179.734 L 17.614,-179.485 L 17.8461,-179.205 L 18.0413,-178.897 L 18.1964,-178.568 L 18.3089,-178.221
 L 18.3771,-177.863 L 18.4,-177.5 L 18.3771,-177.137 L 18.3089,-176.779 L 18.1964,-176.432 L 18.0413,-176.103
 L 17.8461,-175.795 L 17.614,-175.515 L 17.3485,-175.266 L 17.0539,-175.051 L 16.7348,-174.876 L 16.3961,-174.742
 L 16.0434,-174.651 L 15.6821,-174.606 z
M -15.6821,-174.606 L -16.0434,-174.651 L -16.3961,-174.742 L -16.7348,-174.876 L -17.0539,-175.051 L -17.3485,-175.266
 L -17.614,-175.515 L -17.8461,-175.795 L -18.0413,-176.103 L -18.1964,-176.432 L -18.3089,-176.779 L -18.3771,-177.137
 L -18.4,-177.5 L -18.3771,-177.863 L -18.3089,-178.221 L -18.1964,-178.568 L -18.0413,-178.897 L -17.8461,-179.205
 L -17.614,-179.485 L -17.3485,-179.734 L -17.0539,-179.949 L -16.7348,-180.124 L -16.3961,-180.258 L -16.0434,-180.349
 L -15.6821,-180.394 L -15.3179,-180.394 L -14.9566,-180.349 L -14.6038,-180.258 L -14.2652,-180.124 L -13.9461,-179.949
 L -13.6515,-179.734 L -13.386,-179.485 L -13.1538,-179.205 L -12.9587,-178.897 L -12.8036,-178.568 L -12.6911,-178.221
 L -12.6229,-177.863 L -12.6,-177.5 L -12.6229,-177.137 L -12.6911,-176.779 L -12.8036,-176.432 L -12.9587,-176.103
 L -13.1538,-175.795 L -13.386,-175.515 L -13.6515,-175.266 L -13.9461,-175.051 L -14.2652,-174.876 L -14.6038,-174.742
 L -14.9566,-174.651 L -15.3179,-174.606 z
M -30.1884,-174.006 L -30.5621,-174.053 L -30.927,-174.147 L -31.2773,-174.286 L -31.6075,-174.467 L -31.9123,-174.688
 L -32.1869,-174.946 L -32.427,-175.237 L -32.6289,-175.555 L -32.7893,-175.896 L -32.9057,-176.254 L -32.9763,-176.624
 L -33,-177 L -32.9763,-177.376 L -32.9057,-177.746 L -32.7893,-178.104 L -32.6289,-178.445 L -32.427,-178.763
 L -32.1869,-179.054 L -31.9123,-179.312 L -31.6075,-179.533 L -31.2773,-179.714 L -30.927,-179.853 L -30.5621,-179.947
 L -30.1884,-179.994 L -29.8116,-179.994 L -29.4379,-179.947 L -29.0729,-179.853 L -28.7227,-179.714 L -28.3925,-179.533
 L -28.0877,-179.312 L -27.8131,-179.054 L -27.5729,-178.763 L -27.3711,-178.445 L -27.2107,-178.104 L -27.0942,-177.746
 L -27.0237,-177.376 L -27,-177 L -27.0237,-176.624 L -27.0942,-176.254 L -27.2107,-175.896 L -27.3711,-175.555
 L -27.5729,-175.237 L -27.8131,-174.946 L -28.0877,-174.688 L -28.3925,-174.467 L -28.7227,-174.286 L -29.0729,-174.147
 L -29.4379,-174.053 L -29.8116,-174.006 z
M -30.1884,-159.006 L -30.5621,-159.053 L -30.927,-159.147 L -31.2773,-159.286 L -31.6075,-159.467 L -31.9123,-159.688
 L -32.1869,-159.946 L -32.427,-160.237 L -32.6289,-160.555 L -32.7893,-160.896 L -32.9057,-161.254 L -32.9763,-161.624
 L -33,-162 L -32.9763,-162.376 L -32.9057,-162.746 L -32.7893,-163.104 L -32.6289,-163.445 L -32.427,-163.763
 L -32.1869,-164.054 L -31.9123,-164.312 L -31.6075,-164.533 L -31.2773,-164.714 L -30.927,-164.853 L -30.5621,-164.947
 L -30.1884,-164.994 L -29.8116,-164.994 L -29.4379,-164.947 L -29.0729,-164.853 L -28.7227,-164.714 L -28.3925,-164.533
 L -28.0877,-164.312 L -27.8131,-164.054 L -27.5729,-163.763 L -27.3711,-163.445 L -27.2107,-163.104 L -27.0942,-162.746
 L -27.0237,-162.376 L -27,-162 L -27.0237,-161.624 L -27.0942,-161.254 L -27.2107,-160.896 L -27.3711,-160.555
 L -27.5729,-160.237 L -27.8131,-159.946 L -28.0877,-159.688 L -28.3925,-159.467 L -28.7227,-159.286 L -29.0729,-159.147
 L -29.4379,-159.053 L -29.8116,-159.006 z
M -30.1884,-144.006 L -30.5621,-144.053 L -30.927,-144.147 L -31.2773,-144.286 L -31.6075,-144.467 L -31.9123,-144.688
 L -32.1869,-144.946 L -32.427,-145.237 L -32.6289,-145.555 L -32.7893,-145.896 L -32.9057,-146.254 L -32.9763,-146.624
 L -33,-147 L -32.9763,-147.376 L -32.9057,-147.746 L -32.7893,-148.104 L -32.6289,-148.445 L -32.427,-148.763
 L -32.1869,-149.054 L -31.9123,-149.312 L -31.6075,-149.533 L -31.2773,-149.714 L -30.927,-149.853 L -30.5621,-149.947
 L -30.1884,-149.994 L -29.8116,-149.994 L -29.4379,-149.947 L -29.0729,-149.853 L -28.7227,-149.714 L -28.3925,-149.533
 L -28.0877,-149.312 L -27.8131,-149.054 L -27.5729,-148.763 L -27.3711,-148.445 L -27.2107,-148.104 L -27.0942,-147.746
 L -27.0237,-147.376 L -27,-147 L -27.0237,-146.624 L -27.0942,-146.254 L -27.2107,-145.896 L -27.3711,-145.555
 L -27.5729,-145.237 L -27.8131,-144.946 L -28.0877,-144.688 L -28.3925,-144.467 L -28.7227,-144.286 L -29.0729,-144.147
 L -29.4379,-144.053 L -29.8116,-144.006 z
M -15.6821,-143.606 L -16.0434,-143.651 L -16.3961,-143.742 L -16.7348,-143.876 L -17.0539,-144.051 L -17.3485,-144.266
 L -17.614,-144.515 L -17.8461,-144.795 L -18.0413,-145.103 L -18.1964,-145.432 L -18.3089,-145.779 L -18.3771,-146.137
 L -18.4,-146.5 L -18.3771,-146.863 L -18.3089,-147.221 L -18.1964,-147.568 L -18.0413,-147.897 L -17.8461,-148.205
 L -17.614,-148.485 L -17.3485,-148.734 L -17.0539,-148.949 L -16.7348,-149.124 L -16.3961,-149.258 L -16.0434,-149.349
 L -15.6821,-149.394 L -15.3179,-149.394 L -14.9566,-149.349 L -14.6038,-149.258 L -14.2652,-149.124 L -13.9461,-148.949
 L -13.6515,-148.734 L -13.386,-148.485 L -13.1538,-148.205 L -12.9587,-147.897 L -12.8036,-147.568 L -12.6911,-147.221
 L -12.6229,-146.863 L -12.6,-146.5 L -12.6229,-146.137 L -12.6911,-145.779 L -12.8036,-145.432 L -12.9587,-145.103
 L -13.1538,-144.795 L -13.386,-144.515 L -13.6515,-144.266 L -13.9461,-144.051 L -14.2652,-143.876 L -14.6038,-143.742
 L -14.9566,-143.651 L -15.3179,-143.606 z
M 15.3179,-143.606 L 14.9566,-143.651 L 14.6038,-143.742 L 14.2652,-143.876 L 13.9461,-144.051 L 13.6515,-144.266
 L 13.386,-144.515 L 13.1538,-144.795 L 12.9587,-145.103 L 12.8036,-145.432 L 12.6911,-145.779 L 12.6229,-146.137
 L 12.6,-146.5 L 12.6229,-146.863 L 12.6911,-147.221 L 12.8036,-147.568 L 12.9587,-147.897 L 13.1538,-148.205
 L 13.386,-148.485 L 13.6515,-148.734 L 13.9461,-148.949 L 14.2652,-149.124 L 14.6038,-149.258 L 14.9566,-149.349
 L 15.3179,-149.394 L 15.6821,-149.394 L 16.0434,-149.349 L 16.3961,-149.258 L 16.7348,-149.124 L 17.0539,-148.949
 L 17.3485,-148.734 L 17.614,-148.485 L 17.8461,-148.205 L 18.0413,-147.897 L 18.1964,-147.568 L 18.3089,-147.221
 L 18.3771,-146.863 L 18.4,-146.5 L 18.3771,-146.137 L 18.3089,-145.779 L 18.1964,-145.432 L 18.0413,-145.103
 L 17.8461,-144.795 L 17.614,-144.515 L 17.3485,-144.266 L 17.0539,-144.051 L 16.7348,-143.876 L 16.3961,-143.742
 L 16.0434,-143.651 L 15.6821,-143.606 z
M -5.34662,-135.1 L -5.34662,-140.5 L 5.34662,-140.5 L 5.34662,-135.1 z
M -20.3466,-135.1 L -20.3466,-140.5 L -9.65337,-140.5 L -9.65337,-135.1 z
M 9.65337,-135.1 L 9.65337,-140.5 L 20.3466,-140.5 L 20.3466,-135.1 z
M -17.5307,-81.1 L -20.3466,-81.1 L -20.3466,-86.5 L -17.5307,-86.5 L -17.5307,-91.5 L -16.6156,-91.5
 L -16.7135,-91.6183 L -16.8145,-91.7774 L -16.8947,-91.9478 L -16.9529,-92.127 L -16.9882,-92.312 L -17,-92.5
 L -16.9882,-92.688 L -16.9529,-92.873 L -16.8947,-93.0522 L -16.8145,-93.2226 L -16.7135,-93.3817 L -16.5934,-93.5268
 L -16.4561,-93.6558 L -16.3037,-93.7665 L -16.1387,-93.8573 L -15.9635,-93.9266 L -15.7811,-93.9734 L -15.5942,-93.9971
 L -15.4058,-93.9971 L -15.2189,-93.9734 L -15.0365,-93.9266 L -14.8613,-93.8573 L -14.6963,-93.7665 L -14.5439,-93.6558
 L -14.4065,-93.5268 L -14.2865,-93.3817 L -14.1855,-93.2226 L -14.1053,-93.0522 L -14.0471,-92.873 L -14.0118,-92.688
 L -14,-92.5 L -14.0118,-92.312 L -14.0471,-92.127 L -14.1053,-91.9478 L -14.1855,-91.7774 L -14.2865,-91.6183
 L -14.3844,-91.5 L -12.4693,-91.5 L -12.4693,-86.5 L -9.65337,-86.5 L -9.65337,-81.1 L -12.4693,-81.1
 L -12.4693,-78 L -2.53072,-78 L -2.53072,-81.1 L -5.34662,-81.1 L -5.34662,-86.5 L -2.53072,-86.5
 L -2.53072,-91.5 L 2.53072,-91.5 L 2.53072,-86.5 L 5.34662,-86.5 L 5.34662,-81.1 L 2.53072,-81.1
 L 2.53072,-78 L 12.4693,-78 L 12.4693,-81.1 L 9.65337,-81.1 L 9.65337,-86.5 L 12.4693,-86.5
 L 12.4693,-91.5 L 14.3844,-91.5 L 14.2865,-91.6183 L 14.1855,-91.7774 L 14.1053,-91.9478 L 14.0471,-92.127
 L 14.0118,-92.312 L 14,-92.5 L 14.0118,-92.688 L 14.0471,-92.873 L 14.1053,-93.0522 L 14.1855,-93.2226
 L 14.2865,-93.3817 L 14.4065,-93.5268 L 14.5439,-93.6558 L 14.6963,-93.7665 L 14.8613,-93.8573 L 15.0365,-93.9266
 L 15.2189,-93.9734 L 15.4058,-93.9971 L 15.5942,-93.9971 L 15.7811,-93.9734 L 15.9635,-93.9266 L 16.1387,-93.8573
 L 16.3037,-93.7665 L 16.4561,-93.6558 L 16.5934,-93.5268 L 16.7135,-93.3817 L 16.8145,-93.2226 L 16.8947,-93.0522
 L 16.9529,-92.873 L 16.9882,-92.688 L 17,-92.5 L 16.9882,-92.312 L 16.9529,-92.127 L 16.8947,-91.9478
 L 16.8145,-91.7774 L 16.7135,-91.6183 L 16.6156,-91.5 L 17.5307,-91.5 L 17.5307,-86.5 L 20.3466,-86.5
 L 20.3466,-81.1 L 17.5307,-81.1 L 17.5307,-78 L 22,-78 L 22,-98 L 9.76219,-98
 L 8.92393,-97.2128 L 7.50157,-96.1794 L 5.96091,-95.3324 L 4.32623,-94.6852 L 2.62334,-94.248 L 0.879059,-94.0276
 L -0.879059,-94.0276 L -2.62334,-94.248 L -4.32623,-94.6852 L -5.96091,-95.3324 L -7.50157,-96.1794 L -8.92393,-97.2128
 L -10.2056,-98.4164 L -11.3262,-99.771 L -12.2683,-101.255 L -13.0169,-102.846 L -13.5602,-104.518 L -13.8896,-106.245
 L -14,-108 L -13.8896,-109.755 L -13.5602,-111.482 L -13.0169,-113.154 L -12.2683,-114.745 L -11.3262,-116.229
 L -10.2056,-117.584 L -8.92393,-118.787 L -7.50157,-119.821 L -5.96091,-120.668 L -4.32623,-121.315 L -2.62334,-121.752
 L -0.879059,-121.972 L 0.879059,-121.972 L 2.62334,-121.752 L 4.32623,-121.315 L 5.96091,-120.668 L 7.50157,-119.821
 L 8.92393,-118.787 L 9.76219,-118 L 22,-118 L 22,-125 L 21.9606,-125.627 L 21.8429,-126.243
 L 21.6489,-126.841 L 21.3815,-127.409 L 21.0451,-127.939 L 20.6448,-128.423 L 20.1871,-128.853 L 19.6791,-129.222
 L 19.1289,-129.524 L 18.5451,-129.755 L 17.9369,-129.911 L 17.3139,-129.99 L -32.3139,-129.99 L -32.9369,-129.911
 L -33.5451,-129.755 L -34.1289,-129.524 L -34.6791,-129.222 L -35.1871,-128.853 L -35.6448,-128.423 L -36.0451,-127.939
 L -36.3815,-127.409 L -36.6489,-126.841 L -36.8429,-126.243 L -36.9606,-125.627 L -37,-125 L -37,-91
 L -36.9606,-90.3733 L -36.8429,-89.7566 L -36.6489,-89.1594 L -36.3815,-88.5912 L -36.0451,-88.0611 L -35.6448,-87.5773
 L -35.1871,-87.1474 L -34.6791,-86.7784 L -34.1289,-86.4759 L -33.5451,-86.2447 L -32.9369,-86.0886 L -32.3139,-86.0099
 L -22,-86.0099 L -22,-78 L -17.5307,-78 z
M -30.1884,-120.006 L -30.5621,-120.053 L -30.927,-120.147 L -31.2773,-120.286 L -31.6075,-120.467 L -31.9123,-120.688
 L -32.1869,-120.946 L -32.427,-121.237 L -32.6289,-121.555 L -32.7893,-121.896 L -32.9057,-122.254 L -32.9763,-122.624
 L -33,-123 L -32.9763,-123.376 L -32.9057,-123.746 L -32.7893,-124.104 L -32.6289,-124.445 L -32.427,-124.763
 L -32.1869,-125.054 L -31.9123,-125.312 L -31.6075,-125.533 L -31.2773,-125.714 L -30.927,-125.853 L -30.5621,-125.947
 L -30.1884,-125.994 L -29.8116,-125.994 L -29.4379,-125.947 L -29.0729,-125.853 L -28.7227,-125.714 L -28.3925,-125.533
 L -28.0877,-125.312 L -27.8131,-125.054 L -27.5729,-124.763 L -27.3711,-124.445 L -27.2107,-124.104 L -27.0942,-123.746
 L -27.0237,-123.376 L -27,-123 L -27.0237,-122.624 L -27.0942,-122.254 L -27.2107,-121.896 L -27.3711,-121.555
 L -27.5729,-121.237 L -27.8131,-120.946 L -28.0877,-120.688 L -28.3925,-120.467 L -28.7227,-120.286 L -29.0729,-120.147
 L -29.4379,-120.053 L -29.8116,-120.006 z
M 15.4058,-122.003 L 15.2189,-122.027 L 15.0365,-122.073 L 14.8613,-122.143 L 14.6963,-122.234 L 14.5439,-122.344
 L 14.4065,-122.473 L 14.2865,-122.618 L 14.1855,-122.777 L 14.1053,-122.948 L 14.0471,-123.127 L 14.0118,-123.312
 L 14,-123.5 L 14.0118,-123.688 L 14.0471,-123.873 L 14.1053,-124.052 L 14.1855,-124.223 L 14.2865,-124.382
 L 14.4065,-124.527 L 14.5439,-124.656 L 14.6963,-124.766 L 14.8613,-124.857 L 15.0365,-124.927 L 15.2189,-124.973
 L 15.4058,-124.997 L 15.5942,-124.997 L 15.7811,-124.973 L 15.9635,-124.927 L 16.1387,-124.857 L 16.3037,-124.766
 L 16.4561,-124.656 L 16.5934,-124.527 L 16.7135,-124.382 L 16.8145,-124.223 L 16.8947,-124.052 L 16.9529,-123.873
 L 16.9882,-123.688 L 17,-123.5 L 16.9882,-123.312 L 16.9529,-123.127 L 16.8947,-122.948 L 16.8145,-122.777
 L 16.7135,-122.618 L 16.5934,-122.473 L 16.4561,-122.344 L 16.3037,-122.234 L 16.1387,-122.143 L 15.9635,-122.073
 L 15.7811,-122.027 L 15.5942,-122.003 z
M -15.5942,-122.003 L -15.7811,-122.027 L -15.9635,-122.073 L -16.1387,-122.143 L -16.3037,-122.234 L -16.4561,-122.344
 L -16.5934,-122.473 L -16.7135,-122.618 L -16.8145,-122.777 L -16.8947,-122.948 L -16.9529,-123.127 L -16.9882,-123.312
 L -17,-123.5 L -16.9882,-123.688 L -16.9529,-123.873 L -16.8947,-124.052 L -16.8145,-124.223 L -16.7135,-124.382
 L -16.5934,-124.527 L -16.4561,-124.656 L -16.3037,-124.766 L -16.1387,-124.857 L -15.9635,-124.927 L -15.7811,-124.973
 L -15.5942,-124.997 L -15.4058,-124.997 L -15.2189,-124.973 L -15.0365,-124.927 L -14.8613,-124.857 L -14.6963,-124.766
 L -14.5439,-124.656 L -14.4065,-124.527 L -14.2865,-124.382 L -14.1855,-124.223 L -14.1053,-124.052 L -14.0471,-123.873
 L -14.0118,-123.688 L -14,-123.5 L -14.0118,-123.312 L -14.0471,-123.127 L -14.1053,-122.948 L -14.1855,-122.777
 L -14.2865,-122.618 L -14.4065,-122.473 L -14.5439,-122.344 L -14.6963,-122.234 L -14.8613,-122.143 L -15.0365,-122.073
 L -15.2189,-122.027 L -15.4058,-122.003 z
M -30.1884,-105.006 L -30.5621,-105.053 L -30.927,-105.147 L -31.2773,-105.286 L -31.6075,-105.467 L -31.9123,-105.688
 L -32.1869,-105.946 L -32.427,-106.237 L -32.6289,-106.555 L -32.7893,-106.896 L -32.9057,-107.254 L -32.9763,-107.624
 L -33,-108 L -32.9763,-108.376 L -32.9057,-108.746 L -32.7893,-109.104 L -32.6289,-109.445 L -32.427,-109.763
 L -32.1869,-110.054 L -31.9123,-110.312 L -31.6075,-110.533 L -31.2773,-110.714 L -30.927,-110.853 L -30.5621,-110.947
 L -30.1884,-110.994 L -29.8116,-110.994 L -29.4379,-110.947 L -29.0729,-110.853 L -28.7227,-110.714 L -28.3925,-110.533
 L -28.0877,-110.312 L -27.8131,-110.054 L -27.5729,-109.763 L -27.3711,-109.445 L -27.2107,-109.104 L -27.0942,-108.746
 L -27.0237,-108.376 L -27,-108 L -27.0237,-107.624 L -27.0942,-107.254 L -27.2107,-106.896 L -27.3711,-106.555
 L -27.5729,-106.237 L -27.8131,-105.946 L -28.0877,-105.688 L -28.3925,-105.467 L -28.7227,-105.286 L -29.0729,-105.147
 L -29.4379,-105.053 L -29.8116,-105.006 z
M -30.1884,-90.0059 L -30.5621,-90.0531 L -30.927,-90.1468 L -31.2773,-90.2855 L -31.6075,-90.467 L -31.9123,-90.6885
 L -32.1869,-90.9464 L -32.427,-91.2366 L -32.6289,-91.5547 L -32.7893,-91.8956 L -32.9057,-92.2539 L -32.9763,-92.624
 L -33,-93 L -32.9763,-93.376 L -32.9057,-93.7461 L -32.7893,-94.1044 L -32.6289,-94.4453 L -32.427,-94.7634
 L -32.1869,-95.0536 L -31.9123,-95.3116 L -31.6075,-95.533 L -31.2773,-95.7145 L -30.927,-95.8532 L -30.5621,-95.9469
 L -30.1884,-95.9941 L -29.8116,-95.9941 L -29.4379,-95.9469 L -29.0729,-95.8532 L -28.7227,-95.7145 L -28.3925,-95.533
 L -28.0877,-95.3116 L -27.8131,-95.0536 L -27.5729,-94.7634 L -27.3711,-94.4453 L -27.2107,-94.1044 L -27.0942,-93.7461
 L -27.0237,-93.376 L -27,-93 L -27.0237,-92.624 L -27.0942,-92.2539 L -27.2107,-91.8956 L -27.3711,-91.5547
 L -27.5729,-91.2366 L -27.8131,-90.9464 L -28.0877,-90.6885 L -28.3925,-90.467 L -28.7227,-90.2855 L -29.0729,-90.1468
 L -29.4379,-90.0531 L -29.8116,-90.0059 z
M -17.5942,-27.1 L -20.3466,-27.1 L -20.3466,-32.5 L -17.5942,-32.5 L -17.5942,-37.5 L -16.6156,-37.5
 L -16.7135,-37.6183 L -16.8145,-37.7774 L -16.8947,-37.9478 L -16.9529,-38.127 L -16.9882,-38.312 L -17,-38.5
 L -16.9882,-38.688 L -16.9529,-38.873 L -16.8947,-39.0522 L -16.8145,-39.2226 L -16.7135,-39.3817 L -16.5934,-39.5268
 L -16.4561,-39.6558 L -16.3037,-39.7665 L -16.1387,-39.8573 L -15.9635,-39.9266 L -15.7811,-39.9734 L -15.5942,-39.9971
 L -15.4058,-39.9971 L -15.2189,-39.9734 L -15.0365,-39.9266 L -14.8613,-39.8573 L -14.6963,-39.7665 L -14.5439,-39.6558
 L -14.4065,-39.5268 L -14.2865,-39.3817 L -14.1855,-39.2226 L -14.1053,-39.0522 L -14.0471,-38.873 L -14.0118,-38.688
 L -14,-38.5 L -14.0118,-38.312 L -14.0471,-38.127 L -14.1053,-37.9478 L -14.1855,-37.7774 L -14.2865,-37.6183
 L -14.3844,-37.5 L -12.4058,-37.5 L -12.4058,-32.5 L -9.65337,-32.5 L -9.65337,-27.1 L -12.4058,-27.1
 L -12.4058,-24 L -2.59418,-24 L -2.59418,-27.1 L -5.34662,-27.1 L -5.34662,-32.5 L -2.59418,-32.5
 L -2.59418,-37.5 L 2.59418,-37.5 L 2.59418,-32.5 L 5.34662,-32.5 L 5.34662,-27.1 L 2.59418,-27.1
 L 2.59418,-24 L 12.4058,-24 L 12.4058,-27.1 L 9.65337,-27.1 L 9.65337,-32.5 L 12.4058,-32.5
 L 12.4058,-37.5 L 14.3844,-37.5 L 14.2865,-37.6183 L 14.1855,-37.7774 L 14.1053,-37.9478 L 14.0471,-38.127
 L 14.0118,-38.312 L 14,-38.5 L 14.0118,-38.688 L 14.0471,-38.873 L 14.1053,-39.0522 L 14.1855,-39.2226
 L 14.2865,-39.3817 L 14.4065,-39.5268 L 14.5439,-39.6558 L 14.6963,-39.7665 L 14.8613,-39.8573 L 15.0365,-39.9266
 L 15.2189,-39.9734 L 15.4058,-39.9971 L 15.5942,-39.9971 L 15.7811,-39.9734 L 15.9635,-39.9266 L 16.1387,-39.8573
 L 16.3037,-39.7665 L 16.4561,-39.6558 L 16.5934,-39.5268 L 16.7135,-39.3817 L 16.8145,-39.2226 L 16.8947,-39.0522
 L 16.9529,-38.873 L 16.9882,-38.688 L 17,-38.5 L 16.9882,-38.312 L 16.9529,-38.127 L 16.8947,-37.9478
 L 16.8145,-37.7774 L 16.7135,-37.6183 L 16.6156,-37.5 L 17.5942,-37.5 L 17.5942,-32.5 L 20.3466,-32.5
 L 20.3466,-27.1 L 17.5942,-27.1 L 17.5942,-24 L 22,-24 L 22,-44 L 9.76219,-44
 L 8.92393,-43.2128 L 7.50157,-42.1794 L 5.96091,-41.3324 L 4.32623,-40.6852 L 2.62334,-40.248 L 0.879059,-40.0276
 L -0.879059,-40.0276 L -2.62334,-40.248 L -4.32623,-40.6852 L -5.96091,-41.3324 L -7.50157,-42.1794 L -8.92393,-43.2128
 L -10.2056,-44.4164 L -11.3262,-45.771 L -12.2683,-47.2555 L -13.0169,-48.8463 L -13.5602,-50.5184 L -13.8896,-52.2453
 L -14,-54 L -13.8896,-55.7547 L -13.5602,-57.4816 L -13.0169,-59.1537 L -12.2683,-60.7445 L -11.3262,-62.229
 L -10.2056,-63.5836 L -8.92393,-64.7872 L -7.50157,-65.8206 L -5.96091,-66.6676 L -4.32623,-67.3148 L -2.62334,-67.752
 L -0.879059,-67.9724 L 0.879059,-67.9724 L 2.62334,-67.752 L 4.32623,-67.3148 L 5.96091,-66.6676 L 7.50157,-65.8206
 L 8.92393,-64.7872 L 9.76219,-64 L 22,-64 L 22,-71 L 21.9606,-71.6267 L 21.8429,-72.2434
 L 21.6489,-72.8406 L 21.3815,-73.4088 L 21.0451,-73.9389 L 20.6448,-74.4227 L 20.1871,-74.8526 L 19.6791,-75.2216
 L 19.1289,-75.5241 L 18.5451,-75.7553 L 17.9369,-75.9114 L 17.3139,-75.9901 L -32.3139,-75.9901 L -32.9369,-75.9114
 L -33.5451,-75.7553 L -34.1289,-75.5241 L -34.6791,-75.2216 L -35.1871,-74.8526 L -35.6448,-74.4227 L -36.0451,-73.9389
 L -36.3815,-73.4088 L -36.6489,-72.8406 L -36.8429,-72.2434 L -36.9606,-71.6267 L -37,-71 L -37,-37
 L -36.9606,-36.3733 L -36.8429,-35.7566 L -36.6489,-35.1594 L -36.3815,-34.5912 L -36.0451,-34.0611 L -35.6448,-33.5773
 L -35.1871,-33.1474 L -34.6791,-32.7784 L -34.1289,-32.4759 L -33.5451,-32.2447 L -32.9369,-32.0886 L -32.3139,-32.0099
 L -22,-32.0099 L -22,-24 L -17.5942,-24 z
M -30.1884,-66.0059 L -30.5621,-66.0531 L -30.927,-66.1468 L -31.2773,-66.2855 L -31.6075,-66.467 L -31.9123,-66.6884
 L -32.1869,-66.9464 L -32.427,-67.2366 L -32.6289,-67.5547 L -32.7893,-67.8956 L -32.9057,-68.2539 L -32.9763,-68.624
 L -33,-69 L -32.9763,-69.376 L -32.9057,-69.7461 L -32.7893,-70.1044 L -32.6289,-70.4453 L -32.427,-70.7634
 L -32.1869,-71.0536 L -31.9123,-71.3115 L -31.6075,-71.533 L -31.2773,-71.7145 L -30.927,-71.8532 L -30.5621,-71.9469
 L -30.1884,-71.9941 L -29.8116,-71.9941 L -29.4379,-71.9469 L -29.0729,-71.8532 L -28.7227,-71.7145 L -28.3925,-71.533
 L -28.0877,-71.3115 L -27.8131,-71.0536 L -27.5729,-70.7634 L -27.3711,-70.4453 L -27.2107,-70.1044 L -27.0942,-69.7461
 L -27.0237,-69.376 L -27,-69 L -27.0237,-68.624 L -27.0942,-68.2539 L -27.2107,-67.8956 L -27.3711,-67.5547
 L -27.5729,-67.2366 L -27.8131,-66.9464 L -28.0877,-66.6884 L -28.3925,-66.467 L -28.7227,-66.2855 L -29.0729,-66.1468
 L -29.4379,-66.0531 L -29.8116,-66.0059 z
M 15.4058,-68.0029 L 15.2189,-68.0266 L 15.0365,-68.0734 L 14.8613,-68.1427 L 14.6963,-68.2335 L 14.5439,-68.3442
 L 14.4065,-68.4732 L 14.2865,-68.6183 L 14.1855,-68.7774 L 14.1053,-68.9478 L 14.0471,-69.127 L 14.0118,-69.312
 L 14,-69.5 L 14.0118,-69.688 L 14.0471,-69.873 L 14.1053,-70.0522 L 14.1855,-70.2226 L 14.2865,-70.3817
 L 14.4065,-70.5268 L 14.5439,-70.6558 L 14.6963,-70.7665 L 14.8613,-70.8572 L 15.0365,-70.9266 L 15.2189,-70.9734
 L 15.4058,-70.997 L 15.5942,-70.997 L 15.7811,-70.9734 L 15.9635,-70.9266 L 16.1387,-70.8572 L 16.3037,-70.7665
 L 16.4561,-70.6558 L 16.5934,-70.5268 L 16.7135,-70.3817 L 16.8145,-70.2226 L 16.8947,-70.0522 L 16.9529,-69.873
 L 16.9882,-69.688 L 17,-69.5 L 16.9882,-69.312 L 16.9529,-69.127 L 16.8947,-68.9478 L 16.8145,-68.7774
 L 16.7135,-68.6183 L 16.5934,-68.4732 L 16.4561,-68.3442 L 16.3037,-68.2335 L 16.1387,-68.1427 L 15.9635,-68.0734
 L 15.7811,-68.0266 L 15.5942,-68.0029 z
M -15.5942,-68.0029 L -15.7811,-68.0266 L -15.9635,-68.0734 L -16.1387,-68.1427 L -16.3037,-68.2335 L -16.4561,-68.3442
 L -16.5934,-68.4732 L -16.7135,-68.6183 L -16.8145,-68.7774 L -16.8947,-68.9478 L -16.9529,-69.127 L -16.9882,-69.312
 L -17,-69.5 L -16.9882,-69.688 L -16.9529,-69.873 L -16.8947,-70.0522 L -16.8145,-70.2226 L -16.7135,-70.3817
 L -16.5934,-70.5268 L -16.4561,-70.6558 L -16.3037,-70.7665 L -16.1387,-70.8572 L -15.9635,-70.9266 L -15.7811,-70.9734
 L -15.5942,-70.997 L -15.4058,-70.997 L -15.2189,-70.9734 L -15.0365,-70.9266 L -14.8613,-70.8572 L -14.6963,-70.7665
 L -14.5439,-70.6558 L -14.4065,-70.5268 L -14.2865,-70.3817 L -14.1855,-70.2226 L -14.1053,-70.0522 L -14.0471,-69.873
 L -14.0118,-69.688 L -14,-69.5 L -14.0118,-69.312 L -14.0471,-69.127 L -14.1053,-68.9478 L -14.1855,-68.7774
 L -14.2865,-68.6183 L -14.4065,-68.4732 L -14.5439,-68.3442 L -14.6963,-68.2335 L -14.8613,-68.1427 L -15.0365,-68.0734
 L -15.2189,-68.0266 L -15.4058,-68.0029 z
M -30.1884,-51.0059 L -30.5621,-51.0531 L -30.927,-51.1468 L -31.2773,-51.2855 L -31.6075,-51.467 L -31.9123,-51.6885
 L -32.1869,-51.9464 L -32.427,-52.2366 L -32.6289,-52.5547 L -32.7893,-52.8956 L -32.9057,-53.2539 L -32.9763,-53.624
 L -33,-54 L -32.9763,-54.376 L -32.9057,-54.7461 L -32.7893,-55.1044 L -32.6289,-55.4453 L -32.427,-55.7634
 L -32.1869,-56.0536 L -31.9123,-56.3115 L -31.6075,-56.533 L -31.2773,-56.7145 L -30.927,-56.8532 L -30.5621,-56.9469
 L -30.1884,-56.9941 L -29.8116,-56.9941 L -29.4379,-56.9469 L -29.0729,-56.8532 L -28.7227,-56.7145 L -28.3925,-56.533
 L -28.0877,-56.3115 L -27.8131,-56.0536 L -27.5729,-55.7634 L -27.3711,-55.4453 L -27.2107,-55.1044 L -27.0942,-54.7461
 L -27.0237,-54.376 L -27,-54 L -27.0237,-53.624 L -27.0942,-53.2539 L -27.2107,-52.8956 L -27.3711,-52.5547
 L -27.5729,-52.2366 L -27.8131,-51.9464 L -28.0877,-51.6885 L -28.3925,-51.467 L -28.7227,-51.2855 L -29.0729,-51.1468
 L -29.4379,-51.0531 L -29.8116,-51.0059 z
M -30.1884,-36.0059 L -30.5621,-36.0531 L -30.927,-36.1468 L -31.2773,-36.2855 L -31.6075,-36.467 L -31.9123,-36.6885
 L -32.1869,-36.9464 L -32.427,-37.2366 L -32.6289,-37.5547 L -32.7893,-37.8956 L -32.9057,-38.2539 L -32.9763,-38.624
 L -33,-39 L -32.9763,-39.376 L -32.9057,-39.7461 L -32.7893,-40.1044 L -32.6289,-40.4453 L -32.427,-40.7634
 L -32.1869,-41.0536 L -31.9123,-41.3116 L -31.6075,-41.533 L -31.2773,-41.7145 L -30.927,-41.8532 L -30.5621,-41.9469
 L -30.1884,-41.9941 L -29.8116,-41.9941 L -29.4379,-41.9469 L -29.0729,-41.8532 L -28.7227,-41.7145 L -28.3925,-41.533
 L -28.0877,-41.3116 L -27.8131,-41.0536 L -27.5729,-40.7634 L -27.3711,-40.4453 L -27.2107,-40.1044 L -27.0942,-39.7461
 L -27.0237,-39.376 L -27,-39 L -27.0237,-38.624 L -27.0942,-38.2539 L -27.2107,-37.8956 L -27.3711,-37.5547
 L -27.5729,-37.2366 L -27.8131,-36.9464 L -28.0877,-36.6885 L -28.3925,-36.467 L -28.7227,-36.2855 L -29.0729,-36.1468
 L -29.4379,-36.0531 L -29.8116,-36.0059 z
M 22,10 L 9.76219,10 L 8.92393,10.7872 L 7.50157,11.8206 L 5.96091,12.6676 L 4.32623,13.3148
 L 2.62334,13.752 L 0.879059,13.9724 L -0.879059,13.9724 L -2.62334,13.752 L -4.32623,13.3148 L -5.96091,12.6676
 L -7.50157,11.8206 L -8.92393,10.7872 L -10.2056,9.58365 L -11.3262,8.22899 L -12.2683,6.74454 L -13.0169,5.15373
 L -13.5602,3.48164 L -13.8896,1.75465 L -14,-0 L -13.8896,-1.75465 L -13.5602,-3.48164 L -13.0169,-5.15373
 L -12.2683,-6.74454 L -11.3262,-8.22899 L -10.2056,-9.58365 L -8.92393,-10.7872 L -7.50157,-11.8206 L -5.96091,-12.6676
 L -4.32623,-13.3148 L -2.62334,-13.752 L -0.879059,-13.9724 L 0.879059,-13.9724 L 2.62334,-13.752 L 4.32623,-13.3148
 L 5.96091,-12.6676 L 7.50157,-11.8206 L 8.92393,-10.7872 L 9.76219,-10 L 22,-10 L 22,-17
 L 21.9606,-17.6267 L 21.8429,-18.2434 L 21.6489,-18.8406 L 21.3815,-19.4088 L 21.0451,-19.9389 L 20.6448,-20.4227
 L 20.1871,-20.8526 L 19.6791,-21.2216 L 19.1289,-21.5241 L 18.5451,-21.7553 L 17.9369,-21.9114 L 17.3139,-21.9901
 L -32.3139,-21.9901 L -32.9369,-21.9114 L -33.5451,-21.7553 L -34.1289,-21.5241 L -34.6791,-21.2216 L -35.1871,-20.8526
 L -35.6448,-20.4227 L -36.0451,-19.9389 L -36.3815,-19.4088 L -36.6489,-18.8406 L -36.8429,-18.2434 L -36.9606,-17.6267
 L -37,-17 L -37,17 L -36.9606,17.6267 L -36.8429,18.2434 L -36.6489,18.8406 L -36.3815,19.4088
 L -36.0451,19.9389 L -35.6448,20.4227 L -35.1871,20.8526 L -34.6791,21.2216 L -34.1289,21.5241 L -33.5451,21.7553
 L -32.9369,21.9114 L -32.3139,21.9901 L -22,21.9901 L -22,30 L 22,30 z
M -30.1884,-12.0059 L -30.5621,-12.0531 L -30.927,-12.1468 L -31.2773,-12.2855 L -31.6075,-12.467 L -31.9123,-12.6884
 L -32.1869,-12.9464 L -32.427,-13.2366 L -32.6289,-13.5547 L -32.7893,-13.8956 L -32.9057,-14.2539 L -32.9763,-14.624
 L -33,-15 L -32.9763,-15.376 L -32.9057,-15.7461 L -32.7893,-16.1044 L -32.6289,-16.4453 L -32.427,-16.7634
 L -32.1869,-17.0536 L -31.9123,-17.3115 L -31.6075,-17.533 L -31.2773,-17.7145 L -30.927,-17.8532 L -30.5621,-17.9469
 L -30.1884,-17.9941 L -29.8116,-17.9941 L -29.4379,-17.9469 L -29.0729,-17.8532 L -28.7227,-17.7145 L -28.3925,-17.533
 L -28.0877,-17.3115 L -27.8131,-17.0536 L -27.5729,-16.7634 L -27.3711,-16.4453 L -27.2107,-16.1044 L -27.0942,-15.7461
 L -27.0237,-15.376 L -27,-15 L -27.0237,-14.624 L -27.0942,-14.2539 L -27.2107,-13.8956 L -27.3711,-13.5547
 L -27.5729,-13.2366 L -27.8131,-12.9464 L -28.0877,-12.6884 L -28.3925,-12.467 L -28.7227,-12.2855 L -29.0729,-12.1468
 L -29.4379,-12.0531 L -29.8116,-12.0059 z
M -15.5942,-14.0029 L -15.7811,-14.0266 L -15.9635,-14.0734 L -16.1387,-14.1427 L -16.3037,-14.2335 L -16.4561,-14.3442
 L -16.5934,-14.4732 L -16.7135,-14.6183 L -16.8145,-14.7774 L -16.8947,-14.9478 L -16.9529,-15.127 L -16.9882,-15.312
 L -17,-15.5 L -16.9882,-15.688 L -16.9529,-15.873 L -16.8947,-16.0522 L -16.8145,-16.2226 L -16.7135,-16.3817
 L -16.5934,-16.5268 L -16.4561,-16.6558 L -16.3037,-16.7665 L -16.1387,-16.8572 L -15.9635,-16.9266 L -15.7811,-16.9734
 L -15.5942,-16.997 L -15.4058,-16.997 L -15.2189,-16.9734 L -15.0365,-16.9266 L -14.8613,-16.8572 L -14.6963,-16.7665
 L -14.5439,-16.6558 L -14.4065,-16.5268 L -14.2865,-16.3817 L -14.1855,-16.2226 L -14.1053,-16.0522 L -14.0471,-15.873
 L -14.0118,-15.688 L -14,-15.5 L -14.0118,-15.312 L -14.0471,-15.127 L -14.1053,-14.9478 L -14.1855,-14.7774
 L -14.2865,-14.6183 L -14.4065,-14.4732 L -14.5439,-14.3442 L -14.6963,-14.2335 L -14.8613,-14.1427 L -15.0365,-14.0734
 L -15.2189,-14.0266 L -15.4058,-14.0029 z
M 15.4058,-14.0029 L 15.2189,-14.0266 L 15.0365,-14.0734 L 14.8613,-14.1427 L 14.6963,-14.2335 L 14.5439,-14.3442
 L 14.4065,-14.4732 L 14.2865,-14.6183 L 14.1855,-14.7774 L 14.1053,-14.9478 L 14.0471,-15.127 L 14.0118,-15.312
 L 14,-15.5 L 14.0118,-15.688 L 14.0471,-15.873 L 14.1053,-16.0522 L 14.1855,-16.2226 L 14.2865,-16.3817
 L 14.4065,-16.5268 L 14.5439,-16.6558 L 14.6963,-16.7665 L 14.8613,-16.8572 L 15.0365,-16.9266 L 15.2189,-16.9734
 L 15.4058,-16.997 L 15.5942,-16.997 L 15.7811,-16.9734 L 15.9635,-16.9266 L 16.1387,-16.8572 L 16.3037,-16.7665
 L 16.4561,-16.6558 L 16.5934,-16.5268 L 16.7135,-16.3817 L 16.8145,-16.2226 L 16.8947,-16.0522 L 16.9529,-15.873
 L 16.9882,-15.688 L 17,-15.5 L 16.9882,-15.312 L 16.9529,-15.127 L 16.8947,-14.9478 L 16.8145,-14.7774
 L 16.7135,-14.6183 L 16.5934,-14.4732 L 16.4561,-14.3442 L 16.3037,-14.2335 L 16.1387,-14.1427 L 15.9635,-14.0734
 L 15.7811,-14.0266 L 15.5942,-14.0029 z
M -30.1884,2.99408 L -30.5621,2.94685 L -30.927,2.85316 L -31.2773,2.71448 L -31.6075,2.53297 L -31.9123,2.31154
 L -32.1869,2.05363 L -32.427,1.76335 L -32.6289,1.44525 L -32.7893,1.10437 L -32.9057,0.746063 L -32.9763,0.375992
 L -33,-0 L -32.9763,-0.375992 L -32.9057,-0.746063 L -32.7893,-1.10437 L -32.6289,-1.44525 L -32.427,-1.76335
 L -32.1869,-2.05363 L -31.9123,-2.31154 L -31.6075,-2.53297 L -31.2773,-2.71448 L -30.927,-2.85316 L -30.5621,-2.94685
 L -30.1884,-2.99408 L -29.8116,-2.99408 L -29.4379,-2.94685 L -29.0729,-2.85316 L -28.7227,-2.71448 L -28.3925,-2.53297
 L -28.0877,-2.31154 L -27.8131,-2.05363 L -27.5729,-1.76335 L -27.3711,-1.44525 L -27.2107,-1.10437 L -27.0942,-0.746063
 L -27.0237,-0.375992 L -27,-0 L -27.0237,0.375992 L -27.0942,0.746063 L -27.2107,1.10437 L -27.3711,1.44525
 L -27.5729,1.76335 L -27.8131,2.05363 L -28.0877,2.31154 L -28.3925,2.53297 L -28.7227,2.71448 L -29.0729,2.85316
 L -29.4379,2.94685 L -29.8116,2.99408 z
M -30.1884,17.9941 L -30.5621,17.9469 L -30.927,17.8532 L -31.2773,17.7145 L -31.6075,17.533 L -31.9123,17.3115
 L -32.1869,17.0536 L -32.427,16.7634 L -32.6289,16.4453 L -32.7893,16.1044 L -32.9057,15.7461 L -32.9763,15.376
 L -33,15 L -32.9763,14.624 L -32.9057,14.2539 L -32.7893,13.8956 L -32.6289,13.5547 L -32.427,13.2366
 L -32.1869,12.9464 L -31.9123,12.6884 L -31.6075,12.467 L -31.2773,12.2855 L -30.927,12.1468 L -30.5621,12.0531
 L -30.1884,12.0059 L -29.8116,12.0059 L -29.4379,12.0531 L -29.0729,12.1468 L -28.7227,12.2855 L -28.3925,12.467
 L -28.0877,12.6884 L -27.8131,12.9464 L -27.5729,13.2366 L -27.3711,13.5547 L -27.2107,13.8956 L -27.0942,14.2539
 L -27.0237,14.624 L -27,15 L -27.0237,15.376 L -27.0942,15.7461 L -27.2107,16.1044 L -27.3711,16.4453
 L -27.5729,16.7634 L -27.8131,17.0536 L -28.0877,17.3115 L -28.3925,17.533 L -28.7227,17.7145 L -29.0729,17.8532
 L -29.4379,17.9469 L -29.8116,17.9941 z
M 15.4058,16.997 L 15.2189,16.9734 L 15.0365,16.9266 L 14.8613,16.8572 L 14.6963,16.7665 L 14.5439,16.6558
 L 14.4065,16.5268 L 14.2865,16.3817 L 14.1855,16.2226 L 14.1053,16.0522 L 14.0471,15.873 L 14.0118,15.688
 L 14,15.5 L 14.0118,15.312 L 14.0471,15.127 L 14.1053,14.9478 L 14.1855,14.7774 L 14.2865,14.6183
 L 14.4065,14.4732 L 14.5439,14.3442 L 14.6963,14.2335 L 14.8613,14.1427 L 15.0365,14.0734 L 15.2189,14.0266
 L 15.4058,14.0029 L 15.5942,14.0029 L 15.7811,14.0266 L 15.9635,14.0734 L 16.1387,14.1427 L 16.3037,14.2335
 L 16.4561,14.3442 L 16.5934,14.4732 L 16.7135,14.6183 L 16.8145,14.7774 L 16.8947,14.9478 L 16.9529,15.127
 L 16.9882,15.312 L 17,15.5 L 16.9882,15.688 L 16.9529,15.873 L 16.8947,16.0522 L 16.8145,16.2226
 L 16.7135,16.3817 L 16.5934,16.5268 L 16.4561,16.6558 L 16.3037,16.7665 L 16.1387,16.8572 L 15.9635,16.9266
 L 15.7811,16.9734 L 15.5942,16.997 z
M -15.5942,16.997 L -15.7811,16.9734 L -15.9635,16.9266 L -16.1387,16.8572 L -16.3037,16.7665 L -16.4561,16.6558
 L -16.5934,16.5268 L -16.7135,16.3817 L -16.8145,16.2226 L -16.8947,16.0522 L -16.9529,15.873 L -16.9882,15.688
 L -17,15.5 L -16.9882,15.312 L -16.9529,15.127 L -16.8947,14.9478 L -16.8145,14.7774 L -16.7135,14.6183
 L -16.5934,14.4732 L -16.4561,14.3442 L -16.3037,14.2335 L -16.1387,14.1427 L -15.9635,14.0734 L -15.7811,14.0266
 L -15.5942,14.0029 L -15.4058,14.0029 L -15.2189,14.0266 L -15.0365,14.0734 L -14.8613,14.1427 L -14.6963,14.2335
 L -14.5439,14.3442 L -14.4065,14.4732 L -14.2865,14.6183 L -14.1855,14.7774 L -14.1053,14.9478 L -14.0471,15.127
 L -14.0118,15.312 L -14,15.5 L -14.0118,15.688 L -14.0471,15.873 L -14.1053,16.0522 L -14.1855,16.2226
 L -14.2865,16.3817 L -14.4065,16.5268 L -14.5439,16.6558 L -14.6963,16.7665 L -14.8613,16.8572 L -15.0365,16.9266
 L -15.2189,16.9734 L -15.4058,16.997 z
M 9.65337,26.9 L 9.65337,21.5 L 20.3466,21.5 L 20.3466,26.9 z
M -5.34662,26.9 L -5.34662,21.5 L 5.34662,21.5 L 5.34662,26.9 z
M -20.3466,26.9 L -20.3466,21.5 L -9.65337,21.5 L -9.65337,26.9 z
" stroke="black" fill="lightgray" stroke-width="0.5"/>
</svg>
