solid OpenSCAD_Model
  facet normal -0.997969 -0.0637053 0
    outer loop
      vertex -169.25 -30 0
      vertex -169.276 -29.5927 3
      vertex -169.276 -29.5927 0
    endloop
  endfacet
  facet normal -0.997969 -0.0637053 0
    outer loop
      vertex -169.276 -29.5927 3
      vertex -169.25 -30 0
      vertex -169.25 -30 3
    endloop
  endfacet
  facet normal 0.997969 -0.0637053 0
    outer loop
      vertex -175.75 -30 3
      vertex -175.724 -29.5927 0
      vertex -175.724 -29.5927 3
    endloop
  endfacet
