<?xml version="1.0" standalone="no"?>
<!DOCTYPE svg PUBLIC "-//W3C//DTD SVG 1.1//EN" "http://www.w3.org/Graphics/SVG/1.1/DTD/svg11.dtd">
<svg width="57mm" height="57mm" viewBox="-28 -29 57 57" xmlns="http://www.w3.org/2000/svg" version="1.1">
<title>OpenSCAD Model</title>
<path d="
M 25.712,-16.2673 L 26.1743,-16.386 L 26.618,-16.5616 L 27.0361,-16.7915 L 27.4222,-17.072 L 27.7701,-17.3987
 L 28.0743,-17.7664 L 28.33,-18.1693 L 28.5331,-18.6011 L 28.6806,-19.055 L 28.77,-19.5237 L 28.8,-20
 L 28.8,-25 L 28.77,-25.4763 L 28.6806,-25.945 L 28.5331,-26.3989 L 28.33,-26.8307 L 28.0743,-27.2336
 L 27.7701,-27.6013 L 27.4222,-27.9279 L 27.0361,-28.2084 L 26.618,-28.4383 L 26.1743,-28.614 L 25.712,-28.7327
 L 25.2386,-28.7925 L 19.7614,-28.7925 L 19.2879,-28.7327 L 18.8257,-28.614 L 18.382,-28.4383 L 17.9639,-28.2084
 L 17.5778,-27.9279 L 17.2299,-27.6013 L 16.9257,-27.2336 L 16.67,-26.8307 L 16.4668,-26.3989 L 16.3194,-25.945
 L 16.2299,-25.4763 L 16.2,-25 L 16.2,-20 L 16.2299,-19.5237 L 16.3194,-19.055 L 16.4668,-18.6011
 L 16.67,-18.1693 L 16.9257,-17.7664 L 17.2299,-17.3987 L 17.5778,-17.072 L 17.9639,-16.7915 L 18.382,-16.5616
 L 18.8257,-16.386 L 19.2879,-16.2673 L 19.7614,-16.2075 L 25.2386,-16.2075 z
M 21.8116,-19.0059 L 21.4379,-19.0531 L 21.0729,-19.1468 L 20.7227,-19.2855 L 20.3925,-19.467 L 20.0877,-19.6884
 L 19.8131,-19.9464 L 19.5729,-20.2366 L 19.3711,-20.5547 L 19.2107,-20.8956 L 19.0942,-21.2539 L 19.0237,-21.624
 L 19,-22 L 19,-23 L 19.0237,-23.376 L 19.0942,-23.7461 L 19.2107,-24.1044 L 19.3711,-24.4453
 L 19.5729,-24.7634 L 19.8131,-25.0536 L 20.0877,-25.3115 L 20.3925,-25.533 L 20.7227,-25.7145 L 21.0729,-25.8532
 L 21.4379,-25.9469 L 21.8116,-25.9941 L 23.1884,-25.9941 L 23.5621,-25.9469 L 23.927,-25.8532 L 24.2773,-25.7145
 L 24.6075,-25.533 L 24.9123,-25.3115 L 25.1869,-25.0536 L 25.427,-24.7634 L 25.6289,-24.4453 L 25.7893,-24.1044
 L 25.9057,-23.7461 L 25.9763,-23.376 L 26,-23 L 26,-22 L 25.9763,-21.624 L 25.9057,-21.2539
 L 25.7893,-20.8956 L 25.6289,-20.5547 L 25.427,-20.2366 L 25.1869,-19.9464 L 24.9123,-19.6884 L 24.6075,-19.467
 L 24.2773,-19.2855 L 23.927,-19.1468 L 23.5621,-19.0531 L 23.1884,-19.0059 z
M -21.5631,27.4114 L -20.9549,27.2553 L -20.3711,27.0241 L -19.8209,26.7216 L -19.3129,26.3526 L -18.8551,25.9227
 L -18.4549,25.4389 L -18.1185,24.9088 L -17.8511,24.3406 L -17.6571,23.7434 L -17.5394,23.1267 L -17.5,22.5
 L -17.5394,21.8733 L -17.6571,21.2565 L -17.8511,20.6594 L -18.1185,20.0912 L -18.4549,19.5611 L -18.8551,19.0773
 L -19.3129,18.6474 L -19.8209,18.2784 L -20.3711,17.9759 L -20.9549,17.7447 L -21.5631,17.5886 L -22.186,17.5099
 L -22.8139,17.5099 L -23.4369,17.5886 L -24.0451,17.7447 L -24.6289,17.9759 L -25.1791,18.2784 L -25.6871,18.6474
 L -26.1448,19.0773 L -26.5451,19.5611 L -26.8815,20.0912 L -27.1489,20.6594 L -27.3429,21.2565 L -27.4606,21.8733
 L -27.5,22.5 L -27.4606,23.1267 L -27.3429,23.7434 L -27.1489,24.3406 L -26.8815,24.9088 L -26.5451,25.4389
 L -26.1448,25.9227 L -25.6871,26.3526 L -25.1791,26.7216 L -24.6289,27.0241 L -24.0451,27.2553 L -23.4369,27.4114
 L -22.8139,27.4901 L -22.186,27.4901 z
M -22.5942,23.997 L -22.7811,23.9734 L -22.9635,23.9266 L -23.1387,23.8572 L -23.3037,23.7665 L -23.4561,23.6558
 L -23.5934,23.5268 L -23.7135,23.3817 L -23.8145,23.2226 L -23.8947,23.0522 L -23.9529,22.873 L -23.9882,22.688
 L -24,22.5 L -23.9882,22.312 L -23.9529,22.127 L -23.8947,21.9478 L -23.8145,21.7774 L -23.7135,21.6183
 L -23.5934,21.4732 L -23.4561,21.3442 L -23.3037,21.2335 L -23.1387,21.1427 L -22.9635,21.0734 L -22.7811,21.0266
 L -22.5942,21.003 L -22.4058,21.003 L -22.2189,21.0266 L -22.0365,21.0734 L -21.8613,21.1427 L -21.6963,21.2335
 L -21.5439,21.3442 L -21.4065,21.4732 L -21.2865,21.6183 L -21.1855,21.7774 L -21.1053,21.9478 L -21.0471,22.127
 L -21.0118,22.312 L -21,22.5 L -21.0118,22.688 L -21.0471,22.873 L -21.1053,23.0522 L -21.1855,23.2226
 L -21.2865,23.3817 L -21.4065,23.5268 L -21.5439,23.6558 L -21.6963,23.7665 L -21.8613,23.8572 L -22.0365,23.9266
 L -22.2189,23.9734 L -22.4058,23.997 z
" stroke="black" fill="lightgray" stroke-width="0.5"/>
</svg>
