  0
SECTION
  2
BLOCKS
  0
ENDSEC
  0
SECTION
  2
ENTITIES
  0
LINE
  8
0
 10
14.6869
 20
297.089
 11
15.2951
 21
297.245
  0
LINE
  8
0
 10
15.2951
 20
297.245
 11
15.8789
 21
297.476
  0
LINE
  8
0
 10
15.8789
 20
297.476
 11
16.4291
 21
297.778
  0
LINE
  8
0
 10
16.4291
 20
297.778
 11
16.9371
 21
298.147
  0
LINE
  8
0
 10
16.9371
 20
298.147
 11
17.3948
 21
298.577
  0
LINE
  8
0
 10
17.3948
 20
298.577
 11
17.7951
 21
299.061
  0
LINE
  8
0
 10
17.7951
 20
299.061
 11
18.1315
 21
299.591
  0
LINE
  8
0
 10
18.1315
 20
299.591
 11
18.3989
 21
300.159
  0
LINE
  8
0
 10
18.3989
 20
300.159
 11
18.5929
 21
300.757
  0
LINE
  8
0
 10
18.5929
 20
300.757
 11
18.7106
 21
301.373
  0
LINE
  8
0
 10
18.7106
 20
301.373
 11
18.75
 21
302
  0
LINE
  8
0
 10
18.75
 20
302
 11
18.75
 21
322
  0
LINE
  8
0
 10
18.75
 20
322
 11
18.7106
 21
322.627
  0
LINE
  8
0
 10
18.7106
 20
322.627
 11
18.5929
 21
323.243
  0
LINE
  8
0
 10
18.5929
 20
323.243
 11
18.3989
 21
323.841
  0
LINE
  8
0
 10
18.3989
 20
323.841
 11
18.1315
 21
324.409
  0
LINE
  8
0
 10
18.1315
 20
324.409
 11
17.7951
 21
324.939
  0
LINE
  8
0
 10
17.7951
 20
324.939
 11
17.3948
 21
325.423
  0
LINE
  8
0
 10
17.3948
 20
325.423
 11
16.9371
 21
325.853
  0
LINE
  8
0
 10
16.9371
 20
325.853
 11
16.4291
 21
326.222
  0
LINE
  8
0
 10
16.4291
 20
326.222
 11
15.8789
 21
326.524
  0
LINE
  8
0
 10
15.8789
 20
326.524
 11
15.2951
 21
326.755
  0
LINE
  8
0
 10
15.2951
 20
326.755
 11
14.6869
 21
326.911
  0
LINE
  8
0
 10
14.6869
 20
326.911
 11
14.0639
 21
326.99
  0
LINE
  8
0
 10
14.0639
 20
326.99
 11
-14.0639
 21
326.99
  0
LINE
  8
0
 10
-14.0639
 20
326.99
 11
-14.6869
 21
326.911
  0
LINE
  8
0
 10
-14.6869
 20
326.911
 11
-15.2951
 21
326.755
  0
LINE
  8
0
 10
-15.2951
 20
326.755
 11
-15.8789
 21
326.524
  0
LINE
  8
0
 10
-15.8789
 20
326.524
 11
-16.4291
 21
326.222
  0
LINE
  8
0
 10
-16.4291
 20
326.222
 11
-16.9371
 21
325.853
  0
LINE
  8
0
 10
-16.9371
 20
325.853
 11
-17.3948
 21
325.423
  0
LINE
  8
0
 10
-17.3948
 20
325.423
 11
-17.7951
 21
324.939
  0
LINE
  8
0
 10
-17.7951
 20
324.939
 11
-18.1315
 21
324.409
  0
LINE
  8
0
 10
-18.1315
 20
324.409
 11
-18.3989
 21
323.841
  0
LINE
  8
0
 10
-18.3989
 20
323.841
 11
-18.5929
 21
323.243
  0
LINE
  8
0
 10
-18.5929
 20
323.243
 11
-18.7106
 21
322.627
  0
LINE
  8
0
 10
-18.7106
 20
322.627
 11
-18.75
 21
322
  0
LINE
  8
0
 10
-18.75
 20
322
 11
-18.75
 21
302
  0
LINE
  8
0
 10
-18.75
 20
302
 11
-18.7106
 21
301.373
  0
LINE
  8
0
 10
-18.7106
 20
301.373
 11
-18.5929
 21
300.757
  0
LINE
  8
0
 10
-18.5929
 20
300.757
 11
-18.3989
 21
300.159
  0
LINE
  8
0
 10
-18.3989
 20
300.159
 11
-18.1315
 21
299.591
  0
LINE
  8
0
 10
-18.1315
 20
299.591
 11
-17.7951
 21
299.061
  0
LINE
  8
0
 10
-17.7951
 20
299.061
 11
-17.3948
 21
298.577
  0
LINE
  8
0
 10
-17.3948
 20
298.577
 11
-16.9371
 21
298.147
  0
LINE
  8
0
 10
-16.9371
 20
298.147
 11
-16.4291
 21
297.778
  0
LINE
  8
0
 10
-16.4291
 20
297.778
 11
-15.8789
 21
297.476
  0
LINE
  8
0
 10
-15.8789
 20
297.476
 11
-15.2951
 21
297.245
  0
LINE
  8
0
 10
-15.2951
 20
297.245
 11
-14.6869
 21
297.089
  0
LINE
  8
0
 10
-14.6869
 20
297.089
 11
-14.0639
 21
297.01
  0
LINE
  8
0
 10
-14.0639
 20
297.01
 11
14.0639
 21
297.01
  0
LINE
  8
0
 10
14.0639
 20
297.01
 11
14.6869
 21
297.089
  0
LINE
  8
0
 10
-13.7982
 20
297.509
 11
-14.3901
 21
297.584
  0
LINE
  8
0
 10
-14.3901
 20
297.584
 11
-14.9678
 21
297.732
  0
LINE
  8
0
 10
-14.9678
 20
297.732
 11
-15.5224
 21
297.952
  0
LINE
  8
0
 10
-15.5224
 20
297.952
 11
-16.0452
 21
298.239
  0
LINE
  8
0
 10
-16.0452
 20
298.239
 11
-16.5278
 21
298.59
  0
LINE
  8
0
 10
-16.5278
 20
298.59
 11
-16.9626
 21
298.998
  0
LINE
  8
0
 10
-16.9626
 20
298.998
 11
-17.3428
 21
299.458
  0
LINE
  8
0
 10
-17.3428
 20
299.458
 11
-17.6624
 21
299.962
  0
LINE
  8
0
 10
-17.6624
 20
299.962
 11
-17.9164
 21
300.501
  0
LINE
  8
0
 10
-17.9164
 20
300.501
 11
-18.1008
 21
301.069
  0
LINE
  8
0
 10
-18.1008
 20
301.069
 11
-18.2125
 21
301.655
  0
LINE
  8
0
 10
-18.2125
 20
301.655
 11
-18.25
 21
302.25
  0
LINE
  8
0
 10
-18.25
 20
302.25
 11
-18.25
 21
321.75
  0
LINE
  8
0
 10
-18.25
 20
321.75
 11
-18.2125
 21
322.345
  0
LINE
  8
0
 10
-18.2125
 20
322.345
 11
-18.1008
 21
322.931
  0
LINE
  8
0
 10
-18.1008
 20
322.931
 11
-17.9164
 21
323.499
  0
LINE
  8
0
 10
-17.9164
 20
323.499
 11
-17.6624
 21
324.038
  0
LINE
  8
0
 10
-17.6624
 20
324.038
 11
-17.3428
 21
324.542
  0
LINE
  8
0
 10
-17.3428
 20
324.542
 11
-16.9626
 21
325.002
  0
LINE
  8
0
 10
-16.9626
 20
325.002
 11
-16.5278
 21
325.41
  0
LINE
  8
0
 10
-16.5278
 20
325.41
 11
-16.0452
 21
325.761
  0
LINE
  8
0
 10
-16.0452
 20
325.761
 11
-15.5224
 21
326.048
  0
LINE
  8
0
 10
-15.5224
 20
326.048
 11
-14.9678
 21
326.268
  0
LINE
  8
0
 10
-14.9678
 20
326.268
 11
-14.3901
 21
326.416
  0
LINE
  8
0
 10
-14.3901
 20
326.416
 11
-13.7982
 21
326.491
  0
LINE
  8
0
 10
-13.7982
 20
326.491
 11
13.7982
 21
326.491
  0
LINE
  8
0
 10
13.7982
 20
326.491
 11
14.3901
 21
326.416
  0
LINE
  8
0
 10
14.3901
 20
326.416
 11
14.9678
 21
326.268
  0
LINE
  8
0
 10
14.9678
 20
326.268
 11
15.5224
 21
326.048
  0
LINE
  8
0
 10
15.5224
 20
326.048
 11
16.0452
 21
325.761
  0
LINE
  8
0
 10
16.0452
 20
325.761
 11
16.5278
 21
325.41
  0
LINE
  8
0
 10
16.5278
 20
325.41
 11
16.9626
 21
325.002
  0
LINE
  8
0
 10
16.9626
 20
325.002
 11
17.3428
 21
324.542
  0
LINE
  8
0
 10
17.3428
 20
324.542
 11
17.6624
 21
324.038
  0
LINE
  8
0
 10
17.6624
 20
324.038
 11
17.9164
 21
323.499
  0
LINE
  8
0
 10
17.9164
 20
323.499
 11
18.1008
 21
322.931
  0
LINE
  8
0
 10
18.1008
 20
322.931
 11
18.2125
 21
322.345
  0
LINE
  8
0
 10
18.2125
 20
322.345
 11
18.25
 21
321.75
  0
LINE
  8
0
 10
18.25
 20
321.75
 11
18.25
 21
302.25
  0
LINE
  8
0
 10
18.25
 20
302.25
 11
18.2125
 21
301.655
  0
LINE
  8
0
 10
18.2125
 20
301.655
 11
18.1008
 21
301.069
  0
LINE
  8
0
 10
18.1008
 20
301.069
 11
17.9164
 21
300.501
  0
LINE
  8
0
 10
17.9164
 20
300.501
 11
17.6624
 21
299.962
  0
LINE
  8
0
 10
17.6624
 20
299.962
 11
17.3428
 21
299.458
  0
LINE
  8
0
 10
17.3428
 20
299.458
 11
16.9626
 21
298.998
  0
LINE
  8
0
 10
16.9626
 20
298.998
 11
16.5278
 21
298.59
  0
LINE
  8
0
 10
16.5278
 20
298.59
 11
16.0452
 21
298.239
  0
LINE
  8
0
 10
16.0452
 20
298.239
 11
15.5224
 21
297.952
  0
LINE
  8
0
 10
15.5224
 20
297.952
 11
14.9678
 21
297.732
  0
LINE
  8
0
 10
14.9678
 20
297.732
 11
14.3901
 21
297.584
  0
LINE
  8
0
 10
14.3901
 20
297.584
 11
13.7982
 21
297.509
  0
LINE
  8
0
 10
13.7982
 20
297.509
 11
-13.7982
 21
297.509
  0
LINE
  8
0
 10
14.6869
 20
258.089
 11
15.2951
 21
258.245
  0
LINE
  8
0
 10
15.2951
 20
258.245
 11
15.8789
 21
258.476
  0
LINE
  8
0
 10
15.8789
 20
258.476
 11
16.4291
 21
258.778
  0
LINE
  8
0
 10
16.4291
 20
258.778
 11
16.9371
 21
259.147
  0
LINE
  8
0
 10
16.9371
 20
259.147
 11
17.3948
 21
259.577
  0
LINE
  8
0
 10
17.3948
 20
259.577
 11
17.7951
 21
260.061
  0
LINE
  8
0
 10
17.7951
 20
260.061
 11
18.1315
 21
260.591
  0
LINE
  8
0
 10
18.1315
 20
260.591
 11
18.3989
 21
261.159
  0
LINE
  8
0
 10
18.3989
 20
261.159
 11
18.5929
 21
261.757
  0
LINE
  8
0
 10
18.5929
 20
261.757
 11
18.7106
 21
262.373
  0
LINE
  8
0
 10
18.7106
 20
262.373
 11
18.75
 21
263
  0
LINE
  8
0
 10
18.75
 20
263
 11
18.75
 21
283
  0
LINE
  8
0
 10
18.75
 20
283
 11
18.7106
 21
283.627
  0
LINE
  8
0
 10
18.7106
 20
283.627
 11
18.5929
 21
284.243
  0
LINE
  8
0
 10
18.5929
 20
284.243
 11
18.3989
 21
284.841
  0
LINE
  8
0
 10
18.3989
 20
284.841
 11
18.1315
 21
285.409
  0
LINE
  8
0
 10
18.1315
 20
285.409
 11
17.7951
 21
285.939
  0
LINE
  8
0
 10
17.7951
 20
285.939
 11
17.3948
 21
286.423
  0
LINE
  8
0
 10
17.3948
 20
286.423
 11
16.9371
 21
286.853
  0
LINE
  8
0
 10
16.9371
 20
286.853
 11
16.4291
 21
287.222
  0
LINE
  8
0
 10
16.4291
 20
287.222
 11
15.8789
 21
287.524
  0
LINE
  8
0
 10
15.8789
 20
287.524
 11
15.2951
 21
287.755
  0
LINE
  8
0
 10
15.2951
 20
287.755
 11
14.6869
 21
287.911
  0
LINE
  8
0
 10
14.6869
 20
287.911
 11
14.0639
 21
287.99
  0
LINE
  8
0
 10
14.0639
 20
287.99
 11
-14.0639
 21
287.99
  0
LINE
  8
0
 10
-14.0639
 20
287.99
 11
-14.6869
 21
287.911
  0
LINE
  8
0
 10
-14.6869
 20
287.911
 11
-15.2951
 21
287.755
  0
LINE
  8
0
 10
-15.2951
 20
287.755
 11
-15.8789
 21
287.524
  0
LINE
  8
0
 10
-15.8789
 20
287.524
 11
-16.4291
 21
287.222
  0
LINE
  8
0
 10
-16.4291
 20
287.222
 11
-16.9371
 21
286.853
  0
LINE
  8
0
 10
-16.9371
 20
286.853
 11
-17.3948
 21
286.423
  0
LINE
  8
0
 10
-17.3948
 20
286.423
 11
-17.7951
 21
285.939
  0
LINE
  8
0
 10
-17.7951
 20
285.939
 11
-18.1315
 21
285.409
  0
LINE
  8
0
 10
-18.1315
 20
285.409
 11
-18.3989
 21
284.841
  0
LINE
  8
0
 10
-18.3989
 20
284.841
 11
-18.5929
 21
284.243
  0
LINE
  8
0
 10
-18.5929
 20
284.243
 11
-18.7106
 21
283.627
  0
LINE
  8
0
 10
-18.7106
 20
283.627
 11
-18.75
 21
283
  0
LINE
  8
0
 10
-18.75
 20
283
 11
-18.75
 21
263
  0
LINE
  8
0
 10
-18.75
 20
263
 11
-18.7106
 21
262.373
  0
LINE
  8
0
 10
-18.7106
 20
262.373
 11
-18.5929
 21
261.757
  0
LINE
  8
0
 10
-18.5929
 20
261.757
 11
-18.3989
 21
261.159
  0
LINE
  8
0
 10
-18.3989
 20
261.159
 11
-18.1315
 21
260.591
  0
LINE
  8
0
 10
-18.1315
 20
260.591
 11
-17.7951
 21
260.061
  0
LINE
  8
0
 10
-17.7951
 20
260.061
 11
-17.3948
 21
259.577
  0
LINE
  8
0
 10
-17.3948
 20
259.577
 11
-16.9371
 21
259.147
  0
LINE
  8
0
 10
-16.9371
 20
259.147
 11
-16.4291
 21
258.778
  0
LINE
  8
0
 10
-16.4291
 20
258.778
 11
-15.8789
 21
258.476
  0
LINE
  8
0
 10
-15.8789
 20
258.476
 11
-15.2951
 21
258.245
  0
LINE
  8
0
 10
-15.2951
 20
258.245
 11
-14.6869
 21
258.089
  0
LINE
  8
0
 10
-14.6869
 20
258.089
 11
-14.0639
 21
258.01
  0
LINE
  8
0
 10
-14.0639
 20
258.01
 11
14.0639
 21
258.01
  0
LINE
  8
0
 10
14.0639
 20
258.01
 11
14.6869
 21
258.089
  0
LINE
  8
0
 10
-13.7982
 20
258.509
 11
-14.3901
 21
258.584
  0
LINE
  8
0
 10
-14.3901
 20
258.584
 11
-14.9678
 21
258.732
  0
LINE
  8
0
 10
-14.9678
 20
258.732
 11
-15.5224
 21
258.952
  0
LINE
  8
0
 10
-15.5224
 20
258.952
 11
-16.0452
 21
259.239
  0
LINE
  8
0
 10
-16.0452
 20
259.239
 11
-16.5278
 21
259.59
  0
LINE
  8
0
 10
-16.5278
 20
259.59
 11
-16.9626
 21
259.998
  0
LINE
  8
0
 10
-16.9626
 20
259.998
 11
-17.3428
 21
260.458
  0
LINE
  8
0
 10
-17.3428
 20
260.458
 11
-17.6624
 21
260.962
  0
LINE
  8
0
 10
-17.6624
 20
260.962
 11
-17.9164
 21
261.501
  0
LINE
  8
0
 10
-17.9164
 20
261.501
 11
-18.1008
 21
262.069
  0
LINE
  8
0
 10
-18.1008
 20
262.069
 11
-18.2125
 21
262.655
  0
LINE
  8
0
 10
-18.2125
 20
262.655
 11
-18.25
 21
263.25
  0
LINE
  8
0
 10
-18.25
 20
263.25
 11
-18.25
 21
282.75
  0
LINE
  8
0
 10
-18.25
 20
282.75
 11
-18.2125
 21
283.345
  0
LINE
  8
0
 10
-18.2125
 20
283.345
 11
-18.1008
 21
283.931
  0
LINE
  8
0
 10
-18.1008
 20
283.931
 11
-17.9164
 21
284.499
  0
LINE
  8
0
 10
-17.9164
 20
284.499
 11
-17.6624
 21
285.038
  0
LINE
  8
0
 10
-17.6624
 20
285.038
 11
-17.3428
 21
285.542
  0
LINE
  8
0
 10
-17.3428
 20
285.542
 11
-16.9626
 21
286.002
  0
LINE
  8
0
 10
-16.9626
 20
286.002
 11
-16.5278
 21
286.41
  0
LINE
  8
0
 10
-16.5278
 20
286.41
 11
-16.0452
 21
286.761
  0
LINE
  8
0
 10
-16.0452
 20
286.761
 11
-15.5224
 21
287.048
  0
LINE
  8
0
 10
-15.5224
 20
287.048
 11
-14.9678
 21
287.268
  0
LINE
  8
0
 10
-14.9678
 20
287.268
 11
-14.3901
 21
287.416
  0
LINE
  8
0
 10
-14.3901
 20
287.416
 11
-13.7982
 21
287.491
  0
LINE
  8
0
 10
-13.7982
 20
287.491
 11
13.7982
 21
287.491
  0
LINE
  8
0
 10
13.7982
 20
287.491
 11
14.3901
 21
287.416
  0
LINE
  8
0
 10
14.3901
 20
287.416
 11
14.9678
 21
287.268
  0
LINE
  8
0
 10
14.9678
 20
287.268
 11
15.5224
 21
287.048
  0
LINE
  8
0
 10
15.5224
 20
287.048
 11
16.0452
 21
286.761
  0
LINE
  8
0
 10
16.0452
 20
286.761
 11
16.5278
 21
286.41
  0
LINE
  8
0
 10
16.5278
 20
286.41
 11
16.9626
 21
286.002
  0
LINE
  8
0
 10
16.9626
 20
286.002
 11
17.3428
 21
285.542
  0
LINE
  8
0
 10
17.3428
 20
285.542
 11
17.6624
 21
285.038
  0
LINE
  8
0
 10
17.6624
 20
285.038
 11
17.9164
 21
284.499
  0
LINE
  8
0
 10
17.9164
 20
284.499
 11
18.1008
 21
283.931
  0
LINE
  8
0
 10
18.1008
 20
283.931
 11
18.2125
 21
283.345
  0
LINE
  8
0
 10
18.2125
 20
283.345
 11
18.25
 21
282.75
  0
LINE
  8
0
 10
18.25
 20
282.75
 11
18.25
 21
263.25
  0
LINE
  8
0
 10
18.25
 20
263.25
 11
18.2125
 21
262.655
  0
LINE
  8
0
 10
18.2125
 20
262.655
 11
18.1008
 21
262.069
  0
LINE
  8
0
 10
18.1008
 20
262.069
 11
17.9164
 21
261.501
  0
LINE
  8
0
 10
17.9164
 20
261.501
 11
17.6624
 21
260.962
  0
LINE
  8
0
 10
17.6624
 20
260.962
 11
17.3428
 21
260.458
  0
LINE
  8
0
 10
17.3428
 20
260.458
 11
16.9626
 21
259.998
  0
LINE
  8
0
 10
16.9626
 20
259.998
 11
16.5278
 21
259.59
  0
LINE
  8
0
 10
16.5278
 20
259.59
 11
16.0452
 21
259.239
  0
LINE
  8
0
 10
16.0452
 20
259.239
 11
15.5224
 21
258.952
  0
LINE
  8
0
 10
15.5224
 20
258.952
 11
14.9678
 21
258.732
  0
LINE
  8
0
 10
14.9678
 20
258.732
 11
14.3901
 21
258.584
  0
LINE
  8
0
 10
14.3901
 20
258.584
 11
13.7982
 21
258.509
  0
LINE
  8
0
 10
13.7982
 20
258.509
 11
-13.7982
 21
258.509
  0
LINE
  8
0
 10
14.6869
 20
219.089
 11
15.2951
 21
219.245
  0
LINE
  8
0
 10
15.2951
 20
219.245
 11
15.8789
 21
219.476
  0
LINE
  8
0
 10
15.8789
 20
219.476
 11
16.4291
 21
219.778
  0
LINE
  8
0
 10
16.4291
 20
219.778
 11
16.9371
 21
220.147
  0
LINE
  8
0
 10
16.9371
 20
220.147
 11
17.3948
 21
220.577
  0
LINE
  8
0
 10
17.3948
 20
220.577
 11
17.7951
 21
221.061
  0
LINE
  8
0
 10
17.7951
 20
221.061
 11
18.1315
 21
221.591
  0
LINE
  8
0
 10
18.1315
 20
221.591
 11
18.3989
 21
222.159
  0
LINE
  8
0
 10
18.3989
 20
222.159
 11
18.5929
 21
222.757
  0
LINE
  8
0
 10
18.5929
 20
222.757
 11
18.7106
 21
223.373
  0
LINE
  8
0
 10
18.7106
 20
223.373
 11
18.75
 21
224
  0
LINE
  8
0
 10
18.75
 20
224
 11
18.75
 21
244
  0
LINE
  8
0
 10
18.75
 20
244
 11
18.7106
 21
244.627
  0
LINE
  8
0
 10
18.7106
 20
244.627
 11
18.5929
 21
245.243
  0
LINE
  8
0
 10
18.5929
 20
245.243
 11
18.3989
 21
245.841
  0
LINE
  8
0
 10
18.3989
 20
245.841
 11
18.1315
 21
246.409
  0
LINE
  8
0
 10
18.1315
 20
246.409
 11
17.7951
 21
246.939
  0
LINE
  8
0
 10
17.7951
 20
246.939
 11
17.3948
 21
247.423
  0
LINE
  8
0
 10
17.3948
 20
247.423
 11
16.9371
 21
247.853
  0
LINE
  8
0
 10
16.9371
 20
247.853
 11
16.4291
 21
248.222
  0
LINE
  8
0
 10
16.4291
 20
248.222
 11
15.8789
 21
248.524
  0
LINE
  8
0
 10
15.8789
 20
248.524
 11
15.2951
 21
248.755
  0
LINE
  8
0
 10
15.2951
 20
248.755
 11
14.6869
 21
248.911
  0
LINE
  8
0
 10
14.6869
 20
248.911
 11
14.0639
 21
248.99
  0
LINE
  8
0
 10
14.0639
 20
248.99
 11
-14.0639
 21
248.99
  0
LINE
  8
0
 10
-14.0639
 20
248.99
 11
-14.6869
 21
248.911
  0
LINE
  8
0
 10
-14.6869
 20
248.911
 11
-15.2951
 21
248.755
  0
LINE
  8
0
 10
-15.2951
 20
248.755
 11
-15.8789
 21
248.524
  0
LINE
  8
0
 10
-15.8789
 20
248.524
 11
-16.4291
 21
248.222
  0
LINE
  8
0
 10
-16.4291
 20
248.222
 11
-16.9371
 21
247.853
  0
LINE
  8
0
 10
-16.9371
 20
247.853
 11
-17.3948
 21
247.423
  0
LINE
  8
0
 10
-17.3948
 20
247.423
 11
-17.7951
 21
246.939
  0
LINE
  8
0
 10
-17.7951
 20
246.939
 11
-18.1315
 21
246.409
  0
LINE
  8
0
 10
-18.1315
 20
246.409
 11
-18.3989
 21
245.841
  0
LINE
  8
0
 10
-18.3989
 20
245.841
 11
-18.5929
 21
245.243
  0
LINE
  8
0
 10
-18.5929
 20
245.243
 11
-18.7106
 21
244.627
  0
LINE
  8
0
 10
-18.7106
 20
244.627
 11
-18.75
 21
244
  0
LINE
  8
0
 10
-18.75
 20
244
 11
-18.75
 21
224
  0
LINE
  8
0
 10
-18.75
 20
224
 11
-18.7106
 21
223.373
  0
LINE
  8
0
 10
-18.7106
 20
223.373
 11
-18.5929
 21
222.757
  0
LINE
  8
0
 10
-18.5929
 20
222.757
 11
-18.3989
 21
222.159
  0
LINE
  8
0
 10
-18.3989
 20
222.159
 11
-18.1315
 21
221.591
  0
LINE
  8
0
 10
-18.1315
 20
221.591
 11
-17.7951
 21
221.061
  0
LINE
  8
0
 10
-17.7951
 20
221.061
 11
-17.3948
 21
220.577
  0
LINE
  8
0
 10
-17.3948
 20
220.577
 11
-16.9371
 21
220.147
  0
LINE
  8
0
 10
-16.9371
 20
220.147
 11
-16.4291
 21
219.778
  0
LINE
  8
0
 10
-16.4291
 20
219.778
 11
-15.8789
 21
219.476
  0
LINE
  8
0
 10
-15.8789
 20
219.476
 11
-15.2951
 21
219.245
  0
LINE
  8
0
 10
-15.2951
 20
219.245
 11
-14.6869
 21
219.089
  0
LINE
  8
0
 10
-14.6869
 20
219.089
 11
-14.0639
 21
219.01
  0
LINE
  8
0
 10
-14.0639
 20
219.01
 11
14.0639
 21
219.01
  0
LINE
  8
0
 10
14.0639
 20
219.01
 11
14.6869
 21
219.089
  0
LINE
  8
0
 10
-13.7982
 20
219.509
 11
-14.3901
 21
219.584
  0
LINE
  8
0
 10
-14.3901
 20
219.584
 11
-14.9678
 21
219.732
  0
LINE
  8
0
 10
-14.9678
 20
219.732
 11
-15.5224
 21
219.952
  0
LINE
  8
0
 10
-15.5224
 20
219.952
 11
-16.0452
 21
220.239
  0
LINE
  8
0
 10
-16.0452
 20
220.239
 11
-16.5278
 21
220.59
  0
LINE
  8
0
 10
-16.5278
 20
220.59
 11
-16.9626
 21
220.998
  0
LINE
  8
0
 10
-16.9626
 20
220.998
 11
-17.3428
 21
221.458
  0
LINE
  8
0
 10
-17.3428
 20
221.458
 11
-17.6624
 21
221.962
  0
LINE
  8
0
 10
-17.6624
 20
221.962
 11
-17.9164
 21
222.501
  0
LINE
  8
0
 10
-17.9164
 20
222.501
 11
-18.1008
 21
223.069
  0
LINE
  8
0
 10
-18.1008
 20
223.069
 11
-18.2125
 21
223.655
  0
LINE
  8
0
 10
-18.2125
 20
223.655
 11
-18.25
 21
224.25
  0
LINE
  8
0
 10
-18.25
 20
224.25
 11
-18.25
 21
243.75
  0
LINE
  8
0
 10
-18.25
 20
243.75
 11
-18.2125
 21
244.345
  0
LINE
  8
0
 10
-18.2125
 20
244.345
 11
-18.1008
 21
244.931
  0
LINE
  8
0
 10
-18.1008
 20
244.931
 11
-17.9164
 21
245.499
  0
LINE
  8
0
 10
-17.9164
 20
245.499
 11
-17.6624
 21
246.038
  0
LINE
  8
0
 10
-17.6624
 20
246.038
 11
-17.3428
 21
246.542
  0
LINE
  8
0
 10
-17.3428
 20
246.542
 11
-16.9626
 21
247.002
  0
LINE
  8
0
 10
-16.9626
 20
247.002
 11
-16.5278
 21
247.41
  0
LINE
  8
0
 10
-16.5278
 20
247.41
 11
-16.0452
 21
247.761
  0
LINE
  8
0
 10
-16.0452
 20
247.761
 11
-15.5224
 21
248.048
  0
LINE
  8
0
 10
-15.5224
 20
248.048
 11
-14.9678
 21
248.268
  0
LINE
  8
0
 10
-14.9678
 20
248.268
 11
-14.3901
 21
248.416
  0
LINE
  8
0
 10
-14.3901
 20
248.416
 11
-13.7982
 21
248.491
  0
LINE
  8
0
 10
-13.7982
 20
248.491
 11
13.7982
 21
248.491
  0
LINE
  8
0
 10
13.7982
 20
248.491
 11
14.3901
 21
248.416
  0
LINE
  8
0
 10
14.3901
 20
248.416
 11
14.9678
 21
248.268
  0
LINE
  8
0
 10
14.9678
 20
248.268
 11
15.5224
 21
248.048
  0
LINE
  8
0
 10
15.5224
 20
248.048
 11
16.0452
 21
247.761
  0
LINE
  8
0
 10
16.0452
 20
247.761
 11
16.5278
 21
247.41
  0
LINE
  8
0
 10
16.5278
 20
247.41
 11
16.9626
 21
247.002
  0
LINE
  8
0
 10
16.9626
 20
247.002
 11
17.3428
 21
246.542
  0
LINE
  8
0
 10
17.3428
 20
246.542
 11
17.6624
 21
246.038
  0
LINE
  8
0
 10
17.6624
 20
246.038
 11
17.9164
 21
245.499
  0
LINE
  8
0
 10
17.9164
 20
245.499
 11
18.1008
 21
244.931
  0
LINE
  8
0
 10
18.1008
 20
244.931
 11
18.2125
 21
244.345
  0
LINE
  8
0
 10
18.2125
 20
244.345
 11
18.25
 21
243.75
  0
LINE
  8
0
 10
18.25
 20
243.75
 11
18.25
 21
224.25
  0
LINE
  8
0
 10
18.25
 20
224.25
 11
18.2125
 21
223.655
  0
LINE
  8
0
 10
18.2125
 20
223.655
 11
18.1008
 21
223.069
  0
LINE
  8
0
 10
18.1008
 20
223.069
 11
17.9164
 21
222.501
  0
LINE
  8
0
 10
17.9164
 20
222.501
 11
17.6624
 21
221.962
  0
LINE
  8
0
 10
17.6624
 20
221.962
 11
17.3428
 21
221.458
  0
LINE
  8
0
 10
17.3428
 20
221.458
 11
16.9626
 21
220.998
  0
LINE
  8
0
 10
16.9626
 20
220.998
 11
16.5278
 21
220.59
  0
LINE
  8
0
 10
16.5278
 20
220.59
 11
16.0452
 21
220.239
  0
LINE
  8
0
 10
16.0452
 20
220.239
 11
15.5224
 21
219.952
  0
LINE
  8
0
 10
15.5224
 20
219.952
 11
14.9678
 21
219.732
  0
LINE
  8
0
 10
14.9678
 20
219.732
 11
14.3901
 21
219.584
  0
LINE
  8
0
 10
14.3901
 20
219.584
 11
13.7982
 21
219.509
  0
LINE
  8
0
 10
13.7982
 20
219.509
 11
-13.7982
 21
219.509
  0
LINE
  8
0
 10
14.6869
 20
180.089
 11
15.2951
 21
180.245
  0
LINE
  8
0
 10
15.2951
 20
180.245
 11
15.8789
 21
180.476
  0
LINE
  8
0
 10
15.8789
 20
180.476
 11
16.4291
 21
180.778
  0
LINE
  8
0
 10
16.4291
 20
180.778
 11
16.9371
 21
181.147
  0
LINE
  8
0
 10
16.9371
 20
181.147
 11
17.3948
 21
181.577
  0
LINE
  8
0
 10
17.3948
 20
181.577
 11
17.7951
 21
182.061
  0
LINE
  8
0
 10
17.7951
 20
182.061
 11
18.1315
 21
182.591
  0
LINE
  8
0
 10
18.1315
 20
182.591
 11
18.3989
 21
183.159
  0
LINE
  8
0
 10
18.3989
 20
183.159
 11
18.5929
 21
183.757
  0
LINE
  8
0
 10
18.5929
 20
183.757
 11
18.7106
 21
184.373
  0
LINE
  8
0
 10
18.7106
 20
184.373
 11
18.75
 21
185
  0
LINE
  8
0
 10
18.75
 20
185
 11
18.75
 21
205
  0
LINE
  8
0
 10
18.75
 20
205
 11
18.7106
 21
205.627
  0
LINE
  8
0
 10
18.7106
 20
205.627
 11
18.5929
 21
206.243
  0
LINE
  8
0
 10
18.5929
 20
206.243
 11
18.3989
 21
206.841
  0
LINE
  8
0
 10
18.3989
 20
206.841
 11
18.1315
 21
207.409
  0
LINE
  8
0
 10
18.1315
 20
207.409
 11
17.7951
 21
207.939
  0
LINE
  8
0
 10
17.7951
 20
207.939
 11
17.3948
 21
208.423
  0
LINE
  8
0
 10
17.3948
 20
208.423
 11
16.9371
 21
208.853
  0
LINE
  8
0
 10
16.9371
 20
208.853
 11
16.4291
 21
209.222
  0
LINE
  8
0
 10
16.4291
 20
209.222
 11
15.8789
 21
209.524
  0
LINE
  8
0
 10
15.8789
 20
209.524
 11
15.2951
 21
209.755
  0
LINE
  8
0
 10
15.2951
 20
209.755
 11
14.6869
 21
209.911
  0
LINE
  8
0
 10
14.6869
 20
209.911
 11
14.0639
 21
209.99
  0
LINE
  8
0
 10
14.0639
 20
209.99
 11
-14.0639
 21
209.99
  0
LINE
  8
0
 10
-14.0639
 20
209.99
 11
-14.6869
 21
209.911
  0
LINE
  8
0
 10
-14.6869
 20
209.911
 11
-15.2951
 21
209.755
  0
LINE
  8
0
 10
-15.2951
 20
209.755
 11
-15.8789
 21
209.524
  0
LINE
  8
0
 10
-15.8789
 20
209.524
 11
-16.4291
 21
209.222
  0
LINE
  8
0
 10
-16.4291
 20
209.222
 11
-16.9371
 21
208.853
  0
LINE
  8
0
 10
-16.9371
 20
208.853
 11
-17.3948
 21
208.423
  0
LINE
  8
0
 10
-17.3948
 20
208.423
 11
-17.7951
 21
207.939
  0
LINE
  8
0
 10
-17.7951
 20
207.939
 11
-18.1315
 21
207.409
  0
LINE
  8
0
 10
-18.1315
 20
207.409
 11
-18.3989
 21
206.841
  0
LINE
  8
0
 10
-18.3989
 20
206.841
 11
-18.5929
 21
206.243
  0
LINE
  8
0
 10
-18.5929
 20
206.243
 11
-18.7106
 21
205.627
  0
LINE
  8
0
 10
-18.7106
 20
205.627
 11
-18.75
 21
205
  0
LINE
  8
0
 10
-18.75
 20
205
 11
-18.75
 21
185
  0
LINE
  8
0
 10
-18.75
 20
185
 11
-18.7106
 21
184.373
  0
LINE
  8
0
 10
-18.7106
 20
184.373
 11
-18.5929
 21
183.757
  0
LINE
  8
0
 10
-18.5929
 20
183.757
 11
-18.3989
 21
183.159
  0
LINE
  8
0
 10
-18.3989
 20
183.159
 11
-18.1315
 21
182.591
  0
LINE
  8
0
 10
-18.1315
 20
182.591
 11
-17.7951
 21
182.061
  0
LINE
  8
0
 10
-17.7951
 20
182.061
 11
-17.3948
 21
181.577
  0
LINE
  8
0
 10
-17.3948
 20
181.577
 11
-16.9371
 21
181.147
  0
LINE
  8
0
 10
-16.9371
 20
181.147
 11
-16.4291
 21
180.778
  0
LINE
  8
0
 10
-16.4291
 20
180.778
 11
-15.8789
 21
180.476
  0
LINE
  8
0
 10
-15.8789
 20
180.476
 11
-15.2951
 21
180.245
  0
LINE
  8
0
 10
-15.2951
 20
180.245
 11
-14.6869
 21
180.089
  0
LINE
  8
0
 10
-14.6869
 20
180.089
 11
-14.0639
 21
180.01
  0
LINE
  8
0
 10
-14.0639
 20
180.01
 11
14.0639
 21
180.01
  0
LINE
  8
0
 10
14.0639
 20
180.01
 11
14.6869
 21
180.089
  0
LINE
  8
0
 10
-13.743
 20
181.388
 11
-14.2251
 21
181.449
  0
LINE
  8
0
 10
-14.2251
 20
181.449
 11
-14.6957
 21
181.57
  0
LINE
  8
0
 10
-14.6957
 20
181.57
 11
-15.1475
 21
181.749
  0
LINE
  8
0
 10
-15.1475
 20
181.749
 11
-15.5734
 21
181.983
  0
LINE
  8
0
 10
-15.5734
 20
181.983
 11
-15.9665
 21
182.269
  0
LINE
  8
0
 10
-15.9665
 20
182.269
 11
-16.3207
 21
182.601
  0
LINE
  8
0
 10
-16.3207
 20
182.601
 11
-16.6305
 21
182.976
  0
LINE
  8
0
 10
-16.6305
 20
182.976
 11
-16.8908
 21
183.386
  0
LINE
  8
0
 10
-16.8908
 20
183.386
 11
-17.0977
 21
183.826
  0
LINE
  8
0
 10
-17.0977
 20
183.826
 11
-17.2479
 21
184.288
  0
LINE
  8
0
 10
-17.2479
 20
184.288
 11
-17.339
 21
184.765
  0
LINE
  8
0
 10
-17.339
 20
184.765
 11
-17.3695
 21
185.25
  0
LINE
  8
0
 10
-17.3695
 20
185.25
 11
-17.3695
 21
204.75
  0
LINE
  8
0
 10
-17.3695
 20
204.75
 11
-17.339
 21
205.235
  0
LINE
  8
0
 10
-17.339
 20
205.235
 11
-17.2479
 21
205.712
  0
LINE
  8
0
 10
-17.2479
 20
205.712
 11
-17.0977
 21
206.174
  0
LINE
  8
0
 10
-17.0977
 20
206.174
 11
-16.8908
 21
206.614
  0
LINE
  8
0
 10
-16.8908
 20
206.614
 11
-16.6305
 21
207.024
  0
LINE
  8
0
 10
-16.6305
 20
207.024
 11
-16.3207
 21
207.399
  0
LINE
  8
0
 10
-16.3207
 20
207.399
 11
-15.9665
 21
207.731
  0
LINE
  8
0
 10
-15.9665
 20
207.731
 11
-15.5734
 21
208.017
  0
LINE
  8
0
 10
-15.5734
 20
208.017
 11
-15.1475
 21
208.251
  0
LINE
  8
0
 10
-15.1475
 20
208.251
 11
-14.6957
 21
208.43
  0
LINE
  8
0
 10
-14.6957
 20
208.43
 11
-14.2251
 21
208.551
  0
LINE
  8
0
 10
-14.2251
 20
208.551
 11
-13.743
 21
208.612
  0
LINE
  8
0
 10
-13.743
 20
208.612
 11
13.743
 21
208.612
  0
LINE
  8
0
 10
13.743
 20
208.612
 11
14.2251
 21
208.551
  0
LINE
  8
0
 10
14.2251
 20
208.551
 11
14.6957
 21
208.43
  0
LINE
  8
0
 10
14.6957
 20
208.43
 11
15.1475
 21
208.251
  0
LINE
  8
0
 10
15.1475
 20
208.251
 11
15.5734
 21
208.017
  0
LINE
  8
0
 10
15.5734
 20
208.017
 11
15.9665
 21
207.731
  0
LINE
  8
0
 10
15.9665
 20
207.731
 11
16.3207
 21
207.399
  0
LINE
  8
0
 10
16.3207
 20
207.399
 11
16.6305
 21
207.024
  0
LINE
  8
0
 10
16.6305
 20
207.024
 11
16.8908
 21
206.614
  0
LINE
  8
0
 10
16.8908
 20
206.614
 11
17.0977
 21
206.174
  0
LINE
  8
0
 10
17.0977
 20
206.174
 11
17.2479
 21
205.712
  0
LINE
  8
0
 10
17.2479
 20
205.712
 11
17.339
 21
205.235
  0
LINE
  8
0
 10
17.339
 20
205.235
 11
17.3695
 21
204.75
  0
LINE
  8
0
 10
17.3695
 20
204.75
 11
17.3695
 21
185.25
  0
LINE
  8
0
 10
17.3695
 20
185.25
 11
17.339
 21
184.765
  0
LINE
  8
0
 10
17.339
 20
184.765
 11
17.2479
 21
184.288
  0
LINE
  8
0
 10
17.2479
 20
184.288
 11
17.0977
 21
183.826
  0
LINE
  8
0
 10
17.0977
 20
183.826
 11
16.8908
 21
183.386
  0
LINE
  8
0
 10
16.8908
 20
183.386
 11
16.6305
 21
182.976
  0
LINE
  8
0
 10
16.6305
 20
182.976
 11
16.3207
 21
182.601
  0
LINE
  8
0
 10
16.3207
 20
182.601
 11
15.9665
 21
182.269
  0
LINE
  8
0
 10
15.9665
 20
182.269
 11
15.5734
 21
181.983
  0
LINE
  8
0
 10
15.5734
 20
181.983
 11
15.1475
 21
181.749
  0
LINE
  8
0
 10
15.1475
 20
181.749
 11
14.6957
 21
181.57
  0
LINE
  8
0
 10
14.6957
 20
181.57
 11
14.2251
 21
181.449
  0
LINE
  8
0
 10
14.2251
 20
181.449
 11
13.743
 21
181.388
  0
LINE
  8
0
 10
13.743
 20
181.388
 11
-13.743
 21
181.388
  0
LINE
  8
0
 10
14.6869
 20
141.089
 11
15.2951
 21
141.245
  0
LINE
  8
0
 10
15.2951
 20
141.245
 11
15.8789
 21
141.476
  0
LINE
  8
0
 10
15.8789
 20
141.476
 11
16.4291
 21
141.778
  0
LINE
  8
0
 10
16.4291
 20
141.778
 11
16.9371
 21
142.147
  0
LINE
  8
0
 10
16.9371
 20
142.147
 11
17.3948
 21
142.577
  0
LINE
  8
0
 10
17.3948
 20
142.577
 11
17.7951
 21
143.061
  0
LINE
  8
0
 10
17.7951
 20
143.061
 11
18.1315
 21
143.591
  0
LINE
  8
0
 10
18.1315
 20
143.591
 11
18.3989
 21
144.159
  0
LINE
  8
0
 10
18.3989
 20
144.159
 11
18.5929
 21
144.757
  0
LINE
  8
0
 10
18.5929
 20
144.757
 11
18.7106
 21
145.373
  0
LINE
  8
0
 10
18.7106
 20
145.373
 11
18.75
 21
146
  0
LINE
  8
0
 10
18.75
 20
146
 11
18.75
 21
166
  0
LINE
  8
0
 10
18.75
 20
166
 11
18.7106
 21
166.627
  0
LINE
  8
0
 10
18.7106
 20
166.627
 11
18.5929
 21
167.243
  0
LINE
  8
0
 10
18.5929
 20
167.243
 11
18.3989
 21
167.841
  0
LINE
  8
0
 10
18.3989
 20
167.841
 11
18.1315
 21
168.409
  0
LINE
  8
0
 10
18.1315
 20
168.409
 11
17.7951
 21
168.939
  0
LINE
  8
0
 10
17.7951
 20
168.939
 11
17.3948
 21
169.423
  0
LINE
  8
0
 10
17.3948
 20
169.423
 11
16.9371
 21
169.853
  0
LINE
  8
0
 10
16.9371
 20
169.853
 11
16.4291
 21
170.222
  0
LINE
  8
0
 10
16.4291
 20
170.222
 11
15.8789
 21
170.524
  0
LINE
  8
0
 10
15.8789
 20
170.524
 11
15.2951
 21
170.755
  0
LINE
  8
0
 10
15.2951
 20
170.755
 11
14.6869
 21
170.911
  0
LINE
  8
0
 10
14.6869
 20
170.911
 11
14.0639
 21
170.99
  0
LINE
  8
0
 10
14.0639
 20
170.99
 11
-14.0639
 21
170.99
  0
LINE
  8
0
 10
-14.0639
 20
170.99
 11
-14.6869
 21
170.911
  0
LINE
  8
0
 10
-14.6869
 20
170.911
 11
-15.2951
 21
170.755
  0
LINE
  8
0
 10
-15.2951
 20
170.755
 11
-15.8789
 21
170.524
  0
LINE
  8
0
 10
-15.8789
 20
170.524
 11
-16.4291
 21
170.222
  0
LINE
  8
0
 10
-16.4291
 20
170.222
 11
-16.9371
 21
169.853
  0
LINE
  8
0
 10
-16.9371
 20
169.853
 11
-17.3948
 21
169.423
  0
LINE
  8
0
 10
-17.3948
 20
169.423
 11
-17.7951
 21
168.939
  0
LINE
  8
0
 10
-17.7951
 20
168.939
 11
-18.1315
 21
168.409
  0
LINE
  8
0
 10
-18.1315
 20
168.409
 11
-18.3989
 21
167.841
  0
LINE
  8
0
 10
-18.3989
 20
167.841
 11
-18.5929
 21
167.243
  0
LINE
  8
0
 10
-18.5929
 20
167.243
 11
-18.7106
 21
166.627
  0
LINE
  8
0
 10
-18.7106
 20
166.627
 11
-18.75
 21
166
  0
LINE
  8
0
 10
-18.75
 20
166
 11
-18.75
 21
146
  0
LINE
  8
0
 10
-18.75
 20
146
 11
-18.7106
 21
145.373
  0
LINE
  8
0
 10
-18.7106
 20
145.373
 11
-18.5929
 21
144.757
  0
LINE
  8
0
 10
-18.5929
 20
144.757
 11
-18.3989
 21
144.159
  0
LINE
  8
0
 10
-18.3989
 20
144.159
 11
-18.1315
 21
143.591
  0
LINE
  8
0
 10
-18.1315
 20
143.591
 11
-17.7951
 21
143.061
  0
LINE
  8
0
 10
-17.7951
 20
143.061
 11
-17.3948
 21
142.577
  0
LINE
  8
0
 10
-17.3948
 20
142.577
 11
-16.9371
 21
142.147
  0
LINE
  8
0
 10
-16.9371
 20
142.147
 11
-16.4291
 21
141.778
  0
LINE
  8
0
 10
-16.4291
 20
141.778
 11
-15.8789
 21
141.476
  0
LINE
  8
0
 10
-15.8789
 20
141.476
 11
-15.2951
 21
141.245
  0
LINE
  8
0
 10
-15.2951
 20
141.245
 11
-14.6869
 21
141.089
  0
LINE
  8
0
 10
-14.6869
 20
141.089
 11
-14.0639
 21
141.01
  0
LINE
  8
0
 10
-14.0639
 20
141.01
 11
14.0639
 21
141.01
  0
LINE
  8
0
 10
14.0639
 20
141.01
 11
14.6869
 21
141.089
  0
LINE
  8
0
 10
11.1558
 20
162.003
 11
10.9689
 21
162.027
  0
LINE
  8
0
 10
10.9689
 20
162.027
 11
10.7865
 21
162.073
  0
LINE
  8
0
 10
10.7865
 20
162.073
 11
10.6113
 21
162.143
  0
LINE
  8
0
 10
10.6113
 20
162.143
 11
10.4463
 21
162.234
  0
LINE
  8
0
 10
10.4463
 20
162.234
 11
10.2939
 21
162.344
  0
LINE
  8
0
 10
10.2939
 20
162.344
 11
10.1565
 21
162.473
  0
LINE
  8
0
 10
10.1565
 20
162.473
 11
10.0365
 21
162.618
  0
LINE
  8
0
 10
10.0365
 20
162.618
 11
9.93553
 21
162.777
  0
LINE
  8
0
 10
9.93553
 20
162.777
 11
9.85533
 21
162.948
  0
LINE
  8
0
 10
9.85533
 20
162.948
 11
9.79712
 21
163.127
  0
LINE
  8
0
 10
9.79712
 20
163.127
 11
9.76183
 21
163.312
  0
LINE
  8
0
 10
9.76183
 20
163.312
 11
9.75
 21
163.5
  0
LINE
  8
0
 10
9.75
 20
163.5
 11
9.76183
 21
163.688
  0
LINE
  8
0
 10
9.76183
 20
163.688
 11
9.79712
 21
163.873
  0
LINE
  8
0
 10
9.79712
 20
163.873
 11
9.85533
 21
164.052
  0
LINE
  8
0
 10
9.85533
 20
164.052
 11
9.93553
 21
164.223
  0
LINE
  8
0
 10
9.93553
 20
164.223
 11
10.0365
 21
164.382
  0
LINE
  8
0
 10
10.0365
 20
164.382
 11
10.1565
 21
164.527
  0
LINE
  8
0
 10
10.1565
 20
164.527
 11
10.2939
 21
164.656
  0
LINE
  8
0
 10
10.2939
 20
164.656
 11
10.4463
 21
164.766
  0
LINE
  8
0
 10
10.4463
 20
164.766
 11
10.6113
 21
164.857
  0
LINE
  8
0
 10
10.6113
 20
164.857
 11
10.7865
 21
164.927
  0
LINE
  8
0
 10
10.7865
 20
164.927
 11
10.9689
 21
164.973
  0
LINE
  8
0
 10
10.9689
 20
164.973
 11
11.1558
 21
164.997
  0
LINE
  8
0
 10
11.1558
 20
164.997
 11
11.3442
 21
164.997
  0
LINE
  8
0
 10
11.3442
 20
164.997
 11
11.5311
 21
164.973
  0
LINE
  8
0
 10
11.5311
 20
164.973
 11
11.7135
 21
164.927
  0
LINE
  8
0
 10
11.7135
 20
164.927
 11
11.8887
 21
164.857
  0
LINE
  8
0
 10
11.8887
 20
164.857
 11
12.0537
 21
164.766
  0
LINE
  8
0
 10
12.0537
 20
164.766
 11
12.2061
 21
164.656
  0
LINE
  8
0
 10
12.2061
 20
164.656
 11
12.3434
 21
164.527
  0
LINE
  8
0
 10
12.3434
 20
164.527
 11
12.4635
 21
164.382
  0
LINE
  8
0
 10
12.4635
 20
164.382
 11
12.5645
 21
164.223
  0
LINE
  8
0
 10
12.5645
 20
164.223
 11
12.6447
 21
164.052
  0
LINE
  8
0
 10
12.6447
 20
164.052
 11
12.7029
 21
163.873
  0
LINE
  8
0
 10
12.7029
 20
163.873
 11
12.7382
 21
163.688
  0
LINE
  8
0
 10
12.7382
 20
163.688
 11
12.75
 21
163.5
  0
LINE
  8
0
 10
12.75
 20
163.5
 11
12.7382
 21
163.312
  0
LINE
  8
0
 10
12.7382
 20
163.312
 11
12.7029
 21
163.127
  0
LINE
  8
0
 10
12.7029
 20
163.127
 11
12.6447
 21
162.948
  0
LINE
  8
0
 10
12.6447
 20
162.948
 11
12.5645
 21
162.777
  0
LINE
  8
0
 10
12.5645
 20
162.777
 11
12.4635
 21
162.618
  0
LINE
  8
0
 10
12.4635
 20
162.618
 11
12.3434
 21
162.473
  0
LINE
  8
0
 10
12.3434
 20
162.473
 11
12.2061
 21
162.344
  0
LINE
  8
0
 10
12.2061
 20
162.344
 11
12.0537
 21
162.234
  0
LINE
  8
0
 10
12.0537
 20
162.234
 11
11.8887
 21
162.143
  0
LINE
  8
0
 10
11.8887
 20
162.143
 11
11.7135
 21
162.073
  0
LINE
  8
0
 10
11.7135
 20
162.073
 11
11.5311
 21
162.027
  0
LINE
  8
0
 10
11.5311
 20
162.027
 11
11.3442
 21
162.003
  0
LINE
  8
0
 10
11.3442
 20
162.003
 11
11.1558
 21
162.003
  0
LINE
  8
0
 10
-11.3442
 20
162.003
 11
-11.5311
 21
162.027
  0
LINE
  8
0
 10
-11.5311
 20
162.027
 11
-11.7135
 21
162.073
  0
LINE
  8
0
 10
-11.7135
 20
162.073
 11
-11.8887
 21
162.143
  0
LINE
  8
0
 10
-11.8887
 20
162.143
 11
-12.0537
 21
162.234
  0
LINE
  8
0
 10
-12.0537
 20
162.234
 11
-12.2061
 21
162.344
  0
LINE
  8
0
 10
-12.2061
 20
162.344
 11
-12.3434
 21
162.473
  0
LINE
  8
0
 10
-12.3434
 20
162.473
 11
-12.4635
 21
162.618
  0
LINE
  8
0
 10
-12.4635
 20
162.618
 11
-12.5645
 21
162.777
  0
LINE
  8
0
 10
-12.5645
 20
162.777
 11
-12.6447
 21
162.948
  0
LINE
  8
0
 10
-12.6447
 20
162.948
 11
-12.7029
 21
163.127
  0
LINE
  8
0
 10
-12.7029
 20
163.127
 11
-12.7382
 21
163.312
  0
LINE
  8
0
 10
-12.7382
 20
163.312
 11
-12.75
 21
163.5
  0
LINE
  8
0
 10
-12.75
 20
163.5
 11
-12.7382
 21
163.688
  0
LINE
  8
0
 10
-12.7382
 20
163.688
 11
-12.7029
 21
163.873
  0
LINE
  8
0
 10
-12.7029
 20
163.873
 11
-12.6447
 21
164.052
  0
LINE
  8
0
 10
-12.6447
 20
164.052
 11
-12.5645
 21
164.223
  0
LINE
  8
0
 10
-12.5645
 20
164.223
 11
-12.4635
 21
164.382
  0
LINE
  8
0
 10
-12.4635
 20
164.382
 11
-12.3434
 21
164.527
  0
LINE
  8
0
 10
-12.3434
 20
164.527
 11
-12.2061
 21
164.656
  0
LINE
  8
0
 10
-12.2061
 20
164.656
 11
-12.0537
 21
164.766
  0
LINE
  8
0
 10
-12.0537
 20
164.766
 11
-11.8887
 21
164.857
  0
LINE
  8
0
 10
-11.8887
 20
164.857
 11
-11.7135
 21
164.927
  0
LINE
  8
0
 10
-11.7135
 20
164.927
 11
-11.5311
 21
164.973
  0
LINE
  8
0
 10
-11.5311
 20
164.973
 11
-11.3442
 21
164.997
  0
LINE
  8
0
 10
-11.3442
 20
164.997
 11
-11.1558
 21
164.997
  0
LINE
  8
0
 10
-11.1558
 20
164.997
 11
-10.9689
 21
164.973
  0
LINE
  8
0
 10
-10.9689
 20
164.973
 11
-10.7865
 21
164.927
  0
LINE
  8
0
 10
-10.7865
 20
164.927
 11
-10.6113
 21
164.857
  0
LINE
  8
0
 10
-10.6113
 20
164.857
 11
-10.4463
 21
164.766
  0
LINE
  8
0
 10
-10.4463
 20
164.766
 11
-10.2939
 21
164.656
  0
LINE
  8
0
 10
-10.2939
 20
164.656
 11
-10.1565
 21
164.527
  0
LINE
  8
0
 10
-10.1565
 20
164.527
 11
-10.0365
 21
164.382
  0
LINE
  8
0
 10
-10.0365
 20
164.382
 11
-9.93553
 21
164.223
  0
LINE
  8
0
 10
-9.93553
 20
164.223
 11
-9.85533
 21
164.052
  0
LINE
  8
0
 10
-9.85533
 20
164.052
 11
-9.79712
 21
163.873
  0
LINE
  8
0
 10
-9.79712
 20
163.873
 11
-9.76183
 21
163.688
  0
LINE
  8
0
 10
-9.76183
 20
163.688
 11
-9.75
 21
163.5
  0
LINE
  8
0
 10
-9.75
 20
163.5
 11
-9.76183
 21
163.312
  0
LINE
  8
0
 10
-9.76183
 20
163.312
 11
-9.79712
 21
163.127
  0
LINE
  8
0
 10
-9.79712
 20
163.127
 11
-9.85533
 21
162.948
  0
LINE
  8
0
 10
-9.85533
 20
162.948
 11
-9.93553
 21
162.777
  0
LINE
  8
0
 10
-9.93553
 20
162.777
 11
-10.0365
 21
162.618
  0
LINE
  8
0
 10
-10.0365
 20
162.618
 11
-10.1565
 21
162.473
  0
LINE
  8
0
 10
-10.1565
 20
162.473
 11
-10.2939
 21
162.344
  0
LINE
  8
0
 10
-10.2939
 20
162.344
 11
-10.4463
 21
162.234
  0
LINE
  8
0
 10
-10.4463
 20
162.234
 11
-10.6113
 21
162.143
  0
LINE
  8
0
 10
-10.6113
 20
162.143
 11
-10.7865
 21
162.073
  0
LINE
  8
0
 10
-10.7865
 20
162.073
 11
-10.9689
 21
162.027
  0
LINE
  8
0
 10
-10.9689
 20
162.027
 11
-11.1558
 21
162.003
  0
LINE
  8
0
 10
-11.1558
 20
162.003
 11
-11.3442
 21
162.003
  0
LINE
  8
0
 10
11.1558
 20
147.003
 11
10.9689
 21
147.027
  0
LINE
  8
0
 10
10.9689
 20
147.027
 11
10.7865
 21
147.073
  0
LINE
  8
0
 10
10.7865
 20
147.073
 11
10.6113
 21
147.143
  0
LINE
  8
0
 10
10.6113
 20
147.143
 11
10.4463
 21
147.234
  0
LINE
  8
0
 10
10.4463
 20
147.234
 11
10.2939
 21
147.344
  0
LINE
  8
0
 10
10.2939
 20
147.344
 11
10.1565
 21
147.473
  0
LINE
  8
0
 10
10.1565
 20
147.473
 11
10.0365
 21
147.618
  0
LINE
  8
0
 10
10.0365
 20
147.618
 11
9.93553
 21
147.777
  0
LINE
  8
0
 10
9.93553
 20
147.777
 11
9.85533
 21
147.948
  0
LINE
  8
0
 10
9.85533
 20
147.948
 11
9.79712
 21
148.127
  0
LINE
  8
0
 10
9.79712
 20
148.127
 11
9.76183
 21
148.312
  0
LINE
  8
0
 10
9.76183
 20
148.312
 11
9.75
 21
148.5
  0
LINE
  8
0
 10
9.75
 20
148.5
 11
9.76183
 21
148.688
  0
LINE
  8
0
 10
9.76183
 20
148.688
 11
9.79712
 21
148.873
  0
LINE
  8
0
 10
9.79712
 20
148.873
 11
9.85533
 21
149.052
  0
LINE
  8
0
 10
9.85533
 20
149.052
 11
9.93553
 21
149.223
  0
LINE
  8
0
 10
9.93553
 20
149.223
 11
10.0365
 21
149.382
  0
LINE
  8
0
 10
10.0365
 20
149.382
 11
10.1565
 21
149.527
  0
LINE
  8
0
 10
10.1565
 20
149.527
 11
10.2939
 21
149.656
  0
LINE
  8
0
 10
10.2939
 20
149.656
 11
10.4463
 21
149.766
  0
LINE
  8
0
 10
10.4463
 20
149.766
 11
10.6113
 21
149.857
  0
LINE
  8
0
 10
10.6113
 20
149.857
 11
10.7865
 21
149.927
  0
LINE
  8
0
 10
10.7865
 20
149.927
 11
10.9689
 21
149.973
  0
LINE
  8
0
 10
10.9689
 20
149.973
 11
11.1558
 21
149.997
  0
LINE
  8
0
 10
11.1558
 20
149.997
 11
11.3442
 21
149.997
  0
LINE
  8
0
 10
11.3442
 20
149.997
 11
11.5311
 21
149.973
  0
LINE
  8
0
 10
11.5311
 20
149.973
 11
11.7135
 21
149.927
  0
LINE
  8
0
 10
11.7135
 20
149.927
 11
11.8887
 21
149.857
  0
LINE
  8
0
 10
11.8887
 20
149.857
 11
12.0537
 21
149.766
  0
LINE
  8
0
 10
12.0537
 20
149.766
 11
12.2061
 21
149.656
  0
LINE
  8
0
 10
12.2061
 20
149.656
 11
12.3434
 21
149.527
  0
LINE
  8
0
 10
12.3434
 20
149.527
 11
12.4635
 21
149.382
  0
LINE
  8
0
 10
12.4635
 20
149.382
 11
12.5645
 21
149.223
  0
LINE
  8
0
 10
12.5645
 20
149.223
 11
12.6447
 21
149.052
  0
LINE
  8
0
 10
12.6447
 20
149.052
 11
12.7029
 21
148.873
  0
LINE
  8
0
 10
12.7029
 20
148.873
 11
12.7382
 21
148.688
  0
LINE
  8
0
 10
12.7382
 20
148.688
 11
12.75
 21
148.5
  0
LINE
  8
0
 10
12.75
 20
148.5
 11
12.7382
 21
148.312
  0
LINE
  8
0
 10
12.7382
 20
148.312
 11
12.7029
 21
148.127
  0
LINE
  8
0
 10
12.7029
 20
148.127
 11
12.6447
 21
147.948
  0
LINE
  8
0
 10
12.6447
 20
147.948
 11
12.5645
 21
147.777
  0
LINE
  8
0
 10
12.5645
 20
147.777
 11
12.4635
 21
147.618
  0
LINE
  8
0
 10
12.4635
 20
147.618
 11
12.3434
 21
147.473
  0
LINE
  8
0
 10
12.3434
 20
147.473
 11
12.2061
 21
147.344
  0
LINE
  8
0
 10
12.2061
 20
147.344
 11
12.0537
 21
147.234
  0
LINE
  8
0
 10
12.0537
 20
147.234
 11
11.8887
 21
147.143
  0
LINE
  8
0
 10
11.8887
 20
147.143
 11
11.7135
 21
147.073
  0
LINE
  8
0
 10
11.7135
 20
147.073
 11
11.5311
 21
147.027
  0
LINE
  8
0
 10
11.5311
 20
147.027
 11
11.3442
 21
147.003
  0
LINE
  8
0
 10
11.3442
 20
147.003
 11
11.1558
 21
147.003
  0
LINE
  8
0
 10
-11.3442
 20
147.003
 11
-11.5311
 21
147.027
  0
LINE
  8
0
 10
-11.5311
 20
147.027
 11
-11.7135
 21
147.073
  0
LINE
  8
0
 10
-11.7135
 20
147.073
 11
-11.8887
 21
147.143
  0
LINE
  8
0
 10
-11.8887
 20
147.143
 11
-12.0537
 21
147.234
  0
LINE
  8
0
 10
-12.0537
 20
147.234
 11
-12.2061
 21
147.344
  0
LINE
  8
0
 10
-12.2061
 20
147.344
 11
-12.3434
 21
147.473
  0
LINE
  8
0
 10
-12.3434
 20
147.473
 11
-12.4635
 21
147.618
  0
LINE
  8
0
 10
-12.4635
 20
147.618
 11
-12.5645
 21
147.777
  0
LINE
  8
0
 10
-12.5645
 20
147.777
 11
-12.6447
 21
147.948
  0
LINE
  8
0
 10
-12.6447
 20
147.948
 11
-12.7029
 21
148.127
  0
LINE
  8
0
 10
-12.7029
 20
148.127
 11
-12.7382
 21
148.312
  0
LINE
  8
0
 10
-12.7382
 20
148.312
 11
-12.75
 21
148.5
  0
LINE
  8
0
 10
-12.75
 20
148.5
 11
-12.7382
 21
148.688
  0
LINE
  8
0
 10
-12.7382
 20
148.688
 11
-12.7029
 21
148.873
  0
LINE
  8
0
 10
-12.7029
 20
148.873
 11
-12.6447
 21
149.052
  0
LINE
  8
0
 10
-12.6447
 20
149.052
 11
-12.5645
 21
149.223
  0
LINE
  8
0
 10
-12.5645
 20
149.223
 11
-12.4635
 21
149.382
  0
LINE
  8
0
 10
-12.4635
 20
149.382
 11
-12.3434
 21
149.527
  0
LINE
  8
0
 10
-12.3434
 20
149.527
 11
-12.2061
 21
149.656
  0
LINE
  8
0
 10
-12.2061
 20
149.656
 11
-12.0537
 21
149.766
  0
LINE
  8
0
 10
-12.0537
 20
149.766
 11
-11.8887
 21
149.857
  0
LINE
  8
0
 10
-11.8887
 20
149.857
 11
-11.7135
 21
149.927
  0
LINE
  8
0
 10
-11.7135
 20
149.927
 11
-11.5311
 21
149.973
  0
LINE
  8
0
 10
-11.5311
 20
149.973
 11
-11.3442
 21
149.997
  0
LINE
  8
0
 10
-11.3442
 20
149.997
 11
-11.1558
 21
149.997
  0
LINE
  8
0
 10
-11.1558
 20
149.997
 11
-10.9689
 21
149.973
  0
LINE
  8
0
 10
-10.9689
 20
149.973
 11
-10.7865
 21
149.927
  0
LINE
  8
0
 10
-10.7865
 20
149.927
 11
-10.6113
 21
149.857
  0
LINE
  8
0
 10
-10.6113
 20
149.857
 11
-10.4463
 21
149.766
  0
LINE
  8
0
 10
-10.4463
 20
149.766
 11
-10.2939
 21
149.656
  0
LINE
  8
0
 10
-10.2939
 20
149.656
 11
-10.1565
 21
149.527
  0
LINE
  8
0
 10
-10.1565
 20
149.527
 11
-10.0365
 21
149.382
  0
LINE
  8
0
 10
-10.0365
 20
149.382
 11
-9.93553
 21
149.223
  0
LINE
  8
0
 10
-9.93553
 20
149.223
 11
-9.85533
 21
149.052
  0
LINE
  8
0
 10
-9.85533
 20
149.052
 11
-9.79712
 21
148.873
  0
LINE
  8
0
 10
-9.79712
 20
148.873
 11
-9.76183
 21
148.688
  0
LINE
  8
0
 10
-9.76183
 20
148.688
 11
-9.75
 21
148.5
  0
LINE
  8
0
 10
-9.75
 20
148.5
 11
-9.76183
 21
148.312
  0
LINE
  8
0
 10
-9.76183
 20
148.312
 11
-9.79712
 21
148.127
  0
LINE
  8
0
 10
-9.79712
 20
148.127
 11
-9.85533
 21
147.948
  0
LINE
  8
0
 10
-9.85533
 20
147.948
 11
-9.93553
 21
147.777
  0
LINE
  8
0
 10
-9.93553
 20
147.777
 11
-10.0365
 21
147.618
  0
LINE
  8
0
 10
-10.0365
 20
147.618
 11
-10.1565
 21
147.473
  0
LINE
  8
0
 10
-10.1565
 20
147.473
 11
-10.2939
 21
147.344
  0
LINE
  8
0
 10
-10.2939
 20
147.344
 11
-10.4463
 21
147.234
  0
LINE
  8
0
 10
-10.4463
 20
147.234
 11
-10.6113
 21
147.143
  0
LINE
  8
0
 10
-10.6113
 20
147.143
 11
-10.7865
 21
147.073
  0
LINE
  8
0
 10
-10.7865
 20
147.073
 11
-10.9689
 21
147.027
  0
LINE
  8
0
 10
-10.9689
 20
147.027
 11
-11.1558
 21
147.003
  0
LINE
  8
0
 10
-11.1558
 20
147.003
 11
-11.3442
 21
147.003
  0
ENDSEC
  0
SECTION
  2
OBJECTS
  0
DICTIONARY
  0
ENDSEC
  0
EOF
