<?xml version="1.0" standalone="no"?>
<!DOCTYPE svg PUBLIC "-//W3C//DTD SVG 1.1//EN" "http://www.w3.org/Graphics/SVG/1.1/DTD/svg11.dtd">
<svg width="38mm" height="198mm" viewBox="-19 -375 38 198" xmlns="http://www.w3.org/2000/svg" version="1.1">
<title>OpenSCAD Model</title>
<path d="
M 14.6869,-315.089 L 15.2951,-315.245 L 15.8789,-315.476 L 16.4291,-315.778 L 16.9371,-316.147 L 17.3948,-316.577
 L 17.7951,-317.061 L 18.1315,-317.591 L 18.3989,-318.159 L 18.5929,-318.757 L 18.7106,-319.373 L 18.75,-320
 L 18.75,-370 L 18.7106,-370.627 L 18.5929,-371.243 L 18.3989,-371.841 L 18.1315,-372.409 L 17.7951,-372.939
 L 17.3948,-373.423 L 16.9371,-373.853 L 16.4291,-374.222 L 15.8789,-374.524 L 15.2951,-374.755 L 14.6869,-374.911
 L 14.0639,-374.99 L -14.0639,-374.99 L -14.6869,-374.911 L -15.2951,-374.755 L -15.8789,-374.524 L -16.4291,-374.222
 L -16.9371,-373.853 L -17.3948,-373.423 L -17.7951,-372.939 L -18.1315,-372.409 L -18.3989,-371.841 L -18.5929,-371.243
 L -18.7106,-370.627 L -18.75,-370 L -18.75,-320 L -18.7106,-319.373 L -18.5929,-318.757 L -18.3989,-318.159
 L -18.1315,-317.591 L -17.7951,-317.061 L -17.3948,-316.577 L -16.9371,-316.147 L -16.4291,-315.778 L -15.8789,-315.476
 L -15.2951,-315.245 L -14.6869,-315.089 L -14.0639,-315.01 L 14.0639,-315.01 z
M -8.56104,-315.509 L -8.07086,-315.778 L -7.56287,-316.147 L -7.10515,-316.577 L -6.70491,-317.061 L -6.36845,-317.591
 L -6.1011,-318.159 L -5.90707,-318.757 L -5.78941,-319.373 L -5.75,-320 L -5.75,-323 L -5.78941,-323.627
 L -5.90707,-324.243 L -6.1011,-324.841 L -6.36845,-325.409 L -6.70491,-325.939 L -7.10515,-326.423 L -7.56287,-326.853
 L -8.07086,-327.222 L -8.62109,-327.524 L -9.20491,-327.755 L -9.81308,-327.911 L -10.436,-327.99 L -14.0639,-327.99
 L -14.6869,-327.911 L -15.2951,-327.755 L -15.8789,-327.524 L -16.4291,-327.222 L -16.9371,-326.853 L -17.3948,-326.423
 L -17.7951,-325.939 L -18.1315,-325.409 L -18.25,-325.157 L -18.25,-370 L -18.2145,-370.564 L -18.1086,-371.119
 L -17.934,-371.657 L -17.6934,-372.168 L -17.3906,-372.645 L -17.0303,-373.08 L -16.6184,-373.467 L -16.1612,-373.799
 L -15.666,-374.072 L -15.1406,-374.28 L -14.5932,-374.42 L -14.0325,-374.491 L 14.0325,-374.491 L 14.5932,-374.42
 L 15.1406,-374.28 L 15.666,-374.072 L 16.1612,-373.799 L 16.6184,-373.467 L 17.0303,-373.08 L 17.3906,-372.645
 L 17.6934,-372.168 L 17.934,-371.657 L 18.1086,-371.119 L 18.2145,-370.564 L 18.25,-370 L 18.25,-320
 L 18.2145,-319.436 L 18.1086,-318.881 L 17.934,-318.343 L 17.6934,-317.832 L 17.3906,-317.355 L 17.0303,-316.92
 L 16.6184,-316.533 L 16.1612,-316.201 L 15.666,-315.928 L 15.1406,-315.72 L 14.5932,-315.58 L 14.0325,-315.509
 z
M 11.7184,-365.044 L 12.0225,-365.122 L 12.3144,-365.238 L 12.5896,-365.389 L 12.8436,-365.574 L 13.0724,-365.789
 L 13.2725,-366.031 L 13.4408,-366.296 L 13.5744,-366.58 L 13.6714,-366.878 L 13.7303,-367.187 L 13.75,-367.5
 L 13.7303,-367.813 L 13.6714,-368.122 L 13.5744,-368.42 L 13.4408,-368.704 L 13.2725,-368.969 L 13.0724,-369.211
 L 12.8436,-369.426 L 12.5896,-369.611 L 12.3144,-369.762 L 12.0225,-369.878 L 11.7184,-369.956 L 11.407,-369.995
 L 11.093,-369.995 L 10.7815,-369.956 L 10.4774,-369.878 L 10.1855,-369.762 L 9.91043,-369.611 L 9.65643,-369.426
 L 9.42757,-369.211 L 9.22745,-368.969 L 9.05922,-368.704 L 8.92555,-368.42 L 8.82854,-368.122 L 8.7697,-367.813
 L 8.75,-367.5 L 8.7697,-367.187 L 8.82854,-366.878 L 8.92555,-366.58 L 9.05922,-366.296 L 9.22745,-366.031
 L 9.42757,-365.789 L 9.65643,-365.574 L 9.91043,-365.389 L 10.1855,-365.238 L 10.4774,-365.122 L 10.7815,-365.044
 L 11.093,-365.005 L 11.407,-365.005 z
M 11.1558,-366.003 L 10.9689,-366.027 L 10.7865,-366.073 L 10.6113,-366.143 L 10.4463,-366.234 L 10.2939,-366.344
 L 10.1565,-366.473 L 10.0365,-366.618 L 9.93553,-366.777 L 9.85533,-366.948 L 9.79712,-367.127 L 9.76183,-367.312
 L 9.75,-367.5 L 9.76183,-367.688 L 9.79712,-367.873 L 9.85533,-368.052 L 9.93553,-368.223 L 10.0365,-368.382
 L 10.1565,-368.527 L 10.2939,-368.656 L 10.4463,-368.766 L 10.6113,-368.857 L 10.7865,-368.927 L 10.9689,-368.973
 L 11.1558,-368.997 L 11.3442,-368.997 L 11.5311,-368.973 L 11.7135,-368.927 L 11.8887,-368.857 L 12.0537,-368.766
 L 12.2061,-368.656 L 12.3434,-368.527 L 12.4635,-368.382 L 12.5645,-368.223 L 12.6447,-368.052 L 12.7029,-367.873
 L 12.7382,-367.688 L 12.75,-367.5 L 12.7382,-367.312 L 12.7029,-367.127 L 12.6447,-366.948 L 12.5645,-366.777
 L 12.4635,-366.618 L 12.3434,-366.473 L 12.2061,-366.344 L 12.0537,-366.234 L 11.8887,-366.143 L 11.7135,-366.073
 L 11.5311,-366.027 L 11.3442,-366.003 z
M -11.3442,-321.003 L -11.5311,-321.027 L -11.7135,-321.073 L -11.8887,-321.143 L -12.0537,-321.234 L -12.2061,-321.344
 L -12.3434,-321.473 L -12.4635,-321.618 L -12.5645,-321.777 L -12.6447,-321.948 L -12.7029,-322.127 L -12.7382,-322.312
 L -12.75,-322.5 L -12.7382,-322.688 L -12.7029,-322.873 L -12.6447,-323.052 L -12.5645,-323.223 L -12.4635,-323.382
 L -12.3434,-323.527 L -12.2061,-323.656 L -12.0537,-323.766 L -11.8887,-323.857 L -11.7135,-323.927 L -11.5311,-323.973
 L -11.3442,-323.997 L -11.1558,-323.997 L -10.9689,-323.973 L -10.7865,-323.927 L -10.6113,-323.857 L -10.4463,-323.766
 L -10.2939,-323.656 L -10.1565,-323.527 L -10.0365,-323.382 L -9.93553,-323.223 L -9.85533,-323.052 L -9.79712,-322.873
 L -9.76183,-322.688 L -9.75,-322.5 L -9.76183,-322.312 L -9.79712,-322.127 L -9.85533,-321.948 L -9.93553,-321.777
 L -10.0365,-321.618 L -10.1565,-321.473 L -10.2939,-321.344 L -10.4463,-321.234 L -10.6113,-321.143 L -10.7865,-321.073
 L -10.9689,-321.027 L -11.1558,-321.003 z
M 14.6869,-246.089 L 15.2951,-246.245 L 15.8789,-246.476 L 16.4291,-246.778 L 16.9371,-247.147 L 17.3948,-247.577
 L 17.7951,-248.061 L 18.1315,-248.591 L 18.3989,-249.159 L 18.5929,-249.757 L 18.7106,-250.373 L 18.75,-251
 L 18.75,-301 L 18.7106,-301.627 L 18.5929,-302.243 L 18.3989,-302.841 L 18.1315,-303.409 L 17.7951,-303.939
 L 17.3948,-304.423 L 16.9371,-304.853 L 16.4291,-305.222 L 15.8789,-305.524 L 15.2951,-305.755 L 14.6869,-305.911
 L 14.0639,-305.99 L -14.0639,-305.99 L -14.6869,-305.911 L -15.2951,-305.755 L -15.8789,-305.524 L -16.4291,-305.222
 L -16.9371,-304.853 L -17.3948,-304.423 L -17.7951,-303.939 L -18.1315,-303.409 L -18.3989,-302.841 L -18.5929,-302.243
 L -18.7106,-301.627 L -18.75,-301 L -18.75,-251 L -18.7106,-250.373 L -18.5929,-249.757 L -18.3989,-249.159
 L -18.1315,-248.591 L -17.7951,-248.061 L -17.3948,-247.577 L -16.9371,-247.147 L -16.4291,-246.778 L -15.8789,-246.476
 L -15.2951,-246.245 L -14.6869,-246.089 L -14.0639,-246.01 L 14.0639,-246.01 z
M -8.50392,-246.54 L -8.07086,-246.778 L -7.56287,-247.147 L -7.10515,-247.577 L -6.70491,-248.061 L -6.36845,-248.591
 L -6.1011,-249.159 L -5.90707,-249.757 L -5.78941,-250.373 L -5.75,-251 L -5.75,-254 L -5.78941,-254.627
 L -5.90707,-255.243 L -6.1011,-255.841 L -6.36845,-256.409 L -6.70491,-256.939 L -7.10515,-257.423 L -7.56287,-257.853
 L -8.07086,-258.222 L -8.62109,-258.524 L -9.20491,-258.755 L -9.81308,-258.911 L -10.436,-258.99 L -14.0639,-258.99
 L -14.6869,-258.911 L -15.2951,-258.755 L -15.8789,-258.524 L -16.4291,-258.222 L -16.9371,-257.853 L -17.3948,-257.423
 L -17.7951,-256.939 L -18.1315,-256.409 L -18.2185,-256.224 L -18.2185,-301 L -18.1833,-301.56 L -18.0782,-302.111
 L -17.9047,-302.645 L -17.6658,-303.153 L -17.3651,-303.627 L -17.0074,-304.059 L -16.5983,-304.443 L -16.1444,-304.773
 L -15.6526,-305.043 L -15.1308,-305.25 L -14.5873,-305.389 L -14.0306,-305.46 L 14.0306,-305.46 L 14.5873,-305.389
 L 15.1308,-305.25 L 15.6526,-305.043 L 16.1444,-304.773 L 16.5983,-304.443 L 17.0074,-304.059 L 17.3651,-303.627
 L 17.6658,-303.153 L 17.9047,-302.645 L 18.0782,-302.111 L 18.1833,-301.56 L 18.2185,-301 L 18.2185,-251
 L 18.1833,-250.44 L 18.0782,-249.889 L 17.9047,-249.355 L 17.6658,-248.847 L 17.3651,-248.373 L 17.0074,-247.941
 L 16.5983,-247.557 L 16.1444,-247.227 L 15.6526,-246.957 L 15.1308,-246.75 L 14.5873,-246.611 L 14.0306,-246.54
 z
M 11.7184,-296.044 L 12.0225,-296.122 L 12.3144,-296.238 L 12.5896,-296.389 L 12.8436,-296.574 L 13.0724,-296.789
 L 13.2725,-297.031 L 13.4408,-297.296 L 13.5744,-297.58 L 13.6714,-297.878 L 13.7303,-298.187 L 13.75,-298.5
 L 13.7303,-298.813 L 13.6714,-299.122 L 13.5744,-299.42 L 13.4408,-299.704 L 13.2725,-299.969 L 13.0724,-300.211
 L 12.8436,-300.426 L 12.5896,-300.611 L 12.3144,-300.762 L 12.0225,-300.878 L 11.7184,-300.956 L 11.407,-300.995
 L 11.093,-300.995 L 10.7815,-300.956 L 10.4774,-300.878 L 10.1855,-300.762 L 9.91043,-300.611 L 9.65643,-300.426
 L 9.42757,-300.211 L 9.22745,-299.969 L 9.05922,-299.704 L 8.92555,-299.42 L 8.82854,-299.122 L 8.7697,-298.813
 L 8.75,-298.5 L 8.7697,-298.187 L 8.82854,-297.878 L 8.92555,-297.58 L 9.05922,-297.296 L 9.22745,-297.031
 L 9.42757,-296.789 L 9.65643,-296.574 L 9.91043,-296.389 L 10.1855,-296.238 L 10.4774,-296.122 L 10.7815,-296.044
 L 11.093,-296.005 L 11.407,-296.005 z
M 11.1558,-297.003 L 10.9689,-297.027 L 10.7865,-297.073 L 10.6113,-297.143 L 10.4463,-297.234 L 10.2939,-297.344
 L 10.1565,-297.473 L 10.0365,-297.618 L 9.93553,-297.777 L 9.85533,-297.948 L 9.79712,-298.127 L 9.76183,-298.312
 L 9.75,-298.5 L 9.76183,-298.688 L 9.79712,-298.873 L 9.85533,-299.052 L 9.93553,-299.223 L 10.0365,-299.382
 L 10.1565,-299.527 L 10.2939,-299.656 L 10.4463,-299.766 L 10.6113,-299.857 L 10.7865,-299.927 L 10.9689,-299.973
 L 11.1558,-299.997 L 11.3442,-299.997 L 11.5311,-299.973 L 11.7135,-299.927 L 11.8887,-299.857 L 12.0537,-299.766
 L 12.2061,-299.656 L 12.3434,-299.527 L 12.4635,-299.382 L 12.5645,-299.223 L 12.6447,-299.052 L 12.7029,-298.873
 L 12.7382,-298.688 L 12.75,-298.5 L 12.7382,-298.312 L 12.7029,-298.127 L 12.6447,-297.948 L 12.5645,-297.777
 L 12.4635,-297.618 L 12.3434,-297.473 L 12.2061,-297.344 L 12.0537,-297.234 L 11.8887,-297.143 L 11.7135,-297.073
 L 11.5311,-297.027 L 11.3442,-297.003 z
M -11.3442,-252.003 L -11.5311,-252.027 L -11.7135,-252.073 L -11.8887,-252.143 L -12.0537,-252.234 L -12.2061,-252.344
 L -12.3434,-252.473 L -12.4635,-252.618 L -12.5645,-252.777 L -12.6447,-252.948 L -12.7029,-253.127 L -12.7382,-253.312
 L -12.75,-253.5 L -12.7382,-253.688 L -12.7029,-253.873 L -12.6447,-254.052 L -12.5645,-254.223 L -12.4635,-254.382
 L -12.3434,-254.527 L -12.2061,-254.656 L -12.0537,-254.766 L -11.8887,-254.857 L -11.7135,-254.927 L -11.5311,-254.973
 L -11.3442,-254.997 L -11.1558,-254.997 L -10.9689,-254.973 L -10.7865,-254.927 L -10.6113,-254.857 L -10.4463,-254.766
 L -10.2939,-254.656 L -10.1565,-254.527 L -10.0365,-254.382 L -9.93553,-254.223 L -9.85533,-254.052 L -9.79712,-253.873
 L -9.76183,-253.688 L -9.75,-253.5 L -9.76183,-253.312 L -9.79712,-253.127 L -9.85533,-252.948 L -9.93553,-252.777
 L -10.0365,-252.618 L -10.1565,-252.473 L -10.2939,-252.344 L -10.4463,-252.234 L -10.6113,-252.143 L -10.7865,-252.073
 L -10.9689,-252.027 L -11.1558,-252.003 z
M 14.6869,-177.089 L 15.2951,-177.245 L 15.8789,-177.476 L 16.4291,-177.778 L 16.9371,-178.147 L 17.3948,-178.577
 L 17.7951,-179.061 L 18.1315,-179.591 L 18.3989,-180.159 L 18.5929,-180.757 L 18.7106,-181.373 L 18.75,-182
 L 18.75,-232 L 18.7106,-232.627 L 18.5929,-233.243 L 18.3989,-233.841 L 18.1315,-234.409 L 17.7951,-234.939
 L 17.3948,-235.423 L 16.9371,-235.853 L 16.4291,-236.222 L 15.8789,-236.524 L 15.2951,-236.755 L 14.6869,-236.911
 L 14.0639,-236.99 L -14.0639,-236.99 L -14.6869,-236.911 L -15.2951,-236.755 L -15.8789,-236.524 L -16.4291,-236.222
 L -16.9371,-235.853 L -17.3948,-235.423 L -17.7951,-234.939 L -18.1315,-234.409 L -18.3989,-233.841 L -18.5929,-233.243
 L -18.7106,-232.627 L -18.75,-232 L -18.75,-182 L -18.7106,-181.373 L -18.5929,-180.757 L -18.3989,-180.159
 L -18.1315,-179.591 L -17.7951,-179.061 L -17.3948,-178.577 L -16.9371,-178.147 L -16.4291,-177.778 L -15.8789,-177.476
 L -15.2951,-177.245 L -14.6869,-177.089 L -14.0639,-177.01 L 14.0639,-177.01 z
M -6.62805,-179.182 L -6.36845,-179.591 L -6.1011,-180.159 L -5.90707,-180.757 L -5.78941,-181.373 L -5.75,-182
 L -5.75,-185 L -5.78941,-185.627 L -5.90707,-186.243 L -6.1011,-186.841 L -6.36845,-187.409 L -6.70491,-187.939
 L -7.10515,-188.423 L -7.56287,-188.853 L -8.07086,-189.222 L -8.62109,-189.524 L -9.20491,-189.755 L -9.81308,-189.911
 L -10.436,-189.99 L -14.0639,-189.99 L -14.6869,-189.911 L -15.2951,-189.755 L -15.8789,-189.524 L -16.4291,-189.222
 L -16.5734,-189.117 L -16.5734,-232 L -16.5511,-232.354 L -16.4847,-232.702 L -16.3751,-233.039 L -16.2242,-233.36
 L -16.0342,-233.66 L -15.8082,-233.933 L -15.5497,-234.175 L -15.2628,-234.384 L -14.9521,-234.555 L -14.6225,-234.685
 L -14.2791,-234.773 L -13.9273,-234.818 L 6.62805,-234.818 L 6.36845,-234.409 L 6.1011,-233.841 L 5.90707,-233.243
 L 5.78941,-232.627 L 5.75,-232 L 5.75,-229 L 5.78941,-228.373 L 5.90707,-227.757 L 6.1011,-227.159
 L 6.36845,-226.591 L 6.70491,-226.061 L 7.10515,-225.577 L 7.56287,-225.147 L 8.07086,-224.778 L 8.62109,-224.476
 L 9.20491,-224.245 L 9.81308,-224.089 L 10.436,-224.01 L 14.0639,-224.01 L 14.6869,-224.089 L 15.2951,-224.245
 L 15.8789,-224.476 L 16.4291,-224.778 L 16.5734,-224.883 L 16.5734,-182 L 16.5511,-181.646 L 16.4847,-181.298
 L 16.3751,-180.961 L 16.2242,-180.64 L 16.0342,-180.34 L 15.8082,-180.067 L 15.5497,-179.825 L 15.2628,-179.616
 L 14.9521,-179.445 L 14.6225,-179.315 L 14.2791,-179.227 L 13.9273,-179.182 z
M 11.0993,-227.105 L 10.8003,-227.143 L 10.5083,-227.217 L 10.2281,-227.328 L 9.964,-227.474 L 9.72017,-227.651
 L 9.50047,-227.857 L 9.30835,-228.089 L 9.14685,-228.344 L 9.01852,-228.617 L 8.9254,-228.903 L 8.86891,-229.199
 L 8.84999,-229.5 L 8.86891,-229.801 L 8.9254,-230.097 L 9.01852,-230.383 L 9.14685,-230.656 L 9.30835,-230.911
 L 9.50047,-231.143 L 9.72017,-231.349 L 9.964,-231.526 L 10.2281,-231.672 L 10.5083,-231.783 L 10.8003,-231.857
 L 11.0993,-231.895 L 11.4007,-231.895 L 11.6997,-231.857 L 11.9916,-231.783 L 12.2719,-231.672 L 12.536,-231.526
 L 12.7798,-231.349 L 12.9995,-231.143 L 13.1916,-230.911 L 13.3531,-230.656 L 13.4815,-230.383 L 13.5746,-230.097
 L 13.6311,-229.801 L 13.65,-229.5 L 13.6311,-229.199 L 13.5746,-228.903 L 13.4815,-228.617 L 13.3531,-228.344
 L 13.1916,-228.089 L 12.9995,-227.857 L 12.7798,-227.651 L 12.536,-227.474 L 12.2719,-227.328 L 11.9916,-227.217
 L 11.6997,-227.143 L 11.4007,-227.105 z
M -11.4007,-182.105 L -11.6997,-182.143 L -11.9916,-182.217 L -12.2719,-182.328 L -12.536,-182.474 L -12.7798,-182.651
 L -12.9995,-182.857 L -13.1916,-183.089 L -13.3531,-183.344 L -13.4815,-183.617 L -13.5746,-183.903 L -13.6311,-184.199
 L -13.65,-184.5 L -13.6311,-184.801 L -13.5746,-185.097 L -13.4815,-185.383 L -13.3531,-185.656 L -13.1916,-185.911
 L -12.9995,-186.143 L -12.7798,-186.349 L -12.536,-186.526 L -12.2719,-186.672 L -11.9916,-186.783 L -11.6997,-186.857
 L -11.4007,-186.895 L -11.0993,-186.895 L -10.8003,-186.857 L -10.5083,-186.783 L -10.2281,-186.672 L -9.964,-186.526
 L -9.72017,-186.349 L -9.50047,-186.143 L -9.30835,-185.911 L -9.14685,-185.656 L -9.01852,-185.383 L -8.9254,-185.097
 L -8.86891,-184.801 L -8.84999,-184.5 L -8.86891,-184.199 L -8.9254,-183.903 L -9.01852,-183.617 L -9.14685,-183.344
 L -9.30835,-183.089 L -9.50047,-182.857 L -9.72017,-182.651 L -9.964,-182.474 L -10.2281,-182.328 L -10.5083,-182.217
 L -10.8003,-182.143 L -11.0993,-182.105 z
" stroke="black" fill="lightgray" stroke-width="0.5"/>
</svg>
