  0
SECTION
  2
BLOCKS
  0
ENDSEC
  0
SECTION
  2
ENTITIES
  0
LINE
  8
0
 10
-13.5
 20
143.507
 11
-13.1448
 21
143.077
  0
LINE
  8
0
 10
-13.1448
 20
143.077
 11
-12.6871
 21
142.647
  0
LINE
  8
0
 10
-12.6871
 20
142.647
 11
-12.1791
 21
142.278
  0
LINE
  8
0
 10
-12.1791
 20
142.278
 11
-11.6289
 21
141.976
  0
LINE
  8
0
 10
-11.6289
 20
141.976
 11
-11.0451
 21
141.745
  0
LINE
  8
0
 10
-11.0451
 20
141.745
 11
-10.4369
 21
141.589
  0
LINE
  8
0
 10
-10.4369
 20
141.589
 11
-9.81395
 21
141.51
  0
LINE
  8
0
 10
-9.81395
 20
141.51
 11
9.81395
 21
141.51
  0
LINE
  8
0
 10
9.81395
 20
141.51
 11
10.4369
 21
141.589
  0
LINE
  8
0
 10
10.4369
 20
141.589
 11
11.0451
 21
141.745
  0
LINE
  8
0
 10
11.0451
 20
141.745
 11
11.6289
 21
141.976
  0
LINE
  8
0
 10
11.6289
 20
141.976
 11
12.1791
 21
142.278
  0
LINE
  8
0
 10
12.1791
 20
142.278
 11
12.6871
 21
142.647
  0
LINE
  8
0
 10
12.6871
 20
142.647
 11
13.1448
 21
143.077
  0
LINE
  8
0
 10
13.1448
 20
143.077
 11
13.5451
 21
143.561
  0
LINE
  8
0
 10
13.5451
 20
143.561
 11
13.8815
 21
144.091
  0
LINE
  8
0
 10
13.8815
 20
144.091
 11
14.1489
 21
144.659
  0
LINE
  8
0
 10
14.1489
 20
144.659
 11
14.3429
 21
145.257
  0
LINE
  8
0
 10
14.3429
 20
145.257
 11
14.4606
 21
145.873
  0
LINE
  8
0
 10
14.4606
 20
145.873
 11
14.5
 21
146.5
  0
LINE
  8
0
 10
14.5
 20
146.5
 11
14.5
 21
165.5
  0
LINE
  8
0
 10
14.5
 20
165.5
 11
14.4606
 21
166.127
  0
LINE
  8
0
 10
14.4606
 20
166.127
 11
14.3429
 21
166.743
  0
LINE
  8
0
 10
14.3429
 20
166.743
 11
14.1489
 21
167.341
  0
LINE
  8
0
 10
14.1489
 20
167.341
 11
13.8815
 21
167.909
  0
LINE
  8
0
 10
13.8815
 20
167.909
 11
13.5451
 21
168.439
  0
LINE
  8
0
 10
13.5451
 20
168.439
 11
13.1448
 21
168.923
  0
LINE
  8
0
 10
13.1448
 20
168.923
 11
12.6871
 21
169.353
  0
LINE
  8
0
 10
12.6871
 20
169.353
 11
12.1791
 21
169.722
  0
LINE
  8
0
 10
12.1791
 20
169.722
 11
11.6289
 21
170.024
  0
LINE
  8
0
 10
11.6289
 20
170.024
 11
11.0451
 21
170.255
  0
LINE
  8
0
 10
11.0451
 20
170.255
 11
10.4369
 21
170.411
  0
LINE
  8
0
 10
10.4369
 20
170.411
 11
9.81395
 21
170.49
  0
LINE
  8
0
 10
9.81395
 20
170.49
 11
-9.81395
 21
170.49
  0
LINE
  8
0
 10
-9.81395
 20
170.49
 11
-10.4369
 21
170.411
  0
LINE
  8
0
 10
-10.4369
 20
170.411
 11
-11.0451
 21
170.255
  0
LINE
  8
0
 10
-11.0451
 20
170.255
 11
-11.6289
 21
170.024
  0
LINE
  8
0
 10
-11.6289
 20
170.024
 11
-12.1791
 21
169.722
  0
LINE
  8
0
 10
-12.1791
 20
169.722
 11
-12.6871
 21
169.353
  0
LINE
  8
0
 10
-12.6871
 20
169.353
 11
-13.1448
 21
168.923
  0
LINE
  8
0
 10
-13.1448
 20
168.923
 11
-13.5
 21
168.493
  0
LINE
  8
0
 10
-13.5
 20
168.493
 11
-13.5
 21
170.99
  0
LINE
  8
0
 10
-13.5
 20
170.99
 11
-16.5
 21
170.99
  0
LINE
  8
0
 10
-16.5
 20
170.99
 11
-16.5
 21
141.01
  0
LINE
  8
0
 10
-16.5
 20
141.01
 11
-13.5
 21
141.01
  0
LINE
  8
0
 10
-13.5
 20
141.01
 11
-13.5
 21
143.507
  0
LINE
  8
0
 10
-9.74316
 20
142.635
 11
-10.2256
 21
142.696
  0
LINE
  8
0
 10
-10.2256
 20
142.696
 11
-10.6967
 21
142.817
  0
LINE
  8
0
 10
-10.6967
 20
142.817
 11
-11.1489
 21
142.996
  0
LINE
  8
0
 10
-11.1489
 20
142.996
 11
-11.5751
 21
143.23
  0
LINE
  8
0
 10
-11.5751
 20
143.23
 11
-11.9685
 21
143.516
  0
LINE
  8
0
 10
-11.9685
 20
143.516
 11
-12.323
 21
143.849
  0
LINE
  8
0
 10
-12.323
 20
143.849
 11
-12.633
 21
144.224
  0
LINE
  8
0
 10
-12.633
 20
144.224
 11
-12.8936
 21
144.634
  0
LINE
  8
0
 10
-12.8936
 20
144.634
 11
-13.1007
 21
145.074
  0
LINE
  8
0
 10
-13.1007
 20
145.074
 11
-13.251
 21
145.537
  0
LINE
  8
0
 10
-13.251
 20
145.537
 11
-13.3421
 21
146.015
  0
LINE
  8
0
 10
-13.3421
 20
146.015
 11
-13.3726
 21
146.5
  0
LINE
  8
0
 10
-13.3726
 20
146.5
 11
-13.3726
 21
165.5
  0
LINE
  8
0
 10
-13.3726
 20
165.5
 11
-13.3421
 21
165.985
  0
LINE
  8
0
 10
-13.3421
 20
165.985
 11
-13.251
 21
166.463
  0
LINE
  8
0
 10
-13.251
 20
166.463
 11
-13.1007
 21
166.926
  0
LINE
  8
0
 10
-13.1007
 20
166.926
 11
-12.8936
 21
167.366
  0
LINE
  8
0
 10
-12.8936
 20
167.366
 11
-12.633
 21
167.776
  0
LINE
  8
0
 10
-12.633
 20
167.776
 11
-12.323
 21
168.151
  0
LINE
  8
0
 10
-12.323
 20
168.151
 11
-11.9685
 21
168.484
  0
LINE
  8
0
 10
-11.9685
 20
168.484
 11
-11.5751
 21
168.77
  0
LINE
  8
0
 10
-11.5751
 20
168.77
 11
-11.1489
 21
169.004
  0
LINE
  8
0
 10
-11.1489
 20
169.004
 11
-10.6967
 21
169.183
  0
LINE
  8
0
 10
-10.6967
 20
169.183
 11
-10.2256
 21
169.304
  0
LINE
  8
0
 10
-10.2256
 20
169.304
 11
-9.74316
 21
169.365
  0
LINE
  8
0
 10
-9.74316
 20
169.365
 11
9.74316
 21
169.365
  0
LINE
  8
0
 10
9.74316
 20
169.365
 11
10.2256
 21
169.304
  0
LINE
  8
0
 10
10.2256
 20
169.304
 11
10.6967
 21
169.183
  0
LINE
  8
0
 10
10.6967
 20
169.183
 11
11.1489
 21
169.004
  0
LINE
  8
0
 10
11.1489
 20
169.004
 11
11.5751
 21
168.77
  0
LINE
  8
0
 10
11.5751
 20
168.77
 11
11.9685
 21
168.484
  0
LINE
  8
0
 10
11.9685
 20
168.484
 11
12.323
 21
168.151
  0
LINE
  8
0
 10
12.323
 20
168.151
 11
12.633
 21
167.776
  0
LINE
  8
0
 10
12.633
 20
167.776
 11
12.8936
 21
167.366
  0
LINE
  8
0
 10
12.8936
 20
167.366
 11
13.1007
 21
166.926
  0
LINE
  8
0
 10
13.1007
 20
166.926
 11
13.251
 21
166.463
  0
LINE
  8
0
 10
13.251
 20
166.463
 11
13.3421
 21
165.985
  0
LINE
  8
0
 10
13.3421
 20
165.985
 11
13.3726
 21
165.5
  0
LINE
  8
0
 10
13.3726
 20
165.5
 11
13.3726
 21
146.5
  0
LINE
  8
0
 10
13.3726
 20
146.5
 11
13.3421
 21
146.015
  0
LINE
  8
0
 10
13.3421
 20
146.015
 11
13.251
 21
145.537
  0
LINE
  8
0
 10
13.251
 20
145.537
 11
13.1007
 21
145.074
  0
LINE
  8
0
 10
13.1007
 20
145.074
 11
12.8936
 21
144.634
  0
LINE
  8
0
 10
12.8936
 20
144.634
 11
12.633
 21
144.224
  0
LINE
  8
0
 10
12.633
 20
144.224
 11
12.323
 21
143.849
  0
LINE
  8
0
 10
12.323
 20
143.849
 11
11.9685
 21
143.516
  0
LINE
  8
0
 10
11.9685
 20
143.516
 11
11.5751
 21
143.23
  0
LINE
  8
0
 10
11.5751
 20
143.23
 11
11.1489
 21
142.996
  0
LINE
  8
0
 10
11.1489
 20
142.996
 11
10.6967
 21
142.817
  0
LINE
  8
0
 10
10.6967
 20
142.817
 11
10.2256
 21
142.696
  0
LINE
  8
0
 10
10.2256
 20
142.696
 11
9.74316
 21
142.635
  0
LINE
  8
0
 10
9.74316
 20
142.635
 11
-9.74316
 21
142.635
  0
LINE
  8
0
 10
-13.5
 20
104.507
 11
-13.1448
 21
104.077
  0
LINE
  8
0
 10
-13.1448
 20
104.077
 11
-12.6871
 21
103.647
  0
LINE
  8
0
 10
-12.6871
 20
103.647
 11
-12.1791
 21
103.278
  0
LINE
  8
0
 10
-12.1791
 20
103.278
 11
-11.6289
 21
102.976
  0
LINE
  8
0
 10
-11.6289
 20
102.976
 11
-11.0451
 21
102.745
  0
LINE
  8
0
 10
-11.0451
 20
102.745
 11
-10.4369
 21
102.589
  0
LINE
  8
0
 10
-10.4369
 20
102.589
 11
-9.81395
 21
102.51
  0
LINE
  8
0
 10
-9.81395
 20
102.51
 11
9.81395
 21
102.51
  0
LINE
  8
0
 10
9.81395
 20
102.51
 11
10.4369
 21
102.589
  0
LINE
  8
0
 10
10.4369
 20
102.589
 11
11.0451
 21
102.745
  0
LINE
  8
0
 10
11.0451
 20
102.745
 11
11.6289
 21
102.976
  0
LINE
  8
0
 10
11.6289
 20
102.976
 11
12.1791
 21
103.278
  0
LINE
  8
0
 10
12.1791
 20
103.278
 11
12.6871
 21
103.647
  0
LINE
  8
0
 10
12.6871
 20
103.647
 11
13.1448
 21
104.077
  0
LINE
  8
0
 10
13.1448
 20
104.077
 11
13.5451
 21
104.561
  0
LINE
  8
0
 10
13.5451
 20
104.561
 11
13.8815
 21
105.091
  0
LINE
  8
0
 10
13.8815
 20
105.091
 11
14.1489
 21
105.659
  0
LINE
  8
0
 10
14.1489
 20
105.659
 11
14.3429
 21
106.257
  0
LINE
  8
0
 10
14.3429
 20
106.257
 11
14.4606
 21
106.873
  0
LINE
  8
0
 10
14.4606
 20
106.873
 11
14.5
 21
107.5
  0
LINE
  8
0
 10
14.5
 20
107.5
 11
14.5
 21
126.5
  0
LINE
  8
0
 10
14.5
 20
126.5
 11
14.4606
 21
127.127
  0
LINE
  8
0
 10
14.4606
 20
127.127
 11
14.3429
 21
127.743
  0
LINE
  8
0
 10
14.3429
 20
127.743
 11
14.1489
 21
128.341
  0
LINE
  8
0
 10
14.1489
 20
128.341
 11
13.8815
 21
128.909
  0
LINE
  8
0
 10
13.8815
 20
128.909
 11
13.5451
 21
129.439
  0
LINE
  8
0
 10
13.5451
 20
129.439
 11
13.1448
 21
129.923
  0
LINE
  8
0
 10
13.1448
 20
129.923
 11
12.6871
 21
130.353
  0
LINE
  8
0
 10
12.6871
 20
130.353
 11
12.1791
 21
130.722
  0
LINE
  8
0
 10
12.1791
 20
130.722
 11
11.6289
 21
131.024
  0
LINE
  8
0
 10
11.6289
 20
131.024
 11
11.0451
 21
131.255
  0
LINE
  8
0
 10
11.0451
 20
131.255
 11
10.4369
 21
131.411
  0
LINE
  8
0
 10
10.4369
 20
131.411
 11
9.81395
 21
131.49
  0
LINE
  8
0
 10
9.81395
 20
131.49
 11
-9.81395
 21
131.49
  0
LINE
  8
0
 10
-9.81395
 20
131.49
 11
-10.4369
 21
131.411
  0
LINE
  8
0
 10
-10.4369
 20
131.411
 11
-11.0451
 21
131.255
  0
LINE
  8
0
 10
-11.0451
 20
131.255
 11
-11.6289
 21
131.024
  0
LINE
  8
0
 10
-11.6289
 20
131.024
 11
-12.1791
 21
130.722
  0
LINE
  8
0
 10
-12.1791
 20
130.722
 11
-12.6871
 21
130.353
  0
LINE
  8
0
 10
-12.6871
 20
130.353
 11
-13.1448
 21
129.923
  0
LINE
  8
0
 10
-13.1448
 20
129.923
 11
-13.5
 21
129.493
  0
LINE
  8
0
 10
-13.5
 20
129.493
 11
-13.5
 21
131.615
  0
LINE
  8
0
 10
-13.5
 20
131.615
 11
-16.5
 21
131.615
  0
LINE
  8
0
 10
-16.5
 20
131.615
 11
-16.5
 21
102.385
  0
LINE
  8
0
 10
-16.5
 20
102.385
 11
-13.5
 21
102.385
  0
LINE
  8
0
 10
-13.5
 20
102.385
 11
-13.5
 21
104.507
  0
LINE
  8
0
 10
10.4369
 20
63.5886
 11
11.0451
 21
63.7447
  0
LINE
  8
0
 10
11.0451
 20
63.7447
 11
11.6289
 21
63.9759
  0
LINE
  8
0
 10
11.6289
 20
63.9759
 11
12.1791
 21
64.2784
  0
LINE
  8
0
 10
12.1791
 20
64.2784
 11
12.6871
 21
64.6474
  0
LINE
  8
0
 10
12.6871
 20
64.6474
 11
13.1448
 21
65.0773
  0
LINE
  8
0
 10
13.1448
 20
65.0773
 11
13.5451
 21
65.5611
  0
LINE
  8
0
 10
13.5451
 20
65.5611
 11
13.8815
 21
66.0912
  0
LINE
  8
0
 10
13.8815
 20
66.0912
 11
14.1489
 21
66.6594
  0
LINE
  8
0
 10
14.1489
 20
66.6594
 11
14.3429
 21
67.2566
  0
LINE
  8
0
 10
14.3429
 20
67.2566
 11
14.4606
 21
67.8733
  0
LINE
  8
0
 10
14.4606
 20
67.8733
 11
14.5
 21
68.5
  0
LINE
  8
0
 10
14.5
 20
68.5
 11
14.5
 21
87.5
  0
LINE
  8
0
 10
14.5
 20
87.5
 11
14.4606
 21
88.1267
  0
LINE
  8
0
 10
14.4606
 20
88.1267
 11
14.3429
 21
88.7434
  0
LINE
  8
0
 10
14.3429
 20
88.7434
 11
14.1489
 21
89.3406
  0
LINE
  8
0
 10
14.1489
 20
89.3406
 11
13.8815
 21
89.9088
  0
LINE
  8
0
 10
13.8815
 20
89.9088
 11
13.5451
 21
90.4389
  0
LINE
  8
0
 10
13.5451
 20
90.4389
 11
13.1448
 21
90.9227
  0
LINE
  8
0
 10
13.1448
 20
90.9227
 11
12.6871
 21
91.3526
  0
LINE
  8
0
 10
12.6871
 20
91.3526
 11
12.1791
 21
91.7216
  0
LINE
  8
0
 10
12.1791
 20
91.7216
 11
11.6289
 21
92.0241
  0
LINE
  8
0
 10
11.6289
 20
92.0241
 11
11.0451
 21
92.2553
  0
LINE
  8
0
 10
11.0451
 20
92.2553
 11
10.4369
 21
92.4114
  0
LINE
  8
0
 10
10.4369
 20
92.4114
 11
9.81395
 21
92.4901
  0
LINE
  8
0
 10
9.81395
 20
92.4901
 11
-9.81395
 21
92.4901
  0
LINE
  8
0
 10
-9.81395
 20
92.4901
 11
-10.4369
 21
92.4114
  0
LINE
  8
0
 10
-10.4369
 20
92.4114
 11
-11.0451
 21
92.2553
  0
LINE
  8
0
 10
-11.0451
 20
92.2553
 11
-11.6289
 21
92.0241
  0
LINE
  8
0
 10
-11.6289
 20
92.0241
 11
-12.1791
 21
91.7216
  0
LINE
  8
0
 10
-12.1791
 20
91.7216
 11
-12.6871
 21
91.3526
  0
LINE
  8
0
 10
-12.6871
 20
91.3526
 11
-13.1448
 21
90.9227
  0
LINE
  8
0
 10
-13.1448
 20
90.9227
 11
-13.5451
 21
90.4389
  0
LINE
  8
0
 10
-13.5451
 20
90.4389
 11
-13.8815
 21
89.9088
  0
LINE
  8
0
 10
-13.8815
 20
89.9088
 11
-14.1489
 21
89.3406
  0
LINE
  8
0
 10
-14.1489
 20
89.3406
 11
-14.2777
 21
88.9442
  0
LINE
  8
0
 10
-14.2777
 20
88.9442
 11
-16.5
 21
88.9442
  0
LINE
  8
0
 10
-16.5
 20
88.9442
 11
-16.5
 21
67.0558
  0
LINE
  8
0
 10
-16.5
 20
67.0558
 11
-14.2777
 21
67.0558
  0
LINE
  8
0
 10
-14.2777
 20
67.0558
 11
-14.1489
 21
66.6594
  0
LINE
  8
0
 10
-14.1489
 20
66.6594
 11
-13.8815
 21
66.0912
  0
LINE
  8
0
 10
-13.8815
 20
66.0912
 11
-13.5451
 21
65.5611
  0
LINE
  8
0
 10
-13.5451
 20
65.5611
 11
-13.1448
 21
65.0773
  0
LINE
  8
0
 10
-13.1448
 20
65.0773
 11
-12.6871
 21
64.6474
  0
LINE
  8
0
 10
-12.6871
 20
64.6474
 11
-12.1791
 21
64.2784
  0
LINE
  8
0
 10
-12.1791
 20
64.2784
 11
-11.6289
 21
63.9759
  0
LINE
  8
0
 10
-11.6289
 20
63.9759
 11
-11.0451
 21
63.7447
  0
LINE
  8
0
 10
-11.0451
 20
63.7447
 11
-10.4369
 21
63.5886
  0
LINE
  8
0
 10
-10.4369
 20
63.5886
 11
-9.81395
 21
63.5099
  0
LINE
  8
0
 10
-9.81395
 20
63.5099
 11
9.81395
 21
63.5099
  0
LINE
  8
0
 10
9.81395
 20
63.5099
 11
10.4369
 21
63.5886
  0
LINE
  8
0
 10
7.34929
 20
83.1047
 11
7.05028
 21
83.1425
  0
LINE
  8
0
 10
7.05028
 20
83.1425
 11
6.75835
 21
83.2175
  0
LINE
  8
0
 10
6.75835
 20
83.2175
 11
6.47812
 21
83.3284
  0
LINE
  8
0
 10
6.47812
 20
83.3284
 11
6.214
 21
83.4736
  0
LINE
  8
0
 10
6.214
 20
83.4736
 11
5.97017
 21
83.6508
  0
LINE
  8
0
 10
5.97017
 20
83.6508
 11
5.75047
 21
83.8571
  0
LINE
  8
0
 10
5.75047
 20
83.8571
 11
5.55835
 21
84.0893
  0
LINE
  8
0
 10
5.55835
 20
84.0893
 11
5.39685
 21
84.3438
  0
LINE
  8
0
 10
5.39685
 20
84.3438
 11
5.26852
 21
84.6165
  0
LINE
  8
0
 10
5.26852
 20
84.6165
 11
5.1754
 21
84.9031
  0
LINE
  8
0
 10
5.1754
 20
84.9031
 11
5.11891
 21
85.1992
  0
LINE
  8
0
 10
5.11891
 20
85.1992
 11
5.09999
 21
85.5
  0
LINE
  8
0
 10
5.09999
 20
85.5
 11
5.11891
 21
85.8008
  0
LINE
  8
0
 10
5.11891
 20
85.8008
 11
5.1754
 21
86.0968
  0
LINE
  8
0
 10
5.1754
 20
86.0968
 11
5.26852
 21
86.3835
  0
LINE
  8
0
 10
5.26852
 20
86.3835
 11
5.39685
 21
86.6562
  0
LINE
  8
0
 10
5.39685
 20
86.6562
 11
5.55835
 21
86.9107
  0
LINE
  8
0
 10
5.55835
 20
86.9107
 11
5.75047
 21
87.1429
  0
LINE
  8
0
 10
5.75047
 20
87.1429
 11
5.97017
 21
87.3492
  0
LINE
  8
0
 10
5.97017
 20
87.3492
 11
6.214
 21
87.5264
  0
LINE
  8
0
 10
6.214
 20
87.5264
 11
6.47812
 21
87.6716
  0
LINE
  8
0
 10
6.47812
 20
87.6716
 11
6.75835
 21
87.7825
  0
LINE
  8
0
 10
6.75835
 20
87.7825
 11
7.05028
 21
87.8575
  0
LINE
  8
0
 10
7.05028
 20
87.8575
 11
7.34929
 21
87.8953
  0
LINE
  8
0
 10
7.34929
 20
87.8953
 11
7.6507
 21
87.8953
  0
LINE
  8
0
 10
7.6507
 20
87.8953
 11
7.94971
 21
87.8575
  0
LINE
  8
0
 10
7.94971
 20
87.8575
 11
8.24164
 21
87.7825
  0
LINE
  8
0
 10
8.24164
 20
87.7825
 11
8.52187
 21
87.6716
  0
LINE
  8
0
 10
8.52187
 20
87.6716
 11
8.78598
 21
87.5264
  0
LINE
  8
0
 10
8.78598
 20
87.5264
 11
9.02982
 21
87.3492
  0
LINE
  8
0
 10
9.02982
 20
87.3492
 11
9.24951
 21
87.1429
  0
LINE
  8
0
 10
9.24951
 20
87.1429
 11
9.44164
 21
86.9107
  0
LINE
  8
0
 10
9.44164
 20
86.9107
 11
9.60313
 21
86.6562
  0
LINE
  8
0
 10
9.60313
 20
86.6562
 11
9.73146
 21
86.3835
  0
LINE
  8
0
 10
9.73146
 20
86.3835
 11
9.82458
 21
86.0968
  0
LINE
  8
0
 10
9.82458
 20
86.0968
 11
9.88107
 21
85.8008
  0
LINE
  8
0
 10
9.88107
 20
85.8008
 11
9.89999
 21
85.5
  0
LINE
  8
0
 10
9.89999
 20
85.5
 11
9.88107
 21
85.1992
  0
LINE
  8
0
 10
9.88107
 20
85.1992
 11
9.82458
 21
84.9031
  0
LINE
  8
0
 10
9.82458
 20
84.9031
 11
9.73146
 21
84.6165
  0
LINE
  8
0
 10
9.73146
 20
84.6165
 11
9.60313
 21
84.3438
  0
LINE
  8
0
 10
9.60313
 20
84.3438
 11
9.44164
 21
84.0893
  0
LINE
  8
0
 10
9.44164
 20
84.0893
 11
9.24951
 21
83.8571
  0
LINE
  8
0
 10
9.24951
 20
83.8571
 11
9.02982
 21
83.6508
  0
LINE
  8
0
 10
9.02982
 20
83.6508
 11
8.78598
 21
83.4736
  0
LINE
  8
0
 10
8.78598
 20
83.4736
 11
8.52187
 21
83.3284
  0
LINE
  8
0
 10
8.52187
 20
83.3284
 11
8.24164
 21
83.2175
  0
LINE
  8
0
 10
8.24164
 20
83.2175
 11
7.94971
 21
83.1425
  0
LINE
  8
0
 10
7.94971
 20
83.1425
 11
7.6507
 21
83.1047
  0
LINE
  8
0
 10
7.6507
 20
83.1047
 11
7.34929
 21
83.1047
  0
LINE
  8
0
 10
-7.6507
 20
83.1047
 11
-7.94971
 21
83.1425
  0
LINE
  8
0
 10
-7.94971
 20
83.1425
 11
-8.24164
 21
83.2175
  0
LINE
  8
0
 10
-8.24164
 20
83.2175
 11
-8.52187
 21
83.3284
  0
LINE
  8
0
 10
-8.52187
 20
83.3284
 11
-8.78598
 21
83.4736
  0
LINE
  8
0
 10
-8.78598
 20
83.4736
 11
-9.02982
 21
83.6508
  0
LINE
  8
0
 10
-9.02982
 20
83.6508
 11
-9.24951
 21
83.8571
  0
LINE
  8
0
 10
-9.24951
 20
83.8571
 11
-9.44164
 21
84.0893
  0
LINE
  8
0
 10
-9.44164
 20
84.0893
 11
-9.60313
 21
84.3438
  0
LINE
  8
0
 10
-9.60313
 20
84.3438
 11
-9.73146
 21
84.6165
  0
LINE
  8
0
 10
-9.73146
 20
84.6165
 11
-9.82458
 21
84.9031
  0
LINE
  8
0
 10
-9.82458
 20
84.9031
 11
-9.88107
 21
85.1992
  0
LINE
  8
0
 10
-9.88107
 20
85.1992
 11
-9.89999
 21
85.5
  0
LINE
  8
0
 10
-9.89999
 20
85.5
 11
-9.88107
 21
85.8008
  0
LINE
  8
0
 10
-9.88107
 20
85.8008
 11
-9.82458
 21
86.0968
  0
LINE
  8
0
 10
-9.82458
 20
86.0968
 11
-9.73146
 21
86.3835
  0
LINE
  8
0
 10
-9.73146
 20
86.3835
 11
-9.60313
 21
86.6562
  0
LINE
  8
0
 10
-9.60313
 20
86.6562
 11
-9.44164
 21
86.9107
  0
LINE
  8
0
 10
-9.44164
 20
86.9107
 11
-9.24951
 21
87.1429
  0
LINE
  8
0
 10
-9.24951
 20
87.1429
 11
-9.02982
 21
87.3492
  0
LINE
  8
0
 10
-9.02982
 20
87.3492
 11
-8.78598
 21
87.5264
  0
LINE
  8
0
 10
-8.78598
 20
87.5264
 11
-8.52187
 21
87.6716
  0
LINE
  8
0
 10
-8.52187
 20
87.6716
 11
-8.24164
 21
87.7825
  0
LINE
  8
0
 10
-8.24164
 20
87.7825
 11
-7.94971
 21
87.8575
  0
LINE
  8
0
 10
-7.94971
 20
87.8575
 11
-7.6507
 21
87.8953
  0
LINE
  8
0
 10
-7.6507
 20
87.8953
 11
-7.34929
 21
87.8953
  0
LINE
  8
0
 10
-7.34929
 20
87.8953
 11
-7.05028
 21
87.8575
  0
LINE
  8
0
 10
-7.05028
 20
87.8575
 11
-6.75835
 21
87.7825
  0
LINE
  8
0
 10
-6.75835
 20
87.7825
 11
-6.47812
 21
87.6716
  0
LINE
  8
0
 10
-6.47812
 20
87.6716
 11
-6.214
 21
87.5264
  0
LINE
  8
0
 10
-6.214
 20
87.5264
 11
-5.97017
 21
87.3492
  0
LINE
  8
0
 10
-5.97017
 20
87.3492
 11
-5.75047
 21
87.1429
  0
LINE
  8
0
 10
-5.75047
 20
87.1429
 11
-5.55835
 21
86.9107
  0
LINE
  8
0
 10
-5.55835
 20
86.9107
 11
-5.39685
 21
86.6562
  0
LINE
  8
0
 10
-5.39685
 20
86.6562
 11
-5.26852
 21
86.3835
  0
LINE
  8
0
 10
-5.26852
 20
86.3835
 11
-5.1754
 21
86.0968
  0
LINE
  8
0
 10
-5.1754
 20
86.0968
 11
-5.11891
 21
85.8008
  0
LINE
  8
0
 10
-5.11891
 20
85.8008
 11
-5.09999
 21
85.5
  0
LINE
  8
0
 10
-5.09999
 20
85.5
 11
-5.11891
 21
85.1992
  0
LINE
  8
0
 10
-5.11891
 20
85.1992
 11
-5.1754
 21
84.9031
  0
LINE
  8
0
 10
-5.1754
 20
84.9031
 11
-5.26852
 21
84.6165
  0
LINE
  8
0
 10
-5.26852
 20
84.6165
 11
-5.39685
 21
84.3438
  0
LINE
  8
0
 10
-5.39685
 20
84.3438
 11
-5.55835
 21
84.0893
  0
LINE
  8
0
 10
-5.55835
 20
84.0893
 11
-5.75047
 21
83.8571
  0
LINE
  8
0
 10
-5.75047
 20
83.8571
 11
-5.97017
 21
83.6508
  0
LINE
  8
0
 10
-5.97017
 20
83.6508
 11
-6.214
 21
83.4736
  0
LINE
  8
0
 10
-6.214
 20
83.4736
 11
-6.47812
 21
83.3284
  0
LINE
  8
0
 10
-6.47812
 20
83.3284
 11
-6.75835
 21
83.2175
  0
LINE
  8
0
 10
-6.75835
 20
83.2175
 11
-7.05028
 21
83.1425
  0
LINE
  8
0
 10
-7.05028
 20
83.1425
 11
-7.34929
 21
83.1047
  0
LINE
  8
0
 10
-7.34929
 20
83.1047
 11
-7.6507
 21
83.1047
  0
LINE
  8
0
 10
-7.6507
 20
68.1047
 11
-7.94971
 21
68.1425
  0
LINE
  8
0
 10
-7.94971
 20
68.1425
 11
-8.24164
 21
68.2175
  0
LINE
  8
0
 10
-8.24164
 20
68.2175
 11
-8.52187
 21
68.3284
  0
LINE
  8
0
 10
-8.52187
 20
68.3284
 11
-8.78598
 21
68.4736
  0
LINE
  8
0
 10
-8.78598
 20
68.4736
 11
-9.02982
 21
68.6508
  0
LINE
  8
0
 10
-9.02982
 20
68.6508
 11
-9.24951
 21
68.8571
  0
LINE
  8
0
 10
-9.24951
 20
68.8571
 11
-9.44164
 21
69.0893
  0
LINE
  8
0
 10
-9.44164
 20
69.0893
 11
-9.60313
 21
69.3438
  0
LINE
  8
0
 10
-9.60313
 20
69.3438
 11
-9.73146
 21
69.6165
  0
LINE
  8
0
 10
-9.73146
 20
69.6165
 11
-9.82458
 21
69.9032
  0
LINE
  8
0
 10
-9.82458
 20
69.9032
 11
-9.88107
 21
70.1992
  0
LINE
  8
0
 10
-9.88107
 20
70.1992
 11
-9.89999
 21
70.5
  0
LINE
  8
0
 10
-9.89999
 20
70.5
 11
-9.88107
 21
70.8008
  0
LINE
  8
0
 10
-9.88107
 20
70.8008
 11
-9.82458
 21
71.0969
  0
LINE
  8
0
 10
-9.82458
 20
71.0969
 11
-9.73146
 21
71.3835
  0
LINE
  8
0
 10
-9.73146
 20
71.3835
 11
-9.60313
 21
71.6562
  0
LINE
  8
0
 10
-9.60313
 20
71.6562
 11
-9.44164
 21
71.9107
  0
LINE
  8
0
 10
-9.44164
 20
71.9107
 11
-9.24951
 21
72.1429
  0
LINE
  8
0
 10
-9.24951
 20
72.1429
 11
-9.02982
 21
72.3492
  0
LINE
  8
0
 10
-9.02982
 20
72.3492
 11
-8.78598
 21
72.5264
  0
LINE
  8
0
 10
-8.78598
 20
72.5264
 11
-8.52187
 21
72.6716
  0
LINE
  8
0
 10
-8.52187
 20
72.6716
 11
-8.24164
 21
72.7825
  0
LINE
  8
0
 10
-8.24164
 20
72.7825
 11
-7.94971
 21
72.8575
  0
LINE
  8
0
 10
-7.94971
 20
72.8575
 11
-7.6507
 21
72.8953
  0
LINE
  8
0
 10
-7.6507
 20
72.8953
 11
-7.34929
 21
72.8953
  0
LINE
  8
0
 10
-7.34929
 20
72.8953
 11
-7.05028
 21
72.8575
  0
LINE
  8
0
 10
-7.05028
 20
72.8575
 11
-6.75835
 21
72.7825
  0
LINE
  8
0
 10
-6.75835
 20
72.7825
 11
-6.47812
 21
72.6716
  0
LINE
  8
0
 10
-6.47812
 20
72.6716
 11
-6.214
 21
72.5264
  0
LINE
  8
0
 10
-6.214
 20
72.5264
 11
-5.97017
 21
72.3492
  0
LINE
  8
0
 10
-5.97017
 20
72.3492
 11
-5.75047
 21
72.1429
  0
LINE
  8
0
 10
-5.75047
 20
72.1429
 11
-5.55835
 21
71.9107
  0
LINE
  8
0
 10
-5.55835
 20
71.9107
 11
-5.39685
 21
71.6562
  0
LINE
  8
0
 10
-5.39685
 20
71.6562
 11
-5.26852
 21
71.3835
  0
LINE
  8
0
 10
-5.26852
 20
71.3835
 11
-5.1754
 21
71.0969
  0
LINE
  8
0
 10
-5.1754
 20
71.0969
 11
-5.11891
 21
70.8008
  0
LINE
  8
0
 10
-5.11891
 20
70.8008
 11
-5.09999
 21
70.5
  0
LINE
  8
0
 10
-5.09999
 20
70.5
 11
-5.11891
 21
70.1992
  0
LINE
  8
0
 10
-5.11891
 20
70.1992
 11
-5.1754
 21
69.9032
  0
LINE
  8
0
 10
-5.1754
 20
69.9032
 11
-5.26852
 21
69.6165
  0
LINE
  8
0
 10
-5.26852
 20
69.6165
 11
-5.39685
 21
69.3438
  0
LINE
  8
0
 10
-5.39685
 20
69.3438
 11
-5.55835
 21
69.0893
  0
LINE
  8
0
 10
-5.55835
 20
69.0893
 11
-5.75047
 21
68.8571
  0
LINE
  8
0
 10
-5.75047
 20
68.8571
 11
-5.97017
 21
68.6508
  0
LINE
  8
0
 10
-5.97017
 20
68.6508
 11
-6.214
 21
68.4736
  0
LINE
  8
0
 10
-6.214
 20
68.4736
 11
-6.47812
 21
68.3284
  0
LINE
  8
0
 10
-6.47812
 20
68.3284
 11
-6.75835
 21
68.2175
  0
LINE
  8
0
 10
-6.75835
 20
68.2175
 11
-7.05028
 21
68.1425
  0
LINE
  8
0
 10
-7.05028
 20
68.1425
 11
-7.34929
 21
68.1047
  0
LINE
  8
0
 10
-7.34929
 20
68.1047
 11
-7.6507
 21
68.1047
  0
LINE
  8
0
 10
7.34929
 20
68.1047
 11
7.05028
 21
68.1425
  0
LINE
  8
0
 10
7.05028
 20
68.1425
 11
6.75835
 21
68.2175
  0
LINE
  8
0
 10
6.75835
 20
68.2175
 11
6.47812
 21
68.3284
  0
LINE
  8
0
 10
6.47812
 20
68.3284
 11
6.214
 21
68.4736
  0
LINE
  8
0
 10
6.214
 20
68.4736
 11
5.97017
 21
68.6508
  0
LINE
  8
0
 10
5.97017
 20
68.6508
 11
5.75047
 21
68.8571
  0
LINE
  8
0
 10
5.75047
 20
68.8571
 11
5.55835
 21
69.0893
  0
LINE
  8
0
 10
5.55835
 20
69.0893
 11
5.39685
 21
69.3438
  0
LINE
  8
0
 10
5.39685
 20
69.3438
 11
5.26852
 21
69.6165
  0
LINE
  8
0
 10
5.26852
 20
69.6165
 11
5.1754
 21
69.9032
  0
LINE
  8
0
 10
5.1754
 20
69.9032
 11
5.11891
 21
70.1992
  0
LINE
  8
0
 10
5.11891
 20
70.1992
 11
5.09999
 21
70.5
  0
LINE
  8
0
 10
5.09999
 20
70.5
 11
5.11891
 21
70.8008
  0
LINE
  8
0
 10
5.11891
 20
70.8008
 11
5.1754
 21
71.0969
  0
LINE
  8
0
 10
5.1754
 20
71.0969
 11
5.26852
 21
71.3835
  0
LINE
  8
0
 10
5.26852
 20
71.3835
 11
5.39685
 21
71.6562
  0
LINE
  8
0
 10
5.39685
 20
71.6562
 11
5.55835
 21
71.9107
  0
LINE
  8
0
 10
5.55835
 20
71.9107
 11
5.75047
 21
72.1429
  0
LINE
  8
0
 10
5.75047
 20
72.1429
 11
5.97017
 21
72.3492
  0
LINE
  8
0
 10
5.97017
 20
72.3492
 11
6.214
 21
72.5264
  0
LINE
  8
0
 10
6.214
 20
72.5264
 11
6.47812
 21
72.6716
  0
LINE
  8
0
 10
6.47812
 20
72.6716
 11
6.75835
 21
72.7825
  0
LINE
  8
0
 10
6.75835
 20
72.7825
 11
7.05028
 21
72.8575
  0
LINE
  8
0
 10
7.05028
 20
72.8575
 11
7.34929
 21
72.8953
  0
LINE
  8
0
 10
7.34929
 20
72.8953
 11
7.6507
 21
72.8953
  0
LINE
  8
0
 10
7.6507
 20
72.8953
 11
7.94971
 21
72.8575
  0
LINE
  8
0
 10
7.94971
 20
72.8575
 11
8.24164
 21
72.7825
  0
LINE
  8
0
 10
8.24164
 20
72.7825
 11
8.52187
 21
72.6716
  0
LINE
  8
0
 10
8.52187
 20
72.6716
 11
8.78598
 21
72.5264
  0
LINE
  8
0
 10
8.78598
 20
72.5264
 11
9.02982
 21
72.3492
  0
LINE
  8
0
 10
9.02982
 20
72.3492
 11
9.24951
 21
72.1429
  0
LINE
  8
0
 10
9.24951
 20
72.1429
 11
9.44164
 21
71.9107
  0
LINE
  8
0
 10
9.44164
 20
71.9107
 11
9.60313
 21
71.6562
  0
LINE
  8
0
 10
9.60313
 20
71.6562
 11
9.73146
 21
71.3835
  0
LINE
  8
0
 10
9.73146
 20
71.3835
 11
9.82458
 21
71.0969
  0
LINE
  8
0
 10
9.82458
 20
71.0969
 11
9.88107
 21
70.8008
  0
LINE
  8
0
 10
9.88107
 20
70.8008
 11
9.89999
 21
70.5
  0
LINE
  8
0
 10
9.89999
 20
70.5
 11
9.88107
 21
70.1992
  0
LINE
  8
0
 10
9.88107
 20
70.1992
 11
9.82458
 21
69.9032
  0
LINE
  8
0
 10
9.82458
 20
69.9032
 11
9.73146
 21
69.6165
  0
LINE
  8
0
 10
9.73146
 20
69.6165
 11
9.60313
 21
69.3438
  0
LINE
  8
0
 10
9.60313
 20
69.3438
 11
9.44164
 21
69.0893
  0
LINE
  8
0
 10
9.44164
 20
69.0893
 11
9.24951
 21
68.8571
  0
LINE
  8
0
 10
9.24951
 20
68.8571
 11
9.02982
 21
68.6508
  0
LINE
  8
0
 10
9.02982
 20
68.6508
 11
8.78598
 21
68.4736
  0
LINE
  8
0
 10
8.78598
 20
68.4736
 11
8.52187
 21
68.3284
  0
LINE
  8
0
 10
8.52187
 20
68.3284
 11
8.24164
 21
68.2175
  0
LINE
  8
0
 10
8.24164
 20
68.2175
 11
7.94971
 21
68.1425
  0
LINE
  8
0
 10
7.94971
 20
68.1425
 11
7.6507
 21
68.1047
  0
LINE
  8
0
 10
7.6507
 20
68.1047
 11
7.34929
 21
68.1047
  0
ENDSEC
  0
SECTION
  2
OBJECTS
  0
DICTIONARY
  0
ENDSEC
  0
EOF
