<?xml version="1.0" standalone="no"?>
<!DOCTYPE svg PUBLIC "-//W3C//DTD SVG 1.1//EN" "http://www.w3.org/Graphics/SVG/1.1/DTD/svg11.dtd">
<svg width="44mm" height="260mm" viewBox="-22 -238 44 260" xmlns="http://www.w3.org/2000/svg" version="1.1">
<title>OpenSCAD Model</title>
<path d="
M 17.9369,-194.089 L 18.5451,-194.245 L 19.1289,-194.476 L 19.6791,-194.778 L 20.1871,-195.147 L 20.6448,-195.577
 L 21.0451,-196.061 L 21.3815,-196.591 L 21.6489,-197.159 L 21.8429,-197.757 L 21.9606,-198.373 L 22,-199
 L 22,-233 L 21.9606,-233.627 L 21.8429,-234.243 L 21.6489,-234.841 L 21.3815,-235.409 L 21.0451,-235.939
 L 20.6448,-236.423 L 20.1871,-236.853 L 19.6791,-237.222 L 19.1289,-237.524 L 18.5451,-237.755 L 17.9369,-237.911
 L 17.3139,-237.99 L -17.3139,-237.99 L -17.9369,-237.911 L -18.5451,-237.755 L -19.1289,-237.524 L -19.6791,-237.222
 L -20.1871,-236.853 L -20.6448,-236.423 L -21.0451,-235.939 L -21.3815,-235.409 L -21.6489,-234.841 L -21.8429,-234.243
 L -21.9606,-233.627 L -22,-233 L -22,-199 L -21.9606,-198.373 L -21.8429,-197.757 L -21.6489,-197.159
 L -21.3815,-196.591 L -21.0451,-196.061 L -20.6448,-195.577 L -20.1871,-195.147 L -19.6791,-194.778 L -19.1289,-194.476
 L -18.5451,-194.245 L -17.9369,-194.089 L -17.3139,-194.01 L 17.3139,-194.01 z
M -1.58675,-231.252 L -3.17349,-234 L -1.58675,-236.748 L 1.58675,-236.748 L 3.17349,-234 L 1.58675,-231.252
 z
M -15.1884,-228.006 L -15.5621,-228.053 L -15.927,-228.147 L -16.2773,-228.286 L -16.6075,-228.467 L -16.9123,-228.688
 L -17.1869,-228.946 L -17.427,-229.237 L -17.6289,-229.555 L -17.7893,-229.896 L -17.9057,-230.254 L -17.9763,-230.624
 L -18,-231 L -17.9763,-231.376 L -17.9057,-231.746 L -17.7893,-232.104 L -17.6289,-232.445 L -17.427,-232.763
 L -17.1869,-233.054 L -16.9123,-233.312 L -16.6075,-233.533 L -16.2773,-233.714 L -15.927,-233.853 L -15.5621,-233.947
 L -15.1884,-233.994 L -14.8116,-233.994 L -14.4379,-233.947 L -14.0729,-233.853 L -13.7227,-233.714 L -13.3925,-233.533
 L -13.0877,-233.312 L -12.8131,-233.054 L -12.5729,-232.763 L -12.3711,-232.445 L -12.2107,-232.104 L -12.0942,-231.746
 L -12.0237,-231.376 L -12,-231 L -12.0237,-230.624 L -12.0942,-230.254 L -12.2107,-229.896 L -12.3711,-229.555
 L -12.5729,-229.237 L -12.8131,-228.946 L -13.0877,-228.688 L -13.3925,-228.467 L -13.7227,-228.286 L -14.0729,-228.147
 L -14.4379,-228.053 L -14.8116,-228.006 z
M 14.8116,-228.006 L 14.4379,-228.053 L 14.0729,-228.147 L 13.7227,-228.286 L 13.3925,-228.467 L 13.0877,-228.688
 L 12.8131,-228.946 L 12.5729,-229.237 L 12.3711,-229.555 L 12.2107,-229.896 L 12.0942,-230.254 L 12.0237,-230.624
 L 12,-231 L 12.0237,-231.376 L 12.0942,-231.746 L 12.2107,-232.104 L 12.3711,-232.445 L 12.5729,-232.763
 L 12.8131,-233.054 L 13.0877,-233.312 L 13.3925,-233.533 L 13.7227,-233.714 L 14.0729,-233.853 L 14.4379,-233.947
 L 14.8116,-233.994 L 15.1884,-233.994 L 15.5621,-233.947 L 15.927,-233.853 L 16.2773,-233.714 L 16.6075,-233.533
 L 16.9123,-233.312 L 17.1869,-233.054 L 17.427,-232.763 L 17.6289,-232.445 L 17.7893,-232.104 L 17.9057,-231.746
 L 17.9763,-231.376 L 18,-231 L 17.9763,-230.624 L 17.9057,-230.254 L 17.7893,-229.896 L 17.6289,-229.555
 L 17.427,-229.237 L 17.1869,-228.946 L 16.9123,-228.688 L 16.6075,-228.467 L 16.2773,-228.286 L 15.927,-228.147
 L 15.5621,-228.053 L 15.1884,-228.006 z
M -0.847672,-202.527 L -2.52963,-202.739 L -4.17172,-203.161 L -5.74802,-203.785 L -7.23366,-204.602 L -8.60521,-205.598
 L -9.84106,-206.759 L -10.9217,-208.065 L -11.8301,-209.496 L -12.552,-211.03 L -13.0759,-212.643 L -13.3935,-214.308
 L -13.5,-216 L -13.3935,-217.692 L -13.0759,-219.357 L -12.552,-220.97 L -11.8301,-222.504 L -10.9217,-223.935
 L -9.84106,-225.241 L -8.60521,-226.402 L -7.23366,-227.398 L -5.74802,-228.215 L -4.17172,-228.839 L -2.52963,-229.261
 L -0.847672,-229.473 L 0.847672,-229.473 L 2.52963,-229.261 L 4.17172,-228.839 L 5.74802,-228.215 L 7.23366,-227.398
 L 8.60521,-226.402 L 9.84106,-225.241 L 10.9217,-223.935 L 11.8301,-222.504 L 12.552,-220.97 L 13.0759,-219.357
 L 13.3935,-217.692 L 13.5,-216 L 13.3935,-214.308 L 13.0759,-212.643 L 12.552,-211.03 L 11.8301,-209.496
 L 10.9217,-208.065 L 9.84106,-206.759 L 8.60521,-205.598 L 7.23366,-204.602 L 5.74802,-203.785 L 4.17172,-203.161
 L 2.52963,-202.739 L 0.847672,-202.527 z
M 2.34225,-203.721 L 3.8627,-204.112 L 5.32224,-204.69 L 6.69783,-205.446 L 7.96779,-206.369 L 9.11211,-207.443
 L 10.1127,-208.653 L 10.9538,-209.978 L 11.6222,-211.398 L 12.1073,-212.891 L 12.4014,-214.433 L 12.5,-216
 L 12.4014,-217.567 L 12.1073,-219.109 L 11.6222,-220.602 L 10.9538,-222.022 L 10.1127,-223.347 L 9.11211,-224.557
 L 7.96779,-225.631 L 6.69783,-226.554 L 5.32224,-227.31 L 3.8627,-227.888 L 2.34225,-228.279 L 0.784866,-228.475
 L -0.784866,-228.475 L -2.34225,-228.279 L -3.8627,-227.888 L -5.32224,-227.31 L -6.69783,-226.554 L -7.96779,-225.631
 L -9.11211,-224.557 L -10.1127,-223.347 L -10.9538,-222.022 L -11.6222,-220.602 L -12.1073,-219.109 L -12.4014,-217.567
 L -12.5,-216 L -12.4014,-214.433 L -12.1073,-212.891 L -11.6222,-211.398 L -10.9538,-209.978 L -10.1127,-208.653
 L -9.11211,-207.443 L -7.96779,-206.369 L -6.69783,-205.446 L -5.32224,-204.69 L -3.8627,-204.112 L -2.34225,-203.721
 L -0.784866,-203.525 L 0.784866,-203.525 z
M -0.144409,-221.205 L -0.430969,-221.241 L -0.710724,-221.313 L -0.979279,-221.419 L -1.23239,-221.558 L -1.46606,-221.728
 L -1.67662,-221.926 L -1.86073,-222.148 L -2.0155,-222.392 L -2.13847,-222.653 L -2.22774,-222.928 L -2.28186,-223.212
 L -2.29999,-223.5 L -2.28186,-223.788 L -2.22774,-224.072 L -2.13847,-224.347 L -2.0155,-224.608 L -1.86073,-224.852
 L -1.67662,-225.074 L -1.46606,-225.272 L -1.23239,-225.442 L -0.979279,-225.581 L -0.710724,-225.687 L -0.430969,-225.759
 L -0.144409,-225.795 L 0.144409,-225.795 L 0.430969,-225.759 L 0.710724,-225.687 L 0.979279,-225.581 L 1.23239,-225.442
 L 1.46606,-225.272 L 1.67662,-225.074 L 1.86073,-224.852 L 2.0155,-224.608 L 2.13847,-224.347 L 2.22774,-224.072
 L 2.28186,-223.788 L 2.29999,-223.5 L 2.28186,-223.212 L 2.22774,-222.928 L 2.13847,-222.653 L 2.0155,-222.392
 L 1.86073,-222.148 L 1.67662,-221.926 L 1.46606,-221.728 L 1.23239,-221.558 L 0.979279,-221.419 L 0.710724,-221.313
 L 0.430969,-221.241 L 0.144409,-221.205 z
M -0.18837,-213.006 L -0.562134,-213.053 L -0.927048,-213.147 L -1.27733,-213.286 L -1.60747,-213.467 L -1.91226,-213.688
 L -2.1869,-213.946 L -2.42705,-214.237 L -2.62891,-214.555 L -2.78932,-214.896 L -2.90575,-215.254 L -2.97633,-215.624
 L -3,-216 L -2.97633,-216.376 L -2.90575,-216.746 L -2.78932,-217.104 L -2.62891,-217.445 L -2.42705,-217.763
 L -2.1869,-218.054 L -1.91226,-218.312 L -1.60747,-218.533 L -1.27733,-218.714 L -0.927048,-218.853 L -0.562134,-218.947
 L -0.18837,-218.994 L 0.18837,-218.994 L 0.562134,-218.947 L 0.927048,-218.853 L 1.27733,-218.714 L 1.60747,-218.533
 L 1.91226,-218.312 L 2.1869,-218.054 L 2.42705,-217.763 L 2.62891,-217.445 L 2.78932,-217.104 L 2.90575,-216.746
 L 2.97633,-216.376 L 3,-216 L 2.97633,-215.624 L 2.90575,-215.254 L 2.78932,-214.896 L 2.62891,-214.555
 L 2.42705,-214.237 L 2.1869,-213.946 L 1.91226,-213.688 L 1.60747,-213.467 L 1.27733,-213.286 L 0.927048,-213.147
 L 0.562134,-213.053 L 0.18837,-213.006 z
M 7.40581,-214.503 L 7.21892,-214.527 L 7.03647,-214.573 L 6.86133,-214.643 L 6.69626,-214.734 L 6.54385,-214.844
 L 6.40654,-214.973 L 6.28647,-215.118 L 6.18553,-215.277 L 6.10533,-215.448 L 6.04712,-215.627 L 6.01183,-215.812
 L 6,-216 L 6.01183,-216.188 L 6.04712,-216.373 L 6.10533,-216.552 L 6.18553,-216.723 L 6.28647,-216.882
 L 6.40654,-217.027 L 6.54385,-217.156 L 6.69626,-217.266 L 6.86133,-217.357 L 7.03647,-217.427 L 7.21892,-217.473
 L 7.40581,-217.497 L 7.59418,-217.497 L 7.78107,-217.473 L 7.96352,-217.427 L 8.13866,-217.357 L 8.30373,-217.266
 L 8.45613,-217.156 L 8.59344,-217.027 L 8.71352,-216.882 L 8.81445,-216.723 L 8.89465,-216.552 L 8.95287,-216.373
 L 8.98816,-216.188 L 9,-216 L 8.98816,-215.812 L 8.95287,-215.627 L 8.89465,-215.448 L 8.81445,-215.277
 L 8.71352,-215.118 L 8.59344,-214.973 L 8.45613,-214.844 L 8.30373,-214.734 L 8.13866,-214.643 L 7.96352,-214.573
 L 7.78107,-214.527 L 7.59418,-214.503 z
M -7.59418,-214.503 L -7.78107,-214.527 L -7.96352,-214.573 L -8.13866,-214.643 L -8.30373,-214.734 L -8.45613,-214.844
 L -8.59344,-214.973 L -8.71352,-215.118 L -8.81445,-215.277 L -8.89465,-215.448 L -8.95287,-215.627 L -8.98816,-215.812
 L -9,-216 L -8.98816,-216.188 L -8.95287,-216.373 L -8.89465,-216.552 L -8.81445,-216.723 L -8.71352,-216.882
 L -8.59344,-217.027 L -8.45613,-217.156 L -8.30373,-217.266 L -8.13866,-217.357 L -7.96352,-217.427 L -7.78107,-217.473
 L -7.59418,-217.497 L -7.40581,-217.497 L -7.21892,-217.473 L -7.03647,-217.427 L -6.86133,-217.357 L -6.69626,-217.266
 L -6.54385,-217.156 L -6.40654,-217.027 L -6.28647,-216.882 L -6.18553,-216.723 L -6.10533,-216.552 L -6.04712,-216.373
 L -6.01183,-216.188 L -6,-216 L -6.01183,-215.812 L -6.04712,-215.627 L -6.10533,-215.448 L -6.18553,-215.277
 L -6.28647,-215.118 L -6.40654,-214.973 L -6.54385,-214.844 L -6.69626,-214.734 L -6.86133,-214.643 L -7.03647,-214.573
 L -7.21892,-214.527 L -7.40581,-214.503 z
M -1.58675,-205.752 L -3.17349,-208.5 L -1.58675,-211.248 L 1.58675,-211.248 L 3.17349,-208.5 L 1.58675,-205.752
 z
M 15.2517,-214.413 L 15.2517,-217.587 L 18,-219.173 L 20.7483,-217.587 L 20.7483,-214.413 L 18,-212.827
 z
M -18.3836,-213.732 L -18.6648,-213.798 L -18.9355,-213.899 L -19.1915,-214.033 L -19.4286,-214.198 L -19.6433,-214.391
 L -19.832,-214.609 L -19.9919,-214.85 L -20.1203,-215.109 L -20.2153,-215.381 L -20.2753,-215.664 L -20.2995,-215.952
 L -20.2874,-216.24 L -20.2392,-216.525 L -20.1557,-216.802 L -20.0383,-217.066 L -19.8886,-217.313 L -19.7092,-217.539
 L -19.5029,-217.741 L -19.2728,-217.916 L -19.0227,-218.06 L -18.7564,-218.172 L -18.4782,-218.25 L -18.1925,-218.292
 L -17.9037,-218.298 L -17.6164,-218.268 L -17.3352,-218.202 L -17.0645,-218.101 L -16.8085,-217.967 L -16.5714,-217.802
 L -16.3567,-217.609 L -16.168,-217.391 L -16.0081,-217.15 L -15.8797,-216.891 L -15.7847,-216.619 L -15.7247,-216.336
 L -15.7005,-216.048 L -15.7126,-215.76 L -15.7608,-215.475 L -15.8442,-215.198 L -15.9617,-214.934 L -16.1113,-214.687
 L -16.2908,-214.461 L -16.4971,-214.259 L -16.7272,-214.084 L -16.9773,-213.94 L -17.2436,-213.828 L -17.5218,-213.75
 L -17.8075,-213.708 L -18.0963,-213.702 z
M -15.1884,-198.006 L -15.5621,-198.053 L -15.927,-198.147 L -16.2773,-198.286 L -16.6075,-198.467 L -16.9123,-198.688
 L -17.1869,-198.946 L -17.427,-199.237 L -17.6289,-199.555 L -17.7893,-199.896 L -17.9057,-200.254 L -17.9763,-200.624
 L -18,-201 L -17.9763,-201.376 L -17.9057,-201.746 L -17.7893,-202.104 L -17.6289,-202.445 L -17.427,-202.763
 L -17.1869,-203.054 L -16.9123,-203.312 L -16.6075,-203.533 L -16.2773,-203.714 L -15.927,-203.853 L -15.5621,-203.947
 L -15.1884,-203.994 L -14.8116,-203.994 L -14.4379,-203.947 L -14.0729,-203.853 L -13.7227,-203.714 L -13.3925,-203.533
 L -13.0877,-203.312 L -12.8131,-203.054 L -12.5729,-202.763 L -12.3711,-202.445 L -12.2107,-202.104 L -12.0942,-201.746
 L -12.0237,-201.376 L -12,-201 L -12.0237,-200.624 L -12.0942,-200.254 L -12.2107,-199.896 L -12.3711,-199.555
 L -12.5729,-199.237 L -12.8131,-198.946 L -13.0877,-198.688 L -13.3925,-198.467 L -13.7227,-198.286 L -14.0729,-198.147
 L -14.4379,-198.053 L -14.8116,-198.006 z
M 14.8116,-198.006 L 14.4379,-198.053 L 14.0729,-198.147 L 13.7227,-198.286 L 13.3925,-198.467 L 13.0877,-198.688
 L 12.8131,-198.946 L 12.5729,-199.237 L 12.3711,-199.555 L 12.2107,-199.896 L 12.0942,-200.254 L 12.0237,-200.624
 L 12,-201 L 12.0237,-201.376 L 12.0942,-201.746 L 12.2107,-202.104 L 12.3711,-202.445 L 12.5729,-202.763
 L 12.8131,-203.054 L 13.0877,-203.312 L 13.3925,-203.533 L 13.7227,-203.714 L 14.0729,-203.853 L 14.4379,-203.947
 L 14.8116,-203.994 L 15.1884,-203.994 L 15.5621,-203.947 L 15.927,-203.853 L 16.2773,-203.714 L 16.6075,-203.533
 L 16.9123,-203.312 L 17.1869,-203.054 L 17.427,-202.763 L 17.6289,-202.445 L 17.7893,-202.104 L 17.9057,-201.746
 L 17.9763,-201.376 L 18,-201 L 17.9763,-200.624 L 17.9057,-200.254 L 17.7893,-199.896 L 17.6289,-199.555
 L 17.427,-199.237 L 17.1869,-198.946 L 16.9123,-198.688 L 16.6075,-198.467 L 16.2773,-198.286 L 15.927,-198.147
 L 15.5621,-198.053 L 15.1884,-198.006 z
M -0.144409,-195.705 L -0.430969,-195.741 L -0.710724,-195.813 L -0.979279,-195.919 L -1.23239,-196.058 L -1.46606,-196.228
 L -1.67662,-196.426 L -1.86073,-196.648 L -2.0155,-196.892 L -2.13847,-197.153 L -2.22774,-197.428 L -2.28186,-197.712
 L -2.29999,-198 L -2.28186,-198.288 L -2.22774,-198.572 L -2.13847,-198.847 L -2.0155,-199.108 L -1.86073,-199.352
 L -1.67662,-199.574 L -1.46606,-199.772 L -1.23239,-199.942 L -0.979279,-200.081 L -0.710724,-200.187 L -0.430969,-200.259
 L -0.144409,-200.295 L 0.144409,-200.295 L 0.430969,-200.259 L 0.710724,-200.187 L 0.979279,-200.081 L 1.23239,-199.942
 L 1.46606,-199.772 L 1.67662,-199.574 L 1.86073,-199.352 L 2.0155,-199.108 L 2.13847,-198.847 L 2.22774,-198.572
 L 2.28186,-198.288 L 2.29999,-198 L 2.28186,-197.712 L 2.22774,-197.428 L 2.13847,-197.153 L 2.0155,-196.892
 L 1.86073,-196.648 L 1.67662,-196.426 L 1.46606,-196.228 L 1.23239,-196.058 L 0.979279,-195.919 L 0.710724,-195.813
 L 0.430969,-195.741 L 0.144409,-195.705 z
M 17.9369,-140.089 L 18.5451,-140.245 L 19.1289,-140.476 L 19.6791,-140.778 L 20.1871,-141.147 L 20.6448,-141.577
 L 21.0451,-142.061 L 21.3815,-142.591 L 21.6489,-143.159 L 21.8429,-143.757 L 21.9606,-144.373 L 22,-145
 L 22,-179 L 21.9606,-179.627 L 21.8429,-180.243 L 21.6489,-180.841 L 21.3815,-181.409 L 21.0451,-181.939
 L 20.6448,-182.423 L 20.1871,-182.853 L 19.6791,-183.222 L 19.1289,-183.524 L 18.5451,-183.755 L 17.9369,-183.911
 L 17.3139,-183.99 L -17.3139,-183.99 L -17.9369,-183.911 L -18.5451,-183.755 L -19.1289,-183.524 L -19.6791,-183.222
 L -20.1871,-182.853 L -20.6448,-182.423 L -21.0451,-181.939 L -21.3815,-181.409 L -21.6489,-180.841 L -21.8429,-180.243
 L -21.9606,-179.627 L -22,-179 L -22,-145 L -21.9606,-144.373 L -21.8429,-143.757 L -21.6489,-143.159
 L -21.3815,-142.591 L -21.0451,-142.061 L -20.6448,-141.577 L -20.1871,-141.147 L -19.6791,-140.778 L -19.1289,-140.476
 L -18.5451,-140.245 L -17.9369,-140.089 L -17.3139,-140.01 L 17.3139,-140.01 z
M -1.58675,-141.252 L -3.17349,-144 L -1.93285,-146.149 L -2.99809,-146.283 L -4.94426,-146.783 L -6.81245,-147.523
 L -8.57323,-148.491 L -10.1988,-149.672 L -11.6635,-151.047 L -12.9443,-152.595 L -14.0209,-154.292 L -14.8764,-156.11
 L -15.4973,-158.021 L -15.8738,-159.995 L -15.8774,-160.052 L -18,-158.827 L -20.7483,-160.413 L -20.7483,-163.587
 L -18,-165.173 L -15.8774,-163.948 L -15.8738,-164.005 L -15.4973,-165.979 L -14.8764,-167.89 L -14.0209,-169.708
 L -12.9443,-171.405 L -11.6635,-172.953 L -10.1988,-174.328 L -8.57323,-175.509 L -6.81245,-176.477 L -4.94426,-177.217
 L -2.99809,-177.717 L -1.93285,-177.851 L -3.17349,-180 L -1.58675,-182.748 L 1.58675,-182.748 L 3.17349,-180
 L 1.93285,-177.851 L 2.99809,-177.717 L 4.94426,-177.217 L 6.81245,-176.477 L 8.57323,-175.509 L 10.1988,-174.328
 L 11.6635,-172.953 L 12.9443,-171.405 L 14.0209,-169.708 L 14.8764,-167.89 L 15.4973,-165.979 L 15.8738,-164.005
 L 15.8774,-163.948 L 18,-165.173 L 20.7483,-163.587 L 20.7483,-160.413 L 18,-158.827 L 15.8774,-160.052
 L 15.8738,-159.995 L 15.4973,-158.021 L 14.8764,-156.11 L 14.0209,-154.292 L 12.9443,-152.595 L 11.6635,-151.047
 L 10.1988,-149.672 L 8.57323,-148.491 L 6.81245,-147.523 L 4.94426,-146.783 L 2.99809,-146.283 L 1.93285,-146.149
 L 3.17349,-144 L 1.58675,-141.252 z
M 1.87381,-152.177 L 3.09016,-152.489 L 4.25778,-152.952 L 5.35826,-153.557 L 6.37424,-154.295 L 7.28967,-155.155
 L 8.09016,-156.122 L 8.76306,-157.182 L 9.29776,-158.319 L 9.68582,-159.513 L 9.92114,-160.747 L 10,-162
 L 9.92114,-163.253 L 9.68582,-164.487 L 9.29776,-165.681 L 8.76306,-166.818 L 8.09016,-167.878 L 7.28967,-168.845
 L 6.37424,-169.705 L 5.35826,-170.443 L 4.25778,-171.048 L 3.09016,-171.511 L 1.87381,-171.823 L 1.82912,-171.829
 L 3.17349,-169.5 L 1.58675,-166.752 L -1.58675,-166.752 L -3.17349,-169.5 L -1.82912,-171.829 L -1.87381,-171.823
 L -3.09016,-171.511 L -4.25778,-171.048 L -5.35826,-170.443 L -6.37424,-169.705 L -7.28967,-168.845 L -8.09016,-167.878
 L -8.76306,-166.818 L -9.29776,-165.681 L -9.68582,-164.487 L -9.92114,-163.253 L -10,-162 L -9.92114,-160.747
 L -9.68582,-159.513 L -9.29776,-158.319 L -8.76306,-157.182 L -8.09016,-156.122 L -7.28967,-155.155 L -6.37424,-154.295
 L -5.35826,-153.557 L -4.25778,-152.952 L -3.09016,-152.489 L -1.87381,-152.177 L -1.82912,-152.171 L -3.17349,-154.5
 L -1.58675,-157.248 L 1.58675,-157.248 L 3.17349,-154.5 L 1.82912,-152.171 z
M -0.18837,-159.006 L -0.562134,-159.053 L -0.927048,-159.147 L -1.27733,-159.286 L -1.60747,-159.467 L -1.91226,-159.688
 L -2.1869,-159.946 L -2.42705,-160.237 L -2.62891,-160.555 L -2.78932,-160.896 L -2.90575,-161.254 L -2.97633,-161.624
 L -3,-162 L -2.97633,-162.376 L -2.90575,-162.746 L -2.78932,-163.104 L -2.62891,-163.445 L -2.42705,-163.763
 L -2.1869,-164.054 L -1.91226,-164.312 L -1.60747,-164.533 L -1.27733,-164.714 L -0.927048,-164.853 L -0.562134,-164.947
 L -0.18837,-164.994 L 0.18837,-164.994 L 0.562134,-164.947 L 0.927048,-164.853 L 1.27733,-164.714 L 1.60747,-164.533
 L 1.91226,-164.312 L 2.1869,-164.054 L 2.42705,-163.763 L 2.62891,-163.445 L 2.78932,-163.104 L 2.90575,-162.746
 L 2.97633,-162.376 L 3,-162 L 2.97633,-161.624 L 2.90575,-161.254 L 2.78932,-160.896 L 2.62891,-160.555
 L 2.42705,-160.237 L 2.1869,-159.946 L 1.91226,-159.688 L 1.60747,-159.467 L 1.27733,-159.286 L 0.927048,-159.147
 L 0.562134,-159.053 L 0.18837,-159.006 z
M 7.40581,-160.503 L 7.21892,-160.527 L 7.03647,-160.573 L 6.86133,-160.643 L 6.69626,-160.734 L 6.54385,-160.844
 L 6.40654,-160.973 L 6.28647,-161.118 L 6.18553,-161.277 L 6.10533,-161.448 L 6.04712,-161.627 L 6.01183,-161.812
 L 6,-162 L 6.01183,-162.188 L 6.04712,-162.373 L 6.10533,-162.552 L 6.18553,-162.723 L 6.28647,-162.882
 L 6.40654,-163.027 L 6.54385,-163.156 L 6.69626,-163.266 L 6.86133,-163.357 L 7.03647,-163.427 L 7.21892,-163.473
 L 7.40581,-163.497 L 7.59418,-163.497 L 7.78107,-163.473 L 7.96352,-163.427 L 8.13866,-163.357 L 8.30373,-163.266
 L 8.45613,-163.156 L 8.59344,-163.027 L 8.71352,-162.882 L 8.81445,-162.723 L 8.89465,-162.552 L 8.95287,-162.373
 L 8.98816,-162.188 L 9,-162 L 8.98816,-161.812 L 8.95287,-161.627 L 8.89465,-161.448 L 8.81445,-161.277
 L 8.71352,-161.118 L 8.59344,-160.973 L 8.45613,-160.844 L 8.30373,-160.734 L 8.13866,-160.643 L 7.96352,-160.573
 L 7.78107,-160.527 L 7.59418,-160.503 z
M -7.59418,-160.503 L -7.78107,-160.527 L -7.96352,-160.573 L -8.13866,-160.643 L -8.30373,-160.734 L -8.45613,-160.844
 L -8.59344,-160.973 L -8.71352,-161.118 L -8.81445,-161.277 L -8.89465,-161.448 L -8.95287,-161.627 L -8.98816,-161.812
 L -9,-162 L -8.98816,-162.188 L -8.95287,-162.373 L -8.89465,-162.552 L -8.81445,-162.723 L -8.71352,-162.882
 L -8.59344,-163.027 L -8.45613,-163.156 L -8.30373,-163.266 L -8.13866,-163.357 L -7.96352,-163.427 L -7.78107,-163.473
 L -7.59418,-163.497 L -7.40581,-163.497 L -7.21892,-163.473 L -7.03647,-163.427 L -6.86133,-163.357 L -6.69626,-163.266
 L -6.54385,-163.156 L -6.40654,-163.027 L -6.28647,-162.882 L -6.18553,-162.723 L -6.10533,-162.552 L -6.04712,-162.373
 L -6.01183,-162.188 L -6,-162 L -6.01183,-161.812 L -6.04712,-161.627 L -6.10533,-161.448 L -6.18553,-161.277
 L -6.28647,-161.118 L -6.40654,-160.973 L -6.54385,-160.844 L -6.69626,-160.734 L -6.86133,-160.643 L -7.03647,-160.573
 L -7.21892,-160.527 L -7.40581,-160.503 z
M 14.8116,-174.006 L 14.4379,-174.053 L 14.0729,-174.147 L 13.7227,-174.286 L 13.3925,-174.467 L 13.0877,-174.688
 L 12.8131,-174.946 L 12.5729,-175.237 L 12.3711,-175.555 L 12.2107,-175.896 L 12.0942,-176.254 L 12.0237,-176.624
 L 12,-177 L 12.0237,-177.376 L 12.0942,-177.746 L 12.2107,-178.104 L 12.3711,-178.445 L 12.5729,-178.763
 L 12.8131,-179.054 L 13.0877,-179.312 L 13.3925,-179.533 L 13.7227,-179.714 L 14.0729,-179.853 L 14.4379,-179.947
 L 14.8116,-179.994 L 15.1884,-179.994 L 15.5621,-179.947 L 15.927,-179.853 L 16.2773,-179.714 L 16.6075,-179.533
 L 16.9123,-179.312 L 17.1869,-179.054 L 17.427,-178.763 L 17.6289,-178.445 L 17.7893,-178.104 L 17.9057,-177.746
 L 17.9763,-177.376 L 18,-177 L 17.9763,-176.624 L 17.9057,-176.254 L 17.7893,-175.896 L 17.6289,-175.555
 L 17.427,-175.237 L 17.1869,-174.946 L 16.9123,-174.688 L 16.6075,-174.467 L 16.2773,-174.286 L 15.927,-174.147
 L 15.5621,-174.053 L 15.1884,-174.006 z
M -15.1884,-174.006 L -15.5621,-174.053 L -15.927,-174.147 L -16.2773,-174.286 L -16.6075,-174.467 L -16.9123,-174.688
 L -17.1869,-174.946 L -17.427,-175.237 L -17.6289,-175.555 L -17.7893,-175.896 L -17.9057,-176.254 L -17.9763,-176.624
 L -18,-177 L -17.9763,-177.376 L -17.9057,-177.746 L -17.7893,-178.104 L -17.6289,-178.445 L -17.427,-178.763
 L -17.1869,-179.054 L -16.9123,-179.312 L -16.6075,-179.533 L -16.2773,-179.714 L -15.927,-179.853 L -15.5621,-179.947
 L -15.1884,-179.994 L -14.8116,-179.994 L -14.4379,-179.947 L -14.0729,-179.853 L -13.7227,-179.714 L -13.3925,-179.533
 L -13.0877,-179.312 L -12.8131,-179.054 L -12.5729,-178.763 L -12.3711,-178.445 L -12.2107,-178.104 L -12.0942,-177.746
 L -12.0237,-177.376 L -12,-177 L -12.0237,-176.624 L -12.0942,-176.254 L -12.2107,-175.896 L -12.3711,-175.555
 L -12.5729,-175.237 L -12.8131,-174.946 L -13.0877,-174.688 L -13.3925,-174.467 L -13.7227,-174.286 L -14.0729,-174.147
 L -14.4379,-174.053 L -14.8116,-174.006 z
M -15.1884,-144.006 L -15.5621,-144.053 L -15.927,-144.147 L -16.2773,-144.286 L -16.6075,-144.467 L -16.9123,-144.688
 L -17.1869,-144.946 L -17.427,-145.237 L -17.6289,-145.555 L -17.7893,-145.896 L -17.9057,-146.254 L -17.9763,-146.624
 L -18,-147 L -17.9763,-147.376 L -17.9057,-147.746 L -17.7893,-148.104 L -17.6289,-148.445 L -17.427,-148.763
 L -17.1869,-149.054 L -16.9123,-149.312 L -16.6075,-149.533 L -16.2773,-149.714 L -15.927,-149.853 L -15.5621,-149.947
 L -15.1884,-149.994 L -14.8116,-149.994 L -14.4379,-149.947 L -14.0729,-149.853 L -13.7227,-149.714 L -13.3925,-149.533
 L -13.0877,-149.312 L -12.8131,-149.054 L -12.5729,-148.763 L -12.3711,-148.445 L -12.2107,-148.104 L -12.0942,-147.746
 L -12.0237,-147.376 L -12,-147 L -12.0237,-146.624 L -12.0942,-146.254 L -12.2107,-145.896 L -12.3711,-145.555
 L -12.5729,-145.237 L -12.8131,-144.946 L -13.0877,-144.688 L -13.3925,-144.467 L -13.7227,-144.286 L -14.0729,-144.147
 L -14.4379,-144.053 L -14.8116,-144.006 z
M 14.8116,-144.006 L 14.4379,-144.053 L 14.0729,-144.147 L 13.7227,-144.286 L 13.3925,-144.467 L 13.0877,-144.688
 L 12.8131,-144.946 L 12.5729,-145.237 L 12.3711,-145.555 L 12.2107,-145.896 L 12.0942,-146.254 L 12.0237,-146.624
 L 12,-147 L 12.0237,-147.376 L 12.0942,-147.746 L 12.2107,-148.104 L 12.3711,-148.445 L 12.5729,-148.763
 L 12.8131,-149.054 L 13.0877,-149.312 L 13.3925,-149.533 L 13.7227,-149.714 L 14.0729,-149.853 L 14.4379,-149.947
 L 14.8116,-149.994 L 15.1884,-149.994 L 15.5621,-149.947 L 15.927,-149.853 L 16.2773,-149.714 L 16.6075,-149.533
 L 16.9123,-149.312 L 17.1869,-149.054 L 17.427,-148.763 L 17.6289,-148.445 L 17.7893,-148.104 L 17.9057,-147.746
 L 17.9763,-147.376 L 18,-147 L 17.9763,-146.624 L 17.9057,-146.254 L 17.7893,-145.896 L 17.6289,-145.555
 L 17.427,-145.237 L 17.1869,-144.946 L 16.9123,-144.688 L 16.6075,-144.467 L 16.2773,-144.286 L 15.927,-144.147
 L 15.5621,-144.053 L 15.1884,-144.006 z
M 17.9369,-86.0886 L 18.5451,-86.2447 L 19.1289,-86.4759 L 19.6791,-86.7784 L 20.1871,-87.1474 L 20.6448,-87.5773
 L 21.0451,-88.0611 L 21.3815,-88.5912 L 21.6489,-89.1594 L 21.8429,-89.7566 L 21.9606,-90.3733 L 22,-91
 L 22,-125 L 21.9606,-125.627 L 21.8429,-126.243 L 21.6489,-126.841 L 21.3815,-127.409 L 21.0451,-127.939
 L 20.6448,-128.423 L 20.1871,-128.853 L 19.6791,-129.222 L 19.1289,-129.524 L 18.5451,-129.755 L 17.9369,-129.911
 L 17.3139,-129.99 L -17.3139,-129.99 L -17.9369,-129.911 L -18.5451,-129.755 L -19.1289,-129.524 L -19.6791,-129.222
 L -20.1871,-128.853 L -20.6448,-128.423 L -21.0451,-127.939 L -21.3815,-127.409 L -21.6489,-126.841 L -21.8429,-126.243
 L -21.9606,-125.627 L -22,-125 L -22,-91 L -21.9606,-90.3733 L -21.8429,-89.7566 L -21.6489,-89.1594
 L -21.3815,-88.5912 L -21.0451,-88.0611 L -20.6448,-87.5773 L -20.1871,-87.1474 L -19.6791,-86.7784 L -19.1289,-86.4759
 L -18.5451,-86.2447 L -17.9369,-86.0886 L -17.3139,-86.0099 L 17.3139,-86.0099 z
M -1.58675,-87.2517 L -3.17349,-90 L -1.93285,-92.1488 L -2.99809,-92.2834 L -4.94426,-92.7831 L -6.81245,-93.5228
 L -8.57323,-94.4908 L -10.1988,-95.6718 L -11.6635,-97.0473 L -12.9443,-98.5954 L -14.0209,-100.292 L -14.8764,-102.11
 L -15.4973,-104.021 L -15.8738,-105.995 L -15.8774,-106.052 L -18,-104.827 L -20.7483,-106.413 L -20.7483,-109.587
 L -18,-111.173 L -15.8774,-109.948 L -15.8738,-110.005 L -15.4973,-111.979 L -14.8764,-113.89 L -14.0209,-115.708
 L -12.9443,-117.405 L -11.6635,-118.953 L -10.1988,-120.328 L -8.57323,-121.509 L -6.81245,-122.477 L -4.94426,-123.217
 L -2.99809,-123.717 L -1.93285,-123.851 L -3.17349,-126 L -1.58675,-128.748 L 1.58675,-128.748 L 3.17349,-126
 L 1.93285,-123.851 L 2.99809,-123.717 L 4.94426,-123.217 L 6.81245,-122.477 L 8.57323,-121.509 L 10.1988,-120.328
 L 11.6635,-118.953 L 12.9443,-117.405 L 14.0209,-115.708 L 14.8764,-113.89 L 15.4973,-111.979 L 15.8738,-110.005
 L 15.8774,-109.948 L 18,-111.173 L 20.7483,-109.587 L 20.7483,-106.413 L 18,-104.827 L 15.8774,-106.052
 L 15.8738,-105.995 L 15.4973,-104.021 L 14.8764,-102.11 L 14.0209,-100.292 L 12.9443,-98.5954 L 11.6635,-97.0473
 L 10.1988,-95.6718 L 8.57323,-94.4908 L 6.81245,-93.5228 L 4.94426,-92.7831 L 2.99809,-92.2834 L 1.93285,-92.1488
 L 3.17349,-90 L 1.58675,-87.2517 z
M 1.87381,-98.1771 L 3.09016,-98.4894 L 4.25778,-98.9517 L 5.35826,-99.5567 L 6.37424,-100.295 L 7.28967,-101.155
 L 8.09016,-102.122 L 8.76306,-103.182 L 9.29776,-104.319 L 9.68582,-105.513 L 9.92114,-106.747 L 10,-108
 L 9.92114,-109.253 L 9.68582,-110.487 L 9.29776,-111.681 L 8.76306,-112.818 L 8.09016,-113.878 L 7.28967,-114.845
 L 6.37424,-115.705 L 5.35826,-116.443 L 4.25778,-117.048 L 3.09016,-117.511 L 1.87381,-117.823 L 1.82912,-117.829
 L 3.17349,-115.5 L 1.58675,-112.752 L -1.58675,-112.752 L -3.17349,-115.5 L -1.82912,-117.829 L -1.87381,-117.823
 L -3.09016,-117.511 L -4.25778,-117.048 L -5.35826,-116.443 L -6.37424,-115.705 L -7.28967,-114.845 L -8.09016,-113.878
 L -8.76306,-112.818 L -9.29776,-111.681 L -9.68582,-110.487 L -9.92114,-109.253 L -10,-108 L -9.92114,-106.747
 L -9.68582,-105.513 L -9.29776,-104.319 L -8.76306,-103.182 L -8.09016,-102.122 L -7.28967,-101.155 L -6.37424,-100.295
 L -5.35826,-99.5567 L -4.25778,-98.9517 L -3.09016,-98.4894 L -1.87381,-98.1771 L -1.82912,-98.1715 L -3.17349,-100.5
 L -1.58675,-103.248 L 1.58675,-103.248 L 3.17349,-100.5 L 1.82912,-98.1715 z
M -0.18837,-105.006 L -0.562134,-105.053 L -0.927048,-105.147 L -1.27733,-105.286 L -1.60747,-105.467 L -1.91226,-105.688
 L -2.1869,-105.946 L -2.42705,-106.237 L -2.62891,-106.555 L -2.78932,-106.896 L -2.90575,-107.254 L -2.97633,-107.624
 L -3,-108 L -2.97633,-108.376 L -2.90575,-108.746 L -2.78932,-109.104 L -2.62891,-109.445 L -2.42705,-109.763
 L -2.1869,-110.054 L -1.91226,-110.312 L -1.60747,-110.533 L -1.27733,-110.714 L -0.927048,-110.853 L -0.562134,-110.947
 L -0.18837,-110.994 L 0.18837,-110.994 L 0.562134,-110.947 L 0.927048,-110.853 L 1.27733,-110.714 L 1.60747,-110.533
 L 1.91226,-110.312 L 2.1869,-110.054 L 2.42705,-109.763 L 2.62891,-109.445 L 2.78932,-109.104 L 2.90575,-108.746
 L 2.97633,-108.376 L 3,-108 L 2.97633,-107.624 L 2.90575,-107.254 L 2.78932,-106.896 L 2.62891,-106.555
 L 2.42705,-106.237 L 2.1869,-105.946 L 1.91226,-105.688 L 1.60747,-105.467 L 1.27733,-105.286 L 0.927048,-105.147
 L 0.562134,-105.053 L 0.18837,-105.006 z
M 7.40581,-106.503 L 7.21892,-106.527 L 7.03647,-106.573 L 6.86133,-106.643 L 6.69626,-106.734 L 6.54385,-106.844
 L 6.40654,-106.973 L 6.28647,-107.118 L 6.18553,-107.277 L 6.10533,-107.448 L 6.04712,-107.627 L 6.01183,-107.812
 L 6,-108 L 6.01183,-108.188 L 6.04712,-108.373 L 6.10533,-108.552 L 6.18553,-108.723 L 6.28647,-108.882
 L 6.40654,-109.027 L 6.54385,-109.156 L 6.69626,-109.266 L 6.86133,-109.357 L 7.03647,-109.427 L 7.21892,-109.473
 L 7.40581,-109.497 L 7.59418,-109.497 L 7.78107,-109.473 L 7.96352,-109.427 L 8.13866,-109.357 L 8.30373,-109.266
 L 8.45613,-109.156 L 8.59344,-109.027 L 8.71352,-108.882 L 8.81445,-108.723 L 8.89465,-108.552 L 8.95287,-108.373
 L 8.98816,-108.188 L 9,-108 L 8.98816,-107.812 L 8.95287,-107.627 L 8.89465,-107.448 L 8.81445,-107.277
 L 8.71352,-107.118 L 8.59344,-106.973 L 8.45613,-106.844 L 8.30373,-106.734 L 8.13866,-106.643 L 7.96352,-106.573
 L 7.78107,-106.527 L 7.59418,-106.503 z
M -7.59418,-106.503 L -7.78107,-106.527 L -7.96352,-106.573 L -8.13866,-106.643 L -8.30373,-106.734 L -8.45613,-106.844
 L -8.59344,-106.973 L -8.71352,-107.118 L -8.81445,-107.277 L -8.89465,-107.448 L -8.95287,-107.627 L -8.98816,-107.812
 L -9,-108 L -8.98816,-108.188 L -8.95287,-108.373 L -8.89465,-108.552 L -8.81445,-108.723 L -8.71352,-108.882
 L -8.59344,-109.027 L -8.45613,-109.156 L -8.30373,-109.266 L -8.13866,-109.357 L -7.96352,-109.427 L -7.78107,-109.473
 L -7.59418,-109.497 L -7.40581,-109.497 L -7.21892,-109.473 L -7.03647,-109.427 L -6.86133,-109.357 L -6.69626,-109.266
 L -6.54385,-109.156 L -6.40654,-109.027 L -6.28647,-108.882 L -6.18553,-108.723 L -6.10533,-108.552 L -6.04712,-108.373
 L -6.01183,-108.188 L -6,-108 L -6.01183,-107.812 L -6.04712,-107.627 L -6.10533,-107.448 L -6.18553,-107.277
 L -6.28647,-107.118 L -6.40654,-106.973 L -6.54385,-106.844 L -6.69626,-106.734 L -6.86133,-106.643 L -7.03647,-106.573
 L -7.21892,-106.527 L -7.40581,-106.503 z
M 14.8116,-120.006 L 14.4379,-120.053 L 14.0729,-120.147 L 13.7227,-120.286 L 13.3925,-120.467 L 13.0877,-120.688
 L 12.8131,-120.946 L 12.5729,-121.237 L 12.3711,-121.555 L 12.2107,-121.896 L 12.0942,-122.254 L 12.0237,-122.624
 L 12,-123 L 12.0237,-123.376 L 12.0942,-123.746 L 12.2107,-124.104 L 12.3711,-124.445 L 12.5729,-124.763
 L 12.8131,-125.054 L 13.0877,-125.312 L 13.3925,-125.533 L 13.7227,-125.714 L 14.0729,-125.853 L 14.4379,-125.947
 L 14.8116,-125.994 L 15.1884,-125.994 L 15.5621,-125.947 L 15.927,-125.853 L 16.2773,-125.714 L 16.6075,-125.533
 L 16.9123,-125.312 L 17.1869,-125.054 L 17.427,-124.763 L 17.6289,-124.445 L 17.7893,-124.104 L 17.9057,-123.746
 L 17.9763,-123.376 L 18,-123 L 17.9763,-122.624 L 17.9057,-122.254 L 17.7893,-121.896 L 17.6289,-121.555
 L 17.427,-121.237 L 17.1869,-120.946 L 16.9123,-120.688 L 16.6075,-120.467 L 16.2773,-120.286 L 15.927,-120.147
 L 15.5621,-120.053 L 15.1884,-120.006 z
M -15.1884,-120.006 L -15.5621,-120.053 L -15.927,-120.147 L -16.2773,-120.286 L -16.6075,-120.467 L -16.9123,-120.688
 L -17.1869,-120.946 L -17.427,-121.237 L -17.6289,-121.555 L -17.7893,-121.896 L -17.9057,-122.254 L -17.9763,-122.624
 L -18,-123 L -17.9763,-123.376 L -17.9057,-123.746 L -17.7893,-124.104 L -17.6289,-124.445 L -17.427,-124.763
 L -17.1869,-125.054 L -16.9123,-125.312 L -16.6075,-125.533 L -16.2773,-125.714 L -15.927,-125.853 L -15.5621,-125.947
 L -15.1884,-125.994 L -14.8116,-125.994 L -14.4379,-125.947 L -14.0729,-125.853 L -13.7227,-125.714 L -13.3925,-125.533
 L -13.0877,-125.312 L -12.8131,-125.054 L -12.5729,-124.763 L -12.3711,-124.445 L -12.2107,-124.104 L -12.0942,-123.746
 L -12.0237,-123.376 L -12,-123 L -12.0237,-122.624 L -12.0942,-122.254 L -12.2107,-121.896 L -12.3711,-121.555
 L -12.5729,-121.237 L -12.8131,-120.946 L -13.0877,-120.688 L -13.3925,-120.467 L -13.7227,-120.286 L -14.0729,-120.147
 L -14.4379,-120.053 L -14.8116,-120.006 z
M 14.8116,-90.0059 L 14.4379,-90.0531 L 14.0729,-90.1468 L 13.7227,-90.2855 L 13.3925,-90.467 L 13.0877,-90.6885
 L 12.8131,-90.9464 L 12.5729,-91.2366 L 12.3711,-91.5547 L 12.2107,-91.8956 L 12.0942,-92.2539 L 12.0237,-92.624
 L 12,-93 L 12.0237,-93.376 L 12.0942,-93.7461 L 12.2107,-94.1044 L 12.3711,-94.4453 L 12.5729,-94.7634
 L 12.8131,-95.0536 L 13.0877,-95.3116 L 13.3925,-95.533 L 13.7227,-95.7145 L 14.0729,-95.8532 L 14.4379,-95.9469
 L 14.8116,-95.9941 L 15.1884,-95.9941 L 15.5621,-95.9469 L 15.927,-95.8532 L 16.2773,-95.7145 L 16.6075,-95.533
 L 16.9123,-95.3116 L 17.1869,-95.0536 L 17.427,-94.7634 L 17.6289,-94.4453 L 17.7893,-94.1044 L 17.9057,-93.7461
 L 17.9763,-93.376 L 18,-93 L 17.9763,-92.624 L 17.9057,-92.2539 L 17.7893,-91.8956 L 17.6289,-91.5547
 L 17.427,-91.2366 L 17.1869,-90.9464 L 16.9123,-90.6885 L 16.6075,-90.467 L 16.2773,-90.2855 L 15.927,-90.1468
 L 15.5621,-90.0531 L 15.1884,-90.0059 z
M -15.1884,-90.0059 L -15.5621,-90.0531 L -15.927,-90.1468 L -16.2773,-90.2855 L -16.6075,-90.467 L -16.9123,-90.6885
 L -17.1869,-90.9464 L -17.427,-91.2366 L -17.6289,-91.5547 L -17.7893,-91.8956 L -17.9057,-92.2539 L -17.9763,-92.624
 L -18,-93 L -17.9763,-93.376 L -17.9057,-93.7461 L -17.7893,-94.1044 L -17.6289,-94.4453 L -17.427,-94.7634
 L -17.1869,-95.0536 L -16.9123,-95.3116 L -16.6075,-95.533 L -16.2773,-95.7145 L -15.927,-95.8532 L -15.5621,-95.9469
 L -15.1884,-95.9941 L -14.8116,-95.9941 L -14.4379,-95.9469 L -14.0729,-95.8532 L -13.7227,-95.7145 L -13.3925,-95.533
 L -13.0877,-95.3116 L -12.8131,-95.0536 L -12.5729,-94.7634 L -12.3711,-94.4453 L -12.2107,-94.1044 L -12.0942,-93.7461
 L -12.0237,-93.376 L -12,-93 L -12.0237,-92.624 L -12.0942,-92.2539 L -12.2107,-91.8956 L -12.3711,-91.5547
 L -12.5729,-91.2366 L -12.8131,-90.9464 L -13.0877,-90.6885 L -13.3925,-90.467 L -13.7227,-90.2855 L -14.0729,-90.1468
 L -14.4379,-90.0531 L -14.8116,-90.0059 z
M 17.9369,-32.0886 L 18.5451,-32.2447 L 19.1289,-32.4759 L 19.6791,-32.7784 L 20.1871,-33.1474 L 20.6448,-33.5773
 L 21.0451,-34.0611 L 21.3815,-34.5912 L 21.6489,-35.1594 L 21.8429,-35.7566 L 21.9606,-36.3733 L 22,-37
 L 22,-71 L 21.9606,-71.6267 L 21.8429,-72.2434 L 21.6489,-72.8406 L 21.3815,-73.4088 L 21.0451,-73.9389
 L 20.6448,-74.4227 L 20.1871,-74.8526 L 19.6791,-75.2216 L 19.1289,-75.5241 L 18.5451,-75.7553 L 17.9369,-75.9114
 L 17.3139,-75.9901 L -17.3139,-75.9901 L -17.9369,-75.9114 L -18.5451,-75.7553 L -19.1289,-75.5241 L -19.6791,-75.2216
 L -20.1871,-74.8526 L -20.6448,-74.4227 L -21.0451,-73.9389 L -21.3815,-73.4088 L -21.6489,-72.8406 L -21.8429,-72.2434
 L -21.9606,-71.6267 L -22,-71 L -22,-37 L -21.9606,-36.3733 L -21.8429,-35.7566 L -21.6489,-35.1594
 L -21.3815,-34.5912 L -21.0451,-34.0611 L -20.6448,-33.5773 L -20.1871,-33.1474 L -19.6791,-32.7784 L -19.1289,-32.4759
 L -18.5451,-32.2447 L -17.9369,-32.0886 L -17.3139,-32.0099 L 17.3139,-32.0099 z
M -1.58675,-33.2517 L -3.17349,-36 L -1.93285,-38.1488 L -2.99809,-38.2834 L -4.94426,-38.7831 L -6.81245,-39.5228
 L -8.57323,-40.4908 L -10.1988,-41.6718 L -11.6635,-43.0473 L -12.9443,-44.5954 L -14.0209,-46.2919 L -14.8764,-48.11
 L -15.4973,-50.021 L -15.8738,-51.9947 L -15.8774,-52.052 L -18,-50.8265 L -20.7483,-52.4133 L -20.7483,-55.5867
 L -18,-57.1735 L -15.8774,-55.948 L -15.8738,-56.0053 L -15.4973,-57.979 L -14.8764,-59.89 L -14.0209,-61.7081
 L -12.9443,-63.4046 L -11.6635,-64.9527 L -10.1988,-66.3282 L -8.57323,-67.5092 L -6.81245,-68.4772 L -4.94426,-69.2169
 L -2.99809,-69.7166 L -1.93285,-69.8512 L -3.17349,-72 L -1.58675,-74.7483 L 1.58675,-74.7483 L 3.17349,-72
 L 1.93285,-69.8512 L 2.99809,-69.7166 L 4.94426,-69.2169 L 6.81245,-68.4772 L 8.57323,-67.5092 L 10.1988,-66.3282
 L 11.6635,-64.9527 L 12.9443,-63.4046 L 14.0209,-61.7081 L 14.8764,-59.89 L 15.4973,-57.979 L 15.8738,-56.0053
 L 15.8774,-55.948 L 18,-57.1735 L 20.7483,-55.5867 L 20.7483,-52.4133 L 18,-50.8265 L 15.8774,-52.052
 L 15.8738,-51.9947 L 15.4973,-50.021 L 14.8764,-48.11 L 14.0209,-46.2919 L 12.9443,-44.5954 L 11.6635,-43.0473
 L 10.1988,-41.6718 L 8.57323,-40.4908 L 6.81245,-39.5228 L 4.94426,-38.7831 L 2.99809,-38.2834 L 1.93285,-38.1488
 L 3.17349,-36 L 1.58675,-33.2517 z
M 1.87381,-44.1771 L 3.09016,-44.4894 L 4.25778,-44.9517 L 5.35826,-45.5567 L 6.37424,-46.2949 L 7.28967,-47.1545
 L 8.09016,-48.1222 L 8.76306,-49.1825 L 9.29776,-50.3188 L 9.68582,-51.5131 L 9.92114,-52.7467 L 10,-54
 L 9.92114,-55.2533 L 9.68582,-56.4869 L 9.29776,-57.6812 L 8.76306,-58.8175 L 8.09016,-59.8778 L 7.28967,-60.8455
 L 6.37424,-61.7051 L 5.35826,-62.4433 L 4.25778,-63.0483 L 3.09016,-63.5106 L 1.87381,-63.8229 L 1.82912,-63.8285
 L 3.17349,-61.5 L 1.58675,-58.7517 L -1.58675,-58.7517 L -3.17349,-61.5 L -1.82912,-63.8285 L -1.87381,-63.8229
 L -3.09016,-63.5106 L -4.25778,-63.0483 L -5.35826,-62.4433 L -6.37424,-61.7051 L -7.28967,-60.8455 L -8.09016,-59.8778
 L -8.76306,-58.8175 L -9.29776,-57.6812 L -9.68582,-56.4869 L -9.92114,-55.2533 L -10,-54 L -9.92114,-52.7467
 L -9.68582,-51.5131 L -9.29776,-50.3188 L -8.76306,-49.1825 L -8.09016,-48.1222 L -7.28967,-47.1545 L -6.37424,-46.2949
 L -5.35826,-45.5567 L -4.25778,-44.9517 L -3.09016,-44.4894 L -1.87381,-44.1771 L -1.82912,-44.1715 L -3.17349,-46.5
 L -1.58675,-49.2483 L 1.58675,-49.2483 L 3.17349,-46.5 L 1.82912,-44.1715 z
M -0.18837,-51.0059 L -0.562134,-51.0531 L -0.927048,-51.1468 L -1.27733,-51.2855 L -1.60747,-51.467 L -1.91226,-51.6885
 L -2.1869,-51.9464 L -2.42705,-52.2366 L -2.62891,-52.5547 L -2.78932,-52.8956 L -2.90575,-53.2539 L -2.97633,-53.624
 L -3,-54 L -2.97633,-54.376 L -2.90575,-54.7461 L -2.78932,-55.1044 L -2.62891,-55.4453 L -2.42705,-55.7634
 L -2.1869,-56.0536 L -1.91226,-56.3115 L -1.60747,-56.533 L -1.27733,-56.7145 L -0.927048,-56.8532 L -0.562134,-56.9469
 L -0.18837,-56.9941 L 0.18837,-56.9941 L 0.562134,-56.9469 L 0.927048,-56.8532 L 1.27733,-56.7145 L 1.60747,-56.533
 L 1.91226,-56.3115 L 2.1869,-56.0536 L 2.42705,-55.7634 L 2.62891,-55.4453 L 2.78932,-55.1044 L 2.90575,-54.7461
 L 2.97633,-54.376 L 3,-54 L 2.97633,-53.624 L 2.90575,-53.2539 L 2.78932,-52.8956 L 2.62891,-52.5547
 L 2.42705,-52.2366 L 2.1869,-51.9464 L 1.91226,-51.6885 L 1.60747,-51.467 L 1.27733,-51.2855 L 0.927048,-51.1468
 L 0.562134,-51.0531 L 0.18837,-51.0059 z
M -7.59418,-52.503 L -7.78107,-52.5266 L -7.96352,-52.5734 L -8.13866,-52.6428 L -8.30373,-52.7335 L -8.45613,-52.8442
 L -8.59344,-52.9732 L -8.71352,-53.1183 L -8.81445,-53.2774 L -8.89465,-53.4478 L -8.95287,-53.627 L -8.98816,-53.812
 L -9,-54 L -8.98816,-54.188 L -8.95287,-54.373 L -8.89465,-54.5522 L -8.81445,-54.7226 L -8.71352,-54.8817
 L -8.59344,-55.0268 L -8.45613,-55.1558 L -8.30373,-55.2665 L -8.13866,-55.3572 L -7.96352,-55.4266 L -7.78107,-55.4734
 L -7.59418,-55.497 L -7.40581,-55.497 L -7.21892,-55.4734 L -7.03647,-55.4266 L -6.86133,-55.3572 L -6.69626,-55.2665
 L -6.54385,-55.1558 L -6.40654,-55.0268 L -6.28647,-54.8817 L -6.18553,-54.7226 L -6.10533,-54.5522 L -6.04712,-54.373
 L -6.01183,-54.188 L -6,-54 L -6.01183,-53.812 L -6.04712,-53.627 L -6.10533,-53.4478 L -6.18553,-53.2774
 L -6.28647,-53.1183 L -6.40654,-52.9732 L -6.54385,-52.8442 L -6.69626,-52.7335 L -6.86133,-52.6428 L -7.03647,-52.5734
 L -7.21892,-52.5266 L -7.40581,-52.503 z
M 7.40581,-52.503 L 7.21892,-52.5266 L 7.03647,-52.5734 L 6.86133,-52.6428 L 6.69626,-52.7335 L 6.54385,-52.8442
 L 6.40654,-52.9732 L 6.28647,-53.1183 L 6.18553,-53.2774 L 6.10533,-53.4478 L 6.04712,-53.627 L 6.01183,-53.812
 L 6,-54 L 6.01183,-54.188 L 6.04712,-54.373 L 6.10533,-54.5522 L 6.18553,-54.7226 L 6.28647,-54.8817
 L 6.40654,-55.0268 L 6.54385,-55.1558 L 6.69626,-55.2665 L 6.86133,-55.3572 L 7.03647,-55.4266 L 7.21892,-55.4734
 L 7.40581,-55.497 L 7.59418,-55.497 L 7.78107,-55.4734 L 7.96352,-55.4266 L 8.13866,-55.3572 L 8.30373,-55.2665
 L 8.45613,-55.1558 L 8.59344,-55.0268 L 8.71352,-54.8817 L 8.81445,-54.7226 L 8.89465,-54.5522 L 8.95287,-54.373
 L 8.98816,-54.188 L 9,-54 L 8.98816,-53.812 L 8.95287,-53.627 L 8.89465,-53.4478 L 8.81445,-53.2774
 L 8.71352,-53.1183 L 8.59344,-52.9732 L 8.45613,-52.8442 L 8.30373,-52.7335 L 8.13866,-52.6428 L 7.96352,-52.5734
 L 7.78107,-52.5266 L 7.59418,-52.503 z
M -15.1884,-66.0059 L -15.5621,-66.0531 L -15.927,-66.1468 L -16.2773,-66.2855 L -16.6075,-66.467 L -16.9123,-66.6884
 L -17.1869,-66.9464 L -17.427,-67.2366 L -17.6289,-67.5547 L -17.7893,-67.8956 L -17.9057,-68.2539 L -17.9763,-68.624
 L -18,-69 L -17.9763,-69.376 L -17.9057,-69.7461 L -17.7893,-70.1044 L -17.6289,-70.4453 L -17.427,-70.7634
 L -17.1869,-71.0536 L -16.9123,-71.3115 L -16.6075,-71.533 L -16.2773,-71.7145 L -15.927,-71.8532 L -15.5621,-71.9469
 L -15.1884,-71.9941 L -14.8116,-71.9941 L -14.4379,-71.9469 L -14.0729,-71.8532 L -13.7227,-71.7145 L -13.3925,-71.533
 L -13.0877,-71.3115 L -12.8131,-71.0536 L -12.5729,-70.7634 L -12.3711,-70.4453 L -12.2107,-70.1044 L -12.0942,-69.7461
 L -12.0237,-69.376 L -12,-69 L -12.0237,-68.624 L -12.0942,-68.2539 L -12.2107,-67.8956 L -12.3711,-67.5547
 L -12.5729,-67.2366 L -12.8131,-66.9464 L -13.0877,-66.6884 L -13.3925,-66.467 L -13.7227,-66.2855 L -14.0729,-66.1468
 L -14.4379,-66.0531 L -14.8116,-66.0059 z
M 14.8116,-66.0059 L 14.4379,-66.0531 L 14.0729,-66.1468 L 13.7227,-66.2855 L 13.3925,-66.467 L 13.0877,-66.6884
 L 12.8131,-66.9464 L 12.5729,-67.2366 L 12.3711,-67.5547 L 12.2107,-67.8956 L 12.0942,-68.2539 L 12.0237,-68.624
 L 12,-69 L 12.0237,-69.376 L 12.0942,-69.7461 L 12.2107,-70.1044 L 12.3711,-70.4453 L 12.5729,-70.7634
 L 12.8131,-71.0536 L 13.0877,-71.3115 L 13.3925,-71.533 L 13.7227,-71.7145 L 14.0729,-71.8532 L 14.4379,-71.9469
 L 14.8116,-71.9941 L 15.1884,-71.9941 L 15.5621,-71.9469 L 15.927,-71.8532 L 16.2773,-71.7145 L 16.6075,-71.533
 L 16.9123,-71.3115 L 17.1869,-71.0536 L 17.427,-70.7634 L 17.6289,-70.4453 L 17.7893,-70.1044 L 17.9057,-69.7461
 L 17.9763,-69.376 L 18,-69 L 17.9763,-68.624 L 17.9057,-68.2539 L 17.7893,-67.8956 L 17.6289,-67.5547
 L 17.427,-67.2366 L 17.1869,-66.9464 L 16.9123,-66.6884 L 16.6075,-66.467 L 16.2773,-66.2855 L 15.927,-66.1468
 L 15.5621,-66.0531 L 15.1884,-66.0059 z
M 14.8116,-36.0059 L 14.4379,-36.0531 L 14.0729,-36.1468 L 13.7227,-36.2855 L 13.3925,-36.467 L 13.0877,-36.6885
 L 12.8131,-36.9464 L 12.5729,-37.2366 L 12.3711,-37.5547 L 12.2107,-37.8956 L 12.0942,-38.2539 L 12.0237,-38.624
 L 12,-39 L 12.0237,-39.376 L 12.0942,-39.7461 L 12.2107,-40.1044 L 12.3711,-40.4453 L 12.5729,-40.7634
 L 12.8131,-41.0536 L 13.0877,-41.3116 L 13.3925,-41.533 L 13.7227,-41.7145 L 14.0729,-41.8532 L 14.4379,-41.9469
 L 14.8116,-41.9941 L 15.1884,-41.9941 L 15.5621,-41.9469 L 15.927,-41.8532 L 16.2773,-41.7145 L 16.6075,-41.533
 L 16.9123,-41.3116 L 17.1869,-41.0536 L 17.427,-40.7634 L 17.6289,-40.4453 L 17.7893,-40.1044 L 17.9057,-39.7461
 L 17.9763,-39.376 L 18,-39 L 17.9763,-38.624 L 17.9057,-38.2539 L 17.7893,-37.8956 L 17.6289,-37.5547
 L 17.427,-37.2366 L 17.1869,-36.9464 L 16.9123,-36.6885 L 16.6075,-36.467 L 16.2773,-36.2855 L 15.927,-36.1468
 L 15.5621,-36.0531 L 15.1884,-36.0059 z
M -15.1884,-36.0059 L -15.5621,-36.0531 L -15.927,-36.1468 L -16.2773,-36.2855 L -16.6075,-36.467 L -16.9123,-36.6885
 L -17.1869,-36.9464 L -17.427,-37.2366 L -17.6289,-37.5547 L -17.7893,-37.8956 L -17.9057,-38.2539 L -17.9763,-38.624
 L -18,-39 L -17.9763,-39.376 L -17.9057,-39.7461 L -17.7893,-40.1044 L -17.6289,-40.4453 L -17.427,-40.7634
 L -17.1869,-41.0536 L -16.9123,-41.3116 L -16.6075,-41.533 L -16.2773,-41.7145 L -15.927,-41.8532 L -15.5621,-41.9469
 L -15.1884,-41.9941 L -14.8116,-41.9941 L -14.4379,-41.9469 L -14.0729,-41.8532 L -13.7227,-41.7145 L -13.3925,-41.533
 L -13.0877,-41.3116 L -12.8131,-41.0536 L -12.5729,-40.7634 L -12.3711,-40.4453 L -12.2107,-40.1044 L -12.0942,-39.7461
 L -12.0237,-39.376 L -12,-39 L -12.0237,-38.624 L -12.0942,-38.2539 L -12.2107,-37.8956 L -12.3711,-37.5547
 L -12.5729,-37.2366 L -12.8131,-36.9464 L -13.0877,-36.6885 L -13.3925,-36.467 L -13.7227,-36.2855 L -14.0729,-36.1468
 L -14.4379,-36.0531 L -14.8116,-36.0059 z
M 17.9369,21.9114 L 18.5451,21.7553 L 19.1289,21.5241 L 19.6791,21.2216 L 20.1871,20.8526 L 20.6448,20.4227
 L 21.0451,19.9389 L 21.3815,19.4088 L 21.6489,18.8406 L 21.8429,18.2434 L 21.9606,17.6267 L 22,17
 L 22,-17 L 21.9606,-17.6267 L 21.8429,-18.2434 L 21.6489,-18.8406 L 21.3815,-19.4088 L 21.0451,-19.9389
 L 20.6448,-20.4227 L 20.1871,-20.8526 L 19.6791,-21.2216 L 19.1289,-21.5241 L 18.5451,-21.7553 L 17.9369,-21.9114
 L 17.3139,-21.9901 L -17.3139,-21.9901 L -17.9369,-21.9114 L -18.5451,-21.7553 L -19.1289,-21.5241 L -19.6791,-21.2216
 L -20.1871,-20.8526 L -20.6448,-20.4227 L -21.0451,-19.9389 L -21.3815,-19.4088 L -21.6489,-18.8406 L -21.8429,-18.2434
 L -21.9606,-17.6267 L -22,-17 L -22,17 L -21.9606,17.6267 L -21.8429,18.2434 L -21.6489,18.8406
 L -21.3815,19.4088 L -21.0451,19.9389 L -20.6448,20.4227 L -20.1871,20.8526 L -19.6791,21.2216 L -19.1289,21.5241
 L -18.5451,21.7553 L -17.9369,21.9114 L -17.3139,21.9901 L 17.3139,21.9901 z
M -0.144409,-15.7045 L -0.430969,-15.7407 L -0.710724,-15.8126 L -0.979279,-15.9189 L -1.23239,-16.058 L -1.46606,-16.2278
 L -1.67662,-16.4255 L -1.86073,-16.6481 L -2.0155,-16.892 L -2.13847,-17.1533 L -2.22774,-17.428 L -2.28186,-17.7117
 L -2.29999,-18 L -2.28186,-18.2883 L -2.22774,-18.572 L -2.13847,-18.8467 L -2.0155,-19.108 L -1.86073,-19.3519
 L -1.67662,-19.5744 L -1.46606,-19.7722 L -1.23239,-19.9419 L -0.979279,-20.0811 L -0.710724,-20.1874 L -0.430969,-20.2592
 L -0.144409,-20.2955 L 0.144409,-20.2955 L 0.430969,-20.2592 L 0.710724,-20.1874 L 0.979279,-20.0811 L 1.23239,-19.9419
 L 1.46606,-19.7722 L 1.67662,-19.5744 L 1.86073,-19.3519 L 2.0155,-19.108 L 2.13847,-18.8467 L 2.22774,-18.572
 L 2.28186,-18.2883 L 2.29999,-18 L 2.28186,-17.7117 L 2.22774,-17.428 L 2.13847,-17.1533 L 2.0155,-16.892
 L 1.86073,-16.6481 L 1.67662,-16.4255 L 1.46606,-16.2278 L 1.23239,-16.058 L 0.979279,-15.9189 L 0.710724,-15.8126
 L 0.430969,-15.7407 L 0.144409,-15.7045 z
M 14.8116,-12.0059 L 14.4379,-12.0531 L 14.0729,-12.1468 L 13.7227,-12.2855 L 13.3925,-12.467 L 13.0877,-12.6884
 L 12.8131,-12.9464 L 12.5729,-13.2366 L 12.3711,-13.5547 L 12.2107,-13.8956 L 12.0942,-14.2539 L 12.0237,-14.624
 L 12,-15 L 12.0237,-15.376 L 12.0942,-15.7461 L 12.2107,-16.1044 L 12.3711,-16.4453 L 12.5729,-16.7634
 L 12.8131,-17.0536 L 13.0877,-17.3115 L 13.3925,-17.533 L 13.7227,-17.7145 L 14.0729,-17.8532 L 14.4379,-17.9469
 L 14.8116,-17.9941 L 15.1884,-17.9941 L 15.5621,-17.9469 L 15.927,-17.8532 L 16.2773,-17.7145 L 16.6075,-17.533
 L 16.9123,-17.3115 L 17.1869,-17.0536 L 17.427,-16.7634 L 17.6289,-16.4453 L 17.7893,-16.1044 L 17.9057,-15.7461
 L 17.9763,-15.376 L 18,-15 L 17.9763,-14.624 L 17.9057,-14.2539 L 17.7893,-13.8956 L 17.6289,-13.5547
 L 17.427,-13.2366 L 17.1869,-12.9464 L 16.9123,-12.6884 L 16.6075,-12.467 L 16.2773,-12.2855 L 15.927,-12.1468
 L 15.5621,-12.0531 L 15.1884,-12.0059 z
M -15.1884,-12.0059 L -15.5621,-12.0531 L -15.927,-12.1468 L -16.2773,-12.2855 L -16.6075,-12.467 L -16.9123,-12.6884
 L -17.1869,-12.9464 L -17.427,-13.2366 L -17.6289,-13.5547 L -17.7893,-13.8956 L -17.9057,-14.2539 L -17.9763,-14.624
 L -18,-15 L -17.9763,-15.376 L -17.9057,-15.7461 L -17.7893,-16.1044 L -17.6289,-16.4453 L -17.427,-16.7634
 L -17.1869,-17.0536 L -16.9123,-17.3115 L -16.6075,-17.533 L -16.2773,-17.7145 L -15.927,-17.8532 L -15.5621,-17.9469
 L -15.1884,-17.9941 L -14.8116,-17.9941 L -14.4379,-17.9469 L -14.0729,-17.8532 L -13.7227,-17.7145 L -13.3925,-17.533
 L -13.0877,-17.3115 L -12.8131,-17.0536 L -12.5729,-16.7634 L -12.3711,-16.4453 L -12.2107,-16.1044 L -12.0942,-15.7461
 L -12.0237,-15.376 L -12,-15 L -12.0237,-14.624 L -12.0942,-14.2539 L -12.2107,-13.8956 L -12.3711,-13.5547
 L -12.5729,-13.2366 L -12.8131,-12.9464 L -13.0877,-12.6884 L -13.3925,-12.467 L -13.7227,-12.2855 L -14.0729,-12.1468
 L -14.4379,-12.0531 L -14.8116,-12.0059 z
M -0.847672,13.4734 L -2.52963,13.2609 L -4.17172,12.8392 L -5.74802,12.2152 L -7.23366,11.3984 L -8.60521,10.4019
 L -9.84106,9.24138 L -10.9217,7.93509 L -11.8301,6.50366 L -12.552,4.96968 L -13.0759,3.3573 L -13.3935,1.69199
 L -13.5,-0 L -13.3935,-1.69199 L -13.0759,-3.3573 L -12.552,-4.96968 L -11.8301,-6.50366 L -10.9217,-7.93509
 L -9.84106,-9.24138 L -8.60521,-10.4019 L -7.23366,-11.3984 L -5.74802,-12.2152 L -4.17172,-12.8392 L -2.52963,-13.2609
 L -0.847672,-13.4734 L 0.847672,-13.4734 L 2.52963,-13.2609 L 4.17172,-12.8392 L 5.74802,-12.2152 L 7.23366,-11.3984
 L 8.60521,-10.4019 L 9.84106,-9.24138 L 10.9217,-7.93509 L 11.8301,-6.50366 L 12.552,-4.96968 L 13.0759,-3.3573
 L 13.3935,-1.69199 L 13.5,-0 L 13.3935,1.69199 L 13.0759,3.3573 L 12.552,4.96968 L 11.8301,6.50366
 L 10.9217,7.93509 L 9.84106,9.24138 L 8.60521,10.4019 L 7.23366,11.3984 L 5.74802,12.2152 L 4.17172,12.8392
 L 2.52963,13.2609 L 0.847672,13.4734 z
M 2.34225,12.2786 L 3.8627,11.8882 L 5.32224,11.3103 L 6.69783,10.5541 L 7.96779,9.63141 L 9.11211,8.55682
 L 10.1127,7.34731 L 10.9538,6.02191 L 11.6222,4.60155 L 12.1073,3.10861 L 12.4014,1.56665 L 12.5,-0
 L 12.4014,-1.56665 L 12.1073,-3.10861 L 11.6222,-4.60155 L 10.9538,-6.02191 L 10.1127,-7.34731 L 9.11211,-8.55682
 L 7.96779,-9.63141 L 6.69783,-10.5541 L 5.32224,-11.3103 L 3.8627,-11.8882 L 2.34225,-12.2786 L 0.784866,-12.4753
 L -0.784866,-12.4753 L -2.34225,-12.2786 L -3.8627,-11.8882 L -5.32224,-11.3103 L -6.69783,-10.5541 L -7.96779,-9.63141
 L -9.11211,-8.55682 L -10.1127,-7.34731 L -10.9538,-6.02191 L -11.6222,-4.60155 L -12.1073,-3.10861 L -12.4014,-1.56665
 L -12.5,-0 L -12.4014,1.56665 L -12.1073,3.10861 L -11.6222,4.60155 L -10.9538,6.02191 L -10.1127,7.34731
 L -9.11211,8.55682 L -7.96779,9.63141 L -6.69783,10.5541 L -5.32224,11.3103 L -3.8627,11.8882 L -2.34225,12.2786
 L -0.784866,12.4753 L 0.784866,12.4753 z
M -1.58675,-4.75168 L -3.17349,-7.5 L -1.58675,-10.2483 L 1.58675,-10.2483 L 3.17349,-7.5 L 1.58675,-4.75168
 z
M -0.18837,2.99408 L -0.562134,2.94685 L -0.927048,2.85316 L -1.27733,2.71448 L -1.60747,2.53297 L -1.91226,2.31154
 L -2.1869,2.05363 L -2.42705,1.76335 L -2.62891,1.44525 L -2.78932,1.10437 L -2.90575,0.746063 L -2.97633,0.375992
 L -3,-0 L -2.97633,-0.375992 L -2.90575,-0.746063 L -2.78932,-1.10437 L -2.62891,-1.44525 L -2.42705,-1.76335
 L -2.1869,-2.05363 L -1.91226,-2.31154 L -1.60747,-2.53297 L -1.27733,-2.71448 L -0.927048,-2.85316 L -0.562134,-2.94685
 L -0.18837,-2.99408 L 0.18837,-2.99408 L 0.562134,-2.94685 L 0.927048,-2.85316 L 1.27733,-2.71448 L 1.60747,-2.53297
 L 1.91226,-2.31154 L 2.1869,-2.05363 L 2.42705,-1.76335 L 2.62891,-1.44525 L 2.78932,-1.10437 L 2.90575,-0.746063
 L 2.97633,-0.375992 L 3,-0 L 2.97633,0.375992 L 2.90575,0.746063 L 2.78932,1.10437 L 2.62891,1.44525
 L 2.42705,1.76335 L 2.1869,2.05363 L 1.91226,2.31154 L 1.60747,2.53297 L 1.27733,2.71448 L 0.927048,2.85316
 L 0.562134,2.94685 L 0.18837,2.99408 z
M 7.40581,1.49704 L 7.21892,1.47342 L 7.03647,1.42657 L 6.86133,1.35724 L 6.69626,1.26648 L 6.54385,1.15576
 L 6.40654,1.02681 L 6.28647,0.881668 L 6.18553,0.722626 L 6.10533,0.552185 L 6.04712,0.373032 L 6.01183,0.187988
 L 6,-0 L 6.01183,-0.187988 L 6.04712,-0.373032 L 6.10533,-0.552185 L 6.18553,-0.722626 L 6.28647,-0.881668
 L 6.40654,-1.02681 L 6.54385,-1.15576 L 6.69626,-1.26648 L 6.86133,-1.35724 L 7.03647,-1.42657 L 7.21892,-1.47342
 L 7.40581,-1.49704 L 7.59418,-1.49704 L 7.78107,-1.47342 L 7.96352,-1.42657 L 8.13866,-1.35724 L 8.30373,-1.26648
 L 8.45613,-1.15576 L 8.59344,-1.02681 L 8.71352,-0.881668 L 8.81445,-0.722626 L 8.89465,-0.552185 L 8.95287,-0.373032
 L 8.98816,-0.187988 L 9,-0 L 8.98816,0.187988 L 8.95287,0.373032 L 8.89465,0.552185 L 8.81445,0.722626
 L 8.71352,0.881668 L 8.59344,1.02681 L 8.45613,1.15576 L 8.30373,1.26648 L 8.13866,1.35724 L 7.96352,1.42657
 L 7.78107,1.47342 L 7.59418,1.49704 z
M -7.59418,1.49704 L -7.78107,1.47342 L -7.96352,1.42657 L -8.13866,1.35724 L -8.30373,1.26648 L -8.45613,1.15576
 L -8.59344,1.02681 L -8.71352,0.881668 L -8.81445,0.722626 L -8.89465,0.552185 L -8.95287,0.373032 L -8.98816,0.187988
 L -9,-0 L -8.98816,-0.187988 L -8.95287,-0.373032 L -8.89465,-0.552185 L -8.81445,-0.722626 L -8.71352,-0.881668
 L -8.59344,-1.02681 L -8.45613,-1.15576 L -8.30373,-1.26648 L -8.13866,-1.35724 L -7.96352,-1.42657 L -7.78107,-1.47342
 L -7.59418,-1.49704 L -7.40581,-1.49704 L -7.21892,-1.47342 L -7.03647,-1.42657 L -6.86133,-1.35724 L -6.69626,-1.26648
 L -6.54385,-1.15576 L -6.40654,-1.02681 L -6.28647,-0.881668 L -6.18553,-0.722626 L -6.10533,-0.552185 L -6.04712,-0.373032
 L -6.01183,-0.187988 L -6,-0 L -6.01183,0.187988 L -6.04712,0.373032 L -6.10533,0.552185 L -6.18553,0.722626
 L -6.28647,0.881668 L -6.40654,1.02681 L -6.54385,1.15576 L -6.69626,1.26648 L -6.86133,1.35724 L -7.03647,1.42657
 L -7.21892,1.47342 L -7.40581,1.49704 z
M -0.144409,9.79546 L -0.430969,9.75925 L -0.710724,9.68742 L -0.979279,9.5811 L -1.23239,9.44194 L -1.46606,9.27217
 L -1.67662,9.07445 L -1.86073,8.8519 L -2.0155,8.60803 L -2.13847,8.34668 L -2.22774,8.07198 L -2.28186,7.78825
 L -2.29999,7.5 L -2.28186,7.21173 L -2.22774,6.92801 L -2.13847,6.65331 L -2.0155,6.39195 L -1.86073,6.14809
 L -1.67662,5.92554 L -1.46606,5.72781 L -1.23239,5.55804 L -0.979279,5.41888 L -0.710724,5.31256 L -0.430969,5.24074
 L -0.144409,5.20453 L 0.144409,5.20453 L 0.430969,5.24074 L 0.710724,5.31256 L 0.979279,5.41888 L 1.23239,5.55804
 L 1.46606,5.72781 L 1.67662,5.92554 L 1.86073,6.14809 L 2.0155,6.39195 L 2.13847,6.65331 L 2.22774,6.92801
 L 2.28186,7.21173 L 2.29999,7.5 L 2.28186,7.78825 L 2.22774,8.07198 L 2.13847,8.34668 L 2.0155,8.60803
 L 1.86073,8.8519 L 1.67662,9.07445 L 1.46606,9.27217 L 1.23239,9.44194 L 0.979279,9.5811 L 0.710724,9.68742
 L 0.430969,9.75925 L 0.144409,9.79546 z
M -20.7483,1.58675 L -20.7483,-1.58673 L -18,-3.17348 L -15.2517,-1.58675 L -15.2517,1.58673 L -18,3.17348
 z
M 17.6164,2.26778 L 17.3352,2.20183 L 17.0645,2.10115 L 16.8085,1.96733 L 16.5714,1.80249 L 16.3567,1.60922
 L 16.168,1.39056 L 16.0081,1.14999 L 15.8797,0.891281 L 15.7847,0.618515 L 15.7247,0.335983 L 15.7005,0.0481567
 L 15.7126,-0.240402 L 15.7608,-0.525192 L 15.8442,-0.801712 L 15.9617,-1.06557 L 16.1113,-1.31264 L 16.2908,-1.53899
 L 16.4971,-1.74107 L 16.7272,-1.91571 L 16.9773,-2.06013 L 17.2436,-2.17206 L 17.5218,-2.24973 L 17.8075,-2.29193
 L 18.0963,-2.29797 L 18.3836,-2.26778 L 18.6648,-2.20183 L 18.9355,-2.10115 L 19.1915,-1.96733 L 19.4286,-1.80249
 L 19.6433,-1.60922 L 19.832,-1.39056 L 19.9919,-1.14999 L 20.1203,-0.891281 L 20.2153,-0.618515 L 20.2753,-0.335983
 L 20.2995,-0.0481567 L 20.2874,0.240402 L 20.2392,0.525192 L 20.1557,0.801712 L 20.0383,1.06557 L 19.8886,1.31264
 L 19.7092,1.53899 L 19.5029,1.74107 L 19.2728,1.91571 L 19.0227,2.06013 L 18.7564,2.17206 L 18.4782,2.24973
 L 18.1925,2.29193 L 17.9037,2.29797 z
M 14.8116,17.9941 L 14.4379,17.9469 L 14.0729,17.8532 L 13.7227,17.7145 L 13.3925,17.533 L 13.0877,17.3115
 L 12.8131,17.0536 L 12.5729,16.7634 L 12.3711,16.4453 L 12.2107,16.1044 L 12.0942,15.7461 L 12.0237,15.376
 L 12,15 L 12.0237,14.624 L 12.0942,14.2539 L 12.2107,13.8956 L 12.3711,13.5547 L 12.5729,13.2366
 L 12.8131,12.9464 L 13.0877,12.6884 L 13.3925,12.467 L 13.7227,12.2855 L 14.0729,12.1468 L 14.4379,12.0531
 L 14.8116,12.0059 L 15.1884,12.0059 L 15.5621,12.0531 L 15.927,12.1468 L 16.2773,12.2855 L 16.6075,12.467
 L 16.9123,12.6884 L 17.1869,12.9464 L 17.427,13.2366 L 17.6289,13.5547 L 17.7893,13.8956 L 17.9057,14.2539
 L 17.9763,14.624 L 18,15 L 17.9763,15.376 L 17.9057,15.7461 L 17.7893,16.1044 L 17.6289,16.4453
 L 17.427,16.7634 L 17.1869,17.0536 L 16.9123,17.3115 L 16.6075,17.533 L 16.2773,17.7145 L 15.927,17.8532
 L 15.5621,17.9469 L 15.1884,17.9941 z
M -15.1884,17.9941 L -15.5621,17.9469 L -15.927,17.8532 L -16.2773,17.7145 L -16.6075,17.533 L -16.9123,17.3115
 L -17.1869,17.0536 L -17.427,16.7634 L -17.6289,16.4453 L -17.7893,16.1044 L -17.9057,15.7461 L -17.9763,15.376
 L -18,15 L -17.9763,14.624 L -17.9057,14.2539 L -17.7893,13.8956 L -17.6289,13.5547 L -17.427,13.2366
 L -17.1869,12.9464 L -16.9123,12.6884 L -16.6075,12.467 L -16.2773,12.2855 L -15.927,12.1468 L -15.5621,12.0531
 L -15.1884,12.0059 L -14.8116,12.0059 L -14.4379,12.0531 L -14.0729,12.1468 L -13.7227,12.2855 L -13.3925,12.467
 L -13.0877,12.6884 L -12.8131,12.9464 L -12.5729,13.2366 L -12.3711,13.5547 L -12.2107,13.8956 L -12.0942,14.2539
 L -12.0237,14.624 L -12,15 L -12.0237,15.376 L -12.0942,15.7461 L -12.2107,16.1044 L -12.3711,16.4453
 L -12.5729,16.7634 L -12.8131,17.0536 L -13.0877,17.3115 L -13.3925,17.533 L -13.7227,17.7145 L -14.0729,17.8532
 L -14.4379,17.9469 L -14.8116,17.9941 z
M -1.58675,20.7483 L -3.17349,18 L -1.58675,15.2517 L 1.58675,15.2517 L 3.17349,18 L 1.58675,20.7483
 z
" stroke="black" fill="lightgray" stroke-width="0.5"/>
</svg>
