<?xml version="1.0" standalone="no"?>
<!DOCTYPE svg PUBLIC "-//W3C//DTD SVG 1.1//EN" "http://www.w3.org/Graphics/SVG/1.1/DTD/svg11.dtd">
<svg width="38mm" height="262mm" viewBox="-19 -509 38 262" xmlns="http://www.w3.org/2000/svg" version="1.1">
<title>OpenSCAD Model</title>
<path d="
M 14.6869,-463.589 L 15.2951,-463.745 L 15.8789,-463.976 L 16.4291,-464.278 L 16.9371,-464.647 L 17.3948,-465.077
 L 17.7951,-465.561 L 18.1315,-466.091 L 18.3989,-466.659 L 18.5929,-467.257 L 18.7106,-467.873 L 18.75,-468.5
 L 18.75,-503.5 L 18.7106,-504.127 L 18.5929,-504.743 L 18.3989,-505.341 L 18.1315,-505.909 L 17.7951,-506.439
 L 17.3948,-506.923 L 16.9371,-507.353 L 16.4291,-507.722 L 15.8789,-508.024 L 15.2951,-508.255 L 14.6869,-508.411
 L 14.0639,-508.49 L -14.0639,-508.49 L -14.6869,-508.411 L -15.2951,-508.255 L -15.8789,-508.024 L -16.4291,-507.722
 L -16.9371,-507.353 L -17.3948,-506.923 L -17.7951,-506.439 L -18.1315,-505.909 L -18.3989,-505.341 L -18.5929,-504.743
 L -18.7106,-504.127 L -18.75,-503.5 L -18.75,-468.5 L -18.7106,-467.873 L -18.5929,-467.257 L -18.3989,-466.659
 L -18.1315,-466.091 L -17.7951,-465.561 L -17.3948,-465.077 L -16.9371,-464.647 L -16.4291,-464.278 L -15.8789,-463.976
 L -15.2951,-463.745 L -14.6869,-463.589 L -14.0639,-463.51 L 14.0639,-463.51 z
M -8.56104,-464.009 L -8.07086,-464.278 L -7.56287,-464.647 L -7.10515,-465.077 L -6.70491,-465.561 L -6.36845,-466.091
 L -6.1011,-466.659 L -5.90707,-467.257 L -5.78941,-467.873 L -5.75,-468.5 L -5.75,-471.5 L -5.78941,-472.127
 L -5.90707,-472.743 L -6.1011,-473.341 L -6.36845,-473.909 L -6.70491,-474.439 L -7.10515,-474.923 L -7.56287,-475.353
 L -8.07086,-475.722 L -8.62109,-476.024 L -9.20491,-476.255 L -9.81308,-476.411 L -10.436,-476.49 L -14.0639,-476.49
 L -14.6869,-476.411 L -15.2951,-476.255 L -15.8789,-476.024 L -16.4291,-475.722 L -16.9371,-475.353 L -17.3948,-474.923
 L -17.7951,-474.439 L -18.1315,-473.909 L -18.25,-473.657 L -18.25,-503.5 L -18.2145,-504.064 L -18.1086,-504.619
 L -17.934,-505.157 L -17.6934,-505.668 L -17.3906,-506.145 L -17.0303,-506.58 L -16.6184,-506.967 L -16.1612,-507.299
 L -15.666,-507.572 L -15.1406,-507.78 L -14.5932,-507.92 L -14.0325,-507.991 L 14.0325,-507.991 L 14.5932,-507.92
 L 15.1406,-507.78 L 15.666,-507.572 L 16.1612,-507.299 L 16.6184,-506.967 L 17.0303,-506.58 L 17.3906,-506.145
 L 17.6934,-505.668 L 17.934,-505.157 L 18.1086,-504.619 L 18.2145,-504.064 L 18.25,-503.5 L 18.25,-468.5
 L 18.2145,-467.936 L 18.1086,-467.381 L 17.934,-466.843 L 17.6934,-466.332 L 17.3906,-465.855 L 17.0303,-465.42
 L 16.6184,-465.033 L 16.1612,-464.701 L 15.666,-464.428 L 15.1406,-464.22 L 14.5932,-464.08 L 14.0325,-464.009
 z
M 11.7184,-498.544 L 12.0225,-498.622 L 12.3144,-498.738 L 12.5896,-498.889 L 12.8436,-499.074 L 13.0724,-499.289
 L 13.2725,-499.531 L 13.4408,-499.796 L 13.5744,-500.08 L 13.6714,-500.378 L 13.7303,-500.687 L 13.75,-501
 L 13.7303,-501.313 L 13.6714,-501.622 L 13.5744,-501.92 L 13.4408,-502.204 L 13.2725,-502.469 L 13.0724,-502.711
 L 12.8436,-502.926 L 12.5896,-503.111 L 12.3144,-503.262 L 12.0225,-503.378 L 11.7184,-503.456 L 11.407,-503.495
 L 11.093,-503.495 L 10.7815,-503.456 L 10.4774,-503.378 L 10.1855,-503.262 L 9.91043,-503.111 L 9.65643,-502.926
 L 9.42757,-502.711 L 9.22745,-502.469 L 9.05922,-502.204 L 8.92555,-501.92 L 8.82854,-501.622 L 8.7697,-501.313
 L 8.75,-501 L 8.7697,-500.687 L 8.82854,-500.378 L 8.92555,-500.08 L 9.05922,-499.796 L 9.22745,-499.531
 L 9.42757,-499.289 L 9.65643,-499.074 L 9.91043,-498.889 L 10.1855,-498.738 L 10.4774,-498.622 L 10.7815,-498.544
 L 11.093,-498.505 L 11.407,-498.505 z
M 11.1558,-499.503 L 10.9689,-499.527 L 10.7865,-499.573 L 10.6113,-499.643 L 10.4463,-499.734 L 10.2939,-499.844
 L 10.1565,-499.973 L 10.0365,-500.118 L 9.93553,-500.277 L 9.85533,-500.448 L 9.79712,-500.627 L 9.76183,-500.812
 L 9.75,-501 L 9.76183,-501.188 L 9.79712,-501.373 L 9.85533,-501.552 L 9.93553,-501.723 L 10.0365,-501.882
 L 10.1565,-502.027 L 10.2939,-502.156 L 10.4463,-502.266 L 10.6113,-502.357 L 10.7865,-502.427 L 10.9689,-502.473
 L 11.1558,-502.497 L 11.3442,-502.497 L 11.5311,-502.473 L 11.7135,-502.427 L 11.8887,-502.357 L 12.0537,-502.266
 L 12.2061,-502.156 L 12.3434,-502.027 L 12.4635,-501.882 L 12.5645,-501.723 L 12.6447,-501.552 L 12.7029,-501.373
 L 12.7382,-501.188 L 12.75,-501 L 12.7382,-500.812 L 12.7029,-500.627 L 12.6447,-500.448 L 12.5645,-500.277
 L 12.4635,-500.118 L 12.3434,-499.973 L 12.2061,-499.844 L 12.0537,-499.734 L 11.8887,-499.643 L 11.7135,-499.573
 L 11.5311,-499.527 L 11.3442,-499.503 z
M -11.3442,-469.503 L -11.5311,-469.527 L -11.7135,-469.573 L -11.8887,-469.643 L -12.0537,-469.734 L -12.2061,-469.844
 L -12.3434,-469.973 L -12.4635,-470.118 L -12.5645,-470.277 L -12.6447,-470.448 L -12.7029,-470.627 L -12.7382,-470.812
 L -12.75,-471 L -12.7382,-471.188 L -12.7029,-471.373 L -12.6447,-471.552 L -12.5645,-471.723 L -12.4635,-471.882
 L -12.3434,-472.027 L -12.2061,-472.156 L -12.0537,-472.266 L -11.8887,-472.357 L -11.7135,-472.427 L -11.5311,-472.473
 L -11.3442,-472.497 L -11.1558,-472.497 L -10.9689,-472.473 L -10.7865,-472.427 L -10.6113,-472.357 L -10.4463,-472.266
 L -10.2939,-472.156 L -10.1565,-472.027 L -10.0365,-471.882 L -9.93553,-471.723 L -9.85533,-471.552 L -9.79712,-471.373
 L -9.76183,-471.188 L -9.75,-471 L -9.76183,-470.812 L -9.79712,-470.627 L -9.85533,-470.448 L -9.93553,-470.277
 L -10.0365,-470.118 L -10.1565,-469.973 L -10.2939,-469.844 L -10.4463,-469.734 L -10.6113,-469.643 L -10.7865,-469.573
 L -10.9689,-469.527 L -11.1558,-469.503 z
M 14.6869,-409.589 L 15.2951,-409.745 L 15.8789,-409.976 L 16.4291,-410.278 L 16.9371,-410.647 L 17.3948,-411.077
 L 17.7951,-411.561 L 18.1315,-412.091 L 18.3989,-412.659 L 18.5929,-413.257 L 18.7106,-413.873 L 18.75,-414.5
 L 18.75,-449.5 L 18.7106,-450.127 L 18.5929,-450.743 L 18.3989,-451.341 L 18.1315,-451.909 L 17.7951,-452.439
 L 17.3948,-452.923 L 16.9371,-453.353 L 16.4291,-453.722 L 15.8789,-454.024 L 15.2951,-454.255 L 14.6869,-454.411
 L 14.0639,-454.49 L -14.0639,-454.49 L -14.6869,-454.411 L -15.2951,-454.255 L -15.8789,-454.024 L -16.4291,-453.722
 L -16.9371,-453.353 L -17.3948,-452.923 L -17.7951,-452.439 L -18.1315,-451.909 L -18.3989,-451.341 L -18.5929,-450.743
 L -18.7106,-450.127 L -18.75,-449.5 L -18.75,-414.5 L -18.7106,-413.873 L -18.5929,-413.257 L -18.3989,-412.659
 L -18.1315,-412.091 L -17.7951,-411.561 L -17.3948,-411.077 L -16.9371,-410.647 L -16.4291,-410.278 L -15.8789,-409.976
 L -15.2951,-409.745 L -14.6869,-409.589 L -14.0639,-409.51 L 14.0639,-409.51 z
M -8.56104,-410.009 L -8.07086,-410.278 L -7.56287,-410.647 L -7.10515,-411.077 L -6.70491,-411.561 L -6.36845,-412.091
 L -6.1011,-412.659 L -5.90707,-413.257 L -5.78941,-413.873 L -5.75,-414.5 L -5.75,-417.5 L -5.78941,-418.127
 L -5.90707,-418.743 L -6.1011,-419.341 L -6.36845,-419.909 L -6.70491,-420.439 L -7.10515,-420.923 L -7.56287,-421.353
 L -8.07086,-421.722 L -8.62109,-422.024 L -9.20491,-422.255 L -9.81308,-422.411 L -10.436,-422.49 L -14.0639,-422.49
 L -14.6869,-422.411 L -15.2951,-422.255 L -15.8789,-422.024 L -16.4291,-421.722 L -16.9371,-421.353 L -17.3948,-420.923
 L -17.7951,-420.439 L -18.1315,-419.909 L -18.25,-419.657 L -18.25,-449.5 L -18.2145,-450.064 L -18.1086,-450.619
 L -17.934,-451.157 L -17.6934,-451.668 L -17.3906,-452.145 L -17.0303,-452.58 L -16.6184,-452.967 L -16.1612,-453.299
 L -15.666,-453.572 L -15.1406,-453.78 L -14.5932,-453.92 L -14.0325,-453.991 L 14.0325,-453.991 L 14.5932,-453.92
 L 15.1406,-453.78 L 15.666,-453.572 L 16.1612,-453.299 L 16.6184,-452.967 L 17.0303,-452.58 L 17.3906,-452.145
 L 17.6934,-451.668 L 17.934,-451.157 L 18.1086,-450.619 L 18.2145,-450.064 L 18.25,-449.5 L 18.25,-414.5
 L 18.2145,-413.936 L 18.1086,-413.381 L 17.934,-412.843 L 17.6934,-412.332 L 17.3906,-411.855 L 17.0303,-411.42
 L 16.6184,-411.033 L 16.1612,-410.701 L 15.666,-410.428 L 15.1406,-410.22 L 14.5932,-410.08 L 14.0325,-410.009
 z
M 11.7184,-444.544 L 12.0225,-444.622 L 12.3144,-444.738 L 12.5896,-444.889 L 12.8436,-445.074 L 13.0724,-445.289
 L 13.2725,-445.531 L 13.4408,-445.796 L 13.5744,-446.08 L 13.6714,-446.378 L 13.7303,-446.687 L 13.75,-447
 L 13.7303,-447.313 L 13.6714,-447.622 L 13.5744,-447.92 L 13.4408,-448.204 L 13.2725,-448.469 L 13.0724,-448.711
 L 12.8436,-448.926 L 12.5896,-449.111 L 12.3144,-449.262 L 12.0225,-449.378 L 11.7184,-449.456 L 11.407,-449.495
 L 11.093,-449.495 L 10.7815,-449.456 L 10.4774,-449.378 L 10.1855,-449.262 L 9.91043,-449.111 L 9.65643,-448.926
 L 9.42757,-448.711 L 9.22745,-448.469 L 9.05922,-448.204 L 8.92555,-447.92 L 8.82854,-447.622 L 8.7697,-447.313
 L 8.75,-447 L 8.7697,-446.687 L 8.82854,-446.378 L 8.92555,-446.08 L 9.05922,-445.796 L 9.22745,-445.531
 L 9.42757,-445.289 L 9.65643,-445.074 L 9.91043,-444.889 L 10.1855,-444.738 L 10.4774,-444.622 L 10.7815,-444.544
 L 11.093,-444.505 L 11.407,-444.505 z
M 11.1558,-445.503 L 10.9689,-445.527 L 10.7865,-445.573 L 10.6113,-445.643 L 10.4463,-445.734 L 10.2939,-445.844
 L 10.1565,-445.973 L 10.0365,-446.118 L 9.93553,-446.277 L 9.85533,-446.448 L 9.79712,-446.627 L 9.76183,-446.812
 L 9.75,-447 L 9.76183,-447.188 L 9.79712,-447.373 L 9.85533,-447.552 L 9.93553,-447.723 L 10.0365,-447.882
 L 10.1565,-448.027 L 10.2939,-448.156 L 10.4463,-448.266 L 10.6113,-448.357 L 10.7865,-448.427 L 10.9689,-448.473
 L 11.1558,-448.497 L 11.3442,-448.497 L 11.5311,-448.473 L 11.7135,-448.427 L 11.8887,-448.357 L 12.0537,-448.266
 L 12.2061,-448.156 L 12.3434,-448.027 L 12.4635,-447.882 L 12.5645,-447.723 L 12.6447,-447.552 L 12.7029,-447.373
 L 12.7382,-447.188 L 12.75,-447 L 12.7382,-446.812 L 12.7029,-446.627 L 12.6447,-446.448 L 12.5645,-446.277
 L 12.4635,-446.118 L 12.3434,-445.973 L 12.2061,-445.844 L 12.0537,-445.734 L 11.8887,-445.643 L 11.7135,-445.573
 L 11.5311,-445.527 L 11.3442,-445.503 z
M -11.3442,-415.503 L -11.5311,-415.527 L -11.7135,-415.573 L -11.8887,-415.643 L -12.0537,-415.734 L -12.2061,-415.844
 L -12.3434,-415.973 L -12.4635,-416.118 L -12.5645,-416.277 L -12.6447,-416.448 L -12.7029,-416.627 L -12.7382,-416.812
 L -12.75,-417 L -12.7382,-417.188 L -12.7029,-417.373 L -12.6447,-417.552 L -12.5645,-417.723 L -12.4635,-417.882
 L -12.3434,-418.027 L -12.2061,-418.156 L -12.0537,-418.266 L -11.8887,-418.357 L -11.7135,-418.427 L -11.5311,-418.473
 L -11.3442,-418.497 L -11.1558,-418.497 L -10.9689,-418.473 L -10.7865,-418.427 L -10.6113,-418.357 L -10.4463,-418.266
 L -10.2939,-418.156 L -10.1565,-418.027 L -10.0365,-417.882 L -9.93553,-417.723 L -9.85533,-417.552 L -9.79712,-417.373
 L -9.76183,-417.188 L -9.75,-417 L -9.76183,-416.812 L -9.79712,-416.627 L -9.85533,-416.448 L -9.93553,-416.277
 L -10.0365,-416.118 L -10.1565,-415.973 L -10.2939,-415.844 L -10.4463,-415.734 L -10.6113,-415.643 L -10.7865,-415.573
 L -10.9689,-415.527 L -11.1558,-415.503 z
M 14.6869,-355.589 L 15.2951,-355.745 L 15.8789,-355.976 L 16.4291,-356.278 L 16.9371,-356.647 L 17.3948,-357.077
 L 17.7951,-357.561 L 18.1315,-358.091 L 18.3989,-358.659 L 18.5929,-359.257 L 18.7106,-359.873 L 18.75,-360.5
 L 18.75,-395.5 L 18.7106,-396.127 L 18.5929,-396.743 L 18.3989,-397.341 L 18.1315,-397.909 L 17.7951,-398.439
 L 17.3948,-398.923 L 16.9371,-399.353 L 16.4291,-399.722 L 15.8789,-400.024 L 15.2951,-400.255 L 14.6869,-400.411
 L 14.0639,-400.49 L -14.0639,-400.49 L -14.6869,-400.411 L -15.2951,-400.255 L -15.8789,-400.024 L -16.4291,-399.722
 L -16.9371,-399.353 L -17.3948,-398.923 L -17.7951,-398.439 L -18.1315,-397.909 L -18.3989,-397.341 L -18.5929,-396.743
 L -18.7106,-396.127 L -18.75,-395.5 L -18.75,-360.5 L -18.7106,-359.873 L -18.5929,-359.257 L -18.3989,-358.659
 L -18.1315,-358.091 L -17.7951,-357.561 L -17.3948,-357.077 L -16.9371,-356.647 L -16.4291,-356.278 L -15.8789,-355.976
 L -15.2951,-355.745 L -14.6869,-355.589 L -14.0639,-355.51 L 14.0639,-355.51 z
M -8.56104,-356.009 L -8.07086,-356.278 L -7.56287,-356.647 L -7.10515,-357.077 L -6.70491,-357.561 L -6.36845,-358.091
 L -6.1011,-358.659 L -5.90707,-359.257 L -5.78941,-359.873 L -5.75,-360.5 L -5.75,-363.5 L -5.78941,-364.127
 L -5.90707,-364.743 L -6.1011,-365.341 L -6.36845,-365.909 L -6.70491,-366.439 L -7.10515,-366.923 L -7.56287,-367.353
 L -8.07086,-367.722 L -8.62109,-368.024 L -9.20491,-368.255 L -9.81308,-368.411 L -10.436,-368.49 L -14.0639,-368.49
 L -14.6869,-368.411 L -15.2951,-368.255 L -15.8789,-368.024 L -16.4291,-367.722 L -16.9371,-367.353 L -17.3948,-366.923
 L -17.7951,-366.439 L -18.1315,-365.909 L -18.25,-365.657 L -18.25,-395.5 L -18.2145,-396.064 L -18.1086,-396.619
 L -17.934,-397.157 L -17.6934,-397.668 L -17.3906,-398.145 L -17.0303,-398.58 L -16.6184,-398.967 L -16.1612,-399.299
 L -15.666,-399.572 L -15.1406,-399.78 L -14.5932,-399.92 L -14.0325,-399.991 L 14.0325,-399.991 L 14.5932,-399.92
 L 15.1406,-399.78 L 15.666,-399.572 L 16.1612,-399.299 L 16.6184,-398.967 L 17.0303,-398.58 L 17.3906,-398.145
 L 17.6934,-397.668 L 17.934,-397.157 L 18.1086,-396.619 L 18.2145,-396.064 L 18.25,-395.5 L 18.25,-360.5
 L 18.2145,-359.936 L 18.1086,-359.381 L 17.934,-358.843 L 17.6934,-358.332 L 17.3906,-357.855 L 17.0303,-357.42
 L 16.6184,-357.033 L 16.1612,-356.701 L 15.666,-356.428 L 15.1406,-356.22 L 14.5932,-356.08 L 14.0325,-356.009
 z
M 11.7184,-390.544 L 12.0225,-390.622 L 12.3144,-390.738 L 12.5896,-390.889 L 12.8436,-391.074 L 13.0724,-391.289
 L 13.2725,-391.531 L 13.4408,-391.796 L 13.5744,-392.08 L 13.6714,-392.378 L 13.7303,-392.687 L 13.75,-393
 L 13.7303,-393.313 L 13.6714,-393.622 L 13.5744,-393.92 L 13.4408,-394.204 L 13.2725,-394.469 L 13.0724,-394.711
 L 12.8436,-394.926 L 12.5896,-395.111 L 12.3144,-395.262 L 12.0225,-395.378 L 11.7184,-395.456 L 11.407,-395.495
 L 11.093,-395.495 L 10.7815,-395.456 L 10.4774,-395.378 L 10.1855,-395.262 L 9.91043,-395.111 L 9.65643,-394.926
 L 9.42757,-394.711 L 9.22745,-394.469 L 9.05922,-394.204 L 8.92555,-393.92 L 8.82854,-393.622 L 8.7697,-393.313
 L 8.75,-393 L 8.7697,-392.687 L 8.82854,-392.378 L 8.92555,-392.08 L 9.05922,-391.796 L 9.22745,-391.531
 L 9.42757,-391.289 L 9.65643,-391.074 L 9.91043,-390.889 L 10.1855,-390.738 L 10.4774,-390.622 L 10.7815,-390.544
 L 11.093,-390.505 L 11.407,-390.505 z
M 11.1558,-391.503 L 10.9689,-391.527 L 10.7865,-391.573 L 10.6113,-391.643 L 10.4463,-391.734 L 10.2939,-391.844
 L 10.1565,-391.973 L 10.0365,-392.118 L 9.93553,-392.277 L 9.85533,-392.448 L 9.79712,-392.627 L 9.76183,-392.812
 L 9.75,-393 L 9.76183,-393.188 L 9.79712,-393.373 L 9.85533,-393.552 L 9.93553,-393.723 L 10.0365,-393.882
 L 10.1565,-394.027 L 10.2939,-394.156 L 10.4463,-394.266 L 10.6113,-394.357 L 10.7865,-394.427 L 10.9689,-394.473
 L 11.1558,-394.497 L 11.3442,-394.497 L 11.5311,-394.473 L 11.7135,-394.427 L 11.8887,-394.357 L 12.0537,-394.266
 L 12.2061,-394.156 L 12.3434,-394.027 L 12.4635,-393.882 L 12.5645,-393.723 L 12.6447,-393.552 L 12.7029,-393.373
 L 12.7382,-393.188 L 12.75,-393 L 12.7382,-392.812 L 12.7029,-392.627 L 12.6447,-392.448 L 12.5645,-392.277
 L 12.4635,-392.118 L 12.3434,-391.973 L 12.2061,-391.844 L 12.0537,-391.734 L 11.8887,-391.643 L 11.7135,-391.573
 L 11.5311,-391.527 L 11.3442,-391.503 z
M -11.3442,-361.503 L -11.5311,-361.527 L -11.7135,-361.573 L -11.8887,-361.643 L -12.0537,-361.734 L -12.2061,-361.844
 L -12.3434,-361.973 L -12.4635,-362.118 L -12.5645,-362.277 L -12.6447,-362.448 L -12.7029,-362.627 L -12.7382,-362.812
 L -12.75,-363 L -12.7382,-363.188 L -12.7029,-363.373 L -12.6447,-363.552 L -12.5645,-363.723 L -12.4635,-363.882
 L -12.3434,-364.027 L -12.2061,-364.156 L -12.0537,-364.266 L -11.8887,-364.357 L -11.7135,-364.427 L -11.5311,-364.473
 L -11.3442,-364.497 L -11.1558,-364.497 L -10.9689,-364.473 L -10.7865,-364.427 L -10.6113,-364.357 L -10.4463,-364.266
 L -10.2939,-364.156 L -10.1565,-364.027 L -10.0365,-363.882 L -9.93553,-363.723 L -9.85533,-363.552 L -9.79712,-363.373
 L -9.76183,-363.188 L -9.75,-363 L -9.76183,-362.812 L -9.79712,-362.627 L -9.85533,-362.448 L -9.93553,-362.277
 L -10.0365,-362.118 L -10.1565,-361.973 L -10.2939,-361.844 L -10.4463,-361.734 L -10.6113,-361.643 L -10.7865,-361.573
 L -10.9689,-361.527 L -11.1558,-361.503 z
M 14.6869,-301.589 L 15.2951,-301.745 L 15.8789,-301.976 L 16.4291,-302.278 L 16.9371,-302.647 L 17.3948,-303.077
 L 17.7951,-303.561 L 18.1315,-304.091 L 18.3989,-304.659 L 18.5929,-305.257 L 18.7106,-305.873 L 18.75,-306.5
 L 18.75,-341.5 L 18.7106,-342.127 L 18.5929,-342.743 L 18.3989,-343.341 L 18.1315,-343.909 L 17.7951,-344.439
 L 17.3948,-344.923 L 16.9371,-345.353 L 16.4291,-345.722 L 15.8789,-346.024 L 15.2951,-346.255 L 14.6869,-346.411
 L 14.0639,-346.49 L -14.0639,-346.49 L -14.6869,-346.411 L -15.2951,-346.255 L -15.8789,-346.024 L -16.4291,-345.722
 L -16.9371,-345.353 L -17.3948,-344.923 L -17.7951,-344.439 L -18.1315,-343.909 L -18.3989,-343.341 L -18.5929,-342.743
 L -18.7106,-342.127 L -18.75,-341.5 L -18.75,-306.5 L -18.7106,-305.873 L -18.5929,-305.257 L -18.3989,-304.659
 L -18.1315,-304.091 L -17.7951,-303.561 L -17.3948,-303.077 L -16.9371,-302.647 L -16.4291,-302.278 L -15.8789,-301.976
 L -15.2951,-301.745 L -14.6869,-301.589 L -14.0639,-301.51 L 14.0639,-301.51 z
M -8.50392,-302.04 L -8.07086,-302.278 L -7.56287,-302.647 L -7.10515,-303.077 L -6.70491,-303.561 L -6.36845,-304.091
 L -6.1011,-304.659 L -5.90707,-305.257 L -5.78941,-305.873 L -5.75,-306.5 L -5.75,-309.5 L -5.78941,-310.127
 L -5.90707,-310.743 L -6.1011,-311.341 L -6.36845,-311.909 L -6.70491,-312.439 L -7.10515,-312.923 L -7.56287,-313.353
 L -8.07086,-313.722 L -8.62109,-314.024 L -9.20491,-314.255 L -9.81308,-314.411 L -10.436,-314.49 L -14.0639,-314.49
 L -14.6869,-314.411 L -15.2951,-314.255 L -15.8789,-314.024 L -16.4291,-313.722 L -16.9371,-313.353 L -17.3948,-312.923
 L -17.7951,-312.439 L -18.1315,-311.909 L -18.2185,-311.724 L -18.2185,-341.5 L -18.1833,-342.06 L -18.0782,-342.611
 L -17.9047,-343.145 L -17.6658,-343.653 L -17.3651,-344.127 L -17.0074,-344.559 L -16.5983,-344.943 L -16.1444,-345.273
 L -15.6526,-345.543 L -15.1308,-345.75 L -14.5873,-345.889 L -14.0306,-345.96 L 14.0306,-345.96 L 14.5873,-345.889
 L 15.1308,-345.75 L 15.6526,-345.543 L 16.1444,-345.273 L 16.5983,-344.943 L 17.0074,-344.559 L 17.3651,-344.127
 L 17.6658,-343.653 L 17.9047,-343.145 L 18.0782,-342.611 L 18.1833,-342.06 L 18.2185,-341.5 L 18.2185,-306.5
 L 18.1833,-305.94 L 18.0782,-305.389 L 17.9047,-304.855 L 17.6658,-304.347 L 17.3651,-303.873 L 17.0074,-303.441
 L 16.5983,-303.057 L 16.1444,-302.727 L 15.6526,-302.457 L 15.1308,-302.25 L 14.5873,-302.111 L 14.0306,-302.04
 z
M 11.7184,-336.544 L 12.0225,-336.622 L 12.3144,-336.738 L 12.5896,-336.889 L 12.8436,-337.074 L 13.0724,-337.289
 L 13.2725,-337.531 L 13.4408,-337.796 L 13.5744,-338.08 L 13.6714,-338.378 L 13.7303,-338.687 L 13.75,-339
 L 13.7303,-339.313 L 13.6714,-339.622 L 13.5744,-339.92 L 13.4408,-340.204 L 13.2725,-340.469 L 13.0724,-340.711
 L 12.8436,-340.926 L 12.5896,-341.111 L 12.3144,-341.262 L 12.0225,-341.378 L 11.7184,-341.456 L 11.407,-341.495
 L 11.093,-341.495 L 10.7815,-341.456 L 10.4774,-341.378 L 10.1855,-341.262 L 9.91043,-341.111 L 9.65643,-340.926
 L 9.42757,-340.711 L 9.22745,-340.469 L 9.05922,-340.204 L 8.92555,-339.92 L 8.82854,-339.622 L 8.7697,-339.313
 L 8.75,-339 L 8.7697,-338.687 L 8.82854,-338.378 L 8.92555,-338.08 L 9.05922,-337.796 L 9.22745,-337.531
 L 9.42757,-337.289 L 9.65643,-337.074 L 9.91043,-336.889 L 10.1855,-336.738 L 10.4774,-336.622 L 10.7815,-336.544
 L 11.093,-336.505 L 11.407,-336.505 z
M 11.1558,-337.503 L 10.9689,-337.527 L 10.7865,-337.573 L 10.6113,-337.643 L 10.4463,-337.734 L 10.2939,-337.844
 L 10.1565,-337.973 L 10.0365,-338.118 L 9.93553,-338.277 L 9.85533,-338.448 L 9.79712,-338.627 L 9.76183,-338.812
 L 9.75,-339 L 9.76183,-339.188 L 9.79712,-339.373 L 9.85533,-339.552 L 9.93553,-339.723 L 10.0365,-339.882
 L 10.1565,-340.027 L 10.2939,-340.156 L 10.4463,-340.266 L 10.6113,-340.357 L 10.7865,-340.427 L 10.9689,-340.473
 L 11.1558,-340.497 L 11.3442,-340.497 L 11.5311,-340.473 L 11.7135,-340.427 L 11.8887,-340.357 L 12.0537,-340.266
 L 12.2061,-340.156 L 12.3434,-340.027 L 12.4635,-339.882 L 12.5645,-339.723 L 12.6447,-339.552 L 12.7029,-339.373
 L 12.7382,-339.188 L 12.75,-339 L 12.7382,-338.812 L 12.7029,-338.627 L 12.6447,-338.448 L 12.5645,-338.277
 L 12.4635,-338.118 L 12.3434,-337.973 L 12.2061,-337.844 L 12.0537,-337.734 L 11.8887,-337.643 L 11.7135,-337.573
 L 11.5311,-337.527 L 11.3442,-337.503 z
M -11.3442,-307.503 L -11.5311,-307.527 L -11.7135,-307.573 L -11.8887,-307.643 L -12.0537,-307.734 L -12.2061,-307.844
 L -12.3434,-307.973 L -12.4635,-308.118 L -12.5645,-308.277 L -12.6447,-308.448 L -12.7029,-308.627 L -12.7382,-308.812
 L -12.75,-309 L -12.7382,-309.188 L -12.7029,-309.373 L -12.6447,-309.552 L -12.5645,-309.723 L -12.4635,-309.882
 L -12.3434,-310.027 L -12.2061,-310.156 L -12.0537,-310.266 L -11.8887,-310.357 L -11.7135,-310.427 L -11.5311,-310.473
 L -11.3442,-310.497 L -11.1558,-310.497 L -10.9689,-310.473 L -10.7865,-310.427 L -10.6113,-310.357 L -10.4463,-310.266
 L -10.2939,-310.156 L -10.1565,-310.027 L -10.0365,-309.882 L -9.93553,-309.723 L -9.85533,-309.552 L -9.79712,-309.373
 L -9.76183,-309.188 L -9.75,-309 L -9.76183,-308.812 L -9.79712,-308.627 L -9.85533,-308.448 L -9.93553,-308.277
 L -10.0365,-308.118 L -10.1565,-307.973 L -10.2939,-307.844 L -10.4463,-307.734 L -10.6113,-307.643 L -10.7865,-307.573
 L -10.9689,-307.527 L -11.1558,-307.503 z
M 14.6869,-247.589 L 15.2951,-247.745 L 15.8789,-247.976 L 16.4291,-248.278 L 16.9371,-248.647 L 17.3948,-249.077
 L 17.7951,-249.561 L 18.1315,-250.091 L 18.3989,-250.659 L 18.5929,-251.257 L 18.7106,-251.873 L 18.75,-252.5
 L 18.75,-287.5 L 18.7106,-288.127 L 18.5929,-288.743 L 18.3989,-289.341 L 18.1315,-289.909 L 17.7951,-290.439
 L 17.3948,-290.923 L 16.9371,-291.353 L 16.4291,-291.722 L 15.8789,-292.024 L 15.2951,-292.255 L 14.6869,-292.411
 L 14.0639,-292.49 L -14.0639,-292.49 L -14.6869,-292.411 L -15.2951,-292.255 L -15.8789,-292.024 L -16.4291,-291.722
 L -16.9371,-291.353 L -17.3948,-290.923 L -17.7951,-290.439 L -18.1315,-289.909 L -18.3989,-289.341 L -18.5929,-288.743
 L -18.7106,-288.127 L -18.75,-287.5 L -18.75,-252.5 L -18.7106,-251.873 L -18.5929,-251.257 L -18.3989,-250.659
 L -18.1315,-250.091 L -17.7951,-249.561 L -17.3948,-249.077 L -16.9371,-248.647 L -16.4291,-248.278 L -15.8789,-247.976
 L -15.2951,-247.745 L -14.6869,-247.589 L -14.0639,-247.51 L 14.0639,-247.51 z
M -6.62805,-249.682 L -6.36845,-250.091 L -6.1011,-250.659 L -5.90707,-251.257 L -5.78941,-251.873 L -5.75,-252.5
 L -5.75,-255.5 L -5.78941,-256.127 L -5.90707,-256.743 L -6.1011,-257.341 L -6.36845,-257.909 L -6.70491,-258.439
 L -7.10515,-258.923 L -7.56287,-259.353 L -8.07086,-259.722 L -8.62109,-260.024 L -9.20491,-260.255 L -9.81308,-260.411
 L -10.436,-260.49 L -14.0639,-260.49 L -14.6869,-260.411 L -15.2951,-260.255 L -15.8789,-260.024 L -16.4291,-259.722
 L -16.5734,-259.617 L -16.5734,-287.5 L -16.5511,-287.854 L -16.4847,-288.202 L -16.3751,-288.539 L -16.2242,-288.86
 L -16.0342,-289.16 L -15.8082,-289.433 L -15.5497,-289.675 L -15.2628,-289.884 L -14.9521,-290.055 L -14.6225,-290.185
 L -14.2791,-290.273 L -13.9273,-290.318 L 6.62805,-290.318 L 6.36845,-289.909 L 6.1011,-289.341 L 5.90707,-288.743
 L 5.78941,-288.127 L 5.75,-287.5 L 5.75,-284.5 L 5.78941,-283.873 L 5.90707,-283.257 L 6.1011,-282.659
 L 6.36845,-282.091 L 6.70491,-281.561 L 7.10515,-281.077 L 7.56287,-280.647 L 8.07086,-280.278 L 8.62109,-279.976
 L 9.20491,-279.745 L 9.81308,-279.589 L 10.436,-279.51 L 14.0639,-279.51 L 14.6869,-279.589 L 15.2951,-279.745
 L 15.8789,-279.976 L 16.4291,-280.278 L 16.5734,-280.383 L 16.5734,-252.5 L 16.5511,-252.146 L 16.4847,-251.798
 L 16.3751,-251.461 L 16.2242,-251.14 L 16.0342,-250.84 L 15.8082,-250.567 L 15.5497,-250.325 L 15.2628,-250.116
 L 14.9521,-249.945 L 14.6225,-249.815 L 14.2791,-249.727 L 13.9273,-249.682 z
M 11.0993,-282.605 L 10.8003,-282.643 L 10.5083,-282.717 L 10.2281,-282.828 L 9.964,-282.974 L 9.72017,-283.151
 L 9.50047,-283.357 L 9.30835,-283.589 L 9.14685,-283.844 L 9.01852,-284.117 L 8.9254,-284.403 L 8.86891,-284.699
 L 8.84999,-285 L 8.86891,-285.301 L 8.9254,-285.597 L 9.01852,-285.883 L 9.14685,-286.156 L 9.30835,-286.411
 L 9.50047,-286.643 L 9.72017,-286.849 L 9.964,-287.026 L 10.2281,-287.172 L 10.5083,-287.283 L 10.8003,-287.357
 L 11.0993,-287.395 L 11.4007,-287.395 L 11.6997,-287.357 L 11.9916,-287.283 L 12.2719,-287.172 L 12.536,-287.026
 L 12.7798,-286.849 L 12.9995,-286.643 L 13.1916,-286.411 L 13.3531,-286.156 L 13.4815,-285.883 L 13.5746,-285.597
 L 13.6311,-285.301 L 13.65,-285 L 13.6311,-284.699 L 13.5746,-284.403 L 13.4815,-284.117 L 13.3531,-283.844
 L 13.1916,-283.589 L 12.9995,-283.357 L 12.7798,-283.151 L 12.536,-282.974 L 12.2719,-282.828 L 11.9916,-282.717
 L 11.6997,-282.643 L 11.4007,-282.605 z
M -11.4007,-252.605 L -11.6997,-252.643 L -11.9916,-252.717 L -12.2719,-252.828 L -12.536,-252.974 L -12.7798,-253.151
 L -12.9995,-253.357 L -13.1916,-253.589 L -13.3531,-253.844 L -13.4815,-254.117 L -13.5746,-254.403 L -13.6311,-254.699
 L -13.65,-255 L -13.6311,-255.301 L -13.5746,-255.597 L -13.4815,-255.883 L -13.3531,-256.156 L -13.1916,-256.411
 L -12.9995,-256.643 L -12.7798,-256.849 L -12.536,-257.026 L -12.2719,-257.172 L -11.9916,-257.283 L -11.6997,-257.357
 L -11.4007,-257.395 L -11.0993,-257.395 L -10.8003,-257.357 L -10.5083,-257.283 L -10.2281,-257.172 L -9.964,-257.026
 L -9.72017,-256.849 L -9.50047,-256.643 L -9.30835,-256.411 L -9.14685,-256.156 L -9.01852,-255.883 L -8.9254,-255.597
 L -8.86891,-255.301 L -8.84999,-255 L -8.86891,-254.699 L -8.9254,-254.403 L -9.01852,-254.117 L -9.14685,-253.844
 L -9.30835,-253.589 L -9.50047,-253.357 L -9.72017,-253.151 L -9.964,-252.974 L -10.2281,-252.828 L -10.5083,-252.717
 L -10.8003,-252.643 L -11.0993,-252.605 z
" stroke="black" fill="lightgray" stroke-width="0.5"/>
</svg>
