  0
SECTION
  2
BLOCKS
  0
ENDSEC
  0
SECTION
  2
ENTITIES
  0
LINE
  8
0
 10
18.212
 20
5.0173
 11
18.6743
 21
5.13597
  0
LINE
  8
0
 10
18.6743
 20
5.13597
 11
19.118
 21
5.31165
  0
LINE
  8
0
 10
19.118
 20
5.31165
 11
19.5361
 21
5.54155
  0
LINE
  8
0
 10
19.5361
 20
5.54155
 11
19.9222
 21
5.82204
  0
LINE
  8
0
 10
19.9222
 20
5.82204
 11
20.2701
 21
6.14871
  0
LINE
  8
0
 10
20.2701
 20
6.14871
 11
20.5743
 21
6.5164
  0
LINE
  8
0
 10
20.5743
 20
6.5164
 11
20.83
 21
6.91933
  0
LINE
  8
0
 10
20.83
 20
6.91933
 11
21.0331
 21
7.35112
  0
LINE
  8
0
 10
21.0331
 20
7.35112
 11
21.1806
 21
7.80498
  0
LINE
  8
0
 10
21.1806
 20
7.80498
 11
21.27
 21
8.27373
  0
LINE
  8
0
 10
21.27
 20
8.27373
 11
21.3
 21
8.75
  0
LINE
  8
0
 10
21.3
 20
8.75
 11
21.3
 21
13.75
  0
LINE
  8
0
 10
21.3
 20
13.75
 11
21.27
 21
14.2263
  0
LINE
  8
0
 10
21.27
 20
14.2263
 11
21.1806
 21
14.695
  0
LINE
  8
0
 10
21.1806
 20
14.695
 11
21.0331
 21
15.1489
  0
LINE
  8
0
 10
21.0331
 20
15.1489
 11
20.83
 21
15.5807
  0
LINE
  8
0
 10
20.83
 20
15.5807
 11
20.5743
 21
15.9836
  0
LINE
  8
0
 10
20.5743
 20
15.9836
 11
20.2701
 21
16.3513
  0
LINE
  8
0
 10
20.2701
 20
16.3513
 11
19.9222
 21
16.6779
  0
LINE
  8
0
 10
19.9222
 20
16.6779
 11
19.5361
 21
16.9584
  0
LINE
  8
0
 10
19.5361
 20
16.9584
 11
19.118
 21
17.1883
  0
LINE
  8
0
 10
19.118
 20
17.1883
 11
18.6743
 21
17.364
  0
LINE
  8
0
 10
18.6743
 20
17.364
 11
18.212
 21
17.4827
  0
LINE
  8
0
 10
18.212
 20
17.4827
 11
17.7386
 21
17.5425
  0
LINE
  8
0
 10
17.7386
 20
17.5425
 11
12.2614
 21
17.5425
  0
LINE
  8
0
 10
12.2614
 20
17.5425
 11
11.7879
 21
17.4827
  0
LINE
  8
0
 10
11.7879
 20
17.4827
 11
11.3257
 21
17.364
  0
LINE
  8
0
 10
11.3257
 20
17.364
 11
10.882
 21
17.1883
  0
LINE
  8
0
 10
10.882
 20
17.1883
 11
10.4639
 21
16.9584
  0
LINE
  8
0
 10
10.4639
 20
16.9584
 11
10.0778
 21
16.6779
  0
LINE
  8
0
 10
10.0778
 20
16.6779
 11
9.7299
 21
16.3513
  0
LINE
  8
0
 10
9.7299
 20
16.3513
 11
9.42572
 21
15.9836
  0
LINE
  8
0
 10
9.42572
 20
15.9836
 11
9.17003
 21
15.5807
  0
LINE
  8
0
 10
9.17003
 20
15.5807
 11
8.96684
 21
15.1489
  0
LINE
  8
0
 10
8.96684
 20
15.1489
 11
8.81938
 21
14.695
  0
LINE
  8
0
 10
8.81938
 20
14.695
 11
8.72995
 21
14.2263
  0
LINE
  8
0
 10
8.72995
 20
14.2263
 11
8.7
 21
13.75
  0
LINE
  8
0
 10
8.7
 20
13.75
 11
8.7
 21
8.75
  0
LINE
  8
0
 10
8.7
 20
8.75
 11
8.72995
 21
8.27373
  0
LINE
  8
0
 10
8.72995
 20
8.27373
 11
8.81938
 21
7.80498
  0
LINE
  8
0
 10
8.81938
 20
7.80498
 11
8.96684
 21
7.35112
  0
LINE
  8
0
 10
8.96684
 20
7.35112
 11
9.17003
 21
6.91933
  0
LINE
  8
0
 10
9.17003
 20
6.91933
 11
9.42572
 21
6.5164
  0
LINE
  8
0
 10
9.42572
 20
6.5164
 11
9.7299
 21
6.14871
  0
LINE
  8
0
 10
9.7299
 20
6.14871
 11
10.0778
 21
5.82204
  0
LINE
  8
0
 10
10.0778
 20
5.82204
 11
10.4639
 21
5.54155
  0
LINE
  8
0
 10
10.4639
 20
5.54155
 11
10.882
 21
5.31165
  0
LINE
  8
0
 10
10.882
 20
5.31165
 11
11.3257
 21
5.13597
  0
LINE
  8
0
 10
11.3257
 20
5.13597
 11
11.7879
 21
5.0173
  0
LINE
  8
0
 10
11.7879
 20
5.0173
 11
12.2614
 21
4.95749
  0
LINE
  8
0
 10
12.2614
 20
4.95749
 11
17.7386
 21
4.95749
  0
LINE
  8
0
 10
17.7386
 20
4.95749
 11
18.212
 21
5.0173
  0
LINE
  8
0
 10
14.3116
 20
7.75591
 11
13.9379
 21
7.80313
  0
LINE
  8
0
 10
13.9379
 20
7.80313
 11
13.5729
 21
7.89682
  0
LINE
  8
0
 10
13.5729
 20
7.89682
 11
13.2227
 21
8.03551
  0
LINE
  8
0
 10
13.2227
 20
8.03551
 11
12.8925
 21
8.21701
  0
LINE
  8
0
 10
12.8925
 20
8.21701
 11
12.5877
 21
8.43845
  0
LINE
  8
0
 10
12.5877
 20
8.43845
 11
12.3131
 21
8.69635
  0
LINE
  8
0
 10
12.3131
 20
8.69635
 11
12.0729
 21
8.98663
  0
LINE
  8
0
 10
12.0729
 20
8.98663
 11
11.8711
 21
9.30473
  0
LINE
  8
0
 10
11.8711
 20
9.30473
 11
11.7107
 21
9.64561
  0
LINE
  8
0
 10
11.7107
 20
9.64561
 11
11.5942
 21
10.0039
  0
LINE
  8
0
 10
11.5942
 20
10.0039
 11
11.5237
 21
10.374
  0
LINE
  8
0
 10
11.5237
 20
10.374
 11
11.5
 21
10.75
  0
LINE
  8
0
 10
11.5
 20
10.75
 11
11.5
 21
11.75
  0
LINE
  8
0
 10
11.5
 20
11.75
 11
11.5237
 21
12.126
  0
LINE
  8
0
 10
11.5237
 20
12.126
 11
11.5942
 21
12.4961
  0
LINE
  8
0
 10
11.5942
 20
12.4961
 11
11.7107
 21
12.8544
  0
LINE
  8
0
 10
11.7107
 20
12.8544
 11
11.8711
 21
13.1953
  0
LINE
  8
0
 10
11.8711
 20
13.1953
 11
12.0729
 21
13.5134
  0
LINE
  8
0
 10
12.0729
 20
13.5134
 11
12.3131
 21
13.8036
  0
LINE
  8
0
 10
12.3131
 20
13.8036
 11
12.5877
 21
14.0615
  0
LINE
  8
0
 10
12.5877
 20
14.0615
 11
12.8925
 21
14.283
  0
LINE
  8
0
 10
12.8925
 20
14.283
 11
13.2227
 21
14.4645
  0
LINE
  8
0
 10
13.2227
 20
14.4645
 11
13.5729
 21
14.6032
  0
LINE
  8
0
 10
13.5729
 20
14.6032
 11
13.9379
 21
14.6969
  0
LINE
  8
0
 10
13.9379
 20
14.6969
 11
14.3116
 21
14.7441
  0
LINE
  8
0
 10
14.3116
 20
14.7441
 11
15.6884
 21
14.7441
  0
LINE
  8
0
 10
15.6884
 20
14.7441
 11
16.0621
 21
14.6969
  0
LINE
  8
0
 10
16.0621
 20
14.6969
 11
16.427
 21
14.6032
  0
LINE
  8
0
 10
16.427
 20
14.6032
 11
16.7773
 21
14.4645
  0
LINE
  8
0
 10
16.7773
 20
14.4645
 11
17.1075
 21
14.283
  0
LINE
  8
0
 10
17.1075
 20
14.283
 11
17.4123
 21
14.0615
  0
LINE
  8
0
 10
17.4123
 20
14.0615
 11
17.6869
 21
13.8036
  0
LINE
  8
0
 10
17.6869
 20
13.8036
 11
17.927
 21
13.5134
  0
LINE
  8
0
 10
17.927
 20
13.5134
 11
18.1289
 21
13.1953
  0
LINE
  8
0
 10
18.1289
 20
13.1953
 11
18.2893
 21
12.8544
  0
LINE
  8
0
 10
18.2893
 20
12.8544
 11
18.4057
 21
12.4961
  0
LINE
  8
0
 10
18.4057
 20
12.4961
 11
18.4763
 21
12.126
  0
LINE
  8
0
 10
18.4763
 20
12.126
 11
18.5
 21
11.75
  0
LINE
  8
0
 10
18.5
 20
11.75
 11
18.5
 21
10.75
  0
LINE
  8
0
 10
18.5
 20
10.75
 11
18.4763
 21
10.374
  0
LINE
  8
0
 10
18.4763
 20
10.374
 11
18.4057
 21
10.0039
  0
LINE
  8
0
 10
18.4057
 20
10.0039
 11
18.2893
 21
9.64561
  0
LINE
  8
0
 10
18.2893
 20
9.64561
 11
18.1289
 21
9.30473
  0
LINE
  8
0
 10
18.1289
 20
9.30473
 11
17.927
 21
8.98663
  0
LINE
  8
0
 10
17.927
 20
8.98663
 11
17.6869
 21
8.69635
  0
LINE
  8
0
 10
17.6869
 20
8.69635
 11
17.4123
 21
8.43845
  0
LINE
  8
0
 10
17.4123
 20
8.43845
 11
17.1075
 21
8.21701
  0
LINE
  8
0
 10
17.1075
 20
8.21701
 11
16.7773
 21
8.03551
  0
LINE
  8
0
 10
16.7773
 20
8.03551
 11
16.427
 21
7.89682
  0
LINE
  8
0
 10
16.427
 20
7.89682
 11
16.0621
 21
7.80313
  0
LINE
  8
0
 10
16.0621
 20
7.80313
 11
15.6884
 21
7.75591
  0
LINE
  8
0
 10
15.6884
 20
7.75591
 11
14.3116
 21
7.75591
  0
LINE
  8
0
 10
-14.0631
 20
-16.1614
 11
-13.4549
 21
-16.0053
  0
LINE
  8
0
 10
-13.4549
 20
-16.0053
 11
-12.8711
 21
-15.7741
  0
LINE
  8
0
 10
-12.8711
 20
-15.7741
 11
-12.3209
 21
-15.4716
  0
LINE
  8
0
 10
-12.3209
 20
-15.4716
 11
-11.8129
 21
-15.1026
  0
LINE
  8
0
 10
-11.8129
 20
-15.1026
 11
-11.3551
 21
-14.6727
  0
LINE
  8
0
 10
-11.3551
 20
-14.6727
 11
-10.9549
 21
-14.1889
  0
LINE
  8
0
 10
-10.9549
 20
-14.1889
 11
-10.6185
 21
-13.6588
  0
LINE
  8
0
 10
-10.6185
 20
-13.6588
 11
-10.3511
 21
-13.0906
  0
LINE
  8
0
 10
-10.3511
 20
-13.0906
 11
-10.1571
 21
-12.4934
  0
LINE
  8
0
 10
-10.1571
 20
-12.4934
 11
-10.0394
 21
-11.8767
  0
LINE
  8
0
 10
-10.0394
 20
-11.8767
 11
-10
 21
-11.25
  0
LINE
  8
0
 10
-10
 20
-11.25
 11
-10.0394
 21
-10.6233
  0
LINE
  8
0
 10
-10.0394
 20
-10.6233
 11
-10.1571
 21
-10.0065
  0
LINE
  8
0
 10
-10.1571
 20
-10.0065
 11
-10.3511
 21
-9.40936
  0
LINE
  8
0
 10
-10.3511
 20
-9.40936
 11
-10.6185
 21
-8.84122
  0
LINE
  8
0
 10
-10.6185
 20
-8.84122
 11
-10.9549
 21
-8.31107
  0
LINE
  8
0
 10
-10.9549
 20
-8.31107
 11
-11.3551
 21
-7.82726
  0
LINE
  8
0
 10
-11.3551
 20
-7.82726
 11
-11.8129
 21
-7.39743
  0
LINE
  8
0
 10
-11.8129
 20
-7.39743
 11
-12.3209
 21
-7.02835
  0
LINE
  8
0
 10
-12.3209
 20
-7.02835
 11
-12.8711
 21
-6.72586
  0
LINE
  8
0
 10
-12.8711
 20
-6.72586
 11
-13.4549
 21
-6.49471
  0
LINE
  8
0
 10
-13.4549
 20
-6.49471
 11
-14.0631
 21
-6.33856
  0
LINE
  8
0
 10
-14.0631
 20
-6.33856
 11
-14.686
 21
-6.25986
  0
LINE
  8
0
 10
-14.686
 20
-6.25986
 11
-15.3139
 21
-6.25986
  0
LINE
  8
0
 10
-15.3139
 20
-6.25986
 11
-15.9369
 21
-6.33856
  0
LINE
  8
0
 10
-15.9369
 20
-6.33856
 11
-16.5451
 21
-6.49471
  0
LINE
  8
0
 10
-16.5451
 20
-6.49471
 11
-17.1289
 21
-6.72586
  0
LINE
  8
0
 10
-17.1289
 20
-6.72586
 11
-17.6791
 21
-7.02835
  0
LINE
  8
0
 10
-17.6791
 20
-7.02835
 11
-18.1871
 21
-7.39743
  0
LINE
  8
0
 10
-18.1871
 20
-7.39743
 11
-18.6448
 21
-7.82726
  0
LINE
  8
0
 10
-18.6448
 20
-7.82726
 11
-19.0451
 21
-8.31107
  0
LINE
  8
0
 10
-19.0451
 20
-8.31107
 11
-19.3815
 21
-8.84122
  0
LINE
  8
0
 10
-19.3815
 20
-8.84122
 11
-19.6489
 21
-9.40936
  0
LINE
  8
0
 10
-19.6489
 20
-9.40936
 11
-19.8429
 21
-10.0065
  0
LINE
  8
0
 10
-19.8429
 20
-10.0065
 11
-19.9606
 21
-10.6233
  0
LINE
  8
0
 10
-19.9606
 20
-10.6233
 11
-20
 21
-11.25
  0
LINE
  8
0
 10
-20
 20
-11.25
 11
-19.9606
 21
-11.8767
  0
LINE
  8
0
 10
-19.9606
 20
-11.8767
 11
-19.8429
 21
-12.4934
  0
LINE
  8
0
 10
-19.8429
 20
-12.4934
 11
-19.6489
 21
-13.0906
  0
LINE
  8
0
 10
-19.6489
 20
-13.0906
 11
-19.3815
 21
-13.6588
  0
LINE
  8
0
 10
-19.3815
 20
-13.6588
 11
-19.0451
 21
-14.1889
  0
LINE
  8
0
 10
-19.0451
 20
-14.1889
 11
-18.6448
 21
-14.6727
  0
LINE
  8
0
 10
-18.6448
 20
-14.6727
 11
-18.1871
 21
-15.1026
  0
LINE
  8
0
 10
-18.1871
 20
-15.1026
 11
-17.6791
 21
-15.4716
  0
LINE
  8
0
 10
-17.6791
 20
-15.4716
 11
-17.1289
 21
-15.7741
  0
LINE
  8
0
 10
-17.1289
 20
-15.7741
 11
-16.5451
 21
-16.0053
  0
LINE
  8
0
 10
-16.5451
 20
-16.0053
 11
-15.9369
 21
-16.1614
  0
LINE
  8
0
 10
-15.9369
 20
-16.1614
 11
-15.3139
 21
-16.2401
  0
LINE
  8
0
 10
-15.3139
 20
-16.2401
 11
-14.686
 21
-16.2401
  0
LINE
  8
0
 10
-14.686
 20
-16.2401
 11
-14.0631
 21
-16.1614
  0
LINE
  8
0
 10
-15.0942
 20
-12.747
 11
-15.2811
 21
-12.7234
  0
LINE
  8
0
 10
-15.2811
 20
-12.7234
 11
-15.4635
 21
-12.6766
  0
LINE
  8
0
 10
-15.4635
 20
-12.6766
 11
-15.6387
 21
-12.6072
  0
LINE
  8
0
 10
-15.6387
 20
-12.6072
 11
-15.8037
 21
-12.5165
  0
LINE
  8
0
 10
-15.8037
 20
-12.5165
 11
-15.9561
 21
-12.4058
  0
LINE
  8
0
 10
-15.9561
 20
-12.4058
 11
-16.0934
 21
-12.2768
  0
LINE
  8
0
 10
-16.0934
 20
-12.2768
 11
-16.2135
 21
-12.1317
  0
LINE
  8
0
 10
-16.2135
 20
-12.1317
 11
-16.3145
 21
-11.9726
  0
LINE
  8
0
 10
-16.3145
 20
-11.9726
 11
-16.3947
 21
-11.8022
  0
LINE
  8
0
 10
-16.3947
 20
-11.8022
 11
-16.4529
 21
-11.623
  0
LINE
  8
0
 10
-16.4529
 20
-11.623
 11
-16.4882
 21
-11.438
  0
LINE
  8
0
 10
-16.4882
 20
-11.438
 11
-16.5
 21
-11.25
  0
LINE
  8
0
 10
-16.5
 20
-11.25
 11
-16.4882
 21
-11.062
  0
LINE
  8
0
 10
-16.4882
 20
-11.062
 11
-16.4529
 21
-10.877
  0
LINE
  8
0
 10
-16.4529
 20
-10.877
 11
-16.3947
 21
-10.6978
  0
LINE
  8
0
 10
-16.3947
 20
-10.6978
 11
-16.3145
 21
-10.5274
  0
LINE
  8
0
 10
-16.3145
 20
-10.5274
 11
-16.2135
 21
-10.3683
  0
LINE
  8
0
 10
-16.2135
 20
-10.3683
 11
-16.0934
 21
-10.2232
  0
LINE
  8
0
 10
-16.0934
 20
-10.2232
 11
-15.9561
 21
-10.0942
  0
LINE
  8
0
 10
-15.9561
 20
-10.0942
 11
-15.8037
 21
-9.98351
  0
LINE
  8
0
 10
-15.8037
 20
-9.98351
 11
-15.6387
 21
-9.89275
  0
LINE
  8
0
 10
-15.6387
 20
-9.89275
 11
-15.4635
 21
-9.82341
  0
LINE
  8
0
 10
-15.4635
 20
-9.82341
 11
-15.2811
 21
-9.77657
  0
LINE
  8
0
 10
-15.2811
 20
-9.77657
 11
-15.0942
 21
-9.75294
  0
LINE
  8
0
 10
-15.0942
 20
-9.75294
 11
-14.9058
 21
-9.75294
  0
LINE
  8
0
 10
-14.9058
 20
-9.75294
 11
-14.7189
 21
-9.77657
  0
LINE
  8
0
 10
-14.7189
 20
-9.77657
 11
-14.5365
 21
-9.82341
  0
LINE
  8
0
 10
-14.5365
 20
-9.82341
 11
-14.3613
 21
-9.89275
  0
LINE
  8
0
 10
-14.3613
 20
-9.89275
 11
-14.1963
 21
-9.98351
  0
LINE
  8
0
 10
-14.1963
 20
-9.98351
 11
-14.0439
 21
-10.0942
  0
LINE
  8
0
 10
-14.0439
 20
-10.0942
 11
-13.9065
 21
-10.2232
  0
LINE
  8
0
 10
-13.9065
 20
-10.2232
 11
-13.7865
 21
-10.3683
  0
LINE
  8
0
 10
-13.7865
 20
-10.3683
 11
-13.6855
 21
-10.5274
  0
LINE
  8
0
 10
-13.6855
 20
-10.5274
 11
-13.6053
 21
-10.6978
  0
LINE
  8
0
 10
-13.6053
 20
-10.6978
 11
-13.5471
 21
-10.877
  0
LINE
  8
0
 10
-13.5471
 20
-10.877
 11
-13.5118
 21
-11.062
  0
LINE
  8
0
 10
-13.5118
 20
-11.062
 11
-13.5
 21
-11.25
  0
LINE
  8
0
 10
-13.5
 20
-11.25
 11
-13.5118
 21
-11.438
  0
LINE
  8
0
 10
-13.5118
 20
-11.438
 11
-13.5471
 21
-11.623
  0
LINE
  8
0
 10
-13.5471
 20
-11.623
 11
-13.6053
 21
-11.8022
  0
LINE
  8
0
 10
-13.6053
 20
-11.8022
 11
-13.6855
 21
-11.9726
  0
LINE
  8
0
 10
-13.6855
 20
-11.9726
 11
-13.7865
 21
-12.1317
  0
LINE
  8
0
 10
-13.7865
 20
-12.1317
 11
-13.9065
 21
-12.2768
  0
LINE
  8
0
 10
-13.9065
 20
-12.2768
 11
-14.0439
 21
-12.4058
  0
LINE
  8
0
 10
-14.0439
 20
-12.4058
 11
-14.1963
 21
-12.5165
  0
LINE
  8
0
 10
-14.1963
 20
-12.5165
 11
-14.3613
 21
-12.6072
  0
LINE
  8
0
 10
-14.3613
 20
-12.6072
 11
-14.5365
 21
-12.6766
  0
LINE
  8
0
 10
-14.5365
 20
-12.6766
 11
-14.7189
 21
-12.7234
  0
LINE
  8
0
 10
-14.7189
 20
-12.7234
 11
-14.9058
 21
-12.747
  0
LINE
  8
0
 10
-14.9058
 20
-12.747
 11
-15.0942
 21
-12.747
  0
ENDSEC
  0
SECTION
  2
OBJECTS
  0
DICTIONARY
  0
ENDSEC
  0
EOF
