<?xml version="1.0" standalone="no"?>
<!DOCTYPE svg PUBLIC "-//W3C//DTD SVG 1.1//EN" "http://www.w3.org/Graphics/SVG/1.1/DTD/svg11.dtd">
<svg width="32mm" height="207mm" viewBox="-17 -347 32 207" xmlns="http://www.w3.org/2000/svg" version="1.1">
<title>OpenSCAD Model</title>
<path d="
M -13.5,-304.007 L -13.1448,-303.577 L -12.6871,-303.147 L -12.1791,-302.778 L -11.6289,-302.476 L -11.0451,-302.245
 L -10.4369,-302.089 L -9.81395,-302.01 L 9.81395,-302.01 L 10.4369,-302.089 L 11.0451,-302.245 L 11.6289,-302.476
 L 12.1791,-302.778 L 12.6871,-303.147 L 13.1448,-303.577 L 13.5451,-304.061 L 13.8815,-304.591 L 14.1489,-305.159
 L 14.3429,-305.757 L 14.4606,-306.373 L 14.5,-307 L 14.5,-341 L 14.4606,-341.627 L 14.3429,-342.243
 L 14.1489,-342.841 L 13.8815,-343.409 L 13.5451,-343.939 L 13.1448,-344.423 L 12.6871,-344.853 L 12.1791,-345.222
 L 11.6289,-345.524 L 11.0451,-345.755 L 10.4369,-345.911 L 9.81395,-345.99 L -9.81395,-345.99 L -10.4369,-345.911
 L -11.0451,-345.755 L -11.6289,-345.524 L -12.1791,-345.222 L -12.6871,-344.853 L -13.1448,-344.423 L -13.5,-343.993
 L -13.5,-346.49 L -16.5,-346.49 L -16.5,-301.51 L -13.5,-301.51 z
M -9.75116,-303.008 L -10.2495,-303.071 L -10.7361,-303.196 L -11.2031,-303.381 L -11.6433,-303.623 L -12.0497,-303.918
 L -12.4159,-304.262 L -12.7361,-304.649 L -13.0052,-305.073 L -13.2191,-305.528 L -13.3743,-306.005 L -13.4684,-306.499
 L -13.5,-307 L -13.5,-341 L -13.4684,-341.501 L -13.3743,-341.995 L -13.2191,-342.472 L -13.0052,-342.927
 L -12.7361,-343.351 L -12.4159,-343.738 L -12.0497,-344.082 L -11.6433,-344.377 L -11.2031,-344.619 L -10.7361,-344.804
 L -10.2495,-344.929 L -9.75116,-344.992 L 9.75116,-344.992 L 10.2495,-344.929 L 10.7361,-344.804 L 11.2031,-344.619
 L 11.6433,-344.377 L 12.0497,-344.082 L 12.4159,-343.738 L 12.7361,-343.351 L 13.0052,-342.927 L 13.2191,-342.472
 L 13.3743,-341.995 L 13.4684,-341.501 L 13.5,-341 L 13.5,-307 L 13.4684,-306.499 L 13.3743,-306.005
 L 13.2191,-305.528 L 13.0052,-305.073 L 12.7361,-304.649 L 12.4159,-304.262 L 12.0497,-303.918 L 11.6433,-303.623
 L 11.2031,-303.381 L 10.7361,-303.196 L 10.2495,-303.071 L 9.75116,-303.008 z
M -13.5,-250.007 L -13.1448,-249.577 L -12.6871,-249.147 L -12.1791,-248.778 L -11.6289,-248.476 L -11.0451,-248.245
 L -10.4369,-248.089 L -9.81395,-248.01 L 9.81395,-248.01 L 10.4369,-248.089 L 11.0451,-248.245 L 11.6289,-248.476
 L 12.1791,-248.778 L 12.6871,-249.147 L 13.1448,-249.577 L 13.5451,-250.061 L 13.8815,-250.591 L 14.1489,-251.159
 L 14.3429,-251.757 L 14.4606,-252.373 L 14.5,-253 L 14.5,-287 L 14.4606,-287.627 L 14.3429,-288.243
 L 14.1489,-288.841 L 13.8815,-289.409 L 13.5451,-289.939 L 13.1448,-290.423 L 12.6871,-290.853 L 12.1791,-291.222
 L 11.6289,-291.524 L 11.0451,-291.755 L 10.4369,-291.911 L 9.81395,-291.99 L -9.81395,-291.99 L -10.4369,-291.911
 L -11.0451,-291.755 L -11.6289,-291.524 L -12.1791,-291.222 L -12.6871,-290.853 L -13.1448,-290.423 L -13.5,-289.993
 L -13.5,-292.49 L -16.5,-292.49 L -16.5,-247.51 L -13.5,-247.51 z
M -9.74316,-249.135 L -10.2256,-249.196 L -10.6967,-249.317 L -11.1489,-249.496 L -11.5751,-249.73 L -11.9685,-250.016
 L -12.323,-250.349 L -12.633,-250.724 L -12.8936,-251.134 L -13.1007,-251.574 L -13.251,-252.037 L -13.3421,-252.515
 L -13.3726,-253 L -13.3726,-287 L -13.3421,-287.485 L -13.251,-287.963 L -13.1007,-288.426 L -12.8936,-288.866
 L -12.633,-289.276 L -12.323,-289.651 L -11.9685,-289.984 L -11.5751,-290.27 L -11.1489,-290.504 L -10.6967,-290.683
 L -10.2256,-290.804 L -9.74316,-290.865 L 9.74316,-290.865 L 10.2256,-290.804 L 10.6967,-290.683 L 11.1489,-290.504
 L 11.5751,-290.27 L 11.9685,-289.984 L 12.323,-289.651 L 12.633,-289.276 L 12.8936,-288.866 L 13.1007,-288.426
 L 13.251,-287.963 L 13.3421,-287.485 L 13.3726,-287 L 13.3726,-253 L 13.3421,-252.515 L 13.251,-252.037
 L 13.1007,-251.574 L 12.8936,-251.134 L 12.633,-250.724 L 12.323,-250.349 L 11.9685,-250.016 L 11.5751,-249.73
 L 11.1489,-249.496 L 10.6967,-249.317 L 10.2256,-249.196 L 9.74316,-249.135 z
M -13.5,-196.007 L -13.1448,-195.577 L -12.6871,-195.147 L -12.1791,-194.778 L -11.6289,-194.476 L -11.0451,-194.245
 L -10.4369,-194.089 L -9.81395,-194.01 L 9.81395,-194.01 L 10.4369,-194.089 L 11.0451,-194.245 L 11.6289,-194.476
 L 12.1791,-194.778 L 12.6871,-195.147 L 13.1448,-195.577 L 13.5451,-196.061 L 13.8815,-196.591 L 14.1489,-197.159
 L 14.3429,-197.757 L 14.4606,-198.373 L 14.5,-199 L 14.5,-233 L 14.4606,-233.627 L 14.3429,-234.243
 L 14.1489,-234.841 L 13.8815,-235.409 L 13.5451,-235.939 L 13.1448,-236.423 L 12.6871,-236.853 L 12.1791,-237.222
 L 11.6289,-237.524 L 11.0451,-237.755 L 10.4369,-237.911 L 9.81395,-237.99 L -9.81395,-237.99 L -10.4369,-237.911
 L -11.0451,-237.755 L -11.6289,-237.524 L -12.1791,-237.222 L -12.6871,-236.853 L -13.1448,-236.423 L -13.5,-235.993
 L -13.5,-238.115 L -16.5,-238.115 L -16.5,-193.885 L -13.5,-193.885 z
M 10.4369,-140.089 L 11.0451,-140.245 L 11.6289,-140.476 L 12.1791,-140.778 L 12.6871,-141.147 L 13.1448,-141.577
 L 13.5451,-142.061 L 13.8815,-142.591 L 14.1489,-143.159 L 14.3429,-143.757 L 14.4606,-144.373 L 14.5,-145
 L 14.5,-179 L 14.4606,-179.627 L 14.3429,-180.243 L 14.1489,-180.841 L 13.8815,-181.409 L 13.5451,-181.939
 L 13.1448,-182.423 L 12.6871,-182.853 L 12.1791,-183.222 L 11.6289,-183.524 L 11.0451,-183.755 L 10.4369,-183.911
 L 9.81395,-183.99 L -9.81395,-183.99 L -10.4369,-183.911 L -11.0451,-183.755 L -11.6289,-183.524 L -12.1791,-183.222
 L -12.6871,-182.853 L -13.1448,-182.423 L -13.5451,-181.939 L -13.8815,-181.409 L -14.1489,-180.841 L -14.2777,-180.444
 L -16.5,-180.444 L -16.5,-143.556 L -14.2777,-143.556 L -14.1489,-143.159 L -13.8815,-142.591 L -13.5451,-142.061
 L -13.1448,-141.577 L -12.6871,-141.147 L -12.1791,-140.778 L -11.6289,-140.476 L -11.0451,-140.245 L -10.4369,-140.089
 L -9.81395,-140.01 L 9.81395,-140.01 z
M -7.6507,-174.605 L -7.94971,-174.643 L -8.24164,-174.717 L -8.52187,-174.828 L -8.78598,-174.974 L -9.02982,-175.151
 L -9.24951,-175.357 L -9.44164,-175.589 L -9.60313,-175.844 L -9.73146,-176.117 L -9.82458,-176.403 L -9.88107,-176.699
 L -9.89999,-177 L -9.88107,-177.301 L -9.82458,-177.597 L -9.73146,-177.883 L -9.60313,-178.156 L -9.44164,-178.411
 L -9.24951,-178.643 L -9.02982,-178.849 L -8.78598,-179.026 L -8.52187,-179.172 L -8.24164,-179.283 L -7.94971,-179.357
 L -7.6507,-179.395 L -7.34929,-179.395 L -7.05028,-179.357 L -6.75835,-179.283 L -6.47812,-179.172 L -6.214,-179.026
 L -5.97017,-178.849 L -5.75047,-178.643 L -5.55835,-178.411 L -5.39685,-178.156 L -5.26852,-177.883 L -5.1754,-177.597
 L -5.11891,-177.301 L -5.09999,-177 L -5.11891,-176.699 L -5.1754,-176.403 L -5.26852,-176.117 L -5.39685,-175.844
 L -5.55835,-175.589 L -5.75047,-175.357 L -5.97017,-175.151 L -6.214,-174.974 L -6.47812,-174.828 L -6.75835,-174.717
 L -7.05028,-174.643 L -7.34929,-174.605 z
M 7.34929,-174.605 L 7.05028,-174.643 L 6.75835,-174.717 L 6.47812,-174.828 L 6.214,-174.974 L 5.97017,-175.151
 L 5.75047,-175.357 L 5.55835,-175.589 L 5.39685,-175.844 L 5.26852,-176.117 L 5.1754,-176.403 L 5.11891,-176.699
 L 5.09999,-177 L 5.11891,-177.301 L 5.1754,-177.597 L 5.26852,-177.883 L 5.39685,-178.156 L 5.55835,-178.411
 L 5.75047,-178.643 L 5.97017,-178.849 L 6.214,-179.026 L 6.47812,-179.172 L 6.75835,-179.283 L 7.05028,-179.357
 L 7.34929,-179.395 L 7.6507,-179.395 L 7.94971,-179.357 L 8.24164,-179.283 L 8.52187,-179.172 L 8.78598,-179.026
 L 9.02982,-178.849 L 9.24951,-178.643 L 9.44164,-178.411 L 9.60313,-178.156 L 9.73146,-177.883 L 9.82458,-177.597
 L 9.88107,-177.301 L 9.89999,-177 L 9.88107,-176.699 L 9.82458,-176.403 L 9.73146,-176.117 L 9.60313,-175.844
 L 9.44164,-175.589 L 9.24951,-175.357 L 9.02982,-175.151 L 8.78598,-174.974 L 8.52187,-174.828 L 8.24164,-174.717
 L 7.94971,-174.643 L 7.6507,-174.605 z
M -7.6507,-144.605 L -7.94971,-144.643 L -8.24164,-144.717 L -8.52187,-144.828 L -8.78598,-144.974 L -9.02982,-145.151
 L -9.24951,-145.357 L -9.44164,-145.589 L -9.60313,-145.844 L -9.73146,-146.117 L -9.82458,-146.403 L -9.88107,-146.699
 L -9.89999,-147 L -9.88107,-147.301 L -9.82458,-147.597 L -9.73146,-147.883 L -9.60313,-148.156 L -9.44164,-148.411
 L -9.24951,-148.643 L -9.02982,-148.849 L -8.78598,-149.026 L -8.52187,-149.172 L -8.24164,-149.283 L -7.94971,-149.357
 L -7.6507,-149.395 L -7.34929,-149.395 L -7.05028,-149.357 L -6.75835,-149.283 L -6.47812,-149.172 L -6.214,-149.026
 L -5.97017,-148.849 L -5.75047,-148.643 L -5.55835,-148.411 L -5.39685,-148.156 L -5.26852,-147.883 L -5.1754,-147.597
 L -5.11891,-147.301 L -5.09999,-147 L -5.11891,-146.699 L -5.1754,-146.403 L -5.26852,-146.117 L -5.39685,-145.844
 L -5.55835,-145.589 L -5.75047,-145.357 L -5.97017,-145.151 L -6.214,-144.974 L -6.47812,-144.828 L -6.75835,-144.717
 L -7.05028,-144.643 L -7.34929,-144.605 z
M 7.34929,-144.605 L 7.05028,-144.643 L 6.75835,-144.717 L 6.47812,-144.828 L 6.214,-144.974 L 5.97017,-145.151
 L 5.75047,-145.357 L 5.55835,-145.589 L 5.39685,-145.844 L 5.26852,-146.117 L 5.1754,-146.403 L 5.11891,-146.699
 L 5.09999,-147 L 5.11891,-147.301 L 5.1754,-147.597 L 5.26852,-147.883 L 5.39685,-148.156 L 5.55835,-148.411
 L 5.75047,-148.643 L 5.97017,-148.849 L 6.214,-149.026 L 6.47812,-149.172 L 6.75835,-149.283 L 7.05028,-149.357
 L 7.34929,-149.395 L 7.6507,-149.395 L 7.94971,-149.357 L 8.24164,-149.283 L 8.52187,-149.172 L 8.78598,-149.026
 L 9.02982,-148.849 L 9.24951,-148.643 L 9.44164,-148.411 L 9.60313,-148.156 L 9.73146,-147.883 L 9.82458,-147.597
 L 9.88107,-147.301 L 9.89999,-147 L 9.88107,-146.699 L 9.82458,-146.403 L 9.73146,-146.117 L 9.60313,-145.844
 L 9.44164,-145.589 L 9.24951,-145.357 L 9.02982,-145.151 L 8.78598,-144.974 L 8.52187,-144.828 L 8.24164,-144.717
 L 7.94971,-144.643 L 7.6507,-144.605 z
" stroke="black" fill="lightgray" stroke-width="0.5"/>
</svg>
