<?xml version="1.0" standalone="no"?>
<!DOCTYPE svg PUBLIC "-//W3C//DTD SVG 1.1//EN" "http://www.w3.org/Graphics/SVG/1.1/DTD/svg11.dtd">
<svg width="8mm" height="32mm" viewBox="-4 -76 8 32" xmlns="http://www.w3.org/2000/svg" version="1.1">
<title>OpenSCAD Model</title>
<path d="
M 1.46844,-68.5443 L 1.77254,-68.6224 L 2.06444,-68.7379 L 2.33955,-68.8892 L 2.59355,-69.0737 L 2.82242,-69.2886
 L 3.02254,-69.5305 L 3.19077,-69.7956 L 3.32443,-70.0797 L 3.42145,-70.3783 L 3.48029,-70.6867 L 3.5,-71
 L 3.5,-73 L 3.48029,-73.3133 L 3.42145,-73.6217 L 3.32443,-73.9203 L 3.19077,-74.2044 L 3.02254,-74.4695
 L 2.82242,-74.7114 L 2.59355,-74.9263 L 2.33955,-75.1108 L 2.06444,-75.2621 L 1.77254,-75.3776 L 1.46844,-75.4557
 L 1.15697,-75.4951 L -1.15697,-75.4951 L -1.46844,-75.4557 L -1.77254,-75.3776 L -2.06444,-75.2621 L -2.33955,-75.1108
 L -2.59355,-74.9263 L -2.82242,-74.7114 L -3.02254,-74.4695 L -3.19077,-74.2044 L -3.32443,-73.9203 L -3.42145,-73.6217
 L -3.48029,-73.3133 L -3.5,-73 L -3.5,-71 L -3.48029,-70.6867 L -3.42145,-70.3783 L -3.32443,-70.0797
 L -3.19077,-69.7956 L -3.02254,-69.5305 L -2.82242,-69.2886 L -2.59355,-69.0737 L -2.33955,-68.8892 L -2.06444,-68.7379
 L -1.77254,-68.6224 L -1.46844,-68.5443 L -1.15697,-68.5049 L 1.15697,-68.5049 z
M -0.0941772,-70.503 L -0.281067,-70.5266 L -0.463516,-70.5734 L -0.638657,-70.6428 L -0.803726,-70.7335 L -0.956131,-70.8442
 L -1.09344,-70.9732 L -1.21352,-71.1183 L -1.31445,-71.2774 L -1.39465,-71.4478 L -1.45287,-71.627 L -1.48816,-71.812
 L -1.5,-72 L -1.48816,-72.188 L -1.45287,-72.373 L -1.39465,-72.5522 L -1.31445,-72.7226 L -1.21352,-72.8817
 L -1.09344,-73.0268 L -0.956131,-73.1558 L -0.803726,-73.2665 L -0.638657,-73.3572 L -0.463516,-73.4266 L -0.281067,-73.4734
 L -0.0941772,-73.497 L 0.0941772,-73.497 L 0.281067,-73.4734 L 0.463516,-73.4266 L 0.638657,-73.3572 L 0.803726,-73.2665
 L 0.956131,-73.1558 L 1.09344,-73.0268 L 1.21352,-72.8817 L 1.31445,-72.7226 L 1.39465,-72.5522 L 1.45287,-72.373
 L 1.48816,-72.188 L 1.5,-72 L 1.48816,-71.812 L 1.45287,-71.627 L 1.39465,-71.4478 L 1.31445,-71.2774
 L 1.21352,-71.1183 L 1.09344,-70.9732 L 0.956131,-70.8442 L 0.803726,-70.7335 L 0.638657,-70.6428 L 0.463516,-70.5734
 L 0.281067,-70.5266 L 0.0941772,-70.503 z
M 1.46844,-44.5443 L 1.77254,-44.6224 L 2.06444,-44.7379 L 2.33955,-44.8892 L 2.59355,-45.0737 L 2.82242,-45.2886
 L 3.02254,-45.5305 L 3.19077,-45.7956 L 3.32443,-46.0797 L 3.42145,-46.3783 L 3.48029,-46.6867 L 3.5,-47
 L 3.5,-49 L 3.48029,-49.3133 L 3.42145,-49.6217 L 3.32443,-49.9203 L 3.19077,-50.2044 L 3.02254,-50.4695
 L 2.82242,-50.7114 L 2.59355,-50.9263 L 2.33955,-51.1108 L 2.06444,-51.2621 L 1.77254,-51.3776 L 1.46844,-51.4557
 L 1.15697,-51.4951 L -1.15697,-51.4951 L -1.46844,-51.4557 L -1.77254,-51.3776 L -2.06444,-51.2621 L -2.33955,-51.1108
 L -2.59355,-50.9263 L -2.82242,-50.7114 L -3.02254,-50.4695 L -3.19077,-50.2044 L -3.32443,-49.9203 L -3.42145,-49.6217
 L -3.48029,-49.3133 L -3.5,-49 L -3.5,-47 L -3.48029,-46.6867 L -3.42145,-46.3783 L -3.32443,-46.0797
 L -3.19077,-45.7956 L -3.02254,-45.5305 L -2.82242,-45.2886 L -2.59355,-45.0737 L -2.33955,-44.8892 L -2.06444,-44.7379
 L -1.77254,-44.6224 L -1.46844,-44.5443 L -1.15697,-44.5049 L 1.15697,-44.5049 z
M -0.0941772,-46.503 L -0.281067,-46.5266 L -0.463516,-46.5734 L -0.638657,-46.6428 L -0.803726,-46.7335 L -0.956131,-46.8442
 L -1.09344,-46.9732 L -1.21352,-47.1183 L -1.31445,-47.2774 L -1.39465,-47.4478 L -1.45287,-47.627 L -1.48816,-47.812
 L -1.5,-48 L -1.48816,-48.188 L -1.45287,-48.373 L -1.39465,-48.5522 L -1.31445,-48.7226 L -1.21352,-48.8817
 L -1.09344,-49.0268 L -0.956131,-49.1558 L -0.803726,-49.2665 L -0.638657,-49.3572 L -0.463516,-49.4266 L -0.281067,-49.4734
 L -0.0941772,-49.497 L 0.0941772,-49.497 L 0.281067,-49.4734 L 0.463516,-49.4266 L 0.638657,-49.3572 L 0.803726,-49.2665
 L 0.956131,-49.1558 L 1.09344,-49.0268 L 1.21352,-48.8817 L 1.31445,-48.7226 L 1.39465,-48.5522 L 1.45287,-48.373
 L 1.48816,-48.188 L 1.5,-48 L 1.48816,-47.812 L 1.45287,-47.627 L 1.39465,-47.4478 L 1.31445,-47.2774
 L 1.21352,-47.1183 L 1.09344,-46.9732 L 0.956131,-46.8442 L 0.803726,-46.7335 L 0.638657,-46.6428 L 0.463516,-46.5734
 L 0.281067,-46.5266 L 0.0941772,-46.503 z
" stroke="black" fill="lightgray" stroke-width="0.5"/>
</svg>
