  0
SECTION
  2
BLOCKS
  0
ENDSEC
  0
SECTION
  2
ENTITIES
  0
LINE
  8
0
 10
17.9369
 20
102.589
 11
18.5451
 21
102.745
  0
LINE
  8
0
 10
18.5451
 20
102.745
 11
19.1289
 21
102.976
  0
LINE
  8
0
 10
19.1289
 20
102.976
 11
19.6791
 21
103.278
  0
LINE
  8
0
 10
19.6791
 20
103.278
 11
20.1871
 21
103.647
  0
LINE
  8
0
 10
20.1871
 20
103.647
 11
20.6448
 21
104.077
  0
LINE
  8
0
 10
20.6448
 20
104.077
 11
21.0451
 21
104.561
  0
LINE
  8
0
 10
21.0451
 20
104.561
 11
21.3815
 21
105.091
  0
LINE
  8
0
 10
21.3815
 20
105.091
 11
21.6489
 21
105.659
  0
LINE
  8
0
 10
21.6489
 20
105.659
 11
21.8429
 21
106.257
  0
LINE
  8
0
 10
21.8429
 20
106.257
 11
21.9606
 21
106.873
  0
LINE
  8
0
 10
21.9606
 20
106.873
 11
22
 21
107.5
  0
LINE
  8
0
 10
22
 20
107.5
 11
22
 21
126.5
  0
LINE
  8
0
 10
22
 20
126.5
 11
21.9606
 21
127.127
  0
LINE
  8
0
 10
21.9606
 20
127.127
 11
21.8429
 21
127.743
  0
LINE
  8
0
 10
21.8429
 20
127.743
 11
21.6489
 21
128.341
  0
LINE
  8
0
 10
21.6489
 20
128.341
 11
21.3815
 21
128.909
  0
LINE
  8
0
 10
21.3815
 20
128.909
 11
21.0451
 21
129.439
  0
LINE
  8
0
 10
21.0451
 20
129.439
 11
20.6448
 21
129.923
  0
LINE
  8
0
 10
20.6448
 20
129.923
 11
20.1871
 21
130.353
  0
LINE
  8
0
 10
20.1871
 20
130.353
 11
19.6791
 21
130.722
  0
LINE
  8
0
 10
19.6791
 20
130.722
 11
19.1289
 21
131.024
  0
LINE
  8
0
 10
19.1289
 20
131.024
 11
18.5451
 21
131.255
  0
LINE
  8
0
 10
18.5451
 20
131.255
 11
17.9369
 21
131.411
  0
LINE
  8
0
 10
17.9369
 20
131.411
 11
17.3139
 21
131.49
  0
LINE
  8
0
 10
17.3139
 20
131.49
 11
-17.3139
 21
131.49
  0
LINE
  8
0
 10
-17.3139
 20
131.49
 11
-17.9369
 21
131.411
  0
LINE
  8
0
 10
-17.9369
 20
131.411
 11
-18.5451
 21
131.255
  0
LINE
  8
0
 10
-18.5451
 20
131.255
 11
-19.1289
 21
131.024
  0
LINE
  8
0
 10
-19.1289
 20
131.024
 11
-19.6791
 21
130.722
  0
LINE
  8
0
 10
-19.6791
 20
130.722
 11
-20.1871
 21
130.353
  0
LINE
  8
0
 10
-20.1871
 20
130.353
 11
-20.6448
 21
129.923
  0
LINE
  8
0
 10
-20.6448
 20
129.923
 11
-21.0451
 21
129.439
  0
LINE
  8
0
 10
-21.0451
 20
129.439
 11
-21.3815
 21
128.909
  0
LINE
  8
0
 10
-21.3815
 20
128.909
 11
-21.6489
 21
128.341
  0
LINE
  8
0
 10
-21.6489
 20
128.341
 11
-21.8429
 21
127.743
  0
LINE
  8
0
 10
-21.8429
 20
127.743
 11
-21.9606
 21
127.127
  0
LINE
  8
0
 10
-21.9606
 20
127.127
 11
-22
 21
126.5
  0
LINE
  8
0
 10
-22
 20
126.5
 11
-22
 21
107.5
  0
LINE
  8
0
 10
-22
 20
107.5
 11
-21.9606
 21
106.873
  0
LINE
  8
0
 10
-21.9606
 20
106.873
 11
-21.8429
 21
106.257
  0
LINE
  8
0
 10
-21.8429
 20
106.257
 11
-21.6489
 21
105.659
  0
LINE
  8
0
 10
-21.6489
 20
105.659
 11
-21.3815
 21
105.091
  0
LINE
  8
0
 10
-21.3815
 20
105.091
 11
-21.0451
 21
104.561
  0
LINE
  8
0
 10
-21.0451
 20
104.561
 11
-20.6448
 21
104.077
  0
LINE
  8
0
 10
-20.6448
 20
104.077
 11
-20.1871
 21
103.647
  0
LINE
  8
0
 10
-20.1871
 20
103.647
 11
-19.6791
 21
103.278
  0
LINE
  8
0
 10
-19.6791
 20
103.278
 11
-19.1289
 21
102.976
  0
LINE
  8
0
 10
-19.1289
 20
102.976
 11
-18.5451
 21
102.745
  0
LINE
  8
0
 10
-18.5451
 20
102.745
 11
-17.9369
 21
102.589
  0
LINE
  8
0
 10
-17.9369
 20
102.589
 11
-17.3139
 21
102.51
  0
LINE
  8
0
 10
-17.3139
 20
102.51
 11
17.3139
 21
102.51
  0
LINE
  8
0
 10
17.3139
 20
102.51
 11
17.9369
 21
102.589
  0
LINE
  8
0
 10
-17.1954
 20
104.393
 11
-17.5833
 21
104.442
  0
LINE
  8
0
 10
-17.5833
 20
104.442
 11
-17.9619
 21
104.539
  0
LINE
  8
0
 10
-17.9619
 20
104.539
 11
-18.3254
 21
104.683
  0
LINE
  8
0
 10
-18.3254
 20
104.683
 11
-18.668
 21
104.872
  0
LINE
  8
0
 10
-18.668
 20
104.872
 11
-18.9842
 21
105.101
  0
LINE
  8
0
 10
-18.9842
 20
105.101
 11
-19.2692
 21
105.369
  0
LINE
  8
0
 10
-19.2692
 20
105.369
 11
-19.5184
 21
105.67
  0
LINE
  8
0
 10
-19.5184
 20
105.67
 11
-19.7279
 21
106
  0
LINE
  8
0
 10
-19.7279
 20
106
 11
-19.8943
 21
106.354
  0
LINE
  8
0
 10
-19.8943
 20
106.354
 11
-20.0151
 21
106.726
  0
LINE
  8
0
 10
-20.0151
 20
106.726
 11
-20.0884
 21
107.11
  0
LINE
  8
0
 10
-20.0884
 20
107.11
 11
-20.1129
 21
107.5
  0
LINE
  8
0
 10
-20.1129
 20
107.5
 11
-20.1129
 21
126.5
  0
LINE
  8
0
 10
-20.1129
 20
126.5
 11
-20.0884
 21
126.89
  0
LINE
  8
0
 10
-20.0884
 20
126.89
 11
-20.0151
 21
127.274
  0
LINE
  8
0
 10
-20.0151
 20
127.274
 11
-19.8943
 21
127.646
  0
LINE
  8
0
 10
-19.8943
 20
127.646
 11
-19.7279
 21
128
  0
LINE
  8
0
 10
-19.7279
 20
128
 11
-19.5184
 21
128.33
  0
LINE
  8
0
 10
-19.5184
 20
128.33
 11
-19.2692
 21
128.631
  0
LINE
  8
0
 10
-19.2692
 20
128.631
 11
-18.9842
 21
128.899
  0
LINE
  8
0
 10
-18.9842
 20
128.899
 11
-18.668
 21
129.128
  0
LINE
  8
0
 10
-18.668
 20
129.128
 11
-18.3254
 21
129.317
  0
LINE
  8
0
 10
-18.3254
 20
129.317
 11
-17.9619
 21
129.461
  0
LINE
  8
0
 10
-17.9619
 20
129.461
 11
-17.5833
 21
129.558
  0
LINE
  8
0
 10
-17.5833
 20
129.558
 11
-17.1954
 21
129.607
  0
LINE
  8
0
 10
-17.1954
 20
129.607
 11
17.1954
 21
129.607
  0
LINE
  8
0
 10
17.1954
 20
129.607
 11
17.5833
 21
129.558
  0
LINE
  8
0
 10
17.5833
 20
129.558
 11
17.9619
 21
129.461
  0
LINE
  8
0
 10
17.9619
 20
129.461
 11
18.3254
 21
129.317
  0
LINE
  8
0
 10
18.3254
 20
129.317
 11
18.668
 21
129.128
  0
LINE
  8
0
 10
18.668
 20
129.128
 11
18.9842
 21
128.899
  0
LINE
  8
0
 10
18.9842
 20
128.899
 11
19.2692
 21
128.631
  0
LINE
  8
0
 10
19.2692
 20
128.631
 11
19.5184
 21
128.33
  0
LINE
  8
0
 10
19.5184
 20
128.33
 11
19.7279
 21
128
  0
LINE
  8
0
 10
19.7279
 20
128
 11
19.8943
 21
127.646
  0
LINE
  8
0
 10
19.8943
 20
127.646
 11
20.0151
 21
127.274
  0
LINE
  8
0
 10
20.0151
 20
127.274
 11
20.0884
 21
126.89
  0
LINE
  8
0
 10
20.0884
 20
126.89
 11
20.1129
 21
126.5
  0
LINE
  8
0
 10
20.1129
 20
126.5
 11
20.1129
 21
107.5
  0
LINE
  8
0
 10
20.1129
 20
107.5
 11
20.0884
 21
107.11
  0
LINE
  8
0
 10
20.0884
 20
107.11
 11
20.0151
 21
106.726
  0
LINE
  8
0
 10
20.0151
 20
106.726
 11
19.8943
 21
106.354
  0
LINE
  8
0
 10
19.8943
 20
106.354
 11
19.7279
 21
106
  0
LINE
  8
0
 10
19.7279
 20
106
 11
19.5184
 21
105.67
  0
LINE
  8
0
 10
19.5184
 20
105.67
 11
19.2692
 21
105.369
  0
LINE
  8
0
 10
19.2692
 20
105.369
 11
18.9842
 21
105.101
  0
LINE
  8
0
 10
18.9842
 20
105.101
 11
18.668
 21
104.872
  0
LINE
  8
0
 10
18.668
 20
104.872
 11
18.3254
 21
104.683
  0
LINE
  8
0
 10
18.3254
 20
104.683
 11
17.9619
 21
104.539
  0
LINE
  8
0
 10
17.9619
 20
104.539
 11
17.5833
 21
104.442
  0
LINE
  8
0
 10
17.5833
 20
104.442
 11
17.1954
 21
104.393
  0
LINE
  8
0
 10
17.1954
 20
104.393
 11
-17.1954
 21
104.393
  0
LINE
  8
0
 10
17.9369
 20
63.5886
 11
18.5451
 21
63.7447
  0
LINE
  8
0
 10
18.5451
 20
63.7447
 11
19.1289
 21
63.9759
  0
LINE
  8
0
 10
19.1289
 20
63.9759
 11
19.6791
 21
64.2784
  0
LINE
  8
0
 10
19.6791
 20
64.2784
 11
20.1871
 21
64.6474
  0
LINE
  8
0
 10
20.1871
 20
64.6474
 11
20.6448
 21
65.0773
  0
LINE
  8
0
 10
20.6448
 20
65.0773
 11
21.0451
 21
65.5611
  0
LINE
  8
0
 10
21.0451
 20
65.5611
 11
21.3815
 21
66.0912
  0
LINE
  8
0
 10
21.3815
 20
66.0912
 11
21.6489
 21
66.6594
  0
LINE
  8
0
 10
21.6489
 20
66.6594
 11
21.8429
 21
67.2566
  0
LINE
  8
0
 10
21.8429
 20
67.2566
 11
21.9606
 21
67.8733
  0
LINE
  8
0
 10
21.9606
 20
67.8733
 11
22
 21
68.5
  0
LINE
  8
0
 10
22
 20
68.5
 11
22
 21
87.5
  0
LINE
  8
0
 10
22
 20
87.5
 11
21.9606
 21
88.1267
  0
LINE
  8
0
 10
21.9606
 20
88.1267
 11
21.8429
 21
88.7434
  0
LINE
  8
0
 10
21.8429
 20
88.7434
 11
21.6489
 21
89.3406
  0
LINE
  8
0
 10
21.6489
 20
89.3406
 11
21.3815
 21
89.9088
  0
LINE
  8
0
 10
21.3815
 20
89.9088
 11
21.0451
 21
90.4389
  0
LINE
  8
0
 10
21.0451
 20
90.4389
 11
20.6448
 21
90.9227
  0
LINE
  8
0
 10
20.6448
 20
90.9227
 11
20.1871
 21
91.3526
  0
LINE
  8
0
 10
20.1871
 20
91.3526
 11
19.6791
 21
91.7216
  0
LINE
  8
0
 10
19.6791
 20
91.7216
 11
19.1289
 21
92.0241
  0
LINE
  8
0
 10
19.1289
 20
92.0241
 11
18.5451
 21
92.2553
  0
LINE
  8
0
 10
18.5451
 20
92.2553
 11
17.9369
 21
92.4114
  0
LINE
  8
0
 10
17.9369
 20
92.4114
 11
17.3139
 21
92.4901
  0
LINE
  8
0
 10
17.3139
 20
92.4901
 11
-17.3139
 21
92.4901
  0
LINE
  8
0
 10
-17.3139
 20
92.4901
 11
-17.9369
 21
92.4114
  0
LINE
  8
0
 10
-17.9369
 20
92.4114
 11
-18.5451
 21
92.2553
  0
LINE
  8
0
 10
-18.5451
 20
92.2553
 11
-19.1289
 21
92.0241
  0
LINE
  8
0
 10
-19.1289
 20
92.0241
 11
-19.6791
 21
91.7216
  0
LINE
  8
0
 10
-19.6791
 20
91.7216
 11
-20.1871
 21
91.3526
  0
LINE
  8
0
 10
-20.1871
 20
91.3526
 11
-20.6448
 21
90.9227
  0
LINE
  8
0
 10
-20.6448
 20
90.9227
 11
-21.0451
 21
90.4389
  0
LINE
  8
0
 10
-21.0451
 20
90.4389
 11
-21.3815
 21
89.9088
  0
LINE
  8
0
 10
-21.3815
 20
89.9088
 11
-21.6489
 21
89.3406
  0
LINE
  8
0
 10
-21.6489
 20
89.3406
 11
-21.8429
 21
88.7434
  0
LINE
  8
0
 10
-21.8429
 20
88.7434
 11
-21.9606
 21
88.1267
  0
LINE
  8
0
 10
-21.9606
 20
88.1267
 11
-22
 21
87.5
  0
LINE
  8
0
 10
-22
 20
87.5
 11
-22
 21
68.5
  0
LINE
  8
0
 10
-22
 20
68.5
 11
-21.9606
 21
67.8733
  0
LINE
  8
0
 10
-21.9606
 20
67.8733
 11
-21.8429
 21
67.2566
  0
LINE
  8
0
 10
-21.8429
 20
67.2566
 11
-21.6489
 21
66.6594
  0
LINE
  8
0
 10
-21.6489
 20
66.6594
 11
-21.3815
 21
66.0912
  0
LINE
  8
0
 10
-21.3815
 20
66.0912
 11
-21.0451
 21
65.5611
  0
LINE
  8
0
 10
-21.0451
 20
65.5611
 11
-20.6448
 21
65.0773
  0
LINE
  8
0
 10
-20.6448
 20
65.0773
 11
-20.1871
 21
64.6474
  0
LINE
  8
0
 10
-20.1871
 20
64.6474
 11
-19.6791
 21
64.2784
  0
LINE
  8
0
 10
-19.6791
 20
64.2784
 11
-19.1289
 21
63.9759
  0
LINE
  8
0
 10
-19.1289
 20
63.9759
 11
-18.5451
 21
63.7447
  0
LINE
  8
0
 10
-18.5451
 20
63.7447
 11
-17.9369
 21
63.5886
  0
LINE
  8
0
 10
-17.9369
 20
63.5886
 11
-17.3139
 21
63.5099
  0
LINE
  8
0
 10
-17.3139
 20
63.5099
 11
17.3139
 21
63.5099
  0
LINE
  8
0
 10
17.3139
 20
63.5099
 11
17.9369
 21
63.5886
  0
LINE
  8
0
 10
-15.1507
 20
83.1047
 11
-15.4497
 21
83.1425
  0
LINE
  8
0
 10
-15.4497
 20
83.1425
 11
-15.7416
 21
83.2175
  0
LINE
  8
0
 10
-15.7416
 20
83.2175
 11
-16.0219
 21
83.3284
  0
LINE
  8
0
 10
-16.0219
 20
83.3284
 11
-16.286
 21
83.4736
  0
LINE
  8
0
 10
-16.286
 20
83.4736
 11
-16.5298
 21
83.6508
  0
LINE
  8
0
 10
-16.5298
 20
83.6508
 11
-16.7495
 21
83.8571
  0
LINE
  8
0
 10
-16.7495
 20
83.8571
 11
-16.9416
 21
84.0893
  0
LINE
  8
0
 10
-16.9416
 20
84.0893
 11
-17.1031
 21
84.3438
  0
LINE
  8
0
 10
-17.1031
 20
84.3438
 11
-17.2315
 21
84.6165
  0
LINE
  8
0
 10
-17.2315
 20
84.6165
 11
-17.3246
 21
84.9031
  0
LINE
  8
0
 10
-17.3246
 20
84.9031
 11
-17.3811
 21
85.1992
  0
LINE
  8
0
 10
-17.3811
 20
85.1992
 11
-17.4
 21
85.5
  0
LINE
  8
0
 10
-17.4
 20
85.5
 11
-17.3811
 21
85.8008
  0
LINE
  8
0
 10
-17.3811
 20
85.8008
 11
-17.3246
 21
86.0968
  0
LINE
  8
0
 10
-17.3246
 20
86.0968
 11
-17.2315
 21
86.3835
  0
LINE
  8
0
 10
-17.2315
 20
86.3835
 11
-17.1031
 21
86.6562
  0
LINE
  8
0
 10
-17.1031
 20
86.6562
 11
-16.9416
 21
86.9107
  0
LINE
  8
0
 10
-16.9416
 20
86.9107
 11
-16.7495
 21
87.1429
  0
LINE
  8
0
 10
-16.7495
 20
87.1429
 11
-16.5298
 21
87.3492
  0
LINE
  8
0
 10
-16.5298
 20
87.3492
 11
-16.286
 21
87.5264
  0
LINE
  8
0
 10
-16.286
 20
87.5264
 11
-16.0219
 21
87.6716
  0
LINE
  8
0
 10
-16.0219
 20
87.6716
 11
-15.7416
 21
87.7825
  0
LINE
  8
0
 10
-15.7416
 20
87.7825
 11
-15.4497
 21
87.8575
  0
LINE
  8
0
 10
-15.4497
 20
87.8575
 11
-15.1507
 21
87.8953
  0
LINE
  8
0
 10
-15.1507
 20
87.8953
 11
-14.8493
 21
87.8953
  0
LINE
  8
0
 10
-14.8493
 20
87.8953
 11
-14.5503
 21
87.8575
  0
LINE
  8
0
 10
-14.5503
 20
87.8575
 11
-14.2583
 21
87.7825
  0
LINE
  8
0
 10
-14.2583
 20
87.7825
 11
-13.9781
 21
87.6716
  0
LINE
  8
0
 10
-13.9781
 20
87.6716
 11
-13.714
 21
87.5264
  0
LINE
  8
0
 10
-13.714
 20
87.5264
 11
-13.4702
 21
87.3492
  0
LINE
  8
0
 10
-13.4702
 20
87.3492
 11
-13.2505
 21
87.1429
  0
LINE
  8
0
 10
-13.2505
 20
87.1429
 11
-13.0583
 21
86.9107
  0
LINE
  8
0
 10
-13.0583
 20
86.9107
 11
-12.8969
 21
86.6562
  0
LINE
  8
0
 10
-12.8969
 20
86.6562
 11
-12.7685
 21
86.3835
  0
LINE
  8
0
 10
-12.7685
 20
86.3835
 11
-12.6754
 21
86.0968
  0
LINE
  8
0
 10
-12.6754
 20
86.0968
 11
-12.6189
 21
85.8008
  0
LINE
  8
0
 10
-12.6189
 20
85.8008
 11
-12.6
 21
85.5
  0
LINE
  8
0
 10
-12.6
 20
85.5
 11
-12.6189
 21
85.1992
  0
LINE
  8
0
 10
-12.6189
 20
85.1992
 11
-12.6754
 21
84.9031
  0
LINE
  8
0
 10
-12.6754
 20
84.9031
 11
-12.7685
 21
84.6165
  0
LINE
  8
0
 10
-12.7685
 20
84.6165
 11
-12.8969
 21
84.3438
  0
LINE
  8
0
 10
-12.8969
 20
84.3438
 11
-13.0583
 21
84.0893
  0
LINE
  8
0
 10
-13.0583
 20
84.0893
 11
-13.2505
 21
83.8571
  0
LINE
  8
0
 10
-13.2505
 20
83.8571
 11
-13.4702
 21
83.6508
  0
LINE
  8
0
 10
-13.4702
 20
83.6508
 11
-13.714
 21
83.4736
  0
LINE
  8
0
 10
-13.714
 20
83.4736
 11
-13.9781
 21
83.3284
  0
LINE
  8
0
 10
-13.9781
 20
83.3284
 11
-14.2583
 21
83.2175
  0
LINE
  8
0
 10
-14.2583
 20
83.2175
 11
-14.5503
 21
83.1425
  0
LINE
  8
0
 10
-14.5503
 20
83.1425
 11
-14.8493
 21
83.1047
  0
LINE
  8
0
 10
-14.8493
 20
83.1047
 11
-15.1507
 21
83.1047
  0
LINE
  8
0
 10
14.8493
 20
83.1047
 11
14.5503
 21
83.1425
  0
LINE
  8
0
 10
14.5503
 20
83.1425
 11
14.2583
 21
83.2175
  0
LINE
  8
0
 10
14.2583
 20
83.2175
 11
13.9781
 21
83.3284
  0
LINE
  8
0
 10
13.9781
 20
83.3284
 11
13.714
 21
83.4736
  0
LINE
  8
0
 10
13.714
 20
83.4736
 11
13.4702
 21
83.6508
  0
LINE
  8
0
 10
13.4702
 20
83.6508
 11
13.2505
 21
83.8571
  0
LINE
  8
0
 10
13.2505
 20
83.8571
 11
13.0583
 21
84.0893
  0
LINE
  8
0
 10
13.0583
 20
84.0893
 11
12.8969
 21
84.3438
  0
LINE
  8
0
 10
12.8969
 20
84.3438
 11
12.7685
 21
84.6165
  0
LINE
  8
0
 10
12.7685
 20
84.6165
 11
12.6754
 21
84.9031
  0
LINE
  8
0
 10
12.6754
 20
84.9031
 11
12.6189
 21
85.1992
  0
LINE
  8
0
 10
12.6189
 20
85.1992
 11
12.6
 21
85.5
  0
LINE
  8
0
 10
12.6
 20
85.5
 11
12.6189
 21
85.8008
  0
LINE
  8
0
 10
12.6189
 20
85.8008
 11
12.6754
 21
86.0968
  0
LINE
  8
0
 10
12.6754
 20
86.0968
 11
12.7685
 21
86.3835
  0
LINE
  8
0
 10
12.7685
 20
86.3835
 11
12.8969
 21
86.6562
  0
LINE
  8
0
 10
12.8969
 20
86.6562
 11
13.0583
 21
86.9107
  0
LINE
  8
0
 10
13.0583
 20
86.9107
 11
13.2505
 21
87.1429
  0
LINE
  8
0
 10
13.2505
 20
87.1429
 11
13.4702
 21
87.3492
  0
LINE
  8
0
 10
13.4702
 20
87.3492
 11
13.714
 21
87.5264
  0
LINE
  8
0
 10
13.714
 20
87.5264
 11
13.9781
 21
87.6716
  0
LINE
  8
0
 10
13.9781
 20
87.6716
 11
14.2583
 21
87.7825
  0
LINE
  8
0
 10
14.2583
 20
87.7825
 11
14.5503
 21
87.8575
  0
LINE
  8
0
 10
14.5503
 20
87.8575
 11
14.8493
 21
87.8953
  0
LINE
  8
0
 10
14.8493
 20
87.8953
 11
15.1507
 21
87.8953
  0
LINE
  8
0
 10
15.1507
 20
87.8953
 11
15.4497
 21
87.8575
  0
LINE
  8
0
 10
15.4497
 20
87.8575
 11
15.7416
 21
87.7825
  0
LINE
  8
0
 10
15.7416
 20
87.7825
 11
16.0219
 21
87.6716
  0
LINE
  8
0
 10
16.0219
 20
87.6716
 11
16.286
 21
87.5264
  0
LINE
  8
0
 10
16.286
 20
87.5264
 11
16.5298
 21
87.3492
  0
LINE
  8
0
 10
16.5298
 20
87.3492
 11
16.7495
 21
87.1429
  0
LINE
  8
0
 10
16.7495
 20
87.1429
 11
16.9416
 21
86.9107
  0
LINE
  8
0
 10
16.9416
 20
86.9107
 11
17.1031
 21
86.6562
  0
LINE
  8
0
 10
17.1031
 20
86.6562
 11
17.2315
 21
86.3835
  0
LINE
  8
0
 10
17.2315
 20
86.3835
 11
17.3246
 21
86.0968
  0
LINE
  8
0
 10
17.3246
 20
86.0968
 11
17.3811
 21
85.8008
  0
LINE
  8
0
 10
17.3811
 20
85.8008
 11
17.4
 21
85.5
  0
LINE
  8
0
 10
17.4
 20
85.5
 11
17.3811
 21
85.1992
  0
LINE
  8
0
 10
17.3811
 20
85.1992
 11
17.3246
 21
84.9031
  0
LINE
  8
0
 10
17.3246
 20
84.9031
 11
17.2315
 21
84.6165
  0
LINE
  8
0
 10
17.2315
 20
84.6165
 11
17.1031
 21
84.3438
  0
LINE
  8
0
 10
17.1031
 20
84.3438
 11
16.9416
 21
84.0893
  0
LINE
  8
0
 10
16.9416
 20
84.0893
 11
16.7495
 21
83.8571
  0
LINE
  8
0
 10
16.7495
 20
83.8571
 11
16.5298
 21
83.6508
  0
LINE
  8
0
 10
16.5298
 20
83.6508
 11
16.286
 21
83.4736
  0
LINE
  8
0
 10
16.286
 20
83.4736
 11
16.0219
 21
83.3284
  0
LINE
  8
0
 10
16.0219
 20
83.3284
 11
15.7416
 21
83.2175
  0
LINE
  8
0
 10
15.7416
 20
83.2175
 11
15.4497
 21
83.1425
  0
LINE
  8
0
 10
15.4497
 20
83.1425
 11
15.1507
 21
83.1047
  0
LINE
  8
0
 10
15.1507
 20
83.1047
 11
14.8493
 21
83.1047
  0
LINE
  8
0
 10
-15.1507
 20
68.1047
 11
-15.4497
 21
68.1425
  0
LINE
  8
0
 10
-15.4497
 20
68.1425
 11
-15.7416
 21
68.2175
  0
LINE
  8
0
 10
-15.7416
 20
68.2175
 11
-16.0219
 21
68.3284
  0
LINE
  8
0
 10
-16.0219
 20
68.3284
 11
-16.286
 21
68.4736
  0
LINE
  8
0
 10
-16.286
 20
68.4736
 11
-16.5298
 21
68.6508
  0
LINE
  8
0
 10
-16.5298
 20
68.6508
 11
-16.7495
 21
68.8571
  0
LINE
  8
0
 10
-16.7495
 20
68.8571
 11
-16.9416
 21
69.0893
  0
LINE
  8
0
 10
-16.9416
 20
69.0893
 11
-17.1031
 21
69.3438
  0
LINE
  8
0
 10
-17.1031
 20
69.3438
 11
-17.2315
 21
69.6165
  0
LINE
  8
0
 10
-17.2315
 20
69.6165
 11
-17.3246
 21
69.9032
  0
LINE
  8
0
 10
-17.3246
 20
69.9032
 11
-17.3811
 21
70.1992
  0
LINE
  8
0
 10
-17.3811
 20
70.1992
 11
-17.4
 21
70.5
  0
LINE
  8
0
 10
-17.4
 20
70.5
 11
-17.3811
 21
70.8008
  0
LINE
  8
0
 10
-17.3811
 20
70.8008
 11
-17.3246
 21
71.0969
  0
LINE
  8
0
 10
-17.3246
 20
71.0969
 11
-17.2315
 21
71.3835
  0
LINE
  8
0
 10
-17.2315
 20
71.3835
 11
-17.1031
 21
71.6562
  0
LINE
  8
0
 10
-17.1031
 20
71.6562
 11
-16.9416
 21
71.9107
  0
LINE
  8
0
 10
-16.9416
 20
71.9107
 11
-16.7495
 21
72.1429
  0
LINE
  8
0
 10
-16.7495
 20
72.1429
 11
-16.5298
 21
72.3492
  0
LINE
  8
0
 10
-16.5298
 20
72.3492
 11
-16.286
 21
72.5264
  0
LINE
  8
0
 10
-16.286
 20
72.5264
 11
-16.0219
 21
72.6716
  0
LINE
  8
0
 10
-16.0219
 20
72.6716
 11
-15.7416
 21
72.7825
  0
LINE
  8
0
 10
-15.7416
 20
72.7825
 11
-15.4497
 21
72.8575
  0
LINE
  8
0
 10
-15.4497
 20
72.8575
 11
-15.1507
 21
72.8953
  0
LINE
  8
0
 10
-15.1507
 20
72.8953
 11
-14.8493
 21
72.8953
  0
LINE
  8
0
 10
-14.8493
 20
72.8953
 11
-14.5503
 21
72.8575
  0
LINE
  8
0
 10
-14.5503
 20
72.8575
 11
-14.2583
 21
72.7825
  0
LINE
  8
0
 10
-14.2583
 20
72.7825
 11
-13.9781
 21
72.6716
  0
LINE
  8
0
 10
-13.9781
 20
72.6716
 11
-13.714
 21
72.5264
  0
LINE
  8
0
 10
-13.714
 20
72.5264
 11
-13.4702
 21
72.3492
  0
LINE
  8
0
 10
-13.4702
 20
72.3492
 11
-13.2505
 21
72.1429
  0
LINE
  8
0
 10
-13.2505
 20
72.1429
 11
-13.0583
 21
71.9107
  0
LINE
  8
0
 10
-13.0583
 20
71.9107
 11
-12.8969
 21
71.6562
  0
LINE
  8
0
 10
-12.8969
 20
71.6562
 11
-12.7685
 21
71.3835
  0
LINE
  8
0
 10
-12.7685
 20
71.3835
 11
-12.6754
 21
71.0969
  0
LINE
  8
0
 10
-12.6754
 20
71.0969
 11
-12.6189
 21
70.8008
  0
LINE
  8
0
 10
-12.6189
 20
70.8008
 11
-12.6
 21
70.5
  0
LINE
  8
0
 10
-12.6
 20
70.5
 11
-12.6189
 21
70.1992
  0
LINE
  8
0
 10
-12.6189
 20
70.1992
 11
-12.6754
 21
69.9032
  0
LINE
  8
0
 10
-12.6754
 20
69.9032
 11
-12.7685
 21
69.6165
  0
LINE
  8
0
 10
-12.7685
 20
69.6165
 11
-12.8969
 21
69.3438
  0
LINE
  8
0
 10
-12.8969
 20
69.3438
 11
-13.0583
 21
69.0893
  0
LINE
  8
0
 10
-13.0583
 20
69.0893
 11
-13.2505
 21
68.8571
  0
LINE
  8
0
 10
-13.2505
 20
68.8571
 11
-13.4702
 21
68.6508
  0
LINE
  8
0
 10
-13.4702
 20
68.6508
 11
-13.714
 21
68.4736
  0
LINE
  8
0
 10
-13.714
 20
68.4736
 11
-13.9781
 21
68.3284
  0
LINE
  8
0
 10
-13.9781
 20
68.3284
 11
-14.2583
 21
68.2175
  0
LINE
  8
0
 10
-14.2583
 20
68.2175
 11
-14.5503
 21
68.1425
  0
LINE
  8
0
 10
-14.5503
 20
68.1425
 11
-14.8493
 21
68.1047
  0
LINE
  8
0
 10
-14.8493
 20
68.1047
 11
-15.1507
 21
68.1047
  0
LINE
  8
0
 10
14.8493
 20
68.1047
 11
14.5503
 21
68.1425
  0
LINE
  8
0
 10
14.5503
 20
68.1425
 11
14.2583
 21
68.2175
  0
LINE
  8
0
 10
14.2583
 20
68.2175
 11
13.9781
 21
68.3284
  0
LINE
  8
0
 10
13.9781
 20
68.3284
 11
13.714
 21
68.4736
  0
LINE
  8
0
 10
13.714
 20
68.4736
 11
13.4702
 21
68.6508
  0
LINE
  8
0
 10
13.4702
 20
68.6508
 11
13.2505
 21
68.8571
  0
LINE
  8
0
 10
13.2505
 20
68.8571
 11
13.0583
 21
69.0893
  0
LINE
  8
0
 10
13.0583
 20
69.0893
 11
12.8969
 21
69.3438
  0
LINE
  8
0
 10
12.8969
 20
69.3438
 11
12.7685
 21
69.6165
  0
LINE
  8
0
 10
12.7685
 20
69.6165
 11
12.6754
 21
69.9032
  0
LINE
  8
0
 10
12.6754
 20
69.9032
 11
12.6189
 21
70.1992
  0
LINE
  8
0
 10
12.6189
 20
70.1992
 11
12.6
 21
70.5
  0
LINE
  8
0
 10
12.6
 20
70.5
 11
12.6189
 21
70.8008
  0
LINE
  8
0
 10
12.6189
 20
70.8008
 11
12.6754
 21
71.0969
  0
LINE
  8
0
 10
12.6754
 20
71.0969
 11
12.7685
 21
71.3835
  0
LINE
  8
0
 10
12.7685
 20
71.3835
 11
12.8969
 21
71.6562
  0
LINE
  8
0
 10
12.8969
 20
71.6562
 11
13.0583
 21
71.9107
  0
LINE
  8
0
 10
13.0583
 20
71.9107
 11
13.2505
 21
72.1429
  0
LINE
  8
0
 10
13.2505
 20
72.1429
 11
13.4702
 21
72.3492
  0
LINE
  8
0
 10
13.4702
 20
72.3492
 11
13.714
 21
72.5264
  0
LINE
  8
0
 10
13.714
 20
72.5264
 11
13.9781
 21
72.6716
  0
LINE
  8
0
 10
13.9781
 20
72.6716
 11
14.2583
 21
72.7825
  0
LINE
  8
0
 10
14.2583
 20
72.7825
 11
14.5503
 21
72.8575
  0
LINE
  8
0
 10
14.5503
 20
72.8575
 11
14.8493
 21
72.8953
  0
LINE
  8
0
 10
14.8493
 20
72.8953
 11
15.1507
 21
72.8953
  0
LINE
  8
0
 10
15.1507
 20
72.8953
 11
15.4497
 21
72.8575
  0
LINE
  8
0
 10
15.4497
 20
72.8575
 11
15.7416
 21
72.7825
  0
LINE
  8
0
 10
15.7416
 20
72.7825
 11
16.0219
 21
72.6716
  0
LINE
  8
0
 10
16.0219
 20
72.6716
 11
16.286
 21
72.5264
  0
LINE
  8
0
 10
16.286
 20
72.5264
 11
16.5298
 21
72.3492
  0
LINE
  8
0
 10
16.5298
 20
72.3492
 11
16.7495
 21
72.1429
  0
LINE
  8
0
 10
16.7495
 20
72.1429
 11
16.9416
 21
71.9107
  0
LINE
  8
0
 10
16.9416
 20
71.9107
 11
17.1031
 21
71.6562
  0
LINE
  8
0
 10
17.1031
 20
71.6562
 11
17.2315
 21
71.3835
  0
LINE
  8
0
 10
17.2315
 20
71.3835
 11
17.3246
 21
71.0969
  0
LINE
  8
0
 10
17.3246
 20
71.0969
 11
17.3811
 21
70.8008
  0
LINE
  8
0
 10
17.3811
 20
70.8008
 11
17.4
 21
70.5
  0
LINE
  8
0
 10
17.4
 20
70.5
 11
17.3811
 21
70.1992
  0
LINE
  8
0
 10
17.3811
 20
70.1992
 11
17.3246
 21
69.9032
  0
LINE
  8
0
 10
17.3246
 20
69.9032
 11
17.2315
 21
69.6165
  0
LINE
  8
0
 10
17.2315
 20
69.6165
 11
17.1031
 21
69.3438
  0
LINE
  8
0
 10
17.1031
 20
69.3438
 11
16.9416
 21
69.0893
  0
LINE
  8
0
 10
16.9416
 20
69.0893
 11
16.7495
 21
68.8571
  0
LINE
  8
0
 10
16.7495
 20
68.8571
 11
16.5298
 21
68.6508
  0
LINE
  8
0
 10
16.5298
 20
68.6508
 11
16.286
 21
68.4736
  0
LINE
  8
0
 10
16.286
 20
68.4736
 11
16.0219
 21
68.3284
  0
LINE
  8
0
 10
16.0219
 20
68.3284
 11
15.7416
 21
68.2175
  0
LINE
  8
0
 10
15.7416
 20
68.2175
 11
15.4497
 21
68.1425
  0
LINE
  8
0
 10
15.4497
 20
68.1425
 11
15.1507
 21
68.1047
  0
LINE
  8
0
 10
15.1507
 20
68.1047
 11
14.8493
 21
68.1047
  0
ENDSEC
  0
SECTION
  2
OBJECTS
  0
DICTIONARY
  0
ENDSEC
  0
EOF
