<?xml version="1.0" standalone="no"?>
<!DOCTYPE svg PUBLIC "-//W3C//DTD SVG 1.1//EN" "http://www.w3.org/Graphics/SVG/1.1/DTD/svg11.dtd">
<svg width="46mm" height="267mm" viewBox="-23 -444 46 267" xmlns="http://www.w3.org/2000/svg" version="1.1">
<title>OpenSCAD Model</title>
<path d="
M 18.4369,-384.089 L 19.0451,-384.245 L 19.6289,-384.476 L 20.1791,-384.778 L 20.6871,-385.147 L 21.1448,-385.577
 L 21.5451,-386.061 L 21.8815,-386.591 L 22.1489,-387.159 L 22.3429,-387.757 L 22.4606,-388.373 L 22.5,-389
 L 22.5,-439 L 22.4606,-439.627 L 22.3429,-440.243 L 22.1489,-440.841 L 21.8815,-441.409 L 21.5451,-441.939
 L 21.1448,-442.423 L 20.6871,-442.853 L 20.1791,-443.222 L 19.6289,-443.524 L 19.0451,-443.755 L 18.4369,-443.911
 L 17.8139,-443.99 L -17.8139,-443.99 L -18.4369,-443.911 L -19.0451,-443.755 L -19.6289,-443.524 L -20.1791,-443.222
 L -20.6871,-442.853 L -21.1448,-442.423 L -21.5451,-441.939 L -21.8815,-441.409 L -22.1489,-440.841 L -22.3429,-440.243
 L -22.4606,-439.627 L -22.5,-439 L -22.5,-389 L -22.4606,-388.373 L -22.3429,-387.757 L -22.1489,-387.159
 L -21.8815,-386.591 L -21.5451,-386.061 L -21.1448,-385.577 L -20.6871,-385.147 L -20.1791,-384.778 L -19.6289,-384.476
 L -19.0451,-384.245 L -18.4369,-384.089 L -17.8139,-384.01 L 17.8139,-384.01 z
M -12.311,-384.509 L -11.8209,-384.778 L -11.3129,-385.147 L -10.8551,-385.577 L -10.4549,-386.061 L -10.1185,-386.591
 L -9.8511,-387.159 L -9.65707,-387.757 L -9.53941,-388.373 L -9.5,-389 L -9.5,-392 L -9.53941,-392.627
 L -9.65707,-393.243 L -9.8511,-393.841 L -10.1185,-394.409 L -10.4549,-394.939 L -10.8551,-395.423 L -11.3129,-395.853
 L -11.8209,-396.222 L -12.3711,-396.524 L -12.9549,-396.755 L -13.5631,-396.911 L -14.186,-396.99 L -17.8139,-396.99
 L -18.4369,-396.911 L -19.0451,-396.755 L -19.6289,-396.524 L -20.1791,-396.222 L -20.6871,-395.853 L -21.1448,-395.423
 L -21.5451,-394.939 L -21.8815,-394.409 L -22,-394.157 L -22,-439 L -21.9645,-439.564 L -21.8586,-440.119
 L -21.684,-440.657 L -21.4434,-441.168 L -21.1406,-441.645 L -20.7803,-442.08 L -20.3684,-442.467 L -19.9112,-442.799
 L -19.416,-443.072 L -18.8906,-443.28 L -18.3432,-443.42 L -17.7825,-443.491 L 17.7825,-443.491 L 18.3432,-443.42
 L 18.8906,-443.28 L 19.416,-443.072 L 19.9112,-442.799 L 20.3684,-442.467 L 20.7803,-442.08 L 21.1406,-441.645
 L 21.4434,-441.168 L 21.684,-440.657 L 21.8586,-440.119 L 21.9645,-439.564 L 22,-439 L 22,-389
 L 21.9645,-388.436 L 21.8586,-387.881 L 21.684,-387.343 L 21.4434,-386.832 L 21.1406,-386.355 L 20.7803,-385.92
 L 20.3684,-385.533 L 19.9112,-385.201 L 19.416,-384.928 L 18.8906,-384.72 L 18.3432,-384.58 L 17.7825,-384.509
 z
M 15.4684,-434.044 L 15.7725,-434.122 L 16.0644,-434.238 L 16.3396,-434.389 L 16.5936,-434.574 L 16.8224,-434.789
 L 17.0225,-435.031 L 17.1908,-435.296 L 17.3244,-435.58 L 17.4214,-435.878 L 17.4803,-436.187 L 17.5,-436.5
 L 17.4803,-436.813 L 17.4214,-437.122 L 17.3244,-437.42 L 17.1908,-437.704 L 17.0225,-437.969 L 16.8224,-438.211
 L 16.5936,-438.426 L 16.3396,-438.611 L 16.0644,-438.762 L 15.7725,-438.878 L 15.4684,-438.956 L 15.157,-438.995
 L 14.843,-438.995 L 14.5315,-438.956 L 14.2274,-438.878 L 13.9355,-438.762 L 13.6604,-438.611 L 13.4064,-438.426
 L 13.1776,-438.211 L 12.9774,-437.969 L 12.8092,-437.704 L 12.6756,-437.42 L 12.5785,-437.122 L 12.5197,-436.813
 L 12.5,-436.5 L 12.5197,-436.187 L 12.5785,-435.878 L 12.6756,-435.58 L 12.8092,-435.296 L 12.9774,-435.031
 L 13.1776,-434.789 L 13.4064,-434.574 L 13.6604,-434.389 L 13.9355,-434.238 L 14.2274,-434.122 L 14.5315,-434.044
 L 14.843,-434.005 L 15.157,-434.005 z
M 14.9058,-435.003 L 14.7189,-435.027 L 14.5365,-435.073 L 14.3613,-435.143 L 14.1963,-435.234 L 14.0439,-435.344
 L 13.9065,-435.473 L 13.7865,-435.618 L 13.6855,-435.777 L 13.6053,-435.948 L 13.5471,-436.127 L 13.5118,-436.312
 L 13.5,-436.5 L 13.5118,-436.688 L 13.5471,-436.873 L 13.6053,-437.052 L 13.6855,-437.223 L 13.7865,-437.382
 L 13.9065,-437.527 L 14.0439,-437.656 L 14.1963,-437.766 L 14.3613,-437.857 L 14.5365,-437.927 L 14.7189,-437.973
 L 14.9058,-437.997 L 15.0942,-437.997 L 15.2811,-437.973 L 15.4635,-437.927 L 15.6387,-437.857 L 15.8037,-437.766
 L 15.9561,-437.656 L 16.0934,-437.527 L 16.2135,-437.382 L 16.3145,-437.223 L 16.3947,-437.052 L 16.4529,-436.873
 L 16.4882,-436.688 L 16.5,-436.5 L 16.4882,-436.312 L 16.4529,-436.127 L 16.3947,-435.948 L 16.3145,-435.777
 L 16.2135,-435.618 L 16.0934,-435.473 L 15.9561,-435.344 L 15.8037,-435.234 L 15.6387,-435.143 L 15.4635,-435.073
 L 15.2811,-435.027 L 15.0942,-435.003 z
M -15.0942,-390.003 L -15.2811,-390.027 L -15.4635,-390.073 L -15.6387,-390.143 L -15.8037,-390.234 L -15.9561,-390.344
 L -16.0934,-390.473 L -16.2135,-390.618 L -16.3145,-390.777 L -16.3947,-390.948 L -16.4529,-391.127 L -16.4882,-391.312
 L -16.5,-391.5 L -16.4882,-391.688 L -16.4529,-391.873 L -16.3947,-392.052 L -16.3145,-392.223 L -16.2135,-392.382
 L -16.0934,-392.527 L -15.9561,-392.656 L -15.8037,-392.766 L -15.6387,-392.857 L -15.4635,-392.927 L -15.2811,-392.973
 L -15.0942,-392.997 L -14.9058,-392.997 L -14.7189,-392.973 L -14.5365,-392.927 L -14.3613,-392.857 L -14.1963,-392.766
 L -14.0439,-392.656 L -13.9065,-392.527 L -13.7865,-392.382 L -13.6855,-392.223 L -13.6053,-392.052 L -13.5471,-391.873
 L -13.5118,-391.688 L -13.5,-391.5 L -13.5118,-391.312 L -13.5471,-391.127 L -13.6053,-390.948 L -13.6855,-390.777
 L -13.7865,-390.618 L -13.9065,-390.473 L -14.0439,-390.344 L -14.1963,-390.234 L -14.3613,-390.143 L -14.5365,-390.073
 L -14.7189,-390.027 L -14.9058,-390.003 z
M 18.4369,-315.089 L 19.0451,-315.245 L 19.6289,-315.476 L 20.1791,-315.778 L 20.6871,-316.147 L 21.1448,-316.577
 L 21.5451,-317.061 L 21.8815,-317.591 L 22.1489,-318.159 L 22.3429,-318.757 L 22.4606,-319.373 L 22.5,-320
 L 22.5,-370 L 22.4606,-370.627 L 22.3429,-371.243 L 22.1489,-371.841 L 21.8815,-372.409 L 21.5451,-372.939
 L 21.1448,-373.423 L 20.6871,-373.853 L 20.1791,-374.222 L 19.6289,-374.524 L 19.0451,-374.755 L 18.4369,-374.911
 L 17.8139,-374.99 L -17.8139,-374.99 L -18.4369,-374.911 L -19.0451,-374.755 L -19.6289,-374.524 L -20.1791,-374.222
 L -20.6871,-373.853 L -21.1448,-373.423 L -21.5451,-372.939 L -21.8815,-372.409 L -22.1489,-371.841 L -22.3429,-371.243
 L -22.4606,-370.627 L -22.5,-370 L -22.5,-320 L -22.4606,-319.373 L -22.3429,-318.757 L -22.1489,-318.159
 L -21.8815,-317.591 L -21.5451,-317.061 L -21.1448,-316.577 L -20.6871,-316.147 L -20.1791,-315.778 L -19.6289,-315.476
 L -19.0451,-315.245 L -18.4369,-315.089 L -17.8139,-315.01 L 17.8139,-315.01 z
M -12.311,-315.509 L -11.8209,-315.778 L -11.3129,-316.147 L -10.8551,-316.577 L -10.4549,-317.061 L -10.1185,-317.591
 L -9.8511,-318.159 L -9.65707,-318.757 L -9.53941,-319.373 L -9.5,-320 L -9.5,-323 L -9.53941,-323.627
 L -9.65707,-324.243 L -9.8511,-324.841 L -10.1185,-325.409 L -10.4549,-325.939 L -10.8551,-326.423 L -11.3129,-326.853
 L -11.8209,-327.222 L -12.3711,-327.524 L -12.9549,-327.755 L -13.5631,-327.911 L -14.186,-327.99 L -17.8139,-327.99
 L -18.4369,-327.911 L -19.0451,-327.755 L -19.6289,-327.524 L -20.1791,-327.222 L -20.6871,-326.853 L -21.1448,-326.423
 L -21.5451,-325.939 L -21.8815,-325.409 L -22,-325.157 L -22,-370 L -21.9645,-370.564 L -21.8586,-371.119
 L -21.684,-371.657 L -21.4434,-372.168 L -21.1406,-372.645 L -20.7803,-373.08 L -20.3684,-373.467 L -19.9112,-373.799
 L -19.416,-374.072 L -18.8906,-374.28 L -18.3432,-374.42 L -17.7825,-374.491 L 17.7825,-374.491 L 18.3432,-374.42
 L 18.8906,-374.28 L 19.416,-374.072 L 19.9112,-373.799 L 20.3684,-373.467 L 20.7803,-373.08 L 21.1406,-372.645
 L 21.4434,-372.168 L 21.684,-371.657 L 21.8586,-371.119 L 21.9645,-370.564 L 22,-370 L 22,-320
 L 21.9645,-319.436 L 21.8586,-318.881 L 21.684,-318.343 L 21.4434,-317.832 L 21.1406,-317.355 L 20.7803,-316.92
 L 20.3684,-316.533 L 19.9112,-316.201 L 19.416,-315.928 L 18.8906,-315.72 L 18.3432,-315.58 L 17.7825,-315.509
 z
M 15.4684,-365.044 L 15.7725,-365.122 L 16.0644,-365.238 L 16.3396,-365.389 L 16.5936,-365.574 L 16.8224,-365.789
 L 17.0225,-366.031 L 17.1908,-366.296 L 17.3244,-366.58 L 17.4214,-366.878 L 17.4803,-367.187 L 17.5,-367.5
 L 17.4803,-367.813 L 17.4214,-368.122 L 17.3244,-368.42 L 17.1908,-368.704 L 17.0225,-368.969 L 16.8224,-369.211
 L 16.5936,-369.426 L 16.3396,-369.611 L 16.0644,-369.762 L 15.7725,-369.878 L 15.4684,-369.956 L 15.157,-369.995
 L 14.843,-369.995 L 14.5315,-369.956 L 14.2274,-369.878 L 13.9355,-369.762 L 13.6604,-369.611 L 13.4064,-369.426
 L 13.1776,-369.211 L 12.9774,-368.969 L 12.8092,-368.704 L 12.6756,-368.42 L 12.5785,-368.122 L 12.5197,-367.813
 L 12.5,-367.5 L 12.5197,-367.187 L 12.5785,-366.878 L 12.6756,-366.58 L 12.8092,-366.296 L 12.9774,-366.031
 L 13.1776,-365.789 L 13.4064,-365.574 L 13.6604,-365.389 L 13.9355,-365.238 L 14.2274,-365.122 L 14.5315,-365.044
 L 14.843,-365.005 L 15.157,-365.005 z
M 14.9058,-366.003 L 14.7189,-366.027 L 14.5365,-366.073 L 14.3613,-366.143 L 14.1963,-366.234 L 14.0439,-366.344
 L 13.9065,-366.473 L 13.7865,-366.618 L 13.6855,-366.777 L 13.6053,-366.948 L 13.5471,-367.127 L 13.5118,-367.312
 L 13.5,-367.5 L 13.5118,-367.688 L 13.5471,-367.873 L 13.6053,-368.052 L 13.6855,-368.223 L 13.7865,-368.382
 L 13.9065,-368.527 L 14.0439,-368.656 L 14.1963,-368.766 L 14.3613,-368.857 L 14.5365,-368.927 L 14.7189,-368.973
 L 14.9058,-368.997 L 15.0942,-368.997 L 15.2811,-368.973 L 15.4635,-368.927 L 15.6387,-368.857 L 15.8037,-368.766
 L 15.9561,-368.656 L 16.0934,-368.527 L 16.2135,-368.382 L 16.3145,-368.223 L 16.3947,-368.052 L 16.4529,-367.873
 L 16.4882,-367.688 L 16.5,-367.5 L 16.4882,-367.312 L 16.4529,-367.127 L 16.3947,-366.948 L 16.3145,-366.777
 L 16.2135,-366.618 L 16.0934,-366.473 L 15.9561,-366.344 L 15.8037,-366.234 L 15.6387,-366.143 L 15.4635,-366.073
 L 15.2811,-366.027 L 15.0942,-366.003 z
M -15.0942,-321.003 L -15.2811,-321.027 L -15.4635,-321.073 L -15.6387,-321.143 L -15.8037,-321.234 L -15.9561,-321.344
 L -16.0934,-321.473 L -16.2135,-321.618 L -16.3145,-321.777 L -16.3947,-321.948 L -16.4529,-322.127 L -16.4882,-322.312
 L -16.5,-322.5 L -16.4882,-322.688 L -16.4529,-322.873 L -16.3947,-323.052 L -16.3145,-323.223 L -16.2135,-323.382
 L -16.0934,-323.527 L -15.9561,-323.656 L -15.8037,-323.766 L -15.6387,-323.857 L -15.4635,-323.927 L -15.2811,-323.973
 L -15.0942,-323.997 L -14.9058,-323.997 L -14.7189,-323.973 L -14.5365,-323.927 L -14.3613,-323.857 L -14.1963,-323.766
 L -14.0439,-323.656 L -13.9065,-323.527 L -13.7865,-323.382 L -13.6855,-323.223 L -13.6053,-323.052 L -13.5471,-322.873
 L -13.5118,-322.688 L -13.5,-322.5 L -13.5118,-322.312 L -13.5471,-322.127 L -13.6053,-321.948 L -13.6855,-321.777
 L -13.7865,-321.618 L -13.9065,-321.473 L -14.0439,-321.344 L -14.1963,-321.234 L -14.3613,-321.143 L -14.5365,-321.073
 L -14.7189,-321.027 L -14.9058,-321.003 z
M 18.4369,-246.089 L 19.0451,-246.245 L 19.6289,-246.476 L 20.1791,-246.778 L 20.6871,-247.147 L 21.1448,-247.577
 L 21.5451,-248.061 L 21.8815,-248.591 L 22.1489,-249.159 L 22.3429,-249.757 L 22.4606,-250.373 L 22.5,-251
 L 22.5,-301 L 22.4606,-301.627 L 22.3429,-302.243 L 22.1489,-302.841 L 21.8815,-303.409 L 21.5451,-303.939
 L 21.1448,-304.423 L 20.6871,-304.853 L 20.1791,-305.222 L 19.6289,-305.524 L 19.0451,-305.755 L 18.4369,-305.911
 L 17.8139,-305.99 L -17.8139,-305.99 L -18.4369,-305.911 L -19.0451,-305.755 L -19.6289,-305.524 L -20.1791,-305.222
 L -20.6871,-304.853 L -21.1448,-304.423 L -21.5451,-303.939 L -21.8815,-303.409 L -22.1489,-302.841 L -22.3429,-302.243
 L -22.4606,-301.627 L -22.5,-301 L -22.5,-251 L -22.4606,-250.373 L -22.3429,-249.757 L -22.1489,-249.159
 L -21.8815,-248.591 L -21.5451,-248.061 L -21.1448,-247.577 L -20.6871,-247.147 L -20.1791,-246.778 L -19.6289,-246.476
 L -19.0451,-246.245 L -18.4369,-246.089 L -17.8139,-246.01 L 17.8139,-246.01 z
M -11.5357,-246.986 L -11.3129,-247.147 L -10.8551,-247.577 L -10.4549,-248.061 L -10.1185,-248.591 L -9.8511,-249.159
 L -9.65707,-249.757 L -9.53941,-250.373 L -9.5,-251 L -9.5,-254 L -9.53941,-254.627 L -9.65707,-255.243
 L -9.8511,-255.841 L -10.1185,-256.409 L -10.4549,-256.939 L -10.8551,-257.423 L -11.3129,-257.853 L -11.8209,-258.222
 L -12.3711,-258.524 L -12.9549,-258.755 L -13.5631,-258.911 L -14.186,-258.99 L -17.8139,-258.99 L -18.4369,-258.911
 L -19.0451,-258.755 L -19.6289,-258.524 L -20.1791,-258.222 L -20.6871,-257.853 L -21.1448,-257.423 L -21.5224,-256.966
 L -21.5224,-301 L -21.4907,-301.504 L -21.396,-302 L -21.2399,-302.481 L -21.0248,-302.938 L -20.7542,-303.364
 L -20.4322,-303.754 L -20.0639,-304.099 L -19.6553,-304.396 L -19.2126,-304.64 L -18.743,-304.826 L -18.2537,-304.951
 L -17.7526,-305.014 L 11.5357,-305.014 L 11.3129,-304.853 L 10.8551,-304.423 L 10.4549,-303.939 L 10.1185,-303.409
 L 9.8511,-302.841 L 9.65707,-302.243 L 9.53941,-301.627 L 9.5,-301 L 9.5,-298 L 9.53941,-297.373
 L 9.65707,-296.757 L 9.8511,-296.159 L 10.1185,-295.591 L 10.4549,-295.061 L 10.8551,-294.577 L 11.3129,-294.147
 L 11.8209,-293.778 L 12.3711,-293.476 L 12.9549,-293.245 L 13.5631,-293.089 L 14.186,-293.01 L 17.8139,-293.01
 L 18.4369,-293.089 L 19.0451,-293.245 L 19.6289,-293.476 L 20.1791,-293.778 L 20.6871,-294.147 L 21.1448,-294.577
 L 21.5224,-295.034 L 21.5224,-251 L 21.4907,-250.496 L 21.396,-250 L 21.2399,-249.519 L 21.0248,-249.062
 L 20.7542,-248.636 L 20.4322,-248.246 L 20.0639,-247.901 L 19.6553,-247.604 L 19.2126,-247.36 L 18.743,-247.174
 L 18.2537,-247.049 L 17.7526,-246.986 z
M 14.9058,-297.003 L 14.7189,-297.027 L 14.5365,-297.073 L 14.3613,-297.143 L 14.1963,-297.234 L 14.0439,-297.344
 L 13.9065,-297.473 L 13.7865,-297.618 L 13.6855,-297.777 L 13.6053,-297.948 L 13.5471,-298.127 L 13.5118,-298.312
 L 13.5,-298.5 L 13.5118,-298.688 L 13.5471,-298.873 L 13.6053,-299.052 L 13.6855,-299.223 L 13.7865,-299.382
 L 13.9065,-299.527 L 14.0439,-299.656 L 14.1963,-299.766 L 14.3613,-299.857 L 14.5365,-299.927 L 14.7189,-299.973
 L 14.9058,-299.997 L 15.0942,-299.997 L 15.2811,-299.973 L 15.4635,-299.927 L 15.6387,-299.857 L 15.8037,-299.766
 L 15.9561,-299.656 L 16.0934,-299.527 L 16.2135,-299.382 L 16.3145,-299.223 L 16.3947,-299.052 L 16.4529,-298.873
 L 16.4882,-298.688 L 16.5,-298.5 L 16.4882,-298.312 L 16.4529,-298.127 L 16.3947,-297.948 L 16.3145,-297.777
 L 16.2135,-297.618 L 16.0934,-297.473 L 15.9561,-297.344 L 15.8037,-297.234 L 15.6387,-297.143 L 15.4635,-297.073
 L 15.2811,-297.027 L 15.0942,-297.003 z
M -15.0942,-252.003 L -15.2811,-252.027 L -15.4635,-252.073 L -15.6387,-252.143 L -15.8037,-252.234 L -15.9561,-252.344
 L -16.0934,-252.473 L -16.2135,-252.618 L -16.3145,-252.777 L -16.3947,-252.948 L -16.4529,-253.127 L -16.4882,-253.312
 L -16.5,-253.5 L -16.4882,-253.688 L -16.4529,-253.873 L -16.3947,-254.052 L -16.3145,-254.223 L -16.2135,-254.382
 L -16.0934,-254.527 L -15.9561,-254.656 L -15.8037,-254.766 L -15.6387,-254.857 L -15.4635,-254.927 L -15.2811,-254.973
 L -15.0942,-254.997 L -14.9058,-254.997 L -14.7189,-254.973 L -14.5365,-254.927 L -14.3613,-254.857 L -14.1963,-254.766
 L -14.0439,-254.656 L -13.9065,-254.527 L -13.7865,-254.382 L -13.6855,-254.223 L -13.6053,-254.052 L -13.5471,-253.873
 L -13.5118,-253.688 L -13.5,-253.5 L -13.5118,-253.312 L -13.5471,-253.127 L -13.6053,-252.948 L -13.6855,-252.777
 L -13.7865,-252.618 L -13.9065,-252.473 L -14.0439,-252.344 L -14.1963,-252.234 L -14.3613,-252.143 L -14.5365,-252.073
 L -14.7189,-252.027 L -14.9058,-252.003 z
M 18.4369,-177.089 L 19.0451,-177.245 L 19.6289,-177.476 L 20.1791,-177.778 L 20.6871,-178.147 L 21.1448,-178.577
 L 21.5451,-179.061 L 21.8815,-179.591 L 22.1489,-180.159 L 22.3429,-180.757 L 22.4606,-181.373 L 22.5,-182
 L 22.5,-232 L 22.4606,-232.627 L 22.3429,-233.243 L 22.1489,-233.841 L 21.8815,-234.409 L 21.5451,-234.939
 L 21.1448,-235.423 L 20.6871,-235.853 L 20.1791,-236.222 L 19.6289,-236.524 L 19.0451,-236.755 L 18.4369,-236.911
 L 17.8139,-236.99 L -17.8139,-236.99 L -18.4369,-236.911 L -19.0451,-236.755 L -19.6289,-236.524 L -20.1791,-236.222
 L -20.6871,-235.853 L -21.1448,-235.423 L -21.5451,-234.939 L -21.8815,-234.409 L -22.1489,-233.841 L -22.3429,-233.243
 L -22.4606,-232.627 L -22.5,-232 L -22.5,-182 L -22.4606,-181.373 L -22.3429,-180.757 L -22.1489,-180.159
 L -21.8815,-179.591 L -21.5451,-179.061 L -21.1448,-178.577 L -20.6871,-178.147 L -20.1791,-177.778 L -19.6289,-177.476
 L -19.0451,-177.245 L -18.4369,-177.089 L -17.8139,-177.01 L 17.8139,-177.01 z
M 14.8493,-227.105 L 14.5503,-227.143 L 14.2583,-227.217 L 13.9781,-227.328 L 13.714,-227.474 L 13.4702,-227.651
 L 13.2505,-227.857 L 13.0583,-228.089 L 12.8969,-228.344 L 12.7685,-228.617 L 12.6754,-228.903 L 12.6189,-229.199
 L 12.6,-229.5 L 12.6189,-229.801 L 12.6754,-230.097 L 12.7685,-230.383 L 12.8969,-230.656 L 13.0583,-230.911
 L 13.2505,-231.143 L 13.4702,-231.349 L 13.714,-231.526 L 13.9781,-231.672 L 14.2583,-231.783 L 14.5503,-231.857
 L 14.8493,-231.895 L 15.1507,-231.895 L 15.4497,-231.857 L 15.7416,-231.783 L 16.0219,-231.672 L 16.286,-231.526
 L 16.5298,-231.349 L 16.7495,-231.143 L 16.9416,-230.911 L 17.1031,-230.656 L 17.2315,-230.383 L 17.3246,-230.097
 L 17.3811,-229.801 L 17.4,-229.5 L 17.3811,-229.199 L 17.3246,-228.903 L 17.2315,-228.617 L 17.1031,-228.344
 L 16.9416,-228.089 L 16.7495,-227.857 L 16.5298,-227.651 L 16.286,-227.474 L 16.0219,-227.328 L 15.7416,-227.217
 L 15.4497,-227.143 L 15.1507,-227.105 z
M -15.0942,-228.003 L -15.2811,-228.027 L -15.4635,-228.073 L -15.6387,-228.143 L -15.8037,-228.234 L -15.9561,-228.344
 L -16.0934,-228.473 L -16.2135,-228.618 L -16.3145,-228.777 L -16.3947,-228.948 L -16.4529,-229.127 L -16.4882,-229.312
 L -16.5,-229.5 L -16.4882,-229.688 L -16.4529,-229.873 L -16.3947,-230.052 L -16.3145,-230.223 L -16.2135,-230.382
 L -16.0934,-230.527 L -15.9561,-230.656 L -15.8037,-230.766 L -15.6387,-230.857 L -15.4635,-230.927 L -15.2811,-230.973
 L -15.0942,-230.997 L -14.9058,-230.997 L -14.7189,-230.973 L -14.5365,-230.927 L -14.3613,-230.857 L -14.1963,-230.766
 L -14.0439,-230.656 L -13.9065,-230.527 L -13.7865,-230.382 L -13.6855,-230.223 L -13.6053,-230.052 L -13.5471,-229.873
 L -13.5118,-229.688 L -13.5,-229.5 L -13.5118,-229.312 L -13.5471,-229.127 L -13.6053,-228.948 L -13.6855,-228.777
 L -13.7865,-228.618 L -13.9065,-228.473 L -14.0439,-228.344 L -14.1963,-228.234 L -14.3613,-228.143 L -14.5365,-228.073
 L -14.7189,-228.027 L -14.9058,-228.003 z
M -15.1507,-182.105 L -15.4497,-182.143 L -15.7416,-182.217 L -16.0219,-182.328 L -16.286,-182.474 L -16.5298,-182.651
 L -16.7495,-182.857 L -16.9416,-183.089 L -17.1031,-183.344 L -17.2315,-183.617 L -17.3246,-183.903 L -17.3811,-184.199
 L -17.4,-184.5 L -17.3811,-184.801 L -17.3246,-185.097 L -17.2315,-185.383 L -17.1031,-185.656 L -16.9416,-185.911
 L -16.7495,-186.143 L -16.5298,-186.349 L -16.286,-186.526 L -16.0219,-186.672 L -15.7416,-186.783 L -15.4497,-186.857
 L -15.1507,-186.895 L -14.8493,-186.895 L -14.5503,-186.857 L -14.2583,-186.783 L -13.9781,-186.672 L -13.714,-186.526
 L -13.4702,-186.349 L -13.2505,-186.143 L -13.0583,-185.911 L -12.8969,-185.656 L -12.7685,-185.383 L -12.6754,-185.097
 L -12.6189,-184.801 L -12.6,-184.5 L -12.6189,-184.199 L -12.6754,-183.903 L -12.7685,-183.617 L -12.8969,-183.344
 L -13.0583,-183.089 L -13.2505,-182.857 L -13.4702,-182.651 L -13.714,-182.474 L -13.9781,-182.328 L -14.2583,-182.217
 L -14.5503,-182.143 L -14.8493,-182.105 z
M 14.9058,-183.003 L 14.7189,-183.027 L 14.5365,-183.073 L 14.3613,-183.143 L 14.1963,-183.234 L 14.0439,-183.344
 L 13.9065,-183.473 L 13.7865,-183.618 L 13.6855,-183.777 L 13.6053,-183.948 L 13.5471,-184.127 L 13.5118,-184.312
 L 13.5,-184.5 L 13.5118,-184.688 L 13.5471,-184.873 L 13.6053,-185.052 L 13.6855,-185.223 L 13.7865,-185.382
 L 13.9065,-185.527 L 14.0439,-185.656 L 14.1963,-185.766 L 14.3613,-185.857 L 14.5365,-185.927 L 14.7189,-185.973
 L 14.9058,-185.997 L 15.0942,-185.997 L 15.2811,-185.973 L 15.4635,-185.927 L 15.6387,-185.857 L 15.8037,-185.766
 L 15.9561,-185.656 L 16.0934,-185.527 L 16.2135,-185.382 L 16.3145,-185.223 L 16.3947,-185.052 L 16.4529,-184.873
 L 16.4882,-184.688 L 16.5,-184.5 L 16.4882,-184.312 L 16.4529,-184.127 L 16.3947,-183.948 L 16.3145,-183.777
 L 16.2135,-183.618 L 16.0934,-183.473 L 15.9561,-183.344 L 15.8037,-183.234 L 15.6387,-183.143 L 15.4635,-183.073
 L 15.2811,-183.027 L 15.0942,-183.003 z
" stroke="black" fill="lightgray" stroke-width="0.5"/>
</svg>
