  0
SECTION
  2
BLOCKS
  0
ENDSEC
  0
SECTION
  2
ENTITIES
  0
LINE
  8
0
 10
11
 20
54.75
 11
10.9803
 21
55.0633
  0
LINE
  8
0
 10
10.9803
 20
55.0633
 11
10.9214
 21
55.3717
  0
LINE
  8
0
 10
10.9214
 20
55.3717
 11
10.8244
 21
55.6703
  0
LINE
  8
0
 10
10.8244
 20
55.6703
 11
10.6908
 21
55.9544
  0
LINE
  8
0
 10
10.6908
 20
55.9544
 11
10.5225
 21
56.2195
  0
LINE
  8
0
 10
10.5225
 20
56.2195
 11
10.3224
 21
56.4614
  0
LINE
  8
0
 10
10.3224
 20
56.4614
 11
10.0936
 21
56.6763
  0
LINE
  8
0
 10
10.0936
 20
56.6763
 11
9.83955
 21
56.8608
  0
LINE
  8
0
 10
9.83955
 20
56.8608
 11
9.56444
 21
57.0121
  0
LINE
  8
0
 10
9.56444
 20
57.0121
 11
9.27254
 21
57.1276
  0
LINE
  8
0
 10
9.27254
 20
57.1276
 11
8.96844
 21
57.2057
  0
LINE
  8
0
 10
8.96844
 20
57.2057
 11
8.65697
 21
57.2451
  0
LINE
  8
0
 10
8.65697
 20
57.2451
 11
-8.65697
 21
57.2451
  0
LINE
  8
0
 10
-8.65697
 20
57.2451
 11
-8.96844
 21
57.2057
  0
LINE
  8
0
 10
-8.96844
 20
57.2057
 11
-9.27254
 21
57.1276
  0
LINE
  8
0
 10
-9.27254
 20
57.1276
 11
-9.56444
 21
57.0121
  0
LINE
  8
0
 10
-9.56444
 20
57.0121
 11
-9.83955
 21
56.8608
  0
LINE
  8
0
 10
-9.83955
 20
56.8608
 11
-10.0936
 21
56.6763
  0
LINE
  8
0
 10
-10.0936
 20
56.6763
 11
-10.3224
 21
56.4614
  0
LINE
  8
0
 10
-10.3224
 20
56.4614
 11
-10.5225
 21
56.2195
  0
LINE
  8
0
 10
-10.5225
 20
56.2195
 11
-10.6908
 21
55.9544
  0
LINE
  8
0
 10
-10.6908
 20
55.9544
 11
-10.8244
 21
55.6703
  0
LINE
  8
0
 10
-10.8244
 20
55.6703
 11
-10.9214
 21
55.3717
  0
LINE
  8
0
 10
-10.9214
 20
55.3717
 11
-10.9803
 21
55.0633
  0
LINE
  8
0
 10
-10.9803
 20
55.0633
 11
-11
 21
54.75
  0
LINE
  8
0
 10
-11
 20
54.75
 11
-11
 21
32
  0
LINE
  8
0
 10
-11
 20
32
 11
11
 21
32
  0
LINE
  8
0
 10
11
 20
32
 11
11
 21
54.75
  0
LINE
  8
0
 10
-0.0941772
 20
52.253
 11
-0.281067
 21
52.2766
  0
LINE
  8
0
 10
-0.281067
 20
52.2766
 11
-0.463516
 21
52.3234
  0
LINE
  8
0
 10
-0.463516
 20
52.3234
 11
-0.638657
 21
52.3927
  0
LINE
  8
0
 10
-0.638657
 20
52.3927
 11
-0.803726
 21
52.4835
  0
LINE
  8
0
 10
-0.803726
 20
52.4835
 11
-0.956131
 21
52.5942
  0
LINE
  8
0
 10
-0.956131
 20
52.5942
 11
-1.09344
 21
52.7232
  0
LINE
  8
0
 10
-1.09344
 20
52.7232
 11
-1.21352
 21
52.8683
  0
LINE
  8
0
 10
-1.21352
 20
52.8683
 11
-1.31445
 21
53.0274
  0
LINE
  8
0
 10
-1.31445
 20
53.0274
 11
-1.39465
 21
53.1978
  0
LINE
  8
0
 10
-1.39465
 20
53.1978
 11
-1.45287
 21
53.377
  0
LINE
  8
0
 10
-1.45287
 20
53.377
 11
-1.48816
 21
53.562
  0
LINE
  8
0
 10
-1.48816
 20
53.562
 11
-1.5
 21
53.75
  0
LINE
  8
0
 10
-1.5
 20
53.75
 11
-1.48816
 21
53.938
  0
LINE
  8
0
 10
-1.48816
 20
53.938
 11
-1.45287
 21
54.123
  0
LINE
  8
0
 10
-1.45287
 20
54.123
 11
-1.39465
 21
54.3022
  0
LINE
  8
0
 10
-1.39465
 20
54.3022
 11
-1.31445
 21
54.4726
  0
LINE
  8
0
 10
-1.31445
 20
54.4726
 11
-1.21352
 21
54.6317
  0
LINE
  8
0
 10
-1.21352
 20
54.6317
 11
-1.09344
 21
54.7768
  0
LINE
  8
0
 10
-1.09344
 20
54.7768
 11
-0.956131
 21
54.9058
  0
LINE
  8
0
 10
-0.956131
 20
54.9058
 11
-0.803726
 21
55.0165
  0
LINE
  8
0
 10
-0.803726
 20
55.0165
 11
-0.638657
 21
55.1072
  0
LINE
  8
0
 10
-0.638657
 20
55.1072
 11
-0.463516
 21
55.1766
  0
LINE
  8
0
 10
-0.463516
 20
55.1766
 11
-0.281067
 21
55.2234
  0
LINE
  8
0
 10
-0.281067
 20
55.2234
 11
-0.0941772
 21
55.247
  0
LINE
  8
0
 10
-0.0941772
 20
55.247
 11
0.0941772
 21
55.247
  0
LINE
  8
0
 10
0.0941772
 20
55.247
 11
0.281067
 21
55.2234
  0
LINE
  8
0
 10
0.281067
 20
55.2234
 11
0.463516
 21
55.1766
  0
LINE
  8
0
 10
0.463516
 20
55.1766
 11
0.638657
 21
55.1072
  0
LINE
  8
0
 10
0.638657
 20
55.1072
 11
0.803726
 21
55.0165
  0
LINE
  8
0
 10
0.803726
 20
55.0165
 11
0.956131
 21
54.9058
  0
LINE
  8
0
 10
0.956131
 20
54.9058
 11
1.09344
 21
54.7768
  0
LINE
  8
0
 10
1.09344
 20
54.7768
 11
1.21352
 21
54.6317
  0
LINE
  8
0
 10
1.21352
 20
54.6317
 11
1.31445
 21
54.4726
  0
LINE
  8
0
 10
1.31445
 20
54.4726
 11
1.39465
 21
54.3022
  0
LINE
  8
0
 10
1.39465
 20
54.3022
 11
1.45287
 21
54.123
  0
LINE
  8
0
 10
1.45287
 20
54.123
 11
1.48816
 21
53.938
  0
LINE
  8
0
 10
1.48816
 20
53.938
 11
1.5
 21
53.75
  0
LINE
  8
0
 10
1.5
 20
53.75
 11
1.48816
 21
53.562
  0
LINE
  8
0
 10
1.48816
 20
53.562
 11
1.45287
 21
53.377
  0
LINE
  8
0
 10
1.45287
 20
53.377
 11
1.39465
 21
53.1978
  0
LINE
  8
0
 10
1.39465
 20
53.1978
 11
1.31445
 21
53.0274
  0
LINE
  8
0
 10
1.31445
 20
53.0274
 11
1.21352
 21
52.8683
  0
LINE
  8
0
 10
1.21352
 20
52.8683
 11
1.09344
 21
52.7232
  0
LINE
  8
0
 10
1.09344
 20
52.7232
 11
0.956131
 21
52.5942
  0
LINE
  8
0
 10
0.956131
 20
52.5942
 11
0.803726
 21
52.4835
  0
LINE
  8
0
 10
0.803726
 20
52.4835
 11
0.638657
 21
52.3927
  0
LINE
  8
0
 10
0.638657
 20
52.3927
 11
0.463516
 21
52.3234
  0
LINE
  8
0
 10
0.463516
 20
52.3234
 11
0.281067
 21
52.2766
  0
LINE
  8
0
 10
0.281067
 20
52.2766
 11
0.0941772
 21
52.253
  0
LINE
  8
0
 10
0.0941772
 20
52.253
 11
-0.0941772
 21
52.253
  0
LINE
  8
0
 10
-7.59418
 20
52.253
 11
-7.78107
 21
52.2766
  0
LINE
  8
0
 10
-7.78107
 20
52.2766
 11
-7.96352
 21
52.3234
  0
LINE
  8
0
 10
-7.96352
 20
52.3234
 11
-8.13866
 21
52.3927
  0
LINE
  8
0
 10
-8.13866
 20
52.3927
 11
-8.30373
 21
52.4835
  0
LINE
  8
0
 10
-8.30373
 20
52.4835
 11
-8.45613
 21
52.5942
  0
LINE
  8
0
 10
-8.45613
 20
52.5942
 11
-8.59344
 21
52.7232
  0
LINE
  8
0
 10
-8.59344
 20
52.7232
 11
-8.71352
 21
52.8683
  0
LINE
  8
0
 10
-8.71352
 20
52.8683
 11
-8.81445
 21
53.0274
  0
LINE
  8
0
 10
-8.81445
 20
53.0274
 11
-8.89465
 21
53.1978
  0
LINE
  8
0
 10
-8.89465
 20
53.1978
 11
-8.95287
 21
53.377
  0
LINE
  8
0
 10
-8.95287
 20
53.377
 11
-8.98816
 21
53.562
  0
LINE
  8
0
 10
-8.98816
 20
53.562
 11
-9
 21
53.75
  0
LINE
  8
0
 10
-9
 20
53.75
 11
-8.98816
 21
53.938
  0
LINE
  8
0
 10
-8.98816
 20
53.938
 11
-8.95287
 21
54.123
  0
LINE
  8
0
 10
-8.95287
 20
54.123
 11
-8.89465
 21
54.3022
  0
LINE
  8
0
 10
-8.89465
 20
54.3022
 11
-8.81445
 21
54.4726
  0
LINE
  8
0
 10
-8.81445
 20
54.4726
 11
-8.71352
 21
54.6317
  0
LINE
  8
0
 10
-8.71352
 20
54.6317
 11
-8.59344
 21
54.7768
  0
LINE
  8
0
 10
-8.59344
 20
54.7768
 11
-8.45613
 21
54.9058
  0
LINE
  8
0
 10
-8.45613
 20
54.9058
 11
-8.30373
 21
55.0165
  0
LINE
  8
0
 10
-8.30373
 20
55.0165
 11
-8.13866
 21
55.1072
  0
LINE
  8
0
 10
-8.13866
 20
55.1072
 11
-7.96352
 21
55.1766
  0
LINE
  8
0
 10
-7.96352
 20
55.1766
 11
-7.78107
 21
55.2234
  0
LINE
  8
0
 10
-7.78107
 20
55.2234
 11
-7.59418
 21
55.247
  0
LINE
  8
0
 10
-7.59418
 20
55.247
 11
-7.40581
 21
55.247
  0
LINE
  8
0
 10
-7.40581
 20
55.247
 11
-7.21892
 21
55.2234
  0
LINE
  8
0
 10
-7.21892
 20
55.2234
 11
-7.03647
 21
55.1766
  0
LINE
  8
0
 10
-7.03647
 20
55.1766
 11
-6.86133
 21
55.1072
  0
LINE
  8
0
 10
-6.86133
 20
55.1072
 11
-6.69626
 21
55.0165
  0
LINE
  8
0
 10
-6.69626
 20
55.0165
 11
-6.54385
 21
54.9058
  0
LINE
  8
0
 10
-6.54385
 20
54.9058
 11
-6.40654
 21
54.7768
  0
LINE
  8
0
 10
-6.40654
 20
54.7768
 11
-6.28647
 21
54.6317
  0
LINE
  8
0
 10
-6.28647
 20
54.6317
 11
-6.18553
 21
54.4726
  0
LINE
  8
0
 10
-6.18553
 20
54.4726
 11
-6.10533
 21
54.3022
  0
LINE
  8
0
 10
-6.10533
 20
54.3022
 11
-6.04712
 21
54.123
  0
LINE
  8
0
 10
-6.04712
 20
54.123
 11
-6.01183
 21
53.938
  0
LINE
  8
0
 10
-6.01183
 20
53.938
 11
-6
 21
53.75
  0
LINE
  8
0
 10
-6
 20
53.75
 11
-6.01183
 21
53.562
  0
LINE
  8
0
 10
-6.01183
 20
53.562
 11
-6.04712
 21
53.377
  0
LINE
  8
0
 10
-6.04712
 20
53.377
 11
-6.10533
 21
53.1978
  0
LINE
  8
0
 10
-6.10533
 20
53.1978
 11
-6.18553
 21
53.0274
  0
LINE
  8
0
 10
-6.18553
 20
53.0274
 11
-6.28647
 21
52.8683
  0
LINE
  8
0
 10
-6.28647
 20
52.8683
 11
-6.40654
 21
52.7232
  0
LINE
  8
0
 10
-6.40654
 20
52.7232
 11
-6.54385
 21
52.5942
  0
LINE
  8
0
 10
-6.54385
 20
52.5942
 11
-6.69626
 21
52.4835
  0
LINE
  8
0
 10
-6.69626
 20
52.4835
 11
-6.86133
 21
52.3927
  0
LINE
  8
0
 10
-6.86133
 20
52.3927
 11
-7.03647
 21
52.3234
  0
LINE
  8
0
 10
-7.03647
 20
52.3234
 11
-7.21892
 21
52.2766
  0
LINE
  8
0
 10
-7.21892
 20
52.2766
 11
-7.40581
 21
52.253
  0
LINE
  8
0
 10
-7.40581
 20
52.253
 11
-7.59418
 21
52.253
  0
LINE
  8
0
 10
7.40581
 20
52.253
 11
7.21892
 21
52.2766
  0
LINE
  8
0
 10
7.21892
 20
52.2766
 11
7.03647
 21
52.3234
  0
LINE
  8
0
 10
7.03647
 20
52.3234
 11
6.86133
 21
52.3927
  0
LINE
  8
0
 10
6.86133
 20
52.3927
 11
6.69626
 21
52.4835
  0
LINE
  8
0
 10
6.69626
 20
52.4835
 11
6.54385
 21
52.5942
  0
LINE
  8
0
 10
6.54385
 20
52.5942
 11
6.40654
 21
52.7232
  0
LINE
  8
0
 10
6.40654
 20
52.7232
 11
6.28647
 21
52.8683
  0
LINE
  8
0
 10
6.28647
 20
52.8683
 11
6.18553
 21
53.0274
  0
LINE
  8
0
 10
6.18553
 20
53.0274
 11
6.10533
 21
53.1978
  0
LINE
  8
0
 10
6.10533
 20
53.1978
 11
6.04712
 21
53.377
  0
LINE
  8
0
 10
6.04712
 20
53.377
 11
6.01183
 21
53.562
  0
LINE
  8
0
 10
6.01183
 20
53.562
 11
6
 21
53.75
  0
LINE
  8
0
 10
6
 20
53.75
 11
6.01183
 21
53.938
  0
LINE
  8
0
 10
6.01183
 20
53.938
 11
6.04712
 21
54.123
  0
LINE
  8
0
 10
6.04712
 20
54.123
 11
6.10533
 21
54.3022
  0
LINE
  8
0
 10
6.10533
 20
54.3022
 11
6.18553
 21
54.4726
  0
LINE
  8
0
 10
6.18553
 20
54.4726
 11
6.28647
 21
54.6317
  0
LINE
  8
0
 10
6.28647
 20
54.6317
 11
6.40654
 21
54.7768
  0
LINE
  8
0
 10
6.40654
 20
54.7768
 11
6.54385
 21
54.9058
  0
LINE
  8
0
 10
6.54385
 20
54.9058
 11
6.69626
 21
55.0165
  0
LINE
  8
0
 10
6.69626
 20
55.0165
 11
6.86133
 21
55.1072
  0
LINE
  8
0
 10
6.86133
 20
55.1072
 11
7.03647
 21
55.1766
  0
LINE
  8
0
 10
7.03647
 20
55.1766
 11
7.21892
 21
55.2234
  0
LINE
  8
0
 10
7.21892
 20
55.2234
 11
7.40581
 21
55.247
  0
LINE
  8
0
 10
7.40581
 20
55.247
 11
7.59418
 21
55.247
  0
LINE
  8
0
 10
7.59418
 20
55.247
 11
7.78107
 21
55.2234
  0
LINE
  8
0
 10
7.78107
 20
55.2234
 11
7.96352
 21
55.1766
  0
LINE
  8
0
 10
7.96352
 20
55.1766
 11
8.13866
 21
55.1072
  0
LINE
  8
0
 10
8.13866
 20
55.1072
 11
8.30373
 21
55.0165
  0
LINE
  8
0
 10
8.30373
 20
55.0165
 11
8.45613
 21
54.9058
  0
LINE
  8
0
 10
8.45613
 20
54.9058
 11
8.59344
 21
54.7768
  0
LINE
  8
0
 10
8.59344
 20
54.7768
 11
8.71352
 21
54.6317
  0
LINE
  8
0
 10
8.71352
 20
54.6317
 11
8.81445
 21
54.4726
  0
LINE
  8
0
 10
8.81445
 20
54.4726
 11
8.89465
 21
54.3022
  0
LINE
  8
0
 10
8.89465
 20
54.3022
 11
8.95287
 21
54.123
  0
LINE
  8
0
 10
8.95287
 20
54.123
 11
8.98816
 21
53.938
  0
LINE
  8
0
 10
8.98816
 20
53.938
 11
9
 21
53.75
  0
LINE
  8
0
 10
9
 20
53.75
 11
8.98816
 21
53.562
  0
LINE
  8
0
 10
8.98816
 20
53.562
 11
8.95287
 21
53.377
  0
LINE
  8
0
 10
8.95287
 20
53.377
 11
8.89465
 21
53.1978
  0
LINE
  8
0
 10
8.89465
 20
53.1978
 11
8.81445
 21
53.0274
  0
LINE
  8
0
 10
8.81445
 20
53.0274
 11
8.71352
 21
52.8683
  0
LINE
  8
0
 10
8.71352
 20
52.8683
 11
8.59344
 21
52.7232
  0
LINE
  8
0
 10
8.59344
 20
52.7232
 11
8.45613
 21
52.5942
  0
LINE
  8
0
 10
8.45613
 20
52.5942
 11
8.30373
 21
52.4835
  0
LINE
  8
0
 10
8.30373
 20
52.4835
 11
8.13866
 21
52.3927
  0
LINE
  8
0
 10
8.13866
 20
52.3927
 11
7.96352
 21
52.3234
  0
LINE
  8
0
 10
7.96352
 20
52.3234
 11
7.78107
 21
52.2766
  0
LINE
  8
0
 10
7.78107
 20
52.2766
 11
7.59418
 21
52.253
  0
LINE
  8
0
 10
7.59418
 20
52.253
 11
7.40581
 21
52.253
  0
LINE
  8
0
 10
7.40581
 20
44.7529
 11
7.21892
 21
44.7766
  0
LINE
  8
0
 10
7.21892
 20
44.7766
 11
7.03647
 21
44.8234
  0
LINE
  8
0
 10
7.03647
 20
44.8234
 11
6.86133
 21
44.8927
  0
LINE
  8
0
 10
6.86133
 20
44.8927
 11
6.69626
 21
44.9835
  0
LINE
  8
0
 10
6.69626
 20
44.9835
 11
6.54385
 21
45.0942
  0
LINE
  8
0
 10
6.54385
 20
45.0942
 11
6.40654
 21
45.2232
  0
LINE
  8
0
 10
6.40654
 20
45.2232
 11
6.28647
 21
45.3683
  0
LINE
  8
0
 10
6.28647
 20
45.3683
 11
6.18553
 21
45.5274
  0
LINE
  8
0
 10
6.18553
 20
45.5274
 11
6.10533
 21
45.6978
  0
LINE
  8
0
 10
6.10533
 20
45.6978
 11
6.04712
 21
45.877
  0
LINE
  8
0
 10
6.04712
 20
45.877
 11
6.01183
 21
46.062
  0
LINE
  8
0
 10
6.01183
 20
46.062
 11
6
 21
46.25
  0
LINE
  8
0
 10
6
 20
46.25
 11
6.01183
 21
46.438
  0
LINE
  8
0
 10
6.01183
 20
46.438
 11
6.04712
 21
46.623
  0
LINE
  8
0
 10
6.04712
 20
46.623
 11
6.10533
 21
46.8022
  0
LINE
  8
0
 10
6.10533
 20
46.8022
 11
6.18553
 21
46.9726
  0
LINE
  8
0
 10
6.18553
 20
46.9726
 11
6.28647
 21
47.1317
  0
LINE
  8
0
 10
6.28647
 20
47.1317
 11
6.40654
 21
47.2768
  0
LINE
  8
0
 10
6.40654
 20
47.2768
 11
6.54385
 21
47.4058
  0
LINE
  8
0
 10
6.54385
 20
47.4058
 11
6.69626
 21
47.5165
  0
LINE
  8
0
 10
6.69626
 20
47.5165
 11
6.86133
 21
47.6072
  0
LINE
  8
0
 10
6.86133
 20
47.6072
 11
7.03647
 21
47.6766
  0
LINE
  8
0
 10
7.03647
 20
47.6766
 11
7.21892
 21
47.7234
  0
LINE
  8
0
 10
7.21892
 20
47.7234
 11
7.40581
 21
47.747
  0
LINE
  8
0
 10
7.40581
 20
47.747
 11
7.59418
 21
47.747
  0
LINE
  8
0
 10
7.59418
 20
47.747
 11
7.78107
 21
47.7234
  0
LINE
  8
0
 10
7.78107
 20
47.7234
 11
7.96352
 21
47.6766
  0
LINE
  8
0
 10
7.96352
 20
47.6766
 11
8.13866
 21
47.6072
  0
LINE
  8
0
 10
8.13866
 20
47.6072
 11
8.30373
 21
47.5165
  0
LINE
  8
0
 10
8.30373
 20
47.5165
 11
8.45613
 21
47.4058
  0
LINE
  8
0
 10
8.45613
 20
47.4058
 11
8.59344
 21
47.2768
  0
LINE
  8
0
 10
8.59344
 20
47.2768
 11
8.71352
 21
47.1317
  0
LINE
  8
0
 10
8.71352
 20
47.1317
 11
8.81445
 21
46.9726
  0
LINE
  8
0
 10
8.81445
 20
46.9726
 11
8.89465
 21
46.8022
  0
LINE
  8
0
 10
8.89465
 20
46.8022
 11
8.95287
 21
46.623
  0
LINE
  8
0
 10
8.95287
 20
46.623
 11
8.98816
 21
46.438
  0
LINE
  8
0
 10
8.98816
 20
46.438
 11
9
 21
46.25
  0
LINE
  8
0
 10
9
 20
46.25
 11
8.98816
 21
46.062
  0
LINE
  8
0
 10
8.98816
 20
46.062
 11
8.95287
 21
45.877
  0
LINE
  8
0
 10
8.95287
 20
45.877
 11
8.89465
 21
45.6978
  0
LINE
  8
0
 10
8.89465
 20
45.6978
 11
8.81445
 21
45.5274
  0
LINE
  8
0
 10
8.81445
 20
45.5274
 11
8.71352
 21
45.3683
  0
LINE
  8
0
 10
8.71352
 20
45.3683
 11
8.59344
 21
45.2232
  0
LINE
  8
0
 10
8.59344
 20
45.2232
 11
8.45613
 21
45.0942
  0
LINE
  8
0
 10
8.45613
 20
45.0942
 11
8.30373
 21
44.9835
  0
LINE
  8
0
 10
8.30373
 20
44.9835
 11
8.13866
 21
44.8927
  0
LINE
  8
0
 10
8.13866
 20
44.8927
 11
7.96352
 21
44.8234
  0
LINE
  8
0
 10
7.96352
 20
44.8234
 11
7.78107
 21
44.7766
  0
LINE
  8
0
 10
7.78107
 20
44.7766
 11
7.59418
 21
44.7529
  0
LINE
  8
0
 10
7.59418
 20
44.7529
 11
7.40581
 21
44.7529
  0
LINE
  8
0
 10
-7.59418
 20
44.7529
 11
-7.78107
 21
44.7766
  0
LINE
  8
0
 10
-7.78107
 20
44.7766
 11
-7.96352
 21
44.8234
  0
LINE
  8
0
 10
-7.96352
 20
44.8234
 11
-8.13866
 21
44.8927
  0
LINE
  8
0
 10
-8.13866
 20
44.8927
 11
-8.30373
 21
44.9835
  0
LINE
  8
0
 10
-8.30373
 20
44.9835
 11
-8.45613
 21
45.0942
  0
LINE
  8
0
 10
-8.45613
 20
45.0942
 11
-8.59344
 21
45.2232
  0
LINE
  8
0
 10
-8.59344
 20
45.2232
 11
-8.71352
 21
45.3683
  0
LINE
  8
0
 10
-8.71352
 20
45.3683
 11
-8.81445
 21
45.5274
  0
LINE
  8
0
 10
-8.81445
 20
45.5274
 11
-8.89465
 21
45.6978
  0
LINE
  8
0
 10
-8.89465
 20
45.6978
 11
-8.95287
 21
45.877
  0
LINE
  8
0
 10
-8.95287
 20
45.877
 11
-8.98816
 21
46.062
  0
LINE
  8
0
 10
-8.98816
 20
46.062
 11
-9
 21
46.25
  0
LINE
  8
0
 10
-9
 20
46.25
 11
-8.98816
 21
46.438
  0
LINE
  8
0
 10
-8.98816
 20
46.438
 11
-8.95287
 21
46.623
  0
LINE
  8
0
 10
-8.95287
 20
46.623
 11
-8.89465
 21
46.8022
  0
LINE
  8
0
 10
-8.89465
 20
46.8022
 11
-8.81445
 21
46.9726
  0
LINE
  8
0
 10
-8.81445
 20
46.9726
 11
-8.71352
 21
47.1317
  0
LINE
  8
0
 10
-8.71352
 20
47.1317
 11
-8.59344
 21
47.2768
  0
LINE
  8
0
 10
-8.59344
 20
47.2768
 11
-8.45613
 21
47.4058
  0
LINE
  8
0
 10
-8.45613
 20
47.4058
 11
-8.30373
 21
47.5165
  0
LINE
  8
0
 10
-8.30373
 20
47.5165
 11
-8.13866
 21
47.6072
  0
LINE
  8
0
 10
-8.13866
 20
47.6072
 11
-7.96352
 21
47.6766
  0
LINE
  8
0
 10
-7.96352
 20
47.6766
 11
-7.78107
 21
47.7234
  0
LINE
  8
0
 10
-7.78107
 20
47.7234
 11
-7.59418
 21
47.747
  0
LINE
  8
0
 10
-7.59418
 20
47.747
 11
-7.40581
 21
47.747
  0
LINE
  8
0
 10
-7.40581
 20
47.747
 11
-7.21892
 21
47.7234
  0
LINE
  8
0
 10
-7.21892
 20
47.7234
 11
-7.03647
 21
47.6766
  0
LINE
  8
0
 10
-7.03647
 20
47.6766
 11
-6.86133
 21
47.6072
  0
LINE
  8
0
 10
-6.86133
 20
47.6072
 11
-6.69626
 21
47.5165
  0
LINE
  8
0
 10
-6.69626
 20
47.5165
 11
-6.54385
 21
47.4058
  0
LINE
  8
0
 10
-6.54385
 20
47.4058
 11
-6.40654
 21
47.2768
  0
LINE
  8
0
 10
-6.40654
 20
47.2768
 11
-6.28647
 21
47.1317
  0
LINE
  8
0
 10
-6.28647
 20
47.1317
 11
-6.18553
 21
46.9726
  0
LINE
  8
0
 10
-6.18553
 20
46.9726
 11
-6.10533
 21
46.8022
  0
LINE
  8
0
 10
-6.10533
 20
46.8022
 11
-6.04712
 21
46.623
  0
LINE
  8
0
 10
-6.04712
 20
46.623
 11
-6.01183
 21
46.438
  0
LINE
  8
0
 10
-6.01183
 20
46.438
 11
-6
 21
46.25
  0
LINE
  8
0
 10
-6
 20
46.25
 11
-6.01183
 21
46.062
  0
LINE
  8
0
 10
-6.01183
 20
46.062
 11
-6.04712
 21
45.877
  0
LINE
  8
0
 10
-6.04712
 20
45.877
 11
-6.10533
 21
45.6978
  0
LINE
  8
0
 10
-6.10533
 20
45.6978
 11
-6.18553
 21
45.5274
  0
LINE
  8
0
 10
-6.18553
 20
45.5274
 11
-6.28647
 21
45.3683
  0
LINE
  8
0
 10
-6.28647
 20
45.3683
 11
-6.40654
 21
45.2232
  0
LINE
  8
0
 10
-6.40654
 20
45.2232
 11
-6.54385
 21
45.0942
  0
LINE
  8
0
 10
-6.54385
 20
45.0942
 11
-6.69626
 21
44.9835
  0
LINE
  8
0
 10
-6.69626
 20
44.9835
 11
-6.86133
 21
44.8927
  0
LINE
  8
0
 10
-6.86133
 20
44.8927
 11
-7.03647
 21
44.8234
  0
LINE
  8
0
 10
-7.03647
 20
44.8234
 11
-7.21892
 21
44.7766
  0
LINE
  8
0
 10
-7.21892
 20
44.7766
 11
-7.40581
 21
44.7529
  0
LINE
  8
0
 10
-7.40581
 20
44.7529
 11
-7.59418
 21
44.7529
  0
LINE
  8
0
 10
-0.0941772
 20
44.7529
 11
-0.281067
 21
44.7766
  0
LINE
  8
0
 10
-0.281067
 20
44.7766
 11
-0.463516
 21
44.8234
  0
LINE
  8
0
 10
-0.463516
 20
44.8234
 11
-0.638657
 21
44.8927
  0
LINE
  8
0
 10
-0.638657
 20
44.8927
 11
-0.803726
 21
44.9835
  0
LINE
  8
0
 10
-0.803726
 20
44.9835
 11
-0.956131
 21
45.0942
  0
LINE
  8
0
 10
-0.956131
 20
45.0942
 11
-1.09344
 21
45.2232
  0
LINE
  8
0
 10
-1.09344
 20
45.2232
 11
-1.21352
 21
45.3683
  0
LINE
  8
0
 10
-1.21352
 20
45.3683
 11
-1.31445
 21
45.5274
  0
LINE
  8
0
 10
-1.31445
 20
45.5274
 11
-1.39465
 21
45.6978
  0
LINE
  8
0
 10
-1.39465
 20
45.6978
 11
-1.45287
 21
45.877
  0
LINE
  8
0
 10
-1.45287
 20
45.877
 11
-1.48816
 21
46.062
  0
LINE
  8
0
 10
-1.48816
 20
46.062
 11
-1.5
 21
46.25
  0
LINE
  8
0
 10
-1.5
 20
46.25
 11
-1.48816
 21
46.438
  0
LINE
  8
0
 10
-1.48816
 20
46.438
 11
-1.45287
 21
46.623
  0
LINE
  8
0
 10
-1.45287
 20
46.623
 11
-1.39465
 21
46.8022
  0
LINE
  8
0
 10
-1.39465
 20
46.8022
 11
-1.31445
 21
46.9726
  0
LINE
  8
0
 10
-1.31445
 20
46.9726
 11
-1.21352
 21
47.1317
  0
LINE
  8
0
 10
-1.21352
 20
47.1317
 11
-1.09344
 21
47.2768
  0
LINE
  8
0
 10
-1.09344
 20
47.2768
 11
-0.956131
 21
47.4058
  0
LINE
  8
0
 10
-0.956131
 20
47.4058
 11
-0.803726
 21
47.5165
  0
LINE
  8
0
 10
-0.803726
 20
47.5165
 11
-0.638657
 21
47.6072
  0
LINE
  8
0
 10
-0.638657
 20
47.6072
 11
-0.463516
 21
47.6766
  0
LINE
  8
0
 10
-0.463516
 20
47.6766
 11
-0.281067
 21
47.7234
  0
LINE
  8
0
 10
-0.281067
 20
47.7234
 11
-0.0941772
 21
47.747
  0
LINE
  8
0
 10
-0.0941772
 20
47.747
 11
0.0941772
 21
47.747
  0
LINE
  8
0
 10
0.0941772
 20
47.747
 11
0.281067
 21
47.7234
  0
LINE
  8
0
 10
0.281067
 20
47.7234
 11
0.463516
 21
47.6766
  0
LINE
  8
0
 10
0.463516
 20
47.6766
 11
0.638657
 21
47.6072
  0
LINE
  8
0
 10
0.638657
 20
47.6072
 11
0.803726
 21
47.5165
  0
LINE
  8
0
 10
0.803726
 20
47.5165
 11
0.956131
 21
47.4058
  0
LINE
  8
0
 10
0.956131
 20
47.4058
 11
1.09344
 21
47.2768
  0
LINE
  8
0
 10
1.09344
 20
47.2768
 11
1.21352
 21
47.1317
  0
LINE
  8
0
 10
1.21352
 20
47.1317
 11
1.31445
 21
46.9726
  0
LINE
  8
0
 10
1.31445
 20
46.9726
 11
1.39465
 21
46.8022
  0
LINE
  8
0
 10
1.39465
 20
46.8022
 11
1.45287
 21
46.623
  0
LINE
  8
0
 10
1.45287
 20
46.623
 11
1.48816
 21
46.438
  0
LINE
  8
0
 10
1.48816
 20
46.438
 11
1.5
 21
46.25
  0
LINE
  8
0
 10
1.5
 20
46.25
 11
1.48816
 21
46.062
  0
LINE
  8
0
 10
1.48816
 20
46.062
 11
1.45287
 21
45.877
  0
LINE
  8
0
 10
1.45287
 20
45.877
 11
1.39465
 21
45.6978
  0
LINE
  8
0
 10
1.39465
 20
45.6978
 11
1.31445
 21
45.5274
  0
LINE
  8
0
 10
1.31445
 20
45.5274
 11
1.21352
 21
45.3683
  0
LINE
  8
0
 10
1.21352
 20
45.3683
 11
1.09344
 21
45.2232
  0
LINE
  8
0
 10
1.09344
 20
45.2232
 11
0.956131
 21
45.0942
  0
LINE
  8
0
 10
0.956131
 20
45.0942
 11
0.803726
 21
44.9835
  0
LINE
  8
0
 10
0.803726
 20
44.9835
 11
0.638657
 21
44.8927
  0
LINE
  8
0
 10
0.638657
 20
44.8927
 11
0.463516
 21
44.8234
  0
LINE
  8
0
 10
0.463516
 20
44.8234
 11
0.281067
 21
44.7766
  0
LINE
  8
0
 10
0.281067
 20
44.7766
 11
0.0941772
 21
44.7529
  0
LINE
  8
0
 10
0.0941772
 20
44.7529
 11
-0.0941772
 21
44.7529
  0
LINE
  8
0
 10
-0.0941772
 20
37.2529
 11
-0.281067
 21
37.2766
  0
LINE
  8
0
 10
-0.281067
 20
37.2766
 11
-0.463516
 21
37.3234
  0
LINE
  8
0
 10
-0.463516
 20
37.3234
 11
-0.638657
 21
37.3927
  0
LINE
  8
0
 10
-0.638657
 20
37.3927
 11
-0.803726
 21
37.4835
  0
LINE
  8
0
 10
-0.803726
 20
37.4835
 11
-0.956131
 21
37.5942
  0
LINE
  8
0
 10
-0.956131
 20
37.5942
 11
-1.09344
 21
37.7232
  0
LINE
  8
0
 10
-1.09344
 20
37.7232
 11
-1.21352
 21
37.8683
  0
LINE
  8
0
 10
-1.21352
 20
37.8683
 11
-1.31445
 21
38.0274
  0
LINE
  8
0
 10
-1.31445
 20
38.0274
 11
-1.39465
 21
38.1978
  0
LINE
  8
0
 10
-1.39465
 20
38.1978
 11
-1.45287
 21
38.377
  0
LINE
  8
0
 10
-1.45287
 20
38.377
 11
-1.48816
 21
38.562
  0
LINE
  8
0
 10
-1.48816
 20
38.562
 11
-1.5
 21
38.75
  0
LINE
  8
0
 10
-1.5
 20
38.75
 11
-1.48816
 21
38.938
  0
LINE
  8
0
 10
-1.48816
 20
38.938
 11
-1.45287
 21
39.123
  0
LINE
  8
0
 10
-1.45287
 20
39.123
 11
-1.39465
 21
39.3022
  0
LINE
  8
0
 10
-1.39465
 20
39.3022
 11
-1.31445
 21
39.4726
  0
LINE
  8
0
 10
-1.31445
 20
39.4726
 11
-1.21352
 21
39.6317
  0
LINE
  8
0
 10
-1.21352
 20
39.6317
 11
-1.09344
 21
39.7768
  0
LINE
  8
0
 10
-1.09344
 20
39.7768
 11
-0.956131
 21
39.9058
  0
LINE
  8
0
 10
-0.956131
 20
39.9058
 11
-0.803726
 21
40.0165
  0
LINE
  8
0
 10
-0.803726
 20
40.0165
 11
-0.638657
 21
40.1072
  0
LINE
  8
0
 10
-0.638657
 20
40.1072
 11
-0.463516
 21
40.1766
  0
LINE
  8
0
 10
-0.463516
 20
40.1766
 11
-0.281067
 21
40.2234
  0
LINE
  8
0
 10
-0.281067
 20
40.2234
 11
-0.0941772
 21
40.247
  0
LINE
  8
0
 10
-0.0941772
 20
40.247
 11
0.0941772
 21
40.247
  0
LINE
  8
0
 10
0.0941772
 20
40.247
 11
0.281067
 21
40.2234
  0
LINE
  8
0
 10
0.281067
 20
40.2234
 11
0.463516
 21
40.1766
  0
LINE
  8
0
 10
0.463516
 20
40.1766
 11
0.638657
 21
40.1072
  0
LINE
  8
0
 10
0.638657
 20
40.1072
 11
0.803726
 21
40.0165
  0
LINE
  8
0
 10
0.803726
 20
40.0165
 11
0.956131
 21
39.9058
  0
LINE
  8
0
 10
0.956131
 20
39.9058
 11
1.09344
 21
39.7768
  0
LINE
  8
0
 10
1.09344
 20
39.7768
 11
1.21352
 21
39.6317
  0
LINE
  8
0
 10
1.21352
 20
39.6317
 11
1.31445
 21
39.4726
  0
LINE
  8
0
 10
1.31445
 20
39.4726
 11
1.39465
 21
39.3022
  0
LINE
  8
0
 10
1.39465
 20
39.3022
 11
1.45287
 21
39.123
  0
LINE
  8
0
 10
1.45287
 20
39.123
 11
1.48816
 21
38.938
  0
LINE
  8
0
 10
1.48816
 20
38.938
 11
1.5
 21
38.75
  0
LINE
  8
0
 10
1.5
 20
38.75
 11
1.48816
 21
38.562
  0
LINE
  8
0
 10
1.48816
 20
38.562
 11
1.45287
 21
38.377
  0
LINE
  8
0
 10
1.45287
 20
38.377
 11
1.39465
 21
38.1978
  0
LINE
  8
0
 10
1.39465
 20
38.1978
 11
1.31445
 21
38.0274
  0
LINE
  8
0
 10
1.31445
 20
38.0274
 11
1.21352
 21
37.8683
  0
LINE
  8
0
 10
1.21352
 20
37.8683
 11
1.09344
 21
37.7232
  0
LINE
  8
0
 10
1.09344
 20
37.7232
 11
0.956131
 21
37.5942
  0
LINE
  8
0
 10
0.956131
 20
37.5942
 11
0.803726
 21
37.4835
  0
LINE
  8
0
 10
0.803726
 20
37.4835
 11
0.638657
 21
37.3927
  0
LINE
  8
0
 10
0.638657
 20
37.3927
 11
0.463516
 21
37.3234
  0
LINE
  8
0
 10
0.463516
 20
37.3234
 11
0.281067
 21
37.2766
  0
LINE
  8
0
 10
0.281067
 20
37.2766
 11
0.0941772
 21
37.2529
  0
LINE
  8
0
 10
0.0941772
 20
37.2529
 11
-0.0941772
 21
37.2529
  0
LINE
  8
0
 10
-7.59418
 20
37.2529
 11
-7.78107
 21
37.2766
  0
LINE
  8
0
 10
-7.78107
 20
37.2766
 11
-7.96352
 21
37.3234
  0
LINE
  8
0
 10
-7.96352
 20
37.3234
 11
-8.13866
 21
37.3927
  0
LINE
  8
0
 10
-8.13866
 20
37.3927
 11
-8.30373
 21
37.4835
  0
LINE
  8
0
 10
-8.30373
 20
37.4835
 11
-8.45613
 21
37.5942
  0
LINE
  8
0
 10
-8.45613
 20
37.5942
 11
-8.59344
 21
37.7232
  0
LINE
  8
0
 10
-8.59344
 20
37.7232
 11
-8.71352
 21
37.8683
  0
LINE
  8
0
 10
-8.71352
 20
37.8683
 11
-8.81445
 21
38.0274
  0
LINE
  8
0
 10
-8.81445
 20
38.0274
 11
-8.89465
 21
38.1978
  0
LINE
  8
0
 10
-8.89465
 20
38.1978
 11
-8.95287
 21
38.377
  0
LINE
  8
0
 10
-8.95287
 20
38.377
 11
-8.98816
 21
38.562
  0
LINE
  8
0
 10
-8.98816
 20
38.562
 11
-9
 21
38.75
  0
LINE
  8
0
 10
-9
 20
38.75
 11
-8.98816
 21
38.938
  0
LINE
  8
0
 10
-8.98816
 20
38.938
 11
-8.95287
 21
39.123
  0
LINE
  8
0
 10
-8.95287
 20
39.123
 11
-8.89465
 21
39.3022
  0
LINE
  8
0
 10
-8.89465
 20
39.3022
 11
-8.81445
 21
39.4726
  0
LINE
  8
0
 10
-8.81445
 20
39.4726
 11
-8.71352
 21
39.6317
  0
LINE
  8
0
 10
-8.71352
 20
39.6317
 11
-8.59344
 21
39.7768
  0
LINE
  8
0
 10
-8.59344
 20
39.7768
 11
-8.45613
 21
39.9058
  0
LINE
  8
0
 10
-8.45613
 20
39.9058
 11
-8.30373
 21
40.0165
  0
LINE
  8
0
 10
-8.30373
 20
40.0165
 11
-8.13866
 21
40.1072
  0
LINE
  8
0
 10
-8.13866
 20
40.1072
 11
-7.96352
 21
40.1766
  0
LINE
  8
0
 10
-7.96352
 20
40.1766
 11
-7.78107
 21
40.2234
  0
LINE
  8
0
 10
-7.78107
 20
40.2234
 11
-7.59418
 21
40.247
  0
LINE
  8
0
 10
-7.59418
 20
40.247
 11
-7.40581
 21
40.247
  0
LINE
  8
0
 10
-7.40581
 20
40.247
 11
-7.21892
 21
40.2234
  0
LINE
  8
0
 10
-7.21892
 20
40.2234
 11
-7.03647
 21
40.1766
  0
LINE
  8
0
 10
-7.03647
 20
40.1766
 11
-6.86133
 21
40.1072
  0
LINE
  8
0
 10
-6.86133
 20
40.1072
 11
-6.69626
 21
40.0165
  0
LINE
  8
0
 10
-6.69626
 20
40.0165
 11
-6.54385
 21
39.9058
  0
LINE
  8
0
 10
-6.54385
 20
39.9058
 11
-6.40654
 21
39.7768
  0
LINE
  8
0
 10
-6.40654
 20
39.7768
 11
-6.28647
 21
39.6317
  0
LINE
  8
0
 10
-6.28647
 20
39.6317
 11
-6.18553
 21
39.4726
  0
LINE
  8
0
 10
-6.18553
 20
39.4726
 11
-6.10533
 21
39.3022
  0
LINE
  8
0
 10
-6.10533
 20
39.3022
 11
-6.04712
 21
39.123
  0
LINE
  8
0
 10
-6.04712
 20
39.123
 11
-6.01183
 21
38.938
  0
LINE
  8
0
 10
-6.01183
 20
38.938
 11
-6
 21
38.75
  0
LINE
  8
0
 10
-6
 20
38.75
 11
-6.01183
 21
38.562
  0
LINE
  8
0
 10
-6.01183
 20
38.562
 11
-6.04712
 21
38.377
  0
LINE
  8
0
 10
-6.04712
 20
38.377
 11
-6.10533
 21
38.1978
  0
LINE
  8
0
 10
-6.10533
 20
38.1978
 11
-6.18553
 21
38.0274
  0
LINE
  8
0
 10
-6.18553
 20
38.0274
 11
-6.28647
 21
37.8683
  0
LINE
  8
0
 10
-6.28647
 20
37.8683
 11
-6.40654
 21
37.7232
  0
LINE
  8
0
 10
-6.40654
 20
37.7232
 11
-6.54385
 21
37.5942
  0
LINE
  8
0
 10
-6.54385
 20
37.5942
 11
-6.69626
 21
37.4835
  0
LINE
  8
0
 10
-6.69626
 20
37.4835
 11
-6.86133
 21
37.3927
  0
LINE
  8
0
 10
-6.86133
 20
37.3927
 11
-7.03647
 21
37.3234
  0
LINE
  8
0
 10
-7.03647
 20
37.3234
 11
-7.21892
 21
37.2766
  0
LINE
  8
0
 10
-7.21892
 20
37.2766
 11
-7.40581
 21
37.2529
  0
LINE
  8
0
 10
-7.40581
 20
37.2529
 11
-7.59418
 21
37.2529
  0
LINE
  8
0
 10
7.40581
 20
37.2529
 11
7.21892
 21
37.2766
  0
LINE
  8
0
 10
7.21892
 20
37.2766
 11
7.03647
 21
37.3234
  0
LINE
  8
0
 10
7.03647
 20
37.3234
 11
6.86133
 21
37.3927
  0
LINE
  8
0
 10
6.86133
 20
37.3927
 11
6.69626
 21
37.4835
  0
LINE
  8
0
 10
6.69626
 20
37.4835
 11
6.54385
 21
37.5942
  0
LINE
  8
0
 10
6.54385
 20
37.5942
 11
6.40654
 21
37.7232
  0
LINE
  8
0
 10
6.40654
 20
37.7232
 11
6.28647
 21
37.8683
  0
LINE
  8
0
 10
6.28647
 20
37.8683
 11
6.18553
 21
38.0274
  0
LINE
  8
0
 10
6.18553
 20
38.0274
 11
6.10533
 21
38.1978
  0
LINE
  8
0
 10
6.10533
 20
38.1978
 11
6.04712
 21
38.377
  0
LINE
  8
0
 10
6.04712
 20
38.377
 11
6.01183
 21
38.562
  0
LINE
  8
0
 10
6.01183
 20
38.562
 11
6
 21
38.75
  0
LINE
  8
0
 10
6
 20
38.75
 11
6.01183
 21
38.938
  0
LINE
  8
0
 10
6.01183
 20
38.938
 11
6.04712
 21
39.123
  0
LINE
  8
0
 10
6.04712
 20
39.123
 11
6.10533
 21
39.3022
  0
LINE
  8
0
 10
6.10533
 20
39.3022
 11
6.18553
 21
39.4726
  0
LINE
  8
0
 10
6.18553
 20
39.4726
 11
6.28647
 21
39.6317
  0
LINE
  8
0
 10
6.28647
 20
39.6317
 11
6.40654
 21
39.7768
  0
LINE
  8
0
 10
6.40654
 20
39.7768
 11
6.54385
 21
39.9058
  0
LINE
  8
0
 10
6.54385
 20
39.9058
 11
6.69626
 21
40.0165
  0
LINE
  8
0
 10
6.69626
 20
40.0165
 11
6.86133
 21
40.1072
  0
LINE
  8
0
 10
6.86133
 20
40.1072
 11
7.03647
 21
40.1766
  0
LINE
  8
0
 10
7.03647
 20
40.1766
 11
7.21892
 21
40.2234
  0
LINE
  8
0
 10
7.21892
 20
40.2234
 11
7.40581
 21
40.247
  0
LINE
  8
0
 10
7.40581
 20
40.247
 11
7.59418
 21
40.247
  0
LINE
  8
0
 10
7.59418
 20
40.247
 11
7.78107
 21
40.2234
  0
LINE
  8
0
 10
7.78107
 20
40.2234
 11
7.96352
 21
40.1766
  0
LINE
  8
0
 10
7.96352
 20
40.1766
 11
8.13866
 21
40.1072
  0
LINE
  8
0
 10
8.13866
 20
40.1072
 11
8.30373
 21
40.0165
  0
LINE
  8
0
 10
8.30373
 20
40.0165
 11
8.45613
 21
39.9058
  0
LINE
  8
0
 10
8.45613
 20
39.9058
 11
8.59344
 21
39.7768
  0
LINE
  8
0
 10
8.59344
 20
39.7768
 11
8.71352
 21
39.6317
  0
LINE
  8
0
 10
8.71352
 20
39.6317
 11
8.81445
 21
39.4726
  0
LINE
  8
0
 10
8.81445
 20
39.4726
 11
8.89465
 21
39.3022
  0
LINE
  8
0
 10
8.89465
 20
39.3022
 11
8.95287
 21
39.123
  0
LINE
  8
0
 10
8.95287
 20
39.123
 11
8.98816
 21
38.938
  0
LINE
  8
0
 10
8.98816
 20
38.938
 11
9
 21
38.75
  0
LINE
  8
0
 10
9
 20
38.75
 11
8.98816
 21
38.562
  0
LINE
  8
0
 10
8.98816
 20
38.562
 11
8.95287
 21
38.377
  0
LINE
  8
0
 10
8.95287
 20
38.377
 11
8.89465
 21
38.1978
  0
LINE
  8
0
 10
8.89465
 20
38.1978
 11
8.81445
 21
38.0274
  0
LINE
  8
0
 10
8.81445
 20
38.0274
 11
8.71352
 21
37.8683
  0
LINE
  8
0
 10
8.71352
 20
37.8683
 11
8.59344
 21
37.7232
  0
LINE
  8
0
 10
8.59344
 20
37.7232
 11
8.45613
 21
37.5942
  0
LINE
  8
0
 10
8.45613
 20
37.5942
 11
8.30373
 21
37.4835
  0
LINE
  8
0
 10
8.30373
 20
37.4835
 11
8.13866
 21
37.3927
  0
LINE
  8
0
 10
8.13866
 20
37.3927
 11
7.96352
 21
37.3234
  0
LINE
  8
0
 10
7.96352
 20
37.3234
 11
7.78107
 21
37.2766
  0
LINE
  8
0
 10
7.78107
 20
37.2766
 11
7.59418
 21
37.2529
  0
LINE
  8
0
 10
7.59418
 20
37.2529
 11
7.40581
 21
37.2529
  0
LINE
  8
0
 10
-3.80023
 20
37.9516
 11
-3.8999
 21
37.9642
  0
LINE
  8
0
 10
-3.8999
 20
37.9642
 11
-3.99721
 21
37.9892
  0
LINE
  8
0
 10
-3.99721
 20
37.9892
 11
-4.09062
 21
38.0261
  0
LINE
  8
0
 10
-4.09062
 20
38.0261
 11
-4.17865
 21
38.0745
  0
LINE
  8
0
 10
-4.17865
 20
38.0745
 11
-4.25993
 21
38.1336
  0
LINE
  8
0
 10
-4.25993
 20
38.1336
 11
-4.33316
 21
38.2024
  0
LINE
  8
0
 10
-4.33316
 20
38.2024
 11
-4.3972
 21
38.2798
  0
LINE
  8
0
 10
-4.3972
 20
38.2798
 11
-4.45103
 21
38.3646
  0
LINE
  8
0
 10
-4.45103
 20
38.3646
 11
-4.49382
 21
38.4555
  0
LINE
  8
0
 10
-4.49382
 20
38.4555
 11
-4.52486
 21
38.551
  0
LINE
  8
0
 10
-4.52486
 20
38.551
 11
-4.54369
 21
38.6497
  0
LINE
  8
0
 10
-4.54369
 20
38.6497
 11
-4.54999
 21
38.75
  0
LINE
  8
0
 10
-4.54999
 20
38.75
 11
-4.54369
 21
38.8503
  0
LINE
  8
0
 10
-4.54369
 20
38.8503
 11
-4.52486
 21
38.9489
  0
LINE
  8
0
 10
-4.52486
 20
38.9489
 11
-4.49382
 21
39.0445
  0
LINE
  8
0
 10
-4.49382
 20
39.0445
 11
-4.45103
 21
39.1354
  0
LINE
  8
0
 10
-4.45103
 20
39.1354
 11
-4.3972
 21
39.2202
  0
LINE
  8
0
 10
-4.3972
 20
39.2202
 11
-4.33316
 21
39.2976
  0
LINE
  8
0
 10
-4.33316
 20
39.2976
 11
-4.25993
 21
39.3664
  0
LINE
  8
0
 10
-4.25993
 20
39.3664
 11
-4.17865
 21
39.4255
  0
LINE
  8
0
 10
-4.17865
 20
39.4255
 11
-4.09062
 21
39.4738
  0
LINE
  8
0
 10
-4.09062
 20
39.4738
 11
-3.99721
 21
39.5108
  0
LINE
  8
0
 10
-3.99721
 20
39.5108
 11
-3.8999
 21
39.5358
  0
LINE
  8
0
 10
-3.8999
 20
39.5358
 11
-3.80023
 21
39.5484
  0
LINE
  8
0
 10
-3.80023
 20
39.5484
 11
-3.69975
 21
39.5484
  0
LINE
  8
0
 10
-3.69975
 20
39.5484
 11
-3.60008
 21
39.5358
  0
LINE
  8
0
 10
-3.60008
 20
39.5358
 11
-3.50278
 21
39.5108
  0
LINE
  8
0
 10
-3.50278
 20
39.5108
 11
-3.40936
 21
39.4738
  0
LINE
  8
0
 10
-3.40936
 20
39.4738
 11
-3.32133
 21
39.4255
  0
LINE
  8
0
 10
-3.32133
 20
39.4255
 11
-3.24005
 21
39.3664
  0
LINE
  8
0
 10
-3.24005
 20
39.3664
 11
-3.16682
 21
39.2976
  0
LINE
  8
0
 10
-3.16682
 20
39.2976
 11
-3.10278
 21
39.2202
  0
LINE
  8
0
 10
-3.10278
 20
39.2202
 11
-3.04895
 21
39.1354
  0
LINE
  8
0
 10
-3.04895
 20
39.1354
 11
-3.00616
 21
39.0445
  0
LINE
  8
0
 10
-3.00616
 20
39.0445
 11
-2.97513
 21
38.9489
  0
LINE
  8
0
 10
-2.97513
 20
38.9489
 11
-2.9563
 21
38.8503
  0
LINE
  8
0
 10
-2.9563
 20
38.8503
 11
-2.95
 21
38.75
  0
LINE
  8
0
 10
-2.95
 20
38.75
 11
-2.9563
 21
38.6497
  0
LINE
  8
0
 10
-2.9563
 20
38.6497
 11
-2.97513
 21
38.551
  0
LINE
  8
0
 10
-2.97513
 20
38.551
 11
-3.00616
 21
38.4555
  0
LINE
  8
0
 10
-3.00616
 20
38.4555
 11
-3.04895
 21
38.3646
  0
LINE
  8
0
 10
-3.04895
 20
38.3646
 11
-3.10278
 21
38.2798
  0
LINE
  8
0
 10
-3.10278
 20
38.2798
 11
-3.16682
 21
38.2024
  0
LINE
  8
0
 10
-3.16682
 20
38.2024
 11
-3.24005
 21
38.1336
  0
LINE
  8
0
 10
-3.24005
 20
38.1336
 11
-3.32133
 21
38.0745
  0
LINE
  8
0
 10
-3.32133
 20
38.0745
 11
-3.40936
 21
38.0261
  0
LINE
  8
0
 10
-3.40936
 20
38.0261
 11
-3.50278
 21
37.9892
  0
LINE
  8
0
 10
-3.50278
 20
37.9892
 11
-3.60008
 21
37.9642
  0
LINE
  8
0
 10
-3.60008
 20
37.9642
 11
-3.69975
 21
37.9516
  0
LINE
  8
0
 10
-3.69975
 20
37.9516
 11
-3.80023
 21
37.9516
  0
LINE
  8
0
 10
3.69975
 20
37.9516
 11
3.60008
 21
37.9642
  0
LINE
  8
0
 10
3.60008
 20
37.9642
 11
3.50278
 21
37.9892
  0
LINE
  8
0
 10
3.50278
 20
37.9892
 11
3.40936
 21
38.0261
  0
LINE
  8
0
 10
3.40936
 20
38.0261
 11
3.32133
 21
38.0745
  0
LINE
  8
0
 10
3.32133
 20
38.0745
 11
3.24005
 21
38.1336
  0
LINE
  8
0
 10
3.24005
 20
38.1336
 11
3.16682
 21
38.2024
  0
LINE
  8
0
 10
3.16682
 20
38.2024
 11
3.10278
 21
38.2798
  0
LINE
  8
0
 10
3.10278
 20
38.2798
 11
3.04895
 21
38.3646
  0
LINE
  8
0
 10
3.04895
 20
38.3646
 11
3.00616
 21
38.4555
  0
LINE
  8
0
 10
3.00616
 20
38.4555
 11
2.97513
 21
38.551
  0
LINE
  8
0
 10
2.97513
 20
38.551
 11
2.9563
 21
38.6497
  0
LINE
  8
0
 10
2.9563
 20
38.6497
 11
2.95
 21
38.75
  0
LINE
  8
0
 10
2.95
 20
38.75
 11
2.9563
 21
38.8503
  0
LINE
  8
0
 10
2.9563
 20
38.8503
 11
2.97513
 21
38.9489
  0
LINE
  8
0
 10
2.97513
 20
38.9489
 11
3.00616
 21
39.0445
  0
LINE
  8
0
 10
3.00616
 20
39.0445
 11
3.04895
 21
39.1354
  0
LINE
  8
0
 10
3.04895
 20
39.1354
 11
3.10278
 21
39.2202
  0
LINE
  8
0
 10
3.10278
 20
39.2202
 11
3.16682
 21
39.2976
  0
LINE
  8
0
 10
3.16682
 20
39.2976
 11
3.24005
 21
39.3664
  0
LINE
  8
0
 10
3.24005
 20
39.3664
 11
3.32133
 21
39.4255
  0
LINE
  8
0
 10
3.32133
 20
39.4255
 11
3.40936
 21
39.4738
  0
LINE
  8
0
 10
3.40936
 20
39.4738
 11
3.50278
 21
39.5108
  0
LINE
  8
0
 10
3.50278
 20
39.5108
 11
3.60008
 21
39.5358
  0
LINE
  8
0
 10
3.60008
 20
39.5358
 11
3.69975
 21
39.5484
  0
LINE
  8
0
 10
3.69975
 20
39.5484
 11
3.80023
 21
39.5484
  0
LINE
  8
0
 10
3.80023
 20
39.5484
 11
3.8999
 21
39.5358
  0
LINE
  8
0
 10
3.8999
 20
39.5358
 11
3.99721
 21
39.5108
  0
LINE
  8
0
 10
3.99721
 20
39.5108
 11
4.09062
 21
39.4738
  0
LINE
  8
0
 10
4.09062
 20
39.4738
 11
4.17865
 21
39.4255
  0
LINE
  8
0
 10
4.17865
 20
39.4255
 11
4.25993
 21
39.3664
  0
LINE
  8
0
 10
4.25993
 20
39.3664
 11
4.33316
 21
39.2976
  0
LINE
  8
0
 10
4.33316
 20
39.2976
 11
4.3972
 21
39.2202
  0
LINE
  8
0
 10
4.3972
 20
39.2202
 11
4.45103
 21
39.1354
  0
LINE
  8
0
 10
4.45103
 20
39.1354
 11
4.49382
 21
39.0445
  0
LINE
  8
0
 10
4.49382
 20
39.0445
 11
4.52486
 21
38.9489
  0
LINE
  8
0
 10
4.52486
 20
38.9489
 11
4.54369
 21
38.8503
  0
LINE
  8
0
 10
4.54369
 20
38.8503
 11
4.54999
 21
38.75
  0
LINE
  8
0
 10
4.54999
 20
38.75
 11
4.54369
 21
38.6497
  0
LINE
  8
0
 10
4.54369
 20
38.6497
 11
4.52486
 21
38.551
  0
LINE
  8
0
 10
4.52486
 20
38.551
 11
4.49382
 21
38.4555
  0
LINE
  8
0
 10
4.49382
 20
38.4555
 11
4.45103
 21
38.3646
  0
LINE
  8
0
 10
4.45103
 20
38.3646
 11
4.3972
 21
38.2798
  0
LINE
  8
0
 10
4.3972
 20
38.2798
 11
4.33316
 21
38.2024
  0
LINE
  8
0
 10
4.33316
 20
38.2024
 11
4.25993
 21
38.1336
  0
LINE
  8
0
 10
4.25993
 20
38.1336
 11
4.17865
 21
38.0745
  0
LINE
  8
0
 10
4.17865
 20
38.0745
 11
4.09062
 21
38.0261
  0
LINE
  8
0
 10
4.09062
 20
38.0261
 11
3.99721
 21
37.9892
  0
LINE
  8
0
 10
3.99721
 20
37.9892
 11
3.8999
 21
37.9642
  0
LINE
  8
0
 10
3.8999
 20
37.9642
 11
3.80023
 21
37.9516
  0
LINE
  8
0
 10
3.80023
 20
37.9516
 11
3.69975
 21
37.9516
  0
LINE
  8
0
 10
-10.2254
 20
33.5
 11
-10.2254
 21
36
  0
LINE
  8
0
 10
-10.2254
 20
36
 11
-4.77463
 21
36
  0
LINE
  8
0
 10
-4.77463
 20
36
 11
-4.77463
 21
33.5
  0
LINE
  8
0
 10
-4.77463
 20
33.5
 11
-10.2254
 21
33.5
  0
LINE
  8
0
 10
-2.72536
 20
33.5
 11
-2.72536
 21
36
  0
LINE
  8
0
 10
-2.72536
 20
36
 11
2.72536
 21
36
  0
LINE
  8
0
 10
2.72536
 20
36
 11
2.72536
 21
33.5
  0
LINE
  8
0
 10
2.72536
 20
33.5
 11
-2.72536
 21
33.5
  0
LINE
  8
0
 10
4.77463
 20
33.5
 11
4.77463
 21
36
  0
LINE
  8
0
 10
4.77463
 20
36
 11
10.2254
 21
36
  0
LINE
  8
0
 10
10.2254
 20
36
 11
10.2254
 21
33.5
  0
LINE
  8
0
 10
10.2254
 20
33.5
 11
4.77463
 21
33.5
  0
LINE
  8
0
 10
11
 20
22.75
 11
10.9803
 21
23.0633
  0
LINE
  8
0
 10
10.9803
 20
23.0633
 11
10.9214
 21
23.3717
  0
LINE
  8
0
 10
10.9214
 20
23.3717
 11
10.8244
 21
23.6703
  0
LINE
  8
0
 10
10.8244
 20
23.6703
 11
10.6908
 21
23.9544
  0
LINE
  8
0
 10
10.6908
 20
23.9544
 11
10.5225
 21
24.2195
  0
LINE
  8
0
 10
10.5225
 20
24.2195
 11
10.3224
 21
24.4614
  0
LINE
  8
0
 10
10.3224
 20
24.4614
 11
10.0936
 21
24.6763
  0
LINE
  8
0
 10
10.0936
 20
24.6763
 11
9.83955
 21
24.8608
  0
LINE
  8
0
 10
9.83955
 20
24.8608
 11
9.56444
 21
25.0121
  0
LINE
  8
0
 10
9.56444
 20
25.0121
 11
9.27254
 21
25.1276
  0
LINE
  8
0
 10
9.27254
 20
25.1276
 11
8.96844
 21
25.2057
  0
LINE
  8
0
 10
8.96844
 20
25.2057
 11
8.65697
 21
25.2451
  0
LINE
  8
0
 10
8.65697
 20
25.2451
 11
-8.65697
 21
25.2451
  0
LINE
  8
0
 10
-8.65697
 20
25.2451
 11
-8.96844
 21
25.2057
  0
LINE
  8
0
 10
-8.96844
 20
25.2057
 11
-9.27254
 21
25.1276
  0
LINE
  8
0
 10
-9.27254
 20
25.1276
 11
-9.56444
 21
25.0121
  0
LINE
  8
0
 10
-9.56444
 20
25.0121
 11
-9.83955
 21
24.8608
  0
LINE
  8
0
 10
-9.83955
 20
24.8608
 11
-10.0936
 21
24.6763
  0
LINE
  8
0
 10
-10.0936
 20
24.6763
 11
-10.3224
 21
24.4614
  0
LINE
  8
0
 10
-10.3224
 20
24.4614
 11
-10.5225
 21
24.2195
  0
LINE
  8
0
 10
-10.5225
 20
24.2195
 11
-10.6908
 21
23.9544
  0
LINE
  8
0
 10
-10.6908
 20
23.9544
 11
-10.8244
 21
23.6703
  0
LINE
  8
0
 10
-10.8244
 20
23.6703
 11
-10.9214
 21
23.3717
  0
LINE
  8
0
 10
-10.9214
 20
23.3717
 11
-10.9803
 21
23.0633
  0
LINE
  8
0
 10
-10.9803
 20
23.0633
 11
-11
 21
22.75
  0
LINE
  8
0
 10
-11
 20
22.75
 11
-11
 21
0
  0
LINE
  8
0
 10
-11
 20
0
 11
11
 21
0
  0
LINE
  8
0
 10
11
 20
0
 11
11
 21
22.75
  0
LINE
  8
0
 10
-7.59418
 20
20.253
 11
-7.78107
 21
20.2766
  0
LINE
  8
0
 10
-7.78107
 20
20.2766
 11
-7.96352
 21
20.3234
  0
LINE
  8
0
 10
-7.96352
 20
20.3234
 11
-8.13866
 21
20.3927
  0
LINE
  8
0
 10
-8.13866
 20
20.3927
 11
-8.30373
 21
20.4835
  0
LINE
  8
0
 10
-8.30373
 20
20.4835
 11
-8.45613
 21
20.5942
  0
LINE
  8
0
 10
-8.45613
 20
20.5942
 11
-8.59344
 21
20.7232
  0
LINE
  8
0
 10
-8.59344
 20
20.7232
 11
-8.71352
 21
20.8683
  0
LINE
  8
0
 10
-8.71352
 20
20.8683
 11
-8.81445
 21
21.0274
  0
LINE
  8
0
 10
-8.81445
 20
21.0274
 11
-8.89465
 21
21.1978
  0
LINE
  8
0
 10
-8.89465
 20
21.1978
 11
-8.95287
 21
21.377
  0
LINE
  8
0
 10
-8.95287
 20
21.377
 11
-8.98816
 21
21.562
  0
LINE
  8
0
 10
-8.98816
 20
21.562
 11
-9
 21
21.75
  0
LINE
  8
0
 10
-9
 20
21.75
 11
-8.98816
 21
21.938
  0
LINE
  8
0
 10
-8.98816
 20
21.938
 11
-8.95287
 21
22.123
  0
LINE
  8
0
 10
-8.95287
 20
22.123
 11
-8.89465
 21
22.3022
  0
LINE
  8
0
 10
-8.89465
 20
22.3022
 11
-8.81445
 21
22.4726
  0
LINE
  8
0
 10
-8.81445
 20
22.4726
 11
-8.71352
 21
22.6317
  0
LINE
  8
0
 10
-8.71352
 20
22.6317
 11
-8.59344
 21
22.7768
  0
LINE
  8
0
 10
-8.59344
 20
22.7768
 11
-8.45613
 21
22.9058
  0
LINE
  8
0
 10
-8.45613
 20
22.9058
 11
-8.30373
 21
23.0165
  0
LINE
  8
0
 10
-8.30373
 20
23.0165
 11
-8.13866
 21
23.1072
  0
LINE
  8
0
 10
-8.13866
 20
23.1072
 11
-7.96352
 21
23.1766
  0
LINE
  8
0
 10
-7.96352
 20
23.1766
 11
-7.78107
 21
23.2234
  0
LINE
  8
0
 10
-7.78107
 20
23.2234
 11
-7.59418
 21
23.247
  0
LINE
  8
0
 10
-7.59418
 20
23.247
 11
-7.40581
 21
23.247
  0
LINE
  8
0
 10
-7.40581
 20
23.247
 11
-7.21892
 21
23.2234
  0
LINE
  8
0
 10
-7.21892
 20
23.2234
 11
-7.03647
 21
23.1766
  0
LINE
  8
0
 10
-7.03647
 20
23.1766
 11
-6.86133
 21
23.1072
  0
LINE
  8
0
 10
-6.86133
 20
23.1072
 11
-6.69626
 21
23.0165
  0
LINE
  8
0
 10
-6.69626
 20
23.0165
 11
-6.54385
 21
22.9058
  0
LINE
  8
0
 10
-6.54385
 20
22.9058
 11
-6.40654
 21
22.7768
  0
LINE
  8
0
 10
-6.40654
 20
22.7768
 11
-6.28647
 21
22.6317
  0
LINE
  8
0
 10
-6.28647
 20
22.6317
 11
-6.18553
 21
22.4726
  0
LINE
  8
0
 10
-6.18553
 20
22.4726
 11
-6.10533
 21
22.3022
  0
LINE
  8
0
 10
-6.10533
 20
22.3022
 11
-6.04712
 21
22.123
  0
LINE
  8
0
 10
-6.04712
 20
22.123
 11
-6.01183
 21
21.938
  0
LINE
  8
0
 10
-6.01183
 20
21.938
 11
-6
 21
21.75
  0
LINE
  8
0
 10
-6
 20
21.75
 11
-6.01183
 21
21.562
  0
LINE
  8
0
 10
-6.01183
 20
21.562
 11
-6.04712
 21
21.377
  0
LINE
  8
0
 10
-6.04712
 20
21.377
 11
-6.10533
 21
21.1978
  0
LINE
  8
0
 10
-6.10533
 20
21.1978
 11
-6.18553
 21
21.0274
  0
LINE
  8
0
 10
-6.18553
 20
21.0274
 11
-6.28647
 21
20.8683
  0
LINE
  8
0
 10
-6.28647
 20
20.8683
 11
-6.40654
 21
20.7232
  0
LINE
  8
0
 10
-6.40654
 20
20.7232
 11
-6.54385
 21
20.5942
  0
LINE
  8
0
 10
-6.54385
 20
20.5942
 11
-6.69626
 21
20.4835
  0
LINE
  8
0
 10
-6.69626
 20
20.4835
 11
-6.86133
 21
20.3927
  0
LINE
  8
0
 10
-6.86133
 20
20.3927
 11
-7.03647
 21
20.3234
  0
LINE
  8
0
 10
-7.03647
 20
20.3234
 11
-7.21892
 21
20.2766
  0
LINE
  8
0
 10
-7.21892
 20
20.2766
 11
-7.40581
 21
20.253
  0
LINE
  8
0
 10
-7.40581
 20
20.253
 11
-7.59418
 21
20.253
  0
LINE
  8
0
 10
7.40581
 20
20.253
 11
7.21892
 21
20.2766
  0
LINE
  8
0
 10
7.21892
 20
20.2766
 11
7.03647
 21
20.3234
  0
LINE
  8
0
 10
7.03647
 20
20.3234
 11
6.86133
 21
20.3927
  0
LINE
  8
0
 10
6.86133
 20
20.3927
 11
6.69626
 21
20.4835
  0
LINE
  8
0
 10
6.69626
 20
20.4835
 11
6.54385
 21
20.5942
  0
LINE
  8
0
 10
6.54385
 20
20.5942
 11
6.40654
 21
20.7232
  0
LINE
  8
0
 10
6.40654
 20
20.7232
 11
6.28647
 21
20.8683
  0
LINE
  8
0
 10
6.28647
 20
20.8683
 11
6.18553
 21
21.0274
  0
LINE
  8
0
 10
6.18553
 20
21.0274
 11
6.10533
 21
21.1978
  0
LINE
  8
0
 10
6.10533
 20
21.1978
 11
6.04712
 21
21.377
  0
LINE
  8
0
 10
6.04712
 20
21.377
 11
6.01183
 21
21.562
  0
LINE
  8
0
 10
6.01183
 20
21.562
 11
6
 21
21.75
  0
LINE
  8
0
 10
6
 20
21.75
 11
6.01183
 21
21.938
  0
LINE
  8
0
 10
6.01183
 20
21.938
 11
6.04712
 21
22.123
  0
LINE
  8
0
 10
6.04712
 20
22.123
 11
6.10533
 21
22.3022
  0
LINE
  8
0
 10
6.10533
 20
22.3022
 11
6.18553
 21
22.4726
  0
LINE
  8
0
 10
6.18553
 20
22.4726
 11
6.28647
 21
22.6317
  0
LINE
  8
0
 10
6.28647
 20
22.6317
 11
6.40654
 21
22.7768
  0
LINE
  8
0
 10
6.40654
 20
22.7768
 11
6.54385
 21
22.9058
  0
LINE
  8
0
 10
6.54385
 20
22.9058
 11
6.69626
 21
23.0165
  0
LINE
  8
0
 10
6.69626
 20
23.0165
 11
6.86133
 21
23.1072
  0
LINE
  8
0
 10
6.86133
 20
23.1072
 11
7.03647
 21
23.1766
  0
LINE
  8
0
 10
7.03647
 20
23.1766
 11
7.21892
 21
23.2234
  0
LINE
  8
0
 10
7.21892
 20
23.2234
 11
7.40581
 21
23.247
  0
LINE
  8
0
 10
7.40581
 20
23.247
 11
7.59418
 21
23.247
  0
LINE
  8
0
 10
7.59418
 20
23.247
 11
7.78107
 21
23.2234
  0
LINE
  8
0
 10
7.78107
 20
23.2234
 11
7.96352
 21
23.1766
  0
LINE
  8
0
 10
7.96352
 20
23.1766
 11
8.13866
 21
23.1072
  0
LINE
  8
0
 10
8.13866
 20
23.1072
 11
8.30373
 21
23.0165
  0
LINE
  8
0
 10
8.30373
 20
23.0165
 11
8.45613
 21
22.9058
  0
LINE
  8
0
 10
8.45613
 20
22.9058
 11
8.59344
 21
22.7768
  0
LINE
  8
0
 10
8.59344
 20
22.7768
 11
8.71352
 21
22.6317
  0
LINE
  8
0
 10
8.71352
 20
22.6317
 11
8.81445
 21
22.4726
  0
LINE
  8
0
 10
8.81445
 20
22.4726
 11
8.89465
 21
22.3022
  0
LINE
  8
0
 10
8.89465
 20
22.3022
 11
8.95287
 21
22.123
  0
LINE
  8
0
 10
8.95287
 20
22.123
 11
8.98816
 21
21.938
  0
LINE
  8
0
 10
8.98816
 20
21.938
 11
9
 21
21.75
  0
LINE
  8
0
 10
9
 20
21.75
 11
8.98816
 21
21.562
  0
LINE
  8
0
 10
8.98816
 20
21.562
 11
8.95287
 21
21.377
  0
LINE
  8
0
 10
8.95287
 20
21.377
 11
8.89465
 21
21.1978
  0
LINE
  8
0
 10
8.89465
 20
21.1978
 11
8.81445
 21
21.0274
  0
LINE
  8
0
 10
8.81445
 20
21.0274
 11
8.71352
 21
20.8683
  0
LINE
  8
0
 10
8.71352
 20
20.8683
 11
8.59344
 21
20.7232
  0
LINE
  8
0
 10
8.59344
 20
20.7232
 11
8.45613
 21
20.5942
  0
LINE
  8
0
 10
8.45613
 20
20.5942
 11
8.30373
 21
20.4835
  0
LINE
  8
0
 10
8.30373
 20
20.4835
 11
8.13866
 21
20.3927
  0
LINE
  8
0
 10
8.13866
 20
20.3927
 11
7.96352
 21
20.3234
  0
LINE
  8
0
 10
7.96352
 20
20.3234
 11
7.78107
 21
20.2766
  0
LINE
  8
0
 10
7.78107
 20
20.2766
 11
7.59418
 21
20.253
  0
LINE
  8
0
 10
7.59418
 20
20.253
 11
7.40581
 21
20.253
  0
LINE
  8
0
 10
-0.0941772
 20
20.253
 11
-0.281067
 21
20.2766
  0
LINE
  8
0
 10
-0.281067
 20
20.2766
 11
-0.463516
 21
20.3234
  0
LINE
  8
0
 10
-0.463516
 20
20.3234
 11
-0.638657
 21
20.3927
  0
LINE
  8
0
 10
-0.638657
 20
20.3927
 11
-0.803726
 21
20.4835
  0
LINE
  8
0
 10
-0.803726
 20
20.4835
 11
-0.956131
 21
20.5942
  0
LINE
  8
0
 10
-0.956131
 20
20.5942
 11
-1.09344
 21
20.7232
  0
LINE
  8
0
 10
-1.09344
 20
20.7232
 11
-1.21352
 21
20.8683
  0
LINE
  8
0
 10
-1.21352
 20
20.8683
 11
-1.31445
 21
21.0274
  0
LINE
  8
0
 10
-1.31445
 20
21.0274
 11
-1.39465
 21
21.1978
  0
LINE
  8
0
 10
-1.39465
 20
21.1978
 11
-1.45287
 21
21.377
  0
LINE
  8
0
 10
-1.45287
 20
21.377
 11
-1.48816
 21
21.562
  0
LINE
  8
0
 10
-1.48816
 20
21.562
 11
-1.5
 21
21.75
  0
LINE
  8
0
 10
-1.5
 20
21.75
 11
-1.48816
 21
21.938
  0
LINE
  8
0
 10
-1.48816
 20
21.938
 11
-1.45287
 21
22.123
  0
LINE
  8
0
 10
-1.45287
 20
22.123
 11
-1.39465
 21
22.3022
  0
LINE
  8
0
 10
-1.39465
 20
22.3022
 11
-1.31445
 21
22.4726
  0
LINE
  8
0
 10
-1.31445
 20
22.4726
 11
-1.21352
 21
22.6317
  0
LINE
  8
0
 10
-1.21352
 20
22.6317
 11
-1.09344
 21
22.7768
  0
LINE
  8
0
 10
-1.09344
 20
22.7768
 11
-0.956131
 21
22.9058
  0
LINE
  8
0
 10
-0.956131
 20
22.9058
 11
-0.803726
 21
23.0165
  0
LINE
  8
0
 10
-0.803726
 20
23.0165
 11
-0.638657
 21
23.1072
  0
LINE
  8
0
 10
-0.638657
 20
23.1072
 11
-0.463516
 21
23.1766
  0
LINE
  8
0
 10
-0.463516
 20
23.1766
 11
-0.281067
 21
23.2234
  0
LINE
  8
0
 10
-0.281067
 20
23.2234
 11
-0.0941772
 21
23.247
  0
LINE
  8
0
 10
-0.0941772
 20
23.247
 11
0.0941772
 21
23.247
  0
LINE
  8
0
 10
0.0941772
 20
23.247
 11
0.281067
 21
23.2234
  0
LINE
  8
0
 10
0.281067
 20
23.2234
 11
0.463516
 21
23.1766
  0
LINE
  8
0
 10
0.463516
 20
23.1766
 11
0.638657
 21
23.1072
  0
LINE
  8
0
 10
0.638657
 20
23.1072
 11
0.803726
 21
23.0165
  0
LINE
  8
0
 10
0.803726
 20
23.0165
 11
0.956131
 21
22.9058
  0
LINE
  8
0
 10
0.956131
 20
22.9058
 11
1.09344
 21
22.7768
  0
LINE
  8
0
 10
1.09344
 20
22.7768
 11
1.21352
 21
22.6317
  0
LINE
  8
0
 10
1.21352
 20
22.6317
 11
1.31445
 21
22.4726
  0
LINE
  8
0
 10
1.31445
 20
22.4726
 11
1.39465
 21
22.3022
  0
LINE
  8
0
 10
1.39465
 20
22.3022
 11
1.45287
 21
22.123
  0
LINE
  8
0
 10
1.45287
 20
22.123
 11
1.48816
 21
21.938
  0
LINE
  8
0
 10
1.48816
 20
21.938
 11
1.5
 21
21.75
  0
LINE
  8
0
 10
1.5
 20
21.75
 11
1.48816
 21
21.562
  0
LINE
  8
0
 10
1.48816
 20
21.562
 11
1.45287
 21
21.377
  0
LINE
  8
0
 10
1.45287
 20
21.377
 11
1.39465
 21
21.1978
  0
LINE
  8
0
 10
1.39465
 20
21.1978
 11
1.31445
 21
21.0274
  0
LINE
  8
0
 10
1.31445
 20
21.0274
 11
1.21352
 21
20.8683
  0
LINE
  8
0
 10
1.21352
 20
20.8683
 11
1.09344
 21
20.7232
  0
LINE
  8
0
 10
1.09344
 20
20.7232
 11
0.956131
 21
20.5942
  0
LINE
  8
0
 10
0.956131
 20
20.5942
 11
0.803726
 21
20.4835
  0
LINE
  8
0
 10
0.803726
 20
20.4835
 11
0.638657
 21
20.3927
  0
LINE
  8
0
 10
0.638657
 20
20.3927
 11
0.463516
 21
20.3234
  0
LINE
  8
0
 10
0.463516
 20
20.3234
 11
0.281067
 21
20.2766
  0
LINE
  8
0
 10
0.281067
 20
20.2766
 11
0.0941772
 21
20.253
  0
LINE
  8
0
 10
0.0941772
 20
20.253
 11
-0.0941772
 21
20.253
  0
LINE
  8
0
 10
7.40581
 20
12.7529
 11
7.21892
 21
12.7766
  0
LINE
  8
0
 10
7.21892
 20
12.7766
 11
7.03647
 21
12.8234
  0
LINE
  8
0
 10
7.03647
 20
12.8234
 11
6.86133
 21
12.8927
  0
LINE
  8
0
 10
6.86133
 20
12.8927
 11
6.69626
 21
12.9835
  0
LINE
  8
0
 10
6.69626
 20
12.9835
 11
6.54385
 21
13.0942
  0
LINE
  8
0
 10
6.54385
 20
13.0942
 11
6.40654
 21
13.2232
  0
LINE
  8
0
 10
6.40654
 20
13.2232
 11
6.28647
 21
13.3683
  0
LINE
  8
0
 10
6.28647
 20
13.3683
 11
6.18553
 21
13.5274
  0
LINE
  8
0
 10
6.18553
 20
13.5274
 11
6.10533
 21
13.6978
  0
LINE
  8
0
 10
6.10533
 20
13.6978
 11
6.04712
 21
13.877
  0
LINE
  8
0
 10
6.04712
 20
13.877
 11
6.01183
 21
14.062
  0
LINE
  8
0
 10
6.01183
 20
14.062
 11
6
 21
14.25
  0
LINE
  8
0
 10
6
 20
14.25
 11
6.01183
 21
14.438
  0
LINE
  8
0
 10
6.01183
 20
14.438
 11
6.04712
 21
14.623
  0
LINE
  8
0
 10
6.04712
 20
14.623
 11
6.10533
 21
14.8022
  0
LINE
  8
0
 10
6.10533
 20
14.8022
 11
6.18553
 21
14.9726
  0
LINE
  8
0
 10
6.18553
 20
14.9726
 11
6.28647
 21
15.1317
  0
LINE
  8
0
 10
6.28647
 20
15.1317
 11
6.40654
 21
15.2768
  0
LINE
  8
0
 10
6.40654
 20
15.2768
 11
6.54385
 21
15.4058
  0
LINE
  8
0
 10
6.54385
 20
15.4058
 11
6.69626
 21
15.5165
  0
LINE
  8
0
 10
6.69626
 20
15.5165
 11
6.86133
 21
15.6072
  0
LINE
  8
0
 10
6.86133
 20
15.6072
 11
7.03647
 21
15.6766
  0
LINE
  8
0
 10
7.03647
 20
15.6766
 11
7.21892
 21
15.7234
  0
LINE
  8
0
 10
7.21892
 20
15.7234
 11
7.40581
 21
15.747
  0
LINE
  8
0
 10
7.40581
 20
15.747
 11
7.59418
 21
15.747
  0
LINE
  8
0
 10
7.59418
 20
15.747
 11
7.78107
 21
15.7234
  0
LINE
  8
0
 10
7.78107
 20
15.7234
 11
7.96352
 21
15.6766
  0
LINE
  8
0
 10
7.96352
 20
15.6766
 11
8.13866
 21
15.6072
  0
LINE
  8
0
 10
8.13866
 20
15.6072
 11
8.30373
 21
15.5165
  0
LINE
  8
0
 10
8.30373
 20
15.5165
 11
8.45613
 21
15.4058
  0
LINE
  8
0
 10
8.45613
 20
15.4058
 11
8.59344
 21
15.2768
  0
LINE
  8
0
 10
8.59344
 20
15.2768
 11
8.71352
 21
15.1317
  0
LINE
  8
0
 10
8.71352
 20
15.1317
 11
8.81445
 21
14.9726
  0
LINE
  8
0
 10
8.81445
 20
14.9726
 11
8.89465
 21
14.8022
  0
LINE
  8
0
 10
8.89465
 20
14.8022
 11
8.95287
 21
14.623
  0
LINE
  8
0
 10
8.95287
 20
14.623
 11
8.98816
 21
14.438
  0
LINE
  8
0
 10
8.98816
 20
14.438
 11
9
 21
14.25
  0
LINE
  8
0
 10
9
 20
14.25
 11
8.98816
 21
14.062
  0
LINE
  8
0
 10
8.98816
 20
14.062
 11
8.95287
 21
13.877
  0
LINE
  8
0
 10
8.95287
 20
13.877
 11
8.89465
 21
13.6978
  0
LINE
  8
0
 10
8.89465
 20
13.6978
 11
8.81445
 21
13.5274
  0
LINE
  8
0
 10
8.81445
 20
13.5274
 11
8.71352
 21
13.3683
  0
LINE
  8
0
 10
8.71352
 20
13.3683
 11
8.59344
 21
13.2232
  0
LINE
  8
0
 10
8.59344
 20
13.2232
 11
8.45613
 21
13.0942
  0
LINE
  8
0
 10
8.45613
 20
13.0942
 11
8.30373
 21
12.9835
  0
LINE
  8
0
 10
8.30373
 20
12.9835
 11
8.13866
 21
12.8927
  0
LINE
  8
0
 10
8.13866
 20
12.8927
 11
7.96352
 21
12.8234
  0
LINE
  8
0
 10
7.96352
 20
12.8234
 11
7.78107
 21
12.7766
  0
LINE
  8
0
 10
7.78107
 20
12.7766
 11
7.59418
 21
12.7529
  0
LINE
  8
0
 10
7.59418
 20
12.7529
 11
7.40581
 21
12.7529
  0
LINE
  8
0
 10
-0.0941772
 20
12.7529
 11
-0.281067
 21
12.7766
  0
LINE
  8
0
 10
-0.281067
 20
12.7766
 11
-0.463516
 21
12.8234
  0
LINE
  8
0
 10
-0.463516
 20
12.8234
 11
-0.638657
 21
12.8927
  0
LINE
  8
0
 10
-0.638657
 20
12.8927
 11
-0.803726
 21
12.9835
  0
LINE
  8
0
 10
-0.803726
 20
12.9835
 11
-0.956131
 21
13.0942
  0
LINE
  8
0
 10
-0.956131
 20
13.0942
 11
-1.09344
 21
13.2232
  0
LINE
  8
0
 10
-1.09344
 20
13.2232
 11
-1.21352
 21
13.3683
  0
LINE
  8
0
 10
-1.21352
 20
13.3683
 11
-1.31445
 21
13.5274
  0
LINE
  8
0
 10
-1.31445
 20
13.5274
 11
-1.39465
 21
13.6978
  0
LINE
  8
0
 10
-1.39465
 20
13.6978
 11
-1.45287
 21
13.877
  0
LINE
  8
0
 10
-1.45287
 20
13.877
 11
-1.48816
 21
14.062
  0
LINE
  8
0
 10
-1.48816
 20
14.062
 11
-1.5
 21
14.25
  0
LINE
  8
0
 10
-1.5
 20
14.25
 11
-1.48816
 21
14.438
  0
LINE
  8
0
 10
-1.48816
 20
14.438
 11
-1.45287
 21
14.623
  0
LINE
  8
0
 10
-1.45287
 20
14.623
 11
-1.39465
 21
14.8022
  0
LINE
  8
0
 10
-1.39465
 20
14.8022
 11
-1.31445
 21
14.9726
  0
LINE
  8
0
 10
-1.31445
 20
14.9726
 11
-1.21352
 21
15.1317
  0
LINE
  8
0
 10
-1.21352
 20
15.1317
 11
-1.09344
 21
15.2768
  0
LINE
  8
0
 10
-1.09344
 20
15.2768
 11
-0.956131
 21
15.4058
  0
LINE
  8
0
 10
-0.956131
 20
15.4058
 11
-0.803726
 21
15.5165
  0
LINE
  8
0
 10
-0.803726
 20
15.5165
 11
-0.638657
 21
15.6072
  0
LINE
  8
0
 10
-0.638657
 20
15.6072
 11
-0.463516
 21
15.6766
  0
LINE
  8
0
 10
-0.463516
 20
15.6766
 11
-0.281067
 21
15.7234
  0
LINE
  8
0
 10
-0.281067
 20
15.7234
 11
-0.0941772
 21
15.747
  0
LINE
  8
0
 10
-0.0941772
 20
15.747
 11
0.0941772
 21
15.747
  0
LINE
  8
0
 10
0.0941772
 20
15.747
 11
0.281067
 21
15.7234
  0
LINE
  8
0
 10
0.281067
 20
15.7234
 11
0.463516
 21
15.6766
  0
LINE
  8
0
 10
0.463516
 20
15.6766
 11
0.638657
 21
15.6072
  0
LINE
  8
0
 10
0.638657
 20
15.6072
 11
0.803726
 21
15.5165
  0
LINE
  8
0
 10
0.803726
 20
15.5165
 11
0.956131
 21
15.4058
  0
LINE
  8
0
 10
0.956131
 20
15.4058
 11
1.09344
 21
15.2768
  0
LINE
  8
0
 10
1.09344
 20
15.2768
 11
1.21352
 21
15.1317
  0
LINE
  8
0
 10
1.21352
 20
15.1317
 11
1.31445
 21
14.9726
  0
LINE
  8
0
 10
1.31445
 20
14.9726
 11
1.39465
 21
14.8022
  0
LINE
  8
0
 10
1.39465
 20
14.8022
 11
1.45287
 21
14.623
  0
LINE
  8
0
 10
1.45287
 20
14.623
 11
1.48816
 21
14.438
  0
LINE
  8
0
 10
1.48816
 20
14.438
 11
1.5
 21
14.25
  0
LINE
  8
0
 10
1.5
 20
14.25
 11
1.48816
 21
14.062
  0
LINE
  8
0
 10
1.48816
 20
14.062
 11
1.45287
 21
13.877
  0
LINE
  8
0
 10
1.45287
 20
13.877
 11
1.39465
 21
13.6978
  0
LINE
  8
0
 10
1.39465
 20
13.6978
 11
1.31445
 21
13.5274
  0
LINE
  8
0
 10
1.31445
 20
13.5274
 11
1.21352
 21
13.3683
  0
LINE
  8
0
 10
1.21352
 20
13.3683
 11
1.09344
 21
13.2232
  0
LINE
  8
0
 10
1.09344
 20
13.2232
 11
0.956131
 21
13.0942
  0
LINE
  8
0
 10
0.956131
 20
13.0942
 11
0.803726
 21
12.9835
  0
LINE
  8
0
 10
0.803726
 20
12.9835
 11
0.638657
 21
12.8927
  0
LINE
  8
0
 10
0.638657
 20
12.8927
 11
0.463516
 21
12.8234
  0
LINE
  8
0
 10
0.463516
 20
12.8234
 11
0.281067
 21
12.7766
  0
LINE
  8
0
 10
0.281067
 20
12.7766
 11
0.0941772
 21
12.7529
  0
LINE
  8
0
 10
0.0941772
 20
12.7529
 11
-0.0941772
 21
12.7529
  0
LINE
  8
0
 10
-7.59418
 20
12.7529
 11
-7.78107
 21
12.7766
  0
LINE
  8
0
 10
-7.78107
 20
12.7766
 11
-7.96352
 21
12.8234
  0
LINE
  8
0
 10
-7.96352
 20
12.8234
 11
-8.13866
 21
12.8927
  0
LINE
  8
0
 10
-8.13866
 20
12.8927
 11
-8.30373
 21
12.9835
  0
LINE
  8
0
 10
-8.30373
 20
12.9835
 11
-8.45613
 21
13.0942
  0
LINE
  8
0
 10
-8.45613
 20
13.0942
 11
-8.59344
 21
13.2232
  0
LINE
  8
0
 10
-8.59344
 20
13.2232
 11
-8.71352
 21
13.3683
  0
LINE
  8
0
 10
-8.71352
 20
13.3683
 11
-8.81445
 21
13.5274
  0
LINE
  8
0
 10
-8.81445
 20
13.5274
 11
-8.89465
 21
13.6978
  0
LINE
  8
0
 10
-8.89465
 20
13.6978
 11
-8.95287
 21
13.877
  0
LINE
  8
0
 10
-8.95287
 20
13.877
 11
-8.98816
 21
14.062
  0
LINE
  8
0
 10
-8.98816
 20
14.062
 11
-9
 21
14.25
  0
LINE
  8
0
 10
-9
 20
14.25
 11
-8.98816
 21
14.438
  0
LINE
  8
0
 10
-8.98816
 20
14.438
 11
-8.95287
 21
14.623
  0
LINE
  8
0
 10
-8.95287
 20
14.623
 11
-8.89465
 21
14.8022
  0
LINE
  8
0
 10
-8.89465
 20
14.8022
 11
-8.81445
 21
14.9726
  0
LINE
  8
0
 10
-8.81445
 20
14.9726
 11
-8.71352
 21
15.1317
  0
LINE
  8
0
 10
-8.71352
 20
15.1317
 11
-8.59344
 21
15.2768
  0
LINE
  8
0
 10
-8.59344
 20
15.2768
 11
-8.45613
 21
15.4058
  0
LINE
  8
0
 10
-8.45613
 20
15.4058
 11
-8.30373
 21
15.5165
  0
LINE
  8
0
 10
-8.30373
 20
15.5165
 11
-8.13866
 21
15.6072
  0
LINE
  8
0
 10
-8.13866
 20
15.6072
 11
-7.96352
 21
15.6766
  0
LINE
  8
0
 10
-7.96352
 20
15.6766
 11
-7.78107
 21
15.7234
  0
LINE
  8
0
 10
-7.78107
 20
15.7234
 11
-7.59418
 21
15.747
  0
LINE
  8
0
 10
-7.59418
 20
15.747
 11
-7.40581
 21
15.747
  0
LINE
  8
0
 10
-7.40581
 20
15.747
 11
-7.21892
 21
15.7234
  0
LINE
  8
0
 10
-7.21892
 20
15.7234
 11
-7.03647
 21
15.6766
  0
LINE
  8
0
 10
-7.03647
 20
15.6766
 11
-6.86133
 21
15.6072
  0
LINE
  8
0
 10
-6.86133
 20
15.6072
 11
-6.69626
 21
15.5165
  0
LINE
  8
0
 10
-6.69626
 20
15.5165
 11
-6.54385
 21
15.4058
  0
LINE
  8
0
 10
-6.54385
 20
15.4058
 11
-6.40654
 21
15.2768
  0
LINE
  8
0
 10
-6.40654
 20
15.2768
 11
-6.28647
 21
15.1317
  0
LINE
  8
0
 10
-6.28647
 20
15.1317
 11
-6.18553
 21
14.9726
  0
LINE
  8
0
 10
-6.18553
 20
14.9726
 11
-6.10533
 21
14.8022
  0
LINE
  8
0
 10
-6.10533
 20
14.8022
 11
-6.04712
 21
14.623
  0
LINE
  8
0
 10
-6.04712
 20
14.623
 11
-6.01183
 21
14.438
  0
LINE
  8
0
 10
-6.01183
 20
14.438
 11
-6
 21
14.25
  0
LINE
  8
0
 10
-6
 20
14.25
 11
-6.01183
 21
14.062
  0
LINE
  8
0
 10
-6.01183
 20
14.062
 11
-6.04712
 21
13.877
  0
LINE
  8
0
 10
-6.04712
 20
13.877
 11
-6.10533
 21
13.6978
  0
LINE
  8
0
 10
-6.10533
 20
13.6978
 11
-6.18553
 21
13.5274
  0
LINE
  8
0
 10
-6.18553
 20
13.5274
 11
-6.28647
 21
13.3683
  0
LINE
  8
0
 10
-6.28647
 20
13.3683
 11
-6.40654
 21
13.2232
  0
LINE
  8
0
 10
-6.40654
 20
13.2232
 11
-6.54385
 21
13.0942
  0
LINE
  8
0
 10
-6.54385
 20
13.0942
 11
-6.69626
 21
12.9835
  0
LINE
  8
0
 10
-6.69626
 20
12.9835
 11
-6.86133
 21
12.8927
  0
LINE
  8
0
 10
-6.86133
 20
12.8927
 11
-7.03647
 21
12.8234
  0
LINE
  8
0
 10
-7.03647
 20
12.8234
 11
-7.21892
 21
12.7766
  0
LINE
  8
0
 10
-7.21892
 20
12.7766
 11
-7.40581
 21
12.7529
  0
LINE
  8
0
 10
-7.40581
 20
12.7529
 11
-7.59418
 21
12.7529
  0
LINE
  8
0
 10
7.40581
 20
5.25294
 11
7.21892
 21
5.27657
  0
LINE
  8
0
 10
7.21892
 20
5.27657
 11
7.03647
 21
5.32341
  0
LINE
  8
0
 10
7.03647
 20
5.32341
 11
6.86133
 21
5.39275
  0
LINE
  8
0
 10
6.86133
 20
5.39275
 11
6.69626
 21
5.48351
  0
LINE
  8
0
 10
6.69626
 20
5.48351
 11
6.54385
 21
5.59422
  0
LINE
  8
0
 10
6.54385
 20
5.59422
 11
6.40654
 21
5.72318
  0
LINE
  8
0
 10
6.40654
 20
5.72318
 11
6.28647
 21
5.86832
  0
LINE
  8
0
 10
6.28647
 20
5.86832
 11
6.18553
 21
6.02736
  0
LINE
  8
0
 10
6.18553
 20
6.02736
 11
6.10533
 21
6.1978
  0
LINE
  8
0
 10
6.10533
 20
6.1978
 11
6.04712
 21
6.37695
  0
LINE
  8
0
 10
6.04712
 20
6.37695
 11
6.01183
 21
6.562
  0
LINE
  8
0
 10
6.01183
 20
6.562
 11
6
 21
6.75
  0
LINE
  8
0
 10
6
 20
6.75
 11
6.01183
 21
6.93799
  0
LINE
  8
0
 10
6.01183
 20
6.93799
 11
6.04712
 21
7.12303
  0
LINE
  8
0
 10
6.04712
 20
7.12303
 11
6.10533
 21
7.30219
  0
LINE
  8
0
 10
6.10533
 20
7.30219
 11
6.18553
 21
7.47263
  0
LINE
  8
0
 10
6.18553
 20
7.47263
 11
6.28647
 21
7.63167
  0
LINE
  8
0
 10
6.28647
 20
7.63167
 11
6.40654
 21
7.77681
  0
LINE
  8
0
 10
6.40654
 20
7.77681
 11
6.54385
 21
7.90576
  0
LINE
  8
0
 10
6.54385
 20
7.90576
 11
6.69626
 21
8.01648
  0
LINE
  8
0
 10
6.69626
 20
8.01648
 11
6.86133
 21
8.10724
  0
LINE
  8
0
 10
6.86133
 20
8.10724
 11
7.03647
 21
8.17657
  0
LINE
  8
0
 10
7.03647
 20
8.17657
 11
7.21892
 21
8.22342
  0
LINE
  8
0
 10
7.21892
 20
8.22342
 11
7.40581
 21
8.24704
  0
LINE
  8
0
 10
7.40581
 20
8.24704
 11
7.59418
 21
8.24704
  0
LINE
  8
0
 10
7.59418
 20
8.24704
 11
7.78107
 21
8.22342
  0
LINE
  8
0
 10
7.78107
 20
8.22342
 11
7.96352
 21
8.17657
  0
LINE
  8
0
 10
7.96352
 20
8.17657
 11
8.13866
 21
8.10724
  0
LINE
  8
0
 10
8.13866
 20
8.10724
 11
8.30373
 21
8.01648
  0
LINE
  8
0
 10
8.30373
 20
8.01648
 11
8.45613
 21
7.90576
  0
LINE
  8
0
 10
8.45613
 20
7.90576
 11
8.59344
 21
7.77681
  0
LINE
  8
0
 10
8.59344
 20
7.77681
 11
8.71352
 21
7.63167
  0
LINE
  8
0
 10
8.71352
 20
7.63167
 11
8.81445
 21
7.47263
  0
LINE
  8
0
 10
8.81445
 20
7.47263
 11
8.89465
 21
7.30219
  0
LINE
  8
0
 10
8.89465
 20
7.30219
 11
8.95287
 21
7.12303
  0
LINE
  8
0
 10
8.95287
 20
7.12303
 11
8.98816
 21
6.93799
  0
LINE
  8
0
 10
8.98816
 20
6.93799
 11
9
 21
6.75
  0
LINE
  8
0
 10
9
 20
6.75
 11
8.98816
 21
6.562
  0
LINE
  8
0
 10
8.98816
 20
6.562
 11
8.95287
 21
6.37695
  0
LINE
  8
0
 10
8.95287
 20
6.37695
 11
8.89465
 21
6.1978
  0
LINE
  8
0
 10
8.89465
 20
6.1978
 11
8.81445
 21
6.02736
  0
LINE
  8
0
 10
8.81445
 20
6.02736
 11
8.71352
 21
5.86832
  0
LINE
  8
0
 10
8.71352
 20
5.86832
 11
8.59344
 21
5.72318
  0
LINE
  8
0
 10
8.59344
 20
5.72318
 11
8.45613
 21
5.59422
  0
LINE
  8
0
 10
8.45613
 20
5.59422
 11
8.30373
 21
5.48351
  0
LINE
  8
0
 10
8.30373
 20
5.48351
 11
8.13866
 21
5.39275
  0
LINE
  8
0
 10
8.13866
 20
5.39275
 11
7.96352
 21
5.32341
  0
LINE
  8
0
 10
7.96352
 20
5.32341
 11
7.78107
 21
5.27657
  0
LINE
  8
0
 10
7.78107
 20
5.27657
 11
7.59418
 21
5.25294
  0
LINE
  8
0
 10
7.59418
 20
5.25294
 11
7.40581
 21
5.25294
  0
LINE
  8
0
 10
-0.0941772
 20
5.25294
 11
-0.281067
 21
5.27657
  0
LINE
  8
0
 10
-0.281067
 20
5.27657
 11
-0.463516
 21
5.32341
  0
LINE
  8
0
 10
-0.463516
 20
5.32341
 11
-0.638657
 21
5.39275
  0
LINE
  8
0
 10
-0.638657
 20
5.39275
 11
-0.803726
 21
5.48351
  0
LINE
  8
0
 10
-0.803726
 20
5.48351
 11
-0.956131
 21
5.59422
  0
LINE
  8
0
 10
-0.956131
 20
5.59422
 11
-1.09344
 21
5.72318
  0
LINE
  8
0
 10
-1.09344
 20
5.72318
 11
-1.21352
 21
5.86832
  0
LINE
  8
0
 10
-1.21352
 20
5.86832
 11
-1.31445
 21
6.02736
  0
LINE
  8
0
 10
-1.31445
 20
6.02736
 11
-1.39465
 21
6.1978
  0
LINE
  8
0
 10
-1.39465
 20
6.1978
 11
-1.45287
 21
6.37695
  0
LINE
  8
0
 10
-1.45287
 20
6.37695
 11
-1.48816
 21
6.562
  0
LINE
  8
0
 10
-1.48816
 20
6.562
 11
-1.5
 21
6.75
  0
LINE
  8
0
 10
-1.5
 20
6.75
 11
-1.48816
 21
6.93799
  0
LINE
  8
0
 10
-1.48816
 20
6.93799
 11
-1.45287
 21
7.12303
  0
LINE
  8
0
 10
-1.45287
 20
7.12303
 11
-1.39465
 21
7.30219
  0
LINE
  8
0
 10
-1.39465
 20
7.30219
 11
-1.31445
 21
7.47263
  0
LINE
  8
0
 10
-1.31445
 20
7.47263
 11
-1.21352
 21
7.63167
  0
LINE
  8
0
 10
-1.21352
 20
7.63167
 11
-1.09344
 21
7.77681
  0
LINE
  8
0
 10
-1.09344
 20
7.77681
 11
-0.956131
 21
7.90576
  0
LINE
  8
0
 10
-0.956131
 20
7.90576
 11
-0.803726
 21
8.01648
  0
LINE
  8
0
 10
-0.803726
 20
8.01648
 11
-0.638657
 21
8.10724
  0
LINE
  8
0
 10
-0.638657
 20
8.10724
 11
-0.463516
 21
8.17657
  0
LINE
  8
0
 10
-0.463516
 20
8.17657
 11
-0.281067
 21
8.22342
  0
LINE
  8
0
 10
-0.281067
 20
8.22342
 11
-0.0941772
 21
8.24704
  0
LINE
  8
0
 10
-0.0941772
 20
8.24704
 11
0.0941772
 21
8.24704
  0
LINE
  8
0
 10
0.0941772
 20
8.24704
 11
0.281067
 21
8.22342
  0
LINE
  8
0
 10
0.281067
 20
8.22342
 11
0.463516
 21
8.17657
  0
LINE
  8
0
 10
0.463516
 20
8.17657
 11
0.638657
 21
8.10724
  0
LINE
  8
0
 10
0.638657
 20
8.10724
 11
0.803726
 21
8.01648
  0
LINE
  8
0
 10
0.803726
 20
8.01648
 11
0.956131
 21
7.90576
  0
LINE
  8
0
 10
0.956131
 20
7.90576
 11
1.09344
 21
7.77681
  0
LINE
  8
0
 10
1.09344
 20
7.77681
 11
1.21352
 21
7.63167
  0
LINE
  8
0
 10
1.21352
 20
7.63167
 11
1.31445
 21
7.47263
  0
LINE
  8
0
 10
1.31445
 20
7.47263
 11
1.39465
 21
7.30219
  0
LINE
  8
0
 10
1.39465
 20
7.30219
 11
1.45287
 21
7.12303
  0
LINE
  8
0
 10
1.45287
 20
7.12303
 11
1.48816
 21
6.93799
  0
LINE
  8
0
 10
1.48816
 20
6.93799
 11
1.5
 21
6.75
  0
LINE
  8
0
 10
1.5
 20
6.75
 11
1.48816
 21
6.562
  0
LINE
  8
0
 10
1.48816
 20
6.562
 11
1.45287
 21
6.37695
  0
LINE
  8
0
 10
1.45287
 20
6.37695
 11
1.39465
 21
6.1978
  0
LINE
  8
0
 10
1.39465
 20
6.1978
 11
1.31445
 21
6.02736
  0
LINE
  8
0
 10
1.31445
 20
6.02736
 11
1.21352
 21
5.86832
  0
LINE
  8
0
 10
1.21352
 20
5.86832
 11
1.09344
 21
5.72318
  0
LINE
  8
0
 10
1.09344
 20
5.72318
 11
0.956131
 21
5.59422
  0
LINE
  8
0
 10
0.956131
 20
5.59422
 11
0.803726
 21
5.48351
  0
LINE
  8
0
 10
0.803726
 20
5.48351
 11
0.638657
 21
5.39275
  0
LINE
  8
0
 10
0.638657
 20
5.39275
 11
0.463516
 21
5.32341
  0
LINE
  8
0
 10
0.463516
 20
5.32341
 11
0.281067
 21
5.27657
  0
LINE
  8
0
 10
0.281067
 20
5.27657
 11
0.0941772
 21
5.25294
  0
LINE
  8
0
 10
0.0941772
 20
5.25294
 11
-0.0941772
 21
5.25294
  0
LINE
  8
0
 10
-7.59418
 20
5.25294
 11
-7.78107
 21
5.27657
  0
LINE
  8
0
 10
-7.78107
 20
5.27657
 11
-7.96352
 21
5.32341
  0
LINE
  8
0
 10
-7.96352
 20
5.32341
 11
-8.13866
 21
5.39275
  0
LINE
  8
0
 10
-8.13866
 20
5.39275
 11
-8.30373
 21
5.48351
  0
LINE
  8
0
 10
-8.30373
 20
5.48351
 11
-8.45613
 21
5.59422
  0
LINE
  8
0
 10
-8.45613
 20
5.59422
 11
-8.59344
 21
5.72318
  0
LINE
  8
0
 10
-8.59344
 20
5.72318
 11
-8.71352
 21
5.86832
  0
LINE
  8
0
 10
-8.71352
 20
5.86832
 11
-8.81445
 21
6.02736
  0
LINE
  8
0
 10
-8.81445
 20
6.02736
 11
-8.89465
 21
6.1978
  0
LINE
  8
0
 10
-8.89465
 20
6.1978
 11
-8.95287
 21
6.37695
  0
LINE
  8
0
 10
-8.95287
 20
6.37695
 11
-8.98816
 21
6.562
  0
LINE
  8
0
 10
-8.98816
 20
6.562
 11
-9
 21
6.75
  0
LINE
  8
0
 10
-9
 20
6.75
 11
-8.98816
 21
6.93799
  0
LINE
  8
0
 10
-8.98816
 20
6.93799
 11
-8.95287
 21
7.12303
  0
LINE
  8
0
 10
-8.95287
 20
7.12303
 11
-8.89465
 21
7.30219
  0
LINE
  8
0
 10
-8.89465
 20
7.30219
 11
-8.81445
 21
7.47263
  0
LINE
  8
0
 10
-8.81445
 20
7.47263
 11
-8.71352
 21
7.63167
  0
LINE
  8
0
 10
-8.71352
 20
7.63167
 11
-8.59344
 21
7.77681
  0
LINE
  8
0
 10
-8.59344
 20
7.77681
 11
-8.45613
 21
7.90576
  0
LINE
  8
0
 10
-8.45613
 20
7.90576
 11
-8.30373
 21
8.01648
  0
LINE
  8
0
 10
-8.30373
 20
8.01648
 11
-8.13866
 21
8.10724
  0
LINE
  8
0
 10
-8.13866
 20
8.10724
 11
-7.96352
 21
8.17657
  0
LINE
  8
0
 10
-7.96352
 20
8.17657
 11
-7.78107
 21
8.22342
  0
LINE
  8
0
 10
-7.78107
 20
8.22342
 11
-7.59418
 21
8.24704
  0
LINE
  8
0
 10
-7.59418
 20
8.24704
 11
-7.40581
 21
8.24704
  0
LINE
  8
0
 10
-7.40581
 20
8.24704
 11
-7.21892
 21
8.22342
  0
LINE
  8
0
 10
-7.21892
 20
8.22342
 11
-7.03647
 21
8.17657
  0
LINE
  8
0
 10
-7.03647
 20
8.17657
 11
-6.86133
 21
8.10724
  0
LINE
  8
0
 10
-6.86133
 20
8.10724
 11
-6.69626
 21
8.01648
  0
LINE
  8
0
 10
-6.69626
 20
8.01648
 11
-6.54385
 21
7.90576
  0
LINE
  8
0
 10
-6.54385
 20
7.90576
 11
-6.40654
 21
7.77681
  0
LINE
  8
0
 10
-6.40654
 20
7.77681
 11
-6.28647
 21
7.63167
  0
LINE
  8
0
 10
-6.28647
 20
7.63167
 11
-6.18553
 21
7.47263
  0
LINE
  8
0
 10
-6.18553
 20
7.47263
 11
-6.10533
 21
7.30219
  0
LINE
  8
0
 10
-6.10533
 20
7.30219
 11
-6.04712
 21
7.12303
  0
LINE
  8
0
 10
-6.04712
 20
7.12303
 11
-6.01183
 21
6.93799
  0
LINE
  8
0
 10
-6.01183
 20
6.93799
 11
-6
 21
6.75
  0
LINE
  8
0
 10
-6
 20
6.75
 11
-6.01183
 21
6.562
  0
LINE
  8
0
 10
-6.01183
 20
6.562
 11
-6.04712
 21
6.37695
  0
LINE
  8
0
 10
-6.04712
 20
6.37695
 11
-6.10533
 21
6.1978
  0
LINE
  8
0
 10
-6.10533
 20
6.1978
 11
-6.18553
 21
6.02736
  0
LINE
  8
0
 10
-6.18553
 20
6.02736
 11
-6.28647
 21
5.86832
  0
LINE
  8
0
 10
-6.28647
 20
5.86832
 11
-6.40654
 21
5.72318
  0
LINE
  8
0
 10
-6.40654
 20
5.72318
 11
-6.54385
 21
5.59422
  0
LINE
  8
0
 10
-6.54385
 20
5.59422
 11
-6.69626
 21
5.48351
  0
LINE
  8
0
 10
-6.69626
 20
5.48351
 11
-6.86133
 21
5.39275
  0
LINE
  8
0
 10
-6.86133
 20
5.39275
 11
-7.03647
 21
5.32341
  0
LINE
  8
0
 10
-7.03647
 20
5.32341
 11
-7.21892
 21
5.27657
  0
LINE
  8
0
 10
-7.21892
 20
5.27657
 11
-7.40581
 21
5.25294
  0
LINE
  8
0
 10
-7.40581
 20
5.25294
 11
-7.59418
 21
5.25294
  0
LINE
  8
0
 10
3.69975
 20
5.95157
 11
3.60008
 21
5.96416
  0
LINE
  8
0
 10
3.60008
 20
5.96416
 11
3.50278
 21
5.98915
  0
LINE
  8
0
 10
3.50278
 20
5.98915
 11
3.40936
 21
6.02614
  0
LINE
  8
0
 10
3.40936
 20
6.02614
 11
3.32133
 21
6.07452
  0
LINE
  8
0
 10
3.32133
 20
6.07452
 11
3.24005
 21
6.13358
  0
LINE
  8
0
 10
3.24005
 20
6.13358
 11
3.16682
 21
6.20236
  0
LINE
  8
0
 10
3.16682
 20
6.20236
 11
3.10278
 21
6.27977
  0
LINE
  8
0
 10
3.10278
 20
6.27977
 11
3.04895
 21
6.36459
  0
LINE
  8
0
 10
3.04895
 20
6.36459
 11
3.00616
 21
6.45549
  0
LINE
  8
0
 10
3.00616
 20
6.45549
 11
2.97513
 21
6.55104
  0
LINE
  8
0
 10
2.97513
 20
6.55104
 11
2.9563
 21
6.64972
  0
LINE
  8
0
 10
2.9563
 20
6.64972
 11
2.95
 21
6.75
  0
LINE
  8
0
 10
2.95
 20
6.75
 11
2.9563
 21
6.85027
  0
LINE
  8
0
 10
2.9563
 20
6.85027
 11
2.97513
 21
6.94894
  0
LINE
  8
0
 10
2.97513
 20
6.94894
 11
3.00616
 21
7.04449
  0
LINE
  8
0
 10
3.00616
 20
7.04449
 11
3.04895
 21
7.13539
  0
LINE
  8
0
 10
3.04895
 20
7.13539
 11
3.10278
 21
7.22021
  0
LINE
  8
0
 10
3.10278
 20
7.22021
 11
3.16682
 21
7.29762
  0
LINE
  8
0
 10
3.16682
 20
7.29762
 11
3.24005
 21
7.36641
  0
LINE
  8
0
 10
3.24005
 20
7.36641
 11
3.32133
 21
7.42546
  0
LINE
  8
0
 10
3.32133
 20
7.42546
 11
3.40936
 21
7.47385
  0
LINE
  8
0
 10
3.40936
 20
7.47385
 11
3.50278
 21
7.51083
  0
LINE
  8
0
 10
3.50278
 20
7.51083
 11
3.60008
 21
7.53583
  0
LINE
  8
0
 10
3.60008
 20
7.53583
 11
3.69975
 21
7.54842
  0
LINE
  8
0
 10
3.69975
 20
7.54842
 11
3.80023
 21
7.54842
  0
LINE
  8
0
 10
3.80023
 20
7.54842
 11
3.8999
 21
7.53583
  0
LINE
  8
0
 10
3.8999
 20
7.53583
 11
3.99721
 21
7.51083
  0
LINE
  8
0
 10
3.99721
 20
7.51083
 11
4.09062
 21
7.47385
  0
LINE
  8
0
 10
4.09062
 20
7.47385
 11
4.17865
 21
7.42546
  0
LINE
  8
0
 10
4.17865
 20
7.42546
 11
4.25993
 21
7.36641
  0
LINE
  8
0
 10
4.25993
 20
7.36641
 11
4.33316
 21
7.29762
  0
LINE
  8
0
 10
4.33316
 20
7.29762
 11
4.3972
 21
7.22021
  0
LINE
  8
0
 10
4.3972
 20
7.22021
 11
4.45103
 21
7.13539
  0
LINE
  8
0
 10
4.45103
 20
7.13539
 11
4.49382
 21
7.04449
  0
LINE
  8
0
 10
4.49382
 20
7.04449
 11
4.52486
 21
6.94894
  0
LINE
  8
0
 10
4.52486
 20
6.94894
 11
4.54369
 21
6.85027
  0
LINE
  8
0
 10
4.54369
 20
6.85027
 11
4.54999
 21
6.75
  0
LINE
  8
0
 10
4.54999
 20
6.75
 11
4.54369
 21
6.64972
  0
LINE
  8
0
 10
4.54369
 20
6.64972
 11
4.52486
 21
6.55104
  0
LINE
  8
0
 10
4.52486
 20
6.55104
 11
4.49382
 21
6.45549
  0
LINE
  8
0
 10
4.49382
 20
6.45549
 11
4.45103
 21
6.36459
  0
LINE
  8
0
 10
4.45103
 20
6.36459
 11
4.3972
 21
6.27977
  0
LINE
  8
0
 10
4.3972
 20
6.27977
 11
4.33316
 21
6.20236
  0
LINE
  8
0
 10
4.33316
 20
6.20236
 11
4.25993
 21
6.13358
  0
LINE
  8
0
 10
4.25993
 20
6.13358
 11
4.17865
 21
6.07452
  0
LINE
  8
0
 10
4.17865
 20
6.07452
 11
4.09062
 21
6.02614
  0
LINE
  8
0
 10
4.09062
 20
6.02614
 11
3.99721
 21
5.98915
  0
LINE
  8
0
 10
3.99721
 20
5.98915
 11
3.8999
 21
5.96416
  0
LINE
  8
0
 10
3.8999
 20
5.96416
 11
3.80023
 21
5.95157
  0
LINE
  8
0
 10
3.80023
 20
5.95157
 11
3.69975
 21
5.95157
  0
LINE
  8
0
 10
-3.80023
 20
5.95157
 11
-3.8999
 21
5.96416
  0
LINE
  8
0
 10
-3.8999
 20
5.96416
 11
-3.99721
 21
5.98915
  0
LINE
  8
0
 10
-3.99721
 20
5.98915
 11
-4.09062
 21
6.02614
  0
LINE
  8
0
 10
-4.09062
 20
6.02614
 11
-4.17865
 21
6.07452
  0
LINE
  8
0
 10
-4.17865
 20
6.07452
 11
-4.25993
 21
6.13358
  0
LINE
  8
0
 10
-4.25993
 20
6.13358
 11
-4.33316
 21
6.20236
  0
LINE
  8
0
 10
-4.33316
 20
6.20236
 11
-4.3972
 21
6.27977
  0
LINE
  8
0
 10
-4.3972
 20
6.27977
 11
-4.45103
 21
6.36459
  0
LINE
  8
0
 10
-4.45103
 20
6.36459
 11
-4.49382
 21
6.45549
  0
LINE
  8
0
 10
-4.49382
 20
6.45549
 11
-4.52486
 21
6.55104
  0
LINE
  8
0
 10
-4.52486
 20
6.55104
 11
-4.54369
 21
6.64972
  0
LINE
  8
0
 10
-4.54369
 20
6.64972
 11
-4.54999
 21
6.75
  0
LINE
  8
0
 10
-4.54999
 20
6.75
 11
-4.54369
 21
6.85027
  0
LINE
  8
0
 10
-4.54369
 20
6.85027
 11
-4.52486
 21
6.94894
  0
LINE
  8
0
 10
-4.52486
 20
6.94894
 11
-4.49382
 21
7.04449
  0
LINE
  8
0
 10
-4.49382
 20
7.04449
 11
-4.45103
 21
7.13539
  0
LINE
  8
0
 10
-4.45103
 20
7.13539
 11
-4.3972
 21
7.22021
  0
LINE
  8
0
 10
-4.3972
 20
7.22021
 11
-4.33316
 21
7.29762
  0
LINE
  8
0
 10
-4.33316
 20
7.29762
 11
-4.25993
 21
7.36641
  0
LINE
  8
0
 10
-4.25993
 20
7.36641
 11
-4.17865
 21
7.42546
  0
LINE
  8
0
 10
-4.17865
 20
7.42546
 11
-4.09062
 21
7.47385
  0
LINE
  8
0
 10
-4.09062
 20
7.47385
 11
-3.99721
 21
7.51083
  0
LINE
  8
0
 10
-3.99721
 20
7.51083
 11
-3.8999
 21
7.53583
  0
LINE
  8
0
 10
-3.8999
 20
7.53583
 11
-3.80023
 21
7.54842
  0
LINE
  8
0
 10
-3.80023
 20
7.54842
 11
-3.69975
 21
7.54842
  0
LINE
  8
0
 10
-3.69975
 20
7.54842
 11
-3.60008
 21
7.53583
  0
LINE
  8
0
 10
-3.60008
 20
7.53583
 11
-3.50278
 21
7.51083
  0
LINE
  8
0
 10
-3.50278
 20
7.51083
 11
-3.40936
 21
7.47385
  0
LINE
  8
0
 10
-3.40936
 20
7.47385
 11
-3.32133
 21
7.42546
  0
LINE
  8
0
 10
-3.32133
 20
7.42546
 11
-3.24005
 21
7.36641
  0
LINE
  8
0
 10
-3.24005
 20
7.36641
 11
-3.16682
 21
7.29762
  0
LINE
  8
0
 10
-3.16682
 20
7.29762
 11
-3.10278
 21
7.22021
  0
LINE
  8
0
 10
-3.10278
 20
7.22021
 11
-3.04895
 21
7.13539
  0
LINE
  8
0
 10
-3.04895
 20
7.13539
 11
-3.00616
 21
7.04449
  0
LINE
  8
0
 10
-3.00616
 20
7.04449
 11
-2.97513
 21
6.94894
  0
LINE
  8
0
 10
-2.97513
 20
6.94894
 11
-2.9563
 21
6.85027
  0
LINE
  8
0
 10
-2.9563
 20
6.85027
 11
-2.95
 21
6.75
  0
LINE
  8
0
 10
-2.95
 20
6.75
 11
-2.9563
 21
6.64972
  0
LINE
  8
0
 10
-2.9563
 20
6.64972
 11
-2.97513
 21
6.55104
  0
LINE
  8
0
 10
-2.97513
 20
6.55104
 11
-3.00616
 21
6.45549
  0
LINE
  8
0
 10
-3.00616
 20
6.45549
 11
-3.04895
 21
6.36459
  0
LINE
  8
0
 10
-3.04895
 20
6.36459
 11
-3.10278
 21
6.27977
  0
LINE
  8
0
 10
-3.10278
 20
6.27977
 11
-3.16682
 21
6.20236
  0
LINE
  8
0
 10
-3.16682
 20
6.20236
 11
-3.24005
 21
6.13358
  0
LINE
  8
0
 10
-3.24005
 20
6.13358
 11
-3.32133
 21
6.07452
  0
LINE
  8
0
 10
-3.32133
 20
6.07452
 11
-3.40936
 21
6.02614
  0
LINE
  8
0
 10
-3.40936
 20
6.02614
 11
-3.50278
 21
5.98915
  0
LINE
  8
0
 10
-3.50278
 20
5.98915
 11
-3.60008
 21
5.96416
  0
LINE
  8
0
 10
-3.60008
 20
5.96416
 11
-3.69975
 21
5.95157
  0
LINE
  8
0
 10
-3.69975
 20
5.95157
 11
-3.80023
 21
5.95157
  0
LINE
  8
0
 10
-10.2483
 20
1.5
 11
-10.2483
 21
4
  0
LINE
  8
0
 10
-10.2483
 20
4
 11
-4.75166
 21
4
  0
LINE
  8
0
 10
-4.75166
 20
4
 11
-4.75166
 21
1.5
  0
LINE
  8
0
 10
-4.75166
 20
1.5
 11
-10.2483
 21
1.5
  0
LINE
  8
0
 10
-2.74832
 20
1.5
 11
-2.74832
 21
4
  0
LINE
  8
0
 10
-2.74832
 20
4
 11
2.74832
 21
4
  0
LINE
  8
0
 10
2.74832
 20
4
 11
2.74832
 21
1.5
  0
LINE
  8
0
 10
2.74832
 20
1.5
 11
-2.74832
 21
1.5
  0
LINE
  8
0
 10
4.75166
 20
1.5
 11
4.75166
 21
4
  0
LINE
  8
0
 10
4.75166
 20
4
 11
10.2483
 21
4
  0
LINE
  8
0
 10
10.2483
 20
4
 11
10.2483
 21
1.5
  0
LINE
  8
0
 10
10.2483
 20
1.5
 11
4.75166
 21
1.5
  0
ENDSEC
  0
SECTION
  2
OBJECTS
  0
DICTIONARY
  0
ENDSEC
  0
EOF
