<?xml version="1.0" standalone="no"?>
<!DOCTYPE svg PUBLIC "-//W3C//DTD SVG 1.1//EN" "http://www.w3.org/Graphics/SVG/1.1/DTD/svg11.dtd">
<svg width="74mm" height="44mm" viewBox="-52 -22 74 44" xmlns="http://www.w3.org/2000/svg" version="1.1">
<title>OpenSCAD Model</title>
<path d="
M 17.9369,21.9114 L 18.5451,21.7553 L 19.1289,21.5241 L 19.6791,21.2216 L 20.1871,20.8526 L 20.6448,20.4227
 L 21.0451,19.9389 L 21.3815,19.4088 L 21.6489,18.8406 L 21.8429,18.2434 L 21.9606,17.6267 L 22,17
 L 22,10 L 9.76219,10 L 8.92393,10.7872 L 7.50157,11.8206 L 5.96091,12.6676 L 4.32623,13.3148
 L 2.62334,13.752 L 0.879059,13.9724 L -0.879059,13.9724 L -2.62334,13.752 L -4.32623,13.3148 L -5.96091,12.6676
 L -7.50157,11.8206 L -8.92393,10.7872 L -10.2056,9.58365 L -11.3262,8.22899 L -12.2683,6.74454 L -13.0169,5.15373
 L -13.5602,3.48164 L -13.8896,1.75465 L -14,-0 L -13.8896,-1.75465 L -13.5602,-3.48164 L -13.0169,-5.15373
 L -12.2683,-6.74454 L -11.3262,-8.22899 L -10.2056,-9.58365 L -8.92393,-10.7872 L -7.50157,-11.8206 L -5.96091,-12.6676
 L -4.32623,-13.3148 L -2.62334,-13.752 L -0.879059,-13.9724 L 0.879059,-13.9724 L 2.62334,-13.752 L 4.32623,-13.3148
 L 5.96091,-12.6676 L 7.50157,-11.8206 L 8.92393,-10.7872 L 9.76219,-10 L 22,-10 L 22,-17
 L 21.9606,-17.6267 L 21.8429,-18.2434 L 21.6489,-18.8406 L 21.3815,-19.4088 L 21.0451,-19.9389 L 20.6448,-20.4227
 L 20.1871,-20.8526 L 19.6791,-21.2216 L 19.1289,-21.5241 L 18.5451,-21.7553 L 17.9369,-21.9114 L 17.3139,-21.9901
 L -47.3139,-21.9901 L -47.9369,-21.9114 L -48.5451,-21.7553 L -49.1289,-21.5241 L -49.6791,-21.2216 L -50.1871,-20.8526
 L -50.6448,-20.4227 L -51.0451,-19.9389 L -51.3815,-19.4088 L -51.6489,-18.8406 L -51.8429,-18.2434 L -51.9606,-17.6267
 L -52,-17 L -52,17 L -51.9606,17.6267 L -51.8429,18.2434 L -51.6489,18.8406 L -51.3815,19.4088
 L -51.0451,19.9389 L -50.6448,20.4227 L -50.1871,20.8526 L -49.6791,21.2216 L -49.1289,21.5241 L -48.5451,21.7553
 L -47.9369,21.9114 L -47.3139,21.9901 L 17.3139,21.9901 z
M -30.1884,-12.0059 L -30.5621,-12.0531 L -30.927,-12.1468 L -31.2773,-12.2855 L -31.6075,-12.467 L -31.9123,-12.6884
 L -32.1869,-12.9464 L -32.427,-13.2366 L -32.6289,-13.5547 L -32.7893,-13.8956 L -32.9057,-14.2539 L -32.9763,-14.624
 L -33,-15 L -32.9763,-15.376 L -32.9057,-15.7461 L -32.7893,-16.1044 L -32.6289,-16.4453 L -32.427,-16.7634
 L -32.1869,-17.0536 L -31.9123,-17.3115 L -31.6075,-17.533 L -31.2773,-17.7145 L -30.927,-17.8532 L -30.5621,-17.9469
 L -30.1884,-17.9941 L -29.8116,-17.9941 L -29.4379,-17.9469 L -29.0729,-17.8532 L -28.7227,-17.7145 L -28.3925,-17.533
 L -28.0877,-17.3115 L -27.8131,-17.0536 L -27.5729,-16.7634 L -27.3711,-16.4453 L -27.2107,-16.1044 L -27.0942,-15.7461
 L -27.0237,-15.376 L -27,-15 L -27.0237,-14.624 L -27.0942,-14.2539 L -27.2107,-13.8956 L -27.3711,-13.5547
 L -27.5729,-13.2366 L -27.8131,-12.9464 L -28.0877,-12.6884 L -28.3925,-12.467 L -28.7227,-12.2855 L -29.0729,-12.1468
 L -29.4379,-12.0531 L -29.8116,-12.0059 z
M -45.1884,-12.0059 L -45.5621,-12.0531 L -45.927,-12.1468 L -46.2773,-12.2855 L -46.6075,-12.467 L -46.9123,-12.6884
 L -47.1869,-12.9464 L -47.427,-13.2366 L -47.6289,-13.5547 L -47.7893,-13.8956 L -47.9057,-14.2539 L -47.9763,-14.624
 L -48,-15 L -47.9763,-15.376 L -47.9057,-15.7461 L -47.7893,-16.1044 L -47.6289,-16.4453 L -47.427,-16.7634
 L -47.1869,-17.0536 L -46.9123,-17.3115 L -46.6075,-17.533 L -46.2773,-17.7145 L -45.927,-17.8532 L -45.5621,-17.9469
 L -45.1884,-17.9941 L -44.8116,-17.9941 L -44.4379,-17.9469 L -44.0729,-17.8532 L -43.7227,-17.7145 L -43.3925,-17.533
 L -43.0877,-17.3115 L -42.8131,-17.0536 L -42.5729,-16.7634 L -42.3711,-16.4453 L -42.2107,-16.1044 L -42.0942,-15.7461
 L -42.0237,-15.376 L -42,-15 L -42.0237,-14.624 L -42.0942,-14.2539 L -42.2107,-13.8956 L -42.3711,-13.5547
 L -42.5729,-13.2366 L -42.8131,-12.9464 L -43.0877,-12.6884 L -43.3925,-12.467 L -43.7227,-12.2855 L -44.0729,-12.1468
 L -44.4379,-12.0531 L -44.8116,-12.0059 z
M -15.5942,-14.0029 L -15.7811,-14.0266 L -15.9635,-14.0734 L -16.1387,-14.1427 L -16.3037,-14.2335 L -16.4561,-14.3442
 L -16.5934,-14.4732 L -16.7135,-14.6183 L -16.8145,-14.7774 L -16.8947,-14.9478 L -16.9529,-15.127 L -16.9882,-15.312
 L -17,-15.5 L -16.9882,-15.688 L -16.9529,-15.873 L -16.8947,-16.0522 L -16.8145,-16.2226 L -16.7135,-16.3817
 L -16.5934,-16.5268 L -16.4561,-16.6558 L -16.3037,-16.7665 L -16.1387,-16.8572 L -15.9635,-16.9266 L -15.7811,-16.9734
 L -15.5942,-16.997 L -15.4058,-16.997 L -15.2189,-16.9734 L -15.0365,-16.9266 L -14.8613,-16.8572 L -14.6963,-16.7665
 L -14.5439,-16.6558 L -14.4065,-16.5268 L -14.2865,-16.3817 L -14.1855,-16.2226 L -14.1053,-16.0522 L -14.0471,-15.873
 L -14.0118,-15.688 L -14,-15.5 L -14.0118,-15.312 L -14.0471,-15.127 L -14.1053,-14.9478 L -14.1855,-14.7774
 L -14.2865,-14.6183 L -14.4065,-14.4732 L -14.5439,-14.3442 L -14.6963,-14.2335 L -14.8613,-14.1427 L -15.0365,-14.0734
 L -15.2189,-14.0266 L -15.4058,-14.0029 z
M 15.4058,-14.0029 L 15.2189,-14.0266 L 15.0365,-14.0734 L 14.8613,-14.1427 L 14.6963,-14.2335 L 14.5439,-14.3442
 L 14.4065,-14.4732 L 14.2865,-14.6183 L 14.1855,-14.7774 L 14.1053,-14.9478 L 14.0471,-15.127 L 14.0118,-15.312
 L 14,-15.5 L 14.0118,-15.688 L 14.0471,-15.873 L 14.1053,-16.0522 L 14.1855,-16.2226 L 14.2865,-16.3817
 L 14.4065,-16.5268 L 14.5439,-16.6558 L 14.6963,-16.7665 L 14.8613,-16.8572 L 15.0365,-16.9266 L 15.2189,-16.9734
 L 15.4058,-16.997 L 15.5942,-16.997 L 15.7811,-16.9734 L 15.9635,-16.9266 L 16.1387,-16.8572 L 16.3037,-16.7665
 L 16.4561,-16.6558 L 16.5934,-16.5268 L 16.7135,-16.3817 L 16.8145,-16.2226 L 16.8947,-16.0522 L 16.9529,-15.873
 L 16.9882,-15.688 L 17,-15.5 L 16.9882,-15.312 L 16.9529,-15.127 L 16.8947,-14.9478 L 16.8145,-14.7774
 L 16.7135,-14.6183 L 16.5934,-14.4732 L 16.4561,-14.3442 L 16.3037,-14.2335 L 16.1387,-14.1427 L 15.9635,-14.0734
 L 15.7811,-14.0266 L 15.5942,-14.0029 z
M -45.1884,2.99408 L -45.5621,2.94685 L -45.927,2.85316 L -46.2773,2.71448 L -46.6075,2.53297 L -46.9123,2.31154
 L -47.1869,2.05363 L -47.427,1.76335 L -47.6289,1.44525 L -47.7893,1.10437 L -47.9057,0.746063 L -47.9763,0.375992
 L -48,-0 L -47.9763,-0.375992 L -47.9057,-0.746063 L -47.7893,-1.10437 L -47.6289,-1.44525 L -47.427,-1.76335
 L -47.1869,-2.05363 L -46.9123,-2.31154 L -46.6075,-2.53297 L -46.2773,-2.71448 L -45.927,-2.85316 L -45.5621,-2.94685
 L -45.1884,-2.99408 L -44.8116,-2.99408 L -44.4379,-2.94685 L -44.0729,-2.85316 L -43.7227,-2.71448 L -43.3925,-2.53297
 L -43.0877,-2.31154 L -42.8131,-2.05363 L -42.5729,-1.76335 L -42.3711,-1.44525 L -42.2107,-1.10437 L -42.0942,-0.746063
 L -42.0237,-0.375992 L -42,-0 L -42.0237,0.375992 L -42.0942,0.746063 L -42.2107,1.10437 L -42.3711,1.44525
 L -42.5729,1.76335 L -42.8131,2.05363 L -43.0877,2.31154 L -43.3925,2.53297 L -43.7227,2.71448 L -44.0729,2.85316
 L -44.4379,2.94685 L -44.8116,2.99408 z
M -30.1884,2.99408 L -30.5621,2.94685 L -30.927,2.85316 L -31.2773,2.71448 L -31.6075,2.53297 L -31.9123,2.31154
 L -32.1869,2.05363 L -32.427,1.76335 L -32.6289,1.44525 L -32.7893,1.10437 L -32.9057,0.746063 L -32.9763,0.375992
 L -33,-0 L -32.9763,-0.375992 L -32.9057,-0.746063 L -32.7893,-1.10437 L -32.6289,-1.44525 L -32.427,-1.76335
 L -32.1869,-2.05363 L -31.9123,-2.31154 L -31.6075,-2.53297 L -31.2773,-2.71448 L -30.927,-2.85316 L -30.5621,-2.94685
 L -30.1884,-2.99408 L -29.8116,-2.99408 L -29.4379,-2.94685 L -29.0729,-2.85316 L -28.7227,-2.71448 L -28.3925,-2.53297
 L -28.0877,-2.31154 L -27.8131,-2.05363 L -27.5729,-1.76335 L -27.3711,-1.44525 L -27.2107,-1.10437 L -27.0942,-0.746063
 L -27.0237,-0.375992 L -27,-0 L -27.0237,0.375992 L -27.0942,0.746063 L -27.2107,1.10437 L -27.3711,1.44525
 L -27.5729,1.76335 L -27.8131,2.05363 L -28.0877,2.31154 L -28.3925,2.53297 L -28.7227,2.71448 L -29.0729,2.85316
 L -29.4379,2.94685 L -29.8116,2.99408 z
M -45.1884,17.9941 L -45.5621,17.9469 L -45.927,17.8532 L -46.2773,17.7145 L -46.6075,17.533 L -46.9123,17.3115
 L -47.1869,17.0536 L -47.427,16.7634 L -47.6289,16.4453 L -47.7893,16.1044 L -47.9057,15.7461 L -47.9763,15.376
 L -48,15 L -47.9763,14.624 L -47.9057,14.2539 L -47.7893,13.8956 L -47.6289,13.5547 L -47.427,13.2366
 L -47.1869,12.9464 L -46.9123,12.6884 L -46.6075,12.467 L -46.2773,12.2855 L -45.927,12.1468 L -45.5621,12.0531
 L -45.1884,12.0059 L -44.8116,12.0059 L -44.4379,12.0531 L -44.0729,12.1468 L -43.7227,12.2855 L -43.3925,12.467
 L -43.0877,12.6884 L -42.8131,12.9464 L -42.5729,13.2366 L -42.3711,13.5547 L -42.2107,13.8956 L -42.0942,14.2539
 L -42.0237,14.624 L -42,15 L -42.0237,15.376 L -42.0942,15.7461 L -42.2107,16.1044 L -42.3711,16.4453
 L -42.5729,16.7634 L -42.8131,17.0536 L -43.0877,17.3115 L -43.3925,17.533 L -43.7227,17.7145 L -44.0729,17.8532
 L -44.4379,17.9469 L -44.8116,17.9941 z
M -30.1884,17.9941 L -30.5621,17.9469 L -30.927,17.8532 L -31.2773,17.7145 L -31.6075,17.533 L -31.9123,17.3115
 L -32.1869,17.0536 L -32.427,16.7634 L -32.6289,16.4453 L -32.7893,16.1044 L -32.9057,15.7461 L -32.9763,15.376
 L -33,15 L -32.9763,14.624 L -32.9057,14.2539 L -32.7893,13.8956 L -32.6289,13.5547 L -32.427,13.2366
 L -32.1869,12.9464 L -31.9123,12.6884 L -31.6075,12.467 L -31.2773,12.2855 L -30.927,12.1468 L -30.5621,12.0531
 L -30.1884,12.0059 L -29.8116,12.0059 L -29.4379,12.0531 L -29.0729,12.1468 L -28.7227,12.2855 L -28.3925,12.467
 L -28.0877,12.6884 L -27.8131,12.9464 L -27.5729,13.2366 L -27.3711,13.5547 L -27.2107,13.8956 L -27.0942,14.2539
 L -27.0237,14.624 L -27,15 L -27.0237,15.376 L -27.0942,15.7461 L -27.2107,16.1044 L -27.3711,16.4453
 L -27.5729,16.7634 L -27.8131,17.0536 L -28.0877,17.3115 L -28.3925,17.533 L -28.7227,17.7145 L -29.0729,17.8532
 L -29.4379,17.9469 L -29.8116,17.9941 z
M -15.5942,16.997 L -15.7811,16.9734 L -15.9635,16.9266 L -16.1387,16.8572 L -16.3037,16.7665 L -16.4561,16.6558
 L -16.5934,16.5268 L -16.7135,16.3817 L -16.8145,16.2226 L -16.8947,16.0522 L -16.9529,15.873 L -16.9882,15.688
 L -17,15.5 L -16.9882,15.312 L -16.9529,15.127 L -16.8947,14.9478 L -16.8145,14.7774 L -16.7135,14.6183
 L -16.5934,14.4732 L -16.4561,14.3442 L -16.3037,14.2335 L -16.1387,14.1427 L -15.9635,14.0734 L -15.7811,14.0266
 L -15.5942,14.0029 L -15.4058,14.0029 L -15.2189,14.0266 L -15.0365,14.0734 L -14.8613,14.1427 L -14.6963,14.2335
 L -14.5439,14.3442 L -14.4065,14.4732 L -14.2865,14.6183 L -14.1855,14.7774 L -14.1053,14.9478 L -14.0471,15.127
 L -14.0118,15.312 L -14,15.5 L -14.0118,15.688 L -14.0471,15.873 L -14.1053,16.0522 L -14.1855,16.2226
 L -14.2865,16.3817 L -14.4065,16.5268 L -14.5439,16.6558 L -14.6963,16.7665 L -14.8613,16.8572 L -15.0365,16.9266
 L -15.2189,16.9734 L -15.4058,16.997 z
M 15.4058,16.997 L 15.2189,16.9734 L 15.0365,16.9266 L 14.8613,16.8572 L 14.6963,16.7665 L 14.5439,16.6558
 L 14.4065,16.5268 L 14.2865,16.3817 L 14.1855,16.2226 L 14.1053,16.0522 L 14.0471,15.873 L 14.0118,15.688
 L 14,15.5 L 14.0118,15.312 L 14.0471,15.127 L 14.1053,14.9478 L 14.1855,14.7774 L 14.2865,14.6183
 L 14.4065,14.4732 L 14.5439,14.3442 L 14.6963,14.2335 L 14.8613,14.1427 L 15.0365,14.0734 L 15.2189,14.0266
 L 15.4058,14.0029 L 15.5942,14.0029 L 15.7811,14.0266 L 15.9635,14.0734 L 16.1387,14.1427 L 16.3037,14.2335
 L 16.4561,14.3442 L 16.5934,14.4732 L 16.7135,14.6183 L 16.8145,14.7774 L 16.8947,14.9478 L 16.9529,15.127
 L 16.9882,15.312 L 17,15.5 L 16.9882,15.688 L 16.9529,15.873 L 16.8947,16.0522 L 16.8145,16.2226
 L 16.7135,16.3817 L 16.5934,16.5268 L 16.4561,16.6558 L 16.3037,16.7665 L 16.1387,16.8572 L 15.9635,16.9266
 L 15.7811,16.9734 L 15.5942,16.997 z
" stroke="black" fill="lightgray" stroke-width="0.5"/>
</svg>
