<?xml version="1.0" standalone="no"?>
<!DOCTYPE svg PUBLIC "-//W3C//DTD SVG 1.1//EN" "http://www.w3.org/Graphics/SVG/1.1/DTD/svg11.dtd">
<svg width="4mm" height="14mm" viewBox="-2 -12 4 14" xmlns="http://www.w3.org/2000/svg" version="1.1">
<title>OpenSCAD Model</title>
<path d="
M 0.327362,-8.28389 L 0.539856,-8.33846 L 0.743851,-8.41922 L 0.936111,-8.52492 L 1.11362,-8.65387 L 1.27354,-8.80406
 L 1.41339,-8.97311 L 1.53094,-9.15836 L 1.62436,-9.35687 L 1.69217,-9.56554 L 1.73328,-9.78104 L 1.74706,-10
 L 1.73328,-10.219 L 1.69217,-10.4345 L 1.62436,-10.6431 L 1.53094,-10.8416 L 1.41339,-11.0269 L 1.27354,-11.1959
 L 1.11362,-11.3461 L 0.936111,-11.4751 L 0.743851,-11.5808 L 0.539856,-11.6615 L 0.327362,-11.7161 L 0.109695,-11.7436
 L -0.109695,-11.7436 L -0.327362,-11.7161 L -0.539856,-11.6615 L -0.743851,-11.5808 L -0.936111,-11.4751 L -1.11362,-11.3461
 L -1.27354,-11.1959 L -1.41339,-11.0269 L -1.53094,-10.8416 L -1.62436,-10.6431 L -1.69217,-10.4345 L -1.73328,-10.219
 L -1.74706,-10 L -1.73328,-9.78104 L -1.69217,-9.56554 L -1.62436,-9.35687 L -1.53094,-9.15836 L -1.41339,-8.97311
 L -1.27354,-8.80406 L -1.11362,-8.65387 L -0.936111,-8.52492 L -0.743851,-8.41922 L -0.539856,-8.33846 L -0.327362,-8.28389
 L -0.109695,-8.25639 L 0.109695,-8.25639 z
M 0.281067,1.47342 L 0.463516,1.42657 L 0.638657,1.35724 L 0.803726,1.26648 L 0.956131,1.15576 L 1.09344,1.02681
 L 1.21352,0.881668 L 1.31445,0.722626 L 1.39465,0.552185 L 1.45287,0.373032 L 1.48816,0.187988 L 1.5,-0
 L 1.48816,-0.187988 L 1.45287,-0.373032 L 1.39465,-0.552185 L 1.31445,-0.722626 L 1.21352,-0.881668 L 1.09344,-1.02681
 L 0.956131,-1.15576 L 0.803726,-1.26648 L 0.638657,-1.35724 L 0.463516,-1.42657 L 0.281067,-1.47342 L 0.0941772,-1.49704
 L -0.0941772,-1.49704 L -0.281067,-1.47342 L -0.463516,-1.42657 L -0.638657,-1.35724 L -0.803726,-1.26648 L -0.956131,-1.15576
 L -1.09344,-1.02681 L -1.21352,-0.881668 L -1.31445,-0.722626 L -1.39465,-0.552185 L -1.45287,-0.373032 L -1.48816,-0.187988
 L -1.5,-0 L -1.48816,0.187988 L -1.45287,0.373032 L -1.39465,0.552185 L -1.31445,0.722626 L -1.21352,0.881668
 L -1.09344,1.02681 L -0.956131,1.15576 L -0.803726,1.26648 L -0.638657,1.35724 L -0.463516,1.42657 L -0.281067,1.47342
 L -0.0941772,1.49704 L 0.0941772,1.49704 z
" stroke="black" fill="lightgray" stroke-width="0.5"/>
</svg>
