solid OpenSCAD_Model
  facet normal 0.998027 0.0627852 0
    outer loop
      vertex 2.6 0 0.75
      vertex 2.5795 0.325866 0
      vertex 2.5795 0.325866 0.75
    endloop
  endfacet
  facet normal 0.998027 0.0627852 0
    outer loop
      vertex 2.5795 0.325866 0
      vertex 2.6 0 0.75
      vertex 2.6 0 0
    endloop
  endfacet
  facet normal -0.998027 0.0627852 0
    outer loop
      vertex -2.6 0 0
      vertex -2.5795 0.325866 0.75
      vertex -2.5795 0.325866 0
    endloop
  endfacet
  facet normal -0.998027 0.0627852 0
    outer loop
      vertex -2.5795 0.325866 0.75
      vertex -2.6 0 0
      vertex -2.6 0 0.75
    endloop
  endfacet
  facet normal 0 1 -0
    outer loop
      vertex 0.163255 2.59487 0
      vertex -0.163255 2.59487 0.75
      vertex 0.163255 2.59487 0.75
    endloop
  endfacet
  facet normal 0 1 0
    outer loop
      vertex -0.163255 2.59487 0.75
      vertex 0.163255 2.59487 0
      vertex -0.163255 2.59487 0
    endloop
  endfacet
  facet normal 0 -1 0
    outer loop
      vertex -0.163255 -2.59487 0
      vertex 0.163255 -2.59487 0.75
      vertex -0.163255 -2.59487 0.75
    endloop
  endfacet
  facet normal 0 -1 -0
    outer loop
      vertex 0.163255 -2.59487 0.75
      vertex -0.163255 -2.59487 0
      vertex 0.163255 -2.59487 0
    endloop
  endfacet
  facet normal 0.770521 -0.637415 0
    outer loop
      vertex 1.89532 -1.77982 0.75
      vertex 2.10344 -1.52824 0
      vertex 2.10344 -1.52824 0.75
    endloop
  endfacet
  facet normal 0.770521 -0.637415 0
    outer loop
      vertex 2.10344 -1.52824 0
      vertex 1.89532 -1.77982 0.75
      vertex 1.89532 -1.77982 0
    endloop
  endfacet
  facet normal 0.684538 0.728977 -0
    outer loop
      vertex 1.89532 1.77982 0
      vertex 1.6573 2.00333 0.75
      vertex 1.89532 1.77982 0.75
    endloop
  endfacet
  facet normal 0.684538 0.728977 0
    outer loop
      vertex 1.6573 2.00333 0.75
      vertex 1.89532 1.77982 0
      vertex 1.6573 2.00333 0
    endloop
  endfacet
  facet normal -0.684538 0.728977 0
    outer loop
      vertex -1.6573 2.00333 0
      vertex -1.89532 1.77982 0.75
      vertex -1.6573 2.00333 0.75
    endloop
  endfacet
  facet normal -0.684538 0.728977 0
    outer loop
      vertex -1.89532 1.77982 0.75
      vertex -1.6573 2.00333 0
      vertex -1.89532 1.77982 0
    endloop
  endfacet
  facet normal -0.368129 0.929775 0
    outer loop
      vertex -0.803444 2.47275 0
      vertex -1.10703 2.35255 0.75
      vertex -0.803444 2.47275 0.75
    endloop
  endfacet
  facet normal -0.368129 0.929775 0
    outer loop
      vertex -1.10703 2.35255 0.75
      vertex -0.803444 2.47275 0
      vertex -1.10703 2.35255 0
    endloop
  endfacet
  facet normal 0.904829 0.425775 0
    outer loop
      vertex 2.41742 0.957124 0.75
      vertex 2.2784 1.25256 0
      vertex 2.2784 1.25256 0.75
    endloop
  endfacet
  facet normal 0.904829 0.425775 0
    outer loop
      vertex 2.2784 1.25256 0
      vertex 2.41742 0.957124 0.75
      vertex 2.41742 0.957124 0
    endloop
  endfacet
  facet normal 0.844317 0.535845 0
    outer loop
      vertex 2.2784 1.25256 0.75
      vertex 2.10344 1.52824 0
      vertex 2.10344 1.52824 0.75
    endloop
  endfacet
  facet normal 0.844317 0.535845 0
    outer loop
      vertex 2.10344 1.52824 0
      vertex 2.2784 1.25256 0.75
      vertex 2.2784 1.25256 0
    endloop
  endfacet
  facet normal 0.368129 0.929775 -0
    outer loop
      vertex 1.10703 2.35255 0
      vertex 0.803444 2.47275 0.75
      vertex 1.10703 2.35255 0.75
    endloop
  endfacet
  facet normal 0.368129 0.929775 0
    outer loop
      vertex 0.803444 2.47275 0.75
      vertex 1.10703 2.35255 0
      vertex 0.803444 2.47275 0
    endloop
  endfacet
  facet normal 0.24869 0.968583 -0
    outer loop
      vertex 0.803444 2.47275 0
      vertex 0.487191 2.55395 0.75
      vertex 0.803444 2.47275 0.75
    endloop
  endfacet
  facet normal 0.24869 0.968583 0
    outer loop
      vertex 0.487191 2.55395 0.75
      vertex 0.803444 2.47275 0
      vertex 0.487191 2.55395 0
    endloop
  endfacet
  facet normal 0.587793 0.809011 -0
    outer loop
      vertex 1.6573 2.00333 0
      vertex 1.39315 2.19525 0.75
      vertex 1.6573 2.00333 0.75
    endloop
  endfacet
  facet normal 0.587793 0.809011 0
    outer loop
      vertex 1.39315 2.19525 0.75
      vertex 1.6573 2.00333 0
      vertex 1.39315 2.19525 0
    endloop
  endfacet
  facet normal -0.904829 0.425775 0
    outer loop
      vertex -2.41742 0.957124 0
      vertex -2.2784 1.25256 0.75
      vertex -2.2784 1.25256 0
    endloop
  endfacet
  facet normal -0.904829 0.425775 0
    outer loop
      vertex -2.2784 1.25256 0.75
      vertex -2.41742 0.957124 0
      vertex -2.41742 0.957124 0.75
    endloop
  endfacet
  facet normal -0.770521 0.637415 0
    outer loop
      vertex -2.10344 1.52824 0
      vertex -1.89532 1.77982 0.75
      vertex -1.89532 1.77982 0
    endloop
  endfacet
  facet normal -0.770521 0.637415 0
    outer loop
      vertex -1.89532 1.77982 0.75
      vertex -2.10344 1.52824 0
      vertex -2.10344 1.52824 0.75
    endloop
  endfacet
  facet normal 0 0 1
    outer loop
      vertex 2.5795 0.325866 0.75
      vertex 2.5795 -0.325866 0.75
      vertex 2.6 0 0.75
    endloop
  endfacet
  facet normal 0 0 1
    outer loop
      vertex 2.51832 0.646593 0.75
      vertex 2.5795 -0.325866 0.75
      vertex 2.5795 0.325866 0.75
    endloop
  endfacet
  facet normal 0 0 1
    outer loop
      vertex 2.51832 0.646593 0.75
      vertex 2.51832 -0.646593 0.75
      vertex 2.5795 -0.325866 0.75
    endloop
  endfacet
  facet normal 0 0 1
    outer loop
      vertex 2.41742 0.957124 0.75
      vertex 2.51832 -0.646593 0.75
      vertex 2.51832 0.646593 0.75
    endloop
  endfacet
  facet normal 0 0 1
    outer loop
      vertex 2.41742 0.957124 0.75
      vertex 2.41742 -0.957124 0.75
      vertex 2.51832 -0.646593 0.75
    endloop
  endfacet
  facet normal 0 0 1
    outer loop
      vertex 2.2784 1.25256 0.75
      vertex 2.41742 -0.957124 0.75
      vertex 2.41742 0.957124 0.75
    endloop
  endfacet
  facet normal 0 0 1
    outer loop
      vertex 2.2784 1.25256 0.75
      vertex 2.2784 -1.25256 0.75
      vertex 2.41742 -0.957124 0.75
    endloop
  endfacet
  facet normal 0 0 1
    outer loop
      vertex 2.10344 1.52824 0.75
      vertex 2.2784 -1.25256 0.75
      vertex 2.2784 1.25256 0.75
    endloop
  endfacet
  facet normal 0 0 1
    outer loop
      vertex 2.10344 1.52824 0.75
      vertex 2.10344 -1.52824 0.75
      vertex 2.2784 -1.25256 0.75
    endloop
  endfacet
  facet normal 0 0 1
    outer loop
      vertex 1.89532 1.77982 0.75
      vertex 2.10344 -1.52824 0.75
      vertex 2.10344 1.52824 0.75
    endloop
  endfacet
  facet normal 0 0 1
    outer loop
      vertex 1.89532 1.77982 0.75
      vertex 1.89532 -1.77982 0.75
      vertex 2.10344 -1.52824 0.75
    endloop
  endfacet
  facet normal 0 0 1
    outer loop
      vertex 1.6573 2.00333 0.75
      vertex 1.89532 -1.77982 0.75
      vertex 1.89532 1.77982 0.75
    endloop
  endfacet
  facet normal 0 0 1
    outer loop
      vertex 1.6573 2.00333 0.75
      vertex 1.6573 -2.00333 0.75
      vertex 1.89532 -1.77982 0.75
    endloop
  endfacet
  facet normal 0 0 1
    outer loop
      vertex 1.39315 2.19525 0.75
      vertex 1.6573 -2.00333 0.75
      vertex 1.6573 2.00333 0.75
    endloop
  endfacet
  facet normal 0 0 1
    outer loop
      vertex 1.39315 2.19525 0.75
      vertex 1.39315 -2.19525 0.75
      vertex 1.6573 -2.00333 0.75
    endloop
  endfacet
  facet normal 0 0 1
    outer loop
      vertex 1.10703 2.35255 0.75
      vertex 1.39315 -2.19525 0.75
      vertex 1.39315 2.19525 0.75
    endloop
  endfacet
  facet normal 0 0 1
    outer loop
      vertex 1.10703 2.35255 0.75
      vertex 1.10703 -2.35255 0.75
      vertex 1.39315 -2.19525 0.75
    endloop
  endfacet
  facet normal 0 0 1
    outer loop
      vertex 0.803444 2.47275 0.75
      vertex 1.10703 -2.35255 0.75
      vertex 1.10703 2.35255 0.75
    endloop
  endfacet
  facet normal 0 0 1
    outer loop
      vertex 0.803444 2.47275 0.75
      vertex 0.803444 -2.47275 0.75
      vertex 1.10703 -2.35255 0.75
    endloop
  endfacet
  facet normal 0 0 1
    outer loop
      vertex 0.487191 2.55395 0.75
      vertex 0.803444 -2.47275 0.75
      vertex 0.803444 2.47275 0.75
    endloop
  endfacet
  facet normal 0 0 1
    outer loop
      vertex 0.487191 2.55395 0.75
      vertex 0.487191 -2.55395 0.75
      vertex 0.803444 -2.47275 0.75
    endloop
  endfacet
  facet normal 0 0 1
    outer loop
      vertex 0.163255 2.59487 0.75
      vertex 0.487191 -2.55395 0.75
      vertex 0.487191 2.55395 0.75
    endloop
  endfacet
  facet normal 0 0 1
    outer loop
      vertex 0.163255 2.59487 0.75
      vertex 0.163255 -2.59487 0.75
      vertex 0.487191 -2.55395 0.75
    endloop
  endfacet
  facet normal -0 0 1
    outer loop
      vertex -0.163255 2.59487 0.75
      vertex 0.163255 -2.59487 0.75
      vertex 0.163255 2.59487 0.75
    endloop
  endfacet
  facet normal 0 0 1
    outer loop
      vertex -0.163255 2.59487 0.75
      vertex -0.163255 -2.59487 0.75
      vertex 0.163255 -2.59487 0.75
    endloop
  endfacet
  facet normal -0 0 1
    outer loop
      vertex -0.487191 2.55395 0.75
      vertex -0.163255 -2.59487 0.75
      vertex -0.163255 2.59487 0.75
    endloop
  endfacet
  facet normal 0 0 1
    outer loop
      vertex -0.487191 2.55395 0.75
      vertex -0.487191 -2.55395 0.75
      vertex -0.163255 -2.59487 0.75
    endloop
  endfacet
  facet normal -0 0 1
    outer loop
      vertex -0.803444 2.47275 0.75
      vertex -0.487191 -2.55395 0.75
      vertex -0.487191 2.55395 0.75
    endloop
  endfacet
  facet normal 0 0 1
    outer loop
      vertex -0.803444 2.47275 0.75
      vertex -0.803444 -2.47275 0.75
      vertex -0.487191 -2.55395 0.75
    endloop
  endfacet
  facet normal -0 0 1
    outer loop
      vertex -1.10703 2.35255 0.75
      vertex -0.803444 -2.47275 0.75
      vertex -0.803444 2.47275 0.75
    endloop
  endfacet
  facet normal 0 0 1
    outer loop
      vertex -1.10703 2.35255 0.75
      vertex -1.10703 -2.35255 0.75
      vertex -0.803444 -2.47275 0.75
    endloop
  endfacet
  facet normal -0 0 1
    outer loop
      vertex -1.39315 2.19525 0.75
      vertex -1.10703 -2.35255 0.75
      vertex -1.10703 2.35255 0.75
    endloop
  endfacet
  facet normal 0 0 1
    outer loop
      vertex -1.39315 2.19525 0.75
      vertex -1.39315 -2.19525 0.75
      vertex -1.10703 -2.35255 0.75
    endloop
  endfacet
  facet normal -0 0 1
    outer loop
      vertex -1.6573 2.00333 0.75
      vertex -1.39315 -2.19525 0.75
      vertex -1.39315 2.19525 0.75
    endloop
  endfacet
  facet normal 0 0 1
    outer loop
      vertex -1.6573 2.00333 0.75
      vertex -1.6573 -2.00333 0.75
      vertex -1.39315 -2.19525 0.75
    endloop
  endfacet
  facet normal -0 0 1
    outer loop
      vertex -1.89532 1.77982 0.75
      vertex -1.6573 -2.00333 0.75
      vertex -1.6573 2.00333 0.75
    endloop
  endfacet
  facet normal 0 0 1
    outer loop
      vertex -1.89532 1.77982 0.75
      vertex -1.89532 -1.77982 0.75
      vertex -1.6573 -2.00333 0.75
    endloop
  endfacet
  facet normal -0 0 1
    outer loop
      vertex -2.10344 1.52824 0.75
      vertex -1.89532 -1.77982 0.75
      vertex -1.89532 1.77982 0.75
    endloop
  endfacet
  facet normal 0 0 1
    outer loop
      vertex -2.10344 1.52824 0.75
      vertex -2.10344 -1.52824 0.75
      vertex -1.89532 -1.77982 0.75
    endloop
  endfacet
  facet normal -0 0 1
    outer loop
      vertex -2.2784 1.25256 0.75
      vertex -2.10344 -1.52824 0.75
      vertex -2.10344 1.52824 0.75
    endloop
  endfacet
  facet normal 0 0 1
    outer loop
      vertex -2.2784 1.25256 0.75
      vertex -2.2784 -1.25256 0.75
      vertex -2.10344 -1.52824 0.75
    endloop
  endfacet
  facet normal -0 0 1
    outer loop
      vertex -2.41742 0.957124 0.75
      vertex -2.2784 -1.25256 0.75
      vertex -2.2784 1.25256 0.75
    endloop
  endfacet
  facet normal 0 0 1
    outer loop
      vertex -2.41742 0.957124 0.75
      vertex -2.41742 -0.957124 0.75
      vertex -2.2784 -1.25256 0.75
    endloop
  endfacet
  facet normal -0 0 1
    outer loop
      vertex -2.51832 0.646593 0.75
      vertex -2.41742 -0.957124 0.75
      vertex -2.41742 0.957124 0.75
    endloop
  endfacet
  facet normal 0 0 1
    outer loop
      vertex -2.51832 0.646593 0.75
      vertex -2.51832 -0.646593 0.75
      vertex -2.41742 -0.957124 0.75
    endloop
  endfacet
  facet normal -0 0 1
    outer loop
      vertex -2.5795 0.325866 0.75
      vertex -2.51832 -0.646593 0.75
      vertex -2.51832 0.646593 0.75
    endloop
  endfacet
  facet normal 0 0 1
    outer loop
      vertex -2.5795 0.325866 0.75
      vertex -2.5795 -0.325866 0.75
      vertex -2.51832 -0.646593 0.75
    endloop
  endfacet
  facet normal 0 -0 1
    outer loop
      vertex -2.5795 -0.325866 0.75
      vertex -2.5795 0.325866 0.75
      vertex -2.6 0 0.75
    endloop
  endfacet
  facet normal -0.481764 0.876301 0
    outer loop
      vertex -1.10703 2.35255 0
      vertex -1.39315 2.19525 0.75
      vertex -1.10703 2.35255 0.75
    endloop
  endfacet
  facet normal -0.481764 0.876301 0
    outer loop
      vertex -1.39315 2.19525 0.75
      vertex -1.10703 2.35255 0
      vertex -1.39315 2.19525 0
    endloop
  endfacet
  facet normal -0.24869 0.968583 0
    outer loop
      vertex -0.487191 2.55395 0
      vertex -0.803444 2.47275 0.75
      vertex -0.487191 2.55395 0.75
    endloop
  endfacet
  facet normal -0.24869 0.968583 0
    outer loop
      vertex -0.803444 2.47275 0.75
      vertex -0.487191 2.55395 0
      vertex -0.803444 2.47275 0
    endloop
  endfacet
  facet normal 0 0 -1
    outer loop
      vertex 0.75 0 0
      vertex 2.6 0 0
      vertex 2.5795 -0.325866 0
    endloop
  endfacet
  facet normal 0 0 -1
    outer loop
      vertex 0.744085 -0.0939999 0
      vertex 2.5795 -0.325866 0
      vertex 2.51832 -0.646593 0
    endloop
  endfacet
  facet normal 0 0 -1
    outer loop
      vertex 2.6 0 0
      vertex 0.75 0 0
      vertex 2.5795 0.325866 0
    endloop
  endfacet
  facet normal 0 0 -1
    outer loop
      vertex 0.726437 -0.186517 0
      vertex 2.51832 -0.646593 0
      vertex 2.41742 -0.957124 0
    endloop
  endfacet
  facet normal 0 0 -1
    outer loop
      vertex 0.744085 0.0939999 0
      vertex 2.5795 0.325866 0
      vertex 0.75 0 0
    endloop
  endfacet
  facet normal 0 0 -1
    outer loop
      vertex 0.697331 -0.276093 0
      vertex 2.41742 -0.957124 0
      vertex 2.2784 -1.25256 0
    endloop
  endfacet
  facet normal -0 0 -1
    outer loop
      vertex 2.5795 0.325866 0
      vertex 0.744085 0.0939999 0
      vertex 2.51832 0.646593 0
    endloop
  endfacet
  facet normal 0 0 -1
    outer loop
      vertex 0.657229 -0.361315 0
      vertex 2.2784 -1.25256 0
      vertex 2.10344 -1.52824 0
    endloop
  endfacet
  facet normal 0 0 -1
    outer loop
      vertex 0.726437 0.186517 0
      vertex 2.51832 0.646593 0
      vertex 0.744085 0.0939999 0
    endloop
  endfacet
  facet normal 0 0 -1
    outer loop
      vertex 0.606762 -0.440839 0
      vertex 2.10344 -1.52824 0
      vertex 1.89532 -1.77982 0
    endloop
  endfacet
  facet normal -0 0 -1
    outer loop
      vertex 2.51832 0.646593 0
      vertex 0.726437 0.186517 0
      vertex 2.41742 0.957124 0
    endloop
  endfacet
  facet normal 0 0 -1
    outer loop
      vertex 0.546726 -0.51341 0
      vertex 1.89532 -1.77982 0
      vertex 1.6573 -2.00333 0
    endloop
  endfacet
  facet normal 0 0 -1
    outer loop
      vertex 0.697331 0.276093 0
      vertex 2.41742 0.957124 0
      vertex 0.726437 0.186517 0
    endloop
  endfacet
  facet normal 0 0 -1
    outer loop
      vertex 0.478067 -0.577885 0
      vertex 1.6573 -2.00333 0
      vertex 1.39315 -2.19525 0
    endloop
  endfacet
  facet normal -0 0 -1
    outer loop
      vertex 2.41742 0.957124 0
      vertex 0.697331 0.276093 0
      vertex 2.2784 1.25256 0
    endloop
  endfacet
  facet normal 0 0 -1
    outer loop
      vertex 0.40187 -0.633245 0
      vertex 1.39315 -2.19525 0
      vertex 1.10703 -2.35255 0
    endloop
  endfacet
  facet normal 0 0 -1
    outer loop
      vertex 0.657229 0.361315 0
      vertex 2.2784 1.25256 0
      vertex 0.697331 0.276093 0
    endloop
  endfacet
  facet normal 0 0 -1
    outer loop
      vertex 0.319334 -0.678619 0
      vertex 1.10703 -2.35255 0
      vertex 0.803444 -2.47275 0
    endloop
  endfacet
  facet normal -0 0 -1
    outer loop
      vertex 2.2784 1.25256 0
      vertex 0.657229 0.361315 0
      vertex 2.10344 1.52824 0
    endloop
  endfacet
  facet normal 0 0 -1
    outer loop
      vertex 0.606762 0.440839 0
      vertex 2.10344 1.52824 0
      vertex 0.657229 0.361315 0
    endloop
  endfacet
  facet normal 0 0 -1
    outer loop
      vertex 2.5795 -0.325866 0
      vertex 0.744085 -0.0939999 0
      vertex 0.75 0 0
    endloop
  endfacet
  facet normal 0 0 -1
    outer loop
      vertex 2.51832 -0.646593 0
      vertex 0.726437 -0.186517 0
      vertex 0.744085 -0.0939999 0
    endloop
  endfacet
  facet normal 0 0 -1
    outer loop
      vertex 2.41742 -0.957124 0
      vertex 0.697331 -0.276093 0
      vertex 0.726437 -0.186517 0
    endloop
  endfacet
  facet normal 0 0 -1
    outer loop
      vertex 2.2784 -1.25256 0
      vertex 0.657229 -0.361315 0
      vertex 0.697331 -0.276093 0
    endloop
  endfacet
  facet normal 0 0 -1
    outer loop
      vertex 2.10344 -1.52824 0
      vertex 0.606762 -0.440839 0
      vertex 0.657229 -0.361315 0
    endloop
  endfacet
  facet normal 0 0 -1
    outer loop
      vertex 1.89532 -1.77982 0
      vertex 0.546726 -0.51341 0
      vertex 0.606762 -0.440839 0
    endloop
  endfacet
  facet normal 0 0 -1
    outer loop
      vertex 0.231762 -0.713292 0
      vertex 0.803444 -2.47275 0
      vertex 0.487191 -2.55395 0
    endloop
  endfacet
  facet normal 0 0 -1
    outer loop
      vertex 1.6573 -2.00333 0
      vertex 0.478067 -0.577885 0
      vertex 0.546726 -0.51341 0
    endloop
  endfacet
  facet normal 0 0 -1
    outer loop
      vertex 1.39315 -2.19525 0
      vertex 0.40187 -0.633245 0
      vertex 0.478067 -0.577885 0
    endloop
  endfacet
  facet normal 0 0 -1
    outer loop
      vertex 1.10703 -2.35255 0
      vertex 0.319334 -0.678619 0
      vertex 0.40187 -0.633245 0
    endloop
  endfacet
  facet normal 0 0 -1
    outer loop
      vertex 0.803444 -2.47275 0
      vertex 0.231762 -0.713292 0
      vertex 0.319334 -0.678619 0
    endloop
  endfacet
  facet normal 0 0 -1
    outer loop
      vertex 0.140535 -0.736715 0
      vertex 0.487191 -2.55395 0
      vertex 0.163255 -2.59487 0
    endloop
  endfacet
  facet normal 0 0 -1
    outer loop
      vertex 0.487191 -2.55395 0
      vertex 0.140535 -0.736715 0
      vertex 0.231762 -0.713292 0
    endloop
  endfacet
  facet normal 0 0 -1
    outer loop
      vertex 0.163255 -2.59487 0
      vertex 0.0470924 -0.74852 0
      vertex 0.140535 -0.736715 0
    endloop
  endfacet
  facet normal 0 0 -1
    outer loop
      vertex 0.163255 -2.59487 0
      vertex -0.0470924 -0.74852 0
      vertex 0.0470924 -0.74852 0
    endloop
  endfacet
  facet normal 0 0 -1
    outer loop
      vertex -0.163255 -2.59487 0
      vertex -0.0470924 -0.74852 0
      vertex 0.163255 -2.59487 0
    endloop
  endfacet
  facet normal -0 0 -1
    outer loop
      vertex -0.0470924 -0.74852 0
      vertex -0.163255 -2.59487 0
      vertex -0.140535 -0.736715 0
    endloop
  endfacet
  facet normal 0 0 -1
    outer loop
      vertex -0.487191 -2.55395 0
      vertex -0.140535 -0.736715 0
      vertex -0.163255 -2.59487 0
    endloop
  endfacet
  facet normal -0 0 -1
    outer loop
      vertex -0.140535 -0.736715 0
      vertex -0.487191 -2.55395 0
      vertex -0.231762 -0.713292 0
    endloop
  endfacet
  facet normal 0 0 -1
    outer loop
      vertex -0.803444 -2.47275 0
      vertex -0.231762 -0.713292 0
      vertex -0.487191 -2.55395 0
    endloop
  endfacet
  facet normal -0 0 -1
    outer loop
      vertex -0.231762 -0.713292 0
      vertex -0.803444 -2.47275 0
      vertex -0.319334 -0.678619 0
    endloop
  endfacet
  facet normal 0 0 -1
    outer loop
      vertex -1.10703 -2.35255 0
      vertex -0.319334 -0.678619 0
      vertex -0.803444 -2.47275 0
    endloop
  endfacet
  facet normal -0 0 -1
    outer loop
      vertex -0.319334 -0.678619 0
      vertex -1.10703 -2.35255 0
      vertex -0.40187 -0.633245 0
    endloop
  endfacet
  facet normal 0 0 -1
    outer loop
      vertex -1.39315 -2.19525 0
      vertex -0.40187 -0.633245 0
      vertex -1.10703 -2.35255 0
    endloop
  endfacet
  facet normal -0 0 -1
    outer loop
      vertex -0.40187 -0.633245 0
      vertex -1.39315 -2.19525 0
      vertex -0.478067 -0.577885 0
    endloop
  endfacet
  facet normal 0 0 -1
    outer loop
      vertex -1.6573 -2.00333 0
      vertex -0.478067 -0.577885 0
      vertex -1.39315 -2.19525 0
    endloop
  endfacet
  facet normal -0 0 -1
    outer loop
      vertex -0.478067 -0.577885 0
      vertex -1.6573 -2.00333 0
      vertex -0.546726 -0.51341 0
    endloop
  endfacet
  facet normal 0 0 -1
    outer loop
      vertex -1.89532 -1.77982 0
      vertex -0.546726 -0.51341 0
      vertex -1.6573 -2.00333 0
    endloop
  endfacet
  facet normal 0 0 -1
    outer loop
      vertex -2.10344 -1.52824 0
      vertex -0.606762 -0.440839 0
      vertex -1.89532 -1.77982 0
    endloop
  endfacet
  facet normal -0 0 -1
    outer loop
      vertex -0.546726 -0.51341 0
      vertex -1.89532 -1.77982 0
      vertex -0.606762 -0.440839 0
    endloop
  endfacet
  facet normal -0 0 -1
    outer loop
      vertex 2.10344 1.52824 0
      vertex 0.606762 0.440839 0
      vertex 1.89532 1.77982 0
    endloop
  endfacet
  facet normal 0 0 -1
    outer loop
      vertex 0.546726 0.51341 0
      vertex 1.89532 1.77982 0
      vertex 0.606762 0.440839 0
    endloop
  endfacet
  facet normal -0 0 -1
    outer loop
      vertex 1.89532 1.77982 0
      vertex 0.546726 0.51341 0
      vertex 1.6573 2.00333 0
    endloop
  endfacet
  facet normal 0 0 -1
    outer loop
      vertex 0.478067 0.577885 0
      vertex 1.6573 2.00333 0
      vertex 0.546726 0.51341 0
    endloop
  endfacet
  facet normal -0 0 -1
    outer loop
      vertex 1.6573 2.00333 0
      vertex 0.478067 0.577885 0
      vertex 1.39315 2.19525 0
    endloop
  endfacet
  facet normal 0 0 -1
    outer loop
      vertex 0.40187 0.633245 0
      vertex 1.39315 2.19525 0
      vertex 0.478067 0.577885 0
    endloop
  endfacet
  facet normal -0 0 -1
    outer loop
      vertex 1.39315 2.19525 0
      vertex 0.40187 0.633245 0
      vertex 1.10703 2.35255 0
    endloop
  endfacet
  facet normal 0 0 -1
    outer loop
      vertex 0.319334 0.678619 0
      vertex 1.10703 2.35255 0
      vertex 0.40187 0.633245 0
    endloop
  endfacet
  facet normal -0 0 -1
    outer loop
      vertex 1.10703 2.35255 0
      vertex 0.319334 0.678619 0
      vertex 0.803444 2.47275 0
    endloop
  endfacet
  facet normal 0 0 -1
    outer loop
      vertex 0.231762 0.713292 0
      vertex 0.803444 2.47275 0
      vertex 0.319334 0.678619 0
    endloop
  endfacet
  facet normal -0 0 -1
    outer loop
      vertex 0.803444 2.47275 0
      vertex 0.231762 0.713292 0
      vertex 0.487191 2.55395 0
    endloop
  endfacet
  facet normal 0 0 -1
    outer loop
      vertex 0.140535 0.736715 0
      vertex 0.487191 2.55395 0
      vertex 0.231762 0.713292 0
    endloop
  endfacet
  facet normal -0 0 -1
    outer loop
      vertex 0.487191 2.55395 0
      vertex 0.140535 0.736715 0
      vertex 0.163255 2.59487 0
    endloop
  endfacet
  facet normal 0 0 -1
    outer loop
      vertex 0.0470924 0.74852 0
      vertex 0.163255 2.59487 0
      vertex 0.140535 0.736715 0
    endloop
  endfacet
  facet normal 0 0 -1
    outer loop
      vertex -0.0470924 0.74852 0
      vertex 0.163255 2.59487 0
      vertex 0.0470924 0.74852 0
    endloop
  endfacet
  facet normal 0 0 -1
    outer loop
      vertex -0.163255 2.59487 0
      vertex -0.0470924 0.74852 0
      vertex -0.140535 0.736715 0
    endloop
  endfacet
  facet normal 0 0 -1
    outer loop
      vertex -0.0470924 0.74852 0
      vertex -0.163255 2.59487 0
      vertex 0.163255 2.59487 0
    endloop
  endfacet
  facet normal 0 0 -1
    outer loop
      vertex -0.487191 2.55395 0
      vertex -0.140535 0.736715 0
      vertex -0.231762 0.713292 0
    endloop
  endfacet
  facet normal 0 0 -1
    outer loop
      vertex -0.803444 2.47275 0
      vertex -0.231762 0.713292 0
      vertex -0.319334 0.678619 0
    endloop
  endfacet
  facet normal 0 0 -1
    outer loop
      vertex -1.10703 2.35255 0
      vertex -0.319334 0.678619 0
      vertex -0.40187 0.633245 0
    endloop
  endfacet
  facet normal 0 0 -1
    outer loop
      vertex -1.39315 2.19525 0
      vertex -0.40187 0.633245 0
      vertex -0.478067 0.577885 0
    endloop
  endfacet
  facet normal 0 0 -1
    outer loop
      vertex -0.140535 0.736715 0
      vertex -0.487191 2.55395 0
      vertex -0.163255 2.59487 0
    endloop
  endfacet
  facet normal 0 0 -1
    outer loop
      vertex -1.6573 2.00333 0
      vertex -0.478067 0.577885 0
      vertex -0.546726 0.51341 0
    endloop
  endfacet
  facet normal 0 0 -1
    outer loop
      vertex -1.89532 1.77982 0
      vertex -0.546726 0.51341 0
      vertex -0.606762 0.440839 0
    endloop
  endfacet
  facet normal 0 0 -1
    outer loop
      vertex -2.10344 1.52824 0
      vertex -0.606762 0.440839 0
      vertex -0.657229 0.361315 0
    endloop
  endfacet
  facet normal 0 0 -1
    outer loop
      vertex -2.2784 1.25256 0
      vertex -0.657229 0.361315 0
      vertex -0.697331 0.276093 0
    endloop
  endfacet
  facet normal 0 0 -1
    outer loop
      vertex -2.41742 0.957124 0
      vertex -0.697331 0.276093 0
      vertex -0.726437 0.186517 0
    endloop
  endfacet
  facet normal 0 0 -1
    outer loop
      vertex -2.51832 0.646593 0
      vertex -0.726437 0.186517 0
      vertex -0.744085 0.0939999 0
    endloop
  endfacet
  facet normal 0 0 -1
    outer loop
      vertex -0.231762 0.713292 0
      vertex -0.803444 2.47275 0
      vertex -0.487191 2.55395 0
    endloop
  endfacet
  facet normal 0 0 -1
    outer loop
      vertex -2.5795 0.325866 0
      vertex -0.744085 0.0939999 0
      vertex -0.75 0 0
    endloop
  endfacet
  facet normal -0 0 -1
    outer loop
      vertex -0.606762 -0.440839 0
      vertex -2.10344 -1.52824 0
      vertex -0.657229 -0.361315 0
    endloop
  endfacet
  facet normal 0 0 -1
    outer loop
      vertex -2.2784 -1.25256 0
      vertex -0.657229 -0.361315 0
      vertex -2.10344 -1.52824 0
    endloop
  endfacet
  facet normal 0 0 -1
    outer loop
      vertex -0.319334 0.678619 0
      vertex -1.10703 2.35255 0
      vertex -0.803444 2.47275 0
    endloop
  endfacet
  facet normal -0 0 -1
    outer loop
      vertex -0.657229 -0.361315 0
      vertex -2.2784 -1.25256 0
      vertex -0.697331 -0.276093 0
    endloop
  endfacet
  facet normal 0 0 -1
    outer loop
      vertex -0.40187 0.633245 0
      vertex -1.39315 2.19525 0
      vertex -1.10703 2.35255 0
    endloop
  endfacet
  facet normal 0 0 -1
    outer loop
      vertex -2.41742 -0.957124 0
      vertex -0.697331 -0.276093 0
      vertex -2.2784 -1.25256 0
    endloop
  endfacet
  facet normal 0 0 -1
    outer loop
      vertex -0.478067 0.577885 0
      vertex -1.6573 2.00333 0
      vertex -1.39315 2.19525 0
    endloop
  endfacet
  facet normal -0 0 -1
    outer loop
      vertex -0.697331 -0.276093 0
      vertex -2.41742 -0.957124 0
      vertex -0.726437 -0.186517 0
    endloop
  endfacet
  facet normal 0 0 -1
    outer loop
      vertex -0.546726 0.51341 0
      vertex -1.89532 1.77982 0
      vertex -1.6573 2.00333 0
    endloop
  endfacet
  facet normal 0 0 -1
    outer loop
      vertex -2.51832 -0.646593 0
      vertex -0.726437 -0.186517 0
      vertex -2.41742 -0.957124 0
    endloop
  endfacet
  facet normal 0 0 -1
    outer loop
      vertex -0.606762 0.440839 0
      vertex -2.10344 1.52824 0
      vertex -1.89532 1.77982 0
    endloop
  endfacet
  facet normal -0 0 -1
    outer loop
      vertex -0.726437 -0.186517 0
      vertex -2.51832 -0.646593 0
      vertex -0.744085 -0.0939999 0
    endloop
  endfacet
  facet normal 0 0 -1
    outer loop
      vertex -0.657229 0.361315 0
      vertex -2.2784 1.25256 0
      vertex -2.10344 1.52824 0
    endloop
  endfacet
  facet normal 0 0 -1
    outer loop
      vertex -2.5795 -0.325866 0
      vertex -0.744085 -0.0939999 0
      vertex -2.51832 -0.646593 0
    endloop
  endfacet
  facet normal 0 0 -1
    outer loop
      vertex -0.697331 0.276093 0
      vertex -2.41742 0.957124 0
      vertex -2.2784 1.25256 0
    endloop
  endfacet
  facet normal -0 0 -1
    outer loop
      vertex -0.744085 -0.0939999 0
      vertex -2.5795 -0.325866 0
      vertex -0.75 0 0
    endloop
  endfacet
  facet normal 0 0 -1
    outer loop
      vertex -0.726437 0.186517 0
      vertex -2.51832 0.646593 0
      vertex -2.41742 0.957124 0
    endloop
  endfacet
  facet normal 0 0 -1
    outer loop
      vertex -2.6 0 0
      vertex -0.75 0 0
      vertex -2.5795 -0.325866 0
    endloop
  endfacet
  facet normal 0 0 -1
    outer loop
      vertex -0.744085 0.0939999 0
      vertex -2.5795 0.325866 0
      vertex -2.51832 0.646593 0
    endloop
  endfacet
  facet normal 0 0 -1
    outer loop
      vertex -0.75 0 0
      vertex -2.6 0 0
      vertex -2.5795 0.325866 0
    endloop
  endfacet
  facet normal 0.125325 -0.992116 0
    outer loop
      vertex 0.163255 -2.59487 0
      vertex 0.487191 -2.55395 0.75
      vertex 0.163255 -2.59487 0.75
    endloop
  endfacet
  facet normal 0.125325 -0.992116 0
    outer loop
      vertex 0.487191 -2.55395 0.75
      vertex 0.163255 -2.59487 0
      vertex 0.487191 -2.55395 0
    endloop
  endfacet
  facet normal 0.951054 0.309024 0
    outer loop
      vertex 2.51832 0.646593 0.75
      vertex 2.41742 0.957124 0
      vertex 2.41742 0.957124 0.75
    endloop
  endfacet
  facet normal 0.951054 0.309024 0
    outer loop
      vertex 2.41742 0.957124 0
      vertex 2.51832 0.646593 0.75
      vertex 2.51832 0.646593 0
    endloop
  endfacet
  facet normal 0.982288 0.187376 0
    outer loop
      vertex 2.5795 0.325866 0.75
      vertex 2.51832 0.646593 0
      vertex 2.51832 0.646593 0.75
    endloop
  endfacet
  facet normal 0.982288 0.187376 0
    outer loop
      vertex 2.51832 0.646593 0
      vertex 2.5795 0.325866 0.75
      vertex 2.5795 0.325866 0
    endloop
  endfacet
  facet normal 0.770521 0.637415 0
    outer loop
      vertex 2.10344 1.52824 0.75
      vertex 1.89532 1.77982 0
      vertex 1.89532 1.77982 0.75
    endloop
  endfacet
  facet normal 0.770521 0.637415 0
    outer loop
      vertex 1.89532 1.77982 0
      vertex 2.10344 1.52824 0.75
      vertex 2.10344 1.52824 0
    endloop
  endfacet
  facet normal 0.125325 0.992116 -0
    outer loop
      vertex 0.487191 2.55395 0
      vertex 0.163255 2.59487 0.75
      vertex 0.487191 2.55395 0.75
    endloop
  endfacet
  facet normal 0.125325 0.992116 0
    outer loop
      vertex 0.163255 2.59487 0.75
      vertex 0.487191 2.55395 0
      vertex 0.163255 2.59487 0
    endloop
  endfacet
  facet normal 0.481764 0.876301 -0
    outer loop
      vertex 1.39315 2.19525 0
      vertex 1.10703 2.35255 0.75
      vertex 1.39315 2.19525 0.75
    endloop
  endfacet
  facet normal 0.481764 0.876301 0
    outer loop
      vertex 1.10703 2.35255 0.75
      vertex 1.39315 2.19525 0
      vertex 1.10703 2.35255 0
    endloop
  endfacet
  facet normal -0.844317 0.535845 0
    outer loop
      vertex -2.2784 1.25256 0
      vertex -2.10344 1.52824 0.75
      vertex -2.10344 1.52824 0
    endloop
  endfacet
  facet normal -0.844317 0.535845 0
    outer loop
      vertex -2.10344 1.52824 0.75
      vertex -2.2784 1.25256 0
      vertex -2.2784 1.25256 0.75
    endloop
  endfacet
  facet normal -0.951054 0.309024 0
    outer loop
      vertex -2.51832 0.646593 0
      vertex -2.41742 0.957124 0.75
      vertex -2.41742 0.957124 0
    endloop
  endfacet
  facet normal -0.951054 0.309024 0
    outer loop
      vertex -2.41742 0.957124 0.75
      vertex -2.51832 0.646593 0
      vertex -2.51832 0.646593 0.75
    endloop
  endfacet
  facet normal -0.982288 0.187376 0
    outer loop
      vertex -2.5795 0.325866 0
      vertex -2.51832 0.646593 0.75
      vertex -2.51832 0.646593 0
    endloop
  endfacet
  facet normal -0.982288 0.187376 0
    outer loop
      vertex -2.51832 0.646593 0.75
      vertex -2.5795 0.325866 0
      vertex -2.5795 0.325866 0.75
    endloop
  endfacet
  facet normal -0.587793 0.809011 0
    outer loop
      vertex -1.39315 2.19525 0
      vertex -1.6573 2.00333 0.75
      vertex -1.39315 2.19525 0.75
    endloop
  endfacet
  facet normal -0.587793 0.809011 0
    outer loop
      vertex -1.6573 2.00333 0.75
      vertex -1.39315 2.19525 0
      vertex -1.6573 2.00333 0
    endloop
  endfacet
  facet normal -0.125325 0.992116 0
    outer loop
      vertex -0.163255 2.59487 0
      vertex -0.487191 2.55395 0.75
      vertex -0.163255 2.59487 0.75
    endloop
  endfacet
  facet normal -0.125325 0.992116 0
    outer loop
      vertex -0.487191 2.55395 0.75
      vertex -0.163255 2.59487 0
      vertex -0.487191 2.55395 0
    endloop
  endfacet
  facet normal 0.998027 -0.0627852 0
    outer loop
      vertex 2.5795 -0.325866 0.75
      vertex 2.6 0 0
      vertex 2.6 0 0.75
    endloop
  endfacet
  facet normal 0.998027 -0.0627852 0
    outer loop
      vertex 2.6 0 0
      vertex 2.5795 -0.325866 0.75
      vertex 2.5795 -0.325866 0
    endloop
  endfacet
  facet normal -0.684538 -0.728977 0
    outer loop
      vertex -1.89532 -1.77982 0
      vertex -1.6573 -2.00333 0.75
      vertex -1.89532 -1.77982 0.75
    endloop
  endfacet
  facet normal -0.684538 -0.728977 -0
    outer loop
      vertex -1.6573 -2.00333 0.75
      vertex -1.89532 -1.77982 0
      vertex -1.6573 -2.00333 0
    endloop
  endfacet
  facet normal -0.904829 -0.425775 0
    outer loop
      vertex -2.2784 -1.25256 0
      vertex -2.41742 -0.957124 0.75
      vertex -2.41742 -0.957124 0
    endloop
  endfacet
  facet normal -0.904829 -0.425775 0
    outer loop
      vertex -2.41742 -0.957124 0.75
      vertex -2.2784 -1.25256 0
      vertex -2.2784 -1.25256 0.75
    endloop
  endfacet
  facet normal -0.770521 -0.637415 0
    outer loop
      vertex -1.89532 -1.77982 0
      vertex -2.10344 -1.52824 0.75
      vertex -2.10344 -1.52824 0
    endloop
  endfacet
  facet normal -0.770521 -0.637415 0
    outer loop
      vertex -2.10344 -1.52824 0.75
      vertex -1.89532 -1.77982 0
      vertex -1.89532 -1.77982 0.75
    endloop
  endfacet
  facet normal 0.481764 -0.876301 0
    outer loop
      vertex 1.10703 -2.35255 0
      vertex 1.39315 -2.19525 0.75
      vertex 1.10703 -2.35255 0.75
    endloop
  endfacet
  facet normal 0.481764 -0.876301 0
    outer loop
      vertex 1.39315 -2.19525 0.75
      vertex 1.10703 -2.35255 0
      vertex 1.39315 -2.19525 0
    endloop
  endfacet
  facet normal 0.951054 -0.309024 0
    outer loop
      vertex 2.41742 -0.957124 0.75
      vertex 2.51832 -0.646593 0
      vertex 2.51832 -0.646593 0.75
    endloop
  endfacet
  facet normal 0.951054 -0.309024 0
    outer loop
      vertex 2.51832 -0.646593 0
      vertex 2.41742 -0.957124 0.75
      vertex 2.41742 -0.957124 0
    endloop
  endfacet
  facet normal -0.24869 -0.968583 0
    outer loop
      vertex -0.803444 -2.47275 0
      vertex -0.487191 -2.55395 0.75
      vertex -0.803444 -2.47275 0.75
    endloop
  endfacet
  facet normal -0.24869 -0.968583 -0
    outer loop
      vertex -0.487191 -2.55395 0.75
      vertex -0.803444 -2.47275 0
      vertex -0.487191 -2.55395 0
    endloop
  endfacet
  facet normal -0.982288 -0.187376 0
    outer loop
      vertex -2.51832 -0.646593 0
      vertex -2.5795 -0.325866 0.75
      vertex -2.5795 -0.325866 0
    endloop
  endfacet
  facet normal -0.982288 -0.187376 0
    outer loop
      vertex -2.5795 -0.325866 0.75
      vertex -2.51832 -0.646593 0
      vertex -2.51832 -0.646593 0.75
    endloop
  endfacet
  facet normal -0.998027 -0.0627852 0
    outer loop
      vertex -2.5795 -0.325866 0
      vertex -2.6 0 0.75
      vertex -2.6 0 0
    endloop
  endfacet
  facet normal -0.998027 -0.0627852 0
    outer loop
      vertex -2.6 0 0.75
      vertex -2.5795 -0.325866 0
      vertex -2.5795 -0.325866 0.75
    endloop
  endfacet
  facet normal -0.951054 -0.309024 0
    outer loop
      vertex -2.41742 -0.957124 0
      vertex -2.51832 -0.646593 0.75
      vertex -2.51832 -0.646593 0
    endloop
  endfacet
  facet normal -0.951054 -0.309024 0
    outer loop
      vertex -2.51832 -0.646593 0.75
      vertex -2.41742 -0.957124 0
      vertex -2.41742 -0.957124 0.75
    endloop
  endfacet
  facet normal 0.684538 -0.728977 0
    outer loop
      vertex 1.6573 -2.00333 0
      vertex 1.89532 -1.77982 0.75
      vertex 1.6573 -2.00333 0.75
    endloop
  endfacet
  facet normal 0.684538 -0.728977 0
    outer loop
      vertex 1.89532 -1.77982 0.75
      vertex 1.6573 -2.00333 0
      vertex 1.89532 -1.77982 0
    endloop
  endfacet
  facet normal 0.368129 -0.929775 0
    outer loop
      vertex 0.803444 -2.47275 0
      vertex 1.10703 -2.35255 0.75
      vertex 0.803444 -2.47275 0.75
    endloop
  endfacet
  facet normal 0.368129 -0.929775 0
    outer loop
      vertex 1.10703 -2.35255 0.75
      vertex 0.803444 -2.47275 0
      vertex 1.10703 -2.35255 0
    endloop
  endfacet
  facet normal 0.24869 -0.968583 0
    outer loop
      vertex 0.487191 -2.55395 0
      vertex 0.803444 -2.47275 0.75
      vertex 0.487191 -2.55395 0.75
    endloop
  endfacet
  facet normal 0.24869 -0.968583 0
    outer loop
      vertex 0.803444 -2.47275 0.75
      vertex 0.487191 -2.55395 0
      vertex 0.803444 -2.47275 0
    endloop
  endfacet
  facet normal 0.844317 -0.535845 0
    outer loop
      vertex 2.10344 -1.52824 0.75
      vertex 2.2784 -1.25256 0
      vertex 2.2784 -1.25256 0.75
    endloop
  endfacet
  facet normal 0.844317 -0.535845 0
    outer loop
      vertex 2.2784 -1.25256 0
      vertex 2.10344 -1.52824 0.75
      vertex 2.10344 -1.52824 0
    endloop
  endfacet
  facet normal 0.982288 -0.187376 0
    outer loop
      vertex 2.51832 -0.646593 0.75
      vertex 2.5795 -0.325866 0
      vertex 2.5795 -0.325866 0.75
    endloop
  endfacet
  facet normal 0.982288 -0.187376 0
    outer loop
      vertex 2.5795 -0.325866 0
      vertex 2.51832 -0.646593 0.75
      vertex 2.51832 -0.646593 0
    endloop
  endfacet
  facet normal -0.125325 -0.992116 0
    outer loop
      vertex -0.487191 -2.55395 0
      vertex -0.163255 -2.59487 0.75
      vertex -0.487191 -2.55395 0.75
    endloop
  endfacet
  facet normal -0.125325 -0.992116 -0
    outer loop
      vertex -0.163255 -2.59487 0.75
      vertex -0.487191 -2.55395 0
      vertex -0.163255 -2.59487 0
    endloop
  endfacet
  facet normal -0.368129 -0.929775 0
    outer loop
      vertex -1.10703 -2.35255 0
      vertex -0.803444 -2.47275 0.75
      vertex -1.10703 -2.35255 0.75
    endloop
  endfacet
  facet normal -0.368129 -0.929775 -0
    outer loop
      vertex -0.803444 -2.47275 0.75
      vertex -1.10703 -2.35255 0
      vertex -0.803444 -2.47275 0
    endloop
  endfacet
  facet normal -0.844317 -0.535845 0
    outer loop
      vertex -2.10344 -1.52824 0
      vertex -2.2784 -1.25256 0.75
      vertex -2.2784 -1.25256 0
    endloop
  endfacet
  facet normal -0.844317 -0.535845 0
    outer loop
      vertex -2.2784 -1.25256 0.75
      vertex -2.10344 -1.52824 0
      vertex -2.10344 -1.52824 0.75
    endloop
  endfacet
  facet normal 0.587793 -0.809011 0
    outer loop
      vertex 1.39315 -2.19525 0
      vertex 1.6573 -2.00333 0.75
      vertex 1.39315 -2.19525 0.75
    endloop
  endfacet
  facet normal 0.587793 -0.809011 0
    outer loop
      vertex 1.6573 -2.00333 0.75
      vertex 1.39315 -2.19525 0
      vertex 1.6573 -2.00333 0
    endloop
  endfacet
  facet normal 0.904829 -0.425775 0
    outer loop
      vertex 2.2784 -1.25256 0.75
      vertex 2.41742 -0.957124 0
      vertex 2.41742 -0.957124 0.75
    endloop
  endfacet
  facet normal 0.904829 -0.425775 0
    outer loop
      vertex 2.41742 -0.957124 0
      vertex 2.2784 -1.25256 0.75
      vertex 2.2784 -1.25256 0
    endloop
  endfacet
  facet normal -0.481764 -0.876301 0
    outer loop
      vertex -1.39315 -2.19525 0
      vertex -1.10703 -2.35255 0.75
      vertex -1.39315 -2.19525 0.75
    endloop
  endfacet
  facet normal -0.481764 -0.876301 -0
    outer loop
      vertex -1.10703 -2.35255 0.75
      vertex -1.39315 -2.19525 0
      vertex -1.10703 -2.35255 0
    endloop
  endfacet
  facet normal -0.587793 -0.809011 0
    outer loop
      vertex -1.6573 -2.00333 0
      vertex -1.39315 -2.19525 0.75
      vertex -1.6573 -2.00333 0.75
    endloop
  endfacet
  facet normal -0.587793 -0.809011 -0
    outer loop
      vertex -1.39315 -2.19525 0.75
      vertex -1.6573 -2.00333 0
      vertex -1.39315 -2.19525 0
    endloop
  endfacet
  facet normal 0.998026 0.0628014 0
    outer loop
      vertex 0.75 0 0
      vertex 0.744085 0.0939999 -8
      vertex 0.744085 0.0939999 0
    endloop
  endfacet
  facet normal 0.998026 0.0628014 0
    outer loop
      vertex 0.744085 0.0939999 -8
      vertex 0.75 0 0
      vertex 0.75 0 -8
    endloop
  endfacet
  facet normal -0.998026 0.0628014 0
    outer loop
      vertex -0.75 0 -8
      vertex -0.744085 0.0939999 0
      vertex -0.744085 0.0939999 -8
    endloop
  endfacet
  facet normal -0.998026 0.0628014 0
    outer loop
      vertex -0.744085 0.0939999 0
      vertex -0.75 0 -8
      vertex -0.75 0 0
    endloop
  endfacet
  facet normal 0 1 -0
    outer loop
      vertex 0.0470924 0.74852 -8
      vertex -0.0470924 0.74852 0
      vertex 0.0470924 0.74852 0
    endloop
  endfacet
  facet normal 0 1 0
    outer loop
      vertex -0.0470924 0.74852 0
      vertex 0.0470924 0.74852 -8
      vertex -0.0470924 0.74852 -8
    endloop
  endfacet
  facet normal 0 -1 0
    outer loop
      vertex -0.0470924 -0.74852 -8
      vertex 0.0470924 -0.74852 0
      vertex -0.0470924 -0.74852 0
    endloop
  endfacet
  facet normal 0 -1 -0
    outer loop
      vertex 0.0470924 -0.74852 0
      vertex -0.0470924 -0.74852 -8
      vertex 0.0470924 -0.74852 -8
    endloop
  endfacet
  facet normal 0.684547 0.728969 -0
    outer loop
      vertex 0.546726 0.51341 -8
      vertex 0.478067 0.577885 0
      vertex 0.546726 0.51341 0
    endloop
  endfacet
  facet normal 0.684547 0.728969 0
    outer loop
      vertex 0.478067 0.577885 0
      vertex 0.546726 0.51341 -8
      vertex 0.478067 0.577885 -8
    endloop
  endfacet
  facet normal -0.684547 0.728969 0
    outer loop
      vertex -0.478067 0.577885 -8
      vertex -0.546726 0.51341 0
      vertex -0.478067 0.577885 0
    endloop
  endfacet
  facet normal -0.684547 0.728969 0
    outer loop
      vertex -0.546726 0.51341 0
      vertex -0.478067 0.577885 -8
      vertex -0.546726 0.51341 -8
    endloop
  endfacet
  facet normal -0.368132 0.929774 0
    outer loop
      vertex -0.231762 0.713292 -8
      vertex -0.319334 0.678619 0
      vertex -0.231762 0.713292 0
    endloop
  endfacet
  facet normal -0.368132 0.929774 0
    outer loop
      vertex -0.319334 0.678619 0
      vertex -0.231762 0.713292 -8
      vertex -0.319334 0.678619 -8
    endloop
  endfacet
  facet normal 0.904829 0.425776 0
    outer loop
      vertex 0.697331 0.276093 0
      vertex 0.657229 0.361315 -8
      vertex 0.657229 0.361315 0
    endloop
  endfacet
  facet normal 0.904829 0.425776 0
    outer loop
      vertex 0.657229 0.361315 -8
      vertex 0.697331 0.276093 0
      vertex 0.697331 0.276093 -8
    endloop
  endfacet
  facet normal 0.982288 0.187375 0
    outer loop
      vertex 0.744085 0.0939999 0
      vertex 0.726437 0.186517 -8
      vertex 0.726437 0.186517 0
    endloop
  endfacet
  facet normal 0.982288 0.187375 0
    outer loop
      vertex 0.726437 0.186517 -8
      vertex 0.744085 0.0939999 0
      vertex 0.744085 0.0939999 -8
    endloop
  endfacet
  facet normal 0.368132 0.929774 -0
    outer loop
      vertex 0.319334 0.678619 -8
      vertex 0.231762 0.713292 0
      vertex 0.319334 0.678619 0
    endloop
  endfacet
  facet normal 0.368132 0.929774 0
    outer loop
      vertex 0.231762 0.713292 0
      vertex 0.319334 0.678619 -8
      vertex 0.231762 0.713292 -8
    endloop
  endfacet
  facet normal 0.248689 0.968583 -0
    outer loop
      vertex 0.231762 0.713292 -8
      vertex 0.140535 0.736715 0
      vertex 0.231762 0.713292 0
    endloop
  endfacet
  facet normal 0.248689 0.968583 0
    outer loop
      vertex 0.140535 0.736715 0
      vertex 0.231762 0.713292 -8
      vertex 0.140535 0.736715 -8
    endloop
  endfacet
  facet normal 0.587783 0.809019 -0
    outer loop
      vertex 0.478067 0.577885 -8
      vertex 0.40187 0.633245 0
      vertex 0.478067 0.577885 0
    endloop
  endfacet
  facet normal 0.587783 0.809019 0
    outer loop
      vertex 0.40187 0.633245 0
      vertex 0.478067 0.577885 -8
      vertex 0.40187 0.633245 -8
    endloop
  endfacet
  facet normal -0.904829 0.425776 0
    outer loop
      vertex -0.697331 0.276093 -8
      vertex -0.657229 0.361315 0
      vertex -0.657229 0.361315 -8
    endloop
  endfacet
  facet normal -0.904829 0.425776 0
    outer loop
      vertex -0.657229 0.361315 0
      vertex -0.697331 0.276093 -8
      vertex -0.697331 0.276093 0
    endloop
  endfacet
  facet normal -0.951053 0.309027 0
    outer loop
      vertex -0.726437 0.186517 -8
      vertex -0.697331 0.276093 0
      vertex -0.697331 0.276093 -8
    endloop
  endfacet
  facet normal -0.951053 0.309027 0
    outer loop
      vertex -0.697331 0.276093 0
      vertex -0.726437 0.186517 -8
      vertex -0.726437 0.186517 0
    endloop
  endfacet
  facet normal -0.481749 0.876309 0
    outer loop
      vertex -0.319334 0.678619 -8
      vertex -0.40187 0.633245 0
      vertex -0.319334 0.678619 0
    endloop
  endfacet
  facet normal -0.481749 0.876309 0
    outer loop
      vertex -0.40187 0.633245 0
      vertex -0.319334 0.678619 -8
      vertex -0.40187 0.633245 -8
    endloop
  endfacet
  facet normal -0.248689 0.968583 0
    outer loop
      vertex -0.140535 0.736715 -8
      vertex -0.231762 0.713292 0
      vertex -0.140535 0.736715 0
    endloop
  endfacet
  facet normal -0.248689 0.968583 0
    outer loop
      vertex -0.231762 0.713292 0
      vertex -0.140535 0.736715 -8
      vertex -0.231762 0.713292 -8
    endloop
  endfacet
  facet normal -0.770513 -0.637424 0
    outer loop
      vertex -0.546726 -0.51341 -8
      vertex -0.606762 -0.440839 0
      vertex -0.606762 -0.440839 -8
    endloop
  endfacet
  facet normal -0.770513 -0.637424 0
    outer loop
      vertex -0.606762 -0.440839 0
      vertex -0.546726 -0.51341 -8
      vertex -0.546726 -0.51341 0
    endloop
  endfacet
  facet normal 0.125338 -0.992114 0
    outer loop
      vertex 0.0470924 -0.74852 -8
      vertex 0.140535 -0.736715 0
      vertex 0.0470924 -0.74852 0
    endloop
  endfacet
  facet normal 0.125338 -0.992114 0
    outer loop
      vertex 0.140535 -0.736715 0
      vertex 0.0470924 -0.74852 -8
      vertex 0.140535 -0.736715 -8
    endloop
  endfacet
  facet normal 0.368132 -0.929774 0
    outer loop
      vertex 0.231762 -0.713292 -8
      vertex 0.319334 -0.678619 0
      vertex 0.231762 -0.713292 0
    endloop
  endfacet
  facet normal 0.368132 -0.929774 0
    outer loop
      vertex 0.319334 -0.678619 0
      vertex 0.231762 -0.713292 -8
      vertex 0.319334 -0.678619 -8
    endloop
  endfacet
  facet normal 0.951053 0.309027 0
    outer loop
      vertex 0.726437 0.186517 0
      vertex 0.697331 0.276093 -8
      vertex 0.697331 0.276093 0
    endloop
  endfacet
  facet normal 0.951053 0.309027 0
    outer loop
      vertex 0.697331 0.276093 -8
      vertex 0.726437 0.186517 0
      vertex 0.726437 0.186517 -8
    endloop
  endfacet
  facet normal 0.770513 0.637424 0
    outer loop
      vertex 0.606762 0.440839 0
      vertex 0.546726 0.51341 -8
      vertex 0.546726 0.51341 0
    endloop
  endfacet
  facet normal 0.770513 0.637424 0
    outer loop
      vertex 0.546726 0.51341 -8
      vertex 0.606762 0.440839 0
      vertex 0.606762 0.440839 -8
    endloop
  endfacet
  facet normal 0.84433 0.535823 0
    outer loop
      vertex 0.657229 0.361315 0
      vertex 0.606762 0.440839 -8
      vertex 0.606762 0.440839 0
    endloop
  endfacet
  facet normal 0.84433 0.535823 0
    outer loop
      vertex 0.606762 0.440839 -8
      vertex 0.657229 0.361315 0
      vertex 0.657229 0.361315 -8
    endloop
  endfacet
  facet normal 0.125338 0.992114 -0
    outer loop
      vertex 0.140535 0.736715 -8
      vertex 0.0470924 0.74852 0
      vertex 0.140535 0.736715 0
    endloop
  endfacet
  facet normal 0.125338 0.992114 0
    outer loop
      vertex 0.0470924 0.74852 0
      vertex 0.140535 0.736715 -8
      vertex 0.0470924 0.74852 -8
    endloop
  endfacet
  facet normal 0.481749 0.876309 -0
    outer loop
      vertex 0.40187 0.633245 -8
      vertex 0.319334 0.678619 0
      vertex 0.40187 0.633245 0
    endloop
  endfacet
  facet normal 0.481749 0.876309 0
    outer loop
      vertex 0.319334 0.678619 0
      vertex 0.40187 0.633245 -8
      vertex 0.319334 0.678619 -8
    endloop
  endfacet
  facet normal -0.84433 0.535823 0
    outer loop
      vertex -0.657229 0.361315 -8
      vertex -0.606762 0.440839 0
      vertex -0.606762 0.440839 -8
    endloop
  endfacet
  facet normal -0.84433 0.535823 0
    outer loop
      vertex -0.606762 0.440839 0
      vertex -0.657229 0.361315 -8
      vertex -0.657229 0.361315 0
    endloop
  endfacet
  facet normal -0.770513 0.637424 0
    outer loop
      vertex -0.606762 0.440839 -8
      vertex -0.546726 0.51341 0
      vertex -0.546726 0.51341 -8
    endloop
  endfacet
  facet normal -0.770513 0.637424 0
    outer loop
      vertex -0.546726 0.51341 0
      vertex -0.606762 0.440839 -8
      vertex -0.606762 0.440839 0
    endloop
  endfacet
  facet normal -0.982288 0.187375 0
    outer loop
      vertex -0.744085 0.0939999 -8
      vertex -0.726437 0.186517 0
      vertex -0.726437 0.186517 -8
    endloop
  endfacet
  facet normal -0.982288 0.187375 0
    outer loop
      vertex -0.726437 0.186517 0
      vertex -0.744085 0.0939999 -8
      vertex -0.744085 0.0939999 0
    endloop
  endfacet
  facet normal -0.587783 0.809019 0
    outer loop
      vertex -0.40187 0.633245 -8
      vertex -0.478067 0.577885 0
      vertex -0.40187 0.633245 0
    endloop
  endfacet
  facet normal -0.587783 0.809019 0
    outer loop
      vertex -0.478067 0.577885 0
      vertex -0.40187 0.633245 -8
      vertex -0.478067 0.577885 -8
    endloop
  endfacet
  facet normal -0.125338 0.992114 0
    outer loop
      vertex -0.0470924 0.74852 -8
      vertex -0.140535 0.736715 0
      vertex -0.0470924 0.74852 0
    endloop
  endfacet
  facet normal -0.125338 0.992114 0
    outer loop
      vertex -0.140535 0.736715 0
      vertex -0.0470924 0.74852 -8
      vertex -0.140535 0.736715 -8
    endloop
  endfacet
  facet normal 0.998026 -0.0628014 0
    outer loop
      vertex 0.744085 -0.0939999 0
      vertex 0.75 0 -8
      vertex 0.75 0 0
    endloop
  endfacet
  facet normal 0.998026 -0.0628014 0
    outer loop
      vertex 0.75 0 -8
      vertex 0.744085 -0.0939999 0
      vertex 0.744085 -0.0939999 -8
    endloop
  endfacet
  facet normal 0.684547 -0.728969 0
    outer loop
      vertex 0.478067 -0.577885 -8
      vertex 0.546726 -0.51341 0
      vertex 0.478067 -0.577885 0
    endloop
  endfacet
  facet normal 0.684547 -0.728969 0
    outer loop
      vertex 0.546726 -0.51341 0
      vertex 0.478067 -0.577885 -8
      vertex 0.546726 -0.51341 -8
    endloop
  endfacet
  facet normal 0.982288 -0.187375 0
    outer loop
      vertex 0.726437 -0.186517 0
      vertex 0.744085 -0.0939999 -8
      vertex 0.744085 -0.0939999 0
    endloop
  endfacet
  facet normal 0.982288 -0.187375 0
    outer loop
      vertex 0.744085 -0.0939999 -8
      vertex 0.726437 -0.186517 0
      vertex 0.726437 -0.186517 -8
    endloop
  endfacet
  facet normal 0 0 -1
    outer loop
      vertex 0.744085 -0.0939999 -8
      vertex 0.744085 0.0939999 -8
      vertex 0.75 0 -8
    endloop
  endfacet
  facet normal 0 0 -1
    outer loop
      vertex 0.726437 -0.186517 -8
      vertex 0.744085 0.0939999 -8
      vertex 0.744085 -0.0939999 -8
    endloop
  endfacet
  facet normal 0 0 -1
    outer loop
      vertex 0.726437 -0.186517 -8
      vertex 0.726437 0.186517 -8
      vertex 0.744085 0.0939999 -8
    endloop
  endfacet
  facet normal 0 0 -1
    outer loop
      vertex 0.697331 -0.276093 -8
      vertex 0.726437 0.186517 -8
      vertex 0.726437 -0.186517 -8
    endloop
  endfacet
  facet normal 0 0 -1
    outer loop
      vertex 0.697331 -0.276093 -8
      vertex 0.697331 0.276093 -8
      vertex 0.726437 0.186517 -8
    endloop
  endfacet
  facet normal 0 0 -1
    outer loop
      vertex 0.657229 -0.361315 -8
      vertex 0.697331 0.276093 -8
      vertex 0.697331 -0.276093 -8
    endloop
  endfacet
  facet normal 0 0 -1
    outer loop
      vertex 0.657229 -0.361315 -8
      vertex 0.657229 0.361315 -8
      vertex 0.697331 0.276093 -8
    endloop
  endfacet
  facet normal 0 0 -1
    outer loop
      vertex 0.606762 -0.440839 -8
      vertex 0.657229 0.361315 -8
      vertex 0.657229 -0.361315 -8
    endloop
  endfacet
  facet normal 0 0 -1
    outer loop
      vertex 0.606762 -0.440839 -8
      vertex 0.606762 0.440839 -8
      vertex 0.657229 0.361315 -8
    endloop
  endfacet
  facet normal 0 0 -1
    outer loop
      vertex 0.546726 -0.51341 -8
      vertex 0.606762 0.440839 -8
      vertex 0.606762 -0.440839 -8
    endloop
  endfacet
  facet normal 0 0 -1
    outer loop
      vertex 0.546726 -0.51341 -8
      vertex 0.546726 0.51341 -8
      vertex 0.606762 0.440839 -8
    endloop
  endfacet
  facet normal 0 0 -1
    outer loop
      vertex 0.478067 -0.577885 -8
      vertex 0.546726 0.51341 -8
      vertex 0.546726 -0.51341 -8
    endloop
  endfacet
  facet normal 0 0 -1
    outer loop
      vertex 0.478067 -0.577885 -8
      vertex 0.478067 0.577885 -8
      vertex 0.546726 0.51341 -8
    endloop
  endfacet
  facet normal 0 0 -1
    outer loop
      vertex 0.40187 -0.633245 -8
      vertex 0.478067 0.577885 -8
      vertex 0.478067 -0.577885 -8
    endloop
  endfacet
  facet normal 0 0 -1
    outer loop
      vertex 0.40187 -0.633245 -8
      vertex 0.40187 0.633245 -8
      vertex 0.478067 0.577885 -8
    endloop
  endfacet
  facet normal 0 0 -1
    outer loop
      vertex 0.319334 -0.678619 -8
      vertex 0.40187 0.633245 -8
      vertex 0.40187 -0.633245 -8
    endloop
  endfacet
  facet normal 0 0 -1
    outer loop
      vertex 0.319334 -0.678619 -8
      vertex 0.319334 0.678619 -8
      vertex 0.40187 0.633245 -8
    endloop
  endfacet
  facet normal 0 0 -1
    outer loop
      vertex 0.231762 -0.713292 -8
      vertex 0.319334 0.678619 -8
      vertex 0.319334 -0.678619 -8
    endloop
  endfacet
  facet normal 0 0 -1
    outer loop
      vertex 0.231762 -0.713292 -8
      vertex 0.231762 0.713292 -8
      vertex 0.319334 0.678619 -8
    endloop
  endfacet
  facet normal 0 0 -1
    outer loop
      vertex 0.140535 -0.736715 -8
      vertex 0.231762 0.713292 -8
      vertex 0.231762 -0.713292 -8
    endloop
  endfacet
  facet normal 0 0 -1
    outer loop
      vertex 0.140535 -0.736715 -8
      vertex 0.140535 0.736715 -8
      vertex 0.231762 0.713292 -8
    endloop
  endfacet
  facet normal 0 0 -1
    outer loop
      vertex 0.0470924 -0.74852 -8
      vertex 0.140535 0.736715 -8
      vertex 0.140535 -0.736715 -8
    endloop
  endfacet
  facet normal 0 0 -1
    outer loop
      vertex 0.0470924 -0.74852 -8
      vertex 0.0470924 0.74852 -8
      vertex 0.140535 0.736715 -8
    endloop
  endfacet
  facet normal 0 0 -1
    outer loop
      vertex -0.0470924 -0.74852 -8
      vertex 0.0470924 0.74852 -8
      vertex 0.0470924 -0.74852 -8
    endloop
  endfacet
  facet normal 0 0 -1
    outer loop
      vertex -0.0470924 -0.74852 -8
      vertex -0.0470924 0.74852 -8
      vertex 0.0470924 0.74852 -8
    endloop
  endfacet
  facet normal 0 0 -1
    outer loop
      vertex -0.140535 -0.736715 -8
      vertex -0.0470924 0.74852 -8
      vertex -0.0470924 -0.74852 -8
    endloop
  endfacet
  facet normal 0 0 -1
    outer loop
      vertex -0.140535 -0.736715 -8
      vertex -0.140535 0.736715 -8
      vertex -0.0470924 0.74852 -8
    endloop
  endfacet
  facet normal 0 0 -1
    outer loop
      vertex -0.231762 -0.713292 -8
      vertex -0.140535 0.736715 -8
      vertex -0.140535 -0.736715 -8
    endloop
  endfacet
  facet normal 0 0 -1
    outer loop
      vertex -0.231762 -0.713292 -8
      vertex -0.231762 0.713292 -8
      vertex -0.140535 0.736715 -8
    endloop
  endfacet
  facet normal 0 0 -1
    outer loop
      vertex -0.319334 -0.678619 -8
      vertex -0.231762 0.713292 -8
      vertex -0.231762 -0.713292 -8
    endloop
  endfacet
  facet normal 0 0 -1
    outer loop
      vertex -0.319334 -0.678619 -8
      vertex -0.319334 0.678619 -8
      vertex -0.231762 0.713292 -8
    endloop
  endfacet
  facet normal 0 0 -1
    outer loop
      vertex -0.40187 -0.633245 -8
      vertex -0.319334 0.678619 -8
      vertex -0.319334 -0.678619 -8
    endloop
  endfacet
  facet normal 0 0 -1
    outer loop
      vertex -0.40187 -0.633245 -8
      vertex -0.40187 0.633245 -8
      vertex -0.319334 0.678619 -8
    endloop
  endfacet
  facet normal 0 0 -1
    outer loop
      vertex -0.478067 -0.577885 -8
      vertex -0.40187 0.633245 -8
      vertex -0.40187 -0.633245 -8
    endloop
  endfacet
  facet normal 0 0 -1
    outer loop
      vertex -0.478067 -0.577885 -8
      vertex -0.478067 0.577885 -8
      vertex -0.40187 0.633245 -8
    endloop
  endfacet
  facet normal 0 0 -1
    outer loop
      vertex -0.546726 -0.51341 -8
      vertex -0.478067 0.577885 -8
      vertex -0.478067 -0.577885 -8
    endloop
  endfacet
  facet normal 0 0 -1
    outer loop
      vertex -0.546726 -0.51341 -8
      vertex -0.546726 0.51341 -8
      vertex -0.478067 0.577885 -8
    endloop
  endfacet
  facet normal 0 0 -1
    outer loop
      vertex -0.606762 -0.440839 -8
      vertex -0.546726 0.51341 -8
      vertex -0.546726 -0.51341 -8
    endloop
  endfacet
  facet normal 0 0 -1
    outer loop
      vertex -0.606762 -0.440839 -8
      vertex -0.606762 0.440839 -8
      vertex -0.546726 0.51341 -8
    endloop
  endfacet
  facet normal 0 0 -1
    outer loop
      vertex -0.657229 -0.361315 -8
      vertex -0.606762 0.440839 -8
      vertex -0.606762 -0.440839 -8
    endloop
  endfacet
  facet normal 0 0 -1
    outer loop
      vertex -0.657229 -0.361315 -8
      vertex -0.657229 0.361315 -8
      vertex -0.606762 0.440839 -8
    endloop
  endfacet
  facet normal 0 0 -1
    outer loop
      vertex -0.697331 -0.276093 -8
      vertex -0.657229 0.361315 -8
      vertex -0.657229 -0.361315 -8
    endloop
  endfacet
  facet normal 0 0 -1
    outer loop
      vertex -0.697331 -0.276093 -8
      vertex -0.697331 0.276093 -8
      vertex -0.657229 0.361315 -8
    endloop
  endfacet
  facet normal 0 0 -1
    outer loop
      vertex -0.726437 -0.186517 -8
      vertex -0.697331 0.276093 -8
      vertex -0.697331 -0.276093 -8
    endloop
  endfacet
  facet normal 0 0 -1
    outer loop
      vertex -0.726437 -0.186517 -8
      vertex -0.726437 0.186517 -8
      vertex -0.697331 0.276093 -8
    endloop
  endfacet
  facet normal 0 0 -1
    outer loop
      vertex -0.744085 -0.0939999 -8
      vertex -0.726437 0.186517 -8
      vertex -0.726437 -0.186517 -8
    endloop
  endfacet
  facet normal 0 0 -1
    outer loop
      vertex -0.744085 -0.0939999 -8
      vertex -0.744085 0.0939999 -8
      vertex -0.726437 0.186517 -8
    endloop
  endfacet
  facet normal 0 -0 -1
    outer loop
      vertex -0.744085 0.0939999 -8
      vertex -0.744085 -0.0939999 -8
      vertex -0.75 0 -8
    endloop
  endfacet
  facet normal 0.481749 -0.876309 0
    outer loop
      vertex 0.319334 -0.678619 -8
      vertex 0.40187 -0.633245 0
      vertex 0.319334 -0.678619 0
    endloop
  endfacet
  facet normal 0.481749 -0.876309 0
    outer loop
      vertex 0.40187 -0.633245 0
      vertex 0.319334 -0.678619 -8
      vertex 0.40187 -0.633245 -8
    endloop
  endfacet
  facet normal 0.587783 -0.809019 0
    outer loop
      vertex 0.40187 -0.633245 -8
      vertex 0.478067 -0.577885 0
      vertex 0.40187 -0.633245 0
    endloop
  endfacet
  facet normal 0.587783 -0.809019 0
    outer loop
      vertex 0.478067 -0.577885 0
      vertex 0.40187 -0.633245 -8
      vertex 0.478067 -0.577885 -8
    endloop
  endfacet
  facet normal 0.904829 -0.425776 0
    outer loop
      vertex 0.657229 -0.361315 0
      vertex 0.697331 -0.276093 -8
      vertex 0.697331 -0.276093 0
    endloop
  endfacet
  facet normal 0.904829 -0.425776 0
    outer loop
      vertex 0.697331 -0.276093 -8
      vertex 0.657229 -0.361315 0
      vertex 0.657229 -0.361315 -8
    endloop
  endfacet
  facet normal 0.770513 -0.637424 0
    outer loop
      vertex 0.546726 -0.51341 0
      vertex 0.606762 -0.440839 -8
      vertex 0.606762 -0.440839 0
    endloop
  endfacet
  facet normal 0.770513 -0.637424 0
    outer loop
      vertex 0.606762 -0.440839 -8
      vertex 0.546726 -0.51341 0
      vertex 0.546726 -0.51341 -8
    endloop
  endfacet
  facet normal -0.248689 -0.968583 0
    outer loop
      vertex -0.231762 -0.713292 -8
      vertex -0.140535 -0.736715 0
      vertex -0.231762 -0.713292 0
    endloop
  endfacet
  facet normal -0.248689 -0.968583 -0
    outer loop
      vertex -0.140535 -0.736715 0
      vertex -0.231762 -0.713292 -8
      vertex -0.140535 -0.736715 -8
    endloop
  endfacet
  facet normal -0.684547 -0.728969 0
    outer loop
      vertex -0.546726 -0.51341 -8
      vertex -0.478067 -0.577885 0
      vertex -0.546726 -0.51341 0
    endloop
  endfacet
  facet normal -0.684547 -0.728969 -0
    outer loop
      vertex -0.478067 -0.577885 0
      vertex -0.546726 -0.51341 -8
      vertex -0.478067 -0.577885 -8
    endloop
  endfacet
  facet normal -0.84433 -0.535823 0
    outer loop
      vertex -0.606762 -0.440839 -8
      vertex -0.657229 -0.361315 0
      vertex -0.657229 -0.361315 -8
    endloop
  endfacet
  facet normal -0.84433 -0.535823 0
    outer loop
      vertex -0.657229 -0.361315 0
      vertex -0.606762 -0.440839 -8
      vertex -0.606762 -0.440839 0
    endloop
  endfacet
  facet normal -0.951053 -0.309027 0
    outer loop
      vertex -0.697331 -0.276093 -8
      vertex -0.726437 -0.186517 0
      vertex -0.726437 -0.186517 -8
    endloop
  endfacet
  facet normal -0.951053 -0.309027 0
    outer loop
      vertex -0.726437 -0.186517 0
      vertex -0.697331 -0.276093 -8
      vertex -0.697331 -0.276093 0
    endloop
  endfacet
  facet normal 0.248689 -0.968583 0
    outer loop
      vertex 0.140535 -0.736715 -8
      vertex 0.231762 -0.713292 0
      vertex 0.140535 -0.736715 0
    endloop
  endfacet
  facet normal 0.248689 -0.968583 0
    outer loop
      vertex 0.231762 -0.713292 0
      vertex 0.140535 -0.736715 -8
      vertex 0.231762 -0.713292 -8
    endloop
  endfacet
  facet normal 0.951053 -0.309027 0
    outer loop
      vertex 0.697331 -0.276093 0
      vertex 0.726437 -0.186517 -8
      vertex 0.726437 -0.186517 0
    endloop
  endfacet
  facet normal 0.951053 -0.309027 0
    outer loop
      vertex 0.726437 -0.186517 -8
      vertex 0.697331 -0.276093 0
      vertex 0.697331 -0.276093 -8
    endloop
  endfacet
  facet normal 0.84433 -0.535823 0
    outer loop
      vertex 0.606762 -0.440839 0
      vertex 0.657229 -0.361315 -8
      vertex 0.657229 -0.361315 0
    endloop
  endfacet
  facet normal 0.84433 -0.535823 0
    outer loop
      vertex 0.657229 -0.361315 -8
      vertex 0.606762 -0.440839 0
      vertex 0.606762 -0.440839 -8
    endloop
  endfacet
  facet normal -0.125338 -0.992114 0
    outer loop
      vertex -0.140535 -0.736715 -8
      vertex -0.0470924 -0.74852 0
      vertex -0.140535 -0.736715 0
    endloop
  endfacet
  facet normal -0.125338 -0.992114 -0
    outer loop
      vertex -0.0470924 -0.74852 0
      vertex -0.140535 -0.736715 -8
      vertex -0.0470924 -0.74852 -8
    endloop
  endfacet
  facet normal -0.904829 -0.425776 0
    outer loop
      vertex -0.657229 -0.361315 -8
      vertex -0.697331 -0.276093 0
      vertex -0.697331 -0.276093 -8
    endloop
  endfacet
  facet normal -0.904829 -0.425776 0
    outer loop
      vertex -0.697331 -0.276093 0
      vertex -0.657229 -0.361315 -8
      vertex -0.657229 -0.361315 0
    endloop
  endfacet
  facet normal -0.982288 -0.187375 0
    outer loop
      vertex -0.726437 -0.186517 -8
      vertex -0.744085 -0.0939999 0
      vertex -0.744085 -0.0939999 -8
    endloop
  endfacet
  facet normal -0.982288 -0.187375 0
    outer loop
      vertex -0.744085 -0.0939999 0
      vertex -0.726437 -0.186517 -8
      vertex -0.726437 -0.186517 0
    endloop
  endfacet
  facet normal -0.998026 -0.0628014 0
    outer loop
      vertex -0.744085 -0.0939999 -8
      vertex -0.75 0 0
      vertex -0.75 0 -8
    endloop
  endfacet
  facet normal -0.998026 -0.0628014 0
    outer loop
      vertex -0.75 0 0
      vertex -0.744085 -0.0939999 -8
      vertex -0.744085 -0.0939999 0
    endloop
  endfacet
  facet normal -0.587783 -0.809019 0
    outer loop
      vertex -0.478067 -0.577885 -8
      vertex -0.40187 -0.633245 0
      vertex -0.478067 -0.577885 0
    endloop
  endfacet
  facet normal -0.587783 -0.809019 -0
    outer loop
      vertex -0.40187 -0.633245 0
      vertex -0.478067 -0.577885 -8
      vertex -0.40187 -0.633245 -8
    endloop
  endfacet
  facet normal -0.481749 -0.876309 0
    outer loop
      vertex -0.40187 -0.633245 -8
      vertex -0.319334 -0.678619 0
      vertex -0.40187 -0.633245 0
    endloop
  endfacet
  facet normal -0.481749 -0.876309 -0
    outer loop
      vertex -0.319334 -0.678619 0
      vertex -0.40187 -0.633245 -8
      vertex -0.319334 -0.678619 -8
    endloop
  endfacet
  facet normal -0.368132 -0.929774 0
    outer loop
      vertex -0.319334 -0.678619 -8
      vertex -0.231762 -0.713292 0
      vertex -0.319334 -0.678619 0
    endloop
  endfacet
  facet normal -0.368132 -0.929774 -0
    outer loop
      vertex -0.231762 -0.713292 0
      vertex -0.319334 -0.678619 -8
      vertex -0.231762 -0.713292 -8
    endloop
  endfacet
endsolid OpenSCAD_Model
