solid OpenSCAD_Model
  facet normal 0.998027 0.0627802 0
    outer loop
      vertex 2.5 0 0.65
      vertex 2.48029 0.313333 0
      vertex 2.48029 0.313333 0.65
    endloop
  endfacet
  facet normal 0.998027 0.0627802 0
    outer loop
      vertex 2.48029 0.313333 0
      vertex 2.5 0 0.65
      vertex 2.5 0 0
    endloop
  endfacet
  facet normal -0.998027 0.0627802 0
    outer loop
      vertex -2.5 0 0
      vertex -2.48029 0.313333 0.65
      vertex -2.48029 0.313333 0
    endloop
  endfacet
  facet normal -0.998027 0.0627802 0
    outer loop
      vertex -2.48029 0.313333 0.65
      vertex -2.5 0 0
      vertex -2.5 0 0.65
    endloop
  endfacet
  facet normal 0 1 -0
    outer loop
      vertex 0.156976 2.49507 0
      vertex -0.156976 2.49507 0.65
      vertex 0.156976 2.49507 0.65
    endloop
  endfacet
  facet normal 0 1 0
    outer loop
      vertex -0.156976 2.49507 0.65
      vertex 0.156976 2.49507 0
      vertex -0.156976 2.49507 0
    endloop
  endfacet
  facet normal 0 -1 0
    outer loop
      vertex -0.156976 -2.49507 0
      vertex 0.156976 -2.49507 0.65
      vertex -0.156976 -2.49507 0.65
    endloop
  endfacet
  facet normal 0 -1 -0
    outer loop
      vertex 0.156976 -2.49507 0.65
      vertex -0.156976 -2.49507 0
      vertex 0.156976 -2.49507 0
    endloop
  endfacet
  facet normal 0.684541 0.728975 -0
    outer loop
      vertex 1.82242 1.71137 0
      vertex 1.59356 1.92628 0.65
      vertex 1.82242 1.71137 0.65
    endloop
  endfacet
  facet normal 0.684541 0.728975 0
    outer loop
      vertex 1.59356 1.92628 0.65
      vertex 1.82242 1.71137 0
      vertex 1.59356 1.92628 0
    endloop
  endfacet
  facet normal -0.684541 0.728975 0
    outer loop
      vertex -1.59356 1.92628 0
      vertex -1.82242 1.71137 0.65
      vertex -1.59356 1.92628 0.65
    endloop
  endfacet
  facet normal -0.684541 0.728975 0
    outer loop
      vertex -1.82242 1.71137 0.65
      vertex -1.59356 1.92628 0
      vertex -1.82242 1.71137 0
    endloop
  endfacet
  facet normal -0.368112 0.929781 0
    outer loop
      vertex -0.772542 2.37764 0
      vertex -1.06445 2.26207 0.65
      vertex -0.772542 2.37764 0.65
    endloop
  endfacet
  facet normal -0.368112 0.929781 0
    outer loop
      vertex -1.06445 2.26207 0.65
      vertex -0.772542 2.37764 0
      vertex -1.06445 2.26207 0
    endloop
  endfacet
  facet normal 0.90483 0.425772 0
    outer loop
      vertex 2.32444 0.920311 0.65
      vertex 2.19077 1.20438 0
      vertex 2.19077 1.20438 0.65
    endloop
  endfacet
  facet normal 0.90483 0.425772 0
    outer loop
      vertex 2.19077 1.20438 0
      vertex 2.32444 0.920311 0.65
      vertex 2.32444 0.920311 0
    endloop
  endfacet
  facet normal 0.368112 0.929781 -0
    outer loop
      vertex 1.06445 2.26207 0
      vertex 0.772542 2.37764 0.65
      vertex 1.06445 2.26207 0.65
    endloop
  endfacet
  facet normal 0.368112 0.929781 0
    outer loop
      vertex 0.772542 2.37764 0.65
      vertex 1.06445 2.26207 0
      vertex 0.772542 2.37764 0
    endloop
  endfacet
  facet normal 0.248699 0.968581 -0
    outer loop
      vertex 0.772542 2.37764 0
      vertex 0.468452 2.45572 0.65
      vertex 0.772542 2.37764 0.65
    endloop
  endfacet
  facet normal 0.248699 0.968581 0
    outer loop
      vertex 0.468452 2.45572 0.65
      vertex 0.772542 2.37764 0
      vertex 0.468452 2.45572 0
    endloop
  endfacet
  facet normal 0.481757 0.876305 -0
    outer loop
      vertex 1.33957 2.11082 0
      vertex 1.06445 2.26207 0.65
      vertex 1.33957 2.11082 0.65
    endloop
  endfacet
  facet normal 0.481757 0.876305 0
    outer loop
      vertex 1.06445 2.26207 0.65
      vertex 1.33957 2.11082 0
      vertex 1.06445 2.26207 0
    endloop
  endfacet
  facet normal -0.90483 0.425772 0
    outer loop
      vertex -2.32444 0.920311 0
      vertex -2.19077 1.20438 0.65
      vertex -2.19077 1.20438 0
    endloop
  endfacet
  facet normal -0.90483 0.425772 0
    outer loop
      vertex -2.19077 1.20438 0.65
      vertex -2.32444 0.920311 0
      vertex -2.32444 0.920311 0.65
    endloop
  endfacet
  facet normal 0 0 1
    outer loop
      vertex 2.48029 0.313333 0.65
      vertex 2.48029 -0.313333 0.65
      vertex 2.5 0 0.65
    endloop
  endfacet
  facet normal 0 0 1
    outer loop
      vertex 2.42146 0.621724 0.65
      vertex 2.48029 -0.313333 0.65
      vertex 2.48029 0.313333 0.65
    endloop
  endfacet
  facet normal 0 0 1
    outer loop
      vertex 2.42146 0.621724 0.65
      vertex 2.42146 -0.621724 0.65
      vertex 2.48029 -0.313333 0.65
    endloop
  endfacet
  facet normal 0 0 1
    outer loop
      vertex 2.32444 0.920311 0.65
      vertex 2.42146 -0.621724 0.65
      vertex 2.42146 0.621724 0.65
    endloop
  endfacet
  facet normal 0 0 1
    outer loop
      vertex 2.32444 0.920311 0.65
      vertex 2.32444 -0.920311 0.65
      vertex 2.42146 -0.621724 0.65
    endloop
  endfacet
  facet normal 0 0 1
    outer loop
      vertex 2.19077 1.20438 0.65
      vertex 2.32444 -0.920311 0.65
      vertex 2.32444 0.920311 0.65
    endloop
  endfacet
  facet normal 0 0 1
    outer loop
      vertex 2.19077 1.20438 0.65
      vertex 2.19077 -1.20438 0.65
      vertex 2.32444 -0.920311 0.65
    endloop
  endfacet
  facet normal 0 0 1
    outer loop
      vertex 2.02254 1.46946 0.65
      vertex 2.19077 -1.20438 0.65
      vertex 2.19077 1.20438 0.65
    endloop
  endfacet
  facet normal 0 0 1
    outer loop
      vertex 2.02254 1.46946 0.65
      vertex 2.02254 -1.46946 0.65
      vertex 2.19077 -1.20438 0.65
    endloop
  endfacet
  facet normal 0 0 1
    outer loop
      vertex 1.82242 1.71137 0.65
      vertex 2.02254 -1.46946 0.65
      vertex 2.02254 1.46946 0.65
    endloop
  endfacet
  facet normal 0 0 1
    outer loop
      vertex 1.82242 1.71137 0.65
      vertex 1.82242 -1.71137 0.65
      vertex 2.02254 -1.46946 0.65
    endloop
  endfacet
  facet normal 0 0 1
    outer loop
      vertex 1.59356 1.92628 0.65
      vertex 1.82242 -1.71137 0.65
      vertex 1.82242 1.71137 0.65
    endloop
  endfacet
  facet normal 0 0 1
    outer loop
      vertex 1.59356 1.92628 0.65
      vertex 1.59356 -1.92628 0.65
      vertex 1.82242 -1.71137 0.65
    endloop
  endfacet
  facet normal 0 0 1
    outer loop
      vertex 1.33957 2.11082 0.65
      vertex 1.59356 -1.92628 0.65
      vertex 1.59356 1.92628 0.65
    endloop
  endfacet
  facet normal 0 0 1
    outer loop
      vertex 1.33957 2.11082 0.65
      vertex 1.33957 -2.11082 0.65
      vertex 1.59356 -1.92628 0.65
    endloop
  endfacet
  facet normal 0 0 1
    outer loop
      vertex 1.06445 2.26207 0.65
      vertex 1.33957 -2.11082 0.65
      vertex 1.33957 2.11082 0.65
    endloop
  endfacet
  facet normal 0 0 1
    outer loop
      vertex 1.06445 2.26207 0.65
      vertex 1.06445 -2.26207 0.65
      vertex 1.33957 -2.11082 0.65
    endloop
  endfacet
  facet normal 0 0 1
    outer loop
      vertex 0.772542 2.37764 0.65
      vertex 1.06445 -2.26207 0.65
      vertex 1.06445 2.26207 0.65
    endloop
  endfacet
  facet normal 0 0 1
    outer loop
      vertex 0.772542 2.37764 0.65
      vertex 0.772542 -2.37764 0.65
      vertex 1.06445 -2.26207 0.65
    endloop
  endfacet
  facet normal 0 0 1
    outer loop
      vertex 0.468452 2.45572 0.65
      vertex 0.772542 -2.37764 0.65
      vertex 0.772542 2.37764 0.65
    endloop
  endfacet
  facet normal 0 0 1
    outer loop
      vertex 0.468452 2.45572 0.65
      vertex 0.468452 -2.45572 0.65
      vertex 0.772542 -2.37764 0.65
    endloop
  endfacet
  facet normal 0 0 1
    outer loop
      vertex 0.156976 2.49507 0.65
      vertex 0.468452 -2.45572 0.65
      vertex 0.468452 2.45572 0.65
    endloop
  endfacet
  facet normal 0 0 1
    outer loop
      vertex 0.156976 2.49507 0.65
      vertex 0.156976 -2.49507 0.65
      vertex 0.468452 -2.45572 0.65
    endloop
  endfacet
  facet normal -0 0 1
    outer loop
      vertex -0.156976 2.49507 0.65
      vertex 0.156976 -2.49507 0.65
      vertex 0.156976 2.49507 0.65
    endloop
  endfacet
  facet normal 0 0 1
    outer loop
      vertex -0.156976 2.49507 0.65
      vertex -0.156976 -2.49507 0.65
      vertex 0.156976 -2.49507 0.65
    endloop
  endfacet
  facet normal -0 0 1
    outer loop
      vertex -0.468452 2.45572 0.65
      vertex -0.156976 -2.49507 0.65
      vertex -0.156976 2.49507 0.65
    endloop
  endfacet
  facet normal 0 0 1
    outer loop
      vertex -0.468452 2.45572 0.65
      vertex -0.468452 -2.45572 0.65
      vertex -0.156976 -2.49507 0.65
    endloop
  endfacet
  facet normal -0 0 1
    outer loop
      vertex -0.772542 2.37764 0.65
      vertex -0.468452 -2.45572 0.65
      vertex -0.468452 2.45572 0.65
    endloop
  endfacet
  facet normal 0 0 1
    outer loop
      vertex -0.772542 2.37764 0.65
      vertex -0.772542 -2.37764 0.65
      vertex -0.468452 -2.45572 0.65
    endloop
  endfacet
  facet normal -0 0 1
    outer loop
      vertex -1.06445 2.26207 0.65
      vertex -0.772542 -2.37764 0.65
      vertex -0.772542 2.37764 0.65
    endloop
  endfacet
  facet normal 0 0 1
    outer loop
      vertex -1.06445 2.26207 0.65
      vertex -1.06445 -2.26207 0.65
      vertex -0.772542 -2.37764 0.65
    endloop
  endfacet
  facet normal -0 0 1
    outer loop
      vertex -1.33957 2.11082 0.65
      vertex -1.06445 -2.26207 0.65
      vertex -1.06445 2.26207 0.65
    endloop
  endfacet
  facet normal 0 0 1
    outer loop
      vertex -1.33957 2.11082 0.65
      vertex -1.33957 -2.11082 0.65
      vertex -1.06445 -2.26207 0.65
    endloop
  endfacet
  facet normal -0 0 1
    outer loop
      vertex -1.59356 1.92628 0.65
      vertex -1.33957 -2.11082 0.65
      vertex -1.33957 2.11082 0.65
    endloop
  endfacet
  facet normal 0 0 1
    outer loop
      vertex -1.59356 1.92628 0.65
      vertex -1.59356 -1.92628 0.65
      vertex -1.33957 -2.11082 0.65
    endloop
  endfacet
  facet normal -0 0 1
    outer loop
      vertex -1.82242 1.71137 0.65
      vertex -1.59356 -1.92628 0.65
      vertex -1.59356 1.92628 0.65
    endloop
  endfacet
  facet normal 0 0 1
    outer loop
      vertex -1.82242 1.71137 0.65
      vertex -1.82242 -1.71137 0.65
      vertex -1.59356 -1.92628 0.65
    endloop
  endfacet
  facet normal -0 0 1
    outer loop
      vertex -2.02254 1.46946 0.65
      vertex -1.82242 -1.71137 0.65
      vertex -1.82242 1.71137 0.65
    endloop
  endfacet
  facet normal 0 0 1
    outer loop
      vertex -2.02254 1.46946 0.65
      vertex -2.02254 -1.46946 0.65
      vertex -1.82242 -1.71137 0.65
    endloop
  endfacet
  facet normal -0 0 1
    outer loop
      vertex -2.19077 1.20438 0.65
      vertex -2.02254 -1.46946 0.65
      vertex -2.02254 1.46946 0.65
    endloop
  endfacet
  facet normal 0 0 1
    outer loop
      vertex -2.19077 1.20438 0.65
      vertex -2.19077 -1.20438 0.65
      vertex -2.02254 -1.46946 0.65
    endloop
  endfacet
  facet normal -0 0 1
    outer loop
      vertex -2.32444 0.920311 0.65
      vertex -2.19077 -1.20438 0.65
      vertex -2.19077 1.20438 0.65
    endloop
  endfacet
  facet normal 0 0 1
    outer loop
      vertex -2.32444 0.920311 0.65
      vertex -2.32444 -0.920311 0.65
      vertex -2.19077 -1.20438 0.65
    endloop
  endfacet
  facet normal -0 0 1
    outer loop
      vertex -2.42146 0.621724 0.65
      vertex -2.32444 -0.920311 0.65
      vertex -2.32444 0.920311 0.65
    endloop
  endfacet
  facet normal 0 0 1
    outer loop
      vertex -2.42146 0.621724 0.65
      vertex -2.42146 -0.621724 0.65
      vertex -2.32444 -0.920311 0.65
    endloop
  endfacet
  facet normal -0 0 1
    outer loop
      vertex -2.48029 0.313333 0.65
      vertex -2.42146 -0.621724 0.65
      vertex -2.42146 0.621724 0.65
    endloop
  endfacet
  facet normal 0 0 1
    outer loop
      vertex -2.48029 0.313333 0.65
      vertex -2.48029 -0.313333 0.65
      vertex -2.42146 -0.621724 0.65
    endloop
  endfacet
  facet normal 0 -0 1
    outer loop
      vertex -2.48029 -0.313333 0.65
      vertex -2.48029 0.313333 0.65
      vertex -2.5 0 0.65
    endloop
  endfacet
  facet normal -0.125338 0.992114 0
    outer loop
      vertex -0.156976 2.49507 0
      vertex -0.468452 2.45572 0.65
      vertex -0.156976 2.49507 0.65
    endloop
  endfacet
  facet normal -0.125338 0.992114 0
    outer loop
      vertex -0.468452 2.45572 0.65
      vertex -0.156976 2.49507 0
      vertex -0.468452 2.45572 0
    endloop
  endfacet
  facet normal 0 0 -1
    outer loop
      vertex 0.75 0 0
      vertex 2.5 0 0
      vertex 2.48029 -0.313333 0
    endloop
  endfacet
  facet normal 0 0 -1
    outer loop
      vertex 0.744085 -0.0939999 0
      vertex 2.48029 -0.313333 0
      vertex 2.42146 -0.621724 0
    endloop
  endfacet
  facet normal 0 0 -1
    outer loop
      vertex 2.5 0 0
      vertex 0.75 0 0
      vertex 2.48029 0.313333 0
    endloop
  endfacet
  facet normal 0 0 -1
    outer loop
      vertex 0.726437 -0.186517 0
      vertex 2.42146 -0.621724 0
      vertex 2.32444 -0.920311 0
    endloop
  endfacet
  facet normal 0 0 -1
    outer loop
      vertex 0.744085 0.0939999 0
      vertex 2.48029 0.313333 0
      vertex 0.75 0 0
    endloop
  endfacet
  facet normal 0 0 -1
    outer loop
      vertex 0.697331 -0.276093 0
      vertex 2.32444 -0.920311 0
      vertex 2.19077 -1.20438 0
    endloop
  endfacet
  facet normal -0 0 -1
    outer loop
      vertex 2.48029 0.313333 0
      vertex 0.744085 0.0939999 0
      vertex 2.42146 0.621724 0
    endloop
  endfacet
  facet normal 0 0 -1
    outer loop
      vertex 0.657229 -0.361315 0
      vertex 2.19077 -1.20438 0
      vertex 2.02254 -1.46946 0
    endloop
  endfacet
  facet normal 0 0 -1
    outer loop
      vertex 0.726437 0.186517 0
      vertex 2.42146 0.621724 0
      vertex 0.744085 0.0939999 0
    endloop
  endfacet
  facet normal 0 0 -1
    outer loop
      vertex 0.606762 -0.440839 0
      vertex 2.02254 -1.46946 0
      vertex 1.82242 -1.71137 0
    endloop
  endfacet
  facet normal -0 0 -1
    outer loop
      vertex 2.42146 0.621724 0
      vertex 0.726437 0.186517 0
      vertex 2.32444 0.920311 0
    endloop
  endfacet
  facet normal 0 0 -1
    outer loop
      vertex 0.546726 -0.51341 0
      vertex 1.82242 -1.71137 0
      vertex 1.59356 -1.92628 0
    endloop
  endfacet
  facet normal 0 0 -1
    outer loop
      vertex 0.697331 0.276093 0
      vertex 2.32444 0.920311 0
      vertex 0.726437 0.186517 0
    endloop
  endfacet
  facet normal 0 0 -1
    outer loop
      vertex 0.478067 -0.577885 0
      vertex 1.59356 -1.92628 0
      vertex 1.33957 -2.11082 0
    endloop
  endfacet
  facet normal -0 0 -1
    outer loop
      vertex 2.32444 0.920311 0
      vertex 0.697331 0.276093 0
      vertex 2.19077 1.20438 0
    endloop
  endfacet
  facet normal 0 0 -1
    outer loop
      vertex 0.40187 -0.633245 0
      vertex 1.33957 -2.11082 0
      vertex 1.06445 -2.26207 0
    endloop
  endfacet
  facet normal 0 0 -1
    outer loop
      vertex 0.657229 0.361315 0
      vertex 2.19077 1.20438 0
      vertex 0.697331 0.276093 0
    endloop
  endfacet
  facet normal 0 0 -1
    outer loop
      vertex 0.319334 -0.678619 0
      vertex 1.06445 -2.26207 0
      vertex 0.772542 -2.37764 0
    endloop
  endfacet
  facet normal -0 0 -1
    outer loop
      vertex 2.19077 1.20438 0
      vertex 0.657229 0.361315 0
      vertex 2.02254 1.46946 0
    endloop
  endfacet
  facet normal 0 0 -1
    outer loop
      vertex 0.606762 0.440839 0
      vertex 2.02254 1.46946 0
      vertex 0.657229 0.361315 0
    endloop
  endfacet
  facet normal 0 0 -1
    outer loop
      vertex 2.48029 -0.313333 0
      vertex 0.744085 -0.0939999 0
      vertex 0.75 0 0
    endloop
  endfacet
  facet normal 0 0 -1
    outer loop
      vertex 2.42146 -0.621724 0
      vertex 0.726437 -0.186517 0
      vertex 0.744085 -0.0939999 0
    endloop
  endfacet
  facet normal 0 0 -1
    outer loop
      vertex 2.32444 -0.920311 0
      vertex 0.697331 -0.276093 0
      vertex 0.726437 -0.186517 0
    endloop
  endfacet
  facet normal 0 0 -1
    outer loop
      vertex 2.19077 -1.20438 0
      vertex 0.657229 -0.361315 0
      vertex 0.697331 -0.276093 0
    endloop
  endfacet
  facet normal 0 0 -1
    outer loop
      vertex 2.02254 -1.46946 0
      vertex 0.606762 -0.440839 0
      vertex 0.657229 -0.361315 0
    endloop
  endfacet
  facet normal 0 0 -1
    outer loop
      vertex 1.82242 -1.71137 0
      vertex 0.546726 -0.51341 0
      vertex 0.606762 -0.440839 0
    endloop
  endfacet
  facet normal 0 0 -1
    outer loop
      vertex 1.59356 -1.92628 0
      vertex 0.478067 -0.577885 0
      vertex 0.546726 -0.51341 0
    endloop
  endfacet
  facet normal 0 0 -1
    outer loop
      vertex 0.231762 -0.713292 0
      vertex 0.772542 -2.37764 0
      vertex 0.468452 -2.45572 0
    endloop
  endfacet
  facet normal 0 0 -1
    outer loop
      vertex 1.33957 -2.11082 0
      vertex 0.40187 -0.633245 0
      vertex 0.478067 -0.577885 0
    endloop
  endfacet
  facet normal 0 0 -1
    outer loop
      vertex 1.06445 -2.26207 0
      vertex 0.319334 -0.678619 0
      vertex 0.40187 -0.633245 0
    endloop
  endfacet
  facet normal 0 0 -1
    outer loop
      vertex 0.772542 -2.37764 0
      vertex 0.231762 -0.713292 0
      vertex 0.319334 -0.678619 0
    endloop
  endfacet
  facet normal 0 0 -1
    outer loop
      vertex 0.140535 -0.736715 0
      vertex 0.468452 -2.45572 0
      vertex 0.156976 -2.49507 0
    endloop
  endfacet
  facet normal 0 0 -1
    outer loop
      vertex 0.468452 -2.45572 0
      vertex 0.140535 -0.736715 0
      vertex 0.231762 -0.713292 0
    endloop
  endfacet
  facet normal 0 0 -1
    outer loop
      vertex 0.156976 -2.49507 0
      vertex 0.0470924 -0.74852 0
      vertex 0.140535 -0.736715 0
    endloop
  endfacet
  facet normal 0 0 -1
    outer loop
      vertex 0.156976 -2.49507 0
      vertex -0.0470924 -0.74852 0
      vertex 0.0470924 -0.74852 0
    endloop
  endfacet
  facet normal 0 0 -1
    outer loop
      vertex -0.156976 -2.49507 0
      vertex -0.0470924 -0.74852 0
      vertex 0.156976 -2.49507 0
    endloop
  endfacet
  facet normal -0 0 -1
    outer loop
      vertex -0.0470924 -0.74852 0
      vertex -0.156976 -2.49507 0
      vertex -0.140535 -0.736715 0
    endloop
  endfacet
  facet normal 0 0 -1
    outer loop
      vertex -0.468452 -2.45572 0
      vertex -0.140535 -0.736715 0
      vertex -0.156976 -2.49507 0
    endloop
  endfacet
  facet normal -0 0 -1
    outer loop
      vertex -0.140535 -0.736715 0
      vertex -0.468452 -2.45572 0
      vertex -0.231762 -0.713292 0
    endloop
  endfacet
  facet normal 0 0 -1
    outer loop
      vertex -0.772542 -2.37764 0
      vertex -0.231762 -0.713292 0
      vertex -0.468452 -2.45572 0
    endloop
  endfacet
  facet normal -0 0 -1
    outer loop
      vertex -0.231762 -0.713292 0
      vertex -0.772542 -2.37764 0
      vertex -0.319334 -0.678619 0
    endloop
  endfacet
  facet normal 0 0 -1
    outer loop
      vertex -1.06445 -2.26207 0
      vertex -0.319334 -0.678619 0
      vertex -0.772542 -2.37764 0
    endloop
  endfacet
  facet normal -0 0 -1
    outer loop
      vertex -0.319334 -0.678619 0
      vertex -1.06445 -2.26207 0
      vertex -0.40187 -0.633245 0
    endloop
  endfacet
  facet normal 0 0 -1
    outer loop
      vertex -1.33957 -2.11082 0
      vertex -0.40187 -0.633245 0
      vertex -1.06445 -2.26207 0
    endloop
  endfacet
  facet normal -0 0 -1
    outer loop
      vertex -0.40187 -0.633245 0
      vertex -1.33957 -2.11082 0
      vertex -0.478067 -0.577885 0
    endloop
  endfacet
  facet normal 0 0 -1
    outer loop
      vertex -1.59356 -1.92628 0
      vertex -0.478067 -0.577885 0
      vertex -1.33957 -2.11082 0
    endloop
  endfacet
  facet normal -0 0 -1
    outer loop
      vertex -0.478067 -0.577885 0
      vertex -1.59356 -1.92628 0
      vertex -0.546726 -0.51341 0
    endloop
  endfacet
  facet normal 0 0 -1
    outer loop
      vertex -1.82242 -1.71137 0
      vertex -0.546726 -0.51341 0
      vertex -1.59356 -1.92628 0
    endloop
  endfacet
  facet normal 0 0 -1
    outer loop
      vertex -2.02254 -1.46946 0
      vertex -0.606762 -0.440839 0
      vertex -1.82242 -1.71137 0
    endloop
  endfacet
  facet normal -0 0 -1
    outer loop
      vertex -0.546726 -0.51341 0
      vertex -1.82242 -1.71137 0
      vertex -0.606762 -0.440839 0
    endloop
  endfacet
  facet normal -0 0 -1
    outer loop
      vertex 2.02254 1.46946 0
      vertex 0.606762 0.440839 0
      vertex 1.82242 1.71137 0
    endloop
  endfacet
  facet normal 0 0 -1
    outer loop
      vertex 0.546726 0.51341 0
      vertex 1.82242 1.71137 0
      vertex 0.606762 0.440839 0
    endloop
  endfacet
  facet normal -0 0 -1
    outer loop
      vertex 1.82242 1.71137 0
      vertex 0.546726 0.51341 0
      vertex 1.59356 1.92628 0
    endloop
  endfacet
  facet normal 0 0 -1
    outer loop
      vertex 0.478067 0.577885 0
      vertex 1.59356 1.92628 0
      vertex 0.546726 0.51341 0
    endloop
  endfacet
  facet normal -0 0 -1
    outer loop
      vertex 1.59356 1.92628 0
      vertex 0.478067 0.577885 0
      vertex 1.33957 2.11082 0
    endloop
  endfacet
  facet normal 0 0 -1
    outer loop
      vertex 0.40187 0.633245 0
      vertex 1.33957 2.11082 0
      vertex 0.478067 0.577885 0
    endloop
  endfacet
  facet normal -0 0 -1
    outer loop
      vertex 1.33957 2.11082 0
      vertex 0.40187 0.633245 0
      vertex 1.06445 2.26207 0
    endloop
  endfacet
  facet normal 0 0 -1
    outer loop
      vertex 0.319334 0.678619 0
      vertex 1.06445 2.26207 0
      vertex 0.40187 0.633245 0
    endloop
  endfacet
  facet normal -0 0 -1
    outer loop
      vertex 1.06445 2.26207 0
      vertex 0.319334 0.678619 0
      vertex 0.772542 2.37764 0
    endloop
  endfacet
  facet normal 0 0 -1
    outer loop
      vertex 0.231762 0.713292 0
      vertex 0.772542 2.37764 0
      vertex 0.319334 0.678619 0
    endloop
  endfacet
  facet normal -0 0 -1
    outer loop
      vertex 0.772542 2.37764 0
      vertex 0.231762 0.713292 0
      vertex 0.468452 2.45572 0
    endloop
  endfacet
  facet normal 0 0 -1
    outer loop
      vertex 0.140535 0.736715 0
      vertex 0.468452 2.45572 0
      vertex 0.231762 0.713292 0
    endloop
  endfacet
  facet normal -0 0 -1
    outer loop
      vertex 0.468452 2.45572 0
      vertex 0.140535 0.736715 0
      vertex 0.156976 2.49507 0
    endloop
  endfacet
  facet normal 0 0 -1
    outer loop
      vertex 0.0470924 0.74852 0
      vertex 0.156976 2.49507 0
      vertex 0.140535 0.736715 0
    endloop
  endfacet
  facet normal 0 0 -1
    outer loop
      vertex -0.0470924 0.74852 0
      vertex 0.156976 2.49507 0
      vertex 0.0470924 0.74852 0
    endloop
  endfacet
  facet normal 0 0 -1
    outer loop
      vertex -0.156976 2.49507 0
      vertex -0.0470924 0.74852 0
      vertex -0.140535 0.736715 0
    endloop
  endfacet
  facet normal 0 0 -1
    outer loop
      vertex -0.0470924 0.74852 0
      vertex -0.156976 2.49507 0
      vertex 0.156976 2.49507 0
    endloop
  endfacet
  facet normal 0 0 -1
    outer loop
      vertex -0.468452 2.45572 0
      vertex -0.140535 0.736715 0
      vertex -0.231762 0.713292 0
    endloop
  endfacet
  facet normal 0 0 -1
    outer loop
      vertex -0.772542 2.37764 0
      vertex -0.231762 0.713292 0
      vertex -0.319334 0.678619 0
    endloop
  endfacet
  facet normal 0 0 -1
    outer loop
      vertex -1.06445 2.26207 0
      vertex -0.319334 0.678619 0
      vertex -0.40187 0.633245 0
    endloop
  endfacet
  facet normal 0 0 -1
    outer loop
      vertex -0.140535 0.736715 0
      vertex -0.468452 2.45572 0
      vertex -0.156976 2.49507 0
    endloop
  endfacet
  facet normal 0 0 -1
    outer loop
      vertex -1.33957 2.11082 0
      vertex -0.40187 0.633245 0
      vertex -0.478067 0.577885 0
    endloop
  endfacet
  facet normal 0 0 -1
    outer loop
      vertex -1.59356 1.92628 0
      vertex -0.478067 0.577885 0
      vertex -0.546726 0.51341 0
    endloop
  endfacet
  facet normal 0 0 -1
    outer loop
      vertex -1.82242 1.71137 0
      vertex -0.546726 0.51341 0
      vertex -0.606762 0.440839 0
    endloop
  endfacet
  facet normal 0 0 -1
    outer loop
      vertex -2.02254 1.46946 0
      vertex -0.606762 0.440839 0
      vertex -0.657229 0.361315 0
    endloop
  endfacet
  facet normal 0 0 -1
    outer loop
      vertex -2.19077 1.20438 0
      vertex -0.657229 0.361315 0
      vertex -0.697331 0.276093 0
    endloop
  endfacet
  facet normal 0 0 -1
    outer loop
      vertex -2.32444 0.920311 0
      vertex -0.697331 0.276093 0
      vertex -0.726437 0.186517 0
    endloop
  endfacet
  facet normal 0 0 -1
    outer loop
      vertex -2.42146 0.621724 0
      vertex -0.726437 0.186517 0
      vertex -0.744085 0.0939999 0
    endloop
  endfacet
  facet normal 0 0 -1
    outer loop
      vertex -0.231762 0.713292 0
      vertex -0.772542 2.37764 0
      vertex -0.468452 2.45572 0
    endloop
  endfacet
  facet normal 0 0 -1
    outer loop
      vertex -2.48029 0.313333 0
      vertex -0.744085 0.0939999 0
      vertex -0.75 0 0
    endloop
  endfacet
  facet normal -0 0 -1
    outer loop
      vertex -0.606762 -0.440839 0
      vertex -2.02254 -1.46946 0
      vertex -0.657229 -0.361315 0
    endloop
  endfacet
  facet normal 0 0 -1
    outer loop
      vertex -2.19077 -1.20438 0
      vertex -0.657229 -0.361315 0
      vertex -2.02254 -1.46946 0
    endloop
  endfacet
  facet normal 0 0 -1
    outer loop
      vertex -0.319334 0.678619 0
      vertex -1.06445 2.26207 0
      vertex -0.772542 2.37764 0
    endloop
  endfacet
  facet normal -0 0 -1
    outer loop
      vertex -0.657229 -0.361315 0
      vertex -2.19077 -1.20438 0
      vertex -0.697331 -0.276093 0
    endloop
  endfacet
  facet normal 0 0 -1
    outer loop
      vertex -0.40187 0.633245 0
      vertex -1.33957 2.11082 0
      vertex -1.06445 2.26207 0
    endloop
  endfacet
  facet normal 0 0 -1
    outer loop
      vertex -2.32444 -0.920311 0
      vertex -0.697331 -0.276093 0
      vertex -2.19077 -1.20438 0
    endloop
  endfacet
  facet normal 0 0 -1
    outer loop
      vertex -0.478067 0.577885 0
      vertex -1.59356 1.92628 0
      vertex -1.33957 2.11082 0
    endloop
  endfacet
  facet normal -0 0 -1
    outer loop
      vertex -0.697331 -0.276093 0
      vertex -2.32444 -0.920311 0
      vertex -0.726437 -0.186517 0
    endloop
  endfacet
  facet normal 0 0 -1
    outer loop
      vertex -0.546726 0.51341 0
      vertex -1.82242 1.71137 0
      vertex -1.59356 1.92628 0
    endloop
  endfacet
  facet normal 0 0 -1
    outer loop
      vertex -2.42146 -0.621724 0
      vertex -0.726437 -0.186517 0
      vertex -2.32444 -0.920311 0
    endloop
  endfacet
  facet normal 0 0 -1
    outer loop
      vertex -0.606762 0.440839 0
      vertex -2.02254 1.46946 0
      vertex -1.82242 1.71137 0
    endloop
  endfacet
  facet normal -0 0 -1
    outer loop
      vertex -0.726437 -0.186517 0
      vertex -2.42146 -0.621724 0
      vertex -0.744085 -0.0939999 0
    endloop
  endfacet
  facet normal 0 0 -1
    outer loop
      vertex -0.657229 0.361315 0
      vertex -2.19077 1.20438 0
      vertex -2.02254 1.46946 0
    endloop
  endfacet
  facet normal 0 0 -1
    outer loop
      vertex -2.48029 -0.313333 0
      vertex -0.744085 -0.0939999 0
      vertex -2.42146 -0.621724 0
    endloop
  endfacet
  facet normal 0 0 -1
    outer loop
      vertex -0.697331 0.276093 0
      vertex -2.32444 0.920311 0
      vertex -2.19077 1.20438 0
    endloop
  endfacet
  facet normal -0 0 -1
    outer loop
      vertex -0.744085 -0.0939999 0
      vertex -2.48029 -0.313333 0
      vertex -0.75 0 0
    endloop
  endfacet
  facet normal 0 0 -1
    outer loop
      vertex -0.726437 0.186517 0
      vertex -2.42146 0.621724 0
      vertex -2.32444 0.920311 0
    endloop
  endfacet
  facet normal 0 0 -1
    outer loop
      vertex -2.5 0 0
      vertex -0.75 0 0
      vertex -2.48029 -0.313333 0
    endloop
  endfacet
  facet normal 0 0 -1
    outer loop
      vertex -0.744085 0.0939999 0
      vertex -2.48029 0.313333 0
      vertex -2.42146 0.621724 0
    endloop
  endfacet
  facet normal 0 0 -1
    outer loop
      vertex -0.75 0 0
      vertex -2.5 0 0
      vertex -2.48029 0.313333 0
    endloop
  endfacet
  facet normal 0.125338 -0.992114 0
    outer loop
      vertex 0.156976 -2.49507 0
      vertex 0.468452 -2.45572 0.65
      vertex 0.156976 -2.49507 0.65
    endloop
  endfacet
  facet normal 0.125338 -0.992114 0
    outer loop
      vertex 0.468452 -2.45572 0.65
      vertex 0.156976 -2.49507 0
      vertex 0.468452 -2.45572 0
    endloop
  endfacet
  facet normal 0.951054 0.309026 0
    outer loop
      vertex 2.42146 0.621724 0.65
      vertex 2.32444 0.920311 0
      vertex 2.32444 0.920311 0.65
    endloop
  endfacet
  facet normal 0.951054 0.309026 0
    outer loop
      vertex 2.32444 0.920311 0
      vertex 2.42146 0.621724 0.65
      vertex 2.42146 0.621724 0
    endloop
  endfacet
  facet normal 0.982287 0.187385 0
    outer loop
      vertex 2.48029 0.313333 0.65
      vertex 2.42146 0.621724 0
      vertex 2.42146 0.621724 0.65
    endloop
  endfacet
  facet normal 0.982287 0.187385 0
    outer loop
      vertex 2.42146 0.621724 0
      vertex 2.48029 0.313333 0.65
      vertex 2.48029 0.313333 0
    endloop
  endfacet
  facet normal 0.770522 0.637414 0
    outer loop
      vertex 2.02254 1.46946 0.65
      vertex 1.82242 1.71137 0
      vertex 1.82242 1.71137 0.65
    endloop
  endfacet
  facet normal 0.770522 0.637414 0
    outer loop
      vertex 1.82242 1.71137 0
      vertex 2.02254 1.46946 0.65
      vertex 2.02254 1.46946 0
    endloop
  endfacet
  facet normal 0.844321 0.535838 0
    outer loop
      vertex 2.19077 1.20438 0.65
      vertex 2.02254 1.46946 0
      vertex 2.02254 1.46946 0.65
    endloop
  endfacet
  facet normal 0.844321 0.535838 0
    outer loop
      vertex 2.02254 1.46946 0
      vertex 2.19077 1.20438 0.65
      vertex 2.19077 1.20438 0
    endloop
  endfacet
  facet normal 0.125338 0.992114 -0
    outer loop
      vertex 0.468452 2.45572 0
      vertex 0.156976 2.49507 0.65
      vertex 0.468452 2.45572 0.65
    endloop
  endfacet
  facet normal 0.125338 0.992114 0
    outer loop
      vertex 0.156976 2.49507 0.65
      vertex 0.468452 2.45572 0
      vertex 0.156976 2.49507 0
    endloop
  endfacet
  facet normal 0.587797 0.809009 -0
    outer loop
      vertex 1.59356 1.92628 0
      vertex 1.33957 2.11082 0.65
      vertex 1.59356 1.92628 0.65
    endloop
  endfacet
  facet normal 0.587797 0.809009 0
    outer loop
      vertex 1.33957 2.11082 0.65
      vertex 1.59356 1.92628 0
      vertex 1.33957 2.11082 0
    endloop
  endfacet
  facet normal -0.844321 0.535838 0
    outer loop
      vertex -2.19077 1.20438 0
      vertex -2.02254 1.46946 0.65
      vertex -2.02254 1.46946 0
    endloop
  endfacet
  facet normal -0.844321 0.535838 0
    outer loop
      vertex -2.02254 1.46946 0.65
      vertex -2.19077 1.20438 0
      vertex -2.19077 1.20438 0.65
    endloop
  endfacet
  facet normal -0.770522 0.637414 0
    outer loop
      vertex -2.02254 1.46946 0
      vertex -1.82242 1.71137 0.65
      vertex -1.82242 1.71137 0
    endloop
  endfacet
  facet normal -0.770522 0.637414 0
    outer loop
      vertex -1.82242 1.71137 0.65
      vertex -2.02254 1.46946 0
      vertex -2.02254 1.46946 0.65
    endloop
  endfacet
  facet normal -0.951054 0.309026 0
    outer loop
      vertex -2.42146 0.621724 0
      vertex -2.32444 0.920311 0.65
      vertex -2.32444 0.920311 0
    endloop
  endfacet
  facet normal -0.951054 0.309026 0
    outer loop
      vertex -2.32444 0.920311 0.65
      vertex -2.42146 0.621724 0
      vertex -2.42146 0.621724 0.65
    endloop
  endfacet
  facet normal -0.982287 0.187385 0
    outer loop
      vertex -2.48029 0.313333 0
      vertex -2.42146 0.621724 0.65
      vertex -2.42146 0.621724 0
    endloop
  endfacet
  facet normal -0.982287 0.187385 0
    outer loop
      vertex -2.42146 0.621724 0.65
      vertex -2.48029 0.313333 0
      vertex -2.48029 0.313333 0.65
    endloop
  endfacet
  facet normal -0.481757 0.876305 0
    outer loop
      vertex -1.06445 2.26207 0
      vertex -1.33957 2.11082 0.65
      vertex -1.06445 2.26207 0.65
    endloop
  endfacet
  facet normal -0.481757 0.876305 0
    outer loop
      vertex -1.33957 2.11082 0.65
      vertex -1.06445 2.26207 0
      vertex -1.33957 2.11082 0
    endloop
  endfacet
  facet normal -0.587797 0.809009 0
    outer loop
      vertex -1.33957 2.11082 0
      vertex -1.59356 1.92628 0.65
      vertex -1.33957 2.11082 0.65
    endloop
  endfacet
  facet normal -0.587797 0.809009 0
    outer loop
      vertex -1.59356 1.92628 0.65
      vertex -1.33957 2.11082 0
      vertex -1.59356 1.92628 0
    endloop
  endfacet
  facet normal -0.248699 0.968581 0
    outer loop
      vertex -0.468452 2.45572 0
      vertex -0.772542 2.37764 0.65
      vertex -0.468452 2.45572 0.65
    endloop
  endfacet
  facet normal -0.248699 0.968581 0
    outer loop
      vertex -0.772542 2.37764 0.65
      vertex -0.468452 2.45572 0
      vertex -0.772542 2.37764 0
    endloop
  endfacet
  facet normal 0.998027 -0.0627802 0
    outer loop
      vertex 2.48029 -0.313333 0.65
      vertex 2.5 0 0
      vertex 2.5 0 0.65
    endloop
  endfacet
  facet normal 0.998027 -0.0627802 0
    outer loop
      vertex 2.5 0 0
      vertex 2.48029 -0.313333 0.65
      vertex 2.48029 -0.313333 0
    endloop
  endfacet
  facet normal 0.90483 -0.425772 0
    outer loop
      vertex 2.19077 -1.20438 0.65
      vertex 2.32444 -0.920311 0
      vertex 2.32444 -0.920311 0.65
    endloop
  endfacet
  facet normal 0.90483 -0.425772 0
    outer loop
      vertex 2.32444 -0.920311 0
      vertex 2.19077 -1.20438 0.65
      vertex 2.19077 -1.20438 0
    endloop
  endfacet
  facet normal -0.684541 -0.728975 0
    outer loop
      vertex -1.82242 -1.71137 0
      vertex -1.59356 -1.92628 0.65
      vertex -1.82242 -1.71137 0.65
    endloop
  endfacet
  facet normal -0.684541 -0.728975 -0
    outer loop
      vertex -1.59356 -1.92628 0.65
      vertex -1.82242 -1.71137 0
      vertex -1.59356 -1.92628 0
    endloop
  endfacet
  facet normal -0.90483 -0.425772 0
    outer loop
      vertex -2.19077 -1.20438 0
      vertex -2.32444 -0.920311 0.65
      vertex -2.32444 -0.920311 0
    endloop
  endfacet
  facet normal -0.90483 -0.425772 0
    outer loop
      vertex -2.32444 -0.920311 0.65
      vertex -2.19077 -1.20438 0
      vertex -2.19077 -1.20438 0.65
    endloop
  endfacet
  facet normal -0.844321 -0.535838 0
    outer loop
      vertex -2.02254 -1.46946 0
      vertex -2.19077 -1.20438 0.65
      vertex -2.19077 -1.20438 0
    endloop
  endfacet
  facet normal -0.844321 -0.535838 0
    outer loop
      vertex -2.19077 -1.20438 0.65
      vertex -2.02254 -1.46946 0
      vertex -2.02254 -1.46946 0.65
    endloop
  endfacet
  facet normal 0.481757 -0.876305 0
    outer loop
      vertex 1.06445 -2.26207 0
      vertex 1.33957 -2.11082 0.65
      vertex 1.06445 -2.26207 0.65
    endloop
  endfacet
  facet normal 0.481757 -0.876305 0
    outer loop
      vertex 1.33957 -2.11082 0.65
      vertex 1.06445 -2.26207 0
      vertex 1.33957 -2.11082 0
    endloop
  endfacet
  facet normal 0.951054 -0.309026 0
    outer loop
      vertex 2.32444 -0.920311 0.65
      vertex 2.42146 -0.621724 0
      vertex 2.42146 -0.621724 0.65
    endloop
  endfacet
  facet normal 0.951054 -0.309026 0
    outer loop
      vertex 2.42146 -0.621724 0
      vertex 2.32444 -0.920311 0.65
      vertex 2.32444 -0.920311 0
    endloop
  endfacet
  facet normal -0.770522 -0.637414 0
    outer loop
      vertex -1.82242 -1.71137 0
      vertex -2.02254 -1.46946 0.65
      vertex -2.02254 -1.46946 0
    endloop
  endfacet
  facet normal -0.770522 -0.637414 0
    outer loop
      vertex -2.02254 -1.46946 0.65
      vertex -1.82242 -1.71137 0
      vertex -1.82242 -1.71137 0.65
    endloop
  endfacet
  facet normal -0.982287 -0.187385 0
    outer loop
      vertex -2.42146 -0.621724 0
      vertex -2.48029 -0.313333 0.65
      vertex -2.48029 -0.313333 0
    endloop
  endfacet
  facet normal -0.982287 -0.187385 0
    outer loop
      vertex -2.48029 -0.313333 0.65
      vertex -2.42146 -0.621724 0
      vertex -2.42146 -0.621724 0.65
    endloop
  endfacet
  facet normal -0.998027 -0.0627802 0
    outer loop
      vertex -2.48029 -0.313333 0
      vertex -2.5 0 0.65
      vertex -2.5 0 0
    endloop
  endfacet
  facet normal -0.998027 -0.0627802 0
    outer loop
      vertex -2.5 0 0.65
      vertex -2.48029 -0.313333 0
      vertex -2.48029 -0.313333 0.65
    endloop
  endfacet
  facet normal -0.951054 -0.309026 0
    outer loop
      vertex -2.32444 -0.920311 0
      vertex -2.42146 -0.621724 0.65
      vertex -2.42146 -0.621724 0
    endloop
  endfacet
  facet normal -0.951054 -0.309026 0
    outer loop
      vertex -2.42146 -0.621724 0.65
      vertex -2.32444 -0.920311 0
      vertex -2.32444 -0.920311 0.65
    endloop
  endfacet
  facet normal 0.684541 -0.728975 0
    outer loop
      vertex 1.59356 -1.92628 0
      vertex 1.82242 -1.71137 0.65
      vertex 1.59356 -1.92628 0.65
    endloop
  endfacet
  facet normal 0.684541 -0.728975 0
    outer loop
      vertex 1.82242 -1.71137 0.65
      vertex 1.59356 -1.92628 0
      vertex 1.82242 -1.71137 0
    endloop
  endfacet
  facet normal 0.368112 -0.929781 0
    outer loop
      vertex 0.772542 -2.37764 0
      vertex 1.06445 -2.26207 0.65
      vertex 0.772542 -2.37764 0.65
    endloop
  endfacet
  facet normal 0.368112 -0.929781 0
    outer loop
      vertex 1.06445 -2.26207 0.65
      vertex 0.772542 -2.37764 0
      vertex 1.06445 -2.26207 0
    endloop
  endfacet
  facet normal 0.248699 -0.968581 0
    outer loop
      vertex 0.468452 -2.45572 0
      vertex 0.772542 -2.37764 0.65
      vertex 0.468452 -2.45572 0.65
    endloop
  endfacet
  facet normal 0.248699 -0.968581 0
    outer loop
      vertex 0.772542 -2.37764 0.65
      vertex 0.468452 -2.45572 0
      vertex 0.772542 -2.37764 0
    endloop
  endfacet
  facet normal 0.982287 -0.187385 0
    outer loop
      vertex 2.42146 -0.621724 0.65
      vertex 2.48029 -0.313333 0
      vertex 2.48029 -0.313333 0.65
    endloop
  endfacet
  facet normal 0.982287 -0.187385 0
    outer loop
      vertex 2.48029 -0.313333 0
      vertex 2.42146 -0.621724 0.65
      vertex 2.42146 -0.621724 0
    endloop
  endfacet
  facet normal 0.844321 -0.535838 0
    outer loop
      vertex 2.02254 -1.46946 0.65
      vertex 2.19077 -1.20438 0
      vertex 2.19077 -1.20438 0.65
    endloop
  endfacet
  facet normal 0.844321 -0.535838 0
    outer loop
      vertex 2.19077 -1.20438 0
      vertex 2.02254 -1.46946 0.65
      vertex 2.02254 -1.46946 0
    endloop
  endfacet
  facet normal 0.770522 -0.637414 0
    outer loop
      vertex 1.82242 -1.71137 0.65
      vertex 2.02254 -1.46946 0
      vertex 2.02254 -1.46946 0.65
    endloop
  endfacet
  facet normal 0.770522 -0.637414 0
    outer loop
      vertex 2.02254 -1.46946 0
      vertex 1.82242 -1.71137 0.65
      vertex 1.82242 -1.71137 0
    endloop
  endfacet
  facet normal -0.125338 -0.992114 0
    outer loop
      vertex -0.468452 -2.45572 0
      vertex -0.156976 -2.49507 0.65
      vertex -0.468452 -2.45572 0.65
    endloop
  endfacet
  facet normal -0.125338 -0.992114 -0
    outer loop
      vertex -0.156976 -2.49507 0.65
      vertex -0.468452 -2.45572 0
      vertex -0.156976 -2.49507 0
    endloop
  endfacet
  facet normal -0.368112 -0.929781 0
    outer loop
      vertex -1.06445 -2.26207 0
      vertex -0.772542 -2.37764 0.65
      vertex -1.06445 -2.26207 0.65
    endloop
  endfacet
  facet normal -0.368112 -0.929781 -0
    outer loop
      vertex -0.772542 -2.37764 0.65
      vertex -1.06445 -2.26207 0
      vertex -0.772542 -2.37764 0
    endloop
  endfacet
  facet normal -0.248699 -0.968581 0
    outer loop
      vertex -0.772542 -2.37764 0
      vertex -0.468452 -2.45572 0.65
      vertex -0.772542 -2.37764 0.65
    endloop
  endfacet
  facet normal -0.248699 -0.968581 -0
    outer loop
      vertex -0.468452 -2.45572 0.65
      vertex -0.772542 -2.37764 0
      vertex -0.468452 -2.45572 0
    endloop
  endfacet
  facet normal 0.587797 -0.809009 0
    outer loop
      vertex 1.33957 -2.11082 0
      vertex 1.59356 -1.92628 0.65
      vertex 1.33957 -2.11082 0.65
    endloop
  endfacet
  facet normal 0.587797 -0.809009 0
    outer loop
      vertex 1.59356 -1.92628 0.65
      vertex 1.33957 -2.11082 0
      vertex 1.59356 -1.92628 0
    endloop
  endfacet
  facet normal -0.481757 -0.876305 0
    outer loop
      vertex -1.33957 -2.11082 0
      vertex -1.06445 -2.26207 0.65
      vertex -1.33957 -2.11082 0.65
    endloop
  endfacet
  facet normal -0.481757 -0.876305 -0
    outer loop
      vertex -1.06445 -2.26207 0.65
      vertex -1.33957 -2.11082 0
      vertex -1.06445 -2.26207 0
    endloop
  endfacet
  facet normal -0.587797 -0.809009 0
    outer loop
      vertex -1.59356 -1.92628 0
      vertex -1.33957 -2.11082 0.65
      vertex -1.59356 -1.92628 0.65
    endloop
  endfacet
  facet normal -0.587797 -0.809009 -0
    outer loop
      vertex -1.33957 -2.11082 0.65
      vertex -1.59356 -1.92628 0
      vertex -1.33957 -2.11082 0
    endloop
  endfacet
  facet normal 0.998026 0.0628014 0
    outer loop
      vertex 0.75 0 0
      vertex 0.744085 0.0939999 -8
      vertex 0.744085 0.0939999 0
    endloop
  endfacet
  facet normal 0.998026 0.0628014 0
    outer loop
      vertex 0.744085 0.0939999 -8
      vertex 0.75 0 0
      vertex 0.75 0 -8
    endloop
  endfacet
  facet normal -0.998026 0.0628014 0
    outer loop
      vertex -0.75 0 -8
      vertex -0.744085 0.0939999 0
      vertex -0.744085 0.0939999 -8
    endloop
  endfacet
  facet normal -0.998026 0.0628014 0
    outer loop
      vertex -0.744085 0.0939999 0
      vertex -0.75 0 -8
      vertex -0.75 0 0
    endloop
  endfacet
  facet normal 0 1 -0
    outer loop
      vertex 0.0470924 0.74852 -8
      vertex -0.0470924 0.74852 0
      vertex 0.0470924 0.74852 0
    endloop
  endfacet
  facet normal 0 1 0
    outer loop
      vertex -0.0470924 0.74852 0
      vertex 0.0470924 0.74852 -8
      vertex -0.0470924 0.74852 -8
    endloop
  endfacet
  facet normal 0 -1 0
    outer loop
      vertex -0.0470924 -0.74852 -8
      vertex 0.0470924 -0.74852 0
      vertex -0.0470924 -0.74852 0
    endloop
  endfacet
  facet normal 0 -1 -0
    outer loop
      vertex 0.0470924 -0.74852 0
      vertex -0.0470924 -0.74852 -8
      vertex 0.0470924 -0.74852 -8
    endloop
  endfacet
  facet normal 0.684547 0.728969 -0
    outer loop
      vertex 0.546726 0.51341 -8
      vertex 0.478067 0.577885 0
      vertex 0.546726 0.51341 0
    endloop
  endfacet
  facet normal 0.684547 0.728969 0
    outer loop
      vertex 0.478067 0.577885 0
      vertex 0.546726 0.51341 -8
      vertex 0.478067 0.577885 -8
    endloop
  endfacet
  facet normal -0.684547 0.728969 0
    outer loop
      vertex -0.478067 0.577885 -8
      vertex -0.546726 0.51341 0
      vertex -0.478067 0.577885 0
    endloop
  endfacet
  facet normal -0.684547 0.728969 0
    outer loop
      vertex -0.546726 0.51341 0
      vertex -0.478067 0.577885 -8
      vertex -0.546726 0.51341 -8
    endloop
  endfacet
  facet normal -0.368132 0.929774 0
    outer loop
      vertex -0.231762 0.713292 -8
      vertex -0.319334 0.678619 0
      vertex -0.231762 0.713292 0
    endloop
  endfacet
  facet normal -0.368132 0.929774 0
    outer loop
      vertex -0.319334 0.678619 0
      vertex -0.231762 0.713292 -8
      vertex -0.319334 0.678619 -8
    endloop
  endfacet
  facet normal 0.84433 -0.535823 0
    outer loop
      vertex 0.606762 -0.440839 0
      vertex 0.657229 -0.361315 -8
      vertex 0.657229 -0.361315 0
    endloop
  endfacet
  facet normal 0.84433 -0.535823 0
    outer loop
      vertex 0.657229 -0.361315 -8
      vertex 0.606762 -0.440839 0
      vertex 0.606762 -0.440839 -8
    endloop
  endfacet
  facet normal 0.904829 0.425776 0
    outer loop
      vertex 0.697331 0.276093 0
      vertex 0.657229 0.361315 -8
      vertex 0.657229 0.361315 0
    endloop
  endfacet
  facet normal 0.904829 0.425776 0
    outer loop
      vertex 0.657229 0.361315 -8
      vertex 0.697331 0.276093 0
      vertex 0.697331 0.276093 -8
    endloop
  endfacet
  facet normal 0.982288 0.187375 0
    outer loop
      vertex 0.744085 0.0939999 0
      vertex 0.726437 0.186517 -8
      vertex 0.726437 0.186517 0
    endloop
  endfacet
  facet normal 0.982288 0.187375 0
    outer loop
      vertex 0.726437 0.186517 -8
      vertex 0.744085 0.0939999 0
      vertex 0.744085 0.0939999 -8
    endloop
  endfacet
  facet normal 0.368132 0.929774 -0
    outer loop
      vertex 0.319334 0.678619 -8
      vertex 0.231762 0.713292 0
      vertex 0.319334 0.678619 0
    endloop
  endfacet
  facet normal 0.368132 0.929774 0
    outer loop
      vertex 0.231762 0.713292 0
      vertex 0.319334 0.678619 -8
      vertex 0.231762 0.713292 -8
    endloop
  endfacet
  facet normal 0.248689 0.968583 -0
    outer loop
      vertex 0.231762 0.713292 -8
      vertex 0.140535 0.736715 0
      vertex 0.231762 0.713292 0
    endloop
  endfacet
  facet normal 0.248689 0.968583 0
    outer loop
      vertex 0.140535 0.736715 0
      vertex 0.231762 0.713292 -8
      vertex 0.140535 0.736715 -8
    endloop
  endfacet
  facet normal 0.587783 0.809019 -0
    outer loop
      vertex 0.478067 0.577885 -8
      vertex 0.40187 0.633245 0
      vertex 0.478067 0.577885 0
    endloop
  endfacet
  facet normal 0.587783 0.809019 0
    outer loop
      vertex 0.40187 0.633245 0
      vertex 0.478067 0.577885 -8
      vertex 0.40187 0.633245 -8
    endloop
  endfacet
  facet normal -0.904829 0.425776 0
    outer loop
      vertex -0.697331 0.276093 -8
      vertex -0.657229 0.361315 0
      vertex -0.657229 0.361315 -8
    endloop
  endfacet
  facet normal -0.904829 0.425776 0
    outer loop
      vertex -0.657229 0.361315 0
      vertex -0.697331 0.276093 -8
      vertex -0.697331 0.276093 0
    endloop
  endfacet
  facet normal -0.951053 0.309027 0
    outer loop
      vertex -0.726437 0.186517 -8
      vertex -0.697331 0.276093 0
      vertex -0.697331 0.276093 -8
    endloop
  endfacet
  facet normal -0.951053 0.309027 0
    outer loop
      vertex -0.697331 0.276093 0
      vertex -0.726437 0.186517 -8
      vertex -0.726437 0.186517 0
    endloop
  endfacet
  facet normal -0.481749 0.876309 0
    outer loop
      vertex -0.319334 0.678619 -8
      vertex -0.40187 0.633245 0
      vertex -0.319334 0.678619 0
    endloop
  endfacet
  facet normal -0.481749 0.876309 0
    outer loop
      vertex -0.40187 0.633245 0
      vertex -0.319334 0.678619 -8
      vertex -0.40187 0.633245 -8
    endloop
  endfacet
  facet normal -0.248689 0.968583 0
    outer loop
      vertex -0.140535 0.736715 -8
      vertex -0.231762 0.713292 0
      vertex -0.140535 0.736715 0
    endloop
  endfacet
  facet normal -0.248689 0.968583 0
    outer loop
      vertex -0.231762 0.713292 0
      vertex -0.140535 0.736715 -8
      vertex -0.231762 0.713292 -8
    endloop
  endfacet
  facet normal 0.125338 -0.992114 0
    outer loop
      vertex 0.0470924 -0.74852 -8
      vertex 0.140535 -0.736715 0
      vertex 0.0470924 -0.74852 0
    endloop
  endfacet
  facet normal 0.125338 -0.992114 0
    outer loop
      vertex 0.140535 -0.736715 0
      vertex 0.0470924 -0.74852 -8
      vertex 0.140535 -0.736715 -8
    endloop
  endfacet
  facet normal 0.368132 -0.929774 0
    outer loop
      vertex 0.231762 -0.713292 -8
      vertex 0.319334 -0.678619 0
      vertex 0.231762 -0.713292 0
    endloop
  endfacet
  facet normal 0.368132 -0.929774 0
    outer loop
      vertex 0.319334 -0.678619 0
      vertex 0.231762 -0.713292 -8
      vertex 0.319334 -0.678619 -8
    endloop
  endfacet
  facet normal 0.951053 0.309027 0
    outer loop
      vertex 0.726437 0.186517 0
      vertex 0.697331 0.276093 -8
      vertex 0.697331 0.276093 0
    endloop
  endfacet
  facet normal 0.951053 0.309027 0
    outer loop
      vertex 0.697331 0.276093 -8
      vertex 0.726437 0.186517 0
      vertex 0.726437 0.186517 -8
    endloop
  endfacet
  facet normal 0.770513 0.637424 0
    outer loop
      vertex 0.606762 0.440839 0
      vertex 0.546726 0.51341 -8
      vertex 0.546726 0.51341 0
    endloop
  endfacet
  facet normal 0.770513 0.637424 0
    outer loop
      vertex 0.546726 0.51341 -8
      vertex 0.606762 0.440839 0
      vertex 0.606762 0.440839 -8
    endloop
  endfacet
  facet normal 0.84433 0.535823 0
    outer loop
      vertex 0.657229 0.361315 0
      vertex 0.606762 0.440839 -8
      vertex 0.606762 0.440839 0
    endloop
  endfacet
  facet normal 0.84433 0.535823 0
    outer loop
      vertex 0.606762 0.440839 -8
      vertex 0.657229 0.361315 0
      vertex 0.657229 0.361315 -8
    endloop
  endfacet
  facet normal 0.125338 0.992114 -0
    outer loop
      vertex 0.140535 0.736715 -8
      vertex 0.0470924 0.74852 0
      vertex 0.140535 0.736715 0
    endloop
  endfacet
  facet normal 0.125338 0.992114 0
    outer loop
      vertex 0.0470924 0.74852 0
      vertex 0.140535 0.736715 -8
      vertex 0.0470924 0.74852 -8
    endloop
  endfacet
  facet normal 0.481749 0.876309 -0
    outer loop
      vertex 0.40187 0.633245 -8
      vertex 0.319334 0.678619 0
      vertex 0.40187 0.633245 0
    endloop
  endfacet
  facet normal 0.481749 0.876309 0
    outer loop
      vertex 0.319334 0.678619 0
      vertex 0.40187 0.633245 -8
      vertex 0.319334 0.678619 -8
    endloop
  endfacet
  facet normal -0.84433 0.535823 0
    outer loop
      vertex -0.657229 0.361315 -8
      vertex -0.606762 0.440839 0
      vertex -0.606762 0.440839 -8
    endloop
  endfacet
  facet normal -0.84433 0.535823 0
    outer loop
      vertex -0.606762 0.440839 0
      vertex -0.657229 0.361315 -8
      vertex -0.657229 0.361315 0
    endloop
  endfacet
  facet normal -0.770513 0.637424 0
    outer loop
      vertex -0.606762 0.440839 -8
      vertex -0.546726 0.51341 0
      vertex -0.546726 0.51341 -8
    endloop
  endfacet
  facet normal -0.770513 0.637424 0
    outer loop
      vertex -0.546726 0.51341 0
      vertex -0.606762 0.440839 -8
      vertex -0.606762 0.440839 0
    endloop
  endfacet
  facet normal -0.982288 0.187375 0
    outer loop
      vertex -0.744085 0.0939999 -8
      vertex -0.726437 0.186517 0
      vertex -0.726437 0.186517 -8
    endloop
  endfacet
  facet normal -0.982288 0.187375 0
    outer loop
      vertex -0.726437 0.186517 0
      vertex -0.744085 0.0939999 -8
      vertex -0.744085 0.0939999 0
    endloop
  endfacet
  facet normal -0.587783 0.809019 0
    outer loop
      vertex -0.40187 0.633245 -8
      vertex -0.478067 0.577885 0
      vertex -0.40187 0.633245 0
    endloop
  endfacet
  facet normal -0.587783 0.809019 0
    outer loop
      vertex -0.478067 0.577885 0
      vertex -0.40187 0.633245 -8
      vertex -0.478067 0.577885 -8
    endloop
  endfacet
  facet normal -0.125338 0.992114 0
    outer loop
      vertex -0.0470924 0.74852 -8
      vertex -0.140535 0.736715 0
      vertex -0.0470924 0.74852 0
    endloop
  endfacet
  facet normal -0.125338 0.992114 0
    outer loop
      vertex -0.140535 0.736715 0
      vertex -0.0470924 0.74852 -8
      vertex -0.140535 0.736715 -8
    endloop
  endfacet
  facet normal 0.684547 -0.728969 0
    outer loop
      vertex 0.478067 -0.577885 -8
      vertex 0.546726 -0.51341 0
      vertex 0.478067 -0.577885 0
    endloop
  endfacet
  facet normal 0.684547 -0.728969 0
    outer loop
      vertex 0.546726 -0.51341 0
      vertex 0.478067 -0.577885 -8
      vertex 0.546726 -0.51341 -8
    endloop
  endfacet
  facet normal 0.982288 -0.187375 0
    outer loop
      vertex 0.726437 -0.186517 0
      vertex 0.744085 -0.0939999 -8
      vertex 0.744085 -0.0939999 0
    endloop
  endfacet
  facet normal 0.982288 -0.187375 0
    outer loop
      vertex 0.744085 -0.0939999 -8
      vertex 0.726437 -0.186517 0
      vertex 0.726437 -0.186517 -8
    endloop
  endfacet
  facet normal 0 0 -1
    outer loop
      vertex 0.744085 -0.0939999 -8
      vertex 0.744085 0.0939999 -8
      vertex 0.75 0 -8
    endloop
  endfacet
  facet normal 0 0 -1
    outer loop
      vertex 0.726437 -0.186517 -8
      vertex 0.744085 0.0939999 -8
      vertex 0.744085 -0.0939999 -8
    endloop
  endfacet
  facet normal 0 0 -1
    outer loop
      vertex 0.726437 -0.186517 -8
      vertex 0.726437 0.186517 -8
      vertex 0.744085 0.0939999 -8
    endloop
  endfacet
  facet normal 0 0 -1
    outer loop
      vertex 0.697331 -0.276093 -8
      vertex 0.726437 0.186517 -8
      vertex 0.726437 -0.186517 -8
    endloop
  endfacet
  facet normal 0 0 -1
    outer loop
      vertex 0.697331 -0.276093 -8
      vertex 0.697331 0.276093 -8
      vertex 0.726437 0.186517 -8
    endloop
  endfacet
  facet normal 0 0 -1
    outer loop
      vertex 0.657229 -0.361315 -8
      vertex 0.697331 0.276093 -8
      vertex 0.697331 -0.276093 -8
    endloop
  endfacet
  facet normal 0 0 -1
    outer loop
      vertex 0.657229 -0.361315 -8
      vertex 0.657229 0.361315 -8
      vertex 0.697331 0.276093 -8
    endloop
  endfacet
  facet normal 0 0 -1
    outer loop
      vertex 0.606762 -0.440839 -8
      vertex 0.657229 0.361315 -8
      vertex 0.657229 -0.361315 -8
    endloop
  endfacet
  facet normal 0 0 -1
    outer loop
      vertex 0.606762 -0.440839 -8
      vertex 0.606762 0.440839 -8
      vertex 0.657229 0.361315 -8
    endloop
  endfacet
  facet normal 0 0 -1
    outer loop
      vertex 0.546726 -0.51341 -8
      vertex 0.606762 0.440839 -8
      vertex 0.606762 -0.440839 -8
    endloop
  endfacet
  facet normal 0 0 -1
    outer loop
      vertex 0.546726 -0.51341 -8
      vertex 0.546726 0.51341 -8
      vertex 0.606762 0.440839 -8
    endloop
  endfacet
  facet normal 0 0 -1
    outer loop
      vertex 0.478067 -0.577885 -8
      vertex 0.546726 0.51341 -8
      vertex 0.546726 -0.51341 -8
    endloop
  endfacet
  facet normal 0 0 -1
    outer loop
      vertex 0.478067 -0.577885 -8
      vertex 0.478067 0.577885 -8
      vertex 0.546726 0.51341 -8
    endloop
  endfacet
  facet normal 0 0 -1
    outer loop
      vertex 0.40187 -0.633245 -8
      vertex 0.478067 0.577885 -8
      vertex 0.478067 -0.577885 -8
    endloop
  endfacet
  facet normal 0 0 -1
    outer loop
      vertex 0.40187 -0.633245 -8
      vertex 0.40187 0.633245 -8
      vertex 0.478067 0.577885 -8
    endloop
  endfacet
  facet normal 0 0 -1
    outer loop
      vertex 0.319334 -0.678619 -8
      vertex 0.40187 0.633245 -8
      vertex 0.40187 -0.633245 -8
    endloop
  endfacet
  facet normal 0 0 -1
    outer loop
      vertex 0.319334 -0.678619 -8
      vertex 0.319334 0.678619 -8
      vertex 0.40187 0.633245 -8
    endloop
  endfacet
  facet normal 0 0 -1
    outer loop
      vertex 0.231762 -0.713292 -8
      vertex 0.319334 0.678619 -8
      vertex 0.319334 -0.678619 -8
    endloop
  endfacet
  facet normal 0 0 -1
    outer loop
      vertex 0.231762 -0.713292 -8
      vertex 0.231762 0.713292 -8
      vertex 0.319334 0.678619 -8
    endloop
  endfacet
  facet normal 0 0 -1
    outer loop
      vertex 0.140535 -0.736715 -8
      vertex 0.231762 0.713292 -8
      vertex 0.231762 -0.713292 -8
    endloop
  endfacet
  facet normal 0 0 -1
    outer loop
      vertex 0.140535 -0.736715 -8
      vertex 0.140535 0.736715 -8
      vertex 0.231762 0.713292 -8
    endloop
  endfacet
  facet normal 0 0 -1
    outer loop
      vertex 0.0470924 -0.74852 -8
      vertex 0.140535 0.736715 -8
      vertex 0.140535 -0.736715 -8
    endloop
  endfacet
  facet normal 0 0 -1
    outer loop
      vertex 0.0470924 -0.74852 -8
      vertex 0.0470924 0.74852 -8
      vertex 0.140535 0.736715 -8
    endloop
  endfacet
  facet normal 0 0 -1
    outer loop
      vertex -0.0470924 -0.74852 -8
      vertex 0.0470924 0.74852 -8
      vertex 0.0470924 -0.74852 -8
    endloop
  endfacet
  facet normal 0 0 -1
    outer loop
      vertex -0.0470924 -0.74852 -8
      vertex -0.0470924 0.74852 -8
      vertex 0.0470924 0.74852 -8
    endloop
  endfacet
  facet normal 0 0 -1
    outer loop
      vertex -0.140535 -0.736715 -8
      vertex -0.0470924 0.74852 -8
      vertex -0.0470924 -0.74852 -8
    endloop
  endfacet
  facet normal 0 0 -1
    outer loop
      vertex -0.140535 -0.736715 -8
      vertex -0.140535 0.736715 -8
      vertex -0.0470924 0.74852 -8
    endloop
  endfacet
  facet normal 0 0 -1
    outer loop
      vertex -0.231762 -0.713292 -8
      vertex -0.140535 0.736715 -8
      vertex -0.140535 -0.736715 -8
    endloop
  endfacet
  facet normal 0 0 -1
    outer loop
      vertex -0.231762 -0.713292 -8
      vertex -0.231762 0.713292 -8
      vertex -0.140535 0.736715 -8
    endloop
  endfacet
  facet normal 0 0 -1
    outer loop
      vertex -0.319334 -0.678619 -8
      vertex -0.231762 0.713292 -8
      vertex -0.231762 -0.713292 -8
    endloop
  endfacet
  facet normal 0 0 -1
    outer loop
      vertex -0.319334 -0.678619 -8
      vertex -0.319334 0.678619 -8
      vertex -0.231762 0.713292 -8
    endloop
  endfacet
  facet normal 0 0 -1
    outer loop
      vertex -0.40187 -0.633245 -8
      vertex -0.319334 0.678619 -8
      vertex -0.319334 -0.678619 -8
    endloop
  endfacet
  facet normal 0 0 -1
    outer loop
      vertex -0.40187 -0.633245 -8
      vertex -0.40187 0.633245 -8
      vertex -0.319334 0.678619 -8
    endloop
  endfacet
  facet normal 0 0 -1
    outer loop
      vertex -0.478067 -0.577885 -8
      vertex -0.40187 0.633245 -8
      vertex -0.40187 -0.633245 -8
    endloop
  endfacet
  facet normal 0 0 -1
    outer loop
      vertex -0.478067 -0.577885 -8
      vertex -0.478067 0.577885 -8
      vertex -0.40187 0.633245 -8
    endloop
  endfacet
  facet normal 0 0 -1
    outer loop
      vertex -0.546726 -0.51341 -8
      vertex -0.478067 0.577885 -8
      vertex -0.478067 -0.577885 -8
    endloop
  endfacet
  facet normal 0 0 -1
    outer loop
      vertex -0.546726 -0.51341 -8
      vertex -0.546726 0.51341 -8
      vertex -0.478067 0.577885 -8
    endloop
  endfacet
  facet normal 0 0 -1
    outer loop
      vertex -0.606762 -0.440839 -8
      vertex -0.546726 0.51341 -8
      vertex -0.546726 -0.51341 -8
    endloop
  endfacet
  facet normal 0 0 -1
    outer loop
      vertex -0.606762 -0.440839 -8
      vertex -0.606762 0.440839 -8
      vertex -0.546726 0.51341 -8
    endloop
  endfacet
  facet normal 0 0 -1
    outer loop
      vertex -0.657229 -0.361315 -8
      vertex -0.606762 0.440839 -8
      vertex -0.606762 -0.440839 -8
    endloop
  endfacet
  facet normal 0 0 -1
    outer loop
      vertex -0.657229 -0.361315 -8
      vertex -0.657229 0.361315 -8
      vertex -0.606762 0.440839 -8
    endloop
  endfacet
  facet normal 0 0 -1
    outer loop
      vertex -0.697331 -0.276093 -8
      vertex -0.657229 0.361315 -8
      vertex -0.657229 -0.361315 -8
    endloop
  endfacet
  facet normal 0 0 -1
    outer loop
      vertex -0.697331 -0.276093 -8
      vertex -0.697331 0.276093 -8
      vertex -0.657229 0.361315 -8
    endloop
  endfacet
  facet normal 0 0 -1
    outer loop
      vertex -0.726437 -0.186517 -8
      vertex -0.697331 0.276093 -8
      vertex -0.697331 -0.276093 -8
    endloop
  endfacet
  facet normal 0 0 -1
    outer loop
      vertex -0.726437 -0.186517 -8
      vertex -0.726437 0.186517 -8
      vertex -0.697331 0.276093 -8
    endloop
  endfacet
  facet normal 0 0 -1
    outer loop
      vertex -0.744085 -0.0939999 -8
      vertex -0.726437 0.186517 -8
      vertex -0.726437 -0.186517 -8
    endloop
  endfacet
  facet normal 0 0 -1
    outer loop
      vertex -0.744085 -0.0939999 -8
      vertex -0.744085 0.0939999 -8
      vertex -0.726437 0.186517 -8
    endloop
  endfacet
  facet normal 0 -0 -1
    outer loop
      vertex -0.744085 0.0939999 -8
      vertex -0.744085 -0.0939999 -8
      vertex -0.75 0 -8
    endloop
  endfacet
  facet normal 0.481749 -0.876309 0
    outer loop
      vertex 0.319334 -0.678619 -8
      vertex 0.40187 -0.633245 0
      vertex 0.319334 -0.678619 0
    endloop
  endfacet
  facet normal 0.481749 -0.876309 0
    outer loop
      vertex 0.40187 -0.633245 0
      vertex 0.319334 -0.678619 -8
      vertex 0.40187 -0.633245 -8
    endloop
  endfacet
  facet normal 0.587783 -0.809019 0
    outer loop
      vertex 0.40187 -0.633245 -8
      vertex 0.478067 -0.577885 0
      vertex 0.40187 -0.633245 0
    endloop
  endfacet
  facet normal 0.587783 -0.809019 0
    outer loop
      vertex 0.478067 -0.577885 0
      vertex 0.40187 -0.633245 -8
      vertex 0.478067 -0.577885 -8
    endloop
  endfacet
  facet normal 0.904829 -0.425776 0
    outer loop
      vertex 0.657229 -0.361315 0
      vertex 0.697331 -0.276093 -8
      vertex 0.697331 -0.276093 0
    endloop
  endfacet
  facet normal 0.904829 -0.425776 0
    outer loop
      vertex 0.697331 -0.276093 -8
      vertex 0.657229 -0.361315 0
      vertex 0.657229 -0.361315 -8
    endloop
  endfacet
  facet normal 0.770513 -0.637424 0
    outer loop
      vertex 0.546726 -0.51341 0
      vertex 0.606762 -0.440839 -8
      vertex 0.606762 -0.440839 0
    endloop
  endfacet
  facet normal 0.770513 -0.637424 0
    outer loop
      vertex 0.606762 -0.440839 -8
      vertex 0.546726 -0.51341 0
      vertex 0.546726 -0.51341 -8
    endloop
  endfacet
  facet normal 0.998026 -0.0628014 0
    outer loop
      vertex 0.744085 -0.0939999 0
      vertex 0.75 0 -8
      vertex 0.75 0 0
    endloop
  endfacet
  facet normal 0.998026 -0.0628014 0
    outer loop
      vertex 0.75 0 -8
      vertex 0.744085 -0.0939999 0
      vertex 0.744085 -0.0939999 -8
    endloop
  endfacet
  facet normal -0.248689 -0.968583 0
    outer loop
      vertex -0.231762 -0.713292 -8
      vertex -0.140535 -0.736715 0
      vertex -0.231762 -0.713292 0
    endloop
  endfacet
  facet normal -0.248689 -0.968583 -0
    outer loop
      vertex -0.140535 -0.736715 0
      vertex -0.231762 -0.713292 -8
      vertex -0.140535 -0.736715 -8
    endloop
  endfacet
  facet normal -0.684547 -0.728969 0
    outer loop
      vertex -0.546726 -0.51341 -8
      vertex -0.478067 -0.577885 0
      vertex -0.546726 -0.51341 0
    endloop
  endfacet
  facet normal -0.684547 -0.728969 -0
    outer loop
      vertex -0.478067 -0.577885 0
      vertex -0.546726 -0.51341 -8
      vertex -0.478067 -0.577885 -8
    endloop
  endfacet
  facet normal -0.84433 -0.535823 0
    outer loop
      vertex -0.606762 -0.440839 -8
      vertex -0.657229 -0.361315 0
      vertex -0.657229 -0.361315 -8
    endloop
  endfacet
  facet normal -0.84433 -0.535823 0
    outer loop
      vertex -0.657229 -0.361315 0
      vertex -0.606762 -0.440839 -8
      vertex -0.606762 -0.440839 0
    endloop
  endfacet
  facet normal -0.951053 -0.309027 0
    outer loop
      vertex -0.697331 -0.276093 -8
      vertex -0.726437 -0.186517 0
      vertex -0.726437 -0.186517 -8
    endloop
  endfacet
  facet normal -0.951053 -0.309027 0
    outer loop
      vertex -0.726437 -0.186517 0
      vertex -0.697331 -0.276093 -8
      vertex -0.697331 -0.276093 0
    endloop
  endfacet
  facet normal -0.998026 -0.0628014 0
    outer loop
      vertex -0.744085 -0.0939999 -8
      vertex -0.75 0 0
      vertex -0.75 0 -8
    endloop
  endfacet
  facet normal -0.998026 -0.0628014 0
    outer loop
      vertex -0.75 0 0
      vertex -0.744085 -0.0939999 -8
      vertex -0.744085 -0.0939999 0
    endloop
  endfacet
  facet normal 0.248689 -0.968583 0
    outer loop
      vertex 0.140535 -0.736715 -8
      vertex 0.231762 -0.713292 0
      vertex 0.140535 -0.736715 0
    endloop
  endfacet
  facet normal 0.248689 -0.968583 0
    outer loop
      vertex 0.231762 -0.713292 0
      vertex 0.140535 -0.736715 -8
      vertex 0.231762 -0.713292 -8
    endloop
  endfacet
  facet normal 0.951053 -0.309027 0
    outer loop
      vertex 0.697331 -0.276093 0
      vertex 0.726437 -0.186517 -8
      vertex 0.726437 -0.186517 0
    endloop
  endfacet
  facet normal 0.951053 -0.309027 0
    outer loop
      vertex 0.726437 -0.186517 -8
      vertex 0.697331 -0.276093 0
      vertex 0.697331 -0.276093 -8
    endloop
  endfacet
  facet normal -0.125338 -0.992114 0
    outer loop
      vertex -0.140535 -0.736715 -8
      vertex -0.0470924 -0.74852 0
      vertex -0.140535 -0.736715 0
    endloop
  endfacet
  facet normal -0.125338 -0.992114 -0
    outer loop
      vertex -0.0470924 -0.74852 0
      vertex -0.140535 -0.736715 -8
      vertex -0.0470924 -0.74852 -8
    endloop
  endfacet
  facet normal -0.368132 -0.929774 0
    outer loop
      vertex -0.319334 -0.678619 -8
      vertex -0.231762 -0.713292 0
      vertex -0.319334 -0.678619 0
    endloop
  endfacet
  facet normal -0.368132 -0.929774 -0
    outer loop
      vertex -0.231762 -0.713292 0
      vertex -0.319334 -0.678619 -8
      vertex -0.231762 -0.713292 -8
    endloop
  endfacet
  facet normal -0.904829 -0.425776 0
    outer loop
      vertex -0.657229 -0.361315 -8
      vertex -0.697331 -0.276093 0
      vertex -0.697331 -0.276093 -8
    endloop
  endfacet
  facet normal -0.904829 -0.425776 0
    outer loop
      vertex -0.697331 -0.276093 0
      vertex -0.657229 -0.361315 -8
      vertex -0.657229 -0.361315 0
    endloop
  endfacet
  facet normal -0.982288 -0.187375 0
    outer loop
      vertex -0.726437 -0.186517 -8
      vertex -0.744085 -0.0939999 0
      vertex -0.744085 -0.0939999 -8
    endloop
  endfacet
  facet normal -0.982288 -0.187375 0
    outer loop
      vertex -0.744085 -0.0939999 0
      vertex -0.726437 -0.186517 -8
      vertex -0.726437 -0.186517 0
    endloop
  endfacet
  facet normal -0.587783 -0.809019 0
    outer loop
      vertex -0.478067 -0.577885 -8
      vertex -0.40187 -0.633245 0
      vertex -0.478067 -0.577885 0
    endloop
  endfacet
  facet normal -0.587783 -0.809019 -0
    outer loop
      vertex -0.40187 -0.633245 0
      vertex -0.478067 -0.577885 -8
      vertex -0.40187 -0.633245 -8
    endloop
  endfacet
  facet normal -0.481749 -0.876309 0
    outer loop
      vertex -0.40187 -0.633245 -8
      vertex -0.319334 -0.678619 0
      vertex -0.40187 -0.633245 0
    endloop
  endfacet
  facet normal -0.481749 -0.876309 -0
    outer loop
      vertex -0.319334 -0.678619 0
      vertex -0.40187 -0.633245 -8
      vertex -0.319334 -0.678619 -8
    endloop
  endfacet
  facet normal -0.770513 -0.637424 0
    outer loop
      vertex -0.546726 -0.51341 -8
      vertex -0.606762 -0.440839 0
      vertex -0.606762 -0.440839 -8
    endloop
  endfacet
  facet normal -0.770513 -0.637424 0
    outer loop
      vertex -0.606762 -0.440839 0
      vertex -0.546726 -0.51341 -8
      vertex -0.546726 -0.51341 0
    endloop
  endfacet
endsolid OpenSCAD_Model
