solid OpenSCAD_Model
  facet normal 0.096837 -0.766452 -0.634959
    outer loop
      vertex 0.182092 -2.89428 0
      vertex 0.0941849 -1.49704 -1.7
      vertex 0.543406 -2.84863 0
    endloop
  endfacet
  facet normal 0.771021 0.0485142 -0.634959
    outer loop
      vertex 2.9 0 0
      vertex 1.5 0 -1.7
      vertex 2.87713 0.363466 0
    endloop
  endfacet
  facet normal 0.771021 0.0485169 -0.634959
    outer loop
      vertex 1.5 0 -1.7
      vertex 1.48817 0.188 -1.7
      vertex 2.87713 0.363466 0
    endloop
  endfacet
  facet normal 0.771021 -0.0485169 -0.634959
    outer loop
      vertex 2.87713 -0.363466 0
      vertex 1.48817 -0.188 -1.7
      vertex 1.5 0 -1.7
    endloop
  endfacet
  facet normal -0.75886 -0.144772 -0.634958
    outer loop
      vertex -1.45287 -0.373034 -1.7
      vertex -2.87713 -0.363466 0
      vertex -1.48817 -0.188 -1.7
    endloop
  endfacet
  facet normal -0.192126 0.748275 -0.634958
    outer loop
      vertex -0.281072 1.47343 -1.7
      vertex -0.896149 2.75806 0
      vertex -0.543406 2.84863 0
    endloop
  endfacet
  facet normal 0.59526 -0.492434 -0.63496
    outer loop
      vertex 2.11401 -1.98519 0
      vertex 1.09345 -1.02682 -1.7
      vertex 1.21352 -0.881678 -1.7
    endloop
  endfacet
  facet normal 0.734734 -0.238731 -0.63496
    outer loop
      vertex 2.69635 -1.06756 0
      vertex 1.45287 -0.373034 -1.7
      vertex 2.80889 -0.7212 0
    endloop
  endfacet
  facet normal 0.771021 -0.0485142 -0.634959
    outer loop
      vertex 2.87713 -0.363466 0
      vertex 1.5 0 -1.7
      vertex 2.9 0 0
    endloop
  endfacet
  facet normal 0.699024 -0.328925 -0.634959
    outer loop
      vertex 2.54129 -1.39709 0
      vertex 1.31446 -0.722631 -1.7
      vertex 2.69635 -1.06756 0
    endloop
  endfacet
  facet normal 0.65227 -0.413966 -0.634961
    outer loop
      vertex 2.34615 -1.70458 0
      vertex 1.21352 -0.881678 -1.7
      vertex 1.31446 -0.722631 -1.7
    endloop
  endfacet
  facet normal 0.284383 -0.718299 -0.634959
    outer loop
      vertex 0.896149 -2.75806 0
      vertex 0.463525 -1.42658 -1.7
      vertex 1.23476 -2.624 0
    endloop
  endfacet
  facet normal 0.372179 -0.676986 -0.634959
    outer loop
      vertex 1.23476 -2.624 0
      vertex 0.80374 -1.26649 -1.7
      vertex 1.5539 -2.44855 0
    endloop
  endfacet
  facet normal 0.372179 -0.676985 -0.634959
    outer loop
      vertex 1.23476 -2.624 0
      vertex 0.638668 -1.35724 -1.7
      vertex 0.80374 -1.26649 -1.7
    endloop
  endfacet
  facet normal -0.652281 -0.413952 -0.63496
    outer loop
      vertex -2.34615 -1.70458 0
      vertex -2.54129 -1.39709 0
      vertex -1.31446 -0.722631 -1.7
    endloop
  endfacet
  facet normal -0.284383 0.718299 -0.634959
    outer loop
      vertex -0.463525 1.42658 -1.7
      vertex -1.23476 2.624 0
      vertex -0.896149 2.75806 0
    endloop
  endfacet
  facet normal 0.734734 -0.23873 -0.63496
    outer loop
      vertex 2.69635 -1.06756 0
      vertex 1.39466 -0.552186 -1.7
      vertex 1.45287 -0.373034 -1.7
    endloop
  endfacet
  facet normal 0.19214 -0.74827 -0.63496
    outer loop
      vertex 0.896149 -2.75806 0
      vertex 0.281072 -1.47343 -1.7
      vertex 0.463525 -1.42658 -1.7
    endloop
  endfacet
  facet normal 0.528841 -0.563164 -0.634959
    outer loop
      vertex 1.84853 -2.23449 0
      vertex 0.956136 -1.15577 -1.7
      vertex 2.11401 -1.98519 0
    endloop
  endfacet
  facet normal 0.652281 0.413952 -0.63496
    outer loop
      vertex 2.54129 1.39709 0
      vertex 1.31446 0.722631 -1.7
      vertex 2.34615 1.70458 0
    endloop
  endfacet
  facet normal 0.0968284 0.766454 -0.634958
    outer loop
      vertex 0.281072 1.47343 -1.7
      vertex 0.0941849 1.49704 -1.7
      vertex 0.543406 2.84863 0
    endloop
  endfacet
  facet normal 0.75886 -0.144772 -0.634958
    outer loop
      vertex 2.87713 -0.363466 0
      vertex 1.45287 -0.373034 -1.7
      vertex 1.48817 -0.188 -1.7
    endloop
  endfacet
  facet normal 0.758862 -0.144758 -0.63496
    outer loop
      vertex 2.80889 -0.7212 0
      vertex 1.45287 -0.373034 -1.7
      vertex 2.87713 -0.363466 0
    endloop
  endfacet
  facet normal 0.652281 -0.413952 -0.63496
    outer loop
      vertex 2.34615 -1.70458 0
      vertex 1.31446 -0.722631 -1.7
      vertex 2.54129 -1.39709 0
    endloop
  endfacet
  facet normal 0.595257 -0.492437 -0.634961
    outer loop
      vertex 2.11401 -1.98519 0
      vertex 1.21352 -0.881678 -1.7
      vertex 2.34615 -1.70458 0
    endloop
  endfacet
  facet normal 0.192126 -0.748275 -0.634958
    outer loop
      vertex 0.543406 -2.84863 0
      vertex 0.281072 -1.47343 -1.7
      vertex 0.896149 -2.75806 0
    endloop
  endfacet
  facet normal 0.0968284 -0.766454 -0.634958
    outer loop
      vertex 0.543406 -2.84863 0
      vertex 0.0941849 -1.49704 -1.7
      vertex 0.281072 -1.47343 -1.7
    endloop
  endfacet
  facet normal 0.454089 -0.625004 -0.634959
    outer loop
      vertex 1.5539 -2.44855 0
      vertex 0.956136 -1.15577 -1.7
      vertex 1.84853 -2.23449 0
    endloop
  endfacet
  facet normal 0.454085 -0.625006 -0.63496
    outer loop
      vertex 1.5539 -2.44855 0
      vertex 0.80374 -1.26649 -1.7
      vertex 0.956136 -1.15577 -1.7
    endloop
  endfacet
  facet normal -0.699024 -0.328925 -0.634959
    outer loop
      vertex -2.54129 -1.39709 0
      vertex -2.69635 -1.06756 0
      vertex -1.31446 -0.722631 -1.7
    endloop
  endfacet
  facet normal -0.19214 -0.74827 -0.63496
    outer loop
      vertex -0.281072 -1.47343 -1.7
      vertex -0.896149 -2.75806 0
      vertex -0.463525 -1.42658 -1.7
    endloop
  endfacet
  facet normal -0.192126 -0.748275 -0.634958
    outer loop
      vertex -0.543406 -2.84863 0
      vertex -0.896149 -2.75806 0
      vertex -0.281072 -1.47343 -1.7
    endloop
  endfacet
  facet normal -0.454085 -0.625006 -0.63496
    outer loop
      vertex -0.80374 -1.26649 -1.7
      vertex -1.5539 -2.44855 0
      vertex -0.956136 -1.15577 -1.7
    endloop
  endfacet
  facet normal -0.454089 -0.625004 -0.634959
    outer loop
      vertex -1.5539 -2.44855 0
      vertex -1.84853 -2.23449 0
      vertex -0.956136 -1.15577 -1.7
    endloop
  endfacet
  facet normal -0.528851 -0.563153 -0.634961
    outer loop
      vertex -0.956136 -1.15577 -1.7
      vertex -2.11401 -1.98519 0
      vertex -1.09345 -1.02682 -1.7
    endloop
  endfacet
  facet normal -0.528841 -0.563164 -0.634959
    outer loop
      vertex -1.84853 -2.23449 0
      vertex -2.11401 -1.98519 0
      vertex -0.956136 -1.15577 -1.7
    endloop
  endfacet
  facet normal -0.699024 0.328925 -0.634959
    outer loop
      vertex -1.31446 0.722631 -1.7
      vertex -2.69635 1.06756 0
      vertex -2.54129 1.39709 0
    endloop
  endfacet
  facet normal -0.528851 0.563153 -0.634961
    outer loop
      vertex -1.09345 1.02682 -1.7
      vertex -2.11401 1.98519 0
      vertex -0.956136 1.15577 -1.7
    endloop
  endfacet
  facet normal -0.19214 0.74827 -0.63496
    outer loop
      vertex -0.463525 1.42658 -1.7
      vertex -0.896149 2.75806 0
      vertex -0.281072 1.47343 -1.7
    endloop
  endfacet
  facet normal 0.096837 0.766452 -0.634959
    outer loop
      vertex 0.543406 2.84863 0
      vertex 0.0941849 1.49704 -1.7
      vertex 0.182092 2.89428 0
    endloop
  endfacet
  facet normal 0.699028 -0.328916 -0.63496
    outer loop
      vertex 2.69635 -1.06756 0
      vertex 1.31446 -0.722631 -1.7
      vertex 1.39466 -0.552186 -1.7
    endloop
  endfacet
  facet normal 0.284379 -0.718301 -0.634959
    outer loop
      vertex 1.23476 -2.624 0
      vertex 0.463525 -1.42658 -1.7
      vertex 0.638668 -1.35724 -1.7
    endloop
  endfacet
  facet normal 0.528851 -0.563153 -0.634961
    outer loop
      vertex 2.11401 -1.98519 0
      vertex 0.956136 -1.15577 -1.7
      vertex 1.09345 -1.02682 -1.7
    endloop
  endfacet
  facet normal -0.734734 -0.238731 -0.63496
    outer loop
      vertex -2.69635 -1.06756 0
      vertex -2.80889 -0.7212 0
      vertex -1.45287 -0.373034 -1.7
    endloop
  endfacet
  facet normal -0.758862 -0.144758 -0.63496
    outer loop
      vertex -2.80889 -0.7212 0
      vertex -2.87713 -0.363466 0
      vertex -1.45287 -0.373034 -1.7
    endloop
  endfacet
  facet normal -0.372179 -0.676986 -0.634959
    outer loop
      vertex -1.23476 -2.624 0
      vertex -1.5539 -2.44855 0
      vertex -0.80374 -1.26649 -1.7
    endloop
  endfacet
  facet normal -0.284383 -0.718299 -0.634959
    outer loop
      vertex -0.896149 -2.75806 0
      vertex -1.23476 -2.624 0
      vertex -0.463525 -1.42658 -1.7
    endloop
  endfacet
  facet normal -0.595257 -0.492437 -0.634961
    outer loop
      vertex -2.11401 -1.98519 0
      vertex -2.34615 -1.70458 0
      vertex -1.21352 -0.881678 -1.7
    endloop
  endfacet
  facet normal -0.65227 -0.413966 -0.634961
    outer loop
      vertex -1.21352 -0.881678 -1.7
      vertex -2.34615 -1.70458 0
      vertex -1.31446 -0.722631 -1.7
    endloop
  endfacet
  facet normal -0.652281 0.413952 -0.63496
    outer loop
      vertex -1.31446 0.722631 -1.7
      vertex -2.54129 1.39709 0
      vertex -2.34615 1.70458 0
    endloop
  endfacet
  facet normal -0.771021 -0.0485142 -0.634959
    outer loop
      vertex -2.87713 -0.363466 0
      vertex -2.9 0 0
      vertex -1.5 0 -1.7
    endloop
  endfacet
  facet normal -0.372179 0.676985 -0.634959
    outer loop
      vertex -0.80374 1.26649 -1.7
      vertex -1.23476 2.624 0
      vertex -0.638668 1.35724 -1.7
    endloop
  endfacet
  facet normal -0.59526 0.492434 -0.63496
    outer loop
      vertex -1.21352 0.881678 -1.7
      vertex -2.11401 1.98519 0
      vertex -1.09345 1.02682 -1.7
    endloop
  endfacet
  facet normal -0.454089 0.625004 -0.634959
    outer loop
      vertex -0.956136 1.15577 -1.7
      vertex -1.84853 2.23449 0
      vertex -1.5539 2.44855 0
    endloop
  endfacet
  facet normal 0.699024 0.328925 -0.634959
    outer loop
      vertex 2.69635 1.06756 0
      vertex 1.31446 0.722631 -1.7
      vertex 2.54129 1.39709 0
    endloop
  endfacet
  facet normal 0.528841 0.563164 -0.634959
    outer loop
      vertex 2.11401 1.98519 0
      vertex 0.956136 1.15577 -1.7
      vertex 1.84853 2.23449 0
    endloop
  endfacet
  facet normal 0.284379 0.718301 -0.634959
    outer loop
      vertex 0.638668 1.35724 -1.7
      vertex 0.463525 1.42658 -1.7
      vertex 1.23476 2.624 0
    endloop
  endfacet
  facet normal 0.372179 0.676986 -0.634959
    outer loop
      vertex 1.5539 2.44855 0
      vertex 0.80374 1.26649 -1.7
      vertex 1.23476 2.624 0
    endloop
  endfacet
  facet normal -0.699028 -0.328916 -0.63496
    outer loop
      vertex -1.31446 -0.722631 -1.7
      vertex -2.69635 -1.06756 0
      vertex -1.39466 -0.552186 -1.7
    endloop
  endfacet
  facet normal -0.734734 -0.23873 -0.63496
    outer loop
      vertex -1.39466 -0.552186 -1.7
      vertex -2.69635 -1.06756 0
      vertex -1.45287 -0.373034 -1.7
    endloop
  endfacet
  facet normal -0.372179 -0.676985 -0.634959
    outer loop
      vertex -0.638668 -1.35724 -1.7
      vertex -1.23476 -2.624 0
      vertex -0.80374 -1.26649 -1.7
    endloop
  endfacet
  facet normal -0.096837 -0.766452 -0.634959
    outer loop
      vertex -0.182092 -2.89428 0
      vertex -0.543406 -2.84863 0
      vertex -0.0941849 -1.49704 -1.7
    endloop
  endfacet
  facet normal 0 -0.772545 -0.63496
    outer loop
      vertex -0.0941849 -1.49704 -1.7
      vertex 0.182092 -2.89428 0
      vertex -0.182092 -2.89428 0
    endloop
  endfacet
  facet normal 0 -0.772545 -0.63496
    outer loop
      vertex 0.182092 -2.89428 0
      vertex -0.0941849 -1.49704 -1.7
      vertex 0.0941849 -1.49704 -1.7
    endloop
  endfacet
  facet normal -0.59526 -0.492434 -0.63496
    outer loop
      vertex -1.09345 -1.02682 -1.7
      vertex -2.11401 -1.98519 0
      vertex -1.21352 -0.881678 -1.7
    endloop
  endfacet
  facet normal -0.734734 0.238731 -0.63496
    outer loop
      vertex -1.45287 0.373034 -1.7
      vertex -2.80889 0.7212 0
      vertex -2.69635 1.06756 0
    endloop
  endfacet
  facet normal -0.699028 0.328916 -0.63496
    outer loop
      vertex -1.39466 0.552186 -1.7
      vertex -2.69635 1.06756 0
      vertex -1.31446 0.722631 -1.7
    endloop
  endfacet
  facet normal 0 0 1
    outer loop
      vertex 2.87713 0.363466 0
      vertex 2.87713 -0.363466 0
      vertex 2.9 0 0
    endloop
  endfacet
  facet normal 0 0 1
    outer loop
      vertex 2.80889 0.7212 0
      vertex 2.87713 -0.363466 0
      vertex 2.87713 0.363466 0
    endloop
  endfacet
  facet normal 0 0 1
    outer loop
      vertex 2.80889 0.7212 0
      vertex 2.80889 -0.7212 0
      vertex 2.87713 -0.363466 0
    endloop
  endfacet
  facet normal 0 0 1
    outer loop
      vertex 2.69635 1.06756 0
      vertex 2.80889 -0.7212 0
      vertex 2.80889 0.7212 0
    endloop
  endfacet
  facet normal 0 0 1
    outer loop
      vertex 2.69635 1.06756 0
      vertex 2.69635 -1.06756 0
      vertex 2.80889 -0.7212 0
    endloop
  endfacet
  facet normal 0 0 1
    outer loop
      vertex 2.54129 1.39709 0
      vertex 2.69635 -1.06756 0
      vertex 2.69635 1.06756 0
    endloop
  endfacet
  facet normal 0 0 1
    outer loop
      vertex 2.54129 1.39709 0
      vertex 2.54129 -1.39709 0
      vertex 2.69635 -1.06756 0
    endloop
  endfacet
  facet normal 0 0 1
    outer loop
      vertex 2.34615 1.70458 0
      vertex 2.54129 -1.39709 0
      vertex 2.54129 1.39709 0
    endloop
  endfacet
  facet normal 0 0 1
    outer loop
      vertex 2.34615 1.70458 0
      vertex 2.34615 -1.70458 0
      vertex 2.54129 -1.39709 0
    endloop
  endfacet
  facet normal 0 0 1
    outer loop
      vertex 2.11401 1.98519 0
      vertex 2.34615 -1.70458 0
      vertex 2.34615 1.70458 0
    endloop
  endfacet
  facet normal 0 0 1
    outer loop
      vertex 2.11401 1.98519 0
      vertex 2.11401 -1.98519 0
      vertex 2.34615 -1.70458 0
    endloop
  endfacet
  facet normal 0 0 1
    outer loop
      vertex 1.84853 2.23449 0
      vertex 2.11401 -1.98519 0
      vertex 2.11401 1.98519 0
    endloop
  endfacet
  facet normal 0 0 1
    outer loop
      vertex 1.84853 2.23449 0
      vertex 1.84853 -2.23449 0
      vertex 2.11401 -1.98519 0
    endloop
  endfacet
  facet normal 0 0 1
    outer loop
      vertex 1.5539 2.44855 0
      vertex 1.84853 -2.23449 0
      vertex 1.84853 2.23449 0
    endloop
  endfacet
  facet normal 0 0 1
    outer loop
      vertex 1.5539 2.44855 0
      vertex 1.5539 -2.44855 0
      vertex 1.84853 -2.23449 0
    endloop
  endfacet
  facet normal 0 0 1
    outer loop
      vertex 1.23476 2.624 0
      vertex 1.5539 -2.44855 0
      vertex 1.5539 2.44855 0
    endloop
  endfacet
  facet normal 0 0 1
    outer loop
      vertex 1.23476 2.624 0
      vertex 1.23476 -2.624 0
      vertex 1.5539 -2.44855 0
    endloop
  endfacet
  facet normal 0 0 1
    outer loop
      vertex 0.896149 2.75806 0
      vertex 1.23476 -2.624 0
      vertex 1.23476 2.624 0
    endloop
  endfacet
  facet normal 0 0 1
    outer loop
      vertex 0.896149 2.75806 0
      vertex 0.896149 -2.75806 0
      vertex 1.23476 -2.624 0
    endloop
  endfacet
  facet normal 0 0 1
    outer loop
      vertex 0.543406 2.84863 0
      vertex 0.896149 -2.75806 0
      vertex 0.896149 2.75806 0
    endloop
  endfacet
  facet normal 0 0 1
    outer loop
      vertex 0.543406 2.84863 0
      vertex 0.543406 -2.84863 0
      vertex 0.896149 -2.75806 0
    endloop
  endfacet
  facet normal 0 0 1
    outer loop
      vertex 0.182092 2.89428 0
      vertex 0.543406 -2.84863 0
      vertex 0.543406 2.84863 0
    endloop
  endfacet
  facet normal 0 0 1
    outer loop
      vertex 0.182092 2.89428 0
      vertex 0.182092 -2.89428 0
      vertex 0.543406 -2.84863 0
    endloop
  endfacet
  facet normal -0 0 1
    outer loop
      vertex -0.182092 2.89428 0
      vertex 0.182092 -2.89428 0
      vertex 0.182092 2.89428 0
    endloop
  endfacet
  facet normal 0 0 1
    outer loop
      vertex -0.182092 2.89428 0
      vertex -0.182092 -2.89428 0
      vertex 0.182092 -2.89428 0
    endloop
  endfacet
  facet normal -0 0 1
    outer loop
      vertex -0.543406 2.84863 0
      vertex -0.182092 -2.89428 0
      vertex -0.182092 2.89428 0
    endloop
  endfacet
  facet normal 0 0 1
    outer loop
      vertex -0.543406 2.84863 0
      vertex -0.543406 -2.84863 0
      vertex -0.182092 -2.89428 0
    endloop
  endfacet
  facet normal -0 0 1
    outer loop
      vertex -0.896149 2.75806 0
      vertex -0.543406 -2.84863 0
      vertex -0.543406 2.84863 0
    endloop
  endfacet
  facet normal 0 0 1
    outer loop
      vertex -0.896149 2.75806 0
      vertex -0.896149 -2.75806 0
      vertex -0.543406 -2.84863 0
    endloop
  endfacet
  facet normal -0 0 1
    outer loop
      vertex -1.23476 2.624 0
      vertex -0.896149 -2.75806 0
      vertex -0.896149 2.75806 0
    endloop
  endfacet
  facet normal 0 0 1
    outer loop
      vertex -1.23476 2.624 0
      vertex -1.23476 -2.624 0
      vertex -0.896149 -2.75806 0
    endloop
  endfacet
  facet normal -0 0 1
    outer loop
      vertex -1.5539 2.44855 0
      vertex -1.23476 -2.624 0
      vertex -1.23476 2.624 0
    endloop
  endfacet
  facet normal 0 0 1
    outer loop
      vertex -1.5539 2.44855 0
      vertex -1.5539 -2.44855 0
      vertex -1.23476 -2.624 0
    endloop
  endfacet
  facet normal -0 0 1
    outer loop
      vertex -1.84853 2.23449 0
      vertex -1.5539 -2.44855 0
      vertex -1.5539 2.44855 0
    endloop
  endfacet
  facet normal 0 0 1
    outer loop
      vertex -1.84853 2.23449 0
      vertex -1.84853 -2.23449 0
      vertex -1.5539 -2.44855 0
    endloop
  endfacet
  facet normal -0 0 1
    outer loop
      vertex -2.11401 1.98519 0
      vertex -1.84853 -2.23449 0
      vertex -1.84853 2.23449 0
    endloop
  endfacet
  facet normal 0 0 1
    outer loop
      vertex -2.11401 1.98519 0
      vertex -2.11401 -1.98519 0
      vertex -1.84853 -2.23449 0
    endloop
  endfacet
  facet normal -0 0 1
    outer loop
      vertex -2.34615 1.70458 0
      vertex -2.11401 -1.98519 0
      vertex -2.11401 1.98519 0
    endloop
  endfacet
  facet normal 0 0 1
    outer loop
      vertex -2.34615 1.70458 0
      vertex -2.34615 -1.70458 0
      vertex -2.11401 -1.98519 0
    endloop
  endfacet
  facet normal -0 0 1
    outer loop
      vertex -2.54129 1.39709 0
      vertex -2.34615 -1.70458 0
      vertex -2.34615 1.70458 0
    endloop
  endfacet
  facet normal 0 0 1
    outer loop
      vertex -2.54129 1.39709 0
      vertex -2.54129 -1.39709 0
      vertex -2.34615 -1.70458 0
    endloop
  endfacet
  facet normal -0 0 1
    outer loop
      vertex -2.69635 1.06756 0
      vertex -2.54129 -1.39709 0
      vertex -2.54129 1.39709 0
    endloop
  endfacet
  facet normal 0 0 1
    outer loop
      vertex -2.69635 1.06756 0
      vertex -2.69635 -1.06756 0
      vertex -2.54129 -1.39709 0
    endloop
  endfacet
  facet normal -0 0 1
    outer loop
      vertex -2.80889 0.7212 0
      vertex -2.69635 -1.06756 0
      vertex -2.69635 1.06756 0
    endloop
  endfacet
  facet normal 0 0 1
    outer loop
      vertex -2.80889 0.7212 0
      vertex -2.80889 -0.7212 0
      vertex -2.69635 -1.06756 0
    endloop
  endfacet
  facet normal -0 0 1
    outer loop
      vertex -2.87713 0.363466 0
      vertex -2.80889 -0.7212 0
      vertex -2.80889 0.7212 0
    endloop
  endfacet
  facet normal 0 0 1
    outer loop
      vertex -2.87713 0.363466 0
      vertex -2.87713 -0.363466 0
      vertex -2.80889 -0.7212 0
    endloop
  endfacet
  facet normal 0 -0 1
    outer loop
      vertex -2.87713 -0.363466 0
      vertex -2.87713 0.363466 0
      vertex -2.9 0 0
    endloop
  endfacet
  facet normal -0.284379 0.718301 -0.634959
    outer loop
      vertex -0.638668 1.35724 -1.7
      vertex -1.23476 2.624 0
      vertex -0.463525 1.42658 -1.7
    endloop
  endfacet
  facet normal -0.454085 0.625006 -0.63496
    outer loop
      vertex -0.956136 1.15577 -1.7
      vertex -1.5539 2.44855 0
      vertex -0.80374 1.26649 -1.7
    endloop
  endfacet
  facet normal -0.372179 0.676986 -0.634959
    outer loop
      vertex -0.80374 1.26649 -1.7
      vertex -1.5539 2.44855 0
      vertex -1.23476 2.624 0
    endloop
  endfacet
  facet normal -0.65227 0.413966 -0.634961
    outer loop
      vertex -1.31446 0.722631 -1.7
      vertex -2.34615 1.70458 0
      vertex -1.21352 0.881678 -1.7
    endloop
  endfacet
  facet normal -0.595257 0.492437 -0.634961
    outer loop
      vertex -1.21352 0.881678 -1.7
      vertex -2.34615 1.70458 0
      vertex -2.11401 1.98519 0
    endloop
  endfacet
  facet normal -0.528841 0.563164 -0.634959
    outer loop
      vertex -0.956136 1.15577 -1.7
      vertex -2.11401 1.98519 0
      vertex -1.84853 2.23449 0
    endloop
  endfacet
  facet normal 0.699028 0.328916 -0.63496
    outer loop
      vertex 1.39466 0.552186 -1.7
      vertex 1.31446 0.722631 -1.7
      vertex 2.69635 1.06756 0
    endloop
  endfacet
  facet normal 0.528851 0.563153 -0.634961
    outer loop
      vertex 1.09345 1.02682 -1.7
      vertex 0.956136 1.15577 -1.7
      vertex 2.11401 1.98519 0
    endloop
  endfacet
  facet normal 0.59526 0.492434 -0.63496
    outer loop
      vertex 1.21352 0.881678 -1.7
      vertex 1.09345 1.02682 -1.7
      vertex 2.11401 1.98519 0
    endloop
  endfacet
  facet normal 0.454089 0.625004 -0.634959
    outer loop
      vertex 1.84853 2.23449 0
      vertex 0.956136 1.15577 -1.7
      vertex 1.5539 2.44855 0
    endloop
  endfacet
  facet normal 0.284383 0.718299 -0.634959
    outer loop
      vertex 1.23476 2.624 0
      vertex 0.463525 1.42658 -1.7
      vertex 0.896149 2.75806 0
    endloop
  endfacet
  facet normal 0.454085 0.625006 -0.63496
    outer loop
      vertex 0.956136 1.15577 -1.7
      vertex 0.80374 1.26649 -1.7
      vertex 1.5539 2.44855 0
    endloop
  endfacet
  facet normal -0.096837 0.766452 -0.634959
    outer loop
      vertex -0.0941849 1.49704 -1.7
      vertex -0.543406 2.84863 0
      vertex -0.182092 2.89428 0
    endloop
  endfacet
  facet normal 0 0.772545 -0.63496
    outer loop
      vertex 0.0941849 1.49704 -1.7
      vertex -0.182092 2.89428 0
      vertex 0.182092 2.89428 0
    endloop
  endfacet
  facet normal 0 0.772545 -0.63496
    outer loop
      vertex -0.182092 2.89428 0
      vertex 0.0941849 1.49704 -1.7
      vertex -0.0941849 1.49704 -1.7
    endloop
  endfacet
  facet normal 0.192126 0.748275 -0.634958
    outer loop
      vertex 0.896149 2.75806 0
      vertex 0.281072 1.47343 -1.7
      vertex 0.543406 2.84863 0
    endloop
  endfacet
  facet normal 0.19214 0.74827 -0.63496
    outer loop
      vertex 0.463525 1.42658 -1.7
      vertex 0.281072 1.47343 -1.7
      vertex 0.896149 2.75806 0
    endloop
  endfacet
  facet normal -0.284379 -0.718301 -0.634959
    outer loop
      vertex -0.463525 -1.42658 -1.7
      vertex -1.23476 -2.624 0
      vertex -0.638668 -1.35724 -1.7
    endloop
  endfacet
  facet normal -0.0968284 -0.766454 -0.634958
    outer loop
      vertex -0.0941849 -1.49704 -1.7
      vertex -0.543406 -2.84863 0
      vertex -0.281072 -1.47343 -1.7
    endloop
  endfacet
  facet normal -0.75886 0.144772 -0.634958
    outer loop
      vertex -1.48817 0.188 -1.7
      vertex -2.87713 0.363466 0
      vertex -1.45287 0.373034 -1.7
    endloop
  endfacet
  facet normal -0.758862 0.144758 -0.63496
    outer loop
      vertex -1.45287 0.373034 -1.7
      vertex -2.87713 0.363466 0
      vertex -2.80889 0.7212 0
    endloop
  endfacet
  facet normal -0.771021 0.0485142 -0.634959
    outer loop
      vertex -1.5 0 -1.7
      vertex -2.9 0 0
      vertex -2.87713 0.363466 0
    endloop
  endfacet
  facet normal -0.771021 0.0485169 -0.634959
    outer loop
      vertex -1.5 0 -1.7
      vertex -2.87713 0.363466 0
      vertex -1.48817 0.188 -1.7
    endloop
  endfacet
  facet normal 0.758862 0.144758 -0.63496
    outer loop
      vertex 2.87713 0.363466 0
      vertex 1.45287 0.373034 -1.7
      vertex 2.80889 0.7212 0
    endloop
  endfacet
  facet normal 0.75886 0.144772 -0.634958
    outer loop
      vertex 1.48817 0.188 -1.7
      vertex 1.45287 0.373034 -1.7
      vertex 2.87713 0.363466 0
    endloop
  endfacet
  facet normal 0.595257 0.492437 -0.634961
    outer loop
      vertex 2.34615 1.70458 0
      vertex 1.21352 0.881678 -1.7
      vertex 2.11401 1.98519 0
    endloop
  endfacet
  facet normal 0.65227 0.413966 -0.634961
    outer loop
      vertex 1.31446 0.722631 -1.7
      vertex 1.21352 0.881678 -1.7
      vertex 2.34615 1.70458 0
    endloop
  endfacet
  facet normal 0.372179 0.676985 -0.634959
    outer loop
      vertex 0.80374 1.26649 -1.7
      vertex 0.638668 1.35724 -1.7
      vertex 1.23476 2.624 0
    endloop
  endfacet
  facet normal -0.0968284 0.766454 -0.634958
    outer loop
      vertex -0.281072 1.47343 -1.7
      vertex -0.543406 2.84863 0
      vertex -0.0941849 1.49704 -1.7
    endloop
  endfacet
  facet normal -0.734734 0.23873 -0.63496
    outer loop
      vertex -1.45287 0.373034 -1.7
      vertex -2.69635 1.06756 0
      vertex -1.39466 0.552186 -1.7
    endloop
  endfacet
  facet normal -0.771021 -0.0485169 -0.634959
    outer loop
      vertex -1.48817 -0.188 -1.7
      vertex -2.87713 -0.363466 0
      vertex -1.5 0 -1.7
    endloop
  endfacet
  facet normal 0.734734 0.23873 -0.63496
    outer loop
      vertex 1.45287 0.373034 -1.7
      vertex 1.39466 0.552186 -1.7
      vertex 2.69635 1.06756 0
    endloop
  endfacet
  facet normal 0.734734 0.238731 -0.63496
    outer loop
      vertex 2.80889 0.7212 0
      vertex 1.45287 0.373034 -1.7
      vertex 2.69635 1.06756 0
    endloop
  endfacet
  facet normal 0.998026 0.0628013 0
    outer loop
      vertex 1.5 0 -1.7
      vertex 1.48817 0.188 -18
      vertex 1.48817 0.188 -1.7
    endloop
  endfacet
  facet normal 0.998026 0.0628013 0
    outer loop
      vertex 1.48817 0.188 -18
      vertex 1.5 0 -1.7
      vertex 1.5 0 -18
    endloop
  endfacet
  facet normal -0.998026 0.0628013 0
    outer loop
      vertex -1.5 0 -18
      vertex -1.48817 0.188 -1.7
      vertex -1.48817 0.188 -18
    endloop
  endfacet
  facet normal -0.998026 0.0628013 0
    outer loop
      vertex -1.48817 0.188 -1.7
      vertex -1.5 0 -18
      vertex -1.5 0 -1.7
    endloop
  endfacet
  facet normal 0 1 -0
    outer loop
      vertex 0.0941849 1.49704 -18
      vertex -0.0941849 1.49704 -1.7
      vertex 0.0941849 1.49704 -1.7
    endloop
  endfacet
  facet normal 0 1 0
    outer loop
      vertex -0.0941849 1.49704 -1.7
      vertex 0.0941849 1.49704 -18
      vertex -0.0941849 1.49704 -18
    endloop
  endfacet
  facet normal 0 -1 0
    outer loop
      vertex -0.0941849 -1.49704 -18
      vertex 0.0941849 -1.49704 -1.7
      vertex -0.0941849 -1.49704 -1.7
    endloop
  endfacet
  facet normal 0 -1 -0
    outer loop
      vertex 0.0941849 -1.49704 -1.7
      vertex -0.0941849 -1.49704 -18
      vertex 0.0941849 -1.49704 -18
    endloop
  endfacet
  facet normal 0.684557 0.728959 -0
    outer loop
      vertex 1.09345 1.02682 -18
      vertex 0.956136 1.15577 -1.7
      vertex 1.09345 1.02682 -1.7
    endloop
  endfacet
  facet normal 0.684557 0.728959 0
    outer loop
      vertex 0.956136 1.15577 -1.7
      vertex 1.09345 1.02682 -18
      vertex 0.956136 1.15577 -18
    endloop
  endfacet
  facet normal -0.684557 0.728959 0
    outer loop
      vertex -0.956136 1.15577 -18
      vertex -1.09345 1.02682 -1.7
      vertex -0.956136 1.15577 -1.7
    endloop
  endfacet
  facet normal -0.684557 0.728959 0
    outer loop
      vertex -1.09345 1.02682 -1.7
      vertex -0.956136 1.15577 -18
      vertex -1.09345 1.02682 -18
    endloop
  endfacet
  facet normal -0.368106 0.929784 0
    outer loop
      vertex -0.463525 1.42658 -18
      vertex -0.638668 1.35724 -1.7
      vertex -0.463525 1.42658 -1.7
    endloop
  endfacet
  facet normal -0.368106 0.929784 0
    outer loop
      vertex -0.638668 1.35724 -1.7
      vertex -0.463525 1.42658 -18
      vertex -0.638668 1.35724 -18
    endloop
  endfacet
  facet normal 0.904838 0.425756 0
    outer loop
      vertex 1.39466 0.552186 -1.7
      vertex 1.31446 0.722631 -18
      vertex 1.31446 0.722631 -1.7
    endloop
  endfacet
  facet normal 0.904838 0.425756 0
    outer loop
      vertex 1.31446 0.722631 -18
      vertex 1.39466 0.552186 -1.7
      vertex 1.39466 0.552186 -18
    endloop
  endfacet
  facet normal 0.982284 0.187396 0
    outer loop
      vertex 1.48817 0.188 -1.7
      vertex 1.45287 0.373034 -18
      vertex 1.45287 0.373034 -1.7
    endloop
  endfacet
  facet normal 0.982284 0.187396 0
    outer loop
      vertex 1.45287 0.373034 -18
      vertex 1.48817 0.188 -1.7
      vertex 1.48817 0.188 -18
    endloop
  endfacet
  facet normal 0.368106 0.929784 -0
    outer loop
      vertex 0.638668 1.35724 -18
      vertex 0.463525 1.42658 -1.7
      vertex 0.638668 1.35724 -1.7
    endloop
  endfacet
  facet normal 0.368106 0.929784 0
    outer loop
      vertex 0.463525 1.42658 -1.7
      vertex 0.638668 1.35724 -18
      vertex 0.463525 1.42658 -18
    endloop
  endfacet
  facet normal 0.24871 0.968578 -0
    outer loop
      vertex 0.463525 1.42658 -18
      vertex 0.281072 1.47343 -1.7
      vertex 0.463525 1.42658 -1.7
    endloop
  endfacet
  facet normal 0.24871 0.968578 0
    outer loop
      vertex 0.281072 1.47343 -1.7
      vertex 0.463525 1.42658 -18
      vertex 0.281072 1.47343 -18
    endloop
  endfacet
  facet normal 0.481757 0.876305 -0
    outer loop
      vertex 0.80374 1.26649 -18
      vertex 0.638668 1.35724 -1.7
      vertex 0.80374 1.26649 -1.7
    endloop
  endfacet
  facet normal 0.481757 0.876305 0
    outer loop
      vertex 0.638668 1.35724 -1.7
      vertex 0.80374 1.26649 -18
      vertex 0.638668 1.35724 -18
    endloop
  endfacet
  facet normal -0.904838 0.425756 0
    outer loop
      vertex -1.39466 0.552186 -18
      vertex -1.31446 0.722631 -1.7
      vertex -1.31446 0.722631 -18
    endloop
  endfacet
  facet normal -0.904838 0.425756 0
    outer loop
      vertex -1.31446 0.722631 -1.7
      vertex -1.39466 0.552186 -18
      vertex -1.39466 0.552186 -1.7
    endloop
  endfacet
  facet normal -0.844314 0.535848 0
    outer loop
      vertex -1.31446 0.722631 -18
      vertex -1.21352 0.881678 -1.7
      vertex -1.21352 0.881678 -18
    endloop
  endfacet
  facet normal -0.844314 0.535848 0
    outer loop
      vertex -1.21352 0.881678 -1.7
      vertex -1.31446 0.722631 -18
      vertex -1.31446 0.722631 -1.7
    endloop
  endfacet
  facet normal -0.951057 0.309017 0
    outer loop
      vertex -1.45287 0.373034 -18
      vertex -1.39466 0.552186 -1.7
      vertex -1.39466 0.552186 -18
    endloop
  endfacet
  facet normal -0.951057 0.309017 0
    outer loop
      vertex -1.39466 0.552186 -1.7
      vertex -1.45287 0.373034 -18
      vertex -1.45287 0.373034 -1.7
    endloop
  endfacet
  facet normal -0.587778 0.809022 0
    outer loop
      vertex -0.80374 1.26649 -18
      vertex -0.956136 1.15577 -1.7
      vertex -0.80374 1.26649 -1.7
    endloop
  endfacet
  facet normal -0.587778 0.809022 0
    outer loop
      vertex -0.956136 1.15577 -1.7
      vertex -0.80374 1.26649 -18
      vertex -0.956136 1.15577 -18
    endloop
  endfacet
  facet normal -0.125337 0.992114 0
    outer loop
      vertex -0.0941849 1.49704 -18
      vertex -0.281072 1.47343 -1.7
      vertex -0.0941849 1.49704 -1.7
    endloop
  endfacet
  facet normal -0.125337 0.992114 0
    outer loop
      vertex -0.281072 1.47343 -1.7
      vertex -0.0941849 1.49704 -18
      vertex -0.281072 1.47343 -18
    endloop
  endfacet
  facet normal 0.951057 -0.309017 0
    outer loop
      vertex 1.39466 -0.552186 -1.7
      vertex 1.45287 -0.373034 -18
      vertex 1.45287 -0.373034 -1.7
    endloop
  endfacet
  facet normal 0.951057 -0.309017 0
    outer loop
      vertex 1.45287 -0.373034 -18
      vertex 1.39466 -0.552186 -1.7
      vertex 1.39466 -0.552186 -18
    endloop
  endfacet
  facet normal 0.125337 -0.992114 0
    outer loop
      vertex 0.0941849 -1.49704 -18
      vertex 0.281072 -1.47343 -1.7
      vertex 0.0941849 -1.49704 -1.7
    endloop
  endfacet
  facet normal 0.125337 -0.992114 0
    outer loop
      vertex 0.281072 -1.47343 -1.7
      vertex 0.0941849 -1.49704 -18
      vertex 0.281072 -1.47343 -18
    endloop
  endfacet
  facet normal 0.951057 0.309017 0
    outer loop
      vertex 1.45287 0.373034 -1.7
      vertex 1.39466 0.552186 -18
      vertex 1.39466 0.552186 -1.7
    endloop
  endfacet
  facet normal 0.951057 0.309017 0
    outer loop
      vertex 1.39466 0.552186 -18
      vertex 1.45287 0.373034 -1.7
      vertex 1.45287 0.373034 -18
    endloop
  endfacet
  facet normal 0.770518 0.637418 0
    outer loop
      vertex 1.21352 0.881678 -1.7
      vertex 1.09345 1.02682 -18
      vertex 1.09345 1.02682 -1.7
    endloop
  endfacet
  facet normal 0.770518 0.637418 0
    outer loop
      vertex 1.09345 1.02682 -18
      vertex 1.21352 0.881678 -1.7
      vertex 1.21352 0.881678 -18
    endloop
  endfacet
  facet normal 0.844314 0.535848 0
    outer loop
      vertex 1.31446 0.722631 -1.7
      vertex 1.21352 0.881678 -18
      vertex 1.21352 0.881678 -1.7
    endloop
  endfacet
  facet normal 0.844314 0.535848 0
    outer loop
      vertex 1.21352 0.881678 -18
      vertex 1.31446 0.722631 -1.7
      vertex 1.31446 0.722631 -18
    endloop
  endfacet
  facet normal 0.125337 0.992114 -0
    outer loop
      vertex 0.281072 1.47343 -18
      vertex 0.0941849 1.49704 -1.7
      vertex 0.281072 1.47343 -1.7
    endloop
  endfacet
  facet normal 0.125337 0.992114 0
    outer loop
      vertex 0.0941849 1.49704 -1.7
      vertex 0.281072 1.47343 -18
      vertex 0.0941849 1.49704 -18
    endloop
  endfacet
  facet normal 0.587778 0.809022 -0
    outer loop
      vertex 0.956136 1.15577 -18
      vertex 0.80374 1.26649 -1.7
      vertex 0.956136 1.15577 -1.7
    endloop
  endfacet
  facet normal 0.587778 0.809022 0
    outer loop
      vertex 0.80374 1.26649 -1.7
      vertex 0.956136 1.15577 -18
      vertex 0.80374 1.26649 -18
    endloop
  endfacet
  facet normal -0.770518 0.637418 0
    outer loop
      vertex -1.21352 0.881678 -18
      vertex -1.09345 1.02682 -1.7
      vertex -1.09345 1.02682 -18
    endloop
  endfacet
  facet normal -0.770518 0.637418 0
    outer loop
      vertex -1.09345 1.02682 -1.7
      vertex -1.21352 0.881678 -18
      vertex -1.21352 0.881678 -1.7
    endloop
  endfacet
  facet normal -0.982284 0.187396 0
    outer loop
      vertex -1.48817 0.188 -18
      vertex -1.45287 0.373034 -1.7
      vertex -1.45287 0.373034 -18
    endloop
  endfacet
  facet normal -0.982284 0.187396 0
    outer loop
      vertex -1.45287 0.373034 -1.7
      vertex -1.48817 0.188 -18
      vertex -1.48817 0.188 -1.7
    endloop
  endfacet
  facet normal -0.24871 0.968578 0
    outer loop
      vertex -0.281072 1.47343 -18
      vertex -0.463525 1.42658 -1.7
      vertex -0.281072 1.47343 -1.7
    endloop
  endfacet
  facet normal -0.24871 0.968578 0
    outer loop
      vertex -0.463525 1.42658 -1.7
      vertex -0.281072 1.47343 -18
      vertex -0.463525 1.42658 -18
    endloop
  endfacet
  facet normal 0.998026 -0.0628013 0
    outer loop
      vertex 1.48817 -0.188 -1.7
      vertex 1.5 0 -18
      vertex 1.5 0 -1.7
    endloop
  endfacet
  facet normal 0.998026 -0.0628013 0
    outer loop
      vertex 1.5 0 -18
      vertex 1.48817 -0.188 -1.7
      vertex 1.48817 -0.188 -18
    endloop
  endfacet
  facet normal 0.684557 -0.728959 0
    outer loop
      vertex 0.956136 -1.15577 -18
      vertex 1.09345 -1.02682 -1.7
      vertex 0.956136 -1.15577 -1.7
    endloop
  endfacet
  facet normal 0.684557 -0.728959 0
    outer loop
      vertex 1.09345 -1.02682 -1.7
      vertex 0.956136 -1.15577 -18
      vertex 1.09345 -1.02682 -18
    endloop
  endfacet
  facet normal 0.982284 -0.187396 0
    outer loop
      vertex 1.45287 -0.373034 -1.7
      vertex 1.48817 -0.188 -18
      vertex 1.48817 -0.188 -1.7
    endloop
  endfacet
  facet normal 0.982284 -0.187396 0
    outer loop
      vertex 1.48817 -0.188 -18
      vertex 1.45287 -0.373034 -1.7
      vertex 1.45287 -0.373034 -18
    endloop
  endfacet
  facet normal -0.904838 -0.425756 0
    outer loop
      vertex -1.31446 -0.722631 -18
      vertex -1.39466 -0.552186 -1.7
      vertex -1.39466 -0.552186 -18
    endloop
  endfacet
  facet normal -0.904838 -0.425756 0
    outer loop
      vertex -1.39466 -0.552186 -1.7
      vertex -1.31446 -0.722631 -18
      vertex -1.31446 -0.722631 -1.7
    endloop
  endfacet
  facet normal 0 0 -1
    outer loop
      vertex 1.48817 -0.188 -18
      vertex 1.48817 0.188 -18
      vertex 1.5 0 -18
    endloop
  endfacet
  facet normal 0 0 -1
    outer loop
      vertex 1.45287 -0.373034 -18
      vertex 1.48817 0.188 -18
      vertex 1.48817 -0.188 -18
    endloop
  endfacet
  facet normal 0 0 -1
    outer loop
      vertex 1.45287 -0.373034 -18
      vertex 1.45287 0.373034 -18
      vertex 1.48817 0.188 -18
    endloop
  endfacet
  facet normal 0 0 -1
    outer loop
      vertex 1.39466 -0.552186 -18
      vertex 1.45287 0.373034 -18
      vertex 1.45287 -0.373034 -18
    endloop
  endfacet
  facet normal 0 0 -1
    outer loop
      vertex 1.39466 -0.552186 -18
      vertex 1.39466 0.552186 -18
      vertex 1.45287 0.373034 -18
    endloop
  endfacet
  facet normal 0 0 -1
    outer loop
      vertex 1.31446 -0.722631 -18
      vertex 1.39466 0.552186 -18
      vertex 1.39466 -0.552186 -18
    endloop
  endfacet
  facet normal 0 0 -1
    outer loop
      vertex 1.31446 -0.722631 -18
      vertex 1.31446 0.722631 -18
      vertex 1.39466 0.552186 -18
    endloop
  endfacet
  facet normal 0 0 -1
    outer loop
      vertex 1.21352 -0.881678 -18
      vertex 1.31446 0.722631 -18
      vertex 1.31446 -0.722631 -18
    endloop
  endfacet
  facet normal 0 0 -1
    outer loop
      vertex 1.21352 -0.881678 -18
      vertex 1.21352 0.881678 -18
      vertex 1.31446 0.722631 -18
    endloop
  endfacet
  facet normal 0 0 -1
    outer loop
      vertex 1.09345 -1.02682 -18
      vertex 1.21352 0.881678 -18
      vertex 1.21352 -0.881678 -18
    endloop
  endfacet
  facet normal 0 0 -1
    outer loop
      vertex 1.09345 -1.02682 -18
      vertex 1.09345 1.02682 -18
      vertex 1.21352 0.881678 -18
    endloop
  endfacet
  facet normal 0 0 -1
    outer loop
      vertex 0.956136 -1.15577 -18
      vertex 1.09345 1.02682 -18
      vertex 1.09345 -1.02682 -18
    endloop
  endfacet
  facet normal 0 0 -1
    outer loop
      vertex 0.956136 -1.15577 -18
      vertex 0.956136 1.15577 -18
      vertex 1.09345 1.02682 -18
    endloop
  endfacet
  facet normal 0 0 -1
    outer loop
      vertex 0.80374 -1.26649 -18
      vertex 0.956136 1.15577 -18
      vertex 0.956136 -1.15577 -18
    endloop
  endfacet
  facet normal 0 0 -1
    outer loop
      vertex 0.80374 -1.26649 -18
      vertex 0.80374 1.26649 -18
      vertex 0.956136 1.15577 -18
    endloop
  endfacet
  facet normal 0 0 -1
    outer loop
      vertex 0.638668 -1.35724 -18
      vertex 0.80374 1.26649 -18
      vertex 0.80374 -1.26649 -18
    endloop
  endfacet
  facet normal 0 0 -1
    outer loop
      vertex 0.638668 -1.35724 -18
      vertex 0.638668 1.35724 -18
      vertex 0.80374 1.26649 -18
    endloop
  endfacet
  facet normal 0 0 -1
    outer loop
      vertex 0.463525 -1.42658 -18
      vertex 0.638668 1.35724 -18
      vertex 0.638668 -1.35724 -18
    endloop
  endfacet
  facet normal 0 0 -1
    outer loop
      vertex 0.463525 -1.42658 -18
      vertex 0.463525 1.42658 -18
      vertex 0.638668 1.35724 -18
    endloop
  endfacet
  facet normal 0 0 -1
    outer loop
      vertex 0.281072 -1.47343 -18
      vertex 0.463525 1.42658 -18
      vertex 0.463525 -1.42658 -18
    endloop
  endfacet
  facet normal 0 0 -1
    outer loop
      vertex 0.281072 -1.47343 -18
      vertex 0.281072 1.47343 -18
      vertex 0.463525 1.42658 -18
    endloop
  endfacet
  facet normal 0 0 -1
    outer loop
      vertex 0.0941849 -1.49704 -18
      vertex 0.281072 1.47343 -18
      vertex 0.281072 -1.47343 -18
    endloop
  endfacet
  facet normal 0 0 -1
    outer loop
      vertex 0.0941849 -1.49704 -18
      vertex 0.0941849 1.49704 -18
      vertex 0.281072 1.47343 -18
    endloop
  endfacet
  facet normal 0 0 -1
    outer loop
      vertex -0.0941849 -1.49704 -18
      vertex 0.0941849 1.49704 -18
      vertex 0.0941849 -1.49704 -18
    endloop
  endfacet
  facet normal 0 0 -1
    outer loop
      vertex -0.0941849 -1.49704 -18
      vertex -0.0941849 1.49704 -18
      vertex 0.0941849 1.49704 -18
    endloop
  endfacet
  facet normal 0 0 -1
    outer loop
      vertex -0.281072 -1.47343 -18
      vertex -0.0941849 1.49704 -18
      vertex -0.0941849 -1.49704 -18
    endloop
  endfacet
  facet normal 0 0 -1
    outer loop
      vertex -0.281072 -1.47343 -18
      vertex -0.281072 1.47343 -18
      vertex -0.0941849 1.49704 -18
    endloop
  endfacet
  facet normal 0 0 -1
    outer loop
      vertex -0.463525 -1.42658 -18
      vertex -0.281072 1.47343 -18
      vertex -0.281072 -1.47343 -18
    endloop
  endfacet
  facet normal 0 0 -1
    outer loop
      vertex -0.463525 -1.42658 -18
      vertex -0.463525 1.42658 -18
      vertex -0.281072 1.47343 -18
    endloop
  endfacet
  facet normal 0 0 -1
    outer loop
      vertex -0.638668 -1.35724 -18
      vertex -0.463525 1.42658 -18
      vertex -0.463525 -1.42658 -18
    endloop
  endfacet
  facet normal 0 0 -1
    outer loop
      vertex -0.638668 -1.35724 -18
      vertex -0.638668 1.35724 -18
      vertex -0.463525 1.42658 -18
    endloop
  endfacet
  facet normal 0 0 -1
    outer loop
      vertex -0.80374 -1.26649 -18
      vertex -0.638668 1.35724 -18
      vertex -0.638668 -1.35724 -18
    endloop
  endfacet
  facet normal 0 0 -1
    outer loop
      vertex -0.80374 -1.26649 -18
      vertex -0.80374 1.26649 -18
      vertex -0.638668 1.35724 -18
    endloop
  endfacet
  facet normal 0 0 -1
    outer loop
      vertex -0.956136 -1.15577 -18
      vertex -0.80374 1.26649 -18
      vertex -0.80374 -1.26649 -18
    endloop
  endfacet
  facet normal 0 0 -1
    outer loop
      vertex -0.956136 -1.15577 -18
      vertex -0.956136 1.15577 -18
      vertex -0.80374 1.26649 -18
    endloop
  endfacet
  facet normal 0 0 -1
    outer loop
      vertex -1.09345 -1.02682 -18
      vertex -0.956136 1.15577 -18
      vertex -0.956136 -1.15577 -18
    endloop
  endfacet
  facet normal 0 0 -1
    outer loop
      vertex -1.09345 -1.02682 -18
      vertex -1.09345 1.02682 -18
      vertex -0.956136 1.15577 -18
    endloop
  endfacet
  facet normal 0 0 -1
    outer loop
      vertex -1.21352 -0.881678 -18
      vertex -1.09345 1.02682 -18
      vertex -1.09345 -1.02682 -18
    endloop
  endfacet
  facet normal 0 0 -1
    outer loop
      vertex -1.21352 -0.881678 -18
      vertex -1.21352 0.881678 -18
      vertex -1.09345 1.02682 -18
    endloop
  endfacet
  facet normal 0 0 -1
    outer loop
      vertex -1.31446 -0.722631 -18
      vertex -1.21352 0.881678 -18
      vertex -1.21352 -0.881678 -18
    endloop
  endfacet
  facet normal 0 0 -1
    outer loop
      vertex -1.31446 -0.722631 -18
      vertex -1.31446 0.722631 -18
      vertex -1.21352 0.881678 -18
    endloop
  endfacet
  facet normal 0 0 -1
    outer loop
      vertex -1.39466 -0.552186 -18
      vertex -1.31446 0.722631 -18
      vertex -1.31446 -0.722631 -18
    endloop
  endfacet
  facet normal 0 0 -1
    outer loop
      vertex -1.39466 -0.552186 -18
      vertex -1.39466 0.552186 -18
      vertex -1.31446 0.722631 -18
    endloop
  endfacet
  facet normal 0 0 -1
    outer loop
      vertex -1.45287 -0.373034 -18
      vertex -1.39466 0.552186 -18
      vertex -1.39466 -0.552186 -18
    endloop
  endfacet
  facet normal 0 0 -1
    outer loop
      vertex -1.45287 -0.373034 -18
      vertex -1.45287 0.373034 -18
      vertex -1.39466 0.552186 -18
    endloop
  endfacet
  facet normal 0 0 -1
    outer loop
      vertex -1.48817 -0.188 -18
      vertex -1.45287 0.373034 -18
      vertex -1.45287 -0.373034 -18
    endloop
  endfacet
  facet normal 0 0 -1
    outer loop
      vertex -1.48817 -0.188 -18
      vertex -1.48817 0.188 -18
      vertex -1.45287 0.373034 -18
    endloop
  endfacet
  facet normal 0 -0 -1
    outer loop
      vertex -1.48817 0.188 -18
      vertex -1.48817 -0.188 -18
      vertex -1.5 0 -18
    endloop
  endfacet
  facet normal 0.368106 -0.929784 0
    outer loop
      vertex 0.463525 -1.42658 -18
      vertex 0.638668 -1.35724 -1.7
      vertex 0.463525 -1.42658 -1.7
    endloop
  endfacet
  facet normal 0.368106 -0.929784 0
    outer loop
      vertex 0.638668 -1.35724 -1.7
      vertex 0.463525 -1.42658 -18
      vertex 0.638668 -1.35724 -18
    endloop
  endfacet
  facet normal -0.481757 0.876305 0
    outer loop
      vertex -0.638668 1.35724 -18
      vertex -0.80374 1.26649 -1.7
      vertex -0.638668 1.35724 -1.7
    endloop
  endfacet
  facet normal -0.481757 0.876305 0
    outer loop
      vertex -0.80374 1.26649 -1.7
      vertex -0.638668 1.35724 -18
      vertex -0.80374 1.26649 -18
    endloop
  endfacet
  facet normal 0.481757 -0.876305 0
    outer loop
      vertex 0.638668 -1.35724 -18
      vertex 0.80374 -1.26649 -1.7
      vertex 0.638668 -1.35724 -1.7
    endloop
  endfacet
  facet normal 0.481757 -0.876305 0
    outer loop
      vertex 0.80374 -1.26649 -1.7
      vertex 0.638668 -1.35724 -18
      vertex 0.80374 -1.26649 -18
    endloop
  endfacet
  facet normal 0.904838 -0.425756 0
    outer loop
      vertex 1.31446 -0.722631 -1.7
      vertex 1.39466 -0.552186 -18
      vertex 1.39466 -0.552186 -1.7
    endloop
  endfacet
  facet normal 0.904838 -0.425756 0
    outer loop
      vertex 1.39466 -0.552186 -18
      vertex 1.31446 -0.722631 -1.7
      vertex 1.31446 -0.722631 -18
    endloop
  endfacet
  facet normal 0.770518 -0.637418 0
    outer loop
      vertex 1.09345 -1.02682 -1.7
      vertex 1.21352 -0.881678 -18
      vertex 1.21352 -0.881678 -1.7
    endloop
  endfacet
  facet normal 0.770518 -0.637418 0
    outer loop
      vertex 1.21352 -0.881678 -18
      vertex 1.09345 -1.02682 -1.7
      vertex 1.09345 -1.02682 -18
    endloop
  endfacet
  facet normal -0.368106 -0.929784 0
    outer loop
      vertex -0.638668 -1.35724 -18
      vertex -0.463525 -1.42658 -1.7
      vertex -0.638668 -1.35724 -1.7
    endloop
  endfacet
  facet normal -0.368106 -0.929784 -0
    outer loop
      vertex -0.463525 -1.42658 -1.7
      vertex -0.638668 -1.35724 -18
      vertex -0.463525 -1.42658 -18
    endloop
  endfacet
  facet normal -0.684557 -0.728959 0
    outer loop
      vertex -1.09345 -1.02682 -18
      vertex -0.956136 -1.15577 -1.7
      vertex -1.09345 -1.02682 -1.7
    endloop
  endfacet
  facet normal -0.684557 -0.728959 -0
    outer loop
      vertex -0.956136 -1.15577 -1.7
      vertex -1.09345 -1.02682 -18
      vertex -0.956136 -1.15577 -18
    endloop
  endfacet
  facet normal -0.951057 -0.309017 0
    outer loop
      vertex -1.39466 -0.552186 -18
      vertex -1.45287 -0.373034 -1.7
      vertex -1.45287 -0.373034 -18
    endloop
  endfacet
  facet normal -0.951057 -0.309017 0
    outer loop
      vertex -1.45287 -0.373034 -1.7
      vertex -1.39466 -0.552186 -18
      vertex -1.39466 -0.552186 -1.7
    endloop
  endfacet
  facet normal 0.24871 -0.968578 0
    outer loop
      vertex 0.281072 -1.47343 -18
      vertex 0.463525 -1.42658 -1.7
      vertex 0.281072 -1.47343 -1.7
    endloop
  endfacet
  facet normal 0.24871 -0.968578 0
    outer loop
      vertex 0.463525 -1.42658 -1.7
      vertex 0.281072 -1.47343 -18
      vertex 0.463525 -1.42658 -18
    endloop
  endfacet
  facet normal 0.587778 -0.809022 0
    outer loop
      vertex 0.80374 -1.26649 -18
      vertex 0.956136 -1.15577 -1.7
      vertex 0.80374 -1.26649 -1.7
    endloop
  endfacet
  facet normal 0.587778 -0.809022 0
    outer loop
      vertex 0.956136 -1.15577 -1.7
      vertex 0.80374 -1.26649 -18
      vertex 0.956136 -1.15577 -18
    endloop
  endfacet
  facet normal 0.844314 -0.535848 0
    outer loop
      vertex 1.21352 -0.881678 -1.7
      vertex 1.31446 -0.722631 -18
      vertex 1.31446 -0.722631 -1.7
    endloop
  endfacet
  facet normal 0.844314 -0.535848 0
    outer loop
      vertex 1.31446 -0.722631 -18
      vertex 1.21352 -0.881678 -1.7
      vertex 1.21352 -0.881678 -18
    endloop
  endfacet
  facet normal -0.125337 -0.992114 0
    outer loop
      vertex -0.281072 -1.47343 -18
      vertex -0.0941849 -1.49704 -1.7
      vertex -0.281072 -1.47343 -1.7
    endloop
  endfacet
  facet normal -0.125337 -0.992114 -0
    outer loop
      vertex -0.0941849 -1.49704 -1.7
      vertex -0.281072 -1.47343 -18
      vertex -0.0941849 -1.49704 -18
    endloop
  endfacet
  facet normal -0.587778 -0.809022 0
    outer loop
      vertex -0.956136 -1.15577 -18
      vertex -0.80374 -1.26649 -1.7
      vertex -0.956136 -1.15577 -1.7
    endloop
  endfacet
  facet normal -0.587778 -0.809022 -0
    outer loop
      vertex -0.80374 -1.26649 -1.7
      vertex -0.956136 -1.15577 -18
      vertex -0.80374 -1.26649 -18
    endloop
  endfacet
  facet normal -0.481757 -0.876305 0
    outer loop
      vertex -0.80374 -1.26649 -18
      vertex -0.638668 -1.35724 -1.7
      vertex -0.80374 -1.26649 -1.7
    endloop
  endfacet
  facet normal -0.481757 -0.876305 -0
    outer loop
      vertex -0.638668 -1.35724 -1.7
      vertex -0.80374 -1.26649 -18
      vertex -0.638668 -1.35724 -18
    endloop
  endfacet
  facet normal -0.24871 -0.968578 0
    outer loop
      vertex -0.463525 -1.42658 -18
      vertex -0.281072 -1.47343 -1.7
      vertex -0.463525 -1.42658 -1.7
    endloop
  endfacet
  facet normal -0.24871 -0.968578 -0
    outer loop
      vertex -0.281072 -1.47343 -1.7
      vertex -0.463525 -1.42658 -18
      vertex -0.281072 -1.47343 -18
    endloop
  endfacet
  facet normal -0.770518 -0.637418 0
    outer loop
      vertex -1.09345 -1.02682 -18
      vertex -1.21352 -0.881678 -1.7
      vertex -1.21352 -0.881678 -18
    endloop
  endfacet
  facet normal -0.770518 -0.637418 0
    outer loop
      vertex -1.21352 -0.881678 -1.7
      vertex -1.09345 -1.02682 -18
      vertex -1.09345 -1.02682 -1.7
    endloop
  endfacet
  facet normal -0.844314 -0.535848 0
    outer loop
      vertex -1.21352 -0.881678 -18
      vertex -1.31446 -0.722631 -1.7
      vertex -1.31446 -0.722631 -18
    endloop
  endfacet
  facet normal -0.844314 -0.535848 0
    outer loop
      vertex -1.31446 -0.722631 -1.7
      vertex -1.21352 -0.881678 -18
      vertex -1.21352 -0.881678 -1.7
    endloop
  endfacet
  facet normal -0.982284 -0.187396 0
    outer loop
      vertex -1.45287 -0.373034 -18
      vertex -1.48817 -0.188 -1.7
      vertex -1.48817 -0.188 -18
    endloop
  endfacet
  facet normal -0.982284 -0.187396 0
    outer loop
      vertex -1.48817 -0.188 -1.7
      vertex -1.45287 -0.373034 -18
      vertex -1.45287 -0.373034 -1.7
    endloop
  endfacet
  facet normal -0.998026 -0.0628013 0
    outer loop
      vertex -1.48817 -0.188 -18
      vertex -1.5 0 -1.7
      vertex -1.5 0 -18
    endloop
  endfacet
  facet normal -0.998026 -0.0628013 0
    outer loop
      vertex -1.5 0 -1.7
      vertex -1.48817 -0.188 -18
      vertex -1.48817 -0.188 -1.7
    endloop
  endfacet
endsolid OpenSCAD_Model
