<?xml version="1.0" standalone="no"?>
<!DOCTYPE svg PUBLIC "-//W3C//DTD SVG 1.1//EN" "http://www.w3.org/Graphics/SVG/1.1/DTD/svg11.dtd">
<svg width="14mm" height="260mm" viewBox="-7 -454 14 260" xmlns="http://www.w3.org/2000/svg" version="1.1">
<title>OpenSCAD Model</title>
<path d="
M 2.9369,-410.089 L 3.54507,-410.245 L 4.12889,-410.476 L 4.67912,-410.778 L 5.18712,-411.147 L 5.64484,-411.577
 L 6.04507,-412.061 L 6.38153,-412.591 L 6.64888,-413.159 L 6.84291,-413.757 L 6.96057,-414.373 L 7,-415
 L 7,-449 L 6.96057,-449.627 L 6.84291,-450.243 L 6.64888,-450.841 L 6.38153,-451.409 L 6.04507,-451.939
 L 5.64484,-452.423 L 5.18712,-452.853 L 4.67912,-453.222 L 4.12889,-453.524 L 3.54507,-453.755 L 2.9369,-453.911
 L 2.31395,-453.99 L -2.31395,-453.99 L -2.9369,-453.911 L -3.54507,-453.755 L -4.12889,-453.524 L -4.67912,-453.222
 L -5.18712,-452.853 L -5.64484,-452.423 L -6.04507,-451.939 L -6.38153,-451.409 L -6.64888,-450.841 L -6.84291,-450.243
 L -6.96057,-449.627 L -7,-449 L -7,-415 L -6.96057,-414.373 L -6.84291,-413.757 L -6.64888,-413.159
 L -6.38153,-412.591 L -6.04507,-412.061 L -5.64484,-411.577 L -5.18712,-411.147 L -4.67912,-410.778 L -4.12889,-410.476
 L -3.54507,-410.245 L -2.9369,-410.089 L -2.31395,-410.01 L 2.31395,-410.01 z
M -2.04825,-410.509 L -2.64006,-410.584 L -3.21782,-410.732 L -3.77245,-410.952 L -4.29517,-411.239 L -4.77776,-411.59
 L -5.2126,-411.998 L -5.59282,-412.458 L -5.91245,-412.962 L -6.16643,-413.501 L -6.35077,-414.069 L -6.46254,-414.655
 L -6.5,-415.25 L -6.5,-448.75 L -6.46254,-449.345 L -6.35077,-449.931 L -6.16643,-450.499 L -5.91245,-451.038
 L -5.59282,-451.542 L -5.2126,-452.002 L -4.77776,-452.41 L -4.29517,-452.761 L -3.77245,-453.048 L -3.21782,-453.268
 L -2.64006,-453.416 L -2.04825,-453.491 L 2.04825,-453.491 L 2.64006,-453.416 L 3.21782,-453.268 L 3.77245,-453.048
 L 4.29517,-452.761 L 4.77776,-452.41 L 5.2126,-452.002 L 5.59282,-451.542 L 5.91245,-451.038 L 6.16643,-450.499
 L 6.35077,-449.931 L 6.46254,-449.345 L 6.5,-448.75 L 6.5,-415.25 L 6.46254,-414.655 L 6.35077,-414.069
 L 6.16643,-413.501 L 5.91245,-412.962 L 5.59282,-412.458 L 5.2126,-411.998 L 4.77776,-411.59 L 4.29517,-411.239
 L 3.77245,-410.952 L 3.21782,-410.732 L 2.64006,-410.584 L 2.04825,-410.509 z
M 2.9369,-356.089 L 3.54507,-356.245 L 4.12889,-356.476 L 4.67912,-356.778 L 5.18712,-357.147 L 5.64484,-357.577
 L 6.04507,-358.061 L 6.38153,-358.591 L 6.64888,-359.159 L 6.84291,-359.757 L 6.96057,-360.373 L 7,-361
 L 7,-395 L 6.96057,-395.627 L 6.84291,-396.243 L 6.64888,-396.841 L 6.38153,-397.409 L 6.04507,-397.939
 L 5.64484,-398.423 L 5.18712,-398.853 L 4.67912,-399.222 L 4.12889,-399.524 L 3.54507,-399.755 L 2.9369,-399.911
 L 2.31395,-399.99 L -2.31395,-399.99 L -2.9369,-399.911 L -3.54507,-399.755 L -4.12889,-399.524 L -4.67912,-399.222
 L -5.18712,-398.853 L -5.64484,-398.423 L -6.04507,-397.939 L -6.38153,-397.409 L -6.64888,-396.841 L -6.84291,-396.243
 L -6.96057,-395.627 L -7,-395 L -7,-361 L -6.96057,-360.373 L -6.84291,-359.757 L -6.64888,-359.159
 L -6.38153,-358.591 L -6.04507,-358.061 L -5.64484,-357.577 L -5.18712,-357.147 L -4.67912,-356.778 L -4.12889,-356.476
 L -3.54507,-356.245 L -2.9369,-356.089 L -2.31395,-356.01 L 2.31395,-356.01 z
M -2.04825,-356.509 L -2.64006,-356.584 L -3.21782,-356.732 L -3.77245,-356.952 L -4.29517,-357.239 L -4.77776,-357.59
 L -5.2126,-357.998 L -5.59282,-358.458 L -5.91245,-358.962 L -6.16643,-359.501 L -6.35077,-360.069 L -6.46254,-360.655
 L -6.5,-361.25 L -6.5,-394.75 L -6.46254,-395.345 L -6.35077,-395.931 L -6.16643,-396.499 L -5.91245,-397.038
 L -5.59282,-397.542 L -5.2126,-398.002 L -4.77776,-398.41 L -4.29517,-398.761 L -3.77245,-399.048 L -3.21782,-399.268
 L -2.64006,-399.416 L -2.04825,-399.491 L 2.04825,-399.491 L 2.64006,-399.416 L 3.21782,-399.268 L 3.77245,-399.048
 L 4.29517,-398.761 L 4.77776,-398.41 L 5.2126,-398.002 L 5.59282,-397.542 L 5.91245,-397.038 L 6.16643,-396.499
 L 6.35077,-395.931 L 6.46254,-395.345 L 6.5,-394.75 L 6.5,-361.25 L 6.46254,-360.655 L 6.35077,-360.069
 L 6.16643,-359.501 L 5.91245,-358.962 L 5.59282,-358.458 L 5.2126,-357.998 L 4.77776,-357.59 L 4.29517,-357.239
 L 3.77245,-356.952 L 3.21782,-356.732 L 2.64006,-356.584 L 2.04825,-356.509 z
M 2.9369,-302.089 L 3.54507,-302.245 L 4.12889,-302.476 L 4.67912,-302.778 L 5.18712,-303.147 L 5.64484,-303.577
 L 6.04507,-304.061 L 6.38153,-304.591 L 6.64888,-305.159 L 6.84291,-305.757 L 6.96057,-306.373 L 7,-307
 L 7,-341 L 6.96057,-341.627 L 6.84291,-342.243 L 6.64888,-342.841 L 6.38153,-343.409 L 6.04507,-343.939
 L 5.64484,-344.423 L 5.18712,-344.853 L 4.67912,-345.222 L 4.12889,-345.524 L 3.54507,-345.755 L 2.9369,-345.911
 L 2.31395,-345.99 L -2.31395,-345.99 L -2.9369,-345.911 L -3.54507,-345.755 L -4.12889,-345.524 L -4.67912,-345.222
 L -5.18712,-344.853 L -5.64484,-344.423 L -6.04507,-343.939 L -6.38153,-343.409 L -6.64888,-342.841 L -6.84291,-342.243
 L -6.96057,-341.627 L -7,-341 L -7,-307 L -6.96057,-306.373 L -6.84291,-305.757 L -6.64888,-305.159
 L -6.38153,-304.591 L -6.04507,-304.061 L -5.64484,-303.577 L -5.18712,-303.147 L -4.67912,-302.778 L -4.12889,-302.476
 L -3.54507,-302.245 L -2.9369,-302.089 L -2.31395,-302.01 L 2.31395,-302.01 z
M -2.04825,-302.509 L -2.64006,-302.584 L -3.21782,-302.732 L -3.77245,-302.952 L -4.29517,-303.239 L -4.77776,-303.59
 L -5.2126,-303.998 L -5.59282,-304.458 L -5.91245,-304.962 L -6.16643,-305.501 L -6.35077,-306.069 L -6.46254,-306.655
 L -6.5,-307.25 L -6.5,-340.75 L -6.46254,-341.345 L -6.35077,-341.931 L -6.16643,-342.499 L -5.91245,-343.038
 L -5.59282,-343.542 L -5.2126,-344.002 L -4.77776,-344.41 L -4.29517,-344.761 L -3.77245,-345.048 L -3.21782,-345.268
 L -2.64006,-345.416 L -2.04825,-345.491 L 2.04825,-345.491 L 2.64006,-345.416 L 3.21782,-345.268 L 3.77245,-345.048
 L 4.29517,-344.761 L 4.77776,-344.41 L 5.2126,-344.002 L 5.59282,-343.542 L 5.91245,-343.038 L 6.16643,-342.499
 L 6.35077,-341.931 L 6.46254,-341.345 L 6.5,-340.75 L 6.5,-307.25 L 6.46254,-306.655 L 6.35077,-306.069
 L 6.16643,-305.501 L 5.91245,-304.962 L 5.59282,-304.458 L 5.2126,-303.998 L 4.77776,-303.59 L 4.29517,-303.239
 L 3.77245,-302.952 L 3.21782,-302.732 L 2.64006,-302.584 L 2.04825,-302.509 z
M 2.9369,-248.089 L 3.54507,-248.245 L 4.12889,-248.476 L 4.67912,-248.778 L 5.18712,-249.147 L 5.64484,-249.577
 L 6.04507,-250.061 L 6.38153,-250.591 L 6.64888,-251.159 L 6.84291,-251.757 L 6.96057,-252.373 L 7,-253
 L 7,-287 L 6.96057,-287.627 L 6.84291,-288.243 L 6.64888,-288.841 L 6.38153,-289.409 L 6.04507,-289.939
 L 5.64484,-290.423 L 5.18712,-290.853 L 4.67912,-291.222 L 4.12889,-291.524 L 3.54507,-291.755 L 2.9369,-291.911
 L 2.31395,-291.99 L -2.31395,-291.99 L -2.9369,-291.911 L -3.54507,-291.755 L -4.12889,-291.524 L -4.67912,-291.222
 L -5.18712,-290.853 L -5.64484,-290.423 L -6.04507,-289.939 L -6.38153,-289.409 L -6.64888,-288.841 L -6.84291,-288.243
 L -6.96057,-287.627 L -7,-287 L -7,-253 L -6.96057,-252.373 L -6.84291,-251.757 L -6.64888,-251.159
 L -6.38153,-250.591 L -6.04507,-250.061 L -5.64484,-249.577 L -5.18712,-249.147 L -4.67912,-248.778 L -4.12889,-248.476
 L -3.54507,-248.245 L -2.9369,-248.089 L -2.31395,-248.01 L 2.31395,-248.01 z
M -1.99297,-249.388 L -2.47505,-249.449 L -2.94572,-249.57 L -3.39754,-249.749 L -3.82336,-249.983 L -4.21649,-250.269
 L -4.57071,-250.601 L -4.88046,-250.976 L -5.14084,-251.386 L -5.34773,-251.826 L -5.49789,-252.288 L -5.58896,-252.765
 L -5.61946,-253.25 L -5.61946,-286.75 L -5.58896,-287.235 L -5.49789,-287.712 L -5.34773,-288.174 L -5.14084,-288.614
 L -4.88046,-289.024 L -4.57071,-289.399 L -4.21649,-289.731 L -3.82336,-290.017 L -3.39754,-290.251 L -2.94572,-290.43
 L -2.47505,-290.551 L -1.99297,-290.612 L 1.99297,-290.612 L 2.47505,-290.551 L 2.94572,-290.43 L 3.39754,-290.251
 L 3.82336,-290.017 L 4.21649,-289.731 L 4.57071,-289.399 L 4.88046,-289.024 L 5.14084,-288.614 L 5.34773,-288.174
 L 5.49789,-287.712 L 5.58896,-287.235 L 5.61946,-286.75 L 5.61946,-253.25 L 5.58896,-252.765 L 5.49789,-252.288
 L 5.34773,-251.826 L 5.14084,-251.386 L 4.88046,-250.976 L 4.57071,-250.601 L 4.21649,-250.269 L 3.82336,-249.983
 L 3.39754,-249.749 L 2.94572,-249.57 L 2.47505,-249.449 L 1.99297,-249.388 z
M 2.9369,-194.089 L 3.54507,-194.245 L 4.12889,-194.476 L 4.67912,-194.778 L 5.18712,-195.147 L 5.64484,-195.577
 L 6.04507,-196.061 L 6.38153,-196.591 L 6.64888,-197.159 L 6.84291,-197.757 L 6.96057,-198.373 L 7,-199
 L 7,-233 L 6.96057,-233.627 L 6.84291,-234.243 L 6.64888,-234.841 L 6.38153,-235.409 L 6.04507,-235.939
 L 5.64484,-236.423 L 5.18712,-236.853 L 4.67912,-237.222 L 4.12889,-237.524 L 3.54507,-237.755 L 2.9369,-237.911
 L 2.31395,-237.99 L -2.31395,-237.99 L -2.9369,-237.911 L -3.54507,-237.755 L -4.12889,-237.524 L -4.67912,-237.222
 L -5.18712,-236.853 L -5.64484,-236.423 L -6.04507,-235.939 L -6.38153,-235.409 L -6.64888,-234.841 L -6.84291,-234.243
 L -6.96057,-233.627 L -7,-233 L -7,-199 L -6.96057,-198.373 L -6.84291,-197.757 L -6.64888,-197.159
 L -6.38153,-196.591 L -6.04507,-196.061 L -5.64484,-195.577 L -5.18712,-195.147 L -4.67912,-194.778 L -4.12889,-194.476
 L -3.54507,-194.245 L -2.9369,-194.089 L -2.31395,-194.01 L 2.31395,-194.01 z
M -0.0941772,-229.503 L -0.281067,-229.527 L -0.463516,-229.573 L -0.638657,-229.643 L -0.803726,-229.734 L -0.956131,-229.844
 L -1.09344,-229.973 L -1.21352,-230.118 L -1.31445,-230.277 L -1.39465,-230.448 L -1.45287,-230.627 L -1.48816,-230.812
 L -1.5,-231 L -1.48816,-231.188 L -1.45287,-231.373 L -1.39465,-231.552 L -1.31445,-231.723 L -1.21352,-231.882
 L -1.09344,-232.027 L -0.956131,-232.156 L -0.803726,-232.266 L -0.638657,-232.357 L -0.463516,-232.427 L -0.281067,-232.473
 L -0.0941772,-232.497 L 0.0941772,-232.497 L 0.281067,-232.473 L 0.463516,-232.427 L 0.638657,-232.357 L 0.803726,-232.266
 L 0.956131,-232.156 L 1.09344,-232.027 L 1.21352,-231.882 L 1.31445,-231.723 L 1.39465,-231.552 L 1.45287,-231.373
 L 1.48816,-231.188 L 1.5,-231 L 1.48816,-230.812 L 1.45287,-230.627 L 1.39465,-230.448 L 1.31445,-230.277
 L 1.21352,-230.118 L 1.09344,-229.973 L 0.956131,-229.844 L 0.803726,-229.734 L 0.638657,-229.643 L 0.463516,-229.573
 L 0.281067,-229.527 L 0.0941772,-229.503 z
M -0.0941772,-199.503 L -0.281067,-199.527 L -0.463516,-199.573 L -0.638657,-199.643 L -0.803726,-199.734 L -0.956131,-199.844
 L -1.09344,-199.973 L -1.21352,-200.118 L -1.31445,-200.277 L -1.39465,-200.448 L -1.45287,-200.627 L -1.48816,-200.812
 L -1.5,-201 L -1.48816,-201.188 L -1.45287,-201.373 L -1.39465,-201.552 L -1.31445,-201.723 L -1.21352,-201.882
 L -1.09344,-202.027 L -0.956131,-202.156 L -0.803726,-202.266 L -0.638657,-202.357 L -0.463516,-202.427 L -0.281067,-202.473
 L -0.0941772,-202.497 L 0.0941772,-202.497 L 0.281067,-202.473 L 0.463516,-202.427 L 0.638657,-202.357 L 0.803726,-202.266
 L 0.956131,-202.156 L 1.09344,-202.027 L 1.21352,-201.882 L 1.31445,-201.723 L 1.39465,-201.552 L 1.45287,-201.373
 L 1.48816,-201.188 L 1.5,-201 L 1.48816,-200.812 L 1.45287,-200.627 L 1.39465,-200.448 L 1.31445,-200.277
 L 1.21352,-200.118 L 1.09344,-199.973 L 0.956131,-199.844 L 0.803726,-199.734 L 0.638657,-199.643 L 0.463516,-199.573
 L 0.281067,-199.527 L 0.0941772,-199.503 z
" stroke="black" fill="lightgray" stroke-width="0.5"/>
</svg>
