<?xml version="1.0" standalone="no"?>
<!DOCTYPE svg PUBLIC "-//W3C//DTD SVG 1.1//EN" "http://www.w3.org/Graphics/SVG/1.1/DTD/svg11.dtd">
<svg width="46mm" height="198mm" viewBox="-23 -306 46 198" xmlns="http://www.w3.org/2000/svg" version="1.1">
<title>OpenSCAD Model</title>
<path d="
M 18.4369,-246.089 L 19.0451,-246.245 L 19.6289,-246.476 L 20.1791,-246.778 L 20.6871,-247.147 L 21.1448,-247.577
 L 21.5451,-248.061 L 21.8815,-248.591 L 22.1489,-249.159 L 22.3429,-249.757 L 22.4606,-250.373 L 22.5,-251
 L 22.5,-301 L 22.4606,-301.627 L 22.3429,-302.243 L 22.1489,-302.841 L 21.8815,-303.409 L 21.5451,-303.939
 L 21.1448,-304.423 L 20.6871,-304.853 L 20.1791,-305.222 L 19.6289,-305.524 L 19.0451,-305.755 L 18.4369,-305.911
 L 17.8139,-305.99 L -17.8139,-305.99 L -18.4369,-305.911 L -19.0451,-305.755 L -19.6289,-305.524 L -20.1791,-305.222
 L -20.6871,-304.853 L -21.1448,-304.423 L -21.5451,-303.939 L -21.8815,-303.409 L -22.1489,-302.841 L -22.3429,-302.243
 L -22.4606,-301.627 L -22.5,-301 L -22.5,-251 L -22.4606,-250.373 L -22.3429,-249.757 L -22.1489,-249.159
 L -21.8815,-248.591 L -21.5451,-248.061 L -21.1448,-247.577 L -20.6871,-247.147 L -20.1791,-246.778 L -19.6289,-246.476
 L -19.0451,-246.245 L -18.4369,-246.089 L -17.8139,-246.01 L 17.8139,-246.01 z
M -12.311,-246.509 L -11.8209,-246.778 L -11.3129,-247.147 L -10.8551,-247.577 L -10.4549,-248.061 L -10.1185,-248.591
 L -9.8511,-249.159 L -9.65707,-249.757 L -9.53941,-250.373 L -9.5,-251 L -9.5,-254 L -9.53941,-254.627
 L -9.65707,-255.243 L -9.8511,-255.841 L -10.1185,-256.409 L -10.4549,-256.939 L -10.8551,-257.423 L -11.3129,-257.853
 L -11.8209,-258.222 L -12.3711,-258.524 L -12.9549,-258.755 L -13.5631,-258.911 L -14.186,-258.99 L -17.8139,-258.99
 L -18.4369,-258.911 L -19.0451,-258.755 L -19.6289,-258.524 L -20.1791,-258.222 L -20.6871,-257.853 L -21.1448,-257.423
 L -21.5451,-256.939 L -21.8815,-256.409 L -22,-256.157 L -22,-301 L -21.9645,-301.564 L -21.8586,-302.119
 L -21.684,-302.657 L -21.4434,-303.168 L -21.1406,-303.645 L -20.7803,-304.08 L -20.3684,-304.467 L -19.9112,-304.799
 L -19.416,-305.072 L -18.8906,-305.28 L -18.3432,-305.42 L -17.7825,-305.491 L 17.7825,-305.491 L 18.3432,-305.42
 L 18.8906,-305.28 L 19.416,-305.072 L 19.9112,-304.799 L 20.3684,-304.467 L 20.7803,-304.08 L 21.1406,-303.645
 L 21.4434,-303.168 L 21.684,-302.657 L 21.8586,-302.119 L 21.9645,-301.564 L 22,-301 L 22,-251
 L 21.9645,-250.436 L 21.8586,-249.881 L 21.684,-249.343 L 21.4434,-248.832 L 21.1406,-248.355 L 20.7803,-247.92
 L 20.3684,-247.533 L 19.9112,-247.201 L 19.416,-246.928 L 18.8906,-246.72 L 18.3432,-246.58 L 17.7825,-246.509
 z
M 15.4684,-296.044 L 15.7725,-296.122 L 16.0644,-296.238 L 16.3396,-296.389 L 16.5936,-296.574 L 16.8224,-296.789
 L 17.0225,-297.031 L 17.1908,-297.296 L 17.3244,-297.58 L 17.4214,-297.878 L 17.4803,-298.187 L 17.5,-298.5
 L 17.4803,-298.813 L 17.4214,-299.122 L 17.3244,-299.42 L 17.1908,-299.704 L 17.0225,-299.969 L 16.8224,-300.211
 L 16.5936,-300.426 L 16.3396,-300.611 L 16.0644,-300.762 L 15.7725,-300.878 L 15.4684,-300.956 L 15.157,-300.995
 L 14.843,-300.995 L 14.5315,-300.956 L 14.2274,-300.878 L 13.9355,-300.762 L 13.6604,-300.611 L 13.4064,-300.426
 L 13.1776,-300.211 L 12.9774,-299.969 L 12.8092,-299.704 L 12.6756,-299.42 L 12.5785,-299.122 L 12.5197,-298.813
 L 12.5,-298.5 L 12.5197,-298.187 L 12.5785,-297.878 L 12.6756,-297.58 L 12.8092,-297.296 L 12.9774,-297.031
 L 13.1776,-296.789 L 13.4064,-296.574 L 13.6604,-296.389 L 13.9355,-296.238 L 14.2274,-296.122 L 14.5315,-296.044
 L 14.843,-296.005 L 15.157,-296.005 z
M 14.9058,-297.003 L 14.7189,-297.027 L 14.5365,-297.073 L 14.3613,-297.143 L 14.1963,-297.234 L 14.0439,-297.344
 L 13.9065,-297.473 L 13.7865,-297.618 L 13.6855,-297.777 L 13.6053,-297.948 L 13.5471,-298.127 L 13.5118,-298.312
 L 13.5,-298.5 L 13.5118,-298.688 L 13.5471,-298.873 L 13.6053,-299.052 L 13.6855,-299.223 L 13.7865,-299.382
 L 13.9065,-299.527 L 14.0439,-299.656 L 14.1963,-299.766 L 14.3613,-299.857 L 14.5365,-299.927 L 14.7189,-299.973
 L 14.9058,-299.997 L 15.0942,-299.997 L 15.2811,-299.973 L 15.4635,-299.927 L 15.6387,-299.857 L 15.8037,-299.766
 L 15.9561,-299.656 L 16.0934,-299.527 L 16.2135,-299.382 L 16.3145,-299.223 L 16.3947,-299.052 L 16.4529,-298.873
 L 16.4882,-298.688 L 16.5,-298.5 L 16.4882,-298.312 L 16.4529,-298.127 L 16.3947,-297.948 L 16.3145,-297.777
 L 16.2135,-297.618 L 16.0934,-297.473 L 15.9561,-297.344 L 15.8037,-297.234 L 15.6387,-297.143 L 15.4635,-297.073
 L 15.2811,-297.027 L 15.0942,-297.003 z
M -15.0942,-252.003 L -15.2811,-252.027 L -15.4635,-252.073 L -15.6387,-252.143 L -15.8037,-252.234 L -15.9561,-252.344
 L -16.0934,-252.473 L -16.2135,-252.618 L -16.3145,-252.777 L -16.3947,-252.948 L -16.4529,-253.127 L -16.4882,-253.312
 L -16.5,-253.5 L -16.4882,-253.688 L -16.4529,-253.873 L -16.3947,-254.052 L -16.3145,-254.223 L -16.2135,-254.382
 L -16.0934,-254.527 L -15.9561,-254.656 L -15.8037,-254.766 L -15.6387,-254.857 L -15.4635,-254.927 L -15.2811,-254.973
 L -15.0942,-254.997 L -14.9058,-254.997 L -14.7189,-254.973 L -14.5365,-254.927 L -14.3613,-254.857 L -14.1963,-254.766
 L -14.0439,-254.656 L -13.9065,-254.527 L -13.7865,-254.382 L -13.6855,-254.223 L -13.6053,-254.052 L -13.5471,-253.873
 L -13.5118,-253.688 L -13.5,-253.5 L -13.5118,-253.312 L -13.5471,-253.127 L -13.6053,-252.948 L -13.6855,-252.777
 L -13.7865,-252.618 L -13.9065,-252.473 L -14.0439,-252.344 L -14.1963,-252.234 L -14.3613,-252.143 L -14.5365,-252.073
 L -14.7189,-252.027 L -14.9058,-252.003 z
M 18.4369,-177.089 L 19.0451,-177.245 L 19.6289,-177.476 L 20.1791,-177.778 L 20.6871,-178.147 L 21.1448,-178.577
 L 21.5451,-179.061 L 21.8815,-179.591 L 22.1489,-180.159 L 22.3429,-180.757 L 22.4606,-181.373 L 22.5,-182
 L 22.5,-232 L 22.4606,-232.627 L 22.3429,-233.243 L 22.1489,-233.841 L 21.8815,-234.409 L 21.5451,-234.939
 L 21.1448,-235.423 L 20.6871,-235.853 L 20.1791,-236.222 L 19.6289,-236.524 L 19.0451,-236.755 L 18.4369,-236.911
 L 17.8139,-236.99 L -17.8139,-236.99 L -18.4369,-236.911 L -19.0451,-236.755 L -19.6289,-236.524 L -20.1791,-236.222
 L -20.6871,-235.853 L -21.1448,-235.423 L -21.5451,-234.939 L -21.8815,-234.409 L -22.1489,-233.841 L -22.3429,-233.243
 L -22.4606,-232.627 L -22.5,-232 L -22.5,-182 L -22.4606,-181.373 L -22.3429,-180.757 L -22.1489,-180.159
 L -21.8815,-179.591 L -21.5451,-179.061 L -21.1448,-178.577 L -20.6871,-178.147 L -20.1791,-177.778 L -19.6289,-177.476
 L -19.0451,-177.245 L -18.4369,-177.089 L -17.8139,-177.01 L 17.8139,-177.01 z
M -11.5357,-177.986 L -11.3129,-178.147 L -10.8551,-178.577 L -10.4549,-179.061 L -10.1185,-179.591 L -9.8511,-180.159
 L -9.65707,-180.757 L -9.53941,-181.373 L -9.5,-182 L -9.5,-185 L -9.53941,-185.627 L -9.65707,-186.243
 L -9.8511,-186.841 L -10.1185,-187.409 L -10.4549,-187.939 L -10.8551,-188.423 L -11.3129,-188.853 L -11.8209,-189.222
 L -12.3711,-189.524 L -12.9549,-189.755 L -13.5631,-189.911 L -14.186,-189.99 L -17.8139,-189.99 L -18.4369,-189.911
 L -19.0451,-189.755 L -19.6289,-189.524 L -20.1791,-189.222 L -20.6871,-188.853 L -21.1448,-188.423 L -21.5224,-187.966
 L -21.5224,-232 L -21.4907,-232.504 L -21.396,-233 L -21.2399,-233.481 L -21.0248,-233.938 L -20.7542,-234.364
 L -20.4322,-234.754 L -20.0639,-235.099 L -19.6553,-235.396 L -19.2126,-235.64 L -18.743,-235.826 L -18.2537,-235.951
 L -17.7526,-236.014 L 11.5357,-236.014 L 11.3129,-235.853 L 10.8551,-235.423 L 10.4549,-234.939 L 10.1185,-234.409
 L 9.8511,-233.841 L 9.65707,-233.243 L 9.53941,-232.627 L 9.5,-232 L 9.5,-229 L 9.53941,-228.373
 L 9.65707,-227.757 L 9.8511,-227.159 L 10.1185,-226.591 L 10.4549,-226.061 L 10.8551,-225.577 L 11.3129,-225.147
 L 11.8209,-224.778 L 12.3711,-224.476 L 12.9549,-224.245 L 13.5631,-224.089 L 14.186,-224.01 L 17.8139,-224.01
 L 18.4369,-224.089 L 19.0451,-224.245 L 19.6289,-224.476 L 20.1791,-224.778 L 20.6871,-225.147 L 21.1448,-225.577
 L 21.5224,-226.034 L 21.5224,-182 L 21.4907,-181.496 L 21.396,-181 L 21.2399,-180.519 L 21.0248,-180.062
 L 20.7542,-179.636 L 20.4322,-179.246 L 20.0639,-178.901 L 19.6553,-178.604 L 19.2126,-178.36 L 18.743,-178.174
 L 18.2537,-178.049 L 17.7526,-177.986 z
M 14.9058,-228.003 L 14.7189,-228.027 L 14.5365,-228.073 L 14.3613,-228.143 L 14.1963,-228.234 L 14.0439,-228.344
 L 13.9065,-228.473 L 13.7865,-228.618 L 13.6855,-228.777 L 13.6053,-228.948 L 13.5471,-229.127 L 13.5118,-229.312
 L 13.5,-229.5 L 13.5118,-229.688 L 13.5471,-229.873 L 13.6053,-230.052 L 13.6855,-230.223 L 13.7865,-230.382
 L 13.9065,-230.527 L 14.0439,-230.656 L 14.1963,-230.766 L 14.3613,-230.857 L 14.5365,-230.927 L 14.7189,-230.973
 L 14.9058,-230.997 L 15.0942,-230.997 L 15.2811,-230.973 L 15.4635,-230.927 L 15.6387,-230.857 L 15.8037,-230.766
 L 15.9561,-230.656 L 16.0934,-230.527 L 16.2135,-230.382 L 16.3145,-230.223 L 16.3947,-230.052 L 16.4529,-229.873
 L 16.4882,-229.688 L 16.5,-229.5 L 16.4882,-229.312 L 16.4529,-229.127 L 16.3947,-228.948 L 16.3145,-228.777
 L 16.2135,-228.618 L 16.0934,-228.473 L 15.9561,-228.344 L 15.8037,-228.234 L 15.6387,-228.143 L 15.4635,-228.073
 L 15.2811,-228.027 L 15.0942,-228.003 z
M -15.0942,-183.003 L -15.2811,-183.027 L -15.4635,-183.073 L -15.6387,-183.143 L -15.8037,-183.234 L -15.9561,-183.344
 L -16.0934,-183.473 L -16.2135,-183.618 L -16.3145,-183.777 L -16.3947,-183.948 L -16.4529,-184.127 L -16.4882,-184.312
 L -16.5,-184.5 L -16.4882,-184.688 L -16.4529,-184.873 L -16.3947,-185.052 L -16.3145,-185.223 L -16.2135,-185.382
 L -16.0934,-185.527 L -15.9561,-185.656 L -15.8037,-185.766 L -15.6387,-185.857 L -15.4635,-185.927 L -15.2811,-185.973
 L -15.0942,-185.997 L -14.9058,-185.997 L -14.7189,-185.973 L -14.5365,-185.927 L -14.3613,-185.857 L -14.1963,-185.766
 L -14.0439,-185.656 L -13.9065,-185.527 L -13.7865,-185.382 L -13.6855,-185.223 L -13.6053,-185.052 L -13.5471,-184.873
 L -13.5118,-184.688 L -13.5,-184.5 L -13.5118,-184.312 L -13.5471,-184.127 L -13.6053,-183.948 L -13.6855,-183.777
 L -13.7865,-183.618 L -13.9065,-183.473 L -14.0439,-183.344 L -14.1963,-183.234 L -14.3613,-183.143 L -14.5365,-183.073
 L -14.7189,-183.027 L -14.9058,-183.003 z
M 18.4369,-108.089 L 19.0451,-108.245 L 19.6289,-108.476 L 20.1791,-108.778 L 20.6871,-109.147 L 21.1448,-109.577
 L 21.5451,-110.061 L 21.8815,-110.591 L 22.1489,-111.159 L 22.3429,-111.757 L 22.4606,-112.373 L 22.5,-113
 L 22.5,-163 L 22.4606,-163.627 L 22.3429,-164.243 L 22.1489,-164.841 L 21.8815,-165.409 L 21.5451,-165.939
 L 21.1448,-166.423 L 20.6871,-166.853 L 20.1791,-167.222 L 19.6289,-167.524 L 19.0451,-167.755 L 18.4369,-167.911
 L 17.8139,-167.99 L -17.8139,-167.99 L -18.4369,-167.911 L -19.0451,-167.755 L -19.6289,-167.524 L -20.1791,-167.222
 L -20.6871,-166.853 L -21.1448,-166.423 L -21.5451,-165.939 L -21.8815,-165.409 L -22.1489,-164.841 L -22.3429,-164.243
 L -22.4606,-163.627 L -22.5,-163 L -22.5,-113 L -22.4606,-112.373 L -22.3429,-111.757 L -22.1489,-111.159
 L -21.8815,-110.591 L -21.5451,-110.061 L -21.1448,-109.577 L -20.6871,-109.147 L -20.1791,-108.778 L -19.6289,-108.476
 L -19.0451,-108.245 L -18.4369,-108.089 L -17.8139,-108.01 L 17.8139,-108.01 z
M 14.8493,-158.105 L 14.5503,-158.143 L 14.2583,-158.217 L 13.9781,-158.328 L 13.714,-158.474 L 13.4702,-158.651
 L 13.2505,-158.857 L 13.0583,-159.089 L 12.8969,-159.344 L 12.7685,-159.617 L 12.6754,-159.903 L 12.6189,-160.199
 L 12.6,-160.5 L 12.6189,-160.801 L 12.6754,-161.097 L 12.7685,-161.383 L 12.8969,-161.656 L 13.0583,-161.911
 L 13.2505,-162.143 L 13.4702,-162.349 L 13.714,-162.526 L 13.9781,-162.672 L 14.2583,-162.783 L 14.5503,-162.857
 L 14.8493,-162.895 L 15.1507,-162.895 L 15.4497,-162.857 L 15.7416,-162.783 L 16.0219,-162.672 L 16.286,-162.526
 L 16.5298,-162.349 L 16.7495,-162.143 L 16.9416,-161.911 L 17.1031,-161.656 L 17.2315,-161.383 L 17.3246,-161.097
 L 17.3811,-160.801 L 17.4,-160.5 L 17.3811,-160.199 L 17.3246,-159.903 L 17.2315,-159.617 L 17.1031,-159.344
 L 16.9416,-159.089 L 16.7495,-158.857 L 16.5298,-158.651 L 16.286,-158.474 L 16.0219,-158.328 L 15.7416,-158.217
 L 15.4497,-158.143 L 15.1507,-158.105 z
M -15.0942,-159.003 L -15.2811,-159.027 L -15.4635,-159.073 L -15.6387,-159.143 L -15.8037,-159.234 L -15.9561,-159.344
 L -16.0934,-159.473 L -16.2135,-159.618 L -16.3145,-159.777 L -16.3947,-159.948 L -16.4529,-160.127 L -16.4882,-160.312
 L -16.5,-160.5 L -16.4882,-160.688 L -16.4529,-160.873 L -16.3947,-161.052 L -16.3145,-161.223 L -16.2135,-161.382
 L -16.0934,-161.527 L -15.9561,-161.656 L -15.8037,-161.766 L -15.6387,-161.857 L -15.4635,-161.927 L -15.2811,-161.973
 L -15.0942,-161.997 L -14.9058,-161.997 L -14.7189,-161.973 L -14.5365,-161.927 L -14.3613,-161.857 L -14.1963,-161.766
 L -14.0439,-161.656 L -13.9065,-161.527 L -13.7865,-161.382 L -13.6855,-161.223 L -13.6053,-161.052 L -13.5471,-160.873
 L -13.5118,-160.688 L -13.5,-160.5 L -13.5118,-160.312 L -13.5471,-160.127 L -13.6053,-159.948 L -13.6855,-159.777
 L -13.7865,-159.618 L -13.9065,-159.473 L -14.0439,-159.344 L -14.1963,-159.234 L -14.3613,-159.143 L -14.5365,-159.073
 L -14.7189,-159.027 L -14.9058,-159.003 z
M -15.1507,-113.105 L -15.4497,-113.143 L -15.7416,-113.217 L -16.0219,-113.328 L -16.286,-113.474 L -16.5298,-113.651
 L -16.7495,-113.857 L -16.9416,-114.089 L -17.1031,-114.344 L -17.2315,-114.617 L -17.3246,-114.903 L -17.3811,-115.199
 L -17.4,-115.5 L -17.3811,-115.801 L -17.3246,-116.097 L -17.2315,-116.383 L -17.1031,-116.656 L -16.9416,-116.911
 L -16.7495,-117.143 L -16.5298,-117.349 L -16.286,-117.526 L -16.0219,-117.672 L -15.7416,-117.783 L -15.4497,-117.857
 L -15.1507,-117.895 L -14.8493,-117.895 L -14.5503,-117.857 L -14.2583,-117.783 L -13.9781,-117.672 L -13.714,-117.526
 L -13.4702,-117.349 L -13.2505,-117.143 L -13.0583,-116.911 L -12.8969,-116.656 L -12.7685,-116.383 L -12.6754,-116.097
 L -12.6189,-115.801 L -12.6,-115.5 L -12.6189,-115.199 L -12.6754,-114.903 L -12.7685,-114.617 L -12.8969,-114.344
 L -13.0583,-114.089 L -13.2505,-113.857 L -13.4702,-113.651 L -13.714,-113.474 L -13.9781,-113.328 L -14.2583,-113.217
 L -14.5503,-113.143 L -14.8493,-113.105 z
M 14.9058,-114.003 L 14.7189,-114.027 L 14.5365,-114.073 L 14.3613,-114.143 L 14.1963,-114.234 L 14.0439,-114.344
 L 13.9065,-114.473 L 13.7865,-114.618 L 13.6855,-114.777 L 13.6053,-114.948 L 13.5471,-115.127 L 13.5118,-115.312
 L 13.5,-115.5 L 13.5118,-115.688 L 13.5471,-115.873 L 13.6053,-116.052 L 13.6855,-116.223 L 13.7865,-116.382
 L 13.9065,-116.527 L 14.0439,-116.656 L 14.1963,-116.766 L 14.3613,-116.857 L 14.5365,-116.927 L 14.7189,-116.973
 L 14.9058,-116.997 L 15.0942,-116.997 L 15.2811,-116.973 L 15.4635,-116.927 L 15.6387,-116.857 L 15.8037,-116.766
 L 15.9561,-116.656 L 16.0934,-116.527 L 16.2135,-116.382 L 16.3145,-116.223 L 16.3947,-116.052 L 16.4529,-115.873
 L 16.4882,-115.688 L 16.5,-115.5 L 16.4882,-115.312 L 16.4529,-115.127 L 16.3947,-114.948 L 16.3145,-114.777
 L 16.2135,-114.618 L 16.0934,-114.473 L 15.9561,-114.344 L 15.8037,-114.234 L 15.6387,-114.143 L 15.4635,-114.073
 L 15.2811,-114.027 L 15.0942,-114.003 z
" stroke="black" fill="lightgray" stroke-width="0.5"/>
</svg>
