<?xml version="1.0" standalone="no"?>
<!DOCTYPE svg PUBLIC "-//W3C//DTD SVG 1.1//EN" "http://www.w3.org/Graphics/SVG/1.1/DTD/svg11.dtd">
<svg width="6mm" height="25mm" viewBox="-3 -23 6 25" xmlns="http://www.w3.org/2000/svg" version="1.1">
<title>OpenSCAD Model</title>
<path d="
M 0.481674,-17.4749 L 0.794342,-17.5552 L 1.0945,-17.6741 L 1.37738,-17.8296 L 1.63855,-18.0193 L 1.87387,-18.2403
 L 2.07964,-18.4891 L 2.25261,-18.7616 L 2.39006,-19.0537 L 2.48982,-19.3607 L 2.55031,-19.6778 L 2.57059,-20
 L 2.55031,-20.3222 L 2.48982,-20.6393 L 2.39006,-20.9463 L 2.25261,-21.2384 L 2.07964,-21.5109 L 1.87387,-21.7597
 L 1.63855,-21.9807 L 1.37738,-22.1704 L 1.0945,-22.3259 L 0.794342,-22.4448 L 0.481674,-22.5251 L 0.161407,-22.5655
 L -0.161407,-22.5655 L -0.481674,-22.5251 L -0.794342,-22.4448 L -1.0945,-22.3259 L -1.37738,-22.1704 L -1.63855,-21.9807
 L -1.87387,-21.7597 L -2.07964,-21.5109 L -2.25261,-21.2384 L -2.39006,-20.9463 L -2.48982,-20.6393 L -2.55031,-20.3222
 L -2.57059,-20 L -2.55031,-19.6778 L -2.48982,-19.3607 L -2.39006,-19.0537 L -2.25261,-18.7616 L -2.07964,-18.4891
 L -1.87387,-18.2403 L -1.63855,-18.0193 L -1.37738,-17.8296 L -1.0945,-17.6741 L -0.794342,-17.5552 L -0.481674,-17.4749
 L -0.161407,-17.4345 L 0.161407,-17.4345 z
M 0.281067,-8.52658 L 0.463516,-8.57343 L 0.638657,-8.64276 L 0.803726,-8.73352 L 0.956131,-8.84424 L 1.09344,-8.97319
 L 1.21352,-9.11833 L 1.31445,-9.27737 L 1.39465,-9.44781 L 1.45287,-9.62697 L 1.48816,-9.81201 L 1.5,-10
 L 1.48816,-10.188 L 1.45287,-10.373 L 1.39465,-10.5522 L 1.31445,-10.7226 L 1.21352,-10.8817 L 1.09344,-11.0268
 L 0.956131,-11.1558 L 0.803726,-11.2665 L 0.638657,-11.3572 L 0.463516,-11.4266 L 0.281067,-11.4734 L 0.0941772,-11.497
 L -0.0941772,-11.497 L -0.281067,-11.4734 L -0.463516,-11.4266 L -0.638657,-11.3572 L -0.803726,-11.2665 L -0.956131,-11.1558
 L -1.09344,-11.0268 L -1.21352,-10.8817 L -1.31445,-10.7226 L -1.39465,-10.5522 L -1.45287,-10.373 L -1.48816,-10.188
 L -1.5,-10 L -1.48816,-9.81201 L -1.45287,-9.62697 L -1.39465,-9.44781 L -1.31445,-9.27737 L -1.21352,-9.11833
 L -1.09344,-8.97319 L -0.956131,-8.84424 L -0.803726,-8.73352 L -0.638657,-8.64276 L -0.463516,-8.57343 L -0.281067,-8.52658
 L -0.0941772,-8.50296 L 0.0941772,-8.50296 z
M 0.281067,1.47342 L 0.463516,1.42657 L 0.638657,1.35724 L 0.803726,1.26648 L 0.956131,1.15576 L 1.09344,1.02681
 L 1.21352,0.881668 L 1.31445,0.722626 L 1.39465,0.552185 L 1.45287,0.373032 L 1.48816,0.187988 L 1.5,-0
 L 1.48816,-0.187988 L 1.45287,-0.373032 L 1.39465,-0.552185 L 1.31445,-0.722626 L 1.21352,-0.881668 L 1.09344,-1.02681
 L 0.956131,-1.15576 L 0.803726,-1.26648 L 0.638657,-1.35724 L 0.463516,-1.42657 L 0.281067,-1.47342 L 0.0941772,-1.49704
 L -0.0941772,-1.49704 L -0.281067,-1.47342 L -0.463516,-1.42657 L -0.638657,-1.35724 L -0.803726,-1.26648 L -0.956131,-1.15576
 L -1.09344,-1.02681 L -1.21352,-0.881668 L -1.31445,-0.722626 L -1.39465,-0.552185 L -1.45287,-0.373032 L -1.48816,-0.187988
 L -1.5,-0 L -1.48816,0.187988 L -1.45287,0.373032 L -1.39465,0.552185 L -1.31445,0.722626 L -1.21352,0.881668
 L -1.09344,1.02681 L -0.956131,1.15576 L -0.803726,1.26648 L -0.638657,1.35724 L -0.463516,1.42657 L -0.281067,1.47342
 L -0.0941772,1.49704 L 0.0941772,1.49704 z
" stroke="black" fill="lightgray" stroke-width="0.5"/>
</svg>
