<?xml version="1.0" standalone="no"?>
<!DOCTYPE svg PUBLIC "-//W3C//DTD SVG 1.1//EN" "http://www.w3.org/Graphics/SVG/1.1/DTD/svg11.dtd">
<svg width="24mm" height="154mm" viewBox="-12 -239 24 154" xmlns="http://www.w3.org/2000/svg" version="1.1">
<title>OpenSCAD Model</title>
<path d="
M 7.1869,-193.589 L 7.79507,-193.745 L 8.37889,-193.976 L 8.92912,-194.278 L 9.43712,-194.647 L 9.89484,-195.077
 L 10.2951,-195.561 L 10.6315,-196.091 L 10.8989,-196.659 L 11.0929,-197.257 L 11.2106,-197.873 L 11.25,-198.5
 L 11.25,-233.5 L 11.2106,-234.127 L 11.0929,-234.743 L 10.8989,-235.341 L 10.6315,-235.909 L 10.2951,-236.439
 L 9.89484,-236.923 L 9.43712,-237.353 L 8.92912,-237.722 L 8.37889,-238.024 L 7.79507,-238.255 L 7.1869,-238.411
 L 6.56395,-238.49 L -6.56395,-238.49 L -7.1869,-238.411 L -7.79507,-238.255 L -8.37889,-238.024 L -8.92912,-237.722
 L -9.43712,-237.353 L -9.89484,-236.923 L -10.2951,-236.439 L -10.6315,-235.909 L -10.8989,-235.341 L -11.0929,-234.743
 L -11.2106,-234.127 L -11.25,-233.5 L -11.25,-198.5 L -11.2106,-197.873 L -11.0929,-197.257 L -10.8989,-196.659
 L -10.6315,-196.091 L -10.2951,-195.561 L -9.89484,-195.077 L -9.43712,-194.647 L -8.92912,-194.278 L -8.37889,-193.976
 L -7.79507,-193.745 L -7.1869,-193.589 L -6.56395,-193.51 L 6.56395,-193.51 z
M -1.06104,-194.009 L -0.570862,-194.278 L -0.0628662,-194.647 L 0.394836,-195.077 L 0.795074,-195.561 L 1.13153,-196.091
 L 1.39888,-196.659 L 1.59291,-197.257 L 1.71057,-197.873 L 1.75,-198.5 L 1.75,-201.5 L 1.71057,-202.127
 L 1.59291,-202.743 L 1.39888,-203.341 L 1.13153,-203.909 L 0.795074,-204.439 L 0.394836,-204.923 L -0.0628662,-205.353
 L -0.570862,-205.722 L -1.12109,-206.024 L -1.70491,-206.255 L -2.31308,-206.411 L -2.93604,-206.49 L -6.56395,-206.49
 L -7.1869,-206.411 L -7.79507,-206.255 L -8.37889,-206.024 L -8.92912,-205.722 L -9.43712,-205.353 L -9.89484,-204.923
 L -10.2951,-204.439 L -10.6315,-203.909 L -10.75,-203.657 L -10.75,-233.5 L -10.7145,-234.064 L -10.6086,-234.619
 L -10.434,-235.157 L -10.1934,-235.668 L -9.89056,-236.145 L -9.53035,-236.58 L -9.11839,-236.967 L -8.66121,-237.299
 L -8.166,-237.572 L -7.64056,-237.78 L -7.0932,-237.92 L -6.53255,-237.991 L 6.53255,-237.991 L 7.0932,-237.92
 L 7.64056,-237.78 L 8.166,-237.572 L 8.66121,-237.299 L 9.11839,-236.967 L 9.53035,-236.58 L 9.89056,-236.145
 L 10.1934,-235.668 L 10.434,-235.157 L 10.6086,-234.619 L 10.7145,-234.064 L 10.75,-233.5 L 10.75,-198.5
 L 10.7145,-197.936 L 10.6086,-197.381 L 10.434,-196.843 L 10.1934,-196.332 L 9.89056,-195.855 L 9.53035,-195.42
 L 9.11839,-195.033 L 8.66121,-194.701 L 8.166,-194.428 L 7.64056,-194.22 L 7.0932,-194.08 L 6.53255,-194.009
 z
M 4.21844,-228.544 L 4.52254,-228.622 L 4.81444,-228.738 L 5.08955,-228.889 L 5.34355,-229.074 L 5.57242,-229.289
 L 5.77254,-229.531 L 5.94077,-229.796 L 6.07443,-230.08 L 6.17145,-230.378 L 6.23029,-230.687 L 6.25,-231
 L 6.23029,-231.313 L 6.17145,-231.622 L 6.07443,-231.92 L 5.94077,-232.204 L 5.77254,-232.469 L 5.57242,-232.711
 L 5.34355,-232.926 L 5.08955,-233.111 L 4.81444,-233.262 L 4.52254,-233.378 L 4.21844,-233.456 L 3.90697,-233.495
 L 3.59302,-233.495 L 3.28154,-233.456 L 2.97745,-233.378 L 2.68555,-233.262 L 2.41043,-233.111 L 2.15643,-232.926
 L 1.92757,-232.711 L 1.72745,-232.469 L 1.55922,-232.204 L 1.42555,-231.92 L 1.32854,-231.622 L 1.2697,-231.313
 L 1.25,-231 L 1.2697,-230.687 L 1.32854,-230.378 L 1.42555,-230.08 L 1.55922,-229.796 L 1.72745,-229.531
 L 1.92757,-229.289 L 2.15643,-229.074 L 2.41043,-228.889 L 2.68555,-228.738 L 2.97745,-228.622 L 3.28154,-228.544
 L 3.59302,-228.505 L 3.90697,-228.505 z
M 3.65581,-229.503 L 3.46892,-229.527 L 3.28647,-229.573 L 3.11133,-229.643 L 2.94626,-229.734 L 2.79385,-229.844
 L 2.65654,-229.973 L 2.53647,-230.118 L 2.43553,-230.277 L 2.35533,-230.448 L 2.29712,-230.627 L 2.26183,-230.812
 L 2.25,-231 L 2.26183,-231.188 L 2.29712,-231.373 L 2.35533,-231.552 L 2.43553,-231.723 L 2.53647,-231.882
 L 2.65654,-232.027 L 2.79385,-232.156 L 2.94626,-232.266 L 3.11133,-232.357 L 3.28647,-232.427 L 3.46892,-232.473
 L 3.65581,-232.497 L 3.84418,-232.497 L 4.03107,-232.473 L 4.21352,-232.427 L 4.38866,-232.357 L 4.55373,-232.266
 L 4.70613,-232.156 L 4.84344,-232.027 L 4.96352,-231.882 L 5.06445,-231.723 L 5.14465,-231.552 L 5.20287,-231.373
 L 5.23816,-231.188 L 5.25,-231 L 5.23816,-230.812 L 5.20287,-230.627 L 5.14465,-230.448 L 5.06445,-230.277
 L 4.96352,-230.118 L 4.84344,-229.973 L 4.70613,-229.844 L 4.55373,-229.734 L 4.38866,-229.643 L 4.21352,-229.573
 L 4.03107,-229.527 L 3.84418,-229.503 z
M -3.84418,-199.503 L -4.03107,-199.527 L -4.21352,-199.573 L -4.38866,-199.643 L -4.55373,-199.734 L -4.70613,-199.844
 L -4.84344,-199.973 L -4.96352,-200.118 L -5.06445,-200.277 L -5.14465,-200.448 L -5.20287,-200.627 L -5.23816,-200.812
 L -5.25,-201 L -5.23816,-201.188 L -5.20287,-201.373 L -5.14465,-201.552 L -5.06445,-201.723 L -4.96352,-201.882
 L -4.84344,-202.027 L -4.70613,-202.156 L -4.55373,-202.266 L -4.38866,-202.357 L -4.21352,-202.427 L -4.03107,-202.473
 L -3.84418,-202.497 L -3.65581,-202.497 L -3.46892,-202.473 L -3.28647,-202.427 L -3.11133,-202.357 L -2.94626,-202.266
 L -2.79385,-202.156 L -2.65654,-202.027 L -2.53647,-201.882 L -2.43553,-201.723 L -2.35533,-201.552 L -2.29712,-201.373
 L -2.26183,-201.188 L -2.25,-201 L -2.26183,-200.812 L -2.29712,-200.627 L -2.35533,-200.448 L -2.43553,-200.277
 L -2.53647,-200.118 L -2.65654,-199.973 L -2.79385,-199.844 L -2.94626,-199.734 L -3.11133,-199.643 L -3.28647,-199.573
 L -3.46892,-199.527 L -3.65581,-199.503 z
M 7.1869,-139.589 L 7.79507,-139.745 L 8.37889,-139.976 L 8.92912,-140.278 L 9.43712,-140.647 L 9.89484,-141.077
 L 10.2951,-141.561 L 10.6315,-142.091 L 10.8989,-142.659 L 11.0929,-143.257 L 11.2106,-143.873 L 11.25,-144.5
 L 11.25,-179.5 L 11.2106,-180.127 L 11.0929,-180.743 L 10.8989,-181.341 L 10.6315,-181.909 L 10.2951,-182.439
 L 9.89484,-182.923 L 9.43712,-183.353 L 8.92912,-183.722 L 8.37889,-184.024 L 7.79507,-184.255 L 7.1869,-184.411
 L 6.56395,-184.49 L -6.56395,-184.49 L -7.1869,-184.411 L -7.79507,-184.255 L -8.37889,-184.024 L -8.92912,-183.722
 L -9.43712,-183.353 L -9.89484,-182.923 L -10.2951,-182.439 L -10.6315,-181.909 L -10.8989,-181.341 L -11.0929,-180.743
 L -11.2106,-180.127 L -11.25,-179.5 L -11.25,-144.5 L -11.2106,-143.873 L -11.0929,-143.257 L -10.8989,-142.659
 L -10.6315,-142.091 L -10.2951,-141.561 L -9.89484,-141.077 L -9.43712,-140.647 L -8.92912,-140.278 L -8.37889,-139.976
 L -7.79507,-139.745 L -7.1869,-139.589 L -6.56395,-139.51 L 6.56395,-139.51 z
M -0.285675,-140.486 L -0.0628662,-140.647 L 0.394836,-141.077 L 0.795074,-141.561 L 1.13153,-142.091 L 1.39888,-142.659
 L 1.59291,-143.257 L 1.71057,-143.873 L 1.75,-144.5 L 1.75,-147.5 L 1.71057,-148.127 L 1.59291,-148.743
 L 1.39888,-149.341 L 1.13153,-149.909 L 0.795074,-150.439 L 0.394836,-150.923 L -0.0628662,-151.353 L -0.570862,-151.722
 L -1.12109,-152.024 L -1.70491,-152.255 L -2.31308,-152.411 L -2.93604,-152.49 L -6.56395,-152.49 L -7.1869,-152.411
 L -7.79507,-152.255 L -8.37889,-152.024 L -8.92912,-151.722 L -9.43712,-151.353 L -9.89484,-150.923 L -10.2724,-150.466
 L -10.2724,-179.5 L -10.2407,-180.004 L -10.146,-180.5 L -9.98991,-180.981 L -9.77484,-181.438 L -9.50417,-181.864
 L -9.18219,-182.254 L -8.81395,-182.599 L -8.40529,-182.896 L -7.96265,-183.14 L -7.49298,-183.326 L -7.00371,-183.451
 L -6.50256,-183.514 L 0.285675,-183.514 L 0.0628662,-183.353 L -0.394836,-182.923 L -0.795074,-182.439 L -1.13153,-181.909
 L -1.39888,-181.341 L -1.59291,-180.743 L -1.71057,-180.127 L -1.75,-179.5 L -1.75,-176.5 L -1.71057,-175.873
 L -1.59291,-175.257 L -1.39888,-174.659 L -1.13153,-174.091 L -0.795074,-173.561 L -0.394836,-173.077 L 0.0628662,-172.647
 L 0.570862,-172.278 L 1.12109,-171.976 L 1.70491,-171.745 L 2.31308,-171.589 L 2.93604,-171.51 L 6.56395,-171.51
 L 7.1869,-171.589 L 7.79507,-171.745 L 8.37889,-171.976 L 8.92912,-172.278 L 9.43712,-172.647 L 9.89484,-173.077
 L 10.2724,-173.534 L 10.2724,-144.5 L 10.2407,-143.996 L 10.146,-143.5 L 9.98991,-143.019 L 9.77484,-142.562
 L 9.50417,-142.136 L 9.18219,-141.746 L 8.81395,-141.401 L 8.40529,-141.104 L 7.96265,-140.86 L 7.49298,-140.674
 L 7.00371,-140.549 L 6.50256,-140.486 z
M 3.65581,-175.503 L 3.46892,-175.527 L 3.28647,-175.573 L 3.11133,-175.643 L 2.94626,-175.734 L 2.79385,-175.844
 L 2.65654,-175.973 L 2.53647,-176.118 L 2.43553,-176.277 L 2.35533,-176.448 L 2.29712,-176.627 L 2.26183,-176.812
 L 2.25,-177 L 2.26183,-177.188 L 2.29712,-177.373 L 2.35533,-177.552 L 2.43553,-177.723 L 2.53647,-177.882
 L 2.65654,-178.027 L 2.79385,-178.156 L 2.94626,-178.266 L 3.11133,-178.357 L 3.28647,-178.427 L 3.46892,-178.473
 L 3.65581,-178.497 L 3.84418,-178.497 L 4.03107,-178.473 L 4.21352,-178.427 L 4.38866,-178.357 L 4.55373,-178.266
 L 4.70613,-178.156 L 4.84344,-178.027 L 4.96352,-177.882 L 5.06445,-177.723 L 5.14465,-177.552 L 5.20287,-177.373
 L 5.23816,-177.188 L 5.25,-177 L 5.23816,-176.812 L 5.20287,-176.627 L 5.14465,-176.448 L 5.06445,-176.277
 L 4.96352,-176.118 L 4.84344,-175.973 L 4.70613,-175.844 L 4.55373,-175.734 L 4.38866,-175.643 L 4.21352,-175.573
 L 4.03107,-175.527 L 3.84418,-175.503 z
M -3.84418,-145.503 L -4.03107,-145.527 L -4.21352,-145.573 L -4.38866,-145.643 L -4.55373,-145.734 L -4.70613,-145.844
 L -4.84344,-145.973 L -4.96352,-146.118 L -5.06445,-146.277 L -5.14465,-146.448 L -5.20287,-146.627 L -5.23816,-146.812
 L -5.25,-147 L -5.23816,-147.188 L -5.20287,-147.373 L -5.14465,-147.552 L -5.06445,-147.723 L -4.96352,-147.882
 L -4.84344,-148.027 L -4.70613,-148.156 L -4.55373,-148.266 L -4.38866,-148.357 L -4.21352,-148.427 L -4.03107,-148.473
 L -3.84418,-148.497 L -3.65581,-148.497 L -3.46892,-148.473 L -3.28647,-148.427 L -3.11133,-148.357 L -2.94626,-148.266
 L -2.79385,-148.156 L -2.65654,-148.027 L -2.53647,-147.882 L -2.43553,-147.723 L -2.35533,-147.552 L -2.29712,-147.373
 L -2.26183,-147.188 L -2.25,-147 L -2.26183,-146.812 L -2.29712,-146.627 L -2.35533,-146.448 L -2.43553,-146.277
 L -2.53647,-146.118 L -2.65654,-145.973 L -2.79385,-145.844 L -2.94626,-145.734 L -3.11133,-145.643 L -3.28647,-145.573
 L -3.46892,-145.527 L -3.65581,-145.503 z
M 7.1869,-85.5886 L 7.79507,-85.7447 L 8.37889,-85.9759 L 8.92912,-86.2784 L 9.43712,-86.6474 L 9.89484,-87.0773
 L 10.2951,-87.5611 L 10.6315,-88.0912 L 10.8989,-88.6594 L 11.0929,-89.2566 L 11.2106,-89.8733 L 11.25,-90.5
 L 11.25,-125.5 L 11.2106,-126.127 L 11.0929,-126.743 L 10.8989,-127.341 L 10.6315,-127.909 L 10.2951,-128.439
 L 9.89484,-128.923 L 9.43712,-129.353 L 8.92912,-129.722 L 8.37889,-130.024 L 7.79507,-130.255 L 7.1869,-130.411
 L 6.56395,-130.49 L -6.56395,-130.49 L -7.1869,-130.411 L -7.79507,-130.255 L -8.37889,-130.024 L -8.92912,-129.722
 L -9.43712,-129.353 L -9.89484,-128.923 L -10.2951,-128.439 L -10.6315,-127.909 L -10.8989,-127.341 L -11.0929,-126.743
 L -11.2106,-126.127 L -11.25,-125.5 L -11.25,-90.5 L -11.2106,-89.8733 L -11.0929,-89.2566 L -10.8989,-88.6594
 L -10.6315,-88.0912 L -10.2951,-87.5611 L -9.89484,-87.0773 L -9.43712,-86.6474 L -8.92912,-86.2784 L -8.37889,-85.9759
 L -7.79507,-85.7447 L -7.1869,-85.5886 L -6.56395,-85.5099 L 6.56395,-85.5099 z
M 3.59929,-120.605 L 3.30028,-120.643 L 3.00835,-120.717 L 2.72812,-120.828 L 2.464,-120.974 L 2.22017,-121.151
 L 2.00047,-121.357 L 1.80835,-121.589 L 1.64685,-121.844 L 1.51852,-122.117 L 1.4254,-122.403 L 1.36891,-122.699
 L 1.34999,-123 L 1.36891,-123.301 L 1.4254,-123.597 L 1.51852,-123.883 L 1.64685,-124.156 L 1.80835,-124.411
 L 2.00047,-124.643 L 2.22017,-124.849 L 2.464,-125.026 L 2.72812,-125.172 L 3.00835,-125.283 L 3.30028,-125.357
 L 3.59929,-125.395 L 3.9007,-125.395 L 4.19971,-125.357 L 4.49164,-125.283 L 4.77187,-125.172 L 5.03598,-125.026
 L 5.27982,-124.849 L 5.49951,-124.643 L 5.69164,-124.411 L 5.85313,-124.156 L 5.98146,-123.883 L 6.07458,-123.597
 L 6.13107,-123.301 L 6.14999,-123 L 6.13107,-122.699 L 6.07458,-122.403 L 5.98146,-122.117 L 5.85313,-121.844
 L 5.69164,-121.589 L 5.49951,-121.357 L 5.27982,-121.151 L 5.03598,-120.974 L 4.77187,-120.828 L 4.49164,-120.717
 L 4.19971,-120.643 L 3.9007,-120.605 z
M -3.84418,-121.503 L -4.03107,-121.527 L -4.21352,-121.573 L -4.38866,-121.643 L -4.55373,-121.734 L -4.70613,-121.844
 L -4.84344,-121.973 L -4.96352,-122.118 L -5.06445,-122.277 L -5.14465,-122.448 L -5.20287,-122.627 L -5.23816,-122.812
 L -5.25,-123 L -5.23816,-123.188 L -5.20287,-123.373 L -5.14465,-123.552 L -5.06445,-123.723 L -4.96352,-123.882
 L -4.84344,-124.027 L -4.70613,-124.156 L -4.55373,-124.266 L -4.38866,-124.357 L -4.21352,-124.427 L -4.03107,-124.473
 L -3.84418,-124.497 L -3.65581,-124.497 L -3.46892,-124.473 L -3.28647,-124.427 L -3.11133,-124.357 L -2.94626,-124.266
 L -2.79385,-124.156 L -2.65654,-124.027 L -2.53647,-123.882 L -2.43553,-123.723 L -2.35533,-123.552 L -2.29712,-123.373
 L -2.26183,-123.188 L -2.25,-123 L -2.26183,-122.812 L -2.29712,-122.627 L -2.35533,-122.448 L -2.43553,-122.277
 L -2.53647,-122.118 L -2.65654,-121.973 L -2.79385,-121.844 L -2.94626,-121.734 L -3.11133,-121.643 L -3.28647,-121.573
 L -3.46892,-121.527 L -3.65581,-121.503 z
M -3.9007,-90.6047 L -4.19971,-90.6425 L -4.49164,-90.7175 L -4.77187,-90.8284 L -5.03598,-90.9736 L -5.27982,-91.1508
 L -5.49951,-91.3571 L -5.69164,-91.5893 L -5.85313,-91.8438 L -5.98146,-92.1165 L -6.07458,-92.4032 L -6.13107,-92.6992
 L -6.14999,-93 L -6.13107,-93.3008 L -6.07458,-93.5969 L -5.98146,-93.8835 L -5.85313,-94.1562 L -5.69164,-94.4107
 L -5.49951,-94.6429 L -5.27982,-94.8492 L -5.03598,-95.0264 L -4.77187,-95.1716 L -4.49164,-95.2825 L -4.19971,-95.3575
 L -3.9007,-95.3953 L -3.59929,-95.3953 L -3.30028,-95.3575 L -3.00835,-95.2825 L -2.72812,-95.1716 L -2.464,-95.0264
 L -2.22017,-94.8492 L -2.00047,-94.6429 L -1.80835,-94.4107 L -1.64685,-94.1562 L -1.51852,-93.8835 L -1.4254,-93.5969
 L -1.36891,-93.3008 L -1.34999,-93 L -1.36891,-92.6992 L -1.4254,-92.4032 L -1.51852,-92.1165 L -1.64685,-91.8438
 L -1.80835,-91.5893 L -2.00047,-91.3571 L -2.22017,-91.1508 L -2.464,-90.9736 L -2.72812,-90.8284 L -3.00835,-90.7175
 L -3.30028,-90.6425 L -3.59929,-90.6047 z
M 3.65581,-91.503 L 3.46892,-91.5266 L 3.28647,-91.5734 L 3.11133,-91.6428 L 2.94626,-91.7335 L 2.79385,-91.8442
 L 2.65654,-91.9732 L 2.53647,-92.1183 L 2.43553,-92.2774 L 2.35533,-92.4478 L 2.29712,-92.627 L 2.26183,-92.812
 L 2.25,-93 L 2.26183,-93.188 L 2.29712,-93.373 L 2.35533,-93.5522 L 2.43553,-93.7226 L 2.53647,-93.8817
 L 2.65654,-94.0268 L 2.79385,-94.1558 L 2.94626,-94.2665 L 3.11133,-94.3573 L 3.28647,-94.4266 L 3.46892,-94.4734
 L 3.65581,-94.4971 L 3.84418,-94.4971 L 4.03107,-94.4734 L 4.21352,-94.4266 L 4.38866,-94.3573 L 4.55373,-94.2665
 L 4.70613,-94.1558 L 4.84344,-94.0268 L 4.96352,-93.8817 L 5.06445,-93.7226 L 5.14465,-93.5522 L 5.20287,-93.373
 L 5.23816,-93.188 L 5.25,-93 L 5.23816,-92.812 L 5.20287,-92.627 L 5.14465,-92.4478 L 5.06445,-92.2774
 L 4.96352,-92.1183 L 4.84344,-91.9732 L 4.70613,-91.8442 L 4.55373,-91.7335 L 4.38866,-91.6428 L 4.21352,-91.5734
 L 4.03107,-91.5266 L 3.84418,-91.503 z
" stroke="black" fill="lightgray" stroke-width="0.5"/>
</svg>
