<?xml version="1.0" standalone="no"?>
<!DOCTYPE svg PUBLIC "-//W3C//DTD SVG 1.1//EN" "http://www.w3.org/Graphics/SVG/1.1/DTD/svg11.dtd">
<svg width="44mm" height="374mm" viewBox="-22 -352 44 374" xmlns="http://www.w3.org/2000/svg" version="1.1">
<title>OpenSCAD Model</title>
<path d="
M 4.02869,-308.881 L 6.64386,-309.552 L 9.15425,-310.546 L 11.5203,-311.847 L 13.7046,-313.434 L 15.6728,-315.282
 L 17.3939,-317.363 L 18.8406,-319.642 L 19.9902,-322.085 L 20.8245,-324.653 L 21.3305,-327.305 L 21.5,-330
 L 21.3305,-332.695 L 20.8245,-335.347 L 19.9902,-337.915 L 18.8406,-340.358 L 17.3939,-342.637 L 15.6728,-344.718
 L 13.7046,-346.566 L 11.5203,-348.153 L 9.15425,-349.454 L 6.64386,-350.448 L 4.02869,-351.119 L 1.34999,-351.458
 L -1.34999,-351.458 L -4.02869,-351.119 L -6.64386,-350.448 L -9.15425,-349.454 L -11.5203,-348.153 L -13.7046,-346.566
 L -15.6728,-344.718 L -17.3939,-342.637 L -18.8406,-340.358 L -19.9902,-337.915 L -20.8245,-335.347 L -21.3305,-332.695
 L -21.5,-330 L -21.3305,-327.305 L -20.8245,-324.653 L -19.9902,-322.085 L -18.8406,-319.642 L -17.3939,-317.363
 L -15.6728,-315.282 L -13.7046,-313.434 L -11.5203,-311.847 L -9.15425,-310.546 L -6.64386,-309.552 L -4.02869,-308.881
 L -1.34999,-308.542 L 1.34999,-308.542 z
M -0.18837,-342.006 L -0.562134,-342.053 L -0.927048,-342.147 L -1.27733,-342.286 L -1.60747,-342.467 L -1.91226,-342.688
 L -2.1869,-342.946 L -2.42705,-343.237 L -2.62891,-343.555 L -2.78932,-343.896 L -2.90575,-344.254 L -2.97633,-344.624
 L -3,-345 L -2.97633,-345.376 L -2.90575,-345.746 L -2.78932,-346.104 L -2.62891,-346.445 L -2.42705,-346.763
 L -2.1869,-347.054 L -1.91226,-347.312 L -1.60747,-347.533 L -1.27733,-347.714 L -0.927048,-347.853 L -0.562134,-347.947
 L -0.18837,-347.994 L 0.18837,-347.994 L 0.562134,-347.947 L 0.927048,-347.853 L 1.27733,-347.714 L 1.60747,-347.533
 L 1.91226,-347.312 L 2.1869,-347.054 L 2.42705,-346.763 L 2.62891,-346.445 L 2.78932,-346.104 L 2.90575,-345.746
 L 2.97633,-345.376 L 3,-345 L 2.97633,-344.624 L 2.90575,-344.254 L 2.78932,-343.896 L 2.62891,-343.555
 L 2.42705,-343.237 L 2.1869,-342.946 L 1.91226,-342.688 L 1.60747,-342.467 L 1.27733,-342.286 L 0.927048,-342.147
 L 0.562134,-342.053 L 0.18837,-342.006 z
M -10.7954,-337.613 L -11.1691,-337.66 L -11.534,-337.754 L -11.8843,-337.893 L -12.2145,-338.074 L -12.5193,-338.295
 L -12.7939,-338.553 L -13.034,-338.844 L -13.2359,-339.162 L -13.3963,-339.503 L -13.5127,-339.861 L -13.5833,-340.231
 L -13.607,-340.607 L -13.5833,-340.983 L -13.5127,-341.353 L -13.3963,-341.711 L -13.2359,-342.052 L -13.034,-342.37
 L -12.7939,-342.661 L -12.5193,-342.919 L -12.2145,-343.14 L -11.8843,-343.321 L -11.534,-343.46 L -11.1691,-343.554
 L -10.7954,-343.601 L -10.4186,-343.601 L -10.0448,-343.554 L -9.67995,-343.46 L -9.32965,-343.321 L -8.99951,-343.14
 L -8.69472,-342.919 L -8.42009,-342.661 L -8.17995,-342.37 L -7.97807,-342.052 L -7.81766,-341.711 L -7.70125,-341.353
 L -7.63065,-340.983 L -7.60699,-340.607 L -7.63065,-340.231 L -7.70125,-339.861 L -7.81766,-339.503 L -7.97807,-339.162
 L -8.17995,-338.844 L -8.42009,-338.553 L -8.69472,-338.295 L -8.99951,-338.074 L -9.32965,-337.893 L -9.67995,-337.754
 L -10.0448,-337.66 L -10.4186,-337.613 z
M 10.4186,-337.613 L 10.0448,-337.66 L 9.67995,-337.754 L 9.32965,-337.893 L 8.99951,-338.074 L 8.69472,-338.295
 L 8.42009,-338.553 L 8.17995,-338.844 L 7.97807,-339.162 L 7.81766,-339.503 L 7.70125,-339.861 L 7.63065,-340.231
 L 7.60699,-340.607 L 7.63065,-340.983 L 7.70125,-341.353 L 7.81766,-341.711 L 7.97807,-342.052 L 8.17995,-342.37
 L 8.42009,-342.661 L 8.69472,-342.919 L 8.99951,-343.14 L 9.32965,-343.321 L 9.67995,-343.46 L 10.0448,-343.554
 L 10.4186,-343.601 L 10.7954,-343.601 L 11.1691,-343.554 L 11.534,-343.46 L 11.8843,-343.321 L 12.2145,-343.14
 L 12.5193,-342.919 L 12.7939,-342.661 L 13.034,-342.37 L 13.2359,-342.052 L 13.3963,-341.711 L 13.5127,-341.353
 L 13.5833,-340.983 L 13.607,-340.607 L 13.5833,-340.231 L 13.5127,-339.861 L 13.3963,-339.503 L 13.2359,-339.162
 L 13.034,-338.844 L 12.7939,-338.553 L 12.5193,-338.295 L 12.2145,-338.074 L 11.8843,-337.893 L 11.534,-337.754
 L 11.1691,-337.66 L 10.7954,-337.613 z
M -0.0941772,-336.003 L -0.281067,-336.027 L -0.463516,-336.073 L -0.638657,-336.143 L -0.803726,-336.234 L -0.956131,-336.344
 L -1.09344,-336.473 L -1.21352,-336.618 L -1.31445,-336.777 L -1.39465,-336.948 L -1.45287,-337.127 L -1.48816,-337.312
 L -1.5,-337.5 L -1.48816,-337.688 L -1.45287,-337.873 L -1.39465,-338.052 L -1.31445,-338.223 L -1.21352,-338.382
 L -1.09344,-338.527 L -0.956131,-338.656 L -0.803726,-338.766 L -0.638657,-338.857 L -0.463516,-338.927 L -0.281067,-338.973
 L -0.0941772,-338.997 L 0.0941772,-338.997 L 0.281067,-338.973 L 0.463516,-338.927 L 0.638657,-338.857 L 0.803726,-338.766
 L 0.956131,-338.656 L 1.09344,-338.527 L 1.21352,-338.382 L 1.31445,-338.223 L 1.39465,-338.052 L 1.45287,-337.873
 L 1.48816,-337.688 L 1.5,-337.5 L 1.48816,-337.312 L 1.45287,-337.127 L 1.39465,-336.948 L 1.31445,-336.777
 L 1.21352,-336.618 L 1.09344,-336.473 L 0.956131,-336.344 L 0.803726,-336.234 L 0.638657,-336.143 L 0.463516,-336.073
 L 0.281067,-336.027 L 0.0941772,-336.003 z
M 14.8116,-327.006 L 14.4379,-327.053 L 14.0729,-327.147 L 13.7227,-327.286 L 13.3925,-327.467 L 13.0877,-327.688
 L 12.8131,-327.946 L 12.5729,-328.237 L 12.3711,-328.555 L 12.2107,-328.896 L 12.0942,-329.254 L 12.0237,-329.624
 L 12,-330 L 12.0237,-330.376 L 12.0942,-330.746 L 12.2107,-331.104 L 12.3711,-331.445 L 12.5729,-331.763
 L 12.8131,-332.054 L 13.0877,-332.312 L 13.3925,-332.533 L 13.7227,-332.714 L 14.0729,-332.853 L 14.4379,-332.947
 L 14.8116,-332.994 L 15.1884,-332.994 L 15.5621,-332.947 L 15.927,-332.853 L 16.2773,-332.714 L 16.6075,-332.533
 L 16.9123,-332.312 L 17.1869,-332.054 L 17.427,-331.763 L 17.6289,-331.445 L 17.7893,-331.104 L 17.9057,-330.746
 L 17.9763,-330.376 L 18,-330 L 17.9763,-329.624 L 17.9057,-329.254 L 17.7893,-328.896 L 17.6289,-328.555
 L 17.427,-328.237 L 17.1869,-327.946 L 16.9123,-327.688 L 16.6075,-327.467 L 16.2773,-327.286 L 15.927,-327.147
 L 15.5621,-327.053 L 15.1884,-327.006 z
M -0.18837,-327.006 L -0.562134,-327.053 L -0.927048,-327.147 L -1.27733,-327.286 L -1.60747,-327.467 L -1.91226,-327.688
 L -2.1869,-327.946 L -2.42705,-328.237 L -2.62891,-328.555 L -2.78932,-328.896 L -2.90575,-329.254 L -2.97633,-329.624
 L -3,-330 L -2.97633,-330.376 L -2.90575,-330.746 L -2.78932,-331.104 L -2.62891,-331.445 L -2.42705,-331.763
 L -2.1869,-332.054 L -1.91226,-332.312 L -1.60747,-332.533 L -1.27733,-332.714 L -0.927048,-332.853 L -0.562134,-332.947
 L -0.18837,-332.994 L 0.18837,-332.994 L 0.562134,-332.947 L 0.927048,-332.853 L 1.27733,-332.714 L 1.60747,-332.533
 L 1.91226,-332.312 L 2.1869,-332.054 L 2.42705,-331.763 L 2.62891,-331.445 L 2.78932,-331.104 L 2.90575,-330.746
 L 2.97633,-330.376 L 3,-330 L 2.97633,-329.624 L 2.90575,-329.254 L 2.78932,-328.896 L 2.62891,-328.555
 L 2.42705,-328.237 L 2.1869,-327.946 L 1.91226,-327.688 L 1.60747,-327.467 L 1.27733,-327.286 L 0.927048,-327.147
 L 0.562134,-327.053 L 0.18837,-327.006 z
M -15.1884,-327.006 L -15.5621,-327.053 L -15.927,-327.147 L -16.2773,-327.286 L -16.6075,-327.467 L -16.9123,-327.688
 L -17.1869,-327.946 L -17.427,-328.237 L -17.6289,-328.555 L -17.7893,-328.896 L -17.9057,-329.254 L -17.9763,-329.624
 L -18,-330 L -17.9763,-330.376 L -17.9057,-330.746 L -17.7893,-331.104 L -17.6289,-331.445 L -17.427,-331.763
 L -17.1869,-332.054 L -16.9123,-332.312 L -16.6075,-332.533 L -16.2773,-332.714 L -15.927,-332.853 L -15.5621,-332.947
 L -15.1884,-332.994 L -14.8116,-332.994 L -14.4379,-332.947 L -14.0729,-332.853 L -13.7227,-332.714 L -13.3925,-332.533
 L -13.0877,-332.312 L -12.8131,-332.054 L -12.5729,-331.763 L -12.3711,-331.445 L -12.2107,-331.104 L -12.0942,-330.746
 L -12.0237,-330.376 L -12,-330 L -12.0237,-329.624 L -12.0942,-329.254 L -12.2107,-328.896 L -12.3711,-328.555
 L -12.5729,-328.237 L -12.8131,-327.946 L -13.0877,-327.688 L -13.3925,-327.467 L -13.7227,-327.286 L -14.0729,-327.147
 L -14.4379,-327.053 L -14.8116,-327.006 z
M -8.09418,-328.503 L -8.28107,-328.527 L -8.46352,-328.573 L -8.63866,-328.643 L -8.80373,-328.734 L -8.95613,-328.844
 L -9.09344,-328.973 L -9.21352,-329.118 L -9.31445,-329.277 L -9.39465,-329.448 L -9.45287,-329.627 L -9.48816,-329.812
 L -9.5,-330 L -9.48816,-330.188 L -9.45287,-330.373 L -9.39465,-330.552 L -9.31445,-330.723 L -9.21352,-330.882
 L -9.09344,-331.027 L -8.95613,-331.156 L -8.80373,-331.266 L -8.63866,-331.357 L -8.46352,-331.427 L -8.28107,-331.473
 L -8.09418,-331.497 L -7.40581,-331.497 L -7.21892,-331.473 L -7.03647,-331.427 L -6.86133,-331.357 L -6.69626,-331.266
 L -6.54385,-331.156 L -6.40654,-331.027 L -6.28647,-330.882 L -6.18553,-330.723 L -6.10533,-330.552 L -6.04712,-330.373
 L -6.01183,-330.188 L -6,-330 L -6.01183,-329.812 L -6.04712,-329.627 L -6.10533,-329.448 L -6.18553,-329.277
 L -6.28647,-329.118 L -6.40654,-328.973 L -6.54385,-328.844 L -6.69626,-328.734 L -6.86133,-328.643 L -7.03647,-328.573
 L -7.21892,-328.527 L -7.40581,-328.503 z
M 7.40581,-328.503 L 7.21892,-328.527 L 7.03647,-328.573 L 6.86133,-328.643 L 6.69626,-328.734 L 6.54385,-328.844
 L 6.40654,-328.973 L 6.28647,-329.118 L 6.18553,-329.277 L 6.10533,-329.448 L 6.04712,-329.627 L 6.01183,-329.812
 L 6,-330 L 6.01183,-330.188 L 6.04712,-330.373 L 6.10533,-330.552 L 6.18553,-330.723 L 6.28647,-330.882
 L 6.40654,-331.027 L 6.54385,-331.156 L 6.69626,-331.266 L 6.86133,-331.357 L 7.03647,-331.427 L 7.21892,-331.473
 L 7.40581,-331.497 L 8.09418,-331.497 L 8.28107,-331.473 L 8.46352,-331.427 L 8.63866,-331.357 L 8.80373,-331.266
 L 8.95613,-331.156 L 9.09344,-331.027 L 9.21352,-330.882 L 9.31445,-330.723 L 9.39465,-330.552 L 9.45287,-330.373
 L 9.48816,-330.188 L 9.5,-330 L 9.48816,-329.812 L 9.45287,-329.627 L 9.39465,-329.448 L 9.31445,-329.277
 L 9.21352,-329.118 L 9.09344,-328.973 L 8.95613,-328.844 L 8.80373,-328.734 L 8.63866,-328.643 L 8.46352,-328.573
 L 8.28107,-328.527 L 8.09418,-328.503 z
M -0.0941772,-321.003 L -0.281067,-321.027 L -0.463516,-321.073 L -0.638657,-321.143 L -0.803726,-321.234 L -0.956131,-321.344
 L -1.09344,-321.473 L -1.21352,-321.618 L -1.31445,-321.777 L -1.39465,-321.948 L -1.45287,-322.127 L -1.48816,-322.312
 L -1.5,-322.5 L -1.48816,-322.688 L -1.45287,-322.873 L -1.39465,-323.052 L -1.31445,-323.223 L -1.21352,-323.382
 L -1.09344,-323.527 L -0.956131,-323.656 L -0.803726,-323.766 L -0.638657,-323.857 L -0.463516,-323.927 L -0.281067,-323.973
 L -0.0941772,-323.997 L 0.0941772,-323.997 L 0.281067,-323.973 L 0.463516,-323.927 L 0.638657,-323.857 L 0.803726,-323.766
 L 0.956131,-323.656 L 1.09344,-323.527 L 1.21352,-323.382 L 1.31445,-323.223 L 1.39465,-323.052 L 1.45287,-322.873
 L 1.48816,-322.688 L 1.5,-322.5 L 1.48816,-322.312 L 1.45287,-322.127 L 1.39465,-321.948 L 1.31445,-321.777
 L 1.21352,-321.618 L 1.09344,-321.473 L 0.956131,-321.344 L 0.803726,-321.234 L 0.638657,-321.143 L 0.463516,-321.073
 L 0.281067,-321.027 L 0.0941772,-321.003 z
M 10.4186,-316.399 L 10.0448,-316.446 L 9.67995,-316.54 L 9.32965,-316.679 L 8.99951,-316.86 L 8.69472,-317.081
 L 8.42009,-317.339 L 8.17995,-317.63 L 7.97807,-317.948 L 7.81766,-318.289 L 7.70125,-318.647 L 7.63065,-319.017
 L 7.60699,-319.393 L 7.63065,-319.769 L 7.70125,-320.139 L 7.81766,-320.497 L 7.97807,-320.838 L 8.17995,-321.156
 L 8.42009,-321.447 L 8.69472,-321.705 L 8.99951,-321.926 L 9.32965,-322.107 L 9.67995,-322.246 L 10.0448,-322.34
 L 10.4186,-322.387 L 10.7954,-322.387 L 11.1691,-322.34 L 11.534,-322.246 L 11.8843,-322.107 L 12.2145,-321.926
 L 12.5193,-321.705 L 12.7939,-321.447 L 13.034,-321.156 L 13.2359,-320.838 L 13.3963,-320.497 L 13.5127,-320.139
 L 13.5833,-319.769 L 13.607,-319.393 L 13.5833,-319.017 L 13.5127,-318.647 L 13.3963,-318.289 L 13.2359,-317.948
 L 13.034,-317.63 L 12.7939,-317.339 L 12.5193,-317.081 L 12.2145,-316.86 L 11.8843,-316.679 L 11.534,-316.54
 L 11.1691,-316.446 L 10.7954,-316.399 z
M -10.7954,-316.399 L -11.1691,-316.446 L -11.534,-316.54 L -11.8843,-316.679 L -12.2145,-316.86 L -12.5193,-317.081
 L -12.7939,-317.339 L -13.034,-317.63 L -13.2359,-317.948 L -13.3963,-318.289 L -13.5127,-318.647 L -13.5833,-319.017
 L -13.607,-319.393 L -13.5833,-319.769 L -13.5127,-320.139 L -13.3963,-320.497 L -13.2359,-320.838 L -13.034,-321.156
 L -12.7939,-321.447 L -12.5193,-321.705 L -12.2145,-321.926 L -11.8843,-322.107 L -11.534,-322.246 L -11.1691,-322.34
 L -10.7954,-322.387 L -10.4186,-322.387 L -10.0448,-322.34 L -9.67995,-322.246 L -9.32965,-322.107 L -8.99951,-321.926
 L -8.69472,-321.705 L -8.42009,-321.447 L -8.17995,-321.156 L -7.97807,-320.838 L -7.81766,-320.497 L -7.70125,-320.139
 L -7.63065,-319.769 L -7.60699,-319.393 L -7.63065,-319.017 L -7.70125,-318.647 L -7.81766,-318.289 L -7.97807,-317.948
 L -8.17995,-317.63 L -8.42009,-317.339 L -8.69472,-317.081 L -8.99951,-316.86 L -9.32965,-316.679 L -9.67995,-316.54
 L -10.0448,-316.446 L -10.4186,-316.399 z
M -0.18837,-312.006 L -0.562134,-312.053 L -0.927048,-312.147 L -1.27733,-312.286 L -1.60747,-312.467 L -1.91226,-312.688
 L -2.1869,-312.946 L -2.42705,-313.237 L -2.62891,-313.555 L -2.78932,-313.896 L -2.90575,-314.254 L -2.97633,-314.624
 L -3,-315 L -2.97633,-315.376 L -2.90575,-315.746 L -2.78932,-316.104 L -2.62891,-316.445 L -2.42705,-316.763
 L -2.1869,-317.054 L -1.91226,-317.312 L -1.60747,-317.533 L -1.27733,-317.714 L -0.927048,-317.853 L -0.562134,-317.947
 L -0.18837,-317.994 L 0.18837,-317.994 L 0.562134,-317.947 L 0.927048,-317.853 L 1.27733,-317.714 L 1.60747,-317.533
 L 1.91226,-317.312 L 2.1869,-317.054 L 2.42705,-316.763 L 2.62891,-316.445 L 2.78932,-316.104 L 2.90575,-315.746
 L 2.97633,-315.376 L 3,-315 L 2.97633,-314.624 L 2.90575,-314.254 L 2.78932,-313.896 L 2.62891,-313.555
 L 2.42705,-313.237 L 2.1869,-312.946 L 1.91226,-312.688 L 1.60747,-312.467 L 1.27733,-312.286 L 0.927048,-312.147
 L 0.562134,-312.053 L 0.18837,-312.006 z
M 4.02869,-198.881 L 6.64386,-199.552 L 9.15425,-200.546 L 11.5203,-201.847 L 13.7046,-203.434 L 15.6728,-205.282
 L 17.3939,-207.363 L 18.8406,-209.642 L 19.9902,-212.085 L 20.8245,-214.653 L 21.3305,-217.305 L 21.5,-220
 L 21.3305,-222.695 L 20.8245,-225.347 L 19.9902,-227.915 L 18.8406,-230.358 L 17.3939,-232.637 L 15.6728,-234.718
 L 13.7046,-236.566 L 11.5203,-238.153 L 9.15425,-239.454 L 6.64386,-240.448 L 4.02869,-241.119 L 1.34999,-241.458
 L -1.34999,-241.458 L -4.02869,-241.119 L -6.64386,-240.448 L -9.15425,-239.454 L -11.5203,-238.153 L -13.7046,-236.566
 L -15.6728,-234.718 L -17.3939,-232.637 L -18.8406,-230.358 L -19.9902,-227.915 L -20.8245,-225.347 L -21.3305,-222.695
 L -21.5,-220 L -21.3305,-217.305 L -20.8245,-214.653 L -19.9902,-212.085 L -18.8406,-209.642 L -17.3939,-207.363
 L -15.6728,-205.282 L -13.7046,-203.434 L -11.5203,-201.847 L -9.15425,-200.546 L -6.64386,-199.552 L -4.02869,-198.881
 L -1.34999,-198.542 L 1.34999,-198.542 z
M -0.18837,-232.006 L -0.562134,-232.053 L -0.927048,-232.147 L -1.27733,-232.286 L -1.60747,-232.467 L -1.91226,-232.688
 L -2.1869,-232.946 L -2.42705,-233.237 L -2.62891,-233.555 L -2.78932,-233.896 L -2.90575,-234.254 L -2.97633,-234.624
 L -3,-235 L -2.97633,-235.376 L -2.90575,-235.746 L -2.78932,-236.104 L -2.62891,-236.445 L -2.42705,-236.763
 L -2.1869,-237.054 L -1.91226,-237.312 L -1.60747,-237.533 L -1.27733,-237.714 L -0.927048,-237.853 L -0.562134,-237.947
 L -0.18837,-237.994 L 0.18837,-237.994 L 0.562134,-237.947 L 0.927048,-237.853 L 1.27733,-237.714 L 1.60747,-237.533
 L 1.91226,-237.312 L 2.1869,-237.054 L 2.42705,-236.763 L 2.62891,-236.445 L 2.78932,-236.104 L 2.90575,-235.746
 L 2.97633,-235.376 L 3,-235 L 2.97633,-234.624 L 2.90575,-234.254 L 2.78932,-233.896 L 2.62891,-233.555
 L 2.42705,-233.237 L 2.1869,-232.946 L 1.91226,-232.688 L 1.60747,-232.467 L 1.27733,-232.286 L 0.927048,-232.147
 L 0.562134,-232.053 L 0.18837,-232.006 z
M -10.7954,-227.613 L -11.1691,-227.66 L -11.534,-227.754 L -11.8843,-227.893 L -12.2145,-228.074 L -12.5193,-228.295
 L -12.7939,-228.553 L -13.034,-228.844 L -13.2359,-229.162 L -13.3963,-229.503 L -13.5127,-229.861 L -13.5833,-230.231
 L -13.607,-230.607 L -13.5833,-230.983 L -13.5127,-231.353 L -13.3963,-231.711 L -13.2359,-232.052 L -13.034,-232.37
 L -12.7939,-232.661 L -12.5193,-232.919 L -12.2145,-233.14 L -11.8843,-233.321 L -11.534,-233.46 L -11.1691,-233.554
 L -10.7954,-233.601 L -10.4186,-233.601 L -10.0448,-233.554 L -9.67995,-233.46 L -9.32965,-233.321 L -8.99951,-233.14
 L -8.69472,-232.919 L -8.42009,-232.661 L -8.17995,-232.37 L -7.97807,-232.052 L -7.81766,-231.711 L -7.70125,-231.353
 L -7.63065,-230.983 L -7.60699,-230.607 L -7.63065,-230.231 L -7.70125,-229.861 L -7.81766,-229.503 L -7.97807,-229.162
 L -8.17995,-228.844 L -8.42009,-228.553 L -8.69472,-228.295 L -8.99951,-228.074 L -9.32965,-227.893 L -9.67995,-227.754
 L -10.0448,-227.66 L -10.4186,-227.613 z
M 10.4186,-227.613 L 10.0448,-227.66 L 9.67995,-227.754 L 9.32965,-227.893 L 8.99951,-228.074 L 8.69472,-228.295
 L 8.42009,-228.553 L 8.17995,-228.844 L 7.97807,-229.162 L 7.81766,-229.503 L 7.70125,-229.861 L 7.63065,-230.231
 L 7.60699,-230.607 L 7.63065,-230.983 L 7.70125,-231.353 L 7.81766,-231.711 L 7.97807,-232.052 L 8.17995,-232.37
 L 8.42009,-232.661 L 8.69472,-232.919 L 8.99951,-233.14 L 9.32965,-233.321 L 9.67995,-233.46 L 10.0448,-233.554
 L 10.4186,-233.601 L 10.7954,-233.601 L 11.1691,-233.554 L 11.534,-233.46 L 11.8843,-233.321 L 12.2145,-233.14
 L 12.5193,-232.919 L 12.7939,-232.661 L 13.034,-232.37 L 13.2359,-232.052 L 13.3963,-231.711 L 13.5127,-231.353
 L 13.5833,-230.983 L 13.607,-230.607 L 13.5833,-230.231 L 13.5127,-229.861 L 13.3963,-229.503 L 13.2359,-229.162
 L 13.034,-228.844 L 12.7939,-228.553 L 12.5193,-228.295 L 12.2145,-228.074 L 11.8843,-227.893 L 11.534,-227.754
 L 11.1691,-227.66 L 10.7954,-227.613 z
M -0.0941772,-226.003 L -0.281067,-226.027 L -0.463516,-226.073 L -0.638657,-226.143 L -0.803726,-226.234 L -0.956131,-226.344
 L -1.09344,-226.473 L -1.21352,-226.618 L -1.31445,-226.777 L -1.39465,-226.948 L -1.45287,-227.127 L -1.48816,-227.312
 L -1.5,-227.5 L -1.48816,-227.688 L -1.45287,-227.873 L -1.39465,-228.052 L -1.31445,-228.223 L -1.21352,-228.382
 L -1.09344,-228.527 L -0.956131,-228.656 L -0.803726,-228.766 L -0.638657,-228.857 L -0.463516,-228.927 L -0.281067,-228.973
 L -0.0941772,-228.997 L 0.0941772,-228.997 L 0.281067,-228.973 L 0.463516,-228.927 L 0.638657,-228.857 L 0.803726,-228.766
 L 0.956131,-228.656 L 1.09344,-228.527 L 1.21352,-228.382 L 1.31445,-228.223 L 1.39465,-228.052 L 1.45287,-227.873
 L 1.48816,-227.688 L 1.5,-227.5 L 1.48816,-227.312 L 1.45287,-227.127 L 1.39465,-226.948 L 1.31445,-226.777
 L 1.21352,-226.618 L 1.09344,-226.473 L 0.956131,-226.344 L 0.803726,-226.234 L 0.638657,-226.143 L 0.463516,-226.073
 L 0.281067,-226.027 L 0.0941772,-226.003 z
M 14.8116,-217.006 L 14.4379,-217.053 L 14.0729,-217.147 L 13.7227,-217.286 L 13.3925,-217.467 L 13.0877,-217.688
 L 12.8131,-217.946 L 12.5729,-218.237 L 12.3711,-218.555 L 12.2107,-218.896 L 12.0942,-219.254 L 12.0237,-219.624
 L 12,-220 L 12.0237,-220.376 L 12.0942,-220.746 L 12.2107,-221.104 L 12.3711,-221.445 L 12.5729,-221.763
 L 12.8131,-222.054 L 13.0877,-222.312 L 13.3925,-222.533 L 13.7227,-222.714 L 14.0729,-222.853 L 14.4379,-222.947
 L 14.8116,-222.994 L 15.1884,-222.994 L 15.5621,-222.947 L 15.927,-222.853 L 16.2773,-222.714 L 16.6075,-222.533
 L 16.9123,-222.312 L 17.1869,-222.054 L 17.427,-221.763 L 17.6289,-221.445 L 17.7893,-221.104 L 17.9057,-220.746
 L 17.9763,-220.376 L 18,-220 L 17.9763,-219.624 L 17.9057,-219.254 L 17.7893,-218.896 L 17.6289,-218.555
 L 17.427,-218.237 L 17.1869,-217.946 L 16.9123,-217.688 L 16.6075,-217.467 L 16.2773,-217.286 L 15.927,-217.147
 L 15.5621,-217.053 L 15.1884,-217.006 z
M -0.18837,-217.006 L -0.562134,-217.053 L -0.927048,-217.147 L -1.27733,-217.286 L -1.60747,-217.467 L -1.91226,-217.688
 L -2.1869,-217.946 L -2.42705,-218.237 L -2.62891,-218.555 L -2.78932,-218.896 L -2.90575,-219.254 L -2.97633,-219.624
 L -3,-220 L -2.97633,-220.376 L -2.90575,-220.746 L -2.78932,-221.104 L -2.62891,-221.445 L -2.42705,-221.763
 L -2.1869,-222.054 L -1.91226,-222.312 L -1.60747,-222.533 L -1.27733,-222.714 L -0.927048,-222.853 L -0.562134,-222.947
 L -0.18837,-222.994 L 0.18837,-222.994 L 0.562134,-222.947 L 0.927048,-222.853 L 1.27733,-222.714 L 1.60747,-222.533
 L 1.91226,-222.312 L 2.1869,-222.054 L 2.42705,-221.763 L 2.62891,-221.445 L 2.78932,-221.104 L 2.90575,-220.746
 L 2.97633,-220.376 L 3,-220 L 2.97633,-219.624 L 2.90575,-219.254 L 2.78932,-218.896 L 2.62891,-218.555
 L 2.42705,-218.237 L 2.1869,-217.946 L 1.91226,-217.688 L 1.60747,-217.467 L 1.27733,-217.286 L 0.927048,-217.147
 L 0.562134,-217.053 L 0.18837,-217.006 z
M -15.1884,-217.006 L -15.5621,-217.053 L -15.927,-217.147 L -16.2773,-217.286 L -16.6075,-217.467 L -16.9123,-217.688
 L -17.1869,-217.946 L -17.427,-218.237 L -17.6289,-218.555 L -17.7893,-218.896 L -17.9057,-219.254 L -17.9763,-219.624
 L -18,-220 L -17.9763,-220.376 L -17.9057,-220.746 L -17.7893,-221.104 L -17.6289,-221.445 L -17.427,-221.763
 L -17.1869,-222.054 L -16.9123,-222.312 L -16.6075,-222.533 L -16.2773,-222.714 L -15.927,-222.853 L -15.5621,-222.947
 L -15.1884,-222.994 L -14.8116,-222.994 L -14.4379,-222.947 L -14.0729,-222.853 L -13.7227,-222.714 L -13.3925,-222.533
 L -13.0877,-222.312 L -12.8131,-222.054 L -12.5729,-221.763 L -12.3711,-221.445 L -12.2107,-221.104 L -12.0942,-220.746
 L -12.0237,-220.376 L -12,-220 L -12.0237,-219.624 L -12.0942,-219.254 L -12.2107,-218.896 L -12.3711,-218.555
 L -12.5729,-218.237 L -12.8131,-217.946 L -13.0877,-217.688 L -13.3925,-217.467 L -13.7227,-217.286 L -14.0729,-217.147
 L -14.4379,-217.053 L -14.8116,-217.006 z
M -8.09418,-218.503 L -8.28107,-218.527 L -8.46352,-218.573 L -8.63866,-218.643 L -8.80373,-218.734 L -8.95613,-218.844
 L -9.09344,-218.973 L -9.21352,-219.118 L -9.31445,-219.277 L -9.39465,-219.448 L -9.45287,-219.627 L -9.48816,-219.812
 L -9.5,-220 L -9.48816,-220.188 L -9.45287,-220.373 L -9.39465,-220.552 L -9.31445,-220.723 L -9.21352,-220.882
 L -9.09344,-221.027 L -8.95613,-221.156 L -8.80373,-221.266 L -8.63866,-221.357 L -8.46352,-221.427 L -8.28107,-221.473
 L -8.09418,-221.497 L -7.40581,-221.497 L -7.21892,-221.473 L -7.03647,-221.427 L -6.86133,-221.357 L -6.69626,-221.266
 L -6.54385,-221.156 L -6.40654,-221.027 L -6.28647,-220.882 L -6.18553,-220.723 L -6.10533,-220.552 L -6.04712,-220.373
 L -6.01183,-220.188 L -6,-220 L -6.01183,-219.812 L -6.04712,-219.627 L -6.10533,-219.448 L -6.18553,-219.277
 L -6.28647,-219.118 L -6.40654,-218.973 L -6.54385,-218.844 L -6.69626,-218.734 L -6.86133,-218.643 L -7.03647,-218.573
 L -7.21892,-218.527 L -7.40581,-218.503 z
M 7.40581,-218.503 L 7.21892,-218.527 L 7.03647,-218.573 L 6.86133,-218.643 L 6.69626,-218.734 L 6.54385,-218.844
 L 6.40654,-218.973 L 6.28647,-219.118 L 6.18553,-219.277 L 6.10533,-219.448 L 6.04712,-219.627 L 6.01183,-219.812
 L 6,-220 L 6.01183,-220.188 L 6.04712,-220.373 L 6.10533,-220.552 L 6.18553,-220.723 L 6.28647,-220.882
 L 6.40654,-221.027 L 6.54385,-221.156 L 6.69626,-221.266 L 6.86133,-221.357 L 7.03647,-221.427 L 7.21892,-221.473
 L 7.40581,-221.497 L 8.09418,-221.497 L 8.28107,-221.473 L 8.46352,-221.427 L 8.63866,-221.357 L 8.80373,-221.266
 L 8.95613,-221.156 L 9.09344,-221.027 L 9.21352,-220.882 L 9.31445,-220.723 L 9.39465,-220.552 L 9.45287,-220.373
 L 9.48816,-220.188 L 9.5,-220 L 9.48816,-219.812 L 9.45287,-219.627 L 9.39465,-219.448 L 9.31445,-219.277
 L 9.21352,-219.118 L 9.09344,-218.973 L 8.95613,-218.844 L 8.80373,-218.734 L 8.63866,-218.643 L 8.46352,-218.573
 L 8.28107,-218.527 L 8.09418,-218.503 z
M -0.0941772,-211.003 L -0.281067,-211.027 L -0.463516,-211.073 L -0.638657,-211.143 L -0.803726,-211.234 L -0.956131,-211.344
 L -1.09344,-211.473 L -1.21352,-211.618 L -1.31445,-211.777 L -1.39465,-211.948 L -1.45287,-212.127 L -1.48816,-212.312
 L -1.5,-212.5 L -1.48816,-212.688 L -1.45287,-212.873 L -1.39465,-213.052 L -1.31445,-213.223 L -1.21352,-213.382
 L -1.09344,-213.527 L -0.956131,-213.656 L -0.803726,-213.766 L -0.638657,-213.857 L -0.463516,-213.927 L -0.281067,-213.973
 L -0.0941772,-213.997 L 0.0941772,-213.997 L 0.281067,-213.973 L 0.463516,-213.927 L 0.638657,-213.857 L 0.803726,-213.766
 L 0.956131,-213.656 L 1.09344,-213.527 L 1.21352,-213.382 L 1.31445,-213.223 L 1.39465,-213.052 L 1.45287,-212.873
 L 1.48816,-212.688 L 1.5,-212.5 L 1.48816,-212.312 L 1.45287,-212.127 L 1.39465,-211.948 L 1.31445,-211.777
 L 1.21352,-211.618 L 1.09344,-211.473 L 0.956131,-211.344 L 0.803726,-211.234 L 0.638657,-211.143 L 0.463516,-211.073
 L 0.281067,-211.027 L 0.0941772,-211.003 z
M 10.4186,-206.399 L 10.0448,-206.446 L 9.67995,-206.54 L 9.32965,-206.679 L 8.99951,-206.86 L 8.69472,-207.081
 L 8.42009,-207.339 L 8.17995,-207.63 L 7.97807,-207.948 L 7.81766,-208.289 L 7.70125,-208.647 L 7.63065,-209.017
 L 7.60699,-209.393 L 7.63065,-209.769 L 7.70125,-210.139 L 7.81766,-210.497 L 7.97807,-210.838 L 8.17995,-211.156
 L 8.42009,-211.447 L 8.69472,-211.705 L 8.99951,-211.926 L 9.32965,-212.107 L 9.67995,-212.246 L 10.0448,-212.34
 L 10.4186,-212.387 L 10.7954,-212.387 L 11.1691,-212.34 L 11.534,-212.246 L 11.8843,-212.107 L 12.2145,-211.926
 L 12.5193,-211.705 L 12.7939,-211.447 L 13.034,-211.156 L 13.2359,-210.838 L 13.3963,-210.497 L 13.5127,-210.139
 L 13.5833,-209.769 L 13.607,-209.393 L 13.5833,-209.017 L 13.5127,-208.647 L 13.3963,-208.289 L 13.2359,-207.948
 L 13.034,-207.63 L 12.7939,-207.339 L 12.5193,-207.081 L 12.2145,-206.86 L 11.8843,-206.679 L 11.534,-206.54
 L 11.1691,-206.446 L 10.7954,-206.399 z
M -10.7954,-206.399 L -11.1691,-206.446 L -11.534,-206.54 L -11.8843,-206.679 L -12.2145,-206.86 L -12.5193,-207.081
 L -12.7939,-207.339 L -13.034,-207.63 L -13.2359,-207.948 L -13.3963,-208.289 L -13.5127,-208.647 L -13.5833,-209.017
 L -13.607,-209.393 L -13.5833,-209.769 L -13.5127,-210.139 L -13.3963,-210.497 L -13.2359,-210.838 L -13.034,-211.156
 L -12.7939,-211.447 L -12.5193,-211.705 L -12.2145,-211.926 L -11.8843,-212.107 L -11.534,-212.246 L -11.1691,-212.34
 L -10.7954,-212.387 L -10.4186,-212.387 L -10.0448,-212.34 L -9.67995,-212.246 L -9.32965,-212.107 L -8.99951,-211.926
 L -8.69472,-211.705 L -8.42009,-211.447 L -8.17995,-211.156 L -7.97807,-210.838 L -7.81766,-210.497 L -7.70125,-210.139
 L -7.63065,-209.769 L -7.60699,-209.393 L -7.63065,-209.017 L -7.70125,-208.647 L -7.81766,-208.289 L -7.97807,-207.948
 L -8.17995,-207.63 L -8.42009,-207.339 L -8.69472,-207.081 L -8.99951,-206.86 L -9.32965,-206.679 L -9.67995,-206.54
 L -10.0448,-206.446 L -10.4186,-206.399 z
M -0.18837,-202.006 L -0.562134,-202.053 L -0.927048,-202.147 L -1.27733,-202.286 L -1.60747,-202.467 L -1.91226,-202.688
 L -2.1869,-202.946 L -2.42705,-203.237 L -2.62891,-203.555 L -2.78932,-203.896 L -2.90575,-204.254 L -2.97633,-204.624
 L -3,-205 L -2.97633,-205.376 L -2.90575,-205.746 L -2.78932,-206.104 L -2.62891,-206.445 L -2.42705,-206.763
 L -2.1869,-207.054 L -1.91226,-207.312 L -1.60747,-207.533 L -1.27733,-207.714 L -0.927048,-207.853 L -0.562134,-207.947
 L -0.18837,-207.994 L 0.18837,-207.994 L 0.562134,-207.947 L 0.927048,-207.853 L 1.27733,-207.714 L 1.60747,-207.533
 L 1.91226,-207.312 L 2.1869,-207.054 L 2.42705,-206.763 L 2.62891,-206.445 L 2.78932,-206.104 L 2.90575,-205.746
 L 2.97633,-205.376 L 3,-205 L 2.97633,-204.624 L 2.90575,-204.254 L 2.78932,-203.896 L 2.62891,-203.555
 L 2.42705,-203.237 L 2.1869,-202.946 L 1.91226,-202.688 L 1.60747,-202.467 L 1.27733,-202.286 L 0.927048,-202.147
 L 0.562134,-202.053 L 0.18837,-202.006 z
M 4.02869,-88.8808 L 6.64386,-89.5523 L 9.15425,-90.5462 L 11.5203,-91.847 L 13.7046,-93.434 L 15.6728,-95.2822
 L 17.3939,-97.3626 L 18.8406,-99.6423 L 19.9902,-102.085 L 20.8245,-104.653 L 21.3305,-107.305 L 21.5,-110
 L 21.3305,-112.695 L 20.8245,-115.347 L 19.9902,-117.915 L 18.8406,-120.358 L 17.3939,-122.637 L 15.6728,-124.718
 L 13.7046,-126.566 L 11.5203,-128.153 L 9.15425,-129.454 L 6.64386,-130.448 L 4.02869,-131.119 L 1.34999,-131.458
 L -1.34999,-131.458 L -4.02869,-131.119 L -6.64386,-130.448 L -9.15425,-129.454 L -11.5203,-128.153 L -13.7046,-126.566
 L -15.6728,-124.718 L -17.3939,-122.637 L -18.8406,-120.358 L -19.9902,-117.915 L -20.8245,-115.347 L -21.3305,-112.695
 L -21.5,-110 L -21.3305,-107.305 L -20.8245,-104.653 L -19.9902,-102.085 L -18.8406,-99.6423 L -17.3939,-97.3626
 L -15.6728,-95.2822 L -13.7046,-93.434 L -11.5203,-91.847 L -9.15425,-90.5462 L -6.64386,-89.5523 L -4.02869,-88.8808
 L -1.34999,-88.5424 L 1.34999,-88.5424 z
M -0.18837,-122.006 L -0.562134,-122.053 L -0.927048,-122.147 L -1.27733,-122.286 L -1.60747,-122.467 L -1.91226,-122.688
 L -2.1869,-122.946 L -2.42705,-123.237 L -2.62891,-123.555 L -2.78932,-123.896 L -2.90575,-124.254 L -2.97633,-124.624
 L -3,-125 L -2.97633,-125.376 L -2.90575,-125.746 L -2.78932,-126.104 L -2.62891,-126.445 L -2.42705,-126.763
 L -2.1869,-127.054 L -1.91226,-127.312 L -1.60747,-127.533 L -1.27733,-127.714 L -0.927048,-127.853 L -0.562134,-127.947
 L -0.18837,-127.994 L 0.18837,-127.994 L 0.562134,-127.947 L 0.927048,-127.853 L 1.27733,-127.714 L 1.60747,-127.533
 L 1.91226,-127.312 L 2.1869,-127.054 L 2.42705,-126.763 L 2.62891,-126.445 L 2.78932,-126.104 L 2.90575,-125.746
 L 2.97633,-125.376 L 3,-125 L 2.97633,-124.624 L 2.90575,-124.254 L 2.78932,-123.896 L 2.62891,-123.555
 L 2.42705,-123.237 L 2.1869,-122.946 L 1.91226,-122.688 L 1.60747,-122.467 L 1.27733,-122.286 L 0.927048,-122.147
 L 0.562134,-122.053 L 0.18837,-122.006 z
M 10.4186,-117.613 L 10.0448,-117.66 L 9.67995,-117.754 L 9.32965,-117.893 L 8.99951,-118.074 L 8.69472,-118.295
 L 8.42009,-118.553 L 8.17995,-118.844 L 7.97807,-119.162 L 7.81766,-119.503 L 7.70125,-119.861 L 7.63065,-120.231
 L 7.60699,-120.607 L 7.63065,-120.983 L 7.70125,-121.353 L 7.81766,-121.711 L 7.97807,-122.052 L 8.17995,-122.37
 L 8.42009,-122.661 L 8.69472,-122.919 L 8.99951,-123.14 L 9.32965,-123.321 L 9.67995,-123.46 L 10.0448,-123.554
 L 10.4186,-123.601 L 10.7954,-123.601 L 11.1691,-123.554 L 11.534,-123.46 L 11.8843,-123.321 L 12.2145,-123.14
 L 12.5193,-122.919 L 12.7939,-122.661 L 13.034,-122.37 L 13.2359,-122.052 L 13.3963,-121.711 L 13.5127,-121.353
 L 13.5833,-120.983 L 13.607,-120.607 L 13.5833,-120.231 L 13.5127,-119.861 L 13.3963,-119.503 L 13.2359,-119.162
 L 13.034,-118.844 L 12.7939,-118.553 L 12.5193,-118.295 L 12.2145,-118.074 L 11.8843,-117.893 L 11.534,-117.754
 L 11.1691,-117.66 L 10.7954,-117.613 z
M -10.7954,-117.613 L -11.1691,-117.66 L -11.534,-117.754 L -11.8843,-117.893 L -12.2145,-118.074 L -12.5193,-118.295
 L -12.7939,-118.553 L -13.034,-118.844 L -13.2359,-119.162 L -13.3963,-119.503 L -13.5127,-119.861 L -13.5833,-120.231
 L -13.607,-120.607 L -13.5833,-120.983 L -13.5127,-121.353 L -13.3963,-121.711 L -13.2359,-122.052 L -13.034,-122.37
 L -12.7939,-122.661 L -12.5193,-122.919 L -12.2145,-123.14 L -11.8843,-123.321 L -11.534,-123.46 L -11.1691,-123.554
 L -10.7954,-123.601 L -10.4186,-123.601 L -10.0448,-123.554 L -9.67995,-123.46 L -9.32965,-123.321 L -8.99951,-123.14
 L -8.69472,-122.919 L -8.42009,-122.661 L -8.17995,-122.37 L -7.97807,-122.052 L -7.81766,-121.711 L -7.70125,-121.353
 L -7.63065,-120.983 L -7.60699,-120.607 L -7.63065,-120.231 L -7.70125,-119.861 L -7.81766,-119.503 L -7.97807,-119.162
 L -8.17995,-118.844 L -8.42009,-118.553 L -8.69472,-118.295 L -8.99951,-118.074 L -9.32965,-117.893 L -9.67995,-117.754
 L -10.0448,-117.66 L -10.4186,-117.613 z
M -0.0941772,-116.003 L -0.281067,-116.027 L -0.463516,-116.073 L -0.638657,-116.143 L -0.803726,-116.234 L -0.956131,-116.344
 L -1.09344,-116.473 L -1.21352,-116.618 L -1.31445,-116.777 L -1.39465,-116.948 L -1.45287,-117.127 L -1.48816,-117.312
 L -1.5,-117.5 L -1.48816,-117.688 L -1.45287,-117.873 L -1.39465,-118.052 L -1.31445,-118.223 L -1.21352,-118.382
 L -1.09344,-118.527 L -0.956131,-118.656 L -0.803726,-118.766 L -0.638657,-118.857 L -0.463516,-118.927 L -0.281067,-118.973
 L -0.0941772,-118.997 L 0.0941772,-118.997 L 0.281067,-118.973 L 0.463516,-118.927 L 0.638657,-118.857 L 0.803726,-118.766
 L 0.956131,-118.656 L 1.09344,-118.527 L 1.21352,-118.382 L 1.31445,-118.223 L 1.39465,-118.052 L 1.45287,-117.873
 L 1.48816,-117.688 L 1.5,-117.5 L 1.48816,-117.312 L 1.45287,-117.127 L 1.39465,-116.948 L 1.31445,-116.777
 L 1.21352,-116.618 L 1.09344,-116.473 L 0.956131,-116.344 L 0.803726,-116.234 L 0.638657,-116.143 L 0.463516,-116.073
 L 0.281067,-116.027 L 0.0941772,-116.003 z
M 14.8116,-107.006 L 14.4379,-107.053 L 14.0729,-107.147 L 13.7227,-107.286 L 13.3925,-107.467 L 13.0877,-107.688
 L 12.8131,-107.946 L 12.5729,-108.237 L 12.3711,-108.555 L 12.2107,-108.896 L 12.0942,-109.254 L 12.0237,-109.624
 L 12,-110 L 12.0237,-110.376 L 12.0942,-110.746 L 12.2107,-111.104 L 12.3711,-111.445 L 12.5729,-111.763
 L 12.8131,-112.054 L 13.0877,-112.312 L 13.3925,-112.533 L 13.7227,-112.714 L 14.0729,-112.853 L 14.4379,-112.947
 L 14.8116,-112.994 L 15.1884,-112.994 L 15.5621,-112.947 L 15.927,-112.853 L 16.2773,-112.714 L 16.6075,-112.533
 L 16.9123,-112.312 L 17.1869,-112.054 L 17.427,-111.763 L 17.6289,-111.445 L 17.7893,-111.104 L 17.9057,-110.746
 L 17.9763,-110.376 L 18,-110 L 17.9763,-109.624 L 17.9057,-109.254 L 17.7893,-108.896 L 17.6289,-108.555
 L 17.427,-108.237 L 17.1869,-107.946 L 16.9123,-107.688 L 16.6075,-107.467 L 16.2773,-107.286 L 15.927,-107.147
 L 15.5621,-107.053 L 15.1884,-107.006 z
M -0.18837,-107.006 L -0.562134,-107.053 L -0.927048,-107.147 L -1.27733,-107.286 L -1.60747,-107.467 L -1.91226,-107.688
 L -2.1869,-107.946 L -2.42705,-108.237 L -2.62891,-108.555 L -2.78932,-108.896 L -2.90575,-109.254 L -2.97633,-109.624
 L -3,-110 L -2.97633,-110.376 L -2.90575,-110.746 L -2.78932,-111.104 L -2.62891,-111.445 L -2.42705,-111.763
 L -2.1869,-112.054 L -1.91226,-112.312 L -1.60747,-112.533 L -1.27733,-112.714 L -0.927048,-112.853 L -0.562134,-112.947
 L -0.18837,-112.994 L 0.18837,-112.994 L 0.562134,-112.947 L 0.927048,-112.853 L 1.27733,-112.714 L 1.60747,-112.533
 L 1.91226,-112.312 L 2.1869,-112.054 L 2.42705,-111.763 L 2.62891,-111.445 L 2.78932,-111.104 L 2.90575,-110.746
 L 2.97633,-110.376 L 3,-110 L 2.97633,-109.624 L 2.90575,-109.254 L 2.78932,-108.896 L 2.62891,-108.555
 L 2.42705,-108.237 L 2.1869,-107.946 L 1.91226,-107.688 L 1.60747,-107.467 L 1.27733,-107.286 L 0.927048,-107.147
 L 0.562134,-107.053 L 0.18837,-107.006 z
M -15.1884,-107.006 L -15.5621,-107.053 L -15.927,-107.147 L -16.2773,-107.286 L -16.6075,-107.467 L -16.9123,-107.688
 L -17.1869,-107.946 L -17.427,-108.237 L -17.6289,-108.555 L -17.7893,-108.896 L -17.9057,-109.254 L -17.9763,-109.624
 L -18,-110 L -17.9763,-110.376 L -17.9057,-110.746 L -17.7893,-111.104 L -17.6289,-111.445 L -17.427,-111.763
 L -17.1869,-112.054 L -16.9123,-112.312 L -16.6075,-112.533 L -16.2773,-112.714 L -15.927,-112.853 L -15.5621,-112.947
 L -15.1884,-112.994 L -14.8116,-112.994 L -14.4379,-112.947 L -14.0729,-112.853 L -13.7227,-112.714 L -13.3925,-112.533
 L -13.0877,-112.312 L -12.8131,-112.054 L -12.5729,-111.763 L -12.3711,-111.445 L -12.2107,-111.104 L -12.0942,-110.746
 L -12.0237,-110.376 L -12,-110 L -12.0237,-109.624 L -12.0942,-109.254 L -12.2107,-108.896 L -12.3711,-108.555
 L -12.5729,-108.237 L -12.8131,-107.946 L -13.0877,-107.688 L -13.3925,-107.467 L -13.7227,-107.286 L -14.0729,-107.147
 L -14.4379,-107.053 L -14.8116,-107.006 z
M -8.09418,-108.503 L -8.28107,-108.527 L -8.46352,-108.573 L -8.63866,-108.643 L -8.80373,-108.734 L -8.95613,-108.844
 L -9.09344,-108.973 L -9.21352,-109.118 L -9.31445,-109.277 L -9.39465,-109.448 L -9.45287,-109.627 L -9.48816,-109.812
 L -9.5,-110 L -9.48816,-110.188 L -9.45287,-110.373 L -9.39465,-110.552 L -9.31445,-110.723 L -9.21352,-110.882
 L -9.09344,-111.027 L -8.95613,-111.156 L -8.80373,-111.266 L -8.63866,-111.357 L -8.46352,-111.427 L -8.28107,-111.473
 L -8.09418,-111.497 L -7.40581,-111.497 L -7.21892,-111.473 L -7.03647,-111.427 L -6.86133,-111.357 L -6.69626,-111.266
 L -6.54385,-111.156 L -6.40654,-111.027 L -6.28647,-110.882 L -6.18553,-110.723 L -6.10533,-110.552 L -6.04712,-110.373
 L -6.01183,-110.188 L -6,-110 L -6.01183,-109.812 L -6.04712,-109.627 L -6.10533,-109.448 L -6.18553,-109.277
 L -6.28647,-109.118 L -6.40654,-108.973 L -6.54385,-108.844 L -6.69626,-108.734 L -6.86133,-108.643 L -7.03647,-108.573
 L -7.21892,-108.527 L -7.40581,-108.503 z
M 7.40581,-108.503 L 7.21892,-108.527 L 7.03647,-108.573 L 6.86133,-108.643 L 6.69626,-108.734 L 6.54385,-108.844
 L 6.40654,-108.973 L 6.28647,-109.118 L 6.18553,-109.277 L 6.10533,-109.448 L 6.04712,-109.627 L 6.01183,-109.812
 L 6,-110 L 6.01183,-110.188 L 6.04712,-110.373 L 6.10533,-110.552 L 6.18553,-110.723 L 6.28647,-110.882
 L 6.40654,-111.027 L 6.54385,-111.156 L 6.69626,-111.266 L 6.86133,-111.357 L 7.03647,-111.427 L 7.21892,-111.473
 L 7.40581,-111.497 L 8.09418,-111.497 L 8.28107,-111.473 L 8.46352,-111.427 L 8.63866,-111.357 L 8.80373,-111.266
 L 8.95613,-111.156 L 9.09344,-111.027 L 9.21352,-110.882 L 9.31445,-110.723 L 9.39465,-110.552 L 9.45287,-110.373
 L 9.48816,-110.188 L 9.5,-110 L 9.48816,-109.812 L 9.45287,-109.627 L 9.39465,-109.448 L 9.31445,-109.277
 L 9.21352,-109.118 L 9.09344,-108.973 L 8.95613,-108.844 L 8.80373,-108.734 L 8.63866,-108.643 L 8.46352,-108.573
 L 8.28107,-108.527 L 8.09418,-108.503 z
M -0.0941772,-101.003 L -0.281067,-101.027 L -0.463516,-101.073 L -0.638657,-101.143 L -0.803726,-101.234 L -0.956131,-101.344
 L -1.09344,-101.473 L -1.21352,-101.618 L -1.31445,-101.777 L -1.39465,-101.948 L -1.45287,-102.127 L -1.48816,-102.312
 L -1.5,-102.5 L -1.48816,-102.688 L -1.45287,-102.873 L -1.39465,-103.052 L -1.31445,-103.223 L -1.21352,-103.382
 L -1.09344,-103.527 L -0.956131,-103.656 L -0.803726,-103.766 L -0.638657,-103.857 L -0.463516,-103.927 L -0.281067,-103.973
 L -0.0941772,-103.997 L 0.0941772,-103.997 L 0.281067,-103.973 L 0.463516,-103.927 L 0.638657,-103.857 L 0.803726,-103.766
 L 0.956131,-103.656 L 1.09344,-103.527 L 1.21352,-103.382 L 1.31445,-103.223 L 1.39465,-103.052 L 1.45287,-102.873
 L 1.48816,-102.688 L 1.5,-102.5 L 1.48816,-102.312 L 1.45287,-102.127 L 1.39465,-101.948 L 1.31445,-101.777
 L 1.21352,-101.618 L 1.09344,-101.473 L 0.956131,-101.344 L 0.803726,-101.234 L 0.638657,-101.143 L 0.463516,-101.073
 L 0.281067,-101.027 L 0.0941772,-101.003 z
M 10.4186,-96.3989 L 10.0448,-96.4462 L 9.67995,-96.5398 L 9.32965,-96.6785 L 8.99951,-96.86 L 8.69472,-97.0815
 L 8.42009,-97.3394 L 8.17995,-97.6297 L 7.97807,-97.9478 L 7.81766,-98.2886 L 7.70125,-98.6469 L 7.63065,-99.017
 L 7.60699,-99.393 L 7.63065,-99.769 L 7.70125,-100.139 L 7.81766,-100.497 L 7.97807,-100.838 L 8.17995,-101.156
 L 8.42009,-101.447 L 8.69472,-101.705 L 8.99951,-101.926 L 9.32965,-102.107 L 9.67995,-102.246 L 10.0448,-102.34
 L 10.4186,-102.387 L 10.7954,-102.387 L 11.1691,-102.34 L 11.534,-102.246 L 11.8843,-102.107 L 12.2145,-101.926
 L 12.5193,-101.705 L 12.7939,-101.447 L 13.034,-101.156 L 13.2359,-100.838 L 13.3963,-100.497 L 13.5127,-100.139
 L 13.5833,-99.769 L 13.607,-99.393 L 13.5833,-99.017 L 13.5127,-98.6469 L 13.3963,-98.2886 L 13.2359,-97.9478
 L 13.034,-97.6297 L 12.7939,-97.3394 L 12.5193,-97.0815 L 12.2145,-96.86 L 11.8843,-96.6785 L 11.534,-96.5398
 L 11.1691,-96.4462 L 10.7954,-96.3989 z
M -10.7954,-96.3989 L -11.1691,-96.4462 L -11.534,-96.5398 L -11.8843,-96.6785 L -12.2145,-96.86 L -12.5193,-97.0815
 L -12.7939,-97.3394 L -13.034,-97.6297 L -13.2359,-97.9478 L -13.3963,-98.2886 L -13.5127,-98.6469 L -13.5833,-99.017
 L -13.607,-99.393 L -13.5833,-99.769 L -13.5127,-100.139 L -13.3963,-100.497 L -13.2359,-100.838 L -13.034,-101.156
 L -12.7939,-101.447 L -12.5193,-101.705 L -12.2145,-101.926 L -11.8843,-102.107 L -11.534,-102.246 L -11.1691,-102.34
 L -10.7954,-102.387 L -10.4186,-102.387 L -10.0448,-102.34 L -9.67995,-102.246 L -9.32965,-102.107 L -8.99951,-101.926
 L -8.69472,-101.705 L -8.42009,-101.447 L -8.17995,-101.156 L -7.97807,-100.838 L -7.81766,-100.497 L -7.70125,-100.139
 L -7.63065,-99.769 L -7.60699,-99.393 L -7.63065,-99.017 L -7.70125,-98.6469 L -7.81766,-98.2886 L -7.97807,-97.9478
 L -8.17995,-97.6297 L -8.42009,-97.3394 L -8.69472,-97.0815 L -8.99951,-96.86 L -9.32965,-96.6785 L -9.67995,-96.5398
 L -10.0448,-96.4462 L -10.4186,-96.3989 z
M -0.18837,-92.0059 L -0.562134,-92.0531 L -0.927048,-92.1468 L -1.27733,-92.2855 L -1.60747,-92.467 L -1.91226,-92.6885
 L -2.1869,-92.9464 L -2.42705,-93.2366 L -2.62891,-93.5547 L -2.78932,-93.8956 L -2.90575,-94.2539 L -2.97633,-94.624
 L -3,-95 L -2.97633,-95.376 L -2.90575,-95.7461 L -2.78932,-96.1044 L -2.62891,-96.4453 L -2.42705,-96.7634
 L -2.1869,-97.0536 L -1.91226,-97.3116 L -1.60747,-97.533 L -1.27733,-97.7145 L -0.927048,-97.8532 L -0.562134,-97.9469
 L -0.18837,-97.9941 L 0.18837,-97.9941 L 0.562134,-97.9469 L 0.927048,-97.8532 L 1.27733,-97.7145 L 1.60747,-97.533
 L 1.91226,-97.3116 L 2.1869,-97.0536 L 2.42705,-96.7634 L 2.62891,-96.4453 L 2.78932,-96.1044 L 2.90575,-95.7461
 L 2.97633,-95.376 L 3,-95 L 2.97633,-94.624 L 2.90575,-94.2539 L 2.78932,-93.8956 L 2.62891,-93.5547
 L 2.42705,-93.2366 L 2.1869,-92.9464 L 1.91226,-92.6885 L 1.60747,-92.467 L 1.27733,-92.2855 L 0.927048,-92.1468
 L 0.562134,-92.0531 L 0.18837,-92.0059 z
M 4.02869,21.1192 L 6.64386,20.4477 L 9.15425,19.4538 L 11.5203,18.153 L 13.7046,16.566 L 15.6728,14.7178
 L 17.3939,12.6374 L 18.8406,10.3577 L 19.9902,7.91467 L 20.8245,5.34683 L 21.3305,2.69466 L 21.5,-0
 L 21.3305,-2.69466 L 20.8245,-5.34683 L 19.9902,-7.91467 L 18.8406,-10.3577 L 17.3939,-12.6374 L 15.6728,-14.7178
 L 13.7046,-16.566 L 11.5203,-18.153 L 9.15425,-19.4538 L 6.64386,-20.4477 L 4.02869,-21.1192 L 1.34999,-21.4576
 L -1.34999,-21.4576 L -4.02869,-21.1192 L -6.64386,-20.4477 L -9.15425,-19.4538 L -11.5203,-18.153 L -13.7046,-16.566
 L -15.6728,-14.7178 L -17.3939,-12.6374 L -18.8406,-10.3577 L -19.9902,-7.91467 L -20.8245,-5.34683 L -21.3305,-2.69466
 L -21.5,-0 L -21.3305,2.69466 L -20.8245,5.34683 L -19.9902,7.91467 L -18.8406,10.3577 L -17.3939,12.6374
 L -15.6728,14.7178 L -13.7046,16.566 L -11.5203,18.153 L -9.15425,19.4538 L -6.64386,20.4477 L -4.02869,21.1192
 L -1.34999,21.4576 L 1.34999,21.4576 z
M -0.18837,-12.0059 L -0.562134,-12.0531 L -0.927048,-12.1468 L -1.27733,-12.2855 L -1.60747,-12.467 L -1.91226,-12.6884
 L -2.1869,-12.9464 L -2.42705,-13.2366 L -2.62891,-13.5547 L -2.78932,-13.8956 L -2.90575,-14.2539 L -2.97633,-14.624
 L -3,-15 L -2.97633,-15.376 L -2.90575,-15.7461 L -2.78932,-16.1044 L -2.62891,-16.4453 L -2.42705,-16.7634
 L -2.1869,-17.0536 L -1.91226,-17.3115 L -1.60747,-17.533 L -1.27733,-17.7145 L -0.927048,-17.8532 L -0.562134,-17.9469
 L -0.18837,-17.9941 L 0.18837,-17.9941 L 0.562134,-17.9469 L 0.927048,-17.8532 L 1.27733,-17.7145 L 1.60747,-17.533
 L 1.91226,-17.3115 L 2.1869,-17.0536 L 2.42705,-16.7634 L 2.62891,-16.4453 L 2.78932,-16.1044 L 2.90575,-15.7461
 L 2.97633,-15.376 L 3,-15 L 2.97633,-14.624 L 2.90575,-14.2539 L 2.78932,-13.8956 L 2.62891,-13.5547
 L 2.42705,-13.2366 L 2.1869,-12.9464 L 1.91226,-12.6884 L 1.60747,-12.467 L 1.27733,-12.2855 L 0.927048,-12.1468
 L 0.562134,-12.0531 L 0.18837,-12.0059 z
M -10.7954,-7.61292 L -11.1691,-7.66013 L -11.534,-7.75383 L -11.8843,-7.89252 L -12.2145,-8.07401 L -12.5193,-8.29546
 L -12.7939,-8.55334 L -13.034,-8.84364 L -13.2359,-9.16173 L -13.3963,-9.50262 L -13.5127,-9.86092 L -13.5833,-10.231
 L -13.607,-10.607 L -13.5833,-10.983 L -13.5127,-11.3531 L -13.3963,-11.7114 L -13.2359,-12.0522 L -13.034,-12.3703
 L -12.7939,-12.6606 L -12.5193,-12.9185 L -12.2145,-13.14 L -11.8843,-13.3215 L -11.534,-13.4602 L -11.1691,-13.5538
 L -10.7954,-13.6011 L -10.4186,-13.6011 L -10.0448,-13.5538 L -9.67995,-13.4602 L -9.32965,-13.3215 L -8.99951,-13.14
 L -8.69472,-12.9185 L -8.42009,-12.6606 L -8.17995,-12.3703 L -7.97807,-12.0522 L -7.81766,-11.7114 L -7.70125,-11.3531
 L -7.63065,-10.983 L -7.60699,-10.607 L -7.63065,-10.231 L -7.70125,-9.86092 L -7.81766,-9.50262 L -7.97807,-9.16173
 L -8.17995,-8.84364 L -8.42009,-8.55334 L -8.69472,-8.29546 L -8.99951,-8.07401 L -9.32965,-7.89252 L -9.67995,-7.75383
 L -10.0448,-7.66013 L -10.4186,-7.61292 z
M 10.4186,-7.61292 L 10.0448,-7.66013 L 9.67995,-7.75383 L 9.32965,-7.89252 L 8.99951,-8.07401 L 8.69472,-8.29546
 L 8.42009,-8.55334 L 8.17995,-8.84364 L 7.97807,-9.16173 L 7.81766,-9.50262 L 7.70125,-9.86092 L 7.63065,-10.231
 L 7.60699,-10.607 L 7.63065,-10.983 L 7.70125,-11.3531 L 7.81766,-11.7114 L 7.97807,-12.0522 L 8.17995,-12.3703
 L 8.42009,-12.6606 L 8.69472,-12.9185 L 8.99951,-13.14 L 9.32965,-13.3215 L 9.67995,-13.4602 L 10.0448,-13.5538
 L 10.4186,-13.6011 L 10.7954,-13.6011 L 11.1691,-13.5538 L 11.534,-13.4602 L 11.8843,-13.3215 L 12.2145,-13.14
 L 12.5193,-12.9185 L 12.7939,-12.6606 L 13.034,-12.3703 L 13.2359,-12.0522 L 13.3963,-11.7114 L 13.5127,-11.3531
 L 13.5833,-10.983 L 13.607,-10.607 L 13.5833,-10.231 L 13.5127,-9.86092 L 13.3963,-9.50262 L 13.2359,-9.16173
 L 13.034,-8.84364 L 12.7939,-8.55334 L 12.5193,-8.29546 L 12.2145,-8.07401 L 11.8843,-7.89252 L 11.534,-7.75383
 L 11.1691,-7.66013 L 10.7954,-7.61292 z
M -0.0941772,-6.00294 L -0.281067,-6.02657 L -0.463516,-6.07341 L -0.638657,-6.14275 L -0.803726,-6.23351 L -0.956131,-6.34422
 L -1.09344,-6.47318 L -1.21352,-6.61832 L -1.31445,-6.77736 L -1.39465,-6.9478 L -1.45287,-7.12695 L -1.48816,-7.312
 L -1.5,-7.5 L -1.48816,-7.68799 L -1.45287,-7.87303 L -1.39465,-8.05219 L -1.31445,-8.22263 L -1.21352,-8.38167
 L -1.09344,-8.52681 L -0.956131,-8.65576 L -0.803726,-8.76648 L -0.638657,-8.85724 L -0.463516,-8.92657 L -0.281067,-8.97342
 L -0.0941772,-8.99704 L 0.0941772,-8.99704 L 0.281067,-8.97342 L 0.463516,-8.92657 L 0.638657,-8.85724 L 0.803726,-8.76648
 L 0.956131,-8.65576 L 1.09344,-8.52681 L 1.21352,-8.38167 L 1.31445,-8.22263 L 1.39465,-8.05219 L 1.45287,-7.87303
 L 1.48816,-7.68799 L 1.5,-7.5 L 1.48816,-7.312 L 1.45287,-7.12695 L 1.39465,-6.9478 L 1.31445,-6.77736
 L 1.21352,-6.61832 L 1.09344,-6.47318 L 0.956131,-6.34422 L 0.803726,-6.23351 L 0.638657,-6.14275 L 0.463516,-6.07341
 L 0.281067,-6.02657 L 0.0941772,-6.00294 z
M 14.8116,2.99408 L 14.4379,2.94685 L 14.0729,2.85316 L 13.7227,2.71448 L 13.3925,2.53297 L 13.0877,2.31154
 L 12.8131,2.05363 L 12.5729,1.76335 L 12.3711,1.44525 L 12.2107,1.10437 L 12.0942,0.746063 L 12.0237,0.375992
 L 12,-0 L 12.0237,-0.375992 L 12.0942,-0.746063 L 12.2107,-1.10437 L 12.3711,-1.44525 L 12.5729,-1.76335
 L 12.8131,-2.05363 L 13.0877,-2.31154 L 13.3925,-2.53297 L 13.7227,-2.71448 L 14.0729,-2.85316 L 14.4379,-2.94685
 L 14.8116,-2.99408 L 15.1884,-2.99408 L 15.5621,-2.94685 L 15.927,-2.85316 L 16.2773,-2.71448 L 16.6075,-2.53297
 L 16.9123,-2.31154 L 17.1869,-2.05363 L 17.427,-1.76335 L 17.6289,-1.44525 L 17.7893,-1.10437 L 17.9057,-0.746063
 L 17.9763,-0.375992 L 18,-0 L 17.9763,0.375992 L 17.9057,0.746063 L 17.7893,1.10437 L 17.6289,1.44525
 L 17.427,1.76335 L 17.1869,2.05363 L 16.9123,2.31154 L 16.6075,2.53297 L 16.2773,2.71448 L 15.927,2.85316
 L 15.5621,2.94685 L 15.1884,2.99408 z
M -0.18837,2.99408 L -0.562134,2.94685 L -0.927048,2.85316 L -1.27733,2.71448 L -1.60747,2.53297 L -1.91226,2.31154
 L -2.1869,2.05363 L -2.42705,1.76335 L -2.62891,1.44525 L -2.78932,1.10437 L -2.90575,0.746063 L -2.97633,0.375992
 L -3,-0 L -2.97633,-0.375992 L -2.90575,-0.746063 L -2.78932,-1.10437 L -2.62891,-1.44525 L -2.42705,-1.76335
 L -2.1869,-2.05363 L -1.91226,-2.31154 L -1.60747,-2.53297 L -1.27733,-2.71448 L -0.927048,-2.85316 L -0.562134,-2.94685
 L -0.18837,-2.99408 L 0.18837,-2.99408 L 0.562134,-2.94685 L 0.927048,-2.85316 L 1.27733,-2.71448 L 1.60747,-2.53297
 L 1.91226,-2.31154 L 2.1869,-2.05363 L 2.42705,-1.76335 L 2.62891,-1.44525 L 2.78932,-1.10437 L 2.90575,-0.746063
 L 2.97633,-0.375992 L 3,-0 L 2.97633,0.375992 L 2.90575,0.746063 L 2.78932,1.10437 L 2.62891,1.44525
 L 2.42705,1.76335 L 2.1869,2.05363 L 1.91226,2.31154 L 1.60747,2.53297 L 1.27733,2.71448 L 0.927048,2.85316
 L 0.562134,2.94685 L 0.18837,2.99408 z
M -15.1884,2.99408 L -15.5621,2.94685 L -15.927,2.85316 L -16.2773,2.71448 L -16.6075,2.53297 L -16.9123,2.31154
 L -17.1869,2.05363 L -17.427,1.76335 L -17.6289,1.44525 L -17.7893,1.10437 L -17.9057,0.746063 L -17.9763,0.375992
 L -18,-0 L -17.9763,-0.375992 L -17.9057,-0.746063 L -17.7893,-1.10437 L -17.6289,-1.44525 L -17.427,-1.76335
 L -17.1869,-2.05363 L -16.9123,-2.31154 L -16.6075,-2.53297 L -16.2773,-2.71448 L -15.927,-2.85316 L -15.5621,-2.94685
 L -15.1884,-2.99408 L -14.8116,-2.99408 L -14.4379,-2.94685 L -14.0729,-2.85316 L -13.7227,-2.71448 L -13.3925,-2.53297
 L -13.0877,-2.31154 L -12.8131,-2.05363 L -12.5729,-1.76335 L -12.3711,-1.44525 L -12.2107,-1.10437 L -12.0942,-0.746063
 L -12.0237,-0.375992 L -12,-0 L -12.0237,0.375992 L -12.0942,0.746063 L -12.2107,1.10437 L -12.3711,1.44525
 L -12.5729,1.76335 L -12.8131,2.05363 L -13.0877,2.31154 L -13.3925,2.53297 L -13.7227,2.71448 L -14.0729,2.85316
 L -14.4379,2.94685 L -14.8116,2.99408 z
M -8.09418,1.49704 L -8.28107,1.47342 L -8.46352,1.42657 L -8.63866,1.35724 L -8.80373,1.26648 L -8.95613,1.15576
 L -9.09344,1.02681 L -9.21352,0.881668 L -9.31445,0.722626 L -9.39465,0.552185 L -9.45287,0.373032 L -9.48816,0.187988
 L -9.5,-0 L -9.48816,-0.187988 L -9.45287,-0.373032 L -9.39465,-0.552185 L -9.31445,-0.722626 L -9.21352,-0.881668
 L -9.09344,-1.02681 L -8.95613,-1.15576 L -8.80373,-1.26648 L -8.63866,-1.35724 L -8.46352,-1.42657 L -8.28107,-1.47342
 L -8.09418,-1.49704 L -7.40581,-1.49704 L -7.21892,-1.47342 L -7.03647,-1.42657 L -6.86133,-1.35724 L -6.69626,-1.26648
 L -6.54385,-1.15576 L -6.40654,-1.02681 L -6.28647,-0.881668 L -6.18553,-0.722626 L -6.10533,-0.552185 L -6.04712,-0.373032
 L -6.01183,-0.187988 L -6,-0 L -6.01183,0.187988 L -6.04712,0.373032 L -6.10533,0.552185 L -6.18553,0.722626
 L -6.28647,0.881668 L -6.40654,1.02681 L -6.54385,1.15576 L -6.69626,1.26648 L -6.86133,1.35724 L -7.03647,1.42657
 L -7.21892,1.47342 L -7.40581,1.49704 z
M 7.40581,1.49704 L 7.21892,1.47342 L 7.03647,1.42657 L 6.86133,1.35724 L 6.69626,1.26648 L 6.54385,1.15576
 L 6.40654,1.02681 L 6.28647,0.881668 L 6.18553,0.722626 L 6.10533,0.552185 L 6.04712,0.373032 L 6.01183,0.187988
 L 6,-0 L 6.01183,-0.187988 L 6.04712,-0.373032 L 6.10533,-0.552185 L 6.18553,-0.722626 L 6.28647,-0.881668
 L 6.40654,-1.02681 L 6.54385,-1.15576 L 6.69626,-1.26648 L 6.86133,-1.35724 L 7.03647,-1.42657 L 7.21892,-1.47342
 L 7.40581,-1.49704 L 8.09418,-1.49704 L 8.28107,-1.47342 L 8.46352,-1.42657 L 8.63866,-1.35724 L 8.80373,-1.26648
 L 8.95613,-1.15576 L 9.09344,-1.02681 L 9.21352,-0.881668 L 9.31445,-0.722626 L 9.39465,-0.552185 L 9.45287,-0.373032
 L 9.48816,-0.187988 L 9.5,-0 L 9.48816,0.187988 L 9.45287,0.373032 L 9.39465,0.552185 L 9.31445,0.722626
 L 9.21352,0.881668 L 9.09344,1.02681 L 8.95613,1.15576 L 8.80373,1.26648 L 8.63866,1.35724 L 8.46352,1.42657
 L 8.28107,1.47342 L 8.09418,1.49704 z
M -0.0941772,8.99704 L -0.281067,8.97342 L -0.463516,8.92657 L -0.638657,8.85724 L -0.803726,8.76648 L -0.956131,8.65576
 L -1.09344,8.52681 L -1.21352,8.38167 L -1.31445,8.22263 L -1.39465,8.05219 L -1.45287,7.87303 L -1.48816,7.68799
 L -1.5,7.5 L -1.48816,7.312 L -1.45287,7.12695 L -1.39465,6.9478 L -1.31445,6.77736 L -1.21352,6.61832
 L -1.09344,6.47318 L -0.956131,6.34422 L -0.803726,6.23351 L -0.638657,6.14275 L -0.463516,6.07341 L -0.281067,6.02657
 L -0.0941772,6.00294 L 0.0941772,6.00294 L 0.281067,6.02657 L 0.463516,6.07341 L 0.638657,6.14275 L 0.803726,6.23351
 L 0.956131,6.34422 L 1.09344,6.47318 L 1.21352,6.61832 L 1.31445,6.77736 L 1.39465,6.9478 L 1.45287,7.12695
 L 1.48816,7.312 L 1.5,7.5 L 1.48816,7.68799 L 1.45287,7.87303 L 1.39465,8.05219 L 1.31445,8.22263
 L 1.21352,8.38167 L 1.09344,8.52681 L 0.956131,8.65576 L 0.803726,8.76648 L 0.638657,8.85724 L 0.463516,8.92657
 L 0.281067,8.97342 L 0.0941772,8.99704 z
M 10.4186,13.6011 L 10.0448,13.5538 L 9.67995,13.4602 L 9.32965,13.3215 L 8.99951,13.14 L 8.69472,12.9185
 L 8.42009,12.6606 L 8.17995,12.3703 L 7.97807,12.0522 L 7.81766,11.7114 L 7.70125,11.3531 L 7.63065,10.983
 L 7.60699,10.607 L 7.63065,10.231 L 7.70125,9.86092 L 7.81766,9.50262 L 7.97807,9.16173 L 8.17995,8.84364
 L 8.42009,8.55334 L 8.69472,8.29546 L 8.99951,8.07401 L 9.32965,7.89252 L 9.67995,7.75383 L 10.0448,7.66013
 L 10.4186,7.61292 L 10.7954,7.61292 L 11.1691,7.66013 L 11.534,7.75383 L 11.8843,7.89252 L 12.2145,8.07401
 L 12.5193,8.29546 L 12.7939,8.55334 L 13.034,8.84364 L 13.2359,9.16173 L 13.3963,9.50262 L 13.5127,9.86092
 L 13.5833,10.231 L 13.607,10.607 L 13.5833,10.983 L 13.5127,11.3531 L 13.3963,11.7114 L 13.2359,12.0522
 L 13.034,12.3703 L 12.7939,12.6606 L 12.5193,12.9185 L 12.2145,13.14 L 11.8843,13.3215 L 11.534,13.4602
 L 11.1691,13.5538 L 10.7954,13.6011 z
M -10.7954,13.6011 L -11.1691,13.5538 L -11.534,13.4602 L -11.8843,13.3215 L -12.2145,13.14 L -12.5193,12.9185
 L -12.7939,12.6606 L -13.034,12.3703 L -13.2359,12.0522 L -13.3963,11.7114 L -13.5127,11.3531 L -13.5833,10.983
 L -13.607,10.607 L -13.5833,10.231 L -13.5127,9.86092 L -13.3963,9.50262 L -13.2359,9.16173 L -13.034,8.84364
 L -12.7939,8.55334 L -12.5193,8.29546 L -12.2145,8.07401 L -11.8843,7.89252 L -11.534,7.75383 L -11.1691,7.66013
 L -10.7954,7.61292 L -10.4186,7.61292 L -10.0448,7.66013 L -9.67995,7.75383 L -9.32965,7.89252 L -8.99951,8.07401
 L -8.69472,8.29546 L -8.42009,8.55334 L -8.17995,8.84364 L -7.97807,9.16173 L -7.81766,9.50262 L -7.70125,9.86092
 L -7.63065,10.231 L -7.60699,10.607 L -7.63065,10.983 L -7.70125,11.3531 L -7.81766,11.7114 L -7.97807,12.0522
 L -8.17995,12.3703 L -8.42009,12.6606 L -8.69472,12.9185 L -8.99951,13.14 L -9.32965,13.3215 L -9.67995,13.4602
 L -10.0448,13.5538 L -10.4186,13.6011 z
M -0.18837,17.9941 L -0.562134,17.9469 L -0.927048,17.8532 L -1.27733,17.7145 L -1.60747,17.533 L -1.91226,17.3115
 L -2.1869,17.0536 L -2.42705,16.7634 L -2.62891,16.4453 L -2.78932,16.1044 L -2.90575,15.7461 L -2.97633,15.376
 L -3,15 L -2.97633,14.624 L -2.90575,14.2539 L -2.78932,13.8956 L -2.62891,13.5547 L -2.42705,13.2366
 L -2.1869,12.9464 L -1.91226,12.6884 L -1.60747,12.467 L -1.27733,12.2855 L -0.927048,12.1468 L -0.562134,12.0531
 L -0.18837,12.0059 L 0.18837,12.0059 L 0.562134,12.0531 L 0.927048,12.1468 L 1.27733,12.2855 L 1.60747,12.467
 L 1.91226,12.6884 L 2.1869,12.9464 L 2.42705,13.2366 L 2.62891,13.5547 L 2.78932,13.8956 L 2.90575,14.2539
 L 2.97633,14.624 L 3,15 L 2.97633,15.376 L 2.90575,15.7461 L 2.78932,16.1044 L 2.62891,16.4453
 L 2.42705,16.7634 L 2.1869,17.0536 L 1.91226,17.3115 L 1.60747,17.533 L 1.27733,17.7145 L 0.927048,17.8532
 L 0.562134,17.9469 L 0.18837,17.9941 z
" stroke="black" fill="lightgray" stroke-width="0.5"/>
</svg>
