<?xml version="1.0" standalone="no"?>
<!DOCTYPE svg PUBLIC "-//W3C//DTD SVG 1.1//EN" "http://www.w3.org/Graphics/SVG/1.1/DTD/svg11.dtd">
<svg width="14mm" height="260mm" viewBox="-7 -508 14 260" xmlns="http://www.w3.org/2000/svg" version="1.1">
<title>OpenSCAD Model</title>
<path d="
M 2.9369,-464.089 L 3.54507,-464.245 L 4.12889,-464.476 L 4.67912,-464.778 L 5.18712,-465.147 L 5.64484,-465.577
 L 6.04507,-466.061 L 6.38153,-466.591 L 6.64888,-467.159 L 6.84291,-467.757 L 6.96057,-468.373 L 7,-469
 L 7,-503 L 6.96057,-503.627 L 6.84291,-504.243 L 6.64888,-504.841 L 6.38153,-505.409 L 6.04507,-505.939
 L 5.64484,-506.423 L 5.18712,-506.853 L 4.67912,-507.222 L 4.12889,-507.524 L 3.54507,-507.755 L 2.9369,-507.911
 L 2.31395,-507.99 L -2.31395,-507.99 L -2.9369,-507.911 L -3.54507,-507.755 L -4.12889,-507.524 L -4.67912,-507.222
 L -5.18712,-506.853 L -5.64484,-506.423 L -6.04507,-505.939 L -6.38153,-505.409 L -6.64888,-504.841 L -6.84291,-504.243
 L -6.96057,-503.627 L -7,-503 L -7,-469 L -6.96057,-468.373 L -6.84291,-467.757 L -6.64888,-467.159
 L -6.38153,-466.591 L -6.04507,-466.061 L -5.64484,-465.577 L -5.18712,-465.147 L -4.67912,-464.778 L -4.12889,-464.476
 L -3.54507,-464.245 L -2.9369,-464.089 L -2.31395,-464.01 L 2.31395,-464.01 z
M -2.04825,-464.509 L -2.64006,-464.584 L -3.21782,-464.732 L -3.77245,-464.952 L -4.29517,-465.239 L -4.77776,-465.59
 L -5.2126,-465.998 L -5.59282,-466.458 L -5.91245,-466.962 L -6.16643,-467.501 L -6.35077,-468.069 L -6.46254,-468.655
 L -6.5,-469.25 L -6.5,-502.75 L -6.46254,-503.345 L -6.35077,-503.931 L -6.16643,-504.499 L -5.91245,-505.038
 L -5.59282,-505.542 L -5.2126,-506.002 L -4.77776,-506.41 L -4.29517,-506.761 L -3.77245,-507.048 L -3.21782,-507.268
 L -2.64006,-507.416 L -2.04825,-507.491 L 2.04825,-507.491 L 2.64006,-507.416 L 3.21782,-507.268 L 3.77245,-507.048
 L 4.29517,-506.761 L 4.77776,-506.41 L 5.2126,-506.002 L 5.59282,-505.542 L 5.91245,-505.038 L 6.16643,-504.499
 L 6.35077,-503.931 L 6.46254,-503.345 L 6.5,-502.75 L 6.5,-469.25 L 6.46254,-468.655 L 6.35077,-468.069
 L 6.16643,-467.501 L 5.91245,-466.962 L 5.59282,-466.458 L 5.2126,-465.998 L 4.77776,-465.59 L 4.29517,-465.239
 L 3.77245,-464.952 L 3.21782,-464.732 L 2.64006,-464.584 L 2.04825,-464.509 z
M 2.9369,-410.089 L 3.54507,-410.245 L 4.12889,-410.476 L 4.67912,-410.778 L 5.18712,-411.147 L 5.64484,-411.577
 L 6.04507,-412.061 L 6.38153,-412.591 L 6.64888,-413.159 L 6.84291,-413.757 L 6.96057,-414.373 L 7,-415
 L 7,-449 L 6.96057,-449.627 L 6.84291,-450.243 L 6.64888,-450.841 L 6.38153,-451.409 L 6.04507,-451.939
 L 5.64484,-452.423 L 5.18712,-452.853 L 4.67912,-453.222 L 4.12889,-453.524 L 3.54507,-453.755 L 2.9369,-453.911
 L 2.31395,-453.99 L -2.31395,-453.99 L -2.9369,-453.911 L -3.54507,-453.755 L -4.12889,-453.524 L -4.67912,-453.222
 L -5.18712,-452.853 L -5.64484,-452.423 L -6.04507,-451.939 L -6.38153,-451.409 L -6.64888,-450.841 L -6.84291,-450.243
 L -6.96057,-449.627 L -7,-449 L -7,-415 L -6.96057,-414.373 L -6.84291,-413.757 L -6.64888,-413.159
 L -6.38153,-412.591 L -6.04507,-412.061 L -5.64484,-411.577 L -5.18712,-411.147 L -4.67912,-410.778 L -4.12889,-410.476
 L -3.54507,-410.245 L -2.9369,-410.089 L -2.31395,-410.01 L 2.31395,-410.01 z
M -2.04825,-410.509 L -2.64006,-410.584 L -3.21782,-410.732 L -3.77245,-410.952 L -4.29517,-411.239 L -4.77776,-411.59
 L -5.2126,-411.998 L -5.59282,-412.458 L -5.91245,-412.962 L -6.16643,-413.501 L -6.35077,-414.069 L -6.46254,-414.655
 L -6.5,-415.25 L -6.5,-448.75 L -6.46254,-449.345 L -6.35077,-449.931 L -6.16643,-450.499 L -5.91245,-451.038
 L -5.59282,-451.542 L -5.2126,-452.002 L -4.77776,-452.41 L -4.29517,-452.761 L -3.77245,-453.048 L -3.21782,-453.268
 L -2.64006,-453.416 L -2.04825,-453.491 L 2.04825,-453.491 L 2.64006,-453.416 L 3.21782,-453.268 L 3.77245,-453.048
 L 4.29517,-452.761 L 4.77776,-452.41 L 5.2126,-452.002 L 5.59282,-451.542 L 5.91245,-451.038 L 6.16643,-450.499
 L 6.35077,-449.931 L 6.46254,-449.345 L 6.5,-448.75 L 6.5,-415.25 L 6.46254,-414.655 L 6.35077,-414.069
 L 6.16643,-413.501 L 5.91245,-412.962 L 5.59282,-412.458 L 5.2126,-411.998 L 4.77776,-411.59 L 4.29517,-411.239
 L 3.77245,-410.952 L 3.21782,-410.732 L 2.64006,-410.584 L 2.04825,-410.509 z
M 2.9369,-356.089 L 3.54507,-356.245 L 4.12889,-356.476 L 4.67912,-356.778 L 5.18712,-357.147 L 5.64484,-357.577
 L 6.04507,-358.061 L 6.38153,-358.591 L 6.64888,-359.159 L 6.84291,-359.757 L 6.96057,-360.373 L 7,-361
 L 7,-395 L 6.96057,-395.627 L 6.84291,-396.243 L 6.64888,-396.841 L 6.38153,-397.409 L 6.04507,-397.939
 L 5.64484,-398.423 L 5.18712,-398.853 L 4.67912,-399.222 L 4.12889,-399.524 L 3.54507,-399.755 L 2.9369,-399.911
 L 2.31395,-399.99 L -2.31395,-399.99 L -2.9369,-399.911 L -3.54507,-399.755 L -4.12889,-399.524 L -4.67912,-399.222
 L -5.18712,-398.853 L -5.64484,-398.423 L -6.04507,-397.939 L -6.38153,-397.409 L -6.64888,-396.841 L -6.84291,-396.243
 L -6.96057,-395.627 L -7,-395 L -7,-361 L -6.96057,-360.373 L -6.84291,-359.757 L -6.64888,-359.159
 L -6.38153,-358.591 L -6.04507,-358.061 L -5.64484,-357.577 L -5.18712,-357.147 L -4.67912,-356.778 L -4.12889,-356.476
 L -3.54507,-356.245 L -2.9369,-356.089 L -2.31395,-356.01 L 2.31395,-356.01 z
M -2.04825,-356.509 L -2.64006,-356.584 L -3.21782,-356.732 L -3.77245,-356.952 L -4.29517,-357.239 L -4.77776,-357.59
 L -5.2126,-357.998 L -5.59282,-358.458 L -5.91245,-358.962 L -6.16643,-359.501 L -6.35077,-360.069 L -6.46254,-360.655
 L -6.5,-361.25 L -6.5,-394.75 L -6.46254,-395.345 L -6.35077,-395.931 L -6.16643,-396.499 L -5.91245,-397.038
 L -5.59282,-397.542 L -5.2126,-398.002 L -4.77776,-398.41 L -4.29517,-398.761 L -3.77245,-399.048 L -3.21782,-399.268
 L -2.64006,-399.416 L -2.04825,-399.491 L 2.04825,-399.491 L 2.64006,-399.416 L 3.21782,-399.268 L 3.77245,-399.048
 L 4.29517,-398.761 L 4.77776,-398.41 L 5.2126,-398.002 L 5.59282,-397.542 L 5.91245,-397.038 L 6.16643,-396.499
 L 6.35077,-395.931 L 6.46254,-395.345 L 6.5,-394.75 L 6.5,-361.25 L 6.46254,-360.655 L 6.35077,-360.069
 L 6.16643,-359.501 L 5.91245,-358.962 L 5.59282,-358.458 L 5.2126,-357.998 L 4.77776,-357.59 L 4.29517,-357.239
 L 3.77245,-356.952 L 3.21782,-356.732 L 2.64006,-356.584 L 2.04825,-356.509 z
M 2.9369,-302.089 L 3.54507,-302.245 L 4.12889,-302.476 L 4.67912,-302.778 L 5.18712,-303.147 L 5.64484,-303.577
 L 6.04507,-304.061 L 6.38153,-304.591 L 6.64888,-305.159 L 6.84291,-305.757 L 6.96057,-306.373 L 7,-307
 L 7,-341 L 6.96057,-341.627 L 6.84291,-342.243 L 6.64888,-342.841 L 6.38153,-343.409 L 6.04507,-343.939
 L 5.64484,-344.423 L 5.18712,-344.853 L 4.67912,-345.222 L 4.12889,-345.524 L 3.54507,-345.755 L 2.9369,-345.911
 L 2.31395,-345.99 L -2.31395,-345.99 L -2.9369,-345.911 L -3.54507,-345.755 L -4.12889,-345.524 L -4.67912,-345.222
 L -5.18712,-344.853 L -5.64484,-344.423 L -6.04507,-343.939 L -6.38153,-343.409 L -6.64888,-342.841 L -6.84291,-342.243
 L -6.96057,-341.627 L -7,-341 L -7,-307 L -6.96057,-306.373 L -6.84291,-305.757 L -6.64888,-305.159
 L -6.38153,-304.591 L -6.04507,-304.061 L -5.64484,-303.577 L -5.18712,-303.147 L -4.67912,-302.778 L -4.12889,-302.476
 L -3.54507,-302.245 L -2.9369,-302.089 L -2.31395,-302.01 L 2.31395,-302.01 z
M -2.03748,-302.681 L -2.60791,-302.753 L -3.16481,-302.896 L -3.6994,-303.107 L -4.20325,-303.384 L -4.6684,-303.722
 L -5.08754,-304.116 L -5.45403,-304.559 L -5.76212,-305.044 L -6.00691,-305.565 L -6.18459,-306.111 L -6.29233,-306.676
 L -6.32843,-307.25 L -6.32843,-340.75 L -6.29233,-341.324 L -6.18459,-341.889 L -6.00691,-342.435 L -5.76212,-342.956
 L -5.45403,-343.441 L -5.08754,-343.884 L -4.6684,-344.278 L -4.20325,-344.616 L -3.6994,-344.893 L -3.16481,-345.104
 L -2.60791,-345.247 L -2.03748,-345.319 L 2.03748,-345.319 L 2.60791,-345.247 L 3.16481,-345.104 L 3.6994,-344.893
 L 4.20325,-344.616 L 4.6684,-344.278 L 5.08754,-343.884 L 5.45403,-343.441 L 5.76212,-342.956 L 6.00691,-342.435
 L 6.18459,-341.889 L 6.29233,-341.324 L 6.32843,-340.75 L 6.32843,-307.25 L 6.29233,-306.676 L 6.18459,-306.111
 L 6.00691,-305.565 L 5.76212,-305.044 L 5.45403,-304.559 L 5.08754,-304.116 L 4.6684,-303.722 L 4.20325,-303.384
 L 3.6994,-303.107 L 3.16481,-302.896 L 2.60791,-302.753 L 2.03748,-302.681 z
M 2.9369,-248.089 L 3.54507,-248.245 L 4.12889,-248.476 L 4.67912,-248.778 L 5.18712,-249.147 L 5.64484,-249.577
 L 6.04507,-250.061 L 6.38153,-250.591 L 6.64888,-251.159 L 6.84291,-251.757 L 6.96057,-252.373 L 7,-253
 L 7,-287 L 6.96057,-287.627 L 6.84291,-288.243 L 6.64888,-288.841 L 6.38153,-289.409 L 6.04507,-289.939
 L 5.64484,-290.423 L 5.18712,-290.853 L 4.67912,-291.222 L 4.12889,-291.524 L 3.54507,-291.755 L 2.9369,-291.911
 L 2.31395,-291.99 L -2.31395,-291.99 L -2.9369,-291.911 L -3.54507,-291.755 L -4.12889,-291.524 L -4.67912,-291.222
 L -5.18712,-290.853 L -5.64484,-290.423 L -6.04507,-289.939 L -6.38153,-289.409 L -6.64888,-288.841 L -6.84291,-288.243
 L -6.96057,-287.627 L -7,-287 L -7,-253 L -6.96057,-252.373 L -6.84291,-251.757 L -6.64888,-251.159
 L -6.38153,-250.591 L -6.04507,-250.061 L -5.64484,-249.577 L -5.18712,-249.147 L -4.67912,-248.778 L -4.12889,-248.476
 L -3.54507,-248.245 L -2.9369,-248.089 L -2.31395,-248.01 L 2.31395,-248.01 z
M -1.88246,-251.145 L -2.14529,-251.178 L -2.4019,-251.244 L -2.64822,-251.341 L -2.88039,-251.469 L -3.09473,-251.625
 L -3.28784,-251.806 L -3.45673,-252.01 L -3.59868,-252.234 L -3.71149,-252.473 L -3.79335,-252.725 L -3.84299,-252.986
 L -3.85962,-253.25 L -3.85962,-286.75 L -3.84299,-287.014 L -3.79335,-287.275 L -3.71149,-287.527 L -3.59868,-287.766
 L -3.45673,-287.99 L -3.28784,-288.194 L -3.09473,-288.375 L -2.88039,-288.531 L -2.64822,-288.659 L -2.4019,-288.756
 L -2.14529,-288.822 L -1.88246,-288.855 L 1.88246,-288.855 L 2.14529,-288.822 L 2.4019,-288.756 L 2.64822,-288.659
 L 2.88039,-288.531 L 3.09473,-288.375 L 3.28784,-288.194 L 3.45673,-287.99 L 3.59868,-287.766 L 3.71149,-287.527
 L 3.79335,-287.275 L 3.84299,-287.014 L 3.85962,-286.75 L 3.85962,-253.25 L 3.84299,-252.986 L 3.79335,-252.725
 L 3.71149,-252.473 L 3.59868,-252.234 L 3.45673,-252.01 L 3.28784,-251.806 L 3.09473,-251.625 L 2.88039,-251.469
 L 2.64822,-251.341 L 2.4019,-251.244 L 2.14529,-251.178 L 1.88246,-251.145 z
" stroke="black" fill="lightgray" stroke-width="0.5"/>
</svg>
