solid OpenSCAD_Model
  facet normal 0.998026 0.0628081 0
    outer loop
      vertex 2.4 0 0
      vertex 2.38107 0.300799 -3
      vertex 2.38107 0.300799 0
    endloop
  endfacet
  facet normal 0.998026 0.0628081 0
    outer loop
      vertex 2.38107 0.300799 -3
      vertex 2.4 0 0
      vertex 2.4 0 -3
    endloop
  endfacet
  facet normal -0.998026 0.0628081 0
    outer loop
      vertex -2.4 0 -3
      vertex -2.38107 0.300799 0
      vertex -2.38107 0.300799 -3
    endloop
  endfacet
  facet normal -0.998026 0.0628081 0
    outer loop
      vertex -2.38107 0.300799 0
      vertex -2.4 0 -3
      vertex -2.4 0 0
    endloop
  endfacet
  facet normal 0 1 -0
    outer loop
      vertex 0.150697 2.39526 -3
      vertex -0.150697 2.39526 0
      vertex 0.150697 2.39526 0
    endloop
  endfacet
  facet normal 0 1 0
    outer loop
      vertex -0.150697 2.39526 0
      vertex 0.150697 2.39526 -3
      vertex -0.150697 2.39526 -3
    endloop
  endfacet
  facet normal 0 -1 0
    outer loop
      vertex -0.150697 -2.39526 -3
      vertex 0.150697 -2.39526 0
      vertex -0.150697 -2.39526 0
    endloop
  endfacet
  facet normal 0 -1 -0
    outer loop
      vertex 0.150697 -2.39526 0
      vertex -0.150697 -2.39526 -3
      vertex 0.150697 -2.39526 -3
    endloop
  endfacet
  facet normal 0.684561 -0.728955 0
    outer loop
      vertex 1.52982 -1.84923 -3
      vertex 1.74952 -1.64291 0
      vertex 1.52982 -1.84923 0
    endloop
  endfacet
  facet normal 0.684561 -0.728955 0
    outer loop
      vertex 1.74952 -1.64291 0
      vertex 1.52982 -1.84923 -3
      vertex 1.74952 -1.64291 -3
    endloop
  endfacet
  facet normal 0.684561 0.728955 -0
    outer loop
      vertex 1.74952 1.64291 -3
      vertex 1.52982 1.84923 0
      vertex 1.74952 1.64291 0
    endloop
  endfacet
  facet normal 0.684561 0.728955 0
    outer loop
      vertex 1.52982 1.84923 0
      vertex 1.74952 1.64291 -3
      vertex 1.52982 1.84923 -3
    endloop
  endfacet
  facet normal -0.684561 0.728955 0
    outer loop
      vertex -1.52982 1.84923 -3
      vertex -1.74952 1.64291 0
      vertex -1.52982 1.84923 0
    endloop
  endfacet
  facet normal -0.684561 0.728955 0
    outer loop
      vertex -1.74952 1.64291 0
      vertex -1.52982 1.84923 -3
      vertex -1.74952 1.64291 -3
    endloop
  endfacet
  facet normal -0.368151 0.929766 0
    outer loop
      vertex -0.74164 2.28254 -3
      vertex -1.02187 2.17158 0
      vertex -0.74164 2.28254 0
    endloop
  endfacet
  facet normal -0.368151 0.929766 0
    outer loop
      vertex -1.02187 2.17158 0
      vertex -0.74164 2.28254 -3
      vertex -1.02187 2.17158 -3
    endloop
  endfacet
  facet normal 0.904838 -0.425756 0
    outer loop
      vertex 2.10314 -1.15621 0
      vertex 2.23146 -0.883498 -3
      vertex 2.23146 -0.883498 0
    endloop
  endfacet
  facet normal 0.904838 -0.425756 0
    outer loop
      vertex 2.23146 -0.883498 -3
      vertex 2.10314 -1.15621 0
      vertex 2.10314 -1.15621 -3
    endloop
  endfacet
  facet normal 0.904838 0.425756 0
    outer loop
      vertex 2.23146 0.883498 0
      vertex 2.10314 1.15621 -3
      vertex 2.10314 1.15621 0
    endloop
  endfacet
  facet normal 0.904838 0.425756 0
    outer loop
      vertex 2.10314 1.15621 -3
      vertex 2.23146 0.883498 0
      vertex 2.23146 0.883498 -3
    endloop
  endfacet
  facet normal 0.844315 0.535847 0
    outer loop
      vertex 2.10314 1.15621 0
      vertex 1.94164 1.41068 -3
      vertex 1.94164 1.41068 0
    endloop
  endfacet
  facet normal 0.844315 0.535847 0
    outer loop
      vertex 1.94164 1.41068 -3
      vertex 2.10314 1.15621 0
      vertex 2.10314 1.15621 -3
    endloop
  endfacet
  facet normal 0.368151 0.929766 -0
    outer loop
      vertex 1.02187 2.17158 -3
      vertex 0.74164 2.28254 0
      vertex 1.02187 2.17158 0
    endloop
  endfacet
  facet normal 0.368151 0.929766 0
    outer loop
      vertex 0.74164 2.28254 0
      vertex 1.02187 2.17158 -3
      vertex 0.74164 2.28254 -3
    endloop
  endfacet
  facet normal 0.587785 0.809017 -0
    outer loop
      vertex 1.52982 1.84923 -3
      vertex 1.28598 2.02639 0
      vertex 1.52982 1.84923 0
    endloop
  endfacet
  facet normal 0.587785 0.809017 0
    outer loop
      vertex 1.28598 2.02639 0
      vertex 1.52982 1.84923 -3
      vertex 1.28598 2.02639 -3
    endloop
  endfacet
  facet normal -0.904838 0.425756 0
    outer loop
      vertex -2.23146 0.883498 -3
      vertex -2.10314 1.15621 0
      vertex -2.10314 1.15621 -3
    endloop
  endfacet
  facet normal -0.904838 0.425756 0
    outer loop
      vertex -2.10314 1.15621 0
      vertex -2.23146 0.883498 -3
      vertex -2.23146 0.883498 0
    endloop
  endfacet
  facet normal -0.770509 0.637429 0
    outer loop
      vertex -1.94164 1.41068 -3
      vertex -1.74952 1.64291 0
      vertex -1.74952 1.64291 -3
    endloop
  endfacet
  facet normal -0.770509 0.637429 0
    outer loop
      vertex -1.74952 1.64291 0
      vertex -1.94164 1.41068 -3
      vertex -1.94164 1.41068 0
    endloop
  endfacet
  facet normal 0 0 1
    outer loop
      vertex 2.38107 0.300799 0
      vertex 2.38107 -0.300799 0
      vertex 2.4 0 0
    endloop
  endfacet
  facet normal 0 0 1
    outer loop
      vertex 2.3246 0.596855 0
      vertex 2.38107 -0.300799 0
      vertex 2.38107 0.300799 0
    endloop
  endfacet
  facet normal 0 0 1
    outer loop
      vertex 2.3246 0.596855 0
      vertex 2.3246 -0.596855 0
      vertex 2.38107 -0.300799 0
    endloop
  endfacet
  facet normal 0 0 1
    outer loop
      vertex 2.23146 0.883498 0
      vertex 2.3246 -0.596855 0
      vertex 2.3246 0.596855 0
    endloop
  endfacet
  facet normal 0 0 1
    outer loop
      vertex 2.23146 0.883498 0
      vertex 2.23146 -0.883498 0
      vertex 2.3246 -0.596855 0
    endloop
  endfacet
  facet normal 0 0 1
    outer loop
      vertex 2.10314 1.15621 0
      vertex 2.23146 -0.883498 0
      vertex 2.23146 0.883498 0
    endloop
  endfacet
  facet normal 0 0 1
    outer loop
      vertex 2.10314 1.15621 0
      vertex 2.10314 -1.15621 0
      vertex 2.23146 -0.883498 0
    endloop
  endfacet
  facet normal 0 0 1
    outer loop
      vertex 1.94164 1.41068 0
      vertex 2.10314 -1.15621 0
      vertex 2.10314 1.15621 0
    endloop
  endfacet
  facet normal 0 0 1
    outer loop
      vertex 1.94164 1.41068 0
      vertex 1.94164 -1.41068 0
      vertex 2.10314 -1.15621 0
    endloop
  endfacet
  facet normal 0 0 1
    outer loop
      vertex 1.74952 1.64291 0
      vertex 1.94164 -1.41068 0
      vertex 1.94164 1.41068 0
    endloop
  endfacet
  facet normal 0 0 1
    outer loop
      vertex 1.74952 1.64291 0
      vertex 1.74952 -1.64291 0
      vertex 1.94164 -1.41068 0
    endloop
  endfacet
  facet normal 0 0 1
    outer loop
      vertex 1.52982 1.84923 0
      vertex 1.74952 -1.64291 0
      vertex 1.74952 1.64291 0
    endloop
  endfacet
  facet normal 0 0 1
    outer loop
      vertex 1.52982 1.84923 0
      vertex 1.52982 -1.84923 0
      vertex 1.74952 -1.64291 0
    endloop
  endfacet
  facet normal 0 0 1
    outer loop
      vertex 1.28598 2.02639 0
      vertex 1.52982 -1.84923 0
      vertex 1.52982 1.84923 0
    endloop
  endfacet
  facet normal 0 0 1
    outer loop
      vertex 1.28598 2.02639 0
      vertex 1.28598 -2.02639 0
      vertex 1.52982 -1.84923 0
    endloop
  endfacet
  facet normal 0 0 1
    outer loop
      vertex 1.02187 2.17158 0
      vertex 1.28598 -2.02639 0
      vertex 1.28598 2.02639 0
    endloop
  endfacet
  facet normal 0 0 1
    outer loop
      vertex 1.02187 2.17158 0
      vertex 1.02187 -2.17158 0
      vertex 1.28598 -2.02639 0
    endloop
  endfacet
  facet normal 0 0 1
    outer loop
      vertex 0.74164 2.28254 0
      vertex 1.02187 -2.17158 0
      vertex 1.02187 2.17158 0
    endloop
  endfacet
  facet normal 0 0 1
    outer loop
      vertex 0.74164 2.28254 0
      vertex 0.74164 -2.28254 0
      vertex 1.02187 -2.17158 0
    endloop
  endfacet
  facet normal 0 0 1
    outer loop
      vertex 0.449715 2.35749 0
      vertex 0.74164 -2.28254 0
      vertex 0.74164 2.28254 0
    endloop
  endfacet
  facet normal 0 0 1
    outer loop
      vertex 0.449715 2.35749 0
      vertex 0.449715 -2.35749 0
      vertex 0.74164 -2.28254 0
    endloop
  endfacet
  facet normal 0 0 1
    outer loop
      vertex 0.150697 2.39526 0
      vertex 0.449715 -2.35749 0
      vertex 0.449715 2.35749 0
    endloop
  endfacet
  facet normal 0 0 1
    outer loop
      vertex 0.150697 2.39526 0
      vertex 0.150697 -2.39526 0
      vertex 0.449715 -2.35749 0
    endloop
  endfacet
  facet normal -0 0 1
    outer loop
      vertex -0.150697 2.39526 0
      vertex 0.150697 -2.39526 0
      vertex 0.150697 2.39526 0
    endloop
  endfacet
  facet normal 0 0 1
    outer loop
      vertex -0.150697 2.39526 0
      vertex -0.150697 -2.39526 0
      vertex 0.150697 -2.39526 0
    endloop
  endfacet
  facet normal -0 0 1
    outer loop
      vertex -0.449715 2.35749 0
      vertex -0.150697 -2.39526 0
      vertex -0.150697 2.39526 0
    endloop
  endfacet
  facet normal 0 0 1
    outer loop
      vertex -0.449715 2.35749 0
      vertex -0.449715 -2.35749 0
      vertex -0.150697 -2.39526 0
    endloop
  endfacet
  facet normal -0 0 1
    outer loop
      vertex -0.74164 2.28254 0
      vertex -0.449715 -2.35749 0
      vertex -0.449715 2.35749 0
    endloop
  endfacet
  facet normal 0 0 1
    outer loop
      vertex -0.74164 2.28254 0
      vertex -0.74164 -2.28254 0
      vertex -0.449715 -2.35749 0
    endloop
  endfacet
  facet normal -0 0 1
    outer loop
      vertex -1.02187 2.17158 0
      vertex -0.74164 -2.28254 0
      vertex -0.74164 2.28254 0
    endloop
  endfacet
  facet normal 0 0 1
    outer loop
      vertex -1.02187 2.17158 0
      vertex -1.02187 -2.17158 0
      vertex -0.74164 -2.28254 0
    endloop
  endfacet
  facet normal -0 0 1
    outer loop
      vertex -1.28598 2.02639 0
      vertex -1.02187 -2.17158 0
      vertex -1.02187 2.17158 0
    endloop
  endfacet
  facet normal 0 0 1
    outer loop
      vertex -1.28598 2.02639 0
      vertex -1.28598 -2.02639 0
      vertex -1.02187 -2.17158 0
    endloop
  endfacet
  facet normal -0 0 1
    outer loop
      vertex -1.52982 1.84923 0
      vertex -1.28598 -2.02639 0
      vertex -1.28598 2.02639 0
    endloop
  endfacet
  facet normal 0 0 1
    outer loop
      vertex -1.52982 1.84923 0
      vertex -1.52982 -1.84923 0
      vertex -1.28598 -2.02639 0
    endloop
  endfacet
  facet normal -0 0 1
    outer loop
      vertex -1.74952 1.64291 0
      vertex -1.52982 -1.84923 0
      vertex -1.52982 1.84923 0
    endloop
  endfacet
  facet normal 0 0 1
    outer loop
      vertex -1.74952 1.64291 0
      vertex -1.74952 -1.64291 0
      vertex -1.52982 -1.84923 0
    endloop
  endfacet
  facet normal -0 0 1
    outer loop
      vertex -1.94164 1.41068 0
      vertex -1.74952 -1.64291 0
      vertex -1.74952 1.64291 0
    endloop
  endfacet
  facet normal 0 0 1
    outer loop
      vertex -1.94164 1.41068 0
      vertex -1.94164 -1.41068 0
      vertex -1.74952 -1.64291 0
    endloop
  endfacet
  facet normal -0 0 1
    outer loop
      vertex -2.10314 1.15621 0
      vertex -1.94164 -1.41068 0
      vertex -1.94164 1.41068 0
    endloop
  endfacet
  facet normal 0 0 1
    outer loop
      vertex -2.10314 1.15621 0
      vertex -2.10314 -1.15621 0
      vertex -1.94164 -1.41068 0
    endloop
  endfacet
  facet normal -0 0 1
    outer loop
      vertex -2.23146 0.883498 0
      vertex -2.10314 -1.15621 0
      vertex -2.10314 1.15621 0
    endloop
  endfacet
  facet normal 0 0 1
    outer loop
      vertex -2.23146 0.883498 0
      vertex -2.23146 -0.883498 0
      vertex -2.10314 -1.15621 0
    endloop
  endfacet
  facet normal -0 0 1
    outer loop
      vertex -2.3246 0.596855 0
      vertex -2.23146 -0.883498 0
      vertex -2.23146 0.883498 0
    endloop
  endfacet
  facet normal 0 0 1
    outer loop
      vertex -2.3246 0.596855 0
      vertex -2.3246 -0.596855 0
      vertex -2.23146 -0.883498 0
    endloop
  endfacet
  facet normal -0 0 1
    outer loop
      vertex -2.38107 0.300799 0
      vertex -2.3246 -0.596855 0
      vertex -2.3246 0.596855 0
    endloop
  endfacet
  facet normal 0 0 1
    outer loop
      vertex -2.38107 0.300799 0
      vertex -2.38107 -0.300799 0
      vertex -2.3246 -0.596855 0
    endloop
  endfacet
  facet normal 0 -0 1
    outer loop
      vertex -2.38107 -0.300799 0
      vertex -2.38107 0.300799 0
      vertex -2.4 0 0
    endloop
  endfacet
  facet normal -0.481739 0.876315 0
    outer loop
      vertex -1.02187 2.17158 -3
      vertex -1.28598 2.02639 0
      vertex -1.02187 2.17158 0
    endloop
  endfacet
  facet normal -0.481739 0.876315 0
    outer loop
      vertex -1.28598 2.02639 0
      vertex -1.02187 2.17158 -3
      vertex -1.28598 2.02639 -3
    endloop
  endfacet
  facet normal -0.248679 0.968586 0
    outer loop
      vertex -0.449715 2.35749 -3
      vertex -0.74164 2.28254 0
      vertex -0.449715 2.35749 0
    endloop
  endfacet
  facet normal -0.248679 0.968586 0
    outer loop
      vertex -0.74164 2.28254 0
      vertex -0.449715 2.35749 -3
      vertex -0.74164 2.28254 -3
    endloop
  endfacet
  facet normal 0.982291 -0.187363 0
    outer loop
      vertex 2.3246 -0.596855 0
      vertex 2.38107 -0.300799 -3
      vertex 2.38107 -0.300799 0
    endloop
  endfacet
  facet normal 0.982291 -0.187363 0
    outer loop
      vertex 2.38107 -0.300799 -3
      vertex 2.3246 -0.596855 0
      vertex 2.3246 -0.596855 -3
    endloop
  endfacet
  facet normal 0 0 -1
    outer loop
      vertex 1.5 0 -3
      vertex 2.4 0 -3
      vertex 2.38107 -0.300799 -3
    endloop
  endfacet
  facet normal 0 0 -1
    outer loop
      vertex 1.48817 -0.188 -3
      vertex 2.38107 -0.300799 -3
      vertex 2.3246 -0.596855 -3
    endloop
  endfacet
  facet normal 0 0 -1
    outer loop
      vertex 2.4 0 -3
      vertex 1.5 0 -3
      vertex 2.38107 0.300799 -3
    endloop
  endfacet
  facet normal 0 0 -1
    outer loop
      vertex 1.45287 -0.373034 -3
      vertex 2.3246 -0.596855 -3
      vertex 2.23146 -0.883498 -3
    endloop
  endfacet
  facet normal 0 0 -1
    outer loop
      vertex 1.48817 0.188 -3
      vertex 2.38107 0.300799 -3
      vertex 1.5 0 -3
    endloop
  endfacet
  facet normal 0 0 -1
    outer loop
      vertex 1.39466 -0.552186 -3
      vertex 2.23146 -0.883498 -3
      vertex 2.10314 -1.15621 -3
    endloop
  endfacet
  facet normal -0 0 -1
    outer loop
      vertex 2.38107 0.300799 -3
      vertex 1.48817 0.188 -3
      vertex 2.3246 0.596855 -3
    endloop
  endfacet
  facet normal 0 0 -1
    outer loop
      vertex 1.31446 -0.722631 -3
      vertex 2.10314 -1.15621 -3
      vertex 1.94164 -1.41068 -3
    endloop
  endfacet
  facet normal 0 0 -1
    outer loop
      vertex 1.45287 0.373034 -3
      vertex 2.3246 0.596855 -3
      vertex 1.48817 0.188 -3
    endloop
  endfacet
  facet normal 0 0 -1
    outer loop
      vertex 1.21352 -0.881678 -3
      vertex 1.94164 -1.41068 -3
      vertex 1.74952 -1.64291 -3
    endloop
  endfacet
  facet normal -0 0 -1
    outer loop
      vertex 2.3246 0.596855 -3
      vertex 1.45287 0.373034 -3
      vertex 2.23146 0.883498 -3
    endloop
  endfacet
  facet normal 0 0 -1
    outer loop
      vertex 1.09345 -1.02682 -3
      vertex 1.74952 -1.64291 -3
      vertex 1.52982 -1.84923 -3
    endloop
  endfacet
  facet normal 0 0 -1
    outer loop
      vertex 1.39466 0.552186 -3
      vertex 2.23146 0.883498 -3
      vertex 1.45287 0.373034 -3
    endloop
  endfacet
  facet normal -0 0 -1
    outer loop
      vertex 2.23146 0.883498 -3
      vertex 1.39466 0.552186 -3
      vertex 2.10314 1.15621 -3
    endloop
  endfacet
  facet normal 0 0 -1
    outer loop
      vertex 2.38107 -0.300799 -3
      vertex 1.48817 -0.188 -3
      vertex 1.5 0 -3
    endloop
  endfacet
  facet normal 0 0 -1
    outer loop
      vertex 2.3246 -0.596855 -3
      vertex 1.45287 -0.373034 -3
      vertex 1.48817 -0.188 -3
    endloop
  endfacet
  facet normal 0 0 -1
    outer loop
      vertex 2.23146 -0.883498 -3
      vertex 1.39466 -0.552186 -3
      vertex 1.45287 -0.373034 -3
    endloop
  endfacet
  facet normal 0 0 -1
    outer loop
      vertex 2.10314 -1.15621 -3
      vertex 1.31446 -0.722631 -3
      vertex 1.39466 -0.552186 -3
    endloop
  endfacet
  facet normal 0 0 -1
    outer loop
      vertex 0.956136 -1.15577 -3
      vertex 1.52982 -1.84923 -3
      vertex 1.28598 -2.02639 -3
    endloop
  endfacet
  facet normal 0 0 -1
    outer loop
      vertex 1.94164 -1.41068 -3
      vertex 1.21352 -0.881678 -3
      vertex 1.31446 -0.722631 -3
    endloop
  endfacet
  facet normal 0 0 -1
    outer loop
      vertex 1.74952 -1.64291 -3
      vertex 1.09345 -1.02682 -3
      vertex 1.21352 -0.881678 -3
    endloop
  endfacet
  facet normal 0 0 -1
    outer loop
      vertex 0.80374 -1.26649 -3
      vertex 1.28598 -2.02639 -3
      vertex 1.02187 -2.17158 -3
    endloop
  endfacet
  facet normal 0 0 -1
    outer loop
      vertex 1.52982 -1.84923 -3
      vertex 0.956136 -1.15577 -3
      vertex 1.09345 -1.02682 -3
    endloop
  endfacet
  facet normal 0 0 -1
    outer loop
      vertex 1.28598 -2.02639 -3
      vertex 0.80374 -1.26649 -3
      vertex 0.956136 -1.15577 -3
    endloop
  endfacet
  facet normal 0 0 -1
    outer loop
      vertex 0.638668 -1.35724 -3
      vertex 1.02187 -2.17158 -3
      vertex 0.74164 -2.28254 -3
    endloop
  endfacet
  facet normal 0 0 -1
    outer loop
      vertex 1.02187 -2.17158 -3
      vertex 0.638668 -1.35724 -3
      vertex 0.80374 -1.26649 -3
    endloop
  endfacet
  facet normal 0 0 -1
    outer loop
      vertex 0.74164 -2.28254 -3
      vertex 0.463525 -1.42658 -3
      vertex 0.638668 -1.35724 -3
    endloop
  endfacet
  facet normal 0 0 -1
    outer loop
      vertex 0.449715 -2.35749 -3
      vertex 0.463525 -1.42658 -3
      vertex 0.74164 -2.28254 -3
    endloop
  endfacet
  facet normal 0 0 -1
    outer loop
      vertex 0.449715 -2.35749 -3
      vertex 0.281072 -1.47343 -3
      vertex 0.463525 -1.42658 -3
    endloop
  endfacet
  facet normal 0 0 -1
    outer loop
      vertex 0.150697 -2.39526 -3
      vertex 0.281072 -1.47343 -3
      vertex 0.449715 -2.35749 -3
    endloop
  endfacet
  facet normal 0 0 -1
    outer loop
      vertex 0.150697 -2.39526 -3
      vertex 0.0941849 -1.49704 -3
      vertex 0.281072 -1.47343 -3
    endloop
  endfacet
  facet normal 0 0 -1
    outer loop
      vertex 0.150697 -2.39526 -3
      vertex -0.0941849 -1.49704 -3
      vertex 0.0941849 -1.49704 -3
    endloop
  endfacet
  facet normal 0 0 -1
    outer loop
      vertex -0.150697 -2.39526 -3
      vertex -0.0941849 -1.49704 -3
      vertex 0.150697 -2.39526 -3
    endloop
  endfacet
  facet normal 0 0 -1
    outer loop
      vertex -0.150697 -2.39526 -3
      vertex -0.281072 -1.47343 -3
      vertex -0.0941849 -1.49704 -3
    endloop
  endfacet
  facet normal 0 0 -1
    outer loop
      vertex -0.449715 -2.35749 -3
      vertex -0.281072 -1.47343 -3
      vertex -0.150697 -2.39526 -3
    endloop
  endfacet
  facet normal 0 0 -1
    outer loop
      vertex -0.449715 -2.35749 -3
      vertex -0.463525 -1.42658 -3
      vertex -0.281072 -1.47343 -3
    endloop
  endfacet
  facet normal 0 0 -1
    outer loop
      vertex -0.74164 -2.28254 -3
      vertex -0.463525 -1.42658 -3
      vertex -0.449715 -2.35749 -3
    endloop
  endfacet
  facet normal -0 0 -1
    outer loop
      vertex -0.463525 -1.42658 -3
      vertex -0.74164 -2.28254 -3
      vertex -0.638668 -1.35724 -3
    endloop
  endfacet
  facet normal 0 0 -1
    outer loop
      vertex -1.02187 -2.17158 -3
      vertex -0.638668 -1.35724 -3
      vertex -0.74164 -2.28254 -3
    endloop
  endfacet
  facet normal -0 0 -1
    outer loop
      vertex -0.638668 -1.35724 -3
      vertex -1.02187 -2.17158 -3
      vertex -0.80374 -1.26649 -3
    endloop
  endfacet
  facet normal 0 0 -1
    outer loop
      vertex -1.28598 -2.02639 -3
      vertex -0.80374 -1.26649 -3
      vertex -1.02187 -2.17158 -3
    endloop
  endfacet
  facet normal -0 0 -1
    outer loop
      vertex -0.80374 -1.26649 -3
      vertex -1.28598 -2.02639 -3
      vertex -0.956136 -1.15577 -3
    endloop
  endfacet
  facet normal 0 0 -1
    outer loop
      vertex -1.52982 -1.84923 -3
      vertex -0.956136 -1.15577 -3
      vertex -1.28598 -2.02639 -3
    endloop
  endfacet
  facet normal -0 0 -1
    outer loop
      vertex -0.956136 -1.15577 -3
      vertex -1.52982 -1.84923 -3
      vertex -1.09345 -1.02682 -3
    endloop
  endfacet
  facet normal 0 0 -1
    outer loop
      vertex -1.74952 -1.64291 -3
      vertex -1.09345 -1.02682 -3
      vertex -1.52982 -1.84923 -3
    endloop
  endfacet
  facet normal -0 0 -1
    outer loop
      vertex -1.09345 -1.02682 -3
      vertex -1.74952 -1.64291 -3
      vertex -1.21352 -0.881678 -3
    endloop
  endfacet
  facet normal 0 0 -1
    outer loop
      vertex -1.94164 -1.41068 -3
      vertex -1.21352 -0.881678 -3
      vertex -1.74952 -1.64291 -3
    endloop
  endfacet
  facet normal -0 0 -1
    outer loop
      vertex -1.21352 -0.881678 -3
      vertex -1.94164 -1.41068 -3
      vertex -1.31446 -0.722631 -3
    endloop
  endfacet
  facet normal -0 0 -1
    outer loop
      vertex -1.31446 -0.722631 -3
      vertex -2.10314 -1.15621 -3
      vertex -1.39466 -0.552186 -3
    endloop
  endfacet
  facet normal 0 0 -1
    outer loop
      vertex -2.10314 -1.15621 -3
      vertex -1.31446 -0.722631 -3
      vertex -1.94164 -1.41068 -3
    endloop
  endfacet
  facet normal 0 0 -1
    outer loop
      vertex 1.31446 0.722631 -3
      vertex 2.10314 1.15621 -3
      vertex 1.39466 0.552186 -3
    endloop
  endfacet
  facet normal -0 0 -1
    outer loop
      vertex 2.10314 1.15621 -3
      vertex 1.31446 0.722631 -3
      vertex 1.94164 1.41068 -3
    endloop
  endfacet
  facet normal 0 0 -1
    outer loop
      vertex 1.21352 0.881678 -3
      vertex 1.94164 1.41068 -3
      vertex 1.31446 0.722631 -3
    endloop
  endfacet
  facet normal -0 0 -1
    outer loop
      vertex 1.94164 1.41068 -3
      vertex 1.21352 0.881678 -3
      vertex 1.74952 1.64291 -3
    endloop
  endfacet
  facet normal 0 0 -1
    outer loop
      vertex 1.09345 1.02682 -3
      vertex 1.74952 1.64291 -3
      vertex 1.21352 0.881678 -3
    endloop
  endfacet
  facet normal -0 0 -1
    outer loop
      vertex 1.74952 1.64291 -3
      vertex 1.09345 1.02682 -3
      vertex 1.52982 1.84923 -3
    endloop
  endfacet
  facet normal 0 0 -1
    outer loop
      vertex 0.956136 1.15577 -3
      vertex 1.52982 1.84923 -3
      vertex 1.09345 1.02682 -3
    endloop
  endfacet
  facet normal -0 0 -1
    outer loop
      vertex 1.52982 1.84923 -3
      vertex 0.956136 1.15577 -3
      vertex 1.28598 2.02639 -3
    endloop
  endfacet
  facet normal 0 0 -1
    outer loop
      vertex 0.80374 1.26649 -3
      vertex 1.28598 2.02639 -3
      vertex 0.956136 1.15577 -3
    endloop
  endfacet
  facet normal -0 0 -1
    outer loop
      vertex 1.28598 2.02639 -3
      vertex 0.80374 1.26649 -3
      vertex 1.02187 2.17158 -3
    endloop
  endfacet
  facet normal 0 0 -1
    outer loop
      vertex 0.638668 1.35724 -3
      vertex 1.02187 2.17158 -3
      vertex 0.80374 1.26649 -3
    endloop
  endfacet
  facet normal -0 0 -1
    outer loop
      vertex 1.02187 2.17158 -3
      vertex 0.638668 1.35724 -3
      vertex 0.74164 2.28254 -3
    endloop
  endfacet
  facet normal 0 0 -1
    outer loop
      vertex 0.463525 1.42658 -3
      vertex 0.74164 2.28254 -3
      vertex 0.638668 1.35724 -3
    endloop
  endfacet
  facet normal 0 0 -1
    outer loop
      vertex 0.463525 1.42658 -3
      vertex 0.449715 2.35749 -3
      vertex 0.74164 2.28254 -3
    endloop
  endfacet
  facet normal 0 0 -1
    outer loop
      vertex 0.281072 1.47343 -3
      vertex 0.449715 2.35749 -3
      vertex 0.463525 1.42658 -3
    endloop
  endfacet
  facet normal 0 0 -1
    outer loop
      vertex 0.281072 1.47343 -3
      vertex 0.150697 2.39526 -3
      vertex 0.449715 2.35749 -3
    endloop
  endfacet
  facet normal 0 0 -1
    outer loop
      vertex 0.0941849 1.49704 -3
      vertex 0.150697 2.39526 -3
      vertex 0.281072 1.47343 -3
    endloop
  endfacet
  facet normal 0 0 -1
    outer loop
      vertex -0.0941849 1.49704 -3
      vertex 0.150697 2.39526 -3
      vertex 0.0941849 1.49704 -3
    endloop
  endfacet
  facet normal 0 0 -1
    outer loop
      vertex -0.0941849 1.49704 -3
      vertex -0.150697 2.39526 -3
      vertex 0.150697 2.39526 -3
    endloop
  endfacet
  facet normal 0 0 -1
    outer loop
      vertex -0.281072 1.47343 -3
      vertex -0.150697 2.39526 -3
      vertex -0.0941849 1.49704 -3
    endloop
  endfacet
  facet normal 0 0 -1
    outer loop
      vertex -0.281072 1.47343 -3
      vertex -0.449715 2.35749 -3
      vertex -0.150697 2.39526 -3
    endloop
  endfacet
  facet normal 0 0 -1
    outer loop
      vertex -0.463525 1.42658 -3
      vertex -0.449715 2.35749 -3
      vertex -0.281072 1.47343 -3
    endloop
  endfacet
  facet normal 0 0 -1
    outer loop
      vertex -0.74164 2.28254 -3
      vertex -0.463525 1.42658 -3
      vertex -0.638668 1.35724 -3
    endloop
  endfacet
  facet normal 0 0 -1
    outer loop
      vertex -0.463525 1.42658 -3
      vertex -0.74164 2.28254 -3
      vertex -0.449715 2.35749 -3
    endloop
  endfacet
  facet normal 0 0 -1
    outer loop
      vertex -1.02187 2.17158 -3
      vertex -0.638668 1.35724 -3
      vertex -0.80374 1.26649 -3
    endloop
  endfacet
  facet normal 0 0 -1
    outer loop
      vertex -1.28598 2.02639 -3
      vertex -0.80374 1.26649 -3
      vertex -0.956136 1.15577 -3
    endloop
  endfacet
  facet normal 0 0 -1
    outer loop
      vertex -0.638668 1.35724 -3
      vertex -1.02187 2.17158 -3
      vertex -0.74164 2.28254 -3
    endloop
  endfacet
  facet normal 0 0 -1
    outer loop
      vertex -1.52982 1.84923 -3
      vertex -0.956136 1.15577 -3
      vertex -1.09345 1.02682 -3
    endloop
  endfacet
  facet normal 0 0 -1
    outer loop
      vertex -1.74952 1.64291 -3
      vertex -1.09345 1.02682 -3
      vertex -1.21352 0.881678 -3
    endloop
  endfacet
  facet normal 0 0 -1
    outer loop
      vertex -0.80374 1.26649 -3
      vertex -1.28598 2.02639 -3
      vertex -1.02187 2.17158 -3
    endloop
  endfacet
  facet normal 0 0 -1
    outer loop
      vertex -1.94164 1.41068 -3
      vertex -1.21352 0.881678 -3
      vertex -1.31446 0.722631 -3
    endloop
  endfacet
  facet normal 0 0 -1
    outer loop
      vertex -2.10314 1.15621 -3
      vertex -1.31446 0.722631 -3
      vertex -1.39466 0.552186 -3
    endloop
  endfacet
  facet normal 0 0 -1
    outer loop
      vertex -2.23146 0.883498 -3
      vertex -1.39466 0.552186 -3
      vertex -1.45287 0.373034 -3
    endloop
  endfacet
  facet normal 0 0 -1
    outer loop
      vertex -2.3246 0.596855 -3
      vertex -1.45287 0.373034 -3
      vertex -1.48817 0.188 -3
    endloop
  endfacet
  facet normal 0 0 -1
    outer loop
      vertex -0.956136 1.15577 -3
      vertex -1.52982 1.84923 -3
      vertex -1.28598 2.02639 -3
    endloop
  endfacet
  facet normal 0 0 -1
    outer loop
      vertex -2.38107 0.300799 -3
      vertex -1.48817 0.188 -3
      vertex -1.5 0 -3
    endloop
  endfacet
  facet normal 0 0 -1
    outer loop
      vertex -2.23146 -0.883498 -3
      vertex -1.39466 -0.552186 -3
      vertex -2.10314 -1.15621 -3
    endloop
  endfacet
  facet normal -0 0 -1
    outer loop
      vertex -1.39466 -0.552186 -3
      vertex -2.23146 -0.883498 -3
      vertex -1.45287 -0.373034 -3
    endloop
  endfacet
  facet normal 0 0 -1
    outer loop
      vertex -1.09345 1.02682 -3
      vertex -1.74952 1.64291 -3
      vertex -1.52982 1.84923 -3
    endloop
  endfacet
  facet normal 0 0 -1
    outer loop
      vertex -2.3246 -0.596855 -3
      vertex -1.45287 -0.373034 -3
      vertex -2.23146 -0.883498 -3
    endloop
  endfacet
  facet normal 0 0 -1
    outer loop
      vertex -1.21352 0.881678 -3
      vertex -1.94164 1.41068 -3
      vertex -1.74952 1.64291 -3
    endloop
  endfacet
  facet normal -0 0 -1
    outer loop
      vertex -1.45287 -0.373034 -3
      vertex -2.3246 -0.596855 -3
      vertex -1.48817 -0.188 -3
    endloop
  endfacet
  facet normal 0 0 -1
    outer loop
      vertex -1.31446 0.722631 -3
      vertex -2.10314 1.15621 -3
      vertex -1.94164 1.41068 -3
    endloop
  endfacet
  facet normal 0 0 -1
    outer loop
      vertex -2.38107 -0.300799 -3
      vertex -1.48817 -0.188 -3
      vertex -2.3246 -0.596855 -3
    endloop
  endfacet
  facet normal 0 0 -1
    outer loop
      vertex -1.39466 0.552186 -3
      vertex -2.23146 0.883498 -3
      vertex -2.10314 1.15621 -3
    endloop
  endfacet
  facet normal -0 0 -1
    outer loop
      vertex -1.48817 -0.188 -3
      vertex -2.38107 -0.300799 -3
      vertex -1.5 0 -3
    endloop
  endfacet
  facet normal 0 0 -1
    outer loop
      vertex -1.45287 0.373034 -3
      vertex -2.3246 0.596855 -3
      vertex -2.23146 0.883498 -3
    endloop
  endfacet
  facet normal 0 0 -1
    outer loop
      vertex -2.4 0 -3
      vertex -1.5 0 -3
      vertex -2.38107 -0.300799 -3
    endloop
  endfacet
  facet normal 0 0 -1
    outer loop
      vertex -1.48817 0.188 -3
      vertex -2.38107 0.300799 -3
      vertex -2.3246 0.596855 -3
    endloop
  endfacet
  facet normal 0 0 -1
    outer loop
      vertex -1.5 0 -3
      vertex -2.4 0 -3
      vertex -2.38107 0.300799 -3
    endloop
  endfacet
  facet normal 0.368151 -0.929766 0
    outer loop
      vertex 0.74164 -2.28254 -3
      vertex 1.02187 -2.17158 0
      vertex 0.74164 -2.28254 0
    endloop
  endfacet
  facet normal 0.368151 -0.929766 0
    outer loop
      vertex 1.02187 -2.17158 0
      vertex 0.74164 -2.28254 -3
      vertex 1.02187 -2.17158 -3
    endloop
  endfacet
  facet normal 0.951053 0.309029 0
    outer loop
      vertex 2.3246 0.596855 0
      vertex 2.23146 0.883498 -3
      vertex 2.23146 0.883498 0
    endloop
  endfacet
  facet normal 0.951053 0.309029 0
    outer loop
      vertex 2.23146 0.883498 -3
      vertex 2.3246 0.596855 0
      vertex 2.3246 0.596855 -3
    endloop
  endfacet
  facet normal 0.982291 0.187363 0
    outer loop
      vertex 2.38107 0.300799 0
      vertex 2.3246 0.596855 -3
      vertex 2.3246 0.596855 0
    endloop
  endfacet
  facet normal 0.982291 0.187363 0
    outer loop
      vertex 2.3246 0.596855 -3
      vertex 2.38107 0.300799 0
      vertex 2.38107 0.300799 -3
    endloop
  endfacet
  facet normal 0.770509 0.637429 0
    outer loop
      vertex 1.94164 1.41068 0
      vertex 1.74952 1.64291 -3
      vertex 1.74952 1.64291 0
    endloop
  endfacet
  facet normal 0.770509 0.637429 0
    outer loop
      vertex 1.74952 1.64291 -3
      vertex 1.94164 1.41068 0
      vertex 1.94164 1.41068 -3
    endloop
  endfacet
  facet normal 0.248679 0.968586 -0
    outer loop
      vertex 0.74164 2.28254 -3
      vertex 0.449715 2.35749 0
      vertex 0.74164 2.28254 0
    endloop
  endfacet
  facet normal 0.248679 0.968586 0
    outer loop
      vertex 0.449715 2.35749 0
      vertex 0.74164 2.28254 -3
      vertex 0.449715 2.35749 -3
    endloop
  endfacet
  facet normal 0.125318 0.992117 -0
    outer loop
      vertex 0.449715 2.35749 -3
      vertex 0.150697 2.39526 0
      vertex 0.449715 2.35749 0
    endloop
  endfacet
  facet normal 0.125318 0.992117 0
    outer loop
      vertex 0.150697 2.39526 0
      vertex 0.449715 2.35749 -3
      vertex 0.150697 2.39526 -3
    endloop
  endfacet
  facet normal 0.481739 0.876315 -0
    outer loop
      vertex 1.28598 2.02639 -3
      vertex 1.02187 2.17158 0
      vertex 1.28598 2.02639 0
    endloop
  endfacet
  facet normal 0.481739 0.876315 0
    outer loop
      vertex 1.02187 2.17158 0
      vertex 1.28598 2.02639 -3
      vertex 1.02187 2.17158 -3
    endloop
  endfacet
  facet normal -0.844315 0.535847 0
    outer loop
      vertex -2.10314 1.15621 -3
      vertex -1.94164 1.41068 0
      vertex -1.94164 1.41068 -3
    endloop
  endfacet
  facet normal -0.844315 0.535847 0
    outer loop
      vertex -1.94164 1.41068 0
      vertex -2.10314 1.15621 -3
      vertex -2.10314 1.15621 0
    endloop
  endfacet
  facet normal -0.951053 0.309029 0
    outer loop
      vertex -2.3246 0.596855 -3
      vertex -2.23146 0.883498 0
      vertex -2.23146 0.883498 -3
    endloop
  endfacet
  facet normal -0.951053 0.309029 0
    outer loop
      vertex -2.23146 0.883498 0
      vertex -2.3246 0.596855 -3
      vertex -2.3246 0.596855 0
    endloop
  endfacet
  facet normal -0.982291 0.187363 0
    outer loop
      vertex -2.38107 0.300799 -3
      vertex -2.3246 0.596855 0
      vertex -2.3246 0.596855 -3
    endloop
  endfacet
  facet normal -0.982291 0.187363 0
    outer loop
      vertex -2.3246 0.596855 0
      vertex -2.38107 0.300799 -3
      vertex -2.38107 0.300799 0
    endloop
  endfacet
  facet normal -0.587785 0.809017 0
    outer loop
      vertex -1.28598 2.02639 -3
      vertex -1.52982 1.84923 0
      vertex -1.28598 2.02639 0
    endloop
  endfacet
  facet normal -0.587785 0.809017 0
    outer loop
      vertex -1.52982 1.84923 0
      vertex -1.28598 2.02639 -3
      vertex -1.52982 1.84923 -3
    endloop
  endfacet
  facet normal -0.125318 0.992117 0
    outer loop
      vertex -0.150697 2.39526 -3
      vertex -0.449715 2.35749 0
      vertex -0.150697 2.39526 0
    endloop
  endfacet
  facet normal -0.125318 0.992117 0
    outer loop
      vertex -0.449715 2.35749 0
      vertex -0.150697 2.39526 -3
      vertex -0.449715 2.35749 -3
    endloop
  endfacet
  facet normal 0.998026 -0.0628081 0
    outer loop
      vertex 2.38107 -0.300799 0
      vertex 2.4 0 -3
      vertex 2.4 0 0
    endloop
  endfacet
  facet normal 0.998026 -0.0628081 0
    outer loop
      vertex 2.4 0 -3
      vertex 2.38107 -0.300799 0
      vertex 2.38107 -0.300799 -3
    endloop
  endfacet
  facet normal 0.770509 -0.637429 0
    outer loop
      vertex 1.74952 -1.64291 0
      vertex 1.94164 -1.41068 -3
      vertex 1.94164 -1.41068 0
    endloop
  endfacet
  facet normal 0.770509 -0.637429 0
    outer loop
      vertex 1.94164 -1.41068 -3
      vertex 1.74952 -1.64291 0
      vertex 1.74952 -1.64291 -3
    endloop
  endfacet
  facet normal -0.904838 -0.425756 0
    outer loop
      vertex -2.10314 -1.15621 -3
      vertex -2.23146 -0.883498 0
      vertex -2.23146 -0.883498 -3
    endloop
  endfacet
  facet normal -0.904838 -0.425756 0
    outer loop
      vertex -2.23146 -0.883498 0
      vertex -2.10314 -1.15621 -3
      vertex -2.10314 -1.15621 0
    endloop
  endfacet
  facet normal -0.770509 -0.637429 0
    outer loop
      vertex -1.74952 -1.64291 -3
      vertex -1.94164 -1.41068 0
      vertex -1.94164 -1.41068 -3
    endloop
  endfacet
  facet normal -0.770509 -0.637429 0
    outer loop
      vertex -1.94164 -1.41068 0
      vertex -1.74952 -1.64291 -3
      vertex -1.74952 -1.64291 0
    endloop
  endfacet
  facet normal 0.481739 -0.876315 0
    outer loop
      vertex 1.02187 -2.17158 -3
      vertex 1.28598 -2.02639 0
      vertex 1.02187 -2.17158 0
    endloop
  endfacet
  facet normal 0.481739 -0.876315 0
    outer loop
      vertex 1.28598 -2.02639 0
      vertex 1.02187 -2.17158 -3
      vertex 1.28598 -2.02639 -3
    endloop
  endfacet
  facet normal 0.951053 -0.309029 0
    outer loop
      vertex 2.23146 -0.883498 0
      vertex 2.3246 -0.596855 -3
      vertex 2.3246 -0.596855 0
    endloop
  endfacet
  facet normal 0.951053 -0.309029 0
    outer loop
      vertex 2.3246 -0.596855 -3
      vertex 2.23146 -0.883498 0
      vertex 2.23146 -0.883498 -3
    endloop
  endfacet
  facet normal 0.844315 -0.535847 0
    outer loop
      vertex 1.94164 -1.41068 0
      vertex 2.10314 -1.15621 -3
      vertex 2.10314 -1.15621 0
    endloop
  endfacet
  facet normal 0.844315 -0.535847 0
    outer loop
      vertex 2.10314 -1.15621 -3
      vertex 1.94164 -1.41068 0
      vertex 1.94164 -1.41068 -3
    endloop
  endfacet
  facet normal -0.982291 -0.187363 0
    outer loop
      vertex -2.3246 -0.596855 -3
      vertex -2.38107 -0.300799 0
      vertex -2.38107 -0.300799 -3
    endloop
  endfacet
  facet normal -0.982291 -0.187363 0
    outer loop
      vertex -2.38107 -0.300799 0
      vertex -2.3246 -0.596855 -3
      vertex -2.3246 -0.596855 0
    endloop
  endfacet
  facet normal -0.998026 -0.0628081 0
    outer loop
      vertex -2.38107 -0.300799 -3
      vertex -2.4 0 0
      vertex -2.4 0 -3
    endloop
  endfacet
  facet normal -0.998026 -0.0628081 0
    outer loop
      vertex -2.4 0 0
      vertex -2.38107 -0.300799 -3
      vertex -2.38107 -0.300799 0
    endloop
  endfacet
  facet normal -0.951053 -0.309029 0
    outer loop
      vertex -2.23146 -0.883498 -3
      vertex -2.3246 -0.596855 0
      vertex -2.3246 -0.596855 -3
    endloop
  endfacet
  facet normal -0.951053 -0.309029 0
    outer loop
      vertex -2.3246 -0.596855 0
      vertex -2.23146 -0.883498 -3
      vertex -2.23146 -0.883498 0
    endloop
  endfacet
  facet normal 0.587785 -0.809017 0
    outer loop
      vertex 1.28598 -2.02639 -3
      vertex 1.52982 -1.84923 0
      vertex 1.28598 -2.02639 0
    endloop
  endfacet
  facet normal 0.587785 -0.809017 0
    outer loop
      vertex 1.52982 -1.84923 0
      vertex 1.28598 -2.02639 -3
      vertex 1.52982 -1.84923 -3
    endloop
  endfacet
  facet normal 0.248679 -0.968586 0
    outer loop
      vertex 0.449715 -2.35749 -3
      vertex 0.74164 -2.28254 0
      vertex 0.449715 -2.35749 0
    endloop
  endfacet
  facet normal 0.248679 -0.968586 0
    outer loop
      vertex 0.74164 -2.28254 0
      vertex 0.449715 -2.35749 -3
      vertex 0.74164 -2.28254 -3
    endloop
  endfacet
  facet normal 0.125318 -0.992117 0
    outer loop
      vertex 0.150697 -2.39526 -3
      vertex 0.449715 -2.35749 0
      vertex 0.150697 -2.39526 0
    endloop
  endfacet
  facet normal 0.125318 -0.992117 0
    outer loop
      vertex 0.449715 -2.35749 0
      vertex 0.150697 -2.39526 -3
      vertex 0.449715 -2.35749 -3
    endloop
  endfacet
  facet normal -0.125318 -0.992117 0
    outer loop
      vertex -0.449715 -2.35749 -3
      vertex -0.150697 -2.39526 0
      vertex -0.449715 -2.35749 0
    endloop
  endfacet
  facet normal -0.125318 -0.992117 -0
    outer loop
      vertex -0.150697 -2.39526 0
      vertex -0.449715 -2.35749 -3
      vertex -0.150697 -2.39526 -3
    endloop
  endfacet
  facet normal -0.248679 -0.968586 0
    outer loop
      vertex -0.74164 -2.28254 -3
      vertex -0.449715 -2.35749 0
      vertex -0.74164 -2.28254 0
    endloop
  endfacet
  facet normal -0.248679 -0.968586 -0
    outer loop
      vertex -0.449715 -2.35749 0
      vertex -0.74164 -2.28254 -3
      vertex -0.449715 -2.35749 -3
    endloop
  endfacet
  facet normal -0.844315 -0.535847 0
    outer loop
      vertex -1.94164 -1.41068 -3
      vertex -2.10314 -1.15621 0
      vertex -2.10314 -1.15621 -3
    endloop
  endfacet
  facet normal -0.844315 -0.535847 0
    outer loop
      vertex -2.10314 -1.15621 0
      vertex -1.94164 -1.41068 -3
      vertex -1.94164 -1.41068 0
    endloop
  endfacet
  facet normal -0.684561 -0.728955 0
    outer loop
      vertex -1.74952 -1.64291 -3
      vertex -1.52982 -1.84923 0
      vertex -1.74952 -1.64291 0
    endloop
  endfacet
  facet normal -0.684561 -0.728955 -0
    outer loop
      vertex -1.52982 -1.84923 0
      vertex -1.74952 -1.64291 -3
      vertex -1.52982 -1.84923 -3
    endloop
  endfacet
  facet normal -0.587785 -0.809017 0
    outer loop
      vertex -1.52982 -1.84923 -3
      vertex -1.28598 -2.02639 0
      vertex -1.52982 -1.84923 0
    endloop
  endfacet
  facet normal -0.587785 -0.809017 -0
    outer loop
      vertex -1.28598 -2.02639 0
      vertex -1.52982 -1.84923 -3
      vertex -1.28598 -2.02639 -3
    endloop
  endfacet
  facet normal -0.368151 -0.929766 0
    outer loop
      vertex -1.02187 -2.17158 -3
      vertex -0.74164 -2.28254 0
      vertex -1.02187 -2.17158 0
    endloop
  endfacet
  facet normal -0.368151 -0.929766 -0
    outer loop
      vertex -0.74164 -2.28254 0
      vertex -1.02187 -2.17158 -3
      vertex -0.74164 -2.28254 -3
    endloop
  endfacet
  facet normal -0.481739 -0.876315 0
    outer loop
      vertex -1.28598 -2.02639 -3
      vertex -1.02187 -2.17158 0
      vertex -1.28598 -2.02639 0
    endloop
  endfacet
  facet normal -0.481739 -0.876315 -0
    outer loop
      vertex -1.02187 -2.17158 0
      vertex -1.28598 -2.02639 -3
      vertex -1.02187 -2.17158 -3
    endloop
  endfacet
  facet normal 0.998026 0.0628013 0
    outer loop
      vertex 1.5 0 -3
      vertex 1.48817 0.188 -16
      vertex 1.48817 0.188 -3
    endloop
  endfacet
  facet normal 0.998026 0.0628013 0
    outer loop
      vertex 1.48817 0.188 -16
      vertex 1.5 0 -3
      vertex 1.5 0 -16
    endloop
  endfacet
  facet normal -0.998026 0.0628013 0
    outer loop
      vertex -1.5 0 -16
      vertex -1.48817 0.188 -3
      vertex -1.48817 0.188 -16
    endloop
  endfacet
  facet normal -0.998026 0.0628013 0
    outer loop
      vertex -1.48817 0.188 -3
      vertex -1.5 0 -16
      vertex -1.5 0 -3
    endloop
  endfacet
  facet normal 0 1 -0
    outer loop
      vertex 0.0941849 1.49704 -16
      vertex -0.0941849 1.49704 -3
      vertex 0.0941849 1.49704 -3
    endloop
  endfacet
  facet normal 0 1 0
    outer loop
      vertex -0.0941849 1.49704 -3
      vertex 0.0941849 1.49704 -16
      vertex -0.0941849 1.49704 -16
    endloop
  endfacet
  facet normal 0 -1 0
    outer loop
      vertex -0.0941849 -1.49704 -16
      vertex 0.0941849 -1.49704 -3
      vertex -0.0941849 -1.49704 -3
    endloop
  endfacet
  facet normal 0 -1 -0
    outer loop
      vertex 0.0941849 -1.49704 -3
      vertex -0.0941849 -1.49704 -16
      vertex 0.0941849 -1.49704 -16
    endloop
  endfacet
  facet normal 0.684557 0.728959 -0
    outer loop
      vertex 1.09345 1.02682 -16
      vertex 0.956136 1.15577 -3
      vertex 1.09345 1.02682 -3
    endloop
  endfacet
  facet normal 0.684557 0.728959 0
    outer loop
      vertex 0.956136 1.15577 -3
      vertex 1.09345 1.02682 -16
      vertex 0.956136 1.15577 -16
    endloop
  endfacet
  facet normal -0.684557 0.728959 0
    outer loop
      vertex -0.956136 1.15577 -16
      vertex -1.09345 1.02682 -3
      vertex -0.956136 1.15577 -3
    endloop
  endfacet
  facet normal -0.684557 0.728959 0
    outer loop
      vertex -1.09345 1.02682 -3
      vertex -0.956136 1.15577 -16
      vertex -1.09345 1.02682 -16
    endloop
  endfacet
  facet normal -0.368106 0.929784 0
    outer loop
      vertex -0.463525 1.42658 -16
      vertex -0.638668 1.35724 -3
      vertex -0.463525 1.42658 -3
    endloop
  endfacet
  facet normal -0.368106 0.929784 0
    outer loop
      vertex -0.638668 1.35724 -3
      vertex -0.463525 1.42658 -16
      vertex -0.638668 1.35724 -16
    endloop
  endfacet
  facet normal 0.904838 0.425756 0
    outer loop
      vertex 1.39466 0.552186 -3
      vertex 1.31446 0.722631 -16
      vertex 1.31446 0.722631 -3
    endloop
  endfacet
  facet normal 0.904838 0.425756 0
    outer loop
      vertex 1.31446 0.722631 -16
      vertex 1.39466 0.552186 -3
      vertex 1.39466 0.552186 -16
    endloop
  endfacet
  facet normal 0.982284 0.187396 0
    outer loop
      vertex 1.48817 0.188 -3
      vertex 1.45287 0.373034 -16
      vertex 1.45287 0.373034 -3
    endloop
  endfacet
  facet normal 0.982284 0.187396 0
    outer loop
      vertex 1.45287 0.373034 -16
      vertex 1.48817 0.188 -3
      vertex 1.48817 0.188 -16
    endloop
  endfacet
  facet normal 0.368106 0.929784 -0
    outer loop
      vertex 0.638668 1.35724 -16
      vertex 0.463525 1.42658 -3
      vertex 0.638668 1.35724 -3
    endloop
  endfacet
  facet normal 0.368106 0.929784 0
    outer loop
      vertex 0.463525 1.42658 -3
      vertex 0.638668 1.35724 -16
      vertex 0.463525 1.42658 -16
    endloop
  endfacet
  facet normal 0.24871 0.968578 -0
    outer loop
      vertex 0.463525 1.42658 -16
      vertex 0.281072 1.47343 -3
      vertex 0.463525 1.42658 -3
    endloop
  endfacet
  facet normal 0.24871 0.968578 0
    outer loop
      vertex 0.281072 1.47343 -3
      vertex 0.463525 1.42658 -16
      vertex 0.281072 1.47343 -16
    endloop
  endfacet
  facet normal 0.481757 0.876305 -0
    outer loop
      vertex 0.80374 1.26649 -16
      vertex 0.638668 1.35724 -3
      vertex 0.80374 1.26649 -3
    endloop
  endfacet
  facet normal 0.481757 0.876305 0
    outer loop
      vertex 0.638668 1.35724 -3
      vertex 0.80374 1.26649 -16
      vertex 0.638668 1.35724 -16
    endloop
  endfacet
  facet normal -0.904838 0.425756 0
    outer loop
      vertex -1.39466 0.552186 -16
      vertex -1.31446 0.722631 -3
      vertex -1.31446 0.722631 -16
    endloop
  endfacet
  facet normal -0.904838 0.425756 0
    outer loop
      vertex -1.31446 0.722631 -3
      vertex -1.39466 0.552186 -16
      vertex -1.39466 0.552186 -3
    endloop
  endfacet
  facet normal -0.951057 0.309017 0
    outer loop
      vertex -1.45287 0.373034 -16
      vertex -1.39466 0.552186 -3
      vertex -1.39466 0.552186 -16
    endloop
  endfacet
  facet normal -0.951057 0.309017 0
    outer loop
      vertex -1.39466 0.552186 -3
      vertex -1.45287 0.373034 -16
      vertex -1.45287 0.373034 -3
    endloop
  endfacet
  facet normal -0.125337 0.992114 0
    outer loop
      vertex -0.0941849 1.49704 -16
      vertex -0.281072 1.47343 -3
      vertex -0.0941849 1.49704 -3
    endloop
  endfacet
  facet normal -0.125337 0.992114 0
    outer loop
      vertex -0.281072 1.47343 -3
      vertex -0.0941849 1.49704 -16
      vertex -0.281072 1.47343 -16
    endloop
  endfacet
  facet normal -0.770518 -0.637418 0
    outer loop
      vertex -1.09345 -1.02682 -16
      vertex -1.21352 -0.881678 -3
      vertex -1.21352 -0.881678 -16
    endloop
  endfacet
  facet normal -0.770518 -0.637418 0
    outer loop
      vertex -1.21352 -0.881678 -3
      vertex -1.09345 -1.02682 -16
      vertex -1.09345 -1.02682 -3
    endloop
  endfacet
  facet normal 0.125337 -0.992114 0
    outer loop
      vertex 0.0941849 -1.49704 -16
      vertex 0.281072 -1.47343 -3
      vertex 0.0941849 -1.49704 -3
    endloop
  endfacet
  facet normal 0.125337 -0.992114 0
    outer loop
      vertex 0.281072 -1.47343 -3
      vertex 0.0941849 -1.49704 -16
      vertex 0.281072 -1.47343 -16
    endloop
  endfacet
  facet normal 0.368106 -0.929784 0
    outer loop
      vertex 0.463525 -1.42658 -16
      vertex 0.638668 -1.35724 -3
      vertex 0.463525 -1.42658 -3
    endloop
  endfacet
  facet normal 0.368106 -0.929784 0
    outer loop
      vertex 0.638668 -1.35724 -3
      vertex 0.463525 -1.42658 -16
      vertex 0.638668 -1.35724 -16
    endloop
  endfacet
  facet normal 0.951057 0.309017 0
    outer loop
      vertex 1.45287 0.373034 -3
      vertex 1.39466 0.552186 -16
      vertex 1.39466 0.552186 -3
    endloop
  endfacet
  facet normal 0.951057 0.309017 0
    outer loop
      vertex 1.39466 0.552186 -16
      vertex 1.45287 0.373034 -3
      vertex 1.45287 0.373034 -16
    endloop
  endfacet
  facet normal 0.770518 0.637418 0
    outer loop
      vertex 1.21352 0.881678 -3
      vertex 1.09345 1.02682 -16
      vertex 1.09345 1.02682 -3
    endloop
  endfacet
  facet normal 0.770518 0.637418 0
    outer loop
      vertex 1.09345 1.02682 -16
      vertex 1.21352 0.881678 -3
      vertex 1.21352 0.881678 -16
    endloop
  endfacet
  facet normal 0.844314 0.535848 0
    outer loop
      vertex 1.31446 0.722631 -3
      vertex 1.21352 0.881678 -16
      vertex 1.21352 0.881678 -3
    endloop
  endfacet
  facet normal 0.844314 0.535848 0
    outer loop
      vertex 1.21352 0.881678 -16
      vertex 1.31446 0.722631 -3
      vertex 1.31446 0.722631 -16
    endloop
  endfacet
  facet normal 0.125337 0.992114 -0
    outer loop
      vertex 0.281072 1.47343 -16
      vertex 0.0941849 1.49704 -3
      vertex 0.281072 1.47343 -3
    endloop
  endfacet
  facet normal 0.125337 0.992114 0
    outer loop
      vertex 0.0941849 1.49704 -3
      vertex 0.281072 1.47343 -16
      vertex 0.0941849 1.49704 -16
    endloop
  endfacet
  facet normal 0.587778 0.809022 -0
    outer loop
      vertex 0.956136 1.15577 -16
      vertex 0.80374 1.26649 -3
      vertex 0.956136 1.15577 -3
    endloop
  endfacet
  facet normal 0.587778 0.809022 0
    outer loop
      vertex 0.80374 1.26649 -3
      vertex 0.956136 1.15577 -16
      vertex 0.80374 1.26649 -16
    endloop
  endfacet
  facet normal -0.844314 0.535848 0
    outer loop
      vertex -1.31446 0.722631 -16
      vertex -1.21352 0.881678 -3
      vertex -1.21352 0.881678 -16
    endloop
  endfacet
  facet normal -0.844314 0.535848 0
    outer loop
      vertex -1.21352 0.881678 -3
      vertex -1.31446 0.722631 -16
      vertex -1.31446 0.722631 -3
    endloop
  endfacet
  facet normal -0.770518 0.637418 0
    outer loop
      vertex -1.21352 0.881678 -16
      vertex -1.09345 1.02682 -3
      vertex -1.09345 1.02682 -16
    endloop
  endfacet
  facet normal -0.770518 0.637418 0
    outer loop
      vertex -1.09345 1.02682 -3
      vertex -1.21352 0.881678 -16
      vertex -1.21352 0.881678 -3
    endloop
  endfacet
  facet normal -0.982284 0.187396 0
    outer loop
      vertex -1.48817 0.188 -16
      vertex -1.45287 0.373034 -3
      vertex -1.45287 0.373034 -16
    endloop
  endfacet
  facet normal -0.982284 0.187396 0
    outer loop
      vertex -1.45287 0.373034 -3
      vertex -1.48817 0.188 -16
      vertex -1.48817 0.188 -3
    endloop
  endfacet
  facet normal -0.481757 0.876305 0
    outer loop
      vertex -0.638668 1.35724 -16
      vertex -0.80374 1.26649 -3
      vertex -0.638668 1.35724 -3
    endloop
  endfacet
  facet normal -0.481757 0.876305 0
    outer loop
      vertex -0.80374 1.26649 -3
      vertex -0.638668 1.35724 -16
      vertex -0.80374 1.26649 -16
    endloop
  endfacet
  facet normal -0.587778 0.809022 0
    outer loop
      vertex -0.80374 1.26649 -16
      vertex -0.956136 1.15577 -3
      vertex -0.80374 1.26649 -3
    endloop
  endfacet
  facet normal -0.587778 0.809022 0
    outer loop
      vertex -0.956136 1.15577 -3
      vertex -0.80374 1.26649 -16
      vertex -0.956136 1.15577 -16
    endloop
  endfacet
  facet normal -0.24871 0.968578 0
    outer loop
      vertex -0.281072 1.47343 -16
      vertex -0.463525 1.42658 -3
      vertex -0.281072 1.47343 -3
    endloop
  endfacet
  facet normal -0.24871 0.968578 0
    outer loop
      vertex -0.463525 1.42658 -3
      vertex -0.281072 1.47343 -16
      vertex -0.463525 1.42658 -16
    endloop
  endfacet
  facet normal 0.998026 -0.0628013 0
    outer loop
      vertex 1.48817 -0.188 -3
      vertex 1.5 0 -16
      vertex 1.5 0 -3
    endloop
  endfacet
  facet normal 0.998026 -0.0628013 0
    outer loop
      vertex 1.5 0 -16
      vertex 1.48817 -0.188 -3
      vertex 1.48817 -0.188 -16
    endloop
  endfacet
  facet normal 0.481757 -0.876305 0
    outer loop
      vertex 0.638668 -1.35724 -16
      vertex 0.80374 -1.26649 -3
      vertex 0.638668 -1.35724 -3
    endloop
  endfacet
  facet normal 0.481757 -0.876305 0
    outer loop
      vertex 0.80374 -1.26649 -3
      vertex 0.638668 -1.35724 -16
      vertex 0.80374 -1.26649 -16
    endloop
  endfacet
  facet normal 0.684557 -0.728959 0
    outer loop
      vertex 0.956136 -1.15577 -16
      vertex 1.09345 -1.02682 -3
      vertex 0.956136 -1.15577 -3
    endloop
  endfacet
  facet normal 0.684557 -0.728959 0
    outer loop
      vertex 1.09345 -1.02682 -3
      vertex 0.956136 -1.15577 -16
      vertex 1.09345 -1.02682 -16
    endloop
  endfacet
  facet normal 0.982284 -0.187396 0
    outer loop
      vertex 1.45287 -0.373034 -3
      vertex 1.48817 -0.188 -16
      vertex 1.48817 -0.188 -3
    endloop
  endfacet
  facet normal 0.982284 -0.187396 0
    outer loop
      vertex 1.48817 -0.188 -16
      vertex 1.45287 -0.373034 -3
      vertex 1.45287 -0.373034 -16
    endloop
  endfacet
  facet normal 0 0 -1
    outer loop
      vertex 1.48817 -0.188 -16
      vertex 1.48817 0.188 -16
      vertex 1.5 0 -16
    endloop
  endfacet
  facet normal 0 0 -1
    outer loop
      vertex 1.45287 -0.373034 -16
      vertex 1.48817 0.188 -16
      vertex 1.48817 -0.188 -16
    endloop
  endfacet
  facet normal 0 0 -1
    outer loop
      vertex 1.45287 -0.373034 -16
      vertex 1.45287 0.373034 -16
      vertex 1.48817 0.188 -16
    endloop
  endfacet
  facet normal 0 0 -1
    outer loop
      vertex 1.39466 -0.552186 -16
      vertex 1.45287 0.373034 -16
      vertex 1.45287 -0.373034 -16
    endloop
  endfacet
  facet normal 0 0 -1
    outer loop
      vertex 1.39466 -0.552186 -16
      vertex 1.39466 0.552186 -16
      vertex 1.45287 0.373034 -16
    endloop
  endfacet
  facet normal 0 0 -1
    outer loop
      vertex 1.31446 -0.722631 -16
      vertex 1.39466 0.552186 -16
      vertex 1.39466 -0.552186 -16
    endloop
  endfacet
  facet normal 0 0 -1
    outer loop
      vertex 1.31446 -0.722631 -16
      vertex 1.31446 0.722631 -16
      vertex 1.39466 0.552186 -16
    endloop
  endfacet
  facet normal 0 0 -1
    outer loop
      vertex 1.21352 -0.881678 -16
      vertex 1.31446 0.722631 -16
      vertex 1.31446 -0.722631 -16
    endloop
  endfacet
  facet normal 0 0 -1
    outer loop
      vertex 1.21352 -0.881678 -16
      vertex 1.21352 0.881678 -16
      vertex 1.31446 0.722631 -16
    endloop
  endfacet
  facet normal 0 0 -1
    outer loop
      vertex 1.09345 -1.02682 -16
      vertex 1.21352 0.881678 -16
      vertex 1.21352 -0.881678 -16
    endloop
  endfacet
  facet normal 0 0 -1
    outer loop
      vertex 1.09345 -1.02682 -16
      vertex 1.09345 1.02682 -16
      vertex 1.21352 0.881678 -16
    endloop
  endfacet
  facet normal 0 0 -1
    outer loop
      vertex 0.956136 -1.15577 -16
      vertex 1.09345 1.02682 -16
      vertex 1.09345 -1.02682 -16
    endloop
  endfacet
  facet normal 0 0 -1
    outer loop
      vertex 0.956136 -1.15577 -16
      vertex 0.956136 1.15577 -16
      vertex 1.09345 1.02682 -16
    endloop
  endfacet
  facet normal 0 0 -1
    outer loop
      vertex 0.80374 -1.26649 -16
      vertex 0.956136 1.15577 -16
      vertex 0.956136 -1.15577 -16
    endloop
  endfacet
  facet normal 0 0 -1
    outer loop
      vertex 0.80374 -1.26649 -16
      vertex 0.80374 1.26649 -16
      vertex 0.956136 1.15577 -16
    endloop
  endfacet
  facet normal 0 0 -1
    outer loop
      vertex 0.638668 -1.35724 -16
      vertex 0.80374 1.26649 -16
      vertex 0.80374 -1.26649 -16
    endloop
  endfacet
  facet normal 0 0 -1
    outer loop
      vertex 0.638668 -1.35724 -16
      vertex 0.638668 1.35724 -16
      vertex 0.80374 1.26649 -16
    endloop
  endfacet
  facet normal 0 0 -1
    outer loop
      vertex 0.463525 -1.42658 -16
      vertex 0.638668 1.35724 -16
      vertex 0.638668 -1.35724 -16
    endloop
  endfacet
  facet normal 0 0 -1
    outer loop
      vertex 0.463525 -1.42658 -16
      vertex 0.463525 1.42658 -16
      vertex 0.638668 1.35724 -16
    endloop
  endfacet
  facet normal 0 0 -1
    outer loop
      vertex 0.281072 -1.47343 -16
      vertex 0.463525 1.42658 -16
      vertex 0.463525 -1.42658 -16
    endloop
  endfacet
  facet normal 0 0 -1
    outer loop
      vertex 0.281072 -1.47343 -16
      vertex 0.281072 1.47343 -16
      vertex 0.463525 1.42658 -16
    endloop
  endfacet
  facet normal 0 0 -1
    outer loop
      vertex 0.0941849 -1.49704 -16
      vertex 0.281072 1.47343 -16
      vertex 0.281072 -1.47343 -16
    endloop
  endfacet
  facet normal 0 0 -1
    outer loop
      vertex 0.0941849 -1.49704 -16
      vertex 0.0941849 1.49704 -16
      vertex 0.281072 1.47343 -16
    endloop
  endfacet
  facet normal 0 0 -1
    outer loop
      vertex -0.0941849 -1.49704 -16
      vertex 0.0941849 1.49704 -16
      vertex 0.0941849 -1.49704 -16
    endloop
  endfacet
  facet normal 0 0 -1
    outer loop
      vertex -0.0941849 -1.49704 -16
      vertex -0.0941849 1.49704 -16
      vertex 0.0941849 1.49704 -16
    endloop
  endfacet
  facet normal 0 0 -1
    outer loop
      vertex -0.281072 -1.47343 -16
      vertex -0.0941849 1.49704 -16
      vertex -0.0941849 -1.49704 -16
    endloop
  endfacet
  facet normal 0 0 -1
    outer loop
      vertex -0.281072 -1.47343 -16
      vertex -0.281072 1.47343 -16
      vertex -0.0941849 1.49704 -16
    endloop
  endfacet
  facet normal 0 0 -1
    outer loop
      vertex -0.463525 -1.42658 -16
      vertex -0.281072 1.47343 -16
      vertex -0.281072 -1.47343 -16
    endloop
  endfacet
  facet normal 0 0 -1
    outer loop
      vertex -0.463525 -1.42658 -16
      vertex -0.463525 1.42658 -16
      vertex -0.281072 1.47343 -16
    endloop
  endfacet
  facet normal 0 0 -1
    outer loop
      vertex -0.638668 -1.35724 -16
      vertex -0.463525 1.42658 -16
      vertex -0.463525 -1.42658 -16
    endloop
  endfacet
  facet normal 0 0 -1
    outer loop
      vertex -0.638668 -1.35724 -16
      vertex -0.638668 1.35724 -16
      vertex -0.463525 1.42658 -16
    endloop
  endfacet
  facet normal 0 0 -1
    outer loop
      vertex -0.80374 -1.26649 -16
      vertex -0.638668 1.35724 -16
      vertex -0.638668 -1.35724 -16
    endloop
  endfacet
  facet normal 0 0 -1
    outer loop
      vertex -0.80374 -1.26649 -16
      vertex -0.80374 1.26649 -16
      vertex -0.638668 1.35724 -16
    endloop
  endfacet
  facet normal 0 0 -1
    outer loop
      vertex -0.956136 -1.15577 -16
      vertex -0.80374 1.26649 -16
      vertex -0.80374 -1.26649 -16
    endloop
  endfacet
  facet normal 0 0 -1
    outer loop
      vertex -0.956136 -1.15577 -16
      vertex -0.956136 1.15577 -16
      vertex -0.80374 1.26649 -16
    endloop
  endfacet
  facet normal 0 0 -1
    outer loop
      vertex -1.09345 -1.02682 -16
      vertex -0.956136 1.15577 -16
      vertex -0.956136 -1.15577 -16
    endloop
  endfacet
  facet normal 0 0 -1
    outer loop
      vertex -1.09345 -1.02682 -16
      vertex -1.09345 1.02682 -16
      vertex -0.956136 1.15577 -16
    endloop
  endfacet
  facet normal 0 0 -1
    outer loop
      vertex -1.21352 -0.881678 -16
      vertex -1.09345 1.02682 -16
      vertex -1.09345 -1.02682 -16
    endloop
  endfacet
  facet normal 0 0 -1
    outer loop
      vertex -1.21352 -0.881678 -16
      vertex -1.21352 0.881678 -16
      vertex -1.09345 1.02682 -16
    endloop
  endfacet
  facet normal 0 0 -1
    outer loop
      vertex -1.31446 -0.722631 -16
      vertex -1.21352 0.881678 -16
      vertex -1.21352 -0.881678 -16
    endloop
  endfacet
  facet normal 0 0 -1
    outer loop
      vertex -1.31446 -0.722631 -16
      vertex -1.31446 0.722631 -16
      vertex -1.21352 0.881678 -16
    endloop
  endfacet
  facet normal 0 0 -1
    outer loop
      vertex -1.39466 -0.552186 -16
      vertex -1.31446 0.722631 -16
      vertex -1.31446 -0.722631 -16
    endloop
  endfacet
  facet normal 0 0 -1
    outer loop
      vertex -1.39466 -0.552186 -16
      vertex -1.39466 0.552186 -16
      vertex -1.31446 0.722631 -16
    endloop
  endfacet
  facet normal 0 0 -1
    outer loop
      vertex -1.45287 -0.373034 -16
      vertex -1.39466 0.552186 -16
      vertex -1.39466 -0.552186 -16
    endloop
  endfacet
  facet normal 0 0 -1
    outer loop
      vertex -1.45287 -0.373034 -16
      vertex -1.45287 0.373034 -16
      vertex -1.39466 0.552186 -16
    endloop
  endfacet
  facet normal 0 0 -1
    outer loop
      vertex -1.48817 -0.188 -16
      vertex -1.45287 0.373034 -16
      vertex -1.45287 -0.373034 -16
    endloop
  endfacet
  facet normal 0 0 -1
    outer loop
      vertex -1.48817 -0.188 -16
      vertex -1.48817 0.188 -16
      vertex -1.45287 0.373034 -16
    endloop
  endfacet
  facet normal 0 -0 -1
    outer loop
      vertex -1.48817 0.188 -16
      vertex -1.48817 -0.188 -16
      vertex -1.5 0 -16
    endloop
  endfacet
  facet normal 0.904838 -0.425756 0
    outer loop
      vertex 1.31446 -0.722631 -3
      vertex 1.39466 -0.552186 -16
      vertex 1.39466 -0.552186 -3
    endloop
  endfacet
  facet normal 0.904838 -0.425756 0
    outer loop
      vertex 1.39466 -0.552186 -16
      vertex 1.31446 -0.722631 -3
      vertex 1.31446 -0.722631 -16
    endloop
  endfacet
  facet normal 0.770518 -0.637418 0
    outer loop
      vertex 1.09345 -1.02682 -3
      vertex 1.21352 -0.881678 -16
      vertex 1.21352 -0.881678 -3
    endloop
  endfacet
  facet normal 0.770518 -0.637418 0
    outer loop
      vertex 1.21352 -0.881678 -16
      vertex 1.09345 -1.02682 -3
      vertex 1.09345 -1.02682 -16
    endloop
  endfacet
  facet normal -0.684557 -0.728959 0
    outer loop
      vertex -1.09345 -1.02682 -16
      vertex -0.956136 -1.15577 -3
      vertex -1.09345 -1.02682 -3
    endloop
  endfacet
  facet normal -0.684557 -0.728959 -0
    outer loop
      vertex -0.956136 -1.15577 -3
      vertex -1.09345 -1.02682 -16
      vertex -0.956136 -1.15577 -16
    endloop
  endfacet
  facet normal -0.844314 -0.535848 0
    outer loop
      vertex -1.21352 -0.881678 -16
      vertex -1.31446 -0.722631 -3
      vertex -1.31446 -0.722631 -16
    endloop
  endfacet
  facet normal -0.844314 -0.535848 0
    outer loop
      vertex -1.31446 -0.722631 -3
      vertex -1.21352 -0.881678 -16
      vertex -1.21352 -0.881678 -3
    endloop
  endfacet
  facet normal -0.951057 -0.309017 0
    outer loop
      vertex -1.39466 -0.552186 -16
      vertex -1.45287 -0.373034 -3
      vertex -1.45287 -0.373034 -16
    endloop
  endfacet
  facet normal -0.951057 -0.309017 0
    outer loop
      vertex -1.45287 -0.373034 -3
      vertex -1.39466 -0.552186 -16
      vertex -1.39466 -0.552186 -3
    endloop
  endfacet
  facet normal 0.24871 -0.968578 0
    outer loop
      vertex 0.281072 -1.47343 -16
      vertex 0.463525 -1.42658 -3
      vertex 0.281072 -1.47343 -3
    endloop
  endfacet
  facet normal 0.24871 -0.968578 0
    outer loop
      vertex 0.463525 -1.42658 -3
      vertex 0.281072 -1.47343 -16
      vertex 0.463525 -1.42658 -16
    endloop
  endfacet
  facet normal 0.587778 -0.809022 0
    outer loop
      vertex 0.80374 -1.26649 -16
      vertex 0.956136 -1.15577 -3
      vertex 0.80374 -1.26649 -3
    endloop
  endfacet
  facet normal 0.587778 -0.809022 0
    outer loop
      vertex 0.956136 -1.15577 -3
      vertex 0.80374 -1.26649 -16
      vertex 0.956136 -1.15577 -16
    endloop
  endfacet
  facet normal 0.951057 -0.309017 0
    outer loop
      vertex 1.39466 -0.552186 -3
      vertex 1.45287 -0.373034 -16
      vertex 1.45287 -0.373034 -3
    endloop
  endfacet
  facet normal 0.951057 -0.309017 0
    outer loop
      vertex 1.45287 -0.373034 -16
      vertex 1.39466 -0.552186 -3
      vertex 1.39466 -0.552186 -16
    endloop
  endfacet
  facet normal 0.844314 -0.535848 0
    outer loop
      vertex 1.21352 -0.881678 -3
      vertex 1.31446 -0.722631 -16
      vertex 1.31446 -0.722631 -3
    endloop
  endfacet
  facet normal 0.844314 -0.535848 0
    outer loop
      vertex 1.31446 -0.722631 -16
      vertex 1.21352 -0.881678 -3
      vertex 1.21352 -0.881678 -16
    endloop
  endfacet
  facet normal -0.125337 -0.992114 0
    outer loop
      vertex -0.281072 -1.47343 -16
      vertex -0.0941849 -1.49704 -3
      vertex -0.281072 -1.47343 -3
    endloop
  endfacet
  facet normal -0.125337 -0.992114 -0
    outer loop
      vertex -0.0941849 -1.49704 -3
      vertex -0.281072 -1.47343 -16
      vertex -0.0941849 -1.49704 -16
    endloop
  endfacet
  facet normal -0.587778 -0.809022 0
    outer loop
      vertex -0.956136 -1.15577 -16
      vertex -0.80374 -1.26649 -3
      vertex -0.956136 -1.15577 -3
    endloop
  endfacet
  facet normal -0.587778 -0.809022 -0
    outer loop
      vertex -0.80374 -1.26649 -3
      vertex -0.956136 -1.15577 -16
      vertex -0.80374 -1.26649 -16
    endloop
  endfacet
  facet normal -0.368106 -0.929784 0
    outer loop
      vertex -0.638668 -1.35724 -16
      vertex -0.463525 -1.42658 -3
      vertex -0.638668 -1.35724 -3
    endloop
  endfacet
  facet normal -0.368106 -0.929784 -0
    outer loop
      vertex -0.463525 -1.42658 -3
      vertex -0.638668 -1.35724 -16
      vertex -0.463525 -1.42658 -16
    endloop
  endfacet
  facet normal -0.481757 -0.876305 0
    outer loop
      vertex -0.80374 -1.26649 -16
      vertex -0.638668 -1.35724 -3
      vertex -0.80374 -1.26649 -3
    endloop
  endfacet
  facet normal -0.481757 -0.876305 -0
    outer loop
      vertex -0.638668 -1.35724 -3
      vertex -0.80374 -1.26649 -16
      vertex -0.638668 -1.35724 -16
    endloop
  endfacet
  facet normal -0.24871 -0.968578 0
    outer loop
      vertex -0.463525 -1.42658 -16
      vertex -0.281072 -1.47343 -3
      vertex -0.463525 -1.42658 -3
    endloop
  endfacet
  facet normal -0.24871 -0.968578 -0
    outer loop
      vertex -0.281072 -1.47343 -3
      vertex -0.463525 -1.42658 -16
      vertex -0.281072 -1.47343 -16
    endloop
  endfacet
  facet normal -0.904838 -0.425756 0
    outer loop
      vertex -1.31446 -0.722631 -16
      vertex -1.39466 -0.552186 -3
      vertex -1.39466 -0.552186 -16
    endloop
  endfacet
  facet normal -0.904838 -0.425756 0
    outer loop
      vertex -1.39466 -0.552186 -3
      vertex -1.31446 -0.722631 -16
      vertex -1.31446 -0.722631 -3
    endloop
  endfacet
  facet normal -0.982284 -0.187396 0
    outer loop
      vertex -1.45287 -0.373034 -16
      vertex -1.48817 -0.188 -3
      vertex -1.48817 -0.188 -16
    endloop
  endfacet
  facet normal -0.982284 -0.187396 0
    outer loop
      vertex -1.48817 -0.188 -3
      vertex -1.45287 -0.373034 -16
      vertex -1.45287 -0.373034 -3
    endloop
  endfacet
  facet normal -0.998026 -0.0628013 0
    outer loop
      vertex -1.48817 -0.188 -16
      vertex -1.5 0 -3
      vertex -1.5 0 -16
    endloop
  endfacet
  facet normal -0.998026 -0.0628013 0
    outer loop
      vertex -1.5 0 -3
      vertex -1.48817 -0.188 -16
      vertex -1.48817 -0.188 -3
    endloop
  endfacet
endsolid OpenSCAD_Model
