<?xml version="1.0" standalone="no"?>
<!DOCTYPE svg PUBLIC "-//W3C//DTD SVG 1.1//EN" "http://www.w3.org/Graphics/SVG/1.1/DTD/svg11.dtd">
<svg width="74mm" height="186mm" viewBox="-37 -366 74 186" xmlns="http://www.w3.org/2000/svg" version="1.1">
<title>OpenSCAD Model</title>
<path d="
M 32.9369,-336.589 L 33.5451,-336.745 L 34.1289,-336.976 L 34.6791,-337.278 L 35.1871,-337.647 L 35.6448,-338.077
 L 36.0451,-338.561 L 36.3815,-339.091 L 36.6489,-339.659 L 36.8429,-340.257 L 36.9606,-340.873 L 37,-341.5
 L 37,-360.5 L 36.9606,-361.127 L 36.8429,-361.743 L 36.6489,-362.341 L 36.3815,-362.909 L 36.0451,-363.439
 L 35.6448,-363.923 L 35.1871,-364.353 L 34.6791,-364.722 L 34.1289,-365.024 L 33.5451,-365.255 L 32.9369,-365.411
 L 32.3139,-365.49 L -32.3139,-365.49 L -32.9369,-365.411 L -33.5451,-365.255 L -34.1289,-365.024 L -34.6791,-364.722
 L -35.1871,-364.353 L -35.6448,-363.923 L -36.0451,-363.439 L -36.3815,-362.909 L -36.6489,-362.341 L -36.8429,-361.743
 L -36.9606,-361.127 L -37,-360.5 L -37,-341.5 L -36.9606,-340.873 L -36.8429,-340.257 L -36.6489,-339.659
 L -36.3815,-339.091 L -36.0451,-338.561 L -35.6448,-338.077 L -35.1871,-337.647 L -34.6791,-337.278 L -34.1289,-336.976
 L -33.5451,-336.745 L -32.9369,-336.589 L -32.3139,-336.51 L 32.3139,-336.51 z
M -32.2512,-337.508 L -32.7495,-337.571 L -33.2361,-337.696 L -33.7031,-337.881 L -34.1433,-338.123 L -34.5497,-338.418
 L -34.9159,-338.762 L -35.2361,-339.149 L -35.5052,-339.573 L -35.7191,-340.028 L -35.8743,-340.505 L -35.9685,-340.999
 L -36,-341.5 L -36,-360.5 L -35.9685,-361.001 L -35.8743,-361.495 L -35.7191,-361.972 L -35.5052,-362.427
 L -35.2361,-362.851 L -34.9159,-363.238 L -34.5497,-363.582 L -34.1433,-363.877 L -33.7031,-364.119 L -33.2361,-364.304
 L -32.7495,-364.429 L -32.2512,-364.492 L 32.2512,-364.492 L 32.7495,-364.429 L 33.2361,-364.304 L 33.7031,-364.119
 L 34.1433,-363.877 L 34.5497,-363.582 L 34.9159,-363.238 L 35.2361,-362.851 L 35.5052,-362.427 L 35.7191,-361.972
 L 35.8743,-361.495 L 35.9685,-361.001 L 36,-360.5 L 36,-341.5 L 35.9685,-340.999 L 35.8743,-340.505
 L 35.7191,-340.028 L 35.5052,-339.573 L 35.2361,-339.149 L 34.9159,-338.762 L 34.5497,-338.418 L 34.1433,-338.123
 L 33.7031,-337.881 L 33.2361,-337.696 L 32.7495,-337.571 L 32.2512,-337.508 z
M 32.9369,-297.589 L 33.5451,-297.745 L 34.1289,-297.976 L 34.6791,-298.278 L 35.1871,-298.647 L 35.6448,-299.077
 L 36.0451,-299.561 L 36.3815,-300.091 L 36.6489,-300.659 L 36.8429,-301.257 L 36.9606,-301.873 L 37,-302.5
 L 37,-321.5 L 36.9606,-322.127 L 36.8429,-322.743 L 36.6489,-323.341 L 36.3815,-323.909 L 36.0451,-324.439
 L 35.6448,-324.923 L 35.1871,-325.353 L 34.6791,-325.722 L 34.1289,-326.024 L 33.5451,-326.255 L 32.9369,-326.411
 L 32.3139,-326.49 L -32.3139,-326.49 L -32.9369,-326.411 L -33.5451,-326.255 L -34.1289,-326.024 L -34.6791,-325.722
 L -35.1871,-325.353 L -35.6448,-324.923 L -36.0451,-324.439 L -36.3815,-323.909 L -36.6489,-323.341 L -36.8429,-322.743
 L -36.9606,-322.127 L -37,-321.5 L -37,-302.5 L -36.9606,-301.873 L -36.8429,-301.257 L -36.6489,-300.659
 L -36.3815,-300.091 L -36.0451,-299.561 L -35.6448,-299.077 L -35.1871,-298.647 L -34.6791,-298.278 L -34.1289,-297.976
 L -33.5451,-297.745 L -32.9369,-297.589 L -32.3139,-297.51 L 32.3139,-297.51 z
M -32.2512,-298.508 L -32.7495,-298.571 L -33.2361,-298.696 L -33.7031,-298.881 L -34.1433,-299.123 L -34.5497,-299.418
 L -34.9159,-299.762 L -35.2361,-300.149 L -35.5052,-300.573 L -35.7191,-301.028 L -35.8743,-301.505 L -35.9685,-301.999
 L -36,-302.5 L -36,-321.5 L -35.9685,-322.001 L -35.8743,-322.495 L -35.7191,-322.972 L -35.5052,-323.427
 L -35.2361,-323.851 L -34.9159,-324.238 L -34.5497,-324.582 L -34.1433,-324.877 L -33.7031,-325.119 L -33.2361,-325.304
 L -32.7495,-325.429 L -32.2512,-325.492 L 32.2512,-325.492 L 32.7495,-325.429 L 33.2361,-325.304 L 33.7031,-325.119
 L 34.1433,-324.877 L 34.5497,-324.582 L 34.9159,-324.238 L 35.2361,-323.851 L 35.5052,-323.427 L 35.7191,-322.972
 L 35.8743,-322.495 L 35.9685,-322.001 L 36,-321.5 L 36,-302.5 L 35.9685,-301.999 L 35.8743,-301.505
 L 35.7191,-301.028 L 35.5052,-300.573 L 35.2361,-300.149 L 34.9159,-299.762 L 34.5497,-299.418 L 34.1433,-299.123
 L 33.7031,-298.881 L 33.2361,-298.696 L 32.7495,-298.571 L 32.2512,-298.508 z
M 32.9369,-258.589 L 33.5451,-258.745 L 34.1289,-258.976 L 34.6791,-259.278 L 35.1871,-259.647 L 35.6448,-260.077
 L 36.0451,-260.561 L 36.3815,-261.091 L 36.6489,-261.659 L 36.8429,-262.257 L 36.9606,-262.873 L 37,-263.5
 L 37,-282.5 L 36.9606,-283.127 L 36.8429,-283.743 L 36.6489,-284.341 L 36.3815,-284.909 L 36.0451,-285.439
 L 35.6448,-285.923 L 35.1871,-286.353 L 34.6791,-286.722 L 34.1289,-287.024 L 33.5451,-287.255 L 32.9369,-287.411
 L 32.3139,-287.49 L -32.3139,-287.49 L -32.9369,-287.411 L -33.5451,-287.255 L -34.1289,-287.024 L -34.6791,-286.722
 L -35.1871,-286.353 L -35.6448,-285.923 L -36.0451,-285.439 L -36.3815,-284.909 L -36.6489,-284.341 L -36.8429,-283.743
 L -36.9606,-283.127 L -37,-282.5 L -37,-263.5 L -36.9606,-262.873 L -36.8429,-262.257 L -36.6489,-261.659
 L -36.3815,-261.091 L -36.0451,-260.561 L -35.6448,-260.077 L -35.1871,-259.647 L -34.6791,-259.278 L -34.1289,-258.976
 L -33.5451,-258.745 L -32.9369,-258.589 L -32.3139,-258.51 L 32.3139,-258.51 z
M -32.2512,-259.508 L -32.7495,-259.571 L -33.2361,-259.696 L -33.7031,-259.881 L -34.1433,-260.123 L -34.5497,-260.418
 L -34.9159,-260.762 L -35.2361,-261.149 L -35.5052,-261.573 L -35.7191,-262.028 L -35.8743,-262.505 L -35.9685,-262.999
 L -36,-263.5 L -36,-282.5 L -35.9685,-283.001 L -35.8743,-283.495 L -35.7191,-283.972 L -35.5052,-284.427
 L -35.2361,-284.851 L -34.9159,-285.238 L -34.5497,-285.582 L -34.1433,-285.877 L -33.7031,-286.119 L -33.2361,-286.304
 L -32.7495,-286.429 L -32.2512,-286.492 L 32.2512,-286.492 L 32.7495,-286.429 L 33.2361,-286.304 L 33.7031,-286.119
 L 34.1433,-285.877 L 34.5497,-285.582 L 34.9159,-285.238 L 35.2361,-284.851 L 35.5052,-284.427 L 35.7191,-283.972
 L 35.8743,-283.495 L 35.9685,-283.001 L 36,-282.5 L 36,-263.5 L 35.9685,-262.999 L 35.8743,-262.505
 L 35.7191,-262.028 L 35.5052,-261.573 L 35.2361,-261.149 L 34.9159,-260.762 L 34.5497,-260.418 L 34.1433,-260.123
 L 33.7031,-259.881 L 33.2361,-259.696 L 32.7495,-259.571 L 32.2512,-259.508 z
M 32.9369,-219.589 L 33.5451,-219.745 L 34.1289,-219.976 L 34.6791,-220.278 L 35.1871,-220.647 L 35.6448,-221.077
 L 36.0451,-221.561 L 36.3815,-222.091 L 36.6489,-222.659 L 36.8429,-223.257 L 36.9606,-223.873 L 37,-224.5
 L 37,-243.5 L 36.9606,-244.127 L 36.8429,-244.743 L 36.6489,-245.341 L 36.3815,-245.909 L 36.0451,-246.439
 L 35.6448,-246.923 L 35.1871,-247.353 L 34.6791,-247.722 L 34.1289,-248.024 L 33.5451,-248.255 L 32.9369,-248.411
 L 32.3139,-248.49 L -32.3139,-248.49 L -32.9369,-248.411 L -33.5451,-248.255 L -34.1289,-248.024 L -34.6791,-247.722
 L -35.1871,-247.353 L -35.6448,-246.923 L -36.0451,-246.439 L -36.3815,-245.909 L -36.6489,-245.341 L -36.8429,-244.743
 L -36.9606,-244.127 L -37,-243.5 L -37,-224.5 L -36.9606,-223.873 L -36.8429,-223.257 L -36.6489,-222.659
 L -36.3815,-222.091 L -36.0451,-221.561 L -35.6448,-221.077 L -35.1871,-220.647 L -34.6791,-220.278 L -34.1289,-219.976
 L -33.5451,-219.745 L -32.9369,-219.589 L -32.3139,-219.51 L 32.3139,-219.51 z
M -32.1954,-221.393 L -32.5833,-221.442 L -32.9619,-221.539 L -33.3254,-221.683 L -33.668,-221.872 L -33.9842,-222.101
 L -34.2692,-222.369 L -34.5184,-222.67 L -34.7279,-223 L -34.8943,-223.354 L -35.0151,-223.726 L -35.0884,-224.11
 L -35.1129,-224.5 L -35.1129,-243.5 L -35.0884,-243.89 L -35.0151,-244.274 L -34.8943,-244.646 L -34.7279,-245
 L -34.5184,-245.33 L -34.2692,-245.631 L -33.9842,-245.899 L -33.668,-246.128 L -33.3254,-246.317 L -32.9619,-246.461
 L -32.5833,-246.558 L -32.1954,-246.607 L 32.1954,-246.607 L 32.5833,-246.558 L 32.9619,-246.461 L 33.3254,-246.317
 L 33.668,-246.128 L 33.9842,-245.899 L 34.2692,-245.631 L 34.5184,-245.33 L 34.7279,-245 L 34.8943,-244.646
 L 35.0151,-244.274 L 35.0884,-243.89 L 35.1129,-243.5 L 35.1129,-224.5 L 35.0884,-224.11 L 35.0151,-223.726
 L 34.8943,-223.354 L 34.7279,-223 L 34.5184,-222.67 L 34.2692,-222.369 L 33.9842,-222.101 L 33.668,-221.872
 L 33.3254,-221.683 L 32.9619,-221.539 L 32.5833,-221.442 L 32.1954,-221.393 z
M 32.9369,-180.589 L 33.5451,-180.745 L 34.1289,-180.976 L 34.6791,-181.278 L 35.1871,-181.647 L 35.6448,-182.077
 L 36.0451,-182.561 L 36.3815,-183.091 L 36.6489,-183.659 L 36.8429,-184.257 L 36.9606,-184.873 L 37,-185.5
 L 37,-204.5 L 36.9606,-205.127 L 36.8429,-205.743 L 36.6489,-206.341 L 36.3815,-206.909 L 36.0451,-207.439
 L 35.6448,-207.923 L 35.1871,-208.353 L 34.6791,-208.722 L 34.1289,-209.024 L 33.5451,-209.255 L 32.9369,-209.411
 L 32.3139,-209.49 L -32.3139,-209.49 L -32.9369,-209.411 L -33.5451,-209.255 L -34.1289,-209.024 L -34.6791,-208.722
 L -35.1871,-208.353 L -35.6448,-207.923 L -36.0451,-207.439 L -36.3815,-206.909 L -36.6489,-206.341 L -36.8429,-205.743
 L -36.9606,-205.127 L -37,-204.5 L -37,-185.5 L -36.9606,-184.873 L -36.8429,-184.257 L -36.6489,-183.659
 L -36.3815,-183.091 L -36.0451,-182.561 L -35.6448,-182.077 L -35.1871,-181.647 L -34.6791,-181.278 L -34.1289,-180.976
 L -33.5451,-180.745 L -32.9369,-180.589 L -32.3139,-180.51 L 32.3139,-180.51 z
M 29.8493,-200.105 L 29.5503,-200.143 L 29.2583,-200.217 L 28.9781,-200.328 L 28.714,-200.474 L 28.4702,-200.651
 L 28.2505,-200.857 L 28.0583,-201.089 L 27.8969,-201.344 L 27.7685,-201.617 L 27.6754,-201.903 L 27.6189,-202.199
 L 27.6,-202.5 L 27.6189,-202.801 L 27.6754,-203.097 L 27.7685,-203.383 L 27.8969,-203.656 L 28.0583,-203.911
 L 28.2505,-204.143 L 28.4702,-204.349 L 28.714,-204.526 L 28.9781,-204.672 L 29.2583,-204.783 L 29.5503,-204.857
 L 29.8493,-204.895 L 30.1507,-204.895 L 30.4497,-204.857 L 30.7416,-204.783 L 31.0219,-204.672 L 31.286,-204.526
 L 31.5298,-204.349 L 31.7495,-204.143 L 31.9416,-203.911 L 32.1031,-203.656 L 32.2315,-203.383 L 32.3246,-203.097
 L 32.3811,-202.801 L 32.4,-202.5 L 32.3811,-202.199 L 32.3246,-201.903 L 32.2315,-201.617 L 32.1031,-201.344
 L 31.9416,-201.089 L 31.7495,-200.857 L 31.5298,-200.651 L 31.286,-200.474 L 31.0219,-200.328 L 30.7416,-200.217
 L 30.4497,-200.143 L 30.1507,-200.105 z
M -30.1507,-200.105 L -30.4497,-200.143 L -30.7416,-200.217 L -31.0219,-200.328 L -31.286,-200.474 L -31.5298,-200.651
 L -31.7495,-200.857 L -31.9416,-201.089 L -32.1031,-201.344 L -32.2315,-201.617 L -32.3246,-201.903 L -32.3811,-202.199
 L -32.4,-202.5 L -32.3811,-202.801 L -32.3246,-203.097 L -32.2315,-203.383 L -32.1031,-203.656 L -31.9416,-203.911
 L -31.7495,-204.143 L -31.5298,-204.349 L -31.286,-204.526 L -31.0219,-204.672 L -30.7416,-204.783 L -30.4497,-204.857
 L -30.1507,-204.895 L -29.8493,-204.895 L -29.5503,-204.857 L -29.2583,-204.783 L -28.9781,-204.672 L -28.714,-204.526
 L -28.4702,-204.349 L -28.2505,-204.143 L -28.0583,-203.911 L -27.8969,-203.656 L -27.7685,-203.383 L -27.6754,-203.097
 L -27.6189,-202.801 L -27.6,-202.5 L -27.6189,-202.199 L -27.6754,-201.903 L -27.7685,-201.617 L -27.8969,-201.344
 L -28.0583,-201.089 L -28.2505,-200.857 L -28.4702,-200.651 L -28.714,-200.474 L -28.9781,-200.328 L -29.2583,-200.217
 L -29.5503,-200.143 L -29.8493,-200.105 z
M -30.1507,-185.105 L -30.4497,-185.143 L -30.7416,-185.217 L -31.0219,-185.328 L -31.286,-185.474 L -31.5298,-185.651
 L -31.7495,-185.857 L -31.9416,-186.089 L -32.1031,-186.344 L -32.2315,-186.617 L -32.3246,-186.903 L -32.3811,-187.199
 L -32.4,-187.5 L -32.3811,-187.801 L -32.3246,-188.097 L -32.2315,-188.383 L -32.1031,-188.656 L -31.9416,-188.911
 L -31.7495,-189.143 L -31.5298,-189.349 L -31.286,-189.526 L -31.0219,-189.672 L -30.7416,-189.783 L -30.4497,-189.857
 L -30.1507,-189.895 L -29.8493,-189.895 L -29.5503,-189.857 L -29.2583,-189.783 L -28.9781,-189.672 L -28.714,-189.526
 L -28.4702,-189.349 L -28.2505,-189.143 L -28.0583,-188.911 L -27.8969,-188.656 L -27.7685,-188.383 L -27.6754,-188.097
 L -27.6189,-187.801 L -27.6,-187.5 L -27.6189,-187.199 L -27.6754,-186.903 L -27.7685,-186.617 L -27.8969,-186.344
 L -28.0583,-186.089 L -28.2505,-185.857 L -28.4702,-185.651 L -28.714,-185.474 L -28.9781,-185.328 L -29.2583,-185.217
 L -29.5503,-185.143 L -29.8493,-185.105 z
M 29.8493,-185.105 L 29.5503,-185.143 L 29.2583,-185.217 L 28.9781,-185.328 L 28.714,-185.474 L 28.4702,-185.651
 L 28.2505,-185.857 L 28.0583,-186.089 L 27.8969,-186.344 L 27.7685,-186.617 L 27.6754,-186.903 L 27.6189,-187.199
 L 27.6,-187.5 L 27.6189,-187.801 L 27.6754,-188.097 L 27.7685,-188.383 L 27.8969,-188.656 L 28.0583,-188.911
 L 28.2505,-189.143 L 28.4702,-189.349 L 28.714,-189.526 L 28.9781,-189.672 L 29.2583,-189.783 L 29.5503,-189.857
 L 29.8493,-189.895 L 30.1507,-189.895 L 30.4497,-189.857 L 30.7416,-189.783 L 31.0219,-189.672 L 31.286,-189.526
 L 31.5298,-189.349 L 31.7495,-189.143 L 31.9416,-188.911 L 32.1031,-188.656 L 32.2315,-188.383 L 32.3246,-188.097
 L 32.3811,-187.801 L 32.4,-187.5 L 32.3811,-187.199 L 32.3246,-186.903 L 32.2315,-186.617 L 32.1031,-186.344
 L 31.9416,-186.089 L 31.7495,-185.857 L 31.5298,-185.651 L 31.286,-185.474 L 31.0219,-185.328 L 30.7416,-185.217
 L 30.4497,-185.143 L 30.1507,-185.105 z
" stroke="black" fill="lightgray" stroke-width="0.5"/>
</svg>
