<?xml version="1.0" standalone="no"?>
<!DOCTYPE svg PUBLIC "-//W3C//DTD SVG 1.1//EN" "http://www.w3.org/Graphics/SVG/1.1/DTD/svg11.dtd">
<svg width="32mm" height="186mm" viewBox="-17 -366 32 186" xmlns="http://www.w3.org/2000/svg" version="1.1">
<title>OpenSCAD Model</title>
<path d="
M -13.5,-338.507 L -13.1448,-338.077 L -12.6871,-337.647 L -12.1791,-337.278 L -11.6289,-336.976 L -11.0451,-336.745
 L -10.4369,-336.589 L -9.81395,-336.51 L 9.81395,-336.51 L 10.4369,-336.589 L 11.0451,-336.745 L 11.6289,-336.976
 L 12.1791,-337.278 L 12.6871,-337.647 L 13.1448,-338.077 L 13.5451,-338.561 L 13.8815,-339.091 L 14.1489,-339.659
 L 14.3429,-340.257 L 14.4606,-340.873 L 14.5,-341.5 L 14.5,-360.5 L 14.4606,-361.127 L 14.3429,-361.743
 L 14.1489,-362.341 L 13.8815,-362.909 L 13.5451,-363.439 L 13.1448,-363.923 L 12.6871,-364.353 L 12.1791,-364.722
 L 11.6289,-365.024 L 11.0451,-365.255 L 10.4369,-365.411 L 9.81395,-365.49 L -9.81395,-365.49 L -10.4369,-365.411
 L -11.0451,-365.255 L -11.6289,-365.024 L -12.1791,-364.722 L -12.6871,-364.353 L -13.1448,-363.923 L -13.5,-363.493
 L -13.5,-365.99 L -16.5,-365.99 L -16.5,-336.01 L -13.5,-336.01 z
M -9.75116,-337.508 L -10.2495,-337.571 L -10.7361,-337.696 L -11.2031,-337.881 L -11.6433,-338.123 L -12.0497,-338.418
 L -12.4159,-338.762 L -12.7361,-339.149 L -13.0052,-339.573 L -13.2191,-340.028 L -13.3743,-340.505 L -13.4684,-340.999
 L -13.5,-341.5 L -13.5,-360.5 L -13.4684,-361.001 L -13.3743,-361.495 L -13.2191,-361.972 L -13.0052,-362.427
 L -12.7361,-362.851 L -12.4159,-363.238 L -12.0497,-363.582 L -11.6433,-363.877 L -11.2031,-364.119 L -10.7361,-364.304
 L -10.2495,-364.429 L -9.75116,-364.492 L 9.75116,-364.492 L 10.2495,-364.429 L 10.7361,-364.304 L 11.2031,-364.119
 L 11.6433,-363.877 L 12.0497,-363.582 L 12.4159,-363.238 L 12.7361,-362.851 L 13.0052,-362.427 L 13.2191,-361.972
 L 13.3743,-361.495 L 13.4684,-361.001 L 13.5,-360.5 L 13.5,-341.5 L 13.4684,-340.999 L 13.3743,-340.505
 L 13.2191,-340.028 L 13.0052,-339.573 L 12.7361,-339.149 L 12.4159,-338.762 L 12.0497,-338.418 L 11.6433,-338.123
 L 11.2031,-337.881 L 10.7361,-337.696 L 10.2495,-337.571 L 9.75116,-337.508 z
M -13.5,-299.507 L -13.1448,-299.077 L -12.6871,-298.647 L -12.1791,-298.278 L -11.6289,-297.976 L -11.0451,-297.745
 L -10.4369,-297.589 L -9.81395,-297.51 L 9.81395,-297.51 L 10.4369,-297.589 L 11.0451,-297.745 L 11.6289,-297.976
 L 12.1791,-298.278 L 12.6871,-298.647 L 13.1448,-299.077 L 13.5451,-299.561 L 13.8815,-300.091 L 14.1489,-300.659
 L 14.3429,-301.257 L 14.4606,-301.873 L 14.5,-302.5 L 14.5,-321.5 L 14.4606,-322.127 L 14.3429,-322.743
 L 14.1489,-323.341 L 13.8815,-323.909 L 13.5451,-324.439 L 13.1448,-324.923 L 12.6871,-325.353 L 12.1791,-325.722
 L 11.6289,-326.024 L 11.0451,-326.255 L 10.4369,-326.411 L 9.81395,-326.49 L -9.81395,-326.49 L -10.4369,-326.411
 L -11.0451,-326.255 L -11.6289,-326.024 L -12.1791,-325.722 L -12.6871,-325.353 L -13.1448,-324.923 L -13.5,-324.493
 L -13.5,-326.99 L -16.5,-326.99 L -16.5,-297.01 L -13.5,-297.01 z
M -9.75116,-298.508 L -10.2495,-298.571 L -10.7361,-298.696 L -11.2031,-298.881 L -11.6433,-299.123 L -12.0497,-299.418
 L -12.4159,-299.762 L -12.7361,-300.149 L -13.0052,-300.573 L -13.2191,-301.028 L -13.3743,-301.505 L -13.4684,-301.999
 L -13.5,-302.5 L -13.5,-321.5 L -13.4684,-322.001 L -13.3743,-322.495 L -13.2191,-322.972 L -13.0052,-323.427
 L -12.7361,-323.851 L -12.4159,-324.238 L -12.0497,-324.582 L -11.6433,-324.877 L -11.2031,-325.119 L -10.7361,-325.304
 L -10.2495,-325.429 L -9.75116,-325.492 L 9.75116,-325.492 L 10.2495,-325.429 L 10.7361,-325.304 L 11.2031,-325.119
 L 11.6433,-324.877 L 12.0497,-324.582 L 12.4159,-324.238 L 12.7361,-323.851 L 13.0052,-323.427 L 13.2191,-322.972
 L 13.3743,-322.495 L 13.4684,-322.001 L 13.5,-321.5 L 13.5,-302.5 L 13.4684,-301.999 L 13.3743,-301.505
 L 13.2191,-301.028 L 13.0052,-300.573 L 12.7361,-300.149 L 12.4159,-299.762 L 12.0497,-299.418 L 11.6433,-299.123
 L 11.2031,-298.881 L 10.7361,-298.696 L 10.2495,-298.571 L 9.75116,-298.508 z
M -13.5,-260.507 L -13.1448,-260.077 L -12.6871,-259.647 L -12.1791,-259.278 L -11.6289,-258.976 L -11.0451,-258.745
 L -10.4369,-258.589 L -9.81395,-258.51 L 9.81395,-258.51 L 10.4369,-258.589 L 11.0451,-258.745 L 11.6289,-258.976
 L 12.1791,-259.278 L 12.6871,-259.647 L 13.1448,-260.077 L 13.5451,-260.561 L 13.8815,-261.091 L 14.1489,-261.659
 L 14.3429,-262.257 L 14.4606,-262.873 L 14.5,-263.5 L 14.5,-282.5 L 14.4606,-283.127 L 14.3429,-283.743
 L 14.1489,-284.341 L 13.8815,-284.909 L 13.5451,-285.439 L 13.1448,-285.923 L 12.6871,-286.353 L 12.1791,-286.722
 L 11.6289,-287.024 L 11.0451,-287.255 L 10.4369,-287.411 L 9.81395,-287.49 L -9.81395,-287.49 L -10.4369,-287.411
 L -11.0451,-287.255 L -11.6289,-287.024 L -12.1791,-286.722 L -12.6871,-286.353 L -13.1448,-285.923 L -13.5,-285.493
 L -13.5,-287.99 L -16.5,-287.99 L -16.5,-258.01 L -13.5,-258.01 z
M -9.75116,-259.508 L -10.2495,-259.571 L -10.7361,-259.696 L -11.2031,-259.881 L -11.6433,-260.123 L -12.0497,-260.418
 L -12.4159,-260.762 L -12.7361,-261.149 L -13.0052,-261.573 L -13.2191,-262.028 L -13.3743,-262.505 L -13.4684,-262.999
 L -13.5,-263.5 L -13.5,-282.5 L -13.4684,-283.001 L -13.3743,-283.495 L -13.2191,-283.972 L -13.0052,-284.427
 L -12.7361,-284.851 L -12.4159,-285.238 L -12.0497,-285.582 L -11.6433,-285.877 L -11.2031,-286.119 L -10.7361,-286.304
 L -10.2495,-286.429 L -9.75116,-286.492 L 9.75116,-286.492 L 10.2495,-286.429 L 10.7361,-286.304 L 11.2031,-286.119
 L 11.6433,-285.877 L 12.0497,-285.582 L 12.4159,-285.238 L 12.7361,-284.851 L 13.0052,-284.427 L 13.2191,-283.972
 L 13.3743,-283.495 L 13.4684,-283.001 L 13.5,-282.5 L 13.5,-263.5 L 13.4684,-262.999 L 13.3743,-262.505
 L 13.2191,-262.028 L 13.0052,-261.573 L 12.7361,-261.149 L 12.4159,-260.762 L 12.0497,-260.418 L 11.6433,-260.123
 L 11.2031,-259.881 L 10.7361,-259.696 L 10.2495,-259.571 L 9.75116,-259.508 z
M -13.5,-221.507 L -13.1448,-221.077 L -12.6871,-220.647 L -12.1791,-220.278 L -11.6289,-219.976 L -11.0451,-219.745
 L -10.4369,-219.589 L -9.81395,-219.51 L 9.81395,-219.51 L 10.4369,-219.589 L 11.0451,-219.745 L 11.6289,-219.976
 L 12.1791,-220.278 L 12.6871,-220.647 L 13.1448,-221.077 L 13.5451,-221.561 L 13.8815,-222.091 L 14.1489,-222.659
 L 14.3429,-223.257 L 14.4606,-223.873 L 14.5,-224.5 L 14.5,-243.5 L 14.4606,-244.127 L 14.3429,-244.743
 L 14.1489,-245.341 L 13.8815,-245.909 L 13.5451,-246.439 L 13.1448,-246.923 L 12.6871,-247.353 L 12.1791,-247.722
 L 11.6289,-248.024 L 11.0451,-248.255 L 10.4369,-248.411 L 9.81395,-248.49 L -9.81395,-248.49 L -10.4369,-248.411
 L -11.0451,-248.255 L -11.6289,-248.024 L -12.1791,-247.722 L -12.6871,-247.353 L -13.1448,-246.923 L -13.5,-246.493
 L -13.5,-248.979 L -16.5,-248.979 L -16.5,-219.021 L -13.5,-219.021 z
M -9.69545,-221.393 L -10.0833,-221.442 L -10.4619,-221.539 L -10.8254,-221.683 L -11.168,-221.872 L -11.4842,-222.101
 L -11.7692,-222.369 L -12.0184,-222.67 L -12.2279,-223 L -12.3943,-223.354 L -12.5151,-223.726 L -12.5884,-224.11
 L -12.6129,-224.5 L -12.6129,-243.5 L -12.5884,-243.89 L -12.5151,-244.274 L -12.3943,-244.646 L -12.2279,-245
 L -12.0184,-245.33 L -11.7692,-245.631 L -11.4842,-245.899 L -11.168,-246.128 L -10.8254,-246.317 L -10.4619,-246.461
 L -10.0833,-246.558 L -9.69545,-246.607 L 9.69545,-246.607 L 10.0833,-246.558 L 10.4619,-246.461 L 10.8254,-246.317
 L 11.168,-246.128 L 11.4842,-245.899 L 11.7692,-245.631 L 12.0184,-245.33 L 12.2279,-245 L 12.3943,-244.646
 L 12.5151,-244.274 L 12.5884,-243.89 L 12.6129,-243.5 L 12.6129,-224.5 L 12.5884,-224.11 L 12.5151,-223.726
 L 12.3943,-223.354 L 12.2279,-223 L 12.0184,-222.67 L 11.7692,-222.369 L 11.4842,-222.101 L 11.168,-221.872
 L 10.8254,-221.683 L 10.4619,-221.539 L 10.0833,-221.442 L 9.69545,-221.393 z
M 10.4369,-180.589 L 11.0451,-180.745 L 11.6289,-180.976 L 12.1791,-181.278 L 12.6871,-181.647 L 13.1448,-182.077
 L 13.5451,-182.561 L 13.8815,-183.091 L 14.1489,-183.659 L 14.3429,-184.257 L 14.4606,-184.873 L 14.5,-185.5
 L 14.5,-204.5 L 14.4606,-205.127 L 14.3429,-205.743 L 14.1489,-206.341 L 13.8815,-206.909 L 13.5451,-207.439
 L 13.1448,-207.923 L 12.6871,-208.353 L 12.1791,-208.722 L 11.6289,-209.024 L 11.0451,-209.255 L 10.4369,-209.411
 L 9.81395,-209.49 L -9.81395,-209.49 L -10.4369,-209.411 L -11.0451,-209.255 L -11.6289,-209.024 L -12.1791,-208.722
 L -12.6871,-208.353 L -13.1448,-207.923 L -13.5,-207.493 L -13.5,-208.653 L -16.5,-208.653 L -16.5,-181.347
 L -13.5,-181.347 L -13.5,-182.507 L -13.1448,-182.077 L -12.6871,-181.647 L -12.1791,-181.278 L -11.6289,-180.976
 L -11.0451,-180.745 L -10.4369,-180.589 L -9.81395,-180.51 L 9.81395,-180.51 z
M -7.6507,-200.105 L -7.94971,-200.143 L -8.24164,-200.217 L -8.52187,-200.328 L -8.78598,-200.474 L -9.02982,-200.651
 L -9.24951,-200.857 L -9.44164,-201.089 L -9.60313,-201.344 L -9.73146,-201.617 L -9.82458,-201.903 L -9.88107,-202.199
 L -9.89999,-202.5 L -9.88107,-202.801 L -9.82458,-203.097 L -9.73146,-203.383 L -9.60313,-203.656 L -9.44164,-203.911
 L -9.24951,-204.143 L -9.02982,-204.349 L -8.78598,-204.526 L -8.52187,-204.672 L -8.24164,-204.783 L -7.94971,-204.857
 L -7.6507,-204.895 L -7.34929,-204.895 L -7.05028,-204.857 L -6.75835,-204.783 L -6.47812,-204.672 L -6.214,-204.526
 L -5.97017,-204.349 L -5.75047,-204.143 L -5.55835,-203.911 L -5.39685,-203.656 L -5.26852,-203.383 L -5.1754,-203.097
 L -5.11891,-202.801 L -5.09999,-202.5 L -5.11891,-202.199 L -5.1754,-201.903 L -5.26852,-201.617 L -5.39685,-201.344
 L -5.55835,-201.089 L -5.75047,-200.857 L -5.97017,-200.651 L -6.214,-200.474 L -6.47812,-200.328 L -6.75835,-200.217
 L -7.05028,-200.143 L -7.34929,-200.105 z
M 7.34929,-200.105 L 7.05028,-200.143 L 6.75835,-200.217 L 6.47812,-200.328 L 6.214,-200.474 L 5.97017,-200.651
 L 5.75047,-200.857 L 5.55835,-201.089 L 5.39685,-201.344 L 5.26852,-201.617 L 5.1754,-201.903 L 5.11891,-202.199
 L 5.09999,-202.5 L 5.11891,-202.801 L 5.1754,-203.097 L 5.26852,-203.383 L 5.39685,-203.656 L 5.55835,-203.911
 L 5.75047,-204.143 L 5.97017,-204.349 L 6.214,-204.526 L 6.47812,-204.672 L 6.75835,-204.783 L 7.05028,-204.857
 L 7.34929,-204.895 L 7.6507,-204.895 L 7.94971,-204.857 L 8.24164,-204.783 L 8.52187,-204.672 L 8.78598,-204.526
 L 9.02982,-204.349 L 9.24951,-204.143 L 9.44164,-203.911 L 9.60313,-203.656 L 9.73146,-203.383 L 9.82458,-203.097
 L 9.88107,-202.801 L 9.89999,-202.5 L 9.88107,-202.199 L 9.82458,-201.903 L 9.73146,-201.617 L 9.60313,-201.344
 L 9.44164,-201.089 L 9.24951,-200.857 L 9.02982,-200.651 L 8.78598,-200.474 L 8.52187,-200.328 L 8.24164,-200.217
 L 7.94971,-200.143 L 7.6507,-200.105 z
M -7.6507,-185.105 L -7.94971,-185.143 L -8.24164,-185.217 L -8.52187,-185.328 L -8.78598,-185.474 L -9.02982,-185.651
 L -9.24951,-185.857 L -9.44164,-186.089 L -9.60313,-186.344 L -9.73146,-186.617 L -9.82458,-186.903 L -9.88107,-187.199
 L -9.89999,-187.5 L -9.88107,-187.801 L -9.82458,-188.097 L -9.73146,-188.383 L -9.60313,-188.656 L -9.44164,-188.911
 L -9.24951,-189.143 L -9.02982,-189.349 L -8.78598,-189.526 L -8.52187,-189.672 L -8.24164,-189.783 L -7.94971,-189.857
 L -7.6507,-189.895 L -7.34929,-189.895 L -7.05028,-189.857 L -6.75835,-189.783 L -6.47812,-189.672 L -6.214,-189.526
 L -5.97017,-189.349 L -5.75047,-189.143 L -5.55835,-188.911 L -5.39685,-188.656 L -5.26852,-188.383 L -5.1754,-188.097
 L -5.11891,-187.801 L -5.09999,-187.5 L -5.11891,-187.199 L -5.1754,-186.903 L -5.26852,-186.617 L -5.39685,-186.344
 L -5.55835,-186.089 L -5.75047,-185.857 L -5.97017,-185.651 L -6.214,-185.474 L -6.47812,-185.328 L -6.75835,-185.217
 L -7.05028,-185.143 L -7.34929,-185.105 z
M 7.34929,-185.105 L 7.05028,-185.143 L 6.75835,-185.217 L 6.47812,-185.328 L 6.214,-185.474 L 5.97017,-185.651
 L 5.75047,-185.857 L 5.55835,-186.089 L 5.39685,-186.344 L 5.26852,-186.617 L 5.1754,-186.903 L 5.11891,-187.199
 L 5.09999,-187.5 L 5.11891,-187.801 L 5.1754,-188.097 L 5.26852,-188.383 L 5.39685,-188.656 L 5.55835,-188.911
 L 5.75047,-189.143 L 5.97017,-189.349 L 6.214,-189.526 L 6.47812,-189.672 L 6.75835,-189.783 L 7.05028,-189.857
 L 7.34929,-189.895 L 7.6507,-189.895 L 7.94971,-189.857 L 8.24164,-189.783 L 8.52187,-189.672 L 8.78598,-189.526
 L 9.02982,-189.349 L 9.24951,-189.143 L 9.44164,-188.911 L 9.60313,-188.656 L 9.73146,-188.383 L 9.82458,-188.097
 L 9.88107,-187.801 L 9.89999,-187.5 L 9.88107,-187.199 L 9.82458,-186.903 L 9.73146,-186.617 L 9.60313,-186.344
 L 9.44164,-186.089 L 9.24951,-185.857 L 9.02982,-185.651 L 8.78598,-185.474 L 8.52187,-185.328 L 8.24164,-185.217
 L 7.94971,-185.143 L 7.6507,-185.105 z
" stroke="black" fill="lightgray" stroke-width="0.5"/>
</svg>
