<?xml version="1.0" standalone="no"?>
<!DOCTYPE svg PUBLIC "-//W3C//DTD SVG 1.1//EN" "http://www.w3.org/Graphics/SVG/1.1/DTD/svg11.dtd">
<svg width="58mm" height="28mm" viewBox="-29 -14 58 28" xmlns="http://www.w3.org/2000/svg" version="1.1">
<title>OpenSCAD Model</title>
<path d="
M 25.7495,13.9291 L 26.2361,13.8042 L 26.7031,13.6193 L 27.1433,13.3773 L 27.5497,13.082 L 27.9159,12.7382
 L 28.2361,12.3511 L 28.5052,11.927 L 28.7191,11.4725 L 28.8743,10.9948 L 28.9684,10.5013 L 29,10
 L 29,-10 L 28.9684,-10.5013 L 28.8743,-10.9948 L 28.7191,-11.4725 L 28.5052,-11.927 L 28.2361,-12.3511
 L 27.9159,-12.7382 L 27.5497,-13.082 L 27.1433,-13.3773 L 26.7031,-13.6193 L 26.2361,-13.8042 L 25.7495,-13.9291
 L 25.2512,-13.9921 L -25.2512,-13.9921 L -25.7495,-13.9291 L -26.2361,-13.8042 L -26.7031,-13.6193 L -27.1433,-13.3773
 L -27.5497,-13.082 L -27.9159,-12.7382 L -28.2361,-12.3511 L -28.5052,-11.927 L -28.7191,-11.4725 L -28.8743,-10.9948
 L -28.9684,-10.5013 L -29,-10 L -29,10 L -28.9684,10.5013 L -28.8743,10.9948 L -28.7191,11.4725
 L -28.5052,11.927 L -28.2361,12.3511 L -27.9159,12.7382 L -27.5497,13.082 L -27.1433,13.3773 L -26.7031,13.6193
 L -26.2361,13.8042 L -25.7495,13.9291 L -25.2512,13.9921 L 25.2512,13.9921 z
M 22.3179,-4.60571 L 21.9566,-4.65135 L 21.6039,-4.74193 L 21.2652,-4.87599 L 20.9461,-5.05144 L 20.6515,-5.2655
 L 20.386,-5.5148 L 20.1538,-5.79541 L 19.9587,-6.10291 L 19.8036,-6.43243 L 19.6911,-6.77879 L 19.6229,-7.13652
 L 19.6,-7.5 L 19.6229,-7.86346 L 19.6911,-8.22119 L 19.8036,-8.56755 L 19.9587,-8.89708 L 20.1538,-9.20457
 L 20.386,-9.48518 L 20.6515,-9.73448 L 20.9461,-9.94855 L 21.2652,-10.124 L 21.6039,-10.2581 L 21.9566,-10.3486
 L 22.3179,-10.3943 L 22.6821,-10.3943 L 23.0434,-10.3486 L 23.3961,-10.2581 L 23.7348,-10.124 L 24.0539,-9.94855
 L 24.3485,-9.73448 L 24.614,-9.48518 L 24.8461,-9.20457 L 25.0413,-8.89708 L 25.1964,-8.56755 L 25.3089,-8.22119
 L 25.3771,-7.86346 L 25.4,-7.5 L 25.3771,-7.13652 L 25.3089,-6.77879 L 25.1964,-6.43243 L 25.0413,-6.10291
 L 24.8461,-5.79541 L 24.614,-5.5148 L 24.3485,-5.2655 L 24.0539,-5.05144 L 23.7348,-4.87599 L 23.3961,-4.74193
 L 23.0434,-4.65135 L 22.6821,-4.60571 z
M -22.6821,-4.60571 L -23.0434,-4.65135 L -23.3961,-4.74193 L -23.7348,-4.87599 L -24.0539,-5.05144 L -24.3485,-5.2655
 L -24.614,-5.5148 L -24.8461,-5.79541 L -25.0413,-6.10291 L -25.1964,-6.43243 L -25.3089,-6.77879 L -25.3771,-7.13652
 L -25.4,-7.5 L -25.3771,-7.86346 L -25.3089,-8.22119 L -25.1964,-8.56755 L -25.0413,-8.89708 L -24.8461,-9.20457
 L -24.614,-9.48518 L -24.3485,-9.73448 L -24.0539,-9.94855 L -23.7348,-10.124 L -23.3961,-10.2581 L -23.0434,-10.3486
 L -22.6821,-10.3943 L -22.3179,-10.3943 L -21.9566,-10.3486 L -21.6039,-10.2581 L -21.2652,-10.124 L -20.9461,-9.94855
 L -20.6515,-9.73448 L -20.386,-9.48518 L -20.1538,-9.20457 L -19.9587,-8.89708 L -19.8036,-8.56755 L -19.6911,-8.22119
 L -19.6229,-7.86346 L -19.6,-7.5 L -19.6229,-7.13652 L -19.6911,-6.77879 L -19.8036,-6.43243 L -19.9587,-6.10291
 L -20.1538,-5.79541 L -20.386,-5.5148 L -20.6515,-5.2655 L -20.9461,-5.05144 L -21.2652,-4.87599 L -21.6039,-4.74193
 L -21.9566,-4.65135 L -22.3179,-4.60571 z
M 20.1538,9.20457 L 19.9587,8.89708 L 19.8036,8.56755 L 19.6911,8.22119 L 19.6229,7.86346 L 19.6,7.5
 L 19.6229,7.13652 L 19.6911,6.77879 L 19.8036,6.43243 L 19.9587,6.10291 L 20.1538,5.79541 L 20.386,5.5148
 L 20.6515,5.2655 L 20.9461,5.05144 L 21.2652,4.87599 L 21.6039,4.74193 L 21.9566,4.65135 L 22.3179,4.60571
 L 22.6821,4.60571 L 23.0434,4.65135 L 23.3961,4.74193 L 23.7348,4.87599 L 24.0539,5.05144 L 24.3485,5.2655
 L 24.614,5.5148 L 24.8461,5.79541 L 25.0413,6.10291 L 25.1964,6.43243 L 25.3089,6.77879 L 25.3771,7.13652
 L 25.4,7.5 L 25.3771,7.86346 L 25.3089,8.22119 L 25.1964,8.56755 L 25.0413,8.89708 L 24.8461,9.20457
 L 24.614,9.48518 L 24.3485,9.73448 L 24.0539,9.94855 L 23.7348,10.124 L 23.3961,10.2581 L 23.0434,10.3486
 L 22.6821,10.3943 L 22.3179,10.3943 L 21.9566,10.3486 L 21.6039,10.2581 L 21.2652,10.124 L 20.9461,9.94855
 L 20.6515,9.73448 L 20.386,9.48518 z
M -21.2652,10.124 L -21.6039,10.2581 L -21.9566,10.3486 L -22.3179,10.3943 L -22.6821,10.3943 L -23.0434,10.3486
 L -23.3961,10.2581 L -23.7348,10.124 L -24.0539,9.94855 L -24.3485,9.73448 L -24.614,9.48518 L -24.8461,9.20457
 L -25.0413,8.89708 L -25.1964,8.56755 L -25.3089,8.22119 L -25.3771,7.86346 L -25.4,7.5 L -25.3771,7.13652
 L -25.3089,6.77879 L -25.1964,6.43243 L -25.0413,6.10291 L -24.8461,5.79541 L -24.614,5.5148 L -24.3485,5.2655
 L -24.0539,5.05144 L -23.7348,4.87599 L -23.3961,4.74193 L -23.0434,4.65135 L -22.6821,4.60571 L -22.3179,4.60571
 L -21.9566,4.65135 L -21.6039,4.74193 L -21.2652,4.87599 L -20.9461,5.05144 L -20.6515,5.2655 L -20.386,5.5148
 L -20.1538,5.79541 L -19.9587,6.10291 L -19.8036,6.43243 L -19.6911,6.77879 L -19.6229,7.13652 L -19.6,7.5
 L -19.6229,7.86346 L -19.6911,8.22119 L -19.8036,8.56755 L -19.9587,8.89708 L -20.1538,9.20457 L -20.386,9.48518
 L -20.6515,9.73448 L -20.9461,9.94855 z
" stroke="black" fill="lightgray" stroke-width="0.5"/>
</svg>
