  0
SECTION
  2
BLOCKS
  0
ENDSEC
  0
SECTION
  2
ENTITIES
  0
LINE
  8
0
 10
25.712
 20
16.2673
 11
26.1743
 21
16.386
  0
LINE
  8
0
 10
26.1743
 20
16.386
 11
26.618
 21
16.5616
  0
LINE
  8
0
 10
26.618
 20
16.5616
 11
27.0361
 21
16.7915
  0
LINE
  8
0
 10
27.0361
 20
16.7915
 11
27.4222
 21
17.072
  0
LINE
  8
0
 10
27.4222
 20
17.072
 11
27.7701
 21
17.3987
  0
LINE
  8
0
 10
27.7701
 20
17.3987
 11
28.0743
 21
17.7664
  0
LINE
  8
0
 10
28.0743
 20
17.7664
 11
28.33
 21
18.1693
  0
LINE
  8
0
 10
28.33
 20
18.1693
 11
28.5331
 21
18.6011
  0
LINE
  8
0
 10
28.5331
 20
18.6011
 11
28.6806
 21
19.055
  0
LINE
  8
0
 10
28.6806
 20
19.055
 11
28.77
 21
19.5237
  0
LINE
  8
0
 10
28.77
 20
19.5237
 11
28.8
 21
20
  0
LINE
  8
0
 10
28.8
 20
20
 11
28.8
 21
25
  0
LINE
  8
0
 10
28.8
 20
25
 11
28.77
 21
25.4763
  0
LINE
  8
0
 10
28.77
 20
25.4763
 11
28.6806
 21
25.945
  0
LINE
  8
0
 10
28.6806
 20
25.945
 11
28.5331
 21
26.3989
  0
LINE
  8
0
 10
28.5331
 20
26.3989
 11
28.33
 21
26.8307
  0
LINE
  8
0
 10
28.33
 20
26.8307
 11
28.0743
 21
27.2336
  0
LINE
  8
0
 10
28.0743
 20
27.2336
 11
27.7701
 21
27.6013
  0
LINE
  8
0
 10
27.7701
 20
27.6013
 11
27.4222
 21
27.9279
  0
LINE
  8
0
 10
27.4222
 20
27.9279
 11
27.0361
 21
28.2084
  0
LINE
  8
0
 10
27.0361
 20
28.2084
 11
26.618
 21
28.4383
  0
LINE
  8
0
 10
26.618
 20
28.4383
 11
26.1743
 21
28.614
  0
LINE
  8
0
 10
26.1743
 20
28.614
 11
25.712
 21
28.7327
  0
LINE
  8
0
 10
25.712
 20
28.7327
 11
25.2386
 21
28.7925
  0
LINE
  8
0
 10
25.2386
 20
28.7925
 11
19.7614
 21
28.7925
  0
LINE
  8
0
 10
19.7614
 20
28.7925
 11
19.2879
 21
28.7327
  0
LINE
  8
0
 10
19.2879
 20
28.7327
 11
18.8257
 21
28.614
  0
LINE
  8
0
 10
18.8257
 20
28.614
 11
18.382
 21
28.4383
  0
LINE
  8
0
 10
18.382
 20
28.4383
 11
17.9639
 21
28.2084
  0
LINE
  8
0
 10
17.9639
 20
28.2084
 11
17.5778
 21
27.9279
  0
LINE
  8
0
 10
17.5778
 20
27.9279
 11
17.2299
 21
27.6013
  0
LINE
  8
0
 10
17.2299
 20
27.6013
 11
16.9257
 21
27.2336
  0
LINE
  8
0
 10
16.9257
 20
27.2336
 11
16.67
 21
26.8307
  0
LINE
  8
0
 10
16.67
 20
26.8307
 11
16.4668
 21
26.3989
  0
LINE
  8
0
 10
16.4668
 20
26.3989
 11
16.3194
 21
25.945
  0
LINE
  8
0
 10
16.3194
 20
25.945
 11
16.2299
 21
25.4763
  0
LINE
  8
0
 10
16.2299
 20
25.4763
 11
16.2
 21
25
  0
LINE
  8
0
 10
16.2
 20
25
 11
16.2
 21
20
  0
LINE
  8
0
 10
16.2
 20
20
 11
16.2299
 21
19.5237
  0
LINE
  8
0
 10
16.2299
 20
19.5237
 11
16.3194
 21
19.055
  0
LINE
  8
0
 10
16.3194
 20
19.055
 11
16.4668
 21
18.6011
  0
LINE
  8
0
 10
16.4668
 20
18.6011
 11
16.67
 21
18.1693
  0
LINE
  8
0
 10
16.67
 20
18.1693
 11
16.9257
 21
17.7664
  0
LINE
  8
0
 10
16.9257
 20
17.7664
 11
17.2299
 21
17.3987
  0
LINE
  8
0
 10
17.2299
 20
17.3987
 11
17.5778
 21
17.072
  0
LINE
  8
0
 10
17.5778
 20
17.072
 11
17.9639
 21
16.7915
  0
LINE
  8
0
 10
17.9639
 20
16.7915
 11
18.382
 21
16.5616
  0
LINE
  8
0
 10
18.382
 20
16.5616
 11
18.8257
 21
16.386
  0
LINE
  8
0
 10
18.8257
 20
16.386
 11
19.2879
 21
16.2673
  0
LINE
  8
0
 10
19.2879
 20
16.2673
 11
19.7614
 21
16.2075
  0
LINE
  8
0
 10
19.7614
 20
16.2075
 11
25.2386
 21
16.2075
  0
LINE
  8
0
 10
25.2386
 20
16.2075
 11
25.712
 21
16.2673
  0
LINE
  8
0
 10
21.8116
 20
19.0059
 11
21.4379
 21
19.0531
  0
LINE
  8
0
 10
21.4379
 20
19.0531
 11
21.0729
 21
19.1468
  0
LINE
  8
0
 10
21.0729
 20
19.1468
 11
20.7227
 21
19.2855
  0
LINE
  8
0
 10
20.7227
 20
19.2855
 11
20.3925
 21
19.467
  0
LINE
  8
0
 10
20.3925
 20
19.467
 11
20.0877
 21
19.6884
  0
LINE
  8
0
 10
20.0877
 20
19.6884
 11
19.8131
 21
19.9464
  0
LINE
  8
0
 10
19.8131
 20
19.9464
 11
19.5729
 21
20.2366
  0
LINE
  8
0
 10
19.5729
 20
20.2366
 11
19.3711
 21
20.5547
  0
LINE
  8
0
 10
19.3711
 20
20.5547
 11
19.2107
 21
20.8956
  0
LINE
  8
0
 10
19.2107
 20
20.8956
 11
19.0942
 21
21.2539
  0
LINE
  8
0
 10
19.0942
 20
21.2539
 11
19.0237
 21
21.624
  0
LINE
  8
0
 10
19.0237
 20
21.624
 11
19
 21
22
  0
LINE
  8
0
 10
19
 20
22
 11
19
 21
23
  0
LINE
  8
0
 10
19
 20
23
 11
19.0237
 21
23.376
  0
LINE
  8
0
 10
19.0237
 20
23.376
 11
19.0942
 21
23.7461
  0
LINE
  8
0
 10
19.0942
 20
23.7461
 11
19.2107
 21
24.1044
  0
LINE
  8
0
 10
19.2107
 20
24.1044
 11
19.3711
 21
24.4453
  0
LINE
  8
0
 10
19.3711
 20
24.4453
 11
19.5729
 21
24.7634
  0
LINE
  8
0
 10
19.5729
 20
24.7634
 11
19.8131
 21
25.0536
  0
LINE
  8
0
 10
19.8131
 20
25.0536
 11
20.0877
 21
25.3115
  0
LINE
  8
0
 10
20.0877
 20
25.3115
 11
20.3925
 21
25.533
  0
LINE
  8
0
 10
20.3925
 20
25.533
 11
20.7227
 21
25.7145
  0
LINE
  8
0
 10
20.7227
 20
25.7145
 11
21.0729
 21
25.8532
  0
LINE
  8
0
 10
21.0729
 20
25.8532
 11
21.4379
 21
25.9469
  0
LINE
  8
0
 10
21.4379
 20
25.9469
 11
21.8116
 21
25.9941
  0
LINE
  8
0
 10
21.8116
 20
25.9941
 11
23.1884
 21
25.9941
  0
LINE
  8
0
 10
23.1884
 20
25.9941
 11
23.5621
 21
25.9469
  0
LINE
  8
0
 10
23.5621
 20
25.9469
 11
23.927
 21
25.8532
  0
LINE
  8
0
 10
23.927
 20
25.8532
 11
24.2773
 21
25.7145
  0
LINE
  8
0
 10
24.2773
 20
25.7145
 11
24.6075
 21
25.533
  0
LINE
  8
0
 10
24.6075
 20
25.533
 11
24.9123
 21
25.3115
  0
LINE
  8
0
 10
24.9123
 20
25.3115
 11
25.1869
 21
25.0536
  0
LINE
  8
0
 10
25.1869
 20
25.0536
 11
25.427
 21
24.7634
  0
LINE
  8
0
 10
25.427
 20
24.7634
 11
25.6289
 21
24.4453
  0
LINE
  8
0
 10
25.6289
 20
24.4453
 11
25.7893
 21
24.1044
  0
LINE
  8
0
 10
25.7893
 20
24.1044
 11
25.9057
 21
23.7461
  0
LINE
  8
0
 10
25.9057
 20
23.7461
 11
25.9763
 21
23.376
  0
LINE
  8
0
 10
25.9763
 20
23.376
 11
26
 21
23
  0
LINE
  8
0
 10
26
 20
23
 11
26
 21
22
  0
LINE
  8
0
 10
26
 20
22
 11
25.9763
 21
21.624
  0
LINE
  8
0
 10
25.9763
 20
21.624
 11
25.9057
 21
21.2539
  0
LINE
  8
0
 10
25.9057
 20
21.2539
 11
25.7893
 21
20.8956
  0
LINE
  8
0
 10
25.7893
 20
20.8956
 11
25.6289
 21
20.5547
  0
LINE
  8
0
 10
25.6289
 20
20.5547
 11
25.427
 21
20.2366
  0
LINE
  8
0
 10
25.427
 20
20.2366
 11
25.1869
 21
19.9464
  0
LINE
  8
0
 10
25.1869
 20
19.9464
 11
24.9123
 21
19.6884
  0
LINE
  8
0
 10
24.9123
 20
19.6884
 11
24.6075
 21
19.467
  0
LINE
  8
0
 10
24.6075
 20
19.467
 11
24.2773
 21
19.2855
  0
LINE
  8
0
 10
24.2773
 20
19.2855
 11
23.927
 21
19.1468
  0
LINE
  8
0
 10
23.927
 20
19.1468
 11
23.5621
 21
19.0531
  0
LINE
  8
0
 10
23.5621
 20
19.0531
 11
23.1884
 21
19.0059
  0
LINE
  8
0
 10
23.1884
 20
19.0059
 11
21.8116
 21
19.0059
  0
LINE
  8
0
 10
-21.5631
 20
-27.4114
 11
-20.9549
 21
-27.2553
  0
LINE
  8
0
 10
-20.9549
 20
-27.2553
 11
-20.3711
 21
-27.0241
  0
LINE
  8
0
 10
-20.3711
 20
-27.0241
 11
-19.8209
 21
-26.7216
  0
LINE
  8
0
 10
-19.8209
 20
-26.7216
 11
-19.3129
 21
-26.3526
  0
LINE
  8
0
 10
-19.3129
 20
-26.3526
 11
-18.8551
 21
-25.9227
  0
LINE
  8
0
 10
-18.8551
 20
-25.9227
 11
-18.4549
 21
-25.4389
  0
LINE
  8
0
 10
-18.4549
 20
-25.4389
 11
-18.1185
 21
-24.9088
  0
LINE
  8
0
 10
-18.1185
 20
-24.9088
 11
-17.8511
 21
-24.3406
  0
LINE
  8
0
 10
-17.8511
 20
-24.3406
 11
-17.6571
 21
-23.7434
  0
LINE
  8
0
 10
-17.6571
 20
-23.7434
 11
-17.5394
 21
-23.1267
  0
LINE
  8
0
 10
-17.5394
 20
-23.1267
 11
-17.5
 21
-22.5
  0
LINE
  8
0
 10
-17.5
 20
-22.5
 11
-17.5394
 21
-21.8733
  0
LINE
  8
0
 10
-17.5394
 20
-21.8733
 11
-17.6571
 21
-21.2565
  0
LINE
  8
0
 10
-17.6571
 20
-21.2565
 11
-17.8511
 21
-20.6594
  0
LINE
  8
0
 10
-17.8511
 20
-20.6594
 11
-18.1185
 21
-20.0912
  0
LINE
  8
0
 10
-18.1185
 20
-20.0912
 11
-18.4549
 21
-19.5611
  0
LINE
  8
0
 10
-18.4549
 20
-19.5611
 11
-18.8551
 21
-19.0773
  0
LINE
  8
0
 10
-18.8551
 20
-19.0773
 11
-19.3129
 21
-18.6474
  0
LINE
  8
0
 10
-19.3129
 20
-18.6474
 11
-19.8209
 21
-18.2784
  0
LINE
  8
0
 10
-19.8209
 20
-18.2784
 11
-20.3711
 21
-17.9759
  0
LINE
  8
0
 10
-20.3711
 20
-17.9759
 11
-20.9549
 21
-17.7447
  0
LINE
  8
0
 10
-20.9549
 20
-17.7447
 11
-21.5631
 21
-17.5886
  0
LINE
  8
0
 10
-21.5631
 20
-17.5886
 11
-22.186
 21
-17.5099
  0
LINE
  8
0
 10
-22.186
 20
-17.5099
 11
-22.8139
 21
-17.5099
  0
LINE
  8
0
 10
-22.8139
 20
-17.5099
 11
-23.4369
 21
-17.5886
  0
LINE
  8
0
 10
-23.4369
 20
-17.5886
 11
-24.0451
 21
-17.7447
  0
LINE
  8
0
 10
-24.0451
 20
-17.7447
 11
-24.6289
 21
-17.9759
  0
LINE
  8
0
 10
-24.6289
 20
-17.9759
 11
-25.1791
 21
-18.2784
  0
LINE
  8
0
 10
-25.1791
 20
-18.2784
 11
-25.6871
 21
-18.6474
  0
LINE
  8
0
 10
-25.6871
 20
-18.6474
 11
-26.1448
 21
-19.0773
  0
LINE
  8
0
 10
-26.1448
 20
-19.0773
 11
-26.5451
 21
-19.5611
  0
LINE
  8
0
 10
-26.5451
 20
-19.5611
 11
-26.8815
 21
-20.0912
  0
LINE
  8
0
 10
-26.8815
 20
-20.0912
 11
-27.1489
 21
-20.6594
  0
LINE
  8
0
 10
-27.1489
 20
-20.6594
 11
-27.3429
 21
-21.2565
  0
LINE
  8
0
 10
-27.3429
 20
-21.2565
 11
-27.4606
 21
-21.8733
  0
LINE
  8
0
 10
-27.4606
 20
-21.8733
 11
-27.5
 21
-22.5
  0
LINE
  8
0
 10
-27.5
 20
-22.5
 11
-27.4606
 21
-23.1267
  0
LINE
  8
0
 10
-27.4606
 20
-23.1267
 11
-27.3429
 21
-23.7434
  0
LINE
  8
0
 10
-27.3429
 20
-23.7434
 11
-27.1489
 21
-24.3406
  0
LINE
  8
0
 10
-27.1489
 20
-24.3406
 11
-26.8815
 21
-24.9088
  0
LINE
  8
0
 10
-26.8815
 20
-24.9088
 11
-26.5451
 21
-25.4389
  0
LINE
  8
0
 10
-26.5451
 20
-25.4389
 11
-26.1448
 21
-25.9227
  0
LINE
  8
0
 10
-26.1448
 20
-25.9227
 11
-25.6871
 21
-26.3526
  0
LINE
  8
0
 10
-25.6871
 20
-26.3526
 11
-25.1791
 21
-26.7216
  0
LINE
  8
0
 10
-25.1791
 20
-26.7216
 11
-24.6289
 21
-27.0241
  0
LINE
  8
0
 10
-24.6289
 20
-27.0241
 11
-24.0451
 21
-27.2553
  0
LINE
  8
0
 10
-24.0451
 20
-27.2553
 11
-23.4369
 21
-27.4114
  0
LINE
  8
0
 10
-23.4369
 20
-27.4114
 11
-22.8139
 21
-27.4901
  0
LINE
  8
0
 10
-22.8139
 20
-27.4901
 11
-22.186
 21
-27.4901
  0
LINE
  8
0
 10
-22.186
 20
-27.4901
 11
-21.5631
 21
-27.4114
  0
LINE
  8
0
 10
-22.5942
 20
-23.997
 11
-22.7811
 21
-23.9734
  0
LINE
  8
0
 10
-22.7811
 20
-23.9734
 11
-22.9635
 21
-23.9266
  0
LINE
  8
0
 10
-22.9635
 20
-23.9266
 11
-23.1387
 21
-23.8572
  0
LINE
  8
0
 10
-23.1387
 20
-23.8572
 11
-23.3037
 21
-23.7665
  0
LINE
  8
0
 10
-23.3037
 20
-23.7665
 11
-23.4561
 21
-23.6558
  0
LINE
  8
0
 10
-23.4561
 20
-23.6558
 11
-23.5934
 21
-23.5268
  0
LINE
  8
0
 10
-23.5934
 20
-23.5268
 11
-23.7135
 21
-23.3817
  0
LINE
  8
0
 10
-23.7135
 20
-23.3817
 11
-23.8145
 21
-23.2226
  0
LINE
  8
0
 10
-23.8145
 20
-23.2226
 11
-23.8947
 21
-23.0522
  0
LINE
  8
0
 10
-23.8947
 20
-23.0522
 11
-23.9529
 21
-22.873
  0
LINE
  8
0
 10
-23.9529
 20
-22.873
 11
-23.9882
 21
-22.688
  0
LINE
  8
0
 10
-23.9882
 20
-22.688
 11
-24
 21
-22.5
  0
LINE
  8
0
 10
-24
 20
-22.5
 11
-23.9882
 21
-22.312
  0
LINE
  8
0
 10
-23.9882
 20
-22.312
 11
-23.9529
 21
-22.127
  0
LINE
  8
0
 10
-23.9529
 20
-22.127
 11
-23.8947
 21
-21.9478
  0
LINE
  8
0
 10
-23.8947
 20
-21.9478
 11
-23.8145
 21
-21.7774
  0
LINE
  8
0
 10
-23.8145
 20
-21.7774
 11
-23.7135
 21
-21.6183
  0
LINE
  8
0
 10
-23.7135
 20
-21.6183
 11
-23.5934
 21
-21.4732
  0
LINE
  8
0
 10
-23.5934
 20
-21.4732
 11
-23.4561
 21
-21.3442
  0
LINE
  8
0
 10
-23.4561
 20
-21.3442
 11
-23.3037
 21
-21.2335
  0
LINE
  8
0
 10
-23.3037
 20
-21.2335
 11
-23.1387
 21
-21.1427
  0
LINE
  8
0
 10
-23.1387
 20
-21.1427
 11
-22.9635
 21
-21.0734
  0
LINE
  8
0
 10
-22.9635
 20
-21.0734
 11
-22.7811
 21
-21.0266
  0
LINE
  8
0
 10
-22.7811
 20
-21.0266
 11
-22.5942
 21
-21.003
  0
LINE
  8
0
 10
-22.5942
 20
-21.003
 11
-22.4058
 21
-21.003
  0
LINE
  8
0
 10
-22.4058
 20
-21.003
 11
-22.2189
 21
-21.0266
  0
LINE
  8
0
 10
-22.2189
 20
-21.0266
 11
-22.0365
 21
-21.0734
  0
LINE
  8
0
 10
-22.0365
 20
-21.0734
 11
-21.8613
 21
-21.1427
  0
LINE
  8
0
 10
-21.8613
 20
-21.1427
 11
-21.6963
 21
-21.2335
  0
LINE
  8
0
 10
-21.6963
 20
-21.2335
 11
-21.5439
 21
-21.3442
  0
LINE
  8
0
 10
-21.5439
 20
-21.3442
 11
-21.4065
 21
-21.4732
  0
LINE
  8
0
 10
-21.4065
 20
-21.4732
 11
-21.2865
 21
-21.6183
  0
LINE
  8
0
 10
-21.2865
 20
-21.6183
 11
-21.1855
 21
-21.7774
  0
LINE
  8
0
 10
-21.1855
 20
-21.7774
 11
-21.1053
 21
-21.9478
  0
LINE
  8
0
 10
-21.1053
 20
-21.9478
 11
-21.0471
 21
-22.127
  0
LINE
  8
0
 10
-21.0471
 20
-22.127
 11
-21.0118
 21
-22.312
  0
LINE
  8
0
 10
-21.0118
 20
-22.312
 11
-21
 21
-22.5
  0
LINE
  8
0
 10
-21
 20
-22.5
 11
-21.0118
 21
-22.688
  0
LINE
  8
0
 10
-21.0118
 20
-22.688
 11
-21.0471
 21
-22.873
  0
LINE
  8
0
 10
-21.0471
 20
-22.873
 11
-21.1053
 21
-23.0522
  0
LINE
  8
0
 10
-21.1053
 20
-23.0522
 11
-21.1855
 21
-23.2226
  0
LINE
  8
0
 10
-21.1855
 20
-23.2226
 11
-21.2865
 21
-23.3817
  0
LINE
  8
0
 10
-21.2865
 20
-23.3817
 11
-21.4065
 21
-23.5268
  0
LINE
  8
0
 10
-21.4065
 20
-23.5268
 11
-21.5439
 21
-23.6558
  0
LINE
  8
0
 10
-21.5439
 20
-23.6558
 11
-21.6963
 21
-23.7665
  0
LINE
  8
0
 10
-21.6963
 20
-23.7665
 11
-21.8613
 21
-23.8572
  0
LINE
  8
0
 10
-21.8613
 20
-23.8572
 11
-22.0365
 21
-23.9266
  0
LINE
  8
0
 10
-22.0365
 20
-23.9266
 11
-22.2189
 21
-23.9734
  0
LINE
  8
0
 10
-22.2189
 20
-23.9734
 11
-22.4058
 21
-23.997
  0
LINE
  8
0
 10
-22.4058
 20
-23.997
 11
-22.5942
 21
-23.997
  0
ENDSEC
  0
SECTION
  2
OBJECTS
  0
DICTIONARY
  0
ENDSEC
  0
EOF
