solid OpenSCAD_Model
  facet normal 0.998027 0.0627939 0
    outer loop
      vertex 7 0 1.5
      vertex 6.9448 0.877332 -1.5
      vertex 6.9448 0.877332 1.5
    endloop
  endfacet
  facet normal 0.998027 0.0627939 0
    outer loop
      vertex 6.9448 0.877332 -1.5
      vertex 7 0 1.5
      vertex 7 0 -1.5
    endloop
  endfacet
  facet normal -0.998027 0.0627939 0
    outer loop
      vertex -7 0 -1.5
      vertex -6.9448 0.877332 1.5
      vertex -6.9448 0.877332 -1.5
    endloop
  endfacet
  facet normal -0.998027 0.0627939 0
    outer loop
      vertex -6.9448 0.877332 1.5
      vertex -7 0 -1.5
      vertex -7 0 1.5
    endloop
  endfacet
  facet normal 0 1 -0
    outer loop
      vertex 0.439533 6.98619 -1.5
      vertex -0.439533 6.98619 1.5
      vertex 0.439533 6.98619 1.5
    endloop
  endfacet
  facet normal 0 1 0
    outer loop
      vertex -0.439533 6.98619 1.5
      vertex 0.439533 6.98619 -1.5
      vertex -0.439533 6.98619 -1.5
    endloop
  endfacet
  facet normal 0.684547 0.728969 -0
    outer loop
      vertex 5.10278 4.79183 -1.5
      vertex 4.46197 5.39359 1.5
      vertex 5.10278 4.79183 1.5
    endloop
  endfacet
  facet normal 0.684547 0.728969 0
    outer loop
      vertex 4.46197 5.39359 1.5
      vertex 5.10278 4.79183 -1.5
      vertex 4.46197 5.39359 -1.5
    endloop
  endfacet
  facet normal -0.684547 0.728969 0
    outer loop
      vertex -4.46197 5.39359 -1.5
      vertex -5.10278 4.79183 1.5
      vertex -4.46197 5.39359 1.5
    endloop
  endfacet
  facet normal -0.684547 0.728969 0
    outer loop
      vertex -5.10278 4.79183 1.5
      vertex -4.46197 5.39359 -1.5
      vertex -5.10278 4.79183 -1.5
    endloop
  endfacet
  facet normal -0.368131 0.929774 0
    outer loop
      vertex -2.16312 6.6574 -1.5
      vertex -2.98045 6.33379 1.5
      vertex -2.16312 6.6574 1.5
    endloop
  endfacet
  facet normal -0.368131 0.929774 0
    outer loop
      vertex -2.98045 6.33379 1.5
      vertex -2.16312 6.6574 -1.5
      vertex -2.98045 6.33379 -1.5
    endloop
  endfacet
  facet normal 0.770511 -0.637427 0
    outer loop
      vertex 5.10278 -4.79183 1.5
      vertex 5.66312 -4.1145 -1.5
      vertex 5.66312 -4.1145 1.5
    endloop
  endfacet
  facet normal 0.770511 -0.637427 0
    outer loop
      vertex 5.66312 -4.1145 -1.5
      vertex 5.10278 -4.79183 1.5
      vertex 5.10278 -4.79183 -1.5
    endloop
  endfacet
  facet normal 0.904828 0.425778 0
    outer loop
      vertex 6.50844 2.57687 1.5
      vertex 6.13415 3.37228 -1.5
      vertex 6.13415 3.37228 1.5
    endloop
  endfacet
  facet normal 0.904828 0.425778 0
    outer loop
      vertex 6.13415 3.37228 -1.5
      vertex 6.50844 2.57687 1.5
      vertex 6.50844 2.57687 -1.5
    endloop
  endfacet
  facet normal 0.982287 0.18738 0
    outer loop
      vertex 6.9448 0.877332 1.5
      vertex 6.78008 1.74083 -1.5
      vertex 6.78008 1.74083 1.5
    endloop
  endfacet
  facet normal 0.982287 0.18738 0
    outer loop
      vertex 6.78008 1.74083 -1.5
      vertex 6.9448 0.877332 1.5
      vertex 6.9448 0.877332 -1.5
    endloop
  endfacet
  facet normal 0.368131 0.929774 -0
    outer loop
      vertex 2.98045 6.33379 -1.5
      vertex 2.16312 6.6574 1.5
      vertex 2.98045 6.33379 1.5
    endloop
  endfacet
  facet normal 0.368131 0.929774 0
    outer loop
      vertex 2.16312 6.6574 1.5
      vertex 2.98045 6.33379 -1.5
      vertex 2.16312 6.6574 -1.5
    endloop
  endfacet
  facet normal 0.587783 0.809018 -0
    outer loop
      vertex 4.46197 5.39359 -1.5
      vertex 3.75079 5.91029 1.5
      vertex 4.46197 5.39359 1.5
    endloop
  endfacet
  facet normal 0.587783 0.809018 0
    outer loop
      vertex 3.75079 5.91029 1.5
      vertex 4.46197 5.39359 -1.5
      vertex 3.75079 5.91029 -1.5
    endloop
  endfacet
  facet normal -0.904828 0.425778 0
    outer loop
      vertex -6.50844 2.57687 -1.5
      vertex -6.13415 3.37228 1.5
      vertex -6.13415 3.37228 -1.5
    endloop
  endfacet
  facet normal -0.904828 0.425778 0
    outer loop
      vertex -6.13415 3.37228 1.5
      vertex -6.50844 2.57687 -1.5
      vertex -6.50844 2.57687 1.5
    endloop
  endfacet
  facet normal -0.844326 0.535829 0
    outer loop
      vertex -6.13415 3.37228 -1.5
      vertex -5.66312 4.1145 1.5
      vertex -5.66312 4.1145 -1.5
    endloop
  endfacet
  facet normal -0.844326 0.535829 0
    outer loop
      vertex -5.66312 4.1145 1.5
      vertex -6.13415 3.37228 -1.5
      vertex -6.13415 3.37228 1.5
    endloop
  endfacet
  facet normal -0.951058 0.309011 0
    outer loop
      vertex -6.78008 1.74083 -1.5
      vertex -6.50844 2.57687 1.5
      vertex -6.50844 2.57687 -1.5
    endloop
  endfacet
  facet normal -0.951058 0.309011 0
    outer loop
      vertex -6.50844 2.57687 1.5
      vertex -6.78008 1.74083 -1.5
      vertex -6.78008 1.74083 1.5
    endloop
  endfacet
  facet normal -0.587783 0.809018 0
    outer loop
      vertex -3.75079 5.91029 -1.5
      vertex -4.46197 5.39359 1.5
      vertex -3.75079 5.91029 1.5
    endloop
  endfacet
  facet normal -0.587783 0.809018 0
    outer loop
      vertex -4.46197 5.39359 1.5
      vertex -3.75079 5.91029 -1.5
      vertex -4.46197 5.39359 -1.5
    endloop
  endfacet
  facet normal -0.125337 0.992114 0
    outer loop
      vertex -0.439533 6.98619 -1.5
      vertex -1.31167 6.87601 1.5
      vertex -0.439533 6.98619 1.5
    endloop
  endfacet
  facet normal -0.125337 0.992114 0
    outer loop
      vertex -1.31167 6.87601 1.5
      vertex -0.439533 6.98619 -1.5
      vertex -1.31167 6.87601 -1.5
    endloop
  endfacet
  facet normal -0.248684 -0.968585 0
    outer loop
      vertex -2.16312 -6.6574 -1.5
      vertex -1.31167 -6.87601 1.5
      vertex -2.16312 -6.6574 1.5
    endloop
  endfacet
  facet normal -0.248684 -0.968585 -0
    outer loop
      vertex -1.31167 -6.87601 1.5
      vertex -2.16312 -6.6574 -1.5
      vertex -1.31167 -6.87601 -1.5
    endloop
  endfacet
  facet normal 0.125337 -0.992114 0
    outer loop
      vertex 0.439533 -6.98619 -1.5
      vertex 1.31167 -6.87601 1.5
      vertex 0.439533 -6.98619 1.5
    endloop
  endfacet
  facet normal 0.125337 -0.992114 0
    outer loop
      vertex 1.31167 -6.87601 1.5
      vertex 0.439533 -6.98619 -1.5
      vertex 1.31167 -6.87601 -1.5
    endloop
  endfacet
  facet normal 0.951058 0.309011 0
    outer loop
      vertex 6.78008 1.74083 1.5
      vertex 6.50844 2.57687 -1.5
      vertex 6.50844 2.57687 1.5
    endloop
  endfacet
  facet normal 0.951058 0.309011 0
    outer loop
      vertex 6.50844 2.57687 -1.5
      vertex 6.78008 1.74083 1.5
      vertex 6.78008 1.74083 -1.5
    endloop
  endfacet
  facet normal 0.770511 0.637427 0
    outer loop
      vertex 5.66312 4.1145 1.5
      vertex 5.10278 4.79183 -1.5
      vertex 5.10278 4.79183 1.5
    endloop
  endfacet
  facet normal 0.770511 0.637427 0
    outer loop
      vertex 5.10278 4.79183 -1.5
      vertex 5.66312 4.1145 1.5
      vertex 5.66312 4.1145 -1.5
    endloop
  endfacet
  facet normal 0.844326 0.535829 0
    outer loop
      vertex 6.13415 3.37228 1.5
      vertex 5.66312 4.1145 -1.5
      vertex 5.66312 4.1145 1.5
    endloop
  endfacet
  facet normal 0.844326 0.535829 0
    outer loop
      vertex 5.66312 4.1145 -1.5
      vertex 6.13415 3.37228 1.5
      vertex 6.13415 3.37228 -1.5
    endloop
  endfacet
  facet normal 0.248684 0.968585 -0
    outer loop
      vertex 2.16312 6.6574 -1.5
      vertex 1.31167 6.87601 1.5
      vertex 2.16312 6.6574 1.5
    endloop
  endfacet
  facet normal 0.248684 0.968585 0
    outer loop
      vertex 1.31167 6.87601 1.5
      vertex 2.16312 6.6574 -1.5
      vertex 1.31167 6.87601 -1.5
    endloop
  endfacet
  facet normal 0.125337 0.992114 -0
    outer loop
      vertex 1.31167 6.87601 -1.5
      vertex 0.439533 6.98619 1.5
      vertex 1.31167 6.87601 1.5
    endloop
  endfacet
  facet normal 0.125337 0.992114 0
    outer loop
      vertex 0.439533 6.98619 1.5
      vertex 1.31167 6.87601 -1.5
      vertex 0.439533 6.98619 -1.5
    endloop
  endfacet
  facet normal 0.481755 0.876306 -0
    outer loop
      vertex 3.75079 5.91029 -1.5
      vertex 2.98045 6.33379 1.5
      vertex 3.75079 5.91029 1.5
    endloop
  endfacet
  facet normal 0.481755 0.876306 0
    outer loop
      vertex 2.98045 6.33379 1.5
      vertex 3.75079 5.91029 -1.5
      vertex 2.98045 6.33379 -1.5
    endloop
  endfacet
  facet normal -0.248684 0.968585 0
    outer loop
      vertex -1.31167 6.87601 -1.5
      vertex -2.16312 6.6574 1.5
      vertex -1.31167 6.87601 1.5
    endloop
  endfacet
  facet normal -0.248684 0.968585 0
    outer loop
      vertex -2.16312 6.6574 1.5
      vertex -1.31167 6.87601 -1.5
      vertex -2.16312 6.6574 -1.5
    endloop
  endfacet
  facet normal 0.998027 -0.0627939 0
    outer loop
      vertex 6.9448 -0.877332 1.5
      vertex 7 0 -1.5
      vertex 7 0 1.5
    endloop
  endfacet
  facet normal 0.998027 -0.0627939 0
    outer loop
      vertex 7 0 -1.5
      vertex 6.9448 -0.877332 1.5
      vertex 6.9448 -0.877332 -1.5
    endloop
  endfacet
  facet normal 0.904828 -0.425778 0
    outer loop
      vertex 6.13415 -3.37228 1.5
      vertex 6.50844 -2.57687 -1.5
      vertex 6.50844 -2.57687 1.5
    endloop
  endfacet
  facet normal 0.904828 -0.425778 0
    outer loop
      vertex 6.50844 -2.57687 -1.5
      vertex 6.13415 -3.37228 1.5
      vertex 6.13415 -3.37228 -1.5
    endloop
  endfacet
  facet normal 0.844326 -0.535829 0
    outer loop
      vertex 5.66312 -4.1145 1.5
      vertex 6.13415 -3.37228 -1.5
      vertex 6.13415 -3.37228 1.5
    endloop
  endfacet
  facet normal 0.844326 -0.535829 0
    outer loop
      vertex 6.13415 -3.37228 -1.5
      vertex 5.66312 -4.1145 1.5
      vertex 5.66312 -4.1145 -1.5
    endloop
  endfacet
  facet normal -0.904828 -0.425778 0
    outer loop
      vertex -6.13415 -3.37228 -1.5
      vertex -6.50844 -2.57687 1.5
      vertex -6.50844 -2.57687 -1.5
    endloop
  endfacet
  facet normal -0.904828 -0.425778 0
    outer loop
      vertex -6.50844 -2.57687 1.5
      vertex -6.13415 -3.37228 -1.5
      vertex -6.13415 -3.37228 1.5
    endloop
  endfacet
  facet normal -0.951058 -0.309011 0
    outer loop
      vertex -6.50844 -2.57687 -1.5
      vertex -6.78008 -1.74083 1.5
      vertex -6.78008 -1.74083 -1.5
    endloop
  endfacet
  facet normal -0.951058 -0.309011 0
    outer loop
      vertex -6.78008 -1.74083 1.5
      vertex -6.50844 -2.57687 -1.5
      vertex -6.50844 -2.57687 1.5
    endloop
  endfacet
  facet normal 0.368131 -0.929774 0
    outer loop
      vertex 2.16312 -6.6574 -1.5
      vertex 2.98045 -6.33379 1.5
      vertex 2.16312 -6.6574 1.5
    endloop
  endfacet
  facet normal 0.368131 -0.929774 0
    outer loop
      vertex 2.98045 -6.33379 1.5
      vertex 2.16312 -6.6574 -1.5
      vertex 2.98045 -6.33379 -1.5
    endloop
  endfacet
  facet normal 0.248684 -0.968585 0
    outer loop
      vertex 1.31167 -6.87601 -1.5
      vertex 2.16312 -6.6574 1.5
      vertex 1.31167 -6.87601 1.5
    endloop
  endfacet
  facet normal 0.248684 -0.968585 0
    outer loop
      vertex 2.16312 -6.6574 1.5
      vertex 1.31167 -6.87601 -1.5
      vertex 2.16312 -6.6574 -1.5
    endloop
  endfacet
  facet normal -0.770511 0.637427 0
    outer loop
      vertex -5.66312 4.1145 -1.5
      vertex -5.10278 4.79183 1.5
      vertex -5.10278 4.79183 -1.5
    endloop
  endfacet
  facet normal -0.770511 0.637427 0
    outer loop
      vertex -5.10278 4.79183 1.5
      vertex -5.66312 4.1145 -1.5
      vertex -5.66312 4.1145 1.5
    endloop
  endfacet
  facet normal 0 0 1
    outer loop
      vertex 2.4 0 1.5
      vertex 7 0 1.5
      vertex 6.9448 0.877332 1.5
    endloop
  endfacet
  facet normal 0 0 1
    outer loop
      vertex 2.38107 0.300799 1.5
      vertex 6.9448 0.877332 1.5
      vertex 6.78008 1.74083 1.5
    endloop
  endfacet
  facet normal 0 0 1
    outer loop
      vertex 7 0 1.5
      vertex 2.4 0 1.5
      vertex 6.9448 -0.877332 1.5
    endloop
  endfacet
  facet normal 0 0 1
    outer loop
      vertex 2.3246 0.596855 1.5
      vertex 6.78008 1.74083 1.5
      vertex 6.50844 2.57687 1.5
    endloop
  endfacet
  facet normal -0 0 1
    outer loop
      vertex 2.38107 -0.300799 1.5
      vertex 6.9448 -0.877332 1.5
      vertex 2.4 0 1.5
    endloop
  endfacet
  facet normal 0 0 1
    outer loop
      vertex 2.23146 0.883498 1.5
      vertex 6.50844 2.57687 1.5
      vertex 6.13415 3.37228 1.5
    endloop
  endfacet
  facet normal 0 0 1
    outer loop
      vertex 6.9448 -0.877332 1.5
      vertex 2.38107 -0.300799 1.5
      vertex 6.78008 -1.74083 1.5
    endloop
  endfacet
  facet normal 0 0 1
    outer loop
      vertex 2.10314 1.15621 1.5
      vertex 6.13415 3.37228 1.5
      vertex 5.66312 4.1145 1.5
    endloop
  endfacet
  facet normal -0 0 1
    outer loop
      vertex 2.3246 -0.596855 1.5
      vertex 6.78008 -1.74083 1.5
      vertex 2.38107 -0.300799 1.5
    endloop
  endfacet
  facet normal 0 0 1
    outer loop
      vertex 1.94164 1.41068 1.5
      vertex 5.66312 4.1145 1.5
      vertex 5.10278 4.79183 1.5
    endloop
  endfacet
  facet normal 0 0 1
    outer loop
      vertex 6.78008 -1.74083 1.5
      vertex 2.3246 -0.596855 1.5
      vertex 6.50844 -2.57687 1.5
    endloop
  endfacet
  facet normal 0 0 1
    outer loop
      vertex 1.74952 1.64291 1.5
      vertex 5.10278 4.79183 1.5
      vertex 4.46197 5.39359 1.5
    endloop
  endfacet
  facet normal -0 0 1
    outer loop
      vertex 2.23146 -0.883498 1.5
      vertex 6.50844 -2.57687 1.5
      vertex 2.3246 -0.596855 1.5
    endloop
  endfacet
  facet normal 0 0 1
    outer loop
      vertex 1.52982 1.84923 1.5
      vertex 4.46197 5.39359 1.5
      vertex 3.75079 5.91029 1.5
    endloop
  endfacet
  facet normal 0 0 1
    outer loop
      vertex 6.50844 -2.57687 1.5
      vertex 2.23146 -0.883498 1.5
      vertex 6.13415 -3.37228 1.5
    endloop
  endfacet
  facet normal 0 0 1
    outer loop
      vertex 1.28598 2.02639 1.5
      vertex 3.75079 5.91029 1.5
      vertex 2.98045 6.33379 1.5
    endloop
  endfacet
  facet normal -0 0 1
    outer loop
      vertex 2.10314 -1.15621 1.5
      vertex 6.13415 -3.37228 1.5
      vertex 2.23146 -0.883498 1.5
    endloop
  endfacet
  facet normal 0 0 1
    outer loop
      vertex 6.13415 -3.37228 1.5
      vertex 2.10314 -1.15621 1.5
      vertex 5.66312 -4.1145 1.5
    endloop
  endfacet
  facet normal 0 0 1
    outer loop
      vertex 6.9448 0.877332 1.5
      vertex 2.38107 0.300799 1.5
      vertex 2.4 0 1.5
    endloop
  endfacet
  facet normal 0 0 1
    outer loop
      vertex 6.78008 1.74083 1.5
      vertex 2.3246 0.596855 1.5
      vertex 2.38107 0.300799 1.5
    endloop
  endfacet
  facet normal 0 0 1
    outer loop
      vertex 6.50844 2.57687 1.5
      vertex 2.23146 0.883498 1.5
      vertex 2.3246 0.596855 1.5
    endloop
  endfacet
  facet normal 0 0 1
    outer loop
      vertex 1.02187 2.17158 1.5
      vertex 2.98045 6.33379 1.5
      vertex 2.16312 6.6574 1.5
    endloop
  endfacet
  facet normal 0 0 1
    outer loop
      vertex 6.13415 3.37228 1.5
      vertex 2.10314 1.15621 1.5
      vertex 2.23146 0.883498 1.5
    endloop
  endfacet
  facet normal 0 0 1
    outer loop
      vertex 5.66312 4.1145 1.5
      vertex 1.94164 1.41068 1.5
      vertex 2.10314 1.15621 1.5
    endloop
  endfacet
  facet normal 0 0 1
    outer loop
      vertex 5.10278 4.79183 1.5
      vertex 1.74952 1.64291 1.5
      vertex 1.94164 1.41068 1.5
    endloop
  endfacet
  facet normal 0 0 1
    outer loop
      vertex 4.46197 5.39359 1.5
      vertex 1.52982 1.84923 1.5
      vertex 1.74952 1.64291 1.5
    endloop
  endfacet
  facet normal 0 0 1
    outer loop
      vertex 0.74164 2.28254 1.5
      vertex 2.16312 6.6574 1.5
      vertex 1.31167 6.87601 1.5
    endloop
  endfacet
  facet normal 0 0 1
    outer loop
      vertex 3.75079 5.91029 1.5
      vertex 1.28598 2.02639 1.5
      vertex 1.52982 1.84923 1.5
    endloop
  endfacet
  facet normal 0 0 1
    outer loop
      vertex 2.98045 6.33379 1.5
      vertex 1.02187 2.17158 1.5
      vertex 1.28598 2.02639 1.5
    endloop
  endfacet
  facet normal 0 0 1
    outer loop
      vertex 2.16312 6.6574 1.5
      vertex 0.74164 2.28254 1.5
      vertex 1.02187 2.17158 1.5
    endloop
  endfacet
  facet normal 0 0 1
    outer loop
      vertex 1.31167 6.87601 1.5
      vertex 0.449715 2.35749 1.5
      vertex 0.74164 2.28254 1.5
    endloop
  endfacet
  facet normal 0 0 1
    outer loop
      vertex 0.439533 6.98619 1.5
      vertex 0.449715 2.35749 1.5
      vertex 1.31167 6.87601 1.5
    endloop
  endfacet
  facet normal 0 0 1
    outer loop
      vertex 0.439533 6.98619 1.5
      vertex 0.150697 2.39526 1.5
      vertex 0.449715 2.35749 1.5
    endloop
  endfacet
  facet normal 0 0 1
    outer loop
      vertex 0.439533 6.98619 1.5
      vertex -0.150697 2.39526 1.5
      vertex 0.150697 2.39526 1.5
    endloop
  endfacet
  facet normal -0 0 1
    outer loop
      vertex -0.439533 6.98619 1.5
      vertex -0.150697 2.39526 1.5
      vertex 0.439533 6.98619 1.5
    endloop
  endfacet
  facet normal 0 0 1
    outer loop
      vertex -0.439533 6.98619 1.5
      vertex -0.449715 2.35749 1.5
      vertex -0.150697 2.39526 1.5
    endloop
  endfacet
  facet normal -0 0 1
    outer loop
      vertex -1.31167 6.87601 1.5
      vertex -0.449715 2.35749 1.5
      vertex -0.439533 6.98619 1.5
    endloop
  endfacet
  facet normal 0 0 1
    outer loop
      vertex -0.449715 2.35749 1.5
      vertex -1.31167 6.87601 1.5
      vertex -0.74164 2.28254 1.5
    endloop
  endfacet
  facet normal -0 0 1
    outer loop
      vertex -2.16312 6.6574 1.5
      vertex -0.74164 2.28254 1.5
      vertex -1.31167 6.87601 1.5
    endloop
  endfacet
  facet normal 0 0 1
    outer loop
      vertex -0.74164 2.28254 1.5
      vertex -2.16312 6.6574 1.5
      vertex -1.02187 2.17158 1.5
    endloop
  endfacet
  facet normal -0 0 1
    outer loop
      vertex -2.98045 6.33379 1.5
      vertex -1.02187 2.17158 1.5
      vertex -2.16312 6.6574 1.5
    endloop
  endfacet
  facet normal 0 0 1
    outer loop
      vertex -1.02187 2.17158 1.5
      vertex -2.98045 6.33379 1.5
      vertex -1.28598 2.02639 1.5
    endloop
  endfacet
  facet normal -0 0 1
    outer loop
      vertex -3.75079 5.91029 1.5
      vertex -1.28598 2.02639 1.5
      vertex -2.98045 6.33379 1.5
    endloop
  endfacet
  facet normal 0 0 1
    outer loop
      vertex -1.28598 2.02639 1.5
      vertex -3.75079 5.91029 1.5
      vertex -1.52982 1.84923 1.5
    endloop
  endfacet
  facet normal -0 0 1
    outer loop
      vertex -4.46197 5.39359 1.5
      vertex -1.52982 1.84923 1.5
      vertex -3.75079 5.91029 1.5
    endloop
  endfacet
  facet normal 0 0 1
    outer loop
      vertex -1.52982 1.84923 1.5
      vertex -4.46197 5.39359 1.5
      vertex -1.74952 1.64291 1.5
    endloop
  endfacet
  facet normal -0 0 1
    outer loop
      vertex -5.10278 4.79183 1.5
      vertex -1.74952 1.64291 1.5
      vertex -4.46197 5.39359 1.5
    endloop
  endfacet
  facet normal 0 0 1
    outer loop
      vertex -1.74952 1.64291 1.5
      vertex -5.10278 4.79183 1.5
      vertex -1.94164 1.41068 1.5
    endloop
  endfacet
  facet normal -0 0 1
    outer loop
      vertex -5.66312 4.1145 1.5
      vertex -1.94164 1.41068 1.5
      vertex -5.10278 4.79183 1.5
    endloop
  endfacet
  facet normal 0 0 1
    outer loop
      vertex -1.94164 1.41068 1.5
      vertex -5.66312 4.1145 1.5
      vertex -2.10314 1.15621 1.5
    endloop
  endfacet
  facet normal -0 0 1
    outer loop
      vertex 1.94164 -1.41068 1.5
      vertex 5.66312 -4.1145 1.5
      vertex 2.10314 -1.15621 1.5
    endloop
  endfacet
  facet normal 0 0 1
    outer loop
      vertex 5.66312 -4.1145 1.5
      vertex 1.94164 -1.41068 1.5
      vertex 5.10278 -4.79183 1.5
    endloop
  endfacet
  facet normal -0 0 1
    outer loop
      vertex 1.74952 -1.64291 1.5
      vertex 5.10278 -4.79183 1.5
      vertex 1.94164 -1.41068 1.5
    endloop
  endfacet
  facet normal 0 0 1
    outer loop
      vertex 5.10278 -4.79183 1.5
      vertex 1.74952 -1.64291 1.5
      vertex 4.46197 -5.39359 1.5
    endloop
  endfacet
  facet normal -0 0 1
    outer loop
      vertex 1.52982 -1.84923 1.5
      vertex 4.46197 -5.39359 1.5
      vertex 1.74952 -1.64291 1.5
    endloop
  endfacet
  facet normal 0 0 1
    outer loop
      vertex 4.46197 -5.39359 1.5
      vertex 1.52982 -1.84923 1.5
      vertex 3.75079 -5.91029 1.5
    endloop
  endfacet
  facet normal -0 0 1
    outer loop
      vertex 1.28598 -2.02639 1.5
      vertex 3.75079 -5.91029 1.5
      vertex 1.52982 -1.84923 1.5
    endloop
  endfacet
  facet normal 0 0 1
    outer loop
      vertex 3.75079 -5.91029 1.5
      vertex 1.28598 -2.02639 1.5
      vertex 2.98045 -6.33379 1.5
    endloop
  endfacet
  facet normal -0 0 1
    outer loop
      vertex 1.02187 -2.17158 1.5
      vertex 2.98045 -6.33379 1.5
      vertex 1.28598 -2.02639 1.5
    endloop
  endfacet
  facet normal 0 0 1
    outer loop
      vertex 2.98045 -6.33379 1.5
      vertex 1.02187 -2.17158 1.5
      vertex 2.16312 -6.6574 1.5
    endloop
  endfacet
  facet normal -0 0 1
    outer loop
      vertex 0.74164 -2.28254 1.5
      vertex 2.16312 -6.6574 1.5
      vertex 1.02187 -2.17158 1.5
    endloop
  endfacet
  facet normal 0 0 1
    outer loop
      vertex 2.16312 -6.6574 1.5
      vertex 0.74164 -2.28254 1.5
      vertex 1.31167 -6.87601 1.5
    endloop
  endfacet
  facet normal -0 0 1
    outer loop
      vertex 0.449715 -2.35749 1.5
      vertex 1.31167 -6.87601 1.5
      vertex 0.74164 -2.28254 1.5
    endloop
  endfacet
  facet normal 0 0 1
    outer loop
      vertex 0.449715 -2.35749 1.5
      vertex 0.439533 -6.98619 1.5
      vertex 1.31167 -6.87601 1.5
    endloop
  endfacet
  facet normal -0 0 1
    outer loop
      vertex 0.150697 -2.39526 1.5
      vertex 0.439533 -6.98619 1.5
      vertex 0.449715 -2.35749 1.5
    endloop
  endfacet
  facet normal -0 0 1
    outer loop
      vertex -0.150697 -2.39526 1.5
      vertex 0.439533 -6.98619 1.5
      vertex 0.150697 -2.39526 1.5
    endloop
  endfacet
  facet normal 0 0 1
    outer loop
      vertex -0.150697 -2.39526 1.5
      vertex -0.439533 -6.98619 1.5
      vertex 0.439533 -6.98619 1.5
    endloop
  endfacet
  facet normal 0 0 1
    outer loop
      vertex -0.449715 -2.35749 1.5
      vertex -0.439533 -6.98619 1.5
      vertex -0.150697 -2.39526 1.5
    endloop
  endfacet
  facet normal 0 0 1
    outer loop
      vertex -1.31167 -6.87601 1.5
      vertex -0.449715 -2.35749 1.5
      vertex -0.74164 -2.28254 1.5
    endloop
  endfacet
  facet normal 0 0 1
    outer loop
      vertex -2.16312 -6.6574 1.5
      vertex -0.74164 -2.28254 1.5
      vertex -1.02187 -2.17158 1.5
    endloop
  endfacet
  facet normal 0 0 1
    outer loop
      vertex -2.98045 -6.33379 1.5
      vertex -1.02187 -2.17158 1.5
      vertex -1.28598 -2.02639 1.5
    endloop
  endfacet
  facet normal 0 0 1
    outer loop
      vertex -0.449715 -2.35749 1.5
      vertex -1.31167 -6.87601 1.5
      vertex -0.439533 -6.98619 1.5
    endloop
  endfacet
  facet normal 0 0 1
    outer loop
      vertex -3.75079 -5.91029 1.5
      vertex -1.28598 -2.02639 1.5
      vertex -1.52982 -1.84923 1.5
    endloop
  endfacet
  facet normal 0 0 1
    outer loop
      vertex -4.46197 -5.39359 1.5
      vertex -1.52982 -1.84923 1.5
      vertex -1.74952 -1.64291 1.5
    endloop
  endfacet
  facet normal 0 0 1
    outer loop
      vertex -5.10278 -4.79183 1.5
      vertex -1.74952 -1.64291 1.5
      vertex -1.94164 -1.41068 1.5
    endloop
  endfacet
  facet normal 0 0 1
    outer loop
      vertex -5.66312 -4.1145 1.5
      vertex -1.94164 -1.41068 1.5
      vertex -2.10314 -1.15621 1.5
    endloop
  endfacet
  facet normal 0 0 1
    outer loop
      vertex -0.74164 -2.28254 1.5
      vertex -2.16312 -6.6574 1.5
      vertex -1.31167 -6.87601 1.5
    endloop
  endfacet
  facet normal 0 0 1
    outer loop
      vertex -6.13415 -3.37228 1.5
      vertex -2.10314 -1.15621 1.5
      vertex -2.23146 -0.883498 1.5
    endloop
  endfacet
  facet normal 0 0 1
    outer loop
      vertex -6.50844 -2.57687 1.5
      vertex -2.23146 -0.883498 1.5
      vertex -2.3246 -0.596855 1.5
    endloop
  endfacet
  facet normal 0 0 1
    outer loop
      vertex -6.78008 -1.74083 1.5
      vertex -2.3246 -0.596855 1.5
      vertex -2.38107 -0.300799 1.5
    endloop
  endfacet
  facet normal 0 0 1
    outer loop
      vertex -6.9448 -0.877332 1.5
      vertex -2.38107 -0.300799 1.5
      vertex -2.4 0 1.5
    endloop
  endfacet
  facet normal -0 0 1
    outer loop
      vertex -6.13415 3.37228 1.5
      vertex -2.10314 1.15621 1.5
      vertex -5.66312 4.1145 1.5
    endloop
  endfacet
  facet normal 0 0 1
    outer loop
      vertex -1.02187 -2.17158 1.5
      vertex -2.98045 -6.33379 1.5
      vertex -2.16312 -6.6574 1.5
    endloop
  endfacet
  facet normal 0 0 1
    outer loop
      vertex -2.10314 1.15621 1.5
      vertex -6.13415 3.37228 1.5
      vertex -2.23146 0.883498 1.5
    endloop
  endfacet
  facet normal 0 0 1
    outer loop
      vertex -1.28598 -2.02639 1.5
      vertex -3.75079 -5.91029 1.5
      vertex -2.98045 -6.33379 1.5
    endloop
  endfacet
  facet normal -0 0 1
    outer loop
      vertex -6.50844 2.57687 1.5
      vertex -2.23146 0.883498 1.5
      vertex -6.13415 3.37228 1.5
    endloop
  endfacet
  facet normal 0 0 1
    outer loop
      vertex -1.52982 -1.84923 1.5
      vertex -4.46197 -5.39359 1.5
      vertex -3.75079 -5.91029 1.5
    endloop
  endfacet
  facet normal 0 0 1
    outer loop
      vertex -2.23146 0.883498 1.5
      vertex -6.50844 2.57687 1.5
      vertex -2.3246 0.596855 1.5
    endloop
  endfacet
  facet normal 0 0 1
    outer loop
      vertex -1.74952 -1.64291 1.5
      vertex -5.10278 -4.79183 1.5
      vertex -4.46197 -5.39359 1.5
    endloop
  endfacet
  facet normal -0 0 1
    outer loop
      vertex -6.78008 1.74083 1.5
      vertex -2.3246 0.596855 1.5
      vertex -6.50844 2.57687 1.5
    endloop
  endfacet
  facet normal 0 0 1
    outer loop
      vertex -1.94164 -1.41068 1.5
      vertex -5.66312 -4.1145 1.5
      vertex -5.10278 -4.79183 1.5
    endloop
  endfacet
  facet normal 0 0 1
    outer loop
      vertex -2.3246 0.596855 1.5
      vertex -6.78008 1.74083 1.5
      vertex -2.38107 0.300799 1.5
    endloop
  endfacet
  facet normal 0 0 1
    outer loop
      vertex -2.10314 -1.15621 1.5
      vertex -6.13415 -3.37228 1.5
      vertex -5.66312 -4.1145 1.5
    endloop
  endfacet
  facet normal -0 0 1
    outer loop
      vertex -6.9448 0.877332 1.5
      vertex -2.38107 0.300799 1.5
      vertex -6.78008 1.74083 1.5
    endloop
  endfacet
  facet normal 0 0 1
    outer loop
      vertex -2.23146 -0.883498 1.5
      vertex -6.50844 -2.57687 1.5
      vertex -6.13415 -3.37228 1.5
    endloop
  endfacet
  facet normal 0 0 1
    outer loop
      vertex -2.38107 0.300799 1.5
      vertex -6.9448 0.877332 1.5
      vertex -2.4 0 1.5
    endloop
  endfacet
  facet normal 0 0 1
    outer loop
      vertex -2.3246 -0.596855 1.5
      vertex -6.78008 -1.74083 1.5
      vertex -6.50844 -2.57687 1.5
    endloop
  endfacet
  facet normal 0 0 1
    outer loop
      vertex -7 0 1.5
      vertex -2.4 0 1.5
      vertex -6.9448 0.877332 1.5
    endloop
  endfacet
  facet normal 0 0 1
    outer loop
      vertex -2.38107 -0.300799 1.5
      vertex -6.9448 -0.877332 1.5
      vertex -6.78008 -1.74083 1.5
    endloop
  endfacet
  facet normal 0 0 1
    outer loop
      vertex -2.4 0 1.5
      vertex -7 0 1.5
      vertex -6.9448 -0.877332 1.5
    endloop
  endfacet
  facet normal -0.982287 0.18738 0
    outer loop
      vertex -6.9448 0.877332 -1.5
      vertex -6.78008 1.74083 1.5
      vertex -6.78008 1.74083 -1.5
    endloop
  endfacet
  facet normal -0.982287 0.18738 0
    outer loop
      vertex -6.78008 1.74083 1.5
      vertex -6.9448 0.877332 -1.5
      vertex -6.9448 0.877332 1.5
    endloop
  endfacet
  facet normal -0.481755 0.876306 0
    outer loop
      vertex -2.98045 6.33379 -1.5
      vertex -3.75079 5.91029 1.5
      vertex -2.98045 6.33379 1.5
    endloop
  endfacet
  facet normal -0.481755 0.876306 0
    outer loop
      vertex -3.75079 5.91029 1.5
      vertex -2.98045 6.33379 -1.5
      vertex -3.75079 5.91029 -1.5
    endloop
  endfacet
  facet normal 0 -1 0
    outer loop
      vertex -0.439533 -6.98619 -1.5
      vertex 0.439533 -6.98619 1.5
      vertex -0.439533 -6.98619 1.5
    endloop
  endfacet
  facet normal 0 -1 -0
    outer loop
      vertex 0.439533 -6.98619 1.5
      vertex -0.439533 -6.98619 -1.5
      vertex 0.439533 -6.98619 -1.5
    endloop
  endfacet
  facet normal -0.368131 -0.929774 0
    outer loop
      vertex -2.98045 -6.33379 -1.5
      vertex -2.16312 -6.6574 1.5
      vertex -2.98045 -6.33379 1.5
    endloop
  endfacet
  facet normal -0.368131 -0.929774 -0
    outer loop
      vertex -2.16312 -6.6574 1.5
      vertex -2.98045 -6.33379 -1.5
      vertex -2.16312 -6.6574 -1.5
    endloop
  endfacet
  facet normal -0.998027 -0.0627939 0
    outer loop
      vertex -6.9448 -0.877332 -1.5
      vertex -7 0 1.5
      vertex -7 0 -1.5
    endloop
  endfacet
  facet normal -0.998027 -0.0627939 0
    outer loop
      vertex -7 0 1.5
      vertex -6.9448 -0.877332 -1.5
      vertex -6.9448 -0.877332 1.5
    endloop
  endfacet
  facet normal 0.684547 -0.728969 0
    outer loop
      vertex 4.46197 -5.39359 -1.5
      vertex 5.10278 -4.79183 1.5
      vertex 4.46197 -5.39359 1.5
    endloop
  endfacet
  facet normal 0.684547 -0.728969 0
    outer loop
      vertex 5.10278 -4.79183 1.5
      vertex 4.46197 -5.39359 -1.5
      vertex 5.10278 -4.79183 -1.5
    endloop
  endfacet
  facet normal 0.481755 -0.876306 0
    outer loop
      vertex 2.98045 -6.33379 -1.5
      vertex 3.75079 -5.91029 1.5
      vertex 2.98045 -6.33379 1.5
    endloop
  endfacet
  facet normal 0.481755 -0.876306 0
    outer loop
      vertex 3.75079 -5.91029 1.5
      vertex 2.98045 -6.33379 -1.5
      vertex 3.75079 -5.91029 -1.5
    endloop
  endfacet
  facet normal 0.951058 -0.309011 0
    outer loop
      vertex 6.50844 -2.57687 1.5
      vertex 6.78008 -1.74083 -1.5
      vertex 6.78008 -1.74083 1.5
    endloop
  endfacet
  facet normal 0.951058 -0.309011 0
    outer loop
      vertex 6.78008 -1.74083 -1.5
      vertex 6.50844 -2.57687 1.5
      vertex 6.50844 -2.57687 -1.5
    endloop
  endfacet
  facet normal 0.982287 -0.18738 0
    outer loop
      vertex 6.78008 -1.74083 1.5
      vertex 6.9448 -0.877332 -1.5
      vertex 6.9448 -0.877332 1.5
    endloop
  endfacet
  facet normal 0.982287 -0.18738 0
    outer loop
      vertex 6.9448 -0.877332 -1.5
      vertex 6.78008 -1.74083 1.5
      vertex 6.78008 -1.74083 -1.5
    endloop
  endfacet
  facet normal -0.125337 -0.992114 0
    outer loop
      vertex -1.31167 -6.87601 -1.5
      vertex -0.439533 -6.98619 1.5
      vertex -1.31167 -6.87601 1.5
    endloop
  endfacet
  facet normal -0.125337 -0.992114 -0
    outer loop
      vertex -0.439533 -6.98619 1.5
      vertex -1.31167 -6.87601 -1.5
      vertex -0.439533 -6.98619 -1.5
    endloop
  endfacet
  facet normal -0.684547 -0.728969 0
    outer loop
      vertex -5.10278 -4.79183 -1.5
      vertex -4.46197 -5.39359 1.5
      vertex -5.10278 -4.79183 1.5
    endloop
  endfacet
  facet normal -0.684547 -0.728969 -0
    outer loop
      vertex -4.46197 -5.39359 1.5
      vertex -5.10278 -4.79183 -1.5
      vertex -4.46197 -5.39359 -1.5
    endloop
  endfacet
  facet normal -0.770511 -0.637427 0
    outer loop
      vertex -5.10278 -4.79183 -1.5
      vertex -5.66312 -4.1145 1.5
      vertex -5.66312 -4.1145 -1.5
    endloop
  endfacet
  facet normal -0.770511 -0.637427 0
    outer loop
      vertex -5.66312 -4.1145 1.5
      vertex -5.10278 -4.79183 -1.5
      vertex -5.10278 -4.79183 1.5
    endloop
  endfacet
  facet normal -0.844326 -0.535829 0
    outer loop
      vertex -5.66312 -4.1145 -1.5
      vertex -6.13415 -3.37228 1.5
      vertex -6.13415 -3.37228 -1.5
    endloop
  endfacet
  facet normal -0.844326 -0.535829 0
    outer loop
      vertex -6.13415 -3.37228 1.5
      vertex -5.66312 -4.1145 -1.5
      vertex -5.66312 -4.1145 1.5
    endloop
  endfacet
  facet normal 0 0 -1
    outer loop
      vertex 2.4 0 -1.5
      vertex 7 0 -1.5
      vertex 6.9448 -0.877332 -1.5
    endloop
  endfacet
  facet normal 0 0 -1
    outer loop
      vertex 2.38107 -0.300799 -1.5
      vertex 6.9448 -0.877332 -1.5
      vertex 6.78008 -1.74083 -1.5
    endloop
  endfacet
  facet normal 0 0 -1
    outer loop
      vertex 7 0 -1.5
      vertex 2.4 0 -1.5
      vertex 6.9448 0.877332 -1.5
    endloop
  endfacet
  facet normal 0 0 -1
    outer loop
      vertex 2.3246 -0.596855 -1.5
      vertex 6.78008 -1.74083 -1.5
      vertex 6.50844 -2.57687 -1.5
    endloop
  endfacet
  facet normal 0 0 -1
    outer loop
      vertex 2.38107 0.300799 -1.5
      vertex 6.9448 0.877332 -1.5
      vertex 2.4 0 -1.5
    endloop
  endfacet
  facet normal 0 0 -1
    outer loop
      vertex 2.23146 -0.883498 -1.5
      vertex 6.50844 -2.57687 -1.5
      vertex 6.13415 -3.37228 -1.5
    endloop
  endfacet
  facet normal -0 0 -1
    outer loop
      vertex 6.9448 0.877332 -1.5
      vertex 2.38107 0.300799 -1.5
      vertex 6.78008 1.74083 -1.5
    endloop
  endfacet
  facet normal 0 0 -1
    outer loop
      vertex 2.10314 -1.15621 -1.5
      vertex 6.13415 -3.37228 -1.5
      vertex 5.66312 -4.1145 -1.5
    endloop
  endfacet
  facet normal 0 0 -1
    outer loop
      vertex 2.3246 0.596855 -1.5
      vertex 6.78008 1.74083 -1.5
      vertex 2.38107 0.300799 -1.5
    endloop
  endfacet
  facet normal 0 0 -1
    outer loop
      vertex 1.94164 -1.41068 -1.5
      vertex 5.66312 -4.1145 -1.5
      vertex 5.10278 -4.79183 -1.5
    endloop
  endfacet
  facet normal -0 0 -1
    outer loop
      vertex 6.78008 1.74083 -1.5
      vertex 2.3246 0.596855 -1.5
      vertex 6.50844 2.57687 -1.5
    endloop
  endfacet
  facet normal 0 0 -1
    outer loop
      vertex 1.74952 -1.64291 -1.5
      vertex 5.10278 -4.79183 -1.5
      vertex 4.46197 -5.39359 -1.5
    endloop
  endfacet
  facet normal 0 0 -1
    outer loop
      vertex 2.23146 0.883498 -1.5
      vertex 6.50844 2.57687 -1.5
      vertex 2.3246 0.596855 -1.5
    endloop
  endfacet
  facet normal 0 0 -1
    outer loop
      vertex 1.52982 -1.84923 -1.5
      vertex 4.46197 -5.39359 -1.5
      vertex 3.75079 -5.91029 -1.5
    endloop
  endfacet
  facet normal -0 0 -1
    outer loop
      vertex 6.50844 2.57687 -1.5
      vertex 2.23146 0.883498 -1.5
      vertex 6.13415 3.37228 -1.5
    endloop
  endfacet
  facet normal 0 0 -1
    outer loop
      vertex 1.28598 -2.02639 -1.5
      vertex 3.75079 -5.91029 -1.5
      vertex 2.98045 -6.33379 -1.5
    endloop
  endfacet
  facet normal 0 0 -1
    outer loop
      vertex 2.10314 1.15621 -1.5
      vertex 6.13415 3.37228 -1.5
      vertex 2.23146 0.883498 -1.5
    endloop
  endfacet
  facet normal -0 0 -1
    outer loop
      vertex 6.13415 3.37228 -1.5
      vertex 2.10314 1.15621 -1.5
      vertex 5.66312 4.1145 -1.5
    endloop
  endfacet
  facet normal 0 0 -1
    outer loop
      vertex 6.9448 -0.877332 -1.5
      vertex 2.38107 -0.300799 -1.5
      vertex 2.4 0 -1.5
    endloop
  endfacet
  facet normal 0 0 -1
    outer loop
      vertex 6.78008 -1.74083 -1.5
      vertex 2.3246 -0.596855 -1.5
      vertex 2.38107 -0.300799 -1.5
    endloop
  endfacet
  facet normal 0 0 -1
    outer loop
      vertex 6.50844 -2.57687 -1.5
      vertex 2.23146 -0.883498 -1.5
      vertex 2.3246 -0.596855 -1.5
    endloop
  endfacet
  facet normal 0 0 -1
    outer loop
      vertex 1.02187 -2.17158 -1.5
      vertex 2.98045 -6.33379 -1.5
      vertex 2.16312 -6.6574 -1.5
    endloop
  endfacet
  facet normal 0 0 -1
    outer loop
      vertex 6.13415 -3.37228 -1.5
      vertex 2.10314 -1.15621 -1.5
      vertex 2.23146 -0.883498 -1.5
    endloop
  endfacet
  facet normal 0 0 -1
    outer loop
      vertex 5.66312 -4.1145 -1.5
      vertex 1.94164 -1.41068 -1.5
      vertex 2.10314 -1.15621 -1.5
    endloop
  endfacet
  facet normal 0 0 -1
    outer loop
      vertex 5.10278 -4.79183 -1.5
      vertex 1.74952 -1.64291 -1.5
      vertex 1.94164 -1.41068 -1.5
    endloop
  endfacet
  facet normal 0 0 -1
    outer loop
      vertex 4.46197 -5.39359 -1.5
      vertex 1.52982 -1.84923 -1.5
      vertex 1.74952 -1.64291 -1.5
    endloop
  endfacet
  facet normal 0 0 -1
    outer loop
      vertex 0.74164 -2.28254 -1.5
      vertex 2.16312 -6.6574 -1.5
      vertex 1.31167 -6.87601 -1.5
    endloop
  endfacet
  facet normal 0 0 -1
    outer loop
      vertex 3.75079 -5.91029 -1.5
      vertex 1.28598 -2.02639 -1.5
      vertex 1.52982 -1.84923 -1.5
    endloop
  endfacet
  facet normal 0 0 -1
    outer loop
      vertex 2.98045 -6.33379 -1.5
      vertex 1.02187 -2.17158 -1.5
      vertex 1.28598 -2.02639 -1.5
    endloop
  endfacet
  facet normal 0 0 -1
    outer loop
      vertex 2.16312 -6.6574 -1.5
      vertex 0.74164 -2.28254 -1.5
      vertex 1.02187 -2.17158 -1.5
    endloop
  endfacet
  facet normal 0 0 -1
    outer loop
      vertex 1.31167 -6.87601 -1.5
      vertex 0.449715 -2.35749 -1.5
      vertex 0.74164 -2.28254 -1.5
    endloop
  endfacet
  facet normal 0 0 -1
    outer loop
      vertex 0.439533 -6.98619 -1.5
      vertex 0.449715 -2.35749 -1.5
      vertex 1.31167 -6.87601 -1.5
    endloop
  endfacet
  facet normal 0 0 -1
    outer loop
      vertex 0.439533 -6.98619 -1.5
      vertex 0.150697 -2.39526 -1.5
      vertex 0.449715 -2.35749 -1.5
    endloop
  endfacet
  facet normal 0 0 -1
    outer loop
      vertex 0.439533 -6.98619 -1.5
      vertex -0.150697 -2.39526 -1.5
      vertex 0.150697 -2.39526 -1.5
    endloop
  endfacet
  facet normal 0 0 -1
    outer loop
      vertex -0.439533 -6.98619 -1.5
      vertex -0.150697 -2.39526 -1.5
      vertex 0.439533 -6.98619 -1.5
    endloop
  endfacet
  facet normal 0 0 -1
    outer loop
      vertex -0.439533 -6.98619 -1.5
      vertex -0.449715 -2.35749 -1.5
      vertex -0.150697 -2.39526 -1.5
    endloop
  endfacet
  facet normal 0 0 -1
    outer loop
      vertex -1.31167 -6.87601 -1.5
      vertex -0.449715 -2.35749 -1.5
      vertex -0.439533 -6.98619 -1.5
    endloop
  endfacet
  facet normal -0 0 -1
    outer loop
      vertex -0.449715 -2.35749 -1.5
      vertex -1.31167 -6.87601 -1.5
      vertex -0.74164 -2.28254 -1.5
    endloop
  endfacet
  facet normal 0 0 -1
    outer loop
      vertex -2.16312 -6.6574 -1.5
      vertex -0.74164 -2.28254 -1.5
      vertex -1.31167 -6.87601 -1.5
    endloop
  endfacet
  facet normal -0 0 -1
    outer loop
      vertex -0.74164 -2.28254 -1.5
      vertex -2.16312 -6.6574 -1.5
      vertex -1.02187 -2.17158 -1.5
    endloop
  endfacet
  facet normal 0 0 -1
    outer loop
      vertex -2.98045 -6.33379 -1.5
      vertex -1.02187 -2.17158 -1.5
      vertex -2.16312 -6.6574 -1.5
    endloop
  endfacet
  facet normal -0 0 -1
    outer loop
      vertex -1.02187 -2.17158 -1.5
      vertex -2.98045 -6.33379 -1.5
      vertex -1.28598 -2.02639 -1.5
    endloop
  endfacet
  facet normal 0 0 -1
    outer loop
      vertex -3.75079 -5.91029 -1.5
      vertex -1.28598 -2.02639 -1.5
      vertex -2.98045 -6.33379 -1.5
    endloop
  endfacet
  facet normal -0 0 -1
    outer loop
      vertex -1.28598 -2.02639 -1.5
      vertex -3.75079 -5.91029 -1.5
      vertex -1.52982 -1.84923 -1.5
    endloop
  endfacet
  facet normal 0 0 -1
    outer loop
      vertex -4.46197 -5.39359 -1.5
      vertex -1.52982 -1.84923 -1.5
      vertex -3.75079 -5.91029 -1.5
    endloop
  endfacet
  facet normal -0 0 -1
    outer loop
      vertex -1.52982 -1.84923 -1.5
      vertex -4.46197 -5.39359 -1.5
      vertex -1.74952 -1.64291 -1.5
    endloop
  endfacet
  facet normal 0 0 -1
    outer loop
      vertex -5.10278 -4.79183 -1.5
      vertex -1.74952 -1.64291 -1.5
      vertex -4.46197 -5.39359 -1.5
    endloop
  endfacet
  facet normal -0 0 -1
    outer loop
      vertex -1.74952 -1.64291 -1.5
      vertex -5.10278 -4.79183 -1.5
      vertex -1.94164 -1.41068 -1.5
    endloop
  endfacet
  facet normal 0 0 -1
    outer loop
      vertex -5.66312 -4.1145 -1.5
      vertex -1.94164 -1.41068 -1.5
      vertex -5.10278 -4.79183 -1.5
    endloop
  endfacet
  facet normal -0 0 -1
    outer loop
      vertex -1.94164 -1.41068 -1.5
      vertex -5.66312 -4.1145 -1.5
      vertex -2.10314 -1.15621 -1.5
    endloop
  endfacet
  facet normal 0 0 -1
    outer loop
      vertex 1.94164 1.41068 -1.5
      vertex 5.66312 4.1145 -1.5
      vertex 2.10314 1.15621 -1.5
    endloop
  endfacet
  facet normal -0 0 -1
    outer loop
      vertex 5.66312 4.1145 -1.5
      vertex 1.94164 1.41068 -1.5
      vertex 5.10278 4.79183 -1.5
    endloop
  endfacet
  facet normal 0 0 -1
    outer loop
      vertex 1.74952 1.64291 -1.5
      vertex 5.10278 4.79183 -1.5
      vertex 1.94164 1.41068 -1.5
    endloop
  endfacet
  facet normal -0 0 -1
    outer loop
      vertex 5.10278 4.79183 -1.5
      vertex 1.74952 1.64291 -1.5
      vertex 4.46197 5.39359 -1.5
    endloop
  endfacet
  facet normal 0 0 -1
    outer loop
      vertex 1.52982 1.84923 -1.5
      vertex 4.46197 5.39359 -1.5
      vertex 1.74952 1.64291 -1.5
    endloop
  endfacet
  facet normal -0 0 -1
    outer loop
      vertex 4.46197 5.39359 -1.5
      vertex 1.52982 1.84923 -1.5
      vertex 3.75079 5.91029 -1.5
    endloop
  endfacet
  facet normal 0 0 -1
    outer loop
      vertex 1.28598 2.02639 -1.5
      vertex 3.75079 5.91029 -1.5
      vertex 1.52982 1.84923 -1.5
    endloop
  endfacet
  facet normal -0 0 -1
    outer loop
      vertex 3.75079 5.91029 -1.5
      vertex 1.28598 2.02639 -1.5
      vertex 2.98045 6.33379 -1.5
    endloop
  endfacet
  facet normal 0 0 -1
    outer loop
      vertex 1.02187 2.17158 -1.5
      vertex 2.98045 6.33379 -1.5
      vertex 1.28598 2.02639 -1.5
    endloop
  endfacet
  facet normal -0 0 -1
    outer loop
      vertex 2.98045 6.33379 -1.5
      vertex 1.02187 2.17158 -1.5
      vertex 2.16312 6.6574 -1.5
    endloop
  endfacet
  facet normal 0 0 -1
    outer loop
      vertex 0.74164 2.28254 -1.5
      vertex 2.16312 6.6574 -1.5
      vertex 1.02187 2.17158 -1.5
    endloop
  endfacet
  facet normal -0 0 -1
    outer loop
      vertex 2.16312 6.6574 -1.5
      vertex 0.74164 2.28254 -1.5
      vertex 1.31167 6.87601 -1.5
    endloop
  endfacet
  facet normal 0 0 -1
    outer loop
      vertex 0.449715 2.35749 -1.5
      vertex 1.31167 6.87601 -1.5
      vertex 0.74164 2.28254 -1.5
    endloop
  endfacet
  facet normal 0 0 -1
    outer loop
      vertex 0.449715 2.35749 -1.5
      vertex 0.439533 6.98619 -1.5
      vertex 1.31167 6.87601 -1.5
    endloop
  endfacet
  facet normal 0 0 -1
    outer loop
      vertex 0.150697 2.39526 -1.5
      vertex 0.439533 6.98619 -1.5
      vertex 0.449715 2.35749 -1.5
    endloop
  endfacet
  facet normal 0 0 -1
    outer loop
      vertex -0.150697 2.39526 -1.5
      vertex 0.439533 6.98619 -1.5
      vertex 0.150697 2.39526 -1.5
    endloop
  endfacet
  facet normal 0 0 -1
    outer loop
      vertex -0.150697 2.39526 -1.5
      vertex -0.439533 6.98619 -1.5
      vertex 0.439533 6.98619 -1.5
    endloop
  endfacet
  facet normal 0 0 -1
    outer loop
      vertex -0.449715 2.35749 -1.5
      vertex -0.439533 6.98619 -1.5
      vertex -0.150697 2.39526 -1.5
    endloop
  endfacet
  facet normal 0 0 -1
    outer loop
      vertex -1.31167 6.87601 -1.5
      vertex -0.449715 2.35749 -1.5
      vertex -0.74164 2.28254 -1.5
    endloop
  endfacet
  facet normal 0 0 -1
    outer loop
      vertex -2.16312 6.6574 -1.5
      vertex -0.74164 2.28254 -1.5
      vertex -1.02187 2.17158 -1.5
    endloop
  endfacet
  facet normal 0 0 -1
    outer loop
      vertex -2.98045 6.33379 -1.5
      vertex -1.02187 2.17158 -1.5
      vertex -1.28598 2.02639 -1.5
    endloop
  endfacet
  facet normal 0 0 -1
    outer loop
      vertex -0.449715 2.35749 -1.5
      vertex -1.31167 6.87601 -1.5
      vertex -0.439533 6.98619 -1.5
    endloop
  endfacet
  facet normal 0 0 -1
    outer loop
      vertex -3.75079 5.91029 -1.5
      vertex -1.28598 2.02639 -1.5
      vertex -1.52982 1.84923 -1.5
    endloop
  endfacet
  facet normal 0 0 -1
    outer loop
      vertex -4.46197 5.39359 -1.5
      vertex -1.52982 1.84923 -1.5
      vertex -1.74952 1.64291 -1.5
    endloop
  endfacet
  facet normal 0 0 -1
    outer loop
      vertex -5.10278 4.79183 -1.5
      vertex -1.74952 1.64291 -1.5
      vertex -1.94164 1.41068 -1.5
    endloop
  endfacet
  facet normal 0 0 -1
    outer loop
      vertex -5.66312 4.1145 -1.5
      vertex -1.94164 1.41068 -1.5
      vertex -2.10314 1.15621 -1.5
    endloop
  endfacet
  facet normal 0 0 -1
    outer loop
      vertex -0.74164 2.28254 -1.5
      vertex -2.16312 6.6574 -1.5
      vertex -1.31167 6.87601 -1.5
    endloop
  endfacet
  facet normal 0 0 -1
    outer loop
      vertex -6.13415 3.37228 -1.5
      vertex -2.10314 1.15621 -1.5
      vertex -2.23146 0.883498 -1.5
    endloop
  endfacet
  facet normal 0 0 -1
    outer loop
      vertex -6.50844 2.57687 -1.5
      vertex -2.23146 0.883498 -1.5
      vertex -2.3246 0.596855 -1.5
    endloop
  endfacet
  facet normal 0 0 -1
    outer loop
      vertex -6.78008 1.74083 -1.5
      vertex -2.3246 0.596855 -1.5
      vertex -2.38107 0.300799 -1.5
    endloop
  endfacet
  facet normal 0 0 -1
    outer loop
      vertex -6.9448 0.877332 -1.5
      vertex -2.38107 0.300799 -1.5
      vertex -2.4 0 -1.5
    endloop
  endfacet
  facet normal 0 0 -1
    outer loop
      vertex -6.13415 -3.37228 -1.5
      vertex -2.10314 -1.15621 -1.5
      vertex -5.66312 -4.1145 -1.5
    endloop
  endfacet
  facet normal 0 0 -1
    outer loop
      vertex -1.02187 2.17158 -1.5
      vertex -2.98045 6.33379 -1.5
      vertex -2.16312 6.6574 -1.5
    endloop
  endfacet
  facet normal -0 0 -1
    outer loop
      vertex -2.10314 -1.15621 -1.5
      vertex -6.13415 -3.37228 -1.5
      vertex -2.23146 -0.883498 -1.5
    endloop
  endfacet
  facet normal 0 0 -1
    outer loop
      vertex -1.28598 2.02639 -1.5
      vertex -3.75079 5.91029 -1.5
      vertex -2.98045 6.33379 -1.5
    endloop
  endfacet
  facet normal 0 0 -1
    outer loop
      vertex -6.50844 -2.57687 -1.5
      vertex -2.23146 -0.883498 -1.5
      vertex -6.13415 -3.37228 -1.5
    endloop
  endfacet
  facet normal 0 0 -1
    outer loop
      vertex -1.52982 1.84923 -1.5
      vertex -4.46197 5.39359 -1.5
      vertex -3.75079 5.91029 -1.5
    endloop
  endfacet
  facet normal -0 0 -1
    outer loop
      vertex -2.23146 -0.883498 -1.5
      vertex -6.50844 -2.57687 -1.5
      vertex -2.3246 -0.596855 -1.5
    endloop
  endfacet
  facet normal 0 0 -1
    outer loop
      vertex -1.74952 1.64291 -1.5
      vertex -5.10278 4.79183 -1.5
      vertex -4.46197 5.39359 -1.5
    endloop
  endfacet
  facet normal 0 0 -1
    outer loop
      vertex -6.78008 -1.74083 -1.5
      vertex -2.3246 -0.596855 -1.5
      vertex -6.50844 -2.57687 -1.5
    endloop
  endfacet
  facet normal 0 0 -1
    outer loop
      vertex -1.94164 1.41068 -1.5
      vertex -5.66312 4.1145 -1.5
      vertex -5.10278 4.79183 -1.5
    endloop
  endfacet
  facet normal -0 0 -1
    outer loop
      vertex -2.3246 -0.596855 -1.5
      vertex -6.78008 -1.74083 -1.5
      vertex -2.38107 -0.300799 -1.5
    endloop
  endfacet
  facet normal 0 0 -1
    outer loop
      vertex -2.10314 1.15621 -1.5
      vertex -6.13415 3.37228 -1.5
      vertex -5.66312 4.1145 -1.5
    endloop
  endfacet
  facet normal 0 0 -1
    outer loop
      vertex -6.9448 -0.877332 -1.5
      vertex -2.38107 -0.300799 -1.5
      vertex -6.78008 -1.74083 -1.5
    endloop
  endfacet
  facet normal 0 0 -1
    outer loop
      vertex -2.23146 0.883498 -1.5
      vertex -6.50844 2.57687 -1.5
      vertex -6.13415 3.37228 -1.5
    endloop
  endfacet
  facet normal -0 0 -1
    outer loop
      vertex -2.38107 -0.300799 -1.5
      vertex -6.9448 -0.877332 -1.5
      vertex -2.4 0 -1.5
    endloop
  endfacet
  facet normal 0 0 -1
    outer loop
      vertex -2.3246 0.596855 -1.5
      vertex -6.78008 1.74083 -1.5
      vertex -6.50844 2.57687 -1.5
    endloop
  endfacet
  facet normal 0 0 -1
    outer loop
      vertex -7 0 -1.5
      vertex -2.4 0 -1.5
      vertex -6.9448 -0.877332 -1.5
    endloop
  endfacet
  facet normal 0 0 -1
    outer loop
      vertex -2.38107 0.300799 -1.5
      vertex -6.9448 0.877332 -1.5
      vertex -6.78008 1.74083 -1.5
    endloop
  endfacet
  facet normal 0 0 -1
    outer loop
      vertex -2.4 0 -1.5
      vertex -7 0 -1.5
      vertex -6.9448 0.877332 -1.5
    endloop
  endfacet
  facet normal -0.982287 -0.18738 0
    outer loop
      vertex -6.78008 -1.74083 -1.5
      vertex -6.9448 -0.877332 1.5
      vertex -6.9448 -0.877332 -1.5
    endloop
  endfacet
  facet normal -0.982287 -0.18738 0
    outer loop
      vertex -6.9448 -0.877332 1.5
      vertex -6.78008 -1.74083 -1.5
      vertex -6.78008 -1.74083 1.5
    endloop
  endfacet
  facet normal 0.587783 -0.809018 0
    outer loop
      vertex 3.75079 -5.91029 -1.5
      vertex 4.46197 -5.39359 1.5
      vertex 3.75079 -5.91029 1.5
    endloop
  endfacet
  facet normal 0.587783 -0.809018 0
    outer loop
      vertex 4.46197 -5.39359 1.5
      vertex 3.75079 -5.91029 -1.5
      vertex 4.46197 -5.39359 -1.5
    endloop
  endfacet
  facet normal -0.481755 -0.876306 0
    outer loop
      vertex -3.75079 -5.91029 -1.5
      vertex -2.98045 -6.33379 1.5
      vertex -3.75079 -5.91029 1.5
    endloop
  endfacet
  facet normal -0.481755 -0.876306 -0
    outer loop
      vertex -2.98045 -6.33379 1.5
      vertex -3.75079 -5.91029 -1.5
      vertex -2.98045 -6.33379 -1.5
    endloop
  endfacet
  facet normal -0.587783 -0.809018 0
    outer loop
      vertex -4.46197 -5.39359 -1.5
      vertex -3.75079 -5.91029 1.5
      vertex -4.46197 -5.39359 1.5
    endloop
  endfacet
  facet normal -0.587783 -0.809018 -0
    outer loop
      vertex -3.75079 -5.91029 1.5
      vertex -4.46197 -5.39359 -1.5
      vertex -3.75079 -5.91029 -1.5
    endloop
  endfacet
  facet normal 0.998026 -0.0628081 0
    outer loop
      vertex -2.4 0 1.5
      vertex -2.38107 0.300799 -1.5
      vertex -2.38107 0.300799 1.5
    endloop
  endfacet
  facet normal 0.998026 -0.0628081 0
    outer loop
      vertex -2.38107 0.300799 -1.5
      vertex -2.4 0 1.5
      vertex -2.4 0 -1.5
    endloop
  endfacet
  facet normal 0.982291 -0.187363 0
    outer loop
      vertex -2.38107 0.300799 1.5
      vertex -2.3246 0.596855 -1.5
      vertex -2.3246 0.596855 1.5
    endloop
  endfacet
  facet normal 0.982291 -0.187363 0
    outer loop
      vertex -2.3246 0.596855 -1.5
      vertex -2.38107 0.300799 1.5
      vertex -2.38107 0.300799 -1.5
    endloop
  endfacet
  facet normal 0.587785 -0.809017 0
    outer loop
      vertex -1.52982 1.84923 -1.5
      vertex -1.28598 2.02639 1.5
      vertex -1.52982 1.84923 1.5
    endloop
  endfacet
  facet normal 0.587785 -0.809017 0
    outer loop
      vertex -1.28598 2.02639 1.5
      vertex -1.52982 1.84923 -1.5
      vertex -1.28598 2.02639 -1.5
    endloop
  endfacet
  facet normal -0.770509 -0.637429 0
    outer loop
      vertex 1.94164 1.41068 -1.5
      vertex 1.74952 1.64291 1.5
      vertex 1.74952 1.64291 -1.5
    endloop
  endfacet
  facet normal -0.770509 -0.637429 0
    outer loop
      vertex 1.74952 1.64291 1.5
      vertex 1.94164 1.41068 -1.5
      vertex 1.94164 1.41068 1.5
    endloop
  endfacet
  facet normal 0.982291 0.187363 0
    outer loop
      vertex -2.3246 -0.596855 1.5
      vertex -2.38107 -0.300799 -1.5
      vertex -2.38107 -0.300799 1.5
    endloop
  endfacet
  facet normal 0.982291 0.187363 0
    outer loop
      vertex -2.38107 -0.300799 -1.5
      vertex -2.3246 -0.596855 1.5
      vertex -2.3246 -0.596855 -1.5
    endloop
  endfacet
  facet normal 0.368151 0.929766 -0
    outer loop
      vertex -0.74164 -2.28254 -1.5
      vertex -1.02187 -2.17158 1.5
      vertex -0.74164 -2.28254 1.5
    endloop
  endfacet
  facet normal 0.368151 0.929766 0
    outer loop
      vertex -1.02187 -2.17158 1.5
      vertex -0.74164 -2.28254 -1.5
      vertex -1.02187 -2.17158 -1.5
    endloop
  endfacet
  facet normal 0.904838 -0.425756 0
    outer loop
      vertex -2.23146 0.883498 1.5
      vertex -2.10314 1.15621 -1.5
      vertex -2.10314 1.15621 1.5
    endloop
  endfacet
  facet normal 0.904838 -0.425756 0
    outer loop
      vertex -2.10314 1.15621 -1.5
      vertex -2.23146 0.883498 1.5
      vertex -2.23146 0.883498 -1.5
    endloop
  endfacet
  facet normal 0.844315 -0.535847 0
    outer loop
      vertex -2.10314 1.15621 1.5
      vertex -1.94164 1.41068 -1.5
      vertex -1.94164 1.41068 1.5
    endloop
  endfacet
  facet normal 0.844315 -0.535847 0
    outer loop
      vertex -1.94164 1.41068 -1.5
      vertex -2.10314 1.15621 1.5
      vertex -2.10314 1.15621 -1.5
    endloop
  endfacet
  facet normal 0.248679 -0.968586 0
    outer loop
      vertex -0.74164 2.28254 -1.5
      vertex -0.449715 2.35749 1.5
      vertex -0.74164 2.28254 1.5
    endloop
  endfacet
  facet normal 0.248679 -0.968586 0
    outer loop
      vertex -0.449715 2.35749 1.5
      vertex -0.74164 2.28254 -1.5
      vertex -0.449715 2.35749 -1.5
    endloop
  endfacet
  facet normal 0 -1 0
    outer loop
      vertex -0.150697 2.39526 -1.5
      vertex 0.150697 2.39526 1.5
      vertex -0.150697 2.39526 1.5
    endloop
  endfacet
  facet normal 0 -1 -0
    outer loop
      vertex 0.150697 2.39526 1.5
      vertex -0.150697 2.39526 -1.5
      vertex 0.150697 2.39526 -1.5
    endloop
  endfacet
  facet normal -0.951053 -0.309029 0
    outer loop
      vertex 2.3246 0.596855 -1.5
      vertex 2.23146 0.883498 1.5
      vertex 2.23146 0.883498 -1.5
    endloop
  endfacet
  facet normal -0.951053 -0.309029 0
    outer loop
      vertex 2.23146 0.883498 1.5
      vertex 2.3246 0.596855 -1.5
      vertex 2.3246 0.596855 1.5
    endloop
  endfacet
  facet normal -0.998026 -0.0628081 0
    outer loop
      vertex 2.4 0 -1.5
      vertex 2.38107 0.300799 1.5
      vertex 2.38107 0.300799 -1.5
    endloop
  endfacet
  facet normal -0.998026 -0.0628081 0
    outer loop
      vertex 2.38107 0.300799 1.5
      vertex 2.4 0 -1.5
      vertex 2.4 0 1.5
    endloop
  endfacet
  facet normal -0.481739 -0.876315 0
    outer loop
      vertex 1.02187 2.17158 -1.5
      vertex 1.28598 2.02639 1.5
      vertex 1.02187 2.17158 1.5
    endloop
  endfacet
  facet normal -0.481739 -0.876315 -0
    outer loop
      vertex 1.28598 2.02639 1.5
      vertex 1.02187 2.17158 -1.5
      vertex 1.28598 2.02639 -1.5
    endloop
  endfacet
  facet normal -0.368151 -0.929766 0
    outer loop
      vertex 0.74164 2.28254 -1.5
      vertex 1.02187 2.17158 1.5
      vertex 0.74164 2.28254 1.5
    endloop
  endfacet
  facet normal -0.368151 -0.929766 -0
    outer loop
      vertex 1.02187 2.17158 1.5
      vertex 0.74164 2.28254 -1.5
      vertex 1.02187 2.17158 -1.5
    endloop
  endfacet
  facet normal -0.125318 -0.992117 0
    outer loop
      vertex 0.150697 2.39526 -1.5
      vertex 0.449715 2.35749 1.5
      vertex 0.150697 2.39526 1.5
    endloop
  endfacet
  facet normal -0.125318 -0.992117 -0
    outer loop
      vertex 0.449715 2.35749 1.5
      vertex 0.150697 2.39526 -1.5
      vertex 0.449715 2.35749 -1.5
    endloop
  endfacet
  facet normal 0.998026 0.0628081 0
    outer loop
      vertex -2.38107 -0.300799 1.5
      vertex -2.4 0 -1.5
      vertex -2.4 0 1.5
    endloop
  endfacet
  facet normal 0.998026 0.0628081 0
    outer loop
      vertex -2.4 0 -1.5
      vertex -2.38107 -0.300799 1.5
      vertex -2.38107 -0.300799 -1.5
    endloop
  endfacet
  facet normal 0.481739 0.876315 -0
    outer loop
      vertex -1.02187 -2.17158 -1.5
      vertex -1.28598 -2.02639 1.5
      vertex -1.02187 -2.17158 1.5
    endloop
  endfacet
  facet normal 0.481739 0.876315 0
    outer loop
      vertex -1.28598 -2.02639 1.5
      vertex -1.02187 -2.17158 -1.5
      vertex -1.28598 -2.02639 -1.5
    endloop
  endfacet
  facet normal -0.770509 0.637429 0
    outer loop
      vertex 1.74952 -1.64291 -1.5
      vertex 1.94164 -1.41068 1.5
      vertex 1.94164 -1.41068 -1.5
    endloop
  endfacet
  facet normal -0.770509 0.637429 0
    outer loop
      vertex 1.94164 -1.41068 1.5
      vertex 1.74952 -1.64291 -1.5
      vertex 1.74952 -1.64291 1.5
    endloop
  endfacet
  facet normal 0 1 -0
    outer loop
      vertex 0.150697 -2.39526 -1.5
      vertex -0.150697 -2.39526 1.5
      vertex 0.150697 -2.39526 1.5
    endloop
  endfacet
  facet normal 0 1 0
    outer loop
      vertex -0.150697 -2.39526 1.5
      vertex 0.150697 -2.39526 -1.5
      vertex -0.150697 -2.39526 -1.5
    endloop
  endfacet
  facet normal 0.951053 -0.309029 0
    outer loop
      vertex -2.3246 0.596855 1.5
      vertex -2.23146 0.883498 -1.5
      vertex -2.23146 0.883498 1.5
    endloop
  endfacet
  facet normal 0.951053 -0.309029 0
    outer loop
      vertex -2.23146 0.883498 -1.5
      vertex -2.3246 0.596855 1.5
      vertex -2.3246 0.596855 -1.5
    endloop
  endfacet
  facet normal 0.770509 -0.637429 0
    outer loop
      vertex -1.94164 1.41068 1.5
      vertex -1.74952 1.64291 -1.5
      vertex -1.74952 1.64291 1.5
    endloop
  endfacet
  facet normal 0.770509 -0.637429 0
    outer loop
      vertex -1.74952 1.64291 -1.5
      vertex -1.94164 1.41068 1.5
      vertex -1.94164 1.41068 -1.5
    endloop
  endfacet
  facet normal 0.684561 -0.728955 0
    outer loop
      vertex -1.74952 1.64291 -1.5
      vertex -1.52982 1.84923 1.5
      vertex -1.74952 1.64291 1.5
    endloop
  endfacet
  facet normal 0.684561 -0.728955 0
    outer loop
      vertex -1.52982 1.84923 1.5
      vertex -1.74952 1.64291 -1.5
      vertex -1.52982 1.84923 -1.5
    endloop
  endfacet
  facet normal 0.125318 -0.992117 0
    outer loop
      vertex -0.449715 2.35749 -1.5
      vertex -0.150697 2.39526 1.5
      vertex -0.449715 2.35749 1.5
    endloop
  endfacet
  facet normal 0.125318 -0.992117 0
    outer loop
      vertex -0.150697 2.39526 1.5
      vertex -0.449715 2.35749 -1.5
      vertex -0.150697 2.39526 -1.5
    endloop
  endfacet
  facet normal 0.481739 -0.876315 0
    outer loop
      vertex -1.28598 2.02639 -1.5
      vertex -1.02187 2.17158 1.5
      vertex -1.28598 2.02639 1.5
    endloop
  endfacet
  facet normal 0.481739 -0.876315 0
    outer loop
      vertex -1.02187 2.17158 1.5
      vertex -1.28598 2.02639 -1.5
      vertex -1.02187 2.17158 -1.5
    endloop
  endfacet
  facet normal 0.368151 -0.929766 0
    outer loop
      vertex -1.02187 2.17158 -1.5
      vertex -0.74164 2.28254 1.5
      vertex -1.02187 2.17158 1.5
    endloop
  endfacet
  facet normal 0.368151 -0.929766 0
    outer loop
      vertex -0.74164 2.28254 1.5
      vertex -1.02187 2.17158 -1.5
      vertex -0.74164 2.28254 -1.5
    endloop
  endfacet
  facet normal -0.844315 -0.535847 0
    outer loop
      vertex 2.10314 1.15621 -1.5
      vertex 1.94164 1.41068 1.5
      vertex 1.94164 1.41068 -1.5
    endloop
  endfacet
  facet normal -0.844315 -0.535847 0
    outer loop
      vertex 1.94164 1.41068 1.5
      vertex 2.10314 1.15621 -1.5
      vertex 2.10314 1.15621 1.5
    endloop
  endfacet
  facet normal -0.904838 -0.425756 0
    outer loop
      vertex 2.23146 0.883498 -1.5
      vertex 2.10314 1.15621 1.5
      vertex 2.10314 1.15621 -1.5
    endloop
  endfacet
  facet normal -0.904838 -0.425756 0
    outer loop
      vertex 2.10314 1.15621 1.5
      vertex 2.23146 0.883498 -1.5
      vertex 2.23146 0.883498 1.5
    endloop
  endfacet
  facet normal -0.982291 -0.187363 0
    outer loop
      vertex 2.38107 0.300799 -1.5
      vertex 2.3246 0.596855 1.5
      vertex 2.3246 0.596855 -1.5
    endloop
  endfacet
  facet normal -0.982291 -0.187363 0
    outer loop
      vertex 2.3246 0.596855 1.5
      vertex 2.38107 0.300799 -1.5
      vertex 2.38107 0.300799 1.5
    endloop
  endfacet
  facet normal -0.587785 -0.809017 0
    outer loop
      vertex 1.28598 2.02639 -1.5
      vertex 1.52982 1.84923 1.5
      vertex 1.28598 2.02639 1.5
    endloop
  endfacet
  facet normal -0.587785 -0.809017 -0
    outer loop
      vertex 1.52982 1.84923 1.5
      vertex 1.28598 2.02639 -1.5
      vertex 1.52982 1.84923 -1.5
    endloop
  endfacet
  facet normal -0.684561 -0.728955 0
    outer loop
      vertex 1.52982 1.84923 -1.5
      vertex 1.74952 1.64291 1.5
      vertex 1.52982 1.84923 1.5
    endloop
  endfacet
  facet normal -0.684561 -0.728955 -0
    outer loop
      vertex 1.74952 1.64291 1.5
      vertex 1.52982 1.84923 -1.5
      vertex 1.74952 1.64291 -1.5
    endloop
  endfacet
  facet normal -0.248679 -0.968586 0
    outer loop
      vertex 0.449715 2.35749 -1.5
      vertex 0.74164 2.28254 1.5
      vertex 0.449715 2.35749 1.5
    endloop
  endfacet
  facet normal -0.248679 -0.968586 -0
    outer loop
      vertex 0.74164 2.28254 1.5
      vertex 0.449715 2.35749 -1.5
      vertex 0.74164 2.28254 -1.5
    endloop
  endfacet
  facet normal 0.904838 0.425756 0
    outer loop
      vertex -2.10314 -1.15621 1.5
      vertex -2.23146 -0.883498 -1.5
      vertex -2.23146 -0.883498 1.5
    endloop
  endfacet
  facet normal 0.904838 0.425756 0
    outer loop
      vertex -2.23146 -0.883498 -1.5
      vertex -2.10314 -1.15621 1.5
      vertex -2.10314 -1.15621 -1.5
    endloop
  endfacet
  facet normal 0.844315 0.535847 0
    outer loop
      vertex -1.94164 -1.41068 1.5
      vertex -2.10314 -1.15621 -1.5
      vertex -2.10314 -1.15621 1.5
    endloop
  endfacet
  facet normal 0.844315 0.535847 0
    outer loop
      vertex -2.10314 -1.15621 -1.5
      vertex -1.94164 -1.41068 1.5
      vertex -1.94164 -1.41068 -1.5
    endloop
  endfacet
  facet normal 0.770509 0.637429 0
    outer loop
      vertex -1.74952 -1.64291 1.5
      vertex -1.94164 -1.41068 -1.5
      vertex -1.94164 -1.41068 1.5
    endloop
  endfacet
  facet normal 0.770509 0.637429 0
    outer loop
      vertex -1.94164 -1.41068 -1.5
      vertex -1.74952 -1.64291 1.5
      vertex -1.74952 -1.64291 -1.5
    endloop
  endfacet
  facet normal -0.368151 0.929766 0
    outer loop
      vertex 1.02187 -2.17158 -1.5
      vertex 0.74164 -2.28254 1.5
      vertex 1.02187 -2.17158 1.5
    endloop
  endfacet
  facet normal -0.368151 0.929766 0
    outer loop
      vertex 0.74164 -2.28254 1.5
      vertex 1.02187 -2.17158 -1.5
      vertex 0.74164 -2.28254 -1.5
    endloop
  endfacet
  facet normal -0.844315 0.535847 0
    outer loop
      vertex 1.94164 -1.41068 -1.5
      vertex 2.10314 -1.15621 1.5
      vertex 2.10314 -1.15621 -1.5
    endloop
  endfacet
  facet normal -0.844315 0.535847 0
    outer loop
      vertex 2.10314 -1.15621 1.5
      vertex 1.94164 -1.41068 -1.5
      vertex 1.94164 -1.41068 1.5
    endloop
  endfacet
  facet normal -0.998026 0.0628081 0
    outer loop
      vertex 2.38107 -0.300799 -1.5
      vertex 2.4 0 1.5
      vertex 2.4 0 -1.5
    endloop
  endfacet
  facet normal -0.998026 0.0628081 0
    outer loop
      vertex 2.4 0 1.5
      vertex 2.38107 -0.300799 -1.5
      vertex 2.38107 -0.300799 1.5
    endloop
  endfacet
  facet normal -0.951053 0.309029 0
    outer loop
      vertex 2.23146 -0.883498 -1.5
      vertex 2.3246 -0.596855 1.5
      vertex 2.3246 -0.596855 -1.5
    endloop
  endfacet
  facet normal -0.951053 0.309029 0
    outer loop
      vertex 2.3246 -0.596855 1.5
      vertex 2.23146 -0.883498 -1.5
      vertex 2.23146 -0.883498 1.5
    endloop
  endfacet
  facet normal 0.248679 0.968586 -0
    outer loop
      vertex -0.449715 -2.35749 -1.5
      vertex -0.74164 -2.28254 1.5
      vertex -0.449715 -2.35749 1.5
    endloop
  endfacet
  facet normal 0.248679 0.968586 0
    outer loop
      vertex -0.74164 -2.28254 1.5
      vertex -0.449715 -2.35749 -1.5
      vertex -0.74164 -2.28254 -1.5
    endloop
  endfacet
  facet normal 0.125318 0.992117 -0
    outer loop
      vertex -0.150697 -2.39526 -1.5
      vertex -0.449715 -2.35749 1.5
      vertex -0.150697 -2.39526 1.5
    endloop
  endfacet
  facet normal 0.125318 0.992117 0
    outer loop
      vertex -0.449715 -2.35749 1.5
      vertex -0.150697 -2.39526 -1.5
      vertex -0.449715 -2.35749 -1.5
    endloop
  endfacet
  facet normal 0.951053 0.309029 0
    outer loop
      vertex -2.23146 -0.883498 1.5
      vertex -2.3246 -0.596855 -1.5
      vertex -2.3246 -0.596855 1.5
    endloop
  endfacet
  facet normal 0.951053 0.309029 0
    outer loop
      vertex -2.3246 -0.596855 -1.5
      vertex -2.23146 -0.883498 1.5
      vertex -2.23146 -0.883498 -1.5
    endloop
  endfacet
  facet normal -0.125318 0.992117 0
    outer loop
      vertex 0.449715 -2.35749 -1.5
      vertex 0.150697 -2.39526 1.5
      vertex 0.449715 -2.35749 1.5
    endloop
  endfacet
  facet normal -0.125318 0.992117 0
    outer loop
      vertex 0.150697 -2.39526 1.5
      vertex 0.449715 -2.35749 -1.5
      vertex 0.150697 -2.39526 -1.5
    endloop
  endfacet
  facet normal -0.904838 0.425756 0
    outer loop
      vertex 2.10314 -1.15621 -1.5
      vertex 2.23146 -0.883498 1.5
      vertex 2.23146 -0.883498 -1.5
    endloop
  endfacet
  facet normal -0.904838 0.425756 0
    outer loop
      vertex 2.23146 -0.883498 1.5
      vertex 2.10314 -1.15621 -1.5
      vertex 2.10314 -1.15621 1.5
    endloop
  endfacet
  facet normal -0.982291 0.187363 0
    outer loop
      vertex 2.3246 -0.596855 -1.5
      vertex 2.38107 -0.300799 1.5
      vertex 2.38107 -0.300799 -1.5
    endloop
  endfacet
  facet normal -0.982291 0.187363 0
    outer loop
      vertex 2.38107 -0.300799 1.5
      vertex 2.3246 -0.596855 -1.5
      vertex 2.3246 -0.596855 1.5
    endloop
  endfacet
  facet normal 0.587785 0.809017 -0
    outer loop
      vertex -1.28598 -2.02639 -1.5
      vertex -1.52982 -1.84923 1.5
      vertex -1.28598 -2.02639 1.5
    endloop
  endfacet
  facet normal 0.587785 0.809017 0
    outer loop
      vertex -1.52982 -1.84923 1.5
      vertex -1.28598 -2.02639 -1.5
      vertex -1.52982 -1.84923 -1.5
    endloop
  endfacet
  facet normal 0.684561 0.728955 -0
    outer loop
      vertex -1.52982 -1.84923 -1.5
      vertex -1.74952 -1.64291 1.5
      vertex -1.52982 -1.84923 1.5
    endloop
  endfacet
  facet normal 0.684561 0.728955 0
    outer loop
      vertex -1.74952 -1.64291 1.5
      vertex -1.52982 -1.84923 -1.5
      vertex -1.74952 -1.64291 -1.5
    endloop
  endfacet
  facet normal -0.587785 0.809017 0
    outer loop
      vertex 1.52982 -1.84923 -1.5
      vertex 1.28598 -2.02639 1.5
      vertex 1.52982 -1.84923 1.5
    endloop
  endfacet
  facet normal -0.587785 0.809017 0
    outer loop
      vertex 1.28598 -2.02639 1.5
      vertex 1.52982 -1.84923 -1.5
      vertex 1.28598 -2.02639 -1.5
    endloop
  endfacet
  facet normal -0.248679 0.968586 0
    outer loop
      vertex 0.74164 -2.28254 -1.5
      vertex 0.449715 -2.35749 1.5
      vertex 0.74164 -2.28254 1.5
    endloop
  endfacet
  facet normal -0.248679 0.968586 0
    outer loop
      vertex 0.449715 -2.35749 1.5
      vertex 0.74164 -2.28254 -1.5
      vertex 0.449715 -2.35749 -1.5
    endloop
  endfacet
  facet normal -0.481739 0.876315 0
    outer loop
      vertex 1.28598 -2.02639 -1.5
      vertex 1.02187 -2.17158 1.5
      vertex 1.28598 -2.02639 1.5
    endloop
  endfacet
  facet normal -0.481739 0.876315 0
    outer loop
      vertex 1.02187 -2.17158 1.5
      vertex 1.28598 -2.02639 -1.5
      vertex 1.02187 -2.17158 -1.5
    endloop
  endfacet
  facet normal -0.684561 0.728955 0
    outer loop
      vertex 1.74952 -1.64291 -1.5
      vertex 1.52982 -1.84923 1.5
      vertex 1.74952 -1.64291 1.5
    endloop
  endfacet
  facet normal -0.684561 0.728955 0
    outer loop
      vertex 1.52982 -1.84923 1.5
      vertex 1.74952 -1.64291 -1.5
      vertex 1.52982 -1.84923 -1.5
    endloop
  endfacet
endsolid OpenSCAD_Model
