  0
SECTION
  2
BLOCKS
  0
ENDSEC
  0
SECTION
  2
ENTITIES
  0
LINE
  8
0
 10
10.9369
 20
550.589
 11
11.5451
 21
550.745
  0
LINE
  8
0
 10
11.5451
 20
550.745
 11
12.1289
 21
550.976
  0
LINE
  8
0
 10
12.1289
 20
550.976
 11
12.6791
 21
551.278
  0
LINE
  8
0
 10
12.6791
 20
551.278
 11
13.1871
 21
551.647
  0
LINE
  8
0
 10
13.1871
 20
551.647
 11
13.6448
 21
552.077
  0
LINE
  8
0
 10
13.6448
 20
552.077
 11
14.0451
 21
552.561
  0
LINE
  8
0
 10
14.0451
 20
552.561
 11
14.3815
 21
553.091
  0
LINE
  8
0
 10
14.3815
 20
553.091
 11
14.6489
 21
553.659
  0
LINE
  8
0
 10
14.6489
 20
553.659
 11
14.8429
 21
554.257
  0
LINE
  8
0
 10
14.8429
 20
554.257
 11
14.9606
 21
554.873
  0
LINE
  8
0
 10
14.9606
 20
554.873
 11
15
 21
555.5
  0
LINE
  8
0
 10
15
 20
555.5
 11
15
 21
620.5
  0
LINE
  8
0
 10
15
 20
620.5
 11
14.9606
 21
621.127
  0
LINE
  8
0
 10
14.9606
 20
621.127
 11
14.8429
 21
621.743
  0
LINE
  8
0
 10
14.8429
 20
621.743
 11
14.6489
 21
622.341
  0
LINE
  8
0
 10
14.6489
 20
622.341
 11
14.3815
 21
622.909
  0
LINE
  8
0
 10
14.3815
 20
622.909
 11
14.0451
 21
623.439
  0
LINE
  8
0
 10
14.0451
 20
623.439
 11
13.6448
 21
623.923
  0
LINE
  8
0
 10
13.6448
 20
623.923
 11
13.1871
 21
624.353
  0
LINE
  8
0
 10
13.1871
 20
624.353
 11
12.6791
 21
624.722
  0
LINE
  8
0
 10
12.6791
 20
624.722
 11
12.1289
 21
625.024
  0
LINE
  8
0
 10
12.1289
 20
625.024
 11
11.5451
 21
625.255
  0
LINE
  8
0
 10
11.5451
 20
625.255
 11
10.9369
 21
625.411
  0
LINE
  8
0
 10
10.9369
 20
625.411
 11
10.3139
 21
625.49
  0
LINE
  8
0
 10
10.3139
 20
625.49
 11
-10.3139
 21
625.49
  0
LINE
  8
0
 10
-10.3139
 20
625.49
 11
-10.9369
 21
625.411
  0
LINE
  8
0
 10
-10.9369
 20
625.411
 11
-11.5451
 21
625.255
  0
LINE
  8
0
 10
-11.5451
 20
625.255
 11
-12.1289
 21
625.024
  0
LINE
  8
0
 10
-12.1289
 20
625.024
 11
-12.6791
 21
624.722
  0
LINE
  8
0
 10
-12.6791
 20
624.722
 11
-13.1871
 21
624.353
  0
LINE
  8
0
 10
-13.1871
 20
624.353
 11
-13.6448
 21
623.923
  0
LINE
  8
0
 10
-13.6448
 20
623.923
 11
-14.0451
 21
623.439
  0
LINE
  8
0
 10
-14.0451
 20
623.439
 11
-14.3815
 21
622.909
  0
LINE
  8
0
 10
-14.3815
 20
622.909
 11
-14.6489
 21
622.341
  0
LINE
  8
0
 10
-14.6489
 20
622.341
 11
-14.8429
 21
621.743
  0
LINE
  8
0
 10
-14.8429
 20
621.743
 11
-14.9606
 21
621.127
  0
LINE
  8
0
 10
-14.9606
 20
621.127
 11
-15
 21
620.5
  0
LINE
  8
0
 10
-15
 20
620.5
 11
-15
 21
555.5
  0
LINE
  8
0
 10
-15
 20
555.5
 11
-14.9606
 21
554.873
  0
LINE
  8
0
 10
-14.9606
 20
554.873
 11
-14.8429
 21
554.257
  0
LINE
  8
0
 10
-14.8429
 20
554.257
 11
-14.6489
 21
553.659
  0
LINE
  8
0
 10
-14.6489
 20
553.659
 11
-14.3815
 21
553.091
  0
LINE
  8
0
 10
-14.3815
 20
553.091
 11
-14.0451
 21
552.561
  0
LINE
  8
0
 10
-14.0451
 20
552.561
 11
-13.6448
 21
552.077
  0
LINE
  8
0
 10
-13.6448
 20
552.077
 11
-13.1871
 21
551.647
  0
LINE
  8
0
 10
-13.1871
 20
551.647
 11
-12.6791
 21
551.278
  0
LINE
  8
0
 10
-12.6791
 20
551.278
 11
-12.1289
 21
550.976
  0
LINE
  8
0
 10
-12.1289
 20
550.976
 11
-11.5451
 21
550.745
  0
LINE
  8
0
 10
-11.5451
 20
550.745
 11
-10.9369
 21
550.589
  0
LINE
  8
0
 10
-10.9369
 20
550.589
 11
-10.3139
 21
550.51
  0
LINE
  8
0
 10
-10.3139
 20
550.51
 11
10.3139
 21
550.51
  0
LINE
  8
0
 10
10.3139
 20
550.51
 11
10.9369
 21
550.589
  0
LINE
  8
0
 10
-4.81104
 20
551.009
 11
-4.32086
 21
551.278
  0
LINE
  8
0
 10
-4.32086
 20
551.278
 11
-3.81287
 21
551.647
  0
LINE
  8
0
 10
-3.81287
 20
551.647
 11
-3.35515
 21
552.077
  0
LINE
  8
0
 10
-3.35515
 20
552.077
 11
-2.95491
 21
552.561
  0
LINE
  8
0
 10
-2.95491
 20
552.561
 11
-2.61845
 21
553.091
  0
LINE
  8
0
 10
-2.61845
 20
553.091
 11
-2.3511
 21
553.659
  0
LINE
  8
0
 10
-2.3511
 20
553.659
 11
-2.15707
 21
554.257
  0
LINE
  8
0
 10
-2.15707
 20
554.257
 11
-2.03941
 21
554.873
  0
LINE
  8
0
 10
-2.03941
 20
554.873
 11
-2
 21
555.5
  0
LINE
  8
0
 10
-2
 20
555.5
 11
-2
 21
558.5
  0
LINE
  8
0
 10
-2
 20
558.5
 11
-2.03941
 21
559.127
  0
LINE
  8
0
 10
-2.03941
 20
559.127
 11
-2.15707
 21
559.743
  0
LINE
  8
0
 10
-2.15707
 20
559.743
 11
-2.3511
 21
560.341
  0
LINE
  8
0
 10
-2.3511
 20
560.341
 11
-2.61845
 21
560.909
  0
LINE
  8
0
 10
-2.61845
 20
560.909
 11
-2.95491
 21
561.439
  0
LINE
  8
0
 10
-2.95491
 20
561.439
 11
-3.35515
 21
561.923
  0
LINE
  8
0
 10
-3.35515
 20
561.923
 11
-3.81287
 21
562.353
  0
LINE
  8
0
 10
-3.81287
 20
562.353
 11
-4.32086
 21
562.722
  0
LINE
  8
0
 10
-4.32086
 20
562.722
 11
-4.87109
 21
563.024
  0
LINE
  8
0
 10
-4.87109
 20
563.024
 11
-5.45491
 21
563.255
  0
LINE
  8
0
 10
-5.45491
 20
563.255
 11
-6.06308
 21
563.411
  0
LINE
  8
0
 10
-6.06308
 20
563.411
 11
-6.68604
 21
563.49
  0
LINE
  8
0
 10
-6.68604
 20
563.49
 11
-10.3139
 21
563.49
  0
LINE
  8
0
 10
-10.3139
 20
563.49
 11
-10.9369
 21
563.411
  0
LINE
  8
0
 10
-10.9369
 20
563.411
 11
-11.5451
 21
563.255
  0
LINE
  8
0
 10
-11.5451
 20
563.255
 11
-12.1289
 21
563.024
  0
LINE
  8
0
 10
-12.1289
 20
563.024
 11
-12.6791
 21
562.722
  0
LINE
  8
0
 10
-12.6791
 20
562.722
 11
-13.1871
 21
562.353
  0
LINE
  8
0
 10
-13.1871
 20
562.353
 11
-13.6448
 21
561.923
  0
LINE
  8
0
 10
-13.6448
 20
561.923
 11
-14.0451
 21
561.439
  0
LINE
  8
0
 10
-14.0451
 20
561.439
 11
-14.3815
 21
560.909
  0
LINE
  8
0
 10
-14.3815
 20
560.909
 11
-14.5
 21
560.657
  0
LINE
  8
0
 10
-14.5
 20
560.657
 11
-14.5
 21
620.5
  0
LINE
  8
0
 10
-14.5
 20
620.5
 11
-14.4645
 21
621.064
  0
LINE
  8
0
 10
-14.4645
 20
621.064
 11
-14.3586
 21
621.619
  0
LINE
  8
0
 10
-14.3586
 20
621.619
 11
-14.184
 21
622.157
  0
LINE
  8
0
 10
-14.184
 20
622.157
 11
-13.9434
 21
622.668
  0
LINE
  8
0
 10
-13.9434
 20
622.668
 11
-13.6406
 21
623.145
  0
LINE
  8
0
 10
-13.6406
 20
623.145
 11
-13.2803
 21
623.58
  0
LINE
  8
0
 10
-13.2803
 20
623.58
 11
-12.8684
 21
623.967
  0
LINE
  8
0
 10
-12.8684
 20
623.967
 11
-12.4112
 21
624.299
  0
LINE
  8
0
 10
-12.4112
 20
624.299
 11
-11.916
 21
624.572
  0
LINE
  8
0
 10
-11.916
 20
624.572
 11
-11.3906
 21
624.78
  0
LINE
  8
0
 10
-11.3906
 20
624.78
 11
-10.8432
 21
624.92
  0
LINE
  8
0
 10
-10.8432
 20
624.92
 11
-10.2825
 21
624.991
  0
LINE
  8
0
 10
-10.2825
 20
624.991
 11
10.2825
 21
624.991
  0
LINE
  8
0
 10
10.2825
 20
624.991
 11
10.8432
 21
624.92
  0
LINE
  8
0
 10
10.8432
 20
624.92
 11
11.3906
 21
624.78
  0
LINE
  8
0
 10
11.3906
 20
624.78
 11
11.916
 21
624.572
  0
LINE
  8
0
 10
11.916
 20
624.572
 11
12.4112
 21
624.299
  0
LINE
  8
0
 10
12.4112
 20
624.299
 11
12.8684
 21
623.967
  0
LINE
  8
0
 10
12.8684
 20
623.967
 11
13.2803
 21
623.58
  0
LINE
  8
0
 10
13.2803
 20
623.58
 11
13.6406
 21
623.145
  0
LINE
  8
0
 10
13.6406
 20
623.145
 11
13.9434
 21
622.668
  0
LINE
  8
0
 10
13.9434
 20
622.668
 11
14.184
 21
622.157
  0
LINE
  8
0
 10
14.184
 20
622.157
 11
14.3586
 21
621.619
  0
LINE
  8
0
 10
14.3586
 20
621.619
 11
14.4645
 21
621.064
  0
LINE
  8
0
 10
14.4645
 20
621.064
 11
14.5
 21
620.5
  0
LINE
  8
0
 10
14.5
 20
620.5
 11
14.5
 21
555.5
  0
LINE
  8
0
 10
14.5
 20
555.5
 11
14.4645
 21
554.936
  0
LINE
  8
0
 10
14.4645
 20
554.936
 11
14.3586
 21
554.381
  0
LINE
  8
0
 10
14.3586
 20
554.381
 11
14.184
 21
553.843
  0
LINE
  8
0
 10
14.184
 20
553.843
 11
13.9434
 21
553.332
  0
LINE
  8
0
 10
13.9434
 20
553.332
 11
13.6406
 21
552.855
  0
LINE
  8
0
 10
13.6406
 20
552.855
 11
13.2803
 21
552.42
  0
LINE
  8
0
 10
13.2803
 20
552.42
 11
12.8684
 21
552.033
  0
LINE
  8
0
 10
12.8684
 20
552.033
 11
12.4112
 21
551.701
  0
LINE
  8
0
 10
12.4112
 20
551.701
 11
11.916
 21
551.428
  0
LINE
  8
0
 10
11.916
 20
551.428
 11
11.3906
 21
551.22
  0
LINE
  8
0
 10
11.3906
 20
551.22
 11
10.8432
 21
551.08
  0
LINE
  8
0
 10
10.8432
 20
551.08
 11
10.2825
 21
551.009
  0
LINE
  8
0
 10
10.2825
 20
551.009
 11
-4.81104
 21
551.009
  0
LINE
  8
0
 10
7.96844
 20
615.544
 11
8.27254
 21
615.622
  0
LINE
  8
0
 10
8.27254
 20
615.622
 11
8.56444
 21
615.738
  0
LINE
  8
0
 10
8.56444
 20
615.738
 11
8.83955
 21
615.889
  0
LINE
  8
0
 10
8.83955
 20
615.889
 11
9.09355
 21
616.074
  0
LINE
  8
0
 10
9.09355
 20
616.074
 11
9.32242
 21
616.289
  0
LINE
  8
0
 10
9.32242
 20
616.289
 11
9.52254
 21
616.531
  0
LINE
  8
0
 10
9.52254
 20
616.531
 11
9.69077
 21
616.796
  0
LINE
  8
0
 10
9.69077
 20
616.796
 11
9.82443
 21
617.08
  0
LINE
  8
0
 10
9.82443
 20
617.08
 11
9.92145
 21
617.378
  0
LINE
  8
0
 10
9.92145
 20
617.378
 11
9.98029
 21
617.687
  0
LINE
  8
0
 10
9.98029
 20
617.687
 11
10
 21
618
  0
LINE
  8
0
 10
10
 20
618
 11
9.98029
 21
618.313
  0
LINE
  8
0
 10
9.98029
 20
618.313
 11
9.92145
 21
618.622
  0
LINE
  8
0
 10
9.92145
 20
618.622
 11
9.82443
 21
618.92
  0
LINE
  8
0
 10
9.82443
 20
618.92
 11
9.69077
 21
619.204
  0
LINE
  8
0
 10
9.69077
 20
619.204
 11
9.52254
 21
619.469
  0
LINE
  8
0
 10
9.52254
 20
619.469
 11
9.32242
 21
619.711
  0
LINE
  8
0
 10
9.32242
 20
619.711
 11
9.09355
 21
619.926
  0
LINE
  8
0
 10
9.09355
 20
619.926
 11
8.83955
 21
620.111
  0
LINE
  8
0
 10
8.83955
 20
620.111
 11
8.56444
 21
620.262
  0
LINE
  8
0
 10
8.56444
 20
620.262
 11
8.27254
 21
620.378
  0
LINE
  8
0
 10
8.27254
 20
620.378
 11
7.96844
 21
620.456
  0
LINE
  8
0
 10
7.96844
 20
620.456
 11
7.65697
 21
620.495
  0
LINE
  8
0
 10
7.65697
 20
620.495
 11
7.34302
 21
620.495
  0
LINE
  8
0
 10
7.34302
 20
620.495
 11
7.03154
 21
620.456
  0
LINE
  8
0
 10
7.03154
 20
620.456
 11
6.72745
 21
620.378
  0
LINE
  8
0
 10
6.72745
 20
620.378
 11
6.43555
 21
620.262
  0
LINE
  8
0
 10
6.43555
 20
620.262
 11
6.16043
 21
620.111
  0
LINE
  8
0
 10
6.16043
 20
620.111
 11
5.90643
 21
619.926
  0
LINE
  8
0
 10
5.90643
 20
619.926
 11
5.67757
 21
619.711
  0
LINE
  8
0
 10
5.67757
 20
619.711
 11
5.47745
 21
619.469
  0
LINE
  8
0
 10
5.47745
 20
619.469
 11
5.30922
 21
619.204
  0
LINE
  8
0
 10
5.30922
 20
619.204
 11
5.17555
 21
618.92
  0
LINE
  8
0
 10
5.17555
 20
618.92
 11
5.07854
 21
618.622
  0
LINE
  8
0
 10
5.07854
 20
618.622
 11
5.0197
 21
618.313
  0
LINE
  8
0
 10
5.0197
 20
618.313
 11
5
 21
618
  0
LINE
  8
0
 10
5
 20
618
 11
5.0197
 21
617.687
  0
LINE
  8
0
 10
5.0197
 20
617.687
 11
5.07854
 21
617.378
  0
LINE
  8
0
 10
5.07854
 20
617.378
 11
5.17555
 21
617.08
  0
LINE
  8
0
 10
5.17555
 20
617.08
 11
5.30922
 21
616.796
  0
LINE
  8
0
 10
5.30922
 20
616.796
 11
5.47745
 21
616.531
  0
LINE
  8
0
 10
5.47745
 20
616.531
 11
5.67757
 21
616.289
  0
LINE
  8
0
 10
5.67757
 20
616.289
 11
5.90643
 21
616.074
  0
LINE
  8
0
 10
5.90643
 20
616.074
 11
6.16043
 21
615.889
  0
LINE
  8
0
 10
6.16043
 20
615.889
 11
6.43555
 21
615.738
  0
LINE
  8
0
 10
6.43555
 20
615.738
 11
6.72745
 21
615.622
  0
LINE
  8
0
 10
6.72745
 20
615.622
 11
7.03154
 21
615.544
  0
LINE
  8
0
 10
7.03154
 20
615.544
 11
7.34302
 21
615.505
  0
LINE
  8
0
 10
7.34302
 20
615.505
 11
7.65697
 21
615.505
  0
LINE
  8
0
 10
7.65697
 20
615.505
 11
7.96844
 21
615.544
  0
LINE
  8
0
 10
7.40581
 20
616.503
 11
7.21892
 21
616.527
  0
LINE
  8
0
 10
7.21892
 20
616.527
 11
7.03647
 21
616.573
  0
LINE
  8
0
 10
7.03647
 20
616.573
 11
6.86133
 21
616.643
  0
LINE
  8
0
 10
6.86133
 20
616.643
 11
6.69626
 21
616.734
  0
LINE
  8
0
 10
6.69626
 20
616.734
 11
6.54385
 21
616.844
  0
LINE
  8
0
 10
6.54385
 20
616.844
 11
6.40654
 21
616.973
  0
LINE
  8
0
 10
6.40654
 20
616.973
 11
6.28647
 21
617.118
  0
LINE
  8
0
 10
6.28647
 20
617.118
 11
6.18553
 21
617.277
  0
LINE
  8
0
 10
6.18553
 20
617.277
 11
6.10533
 21
617.448
  0
LINE
  8
0
 10
6.10533
 20
617.448
 11
6.04712
 21
617.627
  0
LINE
  8
0
 10
6.04712
 20
617.627
 11
6.01183
 21
617.812
  0
LINE
  8
0
 10
6.01183
 20
617.812
 11
6
 21
618
  0
LINE
  8
0
 10
6
 20
618
 11
6.01183
 21
618.188
  0
LINE
  8
0
 10
6.01183
 20
618.188
 11
6.04712
 21
618.373
  0
LINE
  8
0
 10
6.04712
 20
618.373
 11
6.10533
 21
618.552
  0
LINE
  8
0
 10
6.10533
 20
618.552
 11
6.18553
 21
618.723
  0
LINE
  8
0
 10
6.18553
 20
618.723
 11
6.28647
 21
618.882
  0
LINE
  8
0
 10
6.28647
 20
618.882
 11
6.40654
 21
619.027
  0
LINE
  8
0
 10
6.40654
 20
619.027
 11
6.54385
 21
619.156
  0
LINE
  8
0
 10
6.54385
 20
619.156
 11
6.69626
 21
619.266
  0
LINE
  8
0
 10
6.69626
 20
619.266
 11
6.86133
 21
619.357
  0
LINE
  8
0
 10
6.86133
 20
619.357
 11
7.03647
 21
619.427
  0
LINE
  8
0
 10
7.03647
 20
619.427
 11
7.21892
 21
619.473
  0
LINE
  8
0
 10
7.21892
 20
619.473
 11
7.40581
 21
619.497
  0
LINE
  8
0
 10
7.40581
 20
619.497
 11
7.59418
 21
619.497
  0
LINE
  8
0
 10
7.59418
 20
619.497
 11
7.78107
 21
619.473
  0
LINE
  8
0
 10
7.78107
 20
619.473
 11
7.96352
 21
619.427
  0
LINE
  8
0
 10
7.96352
 20
619.427
 11
8.13866
 21
619.357
  0
LINE
  8
0
 10
8.13866
 20
619.357
 11
8.30373
 21
619.266
  0
LINE
  8
0
 10
8.30373
 20
619.266
 11
8.45613
 21
619.156
  0
LINE
  8
0
 10
8.45613
 20
619.156
 11
8.59344
 21
619.027
  0
LINE
  8
0
 10
8.59344
 20
619.027
 11
8.71352
 21
618.882
  0
LINE
  8
0
 10
8.71352
 20
618.882
 11
8.81445
 21
618.723
  0
LINE
  8
0
 10
8.81445
 20
618.723
 11
8.89465
 21
618.552
  0
LINE
  8
0
 10
8.89465
 20
618.552
 11
8.95287
 21
618.373
  0
LINE
  8
0
 10
8.95287
 20
618.373
 11
8.98816
 21
618.188
  0
LINE
  8
0
 10
8.98816
 20
618.188
 11
9
 21
618
  0
LINE
  8
0
 10
9
 20
618
 11
8.98816
 21
617.812
  0
LINE
  8
0
 10
8.98816
 20
617.812
 11
8.95287
 21
617.627
  0
LINE
  8
0
 10
8.95287
 20
617.627
 11
8.89465
 21
617.448
  0
LINE
  8
0
 10
8.89465
 20
617.448
 11
8.81445
 21
617.277
  0
LINE
  8
0
 10
8.81445
 20
617.277
 11
8.71352
 21
617.118
  0
LINE
  8
0
 10
8.71352
 20
617.118
 11
8.59344
 21
616.973
  0
LINE
  8
0
 10
8.59344
 20
616.973
 11
8.45613
 21
616.844
  0
LINE
  8
0
 10
8.45613
 20
616.844
 11
8.30373
 21
616.734
  0
LINE
  8
0
 10
8.30373
 20
616.734
 11
8.13866
 21
616.643
  0
LINE
  8
0
 10
8.13866
 20
616.643
 11
7.96352
 21
616.573
  0
LINE
  8
0
 10
7.96352
 20
616.573
 11
7.78107
 21
616.527
  0
LINE
  8
0
 10
7.78107
 20
616.527
 11
7.59418
 21
616.503
  0
LINE
  8
0
 10
7.59418
 20
616.503
 11
7.40581
 21
616.503
  0
LINE
  8
0
 10
-7.59418
 20
556.503
 11
-7.78107
 21
556.527
  0
LINE
  8
0
 10
-7.78107
 20
556.527
 11
-7.96352
 21
556.573
  0
LINE
  8
0
 10
-7.96352
 20
556.573
 11
-8.13866
 21
556.643
  0
LINE
  8
0
 10
-8.13866
 20
556.643
 11
-8.30373
 21
556.734
  0
LINE
  8
0
 10
-8.30373
 20
556.734
 11
-8.45613
 21
556.844
  0
LINE
  8
0
 10
-8.45613
 20
556.844
 11
-8.59344
 21
556.973
  0
LINE
  8
0
 10
-8.59344
 20
556.973
 11
-8.71352
 21
557.118
  0
LINE
  8
0
 10
-8.71352
 20
557.118
 11
-8.81445
 21
557.277
  0
LINE
  8
0
 10
-8.81445
 20
557.277
 11
-8.89465
 21
557.448
  0
LINE
  8
0
 10
-8.89465
 20
557.448
 11
-8.95287
 21
557.627
  0
LINE
  8
0
 10
-8.95287
 20
557.627
 11
-8.98816
 21
557.812
  0
LINE
  8
0
 10
-8.98816
 20
557.812
 11
-9
 21
558
  0
LINE
  8
0
 10
-9
 20
558
 11
-8.98816
 21
558.188
  0
LINE
  8
0
 10
-8.98816
 20
558.188
 11
-8.95287
 21
558.373
  0
LINE
  8
0
 10
-8.95287
 20
558.373
 11
-8.89465
 21
558.552
  0
LINE
  8
0
 10
-8.89465
 20
558.552
 11
-8.81445
 21
558.723
  0
LINE
  8
0
 10
-8.81445
 20
558.723
 11
-8.71352
 21
558.882
  0
LINE
  8
0
 10
-8.71352
 20
558.882
 11
-8.59344
 21
559.027
  0
LINE
  8
0
 10
-8.59344
 20
559.027
 11
-8.45613
 21
559.156
  0
LINE
  8
0
 10
-8.45613
 20
559.156
 11
-8.30373
 21
559.266
  0
LINE
  8
0
 10
-8.30373
 20
559.266
 11
-8.13866
 21
559.357
  0
LINE
  8
0
 10
-8.13866
 20
559.357
 11
-7.96352
 21
559.427
  0
LINE
  8
0
 10
-7.96352
 20
559.427
 11
-7.78107
 21
559.473
  0
LINE
  8
0
 10
-7.78107
 20
559.473
 11
-7.59418
 21
559.497
  0
LINE
  8
0
 10
-7.59418
 20
559.497
 11
-7.40581
 21
559.497
  0
LINE
  8
0
 10
-7.40581
 20
559.497
 11
-7.21892
 21
559.473
  0
LINE
  8
0
 10
-7.21892
 20
559.473
 11
-7.03647
 21
559.427
  0
LINE
  8
0
 10
-7.03647
 20
559.427
 11
-6.86133
 21
559.357
  0
LINE
  8
0
 10
-6.86133
 20
559.357
 11
-6.69626
 21
559.266
  0
LINE
  8
0
 10
-6.69626
 20
559.266
 11
-6.54385
 21
559.156
  0
LINE
  8
0
 10
-6.54385
 20
559.156
 11
-6.40654
 21
559.027
  0
LINE
  8
0
 10
-6.40654
 20
559.027
 11
-6.28647
 21
558.882
  0
LINE
  8
0
 10
-6.28647
 20
558.882
 11
-6.18553
 21
558.723
  0
LINE
  8
0
 10
-6.18553
 20
558.723
 11
-6.10533
 21
558.552
  0
LINE
  8
0
 10
-6.10533
 20
558.552
 11
-6.04712
 21
558.373
  0
LINE
  8
0
 10
-6.04712
 20
558.373
 11
-6.01183
 21
558.188
  0
LINE
  8
0
 10
-6.01183
 20
558.188
 11
-6
 21
558
  0
LINE
  8
0
 10
-6
 20
558
 11
-6.01183
 21
557.812
  0
LINE
  8
0
 10
-6.01183
 20
557.812
 11
-6.04712
 21
557.627
  0
LINE
  8
0
 10
-6.04712
 20
557.627
 11
-6.10533
 21
557.448
  0
LINE
  8
0
 10
-6.10533
 20
557.448
 11
-6.18553
 21
557.277
  0
LINE
  8
0
 10
-6.18553
 20
557.277
 11
-6.28647
 21
557.118
  0
LINE
  8
0
 10
-6.28647
 20
557.118
 11
-6.40654
 21
556.973
  0
LINE
  8
0
 10
-6.40654
 20
556.973
 11
-6.54385
 21
556.844
  0
LINE
  8
0
 10
-6.54385
 20
556.844
 11
-6.69626
 21
556.734
  0
LINE
  8
0
 10
-6.69626
 20
556.734
 11
-6.86133
 21
556.643
  0
LINE
  8
0
 10
-6.86133
 20
556.643
 11
-7.03647
 21
556.573
  0
LINE
  8
0
 10
-7.03647
 20
556.573
 11
-7.21892
 21
556.527
  0
LINE
  8
0
 10
-7.21892
 20
556.527
 11
-7.40581
 21
556.503
  0
LINE
  8
0
 10
-7.40581
 20
556.503
 11
-7.59418
 21
556.503
  0
LINE
  8
0
 10
10.9369
 20
466.589
 11
11.5451
 21
466.745
  0
LINE
  8
0
 10
11.5451
 20
466.745
 11
12.1289
 21
466.976
  0
LINE
  8
0
 10
12.1289
 20
466.976
 11
12.6791
 21
467.278
  0
LINE
  8
0
 10
12.6791
 20
467.278
 11
13.1871
 21
467.647
  0
LINE
  8
0
 10
13.1871
 20
467.647
 11
13.6448
 21
468.077
  0
LINE
  8
0
 10
13.6448
 20
468.077
 11
14.0451
 21
468.561
  0
LINE
  8
0
 10
14.0451
 20
468.561
 11
14.3815
 21
469.091
  0
LINE
  8
0
 10
14.3815
 20
469.091
 11
14.6489
 21
469.659
  0
LINE
  8
0
 10
14.6489
 20
469.659
 11
14.8429
 21
470.257
  0
LINE
  8
0
 10
14.8429
 20
470.257
 11
14.9606
 21
470.873
  0
LINE
  8
0
 10
14.9606
 20
470.873
 11
15
 21
471.5
  0
LINE
  8
0
 10
15
 20
471.5
 11
15
 21
536.5
  0
LINE
  8
0
 10
15
 20
536.5
 11
14.9606
 21
537.127
  0
LINE
  8
0
 10
14.9606
 20
537.127
 11
14.8429
 21
537.743
  0
LINE
  8
0
 10
14.8429
 20
537.743
 11
14.6489
 21
538.341
  0
LINE
  8
0
 10
14.6489
 20
538.341
 11
14.3815
 21
538.909
  0
LINE
  8
0
 10
14.3815
 20
538.909
 11
14.0451
 21
539.439
  0
LINE
  8
0
 10
14.0451
 20
539.439
 11
13.6448
 21
539.923
  0
LINE
  8
0
 10
13.6448
 20
539.923
 11
13.1871
 21
540.353
  0
LINE
  8
0
 10
13.1871
 20
540.353
 11
12.6791
 21
540.722
  0
LINE
  8
0
 10
12.6791
 20
540.722
 11
12.1289
 21
541.024
  0
LINE
  8
0
 10
12.1289
 20
541.024
 11
11.5451
 21
541.255
  0
LINE
  8
0
 10
11.5451
 20
541.255
 11
10.9369
 21
541.411
  0
LINE
  8
0
 10
10.9369
 20
541.411
 11
10.3139
 21
541.49
  0
LINE
  8
0
 10
10.3139
 20
541.49
 11
-10.3139
 21
541.49
  0
LINE
  8
0
 10
-10.3139
 20
541.49
 11
-10.9369
 21
541.411
  0
LINE
  8
0
 10
-10.9369
 20
541.411
 11
-11.5451
 21
541.255
  0
LINE
  8
0
 10
-11.5451
 20
541.255
 11
-12.1289
 21
541.024
  0
LINE
  8
0
 10
-12.1289
 20
541.024
 11
-12.6791
 21
540.722
  0
LINE
  8
0
 10
-12.6791
 20
540.722
 11
-13.1871
 21
540.353
  0
LINE
  8
0
 10
-13.1871
 20
540.353
 11
-13.6448
 21
539.923
  0
LINE
  8
0
 10
-13.6448
 20
539.923
 11
-14.0451
 21
539.439
  0
LINE
  8
0
 10
-14.0451
 20
539.439
 11
-14.3815
 21
538.909
  0
LINE
  8
0
 10
-14.3815
 20
538.909
 11
-14.6489
 21
538.341
  0
LINE
  8
0
 10
-14.6489
 20
538.341
 11
-14.8429
 21
537.743
  0
LINE
  8
0
 10
-14.8429
 20
537.743
 11
-14.9606
 21
537.127
  0
LINE
  8
0
 10
-14.9606
 20
537.127
 11
-15
 21
536.5
  0
LINE
  8
0
 10
-15
 20
536.5
 11
-15
 21
471.5
  0
LINE
  8
0
 10
-15
 20
471.5
 11
-14.9606
 21
470.873
  0
LINE
  8
0
 10
-14.9606
 20
470.873
 11
-14.8429
 21
470.257
  0
LINE
  8
0
 10
-14.8429
 20
470.257
 11
-14.6489
 21
469.659
  0
LINE
  8
0
 10
-14.6489
 20
469.659
 11
-14.3815
 21
469.091
  0
LINE
  8
0
 10
-14.3815
 20
469.091
 11
-14.0451
 21
468.561
  0
LINE
  8
0
 10
-14.0451
 20
468.561
 11
-13.6448
 21
468.077
  0
LINE
  8
0
 10
-13.6448
 20
468.077
 11
-13.1871
 21
467.647
  0
LINE
  8
0
 10
-13.1871
 20
467.647
 11
-12.6791
 21
467.278
  0
LINE
  8
0
 10
-12.6791
 20
467.278
 11
-12.1289
 21
466.976
  0
LINE
  8
0
 10
-12.1289
 20
466.976
 11
-11.5451
 21
466.745
  0
LINE
  8
0
 10
-11.5451
 20
466.745
 11
-10.9369
 21
466.589
  0
LINE
  8
0
 10
-10.9369
 20
466.589
 11
-10.3139
 21
466.51
  0
LINE
  8
0
 10
-10.3139
 20
466.51
 11
10.3139
 21
466.51
  0
LINE
  8
0
 10
10.3139
 20
466.51
 11
10.9369
 21
466.589
  0
LINE
  8
0
 10
-4.81104
 20
467.009
 11
-4.32086
 21
467.278
  0
LINE
  8
0
 10
-4.32086
 20
467.278
 11
-3.81287
 21
467.647
  0
LINE
  8
0
 10
-3.81287
 20
467.647
 11
-3.35515
 21
468.077
  0
LINE
  8
0
 10
-3.35515
 20
468.077
 11
-2.95491
 21
468.561
  0
LINE
  8
0
 10
-2.95491
 20
468.561
 11
-2.61845
 21
469.091
  0
LINE
  8
0
 10
-2.61845
 20
469.091
 11
-2.3511
 21
469.659
  0
LINE
  8
0
 10
-2.3511
 20
469.659
 11
-2.15707
 21
470.257
  0
LINE
  8
0
 10
-2.15707
 20
470.257
 11
-2.03941
 21
470.873
  0
LINE
  8
0
 10
-2.03941
 20
470.873
 11
-2
 21
471.5
  0
LINE
  8
0
 10
-2
 20
471.5
 11
-2
 21
474.5
  0
LINE
  8
0
 10
-2
 20
474.5
 11
-2.03941
 21
475.127
  0
LINE
  8
0
 10
-2.03941
 20
475.127
 11
-2.15707
 21
475.743
  0
LINE
  8
0
 10
-2.15707
 20
475.743
 11
-2.3511
 21
476.341
  0
LINE
  8
0
 10
-2.3511
 20
476.341
 11
-2.61845
 21
476.909
  0
LINE
  8
0
 10
-2.61845
 20
476.909
 11
-2.95491
 21
477.439
  0
LINE
  8
0
 10
-2.95491
 20
477.439
 11
-3.35515
 21
477.923
  0
LINE
  8
0
 10
-3.35515
 20
477.923
 11
-3.81287
 21
478.353
  0
LINE
  8
0
 10
-3.81287
 20
478.353
 11
-4.32086
 21
478.722
  0
LINE
  8
0
 10
-4.32086
 20
478.722
 11
-4.87109
 21
479.024
  0
LINE
  8
0
 10
-4.87109
 20
479.024
 11
-5.45491
 21
479.255
  0
LINE
  8
0
 10
-5.45491
 20
479.255
 11
-6.06308
 21
479.411
  0
LINE
  8
0
 10
-6.06308
 20
479.411
 11
-6.68604
 21
479.49
  0
LINE
  8
0
 10
-6.68604
 20
479.49
 11
-10.3139
 21
479.49
  0
LINE
  8
0
 10
-10.3139
 20
479.49
 11
-10.9369
 21
479.411
  0
LINE
  8
0
 10
-10.9369
 20
479.411
 11
-11.5451
 21
479.255
  0
LINE
  8
0
 10
-11.5451
 20
479.255
 11
-12.1289
 21
479.024
  0
LINE
  8
0
 10
-12.1289
 20
479.024
 11
-12.6791
 21
478.722
  0
LINE
  8
0
 10
-12.6791
 20
478.722
 11
-13.1871
 21
478.353
  0
LINE
  8
0
 10
-13.1871
 20
478.353
 11
-13.6448
 21
477.923
  0
LINE
  8
0
 10
-13.6448
 20
477.923
 11
-14.0451
 21
477.439
  0
LINE
  8
0
 10
-14.0451
 20
477.439
 11
-14.3815
 21
476.909
  0
LINE
  8
0
 10
-14.3815
 20
476.909
 11
-14.5
 21
476.657
  0
LINE
  8
0
 10
-14.5
 20
476.657
 11
-14.5
 21
536.5
  0
LINE
  8
0
 10
-14.5
 20
536.5
 11
-14.4645
 21
537.064
  0
LINE
  8
0
 10
-14.4645
 20
537.064
 11
-14.3586
 21
537.619
  0
LINE
  8
0
 10
-14.3586
 20
537.619
 11
-14.184
 21
538.157
  0
LINE
  8
0
 10
-14.184
 20
538.157
 11
-13.9434
 21
538.668
  0
LINE
  8
0
 10
-13.9434
 20
538.668
 11
-13.6406
 21
539.145
  0
LINE
  8
0
 10
-13.6406
 20
539.145
 11
-13.2803
 21
539.58
  0
LINE
  8
0
 10
-13.2803
 20
539.58
 11
-12.8684
 21
539.967
  0
LINE
  8
0
 10
-12.8684
 20
539.967
 11
-12.4112
 21
540.299
  0
LINE
  8
0
 10
-12.4112
 20
540.299
 11
-11.916
 21
540.572
  0
LINE
  8
0
 10
-11.916
 20
540.572
 11
-11.3906
 21
540.78
  0
LINE
  8
0
 10
-11.3906
 20
540.78
 11
-10.8432
 21
540.92
  0
LINE
  8
0
 10
-10.8432
 20
540.92
 11
-10.2825
 21
540.991
  0
LINE
  8
0
 10
-10.2825
 20
540.991
 11
10.2825
 21
540.991
  0
LINE
  8
0
 10
10.2825
 20
540.991
 11
10.8432
 21
540.92
  0
LINE
  8
0
 10
10.8432
 20
540.92
 11
11.3906
 21
540.78
  0
LINE
  8
0
 10
11.3906
 20
540.78
 11
11.916
 21
540.572
  0
LINE
  8
0
 10
11.916
 20
540.572
 11
12.4112
 21
540.299
  0
LINE
  8
0
 10
12.4112
 20
540.299
 11
12.8684
 21
539.967
  0
LINE
  8
0
 10
12.8684
 20
539.967
 11
13.2803
 21
539.58
  0
LINE
  8
0
 10
13.2803
 20
539.58
 11
13.6406
 21
539.145
  0
LINE
  8
0
 10
13.6406
 20
539.145
 11
13.9434
 21
538.668
  0
LINE
  8
0
 10
13.9434
 20
538.668
 11
14.184
 21
538.157
  0
LINE
  8
0
 10
14.184
 20
538.157
 11
14.3586
 21
537.619
  0
LINE
  8
0
 10
14.3586
 20
537.619
 11
14.4645
 21
537.064
  0
LINE
  8
0
 10
14.4645
 20
537.064
 11
14.5
 21
536.5
  0
LINE
  8
0
 10
14.5
 20
536.5
 11
14.5
 21
471.5
  0
LINE
  8
0
 10
14.5
 20
471.5
 11
14.4645
 21
470.936
  0
LINE
  8
0
 10
14.4645
 20
470.936
 11
14.3586
 21
470.381
  0
LINE
  8
0
 10
14.3586
 20
470.381
 11
14.184
 21
469.843
  0
LINE
  8
0
 10
14.184
 20
469.843
 11
13.9434
 21
469.332
  0
LINE
  8
0
 10
13.9434
 20
469.332
 11
13.6406
 21
468.855
  0
LINE
  8
0
 10
13.6406
 20
468.855
 11
13.2803
 21
468.42
  0
LINE
  8
0
 10
13.2803
 20
468.42
 11
12.8684
 21
468.033
  0
LINE
  8
0
 10
12.8684
 20
468.033
 11
12.4112
 21
467.701
  0
LINE
  8
0
 10
12.4112
 20
467.701
 11
11.916
 21
467.428
  0
LINE
  8
0
 10
11.916
 20
467.428
 11
11.3906
 21
467.22
  0
LINE
  8
0
 10
11.3906
 20
467.22
 11
10.8432
 21
467.08
  0
LINE
  8
0
 10
10.8432
 20
467.08
 11
10.2825
 21
467.009
  0
LINE
  8
0
 10
10.2825
 20
467.009
 11
-4.81104
 21
467.009
  0
LINE
  8
0
 10
7.96844
 20
531.544
 11
8.27254
 21
531.622
  0
LINE
  8
0
 10
8.27254
 20
531.622
 11
8.56444
 21
531.738
  0
LINE
  8
0
 10
8.56444
 20
531.738
 11
8.83955
 21
531.889
  0
LINE
  8
0
 10
8.83955
 20
531.889
 11
9.09355
 21
532.074
  0
LINE
  8
0
 10
9.09355
 20
532.074
 11
9.32242
 21
532.289
  0
LINE
  8
0
 10
9.32242
 20
532.289
 11
9.52254
 21
532.531
  0
LINE
  8
0
 10
9.52254
 20
532.531
 11
9.69077
 21
532.796
  0
LINE
  8
0
 10
9.69077
 20
532.796
 11
9.82443
 21
533.08
  0
LINE
  8
0
 10
9.82443
 20
533.08
 11
9.92145
 21
533.378
  0
LINE
  8
0
 10
9.92145
 20
533.378
 11
9.98029
 21
533.687
  0
LINE
  8
0
 10
9.98029
 20
533.687
 11
10
 21
534
  0
LINE
  8
0
 10
10
 20
534
 11
9.98029
 21
534.313
  0
LINE
  8
0
 10
9.98029
 20
534.313
 11
9.92145
 21
534.622
  0
LINE
  8
0
 10
9.92145
 20
534.622
 11
9.82443
 21
534.92
  0
LINE
  8
0
 10
9.82443
 20
534.92
 11
9.69077
 21
535.204
  0
LINE
  8
0
 10
9.69077
 20
535.204
 11
9.52254
 21
535.469
  0
LINE
  8
0
 10
9.52254
 20
535.469
 11
9.32242
 21
535.711
  0
LINE
  8
0
 10
9.32242
 20
535.711
 11
9.09355
 21
535.926
  0
LINE
  8
0
 10
9.09355
 20
535.926
 11
8.83955
 21
536.111
  0
LINE
  8
0
 10
8.83955
 20
536.111
 11
8.56444
 21
536.262
  0
LINE
  8
0
 10
8.56444
 20
536.262
 11
8.27254
 21
536.378
  0
LINE
  8
0
 10
8.27254
 20
536.378
 11
7.96844
 21
536.456
  0
LINE
  8
0
 10
7.96844
 20
536.456
 11
7.65697
 21
536.495
  0
LINE
  8
0
 10
7.65697
 20
536.495
 11
7.34302
 21
536.495
  0
LINE
  8
0
 10
7.34302
 20
536.495
 11
7.03154
 21
536.456
  0
LINE
  8
0
 10
7.03154
 20
536.456
 11
6.72745
 21
536.378
  0
LINE
  8
0
 10
6.72745
 20
536.378
 11
6.43555
 21
536.262
  0
LINE
  8
0
 10
6.43555
 20
536.262
 11
6.16043
 21
536.111
  0
LINE
  8
0
 10
6.16043
 20
536.111
 11
5.90643
 21
535.926
  0
LINE
  8
0
 10
5.90643
 20
535.926
 11
5.67757
 21
535.711
  0
LINE
  8
0
 10
5.67757
 20
535.711
 11
5.47745
 21
535.469
  0
LINE
  8
0
 10
5.47745
 20
535.469
 11
5.30922
 21
535.204
  0
LINE
  8
0
 10
5.30922
 20
535.204
 11
5.17555
 21
534.92
  0
LINE
  8
0
 10
5.17555
 20
534.92
 11
5.07854
 21
534.622
  0
LINE
  8
0
 10
5.07854
 20
534.622
 11
5.0197
 21
534.313
  0
LINE
  8
0
 10
5.0197
 20
534.313
 11
5
 21
534
  0
LINE
  8
0
 10
5
 20
534
 11
5.0197
 21
533.687
  0
LINE
  8
0
 10
5.0197
 20
533.687
 11
5.07854
 21
533.378
  0
LINE
  8
0
 10
5.07854
 20
533.378
 11
5.17555
 21
533.08
  0
LINE
  8
0
 10
5.17555
 20
533.08
 11
5.30922
 21
532.796
  0
LINE
  8
0
 10
5.30922
 20
532.796
 11
5.47745
 21
532.531
  0
LINE
  8
0
 10
5.47745
 20
532.531
 11
5.67757
 21
532.289
  0
LINE
  8
0
 10
5.67757
 20
532.289
 11
5.90643
 21
532.074
  0
LINE
  8
0
 10
5.90643
 20
532.074
 11
6.16043
 21
531.889
  0
LINE
  8
0
 10
6.16043
 20
531.889
 11
6.43555
 21
531.738
  0
LINE
  8
0
 10
6.43555
 20
531.738
 11
6.72745
 21
531.622
  0
LINE
  8
0
 10
6.72745
 20
531.622
 11
7.03154
 21
531.544
  0
LINE
  8
0
 10
7.03154
 20
531.544
 11
7.34302
 21
531.505
  0
LINE
  8
0
 10
7.34302
 20
531.505
 11
7.65697
 21
531.505
  0
LINE
  8
0
 10
7.65697
 20
531.505
 11
7.96844
 21
531.544
  0
LINE
  8
0
 10
7.40581
 20
532.503
 11
7.21892
 21
532.527
  0
LINE
  8
0
 10
7.21892
 20
532.527
 11
7.03647
 21
532.573
  0
LINE
  8
0
 10
7.03647
 20
532.573
 11
6.86133
 21
532.643
  0
LINE
  8
0
 10
6.86133
 20
532.643
 11
6.69626
 21
532.734
  0
LINE
  8
0
 10
6.69626
 20
532.734
 11
6.54385
 21
532.844
  0
LINE
  8
0
 10
6.54385
 20
532.844
 11
6.40654
 21
532.973
  0
LINE
  8
0
 10
6.40654
 20
532.973
 11
6.28647
 21
533.118
  0
LINE
  8
0
 10
6.28647
 20
533.118
 11
6.18553
 21
533.277
  0
LINE
  8
0
 10
6.18553
 20
533.277
 11
6.10533
 21
533.448
  0
LINE
  8
0
 10
6.10533
 20
533.448
 11
6.04712
 21
533.627
  0
LINE
  8
0
 10
6.04712
 20
533.627
 11
6.01183
 21
533.812
  0
LINE
  8
0
 10
6.01183
 20
533.812
 11
6
 21
534
  0
LINE
  8
0
 10
6
 20
534
 11
6.01183
 21
534.188
  0
LINE
  8
0
 10
6.01183
 20
534.188
 11
6.04712
 21
534.373
  0
LINE
  8
0
 10
6.04712
 20
534.373
 11
6.10533
 21
534.552
  0
LINE
  8
0
 10
6.10533
 20
534.552
 11
6.18553
 21
534.723
  0
LINE
  8
0
 10
6.18553
 20
534.723
 11
6.28647
 21
534.882
  0
LINE
  8
0
 10
6.28647
 20
534.882
 11
6.40654
 21
535.027
  0
LINE
  8
0
 10
6.40654
 20
535.027
 11
6.54385
 21
535.156
  0
LINE
  8
0
 10
6.54385
 20
535.156
 11
6.69626
 21
535.266
  0
LINE
  8
0
 10
6.69626
 20
535.266
 11
6.86133
 21
535.357
  0
LINE
  8
0
 10
6.86133
 20
535.357
 11
7.03647
 21
535.427
  0
LINE
  8
0
 10
7.03647
 20
535.427
 11
7.21892
 21
535.473
  0
LINE
  8
0
 10
7.21892
 20
535.473
 11
7.40581
 21
535.497
  0
LINE
  8
0
 10
7.40581
 20
535.497
 11
7.59418
 21
535.497
  0
LINE
  8
0
 10
7.59418
 20
535.497
 11
7.78107
 21
535.473
  0
LINE
  8
0
 10
7.78107
 20
535.473
 11
7.96352
 21
535.427
  0
LINE
  8
0
 10
7.96352
 20
535.427
 11
8.13866
 21
535.357
  0
LINE
  8
0
 10
8.13866
 20
535.357
 11
8.30373
 21
535.266
  0
LINE
  8
0
 10
8.30373
 20
535.266
 11
8.45613
 21
535.156
  0
LINE
  8
0
 10
8.45613
 20
535.156
 11
8.59344
 21
535.027
  0
LINE
  8
0
 10
8.59344
 20
535.027
 11
8.71352
 21
534.882
  0
LINE
  8
0
 10
8.71352
 20
534.882
 11
8.81445
 21
534.723
  0
LINE
  8
0
 10
8.81445
 20
534.723
 11
8.89465
 21
534.552
  0
LINE
  8
0
 10
8.89465
 20
534.552
 11
8.95287
 21
534.373
  0
LINE
  8
0
 10
8.95287
 20
534.373
 11
8.98816
 21
534.188
  0
LINE
  8
0
 10
8.98816
 20
534.188
 11
9
 21
534
  0
LINE
  8
0
 10
9
 20
534
 11
8.98816
 21
533.812
  0
LINE
  8
0
 10
8.98816
 20
533.812
 11
8.95287
 21
533.627
  0
LINE
  8
0
 10
8.95287
 20
533.627
 11
8.89465
 21
533.448
  0
LINE
  8
0
 10
8.89465
 20
533.448
 11
8.81445
 21
533.277
  0
LINE
  8
0
 10
8.81445
 20
533.277
 11
8.71352
 21
533.118
  0
LINE
  8
0
 10
8.71352
 20
533.118
 11
8.59344
 21
532.973
  0
LINE
  8
0
 10
8.59344
 20
532.973
 11
8.45613
 21
532.844
  0
LINE
  8
0
 10
8.45613
 20
532.844
 11
8.30373
 21
532.734
  0
LINE
  8
0
 10
8.30373
 20
532.734
 11
8.13866
 21
532.643
  0
LINE
  8
0
 10
8.13866
 20
532.643
 11
7.96352
 21
532.573
  0
LINE
  8
0
 10
7.96352
 20
532.573
 11
7.78107
 21
532.527
  0
LINE
  8
0
 10
7.78107
 20
532.527
 11
7.59418
 21
532.503
  0
LINE
  8
0
 10
7.59418
 20
532.503
 11
7.40581
 21
532.503
  0
LINE
  8
0
 10
-7.59418
 20
472.503
 11
-7.78107
 21
472.527
  0
LINE
  8
0
 10
-7.78107
 20
472.527
 11
-7.96352
 21
472.573
  0
LINE
  8
0
 10
-7.96352
 20
472.573
 11
-8.13866
 21
472.643
  0
LINE
  8
0
 10
-8.13866
 20
472.643
 11
-8.30373
 21
472.734
  0
LINE
  8
0
 10
-8.30373
 20
472.734
 11
-8.45613
 21
472.844
  0
LINE
  8
0
 10
-8.45613
 20
472.844
 11
-8.59344
 21
472.973
  0
LINE
  8
0
 10
-8.59344
 20
472.973
 11
-8.71352
 21
473.118
  0
LINE
  8
0
 10
-8.71352
 20
473.118
 11
-8.81445
 21
473.277
  0
LINE
  8
0
 10
-8.81445
 20
473.277
 11
-8.89465
 21
473.448
  0
LINE
  8
0
 10
-8.89465
 20
473.448
 11
-8.95287
 21
473.627
  0
LINE
  8
0
 10
-8.95287
 20
473.627
 11
-8.98816
 21
473.812
  0
LINE
  8
0
 10
-8.98816
 20
473.812
 11
-9
 21
474
  0
LINE
  8
0
 10
-9
 20
474
 11
-8.98816
 21
474.188
  0
LINE
  8
0
 10
-8.98816
 20
474.188
 11
-8.95287
 21
474.373
  0
LINE
  8
0
 10
-8.95287
 20
474.373
 11
-8.89465
 21
474.552
  0
LINE
  8
0
 10
-8.89465
 20
474.552
 11
-8.81445
 21
474.723
  0
LINE
  8
0
 10
-8.81445
 20
474.723
 11
-8.71352
 21
474.882
  0
LINE
  8
0
 10
-8.71352
 20
474.882
 11
-8.59344
 21
475.027
  0
LINE
  8
0
 10
-8.59344
 20
475.027
 11
-8.45613
 21
475.156
  0
LINE
  8
0
 10
-8.45613
 20
475.156
 11
-8.30373
 21
475.266
  0
LINE
  8
0
 10
-8.30373
 20
475.266
 11
-8.13866
 21
475.357
  0
LINE
  8
0
 10
-8.13866
 20
475.357
 11
-7.96352
 21
475.427
  0
LINE
  8
0
 10
-7.96352
 20
475.427
 11
-7.78107
 21
475.473
  0
LINE
  8
0
 10
-7.78107
 20
475.473
 11
-7.59418
 21
475.497
  0
LINE
  8
0
 10
-7.59418
 20
475.497
 11
-7.40581
 21
475.497
  0
LINE
  8
0
 10
-7.40581
 20
475.497
 11
-7.21892
 21
475.473
  0
LINE
  8
0
 10
-7.21892
 20
475.473
 11
-7.03647
 21
475.427
  0
LINE
  8
0
 10
-7.03647
 20
475.427
 11
-6.86133
 21
475.357
  0
LINE
  8
0
 10
-6.86133
 20
475.357
 11
-6.69626
 21
475.266
  0
LINE
  8
0
 10
-6.69626
 20
475.266
 11
-6.54385
 21
475.156
  0
LINE
  8
0
 10
-6.54385
 20
475.156
 11
-6.40654
 21
475.027
  0
LINE
  8
0
 10
-6.40654
 20
475.027
 11
-6.28647
 21
474.882
  0
LINE
  8
0
 10
-6.28647
 20
474.882
 11
-6.18553
 21
474.723
  0
LINE
  8
0
 10
-6.18553
 20
474.723
 11
-6.10533
 21
474.552
  0
LINE
  8
0
 10
-6.10533
 20
474.552
 11
-6.04712
 21
474.373
  0
LINE
  8
0
 10
-6.04712
 20
474.373
 11
-6.01183
 21
474.188
  0
LINE
  8
0
 10
-6.01183
 20
474.188
 11
-6
 21
474
  0
LINE
  8
0
 10
-6
 20
474
 11
-6.01183
 21
473.812
  0
LINE
  8
0
 10
-6.01183
 20
473.812
 11
-6.04712
 21
473.627
  0
LINE
  8
0
 10
-6.04712
 20
473.627
 11
-6.10533
 21
473.448
  0
LINE
  8
0
 10
-6.10533
 20
473.448
 11
-6.18553
 21
473.277
  0
LINE
  8
0
 10
-6.18553
 20
473.277
 11
-6.28647
 21
473.118
  0
LINE
  8
0
 10
-6.28647
 20
473.118
 11
-6.40654
 21
472.973
  0
LINE
  8
0
 10
-6.40654
 20
472.973
 11
-6.54385
 21
472.844
  0
LINE
  8
0
 10
-6.54385
 20
472.844
 11
-6.69626
 21
472.734
  0
LINE
  8
0
 10
-6.69626
 20
472.734
 11
-6.86133
 21
472.643
  0
LINE
  8
0
 10
-6.86133
 20
472.643
 11
-7.03647
 21
472.573
  0
LINE
  8
0
 10
-7.03647
 20
472.573
 11
-7.21892
 21
472.527
  0
LINE
  8
0
 10
-7.21892
 20
472.527
 11
-7.40581
 21
472.503
  0
LINE
  8
0
 10
-7.40581
 20
472.503
 11
-7.59418
 21
472.503
  0
LINE
  8
0
 10
10.9369
 20
382.589
 11
11.5451
 21
382.745
  0
LINE
  8
0
 10
11.5451
 20
382.745
 11
12.1289
 21
382.976
  0
LINE
  8
0
 10
12.1289
 20
382.976
 11
12.6791
 21
383.278
  0
LINE
  8
0
 10
12.6791
 20
383.278
 11
13.1871
 21
383.647
  0
LINE
  8
0
 10
13.1871
 20
383.647
 11
13.6448
 21
384.077
  0
LINE
  8
0
 10
13.6448
 20
384.077
 11
14.0451
 21
384.561
  0
LINE
  8
0
 10
14.0451
 20
384.561
 11
14.3815
 21
385.091
  0
LINE
  8
0
 10
14.3815
 20
385.091
 11
14.6489
 21
385.659
  0
LINE
  8
0
 10
14.6489
 20
385.659
 11
14.8429
 21
386.257
  0
LINE
  8
0
 10
14.8429
 20
386.257
 11
14.9606
 21
386.873
  0
LINE
  8
0
 10
14.9606
 20
386.873
 11
15
 21
387.5
  0
LINE
  8
0
 10
15
 20
387.5
 11
15
 21
452.5
  0
LINE
  8
0
 10
15
 20
452.5
 11
14.9606
 21
453.127
  0
LINE
  8
0
 10
14.9606
 20
453.127
 11
14.8429
 21
453.743
  0
LINE
  8
0
 10
14.8429
 20
453.743
 11
14.6489
 21
454.341
  0
LINE
  8
0
 10
14.6489
 20
454.341
 11
14.3815
 21
454.909
  0
LINE
  8
0
 10
14.3815
 20
454.909
 11
14.0451
 21
455.439
  0
LINE
  8
0
 10
14.0451
 20
455.439
 11
13.6448
 21
455.923
  0
LINE
  8
0
 10
13.6448
 20
455.923
 11
13.1871
 21
456.353
  0
LINE
  8
0
 10
13.1871
 20
456.353
 11
12.6791
 21
456.722
  0
LINE
  8
0
 10
12.6791
 20
456.722
 11
12.1289
 21
457.024
  0
LINE
  8
0
 10
12.1289
 20
457.024
 11
11.5451
 21
457.255
  0
LINE
  8
0
 10
11.5451
 20
457.255
 11
10.9369
 21
457.411
  0
LINE
  8
0
 10
10.9369
 20
457.411
 11
10.3139
 21
457.49
  0
LINE
  8
0
 10
10.3139
 20
457.49
 11
-10.3139
 21
457.49
  0
LINE
  8
0
 10
-10.3139
 20
457.49
 11
-10.9369
 21
457.411
  0
LINE
  8
0
 10
-10.9369
 20
457.411
 11
-11.5451
 21
457.255
  0
LINE
  8
0
 10
-11.5451
 20
457.255
 11
-12.1289
 21
457.024
  0
LINE
  8
0
 10
-12.1289
 20
457.024
 11
-12.6791
 21
456.722
  0
LINE
  8
0
 10
-12.6791
 20
456.722
 11
-13.1871
 21
456.353
  0
LINE
  8
0
 10
-13.1871
 20
456.353
 11
-13.6448
 21
455.923
  0
LINE
  8
0
 10
-13.6448
 20
455.923
 11
-14.0451
 21
455.439
  0
LINE
  8
0
 10
-14.0451
 20
455.439
 11
-14.3815
 21
454.909
  0
LINE
  8
0
 10
-14.3815
 20
454.909
 11
-14.6489
 21
454.341
  0
LINE
  8
0
 10
-14.6489
 20
454.341
 11
-14.8429
 21
453.743
  0
LINE
  8
0
 10
-14.8429
 20
453.743
 11
-14.9606
 21
453.127
  0
LINE
  8
0
 10
-14.9606
 20
453.127
 11
-15
 21
452.5
  0
LINE
  8
0
 10
-15
 20
452.5
 11
-15
 21
387.5
  0
LINE
  8
0
 10
-15
 20
387.5
 11
-14.9606
 21
386.873
  0
LINE
  8
0
 10
-14.9606
 20
386.873
 11
-14.8429
 21
386.257
  0
LINE
  8
0
 10
-14.8429
 20
386.257
 11
-14.6489
 21
385.659
  0
LINE
  8
0
 10
-14.6489
 20
385.659
 11
-14.3815
 21
385.091
  0
LINE
  8
0
 10
-14.3815
 20
385.091
 11
-14.0451
 21
384.561
  0
LINE
  8
0
 10
-14.0451
 20
384.561
 11
-13.6448
 21
384.077
  0
LINE
  8
0
 10
-13.6448
 20
384.077
 11
-13.1871
 21
383.647
  0
LINE
  8
0
 10
-13.1871
 20
383.647
 11
-12.6791
 21
383.278
  0
LINE
  8
0
 10
-12.6791
 20
383.278
 11
-12.1289
 21
382.976
  0
LINE
  8
0
 10
-12.1289
 20
382.976
 11
-11.5451
 21
382.745
  0
LINE
  8
0
 10
-11.5451
 20
382.745
 11
-10.9369
 21
382.589
  0
LINE
  8
0
 10
-10.9369
 20
382.589
 11
-10.3139
 21
382.51
  0
LINE
  8
0
 10
-10.3139
 20
382.51
 11
10.3139
 21
382.51
  0
LINE
  8
0
 10
10.3139
 20
382.51
 11
10.9369
 21
382.589
  0
LINE
  8
0
 10
-4.75392
 20
383.04
 11
-4.32086
 21
383.278
  0
LINE
  8
0
 10
-4.32086
 20
383.278
 11
-3.81287
 21
383.647
  0
LINE
  8
0
 10
-3.81287
 20
383.647
 11
-3.35515
 21
384.077
  0
LINE
  8
0
 10
-3.35515
 20
384.077
 11
-2.95491
 21
384.561
  0
LINE
  8
0
 10
-2.95491
 20
384.561
 11
-2.61845
 21
385.091
  0
LINE
  8
0
 10
-2.61845
 20
385.091
 11
-2.3511
 21
385.659
  0
LINE
  8
0
 10
-2.3511
 20
385.659
 11
-2.15707
 21
386.257
  0
LINE
  8
0
 10
-2.15707
 20
386.257
 11
-2.03941
 21
386.873
  0
LINE
  8
0
 10
-2.03941
 20
386.873
 11
-2
 21
387.5
  0
LINE
  8
0
 10
-2
 20
387.5
 11
-2
 21
390.5
  0
LINE
  8
0
 10
-2
 20
390.5
 11
-2.03941
 21
391.127
  0
LINE
  8
0
 10
-2.03941
 20
391.127
 11
-2.15707
 21
391.743
  0
LINE
  8
0
 10
-2.15707
 20
391.743
 11
-2.3511
 21
392.341
  0
LINE
  8
0
 10
-2.3511
 20
392.341
 11
-2.61845
 21
392.909
  0
LINE
  8
0
 10
-2.61845
 20
392.909
 11
-2.95491
 21
393.439
  0
LINE
  8
0
 10
-2.95491
 20
393.439
 11
-3.35515
 21
393.923
  0
LINE
  8
0
 10
-3.35515
 20
393.923
 11
-3.81287
 21
394.353
  0
LINE
  8
0
 10
-3.81287
 20
394.353
 11
-4.32086
 21
394.722
  0
LINE
  8
0
 10
-4.32086
 20
394.722
 11
-4.87109
 21
395.024
  0
LINE
  8
0
 10
-4.87109
 20
395.024
 11
-5.45491
 21
395.255
  0
LINE
  8
0
 10
-5.45491
 20
395.255
 11
-6.06308
 21
395.411
  0
LINE
  8
0
 10
-6.06308
 20
395.411
 11
-6.68604
 21
395.49
  0
LINE
  8
0
 10
-6.68604
 20
395.49
 11
-10.3139
 21
395.49
  0
LINE
  8
0
 10
-10.3139
 20
395.49
 11
-10.9369
 21
395.411
  0
LINE
  8
0
 10
-10.9369
 20
395.411
 11
-11.5451
 21
395.255
  0
LINE
  8
0
 10
-11.5451
 20
395.255
 11
-12.1289
 21
395.024
  0
LINE
  8
0
 10
-12.1289
 20
395.024
 11
-12.6791
 21
394.722
  0
LINE
  8
0
 10
-12.6791
 20
394.722
 11
-13.1871
 21
394.353
  0
LINE
  8
0
 10
-13.1871
 20
394.353
 11
-13.6448
 21
393.923
  0
LINE
  8
0
 10
-13.6448
 20
393.923
 11
-14.0451
 21
393.439
  0
LINE
  8
0
 10
-14.0451
 20
393.439
 11
-14.3815
 21
392.909
  0
LINE
  8
0
 10
-14.3815
 20
392.909
 11
-14.4685
 21
392.724
  0
LINE
  8
0
 10
-14.4685
 20
392.724
 11
-14.4685
 21
452.5
  0
LINE
  8
0
 10
-14.4685
 20
452.5
 11
-14.4333
 21
453.06
  0
LINE
  8
0
 10
-14.4333
 20
453.06
 11
-14.3281
 21
453.611
  0
LINE
  8
0
 10
-14.3281
 20
453.611
 11
-14.1547
 21
454.145
  0
LINE
  8
0
 10
-14.1547
 20
454.145
 11
-13.9158
 21
454.653
  0
LINE
  8
0
 10
-13.9158
 20
454.653
 11
-13.6151
 21
455.127
  0
LINE
  8
0
 10
-13.6151
 20
455.127
 11
-13.2574
 21
455.559
  0
LINE
  8
0
 10
-13.2574
 20
455.559
 11
-12.8483
 21
455.943
  0
LINE
  8
0
 10
-12.8483
 20
455.943
 11
-12.3944
 21
456.273
  0
LINE
  8
0
 10
-12.3944
 20
456.273
 11
-11.9026
 21
456.543
  0
LINE
  8
0
 10
-11.9026
 20
456.543
 11
-11.3808
 21
456.75
  0
LINE
  8
0
 10
-11.3808
 20
456.75
 11
-10.8373
 21
456.889
  0
LINE
  8
0
 10
-10.8373
 20
456.889
 11
-10.2806
 21
456.96
  0
LINE
  8
0
 10
-10.2806
 20
456.96
 11
10.2806
 21
456.96
  0
LINE
  8
0
 10
10.2806
 20
456.96
 11
10.8373
 21
456.889
  0
LINE
  8
0
 10
10.8373
 20
456.889
 11
11.3808
 21
456.75
  0
LINE
  8
0
 10
11.3808
 20
456.75
 11
11.9026
 21
456.543
  0
LINE
  8
0
 10
11.9026
 20
456.543
 11
12.3944
 21
456.273
  0
LINE
  8
0
 10
12.3944
 20
456.273
 11
12.8483
 21
455.943
  0
LINE
  8
0
 10
12.8483
 20
455.943
 11
13.2574
 21
455.559
  0
LINE
  8
0
 10
13.2574
 20
455.559
 11
13.6151
 21
455.127
  0
LINE
  8
0
 10
13.6151
 20
455.127
 11
13.9158
 21
454.653
  0
LINE
  8
0
 10
13.9158
 20
454.653
 11
14.1547
 21
454.145
  0
LINE
  8
0
 10
14.1547
 20
454.145
 11
14.3281
 21
453.611
  0
LINE
  8
0
 10
14.3281
 20
453.611
 11
14.4333
 21
453.06
  0
LINE
  8
0
 10
14.4333
 20
453.06
 11
14.4685
 21
452.5
  0
LINE
  8
0
 10
14.4685
 20
452.5
 11
14.4685
 21
387.5
  0
LINE
  8
0
 10
14.4685
 20
387.5
 11
14.4333
 21
386.94
  0
LINE
  8
0
 10
14.4333
 20
386.94
 11
14.3281
 21
386.389
  0
LINE
  8
0
 10
14.3281
 20
386.389
 11
14.1547
 21
385.855
  0
LINE
  8
0
 10
14.1547
 20
385.855
 11
13.9158
 21
385.347
  0
LINE
  8
0
 10
13.9158
 20
385.347
 11
13.6151
 21
384.873
  0
LINE
  8
0
 10
13.6151
 20
384.873
 11
13.2574
 21
384.441
  0
LINE
  8
0
 10
13.2574
 20
384.441
 11
12.8483
 21
384.057
  0
LINE
  8
0
 10
12.8483
 20
384.057
 11
12.3944
 21
383.727
  0
LINE
  8
0
 10
12.3944
 20
383.727
 11
11.9026
 21
383.457
  0
LINE
  8
0
 10
11.9026
 20
383.457
 11
11.3808
 21
383.25
  0
LINE
  8
0
 10
11.3808
 20
383.25
 11
10.8373
 21
383.111
  0
LINE
  8
0
 10
10.8373
 20
383.111
 11
10.2806
 21
383.04
  0
LINE
  8
0
 10
10.2806
 20
383.04
 11
-4.75392
 21
383.04
  0
LINE
  8
0
 10
7.96844
 20
447.544
 11
8.27254
 21
447.622
  0
LINE
  8
0
 10
8.27254
 20
447.622
 11
8.56444
 21
447.738
  0
LINE
  8
0
 10
8.56444
 20
447.738
 11
8.83955
 21
447.889
  0
LINE
  8
0
 10
8.83955
 20
447.889
 11
9.09355
 21
448.074
  0
LINE
  8
0
 10
9.09355
 20
448.074
 11
9.32242
 21
448.289
  0
LINE
  8
0
 10
9.32242
 20
448.289
 11
9.52254
 21
448.531
  0
LINE
  8
0
 10
9.52254
 20
448.531
 11
9.69077
 21
448.796
  0
LINE
  8
0
 10
9.69077
 20
448.796
 11
9.82443
 21
449.08
  0
LINE
  8
0
 10
9.82443
 20
449.08
 11
9.92145
 21
449.378
  0
LINE
  8
0
 10
9.92145
 20
449.378
 11
9.98029
 21
449.687
  0
LINE
  8
0
 10
9.98029
 20
449.687
 11
10
 21
450
  0
LINE
  8
0
 10
10
 20
450
 11
9.98029
 21
450.313
  0
LINE
  8
0
 10
9.98029
 20
450.313
 11
9.92145
 21
450.622
  0
LINE
  8
0
 10
9.92145
 20
450.622
 11
9.82443
 21
450.92
  0
LINE
  8
0
 10
9.82443
 20
450.92
 11
9.69077
 21
451.204
  0
LINE
  8
0
 10
9.69077
 20
451.204
 11
9.52254
 21
451.469
  0
LINE
  8
0
 10
9.52254
 20
451.469
 11
9.32242
 21
451.711
  0
LINE
  8
0
 10
9.32242
 20
451.711
 11
9.09355
 21
451.926
  0
LINE
  8
0
 10
9.09355
 20
451.926
 11
8.83955
 21
452.111
  0
LINE
  8
0
 10
8.83955
 20
452.111
 11
8.56444
 21
452.262
  0
LINE
  8
0
 10
8.56444
 20
452.262
 11
8.27254
 21
452.378
  0
LINE
  8
0
 10
8.27254
 20
452.378
 11
7.96844
 21
452.456
  0
LINE
  8
0
 10
7.96844
 20
452.456
 11
7.65697
 21
452.495
  0
LINE
  8
0
 10
7.65697
 20
452.495
 11
7.34302
 21
452.495
  0
LINE
  8
0
 10
7.34302
 20
452.495
 11
7.03154
 21
452.456
  0
LINE
  8
0
 10
7.03154
 20
452.456
 11
6.72745
 21
452.378
  0
LINE
  8
0
 10
6.72745
 20
452.378
 11
6.43555
 21
452.262
  0
LINE
  8
0
 10
6.43555
 20
452.262
 11
6.16043
 21
452.111
  0
LINE
  8
0
 10
6.16043
 20
452.111
 11
5.90643
 21
451.926
  0
LINE
  8
0
 10
5.90643
 20
451.926
 11
5.67757
 21
451.711
  0
LINE
  8
0
 10
5.67757
 20
451.711
 11
5.47745
 21
451.469
  0
LINE
  8
0
 10
5.47745
 20
451.469
 11
5.30922
 21
451.204
  0
LINE
  8
0
 10
5.30922
 20
451.204
 11
5.17555
 21
450.92
  0
LINE
  8
0
 10
5.17555
 20
450.92
 11
5.07854
 21
450.622
  0
LINE
  8
0
 10
5.07854
 20
450.622
 11
5.0197
 21
450.313
  0
LINE
  8
0
 10
5.0197
 20
450.313
 11
5
 21
450
  0
LINE
  8
0
 10
5
 20
450
 11
5.0197
 21
449.687
  0
LINE
  8
0
 10
5.0197
 20
449.687
 11
5.07854
 21
449.378
  0
LINE
  8
0
 10
5.07854
 20
449.378
 11
5.17555
 21
449.08
  0
LINE
  8
0
 10
5.17555
 20
449.08
 11
5.30922
 21
448.796
  0
LINE
  8
0
 10
5.30922
 20
448.796
 11
5.47745
 21
448.531
  0
LINE
  8
0
 10
5.47745
 20
448.531
 11
5.67757
 21
448.289
  0
LINE
  8
0
 10
5.67757
 20
448.289
 11
5.90643
 21
448.074
  0
LINE
  8
0
 10
5.90643
 20
448.074
 11
6.16043
 21
447.889
  0
LINE
  8
0
 10
6.16043
 20
447.889
 11
6.43555
 21
447.738
  0
LINE
  8
0
 10
6.43555
 20
447.738
 11
6.72745
 21
447.622
  0
LINE
  8
0
 10
6.72745
 20
447.622
 11
7.03154
 21
447.544
  0
LINE
  8
0
 10
7.03154
 20
447.544
 11
7.34302
 21
447.505
  0
LINE
  8
0
 10
7.34302
 20
447.505
 11
7.65697
 21
447.505
  0
LINE
  8
0
 10
7.65697
 20
447.505
 11
7.96844
 21
447.544
  0
LINE
  8
0
 10
7.40581
 20
448.503
 11
7.21892
 21
448.527
  0
LINE
  8
0
 10
7.21892
 20
448.527
 11
7.03647
 21
448.573
  0
LINE
  8
0
 10
7.03647
 20
448.573
 11
6.86133
 21
448.643
  0
LINE
  8
0
 10
6.86133
 20
448.643
 11
6.69626
 21
448.734
  0
LINE
  8
0
 10
6.69626
 20
448.734
 11
6.54385
 21
448.844
  0
LINE
  8
0
 10
6.54385
 20
448.844
 11
6.40654
 21
448.973
  0
LINE
  8
0
 10
6.40654
 20
448.973
 11
6.28647
 21
449.118
  0
LINE
  8
0
 10
6.28647
 20
449.118
 11
6.18553
 21
449.277
  0
LINE
  8
0
 10
6.18553
 20
449.277
 11
6.10533
 21
449.448
  0
LINE
  8
0
 10
6.10533
 20
449.448
 11
6.04712
 21
449.627
  0
LINE
  8
0
 10
6.04712
 20
449.627
 11
6.01183
 21
449.812
  0
LINE
  8
0
 10
6.01183
 20
449.812
 11
6
 21
450
  0
LINE
  8
0
 10
6
 20
450
 11
6.01183
 21
450.188
  0
LINE
  8
0
 10
6.01183
 20
450.188
 11
6.04712
 21
450.373
  0
LINE
  8
0
 10
6.04712
 20
450.373
 11
6.10533
 21
450.552
  0
LINE
  8
0
 10
6.10533
 20
450.552
 11
6.18553
 21
450.723
  0
LINE
  8
0
 10
6.18553
 20
450.723
 11
6.28647
 21
450.882
  0
LINE
  8
0
 10
6.28647
 20
450.882
 11
6.40654
 21
451.027
  0
LINE
  8
0
 10
6.40654
 20
451.027
 11
6.54385
 21
451.156
  0
LINE
  8
0
 10
6.54385
 20
451.156
 11
6.69626
 21
451.266
  0
LINE
  8
0
 10
6.69626
 20
451.266
 11
6.86133
 21
451.357
  0
LINE
  8
0
 10
6.86133
 20
451.357
 11
7.03647
 21
451.427
  0
LINE
  8
0
 10
7.03647
 20
451.427
 11
7.21892
 21
451.473
  0
LINE
  8
0
 10
7.21892
 20
451.473
 11
7.40581
 21
451.497
  0
LINE
  8
0
 10
7.40581
 20
451.497
 11
7.59418
 21
451.497
  0
LINE
  8
0
 10
7.59418
 20
451.497
 11
7.78107
 21
451.473
  0
LINE
  8
0
 10
7.78107
 20
451.473
 11
7.96352
 21
451.427
  0
LINE
  8
0
 10
7.96352
 20
451.427
 11
8.13866
 21
451.357
  0
LINE
  8
0
 10
8.13866
 20
451.357
 11
8.30373
 21
451.266
  0
LINE
  8
0
 10
8.30373
 20
451.266
 11
8.45613
 21
451.156
  0
LINE
  8
0
 10
8.45613
 20
451.156
 11
8.59344
 21
451.027
  0
LINE
  8
0
 10
8.59344
 20
451.027
 11
8.71352
 21
450.882
  0
LINE
  8
0
 10
8.71352
 20
450.882
 11
8.81445
 21
450.723
  0
LINE
  8
0
 10
8.81445
 20
450.723
 11
8.89465
 21
450.552
  0
LINE
  8
0
 10
8.89465
 20
450.552
 11
8.95287
 21
450.373
  0
LINE
  8
0
 10
8.95287
 20
450.373
 11
8.98816
 21
450.188
  0
LINE
  8
0
 10
8.98816
 20
450.188
 11
9
 21
450
  0
LINE
  8
0
 10
9
 20
450
 11
8.98816
 21
449.812
  0
LINE
  8
0
 10
8.98816
 20
449.812
 11
8.95287
 21
449.627
  0
LINE
  8
0
 10
8.95287
 20
449.627
 11
8.89465
 21
449.448
  0
LINE
  8
0
 10
8.89465
 20
449.448
 11
8.81445
 21
449.277
  0
LINE
  8
0
 10
8.81445
 20
449.277
 11
8.71352
 21
449.118
  0
LINE
  8
0
 10
8.71352
 20
449.118
 11
8.59344
 21
448.973
  0
LINE
  8
0
 10
8.59344
 20
448.973
 11
8.45613
 21
448.844
  0
LINE
  8
0
 10
8.45613
 20
448.844
 11
8.30373
 21
448.734
  0
LINE
  8
0
 10
8.30373
 20
448.734
 11
8.13866
 21
448.643
  0
LINE
  8
0
 10
8.13866
 20
448.643
 11
7.96352
 21
448.573
  0
LINE
  8
0
 10
7.96352
 20
448.573
 11
7.78107
 21
448.527
  0
LINE
  8
0
 10
7.78107
 20
448.527
 11
7.59418
 21
448.503
  0
LINE
  8
0
 10
7.59418
 20
448.503
 11
7.40581
 21
448.503
  0
LINE
  8
0
 10
-7.59418
 20
388.503
 11
-7.78107
 21
388.527
  0
LINE
  8
0
 10
-7.78107
 20
388.527
 11
-7.96352
 21
388.573
  0
LINE
  8
0
 10
-7.96352
 20
388.573
 11
-8.13866
 21
388.643
  0
LINE
  8
0
 10
-8.13866
 20
388.643
 11
-8.30373
 21
388.734
  0
LINE
  8
0
 10
-8.30373
 20
388.734
 11
-8.45613
 21
388.844
  0
LINE
  8
0
 10
-8.45613
 20
388.844
 11
-8.59344
 21
388.973
  0
LINE
  8
0
 10
-8.59344
 20
388.973
 11
-8.71352
 21
389.118
  0
LINE
  8
0
 10
-8.71352
 20
389.118
 11
-8.81445
 21
389.277
  0
LINE
  8
0
 10
-8.81445
 20
389.277
 11
-8.89465
 21
389.448
  0
LINE
  8
0
 10
-8.89465
 20
389.448
 11
-8.95287
 21
389.627
  0
LINE
  8
0
 10
-8.95287
 20
389.627
 11
-8.98816
 21
389.812
  0
LINE
  8
0
 10
-8.98816
 20
389.812
 11
-9
 21
390
  0
LINE
  8
0
 10
-9
 20
390
 11
-8.98816
 21
390.188
  0
LINE
  8
0
 10
-8.98816
 20
390.188
 11
-8.95287
 21
390.373
  0
LINE
  8
0
 10
-8.95287
 20
390.373
 11
-8.89465
 21
390.552
  0
LINE
  8
0
 10
-8.89465
 20
390.552
 11
-8.81445
 21
390.723
  0
LINE
  8
0
 10
-8.81445
 20
390.723
 11
-8.71352
 21
390.882
  0
LINE
  8
0
 10
-8.71352
 20
390.882
 11
-8.59344
 21
391.027
  0
LINE
  8
0
 10
-8.59344
 20
391.027
 11
-8.45613
 21
391.156
  0
LINE
  8
0
 10
-8.45613
 20
391.156
 11
-8.30373
 21
391.266
  0
LINE
  8
0
 10
-8.30373
 20
391.266
 11
-8.13866
 21
391.357
  0
LINE
  8
0
 10
-8.13866
 20
391.357
 11
-7.96352
 21
391.427
  0
LINE
  8
0
 10
-7.96352
 20
391.427
 11
-7.78107
 21
391.473
  0
LINE
  8
0
 10
-7.78107
 20
391.473
 11
-7.59418
 21
391.497
  0
LINE
  8
0
 10
-7.59418
 20
391.497
 11
-7.40581
 21
391.497
  0
LINE
  8
0
 10
-7.40581
 20
391.497
 11
-7.21892
 21
391.473
  0
LINE
  8
0
 10
-7.21892
 20
391.473
 11
-7.03647
 21
391.427
  0
LINE
  8
0
 10
-7.03647
 20
391.427
 11
-6.86133
 21
391.357
  0
LINE
  8
0
 10
-6.86133
 20
391.357
 11
-6.69626
 21
391.266
  0
LINE
  8
0
 10
-6.69626
 20
391.266
 11
-6.54385
 21
391.156
  0
LINE
  8
0
 10
-6.54385
 20
391.156
 11
-6.40654
 21
391.027
  0
LINE
  8
0
 10
-6.40654
 20
391.027
 11
-6.28647
 21
390.882
  0
LINE
  8
0
 10
-6.28647
 20
390.882
 11
-6.18553
 21
390.723
  0
LINE
  8
0
 10
-6.18553
 20
390.723
 11
-6.10533
 21
390.552
  0
LINE
  8
0
 10
-6.10533
 20
390.552
 11
-6.04712
 21
390.373
  0
LINE
  8
0
 10
-6.04712
 20
390.373
 11
-6.01183
 21
390.188
  0
LINE
  8
0
 10
-6.01183
 20
390.188
 11
-6
 21
390
  0
LINE
  8
0
 10
-6
 20
390
 11
-6.01183
 21
389.812
  0
LINE
  8
0
 10
-6.01183
 20
389.812
 11
-6.04712
 21
389.627
  0
LINE
  8
0
 10
-6.04712
 20
389.627
 11
-6.10533
 21
389.448
  0
LINE
  8
0
 10
-6.10533
 20
389.448
 11
-6.18553
 21
389.277
  0
LINE
  8
0
 10
-6.18553
 20
389.277
 11
-6.28647
 21
389.118
  0
LINE
  8
0
 10
-6.28647
 20
389.118
 11
-6.40654
 21
388.973
  0
LINE
  8
0
 10
-6.40654
 20
388.973
 11
-6.54385
 21
388.844
  0
LINE
  8
0
 10
-6.54385
 20
388.844
 11
-6.69626
 21
388.734
  0
LINE
  8
0
 10
-6.69626
 20
388.734
 11
-6.86133
 21
388.643
  0
LINE
  8
0
 10
-6.86133
 20
388.643
 11
-7.03647
 21
388.573
  0
LINE
  8
0
 10
-7.03647
 20
388.573
 11
-7.21892
 21
388.527
  0
LINE
  8
0
 10
-7.21892
 20
388.527
 11
-7.40581
 21
388.503
  0
LINE
  8
0
 10
-7.40581
 20
388.503
 11
-7.59418
 21
388.503
  0
LINE
  8
0
 10
10.9369
 20
298.589
 11
11.5451
 21
298.745
  0
LINE
  8
0
 10
11.5451
 20
298.745
 11
12.1289
 21
298.976
  0
LINE
  8
0
 10
12.1289
 20
298.976
 11
12.6791
 21
299.278
  0
LINE
  8
0
 10
12.6791
 20
299.278
 11
13.1871
 21
299.647
  0
LINE
  8
0
 10
13.1871
 20
299.647
 11
13.6448
 21
300.077
  0
LINE
  8
0
 10
13.6448
 20
300.077
 11
14.0451
 21
300.561
  0
LINE
  8
0
 10
14.0451
 20
300.561
 11
14.3815
 21
301.091
  0
LINE
  8
0
 10
14.3815
 20
301.091
 11
14.6489
 21
301.659
  0
LINE
  8
0
 10
14.6489
 20
301.659
 11
14.8429
 21
302.257
  0
LINE
  8
0
 10
14.8429
 20
302.257
 11
14.9606
 21
302.873
  0
LINE
  8
0
 10
14.9606
 20
302.873
 11
15
 21
303.5
  0
LINE
  8
0
 10
15
 20
303.5
 11
15
 21
368.5
  0
LINE
  8
0
 10
15
 20
368.5
 11
14.9606
 21
369.127
  0
LINE
  8
0
 10
14.9606
 20
369.127
 11
14.8429
 21
369.743
  0
LINE
  8
0
 10
14.8429
 20
369.743
 11
14.6489
 21
370.341
  0
LINE
  8
0
 10
14.6489
 20
370.341
 11
14.3815
 21
370.909
  0
LINE
  8
0
 10
14.3815
 20
370.909
 11
14.0451
 21
371.439
  0
LINE
  8
0
 10
14.0451
 20
371.439
 11
13.6448
 21
371.923
  0
LINE
  8
0
 10
13.6448
 20
371.923
 11
13.1871
 21
372.353
  0
LINE
  8
0
 10
13.1871
 20
372.353
 11
12.6791
 21
372.722
  0
LINE
  8
0
 10
12.6791
 20
372.722
 11
12.1289
 21
373.024
  0
LINE
  8
0
 10
12.1289
 20
373.024
 11
11.5451
 21
373.255
  0
LINE
  8
0
 10
11.5451
 20
373.255
 11
10.9369
 21
373.411
  0
LINE
  8
0
 10
10.9369
 20
373.411
 11
10.3139
 21
373.49
  0
LINE
  8
0
 10
10.3139
 20
373.49
 11
-10.3139
 21
373.49
  0
LINE
  8
0
 10
-10.3139
 20
373.49
 11
-10.9369
 21
373.411
  0
LINE
  8
0
 10
-10.9369
 20
373.411
 11
-11.5451
 21
373.255
  0
LINE
  8
0
 10
-11.5451
 20
373.255
 11
-12.1289
 21
373.024
  0
LINE
  8
0
 10
-12.1289
 20
373.024
 11
-12.6791
 21
372.722
  0
LINE
  8
0
 10
-12.6791
 20
372.722
 11
-13.1871
 21
372.353
  0
LINE
  8
0
 10
-13.1871
 20
372.353
 11
-13.6448
 21
371.923
  0
LINE
  8
0
 10
-13.6448
 20
371.923
 11
-14.0451
 21
371.439
  0
LINE
  8
0
 10
-14.0451
 20
371.439
 11
-14.3815
 21
370.909
  0
LINE
  8
0
 10
-14.3815
 20
370.909
 11
-14.6489
 21
370.341
  0
LINE
  8
0
 10
-14.6489
 20
370.341
 11
-14.8429
 21
369.743
  0
LINE
  8
0
 10
-14.8429
 20
369.743
 11
-14.9606
 21
369.127
  0
LINE
  8
0
 10
-14.9606
 20
369.127
 11
-15
 21
368.5
  0
LINE
  8
0
 10
-15
 20
368.5
 11
-15
 21
303.5
  0
LINE
  8
0
 10
-15
 20
303.5
 11
-14.9606
 21
302.873
  0
LINE
  8
0
 10
-14.9606
 20
302.873
 11
-14.8429
 21
302.257
  0
LINE
  8
0
 10
-14.8429
 20
302.257
 11
-14.6489
 21
301.659
  0
LINE
  8
0
 10
-14.6489
 20
301.659
 11
-14.3815
 21
301.091
  0
LINE
  8
0
 10
-14.3815
 20
301.091
 11
-14.0451
 21
300.561
  0
LINE
  8
0
 10
-14.0451
 20
300.561
 11
-13.6448
 21
300.077
  0
LINE
  8
0
 10
-13.6448
 20
300.077
 11
-13.1871
 21
299.647
  0
LINE
  8
0
 10
-13.1871
 20
299.647
 11
-12.6791
 21
299.278
  0
LINE
  8
0
 10
-12.6791
 20
299.278
 11
-12.1289
 21
298.976
  0
LINE
  8
0
 10
-12.1289
 20
298.976
 11
-11.5451
 21
298.745
  0
LINE
  8
0
 10
-11.5451
 20
298.745
 11
-10.9369
 21
298.589
  0
LINE
  8
0
 10
-10.9369
 20
298.589
 11
-10.3139
 21
298.51
  0
LINE
  8
0
 10
-10.3139
 20
298.51
 11
10.3139
 21
298.51
  0
LINE
  8
0
 10
10.3139
 20
298.51
 11
10.9369
 21
298.589
  0
LINE
  8
0
 10
-2.87805
 20
300.682
 11
-2.61845
 21
301.091
  0
LINE
  8
0
 10
-2.61845
 20
301.091
 11
-2.3511
 21
301.659
  0
LINE
  8
0
 10
-2.3511
 20
301.659
 11
-2.15707
 21
302.257
  0
LINE
  8
0
 10
-2.15707
 20
302.257
 11
-2.03941
 21
302.873
  0
LINE
  8
0
 10
-2.03941
 20
302.873
 11
-2
 21
303.5
  0
LINE
  8
0
 10
-2
 20
303.5
 11
-2
 21
306.5
  0
LINE
  8
0
 10
-2
 20
306.5
 11
-2.03941
 21
307.127
  0
LINE
  8
0
 10
-2.03941
 20
307.127
 11
-2.15707
 21
307.743
  0
LINE
  8
0
 10
-2.15707
 20
307.743
 11
-2.3511
 21
308.341
  0
LINE
  8
0
 10
-2.3511
 20
308.341
 11
-2.61845
 21
308.909
  0
LINE
  8
0
 10
-2.61845
 20
308.909
 11
-2.95491
 21
309.439
  0
LINE
  8
0
 10
-2.95491
 20
309.439
 11
-3.35515
 21
309.923
  0
LINE
  8
0
 10
-3.35515
 20
309.923
 11
-3.81287
 21
310.353
  0
LINE
  8
0
 10
-3.81287
 20
310.353
 11
-4.32086
 21
310.722
  0
LINE
  8
0
 10
-4.32086
 20
310.722
 11
-4.87109
 21
311.024
  0
LINE
  8
0
 10
-4.87109
 20
311.024
 11
-5.45491
 21
311.255
  0
LINE
  8
0
 10
-5.45491
 20
311.255
 11
-6.06308
 21
311.411
  0
LINE
  8
0
 10
-6.06308
 20
311.411
 11
-6.68604
 21
311.49
  0
LINE
  8
0
 10
-6.68604
 20
311.49
 11
-10.3139
 21
311.49
  0
LINE
  8
0
 10
-10.3139
 20
311.49
 11
-10.9369
 21
311.411
  0
LINE
  8
0
 10
-10.9369
 20
311.411
 11
-11.5451
 21
311.255
  0
LINE
  8
0
 10
-11.5451
 20
311.255
 11
-12.1289
 21
311.024
  0
LINE
  8
0
 10
-12.1289
 20
311.024
 11
-12.6791
 21
310.722
  0
LINE
  8
0
 10
-12.6791
 20
310.722
 11
-12.8234
 21
310.617
  0
LINE
  8
0
 10
-12.8234
 20
310.617
 11
-12.8234
 21
368.5
  0
LINE
  8
0
 10
-12.8234
 20
368.5
 11
-12.8011
 21
368.854
  0
LINE
  8
0
 10
-12.8011
 20
368.854
 11
-12.7347
 21
369.202
  0
LINE
  8
0
 10
-12.7347
 20
369.202
 11
-12.6251
 21
369.539
  0
LINE
  8
0
 10
-12.6251
 20
369.539
 11
-12.4742
 21
369.86
  0
LINE
  8
0
 10
-12.4742
 20
369.86
 11
-12.2842
 21
370.16
  0
LINE
  8
0
 10
-12.2842
 20
370.16
 11
-12.0582
 21
370.433
  0
LINE
  8
0
 10
-12.0582
 20
370.433
 11
-11.7997
 21
370.675
  0
LINE
  8
0
 10
-11.7997
 20
370.675
 11
-11.5128
 21
370.884
  0
LINE
  8
0
 10
-11.5128
 20
370.884
 11
-11.2021
 21
371.055
  0
LINE
  8
0
 10
-11.2021
 20
371.055
 11
-10.8725
 21
371.185
  0
LINE
  8
0
 10
-10.8725
 20
371.185
 11
-10.5291
 21
371.273
  0
LINE
  8
0
 10
-10.5291
 20
371.273
 11
-10.1773
 21
371.318
  0
LINE
  8
0
 10
-10.1773
 20
371.318
 11
2.87805
 21
371.318
  0
LINE
  8
0
 10
2.87805
 20
371.318
 11
2.61845
 21
370.909
  0
LINE
  8
0
 10
2.61845
 20
370.909
 11
2.3511
 21
370.341
  0
LINE
  8
0
 10
2.3511
 20
370.341
 11
2.15707
 21
369.743
  0
LINE
  8
0
 10
2.15707
 20
369.743
 11
2.03941
 21
369.127
  0
LINE
  8
0
 10
2.03941
 20
369.127
 11
2
 21
368.5
  0
LINE
  8
0
 10
2
 20
368.5
 11
2
 21
365.5
  0
LINE
  8
0
 10
2
 20
365.5
 11
2.03941
 21
364.873
  0
LINE
  8
0
 10
2.03941
 20
364.873
 11
2.15707
 21
364.257
  0
LINE
  8
0
 10
2.15707
 20
364.257
 11
2.3511
 21
363.659
  0
LINE
  8
0
 10
2.3511
 20
363.659
 11
2.61845
 21
363.091
  0
LINE
  8
0
 10
2.61845
 20
363.091
 11
2.95491
 21
362.561
  0
LINE
  8
0
 10
2.95491
 20
362.561
 11
3.35515
 21
362.077
  0
LINE
  8
0
 10
3.35515
 20
362.077
 11
3.81287
 21
361.647
  0
LINE
  8
0
 10
3.81287
 20
361.647
 11
4.32086
 21
361.278
  0
LINE
  8
0
 10
4.32086
 20
361.278
 11
4.87109
 21
360.976
  0
LINE
  8
0
 10
4.87109
 20
360.976
 11
5.45491
 21
360.745
  0
LINE
  8
0
 10
5.45491
 20
360.745
 11
6.06308
 21
360.589
  0
LINE
  8
0
 10
6.06308
 20
360.589
 11
6.68604
 21
360.51
  0
LINE
  8
0
 10
6.68604
 20
360.51
 11
10.3139
 21
360.51
  0
LINE
  8
0
 10
10.3139
 20
360.51
 11
10.9369
 21
360.589
  0
LINE
  8
0
 10
10.9369
 20
360.589
 11
11.5451
 21
360.745
  0
LINE
  8
0
 10
11.5451
 20
360.745
 11
12.1289
 21
360.976
  0
LINE
  8
0
 10
12.1289
 20
360.976
 11
12.6791
 21
361.278
  0
LINE
  8
0
 10
12.6791
 20
361.278
 11
12.8234
 21
361.383
  0
LINE
  8
0
 10
12.8234
 20
361.383
 11
12.8234
 21
303.5
  0
LINE
  8
0
 10
12.8234
 20
303.5
 11
12.8011
 21
303.146
  0
LINE
  8
0
 10
12.8011
 20
303.146
 11
12.7347
 21
302.798
  0
LINE
  8
0
 10
12.7347
 20
302.798
 11
12.6251
 21
302.461
  0
LINE
  8
0
 10
12.6251
 20
302.461
 11
12.4742
 21
302.14
  0
LINE
  8
0
 10
12.4742
 20
302.14
 11
12.2842
 21
301.84
  0
LINE
  8
0
 10
12.2842
 20
301.84
 11
12.0582
 21
301.567
  0
LINE
  8
0
 10
12.0582
 20
301.567
 11
11.7997
 21
301.325
  0
LINE
  8
0
 10
11.7997
 20
301.325
 11
11.5128
 21
301.116
  0
LINE
  8
0
 10
11.5128
 20
301.116
 11
11.2021
 21
300.945
  0
LINE
  8
0
 10
11.2021
 20
300.945
 11
10.8725
 21
300.815
  0
LINE
  8
0
 10
10.8725
 20
300.815
 11
10.5291
 21
300.727
  0
LINE
  8
0
 10
10.5291
 20
300.727
 11
10.1773
 21
300.682
  0
LINE
  8
0
 10
10.1773
 20
300.682
 11
-2.87805
 21
300.682
  0
LINE
  8
0
 10
7.34929
 20
363.605
 11
7.05028
 21
363.643
  0
LINE
  8
0
 10
7.05028
 20
363.643
 11
6.75835
 21
363.717
  0
LINE
  8
0
 10
6.75835
 20
363.717
 11
6.47812
 21
363.828
  0
LINE
  8
0
 10
6.47812
 20
363.828
 11
6.214
 21
363.974
  0
LINE
  8
0
 10
6.214
 20
363.974
 11
5.97017
 21
364.151
  0
LINE
  8
0
 10
5.97017
 20
364.151
 11
5.75047
 21
364.357
  0
LINE
  8
0
 10
5.75047
 20
364.357
 11
5.55835
 21
364.589
  0
LINE
  8
0
 10
5.55835
 20
364.589
 11
5.39685
 21
364.844
  0
LINE
  8
0
 10
5.39685
 20
364.844
 11
5.26852
 21
365.117
  0
LINE
  8
0
 10
5.26852
 20
365.117
 11
5.1754
 21
365.403
  0
LINE
  8
0
 10
5.1754
 20
365.403
 11
5.11891
 21
365.699
  0
LINE
  8
0
 10
5.11891
 20
365.699
 11
5.09999
 21
366
  0
LINE
  8
0
 10
5.09999
 20
366
 11
5.11891
 21
366.301
  0
LINE
  8
0
 10
5.11891
 20
366.301
 11
5.1754
 21
366.597
  0
LINE
  8
0
 10
5.1754
 20
366.597
 11
5.26852
 21
366.883
  0
LINE
  8
0
 10
5.26852
 20
366.883
 11
5.39685
 21
367.156
  0
LINE
  8
0
 10
5.39685
 20
367.156
 11
5.55835
 21
367.411
  0
LINE
  8
0
 10
5.55835
 20
367.411
 11
5.75047
 21
367.643
  0
LINE
  8
0
 10
5.75047
 20
367.643
 11
5.97017
 21
367.849
  0
LINE
  8
0
 10
5.97017
 20
367.849
 11
6.214
 21
368.026
  0
LINE
  8
0
 10
6.214
 20
368.026
 11
6.47812
 21
368.172
  0
LINE
  8
0
 10
6.47812
 20
368.172
 11
6.75835
 21
368.283
  0
LINE
  8
0
 10
6.75835
 20
368.283
 11
7.05028
 21
368.357
  0
LINE
  8
0
 10
7.05028
 20
368.357
 11
7.34929
 21
368.395
  0
LINE
  8
0
 10
7.34929
 20
368.395
 11
7.6507
 21
368.395
  0
LINE
  8
0
 10
7.6507
 20
368.395
 11
7.94971
 21
368.357
  0
LINE
  8
0
 10
7.94971
 20
368.357
 11
8.24164
 21
368.283
  0
LINE
  8
0
 10
8.24164
 20
368.283
 11
8.52187
 21
368.172
  0
LINE
  8
0
 10
8.52187
 20
368.172
 11
8.78598
 21
368.026
  0
LINE
  8
0
 10
8.78598
 20
368.026
 11
9.02982
 21
367.849
  0
LINE
  8
0
 10
9.02982
 20
367.849
 11
9.24951
 21
367.643
  0
LINE
  8
0
 10
9.24951
 20
367.643
 11
9.44164
 21
367.411
  0
LINE
  8
0
 10
9.44164
 20
367.411
 11
9.60313
 21
367.156
  0
LINE
  8
0
 10
9.60313
 20
367.156
 11
9.73146
 21
366.883
  0
LINE
  8
0
 10
9.73146
 20
366.883
 11
9.82458
 21
366.597
  0
LINE
  8
0
 10
9.82458
 20
366.597
 11
9.88107
 21
366.301
  0
LINE
  8
0
 10
9.88107
 20
366.301
 11
9.89999
 21
366
  0
LINE
  8
0
 10
9.89999
 20
366
 11
9.88107
 21
365.699
  0
LINE
  8
0
 10
9.88107
 20
365.699
 11
9.82458
 21
365.403
  0
LINE
  8
0
 10
9.82458
 20
365.403
 11
9.73146
 21
365.117
  0
LINE
  8
0
 10
9.73146
 20
365.117
 11
9.60313
 21
364.844
  0
LINE
  8
0
 10
9.60313
 20
364.844
 11
9.44164
 21
364.589
  0
LINE
  8
0
 10
9.44164
 20
364.589
 11
9.24951
 21
364.357
  0
LINE
  8
0
 10
9.24951
 20
364.357
 11
9.02982
 21
364.151
  0
LINE
  8
0
 10
9.02982
 20
364.151
 11
8.78598
 21
363.974
  0
LINE
  8
0
 10
8.78598
 20
363.974
 11
8.52187
 21
363.828
  0
LINE
  8
0
 10
8.52187
 20
363.828
 11
8.24164
 21
363.717
  0
LINE
  8
0
 10
8.24164
 20
363.717
 11
7.94971
 21
363.643
  0
LINE
  8
0
 10
7.94971
 20
363.643
 11
7.6507
 21
363.605
  0
LINE
  8
0
 10
7.6507
 20
363.605
 11
7.34929
 21
363.605
  0
LINE
  8
0
 10
-7.6507
 20
303.605
 11
-7.94971
 21
303.643
  0
LINE
  8
0
 10
-7.94971
 20
303.643
 11
-8.24164
 21
303.717
  0
LINE
  8
0
 10
-8.24164
 20
303.717
 11
-8.52187
 21
303.828
  0
LINE
  8
0
 10
-8.52187
 20
303.828
 11
-8.78598
 21
303.974
  0
LINE
  8
0
 10
-8.78598
 20
303.974
 11
-9.02982
 21
304.151
  0
LINE
  8
0
 10
-9.02982
 20
304.151
 11
-9.24951
 21
304.357
  0
LINE
  8
0
 10
-9.24951
 20
304.357
 11
-9.44164
 21
304.589
  0
LINE
  8
0
 10
-9.44164
 20
304.589
 11
-9.60313
 21
304.844
  0
LINE
  8
0
 10
-9.60313
 20
304.844
 11
-9.73146
 21
305.117
  0
LINE
  8
0
 10
-9.73146
 20
305.117
 11
-9.82458
 21
305.403
  0
LINE
  8
0
 10
-9.82458
 20
305.403
 11
-9.88107
 21
305.699
  0
LINE
  8
0
 10
-9.88107
 20
305.699
 11
-9.89999
 21
306
  0
LINE
  8
0
 10
-9.89999
 20
306
 11
-9.88107
 21
306.301
  0
LINE
  8
0
 10
-9.88107
 20
306.301
 11
-9.82458
 21
306.597
  0
LINE
  8
0
 10
-9.82458
 20
306.597
 11
-9.73146
 21
306.883
  0
LINE
  8
0
 10
-9.73146
 20
306.883
 11
-9.60313
 21
307.156
  0
LINE
  8
0
 10
-9.60313
 20
307.156
 11
-9.44164
 21
307.411
  0
LINE
  8
0
 10
-9.44164
 20
307.411
 11
-9.24951
 21
307.643
  0
LINE
  8
0
 10
-9.24951
 20
307.643
 11
-9.02982
 21
307.849
  0
LINE
  8
0
 10
-9.02982
 20
307.849
 11
-8.78598
 21
308.026
  0
LINE
  8
0
 10
-8.78598
 20
308.026
 11
-8.52187
 21
308.172
  0
LINE
  8
0
 10
-8.52187
 20
308.172
 11
-8.24164
 21
308.283
  0
LINE
  8
0
 10
-8.24164
 20
308.283
 11
-7.94971
 21
308.357
  0
LINE
  8
0
 10
-7.94971
 20
308.357
 11
-7.6507
 21
308.395
  0
LINE
  8
0
 10
-7.6507
 20
308.395
 11
-7.34929
 21
308.395
  0
LINE
  8
0
 10
-7.34929
 20
308.395
 11
-7.05028
 21
308.357
  0
LINE
  8
0
 10
-7.05028
 20
308.357
 11
-6.75835
 21
308.283
  0
LINE
  8
0
 10
-6.75835
 20
308.283
 11
-6.47812
 21
308.172
  0
LINE
  8
0
 10
-6.47812
 20
308.172
 11
-6.214
 21
308.026
  0
LINE
  8
0
 10
-6.214
 20
308.026
 11
-5.97017
 21
307.849
  0
LINE
  8
0
 10
-5.97017
 20
307.849
 11
-5.75047
 21
307.643
  0
LINE
  8
0
 10
-5.75047
 20
307.643
 11
-5.55835
 21
307.411
  0
LINE
  8
0
 10
-5.55835
 20
307.411
 11
-5.39685
 21
307.156
  0
LINE
  8
0
 10
-5.39685
 20
307.156
 11
-5.26852
 21
306.883
  0
LINE
  8
0
 10
-5.26852
 20
306.883
 11
-5.1754
 21
306.597
  0
LINE
  8
0
 10
-5.1754
 20
306.597
 11
-5.11891
 21
306.301
  0
LINE
  8
0
 10
-5.11891
 20
306.301
 11
-5.09999
 21
306
  0
LINE
  8
0
 10
-5.09999
 20
306
 11
-5.11891
 21
305.699
  0
LINE
  8
0
 10
-5.11891
 20
305.699
 11
-5.1754
 21
305.403
  0
LINE
  8
0
 10
-5.1754
 20
305.403
 11
-5.26852
 21
305.117
  0
LINE
  8
0
 10
-5.26852
 20
305.117
 11
-5.39685
 21
304.844
  0
LINE
  8
0
 10
-5.39685
 20
304.844
 11
-5.55835
 21
304.589
  0
LINE
  8
0
 10
-5.55835
 20
304.589
 11
-5.75047
 21
304.357
  0
LINE
  8
0
 10
-5.75047
 20
304.357
 11
-5.97017
 21
304.151
  0
LINE
  8
0
 10
-5.97017
 20
304.151
 11
-6.214
 21
303.974
  0
LINE
  8
0
 10
-6.214
 20
303.974
 11
-6.47812
 21
303.828
  0
LINE
  8
0
 10
-6.47812
 20
303.828
 11
-6.75835
 21
303.717
  0
LINE
  8
0
 10
-6.75835
 20
303.717
 11
-7.05028
 21
303.643
  0
LINE
  8
0
 10
-7.05028
 20
303.643
 11
-7.34929
 21
303.605
  0
LINE
  8
0
 10
-7.34929
 20
303.605
 11
-7.6507
 21
303.605
  0
ENDSEC
  0
SECTION
  2
OBJECTS
  0
DICTIONARY
  0
ENDSEC
  0
EOF
