  0
SECTION
  2
BLOCKS
  0
ENDSEC
  0
SECTION
  2
ENTITIES
  0
LINE
  8
0
 10
10.712
 20
1.2673
 11
11.1743
 21
1.38597
  0
LINE
  8
0
 10
11.1743
 20
1.38597
 11
11.618
 21
1.56165
  0
LINE
  8
0
 10
11.618
 20
1.56165
 11
12.0361
 21
1.79155
  0
LINE
  8
0
 10
12.0361
 20
1.79155
 11
12.4222
 21
2.07204
  0
LINE
  8
0
 10
12.4222
 20
2.07204
 11
12.7701
 21
2.39871
  0
LINE
  8
0
 10
12.7701
 20
2.39871
 11
13.0743
 21
2.7664
  0
LINE
  8
0
 10
13.0743
 20
2.7664
 11
13.33
 21
3.16933
  0
LINE
  8
0
 10
13.33
 20
3.16933
 11
13.5331
 21
3.60112
  0
LINE
  8
0
 10
13.5331
 20
3.60112
 11
13.6806
 21
4.05498
  0
LINE
  8
0
 10
13.6806
 20
4.05498
 11
13.77
 21
4.52373
  0
LINE
  8
0
 10
13.77
 20
4.52373
 11
13.8
 21
5
  0
LINE
  8
0
 10
13.8
 20
5
 11
13.8
 21
10
  0
LINE
  8
0
 10
13.8
 20
10
 11
13.77
 21
10.4763
  0
LINE
  8
0
 10
13.77
 20
10.4763
 11
13.6806
 21
10.945
  0
LINE
  8
0
 10
13.6806
 20
10.945
 11
13.5331
 21
11.3989
  0
LINE
  8
0
 10
13.5331
 20
11.3989
 11
13.33
 21
11.8307
  0
LINE
  8
0
 10
13.33
 20
11.8307
 11
13.0743
 21
12.2336
  0
LINE
  8
0
 10
13.0743
 20
12.2336
 11
12.7701
 21
12.6013
  0
LINE
  8
0
 10
12.7701
 20
12.6013
 11
12.4222
 21
12.9279
  0
LINE
  8
0
 10
12.4222
 20
12.9279
 11
12.0361
 21
13.2084
  0
LINE
  8
0
 10
12.0361
 20
13.2084
 11
11.618
 21
13.4383
  0
LINE
  8
0
 10
11.618
 20
13.4383
 11
11.1743
 21
13.614
  0
LINE
  8
0
 10
11.1743
 20
13.614
 11
10.712
 21
13.7327
  0
LINE
  8
0
 10
10.712
 20
13.7327
 11
10.2386
 21
13.7925
  0
LINE
  8
0
 10
10.2386
 20
13.7925
 11
4.76138
 21
13.7925
  0
LINE
  8
0
 10
4.76138
 20
13.7925
 11
4.28795
 21
13.7327
  0
LINE
  8
0
 10
4.28795
 20
13.7327
 11
3.82573
 21
13.614
  0
LINE
  8
0
 10
3.82573
 20
13.614
 11
3.38203
 21
13.4383
  0
LINE
  8
0
 10
3.38203
 20
13.4383
 11
2.96385
 21
13.2084
  0
LINE
  8
0
 10
2.96385
 20
13.2084
 11
2.57777
 21
12.9279
  0
LINE
  8
0
 10
2.57777
 20
12.9279
 11
2.2299
 21
12.6013
  0
LINE
  8
0
 10
2.2299
 20
12.6013
 11
1.92572
 21
12.2336
  0
LINE
  8
0
 10
1.92572
 20
12.2336
 11
1.67003
 21
11.8307
  0
LINE
  8
0
 10
1.67003
 20
11.8307
 11
1.46684
 21
11.3989
  0
LINE
  8
0
 10
1.46684
 20
11.3989
 11
1.31938
 21
10.945
  0
LINE
  8
0
 10
1.31938
 20
10.945
 11
1.22995
 21
10.4763
  0
LINE
  8
0
 10
1.22995
 20
10.4763
 11
1.2
 21
10
  0
LINE
  8
0
 10
1.2
 20
10
 11
1.2
 21
5
  0
LINE
  8
0
 10
1.2
 20
5
 11
1.22995
 21
4.52373
  0
LINE
  8
0
 10
1.22995
 20
4.52373
 11
1.31938
 21
4.05498
  0
LINE
  8
0
 10
1.31938
 20
4.05498
 11
1.46684
 21
3.60112
  0
LINE
  8
0
 10
1.46684
 20
3.60112
 11
1.67003
 21
3.16933
  0
LINE
  8
0
 10
1.67003
 20
3.16933
 11
1.92572
 21
2.7664
  0
LINE
  8
0
 10
1.92572
 20
2.7664
 11
2.2299
 21
2.39871
  0
LINE
  8
0
 10
2.2299
 20
2.39871
 11
2.57777
 21
2.07204
  0
LINE
  8
0
 10
2.57777
 20
2.07204
 11
2.96385
 21
1.79155
  0
LINE
  8
0
 10
2.96385
 20
1.79155
 11
3.38203
 21
1.56165
  0
LINE
  8
0
 10
3.38203
 20
1.56165
 11
3.82573
 21
1.38597
  0
LINE
  8
0
 10
3.82573
 20
1.38597
 11
4.28795
 21
1.2673
  0
LINE
  8
0
 10
4.28795
 20
1.2673
 11
4.76138
 21
1.20749
  0
LINE
  8
0
 10
4.76138
 20
1.20749
 11
10.2386
 21
1.20749
  0
LINE
  8
0
 10
10.2386
 20
1.20749
 11
10.712
 21
1.2673
  0
LINE
  8
0
 10
6.81161
 20
4.00591
 11
6.43785
 21
4.05313
  0
LINE
  8
0
 10
6.43785
 20
4.05313
 11
6.07294
 21
4.14682
  0
LINE
  8
0
 10
6.07294
 20
4.14682
 11
5.72266
 21
4.28551
  0
LINE
  8
0
 10
5.72266
 20
4.28551
 11
5.39252
 21
4.46701
  0
LINE
  8
0
 10
5.39252
 20
4.46701
 11
5.08772
 21
4.68845
  0
LINE
  8
0
 10
5.08772
 20
4.68845
 11
4.81308
 21
4.94635
  0
LINE
  8
0
 10
4.81308
 20
4.94635
 11
4.57294
 21
5.23663
  0
LINE
  8
0
 10
4.57294
 20
5.23663
 11
4.37108
 21
5.55473
  0
LINE
  8
0
 10
4.37108
 20
5.55473
 11
4.21066
 21
5.89561
  0
LINE
  8
0
 10
4.21066
 20
5.89561
 11
4.09424
 21
6.25392
  0
LINE
  8
0
 10
4.09424
 20
6.25392
 11
4.02365
 21
6.62399
  0
LINE
  8
0
 10
4.02365
 20
6.62399
 11
4
 21
7
  0
LINE
  8
0
 10
4
 20
7
 11
4
 21
8
  0
LINE
  8
0
 10
4
 20
8
 11
4.02365
 21
8.37599
  0
LINE
  8
0
 10
4.02365
 20
8.37599
 11
4.09424
 21
8.74606
  0
LINE
  8
0
 10
4.09424
 20
8.74606
 11
4.21066
 21
9.10437
  0
LINE
  8
0
 10
4.21066
 20
9.10437
 11
4.37108
 21
9.44525
  0
LINE
  8
0
 10
4.37108
 20
9.44525
 11
4.57294
 21
9.76335
  0
LINE
  8
0
 10
4.57294
 20
9.76335
 11
4.81308
 21
10.0536
  0
LINE
  8
0
 10
4.81308
 20
10.0536
 11
5.08772
 21
10.3115
  0
LINE
  8
0
 10
5.08772
 20
10.3115
 11
5.39252
 21
10.533
  0
LINE
  8
0
 10
5.39252
 20
10.533
 11
5.72266
 21
10.7145
  0
LINE
  8
0
 10
5.72266
 20
10.7145
 11
6.07294
 21
10.8532
  0
LINE
  8
0
 10
6.07294
 20
10.8532
 11
6.43785
 21
10.9469
  0
LINE
  8
0
 10
6.43785
 20
10.9469
 11
6.81161
 21
10.9941
  0
LINE
  8
0
 10
6.81161
 20
10.9941
 11
8.18837
 21
10.9941
  0
LINE
  8
0
 10
8.18837
 20
10.9941
 11
8.56213
 21
10.9469
  0
LINE
  8
0
 10
8.56213
 20
10.9469
 11
8.92705
 21
10.8532
  0
LINE
  8
0
 10
8.92705
 20
10.8532
 11
9.27733
 21
10.7145
  0
LINE
  8
0
 10
9.27733
 20
10.7145
 11
9.60747
 21
10.533
  0
LINE
  8
0
 10
9.60747
 20
10.533
 11
9.91226
 21
10.3115
  0
LINE
  8
0
 10
9.91226
 20
10.3115
 11
10.1869
 21
10.0536
  0
LINE
  8
0
 10
10.1869
 20
10.0536
 11
10.427
 21
9.76335
  0
LINE
  8
0
 10
10.427
 20
9.76335
 11
10.6289
 21
9.44525
  0
LINE
  8
0
 10
10.6289
 20
9.44525
 11
10.7893
 21
9.10437
  0
LINE
  8
0
 10
10.7893
 20
9.10437
 11
10.9057
 21
8.74606
  0
LINE
  8
0
 10
10.9057
 20
8.74606
 11
10.9763
 21
8.37599
  0
LINE
  8
0
 10
10.9763
 20
8.37599
 11
11
 21
8
  0
LINE
  8
0
 10
11
 20
8
 11
11
 21
7
  0
LINE
  8
0
 10
11
 20
7
 11
10.9763
 21
6.62399
  0
LINE
  8
0
 10
10.9763
 20
6.62399
 11
10.9057
 21
6.25392
  0
LINE
  8
0
 10
10.9057
 20
6.25392
 11
10.7893
 21
5.89561
  0
LINE
  8
0
 10
10.7893
 20
5.89561
 11
10.6289
 21
5.55473
  0
LINE
  8
0
 10
10.6289
 20
5.55473
 11
10.427
 21
5.23663
  0
LINE
  8
0
 10
10.427
 20
5.23663
 11
10.1869
 21
4.94635
  0
LINE
  8
0
 10
10.1869
 20
4.94635
 11
9.91226
 21
4.68845
  0
LINE
  8
0
 10
9.91226
 20
4.68845
 11
9.60747
 21
4.46701
  0
LINE
  8
0
 10
9.60747
 20
4.46701
 11
9.27733
 21
4.28551
  0
LINE
  8
0
 10
9.27733
 20
4.28551
 11
8.92705
 21
4.14682
  0
LINE
  8
0
 10
8.92705
 20
4.14682
 11
8.56213
 21
4.05313
  0
LINE
  8
0
 10
8.56213
 20
4.05313
 11
8.18837
 21
4.00591
  0
LINE
  8
0
 10
8.18837
 20
4.00591
 11
6.81161
 21
4.00591
  0
LINE
  8
0
 10
-6.56308
 20
-12.4114
 11
-5.95491
 21
-12.2553
  0
LINE
  8
0
 10
-5.95491
 20
-12.2553
 11
-5.37109
 21
-12.0241
  0
LINE
  8
0
 10
-5.37109
 20
-12.0241
 11
-4.82086
 21
-11.7216
  0
LINE
  8
0
 10
-4.82086
 20
-11.7216
 11
-4.31287
 21
-11.3526
  0
LINE
  8
0
 10
-4.31287
 20
-11.3526
 11
-3.85515
 21
-10.9227
  0
LINE
  8
0
 10
-3.85515
 20
-10.9227
 11
-3.45491
 21
-10.4389
  0
LINE
  8
0
 10
-3.45491
 20
-10.4389
 11
-3.11845
 21
-9.90877
  0
LINE
  8
0
 10
-3.11845
 20
-9.90877
 11
-2.8511
 21
-9.34062
  0
LINE
  8
0
 10
-2.8511
 20
-9.34062
 11
-2.65707
 21
-8.74344
  0
LINE
  8
0
 10
-2.65707
 20
-8.74344
 11
-2.53941
 21
-8.12666
  0
LINE
  8
0
 10
-2.53941
 20
-8.12666
 11
-2.5
 21
-7.5
  0
LINE
  8
0
 10
-2.5
 20
-7.5
 11
-2.53941
 21
-6.87332
  0
LINE
  8
0
 10
-2.53941
 20
-6.87332
 11
-2.65707
 21
-6.25655
  0
LINE
  8
0
 10
-2.65707
 20
-6.25655
 11
-2.8511
 21
-5.65936
  0
LINE
  8
0
 10
-2.8511
 20
-5.65936
 11
-3.11845
 21
-5.09122
  0
LINE
  8
0
 10
-3.11845
 20
-5.09122
 11
-3.45491
 21
-4.56107
  0
LINE
  8
0
 10
-3.45491
 20
-4.56107
 11
-3.85515
 21
-4.07726
  0
LINE
  8
0
 10
-3.85515
 20
-4.07726
 11
-4.31287
 21
-3.64743
  0
LINE
  8
0
 10
-4.31287
 20
-3.64743
 11
-4.82086
 21
-3.27835
  0
LINE
  8
0
 10
-4.82086
 20
-3.27835
 11
-5.37109
 21
-2.97586
  0
LINE
  8
0
 10
-5.37109
 20
-2.97586
 11
-5.95491
 21
-2.74471
  0
LINE
  8
0
 10
-5.95491
 20
-2.74471
 11
-6.56308
 21
-2.58856
  0
LINE
  8
0
 10
-6.56308
 20
-2.58856
 11
-7.18604
 21
-2.50986
  0
LINE
  8
0
 10
-7.18604
 20
-2.50986
 11
-7.81395
 21
-2.50986
  0
LINE
  8
0
 10
-7.81395
 20
-2.50986
 11
-8.4369
 21
-2.58856
  0
LINE
  8
0
 10
-8.4369
 20
-2.58856
 11
-9.04507
 21
-2.74471
  0
LINE
  8
0
 10
-9.04507
 20
-2.74471
 11
-9.62889
 21
-2.97586
  0
LINE
  8
0
 10
-9.62889
 20
-2.97586
 11
-10.1791
 21
-3.27835
  0
LINE
  8
0
 10
-10.1791
 20
-3.27835
 11
-10.6871
 21
-3.64743
  0
LINE
  8
0
 10
-10.6871
 20
-3.64743
 11
-11.1448
 21
-4.07726
  0
LINE
  8
0
 10
-11.1448
 20
-4.07726
 11
-11.5451
 21
-4.56107
  0
LINE
  8
0
 10
-11.5451
 20
-4.56107
 11
-11.8815
 21
-5.09122
  0
LINE
  8
0
 10
-11.8815
 20
-5.09122
 11
-12.1489
 21
-5.65936
  0
LINE
  8
0
 10
-12.1489
 20
-5.65936
 11
-12.3429
 21
-6.25655
  0
LINE
  8
0
 10
-12.3429
 20
-6.25655
 11
-12.4606
 21
-6.87332
  0
LINE
  8
0
 10
-12.4606
 20
-6.87332
 11
-12.5
 21
-7.5
  0
LINE
  8
0
 10
-12.5
 20
-7.5
 11
-12.4606
 21
-8.12666
  0
LINE
  8
0
 10
-12.4606
 20
-8.12666
 11
-12.3429
 21
-8.74344
  0
LINE
  8
0
 10
-12.3429
 20
-8.74344
 11
-12.1489
 21
-9.34062
  0
LINE
  8
0
 10
-12.1489
 20
-9.34062
 11
-11.8815
 21
-9.90877
  0
LINE
  8
0
 10
-11.8815
 20
-9.90877
 11
-11.5451
 21
-10.4389
  0
LINE
  8
0
 10
-11.5451
 20
-10.4389
 11
-11.1448
 21
-10.9227
  0
LINE
  8
0
 10
-11.1448
 20
-10.9227
 11
-10.6871
 21
-11.3526
  0
LINE
  8
0
 10
-10.6871
 20
-11.3526
 11
-10.1791
 21
-11.7216
  0
LINE
  8
0
 10
-10.1791
 20
-11.7216
 11
-9.62889
 21
-12.0241
  0
LINE
  8
0
 10
-9.62889
 20
-12.0241
 11
-9.04507
 21
-12.2553
  0
LINE
  8
0
 10
-9.04507
 20
-12.2553
 11
-8.4369
 21
-12.4114
  0
LINE
  8
0
 10
-8.4369
 20
-12.4114
 11
-7.81395
 21
-12.4901
  0
LINE
  8
0
 10
-7.81395
 20
-12.4901
 11
-7.18604
 21
-12.4901
  0
LINE
  8
0
 10
-7.18604
 20
-12.4901
 11
-6.56308
 21
-12.4114
  0
LINE
  8
0
 10
-7.59418
 20
-8.99704
 11
-7.78107
 21
-8.97342
  0
LINE
  8
0
 10
-7.78107
 20
-8.97342
 11
-7.96352
 21
-8.92657
  0
LINE
  8
0
 10
-7.96352
 20
-8.92657
 11
-8.13866
 21
-8.85724
  0
LINE
  8
0
 10
-8.13866
 20
-8.85724
 11
-8.30373
 21
-8.76648
  0
LINE
  8
0
 10
-8.30373
 20
-8.76648
 11
-8.45613
 21
-8.65576
  0
LINE
  8
0
 10
-8.45613
 20
-8.65576
 11
-8.59344
 21
-8.52681
  0
LINE
  8
0
 10
-8.59344
 20
-8.52681
 11
-8.71352
 21
-8.38167
  0
LINE
  8
0
 10
-8.71352
 20
-8.38167
 11
-8.81445
 21
-8.22263
  0
LINE
  8
0
 10
-8.81445
 20
-8.22263
 11
-8.89465
 21
-8.05219
  0
LINE
  8
0
 10
-8.89465
 20
-8.05219
 11
-8.95287
 21
-7.87303
  0
LINE
  8
0
 10
-8.95287
 20
-7.87303
 11
-8.98816
 21
-7.68799
  0
LINE
  8
0
 10
-8.98816
 20
-7.68799
 11
-9
 21
-7.5
  0
LINE
  8
0
 10
-9
 20
-7.5
 11
-8.98816
 21
-7.312
  0
LINE
  8
0
 10
-8.98816
 20
-7.312
 11
-8.95287
 21
-7.12695
  0
LINE
  8
0
 10
-8.95287
 20
-7.12695
 11
-8.89465
 21
-6.9478
  0
LINE
  8
0
 10
-8.89465
 20
-6.9478
 11
-8.81445
 21
-6.77736
  0
LINE
  8
0
 10
-8.81445
 20
-6.77736
 11
-8.71352
 21
-6.61832
  0
LINE
  8
0
 10
-8.71352
 20
-6.61832
 11
-8.59344
 21
-6.47318
  0
LINE
  8
0
 10
-8.59344
 20
-6.47318
 11
-8.45613
 21
-6.34422
  0
LINE
  8
0
 10
-8.45613
 20
-6.34422
 11
-8.30373
 21
-6.23351
  0
LINE
  8
0
 10
-8.30373
 20
-6.23351
 11
-8.13866
 21
-6.14275
  0
LINE
  8
0
 10
-8.13866
 20
-6.14275
 11
-7.96352
 21
-6.07341
  0
LINE
  8
0
 10
-7.96352
 20
-6.07341
 11
-7.78107
 21
-6.02657
  0
LINE
  8
0
 10
-7.78107
 20
-6.02657
 11
-7.59418
 21
-6.00294
  0
LINE
  8
0
 10
-7.59418
 20
-6.00294
 11
-7.40581
 21
-6.00294
  0
LINE
  8
0
 10
-7.40581
 20
-6.00294
 11
-7.21892
 21
-6.02657
  0
LINE
  8
0
 10
-7.21892
 20
-6.02657
 11
-7.03647
 21
-6.07341
  0
LINE
  8
0
 10
-7.03647
 20
-6.07341
 11
-6.86133
 21
-6.14275
  0
LINE
  8
0
 10
-6.86133
 20
-6.14275
 11
-6.69626
 21
-6.23351
  0
LINE
  8
0
 10
-6.69626
 20
-6.23351
 11
-6.54385
 21
-6.34422
  0
LINE
  8
0
 10
-6.54385
 20
-6.34422
 11
-6.40654
 21
-6.47318
  0
LINE
  8
0
 10
-6.40654
 20
-6.47318
 11
-6.28647
 21
-6.61832
  0
LINE
  8
0
 10
-6.28647
 20
-6.61832
 11
-6.18553
 21
-6.77736
  0
LINE
  8
0
 10
-6.18553
 20
-6.77736
 11
-6.10533
 21
-6.9478
  0
LINE
  8
0
 10
-6.10533
 20
-6.9478
 11
-6.04712
 21
-7.12695
  0
LINE
  8
0
 10
-6.04712
 20
-7.12695
 11
-6.01183
 21
-7.312
  0
LINE
  8
0
 10
-6.01183
 20
-7.312
 11
-6
 21
-7.5
  0
LINE
  8
0
 10
-6
 20
-7.5
 11
-6.01183
 21
-7.68799
  0
LINE
  8
0
 10
-6.01183
 20
-7.68799
 11
-6.04712
 21
-7.87303
  0
LINE
  8
0
 10
-6.04712
 20
-7.87303
 11
-6.10533
 21
-8.05219
  0
LINE
  8
0
 10
-6.10533
 20
-8.05219
 11
-6.18553
 21
-8.22263
  0
LINE
  8
0
 10
-6.18553
 20
-8.22263
 11
-6.28647
 21
-8.38167
  0
LINE
  8
0
 10
-6.28647
 20
-8.38167
 11
-6.40654
 21
-8.52681
  0
LINE
  8
0
 10
-6.40654
 20
-8.52681
 11
-6.54385
 21
-8.65576
  0
LINE
  8
0
 10
-6.54385
 20
-8.65576
 11
-6.69626
 21
-8.76648
  0
LINE
  8
0
 10
-6.69626
 20
-8.76648
 11
-6.86133
 21
-8.85724
  0
LINE
  8
0
 10
-6.86133
 20
-8.85724
 11
-7.03647
 21
-8.92657
  0
LINE
  8
0
 10
-7.03647
 20
-8.92657
 11
-7.21892
 21
-8.97342
  0
LINE
  8
0
 10
-7.21892
 20
-8.97342
 11
-7.40581
 21
-8.99704
  0
LINE
  8
0
 10
-7.40581
 20
-8.99704
 11
-7.59418
 21
-8.99704
  0
ENDSEC
  0
SECTION
  2
OBJECTS
  0
DICTIONARY
  0
ENDSEC
  0
EOF
