<?xml version="1.0" standalone="no"?>
<!DOCTYPE svg PUBLIC "-//W3C//DTD SVG 1.1//EN" "http://www.w3.org/Graphics/SVG/1.1/DTD/svg11.dtd">
<svg width="27mm" height="27mm" viewBox="-13 -14 27 27" xmlns="http://www.w3.org/2000/svg" version="1.1">
<title>OpenSCAD Model</title>
<path d="
M 10.712,-1.2673 L 11.1743,-1.38597 L 11.618,-1.56165 L 12.0361,-1.79155 L 12.4222,-2.07204 L 12.7701,-2.39871
 L 13.0743,-2.7664 L 13.33,-3.16933 L 13.5331,-3.60112 L 13.6806,-4.05498 L 13.77,-4.52373 L 13.8,-5
 L 13.8,-10 L 13.77,-10.4763 L 13.6806,-10.945 L 13.5331,-11.3989 L 13.33,-11.8307 L 13.0743,-12.2336
 L 12.7701,-12.6013 L 12.4222,-12.9279 L 12.0361,-13.2084 L 11.618,-13.4383 L 11.1743,-13.614 L 10.712,-13.7327
 L 10.2386,-13.7925 L 4.76138,-13.7925 L 4.28795,-13.7327 L 3.82573,-13.614 L 3.38203,-13.4383 L 2.96385,-13.2084
 L 2.57777,-12.9279 L 2.2299,-12.6013 L 1.92572,-12.2336 L 1.67003,-11.8307 L 1.46684,-11.3989 L 1.31938,-10.945
 L 1.22995,-10.4763 L 1.2,-10 L 1.2,-5 L 1.22995,-4.52373 L 1.31938,-4.05498 L 1.46684,-3.60112
 L 1.67003,-3.16933 L 1.92572,-2.7664 L 2.2299,-2.39871 L 2.57777,-2.07204 L 2.96385,-1.79155 L 3.38203,-1.56165
 L 3.82573,-1.38597 L 4.28795,-1.2673 L 4.76138,-1.20749 L 10.2386,-1.20749 z
M 6.81161,-4.00591 L 6.43785,-4.05313 L 6.07294,-4.14682 L 5.72266,-4.28551 L 5.39252,-4.46701 L 5.08772,-4.68845
 L 4.81308,-4.94635 L 4.57294,-5.23663 L 4.37108,-5.55473 L 4.21066,-5.89561 L 4.09424,-6.25392 L 4.02365,-6.62399
 L 4,-7 L 4,-8 L 4.02365,-8.37599 L 4.09424,-8.74606 L 4.21066,-9.10437 L 4.37108,-9.44525
 L 4.57294,-9.76335 L 4.81308,-10.0536 L 5.08772,-10.3115 L 5.39252,-10.533 L 5.72266,-10.7145 L 6.07294,-10.8532
 L 6.43785,-10.9469 L 6.81161,-10.9941 L 8.18837,-10.9941 L 8.56213,-10.9469 L 8.92705,-10.8532 L 9.27733,-10.7145
 L 9.60747,-10.533 L 9.91226,-10.3115 L 10.1869,-10.0536 L 10.427,-9.76335 L 10.6289,-9.44525 L 10.7893,-9.10437
 L 10.9057,-8.74606 L 10.9763,-8.37599 L 11,-8 L 11,-7 L 10.9763,-6.62399 L 10.9057,-6.25392
 L 10.7893,-5.89561 L 10.6289,-5.55473 L 10.427,-5.23663 L 10.1869,-4.94635 L 9.91226,-4.68845 L 9.60747,-4.46701
 L 9.27733,-4.28551 L 8.92705,-4.14682 L 8.56213,-4.05313 L 8.18837,-4.00591 z
M -6.56308,12.4114 L -5.95491,12.2553 L -5.37109,12.0241 L -4.82086,11.7216 L -4.31287,11.3526 L -3.85515,10.9227
 L -3.45491,10.4389 L -3.11845,9.90877 L -2.8511,9.34062 L -2.65707,8.74344 L -2.53941,8.12666 L -2.5,7.5
 L -2.53941,6.87332 L -2.65707,6.25655 L -2.8511,5.65936 L -3.11845,5.09122 L -3.45491,4.56107 L -3.85515,4.07726
 L -4.31287,3.64743 L -4.82086,3.27835 L -5.37109,2.97586 L -5.95491,2.74471 L -6.56308,2.58856 L -7.18604,2.50986
 L -7.81395,2.50986 L -8.4369,2.58856 L -9.04507,2.74471 L -9.62889,2.97586 L -10.1791,3.27835 L -10.6871,3.64743
 L -11.1448,4.07726 L -11.5451,4.56107 L -11.8815,5.09122 L -12.1489,5.65936 L -12.3429,6.25655 L -12.4606,6.87332
 L -12.5,7.5 L -12.4606,8.12666 L -12.3429,8.74344 L -12.1489,9.34062 L -11.8815,9.90877 L -11.5451,10.4389
 L -11.1448,10.9227 L -10.6871,11.3526 L -10.1791,11.7216 L -9.62889,12.0241 L -9.04507,12.2553 L -8.4369,12.4114
 L -7.81395,12.4901 L -7.18604,12.4901 z
M -7.59418,8.99704 L -7.78107,8.97342 L -7.96352,8.92657 L -8.13866,8.85724 L -8.30373,8.76648 L -8.45613,8.65576
 L -8.59344,8.52681 L -8.71352,8.38167 L -8.81445,8.22263 L -8.89465,8.05219 L -8.95287,7.87303 L -8.98816,7.68799
 L -9,7.5 L -8.98816,7.312 L -8.95287,7.12695 L -8.89465,6.9478 L -8.81445,6.77736 L -8.71352,6.61832
 L -8.59344,6.47318 L -8.45613,6.34422 L -8.30373,6.23351 L -8.13866,6.14275 L -7.96352,6.07341 L -7.78107,6.02657
 L -7.59418,6.00294 L -7.40581,6.00294 L -7.21892,6.02657 L -7.03647,6.07341 L -6.86133,6.14275 L -6.69626,6.23351
 L -6.54385,6.34422 L -6.40654,6.47318 L -6.28647,6.61832 L -6.18553,6.77736 L -6.10533,6.9478 L -6.04712,7.12695
 L -6.01183,7.312 L -6,7.5 L -6.01183,7.68799 L -6.04712,7.87303 L -6.10533,8.05219 L -6.18553,8.22263
 L -6.28647,8.38167 L -6.40654,8.52681 L -6.54385,8.65576 L -6.69626,8.76648 L -6.86133,8.85724 L -7.03647,8.92657
 L -7.21892,8.97342 L -7.40581,8.99704 z
" stroke="black" fill="lightgray" stroke-width="0.5"/>
</svg>
