<?xml version="1.0" standalone="no"?>
<!DOCTYPE svg PUBLIC "-//W3C//DTD SVG 1.1//EN" "http://www.w3.org/Graphics/SVG/1.1/DTD/svg11.dtd">
<svg width="150mm" height="32mm" viewBox="-75 -52 150 32" xmlns="http://www.w3.org/2000/svg" version="1.1">
<title>OpenSCAD Model</title>
<path d="
M 72.7184,-44.5443 L 73.0225,-44.6224 L 73.3144,-44.7379 L 73.5896,-44.8892 L 73.8436,-45.0737 L 74.0724,-45.2886
 L 74.2725,-45.5305 L 74.4408,-45.7956 L 74.5744,-46.0797 L 74.6714,-46.3783 L 74.7303,-46.6867 L 74.75,-47
 L 74.75,-49 L 74.7303,-49.3133 L 74.6714,-49.6217 L 74.5744,-49.9203 L 74.4408,-50.2044 L 74.2725,-50.4695
 L 74.0724,-50.7114 L 73.8436,-50.9263 L 73.5896,-51.1108 L 73.3144,-51.2621 L 73.0225,-51.3776 L 72.7184,-51.4557
 L 72.407,-51.4951 L -72.407,-51.4951 L -72.7184,-51.4557 L -73.0225,-51.3776 L -73.3144,-51.2621 L -73.5896,-51.1108
 L -73.8436,-50.9263 L -74.0724,-50.7114 L -74.2725,-50.4695 L -74.4408,-50.2044 L -74.5744,-49.9203 L -74.6714,-49.6217
 L -74.7303,-49.3133 L -74.75,-49 L -74.75,-47 L -74.7303,-46.6867 L -74.6714,-46.3783 L -74.5744,-46.0797
 L -74.4408,-45.7956 L -74.2725,-45.5305 L -74.0724,-45.2886 L -73.8436,-45.0737 L -73.5896,-44.8892 L -73.3144,-44.7379
 L -73.0225,-44.6224 L -72.7184,-44.5443 L -72.407,-44.5049 L 72.407,-44.5049 z
M 41.1558,-46.503 L 40.9689,-46.5266 L 40.7865,-46.5734 L 40.6113,-46.6428 L 40.4463,-46.7335 L 40.2939,-46.8442
 L 40.1565,-46.9732 L 40.0365,-47.1183 L 39.9355,-47.2774 L 39.8553,-47.4478 L 39.7971,-47.627 L 39.7618,-47.812
 L 39.75,-48 L 39.7618,-48.188 L 39.7971,-48.373 L 39.8553,-48.5522 L 39.9355,-48.7226 L 40.0365,-48.8817
 L 40.1565,-49.0268 L 40.2939,-49.1558 L 40.4463,-49.2665 L 40.6113,-49.3572 L 40.7865,-49.4266 L 40.9689,-49.4734
 L 41.1558,-49.497 L 41.3442,-49.497 L 41.5311,-49.4734 L 41.7135,-49.4266 L 41.8887,-49.3572 L 42.0537,-49.2665
 L 42.2061,-49.1558 L 42.3434,-49.0268 L 42.4635,-48.8817 L 42.5645,-48.7226 L 42.6447,-48.5522 L 42.7029,-48.373
 L 42.7382,-48.188 L 42.75,-48 L 42.7382,-47.812 L 42.7029,-47.627 L 42.6447,-47.4478 L 42.5645,-47.2774
 L 42.4635,-47.1183 L 42.3434,-46.9732 L 42.2061,-46.8442 L 42.0537,-46.7335 L 41.8887,-46.6428 L 41.7135,-46.5734
 L 41.5311,-46.5266 L 41.3442,-46.503 z
M 3.65581,-46.503 L 3.46892,-46.5266 L 3.28647,-46.5734 L 3.11133,-46.6428 L 2.94626,-46.7335 L 2.79385,-46.8442
 L 2.65654,-46.9732 L 2.53647,-47.1183 L 2.43553,-47.2774 L 2.35533,-47.4478 L 2.29712,-47.627 L 2.26183,-47.812
 L 2.25,-48 L 2.26183,-48.188 L 2.29712,-48.373 L 2.35533,-48.5522 L 2.43553,-48.7226 L 2.53647,-48.8817
 L 2.65654,-49.0268 L 2.79385,-49.1558 L 2.94626,-49.2665 L 3.11133,-49.3572 L 3.28647,-49.4266 L 3.46892,-49.4734
 L 3.65581,-49.497 L 3.84418,-49.497 L 4.03107,-49.4734 L 4.21352,-49.4266 L 4.38866,-49.3572 L 4.55373,-49.2665
 L 4.70613,-49.1558 L 4.84344,-49.0268 L 4.96352,-48.8817 L 5.06445,-48.7226 L 5.14465,-48.5522 L 5.20287,-48.373
 L 5.23816,-48.188 L 5.25,-48 L 5.23816,-47.812 L 5.20287,-47.627 L 5.14465,-47.4478 L 5.06445,-47.2774
 L 4.96352,-47.1183 L 4.84344,-46.9732 L 4.70613,-46.8442 L 4.55373,-46.7335 L 4.38866,-46.6428 L 4.21352,-46.5734
 L 4.03107,-46.5266 L 3.84418,-46.503 z
M -33.8442,-46.503 L -34.0311,-46.5266 L -34.2135,-46.5734 L -34.3887,-46.6428 L -34.5537,-46.7335 L -34.7061,-46.8442
 L -34.8434,-46.9732 L -34.9635,-47.1183 L -35.0645,-47.2774 L -35.1447,-47.4478 L -35.2029,-47.627 L -35.2382,-47.812
 L -35.25,-48 L -35.2382,-48.188 L -35.2029,-48.373 L -35.1447,-48.5522 L -35.0645,-48.7226 L -34.9635,-48.8817
 L -34.8434,-49.0268 L -34.7061,-49.1558 L -34.5537,-49.2665 L -34.3887,-49.3572 L -34.2135,-49.4266 L -34.0311,-49.4734
 L -33.8442,-49.497 L -33.6558,-49.497 L -33.4689,-49.4734 L -33.2865,-49.4266 L -33.1113,-49.3572 L -32.9463,-49.2665
 L -32.7939,-49.1558 L -32.6565,-49.0268 L -32.5365,-48.8817 L -32.4355,-48.7226 L -32.3553,-48.5522 L -32.2971,-48.373
 L -32.2618,-48.188 L -32.25,-48 L -32.2618,-47.812 L -32.2971,-47.627 L -32.3553,-47.4478 L -32.4355,-47.2774
 L -32.5365,-47.1183 L -32.6565,-46.9732 L -32.7939,-46.8442 L -32.9463,-46.7335 L -33.1113,-46.6428 L -33.2865,-46.5734
 L -33.4689,-46.5266 L -33.6558,-46.503 z
M -26.3442,-46.503 L -26.5311,-46.5266 L -26.7135,-46.5734 L -26.8887,-46.6428 L -27.0537,-46.7335 L -27.2061,-46.8442
 L -27.3434,-46.9732 L -27.4635,-47.1183 L -27.5645,-47.2774 L -27.6447,-47.4478 L -27.7029,-47.627 L -27.7382,-47.812
 L -27.75,-48 L -27.7382,-48.188 L -27.7029,-48.373 L -27.6447,-48.5522 L -27.5645,-48.7226 L -27.4635,-48.8817
 L -27.3434,-49.0268 L -27.2061,-49.1558 L -27.0537,-49.2665 L -26.8887,-49.3572 L -26.7135,-49.4266 L -26.5311,-49.4734
 L -26.3442,-49.497 L -26.1558,-49.497 L -25.9689,-49.4734 L -25.7865,-49.4266 L -25.6113,-49.3572 L -25.4463,-49.2665
 L -25.2939,-49.1558 L -25.1565,-49.0268 L -25.0365,-48.8817 L -24.9355,-48.7226 L -24.8553,-48.5522 L -24.7971,-48.373
 L -24.7618,-48.188 L -24.75,-48 L -24.7618,-47.812 L -24.7971,-47.627 L -24.8553,-47.4478 L -24.9355,-47.2774
 L -25.0365,-47.1183 L -25.1565,-46.9732 L -25.2939,-46.8442 L -25.4463,-46.7335 L -25.6113,-46.6428 L -25.7865,-46.5734
 L -25.9689,-46.5266 L -26.1558,-46.503 z
M -11.3442,-46.503 L -11.5311,-46.5266 L -11.7135,-46.5734 L -11.8887,-46.6428 L -12.0537,-46.7335 L -12.2061,-46.8442
 L -12.3434,-46.9732 L -12.4635,-47.1183 L -12.5645,-47.2774 L -12.6447,-47.4478 L -12.7029,-47.627 L -12.7382,-47.812
 L -12.75,-48 L -12.7382,-48.188 L -12.7029,-48.373 L -12.6447,-48.5522 L -12.5645,-48.7226 L -12.4635,-48.8817
 L -12.3434,-49.0268 L -12.2061,-49.1558 L -12.0537,-49.2665 L -11.8887,-49.3572 L -11.7135,-49.4266 L -11.5311,-49.4734
 L -11.3442,-49.497 L -11.1558,-49.497 L -10.9689,-49.4734 L -10.7865,-49.4266 L -10.6113,-49.3572 L -10.4463,-49.2665
 L -10.2939,-49.1558 L -10.1565,-49.0268 L -10.0365,-48.8817 L -9.93553,-48.7226 L -9.85533,-48.5522 L -9.79712,-48.373
 L -9.76183,-48.188 L -9.75,-48 L -9.76183,-47.812 L -9.79712,-47.627 L -9.85533,-47.4478 L -9.93553,-47.2774
 L -10.0365,-47.1183 L -10.1565,-46.9732 L -10.2939,-46.8442 L -10.4463,-46.7335 L -10.6113,-46.6428 L -10.7865,-46.5734
 L -10.9689,-46.5266 L -11.1558,-46.503 z
M -3.84418,-46.503 L -4.03107,-46.5266 L -4.21352,-46.5734 L -4.38866,-46.6428 L -4.55373,-46.7335 L -4.70613,-46.8442
 L -4.84344,-46.9732 L -4.96352,-47.1183 L -5.06445,-47.2774 L -5.14465,-47.4478 L -5.20287,-47.627 L -5.23816,-47.812
 L -5.25,-48 L -5.23816,-48.188 L -5.20287,-48.373 L -5.14465,-48.5522 L -5.06445,-48.7226 L -4.96352,-48.8817
 L -4.84344,-49.0268 L -4.70613,-49.1558 L -4.55373,-49.2665 L -4.38866,-49.3572 L -4.21352,-49.4266 L -4.03107,-49.4734
 L -3.84418,-49.497 L -3.65581,-49.497 L -3.46892,-49.4734 L -3.28647,-49.4266 L -3.11133,-49.3572 L -2.94626,-49.2665
 L -2.79385,-49.1558 L -2.65654,-49.0268 L -2.53647,-48.8817 L -2.43553,-48.7226 L -2.35533,-48.5522 L -2.29712,-48.373
 L -2.26183,-48.188 L -2.25,-48 L -2.26183,-47.812 L -2.29712,-47.627 L -2.35533,-47.4478 L -2.43553,-47.2774
 L -2.53647,-47.1183 L -2.65654,-46.9732 L -2.79385,-46.8442 L -2.94626,-46.7335 L -3.11133,-46.6428 L -3.28647,-46.5734
 L -3.46892,-46.5266 L -3.65581,-46.503 z
M -18.8442,-46.503 L -19.0311,-46.5266 L -19.2135,-46.5734 L -19.3887,-46.6428 L -19.5537,-46.7335 L -19.7061,-46.8442
 L -19.8434,-46.9732 L -19.9635,-47.1183 L -20.0645,-47.2774 L -20.1447,-47.4478 L -20.2029,-47.627 L -20.2382,-47.812
 L -20.25,-48 L -20.2382,-48.188 L -20.2029,-48.373 L -20.1447,-48.5522 L -20.0645,-48.7226 L -19.9635,-48.8817
 L -19.8434,-49.0268 L -19.7061,-49.1558 L -19.5537,-49.2665 L -19.3887,-49.3572 L -19.2135,-49.4266 L -19.0311,-49.4734
 L -18.8442,-49.497 L -18.6558,-49.497 L -18.4689,-49.4734 L -18.2865,-49.4266 L -18.1113,-49.3572 L -17.9463,-49.2665
 L -17.7939,-49.1558 L -17.6565,-49.0268 L -17.5365,-48.8817 L -17.4355,-48.7226 L -17.3553,-48.5522 L -17.2971,-48.373
 L -17.2618,-48.188 L -17.25,-48 L -17.2618,-47.812 L -17.2971,-47.627 L -17.3553,-47.4478 L -17.4355,-47.2774
 L -17.5365,-47.1183 L -17.6565,-46.9732 L -17.7939,-46.8442 L -17.9463,-46.7335 L -18.1113,-46.6428 L -18.2865,-46.5734
 L -18.4689,-46.5266 L -18.6558,-46.503 z
M 56.1558,-46.503 L 55.9689,-46.5266 L 55.7865,-46.5734 L 55.6113,-46.6428 L 55.4463,-46.7335 L 55.2939,-46.8442
 L 55.1565,-46.9732 L 55.0365,-47.1183 L 54.9355,-47.2774 L 54.8553,-47.4478 L 54.7971,-47.627 L 54.7618,-47.812
 L 54.75,-48 L 54.7618,-48.188 L 54.7971,-48.373 L 54.8553,-48.5522 L 54.9355,-48.7226 L 55.0365,-48.8817
 L 55.1565,-49.0268 L 55.2939,-49.1558 L 55.4463,-49.2665 L 55.6113,-49.3572 L 55.7865,-49.4266 L 55.9689,-49.4734
 L 56.1558,-49.497 L 56.3442,-49.497 L 56.5311,-49.4734 L 56.7135,-49.4266 L 56.8887,-49.3572 L 57.0537,-49.2665
 L 57.2061,-49.1558 L 57.3434,-49.0268 L 57.4635,-48.8817 L 57.5645,-48.7226 L 57.6447,-48.5522 L 57.7029,-48.373
 L 57.7382,-48.188 L 57.75,-48 L 57.7382,-47.812 L 57.7029,-47.627 L 57.6447,-47.4478 L 57.5645,-47.2774
 L 57.4635,-47.1183 L 57.3434,-46.9732 L 57.2061,-46.8442 L 57.0537,-46.7335 L 56.8887,-46.6428 L 56.7135,-46.5734
 L 56.5311,-46.5266 L 56.3442,-46.503 z
M 48.6558,-46.503 L 48.4689,-46.5266 L 48.2865,-46.5734 L 48.1113,-46.6428 L 47.9463,-46.7335 L 47.7939,-46.8442
 L 47.6565,-46.9732 L 47.5365,-47.1183 L 47.4355,-47.2774 L 47.3553,-47.4478 L 47.2971,-47.627 L 47.2618,-47.812
 L 47.25,-48 L 47.2618,-48.188 L 47.2971,-48.373 L 47.3553,-48.5522 L 47.4355,-48.7226 L 47.5365,-48.8817
 L 47.6565,-49.0268 L 47.7939,-49.1558 L 47.9463,-49.2665 L 48.1113,-49.3572 L 48.2865,-49.4266 L 48.4689,-49.4734
 L 48.6558,-49.497 L 48.8442,-49.497 L 49.0311,-49.4734 L 49.2135,-49.4266 L 49.3887,-49.3572 L 49.5537,-49.2665
 L 49.7061,-49.1558 L 49.8434,-49.0268 L 49.9635,-48.8817 L 50.0645,-48.7226 L 50.1447,-48.5522 L 50.2029,-48.373
 L 50.2382,-48.188 L 50.25,-48 L 50.2382,-47.812 L 50.2029,-47.627 L 50.1447,-47.4478 L 50.0645,-47.2774
 L 49.9635,-47.1183 L 49.8434,-46.9732 L 49.7061,-46.8442 L 49.5537,-46.7335 L 49.3887,-46.6428 L 49.2135,-46.5734
 L 49.0311,-46.5266 L 48.8442,-46.503 z
M 33.6558,-46.503 L 33.4689,-46.5266 L 33.2865,-46.5734 L 33.1113,-46.6428 L 32.9463,-46.7335 L 32.7939,-46.8442
 L 32.6565,-46.9732 L 32.5365,-47.1183 L 32.4355,-47.2774 L 32.3553,-47.4478 L 32.2971,-47.627 L 32.2618,-47.812
 L 32.25,-48 L 32.2618,-48.188 L 32.2971,-48.373 L 32.3553,-48.5522 L 32.4355,-48.7226 L 32.5365,-48.8817
 L 32.6565,-49.0268 L 32.7939,-49.1558 L 32.9463,-49.2665 L 33.1113,-49.3572 L 33.2865,-49.4266 L 33.4689,-49.4734
 L 33.6558,-49.497 L 33.8442,-49.497 L 34.0311,-49.4734 L 34.2135,-49.4266 L 34.3887,-49.3572 L 34.5537,-49.2665
 L 34.7061,-49.1558 L 34.8434,-49.0268 L 34.9635,-48.8817 L 35.0645,-48.7226 L 35.1447,-48.5522 L 35.2029,-48.373
 L 35.2382,-48.188 L 35.25,-48 L 35.2382,-47.812 L 35.2029,-47.627 L 35.1447,-47.4478 L 35.0645,-47.2774
 L 34.9635,-47.1183 L 34.8434,-46.9732 L 34.7061,-46.8442 L 34.5537,-46.7335 L 34.3887,-46.6428 L 34.2135,-46.5734
 L 34.0311,-46.5266 L 33.8442,-46.503 z
M 26.1558,-46.503 L 25.9689,-46.5266 L 25.7865,-46.5734 L 25.6113,-46.6428 L 25.4463,-46.7335 L 25.2939,-46.8442
 L 25.1565,-46.9732 L 25.0365,-47.1183 L 24.9355,-47.2774 L 24.8553,-47.4478 L 24.7971,-47.627 L 24.7618,-47.812
 L 24.75,-48 L 24.7618,-48.188 L 24.7971,-48.373 L 24.8553,-48.5522 L 24.9355,-48.7226 L 25.0365,-48.8817
 L 25.1565,-49.0268 L 25.2939,-49.1558 L 25.4463,-49.2665 L 25.6113,-49.3572 L 25.7865,-49.4266 L 25.9689,-49.4734
 L 26.1558,-49.497 L 26.3442,-49.497 L 26.5311,-49.4734 L 26.7135,-49.4266 L 26.8887,-49.3572 L 27.0537,-49.2665
 L 27.2061,-49.1558 L 27.3434,-49.0268 L 27.4635,-48.8817 L 27.5645,-48.7226 L 27.6447,-48.5522 L 27.7029,-48.373
 L 27.7382,-48.188 L 27.75,-48 L 27.7382,-47.812 L 27.7029,-47.627 L 27.6447,-47.4478 L 27.5645,-47.2774
 L 27.4635,-47.1183 L 27.3434,-46.9732 L 27.2061,-46.8442 L 27.0537,-46.7335 L 26.8887,-46.6428 L 26.7135,-46.5734
 L 26.5311,-46.5266 L 26.3442,-46.503 z
M 63.6558,-46.503 L 63.4689,-46.5266 L 63.2865,-46.5734 L 63.1113,-46.6428 L 62.9463,-46.7335 L 62.7939,-46.8442
 L 62.6565,-46.9732 L 62.5365,-47.1183 L 62.4355,-47.2774 L 62.3553,-47.4478 L 62.2971,-47.627 L 62.2618,-47.812
 L 62.25,-48 L 62.2618,-48.188 L 62.2971,-48.373 L 62.3553,-48.5522 L 62.4355,-48.7226 L 62.5365,-48.8817
 L 62.6565,-49.0268 L 62.7939,-49.1558 L 62.9463,-49.2665 L 63.1113,-49.3572 L 63.2865,-49.4266 L 63.4689,-49.4734
 L 63.6558,-49.497 L 63.8442,-49.497 L 64.0311,-49.4734 L 64.2135,-49.4266 L 64.3887,-49.3572 L 64.5537,-49.2665
 L 64.7061,-49.1558 L 64.8434,-49.0268 L 64.9635,-48.8817 L 65.0645,-48.7226 L 65.1447,-48.5522 L 65.2029,-48.373
 L 65.2382,-48.188 L 65.25,-48 L 65.2382,-47.812 L 65.2029,-47.627 L 65.1447,-47.4478 L 65.0645,-47.2774
 L 64.9635,-47.1183 L 64.8434,-46.9732 L 64.7061,-46.8442 L 64.5537,-46.7335 L 64.3887,-46.6428 L 64.2135,-46.5734
 L 64.0311,-46.5266 L 63.8442,-46.503 z
M -63.8442,-46.503 L -64.0311,-46.5266 L -64.2135,-46.5734 L -64.3887,-46.6428 L -64.5537,-46.7335 L -64.7061,-46.8442
 L -64.8434,-46.9732 L -64.9635,-47.1183 L -65.0645,-47.2774 L -65.1447,-47.4478 L -65.2029,-47.627 L -65.2382,-47.812
 L -65.25,-48 L -65.2382,-48.188 L -65.2029,-48.373 L -65.1447,-48.5522 L -65.0645,-48.7226 L -64.9635,-48.8817
 L -64.8434,-49.0268 L -64.7061,-49.1558 L -64.5537,-49.2665 L -64.3887,-49.3572 L -64.2135,-49.4266 L -64.0311,-49.4734
 L -63.8442,-49.497 L -63.6558,-49.497 L -63.4689,-49.4734 L -63.2865,-49.4266 L -63.1113,-49.3572 L -62.9463,-49.2665
 L -62.7939,-49.1558 L -62.6565,-49.0268 L -62.5365,-48.8817 L -62.4355,-48.7226 L -62.3553,-48.5522 L -62.2971,-48.373
 L -62.2618,-48.188 L -62.25,-48 L -62.2618,-47.812 L -62.2971,-47.627 L -62.3553,-47.4478 L -62.4355,-47.2774
 L -62.5365,-47.1183 L -62.6565,-46.9732 L -62.7939,-46.8442 L -62.9463,-46.7335 L -63.1113,-46.6428 L -63.2865,-46.5734
 L -63.4689,-46.5266 L -63.6558,-46.503 z
M 71.1558,-46.503 L 70.9689,-46.5266 L 70.7865,-46.5734 L 70.6113,-46.6428 L 70.4463,-46.7335 L 70.2939,-46.8442
 L 70.1565,-46.9732 L 70.0365,-47.1183 L 69.9355,-47.2774 L 69.8553,-47.4478 L 69.7971,-47.627 L 69.7618,-47.812
 L 69.75,-48 L 69.7618,-48.188 L 69.7971,-48.373 L 69.8553,-48.5522 L 69.9355,-48.7226 L 70.0365,-48.8817
 L 70.1565,-49.0268 L 70.2939,-49.1558 L 70.4463,-49.2665 L 70.6113,-49.3572 L 70.7865,-49.4266 L 70.9689,-49.4734
 L 71.1558,-49.497 L 71.3442,-49.497 L 71.5311,-49.4734 L 71.7135,-49.4266 L 71.8887,-49.3572 L 72.0537,-49.2665
 L 72.2061,-49.1558 L 72.3434,-49.0268 L 72.4635,-48.8817 L 72.5645,-48.7226 L 72.6447,-48.5522 L 72.7029,-48.373
 L 72.7382,-48.188 L 72.75,-48 L 72.7382,-47.812 L 72.7029,-47.627 L 72.6447,-47.4478 L 72.5645,-47.2774
 L 72.4635,-47.1183 L 72.3434,-46.9732 L 72.2061,-46.8442 L 72.0537,-46.7335 L 71.8887,-46.6428 L 71.7135,-46.5734
 L 71.5311,-46.5266 L 71.3442,-46.503 z
M -56.3442,-46.503 L -56.5311,-46.5266 L -56.7135,-46.5734 L -56.8887,-46.6428 L -57.0537,-46.7335 L -57.2061,-46.8442
 L -57.3434,-46.9732 L -57.4635,-47.1183 L -57.5645,-47.2774 L -57.6447,-47.4478 L -57.7029,-47.627 L -57.7382,-47.812
 L -57.75,-48 L -57.7382,-48.188 L -57.7029,-48.373 L -57.6447,-48.5522 L -57.5645,-48.7226 L -57.4635,-48.8817
 L -57.3434,-49.0268 L -57.2061,-49.1558 L -57.0537,-49.2665 L -56.8887,-49.3572 L -56.7135,-49.4266 L -56.5311,-49.4734
 L -56.3442,-49.497 L -56.1558,-49.497 L -55.9689,-49.4734 L -55.7865,-49.4266 L -55.6113,-49.3572 L -55.4463,-49.2665
 L -55.2939,-49.1558 L -55.1565,-49.0268 L -55.0365,-48.8817 L -54.9355,-48.7226 L -54.8553,-48.5522 L -54.7971,-48.373
 L -54.7618,-48.188 L -54.75,-48 L -54.7618,-47.812 L -54.7971,-47.627 L -54.8553,-47.4478 L -54.9355,-47.2774
 L -55.0365,-47.1183 L -55.1565,-46.9732 L -55.2939,-46.8442 L -55.4463,-46.7335 L -55.6113,-46.6428 L -55.7865,-46.5734
 L -55.9689,-46.5266 L -56.1558,-46.503 z
M -71.3442,-46.503 L -71.5311,-46.5266 L -71.7135,-46.5734 L -71.8887,-46.6428 L -72.0537,-46.7335 L -72.2061,-46.8442
 L -72.3434,-46.9732 L -72.4635,-47.1183 L -72.5645,-47.2774 L -72.6447,-47.4478 L -72.7029,-47.627 L -72.7382,-47.812
 L -72.75,-48 L -72.7382,-48.188 L -72.7029,-48.373 L -72.6447,-48.5522 L -72.5645,-48.7226 L -72.4635,-48.8817
 L -72.3434,-49.0268 L -72.2061,-49.1558 L -72.0537,-49.2665 L -71.8887,-49.3572 L -71.7135,-49.4266 L -71.5311,-49.4734
 L -71.3442,-49.497 L -71.1558,-49.497 L -70.9689,-49.4734 L -70.7865,-49.4266 L -70.6113,-49.3572 L -70.4463,-49.2665
 L -70.2939,-49.1558 L -70.1565,-49.0268 L -70.0365,-48.8817 L -69.9355,-48.7226 L -69.8553,-48.5522 L -69.7971,-48.373
 L -69.7618,-48.188 L -69.75,-48 L -69.7618,-47.812 L -69.7971,-47.627 L -69.8553,-47.4478 L -69.9355,-47.2774
 L -70.0365,-47.1183 L -70.1565,-46.9732 L -70.2939,-46.8442 L -70.4463,-46.7335 L -70.6113,-46.6428 L -70.7865,-46.5734
 L -70.9689,-46.5266 L -71.1558,-46.503 z
M -41.3442,-46.503 L -41.5311,-46.5266 L -41.7135,-46.5734 L -41.8887,-46.6428 L -42.0537,-46.7335 L -42.2061,-46.8442
 L -42.3434,-46.9732 L -42.4635,-47.1183 L -42.5645,-47.2774 L -42.6447,-47.4478 L -42.7029,-47.627 L -42.7382,-47.812
 L -42.75,-48 L -42.7382,-48.188 L -42.7029,-48.373 L -42.6447,-48.5522 L -42.5645,-48.7226 L -42.4635,-48.8817
 L -42.3434,-49.0268 L -42.2061,-49.1558 L -42.0537,-49.2665 L -41.8887,-49.3572 L -41.7135,-49.4266 L -41.5311,-49.4734
 L -41.3442,-49.497 L -41.1558,-49.497 L -40.9689,-49.4734 L -40.7865,-49.4266 L -40.6113,-49.3572 L -40.4463,-49.2665
 L -40.2939,-49.1558 L -40.1565,-49.0268 L -40.0365,-48.8817 L -39.9355,-48.7226 L -39.8553,-48.5522 L -39.7971,-48.373
 L -39.7618,-48.188 L -39.75,-48 L -39.7618,-47.812 L -39.7971,-47.627 L -39.8553,-47.4478 L -39.9355,-47.2774
 L -40.0365,-47.1183 L -40.1565,-46.9732 L -40.2939,-46.8442 L -40.4463,-46.7335 L -40.6113,-46.6428 L -40.7865,-46.5734
 L -40.9689,-46.5266 L -41.1558,-46.503 z
M 11.1558,-46.503 L 10.9689,-46.5266 L 10.7865,-46.5734 L 10.6113,-46.6428 L 10.4463,-46.7335 L 10.2939,-46.8442
 L 10.1565,-46.9732 L 10.0365,-47.1183 L 9.93553,-47.2774 L 9.85533,-47.4478 L 9.79712,-47.627 L 9.76183,-47.812
 L 9.75,-48 L 9.76183,-48.188 L 9.79712,-48.373 L 9.85533,-48.5522 L 9.93553,-48.7226 L 10.0365,-48.8817
 L 10.1565,-49.0268 L 10.2939,-49.1558 L 10.4463,-49.2665 L 10.6113,-49.3572 L 10.7865,-49.4266 L 10.9689,-49.4734
 L 11.1558,-49.497 L 11.3442,-49.497 L 11.5311,-49.4734 L 11.7135,-49.4266 L 11.8887,-49.3572 L 12.0537,-49.2665
 L 12.2061,-49.1558 L 12.3434,-49.0268 L 12.4635,-48.8817 L 12.5645,-48.7226 L 12.6447,-48.5522 L 12.7029,-48.373
 L 12.7382,-48.188 L 12.75,-48 L 12.7382,-47.812 L 12.7029,-47.627 L 12.6447,-47.4478 L 12.5645,-47.2774
 L 12.4635,-47.1183 L 12.3434,-46.9732 L 12.2061,-46.8442 L 12.0537,-46.7335 L 11.8887,-46.6428 L 11.7135,-46.5734
 L 11.5311,-46.5266 L 11.3442,-46.503 z
M 18.6558,-46.503 L 18.4689,-46.5266 L 18.2865,-46.5734 L 18.1113,-46.6428 L 17.9463,-46.7335 L 17.7939,-46.8442
 L 17.6565,-46.9732 L 17.5365,-47.1183 L 17.4355,-47.2774 L 17.3553,-47.4478 L 17.2971,-47.627 L 17.2618,-47.812
 L 17.25,-48 L 17.2618,-48.188 L 17.2971,-48.373 L 17.3553,-48.5522 L 17.4355,-48.7226 L 17.5365,-48.8817
 L 17.6565,-49.0268 L 17.7939,-49.1558 L 17.9463,-49.2665 L 18.1113,-49.3572 L 18.2865,-49.4266 L 18.4689,-49.4734
 L 18.6558,-49.497 L 18.8442,-49.497 L 19.0311,-49.4734 L 19.2135,-49.4266 L 19.3887,-49.3572 L 19.5537,-49.2665
 L 19.7061,-49.1558 L 19.8434,-49.0268 L 19.9635,-48.8817 L 20.0645,-48.7226 L 20.1447,-48.5522 L 20.2029,-48.373
 L 20.2382,-48.188 L 20.25,-48 L 20.2382,-47.812 L 20.2029,-47.627 L 20.1447,-47.4478 L 20.0645,-47.2774
 L 19.9635,-47.1183 L 19.8434,-46.9732 L 19.7061,-46.8442 L 19.5537,-46.7335 L 19.3887,-46.6428 L 19.2135,-46.5734
 L 19.0311,-46.5266 L 18.8442,-46.503 z
M -48.8442,-46.503 L -49.0311,-46.5266 L -49.2135,-46.5734 L -49.3887,-46.6428 L -49.5537,-46.7335 L -49.7061,-46.8442
 L -49.8434,-46.9732 L -49.9635,-47.1183 L -50.0645,-47.2774 L -50.1447,-47.4478 L -50.2029,-47.627 L -50.2382,-47.812
 L -50.25,-48 L -50.2382,-48.188 L -50.2029,-48.373 L -50.1447,-48.5522 L -50.0645,-48.7226 L -49.9635,-48.8817
 L -49.8434,-49.0268 L -49.7061,-49.1558 L -49.5537,-49.2665 L -49.3887,-49.3572 L -49.2135,-49.4266 L -49.0311,-49.4734
 L -48.8442,-49.497 L -48.6558,-49.497 L -48.4689,-49.4734 L -48.2865,-49.4266 L -48.1113,-49.3572 L -47.9463,-49.2665
 L -47.7939,-49.1558 L -47.6565,-49.0268 L -47.5365,-48.8817 L -47.4355,-48.7226 L -47.3553,-48.5522 L -47.2971,-48.373
 L -47.2618,-48.188 L -47.25,-48 L -47.2618,-47.812 L -47.2971,-47.627 L -47.3553,-47.4478 L -47.4355,-47.2774
 L -47.5365,-47.1183 L -47.6565,-46.9732 L -47.7939,-46.8442 L -47.9463,-46.7335 L -48.1113,-46.6428 L -48.2865,-46.5734
 L -48.4689,-46.5266 L -48.6558,-46.503 z
M 72.7184,-20.5443 L 73.0225,-20.6224 L 73.3144,-20.7379 L 73.5896,-20.8892 L 73.8436,-21.0737 L 74.0724,-21.2886
 L 74.2725,-21.5305 L 74.4408,-21.7956 L 74.5744,-22.0797 L 74.6714,-22.3783 L 74.7303,-22.6867 L 74.75,-23
 L 74.75,-25 L 74.7303,-25.3133 L 74.6714,-25.6217 L 74.5744,-25.9203 L 74.4408,-26.2044 L 74.2725,-26.4695
 L 74.0724,-26.7114 L 73.8436,-26.9263 L 73.5896,-27.1108 L 73.3144,-27.2621 L 73.0225,-27.3776 L 72.7184,-27.4557
 L 72.407,-27.4951 L -72.407,-27.4951 L -72.7184,-27.4557 L -73.0225,-27.3776 L -73.3144,-27.2621 L -73.5896,-27.1108
 L -73.8436,-26.9263 L -74.0724,-26.7114 L -74.2725,-26.4695 L -74.4408,-26.2044 L -74.5744,-25.9203 L -74.6714,-25.6217
 L -74.7303,-25.3133 L -74.75,-25 L -74.75,-23 L -74.7303,-22.6867 L -74.6714,-22.3783 L -74.5744,-22.0797
 L -74.4408,-21.7956 L -74.2725,-21.5305 L -74.0724,-21.2886 L -73.8436,-21.0737 L -73.5896,-20.8892 L -73.3144,-20.7379
 L -73.0225,-20.6224 L -72.7184,-20.5443 L -72.407,-20.5049 L 72.407,-20.5049 z
M -48.8442,-22.503 L -49.0311,-22.5266 L -49.2135,-22.5734 L -49.3887,-22.6428 L -49.5537,-22.7335 L -49.7061,-22.8442
 L -49.8434,-22.9732 L -49.9635,-23.1183 L -50.0645,-23.2774 L -50.1447,-23.4478 L -50.2029,-23.627 L -50.2382,-23.812
 L -50.25,-24 L -50.2382,-24.188 L -50.2029,-24.373 L -50.1447,-24.5522 L -50.0645,-24.7226 L -49.9635,-24.8817
 L -49.8434,-25.0268 L -49.7061,-25.1558 L -49.5537,-25.2665 L -49.3887,-25.3572 L -49.2135,-25.4266 L -49.0311,-25.4734
 L -48.8442,-25.497 L -48.6558,-25.497 L -48.4689,-25.4734 L -48.2865,-25.4266 L -48.1113,-25.3572 L -47.9463,-25.2665
 L -47.7939,-25.1558 L -47.6565,-25.0268 L -47.5365,-24.8817 L -47.4355,-24.7226 L -47.3553,-24.5522 L -47.2971,-24.373
 L -47.2618,-24.188 L -47.25,-24 L -47.2618,-23.812 L -47.2971,-23.627 L -47.3553,-23.4478 L -47.4355,-23.2774
 L -47.5365,-23.1183 L -47.6565,-22.9732 L -47.7939,-22.8442 L -47.9463,-22.7335 L -48.1113,-22.6428 L -48.2865,-22.5734
 L -48.4689,-22.5266 L -48.6558,-22.503 z
M -33.8442,-22.503 L -34.0311,-22.5266 L -34.2135,-22.5734 L -34.3887,-22.6428 L -34.5537,-22.7335 L -34.7061,-22.8442
 L -34.8434,-22.9732 L -34.9635,-23.1183 L -35.0645,-23.2774 L -35.1447,-23.4478 L -35.2029,-23.627 L -35.2382,-23.812
 L -35.25,-24 L -35.2382,-24.188 L -35.2029,-24.373 L -35.1447,-24.5522 L -35.0645,-24.7226 L -34.9635,-24.8817
 L -34.8434,-25.0268 L -34.7061,-25.1558 L -34.5537,-25.2665 L -34.3887,-25.3572 L -34.2135,-25.4266 L -34.0311,-25.4734
 L -33.8442,-25.497 L -33.6558,-25.497 L -33.4689,-25.4734 L -33.2865,-25.4266 L -33.1113,-25.3572 L -32.9463,-25.2665
 L -32.7939,-25.1558 L -32.6565,-25.0268 L -32.5365,-24.8817 L -32.4355,-24.7226 L -32.3553,-24.5522 L -32.2971,-24.373
 L -32.2618,-24.188 L -32.25,-24 L -32.2618,-23.812 L -32.2971,-23.627 L -32.3553,-23.4478 L -32.4355,-23.2774
 L -32.5365,-23.1183 L -32.6565,-22.9732 L -32.7939,-22.8442 L -32.9463,-22.7335 L -33.1113,-22.6428 L -33.2865,-22.5734
 L -33.4689,-22.5266 L -33.6558,-22.503 z
M -18.8442,-22.503 L -19.0311,-22.5266 L -19.2135,-22.5734 L -19.3887,-22.6428 L -19.5537,-22.7335 L -19.7061,-22.8442
 L -19.8434,-22.9732 L -19.9635,-23.1183 L -20.0645,-23.2774 L -20.1447,-23.4478 L -20.2029,-23.627 L -20.2382,-23.812
 L -20.25,-24 L -20.2382,-24.188 L -20.2029,-24.373 L -20.1447,-24.5522 L -20.0645,-24.7226 L -19.9635,-24.8817
 L -19.8434,-25.0268 L -19.7061,-25.1558 L -19.5537,-25.2665 L -19.3887,-25.3572 L -19.2135,-25.4266 L -19.0311,-25.4734
 L -18.8442,-25.497 L -18.6558,-25.497 L -18.4689,-25.4734 L -18.2865,-25.4266 L -18.1113,-25.3572 L -17.9463,-25.2665
 L -17.7939,-25.1558 L -17.6565,-25.0268 L -17.5365,-24.8817 L -17.4355,-24.7226 L -17.3553,-24.5522 L -17.2971,-24.373
 L -17.2618,-24.188 L -17.25,-24 L -17.2618,-23.812 L -17.2971,-23.627 L -17.3553,-23.4478 L -17.4355,-23.2774
 L -17.5365,-23.1183 L -17.6565,-22.9732 L -17.7939,-22.8442 L -17.9463,-22.7335 L -18.1113,-22.6428 L -18.2865,-22.5734
 L -18.4689,-22.5266 L -18.6558,-22.503 z
M -56.3442,-22.503 L -56.5311,-22.5266 L -56.7135,-22.5734 L -56.8887,-22.6428 L -57.0537,-22.7335 L -57.2061,-22.8442
 L -57.3434,-22.9732 L -57.4635,-23.1183 L -57.5645,-23.2774 L -57.6447,-23.4478 L -57.7029,-23.627 L -57.7382,-23.812
 L -57.75,-24 L -57.7382,-24.188 L -57.7029,-24.373 L -57.6447,-24.5522 L -57.5645,-24.7226 L -57.4635,-24.8817
 L -57.3434,-25.0268 L -57.2061,-25.1558 L -57.0537,-25.2665 L -56.8887,-25.3572 L -56.7135,-25.4266 L -56.5311,-25.4734
 L -56.3442,-25.497 L -56.1558,-25.497 L -55.9689,-25.4734 L -55.7865,-25.4266 L -55.6113,-25.3572 L -55.4463,-25.2665
 L -55.2939,-25.1558 L -55.1565,-25.0268 L -55.0365,-24.8817 L -54.9355,-24.7226 L -54.8553,-24.5522 L -54.7971,-24.373
 L -54.7618,-24.188 L -54.75,-24 L -54.7618,-23.812 L -54.7971,-23.627 L -54.8553,-23.4478 L -54.9355,-23.2774
 L -55.0365,-23.1183 L -55.1565,-22.9732 L -55.2939,-22.8442 L -55.4463,-22.7335 L -55.6113,-22.6428 L -55.7865,-22.5734
 L -55.9689,-22.5266 L -56.1558,-22.503 z
M 26.1558,-22.503 L 25.9689,-22.5266 L 25.7865,-22.5734 L 25.6113,-22.6428 L 25.4463,-22.7335 L 25.2939,-22.8442
 L 25.1565,-22.9732 L 25.0365,-23.1183 L 24.9355,-23.2774 L 24.8553,-23.4478 L 24.7971,-23.627 L 24.7618,-23.812
 L 24.75,-24 L 24.7618,-24.188 L 24.7971,-24.373 L 24.8553,-24.5522 L 24.9355,-24.7226 L 25.0365,-24.8817
 L 25.1565,-25.0268 L 25.2939,-25.1558 L 25.4463,-25.2665 L 25.6113,-25.3572 L 25.7865,-25.4266 L 25.9689,-25.4734
 L 26.1558,-25.497 L 26.3442,-25.497 L 26.5311,-25.4734 L 26.7135,-25.4266 L 26.8887,-25.3572 L 27.0537,-25.2665
 L 27.2061,-25.1558 L 27.3434,-25.0268 L 27.4635,-24.8817 L 27.5645,-24.7226 L 27.6447,-24.5522 L 27.7029,-24.373
 L 27.7382,-24.188 L 27.75,-24 L 27.7382,-23.812 L 27.7029,-23.627 L 27.6447,-23.4478 L 27.5645,-23.2774
 L 27.4635,-23.1183 L 27.3434,-22.9732 L 27.2061,-22.8442 L 27.0537,-22.7335 L 26.8887,-22.6428 L 26.7135,-22.5734
 L 26.5311,-22.5266 L 26.3442,-22.503 z
M -63.8442,-22.503 L -64.0311,-22.5266 L -64.2135,-22.5734 L -64.3887,-22.6428 L -64.5537,-22.7335 L -64.7061,-22.8442
 L -64.8434,-22.9732 L -64.9635,-23.1183 L -65.0645,-23.2774 L -65.1447,-23.4478 L -65.2029,-23.627 L -65.2382,-23.812
 L -65.25,-24 L -65.2382,-24.188 L -65.2029,-24.373 L -65.1447,-24.5522 L -65.0645,-24.7226 L -64.9635,-24.8817
 L -64.8434,-25.0268 L -64.7061,-25.1558 L -64.5537,-25.2665 L -64.3887,-25.3572 L -64.2135,-25.4266 L -64.0311,-25.4734
 L -63.8442,-25.497 L -63.6558,-25.497 L -63.4689,-25.4734 L -63.2865,-25.4266 L -63.1113,-25.3572 L -62.9463,-25.2665
 L -62.7939,-25.1558 L -62.6565,-25.0268 L -62.5365,-24.8817 L -62.4355,-24.7226 L -62.3553,-24.5522 L -62.2971,-24.373
 L -62.2618,-24.188 L -62.25,-24 L -62.2618,-23.812 L -62.2971,-23.627 L -62.3553,-23.4478 L -62.4355,-23.2774
 L -62.5365,-23.1183 L -62.6565,-22.9732 L -62.7939,-22.8442 L -62.9463,-22.7335 L -63.1113,-22.6428 L -63.2865,-22.5734
 L -63.4689,-22.5266 L -63.6558,-22.503 z
M 33.6558,-22.503 L 33.4689,-22.5266 L 33.2865,-22.5734 L 33.1113,-22.6428 L 32.9463,-22.7335 L 32.7939,-22.8442
 L 32.6565,-22.9732 L 32.5365,-23.1183 L 32.4355,-23.2774 L 32.3553,-23.4478 L 32.2971,-23.627 L 32.2618,-23.812
 L 32.25,-24 L 32.2618,-24.188 L 32.2971,-24.373 L 32.3553,-24.5522 L 32.4355,-24.7226 L 32.5365,-24.8817
 L 32.6565,-25.0268 L 32.7939,-25.1558 L 32.9463,-25.2665 L 33.1113,-25.3572 L 33.2865,-25.4266 L 33.4689,-25.4734
 L 33.6558,-25.497 L 33.8442,-25.497 L 34.0311,-25.4734 L 34.2135,-25.4266 L 34.3887,-25.3572 L 34.5537,-25.2665
 L 34.7061,-25.1558 L 34.8434,-25.0268 L 34.9635,-24.8817 L 35.0645,-24.7226 L 35.1447,-24.5522 L 35.2029,-24.373
 L 35.2382,-24.188 L 35.25,-24 L 35.2382,-23.812 L 35.2029,-23.627 L 35.1447,-23.4478 L 35.0645,-23.2774
 L 34.9635,-23.1183 L 34.8434,-22.9732 L 34.7061,-22.8442 L 34.5537,-22.7335 L 34.3887,-22.6428 L 34.2135,-22.5734
 L 34.0311,-22.5266 L 33.8442,-22.503 z
M -3.84418,-22.503 L -4.03107,-22.5266 L -4.21352,-22.5734 L -4.38866,-22.6428 L -4.55373,-22.7335 L -4.70613,-22.8442
 L -4.84344,-22.9732 L -4.96352,-23.1183 L -5.06445,-23.2774 L -5.14465,-23.4478 L -5.20287,-23.627 L -5.23816,-23.812
 L -5.25,-24 L -5.23816,-24.188 L -5.20287,-24.373 L -5.14465,-24.5522 L -5.06445,-24.7226 L -4.96352,-24.8817
 L -4.84344,-25.0268 L -4.70613,-25.1558 L -4.55373,-25.2665 L -4.38866,-25.3572 L -4.21352,-25.4266 L -4.03107,-25.4734
 L -3.84418,-25.497 L -3.65581,-25.497 L -3.46892,-25.4734 L -3.28647,-25.4266 L -3.11133,-25.3572 L -2.94626,-25.2665
 L -2.79385,-25.1558 L -2.65654,-25.0268 L -2.53647,-24.8817 L -2.43553,-24.7226 L -2.35533,-24.5522 L -2.29712,-24.373
 L -2.26183,-24.188 L -2.25,-24 L -2.26183,-23.812 L -2.29712,-23.627 L -2.35533,-23.4478 L -2.43553,-23.2774
 L -2.53647,-23.1183 L -2.65654,-22.9732 L -2.79385,-22.8442 L -2.94626,-22.7335 L -3.11133,-22.6428 L -3.28647,-22.5734
 L -3.46892,-22.5266 L -3.65581,-22.503 z
M 56.1558,-22.503 L 55.9689,-22.5266 L 55.7865,-22.5734 L 55.6113,-22.6428 L 55.4463,-22.7335 L 55.2939,-22.8442
 L 55.1565,-22.9732 L 55.0365,-23.1183 L 54.9355,-23.2774 L 54.8553,-23.4478 L 54.7971,-23.627 L 54.7618,-23.812
 L 54.75,-24 L 54.7618,-24.188 L 54.7971,-24.373 L 54.8553,-24.5522 L 54.9355,-24.7226 L 55.0365,-24.8817
 L 55.1565,-25.0268 L 55.2939,-25.1558 L 55.4463,-25.2665 L 55.6113,-25.3572 L 55.7865,-25.4266 L 55.9689,-25.4734
 L 56.1558,-25.497 L 56.3442,-25.497 L 56.5311,-25.4734 L 56.7135,-25.4266 L 56.8887,-25.3572 L 57.0537,-25.2665
 L 57.2061,-25.1558 L 57.3434,-25.0268 L 57.4635,-24.8817 L 57.5645,-24.7226 L 57.6447,-24.5522 L 57.7029,-24.373
 L 57.7382,-24.188 L 57.75,-24 L 57.7382,-23.812 L 57.7029,-23.627 L 57.6447,-23.4478 L 57.5645,-23.2774
 L 57.4635,-23.1183 L 57.3434,-22.9732 L 57.2061,-22.8442 L 57.0537,-22.7335 L 56.8887,-22.6428 L 56.7135,-22.5734
 L 56.5311,-22.5266 L 56.3442,-22.503 z
M -41.3442,-22.503 L -41.5311,-22.5266 L -41.7135,-22.5734 L -41.8887,-22.6428 L -42.0537,-22.7335 L -42.2061,-22.8442
 L -42.3434,-22.9732 L -42.4635,-23.1183 L -42.5645,-23.2774 L -42.6447,-23.4478 L -42.7029,-23.627 L -42.7382,-23.812
 L -42.75,-24 L -42.7382,-24.188 L -42.7029,-24.373 L -42.6447,-24.5522 L -42.5645,-24.7226 L -42.4635,-24.8817
 L -42.3434,-25.0268 L -42.2061,-25.1558 L -42.0537,-25.2665 L -41.8887,-25.3572 L -41.7135,-25.4266 L -41.5311,-25.4734
 L -41.3442,-25.497 L -41.1558,-25.497 L -40.9689,-25.4734 L -40.7865,-25.4266 L -40.6113,-25.3572 L -40.4463,-25.2665
 L -40.2939,-25.1558 L -40.1565,-25.0268 L -40.0365,-24.8817 L -39.9355,-24.7226 L -39.8553,-24.5522 L -39.7971,-24.373
 L -39.7618,-24.188 L -39.75,-24 L -39.7618,-23.812 L -39.7971,-23.627 L -39.8553,-23.4478 L -39.9355,-23.2774
 L -40.0365,-23.1183 L -40.1565,-22.9732 L -40.2939,-22.8442 L -40.4463,-22.7335 L -40.6113,-22.6428 L -40.7865,-22.5734
 L -40.9689,-22.5266 L -41.1558,-22.503 z
M -71.3442,-22.503 L -71.5311,-22.5266 L -71.7135,-22.5734 L -71.8887,-22.6428 L -72.0537,-22.7335 L -72.2061,-22.8442
 L -72.3434,-22.9732 L -72.4635,-23.1183 L -72.5645,-23.2774 L -72.6447,-23.4478 L -72.7029,-23.627 L -72.7382,-23.812
 L -72.75,-24 L -72.7382,-24.188 L -72.7029,-24.373 L -72.6447,-24.5522 L -72.5645,-24.7226 L -72.4635,-24.8817
 L -72.3434,-25.0268 L -72.2061,-25.1558 L -72.0537,-25.2665 L -71.8887,-25.3572 L -71.7135,-25.4266 L -71.5311,-25.4734
 L -71.3442,-25.497 L -71.1558,-25.497 L -70.9689,-25.4734 L -70.7865,-25.4266 L -70.6113,-25.3572 L -70.4463,-25.2665
 L -70.2939,-25.1558 L -70.1565,-25.0268 L -70.0365,-24.8817 L -69.9355,-24.7226 L -69.8553,-24.5522 L -69.7971,-24.373
 L -69.7618,-24.188 L -69.75,-24 L -69.7618,-23.812 L -69.7971,-23.627 L -69.8553,-23.4478 L -69.9355,-23.2774
 L -70.0365,-23.1183 L -70.1565,-22.9732 L -70.2939,-22.8442 L -70.4463,-22.7335 L -70.6113,-22.6428 L -70.7865,-22.5734
 L -70.9689,-22.5266 L -71.1558,-22.503 z
M 63.6558,-22.503 L 63.4689,-22.5266 L 63.2865,-22.5734 L 63.1113,-22.6428 L 62.9463,-22.7335 L 62.7939,-22.8442
 L 62.6565,-22.9732 L 62.5365,-23.1183 L 62.4355,-23.2774 L 62.3553,-23.4478 L 62.2971,-23.627 L 62.2618,-23.812
 L 62.25,-24 L 62.2618,-24.188 L 62.2971,-24.373 L 62.3553,-24.5522 L 62.4355,-24.7226 L 62.5365,-24.8817
 L 62.6565,-25.0268 L 62.7939,-25.1558 L 62.9463,-25.2665 L 63.1113,-25.3572 L 63.2865,-25.4266 L 63.4689,-25.4734
 L 63.6558,-25.497 L 63.8442,-25.497 L 64.0311,-25.4734 L 64.2135,-25.4266 L 64.3887,-25.3572 L 64.5537,-25.2665
 L 64.7061,-25.1558 L 64.8434,-25.0268 L 64.9635,-24.8817 L 65.0645,-24.7226 L 65.1447,-24.5522 L 65.2029,-24.373
 L 65.2382,-24.188 L 65.25,-24 L 65.2382,-23.812 L 65.2029,-23.627 L 65.1447,-23.4478 L 65.0645,-23.2774
 L 64.9635,-23.1183 L 64.8434,-22.9732 L 64.7061,-22.8442 L 64.5537,-22.7335 L 64.3887,-22.6428 L 64.2135,-22.5734
 L 64.0311,-22.5266 L 63.8442,-22.503 z
M 3.65581,-22.503 L 3.46892,-22.5266 L 3.28647,-22.5734 L 3.11133,-22.6428 L 2.94626,-22.7335 L 2.79385,-22.8442
 L 2.65654,-22.9732 L 2.53647,-23.1183 L 2.43553,-23.2774 L 2.35533,-23.4478 L 2.29712,-23.627 L 2.26183,-23.812
 L 2.25,-24 L 2.26183,-24.188 L 2.29712,-24.373 L 2.35533,-24.5522 L 2.43553,-24.7226 L 2.53647,-24.8817
 L 2.65654,-25.0268 L 2.79385,-25.1558 L 2.94626,-25.2665 L 3.11133,-25.3572 L 3.28647,-25.4266 L 3.46892,-25.4734
 L 3.65581,-25.497 L 3.84418,-25.497 L 4.03107,-25.4734 L 4.21352,-25.4266 L 4.38866,-25.3572 L 4.55373,-25.2665
 L 4.70613,-25.1558 L 4.84344,-25.0268 L 4.96352,-24.8817 L 5.06445,-24.7226 L 5.14465,-24.5522 L 5.20287,-24.373
 L 5.23816,-24.188 L 5.25,-24 L 5.23816,-23.812 L 5.20287,-23.627 L 5.14465,-23.4478 L 5.06445,-23.2774
 L 4.96352,-23.1183 L 4.84344,-22.9732 L 4.70613,-22.8442 L 4.55373,-22.7335 L 4.38866,-22.6428 L 4.21352,-22.5734
 L 4.03107,-22.5266 L 3.84418,-22.503 z
M 71.1558,-22.503 L 70.9689,-22.5266 L 70.7865,-22.5734 L 70.6113,-22.6428 L 70.4463,-22.7335 L 70.2939,-22.8442
 L 70.1565,-22.9732 L 70.0365,-23.1183 L 69.9355,-23.2774 L 69.8553,-23.4478 L 69.7971,-23.627 L 69.7618,-23.812
 L 69.75,-24 L 69.7618,-24.188 L 69.7971,-24.373 L 69.8553,-24.5522 L 69.9355,-24.7226 L 70.0365,-24.8817
 L 70.1565,-25.0268 L 70.2939,-25.1558 L 70.4463,-25.2665 L 70.6113,-25.3572 L 70.7865,-25.4266 L 70.9689,-25.4734
 L 71.1558,-25.497 L 71.3442,-25.497 L 71.5311,-25.4734 L 71.7135,-25.4266 L 71.8887,-25.3572 L 72.0537,-25.2665
 L 72.2061,-25.1558 L 72.3434,-25.0268 L 72.4635,-24.8817 L 72.5645,-24.7226 L 72.6447,-24.5522 L 72.7029,-24.373
 L 72.7382,-24.188 L 72.75,-24 L 72.7382,-23.812 L 72.7029,-23.627 L 72.6447,-23.4478 L 72.5645,-23.2774
 L 72.4635,-23.1183 L 72.3434,-22.9732 L 72.2061,-22.8442 L 72.0537,-22.7335 L 71.8887,-22.6428 L 71.7135,-22.5734
 L 71.5311,-22.5266 L 71.3442,-22.503 z
M -26.3442,-22.503 L -26.5311,-22.5266 L -26.7135,-22.5734 L -26.8887,-22.6428 L -27.0537,-22.7335 L -27.2061,-22.8442
 L -27.3434,-22.9732 L -27.4635,-23.1183 L -27.5645,-23.2774 L -27.6447,-23.4478 L -27.7029,-23.627 L -27.7382,-23.812
 L -27.75,-24 L -27.7382,-24.188 L -27.7029,-24.373 L -27.6447,-24.5522 L -27.5645,-24.7226 L -27.4635,-24.8817
 L -27.3434,-25.0268 L -27.2061,-25.1558 L -27.0537,-25.2665 L -26.8887,-25.3572 L -26.7135,-25.4266 L -26.5311,-25.4734
 L -26.3442,-25.497 L -26.1558,-25.497 L -25.9689,-25.4734 L -25.7865,-25.4266 L -25.6113,-25.3572 L -25.4463,-25.2665
 L -25.2939,-25.1558 L -25.1565,-25.0268 L -25.0365,-24.8817 L -24.9355,-24.7226 L -24.8553,-24.5522 L -24.7971,-24.373
 L -24.7618,-24.188 L -24.75,-24 L -24.7618,-23.812 L -24.7971,-23.627 L -24.8553,-23.4478 L -24.9355,-23.2774
 L -25.0365,-23.1183 L -25.1565,-22.9732 L -25.2939,-22.8442 L -25.4463,-22.7335 L -25.6113,-22.6428 L -25.7865,-22.5734
 L -25.9689,-22.5266 L -26.1558,-22.503 z
M -11.3442,-22.503 L -11.5311,-22.5266 L -11.7135,-22.5734 L -11.8887,-22.6428 L -12.0537,-22.7335 L -12.2061,-22.8442
 L -12.3434,-22.9732 L -12.4635,-23.1183 L -12.5645,-23.2774 L -12.6447,-23.4478 L -12.7029,-23.627 L -12.7382,-23.812
 L -12.75,-24 L -12.7382,-24.188 L -12.7029,-24.373 L -12.6447,-24.5522 L -12.5645,-24.7226 L -12.4635,-24.8817
 L -12.3434,-25.0268 L -12.2061,-25.1558 L -12.0537,-25.2665 L -11.8887,-25.3572 L -11.7135,-25.4266 L -11.5311,-25.4734
 L -11.3442,-25.497 L -11.1558,-25.497 L -10.9689,-25.4734 L -10.7865,-25.4266 L -10.6113,-25.3572 L -10.4463,-25.2665
 L -10.2939,-25.1558 L -10.1565,-25.0268 L -10.0365,-24.8817 L -9.93553,-24.7226 L -9.85533,-24.5522 L -9.79712,-24.373
 L -9.76183,-24.188 L -9.75,-24 L -9.76183,-23.812 L -9.79712,-23.627 L -9.85533,-23.4478 L -9.93553,-23.2774
 L -10.0365,-23.1183 L -10.1565,-22.9732 L -10.2939,-22.8442 L -10.4463,-22.7335 L -10.6113,-22.6428 L -10.7865,-22.5734
 L -10.9689,-22.5266 L -11.1558,-22.503 z
M 11.1558,-22.503 L 10.9689,-22.5266 L 10.7865,-22.5734 L 10.6113,-22.6428 L 10.4463,-22.7335 L 10.2939,-22.8442
 L 10.1565,-22.9732 L 10.0365,-23.1183 L 9.93553,-23.2774 L 9.85533,-23.4478 L 9.79712,-23.627 L 9.76183,-23.812
 L 9.75,-24 L 9.76183,-24.188 L 9.79712,-24.373 L 9.85533,-24.5522 L 9.93553,-24.7226 L 10.0365,-24.8817
 L 10.1565,-25.0268 L 10.2939,-25.1558 L 10.4463,-25.2665 L 10.6113,-25.3572 L 10.7865,-25.4266 L 10.9689,-25.4734
 L 11.1558,-25.497 L 11.3442,-25.497 L 11.5311,-25.4734 L 11.7135,-25.4266 L 11.8887,-25.3572 L 12.0537,-25.2665
 L 12.2061,-25.1558 L 12.3434,-25.0268 L 12.4635,-24.8817 L 12.5645,-24.7226 L 12.6447,-24.5522 L 12.7029,-24.373
 L 12.7382,-24.188 L 12.75,-24 L 12.7382,-23.812 L 12.7029,-23.627 L 12.6447,-23.4478 L 12.5645,-23.2774
 L 12.4635,-23.1183 L 12.3434,-22.9732 L 12.2061,-22.8442 L 12.0537,-22.7335 L 11.8887,-22.6428 L 11.7135,-22.5734
 L 11.5311,-22.5266 L 11.3442,-22.503 z
M 48.6558,-22.503 L 48.4689,-22.5266 L 48.2865,-22.5734 L 48.1113,-22.6428 L 47.9463,-22.7335 L 47.7939,-22.8442
 L 47.6565,-22.9732 L 47.5365,-23.1183 L 47.4355,-23.2774 L 47.3553,-23.4478 L 47.2971,-23.627 L 47.2618,-23.812
 L 47.25,-24 L 47.2618,-24.188 L 47.2971,-24.373 L 47.3553,-24.5522 L 47.4355,-24.7226 L 47.5365,-24.8817
 L 47.6565,-25.0268 L 47.7939,-25.1558 L 47.9463,-25.2665 L 48.1113,-25.3572 L 48.2865,-25.4266 L 48.4689,-25.4734
 L 48.6558,-25.497 L 48.8442,-25.497 L 49.0311,-25.4734 L 49.2135,-25.4266 L 49.3887,-25.3572 L 49.5537,-25.2665
 L 49.7061,-25.1558 L 49.8434,-25.0268 L 49.9635,-24.8817 L 50.0645,-24.7226 L 50.1447,-24.5522 L 50.2029,-24.373
 L 50.2382,-24.188 L 50.25,-24 L 50.2382,-23.812 L 50.2029,-23.627 L 50.1447,-23.4478 L 50.0645,-23.2774
 L 49.9635,-23.1183 L 49.8434,-22.9732 L 49.7061,-22.8442 L 49.5537,-22.7335 L 49.3887,-22.6428 L 49.2135,-22.5734
 L 49.0311,-22.5266 L 48.8442,-22.503 z
M 18.6558,-22.503 L 18.4689,-22.5266 L 18.2865,-22.5734 L 18.1113,-22.6428 L 17.9463,-22.7335 L 17.7939,-22.8442
 L 17.6565,-22.9732 L 17.5365,-23.1183 L 17.4355,-23.2774 L 17.3553,-23.4478 L 17.2971,-23.627 L 17.2618,-23.812
 L 17.25,-24 L 17.2618,-24.188 L 17.2971,-24.373 L 17.3553,-24.5522 L 17.4355,-24.7226 L 17.5365,-24.8817
 L 17.6565,-25.0268 L 17.7939,-25.1558 L 17.9463,-25.2665 L 18.1113,-25.3572 L 18.2865,-25.4266 L 18.4689,-25.4734
 L 18.6558,-25.497 L 18.8442,-25.497 L 19.0311,-25.4734 L 19.2135,-25.4266 L 19.3887,-25.3572 L 19.5537,-25.2665
 L 19.7061,-25.1558 L 19.8434,-25.0268 L 19.9635,-24.8817 L 20.0645,-24.7226 L 20.1447,-24.5522 L 20.2029,-24.373
 L 20.2382,-24.188 L 20.25,-24 L 20.2382,-23.812 L 20.2029,-23.627 L 20.1447,-23.4478 L 20.0645,-23.2774
 L 19.9635,-23.1183 L 19.8434,-22.9732 L 19.7061,-22.8442 L 19.5537,-22.7335 L 19.3887,-22.6428 L 19.2135,-22.5734
 L 19.0311,-22.5266 L 18.8442,-22.503 z
M 41.1558,-22.503 L 40.9689,-22.5266 L 40.7865,-22.5734 L 40.6113,-22.6428 L 40.4463,-22.7335 L 40.2939,-22.8442
 L 40.1565,-22.9732 L 40.0365,-23.1183 L 39.9355,-23.2774 L 39.8553,-23.4478 L 39.7971,-23.627 L 39.7618,-23.812
 L 39.75,-24 L 39.7618,-24.188 L 39.7971,-24.373 L 39.8553,-24.5522 L 39.9355,-24.7226 L 40.0365,-24.8817
 L 40.1565,-25.0268 L 40.2939,-25.1558 L 40.4463,-25.2665 L 40.6113,-25.3572 L 40.7865,-25.4266 L 40.9689,-25.4734
 L 41.1558,-25.497 L 41.3442,-25.497 L 41.5311,-25.4734 L 41.7135,-25.4266 L 41.8887,-25.3572 L 42.0537,-25.2665
 L 42.2061,-25.1558 L 42.3434,-25.0268 L 42.4635,-24.8817 L 42.5645,-24.7226 L 42.6447,-24.5522 L 42.7029,-24.373
 L 42.7382,-24.188 L 42.75,-24 L 42.7382,-23.812 L 42.7029,-23.627 L 42.6447,-23.4478 L 42.5645,-23.2774
 L 42.4635,-23.1183 L 42.3434,-22.9732 L 42.2061,-22.8442 L 42.0537,-22.7335 L 41.8887,-22.6428 L 41.7135,-22.5734
 L 41.5311,-22.5266 L 41.3442,-22.503 z
" stroke="black" fill="lightgray" stroke-width="0.5"/>
</svg>
