<?xml version="1.0" standalone="no"?>
<!DOCTYPE svg PUBLIC "-//W3C//DTD SVG 1.1//EN" "http://www.w3.org/Graphics/SVG/1.1/DTD/svg11.dtd">
<svg width="44mm" height="213mm" viewBox="-22 -213 44 213" xmlns="http://www.w3.org/2000/svg" version="1.1">
<title>OpenSCAD Model</title>
<path d="
M 22,-207.5 L 21.9606,-208.127 L 21.8429,-208.743 L 21.6489,-209.341 L 21.3815,-209.909 L 21.0451,-210.439
 L 20.6448,-210.923 L 20.1871,-211.353 L 19.6791,-211.722 L 19.1289,-212.024 L 18.5451,-212.255 L 17.9369,-212.411
 L 17.3139,-212.49 L -17.3139,-212.49 L -17.9369,-212.411 L -18.5451,-212.255 L -19.1289,-212.024 L -19.6791,-211.722
 L -20.1871,-211.353 L -20.6448,-210.923 L -21.0451,-210.439 L -21.3815,-209.909 L -21.6489,-209.341 L -21.8429,-208.743
 L -21.9606,-208.127 L -22,-207.5 L -22,-162 L 22,-162 z
M -15.1884,-202.506 L -15.5621,-202.553 L -15.927,-202.647 L -16.2773,-202.786 L -16.6075,-202.967 L -16.9123,-203.188
 L -17.1869,-203.446 L -17.427,-203.737 L -17.6289,-204.055 L -17.7893,-204.396 L -17.9057,-204.754 L -17.9763,-205.124
 L -18,-205.5 L -17.9763,-205.876 L -17.9057,-206.246 L -17.7893,-206.604 L -17.6289,-206.945 L -17.427,-207.263
 L -17.1869,-207.554 L -16.9123,-207.812 L -16.6075,-208.033 L -16.2773,-208.214 L -15.927,-208.353 L -15.5621,-208.447
 L -15.1884,-208.494 L -14.8116,-208.494 L -14.4379,-208.447 L -14.0729,-208.353 L -13.7227,-208.214 L -13.3925,-208.033
 L -13.0877,-207.812 L -12.8131,-207.554 L -12.5729,-207.263 L -12.3711,-206.945 L -12.2107,-206.604 L -12.0942,-206.246
 L -12.0237,-205.876 L -12,-205.5 L -12.0237,-205.124 L -12.0942,-204.754 L -12.2107,-204.396 L -12.3711,-204.055
 L -12.5729,-203.737 L -12.8131,-203.446 L -13.0877,-203.188 L -13.3925,-202.967 L -13.7227,-202.786 L -14.0729,-202.647
 L -14.4379,-202.553 L -14.8116,-202.506 z
M -0.18837,-202.506 L -0.562134,-202.553 L -0.927048,-202.647 L -1.27733,-202.786 L -1.60747,-202.967 L -1.91226,-203.188
 L -2.1869,-203.446 L -2.42705,-203.737 L -2.62891,-204.055 L -2.78932,-204.396 L -2.90575,-204.754 L -2.97633,-205.124
 L -3,-205.5 L -2.97633,-205.876 L -2.90575,-206.246 L -2.78932,-206.604 L -2.62891,-206.945 L -2.42705,-207.263
 L -2.1869,-207.554 L -1.91226,-207.812 L -1.60747,-208.033 L -1.27733,-208.214 L -0.927048,-208.353 L -0.562134,-208.447
 L -0.18837,-208.494 L 0.18837,-208.494 L 0.562134,-208.447 L 0.927048,-208.353 L 1.27733,-208.214 L 1.60747,-208.033
 L 1.91226,-207.812 L 2.1869,-207.554 L 2.42705,-207.263 L 2.62891,-206.945 L 2.78932,-206.604 L 2.90575,-206.246
 L 2.97633,-205.876 L 3,-205.5 L 2.97633,-205.124 L 2.90575,-204.754 L 2.78932,-204.396 L 2.62891,-204.055
 L 2.42705,-203.737 L 2.1869,-203.446 L 1.91226,-203.188 L 1.60747,-202.967 L 1.27733,-202.786 L 0.927048,-202.647
 L 0.562134,-202.553 L 0.18837,-202.506 z
M 14.8116,-202.506 L 14.4379,-202.553 L 14.0729,-202.647 L 13.7227,-202.786 L 13.3925,-202.967 L 13.0877,-203.188
 L 12.8131,-203.446 L 12.5729,-203.737 L 12.3711,-204.055 L 12.2107,-204.396 L 12.0942,-204.754 L 12.0237,-205.124
 L 12,-205.5 L 12.0237,-205.876 L 12.0942,-206.246 L 12.2107,-206.604 L 12.3711,-206.945 L 12.5729,-207.263
 L 12.8131,-207.554 L 13.0877,-207.812 L 13.3925,-208.033 L 13.7227,-208.214 L 14.0729,-208.353 L 14.4379,-208.447
 L 14.8116,-208.494 L 15.1884,-208.494 L 15.5621,-208.447 L 15.927,-208.353 L 16.2773,-208.214 L 16.6075,-208.033
 L 16.9123,-207.812 L 17.1869,-207.554 L 17.427,-207.263 L 17.6289,-206.945 L 17.7893,-206.604 L 17.9057,-206.246
 L 17.9763,-205.876 L 18,-205.5 L 17.9763,-205.124 L 17.9057,-204.754 L 17.7893,-204.396 L 17.6289,-204.055
 L 17.427,-203.737 L 17.1869,-203.446 L 16.9123,-203.188 L 16.6075,-202.967 L 16.2773,-202.786 L 15.927,-202.647
 L 15.5621,-202.553 L 15.1884,-202.506 z
M -0.18837,-187.506 L -0.562134,-187.553 L -0.927048,-187.647 L -1.27733,-187.786 L -1.60747,-187.967 L -1.91226,-188.188
 L -2.1869,-188.446 L -2.42705,-188.737 L -2.62891,-189.055 L -2.78932,-189.396 L -2.90575,-189.754 L -2.97633,-190.124
 L -3,-190.5 L -2.97633,-190.876 L -2.90575,-191.246 L -2.78932,-191.604 L -2.62891,-191.945 L -2.42705,-192.263
 L -2.1869,-192.554 L -1.91226,-192.812 L -1.60747,-193.033 L -1.27733,-193.214 L -0.927048,-193.353 L -0.562134,-193.447
 L -0.18837,-193.494 L 0.18837,-193.494 L 0.562134,-193.447 L 0.927048,-193.353 L 1.27733,-193.214 L 1.60747,-193.033
 L 1.91226,-192.812 L 2.1869,-192.554 L 2.42705,-192.263 L 2.62891,-191.945 L 2.78932,-191.604 L 2.90575,-191.246
 L 2.97633,-190.876 L 3,-190.5 L 2.97633,-190.124 L 2.90575,-189.754 L 2.78932,-189.396 L 2.62891,-189.055
 L 2.42705,-188.737 L 2.1869,-188.446 L 1.91226,-188.188 L 1.60747,-187.967 L 1.27733,-187.786 L 0.927048,-187.647
 L 0.562134,-187.553 L 0.18837,-187.506 z
M 14.8116,-187.506 L 14.4379,-187.553 L 14.0729,-187.647 L 13.7227,-187.786 L 13.3925,-187.967 L 13.0877,-188.188
 L 12.8131,-188.446 L 12.5729,-188.737 L 12.3711,-189.055 L 12.2107,-189.396 L 12.0942,-189.754 L 12.0237,-190.124
 L 12,-190.5 L 12.0237,-190.876 L 12.0942,-191.246 L 12.2107,-191.604 L 12.3711,-191.945 L 12.5729,-192.263
 L 12.8131,-192.554 L 13.0877,-192.812 L 13.3925,-193.033 L 13.7227,-193.214 L 14.0729,-193.353 L 14.4379,-193.447
 L 14.8116,-193.494 L 15.1884,-193.494 L 15.5621,-193.447 L 15.927,-193.353 L 16.2773,-193.214 L 16.6075,-193.033
 L 16.9123,-192.812 L 17.1869,-192.554 L 17.427,-192.263 L 17.6289,-191.945 L 17.7893,-191.604 L 17.9057,-191.246
 L 17.9763,-190.876 L 18,-190.5 L 17.9763,-190.124 L 17.9057,-189.754 L 17.7893,-189.396 L 17.6289,-189.055
 L 17.427,-188.737 L 17.1869,-188.446 L 16.9123,-188.188 L 16.6075,-187.967 L 16.2773,-187.786 L 15.927,-187.647
 L 15.5621,-187.553 L 15.1884,-187.506 z
M -15.1884,-187.506 L -15.5621,-187.553 L -15.927,-187.647 L -16.2773,-187.786 L -16.6075,-187.967 L -16.9123,-188.188
 L -17.1869,-188.446 L -17.427,-188.737 L -17.6289,-189.055 L -17.7893,-189.396 L -17.9057,-189.754 L -17.9763,-190.124
 L -18,-190.5 L -17.9763,-190.876 L -17.9057,-191.246 L -17.7893,-191.604 L -17.6289,-191.945 L -17.427,-192.263
 L -17.1869,-192.554 L -16.9123,-192.812 L -16.6075,-193.033 L -16.2773,-193.214 L -15.927,-193.353 L -15.5621,-193.447
 L -15.1884,-193.494 L -14.8116,-193.494 L -14.4379,-193.447 L -14.0729,-193.353 L -13.7227,-193.214 L -13.3925,-193.033
 L -13.0877,-192.812 L -12.8131,-192.554 L -12.5729,-192.263 L -12.3711,-191.945 L -12.2107,-191.604 L -12.0942,-191.246
 L -12.0237,-190.876 L -12,-190.5 L -12.0237,-190.124 L -12.0942,-189.754 L -12.2107,-189.396 L -12.3711,-189.055
 L -12.5729,-188.737 L -12.8131,-188.446 L -13.0877,-188.188 L -13.3925,-187.967 L -13.7227,-187.786 L -14.0729,-187.647
 L -14.4379,-187.553 L -14.8116,-187.506 z
M 4.75166,-173.913 L 4.75166,-177.087 L 7.5,-178.673 L 10.2483,-177.087 L 10.2483,-173.913 L 7.49998,-172.327
 z
M -0.18837,-172.506 L -0.562134,-172.553 L -0.927048,-172.647 L -1.27733,-172.786 L -1.60747,-172.967 L -1.91226,-173.188
 L -2.1869,-173.446 L -2.42705,-173.737 L -2.62891,-174.055 L -2.78932,-174.396 L -2.90575,-174.754 L -2.97633,-175.124
 L -3,-175.5 L -2.97633,-175.876 L -2.90575,-176.246 L -2.78932,-176.604 L -2.62891,-176.945 L -2.42705,-177.263
 L -2.1869,-177.554 L -1.91226,-177.812 L -1.60747,-178.033 L -1.27733,-178.214 L -0.927048,-178.353 L -0.562134,-178.447
 L -0.18837,-178.494 L 0.18837,-178.494 L 0.562134,-178.447 L 0.927048,-178.353 L 1.27733,-178.214 L 1.60747,-178.033
 L 1.91226,-177.812 L 2.1869,-177.554 L 2.42705,-177.263 L 2.62891,-176.945 L 2.78932,-176.604 L 2.90575,-176.246
 L 2.97633,-175.876 L 3,-175.5 L 2.97633,-175.124 L 2.90575,-174.754 L 2.78932,-174.396 L 2.62891,-174.055
 L 2.42705,-173.737 L 2.1869,-173.446 L 1.91226,-173.188 L 1.60747,-172.967 L 1.27733,-172.786 L 0.927048,-172.647
 L 0.562134,-172.553 L 0.18837,-172.506 z
M -15.1884,-172.506 L -15.5621,-172.553 L -15.927,-172.647 L -16.2773,-172.786 L -16.6075,-172.967 L -16.9123,-173.188
 L -17.1869,-173.446 L -17.427,-173.737 L -17.6289,-174.055 L -17.7893,-174.396 L -17.9057,-174.754 L -17.9763,-175.124
 L -18,-175.5 L -17.9763,-175.876 L -17.9057,-176.246 L -17.7893,-176.604 L -17.6289,-176.945 L -17.427,-177.263
 L -17.1869,-177.554 L -16.9123,-177.812 L -16.6075,-178.033 L -16.2773,-178.214 L -15.927,-178.353 L -15.5621,-178.447
 L -15.1884,-178.494 L -14.8116,-178.494 L -14.4379,-178.447 L -14.0729,-178.353 L -13.7227,-178.214 L -13.3925,-178.033
 L -13.0877,-177.812 L -12.8131,-177.554 L -12.5729,-177.263 L -12.3711,-176.945 L -12.2107,-176.604 L -12.0942,-176.246
 L -12.0237,-175.876 L -12,-175.5 L -12.0237,-175.124 L -12.0942,-174.754 L -12.2107,-174.396 L -12.3711,-174.055
 L -12.5729,-173.737 L -12.8131,-173.446 L -13.0877,-173.188 L -13.3925,-172.967 L -13.7227,-172.786 L -14.0729,-172.647
 L -14.4379,-172.553 L -14.8116,-172.506 z
M 14.8116,-172.506 L 14.4379,-172.553 L 14.0729,-172.647 L 13.7227,-172.786 L 13.3925,-172.967 L 13.0877,-173.188
 L 12.8131,-173.446 L 12.5729,-173.737 L 12.3711,-174.055 L 12.2107,-174.396 L 12.0942,-174.754 L 12.0237,-175.124
 L 12,-175.5 L 12.0237,-175.876 L 12.0942,-176.246 L 12.2107,-176.604 L 12.3711,-176.945 L 12.5729,-177.263
 L 12.8131,-177.554 L 13.0877,-177.812 L 13.3925,-178.033 L 13.7227,-178.214 L 14.0729,-178.353 L 14.4379,-178.447
 L 14.8116,-178.494 L 15.1884,-178.494 L 15.5621,-178.447 L 15.927,-178.353 L 16.2773,-178.214 L 16.6075,-178.033
 L 16.9123,-177.812 L 17.1869,-177.554 L 17.427,-177.263 L 17.6289,-176.945 L 17.7893,-176.604 L 17.9057,-176.246
 L 17.9763,-175.876 L 18,-175.5 L 17.9763,-175.124 L 17.9057,-174.754 L 17.7893,-174.396 L 17.6289,-174.055
 L 17.427,-173.737 L 17.1869,-173.446 L 16.9123,-173.188 L 16.6075,-172.967 L 16.2773,-172.786 L 15.927,-172.647
 L 15.5621,-172.553 L 15.1884,-172.506 z
M -7.60452,-173.839 L -7.81192,-173.865 L -8.01442,-173.917 L -8.20879,-173.994 L -8.39198,-174.094 L -8.56111,-174.217
 L -8.71352,-174.36 L -8.84677,-174.521 L -8.95879,-174.698 L -9.04779,-174.887 L -9.1124,-175.086 L -9.15157,-175.291
 L -9.1647,-175.5 L -9.15157,-175.709 L -9.1124,-175.914 L -9.04779,-176.113 L -8.95879,-176.302 L -8.84677,-176.478
 L -8.71352,-176.64 L -8.56111,-176.783 L -8.39198,-176.906 L -8.20879,-177.006 L -8.01442,-177.083 L -7.81192,-177.135
 L -7.60452,-177.161 L -7.39546,-177.161 L -7.18806,-177.135 L -6.98557,-177.083 L -6.7912,-177.006 L -6.608,-176.906
 L -6.43887,-176.783 L -6.28647,-176.64 L -6.15321,-176.478 L -6.0412,-176.302 L -5.95219,-176.113 L -5.88759,-175.914
 L -5.84842,-175.709 L -5.83528,-175.5 L -5.84842,-175.291 L -5.88759,-175.086 L -5.95219,-174.887 L -6.0412,-174.698
 L -6.15321,-174.521 L -6.28647,-174.36 L -6.43887,-174.217 L -6.608,-174.094 L -6.7912,-173.994 L -6.98557,-173.917
 L -7.18806,-173.865 L -7.39546,-173.839 z
M -18.5142,-164.9 L -18.5142,-170 L -11.4858,-170 L -11.4858,-164.9 z
M 11.4858,-164.9 L 11.4858,-170 L 18.5142,-170 L 18.5142,-164.9 z
M -3.51418,-164.9 L -3.51418,-170 L 3.51418,-170 L 3.51418,-164.9 z
M -17.5307,-110.9 L -20.2462,-110.9 L -20.2462,-116 L -17.5307,-116 L -17.5307,-119.9 L -17.6289,-120.055
 L -17.7893,-120.396 L -17.9057,-120.754 L -17.9763,-121.124 L -18,-121.5 L -17.9763,-121.876 L -17.9057,-122.246
 L -17.7893,-122.604 L -17.6289,-122.945 L -17.427,-123.263 L -17.1869,-123.554 L -16.9123,-123.812 L -16.6075,-124.033
 L -16.2773,-124.214 L -15.927,-124.353 L -15.5621,-124.447 L -15.1884,-124.494 L -14.8116,-124.494 L -14.4379,-124.447
 L -14.0729,-124.353 L -13.7227,-124.214 L -13.3925,-124.033 L -13.0877,-123.812 L -12.8131,-123.554 L -12.5729,-123.263
 L -12.3711,-122.945 L -12.2107,-122.604 L -12.0942,-122.246 L -12.0237,-121.876 L -12,-121.5 L -12.0237,-121.124
 L -12.0942,-120.754 L -12.2107,-120.396 L -12.3711,-120.055 L -12.4693,-119.9 L -12.4693,-116 L -9.75375,-116
 L -9.75375,-110.9 L -12.4693,-110.9 L -12.4693,-108 L -2.53072,-108 L -2.53072,-110.9 L -5.24623,-110.9
 L -5.24623,-116 L -2.53072,-116 L -2.53072,-119.9 L -2.62891,-120.055 L -2.78932,-120.396 L -2.90575,-120.754
 L -2.97633,-121.124 L -3,-121.5 L -2.97633,-121.876 L -2.90575,-122.246 L -2.78932,-122.604 L -2.62891,-122.945
 L -2.42705,-123.263 L -2.1869,-123.554 L -1.91226,-123.812 L -1.60747,-124.033 L -1.27733,-124.214 L -0.927048,-124.353
 L -0.562134,-124.447 L -0.18837,-124.494 L 0.18837,-124.494 L 0.562134,-124.447 L 0.927048,-124.353 L 1.27733,-124.214
 L 1.60747,-124.033 L 1.91226,-123.812 L 2.1869,-123.554 L 2.42705,-123.263 L 2.62891,-122.945 L 2.78932,-122.604
 L 2.90575,-122.246 L 2.97633,-121.876 L 3,-121.5 L 2.97633,-121.124 L 2.90575,-120.754 L 2.78932,-120.396
 L 2.62891,-120.055 L 2.53072,-119.9 L 2.53072,-116 L 5.24623,-116 L 5.24623,-110.9 L 2.53072,-110.9
 L 2.53072,-108 L 12.4693,-108 L 12.4693,-110.9 L 9.75375,-110.9 L 9.75375,-116 L 12.4693,-116
 L 12.4693,-119.9 L 12.3711,-120.055 L 12.2107,-120.396 L 12.0942,-120.754 L 12.0237,-121.124 L 12,-121.5
 L 12.0237,-121.876 L 12.0942,-122.246 L 12.2107,-122.604 L 12.3711,-122.945 L 12.5729,-123.263 L 12.8131,-123.554
 L 13.0877,-123.812 L 13.3925,-124.033 L 13.7227,-124.214 L 14.0729,-124.353 L 14.4379,-124.447 L 14.8116,-124.494
 L 15.1884,-124.494 L 15.5621,-124.447 L 15.927,-124.353 L 16.2773,-124.214 L 16.6075,-124.033 L 16.9123,-123.812
 L 17.1869,-123.554 L 17.427,-123.263 L 17.6289,-122.945 L 17.7893,-122.604 L 17.9057,-122.246 L 17.9763,-121.876
 L 18,-121.5 L 17.9763,-121.124 L 17.9057,-120.754 L 17.7893,-120.396 L 17.6289,-120.055 L 17.5307,-119.9
 L 17.5307,-116 L 20.2462,-116 L 20.2462,-110.9 L 17.5307,-110.9 L 17.5307,-108 L 22,-108
 L 22,-153.5 L 21.9606,-154.127 L 21.8429,-154.743 L 21.6489,-155.341 L 21.3815,-155.909 L 21.0451,-156.439
 L 20.6448,-156.923 L 20.1871,-157.353 L 19.6791,-157.722 L 19.1289,-158.024 L 18.5451,-158.255 L 17.9369,-158.411
 L 17.3139,-158.49 L -17.3139,-158.49 L -17.9369,-158.411 L -18.5451,-158.255 L -19.1289,-158.024 L -19.6791,-157.722
 L -20.1871,-157.353 L -20.6448,-156.923 L -21.0451,-156.439 L -21.3815,-155.909 L -21.6489,-155.341 L -21.8429,-154.743
 L -21.9606,-154.127 L -22,-153.5 L -22,-108 L -17.5307,-108 z
M -15.1884,-148.506 L -15.5621,-148.553 L -15.927,-148.647 L -16.2773,-148.786 L -16.6075,-148.967 L -16.9123,-149.188
 L -17.1869,-149.446 L -17.427,-149.737 L -17.6289,-150.055 L -17.7893,-150.396 L -17.9057,-150.754 L -17.9763,-151.124
 L -18,-151.5 L -17.9763,-151.876 L -17.9057,-152.246 L -17.7893,-152.604 L -17.6289,-152.945 L -17.427,-153.263
 L -17.1869,-153.554 L -16.9123,-153.812 L -16.6075,-154.033 L -16.2773,-154.214 L -15.927,-154.353 L -15.5621,-154.447
 L -15.1884,-154.494 L -14.8116,-154.494 L -14.4379,-154.447 L -14.0729,-154.353 L -13.7227,-154.214 L -13.3925,-154.033
 L -13.0877,-153.812 L -12.8131,-153.554 L -12.5729,-153.263 L -12.3711,-152.945 L -12.2107,-152.604 L -12.0942,-152.246
 L -12.0237,-151.876 L -12,-151.5 L -12.0237,-151.124 L -12.0942,-150.754 L -12.2107,-150.396 L -12.3711,-150.055
 L -12.5729,-149.737 L -12.8131,-149.446 L -13.0877,-149.188 L -13.3925,-148.967 L -13.7227,-148.786 L -14.0729,-148.647
 L -14.4379,-148.553 L -14.8116,-148.506 z
M -0.18837,-148.506 L -0.562134,-148.553 L -0.927048,-148.647 L -1.27733,-148.786 L -1.60747,-148.967 L -1.91226,-149.188
 L -2.1869,-149.446 L -2.42705,-149.737 L -2.62891,-150.055 L -2.78932,-150.396 L -2.90575,-150.754 L -2.97633,-151.124
 L -3,-151.5 L -2.97633,-151.876 L -2.90575,-152.246 L -2.78932,-152.604 L -2.62891,-152.945 L -2.42705,-153.263
 L -2.1869,-153.554 L -1.91226,-153.812 L -1.60747,-154.033 L -1.27733,-154.214 L -0.927048,-154.353 L -0.562134,-154.447
 L -0.18837,-154.494 L 0.18837,-154.494 L 0.562134,-154.447 L 0.927048,-154.353 L 1.27733,-154.214 L 1.60747,-154.033
 L 1.91226,-153.812 L 2.1869,-153.554 L 2.42705,-153.263 L 2.62891,-152.945 L 2.78932,-152.604 L 2.90575,-152.246
 L 2.97633,-151.876 L 3,-151.5 L 2.97633,-151.124 L 2.90575,-150.754 L 2.78932,-150.396 L 2.62891,-150.055
 L 2.42705,-149.737 L 2.1869,-149.446 L 1.91226,-149.188 L 1.60747,-148.967 L 1.27733,-148.786 L 0.927048,-148.647
 L 0.562134,-148.553 L 0.18837,-148.506 z
M 14.8116,-148.506 L 14.4379,-148.553 L 14.0729,-148.647 L 13.7227,-148.786 L 13.3925,-148.967 L 13.0877,-149.188
 L 12.8131,-149.446 L 12.5729,-149.737 L 12.3711,-150.055 L 12.2107,-150.396 L 12.0942,-150.754 L 12.0237,-151.124
 L 12,-151.5 L 12.0237,-151.876 L 12.0942,-152.246 L 12.2107,-152.604 L 12.3711,-152.945 L 12.5729,-153.263
 L 12.8131,-153.554 L 13.0877,-153.812 L 13.3925,-154.033 L 13.7227,-154.214 L 14.0729,-154.353 L 14.4379,-154.447
 L 14.8116,-154.494 L 15.1884,-154.494 L 15.5621,-154.447 L 15.927,-154.353 L 16.2773,-154.214 L 16.6075,-154.033
 L 16.9123,-153.812 L 17.1869,-153.554 L 17.427,-153.263 L 17.6289,-152.945 L 17.7893,-152.604 L 17.9057,-152.246
 L 17.9763,-151.876 L 18,-151.5 L 17.9763,-151.124 L 17.9057,-150.754 L 17.7893,-150.396 L 17.6289,-150.055
 L 17.427,-149.737 L 17.1869,-149.446 L 16.9123,-149.188 L 16.6075,-148.967 L 16.2773,-148.786 L 15.927,-148.647
 L 15.5621,-148.553 L 15.1884,-148.506 z
M -15.1884,-133.506 L -15.5621,-133.553 L -15.927,-133.647 L -16.2773,-133.786 L -16.6075,-133.967 L -16.9123,-134.188
 L -17.1869,-134.446 L -17.427,-134.737 L -17.6289,-135.055 L -17.7893,-135.396 L -17.9057,-135.754 L -17.9763,-136.124
 L -18,-136.5 L -17.9763,-136.876 L -17.9057,-137.246 L -17.7893,-137.604 L -17.6289,-137.945 L -17.427,-138.263
 L -17.1869,-138.554 L -16.9123,-138.812 L -16.6075,-139.033 L -16.2773,-139.214 L -15.927,-139.353 L -15.5621,-139.447
 L -15.1884,-139.494 L -14.8116,-139.494 L -14.4379,-139.447 L -14.0729,-139.353 L -13.7227,-139.214 L -13.3925,-139.033
 L -13.0877,-138.812 L -12.8131,-138.554 L -12.5729,-138.263 L -12.3711,-137.945 L -12.2107,-137.604 L -12.0942,-137.246
 L -12.0237,-136.876 L -12,-136.5 L -12.0237,-136.124 L -12.0942,-135.754 L -12.2107,-135.396 L -12.3711,-135.055
 L -12.5729,-134.737 L -12.8131,-134.446 L -13.0877,-134.188 L -13.3925,-133.967 L -13.7227,-133.786 L -14.0729,-133.647
 L -14.4379,-133.553 L -14.8116,-133.506 z
M 14.8116,-133.506 L 14.4379,-133.553 L 14.0729,-133.647 L 13.7227,-133.786 L 13.3925,-133.967 L 13.0877,-134.188
 L 12.8131,-134.446 L 12.5729,-134.737 L 12.3711,-135.055 L 12.2107,-135.396 L 12.0942,-135.754 L 12.0237,-136.124
 L 12,-136.5 L 12.0237,-136.876 L 12.0942,-137.246 L 12.2107,-137.604 L 12.3711,-137.945 L 12.5729,-138.263
 L 12.8131,-138.554 L 13.0877,-138.812 L 13.3925,-139.033 L 13.7227,-139.214 L 14.0729,-139.353 L 14.4379,-139.447
 L 14.8116,-139.494 L 15.1884,-139.494 L 15.5621,-139.447 L 15.927,-139.353 L 16.2773,-139.214 L 16.6075,-139.033
 L 16.9123,-138.812 L 17.1869,-138.554 L 17.427,-138.263 L 17.6289,-137.945 L 17.7893,-137.604 L 17.9057,-137.246
 L 17.9763,-136.876 L 18,-136.5 L 17.9763,-136.124 L 17.9057,-135.754 L 17.7893,-135.396 L 17.6289,-135.055
 L 17.427,-134.737 L 17.1869,-134.446 L 16.9123,-134.188 L 16.6075,-133.967 L 16.2773,-133.786 L 15.927,-133.647
 L 15.5621,-133.553 L 15.1884,-133.506 z
M -0.18837,-133.506 L -0.562134,-133.553 L -0.927048,-133.647 L -1.27733,-133.786 L -1.60747,-133.967 L -1.91226,-134.188
 L -2.1869,-134.446 L -2.42705,-134.737 L -2.62891,-135.055 L -2.78932,-135.396 L -2.90575,-135.754 L -2.97633,-136.124
 L -3,-136.5 L -2.97633,-136.876 L -2.90575,-137.246 L -2.78932,-137.604 L -2.62891,-137.945 L -2.42705,-138.263
 L -2.1869,-138.554 L -1.91226,-138.812 L -1.60747,-139.033 L -1.27733,-139.214 L -0.927048,-139.353 L -0.562134,-139.447
 L -0.18837,-139.494 L 0.18837,-139.494 L 0.562134,-139.447 L 0.927048,-139.353 L 1.27733,-139.214 L 1.60747,-139.033
 L 1.91226,-138.812 L 2.1869,-138.554 L 2.42705,-138.263 L 2.62891,-137.945 L 2.78932,-137.604 L 2.90575,-137.246
 L 2.97633,-136.876 L 3,-136.5 L 2.97633,-136.124 L 2.90575,-135.754 L 2.78932,-135.396 L 2.62891,-135.055
 L 2.42705,-134.737 L 2.1869,-134.446 L 1.91226,-134.188 L 1.60747,-133.967 L 1.27733,-133.786 L 0.927048,-133.647
 L 0.562134,-133.553 L 0.18837,-133.506 z
M -7.59418,-120.003 L -7.78107,-120.027 L -7.96352,-120.073 L -8.13866,-120.143 L -8.30373,-120.234 L -8.45613,-120.344
 L -8.59344,-120.473 L -8.71352,-120.618 L -8.81445,-120.777 L -8.89465,-120.948 L -8.95287,-121.127 L -8.98816,-121.312
 L -9,-121.5 L -8.98816,-121.688 L -8.95287,-121.873 L -8.89465,-122.052 L -8.81445,-122.223 L -8.71352,-122.382
 L -8.59344,-122.527 L -8.45613,-122.656 L -8.30373,-122.766 L -8.13866,-122.857 L -7.96352,-122.927 L -7.78107,-122.973
 L -7.59418,-122.997 L -7.40581,-122.997 L -7.21892,-122.973 L -7.03647,-122.927 L -6.86133,-122.857 L -6.69626,-122.766
 L -6.54385,-122.656 L -6.40654,-122.527 L -6.28647,-122.382 L -6.18553,-122.223 L -6.10533,-122.052 L -6.04712,-121.873
 L -6.01183,-121.688 L -6,-121.5 L -6.01183,-121.312 L -6.04712,-121.127 L -6.10533,-120.948 L -6.18553,-120.777
 L -6.28647,-120.618 L -6.40654,-120.473 L -6.54385,-120.344 L -6.69626,-120.234 L -6.86133,-120.143 L -7.03647,-120.073
 L -7.21892,-120.027 L -7.40581,-120.003 z
M 7.40581,-120.003 L 7.21892,-120.027 L 7.03647,-120.073 L 6.86133,-120.143 L 6.69626,-120.234 L 6.54385,-120.344
 L 6.40654,-120.473 L 6.28647,-120.618 L 6.18553,-120.777 L 6.10533,-120.948 L 6.04712,-121.127 L 6.01183,-121.312
 L 6,-121.5 L 6.01183,-121.688 L 6.04712,-121.873 L 6.10533,-122.052 L 6.18553,-122.223 L 6.28647,-122.382
 L 6.40654,-122.527 L 6.54385,-122.656 L 6.69626,-122.766 L 6.86133,-122.857 L 7.03647,-122.927 L 7.21892,-122.973
 L 7.40581,-122.997 L 7.59418,-122.997 L 7.78107,-122.973 L 7.96352,-122.927 L 8.13866,-122.857 L 8.30373,-122.766
 L 8.45613,-122.656 L 8.59344,-122.527 L 8.71352,-122.382 L 8.81445,-122.223 L 8.89465,-122.052 L 8.95287,-121.873
 L 8.98816,-121.688 L 9,-121.5 L 8.98816,-121.312 L 8.95287,-121.127 L 8.89465,-120.948 L 8.81445,-120.777
 L 8.71352,-120.618 L 8.59344,-120.473 L 8.45613,-120.344 L 8.30373,-120.234 L 8.13866,-120.143 L 7.96352,-120.073
 L 7.78107,-120.027 L 7.59418,-120.003 z
M -17.5942,-56.9 L -20.304,-56.9 L -20.304,-62 L -17.5942,-62 L -17.5942,-66 L -17.6289,-66.0547
 L -17.7893,-66.3956 L -17.9057,-66.7539 L -17.9763,-67.124 L -18,-67.5 L -17.9763,-67.876 L -17.9057,-68.2461
 L -17.7893,-68.6044 L -17.6289,-68.9453 L -17.427,-69.2634 L -17.1869,-69.5536 L -16.9123,-69.8115 L -16.6075,-70.033
 L -16.2773,-70.2145 L -15.927,-70.3532 L -15.5621,-70.4469 L -15.1884,-70.4941 L -14.8116,-70.4941 L -14.4379,-70.4469
 L -14.0729,-70.3532 L -13.7227,-70.2145 L -13.3925,-70.033 L -13.0877,-69.8115 L -12.8131,-69.5536 L -12.5729,-69.2634
 L -12.3711,-68.9453 L -12.2107,-68.6044 L -12.0942,-68.2461 L -12.0237,-67.876 L -12,-67.5 L -12.0237,-67.124
 L -12.0942,-66.7539 L -12.2107,-66.3956 L -12.3711,-66.0547 L -12.4058,-66 L -12.4058,-62 L -9.69603,-62
 L -9.69603,-56.9 L -12.4058,-56.9 L -12.4058,-54 L -2.59418,-54 L -2.59418,-56.9 L -5.30396,-56.9
 L -5.30396,-62 L -2.59418,-62 L -2.59418,-66 L -2.62891,-66.0547 L -2.78932,-66.3956 L -2.90575,-66.7539
 L -2.97633,-67.124 L -3,-67.5 L -2.97633,-67.876 L -2.90575,-68.2461 L -2.78932,-68.6044 L -2.62891,-68.9453
 L -2.42705,-69.2634 L -2.1869,-69.5536 L -1.91226,-69.8115 L -1.60747,-70.033 L -1.27733,-70.2145 L -0.927048,-70.3532
 L -0.562134,-70.4469 L -0.18837,-70.4941 L 0.18837,-70.4941 L 0.562134,-70.4469 L 0.927048,-70.3532 L 1.27733,-70.2145
 L 1.60747,-70.033 L 1.91226,-69.8115 L 2.1869,-69.5536 L 2.42705,-69.2634 L 2.62891,-68.9453 L 2.78932,-68.6044
 L 2.90575,-68.2461 L 2.97633,-67.876 L 3,-67.5 L 2.97633,-67.124 L 2.90575,-66.7539 L 2.78932,-66.3956
 L 2.62891,-66.0547 L 2.59418,-66 L 2.59418,-62 L 5.30396,-62 L 5.30396,-56.9 L 2.59418,-56.9
 L 2.59418,-54 L 12.4058,-54 L 12.4058,-56.9 L 9.69603,-56.9 L 9.69603,-62 L 12.4058,-62
 L 12.4058,-66 L 12.3711,-66.0547 L 12.2107,-66.3956 L 12.0942,-66.7539 L 12.0237,-67.124 L 12,-67.5
 L 12.0237,-67.876 L 12.0942,-68.2461 L 12.2107,-68.6044 L 12.3711,-68.9453 L 12.5729,-69.2634 L 12.8131,-69.5536
 L 13.0877,-69.8115 L 13.3925,-70.033 L 13.7227,-70.2145 L 14.0729,-70.3532 L 14.4379,-70.4469 L 14.8116,-70.4941
 L 15.1884,-70.4941 L 15.5621,-70.4469 L 15.927,-70.3532 L 16.2773,-70.2145 L 16.6075,-70.033 L 16.9123,-69.8115
 L 17.1869,-69.5536 L 17.427,-69.2634 L 17.6289,-68.9453 L 17.7893,-68.6044 L 17.9057,-68.2461 L 17.9763,-67.876
 L 18,-67.5 L 17.9763,-67.124 L 17.9057,-66.7539 L 17.7893,-66.3956 L 17.6289,-66.0547 L 17.5942,-66
 L 17.5942,-62 L 20.304,-62 L 20.304,-56.9 L 17.5942,-56.9 L 17.5942,-54 L 22,-54
 L 22,-99.5 L 21.9606,-100.127 L 21.8429,-100.743 L 21.6489,-101.341 L 21.3815,-101.909 L 21.0451,-102.439
 L 20.6448,-102.923 L 20.1871,-103.353 L 19.6791,-103.722 L 19.1289,-104.024 L 18.5451,-104.255 L 17.9369,-104.411
 L 17.3139,-104.49 L -17.3139,-104.49 L -17.9369,-104.411 L -18.5451,-104.255 L -19.1289,-104.024 L -19.6791,-103.722
 L -20.1871,-103.353 L -20.6448,-102.923 L -21.0451,-102.439 L -21.3815,-101.909 L -21.6489,-101.341 L -21.8429,-100.743
 L -21.9606,-100.127 L -22,-99.5 L -22,-54 L -17.5942,-54 z
M -0.18837,-94.5059 L -0.562134,-94.5531 L -0.927048,-94.6468 L -1.27733,-94.7855 L -1.60747,-94.967 L -1.91226,-95.1885
 L -2.1869,-95.4464 L -2.42705,-95.7366 L -2.62891,-96.0547 L -2.78932,-96.3956 L -2.90575,-96.7539 L -2.97633,-97.124
 L -3,-97.5 L -2.97633,-97.876 L -2.90575,-98.2461 L -2.78932,-98.6044 L -2.62891,-98.9453 L -2.42705,-99.2634
 L -2.1869,-99.5536 L -1.91226,-99.8115 L -1.60747,-100.033 L -1.27733,-100.214 L -0.927048,-100.353 L -0.562134,-100.447
 L -0.18837,-100.494 L 0.18837,-100.494 L 0.562134,-100.447 L 0.927048,-100.353 L 1.27733,-100.214 L 1.60747,-100.033
 L 1.91226,-99.8115 L 2.1869,-99.5536 L 2.42705,-99.2634 L 2.62891,-98.9453 L 2.78932,-98.6044 L 2.90575,-98.2461
 L 2.97633,-97.876 L 3,-97.5 L 2.97633,-97.124 L 2.90575,-96.7539 L 2.78932,-96.3956 L 2.62891,-96.0547
 L 2.42705,-95.7366 L 2.1869,-95.4464 L 1.91226,-95.1885 L 1.60747,-94.967 L 1.27733,-94.7855 L 0.927048,-94.6468
 L 0.562134,-94.5531 L 0.18837,-94.5059 z
M 14.8116,-94.5059 L 14.4379,-94.5531 L 14.0729,-94.6468 L 13.7227,-94.7855 L 13.3925,-94.967 L 13.0877,-95.1885
 L 12.8131,-95.4464 L 12.5729,-95.7366 L 12.3711,-96.0547 L 12.2107,-96.3956 L 12.0942,-96.7539 L 12.0237,-97.124
 L 12,-97.5 L 12.0237,-97.876 L 12.0942,-98.2461 L 12.2107,-98.6044 L 12.3711,-98.9453 L 12.5729,-99.2634
 L 12.8131,-99.5536 L 13.0877,-99.8115 L 13.3925,-100.033 L 13.7227,-100.214 L 14.0729,-100.353 L 14.4379,-100.447
 L 14.8116,-100.494 L 15.1884,-100.494 L 15.5621,-100.447 L 15.927,-100.353 L 16.2773,-100.214 L 16.6075,-100.033
 L 16.9123,-99.8115 L 17.1869,-99.5536 L 17.427,-99.2634 L 17.6289,-98.9453 L 17.7893,-98.6044 L 17.9057,-98.2461
 L 17.9763,-97.876 L 18,-97.5 L 17.9763,-97.124 L 17.9057,-96.7539 L 17.7893,-96.3956 L 17.6289,-96.0547
 L 17.427,-95.7366 L 17.1869,-95.4464 L 16.9123,-95.1885 L 16.6075,-94.967 L 16.2773,-94.7855 L 15.927,-94.6468
 L 15.5621,-94.5531 L 15.1884,-94.5059 z
M -15.1884,-94.5059 L -15.5621,-94.5531 L -15.927,-94.6468 L -16.2773,-94.7855 L -16.6075,-94.967 L -16.9123,-95.1885
 L -17.1869,-95.4464 L -17.427,-95.7366 L -17.6289,-96.0547 L -17.7893,-96.3956 L -17.9057,-96.7539 L -17.9763,-97.124
 L -18,-97.5 L -17.9763,-97.876 L -17.9057,-98.2461 L -17.7893,-98.6044 L -17.6289,-98.9453 L -17.427,-99.2634
 L -17.1869,-99.5536 L -16.9123,-99.8115 L -16.6075,-100.033 L -16.2773,-100.214 L -15.927,-100.353 L -15.5621,-100.447
 L -15.1884,-100.494 L -14.8116,-100.494 L -14.4379,-100.447 L -14.0729,-100.353 L -13.7227,-100.214 L -13.3925,-100.033
 L -13.0877,-99.8115 L -12.8131,-99.5536 L -12.5729,-99.2634 L -12.3711,-98.9453 L -12.2107,-98.6044 L -12.0942,-98.2461
 L -12.0237,-97.876 L -12,-97.5 L -12.0237,-97.124 L -12.0942,-96.7539 L -12.2107,-96.3956 L -12.3711,-96.0547
 L -12.5729,-95.7366 L -12.8131,-95.4464 L -13.0877,-95.1885 L -13.3925,-94.967 L -13.7227,-94.7855 L -14.0729,-94.6468
 L -14.4379,-94.5531 L -14.8116,-94.5059 z
M 14.8116,-79.5059 L 14.4379,-79.5531 L 14.0729,-79.6468 L 13.7227,-79.7855 L 13.3925,-79.967 L 13.0877,-80.1884
 L 12.8131,-80.4464 L 12.5729,-80.7366 L 12.3711,-81.0547 L 12.2107,-81.3956 L 12.0942,-81.7539 L 12.0237,-82.124
 L 12,-82.5 L 12.0237,-82.876 L 12.0942,-83.2461 L 12.2107,-83.6044 L 12.3711,-83.9453 L 12.5729,-84.2634
 L 12.8131,-84.5536 L 13.0877,-84.8115 L 13.3925,-85.033 L 13.7227,-85.2145 L 14.0729,-85.3532 L 14.4379,-85.4469
 L 14.8116,-85.4941 L 15.1884,-85.4941 L 15.5621,-85.4469 L 15.927,-85.3532 L 16.2773,-85.2145 L 16.6075,-85.033
 L 16.9123,-84.8115 L 17.1869,-84.5536 L 17.427,-84.2634 L 17.6289,-83.9453 L 17.7893,-83.6044 L 17.9057,-83.2461
 L 17.9763,-82.876 L 18,-82.5 L 17.9763,-82.124 L 17.9057,-81.7539 L 17.7893,-81.3956 L 17.6289,-81.0547
 L 17.427,-80.7366 L 17.1869,-80.4464 L 16.9123,-80.1884 L 16.6075,-79.967 L 16.2773,-79.7855 L 15.927,-79.6468
 L 15.5621,-79.5531 L 15.1884,-79.5059 z
M -15.1884,-79.5059 L -15.5621,-79.5531 L -15.927,-79.6468 L -16.2773,-79.7855 L -16.6075,-79.967 L -16.9123,-80.1884
 L -17.1869,-80.4464 L -17.427,-80.7366 L -17.6289,-81.0547 L -17.7893,-81.3956 L -17.9057,-81.7539 L -17.9763,-82.124
 L -18,-82.5 L -17.9763,-82.876 L -17.9057,-83.2461 L -17.7893,-83.6044 L -17.6289,-83.9453 L -17.427,-84.2634
 L -17.1869,-84.5536 L -16.9123,-84.8115 L -16.6075,-85.033 L -16.2773,-85.2145 L -15.927,-85.3532 L -15.5621,-85.4469
 L -15.1884,-85.4941 L -14.8116,-85.4941 L -14.4379,-85.4469 L -14.0729,-85.3532 L -13.7227,-85.2145 L -13.3925,-85.033
 L -13.0877,-84.8115 L -12.8131,-84.5536 L -12.5729,-84.2634 L -12.3711,-83.9453 L -12.2107,-83.6044 L -12.0942,-83.2461
 L -12.0237,-82.876 L -12,-82.5 L -12.0237,-82.124 L -12.0942,-81.7539 L -12.2107,-81.3956 L -12.3711,-81.0547
 L -12.5729,-80.7366 L -12.8131,-80.4464 L -13.0877,-80.1884 L -13.3925,-79.967 L -13.7227,-79.7855 L -14.0729,-79.6468
 L -14.4379,-79.5531 L -14.8116,-79.5059 z
M -0.18837,-79.5059 L -0.562134,-79.5531 L -0.927048,-79.6468 L -1.27733,-79.7855 L -1.60747,-79.967 L -1.91226,-80.1884
 L -2.1869,-80.4464 L -2.42705,-80.7366 L -2.62891,-81.0547 L -2.78932,-81.3956 L -2.90575,-81.7539 L -2.97633,-82.124
 L -3,-82.5 L -2.97633,-82.876 L -2.90575,-83.2461 L -2.78932,-83.6044 L -2.62891,-83.9453 L -2.42705,-84.2634
 L -2.1869,-84.5536 L -1.91226,-84.8115 L -1.60747,-85.033 L -1.27733,-85.2145 L -0.927048,-85.3532 L -0.562134,-85.4469
 L -0.18837,-85.4941 L 0.18837,-85.4941 L 0.562134,-85.4469 L 0.927048,-85.3532 L 1.27733,-85.2145 L 1.60747,-85.033
 L 1.91226,-84.8115 L 2.1869,-84.5536 L 2.42705,-84.2634 L 2.62891,-83.9453 L 2.78932,-83.6044 L 2.90575,-83.2461
 L 2.97633,-82.876 L 3,-82.5 L 2.97633,-82.124 L 2.90575,-81.7539 L 2.78932,-81.3956 L 2.62891,-81.0547
 L 2.42705,-80.7366 L 2.1869,-80.4464 L 1.91226,-80.1884 L 1.60747,-79.967 L 1.27733,-79.7855 L 0.927048,-79.6468
 L 0.562134,-79.5531 L 0.18837,-79.5059 z
M 7.40581,-66.0029 L 7.21892,-66.0266 L 7.03647,-66.0734 L 6.86133,-66.1427 L 6.69626,-66.2335 L 6.54385,-66.3442
 L 6.40654,-66.4732 L 6.28647,-66.6183 L 6.18553,-66.7774 L 6.10533,-66.9478 L 6.04712,-67.127 L 6.01183,-67.312
 L 6,-67.5 L 6.01183,-67.688 L 6.04712,-67.873 L 6.10533,-68.0522 L 6.18553,-68.2226 L 6.28647,-68.3817
 L 6.40654,-68.5268 L 6.54385,-68.6558 L 6.69626,-68.7665 L 6.86133,-68.8572 L 7.03647,-68.9266 L 7.21892,-68.9734
 L 7.40581,-68.997 L 7.59418,-68.997 L 7.78107,-68.9734 L 7.96352,-68.9266 L 8.13866,-68.8572 L 8.30373,-68.7665
 L 8.45613,-68.6558 L 8.59344,-68.5268 L 8.71352,-68.3817 L 8.81445,-68.2226 L 8.89465,-68.0522 L 8.95287,-67.873
 L 8.98816,-67.688 L 9,-67.5 L 8.98816,-67.312 L 8.95287,-67.127 L 8.89465,-66.9478 L 8.81445,-66.7774
 L 8.71352,-66.6183 L 8.59344,-66.4732 L 8.45613,-66.3442 L 8.30373,-66.2335 L 8.13866,-66.1427 L 7.96352,-66.0734
 L 7.78107,-66.0266 L 7.59418,-66.0029 z
M -7.59418,-66.0029 L -7.78107,-66.0266 L -7.96352,-66.0734 L -8.13866,-66.1427 L -8.30373,-66.2335 L -8.45613,-66.3442
 L -8.59344,-66.4732 L -8.71352,-66.6183 L -8.81445,-66.7774 L -8.89465,-66.9478 L -8.95287,-67.127 L -8.98816,-67.312
 L -9,-67.5 L -8.98816,-67.688 L -8.95287,-67.873 L -8.89465,-68.0522 L -8.81445,-68.2226 L -8.71352,-68.3817
 L -8.59344,-68.5268 L -8.45613,-68.6558 L -8.30373,-68.7665 L -8.13866,-68.8572 L -7.96352,-68.9266 L -7.78107,-68.9734
 L -7.59418,-68.997 L -7.40581,-68.997 L -7.21892,-68.9734 L -7.03647,-68.9266 L -6.86133,-68.8572 L -6.69626,-68.7665
 L -6.54385,-68.6558 L -6.40654,-68.5268 L -6.28647,-68.3817 L -6.18553,-68.2226 L -6.10533,-68.0522 L -6.04712,-67.873
 L -6.01183,-67.688 L -6,-67.5 L -6.01183,-67.312 L -6.04712,-67.127 L -6.10533,-66.9478 L -6.18553,-66.7774
 L -6.28647,-66.6183 L -6.40654,-66.4732 L -6.54385,-66.3442 L -6.69626,-66.2335 L -6.86133,-66.1427 L -7.03647,-66.0734
 L -7.21892,-66.0266 L -7.40581,-66.0029 z
M 22,-45.5 L 21.9606,-46.1267 L 21.8429,-46.7434 L 21.6489,-47.3406 L 21.3815,-47.9088 L 21.0451,-48.4389
 L 20.6448,-48.9227 L 20.1871,-49.3526 L 19.6791,-49.7216 L 19.1289,-50.0241 L 18.5451,-50.2553 L 17.9369,-50.4114
 L 17.3139,-50.4901 L -17.3139,-50.4901 L -17.9369,-50.4114 L -18.5451,-50.2553 L -19.1289,-50.0241 L -19.6791,-49.7216
 L -20.1871,-49.3526 L -20.6448,-48.9227 L -21.0451,-48.4389 L -21.3815,-47.9088 L -21.6489,-47.3406 L -21.8429,-46.7434
 L -21.9606,-46.1267 L -22,-45.5 L -22,-0 L 22,-0 z
M -0.18837,-40.5059 L -0.562134,-40.5531 L -0.927048,-40.6468 L -1.27733,-40.7855 L -1.60747,-40.967 L -1.91226,-41.1885
 L -2.1869,-41.4464 L -2.42705,-41.7366 L -2.62891,-42.0547 L -2.78932,-42.3956 L -2.90575,-42.7539 L -2.97633,-43.124
 L -3,-43.5 L -2.97633,-43.876 L -2.90575,-44.2461 L -2.78932,-44.6044 L -2.62891,-44.9453 L -2.42705,-45.2634
 L -2.1869,-45.5536 L -1.91226,-45.8115 L -1.60747,-46.033 L -1.27733,-46.2145 L -0.927048,-46.3532 L -0.562134,-46.4469
 L -0.18837,-46.4941 L 0.18837,-46.4941 L 0.562134,-46.4469 L 0.927048,-46.3532 L 1.27733,-46.2145 L 1.60747,-46.033
 L 1.91226,-45.8115 L 2.1869,-45.5536 L 2.42705,-45.2634 L 2.62891,-44.9453 L 2.78932,-44.6044 L 2.90575,-44.2461
 L 2.97633,-43.876 L 3,-43.5 L 2.97633,-43.124 L 2.90575,-42.7539 L 2.78932,-42.3956 L 2.62891,-42.0547
 L 2.42705,-41.7366 L 2.1869,-41.4464 L 1.91226,-41.1885 L 1.60747,-40.967 L 1.27733,-40.7855 L 0.927048,-40.6468
 L 0.562134,-40.5531 L 0.18837,-40.5059 z
M 14.8116,-40.5059 L 14.4379,-40.5531 L 14.0729,-40.6468 L 13.7227,-40.7855 L 13.3925,-40.967 L 13.0877,-41.1885
 L 12.8131,-41.4464 L 12.5729,-41.7366 L 12.3711,-42.0547 L 12.2107,-42.3956 L 12.0942,-42.7539 L 12.0237,-43.124
 L 12,-43.5 L 12.0237,-43.876 L 12.0942,-44.2461 L 12.2107,-44.6044 L 12.3711,-44.9453 L 12.5729,-45.2634
 L 12.8131,-45.5536 L 13.0877,-45.8115 L 13.3925,-46.033 L 13.7227,-46.2145 L 14.0729,-46.3532 L 14.4379,-46.4469
 L 14.8116,-46.4941 L 15.1884,-46.4941 L 15.5621,-46.4469 L 15.927,-46.3532 L 16.2773,-46.2145 L 16.6075,-46.033
 L 16.9123,-45.8115 L 17.1869,-45.5536 L 17.427,-45.2634 L 17.6289,-44.9453 L 17.7893,-44.6044 L 17.9057,-44.2461
 L 17.9763,-43.876 L 18,-43.5 L 17.9763,-43.124 L 17.9057,-42.7539 L 17.7893,-42.3956 L 17.6289,-42.0547
 L 17.427,-41.7366 L 17.1869,-41.4464 L 16.9123,-41.1885 L 16.6075,-40.967 L 16.2773,-40.7855 L 15.927,-40.6468
 L 15.5621,-40.5531 L 15.1884,-40.5059 z
M -15.1884,-40.5059 L -15.5621,-40.5531 L -15.927,-40.6468 L -16.2773,-40.7855 L -16.6075,-40.967 L -16.9123,-41.1885
 L -17.1869,-41.4464 L -17.427,-41.7366 L -17.6289,-42.0547 L -17.7893,-42.3956 L -17.9057,-42.7539 L -17.9763,-43.124
 L -18,-43.5 L -17.9763,-43.876 L -17.9057,-44.2461 L -17.7893,-44.6044 L -17.6289,-44.9453 L -17.427,-45.2634
 L -17.1869,-45.5536 L -16.9123,-45.8115 L -16.6075,-46.033 L -16.2773,-46.2145 L -15.927,-46.3532 L -15.5621,-46.4469
 L -15.1884,-46.4941 L -14.8116,-46.4941 L -14.4379,-46.4469 L -14.0729,-46.3532 L -13.7227,-46.2145 L -13.3925,-46.033
 L -13.0877,-45.8115 L -12.8131,-45.5536 L -12.5729,-45.2634 L -12.3711,-44.9453 L -12.2107,-44.6044 L -12.0942,-44.2461
 L -12.0237,-43.876 L -12,-43.5 L -12.0237,-43.124 L -12.0942,-42.7539 L -12.2107,-42.3956 L -12.3711,-42.0547
 L -12.5729,-41.7366 L -12.8131,-41.4464 L -13.0877,-41.1885 L -13.3925,-40.967 L -13.7227,-40.7855 L -14.0729,-40.6468
 L -14.4379,-40.5531 L -14.8116,-40.5059 z
M -0.18837,-25.5059 L -0.562134,-25.5531 L -0.927048,-25.6468 L -1.27733,-25.7855 L -1.60747,-25.967 L -1.91226,-26.1884
 L -2.1869,-26.4464 L -2.42705,-26.7366 L -2.62891,-27.0547 L -2.78932,-27.3956 L -2.90575,-27.7539 L -2.97633,-28.124
 L -3,-28.5 L -2.97633,-28.876 L -2.90575,-29.2461 L -2.78932,-29.6044 L -2.62891,-29.9453 L -2.42705,-30.2634
 L -2.1869,-30.5536 L -1.91226,-30.8115 L -1.60747,-31.033 L -1.27733,-31.2145 L -0.927048,-31.3532 L -0.562134,-31.4469
 L -0.18837,-31.4941 L 0.18837,-31.4941 L 0.562134,-31.4469 L 0.927048,-31.3532 L 1.27733,-31.2145 L 1.60747,-31.033
 L 1.91226,-30.8115 L 2.1869,-30.5536 L 2.42705,-30.2634 L 2.62891,-29.9453 L 2.78932,-29.6044 L 2.90575,-29.2461
 L 2.97633,-28.876 L 3,-28.5 L 2.97633,-28.124 L 2.90575,-27.7539 L 2.78932,-27.3956 L 2.62891,-27.0547
 L 2.42705,-26.7366 L 2.1869,-26.4464 L 1.91226,-26.1884 L 1.60747,-25.967 L 1.27733,-25.7855 L 0.927048,-25.6468
 L 0.562134,-25.5531 L 0.18837,-25.5059 z
M -15.1884,-25.5059 L -15.5621,-25.5531 L -15.927,-25.6468 L -16.2773,-25.7855 L -16.6075,-25.967 L -16.9123,-26.1884
 L -17.1869,-26.4464 L -17.427,-26.7366 L -17.6289,-27.0547 L -17.7893,-27.3956 L -17.9057,-27.7539 L -17.9763,-28.124
 L -18,-28.5 L -17.9763,-28.876 L -17.9057,-29.2461 L -17.7893,-29.6044 L -17.6289,-29.9453 L -17.427,-30.2634
 L -17.1869,-30.5536 L -16.9123,-30.8115 L -16.6075,-31.033 L -16.2773,-31.2145 L -15.927,-31.3532 L -15.5621,-31.4469
 L -15.1884,-31.4941 L -14.8116,-31.4941 L -14.4379,-31.4469 L -14.0729,-31.3532 L -13.7227,-31.2145 L -13.3925,-31.033
 L -13.0877,-30.8115 L -12.8131,-30.5536 L -12.5729,-30.2634 L -12.3711,-29.9453 L -12.2107,-29.6044 L -12.0942,-29.2461
 L -12.0237,-28.876 L -12,-28.5 L -12.0237,-28.124 L -12.0942,-27.7539 L -12.2107,-27.3956 L -12.3711,-27.0547
 L -12.5729,-26.7366 L -12.8131,-26.4464 L -13.0877,-26.1884 L -13.3925,-25.967 L -13.7227,-25.7855 L -14.0729,-25.6468
 L -14.4379,-25.5531 L -14.8116,-25.5059 z
M 14.8116,-25.5059 L 14.4379,-25.5531 L 14.0729,-25.6468 L 13.7227,-25.7855 L 13.3925,-25.967 L 13.0877,-26.1884
 L 12.8131,-26.4464 L 12.5729,-26.7366 L 12.3711,-27.0547 L 12.2107,-27.3956 L 12.0942,-27.7539 L 12.0237,-28.124
 L 12,-28.5 L 12.0237,-28.876 L 12.0942,-29.2461 L 12.2107,-29.6044 L 12.3711,-29.9453 L 12.5729,-30.2634
 L 12.8131,-30.5536 L 13.0877,-30.8115 L 13.3925,-31.033 L 13.7227,-31.2145 L 14.0729,-31.3532 L 14.4379,-31.4469
 L 14.8116,-31.4941 L 15.1884,-31.4941 L 15.5621,-31.4469 L 15.927,-31.3532 L 16.2773,-31.2145 L 16.6075,-31.033
 L 16.9123,-30.8115 L 17.1869,-30.5536 L 17.427,-30.2634 L 17.6289,-29.9453 L 17.7893,-29.6044 L 17.9057,-29.2461
 L 17.9763,-28.876 L 18,-28.5 L 17.9763,-28.124 L 17.9057,-27.7539 L 17.7893,-27.3956 L 17.6289,-27.0547
 L 17.427,-26.7366 L 17.1869,-26.4464 L 16.9123,-26.1884 L 16.6075,-25.967 L 16.2773,-25.7855 L 15.927,-25.6468
 L 15.5621,-25.5531 L 15.1884,-25.5059 z
M -10.2483,-11.9133 L -10.2483,-15.0867 L -7.49998,-16.6735 L -4.75166,-15.0867 L -4.75166,-11.9133 L -7.5,-10.3265
 z
M -15.1884,-10.5059 L -15.5621,-10.5531 L -15.927,-10.6468 L -16.2773,-10.7855 L -16.6075,-10.967 L -16.9123,-11.1884
 L -17.1869,-11.4464 L -17.427,-11.7366 L -17.6289,-12.0547 L -17.7893,-12.3956 L -17.9057,-12.7539 L -17.9763,-13.124
 L -18,-13.5 L -17.9763,-13.876 L -17.9057,-14.2461 L -17.7893,-14.6044 L -17.6289,-14.9453 L -17.427,-15.2634
 L -17.1869,-15.5536 L -16.9123,-15.8115 L -16.6075,-16.033 L -16.2773,-16.2145 L -15.927,-16.3532 L -15.5621,-16.4469
 L -15.1884,-16.4941 L -14.8116,-16.4941 L -14.4379,-16.4469 L -14.0729,-16.3532 L -13.7227,-16.2145 L -13.3925,-16.033
 L -13.0877,-15.8115 L -12.8131,-15.5536 L -12.5729,-15.2634 L -12.3711,-14.9453 L -12.2107,-14.6044 L -12.0942,-14.2461
 L -12.0237,-13.876 L -12,-13.5 L -12.0237,-13.124 L -12.0942,-12.7539 L -12.2107,-12.3956 L -12.3711,-12.0547
 L -12.5729,-11.7366 L -12.8131,-11.4464 L -13.0877,-11.1884 L -13.3925,-10.967 L -13.7227,-10.7855 L -14.0729,-10.6468
 L -14.4379,-10.5531 L -14.8116,-10.5059 z
M -0.18837,-10.5059 L -0.562134,-10.5531 L -0.927048,-10.6468 L -1.27733,-10.7855 L -1.60747,-10.967 L -1.91226,-11.1884
 L -2.1869,-11.4464 L -2.42705,-11.7366 L -2.62891,-12.0547 L -2.78932,-12.3956 L -2.90575,-12.7539 L -2.97633,-13.124
 L -3,-13.5 L -2.97633,-13.876 L -2.90575,-14.2461 L -2.78932,-14.6044 L -2.62891,-14.9453 L -2.42705,-15.2634
 L -2.1869,-15.5536 L -1.91226,-15.8115 L -1.60747,-16.033 L -1.27733,-16.2145 L -0.927048,-16.3532 L -0.562134,-16.4469
 L -0.18837,-16.4941 L 0.18837,-16.4941 L 0.562134,-16.4469 L 0.927048,-16.3532 L 1.27733,-16.2145 L 1.60747,-16.033
 L 1.91226,-15.8115 L 2.1869,-15.5536 L 2.42705,-15.2634 L 2.62891,-14.9453 L 2.78932,-14.6044 L 2.90575,-14.2461
 L 2.97633,-13.876 L 3,-13.5 L 2.97633,-13.124 L 2.90575,-12.7539 L 2.78932,-12.3956 L 2.62891,-12.0547
 L 2.42705,-11.7366 L 2.1869,-11.4464 L 1.91226,-11.1884 L 1.60747,-10.967 L 1.27733,-10.7855 L 0.927048,-10.6468
 L 0.562134,-10.5531 L 0.18837,-10.5059 z
M 14.8116,-10.5059 L 14.4379,-10.5531 L 14.0729,-10.6468 L 13.7227,-10.7855 L 13.3925,-10.967 L 13.0877,-11.1884
 L 12.8131,-11.4464 L 12.5729,-11.7366 L 12.3711,-12.0547 L 12.2107,-12.3956 L 12.0942,-12.7539 L 12.0237,-13.124
 L 12,-13.5 L 12.0237,-13.876 L 12.0942,-14.2461 L 12.2107,-14.6044 L 12.3711,-14.9453 L 12.5729,-15.2634
 L 12.8131,-15.5536 L 13.0877,-15.8115 L 13.3925,-16.033 L 13.7227,-16.2145 L 14.0729,-16.3532 L 14.4379,-16.4469
 L 14.8116,-16.4941 L 15.1884,-16.4941 L 15.5621,-16.4469 L 15.927,-16.3532 L 16.2773,-16.2145 L 16.6075,-16.033
 L 16.9123,-15.8115 L 17.1869,-15.5536 L 17.427,-15.2634 L 17.6289,-14.9453 L 17.7893,-14.6044 L 17.9057,-14.2461
 L 17.9763,-13.876 L 18,-13.5 L 17.9763,-13.124 L 17.9057,-12.7539 L 17.7893,-12.3956 L 17.6289,-12.0547
 L 17.427,-11.7366 L 17.1869,-11.4464 L 16.9123,-11.1884 L 16.6075,-10.967 L 16.2773,-10.7855 L 15.927,-10.6468
 L 15.5621,-10.5531 L 15.1884,-10.5059 z
M 7.40063,-11.9208 L 7.20349,-11.9457 L 7.01102,-11.9951 L 6.82626,-12.0682 L 6.65213,-12.164 L 6.49136,-12.2808
 L 6.34651,-12.4168 L 6.21985,-12.5699 L 6.11336,-12.7377 L 6.02876,-12.9175 L 5.96735,-13.1065 L 5.93011,-13.3017
 L 5.91763,-13.5 L 5.93011,-13.6983 L 5.96735,-13.8935 L 6.02876,-14.0825 L 6.11336,-14.2623 L 6.21985,-14.4301
 L 6.34651,-14.5832 L 6.49136,-14.7192 L 6.65213,-14.836 L 6.82626,-14.9317 L 7.01102,-15.0049 L 7.20349,-15.0543
 L 7.40063,-15.0792 L 7.59935,-15.0792 L 7.79649,-15.0543 L 7.98897,-15.0049 L 8.17372,-14.9317 L 8.34785,-14.836
 L 8.50862,-14.7192 L 8.65347,-14.5832 L 8.78014,-14.4301 L 8.88661,-14.2623 L 8.97122,-14.0825 L 9.03264,-13.8935
 L 9.06987,-13.6983 L 9.08235,-13.5 L 9.06987,-13.3017 L 9.03264,-13.1065 L 8.97122,-12.9175 L 8.88661,-12.7377
 L 8.78014,-12.5699 L 8.65347,-12.4168 L 8.50862,-12.2808 L 8.34785,-12.164 L 8.17372,-12.0682 L 7.98897,-11.9951
 L 7.79649,-11.9457 L 7.59935,-11.9208 z
M -3.5719,-2.89999 L -3.5719,-8 L 3.5719,-8 L 3.5719,-2.89999 z
M -18.5719,-2.89999 L -18.5719,-8 L -11.4281,-8 L -11.4281,-2.89999 z
M 11.4281,-2.89999 L 11.4281,-8 L 18.5719,-8 L 18.5719,-2.89999 z
" stroke="black" fill="lightgray" stroke-width="0.5"/>
</svg>
