<?xml version="1.0" standalone="no"?>
<!DOCTYPE svg PUBLIC "-//W3C//DTD SVG 1.1//EN" "http://www.w3.org/Graphics/SVG/1.1/DTD/svg11.dtd">
<svg width="90mm" height="22mm" viewBox="-45 -11 90 22" xmlns="http://www.w3.org/2000/svg" version="1.1">
<title>OpenSCAD Model</title>
<path d="
M 42.7184,10.9557 L 43.0225,10.8776 L 43.3144,10.7621 L 43.5896,10.6108 L 43.8436,10.4263 L 44.0724,10.2114
 L 44.2725,9.96945 L 44.4408,9.70438 L 44.5744,9.4203 L 44.6714,9.12172 L 44.7303,8.81332 L 44.75,8.5
 L 44.75,-8.5 L 44.7303,-8.81332 L 44.6714,-9.12172 L 44.5744,-9.4203 L 44.4408,-9.70438 L 44.2725,-9.96945
 L 44.0724,-10.2114 L 43.8436,-10.4263 L 43.5896,-10.6108 L 43.3144,-10.7621 L 43.0225,-10.8776 L 42.7184,-10.9557
 L 42.407,-10.9951 L -42.407,-10.9951 L -42.7184,-10.9557 L -43.0225,-10.8776 L -43.3144,-10.7621 L -43.5896,-10.6108
 L -43.8436,-10.4263 L -44.0724,-10.2114 L -44.2725,-9.96945 L -44.4408,-9.70438 L -44.5744,-9.4203 L -44.6714,-9.12172
 L -44.7303,-8.81332 L -44.75,-8.5 L -44.75,8.5 L -44.7303,8.81332 L -44.6714,9.12172 L -44.5744,9.4203
 L -44.4408,9.70438 L -44.2725,9.96945 L -44.0724,10.2114 L -43.8436,10.4263 L -43.5896,10.6108 L -43.3144,10.7621
 L -43.0225,10.8776 L -42.7184,10.9557 L -42.407,10.9951 L 42.407,10.9951 z
M -41.3442,-6.00294 L -41.5311,-6.02657 L -41.7135,-6.07341 L -41.8887,-6.14275 L -42.0537,-6.23351 L -42.2061,-6.34422
 L -42.3434,-6.47318 L -42.4635,-6.61832 L -42.5645,-6.77736 L -42.6447,-6.9478 L -42.7029,-7.12695 L -42.7382,-7.312
 L -42.75,-7.5 L -42.7382,-7.68799 L -42.7029,-7.87303 L -42.6447,-8.05219 L -42.5645,-8.22263 L -42.4635,-8.38167
 L -42.3434,-8.52681 L -42.2061,-8.65576 L -42.0537,-8.76648 L -41.8887,-8.85724 L -41.7135,-8.92657 L -41.5311,-8.97342
 L -41.3442,-8.99704 L -41.1558,-8.99704 L -40.9689,-8.97342 L -40.7865,-8.92657 L -40.6113,-8.85724 L -40.4463,-8.76648
 L -40.2939,-8.65576 L -40.1565,-8.52681 L -40.0365,-8.38167 L -39.9355,-8.22263 L -39.8553,-8.05219 L -39.7971,-7.87303
 L -39.7618,-7.68799 L -39.75,-7.5 L -39.7618,-7.312 L -39.7971,-7.12695 L -39.8553,-6.9478 L -39.9355,-6.77736
 L -40.0365,-6.61832 L -40.1565,-6.47318 L -40.2939,-6.34422 L -40.4463,-6.23351 L -40.6113,-6.14275 L -40.7865,-6.07341
 L -40.9689,-6.02657 L -41.1558,-6.00294 z
M 18.6558,-6.00294 L 18.4689,-6.02657 L 18.2865,-6.07341 L 18.1113,-6.14275 L 17.9463,-6.23351 L 17.7939,-6.34422
 L 17.6565,-6.47318 L 17.5365,-6.61832 L 17.4355,-6.77736 L 17.3553,-6.9478 L 17.2971,-7.12695 L 17.2618,-7.312
 L 17.25,-7.5 L 17.2618,-7.68799 L 17.2971,-7.87303 L 17.3553,-8.05219 L 17.4355,-8.22263 L 17.5365,-8.38167
 L 17.6565,-8.52681 L 17.7939,-8.65576 L 17.9463,-8.76648 L 18.1113,-8.85724 L 18.2865,-8.92657 L 18.4689,-8.97342
 L 18.6558,-8.99704 L 18.8442,-8.99704 L 19.0311,-8.97342 L 19.2135,-8.92657 L 19.3887,-8.85724 L 19.5537,-8.76648
 L 19.7061,-8.65576 L 19.8434,-8.52681 L 19.9635,-8.38167 L 20.0645,-8.22263 L 20.1447,-8.05219 L 20.2029,-7.87303
 L 20.2382,-7.68799 L 20.25,-7.5 L 20.2382,-7.312 L 20.2029,-7.12695 L 20.1447,-6.9478 L 20.0645,-6.77736
 L 19.9635,-6.61832 L 19.8434,-6.47318 L 19.7061,-6.34422 L 19.5537,-6.23351 L 19.3887,-6.14275 L 19.2135,-6.07341
 L 19.0311,-6.02657 L 18.8442,-6.00294 z
M 26.1558,-6.00294 L 25.9689,-6.02657 L 25.7865,-6.07341 L 25.6113,-6.14275 L 25.4463,-6.23351 L 25.2939,-6.34422
 L 25.1565,-6.47318 L 25.0365,-6.61832 L 24.9355,-6.77736 L 24.8553,-6.9478 L 24.7971,-7.12695 L 24.7618,-7.312
 L 24.75,-7.5 L 24.7618,-7.68799 L 24.7971,-7.87303 L 24.8553,-8.05219 L 24.9355,-8.22263 L 25.0365,-8.38167
 L 25.1565,-8.52681 L 25.2939,-8.65576 L 25.4463,-8.76648 L 25.6113,-8.85724 L 25.7865,-8.92657 L 25.9689,-8.97342
 L 26.1558,-8.99704 L 26.3442,-8.99704 L 26.5311,-8.97342 L 26.7135,-8.92657 L 26.8887,-8.85724 L 27.0537,-8.76648
 L 27.2061,-8.65576 L 27.3434,-8.52681 L 27.4635,-8.38167 L 27.5645,-8.22263 L 27.6447,-8.05219 L 27.7029,-7.87303
 L 27.7382,-7.68799 L 27.75,-7.5 L 27.7382,-7.312 L 27.7029,-7.12695 L 27.6447,-6.9478 L 27.5645,-6.77736
 L 27.4635,-6.61832 L 27.3434,-6.47318 L 27.2061,-6.34422 L 27.0537,-6.23351 L 26.8887,-6.14275 L 26.7135,-6.07341
 L 26.5311,-6.02657 L 26.3442,-6.00294 z
M -18.8442,-6.00294 L -19.0311,-6.02657 L -19.2135,-6.07341 L -19.3887,-6.14275 L -19.5537,-6.23351 L -19.7061,-6.34422
 L -19.8434,-6.47318 L -19.9635,-6.61832 L -20.0645,-6.77736 L -20.1447,-6.9478 L -20.2029,-7.12695 L -20.2382,-7.312
 L -20.25,-7.5 L -20.2382,-7.68799 L -20.2029,-7.87303 L -20.1447,-8.05219 L -20.0645,-8.22263 L -19.9635,-8.38167
 L -19.8434,-8.52681 L -19.7061,-8.65576 L -19.5537,-8.76648 L -19.3887,-8.85724 L -19.2135,-8.92657 L -19.0311,-8.97342
 L -18.8442,-8.99704 L -18.6558,-8.99704 L -18.4689,-8.97342 L -18.2865,-8.92657 L -18.1113,-8.85724 L -17.9463,-8.76648
 L -17.7939,-8.65576 L -17.6565,-8.52681 L -17.5365,-8.38167 L -17.4355,-8.22263 L -17.3553,-8.05219 L -17.2971,-7.87303
 L -17.2618,-7.68799 L -17.25,-7.5 L -17.2618,-7.312 L -17.2971,-7.12695 L -17.3553,-6.9478 L -17.4355,-6.77736
 L -17.5365,-6.61832 L -17.6565,-6.47318 L -17.7939,-6.34422 L -17.9463,-6.23351 L -18.1113,-6.14275 L -18.2865,-6.07341
 L -18.4689,-6.02657 L -18.6558,-6.00294 z
M -3.84418,-6.00294 L -4.03107,-6.02657 L -4.21352,-6.07341 L -4.38866,-6.14275 L -4.55373,-6.23351 L -4.70613,-6.34422
 L -4.84344,-6.47318 L -4.96352,-6.61832 L -5.06445,-6.77736 L -5.14465,-6.9478 L -5.20287,-7.12695 L -5.23816,-7.312
 L -5.25,-7.5 L -5.23816,-7.68799 L -5.20287,-7.87303 L -5.14465,-8.05219 L -5.06445,-8.22263 L -4.96352,-8.38167
 L -4.84344,-8.52681 L -4.70613,-8.65576 L -4.55373,-8.76648 L -4.38866,-8.85724 L -4.21352,-8.92657 L -4.03107,-8.97342
 L -3.84418,-8.99704 L -3.65581,-8.99704 L -3.46892,-8.97342 L -3.28647,-8.92657 L -3.11133,-8.85724 L -2.94626,-8.76648
 L -2.79385,-8.65576 L -2.65654,-8.52681 L -2.53647,-8.38167 L -2.43553,-8.22263 L -2.35533,-8.05219 L -2.29712,-7.87303
 L -2.26183,-7.68799 L -2.25,-7.5 L -2.26183,-7.312 L -2.29712,-7.12695 L -2.35533,-6.9478 L -2.43553,-6.77736
 L -2.53647,-6.61832 L -2.65654,-6.47318 L -2.79385,-6.34422 L -2.94626,-6.23351 L -3.11133,-6.14275 L -3.28647,-6.07341
 L -3.46892,-6.02657 L -3.65581,-6.00294 z
M 11.1558,-6.00294 L 10.9689,-6.02657 L 10.7865,-6.07341 L 10.6113,-6.14275 L 10.4463,-6.23351 L 10.2939,-6.34422
 L 10.1565,-6.47318 L 10.0365,-6.61832 L 9.93553,-6.77736 L 9.85533,-6.9478 L 9.79712,-7.12695 L 9.76183,-7.312
 L 9.75,-7.5 L 9.76183,-7.68799 L 9.79712,-7.87303 L 9.85533,-8.05219 L 9.93553,-8.22263 L 10.0365,-8.38167
 L 10.1565,-8.52681 L 10.2939,-8.65576 L 10.4463,-8.76648 L 10.6113,-8.85724 L 10.7865,-8.92657 L 10.9689,-8.97342
 L 11.1558,-8.99704 L 11.3442,-8.99704 L 11.5311,-8.97342 L 11.7135,-8.92657 L 11.8887,-8.85724 L 12.0537,-8.76648
 L 12.2061,-8.65576 L 12.3434,-8.52681 L 12.4635,-8.38167 L 12.5645,-8.22263 L 12.6447,-8.05219 L 12.7029,-7.87303
 L 12.7382,-7.68799 L 12.75,-7.5 L 12.7382,-7.312 L 12.7029,-7.12695 L 12.6447,-6.9478 L 12.5645,-6.77736
 L 12.4635,-6.61832 L 12.3434,-6.47318 L 12.2061,-6.34422 L 12.0537,-6.23351 L 11.8887,-6.14275 L 11.7135,-6.07341
 L 11.5311,-6.02657 L 11.3442,-6.00294 z
M 41.1558,-6.00294 L 40.9689,-6.02657 L 40.7865,-6.07341 L 40.6113,-6.14275 L 40.4463,-6.23351 L 40.2939,-6.34422
 L 40.1565,-6.47318 L 40.0365,-6.61832 L 39.9355,-6.77736 L 39.8553,-6.9478 L 39.7971,-7.12695 L 39.7618,-7.312
 L 39.75,-7.5 L 39.7618,-7.68799 L 39.7971,-7.87303 L 39.8553,-8.05219 L 39.9355,-8.22263 L 40.0365,-8.38167
 L 40.1565,-8.52681 L 40.2939,-8.65576 L 40.4463,-8.76648 L 40.6113,-8.85724 L 40.7865,-8.92657 L 40.9689,-8.97342
 L 41.1558,-8.99704 L 41.3442,-8.99704 L 41.5311,-8.97342 L 41.7135,-8.92657 L 41.8887,-8.85724 L 42.0537,-8.76648
 L 42.2061,-8.65576 L 42.3434,-8.52681 L 42.4635,-8.38167 L 42.5645,-8.22263 L 42.6447,-8.05219 L 42.7029,-7.87303
 L 42.7382,-7.68799 L 42.75,-7.5 L 42.7382,-7.312 L 42.7029,-7.12695 L 42.6447,-6.9478 L 42.5645,-6.77736
 L 42.4635,-6.61832 L 42.3434,-6.47318 L 42.2061,-6.34422 L 42.0537,-6.23351 L 41.8887,-6.14275 L 41.7135,-6.07341
 L 41.5311,-6.02657 L 41.3442,-6.00294 z
M -11.3442,-6.00294 L -11.5311,-6.02657 L -11.7135,-6.07341 L -11.8887,-6.14275 L -12.0537,-6.23351 L -12.2061,-6.34422
 L -12.3434,-6.47318 L -12.4635,-6.61832 L -12.5645,-6.77736 L -12.6447,-6.9478 L -12.7029,-7.12695 L -12.7382,-7.312
 L -12.75,-7.5 L -12.7382,-7.68799 L -12.7029,-7.87303 L -12.6447,-8.05219 L -12.5645,-8.22263 L -12.4635,-8.38167
 L -12.3434,-8.52681 L -12.2061,-8.65576 L -12.0537,-8.76648 L -11.8887,-8.85724 L -11.7135,-8.92657 L -11.5311,-8.97342
 L -11.3442,-8.99704 L -11.1558,-8.99704 L -10.9689,-8.97342 L -10.7865,-8.92657 L -10.6113,-8.85724 L -10.4463,-8.76648
 L -10.2939,-8.65576 L -10.1565,-8.52681 L -10.0365,-8.38167 L -9.93553,-8.22263 L -9.85533,-8.05219 L -9.79712,-7.87303
 L -9.76183,-7.68799 L -9.75,-7.5 L -9.76183,-7.312 L -9.79712,-7.12695 L -9.85533,-6.9478 L -9.93553,-6.77736
 L -10.0365,-6.61832 L -10.1565,-6.47318 L -10.2939,-6.34422 L -10.4463,-6.23351 L -10.6113,-6.14275 L -10.7865,-6.07341
 L -10.9689,-6.02657 L -11.1558,-6.00294 z
M 3.65581,-6.00294 L 3.46892,-6.02657 L 3.28647,-6.07341 L 3.11133,-6.14275 L 2.94626,-6.23351 L 2.79385,-6.34422
 L 2.65654,-6.47318 L 2.53647,-6.61832 L 2.43553,-6.77736 L 2.35533,-6.9478 L 2.29712,-7.12695 L 2.26183,-7.312
 L 2.25,-7.5 L 2.26183,-7.68799 L 2.29712,-7.87303 L 2.35533,-8.05219 L 2.43553,-8.22263 L 2.53647,-8.38167
 L 2.65654,-8.52681 L 2.79385,-8.65576 L 2.94626,-8.76648 L 3.11133,-8.85724 L 3.28647,-8.92657 L 3.46892,-8.97342
 L 3.65581,-8.99704 L 3.84418,-8.99704 L 4.03107,-8.97342 L 4.21352,-8.92657 L 4.38866,-8.85724 L 4.55373,-8.76648
 L 4.70613,-8.65576 L 4.84344,-8.52681 L 4.96352,-8.38167 L 5.06445,-8.22263 L 5.14465,-8.05219 L 5.20287,-7.87303
 L 5.23816,-7.68799 L 5.25,-7.5 L 5.23816,-7.312 L 5.20287,-7.12695 L 5.14465,-6.9478 L 5.06445,-6.77736
 L 4.96352,-6.61832 L 4.84344,-6.47318 L 4.70613,-6.34422 L 4.55373,-6.23351 L 4.38866,-6.14275 L 4.21352,-6.07341
 L 4.03107,-6.02657 L 3.84418,-6.00294 z
M -26.3442,-6.00294 L -26.5311,-6.02657 L -26.7135,-6.07341 L -26.8887,-6.14275 L -27.0537,-6.23351 L -27.2061,-6.34422
 L -27.3434,-6.47318 L -27.4635,-6.61832 L -27.5645,-6.77736 L -27.6447,-6.9478 L -27.7029,-7.12695 L -27.7382,-7.312
 L -27.75,-7.5 L -27.7382,-7.68799 L -27.7029,-7.87303 L -27.6447,-8.05219 L -27.5645,-8.22263 L -27.4635,-8.38167
 L -27.3434,-8.52681 L -27.2061,-8.65576 L -27.0537,-8.76648 L -26.8887,-8.85724 L -26.7135,-8.92657 L -26.5311,-8.97342
 L -26.3442,-8.99704 L -26.1558,-8.99704 L -25.9689,-8.97342 L -25.7865,-8.92657 L -25.6113,-8.85724 L -25.4463,-8.76648
 L -25.2939,-8.65576 L -25.1565,-8.52681 L -25.0365,-8.38167 L -24.9355,-8.22263 L -24.8553,-8.05219 L -24.7971,-7.87303
 L -24.7618,-7.68799 L -24.75,-7.5 L -24.7618,-7.312 L -24.7971,-7.12695 L -24.8553,-6.9478 L -24.9355,-6.77736
 L -25.0365,-6.61832 L -25.1565,-6.47318 L -25.2939,-6.34422 L -25.4463,-6.23351 L -25.6113,-6.14275 L -25.7865,-6.07341
 L -25.9689,-6.02657 L -26.1558,-6.00294 z
M -33.8442,-6.00294 L -34.0311,-6.02657 L -34.2135,-6.07341 L -34.3887,-6.14275 L -34.5537,-6.23351 L -34.7061,-6.34422
 L -34.8434,-6.47318 L -34.9635,-6.61832 L -35.0645,-6.77736 L -35.1447,-6.9478 L -35.2029,-7.12695 L -35.2382,-7.312
 L -35.25,-7.5 L -35.2382,-7.68799 L -35.2029,-7.87303 L -35.1447,-8.05219 L -35.0645,-8.22263 L -34.9635,-8.38167
 L -34.8434,-8.52681 L -34.7061,-8.65576 L -34.5537,-8.76648 L -34.3887,-8.85724 L -34.2135,-8.92657 L -34.0311,-8.97342
 L -33.8442,-8.99704 L -33.6558,-8.99704 L -33.4689,-8.97342 L -33.2865,-8.92657 L -33.1113,-8.85724 L -32.9463,-8.76648
 L -32.7939,-8.65576 L -32.6565,-8.52681 L -32.5365,-8.38167 L -32.4355,-8.22263 L -32.3553,-8.05219 L -32.2971,-7.87303
 L -32.2618,-7.68799 L -32.25,-7.5 L -32.2618,-7.312 L -32.2971,-7.12695 L -32.3553,-6.9478 L -32.4355,-6.77736
 L -32.5365,-6.61832 L -32.6565,-6.47318 L -32.7939,-6.34422 L -32.9463,-6.23351 L -33.1113,-6.14275 L -33.2865,-6.07341
 L -33.4689,-6.02657 L -33.6558,-6.00294 z
M 33.6558,-6.00294 L 33.4689,-6.02657 L 33.2865,-6.07341 L 33.1113,-6.14275 L 32.9463,-6.23351 L 32.7939,-6.34422
 L 32.6565,-6.47318 L 32.5365,-6.61832 L 32.4355,-6.77736 L 32.3553,-6.9478 L 32.2971,-7.12695 L 32.2618,-7.312
 L 32.25,-7.5 L 32.2618,-7.68799 L 32.2971,-7.87303 L 32.3553,-8.05219 L 32.4355,-8.22263 L 32.5365,-8.38167
 L 32.6565,-8.52681 L 32.7939,-8.65576 L 32.9463,-8.76648 L 33.1113,-8.85724 L 33.2865,-8.92657 L 33.4689,-8.97342
 L 33.6558,-8.99704 L 33.8442,-8.99704 L 34.0311,-8.97342 L 34.2135,-8.92657 L 34.3887,-8.85724 L 34.5537,-8.76648
 L 34.7061,-8.65576 L 34.8434,-8.52681 L 34.9635,-8.38167 L 35.0645,-8.22263 L 35.1447,-8.05219 L 35.2029,-7.87303
 L 35.2382,-7.68799 L 35.25,-7.5 L 35.2382,-7.312 L 35.2029,-7.12695 L 35.1447,-6.9478 L 35.0645,-6.77736
 L 34.9635,-6.61832 L 34.8434,-6.47318 L 34.7061,-6.34422 L 34.5537,-6.23351 L 34.3887,-6.14275 L 34.2135,-6.07341
 L 34.0311,-6.02657 L 33.8442,-6.00294 z
M -12.5645,0.722626 L -12.6447,0.552185 L -12.7029,0.373032 L -12.7382,0.187988 L -12.75,-0 L -12.7382,-0.187988
 L -12.7029,-0.373032 L -12.6447,-0.552185 L -12.5645,-0.722626 L -12.4635,-0.881668 L -12.3434,-1.02681 L -12.2061,-1.15576
 L -12.0537,-1.26648 L -11.8887,-1.35724 L -11.7135,-1.42657 L -11.5311,-1.47342 L -11.3442,-1.49704 L -11.1558,-1.49704
 L -10.9689,-1.47342 L -10.7865,-1.42657 L -10.6113,-1.35724 L -10.4463,-1.26648 L -10.2939,-1.15576 L -10.1565,-1.02681
 L -10.0365,-0.881668 L -9.93553,-0.722626 L -9.85533,-0.552185 L -9.79712,-0.373032 L -9.76183,-0.187988 L -9.75,-0
 L -9.76183,0.187988 L -9.79712,0.373032 L -9.85533,0.552185 L -9.93553,0.722626 L -10.0365,0.881668 L -10.1565,1.02681
 L -10.2939,1.15576 L -10.4463,1.26648 L -10.6113,1.35724 L -10.7865,1.42657 L -10.9689,1.47342 L -11.1558,1.49704
 L -11.3442,1.49704 L -11.5311,1.47342 L -11.7135,1.42657 L -11.8887,1.35724 L -12.0537,1.26648 L -12.2061,1.15576
 L -12.3434,1.02681 L -12.4635,0.881668 z
M 3.65581,1.49704 L 3.46892,1.47342 L 3.28647,1.42657 L 3.11133,1.35724 L 2.94626,1.26648 L 2.79385,1.15576
 L 2.65654,1.02681 L 2.53647,0.881668 L 2.43553,0.722626 L 2.35533,0.552185 L 2.29712,0.373032 L 2.26183,0.187988
 L 2.25,-0 L 2.26183,-0.187988 L 2.29712,-0.373032 L 2.35533,-0.552185 L 2.43553,-0.722626 L 2.53647,-0.881668
 L 2.65654,-1.02681 L 2.79385,-1.15576 L 2.94626,-1.26648 L 3.11133,-1.35724 L 3.28647,-1.42657 L 3.46892,-1.47342
 L 3.65581,-1.49704 L 3.84418,-1.49704 L 4.03107,-1.47342 L 4.21352,-1.42657 L 4.38866,-1.35724 L 4.55373,-1.26648
 L 4.70613,-1.15576 L 4.84344,-1.02681 L 4.96352,-0.881668 L 5.06445,-0.722626 L 5.14465,-0.552185 L 5.20287,-0.373032
 L 5.23816,-0.187988 L 5.25,-0 L 5.23816,0.187988 L 5.20287,0.373032 L 5.14465,0.552185 L 5.06445,0.722626
 L 4.96352,0.881668 L 4.84344,1.02681 L 4.70613,1.15576 L 4.55373,1.26648 L 4.38866,1.35724 L 4.21352,1.42657
 L 4.03107,1.47342 L 3.84418,1.49704 z
M -33.8442,1.49704 L -34.0311,1.47342 L -34.2135,1.42657 L -34.3887,1.35724 L -34.5537,1.26648 L -34.7061,1.15576
 L -34.8434,1.02681 L -34.9635,0.881668 L -35.0645,0.722626 L -35.1447,0.552185 L -35.2029,0.373032 L -35.2382,0.187988
 L -35.25,-0 L -35.2382,-0.187988 L -35.2029,-0.373032 L -35.1447,-0.552185 L -35.0645,-0.722626 L -34.9635,-0.881668
 L -34.8434,-1.02681 L -34.7061,-1.15576 L -34.5537,-1.26648 L -34.3887,-1.35724 L -34.2135,-1.42657 L -34.0311,-1.47342
 L -33.8442,-1.49704 L -33.6558,-1.49704 L -33.4689,-1.47342 L -33.2865,-1.42657 L -33.1113,-1.35724 L -32.9463,-1.26648
 L -32.7939,-1.15576 L -32.6565,-1.02681 L -32.5365,-0.881668 L -32.4355,-0.722626 L -32.3553,-0.552185 L -32.2971,-0.373032
 L -32.2618,-0.187988 L -32.25,-0 L -32.2618,0.187988 L -32.2971,0.373032 L -32.3553,0.552185 L -32.4355,0.722626
 L -32.5365,0.881668 L -32.6565,1.02681 L -32.7939,1.15576 L -32.9463,1.26648 L -33.1113,1.35724 L -33.2865,1.42657
 L -33.4689,1.47342 L -33.6558,1.49704 z
M 41.1558,1.49704 L 40.9689,1.47342 L 40.7865,1.42657 L 40.6113,1.35724 L 40.4463,1.26648 L 40.2939,1.15576
 L 40.1565,1.02681 L 40.0365,0.881668 L 39.9355,0.722626 L 39.8553,0.552185 L 39.7971,0.373032 L 39.7618,0.187988
 L 39.75,-0 L 39.7618,-0.187988 L 39.7971,-0.373032 L 39.8553,-0.552185 L 39.9355,-0.722626 L 40.0365,-0.881668
 L 40.1565,-1.02681 L 40.2939,-1.15576 L 40.4463,-1.26648 L 40.6113,-1.35724 L 40.7865,-1.42657 L 40.9689,-1.47342
 L 41.1558,-1.49704 L 41.3442,-1.49704 L 41.5311,-1.47342 L 41.7135,-1.42657 L 41.8887,-1.35724 L 42.0537,-1.26648
 L 42.2061,-1.15576 L 42.3434,-1.02681 L 42.4635,-0.881668 L 42.5645,-0.722626 L 42.6447,-0.552185 L 42.7029,-0.373032
 L 42.7382,-0.187988 L 42.75,-0 L 42.7382,0.187988 L 42.7029,0.373032 L 42.6447,0.552185 L 42.5645,0.722626
 L 42.4635,0.881668 L 42.3434,1.02681 L 42.2061,1.15576 L 42.0537,1.26648 L 41.8887,1.35724 L 41.7135,1.42657
 L 41.5311,1.47342 L 41.3442,1.49704 z
M 11.1558,1.49704 L 10.9689,1.47342 L 10.7865,1.42657 L 10.6113,1.35724 L 10.4463,1.26648 L 10.2939,1.15576
 L 10.1565,1.02681 L 10.0365,0.881668 L 9.93553,0.722626 L 9.85533,0.552185 L 9.79712,0.373032 L 9.76183,0.187988
 L 9.75,-0 L 9.76183,-0.187988 L 9.79712,-0.373032 L 9.85533,-0.552185 L 9.93553,-0.722626 L 10.0365,-0.881668
 L 10.1565,-1.02681 L 10.2939,-1.15576 L 10.4463,-1.26648 L 10.6113,-1.35724 L 10.7865,-1.42657 L 10.9689,-1.47342
 L 11.1558,-1.49704 L 11.3442,-1.49704 L 11.5311,-1.47342 L 11.7135,-1.42657 L 11.8887,-1.35724 L 12.0537,-1.26648
 L 12.2061,-1.15576 L 12.3434,-1.02681 L 12.4635,-0.881668 L 12.5645,-0.722626 L 12.6447,-0.552185 L 12.7029,-0.373032
 L 12.7382,-0.187988 L 12.75,-0 L 12.7382,0.187988 L 12.7029,0.373032 L 12.6447,0.552185 L 12.5645,0.722626
 L 12.4635,0.881668 L 12.3434,1.02681 L 12.2061,1.15576 L 12.0537,1.26648 L 11.8887,1.35724 L 11.7135,1.42657
 L 11.5311,1.47342 L 11.3442,1.49704 z
M 18.6558,1.49704 L 18.4689,1.47342 L 18.2865,1.42657 L 18.1113,1.35724 L 17.9463,1.26648 L 17.7939,1.15576
 L 17.6565,1.02681 L 17.5365,0.881668 L 17.4355,0.722626 L 17.3553,0.552185 L 17.2971,0.373032 L 17.2618,0.187988
 L 17.25,-0 L 17.2618,-0.187988 L 17.2971,-0.373032 L 17.3553,-0.552185 L 17.4355,-0.722626 L 17.5365,-0.881668
 L 17.6565,-1.02681 L 17.7939,-1.15576 L 17.9463,-1.26648 L 18.1113,-1.35724 L 18.2865,-1.42657 L 18.4689,-1.47342
 L 18.6558,-1.49704 L 18.8442,-1.49704 L 19.0311,-1.47342 L 19.2135,-1.42657 L 19.3887,-1.35724 L 19.5537,-1.26648
 L 19.7061,-1.15576 L 19.8434,-1.02681 L 19.9635,-0.881668 L 20.0645,-0.722626 L 20.1447,-0.552185 L 20.2029,-0.373032
 L 20.2382,-0.187988 L 20.25,-0 L 20.2382,0.187988 L 20.2029,0.373032 L 20.1447,0.552185 L 20.0645,0.722626
 L 19.9635,0.881668 L 19.8434,1.02681 L 19.7061,1.15576 L 19.5537,1.26648 L 19.3887,1.35724 L 19.2135,1.42657
 L 19.0311,1.47342 L 18.8442,1.49704 z
M -26.3442,1.49704 L -26.5311,1.47342 L -26.7135,1.42657 L -26.8887,1.35724 L -27.0537,1.26648 L -27.2061,1.15576
 L -27.3434,1.02681 L -27.4635,0.881668 L -27.5645,0.722626 L -27.6447,0.552185 L -27.7029,0.373032 L -27.7382,0.187988
 L -27.75,-0 L -27.7382,-0.187988 L -27.7029,-0.373032 L -27.6447,-0.552185 L -27.5645,-0.722626 L -27.4635,-0.881668
 L -27.3434,-1.02681 L -27.2061,-1.15576 L -27.0537,-1.26648 L -26.8887,-1.35724 L -26.7135,-1.42657 L -26.5311,-1.47342
 L -26.3442,-1.49704 L -26.1558,-1.49704 L -25.9689,-1.47342 L -25.7865,-1.42657 L -25.6113,-1.35724 L -25.4463,-1.26648
 L -25.2939,-1.15576 L -25.1565,-1.02681 L -25.0365,-0.881668 L -24.9355,-0.722626 L -24.8553,-0.552185 L -24.7971,-0.373032
 L -24.7618,-0.187988 L -24.75,-0 L -24.7618,0.187988 L -24.7971,0.373032 L -24.8553,0.552185 L -24.9355,0.722626
 L -25.0365,0.881668 L -25.1565,1.02681 L -25.2939,1.15576 L -25.4463,1.26648 L -25.6113,1.35724 L -25.7865,1.42657
 L -25.9689,1.47342 L -26.1558,1.49704 z
M 33.6558,1.49704 L 33.4689,1.47342 L 33.2865,1.42657 L 33.1113,1.35724 L 32.9463,1.26648 L 32.7939,1.15576
 L 32.6565,1.02681 L 32.5365,0.881668 L 32.4355,0.722626 L 32.3553,0.552185 L 32.2971,0.373032 L 32.2618,0.187988
 L 32.25,-0 L 32.2618,-0.187988 L 32.2971,-0.373032 L 32.3553,-0.552185 L 32.4355,-0.722626 L 32.5365,-0.881668
 L 32.6565,-1.02681 L 32.7939,-1.15576 L 32.9463,-1.26648 L 33.1113,-1.35724 L 33.2865,-1.42657 L 33.4689,-1.47342
 L 33.6558,-1.49704 L 33.8442,-1.49704 L 34.0311,-1.47342 L 34.2135,-1.42657 L 34.3887,-1.35724 L 34.5537,-1.26648
 L 34.7061,-1.15576 L 34.8434,-1.02681 L 34.9635,-0.881668 L 35.0645,-0.722626 L 35.1447,-0.552185 L 35.2029,-0.373032
 L 35.2382,-0.187988 L 35.25,-0 L 35.2382,0.187988 L 35.2029,0.373032 L 35.1447,0.552185 L 35.0645,0.722626
 L 34.9635,0.881668 L 34.8434,1.02681 L 34.7061,1.15576 L 34.5537,1.26648 L 34.3887,1.35724 L 34.2135,1.42657
 L 34.0311,1.47342 L 33.8442,1.49704 z
M -41.3442,1.49704 L -41.5311,1.47342 L -41.7135,1.42657 L -41.8887,1.35724 L -42.0537,1.26648 L -42.2061,1.15576
 L -42.3434,1.02681 L -42.4635,0.881668 L -42.5645,0.722626 L -42.6447,0.552185 L -42.7029,0.373032 L -42.7382,0.187988
 L -42.75,-0 L -42.7382,-0.187988 L -42.7029,-0.373032 L -42.6447,-0.552185 L -42.5645,-0.722626 L -42.4635,-0.881668
 L -42.3434,-1.02681 L -42.2061,-1.15576 L -42.0537,-1.26648 L -41.8887,-1.35724 L -41.7135,-1.42657 L -41.5311,-1.47342
 L -41.3442,-1.49704 L -41.1558,-1.49704 L -40.9689,-1.47342 L -40.7865,-1.42657 L -40.6113,-1.35724 L -40.4463,-1.26648
 L -40.2939,-1.15576 L -40.1565,-1.02681 L -40.0365,-0.881668 L -39.9355,-0.722626 L -39.8553,-0.552185 L -39.7971,-0.373032
 L -39.7618,-0.187988 L -39.75,-0 L -39.7618,0.187988 L -39.7971,0.373032 L -39.8553,0.552185 L -39.9355,0.722626
 L -40.0365,0.881668 L -40.1565,1.02681 L -40.2939,1.15576 L -40.4463,1.26648 L -40.6113,1.35724 L -40.7865,1.42657
 L -40.9689,1.47342 L -41.1558,1.49704 z
M -3.84418,1.49704 L -4.03107,1.47342 L -4.21352,1.42657 L -4.38866,1.35724 L -4.55373,1.26648 L -4.70613,1.15576
 L -4.84344,1.02681 L -4.96352,0.881668 L -5.06445,0.722626 L -5.14465,0.552185 L -5.20287,0.373032 L -5.23816,0.187988
 L -5.25,-0 L -5.23816,-0.187988 L -5.20287,-0.373032 L -5.14465,-0.552185 L -5.06445,-0.722626 L -4.96352,-0.881668
 L -4.84344,-1.02681 L -4.70613,-1.15576 L -4.55373,-1.26648 L -4.38866,-1.35724 L -4.21352,-1.42657 L -4.03107,-1.47342
 L -3.84418,-1.49704 L -3.65581,-1.49704 L -3.46892,-1.47342 L -3.28647,-1.42657 L -3.11133,-1.35724 L -2.94626,-1.26648
 L -2.79385,-1.15576 L -2.65654,-1.02681 L -2.53647,-0.881668 L -2.43553,-0.722626 L -2.35533,-0.552185 L -2.29712,-0.373032
 L -2.26183,-0.187988 L -2.25,-0 L -2.26183,0.187988 L -2.29712,0.373032 L -2.35533,0.552185 L -2.43553,0.722626
 L -2.53647,0.881668 L -2.65654,1.02681 L -2.79385,1.15576 L -2.94626,1.26648 L -3.11133,1.35724 L -3.28647,1.42657
 L -3.46892,1.47342 L -3.65581,1.49704 z
M 26.1558,1.49704 L 25.9689,1.47342 L 25.7865,1.42657 L 25.6113,1.35724 L 25.4463,1.26648 L 25.2939,1.15576
 L 25.1565,1.02681 L 25.0365,0.881668 L 24.9355,0.722626 L 24.8553,0.552185 L 24.7971,0.373032 L 24.7618,0.187988
 L 24.75,-0 L 24.7618,-0.187988 L 24.7971,-0.373032 L 24.8553,-0.552185 L 24.9355,-0.722626 L 25.0365,-0.881668
 L 25.1565,-1.02681 L 25.2939,-1.15576 L 25.4463,-1.26648 L 25.6113,-1.35724 L 25.7865,-1.42657 L 25.9689,-1.47342
 L 26.1558,-1.49704 L 26.3442,-1.49704 L 26.5311,-1.47342 L 26.7135,-1.42657 L 26.8887,-1.35724 L 27.0537,-1.26648
 L 27.2061,-1.15576 L 27.3434,-1.02681 L 27.4635,-0.881668 L 27.5645,-0.722626 L 27.6447,-0.552185 L 27.7029,-0.373032
 L 27.7382,-0.187988 L 27.75,-0 L 27.7382,0.187988 L 27.7029,0.373032 L 27.6447,0.552185 L 27.5645,0.722626
 L 27.4635,0.881668 L 27.3434,1.02681 L 27.2061,1.15576 L 27.0537,1.26648 L 26.8887,1.35724 L 26.7135,1.42657
 L 26.5311,1.47342 L 26.3442,1.49704 z
M 33.6558,8.99704 L 33.4689,8.97342 L 33.2865,8.92657 L 33.1113,8.85724 L 32.9463,8.76648 L 32.7939,8.65576
 L 32.6565,8.52681 L 32.5365,8.38167 L 32.4355,8.22263 L 32.3553,8.05219 L 32.2971,7.87303 L 32.2618,7.68799
 L 32.25,7.5 L 32.2618,7.312 L 32.2971,7.12695 L 32.3553,6.9478 L 32.4355,6.77736 L 32.5365,6.61832
 L 32.6565,6.47318 L 32.7939,6.34422 L 32.9463,6.23351 L 33.1113,6.14275 L 33.2865,6.07341 L 33.4689,6.02657
 L 33.6558,6.00294 L 33.8442,6.00294 L 34.0311,6.02657 L 34.2135,6.07341 L 34.3887,6.14275 L 34.5537,6.23351
 L 34.7061,6.34422 L 34.8434,6.47318 L 34.9635,6.61832 L 35.0645,6.77736 L 35.1447,6.9478 L 35.2029,7.12695
 L 35.2382,7.312 L 35.25,7.5 L 35.2382,7.68799 L 35.2029,7.87303 L 35.1447,8.05219 L 35.0645,8.22263
 L 34.9635,8.38167 L 34.8434,8.52681 L 34.7061,8.65576 L 34.5537,8.76648 L 34.3887,8.85724 L 34.2135,8.92657
 L 34.0311,8.97342 L 33.8442,8.99704 z
M -11.3442,8.99704 L -11.5311,8.97342 L -11.7135,8.92657 L -11.8887,8.85724 L -12.0537,8.76648 L -12.2061,8.65576
 L -12.3434,8.52681 L -12.4635,8.38167 L -12.5645,8.22263 L -12.6447,8.05219 L -12.7029,7.87303 L -12.7382,7.68799
 L -12.75,7.5 L -12.7382,7.312 L -12.7029,7.12695 L -12.6447,6.9478 L -12.5645,6.77736 L -12.4635,6.61832
 L -12.3434,6.47318 L -12.2061,6.34422 L -12.0537,6.23351 L -11.8887,6.14275 L -11.7135,6.07341 L -11.5311,6.02657
 L -11.3442,6.00294 L -11.1558,6.00294 L -10.9689,6.02657 L -10.7865,6.07341 L -10.6113,6.14275 L -10.4463,6.23351
 L -10.2939,6.34422 L -10.1565,6.47318 L -10.0365,6.61832 L -9.93553,6.77736 L -9.85533,6.9478 L -9.79712,7.12695
 L -9.76183,7.312 L -9.75,7.5 L -9.76183,7.68799 L -9.79712,7.87303 L -9.85533,8.05219 L -9.93553,8.22263
 L -10.0365,8.38167 L -10.1565,8.52681 L -10.2939,8.65576 L -10.4463,8.76648 L -10.6113,8.85724 L -10.7865,8.92657
 L -10.9689,8.97342 L -11.1558,8.99704 z
M 3.65581,8.99704 L 3.46892,8.97342 L 3.28647,8.92657 L 3.11133,8.85724 L 2.94626,8.76648 L 2.79385,8.65576
 L 2.65654,8.52681 L 2.53647,8.38167 L 2.43553,8.22263 L 2.35533,8.05219 L 2.29712,7.87303 L 2.26183,7.68799
 L 2.25,7.5 L 2.26183,7.312 L 2.29712,7.12695 L 2.35533,6.9478 L 2.43553,6.77736 L 2.53647,6.61832
 L 2.65654,6.47318 L 2.79385,6.34422 L 2.94626,6.23351 L 3.11133,6.14275 L 3.28647,6.07341 L 3.46892,6.02657
 L 3.65581,6.00294 L 3.84418,6.00294 L 4.03107,6.02657 L 4.21352,6.07341 L 4.38866,6.14275 L 4.55373,6.23351
 L 4.70613,6.34422 L 4.84344,6.47318 L 4.96352,6.61832 L 5.06445,6.77736 L 5.14465,6.9478 L 5.20287,7.12695
 L 5.23816,7.312 L 5.25,7.5 L 5.23816,7.68799 L 5.20287,7.87303 L 5.14465,8.05219 L 5.06445,8.22263
 L 4.96352,8.38167 L 4.84344,8.52681 L 4.70613,8.65576 L 4.55373,8.76648 L 4.38866,8.85724 L 4.21352,8.92657
 L 4.03107,8.97342 L 3.84418,8.99704 z
M 11.1558,8.99704 L 10.9689,8.97342 L 10.7865,8.92657 L 10.6113,8.85724 L 10.4463,8.76648 L 10.2939,8.65576
 L 10.1565,8.52681 L 10.0365,8.38167 L 9.93553,8.22263 L 9.85533,8.05219 L 9.79712,7.87303 L 9.76183,7.68799
 L 9.75,7.5 L 9.76183,7.312 L 9.79712,7.12695 L 9.85533,6.9478 L 9.93553,6.77736 L 10.0365,6.61832
 L 10.1565,6.47318 L 10.2939,6.34422 L 10.4463,6.23351 L 10.6113,6.14275 L 10.7865,6.07341 L 10.9689,6.02657
 L 11.1558,6.00294 L 11.3442,6.00294 L 11.5311,6.02657 L 11.7135,6.07341 L 11.8887,6.14275 L 12.0537,6.23351
 L 12.2061,6.34422 L 12.3434,6.47318 L 12.4635,6.61832 L 12.5645,6.77736 L 12.6447,6.9478 L 12.7029,7.12695
 L 12.7382,7.312 L 12.75,7.5 L 12.7382,7.68799 L 12.7029,7.87303 L 12.6447,8.05219 L 12.5645,8.22263
 L 12.4635,8.38167 L 12.3434,8.52681 L 12.2061,8.65576 L 12.0537,8.76648 L 11.8887,8.85724 L 11.7135,8.92657
 L 11.5311,8.97342 L 11.3442,8.99704 z
M -41.3442,8.99704 L -41.5311,8.97342 L -41.7135,8.92657 L -41.8887,8.85724 L -42.0537,8.76648 L -42.2061,8.65576
 L -42.3434,8.52681 L -42.4635,8.38167 L -42.5645,8.22263 L -42.6447,8.05219 L -42.7029,7.87303 L -42.7382,7.68799
 L -42.75,7.5 L -42.7382,7.312 L -42.7029,7.12695 L -42.6447,6.9478 L -42.5645,6.77736 L -42.4635,6.61832
 L -42.3434,6.47318 L -42.2061,6.34422 L -42.0537,6.23351 L -41.8887,6.14275 L -41.7135,6.07341 L -41.5311,6.02657
 L -41.3442,6.00294 L -41.1558,6.00294 L -40.9689,6.02657 L -40.7865,6.07341 L -40.6113,6.14275 L -40.4463,6.23351
 L -40.2939,6.34422 L -40.1565,6.47318 L -40.0365,6.61832 L -39.9355,6.77736 L -39.8553,6.9478 L -39.7971,7.12695
 L -39.7618,7.312 L -39.75,7.5 L -39.7618,7.68799 L -39.7971,7.87303 L -39.8553,8.05219 L -39.9355,8.22263
 L -40.0365,8.38167 L -40.1565,8.52681 L -40.2939,8.65576 L -40.4463,8.76648 L -40.6113,8.85724 L -40.7865,8.92657
 L -40.9689,8.97342 L -41.1558,8.99704 z
M -18.8442,8.99704 L -19.0311,8.97342 L -19.2135,8.92657 L -19.3887,8.85724 L -19.5537,8.76648 L -19.7061,8.65576
 L -19.8434,8.52681 L -19.9635,8.38167 L -20.0645,8.22263 L -20.1447,8.05219 L -20.2029,7.87303 L -20.2382,7.68799
 L -20.25,7.5 L -20.2382,7.312 L -20.2029,7.12695 L -20.1447,6.9478 L -20.0645,6.77736 L -19.9635,6.61832
 L -19.8434,6.47318 L -19.7061,6.34422 L -19.5537,6.23351 L -19.3887,6.14275 L -19.2135,6.07341 L -19.0311,6.02657
 L -18.8442,6.00294 L -18.6558,6.00294 L -18.4689,6.02657 L -18.2865,6.07341 L -18.1113,6.14275 L -17.9463,6.23351
 L -17.7939,6.34422 L -17.6565,6.47318 L -17.5365,6.61832 L -17.4355,6.77736 L -17.3553,6.9478 L -17.2971,7.12695
 L -17.2618,7.312 L -17.25,7.5 L -17.2618,7.68799 L -17.2971,7.87303 L -17.3553,8.05219 L -17.4355,8.22263
 L -17.5365,8.38167 L -17.6565,8.52681 L -17.7939,8.65576 L -17.9463,8.76648 L -18.1113,8.85724 L -18.2865,8.92657
 L -18.4689,8.97342 L -18.6558,8.99704 z
M -26.3442,8.99704 L -26.5311,8.97342 L -26.7135,8.92657 L -26.8887,8.85724 L -27.0537,8.76648 L -27.2061,8.65576
 L -27.3434,8.52681 L -27.4635,8.38167 L -27.5645,8.22263 L -27.6447,8.05219 L -27.7029,7.87303 L -27.7382,7.68799
 L -27.75,7.5 L -27.7382,7.312 L -27.7029,7.12695 L -27.6447,6.9478 L -27.5645,6.77736 L -27.4635,6.61832
 L -27.3434,6.47318 L -27.2061,6.34422 L -27.0537,6.23351 L -26.8887,6.14275 L -26.7135,6.07341 L -26.5311,6.02657
 L -26.3442,6.00294 L -26.1558,6.00294 L -25.9689,6.02657 L -25.7865,6.07341 L -25.6113,6.14275 L -25.4463,6.23351
 L -25.2939,6.34422 L -25.1565,6.47318 L -25.0365,6.61832 L -24.9355,6.77736 L -24.8553,6.9478 L -24.7971,7.12695
 L -24.7618,7.312 L -24.75,7.5 L -24.7618,7.68799 L -24.7971,7.87303 L -24.8553,8.05219 L -24.9355,8.22263
 L -25.0365,8.38167 L -25.1565,8.52681 L -25.2939,8.65576 L -25.4463,8.76648 L -25.6113,8.85724 L -25.7865,8.92657
 L -25.9689,8.97342 L -26.1558,8.99704 z
M 26.1558,8.99704 L 25.9689,8.97342 L 25.7865,8.92657 L 25.6113,8.85724 L 25.4463,8.76648 L 25.2939,8.65576
 L 25.1565,8.52681 L 25.0365,8.38167 L 24.9355,8.22263 L 24.8553,8.05219 L 24.7971,7.87303 L 24.7618,7.68799
 L 24.75,7.5 L 24.7618,7.312 L 24.7971,7.12695 L 24.8553,6.9478 L 24.9355,6.77736 L 25.0365,6.61832
 L 25.1565,6.47318 L 25.2939,6.34422 L 25.4463,6.23351 L 25.6113,6.14275 L 25.7865,6.07341 L 25.9689,6.02657
 L 26.1558,6.00294 L 26.3442,6.00294 L 26.5311,6.02657 L 26.7135,6.07341 L 26.8887,6.14275 L 27.0537,6.23351
 L 27.2061,6.34422 L 27.3434,6.47318 L 27.4635,6.61832 L 27.5645,6.77736 L 27.6447,6.9478 L 27.7029,7.12695
 L 27.7382,7.312 L 27.75,7.5 L 27.7382,7.68799 L 27.7029,7.87303 L 27.6447,8.05219 L 27.5645,8.22263
 L 27.4635,8.38167 L 27.3434,8.52681 L 27.2061,8.65576 L 27.0537,8.76648 L 26.8887,8.85724 L 26.7135,8.92657
 L 26.5311,8.97342 L 26.3442,8.99704 z
M 41.1558,8.99704 L 40.9689,8.97342 L 40.7865,8.92657 L 40.6113,8.85724 L 40.4463,8.76648 L 40.2939,8.65576
 L 40.1565,8.52681 L 40.0365,8.38167 L 39.9355,8.22263 L 39.8553,8.05219 L 39.7971,7.87303 L 39.7618,7.68799
 L 39.75,7.5 L 39.7618,7.312 L 39.7971,7.12695 L 39.8553,6.9478 L 39.9355,6.77736 L 40.0365,6.61832
 L 40.1565,6.47318 L 40.2939,6.34422 L 40.4463,6.23351 L 40.6113,6.14275 L 40.7865,6.07341 L 40.9689,6.02657
 L 41.1558,6.00294 L 41.3442,6.00294 L 41.5311,6.02657 L 41.7135,6.07341 L 41.8887,6.14275 L 42.0537,6.23351
 L 42.2061,6.34422 L 42.3434,6.47318 L 42.4635,6.61832 L 42.5645,6.77736 L 42.6447,6.9478 L 42.7029,7.12695
 L 42.7382,7.312 L 42.75,7.5 L 42.7382,7.68799 L 42.7029,7.87303 L 42.6447,8.05219 L 42.5645,8.22263
 L 42.4635,8.38167 L 42.3434,8.52681 L 42.2061,8.65576 L 42.0537,8.76648 L 41.8887,8.85724 L 41.7135,8.92657
 L 41.5311,8.97342 L 41.3442,8.99704 z
M -3.84418,8.99704 L -4.03107,8.97342 L -4.21352,8.92657 L -4.38866,8.85724 L -4.55373,8.76648 L -4.70613,8.65576
 L -4.84344,8.52681 L -4.96352,8.38167 L -5.06445,8.22263 L -5.14465,8.05219 L -5.20287,7.87303 L -5.23816,7.68799
 L -5.25,7.5 L -5.23816,7.312 L -5.20287,7.12695 L -5.14465,6.9478 L -5.06445,6.77736 L -4.96352,6.61832
 L -4.84344,6.47318 L -4.70613,6.34422 L -4.55373,6.23351 L -4.38866,6.14275 L -4.21352,6.07341 L -4.03107,6.02657
 L -3.84418,6.00294 L -3.65581,6.00294 L -3.46892,6.02657 L -3.28647,6.07341 L -3.11133,6.14275 L -2.94626,6.23351
 L -2.79385,6.34422 L -2.65654,6.47318 L -2.53647,6.61832 L -2.43553,6.77736 L -2.35533,6.9478 L -2.29712,7.12695
 L -2.26183,7.312 L -2.25,7.5 L -2.26183,7.68799 L -2.29712,7.87303 L -2.35533,8.05219 L -2.43553,8.22263
 L -2.53647,8.38167 L -2.65654,8.52681 L -2.79385,8.65576 L -2.94626,8.76648 L -3.11133,8.85724 L -3.28647,8.92657
 L -3.46892,8.97342 L -3.65581,8.99704 z
M 18.6558,8.99704 L 18.4689,8.97342 L 18.2865,8.92657 L 18.1113,8.85724 L 17.9463,8.76648 L 17.7939,8.65576
 L 17.6565,8.52681 L 17.5365,8.38167 L 17.4355,8.22263 L 17.3553,8.05219 L 17.2971,7.87303 L 17.2618,7.68799
 L 17.25,7.5 L 17.2618,7.312 L 17.2971,7.12695 L 17.3553,6.9478 L 17.4355,6.77736 L 17.5365,6.61832
 L 17.6565,6.47318 L 17.7939,6.34422 L 17.9463,6.23351 L 18.1113,6.14275 L 18.2865,6.07341 L 18.4689,6.02657
 L 18.6558,6.00294 L 18.8442,6.00294 L 19.0311,6.02657 L 19.2135,6.07341 L 19.3887,6.14275 L 19.5537,6.23351
 L 19.7061,6.34422 L 19.8434,6.47318 L 19.9635,6.61832 L 20.0645,6.77736 L 20.1447,6.9478 L 20.2029,7.12695
 L 20.2382,7.312 L 20.25,7.5 L 20.2382,7.68799 L 20.2029,7.87303 L 20.1447,8.05219 L 20.0645,8.22263
 L 19.9635,8.38167 L 19.8434,8.52681 L 19.7061,8.65576 L 19.5537,8.76648 L 19.3887,8.85724 L 19.2135,8.92657
 L 19.0311,8.97342 L 18.8442,8.99704 z
M -33.8442,8.99704 L -34.0311,8.97342 L -34.2135,8.92657 L -34.3887,8.85724 L -34.5537,8.76648 L -34.7061,8.65576
 L -34.8434,8.52681 L -34.9635,8.38167 L -35.0645,8.22263 L -35.1447,8.05219 L -35.2029,7.87303 L -35.2382,7.68799
 L -35.25,7.5 L -35.2382,7.312 L -35.2029,7.12695 L -35.1447,6.9478 L -35.0645,6.77736 L -34.9635,6.61832
 L -34.8434,6.47318 L -34.7061,6.34422 L -34.5537,6.23351 L -34.3887,6.14275 L -34.2135,6.07341 L -34.0311,6.02657
 L -33.8442,6.00294 L -33.6558,6.00294 L -33.4689,6.02657 L -33.2865,6.07341 L -33.1113,6.14275 L -32.9463,6.23351
 L -32.7939,6.34422 L -32.6565,6.47318 L -32.5365,6.61832 L -32.4355,6.77736 L -32.3553,6.9478 L -32.2971,7.12695
 L -32.2618,7.312 L -32.25,7.5 L -32.2618,7.68799 L -32.2971,7.87303 L -32.3553,8.05219 L -32.4355,8.22263
 L -32.5365,8.38167 L -32.6565,8.52681 L -32.7939,8.65576 L -32.9463,8.76648 L -33.1113,8.85724 L -33.2865,8.92657
 L -33.4689,8.97342 L -33.6558,8.99704 z
M -17.9463,1.26648 L -18.1113,1.35724 L -18.2865,1.42657 L -18.4689,1.47342 L -18.6558,1.49704 L -18.8442,1.49704
 L -19.0311,1.47342 L -19.2135,1.42657 L -19.3887,1.35724 L -19.5537,1.26648 L -19.7061,1.15576 L -19.8434,1.02681
 L -19.9635,0.881668 L -20.0645,0.722626 L -20.1447,0.552185 L -20.2029,0.373032 L -20.2382,0.187988 L -20.25,-0
 L -20.2382,-0.187988 L -20.2029,-0.373032 L -20.1447,-0.552185 L -20.0645,-0.722626 L -19.9635,-0.881668 L -19.8434,-1.02681
 L -19.7061,-1.15576 L -19.5537,-1.26648 L -19.3887,-1.35724 L -19.2135,-1.42657 L -19.0311,-1.47342 L -18.8442,-1.49704
 L -18.6558,-1.49704 L -18.4689,-1.47342 L -18.2865,-1.42657 L -18.1113,-1.35724 L -17.9463,-1.26648 L -17.7939,-1.15576
 L -17.6565,-1.02681 L -17.5365,-0.881668 L -17.4355,-0.722626 L -17.3553,-0.552185 L -17.2971,-0.373032 L -17.2618,-0.187988
 L -17.25,-0 L -17.2618,0.187988 L -17.2971,0.373032 L -17.3553,0.552185 L -17.4355,0.722626 L -17.5365,0.881668
 L -17.6565,1.02681 L -17.7939,1.15576 z
" stroke="black" fill="lightgray" stroke-width="0.5"/>
</svg>
