  0
SECTION
  2
BLOCKS
  0
ENDSEC
  0
SECTION
  2
ENTITIES
  0
LINE
  8
0
 10
59.5
 20
87.5
 11
59.4606
 21
88.1267
  0
LINE
  8
0
 10
59.4606
 20
88.1267
 11
59.3429
 21
88.7434
  0
LINE
  8
0
 10
59.3429
 20
88.7434
 11
59.1489
 21
89.3406
  0
LINE
  8
0
 10
59.1489
 20
89.3406
 11
58.8815
 21
89.9088
  0
LINE
  8
0
 10
58.8815
 20
89.9088
 11
58.5451
 21
90.4389
  0
LINE
  8
0
 10
58.5451
 20
90.4389
 11
58.1448
 21
90.9227
  0
LINE
  8
0
 10
58.1448
 20
90.9227
 11
57.6871
 21
91.3526
  0
LINE
  8
0
 10
57.6871
 20
91.3526
 11
57.1791
 21
91.7216
  0
LINE
  8
0
 10
57.1791
 20
91.7216
 11
56.6289
 21
92.0241
  0
LINE
  8
0
 10
56.6289
 20
92.0241
 11
56.0451
 21
92.2553
  0
LINE
  8
0
 10
56.0451
 20
92.2553
 11
55.4369
 21
92.4114
  0
LINE
  8
0
 10
55.4369
 20
92.4114
 11
54.8139
 21
92.4901
  0
LINE
  8
0
 10
54.8139
 20
92.4901
 11
-54.8139
 21
92.4901
  0
LINE
  8
0
 10
-54.8139
 20
92.4901
 11
-55.4369
 21
92.4114
  0
LINE
  8
0
 10
-55.4369
 20
92.4114
 11
-56.0451
 21
92.2553
  0
LINE
  8
0
 10
-56.0451
 20
92.2553
 11
-56.6289
 21
92.0241
  0
LINE
  8
0
 10
-56.6289
 20
92.0241
 11
-57.1791
 21
91.7216
  0
LINE
  8
0
 10
-57.1791
 20
91.7216
 11
-57.6871
 21
91.3526
  0
LINE
  8
0
 10
-57.6871
 20
91.3526
 11
-58.1448
 21
90.9227
  0
LINE
  8
0
 10
-58.1448
 20
90.9227
 11
-58.5451
 21
90.4389
  0
LINE
  8
0
 10
-58.5451
 20
90.4389
 11
-58.8815
 21
89.9088
  0
LINE
  8
0
 10
-58.8815
 20
89.9088
 11
-59.1489
 21
89.3406
  0
LINE
  8
0
 10
-59.1489
 20
89.3406
 11
-59.3429
 21
88.7434
  0
LINE
  8
0
 10
-59.3429
 20
88.7434
 11
-59.4606
 21
88.1267
  0
LINE
  8
0
 10
-59.4606
 20
88.1267
 11
-59.5
 21
87.5
  0
LINE
  8
0
 10
-59.5
 20
87.5
 11
-59.5
 21
72
  0
LINE
  8
0
 10
-59.5
 20
72
 11
59.5
 21
72
  0
LINE
  8
0
 10
59.5
 20
72
 11
59.5
 21
87.5
  0
LINE
  8
0
 10
-7.68837
 20
82.5059
 11
-8.06213
 21
82.5531
  0
LINE
  8
0
 10
-8.06213
 20
82.5531
 11
-8.42705
 21
82.6468
  0
LINE
  8
0
 10
-8.42705
 20
82.6468
 11
-8.77733
 21
82.7855
  0
LINE
  8
0
 10
-8.77733
 20
82.7855
 11
-9.10747
 21
82.967
  0
LINE
  8
0
 10
-9.10747
 20
82.967
 11
-9.41226
 21
83.1884
  0
LINE
  8
0
 10
-9.41226
 20
83.1884
 11
-9.6869
 21
83.4464
  0
LINE
  8
0
 10
-9.6869
 20
83.4464
 11
-9.92705
 21
83.7366
  0
LINE
  8
0
 10
-9.92705
 20
83.7366
 11
-10.1289
 21
84.0547
  0
LINE
  8
0
 10
-10.1289
 20
84.0547
 11
-10.2893
 21
84.3956
  0
LINE
  8
0
 10
-10.2893
 20
84.3956
 11
-10.4057
 21
84.7539
  0
LINE
  8
0
 10
-10.4057
 20
84.7539
 11
-10.4763
 21
85.124
  0
LINE
  8
0
 10
-10.4763
 20
85.124
 11
-10.5
 21
85.5
  0
LINE
  8
0
 10
-10.5
 20
85.5
 11
-10.4763
 21
85.876
  0
LINE
  8
0
 10
-10.4763
 20
85.876
 11
-10.4057
 21
86.2461
  0
LINE
  8
0
 10
-10.4057
 20
86.2461
 11
-10.2893
 21
86.6044
  0
LINE
  8
0
 10
-10.2893
 20
86.6044
 11
-10.1289
 21
86.9453
  0
LINE
  8
0
 10
-10.1289
 20
86.9453
 11
-9.92705
 21
87.2634
  0
LINE
  8
0
 10
-9.92705
 20
87.2634
 11
-9.6869
 21
87.5536
  0
LINE
  8
0
 10
-9.6869
 20
87.5536
 11
-9.41226
 21
87.8115
  0
LINE
  8
0
 10
-9.41226
 20
87.8115
 11
-9.10747
 21
88.033
  0
LINE
  8
0
 10
-9.10747
 20
88.033
 11
-8.77733
 21
88.2145
  0
LINE
  8
0
 10
-8.77733
 20
88.2145
 11
-8.42705
 21
88.3532
  0
LINE
  8
0
 10
-8.42705
 20
88.3532
 11
-8.06213
 21
88.4469
  0
LINE
  8
0
 10
-8.06213
 20
88.4469
 11
-7.68837
 21
88.4941
  0
LINE
  8
0
 10
-7.68837
 20
88.4941
 11
-7.31161
 21
88.4941
  0
LINE
  8
0
 10
-7.31161
 20
88.4941
 11
-6.93785
 21
88.4469
  0
LINE
  8
0
 10
-6.93785
 20
88.4469
 11
-6.57294
 21
88.3532
  0
LINE
  8
0
 10
-6.57294
 20
88.3532
 11
-6.22266
 21
88.2145
  0
LINE
  8
0
 10
-6.22266
 20
88.2145
 11
-5.89252
 21
88.033
  0
LINE
  8
0
 10
-5.89252
 20
88.033
 11
-5.58772
 21
87.8115
  0
LINE
  8
0
 10
-5.58772
 20
87.8115
 11
-5.31308
 21
87.5536
  0
LINE
  8
0
 10
-5.31308
 20
87.5536
 11
-5.07294
 21
87.2634
  0
LINE
  8
0
 10
-5.07294
 20
87.2634
 11
-4.87108
 21
86.9453
  0
LINE
  8
0
 10
-4.87108
 20
86.9453
 11
-4.71066
 21
86.6044
  0
LINE
  8
0
 10
-4.71066
 20
86.6044
 11
-4.59424
 21
86.2461
  0
LINE
  8
0
 10
-4.59424
 20
86.2461
 11
-4.52365
 21
85.876
  0
LINE
  8
0
 10
-4.52365
 20
85.876
 11
-4.5
 21
85.5
  0
LINE
  8
0
 10
-4.5
 20
85.5
 11
-4.52365
 21
85.124
  0
LINE
  8
0
 10
-4.52365
 20
85.124
 11
-4.59424
 21
84.7539
  0
LINE
  8
0
 10
-4.59424
 20
84.7539
 11
-4.71066
 21
84.3956
  0
LINE
  8
0
 10
-4.71066
 20
84.3956
 11
-4.87108
 21
84.0547
  0
LINE
  8
0
 10
-4.87108
 20
84.0547
 11
-5.07294
 21
83.7366
  0
LINE
  8
0
 10
-5.07294
 20
83.7366
 11
-5.31308
 21
83.4464
  0
LINE
  8
0
 10
-5.31308
 20
83.4464
 11
-5.58772
 21
83.1884
  0
LINE
  8
0
 10
-5.58772
 20
83.1884
 11
-5.89252
 21
82.967
  0
LINE
  8
0
 10
-5.89252
 20
82.967
 11
-6.22266
 21
82.7855
  0
LINE
  8
0
 10
-6.22266
 20
82.7855
 11
-6.57294
 21
82.6468
  0
LINE
  8
0
 10
-6.57294
 20
82.6468
 11
-6.93785
 21
82.5531
  0
LINE
  8
0
 10
-6.93785
 20
82.5531
 11
-7.31161
 21
82.5059
  0
LINE
  8
0
 10
-7.31161
 20
82.5059
 11
-7.68837
 21
82.5059
  0
LINE
  8
0
 10
7.31161
 20
82.5059
 11
6.93785
 21
82.5531
  0
LINE
  8
0
 10
6.93785
 20
82.5531
 11
6.57294
 21
82.6468
  0
LINE
  8
0
 10
6.57294
 20
82.6468
 11
6.22266
 21
82.7855
  0
LINE
  8
0
 10
6.22266
 20
82.7855
 11
5.89252
 21
82.967
  0
LINE
  8
0
 10
5.89252
 20
82.967
 11
5.58772
 21
83.1884
  0
LINE
  8
0
 10
5.58772
 20
83.1884
 11
5.31308
 21
83.4464
  0
LINE
  8
0
 10
5.31308
 20
83.4464
 11
5.07294
 21
83.7366
  0
LINE
  8
0
 10
5.07294
 20
83.7366
 11
4.87108
 21
84.0547
  0
LINE
  8
0
 10
4.87108
 20
84.0547
 11
4.71066
 21
84.3956
  0
LINE
  8
0
 10
4.71066
 20
84.3956
 11
4.59424
 21
84.7539
  0
LINE
  8
0
 10
4.59424
 20
84.7539
 11
4.52365
 21
85.124
  0
LINE
  8
0
 10
4.52365
 20
85.124
 11
4.5
 21
85.5
  0
LINE
  8
0
 10
4.5
 20
85.5
 11
4.52365
 21
85.876
  0
LINE
  8
0
 10
4.52365
 20
85.876
 11
4.59424
 21
86.2461
  0
LINE
  8
0
 10
4.59424
 20
86.2461
 11
4.71066
 21
86.6044
  0
LINE
  8
0
 10
4.71066
 20
86.6044
 11
4.87108
 21
86.9453
  0
LINE
  8
0
 10
4.87108
 20
86.9453
 11
5.07294
 21
87.2634
  0
LINE
  8
0
 10
5.07294
 20
87.2634
 11
5.31308
 21
87.5536
  0
LINE
  8
0
 10
5.31308
 20
87.5536
 11
5.58772
 21
87.8115
  0
LINE
  8
0
 10
5.58772
 20
87.8115
 11
5.89252
 21
88.033
  0
LINE
  8
0
 10
5.89252
 20
88.033
 11
6.22266
 21
88.2145
  0
LINE
  8
0
 10
6.22266
 20
88.2145
 11
6.57294
 21
88.3532
  0
LINE
  8
0
 10
6.57294
 20
88.3532
 11
6.93785
 21
88.4469
  0
LINE
  8
0
 10
6.93785
 20
88.4469
 11
7.31161
 21
88.4941
  0
LINE
  8
0
 10
7.31161
 20
88.4941
 11
7.68837
 21
88.4941
  0
LINE
  8
0
 10
7.68837
 20
88.4941
 11
8.06213
 21
88.4469
  0
LINE
  8
0
 10
8.06213
 20
88.4469
 11
8.42705
 21
88.3532
  0
LINE
  8
0
 10
8.42705
 20
88.3532
 11
8.77733
 21
88.2145
  0
LINE
  8
0
 10
8.77733
 20
88.2145
 11
9.10747
 21
88.033
  0
LINE
  8
0
 10
9.10747
 20
88.033
 11
9.41226
 21
87.8115
  0
LINE
  8
0
 10
9.41226
 20
87.8115
 11
9.6869
 21
87.5536
  0
LINE
  8
0
 10
9.6869
 20
87.5536
 11
9.92705
 21
87.2634
  0
LINE
  8
0
 10
9.92705
 20
87.2634
 11
10.1289
 21
86.9453
  0
LINE
  8
0
 10
10.1289
 20
86.9453
 11
10.2893
 21
86.6044
  0
LINE
  8
0
 10
10.2893
 20
86.6044
 11
10.4057
 21
86.2461
  0
LINE
  8
0
 10
10.4057
 20
86.2461
 11
10.4763
 21
85.876
  0
LINE
  8
0
 10
10.4763
 20
85.876
 11
10.5
 21
85.5
  0
LINE
  8
0
 10
10.5
 20
85.5
 11
10.4763
 21
85.124
  0
LINE
  8
0
 10
10.4763
 20
85.124
 11
10.4057
 21
84.7539
  0
LINE
  8
0
 10
10.4057
 20
84.7539
 11
10.2893
 21
84.3956
  0
LINE
  8
0
 10
10.2893
 20
84.3956
 11
10.1289
 21
84.0547
  0
LINE
  8
0
 10
10.1289
 20
84.0547
 11
9.92705
 21
83.7366
  0
LINE
  8
0
 10
9.92705
 20
83.7366
 11
9.6869
 21
83.4464
  0
LINE
  8
0
 10
9.6869
 20
83.4464
 11
9.41226
 21
83.1884
  0
LINE
  8
0
 10
9.41226
 20
83.1884
 11
9.10747
 21
82.967
  0
LINE
  8
0
 10
9.10747
 20
82.967
 11
8.77733
 21
82.7855
  0
LINE
  8
0
 10
8.77733
 20
82.7855
 11
8.42705
 21
82.6468
  0
LINE
  8
0
 10
8.42705
 20
82.6468
 11
8.06213
 21
82.5531
  0
LINE
  8
0
 10
8.06213
 20
82.5531
 11
7.68837
 21
82.5059
  0
LINE
  8
0
 10
7.68837
 20
82.5059
 11
7.31161
 21
82.5059
  0
LINE
  8
0
 10
52.3116
 20
82.5059
 11
51.9379
 21
82.5531
  0
LINE
  8
0
 10
51.9379
 20
82.5531
 11
51.5729
 21
82.6468
  0
LINE
  8
0
 10
51.5729
 20
82.6468
 11
51.2227
 21
82.7855
  0
LINE
  8
0
 10
51.2227
 20
82.7855
 11
50.8925
 21
82.967
  0
LINE
  8
0
 10
50.8925
 20
82.967
 11
50.5877
 21
83.1884
  0
LINE
  8
0
 10
50.5877
 20
83.1884
 11
50.3131
 21
83.4464
  0
LINE
  8
0
 10
50.3131
 20
83.4464
 11
50.0729
 21
83.7366
  0
LINE
  8
0
 10
50.0729
 20
83.7366
 11
49.8711
 21
84.0547
  0
LINE
  8
0
 10
49.8711
 20
84.0547
 11
49.7107
 21
84.3956
  0
LINE
  8
0
 10
49.7107
 20
84.3956
 11
49.5942
 21
84.7539
  0
LINE
  8
0
 10
49.5942
 20
84.7539
 11
49.5237
 21
85.124
  0
LINE
  8
0
 10
49.5237
 20
85.124
 11
49.5
 21
85.5
  0
LINE
  8
0
 10
49.5
 20
85.5
 11
49.5237
 21
85.876
  0
LINE
  8
0
 10
49.5237
 20
85.876
 11
49.5942
 21
86.2461
  0
LINE
  8
0
 10
49.5942
 20
86.2461
 11
49.7107
 21
86.6044
  0
LINE
  8
0
 10
49.7107
 20
86.6044
 11
49.8711
 21
86.9453
  0
LINE
  8
0
 10
49.8711
 20
86.9453
 11
50.0729
 21
87.2634
  0
LINE
  8
0
 10
50.0729
 20
87.2634
 11
50.3131
 21
87.5536
  0
LINE
  8
0
 10
50.3131
 20
87.5536
 11
50.5877
 21
87.8115
  0
LINE
  8
0
 10
50.5877
 20
87.8115
 11
50.8925
 21
88.033
  0
LINE
  8
0
 10
50.8925
 20
88.033
 11
51.2227
 21
88.2145
  0
LINE
  8
0
 10
51.2227
 20
88.2145
 11
51.5729
 21
88.3532
  0
LINE
  8
0
 10
51.5729
 20
88.3532
 11
51.9379
 21
88.4469
  0
LINE
  8
0
 10
51.9379
 20
88.4469
 11
52.3116
 21
88.4941
  0
LINE
  8
0
 10
52.3116
 20
88.4941
 11
52.6884
 21
88.4941
  0
LINE
  8
0
 10
52.6884
 20
88.4941
 11
53.0621
 21
88.4469
  0
LINE
  8
0
 10
53.0621
 20
88.4469
 11
53.427
 21
88.3532
  0
LINE
  8
0
 10
53.427
 20
88.3532
 11
53.7773
 21
88.2145
  0
LINE
  8
0
 10
53.7773
 20
88.2145
 11
54.1075
 21
88.033
  0
LINE
  8
0
 10
54.1075
 20
88.033
 11
54.4123
 21
87.8115
  0
LINE
  8
0
 10
54.4123
 20
87.8115
 11
54.6869
 21
87.5536
  0
LINE
  8
0
 10
54.6869
 20
87.5536
 11
54.927
 21
87.2634
  0
LINE
  8
0
 10
54.927
 20
87.2634
 11
55.1289
 21
86.9453
  0
LINE
  8
0
 10
55.1289
 20
86.9453
 11
55.2893
 21
86.6044
  0
LINE
  8
0
 10
55.2893
 20
86.6044
 11
55.4057
 21
86.2461
  0
LINE
  8
0
 10
55.4057
 20
86.2461
 11
55.4763
 21
85.876
  0
LINE
  8
0
 10
55.4763
 20
85.876
 11
55.5
 21
85.5
  0
LINE
  8
0
 10
55.5
 20
85.5
 11
55.4763
 21
85.124
  0
LINE
  8
0
 10
55.4763
 20
85.124
 11
55.4057
 21
84.7539
  0
LINE
  8
0
 10
55.4057
 20
84.7539
 11
55.2893
 21
84.3956
  0
LINE
  8
0
 10
55.2893
 20
84.3956
 11
55.1289
 21
84.0547
  0
LINE
  8
0
 10
55.1289
 20
84.0547
 11
54.927
 21
83.7366
  0
LINE
  8
0
 10
54.927
 20
83.7366
 11
54.6869
 21
83.4464
  0
LINE
  8
0
 10
54.6869
 20
83.4464
 11
54.4123
 21
83.1884
  0
LINE
  8
0
 10
54.4123
 20
83.1884
 11
54.1075
 21
82.967
  0
LINE
  8
0
 10
54.1075
 20
82.967
 11
53.7773
 21
82.7855
  0
LINE
  8
0
 10
53.7773
 20
82.7855
 11
53.427
 21
82.6468
  0
LINE
  8
0
 10
53.427
 20
82.6468
 11
53.0621
 21
82.5531
  0
LINE
  8
0
 10
53.0621
 20
82.5531
 11
52.6884
 21
82.5059
  0
LINE
  8
0
 10
52.6884
 20
82.5059
 11
52.3116
 21
82.5059
  0
LINE
  8
0
 10
22.3116
 20
82.5059
 11
21.9379
 21
82.5531
  0
LINE
  8
0
 10
21.9379
 20
82.5531
 11
21.5729
 21
82.6468
  0
LINE
  8
0
 10
21.5729
 20
82.6468
 11
21.2227
 21
82.7855
  0
LINE
  8
0
 10
21.2227
 20
82.7855
 11
20.8925
 21
82.967
  0
LINE
  8
0
 10
20.8925
 20
82.967
 11
20.5877
 21
83.1884
  0
LINE
  8
0
 10
20.5877
 20
83.1884
 11
20.3131
 21
83.4464
  0
LINE
  8
0
 10
20.3131
 20
83.4464
 11
20.0729
 21
83.7366
  0
LINE
  8
0
 10
20.0729
 20
83.7366
 11
19.8711
 21
84.0547
  0
LINE
  8
0
 10
19.8711
 20
84.0547
 11
19.7107
 21
84.3956
  0
LINE
  8
0
 10
19.7107
 20
84.3956
 11
19.5942
 21
84.7539
  0
LINE
  8
0
 10
19.5942
 20
84.7539
 11
19.5237
 21
85.124
  0
LINE
  8
0
 10
19.5237
 20
85.124
 11
19.5
 21
85.5
  0
LINE
  8
0
 10
19.5
 20
85.5
 11
19.5237
 21
85.876
  0
LINE
  8
0
 10
19.5237
 20
85.876
 11
19.5942
 21
86.2461
  0
LINE
  8
0
 10
19.5942
 20
86.2461
 11
19.7107
 21
86.6044
  0
LINE
  8
0
 10
19.7107
 20
86.6044
 11
19.8711
 21
86.9453
  0
LINE
  8
0
 10
19.8711
 20
86.9453
 11
20.0729
 21
87.2634
  0
LINE
  8
0
 10
20.0729
 20
87.2634
 11
20.3131
 21
87.5536
  0
LINE
  8
0
 10
20.3131
 20
87.5536
 11
20.5877
 21
87.8115
  0
LINE
  8
0
 10
20.5877
 20
87.8115
 11
20.8925
 21
88.033
  0
LINE
  8
0
 10
20.8925
 20
88.033
 11
21.2227
 21
88.2145
  0
LINE
  8
0
 10
21.2227
 20
88.2145
 11
21.5729
 21
88.3532
  0
LINE
  8
0
 10
21.5729
 20
88.3532
 11
21.9379
 21
88.4469
  0
LINE
  8
0
 10
21.9379
 20
88.4469
 11
22.3116
 21
88.4941
  0
LINE
  8
0
 10
22.3116
 20
88.4941
 11
22.6884
 21
88.4941
  0
LINE
  8
0
 10
22.6884
 20
88.4941
 11
23.0621
 21
88.4469
  0
LINE
  8
0
 10
23.0621
 20
88.4469
 11
23.427
 21
88.3532
  0
LINE
  8
0
 10
23.427
 20
88.3532
 11
23.7773
 21
88.2145
  0
LINE
  8
0
 10
23.7773
 20
88.2145
 11
24.1075
 21
88.033
  0
LINE
  8
0
 10
24.1075
 20
88.033
 11
24.4123
 21
87.8115
  0
LINE
  8
0
 10
24.4123
 20
87.8115
 11
24.6869
 21
87.5536
  0
LINE
  8
0
 10
24.6869
 20
87.5536
 11
24.927
 21
87.2634
  0
LINE
  8
0
 10
24.927
 20
87.2634
 11
25.1289
 21
86.9453
  0
LINE
  8
0
 10
25.1289
 20
86.9453
 11
25.2893
 21
86.6044
  0
LINE
  8
0
 10
25.2893
 20
86.6044
 11
25.4057
 21
86.2461
  0
LINE
  8
0
 10
25.4057
 20
86.2461
 11
25.4763
 21
85.876
  0
LINE
  8
0
 10
25.4763
 20
85.876
 11
25.5
 21
85.5
  0
LINE
  8
0
 10
25.5
 20
85.5
 11
25.4763
 21
85.124
  0
LINE
  8
0
 10
25.4763
 20
85.124
 11
25.4057
 21
84.7539
  0
LINE
  8
0
 10
25.4057
 20
84.7539
 11
25.2893
 21
84.3956
  0
LINE
  8
0
 10
25.2893
 20
84.3956
 11
25.1289
 21
84.0547
  0
LINE
  8
0
 10
25.1289
 20
84.0547
 11
24.927
 21
83.7366
  0
LINE
  8
0
 10
24.927
 20
83.7366
 11
24.6869
 21
83.4464
  0
LINE
  8
0
 10
24.6869
 20
83.4464
 11
24.4123
 21
83.1884
  0
LINE
  8
0
 10
24.4123
 20
83.1884
 11
24.1075
 21
82.967
  0
LINE
  8
0
 10
24.1075
 20
82.967
 11
23.7773
 21
82.7855
  0
LINE
  8
0
 10
23.7773
 20
82.7855
 11
23.427
 21
82.6468
  0
LINE
  8
0
 10
23.427
 20
82.6468
 11
23.0621
 21
82.5531
  0
LINE
  8
0
 10
23.0621
 20
82.5531
 11
22.6884
 21
82.5059
  0
LINE
  8
0
 10
22.6884
 20
82.5059
 11
22.3116
 21
82.5059
  0
LINE
  8
0
 10
-52.6884
 20
82.5059
 11
-53.0621
 21
82.5531
  0
LINE
  8
0
 10
-53.0621
 20
82.5531
 11
-53.427
 21
82.6468
  0
LINE
  8
0
 10
-53.427
 20
82.6468
 11
-53.7773
 21
82.7855
  0
LINE
  8
0
 10
-53.7773
 20
82.7855
 11
-54.1075
 21
82.967
  0
LINE
  8
0
 10
-54.1075
 20
82.967
 11
-54.4123
 21
83.1884
  0
LINE
  8
0
 10
-54.4123
 20
83.1884
 11
-54.6869
 21
83.4464
  0
LINE
  8
0
 10
-54.6869
 20
83.4464
 11
-54.927
 21
83.7366
  0
LINE
  8
0
 10
-54.927
 20
83.7366
 11
-55.1289
 21
84.0547
  0
LINE
  8
0
 10
-55.1289
 20
84.0547
 11
-55.2893
 21
84.3956
  0
LINE
  8
0
 10
-55.2893
 20
84.3956
 11
-55.4057
 21
84.7539
  0
LINE
  8
0
 10
-55.4057
 20
84.7539
 11
-55.4763
 21
85.124
  0
LINE
  8
0
 10
-55.4763
 20
85.124
 11
-55.5
 21
85.5
  0
LINE
  8
0
 10
-55.5
 20
85.5
 11
-55.4763
 21
85.876
  0
LINE
  8
0
 10
-55.4763
 20
85.876
 11
-55.4057
 21
86.2461
  0
LINE
  8
0
 10
-55.4057
 20
86.2461
 11
-55.2893
 21
86.6044
  0
LINE
  8
0
 10
-55.2893
 20
86.6044
 11
-55.1289
 21
86.9453
  0
LINE
  8
0
 10
-55.1289
 20
86.9453
 11
-54.927
 21
87.2634
  0
LINE
  8
0
 10
-54.927
 20
87.2634
 11
-54.6869
 21
87.5536
  0
LINE
  8
0
 10
-54.6869
 20
87.5536
 11
-54.4123
 21
87.8115
  0
LINE
  8
0
 10
-54.4123
 20
87.8115
 11
-54.1075
 21
88.033
  0
LINE
  8
0
 10
-54.1075
 20
88.033
 11
-53.7773
 21
88.2145
  0
LINE
  8
0
 10
-53.7773
 20
88.2145
 11
-53.427
 21
88.3532
  0
LINE
  8
0
 10
-53.427
 20
88.3532
 11
-53.0621
 21
88.4469
  0
LINE
  8
0
 10
-53.0621
 20
88.4469
 11
-52.6884
 21
88.4941
  0
LINE
  8
0
 10
-52.6884
 20
88.4941
 11
-52.3116
 21
88.4941
  0
LINE
  8
0
 10
-52.3116
 20
88.4941
 11
-51.9379
 21
88.4469
  0
LINE
  8
0
 10
-51.9379
 20
88.4469
 11
-51.5729
 21
88.3532
  0
LINE
  8
0
 10
-51.5729
 20
88.3532
 11
-51.2227
 21
88.2145
  0
LINE
  8
0
 10
-51.2227
 20
88.2145
 11
-50.8925
 21
88.033
  0
LINE
  8
0
 10
-50.8925
 20
88.033
 11
-50.5877
 21
87.8115
  0
LINE
  8
0
 10
-50.5877
 20
87.8115
 11
-50.3131
 21
87.5536
  0
LINE
  8
0
 10
-50.3131
 20
87.5536
 11
-50.0729
 21
87.2634
  0
LINE
  8
0
 10
-50.0729
 20
87.2634
 11
-49.8711
 21
86.9453
  0
LINE
  8
0
 10
-49.8711
 20
86.9453
 11
-49.7107
 21
86.6044
  0
LINE
  8
0
 10
-49.7107
 20
86.6044
 11
-49.5942
 21
86.2461
  0
LINE
  8
0
 10
-49.5942
 20
86.2461
 11
-49.5237
 21
85.876
  0
LINE
  8
0
 10
-49.5237
 20
85.876
 11
-49.5
 21
85.5
  0
LINE
  8
0
 10
-49.5
 20
85.5
 11
-49.5237
 21
85.124
  0
LINE
  8
0
 10
-49.5237
 20
85.124
 11
-49.5942
 21
84.7539
  0
LINE
  8
0
 10
-49.5942
 20
84.7539
 11
-49.7107
 21
84.3956
  0
LINE
  8
0
 10
-49.7107
 20
84.3956
 11
-49.8711
 21
84.0547
  0
LINE
  8
0
 10
-49.8711
 20
84.0547
 11
-50.0729
 21
83.7366
  0
LINE
  8
0
 10
-50.0729
 20
83.7366
 11
-50.3131
 21
83.4464
  0
LINE
  8
0
 10
-50.3131
 20
83.4464
 11
-50.5877
 21
83.1884
  0
LINE
  8
0
 10
-50.5877
 20
83.1884
 11
-50.8925
 21
82.967
  0
LINE
  8
0
 10
-50.8925
 20
82.967
 11
-51.2227
 21
82.7855
  0
LINE
  8
0
 10
-51.2227
 20
82.7855
 11
-51.5729
 21
82.6468
  0
LINE
  8
0
 10
-51.5729
 20
82.6468
 11
-51.9379
 21
82.5531
  0
LINE
  8
0
 10
-51.9379
 20
82.5531
 11
-52.3116
 21
82.5059
  0
LINE
  8
0
 10
-52.3116
 20
82.5059
 11
-52.6884
 21
82.5059
  0
LINE
  8
0
 10
-22.6884
 20
82.5059
 11
-23.0621
 21
82.5531
  0
LINE
  8
0
 10
-23.0621
 20
82.5531
 11
-23.427
 21
82.6468
  0
LINE
  8
0
 10
-23.427
 20
82.6468
 11
-23.7773
 21
82.7855
  0
LINE
  8
0
 10
-23.7773
 20
82.7855
 11
-24.1075
 21
82.967
  0
LINE
  8
0
 10
-24.1075
 20
82.967
 11
-24.4123
 21
83.1884
  0
LINE
  8
0
 10
-24.4123
 20
83.1884
 11
-24.6869
 21
83.4464
  0
LINE
  8
0
 10
-24.6869
 20
83.4464
 11
-24.927
 21
83.7366
  0
LINE
  8
0
 10
-24.927
 20
83.7366
 11
-25.1289
 21
84.0547
  0
LINE
  8
0
 10
-25.1289
 20
84.0547
 11
-25.2893
 21
84.3956
  0
LINE
  8
0
 10
-25.2893
 20
84.3956
 11
-25.4057
 21
84.7539
  0
LINE
  8
0
 10
-25.4057
 20
84.7539
 11
-25.4763
 21
85.124
  0
LINE
  8
0
 10
-25.4763
 20
85.124
 11
-25.5
 21
85.5
  0
LINE
  8
0
 10
-25.5
 20
85.5
 11
-25.4763
 21
85.876
  0
LINE
  8
0
 10
-25.4763
 20
85.876
 11
-25.4057
 21
86.2461
  0
LINE
  8
0
 10
-25.4057
 20
86.2461
 11
-25.2893
 21
86.6044
  0
LINE
  8
0
 10
-25.2893
 20
86.6044
 11
-25.1289
 21
86.9453
  0
LINE
  8
0
 10
-25.1289
 20
86.9453
 11
-24.927
 21
87.2634
  0
LINE
  8
0
 10
-24.927
 20
87.2634
 11
-24.6869
 21
87.5536
  0
LINE
  8
0
 10
-24.6869
 20
87.5536
 11
-24.4123
 21
87.8115
  0
LINE
  8
0
 10
-24.4123
 20
87.8115
 11
-24.1075
 21
88.033
  0
LINE
  8
0
 10
-24.1075
 20
88.033
 11
-23.7773
 21
88.2145
  0
LINE
  8
0
 10
-23.7773
 20
88.2145
 11
-23.427
 21
88.3532
  0
LINE
  8
0
 10
-23.427
 20
88.3532
 11
-23.0621
 21
88.4469
  0
LINE
  8
0
 10
-23.0621
 20
88.4469
 11
-22.6884
 21
88.4941
  0
LINE
  8
0
 10
-22.6884
 20
88.4941
 11
-22.3116
 21
88.4941
  0
LINE
  8
0
 10
-22.3116
 20
88.4941
 11
-21.9379
 21
88.4469
  0
LINE
  8
0
 10
-21.9379
 20
88.4469
 11
-21.5729
 21
88.3532
  0
LINE
  8
0
 10
-21.5729
 20
88.3532
 11
-21.2227
 21
88.2145
  0
LINE
  8
0
 10
-21.2227
 20
88.2145
 11
-20.8925
 21
88.033
  0
LINE
  8
0
 10
-20.8925
 20
88.033
 11
-20.5877
 21
87.8115
  0
LINE
  8
0
 10
-20.5877
 20
87.8115
 11
-20.3131
 21
87.5536
  0
LINE
  8
0
 10
-20.3131
 20
87.5536
 11
-20.0729
 21
87.2634
  0
LINE
  8
0
 10
-20.0729
 20
87.2634
 11
-19.8711
 21
86.9453
  0
LINE
  8
0
 10
-19.8711
 20
86.9453
 11
-19.7107
 21
86.6044
  0
LINE
  8
0
 10
-19.7107
 20
86.6044
 11
-19.5942
 21
86.2461
  0
LINE
  8
0
 10
-19.5942
 20
86.2461
 11
-19.5237
 21
85.876
  0
LINE
  8
0
 10
-19.5237
 20
85.876
 11
-19.5
 21
85.5
  0
LINE
  8
0
 10
-19.5
 20
85.5
 11
-19.5237
 21
85.124
  0
LINE
  8
0
 10
-19.5237
 20
85.124
 11
-19.5942
 21
84.7539
  0
LINE
  8
0
 10
-19.5942
 20
84.7539
 11
-19.7107
 21
84.3956
  0
LINE
  8
0
 10
-19.7107
 20
84.3956
 11
-19.8711
 21
84.0547
  0
LINE
  8
0
 10
-19.8711
 20
84.0547
 11
-20.0729
 21
83.7366
  0
LINE
  8
0
 10
-20.0729
 20
83.7366
 11
-20.3131
 21
83.4464
  0
LINE
  8
0
 10
-20.3131
 20
83.4464
 11
-20.5877
 21
83.1884
  0
LINE
  8
0
 10
-20.5877
 20
83.1884
 11
-20.8925
 21
82.967
  0
LINE
  8
0
 10
-20.8925
 20
82.967
 11
-21.2227
 21
82.7855
  0
LINE
  8
0
 10
-21.2227
 20
82.7855
 11
-21.5729
 21
82.6468
  0
LINE
  8
0
 10
-21.5729
 20
82.6468
 11
-21.9379
 21
82.5531
  0
LINE
  8
0
 10
-21.9379
 20
82.5531
 11
-22.3116
 21
82.5059
  0
LINE
  8
0
 10
-22.3116
 20
82.5059
 11
-22.6884
 21
82.5059
  0
LINE
  8
0
 10
-37.6884
 20
82.5059
 11
-38.0621
 21
82.5531
  0
LINE
  8
0
 10
-38.0621
 20
82.5531
 11
-38.427
 21
82.6468
  0
LINE
  8
0
 10
-38.427
 20
82.6468
 11
-38.7773
 21
82.7855
  0
LINE
  8
0
 10
-38.7773
 20
82.7855
 11
-39.1075
 21
82.967
  0
LINE
  8
0
 10
-39.1075
 20
82.967
 11
-39.4123
 21
83.1884
  0
LINE
  8
0
 10
-39.4123
 20
83.1884
 11
-39.6869
 21
83.4464
  0
LINE
  8
0
 10
-39.6869
 20
83.4464
 11
-39.927
 21
83.7366
  0
LINE
  8
0
 10
-39.927
 20
83.7366
 11
-40.1289
 21
84.0547
  0
LINE
  8
0
 10
-40.1289
 20
84.0547
 11
-40.2893
 21
84.3956
  0
LINE
  8
0
 10
-40.2893
 20
84.3956
 11
-40.4057
 21
84.7539
  0
LINE
  8
0
 10
-40.4057
 20
84.7539
 11
-40.4763
 21
85.124
  0
LINE
  8
0
 10
-40.4763
 20
85.124
 11
-40.5
 21
85.5
  0
LINE
  8
0
 10
-40.5
 20
85.5
 11
-40.4763
 21
85.876
  0
LINE
  8
0
 10
-40.4763
 20
85.876
 11
-40.4057
 21
86.2461
  0
LINE
  8
0
 10
-40.4057
 20
86.2461
 11
-40.2893
 21
86.6044
  0
LINE
  8
0
 10
-40.2893
 20
86.6044
 11
-40.1289
 21
86.9453
  0
LINE
  8
0
 10
-40.1289
 20
86.9453
 11
-39.927
 21
87.2634
  0
LINE
  8
0
 10
-39.927
 20
87.2634
 11
-39.6869
 21
87.5536
  0
LINE
  8
0
 10
-39.6869
 20
87.5536
 11
-39.4123
 21
87.8115
  0
LINE
  8
0
 10
-39.4123
 20
87.8115
 11
-39.1075
 21
88.033
  0
LINE
  8
0
 10
-39.1075
 20
88.033
 11
-38.7773
 21
88.2145
  0
LINE
  8
0
 10
-38.7773
 20
88.2145
 11
-38.427
 21
88.3532
  0
LINE
  8
0
 10
-38.427
 20
88.3532
 11
-38.0621
 21
88.4469
  0
LINE
  8
0
 10
-38.0621
 20
88.4469
 11
-37.6884
 21
88.4941
  0
LINE
  8
0
 10
-37.6884
 20
88.4941
 11
-37.3116
 21
88.4941
  0
LINE
  8
0
 10
-37.3116
 20
88.4941
 11
-36.9379
 21
88.4469
  0
LINE
  8
0
 10
-36.9379
 20
88.4469
 11
-36.5729
 21
88.3532
  0
LINE
  8
0
 10
-36.5729
 20
88.3532
 11
-36.2227
 21
88.2145
  0
LINE
  8
0
 10
-36.2227
 20
88.2145
 11
-35.8925
 21
88.033
  0
LINE
  8
0
 10
-35.8925
 20
88.033
 11
-35.5877
 21
87.8115
  0
LINE
  8
0
 10
-35.5877
 20
87.8115
 11
-35.3131
 21
87.5536
  0
LINE
  8
0
 10
-35.3131
 20
87.5536
 11
-35.0729
 21
87.2634
  0
LINE
  8
0
 10
-35.0729
 20
87.2634
 11
-34.8711
 21
86.9453
  0
LINE
  8
0
 10
-34.8711
 20
86.9453
 11
-34.7107
 21
86.6044
  0
LINE
  8
0
 10
-34.7107
 20
86.6044
 11
-34.5942
 21
86.2461
  0
LINE
  8
0
 10
-34.5942
 20
86.2461
 11
-34.5237
 21
85.876
  0
LINE
  8
0
 10
-34.5237
 20
85.876
 11
-34.5
 21
85.5
  0
LINE
  8
0
 10
-34.5
 20
85.5
 11
-34.5237
 21
85.124
  0
LINE
  8
0
 10
-34.5237
 20
85.124
 11
-34.5942
 21
84.7539
  0
LINE
  8
0
 10
-34.5942
 20
84.7539
 11
-34.7107
 21
84.3956
  0
LINE
  8
0
 10
-34.7107
 20
84.3956
 11
-34.8711
 21
84.0547
  0
LINE
  8
0
 10
-34.8711
 20
84.0547
 11
-35.0729
 21
83.7366
  0
LINE
  8
0
 10
-35.0729
 20
83.7366
 11
-35.3131
 21
83.4464
  0
LINE
  8
0
 10
-35.3131
 20
83.4464
 11
-35.5877
 21
83.1884
  0
LINE
  8
0
 10
-35.5877
 20
83.1884
 11
-35.8925
 21
82.967
  0
LINE
  8
0
 10
-35.8925
 20
82.967
 11
-36.2227
 21
82.7855
  0
LINE
  8
0
 10
-36.2227
 20
82.7855
 11
-36.5729
 21
82.6468
  0
LINE
  8
0
 10
-36.5729
 20
82.6468
 11
-36.9379
 21
82.5531
  0
LINE
  8
0
 10
-36.9379
 20
82.5531
 11
-37.3116
 21
82.5059
  0
LINE
  8
0
 10
-37.3116
 20
82.5059
 11
-37.6884
 21
82.5059
  0
LINE
  8
0
 10
37.3116
 20
82.5059
 11
36.9379
 21
82.5531
  0
LINE
  8
0
 10
36.9379
 20
82.5531
 11
36.5729
 21
82.6468
  0
LINE
  8
0
 10
36.5729
 20
82.6468
 11
36.2227
 21
82.7855
  0
LINE
  8
0
 10
36.2227
 20
82.7855
 11
35.8925
 21
82.967
  0
LINE
  8
0
 10
35.8925
 20
82.967
 11
35.5877
 21
83.1884
  0
LINE
  8
0
 10
35.5877
 20
83.1884
 11
35.3131
 21
83.4464
  0
LINE
  8
0
 10
35.3131
 20
83.4464
 11
35.0729
 21
83.7366
  0
LINE
  8
0
 10
35.0729
 20
83.7366
 11
34.8711
 21
84.0547
  0
LINE
  8
0
 10
34.8711
 20
84.0547
 11
34.7107
 21
84.3956
  0
LINE
  8
0
 10
34.7107
 20
84.3956
 11
34.5942
 21
84.7539
  0
LINE
  8
0
 10
34.5942
 20
84.7539
 11
34.5237
 21
85.124
  0
LINE
  8
0
 10
34.5237
 20
85.124
 11
34.5
 21
85.5
  0
LINE
  8
0
 10
34.5
 20
85.5
 11
34.5237
 21
85.876
  0
LINE
  8
0
 10
34.5237
 20
85.876
 11
34.5942
 21
86.2461
  0
LINE
  8
0
 10
34.5942
 20
86.2461
 11
34.7107
 21
86.6044
  0
LINE
  8
0
 10
34.7107
 20
86.6044
 11
34.8711
 21
86.9453
  0
LINE
  8
0
 10
34.8711
 20
86.9453
 11
35.0729
 21
87.2634
  0
LINE
  8
0
 10
35.0729
 20
87.2634
 11
35.3131
 21
87.5536
  0
LINE
  8
0
 10
35.3131
 20
87.5536
 11
35.5877
 21
87.8115
  0
LINE
  8
0
 10
35.5877
 20
87.8115
 11
35.8925
 21
88.033
  0
LINE
  8
0
 10
35.8925
 20
88.033
 11
36.2227
 21
88.2145
  0
LINE
  8
0
 10
36.2227
 20
88.2145
 11
36.5729
 21
88.3532
  0
LINE
  8
0
 10
36.5729
 20
88.3532
 11
36.9379
 21
88.4469
  0
LINE
  8
0
 10
36.9379
 20
88.4469
 11
37.3116
 21
88.4941
  0
LINE
  8
0
 10
37.3116
 20
88.4941
 11
37.6884
 21
88.4941
  0
LINE
  8
0
 10
37.6884
 20
88.4941
 11
38.0621
 21
88.4469
  0
LINE
  8
0
 10
38.0621
 20
88.4469
 11
38.427
 21
88.3532
  0
LINE
  8
0
 10
38.427
 20
88.3532
 11
38.7773
 21
88.2145
  0
LINE
  8
0
 10
38.7773
 20
88.2145
 11
39.1075
 21
88.033
  0
LINE
  8
0
 10
39.1075
 20
88.033
 11
39.4123
 21
87.8115
  0
LINE
  8
0
 10
39.4123
 20
87.8115
 11
39.6869
 21
87.5536
  0
LINE
  8
0
 10
39.6869
 20
87.5536
 11
39.927
 21
87.2634
  0
LINE
  8
0
 10
39.927
 20
87.2634
 11
40.1289
 21
86.9453
  0
LINE
  8
0
 10
40.1289
 20
86.9453
 11
40.2893
 21
86.6044
  0
LINE
  8
0
 10
40.2893
 20
86.6044
 11
40.4057
 21
86.2461
  0
LINE
  8
0
 10
40.4057
 20
86.2461
 11
40.4763
 21
85.876
  0
LINE
  8
0
 10
40.4763
 20
85.876
 11
40.5
 21
85.5
  0
LINE
  8
0
 10
40.5
 20
85.5
 11
40.4763
 21
85.124
  0
LINE
  8
0
 10
40.4763
 20
85.124
 11
40.4057
 21
84.7539
  0
LINE
  8
0
 10
40.4057
 20
84.7539
 11
40.2893
 21
84.3956
  0
LINE
  8
0
 10
40.2893
 20
84.3956
 11
40.1289
 21
84.0547
  0
LINE
  8
0
 10
40.1289
 20
84.0547
 11
39.927
 21
83.7366
  0
LINE
  8
0
 10
39.927
 20
83.7366
 11
39.6869
 21
83.4464
  0
LINE
  8
0
 10
39.6869
 20
83.4464
 11
39.4123
 21
83.1884
  0
LINE
  8
0
 10
39.4123
 20
83.1884
 11
39.1075
 21
82.967
  0
LINE
  8
0
 10
39.1075
 20
82.967
 11
38.7773
 21
82.7855
  0
LINE
  8
0
 10
38.7773
 20
82.7855
 11
38.427
 21
82.6468
  0
LINE
  8
0
 10
38.427
 20
82.6468
 11
38.0621
 21
82.5531
  0
LINE
  8
0
 10
38.0621
 20
82.5531
 11
37.6884
 21
82.5059
  0
LINE
  8
0
 10
37.6884
 20
82.5059
 11
37.3116
 21
82.5059
  0
LINE
  8
0
 10
14.5997
 20
83.1336
 11
14.3063
 21
83.2024
  0
LINE
  8
0
 10
14.3063
 20
83.2024
 11
14.0238
 21
83.3075
  0
LINE
  8
0
 10
14.0238
 20
83.3075
 11
13.7567
 21
83.4471
  0
LINE
  8
0
 10
13.7567
 20
83.4471
 11
13.5092
 21
83.6191
  0
LINE
  8
0
 10
13.5092
 20
83.6191
 11
13.2853
 21
83.8208
  0
LINE
  8
0
 10
13.2853
 20
83.8208
 11
13.0883
 21
84.049
  0
LINE
  8
0
 10
13.0883
 20
84.049
 11
12.9215
 21
84.3
  0
LINE
  8
0
 10
12.9215
 20
84.3
 11
12.7875
 21
84.57
  0
LINE
  8
0
 10
12.7875
 20
84.57
 11
12.6884
 21
84.8546
  0
LINE
  8
0
 10
12.6884
 20
84.8546
 11
12.6257
 21
85.1494
  0
LINE
  8
0
 10
12.6257
 20
85.1494
 11
12.6005
 21
85.4497
  0
LINE
  8
0
 10
12.6005
 20
85.4497
 11
12.6131
 21
85.7509
  0
LINE
  8
0
 10
12.6131
 20
85.7509
 11
12.6634
 21
86.048
  0
LINE
  8
0
 10
12.6634
 20
86.048
 11
12.7505
 21
86.3366
  0
LINE
  8
0
 10
12.7505
 20
86.3366
 11
12.8731
 21
86.6119
  0
LINE
  8
0
 10
12.8731
 20
86.6119
 11
13.0292
 21
86.8697
  0
LINE
  8
0
 10
13.0292
 20
86.8697
 11
13.2164
 21
87.1059
  0
LINE
  8
0
 10
13.2164
 20
87.1059
 11
13.4318
 21
87.3168
  0
LINE
  8
0
 10
13.4318
 20
87.3168
 11
13.6719
 21
87.499
  0
LINE
  8
0
 10
13.6719
 20
87.499
 11
13.9329
 21
87.6497
  0
LINE
  8
0
 10
13.9329
 20
87.6497
 11
14.2107
 21
87.7665
  0
LINE
  8
0
 10
14.2107
 20
87.7665
 11
14.501
 21
87.8475
  0
LINE
  8
0
 10
14.501
 20
87.8475
 11
14.7992
 21
87.8916
  0
LINE
  8
0
 10
14.7992
 20
87.8916
 11
15.1005
 21
87.8979
  0
LINE
  8
0
 10
15.1005
 20
87.8979
 11
15.4002
 21
87.8664
  0
LINE
  8
0
 10
15.4002
 20
87.8664
 11
15.6937
 21
87.7976
  0
LINE
  8
0
 10
15.6937
 20
87.7976
 11
15.9762
 21
87.6925
  0
LINE
  8
0
 10
15.9762
 20
87.6925
 11
16.2433
 21
87.5529
  0
LINE
  8
0
 10
16.2433
 20
87.5529
 11
16.4908
 21
87.3809
  0
LINE
  8
0
 10
16.4908
 20
87.3809
 11
16.7147
 21
87.1792
  0
LINE
  8
0
 10
16.7147
 20
87.1792
 11
16.9117
 21
86.951
  0
LINE
  8
0
 10
16.9117
 20
86.951
 11
17.0785
 21
86.7
  0
LINE
  8
0
 10
17.0785
 20
86.7
 11
17.2125
 21
86.43
  0
LINE
  8
0
 10
17.2125
 20
86.43
 11
17.3116
 21
86.1454
  0
LINE
  8
0
 10
17.3116
 20
86.1454
 11
17.3743
 21
85.8506
  0
LINE
  8
0
 10
17.3743
 20
85.8506
 11
17.3995
 21
85.5502
  0
LINE
  8
0
 10
17.3995
 20
85.5502
 11
17.3868
 21
85.2491
  0
LINE
  8
0
 10
17.3868
 20
85.2491
 11
17.3366
 21
84.952
  0
LINE
  8
0
 10
17.3366
 20
84.952
 11
17.2495
 21
84.6634
  0
LINE
  8
0
 10
17.2495
 20
84.6634
 11
17.1269
 21
84.3881
  0
LINE
  8
0
 10
17.1269
 20
84.3881
 11
16.9707
 21
84.1303
  0
LINE
  8
0
 10
16.9707
 20
84.1303
 11
16.7835
 21
83.8941
  0
LINE
  8
0
 10
16.7835
 20
83.8941
 11
16.5682
 21
83.6832
  0
LINE
  8
0
 10
16.5682
 20
83.6832
 11
16.3281
 21
83.501
  0
LINE
  8
0
 10
16.3281
 20
83.501
 11
16.0671
 21
83.3503
  0
LINE
  8
0
 10
16.0671
 20
83.3503
 11
15.7893
 21
83.2335
  0
LINE
  8
0
 10
15.7893
 20
83.2335
 11
15.499
 21
83.1524
  0
LINE
  8
0
 10
15.499
 20
83.1524
 11
15.2008
 21
83.1084
  0
LINE
  8
0
 10
15.2008
 20
83.1084
 11
14.8995
 21
83.1021
  0
LINE
  8
0
 10
14.8995
 20
83.1021
 11
14.5997
 21
83.1336
  0
LINE
  8
0
 10
-45.4002
 20
83.1336
 11
-45.6937
 21
83.2024
  0
LINE
  8
0
 10
-45.6937
 20
83.2024
 11
-45.9762
 21
83.3075
  0
LINE
  8
0
 10
-45.9762
 20
83.3075
 11
-46.2433
 21
83.4471
  0
LINE
  8
0
 10
-46.2433
 20
83.4471
 11
-46.4908
 21
83.6191
  0
LINE
  8
0
 10
-46.4908
 20
83.6191
 11
-46.7147
 21
83.8208
  0
LINE
  8
0
 10
-46.7147
 20
83.8208
 11
-46.9117
 21
84.049
  0
LINE
  8
0
 10
-46.9117
 20
84.049
 11
-47.0785
 21
84.3
  0
LINE
  8
0
 10
-47.0785
 20
84.3
 11
-47.2125
 21
84.57
  0
LINE
  8
0
 10
-47.2125
 20
84.57
 11
-47.3116
 21
84.8546
  0
LINE
  8
0
 10
-47.3116
 20
84.8546
 11
-47.3743
 21
85.1494
  0
LINE
  8
0
 10
-47.3743
 20
85.1494
 11
-47.3995
 21
85.4497
  0
LINE
  8
0
 10
-47.3995
 20
85.4497
 11
-47.3868
 21
85.7509
  0
LINE
  8
0
 10
-47.3868
 20
85.7509
 11
-47.3366
 21
86.048
  0
LINE
  8
0
 10
-47.3366
 20
86.048
 11
-47.2495
 21
86.3366
  0
LINE
  8
0
 10
-47.2495
 20
86.3366
 11
-47.1269
 21
86.6119
  0
LINE
  8
0
 10
-47.1269
 20
86.6119
 11
-46.9707
 21
86.8697
  0
LINE
  8
0
 10
-46.9707
 20
86.8697
 11
-46.7835
 21
87.1059
  0
LINE
  8
0
 10
-46.7835
 20
87.1059
 11
-46.5682
 21
87.3168
  0
LINE
  8
0
 10
-46.5682
 20
87.3168
 11
-46.3281
 21
87.499
  0
LINE
  8
0
 10
-46.3281
 20
87.499
 11
-46.0671
 21
87.6497
  0
LINE
  8
0
 10
-46.0671
 20
87.6497
 11
-45.7893
 21
87.7665
  0
LINE
  8
0
 10
-45.7893
 20
87.7665
 11
-45.499
 21
87.8475
  0
LINE
  8
0
 10
-45.499
 20
87.8475
 11
-45.2008
 21
87.8916
  0
LINE
  8
0
 10
-45.2008
 20
87.8916
 11
-44.8995
 21
87.8979
  0
LINE
  8
0
 10
-44.8995
 20
87.8979
 11
-44.5997
 21
87.8664
  0
LINE
  8
0
 10
-44.5997
 20
87.8664
 11
-44.3063
 21
87.7976
  0
LINE
  8
0
 10
-44.3063
 20
87.7976
 11
-44.0238
 21
87.6925
  0
LINE
  8
0
 10
-44.0238
 20
87.6925
 11
-43.7567
 21
87.5529
  0
LINE
  8
0
 10
-43.7567
 20
87.5529
 11
-43.5092
 21
87.3809
  0
LINE
  8
0
 10
-43.5092
 20
87.3809
 11
-43.2853
 21
87.1792
  0
LINE
  8
0
 10
-43.2853
 20
87.1792
 11
-43.0883
 21
86.951
  0
LINE
  8
0
 10
-43.0883
 20
86.951
 11
-42.9215
 21
86.7
  0
LINE
  8
0
 10
-42.9215
 20
86.7
 11
-42.7875
 21
86.43
  0
LINE
  8
0
 10
-42.7875
 20
86.43
 11
-42.6884
 21
86.1454
  0
LINE
  8
0
 10
-42.6884
 20
86.1454
 11
-42.6257
 21
85.8506
  0
LINE
  8
0
 10
-42.6257
 20
85.8506
 11
-42.6005
 21
85.5502
  0
LINE
  8
0
 10
-42.6005
 20
85.5502
 11
-42.6131
 21
85.2491
  0
LINE
  8
0
 10
-42.6131
 20
85.2491
 11
-42.6634
 21
84.952
  0
LINE
  8
0
 10
-42.6634
 20
84.952
 11
-42.7505
 21
84.6634
  0
LINE
  8
0
 10
-42.7505
 20
84.6634
 11
-42.8731
 21
84.3881
  0
LINE
  8
0
 10
-42.8731
 20
84.3881
 11
-43.0292
 21
84.1303
  0
LINE
  8
0
 10
-43.0292
 20
84.1303
 11
-43.2164
 21
83.8941
  0
LINE
  8
0
 10
-43.2164
 20
83.8941
 11
-43.4318
 21
83.6832
  0
LINE
  8
0
 10
-43.4318
 20
83.6832
 11
-43.6719
 21
83.501
  0
LINE
  8
0
 10
-43.6719
 20
83.501
 11
-43.9329
 21
83.3503
  0
LINE
  8
0
 10
-43.9329
 20
83.3503
 11
-44.2107
 21
83.2335
  0
LINE
  8
0
 10
-44.2107
 20
83.2335
 11
-44.501
 21
83.1524
  0
LINE
  8
0
 10
-44.501
 20
83.1524
 11
-44.7992
 21
83.1084
  0
LINE
  8
0
 10
-44.7992
 20
83.1084
 11
-45.1005
 21
83.1021
  0
LINE
  8
0
 10
-45.1005
 20
83.1021
 11
-45.4002
 21
83.1336
  0
LINE
  8
0
 10
-15.4002
 20
83.1336
 11
-15.6937
 21
83.2024
  0
LINE
  8
0
 10
-15.6937
 20
83.2024
 11
-15.9762
 21
83.3075
  0
LINE
  8
0
 10
-15.9762
 20
83.3075
 11
-16.2433
 21
83.4471
  0
LINE
  8
0
 10
-16.2433
 20
83.4471
 11
-16.4908
 21
83.6191
  0
LINE
  8
0
 10
-16.4908
 20
83.6191
 11
-16.7147
 21
83.8208
  0
LINE
  8
0
 10
-16.7147
 20
83.8208
 11
-16.9117
 21
84.049
  0
LINE
  8
0
 10
-16.9117
 20
84.049
 11
-17.0785
 21
84.3
  0
LINE
  8
0
 10
-17.0785
 20
84.3
 11
-17.2125
 21
84.57
  0
LINE
  8
0
 10
-17.2125
 20
84.57
 11
-17.3116
 21
84.8546
  0
LINE
  8
0
 10
-17.3116
 20
84.8546
 11
-17.3743
 21
85.1494
  0
LINE
  8
0
 10
-17.3743
 20
85.1494
 11
-17.3995
 21
85.4497
  0
LINE
  8
0
 10
-17.3995
 20
85.4497
 11
-17.3868
 21
85.7509
  0
LINE
  8
0
 10
-17.3868
 20
85.7509
 11
-17.3366
 21
86.048
  0
LINE
  8
0
 10
-17.3366
 20
86.048
 11
-17.2495
 21
86.3366
  0
LINE
  8
0
 10
-17.2495
 20
86.3366
 11
-17.1269
 21
86.6119
  0
LINE
  8
0
 10
-17.1269
 20
86.6119
 11
-16.9707
 21
86.8697
  0
LINE
  8
0
 10
-16.9707
 20
86.8697
 11
-16.7835
 21
87.1059
  0
LINE
  8
0
 10
-16.7835
 20
87.1059
 11
-16.5682
 21
87.3168
  0
LINE
  8
0
 10
-16.5682
 20
87.3168
 11
-16.3281
 21
87.499
  0
LINE
  8
0
 10
-16.3281
 20
87.499
 11
-16.0671
 21
87.6497
  0
LINE
  8
0
 10
-16.0671
 20
87.6497
 11
-15.7893
 21
87.7665
  0
LINE
  8
0
 10
-15.7893
 20
87.7665
 11
-15.499
 21
87.8475
  0
LINE
  8
0
 10
-15.499
 20
87.8475
 11
-15.2008
 21
87.8916
  0
LINE
  8
0
 10
-15.2008
 20
87.8916
 11
-14.8995
 21
87.8979
  0
LINE
  8
0
 10
-14.8995
 20
87.8979
 11
-14.5997
 21
87.8664
  0
LINE
  8
0
 10
-14.5997
 20
87.8664
 11
-14.3063
 21
87.7976
  0
LINE
  8
0
 10
-14.3063
 20
87.7976
 11
-14.0238
 21
87.6925
  0
LINE
  8
0
 10
-14.0238
 20
87.6925
 11
-13.7567
 21
87.5529
  0
LINE
  8
0
 10
-13.7567
 20
87.5529
 11
-13.5092
 21
87.3809
  0
LINE
  8
0
 10
-13.5092
 20
87.3809
 11
-13.2853
 21
87.1792
  0
LINE
  8
0
 10
-13.2853
 20
87.1792
 11
-13.0883
 21
86.951
  0
LINE
  8
0
 10
-13.0883
 20
86.951
 11
-12.9215
 21
86.7
  0
LINE
  8
0
 10
-12.9215
 20
86.7
 11
-12.7875
 21
86.43
  0
LINE
  8
0
 10
-12.7875
 20
86.43
 11
-12.6884
 21
86.1454
  0
LINE
  8
0
 10
-12.6884
 20
86.1454
 11
-12.6257
 21
85.8506
  0
LINE
  8
0
 10
-12.6257
 20
85.8506
 11
-12.6005
 21
85.5502
  0
LINE
  8
0
 10
-12.6005
 20
85.5502
 11
-12.6131
 21
85.2491
  0
LINE
  8
0
 10
-12.6131
 20
85.2491
 11
-12.6634
 21
84.952
  0
LINE
  8
0
 10
-12.6634
 20
84.952
 11
-12.7505
 21
84.6634
  0
LINE
  8
0
 10
-12.7505
 20
84.6634
 11
-12.8731
 21
84.3881
  0
LINE
  8
0
 10
-12.8731
 20
84.3881
 11
-13.0292
 21
84.1303
  0
LINE
  8
0
 10
-13.0292
 20
84.1303
 11
-13.2164
 21
83.8941
  0
LINE
  8
0
 10
-13.2164
 20
83.8941
 11
-13.4318
 21
83.6832
  0
LINE
  8
0
 10
-13.4318
 20
83.6832
 11
-13.6719
 21
83.501
  0
LINE
  8
0
 10
-13.6719
 20
83.501
 11
-13.9329
 21
83.3503
  0
LINE
  8
0
 10
-13.9329
 20
83.3503
 11
-14.2107
 21
83.2335
  0
LINE
  8
0
 10
-14.2107
 20
83.2335
 11
-14.501
 21
83.1524
  0
LINE
  8
0
 10
-14.501
 20
83.1524
 11
-14.7992
 21
83.1084
  0
LINE
  8
0
 10
-14.7992
 20
83.1084
 11
-15.1005
 21
83.1021
  0
LINE
  8
0
 10
-15.1005
 20
83.1021
 11
-15.4002
 21
83.1336
  0
LINE
  8
0
 10
44.5997
 20
83.1336
 11
44.3063
 21
83.2024
  0
LINE
  8
0
 10
44.3063
 20
83.2024
 11
44.0238
 21
83.3075
  0
LINE
  8
0
 10
44.0238
 20
83.3075
 11
43.7567
 21
83.4471
  0
LINE
  8
0
 10
43.7567
 20
83.4471
 11
43.5092
 21
83.6191
  0
LINE
  8
0
 10
43.5092
 20
83.6191
 11
43.2853
 21
83.8208
  0
LINE
  8
0
 10
43.2853
 20
83.8208
 11
43.0883
 21
84.049
  0
LINE
  8
0
 10
43.0883
 20
84.049
 11
42.9215
 21
84.3
  0
LINE
  8
0
 10
42.9215
 20
84.3
 11
42.7875
 21
84.57
  0
LINE
  8
0
 10
42.7875
 20
84.57
 11
42.6884
 21
84.8546
  0
LINE
  8
0
 10
42.6884
 20
84.8546
 11
42.6257
 21
85.1494
  0
LINE
  8
0
 10
42.6257
 20
85.1494
 11
42.6005
 21
85.4497
  0
LINE
  8
0
 10
42.6005
 20
85.4497
 11
42.6131
 21
85.7509
  0
LINE
  8
0
 10
42.6131
 20
85.7509
 11
42.6634
 21
86.048
  0
LINE
  8
0
 10
42.6634
 20
86.048
 11
42.7505
 21
86.3366
  0
LINE
  8
0
 10
42.7505
 20
86.3366
 11
42.8731
 21
86.6119
  0
LINE
  8
0
 10
42.8731
 20
86.6119
 11
43.0292
 21
86.8697
  0
LINE
  8
0
 10
43.0292
 20
86.8697
 11
43.2164
 21
87.1059
  0
LINE
  8
0
 10
43.2164
 20
87.1059
 11
43.4318
 21
87.3168
  0
LINE
  8
0
 10
43.4318
 20
87.3168
 11
43.6719
 21
87.499
  0
LINE
  8
0
 10
43.6719
 20
87.499
 11
43.9329
 21
87.6497
  0
LINE
  8
0
 10
43.9329
 20
87.6497
 11
44.2107
 21
87.7665
  0
LINE
  8
0
 10
44.2107
 20
87.7665
 11
44.501
 21
87.8475
  0
LINE
  8
0
 10
44.501
 20
87.8475
 11
44.7992
 21
87.8916
  0
LINE
  8
0
 10
44.7992
 20
87.8916
 11
45.1005
 21
87.8979
  0
LINE
  8
0
 10
45.1005
 20
87.8979
 11
45.4002
 21
87.8664
  0
LINE
  8
0
 10
45.4002
 20
87.8664
 11
45.6937
 21
87.7976
  0
LINE
  8
0
 10
45.6937
 20
87.7976
 11
45.9762
 21
87.6925
  0
LINE
  8
0
 10
45.9762
 20
87.6925
 11
46.2433
 21
87.5529
  0
LINE
  8
0
 10
46.2433
 20
87.5529
 11
46.4908
 21
87.3809
  0
LINE
  8
0
 10
46.4908
 20
87.3809
 11
46.7147
 21
87.1792
  0
LINE
  8
0
 10
46.7147
 20
87.1792
 11
46.9117
 21
86.951
  0
LINE
  8
0
 10
46.9117
 20
86.951
 11
47.0785
 21
86.7
  0
LINE
  8
0
 10
47.0785
 20
86.7
 11
47.2125
 21
86.43
  0
LINE
  8
0
 10
47.2125
 20
86.43
 11
47.3116
 21
86.1454
  0
LINE
  8
0
 10
47.3116
 20
86.1454
 11
47.3743
 21
85.8506
  0
LINE
  8
0
 10
47.3743
 20
85.8506
 11
47.3995
 21
85.5502
  0
LINE
  8
0
 10
47.3995
 20
85.5502
 11
47.3868
 21
85.2491
  0
LINE
  8
0
 10
47.3868
 20
85.2491
 11
47.3366
 21
84.952
  0
LINE
  8
0
 10
47.3366
 20
84.952
 11
47.2495
 21
84.6634
  0
LINE
  8
0
 10
47.2495
 20
84.6634
 11
47.1269
 21
84.3881
  0
LINE
  8
0
 10
47.1269
 20
84.3881
 11
46.9707
 21
84.1303
  0
LINE
  8
0
 10
46.9707
 20
84.1303
 11
46.7835
 21
83.8941
  0
LINE
  8
0
 10
46.7835
 20
83.8941
 11
46.5682
 21
83.6832
  0
LINE
  8
0
 10
46.5682
 20
83.6832
 11
46.3281
 21
83.501
  0
LINE
  8
0
 10
46.3281
 20
83.501
 11
46.0671
 21
83.3503
  0
LINE
  8
0
 10
46.0671
 20
83.3503
 11
45.7893
 21
83.2335
  0
LINE
  8
0
 10
45.7893
 20
83.2335
 11
45.499
 21
83.1524
  0
LINE
  8
0
 10
45.499
 20
83.1524
 11
45.2008
 21
83.1084
  0
LINE
  8
0
 10
45.2008
 20
83.1084
 11
44.8995
 21
83.1021
  0
LINE
  8
0
 10
44.8995
 20
83.1021
 11
44.5997
 21
83.1336
  0
LINE
  8
0
 10
-30.4002
 20
83.1336
 11
-30.6937
 21
83.2024
  0
LINE
  8
0
 10
-30.6937
 20
83.2024
 11
-30.9762
 21
83.3075
  0
LINE
  8
0
 10
-30.9762
 20
83.3075
 11
-31.2433
 21
83.4471
  0
LINE
  8
0
 10
-31.2433
 20
83.4471
 11
-31.4908
 21
83.6191
  0
LINE
  8
0
 10
-31.4908
 20
83.6191
 11
-31.7147
 21
83.8208
  0
LINE
  8
0
 10
-31.7147
 20
83.8208
 11
-31.9117
 21
84.049
  0
LINE
  8
0
 10
-31.9117
 20
84.049
 11
-32.0785
 21
84.3
  0
LINE
  8
0
 10
-32.0785
 20
84.3
 11
-32.2125
 21
84.57
  0
LINE
  8
0
 10
-32.2125
 20
84.57
 11
-32.3116
 21
84.8546
  0
LINE
  8
0
 10
-32.3116
 20
84.8546
 11
-32.3743
 21
85.1494
  0
LINE
  8
0
 10
-32.3743
 20
85.1494
 11
-32.3995
 21
85.4497
  0
LINE
  8
0
 10
-32.3995
 20
85.4497
 11
-32.3868
 21
85.7509
  0
LINE
  8
0
 10
-32.3868
 20
85.7509
 11
-32.3366
 21
86.048
  0
LINE
  8
0
 10
-32.3366
 20
86.048
 11
-32.2495
 21
86.3366
  0
LINE
  8
0
 10
-32.2495
 20
86.3366
 11
-32.1269
 21
86.6119
  0
LINE
  8
0
 10
-32.1269
 20
86.6119
 11
-31.9707
 21
86.8697
  0
LINE
  8
0
 10
-31.9707
 20
86.8697
 11
-31.7835
 21
87.1059
  0
LINE
  8
0
 10
-31.7835
 20
87.1059
 11
-31.5682
 21
87.3168
  0
LINE
  8
0
 10
-31.5682
 20
87.3168
 11
-31.3281
 21
87.499
  0
LINE
  8
0
 10
-31.3281
 20
87.499
 11
-31.0671
 21
87.6497
  0
LINE
  8
0
 10
-31.0671
 20
87.6497
 11
-30.7893
 21
87.7665
  0
LINE
  8
0
 10
-30.7893
 20
87.7665
 11
-30.499
 21
87.8475
  0
LINE
  8
0
 10
-30.499
 20
87.8475
 11
-30.2008
 21
87.8916
  0
LINE
  8
0
 10
-30.2008
 20
87.8916
 11
-29.8995
 21
87.8979
  0
LINE
  8
0
 10
-29.8995
 20
87.8979
 11
-29.5997
 21
87.8664
  0
LINE
  8
0
 10
-29.5997
 20
87.8664
 11
-29.3063
 21
87.7976
  0
LINE
  8
0
 10
-29.3063
 20
87.7976
 11
-29.0238
 21
87.6925
  0
LINE
  8
0
 10
-29.0238
 20
87.6925
 11
-28.7567
 21
87.5529
  0
LINE
  8
0
 10
-28.7567
 20
87.5529
 11
-28.5092
 21
87.3809
  0
LINE
  8
0
 10
-28.5092
 20
87.3809
 11
-28.2853
 21
87.1792
  0
LINE
  8
0
 10
-28.2853
 20
87.1792
 11
-28.0883
 21
86.951
  0
LINE
  8
0
 10
-28.0883
 20
86.951
 11
-27.9215
 21
86.7
  0
LINE
  8
0
 10
-27.9215
 20
86.7
 11
-27.7875
 21
86.43
  0
LINE
  8
0
 10
-27.7875
 20
86.43
 11
-27.6884
 21
86.1454
  0
LINE
  8
0
 10
-27.6884
 20
86.1454
 11
-27.6257
 21
85.8506
  0
LINE
  8
0
 10
-27.6257
 20
85.8506
 11
-27.6005
 21
85.5502
  0
LINE
  8
0
 10
-27.6005
 20
85.5502
 11
-27.6131
 21
85.2491
  0
LINE
  8
0
 10
-27.6131
 20
85.2491
 11
-27.6634
 21
84.952
  0
LINE
  8
0
 10
-27.6634
 20
84.952
 11
-27.7505
 21
84.6634
  0
LINE
  8
0
 10
-27.7505
 20
84.6634
 11
-27.8731
 21
84.3881
  0
LINE
  8
0
 10
-27.8731
 20
84.3881
 11
-28.0292
 21
84.1303
  0
LINE
  8
0
 10
-28.0292
 20
84.1303
 11
-28.2164
 21
83.8941
  0
LINE
  8
0
 10
-28.2164
 20
83.8941
 11
-28.4318
 21
83.6832
  0
LINE
  8
0
 10
-28.4318
 20
83.6832
 11
-28.6719
 21
83.501
  0
LINE
  8
0
 10
-28.6719
 20
83.501
 11
-28.9329
 21
83.3503
  0
LINE
  8
0
 10
-28.9329
 20
83.3503
 11
-29.2107
 21
83.2335
  0
LINE
  8
0
 10
-29.2107
 20
83.2335
 11
-29.501
 21
83.1524
  0
LINE
  8
0
 10
-29.501
 20
83.1524
 11
-29.7992
 21
83.1084
  0
LINE
  8
0
 10
-29.7992
 20
83.1084
 11
-30.1005
 21
83.1021
  0
LINE
  8
0
 10
-30.1005
 20
83.1021
 11
-30.4002
 21
83.1336
  0
LINE
  8
0
 10
29.9058
 20
84.0029
 11
29.7189
 21
84.0266
  0
LINE
  8
0
 10
29.7189
 20
84.0266
 11
29.5365
 21
84.0734
  0
LINE
  8
0
 10
29.5365
 20
84.0734
 11
29.3613
 21
84.1427
  0
LINE
  8
0
 10
29.3613
 20
84.1427
 11
29.1963
 21
84.2335
  0
LINE
  8
0
 10
29.1963
 20
84.2335
 11
29.0439
 21
84.3442
  0
LINE
  8
0
 10
29.0439
 20
84.3442
 11
28.9065
 21
84.4732
  0
LINE
  8
0
 10
28.9065
 20
84.4732
 11
28.7865
 21
84.6183
  0
LINE
  8
0
 10
28.7865
 20
84.6183
 11
28.6855
 21
84.7774
  0
LINE
  8
0
 10
28.6855
 20
84.7774
 11
28.6053
 21
84.9478
  0
LINE
  8
0
 10
28.6053
 20
84.9478
 11
28.5471
 21
85.127
  0
LINE
  8
0
 10
28.5471
 20
85.127
 11
28.5118
 21
85.312
  0
LINE
  8
0
 10
28.5118
 20
85.312
 11
28.5
 21
85.5
  0
LINE
  8
0
 10
28.5
 20
85.5
 11
28.5118
 21
85.688
  0
LINE
  8
0
 10
28.5118
 20
85.688
 11
28.5471
 21
85.873
  0
LINE
  8
0
 10
28.5471
 20
85.873
 11
28.6053
 21
86.0522
  0
LINE
  8
0
 10
28.6053
 20
86.0522
 11
28.6855
 21
86.2226
  0
LINE
  8
0
 10
28.6855
 20
86.2226
 11
28.7865
 21
86.3817
  0
LINE
  8
0
 10
28.7865
 20
86.3817
 11
28.9065
 21
86.5268
  0
LINE
  8
0
 10
28.9065
 20
86.5268
 11
29.0439
 21
86.6558
  0
LINE
  8
0
 10
29.0439
 20
86.6558
 11
29.1963
 21
86.7665
  0
LINE
  8
0
 10
29.1963
 20
86.7665
 11
29.3613
 21
86.8572
  0
LINE
  8
0
 10
29.3613
 20
86.8572
 11
29.5365
 21
86.9266
  0
LINE
  8
0
 10
29.5365
 20
86.9266
 11
29.7189
 21
86.9734
  0
LINE
  8
0
 10
29.7189
 20
86.9734
 11
29.9058
 21
86.997
  0
LINE
  8
0
 10
29.9058
 20
86.997
 11
30.0942
 21
86.997
  0
LINE
  8
0
 10
30.0942
 20
86.997
 11
30.2811
 21
86.9734
  0
LINE
  8
0
 10
30.2811
 20
86.9734
 11
30.4635
 21
86.9266
  0
LINE
  8
0
 10
30.4635
 20
86.9266
 11
30.6387
 21
86.8572
  0
LINE
  8
0
 10
30.6387
 20
86.8572
 11
30.8037
 21
86.7665
  0
LINE
  8
0
 10
30.8037
 20
86.7665
 11
30.9561
 21
86.6558
  0
LINE
  8
0
 10
30.9561
 20
86.6558
 11
31.0934
 21
86.5268
  0
LINE
  8
0
 10
31.0934
 20
86.5268
 11
31.2135
 21
86.3817
  0
LINE
  8
0
 10
31.2135
 20
86.3817
 11
31.3145
 21
86.2226
  0
LINE
  8
0
 10
31.3145
 20
86.2226
 11
31.3947
 21
86.0522
  0
LINE
  8
0
 10
31.3947
 20
86.0522
 11
31.4529
 21
85.873
  0
LINE
  8
0
 10
31.4529
 20
85.873
 11
31.4882
 21
85.688
  0
LINE
  8
0
 10
31.4882
 20
85.688
 11
31.5
 21
85.5
  0
LINE
  8
0
 10
31.5
 20
85.5
 11
31.4882
 21
85.312
  0
LINE
  8
0
 10
31.4882
 20
85.312
 11
31.4529
 21
85.127
  0
LINE
  8
0
 10
31.4529
 20
85.127
 11
31.3947
 21
84.9478
  0
LINE
  8
0
 10
31.3947
 20
84.9478
 11
31.3145
 21
84.7774
  0
LINE
  8
0
 10
31.3145
 20
84.7774
 11
31.2135
 21
84.6183
  0
LINE
  8
0
 10
31.2135
 20
84.6183
 11
31.0934
 21
84.4732
  0
LINE
  8
0
 10
31.0934
 20
84.4732
 11
30.9561
 21
84.3442
  0
LINE
  8
0
 10
30.9561
 20
84.3442
 11
30.8037
 21
84.2335
  0
LINE
  8
0
 10
30.8037
 20
84.2335
 11
30.6387
 21
84.1427
  0
LINE
  8
0
 10
30.6387
 20
84.1427
 11
30.4635
 21
84.0734
  0
LINE
  8
0
 10
30.4635
 20
84.0734
 11
30.2811
 21
84.0266
  0
LINE
  8
0
 10
30.2811
 20
84.0266
 11
30.0942
 21
84.0029
  0
LINE
  8
0
 10
30.0942
 20
84.0029
 11
29.9058
 21
84.0029
  0
LINE
  8
0
 10
-0.0941772
 20
84.0029
 11
-0.281067
 21
84.0266
  0
LINE
  8
0
 10
-0.281067
 20
84.0266
 11
-0.463516
 21
84.0734
  0
LINE
  8
0
 10
-0.463516
 20
84.0734
 11
-0.638657
 21
84.1427
  0
LINE
  8
0
 10
-0.638657
 20
84.1427
 11
-0.803726
 21
84.2335
  0
LINE
  8
0
 10
-0.803726
 20
84.2335
 11
-0.956131
 21
84.3442
  0
LINE
  8
0
 10
-0.956131
 20
84.3442
 11
-1.09344
 21
84.4732
  0
LINE
  8
0
 10
-1.09344
 20
84.4732
 11
-1.21352
 21
84.6183
  0
LINE
  8
0
 10
-1.21352
 20
84.6183
 11
-1.31445
 21
84.7774
  0
LINE
  8
0
 10
-1.31445
 20
84.7774
 11
-1.39465
 21
84.9478
  0
LINE
  8
0
 10
-1.39465
 20
84.9478
 11
-1.45287
 21
85.127
  0
LINE
  8
0
 10
-1.45287
 20
85.127
 11
-1.48816
 21
85.312
  0
LINE
  8
0
 10
-1.48816
 20
85.312
 11
-1.5
 21
85.5
  0
LINE
  8
0
 10
-1.5
 20
85.5
 11
-1.48816
 21
85.688
  0
LINE
  8
0
 10
-1.48816
 20
85.688
 11
-1.45287
 21
85.873
  0
LINE
  8
0
 10
-1.45287
 20
85.873
 11
-1.39465
 21
86.0522
  0
LINE
  8
0
 10
-1.39465
 20
86.0522
 11
-1.31445
 21
86.2226
  0
LINE
  8
0
 10
-1.31445
 20
86.2226
 11
-1.21352
 21
86.3817
  0
LINE
  8
0
 10
-1.21352
 20
86.3817
 11
-1.09344
 21
86.5268
  0
LINE
  8
0
 10
-1.09344
 20
86.5268
 11
-0.956131
 21
86.6558
  0
LINE
  8
0
 10
-0.956131
 20
86.6558
 11
-0.803726
 21
86.7665
  0
LINE
  8
0
 10
-0.803726
 20
86.7665
 11
-0.638657
 21
86.8572
  0
LINE
  8
0
 10
-0.638657
 20
86.8572
 11
-0.463516
 21
86.9266
  0
LINE
  8
0
 10
-0.463516
 20
86.9266
 11
-0.281067
 21
86.9734
  0
LINE
  8
0
 10
-0.281067
 20
86.9734
 11
-0.0941772
 21
86.997
  0
LINE
  8
0
 10
-0.0941772
 20
86.997
 11
0.0941772
 21
86.997
  0
LINE
  8
0
 10
0.0941772
 20
86.997
 11
0.281067
 21
86.9734
  0
LINE
  8
0
 10
0.281067
 20
86.9734
 11
0.463516
 21
86.9266
  0
LINE
  8
0
 10
0.463516
 20
86.9266
 11
0.638657
 21
86.8572
  0
LINE
  8
0
 10
0.638657
 20
86.8572
 11
0.803726
 21
86.7665
  0
LINE
  8
0
 10
0.803726
 20
86.7665
 11
0.956131
 21
86.6558
  0
LINE
  8
0
 10
0.956131
 20
86.6558
 11
1.09344
 21
86.5268
  0
LINE
  8
0
 10
1.09344
 20
86.5268
 11
1.21352
 21
86.3817
  0
LINE
  8
0
 10
1.21352
 20
86.3817
 11
1.31445
 21
86.2226
  0
LINE
  8
0
 10
1.31445
 20
86.2226
 11
1.39465
 21
86.0522
  0
LINE
  8
0
 10
1.39465
 20
86.0522
 11
1.45287
 21
85.873
  0
LINE
  8
0
 10
1.45287
 20
85.873
 11
1.48816
 21
85.688
  0
LINE
  8
0
 10
1.48816
 20
85.688
 11
1.5
 21
85.5
  0
LINE
  8
0
 10
1.5
 20
85.5
 11
1.48816
 21
85.312
  0
LINE
  8
0
 10
1.48816
 20
85.312
 11
1.45287
 21
85.127
  0
LINE
  8
0
 10
1.45287
 20
85.127
 11
1.39465
 21
84.9478
  0
LINE
  8
0
 10
1.39465
 20
84.9478
 11
1.31445
 21
84.7774
  0
LINE
  8
0
 10
1.31445
 20
84.7774
 11
1.21352
 21
84.6183
  0
LINE
  8
0
 10
1.21352
 20
84.6183
 11
1.09344
 21
84.4732
  0
LINE
  8
0
 10
1.09344
 20
84.4732
 11
0.956131
 21
84.3442
  0
LINE
  8
0
 10
0.956131
 20
84.3442
 11
0.803726
 21
84.2335
  0
LINE
  8
0
 10
0.803726
 20
84.2335
 11
0.638657
 21
84.1427
  0
LINE
  8
0
 10
0.638657
 20
84.1427
 11
0.463516
 21
84.0734
  0
LINE
  8
0
 10
0.463516
 20
84.0734
 11
0.281067
 21
84.0266
  0
LINE
  8
0
 10
0.281067
 20
84.0266
 11
0.0941772
 21
84.0029
  0
LINE
  8
0
 10
0.0941772
 20
84.0029
 11
-0.0941772
 21
84.0029
  0
LINE
  8
0
 10
-42.8466
 20
75.6
 11
-42.8466
 21
81
  0
LINE
  8
0
 10
-42.8466
 20
81
 11
-32.1534
 21
81
  0
LINE
  8
0
 10
-32.1534
 20
81
 11
-32.1534
 21
75.6
  0
LINE
  8
0
 10
-32.1534
 20
75.6
 11
-42.8466
 21
75.6
  0
LINE
  8
0
 10
47.1534
 20
75.6
 11
47.1534
 21
81
  0
LINE
  8
0
 10
47.1534
 20
81
 11
57.8466
 21
81
  0
LINE
  8
0
 10
57.8466
 20
81
 11
57.8466
 21
75.6
  0
LINE
  8
0
 10
57.8466
 20
75.6
 11
47.1534
 21
75.6
  0
LINE
  8
0
 10
2.15337
 20
75.6
 11
2.15337
 21
81
  0
LINE
  8
0
 10
2.15337
 20
81
 11
12.8466
 21
81
  0
LINE
  8
0
 10
12.8466
 20
81
 11
12.8466
 21
75.6
  0
LINE
  8
0
 10
12.8466
 20
75.6
 11
2.15337
 21
75.6
  0
LINE
  8
0
 10
-57.8466
 20
75.6
 11
-57.8466
 21
81
  0
LINE
  8
0
 10
-57.8466
 20
81
 11
-47.1534
 21
81
  0
LINE
  8
0
 10
-47.1534
 20
81
 11
-47.1534
 21
75.6
  0
LINE
  8
0
 10
-47.1534
 20
75.6
 11
-57.8466
 21
75.6
  0
LINE
  8
0
 10
32.1534
 20
75.6
 11
32.1534
 21
81
  0
LINE
  8
0
 10
32.1534
 20
81
 11
42.8466
 21
81
  0
LINE
  8
0
 10
42.8466
 20
81
 11
42.8466
 21
75.6
  0
LINE
  8
0
 10
42.8466
 20
75.6
 11
32.1534
 21
75.6
  0
LINE
  8
0
 10
17.1534
 20
75.6
 11
17.1534
 21
81
  0
LINE
  8
0
 10
17.1534
 20
81
 11
27.8466
 21
81
  0
LINE
  8
0
 10
27.8466
 20
81
 11
27.8466
 21
75.6
  0
LINE
  8
0
 10
27.8466
 20
75.6
 11
17.1534
 21
75.6
  0
LINE
  8
0
 10
-27.8466
 20
75.6
 11
-27.8466
 21
81
  0
LINE
  8
0
 10
-27.8466
 20
81
 11
-17.1534
 21
81
  0
LINE
  8
0
 10
-17.1534
 20
81
 11
-17.1534
 21
75.6
  0
LINE
  8
0
 10
-17.1534
 20
75.6
 11
-27.8466
 21
75.6
  0
LINE
  8
0
 10
-12.8466
 20
75.6
 11
-12.8466
 21
81
  0
LINE
  8
0
 10
-12.8466
 20
81
 11
-2.15337
 21
81
  0
LINE
  8
0
 10
-2.15337
 20
81
 11
-2.15337
 21
75.6
  0
LINE
  8
0
 10
-2.15337
 20
75.6
 11
-12.8466
 21
75.6
  0
LINE
  8
0
 10
-55.0307
 20
51.6
 11
-57.8466
 21
51.6
  0
LINE
  8
0
 10
-57.8466
 20
51.6
 11
-57.8466
 21
57
  0
LINE
  8
0
 10
-57.8466
 20
57
 11
-55.0307
 21
57
  0
LINE
  8
0
 10
-55.0307
 20
57
 11
-55.0307
 21
59.9
  0
LINE
  8
0
 10
-55.0307
 20
59.9
 11
-55.1289
 21
60.0547
  0
LINE
  8
0
 10
-55.1289
 20
60.0547
 11
-55.2893
 21
60.3956
  0
LINE
  8
0
 10
-55.2893
 20
60.3956
 11
-55.4057
 21
60.7539
  0
LINE
  8
0
 10
-55.4057
 20
60.7539
 11
-55.4763
 21
61.124
  0
LINE
  8
0
 10
-55.4763
 20
61.124
 11
-55.5
 21
61.5
  0
LINE
  8
0
 10
-55.5
 20
61.5
 11
-55.4763
 21
61.876
  0
LINE
  8
0
 10
-55.4763
 20
61.876
 11
-55.4057
 21
62.2461
  0
LINE
  8
0
 10
-55.4057
 20
62.2461
 11
-55.2893
 21
62.6044
  0
LINE
  8
0
 10
-55.2893
 20
62.6044
 11
-55.1289
 21
62.9453
  0
LINE
  8
0
 10
-55.1289
 20
62.9453
 11
-54.927
 21
63.2634
  0
LINE
  8
0
 10
-54.927
 20
63.2634
 11
-54.6869
 21
63.5536
  0
LINE
  8
0
 10
-54.6869
 20
63.5536
 11
-54.4123
 21
63.8115
  0
LINE
  8
0
 10
-54.4123
 20
63.8115
 11
-54.1075
 21
64.033
  0
LINE
  8
0
 10
-54.1075
 20
64.033
 11
-53.7773
 21
64.2145
  0
LINE
  8
0
 10
-53.7773
 20
64.2145
 11
-53.427
 21
64.3532
  0
LINE
  8
0
 10
-53.427
 20
64.3532
 11
-53.0621
 21
64.4469
  0
LINE
  8
0
 10
-53.0621
 20
64.4469
 11
-52.6884
 21
64.4941
  0
LINE
  8
0
 10
-52.6884
 20
64.4941
 11
-52.3116
 21
64.4941
  0
LINE
  8
0
 10
-52.3116
 20
64.4941
 11
-51.9379
 21
64.4469
  0
LINE
  8
0
 10
-51.9379
 20
64.4469
 11
-51.5729
 21
64.3532
  0
LINE
  8
0
 10
-51.5729
 20
64.3532
 11
-51.2227
 21
64.2145
  0
LINE
  8
0
 10
-51.2227
 20
64.2145
 11
-50.8925
 21
64.033
  0
LINE
  8
0
 10
-50.8925
 20
64.033
 11
-50.5877
 21
63.8115
  0
LINE
  8
0
 10
-50.5877
 20
63.8115
 11
-50.3131
 21
63.5536
  0
LINE
  8
0
 10
-50.3131
 20
63.5536
 11
-50.0729
 21
63.2634
  0
LINE
  8
0
 10
-50.0729
 20
63.2634
 11
-49.8711
 21
62.9453
  0
LINE
  8
0
 10
-49.8711
 20
62.9453
 11
-49.7107
 21
62.6044
  0
LINE
  8
0
 10
-49.7107
 20
62.6044
 11
-49.5942
 21
62.2461
  0
LINE
  8
0
 10
-49.5942
 20
62.2461
 11
-49.5237
 21
61.876
  0
LINE
  8
0
 10
-49.5237
 20
61.876
 11
-49.5
 21
61.5
  0
LINE
  8
0
 10
-49.5
 20
61.5
 11
-49.5237
 21
61.124
  0
LINE
  8
0
 10
-49.5237
 20
61.124
 11
-49.5942
 21
60.7539
  0
LINE
  8
0
 10
-49.5942
 20
60.7539
 11
-49.7107
 21
60.3956
  0
LINE
  8
0
 10
-49.7107
 20
60.3956
 11
-49.8711
 21
60.0547
  0
LINE
  8
0
 10
-49.8711
 20
60.0547
 11
-49.9693
 21
59.9
  0
LINE
  8
0
 10
-49.9693
 20
59.9
 11
-49.9693
 21
57
  0
LINE
  8
0
 10
-49.9693
 20
57
 11
-47.1534
 21
57
  0
LINE
  8
0
 10
-47.1534
 20
57
 11
-47.1534
 21
51.6
  0
LINE
  8
0
 10
-47.1534
 20
51.6
 11
-49.9693
 21
51.6
  0
LINE
  8
0
 10
-49.9693
 20
51.6
 11
-49.9693
 21
48
  0
LINE
  8
0
 10
-49.9693
 20
48
 11
-40.0307
 21
48
  0
LINE
  8
0
 10
-40.0307
 20
48
 11
-40.0307
 21
51.6
  0
LINE
  8
0
 10
-40.0307
 20
51.6
 11
-42.8466
 21
51.6
  0
LINE
  8
0
 10
-42.8466
 20
51.6
 11
-42.8466
 21
57
  0
LINE
  8
0
 10
-42.8466
 20
57
 11
-40.0307
 21
57
  0
LINE
  8
0
 10
-40.0307
 20
57
 11
-40.0307
 21
59.9
  0
LINE
  8
0
 10
-40.0307
 20
59.9
 11
-40.1289
 21
60.0547
  0
LINE
  8
0
 10
-40.1289
 20
60.0547
 11
-40.2893
 21
60.3956
  0
LINE
  8
0
 10
-40.2893
 20
60.3956
 11
-40.4057
 21
60.7539
  0
LINE
  8
0
 10
-40.4057
 20
60.7539
 11
-40.4763
 21
61.124
  0
LINE
  8
0
 10
-40.4763
 20
61.124
 11
-40.5
 21
61.5
  0
LINE
  8
0
 10
-40.5
 20
61.5
 11
-40.4763
 21
61.876
  0
LINE
  8
0
 10
-40.4763
 20
61.876
 11
-40.4057
 21
62.2461
  0
LINE
  8
0
 10
-40.4057
 20
62.2461
 11
-40.2893
 21
62.6044
  0
LINE
  8
0
 10
-40.2893
 20
62.6044
 11
-40.1289
 21
62.9453
  0
LINE
  8
0
 10
-40.1289
 20
62.9453
 11
-39.927
 21
63.2634
  0
LINE
  8
0
 10
-39.927
 20
63.2634
 11
-39.6869
 21
63.5536
  0
LINE
  8
0
 10
-39.6869
 20
63.5536
 11
-39.4123
 21
63.8115
  0
LINE
  8
0
 10
-39.4123
 20
63.8115
 11
-39.1075
 21
64.033
  0
LINE
  8
0
 10
-39.1075
 20
64.033
 11
-38.7773
 21
64.2145
  0
LINE
  8
0
 10
-38.7773
 20
64.2145
 11
-38.427
 21
64.3532
  0
LINE
  8
0
 10
-38.427
 20
64.3532
 11
-38.0621
 21
64.4469
  0
LINE
  8
0
 10
-38.0621
 20
64.4469
 11
-37.6884
 21
64.4941
  0
LINE
  8
0
 10
-37.6884
 20
64.4941
 11
-37.3116
 21
64.4941
  0
LINE
  8
0
 10
-37.3116
 20
64.4941
 11
-36.9379
 21
64.4469
  0
LINE
  8
0
 10
-36.9379
 20
64.4469
 11
-36.5729
 21
64.3532
  0
LINE
  8
0
 10
-36.5729
 20
64.3532
 11
-36.2227
 21
64.2145
  0
LINE
  8
0
 10
-36.2227
 20
64.2145
 11
-35.8925
 21
64.033
  0
LINE
  8
0
 10
-35.8925
 20
64.033
 11
-35.5877
 21
63.8115
  0
LINE
  8
0
 10
-35.5877
 20
63.8115
 11
-35.3131
 21
63.5536
  0
LINE
  8
0
 10
-35.3131
 20
63.5536
 11
-35.0729
 21
63.2634
  0
LINE
  8
0
 10
-35.0729
 20
63.2634
 11
-34.8711
 21
62.9453
  0
LINE
  8
0
 10
-34.8711
 20
62.9453
 11
-34.7107
 21
62.6044
  0
LINE
  8
0
 10
-34.7107
 20
62.6044
 11
-34.5942
 21
62.2461
  0
LINE
  8
0
 10
-34.5942
 20
62.2461
 11
-34.5237
 21
61.876
  0
LINE
  8
0
 10
-34.5237
 20
61.876
 11
-34.5
 21
61.5
  0
LINE
  8
0
 10
-34.5
 20
61.5
 11
-34.5237
 21
61.124
  0
LINE
  8
0
 10
-34.5237
 20
61.124
 11
-34.5942
 21
60.7539
  0
LINE
  8
0
 10
-34.5942
 20
60.7539
 11
-34.7107
 21
60.3956
  0
LINE
  8
0
 10
-34.7107
 20
60.3956
 11
-34.8711
 21
60.0547
  0
LINE
  8
0
 10
-34.8711
 20
60.0547
 11
-34.9693
 21
59.9
  0
LINE
  8
0
 10
-34.9693
 20
59.9
 11
-34.9693
 21
57
  0
LINE
  8
0
 10
-34.9693
 20
57
 11
-32.1534
 21
57
  0
LINE
  8
0
 10
-32.1534
 20
57
 11
-32.1534
 21
51.6
  0
LINE
  8
0
 10
-32.1534
 20
51.6
 11
-34.9693
 21
51.6
  0
LINE
  8
0
 10
-34.9693
 20
51.6
 11
-34.9693
 21
48
  0
LINE
  8
0
 10
-34.9693
 20
48
 11
-25.0307
 21
48
  0
LINE
  8
0
 10
-25.0307
 20
48
 11
-25.0307
 21
51.6
  0
LINE
  8
0
 10
-25.0307
 20
51.6
 11
-27.8466
 21
51.6
  0
LINE
  8
0
 10
-27.8466
 20
51.6
 11
-27.8466
 21
57
  0
LINE
  8
0
 10
-27.8466
 20
57
 11
-25.0307
 21
57
  0
LINE
  8
0
 10
-25.0307
 20
57
 11
-25.0307
 21
59.9
  0
LINE
  8
0
 10
-25.0307
 20
59.9
 11
-25.1289
 21
60.0547
  0
LINE
  8
0
 10
-25.1289
 20
60.0547
 11
-25.2893
 21
60.3956
  0
LINE
  8
0
 10
-25.2893
 20
60.3956
 11
-25.4057
 21
60.7539
  0
LINE
  8
0
 10
-25.4057
 20
60.7539
 11
-25.4763
 21
61.124
  0
LINE
  8
0
 10
-25.4763
 20
61.124
 11
-25.5
 21
61.5
  0
LINE
  8
0
 10
-25.5
 20
61.5
 11
-25.4763
 21
61.876
  0
LINE
  8
0
 10
-25.4763
 20
61.876
 11
-25.4057
 21
62.2461
  0
LINE
  8
0
 10
-25.4057
 20
62.2461
 11
-25.2893
 21
62.6044
  0
LINE
  8
0
 10
-25.2893
 20
62.6044
 11
-25.1289
 21
62.9453
  0
LINE
  8
0
 10
-25.1289
 20
62.9453
 11
-24.927
 21
63.2634
  0
LINE
  8
0
 10
-24.927
 20
63.2634
 11
-24.6869
 21
63.5536
  0
LINE
  8
0
 10
-24.6869
 20
63.5536
 11
-24.4123
 21
63.8115
  0
LINE
  8
0
 10
-24.4123
 20
63.8115
 11
-24.1075
 21
64.033
  0
LINE
  8
0
 10
-24.1075
 20
64.033
 11
-23.7773
 21
64.2145
  0
LINE
  8
0
 10
-23.7773
 20
64.2145
 11
-23.427
 21
64.3532
  0
LINE
  8
0
 10
-23.427
 20
64.3532
 11
-23.0621
 21
64.4469
  0
LINE
  8
0
 10
-23.0621
 20
64.4469
 11
-22.6884
 21
64.4941
  0
LINE
  8
0
 10
-22.6884
 20
64.4941
 11
-22.3116
 21
64.4941
  0
LINE
  8
0
 10
-22.3116
 20
64.4941
 11
-21.9379
 21
64.4469
  0
LINE
  8
0
 10
-21.9379
 20
64.4469
 11
-21.5729
 21
64.3532
  0
LINE
  8
0
 10
-21.5729
 20
64.3532
 11
-21.2227
 21
64.2145
  0
LINE
  8
0
 10
-21.2227
 20
64.2145
 11
-20.8925
 21
64.033
  0
LINE
  8
0
 10
-20.8925
 20
64.033
 11
-20.5877
 21
63.8115
  0
LINE
  8
0
 10
-20.5877
 20
63.8115
 11
-20.3131
 21
63.5536
  0
LINE
  8
0
 10
-20.3131
 20
63.5536
 11
-20.0729
 21
63.2634
  0
LINE
  8
0
 10
-20.0729
 20
63.2634
 11
-19.8711
 21
62.9453
  0
LINE
  8
0
 10
-19.8711
 20
62.9453
 11
-19.7107
 21
62.6044
  0
LINE
  8
0
 10
-19.7107
 20
62.6044
 11
-19.5942
 21
62.2461
  0
LINE
  8
0
 10
-19.5942
 20
62.2461
 11
-19.5237
 21
61.876
  0
LINE
  8
0
 10
-19.5237
 20
61.876
 11
-19.5
 21
61.5
  0
LINE
  8
0
 10
-19.5
 20
61.5
 11
-19.5237
 21
61.124
  0
LINE
  8
0
 10
-19.5237
 20
61.124
 11
-19.5942
 21
60.7539
  0
LINE
  8
0
 10
-19.5942
 20
60.7539
 11
-19.7107
 21
60.3956
  0
LINE
  8
0
 10
-19.7107
 20
60.3956
 11
-19.8711
 21
60.0547
  0
LINE
  8
0
 10
-19.8711
 20
60.0547
 11
-19.9693
 21
59.9
  0
LINE
  8
0
 10
-19.9693
 20
59.9
 11
-19.9693
 21
57
  0
LINE
  8
0
 10
-19.9693
 20
57
 11
-17.1534
 21
57
  0
LINE
  8
0
 10
-17.1534
 20
57
 11
-17.1534
 21
51.6
  0
LINE
  8
0
 10
-17.1534
 20
51.6
 11
-19.9693
 21
51.6
  0
LINE
  8
0
 10
-19.9693
 20
51.6
 11
-19.9693
 21
48
  0
LINE
  8
0
 10
-19.9693
 20
48
 11
-10.0307
 21
48
  0
LINE
  8
0
 10
-10.0307
 20
48
 11
-10.0307
 21
51.6
  0
LINE
  8
0
 10
-10.0307
 20
51.6
 11
-12.8466
 21
51.6
  0
LINE
  8
0
 10
-12.8466
 20
51.6
 11
-12.8466
 21
57
  0
LINE
  8
0
 10
-12.8466
 20
57
 11
-10.0307
 21
57
  0
LINE
  8
0
 10
-10.0307
 20
57
 11
-10.0307
 21
59.9
  0
LINE
  8
0
 10
-10.0307
 20
59.9
 11
-10.1289
 21
60.0547
  0
LINE
  8
0
 10
-10.1289
 20
60.0547
 11
-10.2893
 21
60.3956
  0
LINE
  8
0
 10
-10.2893
 20
60.3956
 11
-10.4057
 21
60.7539
  0
LINE
  8
0
 10
-10.4057
 20
60.7539
 11
-10.4763
 21
61.124
  0
LINE
  8
0
 10
-10.4763
 20
61.124
 11
-10.5
 21
61.5
  0
LINE
  8
0
 10
-10.5
 20
61.5
 11
-10.4763
 21
61.876
  0
LINE
  8
0
 10
-10.4763
 20
61.876
 11
-10.4057
 21
62.2461
  0
LINE
  8
0
 10
-10.4057
 20
62.2461
 11
-10.2893
 21
62.6044
  0
LINE
  8
0
 10
-10.2893
 20
62.6044
 11
-10.1289
 21
62.9453
  0
LINE
  8
0
 10
-10.1289
 20
62.9453
 11
-9.92705
 21
63.2634
  0
LINE
  8
0
 10
-9.92705
 20
63.2634
 11
-9.6869
 21
63.5536
  0
LINE
  8
0
 10
-9.6869
 20
63.5536
 11
-9.41226
 21
63.8115
  0
LINE
  8
0
 10
-9.41226
 20
63.8115
 11
-9.10747
 21
64.033
  0
LINE
  8
0
 10
-9.10747
 20
64.033
 11
-8.77733
 21
64.2145
  0
LINE
  8
0
 10
-8.77733
 20
64.2145
 11
-8.42705
 21
64.3532
  0
LINE
  8
0
 10
-8.42705
 20
64.3532
 11
-8.06213
 21
64.4469
  0
LINE
  8
0
 10
-8.06213
 20
64.4469
 11
-7.68837
 21
64.4941
  0
LINE
  8
0
 10
-7.68837
 20
64.4941
 11
-7.31161
 21
64.4941
  0
LINE
  8
0
 10
-7.31161
 20
64.4941
 11
-6.93785
 21
64.4469
  0
LINE
  8
0
 10
-6.93785
 20
64.4469
 11
-6.57294
 21
64.3532
  0
LINE
  8
0
 10
-6.57294
 20
64.3532
 11
-6.22266
 21
64.2145
  0
LINE
  8
0
 10
-6.22266
 20
64.2145
 11
-5.89252
 21
64.033
  0
LINE
  8
0
 10
-5.89252
 20
64.033
 11
-5.58772
 21
63.8115
  0
LINE
  8
0
 10
-5.58772
 20
63.8115
 11
-5.31308
 21
63.5536
  0
LINE
  8
0
 10
-5.31308
 20
63.5536
 11
-5.07294
 21
63.2634
  0
LINE
  8
0
 10
-5.07294
 20
63.2634
 11
-4.87108
 21
62.9453
  0
LINE
  8
0
 10
-4.87108
 20
62.9453
 11
-4.71066
 21
62.6044
  0
LINE
  8
0
 10
-4.71066
 20
62.6044
 11
-4.59424
 21
62.2461
  0
LINE
  8
0
 10
-4.59424
 20
62.2461
 11
-4.52365
 21
61.876
  0
LINE
  8
0
 10
-4.52365
 20
61.876
 11
-4.5
 21
61.5
  0
LINE
  8
0
 10
-4.5
 20
61.5
 11
-4.52365
 21
61.124
  0
LINE
  8
0
 10
-4.52365
 20
61.124
 11
-4.59424
 21
60.7539
  0
LINE
  8
0
 10
-4.59424
 20
60.7539
 11
-4.71066
 21
60.3956
  0
LINE
  8
0
 10
-4.71066
 20
60.3956
 11
-4.87108
 21
60.0547
  0
LINE
  8
0
 10
-4.87108
 20
60.0547
 11
-4.96927
 21
59.9
  0
LINE
  8
0
 10
-4.96927
 20
59.9
 11
-4.96927
 21
57
  0
LINE
  8
0
 10
-4.96927
 20
57
 11
-2.15337
 21
57
  0
LINE
  8
0
 10
-2.15337
 20
57
 11
-2.15337
 21
51.6
  0
LINE
  8
0
 10
-2.15337
 20
51.6
 11
-4.96927
 21
51.6
  0
LINE
  8
0
 10
-4.96927
 20
51.6
 11
-4.96927
 21
48
  0
LINE
  8
0
 10
-4.96927
 20
48
 11
4.96927
 21
48
  0
LINE
  8
0
 10
4.96927
 20
48
 11
4.96927
 21
51.6
  0
LINE
  8
0
 10
4.96927
 20
51.6
 11
2.15337
 21
51.6
  0
LINE
  8
0
 10
2.15337
 20
51.6
 11
2.15337
 21
57
  0
LINE
  8
0
 10
2.15337
 20
57
 11
4.96927
 21
57
  0
LINE
  8
0
 10
4.96927
 20
57
 11
4.96927
 21
59.9
  0
LINE
  8
0
 10
4.96927
 20
59.9
 11
4.87108
 21
60.0547
  0
LINE
  8
0
 10
4.87108
 20
60.0547
 11
4.71066
 21
60.3956
  0
LINE
  8
0
 10
4.71066
 20
60.3956
 11
4.59424
 21
60.7539
  0
LINE
  8
0
 10
4.59424
 20
60.7539
 11
4.52365
 21
61.124
  0
LINE
  8
0
 10
4.52365
 20
61.124
 11
4.5
 21
61.5
  0
LINE
  8
0
 10
4.5
 20
61.5
 11
4.52365
 21
61.876
  0
LINE
  8
0
 10
4.52365
 20
61.876
 11
4.59424
 21
62.2461
  0
LINE
  8
0
 10
4.59424
 20
62.2461
 11
4.71066
 21
62.6044
  0
LINE
  8
0
 10
4.71066
 20
62.6044
 11
4.87108
 21
62.9453
  0
LINE
  8
0
 10
4.87108
 20
62.9453
 11
5.07294
 21
63.2634
  0
LINE
  8
0
 10
5.07294
 20
63.2634
 11
5.31308
 21
63.5536
  0
LINE
  8
0
 10
5.31308
 20
63.5536
 11
5.58772
 21
63.8115
  0
LINE
  8
0
 10
5.58772
 20
63.8115
 11
5.89252
 21
64.033
  0
LINE
  8
0
 10
5.89252
 20
64.033
 11
6.22266
 21
64.2145
  0
LINE
  8
0
 10
6.22266
 20
64.2145
 11
6.57294
 21
64.3532
  0
LINE
  8
0
 10
6.57294
 20
64.3532
 11
6.93785
 21
64.4469
  0
LINE
  8
0
 10
6.93785
 20
64.4469
 11
7.31161
 21
64.4941
  0
LINE
  8
0
 10
7.31161
 20
64.4941
 11
7.68837
 21
64.4941
  0
LINE
  8
0
 10
7.68837
 20
64.4941
 11
8.06213
 21
64.4469
  0
LINE
  8
0
 10
8.06213
 20
64.4469
 11
8.42705
 21
64.3532
  0
LINE
  8
0
 10
8.42705
 20
64.3532
 11
8.77733
 21
64.2145
  0
LINE
  8
0
 10
8.77733
 20
64.2145
 11
9.10747
 21
64.033
  0
LINE
  8
0
 10
9.10747
 20
64.033
 11
9.41226
 21
63.8115
  0
LINE
  8
0
 10
9.41226
 20
63.8115
 11
9.6869
 21
63.5536
  0
LINE
  8
0
 10
9.6869
 20
63.5536
 11
9.92705
 21
63.2634
  0
LINE
  8
0
 10
9.92705
 20
63.2634
 11
10.1289
 21
62.9453
  0
LINE
  8
0
 10
10.1289
 20
62.9453
 11
10.2893
 21
62.6044
  0
LINE
  8
0
 10
10.2893
 20
62.6044
 11
10.4057
 21
62.2461
  0
LINE
  8
0
 10
10.4057
 20
62.2461
 11
10.4763
 21
61.876
  0
LINE
  8
0
 10
10.4763
 20
61.876
 11
10.5
 21
61.5
  0
LINE
  8
0
 10
10.5
 20
61.5
 11
10.4763
 21
61.124
  0
LINE
  8
0
 10
10.4763
 20
61.124
 11
10.4057
 21
60.7539
  0
LINE
  8
0
 10
10.4057
 20
60.7539
 11
10.2893
 21
60.3956
  0
LINE
  8
0
 10
10.2893
 20
60.3956
 11
10.1289
 21
60.0547
  0
LINE
  8
0
 10
10.1289
 20
60.0547
 11
10.0307
 21
59.9
  0
LINE
  8
0
 10
10.0307
 20
59.9
 11
10.0307
 21
57
  0
LINE
  8
0
 10
10.0307
 20
57
 11
12.8466
 21
57
  0
LINE
  8
0
 10
12.8466
 20
57
 11
12.8466
 21
51.6
  0
LINE
  8
0
 10
12.8466
 20
51.6
 11
10.0307
 21
51.6
  0
LINE
  8
0
 10
10.0307
 20
51.6
 11
10.0307
 21
48
  0
LINE
  8
0
 10
10.0307
 20
48
 11
19.9693
 21
48
  0
LINE
  8
0
 10
19.9693
 20
48
 11
19.9693
 21
51.6
  0
LINE
  8
0
 10
19.9693
 20
51.6
 11
17.1534
 21
51.6
  0
LINE
  8
0
 10
17.1534
 20
51.6
 11
17.1534
 21
57
  0
LINE
  8
0
 10
17.1534
 20
57
 11
19.9693
 21
57
  0
LINE
  8
0
 10
19.9693
 20
57
 11
19.9693
 21
59.9
  0
LINE
  8
0
 10
19.9693
 20
59.9
 11
19.8711
 21
60.0547
  0
LINE
  8
0
 10
19.8711
 20
60.0547
 11
19.7107
 21
60.3956
  0
LINE
  8
0
 10
19.7107
 20
60.3956
 11
19.5942
 21
60.7539
  0
LINE
  8
0
 10
19.5942
 20
60.7539
 11
19.5237
 21
61.124
  0
LINE
  8
0
 10
19.5237
 20
61.124
 11
19.5
 21
61.5
  0
LINE
  8
0
 10
19.5
 20
61.5
 11
19.5237
 21
61.876
  0
LINE
  8
0
 10
19.5237
 20
61.876
 11
19.5942
 21
62.2461
  0
LINE
  8
0
 10
19.5942
 20
62.2461
 11
19.7107
 21
62.6044
  0
LINE
  8
0
 10
19.7107
 20
62.6044
 11
19.8711
 21
62.9453
  0
LINE
  8
0
 10
19.8711
 20
62.9453
 11
20.0729
 21
63.2634
  0
LINE
  8
0
 10
20.0729
 20
63.2634
 11
20.3131
 21
63.5536
  0
LINE
  8
0
 10
20.3131
 20
63.5536
 11
20.5877
 21
63.8115
  0
LINE
  8
0
 10
20.5877
 20
63.8115
 11
20.8925
 21
64.033
  0
LINE
  8
0
 10
20.8925
 20
64.033
 11
21.2227
 21
64.2145
  0
LINE
  8
0
 10
21.2227
 20
64.2145
 11
21.5729
 21
64.3532
  0
LINE
  8
0
 10
21.5729
 20
64.3532
 11
21.9379
 21
64.4469
  0
LINE
  8
0
 10
21.9379
 20
64.4469
 11
22.3116
 21
64.4941
  0
LINE
  8
0
 10
22.3116
 20
64.4941
 11
22.6884
 21
64.4941
  0
LINE
  8
0
 10
22.6884
 20
64.4941
 11
23.0621
 21
64.4469
  0
LINE
  8
0
 10
23.0621
 20
64.4469
 11
23.427
 21
64.3532
  0
LINE
  8
0
 10
23.427
 20
64.3532
 11
23.7773
 21
64.2145
  0
LINE
  8
0
 10
23.7773
 20
64.2145
 11
24.1075
 21
64.033
  0
LINE
  8
0
 10
24.1075
 20
64.033
 11
24.4123
 21
63.8115
  0
LINE
  8
0
 10
24.4123
 20
63.8115
 11
24.6869
 21
63.5536
  0
LINE
  8
0
 10
24.6869
 20
63.5536
 11
24.927
 21
63.2634
  0
LINE
  8
0
 10
24.927
 20
63.2634
 11
25.1289
 21
62.9453
  0
LINE
  8
0
 10
25.1289
 20
62.9453
 11
25.2893
 21
62.6044
  0
LINE
  8
0
 10
25.2893
 20
62.6044
 11
25.4057
 21
62.2461
  0
LINE
  8
0
 10
25.4057
 20
62.2461
 11
25.4763
 21
61.876
  0
LINE
  8
0
 10
25.4763
 20
61.876
 11
25.5
 21
61.5
  0
LINE
  8
0
 10
25.5
 20
61.5
 11
25.4763
 21
61.124
  0
LINE
  8
0
 10
25.4763
 20
61.124
 11
25.4057
 21
60.7539
  0
LINE
  8
0
 10
25.4057
 20
60.7539
 11
25.2893
 21
60.3956
  0
LINE
  8
0
 10
25.2893
 20
60.3956
 11
25.1289
 21
60.0547
  0
LINE
  8
0
 10
25.1289
 20
60.0547
 11
25.0307
 21
59.9
  0
LINE
  8
0
 10
25.0307
 20
59.9
 11
25.0307
 21
57
  0
LINE
  8
0
 10
25.0307
 20
57
 11
27.8466
 21
57
  0
LINE
  8
0
 10
27.8466
 20
57
 11
27.8466
 21
51.6
  0
LINE
  8
0
 10
27.8466
 20
51.6
 11
25.0307
 21
51.6
  0
LINE
  8
0
 10
25.0307
 20
51.6
 11
25.0307
 21
48
  0
LINE
  8
0
 10
25.0307
 20
48
 11
34.9693
 21
48
  0
LINE
  8
0
 10
34.9693
 20
48
 11
34.9693
 21
51.6
  0
LINE
  8
0
 10
34.9693
 20
51.6
 11
32.1534
 21
51.6
  0
LINE
  8
0
 10
32.1534
 20
51.6
 11
32.1534
 21
57
  0
LINE
  8
0
 10
32.1534
 20
57
 11
34.9693
 21
57
  0
LINE
  8
0
 10
34.9693
 20
57
 11
34.9693
 21
59.9
  0
LINE
  8
0
 10
34.9693
 20
59.9
 11
34.8711
 21
60.0547
  0
LINE
  8
0
 10
34.8711
 20
60.0547
 11
34.7107
 21
60.3956
  0
LINE
  8
0
 10
34.7107
 20
60.3956
 11
34.5942
 21
60.7539
  0
LINE
  8
0
 10
34.5942
 20
60.7539
 11
34.5237
 21
61.124
  0
LINE
  8
0
 10
34.5237
 20
61.124
 11
34.5
 21
61.5
  0
LINE
  8
0
 10
34.5
 20
61.5
 11
34.5237
 21
61.876
  0
LINE
  8
0
 10
34.5237
 20
61.876
 11
34.5942
 21
62.2461
  0
LINE
  8
0
 10
34.5942
 20
62.2461
 11
34.7107
 21
62.6044
  0
LINE
  8
0
 10
34.7107
 20
62.6044
 11
34.8711
 21
62.9453
  0
LINE
  8
0
 10
34.8711
 20
62.9453
 11
35.0729
 21
63.2634
  0
LINE
  8
0
 10
35.0729
 20
63.2634
 11
35.3131
 21
63.5536
  0
LINE
  8
0
 10
35.3131
 20
63.5536
 11
35.5877
 21
63.8115
  0
LINE
  8
0
 10
35.5877
 20
63.8115
 11
35.8925
 21
64.033
  0
LINE
  8
0
 10
35.8925
 20
64.033
 11
36.2227
 21
64.2145
  0
LINE
  8
0
 10
36.2227
 20
64.2145
 11
36.5729
 21
64.3532
  0
LINE
  8
0
 10
36.5729
 20
64.3532
 11
36.9379
 21
64.4469
  0
LINE
  8
0
 10
36.9379
 20
64.4469
 11
37.3116
 21
64.4941
  0
LINE
  8
0
 10
37.3116
 20
64.4941
 11
37.6884
 21
64.4941
  0
LINE
  8
0
 10
37.6884
 20
64.4941
 11
38.0621
 21
64.4469
  0
LINE
  8
0
 10
38.0621
 20
64.4469
 11
38.427
 21
64.3532
  0
LINE
  8
0
 10
38.427
 20
64.3532
 11
38.7773
 21
64.2145
  0
LINE
  8
0
 10
38.7773
 20
64.2145
 11
39.1075
 21
64.033
  0
LINE
  8
0
 10
39.1075
 20
64.033
 11
39.4123
 21
63.8115
  0
LINE
  8
0
 10
39.4123
 20
63.8115
 11
39.6869
 21
63.5536
  0
LINE
  8
0
 10
39.6869
 20
63.5536
 11
39.927
 21
63.2634
  0
LINE
  8
0
 10
39.927
 20
63.2634
 11
40.1289
 21
62.9453
  0
LINE
  8
0
 10
40.1289
 20
62.9453
 11
40.2893
 21
62.6044
  0
LINE
  8
0
 10
40.2893
 20
62.6044
 11
40.4057
 21
62.2461
  0
LINE
  8
0
 10
40.4057
 20
62.2461
 11
40.4763
 21
61.876
  0
LINE
  8
0
 10
40.4763
 20
61.876
 11
40.5
 21
61.5
  0
LINE
  8
0
 10
40.5
 20
61.5
 11
40.4763
 21
61.124
  0
LINE
  8
0
 10
40.4763
 20
61.124
 11
40.4057
 21
60.7539
  0
LINE
  8
0
 10
40.4057
 20
60.7539
 11
40.2893
 21
60.3956
  0
LINE
  8
0
 10
40.2893
 20
60.3956
 11
40.1289
 21
60.0547
  0
LINE
  8
0
 10
40.1289
 20
60.0547
 11
40.0307
 21
59.9
  0
LINE
  8
0
 10
40.0307
 20
59.9
 11
40.0307
 21
57
  0
LINE
  8
0
 10
40.0307
 20
57
 11
42.8466
 21
57
  0
LINE
  8
0
 10
42.8466
 20
57
 11
42.8466
 21
51.6
  0
LINE
  8
0
 10
42.8466
 20
51.6
 11
40.0307
 21
51.6
  0
LINE
  8
0
 10
40.0307
 20
51.6
 11
40.0307
 21
48
  0
LINE
  8
0
 10
40.0307
 20
48
 11
49.9693
 21
48
  0
LINE
  8
0
 10
49.9693
 20
48
 11
49.9693
 21
51.6
  0
LINE
  8
0
 10
49.9693
 20
51.6
 11
47.1534
 21
51.6
  0
LINE
  8
0
 10
47.1534
 20
51.6
 11
47.1534
 21
57
  0
LINE
  8
0
 10
47.1534
 20
57
 11
49.9693
 21
57
  0
LINE
  8
0
 10
49.9693
 20
57
 11
49.9693
 21
59.9
  0
LINE
  8
0
 10
49.9693
 20
59.9
 11
49.8711
 21
60.0547
  0
LINE
  8
0
 10
49.8711
 20
60.0547
 11
49.7107
 21
60.3956
  0
LINE
  8
0
 10
49.7107
 20
60.3956
 11
49.5942
 21
60.7539
  0
LINE
  8
0
 10
49.5942
 20
60.7539
 11
49.5237
 21
61.124
  0
LINE
  8
0
 10
49.5237
 20
61.124
 11
49.5
 21
61.5
  0
LINE
  8
0
 10
49.5
 20
61.5
 11
49.5237
 21
61.876
  0
LINE
  8
0
 10
49.5237
 20
61.876
 11
49.5942
 21
62.2461
  0
LINE
  8
0
 10
49.5942
 20
62.2461
 11
49.7107
 21
62.6044
  0
LINE
  8
0
 10
49.7107
 20
62.6044
 11
49.8711
 21
62.9453
  0
LINE
  8
0
 10
49.8711
 20
62.9453
 11
50.0729
 21
63.2634
  0
LINE
  8
0
 10
50.0729
 20
63.2634
 11
50.3131
 21
63.5536
  0
LINE
  8
0
 10
50.3131
 20
63.5536
 11
50.5877
 21
63.8115
  0
LINE
  8
0
 10
50.5877
 20
63.8115
 11
50.8925
 21
64.033
  0
LINE
  8
0
 10
50.8925
 20
64.033
 11
51.2227
 21
64.2145
  0
LINE
  8
0
 10
51.2227
 20
64.2145
 11
51.5729
 21
64.3532
  0
LINE
  8
0
 10
51.5729
 20
64.3532
 11
51.9379
 21
64.4469
  0
LINE
  8
0
 10
51.9379
 20
64.4469
 11
52.3116
 21
64.4941
  0
LINE
  8
0
 10
52.3116
 20
64.4941
 11
52.6884
 21
64.4941
  0
LINE
  8
0
 10
52.6884
 20
64.4941
 11
53.0621
 21
64.4469
  0
LINE
  8
0
 10
53.0621
 20
64.4469
 11
53.427
 21
64.3532
  0
LINE
  8
0
 10
53.427
 20
64.3532
 11
53.7773
 21
64.2145
  0
LINE
  8
0
 10
53.7773
 20
64.2145
 11
54.1075
 21
64.033
  0
LINE
  8
0
 10
54.1075
 20
64.033
 11
54.4123
 21
63.8115
  0
LINE
  8
0
 10
54.4123
 20
63.8115
 11
54.6869
 21
63.5536
  0
LINE
  8
0
 10
54.6869
 20
63.5536
 11
54.927
 21
63.2634
  0
LINE
  8
0
 10
54.927
 20
63.2634
 11
55.1289
 21
62.9453
  0
LINE
  8
0
 10
55.1289
 20
62.9453
 11
55.2893
 21
62.6044
  0
LINE
  8
0
 10
55.2893
 20
62.6044
 11
55.4057
 21
62.2461
  0
LINE
  8
0
 10
55.4057
 20
62.2461
 11
55.4763
 21
61.876
  0
LINE
  8
0
 10
55.4763
 20
61.876
 11
55.5
 21
61.5
  0
LINE
  8
0
 10
55.5
 20
61.5
 11
55.4763
 21
61.124
  0
LINE
  8
0
 10
55.4763
 20
61.124
 11
55.4057
 21
60.7539
  0
LINE
  8
0
 10
55.4057
 20
60.7539
 11
55.2893
 21
60.3956
  0
LINE
  8
0
 10
55.2893
 20
60.3956
 11
55.1289
 21
60.0547
  0
LINE
  8
0
 10
55.1289
 20
60.0547
 11
55.0307
 21
59.9
  0
LINE
  8
0
 10
55.0307
 20
59.9
 11
55.0307
 21
57
  0
LINE
  8
0
 10
55.0307
 20
57
 11
57.8466
 21
57
  0
LINE
  8
0
 10
57.8466
 20
57
 11
57.8466
 21
51.6
  0
LINE
  8
0
 10
57.8466
 20
51.6
 11
55.0307
 21
51.6
  0
LINE
  8
0
 10
55.0307
 20
51.6
 11
55.0307
 21
48
  0
LINE
  8
0
 10
55.0307
 20
48
 11
59.5
 21
48
  0
LINE
  8
0
 10
59.5
 20
48
 11
59.5
 21
63.5
  0
LINE
  8
0
 10
59.5
 20
63.5
 11
59.4606
 21
64.1267
  0
LINE
  8
0
 10
59.4606
 20
64.1267
 11
59.3429
 21
64.7434
  0
LINE
  8
0
 10
59.3429
 20
64.7434
 11
59.1489
 21
65.3406
  0
LINE
  8
0
 10
59.1489
 20
65.3406
 11
58.8815
 21
65.9088
  0
LINE
  8
0
 10
58.8815
 20
65.9088
 11
58.5451
 21
66.4389
  0
LINE
  8
0
 10
58.5451
 20
66.4389
 11
58.1448
 21
66.9227
  0
LINE
  8
0
 10
58.1448
 20
66.9227
 11
57.6871
 21
67.3526
  0
LINE
  8
0
 10
57.6871
 20
67.3526
 11
57.1791
 21
67.7216
  0
LINE
  8
0
 10
57.1791
 20
67.7216
 11
56.6289
 21
68.0241
  0
LINE
  8
0
 10
56.6289
 20
68.0241
 11
56.0451
 21
68.2553
  0
LINE
  8
0
 10
56.0451
 20
68.2553
 11
55.4369
 21
68.4114
  0
LINE
  8
0
 10
55.4369
 20
68.4114
 11
54.8139
 21
68.4901
  0
LINE
  8
0
 10
54.8139
 20
68.4901
 11
-54.8139
 21
68.4901
  0
LINE
  8
0
 10
-54.8139
 20
68.4901
 11
-55.4369
 21
68.4114
  0
LINE
  8
0
 10
-55.4369
 20
68.4114
 11
-56.0451
 21
68.2553
  0
LINE
  8
0
 10
-56.0451
 20
68.2553
 11
-56.6289
 21
68.0241
  0
LINE
  8
0
 10
-56.6289
 20
68.0241
 11
-57.1791
 21
67.7216
  0
LINE
  8
0
 10
-57.1791
 20
67.7216
 11
-57.6871
 21
67.3526
  0
LINE
  8
0
 10
-57.6871
 20
67.3526
 11
-58.1448
 21
66.9227
  0
LINE
  8
0
 10
-58.1448
 20
66.9227
 11
-58.5451
 21
66.4389
  0
LINE
  8
0
 10
-58.5451
 20
66.4389
 11
-58.8815
 21
65.9088
  0
LINE
  8
0
 10
-58.8815
 20
65.9088
 11
-59.1489
 21
65.3406
  0
LINE
  8
0
 10
-59.1489
 20
65.3406
 11
-59.3429
 21
64.7434
  0
LINE
  8
0
 10
-59.3429
 20
64.7434
 11
-59.4606
 21
64.1267
  0
LINE
  8
0
 10
-59.4606
 20
64.1267
 11
-59.5
 21
63.5
  0
LINE
  8
0
 10
-59.5
 20
63.5
 11
-59.5
 21
48
  0
LINE
  8
0
 10
-59.5
 20
48
 11
-55.0307
 21
48
  0
LINE
  8
0
 10
-55.0307
 20
48
 11
-55.0307
 21
51.6
  0
LINE
  8
0
 10
28.3267
 20
58.6018
 11
26.6534
 21
61.5
  0
LINE
  8
0
 10
26.6534
 20
61.5
 11
28.3267
 21
64.3982
  0
LINE
  8
0
 10
28.3267
 20
64.3982
 11
31.6733
 21
64.3982
  0
LINE
  8
0
 10
31.6733
 20
64.3982
 11
33.3466
 21
61.5
  0
LINE
  8
0
 10
33.3466
 20
61.5
 11
31.6733
 21
58.6018
  0
LINE
  8
0
 10
31.6733
 20
58.6018
 11
28.3267
 21
58.6018
  0
LINE
  8
0
 10
-1.67329
 20
58.6018
 11
-3.34657
 21
61.5
  0
LINE
  8
0
 10
-3.34657
 20
61.5
 11
-1.67328
 21
64.3982
  0
LINE
  8
0
 10
-1.67328
 20
64.3982
 11
1.67329
 21
64.3982
  0
LINE
  8
0
 10
1.67329
 20
64.3982
 11
3.34657
 21
61.5
  0
LINE
  8
0
 10
3.34657
 20
61.5
 11
1.67328
 21
58.6018
  0
LINE
  8
0
 10
1.67328
 20
58.6018
 11
-1.67329
 21
58.6018
  0
LINE
  8
0
 10
13.3267
 20
58.6018
 11
11.6534
 21
61.5
  0
LINE
  8
0
 10
11.6534
 20
61.5
 11
13.3267
 21
64.3982
  0
LINE
  8
0
 10
13.3267
 20
64.3982
 11
16.6733
 21
64.3982
  0
LINE
  8
0
 10
16.6733
 20
64.3982
 11
18.3466
 21
61.5
  0
LINE
  8
0
 10
18.3466
 20
61.5
 11
16.6733
 21
58.6018
  0
LINE
  8
0
 10
16.6733
 20
58.6018
 11
13.3267
 21
58.6018
  0
LINE
  8
0
 10
-16.6733
 20
58.6018
 11
-18.3466
 21
61.5
  0
LINE
  8
0
 10
-18.3466
 20
61.5
 11
-16.6733
 21
64.3982
  0
LINE
  8
0
 10
-16.6733
 20
64.3982
 11
-13.3267
 21
64.3982
  0
LINE
  8
0
 10
-13.3267
 20
64.3982
 11
-11.6534
 21
61.5
  0
LINE
  8
0
 10
-11.6534
 20
61.5
 11
-13.3267
 21
58.6018
  0
LINE
  8
0
 10
-13.3267
 20
58.6018
 11
-16.6733
 21
58.6018
  0
LINE
  8
0
 10
-46.6733
 20
58.6018
 11
-48.3466
 21
61.5
  0
LINE
  8
0
 10
-48.3466
 20
61.5
 11
-46.6733
 21
64.3982
  0
LINE
  8
0
 10
-46.6733
 20
64.3982
 11
-43.3267
 21
64.3982
  0
LINE
  8
0
 10
-43.3267
 20
64.3982
 11
-41.6534
 21
61.5
  0
LINE
  8
0
 10
-41.6534
 20
61.5
 11
-43.3267
 21
58.6018
  0
LINE
  8
0
 10
-43.3267
 20
58.6018
 11
-46.6733
 21
58.6018
  0
LINE
  8
0
 10
43.3267
 20
58.6018
 11
41.6534
 21
61.5
  0
LINE
  8
0
 10
41.6534
 20
61.5
 11
43.3267
 21
64.3982
  0
LINE
  8
0
 10
43.3267
 20
64.3982
 11
46.6733
 21
64.3982
  0
LINE
  8
0
 10
46.6733
 20
64.3982
 11
48.3466
 21
61.5
  0
LINE
  8
0
 10
48.3466
 20
61.5
 11
46.6733
 21
58.6018
  0
LINE
  8
0
 10
46.6733
 20
58.6018
 11
43.3267
 21
58.6018
  0
LINE
  8
0
 10
-30.0784
 20
60.0029
 11
-30.0942
 21
60.0029
  0
LINE
  8
0
 10
-30.0942
 20
60.0029
 11
-30.1721
 21
60.0128
  0
LINE
  8
0
 10
-30.1721
 20
60.0128
 11
-30.2502
 21
60.021
  0
LINE
  8
0
 10
-30.2502
 20
60.021
 11
-30.2655
 21
60.0246
  0
LINE
  8
0
 10
-30.2655
 20
60.0246
 11
-30.2811
 21
60.0266
  0
LINE
  8
0
 10
-30.2811
 20
60.0266
 11
-30.3571
 21
60.0461
  0
LINE
  8
0
 10
-30.3571
 20
60.0461
 11
-30.4335
 21
60.064
  0
LINE
  8
0
 10
-30.4335
 20
60.064
 11
-30.4483
 21
60.0695
  0
LINE
  8
0
 10
-30.4483
 20
60.0695
 11
-30.4635
 21
60.0734
  0
LINE
  8
0
 10
-30.4635
 20
60.0734
 11
-30.5365
 21
60.1023
  0
LINE
  8
0
 10
-30.5365
 20
60.1023
 11
-30.6101
 21
60.1297
  0
LINE
  8
0
 10
-30.6101
 20
60.1297
 11
-30.624
 21
60.137
  0
LINE
  8
0
 10
-30.624
 20
60.137
 11
-30.6387
 21
60.1427
  0
LINE
  8
0
 10
-30.6387
 20
60.1427
 11
-30.7074
 21
60.1806
  0
LINE
  8
0
 10
-30.7074
 20
60.1806
 11
-30.777
 21
60.2169
  0
LINE
  8
0
 10
-30.777
 20
60.2169
 11
-30.7899
 21
60.2259
  0
LINE
  8
0
 10
-30.7899
 20
60.2259
 11
-30.8037
 21
60.2335
  0
LINE
  8
0
 10
-30.8037
 20
60.2335
 11
-30.8672
 21
60.2796
  0
LINE
  8
0
 10
-30.8672
 20
60.2796
 11
-30.9317
 21
60.3244
  0
LINE
  8
0
 10
-30.9317
 20
60.3244
 11
-30.9434
 21
60.335
  0
LINE
  8
0
 10
-30.9434
 20
60.335
 11
-30.9561
 21
60.3442
  0
LINE
  8
0
 10
-30.9561
 20
60.3442
 11
-31.0134
 21
60.398
  0
LINE
  8
0
 10
-31.0134
 20
60.398
 11
-31.0717
 21
60.4505
  0
LINE
  8
0
 10
-31.0717
 20
60.4505
 11
-31.082
 21
60.4624
  0
LINE
  8
0
 10
-31.082
 20
60.4624
 11
-31.0934
 21
60.4732
  0
LINE
  8
0
 10
-31.0934
 20
60.4732
 11
-31.1435
 21
60.5336
  0
LINE
  8
0
 10
-31.1435
 20
60.5336
 11
-31.1948
 21
60.5931
  0
LINE
  8
0
 10
-31.1948
 20
60.5931
 11
-31.2035
 21
60.6062
  0
LINE
  8
0
 10
-31.2035
 20
60.6062
 11
-31.2135
 21
60.6183
  0
LINE
  8
0
 10
-31.2135
 20
60.6183
 11
-31.2556
 21
60.6846
  0
LINE
  8
0
 10
-31.2556
 20
60.6846
 11
-31.299
 21
60.75
  0
LINE
  8
0
 10
-31.299
 20
60.75
 11
-31.306
 21
60.7641
  0
LINE
  8
0
 10
-31.306
 20
60.7641
 11
-31.3145
 21
60.7774
  0
LINE
  8
0
 10
-31.3145
 20
60.7774
 11
-31.3479
 21
60.8484
  0
LINE
  8
0
 10
-31.3479
 20
60.8484
 11
-31.3828
 21
60.9187
  0
LINE
  8
0
 10
-31.3828
 20
60.9187
 11
-31.388
 21
60.9336
  0
LINE
  8
0
 10
-31.388
 20
60.9336
 11
-31.3947
 21
60.9478
  0
LINE
  8
0
 10
-31.3947
 20
60.9478
 11
-31.4189
 21
61.0225
  0
LINE
  8
0
 10
-31.4189
 20
61.0225
 11
-31.4447
 21
61.0966
  0
LINE
  8
0
 10
-31.4447
 20
61.0966
 11
-31.448
 21
61.112
  0
LINE
  8
0
 10
-31.448
 20
61.112
 11
-31.4529
 21
61.127
  0
LINE
  8
0
 10
-31.4529
 20
61.127
 11
-31.4676
 21
61.2041
  0
LINE
  8
0
 10
-31.4676
 20
61.2041
 11
-31.4839
 21
61.2809
  0
LINE
  8
0
 10
-31.4839
 20
61.2809
 11
-31.4852
 21
61.2965
  0
LINE
  8
0
 10
-31.4852
 20
61.2965
 11
-31.4882
 21
61.312
  0
LINE
  8
0
 10
-31.4882
 20
61.312
 11
-31.4931
 21
61.3904
  0
LINE
  8
0
 10
-31.4931
 20
61.3904
 11
-31.4997
 21
61.4686
  0
LINE
  8
0
 10
-31.4997
 20
61.4686
 11
-31.499
 21
61.4843
  0
LINE
  8
0
 10
-31.499
 20
61.4843
 11
-31.5
 21
61.5
  0
LINE
  8
0
 10
-31.5
 20
61.5
 11
-31.4951
 21
61.5784
  0
LINE
  8
0
 10
-31.4951
 20
61.5784
 11
-31.4918
 21
61.6568
  0
LINE
  8
0
 10
-31.4918
 20
61.6568
 11
-31.4892
 21
61.6723
  0
LINE
  8
0
 10
-31.4892
 20
61.6723
 11
-31.4882
 21
61.688
  0
LINE
  8
0
 10
-31.4882
 20
61.688
 11
-31.4734
 21
61.7651
  0
LINE
  8
0
 10
-31.4734
 20
61.7651
 11
-31.4604
 21
61.8425
  0
LINE
  8
0
 10
-31.4604
 20
61.8425
 11
-31.4558
 21
61.8576
  0
LINE
  8
0
 10
-31.4558
 20
61.8576
 11
-31.4529
 21
61.873
  0
LINE
  8
0
 10
-31.4529
 20
61.873
 11
-31.4286
 21
61.9477
  0
LINE
  8
0
 10
-31.4286
 20
61.9477
 11
-31.4059
 21
62.0229
  0
LINE
  8
0
 10
-31.4059
 20
62.0229
 11
-31.3995
 21
62.0372
  0
LINE
  8
0
 10
-31.3995
 20
62.0372
 11
-31.3947
 21
62.0522
  0
LINE
  8
0
 10
-31.3947
 20
62.0522
 11
-31.3612
 21
62.1232
  0
LINE
  8
0
 10
-31.3612
 20
62.1232
 11
-31.3293
 21
62.1949
  0
LINE
  8
0
 10
-31.3293
 20
62.1949
 11
-31.3212
 21
62.2084
  0
LINE
  8
0
 10
-31.3212
 20
62.2084
 11
-31.3145
 21
62.2226
  0
LINE
  8
0
 10
-31.3145
 20
62.2226
 11
-31.2724
 21
62.2889
  0
LINE
  8
0
 10
-31.2724
 20
62.2889
 11
-31.2317
 21
62.3561
  0
LINE
  8
0
 10
-31.2317
 20
62.3561
 11
-31.2219
 21
62.3684
  0
LINE
  8
0
 10
-31.2219
 20
62.3684
 11
-31.2135
 21
62.3817
  0
LINE
  8
0
 10
-31.2135
 20
62.3817
 11
-31.1635
 21
62.4422
  0
LINE
  8
0
 10
-31.1635
 20
62.4422
 11
-31.1147
 21
62.5037
  0
LINE
  8
0
 10
-31.1147
 20
62.5037
 11
-31.1035
 21
62.5147
  0
LINE
  8
0
 10
-31.1035
 20
62.5147
 11
-31.0934
 21
62.5268
  0
LINE
  8
0
 10
-31.0934
 20
62.5268
 11
-31.0362
 21
62.5806
  0
LINE
  8
0
 10
-31.0362
 20
62.5806
 11
-30.9801
 21
62.6355
  0
LINE
  8
0
 10
-30.9801
 20
62.6355
 11
-30.9676
 21
62.645
  0
LINE
  8
0
 10
-30.9676
 20
62.645
 11
-30.9561
 21
62.6558
  0
LINE
  8
0
 10
-30.9561
 20
62.6558
 11
-30.8926
 21
62.7019
  0
LINE
  8
0
 10
-30.8926
 20
62.7019
 11
-30.8301
 21
62.7494
  0
LINE
  8
0
 10
-30.8301
 20
62.7494
 11
-30.8165
 21
62.7572
  0
LINE
  8
0
 10
-30.8165
 20
62.7572
 11
-30.8037
 21
62.7665
  0
LINE
  8
0
 10
-30.8037
 20
62.7665
 11
-30.7349
 21
62.8043
  0
LINE
  8
0
 10
-30.7349
 20
62.8043
 11
-30.6669
 21
62.8436
  0
LINE
  8
0
 10
-30.6669
 20
62.8436
 11
-30.6525
 21
62.8497
  0
LINE
  8
0
 10
-30.6525
 20
62.8497
 11
-30.6387
 21
62.8572
  0
LINE
  8
0
 10
-30.6387
 20
62.8572
 11
-30.5657
 21
62.8861
  0
LINE
  8
0
 10
-30.5657
 20
62.8861
 11
-30.4933
 21
62.9165
  0
LINE
  8
0
 10
-30.4933
 20
62.9165
 11
-30.4781
 21
62.9208
  0
LINE
  8
0
 10
-30.4781
 20
62.9208
 11
-30.4635
 21
62.9266
  0
LINE
  8
0
 10
-30.4635
 20
62.9266
 11
-30.3875
 21
62.9461
  0
LINE
  8
0
 10
-30.3875
 20
62.9461
 11
-30.3119
 21
62.9672
  0
LINE
  8
0
 10
-30.3119
 20
62.9672
 11
-30.2963
 21
62.9695
  0
LINE
  8
0
 10
-30.2963
 20
62.9695
 11
-30.2811
 21
62.9734
  0
LINE
  8
0
 10
-30.2811
 20
62.9734
 11
-30.2032
 21
62.9833
  0
LINE
  8
0
 10
-30.2032
 20
62.9833
 11
-30.1255
 21
62.9947
  0
LINE
  8
0
 10
-30.1255
 20
62.9947
 11
-30.1098
 21
62.9951
  0
LINE
  8
0
 10
-30.1098
 20
62.9951
 11
-30.0942
 21
62.997
  0
LINE
  8
0
 10
-30.0942
 20
62.997
 11
-30.0157
 21
62.997
  0
LINE
  8
0
 10
-30.0157
 20
62.997
 11
-29.9372
 21
62.9987
  0
LINE
  8
0
 10
-29.9372
 20
62.9987
 11
-29.9215
 21
62.997
  0
LINE
  8
0
 10
-29.9215
 20
62.997
 11
-29.9058
 21
62.997
  0
LINE
  8
0
 10
-29.9058
 20
62.997
 11
-29.8279
 21
62.9872
  0
LINE
  8
0
 10
-29.8279
 20
62.9872
 11
-29.7498
 21
62.979
  0
LINE
  8
0
 10
-29.7498
 20
62.979
 11
-29.7345
 21
62.9754
  0
LINE
  8
0
 10
-29.7345
 20
62.9754
 11
-29.7189
 21
62.9734
  0
LINE
  8
0
 10
-29.7189
 20
62.9734
 11
-29.6429
 21
62.9539
  0
LINE
  8
0
 10
-29.6429
 20
62.9539
 11
-29.5665
 21
62.936
  0
LINE
  8
0
 10
-29.5665
 20
62.936
 11
-29.5517
 21
62.9305
  0
LINE
  8
0
 10
-29.5517
 20
62.9305
 11
-29.5365
 21
62.9266
  0
LINE
  8
0
 10
-29.5365
 20
62.9266
 11
-29.4635
 21
62.8977
  0
LINE
  8
0
 10
-29.4635
 20
62.8977
 11
-29.3899
 21
62.8703
  0
LINE
  8
0
 10
-29.3899
 20
62.8703
 11
-29.3759
 21
62.863
  0
LINE
  8
0
 10
-29.3759
 20
62.863
 11
-29.3613
 21
62.8572
  0
LINE
  8
0
 10
-29.3613
 20
62.8572
 11
-29.2925
 21
62.8194
  0
LINE
  8
0
 10
-29.2925
 20
62.8194
 11
-29.2229
 21
62.783
  0
LINE
  8
0
 10
-29.2229
 20
62.783
 11
-29.21
 21
62.7741
  0
LINE
  8
0
 10
-29.21
 20
62.7741
 11
-29.1963
 21
62.7665
  0
LINE
  8
0
 10
-29.1963
 20
62.7665
 11
-29.1328
 21
62.7204
  0
LINE
  8
0
 10
-29.1328
 20
62.7204
 11
-29.0683
 21
62.6755
  0
LINE
  8
0
 10
-29.0683
 20
62.6755
 11
-29.0566
 21
62.665
  0
LINE
  8
0
 10
-29.0566
 20
62.665
 11
-29.0439
 21
62.6558
  0
LINE
  8
0
 10
-29.0439
 20
62.6558
 11
-28.9866
 21
62.602
  0
LINE
  8
0
 10
-28.9866
 20
62.602
 11
-28.9283
 21
62.5495
  0
LINE
  8
0
 10
-28.9283
 20
62.5495
 11
-28.918
 21
62.5376
  0
LINE
  8
0
 10
-28.918
 20
62.5376
 11
-28.9065
 21
62.5268
  0
LINE
  8
0
 10
-28.9065
 20
62.5268
 11
-28.8565
 21
62.4663
  0
LINE
  8
0
 10
-28.8565
 20
62.4663
 11
-28.8052
 21
62.4069
  0
LINE
  8
0
 10
-28.8052
 20
62.4069
 11
-28.7965
 21
62.3938
  0
LINE
  8
0
 10
-28.7965
 20
62.3938
 11
-28.7865
 21
62.3817
  0
LINE
  8
0
 10
-28.7865
 20
62.3817
 11
-28.7444
 21
62.3154
  0
LINE
  8
0
 10
-28.7444
 20
62.3154
 11
-28.701
 21
62.25
  0
LINE
  8
0
 10
-28.701
 20
62.25
 11
-28.694
 21
62.2359
  0
LINE
  8
0
 10
-28.694
 20
62.2359
 11
-28.6855
 21
62.2226
  0
LINE
  8
0
 10
-28.6855
 20
62.2226
 11
-28.6521
 21
62.1516
  0
LINE
  8
0
 10
-28.6521
 20
62.1516
 11
-28.6172
 21
62.0813
  0
LINE
  8
0
 10
-28.6172
 20
62.0813
 11
-28.612
 21
62.0664
  0
LINE
  8
0
 10
-28.612
 20
62.0664
 11
-28.6053
 21
62.0522
  0
LINE
  8
0
 10
-28.6053
 20
62.0522
 11
-28.5811
 21
61.9775
  0
LINE
  8
0
 10
-28.5811
 20
61.9775
 11
-28.5553
 21
61.9034
  0
LINE
  8
0
 10
-28.5553
 20
61.9034
 11
-28.552
 21
61.888
  0
LINE
  8
0
 10
-28.552
 20
61.888
 11
-28.5471
 21
61.873
  0
LINE
  8
0
 10
-28.5471
 20
61.873
 11
-28.5324
 21
61.7959
  0
LINE
  8
0
 10
-28.5324
 20
61.7959
 11
-28.5161
 21
61.7191
  0
LINE
  8
0
 10
-28.5161
 20
61.7191
 11
-28.5148
 21
61.7034
  0
LINE
  8
0
 10
-28.5148
 20
61.7034
 11
-28.5118
 21
61.688
  0
LINE
  8
0
 10
-28.5118
 20
61.688
 11
-28.5069
 21
61.6096
  0
LINE
  8
0
 10
-28.5069
 20
61.6096
 11
-28.5003
 21
61.5314
  0
LINE
  8
0
 10
-28.5003
 20
61.5314
 11
-28.501
 21
61.5157
  0
LINE
  8
0
 10
-28.501
 20
61.5157
 11
-28.5
 21
61.5
  0
LINE
  8
0
 10
-28.5
 20
61.5
 11
-28.5049
 21
61.4217
  0
LINE
  8
0
 10
-28.5049
 20
61.4217
 11
-28.5082
 21
61.3432
  0
LINE
  8
0
 10
-28.5082
 20
61.3432
 11
-28.5108
 21
61.3277
  0
LINE
  8
0
 10
-28.5108
 20
61.3277
 11
-28.5118
 21
61.312
  0
LINE
  8
0
 10
-28.5118
 20
61.312
 11
-28.5265
 21
61.2349
  0
LINE
  8
0
 10
-28.5265
 20
61.2349
 11
-28.5396
 21
61.1575
  0
LINE
  8
0
 10
-28.5396
 20
61.1575
 11
-28.5442
 21
61.1424
  0
LINE
  8
0
 10
-28.5442
 20
61.1424
 11
-28.5471
 21
61.127
  0
LINE
  8
0
 10
-28.5471
 20
61.127
 11
-28.5714
 21
61.0523
  0
LINE
  8
0
 10
-28.5714
 20
61.0523
 11
-28.5941
 21
60.9771
  0
LINE
  8
0
 10
-28.5941
 20
60.9771
 11
-28.6005
 21
60.9628
  0
LINE
  8
0
 10
-28.6005
 20
60.9628
 11
-28.6053
 21
60.9478
  0
LINE
  8
0
 10
-28.6053
 20
60.9478
 11
-28.6387
 21
60.8768
  0
LINE
  8
0
 10
-28.6387
 20
60.8768
 11
-28.6707
 21
60.8051
  0
LINE
  8
0
 10
-28.6707
 20
60.8051
 11
-28.6788
 21
60.7916
  0
LINE
  8
0
 10
-28.6788
 20
60.7916
 11
-28.6855
 21
60.7774
  0
LINE
  8
0
 10
-28.6855
 20
60.7774
 11
-28.7276
 21
60.7111
  0
LINE
  8
0
 10
-28.7276
 20
60.7111
 11
-28.7683
 21
60.6439
  0
LINE
  8
0
 10
-28.7683
 20
60.6439
 11
-28.778
 21
60.6316
  0
LINE
  8
0
 10
-28.778
 20
60.6316
 11
-28.7865
 21
60.6183
  0
LINE
  8
0
 10
-28.7865
 20
60.6183
 11
-28.8365
 21
60.5578
  0
LINE
  8
0
 10
-28.8365
 20
60.5578
 11
-28.8853
 21
60.4963
  0
LINE
  8
0
 10
-28.8853
 20
60.4963
 11
-28.8965
 21
60.4853
  0
LINE
  8
0
 10
-28.8965
 20
60.4853
 11
-28.9065
 21
60.4732
  0
LINE
  8
0
 10
-28.9065
 20
60.4732
 11
-28.9638
 21
60.4194
  0
LINE
  8
0
 10
-28.9638
 20
60.4194
 11
-29.0199
 21
60.3645
  0
LINE
  8
0
 10
-29.0199
 20
60.3645
 11
-29.0324
 21
60.355
  0
LINE
  8
0
 10
-29.0324
 20
60.355
 11
-29.0439
 21
60.3442
  0
LINE
  8
0
 10
-29.0439
 20
60.3442
 11
-29.1074
 21
60.2981
  0
LINE
  8
0
 10
-29.1074
 20
60.2981
 11
-29.1699
 21
60.2506
  0
LINE
  8
0
 10
-29.1699
 20
60.2506
 11
-29.1835
 21
60.2428
  0
LINE
  8
0
 10
-29.1835
 20
60.2428
 11
-29.1963
 21
60.2335
  0
LINE
  8
0
 10
-29.1963
 20
60.2335
 11
-29.265
 21
60.1957
  0
LINE
  8
0
 10
-29.265
 20
60.1957
 11
-29.333
 21
60.1564
  0
LINE
  8
0
 10
-29.333
 20
60.1564
 11
-29.3475
 21
60.1503
  0
LINE
  8
0
 10
-29.3475
 20
60.1503
 11
-29.3613
 21
60.1427
  0
LINE
  8
0
 10
-29.3613
 20
60.1427
 11
-29.4343
 21
60.1139
  0
LINE
  8
0
 10
-29.4343
 20
60.1139
 11
-29.5067
 21
60.0834
  0
LINE
  8
0
 10
-29.5067
 20
60.0834
 11
-29.5219
 21
60.0792
  0
LINE
  8
0
 10
-29.5219
 20
60.0792
 11
-29.5365
 21
60.0734
  0
LINE
  8
0
 10
-29.5365
 20
60.0734
 11
-29.6125
 21
60.0539
  0
LINE
  8
0
 10
-29.6125
 20
60.0539
 11
-29.6881
 21
60.0328
  0
LINE
  8
0
 10
-29.6881
 20
60.0328
 11
-29.7037
 21
60.0305
  0
LINE
  8
0
 10
-29.7037
 20
60.0305
 11
-29.7189
 21
60.0266
  0
LINE
  8
0
 10
-29.7189
 20
60.0266
 11
-29.7968
 21
60.0167
  0
LINE
  8
0
 10
-29.7968
 20
60.0167
 11
-29.8745
 21
60.0052
  0
LINE
  8
0
 10
-29.8745
 20
60.0052
 11
-29.8902
 21
60.0049
  0
LINE
  8
0
 10
-29.8902
 20
60.0049
 11
-29.9058
 21
60.0029
  0
LINE
  8
0
 10
-29.9058
 20
60.0029
 11
-29.9843
 21
60.0029
  0
LINE
  8
0
 10
-29.9843
 20
60.0029
 11
-30.0628
 21
60.0013
  0
LINE
  8
0
 10
-30.0628
 20
60.0013
 11
-30.0784
 21
60.0029
  0
LINE
  8
0
 10
-55.0942
 20
27.6
 11
-57.8466
 21
27.6
  0
LINE
  8
0
 10
-57.8466
 20
27.6
 11
-57.8466
 21
33
  0
LINE
  8
0
 10
-57.8466
 20
33
 11
-55.0942
 21
33
  0
LINE
  8
0
 10
-55.0942
 20
33
 11
-55.0942
 21
36
  0
LINE
  8
0
 10
-55.0942
 20
36
 11
-55.1289
 21
36.0547
  0
LINE
  8
0
 10
-55.1289
 20
36.0547
 11
-55.2893
 21
36.3956
  0
LINE
  8
0
 10
-55.2893
 20
36.3956
 11
-55.4057
 21
36.7539
  0
LINE
  8
0
 10
-55.4057
 20
36.7539
 11
-55.4763
 21
37.124
  0
LINE
  8
0
 10
-55.4763
 20
37.124
 11
-55.5
 21
37.5
  0
LINE
  8
0
 10
-55.5
 20
37.5
 11
-55.4763
 21
37.876
  0
LINE
  8
0
 10
-55.4763
 20
37.876
 11
-55.4057
 21
38.2461
  0
LINE
  8
0
 10
-55.4057
 20
38.2461
 11
-55.2893
 21
38.6044
  0
LINE
  8
0
 10
-55.2893
 20
38.6044
 11
-55.1289
 21
38.9453
  0
LINE
  8
0
 10
-55.1289
 20
38.9453
 11
-54.927
 21
39.2634
  0
LINE
  8
0
 10
-54.927
 20
39.2634
 11
-54.6869
 21
39.5536
  0
LINE
  8
0
 10
-54.6869
 20
39.5536
 11
-54.4123
 21
39.8115
  0
LINE
  8
0
 10
-54.4123
 20
39.8115
 11
-54.1075
 21
40.033
  0
LINE
  8
0
 10
-54.1075
 20
40.033
 11
-53.7773
 21
40.2145
  0
LINE
  8
0
 10
-53.7773
 20
40.2145
 11
-53.427
 21
40.3532
  0
LINE
  8
0
 10
-53.427
 20
40.3532
 11
-53.0621
 21
40.4469
  0
LINE
  8
0
 10
-53.0621
 20
40.4469
 11
-52.6884
 21
40.4941
  0
LINE
  8
0
 10
-52.6884
 20
40.4941
 11
-52.3116
 21
40.4941
  0
LINE
  8
0
 10
-52.3116
 20
40.4941
 11
-51.9379
 21
40.4469
  0
LINE
  8
0
 10
-51.9379
 20
40.4469
 11
-51.5729
 21
40.3532
  0
LINE
  8
0
 10
-51.5729
 20
40.3532
 11
-51.2227
 21
40.2145
  0
LINE
  8
0
 10
-51.2227
 20
40.2145
 11
-50.8925
 21
40.033
  0
LINE
  8
0
 10
-50.8925
 20
40.033
 11
-50.5877
 21
39.8115
  0
LINE
  8
0
 10
-50.5877
 20
39.8115
 11
-50.3131
 21
39.5536
  0
LINE
  8
0
 10
-50.3131
 20
39.5536
 11
-50.0729
 21
39.2634
  0
LINE
  8
0
 10
-50.0729
 20
39.2634
 11
-49.8711
 21
38.9453
  0
LINE
  8
0
 10
-49.8711
 20
38.9453
 11
-49.7107
 21
38.6044
  0
LINE
  8
0
 10
-49.7107
 20
38.6044
 11
-49.5942
 21
38.2461
  0
LINE
  8
0
 10
-49.5942
 20
38.2461
 11
-49.5237
 21
37.876
  0
LINE
  8
0
 10
-49.5237
 20
37.876
 11
-49.5
 21
37.5
  0
LINE
  8
0
 10
-49.5
 20
37.5
 11
-49.5237
 21
37.124
  0
LINE
  8
0
 10
-49.5237
 20
37.124
 11
-49.5942
 21
36.7539
  0
LINE
  8
0
 10
-49.5942
 20
36.7539
 11
-49.7107
 21
36.3956
  0
LINE
  8
0
 10
-49.7107
 20
36.3956
 11
-49.8711
 21
36.0547
  0
LINE
  8
0
 10
-49.8711
 20
36.0547
 11
-49.9058
 21
36
  0
LINE
  8
0
 10
-49.9058
 20
36
 11
-49.9058
 21
33
  0
LINE
  8
0
 10
-49.9058
 20
33
 11
-47.1534
 21
33
  0
LINE
  8
0
 10
-47.1534
 20
33
 11
-47.1534
 21
27.6
  0
LINE
  8
0
 10
-47.1534
 20
27.6
 11
-49.9058
 21
27.6
  0
LINE
  8
0
 10
-49.9058
 20
27.6
 11
-49.9058
 21
24
  0
LINE
  8
0
 10
-49.9058
 20
24
 11
-40.0942
 21
24
  0
LINE
  8
0
 10
-40.0942
 20
24
 11
-40.0942
 21
27.6
  0
LINE
  8
0
 10
-40.0942
 20
27.6
 11
-42.8466
 21
27.6
  0
LINE
  8
0
 10
-42.8466
 20
27.6
 11
-42.8466
 21
33
  0
LINE
  8
0
 10
-42.8466
 20
33
 11
-40.0942
 21
33
  0
LINE
  8
0
 10
-40.0942
 20
33
 11
-40.0942
 21
36
  0
LINE
  8
0
 10
-40.0942
 20
36
 11
-40.1289
 21
36.0547
  0
LINE
  8
0
 10
-40.1289
 20
36.0547
 11
-40.2893
 21
36.3956
  0
LINE
  8
0
 10
-40.2893
 20
36.3956
 11
-40.4057
 21
36.7539
  0
LINE
  8
0
 10
-40.4057
 20
36.7539
 11
-40.4763
 21
37.124
  0
LINE
  8
0
 10
-40.4763
 20
37.124
 11
-40.5
 21
37.5
  0
LINE
  8
0
 10
-40.5
 20
37.5
 11
-40.4763
 21
37.876
  0
LINE
  8
0
 10
-40.4763
 20
37.876
 11
-40.4057
 21
38.2461
  0
LINE
  8
0
 10
-40.4057
 20
38.2461
 11
-40.2893
 21
38.6044
  0
LINE
  8
0
 10
-40.2893
 20
38.6044
 11
-40.1289
 21
38.9453
  0
LINE
  8
0
 10
-40.1289
 20
38.9453
 11
-39.927
 21
39.2634
  0
LINE
  8
0
 10
-39.927
 20
39.2634
 11
-39.6869
 21
39.5536
  0
LINE
  8
0
 10
-39.6869
 20
39.5536
 11
-39.4123
 21
39.8115
  0
LINE
  8
0
 10
-39.4123
 20
39.8115
 11
-39.1075
 21
40.033
  0
LINE
  8
0
 10
-39.1075
 20
40.033
 11
-38.7773
 21
40.2145
  0
LINE
  8
0
 10
-38.7773
 20
40.2145
 11
-38.427
 21
40.3532
  0
LINE
  8
0
 10
-38.427
 20
40.3532
 11
-38.0621
 21
40.4469
  0
LINE
  8
0
 10
-38.0621
 20
40.4469
 11
-37.6884
 21
40.4941
  0
LINE
  8
0
 10
-37.6884
 20
40.4941
 11
-37.3116
 21
40.4941
  0
LINE
  8
0
 10
-37.3116
 20
40.4941
 11
-36.9379
 21
40.4469
  0
LINE
  8
0
 10
-36.9379
 20
40.4469
 11
-36.5729
 21
40.3532
  0
LINE
  8
0
 10
-36.5729
 20
40.3532
 11
-36.2227
 21
40.2145
  0
LINE
  8
0
 10
-36.2227
 20
40.2145
 11
-35.8925
 21
40.033
  0
LINE
  8
0
 10
-35.8925
 20
40.033
 11
-35.5877
 21
39.8115
  0
LINE
  8
0
 10
-35.5877
 20
39.8115
 11
-35.3131
 21
39.5536
  0
LINE
  8
0
 10
-35.3131
 20
39.5536
 11
-35.0729
 21
39.2634
  0
LINE
  8
0
 10
-35.0729
 20
39.2634
 11
-34.8711
 21
38.9453
  0
LINE
  8
0
 10
-34.8711
 20
38.9453
 11
-34.7107
 21
38.6044
  0
LINE
  8
0
 10
-34.7107
 20
38.6044
 11
-34.5942
 21
38.2461
  0
LINE
  8
0
 10
-34.5942
 20
38.2461
 11
-34.5237
 21
37.876
  0
LINE
  8
0
 10
-34.5237
 20
37.876
 11
-34.5
 21
37.5
  0
LINE
  8
0
 10
-34.5
 20
37.5
 11
-34.5237
 21
37.124
  0
LINE
  8
0
 10
-34.5237
 20
37.124
 11
-34.5942
 21
36.7539
  0
LINE
  8
0
 10
-34.5942
 20
36.7539
 11
-34.7107
 21
36.3956
  0
LINE
  8
0
 10
-34.7107
 20
36.3956
 11
-34.8711
 21
36.0547
  0
LINE
  8
0
 10
-34.8711
 20
36.0547
 11
-34.9058
 21
36
  0
LINE
  8
0
 10
-34.9058
 20
36
 11
-34.9058
 21
33
  0
LINE
  8
0
 10
-34.9058
 20
33
 11
-32.1534
 21
33
  0
LINE
  8
0
 10
-32.1534
 20
33
 11
-32.1534
 21
27.6
  0
LINE
  8
0
 10
-32.1534
 20
27.6
 11
-34.9058
 21
27.6
  0
LINE
  8
0
 10
-34.9058
 20
27.6
 11
-34.9058
 21
24
  0
LINE
  8
0
 10
-34.9058
 20
24
 11
-25.0942
 21
24
  0
LINE
  8
0
 10
-25.0942
 20
24
 11
-25.0942
 21
27.6
  0
LINE
  8
0
 10
-25.0942
 20
27.6
 11
-27.8466
 21
27.6
  0
LINE
  8
0
 10
-27.8466
 20
27.6
 11
-27.8466
 21
33
  0
LINE
  8
0
 10
-27.8466
 20
33
 11
-25.0942
 21
33
  0
LINE
  8
0
 10
-25.0942
 20
33
 11
-25.0942
 21
36
  0
LINE
  8
0
 10
-25.0942
 20
36
 11
-25.1289
 21
36.0547
  0
LINE
  8
0
 10
-25.1289
 20
36.0547
 11
-25.2893
 21
36.3956
  0
LINE
  8
0
 10
-25.2893
 20
36.3956
 11
-25.4057
 21
36.7539
  0
LINE
  8
0
 10
-25.4057
 20
36.7539
 11
-25.4763
 21
37.124
  0
LINE
  8
0
 10
-25.4763
 20
37.124
 11
-25.5
 21
37.5
  0
LINE
  8
0
 10
-25.5
 20
37.5
 11
-25.4763
 21
37.876
  0
LINE
  8
0
 10
-25.4763
 20
37.876
 11
-25.4057
 21
38.2461
  0
LINE
  8
0
 10
-25.4057
 20
38.2461
 11
-25.2893
 21
38.6044
  0
LINE
  8
0
 10
-25.2893
 20
38.6044
 11
-25.1289
 21
38.9453
  0
LINE
  8
0
 10
-25.1289
 20
38.9453
 11
-24.927
 21
39.2634
  0
LINE
  8
0
 10
-24.927
 20
39.2634
 11
-24.6869
 21
39.5536
  0
LINE
  8
0
 10
-24.6869
 20
39.5536
 11
-24.4123
 21
39.8115
  0
LINE
  8
0
 10
-24.4123
 20
39.8115
 11
-24.1075
 21
40.033
  0
LINE
  8
0
 10
-24.1075
 20
40.033
 11
-23.7773
 21
40.2145
  0
LINE
  8
0
 10
-23.7773
 20
40.2145
 11
-23.427
 21
40.3532
  0
LINE
  8
0
 10
-23.427
 20
40.3532
 11
-23.0621
 21
40.4469
  0
LINE
  8
0
 10
-23.0621
 20
40.4469
 11
-22.6884
 21
40.4941
  0
LINE
  8
0
 10
-22.6884
 20
40.4941
 11
-22.3116
 21
40.4941
  0
LINE
  8
0
 10
-22.3116
 20
40.4941
 11
-21.9379
 21
40.4469
  0
LINE
  8
0
 10
-21.9379
 20
40.4469
 11
-21.5729
 21
40.3532
  0
LINE
  8
0
 10
-21.5729
 20
40.3532
 11
-21.2227
 21
40.2145
  0
LINE
  8
0
 10
-21.2227
 20
40.2145
 11
-20.8925
 21
40.033
  0
LINE
  8
0
 10
-20.8925
 20
40.033
 11
-20.5877
 21
39.8115
  0
LINE
  8
0
 10
-20.5877
 20
39.8115
 11
-20.3131
 21
39.5536
  0
LINE
  8
0
 10
-20.3131
 20
39.5536
 11
-20.0729
 21
39.2634
  0
LINE
  8
0
 10
-20.0729
 20
39.2634
 11
-19.8711
 21
38.9453
  0
LINE
  8
0
 10
-19.8711
 20
38.9453
 11
-19.7107
 21
38.6044
  0
LINE
  8
0
 10
-19.7107
 20
38.6044
 11
-19.5942
 21
38.2461
  0
LINE
  8
0
 10
-19.5942
 20
38.2461
 11
-19.5237
 21
37.876
  0
LINE
  8
0
 10
-19.5237
 20
37.876
 11
-19.5
 21
37.5
  0
LINE
  8
0
 10
-19.5
 20
37.5
 11
-19.5237
 21
37.124
  0
LINE
  8
0
 10
-19.5237
 20
37.124
 11
-19.5942
 21
36.7539
  0
LINE
  8
0
 10
-19.5942
 20
36.7539
 11
-19.7107
 21
36.3956
  0
LINE
  8
0
 10
-19.7107
 20
36.3956
 11
-19.8711
 21
36.0547
  0
LINE
  8
0
 10
-19.8711
 20
36.0547
 11
-19.9058
 21
36
  0
LINE
  8
0
 10
-19.9058
 20
36
 11
-19.9058
 21
33
  0
LINE
  8
0
 10
-19.9058
 20
33
 11
-17.1534
 21
33
  0
LINE
  8
0
 10
-17.1534
 20
33
 11
-17.1534
 21
27.6
  0
LINE
  8
0
 10
-17.1534
 20
27.6
 11
-19.9058
 21
27.6
  0
LINE
  8
0
 10
-19.9058
 20
27.6
 11
-19.9058
 21
24
  0
LINE
  8
0
 10
-19.9058
 20
24
 11
-10.0942
 21
24
  0
LINE
  8
0
 10
-10.0942
 20
24
 11
-10.0942
 21
27.6
  0
LINE
  8
0
 10
-10.0942
 20
27.6
 11
-12.8466
 21
27.6
  0
LINE
  8
0
 10
-12.8466
 20
27.6
 11
-12.8466
 21
33
  0
LINE
  8
0
 10
-12.8466
 20
33
 11
-10.0942
 21
33
  0
LINE
  8
0
 10
-10.0942
 20
33
 11
-10.0942
 21
36
  0
LINE
  8
0
 10
-10.0942
 20
36
 11
-10.1289
 21
36.0547
  0
LINE
  8
0
 10
-10.1289
 20
36.0547
 11
-10.2893
 21
36.3956
  0
LINE
  8
0
 10
-10.2893
 20
36.3956
 11
-10.4057
 21
36.7539
  0
LINE
  8
0
 10
-10.4057
 20
36.7539
 11
-10.4763
 21
37.124
  0
LINE
  8
0
 10
-10.4763
 20
37.124
 11
-10.5
 21
37.5
  0
LINE
  8
0
 10
-10.5
 20
37.5
 11
-10.4763
 21
37.876
  0
LINE
  8
0
 10
-10.4763
 20
37.876
 11
-10.4057
 21
38.2461
  0
LINE
  8
0
 10
-10.4057
 20
38.2461
 11
-10.2893
 21
38.6044
  0
LINE
  8
0
 10
-10.2893
 20
38.6044
 11
-10.1289
 21
38.9453
  0
LINE
  8
0
 10
-10.1289
 20
38.9453
 11
-9.92705
 21
39.2634
  0
LINE
  8
0
 10
-9.92705
 20
39.2634
 11
-9.6869
 21
39.5536
  0
LINE
  8
0
 10
-9.6869
 20
39.5536
 11
-9.41226
 21
39.8115
  0
LINE
  8
0
 10
-9.41226
 20
39.8115
 11
-9.10747
 21
40.033
  0
LINE
  8
0
 10
-9.10747
 20
40.033
 11
-8.77733
 21
40.2145
  0
LINE
  8
0
 10
-8.77733
 20
40.2145
 11
-8.42705
 21
40.3532
  0
LINE
  8
0
 10
-8.42705
 20
40.3532
 11
-8.06213
 21
40.4469
  0
LINE
  8
0
 10
-8.06213
 20
40.4469
 11
-7.68837
 21
40.4941
  0
LINE
  8
0
 10
-7.68837
 20
40.4941
 11
-7.31161
 21
40.4941
  0
LINE
  8
0
 10
-7.31161
 20
40.4941
 11
-6.93785
 21
40.4469
  0
LINE
  8
0
 10
-6.93785
 20
40.4469
 11
-6.57294
 21
40.3532
  0
LINE
  8
0
 10
-6.57294
 20
40.3532
 11
-6.22266
 21
40.2145
  0
LINE
  8
0
 10
-6.22266
 20
40.2145
 11
-5.89252
 21
40.033
  0
LINE
  8
0
 10
-5.89252
 20
40.033
 11
-5.58772
 21
39.8115
  0
LINE
  8
0
 10
-5.58772
 20
39.8115
 11
-5.31308
 21
39.5536
  0
LINE
  8
0
 10
-5.31308
 20
39.5536
 11
-5.07294
 21
39.2634
  0
LINE
  8
0
 10
-5.07294
 20
39.2634
 11
-4.87108
 21
38.9453
  0
LINE
  8
0
 10
-4.87108
 20
38.9453
 11
-4.71066
 21
38.6044
  0
LINE
  8
0
 10
-4.71066
 20
38.6044
 11
-4.59424
 21
38.2461
  0
LINE
  8
0
 10
-4.59424
 20
38.2461
 11
-4.52365
 21
37.876
  0
LINE
  8
0
 10
-4.52365
 20
37.876
 11
-4.5
 21
37.5
  0
LINE
  8
0
 10
-4.5
 20
37.5
 11
-4.52365
 21
37.124
  0
LINE
  8
0
 10
-4.52365
 20
37.124
 11
-4.59424
 21
36.7539
  0
LINE
  8
0
 10
-4.59424
 20
36.7539
 11
-4.71066
 21
36.3956
  0
LINE
  8
0
 10
-4.71066
 20
36.3956
 11
-4.87108
 21
36.0547
  0
LINE
  8
0
 10
-4.87108
 20
36.0547
 11
-4.90581
 21
36
  0
LINE
  8
0
 10
-4.90581
 20
36
 11
-4.90581
 21
33
  0
LINE
  8
0
 10
-4.90581
 20
33
 11
-2.15337
 21
33
  0
LINE
  8
0
 10
-2.15337
 20
33
 11
-2.15337
 21
27.6
  0
LINE
  8
0
 10
-2.15337
 20
27.6
 11
-4.90581
 21
27.6
  0
LINE
  8
0
 10
-4.90581
 20
27.6
 11
-4.90581
 21
24
  0
LINE
  8
0
 10
-4.90581
 20
24
 11
4.90581
 21
24
  0
LINE
  8
0
 10
4.90581
 20
24
 11
4.90581
 21
27.6
  0
LINE
  8
0
 10
4.90581
 20
27.6
 11
2.15337
 21
27.6
  0
LINE
  8
0
 10
2.15337
 20
27.6
 11
2.15337
 21
33
  0
LINE
  8
0
 10
2.15337
 20
33
 11
4.90581
 21
33
  0
LINE
  8
0
 10
4.90581
 20
33
 11
4.90581
 21
36
  0
LINE
  8
0
 10
4.90581
 20
36
 11
4.87108
 21
36.0547
  0
LINE
  8
0
 10
4.87108
 20
36.0547
 11
4.71066
 21
36.3956
  0
LINE
  8
0
 10
4.71066
 20
36.3956
 11
4.59424
 21
36.7539
  0
LINE
  8
0
 10
4.59424
 20
36.7539
 11
4.52365
 21
37.124
  0
LINE
  8
0
 10
4.52365
 20
37.124
 11
4.5
 21
37.5
  0
LINE
  8
0
 10
4.5
 20
37.5
 11
4.52365
 21
37.876
  0
LINE
  8
0
 10
4.52365
 20
37.876
 11
4.59424
 21
38.2461
  0
LINE
  8
0
 10
4.59424
 20
38.2461
 11
4.71066
 21
38.6044
  0
LINE
  8
0
 10
4.71066
 20
38.6044
 11
4.87108
 21
38.9453
  0
LINE
  8
0
 10
4.87108
 20
38.9453
 11
5.07294
 21
39.2634
  0
LINE
  8
0
 10
5.07294
 20
39.2634
 11
5.31308
 21
39.5536
  0
LINE
  8
0
 10
5.31308
 20
39.5536
 11
5.58772
 21
39.8115
  0
LINE
  8
0
 10
5.58772
 20
39.8115
 11
5.89252
 21
40.033
  0
LINE
  8
0
 10
5.89252
 20
40.033
 11
6.22266
 21
40.2145
  0
LINE
  8
0
 10
6.22266
 20
40.2145
 11
6.57294
 21
40.3532
  0
LINE
  8
0
 10
6.57294
 20
40.3532
 11
6.93785
 21
40.4469
  0
LINE
  8
0
 10
6.93785
 20
40.4469
 11
7.31161
 21
40.4941
  0
LINE
  8
0
 10
7.31161
 20
40.4941
 11
7.68837
 21
40.4941
  0
LINE
  8
0
 10
7.68837
 20
40.4941
 11
8.06213
 21
40.4469
  0
LINE
  8
0
 10
8.06213
 20
40.4469
 11
8.42705
 21
40.3532
  0
LINE
  8
0
 10
8.42705
 20
40.3532
 11
8.77733
 21
40.2145
  0
LINE
  8
0
 10
8.77733
 20
40.2145
 11
9.10747
 21
40.033
  0
LINE
  8
0
 10
9.10747
 20
40.033
 11
9.41226
 21
39.8115
  0
LINE
  8
0
 10
9.41226
 20
39.8115
 11
9.6869
 21
39.5536
  0
LINE
  8
0
 10
9.6869
 20
39.5536
 11
9.92705
 21
39.2634
  0
LINE
  8
0
 10
9.92705
 20
39.2634
 11
10.1289
 21
38.9453
  0
LINE
  8
0
 10
10.1289
 20
38.9453
 11
10.2893
 21
38.6044
  0
LINE
  8
0
 10
10.2893
 20
38.6044
 11
10.4057
 21
38.2461
  0
LINE
  8
0
 10
10.4057
 20
38.2461
 11
10.4763
 21
37.876
  0
LINE
  8
0
 10
10.4763
 20
37.876
 11
10.5
 21
37.5
  0
LINE
  8
0
 10
10.5
 20
37.5
 11
10.4763
 21
37.124
  0
LINE
  8
0
 10
10.4763
 20
37.124
 11
10.4057
 21
36.7539
  0
LINE
  8
0
 10
10.4057
 20
36.7539
 11
10.2893
 21
36.3956
  0
LINE
  8
0
 10
10.2893
 20
36.3956
 11
10.1289
 21
36.0547
  0
LINE
  8
0
 10
10.1289
 20
36.0547
 11
10.0942
 21
36
  0
LINE
  8
0
 10
10.0942
 20
36
 11
10.0942
 21
33
  0
LINE
  8
0
 10
10.0942
 20
33
 11
12.8466
 21
33
  0
LINE
  8
0
 10
12.8466
 20
33
 11
12.8466
 21
27.6
  0
LINE
  8
0
 10
12.8466
 20
27.6
 11
10.0942
 21
27.6
  0
LINE
  8
0
 10
10.0942
 20
27.6
 11
10.0942
 21
24
  0
LINE
  8
0
 10
10.0942
 20
24
 11
19.9058
 21
24
  0
LINE
  8
0
 10
19.9058
 20
24
 11
19.9058
 21
27.6
  0
LINE
  8
0
 10
19.9058
 20
27.6
 11
17.1534
 21
27.6
  0
LINE
  8
0
 10
17.1534
 20
27.6
 11
17.1534
 21
33
  0
LINE
  8
0
 10
17.1534
 20
33
 11
19.9058
 21
33
  0
LINE
  8
0
 10
19.9058
 20
33
 11
19.9058
 21
36
  0
LINE
  8
0
 10
19.9058
 20
36
 11
19.8711
 21
36.0547
  0
LINE
  8
0
 10
19.8711
 20
36.0547
 11
19.7107
 21
36.3956
  0
LINE
  8
0
 10
19.7107
 20
36.3956
 11
19.5942
 21
36.7539
  0
LINE
  8
0
 10
19.5942
 20
36.7539
 11
19.5237
 21
37.124
  0
LINE
  8
0
 10
19.5237
 20
37.124
 11
19.5
 21
37.5
  0
LINE
  8
0
 10
19.5
 20
37.5
 11
19.5237
 21
37.876
  0
LINE
  8
0
 10
19.5237
 20
37.876
 11
19.5942
 21
38.2461
  0
LINE
  8
0
 10
19.5942
 20
38.2461
 11
19.7107
 21
38.6044
  0
LINE
  8
0
 10
19.7107
 20
38.6044
 11
19.8711
 21
38.9453
  0
LINE
  8
0
 10
19.8711
 20
38.9453
 11
20.0729
 21
39.2634
  0
LINE
  8
0
 10
20.0729
 20
39.2634
 11
20.3131
 21
39.5536
  0
LINE
  8
0
 10
20.3131
 20
39.5536
 11
20.5877
 21
39.8115
  0
LINE
  8
0
 10
20.5877
 20
39.8115
 11
20.8925
 21
40.033
  0
LINE
  8
0
 10
20.8925
 20
40.033
 11
21.2227
 21
40.2145
  0
LINE
  8
0
 10
21.2227
 20
40.2145
 11
21.5729
 21
40.3532
  0
LINE
  8
0
 10
21.5729
 20
40.3532
 11
21.9379
 21
40.4469
  0
LINE
  8
0
 10
21.9379
 20
40.4469
 11
22.3116
 21
40.4941
  0
LINE
  8
0
 10
22.3116
 20
40.4941
 11
22.6884
 21
40.4941
  0
LINE
  8
0
 10
22.6884
 20
40.4941
 11
23.0621
 21
40.4469
  0
LINE
  8
0
 10
23.0621
 20
40.4469
 11
23.427
 21
40.3532
  0
LINE
  8
0
 10
23.427
 20
40.3532
 11
23.7773
 21
40.2145
  0
LINE
  8
0
 10
23.7773
 20
40.2145
 11
24.1075
 21
40.033
  0
LINE
  8
0
 10
24.1075
 20
40.033
 11
24.4123
 21
39.8115
  0
LINE
  8
0
 10
24.4123
 20
39.8115
 11
24.6869
 21
39.5536
  0
LINE
  8
0
 10
24.6869
 20
39.5536
 11
24.927
 21
39.2634
  0
LINE
  8
0
 10
24.927
 20
39.2634
 11
25.1289
 21
38.9453
  0
LINE
  8
0
 10
25.1289
 20
38.9453
 11
25.2893
 21
38.6044
  0
LINE
  8
0
 10
25.2893
 20
38.6044
 11
25.4057
 21
38.2461
  0
LINE
  8
0
 10
25.4057
 20
38.2461
 11
25.4763
 21
37.876
  0
LINE
  8
0
 10
25.4763
 20
37.876
 11
25.5
 21
37.5
  0
LINE
  8
0
 10
25.5
 20
37.5
 11
25.4763
 21
37.124
  0
LINE
  8
0
 10
25.4763
 20
37.124
 11
25.4057
 21
36.7539
  0
LINE
  8
0
 10
25.4057
 20
36.7539
 11
25.2893
 21
36.3956
  0
LINE
  8
0
 10
25.2893
 20
36.3956
 11
25.1289
 21
36.0547
  0
LINE
  8
0
 10
25.1289
 20
36.0547
 11
25.0942
 21
36
  0
LINE
  8
0
 10
25.0942
 20
36
 11
25.0942
 21
33
  0
LINE
  8
0
 10
25.0942
 20
33
 11
27.8466
 21
33
  0
LINE
  8
0
 10
27.8466
 20
33
 11
27.8466
 21
27.6
  0
LINE
  8
0
 10
27.8466
 20
27.6
 11
25.0942
 21
27.6
  0
LINE
  8
0
 10
25.0942
 20
27.6
 11
25.0942
 21
24
  0
LINE
  8
0
 10
25.0942
 20
24
 11
34.9058
 21
24
  0
LINE
  8
0
 10
34.9058
 20
24
 11
34.9058
 21
27.6
  0
LINE
  8
0
 10
34.9058
 20
27.6
 11
32.1534
 21
27.6
  0
LINE
  8
0
 10
32.1534
 20
27.6
 11
32.1534
 21
33
  0
LINE
  8
0
 10
32.1534
 20
33
 11
34.9058
 21
33
  0
LINE
  8
0
 10
34.9058
 20
33
 11
34.9058
 21
36
  0
LINE
  8
0
 10
34.9058
 20
36
 11
34.8711
 21
36.0547
  0
LINE
  8
0
 10
34.8711
 20
36.0547
 11
34.7107
 21
36.3956
  0
LINE
  8
0
 10
34.7107
 20
36.3956
 11
34.5942
 21
36.7539
  0
LINE
  8
0
 10
34.5942
 20
36.7539
 11
34.5237
 21
37.124
  0
LINE
  8
0
 10
34.5237
 20
37.124
 11
34.5
 21
37.5
  0
LINE
  8
0
 10
34.5
 20
37.5
 11
34.5237
 21
37.876
  0
LINE
  8
0
 10
34.5237
 20
37.876
 11
34.5942
 21
38.2461
  0
LINE
  8
0
 10
34.5942
 20
38.2461
 11
34.7107
 21
38.6044
  0
LINE
  8
0
 10
34.7107
 20
38.6044
 11
34.8711
 21
38.9453
  0
LINE
  8
0
 10
34.8711
 20
38.9453
 11
35.0729
 21
39.2634
  0
LINE
  8
0
 10
35.0729
 20
39.2634
 11
35.3131
 21
39.5536
  0
LINE
  8
0
 10
35.3131
 20
39.5536
 11
35.5877
 21
39.8115
  0
LINE
  8
0
 10
35.5877
 20
39.8115
 11
35.8925
 21
40.033
  0
LINE
  8
0
 10
35.8925
 20
40.033
 11
36.2227
 21
40.2145
  0
LINE
  8
0
 10
36.2227
 20
40.2145
 11
36.5729
 21
40.3532
  0
LINE
  8
0
 10
36.5729
 20
40.3532
 11
36.9379
 21
40.4469
  0
LINE
  8
0
 10
36.9379
 20
40.4469
 11
37.3116
 21
40.4941
  0
LINE
  8
0
 10
37.3116
 20
40.4941
 11
37.6884
 21
40.4941
  0
LINE
  8
0
 10
37.6884
 20
40.4941
 11
38.0621
 21
40.4469
  0
LINE
  8
0
 10
38.0621
 20
40.4469
 11
38.427
 21
40.3532
  0
LINE
  8
0
 10
38.427
 20
40.3532
 11
38.7773
 21
40.2145
  0
LINE
  8
0
 10
38.7773
 20
40.2145
 11
39.1075
 21
40.033
  0
LINE
  8
0
 10
39.1075
 20
40.033
 11
39.4123
 21
39.8115
  0
LINE
  8
0
 10
39.4123
 20
39.8115
 11
39.6869
 21
39.5536
  0
LINE
  8
0
 10
39.6869
 20
39.5536
 11
39.927
 21
39.2634
  0
LINE
  8
0
 10
39.927
 20
39.2634
 11
40.1289
 21
38.9453
  0
LINE
  8
0
 10
40.1289
 20
38.9453
 11
40.2893
 21
38.6044
  0
LINE
  8
0
 10
40.2893
 20
38.6044
 11
40.4057
 21
38.2461
  0
LINE
  8
0
 10
40.4057
 20
38.2461
 11
40.4763
 21
37.876
  0
LINE
  8
0
 10
40.4763
 20
37.876
 11
40.5
 21
37.5
  0
LINE
  8
0
 10
40.5
 20
37.5
 11
40.4763
 21
37.124
  0
LINE
  8
0
 10
40.4763
 20
37.124
 11
40.4057
 21
36.7539
  0
LINE
  8
0
 10
40.4057
 20
36.7539
 11
40.2893
 21
36.3956
  0
LINE
  8
0
 10
40.2893
 20
36.3956
 11
40.1289
 21
36.0547
  0
LINE
  8
0
 10
40.1289
 20
36.0547
 11
40.0942
 21
36
  0
LINE
  8
0
 10
40.0942
 20
36
 11
40.0942
 21
33
  0
LINE
  8
0
 10
40.0942
 20
33
 11
42.8466
 21
33
  0
LINE
  8
0
 10
42.8466
 20
33
 11
42.8466
 21
27.6
  0
LINE
  8
0
 10
42.8466
 20
27.6
 11
40.0942
 21
27.6
  0
LINE
  8
0
 10
40.0942
 20
27.6
 11
40.0942
 21
24
  0
LINE
  8
0
 10
40.0942
 20
24
 11
49.9058
 21
24
  0
LINE
  8
0
 10
49.9058
 20
24
 11
49.9058
 21
27.6
  0
LINE
  8
0
 10
49.9058
 20
27.6
 11
47.1534
 21
27.6
  0
LINE
  8
0
 10
47.1534
 20
27.6
 11
47.1534
 21
33
  0
LINE
  8
0
 10
47.1534
 20
33
 11
49.9058
 21
33
  0
LINE
  8
0
 10
49.9058
 20
33
 11
49.9058
 21
36
  0
LINE
  8
0
 10
49.9058
 20
36
 11
49.8711
 21
36.0547
  0
LINE
  8
0
 10
49.8711
 20
36.0547
 11
49.7107
 21
36.3956
  0
LINE
  8
0
 10
49.7107
 20
36.3956
 11
49.5942
 21
36.7539
  0
LINE
  8
0
 10
49.5942
 20
36.7539
 11
49.5237
 21
37.124
  0
LINE
  8
0
 10
49.5237
 20
37.124
 11
49.5
 21
37.5
  0
LINE
  8
0
 10
49.5
 20
37.5
 11
49.5237
 21
37.876
  0
LINE
  8
0
 10
49.5237
 20
37.876
 11
49.5942
 21
38.2461
  0
LINE
  8
0
 10
49.5942
 20
38.2461
 11
49.7107
 21
38.6044
  0
LINE
  8
0
 10
49.7107
 20
38.6044
 11
49.8711
 21
38.9453
  0
LINE
  8
0
 10
49.8711
 20
38.9453
 11
50.0729
 21
39.2634
  0
LINE
  8
0
 10
50.0729
 20
39.2634
 11
50.3131
 21
39.5536
  0
LINE
  8
0
 10
50.3131
 20
39.5536
 11
50.5877
 21
39.8115
  0
LINE
  8
0
 10
50.5877
 20
39.8115
 11
50.8925
 21
40.033
  0
LINE
  8
0
 10
50.8925
 20
40.033
 11
51.2227
 21
40.2145
  0
LINE
  8
0
 10
51.2227
 20
40.2145
 11
51.5729
 21
40.3532
  0
LINE
  8
0
 10
51.5729
 20
40.3532
 11
51.9379
 21
40.4469
  0
LINE
  8
0
 10
51.9379
 20
40.4469
 11
52.3116
 21
40.4941
  0
LINE
  8
0
 10
52.3116
 20
40.4941
 11
52.6884
 21
40.4941
  0
LINE
  8
0
 10
52.6884
 20
40.4941
 11
53.0621
 21
40.4469
  0
LINE
  8
0
 10
53.0621
 20
40.4469
 11
53.427
 21
40.3532
  0
LINE
  8
0
 10
53.427
 20
40.3532
 11
53.7773
 21
40.2145
  0
LINE
  8
0
 10
53.7773
 20
40.2145
 11
54.1075
 21
40.033
  0
LINE
  8
0
 10
54.1075
 20
40.033
 11
54.4123
 21
39.8115
  0
LINE
  8
0
 10
54.4123
 20
39.8115
 11
54.6869
 21
39.5536
  0
LINE
  8
0
 10
54.6869
 20
39.5536
 11
54.927
 21
39.2634
  0
LINE
  8
0
 10
54.927
 20
39.2634
 11
55.1289
 21
38.9453
  0
LINE
  8
0
 10
55.1289
 20
38.9453
 11
55.2893
 21
38.6044
  0
LINE
  8
0
 10
55.2893
 20
38.6044
 11
55.4057
 21
38.2461
  0
LINE
  8
0
 10
55.4057
 20
38.2461
 11
55.4763
 21
37.876
  0
LINE
  8
0
 10
55.4763
 20
37.876
 11
55.5
 21
37.5
  0
LINE
  8
0
 10
55.5
 20
37.5
 11
55.4763
 21
37.124
  0
LINE
  8
0
 10
55.4763
 20
37.124
 11
55.4057
 21
36.7539
  0
LINE
  8
0
 10
55.4057
 20
36.7539
 11
55.2893
 21
36.3956
  0
LINE
  8
0
 10
55.2893
 20
36.3956
 11
55.1289
 21
36.0547
  0
LINE
  8
0
 10
55.1289
 20
36.0547
 11
55.0942
 21
36
  0
LINE
  8
0
 10
55.0942
 20
36
 11
55.0942
 21
33
  0
LINE
  8
0
 10
55.0942
 20
33
 11
57.8466
 21
33
  0
LINE
  8
0
 10
57.8466
 20
33
 11
57.8466
 21
27.6
  0
LINE
  8
0
 10
57.8466
 20
27.6
 11
55.0942
 21
27.6
  0
LINE
  8
0
 10
55.0942
 20
27.6
 11
55.0942
 21
24
  0
LINE
  8
0
 10
55.0942
 20
24
 11
59.5
 21
24
  0
LINE
  8
0
 10
59.5
 20
24
 11
59.5
 21
39.5
  0
LINE
  8
0
 10
59.5
 20
39.5
 11
59.4606
 21
40.1267
  0
LINE
  8
0
 10
59.4606
 20
40.1267
 11
59.3429
 21
40.7434
  0
LINE
  8
0
 10
59.3429
 20
40.7434
 11
59.1489
 21
41.3406
  0
LINE
  8
0
 10
59.1489
 20
41.3406
 11
58.8815
 21
41.9088
  0
LINE
  8
0
 10
58.8815
 20
41.9088
 11
58.5451
 21
42.4389
  0
LINE
  8
0
 10
58.5451
 20
42.4389
 11
58.1448
 21
42.9227
  0
LINE
  8
0
 10
58.1448
 20
42.9227
 11
57.6871
 21
43.3526
  0
LINE
  8
0
 10
57.6871
 20
43.3526
 11
57.1791
 21
43.7216
  0
LINE
  8
0
 10
57.1791
 20
43.7216
 11
56.6289
 21
44.0241
  0
LINE
  8
0
 10
56.6289
 20
44.0241
 11
56.0451
 21
44.2553
  0
LINE
  8
0
 10
56.0451
 20
44.2553
 11
55.4369
 21
44.4114
  0
LINE
  8
0
 10
55.4369
 20
44.4114
 11
54.8139
 21
44.4901
  0
LINE
  8
0
 10
54.8139
 20
44.4901
 11
-54.8139
 21
44.4901
  0
LINE
  8
0
 10
-54.8139
 20
44.4901
 11
-55.4369
 21
44.4114
  0
LINE
  8
0
 10
-55.4369
 20
44.4114
 11
-56.0451
 21
44.2553
  0
LINE
  8
0
 10
-56.0451
 20
44.2553
 11
-56.6289
 21
44.0241
  0
LINE
  8
0
 10
-56.6289
 20
44.0241
 11
-57.1791
 21
43.7216
  0
LINE
  8
0
 10
-57.1791
 20
43.7216
 11
-57.6871
 21
43.3526
  0
LINE
  8
0
 10
-57.6871
 20
43.3526
 11
-58.1448
 21
42.9227
  0
LINE
  8
0
 10
-58.1448
 20
42.9227
 11
-58.5451
 21
42.4389
  0
LINE
  8
0
 10
-58.5451
 20
42.4389
 11
-58.8815
 21
41.9088
  0
LINE
  8
0
 10
-58.8815
 20
41.9088
 11
-59.1489
 21
41.3406
  0
LINE
  8
0
 10
-59.1489
 20
41.3406
 11
-59.3429
 21
40.7434
  0
LINE
  8
0
 10
-59.3429
 20
40.7434
 11
-59.4606
 21
40.1267
  0
LINE
  8
0
 10
-59.4606
 20
40.1267
 11
-59.5
 21
39.5
  0
LINE
  8
0
 10
-59.5
 20
39.5
 11
-59.5
 21
24
  0
LINE
  8
0
 10
-59.5
 20
24
 11
-55.0942
 21
24
  0
LINE
  8
0
 10
-55.0942
 20
24
 11
-55.0942
 21
27.6
  0
LINE
  8
0
 10
28.3267
 20
34.6018
 11
26.6534
 21
37.5
  0
LINE
  8
0
 10
26.6534
 20
37.5
 11
28.3267
 21
40.3982
  0
LINE
  8
0
 10
28.3267
 20
40.3982
 11
31.6733
 21
40.3982
  0
LINE
  8
0
 10
31.6733
 20
40.3982
 11
33.3466
 21
37.5
  0
LINE
  8
0
 10
33.3466
 20
37.5
 11
31.6733
 21
34.6018
  0
LINE
  8
0
 10
31.6733
 20
34.6018
 11
28.3267
 21
34.6018
  0
LINE
  8
0
 10
-1.67329
 20
34.6018
 11
-3.34657
 21
37.5
  0
LINE
  8
0
 10
-3.34657
 20
37.5
 11
-1.67328
 21
40.3982
  0
LINE
  8
0
 10
-1.67328
 20
40.3982
 11
1.67329
 21
40.3982
  0
LINE
  8
0
 10
1.67329
 20
40.3982
 11
3.34657
 21
37.5
  0
LINE
  8
0
 10
3.34657
 20
37.5
 11
1.67328
 21
34.6018
  0
LINE
  8
0
 10
1.67328
 20
34.6018
 11
-1.67329
 21
34.6018
  0
LINE
  8
0
 10
-16.6733
 20
34.6018
 11
-18.3466
 21
37.5
  0
LINE
  8
0
 10
-18.3466
 20
37.5
 11
-16.6733
 21
40.3982
  0
LINE
  8
0
 10
-16.6733
 20
40.3982
 11
-13.3267
 21
40.3982
  0
LINE
  8
0
 10
-13.3267
 20
40.3982
 11
-11.6534
 21
37.5
  0
LINE
  8
0
 10
-11.6534
 20
37.5
 11
-13.3267
 21
34.6018
  0
LINE
  8
0
 10
-13.3267
 20
34.6018
 11
-16.6733
 21
34.6018
  0
LINE
  8
0
 10
13.3267
 20
34.6018
 11
11.6534
 21
37.5
  0
LINE
  8
0
 10
11.6534
 20
37.5
 11
13.3267
 21
40.3982
  0
LINE
  8
0
 10
13.3267
 20
40.3982
 11
16.6733
 21
40.3982
  0
LINE
  8
0
 10
16.6733
 20
40.3982
 11
18.3466
 21
37.5
  0
LINE
  8
0
 10
18.3466
 20
37.5
 11
16.6733
 21
34.6018
  0
LINE
  8
0
 10
16.6733
 20
34.6018
 11
13.3267
 21
34.6018
  0
LINE
  8
0
 10
43.3267
 20
34.6018
 11
41.6534
 21
37.5
  0
LINE
  8
0
 10
41.6534
 20
37.5
 11
43.3267
 21
40.3982
  0
LINE
  8
0
 10
43.3267
 20
40.3982
 11
46.6733
 21
40.3982
  0
LINE
  8
0
 10
46.6733
 20
40.3982
 11
48.3466
 21
37.5
  0
LINE
  8
0
 10
48.3466
 20
37.5
 11
46.6733
 21
34.6018
  0
LINE
  8
0
 10
46.6733
 20
34.6018
 11
43.3267
 21
34.6018
  0
LINE
  8
0
 10
-46.6733
 20
34.6018
 11
-48.3466
 21
37.5
  0
LINE
  8
0
 10
-48.3466
 20
37.5
 11
-46.6733
 21
40.3982
  0
LINE
  8
0
 10
-46.6733
 20
40.3982
 11
-43.3267
 21
40.3982
  0
LINE
  8
0
 10
-43.3267
 20
40.3982
 11
-41.6534
 21
37.5
  0
LINE
  8
0
 10
-41.6534
 20
37.5
 11
-43.3267
 21
34.6018
  0
LINE
  8
0
 10
-43.3267
 20
34.6018
 11
-46.6733
 21
34.6018
  0
LINE
  8
0
 10
-30.0784
 20
36.0029
 11
-30.0942
 21
36.0029
  0
LINE
  8
0
 10
-30.0942
 20
36.0029
 11
-30.1721
 21
36.0128
  0
LINE
  8
0
 10
-30.1721
 20
36.0128
 11
-30.2502
 21
36.021
  0
LINE
  8
0
 10
-30.2502
 20
36.021
 11
-30.2655
 21
36.0246
  0
LINE
  8
0
 10
-30.2655
 20
36.0246
 11
-30.2811
 21
36.0266
  0
LINE
  8
0
 10
-30.2811
 20
36.0266
 11
-30.3571
 21
36.0461
  0
LINE
  8
0
 10
-30.3571
 20
36.0461
 11
-30.4335
 21
36.064
  0
LINE
  8
0
 10
-30.4335
 20
36.064
 11
-30.4483
 21
36.0695
  0
LINE
  8
0
 10
-30.4483
 20
36.0695
 11
-30.4635
 21
36.0734
  0
LINE
  8
0
 10
-30.4635
 20
36.0734
 11
-30.5365
 21
36.1023
  0
LINE
  8
0
 10
-30.5365
 20
36.1023
 11
-30.6101
 21
36.1297
  0
LINE
  8
0
 10
-30.6101
 20
36.1297
 11
-30.624
 21
36.137
  0
LINE
  8
0
 10
-30.624
 20
36.137
 11
-30.6387
 21
36.1427
  0
LINE
  8
0
 10
-30.6387
 20
36.1427
 11
-30.7074
 21
36.1806
  0
LINE
  8
0
 10
-30.7074
 20
36.1806
 11
-30.777
 21
36.2169
  0
LINE
  8
0
 10
-30.777
 20
36.2169
 11
-30.7899
 21
36.2259
  0
LINE
  8
0
 10
-30.7899
 20
36.2259
 11
-30.8037
 21
36.2335
  0
LINE
  8
0
 10
-30.8037
 20
36.2335
 11
-30.8672
 21
36.2796
  0
LINE
  8
0
 10
-30.8672
 20
36.2796
 11
-30.9317
 21
36.3244
  0
LINE
  8
0
 10
-30.9317
 20
36.3244
 11
-30.9434
 21
36.335
  0
LINE
  8
0
 10
-30.9434
 20
36.335
 11
-30.9561
 21
36.3442
  0
LINE
  8
0
 10
-30.9561
 20
36.3442
 11
-31.0134
 21
36.398
  0
LINE
  8
0
 10
-31.0134
 20
36.398
 11
-31.0717
 21
36.4505
  0
LINE
  8
0
 10
-31.0717
 20
36.4505
 11
-31.082
 21
36.4624
  0
LINE
  8
0
 10
-31.082
 20
36.4624
 11
-31.0934
 21
36.4732
  0
LINE
  8
0
 10
-31.0934
 20
36.4732
 11
-31.1435
 21
36.5336
  0
LINE
  8
0
 10
-31.1435
 20
36.5336
 11
-31.1948
 21
36.5931
  0
LINE
  8
0
 10
-31.1948
 20
36.5931
 11
-31.2035
 21
36.6062
  0
LINE
  8
0
 10
-31.2035
 20
36.6062
 11
-31.2135
 21
36.6183
  0
LINE
  8
0
 10
-31.2135
 20
36.6183
 11
-31.2556
 21
36.6846
  0
LINE
  8
0
 10
-31.2556
 20
36.6846
 11
-31.299
 21
36.75
  0
LINE
  8
0
 10
-31.299
 20
36.75
 11
-31.306
 21
36.7641
  0
LINE
  8
0
 10
-31.306
 20
36.7641
 11
-31.3145
 21
36.7774
  0
LINE
  8
0
 10
-31.3145
 20
36.7774
 11
-31.3479
 21
36.8484
  0
LINE
  8
0
 10
-31.3479
 20
36.8484
 11
-31.3828
 21
36.9187
  0
LINE
  8
0
 10
-31.3828
 20
36.9187
 11
-31.388
 21
36.9336
  0
LINE
  8
0
 10
-31.388
 20
36.9336
 11
-31.3947
 21
36.9478
  0
LINE
  8
0
 10
-31.3947
 20
36.9478
 11
-31.4189
 21
37.0225
  0
LINE
  8
0
 10
-31.4189
 20
37.0225
 11
-31.4447
 21
37.0966
  0
LINE
  8
0
 10
-31.4447
 20
37.0966
 11
-31.448
 21
37.112
  0
LINE
  8
0
 10
-31.448
 20
37.112
 11
-31.4529
 21
37.127
  0
LINE
  8
0
 10
-31.4529
 20
37.127
 11
-31.4676
 21
37.2041
  0
LINE
  8
0
 10
-31.4676
 20
37.2041
 11
-31.4839
 21
37.2809
  0
LINE
  8
0
 10
-31.4839
 20
37.2809
 11
-31.4852
 21
37.2965
  0
LINE
  8
0
 10
-31.4852
 20
37.2965
 11
-31.4882
 21
37.312
  0
LINE
  8
0
 10
-31.4882
 20
37.312
 11
-31.4931
 21
37.3904
  0
LINE
  8
0
 10
-31.4931
 20
37.3904
 11
-31.4997
 21
37.4686
  0
LINE
  8
0
 10
-31.4997
 20
37.4686
 11
-31.499
 21
37.4843
  0
LINE
  8
0
 10
-31.499
 20
37.4843
 11
-31.5
 21
37.5
  0
LINE
  8
0
 10
-31.5
 20
37.5
 11
-31.4951
 21
37.5784
  0
LINE
  8
0
 10
-31.4951
 20
37.5784
 11
-31.4918
 21
37.6568
  0
LINE
  8
0
 10
-31.4918
 20
37.6568
 11
-31.4892
 21
37.6723
  0
LINE
  8
0
 10
-31.4892
 20
37.6723
 11
-31.4882
 21
37.688
  0
LINE
  8
0
 10
-31.4882
 20
37.688
 11
-31.4734
 21
37.7651
  0
LINE
  8
0
 10
-31.4734
 20
37.7651
 11
-31.4604
 21
37.8425
  0
LINE
  8
0
 10
-31.4604
 20
37.8425
 11
-31.4558
 21
37.8576
  0
LINE
  8
0
 10
-31.4558
 20
37.8576
 11
-31.4529
 21
37.873
  0
LINE
  8
0
 10
-31.4529
 20
37.873
 11
-31.4286
 21
37.9477
  0
LINE
  8
0
 10
-31.4286
 20
37.9477
 11
-31.4059
 21
38.0229
  0
LINE
  8
0
 10
-31.4059
 20
38.0229
 11
-31.3995
 21
38.0372
  0
LINE
  8
0
 10
-31.3995
 20
38.0372
 11
-31.3947
 21
38.0522
  0
LINE
  8
0
 10
-31.3947
 20
38.0522
 11
-31.3612
 21
38.1232
  0
LINE
  8
0
 10
-31.3612
 20
38.1232
 11
-31.3293
 21
38.1949
  0
LINE
  8
0
 10
-31.3293
 20
38.1949
 11
-31.3212
 21
38.2084
  0
LINE
  8
0
 10
-31.3212
 20
38.2084
 11
-31.3145
 21
38.2226
  0
LINE
  8
0
 10
-31.3145
 20
38.2226
 11
-31.2724
 21
38.2889
  0
LINE
  8
0
 10
-31.2724
 20
38.2889
 11
-31.2317
 21
38.3561
  0
LINE
  8
0
 10
-31.2317
 20
38.3561
 11
-31.2219
 21
38.3684
  0
LINE
  8
0
 10
-31.2219
 20
38.3684
 11
-31.2135
 21
38.3817
  0
LINE
  8
0
 10
-31.2135
 20
38.3817
 11
-31.1635
 21
38.4422
  0
LINE
  8
0
 10
-31.1635
 20
38.4422
 11
-31.1147
 21
38.5037
  0
LINE
  8
0
 10
-31.1147
 20
38.5037
 11
-31.1035
 21
38.5147
  0
LINE
  8
0
 10
-31.1035
 20
38.5147
 11
-31.0934
 21
38.5268
  0
LINE
  8
0
 10
-31.0934
 20
38.5268
 11
-31.0362
 21
38.5806
  0
LINE
  8
0
 10
-31.0362
 20
38.5806
 11
-30.9801
 21
38.6355
  0
LINE
  8
0
 10
-30.9801
 20
38.6355
 11
-30.9676
 21
38.645
  0
LINE
  8
0
 10
-30.9676
 20
38.645
 11
-30.9561
 21
38.6558
  0
LINE
  8
0
 10
-30.9561
 20
38.6558
 11
-30.8926
 21
38.7019
  0
LINE
  8
0
 10
-30.8926
 20
38.7019
 11
-30.8301
 21
38.7494
  0
LINE
  8
0
 10
-30.8301
 20
38.7494
 11
-30.8165
 21
38.7572
  0
LINE
  8
0
 10
-30.8165
 20
38.7572
 11
-30.8037
 21
38.7665
  0
LINE
  8
0
 10
-30.8037
 20
38.7665
 11
-30.7349
 21
38.8043
  0
LINE
  8
0
 10
-30.7349
 20
38.8043
 11
-30.6669
 21
38.8436
  0
LINE
  8
0
 10
-30.6669
 20
38.8436
 11
-30.6525
 21
38.8497
  0
LINE
  8
0
 10
-30.6525
 20
38.8497
 11
-30.6387
 21
38.8572
  0
LINE
  8
0
 10
-30.6387
 20
38.8572
 11
-30.5657
 21
38.8861
  0
LINE
  8
0
 10
-30.5657
 20
38.8861
 11
-30.4933
 21
38.9165
  0
LINE
  8
0
 10
-30.4933
 20
38.9165
 11
-30.4781
 21
38.9208
  0
LINE
  8
0
 10
-30.4781
 20
38.9208
 11
-30.4635
 21
38.9266
  0
LINE
  8
0
 10
-30.4635
 20
38.9266
 11
-30.3875
 21
38.9461
  0
LINE
  8
0
 10
-30.3875
 20
38.9461
 11
-30.3119
 21
38.9672
  0
LINE
  8
0
 10
-30.3119
 20
38.9672
 11
-30.2963
 21
38.9695
  0
LINE
  8
0
 10
-30.2963
 20
38.9695
 11
-30.2811
 21
38.9734
  0
LINE
  8
0
 10
-30.2811
 20
38.9734
 11
-30.2032
 21
38.9833
  0
LINE
  8
0
 10
-30.2032
 20
38.9833
 11
-30.1255
 21
38.9947
  0
LINE
  8
0
 10
-30.1255
 20
38.9947
 11
-30.1098
 21
38.9951
  0
LINE
  8
0
 10
-30.1098
 20
38.9951
 11
-30.0942
 21
38.997
  0
LINE
  8
0
 10
-30.0942
 20
38.997
 11
-30.0157
 21
38.997
  0
LINE
  8
0
 10
-30.0157
 20
38.997
 11
-29.9372
 21
38.9987
  0
LINE
  8
0
 10
-29.9372
 20
38.9987
 11
-29.9215
 21
38.997
  0
LINE
  8
0
 10
-29.9215
 20
38.997
 11
-29.9058
 21
38.997
  0
LINE
  8
0
 10
-29.9058
 20
38.997
 11
-29.8279
 21
38.9872
  0
LINE
  8
0
 10
-29.8279
 20
38.9872
 11
-29.7498
 21
38.979
  0
LINE
  8
0
 10
-29.7498
 20
38.979
 11
-29.7345
 21
38.9754
  0
LINE
  8
0
 10
-29.7345
 20
38.9754
 11
-29.7189
 21
38.9734
  0
LINE
  8
0
 10
-29.7189
 20
38.9734
 11
-29.6429
 21
38.9539
  0
LINE
  8
0
 10
-29.6429
 20
38.9539
 11
-29.5665
 21
38.936
  0
LINE
  8
0
 10
-29.5665
 20
38.936
 11
-29.5517
 21
38.9305
  0
LINE
  8
0
 10
-29.5517
 20
38.9305
 11
-29.5365
 21
38.9266
  0
LINE
  8
0
 10
-29.5365
 20
38.9266
 11
-29.4635
 21
38.8977
  0
LINE
  8
0
 10
-29.4635
 20
38.8977
 11
-29.3899
 21
38.8703
  0
LINE
  8
0
 10
-29.3899
 20
38.8703
 11
-29.3759
 21
38.863
  0
LINE
  8
0
 10
-29.3759
 20
38.863
 11
-29.3613
 21
38.8572
  0
LINE
  8
0
 10
-29.3613
 20
38.8572
 11
-29.2925
 21
38.8194
  0
LINE
  8
0
 10
-29.2925
 20
38.8194
 11
-29.2229
 21
38.783
  0
LINE
  8
0
 10
-29.2229
 20
38.783
 11
-29.21
 21
38.7741
  0
LINE
  8
0
 10
-29.21
 20
38.7741
 11
-29.1963
 21
38.7665
  0
LINE
  8
0
 10
-29.1963
 20
38.7665
 11
-29.1328
 21
38.7204
  0
LINE
  8
0
 10
-29.1328
 20
38.7204
 11
-29.0683
 21
38.6755
  0
LINE
  8
0
 10
-29.0683
 20
38.6755
 11
-29.0566
 21
38.665
  0
LINE
  8
0
 10
-29.0566
 20
38.665
 11
-29.0439
 21
38.6558
  0
LINE
  8
0
 10
-29.0439
 20
38.6558
 11
-28.9866
 21
38.602
  0
LINE
  8
0
 10
-28.9866
 20
38.602
 11
-28.9283
 21
38.5495
  0
LINE
  8
0
 10
-28.9283
 20
38.5495
 11
-28.918
 21
38.5376
  0
LINE
  8
0
 10
-28.918
 20
38.5376
 11
-28.9065
 21
38.5268
  0
LINE
  8
0
 10
-28.9065
 20
38.5268
 11
-28.8565
 21
38.4663
  0
LINE
  8
0
 10
-28.8565
 20
38.4663
 11
-28.8052
 21
38.4069
  0
LINE
  8
0
 10
-28.8052
 20
38.4069
 11
-28.7965
 21
38.3938
  0
LINE
  8
0
 10
-28.7965
 20
38.3938
 11
-28.7865
 21
38.3817
  0
LINE
  8
0
 10
-28.7865
 20
38.3817
 11
-28.7444
 21
38.3154
  0
LINE
  8
0
 10
-28.7444
 20
38.3154
 11
-28.701
 21
38.25
  0
LINE
  8
0
 10
-28.701
 20
38.25
 11
-28.694
 21
38.2359
  0
LINE
  8
0
 10
-28.694
 20
38.2359
 11
-28.6855
 21
38.2226
  0
LINE
  8
0
 10
-28.6855
 20
38.2226
 11
-28.6521
 21
38.1516
  0
LINE
  8
0
 10
-28.6521
 20
38.1516
 11
-28.6172
 21
38.0813
  0
LINE
  8
0
 10
-28.6172
 20
38.0813
 11
-28.612
 21
38.0664
  0
LINE
  8
0
 10
-28.612
 20
38.0664
 11
-28.6053
 21
38.0522
  0
LINE
  8
0
 10
-28.6053
 20
38.0522
 11
-28.5811
 21
37.9775
  0
LINE
  8
0
 10
-28.5811
 20
37.9775
 11
-28.5553
 21
37.9034
  0
LINE
  8
0
 10
-28.5553
 20
37.9034
 11
-28.552
 21
37.888
  0
LINE
  8
0
 10
-28.552
 20
37.888
 11
-28.5471
 21
37.873
  0
LINE
  8
0
 10
-28.5471
 20
37.873
 11
-28.5324
 21
37.7959
  0
LINE
  8
0
 10
-28.5324
 20
37.7959
 11
-28.5161
 21
37.7191
  0
LINE
  8
0
 10
-28.5161
 20
37.7191
 11
-28.5148
 21
37.7034
  0
LINE
  8
0
 10
-28.5148
 20
37.7034
 11
-28.5118
 21
37.688
  0
LINE
  8
0
 10
-28.5118
 20
37.688
 11
-28.5069
 21
37.6096
  0
LINE
  8
0
 10
-28.5069
 20
37.6096
 11
-28.5003
 21
37.5314
  0
LINE
  8
0
 10
-28.5003
 20
37.5314
 11
-28.501
 21
37.5157
  0
LINE
  8
0
 10
-28.501
 20
37.5157
 11
-28.5
 21
37.5
  0
LINE
  8
0
 10
-28.5
 20
37.5
 11
-28.5049
 21
37.4217
  0
LINE
  8
0
 10
-28.5049
 20
37.4217
 11
-28.5082
 21
37.3432
  0
LINE
  8
0
 10
-28.5082
 20
37.3432
 11
-28.5108
 21
37.3277
  0
LINE
  8
0
 10
-28.5108
 20
37.3277
 11
-28.5118
 21
37.312
  0
LINE
  8
0
 10
-28.5118
 20
37.312
 11
-28.5265
 21
37.2349
  0
LINE
  8
0
 10
-28.5265
 20
37.2349
 11
-28.5396
 21
37.1575
  0
LINE
  8
0
 10
-28.5396
 20
37.1575
 11
-28.5442
 21
37.1424
  0
LINE
  8
0
 10
-28.5442
 20
37.1424
 11
-28.5471
 21
37.127
  0
LINE
  8
0
 10
-28.5471
 20
37.127
 11
-28.5714
 21
37.0523
  0
LINE
  8
0
 10
-28.5714
 20
37.0523
 11
-28.5941
 21
36.9771
  0
LINE
  8
0
 10
-28.5941
 20
36.9771
 11
-28.6005
 21
36.9628
  0
LINE
  8
0
 10
-28.6005
 20
36.9628
 11
-28.6053
 21
36.9478
  0
LINE
  8
0
 10
-28.6053
 20
36.9478
 11
-28.6387
 21
36.8768
  0
LINE
  8
0
 10
-28.6387
 20
36.8768
 11
-28.6707
 21
36.8051
  0
LINE
  8
0
 10
-28.6707
 20
36.8051
 11
-28.6788
 21
36.7916
  0
LINE
  8
0
 10
-28.6788
 20
36.7916
 11
-28.6855
 21
36.7774
  0
LINE
  8
0
 10
-28.6855
 20
36.7774
 11
-28.7276
 21
36.7111
  0
LINE
  8
0
 10
-28.7276
 20
36.7111
 11
-28.7683
 21
36.6439
  0
LINE
  8
0
 10
-28.7683
 20
36.6439
 11
-28.778
 21
36.6316
  0
LINE
  8
0
 10
-28.778
 20
36.6316
 11
-28.7865
 21
36.6183
  0
LINE
  8
0
 10
-28.7865
 20
36.6183
 11
-28.8365
 21
36.5578
  0
LINE
  8
0
 10
-28.8365
 20
36.5578
 11
-28.8853
 21
36.4963
  0
LINE
  8
0
 10
-28.8853
 20
36.4963
 11
-28.8965
 21
36.4853
  0
LINE
  8
0
 10
-28.8965
 20
36.4853
 11
-28.9065
 21
36.4732
  0
LINE
  8
0
 10
-28.9065
 20
36.4732
 11
-28.9638
 21
36.4194
  0
LINE
  8
0
 10
-28.9638
 20
36.4194
 11
-29.0199
 21
36.3645
  0
LINE
  8
0
 10
-29.0199
 20
36.3645
 11
-29.0324
 21
36.355
  0
LINE
  8
0
 10
-29.0324
 20
36.355
 11
-29.0439
 21
36.3442
  0
LINE
  8
0
 10
-29.0439
 20
36.3442
 11
-29.1074
 21
36.2981
  0
LINE
  8
0
 10
-29.1074
 20
36.2981
 11
-29.1699
 21
36.2506
  0
LINE
  8
0
 10
-29.1699
 20
36.2506
 11
-29.1835
 21
36.2428
  0
LINE
  8
0
 10
-29.1835
 20
36.2428
 11
-29.1963
 21
36.2335
  0
LINE
  8
0
 10
-29.1963
 20
36.2335
 11
-29.265
 21
36.1957
  0
LINE
  8
0
 10
-29.265
 20
36.1957
 11
-29.333
 21
36.1564
  0
LINE
  8
0
 10
-29.333
 20
36.1564
 11
-29.3475
 21
36.1503
  0
LINE
  8
0
 10
-29.3475
 20
36.1503
 11
-29.3613
 21
36.1427
  0
LINE
  8
0
 10
-29.3613
 20
36.1427
 11
-29.4343
 21
36.1139
  0
LINE
  8
0
 10
-29.4343
 20
36.1139
 11
-29.5067
 21
36.0834
  0
LINE
  8
0
 10
-29.5067
 20
36.0834
 11
-29.5219
 21
36.0792
  0
LINE
  8
0
 10
-29.5219
 20
36.0792
 11
-29.5365
 21
36.0734
  0
LINE
  8
0
 10
-29.5365
 20
36.0734
 11
-29.6125
 21
36.0539
  0
LINE
  8
0
 10
-29.6125
 20
36.0539
 11
-29.6881
 21
36.0328
  0
LINE
  8
0
 10
-29.6881
 20
36.0328
 11
-29.7037
 21
36.0305
  0
LINE
  8
0
 10
-29.7037
 20
36.0305
 11
-29.7189
 21
36.0266
  0
LINE
  8
0
 10
-29.7189
 20
36.0266
 11
-29.7968
 21
36.0167
  0
LINE
  8
0
 10
-29.7968
 20
36.0167
 11
-29.8745
 21
36.0052
  0
LINE
  8
0
 10
-29.8745
 20
36.0052
 11
-29.8902
 21
36.0049
  0
LINE
  8
0
 10
-29.8902
 20
36.0049
 11
-29.9058
 21
36.0029
  0
LINE
  8
0
 10
-29.9058
 20
36.0029
 11
-29.9843
 21
36.0029
  0
LINE
  8
0
 10
-29.9843
 20
36.0029
 11
-30.0628
 21
36.0013
  0
LINE
  8
0
 10
-30.0628
 20
36.0013
 11
-30.0784
 21
36.0029
  0
LINE
  8
0
 10
59.5
 20
15.5
 11
59.4606
 21
16.1267
  0
LINE
  8
0
 10
59.4606
 20
16.1267
 11
59.3429
 21
16.7434
  0
LINE
  8
0
 10
59.3429
 20
16.7434
 11
59.1489
 21
17.3406
  0
LINE
  8
0
 10
59.1489
 20
17.3406
 11
58.8815
 21
17.9088
  0
LINE
  8
0
 10
58.8815
 20
17.9088
 11
58.5451
 21
18.4389
  0
LINE
  8
0
 10
58.5451
 20
18.4389
 11
58.1448
 21
18.9227
  0
LINE
  8
0
 10
58.1448
 20
18.9227
 11
57.6871
 21
19.3526
  0
LINE
  8
0
 10
57.6871
 20
19.3526
 11
57.1791
 21
19.7216
  0
LINE
  8
0
 10
57.1791
 20
19.7216
 11
56.6289
 21
20.0241
  0
LINE
  8
0
 10
56.6289
 20
20.0241
 11
56.0451
 21
20.2553
  0
LINE
  8
0
 10
56.0451
 20
20.2553
 11
55.4369
 21
20.4114
  0
LINE
  8
0
 10
55.4369
 20
20.4114
 11
54.8139
 21
20.4901
  0
LINE
  8
0
 10
54.8139
 20
20.4901
 11
-54.8139
 21
20.4901
  0
LINE
  8
0
 10
-54.8139
 20
20.4901
 11
-55.4369
 21
20.4114
  0
LINE
  8
0
 10
-55.4369
 20
20.4114
 11
-56.0451
 21
20.2553
  0
LINE
  8
0
 10
-56.0451
 20
20.2553
 11
-56.6289
 21
20.0241
  0
LINE
  8
0
 10
-56.6289
 20
20.0241
 11
-57.1791
 21
19.7216
  0
LINE
  8
0
 10
-57.1791
 20
19.7216
 11
-57.6871
 21
19.3526
  0
LINE
  8
0
 10
-57.6871
 20
19.3526
 11
-58.1448
 21
18.9227
  0
LINE
  8
0
 10
-58.1448
 20
18.9227
 11
-58.5451
 21
18.4389
  0
LINE
  8
0
 10
-58.5451
 20
18.4389
 11
-58.8815
 21
17.9088
  0
LINE
  8
0
 10
-58.8815
 20
17.9088
 11
-59.1489
 21
17.3406
  0
LINE
  8
0
 10
-59.1489
 20
17.3406
 11
-59.3429
 21
16.7434
  0
LINE
  8
0
 10
-59.3429
 20
16.7434
 11
-59.4606
 21
16.1267
  0
LINE
  8
0
 10
-59.4606
 20
16.1267
 11
-59.5
 21
15.5
  0
LINE
  8
0
 10
-59.5
 20
15.5
 11
-59.5
 21
0
  0
LINE
  8
0
 10
-59.5
 20
0
 11
59.5
 21
0
  0
LINE
  8
0
 10
59.5
 20
0
 11
59.5
 21
15.5
  0
LINE
  8
0
 10
37.3116
 20
10.5059
 11
36.9379
 21
10.5531
  0
LINE
  8
0
 10
36.9379
 20
10.5531
 11
36.5729
 21
10.6468
  0
LINE
  8
0
 10
36.5729
 20
10.6468
 11
36.2227
 21
10.7855
  0
LINE
  8
0
 10
36.2227
 20
10.7855
 11
35.8925
 21
10.967
  0
LINE
  8
0
 10
35.8925
 20
10.967
 11
35.5877
 21
11.1884
  0
LINE
  8
0
 10
35.5877
 20
11.1884
 11
35.3131
 21
11.4464
  0
LINE
  8
0
 10
35.3131
 20
11.4464
 11
35.0729
 21
11.7366
  0
LINE
  8
0
 10
35.0729
 20
11.7366
 11
34.8711
 21
12.0547
  0
LINE
  8
0
 10
34.8711
 20
12.0547
 11
34.7107
 21
12.3956
  0
LINE
  8
0
 10
34.7107
 20
12.3956
 11
34.5942
 21
12.7539
  0
LINE
  8
0
 10
34.5942
 20
12.7539
 11
34.5237
 21
13.124
  0
LINE
  8
0
 10
34.5237
 20
13.124
 11
34.5
 21
13.5
  0
LINE
  8
0
 10
34.5
 20
13.5
 11
34.5237
 21
13.876
  0
LINE
  8
0
 10
34.5237
 20
13.876
 11
34.5942
 21
14.2461
  0
LINE
  8
0
 10
34.5942
 20
14.2461
 11
34.7107
 21
14.6044
  0
LINE
  8
0
 10
34.7107
 20
14.6044
 11
34.8711
 21
14.9453
  0
LINE
  8
0
 10
34.8711
 20
14.9453
 11
35.0729
 21
15.2634
  0
LINE
  8
0
 10
35.0729
 20
15.2634
 11
35.3131
 21
15.5536
  0
LINE
  8
0
 10
35.3131
 20
15.5536
 11
35.5877
 21
15.8115
  0
LINE
  8
0
 10
35.5877
 20
15.8115
 11
35.8925
 21
16.033
  0
LINE
  8
0
 10
35.8925
 20
16.033
 11
36.2227
 21
16.2145
  0
LINE
  8
0
 10
36.2227
 20
16.2145
 11
36.5729
 21
16.3532
  0
LINE
  8
0
 10
36.5729
 20
16.3532
 11
36.9379
 21
16.4469
  0
LINE
  8
0
 10
36.9379
 20
16.4469
 11
37.3116
 21
16.4941
  0
LINE
  8
0
 10
37.3116
 20
16.4941
 11
37.6884
 21
16.4941
  0
LINE
  8
0
 10
37.6884
 20
16.4941
 11
38.0621
 21
16.4469
  0
LINE
  8
0
 10
38.0621
 20
16.4469
 11
38.427
 21
16.3532
  0
LINE
  8
0
 10
38.427
 20
16.3532
 11
38.7773
 21
16.2145
  0
LINE
  8
0
 10
38.7773
 20
16.2145
 11
39.1075
 21
16.033
  0
LINE
  8
0
 10
39.1075
 20
16.033
 11
39.4123
 21
15.8115
  0
LINE
  8
0
 10
39.4123
 20
15.8115
 11
39.6869
 21
15.5536
  0
LINE
  8
0
 10
39.6869
 20
15.5536
 11
39.927
 21
15.2634
  0
LINE
  8
0
 10
39.927
 20
15.2634
 11
40.1289
 21
14.9453
  0
LINE
  8
0
 10
40.1289
 20
14.9453
 11
40.2893
 21
14.6044
  0
LINE
  8
0
 10
40.2893
 20
14.6044
 11
40.4057
 21
14.2461
  0
LINE
  8
0
 10
40.4057
 20
14.2461
 11
40.4763
 21
13.876
  0
LINE
  8
0
 10
40.4763
 20
13.876
 11
40.5
 21
13.5
  0
LINE
  8
0
 10
40.5
 20
13.5
 11
40.4763
 21
13.124
  0
LINE
  8
0
 10
40.4763
 20
13.124
 11
40.4057
 21
12.7539
  0
LINE
  8
0
 10
40.4057
 20
12.7539
 11
40.2893
 21
12.3956
  0
LINE
  8
0
 10
40.2893
 20
12.3956
 11
40.1289
 21
12.0547
  0
LINE
  8
0
 10
40.1289
 20
12.0547
 11
39.927
 21
11.7366
  0
LINE
  8
0
 10
39.927
 20
11.7366
 11
39.6869
 21
11.4464
  0
LINE
  8
0
 10
39.6869
 20
11.4464
 11
39.4123
 21
11.1884
  0
LINE
  8
0
 10
39.4123
 20
11.1884
 11
39.1075
 21
10.967
  0
LINE
  8
0
 10
39.1075
 20
10.967
 11
38.7773
 21
10.7855
  0
LINE
  8
0
 10
38.7773
 20
10.7855
 11
38.427
 21
10.6468
  0
LINE
  8
0
 10
38.427
 20
10.6468
 11
38.0621
 21
10.5531
  0
LINE
  8
0
 10
38.0621
 20
10.5531
 11
37.6884
 21
10.5059
  0
LINE
  8
0
 10
37.6884
 20
10.5059
 11
37.3116
 21
10.5059
  0
LINE
  8
0
 10
-7.68837
 20
10.5059
 11
-8.06213
 21
10.5531
  0
LINE
  8
0
 10
-8.06213
 20
10.5531
 11
-8.42705
 21
10.6468
  0
LINE
  8
0
 10
-8.42705
 20
10.6468
 11
-8.77733
 21
10.7855
  0
LINE
  8
0
 10
-8.77733
 20
10.7855
 11
-9.10747
 21
10.967
  0
LINE
  8
0
 10
-9.10747
 20
10.967
 11
-9.41226
 21
11.1884
  0
LINE
  8
0
 10
-9.41226
 20
11.1884
 11
-9.6869
 21
11.4464
  0
LINE
  8
0
 10
-9.6869
 20
11.4464
 11
-9.92705
 21
11.7366
  0
LINE
  8
0
 10
-9.92705
 20
11.7366
 11
-10.1289
 21
12.0547
  0
LINE
  8
0
 10
-10.1289
 20
12.0547
 11
-10.2893
 21
12.3956
  0
LINE
  8
0
 10
-10.2893
 20
12.3956
 11
-10.4057
 21
12.7539
  0
LINE
  8
0
 10
-10.4057
 20
12.7539
 11
-10.4763
 21
13.124
  0
LINE
  8
0
 10
-10.4763
 20
13.124
 11
-10.5
 21
13.5
  0
LINE
  8
0
 10
-10.5
 20
13.5
 11
-10.4763
 21
13.876
  0
LINE
  8
0
 10
-10.4763
 20
13.876
 11
-10.4057
 21
14.2461
  0
LINE
  8
0
 10
-10.4057
 20
14.2461
 11
-10.2893
 21
14.6044
  0
LINE
  8
0
 10
-10.2893
 20
14.6044
 11
-10.1289
 21
14.9453
  0
LINE
  8
0
 10
-10.1289
 20
14.9453
 11
-9.92705
 21
15.2634
  0
LINE
  8
0
 10
-9.92705
 20
15.2634
 11
-9.6869
 21
15.5536
  0
LINE
  8
0
 10
-9.6869
 20
15.5536
 11
-9.41226
 21
15.8115
  0
LINE
  8
0
 10
-9.41226
 20
15.8115
 11
-9.10747
 21
16.033
  0
LINE
  8
0
 10
-9.10747
 20
16.033
 11
-8.77733
 21
16.2145
  0
LINE
  8
0
 10
-8.77733
 20
16.2145
 11
-8.42705
 21
16.3532
  0
LINE
  8
0
 10
-8.42705
 20
16.3532
 11
-8.06213
 21
16.4469
  0
LINE
  8
0
 10
-8.06213
 20
16.4469
 11
-7.68837
 21
16.4941
  0
LINE
  8
0
 10
-7.68837
 20
16.4941
 11
-7.31161
 21
16.4941
  0
LINE
  8
0
 10
-7.31161
 20
16.4941
 11
-6.93785
 21
16.4469
  0
LINE
  8
0
 10
-6.93785
 20
16.4469
 11
-6.57294
 21
16.3532
  0
LINE
  8
0
 10
-6.57294
 20
16.3532
 11
-6.22266
 21
16.2145
  0
LINE
  8
0
 10
-6.22266
 20
16.2145
 11
-5.89252
 21
16.033
  0
LINE
  8
0
 10
-5.89252
 20
16.033
 11
-5.58772
 21
15.8115
  0
LINE
  8
0
 10
-5.58772
 20
15.8115
 11
-5.31308
 21
15.5536
  0
LINE
  8
0
 10
-5.31308
 20
15.5536
 11
-5.07294
 21
15.2634
  0
LINE
  8
0
 10
-5.07294
 20
15.2634
 11
-4.87108
 21
14.9453
  0
LINE
  8
0
 10
-4.87108
 20
14.9453
 11
-4.71066
 21
14.6044
  0
LINE
  8
0
 10
-4.71066
 20
14.6044
 11
-4.59424
 21
14.2461
  0
LINE
  8
0
 10
-4.59424
 20
14.2461
 11
-4.52365
 21
13.876
  0
LINE
  8
0
 10
-4.52365
 20
13.876
 11
-4.5
 21
13.5
  0
LINE
  8
0
 10
-4.5
 20
13.5
 11
-4.52365
 21
13.124
  0
LINE
  8
0
 10
-4.52365
 20
13.124
 11
-4.59424
 21
12.7539
  0
LINE
  8
0
 10
-4.59424
 20
12.7539
 11
-4.71066
 21
12.3956
  0
LINE
  8
0
 10
-4.71066
 20
12.3956
 11
-4.87108
 21
12.0547
  0
LINE
  8
0
 10
-4.87108
 20
12.0547
 11
-5.07294
 21
11.7366
  0
LINE
  8
0
 10
-5.07294
 20
11.7366
 11
-5.31308
 21
11.4464
  0
LINE
  8
0
 10
-5.31308
 20
11.4464
 11
-5.58772
 21
11.1884
  0
LINE
  8
0
 10
-5.58772
 20
11.1884
 11
-5.89252
 21
10.967
  0
LINE
  8
0
 10
-5.89252
 20
10.967
 11
-6.22266
 21
10.7855
  0
LINE
  8
0
 10
-6.22266
 20
10.7855
 11
-6.57294
 21
10.6468
  0
LINE
  8
0
 10
-6.57294
 20
10.6468
 11
-6.93785
 21
10.5531
  0
LINE
  8
0
 10
-6.93785
 20
10.5531
 11
-7.31161
 21
10.5059
  0
LINE
  8
0
 10
-7.31161
 20
10.5059
 11
-7.68837
 21
10.5059
  0
LINE
  8
0
 10
22.3116
 20
10.5059
 11
21.9379
 21
10.5531
  0
LINE
  8
0
 10
21.9379
 20
10.5531
 11
21.5729
 21
10.6468
  0
LINE
  8
0
 10
21.5729
 20
10.6468
 11
21.2227
 21
10.7855
  0
LINE
  8
0
 10
21.2227
 20
10.7855
 11
20.8925
 21
10.967
  0
LINE
  8
0
 10
20.8925
 20
10.967
 11
20.5877
 21
11.1884
  0
LINE
  8
0
 10
20.5877
 20
11.1884
 11
20.3131
 21
11.4464
  0
LINE
  8
0
 10
20.3131
 20
11.4464
 11
20.0729
 21
11.7366
  0
LINE
  8
0
 10
20.0729
 20
11.7366
 11
19.8711
 21
12.0547
  0
LINE
  8
0
 10
19.8711
 20
12.0547
 11
19.7107
 21
12.3956
  0
LINE
  8
0
 10
19.7107
 20
12.3956
 11
19.5942
 21
12.7539
  0
LINE
  8
0
 10
19.5942
 20
12.7539
 11
19.5237
 21
13.124
  0
LINE
  8
0
 10
19.5237
 20
13.124
 11
19.5
 21
13.5
  0
LINE
  8
0
 10
19.5
 20
13.5
 11
19.5237
 21
13.876
  0
LINE
  8
0
 10
19.5237
 20
13.876
 11
19.5942
 21
14.2461
  0
LINE
  8
0
 10
19.5942
 20
14.2461
 11
19.7107
 21
14.6044
  0
LINE
  8
0
 10
19.7107
 20
14.6044
 11
19.8711
 21
14.9453
  0
LINE
  8
0
 10
19.8711
 20
14.9453
 11
20.0729
 21
15.2634
  0
LINE
  8
0
 10
20.0729
 20
15.2634
 11
20.3131
 21
15.5536
  0
LINE
  8
0
 10
20.3131
 20
15.5536
 11
20.5877
 21
15.8115
  0
LINE
  8
0
 10
20.5877
 20
15.8115
 11
20.8925
 21
16.033
  0
LINE
  8
0
 10
20.8925
 20
16.033
 11
21.2227
 21
16.2145
  0
LINE
  8
0
 10
21.2227
 20
16.2145
 11
21.5729
 21
16.3532
  0
LINE
  8
0
 10
21.5729
 20
16.3532
 11
21.9379
 21
16.4469
  0
LINE
  8
0
 10
21.9379
 20
16.4469
 11
22.3116
 21
16.4941
  0
LINE
  8
0
 10
22.3116
 20
16.4941
 11
22.6884
 21
16.4941
  0
LINE
  8
0
 10
22.6884
 20
16.4941
 11
23.0621
 21
16.4469
  0
LINE
  8
0
 10
23.0621
 20
16.4469
 11
23.427
 21
16.3532
  0
LINE
  8
0
 10
23.427
 20
16.3532
 11
23.7773
 21
16.2145
  0
LINE
  8
0
 10
23.7773
 20
16.2145
 11
24.1075
 21
16.033
  0
LINE
  8
0
 10
24.1075
 20
16.033
 11
24.4123
 21
15.8115
  0
LINE
  8
0
 10
24.4123
 20
15.8115
 11
24.6869
 21
15.5536
  0
LINE
  8
0
 10
24.6869
 20
15.5536
 11
24.927
 21
15.2634
  0
LINE
  8
0
 10
24.927
 20
15.2634
 11
25.1289
 21
14.9453
  0
LINE
  8
0
 10
25.1289
 20
14.9453
 11
25.2893
 21
14.6044
  0
LINE
  8
0
 10
25.2893
 20
14.6044
 11
25.4057
 21
14.2461
  0
LINE
  8
0
 10
25.4057
 20
14.2461
 11
25.4763
 21
13.876
  0
LINE
  8
0
 10
25.4763
 20
13.876
 11
25.5
 21
13.5
  0
LINE
  8
0
 10
25.5
 20
13.5
 11
25.4763
 21
13.124
  0
LINE
  8
0
 10
25.4763
 20
13.124
 11
25.4057
 21
12.7539
  0
LINE
  8
0
 10
25.4057
 20
12.7539
 11
25.2893
 21
12.3956
  0
LINE
  8
0
 10
25.2893
 20
12.3956
 11
25.1289
 21
12.0547
  0
LINE
  8
0
 10
25.1289
 20
12.0547
 11
24.927
 21
11.7366
  0
LINE
  8
0
 10
24.927
 20
11.7366
 11
24.6869
 21
11.4464
  0
LINE
  8
0
 10
24.6869
 20
11.4464
 11
24.4123
 21
11.1884
  0
LINE
  8
0
 10
24.4123
 20
11.1884
 11
24.1075
 21
10.967
  0
LINE
  8
0
 10
24.1075
 20
10.967
 11
23.7773
 21
10.7855
  0
LINE
  8
0
 10
23.7773
 20
10.7855
 11
23.427
 21
10.6468
  0
LINE
  8
0
 10
23.427
 20
10.6468
 11
23.0621
 21
10.5531
  0
LINE
  8
0
 10
23.0621
 20
10.5531
 11
22.6884
 21
10.5059
  0
LINE
  8
0
 10
22.6884
 20
10.5059
 11
22.3116
 21
10.5059
  0
LINE
  8
0
 10
52.3116
 20
10.5059
 11
51.9379
 21
10.5531
  0
LINE
  8
0
 10
51.9379
 20
10.5531
 11
51.5729
 21
10.6468
  0
LINE
  8
0
 10
51.5729
 20
10.6468
 11
51.2227
 21
10.7855
  0
LINE
  8
0
 10
51.2227
 20
10.7855
 11
50.8925
 21
10.967
  0
LINE
  8
0
 10
50.8925
 20
10.967
 11
50.5877
 21
11.1884
  0
LINE
  8
0
 10
50.5877
 20
11.1884
 11
50.3131
 21
11.4464
  0
LINE
  8
0
 10
50.3131
 20
11.4464
 11
50.0729
 21
11.7366
  0
LINE
  8
0
 10
50.0729
 20
11.7366
 11
49.8711
 21
12.0547
  0
LINE
  8
0
 10
49.8711
 20
12.0547
 11
49.7107
 21
12.3956
  0
LINE
  8
0
 10
49.7107
 20
12.3956
 11
49.5942
 21
12.7539
  0
LINE
  8
0
 10
49.5942
 20
12.7539
 11
49.5237
 21
13.124
  0
LINE
  8
0
 10
49.5237
 20
13.124
 11
49.5
 21
13.5
  0
LINE
  8
0
 10
49.5
 20
13.5
 11
49.5237
 21
13.876
  0
LINE
  8
0
 10
49.5237
 20
13.876
 11
49.5942
 21
14.2461
  0
LINE
  8
0
 10
49.5942
 20
14.2461
 11
49.7107
 21
14.6044
  0
LINE
  8
0
 10
49.7107
 20
14.6044
 11
49.8711
 21
14.9453
  0
LINE
  8
0
 10
49.8711
 20
14.9453
 11
50.0729
 21
15.2634
  0
LINE
  8
0
 10
50.0729
 20
15.2634
 11
50.3131
 21
15.5536
  0
LINE
  8
0
 10
50.3131
 20
15.5536
 11
50.5877
 21
15.8115
  0
LINE
  8
0
 10
50.5877
 20
15.8115
 11
50.8925
 21
16.033
  0
LINE
  8
0
 10
50.8925
 20
16.033
 11
51.2227
 21
16.2145
  0
LINE
  8
0
 10
51.2227
 20
16.2145
 11
51.5729
 21
16.3532
  0
LINE
  8
0
 10
51.5729
 20
16.3532
 11
51.9379
 21
16.4469
  0
LINE
  8
0
 10
51.9379
 20
16.4469
 11
52.3116
 21
16.4941
  0
LINE
  8
0
 10
52.3116
 20
16.4941
 11
52.6884
 21
16.4941
  0
LINE
  8
0
 10
52.6884
 20
16.4941
 11
53.0621
 21
16.4469
  0
LINE
  8
0
 10
53.0621
 20
16.4469
 11
53.427
 21
16.3532
  0
LINE
  8
0
 10
53.427
 20
16.3532
 11
53.7773
 21
16.2145
  0
LINE
  8
0
 10
53.7773
 20
16.2145
 11
54.1075
 21
16.033
  0
LINE
  8
0
 10
54.1075
 20
16.033
 11
54.4123
 21
15.8115
  0
LINE
  8
0
 10
54.4123
 20
15.8115
 11
54.6869
 21
15.5536
  0
LINE
  8
0
 10
54.6869
 20
15.5536
 11
54.927
 21
15.2634
  0
LINE
  8
0
 10
54.927
 20
15.2634
 11
55.1289
 21
14.9453
  0
LINE
  8
0
 10
55.1289
 20
14.9453
 11
55.2893
 21
14.6044
  0
LINE
  8
0
 10
55.2893
 20
14.6044
 11
55.4057
 21
14.2461
  0
LINE
  8
0
 10
55.4057
 20
14.2461
 11
55.4763
 21
13.876
  0
LINE
  8
0
 10
55.4763
 20
13.876
 11
55.5
 21
13.5
  0
LINE
  8
0
 10
55.5
 20
13.5
 11
55.4763
 21
13.124
  0
LINE
  8
0
 10
55.4763
 20
13.124
 11
55.4057
 21
12.7539
  0
LINE
  8
0
 10
55.4057
 20
12.7539
 11
55.2893
 21
12.3956
  0
LINE
  8
0
 10
55.2893
 20
12.3956
 11
55.1289
 21
12.0547
  0
LINE
  8
0
 10
55.1289
 20
12.0547
 11
54.927
 21
11.7366
  0
LINE
  8
0
 10
54.927
 20
11.7366
 11
54.6869
 21
11.4464
  0
LINE
  8
0
 10
54.6869
 20
11.4464
 11
54.4123
 21
11.1884
  0
LINE
  8
0
 10
54.4123
 20
11.1884
 11
54.1075
 21
10.967
  0
LINE
  8
0
 10
54.1075
 20
10.967
 11
53.7773
 21
10.7855
  0
LINE
  8
0
 10
53.7773
 20
10.7855
 11
53.427
 21
10.6468
  0
LINE
  8
0
 10
53.427
 20
10.6468
 11
53.0621
 21
10.5531
  0
LINE
  8
0
 10
53.0621
 20
10.5531
 11
52.6884
 21
10.5059
  0
LINE
  8
0
 10
52.6884
 20
10.5059
 11
52.3116
 21
10.5059
  0
LINE
  8
0
 10
-22.6884
 20
10.5059
 11
-23.0621
 21
10.5531
  0
LINE
  8
0
 10
-23.0621
 20
10.5531
 11
-23.427
 21
10.6468
  0
LINE
  8
0
 10
-23.427
 20
10.6468
 11
-23.7773
 21
10.7855
  0
LINE
  8
0
 10
-23.7773
 20
10.7855
 11
-24.1075
 21
10.967
  0
LINE
  8
0
 10
-24.1075
 20
10.967
 11
-24.4123
 21
11.1884
  0
LINE
  8
0
 10
-24.4123
 20
11.1884
 11
-24.6869
 21
11.4464
  0
LINE
  8
0
 10
-24.6869
 20
11.4464
 11
-24.927
 21
11.7366
  0
LINE
  8
0
 10
-24.927
 20
11.7366
 11
-25.1289
 21
12.0547
  0
LINE
  8
0
 10
-25.1289
 20
12.0547
 11
-25.2893
 21
12.3956
  0
LINE
  8
0
 10
-25.2893
 20
12.3956
 11
-25.4057
 21
12.7539
  0
LINE
  8
0
 10
-25.4057
 20
12.7539
 11
-25.4763
 21
13.124
  0
LINE
  8
0
 10
-25.4763
 20
13.124
 11
-25.5
 21
13.5
  0
LINE
  8
0
 10
-25.5
 20
13.5
 11
-25.4763
 21
13.876
  0
LINE
  8
0
 10
-25.4763
 20
13.876
 11
-25.4057
 21
14.2461
  0
LINE
  8
0
 10
-25.4057
 20
14.2461
 11
-25.2893
 21
14.6044
  0
LINE
  8
0
 10
-25.2893
 20
14.6044
 11
-25.1289
 21
14.9453
  0
LINE
  8
0
 10
-25.1289
 20
14.9453
 11
-24.927
 21
15.2634
  0
LINE
  8
0
 10
-24.927
 20
15.2634
 11
-24.6869
 21
15.5536
  0
LINE
  8
0
 10
-24.6869
 20
15.5536
 11
-24.4123
 21
15.8115
  0
LINE
  8
0
 10
-24.4123
 20
15.8115
 11
-24.1075
 21
16.033
  0
LINE
  8
0
 10
-24.1075
 20
16.033
 11
-23.7773
 21
16.2145
  0
LINE
  8
0
 10
-23.7773
 20
16.2145
 11
-23.427
 21
16.3532
  0
LINE
  8
0
 10
-23.427
 20
16.3532
 11
-23.0621
 21
16.4469
  0
LINE
  8
0
 10
-23.0621
 20
16.4469
 11
-22.6884
 21
16.4941
  0
LINE
  8
0
 10
-22.6884
 20
16.4941
 11
-22.3116
 21
16.4941
  0
LINE
  8
0
 10
-22.3116
 20
16.4941
 11
-21.9379
 21
16.4469
  0
LINE
  8
0
 10
-21.9379
 20
16.4469
 11
-21.5729
 21
16.3532
  0
LINE
  8
0
 10
-21.5729
 20
16.3532
 11
-21.2227
 21
16.2145
  0
LINE
  8
0
 10
-21.2227
 20
16.2145
 11
-20.8925
 21
16.033
  0
LINE
  8
0
 10
-20.8925
 20
16.033
 11
-20.5877
 21
15.8115
  0
LINE
  8
0
 10
-20.5877
 20
15.8115
 11
-20.3131
 21
15.5536
  0
LINE
  8
0
 10
-20.3131
 20
15.5536
 11
-20.0729
 21
15.2634
  0
LINE
  8
0
 10
-20.0729
 20
15.2634
 11
-19.8711
 21
14.9453
  0
LINE
  8
0
 10
-19.8711
 20
14.9453
 11
-19.7107
 21
14.6044
  0
LINE
  8
0
 10
-19.7107
 20
14.6044
 11
-19.5942
 21
14.2461
  0
LINE
  8
0
 10
-19.5942
 20
14.2461
 11
-19.5237
 21
13.876
  0
LINE
  8
0
 10
-19.5237
 20
13.876
 11
-19.5
 21
13.5
  0
LINE
  8
0
 10
-19.5
 20
13.5
 11
-19.5237
 21
13.124
  0
LINE
  8
0
 10
-19.5237
 20
13.124
 11
-19.5942
 21
12.7539
  0
LINE
  8
0
 10
-19.5942
 20
12.7539
 11
-19.7107
 21
12.3956
  0
LINE
  8
0
 10
-19.7107
 20
12.3956
 11
-19.8711
 21
12.0547
  0
LINE
  8
0
 10
-19.8711
 20
12.0547
 11
-20.0729
 21
11.7366
  0
LINE
  8
0
 10
-20.0729
 20
11.7366
 11
-20.3131
 21
11.4464
  0
LINE
  8
0
 10
-20.3131
 20
11.4464
 11
-20.5877
 21
11.1884
  0
LINE
  8
0
 10
-20.5877
 20
11.1884
 11
-20.8925
 21
10.967
  0
LINE
  8
0
 10
-20.8925
 20
10.967
 11
-21.2227
 21
10.7855
  0
LINE
  8
0
 10
-21.2227
 20
10.7855
 11
-21.5729
 21
10.6468
  0
LINE
  8
0
 10
-21.5729
 20
10.6468
 11
-21.9379
 21
10.5531
  0
LINE
  8
0
 10
-21.9379
 20
10.5531
 11
-22.3116
 21
10.5059
  0
LINE
  8
0
 10
-22.3116
 20
10.5059
 11
-22.6884
 21
10.5059
  0
LINE
  8
0
 10
-37.6884
 20
10.5059
 11
-38.0621
 21
10.5531
  0
LINE
  8
0
 10
-38.0621
 20
10.5531
 11
-38.427
 21
10.6468
  0
LINE
  8
0
 10
-38.427
 20
10.6468
 11
-38.7773
 21
10.7855
  0
LINE
  8
0
 10
-38.7773
 20
10.7855
 11
-39.1075
 21
10.967
  0
LINE
  8
0
 10
-39.1075
 20
10.967
 11
-39.4123
 21
11.1884
  0
LINE
  8
0
 10
-39.4123
 20
11.1884
 11
-39.6869
 21
11.4464
  0
LINE
  8
0
 10
-39.6869
 20
11.4464
 11
-39.927
 21
11.7366
  0
LINE
  8
0
 10
-39.927
 20
11.7366
 11
-40.1289
 21
12.0547
  0
LINE
  8
0
 10
-40.1289
 20
12.0547
 11
-40.2893
 21
12.3956
  0
LINE
  8
0
 10
-40.2893
 20
12.3956
 11
-40.4057
 21
12.7539
  0
LINE
  8
0
 10
-40.4057
 20
12.7539
 11
-40.4763
 21
13.124
  0
LINE
  8
0
 10
-40.4763
 20
13.124
 11
-40.5
 21
13.5
  0
LINE
  8
0
 10
-40.5
 20
13.5
 11
-40.4763
 21
13.876
  0
LINE
  8
0
 10
-40.4763
 20
13.876
 11
-40.4057
 21
14.2461
  0
LINE
  8
0
 10
-40.4057
 20
14.2461
 11
-40.2893
 21
14.6044
  0
LINE
  8
0
 10
-40.2893
 20
14.6044
 11
-40.1289
 21
14.9453
  0
LINE
  8
0
 10
-40.1289
 20
14.9453
 11
-39.927
 21
15.2634
  0
LINE
  8
0
 10
-39.927
 20
15.2634
 11
-39.6869
 21
15.5536
  0
LINE
  8
0
 10
-39.6869
 20
15.5536
 11
-39.4123
 21
15.8115
  0
LINE
  8
0
 10
-39.4123
 20
15.8115
 11
-39.1075
 21
16.033
  0
LINE
  8
0
 10
-39.1075
 20
16.033
 11
-38.7773
 21
16.2145
  0
LINE
  8
0
 10
-38.7773
 20
16.2145
 11
-38.427
 21
16.3532
  0
LINE
  8
0
 10
-38.427
 20
16.3532
 11
-38.0621
 21
16.4469
  0
LINE
  8
0
 10
-38.0621
 20
16.4469
 11
-37.6884
 21
16.4941
  0
LINE
  8
0
 10
-37.6884
 20
16.4941
 11
-37.3116
 21
16.4941
  0
LINE
  8
0
 10
-37.3116
 20
16.4941
 11
-36.9379
 21
16.4469
  0
LINE
  8
0
 10
-36.9379
 20
16.4469
 11
-36.5729
 21
16.3532
  0
LINE
  8
0
 10
-36.5729
 20
16.3532
 11
-36.2227
 21
16.2145
  0
LINE
  8
0
 10
-36.2227
 20
16.2145
 11
-35.8925
 21
16.033
  0
LINE
  8
0
 10
-35.8925
 20
16.033
 11
-35.5877
 21
15.8115
  0
LINE
  8
0
 10
-35.5877
 20
15.8115
 11
-35.3131
 21
15.5536
  0
LINE
  8
0
 10
-35.3131
 20
15.5536
 11
-35.0729
 21
15.2634
  0
LINE
  8
0
 10
-35.0729
 20
15.2634
 11
-34.8711
 21
14.9453
  0
LINE
  8
0
 10
-34.8711
 20
14.9453
 11
-34.7107
 21
14.6044
  0
LINE
  8
0
 10
-34.7107
 20
14.6044
 11
-34.5942
 21
14.2461
  0
LINE
  8
0
 10
-34.5942
 20
14.2461
 11
-34.5237
 21
13.876
  0
LINE
  8
0
 10
-34.5237
 20
13.876
 11
-34.5
 21
13.5
  0
LINE
  8
0
 10
-34.5
 20
13.5
 11
-34.5237
 21
13.124
  0
LINE
  8
0
 10
-34.5237
 20
13.124
 11
-34.5942
 21
12.7539
  0
LINE
  8
0
 10
-34.5942
 20
12.7539
 11
-34.7107
 21
12.3956
  0
LINE
  8
0
 10
-34.7107
 20
12.3956
 11
-34.8711
 21
12.0547
  0
LINE
  8
0
 10
-34.8711
 20
12.0547
 11
-35.0729
 21
11.7366
  0
LINE
  8
0
 10
-35.0729
 20
11.7366
 11
-35.3131
 21
11.4464
  0
LINE
  8
0
 10
-35.3131
 20
11.4464
 11
-35.5877
 21
11.1884
  0
LINE
  8
0
 10
-35.5877
 20
11.1884
 11
-35.8925
 21
10.967
  0
LINE
  8
0
 10
-35.8925
 20
10.967
 11
-36.2227
 21
10.7855
  0
LINE
  8
0
 10
-36.2227
 20
10.7855
 11
-36.5729
 21
10.6468
  0
LINE
  8
0
 10
-36.5729
 20
10.6468
 11
-36.9379
 21
10.5531
  0
LINE
  8
0
 10
-36.9379
 20
10.5531
 11
-37.3116
 21
10.5059
  0
LINE
  8
0
 10
-37.3116
 20
10.5059
 11
-37.6884
 21
10.5059
  0
LINE
  8
0
 10
-52.6884
 20
10.5059
 11
-53.0621
 21
10.5531
  0
LINE
  8
0
 10
-53.0621
 20
10.5531
 11
-53.427
 21
10.6468
  0
LINE
  8
0
 10
-53.427
 20
10.6468
 11
-53.7773
 21
10.7855
  0
LINE
  8
0
 10
-53.7773
 20
10.7855
 11
-54.1075
 21
10.967
  0
LINE
  8
0
 10
-54.1075
 20
10.967
 11
-54.4123
 21
11.1884
  0
LINE
  8
0
 10
-54.4123
 20
11.1884
 11
-54.6869
 21
11.4464
  0
LINE
  8
0
 10
-54.6869
 20
11.4464
 11
-54.927
 21
11.7366
  0
LINE
  8
0
 10
-54.927
 20
11.7366
 11
-55.1289
 21
12.0547
  0
LINE
  8
0
 10
-55.1289
 20
12.0547
 11
-55.2893
 21
12.3956
  0
LINE
  8
0
 10
-55.2893
 20
12.3956
 11
-55.4057
 21
12.7539
  0
LINE
  8
0
 10
-55.4057
 20
12.7539
 11
-55.4763
 21
13.124
  0
LINE
  8
0
 10
-55.4763
 20
13.124
 11
-55.5
 21
13.5
  0
LINE
  8
0
 10
-55.5
 20
13.5
 11
-55.4763
 21
13.876
  0
LINE
  8
0
 10
-55.4763
 20
13.876
 11
-55.4057
 21
14.2461
  0
LINE
  8
0
 10
-55.4057
 20
14.2461
 11
-55.2893
 21
14.6044
  0
LINE
  8
0
 10
-55.2893
 20
14.6044
 11
-55.1289
 21
14.9453
  0
LINE
  8
0
 10
-55.1289
 20
14.9453
 11
-54.927
 21
15.2634
  0
LINE
  8
0
 10
-54.927
 20
15.2634
 11
-54.6869
 21
15.5536
  0
LINE
  8
0
 10
-54.6869
 20
15.5536
 11
-54.4123
 21
15.8115
  0
LINE
  8
0
 10
-54.4123
 20
15.8115
 11
-54.1075
 21
16.033
  0
LINE
  8
0
 10
-54.1075
 20
16.033
 11
-53.7773
 21
16.2145
  0
LINE
  8
0
 10
-53.7773
 20
16.2145
 11
-53.427
 21
16.3532
  0
LINE
  8
0
 10
-53.427
 20
16.3532
 11
-53.0621
 21
16.4469
  0
LINE
  8
0
 10
-53.0621
 20
16.4469
 11
-52.6884
 21
16.4941
  0
LINE
  8
0
 10
-52.6884
 20
16.4941
 11
-52.3116
 21
16.4941
  0
LINE
  8
0
 10
-52.3116
 20
16.4941
 11
-51.9379
 21
16.4469
  0
LINE
  8
0
 10
-51.9379
 20
16.4469
 11
-51.5729
 21
16.3532
  0
LINE
  8
0
 10
-51.5729
 20
16.3532
 11
-51.2227
 21
16.2145
  0
LINE
  8
0
 10
-51.2227
 20
16.2145
 11
-50.8925
 21
16.033
  0
LINE
  8
0
 10
-50.8925
 20
16.033
 11
-50.5877
 21
15.8115
  0
LINE
  8
0
 10
-50.5877
 20
15.8115
 11
-50.3131
 21
15.5536
  0
LINE
  8
0
 10
-50.3131
 20
15.5536
 11
-50.0729
 21
15.2634
  0
LINE
  8
0
 10
-50.0729
 20
15.2634
 11
-49.8711
 21
14.9453
  0
LINE
  8
0
 10
-49.8711
 20
14.9453
 11
-49.7107
 21
14.6044
  0
LINE
  8
0
 10
-49.7107
 20
14.6044
 11
-49.5942
 21
14.2461
  0
LINE
  8
0
 10
-49.5942
 20
14.2461
 11
-49.5237
 21
13.876
  0
LINE
  8
0
 10
-49.5237
 20
13.876
 11
-49.5
 21
13.5
  0
LINE
  8
0
 10
-49.5
 20
13.5
 11
-49.5237
 21
13.124
  0
LINE
  8
0
 10
-49.5237
 20
13.124
 11
-49.5942
 21
12.7539
  0
LINE
  8
0
 10
-49.5942
 20
12.7539
 11
-49.7107
 21
12.3956
  0
LINE
  8
0
 10
-49.7107
 20
12.3956
 11
-49.8711
 21
12.0547
  0
LINE
  8
0
 10
-49.8711
 20
12.0547
 11
-50.0729
 21
11.7366
  0
LINE
  8
0
 10
-50.0729
 20
11.7366
 11
-50.3131
 21
11.4464
  0
LINE
  8
0
 10
-50.3131
 20
11.4464
 11
-50.5877
 21
11.1884
  0
LINE
  8
0
 10
-50.5877
 20
11.1884
 11
-50.8925
 21
10.967
  0
LINE
  8
0
 10
-50.8925
 20
10.967
 11
-51.2227
 21
10.7855
  0
LINE
  8
0
 10
-51.2227
 20
10.7855
 11
-51.5729
 21
10.6468
  0
LINE
  8
0
 10
-51.5729
 20
10.6468
 11
-51.9379
 21
10.5531
  0
LINE
  8
0
 10
-51.9379
 20
10.5531
 11
-52.3116
 21
10.5059
  0
LINE
  8
0
 10
-52.3116
 20
10.5059
 11
-52.6884
 21
10.5059
  0
LINE
  8
0
 10
7.31161
 20
10.5059
 11
6.93785
 21
10.5531
  0
LINE
  8
0
 10
6.93785
 20
10.5531
 11
6.57294
 21
10.6468
  0
LINE
  8
0
 10
6.57294
 20
10.6468
 11
6.22266
 21
10.7855
  0
LINE
  8
0
 10
6.22266
 20
10.7855
 11
5.89252
 21
10.967
  0
LINE
  8
0
 10
5.89252
 20
10.967
 11
5.58772
 21
11.1884
  0
LINE
  8
0
 10
5.58772
 20
11.1884
 11
5.31308
 21
11.4464
  0
LINE
  8
0
 10
5.31308
 20
11.4464
 11
5.07294
 21
11.7366
  0
LINE
  8
0
 10
5.07294
 20
11.7366
 11
4.87108
 21
12.0547
  0
LINE
  8
0
 10
4.87108
 20
12.0547
 11
4.71066
 21
12.3956
  0
LINE
  8
0
 10
4.71066
 20
12.3956
 11
4.59424
 21
12.7539
  0
LINE
  8
0
 10
4.59424
 20
12.7539
 11
4.52365
 21
13.124
  0
LINE
  8
0
 10
4.52365
 20
13.124
 11
4.5
 21
13.5
  0
LINE
  8
0
 10
4.5
 20
13.5
 11
4.52365
 21
13.876
  0
LINE
  8
0
 10
4.52365
 20
13.876
 11
4.59424
 21
14.2461
  0
LINE
  8
0
 10
4.59424
 20
14.2461
 11
4.71066
 21
14.6044
  0
LINE
  8
0
 10
4.71066
 20
14.6044
 11
4.87108
 21
14.9453
  0
LINE
  8
0
 10
4.87108
 20
14.9453
 11
5.07294
 21
15.2634
  0
LINE
  8
0
 10
5.07294
 20
15.2634
 11
5.31308
 21
15.5536
  0
LINE
  8
0
 10
5.31308
 20
15.5536
 11
5.58772
 21
15.8115
  0
LINE
  8
0
 10
5.58772
 20
15.8115
 11
5.89252
 21
16.033
  0
LINE
  8
0
 10
5.89252
 20
16.033
 11
6.22266
 21
16.2145
  0
LINE
  8
0
 10
6.22266
 20
16.2145
 11
6.57294
 21
16.3532
  0
LINE
  8
0
 10
6.57294
 20
16.3532
 11
6.93785
 21
16.4469
  0
LINE
  8
0
 10
6.93785
 20
16.4469
 11
7.31161
 21
16.4941
  0
LINE
  8
0
 10
7.31161
 20
16.4941
 11
7.68837
 21
16.4941
  0
LINE
  8
0
 10
7.68837
 20
16.4941
 11
8.06213
 21
16.4469
  0
LINE
  8
0
 10
8.06213
 20
16.4469
 11
8.42705
 21
16.3532
  0
LINE
  8
0
 10
8.42705
 20
16.3532
 11
8.77733
 21
16.2145
  0
LINE
  8
0
 10
8.77733
 20
16.2145
 11
9.10747
 21
16.033
  0
LINE
  8
0
 10
9.10747
 20
16.033
 11
9.41226
 21
15.8115
  0
LINE
  8
0
 10
9.41226
 20
15.8115
 11
9.6869
 21
15.5536
  0
LINE
  8
0
 10
9.6869
 20
15.5536
 11
9.92705
 21
15.2634
  0
LINE
  8
0
 10
9.92705
 20
15.2634
 11
10.1289
 21
14.9453
  0
LINE
  8
0
 10
10.1289
 20
14.9453
 11
10.2893
 21
14.6044
  0
LINE
  8
0
 10
10.2893
 20
14.6044
 11
10.4057
 21
14.2461
  0
LINE
  8
0
 10
10.4057
 20
14.2461
 11
10.4763
 21
13.876
  0
LINE
  8
0
 10
10.4763
 20
13.876
 11
10.5
 21
13.5
  0
LINE
  8
0
 10
10.5
 20
13.5
 11
10.4763
 21
13.124
  0
LINE
  8
0
 10
10.4763
 20
13.124
 11
10.4057
 21
12.7539
  0
LINE
  8
0
 10
10.4057
 20
12.7539
 11
10.2893
 21
12.3956
  0
LINE
  8
0
 10
10.2893
 20
12.3956
 11
10.1289
 21
12.0547
  0
LINE
  8
0
 10
10.1289
 20
12.0547
 11
9.92705
 21
11.7366
  0
LINE
  8
0
 10
9.92705
 20
11.7366
 11
9.6869
 21
11.4464
  0
LINE
  8
0
 10
9.6869
 20
11.4464
 11
9.41226
 21
11.1884
  0
LINE
  8
0
 10
9.41226
 20
11.1884
 11
9.10747
 21
10.967
  0
LINE
  8
0
 10
9.10747
 20
10.967
 11
8.77733
 21
10.7855
  0
LINE
  8
0
 10
8.77733
 20
10.7855
 11
8.42705
 21
10.6468
  0
LINE
  8
0
 10
8.42705
 20
10.6468
 11
8.06213
 21
10.5531
  0
LINE
  8
0
 10
8.06213
 20
10.5531
 11
7.68837
 21
10.5059
  0
LINE
  8
0
 10
7.68837
 20
10.5059
 11
7.31161
 21
10.5059
  0
LINE
  8
0
 10
-15.4002
 20
11.1336
 11
-15.6937
 21
11.2024
  0
LINE
  8
0
 10
-15.6937
 20
11.2024
 11
-15.9762
 21
11.3075
  0
LINE
  8
0
 10
-15.9762
 20
11.3075
 11
-16.2433
 21
11.4471
  0
LINE
  8
0
 10
-16.2433
 20
11.4471
 11
-16.4908
 21
11.6191
  0
LINE
  8
0
 10
-16.4908
 20
11.6191
 11
-16.7147
 21
11.8208
  0
LINE
  8
0
 10
-16.7147
 20
11.8208
 11
-16.9117
 21
12.049
  0
LINE
  8
0
 10
-16.9117
 20
12.049
 11
-17.0785
 21
12.3
  0
LINE
  8
0
 10
-17.0785
 20
12.3
 11
-17.2125
 21
12.57
  0
LINE
  8
0
 10
-17.2125
 20
12.57
 11
-17.3116
 21
12.8546
  0
LINE
  8
0
 10
-17.3116
 20
12.8546
 11
-17.3743
 21
13.1494
  0
LINE
  8
0
 10
-17.3743
 20
13.1494
 11
-17.3995
 21
13.4497
  0
LINE
  8
0
 10
-17.3995
 20
13.4497
 11
-17.3868
 21
13.7509
  0
LINE
  8
0
 10
-17.3868
 20
13.7509
 11
-17.3366
 21
14.048
  0
LINE
  8
0
 10
-17.3366
 20
14.048
 11
-17.2495
 21
14.3366
  0
LINE
  8
0
 10
-17.2495
 20
14.3366
 11
-17.1269
 21
14.6119
  0
LINE
  8
0
 10
-17.1269
 20
14.6119
 11
-16.9707
 21
14.8697
  0
LINE
  8
0
 10
-16.9707
 20
14.8697
 11
-16.7835
 21
15.1059
  0
LINE
  8
0
 10
-16.7835
 20
15.1059
 11
-16.5682
 21
15.3168
  0
LINE
  8
0
 10
-16.5682
 20
15.3168
 11
-16.3281
 21
15.499
  0
LINE
  8
0
 10
-16.3281
 20
15.499
 11
-16.0671
 21
15.6497
  0
LINE
  8
0
 10
-16.0671
 20
15.6497
 11
-15.7893
 21
15.7665
  0
LINE
  8
0
 10
-15.7893
 20
15.7665
 11
-15.499
 21
15.8475
  0
LINE
  8
0
 10
-15.499
 20
15.8475
 11
-15.2008
 21
15.8916
  0
LINE
  8
0
 10
-15.2008
 20
15.8916
 11
-14.8995
 21
15.8979
  0
LINE
  8
0
 10
-14.8995
 20
15.8979
 11
-14.5997
 21
15.8664
  0
LINE
  8
0
 10
-14.5997
 20
15.8664
 11
-14.3063
 21
15.7976
  0
LINE
  8
0
 10
-14.3063
 20
15.7976
 11
-14.0238
 21
15.6925
  0
LINE
  8
0
 10
-14.0238
 20
15.6925
 11
-13.7567
 21
15.5529
  0
LINE
  8
0
 10
-13.7567
 20
15.5529
 11
-13.5092
 21
15.3809
  0
LINE
  8
0
 10
-13.5092
 20
15.3809
 11
-13.2853
 21
15.1792
  0
LINE
  8
0
 10
-13.2853
 20
15.1792
 11
-13.0883
 21
14.951
  0
LINE
  8
0
 10
-13.0883
 20
14.951
 11
-12.9215
 21
14.7
  0
LINE
  8
0
 10
-12.9215
 20
14.7
 11
-12.7875
 21
14.43
  0
LINE
  8
0
 10
-12.7875
 20
14.43
 11
-12.6884
 21
14.1454
  0
LINE
  8
0
 10
-12.6884
 20
14.1454
 11
-12.6257
 21
13.8506
  0
LINE
  8
0
 10
-12.6257
 20
13.8506
 11
-12.6005
 21
13.5502
  0
LINE
  8
0
 10
-12.6005
 20
13.5502
 11
-12.6131
 21
13.2491
  0
LINE
  8
0
 10
-12.6131
 20
13.2491
 11
-12.6634
 21
12.952
  0
LINE
  8
0
 10
-12.6634
 20
12.952
 11
-12.7505
 21
12.6634
  0
LINE
  8
0
 10
-12.7505
 20
12.6634
 11
-12.8731
 21
12.3881
  0
LINE
  8
0
 10
-12.8731
 20
12.3881
 11
-13.0292
 21
12.1303
  0
LINE
  8
0
 10
-13.0292
 20
12.1303
 11
-13.2164
 21
11.8941
  0
LINE
  8
0
 10
-13.2164
 20
11.8941
 11
-13.4318
 21
11.6832
  0
LINE
  8
0
 10
-13.4318
 20
11.6832
 11
-13.6719
 21
11.501
  0
LINE
  8
0
 10
-13.6719
 20
11.501
 11
-13.9329
 21
11.3503
  0
LINE
  8
0
 10
-13.9329
 20
11.3503
 11
-14.2107
 21
11.2335
  0
LINE
  8
0
 10
-14.2107
 20
11.2335
 11
-14.501
 21
11.1524
  0
LINE
  8
0
 10
-14.501
 20
11.1524
 11
-14.7992
 21
11.1084
  0
LINE
  8
0
 10
-14.7992
 20
11.1084
 11
-15.1005
 21
11.1021
  0
LINE
  8
0
 10
-15.1005
 20
11.1021
 11
-15.4002
 21
11.1336
  0
LINE
  8
0
 10
-45.4002
 20
11.1336
 11
-45.6937
 21
11.2024
  0
LINE
  8
0
 10
-45.6937
 20
11.2024
 11
-45.9762
 21
11.3075
  0
LINE
  8
0
 10
-45.9762
 20
11.3075
 11
-46.2433
 21
11.4471
  0
LINE
  8
0
 10
-46.2433
 20
11.4471
 11
-46.4908
 21
11.6191
  0
LINE
  8
0
 10
-46.4908
 20
11.6191
 11
-46.7147
 21
11.8208
  0
LINE
  8
0
 10
-46.7147
 20
11.8208
 11
-46.9117
 21
12.049
  0
LINE
  8
0
 10
-46.9117
 20
12.049
 11
-47.0785
 21
12.3
  0
LINE
  8
0
 10
-47.0785
 20
12.3
 11
-47.2125
 21
12.57
  0
LINE
  8
0
 10
-47.2125
 20
12.57
 11
-47.3116
 21
12.8546
  0
LINE
  8
0
 10
-47.3116
 20
12.8546
 11
-47.3743
 21
13.1494
  0
LINE
  8
0
 10
-47.3743
 20
13.1494
 11
-47.3995
 21
13.4497
  0
LINE
  8
0
 10
-47.3995
 20
13.4497
 11
-47.3868
 21
13.7509
  0
LINE
  8
0
 10
-47.3868
 20
13.7509
 11
-47.3366
 21
14.048
  0
LINE
  8
0
 10
-47.3366
 20
14.048
 11
-47.2495
 21
14.3366
  0
LINE
  8
0
 10
-47.2495
 20
14.3366
 11
-47.1269
 21
14.6119
  0
LINE
  8
0
 10
-47.1269
 20
14.6119
 11
-46.9707
 21
14.8697
  0
LINE
  8
0
 10
-46.9707
 20
14.8697
 11
-46.7835
 21
15.1059
  0
LINE
  8
0
 10
-46.7835
 20
15.1059
 11
-46.5682
 21
15.3168
  0
LINE
  8
0
 10
-46.5682
 20
15.3168
 11
-46.3281
 21
15.499
  0
LINE
  8
0
 10
-46.3281
 20
15.499
 11
-46.0671
 21
15.6497
  0
LINE
  8
0
 10
-46.0671
 20
15.6497
 11
-45.7893
 21
15.7665
  0
LINE
  8
0
 10
-45.7893
 20
15.7665
 11
-45.499
 21
15.8475
  0
LINE
  8
0
 10
-45.499
 20
15.8475
 11
-45.2008
 21
15.8916
  0
LINE
  8
0
 10
-45.2008
 20
15.8916
 11
-44.8995
 21
15.8979
  0
LINE
  8
0
 10
-44.8995
 20
15.8979
 11
-44.5997
 21
15.8664
  0
LINE
  8
0
 10
-44.5997
 20
15.8664
 11
-44.3063
 21
15.7976
  0
LINE
  8
0
 10
-44.3063
 20
15.7976
 11
-44.0238
 21
15.6925
  0
LINE
  8
0
 10
-44.0238
 20
15.6925
 11
-43.7567
 21
15.5529
  0
LINE
  8
0
 10
-43.7567
 20
15.5529
 11
-43.5092
 21
15.3809
  0
LINE
  8
0
 10
-43.5092
 20
15.3809
 11
-43.2853
 21
15.1792
  0
LINE
  8
0
 10
-43.2853
 20
15.1792
 11
-43.0883
 21
14.951
  0
LINE
  8
0
 10
-43.0883
 20
14.951
 11
-42.9215
 21
14.7
  0
LINE
  8
0
 10
-42.9215
 20
14.7
 11
-42.7875
 21
14.43
  0
LINE
  8
0
 10
-42.7875
 20
14.43
 11
-42.6884
 21
14.1454
  0
LINE
  8
0
 10
-42.6884
 20
14.1454
 11
-42.6257
 21
13.8506
  0
LINE
  8
0
 10
-42.6257
 20
13.8506
 11
-42.6005
 21
13.5502
  0
LINE
  8
0
 10
-42.6005
 20
13.5502
 11
-42.6131
 21
13.2491
  0
LINE
  8
0
 10
-42.6131
 20
13.2491
 11
-42.6634
 21
12.952
  0
LINE
  8
0
 10
-42.6634
 20
12.952
 11
-42.7505
 21
12.6634
  0
LINE
  8
0
 10
-42.7505
 20
12.6634
 11
-42.8731
 21
12.3881
  0
LINE
  8
0
 10
-42.8731
 20
12.3881
 11
-43.0292
 21
12.1303
  0
LINE
  8
0
 10
-43.0292
 20
12.1303
 11
-43.2164
 21
11.8941
  0
LINE
  8
0
 10
-43.2164
 20
11.8941
 11
-43.4318
 21
11.6832
  0
LINE
  8
0
 10
-43.4318
 20
11.6832
 11
-43.6719
 21
11.501
  0
LINE
  8
0
 10
-43.6719
 20
11.501
 11
-43.9329
 21
11.3503
  0
LINE
  8
0
 10
-43.9329
 20
11.3503
 11
-44.2107
 21
11.2335
  0
LINE
  8
0
 10
-44.2107
 20
11.2335
 11
-44.501
 21
11.1524
  0
LINE
  8
0
 10
-44.501
 20
11.1524
 11
-44.7992
 21
11.1084
  0
LINE
  8
0
 10
-44.7992
 20
11.1084
 11
-45.1005
 21
11.1021
  0
LINE
  8
0
 10
-45.1005
 20
11.1021
 11
-45.4002
 21
11.1336
  0
LINE
  8
0
 10
-30.4002
 20
11.1336
 11
-30.6937
 21
11.2024
  0
LINE
  8
0
 10
-30.6937
 20
11.2024
 11
-30.9762
 21
11.3075
  0
LINE
  8
0
 10
-30.9762
 20
11.3075
 11
-31.2433
 21
11.4471
  0
LINE
  8
0
 10
-31.2433
 20
11.4471
 11
-31.4908
 21
11.6191
  0
LINE
  8
0
 10
-31.4908
 20
11.6191
 11
-31.7147
 21
11.8208
  0
LINE
  8
0
 10
-31.7147
 20
11.8208
 11
-31.9117
 21
12.049
  0
LINE
  8
0
 10
-31.9117
 20
12.049
 11
-32.0785
 21
12.3
  0
LINE
  8
0
 10
-32.0785
 20
12.3
 11
-32.2125
 21
12.57
  0
LINE
  8
0
 10
-32.2125
 20
12.57
 11
-32.3116
 21
12.8546
  0
LINE
  8
0
 10
-32.3116
 20
12.8546
 11
-32.3743
 21
13.1494
  0
LINE
  8
0
 10
-32.3743
 20
13.1494
 11
-32.3995
 21
13.4497
  0
LINE
  8
0
 10
-32.3995
 20
13.4497
 11
-32.3868
 21
13.7509
  0
LINE
  8
0
 10
-32.3868
 20
13.7509
 11
-32.3366
 21
14.048
  0
LINE
  8
0
 10
-32.3366
 20
14.048
 11
-32.2495
 21
14.3366
  0
LINE
  8
0
 10
-32.2495
 20
14.3366
 11
-32.1269
 21
14.6119
  0
LINE
  8
0
 10
-32.1269
 20
14.6119
 11
-31.9707
 21
14.8697
  0
LINE
  8
0
 10
-31.9707
 20
14.8697
 11
-31.7835
 21
15.1059
  0
LINE
  8
0
 10
-31.7835
 20
15.1059
 11
-31.5682
 21
15.3168
  0
LINE
  8
0
 10
-31.5682
 20
15.3168
 11
-31.3281
 21
15.499
  0
LINE
  8
0
 10
-31.3281
 20
15.499
 11
-31.0671
 21
15.6497
  0
LINE
  8
0
 10
-31.0671
 20
15.6497
 11
-30.7893
 21
15.7665
  0
LINE
  8
0
 10
-30.7893
 20
15.7665
 11
-30.499
 21
15.8475
  0
LINE
  8
0
 10
-30.499
 20
15.8475
 11
-30.2008
 21
15.8916
  0
LINE
  8
0
 10
-30.2008
 20
15.8916
 11
-29.8995
 21
15.8979
  0
LINE
  8
0
 10
-29.8995
 20
15.8979
 11
-29.5997
 21
15.8664
  0
LINE
  8
0
 10
-29.5997
 20
15.8664
 11
-29.3063
 21
15.7976
  0
LINE
  8
0
 10
-29.3063
 20
15.7976
 11
-29.0238
 21
15.6925
  0
LINE
  8
0
 10
-29.0238
 20
15.6925
 11
-28.7567
 21
15.5529
  0
LINE
  8
0
 10
-28.7567
 20
15.5529
 11
-28.5092
 21
15.3809
  0
LINE
  8
0
 10
-28.5092
 20
15.3809
 11
-28.2853
 21
15.1792
  0
LINE
  8
0
 10
-28.2853
 20
15.1792
 11
-28.0883
 21
14.951
  0
LINE
  8
0
 10
-28.0883
 20
14.951
 11
-27.9215
 21
14.7
  0
LINE
  8
0
 10
-27.9215
 20
14.7
 11
-27.7875
 21
14.43
  0
LINE
  8
0
 10
-27.7875
 20
14.43
 11
-27.6884
 21
14.1454
  0
LINE
  8
0
 10
-27.6884
 20
14.1454
 11
-27.6257
 21
13.8506
  0
LINE
  8
0
 10
-27.6257
 20
13.8506
 11
-27.6005
 21
13.5502
  0
LINE
  8
0
 10
-27.6005
 20
13.5502
 11
-27.6131
 21
13.2491
  0
LINE
  8
0
 10
-27.6131
 20
13.2491
 11
-27.6634
 21
12.952
  0
LINE
  8
0
 10
-27.6634
 20
12.952
 11
-27.7505
 21
12.6634
  0
LINE
  8
0
 10
-27.7505
 20
12.6634
 11
-27.8731
 21
12.3881
  0
LINE
  8
0
 10
-27.8731
 20
12.3881
 11
-28.0292
 21
12.1303
  0
LINE
  8
0
 10
-28.0292
 20
12.1303
 11
-28.2164
 21
11.8941
  0
LINE
  8
0
 10
-28.2164
 20
11.8941
 11
-28.4318
 21
11.6832
  0
LINE
  8
0
 10
-28.4318
 20
11.6832
 11
-28.6719
 21
11.501
  0
LINE
  8
0
 10
-28.6719
 20
11.501
 11
-28.9329
 21
11.3503
  0
LINE
  8
0
 10
-28.9329
 20
11.3503
 11
-29.2107
 21
11.2335
  0
LINE
  8
0
 10
-29.2107
 20
11.2335
 11
-29.501
 21
11.1524
  0
LINE
  8
0
 10
-29.501
 20
11.1524
 11
-29.7992
 21
11.1084
  0
LINE
  8
0
 10
-29.7992
 20
11.1084
 11
-30.1005
 21
11.1021
  0
LINE
  8
0
 10
-30.1005
 20
11.1021
 11
-30.4002
 21
11.1336
  0
LINE
  8
0
 10
14.5997
 20
11.1336
 11
14.3063
 21
11.2024
  0
LINE
  8
0
 10
14.3063
 20
11.2024
 11
14.0238
 21
11.3075
  0
LINE
  8
0
 10
14.0238
 20
11.3075
 11
13.7567
 21
11.4471
  0
LINE
  8
0
 10
13.7567
 20
11.4471
 11
13.5092
 21
11.6191
  0
LINE
  8
0
 10
13.5092
 20
11.6191
 11
13.2853
 21
11.8208
  0
LINE
  8
0
 10
13.2853
 20
11.8208
 11
13.0883
 21
12.049
  0
LINE
  8
0
 10
13.0883
 20
12.049
 11
12.9215
 21
12.3
  0
LINE
  8
0
 10
12.9215
 20
12.3
 11
12.7875
 21
12.57
  0
LINE
  8
0
 10
12.7875
 20
12.57
 11
12.6884
 21
12.8546
  0
LINE
  8
0
 10
12.6884
 20
12.8546
 11
12.6257
 21
13.1494
  0
LINE
  8
0
 10
12.6257
 20
13.1494
 11
12.6005
 21
13.4497
  0
LINE
  8
0
 10
12.6005
 20
13.4497
 11
12.6131
 21
13.7509
  0
LINE
  8
0
 10
12.6131
 20
13.7509
 11
12.6634
 21
14.048
  0
LINE
  8
0
 10
12.6634
 20
14.048
 11
12.7505
 21
14.3366
  0
LINE
  8
0
 10
12.7505
 20
14.3366
 11
12.8731
 21
14.6119
  0
LINE
  8
0
 10
12.8731
 20
14.6119
 11
13.0292
 21
14.8697
  0
LINE
  8
0
 10
13.0292
 20
14.8697
 11
13.2164
 21
15.1059
  0
LINE
  8
0
 10
13.2164
 20
15.1059
 11
13.4318
 21
15.3168
  0
LINE
  8
0
 10
13.4318
 20
15.3168
 11
13.6719
 21
15.499
  0
LINE
  8
0
 10
13.6719
 20
15.499
 11
13.9329
 21
15.6497
  0
LINE
  8
0
 10
13.9329
 20
15.6497
 11
14.2107
 21
15.7665
  0
LINE
  8
0
 10
14.2107
 20
15.7665
 11
14.501
 21
15.8475
  0
LINE
  8
0
 10
14.501
 20
15.8475
 11
14.7992
 21
15.8916
  0
LINE
  8
0
 10
14.7992
 20
15.8916
 11
15.1005
 21
15.8979
  0
LINE
  8
0
 10
15.1005
 20
15.8979
 11
15.4002
 21
15.8664
  0
LINE
  8
0
 10
15.4002
 20
15.8664
 11
15.6937
 21
15.7976
  0
LINE
  8
0
 10
15.6937
 20
15.7976
 11
15.9762
 21
15.6925
  0
LINE
  8
0
 10
15.9762
 20
15.6925
 11
16.2433
 21
15.5529
  0
LINE
  8
0
 10
16.2433
 20
15.5529
 11
16.4908
 21
15.3809
  0
LINE
  8
0
 10
16.4908
 20
15.3809
 11
16.7147
 21
15.1792
  0
LINE
  8
0
 10
16.7147
 20
15.1792
 11
16.9117
 21
14.951
  0
LINE
  8
0
 10
16.9117
 20
14.951
 11
17.0785
 21
14.7
  0
LINE
  8
0
 10
17.0785
 20
14.7
 11
17.2125
 21
14.43
  0
LINE
  8
0
 10
17.2125
 20
14.43
 11
17.3116
 21
14.1454
  0
LINE
  8
0
 10
17.3116
 20
14.1454
 11
17.3743
 21
13.8506
  0
LINE
  8
0
 10
17.3743
 20
13.8506
 11
17.3995
 21
13.5502
  0
LINE
  8
0
 10
17.3995
 20
13.5502
 11
17.3868
 21
13.2491
  0
LINE
  8
0
 10
17.3868
 20
13.2491
 11
17.3366
 21
12.952
  0
LINE
  8
0
 10
17.3366
 20
12.952
 11
17.2495
 21
12.6634
  0
LINE
  8
0
 10
17.2495
 20
12.6634
 11
17.1269
 21
12.3881
  0
LINE
  8
0
 10
17.1269
 20
12.3881
 11
16.9707
 21
12.1303
  0
LINE
  8
0
 10
16.9707
 20
12.1303
 11
16.7835
 21
11.8941
  0
LINE
  8
0
 10
16.7835
 20
11.8941
 11
16.5682
 21
11.6832
  0
LINE
  8
0
 10
16.5682
 20
11.6832
 11
16.3281
 21
11.501
  0
LINE
  8
0
 10
16.3281
 20
11.501
 11
16.0671
 21
11.3503
  0
LINE
  8
0
 10
16.0671
 20
11.3503
 11
15.7893
 21
11.2335
  0
LINE
  8
0
 10
15.7893
 20
11.2335
 11
15.499
 21
11.1524
  0
LINE
  8
0
 10
15.499
 20
11.1524
 11
15.2008
 21
11.1084
  0
LINE
  8
0
 10
15.2008
 20
11.1084
 11
14.8995
 21
11.1021
  0
LINE
  8
0
 10
14.8995
 20
11.1021
 11
14.5997
 21
11.1336
  0
LINE
  8
0
 10
44.5997
 20
11.1336
 11
44.3063
 21
11.2024
  0
LINE
  8
0
 10
44.3063
 20
11.2024
 11
44.0238
 21
11.3075
  0
LINE
  8
0
 10
44.0238
 20
11.3075
 11
43.7567
 21
11.4471
  0
LINE
  8
0
 10
43.7567
 20
11.4471
 11
43.5092
 21
11.6191
  0
LINE
  8
0
 10
43.5092
 20
11.6191
 11
43.2853
 21
11.8208
  0
LINE
  8
0
 10
43.2853
 20
11.8208
 11
43.0883
 21
12.049
  0
LINE
  8
0
 10
43.0883
 20
12.049
 11
42.9215
 21
12.3
  0
LINE
  8
0
 10
42.9215
 20
12.3
 11
42.7875
 21
12.57
  0
LINE
  8
0
 10
42.7875
 20
12.57
 11
42.6884
 21
12.8546
  0
LINE
  8
0
 10
42.6884
 20
12.8546
 11
42.6257
 21
13.1494
  0
LINE
  8
0
 10
42.6257
 20
13.1494
 11
42.6005
 21
13.4497
  0
LINE
  8
0
 10
42.6005
 20
13.4497
 11
42.6131
 21
13.7509
  0
LINE
  8
0
 10
42.6131
 20
13.7509
 11
42.6634
 21
14.048
  0
LINE
  8
0
 10
42.6634
 20
14.048
 11
42.7505
 21
14.3366
  0
LINE
  8
0
 10
42.7505
 20
14.3366
 11
42.8731
 21
14.6119
  0
LINE
  8
0
 10
42.8731
 20
14.6119
 11
43.0292
 21
14.8697
  0
LINE
  8
0
 10
43.0292
 20
14.8697
 11
43.2164
 21
15.1059
  0
LINE
  8
0
 10
43.2164
 20
15.1059
 11
43.4318
 21
15.3168
  0
LINE
  8
0
 10
43.4318
 20
15.3168
 11
43.6719
 21
15.499
  0
LINE
  8
0
 10
43.6719
 20
15.499
 11
43.9329
 21
15.6497
  0
LINE
  8
0
 10
43.9329
 20
15.6497
 11
44.2107
 21
15.7665
  0
LINE
  8
0
 10
44.2107
 20
15.7665
 11
44.501
 21
15.8475
  0
LINE
  8
0
 10
44.501
 20
15.8475
 11
44.7992
 21
15.8916
  0
LINE
  8
0
 10
44.7992
 20
15.8916
 11
45.1005
 21
15.8979
  0
LINE
  8
0
 10
45.1005
 20
15.8979
 11
45.4002
 21
15.8664
  0
LINE
  8
0
 10
45.4002
 20
15.8664
 11
45.6937
 21
15.7976
  0
LINE
  8
0
 10
45.6937
 20
15.7976
 11
45.9762
 21
15.6925
  0
LINE
  8
0
 10
45.9762
 20
15.6925
 11
46.2433
 21
15.5529
  0
LINE
  8
0
 10
46.2433
 20
15.5529
 11
46.4908
 21
15.3809
  0
LINE
  8
0
 10
46.4908
 20
15.3809
 11
46.7147
 21
15.1792
  0
LINE
  8
0
 10
46.7147
 20
15.1792
 11
46.9117
 21
14.951
  0
LINE
  8
0
 10
46.9117
 20
14.951
 11
47.0785
 21
14.7
  0
LINE
  8
0
 10
47.0785
 20
14.7
 11
47.2125
 21
14.43
  0
LINE
  8
0
 10
47.2125
 20
14.43
 11
47.3116
 21
14.1454
  0
LINE
  8
0
 10
47.3116
 20
14.1454
 11
47.3743
 21
13.8506
  0
LINE
  8
0
 10
47.3743
 20
13.8506
 11
47.3995
 21
13.5502
  0
LINE
  8
0
 10
47.3995
 20
13.5502
 11
47.3868
 21
13.2491
  0
LINE
  8
0
 10
47.3868
 20
13.2491
 11
47.3366
 21
12.952
  0
LINE
  8
0
 10
47.3366
 20
12.952
 11
47.2495
 21
12.6634
  0
LINE
  8
0
 10
47.2495
 20
12.6634
 11
47.1269
 21
12.3881
  0
LINE
  8
0
 10
47.1269
 20
12.3881
 11
46.9707
 21
12.1303
  0
LINE
  8
0
 10
46.9707
 20
12.1303
 11
46.7835
 21
11.8941
  0
LINE
  8
0
 10
46.7835
 20
11.8941
 11
46.5682
 21
11.6832
  0
LINE
  8
0
 10
46.5682
 20
11.6832
 11
46.3281
 21
11.501
  0
LINE
  8
0
 10
46.3281
 20
11.501
 11
46.0671
 21
11.3503
  0
LINE
  8
0
 10
46.0671
 20
11.3503
 11
45.7893
 21
11.2335
  0
LINE
  8
0
 10
45.7893
 20
11.2335
 11
45.499
 21
11.1524
  0
LINE
  8
0
 10
45.499
 20
11.1524
 11
45.2008
 21
11.1084
  0
LINE
  8
0
 10
45.2008
 20
11.1084
 11
44.8995
 21
11.1021
  0
LINE
  8
0
 10
44.8995
 20
11.1021
 11
44.5997
 21
11.1336
  0
LINE
  8
0
 10
29.9215
 20
12.0029
 11
29.9058
 21
12.0029
  0
LINE
  8
0
 10
29.9058
 20
12.0029
 11
29.8279
 21
12.0128
  0
LINE
  8
0
 10
29.8279
 20
12.0128
 11
29.7498
 21
12.021
  0
LINE
  8
0
 10
29.7498
 20
12.021
 11
29.7345
 21
12.0246
  0
LINE
  8
0
 10
29.7345
 20
12.0246
 11
29.7189
 21
12.0266
  0
LINE
  8
0
 10
29.7189
 20
12.0266
 11
29.6429
 21
12.0461
  0
LINE
  8
0
 10
29.6429
 20
12.0461
 11
29.5665
 21
12.064
  0
LINE
  8
0
 10
29.5665
 20
12.064
 11
29.5517
 21
12.0695
  0
LINE
  8
0
 10
29.5517
 20
12.0695
 11
29.5365
 21
12.0734
  0
LINE
  8
0
 10
29.5365
 20
12.0734
 11
29.4635
 21
12.1023
  0
LINE
  8
0
 10
29.4635
 20
12.1023
 11
29.3899
 21
12.1297
  0
LINE
  8
0
 10
29.3899
 20
12.1297
 11
29.3759
 21
12.137
  0
LINE
  8
0
 10
29.3759
 20
12.137
 11
29.3613
 21
12.1427
  0
LINE
  8
0
 10
29.3613
 20
12.1427
 11
29.2925
 21
12.1806
  0
LINE
  8
0
 10
29.2925
 20
12.1806
 11
29.2229
 21
12.2169
  0
LINE
  8
0
 10
29.2229
 20
12.2169
 11
29.21
 21
12.2259
  0
LINE
  8
0
 10
29.21
 20
12.2259
 11
29.1963
 21
12.2335
  0
LINE
  8
0
 10
29.1963
 20
12.2335
 11
29.1328
 21
12.2796
  0
LINE
  8
0
 10
29.1328
 20
12.2796
 11
29.0683
 21
12.3244
  0
LINE
  8
0
 10
29.0683
 20
12.3244
 11
29.0566
 21
12.335
  0
LINE
  8
0
 10
29.0566
 20
12.335
 11
29.0439
 21
12.3442
  0
LINE
  8
0
 10
29.0439
 20
12.3442
 11
28.9866
 21
12.398
  0
LINE
  8
0
 10
28.9866
 20
12.398
 11
28.9283
 21
12.4505
  0
LINE
  8
0
 10
28.9283
 20
12.4505
 11
28.918
 21
12.4624
  0
LINE
  8
0
 10
28.918
 20
12.4624
 11
28.9065
 21
12.4732
  0
LINE
  8
0
 10
28.9065
 20
12.4732
 11
28.8565
 21
12.5336
  0
LINE
  8
0
 10
28.8565
 20
12.5336
 11
28.8052
 21
12.5931
  0
LINE
  8
0
 10
28.8052
 20
12.5931
 11
28.7965
 21
12.6062
  0
LINE
  8
0
 10
28.7965
 20
12.6062
 11
28.7865
 21
12.6183
  0
LINE
  8
0
 10
28.7865
 20
12.6183
 11
28.7444
 21
12.6846
  0
LINE
  8
0
 10
28.7444
 20
12.6846
 11
28.701
 21
12.75
  0
LINE
  8
0
 10
28.701
 20
12.75
 11
28.694
 21
12.7641
  0
LINE
  8
0
 10
28.694
 20
12.7641
 11
28.6855
 21
12.7774
  0
LINE
  8
0
 10
28.6855
 20
12.7774
 11
28.6521
 21
12.8484
  0
LINE
  8
0
 10
28.6521
 20
12.8484
 11
28.6172
 21
12.9187
  0
LINE
  8
0
 10
28.6172
 20
12.9187
 11
28.612
 21
12.9336
  0
LINE
  8
0
 10
28.612
 20
12.9336
 11
28.6053
 21
12.9478
  0
LINE
  8
0
 10
28.6053
 20
12.9478
 11
28.5811
 21
13.0225
  0
LINE
  8
0
 10
28.5811
 20
13.0225
 11
28.5553
 21
13.0966
  0
LINE
  8
0
 10
28.5553
 20
13.0966
 11
28.552
 21
13.112
  0
LINE
  8
0
 10
28.552
 20
13.112
 11
28.5471
 21
13.127
  0
LINE
  8
0
 10
28.5471
 20
13.127
 11
28.5324
 21
13.2041
  0
LINE
  8
0
 10
28.5324
 20
13.2041
 11
28.5161
 21
13.2809
  0
LINE
  8
0
 10
28.5161
 20
13.2809
 11
28.5148
 21
13.2965
  0
LINE
  8
0
 10
28.5148
 20
13.2965
 11
28.5118
 21
13.312
  0
LINE
  8
0
 10
28.5118
 20
13.312
 11
28.5069
 21
13.3903
  0
LINE
  8
0
 10
28.5069
 20
13.3903
 11
28.5003
 21
13.4686
  0
LINE
  8
0
 10
28.5003
 20
13.4686
 11
28.501
 21
13.4843
  0
LINE
  8
0
 10
28.501
 20
13.4843
 11
28.5
 21
13.5
  0
LINE
  8
0
 10
28.5
 20
13.5
 11
28.5049
 21
13.5783
  0
LINE
  8
0
 10
28.5049
 20
13.5783
 11
28.5082
 21
13.6568
  0
LINE
  8
0
 10
28.5082
 20
13.6568
 11
28.5108
 21
13.6723
  0
LINE
  8
0
 10
28.5108
 20
13.6723
 11
28.5118
 21
13.688
  0
LINE
  8
0
 10
28.5118
 20
13.688
 11
28.5265
 21
13.7651
  0
LINE
  8
0
 10
28.5265
 20
13.7651
 11
28.5396
 21
13.8425
  0
LINE
  8
0
 10
28.5396
 20
13.8425
 11
28.5442
 21
13.8576
  0
LINE
  8
0
 10
28.5442
 20
13.8576
 11
28.5471
 21
13.873
  0
LINE
  8
0
 10
28.5471
 20
13.873
 11
28.5714
 21
13.9477
  0
LINE
  8
0
 10
28.5714
 20
13.9477
 11
28.5941
 21
14.0229
  0
LINE
  8
0
 10
28.5941
 20
14.0229
 11
28.6005
 21
14.0372
  0
LINE
  8
0
 10
28.6005
 20
14.0372
 11
28.6053
 21
14.0522
  0
LINE
  8
0
 10
28.6053
 20
14.0522
 11
28.6387
 21
14.1232
  0
LINE
  8
0
 10
28.6387
 20
14.1232
 11
28.6707
 21
14.1949
  0
LINE
  8
0
 10
28.6707
 20
14.1949
 11
28.6788
 21
14.2084
  0
LINE
  8
0
 10
28.6788
 20
14.2084
 11
28.6855
 21
14.2226
  0
LINE
  8
0
 10
28.6855
 20
14.2226
 11
28.7276
 21
14.2889
  0
LINE
  8
0
 10
28.7276
 20
14.2889
 11
28.7683
 21
14.3561
  0
LINE
  8
0
 10
28.7683
 20
14.3561
 11
28.778
 21
14.3684
  0
LINE
  8
0
 10
28.778
 20
14.3684
 11
28.7865
 21
14.3817
  0
LINE
  8
0
 10
28.7865
 20
14.3817
 11
28.8365
 21
14.4422
  0
LINE
  8
0
 10
28.8365
 20
14.4422
 11
28.8853
 21
14.5037
  0
LINE
  8
0
 10
28.8853
 20
14.5037
 11
28.8965
 21
14.5147
  0
LINE
  8
0
 10
28.8965
 20
14.5147
 11
28.9065
 21
14.5268
  0
LINE
  8
0
 10
28.9065
 20
14.5268
 11
28.9638
 21
14.5806
  0
LINE
  8
0
 10
28.9638
 20
14.5806
 11
29.0199
 21
14.6355
  0
LINE
  8
0
 10
29.0199
 20
14.6355
 11
29.0324
 21
14.645
  0
LINE
  8
0
 10
29.0324
 20
14.645
 11
29.0439
 21
14.6558
  0
LINE
  8
0
 10
29.0439
 20
14.6558
 11
29.1074
 21
14.7019
  0
LINE
  8
0
 10
29.1074
 20
14.7019
 11
29.1699
 21
14.7494
  0
LINE
  8
0
 10
29.1699
 20
14.7494
 11
29.1835
 21
14.7572
  0
LINE
  8
0
 10
29.1835
 20
14.7572
 11
29.1963
 21
14.7665
  0
LINE
  8
0
 10
29.1963
 20
14.7665
 11
29.265
 21
14.8043
  0
LINE
  8
0
 10
29.265
 20
14.8043
 11
29.333
 21
14.8436
  0
LINE
  8
0
 10
29.333
 20
14.8436
 11
29.3475
 21
14.8497
  0
LINE
  8
0
 10
29.3475
 20
14.8497
 11
29.3613
 21
14.8572
  0
LINE
  8
0
 10
29.3613
 20
14.8572
 11
29.4343
 21
14.8861
  0
LINE
  8
0
 10
29.4343
 20
14.8861
 11
29.5067
 21
14.9165
  0
LINE
  8
0
 10
29.5067
 20
14.9165
 11
29.5219
 21
14.9208
  0
LINE
  8
0
 10
29.5219
 20
14.9208
 11
29.5365
 21
14.9266
  0
LINE
  8
0
 10
29.5365
 20
14.9266
 11
29.6125
 21
14.9461
  0
LINE
  8
0
 10
29.6125
 20
14.9461
 11
29.6881
 21
14.9672
  0
LINE
  8
0
 10
29.6881
 20
14.9672
 11
29.7037
 21
14.9695
  0
LINE
  8
0
 10
29.7037
 20
14.9695
 11
29.7189
 21
14.9734
  0
LINE
  8
0
 10
29.7189
 20
14.9734
 11
29.7968
 21
14.9833
  0
LINE
  8
0
 10
29.7968
 20
14.9833
 11
29.8745
 21
14.9947
  0
LINE
  8
0
 10
29.8745
 20
14.9947
 11
29.8902
 21
14.9951
  0
LINE
  8
0
 10
29.8902
 20
14.9951
 11
29.9058
 21
14.997
  0
LINE
  8
0
 10
29.9058
 20
14.997
 11
29.9843
 21
14.997
  0
LINE
  8
0
 10
29.9843
 20
14.997
 11
30.0628
 21
14.9987
  0
LINE
  8
0
 10
30.0628
 20
14.9987
 11
30.0784
 21
14.997
  0
LINE
  8
0
 10
30.0784
 20
14.997
 11
30.0942
 21
14.997
  0
LINE
  8
0
 10
30.0942
 20
14.997
 11
30.1721
 21
14.9872
  0
LINE
  8
0
 10
30.1721
 20
14.9872
 11
30.2502
 21
14.979
  0
LINE
  8
0
 10
30.2502
 20
14.979
 11
30.2655
 21
14.9754
  0
LINE
  8
0
 10
30.2655
 20
14.9754
 11
30.2811
 21
14.9734
  0
LINE
  8
0
 10
30.2811
 20
14.9734
 11
30.3571
 21
14.9539
  0
LINE
  8
0
 10
30.3571
 20
14.9539
 11
30.4335
 21
14.936
  0
LINE
  8
0
 10
30.4335
 20
14.936
 11
30.4483
 21
14.9305
  0
LINE
  8
0
 10
30.4483
 20
14.9305
 11
30.4635
 21
14.9266
  0
LINE
  8
0
 10
30.4635
 20
14.9266
 11
30.5365
 21
14.8977
  0
LINE
  8
0
 10
30.5365
 20
14.8977
 11
30.6101
 21
14.8703
  0
LINE
  8
0
 10
30.6101
 20
14.8703
 11
30.624
 21
14.863
  0
LINE
  8
0
 10
30.624
 20
14.863
 11
30.6387
 21
14.8572
  0
LINE
  8
0
 10
30.6387
 20
14.8572
 11
30.7074
 21
14.8194
  0
LINE
  8
0
 10
30.7074
 20
14.8194
 11
30.777
 21
14.783
  0
LINE
  8
0
 10
30.777
 20
14.783
 11
30.7899
 21
14.7741
  0
LINE
  8
0
 10
30.7899
 20
14.7741
 11
30.8037
 21
14.7665
  0
LINE
  8
0
 10
30.8037
 20
14.7665
 11
30.8672
 21
14.7204
  0
LINE
  8
0
 10
30.8672
 20
14.7204
 11
30.9317
 21
14.6755
  0
LINE
  8
0
 10
30.9317
 20
14.6755
 11
30.9434
 21
14.665
  0
LINE
  8
0
 10
30.9434
 20
14.665
 11
30.9561
 21
14.6558
  0
LINE
  8
0
 10
30.9561
 20
14.6558
 11
31.0134
 21
14.602
  0
LINE
  8
0
 10
31.0134
 20
14.602
 11
31.0717
 21
14.5495
  0
LINE
  8
0
 10
31.0717
 20
14.5495
 11
31.082
 21
14.5376
  0
LINE
  8
0
 10
31.082
 20
14.5376
 11
31.0934
 21
14.5268
  0
LINE
  8
0
 10
31.0934
 20
14.5268
 11
31.1435
 21
14.4663
  0
LINE
  8
0
 10
31.1435
 20
14.4663
 11
31.1948
 21
14.4069
  0
LINE
  8
0
 10
31.1948
 20
14.4069
 11
31.2035
 21
14.3938
  0
LINE
  8
0
 10
31.2035
 20
14.3938
 11
31.2135
 21
14.3817
  0
LINE
  8
0
 10
31.2135
 20
14.3817
 11
31.2556
 21
14.3154
  0
LINE
  8
0
 10
31.2556
 20
14.3154
 11
31.299
 21
14.25
  0
LINE
  8
0
 10
31.299
 20
14.25
 11
31.306
 21
14.2359
  0
LINE
  8
0
 10
31.306
 20
14.2359
 11
31.3145
 21
14.2226
  0
LINE
  8
0
 10
31.3145
 20
14.2226
 11
31.3479
 21
14.1516
  0
LINE
  8
0
 10
31.3479
 20
14.1516
 11
31.3828
 21
14.0813
  0
LINE
  8
0
 10
31.3828
 20
14.0813
 11
31.388
 21
14.0664
  0
LINE
  8
0
 10
31.388
 20
14.0664
 11
31.3947
 21
14.0522
  0
LINE
  8
0
 10
31.3947
 20
14.0522
 11
31.4189
 21
13.9775
  0
LINE
  8
0
 10
31.4189
 20
13.9775
 11
31.4447
 21
13.9034
  0
LINE
  8
0
 10
31.4447
 20
13.9034
 11
31.448
 21
13.888
  0
LINE
  8
0
 10
31.448
 20
13.888
 11
31.4529
 21
13.873
  0
LINE
  8
0
 10
31.4529
 20
13.873
 11
31.4676
 21
13.7959
  0
LINE
  8
0
 10
31.4676
 20
13.7959
 11
31.4839
 21
13.7191
  0
LINE
  8
0
 10
31.4839
 20
13.7191
 11
31.4852
 21
13.7034
  0
LINE
  8
0
 10
31.4852
 20
13.7034
 11
31.4882
 21
13.688
  0
LINE
  8
0
 10
31.4882
 20
13.688
 11
31.4931
 21
13.6096
  0
LINE
  8
0
 10
31.4931
 20
13.6096
 11
31.4997
 21
13.5314
  0
LINE
  8
0
 10
31.4997
 20
13.5314
 11
31.499
 21
13.5157
  0
LINE
  8
0
 10
31.499
 20
13.5157
 11
31.5
 21
13.5
  0
LINE
  8
0
 10
31.5
 20
13.5
 11
31.4951
 21
13.4216
  0
LINE
  8
0
 10
31.4951
 20
13.4216
 11
31.4918
 21
13.3432
  0
LINE
  8
0
 10
31.4918
 20
13.3432
 11
31.4892
 21
13.3277
  0
LINE
  8
0
 10
31.4892
 20
13.3277
 11
31.4882
 21
13.312
  0
LINE
  8
0
 10
31.4882
 20
13.312
 11
31.4734
 21
13.2349
  0
LINE
  8
0
 10
31.4734
 20
13.2349
 11
31.4604
 21
13.1575
  0
LINE
  8
0
 10
31.4604
 20
13.1575
 11
31.4558
 21
13.1424
  0
LINE
  8
0
 10
31.4558
 20
13.1424
 11
31.4529
 21
13.127
  0
LINE
  8
0
 10
31.4529
 20
13.127
 11
31.4286
 21
13.0523
  0
LINE
  8
0
 10
31.4286
 20
13.0523
 11
31.4059
 21
12.9771
  0
LINE
  8
0
 10
31.4059
 20
12.9771
 11
31.3995
 21
12.9628
  0
LINE
  8
0
 10
31.3995
 20
12.9628
 11
31.3947
 21
12.9478
  0
LINE
  8
0
 10
31.3947
 20
12.9478
 11
31.3612
 21
12.8768
  0
LINE
  8
0
 10
31.3612
 20
12.8768
 11
31.3293
 21
12.8051
  0
LINE
  8
0
 10
31.3293
 20
12.8051
 11
31.3212
 21
12.7916
  0
LINE
  8
0
 10
31.3212
 20
12.7916
 11
31.3145
 21
12.7774
  0
LINE
  8
0
 10
31.3145
 20
12.7774
 11
31.2724
 21
12.7111
  0
LINE
  8
0
 10
31.2724
 20
12.7111
 11
31.2317
 21
12.6439
  0
LINE
  8
0
 10
31.2317
 20
12.6439
 11
31.2219
 21
12.6316
  0
LINE
  8
0
 10
31.2219
 20
12.6316
 11
31.2135
 21
12.6183
  0
LINE
  8
0
 10
31.2135
 20
12.6183
 11
31.1635
 21
12.5578
  0
LINE
  8
0
 10
31.1635
 20
12.5578
 11
31.1147
 21
12.4963
  0
LINE
  8
0
 10
31.1147
 20
12.4963
 11
31.1035
 21
12.4853
  0
LINE
  8
0
 10
31.1035
 20
12.4853
 11
31.0934
 21
12.4732
  0
LINE
  8
0
 10
31.0934
 20
12.4732
 11
31.0362
 21
12.4194
  0
LINE
  8
0
 10
31.0362
 20
12.4194
 11
30.9801
 21
12.3645
  0
LINE
  8
0
 10
30.9801
 20
12.3645
 11
30.9676
 21
12.355
  0
LINE
  8
0
 10
30.9676
 20
12.355
 11
30.9561
 21
12.3442
  0
LINE
  8
0
 10
30.9561
 20
12.3442
 11
30.8926
 21
12.2981
  0
LINE
  8
0
 10
30.8926
 20
12.2981
 11
30.8301
 21
12.2506
  0
LINE
  8
0
 10
30.8301
 20
12.2506
 11
30.8165
 21
12.2428
  0
LINE
  8
0
 10
30.8165
 20
12.2428
 11
30.8037
 21
12.2335
  0
LINE
  8
0
 10
30.8037
 20
12.2335
 11
30.7349
 21
12.1957
  0
LINE
  8
0
 10
30.7349
 20
12.1957
 11
30.6669
 21
12.1564
  0
LINE
  8
0
 10
30.6669
 20
12.1564
 11
30.6525
 21
12.1503
  0
LINE
  8
0
 10
30.6525
 20
12.1503
 11
30.6387
 21
12.1427
  0
LINE
  8
0
 10
30.6387
 20
12.1427
 11
30.5657
 21
12.1139
  0
LINE
  8
0
 10
30.5657
 20
12.1139
 11
30.4933
 21
12.0834
  0
LINE
  8
0
 10
30.4933
 20
12.0834
 11
30.4781
 21
12.0792
  0
LINE
  8
0
 10
30.4781
 20
12.0792
 11
30.4635
 21
12.0734
  0
LINE
  8
0
 10
30.4635
 20
12.0734
 11
30.3875
 21
12.0539
  0
LINE
  8
0
 10
30.3875
 20
12.0539
 11
30.3119
 21
12.0328
  0
LINE
  8
0
 10
30.3119
 20
12.0328
 11
30.2963
 21
12.0305
  0
LINE
  8
0
 10
30.2963
 20
12.0305
 11
30.2811
 21
12.0266
  0
LINE
  8
0
 10
30.2811
 20
12.0266
 11
30.2032
 21
12.0167
  0
LINE
  8
0
 10
30.2032
 20
12.0167
 11
30.1255
 21
12.0052
  0
LINE
  8
0
 10
30.1255
 20
12.0052
 11
30.1098
 21
12.0049
  0
LINE
  8
0
 10
30.1098
 20
12.0049
 11
30.0942
 21
12.0029
  0
LINE
  8
0
 10
30.0942
 20
12.0029
 11
30.0157
 21
12.0029
  0
LINE
  8
0
 10
30.0157
 20
12.0029
 11
29.9372
 21
12.0013
  0
LINE
  8
0
 10
29.9372
 20
12.0013
 11
29.9215
 21
12.0029
  0
LINE
  8
0
 10
-0.0784454
 20
12.0029
 11
-0.0941772
 21
12.0029
  0
LINE
  8
0
 10
-0.0941772
 20
12.0029
 11
-0.172073
 21
12.0128
  0
LINE
  8
0
 10
-0.172073
 20
12.0128
 11
-0.250153
 21
12.021
  0
LINE
  8
0
 10
-0.250153
 20
12.021
 11
-0.265457
 21
12.0246
  0
LINE
  8
0
 10
-0.265457
 20
12.0246
 11
-0.281067
 21
12.0266
  0
LINE
  8
0
 10
-0.281067
 20
12.0266
 11
-0.357117
 21
12.0461
  0
LINE
  8
0
 10
-0.357117
 20
12.0461
 11
-0.433533
 21
12.064
  0
LINE
  8
0
 10
-0.433533
 20
12.064
 11
-0.448288
 21
12.0695
  0
LINE
  8
0
 10
-0.448288
 20
12.0695
 11
-0.463516
 21
12.0734
  0
LINE
  8
0
 10
-0.463516
 20
12.0734
 11
-0.536499
 21
12.1023
  0
LINE
  8
0
 10
-0.536499
 20
12.1023
 11
-0.610092
 21
12.1297
  0
LINE
  8
0
 10
-0.610092
 20
12.1297
 11
-0.624039
 21
12.137
  0
LINE
  8
0
 10
-0.624039
 20
12.137
 11
-0.638657
 21
12.1427
  0
LINE
  8
0
 10
-0.638657
 20
12.1427
 11
-0.707443
 21
12.1806
  0
LINE
  8
0
 10
-0.707443
 20
12.1806
 11
-0.777039
 21
12.2169
  0
LINE
  8
0
 10
-0.777039
 20
12.2169
 11
-0.789948
 21
12.2259
  0
LINE
  8
0
 10
-0.789948
 20
12.2259
 11
-0.803726
 21
12.2335
  0
LINE
  8
0
 10
-0.803726
 20
12.2335
 11
-0.867233
 21
12.2796
  0
LINE
  8
0
 10
-0.867233
 20
12.2796
 11
-0.931717
 21
12.3244
  0
LINE
  8
0
 10
-0.931717
 20
12.3244
 11
-0.943405
 21
12.335
  0
LINE
  8
0
 10
-0.943405
 20
12.335
 11
-0.956131
 21
12.3442
  0
LINE
  8
0
 10
-0.956131
 20
12.3442
 11
-1.01335
 21
12.398
  0
LINE
  8
0
 10
-1.01335
 20
12.398
 11
-1.0717
 21
12.4505
  0
LINE
  8
0
 10
-1.0717
 20
12.4505
 11
-1.08199
 21
12.4624
  0
LINE
  8
0
 10
-1.08199
 20
12.4624
 11
-1.09344
 21
12.4732
  0
LINE
  8
0
 10
-1.09344
 20
12.4732
 11
-1.14348
 21
12.5336
  0
LINE
  8
0
 10
-1.14348
 20
12.5336
 11
-1.19479
 21
12.5931
  0
LINE
  8
0
 10
-1.19479
 20
12.5931
 11
-1.20349
 21
12.6062
  0
LINE
  8
0
 10
-1.20349
 20
12.6062
 11
-1.21352
 21
12.6183
  0
LINE
  8
0
 10
-1.21352
 20
12.6183
 11
-1.25558
 21
12.6846
  0
LINE
  8
0
 10
-1.25558
 20
12.6846
 11
-1.29903
 21
12.75
  0
LINE
  8
0
 10
-1.29903
 20
12.75
 11
-1.30602
 21
12.7641
  0
LINE
  8
0
 10
-1.30602
 20
12.7641
 11
-1.31445
 21
12.7774
  0
LINE
  8
0
 10
-1.31445
 20
12.7774
 11
-1.34787
 21
12.8484
  0
LINE
  8
0
 10
-1.34787
 20
12.8484
 11
-1.38278
 21
12.9187
  0
LINE
  8
0
 10
-1.38278
 20
12.9187
 11
-1.38795
 21
12.9336
  0
LINE
  8
0
 10
-1.38795
 20
12.9336
 11
-1.39465
 21
12.9478
  0
LINE
  8
0
 10
-1.39465
 20
12.9478
 11
-1.41891
 21
13.0225
  0
LINE
  8
0
 10
-1.41891
 20
13.0225
 11
-1.44473
 21
13.0966
  0
LINE
  8
0
 10
-1.44473
 20
13.0966
 11
-1.44801
 21
13.112
  0
LINE
  8
0
 10
-1.44801
 20
13.112
 11
-1.45287
 21
13.127
  0
LINE
  8
0
 10
-1.45287
 20
13.127
 11
-1.46758
 21
13.2041
  0
LINE
  8
0
 10
-1.46758
 20
13.2041
 11
-1.4839
 21
13.2809
  0
LINE
  8
0
 10
-1.4839
 20
13.2809
 11
-1.48521
 21
13.2965
  0
LINE
  8
0
 10
-1.48521
 20
13.2965
 11
-1.48816
 21
13.312
  0
LINE
  8
0
 10
-1.48816
 20
13.312
 11
-1.49309
 21
13.3904
  0
LINE
  8
0
 10
-1.49309
 20
13.3904
 11
-1.49966
 21
13.4686
  0
LINE
  8
0
 10
-1.49966
 20
13.4686
 11
-1.49901
 21
13.4843
  0
LINE
  8
0
 10
-1.49901
 20
13.4843
 11
-1.5
 21
13.5
  0
LINE
  8
0
 10
-1.5
 20
13.5
 11
-1.49506
 21
13.5784
  0
LINE
  8
0
 10
-1.49506
 20
13.5784
 11
-1.49178
 21
13.6568
  0
LINE
  8
0
 10
-1.49178
 20
13.6568
 11
-1.48915
 21
13.6723
  0
LINE
  8
0
 10
-1.48915
 20
13.6723
 11
-1.48816
 21
13.688
  0
LINE
  8
0
 10
-1.48816
 20
13.688
 11
-1.47345
 21
13.7651
  0
LINE
  8
0
 10
-1.47345
 20
13.7651
 11
-1.46036
 21
13.8425
  0
LINE
  8
0
 10
-1.46036
 20
13.8425
 11
-1.45581
 21
13.8576
  0
LINE
  8
0
 10
-1.45581
 20
13.8576
 11
-1.45287
 21
13.873
  0
LINE
  8
0
 10
-1.45287
 20
13.873
 11
-1.42862
 21
13.9477
  0
LINE
  8
0
 10
-1.42862
 20
13.9477
 11
-1.40591
 21
14.0229
  0
LINE
  8
0
 10
-1.40591
 20
14.0229
 11
-1.39952
 21
14.0372
  0
LINE
  8
0
 10
-1.39952
 20
14.0372
 11
-1.39465
 21
14.0522
  0
LINE
  8
0
 10
-1.39465
 20
14.0522
 11
-1.36124
 21
14.1232
  0
LINE
  8
0
 10
-1.36124
 20
14.1232
 11
-1.3293
 21
14.1949
  0
LINE
  8
0
 10
-1.3293
 20
14.1949
 11
-1.32115
 21
14.2084
  0
LINE
  8
0
 10
-1.32115
 20
14.2084
 11
-1.31445
 21
14.2226
  0
LINE
  8
0
 10
-1.31445
 20
14.2226
 11
-1.27238
 21
14.2889
  0
LINE
  8
0
 10
-1.27238
 20
14.2889
 11
-1.23172
 21
14.3561
  0
LINE
  8
0
 10
-1.23172
 20
14.3561
 11
-1.22194
 21
14.3684
  0
LINE
  8
0
 10
-1.22194
 20
14.3684
 11
-1.21352
 21
14.3817
  0
LINE
  8
0
 10
-1.21352
 20
14.3817
 11
-1.16347
 21
14.4422
  0
LINE
  8
0
 10
-1.16347
 20
14.4422
 11
-1.11472
 21
14.5037
  0
LINE
  8
0
 10
-1.11472
 20
14.5037
 11
-1.10347
 21
14.5147
  0
LINE
  8
0
 10
-1.10347
 20
14.5147
 11
-1.09344
 21
14.5268
  0
LINE
  8
0
 10
-1.09344
 20
14.5268
 11
-1.03621
 21
14.5806
  0
LINE
  8
0
 10
-1.03621
 20
14.5806
 11
-0.980118
 21
14.6355
  0
LINE
  8
0
 10
-0.980118
 20
14.6355
 11
-0.96759
 21
14.645
  0
LINE
  8
0
 10
-0.96759
 20
14.645
 11
-0.956131
 21
14.6558
  0
LINE
  8
0
 10
-0.956131
 20
14.6558
 11
-0.892609
 21
14.7019
  0
LINE
  8
0
 10
-0.892609
 20
14.7019
 11
-0.830078
 21
14.7494
  0
LINE
  8
0
 10
-0.830078
 20
14.7494
 11
-0.816452
 21
14.7572
  0
LINE
  8
0
 10
-0.816452
 20
14.7572
 11
-0.803726
 21
14.7665
  0
LINE
  8
0
 10
-0.803726
 20
14.7665
 11
-0.73494
 21
14.8043
  0
LINE
  8
0
 10
-0.73494
 20
14.8043
 11
-0.666946
 21
14.8436
  0
LINE
  8
0
 10
-0.666946
 20
14.8436
 11
-0.652435
 21
14.8497
  0
LINE
  8
0
 10
-0.652435
 20
14.8497
 11
-0.638657
 21
14.8572
  0
LINE
  8
0
 10
-0.638657
 20
14.8572
 11
-0.565674
 21
14.8861
  0
LINE
  8
0
 10
-0.565674
 20
14.8861
 11
-0.493286
 21
14.9165
  0
LINE
  8
0
 10
-0.493286
 20
14.9165
 11
-0.478134
 21
14.9208
  0
LINE
  8
0
 10
-0.478134
 20
14.9208
 11
-0.463516
 21
14.9266
  0
LINE
  8
0
 10
-0.463516
 20
14.9266
 11
-0.387482
 21
14.9461
  0
LINE
  8
0
 10
-0.387482
 20
14.9461
 11
-0.311859
 21
14.9672
  0
LINE
  8
0
 10
-0.311859
 20
14.9672
 11
-0.296295
 21
14.9695
  0
LINE
  8
0
 10
-0.296295
 20
14.9695
 11
-0.281067
 21
14.9734
  0
LINE
  8
0
 10
-0.281067
 20
14.9734
 11
-0.203171
 21
14.9833
  0
LINE
  8
0
 10
-0.203171
 20
14.9833
 11
-0.125504
 21
14.9947
  0
LINE
  8
0
 10
-0.125504
 20
14.9947
 11
-0.109787
 21
14.9951
  0
LINE
  8
0
 10
-0.109787
 20
14.9951
 11
-0.0941772
 21
14.997
  0
LINE
  8
0
 10
-0.0941772
 20
14.997
 11
-0.0156555
 21
14.997
  0
LINE
  8
0
 10
-0.0156555
 20
14.997
 11
0.0628052
 21
14.9987
  0
LINE
  8
0
 10
0.0628052
 20
14.9987
 11
0.0784454
 21
14.997
  0
LINE
  8
0
 10
0.0784454
 20
14.997
 11
0.0941772
 21
14.997
  0
LINE
  8
0
 10
0.0941772
 20
14.997
 11
0.172073
 21
14.9872
  0
LINE
  8
0
 10
0.172073
 20
14.9872
 11
0.250153
 21
14.979
  0
LINE
  8
0
 10
0.250153
 20
14.979
 11
0.265457
 21
14.9754
  0
LINE
  8
0
 10
0.265457
 20
14.9754
 11
0.281067
 21
14.9734
  0
LINE
  8
0
 10
0.281067
 20
14.9734
 11
0.357117
 21
14.9539
  0
LINE
  8
0
 10
0.357117
 20
14.9539
 11
0.433533
 21
14.936
  0
LINE
  8
0
 10
0.433533
 20
14.936
 11
0.448288
 21
14.9305
  0
LINE
  8
0
 10
0.448288
 20
14.9305
 11
0.463516
 21
14.9266
  0
LINE
  8
0
 10
0.463516
 20
14.9266
 11
0.536499
 21
14.8977
  0
LINE
  8
0
 10
0.536499
 20
14.8977
 11
0.610092
 21
14.8703
  0
LINE
  8
0
 10
0.610092
 20
14.8703
 11
0.624039
 21
14.863
  0
LINE
  8
0
 10
0.624039
 20
14.863
 11
0.638657
 21
14.8572
  0
LINE
  8
0
 10
0.638657
 20
14.8572
 11
0.707443
 21
14.8194
  0
LINE
  8
0
 10
0.707443
 20
14.8194
 11
0.777039
 21
14.783
  0
LINE
  8
0
 10
0.777039
 20
14.783
 11
0.789948
 21
14.7741
  0
LINE
  8
0
 10
0.789948
 20
14.7741
 11
0.803726
 21
14.7665
  0
LINE
  8
0
 10
0.803726
 20
14.7665
 11
0.867233
 21
14.7204
  0
LINE
  8
0
 10
0.867233
 20
14.7204
 11
0.931717
 21
14.6755
  0
LINE
  8
0
 10
0.931717
 20
14.6755
 11
0.943405
 21
14.665
  0
LINE
  8
0
 10
0.943405
 20
14.665
 11
0.956131
 21
14.6558
  0
LINE
  8
0
 10
0.956131
 20
14.6558
 11
1.01335
 21
14.602
  0
LINE
  8
0
 10
1.01335
 20
14.602
 11
1.0717
 21
14.5495
  0
LINE
  8
0
 10
1.0717
 20
14.5495
 11
1.08199
 21
14.5376
  0
LINE
  8
0
 10
1.08199
 20
14.5376
 11
1.09344
 21
14.5268
  0
LINE
  8
0
 10
1.09344
 20
14.5268
 11
1.14348
 21
14.4663
  0
LINE
  8
0
 10
1.14348
 20
14.4663
 11
1.19479
 21
14.4069
  0
LINE
  8
0
 10
1.19479
 20
14.4069
 11
1.20349
 21
14.3938
  0
LINE
  8
0
 10
1.20349
 20
14.3938
 11
1.21352
 21
14.3817
  0
LINE
  8
0
 10
1.21352
 20
14.3817
 11
1.25557
 21
14.3154
  0
LINE
  8
0
 10
1.25557
 20
14.3154
 11
1.29903
 21
14.25
  0
LINE
  8
0
 10
1.29903
 20
14.25
 11
1.30603
 21
14.2359
  0
LINE
  8
0
 10
1.30603
 20
14.2359
 11
1.31445
 21
14.2226
  0
LINE
  8
0
 10
1.31445
 20
14.2226
 11
1.34787
 21
14.1516
  0
LINE
  8
0
 10
1.34787
 20
14.1516
 11
1.38278
 21
14.0813
  0
LINE
  8
0
 10
1.38278
 20
14.0813
 11
1.38795
 21
14.0664
  0
LINE
  8
0
 10
1.38795
 20
14.0664
 11
1.39465
 21
14.0522
  0
LINE
  8
0
 10
1.39465
 20
14.0522
 11
1.41891
 21
13.9775
  0
LINE
  8
0
 10
1.41891
 20
13.9775
 11
1.44473
 21
13.9034
  0
LINE
  8
0
 10
1.44473
 20
13.9034
 11
1.44801
 21
13.888
  0
LINE
  8
0
 10
1.44801
 20
13.888
 11
1.45287
 21
13.873
  0
LINE
  8
0
 10
1.45287
 20
13.873
 11
1.46758
 21
13.7959
  0
LINE
  8
0
 10
1.46758
 20
13.7959
 11
1.4839
 21
13.7191
  0
LINE
  8
0
 10
1.4839
 20
13.7191
 11
1.48521
 21
13.7034
  0
LINE
  8
0
 10
1.48521
 20
13.7034
 11
1.48816
 21
13.688
  0
LINE
  8
0
 10
1.48816
 20
13.688
 11
1.49309
 21
13.6096
  0
LINE
  8
0
 10
1.49309
 20
13.6096
 11
1.49966
 21
13.5314
  0
LINE
  8
0
 10
1.49966
 20
13.5314
 11
1.49901
 21
13.5157
  0
LINE
  8
0
 10
1.49901
 20
13.5157
 11
1.5
 21
13.5
  0
LINE
  8
0
 10
1.5
 20
13.5
 11
1.49506
 21
13.4216
  0
LINE
  8
0
 10
1.49506
 20
13.4216
 11
1.49178
 21
13.3432
  0
LINE
  8
0
 10
1.49178
 20
13.3432
 11
1.48915
 21
13.3277
  0
LINE
  8
0
 10
1.48915
 20
13.3277
 11
1.48816
 21
13.312
  0
LINE
  8
0
 10
1.48816
 20
13.312
 11
1.47345
 21
13.2349
  0
LINE
  8
0
 10
1.47345
 20
13.2349
 11
1.46036
 21
13.1575
  0
LINE
  8
0
 10
1.46036
 20
13.1575
 11
1.45581
 21
13.1424
  0
LINE
  8
0
 10
1.45581
 20
13.1424
 11
1.45287
 21
13.127
  0
LINE
  8
0
 10
1.45287
 20
13.127
 11
1.42862
 21
13.0523
  0
LINE
  8
0
 10
1.42862
 20
13.0523
 11
1.40591
 21
12.9771
  0
LINE
  8
0
 10
1.40591
 20
12.9771
 11
1.39952
 21
12.9628
  0
LINE
  8
0
 10
1.39952
 20
12.9628
 11
1.39465
 21
12.9478
  0
LINE
  8
0
 10
1.39465
 20
12.9478
 11
1.36124
 21
12.8768
  0
LINE
  8
0
 10
1.36124
 20
12.8768
 11
1.3293
 21
12.8051
  0
LINE
  8
0
 10
1.3293
 20
12.8051
 11
1.32115
 21
12.7916
  0
LINE
  8
0
 10
1.32115
 20
12.7916
 11
1.31445
 21
12.7774
  0
LINE
  8
0
 10
1.31445
 20
12.7774
 11
1.27238
 21
12.7111
  0
LINE
  8
0
 10
1.27238
 20
12.7111
 11
1.23172
 21
12.6439
  0
LINE
  8
0
 10
1.23172
 20
12.6439
 11
1.22194
 21
12.6316
  0
LINE
  8
0
 10
1.22194
 20
12.6316
 11
1.21352
 21
12.6183
  0
LINE
  8
0
 10
1.21352
 20
12.6183
 11
1.16347
 21
12.5578
  0
LINE
  8
0
 10
1.16347
 20
12.5578
 11
1.11472
 21
12.4963
  0
LINE
  8
0
 10
1.11472
 20
12.4963
 11
1.10347
 21
12.4853
  0
LINE
  8
0
 10
1.10347
 20
12.4853
 11
1.09344
 21
12.4732
  0
LINE
  8
0
 10
1.09344
 20
12.4732
 11
1.03621
 21
12.4194
  0
LINE
  8
0
 10
1.03621
 20
12.4194
 11
0.980118
 21
12.3645
  0
LINE
  8
0
 10
0.980118
 20
12.3645
 11
0.96759
 21
12.355
  0
LINE
  8
0
 10
0.96759
 20
12.355
 11
0.956131
 21
12.3442
  0
LINE
  8
0
 10
0.956131
 20
12.3442
 11
0.892609
 21
12.2981
  0
LINE
  8
0
 10
0.892609
 20
12.2981
 11
0.830078
 21
12.2506
  0
LINE
  8
0
 10
0.830078
 20
12.2506
 11
0.816452
 21
12.2428
  0
LINE
  8
0
 10
0.816452
 20
12.2428
 11
0.803726
 21
12.2335
  0
LINE
  8
0
 10
0.803726
 20
12.2335
 11
0.73494
 21
12.1957
  0
LINE
  8
0
 10
0.73494
 20
12.1957
 11
0.666946
 21
12.1564
  0
LINE
  8
0
 10
0.666946
 20
12.1564
 11
0.652435
 21
12.1503
  0
LINE
  8
0
 10
0.652435
 20
12.1503
 11
0.638657
 21
12.1427
  0
LINE
  8
0
 10
0.638657
 20
12.1427
 11
0.565674
 21
12.1139
  0
LINE
  8
0
 10
0.565674
 20
12.1139
 11
0.493286
 21
12.0834
  0
LINE
  8
0
 10
0.493286
 20
12.0834
 11
0.478134
 21
12.0792
  0
LINE
  8
0
 10
0.478134
 20
12.0792
 11
0.463516
 21
12.0734
  0
LINE
  8
0
 10
0.463516
 20
12.0734
 11
0.387482
 21
12.0539
  0
LINE
  8
0
 10
0.387482
 20
12.0539
 11
0.311859
 21
12.0328
  0
LINE
  8
0
 10
0.311859
 20
12.0328
 11
0.296295
 21
12.0305
  0
LINE
  8
0
 10
0.296295
 20
12.0305
 11
0.281067
 21
12.0266
  0
LINE
  8
0
 10
0.281067
 20
12.0266
 11
0.203171
 21
12.0167
  0
LINE
  8
0
 10
0.203171
 20
12.0167
 11
0.125504
 21
12.0052
  0
LINE
  8
0
 10
0.125504
 20
12.0052
 11
0.109787
 21
12.0049
  0
LINE
  8
0
 10
0.109787
 20
12.0049
 11
0.0941772
 21
12.0029
  0
LINE
  8
0
 10
0.0941772
 20
12.0029
 11
0.0156555
 21
12.0029
  0
LINE
  8
0
 10
0.0156555
 20
12.0029
 11
-0.0628052
 21
12.0013
  0
LINE
  8
0
 10
-0.0628052
 20
12.0013
 11
-0.0784454
 21
12.0029
  0
LINE
  8
0
 10
47.1534
 20
3.59999
 11
47.1534
 21
9
  0
LINE
  8
0
 10
47.1534
 20
9
 11
57.8466
 21
9
  0
LINE
  8
0
 10
57.8466
 20
9
 11
57.8466
 21
3.59999
  0
LINE
  8
0
 10
57.8466
 20
3.59999
 11
47.1534
 21
3.59999
  0
LINE
  8
0
 10
32.1534
 20
3.59999
 11
32.1534
 21
9
  0
LINE
  8
0
 10
32.1534
 20
9
 11
42.8466
 21
9
  0
LINE
  8
0
 10
42.8466
 20
9
 11
42.8466
 21
3.59999
  0
LINE
  8
0
 10
42.8466
 20
3.59999
 11
32.1534
 21
3.59999
  0
LINE
  8
0
 10
-57.8466
 20
3.59999
 11
-57.8466
 21
9
  0
LINE
  8
0
 10
-57.8466
 20
9
 11
-47.1534
 21
9
  0
LINE
  8
0
 10
-47.1534
 20
9
 11
-47.1534
 21
3.59999
  0
LINE
  8
0
 10
-47.1534
 20
3.59999
 11
-57.8466
 21
3.59999
  0
LINE
  8
0
 10
17.1534
 20
3.59999
 11
17.1534
 21
9
  0
LINE
  8
0
 10
17.1534
 20
9
 11
27.8466
 21
9
  0
LINE
  8
0
 10
27.8466
 20
9
 11
27.8466
 21
3.59999
  0
LINE
  8
0
 10
27.8466
 20
3.59999
 11
17.1534
 21
3.59999
  0
LINE
  8
0
 10
-12.8466
 20
3.59999
 11
-12.8466
 21
9
  0
LINE
  8
0
 10
-12.8466
 20
9
 11
-2.15337
 21
9
  0
LINE
  8
0
 10
-2.15337
 20
9
 11
-2.15337
 21
3.59999
  0
LINE
  8
0
 10
-2.15337
 20
3.59999
 11
-12.8466
 21
3.59999
  0
LINE
  8
0
 10
2.15337
 20
3.59999
 11
2.15337
 21
9
  0
LINE
  8
0
 10
2.15337
 20
9
 11
12.8466
 21
9
  0
LINE
  8
0
 10
12.8466
 20
9
 11
12.8466
 21
3.59999
  0
LINE
  8
0
 10
12.8466
 20
3.59999
 11
2.15337
 21
3.59999
  0
LINE
  8
0
 10
-42.8466
 20
3.59999
 11
-42.8466
 21
9
  0
LINE
  8
0
 10
-42.8466
 20
9
 11
-32.1534
 21
9
  0
LINE
  8
0
 10
-32.1534
 20
9
 11
-32.1534
 21
3.59999
  0
LINE
  8
0
 10
-32.1534
 20
3.59999
 11
-42.8466
 21
3.59999
  0
LINE
  8
0
 10
-27.8466
 20
3.59999
 11
-27.8466
 21
9
  0
LINE
  8
0
 10
-27.8466
 20
9
 11
-17.1534
 21
9
  0
LINE
  8
0
 10
-17.1534
 20
9
 11
-17.1534
 21
3.59999
  0
LINE
  8
0
 10
-17.1534
 20
3.59999
 11
-27.8466
 21
3.59999
  0
ENDSEC
  0
SECTION
  2
OBJECTS
  0
DICTIONARY
  0
ENDSEC
  0
EOF
