<?xml version="1.0" standalone="no"?>
<!DOCTYPE svg PUBLIC "-//W3C//DTD SVG 1.1//EN" "http://www.w3.org/Graphics/SVG/1.1/DTD/svg11.dtd">
<svg width="120mm" height="93mm" viewBox="-60 -93 120 93" xmlns="http://www.w3.org/2000/svg" version="1.1">
<title>OpenSCAD Model</title>
<path d="
M 59.5,-87.5 L 59.4606,-88.1267 L 59.3429,-88.7434 L 59.1489,-89.3406 L 58.8815,-89.9088 L 58.5451,-90.4389
 L 58.1448,-90.9227 L 57.6871,-91.3526 L 57.1791,-91.7216 L 56.6289,-92.0241 L 56.0451,-92.2553 L 55.4369,-92.4114
 L 54.8139,-92.4901 L -54.8139,-92.4901 L -55.4369,-92.4114 L -56.0451,-92.2553 L -56.6289,-92.0241 L -57.1791,-91.7216
 L -57.6871,-91.3526 L -58.1448,-90.9227 L -58.5451,-90.4389 L -58.8815,-89.9088 L -59.1489,-89.3406 L -59.3429,-88.7434
 L -59.4606,-88.1267 L -59.5,-87.5 L -59.5,-72 L 59.5,-72 z
M -7.68837,-82.5059 L -8.06213,-82.5531 L -8.42705,-82.6468 L -8.77733,-82.7855 L -9.10747,-82.967 L -9.41226,-83.1884
 L -9.6869,-83.4464 L -9.92705,-83.7366 L -10.1289,-84.0547 L -10.2893,-84.3956 L -10.4057,-84.7539 L -10.4763,-85.124
 L -10.5,-85.5 L -10.4763,-85.876 L -10.4057,-86.2461 L -10.2893,-86.6044 L -10.1289,-86.9453 L -9.92705,-87.2634
 L -9.6869,-87.5536 L -9.41226,-87.8115 L -9.10747,-88.033 L -8.77733,-88.2145 L -8.42705,-88.3532 L -8.06213,-88.4469
 L -7.68837,-88.4941 L -7.31161,-88.4941 L -6.93785,-88.4469 L -6.57294,-88.3532 L -6.22266,-88.2145 L -5.89252,-88.033
 L -5.58772,-87.8115 L -5.31308,-87.5536 L -5.07294,-87.2634 L -4.87108,-86.9453 L -4.71066,-86.6044 L -4.59424,-86.2461
 L -4.52365,-85.876 L -4.5,-85.5 L -4.52365,-85.124 L -4.59424,-84.7539 L -4.71066,-84.3956 L -4.87108,-84.0547
 L -5.07294,-83.7366 L -5.31308,-83.4464 L -5.58772,-83.1884 L -5.89252,-82.967 L -6.22266,-82.7855 L -6.57294,-82.6468
 L -6.93785,-82.5531 L -7.31161,-82.5059 z
M 7.31161,-82.5059 L 6.93785,-82.5531 L 6.57294,-82.6468 L 6.22266,-82.7855 L 5.89252,-82.967 L 5.58772,-83.1884
 L 5.31308,-83.4464 L 5.07294,-83.7366 L 4.87108,-84.0547 L 4.71066,-84.3956 L 4.59424,-84.7539 L 4.52365,-85.124
 L 4.5,-85.5 L 4.52365,-85.876 L 4.59424,-86.2461 L 4.71066,-86.6044 L 4.87108,-86.9453 L 5.07294,-87.2634
 L 5.31308,-87.5536 L 5.58772,-87.8115 L 5.89252,-88.033 L 6.22266,-88.2145 L 6.57294,-88.3532 L 6.93785,-88.4469
 L 7.31161,-88.4941 L 7.68837,-88.4941 L 8.06213,-88.4469 L 8.42705,-88.3532 L 8.77733,-88.2145 L 9.10747,-88.033
 L 9.41226,-87.8115 L 9.6869,-87.5536 L 9.92705,-87.2634 L 10.1289,-86.9453 L 10.2893,-86.6044 L 10.4057,-86.2461
 L 10.4763,-85.876 L 10.5,-85.5 L 10.4763,-85.124 L 10.4057,-84.7539 L 10.2893,-84.3956 L 10.1289,-84.0547
 L 9.92705,-83.7366 L 9.6869,-83.4464 L 9.41226,-83.1884 L 9.10747,-82.967 L 8.77733,-82.7855 L 8.42705,-82.6468
 L 8.06213,-82.5531 L 7.68837,-82.5059 z
M 52.3116,-82.5059 L 51.9379,-82.5531 L 51.5729,-82.6468 L 51.2227,-82.7855 L 50.8925,-82.967 L 50.5877,-83.1884
 L 50.3131,-83.4464 L 50.0729,-83.7366 L 49.8711,-84.0547 L 49.7107,-84.3956 L 49.5942,-84.7539 L 49.5237,-85.124
 L 49.5,-85.5 L 49.5237,-85.876 L 49.5942,-86.2461 L 49.7107,-86.6044 L 49.8711,-86.9453 L 50.0729,-87.2634
 L 50.3131,-87.5536 L 50.5877,-87.8115 L 50.8925,-88.033 L 51.2227,-88.2145 L 51.5729,-88.3532 L 51.9379,-88.4469
 L 52.3116,-88.4941 L 52.6884,-88.4941 L 53.0621,-88.4469 L 53.427,-88.3532 L 53.7773,-88.2145 L 54.1075,-88.033
 L 54.4123,-87.8115 L 54.6869,-87.5536 L 54.927,-87.2634 L 55.1289,-86.9453 L 55.2893,-86.6044 L 55.4057,-86.2461
 L 55.4763,-85.876 L 55.5,-85.5 L 55.4763,-85.124 L 55.4057,-84.7539 L 55.2893,-84.3956 L 55.1289,-84.0547
 L 54.927,-83.7366 L 54.6869,-83.4464 L 54.4123,-83.1884 L 54.1075,-82.967 L 53.7773,-82.7855 L 53.427,-82.6468
 L 53.0621,-82.5531 L 52.6884,-82.5059 z
M 22.3116,-82.5059 L 21.9379,-82.5531 L 21.5729,-82.6468 L 21.2227,-82.7855 L 20.8925,-82.967 L 20.5877,-83.1884
 L 20.3131,-83.4464 L 20.0729,-83.7366 L 19.8711,-84.0547 L 19.7107,-84.3956 L 19.5942,-84.7539 L 19.5237,-85.124
 L 19.5,-85.5 L 19.5237,-85.876 L 19.5942,-86.2461 L 19.7107,-86.6044 L 19.8711,-86.9453 L 20.0729,-87.2634
 L 20.3131,-87.5536 L 20.5877,-87.8115 L 20.8925,-88.033 L 21.2227,-88.2145 L 21.5729,-88.3532 L 21.9379,-88.4469
 L 22.3116,-88.4941 L 22.6884,-88.4941 L 23.0621,-88.4469 L 23.427,-88.3532 L 23.7773,-88.2145 L 24.1075,-88.033
 L 24.4123,-87.8115 L 24.6869,-87.5536 L 24.927,-87.2634 L 25.1289,-86.9453 L 25.2893,-86.6044 L 25.4057,-86.2461
 L 25.4763,-85.876 L 25.5,-85.5 L 25.4763,-85.124 L 25.4057,-84.7539 L 25.2893,-84.3956 L 25.1289,-84.0547
 L 24.927,-83.7366 L 24.6869,-83.4464 L 24.4123,-83.1884 L 24.1075,-82.967 L 23.7773,-82.7855 L 23.427,-82.6468
 L 23.0621,-82.5531 L 22.6884,-82.5059 z
M -52.6884,-82.5059 L -53.0621,-82.5531 L -53.427,-82.6468 L -53.7773,-82.7855 L -54.1075,-82.967 L -54.4123,-83.1884
 L -54.6869,-83.4464 L -54.927,-83.7366 L -55.1289,-84.0547 L -55.2893,-84.3956 L -55.4057,-84.7539 L -55.4763,-85.124
 L -55.5,-85.5 L -55.4763,-85.876 L -55.4057,-86.2461 L -55.2893,-86.6044 L -55.1289,-86.9453 L -54.927,-87.2634
 L -54.6869,-87.5536 L -54.4123,-87.8115 L -54.1075,-88.033 L -53.7773,-88.2145 L -53.427,-88.3532 L -53.0621,-88.4469
 L -52.6884,-88.4941 L -52.3116,-88.4941 L -51.9379,-88.4469 L -51.5729,-88.3532 L -51.2227,-88.2145 L -50.8925,-88.033
 L -50.5877,-87.8115 L -50.3131,-87.5536 L -50.0729,-87.2634 L -49.8711,-86.9453 L -49.7107,-86.6044 L -49.5942,-86.2461
 L -49.5237,-85.876 L -49.5,-85.5 L -49.5237,-85.124 L -49.5942,-84.7539 L -49.7107,-84.3956 L -49.8711,-84.0547
 L -50.0729,-83.7366 L -50.3131,-83.4464 L -50.5877,-83.1884 L -50.8925,-82.967 L -51.2227,-82.7855 L -51.5729,-82.6468
 L -51.9379,-82.5531 L -52.3116,-82.5059 z
M -22.6884,-82.5059 L -23.0621,-82.5531 L -23.427,-82.6468 L -23.7773,-82.7855 L -24.1075,-82.967 L -24.4123,-83.1884
 L -24.6869,-83.4464 L -24.927,-83.7366 L -25.1289,-84.0547 L -25.2893,-84.3956 L -25.4057,-84.7539 L -25.4763,-85.124
 L -25.5,-85.5 L -25.4763,-85.876 L -25.4057,-86.2461 L -25.2893,-86.6044 L -25.1289,-86.9453 L -24.927,-87.2634
 L -24.6869,-87.5536 L -24.4123,-87.8115 L -24.1075,-88.033 L -23.7773,-88.2145 L -23.427,-88.3532 L -23.0621,-88.4469
 L -22.6884,-88.4941 L -22.3116,-88.4941 L -21.9379,-88.4469 L -21.5729,-88.3532 L -21.2227,-88.2145 L -20.8925,-88.033
 L -20.5877,-87.8115 L -20.3131,-87.5536 L -20.0729,-87.2634 L -19.8711,-86.9453 L -19.7107,-86.6044 L -19.5942,-86.2461
 L -19.5237,-85.876 L -19.5,-85.5 L -19.5237,-85.124 L -19.5942,-84.7539 L -19.7107,-84.3956 L -19.8711,-84.0547
 L -20.0729,-83.7366 L -20.3131,-83.4464 L -20.5877,-83.1884 L -20.8925,-82.967 L -21.2227,-82.7855 L -21.5729,-82.6468
 L -21.9379,-82.5531 L -22.3116,-82.5059 z
M -37.6884,-82.5059 L -38.0621,-82.5531 L -38.427,-82.6468 L -38.7773,-82.7855 L -39.1075,-82.967 L -39.4123,-83.1884
 L -39.6869,-83.4464 L -39.927,-83.7366 L -40.1289,-84.0547 L -40.2893,-84.3956 L -40.4057,-84.7539 L -40.4763,-85.124
 L -40.5,-85.5 L -40.4763,-85.876 L -40.4057,-86.2461 L -40.2893,-86.6044 L -40.1289,-86.9453 L -39.927,-87.2634
 L -39.6869,-87.5536 L -39.4123,-87.8115 L -39.1075,-88.033 L -38.7773,-88.2145 L -38.427,-88.3532 L -38.0621,-88.4469
 L -37.6884,-88.4941 L -37.3116,-88.4941 L -36.9379,-88.4469 L -36.5729,-88.3532 L -36.2227,-88.2145 L -35.8925,-88.033
 L -35.5877,-87.8115 L -35.3131,-87.5536 L -35.0729,-87.2634 L -34.8711,-86.9453 L -34.7107,-86.6044 L -34.5942,-86.2461
 L -34.5237,-85.876 L -34.5,-85.5 L -34.5237,-85.124 L -34.5942,-84.7539 L -34.7107,-84.3956 L -34.8711,-84.0547
 L -35.0729,-83.7366 L -35.3131,-83.4464 L -35.5877,-83.1884 L -35.8925,-82.967 L -36.2227,-82.7855 L -36.5729,-82.6468
 L -36.9379,-82.5531 L -37.3116,-82.5059 z
M 37.3116,-82.5059 L 36.9379,-82.5531 L 36.5729,-82.6468 L 36.2227,-82.7855 L 35.8925,-82.967 L 35.5877,-83.1884
 L 35.3131,-83.4464 L 35.0729,-83.7366 L 34.8711,-84.0547 L 34.7107,-84.3956 L 34.5942,-84.7539 L 34.5237,-85.124
 L 34.5,-85.5 L 34.5237,-85.876 L 34.5942,-86.2461 L 34.7107,-86.6044 L 34.8711,-86.9453 L 35.0729,-87.2634
 L 35.3131,-87.5536 L 35.5877,-87.8115 L 35.8925,-88.033 L 36.2227,-88.2145 L 36.5729,-88.3532 L 36.9379,-88.4469
 L 37.3116,-88.4941 L 37.6884,-88.4941 L 38.0621,-88.4469 L 38.427,-88.3532 L 38.7773,-88.2145 L 39.1075,-88.033
 L 39.4123,-87.8115 L 39.6869,-87.5536 L 39.927,-87.2634 L 40.1289,-86.9453 L 40.2893,-86.6044 L 40.4057,-86.2461
 L 40.4763,-85.876 L 40.5,-85.5 L 40.4763,-85.124 L 40.4057,-84.7539 L 40.2893,-84.3956 L 40.1289,-84.0547
 L 39.927,-83.7366 L 39.6869,-83.4464 L 39.4123,-83.1884 L 39.1075,-82.967 L 38.7773,-82.7855 L 38.427,-82.6468
 L 38.0621,-82.5531 L 37.6884,-82.5059 z
M 14.5997,-83.1336 L 14.3063,-83.2024 L 14.0238,-83.3075 L 13.7567,-83.4471 L 13.5092,-83.6191 L 13.2853,-83.8208
 L 13.0883,-84.049 L 12.9215,-84.3 L 12.7875,-84.57 L 12.6884,-84.8546 L 12.6257,-85.1494 L 12.6005,-85.4497
 L 12.6131,-85.7509 L 12.6634,-86.048 L 12.7505,-86.3366 L 12.8731,-86.6119 L 13.0292,-86.8697 L 13.2164,-87.1059
 L 13.4318,-87.3168 L 13.6719,-87.499 L 13.9329,-87.6497 L 14.2107,-87.7665 L 14.501,-87.8475 L 14.7992,-87.8916
 L 15.1005,-87.8979 L 15.4002,-87.8664 L 15.6937,-87.7976 L 15.9762,-87.6925 L 16.2433,-87.5529 L 16.4908,-87.3809
 L 16.7147,-87.1792 L 16.9117,-86.951 L 17.0785,-86.7 L 17.2125,-86.43 L 17.3116,-86.1454 L 17.3743,-85.8506
 L 17.3995,-85.5502 L 17.3868,-85.2491 L 17.3366,-84.952 L 17.2495,-84.6634 L 17.1269,-84.3881 L 16.9707,-84.1303
 L 16.7835,-83.8941 L 16.5682,-83.6832 L 16.3281,-83.501 L 16.0671,-83.3503 L 15.7893,-83.2335 L 15.499,-83.1524
 L 15.2008,-83.1084 L 14.8995,-83.1021 z
M -45.4002,-83.1336 L -45.6937,-83.2024 L -45.9762,-83.3075 L -46.2433,-83.4471 L -46.4908,-83.6191 L -46.7147,-83.8208
 L -46.9117,-84.049 L -47.0785,-84.3 L -47.2125,-84.57 L -47.3116,-84.8546 L -47.3743,-85.1494 L -47.3995,-85.4497
 L -47.3868,-85.7509 L -47.3366,-86.048 L -47.2495,-86.3366 L -47.1269,-86.6119 L -46.9707,-86.8697 L -46.7835,-87.1059
 L -46.5682,-87.3168 L -46.3281,-87.499 L -46.0671,-87.6497 L -45.7893,-87.7665 L -45.499,-87.8475 L -45.2008,-87.8916
 L -44.8995,-87.8979 L -44.5997,-87.8664 L -44.3063,-87.7976 L -44.0238,-87.6925 L -43.7567,-87.5529 L -43.5092,-87.3809
 L -43.2853,-87.1792 L -43.0883,-86.951 L -42.9215,-86.7 L -42.7875,-86.43 L -42.6884,-86.1454 L -42.6257,-85.8506
 L -42.6005,-85.5502 L -42.6131,-85.2491 L -42.6634,-84.952 L -42.7505,-84.6634 L -42.8731,-84.3881 L -43.0292,-84.1303
 L -43.2164,-83.8941 L -43.4318,-83.6832 L -43.6719,-83.501 L -43.9329,-83.3503 L -44.2107,-83.2335 L -44.501,-83.1524
 L -44.7992,-83.1084 L -45.1005,-83.1021 z
M -15.4002,-83.1336 L -15.6937,-83.2024 L -15.9762,-83.3075 L -16.2433,-83.4471 L -16.4908,-83.6191 L -16.7147,-83.8208
 L -16.9117,-84.049 L -17.0785,-84.3 L -17.2125,-84.57 L -17.3116,-84.8546 L -17.3743,-85.1494 L -17.3995,-85.4497
 L -17.3868,-85.7509 L -17.3366,-86.048 L -17.2495,-86.3366 L -17.1269,-86.6119 L -16.9707,-86.8697 L -16.7835,-87.1059
 L -16.5682,-87.3168 L -16.3281,-87.499 L -16.0671,-87.6497 L -15.7893,-87.7665 L -15.499,-87.8475 L -15.2008,-87.8916
 L -14.8995,-87.8979 L -14.5997,-87.8664 L -14.3063,-87.7976 L -14.0238,-87.6925 L -13.7567,-87.5529 L -13.5092,-87.3809
 L -13.2853,-87.1792 L -13.0883,-86.951 L -12.9215,-86.7 L -12.7875,-86.43 L -12.6884,-86.1454 L -12.6257,-85.8506
 L -12.6005,-85.5502 L -12.6131,-85.2491 L -12.6634,-84.952 L -12.7505,-84.6634 L -12.8731,-84.3881 L -13.0292,-84.1303
 L -13.2164,-83.8941 L -13.4318,-83.6832 L -13.6719,-83.501 L -13.9329,-83.3503 L -14.2107,-83.2335 L -14.501,-83.1524
 L -14.7992,-83.1084 L -15.1005,-83.1021 z
M 44.5997,-83.1336 L 44.3063,-83.2024 L 44.0238,-83.3075 L 43.7567,-83.4471 L 43.5092,-83.6191 L 43.2853,-83.8208
 L 43.0883,-84.049 L 42.9215,-84.3 L 42.7875,-84.57 L 42.6884,-84.8546 L 42.6257,-85.1494 L 42.6005,-85.4497
 L 42.6131,-85.7509 L 42.6634,-86.048 L 42.7505,-86.3366 L 42.8731,-86.6119 L 43.0292,-86.8697 L 43.2164,-87.1059
 L 43.4318,-87.3168 L 43.6719,-87.499 L 43.9329,-87.6497 L 44.2107,-87.7665 L 44.501,-87.8475 L 44.7992,-87.8916
 L 45.1005,-87.8979 L 45.4002,-87.8664 L 45.6937,-87.7976 L 45.9762,-87.6925 L 46.2433,-87.5529 L 46.4908,-87.3809
 L 46.7147,-87.1792 L 46.9117,-86.951 L 47.0785,-86.7 L 47.2125,-86.43 L 47.3116,-86.1454 L 47.3743,-85.8506
 L 47.3995,-85.5502 L 47.3868,-85.2491 L 47.3366,-84.952 L 47.2495,-84.6634 L 47.1269,-84.3881 L 46.9707,-84.1303
 L 46.7835,-83.8941 L 46.5682,-83.6832 L 46.3281,-83.501 L 46.0671,-83.3503 L 45.7893,-83.2335 L 45.499,-83.1524
 L 45.2008,-83.1084 L 44.8995,-83.1021 z
M -30.4002,-83.1336 L -30.6937,-83.2024 L -30.9762,-83.3075 L -31.2433,-83.4471 L -31.4908,-83.6191 L -31.7147,-83.8208
 L -31.9117,-84.049 L -32.0785,-84.3 L -32.2125,-84.57 L -32.3116,-84.8546 L -32.3743,-85.1494 L -32.3995,-85.4497
 L -32.3868,-85.7509 L -32.3366,-86.048 L -32.2495,-86.3366 L -32.1269,-86.6119 L -31.9707,-86.8697 L -31.7835,-87.1059
 L -31.5682,-87.3168 L -31.3281,-87.499 L -31.0671,-87.6497 L -30.7893,-87.7665 L -30.499,-87.8475 L -30.2008,-87.8916
 L -29.8995,-87.8979 L -29.5997,-87.8664 L -29.3063,-87.7976 L -29.0238,-87.6925 L -28.7567,-87.5529 L -28.5092,-87.3809
 L -28.2853,-87.1792 L -28.0883,-86.951 L -27.9215,-86.7 L -27.7875,-86.43 L -27.6884,-86.1454 L -27.6257,-85.8506
 L -27.6005,-85.5502 L -27.6131,-85.2491 L -27.6634,-84.952 L -27.7505,-84.6634 L -27.8731,-84.3881 L -28.0292,-84.1303
 L -28.2164,-83.8941 L -28.4318,-83.6832 L -28.6719,-83.501 L -28.9329,-83.3503 L -29.2107,-83.2335 L -29.501,-83.1524
 L -29.7992,-83.1084 L -30.1005,-83.1021 z
M 29.9058,-84.0029 L 29.7189,-84.0266 L 29.5365,-84.0734 L 29.3613,-84.1427 L 29.1963,-84.2335 L 29.0439,-84.3442
 L 28.9065,-84.4732 L 28.7865,-84.6183 L 28.6855,-84.7774 L 28.6053,-84.9478 L 28.5471,-85.127 L 28.5118,-85.312
 L 28.5,-85.5 L 28.5118,-85.688 L 28.5471,-85.873 L 28.6053,-86.0522 L 28.6855,-86.2226 L 28.7865,-86.3817
 L 28.9065,-86.5268 L 29.0439,-86.6558 L 29.1963,-86.7665 L 29.3613,-86.8572 L 29.5365,-86.9266 L 29.7189,-86.9734
 L 29.9058,-86.997 L 30.0942,-86.997 L 30.2811,-86.9734 L 30.4635,-86.9266 L 30.6387,-86.8572 L 30.8037,-86.7665
 L 30.9561,-86.6558 L 31.0934,-86.5268 L 31.2135,-86.3817 L 31.3145,-86.2226 L 31.3947,-86.0522 L 31.4529,-85.873
 L 31.4882,-85.688 L 31.5,-85.5 L 31.4882,-85.312 L 31.4529,-85.127 L 31.3947,-84.9478 L 31.3145,-84.7774
 L 31.2135,-84.6183 L 31.0934,-84.4732 L 30.9561,-84.3442 L 30.8037,-84.2335 L 30.6387,-84.1427 L 30.4635,-84.0734
 L 30.2811,-84.0266 L 30.0942,-84.0029 z
M -0.0941772,-84.0029 L -0.281067,-84.0266 L -0.463516,-84.0734 L -0.638657,-84.1427 L -0.803726,-84.2335 L -0.956131,-84.3442
 L -1.09344,-84.4732 L -1.21352,-84.6183 L -1.31445,-84.7774 L -1.39465,-84.9478 L -1.45287,-85.127 L -1.48816,-85.312
 L -1.5,-85.5 L -1.48816,-85.688 L -1.45287,-85.873 L -1.39465,-86.0522 L -1.31445,-86.2226 L -1.21352,-86.3817
 L -1.09344,-86.5268 L -0.956131,-86.6558 L -0.803726,-86.7665 L -0.638657,-86.8572 L -0.463516,-86.9266 L -0.281067,-86.9734
 L -0.0941772,-86.997 L 0.0941772,-86.997 L 0.281067,-86.9734 L 0.463516,-86.9266 L 0.638657,-86.8572 L 0.803726,-86.7665
 L 0.956131,-86.6558 L 1.09344,-86.5268 L 1.21352,-86.3817 L 1.31445,-86.2226 L 1.39465,-86.0522 L 1.45287,-85.873
 L 1.48816,-85.688 L 1.5,-85.5 L 1.48816,-85.312 L 1.45287,-85.127 L 1.39465,-84.9478 L 1.31445,-84.7774
 L 1.21352,-84.6183 L 1.09344,-84.4732 L 0.956131,-84.3442 L 0.803726,-84.2335 L 0.638657,-84.1427 L 0.463516,-84.0734
 L 0.281067,-84.0266 L 0.0941772,-84.0029 z
M -42.8466,-75.6 L -42.8466,-81 L -32.1534,-81 L -32.1534,-75.6 z
M 47.1534,-75.6 L 47.1534,-81 L 57.8466,-81 L 57.8466,-75.6 z
M 2.15337,-75.6 L 2.15337,-81 L 12.8466,-81 L 12.8466,-75.6 z
M -57.8466,-75.6 L -57.8466,-81 L -47.1534,-81 L -47.1534,-75.6 z
M 32.1534,-75.6 L 32.1534,-81 L 42.8466,-81 L 42.8466,-75.6 z
M 17.1534,-75.6 L 17.1534,-81 L 27.8466,-81 L 27.8466,-75.6 z
M -27.8466,-75.6 L -27.8466,-81 L -17.1534,-81 L -17.1534,-75.6 z
M -12.8466,-75.6 L -12.8466,-81 L -2.15337,-81 L -2.15337,-75.6 z
M -55.0307,-51.6 L -57.8466,-51.6 L -57.8466,-57 L -55.0307,-57 L -55.0307,-59.9 L -55.1289,-60.0547
 L -55.2893,-60.3956 L -55.4057,-60.7539 L -55.4763,-61.124 L -55.5,-61.5 L -55.4763,-61.876 L -55.4057,-62.2461
 L -55.2893,-62.6044 L -55.1289,-62.9453 L -54.927,-63.2634 L -54.6869,-63.5536 L -54.4123,-63.8115 L -54.1075,-64.033
 L -53.7773,-64.2145 L -53.427,-64.3532 L -53.0621,-64.4469 L -52.6884,-64.4941 L -52.3116,-64.4941 L -51.9379,-64.4469
 L -51.5729,-64.3532 L -51.2227,-64.2145 L -50.8925,-64.033 L -50.5877,-63.8115 L -50.3131,-63.5536 L -50.0729,-63.2634
 L -49.8711,-62.9453 L -49.7107,-62.6044 L -49.5942,-62.2461 L -49.5237,-61.876 L -49.5,-61.5 L -49.5237,-61.124
 L -49.5942,-60.7539 L -49.7107,-60.3956 L -49.8711,-60.0547 L -49.9693,-59.9 L -49.9693,-57 L -47.1534,-57
 L -47.1534,-51.6 L -49.9693,-51.6 L -49.9693,-48 L -40.0307,-48 L -40.0307,-51.6 L -42.8466,-51.6
 L -42.8466,-57 L -40.0307,-57 L -40.0307,-59.9 L -40.1289,-60.0547 L -40.2893,-60.3956 L -40.4057,-60.7539
 L -40.4763,-61.124 L -40.5,-61.5 L -40.4763,-61.876 L -40.4057,-62.2461 L -40.2893,-62.6044 L -40.1289,-62.9453
 L -39.927,-63.2634 L -39.6869,-63.5536 L -39.4123,-63.8115 L -39.1075,-64.033 L -38.7773,-64.2145 L -38.427,-64.3532
 L -38.0621,-64.4469 L -37.6884,-64.4941 L -37.3116,-64.4941 L -36.9379,-64.4469 L -36.5729,-64.3532 L -36.2227,-64.2145
 L -35.8925,-64.033 L -35.5877,-63.8115 L -35.3131,-63.5536 L -35.0729,-63.2634 L -34.8711,-62.9453 L -34.7107,-62.6044
 L -34.5942,-62.2461 L -34.5237,-61.876 L -34.5,-61.5 L -34.5237,-61.124 L -34.5942,-60.7539 L -34.7107,-60.3956
 L -34.8711,-60.0547 L -34.9693,-59.9 L -34.9693,-57 L -32.1534,-57 L -32.1534,-51.6 L -34.9693,-51.6
 L -34.9693,-48 L -25.0307,-48 L -25.0307,-51.6 L -27.8466,-51.6 L -27.8466,-57 L -25.0307,-57
 L -25.0307,-59.9 L -25.1289,-60.0547 L -25.2893,-60.3956 L -25.4057,-60.7539 L -25.4763,-61.124 L -25.5,-61.5
 L -25.4763,-61.876 L -25.4057,-62.2461 L -25.2893,-62.6044 L -25.1289,-62.9453 L -24.927,-63.2634 L -24.6869,-63.5536
 L -24.4123,-63.8115 L -24.1075,-64.033 L -23.7773,-64.2145 L -23.427,-64.3532 L -23.0621,-64.4469 L -22.6884,-64.4941
 L -22.3116,-64.4941 L -21.9379,-64.4469 L -21.5729,-64.3532 L -21.2227,-64.2145 L -20.8925,-64.033 L -20.5877,-63.8115
 L -20.3131,-63.5536 L -20.0729,-63.2634 L -19.8711,-62.9453 L -19.7107,-62.6044 L -19.5942,-62.2461 L -19.5237,-61.876
 L -19.5,-61.5 L -19.5237,-61.124 L -19.5942,-60.7539 L -19.7107,-60.3956 L -19.8711,-60.0547 L -19.9693,-59.9
 L -19.9693,-57 L -17.1534,-57 L -17.1534,-51.6 L -19.9693,-51.6 L -19.9693,-48 L -10.0307,-48
 L -10.0307,-51.6 L -12.8466,-51.6 L -12.8466,-57 L -10.0307,-57 L -10.0307,-59.9 L -10.1289,-60.0547
 L -10.2893,-60.3956 L -10.4057,-60.7539 L -10.4763,-61.124 L -10.5,-61.5 L -10.4763,-61.876 L -10.4057,-62.2461
 L -10.2893,-62.6044 L -10.1289,-62.9453 L -9.92705,-63.2634 L -9.6869,-63.5536 L -9.41226,-63.8115 L -9.10747,-64.033
 L -8.77733,-64.2145 L -8.42705,-64.3532 L -8.06213,-64.4469 L -7.68837,-64.4941 L -7.31161,-64.4941 L -6.93785,-64.4469
 L -6.57294,-64.3532 L -6.22266,-64.2145 L -5.89252,-64.033 L -5.58772,-63.8115 L -5.31308,-63.5536 L -5.07294,-63.2634
 L -4.87108,-62.9453 L -4.71066,-62.6044 L -4.59424,-62.2461 L -4.52365,-61.876 L -4.5,-61.5 L -4.52365,-61.124
 L -4.59424,-60.7539 L -4.71066,-60.3956 L -4.87108,-60.0547 L -4.96927,-59.9 L -4.96927,-57 L -2.15337,-57
 L -2.15337,-51.6 L -4.96927,-51.6 L -4.96927,-48 L 4.96927,-48 L 4.96927,-51.6 L 2.15337,-51.6
 L 2.15337,-57 L 4.96927,-57 L 4.96927,-59.9 L 4.87108,-60.0547 L 4.71066,-60.3956 L 4.59424,-60.7539
 L 4.52365,-61.124 L 4.5,-61.5 L 4.52365,-61.876 L 4.59424,-62.2461 L 4.71066,-62.6044 L 4.87108,-62.9453
 L 5.07294,-63.2634 L 5.31308,-63.5536 L 5.58772,-63.8115 L 5.89252,-64.033 L 6.22266,-64.2145 L 6.57294,-64.3532
 L 6.93785,-64.4469 L 7.31161,-64.4941 L 7.68837,-64.4941 L 8.06213,-64.4469 L 8.42705,-64.3532 L 8.77733,-64.2145
 L 9.10747,-64.033 L 9.41226,-63.8115 L 9.6869,-63.5536 L 9.92705,-63.2634 L 10.1289,-62.9453 L 10.2893,-62.6044
 L 10.4057,-62.2461 L 10.4763,-61.876 L 10.5,-61.5 L 10.4763,-61.124 L 10.4057,-60.7539 L 10.2893,-60.3956
 L 10.1289,-60.0547 L 10.0307,-59.9 L 10.0307,-57 L 12.8466,-57 L 12.8466,-51.6 L 10.0307,-51.6
 L 10.0307,-48 L 19.9693,-48 L 19.9693,-51.6 L 17.1534,-51.6 L 17.1534,-57 L 19.9693,-57
 L 19.9693,-59.9 L 19.8711,-60.0547 L 19.7107,-60.3956 L 19.5942,-60.7539 L 19.5237,-61.124 L 19.5,-61.5
 L 19.5237,-61.876 L 19.5942,-62.2461 L 19.7107,-62.6044 L 19.8711,-62.9453 L 20.0729,-63.2634 L 20.3131,-63.5536
 L 20.5877,-63.8115 L 20.8925,-64.033 L 21.2227,-64.2145 L 21.5729,-64.3532 L 21.9379,-64.4469 L 22.3116,-64.4941
 L 22.6884,-64.4941 L 23.0621,-64.4469 L 23.427,-64.3532 L 23.7773,-64.2145 L 24.1075,-64.033 L 24.4123,-63.8115
 L 24.6869,-63.5536 L 24.927,-63.2634 L 25.1289,-62.9453 L 25.2893,-62.6044 L 25.4057,-62.2461 L 25.4763,-61.876
 L 25.5,-61.5 L 25.4763,-61.124 L 25.4057,-60.7539 L 25.2893,-60.3956 L 25.1289,-60.0547 L 25.0307,-59.9
 L 25.0307,-57 L 27.8466,-57 L 27.8466,-51.6 L 25.0307,-51.6 L 25.0307,-48 L 34.9693,-48
 L 34.9693,-51.6 L 32.1534,-51.6 L 32.1534,-57 L 34.9693,-57 L 34.9693,-59.9 L 34.8711,-60.0547
 L 34.7107,-60.3956 L 34.5942,-60.7539 L 34.5237,-61.124 L 34.5,-61.5 L 34.5237,-61.876 L 34.5942,-62.2461
 L 34.7107,-62.6044 L 34.8711,-62.9453 L 35.0729,-63.2634 L 35.3131,-63.5536 L 35.5877,-63.8115 L 35.8925,-64.033
 L 36.2227,-64.2145 L 36.5729,-64.3532 L 36.9379,-64.4469 L 37.3116,-64.4941 L 37.6884,-64.4941 L 38.0621,-64.4469
 L 38.427,-64.3532 L 38.7773,-64.2145 L 39.1075,-64.033 L 39.4123,-63.8115 L 39.6869,-63.5536 L 39.927,-63.2634
 L 40.1289,-62.9453 L 40.2893,-62.6044 L 40.4057,-62.2461 L 40.4763,-61.876 L 40.5,-61.5 L 40.4763,-61.124
 L 40.4057,-60.7539 L 40.2893,-60.3956 L 40.1289,-60.0547 L 40.0307,-59.9 L 40.0307,-57 L 42.8466,-57
 L 42.8466,-51.6 L 40.0307,-51.6 L 40.0307,-48 L 49.9693,-48 L 49.9693,-51.6 L 47.1534,-51.6
 L 47.1534,-57 L 49.9693,-57 L 49.9693,-59.9 L 49.8711,-60.0547 L 49.7107,-60.3956 L 49.5942,-60.7539
 L 49.5237,-61.124 L 49.5,-61.5 L 49.5237,-61.876 L 49.5942,-62.2461 L 49.7107,-62.6044 L 49.8711,-62.9453
 L 50.0729,-63.2634 L 50.3131,-63.5536 L 50.5877,-63.8115 L 50.8925,-64.033 L 51.2227,-64.2145 L 51.5729,-64.3532
 L 51.9379,-64.4469 L 52.3116,-64.4941 L 52.6884,-64.4941 L 53.0621,-64.4469 L 53.427,-64.3532 L 53.7773,-64.2145
 L 54.1075,-64.033 L 54.4123,-63.8115 L 54.6869,-63.5536 L 54.927,-63.2634 L 55.1289,-62.9453 L 55.2893,-62.6044
 L 55.4057,-62.2461 L 55.4763,-61.876 L 55.5,-61.5 L 55.4763,-61.124 L 55.4057,-60.7539 L 55.2893,-60.3956
 L 55.1289,-60.0547 L 55.0307,-59.9 L 55.0307,-57 L 57.8466,-57 L 57.8466,-51.6 L 55.0307,-51.6
 L 55.0307,-48 L 59.5,-48 L 59.5,-63.5 L 59.4606,-64.1267 L 59.3429,-64.7434 L 59.1489,-65.3406
 L 58.8815,-65.9088 L 58.5451,-66.4389 L 58.1448,-66.9227 L 57.6871,-67.3526 L 57.1791,-67.7216 L 56.6289,-68.0241
 L 56.0451,-68.2553 L 55.4369,-68.4114 L 54.8139,-68.4901 L -54.8139,-68.4901 L -55.4369,-68.4114 L -56.0451,-68.2553
 L -56.6289,-68.0241 L -57.1791,-67.7216 L -57.6871,-67.3526 L -58.1448,-66.9227 L -58.5451,-66.4389 L -58.8815,-65.9088
 L -59.1489,-65.3406 L -59.3429,-64.7434 L -59.4606,-64.1267 L -59.5,-63.5 L -59.5,-48 L -55.0307,-48
 z
M 28.3267,-58.6018 L 26.6534,-61.5 L 28.3267,-64.3982 L 31.6733,-64.3982 L 33.3466,-61.5 L 31.6733,-58.6018
 z
M -1.67329,-58.6018 L -3.34657,-61.5 L -1.67328,-64.3982 L 1.67329,-64.3982 L 3.34657,-61.5 L 1.67328,-58.6018
 z
M 13.3267,-58.6018 L 11.6534,-61.5 L 13.3267,-64.3982 L 16.6733,-64.3982 L 18.3466,-61.5 L 16.6733,-58.6018
 z
M -16.6733,-58.6018 L -18.3466,-61.5 L -16.6733,-64.3982 L -13.3267,-64.3982 L -11.6534,-61.5 L -13.3267,-58.6018
 z
M -46.6733,-58.6018 L -48.3466,-61.5 L -46.6733,-64.3982 L -43.3267,-64.3982 L -41.6534,-61.5 L -43.3267,-58.6018
 z
M 43.3267,-58.6018 L 41.6534,-61.5 L 43.3267,-64.3982 L 46.6733,-64.3982 L 48.3466,-61.5 L 46.6733,-58.6018
 z
M -30.0784,-60.0029 L -30.0942,-60.0029 L -30.1721,-60.0128 L -30.2502,-60.021 L -30.2655,-60.0246 L -30.2811,-60.0266
 L -30.3571,-60.0461 L -30.4335,-60.064 L -30.4483,-60.0695 L -30.4635,-60.0734 L -30.5365,-60.1023 L -30.6101,-60.1297
 L -30.624,-60.137 L -30.6387,-60.1427 L -30.7074,-60.1806 L -30.777,-60.2169 L -30.7899,-60.2259 L -30.8037,-60.2335
 L -30.8672,-60.2796 L -30.9317,-60.3244 L -30.9434,-60.335 L -30.9561,-60.3442 L -31.0134,-60.398 L -31.0717,-60.4505
 L -31.082,-60.4624 L -31.0934,-60.4732 L -31.1435,-60.5336 L -31.1948,-60.5931 L -31.2035,-60.6062 L -31.2135,-60.6183
 L -31.2556,-60.6846 L -31.299,-60.75 L -31.306,-60.7641 L -31.3145,-60.7774 L -31.3479,-60.8484 L -31.3828,-60.9187
 L -31.388,-60.9336 L -31.3947,-60.9478 L -31.4189,-61.0225 L -31.4447,-61.0966 L -31.448,-61.112 L -31.4529,-61.127
 L -31.4676,-61.2041 L -31.4839,-61.2809 L -31.4852,-61.2965 L -31.4882,-61.312 L -31.4931,-61.3904 L -31.4997,-61.4686
 L -31.499,-61.4843 L -31.5,-61.5 L -31.4951,-61.5784 L -31.4918,-61.6568 L -31.4892,-61.6723 L -31.4882,-61.688
 L -31.4734,-61.7651 L -31.4604,-61.8425 L -31.4558,-61.8576 L -31.4529,-61.873 L -31.4286,-61.9477 L -31.4059,-62.0229
 L -31.3995,-62.0372 L -31.3947,-62.0522 L -31.3612,-62.1232 L -31.3293,-62.1949 L -31.3212,-62.2084 L -31.3145,-62.2226
 L -31.2724,-62.2889 L -31.2317,-62.3561 L -31.2219,-62.3684 L -31.2135,-62.3817 L -31.1635,-62.4422 L -31.1147,-62.5037
 L -31.1035,-62.5147 L -31.0934,-62.5268 L -31.0362,-62.5806 L -30.9801,-62.6355 L -30.9676,-62.645 L -30.9561,-62.6558
 L -30.8926,-62.7019 L -30.8301,-62.7494 L -30.8165,-62.7572 L -30.8037,-62.7665 L -30.7349,-62.8043 L -30.6669,-62.8436
 L -30.6525,-62.8497 L -30.6387,-62.8572 L -30.5657,-62.8861 L -30.4933,-62.9165 L -30.4781,-62.9208 L -30.4635,-62.9266
 L -30.3875,-62.9461 L -30.3119,-62.9672 L -30.2963,-62.9695 L -30.2811,-62.9734 L -30.2032,-62.9833 L -30.1255,-62.9947
 L -30.1098,-62.9951 L -30.0942,-62.997 L -30.0157,-62.997 L -29.9372,-62.9987 L -29.9215,-62.997 L -29.9058,-62.997
 L -29.8279,-62.9872 L -29.7498,-62.979 L -29.7345,-62.9754 L -29.7189,-62.9734 L -29.6429,-62.9539 L -29.5665,-62.936
 L -29.5517,-62.9305 L -29.5365,-62.9266 L -29.4635,-62.8977 L -29.3899,-62.8703 L -29.3759,-62.863 L -29.3613,-62.8572
 L -29.2925,-62.8194 L -29.2229,-62.783 L -29.21,-62.7741 L -29.1963,-62.7665 L -29.1328,-62.7204 L -29.0683,-62.6755
 L -29.0566,-62.665 L -29.0439,-62.6558 L -28.9866,-62.602 L -28.9283,-62.5495 L -28.918,-62.5376 L -28.9065,-62.5268
 L -28.8565,-62.4663 L -28.8052,-62.4069 L -28.7965,-62.3938 L -28.7865,-62.3817 L -28.7444,-62.3154 L -28.701,-62.25
 L -28.694,-62.2359 L -28.6855,-62.2226 L -28.6521,-62.1516 L -28.6172,-62.0813 L -28.612,-62.0664 L -28.6053,-62.0522
 L -28.5811,-61.9775 L -28.5553,-61.9034 L -28.552,-61.888 L -28.5471,-61.873 L -28.5324,-61.7959 L -28.5161,-61.7191
 L -28.5148,-61.7034 L -28.5118,-61.688 L -28.5069,-61.6096 L -28.5003,-61.5314 L -28.501,-61.5157 L -28.5,-61.5
 L -28.5049,-61.4217 L -28.5082,-61.3432 L -28.5108,-61.3277 L -28.5118,-61.312 L -28.5265,-61.2349 L -28.5396,-61.1575
 L -28.5442,-61.1424 L -28.5471,-61.127 L -28.5714,-61.0523 L -28.5941,-60.9771 L -28.6005,-60.9628 L -28.6053,-60.9478
 L -28.6387,-60.8768 L -28.6707,-60.8051 L -28.6788,-60.7916 L -28.6855,-60.7774 L -28.7276,-60.7111 L -28.7683,-60.6439
 L -28.778,-60.6316 L -28.7865,-60.6183 L -28.8365,-60.5578 L -28.8853,-60.4963 L -28.8965,-60.4853 L -28.9065,-60.4732
 L -28.9638,-60.4194 L -29.0199,-60.3645 L -29.0324,-60.355 L -29.0439,-60.3442 L -29.1074,-60.2981 L -29.1699,-60.2506
 L -29.1835,-60.2428 L -29.1963,-60.2335 L -29.265,-60.1957 L -29.333,-60.1564 L -29.3475,-60.1503 L -29.3613,-60.1427
 L -29.4343,-60.1139 L -29.5067,-60.0834 L -29.5219,-60.0792 L -29.5365,-60.0734 L -29.6125,-60.0539 L -29.6881,-60.0328
 L -29.7037,-60.0305 L -29.7189,-60.0266 L -29.7968,-60.0167 L -29.8745,-60.0052 L -29.8902,-60.0049 L -29.9058,-60.0029
 L -29.9843,-60.0029 L -30.0628,-60.0013 z
M -55.0942,-27.6 L -57.8466,-27.6 L -57.8466,-33 L -55.0942,-33 L -55.0942,-36 L -55.1289,-36.0547
 L -55.2893,-36.3956 L -55.4057,-36.7539 L -55.4763,-37.124 L -55.5,-37.5 L -55.4763,-37.876 L -55.4057,-38.2461
 L -55.2893,-38.6044 L -55.1289,-38.9453 L -54.927,-39.2634 L -54.6869,-39.5536 L -54.4123,-39.8115 L -54.1075,-40.033
 L -53.7773,-40.2145 L -53.427,-40.3532 L -53.0621,-40.4469 L -52.6884,-40.4941 L -52.3116,-40.4941 L -51.9379,-40.4469
 L -51.5729,-40.3532 L -51.2227,-40.2145 L -50.8925,-40.033 L -50.5877,-39.8115 L -50.3131,-39.5536 L -50.0729,-39.2634
 L -49.8711,-38.9453 L -49.7107,-38.6044 L -49.5942,-38.2461 L -49.5237,-37.876 L -49.5,-37.5 L -49.5237,-37.124
 L -49.5942,-36.7539 L -49.7107,-36.3956 L -49.8711,-36.0547 L -49.9058,-36 L -49.9058,-33 L -47.1534,-33
 L -47.1534,-27.6 L -49.9058,-27.6 L -49.9058,-24 L -40.0942,-24 L -40.0942,-27.6 L -42.8466,-27.6
 L -42.8466,-33 L -40.0942,-33 L -40.0942,-36 L -40.1289,-36.0547 L -40.2893,-36.3956 L -40.4057,-36.7539
 L -40.4763,-37.124 L -40.5,-37.5 L -40.4763,-37.876 L -40.4057,-38.2461 L -40.2893,-38.6044 L -40.1289,-38.9453
 L -39.927,-39.2634 L -39.6869,-39.5536 L -39.4123,-39.8115 L -39.1075,-40.033 L -38.7773,-40.2145 L -38.427,-40.3532
 L -38.0621,-40.4469 L -37.6884,-40.4941 L -37.3116,-40.4941 L -36.9379,-40.4469 L -36.5729,-40.3532 L -36.2227,-40.2145
 L -35.8925,-40.033 L -35.5877,-39.8115 L -35.3131,-39.5536 L -35.0729,-39.2634 L -34.8711,-38.9453 L -34.7107,-38.6044
 L -34.5942,-38.2461 L -34.5237,-37.876 L -34.5,-37.5 L -34.5237,-37.124 L -34.5942,-36.7539 L -34.7107,-36.3956
 L -34.8711,-36.0547 L -34.9058,-36 L -34.9058,-33 L -32.1534,-33 L -32.1534,-27.6 L -34.9058,-27.6
 L -34.9058,-24 L -25.0942,-24 L -25.0942,-27.6 L -27.8466,-27.6 L -27.8466,-33 L -25.0942,-33
 L -25.0942,-36 L -25.1289,-36.0547 L -25.2893,-36.3956 L -25.4057,-36.7539 L -25.4763,-37.124 L -25.5,-37.5
 L -25.4763,-37.876 L -25.4057,-38.2461 L -25.2893,-38.6044 L -25.1289,-38.9453 L -24.927,-39.2634 L -24.6869,-39.5536
 L -24.4123,-39.8115 L -24.1075,-40.033 L -23.7773,-40.2145 L -23.427,-40.3532 L -23.0621,-40.4469 L -22.6884,-40.4941
 L -22.3116,-40.4941 L -21.9379,-40.4469 L -21.5729,-40.3532 L -21.2227,-40.2145 L -20.8925,-40.033 L -20.5877,-39.8115
 L -20.3131,-39.5536 L -20.0729,-39.2634 L -19.8711,-38.9453 L -19.7107,-38.6044 L -19.5942,-38.2461 L -19.5237,-37.876
 L -19.5,-37.5 L -19.5237,-37.124 L -19.5942,-36.7539 L -19.7107,-36.3956 L -19.8711,-36.0547 L -19.9058,-36
 L -19.9058,-33 L -17.1534,-33 L -17.1534,-27.6 L -19.9058,-27.6 L -19.9058,-24 L -10.0942,-24
 L -10.0942,-27.6 L -12.8466,-27.6 L -12.8466,-33 L -10.0942,-33 L -10.0942,-36 L -10.1289,-36.0547
 L -10.2893,-36.3956 L -10.4057,-36.7539 L -10.4763,-37.124 L -10.5,-37.5 L -10.4763,-37.876 L -10.4057,-38.2461
 L -10.2893,-38.6044 L -10.1289,-38.9453 L -9.92705,-39.2634 L -9.6869,-39.5536 L -9.41226,-39.8115 L -9.10747,-40.033
 L -8.77733,-40.2145 L -8.42705,-40.3532 L -8.06213,-40.4469 L -7.68837,-40.4941 L -7.31161,-40.4941 L -6.93785,-40.4469
 L -6.57294,-40.3532 L -6.22266,-40.2145 L -5.89252,-40.033 L -5.58772,-39.8115 L -5.31308,-39.5536 L -5.07294,-39.2634
 L -4.87108,-38.9453 L -4.71066,-38.6044 L -4.59424,-38.2461 L -4.52365,-37.876 L -4.5,-37.5 L -4.52365,-37.124
 L -4.59424,-36.7539 L -4.71066,-36.3956 L -4.87108,-36.0547 L -4.90581,-36 L -4.90581,-33 L -2.15337,-33
 L -2.15337,-27.6 L -4.90581,-27.6 L -4.90581,-24 L 4.90581,-24 L 4.90581,-27.6 L 2.15337,-27.6
 L 2.15337,-33 L 4.90581,-33 L 4.90581,-36 L 4.87108,-36.0547 L 4.71066,-36.3956 L 4.59424,-36.7539
 L 4.52365,-37.124 L 4.5,-37.5 L 4.52365,-37.876 L 4.59424,-38.2461 L 4.71066,-38.6044 L 4.87108,-38.9453
 L 5.07294,-39.2634 L 5.31308,-39.5536 L 5.58772,-39.8115 L 5.89252,-40.033 L 6.22266,-40.2145 L 6.57294,-40.3532
 L 6.93785,-40.4469 L 7.31161,-40.4941 L 7.68837,-40.4941 L 8.06213,-40.4469 L 8.42705,-40.3532 L 8.77733,-40.2145
 L 9.10747,-40.033 L 9.41226,-39.8115 L 9.6869,-39.5536 L 9.92705,-39.2634 L 10.1289,-38.9453 L 10.2893,-38.6044
 L 10.4057,-38.2461 L 10.4763,-37.876 L 10.5,-37.5 L 10.4763,-37.124 L 10.4057,-36.7539 L 10.2893,-36.3956
 L 10.1289,-36.0547 L 10.0942,-36 L 10.0942,-33 L 12.8466,-33 L 12.8466,-27.6 L 10.0942,-27.6
 L 10.0942,-24 L 19.9058,-24 L 19.9058,-27.6 L 17.1534,-27.6 L 17.1534,-33 L 19.9058,-33
 L 19.9058,-36 L 19.8711,-36.0547 L 19.7107,-36.3956 L 19.5942,-36.7539 L 19.5237,-37.124 L 19.5,-37.5
 L 19.5237,-37.876 L 19.5942,-38.2461 L 19.7107,-38.6044 L 19.8711,-38.9453 L 20.0729,-39.2634 L 20.3131,-39.5536
 L 20.5877,-39.8115 L 20.8925,-40.033 L 21.2227,-40.2145 L 21.5729,-40.3532 L 21.9379,-40.4469 L 22.3116,-40.4941
 L 22.6884,-40.4941 L 23.0621,-40.4469 L 23.427,-40.3532 L 23.7773,-40.2145 L 24.1075,-40.033 L 24.4123,-39.8115
 L 24.6869,-39.5536 L 24.927,-39.2634 L 25.1289,-38.9453 L 25.2893,-38.6044 L 25.4057,-38.2461 L 25.4763,-37.876
 L 25.5,-37.5 L 25.4763,-37.124 L 25.4057,-36.7539 L 25.2893,-36.3956 L 25.1289,-36.0547 L 25.0942,-36
 L 25.0942,-33 L 27.8466,-33 L 27.8466,-27.6 L 25.0942,-27.6 L 25.0942,-24 L 34.9058,-24
 L 34.9058,-27.6 L 32.1534,-27.6 L 32.1534,-33 L 34.9058,-33 L 34.9058,-36 L 34.8711,-36.0547
 L 34.7107,-36.3956 L 34.5942,-36.7539 L 34.5237,-37.124 L 34.5,-37.5 L 34.5237,-37.876 L 34.5942,-38.2461
 L 34.7107,-38.6044 L 34.8711,-38.9453 L 35.0729,-39.2634 L 35.3131,-39.5536 L 35.5877,-39.8115 L 35.8925,-40.033
 L 36.2227,-40.2145 L 36.5729,-40.3532 L 36.9379,-40.4469 L 37.3116,-40.4941 L 37.6884,-40.4941 L 38.0621,-40.4469
 L 38.427,-40.3532 L 38.7773,-40.2145 L 39.1075,-40.033 L 39.4123,-39.8115 L 39.6869,-39.5536 L 39.927,-39.2634
 L 40.1289,-38.9453 L 40.2893,-38.6044 L 40.4057,-38.2461 L 40.4763,-37.876 L 40.5,-37.5 L 40.4763,-37.124
 L 40.4057,-36.7539 L 40.2893,-36.3956 L 40.1289,-36.0547 L 40.0942,-36 L 40.0942,-33 L 42.8466,-33
 L 42.8466,-27.6 L 40.0942,-27.6 L 40.0942,-24 L 49.9058,-24 L 49.9058,-27.6 L 47.1534,-27.6
 L 47.1534,-33 L 49.9058,-33 L 49.9058,-36 L 49.8711,-36.0547 L 49.7107,-36.3956 L 49.5942,-36.7539
 L 49.5237,-37.124 L 49.5,-37.5 L 49.5237,-37.876 L 49.5942,-38.2461 L 49.7107,-38.6044 L 49.8711,-38.9453
 L 50.0729,-39.2634 L 50.3131,-39.5536 L 50.5877,-39.8115 L 50.8925,-40.033 L 51.2227,-40.2145 L 51.5729,-40.3532
 L 51.9379,-40.4469 L 52.3116,-40.4941 L 52.6884,-40.4941 L 53.0621,-40.4469 L 53.427,-40.3532 L 53.7773,-40.2145
 L 54.1075,-40.033 L 54.4123,-39.8115 L 54.6869,-39.5536 L 54.927,-39.2634 L 55.1289,-38.9453 L 55.2893,-38.6044
 L 55.4057,-38.2461 L 55.4763,-37.876 L 55.5,-37.5 L 55.4763,-37.124 L 55.4057,-36.7539 L 55.2893,-36.3956
 L 55.1289,-36.0547 L 55.0942,-36 L 55.0942,-33 L 57.8466,-33 L 57.8466,-27.6 L 55.0942,-27.6
 L 55.0942,-24 L 59.5,-24 L 59.5,-39.5 L 59.4606,-40.1267 L 59.3429,-40.7434 L 59.1489,-41.3406
 L 58.8815,-41.9088 L 58.5451,-42.4389 L 58.1448,-42.9227 L 57.6871,-43.3526 L 57.1791,-43.7216 L 56.6289,-44.0241
 L 56.0451,-44.2553 L 55.4369,-44.4114 L 54.8139,-44.4901 L -54.8139,-44.4901 L -55.4369,-44.4114 L -56.0451,-44.2553
 L -56.6289,-44.0241 L -57.1791,-43.7216 L -57.6871,-43.3526 L -58.1448,-42.9227 L -58.5451,-42.4389 L -58.8815,-41.9088
 L -59.1489,-41.3406 L -59.3429,-40.7434 L -59.4606,-40.1267 L -59.5,-39.5 L -59.5,-24 L -55.0942,-24
 z
M 28.3267,-34.6018 L 26.6534,-37.5 L 28.3267,-40.3982 L 31.6733,-40.3982 L 33.3466,-37.5 L 31.6733,-34.6018
 z
M -1.67329,-34.6018 L -3.34657,-37.5 L -1.67328,-40.3982 L 1.67329,-40.3982 L 3.34657,-37.5 L 1.67328,-34.6018
 z
M -16.6733,-34.6018 L -18.3466,-37.5 L -16.6733,-40.3982 L -13.3267,-40.3982 L -11.6534,-37.5 L -13.3267,-34.6018
 z
M 13.3267,-34.6018 L 11.6534,-37.5 L 13.3267,-40.3982 L 16.6733,-40.3982 L 18.3466,-37.5 L 16.6733,-34.6018
 z
M 43.3267,-34.6018 L 41.6534,-37.5 L 43.3267,-40.3982 L 46.6733,-40.3982 L 48.3466,-37.5 L 46.6733,-34.6018
 z
M -46.6733,-34.6018 L -48.3466,-37.5 L -46.6733,-40.3982 L -43.3267,-40.3982 L -41.6534,-37.5 L -43.3267,-34.6018
 z
M -30.0784,-36.0029 L -30.0942,-36.0029 L -30.1721,-36.0128 L -30.2502,-36.021 L -30.2655,-36.0246 L -30.2811,-36.0266
 L -30.3571,-36.0461 L -30.4335,-36.064 L -30.4483,-36.0695 L -30.4635,-36.0734 L -30.5365,-36.1023 L -30.6101,-36.1297
 L -30.624,-36.137 L -30.6387,-36.1427 L -30.7074,-36.1806 L -30.777,-36.2169 L -30.7899,-36.2259 L -30.8037,-36.2335
 L -30.8672,-36.2796 L -30.9317,-36.3244 L -30.9434,-36.335 L -30.9561,-36.3442 L -31.0134,-36.398 L -31.0717,-36.4505
 L -31.082,-36.4624 L -31.0934,-36.4732 L -31.1435,-36.5336 L -31.1948,-36.5931 L -31.2035,-36.6062 L -31.2135,-36.6183
 L -31.2556,-36.6846 L -31.299,-36.75 L -31.306,-36.7641 L -31.3145,-36.7774 L -31.3479,-36.8484 L -31.3828,-36.9187
 L -31.388,-36.9336 L -31.3947,-36.9478 L -31.4189,-37.0225 L -31.4447,-37.0966 L -31.448,-37.112 L -31.4529,-37.127
 L -31.4676,-37.2041 L -31.4839,-37.2809 L -31.4852,-37.2965 L -31.4882,-37.312 L -31.4931,-37.3904 L -31.4997,-37.4686
 L -31.499,-37.4843 L -31.5,-37.5 L -31.4951,-37.5784 L -31.4918,-37.6568 L -31.4892,-37.6723 L -31.4882,-37.688
 L -31.4734,-37.7651 L -31.4604,-37.8425 L -31.4558,-37.8576 L -31.4529,-37.873 L -31.4286,-37.9477 L -31.4059,-38.0229
 L -31.3995,-38.0372 L -31.3947,-38.0522 L -31.3612,-38.1232 L -31.3293,-38.1949 L -31.3212,-38.2084 L -31.3145,-38.2226
 L -31.2724,-38.2889 L -31.2317,-38.3561 L -31.2219,-38.3684 L -31.2135,-38.3817 L -31.1635,-38.4422 L -31.1147,-38.5037
 L -31.1035,-38.5147 L -31.0934,-38.5268 L -31.0362,-38.5806 L -30.9801,-38.6355 L -30.9676,-38.645 L -30.9561,-38.6558
 L -30.8926,-38.7019 L -30.8301,-38.7494 L -30.8165,-38.7572 L -30.8037,-38.7665 L -30.7349,-38.8043 L -30.6669,-38.8436
 L -30.6525,-38.8497 L -30.6387,-38.8572 L -30.5657,-38.8861 L -30.4933,-38.9165 L -30.4781,-38.9208 L -30.4635,-38.9266
 L -30.3875,-38.9461 L -30.3119,-38.9672 L -30.2963,-38.9695 L -30.2811,-38.9734 L -30.2032,-38.9833 L -30.1255,-38.9947
 L -30.1098,-38.9951 L -30.0942,-38.997 L -30.0157,-38.997 L -29.9372,-38.9987 L -29.9215,-38.997 L -29.9058,-38.997
 L -29.8279,-38.9872 L -29.7498,-38.979 L -29.7345,-38.9754 L -29.7189,-38.9734 L -29.6429,-38.9539 L -29.5665,-38.936
 L -29.5517,-38.9305 L -29.5365,-38.9266 L -29.4635,-38.8977 L -29.3899,-38.8703 L -29.3759,-38.863 L -29.3613,-38.8572
 L -29.2925,-38.8194 L -29.2229,-38.783 L -29.21,-38.7741 L -29.1963,-38.7665 L -29.1328,-38.7204 L -29.0683,-38.6755
 L -29.0566,-38.665 L -29.0439,-38.6558 L -28.9866,-38.602 L -28.9283,-38.5495 L -28.918,-38.5376 L -28.9065,-38.5268
 L -28.8565,-38.4663 L -28.8052,-38.4069 L -28.7965,-38.3938 L -28.7865,-38.3817 L -28.7444,-38.3154 L -28.701,-38.25
 L -28.694,-38.2359 L -28.6855,-38.2226 L -28.6521,-38.1516 L -28.6172,-38.0813 L -28.612,-38.0664 L -28.6053,-38.0522
 L -28.5811,-37.9775 L -28.5553,-37.9034 L -28.552,-37.888 L -28.5471,-37.873 L -28.5324,-37.7959 L -28.5161,-37.7191
 L -28.5148,-37.7034 L -28.5118,-37.688 L -28.5069,-37.6096 L -28.5003,-37.5314 L -28.501,-37.5157 L -28.5,-37.5
 L -28.5049,-37.4217 L -28.5082,-37.3432 L -28.5108,-37.3277 L -28.5118,-37.312 L -28.5265,-37.2349 L -28.5396,-37.1575
 L -28.5442,-37.1424 L -28.5471,-37.127 L -28.5714,-37.0523 L -28.5941,-36.9771 L -28.6005,-36.9628 L -28.6053,-36.9478
 L -28.6387,-36.8768 L -28.6707,-36.8051 L -28.6788,-36.7916 L -28.6855,-36.7774 L -28.7276,-36.7111 L -28.7683,-36.6439
 L -28.778,-36.6316 L -28.7865,-36.6183 L -28.8365,-36.5578 L -28.8853,-36.4963 L -28.8965,-36.4853 L -28.9065,-36.4732
 L -28.9638,-36.4194 L -29.0199,-36.3645 L -29.0324,-36.355 L -29.0439,-36.3442 L -29.1074,-36.2981 L -29.1699,-36.2506
 L -29.1835,-36.2428 L -29.1963,-36.2335 L -29.265,-36.1957 L -29.333,-36.1564 L -29.3475,-36.1503 L -29.3613,-36.1427
 L -29.4343,-36.1139 L -29.5067,-36.0834 L -29.5219,-36.0792 L -29.5365,-36.0734 L -29.6125,-36.0539 L -29.6881,-36.0328
 L -29.7037,-36.0305 L -29.7189,-36.0266 L -29.7968,-36.0167 L -29.8745,-36.0052 L -29.8902,-36.0049 L -29.9058,-36.0029
 L -29.9843,-36.0029 L -30.0628,-36.0013 z
M 59.5,-15.5 L 59.4606,-16.1267 L 59.3429,-16.7434 L 59.1489,-17.3406 L 58.8815,-17.9088 L 58.5451,-18.4389
 L 58.1448,-18.9227 L 57.6871,-19.3526 L 57.1791,-19.7216 L 56.6289,-20.0241 L 56.0451,-20.2553 L 55.4369,-20.4114
 L 54.8139,-20.4901 L -54.8139,-20.4901 L -55.4369,-20.4114 L -56.0451,-20.2553 L -56.6289,-20.0241 L -57.1791,-19.7216
 L -57.6871,-19.3526 L -58.1448,-18.9227 L -58.5451,-18.4389 L -58.8815,-17.9088 L -59.1489,-17.3406 L -59.3429,-16.7434
 L -59.4606,-16.1267 L -59.5,-15.5 L -59.5,-0 L 59.5,-0 z
M 37.3116,-10.5059 L 36.9379,-10.5531 L 36.5729,-10.6468 L 36.2227,-10.7855 L 35.8925,-10.967 L 35.5877,-11.1884
 L 35.3131,-11.4464 L 35.0729,-11.7366 L 34.8711,-12.0547 L 34.7107,-12.3956 L 34.5942,-12.7539 L 34.5237,-13.124
 L 34.5,-13.5 L 34.5237,-13.876 L 34.5942,-14.2461 L 34.7107,-14.6044 L 34.8711,-14.9453 L 35.0729,-15.2634
 L 35.3131,-15.5536 L 35.5877,-15.8115 L 35.8925,-16.033 L 36.2227,-16.2145 L 36.5729,-16.3532 L 36.9379,-16.4469
 L 37.3116,-16.4941 L 37.6884,-16.4941 L 38.0621,-16.4469 L 38.427,-16.3532 L 38.7773,-16.2145 L 39.1075,-16.033
 L 39.4123,-15.8115 L 39.6869,-15.5536 L 39.927,-15.2634 L 40.1289,-14.9453 L 40.2893,-14.6044 L 40.4057,-14.2461
 L 40.4763,-13.876 L 40.5,-13.5 L 40.4763,-13.124 L 40.4057,-12.7539 L 40.2893,-12.3956 L 40.1289,-12.0547
 L 39.927,-11.7366 L 39.6869,-11.4464 L 39.4123,-11.1884 L 39.1075,-10.967 L 38.7773,-10.7855 L 38.427,-10.6468
 L 38.0621,-10.5531 L 37.6884,-10.5059 z
M -7.68837,-10.5059 L -8.06213,-10.5531 L -8.42705,-10.6468 L -8.77733,-10.7855 L -9.10747,-10.967 L -9.41226,-11.1884
 L -9.6869,-11.4464 L -9.92705,-11.7366 L -10.1289,-12.0547 L -10.2893,-12.3956 L -10.4057,-12.7539 L -10.4763,-13.124
 L -10.5,-13.5 L -10.4763,-13.876 L -10.4057,-14.2461 L -10.2893,-14.6044 L -10.1289,-14.9453 L -9.92705,-15.2634
 L -9.6869,-15.5536 L -9.41226,-15.8115 L -9.10747,-16.033 L -8.77733,-16.2145 L -8.42705,-16.3532 L -8.06213,-16.4469
 L -7.68837,-16.4941 L -7.31161,-16.4941 L -6.93785,-16.4469 L -6.57294,-16.3532 L -6.22266,-16.2145 L -5.89252,-16.033
 L -5.58772,-15.8115 L -5.31308,-15.5536 L -5.07294,-15.2634 L -4.87108,-14.9453 L -4.71066,-14.6044 L -4.59424,-14.2461
 L -4.52365,-13.876 L -4.5,-13.5 L -4.52365,-13.124 L -4.59424,-12.7539 L -4.71066,-12.3956 L -4.87108,-12.0547
 L -5.07294,-11.7366 L -5.31308,-11.4464 L -5.58772,-11.1884 L -5.89252,-10.967 L -6.22266,-10.7855 L -6.57294,-10.6468
 L -6.93785,-10.5531 L -7.31161,-10.5059 z
M 22.3116,-10.5059 L 21.9379,-10.5531 L 21.5729,-10.6468 L 21.2227,-10.7855 L 20.8925,-10.967 L 20.5877,-11.1884
 L 20.3131,-11.4464 L 20.0729,-11.7366 L 19.8711,-12.0547 L 19.7107,-12.3956 L 19.5942,-12.7539 L 19.5237,-13.124
 L 19.5,-13.5 L 19.5237,-13.876 L 19.5942,-14.2461 L 19.7107,-14.6044 L 19.8711,-14.9453 L 20.0729,-15.2634
 L 20.3131,-15.5536 L 20.5877,-15.8115 L 20.8925,-16.033 L 21.2227,-16.2145 L 21.5729,-16.3532 L 21.9379,-16.4469
 L 22.3116,-16.4941 L 22.6884,-16.4941 L 23.0621,-16.4469 L 23.427,-16.3532 L 23.7773,-16.2145 L 24.1075,-16.033
 L 24.4123,-15.8115 L 24.6869,-15.5536 L 24.927,-15.2634 L 25.1289,-14.9453 L 25.2893,-14.6044 L 25.4057,-14.2461
 L 25.4763,-13.876 L 25.5,-13.5 L 25.4763,-13.124 L 25.4057,-12.7539 L 25.2893,-12.3956 L 25.1289,-12.0547
 L 24.927,-11.7366 L 24.6869,-11.4464 L 24.4123,-11.1884 L 24.1075,-10.967 L 23.7773,-10.7855 L 23.427,-10.6468
 L 23.0621,-10.5531 L 22.6884,-10.5059 z
M 52.3116,-10.5059 L 51.9379,-10.5531 L 51.5729,-10.6468 L 51.2227,-10.7855 L 50.8925,-10.967 L 50.5877,-11.1884
 L 50.3131,-11.4464 L 50.0729,-11.7366 L 49.8711,-12.0547 L 49.7107,-12.3956 L 49.5942,-12.7539 L 49.5237,-13.124
 L 49.5,-13.5 L 49.5237,-13.876 L 49.5942,-14.2461 L 49.7107,-14.6044 L 49.8711,-14.9453 L 50.0729,-15.2634
 L 50.3131,-15.5536 L 50.5877,-15.8115 L 50.8925,-16.033 L 51.2227,-16.2145 L 51.5729,-16.3532 L 51.9379,-16.4469
 L 52.3116,-16.4941 L 52.6884,-16.4941 L 53.0621,-16.4469 L 53.427,-16.3532 L 53.7773,-16.2145 L 54.1075,-16.033
 L 54.4123,-15.8115 L 54.6869,-15.5536 L 54.927,-15.2634 L 55.1289,-14.9453 L 55.2893,-14.6044 L 55.4057,-14.2461
 L 55.4763,-13.876 L 55.5,-13.5 L 55.4763,-13.124 L 55.4057,-12.7539 L 55.2893,-12.3956 L 55.1289,-12.0547
 L 54.927,-11.7366 L 54.6869,-11.4464 L 54.4123,-11.1884 L 54.1075,-10.967 L 53.7773,-10.7855 L 53.427,-10.6468
 L 53.0621,-10.5531 L 52.6884,-10.5059 z
M -22.6884,-10.5059 L -23.0621,-10.5531 L -23.427,-10.6468 L -23.7773,-10.7855 L -24.1075,-10.967 L -24.4123,-11.1884
 L -24.6869,-11.4464 L -24.927,-11.7366 L -25.1289,-12.0547 L -25.2893,-12.3956 L -25.4057,-12.7539 L -25.4763,-13.124
 L -25.5,-13.5 L -25.4763,-13.876 L -25.4057,-14.2461 L -25.2893,-14.6044 L -25.1289,-14.9453 L -24.927,-15.2634
 L -24.6869,-15.5536 L -24.4123,-15.8115 L -24.1075,-16.033 L -23.7773,-16.2145 L -23.427,-16.3532 L -23.0621,-16.4469
 L -22.6884,-16.4941 L -22.3116,-16.4941 L -21.9379,-16.4469 L -21.5729,-16.3532 L -21.2227,-16.2145 L -20.8925,-16.033
 L -20.5877,-15.8115 L -20.3131,-15.5536 L -20.0729,-15.2634 L -19.8711,-14.9453 L -19.7107,-14.6044 L -19.5942,-14.2461
 L -19.5237,-13.876 L -19.5,-13.5 L -19.5237,-13.124 L -19.5942,-12.7539 L -19.7107,-12.3956 L -19.8711,-12.0547
 L -20.0729,-11.7366 L -20.3131,-11.4464 L -20.5877,-11.1884 L -20.8925,-10.967 L -21.2227,-10.7855 L -21.5729,-10.6468
 L -21.9379,-10.5531 L -22.3116,-10.5059 z
M -37.6884,-10.5059 L -38.0621,-10.5531 L -38.427,-10.6468 L -38.7773,-10.7855 L -39.1075,-10.967 L -39.4123,-11.1884
 L -39.6869,-11.4464 L -39.927,-11.7366 L -40.1289,-12.0547 L -40.2893,-12.3956 L -40.4057,-12.7539 L -40.4763,-13.124
 L -40.5,-13.5 L -40.4763,-13.876 L -40.4057,-14.2461 L -40.2893,-14.6044 L -40.1289,-14.9453 L -39.927,-15.2634
 L -39.6869,-15.5536 L -39.4123,-15.8115 L -39.1075,-16.033 L -38.7773,-16.2145 L -38.427,-16.3532 L -38.0621,-16.4469
 L -37.6884,-16.4941 L -37.3116,-16.4941 L -36.9379,-16.4469 L -36.5729,-16.3532 L -36.2227,-16.2145 L -35.8925,-16.033
 L -35.5877,-15.8115 L -35.3131,-15.5536 L -35.0729,-15.2634 L -34.8711,-14.9453 L -34.7107,-14.6044 L -34.5942,-14.2461
 L -34.5237,-13.876 L -34.5,-13.5 L -34.5237,-13.124 L -34.5942,-12.7539 L -34.7107,-12.3956 L -34.8711,-12.0547
 L -35.0729,-11.7366 L -35.3131,-11.4464 L -35.5877,-11.1884 L -35.8925,-10.967 L -36.2227,-10.7855 L -36.5729,-10.6468
 L -36.9379,-10.5531 L -37.3116,-10.5059 z
M -52.6884,-10.5059 L -53.0621,-10.5531 L -53.427,-10.6468 L -53.7773,-10.7855 L -54.1075,-10.967 L -54.4123,-11.1884
 L -54.6869,-11.4464 L -54.927,-11.7366 L -55.1289,-12.0547 L -55.2893,-12.3956 L -55.4057,-12.7539 L -55.4763,-13.124
 L -55.5,-13.5 L -55.4763,-13.876 L -55.4057,-14.2461 L -55.2893,-14.6044 L -55.1289,-14.9453 L -54.927,-15.2634
 L -54.6869,-15.5536 L -54.4123,-15.8115 L -54.1075,-16.033 L -53.7773,-16.2145 L -53.427,-16.3532 L -53.0621,-16.4469
 L -52.6884,-16.4941 L -52.3116,-16.4941 L -51.9379,-16.4469 L -51.5729,-16.3532 L -51.2227,-16.2145 L -50.8925,-16.033
 L -50.5877,-15.8115 L -50.3131,-15.5536 L -50.0729,-15.2634 L -49.8711,-14.9453 L -49.7107,-14.6044 L -49.5942,-14.2461
 L -49.5237,-13.876 L -49.5,-13.5 L -49.5237,-13.124 L -49.5942,-12.7539 L -49.7107,-12.3956 L -49.8711,-12.0547
 L -50.0729,-11.7366 L -50.3131,-11.4464 L -50.5877,-11.1884 L -50.8925,-10.967 L -51.2227,-10.7855 L -51.5729,-10.6468
 L -51.9379,-10.5531 L -52.3116,-10.5059 z
M 7.31161,-10.5059 L 6.93785,-10.5531 L 6.57294,-10.6468 L 6.22266,-10.7855 L 5.89252,-10.967 L 5.58772,-11.1884
 L 5.31308,-11.4464 L 5.07294,-11.7366 L 4.87108,-12.0547 L 4.71066,-12.3956 L 4.59424,-12.7539 L 4.52365,-13.124
 L 4.5,-13.5 L 4.52365,-13.876 L 4.59424,-14.2461 L 4.71066,-14.6044 L 4.87108,-14.9453 L 5.07294,-15.2634
 L 5.31308,-15.5536 L 5.58772,-15.8115 L 5.89252,-16.033 L 6.22266,-16.2145 L 6.57294,-16.3532 L 6.93785,-16.4469
 L 7.31161,-16.4941 L 7.68837,-16.4941 L 8.06213,-16.4469 L 8.42705,-16.3532 L 8.77733,-16.2145 L 9.10747,-16.033
 L 9.41226,-15.8115 L 9.6869,-15.5536 L 9.92705,-15.2634 L 10.1289,-14.9453 L 10.2893,-14.6044 L 10.4057,-14.2461
 L 10.4763,-13.876 L 10.5,-13.5 L 10.4763,-13.124 L 10.4057,-12.7539 L 10.2893,-12.3956 L 10.1289,-12.0547
 L 9.92705,-11.7366 L 9.6869,-11.4464 L 9.41226,-11.1884 L 9.10747,-10.967 L 8.77733,-10.7855 L 8.42705,-10.6468
 L 8.06213,-10.5531 L 7.68837,-10.5059 z
M -15.4002,-11.1336 L -15.6937,-11.2024 L -15.9762,-11.3075 L -16.2433,-11.4471 L -16.4908,-11.6191 L -16.7147,-11.8208
 L -16.9117,-12.049 L -17.0785,-12.3 L -17.2125,-12.57 L -17.3116,-12.8546 L -17.3743,-13.1494 L -17.3995,-13.4497
 L -17.3868,-13.7509 L -17.3366,-14.048 L -17.2495,-14.3366 L -17.1269,-14.6119 L -16.9707,-14.8697 L -16.7835,-15.1059
 L -16.5682,-15.3168 L -16.3281,-15.499 L -16.0671,-15.6497 L -15.7893,-15.7665 L -15.499,-15.8475 L -15.2008,-15.8916
 L -14.8995,-15.8979 L -14.5997,-15.8664 L -14.3063,-15.7976 L -14.0238,-15.6925 L -13.7567,-15.5529 L -13.5092,-15.3809
 L -13.2853,-15.1792 L -13.0883,-14.951 L -12.9215,-14.7 L -12.7875,-14.43 L -12.6884,-14.1454 L -12.6257,-13.8506
 L -12.6005,-13.5502 L -12.6131,-13.2491 L -12.6634,-12.952 L -12.7505,-12.6634 L -12.8731,-12.3881 L -13.0292,-12.1303
 L -13.2164,-11.8941 L -13.4318,-11.6832 L -13.6719,-11.501 L -13.9329,-11.3503 L -14.2107,-11.2335 L -14.501,-11.1524
 L -14.7992,-11.1084 L -15.1005,-11.1021 z
M -45.4002,-11.1336 L -45.6937,-11.2024 L -45.9762,-11.3075 L -46.2433,-11.4471 L -46.4908,-11.6191 L -46.7147,-11.8208
 L -46.9117,-12.049 L -47.0785,-12.3 L -47.2125,-12.57 L -47.3116,-12.8546 L -47.3743,-13.1494 L -47.3995,-13.4497
 L -47.3868,-13.7509 L -47.3366,-14.048 L -47.2495,-14.3366 L -47.1269,-14.6119 L -46.9707,-14.8697 L -46.7835,-15.1059
 L -46.5682,-15.3168 L -46.3281,-15.499 L -46.0671,-15.6497 L -45.7893,-15.7665 L -45.499,-15.8475 L -45.2008,-15.8916
 L -44.8995,-15.8979 L -44.5997,-15.8664 L -44.3063,-15.7976 L -44.0238,-15.6925 L -43.7567,-15.5529 L -43.5092,-15.3809
 L -43.2853,-15.1792 L -43.0883,-14.951 L -42.9215,-14.7 L -42.7875,-14.43 L -42.6884,-14.1454 L -42.6257,-13.8506
 L -42.6005,-13.5502 L -42.6131,-13.2491 L -42.6634,-12.952 L -42.7505,-12.6634 L -42.8731,-12.3881 L -43.0292,-12.1303
 L -43.2164,-11.8941 L -43.4318,-11.6832 L -43.6719,-11.501 L -43.9329,-11.3503 L -44.2107,-11.2335 L -44.501,-11.1524
 L -44.7992,-11.1084 L -45.1005,-11.1021 z
M -30.4002,-11.1336 L -30.6937,-11.2024 L -30.9762,-11.3075 L -31.2433,-11.4471 L -31.4908,-11.6191 L -31.7147,-11.8208
 L -31.9117,-12.049 L -32.0785,-12.3 L -32.2125,-12.57 L -32.3116,-12.8546 L -32.3743,-13.1494 L -32.3995,-13.4497
 L -32.3868,-13.7509 L -32.3366,-14.048 L -32.2495,-14.3366 L -32.1269,-14.6119 L -31.9707,-14.8697 L -31.7835,-15.1059
 L -31.5682,-15.3168 L -31.3281,-15.499 L -31.0671,-15.6497 L -30.7893,-15.7665 L -30.499,-15.8475 L -30.2008,-15.8916
 L -29.8995,-15.8979 L -29.5997,-15.8664 L -29.3063,-15.7976 L -29.0238,-15.6925 L -28.7567,-15.5529 L -28.5092,-15.3809
 L -28.2853,-15.1792 L -28.0883,-14.951 L -27.9215,-14.7 L -27.7875,-14.43 L -27.6884,-14.1454 L -27.6257,-13.8506
 L -27.6005,-13.5502 L -27.6131,-13.2491 L -27.6634,-12.952 L -27.7505,-12.6634 L -27.8731,-12.3881 L -28.0292,-12.1303
 L -28.2164,-11.8941 L -28.4318,-11.6832 L -28.6719,-11.501 L -28.9329,-11.3503 L -29.2107,-11.2335 L -29.501,-11.1524
 L -29.7992,-11.1084 L -30.1005,-11.1021 z
M 14.5997,-11.1336 L 14.3063,-11.2024 L 14.0238,-11.3075 L 13.7567,-11.4471 L 13.5092,-11.6191 L 13.2853,-11.8208
 L 13.0883,-12.049 L 12.9215,-12.3 L 12.7875,-12.57 L 12.6884,-12.8546 L 12.6257,-13.1494 L 12.6005,-13.4497
 L 12.6131,-13.7509 L 12.6634,-14.048 L 12.7505,-14.3366 L 12.8731,-14.6119 L 13.0292,-14.8697 L 13.2164,-15.1059
 L 13.4318,-15.3168 L 13.6719,-15.499 L 13.9329,-15.6497 L 14.2107,-15.7665 L 14.501,-15.8475 L 14.7992,-15.8916
 L 15.1005,-15.8979 L 15.4002,-15.8664 L 15.6937,-15.7976 L 15.9762,-15.6925 L 16.2433,-15.5529 L 16.4908,-15.3809
 L 16.7147,-15.1792 L 16.9117,-14.951 L 17.0785,-14.7 L 17.2125,-14.43 L 17.3116,-14.1454 L 17.3743,-13.8506
 L 17.3995,-13.5502 L 17.3868,-13.2491 L 17.3366,-12.952 L 17.2495,-12.6634 L 17.1269,-12.3881 L 16.9707,-12.1303
 L 16.7835,-11.8941 L 16.5682,-11.6832 L 16.3281,-11.501 L 16.0671,-11.3503 L 15.7893,-11.2335 L 15.499,-11.1524
 L 15.2008,-11.1084 L 14.8995,-11.1021 z
M 44.5997,-11.1336 L 44.3063,-11.2024 L 44.0238,-11.3075 L 43.7567,-11.4471 L 43.5092,-11.6191 L 43.2853,-11.8208
 L 43.0883,-12.049 L 42.9215,-12.3 L 42.7875,-12.57 L 42.6884,-12.8546 L 42.6257,-13.1494 L 42.6005,-13.4497
 L 42.6131,-13.7509 L 42.6634,-14.048 L 42.7505,-14.3366 L 42.8731,-14.6119 L 43.0292,-14.8697 L 43.2164,-15.1059
 L 43.4318,-15.3168 L 43.6719,-15.499 L 43.9329,-15.6497 L 44.2107,-15.7665 L 44.501,-15.8475 L 44.7992,-15.8916
 L 45.1005,-15.8979 L 45.4002,-15.8664 L 45.6937,-15.7976 L 45.9762,-15.6925 L 46.2433,-15.5529 L 46.4908,-15.3809
 L 46.7147,-15.1792 L 46.9117,-14.951 L 47.0785,-14.7 L 47.2125,-14.43 L 47.3116,-14.1454 L 47.3743,-13.8506
 L 47.3995,-13.5502 L 47.3868,-13.2491 L 47.3366,-12.952 L 47.2495,-12.6634 L 47.1269,-12.3881 L 46.9707,-12.1303
 L 46.7835,-11.8941 L 46.5682,-11.6832 L 46.3281,-11.501 L 46.0671,-11.3503 L 45.7893,-11.2335 L 45.499,-11.1524
 L 45.2008,-11.1084 L 44.8995,-11.1021 z
M 29.9215,-12.0029 L 29.9058,-12.0029 L 29.8279,-12.0128 L 29.7498,-12.021 L 29.7345,-12.0246 L 29.7189,-12.0266
 L 29.6429,-12.0461 L 29.5665,-12.064 L 29.5517,-12.0695 L 29.5365,-12.0734 L 29.4635,-12.1023 L 29.3899,-12.1297
 L 29.3759,-12.137 L 29.3613,-12.1427 L 29.2925,-12.1806 L 29.2229,-12.2169 L 29.21,-12.2259 L 29.1963,-12.2335
 L 29.1328,-12.2796 L 29.0683,-12.3244 L 29.0566,-12.335 L 29.0439,-12.3442 L 28.9866,-12.398 L 28.9283,-12.4505
 L 28.918,-12.4624 L 28.9065,-12.4732 L 28.8565,-12.5336 L 28.8052,-12.5931 L 28.7965,-12.6062 L 28.7865,-12.6183
 L 28.7444,-12.6846 L 28.701,-12.75 L 28.694,-12.7641 L 28.6855,-12.7774 L 28.6521,-12.8484 L 28.6172,-12.9187
 L 28.612,-12.9336 L 28.6053,-12.9478 L 28.5811,-13.0225 L 28.5553,-13.0966 L 28.552,-13.112 L 28.5471,-13.127
 L 28.5324,-13.2041 L 28.5161,-13.2809 L 28.5148,-13.2965 L 28.5118,-13.312 L 28.5069,-13.3903 L 28.5003,-13.4686
 L 28.501,-13.4843 L 28.5,-13.5 L 28.5049,-13.5783 L 28.5082,-13.6568 L 28.5108,-13.6723 L 28.5118,-13.688
 L 28.5265,-13.7651 L 28.5396,-13.8425 L 28.5442,-13.8576 L 28.5471,-13.873 L 28.5714,-13.9477 L 28.5941,-14.0229
 L 28.6005,-14.0372 L 28.6053,-14.0522 L 28.6387,-14.1232 L 28.6707,-14.1949 L 28.6788,-14.2084 L 28.6855,-14.2226
 L 28.7276,-14.2889 L 28.7683,-14.3561 L 28.778,-14.3684 L 28.7865,-14.3817 L 28.8365,-14.4422 L 28.8853,-14.5037
 L 28.8965,-14.5147 L 28.9065,-14.5268 L 28.9638,-14.5806 L 29.0199,-14.6355 L 29.0324,-14.645 L 29.0439,-14.6558
 L 29.1074,-14.7019 L 29.1699,-14.7494 L 29.1835,-14.7572 L 29.1963,-14.7665 L 29.265,-14.8043 L 29.333,-14.8436
 L 29.3475,-14.8497 L 29.3613,-14.8572 L 29.4343,-14.8861 L 29.5067,-14.9165 L 29.5219,-14.9208 L 29.5365,-14.9266
 L 29.6125,-14.9461 L 29.6881,-14.9672 L 29.7037,-14.9695 L 29.7189,-14.9734 L 29.7968,-14.9833 L 29.8745,-14.9947
 L 29.8902,-14.9951 L 29.9058,-14.997 L 29.9843,-14.997 L 30.0628,-14.9987 L 30.0784,-14.997 L 30.0942,-14.997
 L 30.1721,-14.9872 L 30.2502,-14.979 L 30.2655,-14.9754 L 30.2811,-14.9734 L 30.3571,-14.9539 L 30.4335,-14.936
 L 30.4483,-14.9305 L 30.4635,-14.9266 L 30.5365,-14.8977 L 30.6101,-14.8703 L 30.624,-14.863 L 30.6387,-14.8572
 L 30.7074,-14.8194 L 30.777,-14.783 L 30.7899,-14.7741 L 30.8037,-14.7665 L 30.8672,-14.7204 L 30.9317,-14.6755
 L 30.9434,-14.665 L 30.9561,-14.6558 L 31.0134,-14.602 L 31.0717,-14.5495 L 31.082,-14.5376 L 31.0934,-14.5268
 L 31.1435,-14.4663 L 31.1948,-14.4069 L 31.2035,-14.3938 L 31.2135,-14.3817 L 31.2556,-14.3154 L 31.299,-14.25
 L 31.306,-14.2359 L 31.3145,-14.2226 L 31.3479,-14.1516 L 31.3828,-14.0813 L 31.388,-14.0664 L 31.3947,-14.0522
 L 31.4189,-13.9775 L 31.4447,-13.9034 L 31.448,-13.888 L 31.4529,-13.873 L 31.4676,-13.7959 L 31.4839,-13.7191
 L 31.4852,-13.7034 L 31.4882,-13.688 L 31.4931,-13.6096 L 31.4997,-13.5314 L 31.499,-13.5157 L 31.5,-13.5
 L 31.4951,-13.4216 L 31.4918,-13.3432 L 31.4892,-13.3277 L 31.4882,-13.312 L 31.4734,-13.2349 L 31.4604,-13.1575
 L 31.4558,-13.1424 L 31.4529,-13.127 L 31.4286,-13.0523 L 31.4059,-12.9771 L 31.3995,-12.9628 L 31.3947,-12.9478
 L 31.3612,-12.8768 L 31.3293,-12.8051 L 31.3212,-12.7916 L 31.3145,-12.7774 L 31.2724,-12.7111 L 31.2317,-12.6439
 L 31.2219,-12.6316 L 31.2135,-12.6183 L 31.1635,-12.5578 L 31.1147,-12.4963 L 31.1035,-12.4853 L 31.0934,-12.4732
 L 31.0362,-12.4194 L 30.9801,-12.3645 L 30.9676,-12.355 L 30.9561,-12.3442 L 30.8926,-12.2981 L 30.8301,-12.2506
 L 30.8165,-12.2428 L 30.8037,-12.2335 L 30.7349,-12.1957 L 30.6669,-12.1564 L 30.6525,-12.1503 L 30.6387,-12.1427
 L 30.5657,-12.1139 L 30.4933,-12.0834 L 30.4781,-12.0792 L 30.4635,-12.0734 L 30.3875,-12.0539 L 30.3119,-12.0328
 L 30.2963,-12.0305 L 30.2811,-12.0266 L 30.2032,-12.0167 L 30.1255,-12.0052 L 30.1098,-12.0049 L 30.0942,-12.0029
 L 30.0157,-12.0029 L 29.9372,-12.0013 z
M -0.0784454,-12.0029 L -0.0941772,-12.0029 L -0.172073,-12.0128 L -0.250153,-12.021 L -0.265457,-12.0246 L -0.281067,-12.0266
 L -0.357117,-12.0461 L -0.433533,-12.064 L -0.448288,-12.0695 L -0.463516,-12.0734 L -0.536499,-12.1023 L -0.610092,-12.1297
 L -0.624039,-12.137 L -0.638657,-12.1427 L -0.707443,-12.1806 L -0.777039,-12.2169 L -0.789948,-12.2259 L -0.803726,-12.2335
 L -0.867233,-12.2796 L -0.931717,-12.3244 L -0.943405,-12.335 L -0.956131,-12.3442 L -1.01335,-12.398 L -1.0717,-12.4505
 L -1.08199,-12.4624 L -1.09344,-12.4732 L -1.14348,-12.5336 L -1.19479,-12.5931 L -1.20349,-12.6062 L -1.21352,-12.6183
 L -1.25558,-12.6846 L -1.29903,-12.75 L -1.30602,-12.7641 L -1.31445,-12.7774 L -1.34787,-12.8484 L -1.38278,-12.9187
 L -1.38795,-12.9336 L -1.39465,-12.9478 L -1.41891,-13.0225 L -1.44473,-13.0966 L -1.44801,-13.112 L -1.45287,-13.127
 L -1.46758,-13.2041 L -1.4839,-13.2809 L -1.48521,-13.2965 L -1.48816,-13.312 L -1.49309,-13.3904 L -1.49966,-13.4686
 L -1.49901,-13.4843 L -1.5,-13.5 L -1.49506,-13.5784 L -1.49178,-13.6568 L -1.48915,-13.6723 L -1.48816,-13.688
 L -1.47345,-13.7651 L -1.46036,-13.8425 L -1.45581,-13.8576 L -1.45287,-13.873 L -1.42862,-13.9477 L -1.40591,-14.0229
 L -1.39952,-14.0372 L -1.39465,-14.0522 L -1.36124,-14.1232 L -1.3293,-14.1949 L -1.32115,-14.2084 L -1.31445,-14.2226
 L -1.27238,-14.2889 L -1.23172,-14.3561 L -1.22194,-14.3684 L -1.21352,-14.3817 L -1.16347,-14.4422 L -1.11472,-14.5037
 L -1.10347,-14.5147 L -1.09344,-14.5268 L -1.03621,-14.5806 L -0.980118,-14.6355 L -0.96759,-14.645 L -0.956131,-14.6558
 L -0.892609,-14.7019 L -0.830078,-14.7494 L -0.816452,-14.7572 L -0.803726,-14.7665 L -0.73494,-14.8043 L -0.666946,-14.8436
 L -0.652435,-14.8497 L -0.638657,-14.8572 L -0.565674,-14.8861 L -0.493286,-14.9165 L -0.478134,-14.9208 L -0.463516,-14.9266
 L -0.387482,-14.9461 L -0.311859,-14.9672 L -0.296295,-14.9695 L -0.281067,-14.9734 L -0.203171,-14.9833 L -0.125504,-14.9947
 L -0.109787,-14.9951 L -0.0941772,-14.997 L -0.0156555,-14.997 L 0.0628052,-14.9987 L 0.0784454,-14.997 L 0.0941772,-14.997
 L 0.172073,-14.9872 L 0.250153,-14.979 L 0.265457,-14.9754 L 0.281067,-14.9734 L 0.357117,-14.9539 L 0.433533,-14.936
 L 0.448288,-14.9305 L 0.463516,-14.9266 L 0.536499,-14.8977 L 0.610092,-14.8703 L 0.624039,-14.863 L 0.638657,-14.8572
 L 0.707443,-14.8194 L 0.777039,-14.783 L 0.789948,-14.7741 L 0.803726,-14.7665 L 0.867233,-14.7204 L 0.931717,-14.6755
 L 0.943405,-14.665 L 0.956131,-14.6558 L 1.01335,-14.602 L 1.0717,-14.5495 L 1.08199,-14.5376 L 1.09344,-14.5268
 L 1.14348,-14.4663 L 1.19479,-14.4069 L 1.20349,-14.3938 L 1.21352,-14.3817 L 1.25557,-14.3154 L 1.29903,-14.25
 L 1.30603,-14.2359 L 1.31445,-14.2226 L 1.34787,-14.1516 L 1.38278,-14.0813 L 1.38795,-14.0664 L 1.39465,-14.0522
 L 1.41891,-13.9775 L 1.44473,-13.9034 L 1.44801,-13.888 L 1.45287,-13.873 L 1.46758,-13.7959 L 1.4839,-13.7191
 L 1.48521,-13.7034 L 1.48816,-13.688 L 1.49309,-13.6096 L 1.49966,-13.5314 L 1.49901,-13.5157 L 1.5,-13.5
 L 1.49506,-13.4216 L 1.49178,-13.3432 L 1.48915,-13.3277 L 1.48816,-13.312 L 1.47345,-13.2349 L 1.46036,-13.1575
 L 1.45581,-13.1424 L 1.45287,-13.127 L 1.42862,-13.0523 L 1.40591,-12.9771 L 1.39952,-12.9628 L 1.39465,-12.9478
 L 1.36124,-12.8768 L 1.3293,-12.8051 L 1.32115,-12.7916 L 1.31445,-12.7774 L 1.27238,-12.7111 L 1.23172,-12.6439
 L 1.22194,-12.6316 L 1.21352,-12.6183 L 1.16347,-12.5578 L 1.11472,-12.4963 L 1.10347,-12.4853 L 1.09344,-12.4732
 L 1.03621,-12.4194 L 0.980118,-12.3645 L 0.96759,-12.355 L 0.956131,-12.3442 L 0.892609,-12.2981 L 0.830078,-12.2506
 L 0.816452,-12.2428 L 0.803726,-12.2335 L 0.73494,-12.1957 L 0.666946,-12.1564 L 0.652435,-12.1503 L 0.638657,-12.1427
 L 0.565674,-12.1139 L 0.493286,-12.0834 L 0.478134,-12.0792 L 0.463516,-12.0734 L 0.387482,-12.0539 L 0.311859,-12.0328
 L 0.296295,-12.0305 L 0.281067,-12.0266 L 0.203171,-12.0167 L 0.125504,-12.0052 L 0.109787,-12.0049 L 0.0941772,-12.0029
 L 0.0156555,-12.0029 L -0.0628052,-12.0013 z
M 47.1534,-3.59999 L 47.1534,-9 L 57.8466,-9 L 57.8466,-3.59999 z
M 32.1534,-3.59999 L 32.1534,-9 L 42.8466,-9 L 42.8466,-3.59999 z
M -57.8466,-3.59999 L -57.8466,-9 L -47.1534,-9 L -47.1534,-3.59999 z
M 17.1534,-3.59999 L 17.1534,-9 L 27.8466,-9 L 27.8466,-3.59999 z
M -12.8466,-3.59999 L -12.8466,-9 L -2.15337,-9 L -2.15337,-3.59999 z
M 2.15337,-3.59999 L 2.15337,-9 L 12.8466,-9 L 12.8466,-3.59999 z
M -42.8466,-3.59999 L -42.8466,-9 L -32.1534,-9 L -32.1534,-3.59999 z
M -27.8466,-3.59999 L -27.8466,-9 L -17.1534,-9 L -17.1534,-3.59999 z
" stroke="black" fill="lightgray" stroke-width="0.5"/>
</svg>
