<?xml version="1.0" standalone="no"?>
<!DOCTYPE svg PUBLIC "-//W3C//DTD SVG 1.1//EN" "http://www.w3.org/Graphics/SVG/1.1/DTD/svg11.dtd">
<svg width="76mm" height="244mm" viewBox="-38 -458 76 244" xmlns="http://www.w3.org/2000/svg" version="1.1">
<title>OpenSCAD Model</title>
<path d="
M 33.4369,-382.589 L 34.0451,-382.745 L 34.6289,-382.976 L 35.1791,-383.278 L 35.6871,-383.647 L 36.1448,-384.077
 L 36.5451,-384.561 L 36.8815,-385.091 L 37.1489,-385.659 L 37.3429,-386.257 L 37.4606,-386.873 L 37.5,-387.5
 L 37.5,-452.5 L 37.4606,-453.127 L 37.3429,-453.743 L 37.1489,-454.341 L 36.8815,-454.909 L 36.5451,-455.439
 L 36.1448,-455.923 L 35.6871,-456.353 L 35.1791,-456.722 L 34.6289,-457.024 L 34.0451,-457.255 L 33.4369,-457.411
 L 32.8139,-457.49 L -32.8139,-457.49 L -33.4369,-457.411 L -34.0451,-457.255 L -34.6289,-457.024 L -35.1791,-456.722
 L -35.6871,-456.353 L -36.1448,-455.923 L -36.5451,-455.439 L -36.8815,-454.909 L -37.1489,-454.341 L -37.3429,-453.743
 L -37.4606,-453.127 L -37.5,-452.5 L -37.5,-387.5 L -37.4606,-386.873 L -37.3429,-386.257 L -37.1489,-385.659
 L -36.8815,-385.091 L -36.5451,-384.561 L -36.1448,-384.077 L -35.6871,-383.647 L -35.1791,-383.278 L -34.6289,-382.976
 L -34.0451,-382.745 L -33.4369,-382.589 L -32.8139,-382.51 L 32.8139,-382.51 z
M -27.311,-383.009 L -26.8209,-383.278 L -26.3129,-383.647 L -25.8551,-384.077 L -25.4549,-384.561 L -25.1185,-385.091
 L -24.8511,-385.659 L -24.6571,-386.257 L -24.5394,-386.873 L -24.5,-387.5 L -24.5,-390.5 L -24.5394,-391.127
 L -24.6571,-391.743 L -24.8511,-392.341 L -25.1185,-392.909 L -25.4549,-393.439 L -25.8551,-393.923 L -26.3129,-394.353
 L -26.8209,-394.722 L -27.3711,-395.024 L -27.9549,-395.255 L -28.5631,-395.411 L -29.186,-395.49 L -32.8139,-395.49
 L -33.4369,-395.411 L -34.0451,-395.255 L -34.6289,-395.024 L -35.1791,-394.722 L -35.6871,-394.353 L -36.1448,-393.923
 L -36.5451,-393.439 L -36.8815,-392.909 L -37,-392.657 L -37,-452.5 L -36.9645,-453.064 L -36.8586,-453.619
 L -36.684,-454.157 L -36.4434,-454.668 L -36.1406,-455.145 L -35.7803,-455.58 L -35.3684,-455.967 L -34.9112,-456.299
 L -34.416,-456.572 L -33.8906,-456.78 L -33.3432,-456.92 L -32.7825,-456.991 L 32.7825,-456.991 L 33.3432,-456.92
 L 33.8906,-456.78 L 34.416,-456.572 L 34.9112,-456.299 L 35.3684,-455.967 L 35.7803,-455.58 L 36.1406,-455.145
 L 36.4434,-454.668 L 36.684,-454.157 L 36.8586,-453.619 L 36.9645,-453.064 L 37,-452.5 L 37,-387.5
 L 36.9645,-386.936 L 36.8586,-386.381 L 36.684,-385.843 L 36.4434,-385.332 L 36.1406,-384.855 L 35.7803,-384.42
 L 35.3684,-384.033 L 34.9112,-383.701 L 34.416,-383.428 L 33.8906,-383.22 L 33.3432,-383.08 L 32.7825,-383.009
 z
M 30.4684,-447.544 L 30.7725,-447.622 L 31.0644,-447.738 L 31.3396,-447.889 L 31.5936,-448.074 L 31.8224,-448.289
 L 32.0225,-448.531 L 32.1908,-448.796 L 32.3244,-449.08 L 32.4214,-449.378 L 32.4803,-449.687 L 32.5,-450
 L 32.4803,-450.313 L 32.4214,-450.622 L 32.3244,-450.92 L 32.1908,-451.204 L 32.0225,-451.469 L 31.8224,-451.711
 L 31.5936,-451.926 L 31.3396,-452.111 L 31.0644,-452.262 L 30.7725,-452.378 L 30.4684,-452.456 L 30.157,-452.495
 L 29.843,-452.495 L 29.5315,-452.456 L 29.2274,-452.378 L 28.9355,-452.262 L 28.6604,-452.111 L 28.4064,-451.926
 L 28.1776,-451.711 L 27.9774,-451.469 L 27.8092,-451.204 L 27.6756,-450.92 L 27.5785,-450.622 L 27.5197,-450.313
 L 27.5,-450 L 27.5197,-449.687 L 27.5785,-449.378 L 27.6756,-449.08 L 27.8092,-448.796 L 27.9774,-448.531
 L 28.1776,-448.289 L 28.4064,-448.074 L 28.6604,-447.889 L 28.9355,-447.738 L 29.2274,-447.622 L 29.5315,-447.544
 L 29.843,-447.505 L 30.157,-447.505 z
M 29.9058,-448.503 L 29.7189,-448.527 L 29.5365,-448.573 L 29.3613,-448.643 L 29.1963,-448.734 L 29.0439,-448.844
 L 28.9065,-448.973 L 28.7865,-449.118 L 28.6855,-449.277 L 28.6053,-449.448 L 28.5471,-449.627 L 28.5118,-449.812
 L 28.5,-450 L 28.5118,-450.188 L 28.5471,-450.373 L 28.6053,-450.552 L 28.6855,-450.723 L 28.7865,-450.882
 L 28.9065,-451.027 L 29.0439,-451.156 L 29.1963,-451.266 L 29.3613,-451.357 L 29.5365,-451.427 L 29.7189,-451.473
 L 29.9058,-451.497 L 30.0942,-451.497 L 30.2811,-451.473 L 30.4635,-451.427 L 30.6387,-451.357 L 30.8037,-451.266
 L 30.9561,-451.156 L 31.0934,-451.027 L 31.2135,-450.882 L 31.3145,-450.723 L 31.3947,-450.552 L 31.4529,-450.373
 L 31.4882,-450.188 L 31.5,-450 L 31.4882,-449.812 L 31.4529,-449.627 L 31.3947,-449.448 L 31.3145,-449.277
 L 31.2135,-449.118 L 31.0934,-448.973 L 30.9561,-448.844 L 30.8037,-448.734 L 30.6387,-448.643 L 30.4635,-448.573
 L 30.2811,-448.527 L 30.0942,-448.503 z
M -30.0942,-388.503 L -30.2811,-388.527 L -30.4635,-388.573 L -30.6387,-388.643 L -30.8037,-388.734 L -30.9561,-388.844
 L -31.0934,-388.973 L -31.2135,-389.118 L -31.3145,-389.277 L -31.3947,-389.448 L -31.4529,-389.627 L -31.4882,-389.812
 L -31.5,-390 L -31.4882,-390.188 L -31.4529,-390.373 L -31.3947,-390.552 L -31.3145,-390.723 L -31.2135,-390.882
 L -31.0934,-391.027 L -30.9561,-391.156 L -30.8037,-391.266 L -30.6387,-391.357 L -30.4635,-391.427 L -30.2811,-391.473
 L -30.0942,-391.497 L -29.9058,-391.497 L -29.7189,-391.473 L -29.5365,-391.427 L -29.3613,-391.357 L -29.1963,-391.266
 L -29.0439,-391.156 L -28.9065,-391.027 L -28.7865,-390.882 L -28.6855,-390.723 L -28.6053,-390.552 L -28.5471,-390.373
 L -28.5118,-390.188 L -28.5,-390 L -28.5118,-389.812 L -28.5471,-389.627 L -28.6053,-389.448 L -28.6855,-389.277
 L -28.7865,-389.118 L -28.9065,-388.973 L -29.0439,-388.844 L -29.1963,-388.734 L -29.3613,-388.643 L -29.5365,-388.573
 L -29.7189,-388.527 L -29.9058,-388.503 z
M 33.4369,-298.589 L 34.0451,-298.745 L 34.6289,-298.976 L 35.1791,-299.278 L 35.6871,-299.647 L 36.1448,-300.077
 L 36.5451,-300.561 L 36.8815,-301.091 L 37.1489,-301.659 L 37.3429,-302.257 L 37.4606,-302.873 L 37.5,-303.5
 L 37.5,-368.5 L 37.4606,-369.127 L 37.3429,-369.743 L 37.1489,-370.341 L 36.8815,-370.909 L 36.5451,-371.439
 L 36.1448,-371.923 L 35.6871,-372.353 L 35.1791,-372.722 L 34.6289,-373.024 L 34.0451,-373.255 L 33.4369,-373.411
 L 32.8139,-373.49 L -32.8139,-373.49 L -33.4369,-373.411 L -34.0451,-373.255 L -34.6289,-373.024 L -35.1791,-372.722
 L -35.6871,-372.353 L -36.1448,-371.923 L -36.5451,-371.439 L -36.8815,-370.909 L -37.1489,-370.341 L -37.3429,-369.743
 L -37.4606,-369.127 L -37.5,-368.5 L -37.5,-303.5 L -37.4606,-302.873 L -37.3429,-302.257 L -37.1489,-301.659
 L -36.8815,-301.091 L -36.5451,-300.561 L -36.1448,-300.077 L -35.6871,-299.647 L -35.1791,-299.278 L -34.6289,-298.976
 L -34.0451,-298.745 L -33.4369,-298.589 L -32.8139,-298.51 L 32.8139,-298.51 z
M -27.2539,-299.04 L -26.8209,-299.278 L -26.3129,-299.647 L -25.8551,-300.077 L -25.4549,-300.561 L -25.1185,-301.091
 L -24.8511,-301.659 L -24.6571,-302.257 L -24.5394,-302.873 L -24.5,-303.5 L -24.5,-306.5 L -24.5394,-307.127
 L -24.6571,-307.743 L -24.8511,-308.341 L -25.1185,-308.909 L -25.4549,-309.439 L -25.8551,-309.923 L -26.3129,-310.353
 L -26.8209,-310.722 L -27.3711,-311.024 L -27.9549,-311.255 L -28.5631,-311.411 L -29.186,-311.49 L -32.8139,-311.49
 L -33.4369,-311.411 L -34.0451,-311.255 L -34.6289,-311.024 L -35.1791,-310.722 L -35.6871,-310.353 L -36.1448,-309.923
 L -36.5451,-309.439 L -36.8815,-308.909 L -36.9685,-308.724 L -36.9685,-368.5 L -36.9333,-369.06 L -36.8282,-369.611
 L -36.6547,-370.145 L -36.4158,-370.653 L -36.1151,-371.127 L -35.7574,-371.559 L -35.3483,-371.943 L -34.8944,-372.273
 L -34.4026,-372.543 L -33.8808,-372.75 L -33.3373,-372.889 L -32.7806,-372.96 L 32.7806,-372.96 L 33.3373,-372.889
 L 33.8808,-372.75 L 34.4026,-372.543 L 34.8944,-372.273 L 35.3483,-371.943 L 35.7574,-371.559 L 36.1151,-371.127
 L 36.4158,-370.653 L 36.6547,-370.145 L 36.8282,-369.611 L 36.9333,-369.06 L 36.9685,-368.5 L 36.9685,-303.5
 L 36.9333,-302.94 L 36.8282,-302.389 L 36.6547,-301.855 L 36.4158,-301.347 L 36.1151,-300.873 L 35.7574,-300.441
 L 35.3483,-300.057 L 34.8944,-299.727 L 34.4026,-299.457 L 33.8808,-299.25 L 33.3373,-299.111 L 32.7806,-299.04
 z
M 30.4684,-363.544 L 30.7725,-363.622 L 31.0644,-363.738 L 31.3396,-363.889 L 31.5936,-364.074 L 31.8224,-364.289
 L 32.0225,-364.531 L 32.1908,-364.796 L 32.3244,-365.08 L 32.4214,-365.378 L 32.4803,-365.687 L 32.5,-366
 L 32.4803,-366.313 L 32.4214,-366.622 L 32.3244,-366.92 L 32.1908,-367.204 L 32.0225,-367.469 L 31.8224,-367.711
 L 31.5936,-367.926 L 31.3396,-368.111 L 31.0644,-368.262 L 30.7725,-368.378 L 30.4684,-368.456 L 30.157,-368.495
 L 29.843,-368.495 L 29.5315,-368.456 L 29.2274,-368.378 L 28.9355,-368.262 L 28.6604,-368.111 L 28.4064,-367.926
 L 28.1776,-367.711 L 27.9774,-367.469 L 27.8092,-367.204 L 27.6756,-366.92 L 27.5785,-366.622 L 27.5197,-366.313
 L 27.5,-366 L 27.5197,-365.687 L 27.5785,-365.378 L 27.6756,-365.08 L 27.8092,-364.796 L 27.9774,-364.531
 L 28.1776,-364.289 L 28.4064,-364.074 L 28.6604,-363.889 L 28.9355,-363.738 L 29.2274,-363.622 L 29.5315,-363.544
 L 29.843,-363.505 L 30.157,-363.505 z
M 29.9058,-364.503 L 29.7189,-364.527 L 29.5365,-364.573 L 29.3613,-364.643 L 29.1963,-364.734 L 29.0439,-364.844
 L 28.9065,-364.973 L 28.7865,-365.118 L 28.6855,-365.277 L 28.6053,-365.448 L 28.5471,-365.627 L 28.5118,-365.812
 L 28.5,-366 L 28.5118,-366.188 L 28.5471,-366.373 L 28.6053,-366.552 L 28.6855,-366.723 L 28.7865,-366.882
 L 28.9065,-367.027 L 29.0439,-367.156 L 29.1963,-367.266 L 29.3613,-367.357 L 29.5365,-367.427 L 29.7189,-367.473
 L 29.9058,-367.497 L 30.0942,-367.497 L 30.2811,-367.473 L 30.4635,-367.427 L 30.6387,-367.357 L 30.8037,-367.266
 L 30.9561,-367.156 L 31.0934,-367.027 L 31.2135,-366.882 L 31.3145,-366.723 L 31.3947,-366.552 L 31.4529,-366.373
 L 31.4882,-366.188 L 31.5,-366 L 31.4882,-365.812 L 31.4529,-365.627 L 31.3947,-365.448 L 31.3145,-365.277
 L 31.2135,-365.118 L 31.0934,-364.973 L 30.9561,-364.844 L 30.8037,-364.734 L 30.6387,-364.643 L 30.4635,-364.573
 L 30.2811,-364.527 L 30.0942,-364.503 z
M -30.0942,-304.503 L -30.2811,-304.527 L -30.4635,-304.573 L -30.6387,-304.643 L -30.8037,-304.734 L -30.9561,-304.844
 L -31.0934,-304.973 L -31.2135,-305.118 L -31.3145,-305.277 L -31.3947,-305.448 L -31.4529,-305.627 L -31.4882,-305.812
 L -31.5,-306 L -31.4882,-306.188 L -31.4529,-306.373 L -31.3947,-306.552 L -31.3145,-306.723 L -31.2135,-306.882
 L -31.0934,-307.027 L -30.9561,-307.156 L -30.8037,-307.266 L -30.6387,-307.357 L -30.4635,-307.427 L -30.2811,-307.473
 L -30.0942,-307.497 L -29.9058,-307.497 L -29.7189,-307.473 L -29.5365,-307.427 L -29.3613,-307.357 L -29.1963,-307.266
 L -29.0439,-307.156 L -28.9065,-307.027 L -28.7865,-306.882 L -28.6855,-306.723 L -28.6053,-306.552 L -28.5471,-306.373
 L -28.5118,-306.188 L -28.5,-306 L -28.5118,-305.812 L -28.5471,-305.627 L -28.6053,-305.448 L -28.6855,-305.277
 L -28.7865,-305.118 L -28.9065,-304.973 L -29.0439,-304.844 L -29.1963,-304.734 L -29.3613,-304.643 L -29.5365,-304.573
 L -29.7189,-304.527 L -29.9058,-304.503 z
M 33.4369,-214.589 L 34.0451,-214.745 L 34.6289,-214.976 L 35.1791,-215.278 L 35.6871,-215.647 L 36.1448,-216.077
 L 36.5451,-216.561 L 36.8815,-217.091 L 37.1489,-217.659 L 37.3429,-218.257 L 37.4606,-218.873 L 37.5,-219.5
 L 37.5,-284.5 L 37.4606,-285.127 L 37.3429,-285.743 L 37.1489,-286.341 L 36.8815,-286.909 L 36.5451,-287.439
 L 36.1448,-287.923 L 35.6871,-288.353 L 35.1791,-288.722 L 34.6289,-289.024 L 34.0451,-289.255 L 33.4369,-289.411
 L 32.8139,-289.49 L -32.8139,-289.49 L -33.4369,-289.411 L -34.0451,-289.255 L -34.6289,-289.024 L -35.1791,-288.722
 L -35.6871,-288.353 L -36.1448,-287.923 L -36.5451,-287.439 L -36.8815,-286.909 L -37.1489,-286.341 L -37.3429,-285.743
 L -37.4606,-285.127 L -37.5,-284.5 L -37.5,-219.5 L -37.4606,-218.873 L -37.3429,-218.257 L -37.1489,-217.659
 L -36.8815,-217.091 L -36.5451,-216.561 L -36.1448,-216.077 L -35.6871,-215.647 L -35.1791,-215.278 L -34.6289,-214.976
 L -34.0451,-214.745 L -33.4369,-214.589 L -32.8139,-214.51 L 32.8139,-214.51 z
M -25.3781,-216.682 L -25.1185,-217.091 L -24.8511,-217.659 L -24.6571,-218.257 L -24.5394,-218.873 L -24.5,-219.5
 L -24.5,-222.5 L -24.5394,-223.127 L -24.6571,-223.743 L -24.8511,-224.341 L -25.1185,-224.909 L -25.4549,-225.439
 L -25.8551,-225.923 L -26.3129,-226.353 L -26.8209,-226.722 L -27.3711,-227.024 L -27.9549,-227.255 L -28.5631,-227.411
 L -29.186,-227.49 L -32.8139,-227.49 L -33.4369,-227.411 L -34.0451,-227.255 L -34.6289,-227.024 L -35.1791,-226.722
 L -35.3234,-226.617 L -35.3234,-284.5 L -35.3011,-284.854 L -35.2347,-285.202 L -35.1251,-285.539 L -34.9742,-285.86
 L -34.7842,-286.16 L -34.5582,-286.433 L -34.2997,-286.675 L -34.0128,-286.884 L -33.7021,-287.055 L -33.3725,-287.185
 L -33.0291,-287.273 L -32.6773,-287.318 L 25.3781,-287.318 L 25.1185,-286.909 L 24.8511,-286.341 L 24.6571,-285.743
 L 24.5394,-285.127 L 24.5,-284.5 L 24.5,-281.5 L 24.5394,-280.873 L 24.6571,-280.257 L 24.8511,-279.659
 L 25.1185,-279.091 L 25.4549,-278.561 L 25.8551,-278.077 L 26.3129,-277.647 L 26.8209,-277.278 L 27.3711,-276.976
 L 27.9549,-276.745 L 28.5631,-276.589 L 29.186,-276.51 L 32.8139,-276.51 L 33.4369,-276.589 L 34.0451,-276.745
 L 34.6289,-276.976 L 35.1791,-277.278 L 35.3234,-277.383 L 35.3234,-219.5 L 35.3011,-219.146 L 35.2347,-218.798
 L 35.1251,-218.461 L 34.9742,-218.14 L 34.7842,-217.84 L 34.5582,-217.567 L 34.2997,-217.325 L 34.0128,-217.116
 L 33.7021,-216.945 L 33.3725,-216.815 L 33.0291,-216.727 L 32.6773,-216.682 z
M 29.8493,-279.605 L 29.5503,-279.643 L 29.2583,-279.717 L 28.9781,-279.828 L 28.714,-279.974 L 28.4702,-280.151
 L 28.2505,-280.357 L 28.0583,-280.589 L 27.8969,-280.844 L 27.7685,-281.117 L 27.6754,-281.403 L 27.6189,-281.699
 L 27.6,-282 L 27.6189,-282.301 L 27.6754,-282.597 L 27.7685,-282.883 L 27.8969,-283.156 L 28.0583,-283.411
 L 28.2505,-283.643 L 28.4702,-283.849 L 28.714,-284.026 L 28.9781,-284.172 L 29.2583,-284.283 L 29.5503,-284.357
 L 29.8493,-284.395 L 30.1507,-284.395 L 30.4497,-284.357 L 30.7416,-284.283 L 31.0219,-284.172 L 31.286,-284.026
 L 31.5298,-283.849 L 31.7495,-283.643 L 31.9416,-283.411 L 32.1031,-283.156 L 32.2315,-282.883 L 32.3246,-282.597
 L 32.3811,-282.301 L 32.4,-282 L 32.3811,-281.699 L 32.3246,-281.403 L 32.2315,-281.117 L 32.1031,-280.844
 L 31.9416,-280.589 L 31.7495,-280.357 L 31.5298,-280.151 L 31.286,-279.974 L 31.0219,-279.828 L 30.7416,-279.717
 L 30.4497,-279.643 L 30.1507,-279.605 z
M -30.1507,-219.605 L -30.4497,-219.643 L -30.7416,-219.717 L -31.0219,-219.828 L -31.286,-219.974 L -31.5298,-220.151
 L -31.7495,-220.357 L -31.9416,-220.589 L -32.1031,-220.844 L -32.2315,-221.117 L -32.3246,-221.403 L -32.3811,-221.699
 L -32.4,-222 L -32.3811,-222.301 L -32.3246,-222.597 L -32.2315,-222.883 L -32.1031,-223.156 L -31.9416,-223.411
 L -31.7495,-223.643 L -31.5298,-223.849 L -31.286,-224.026 L -31.0219,-224.172 L -30.7416,-224.283 L -30.4497,-224.357
 L -30.1507,-224.395 L -29.8493,-224.395 L -29.5503,-224.357 L -29.2583,-224.283 L -28.9781,-224.172 L -28.714,-224.026
 L -28.4702,-223.849 L -28.2505,-223.643 L -28.0583,-223.411 L -27.8969,-223.156 L -27.7685,-222.883 L -27.6754,-222.597
 L -27.6189,-222.301 L -27.6,-222 L -27.6189,-221.699 L -27.6754,-221.403 L -27.7685,-221.117 L -27.8969,-220.844
 L -28.0583,-220.589 L -28.2505,-220.357 L -28.4702,-220.151 L -28.714,-219.974 L -28.9781,-219.828 L -29.2583,-219.717
 L -29.5503,-219.643 L -29.8493,-219.605 z
" stroke="black" fill="lightgray" stroke-width="0.5"/>
</svg>
