<?xml version="1.0" standalone="no"?>
<!DOCTYPE svg PUBLIC "-//W3C//DTD SVG 1.1//EN" "http://www.w3.org/Graphics/SVG/1.1/DTD/svg11.dtd">
<svg width="32mm" height="327mm" viewBox="-17 -542 32 327" xmlns="http://www.w3.org/2000/svg" version="1.1">
<title>OpenSCAD Model</title>
<path d="
M -13.5,-469.007 L -13.1448,-468.577 L -12.6871,-468.147 L -12.1791,-467.778 L -11.6289,-467.476 L -11.0451,-467.245
 L -10.4369,-467.089 L -9.81395,-467.01 L 9.81395,-467.01 L 10.4369,-467.089 L 11.0451,-467.245 L 11.6289,-467.476
 L 12.1791,-467.778 L 12.6871,-468.147 L 13.1448,-468.577 L 13.5451,-469.061 L 13.8815,-469.591 L 14.1489,-470.159
 L 14.3429,-470.757 L 14.4606,-471.373 L 14.5,-472 L 14.5,-536 L 14.4606,-536.627 L 14.3429,-537.243
 L 14.1489,-537.841 L 13.8815,-538.409 L 13.5451,-538.939 L 13.1448,-539.423 L 12.6871,-539.853 L 12.1791,-540.222
 L 11.6289,-540.524 L 11.0451,-540.755 L 10.4369,-540.911 L 9.81395,-540.99 L -9.81395,-540.99 L -10.4369,-540.911
 L -11.0451,-540.755 L -11.6289,-540.524 L -12.1791,-540.222 L -12.6871,-539.853 L -13.1448,-539.423 L -13.5,-538.993
 L -13.5,-541.49 L -16.5,-541.49 L -16.5,-466.51 L -13.5,-466.51 z
M -9.75116,-468.008 L -10.2495,-468.071 L -10.7361,-468.196 L -11.2031,-468.381 L -11.6433,-468.623 L -12.0497,-468.918
 L -12.4159,-469.262 L -12.7361,-469.649 L -13.0052,-470.073 L -13.2191,-470.528 L -13.3743,-471.005 L -13.4684,-471.499
 L -13.5,-472 L -13.5,-536 L -13.4684,-536.501 L -13.3743,-536.995 L -13.2191,-537.472 L -13.0052,-537.927
 L -12.7361,-538.351 L -12.4159,-538.738 L -12.0497,-539.082 L -11.6433,-539.377 L -11.2031,-539.619 L -10.7361,-539.804
 L -10.2495,-539.929 L -9.75116,-539.992 L 9.75116,-539.992 L 10.2495,-539.929 L 10.7361,-539.804 L 11.2031,-539.619
 L 11.6433,-539.377 L 12.0497,-539.082 L 12.4159,-538.738 L 12.7361,-538.351 L 13.0052,-537.927 L 13.2191,-537.472
 L 13.3743,-536.995 L 13.4684,-536.501 L 13.5,-536 L 13.5,-472 L 13.4684,-471.499 L 13.3743,-471.005
 L 13.2191,-470.528 L 13.0052,-470.073 L 12.7361,-469.649 L 12.4159,-469.262 L 12.0497,-468.918 L 11.6433,-468.623
 L 11.2031,-468.381 L 10.7361,-468.196 L 10.2495,-468.071 L 9.75116,-468.008 z
M -13.5,-301.007 L -13.1448,-300.577 L -12.6871,-300.147 L -12.1791,-299.778 L -11.6289,-299.476 L -11.0451,-299.245
 L -10.4369,-299.089 L -9.81395,-299.01 L 9.81395,-299.01 L 10.4369,-299.089 L 11.0451,-299.245 L 11.6289,-299.476
 L 12.1791,-299.778 L 12.6871,-300.147 L 13.1448,-300.577 L 13.5451,-301.061 L 13.8815,-301.591 L 14.1489,-302.159
 L 14.3429,-302.757 L 14.4606,-303.373 L 14.5,-304 L 14.5,-368 L 14.4606,-368.627 L 14.3429,-369.243
 L 14.1489,-369.841 L 13.8815,-370.409 L 13.5451,-370.939 L 13.1448,-371.423 L 12.6871,-371.853 L 12.1791,-372.222
 L 11.6289,-372.524 L 11.0451,-372.755 L 10.4369,-372.911 L 9.81395,-372.99 L -9.81395,-372.99 L -10.4369,-372.911
 L -11.0451,-372.755 L -11.6289,-372.524 L -12.1791,-372.222 L -12.6871,-371.853 L -13.1448,-371.423 L -13.5,-370.993
 L -13.5,-373.115 L -16.5,-373.115 L -16.5,-298.885 L -13.5,-298.885 z
M 10.4369,-215.089 L 11.0451,-215.245 L 11.6289,-215.476 L 12.1791,-215.778 L 12.6871,-216.147 L 13.1448,-216.577
 L 13.5451,-217.061 L 13.8815,-217.591 L 14.1489,-218.159 L 14.3429,-218.757 L 14.4606,-219.373 L 14.5,-220
 L 14.5,-284 L 14.4606,-284.627 L 14.3429,-285.243 L 14.1489,-285.841 L 13.8815,-286.409 L 13.5451,-286.939
 L 13.1448,-287.423 L 12.6871,-287.853 L 12.1791,-288.222 L 11.6289,-288.524 L 11.0451,-288.755 L 10.4369,-288.911
 L 9.81395,-288.99 L -9.81395,-288.99 L -10.4369,-288.911 L -11.0451,-288.755 L -11.6289,-288.524 L -12.1791,-288.222
 L -12.6871,-287.853 L -13.1448,-287.423 L -13.5451,-286.939 L -13.8815,-286.409 L -14.1489,-285.841 L -14.2777,-285.444
 L -16.5,-285.444 L -16.5,-218.556 L -14.2777,-218.556 L -14.1489,-218.159 L -13.8815,-217.591 L -13.5451,-217.061
 L -13.1448,-216.577 L -12.6871,-216.147 L -12.1791,-215.778 L -11.6289,-215.476 L -11.0451,-215.245 L -10.4369,-215.089
 L -9.81395,-215.01 L 9.81395,-215.01 z
M -7.6507,-279.605 L -7.94971,-279.643 L -8.24164,-279.717 L -8.52187,-279.828 L -8.78598,-279.974 L -9.02982,-280.151
 L -9.24951,-280.357 L -9.44164,-280.589 L -9.60313,-280.844 L -9.73146,-281.117 L -9.82458,-281.403 L -9.88107,-281.699
 L -9.89999,-282 L -9.88107,-282.301 L -9.82458,-282.597 L -9.73146,-282.883 L -9.60313,-283.156 L -9.44164,-283.411
 L -9.24951,-283.643 L -9.02982,-283.849 L -8.78598,-284.026 L -8.52187,-284.172 L -8.24164,-284.283 L -7.94971,-284.357
 L -7.6507,-284.395 L -7.34929,-284.395 L -7.05028,-284.357 L -6.75835,-284.283 L -6.47812,-284.172 L -6.214,-284.026
 L -5.97017,-283.849 L -5.75047,-283.643 L -5.55835,-283.411 L -5.39685,-283.156 L -5.26852,-282.883 L -5.1754,-282.597
 L -5.11891,-282.301 L -5.09999,-282 L -5.11891,-281.699 L -5.1754,-281.403 L -5.26852,-281.117 L -5.39685,-280.844
 L -5.55835,-280.589 L -5.75047,-280.357 L -5.97017,-280.151 L -6.214,-279.974 L -6.47812,-279.828 L -6.75835,-279.717
 L -7.05028,-279.643 L -7.34929,-279.605 z
M 7.34929,-279.605 L 7.05028,-279.643 L 6.75835,-279.717 L 6.47812,-279.828 L 6.214,-279.974 L 5.97017,-280.151
 L 5.75047,-280.357 L 5.55835,-280.589 L 5.39685,-280.844 L 5.26852,-281.117 L 5.1754,-281.403 L 5.11891,-281.699
 L 5.09999,-282 L 5.11891,-282.301 L 5.1754,-282.597 L 5.26852,-282.883 L 5.39685,-283.156 L 5.55835,-283.411
 L 5.75047,-283.643 L 5.97017,-283.849 L 6.214,-284.026 L 6.47812,-284.172 L 6.75835,-284.283 L 7.05028,-284.357
 L 7.34929,-284.395 L 7.6507,-284.395 L 7.94971,-284.357 L 8.24164,-284.283 L 8.52187,-284.172 L 8.78598,-284.026
 L 9.02982,-283.849 L 9.24951,-283.643 L 9.44164,-283.411 L 9.60313,-283.156 L 9.73146,-282.883 L 9.82458,-282.597
 L 9.88107,-282.301 L 9.89999,-282 L 9.88107,-281.699 L 9.82458,-281.403 L 9.73146,-281.117 L 9.60313,-280.844
 L 9.44164,-280.589 L 9.24951,-280.357 L 9.02982,-280.151 L 8.78598,-279.974 L 8.52187,-279.828 L 8.24164,-279.717
 L 7.94971,-279.643 L 7.6507,-279.605 z
M 7.34929,-219.605 L 7.05028,-219.643 L 6.75835,-219.717 L 6.47812,-219.828 L 6.214,-219.974 L 5.97017,-220.151
 L 5.75047,-220.357 L 5.55835,-220.589 L 5.39685,-220.844 L 5.26852,-221.117 L 5.1754,-221.403 L 5.11891,-221.699
 L 5.09999,-222 L 5.11891,-222.301 L 5.1754,-222.597 L 5.26852,-222.883 L 5.39685,-223.156 L 5.55835,-223.411
 L 5.75047,-223.643 L 5.97017,-223.849 L 6.214,-224.026 L 6.47812,-224.172 L 6.75835,-224.283 L 7.05028,-224.357
 L 7.34929,-224.395 L 7.6507,-224.395 L 7.94971,-224.357 L 8.24164,-224.283 L 8.52187,-224.172 L 8.78598,-224.026
 L 9.02982,-223.849 L 9.24951,-223.643 L 9.44164,-223.411 L 9.60313,-223.156 L 9.73146,-222.883 L 9.82458,-222.597
 L 9.88107,-222.301 L 9.89999,-222 L 9.88107,-221.699 L 9.82458,-221.403 L 9.73146,-221.117 L 9.60313,-220.844
 L 9.44164,-220.589 L 9.24951,-220.357 L 9.02982,-220.151 L 8.78598,-219.974 L 8.52187,-219.828 L 8.24164,-219.717
 L 7.94971,-219.643 L 7.6507,-219.605 z
M -7.6507,-219.605 L -7.94971,-219.643 L -8.24164,-219.717 L -8.52187,-219.828 L -8.78598,-219.974 L -9.02982,-220.151
 L -9.24951,-220.357 L -9.44164,-220.589 L -9.60313,-220.844 L -9.73146,-221.117 L -9.82458,-221.403 L -9.88107,-221.699
 L -9.89999,-222 L -9.88107,-222.301 L -9.82458,-222.597 L -9.73146,-222.883 L -9.60313,-223.156 L -9.44164,-223.411
 L -9.24951,-223.643 L -9.02982,-223.849 L -8.78598,-224.026 L -8.52187,-224.172 L -8.24164,-224.283 L -7.94971,-224.357
 L -7.6507,-224.395 L -7.34929,-224.395 L -7.05028,-224.357 L -6.75835,-224.283 L -6.47812,-224.172 L -6.214,-224.026
 L -5.97017,-223.849 L -5.75047,-223.643 L -5.55835,-223.411 L -5.39685,-223.156 L -5.26852,-222.883 L -5.1754,-222.597
 L -5.11891,-222.301 L -5.09999,-222 L -5.11891,-221.699 L -5.1754,-221.403 L -5.26852,-221.117 L -5.39685,-220.844
 L -5.55835,-220.589 L -5.75047,-220.357 L -5.97017,-220.151 L -6.214,-219.974 L -6.47812,-219.828 L -6.75835,-219.717
 L -7.05028,-219.643 L -7.34929,-219.605 z
M -9.81395,-456.99 L -10.4369,-456.911 L -11.0451,-456.755 L -11.6289,-456.524 L -12.1791,-456.222 L -12.6871,-455.853
 L -13.1448,-455.423 L -13.5,-454.993 L -13.5,-457.49 L -16.5,-457.49 L -16.5,-382.51 L -13.5,-382.51
 L -13.5,-385.007 L -13.1448,-384.577 L -12.6871,-384.147 L -12.1791,-383.778 L -11.6289,-383.476 L -11.0451,-383.245
 L -10.4369,-383.089 L -9.81395,-383.01 L 9.81395,-383.01 L 10.4369,-383.089 L 11.0451,-383.245 L 11.6289,-383.476
 L 12.1791,-383.778 L 12.6871,-384.147 L 13.1448,-384.577 L 13.5451,-385.061 L 13.8815,-385.591 L 14.1489,-386.159
 L 14.3429,-386.757 L 14.4606,-387.373 L 14.5,-388 L 14.5,-452 L 14.4606,-452.627 L 14.3429,-453.243
 L 14.1489,-453.841 L 13.8815,-454.409 L 13.5451,-454.939 L 13.1448,-455.423 L 12.6871,-455.853 L 12.1791,-456.222
 L 11.6289,-456.524 L 11.0451,-456.755 L 10.4369,-456.911 L 9.81395,-456.99 z
M 11.1489,-455.504 L 11.5751,-455.27 L 11.9685,-454.984 L 12.323,-454.651 L 12.633,-454.276 L 12.8936,-453.866
 L 13.1007,-453.426 L 13.251,-452.963 L 13.3421,-452.485 L 13.3726,-452 L 13.3726,-388 L 13.3421,-387.515
 L 13.251,-387.037 L 13.1007,-386.574 L 12.8936,-386.134 L 12.633,-385.724 L 12.323,-385.349 L 11.9685,-385.016
 L 11.5751,-384.73 L 11.1489,-384.496 L 10.6967,-384.317 L 10.2256,-384.196 L 9.74316,-384.135 L -9.74316,-384.135
 L -10.2256,-384.196 L -10.6967,-384.317 L -11.1489,-384.496 L -11.5751,-384.73 L -11.9685,-385.016 L -12.323,-385.349
 L -12.633,-385.724 L -12.8936,-386.134 L -13.1007,-386.574 L -13.251,-387.037 L -13.3421,-387.515 L -13.3726,-388
 L -13.3726,-452 L -13.3421,-452.485 L -13.251,-452.963 L -13.1007,-453.426 L -12.8936,-453.866 L -12.633,-454.276
 L -12.323,-454.651 L -11.9685,-454.984 L -11.5751,-455.27 L -11.1489,-455.504 L -10.6967,-455.683 L -10.2256,-455.804
 L -9.74316,-455.865 L 9.74316,-455.865 L 10.2256,-455.804 L 10.6967,-455.683 z
" stroke="black" fill="lightgray" stroke-width="0.5"/>
</svg>
