<?xml version="1.0" standalone="no"?>
<!DOCTYPE svg PUBLIC "-//W3C//DTD SVG 1.1//EN" "http://www.w3.org/Graphics/SVG/1.1/DTD/svg11.dtd">
<svg width="16mm" height="147mm" viewBox="-9 -249 16 147" xmlns="http://www.w3.org/2000/svg" version="1.1">
<title>OpenSCAD Model</title>
<path d="
M -6,-221.507 L -5.64484,-221.077 L -5.18712,-220.647 L -4.67912,-220.278 L -4.12889,-219.976 L -3.54507,-219.745
 L -2.9369,-219.589 L -2.31395,-219.51 L 2.31395,-219.51 L 2.9369,-219.589 L 3.54507,-219.745 L 4.12889,-219.976
 L 4.67912,-220.278 L 5.18712,-220.647 L 5.64484,-221.077 L 6.04507,-221.561 L 6.38153,-222.091 L 6.64888,-222.659
 L 6.84291,-223.257 L 6.96057,-223.873 L 7,-224.5 L 7,-243.5 L 6.96057,-244.127 L 6.84291,-244.743
 L 6.64888,-245.341 L 6.38153,-245.909 L 6.04507,-246.439 L 5.64484,-246.923 L 5.18712,-247.353 L 4.67912,-247.722
 L 4.12889,-248.024 L 3.54507,-248.255 L 2.9369,-248.411 L 2.31395,-248.49 L -2.31395,-248.49 L -2.9369,-248.411
 L -3.54507,-248.255 L -4.12889,-248.024 L -4.67912,-247.722 L -5.18712,-247.353 L -5.64484,-246.923 L -6,-246.493
 L -6,-248.99 L -9,-248.99 L -9,-219.01 L -6,-219.01 z
M -2.25116,-220.508 L -2.74951,-220.571 L -3.23605,-220.696 L -3.70311,-220.881 L -4.1433,-221.123 L -4.54968,-221.418
 L -4.91586,-221.762 L -5.23605,-222.149 L -5.50522,-222.573 L -5.7191,-223.028 L -5.87433,-223.505 L -5.96844,-223.999
 L -6,-224.5 L -6,-243.5 L -5.96844,-244.001 L -5.87433,-244.495 L -5.7191,-244.972 L -5.50522,-245.427
 L -5.23605,-245.851 L -4.91586,-246.238 L -4.54968,-246.582 L -4.1433,-246.877 L -3.70311,-247.119 L -3.23605,-247.304
 L -2.74951,-247.429 L -2.25116,-247.492 L 2.25116,-247.492 L 2.74951,-247.429 L 3.23605,-247.304 L 3.70311,-247.119
 L 4.1433,-246.877 L 4.54968,-246.582 L 4.91586,-246.238 L 5.23605,-245.851 L 5.50522,-245.427 L 5.7191,-244.972
 L 5.87433,-244.495 L 5.96844,-244.001 L 6,-243.5 L 6,-224.5 L 5.96844,-223.999 L 5.87433,-223.505
 L 5.7191,-223.028 L 5.50522,-222.573 L 5.23605,-222.149 L 4.91586,-221.762 L 4.54968,-221.418 L 4.1433,-221.123
 L 3.70311,-220.881 L 3.23605,-220.696 L 2.74951,-220.571 L 2.25116,-220.508 z
M -6,-182.507 L -5.64484,-182.077 L -5.18712,-181.647 L -4.67912,-181.278 L -4.12889,-180.976 L -3.54507,-180.745
 L -2.9369,-180.589 L -2.31395,-180.51 L 2.31395,-180.51 L 2.9369,-180.589 L 3.54507,-180.745 L 4.12889,-180.976
 L 4.67912,-181.278 L 5.18712,-181.647 L 5.64484,-182.077 L 6.04507,-182.561 L 6.38153,-183.091 L 6.64888,-183.659
 L 6.84291,-184.257 L 6.96057,-184.873 L 7,-185.5 L 7,-204.5 L 6.96057,-205.127 L 6.84291,-205.743
 L 6.64888,-206.341 L 6.38153,-206.909 L 6.04507,-207.439 L 5.64484,-207.923 L 5.18712,-208.353 L 4.67912,-208.722
 L 4.12889,-209.024 L 3.54507,-209.255 L 2.9369,-209.411 L 2.31395,-209.49 L -2.31395,-209.49 L -2.9369,-209.411
 L -3.54507,-209.255 L -4.12889,-209.024 L -4.67912,-208.722 L -5.18712,-208.353 L -5.64484,-207.923 L -6,-207.493
 L -6,-209.99 L -9,-209.99 L -9,-180.01 L -6,-180.01 z
M -2.24316,-181.635 L -2.72565,-181.696 L -3.1967,-181.817 L -3.64888,-181.996 L -4.07506,-182.23 L -4.46851,-182.516
 L -4.82301,-182.849 L -5.13301,-183.224 L -5.3936,-183.634 L -5.60068,-184.074 L -5.75096,-184.537 L -5.84209,-185.015
 L -5.87262,-185.5 L -5.87262,-204.5 L -5.84209,-204.985 L -5.75096,-205.463 L -5.60068,-205.926 L -5.3936,-206.366
 L -5.13301,-206.776 L -4.82301,-207.151 L -4.46851,-207.484 L -4.07506,-207.77 L -3.64888,-208.004 L -3.1967,-208.183
 L -2.72565,-208.304 L -2.24316,-208.365 L 2.24316,-208.365 L 2.72565,-208.304 L 3.1967,-208.183 L 3.64888,-208.004
 L 4.07506,-207.77 L 4.46851,-207.484 L 4.82301,-207.151 L 5.13301,-206.776 L 5.3936,-206.366 L 5.60068,-205.926
 L 5.75096,-205.463 L 5.84209,-204.985 L 5.87262,-204.5 L 5.87262,-185.5 L 5.84209,-185.015 L 5.75096,-184.537
 L 5.60068,-184.074 L 5.3936,-183.634 L 5.13301,-183.224 L 4.82301,-182.849 L 4.46851,-182.516 L 4.07506,-182.23
 L 3.64888,-181.996 L 3.1967,-181.817 L 2.72565,-181.696 L 2.24316,-181.635 z
M -6,-143.507 L -5.64484,-143.077 L -5.18712,-142.647 L -4.67912,-142.278 L -4.12889,-141.976 L -3.54507,-141.745
 L -2.9369,-141.589 L -2.31395,-141.51 L 2.31395,-141.51 L 2.9369,-141.589 L 3.54507,-141.745 L 4.12889,-141.976
 L 4.67912,-142.278 L 5.18712,-142.647 L 5.64484,-143.077 L 6.04507,-143.561 L 6.38153,-144.091 L 6.64888,-144.659
 L 6.84291,-145.257 L 6.96057,-145.873 L 7,-146.5 L 7,-165.5 L 6.96057,-166.127 L 6.84291,-166.743
 L 6.64888,-167.341 L 6.38153,-167.909 L 6.04507,-168.439 L 5.64484,-168.923 L 5.18712,-169.353 L 4.67912,-169.722
 L 4.12889,-170.024 L 3.54507,-170.255 L 2.9369,-170.411 L 2.31395,-170.49 L -2.31395,-170.49 L -2.9369,-170.411
 L -3.54507,-170.255 L -4.12889,-170.024 L -4.67912,-169.722 L -5.18712,-169.353 L -5.64484,-168.923 L -6,-168.493
 L -6,-170.615 L -9,-170.615 L -9,-141.385 L -6,-141.385 z
M 2.9369,-102.589 L 3.54507,-102.745 L 4.12889,-102.976 L 4.67912,-103.278 L 5.18712,-103.647 L 5.64484,-104.077
 L 6.04507,-104.561 L 6.38153,-105.091 L 6.64888,-105.659 L 6.84291,-106.257 L 6.96057,-106.873 L 7,-107.5
 L 7,-126.5 L 6.96057,-127.127 L 6.84291,-127.743 L 6.64888,-128.341 L 6.38153,-128.909 L 6.04507,-129.439
 L 5.64484,-129.923 L 5.18712,-130.353 L 4.67912,-130.722 L 4.12889,-131.024 L 3.54507,-131.255 L 2.9369,-131.411
 L 2.31395,-131.49 L -2.31395,-131.49 L -2.9369,-131.411 L -3.54507,-131.255 L -4.12889,-131.024 L -4.67912,-130.722
 L -5.18712,-130.353 L -5.64484,-129.923 L -6.04507,-129.439 L -6.38153,-128.909 L -6.64888,-128.341 L -6.77768,-127.944
 L -9,-127.944 L -9,-106.056 L -6.77768,-106.056 L -6.64888,-105.659 L -6.38153,-105.091 L -6.04507,-104.561
 L -5.64484,-104.077 L -5.18712,-103.647 L -4.67912,-103.278 L -4.12889,-102.976 L -3.54507,-102.745 L -2.9369,-102.589
 L -2.31395,-102.51 L 2.31395,-102.51 z
M -0.150696,-122.105 L -0.449707,-122.143 L -0.741638,-122.217 L -1.02187,-122.328 L -1.28598,-122.474 L -1.52982,-122.651
 L -1.74951,-122.857 L -1.94164,-123.089 L -2.10313,-123.344 L -2.23146,-123.617 L -2.32458,-123.903 L -2.38107,-124.199
 L -2.39999,-124.5 L -2.38107,-124.801 L -2.32458,-125.097 L -2.23146,-125.383 L -2.10313,-125.656 L -1.94164,-125.911
 L -1.74951,-126.143 L -1.52982,-126.349 L -1.28598,-126.526 L -1.02187,-126.672 L -0.741638,-126.783 L -0.449707,-126.857
 L -0.150696,-126.895 L 0.150696,-126.895 L 0.449707,-126.857 L 0.741638,-126.783 L 1.02187,-126.672 L 1.28598,-126.526
 L 1.52982,-126.349 L 1.74951,-126.143 L 1.94164,-125.911 L 2.10313,-125.656 L 2.23146,-125.383 L 2.32458,-125.097
 L 2.38107,-124.801 L 2.39999,-124.5 L 2.38107,-124.199 L 2.32458,-123.903 L 2.23146,-123.617 L 2.10313,-123.344
 L 1.94164,-123.089 L 1.74951,-122.857 L 1.52982,-122.651 L 1.28598,-122.474 L 1.02187,-122.328 L 0.741638,-122.217
 L 0.449707,-122.143 L 0.150696,-122.105 z
M -0.150696,-107.105 L -0.449707,-107.143 L -0.741638,-107.217 L -1.02187,-107.328 L -1.28598,-107.474 L -1.52982,-107.651
 L -1.74951,-107.857 L -1.94164,-108.089 L -2.10313,-108.344 L -2.23146,-108.617 L -2.32458,-108.903 L -2.38107,-109.199
 L -2.39999,-109.5 L -2.38107,-109.801 L -2.32458,-110.097 L -2.23146,-110.383 L -2.10313,-110.656 L -1.94164,-110.911
 L -1.74951,-111.143 L -1.52982,-111.349 L -1.28598,-111.526 L -1.02187,-111.672 L -0.741638,-111.783 L -0.449707,-111.857
 L -0.150696,-111.895 L 0.150696,-111.895 L 0.449707,-111.857 L 0.741638,-111.783 L 1.02187,-111.672 L 1.28598,-111.526
 L 1.52982,-111.349 L 1.74951,-111.143 L 1.94164,-110.911 L 2.10313,-110.656 L 2.23146,-110.383 L 2.32458,-110.097
 L 2.38107,-109.801 L 2.39999,-109.5 L 2.38107,-109.199 L 2.32458,-108.903 L 2.23146,-108.617 L 2.10313,-108.344
 L 1.94164,-108.089 L 1.74951,-107.857 L 1.52982,-107.651 L 1.28598,-107.474 L 1.02187,-107.328 L 0.741638,-107.217
 L 0.449707,-107.143 L 0.150696,-107.105 z
" stroke="black" fill="lightgray" stroke-width="0.5"/>
</svg>
