  0
SECTION
  2
BLOCKS
  0
ENDSEC
  0
SECTION
  2
ENTITIES
  0
LINE
  8
0
 10
14.5
 20
2.82999
 11
5.16031
 21
2.82999
  0
LINE
  8
0
 10
5.16031
 20
2.82999
 11
5.16031
 21
9
  0
LINE
  8
0
 10
5.16031
 20
9
 11
14.5
 21
9
  0
LINE
  8
0
 10
14.5
 20
9
 11
14.5
 21
30.5
  0
LINE
  8
0
 10
14.5
 20
30.5
 11
14.4606
 21
31.1267
  0
LINE
  8
0
 10
14.4606
 20
31.1267
 11
14.3429
 21
31.7434
  0
LINE
  8
0
 10
14.3429
 20
31.7434
 11
14.2596
 21
32
  0
LINE
  8
0
 10
14.2596
 20
32
 11
14.5
 21
32
  0
LINE
  8
0
 10
14.5
 20
32
 11
14.5
 21
34.83
  0
LINE
  8
0
 10
14.5
 20
34.83
 11
11.982
 21
34.83
  0
LINE
  8
0
 10
11.982
 20
34.83
 11
11.6289
 21
35.0241
  0
LINE
  8
0
 10
11.6289
 20
35.0241
 11
11.0451
 21
35.2553
  0
LINE
  8
0
 10
11.0451
 20
35.2553
 11
10.4369
 21
35.4114
  0
LINE
  8
0
 10
10.4369
 20
35.4114
 11
9.81395
 21
35.4901
  0
LINE
  8
0
 10
9.81395
 20
35.4901
 11
4.90581
 21
35.4901
  0
LINE
  8
0
 10
4.90581
 20
35.4901
 11
4.90581
 21
40
  0
LINE
  8
0
 10
4.90581
 20
40
 11
5.16031
 21
40
  0
LINE
  8
0
 10
5.16031
 20
40
 11
5.16031
 21
41
  0
LINE
  8
0
 10
5.16031
 20
41
 11
14.5
 21
41
  0
LINE
  8
0
 10
14.5
 20
41
 11
14.5
 21
62.5
  0
LINE
  8
0
 10
14.5
 20
62.5
 11
14.4606
 21
63.1267
  0
LINE
  8
0
 10
14.4606
 20
63.1267
 11
14.3429
 21
63.7434
  0
LINE
  8
0
 10
14.3429
 20
63.7434
 11
14.2596
 21
64
  0
LINE
  8
0
 10
14.2596
 20
64
 11
14.5
 21
64
  0
LINE
  8
0
 10
14.5
 20
64
 11
14.5
 21
66.83
  0
LINE
  8
0
 10
14.5
 20
66.83
 11
11.982
 21
66.83
  0
LINE
  8
0
 10
11.982
 20
66.83
 11
11.6289
 21
67.0241
  0
LINE
  8
0
 10
11.6289
 20
67.0241
 11
11.0451
 21
67.2553
  0
LINE
  8
0
 10
11.0451
 20
67.2553
 11
10.4369
 21
67.4114
  0
LINE
  8
0
 10
10.4369
 20
67.4114
 11
9.81395
 21
67.4901
  0
LINE
  8
0
 10
9.81395
 20
67.4901
 11
4.96927
 21
67.4901
  0
LINE
  8
0
 10
4.96927
 20
67.4901
 11
4.96927
 21
72
  0
LINE
  8
0
 10
4.96927
 20
72
 11
5.16031
 21
72
  0
LINE
  8
0
 10
5.16031
 20
72
 11
5.16031
 21
73
  0
LINE
  8
0
 10
5.16031
 20
73
 11
14.5
 21
73
  0
LINE
  8
0
 10
14.5
 20
73
 11
14.5
 21
94.5
  0
LINE
  8
0
 10
14.5
 20
94.5
 11
14.4606
 21
95.1267
  0
LINE
  8
0
 10
14.4606
 20
95.1267
 11
14.3429
 21
95.7434
  0
LINE
  8
0
 10
14.3429
 20
95.7434
 11
14.2596
 21
96
  0
LINE
  8
0
 10
14.2596
 20
96
 11
14.5
 21
96
  0
LINE
  8
0
 10
14.5
 20
96
 11
14.5
 21
98.83
  0
LINE
  8
0
 10
14.5
 20
98.83
 11
11.982
 21
98.83
  0
LINE
  8
0
 10
11.982
 20
98.83
 11
11.6289
 21
99.0241
  0
LINE
  8
0
 10
11.6289
 20
99.0241
 11
11.0451
 21
99.2553
  0
LINE
  8
0
 10
11.0451
 20
99.2553
 11
10.4369
 21
99.4114
  0
LINE
  8
0
 10
10.4369
 20
99.4114
 11
9.81395
 21
99.4901
  0
LINE
  8
0
 10
9.81395
 20
99.4901
 11
5.16031
 21
99.4901
  0
LINE
  8
0
 10
5.16031
 20
99.4901
 11
5.16031
 21
105
  0
LINE
  8
0
 10
5.16031
 20
105
 11
14.5
 21
105
  0
LINE
  8
0
 10
14.5
 20
105
 11
14.5
 21
126.5
  0
LINE
  8
0
 10
14.5
 20
126.5
 11
14.4606
 21
127.127
  0
LINE
  8
0
 10
14.4606
 20
127.127
 11
14.3429
 21
127.743
  0
LINE
  8
0
 10
14.3429
 20
127.743
 11
14.1489
 21
128.341
  0
LINE
  8
0
 10
14.1489
 20
128.341
 11
13.8815
 21
128.909
  0
LINE
  8
0
 10
13.8815
 20
128.909
 11
13.5451
 21
129.439
  0
LINE
  8
0
 10
13.5451
 20
129.439
 11
13.1448
 21
129.923
  0
LINE
  8
0
 10
13.1448
 20
129.923
 11
12.6871
 21
130.353
  0
LINE
  8
0
 10
12.6871
 20
130.353
 11
12.1791
 21
130.722
  0
LINE
  8
0
 10
12.1791
 20
130.722
 11
11.6289
 21
131.024
  0
LINE
  8
0
 10
11.6289
 20
131.024
 11
11.0451
 21
131.255
  0
LINE
  8
0
 10
11.0451
 20
131.255
 11
10.4369
 21
131.411
  0
LINE
  8
0
 10
10.4369
 20
131.411
 11
9.81395
 21
131.49
  0
LINE
  8
0
 10
9.81395
 20
131.49
 11
-9.81395
 21
131.49
  0
LINE
  8
0
 10
-9.81395
 20
131.49
 11
-10.4369
 21
131.411
  0
LINE
  8
0
 10
-10.4369
 20
131.411
 11
-11.0451
 21
131.255
  0
LINE
  8
0
 10
-11.0451
 20
131.255
 11
-11.6289
 21
131.024
  0
LINE
  8
0
 10
-11.6289
 20
131.024
 11
-12.1791
 21
130.722
  0
LINE
  8
0
 10
-12.1791
 20
130.722
 11
-12.6871
 21
130.353
  0
LINE
  8
0
 10
-12.6871
 20
130.353
 11
-13.1448
 21
129.923
  0
LINE
  8
0
 10
-13.1448
 20
129.923
 11
-13.5451
 21
129.439
  0
LINE
  8
0
 10
-13.5451
 20
129.439
 11
-13.8815
 21
128.909
  0
LINE
  8
0
 10
-13.8815
 20
128.909
 11
-14.1489
 21
128.341
  0
LINE
  8
0
 10
-14.1489
 20
128.341
 11
-14.3429
 21
127.743
  0
LINE
  8
0
 10
-14.3429
 20
127.743
 11
-14.4606
 21
127.127
  0
LINE
  8
0
 10
-14.4606
 20
127.127
 11
-14.5
 21
126.5
  0
LINE
  8
0
 10
-14.5
 20
126.5
 11
-14.5
 21
96
  0
LINE
  8
0
 10
-14.5
 20
96
 11
-14.2596
 21
96
  0
LINE
  8
0
 10
-14.2596
 20
96
 11
-14.3429
 21
95.7434
  0
LINE
  8
0
 10
-14.3429
 20
95.7434
 11
-14.4606
 21
95.1267
  0
LINE
  8
0
 10
-14.4606
 20
95.1267
 11
-14.5
 21
94.5
  0
LINE
  8
0
 10
-14.5
 20
94.5
 11
-14.5
 21
64
  0
LINE
  8
0
 10
-14.5
 20
64
 11
-14.2596
 21
64
  0
LINE
  8
0
 10
-14.2596
 20
64
 11
-14.3429
 21
63.7434
  0
LINE
  8
0
 10
-14.3429
 20
63.7434
 11
-14.4606
 21
63.1267
  0
LINE
  8
0
 10
-14.4606
 20
63.1267
 11
-14.5
 21
62.5
  0
LINE
  8
0
 10
-14.5
 20
62.5
 11
-14.5
 21
32
  0
LINE
  8
0
 10
-14.5
 20
32
 11
-14.2596
 21
32
  0
LINE
  8
0
 10
-14.2596
 20
32
 11
-14.3429
 21
31.7434
  0
LINE
  8
0
 10
-14.3429
 20
31.7434
 11
-14.4606
 21
31.1267
  0
LINE
  8
0
 10
-14.4606
 20
31.1267
 11
-14.5
 21
30.5
  0
LINE
  8
0
 10
-14.5
 20
30.5
 11
-14.5
 21
0
  0
LINE
  8
0
 10
-14.5
 20
0
 11
14.5
 21
0
  0
LINE
  8
0
 10
14.5
 20
0
 11
14.5
 21
2.82999
  0
LINE
  8
0
 10
5.5
 20
128.75
 11
5.5
 21
130.25
  0
LINE
  8
0
 10
5.5
 20
130.25
 11
9.5
 21
130.25
  0
LINE
  8
0
 10
9.5
 20
130.25
 11
9.5
 21
128.75
  0
LINE
  8
0
 10
9.5
 20
128.75
 11
5.5
 21
128.75
  0
LINE
  8
0
 10
-9.5
 20
128.75
 11
-9.5
 21
130.25
  0
LINE
  8
0
 10
-9.5
 20
130.25
 11
-5.5
 21
130.25
  0
LINE
  8
0
 10
-5.5
 20
130.25
 11
-5.5
 21
128.75
  0
LINE
  8
0
 10
-5.5
 20
128.75
 11
-9.5
 21
128.75
  0
LINE
  8
0
 10
-9.5
 20
121.75
 11
-9.5
 21
123.25
  0
LINE
  8
0
 10
-9.5
 20
123.25
 11
-5.5
 21
123.25
  0
LINE
  8
0
 10
-5.5
 20
123.25
 11
-5.5
 21
121.75
  0
LINE
  8
0
 10
-5.5
 20
121.75
 11
-9.5
 21
121.75
  0
LINE
  8
0
 10
5.5
 20
121.75
 11
5.5
 21
123.25
  0
LINE
  8
0
 10
5.5
 20
123.25
 11
9.5
 21
123.25
  0
LINE
  8
0
 10
9.5
 20
123.25
 11
9.5
 21
121.75
  0
LINE
  8
0
 10
9.5
 20
121.75
 11
5.5
 21
121.75
  0
LINE
  8
0
 10
-9.5
 20
113.75
 11
-9.5
 21
115.25
  0
LINE
  8
0
 10
-9.5
 20
115.25
 11
-5.5
 21
115.25
  0
LINE
  8
0
 10
-5.5
 20
115.25
 11
-5.5
 21
113.75
  0
LINE
  8
0
 10
-5.5
 20
113.75
 11
-9.5
 21
113.75
  0
LINE
  8
0
 10
5.5
 20
113.75
 11
5.5
 21
115.25
  0
LINE
  8
0
 10
5.5
 20
115.25
 11
9.5
 21
115.25
  0
LINE
  8
0
 10
9.5
 20
115.25
 11
9.5
 21
113.75
  0
LINE
  8
0
 10
9.5
 20
113.75
 11
5.5
 21
113.75
  0
LINE
  8
0
 10
-9.5
 20
106.75
 11
-9.5
 21
108.25
  0
LINE
  8
0
 10
-9.5
 20
108.25
 11
-5.5
 21
108.25
  0
LINE
  8
0
 10
-5.5
 20
108.25
 11
-5.5
 21
106.75
  0
LINE
  8
0
 10
-5.5
 20
106.75
 11
-9.5
 21
106.75
  0
LINE
  8
0
 10
5.5
 20
106.75
 11
5.5
 21
108.25
  0
LINE
  8
0
 10
5.5
 20
108.25
 11
9.5
 21
108.25
  0
LINE
  8
0
 10
9.5
 20
108.25
 11
9.5
 21
106.75
  0
LINE
  8
0
 10
9.5
 20
106.75
 11
5.5
 21
106.75
  0
LINE
  8
0
 10
-9.83968
 20
105
 11
-0.480927
 21
105
  0
LINE
  8
0
 10
-0.480927
 20
105
 11
-0.480927
 21
99.4901
  0
LINE
  8
0
 10
-0.480927
 20
99.4901
 11
-9.81395
 21
99.4901
  0
LINE
  8
0
 10
-9.81395
 20
99.4901
 11
-9.83968
 21
99.4869
  0
LINE
  8
0
 10
-9.83968
 20
99.4869
 11
-9.83968
 21
105
  0
LINE
  8
0
 10
5.5
 20
89.75
 11
5.5
 21
91.25
  0
LINE
  8
0
 10
5.5
 20
91.25
 11
9.5
 21
91.25
  0
LINE
  8
0
 10
9.5
 20
91.25
 11
9.5
 21
89.75
  0
LINE
  8
0
 10
9.5
 20
89.75
 11
5.5
 21
89.75
  0
LINE
  8
0
 10
-9.5
 20
89.75
 11
-9.5
 21
91.25
  0
LINE
  8
0
 10
-9.5
 20
91.25
 11
-5.5
 21
91.25
  0
LINE
  8
0
 10
-5.5
 20
91.25
 11
-5.5
 21
89.75
  0
LINE
  8
0
 10
-5.5
 20
89.75
 11
-9.5
 21
89.75
  0
LINE
  8
0
 10
-9.5
 20
81.75
 11
-9.5
 21
83.25
  0
LINE
  8
0
 10
-9.5
 20
83.25
 11
-5.5
 21
83.25
  0
LINE
  8
0
 10
-5.5
 20
83.25
 11
-5.5
 21
81.75
  0
LINE
  8
0
 10
-5.5
 20
81.75
 11
-9.5
 21
81.75
  0
LINE
  8
0
 10
5.5
 20
81.75
 11
5.5
 21
83.25
  0
LINE
  8
0
 10
5.5
 20
83.25
 11
9.5
 21
83.25
  0
LINE
  8
0
 10
9.5
 20
83.25
 11
9.5
 21
81.75
  0
LINE
  8
0
 10
9.5
 20
81.75
 11
5.5
 21
81.75
  0
LINE
  8
0
 10
-9.5
 20
74.75
 11
-9.5
 21
76.25
  0
LINE
  8
0
 10
-9.5
 20
76.25
 11
-5.5
 21
76.25
  0
LINE
  8
0
 10
-5.5
 20
76.25
 11
-5.5
 21
74.75
  0
LINE
  8
0
 10
-5.5
 20
74.75
 11
-9.5
 21
74.75
  0
LINE
  8
0
 10
5.5
 20
74.75
 11
5.5
 21
76.25
  0
LINE
  8
0
 10
5.5
 20
76.25
 11
9.5
 21
76.25
  0
LINE
  8
0
 10
9.5
 20
76.25
 11
9.5
 21
74.75
  0
LINE
  8
0
 10
9.5
 20
74.75
 11
5.5
 21
74.75
  0
LINE
  8
0
 10
-10.0307
 20
72
 11
-9.83968
 21
72
  0
LINE
  8
0
 10
-9.83968
 20
72
 11
-9.83968
 21
73
  0
LINE
  8
0
 10
-9.83968
 20
73
 11
-0.480927
 21
73
  0
LINE
  8
0
 10
-0.480927
 20
73
 11
-0.480927
 21
67.4901
  0
LINE
  8
0
 10
-0.480927
 20
67.4901
 11
-9.81395
 21
67.4901
  0
LINE
  8
0
 10
-9.81395
 20
67.4901
 11
-10.0307
 21
67.4628
  0
LINE
  8
0
 10
-10.0307
 20
67.4628
 11
-10.0307
 21
72
  0
LINE
  8
0
 10
-9.5
 20
64.75
 11
-9.5
 21
66.25
  0
LINE
  8
0
 10
-9.5
 20
66.25
 11
-5.5
 21
66.25
  0
LINE
  8
0
 10
-5.5
 20
66.25
 11
-5.5
 21
64.75
  0
LINE
  8
0
 10
-5.5
 20
64.75
 11
-9.5
 21
64.75
  0
LINE
  8
0
 10
5.5
 20
64.75
 11
5.5
 21
66.25
  0
LINE
  8
0
 10
5.5
 20
66.25
 11
9.5
 21
66.25
  0
LINE
  8
0
 10
9.5
 20
66.25
 11
9.5
 21
64.75
  0
LINE
  8
0
 10
9.5
 20
64.75
 11
5.5
 21
64.75
  0
LINE
  8
0
 10
-9.5
 20
57.75
 11
-9.5
 21
59.25
  0
LINE
  8
0
 10
-9.5
 20
59.25
 11
-5.5
 21
59.25
  0
LINE
  8
0
 10
-5.5
 20
59.25
 11
-5.5
 21
57.75
  0
LINE
  8
0
 10
-5.5
 20
57.75
 11
-9.5
 21
57.75
  0
LINE
  8
0
 10
5.5
 20
57.75
 11
5.5
 21
59.25
  0
LINE
  8
0
 10
5.5
 20
59.25
 11
9.5
 21
59.25
  0
LINE
  8
0
 10
9.5
 20
59.25
 11
9.5
 21
57.75
  0
LINE
  8
0
 10
9.5
 20
57.75
 11
5.5
 21
57.75
  0
LINE
  8
0
 10
-9.5
 20
49.75
 11
-9.5
 21
51.25
  0
LINE
  8
0
 10
-9.5
 20
51.25
 11
-5.5
 21
51.25
  0
LINE
  8
0
 10
-5.5
 20
51.25
 11
-5.5
 21
49.75
  0
LINE
  8
0
 10
-5.5
 20
49.75
 11
-9.5
 21
49.75
  0
LINE
  8
0
 10
5.5
 20
49.75
 11
5.5
 21
51.25
  0
LINE
  8
0
 10
5.5
 20
51.25
 11
9.5
 21
51.25
  0
LINE
  8
0
 10
9.5
 20
51.25
 11
9.5
 21
49.75
  0
LINE
  8
0
 10
9.5
 20
49.75
 11
5.5
 21
49.75
  0
LINE
  8
0
 10
-9.5
 20
42.75
 11
-9.5
 21
44.25
  0
LINE
  8
0
 10
-9.5
 20
44.25
 11
-5.5
 21
44.25
  0
LINE
  8
0
 10
-5.5
 20
44.25
 11
-5.5
 21
42.75
  0
LINE
  8
0
 10
-5.5
 20
42.75
 11
-9.5
 21
42.75
  0
LINE
  8
0
 10
5.5
 20
42.75
 11
5.5
 21
44.25
  0
LINE
  8
0
 10
5.5
 20
44.25
 11
9.5
 21
44.25
  0
LINE
  8
0
 10
9.5
 20
44.25
 11
9.5
 21
42.75
  0
LINE
  8
0
 10
9.5
 20
42.75
 11
5.5
 21
42.75
  0
LINE
  8
0
 10
-10.0942
 20
40
 11
-9.83968
 21
40
  0
LINE
  8
0
 10
-9.83968
 20
40
 11
-9.83968
 21
41
  0
LINE
  8
0
 10
-9.83968
 20
41
 11
-0.480927
 21
41
  0
LINE
  8
0
 10
-0.480927
 20
41
 11
-0.480927
 21
35.4901
  0
LINE
  8
0
 10
-0.480927
 20
35.4901
 11
-9.81395
 21
35.4901
  0
LINE
  8
0
 10
-9.81395
 20
35.4901
 11
-10.0942
 21
35.4547
  0
LINE
  8
0
 10
-10.0942
 20
35.4547
 11
-10.0942
 21
40
  0
LINE
  8
0
 10
5.5
 20
32.75
 11
5.5
 21
34.25
  0
LINE
  8
0
 10
5.5
 20
34.25
 11
9.5
 21
34.25
  0
LINE
  8
0
 10
9.5
 20
34.25
 11
9.5
 21
32.75
  0
LINE
  8
0
 10
9.5
 20
32.75
 11
5.5
 21
32.75
  0
LINE
  8
0
 10
-9.5
 20
32.75
 11
-9.5
 21
34.25
  0
LINE
  8
0
 10
-9.5
 20
34.25
 11
-5.5
 21
34.25
  0
LINE
  8
0
 10
-5.5
 20
34.25
 11
-5.5
 21
32.75
  0
LINE
  8
0
 10
-5.5
 20
32.75
 11
-9.5
 21
32.75
  0
LINE
  8
0
 10
-9.5
 20
25.75
 11
-9.5
 21
27.25
  0
LINE
  8
0
 10
-9.5
 20
27.25
 11
-5.5
 21
27.25
  0
LINE
  8
0
 10
-5.5
 20
27.25
 11
-5.5
 21
25.75
  0
LINE
  8
0
 10
-5.5
 20
25.75
 11
-9.5
 21
25.75
  0
LINE
  8
0
 10
5.5
 20
25.75
 11
5.5
 21
27.25
  0
LINE
  8
0
 10
5.5
 20
27.25
 11
9.5
 21
27.25
  0
LINE
  8
0
 10
9.5
 20
27.25
 11
9.5
 21
25.75
  0
LINE
  8
0
 10
9.5
 20
25.75
 11
5.5
 21
25.75
  0
LINE
  8
0
 10
-9.5
 20
17.75
 11
-9.5
 21
19.25
  0
LINE
  8
0
 10
-9.5
 20
19.25
 11
-5.5
 21
19.25
  0
LINE
  8
0
 10
-5.5
 20
19.25
 11
-5.5
 21
17.75
  0
LINE
  8
0
 10
-5.5
 20
17.75
 11
-9.5
 21
17.75
  0
LINE
  8
0
 10
5.5
 20
17.75
 11
5.5
 21
19.25
  0
LINE
  8
0
 10
5.5
 20
19.25
 11
9.5
 21
19.25
  0
LINE
  8
0
 10
9.5
 20
19.25
 11
9.5
 21
17.75
  0
LINE
  8
0
 10
9.5
 20
17.75
 11
5.5
 21
17.75
  0
LINE
  8
0
 10
5.5
 20
10.75
 11
5.5
 21
12.25
  0
LINE
  8
0
 10
5.5
 20
12.25
 11
9.5
 21
12.25
  0
LINE
  8
0
 10
9.5
 20
12.25
 11
9.5
 21
10.75
  0
LINE
  8
0
 10
9.5
 20
10.75
 11
5.5
 21
10.75
  0
LINE
  8
0
 10
-9.5
 20
10.75
 11
-9.5
 21
12.25
  0
LINE
  8
0
 10
-9.5
 20
12.25
 11
-5.5
 21
12.25
  0
LINE
  8
0
 10
-5.5
 20
12.25
 11
-5.5
 21
10.75
  0
LINE
  8
0
 10
-5.5
 20
10.75
 11
-9.5
 21
10.75
  0
LINE
  8
0
 10
-9.83968
 20
2.82999
 11
-9.83968
 21
9
  0
LINE
  8
0
 10
-9.83968
 20
9
 11
-0.480927
 21
9
  0
LINE
  8
0
 10
-0.480927
 20
9
 11
-0.480927
 21
2.82999
  0
LINE
  8
0
 10
-0.480927
 20
2.82999
 11
-9.83968
 21
2.82999
  0
ENDSEC
  0
SECTION
  2
OBJECTS
  0
DICTIONARY
  0
ENDSEC
  0
EOF
