<?xml version="1.0" standalone="no"?>
<!DOCTYPE svg PUBLIC "-//W3C//DTD SVG 1.1//EN" "http://www.w3.org/Graphics/SVG/1.1/DTD/svg11.dtd">
<svg width="30mm" height="132mm" viewBox="-15 -132 30 132" xmlns="http://www.w3.org/2000/svg" version="1.1">
<title>OpenSCAD Model</title>
<path d="
M 14.5,-2.82999 L 5.16031,-2.82999 L 5.16031,-9 L 14.5,-9 L 14.5,-30.5 L 14.4606,-31.1267
 L 14.3429,-31.7434 L 14.2596,-32 L 14.5,-32 L 14.5,-34.83 L 11.982,-34.83 L 11.6289,-35.0241
 L 11.0451,-35.2553 L 10.4369,-35.4114 L 9.81395,-35.4901 L 4.90581,-35.4901 L 4.90581,-40 L 5.16031,-40
 L 5.16031,-41 L 14.5,-41 L 14.5,-62.5 L 14.4606,-63.1267 L 14.3429,-63.7434 L 14.2596,-64
 L 14.5,-64 L 14.5,-66.83 L 11.982,-66.83 L 11.6289,-67.0241 L 11.0451,-67.2553 L 10.4369,-67.4114
 L 9.81395,-67.4901 L 4.96927,-67.4901 L 4.96927,-72 L 5.16031,-72 L 5.16031,-73 L 14.5,-73
 L 14.5,-94.5 L 14.4606,-95.1267 L 14.3429,-95.7434 L 14.2596,-96 L 14.5,-96 L 14.5,-98.83
 L 11.982,-98.83 L 11.6289,-99.0241 L 11.0451,-99.2553 L 10.4369,-99.4114 L 9.81395,-99.4901 L 5.16031,-99.4901
 L 5.16031,-105 L 14.5,-105 L 14.5,-126.5 L 14.4606,-127.127 L 14.3429,-127.743 L 14.1489,-128.341
 L 13.8815,-128.909 L 13.5451,-129.439 L 13.1448,-129.923 L 12.6871,-130.353 L 12.1791,-130.722 L 11.6289,-131.024
 L 11.0451,-131.255 L 10.4369,-131.411 L 9.81395,-131.49 L -9.81395,-131.49 L -10.4369,-131.411 L -11.0451,-131.255
 L -11.6289,-131.024 L -12.1791,-130.722 L -12.6871,-130.353 L -13.1448,-129.923 L -13.5451,-129.439 L -13.8815,-128.909
 L -14.1489,-128.341 L -14.3429,-127.743 L -14.4606,-127.127 L -14.5,-126.5 L -14.5,-96 L -14.2596,-96
 L -14.3429,-95.7434 L -14.4606,-95.1267 L -14.5,-94.5 L -14.5,-64 L -14.2596,-64 L -14.3429,-63.7434
 L -14.4606,-63.1267 L -14.5,-62.5 L -14.5,-32 L -14.2596,-32 L -14.3429,-31.7434 L -14.4606,-31.1267
 L -14.5,-30.5 L -14.5,-0 L 14.5,-0 z
M 5.5,-128.75 L 5.5,-130.25 L 9.5,-130.25 L 9.5,-128.75 z
M -9.5,-128.75 L -9.5,-130.25 L -5.5,-130.25 L -5.5,-128.75 z
M -9.5,-121.75 L -9.5,-123.25 L -5.5,-123.25 L -5.5,-121.75 z
M 5.5,-121.75 L 5.5,-123.25 L 9.5,-123.25 L 9.5,-121.75 z
M -9.5,-113.75 L -9.5,-115.25 L -5.5,-115.25 L -5.5,-113.75 z
M 5.5,-113.75 L 5.5,-115.25 L 9.5,-115.25 L 9.5,-113.75 z
M -9.5,-106.75 L -9.5,-108.25 L -5.5,-108.25 L -5.5,-106.75 z
M 5.5,-106.75 L 5.5,-108.25 L 9.5,-108.25 L 9.5,-106.75 z
M -9.83968,-105 L -0.480927,-105 L -0.480927,-99.4901 L -9.81395,-99.4901 L -9.83968,-99.4869 z
M 5.5,-89.75 L 5.5,-91.25 L 9.5,-91.25 L 9.5,-89.75 z
M -9.5,-89.75 L -9.5,-91.25 L -5.5,-91.25 L -5.5,-89.75 z
M -9.5,-81.75 L -9.5,-83.25 L -5.5,-83.25 L -5.5,-81.75 z
M 5.5,-81.75 L 5.5,-83.25 L 9.5,-83.25 L 9.5,-81.75 z
M -9.5,-74.75 L -9.5,-76.25 L -5.5,-76.25 L -5.5,-74.75 z
M 5.5,-74.75 L 5.5,-76.25 L 9.5,-76.25 L 9.5,-74.75 z
M -10.0307,-72 L -9.83968,-72 L -9.83968,-73 L -0.480927,-73 L -0.480927,-67.4901 L -9.81395,-67.4901
 L -10.0307,-67.4628 z
M -9.5,-64.75 L -9.5,-66.25 L -5.5,-66.25 L -5.5,-64.75 z
M 5.5,-64.75 L 5.5,-66.25 L 9.5,-66.25 L 9.5,-64.75 z
M -9.5,-57.75 L -9.5,-59.25 L -5.5,-59.25 L -5.5,-57.75 z
M 5.5,-57.75 L 5.5,-59.25 L 9.5,-59.25 L 9.5,-57.75 z
M -9.5,-49.75 L -9.5,-51.25 L -5.5,-51.25 L -5.5,-49.75 z
M 5.5,-49.75 L 5.5,-51.25 L 9.5,-51.25 L 9.5,-49.75 z
M -9.5,-42.75 L -9.5,-44.25 L -5.5,-44.25 L -5.5,-42.75 z
M 5.5,-42.75 L 5.5,-44.25 L 9.5,-44.25 L 9.5,-42.75 z
M -10.0942,-40 L -9.83968,-40 L -9.83968,-41 L -0.480927,-41 L -0.480927,-35.4901 L -9.81395,-35.4901
 L -10.0942,-35.4547 z
M 5.5,-32.75 L 5.5,-34.25 L 9.5,-34.25 L 9.5,-32.75 z
M -9.5,-32.75 L -9.5,-34.25 L -5.5,-34.25 L -5.5,-32.75 z
M -9.5,-25.75 L -9.5,-27.25 L -5.5,-27.25 L -5.5,-25.75 z
M 5.5,-25.75 L 5.5,-27.25 L 9.5,-27.25 L 9.5,-25.75 z
M -9.5,-17.75 L -9.5,-19.25 L -5.5,-19.25 L -5.5,-17.75 z
M 5.5,-17.75 L 5.5,-19.25 L 9.5,-19.25 L 9.5,-17.75 z
M 5.5,-10.75 L 5.5,-12.25 L 9.5,-12.25 L 9.5,-10.75 z
M -9.5,-10.75 L -9.5,-12.25 L -5.5,-12.25 L -5.5,-10.75 z
M -9.83968,-2.82999 L -9.83968,-9 L -0.480927,-9 L -0.480927,-2.82999 z
" stroke="black" fill="lightgray" stroke-width="0.5"/>
</svg>
