<?xml version="1.0" standalone="no"?>
<!DOCTYPE svg PUBLIC "-//W3C//DTD SVG 1.1//EN" "http://www.w3.org/Graphics/SVG/1.1/DTD/svg11.dtd">
<svg width="14mm" height="186mm" viewBox="-7 -327 14 186" xmlns="http://www.w3.org/2000/svg" version="1.1">
<title>OpenSCAD Model</title>
<path d="
M 2.9369,-297.589 L 3.54507,-297.745 L 4.12889,-297.976 L 4.67912,-298.278 L 5.18712,-298.647 L 5.64484,-299.077
 L 6.04507,-299.561 L 6.38153,-300.091 L 6.64888,-300.659 L 6.84291,-301.257 L 6.96057,-301.873 L 7,-302.5
 L 7,-321.5 L 6.96057,-322.127 L 6.84291,-322.743 L 6.64888,-323.341 L 6.38153,-323.909 L 6.04507,-324.439
 L 5.64484,-324.923 L 5.18712,-325.353 L 4.67912,-325.722 L 4.12889,-326.024 L 3.54507,-326.255 L 2.9369,-326.411
 L 2.31395,-326.49 L -2.31395,-326.49 L -2.9369,-326.411 L -3.54507,-326.255 L -4.12889,-326.024 L -4.67912,-325.722
 L -5.18712,-325.353 L -5.64484,-324.923 L -6.04507,-324.439 L -6.38153,-323.909 L -6.64888,-323.341 L -6.84291,-322.743
 L -6.96057,-322.127 L -7,-321.5 L -7,-302.5 L -6.96057,-301.873 L -6.84291,-301.257 L -6.64888,-300.659
 L -6.38153,-300.091 L -6.04507,-299.561 L -5.64484,-299.077 L -5.18712,-298.647 L -4.67912,-298.278 L -4.12889,-297.976
 L -3.54507,-297.745 L -2.9369,-297.589 L -2.31395,-297.51 L 2.31395,-297.51 z
M -2.04825,-298.009 L -2.64006,-298.084 L -3.21782,-298.232 L -3.77245,-298.452 L -4.29517,-298.739 L -4.77776,-299.09
 L -5.2126,-299.498 L -5.59282,-299.958 L -5.91245,-300.462 L -6.16643,-301.001 L -6.35077,-301.569 L -6.46254,-302.155
 L -6.5,-302.75 L -6.5,-321.25 L -6.46254,-321.845 L -6.35077,-322.431 L -6.16643,-322.999 L -5.91245,-323.538
 L -5.59282,-324.042 L -5.2126,-324.502 L -4.77776,-324.91 L -4.29517,-325.261 L -3.77245,-325.548 L -3.21782,-325.768
 L -2.64006,-325.916 L -2.04825,-325.991 L 2.04825,-325.991 L 2.64006,-325.916 L 3.21782,-325.768 L 3.77245,-325.548
 L 4.29517,-325.261 L 4.77776,-324.91 L 5.2126,-324.502 L 5.59282,-324.042 L 5.91245,-323.538 L 6.16643,-322.999
 L 6.35077,-322.431 L 6.46254,-321.845 L 6.5,-321.25 L 6.5,-302.75 L 6.46254,-302.155 L 6.35077,-301.569
 L 6.16643,-301.001 L 5.91245,-300.462 L 5.59282,-299.958 L 5.2126,-299.498 L 4.77776,-299.09 L 4.29517,-298.739
 L 3.77245,-298.452 L 3.21782,-298.232 L 2.64006,-298.084 L 2.04825,-298.009 z
M 2.9369,-258.589 L 3.54507,-258.745 L 4.12889,-258.976 L 4.67912,-259.278 L 5.18712,-259.647 L 5.64484,-260.077
 L 6.04507,-260.561 L 6.38153,-261.091 L 6.64888,-261.659 L 6.84291,-262.257 L 6.96057,-262.873 L 7,-263.5
 L 7,-282.5 L 6.96057,-283.127 L 6.84291,-283.743 L 6.64888,-284.341 L 6.38153,-284.909 L 6.04507,-285.439
 L 5.64484,-285.923 L 5.18712,-286.353 L 4.67912,-286.722 L 4.12889,-287.024 L 3.54507,-287.255 L 2.9369,-287.411
 L 2.31395,-287.49 L -2.31395,-287.49 L -2.9369,-287.411 L -3.54507,-287.255 L -4.12889,-287.024 L -4.67912,-286.722
 L -5.18712,-286.353 L -5.64484,-285.923 L -6.04507,-285.439 L -6.38153,-284.909 L -6.64888,-284.341 L -6.84291,-283.743
 L -6.96057,-283.127 L -7,-282.5 L -7,-263.5 L -6.96057,-262.873 L -6.84291,-262.257 L -6.64888,-261.659
 L -6.38153,-261.091 L -6.04507,-260.561 L -5.64484,-260.077 L -5.18712,-259.647 L -4.67912,-259.278 L -4.12889,-258.976
 L -3.54507,-258.745 L -2.9369,-258.589 L -2.31395,-258.51 L 2.31395,-258.51 z
M -2.04825,-259.009 L -2.64006,-259.084 L -3.21782,-259.232 L -3.77245,-259.452 L -4.29517,-259.739 L -4.77776,-260.09
 L -5.2126,-260.498 L -5.59282,-260.958 L -5.91245,-261.462 L -6.16643,-262.001 L -6.35077,-262.569 L -6.46254,-263.155
 L -6.5,-263.75 L -6.5,-282.25 L -6.46254,-282.845 L -6.35077,-283.431 L -6.16643,-283.999 L -5.91245,-284.538
 L -5.59282,-285.042 L -5.2126,-285.502 L -4.77776,-285.91 L -4.29517,-286.261 L -3.77245,-286.548 L -3.21782,-286.768
 L -2.64006,-286.916 L -2.04825,-286.991 L 2.04825,-286.991 L 2.64006,-286.916 L 3.21782,-286.768 L 3.77245,-286.548
 L 4.29517,-286.261 L 4.77776,-285.91 L 5.2126,-285.502 L 5.59282,-285.042 L 5.91245,-284.538 L 6.16643,-283.999
 L 6.35077,-283.431 L 6.46254,-282.845 L 6.5,-282.25 L 6.5,-263.75 L 6.46254,-263.155 L 6.35077,-262.569
 L 6.16643,-262.001 L 5.91245,-261.462 L 5.59282,-260.958 L 5.2126,-260.498 L 4.77776,-260.09 L 4.29517,-259.739
 L 3.77245,-259.452 L 3.21782,-259.232 L 2.64006,-259.084 L 2.04825,-259.009 z
M 2.9369,-219.589 L 3.54507,-219.745 L 4.12889,-219.976 L 4.67912,-220.278 L 5.18712,-220.647 L 5.64484,-221.077
 L 6.04507,-221.561 L 6.38153,-222.091 L 6.64888,-222.659 L 6.84291,-223.257 L 6.96057,-223.873 L 7,-224.5
 L 7,-243.5 L 6.96057,-244.127 L 6.84291,-244.743 L 6.64888,-245.341 L 6.38153,-245.909 L 6.04507,-246.439
 L 5.64484,-246.923 L 5.18712,-247.353 L 4.67912,-247.722 L 4.12889,-248.024 L 3.54507,-248.255 L 2.9369,-248.411
 L 2.31395,-248.49 L -2.31395,-248.49 L -2.9369,-248.411 L -3.54507,-248.255 L -4.12889,-248.024 L -4.67912,-247.722
 L -5.18712,-247.353 L -5.64484,-246.923 L -6.04507,-246.439 L -6.38153,-245.909 L -6.64888,-245.341 L -6.84291,-244.743
 L -6.96057,-244.127 L -7,-243.5 L -7,-224.5 L -6.96057,-223.873 L -6.84291,-223.257 L -6.64888,-222.659
 L -6.38153,-222.091 L -6.04507,-221.561 L -5.64484,-221.077 L -5.18712,-220.647 L -4.67912,-220.278 L -4.12889,-219.976
 L -3.54507,-219.745 L -2.9369,-219.589 L -2.31395,-219.51 L 2.31395,-219.51 z
M -2.04825,-220.009 L -2.64006,-220.084 L -3.21782,-220.232 L -3.77245,-220.452 L -4.29517,-220.739 L -4.77776,-221.09
 L -5.2126,-221.498 L -5.59282,-221.958 L -5.91245,-222.462 L -6.16643,-223.001 L -6.35077,-223.569 L -6.46254,-224.155
 L -6.5,-224.75 L -6.5,-243.25 L -6.46254,-243.845 L -6.35077,-244.431 L -6.16643,-244.999 L -5.91245,-245.538
 L -5.59282,-246.042 L -5.2126,-246.502 L -4.77776,-246.91 L -4.29517,-247.261 L -3.77245,-247.548 L -3.21782,-247.768
 L -2.64006,-247.916 L -2.04825,-247.991 L 2.04825,-247.991 L 2.64006,-247.916 L 3.21782,-247.768 L 3.77245,-247.548
 L 4.29517,-247.261 L 4.77776,-246.91 L 5.2126,-246.502 L 5.59282,-246.042 L 5.91245,-245.538 L 6.16643,-244.999
 L 6.35077,-244.431 L 6.46254,-243.845 L 6.5,-243.25 L 6.5,-224.75 L 6.46254,-224.155 L 6.35077,-223.569
 L 6.16643,-223.001 L 5.91245,-222.462 L 5.59282,-221.958 L 5.2126,-221.498 L 4.77776,-221.09 L 4.29517,-220.739
 L 3.77245,-220.452 L 3.21782,-220.232 L 2.64006,-220.084 L 2.04825,-220.009 z
M 2.9369,-180.589 L 3.54507,-180.745 L 4.12889,-180.976 L 4.67912,-181.278 L 5.18712,-181.647 L 5.64484,-182.077
 L 6.04507,-182.561 L 6.38153,-183.091 L 6.64888,-183.659 L 6.84291,-184.257 L 6.96057,-184.873 L 7,-185.5
 L 7,-204.5 L 6.96057,-205.127 L 6.84291,-205.743 L 6.64888,-206.341 L 6.38153,-206.909 L 6.04507,-207.439
 L 5.64484,-207.923 L 5.18712,-208.353 L 4.67912,-208.722 L 4.12889,-209.024 L 3.54507,-209.255 L 2.9369,-209.411
 L 2.31395,-209.49 L -2.31395,-209.49 L -2.9369,-209.411 L -3.54507,-209.255 L -4.12889,-209.024 L -4.67912,-208.722
 L -5.18712,-208.353 L -5.64484,-207.923 L -6.04507,-207.439 L -6.38153,-206.909 L -6.64888,-206.341 L -6.84291,-205.743
 L -6.96057,-205.127 L -7,-204.5 L -7,-185.5 L -6.96057,-184.873 L -6.84291,-184.257 L -6.64888,-183.659
 L -6.38153,-183.091 L -6.04507,-182.561 L -5.64484,-182.077 L -5.18712,-181.647 L -4.67912,-181.278 L -4.12889,-180.976
 L -3.54507,-180.745 L -2.9369,-180.589 L -2.31395,-180.51 L 2.31395,-180.51 z
M -1.99297,-181.888 L -2.47505,-181.949 L -2.94572,-182.07 L -3.39754,-182.249 L -3.82336,-182.483 L -4.21649,-182.769
 L -4.57071,-183.101 L -4.88046,-183.476 L -5.14084,-183.886 L -5.34773,-184.326 L -5.49789,-184.788 L -5.58896,-185.265
 L -5.61946,-185.75 L -5.61946,-204.25 L -5.58896,-204.735 L -5.49789,-205.212 L -5.34773,-205.674 L -5.14084,-206.114
 L -4.88046,-206.524 L -4.57071,-206.899 L -4.21649,-207.231 L -3.82336,-207.517 L -3.39754,-207.751 L -2.94572,-207.93
 L -2.47505,-208.051 L -1.99297,-208.112 L 1.99297,-208.112 L 2.47505,-208.051 L 2.94572,-207.93 L 3.39754,-207.751
 L 3.82336,-207.517 L 4.21649,-207.231 L 4.57071,-206.899 L 4.88046,-206.524 L 5.14084,-206.114 L 5.34773,-205.674
 L 5.49789,-205.212 L 5.58896,-204.735 L 5.61946,-204.25 L 5.61946,-185.75 L 5.58896,-185.265 L 5.49789,-184.788
 L 5.34773,-184.326 L 5.14084,-183.886 L 4.88046,-183.476 L 4.57071,-183.101 L 4.21649,-182.769 L 3.82336,-182.483
 L 3.39754,-182.249 L 2.94572,-182.07 L 2.47505,-181.949 L 1.99297,-181.888 z
M 2.9369,-141.589 L 3.54507,-141.745 L 4.12889,-141.976 L 4.67912,-142.278 L 5.18712,-142.647 L 5.64484,-143.077
 L 6.04507,-143.561 L 6.38153,-144.091 L 6.64888,-144.659 L 6.84291,-145.257 L 6.96057,-145.873 L 7,-146.5
 L 7,-165.5 L 6.96057,-166.127 L 6.84291,-166.743 L 6.64888,-167.341 L 6.38153,-167.909 L 6.04507,-168.439
 L 5.64484,-168.923 L 5.18712,-169.353 L 4.67912,-169.722 L 4.12889,-170.024 L 3.54507,-170.255 L 2.9369,-170.411
 L 2.31395,-170.49 L -2.31395,-170.49 L -2.9369,-170.411 L -3.54507,-170.255 L -4.12889,-170.024 L -4.67912,-169.722
 L -5.18712,-169.353 L -5.64484,-168.923 L -6.04507,-168.439 L -6.38153,-167.909 L -6.64888,-167.341 L -6.84291,-166.743
 L -6.96057,-166.127 L -7,-165.5 L -7,-146.5 L -6.96057,-145.873 L -6.84291,-145.257 L -6.64888,-144.659
 L -6.38153,-144.091 L -6.04507,-143.561 L -5.64484,-143.077 L -5.18712,-142.647 L -4.67912,-142.278 L -4.12889,-141.976
 L -3.54507,-141.745 L -2.9369,-141.589 L -2.31395,-141.51 L 2.31395,-141.51 z
M -0.0941772,-162.003 L -0.281067,-162.027 L -0.463516,-162.073 L -0.638657,-162.143 L -0.803726,-162.234 L -0.956131,-162.344
 L -1.09344,-162.473 L -1.21352,-162.618 L -1.31445,-162.777 L -1.39465,-162.948 L -1.45287,-163.127 L -1.48816,-163.312
 L -1.5,-163.5 L -1.48816,-163.688 L -1.45287,-163.873 L -1.39465,-164.052 L -1.31445,-164.223 L -1.21352,-164.382
 L -1.09344,-164.527 L -0.956131,-164.656 L -0.803726,-164.766 L -0.638657,-164.857 L -0.463516,-164.927 L -0.281067,-164.973
 L -0.0941772,-164.997 L 0.0941772,-164.997 L 0.281067,-164.973 L 0.463516,-164.927 L 0.638657,-164.857 L 0.803726,-164.766
 L 0.956131,-164.656 L 1.09344,-164.527 L 1.21352,-164.382 L 1.31445,-164.223 L 1.39465,-164.052 L 1.45287,-163.873
 L 1.48816,-163.688 L 1.5,-163.5 L 1.48816,-163.312 L 1.45287,-163.127 L 1.39465,-162.948 L 1.31445,-162.777
 L 1.21352,-162.618 L 1.09344,-162.473 L 0.956131,-162.344 L 0.803726,-162.234 L 0.638657,-162.143 L 0.463516,-162.073
 L 0.281067,-162.027 L 0.0941772,-162.003 z
M -0.0941772,-147.003 L -0.281067,-147.027 L -0.463516,-147.073 L -0.638657,-147.143 L -0.803726,-147.234 L -0.956131,-147.344
 L -1.09344,-147.473 L -1.21352,-147.618 L -1.31445,-147.777 L -1.39465,-147.948 L -1.45287,-148.127 L -1.48816,-148.312
 L -1.5,-148.5 L -1.48816,-148.688 L -1.45287,-148.873 L -1.39465,-149.052 L -1.31445,-149.223 L -1.21352,-149.382
 L -1.09344,-149.527 L -0.956131,-149.656 L -0.803726,-149.766 L -0.638657,-149.857 L -0.463516,-149.927 L -0.281067,-149.973
 L -0.0941772,-149.997 L 0.0941772,-149.997 L 0.281067,-149.973 L 0.463516,-149.927 L 0.638657,-149.857 L 0.803726,-149.766
 L 0.956131,-149.656 L 1.09344,-149.527 L 1.21352,-149.382 L 1.31445,-149.223 L 1.39465,-149.052 L 1.45287,-148.873
 L 1.48816,-148.688 L 1.5,-148.5 L 1.48816,-148.312 L 1.45287,-148.127 L 1.39465,-147.948 L 1.31445,-147.777
 L 1.21352,-147.618 L 1.09344,-147.473 L 0.956131,-147.344 L 0.803726,-147.234 L 0.638657,-147.143 L 0.463516,-147.073
 L 0.281067,-147.027 L 0.0941772,-147.003 z
" stroke="black" fill="lightgray" stroke-width="0.5"/>
</svg>
