<?xml version="1.0" standalone="no"?>
<!DOCTYPE svg PUBLIC "-//W3C//DTD SVG 1.1//EN" "http://www.w3.org/Graphics/SVG/1.1/DTD/svg11.dtd">
<svg width="74mm" height="93mm" viewBox="-37 -93 74 93" xmlns="http://www.w3.org/2000/svg" version="1.1">
<title>OpenSCAD Model</title>
<path d="
M 37,-87.5 L 36.9606,-88.1267 L 36.8429,-88.7434 L 36.6489,-89.3406 L 36.3815,-89.9088 L 36.0451,-90.4389
 L 35.6448,-90.9227 L 35.1871,-91.3526 L 34.6791,-91.7216 L 34.1289,-92.0241 L 33.5451,-92.2553 L 32.9369,-92.4114
 L 32.3139,-92.4901 L -32.3139,-92.4901 L -32.9369,-92.4114 L -33.5451,-92.2553 L -34.1289,-92.0241 L -34.6791,-91.7216
 L -35.1871,-91.3526 L -35.6448,-90.9227 L -36.0451,-90.4389 L -36.3815,-89.9088 L -36.6489,-89.3406 L -36.8429,-88.7434
 L -36.9606,-88.1267 L -37,-87.5 L -37,-72 L 37,-72 z
M -10.2483,-83.9133 L -10.2483,-87.0867 L -7.49998,-88.6735 L -4.75166,-87.0867 L -4.75166,-83.9133 L -7.5,-82.3265
 z
M 29.8116,-82.5059 L 29.4379,-82.5531 L 29.0729,-82.6468 L 28.7227,-82.7855 L 28.3925,-82.967 L 28.0877,-83.1884
 L 27.8131,-83.4464 L 27.5729,-83.7366 L 27.3711,-84.0547 L 27.2107,-84.3956 L 27.0942,-84.7539 L 27.0237,-85.124
 L 27,-85.5 L 27.0237,-85.876 L 27.0942,-86.2461 L 27.2107,-86.6044 L 27.3711,-86.9453 L 27.5729,-87.2634
 L 27.8131,-87.5536 L 28.0877,-87.8115 L 28.3925,-88.033 L 28.7227,-88.2145 L 29.0729,-88.3532 L 29.4379,-88.4469
 L 29.8116,-88.4941 L 30.1884,-88.4941 L 30.5621,-88.4469 L 30.927,-88.3532 L 31.2773,-88.2145 L 31.6075,-88.033
 L 31.9123,-87.8115 L 32.1869,-87.5536 L 32.427,-87.2634 L 32.6289,-86.9453 L 32.7893,-86.6044 L 32.9057,-86.2461
 L 32.9763,-85.876 L 33,-85.5 L 32.9763,-85.124 L 32.9057,-84.7539 L 32.7893,-84.3956 L 32.6289,-84.0547
 L 32.427,-83.7366 L 32.1869,-83.4464 L 31.9123,-83.1884 L 31.6075,-82.967 L 31.2773,-82.7855 L 30.927,-82.6468
 L 30.5621,-82.5531 L 30.1884,-82.5059 z
M -30.1884,-82.5059 L -30.5621,-82.5531 L -30.927,-82.6468 L -31.2773,-82.7855 L -31.6075,-82.967 L -31.9123,-83.1884
 L -32.1869,-83.4464 L -32.427,-83.7366 L -32.6289,-84.0547 L -32.7893,-84.3956 L -32.9057,-84.7539 L -32.9763,-85.124
 L -33,-85.5 L -32.9763,-85.876 L -32.9057,-86.2461 L -32.7893,-86.6044 L -32.6289,-86.9453 L -32.427,-87.2634
 L -32.1869,-87.5536 L -31.9123,-87.8115 L -31.6075,-88.033 L -31.2773,-88.2145 L -30.927,-88.3532 L -30.5621,-88.4469
 L -30.1884,-88.4941 L -29.8116,-88.4941 L -29.4379,-88.4469 L -29.0729,-88.3532 L -28.7227,-88.2145 L -28.3925,-88.033
 L -28.0877,-87.8115 L -27.8131,-87.5536 L -27.5729,-87.2634 L -27.3711,-86.9453 L -27.2107,-86.6044 L -27.0942,-86.2461
 L -27.0237,-85.876 L -27,-85.5 L -27.0237,-85.124 L -27.0942,-84.7539 L -27.2107,-84.3956 L -27.3711,-84.0547
 L -27.5729,-83.7366 L -27.8131,-83.4464 L -28.0877,-83.1884 L -28.3925,-82.967 L -28.7227,-82.7855 L -29.0729,-82.6468
 L -29.4379,-82.5531 L -29.8116,-82.5059 z
M -0.18837,-82.5059 L -0.562134,-82.5531 L -0.927048,-82.6468 L -1.27733,-82.7855 L -1.60747,-82.967 L -1.91226,-83.1884
 L -2.1869,-83.4464 L -2.42705,-83.7366 L -2.62891,-84.0547 L -2.78932,-84.3956 L -2.90575,-84.7539 L -2.97633,-85.124
 L -3,-85.5 L -2.97633,-85.876 L -2.90575,-86.2461 L -2.78932,-86.6044 L -2.62891,-86.9453 L -2.42705,-87.2634
 L -2.1869,-87.5536 L -1.91226,-87.8115 L -1.60747,-88.033 L -1.27733,-88.2145 L -0.927048,-88.3532 L -0.562134,-88.4469
 L -0.18837,-88.4941 L 0.18837,-88.4941 L 0.562134,-88.4469 L 0.927048,-88.3532 L 1.27733,-88.2145 L 1.60747,-88.033
 L 1.91226,-87.8115 L 2.1869,-87.5536 L 2.42705,-87.2634 L 2.62891,-86.9453 L 2.78932,-86.6044 L 2.90575,-86.2461
 L 2.97633,-85.876 L 3,-85.5 L 2.97633,-85.124 L 2.90575,-84.7539 L 2.78932,-84.3956 L 2.62891,-84.0547
 L 2.42705,-83.7366 L 2.1869,-83.4464 L 1.91226,-83.1884 L 1.60747,-82.967 L 1.27733,-82.7855 L 0.927048,-82.6468
 L 0.562134,-82.5531 L 0.18837,-82.5059 z
M -15.1884,-82.5059 L -15.5621,-82.5531 L -15.927,-82.6468 L -16.2773,-82.7855 L -16.6075,-82.967 L -16.9123,-83.1884
 L -17.1869,-83.4464 L -17.427,-83.7366 L -17.6289,-84.0547 L -17.7893,-84.3956 L -17.9057,-84.7539 L -17.9763,-85.124
 L -18,-85.5 L -17.9763,-85.876 L -17.9057,-86.2461 L -17.7893,-86.6044 L -17.6289,-86.9453 L -17.427,-87.2634
 L -17.1869,-87.5536 L -16.9123,-87.8115 L -16.6075,-88.033 L -16.2773,-88.2145 L -15.927,-88.3532 L -15.5621,-88.4469
 L -15.1884,-88.4941 L -14.8116,-88.4941 L -14.4379,-88.4469 L -14.0729,-88.3532 L -13.7227,-88.2145 L -13.3925,-88.033
 L -13.0877,-87.8115 L -12.8131,-87.5536 L -12.5729,-87.2634 L -12.3711,-86.9453 L -12.2107,-86.6044 L -12.0942,-86.2461
 L -12.0237,-85.876 L -12,-85.5 L -12.0237,-85.124 L -12.0942,-84.7539 L -12.2107,-84.3956 L -12.3711,-84.0547
 L -12.5729,-83.7366 L -12.8131,-83.4464 L -13.0877,-83.1884 L -13.3925,-82.967 L -13.7227,-82.7855 L -14.0729,-82.6468
 L -14.4379,-82.5531 L -14.8116,-82.5059 z
M 14.8116,-82.5059 L 14.4379,-82.5531 L 14.0729,-82.6468 L 13.7227,-82.7855 L 13.3925,-82.967 L 13.0877,-83.1884
 L 12.8131,-83.4464 L 12.5729,-83.7366 L 12.3711,-84.0547 L 12.2107,-84.3956 L 12.0942,-84.7539 L 12.0237,-85.124
 L 12,-85.5 L 12.0237,-85.876 L 12.0942,-86.2461 L 12.2107,-86.6044 L 12.3711,-86.9453 L 12.5729,-87.2634
 L 12.8131,-87.5536 L 13.0877,-87.8115 L 13.3925,-88.033 L 13.7227,-88.2145 L 14.0729,-88.3532 L 14.4379,-88.4469
 L 14.8116,-88.4941 L 15.1884,-88.4941 L 15.5621,-88.4469 L 15.927,-88.3532 L 16.2773,-88.2145 L 16.6075,-88.033
 L 16.9123,-87.8115 L 17.1869,-87.5536 L 17.427,-87.2634 L 17.6289,-86.9453 L 17.7893,-86.6044 L 17.9057,-86.2461
 L 17.9763,-85.876 L 18,-85.5 L 17.9763,-85.124 L 17.9057,-84.7539 L 17.7893,-84.3956 L 17.6289,-84.0547
 L 17.427,-83.7366 L 17.1869,-83.4464 L 16.9123,-83.1884 L 16.6075,-82.967 L 16.2773,-82.7855 L 15.927,-82.6468
 L 15.5621,-82.5531 L 15.1884,-82.5059 z
M -22.6045,-83.8386 L -22.8119,-83.8648 L -23.0144,-83.9168 L -23.2088,-83.9937 L -23.392,-84.0944 L -23.5611,-84.2173
 L -23.7135,-84.3604 L -23.8468,-84.5215 L -23.9588,-84.698 L -24.0478,-84.8872 L -24.1124,-85.086 L -24.1516,-85.2914
 L -24.1647,-85.5 L -24.1516,-85.7086 L -24.1124,-85.914 L -24.0478,-86.1128 L -23.9588,-86.302 L -23.8468,-86.4785
 L -23.7135,-86.6396 L -23.5611,-86.7827 L -23.392,-86.9055 L -23.2088,-87.0063 L -23.0144,-87.0832 L -22.8119,-87.1352
 L -22.6045,-87.1614 L -22.3955,-87.1614 L -22.1881,-87.1352 L -21.9856,-87.0832 L -21.7912,-87.0063 L -21.608,-86.9055
 L -21.4389,-86.7827 L -21.2865,-86.6396 L -21.1532,-86.4785 L -21.0412,-86.302 L -20.9522,-86.1128 L -20.8876,-85.914
 L -20.8484,-85.7086 L -20.8353,-85.5 L -20.8484,-85.2914 L -20.8876,-85.086 L -20.9522,-84.8872 L -21.0412,-84.698
 L -21.1532,-84.5215 L -21.2865,-84.3604 L -21.4389,-84.2173 L -21.608,-84.0944 L -21.7912,-83.9937 L -21.9856,-83.9168
 L -22.1881,-83.8648 L -22.3955,-83.8386 z
M 7.39546,-83.8386 L 7.18806,-83.8648 L 6.98557,-83.9168 L 6.7912,-83.9937 L 6.608,-84.0944 L 6.43887,-84.2173
 L 6.28647,-84.3604 L 6.15321,-84.5215 L 6.0412,-84.698 L 5.95219,-84.8872 L 5.88759,-85.086 L 5.84842,-85.2914
 L 5.83528,-85.5 L 5.84842,-85.7086 L 5.88759,-85.914 L 5.95219,-86.1128 L 6.0412,-86.302 L 6.15321,-86.4785
 L 6.28647,-86.6396 L 6.43887,-86.7827 L 6.608,-86.9055 L 6.7912,-87.0063 L 6.98557,-87.0832 L 7.18806,-87.1352
 L 7.39546,-87.1614 L 7.60452,-87.1614 L 7.81192,-87.1352 L 8.01442,-87.0832 L 8.20879,-87.0063 L 8.39198,-86.9055
 L 8.56111,-86.7827 L 8.71352,-86.6396 L 8.84677,-86.4785 L 8.95879,-86.302 L 9.04779,-86.1128 L 9.1124,-85.914
 L 9.15157,-85.7086 L 9.1647,-85.5 L 9.15157,-85.2914 L 9.1124,-85.086 L 9.04779,-84.8872 L 8.95879,-84.698
 L 8.84677,-84.5215 L 8.71352,-84.3604 L 8.56111,-84.2173 L 8.39198,-84.0944 L 8.20879,-83.9937 L 8.01442,-83.9168
 L 7.81192,-83.8648 L 7.60452,-83.8386 z
M -18.5142,-75.6 L -18.5142,-81 L -11.4858,-81 L -11.4858,-75.6 z
M 26.4858,-75.6 L 26.4858,-81 L 33.5142,-81 L 33.5142,-75.6 z
M -3.51418,-75.6 L -3.51418,-81 L 3.51418,-81 L 3.51418,-75.6 z
M 11.4858,-75.6 L 11.4858,-81 L 18.5142,-81 L 18.5142,-75.6 z
M -33.5142,-75.6 L -33.5142,-81 L -26.4858,-81 L -26.4858,-75.6 z
M -32.5307,-51.6 L -35.2462,-51.6 L -35.2462,-57 L -32.5307,-57 L -32.5307,-59.9 L -32.6289,-60.0547
 L -32.7893,-60.3956 L -32.9057,-60.7539 L -32.9763,-61.124 L -33,-61.5 L -32.9763,-61.876 L -32.9057,-62.2461
 L -32.7893,-62.6044 L -32.6289,-62.9453 L -32.427,-63.2634 L -32.1869,-63.5536 L -31.9123,-63.8115 L -31.6075,-64.033
 L -31.2773,-64.2145 L -30.927,-64.3532 L -30.5621,-64.4469 L -30.1884,-64.4941 L -29.8116,-64.4941 L -29.4379,-64.4469
 L -29.0729,-64.3532 L -28.7227,-64.2145 L -28.3925,-64.033 L -28.0877,-63.8115 L -27.8131,-63.5536 L -27.5729,-63.2634
 L -27.3711,-62.9453 L -27.2107,-62.6044 L -27.0942,-62.2461 L -27.0237,-61.876 L -27,-61.5 L -27.0237,-61.124
 L -27.0942,-60.7539 L -27.2107,-60.3956 L -27.3711,-60.0547 L -27.4693,-59.9 L -27.4693,-57 L -24.7538,-57
 L -24.7538,-51.6 L -27.4693,-51.6 L -27.4693,-48 L -17.5307,-48 L -17.5307,-51.6 L -20.2462,-51.6
 L -20.2462,-57 L -17.5307,-57 L -17.5307,-59.9 L -17.6289,-60.0547 L -17.7893,-60.3956 L -17.9057,-60.7539
 L -17.9763,-61.124 L -18,-61.5 L -17.9763,-61.876 L -17.9057,-62.2461 L -17.7893,-62.6044 L -17.6289,-62.9453
 L -17.427,-63.2634 L -17.1869,-63.5536 L -16.9123,-63.8115 L -16.6075,-64.033 L -16.2773,-64.2145 L -15.927,-64.3532
 L -15.5621,-64.4469 L -15.1884,-64.4941 L -14.8116,-64.4941 L -14.4379,-64.4469 L -14.0729,-64.3532 L -13.7227,-64.2145
 L -13.3925,-64.033 L -13.0877,-63.8115 L -12.8131,-63.5536 L -12.5729,-63.2634 L -12.3711,-62.9453 L -12.2107,-62.6044
 L -12.0942,-62.2461 L -12.0237,-61.876 L -12,-61.5 L -12.0237,-61.124 L -12.0942,-60.7539 L -12.2107,-60.3956
 L -12.3711,-60.0547 L -12.4693,-59.9 L -12.4693,-57 L -9.75375,-57 L -9.75375,-51.6 L -12.4693,-51.6
 L -12.4693,-48 L -2.53072,-48 L -2.53072,-51.6 L -5.24623,-51.6 L -5.24623,-57 L -2.53072,-57
 L -2.53072,-59.9 L -2.62891,-60.0547 L -2.78932,-60.3956 L -2.90575,-60.7539 L -2.97633,-61.124 L -3,-61.5
 L -2.97633,-61.876 L -2.90575,-62.2461 L -2.78932,-62.6044 L -2.62891,-62.9453 L -2.42705,-63.2634 L -2.1869,-63.5536
 L -1.91226,-63.8115 L -1.60747,-64.033 L -1.27733,-64.2145 L -0.927048,-64.3532 L -0.562134,-64.4469 L -0.18837,-64.4941
 L 0.18837,-64.4941 L 0.562134,-64.4469 L 0.927048,-64.3532 L 1.27733,-64.2145 L 1.60747,-64.033 L 1.91226,-63.8115
 L 2.1869,-63.5536 L 2.42705,-63.2634 L 2.62891,-62.9453 L 2.78932,-62.6044 L 2.90575,-62.2461 L 2.97633,-61.876
 L 3,-61.5 L 2.97633,-61.124 L 2.90575,-60.7539 L 2.78932,-60.3956 L 2.62891,-60.0547 L 2.53072,-59.9
 L 2.53072,-57 L 5.24623,-57 L 5.24623,-51.6 L 2.53072,-51.6 L 2.53072,-48 L 12.4693,-48
 L 12.4693,-51.6 L 9.75375,-51.6 L 9.75375,-57 L 12.4693,-57 L 12.4693,-59.9 L 12.3711,-60.0547
 L 12.2107,-60.3956 L 12.0942,-60.7539 L 12.0237,-61.124 L 12,-61.5 L 12.0237,-61.876 L 12.0942,-62.2461
 L 12.2107,-62.6044 L 12.3711,-62.9453 L 12.5729,-63.2634 L 12.8131,-63.5536 L 13.0877,-63.8115 L 13.3925,-64.033
 L 13.7227,-64.2145 L 14.0729,-64.3532 L 14.4379,-64.4469 L 14.8116,-64.4941 L 15.1884,-64.4941 L 15.5621,-64.4469
 L 15.927,-64.3532 L 16.2773,-64.2145 L 16.6075,-64.033 L 16.9123,-63.8115 L 17.1869,-63.5536 L 17.427,-63.2634
 L 17.6289,-62.9453 L 17.7893,-62.6044 L 17.9057,-62.2461 L 17.9763,-61.876 L 18,-61.5 L 17.9763,-61.124
 L 17.9057,-60.7539 L 17.7893,-60.3956 L 17.6289,-60.0547 L 17.5307,-59.9 L 17.5307,-57 L 20.2462,-57
 L 20.2462,-51.6 L 17.5307,-51.6 L 17.5307,-48 L 27.4693,-48 L 27.4693,-51.6 L 24.7538,-51.6
 L 24.7538,-57 L 27.4693,-57 L 27.4693,-59.9 L 27.3711,-60.0547 L 27.2107,-60.3956 L 27.0942,-60.7539
 L 27.0237,-61.124 L 27,-61.5 L 27.0237,-61.876 L 27.0942,-62.2461 L 27.2107,-62.6044 L 27.3711,-62.9453
 L 27.5729,-63.2634 L 27.8131,-63.5536 L 28.0877,-63.8115 L 28.3925,-64.033 L 28.7227,-64.2145 L 29.0729,-64.3532
 L 29.4379,-64.4469 L 29.8116,-64.4941 L 30.1884,-64.4941 L 30.5621,-64.4469 L 30.927,-64.3532 L 31.2773,-64.2145
 L 31.6075,-64.033 L 31.9123,-63.8115 L 32.1869,-63.5536 L 32.427,-63.2634 L 32.6289,-62.9453 L 32.7893,-62.6044
 L 32.9057,-62.2461 L 32.9763,-61.876 L 33,-61.5 L 32.9763,-61.124 L 32.9057,-60.7539 L 32.7893,-60.3956
 L 32.6289,-60.0547 L 32.5307,-59.9 L 32.5307,-57 L 35.2462,-57 L 35.2462,-51.6 L 32.5307,-51.6
 L 32.5307,-48 L 37,-48 L 37,-63.5 L 36.9606,-64.1267 L 36.8429,-64.7434 L 36.6489,-65.3406
 L 36.3815,-65.9088 L 36.0451,-66.4389 L 35.6448,-66.9227 L 35.1871,-67.3526 L 34.6791,-67.7216 L 34.1289,-68.0241
 L 33.5451,-68.2553 L 32.9369,-68.4114 L 32.3139,-68.4901 L -32.3139,-68.4901 L -32.9369,-68.4114 L -33.5451,-68.2553
 L -34.1289,-68.0241 L -34.6791,-67.7216 L -35.1871,-67.3526 L -35.6448,-66.9227 L -36.0451,-66.4389 L -36.3815,-65.9088
 L -36.6489,-65.3406 L -36.8429,-64.7434 L -36.9606,-64.1267 L -37,-63.5 L -37,-48 L -32.5307,-48
 z
M -22.5942,-60.0029 L -22.7811,-60.0266 L -22.9635,-60.0734 L -23.1387,-60.1427 L -23.3037,-60.2335 L -23.4561,-60.3442
 L -23.5934,-60.4732 L -23.7135,-60.6183 L -23.8145,-60.7774 L -23.8947,-60.9478 L -23.9529,-61.127 L -23.9882,-61.312
 L -24,-61.5 L -23.9882,-61.688 L -23.9529,-61.873 L -23.8947,-62.0522 L -23.8145,-62.2226 L -23.7135,-62.3817
 L -23.5934,-62.5268 L -23.4561,-62.6558 L -23.3037,-62.7665 L -23.1387,-62.8572 L -22.9635,-62.9266 L -22.7811,-62.9734
 L -22.5942,-62.997 L -22.4058,-62.997 L -22.2189,-62.9734 L -22.0365,-62.9266 L -21.8613,-62.8572 L -21.6963,-62.7665
 L -21.5439,-62.6558 L -21.4065,-62.5268 L -21.2865,-62.3817 L -21.1855,-62.2226 L -21.1053,-62.0522 L -21.0471,-61.873
 L -21.0118,-61.688 L -21,-61.5 L -21.0118,-61.312 L -21.0471,-61.127 L -21.1053,-60.9478 L -21.1855,-60.7774
 L -21.2865,-60.6183 L -21.4065,-60.4732 L -21.5439,-60.3442 L -21.6963,-60.2335 L -21.8613,-60.1427 L -22.0365,-60.0734
 L -22.2189,-60.0266 L -22.4058,-60.0029 z
M -7.59418,-60.0029 L -7.78107,-60.0266 L -7.96352,-60.0734 L -8.13866,-60.1427 L -8.30373,-60.2335 L -8.45613,-60.3442
 L -8.59344,-60.4732 L -8.71352,-60.6183 L -8.81445,-60.7774 L -8.89465,-60.9478 L -8.95287,-61.127 L -8.98816,-61.312
 L -9,-61.5 L -8.98816,-61.688 L -8.95287,-61.873 L -8.89465,-62.0522 L -8.81445,-62.2226 L -8.71352,-62.3817
 L -8.59344,-62.5268 L -8.45613,-62.6558 L -8.30373,-62.7665 L -8.13866,-62.8572 L -7.96352,-62.9266 L -7.78107,-62.9734
 L -7.59418,-62.997 L -7.40581,-62.997 L -7.21892,-62.9734 L -7.03647,-62.9266 L -6.86133,-62.8572 L -6.69626,-62.7665
 L -6.54385,-62.6558 L -6.40654,-62.5268 L -6.28647,-62.3817 L -6.18553,-62.2226 L -6.10533,-62.0522 L -6.04712,-61.873
 L -6.01183,-61.688 L -6,-61.5 L -6.01183,-61.312 L -6.04712,-61.127 L -6.10533,-60.9478 L -6.18553,-60.7774
 L -6.28647,-60.6183 L -6.40654,-60.4732 L -6.54385,-60.3442 L -6.69626,-60.2335 L -6.86133,-60.1427 L -7.03647,-60.0734
 L -7.21892,-60.0266 L -7.40581,-60.0029 z
M 7.40581,-60.0029 L 7.21892,-60.0266 L 7.03647,-60.0734 L 6.86133,-60.1427 L 6.69626,-60.2335 L 6.54385,-60.3442
 L 6.40654,-60.4732 L 6.28647,-60.6183 L 6.18553,-60.7774 L 6.10533,-60.9478 L 6.04712,-61.127 L 6.01183,-61.312
 L 6,-61.5 L 6.01183,-61.688 L 6.04712,-61.873 L 6.10533,-62.0522 L 6.18553,-62.2226 L 6.28647,-62.3817
 L 6.40654,-62.5268 L 6.54385,-62.6558 L 6.69626,-62.7665 L 6.86133,-62.8572 L 7.03647,-62.9266 L 7.21892,-62.9734
 L 7.40581,-62.997 L 7.59418,-62.997 L 7.78107,-62.9734 L 7.96352,-62.9266 L 8.13866,-62.8572 L 8.30373,-62.7665
 L 8.45613,-62.6558 L 8.59344,-62.5268 L 8.71352,-62.3817 L 8.81445,-62.2226 L 8.89465,-62.0522 L 8.95287,-61.873
 L 8.98816,-61.688 L 9,-61.5 L 8.98816,-61.312 L 8.95287,-61.127 L 8.89465,-60.9478 L 8.81445,-60.7774
 L 8.71352,-60.6183 L 8.59344,-60.4732 L 8.45613,-60.3442 L 8.30373,-60.2335 L 8.13866,-60.1427 L 7.96352,-60.0734
 L 7.78107,-60.0266 L 7.59418,-60.0029 z
M -32.5942,-27.6 L -35.304,-27.6 L -35.304,-33 L -32.5942,-33 L -32.5942,-36 L -32.6289,-36.0547
 L -32.7893,-36.3956 L -32.9057,-36.7539 L -32.9763,-37.124 L -33,-37.5 L -32.9763,-37.876 L -32.9057,-38.2461
 L -32.7893,-38.6044 L -32.6289,-38.9453 L -32.427,-39.2634 L -32.1869,-39.5536 L -31.9123,-39.8115 L -31.6075,-40.033
 L -31.2773,-40.2145 L -30.927,-40.3532 L -30.5621,-40.4469 L -30.1884,-40.4941 L -29.8116,-40.4941 L -29.4379,-40.4469
 L -29.0729,-40.3532 L -28.7227,-40.2145 L -28.3925,-40.033 L -28.0877,-39.8115 L -27.8131,-39.5536 L -27.5729,-39.2634
 L -27.3711,-38.9453 L -27.2107,-38.6044 L -27.0942,-38.2461 L -27.0237,-37.876 L -27,-37.5 L -27.0237,-37.124
 L -27.0942,-36.7539 L -27.2107,-36.3956 L -27.3711,-36.0547 L -27.4058,-36 L -27.4058,-33 L -24.696,-33
 L -24.696,-27.6 L -27.4058,-27.6 L -27.4058,-24 L -17.5942,-24 L -17.5942,-27.6 L -20.304,-27.6
 L -20.304,-33 L -17.5942,-33 L -17.5942,-36 L -17.6289,-36.0547 L -17.7893,-36.3956 L -17.9057,-36.7539
 L -17.9763,-37.124 L -18,-37.5 L -17.9763,-37.876 L -17.9057,-38.2461 L -17.7893,-38.6044 L -17.6289,-38.9453
 L -17.427,-39.2634 L -17.1869,-39.5536 L -16.9123,-39.8115 L -16.6075,-40.033 L -16.2773,-40.2145 L -15.927,-40.3532
 L -15.5621,-40.4469 L -15.1884,-40.4941 L -14.8116,-40.4941 L -14.4379,-40.4469 L -14.0729,-40.3532 L -13.7227,-40.2145
 L -13.3925,-40.033 L -13.0877,-39.8115 L -12.8131,-39.5536 L -12.5729,-39.2634 L -12.3711,-38.9453 L -12.2107,-38.6044
 L -12.0942,-38.2461 L -12.0237,-37.876 L -12,-37.5 L -12.0237,-37.124 L -12.0942,-36.7539 L -12.2107,-36.3956
 L -12.3711,-36.0547 L -12.4058,-36 L -12.4058,-33 L -9.69603,-33 L -9.69603,-27.6 L -12.4058,-27.6
 L -12.4058,-24 L -2.59418,-24 L -2.59418,-27.6 L -5.30396,-27.6 L -5.30396,-33 L -2.59418,-33
 L -2.59418,-36 L -2.62891,-36.0547 L -2.78932,-36.3956 L -2.90575,-36.7539 L -2.97633,-37.124 L -3,-37.5
 L -2.97633,-37.876 L -2.90575,-38.2461 L -2.78932,-38.6044 L -2.62891,-38.9453 L -2.42705,-39.2634 L -2.1869,-39.5536
 L -1.91226,-39.8115 L -1.60747,-40.033 L -1.27733,-40.2145 L -0.927048,-40.3532 L -0.562134,-40.4469 L -0.18837,-40.4941
 L 0.18837,-40.4941 L 0.562134,-40.4469 L 0.927048,-40.3532 L 1.27733,-40.2145 L 1.60747,-40.033 L 1.91226,-39.8115
 L 2.1869,-39.5536 L 2.42705,-39.2634 L 2.62891,-38.9453 L 2.78932,-38.6044 L 2.90575,-38.2461 L 2.97633,-37.876
 L 3,-37.5 L 2.97633,-37.124 L 2.90575,-36.7539 L 2.78932,-36.3956 L 2.62891,-36.0547 L 2.59418,-36
 L 2.59418,-33 L 5.30396,-33 L 5.30396,-27.6 L 2.59418,-27.6 L 2.59418,-24 L 12.4058,-24
 L 12.4058,-27.6 L 9.69603,-27.6 L 9.69603,-33 L 12.4058,-33 L 12.4058,-36 L 12.3711,-36.0547
 L 12.2107,-36.3956 L 12.0942,-36.7539 L 12.0237,-37.124 L 12,-37.5 L 12.0237,-37.876 L 12.0942,-38.2461
 L 12.2107,-38.6044 L 12.3711,-38.9453 L 12.5729,-39.2634 L 12.8131,-39.5536 L 13.0877,-39.8115 L 13.3925,-40.033
 L 13.7227,-40.2145 L 14.0729,-40.3532 L 14.4379,-40.4469 L 14.8116,-40.4941 L 15.1884,-40.4941 L 15.5621,-40.4469
 L 15.927,-40.3532 L 16.2773,-40.2145 L 16.6075,-40.033 L 16.9123,-39.8115 L 17.1869,-39.5536 L 17.427,-39.2634
 L 17.6289,-38.9453 L 17.7893,-38.6044 L 17.9057,-38.2461 L 17.9763,-37.876 L 18,-37.5 L 17.9763,-37.124
 L 17.9057,-36.7539 L 17.7893,-36.3956 L 17.6289,-36.0547 L 17.5942,-36 L 17.5942,-33 L 20.304,-33
 L 20.304,-27.6 L 17.5942,-27.6 L 17.5942,-24 L 27.4058,-24 L 27.4058,-27.6 L 24.696,-27.6
 L 24.696,-33 L 27.4058,-33 L 27.4058,-36 L 27.3711,-36.0547 L 27.2107,-36.3956 L 27.0942,-36.7539
 L 27.0237,-37.124 L 27,-37.5 L 27.0237,-37.876 L 27.0942,-38.2461 L 27.2107,-38.6044 L 27.3711,-38.9453
 L 27.5729,-39.2634 L 27.8131,-39.5536 L 28.0877,-39.8115 L 28.3925,-40.033 L 28.7227,-40.2145 L 29.0729,-40.3532
 L 29.4379,-40.4469 L 29.8116,-40.4941 L 30.1884,-40.4941 L 30.5621,-40.4469 L 30.927,-40.3532 L 31.2773,-40.2145
 L 31.6075,-40.033 L 31.9123,-39.8115 L 32.1869,-39.5536 L 32.427,-39.2634 L 32.6289,-38.9453 L 32.7893,-38.6044
 L 32.9057,-38.2461 L 32.9763,-37.876 L 33,-37.5 L 32.9763,-37.124 L 32.9057,-36.7539 L 32.7893,-36.3956
 L 32.6289,-36.0547 L 32.5942,-36 L 32.5942,-33 L 35.304,-33 L 35.304,-27.6 L 32.5942,-27.6
 L 32.5942,-24 L 37,-24 L 37,-39.5 L 36.9606,-40.1267 L 36.8429,-40.7434 L 36.6489,-41.3406
 L 36.3815,-41.9088 L 36.0451,-42.4389 L 35.6448,-42.9227 L 35.1871,-43.3526 L 34.6791,-43.7216 L 34.1289,-44.0241
 L 33.5451,-44.2553 L 32.9369,-44.4114 L 32.3139,-44.4901 L -32.3139,-44.4901 L -32.9369,-44.4114 L -33.5451,-44.2553
 L -34.1289,-44.0241 L -34.6791,-43.7216 L -35.1871,-43.3526 L -35.6448,-42.9227 L -36.0451,-42.4389 L -36.3815,-41.9088
 L -36.6489,-41.3406 L -36.8429,-40.7434 L -36.9606,-40.1267 L -37,-39.5 L -37,-24 L -32.5942,-24
 z
M -22.5942,-36.0029 L -22.7811,-36.0266 L -22.9635,-36.0734 L -23.1387,-36.1427 L -23.3037,-36.2335 L -23.4561,-36.3442
 L -23.5934,-36.4732 L -23.7135,-36.6183 L -23.8145,-36.7774 L -23.8947,-36.9478 L -23.9529,-37.127 L -23.9882,-37.312
 L -24,-37.5 L -23.9882,-37.688 L -23.9529,-37.873 L -23.8947,-38.0522 L -23.8145,-38.2226 L -23.7135,-38.3817
 L -23.5934,-38.5268 L -23.4561,-38.6558 L -23.3037,-38.7665 L -23.1387,-38.8572 L -22.9635,-38.9266 L -22.7811,-38.9734
 L -22.5942,-38.997 L -22.4058,-38.997 L -22.2189,-38.9734 L -22.0365,-38.9266 L -21.8613,-38.8572 L -21.6963,-38.7665
 L -21.5439,-38.6558 L -21.4065,-38.5268 L -21.2865,-38.3817 L -21.1855,-38.2226 L -21.1053,-38.0522 L -21.0471,-37.873
 L -21.0118,-37.688 L -21,-37.5 L -21.0118,-37.312 L -21.0471,-37.127 L -21.1053,-36.9478 L -21.1855,-36.7774
 L -21.2865,-36.6183 L -21.4065,-36.4732 L -21.5439,-36.3442 L -21.6963,-36.2335 L -21.8613,-36.1427 L -22.0365,-36.0734
 L -22.2189,-36.0266 L -22.4058,-36.0029 z
M -7.59418,-36.0029 L -7.78107,-36.0266 L -7.96352,-36.0734 L -8.13866,-36.1427 L -8.30373,-36.2335 L -8.45613,-36.3442
 L -8.59344,-36.4732 L -8.71352,-36.6183 L -8.81445,-36.7774 L -8.89465,-36.9478 L -8.95287,-37.127 L -8.98816,-37.312
 L -9,-37.5 L -8.98816,-37.688 L -8.95287,-37.873 L -8.89465,-38.0522 L -8.81445,-38.2226 L -8.71352,-38.3817
 L -8.59344,-38.5268 L -8.45613,-38.6558 L -8.30373,-38.7665 L -8.13866,-38.8572 L -7.96352,-38.9266 L -7.78107,-38.9734
 L -7.59418,-38.997 L -7.40581,-38.997 L -7.21892,-38.9734 L -7.03647,-38.9266 L -6.86133,-38.8572 L -6.69626,-38.7665
 L -6.54385,-38.6558 L -6.40654,-38.5268 L -6.28647,-38.3817 L -6.18553,-38.2226 L -6.10533,-38.0522 L -6.04712,-37.873
 L -6.01183,-37.688 L -6,-37.5 L -6.01183,-37.312 L -6.04712,-37.127 L -6.10533,-36.9478 L -6.18553,-36.7774
 L -6.28647,-36.6183 L -6.40654,-36.4732 L -6.54385,-36.3442 L -6.69626,-36.2335 L -6.86133,-36.1427 L -7.03647,-36.0734
 L -7.21892,-36.0266 L -7.40581,-36.0029 z
M 7.40581,-36.0029 L 7.21892,-36.0266 L 7.03647,-36.0734 L 6.86133,-36.1427 L 6.69626,-36.2335 L 6.54385,-36.3442
 L 6.40654,-36.4732 L 6.28647,-36.6183 L 6.18553,-36.7774 L 6.10533,-36.9478 L 6.04712,-37.127 L 6.01183,-37.312
 L 6,-37.5 L 6.01183,-37.688 L 6.04712,-37.873 L 6.10533,-38.0522 L 6.18553,-38.2226 L 6.28647,-38.3817
 L 6.40654,-38.5268 L 6.54385,-38.6558 L 6.69626,-38.7665 L 6.86133,-38.8572 L 7.03647,-38.9266 L 7.21892,-38.9734
 L 7.40581,-38.997 L 7.59418,-38.997 L 7.78107,-38.9734 L 7.96352,-38.9266 L 8.13866,-38.8572 L 8.30373,-38.7665
 L 8.45613,-38.6558 L 8.59344,-38.5268 L 8.71352,-38.3817 L 8.81445,-38.2226 L 8.89465,-38.0522 L 8.95287,-37.873
 L 8.98816,-37.688 L 9,-37.5 L 8.98816,-37.312 L 8.95287,-37.127 L 8.89465,-36.9478 L 8.81445,-36.7774
 L 8.71352,-36.6183 L 8.59344,-36.4732 L 8.45613,-36.3442 L 8.30373,-36.2335 L 8.13866,-36.1427 L 7.96352,-36.0734
 L 7.78107,-36.0266 L 7.59418,-36.0029 z
M 37,-15.5 L 36.9606,-16.1267 L 36.8429,-16.7434 L 36.6489,-17.3406 L 36.3815,-17.9088 L 36.0451,-18.4389
 L 35.6448,-18.9227 L 35.1871,-19.3526 L 34.6791,-19.7216 L 34.1289,-20.0241 L 33.5451,-20.2553 L 32.9369,-20.4114
 L 32.3139,-20.4901 L -32.3139,-20.4901 L -32.9369,-20.4114 L -33.5451,-20.2553 L -34.1289,-20.0241 L -34.6791,-19.7216
 L -35.1871,-19.3526 L -35.6448,-18.9227 L -36.0451,-18.4389 L -36.3815,-17.9088 L -36.6489,-17.3406 L -36.8429,-16.7434
 L -36.9606,-16.1267 L -37,-15.5 L -37,-0 L 37,-0 z
M 4.75166,-11.9133 L 4.75166,-15.0867 L 7.5,-16.6735 L 10.2483,-15.0867 L 10.2483,-11.9133 L 7.49998,-10.3265
 z
M -25.2483,-11.9133 L -25.2483,-15.0867 L -22.5,-16.6735 L -19.7517,-15.0867 L -19.7517,-11.9133 L -22.5,-10.3265
 z
M -30.1884,-10.5059 L -30.5621,-10.5531 L -30.927,-10.6468 L -31.2773,-10.7855 L -31.6075,-10.967 L -31.9123,-11.1884
 L -32.1869,-11.4464 L -32.427,-11.7366 L -32.6289,-12.0547 L -32.7893,-12.3956 L -32.9057,-12.7539 L -32.9763,-13.124
 L -33,-13.5 L -32.9763,-13.876 L -32.9057,-14.2461 L -32.7893,-14.6044 L -32.6289,-14.9453 L -32.427,-15.2634
 L -32.1869,-15.5536 L -31.9123,-15.8115 L -31.6075,-16.033 L -31.2773,-16.2145 L -30.927,-16.3532 L -30.5621,-16.4469
 L -30.1884,-16.4941 L -29.8116,-16.4941 L -29.4379,-16.4469 L -29.0729,-16.3532 L -28.7227,-16.2145 L -28.3925,-16.033
 L -28.0877,-15.8115 L -27.8131,-15.5536 L -27.5729,-15.2634 L -27.3711,-14.9453 L -27.2107,-14.6044 L -27.0942,-14.2461
 L -27.0237,-13.876 L -27,-13.5 L -27.0237,-13.124 L -27.0942,-12.7539 L -27.2107,-12.3956 L -27.3711,-12.0547
 L -27.5729,-11.7366 L -27.8131,-11.4464 L -28.0877,-11.1884 L -28.3925,-10.967 L -28.7227,-10.7855 L -29.0729,-10.6468
 L -29.4379,-10.5531 L -29.8116,-10.5059 z
M -0.18837,-10.5059 L -0.562134,-10.5531 L -0.927048,-10.6468 L -1.27733,-10.7855 L -1.60747,-10.967 L -1.91226,-11.1884
 L -2.1869,-11.4464 L -2.42705,-11.7366 L -2.62891,-12.0547 L -2.78932,-12.3956 L -2.90575,-12.7539 L -2.97633,-13.124
 L -3,-13.5 L -2.97633,-13.876 L -2.90575,-14.2461 L -2.78932,-14.6044 L -2.62891,-14.9453 L -2.42705,-15.2634
 L -2.1869,-15.5536 L -1.91226,-15.8115 L -1.60747,-16.033 L -1.27733,-16.2145 L -0.927048,-16.3532 L -0.562134,-16.4469
 L -0.18837,-16.4941 L 0.18837,-16.4941 L 0.562134,-16.4469 L 0.927048,-16.3532 L 1.27733,-16.2145 L 1.60747,-16.033
 L 1.91226,-15.8115 L 2.1869,-15.5536 L 2.42705,-15.2634 L 2.62891,-14.9453 L 2.78932,-14.6044 L 2.90575,-14.2461
 L 2.97633,-13.876 L 3,-13.5 L 2.97633,-13.124 L 2.90575,-12.7539 L 2.78932,-12.3956 L 2.62891,-12.0547
 L 2.42705,-11.7366 L 2.1869,-11.4464 L 1.91226,-11.1884 L 1.60747,-10.967 L 1.27733,-10.7855 L 0.927048,-10.6468
 L 0.562134,-10.5531 L 0.18837,-10.5059 z
M 14.8116,-10.5059 L 14.4379,-10.5531 L 14.0729,-10.6468 L 13.7227,-10.7855 L 13.3925,-10.967 L 13.0877,-11.1884
 L 12.8131,-11.4464 L 12.5729,-11.7366 L 12.3711,-12.0547 L 12.2107,-12.3956 L 12.0942,-12.7539 L 12.0237,-13.124
 L 12,-13.5 L 12.0237,-13.876 L 12.0942,-14.2461 L 12.2107,-14.6044 L 12.3711,-14.9453 L 12.5729,-15.2634
 L 12.8131,-15.5536 L 13.0877,-15.8115 L 13.3925,-16.033 L 13.7227,-16.2145 L 14.0729,-16.3532 L 14.4379,-16.4469
 L 14.8116,-16.4941 L 15.1884,-16.4941 L 15.5621,-16.4469 L 15.927,-16.3532 L 16.2773,-16.2145 L 16.6075,-16.033
 L 16.9123,-15.8115 L 17.1869,-15.5536 L 17.427,-15.2634 L 17.6289,-14.9453 L 17.7893,-14.6044 L 17.9057,-14.2461
 L 17.9763,-13.876 L 18,-13.5 L 17.9763,-13.124 L 17.9057,-12.7539 L 17.7893,-12.3956 L 17.6289,-12.0547
 L 17.427,-11.7366 L 17.1869,-11.4464 L 16.9123,-11.1884 L 16.6075,-10.967 L 16.2773,-10.7855 L 15.927,-10.6468
 L 15.5621,-10.5531 L 15.1884,-10.5059 z
M -15.1884,-10.5059 L -15.5621,-10.5531 L -15.927,-10.6468 L -16.2773,-10.7855 L -16.6075,-10.967 L -16.9123,-11.1884
 L -17.1869,-11.4464 L -17.427,-11.7366 L -17.6289,-12.0547 L -17.7893,-12.3956 L -17.9057,-12.7539 L -17.9763,-13.124
 L -18,-13.5 L -17.9763,-13.876 L -17.9057,-14.2461 L -17.7893,-14.6044 L -17.6289,-14.9453 L -17.427,-15.2634
 L -17.1869,-15.5536 L -16.9123,-15.8115 L -16.6075,-16.033 L -16.2773,-16.2145 L -15.927,-16.3532 L -15.5621,-16.4469
 L -15.1884,-16.4941 L -14.8116,-16.4941 L -14.4379,-16.4469 L -14.0729,-16.3532 L -13.7227,-16.2145 L -13.3925,-16.033
 L -13.0877,-15.8115 L -12.8131,-15.5536 L -12.5729,-15.2634 L -12.3711,-14.9453 L -12.2107,-14.6044 L -12.0942,-14.2461
 L -12.0237,-13.876 L -12,-13.5 L -12.0237,-13.124 L -12.0942,-12.7539 L -12.2107,-12.3956 L -12.3711,-12.0547
 L -12.5729,-11.7366 L -12.8131,-11.4464 L -13.0877,-11.1884 L -13.3925,-10.967 L -13.7227,-10.7855 L -14.0729,-10.6468
 L -14.4379,-10.5531 L -14.8116,-10.5059 z
M 29.8116,-10.5059 L 29.4379,-10.5531 L 29.0729,-10.6468 L 28.7227,-10.7855 L 28.3925,-10.967 L 28.0877,-11.1884
 L 27.8131,-11.4464 L 27.5729,-11.7366 L 27.3711,-12.0547 L 27.2107,-12.3956 L 27.0942,-12.7539 L 27.0237,-13.124
 L 27,-13.5 L 27.0237,-13.876 L 27.0942,-14.2461 L 27.2107,-14.6044 L 27.3711,-14.9453 L 27.5729,-15.2634
 L 27.8131,-15.5536 L 28.0877,-15.8115 L 28.3925,-16.033 L 28.7227,-16.2145 L 29.0729,-16.3532 L 29.4379,-16.4469
 L 29.8116,-16.4941 L 30.1884,-16.4941 L 30.5621,-16.4469 L 30.927,-16.3532 L 31.2773,-16.2145 L 31.6075,-16.033
 L 31.9123,-15.8115 L 32.1869,-15.5536 L 32.427,-15.2634 L 32.6289,-14.9453 L 32.7893,-14.6044 L 32.9057,-14.2461
 L 32.9763,-13.876 L 33,-13.5 L 32.9763,-13.124 L 32.9057,-12.7539 L 32.7893,-12.3956 L 32.6289,-12.0547
 L 32.427,-11.7366 L 32.1869,-11.4464 L 31.9123,-11.1884 L 31.6075,-10.967 L 31.2773,-10.7855 L 30.927,-10.6468
 L 30.5621,-10.5531 L 30.1884,-10.5059 z
M -7.59935,-11.9208 L -7.79649,-11.9457 L -7.98897,-11.9951 L -8.17372,-12.0682 L -8.34785,-12.164 L -8.50862,-12.2808
 L -8.65347,-12.4168 L -8.78014,-12.5699 L -8.88661,-12.7377 L -8.97122,-12.9175 L -9.03264,-13.1065 L -9.06987,-13.3017
 L -9.08235,-13.5 L -9.06987,-13.6983 L -9.03264,-13.8935 L -8.97122,-14.0825 L -8.88661,-14.2623 L -8.78014,-14.4301
 L -8.65347,-14.5832 L -8.50862,-14.7192 L -8.34785,-14.836 L -8.17372,-14.9317 L -7.98897,-15.0049 L -7.79649,-15.0543
 L -7.59935,-15.0792 L -7.40063,-15.0792 L -7.20349,-15.0543 L -7.01102,-15.0049 L -6.82626,-14.9317 L -6.65213,-14.836
 L -6.49136,-14.7192 L -6.34651,-14.5832 L -6.21985,-14.4301 L -6.11336,-14.2623 L -6.02876,-14.0825 L -5.96735,-13.8935
 L -5.93011,-13.6983 L -5.91763,-13.5 L -5.93011,-13.3017 L -5.96735,-13.1065 L -6.02876,-12.9175 L -6.11336,-12.7377
 L -6.21985,-12.5699 L -6.34651,-12.4168 L -6.49136,-12.2808 L -6.65213,-12.164 L -6.82626,-12.0682 L -7.01102,-11.9951
 L -7.20349,-11.9457 L -7.40063,-11.9208 z
M -33.5719,-3.59999 L -33.5719,-9 L -26.4281,-9 L -26.4281,-3.59999 z
M -3.5719,-3.59999 L -3.5719,-9 L 3.5719,-9 L 3.5719,-3.59999 z
M 26.4281,-3.59999 L 26.4281,-9 L 33.5719,-9 L 33.5719,-3.59999 z
M -18.5719,-3.59999 L -18.5719,-9 L -11.4281,-9 L -11.4281,-3.59999 z
M 11.4281,-3.59999 L 11.4281,-9 L 18.5719,-9 L 18.5719,-3.59999 z
" stroke="black" fill="lightgray" stroke-width="0.5"/>
</svg>
