<?xml version="1.0" standalone="no"?>
<!DOCTYPE svg PUBLIC "-//W3C//DTD SVG 1.1//EN" "http://www.w3.org/Graphics/SVG/1.1/DTD/svg11.dtd">
<svg width="44mm" height="186mm" viewBox="-22 -327 44 186" xmlns="http://www.w3.org/2000/svg" version="1.1">
<title>OpenSCAD Model</title>
<path d="
M 17.9369,-297.589 L 18.5451,-297.745 L 19.1289,-297.976 L 19.6791,-298.278 L 20.1871,-298.647 L 20.6448,-299.077
 L 21.0451,-299.561 L 21.3815,-300.091 L 21.6489,-300.659 L 21.8429,-301.257 L 21.9606,-301.873 L 22,-302.5
 L 22,-321.5 L 21.9606,-322.127 L 21.8429,-322.743 L 21.6489,-323.341 L 21.3815,-323.909 L 21.0451,-324.439
 L 20.6448,-324.923 L 20.1871,-325.353 L 19.6791,-325.722 L 19.1289,-326.024 L 18.5451,-326.255 L 17.9369,-326.411
 L 17.3139,-326.49 L -17.3139,-326.49 L -17.9369,-326.411 L -18.5451,-326.255 L -19.1289,-326.024 L -19.6791,-325.722
 L -20.1871,-325.353 L -20.6448,-324.923 L -21.0451,-324.439 L -21.3815,-323.909 L -21.6489,-323.341 L -21.8429,-322.743
 L -21.9606,-322.127 L -22,-321.5 L -22,-302.5 L -21.9606,-301.873 L -21.8429,-301.257 L -21.6489,-300.659
 L -21.3815,-300.091 L -21.0451,-299.561 L -20.6448,-299.077 L -20.1871,-298.647 L -19.6791,-298.278 L -19.1289,-297.976
 L -18.5451,-297.745 L -17.9369,-297.589 L -17.3139,-297.51 L 17.3139,-297.51 z
M -17.2512,-298.508 L -17.7495,-298.571 L -18.2361,-298.696 L -18.7031,-298.881 L -19.1433,-299.123 L -19.5497,-299.418
 L -19.9159,-299.762 L -20.2361,-300.149 L -20.5052,-300.573 L -20.7191,-301.028 L -20.8743,-301.505 L -20.9684,-301.999
 L -21,-302.5 L -21,-321.5 L -20.9684,-322.001 L -20.8743,-322.495 L -20.7191,-322.972 L -20.5052,-323.427
 L -20.2361,-323.851 L -19.9159,-324.238 L -19.5497,-324.582 L -19.1433,-324.877 L -18.7031,-325.119 L -18.2361,-325.304
 L -17.7495,-325.429 L -17.2512,-325.492 L 17.2512,-325.492 L 17.7495,-325.429 L 18.2361,-325.304 L 18.7031,-325.119
 L 19.1433,-324.877 L 19.5497,-324.582 L 19.9159,-324.238 L 20.2361,-323.851 L 20.5052,-323.427 L 20.7191,-322.972
 L 20.8743,-322.495 L 20.9684,-322.001 L 21,-321.5 L 21,-302.5 L 20.9684,-301.999 L 20.8743,-301.505
 L 20.7191,-301.028 L 20.5052,-300.573 L 20.2361,-300.149 L 19.9159,-299.762 L 19.5497,-299.418 L 19.1433,-299.123
 L 18.7031,-298.881 L 18.2361,-298.696 L 17.7495,-298.571 L 17.2512,-298.508 z
M 17.9369,-258.589 L 18.5451,-258.745 L 19.1289,-258.976 L 19.6791,-259.278 L 20.1871,-259.647 L 20.6448,-260.077
 L 21.0451,-260.561 L 21.3815,-261.091 L 21.6489,-261.659 L 21.8429,-262.257 L 21.9606,-262.873 L 22,-263.5
 L 22,-282.5 L 21.9606,-283.127 L 21.8429,-283.743 L 21.6489,-284.341 L 21.3815,-284.909 L 21.0451,-285.439
 L 20.6448,-285.923 L 20.1871,-286.353 L 19.6791,-286.722 L 19.1289,-287.024 L 18.5451,-287.255 L 17.9369,-287.411
 L 17.3139,-287.49 L -17.3139,-287.49 L -17.9369,-287.411 L -18.5451,-287.255 L -19.1289,-287.024 L -19.6791,-286.722
 L -20.1871,-286.353 L -20.6448,-285.923 L -21.0451,-285.439 L -21.3815,-284.909 L -21.6489,-284.341 L -21.8429,-283.743
 L -21.9606,-283.127 L -22,-282.5 L -22,-263.5 L -21.9606,-262.873 L -21.8429,-262.257 L -21.6489,-261.659
 L -21.3815,-261.091 L -21.0451,-260.561 L -20.6448,-260.077 L -20.1871,-259.647 L -19.6791,-259.278 L -19.1289,-258.976
 L -18.5451,-258.745 L -17.9369,-258.589 L -17.3139,-258.51 L 17.3139,-258.51 z
M -17.2512,-259.508 L -17.7495,-259.571 L -18.2361,-259.696 L -18.7031,-259.881 L -19.1433,-260.123 L -19.5497,-260.418
 L -19.9159,-260.762 L -20.2361,-261.149 L -20.5052,-261.573 L -20.7191,-262.028 L -20.8743,-262.505 L -20.9684,-262.999
 L -21,-263.5 L -21,-282.5 L -20.9684,-283.001 L -20.8743,-283.495 L -20.7191,-283.972 L -20.5052,-284.427
 L -20.2361,-284.851 L -19.9159,-285.238 L -19.5497,-285.582 L -19.1433,-285.877 L -18.7031,-286.119 L -18.2361,-286.304
 L -17.7495,-286.429 L -17.2512,-286.492 L 17.2512,-286.492 L 17.7495,-286.429 L 18.2361,-286.304 L 18.7031,-286.119
 L 19.1433,-285.877 L 19.5497,-285.582 L 19.9159,-285.238 L 20.2361,-284.851 L 20.5052,-284.427 L 20.7191,-283.972
 L 20.8743,-283.495 L 20.9684,-283.001 L 21,-282.5 L 21,-263.5 L 20.9684,-262.999 L 20.8743,-262.505
 L 20.7191,-262.028 L 20.5052,-261.573 L 20.2361,-261.149 L 19.9159,-260.762 L 19.5497,-260.418 L 19.1433,-260.123
 L 18.7031,-259.881 L 18.2361,-259.696 L 17.7495,-259.571 L 17.2512,-259.508 z
M 17.9369,-219.589 L 18.5451,-219.745 L 19.1289,-219.976 L 19.6791,-220.278 L 20.1871,-220.647 L 20.6448,-221.077
 L 21.0451,-221.561 L 21.3815,-222.091 L 21.6489,-222.659 L 21.8429,-223.257 L 21.9606,-223.873 L 22,-224.5
 L 22,-243.5 L 21.9606,-244.127 L 21.8429,-244.743 L 21.6489,-245.341 L 21.3815,-245.909 L 21.0451,-246.439
 L 20.6448,-246.923 L 20.1871,-247.353 L 19.6791,-247.722 L 19.1289,-248.024 L 18.5451,-248.255 L 17.9369,-248.411
 L 17.3139,-248.49 L -17.3139,-248.49 L -17.9369,-248.411 L -18.5451,-248.255 L -19.1289,-248.024 L -19.6791,-247.722
 L -20.1871,-247.353 L -20.6448,-246.923 L -21.0451,-246.439 L -21.3815,-245.909 L -21.6489,-245.341 L -21.8429,-244.743
 L -21.9606,-244.127 L -22,-243.5 L -22,-224.5 L -21.9606,-223.873 L -21.8429,-223.257 L -21.6489,-222.659
 L -21.3815,-222.091 L -21.0451,-221.561 L -20.6448,-221.077 L -20.1871,-220.647 L -19.6791,-220.278 L -19.1289,-219.976
 L -18.5451,-219.745 L -17.9369,-219.589 L -17.3139,-219.51 L 17.3139,-219.51 z
M -17.2432,-220.635 L -17.7256,-220.696 L -18.1967,-220.817 L -18.6489,-220.996 L -19.0751,-221.23 L -19.4685,-221.516
 L -19.823,-221.849 L -20.133,-222.224 L -20.3936,-222.634 L -20.6007,-223.074 L -20.751,-223.537 L -20.8421,-224.015
 L -20.8726,-224.5 L -20.8726,-243.5 L -20.8421,-243.985 L -20.751,-244.463 L -20.6007,-244.926 L -20.3936,-245.366
 L -20.133,-245.776 L -19.823,-246.151 L -19.4685,-246.484 L -19.0751,-246.77 L -18.6489,-247.004 L -18.1967,-247.183
 L -17.7256,-247.304 L -17.2432,-247.365 L 17.2432,-247.365 L 17.7256,-247.304 L 18.1967,-247.183 L 18.6489,-247.004
 L 19.0751,-246.77 L 19.4685,-246.484 L 19.823,-246.151 L 20.133,-245.776 L 20.3936,-245.366 L 20.6007,-244.926
 L 20.751,-244.463 L 20.8421,-243.985 L 20.8726,-243.5 L 20.8726,-224.5 L 20.8421,-224.015 L 20.751,-223.537
 L 20.6007,-223.074 L 20.3936,-222.634 L 20.133,-222.224 L 19.823,-221.849 L 19.4685,-221.516 L 19.0751,-221.23
 L 18.6489,-220.996 L 18.1967,-220.817 L 17.7256,-220.696 L 17.2432,-220.635 z
M 17.9369,-180.589 L 18.5451,-180.745 L 19.1289,-180.976 L 19.6791,-181.278 L 20.1871,-181.647 L 20.6448,-182.077
 L 21.0451,-182.561 L 21.3815,-183.091 L 21.6489,-183.659 L 21.8429,-184.257 L 21.9606,-184.873 L 22,-185.5
 L 22,-204.5 L 21.9606,-205.127 L 21.8429,-205.743 L 21.6489,-206.341 L 21.3815,-206.909 L 21.0451,-207.439
 L 20.6448,-207.923 L 20.1871,-208.353 L 19.6791,-208.722 L 19.1289,-209.024 L 18.5451,-209.255 L 17.9369,-209.411
 L 17.3139,-209.49 L -17.3139,-209.49 L -17.9369,-209.411 L -18.5451,-209.255 L -19.1289,-209.024 L -19.6791,-208.722
 L -20.1871,-208.353 L -20.6448,-207.923 L -21.0451,-207.439 L -21.3815,-206.909 L -21.6489,-206.341 L -21.8429,-205.743
 L -21.9606,-205.127 L -22,-204.5 L -22,-185.5 L -21.9606,-184.873 L -21.8429,-184.257 L -21.6489,-183.659
 L -21.3815,-183.091 L -21.0451,-182.561 L -20.6448,-182.077 L -20.1871,-181.647 L -19.6791,-181.278 L -19.1289,-180.976
 L -18.5451,-180.745 L -17.9369,-180.589 L -17.3139,-180.51 L 17.3139,-180.51 z
M 17.9369,-141.589 L 18.5451,-141.745 L 19.1289,-141.976 L 19.6791,-142.278 L 20.1871,-142.647 L 20.6448,-143.077
 L 21.0451,-143.561 L 21.3815,-144.091 L 21.6489,-144.659 L 21.8429,-145.257 L 21.9606,-145.873 L 22,-146.5
 L 22,-165.5 L 21.9606,-166.127 L 21.8429,-166.743 L 21.6489,-167.341 L 21.3815,-167.909 L 21.0451,-168.439
 L 20.6448,-168.923 L 20.1871,-169.353 L 19.6791,-169.722 L 19.1289,-170.024 L 18.5451,-170.255 L 17.9369,-170.411
 L 17.3139,-170.49 L -17.3139,-170.49 L -17.9369,-170.411 L -18.5451,-170.255 L -19.1289,-170.024 L -19.6791,-169.722
 L -20.1871,-169.353 L -20.6448,-168.923 L -21.0451,-168.439 L -21.3815,-167.909 L -21.6489,-167.341 L -21.8429,-166.743
 L -21.9606,-166.127 L -22,-165.5 L -22,-146.5 L -21.9606,-145.873 L -21.8429,-145.257 L -21.6489,-144.659
 L -21.3815,-144.091 L -21.0451,-143.561 L -20.6448,-143.077 L -20.1871,-142.647 L -19.6791,-142.278 L -19.1289,-141.976
 L -18.5451,-141.745 L -17.9369,-141.589 L -17.3139,-141.51 L 17.3139,-141.51 z
M 14.8493,-161.105 L 14.5503,-161.143 L 14.2583,-161.217 L 13.9781,-161.328 L 13.714,-161.474 L 13.4702,-161.651
 L 13.2505,-161.857 L 13.0583,-162.089 L 12.8969,-162.344 L 12.7685,-162.617 L 12.6754,-162.903 L 12.6189,-163.199
 L 12.6,-163.5 L 12.6189,-163.801 L 12.6754,-164.097 L 12.7685,-164.383 L 12.8969,-164.656 L 13.0583,-164.911
 L 13.2505,-165.143 L 13.4702,-165.349 L 13.714,-165.526 L 13.9781,-165.672 L 14.2583,-165.783 L 14.5503,-165.857
 L 14.8493,-165.895 L 15.1507,-165.895 L 15.4497,-165.857 L 15.7416,-165.783 L 16.0219,-165.672 L 16.286,-165.526
 L 16.5298,-165.349 L 16.7495,-165.143 L 16.9416,-164.911 L 17.1031,-164.656 L 17.2315,-164.383 L 17.3246,-164.097
 L 17.3811,-163.801 L 17.4,-163.5 L 17.3811,-163.199 L 17.3246,-162.903 L 17.2315,-162.617 L 17.1031,-162.344
 L 16.9416,-162.089 L 16.7495,-161.857 L 16.5298,-161.651 L 16.286,-161.474 L 16.0219,-161.328 L 15.7416,-161.217
 L 15.4497,-161.143 L 15.1507,-161.105 z
M -15.1507,-161.105 L -15.4497,-161.143 L -15.7416,-161.217 L -16.0219,-161.328 L -16.286,-161.474 L -16.5298,-161.651
 L -16.7495,-161.857 L -16.9416,-162.089 L -17.1031,-162.344 L -17.2315,-162.617 L -17.3246,-162.903 L -17.3811,-163.199
 L -17.4,-163.5 L -17.3811,-163.801 L -17.3246,-164.097 L -17.2315,-164.383 L -17.1031,-164.656 L -16.9416,-164.911
 L -16.7495,-165.143 L -16.5298,-165.349 L -16.286,-165.526 L -16.0219,-165.672 L -15.7416,-165.783 L -15.4497,-165.857
 L -15.1507,-165.895 L -14.8493,-165.895 L -14.5503,-165.857 L -14.2583,-165.783 L -13.9781,-165.672 L -13.714,-165.526
 L -13.4702,-165.349 L -13.2505,-165.143 L -13.0583,-164.911 L -12.8969,-164.656 L -12.7685,-164.383 L -12.6754,-164.097
 L -12.6189,-163.801 L -12.6,-163.5 L -12.6189,-163.199 L -12.6754,-162.903 L -12.7685,-162.617 L -12.8969,-162.344
 L -13.0583,-162.089 L -13.2505,-161.857 L -13.4702,-161.651 L -13.714,-161.474 L -13.9781,-161.328 L -14.2583,-161.217
 L -14.5503,-161.143 L -14.8493,-161.105 z
M -15.1507,-146.105 L -15.4497,-146.143 L -15.7416,-146.217 L -16.0219,-146.328 L -16.286,-146.474 L -16.5298,-146.651
 L -16.7495,-146.857 L -16.9416,-147.089 L -17.1031,-147.344 L -17.2315,-147.617 L -17.3246,-147.903 L -17.3811,-148.199
 L -17.4,-148.5 L -17.3811,-148.801 L -17.3246,-149.097 L -17.2315,-149.383 L -17.1031,-149.656 L -16.9416,-149.911
 L -16.7495,-150.143 L -16.5298,-150.349 L -16.286,-150.526 L -16.0219,-150.672 L -15.7416,-150.783 L -15.4497,-150.857
 L -15.1507,-150.895 L -14.8493,-150.895 L -14.5503,-150.857 L -14.2583,-150.783 L -13.9781,-150.672 L -13.714,-150.526
 L -13.4702,-150.349 L -13.2505,-150.143 L -13.0583,-149.911 L -12.8969,-149.656 L -12.7685,-149.383 L -12.6754,-149.097
 L -12.6189,-148.801 L -12.6,-148.5 L -12.6189,-148.199 L -12.6754,-147.903 L -12.7685,-147.617 L -12.8969,-147.344
 L -13.0583,-147.089 L -13.2505,-146.857 L -13.4702,-146.651 L -13.714,-146.474 L -13.9781,-146.328 L -14.2583,-146.217
 L -14.5503,-146.143 L -14.8493,-146.105 z
M 14.8493,-146.105 L 14.5503,-146.143 L 14.2583,-146.217 L 13.9781,-146.328 L 13.714,-146.474 L 13.4702,-146.651
 L 13.2505,-146.857 L 13.0583,-147.089 L 12.8969,-147.344 L 12.7685,-147.617 L 12.6754,-147.903 L 12.6189,-148.199
 L 12.6,-148.5 L 12.6189,-148.801 L 12.6754,-149.097 L 12.7685,-149.383 L 12.8969,-149.656 L 13.0583,-149.911
 L 13.2505,-150.143 L 13.4702,-150.349 L 13.714,-150.526 L 13.9781,-150.672 L 14.2583,-150.783 L 14.5503,-150.857
 L 14.8493,-150.895 L 15.1507,-150.895 L 15.4497,-150.857 L 15.7416,-150.783 L 16.0219,-150.672 L 16.286,-150.526
 L 16.5298,-150.349 L 16.7495,-150.143 L 16.9416,-149.911 L 17.1031,-149.656 L 17.2315,-149.383 L 17.3246,-149.097
 L 17.3811,-148.801 L 17.4,-148.5 L 17.3811,-148.199 L 17.3246,-147.903 L 17.2315,-147.617 L 17.1031,-147.344
 L 16.9416,-147.089 L 16.7495,-146.857 L 16.5298,-146.651 L 16.286,-146.474 L 16.0219,-146.328 L 15.7416,-146.217
 L 15.4497,-146.143 L 15.1507,-146.105 z
" stroke="black" fill="lightgray" stroke-width="0.5"/>
</svg>
