<?xml version="1.0" standalone="no"?>
<!DOCTYPE svg PUBLIC "-//W3C//DTD SVG 1.1//EN" "http://www.w3.org/Graphics/SVG/1.1/DTD/svg11.dtd">
<svg width="14mm" height="152mm" viewBox="-7 -292 14 152" xmlns="http://www.w3.org/2000/svg" version="1.1">
<title>OpenSCAD Model</title>
<path d="
M 2.9369,-248.089 L 3.54507,-248.245 L 4.12889,-248.476 L 4.67912,-248.778 L 5.18712,-249.147 L 5.64484,-249.577
 L 6.04507,-250.061 L 6.38153,-250.591 L 6.64888,-251.159 L 6.84291,-251.757 L 6.96057,-252.373 L 7,-253
 L 7,-287 L 6.96057,-287.627 L 6.84291,-288.243 L 6.64888,-288.841 L 6.38153,-289.409 L 6.04507,-289.939
 L 5.64484,-290.423 L 5.18712,-290.853 L 4.67912,-291.222 L 4.12889,-291.524 L 3.54507,-291.755 L 2.9369,-291.911
 L 2.31395,-291.99 L -2.31395,-291.99 L -2.9369,-291.911 L -3.54507,-291.755 L -4.12889,-291.524 L -4.67912,-291.222
 L -5.18712,-290.853 L -5.64484,-290.423 L -6.04507,-289.939 L -6.38153,-289.409 L -6.64888,-288.841 L -6.84291,-288.243
 L -6.96057,-287.627 L -7,-287 L -7,-253 L -6.96057,-252.373 L -6.84291,-251.757 L -6.64888,-251.159
 L -6.38153,-250.591 L -6.04507,-250.061 L -5.64484,-249.577 L -5.18712,-249.147 L -4.67912,-248.778 L -4.12889,-248.476
 L -3.54507,-248.245 L -2.9369,-248.089 L -2.31395,-248.01 L 2.31395,-248.01 z
M -2.04825,-248.509 L -2.64006,-248.584 L -3.21782,-248.732 L -3.77245,-248.952 L -4.29517,-249.239 L -4.77776,-249.59
 L -5.2126,-249.998 L -5.59282,-250.458 L -5.91245,-250.962 L -6.16643,-251.501 L -6.35077,-252.069 L -6.46254,-252.655
 L -6.5,-253.25 L -6.5,-286.75 L -6.46254,-287.345 L -6.35077,-287.931 L -6.16643,-288.499 L -5.91245,-289.038
 L -5.59282,-289.542 L -5.2126,-290.002 L -4.77776,-290.41 L -4.29517,-290.761 L -3.77245,-291.048 L -3.21782,-291.268
 L -2.64006,-291.416 L -2.04825,-291.491 L 2.04825,-291.491 L 2.64006,-291.416 L 3.21782,-291.268 L 3.77245,-291.048
 L 4.29517,-290.761 L 4.77776,-290.41 L 5.2126,-290.002 L 5.59282,-289.542 L 5.91245,-289.038 L 6.16643,-288.499
 L 6.35077,-287.931 L 6.46254,-287.345 L 6.5,-286.75 L 6.5,-253.25 L 6.46254,-252.655 L 6.35077,-252.069
 L 6.16643,-251.501 L 5.91245,-250.962 L 5.59282,-250.458 L 5.2126,-249.998 L 4.77776,-249.59 L 4.29517,-249.239
 L 3.77245,-248.952 L 3.21782,-248.732 L 2.64006,-248.584 L 2.04825,-248.509 z
M 2.9369,-194.089 L 3.54507,-194.245 L 4.12889,-194.476 L 4.67912,-194.778 L 5.18712,-195.147 L 5.64484,-195.577
 L 6.04507,-196.061 L 6.38153,-196.591 L 6.64888,-197.159 L 6.84291,-197.757 L 6.96057,-198.373 L 7,-199
 L 7,-233 L 6.96057,-233.627 L 6.84291,-234.243 L 6.64888,-234.841 L 6.38153,-235.409 L 6.04507,-235.939
 L 5.64484,-236.423 L 5.18712,-236.853 L 4.67912,-237.222 L 4.12889,-237.524 L 3.54507,-237.755 L 2.9369,-237.911
 L 2.31395,-237.99 L -2.31395,-237.99 L -2.9369,-237.911 L -3.54507,-237.755 L -4.12889,-237.524 L -4.67912,-237.222
 L -5.18712,-236.853 L -5.64484,-236.423 L -6.04507,-235.939 L -6.38153,-235.409 L -6.64888,-234.841 L -6.84291,-234.243
 L -6.96057,-233.627 L -7,-233 L -7,-199 L -6.96057,-198.373 L -6.84291,-197.757 L -6.64888,-197.159
 L -6.38153,-196.591 L -6.04507,-196.061 L -5.64484,-195.577 L -5.18712,-195.147 L -4.67912,-194.778 L -4.12889,-194.476
 L -3.54507,-194.245 L -2.9369,-194.089 L -2.31395,-194.01 L 2.31395,-194.01 z
M -2.03748,-194.681 L -2.60791,-194.753 L -3.16481,-194.896 L -3.6994,-195.107 L -4.20325,-195.384 L -4.6684,-195.722
 L -5.08754,-196.116 L -5.45403,-196.559 L -5.76212,-197.044 L -6.00691,-197.565 L -6.18459,-198.111 L -6.29233,-198.676
 L -6.32843,-199.25 L -6.32843,-232.75 L -6.29233,-233.324 L -6.18459,-233.889 L -6.00691,-234.435 L -5.76212,-234.956
 L -5.45403,-235.441 L -5.08754,-235.884 L -4.6684,-236.278 L -4.20325,-236.616 L -3.6994,-236.893 L -3.16481,-237.104
 L -2.60791,-237.247 L -2.03748,-237.319 L 2.03748,-237.319 L 2.60791,-237.247 L 3.16481,-237.104 L 3.6994,-236.893
 L 4.20325,-236.616 L 4.6684,-236.278 L 5.08754,-235.884 L 5.45403,-235.441 L 5.76212,-234.956 L 6.00691,-234.435
 L 6.18459,-233.889 L 6.29233,-233.324 L 6.32843,-232.75 L 6.32843,-199.25 L 6.29233,-198.676 L 6.18459,-198.111
 L 6.00691,-197.565 L 5.76212,-197.044 L 5.45403,-196.559 L 5.08754,-196.116 L 4.6684,-195.722 L 4.20325,-195.384
 L 3.6994,-195.107 L 3.16481,-194.896 L 2.60791,-194.753 L 2.03748,-194.681 z
M 2.9369,-140.089 L 3.54507,-140.245 L 4.12889,-140.476 L 4.67912,-140.778 L 5.18712,-141.147 L 5.64484,-141.577
 L 6.04507,-142.061 L 6.38153,-142.591 L 6.64888,-143.159 L 6.84291,-143.757 L 6.96057,-144.373 L 7,-145
 L 7,-179 L 6.96057,-179.627 L 6.84291,-180.243 L 6.64888,-180.841 L 6.38153,-181.409 L 6.04507,-181.939
 L 5.64484,-182.423 L 5.18712,-182.853 L 4.67912,-183.222 L 4.12889,-183.524 L 3.54507,-183.755 L 2.9369,-183.911
 L 2.31395,-183.99 L -2.31395,-183.99 L -2.9369,-183.911 L -3.54507,-183.755 L -4.12889,-183.524 L -4.67912,-183.222
 L -5.18712,-182.853 L -5.64484,-182.423 L -6.04507,-181.939 L -6.38153,-181.409 L -6.64888,-180.841 L -6.84291,-180.243
 L -6.96057,-179.627 L -7,-179 L -7,-145 L -6.96057,-144.373 L -6.84291,-143.757 L -6.64888,-143.159
 L -6.38153,-142.591 L -6.04507,-142.061 L -5.64484,-141.577 L -5.18712,-141.147 L -4.67912,-140.778 L -4.12889,-140.476
 L -3.54507,-140.245 L -2.9369,-140.089 L -2.31395,-140.01 L 2.31395,-140.01 z
M -1.88246,-143.145 L -2.14529,-143.178 L -2.4019,-143.244 L -2.64822,-143.341 L -2.88039,-143.469 L -3.09473,-143.625
 L -3.28784,-143.806 L -3.45673,-144.01 L -3.59868,-144.234 L -3.71149,-144.473 L -3.79335,-144.725 L -3.84299,-144.986
 L -3.85962,-145.25 L -3.85962,-178.75 L -3.84299,-179.014 L -3.79335,-179.275 L -3.71149,-179.527 L -3.59868,-179.766
 L -3.45673,-179.99 L -3.28784,-180.194 L -3.09473,-180.375 L -2.88039,-180.531 L -2.64822,-180.659 L -2.4019,-180.756
 L -2.14529,-180.822 L -1.88246,-180.855 L 1.88246,-180.855 L 2.14529,-180.822 L 2.4019,-180.756 L 2.64822,-180.659
 L 2.88039,-180.531 L 3.09473,-180.375 L 3.28784,-180.194 L 3.45673,-179.99 L 3.59868,-179.766 L 3.71149,-179.527
 L 3.79335,-179.275 L 3.84299,-179.014 L 3.85962,-178.75 L 3.85962,-145.25 L 3.84299,-144.986 L 3.79335,-144.725
 L 3.71149,-144.473 L 3.59868,-144.234 L 3.45673,-144.01 L 3.28784,-143.806 L 3.09473,-143.625 L 2.88039,-143.469
 L 2.64822,-143.341 L 2.4019,-143.244 L 2.14529,-143.178 L 1.88246,-143.145 z
" stroke="black" fill="lightgray" stroke-width="0.5"/>
</svg>
