  0
SECTION
  2
BLOCKS
  0
ENDSEC
  0
SECTION
  2
ENTITIES
  0
LINE
  8
0
 10
14.6869
 20
193.589
 11
15.2951
 21
193.745
  0
LINE
  8
0
 10
15.2951
 20
193.745
 11
15.8789
 21
193.976
  0
LINE
  8
0
 10
15.8789
 20
193.976
 11
16.4291
 21
194.278
  0
LINE
  8
0
 10
16.4291
 20
194.278
 11
16.9371
 21
194.647
  0
LINE
  8
0
 10
16.9371
 20
194.647
 11
17.3948
 21
195.077
  0
LINE
  8
0
 10
17.3948
 20
195.077
 11
17.7951
 21
195.561
  0
LINE
  8
0
 10
17.7951
 20
195.561
 11
18.1315
 21
196.091
  0
LINE
  8
0
 10
18.1315
 20
196.091
 11
18.3989
 21
196.659
  0
LINE
  8
0
 10
18.3989
 20
196.659
 11
18.5929
 21
197.257
  0
LINE
  8
0
 10
18.5929
 20
197.257
 11
18.7106
 21
197.873
  0
LINE
  8
0
 10
18.7106
 20
197.873
 11
18.75
 21
198.5
  0
LINE
  8
0
 10
18.75
 20
198.5
 11
18.75
 21
233.5
  0
LINE
  8
0
 10
18.75
 20
233.5
 11
18.7106
 21
234.127
  0
LINE
  8
0
 10
18.7106
 20
234.127
 11
18.5929
 21
234.743
  0
LINE
  8
0
 10
18.5929
 20
234.743
 11
18.3989
 21
235.341
  0
LINE
  8
0
 10
18.3989
 20
235.341
 11
18.1315
 21
235.909
  0
LINE
  8
0
 10
18.1315
 20
235.909
 11
17.7951
 21
236.439
  0
LINE
  8
0
 10
17.7951
 20
236.439
 11
17.3948
 21
236.923
  0
LINE
  8
0
 10
17.3948
 20
236.923
 11
16.9371
 21
237.353
  0
LINE
  8
0
 10
16.9371
 20
237.353
 11
16.4291
 21
237.722
  0
LINE
  8
0
 10
16.4291
 20
237.722
 11
15.8789
 21
238.024
  0
LINE
  8
0
 10
15.8789
 20
238.024
 11
15.2951
 21
238.255
  0
LINE
  8
0
 10
15.2951
 20
238.255
 11
14.6869
 21
238.411
  0
LINE
  8
0
 10
14.6869
 20
238.411
 11
14.0639
 21
238.49
  0
LINE
  8
0
 10
14.0639
 20
238.49
 11
-14.0639
 21
238.49
  0
LINE
  8
0
 10
-14.0639
 20
238.49
 11
-14.6869
 21
238.411
  0
LINE
  8
0
 10
-14.6869
 20
238.411
 11
-15.2951
 21
238.255
  0
LINE
  8
0
 10
-15.2951
 20
238.255
 11
-15.8789
 21
238.024
  0
LINE
  8
0
 10
-15.8789
 20
238.024
 11
-16.4291
 21
237.722
  0
LINE
  8
0
 10
-16.4291
 20
237.722
 11
-16.9371
 21
237.353
  0
LINE
  8
0
 10
-16.9371
 20
237.353
 11
-17.3948
 21
236.923
  0
LINE
  8
0
 10
-17.3948
 20
236.923
 11
-17.7951
 21
236.439
  0
LINE
  8
0
 10
-17.7951
 20
236.439
 11
-18.1315
 21
235.909
  0
LINE
  8
0
 10
-18.1315
 20
235.909
 11
-18.3989
 21
235.341
  0
LINE
  8
0
 10
-18.3989
 20
235.341
 11
-18.5929
 21
234.743
  0
LINE
  8
0
 10
-18.5929
 20
234.743
 11
-18.7106
 21
234.127
  0
LINE
  8
0
 10
-18.7106
 20
234.127
 11
-18.75
 21
233.5
  0
LINE
  8
0
 10
-18.75
 20
233.5
 11
-18.75
 21
198.5
  0
LINE
  8
0
 10
-18.75
 20
198.5
 11
-18.7106
 21
197.873
  0
LINE
  8
0
 10
-18.7106
 20
197.873
 11
-18.5929
 21
197.257
  0
LINE
  8
0
 10
-18.5929
 20
197.257
 11
-18.3989
 21
196.659
  0
LINE
  8
0
 10
-18.3989
 20
196.659
 11
-18.1315
 21
196.091
  0
LINE
  8
0
 10
-18.1315
 20
196.091
 11
-17.7951
 21
195.561
  0
LINE
  8
0
 10
-17.7951
 20
195.561
 11
-17.3948
 21
195.077
  0
LINE
  8
0
 10
-17.3948
 20
195.077
 11
-16.9371
 21
194.647
  0
LINE
  8
0
 10
-16.9371
 20
194.647
 11
-16.4291
 21
194.278
  0
LINE
  8
0
 10
-16.4291
 20
194.278
 11
-15.8789
 21
193.976
  0
LINE
  8
0
 10
-15.8789
 20
193.976
 11
-15.2951
 21
193.745
  0
LINE
  8
0
 10
-15.2951
 20
193.745
 11
-14.6869
 21
193.589
  0
LINE
  8
0
 10
-14.6869
 20
193.589
 11
-14.0639
 21
193.51
  0
LINE
  8
0
 10
-14.0639
 20
193.51
 11
14.0639
 21
193.51
  0
LINE
  8
0
 10
14.0639
 20
193.51
 11
14.6869
 21
193.589
  0
LINE
  8
0
 10
-8.56104
 20
194.009
 11
-8.07086
 21
194.278
  0
LINE
  8
0
 10
-8.07086
 20
194.278
 11
-7.56287
 21
194.647
  0
LINE
  8
0
 10
-7.56287
 20
194.647
 11
-7.10515
 21
195.077
  0
LINE
  8
0
 10
-7.10515
 20
195.077
 11
-6.70491
 21
195.561
  0
LINE
  8
0
 10
-6.70491
 20
195.561
 11
-6.36845
 21
196.091
  0
LINE
  8
0
 10
-6.36845
 20
196.091
 11
-6.1011
 21
196.659
  0
LINE
  8
0
 10
-6.1011
 20
196.659
 11
-5.90707
 21
197.257
  0
LINE
  8
0
 10
-5.90707
 20
197.257
 11
-5.78941
 21
197.873
  0
LINE
  8
0
 10
-5.78941
 20
197.873
 11
-5.75
 21
198.5
  0
LINE
  8
0
 10
-5.75
 20
198.5
 11
-5.75
 21
201.5
  0
LINE
  8
0
 10
-5.75
 20
201.5
 11
-5.78941
 21
202.127
  0
LINE
  8
0
 10
-5.78941
 20
202.127
 11
-5.90707
 21
202.743
  0
LINE
  8
0
 10
-5.90707
 20
202.743
 11
-6.1011
 21
203.341
  0
LINE
  8
0
 10
-6.1011
 20
203.341
 11
-6.36845
 21
203.909
  0
LINE
  8
0
 10
-6.36845
 20
203.909
 11
-6.70491
 21
204.439
  0
LINE
  8
0
 10
-6.70491
 20
204.439
 11
-7.10515
 21
204.923
  0
LINE
  8
0
 10
-7.10515
 20
204.923
 11
-7.56287
 21
205.353
  0
LINE
  8
0
 10
-7.56287
 20
205.353
 11
-8.07086
 21
205.722
  0
LINE
  8
0
 10
-8.07086
 20
205.722
 11
-8.62109
 21
206.024
  0
LINE
  8
0
 10
-8.62109
 20
206.024
 11
-9.20491
 21
206.255
  0
LINE
  8
0
 10
-9.20491
 20
206.255
 11
-9.81308
 21
206.411
  0
LINE
  8
0
 10
-9.81308
 20
206.411
 11
-10.436
 21
206.49
  0
LINE
  8
0
 10
-10.436
 20
206.49
 11
-14.0639
 21
206.49
  0
LINE
  8
0
 10
-14.0639
 20
206.49
 11
-14.6869
 21
206.411
  0
LINE
  8
0
 10
-14.6869
 20
206.411
 11
-15.2951
 21
206.255
  0
LINE
  8
0
 10
-15.2951
 20
206.255
 11
-15.8789
 21
206.024
  0
LINE
  8
0
 10
-15.8789
 20
206.024
 11
-16.4291
 21
205.722
  0
LINE
  8
0
 10
-16.4291
 20
205.722
 11
-16.9371
 21
205.353
  0
LINE
  8
0
 10
-16.9371
 20
205.353
 11
-17.3948
 21
204.923
  0
LINE
  8
0
 10
-17.3948
 20
204.923
 11
-17.7951
 21
204.439
  0
LINE
  8
0
 10
-17.7951
 20
204.439
 11
-18.1315
 21
203.909
  0
LINE
  8
0
 10
-18.1315
 20
203.909
 11
-18.25
 21
203.657
  0
LINE
  8
0
 10
-18.25
 20
203.657
 11
-18.25
 21
233.5
  0
LINE
  8
0
 10
-18.25
 20
233.5
 11
-18.2145
 21
234.064
  0
LINE
  8
0
 10
-18.2145
 20
234.064
 11
-18.1086
 21
234.619
  0
LINE
  8
0
 10
-18.1086
 20
234.619
 11
-17.934
 21
235.157
  0
LINE
  8
0
 10
-17.934
 20
235.157
 11
-17.6934
 21
235.668
  0
LINE
  8
0
 10
-17.6934
 20
235.668
 11
-17.3906
 21
236.145
  0
LINE
  8
0
 10
-17.3906
 20
236.145
 11
-17.0303
 21
236.58
  0
LINE
  8
0
 10
-17.0303
 20
236.58
 11
-16.6184
 21
236.967
  0
LINE
  8
0
 10
-16.6184
 20
236.967
 11
-16.1612
 21
237.299
  0
LINE
  8
0
 10
-16.1612
 20
237.299
 11
-15.666
 21
237.572
  0
LINE
  8
0
 10
-15.666
 20
237.572
 11
-15.1406
 21
237.78
  0
LINE
  8
0
 10
-15.1406
 20
237.78
 11
-14.5932
 21
237.92
  0
LINE
  8
0
 10
-14.5932
 20
237.92
 11
-14.0325
 21
237.991
  0
LINE
  8
0
 10
-14.0325
 20
237.991
 11
14.0325
 21
237.991
  0
LINE
  8
0
 10
14.0325
 20
237.991
 11
14.5932
 21
237.92
  0
LINE
  8
0
 10
14.5932
 20
237.92
 11
15.1406
 21
237.78
  0
LINE
  8
0
 10
15.1406
 20
237.78
 11
15.666
 21
237.572
  0
LINE
  8
0
 10
15.666
 20
237.572
 11
16.1612
 21
237.299
  0
LINE
  8
0
 10
16.1612
 20
237.299
 11
16.6184
 21
236.967
  0
LINE
  8
0
 10
16.6184
 20
236.967
 11
17.0303
 21
236.58
  0
LINE
  8
0
 10
17.0303
 20
236.58
 11
17.3906
 21
236.145
  0
LINE
  8
0
 10
17.3906
 20
236.145
 11
17.6934
 21
235.668
  0
LINE
  8
0
 10
17.6934
 20
235.668
 11
17.934
 21
235.157
  0
LINE
  8
0
 10
17.934
 20
235.157
 11
18.1086
 21
234.619
  0
LINE
  8
0
 10
18.1086
 20
234.619
 11
18.2145
 21
234.064
  0
LINE
  8
0
 10
18.2145
 20
234.064
 11
18.25
 21
233.5
  0
LINE
  8
0
 10
18.25
 20
233.5
 11
18.25
 21
198.5
  0
LINE
  8
0
 10
18.25
 20
198.5
 11
18.2145
 21
197.936
  0
LINE
  8
0
 10
18.2145
 20
197.936
 11
18.1086
 21
197.381
  0
LINE
  8
0
 10
18.1086
 20
197.381
 11
17.934
 21
196.843
  0
LINE
  8
0
 10
17.934
 20
196.843
 11
17.6934
 21
196.332
  0
LINE
  8
0
 10
17.6934
 20
196.332
 11
17.3906
 21
195.855
  0
LINE
  8
0
 10
17.3906
 20
195.855
 11
17.0303
 21
195.42
  0
LINE
  8
0
 10
17.0303
 20
195.42
 11
16.6184
 21
195.033
  0
LINE
  8
0
 10
16.6184
 20
195.033
 11
16.1612
 21
194.701
  0
LINE
  8
0
 10
16.1612
 20
194.701
 11
15.666
 21
194.428
  0
LINE
  8
0
 10
15.666
 20
194.428
 11
15.1406
 21
194.22
  0
LINE
  8
0
 10
15.1406
 20
194.22
 11
14.5932
 21
194.08
  0
LINE
  8
0
 10
14.5932
 20
194.08
 11
14.0325
 21
194.009
  0
LINE
  8
0
 10
14.0325
 20
194.009
 11
-8.56104
 21
194.009
  0
LINE
  8
0
 10
11.7184
 20
228.544
 11
12.0225
 21
228.622
  0
LINE
  8
0
 10
12.0225
 20
228.622
 11
12.3144
 21
228.738
  0
LINE
  8
0
 10
12.3144
 20
228.738
 11
12.5896
 21
228.889
  0
LINE
  8
0
 10
12.5896
 20
228.889
 11
12.8436
 21
229.074
  0
LINE
  8
0
 10
12.8436
 20
229.074
 11
13.0724
 21
229.289
  0
LINE
  8
0
 10
13.0724
 20
229.289
 11
13.2725
 21
229.531
  0
LINE
  8
0
 10
13.2725
 20
229.531
 11
13.4408
 21
229.796
  0
LINE
  8
0
 10
13.4408
 20
229.796
 11
13.5744
 21
230.08
  0
LINE
  8
0
 10
13.5744
 20
230.08
 11
13.6714
 21
230.378
  0
LINE
  8
0
 10
13.6714
 20
230.378
 11
13.7303
 21
230.687
  0
LINE
  8
0
 10
13.7303
 20
230.687
 11
13.75
 21
231
  0
LINE
  8
0
 10
13.75
 20
231
 11
13.7303
 21
231.313
  0
LINE
  8
0
 10
13.7303
 20
231.313
 11
13.6714
 21
231.622
  0
LINE
  8
0
 10
13.6714
 20
231.622
 11
13.5744
 21
231.92
  0
LINE
  8
0
 10
13.5744
 20
231.92
 11
13.4408
 21
232.204
  0
LINE
  8
0
 10
13.4408
 20
232.204
 11
13.2725
 21
232.469
  0
LINE
  8
0
 10
13.2725
 20
232.469
 11
13.0724
 21
232.711
  0
LINE
  8
0
 10
13.0724
 20
232.711
 11
12.8436
 21
232.926
  0
LINE
  8
0
 10
12.8436
 20
232.926
 11
12.5896
 21
233.111
  0
LINE
  8
0
 10
12.5896
 20
233.111
 11
12.3144
 21
233.262
  0
LINE
  8
0
 10
12.3144
 20
233.262
 11
12.0225
 21
233.378
  0
LINE
  8
0
 10
12.0225
 20
233.378
 11
11.7184
 21
233.456
  0
LINE
  8
0
 10
11.7184
 20
233.456
 11
11.407
 21
233.495
  0
LINE
  8
0
 10
11.407
 20
233.495
 11
11.093
 21
233.495
  0
LINE
  8
0
 10
11.093
 20
233.495
 11
10.7815
 21
233.456
  0
LINE
  8
0
 10
10.7815
 20
233.456
 11
10.4774
 21
233.378
  0
LINE
  8
0
 10
10.4774
 20
233.378
 11
10.1855
 21
233.262
  0
LINE
  8
0
 10
10.1855
 20
233.262
 11
9.91043
 21
233.111
  0
LINE
  8
0
 10
9.91043
 20
233.111
 11
9.65643
 21
232.926
  0
LINE
  8
0
 10
9.65643
 20
232.926
 11
9.42757
 21
232.711
  0
LINE
  8
0
 10
9.42757
 20
232.711
 11
9.22745
 21
232.469
  0
LINE
  8
0
 10
9.22745
 20
232.469
 11
9.05922
 21
232.204
  0
LINE
  8
0
 10
9.05922
 20
232.204
 11
8.92555
 21
231.92
  0
LINE
  8
0
 10
8.92555
 20
231.92
 11
8.82854
 21
231.622
  0
LINE
  8
0
 10
8.82854
 20
231.622
 11
8.7697
 21
231.313
  0
LINE
  8
0
 10
8.7697
 20
231.313
 11
8.75
 21
231
  0
LINE
  8
0
 10
8.75
 20
231
 11
8.7697
 21
230.687
  0
LINE
  8
0
 10
8.7697
 20
230.687
 11
8.82854
 21
230.378
  0
LINE
  8
0
 10
8.82854
 20
230.378
 11
8.92555
 21
230.08
  0
LINE
  8
0
 10
8.92555
 20
230.08
 11
9.05922
 21
229.796
  0
LINE
  8
0
 10
9.05922
 20
229.796
 11
9.22745
 21
229.531
  0
LINE
  8
0
 10
9.22745
 20
229.531
 11
9.42757
 21
229.289
  0
LINE
  8
0
 10
9.42757
 20
229.289
 11
9.65643
 21
229.074
  0
LINE
  8
0
 10
9.65643
 20
229.074
 11
9.91043
 21
228.889
  0
LINE
  8
0
 10
9.91043
 20
228.889
 11
10.1855
 21
228.738
  0
LINE
  8
0
 10
10.1855
 20
228.738
 11
10.4774
 21
228.622
  0
LINE
  8
0
 10
10.4774
 20
228.622
 11
10.7815
 21
228.544
  0
LINE
  8
0
 10
10.7815
 20
228.544
 11
11.093
 21
228.505
  0
LINE
  8
0
 10
11.093
 20
228.505
 11
11.407
 21
228.505
  0
LINE
  8
0
 10
11.407
 20
228.505
 11
11.7184
 21
228.544
  0
LINE
  8
0
 10
11.1558
 20
229.503
 11
10.9689
 21
229.527
  0
LINE
  8
0
 10
10.9689
 20
229.527
 11
10.7865
 21
229.573
  0
LINE
  8
0
 10
10.7865
 20
229.573
 11
10.6113
 21
229.643
  0
LINE
  8
0
 10
10.6113
 20
229.643
 11
10.4463
 21
229.734
  0
LINE
  8
0
 10
10.4463
 20
229.734
 11
10.2939
 21
229.844
  0
LINE
  8
0
 10
10.2939
 20
229.844
 11
10.1565
 21
229.973
  0
LINE
  8
0
 10
10.1565
 20
229.973
 11
10.0365
 21
230.118
  0
LINE
  8
0
 10
10.0365
 20
230.118
 11
9.93553
 21
230.277
  0
LINE
  8
0
 10
9.93553
 20
230.277
 11
9.85533
 21
230.448
  0
LINE
  8
0
 10
9.85533
 20
230.448
 11
9.79712
 21
230.627
  0
LINE
  8
0
 10
9.79712
 20
230.627
 11
9.76183
 21
230.812
  0
LINE
  8
0
 10
9.76183
 20
230.812
 11
9.75
 21
231
  0
LINE
  8
0
 10
9.75
 20
231
 11
9.76183
 21
231.188
  0
LINE
  8
0
 10
9.76183
 20
231.188
 11
9.79712
 21
231.373
  0
LINE
  8
0
 10
9.79712
 20
231.373
 11
9.85533
 21
231.552
  0
LINE
  8
0
 10
9.85533
 20
231.552
 11
9.93553
 21
231.723
  0
LINE
  8
0
 10
9.93553
 20
231.723
 11
10.0365
 21
231.882
  0
LINE
  8
0
 10
10.0365
 20
231.882
 11
10.1565
 21
232.027
  0
LINE
  8
0
 10
10.1565
 20
232.027
 11
10.2939
 21
232.156
  0
LINE
  8
0
 10
10.2939
 20
232.156
 11
10.4463
 21
232.266
  0
LINE
  8
0
 10
10.4463
 20
232.266
 11
10.6113
 21
232.357
  0
LINE
  8
0
 10
10.6113
 20
232.357
 11
10.7865
 21
232.427
  0
LINE
  8
0
 10
10.7865
 20
232.427
 11
10.9689
 21
232.473
  0
LINE
  8
0
 10
10.9689
 20
232.473
 11
11.1558
 21
232.497
  0
LINE
  8
0
 10
11.1558
 20
232.497
 11
11.3442
 21
232.497
  0
LINE
  8
0
 10
11.3442
 20
232.497
 11
11.5311
 21
232.473
  0
LINE
  8
0
 10
11.5311
 20
232.473
 11
11.7135
 21
232.427
  0
LINE
  8
0
 10
11.7135
 20
232.427
 11
11.8887
 21
232.357
  0
LINE
  8
0
 10
11.8887
 20
232.357
 11
12.0537
 21
232.266
  0
LINE
  8
0
 10
12.0537
 20
232.266
 11
12.2061
 21
232.156
  0
LINE
  8
0
 10
12.2061
 20
232.156
 11
12.3434
 21
232.027
  0
LINE
  8
0
 10
12.3434
 20
232.027
 11
12.4635
 21
231.882
  0
LINE
  8
0
 10
12.4635
 20
231.882
 11
12.5645
 21
231.723
  0
LINE
  8
0
 10
12.5645
 20
231.723
 11
12.6447
 21
231.552
  0
LINE
  8
0
 10
12.6447
 20
231.552
 11
12.7029
 21
231.373
  0
LINE
  8
0
 10
12.7029
 20
231.373
 11
12.7382
 21
231.188
  0
LINE
  8
0
 10
12.7382
 20
231.188
 11
12.75
 21
231
  0
LINE
  8
0
 10
12.75
 20
231
 11
12.7382
 21
230.812
  0
LINE
  8
0
 10
12.7382
 20
230.812
 11
12.7029
 21
230.627
  0
LINE
  8
0
 10
12.7029
 20
230.627
 11
12.6447
 21
230.448
  0
LINE
  8
0
 10
12.6447
 20
230.448
 11
12.5645
 21
230.277
  0
LINE
  8
0
 10
12.5645
 20
230.277
 11
12.4635
 21
230.118
  0
LINE
  8
0
 10
12.4635
 20
230.118
 11
12.3434
 21
229.973
  0
LINE
  8
0
 10
12.3434
 20
229.973
 11
12.2061
 21
229.844
  0
LINE
  8
0
 10
12.2061
 20
229.844
 11
12.0537
 21
229.734
  0
LINE
  8
0
 10
12.0537
 20
229.734
 11
11.8887
 21
229.643
  0
LINE
  8
0
 10
11.8887
 20
229.643
 11
11.7135
 21
229.573
  0
LINE
  8
0
 10
11.7135
 20
229.573
 11
11.5311
 21
229.527
  0
LINE
  8
0
 10
11.5311
 20
229.527
 11
11.3442
 21
229.503
  0
LINE
  8
0
 10
11.3442
 20
229.503
 11
11.1558
 21
229.503
  0
LINE
  8
0
 10
-11.3442
 20
199.503
 11
-11.5311
 21
199.527
  0
LINE
  8
0
 10
-11.5311
 20
199.527
 11
-11.7135
 21
199.573
  0
LINE
  8
0
 10
-11.7135
 20
199.573
 11
-11.8887
 21
199.643
  0
LINE
  8
0
 10
-11.8887
 20
199.643
 11
-12.0537
 21
199.734
  0
LINE
  8
0
 10
-12.0537
 20
199.734
 11
-12.2061
 21
199.844
  0
LINE
  8
0
 10
-12.2061
 20
199.844
 11
-12.3434
 21
199.973
  0
LINE
  8
0
 10
-12.3434
 20
199.973
 11
-12.4635
 21
200.118
  0
LINE
  8
0
 10
-12.4635
 20
200.118
 11
-12.5645
 21
200.277
  0
LINE
  8
0
 10
-12.5645
 20
200.277
 11
-12.6447
 21
200.448
  0
LINE
  8
0
 10
-12.6447
 20
200.448
 11
-12.7029
 21
200.627
  0
LINE
  8
0
 10
-12.7029
 20
200.627
 11
-12.7382
 21
200.812
  0
LINE
  8
0
 10
-12.7382
 20
200.812
 11
-12.75
 21
201
  0
LINE
  8
0
 10
-12.75
 20
201
 11
-12.7382
 21
201.188
  0
LINE
  8
0
 10
-12.7382
 20
201.188
 11
-12.7029
 21
201.373
  0
LINE
  8
0
 10
-12.7029
 20
201.373
 11
-12.6447
 21
201.552
  0
LINE
  8
0
 10
-12.6447
 20
201.552
 11
-12.5645
 21
201.723
  0
LINE
  8
0
 10
-12.5645
 20
201.723
 11
-12.4635
 21
201.882
  0
LINE
  8
0
 10
-12.4635
 20
201.882
 11
-12.3434
 21
202.027
  0
LINE
  8
0
 10
-12.3434
 20
202.027
 11
-12.2061
 21
202.156
  0
LINE
  8
0
 10
-12.2061
 20
202.156
 11
-12.0537
 21
202.266
  0
LINE
  8
0
 10
-12.0537
 20
202.266
 11
-11.8887
 21
202.357
  0
LINE
  8
0
 10
-11.8887
 20
202.357
 11
-11.7135
 21
202.427
  0
LINE
  8
0
 10
-11.7135
 20
202.427
 11
-11.5311
 21
202.473
  0
LINE
  8
0
 10
-11.5311
 20
202.473
 11
-11.3442
 21
202.497
  0
LINE
  8
0
 10
-11.3442
 20
202.497
 11
-11.1558
 21
202.497
  0
LINE
  8
0
 10
-11.1558
 20
202.497
 11
-10.9689
 21
202.473
  0
LINE
  8
0
 10
-10.9689
 20
202.473
 11
-10.7865
 21
202.427
  0
LINE
  8
0
 10
-10.7865
 20
202.427
 11
-10.6113
 21
202.357
  0
LINE
  8
0
 10
-10.6113
 20
202.357
 11
-10.4463
 21
202.266
  0
LINE
  8
0
 10
-10.4463
 20
202.266
 11
-10.2939
 21
202.156
  0
LINE
  8
0
 10
-10.2939
 20
202.156
 11
-10.1565
 21
202.027
  0
LINE
  8
0
 10
-10.1565
 20
202.027
 11
-10.0365
 21
201.882
  0
LINE
  8
0
 10
-10.0365
 20
201.882
 11
-9.93553
 21
201.723
  0
LINE
  8
0
 10
-9.93553
 20
201.723
 11
-9.85533
 21
201.552
  0
LINE
  8
0
 10
-9.85533
 20
201.552
 11
-9.79712
 21
201.373
  0
LINE
  8
0
 10
-9.79712
 20
201.373
 11
-9.76183
 21
201.188
  0
LINE
  8
0
 10
-9.76183
 20
201.188
 11
-9.75
 21
201
  0
LINE
  8
0
 10
-9.75
 20
201
 11
-9.76183
 21
200.812
  0
LINE
  8
0
 10
-9.76183
 20
200.812
 11
-9.79712
 21
200.627
  0
LINE
  8
0
 10
-9.79712
 20
200.627
 11
-9.85533
 21
200.448
  0
LINE
  8
0
 10
-9.85533
 20
200.448
 11
-9.93553
 21
200.277
  0
LINE
  8
0
 10
-9.93553
 20
200.277
 11
-10.0365
 21
200.118
  0
LINE
  8
0
 10
-10.0365
 20
200.118
 11
-10.1565
 21
199.973
  0
LINE
  8
0
 10
-10.1565
 20
199.973
 11
-10.2939
 21
199.844
  0
LINE
  8
0
 10
-10.2939
 20
199.844
 11
-10.4463
 21
199.734
  0
LINE
  8
0
 10
-10.4463
 20
199.734
 11
-10.6113
 21
199.643
  0
LINE
  8
0
 10
-10.6113
 20
199.643
 11
-10.7865
 21
199.573
  0
LINE
  8
0
 10
-10.7865
 20
199.573
 11
-10.9689
 21
199.527
  0
LINE
  8
0
 10
-10.9689
 20
199.527
 11
-11.1558
 21
199.503
  0
LINE
  8
0
 10
-11.1558
 20
199.503
 11
-11.3442
 21
199.503
  0
LINE
  8
0
 10
14.6869
 20
139.589
 11
15.2951
 21
139.745
  0
LINE
  8
0
 10
15.2951
 20
139.745
 11
15.8789
 21
139.976
  0
LINE
  8
0
 10
15.8789
 20
139.976
 11
16.4291
 21
140.278
  0
LINE
  8
0
 10
16.4291
 20
140.278
 11
16.9371
 21
140.647
  0
LINE
  8
0
 10
16.9371
 20
140.647
 11
17.3948
 21
141.077
  0
LINE
  8
0
 10
17.3948
 20
141.077
 11
17.7951
 21
141.561
  0
LINE
  8
0
 10
17.7951
 20
141.561
 11
18.1315
 21
142.091
  0
LINE
  8
0
 10
18.1315
 20
142.091
 11
18.3989
 21
142.659
  0
LINE
  8
0
 10
18.3989
 20
142.659
 11
18.5929
 21
143.257
  0
LINE
  8
0
 10
18.5929
 20
143.257
 11
18.7106
 21
143.873
  0
LINE
  8
0
 10
18.7106
 20
143.873
 11
18.75
 21
144.5
  0
LINE
  8
0
 10
18.75
 20
144.5
 11
18.75
 21
179.5
  0
LINE
  8
0
 10
18.75
 20
179.5
 11
18.7106
 21
180.127
  0
LINE
  8
0
 10
18.7106
 20
180.127
 11
18.5929
 21
180.743
  0
LINE
  8
0
 10
18.5929
 20
180.743
 11
18.3989
 21
181.341
  0
LINE
  8
0
 10
18.3989
 20
181.341
 11
18.1315
 21
181.909
  0
LINE
  8
0
 10
18.1315
 20
181.909
 11
17.7951
 21
182.439
  0
LINE
  8
0
 10
17.7951
 20
182.439
 11
17.3948
 21
182.923
  0
LINE
  8
0
 10
17.3948
 20
182.923
 11
16.9371
 21
183.353
  0
LINE
  8
0
 10
16.9371
 20
183.353
 11
16.4291
 21
183.722
  0
LINE
  8
0
 10
16.4291
 20
183.722
 11
15.8789
 21
184.024
  0
LINE
  8
0
 10
15.8789
 20
184.024
 11
15.2951
 21
184.255
  0
LINE
  8
0
 10
15.2951
 20
184.255
 11
14.6869
 21
184.411
  0
LINE
  8
0
 10
14.6869
 20
184.411
 11
14.0639
 21
184.49
  0
LINE
  8
0
 10
14.0639
 20
184.49
 11
-14.0639
 21
184.49
  0
LINE
  8
0
 10
-14.0639
 20
184.49
 11
-14.6869
 21
184.411
  0
LINE
  8
0
 10
-14.6869
 20
184.411
 11
-15.2951
 21
184.255
  0
LINE
  8
0
 10
-15.2951
 20
184.255
 11
-15.8789
 21
184.024
  0
LINE
  8
0
 10
-15.8789
 20
184.024
 11
-16.4291
 21
183.722
  0
LINE
  8
0
 10
-16.4291
 20
183.722
 11
-16.9371
 21
183.353
  0
LINE
  8
0
 10
-16.9371
 20
183.353
 11
-17.3948
 21
182.923
  0
LINE
  8
0
 10
-17.3948
 20
182.923
 11
-17.7951
 21
182.439
  0
LINE
  8
0
 10
-17.7951
 20
182.439
 11
-18.1315
 21
181.909
  0
LINE
  8
0
 10
-18.1315
 20
181.909
 11
-18.3989
 21
181.341
  0
LINE
  8
0
 10
-18.3989
 20
181.341
 11
-18.5929
 21
180.743
  0
LINE
  8
0
 10
-18.5929
 20
180.743
 11
-18.7106
 21
180.127
  0
LINE
  8
0
 10
-18.7106
 20
180.127
 11
-18.75
 21
179.5
  0
LINE
  8
0
 10
-18.75
 20
179.5
 11
-18.75
 21
144.5
  0
LINE
  8
0
 10
-18.75
 20
144.5
 11
-18.7106
 21
143.873
  0
LINE
  8
0
 10
-18.7106
 20
143.873
 11
-18.5929
 21
143.257
  0
LINE
  8
0
 10
-18.5929
 20
143.257
 11
-18.3989
 21
142.659
  0
LINE
  8
0
 10
-18.3989
 20
142.659
 11
-18.1315
 21
142.091
  0
LINE
  8
0
 10
-18.1315
 20
142.091
 11
-17.7951
 21
141.561
  0
LINE
  8
0
 10
-17.7951
 20
141.561
 11
-17.3948
 21
141.077
  0
LINE
  8
0
 10
-17.3948
 20
141.077
 11
-16.9371
 21
140.647
  0
LINE
  8
0
 10
-16.9371
 20
140.647
 11
-16.4291
 21
140.278
  0
LINE
  8
0
 10
-16.4291
 20
140.278
 11
-15.8789
 21
139.976
  0
LINE
  8
0
 10
-15.8789
 20
139.976
 11
-15.2951
 21
139.745
  0
LINE
  8
0
 10
-15.2951
 20
139.745
 11
-14.6869
 21
139.589
  0
LINE
  8
0
 10
-14.6869
 20
139.589
 11
-14.0639
 21
139.51
  0
LINE
  8
0
 10
-14.0639
 20
139.51
 11
14.0639
 21
139.51
  0
LINE
  8
0
 10
14.0639
 20
139.51
 11
14.6869
 21
139.589
  0
LINE
  8
0
 10
-7.78568
 20
140.486
 11
-7.56287
 21
140.647
  0
LINE
  8
0
 10
-7.56287
 20
140.647
 11
-7.10515
 21
141.077
  0
LINE
  8
0
 10
-7.10515
 20
141.077
 11
-6.70491
 21
141.561
  0
LINE
  8
0
 10
-6.70491
 20
141.561
 11
-6.36845
 21
142.091
  0
LINE
  8
0
 10
-6.36845
 20
142.091
 11
-6.1011
 21
142.659
  0
LINE
  8
0
 10
-6.1011
 20
142.659
 11
-5.90707
 21
143.257
  0
LINE
  8
0
 10
-5.90707
 20
143.257
 11
-5.78941
 21
143.873
  0
LINE
  8
0
 10
-5.78941
 20
143.873
 11
-5.75
 21
144.5
  0
LINE
  8
0
 10
-5.75
 20
144.5
 11
-5.75
 21
147.5
  0
LINE
  8
0
 10
-5.75
 20
147.5
 11
-5.78941
 21
148.127
  0
LINE
  8
0
 10
-5.78941
 20
148.127
 11
-5.90707
 21
148.743
  0
LINE
  8
0
 10
-5.90707
 20
148.743
 11
-6.1011
 21
149.341
  0
LINE
  8
0
 10
-6.1011
 20
149.341
 11
-6.36845
 21
149.909
  0
LINE
  8
0
 10
-6.36845
 20
149.909
 11
-6.70491
 21
150.439
  0
LINE
  8
0
 10
-6.70491
 20
150.439
 11
-7.10515
 21
150.923
  0
LINE
  8
0
 10
-7.10515
 20
150.923
 11
-7.56287
 21
151.353
  0
LINE
  8
0
 10
-7.56287
 20
151.353
 11
-8.07086
 21
151.722
  0
LINE
  8
0
 10
-8.07086
 20
151.722
 11
-8.62109
 21
152.024
  0
LINE
  8
0
 10
-8.62109
 20
152.024
 11
-9.20491
 21
152.255
  0
LINE
  8
0
 10
-9.20491
 20
152.255
 11
-9.81308
 21
152.411
  0
LINE
  8
0
 10
-9.81308
 20
152.411
 11
-10.436
 21
152.49
  0
LINE
  8
0
 10
-10.436
 20
152.49
 11
-14.0639
 21
152.49
  0
LINE
  8
0
 10
-14.0639
 20
152.49
 11
-14.6869
 21
152.411
  0
LINE
  8
0
 10
-14.6869
 20
152.411
 11
-15.2951
 21
152.255
  0
LINE
  8
0
 10
-15.2951
 20
152.255
 11
-15.8789
 21
152.024
  0
LINE
  8
0
 10
-15.8789
 20
152.024
 11
-16.4291
 21
151.722
  0
LINE
  8
0
 10
-16.4291
 20
151.722
 11
-16.9371
 21
151.353
  0
LINE
  8
0
 10
-16.9371
 20
151.353
 11
-17.3948
 21
150.923
  0
LINE
  8
0
 10
-17.3948
 20
150.923
 11
-17.7724
 21
150.466
  0
LINE
  8
0
 10
-17.7724
 20
150.466
 11
-17.7724
 21
179.5
  0
LINE
  8
0
 10
-17.7724
 20
179.5
 11
-17.7407
 21
180.004
  0
LINE
  8
0
 10
-17.7407
 20
180.004
 11
-17.646
 21
180.5
  0
LINE
  8
0
 10
-17.646
 20
180.5
 11
-17.4899
 21
180.981
  0
LINE
  8
0
 10
-17.4899
 20
180.981
 11
-17.2748
 21
181.438
  0
LINE
  8
0
 10
-17.2748
 20
181.438
 11
-17.0042
 21
181.864
  0
LINE
  8
0
 10
-17.0042
 20
181.864
 11
-16.6822
 21
182.254
  0
LINE
  8
0
 10
-16.6822
 20
182.254
 11
-16.3139
 21
182.599
  0
LINE
  8
0
 10
-16.3139
 20
182.599
 11
-15.9053
 21
182.896
  0
LINE
  8
0
 10
-15.9053
 20
182.896
 11
-15.4626
 21
183.14
  0
LINE
  8
0
 10
-15.4626
 20
183.14
 11
-14.993
 21
183.326
  0
LINE
  8
0
 10
-14.993
 20
183.326
 11
-14.5037
 21
183.451
  0
LINE
  8
0
 10
-14.5037
 20
183.451
 11
-14.0026
 21
183.514
  0
LINE
  8
0
 10
-14.0026
 20
183.514
 11
7.78568
 21
183.514
  0
LINE
  8
0
 10
7.78568
 20
183.514
 11
7.56287
 21
183.353
  0
LINE
  8
0
 10
7.56287
 20
183.353
 11
7.10515
 21
182.923
  0
LINE
  8
0
 10
7.10515
 20
182.923
 11
6.70491
 21
182.439
  0
LINE
  8
0
 10
6.70491
 20
182.439
 11
6.36845
 21
181.909
  0
LINE
  8
0
 10
6.36845
 20
181.909
 11
6.1011
 21
181.341
  0
LINE
  8
0
 10
6.1011
 20
181.341
 11
5.90707
 21
180.743
  0
LINE
  8
0
 10
5.90707
 20
180.743
 11
5.78941
 21
180.127
  0
LINE
  8
0
 10
5.78941
 20
180.127
 11
5.75
 21
179.5
  0
LINE
  8
0
 10
5.75
 20
179.5
 11
5.75
 21
176.5
  0
LINE
  8
0
 10
5.75
 20
176.5
 11
5.78941
 21
175.873
  0
LINE
  8
0
 10
5.78941
 20
175.873
 11
5.90707
 21
175.257
  0
LINE
  8
0
 10
5.90707
 20
175.257
 11
6.1011
 21
174.659
  0
LINE
  8
0
 10
6.1011
 20
174.659
 11
6.36845
 21
174.091
  0
LINE
  8
0
 10
6.36845
 20
174.091
 11
6.70491
 21
173.561
  0
LINE
  8
0
 10
6.70491
 20
173.561
 11
7.10515
 21
173.077
  0
LINE
  8
0
 10
7.10515
 20
173.077
 11
7.56287
 21
172.647
  0
LINE
  8
0
 10
7.56287
 20
172.647
 11
8.07086
 21
172.278
  0
LINE
  8
0
 10
8.07086
 20
172.278
 11
8.62109
 21
171.976
  0
LINE
  8
0
 10
8.62109
 20
171.976
 11
9.20491
 21
171.745
  0
LINE
  8
0
 10
9.20491
 20
171.745
 11
9.81308
 21
171.589
  0
LINE
  8
0
 10
9.81308
 20
171.589
 11
10.436
 21
171.51
  0
LINE
  8
0
 10
10.436
 20
171.51
 11
14.0639
 21
171.51
  0
LINE
  8
0
 10
14.0639
 20
171.51
 11
14.6869
 21
171.589
  0
LINE
  8
0
 10
14.6869
 20
171.589
 11
15.2951
 21
171.745
  0
LINE
  8
0
 10
15.2951
 20
171.745
 11
15.8789
 21
171.976
  0
LINE
  8
0
 10
15.8789
 20
171.976
 11
16.4291
 21
172.278
  0
LINE
  8
0
 10
16.4291
 20
172.278
 11
16.9371
 21
172.647
  0
LINE
  8
0
 10
16.9371
 20
172.647
 11
17.3948
 21
173.077
  0
LINE
  8
0
 10
17.3948
 20
173.077
 11
17.7724
 21
173.534
  0
LINE
  8
0
 10
17.7724
 20
173.534
 11
17.7724
 21
144.5
  0
LINE
  8
0
 10
17.7724
 20
144.5
 11
17.7407
 21
143.996
  0
LINE
  8
0
 10
17.7407
 20
143.996
 11
17.646
 21
143.5
  0
LINE
  8
0
 10
17.646
 20
143.5
 11
17.4899
 21
143.019
  0
LINE
  8
0
 10
17.4899
 20
143.019
 11
17.2748
 21
142.562
  0
LINE
  8
0
 10
17.2748
 20
142.562
 11
17.0042
 21
142.136
  0
LINE
  8
0
 10
17.0042
 20
142.136
 11
16.6822
 21
141.746
  0
LINE
  8
0
 10
16.6822
 20
141.746
 11
16.3139
 21
141.401
  0
LINE
  8
0
 10
16.3139
 20
141.401
 11
15.9053
 21
141.104
  0
LINE
  8
0
 10
15.9053
 20
141.104
 11
15.4626
 21
140.86
  0
LINE
  8
0
 10
15.4626
 20
140.86
 11
14.993
 21
140.674
  0
LINE
  8
0
 10
14.993
 20
140.674
 11
14.5037
 21
140.549
  0
LINE
  8
0
 10
14.5037
 20
140.549
 11
14.0026
 21
140.486
  0
LINE
  8
0
 10
14.0026
 20
140.486
 11
-7.78568
 21
140.486
  0
LINE
  8
0
 10
11.1558
 20
175.503
 11
10.9689
 21
175.527
  0
LINE
  8
0
 10
10.9689
 20
175.527
 11
10.7865
 21
175.573
  0
LINE
  8
0
 10
10.7865
 20
175.573
 11
10.6113
 21
175.643
  0
LINE
  8
0
 10
10.6113
 20
175.643
 11
10.4463
 21
175.734
  0
LINE
  8
0
 10
10.4463
 20
175.734
 11
10.2939
 21
175.844
  0
LINE
  8
0
 10
10.2939
 20
175.844
 11
10.1565
 21
175.973
  0
LINE
  8
0
 10
10.1565
 20
175.973
 11
10.0365
 21
176.118
  0
LINE
  8
0
 10
10.0365
 20
176.118
 11
9.93553
 21
176.277
  0
LINE
  8
0
 10
9.93553
 20
176.277
 11
9.85533
 21
176.448
  0
LINE
  8
0
 10
9.85533
 20
176.448
 11
9.79712
 21
176.627
  0
LINE
  8
0
 10
9.79712
 20
176.627
 11
9.76183
 21
176.812
  0
LINE
  8
0
 10
9.76183
 20
176.812
 11
9.75
 21
177
  0
LINE
  8
0
 10
9.75
 20
177
 11
9.76183
 21
177.188
  0
LINE
  8
0
 10
9.76183
 20
177.188
 11
9.79712
 21
177.373
  0
LINE
  8
0
 10
9.79712
 20
177.373
 11
9.85533
 21
177.552
  0
LINE
  8
0
 10
9.85533
 20
177.552
 11
9.93553
 21
177.723
  0
LINE
  8
0
 10
9.93553
 20
177.723
 11
10.0365
 21
177.882
  0
LINE
  8
0
 10
10.0365
 20
177.882
 11
10.1565
 21
178.027
  0
LINE
  8
0
 10
10.1565
 20
178.027
 11
10.2939
 21
178.156
  0
LINE
  8
0
 10
10.2939
 20
178.156
 11
10.4463
 21
178.266
  0
LINE
  8
0
 10
10.4463
 20
178.266
 11
10.6113
 21
178.357
  0
LINE
  8
0
 10
10.6113
 20
178.357
 11
10.7865
 21
178.427
  0
LINE
  8
0
 10
10.7865
 20
178.427
 11
10.9689
 21
178.473
  0
LINE
  8
0
 10
10.9689
 20
178.473
 11
11.1558
 21
178.497
  0
LINE
  8
0
 10
11.1558
 20
178.497
 11
11.3442
 21
178.497
  0
LINE
  8
0
 10
11.3442
 20
178.497
 11
11.5311
 21
178.473
  0
LINE
  8
0
 10
11.5311
 20
178.473
 11
11.7135
 21
178.427
  0
LINE
  8
0
 10
11.7135
 20
178.427
 11
11.8887
 21
178.357
  0
LINE
  8
0
 10
11.8887
 20
178.357
 11
12.0537
 21
178.266
  0
LINE
  8
0
 10
12.0537
 20
178.266
 11
12.2061
 21
178.156
  0
LINE
  8
0
 10
12.2061
 20
178.156
 11
12.3434
 21
178.027
  0
LINE
  8
0
 10
12.3434
 20
178.027
 11
12.4635
 21
177.882
  0
LINE
  8
0
 10
12.4635
 20
177.882
 11
12.5645
 21
177.723
  0
LINE
  8
0
 10
12.5645
 20
177.723
 11
12.6447
 21
177.552
  0
LINE
  8
0
 10
12.6447
 20
177.552
 11
12.7029
 21
177.373
  0
LINE
  8
0
 10
12.7029
 20
177.373
 11
12.7382
 21
177.188
  0
LINE
  8
0
 10
12.7382
 20
177.188
 11
12.75
 21
177
  0
LINE
  8
0
 10
12.75
 20
177
 11
12.7382
 21
176.812
  0
LINE
  8
0
 10
12.7382
 20
176.812
 11
12.7029
 21
176.627
  0
LINE
  8
0
 10
12.7029
 20
176.627
 11
12.6447
 21
176.448
  0
LINE
  8
0
 10
12.6447
 20
176.448
 11
12.5645
 21
176.277
  0
LINE
  8
0
 10
12.5645
 20
176.277
 11
12.4635
 21
176.118
  0
LINE
  8
0
 10
12.4635
 20
176.118
 11
12.3434
 21
175.973
  0
LINE
  8
0
 10
12.3434
 20
175.973
 11
12.2061
 21
175.844
  0
LINE
  8
0
 10
12.2061
 20
175.844
 11
12.0537
 21
175.734
  0
LINE
  8
0
 10
12.0537
 20
175.734
 11
11.8887
 21
175.643
  0
LINE
  8
0
 10
11.8887
 20
175.643
 11
11.7135
 21
175.573
  0
LINE
  8
0
 10
11.7135
 20
175.573
 11
11.5311
 21
175.527
  0
LINE
  8
0
 10
11.5311
 20
175.527
 11
11.3442
 21
175.503
  0
LINE
  8
0
 10
11.3442
 20
175.503
 11
11.1558
 21
175.503
  0
LINE
  8
0
 10
-11.3442
 20
145.503
 11
-11.5311
 21
145.527
  0
LINE
  8
0
 10
-11.5311
 20
145.527
 11
-11.7135
 21
145.573
  0
LINE
  8
0
 10
-11.7135
 20
145.573
 11
-11.8887
 21
145.643
  0
LINE
  8
0
 10
-11.8887
 20
145.643
 11
-12.0537
 21
145.734
  0
LINE
  8
0
 10
-12.0537
 20
145.734
 11
-12.2061
 21
145.844
  0
LINE
  8
0
 10
-12.2061
 20
145.844
 11
-12.3434
 21
145.973
  0
LINE
  8
0
 10
-12.3434
 20
145.973
 11
-12.4635
 21
146.118
  0
LINE
  8
0
 10
-12.4635
 20
146.118
 11
-12.5645
 21
146.277
  0
LINE
  8
0
 10
-12.5645
 20
146.277
 11
-12.6447
 21
146.448
  0
LINE
  8
0
 10
-12.6447
 20
146.448
 11
-12.7029
 21
146.627
  0
LINE
  8
0
 10
-12.7029
 20
146.627
 11
-12.7382
 21
146.812
  0
LINE
  8
0
 10
-12.7382
 20
146.812
 11
-12.75
 21
147
  0
LINE
  8
0
 10
-12.75
 20
147
 11
-12.7382
 21
147.188
  0
LINE
  8
0
 10
-12.7382
 20
147.188
 11
-12.7029
 21
147.373
  0
LINE
  8
0
 10
-12.7029
 20
147.373
 11
-12.6447
 21
147.552
  0
LINE
  8
0
 10
-12.6447
 20
147.552
 11
-12.5645
 21
147.723
  0
LINE
  8
0
 10
-12.5645
 20
147.723
 11
-12.4635
 21
147.882
  0
LINE
  8
0
 10
-12.4635
 20
147.882
 11
-12.3434
 21
148.027
  0
LINE
  8
0
 10
-12.3434
 20
148.027
 11
-12.2061
 21
148.156
  0
LINE
  8
0
 10
-12.2061
 20
148.156
 11
-12.0537
 21
148.266
  0
LINE
  8
0
 10
-12.0537
 20
148.266
 11
-11.8887
 21
148.357
  0
LINE
  8
0
 10
-11.8887
 20
148.357
 11
-11.7135
 21
148.427
  0
LINE
  8
0
 10
-11.7135
 20
148.427
 11
-11.5311
 21
148.473
  0
LINE
  8
0
 10
-11.5311
 20
148.473
 11
-11.3442
 21
148.497
  0
LINE
  8
0
 10
-11.3442
 20
148.497
 11
-11.1558
 21
148.497
  0
LINE
  8
0
 10
-11.1558
 20
148.497
 11
-10.9689
 21
148.473
  0
LINE
  8
0
 10
-10.9689
 20
148.473
 11
-10.7865
 21
148.427
  0
LINE
  8
0
 10
-10.7865
 20
148.427
 11
-10.6113
 21
148.357
  0
LINE
  8
0
 10
-10.6113
 20
148.357
 11
-10.4463
 21
148.266
  0
LINE
  8
0
 10
-10.4463
 20
148.266
 11
-10.2939
 21
148.156
  0
LINE
  8
0
 10
-10.2939
 20
148.156
 11
-10.1565
 21
148.027
  0
LINE
  8
0
 10
-10.1565
 20
148.027
 11
-10.0365
 21
147.882
  0
LINE
  8
0
 10
-10.0365
 20
147.882
 11
-9.93553
 21
147.723
  0
LINE
  8
0
 10
-9.93553
 20
147.723
 11
-9.85533
 21
147.552
  0
LINE
  8
0
 10
-9.85533
 20
147.552
 11
-9.79712
 21
147.373
  0
LINE
  8
0
 10
-9.79712
 20
147.373
 11
-9.76183
 21
147.188
  0
LINE
  8
0
 10
-9.76183
 20
147.188
 11
-9.75
 21
147
  0
LINE
  8
0
 10
-9.75
 20
147
 11
-9.76183
 21
146.812
  0
LINE
  8
0
 10
-9.76183
 20
146.812
 11
-9.79712
 21
146.627
  0
LINE
  8
0
 10
-9.79712
 20
146.627
 11
-9.85533
 21
146.448
  0
LINE
  8
0
 10
-9.85533
 20
146.448
 11
-9.93553
 21
146.277
  0
LINE
  8
0
 10
-9.93553
 20
146.277
 11
-10.0365
 21
146.118
  0
LINE
  8
0
 10
-10.0365
 20
146.118
 11
-10.1565
 21
145.973
  0
LINE
  8
0
 10
-10.1565
 20
145.973
 11
-10.2939
 21
145.844
  0
LINE
  8
0
 10
-10.2939
 20
145.844
 11
-10.4463
 21
145.734
  0
LINE
  8
0
 10
-10.4463
 20
145.734
 11
-10.6113
 21
145.643
  0
LINE
  8
0
 10
-10.6113
 20
145.643
 11
-10.7865
 21
145.573
  0
LINE
  8
0
 10
-10.7865
 20
145.573
 11
-10.9689
 21
145.527
  0
LINE
  8
0
 10
-10.9689
 20
145.527
 11
-11.1558
 21
145.503
  0
LINE
  8
0
 10
-11.1558
 20
145.503
 11
-11.3442
 21
145.503
  0
LINE
  8
0
 10
14.6869
 20
85.5886
 11
15.2951
 21
85.7447
  0
LINE
  8
0
 10
15.2951
 20
85.7447
 11
15.8789
 21
85.9759
  0
LINE
  8
0
 10
15.8789
 20
85.9759
 11
16.4291
 21
86.2784
  0
LINE
  8
0
 10
16.4291
 20
86.2784
 11
16.9371
 21
86.6474
  0
LINE
  8
0
 10
16.9371
 20
86.6474
 11
17.3948
 21
87.0773
  0
LINE
  8
0
 10
17.3948
 20
87.0773
 11
17.7951
 21
87.5611
  0
LINE
  8
0
 10
17.7951
 20
87.5611
 11
18.1315
 21
88.0912
  0
LINE
  8
0
 10
18.1315
 20
88.0912
 11
18.3989
 21
88.6594
  0
LINE
  8
0
 10
18.3989
 20
88.6594
 11
18.5929
 21
89.2566
  0
LINE
  8
0
 10
18.5929
 20
89.2566
 11
18.7106
 21
89.8733
  0
LINE
  8
0
 10
18.7106
 20
89.8733
 11
18.75
 21
90.5
  0
LINE
  8
0
 10
18.75
 20
90.5
 11
18.75
 21
125.5
  0
LINE
  8
0
 10
18.75
 20
125.5
 11
18.7106
 21
126.127
  0
LINE
  8
0
 10
18.7106
 20
126.127
 11
18.5929
 21
126.743
  0
LINE
  8
0
 10
18.5929
 20
126.743
 11
18.3989
 21
127.341
  0
LINE
  8
0
 10
18.3989
 20
127.341
 11
18.1315
 21
127.909
  0
LINE
  8
0
 10
18.1315
 20
127.909
 11
17.7951
 21
128.439
  0
LINE
  8
0
 10
17.7951
 20
128.439
 11
17.3948
 21
128.923
  0
LINE
  8
0
 10
17.3948
 20
128.923
 11
16.9371
 21
129.353
  0
LINE
  8
0
 10
16.9371
 20
129.353
 11
16.4291
 21
129.722
  0
LINE
  8
0
 10
16.4291
 20
129.722
 11
15.8789
 21
130.024
  0
LINE
  8
0
 10
15.8789
 20
130.024
 11
15.2951
 21
130.255
  0
LINE
  8
0
 10
15.2951
 20
130.255
 11
14.6869
 21
130.411
  0
LINE
  8
0
 10
14.6869
 20
130.411
 11
14.0639
 21
130.49
  0
LINE
  8
0
 10
14.0639
 20
130.49
 11
-14.0639
 21
130.49
  0
LINE
  8
0
 10
-14.0639
 20
130.49
 11
-14.6869
 21
130.411
  0
LINE
  8
0
 10
-14.6869
 20
130.411
 11
-15.2951
 21
130.255
  0
LINE
  8
0
 10
-15.2951
 20
130.255
 11
-15.8789
 21
130.024
  0
LINE
  8
0
 10
-15.8789
 20
130.024
 11
-16.4291
 21
129.722
  0
LINE
  8
0
 10
-16.4291
 20
129.722
 11
-16.9371
 21
129.353
  0
LINE
  8
0
 10
-16.9371
 20
129.353
 11
-17.3948
 21
128.923
  0
LINE
  8
0
 10
-17.3948
 20
128.923
 11
-17.7951
 21
128.439
  0
LINE
  8
0
 10
-17.7951
 20
128.439
 11
-18.1315
 21
127.909
  0
LINE
  8
0
 10
-18.1315
 20
127.909
 11
-18.3989
 21
127.341
  0
LINE
  8
0
 10
-18.3989
 20
127.341
 11
-18.5929
 21
126.743
  0
LINE
  8
0
 10
-18.5929
 20
126.743
 11
-18.7106
 21
126.127
  0
LINE
  8
0
 10
-18.7106
 20
126.127
 11
-18.75
 21
125.5
  0
LINE
  8
0
 10
-18.75
 20
125.5
 11
-18.75
 21
90.5
  0
LINE
  8
0
 10
-18.75
 20
90.5
 11
-18.7106
 21
89.8733
  0
LINE
  8
0
 10
-18.7106
 20
89.8733
 11
-18.5929
 21
89.2566
  0
LINE
  8
0
 10
-18.5929
 20
89.2566
 11
-18.3989
 21
88.6594
  0
LINE
  8
0
 10
-18.3989
 20
88.6594
 11
-18.1315
 21
88.0912
  0
LINE
  8
0
 10
-18.1315
 20
88.0912
 11
-17.7951
 21
87.5611
  0
LINE
  8
0
 10
-17.7951
 20
87.5611
 11
-17.3948
 21
87.0773
  0
LINE
  8
0
 10
-17.3948
 20
87.0773
 11
-16.9371
 21
86.6474
  0
LINE
  8
0
 10
-16.9371
 20
86.6474
 11
-16.4291
 21
86.2784
  0
LINE
  8
0
 10
-16.4291
 20
86.2784
 11
-15.8789
 21
85.9759
  0
LINE
  8
0
 10
-15.8789
 20
85.9759
 11
-15.2951
 21
85.7447
  0
LINE
  8
0
 10
-15.2951
 20
85.7447
 11
-14.6869
 21
85.5886
  0
LINE
  8
0
 10
-14.6869
 20
85.5886
 11
-14.0639
 21
85.5099
  0
LINE
  8
0
 10
-14.0639
 20
85.5099
 11
14.0639
 21
85.5099
  0
LINE
  8
0
 10
14.0639
 20
85.5099
 11
14.6869
 21
85.5886
  0
LINE
  8
0
 10
11.0993
 20
120.605
 11
10.8003
 21
120.643
  0
LINE
  8
0
 10
10.8003
 20
120.643
 11
10.5083
 21
120.717
  0
LINE
  8
0
 10
10.5083
 20
120.717
 11
10.2281
 21
120.828
  0
LINE
  8
0
 10
10.2281
 20
120.828
 11
9.964
 21
120.974
  0
LINE
  8
0
 10
9.964
 20
120.974
 11
9.72017
 21
121.151
  0
LINE
  8
0
 10
9.72017
 20
121.151
 11
9.50047
 21
121.357
  0
LINE
  8
0
 10
9.50047
 20
121.357
 11
9.30835
 21
121.589
  0
LINE
  8
0
 10
9.30835
 20
121.589
 11
9.14685
 21
121.844
  0
LINE
  8
0
 10
9.14685
 20
121.844
 11
9.01852
 21
122.117
  0
LINE
  8
0
 10
9.01852
 20
122.117
 11
8.9254
 21
122.403
  0
LINE
  8
0
 10
8.9254
 20
122.403
 11
8.86891
 21
122.699
  0
LINE
  8
0
 10
8.86891
 20
122.699
 11
8.84999
 21
123
  0
LINE
  8
0
 10
8.84999
 20
123
 11
8.86891
 21
123.301
  0
LINE
  8
0
 10
8.86891
 20
123.301
 11
8.9254
 21
123.597
  0
LINE
  8
0
 10
8.9254
 20
123.597
 11
9.01852
 21
123.883
  0
LINE
  8
0
 10
9.01852
 20
123.883
 11
9.14685
 21
124.156
  0
LINE
  8
0
 10
9.14685
 20
124.156
 11
9.30835
 21
124.411
  0
LINE
  8
0
 10
9.30835
 20
124.411
 11
9.50047
 21
124.643
  0
LINE
  8
0
 10
9.50047
 20
124.643
 11
9.72017
 21
124.849
  0
LINE
  8
0
 10
9.72017
 20
124.849
 11
9.964
 21
125.026
  0
LINE
  8
0
 10
9.964
 20
125.026
 11
10.2281
 21
125.172
  0
LINE
  8
0
 10
10.2281
 20
125.172
 11
10.5083
 21
125.283
  0
LINE
  8
0
 10
10.5083
 20
125.283
 11
10.8003
 21
125.357
  0
LINE
  8
0
 10
10.8003
 20
125.357
 11
11.0993
 21
125.395
  0
LINE
  8
0
 10
11.0993
 20
125.395
 11
11.4007
 21
125.395
  0
LINE
  8
0
 10
11.4007
 20
125.395
 11
11.6997
 21
125.357
  0
LINE
  8
0
 10
11.6997
 20
125.357
 11
11.9916
 21
125.283
  0
LINE
  8
0
 10
11.9916
 20
125.283
 11
12.2719
 21
125.172
  0
LINE
  8
0
 10
12.2719
 20
125.172
 11
12.536
 21
125.026
  0
LINE
  8
0
 10
12.536
 20
125.026
 11
12.7798
 21
124.849
  0
LINE
  8
0
 10
12.7798
 20
124.849
 11
12.9995
 21
124.643
  0
LINE
  8
0
 10
12.9995
 20
124.643
 11
13.1916
 21
124.411
  0
LINE
  8
0
 10
13.1916
 20
124.411
 11
13.3531
 21
124.156
  0
LINE
  8
0
 10
13.3531
 20
124.156
 11
13.4815
 21
123.883
  0
LINE
  8
0
 10
13.4815
 20
123.883
 11
13.5746
 21
123.597
  0
LINE
  8
0
 10
13.5746
 20
123.597
 11
13.6311
 21
123.301
  0
LINE
  8
0
 10
13.6311
 20
123.301
 11
13.65
 21
123
  0
LINE
  8
0
 10
13.65
 20
123
 11
13.6311
 21
122.699
  0
LINE
  8
0
 10
13.6311
 20
122.699
 11
13.5746
 21
122.403
  0
LINE
  8
0
 10
13.5746
 20
122.403
 11
13.4815
 21
122.117
  0
LINE
  8
0
 10
13.4815
 20
122.117
 11
13.3531
 21
121.844
  0
LINE
  8
0
 10
13.3531
 20
121.844
 11
13.1916
 21
121.589
  0
LINE
  8
0
 10
13.1916
 20
121.589
 11
12.9995
 21
121.357
  0
LINE
  8
0
 10
12.9995
 20
121.357
 11
12.7798
 21
121.151
  0
LINE
  8
0
 10
12.7798
 20
121.151
 11
12.536
 21
120.974
  0
LINE
  8
0
 10
12.536
 20
120.974
 11
12.2719
 21
120.828
  0
LINE
  8
0
 10
12.2719
 20
120.828
 11
11.9916
 21
120.717
  0
LINE
  8
0
 10
11.9916
 20
120.717
 11
11.6997
 21
120.643
  0
LINE
  8
0
 10
11.6997
 20
120.643
 11
11.4007
 21
120.605
  0
LINE
  8
0
 10
11.4007
 20
120.605
 11
11.0993
 21
120.605
  0
LINE
  8
0
 10
-11.3442
 20
121.503
 11
-11.5311
 21
121.527
  0
LINE
  8
0
 10
-11.5311
 20
121.527
 11
-11.7135
 21
121.573
  0
LINE
  8
0
 10
-11.7135
 20
121.573
 11
-11.8887
 21
121.643
  0
LINE
  8
0
 10
-11.8887
 20
121.643
 11
-12.0537
 21
121.734
  0
LINE
  8
0
 10
-12.0537
 20
121.734
 11
-12.2061
 21
121.844
  0
LINE
  8
0
 10
-12.2061
 20
121.844
 11
-12.3434
 21
121.973
  0
LINE
  8
0
 10
-12.3434
 20
121.973
 11
-12.4635
 21
122.118
  0
LINE
  8
0
 10
-12.4635
 20
122.118
 11
-12.5645
 21
122.277
  0
LINE
  8
0
 10
-12.5645
 20
122.277
 11
-12.6447
 21
122.448
  0
LINE
  8
0
 10
-12.6447
 20
122.448
 11
-12.7029
 21
122.627
  0
LINE
  8
0
 10
-12.7029
 20
122.627
 11
-12.7382
 21
122.812
  0
LINE
  8
0
 10
-12.7382
 20
122.812
 11
-12.75
 21
123
  0
LINE
  8
0
 10
-12.75
 20
123
 11
-12.7382
 21
123.188
  0
LINE
  8
0
 10
-12.7382
 20
123.188
 11
-12.7029
 21
123.373
  0
LINE
  8
0
 10
-12.7029
 20
123.373
 11
-12.6447
 21
123.552
  0
LINE
  8
0
 10
-12.6447
 20
123.552
 11
-12.5645
 21
123.723
  0
LINE
  8
0
 10
-12.5645
 20
123.723
 11
-12.4635
 21
123.882
  0
LINE
  8
0
 10
-12.4635
 20
123.882
 11
-12.3434
 21
124.027
  0
LINE
  8
0
 10
-12.3434
 20
124.027
 11
-12.2061
 21
124.156
  0
LINE
  8
0
 10
-12.2061
 20
124.156
 11
-12.0537
 21
124.266
  0
LINE
  8
0
 10
-12.0537
 20
124.266
 11
-11.8887
 21
124.357
  0
LINE
  8
0
 10
-11.8887
 20
124.357
 11
-11.7135
 21
124.427
  0
LINE
  8
0
 10
-11.7135
 20
124.427
 11
-11.5311
 21
124.473
  0
LINE
  8
0
 10
-11.5311
 20
124.473
 11
-11.3442
 21
124.497
  0
LINE
  8
0
 10
-11.3442
 20
124.497
 11
-11.1558
 21
124.497
  0
LINE
  8
0
 10
-11.1558
 20
124.497
 11
-10.9689
 21
124.473
  0
LINE
  8
0
 10
-10.9689
 20
124.473
 11
-10.7865
 21
124.427
  0
LINE
  8
0
 10
-10.7865
 20
124.427
 11
-10.6113
 21
124.357
  0
LINE
  8
0
 10
-10.6113
 20
124.357
 11
-10.4463
 21
124.266
  0
LINE
  8
0
 10
-10.4463
 20
124.266
 11
-10.2939
 21
124.156
  0
LINE
  8
0
 10
-10.2939
 20
124.156
 11
-10.1565
 21
124.027
  0
LINE
  8
0
 10
-10.1565
 20
124.027
 11
-10.0365
 21
123.882
  0
LINE
  8
0
 10
-10.0365
 20
123.882
 11
-9.93553
 21
123.723
  0
LINE
  8
0
 10
-9.93553
 20
123.723
 11
-9.85533
 21
123.552
  0
LINE
  8
0
 10
-9.85533
 20
123.552
 11
-9.79712
 21
123.373
  0
LINE
  8
0
 10
-9.79712
 20
123.373
 11
-9.76183
 21
123.188
  0
LINE
  8
0
 10
-9.76183
 20
123.188
 11
-9.75
 21
123
  0
LINE
  8
0
 10
-9.75
 20
123
 11
-9.76183
 21
122.812
  0
LINE
  8
0
 10
-9.76183
 20
122.812
 11
-9.79712
 21
122.627
  0
LINE
  8
0
 10
-9.79712
 20
122.627
 11
-9.85533
 21
122.448
  0
LINE
  8
0
 10
-9.85533
 20
122.448
 11
-9.93553
 21
122.277
  0
LINE
  8
0
 10
-9.93553
 20
122.277
 11
-10.0365
 21
122.118
  0
LINE
  8
0
 10
-10.0365
 20
122.118
 11
-10.1565
 21
121.973
  0
LINE
  8
0
 10
-10.1565
 20
121.973
 11
-10.2939
 21
121.844
  0
LINE
  8
0
 10
-10.2939
 20
121.844
 11
-10.4463
 21
121.734
  0
LINE
  8
0
 10
-10.4463
 20
121.734
 11
-10.6113
 21
121.643
  0
LINE
  8
0
 10
-10.6113
 20
121.643
 11
-10.7865
 21
121.573
  0
LINE
  8
0
 10
-10.7865
 20
121.573
 11
-10.9689
 21
121.527
  0
LINE
  8
0
 10
-10.9689
 20
121.527
 11
-11.1558
 21
121.503
  0
LINE
  8
0
 10
-11.1558
 20
121.503
 11
-11.3442
 21
121.503
  0
LINE
  8
0
 10
-11.4007
 20
90.6047
 11
-11.6997
 21
90.6425
  0
LINE
  8
0
 10
-11.6997
 20
90.6425
 11
-11.9916
 21
90.7175
  0
LINE
  8
0
 10
-11.9916
 20
90.7175
 11
-12.2719
 21
90.8284
  0
LINE
  8
0
 10
-12.2719
 20
90.8284
 11
-12.536
 21
90.9736
  0
LINE
  8
0
 10
-12.536
 20
90.9736
 11
-12.7798
 21
91.1508
  0
LINE
  8
0
 10
-12.7798
 20
91.1508
 11
-12.9995
 21
91.3571
  0
LINE
  8
0
 10
-12.9995
 20
91.3571
 11
-13.1916
 21
91.5893
  0
LINE
  8
0
 10
-13.1916
 20
91.5893
 11
-13.3531
 21
91.8438
  0
LINE
  8
0
 10
-13.3531
 20
91.8438
 11
-13.4815
 21
92.1165
  0
LINE
  8
0
 10
-13.4815
 20
92.1165
 11
-13.5746
 21
92.4032
  0
LINE
  8
0
 10
-13.5746
 20
92.4032
 11
-13.6311
 21
92.6992
  0
LINE
  8
0
 10
-13.6311
 20
92.6992
 11
-13.65
 21
93
  0
LINE
  8
0
 10
-13.65
 20
93
 11
-13.6311
 21
93.3008
  0
LINE
  8
0
 10
-13.6311
 20
93.3008
 11
-13.5746
 21
93.5969
  0
LINE
  8
0
 10
-13.5746
 20
93.5969
 11
-13.4815
 21
93.8835
  0
LINE
  8
0
 10
-13.4815
 20
93.8835
 11
-13.3531
 21
94.1562
  0
LINE
  8
0
 10
-13.3531
 20
94.1562
 11
-13.1916
 21
94.4107
  0
LINE
  8
0
 10
-13.1916
 20
94.4107
 11
-12.9995
 21
94.6429
  0
LINE
  8
0
 10
-12.9995
 20
94.6429
 11
-12.7798
 21
94.8492
  0
LINE
  8
0
 10
-12.7798
 20
94.8492
 11
-12.536
 21
95.0264
  0
LINE
  8
0
 10
-12.536
 20
95.0264
 11
-12.2719
 21
95.1716
  0
LINE
  8
0
 10
-12.2719
 20
95.1716
 11
-11.9916
 21
95.2825
  0
LINE
  8
0
 10
-11.9916
 20
95.2825
 11
-11.6997
 21
95.3575
  0
LINE
  8
0
 10
-11.6997
 20
95.3575
 11
-11.4007
 21
95.3953
  0
LINE
  8
0
 10
-11.4007
 20
95.3953
 11
-11.0993
 21
95.3953
  0
LINE
  8
0
 10
-11.0993
 20
95.3953
 11
-10.8003
 21
95.3575
  0
LINE
  8
0
 10
-10.8003
 20
95.3575
 11
-10.5083
 21
95.2825
  0
LINE
  8
0
 10
-10.5083
 20
95.2825
 11
-10.2281
 21
95.1716
  0
LINE
  8
0
 10
-10.2281
 20
95.1716
 11
-9.964
 21
95.0264
  0
LINE
  8
0
 10
-9.964
 20
95.0264
 11
-9.72017
 21
94.8492
  0
LINE
  8
0
 10
-9.72017
 20
94.8492
 11
-9.50047
 21
94.6429
  0
LINE
  8
0
 10
-9.50047
 20
94.6429
 11
-9.30835
 21
94.4107
  0
LINE
  8
0
 10
-9.30835
 20
94.4107
 11
-9.14685
 21
94.1562
  0
LINE
  8
0
 10
-9.14685
 20
94.1562
 11
-9.01852
 21
93.8835
  0
LINE
  8
0
 10
-9.01852
 20
93.8835
 11
-8.9254
 21
93.5969
  0
LINE
  8
0
 10
-8.9254
 20
93.5969
 11
-8.86891
 21
93.3008
  0
LINE
  8
0
 10
-8.86891
 20
93.3008
 11
-8.84999
 21
93
  0
LINE
  8
0
 10
-8.84999
 20
93
 11
-8.86891
 21
92.6992
  0
LINE
  8
0
 10
-8.86891
 20
92.6992
 11
-8.9254
 21
92.4032
  0
LINE
  8
0
 10
-8.9254
 20
92.4032
 11
-9.01852
 21
92.1165
  0
LINE
  8
0
 10
-9.01852
 20
92.1165
 11
-9.14685
 21
91.8438
  0
LINE
  8
0
 10
-9.14685
 20
91.8438
 11
-9.30835
 21
91.5893
  0
LINE
  8
0
 10
-9.30835
 20
91.5893
 11
-9.50047
 21
91.3571
  0
LINE
  8
0
 10
-9.50047
 20
91.3571
 11
-9.72017
 21
91.1508
  0
LINE
  8
0
 10
-9.72017
 20
91.1508
 11
-9.964
 21
90.9736
  0
LINE
  8
0
 10
-9.964
 20
90.9736
 11
-10.2281
 21
90.8284
  0
LINE
  8
0
 10
-10.2281
 20
90.8284
 11
-10.5083
 21
90.7175
  0
LINE
  8
0
 10
-10.5083
 20
90.7175
 11
-10.8003
 21
90.6425
  0
LINE
  8
0
 10
-10.8003
 20
90.6425
 11
-11.0993
 21
90.6047
  0
LINE
  8
0
 10
-11.0993
 20
90.6047
 11
-11.4007
 21
90.6047
  0
LINE
  8
0
 10
11.1558
 20
91.503
 11
10.9689
 21
91.5266
  0
LINE
  8
0
 10
10.9689
 20
91.5266
 11
10.7865
 21
91.5734
  0
LINE
  8
0
 10
10.7865
 20
91.5734
 11
10.6113
 21
91.6428
  0
LINE
  8
0
 10
10.6113
 20
91.6428
 11
10.4463
 21
91.7335
  0
LINE
  8
0
 10
10.4463
 20
91.7335
 11
10.2939
 21
91.8442
  0
LINE
  8
0
 10
10.2939
 20
91.8442
 11
10.1565
 21
91.9732
  0
LINE
  8
0
 10
10.1565
 20
91.9732
 11
10.0365
 21
92.1183
  0
LINE
  8
0
 10
10.0365
 20
92.1183
 11
9.93553
 21
92.2774
  0
LINE
  8
0
 10
9.93553
 20
92.2774
 11
9.85533
 21
92.4478
  0
LINE
  8
0
 10
9.85533
 20
92.4478
 11
9.79712
 21
92.627
  0
LINE
  8
0
 10
9.79712
 20
92.627
 11
9.76183
 21
92.812
  0
LINE
  8
0
 10
9.76183
 20
92.812
 11
9.75
 21
93
  0
LINE
  8
0
 10
9.75
 20
93
 11
9.76183
 21
93.188
  0
LINE
  8
0
 10
9.76183
 20
93.188
 11
9.79712
 21
93.373
  0
LINE
  8
0
 10
9.79712
 20
93.373
 11
9.85533
 21
93.5522
  0
LINE
  8
0
 10
9.85533
 20
93.5522
 11
9.93553
 21
93.7226
  0
LINE
  8
0
 10
9.93553
 20
93.7226
 11
10.0365
 21
93.8817
  0
LINE
  8
0
 10
10.0365
 20
93.8817
 11
10.1565
 21
94.0268
  0
LINE
  8
0
 10
10.1565
 20
94.0268
 11
10.2939
 21
94.1558
  0
LINE
  8
0
 10
10.2939
 20
94.1558
 11
10.4463
 21
94.2665
  0
LINE
  8
0
 10
10.4463
 20
94.2665
 11
10.6113
 21
94.3573
  0
LINE
  8
0
 10
10.6113
 20
94.3573
 11
10.7865
 21
94.4266
  0
LINE
  8
0
 10
10.7865
 20
94.4266
 11
10.9689
 21
94.4734
  0
LINE
  8
0
 10
10.9689
 20
94.4734
 11
11.1558
 21
94.4971
  0
LINE
  8
0
 10
11.1558
 20
94.4971
 11
11.3442
 21
94.4971
  0
LINE
  8
0
 10
11.3442
 20
94.4971
 11
11.5311
 21
94.4734
  0
LINE
  8
0
 10
11.5311
 20
94.4734
 11
11.7135
 21
94.4266
  0
LINE
  8
0
 10
11.7135
 20
94.4266
 11
11.8887
 21
94.3573
  0
LINE
  8
0
 10
11.8887
 20
94.3573
 11
12.0537
 21
94.2665
  0
LINE
  8
0
 10
12.0537
 20
94.2665
 11
12.2061
 21
94.1558
  0
LINE
  8
0
 10
12.2061
 20
94.1558
 11
12.3434
 21
94.0268
  0
LINE
  8
0
 10
12.3434
 20
94.0268
 11
12.4635
 21
93.8817
  0
LINE
  8
0
 10
12.4635
 20
93.8817
 11
12.5645
 21
93.7226
  0
LINE
  8
0
 10
12.5645
 20
93.7226
 11
12.6447
 21
93.5522
  0
LINE
  8
0
 10
12.6447
 20
93.5522
 11
12.7029
 21
93.373
  0
LINE
  8
0
 10
12.7029
 20
93.373
 11
12.7382
 21
93.188
  0
LINE
  8
0
 10
12.7382
 20
93.188
 11
12.75
 21
93
  0
LINE
  8
0
 10
12.75
 20
93
 11
12.7382
 21
92.812
  0
LINE
  8
0
 10
12.7382
 20
92.812
 11
12.7029
 21
92.627
  0
LINE
  8
0
 10
12.7029
 20
92.627
 11
12.6447
 21
92.4478
  0
LINE
  8
0
 10
12.6447
 20
92.4478
 11
12.5645
 21
92.2774
  0
LINE
  8
0
 10
12.5645
 20
92.2774
 11
12.4635
 21
92.1183
  0
LINE
  8
0
 10
12.4635
 20
92.1183
 11
12.3434
 21
91.9732
  0
LINE
  8
0
 10
12.3434
 20
91.9732
 11
12.2061
 21
91.8442
  0
LINE
  8
0
 10
12.2061
 20
91.8442
 11
12.0537
 21
91.7335
  0
LINE
  8
0
 10
12.0537
 20
91.7335
 11
11.8887
 21
91.6428
  0
LINE
  8
0
 10
11.8887
 20
91.6428
 11
11.7135
 21
91.5734
  0
LINE
  8
0
 10
11.7135
 20
91.5734
 11
11.5311
 21
91.5266
  0
LINE
  8
0
 10
11.5311
 20
91.5266
 11
11.3442
 21
91.503
  0
LINE
  8
0
 10
11.3442
 20
91.503
 11
11.1558
 21
91.503
  0
ENDSEC
  0
SECTION
  2
OBJECTS
  0
DICTIONARY
  0
ENDSEC
  0
EOF
