<?xml version="1.0" standalone="no"?>
<!DOCTYPE svg PUBLIC "-//W3C//DTD SVG 1.1//EN" "http://www.w3.org/Graphics/SVG/1.1/DTD/svg11.dtd">
<svg width="40mm" height="207mm" viewBox="-21 -401 40 207" xmlns="http://www.w3.org/2000/svg" version="1.1">
<title>OpenSCAD Model</title>
<path d="
M -17.25,-358.007 L -16.8948,-357.577 L -16.4371,-357.147 L -15.9291,-356.778 L -15.3789,-356.476 L -14.7951,-356.245
 L -14.1869,-356.089 L -13.5639,-356.01 L 13.5639,-356.01 L 14.1869,-356.089 L 14.7951,-356.245 L 15.3789,-356.476
 L 15.9291,-356.778 L 16.4371,-357.147 L 16.8948,-357.577 L 17.2951,-358.061 L 17.6315,-358.591 L 17.8989,-359.159
 L 18.0929,-359.757 L 18.2106,-360.373 L 18.25,-361 L 18.25,-395 L 18.2106,-395.627 L 18.0929,-396.243
 L 17.8989,-396.841 L 17.6315,-397.409 L 17.2951,-397.939 L 16.8948,-398.423 L 16.4371,-398.853 L 15.9291,-399.222
 L 15.3789,-399.524 L 14.7951,-399.755 L 14.1869,-399.911 L 13.5639,-399.99 L -13.5639,-399.99 L -14.1869,-399.911
 L -14.7951,-399.755 L -15.3789,-399.524 L -15.9291,-399.222 L -16.4371,-398.853 L -16.8948,-398.423 L -17.25,-397.993
 L -17.25,-400.49 L -20.25,-400.49 L -20.25,-355.51 L -17.25,-355.51 z
M -13.5012,-357.008 L -13.9995,-357.071 L -14.4861,-357.196 L -14.9531,-357.381 L -15.3933,-357.623 L -15.7997,-357.918
 L -16.1659,-358.262 L -16.4861,-358.649 L -16.7552,-359.073 L -16.9691,-359.528 L -17.1243,-360.005 L -17.2184,-360.499
 L -17.25,-361 L -17.25,-395 L -17.2184,-395.501 L -17.1243,-395.995 L -16.9691,-396.472 L -16.7552,-396.927
 L -16.4861,-397.351 L -16.1659,-397.738 L -15.7997,-398.082 L -15.3933,-398.377 L -14.9531,-398.619 L -14.4861,-398.804
 L -13.9995,-398.929 L -13.5012,-398.992 L 13.5012,-398.992 L 13.9995,-398.929 L 14.4861,-398.804 L 14.9531,-398.619
 L 15.3933,-398.377 L 15.7997,-398.082 L 16.1659,-397.738 L 16.4861,-397.351 L 16.7552,-396.927 L 16.9691,-396.472
 L 17.1243,-395.995 L 17.2184,-395.501 L 17.25,-395 L 17.25,-361 L 17.2184,-360.499 L 17.1243,-360.005
 L 16.9691,-359.528 L 16.7552,-359.073 L 16.4861,-358.649 L 16.1659,-358.262 L 15.7997,-357.918 L 15.3933,-357.623
 L 14.9531,-357.381 L 14.4861,-357.196 L 13.9995,-357.071 L 13.5012,-357.008 z
M -17.25,-304.007 L -16.8948,-303.577 L -16.4371,-303.147 L -15.9291,-302.778 L -15.3789,-302.476 L -14.7951,-302.245
 L -14.1869,-302.089 L -13.5639,-302.01 L 13.5639,-302.01 L 14.1869,-302.089 L 14.7951,-302.245 L 15.3789,-302.476
 L 15.9291,-302.778 L 16.4371,-303.147 L 16.8948,-303.577 L 17.2951,-304.061 L 17.6315,-304.591 L 17.8989,-305.159
 L 18.0929,-305.757 L 18.2106,-306.373 L 18.25,-307 L 18.25,-341 L 18.2106,-341.627 L 18.0929,-342.243
 L 17.8989,-342.841 L 17.6315,-343.409 L 17.2951,-343.939 L 16.8948,-344.423 L 16.4371,-344.853 L 15.9291,-345.222
 L 15.3789,-345.524 L 14.7951,-345.755 L 14.1869,-345.911 L 13.5639,-345.99 L -13.5639,-345.99 L -14.1869,-345.911
 L -14.7951,-345.755 L -15.3789,-345.524 L -15.9291,-345.222 L -16.4371,-344.853 L -16.8948,-344.423 L -17.25,-343.993
 L -17.25,-346.49 L -20.25,-346.49 L -20.25,-301.51 L -17.25,-301.51 z
M -13.5012,-303.008 L -13.9995,-303.071 L -14.4861,-303.196 L -14.9531,-303.381 L -15.3933,-303.623 L -15.7997,-303.918
 L -16.1659,-304.262 L -16.4861,-304.649 L -16.7552,-305.073 L -16.9691,-305.528 L -17.1243,-306.005 L -17.2184,-306.499
 L -17.25,-307 L -17.25,-341 L -17.2184,-341.501 L -17.1243,-341.995 L -16.9691,-342.472 L -16.7552,-342.927
 L -16.4861,-343.351 L -16.1659,-343.738 L -15.7997,-344.082 L -15.3933,-344.377 L -14.9531,-344.619 L -14.4861,-344.804
 L -13.9995,-344.929 L -13.5012,-344.992 L 13.5012,-344.992 L 13.9995,-344.929 L 14.4861,-344.804 L 14.9531,-344.619
 L 15.3933,-344.377 L 15.7997,-344.082 L 16.1659,-343.738 L 16.4861,-343.351 L 16.7552,-342.927 L 16.9691,-342.472
 L 17.1243,-341.995 L 17.2184,-341.501 L 17.25,-341 L 17.25,-307 L 17.2184,-306.499 L 17.1243,-306.005
 L 16.9691,-305.528 L 16.7552,-305.073 L 16.4861,-304.649 L 16.1659,-304.262 L 15.7997,-303.918 L 15.3933,-303.623
 L 14.9531,-303.381 L 14.4861,-303.196 L 13.9995,-303.071 L 13.5012,-303.008 z
M -17.25,-250.007 L -16.8948,-249.577 L -16.4371,-249.147 L -15.9291,-248.778 L -15.3789,-248.476 L -14.7951,-248.245
 L -14.1869,-248.089 L -13.5639,-248.01 L 13.5639,-248.01 L 14.1869,-248.089 L 14.7951,-248.245 L 15.3789,-248.476
 L 15.9291,-248.778 L 16.4371,-249.147 L 16.8948,-249.577 L 17.2951,-250.061 L 17.6315,-250.591 L 17.8989,-251.159
 L 18.0929,-251.757 L 18.2106,-252.373 L 18.25,-253 L 18.25,-287 L 18.2106,-287.627 L 18.0929,-288.243
 L 17.8989,-288.841 L 17.6315,-289.409 L 17.2951,-289.939 L 16.8948,-290.423 L 16.4371,-290.853 L 15.9291,-291.222
 L 15.3789,-291.524 L 14.7951,-291.755 L 14.1869,-291.911 L 13.5639,-291.99 L -13.5639,-291.99 L -14.1869,-291.911
 L -14.7951,-291.755 L -15.3789,-291.524 L -15.9291,-291.222 L -16.4371,-290.853 L -16.8948,-290.423 L -17.25,-289.993
 L -17.25,-292.479 L -20.25,-292.479 L -20.25,-247.521 L -17.25,-247.521 z
M -13.4454,-249.893 L -13.8333,-249.942 L -14.2119,-250.039 L -14.5754,-250.183 L -14.918,-250.372 L -15.2342,-250.601
 L -15.5192,-250.869 L -15.7684,-251.17 L -15.9779,-251.5 L -16.1443,-251.854 L -16.2651,-252.226 L -16.3384,-252.61
 L -16.3629,-253 L -16.3629,-287 L -16.3384,-287.39 L -16.2651,-287.774 L -16.1443,-288.146 L -15.9779,-288.5
 L -15.7684,-288.83 L -15.5192,-289.131 L -15.2342,-289.399 L -14.918,-289.628 L -14.5754,-289.817 L -14.2119,-289.961
 L -13.8333,-290.058 L -13.4454,-290.107 L 13.4454,-290.107 L 13.8333,-290.058 L 14.2119,-289.961 L 14.5754,-289.817
 L 14.918,-289.628 L 15.2342,-289.399 L 15.5192,-289.131 L 15.7684,-288.83 L 15.9779,-288.5 L 16.1443,-288.146
 L 16.2651,-287.774 L 16.3384,-287.39 L 16.3629,-287 L 16.3629,-253 L 16.3384,-252.61 L 16.2651,-252.226
 L 16.1443,-251.854 L 15.9779,-251.5 L 15.7684,-251.17 L 15.5192,-250.869 L 15.2342,-250.601 L 14.918,-250.372
 L 14.5754,-250.183 L 14.2119,-250.039 L 13.8333,-249.942 L 13.4454,-249.893 z
M 14.1869,-194.089 L 14.7951,-194.245 L 15.3789,-194.476 L 15.9291,-194.778 L 16.4371,-195.147 L 16.8948,-195.577
 L 17.2951,-196.061 L 17.6315,-196.591 L 17.8989,-197.159 L 18.0929,-197.757 L 18.2106,-198.373 L 18.25,-199
 L 18.25,-233 L 18.2106,-233.627 L 18.0929,-234.243 L 17.8989,-234.841 L 17.6315,-235.409 L 17.2951,-235.939
 L 16.8948,-236.423 L 16.4371,-236.853 L 15.9291,-237.222 L 15.3789,-237.524 L 14.7951,-237.755 L 14.1869,-237.911
 L 13.5639,-237.99 L -13.5639,-237.99 L -14.1869,-237.911 L -14.7951,-237.755 L -15.3789,-237.524 L -15.9291,-237.222
 L -16.4371,-236.853 L -16.8948,-236.423 L -17.25,-235.993 L -17.25,-237.153 L -20.25,-237.153 L -20.25,-194.847
 L -17.25,-194.847 L -17.25,-196.007 L -16.8948,-195.577 L -16.4371,-195.147 L -15.9291,-194.778 L -15.3789,-194.476
 L -14.7951,-194.245 L -14.1869,-194.089 L -13.5639,-194.01 L 13.5639,-194.01 z
M -11.4007,-228.605 L -11.6997,-228.643 L -11.9916,-228.717 L -12.2719,-228.828 L -12.536,-228.974 L -12.7798,-229.151
 L -12.9995,-229.357 L -13.1916,-229.589 L -13.3531,-229.844 L -13.4815,-230.117 L -13.5746,-230.403 L -13.6311,-230.699
 L -13.65,-231 L -13.6311,-231.301 L -13.5746,-231.597 L -13.4815,-231.883 L -13.3531,-232.156 L -13.1916,-232.411
 L -12.9995,-232.643 L -12.7798,-232.849 L -12.536,-233.026 L -12.2719,-233.172 L -11.9916,-233.283 L -11.6997,-233.357
 L -11.4007,-233.395 L -11.0993,-233.395 L -10.8003,-233.357 L -10.5083,-233.283 L -10.2281,-233.172 L -9.964,-233.026
 L -9.72017,-232.849 L -9.50047,-232.643 L -9.30835,-232.411 L -9.14685,-232.156 L -9.01852,-231.883 L -8.9254,-231.597
 L -8.86891,-231.301 L -8.84999,-231 L -8.86891,-230.699 L -8.9254,-230.403 L -9.01852,-230.117 L -9.14685,-229.844
 L -9.30835,-229.589 L -9.50047,-229.357 L -9.72017,-229.151 L -9.964,-228.974 L -10.2281,-228.828 L -10.5083,-228.717
 L -10.8003,-228.643 L -11.0993,-228.605 z
M 11.0993,-228.605 L 10.8003,-228.643 L 10.5083,-228.717 L 10.2281,-228.828 L 9.964,-228.974 L 9.72017,-229.151
 L 9.50047,-229.357 L 9.30835,-229.589 L 9.14685,-229.844 L 9.01852,-230.117 L 8.9254,-230.403 L 8.86891,-230.699
 L 8.84999,-231 L 8.86891,-231.301 L 8.9254,-231.597 L 9.01852,-231.883 L 9.14685,-232.156 L 9.30835,-232.411
 L 9.50047,-232.643 L 9.72017,-232.849 L 9.964,-233.026 L 10.2281,-233.172 L 10.5083,-233.283 L 10.8003,-233.357
 L 11.0993,-233.395 L 11.4007,-233.395 L 11.6997,-233.357 L 11.9916,-233.283 L 12.2719,-233.172 L 12.536,-233.026
 L 12.7798,-232.849 L 12.9995,-232.643 L 13.1916,-232.411 L 13.3531,-232.156 L 13.4815,-231.883 L 13.5746,-231.597
 L 13.6311,-231.301 L 13.65,-231 L 13.6311,-230.699 L 13.5746,-230.403 L 13.4815,-230.117 L 13.3531,-229.844
 L 13.1916,-229.589 L 12.9995,-229.357 L 12.7798,-229.151 L 12.536,-228.974 L 12.2719,-228.828 L 11.9916,-228.717
 L 11.6997,-228.643 L 11.4007,-228.605 z
M -11.4007,-198.605 L -11.6997,-198.643 L -11.9916,-198.717 L -12.2719,-198.828 L -12.536,-198.974 L -12.7798,-199.151
 L -12.9995,-199.357 L -13.1916,-199.589 L -13.3531,-199.844 L -13.4815,-200.117 L -13.5746,-200.403 L -13.6311,-200.699
 L -13.65,-201 L -13.6311,-201.301 L -13.5746,-201.597 L -13.4815,-201.883 L -13.3531,-202.156 L -13.1916,-202.411
 L -12.9995,-202.643 L -12.7798,-202.849 L -12.536,-203.026 L -12.2719,-203.172 L -11.9916,-203.283 L -11.6997,-203.357
 L -11.4007,-203.395 L -11.0993,-203.395 L -10.8003,-203.357 L -10.5083,-203.283 L -10.2281,-203.172 L -9.964,-203.026
 L -9.72017,-202.849 L -9.50047,-202.643 L -9.30835,-202.411 L -9.14685,-202.156 L -9.01852,-201.883 L -8.9254,-201.597
 L -8.86891,-201.301 L -8.84999,-201 L -8.86891,-200.699 L -8.9254,-200.403 L -9.01852,-200.117 L -9.14685,-199.844
 L -9.30835,-199.589 L -9.50047,-199.357 L -9.72017,-199.151 L -9.964,-198.974 L -10.2281,-198.828 L -10.5083,-198.717
 L -10.8003,-198.643 L -11.0993,-198.605 z
M 11.0993,-198.605 L 10.8003,-198.643 L 10.5083,-198.717 L 10.2281,-198.828 L 9.964,-198.974 L 9.72017,-199.151
 L 9.50047,-199.357 L 9.30835,-199.589 L 9.14685,-199.844 L 9.01852,-200.117 L 8.9254,-200.403 L 8.86891,-200.699
 L 8.84999,-201 L 8.86891,-201.301 L 8.9254,-201.597 L 9.01852,-201.883 L 9.14685,-202.156 L 9.30835,-202.411
 L 9.50047,-202.643 L 9.72017,-202.849 L 9.964,-203.026 L 10.2281,-203.172 L 10.5083,-203.283 L 10.8003,-203.357
 L 11.0993,-203.395 L 11.4007,-203.395 L 11.6997,-203.357 L 11.9916,-203.283 L 12.2719,-203.172 L 12.536,-203.026
 L 12.7798,-202.849 L 12.9995,-202.643 L 13.1916,-202.411 L 13.3531,-202.156 L 13.4815,-201.883 L 13.5746,-201.597
 L 13.6311,-201.301 L 13.65,-201 L 13.6311,-200.699 L 13.5746,-200.403 L 13.4815,-200.117 L 13.3531,-199.844
 L 13.1916,-199.589 L 12.9995,-199.357 L 12.7798,-199.151 L 12.536,-198.974 L 12.2719,-198.828 L 11.9916,-198.717
 L 11.6997,-198.643 L 11.4007,-198.605 z
" stroke="black" fill="lightgray" stroke-width="0.5"/>
</svg>
