<?xml version="1.0" standalone="no"?>
<!DOCTYPE svg PUBLIC "-//W3C//DTD SVG 1.1//EN" "http://www.w3.org/Graphics/SVG/1.1/DTD/svg11.dtd">
<svg width="8mm" height="56mm" viewBox="-4 -124 8 56" xmlns="http://www.w3.org/2000/svg" version="1.1">
<title>OpenSCAD Model</title>
<path d="
M 1.46844,-116.544 L 1.77254,-116.622 L 2.06444,-116.738 L 2.33955,-116.889 L 2.59355,-117.074 L 2.82242,-117.289
 L 3.02254,-117.531 L 3.19077,-117.796 L 3.32443,-118.08 L 3.42145,-118.378 L 3.48029,-118.687 L 3.5,-119
 L 3.5,-121 L 3.48029,-121.313 L 3.42145,-121.622 L 3.32443,-121.92 L 3.19077,-122.204 L 3.02254,-122.469
 L 2.82242,-122.711 L 2.59355,-122.926 L 2.33955,-123.111 L 2.06444,-123.262 L 1.77254,-123.378 L 1.46844,-123.456
 L 1.15697,-123.495 L -1.15697,-123.495 L -1.46844,-123.456 L -1.77254,-123.378 L -2.06444,-123.262 L -2.33955,-123.111
 L -2.59355,-122.926 L -2.82242,-122.711 L -3.02254,-122.469 L -3.19077,-122.204 L -3.32443,-121.92 L -3.42145,-121.622
 L -3.48029,-121.313 L -3.5,-121 L -3.5,-119 L -3.48029,-118.687 L -3.42145,-118.378 L -3.32443,-118.08
 L -3.19077,-117.796 L -3.02254,-117.531 L -2.82242,-117.289 L -2.59355,-117.074 L -2.33955,-116.889 L -2.06444,-116.738
 L -1.77254,-116.622 L -1.46844,-116.544 L -1.15697,-116.505 L 1.15697,-116.505 z
M -0.0941772,-118.503 L -0.281067,-118.527 L -0.463516,-118.573 L -0.638657,-118.643 L -0.803726,-118.734 L -0.956131,-118.844
 L -1.09344,-118.973 L -1.21352,-119.118 L -1.31445,-119.277 L -1.39465,-119.448 L -1.45287,-119.627 L -1.48816,-119.812
 L -1.5,-120 L -1.48816,-120.188 L -1.45287,-120.373 L -1.39465,-120.552 L -1.31445,-120.723 L -1.21352,-120.882
 L -1.09344,-121.027 L -0.956131,-121.156 L -0.803726,-121.266 L -0.638657,-121.357 L -0.463516,-121.427 L -0.281067,-121.473
 L -0.0941772,-121.497 L 0.0941772,-121.497 L 0.281067,-121.473 L 0.463516,-121.427 L 0.638657,-121.357 L 0.803726,-121.266
 L 0.956131,-121.156 L 1.09344,-121.027 L 1.21352,-120.882 L 1.31445,-120.723 L 1.39465,-120.552 L 1.45287,-120.373
 L 1.48816,-120.188 L 1.5,-120 L 1.48816,-119.812 L 1.45287,-119.627 L 1.39465,-119.448 L 1.31445,-119.277
 L 1.21352,-119.118 L 1.09344,-118.973 L 0.956131,-118.844 L 0.803726,-118.734 L 0.638657,-118.643 L 0.463516,-118.573
 L 0.281067,-118.527 L 0.0941772,-118.503 z
M 1.46844,-92.5443 L 1.77254,-92.6224 L 2.06444,-92.7379 L 2.33955,-92.8892 L 2.59355,-93.0737 L 2.82242,-93.2886
 L 3.02254,-93.5305 L 3.19077,-93.7956 L 3.32443,-94.0797 L 3.42145,-94.3783 L 3.48029,-94.6867 L 3.5,-95
 L 3.5,-97 L 3.48029,-97.3133 L 3.42145,-97.6217 L 3.32443,-97.9203 L 3.19077,-98.2044 L 3.02254,-98.4695
 L 2.82242,-98.7114 L 2.59355,-98.9263 L 2.33955,-99.1108 L 2.06444,-99.2621 L 1.77254,-99.3776 L 1.46844,-99.4557
 L 1.15697,-99.4951 L -1.15697,-99.4951 L -1.46844,-99.4557 L -1.77254,-99.3776 L -2.06444,-99.2621 L -2.33955,-99.1108
 L -2.59355,-98.9263 L -2.82242,-98.7114 L -3.02254,-98.4695 L -3.19077,-98.2044 L -3.32443,-97.9203 L -3.42145,-97.6217
 L -3.48029,-97.3133 L -3.5,-97 L -3.5,-95 L -3.48029,-94.6867 L -3.42145,-94.3783 L -3.32443,-94.0797
 L -3.19077,-93.7956 L -3.02254,-93.5305 L -2.82242,-93.2886 L -2.59355,-93.0737 L -2.33955,-92.8892 L -2.06444,-92.7379
 L -1.77254,-92.6224 L -1.46844,-92.5443 L -1.15697,-92.5049 L 1.15697,-92.5049 z
M -0.0941772,-94.503 L -0.281067,-94.5266 L -0.463516,-94.5734 L -0.638657,-94.6428 L -0.803726,-94.7335 L -0.956131,-94.8442
 L -1.09344,-94.9732 L -1.21352,-95.1183 L -1.31445,-95.2774 L -1.39465,-95.4478 L -1.45287,-95.627 L -1.48816,-95.812
 L -1.5,-96 L -1.48816,-96.188 L -1.45287,-96.373 L -1.39465,-96.5522 L -1.31445,-96.7226 L -1.21352,-96.8817
 L -1.09344,-97.0268 L -0.956131,-97.1558 L -0.803726,-97.2665 L -0.638657,-97.3572 L -0.463516,-97.4266 L -0.281067,-97.4734
 L -0.0941772,-97.497 L 0.0941772,-97.497 L 0.281067,-97.4734 L 0.463516,-97.4266 L 0.638657,-97.3572 L 0.803726,-97.2665
 L 0.956131,-97.1558 L 1.09344,-97.0268 L 1.21352,-96.8817 L 1.31445,-96.7226 L 1.39465,-96.5522 L 1.45287,-96.373
 L 1.48816,-96.188 L 1.5,-96 L 1.48816,-95.812 L 1.45287,-95.627 L 1.39465,-95.4478 L 1.31445,-95.2774
 L 1.21352,-95.1183 L 1.09344,-94.9732 L 0.956131,-94.8442 L 0.803726,-94.7335 L 0.638657,-94.6428 L 0.463516,-94.5734
 L 0.281067,-94.5266 L 0.0941772,-94.503 z
M 1.46844,-68.5443 L 1.77254,-68.6224 L 2.06444,-68.7379 L 2.33955,-68.8892 L 2.59355,-69.0737 L 2.82242,-69.2886
 L 3.02254,-69.5305 L 3.19077,-69.7956 L 3.32443,-70.0797 L 3.42145,-70.3783 L 3.48029,-70.6867 L 3.5,-71
 L 3.5,-73 L 3.48029,-73.3133 L 3.42145,-73.6217 L 3.32443,-73.9203 L 3.19077,-74.2044 L 3.02254,-74.4695
 L 2.82242,-74.7114 L 2.59355,-74.9263 L 2.33955,-75.1108 L 2.06444,-75.2621 L 1.77254,-75.3776 L 1.46844,-75.4557
 L 1.15697,-75.4951 L -1.15697,-75.4951 L -1.46844,-75.4557 L -1.77254,-75.3776 L -2.06444,-75.2621 L -2.33955,-75.1108
 L -2.59355,-74.9263 L -2.82242,-74.7114 L -3.02254,-74.4695 L -3.19077,-74.2044 L -3.32443,-73.9203 L -3.42145,-73.6217
 L -3.48029,-73.3133 L -3.5,-73 L -3.5,-71 L -3.48029,-70.6867 L -3.42145,-70.3783 L -3.32443,-70.0797
 L -3.19077,-69.7956 L -3.02254,-69.5305 L -2.82242,-69.2886 L -2.59355,-69.0737 L -2.33955,-68.8892 L -2.06444,-68.7379
 L -1.77254,-68.6224 L -1.46844,-68.5443 L -1.15697,-68.5049 L 1.15697,-68.5049 z
M -0.0941772,-70.503 L -0.281067,-70.5266 L -0.463516,-70.5734 L -0.638657,-70.6428 L -0.803726,-70.7335 L -0.956131,-70.8442
 L -1.09344,-70.9732 L -1.21352,-71.1183 L -1.31445,-71.2774 L -1.39465,-71.4478 L -1.45287,-71.627 L -1.48816,-71.812
 L -1.5,-72 L -1.48816,-72.188 L -1.45287,-72.373 L -1.39465,-72.5522 L -1.31445,-72.7226 L -1.21352,-72.8817
 L -1.09344,-73.0268 L -0.956131,-73.1558 L -0.803726,-73.2665 L -0.638657,-73.3572 L -0.463516,-73.4266 L -0.281067,-73.4734
 L -0.0941772,-73.497 L 0.0941772,-73.497 L 0.281067,-73.4734 L 0.463516,-73.4266 L 0.638657,-73.3572 L 0.803726,-73.2665
 L 0.956131,-73.1558 L 1.09344,-73.0268 L 1.21352,-72.8817 L 1.31445,-72.7226 L 1.39465,-72.5522 L 1.45287,-72.373
 L 1.48816,-72.188 L 1.5,-72 L 1.48816,-71.812 L 1.45287,-71.627 L 1.39465,-71.4478 L 1.31445,-71.2774
 L 1.21352,-71.1183 L 1.09344,-70.9732 L 0.956131,-70.8442 L 0.803726,-70.7335 L 0.638657,-70.6428 L 0.463516,-70.5734
 L 0.281067,-70.5266 L 0.0941772,-70.503 z
" stroke="black" fill="lightgray" stroke-width="0.5"/>
</svg>
