  0
SECTION
  2
BLOCKS
  0
ENDSEC
  0
SECTION
  2
ENTITIES
  0
LINE
  8
0
 10
14.6869
 20
102.089
 11
15.2951
 21
102.245
  0
LINE
  8
0
 10
15.2951
 20
102.245
 11
15.8789
 21
102.476
  0
LINE
  8
0
 10
15.8789
 20
102.476
 11
16.4291
 21
102.778
  0
LINE
  8
0
 10
16.4291
 20
102.778
 11
16.9371
 21
103.147
  0
LINE
  8
0
 10
16.9371
 20
103.147
 11
17.3948
 21
103.577
  0
LINE
  8
0
 10
17.3948
 20
103.577
 11
17.7951
 21
104.061
  0
LINE
  8
0
 10
17.7951
 20
104.061
 11
18.1315
 21
104.591
  0
LINE
  8
0
 10
18.1315
 20
104.591
 11
18.3989
 21
105.159
  0
LINE
  8
0
 10
18.3989
 20
105.159
 11
18.5929
 21
105.757
  0
LINE
  8
0
 10
18.5929
 20
105.757
 11
18.7106
 21
106.373
  0
LINE
  8
0
 10
18.7106
 20
106.373
 11
18.75
 21
107
  0
LINE
  8
0
 10
18.75
 20
107
 11
18.75
 21
127
  0
LINE
  8
0
 10
18.75
 20
127
 11
18.7106
 21
127.627
  0
LINE
  8
0
 10
18.7106
 20
127.627
 11
18.5929
 21
128.243
  0
LINE
  8
0
 10
18.5929
 20
128.243
 11
18.3989
 21
128.841
  0
LINE
  8
0
 10
18.3989
 20
128.841
 11
18.1315
 21
129.409
  0
LINE
  8
0
 10
18.1315
 20
129.409
 11
17.7951
 21
129.939
  0
LINE
  8
0
 10
17.7951
 20
129.939
 11
17.3948
 21
130.423
  0
LINE
  8
0
 10
17.3948
 20
130.423
 11
16.9371
 21
130.853
  0
LINE
  8
0
 10
16.9371
 20
130.853
 11
16.4291
 21
131.222
  0
LINE
  8
0
 10
16.4291
 20
131.222
 11
15.8789
 21
131.524
  0
LINE
  8
0
 10
15.8789
 20
131.524
 11
15.2951
 21
131.755
  0
LINE
  8
0
 10
15.2951
 20
131.755
 11
14.6869
 21
131.911
  0
LINE
  8
0
 10
14.6869
 20
131.911
 11
14.0639
 21
131.99
  0
LINE
  8
0
 10
14.0639
 20
131.99
 11
-14.0639
 21
131.99
  0
LINE
  8
0
 10
-14.0639
 20
131.99
 11
-14.6869
 21
131.911
  0
LINE
  8
0
 10
-14.6869
 20
131.911
 11
-15.2951
 21
131.755
  0
LINE
  8
0
 10
-15.2951
 20
131.755
 11
-15.8789
 21
131.524
  0
LINE
  8
0
 10
-15.8789
 20
131.524
 11
-16.4291
 21
131.222
  0
LINE
  8
0
 10
-16.4291
 20
131.222
 11
-16.9371
 21
130.853
  0
LINE
  8
0
 10
-16.9371
 20
130.853
 11
-17.3948
 21
130.423
  0
LINE
  8
0
 10
-17.3948
 20
130.423
 11
-17.7951
 21
129.939
  0
LINE
  8
0
 10
-17.7951
 20
129.939
 11
-18.1315
 21
129.409
  0
LINE
  8
0
 10
-18.1315
 20
129.409
 11
-18.3989
 21
128.841
  0
LINE
  8
0
 10
-18.3989
 20
128.841
 11
-18.5929
 21
128.243
  0
LINE
  8
0
 10
-18.5929
 20
128.243
 11
-18.7106
 21
127.627
  0
LINE
  8
0
 10
-18.7106
 20
127.627
 11
-18.75
 21
127
  0
LINE
  8
0
 10
-18.75
 20
127
 11
-18.75
 21
107
  0
LINE
  8
0
 10
-18.75
 20
107
 11
-18.7106
 21
106.373
  0
LINE
  8
0
 10
-18.7106
 20
106.373
 11
-18.5929
 21
105.757
  0
LINE
  8
0
 10
-18.5929
 20
105.757
 11
-18.3989
 21
105.159
  0
LINE
  8
0
 10
-18.3989
 20
105.159
 11
-18.1315
 21
104.591
  0
LINE
  8
0
 10
-18.1315
 20
104.591
 11
-17.7951
 21
104.061
  0
LINE
  8
0
 10
-17.7951
 20
104.061
 11
-17.3948
 21
103.577
  0
LINE
  8
0
 10
-17.3948
 20
103.577
 11
-16.9371
 21
103.147
  0
LINE
  8
0
 10
-16.9371
 20
103.147
 11
-16.4291
 21
102.778
  0
LINE
  8
0
 10
-16.4291
 20
102.778
 11
-15.8789
 21
102.476
  0
LINE
  8
0
 10
-15.8789
 20
102.476
 11
-15.2951
 21
102.245
  0
LINE
  8
0
 10
-15.2951
 20
102.245
 11
-14.6869
 21
102.089
  0
LINE
  8
0
 10
-14.6869
 20
102.089
 11
-14.0639
 21
102.01
  0
LINE
  8
0
 10
-14.0639
 20
102.01
 11
14.0639
 21
102.01
  0
LINE
  8
0
 10
14.0639
 20
102.01
 11
14.6869
 21
102.089
  0
LINE
  8
0
 10
-8.50392
 20
102.54
 11
-8.07086
 21
102.778
  0
LINE
  8
0
 10
-8.07086
 20
102.778
 11
-7.56287
 21
103.147
  0
LINE
  8
0
 10
-7.56287
 20
103.147
 11
-7.10515
 21
103.577
  0
LINE
  8
0
 10
-7.10515
 20
103.577
 11
-6.70491
 21
104.061
  0
LINE
  8
0
 10
-6.70491
 20
104.061
 11
-6.36845
 21
104.591
  0
LINE
  8
0
 10
-6.36845
 20
104.591
 11
-6.1011
 21
105.159
  0
LINE
  8
0
 10
-6.1011
 20
105.159
 11
-5.90707
 21
105.757
  0
LINE
  8
0
 10
-5.90707
 20
105.757
 11
-5.78941
 21
106.373
  0
LINE
  8
0
 10
-5.78941
 20
106.373
 11
-5.75
 21
107
  0
LINE
  8
0
 10
-5.75
 20
107
 11
-5.75
 21
110
  0
LINE
  8
0
 10
-5.75
 20
110
 11
-5.78941
 21
110.627
  0
LINE
  8
0
 10
-5.78941
 20
110.627
 11
-5.90707
 21
111.243
  0
LINE
  8
0
 10
-5.90707
 20
111.243
 11
-6.1011
 21
111.841
  0
LINE
  8
0
 10
-6.1011
 20
111.841
 11
-6.36845
 21
112.409
  0
LINE
  8
0
 10
-6.36845
 20
112.409
 11
-6.70491
 21
112.939
  0
LINE
  8
0
 10
-6.70491
 20
112.939
 11
-7.10515
 21
113.423
  0
LINE
  8
0
 10
-7.10515
 20
113.423
 11
-7.56287
 21
113.853
  0
LINE
  8
0
 10
-7.56287
 20
113.853
 11
-8.07086
 21
114.222
  0
LINE
  8
0
 10
-8.07086
 20
114.222
 11
-8.62109
 21
114.524
  0
LINE
  8
0
 10
-8.62109
 20
114.524
 11
-9.20491
 21
114.755
  0
LINE
  8
0
 10
-9.20491
 20
114.755
 11
-9.81308
 21
114.911
  0
LINE
  8
0
 10
-9.81308
 20
114.911
 11
-10.436
 21
114.99
  0
LINE
  8
0
 10
-10.436
 20
114.99
 11
-14.0639
 21
114.99
  0
LINE
  8
0
 10
-14.0639
 20
114.99
 11
-14.6869
 21
114.911
  0
LINE
  8
0
 10
-14.6869
 20
114.911
 11
-15.2951
 21
114.755
  0
LINE
  8
0
 10
-15.2951
 20
114.755
 11
-15.8789
 21
114.524
  0
LINE
  8
0
 10
-15.8789
 20
114.524
 11
-16.4291
 21
114.222
  0
LINE
  8
0
 10
-16.4291
 20
114.222
 11
-16.9371
 21
113.853
  0
LINE
  8
0
 10
-16.9371
 20
113.853
 11
-17.3948
 21
113.423
  0
LINE
  8
0
 10
-17.3948
 20
113.423
 11
-17.7951
 21
112.939
  0
LINE
  8
0
 10
-17.7951
 20
112.939
 11
-18.1315
 21
112.409
  0
LINE
  8
0
 10
-18.1315
 20
112.409
 11
-18.2185
 21
112.224
  0
LINE
  8
0
 10
-18.2185
 20
112.224
 11
-18.2185
 21
127
  0
LINE
  8
0
 10
-18.2185
 20
127
 11
-18.1833
 21
127.56
  0
LINE
  8
0
 10
-18.1833
 20
127.56
 11
-18.0782
 21
128.111
  0
LINE
  8
0
 10
-18.0782
 20
128.111
 11
-17.9047
 21
128.645
  0
LINE
  8
0
 10
-17.9047
 20
128.645
 11
-17.6658
 21
129.153
  0
LINE
  8
0
 10
-17.6658
 20
129.153
 11
-17.3651
 21
129.627
  0
LINE
  8
0
 10
-17.3651
 20
129.627
 11
-17.0074
 21
130.059
  0
LINE
  8
0
 10
-17.0074
 20
130.059
 11
-16.5983
 21
130.443
  0
LINE
  8
0
 10
-16.5983
 20
130.443
 11
-16.1444
 21
130.773
  0
LINE
  8
0
 10
-16.1444
 20
130.773
 11
-15.6526
 21
131.043
  0
LINE
  8
0
 10
-15.6526
 20
131.043
 11
-15.1308
 21
131.25
  0
LINE
  8
0
 10
-15.1308
 20
131.25
 11
-14.5873
 21
131.389
  0
LINE
  8
0
 10
-14.5873
 20
131.389
 11
-14.0306
 21
131.46
  0
LINE
  8
0
 10
-14.0306
 20
131.46
 11
14.0306
 21
131.46
  0
LINE
  8
0
 10
14.0306
 20
131.46
 11
14.5873
 21
131.389
  0
LINE
  8
0
 10
14.5873
 20
131.389
 11
15.1308
 21
131.25
  0
LINE
  8
0
 10
15.1308
 20
131.25
 11
15.6526
 21
131.043
  0
LINE
  8
0
 10
15.6526
 20
131.043
 11
16.1444
 21
130.773
  0
LINE
  8
0
 10
16.1444
 20
130.773
 11
16.5983
 21
130.443
  0
LINE
  8
0
 10
16.5983
 20
130.443
 11
17.0074
 21
130.059
  0
LINE
  8
0
 10
17.0074
 20
130.059
 11
17.3651
 21
129.627
  0
LINE
  8
0
 10
17.3651
 20
129.627
 11
17.6658
 21
129.153
  0
LINE
  8
0
 10
17.6658
 20
129.153
 11
17.9047
 21
128.645
  0
LINE
  8
0
 10
17.9047
 20
128.645
 11
18.0782
 21
128.111
  0
LINE
  8
0
 10
18.0782
 20
128.111
 11
18.1833
 21
127.56
  0
LINE
  8
0
 10
18.1833
 20
127.56
 11
18.2185
 21
127
  0
LINE
  8
0
 10
18.2185
 20
127
 11
18.2185
 21
107
  0
LINE
  8
0
 10
18.2185
 20
107
 11
18.1833
 21
106.44
  0
LINE
  8
0
 10
18.1833
 20
106.44
 11
18.0782
 21
105.889
  0
LINE
  8
0
 10
18.0782
 20
105.889
 11
17.9047
 21
105.355
  0
LINE
  8
0
 10
17.9047
 20
105.355
 11
17.6658
 21
104.847
  0
LINE
  8
0
 10
17.6658
 20
104.847
 11
17.3651
 21
104.373
  0
LINE
  8
0
 10
17.3651
 20
104.373
 11
17.0074
 21
103.941
  0
LINE
  8
0
 10
17.0074
 20
103.941
 11
16.5983
 21
103.557
  0
LINE
  8
0
 10
16.5983
 20
103.557
 11
16.1444
 21
103.227
  0
LINE
  8
0
 10
16.1444
 20
103.227
 11
15.6526
 21
102.957
  0
LINE
  8
0
 10
15.6526
 20
102.957
 11
15.1308
 21
102.75
  0
LINE
  8
0
 10
15.1308
 20
102.75
 11
14.5873
 21
102.611
  0
LINE
  8
0
 10
14.5873
 20
102.611
 11
14.0306
 21
102.54
  0
LINE
  8
0
 10
14.0306
 20
102.54
 11
-8.50392
 21
102.54
  0
LINE
  8
0
 10
11.7184
 20
122.044
 11
12.0225
 21
122.122
  0
LINE
  8
0
 10
12.0225
 20
122.122
 11
12.3144
 21
122.238
  0
LINE
  8
0
 10
12.3144
 20
122.238
 11
12.5896
 21
122.389
  0
LINE
  8
0
 10
12.5896
 20
122.389
 11
12.8436
 21
122.574
  0
LINE
  8
0
 10
12.8436
 20
122.574
 11
13.0724
 21
122.789
  0
LINE
  8
0
 10
13.0724
 20
122.789
 11
13.2725
 21
123.031
  0
LINE
  8
0
 10
13.2725
 20
123.031
 11
13.4408
 21
123.296
  0
LINE
  8
0
 10
13.4408
 20
123.296
 11
13.5744
 21
123.58
  0
LINE
  8
0
 10
13.5744
 20
123.58
 11
13.6714
 21
123.878
  0
LINE
  8
0
 10
13.6714
 20
123.878
 11
13.7303
 21
124.187
  0
LINE
  8
0
 10
13.7303
 20
124.187
 11
13.75
 21
124.5
  0
LINE
  8
0
 10
13.75
 20
124.5
 11
13.7303
 21
124.813
  0
LINE
  8
0
 10
13.7303
 20
124.813
 11
13.6714
 21
125.122
  0
LINE
  8
0
 10
13.6714
 20
125.122
 11
13.5744
 21
125.42
  0
LINE
  8
0
 10
13.5744
 20
125.42
 11
13.4408
 21
125.704
  0
LINE
  8
0
 10
13.4408
 20
125.704
 11
13.2725
 21
125.969
  0
LINE
  8
0
 10
13.2725
 20
125.969
 11
13.0724
 21
126.211
  0
LINE
  8
0
 10
13.0724
 20
126.211
 11
12.8436
 21
126.426
  0
LINE
  8
0
 10
12.8436
 20
126.426
 11
12.5896
 21
126.611
  0
LINE
  8
0
 10
12.5896
 20
126.611
 11
12.3144
 21
126.762
  0
LINE
  8
0
 10
12.3144
 20
126.762
 11
12.0225
 21
126.878
  0
LINE
  8
0
 10
12.0225
 20
126.878
 11
11.7184
 21
126.956
  0
LINE
  8
0
 10
11.7184
 20
126.956
 11
11.407
 21
126.995
  0
LINE
  8
0
 10
11.407
 20
126.995
 11
11.093
 21
126.995
  0
LINE
  8
0
 10
11.093
 20
126.995
 11
10.7815
 21
126.956
  0
LINE
  8
0
 10
10.7815
 20
126.956
 11
10.4774
 21
126.878
  0
LINE
  8
0
 10
10.4774
 20
126.878
 11
10.1855
 21
126.762
  0
LINE
  8
0
 10
10.1855
 20
126.762
 11
9.91043
 21
126.611
  0
LINE
  8
0
 10
9.91043
 20
126.611
 11
9.65643
 21
126.426
  0
LINE
  8
0
 10
9.65643
 20
126.426
 11
9.42757
 21
126.211
  0
LINE
  8
0
 10
9.42757
 20
126.211
 11
9.22745
 21
125.969
  0
LINE
  8
0
 10
9.22745
 20
125.969
 11
9.05922
 21
125.704
  0
LINE
  8
0
 10
9.05922
 20
125.704
 11
8.92555
 21
125.42
  0
LINE
  8
0
 10
8.92555
 20
125.42
 11
8.82854
 21
125.122
  0
LINE
  8
0
 10
8.82854
 20
125.122
 11
8.7697
 21
124.813
  0
LINE
  8
0
 10
8.7697
 20
124.813
 11
8.75
 21
124.5
  0
LINE
  8
0
 10
8.75
 20
124.5
 11
8.7697
 21
124.187
  0
LINE
  8
0
 10
8.7697
 20
124.187
 11
8.82854
 21
123.878
  0
LINE
  8
0
 10
8.82854
 20
123.878
 11
8.92555
 21
123.58
  0
LINE
  8
0
 10
8.92555
 20
123.58
 11
9.05922
 21
123.296
  0
LINE
  8
0
 10
9.05922
 20
123.296
 11
9.22745
 21
123.031
  0
LINE
  8
0
 10
9.22745
 20
123.031
 11
9.42757
 21
122.789
  0
LINE
  8
0
 10
9.42757
 20
122.789
 11
9.65643
 21
122.574
  0
LINE
  8
0
 10
9.65643
 20
122.574
 11
9.91043
 21
122.389
  0
LINE
  8
0
 10
9.91043
 20
122.389
 11
10.1855
 21
122.238
  0
LINE
  8
0
 10
10.1855
 20
122.238
 11
10.4774
 21
122.122
  0
LINE
  8
0
 10
10.4774
 20
122.122
 11
10.7815
 21
122.044
  0
LINE
  8
0
 10
10.7815
 20
122.044
 11
11.093
 21
122.005
  0
LINE
  8
0
 10
11.093
 20
122.005
 11
11.407
 21
122.005
  0
LINE
  8
0
 10
11.407
 20
122.005
 11
11.7184
 21
122.044
  0
LINE
  8
0
 10
11.1558
 20
123.003
 11
10.9689
 21
123.027
  0
LINE
  8
0
 10
10.9689
 20
123.027
 11
10.7865
 21
123.073
  0
LINE
  8
0
 10
10.7865
 20
123.073
 11
10.6113
 21
123.143
  0
LINE
  8
0
 10
10.6113
 20
123.143
 11
10.4463
 21
123.234
  0
LINE
  8
0
 10
10.4463
 20
123.234
 11
10.2939
 21
123.344
  0
LINE
  8
0
 10
10.2939
 20
123.344
 11
10.1565
 21
123.473
  0
LINE
  8
0
 10
10.1565
 20
123.473
 11
10.0365
 21
123.618
  0
LINE
  8
0
 10
10.0365
 20
123.618
 11
9.93553
 21
123.777
  0
LINE
  8
0
 10
9.93553
 20
123.777
 11
9.85533
 21
123.948
  0
LINE
  8
0
 10
9.85533
 20
123.948
 11
9.79712
 21
124.127
  0
LINE
  8
0
 10
9.79712
 20
124.127
 11
9.76183
 21
124.312
  0
LINE
  8
0
 10
9.76183
 20
124.312
 11
9.75
 21
124.5
  0
LINE
  8
0
 10
9.75
 20
124.5
 11
9.76183
 21
124.688
  0
LINE
  8
0
 10
9.76183
 20
124.688
 11
9.79712
 21
124.873
  0
LINE
  8
0
 10
9.79712
 20
124.873
 11
9.85533
 21
125.052
  0
LINE
  8
0
 10
9.85533
 20
125.052
 11
9.93553
 21
125.223
  0
LINE
  8
0
 10
9.93553
 20
125.223
 11
10.0365
 21
125.382
  0
LINE
  8
0
 10
10.0365
 20
125.382
 11
10.1565
 21
125.527
  0
LINE
  8
0
 10
10.1565
 20
125.527
 11
10.2939
 21
125.656
  0
LINE
  8
0
 10
10.2939
 20
125.656
 11
10.4463
 21
125.766
  0
LINE
  8
0
 10
10.4463
 20
125.766
 11
10.6113
 21
125.857
  0
LINE
  8
0
 10
10.6113
 20
125.857
 11
10.7865
 21
125.927
  0
LINE
  8
0
 10
10.7865
 20
125.927
 11
10.9689
 21
125.973
  0
LINE
  8
0
 10
10.9689
 20
125.973
 11
11.1558
 21
125.997
  0
LINE
  8
0
 10
11.1558
 20
125.997
 11
11.3442
 21
125.997
  0
LINE
  8
0
 10
11.3442
 20
125.997
 11
11.5311
 21
125.973
  0
LINE
  8
0
 10
11.5311
 20
125.973
 11
11.7135
 21
125.927
  0
LINE
  8
0
 10
11.7135
 20
125.927
 11
11.8887
 21
125.857
  0
LINE
  8
0
 10
11.8887
 20
125.857
 11
12.0537
 21
125.766
  0
LINE
  8
0
 10
12.0537
 20
125.766
 11
12.2061
 21
125.656
  0
LINE
  8
0
 10
12.2061
 20
125.656
 11
12.3434
 21
125.527
  0
LINE
  8
0
 10
12.3434
 20
125.527
 11
12.4635
 21
125.382
  0
LINE
  8
0
 10
12.4635
 20
125.382
 11
12.5645
 21
125.223
  0
LINE
  8
0
 10
12.5645
 20
125.223
 11
12.6447
 21
125.052
  0
LINE
  8
0
 10
12.6447
 20
125.052
 11
12.7029
 21
124.873
  0
LINE
  8
0
 10
12.7029
 20
124.873
 11
12.7382
 21
124.688
  0
LINE
  8
0
 10
12.7382
 20
124.688
 11
12.75
 21
124.5
  0
LINE
  8
0
 10
12.75
 20
124.5
 11
12.7382
 21
124.312
  0
LINE
  8
0
 10
12.7382
 20
124.312
 11
12.7029
 21
124.127
  0
LINE
  8
0
 10
12.7029
 20
124.127
 11
12.6447
 21
123.948
  0
LINE
  8
0
 10
12.6447
 20
123.948
 11
12.5645
 21
123.777
  0
LINE
  8
0
 10
12.5645
 20
123.777
 11
12.4635
 21
123.618
  0
LINE
  8
0
 10
12.4635
 20
123.618
 11
12.3434
 21
123.473
  0
LINE
  8
0
 10
12.3434
 20
123.473
 11
12.2061
 21
123.344
  0
LINE
  8
0
 10
12.2061
 20
123.344
 11
12.0537
 21
123.234
  0
LINE
  8
0
 10
12.0537
 20
123.234
 11
11.8887
 21
123.143
  0
LINE
  8
0
 10
11.8887
 20
123.143
 11
11.7135
 21
123.073
  0
LINE
  8
0
 10
11.7135
 20
123.073
 11
11.5311
 21
123.027
  0
LINE
  8
0
 10
11.5311
 20
123.027
 11
11.3442
 21
123.003
  0
LINE
  8
0
 10
11.3442
 20
123.003
 11
11.1558
 21
123.003
  0
LINE
  8
0
 10
-11.3442
 20
108.003
 11
-11.5311
 21
108.027
  0
LINE
  8
0
 10
-11.5311
 20
108.027
 11
-11.7135
 21
108.073
  0
LINE
  8
0
 10
-11.7135
 20
108.073
 11
-11.8887
 21
108.143
  0
LINE
  8
0
 10
-11.8887
 20
108.143
 11
-12.0537
 21
108.234
  0
LINE
  8
0
 10
-12.0537
 20
108.234
 11
-12.2061
 21
108.344
  0
LINE
  8
0
 10
-12.2061
 20
108.344
 11
-12.3434
 21
108.473
  0
LINE
  8
0
 10
-12.3434
 20
108.473
 11
-12.4635
 21
108.618
  0
LINE
  8
0
 10
-12.4635
 20
108.618
 11
-12.5645
 21
108.777
  0
LINE
  8
0
 10
-12.5645
 20
108.777
 11
-12.6447
 21
108.948
  0
LINE
  8
0
 10
-12.6447
 20
108.948
 11
-12.7029
 21
109.127
  0
LINE
  8
0
 10
-12.7029
 20
109.127
 11
-12.7382
 21
109.312
  0
LINE
  8
0
 10
-12.7382
 20
109.312
 11
-12.75
 21
109.5
  0
LINE
  8
0
 10
-12.75
 20
109.5
 11
-12.7382
 21
109.688
  0
LINE
  8
0
 10
-12.7382
 20
109.688
 11
-12.7029
 21
109.873
  0
LINE
  8
0
 10
-12.7029
 20
109.873
 11
-12.6447
 21
110.052
  0
LINE
  8
0
 10
-12.6447
 20
110.052
 11
-12.5645
 21
110.223
  0
LINE
  8
0
 10
-12.5645
 20
110.223
 11
-12.4635
 21
110.382
  0
LINE
  8
0
 10
-12.4635
 20
110.382
 11
-12.3434
 21
110.527
  0
LINE
  8
0
 10
-12.3434
 20
110.527
 11
-12.2061
 21
110.656
  0
LINE
  8
0
 10
-12.2061
 20
110.656
 11
-12.0537
 21
110.766
  0
LINE
  8
0
 10
-12.0537
 20
110.766
 11
-11.8887
 21
110.857
  0
LINE
  8
0
 10
-11.8887
 20
110.857
 11
-11.7135
 21
110.927
  0
LINE
  8
0
 10
-11.7135
 20
110.927
 11
-11.5311
 21
110.973
  0
LINE
  8
0
 10
-11.5311
 20
110.973
 11
-11.3442
 21
110.997
  0
LINE
  8
0
 10
-11.3442
 20
110.997
 11
-11.1558
 21
110.997
  0
LINE
  8
0
 10
-11.1558
 20
110.997
 11
-10.9689
 21
110.973
  0
LINE
  8
0
 10
-10.9689
 20
110.973
 11
-10.7865
 21
110.927
  0
LINE
  8
0
 10
-10.7865
 20
110.927
 11
-10.6113
 21
110.857
  0
LINE
  8
0
 10
-10.6113
 20
110.857
 11
-10.4463
 21
110.766
  0
LINE
  8
0
 10
-10.4463
 20
110.766
 11
-10.2939
 21
110.656
  0
LINE
  8
0
 10
-10.2939
 20
110.656
 11
-10.1565
 21
110.527
  0
LINE
  8
0
 10
-10.1565
 20
110.527
 11
-10.0365
 21
110.382
  0
LINE
  8
0
 10
-10.0365
 20
110.382
 11
-9.93553
 21
110.223
  0
LINE
  8
0
 10
-9.93553
 20
110.223
 11
-9.85533
 21
110.052
  0
LINE
  8
0
 10
-9.85533
 20
110.052
 11
-9.79712
 21
109.873
  0
LINE
  8
0
 10
-9.79712
 20
109.873
 11
-9.76183
 21
109.688
  0
LINE
  8
0
 10
-9.76183
 20
109.688
 11
-9.75
 21
109.5
  0
LINE
  8
0
 10
-9.75
 20
109.5
 11
-9.76183
 21
109.312
  0
LINE
  8
0
 10
-9.76183
 20
109.312
 11
-9.79712
 21
109.127
  0
LINE
  8
0
 10
-9.79712
 20
109.127
 11
-9.85533
 21
108.948
  0
LINE
  8
0
 10
-9.85533
 20
108.948
 11
-9.93553
 21
108.777
  0
LINE
  8
0
 10
-9.93553
 20
108.777
 11
-10.0365
 21
108.618
  0
LINE
  8
0
 10
-10.0365
 20
108.618
 11
-10.1565
 21
108.473
  0
LINE
  8
0
 10
-10.1565
 20
108.473
 11
-10.2939
 21
108.344
  0
LINE
  8
0
 10
-10.2939
 20
108.344
 11
-10.4463
 21
108.234
  0
LINE
  8
0
 10
-10.4463
 20
108.234
 11
-10.6113
 21
108.143
  0
LINE
  8
0
 10
-10.6113
 20
108.143
 11
-10.7865
 21
108.073
  0
LINE
  8
0
 10
-10.7865
 20
108.073
 11
-10.9689
 21
108.027
  0
LINE
  8
0
 10
-10.9689
 20
108.027
 11
-11.1558
 21
108.003
  0
LINE
  8
0
 10
-11.1558
 20
108.003
 11
-11.3442
 21
108.003
  0
LINE
  8
0
 10
14.6869
 20
63.0886
 11
15.2951
 21
63.2447
  0
LINE
  8
0
 10
15.2951
 20
63.2447
 11
15.8789
 21
63.4759
  0
LINE
  8
0
 10
15.8789
 20
63.4759
 11
16.4291
 21
63.7784
  0
LINE
  8
0
 10
16.4291
 20
63.7784
 11
16.9371
 21
64.1474
  0
LINE
  8
0
 10
16.9371
 20
64.1474
 11
17.3948
 21
64.5773
  0
LINE
  8
0
 10
17.3948
 20
64.5773
 11
17.7951
 21
65.0611
  0
LINE
  8
0
 10
17.7951
 20
65.0611
 11
18.1315
 21
65.5912
  0
LINE
  8
0
 10
18.1315
 20
65.5912
 11
18.3989
 21
66.1594
  0
LINE
  8
0
 10
18.3989
 20
66.1594
 11
18.5929
 21
66.7566
  0
LINE
  8
0
 10
18.5929
 20
66.7566
 11
18.7106
 21
67.3733
  0
LINE
  8
0
 10
18.7106
 20
67.3733
 11
18.75
 21
68
  0
LINE
  8
0
 10
18.75
 20
68
 11
18.75
 21
88
  0
LINE
  8
0
 10
18.75
 20
88
 11
18.7106
 21
88.6267
  0
LINE
  8
0
 10
18.7106
 20
88.6267
 11
18.5929
 21
89.2434
  0
LINE
  8
0
 10
18.5929
 20
89.2434
 11
18.3989
 21
89.8406
  0
LINE
  8
0
 10
18.3989
 20
89.8406
 11
18.1315
 21
90.4088
  0
LINE
  8
0
 10
18.1315
 20
90.4088
 11
17.7951
 21
90.9389
  0
LINE
  8
0
 10
17.7951
 20
90.9389
 11
17.3948
 21
91.4227
  0
LINE
  8
0
 10
17.3948
 20
91.4227
 11
16.9371
 21
91.8526
  0
LINE
  8
0
 10
16.9371
 20
91.8526
 11
16.4291
 21
92.2216
  0
LINE
  8
0
 10
16.4291
 20
92.2216
 11
15.8789
 21
92.5241
  0
LINE
  8
0
 10
15.8789
 20
92.5241
 11
15.2951
 21
92.7553
  0
LINE
  8
0
 10
15.2951
 20
92.7553
 11
14.6869
 21
92.9114
  0
LINE
  8
0
 10
14.6869
 20
92.9114
 11
14.0639
 21
92.9901
  0
LINE
  8
0
 10
14.0639
 20
92.9901
 11
-14.0639
 21
92.9901
  0
LINE
  8
0
 10
-14.0639
 20
92.9901
 11
-14.6869
 21
92.9114
  0
LINE
  8
0
 10
-14.6869
 20
92.9114
 11
-15.2951
 21
92.7553
  0
LINE
  8
0
 10
-15.2951
 20
92.7553
 11
-15.8789
 21
92.5241
  0
LINE
  8
0
 10
-15.8789
 20
92.5241
 11
-16.4291
 21
92.2216
  0
LINE
  8
0
 10
-16.4291
 20
92.2216
 11
-16.9371
 21
91.8526
  0
LINE
  8
0
 10
-16.9371
 20
91.8526
 11
-17.3948
 21
91.4227
  0
LINE
  8
0
 10
-17.3948
 20
91.4227
 11
-17.7951
 21
90.9389
  0
LINE
  8
0
 10
-17.7951
 20
90.9389
 11
-18.1315
 21
90.4088
  0
LINE
  8
0
 10
-18.1315
 20
90.4088
 11
-18.3989
 21
89.8406
  0
LINE
  8
0
 10
-18.3989
 20
89.8406
 11
-18.5929
 21
89.2434
  0
LINE
  8
0
 10
-18.5929
 20
89.2434
 11
-18.7106
 21
88.6267
  0
LINE
  8
0
 10
-18.7106
 20
88.6267
 11
-18.75
 21
88
  0
LINE
  8
0
 10
-18.75
 20
88
 11
-18.75
 21
68
  0
LINE
  8
0
 10
-18.75
 20
68
 11
-18.7106
 21
67.3733
  0
LINE
  8
0
 10
-18.7106
 20
67.3733
 11
-18.5929
 21
66.7566
  0
LINE
  8
0
 10
-18.5929
 20
66.7566
 11
-18.3989
 21
66.1594
  0
LINE
  8
0
 10
-18.3989
 20
66.1594
 11
-18.1315
 21
65.5912
  0
LINE
  8
0
 10
-18.1315
 20
65.5912
 11
-17.7951
 21
65.0611
  0
LINE
  8
0
 10
-17.7951
 20
65.0611
 11
-17.3948
 21
64.5773
  0
LINE
  8
0
 10
-17.3948
 20
64.5773
 11
-16.9371
 21
64.1474
  0
LINE
  8
0
 10
-16.9371
 20
64.1474
 11
-16.4291
 21
63.7784
  0
LINE
  8
0
 10
-16.4291
 20
63.7784
 11
-15.8789
 21
63.4759
  0
LINE
  8
0
 10
-15.8789
 20
63.4759
 11
-15.2951
 21
63.2447
  0
LINE
  8
0
 10
-15.2951
 20
63.2447
 11
-14.6869
 21
63.0886
  0
LINE
  8
0
 10
-14.6869
 20
63.0886
 11
-14.0639
 21
63.0099
  0
LINE
  8
0
 10
-14.0639
 20
63.0099
 11
14.0639
 21
63.0099
  0
LINE
  8
0
 10
14.0639
 20
63.0099
 11
14.6869
 21
63.0886
  0
LINE
  8
0
 10
-6.62805
 20
65.1822
 11
-6.36845
 21
65.5912
  0
LINE
  8
0
 10
-6.36845
 20
65.5912
 11
-6.1011
 21
66.1594
  0
LINE
  8
0
 10
-6.1011
 20
66.1594
 11
-5.90707
 21
66.7566
  0
LINE
  8
0
 10
-5.90707
 20
66.7566
 11
-5.78941
 21
67.3733
  0
LINE
  8
0
 10
-5.78941
 20
67.3733
 11
-5.75
 21
68
  0
LINE
  8
0
 10
-5.75
 20
68
 11
-5.75
 21
71
  0
LINE
  8
0
 10
-5.75
 20
71
 11
-5.78941
 21
71.6267
  0
LINE
  8
0
 10
-5.78941
 20
71.6267
 11
-5.90707
 21
72.2435
  0
LINE
  8
0
 10
-5.90707
 20
72.2435
 11
-6.1011
 21
72.8406
  0
LINE
  8
0
 10
-6.1011
 20
72.8406
 11
-6.36845
 21
73.4088
  0
LINE
  8
0
 10
-6.36845
 20
73.4088
 11
-6.70491
 21
73.9389
  0
LINE
  8
0
 10
-6.70491
 20
73.9389
 11
-7.10515
 21
74.4227
  0
LINE
  8
0
 10
-7.10515
 20
74.4227
 11
-7.56287
 21
74.8526
  0
LINE
  8
0
 10
-7.56287
 20
74.8526
 11
-8.07086
 21
75.2216
  0
LINE
  8
0
 10
-8.07086
 20
75.2216
 11
-8.62109
 21
75.5241
  0
LINE
  8
0
 10
-8.62109
 20
75.5241
 11
-9.20491
 21
75.7553
  0
LINE
  8
0
 10
-9.20491
 20
75.7553
 11
-9.81308
 21
75.9114
  0
LINE
  8
0
 10
-9.81308
 20
75.9114
 11
-10.436
 21
75.9901
  0
LINE
  8
0
 10
-10.436
 20
75.9901
 11
-14.0639
 21
75.9901
  0
LINE
  8
0
 10
-14.0639
 20
75.9901
 11
-14.6869
 21
75.9114
  0
LINE
  8
0
 10
-14.6869
 20
75.9114
 11
-15.2951
 21
75.7553
  0
LINE
  8
0
 10
-15.2951
 20
75.7553
 11
-15.8789
 21
75.5241
  0
LINE
  8
0
 10
-15.8789
 20
75.5241
 11
-16.4291
 21
75.2216
  0
LINE
  8
0
 10
-16.4291
 20
75.2216
 11
-16.5734
 21
75.1168
  0
LINE
  8
0
 10
-16.5734
 20
75.1168
 11
-16.5734
 21
88
  0
LINE
  8
0
 10
-16.5734
 20
88
 11
-16.5511
 21
88.3539
  0
LINE
  8
0
 10
-16.5511
 20
88.3539
 11
-16.4847
 21
88.7021
  0
LINE
  8
0
 10
-16.4847
 20
88.7021
 11
-16.3751
 21
89.0394
  0
LINE
  8
0
 10
-16.3751
 20
89.0394
 11
-16.2242
 21
89.3602
  0
LINE
  8
0
 10
-16.2242
 20
89.3602
 11
-16.0342
 21
89.6595
  0
LINE
  8
0
 10
-16.0342
 20
89.6595
 11
-15.8082
 21
89.9328
  0
LINE
  8
0
 10
-15.8082
 20
89.9328
 11
-15.5497
 21
90.1755
  0
LINE
  8
0
 10
-15.5497
 20
90.1755
 11
-15.2628
 21
90.3839
  0
LINE
  8
0
 10
-15.2628
 20
90.3839
 11
-14.9521
 21
90.5547
  0
LINE
  8
0
 10
-14.9521
 20
90.5547
 11
-14.6225
 21
90.6852
  0
LINE
  8
0
 10
-14.6225
 20
90.6852
 11
-14.2791
 21
90.7734
  0
LINE
  8
0
 10
-14.2791
 20
90.7734
 11
-13.9273
 21
90.8178
  0
LINE
  8
0
 10
-13.9273
 20
90.8178
 11
6.62805
 21
90.8178
  0
LINE
  8
0
 10
6.62805
 20
90.8178
 11
6.36845
 21
90.4088
  0
LINE
  8
0
 10
6.36845
 20
90.4088
 11
6.1011
 21
89.8406
  0
LINE
  8
0
 10
6.1011
 20
89.8406
 11
5.90707
 21
89.2434
  0
LINE
  8
0
 10
5.90707
 20
89.2434
 11
5.78941
 21
88.6267
  0
LINE
  8
0
 10
5.78941
 20
88.6267
 11
5.75
 21
88
  0
LINE
  8
0
 10
5.75
 20
88
 11
5.75
 21
85
  0
LINE
  8
0
 10
5.75
 20
85
 11
5.78941
 21
84.3733
  0
LINE
  8
0
 10
5.78941
 20
84.3733
 11
5.90707
 21
83.7565
  0
LINE
  8
0
 10
5.90707
 20
83.7565
 11
6.1011
 21
83.1594
  0
LINE
  8
0
 10
6.1011
 20
83.1594
 11
6.36845
 21
82.5912
  0
LINE
  8
0
 10
6.36845
 20
82.5912
 11
6.70491
 21
82.0611
  0
LINE
  8
0
 10
6.70491
 20
82.0611
 11
7.10515
 21
81.5773
  0
LINE
  8
0
 10
7.10515
 20
81.5773
 11
7.56287
 21
81.1474
  0
LINE
  8
0
 10
7.56287
 20
81.1474
 11
8.07086
 21
80.7784
  0
LINE
  8
0
 10
8.07086
 20
80.7784
 11
8.62109
 21
80.4759
  0
LINE
  8
0
 10
8.62109
 20
80.4759
 11
9.20491
 21
80.2447
  0
LINE
  8
0
 10
9.20491
 20
80.2447
 11
9.81308
 21
80.0886
  0
LINE
  8
0
 10
9.81308
 20
80.0886
 11
10.436
 21
80.0099
  0
LINE
  8
0
 10
10.436
 20
80.0099
 11
14.0639
 21
80.0099
  0
LINE
  8
0
 10
14.0639
 20
80.0099
 11
14.6869
 21
80.0886
  0
LINE
  8
0
 10
14.6869
 20
80.0886
 11
15.2951
 21
80.2447
  0
LINE
  8
0
 10
15.2951
 20
80.2447
 11
15.8789
 21
80.4759
  0
LINE
  8
0
 10
15.8789
 20
80.4759
 11
16.4291
 21
80.7784
  0
LINE
  8
0
 10
16.4291
 20
80.7784
 11
16.5734
 21
80.8832
  0
LINE
  8
0
 10
16.5734
 20
80.8832
 11
16.5734
 21
68
  0
LINE
  8
0
 10
16.5734
 20
68
 11
16.5511
 21
67.6461
  0
LINE
  8
0
 10
16.5511
 20
67.6461
 11
16.4847
 21
67.2979
  0
LINE
  8
0
 10
16.4847
 20
67.2979
 11
16.3751
 21
66.9606
  0
LINE
  8
0
 10
16.3751
 20
66.9606
 11
16.2242
 21
66.6398
  0
LINE
  8
0
 10
16.2242
 20
66.6398
 11
16.0342
 21
66.3405
  0
LINE
  8
0
 10
16.0342
 20
66.3405
 11
15.8082
 21
66.0672
  0
LINE
  8
0
 10
15.8082
 20
66.0672
 11
15.5497
 21
65.8245
  0
LINE
  8
0
 10
15.5497
 20
65.8245
 11
15.2628
 21
65.6161
  0
LINE
  8
0
 10
15.2628
 20
65.6161
 11
14.9521
 21
65.4453
  0
LINE
  8
0
 10
14.9521
 20
65.4453
 11
14.6225
 21
65.3148
  0
LINE
  8
0
 10
14.6225
 20
65.3148
 11
14.2791
 21
65.2266
  0
LINE
  8
0
 10
14.2791
 20
65.2266
 11
13.9273
 21
65.1822
  0
LINE
  8
0
 10
13.9273
 20
65.1822
 11
-6.62805
 21
65.1822
  0
LINE
  8
0
 10
11.0993
 20
83.1047
 11
10.8003
 21
83.1425
  0
LINE
  8
0
 10
10.8003
 20
83.1425
 11
10.5083
 21
83.2175
  0
LINE
  8
0
 10
10.5083
 20
83.2175
 11
10.2281
 21
83.3284
  0
LINE
  8
0
 10
10.2281
 20
83.3284
 11
9.964
 21
83.4736
  0
LINE
  8
0
 10
9.964
 20
83.4736
 11
9.72017
 21
83.6508
  0
LINE
  8
0
 10
9.72017
 20
83.6508
 11
9.50047
 21
83.8571
  0
LINE
  8
0
 10
9.50047
 20
83.8571
 11
9.30835
 21
84.0893
  0
LINE
  8
0
 10
9.30835
 20
84.0893
 11
9.14685
 21
84.3438
  0
LINE
  8
0
 10
9.14685
 20
84.3438
 11
9.01852
 21
84.6165
  0
LINE
  8
0
 10
9.01852
 20
84.6165
 11
8.9254
 21
84.9031
  0
LINE
  8
0
 10
8.9254
 20
84.9031
 11
8.86891
 21
85.1992
  0
LINE
  8
0
 10
8.86891
 20
85.1992
 11
8.84999
 21
85.5
  0
LINE
  8
0
 10
8.84999
 20
85.5
 11
8.86891
 21
85.8008
  0
LINE
  8
0
 10
8.86891
 20
85.8008
 11
8.9254
 21
86.0968
  0
LINE
  8
0
 10
8.9254
 20
86.0968
 11
9.01852
 21
86.3835
  0
LINE
  8
0
 10
9.01852
 20
86.3835
 11
9.14685
 21
86.6562
  0
LINE
  8
0
 10
9.14685
 20
86.6562
 11
9.30835
 21
86.9107
  0
LINE
  8
0
 10
9.30835
 20
86.9107
 11
9.50047
 21
87.1429
  0
LINE
  8
0
 10
9.50047
 20
87.1429
 11
9.72017
 21
87.3492
  0
LINE
  8
0
 10
9.72017
 20
87.3492
 11
9.964
 21
87.5264
  0
LINE
  8
0
 10
9.964
 20
87.5264
 11
10.2281
 21
87.6716
  0
LINE
  8
0
 10
10.2281
 20
87.6716
 11
10.5083
 21
87.7825
  0
LINE
  8
0
 10
10.5083
 20
87.7825
 11
10.8003
 21
87.8575
  0
LINE
  8
0
 10
10.8003
 20
87.8575
 11
11.0993
 21
87.8953
  0
LINE
  8
0
 10
11.0993
 20
87.8953
 11
11.4007
 21
87.8953
  0
LINE
  8
0
 10
11.4007
 20
87.8953
 11
11.6997
 21
87.8575
  0
LINE
  8
0
 10
11.6997
 20
87.8575
 11
11.9916
 21
87.7825
  0
LINE
  8
0
 10
11.9916
 20
87.7825
 11
12.2719
 21
87.6716
  0
LINE
  8
0
 10
12.2719
 20
87.6716
 11
12.536
 21
87.5264
  0
LINE
  8
0
 10
12.536
 20
87.5264
 11
12.7798
 21
87.3492
  0
LINE
  8
0
 10
12.7798
 20
87.3492
 11
12.9995
 21
87.1429
  0
LINE
  8
0
 10
12.9995
 20
87.1429
 11
13.1916
 21
86.9107
  0
LINE
  8
0
 10
13.1916
 20
86.9107
 11
13.3531
 21
86.6562
  0
LINE
  8
0
 10
13.3531
 20
86.6562
 11
13.4815
 21
86.3835
  0
LINE
  8
0
 10
13.4815
 20
86.3835
 11
13.5746
 21
86.0968
  0
LINE
  8
0
 10
13.5746
 20
86.0968
 11
13.6311
 21
85.8008
  0
LINE
  8
0
 10
13.6311
 20
85.8008
 11
13.65
 21
85.5
  0
LINE
  8
0
 10
13.65
 20
85.5
 11
13.6311
 21
85.1992
  0
LINE
  8
0
 10
13.6311
 20
85.1992
 11
13.5746
 21
84.9031
  0
LINE
  8
0
 10
13.5746
 20
84.9031
 11
13.4815
 21
84.6165
  0
LINE
  8
0
 10
13.4815
 20
84.6165
 11
13.3531
 21
84.3438
  0
LINE
  8
0
 10
13.3531
 20
84.3438
 11
13.1916
 21
84.0893
  0
LINE
  8
0
 10
13.1916
 20
84.0893
 11
12.9995
 21
83.8571
  0
LINE
  8
0
 10
12.9995
 20
83.8571
 11
12.7798
 21
83.6508
  0
LINE
  8
0
 10
12.7798
 20
83.6508
 11
12.536
 21
83.4736
  0
LINE
  8
0
 10
12.536
 20
83.4736
 11
12.2719
 21
83.3284
  0
LINE
  8
0
 10
12.2719
 20
83.3284
 11
11.9916
 21
83.2175
  0
LINE
  8
0
 10
11.9916
 20
83.2175
 11
11.6997
 21
83.1425
  0
LINE
  8
0
 10
11.6997
 20
83.1425
 11
11.4007
 21
83.1047
  0
LINE
  8
0
 10
11.4007
 20
83.1047
 11
11.0993
 21
83.1047
  0
LINE
  8
0
 10
-11.4007
 20
68.1047
 11
-11.6997
 21
68.1425
  0
LINE
  8
0
 10
-11.6997
 20
68.1425
 11
-11.9916
 21
68.2175
  0
LINE
  8
0
 10
-11.9916
 20
68.2175
 11
-12.2719
 21
68.3284
  0
LINE
  8
0
 10
-12.2719
 20
68.3284
 11
-12.536
 21
68.4736
  0
LINE
  8
0
 10
-12.536
 20
68.4736
 11
-12.7798
 21
68.6508
  0
LINE
  8
0
 10
-12.7798
 20
68.6508
 11
-12.9995
 21
68.8571
  0
LINE
  8
0
 10
-12.9995
 20
68.8571
 11
-13.1916
 21
69.0893
  0
LINE
  8
0
 10
-13.1916
 20
69.0893
 11
-13.3531
 21
69.3438
  0
LINE
  8
0
 10
-13.3531
 20
69.3438
 11
-13.4815
 21
69.6165
  0
LINE
  8
0
 10
-13.4815
 20
69.6165
 11
-13.5746
 21
69.9032
  0
LINE
  8
0
 10
-13.5746
 20
69.9032
 11
-13.6311
 21
70.1992
  0
LINE
  8
0
 10
-13.6311
 20
70.1992
 11
-13.65
 21
70.5
  0
LINE
  8
0
 10
-13.65
 20
70.5
 11
-13.6311
 21
70.8008
  0
LINE
  8
0
 10
-13.6311
 20
70.8008
 11
-13.5746
 21
71.0969
  0
LINE
  8
0
 10
-13.5746
 20
71.0969
 11
-13.4815
 21
71.3835
  0
LINE
  8
0
 10
-13.4815
 20
71.3835
 11
-13.3531
 21
71.6562
  0
LINE
  8
0
 10
-13.3531
 20
71.6562
 11
-13.1916
 21
71.9107
  0
LINE
  8
0
 10
-13.1916
 20
71.9107
 11
-12.9995
 21
72.1429
  0
LINE
  8
0
 10
-12.9995
 20
72.1429
 11
-12.7798
 21
72.3492
  0
LINE
  8
0
 10
-12.7798
 20
72.3492
 11
-12.536
 21
72.5264
  0
LINE
  8
0
 10
-12.536
 20
72.5264
 11
-12.2719
 21
72.6716
  0
LINE
  8
0
 10
-12.2719
 20
72.6716
 11
-11.9916
 21
72.7825
  0
LINE
  8
0
 10
-11.9916
 20
72.7825
 11
-11.6997
 21
72.8575
  0
LINE
  8
0
 10
-11.6997
 20
72.8575
 11
-11.4007
 21
72.8953
  0
LINE
  8
0
 10
-11.4007
 20
72.8953
 11
-11.0993
 21
72.8953
  0
LINE
  8
0
 10
-11.0993
 20
72.8953
 11
-10.8003
 21
72.8575
  0
LINE
  8
0
 10
-10.8003
 20
72.8575
 11
-10.5083
 21
72.7825
  0
LINE
  8
0
 10
-10.5083
 20
72.7825
 11
-10.2281
 21
72.6716
  0
LINE
  8
0
 10
-10.2281
 20
72.6716
 11
-9.964
 21
72.5264
  0
LINE
  8
0
 10
-9.964
 20
72.5264
 11
-9.72017
 21
72.3492
  0
LINE
  8
0
 10
-9.72017
 20
72.3492
 11
-9.50047
 21
72.1429
  0
LINE
  8
0
 10
-9.50047
 20
72.1429
 11
-9.30835
 21
71.9107
  0
LINE
  8
0
 10
-9.30835
 20
71.9107
 11
-9.14685
 21
71.6562
  0
LINE
  8
0
 10
-9.14685
 20
71.6562
 11
-9.01852
 21
71.3835
  0
LINE
  8
0
 10
-9.01852
 20
71.3835
 11
-8.9254
 21
71.0969
  0
LINE
  8
0
 10
-8.9254
 20
71.0969
 11
-8.86891
 21
70.8008
  0
LINE
  8
0
 10
-8.86891
 20
70.8008
 11
-8.84999
 21
70.5
  0
LINE
  8
0
 10
-8.84999
 20
70.5
 11
-8.86891
 21
70.1992
  0
LINE
  8
0
 10
-8.86891
 20
70.1992
 11
-8.9254
 21
69.9032
  0
LINE
  8
0
 10
-8.9254
 20
69.9032
 11
-9.01852
 21
69.6165
  0
LINE
  8
0
 10
-9.01852
 20
69.6165
 11
-9.14685
 21
69.3438
  0
LINE
  8
0
 10
-9.14685
 20
69.3438
 11
-9.30835
 21
69.0893
  0
LINE
  8
0
 10
-9.30835
 20
69.0893
 11
-9.50047
 21
68.8571
  0
LINE
  8
0
 10
-9.50047
 20
68.8571
 11
-9.72017
 21
68.6508
  0
LINE
  8
0
 10
-9.72017
 20
68.6508
 11
-9.964
 21
68.4736
  0
LINE
  8
0
 10
-9.964
 20
68.4736
 11
-10.2281
 21
68.3284
  0
LINE
  8
0
 10
-10.2281
 20
68.3284
 11
-10.5083
 21
68.2175
  0
LINE
  8
0
 10
-10.5083
 20
68.2175
 11
-10.8003
 21
68.1425
  0
LINE
  8
0
 10
-10.8003
 20
68.1425
 11
-11.0993
 21
68.1047
  0
LINE
  8
0
 10
-11.0993
 20
68.1047
 11
-11.4007
 21
68.1047
  0
ENDSEC
  0
SECTION
  2
OBJECTS
  0
DICTIONARY
  0
ENDSEC
  0
EOF
