  0
SECTION
  2
BLOCKS
  0
ENDSEC
  0
SECTION
  2
ENTITIES
  0
LINE
  8
0
 10
33.4369
 20
466.589
 11
34.0451
 21
466.745
  0
LINE
  8
0
 10
34.0451
 20
466.745
 11
34.6289
 21
466.976
  0
LINE
  8
0
 10
34.6289
 20
466.976
 11
35.1791
 21
467.278
  0
LINE
  8
0
 10
35.1791
 20
467.278
 11
35.6871
 21
467.647
  0
LINE
  8
0
 10
35.6871
 20
467.647
 11
36.1448
 21
468.077
  0
LINE
  8
0
 10
36.1448
 20
468.077
 11
36.5451
 21
468.561
  0
LINE
  8
0
 10
36.5451
 20
468.561
 11
36.8815
 21
469.091
  0
LINE
  8
0
 10
36.8815
 20
469.091
 11
37.1489
 21
469.659
  0
LINE
  8
0
 10
37.1489
 20
469.659
 11
37.3429
 21
470.257
  0
LINE
  8
0
 10
37.3429
 20
470.257
 11
37.4606
 21
470.873
  0
LINE
  8
0
 10
37.4606
 20
470.873
 11
37.5
 21
471.5
  0
LINE
  8
0
 10
37.5
 20
471.5
 11
37.5
 21
536.5
  0
LINE
  8
0
 10
37.5
 20
536.5
 11
37.4606
 21
537.127
  0
LINE
  8
0
 10
37.4606
 20
537.127
 11
37.3429
 21
537.743
  0
LINE
  8
0
 10
37.3429
 20
537.743
 11
37.1489
 21
538.341
  0
LINE
  8
0
 10
37.1489
 20
538.341
 11
36.8815
 21
538.909
  0
LINE
  8
0
 10
36.8815
 20
538.909
 11
36.5451
 21
539.439
  0
LINE
  8
0
 10
36.5451
 20
539.439
 11
36.1448
 21
539.923
  0
LINE
  8
0
 10
36.1448
 20
539.923
 11
35.6871
 21
540.353
  0
LINE
  8
0
 10
35.6871
 20
540.353
 11
35.1791
 21
540.722
  0
LINE
  8
0
 10
35.1791
 20
540.722
 11
34.6289
 21
541.024
  0
LINE
  8
0
 10
34.6289
 20
541.024
 11
34.0451
 21
541.255
  0
LINE
  8
0
 10
34.0451
 20
541.255
 11
33.4369
 21
541.411
  0
LINE
  8
0
 10
33.4369
 20
541.411
 11
32.8139
 21
541.49
  0
LINE
  8
0
 10
32.8139
 20
541.49
 11
-32.8139
 21
541.49
  0
LINE
  8
0
 10
-32.8139
 20
541.49
 11
-33.4369
 21
541.411
  0
LINE
  8
0
 10
-33.4369
 20
541.411
 11
-34.0451
 21
541.255
  0
LINE
  8
0
 10
-34.0451
 20
541.255
 11
-34.6289
 21
541.024
  0
LINE
  8
0
 10
-34.6289
 20
541.024
 11
-35.1791
 21
540.722
  0
LINE
  8
0
 10
-35.1791
 20
540.722
 11
-35.6871
 21
540.353
  0
LINE
  8
0
 10
-35.6871
 20
540.353
 11
-36.1448
 21
539.923
  0
LINE
  8
0
 10
-36.1448
 20
539.923
 11
-36.5451
 21
539.439
  0
LINE
  8
0
 10
-36.5451
 20
539.439
 11
-36.8815
 21
538.909
  0
LINE
  8
0
 10
-36.8815
 20
538.909
 11
-37.1489
 21
538.341
  0
LINE
  8
0
 10
-37.1489
 20
538.341
 11
-37.3429
 21
537.743
  0
LINE
  8
0
 10
-37.3429
 20
537.743
 11
-37.4606
 21
537.127
  0
LINE
  8
0
 10
-37.4606
 20
537.127
 11
-37.5
 21
536.5
  0
LINE
  8
0
 10
-37.5
 20
536.5
 11
-37.5
 21
471.5
  0
LINE
  8
0
 10
-37.5
 20
471.5
 11
-37.4606
 21
470.873
  0
LINE
  8
0
 10
-37.4606
 20
470.873
 11
-37.3429
 21
470.257
  0
LINE
  8
0
 10
-37.3429
 20
470.257
 11
-37.1489
 21
469.659
  0
LINE
  8
0
 10
-37.1489
 20
469.659
 11
-36.8815
 21
469.091
  0
LINE
  8
0
 10
-36.8815
 20
469.091
 11
-36.5451
 21
468.561
  0
LINE
  8
0
 10
-36.5451
 20
468.561
 11
-36.1448
 21
468.077
  0
LINE
  8
0
 10
-36.1448
 20
468.077
 11
-35.6871
 21
467.647
  0
LINE
  8
0
 10
-35.6871
 20
467.647
 11
-35.1791
 21
467.278
  0
LINE
  8
0
 10
-35.1791
 20
467.278
 11
-34.6289
 21
466.976
  0
LINE
  8
0
 10
-34.6289
 20
466.976
 11
-34.0451
 21
466.745
  0
LINE
  8
0
 10
-34.0451
 20
466.745
 11
-33.4369
 21
466.589
  0
LINE
  8
0
 10
-33.4369
 20
466.589
 11
-32.8139
 21
466.51
  0
LINE
  8
0
 10
-32.8139
 20
466.51
 11
32.8139
 21
466.51
  0
LINE
  8
0
 10
32.8139
 20
466.51
 11
33.4369
 21
466.589
  0
LINE
  8
0
 10
-27.311
 20
467.009
 11
-26.8209
 21
467.278
  0
LINE
  8
0
 10
-26.8209
 20
467.278
 11
-26.3129
 21
467.647
  0
LINE
  8
0
 10
-26.3129
 20
467.647
 11
-25.8551
 21
468.077
  0
LINE
  8
0
 10
-25.8551
 20
468.077
 11
-25.4549
 21
468.561
  0
LINE
  8
0
 10
-25.4549
 20
468.561
 11
-25.1185
 21
469.091
  0
LINE
  8
0
 10
-25.1185
 20
469.091
 11
-24.8511
 21
469.659
  0
LINE
  8
0
 10
-24.8511
 20
469.659
 11
-24.6571
 21
470.257
  0
LINE
  8
0
 10
-24.6571
 20
470.257
 11
-24.5394
 21
470.873
  0
LINE
  8
0
 10
-24.5394
 20
470.873
 11
-24.5
 21
471.5
  0
LINE
  8
0
 10
-24.5
 20
471.5
 11
-24.5
 21
474.5
  0
LINE
  8
0
 10
-24.5
 20
474.5
 11
-24.5394
 21
475.127
  0
LINE
  8
0
 10
-24.5394
 20
475.127
 11
-24.6571
 21
475.743
  0
LINE
  8
0
 10
-24.6571
 20
475.743
 11
-24.8511
 21
476.341
  0
LINE
  8
0
 10
-24.8511
 20
476.341
 11
-25.1185
 21
476.909
  0
LINE
  8
0
 10
-25.1185
 20
476.909
 11
-25.4549
 21
477.439
  0
LINE
  8
0
 10
-25.4549
 20
477.439
 11
-25.8551
 21
477.923
  0
LINE
  8
0
 10
-25.8551
 20
477.923
 11
-26.3129
 21
478.353
  0
LINE
  8
0
 10
-26.3129
 20
478.353
 11
-26.8209
 21
478.722
  0
LINE
  8
0
 10
-26.8209
 20
478.722
 11
-27.3711
 21
479.024
  0
LINE
  8
0
 10
-27.3711
 20
479.024
 11
-27.9549
 21
479.255
  0
LINE
  8
0
 10
-27.9549
 20
479.255
 11
-28.5631
 21
479.411
  0
LINE
  8
0
 10
-28.5631
 20
479.411
 11
-29.186
 21
479.49
  0
LINE
  8
0
 10
-29.186
 20
479.49
 11
-32.8139
 21
479.49
  0
LINE
  8
0
 10
-32.8139
 20
479.49
 11
-33.4369
 21
479.411
  0
LINE
  8
0
 10
-33.4369
 20
479.411
 11
-34.0451
 21
479.255
  0
LINE
  8
0
 10
-34.0451
 20
479.255
 11
-34.6289
 21
479.024
  0
LINE
  8
0
 10
-34.6289
 20
479.024
 11
-35.1791
 21
478.722
  0
LINE
  8
0
 10
-35.1791
 20
478.722
 11
-35.6871
 21
478.353
  0
LINE
  8
0
 10
-35.6871
 20
478.353
 11
-36.1448
 21
477.923
  0
LINE
  8
0
 10
-36.1448
 20
477.923
 11
-36.5451
 21
477.439
  0
LINE
  8
0
 10
-36.5451
 20
477.439
 11
-36.8815
 21
476.909
  0
LINE
  8
0
 10
-36.8815
 20
476.909
 11
-37
 21
476.657
  0
LINE
  8
0
 10
-37
 20
476.657
 11
-37
 21
536.5
  0
LINE
  8
0
 10
-37
 20
536.5
 11
-36.9645
 21
537.064
  0
LINE
  8
0
 10
-36.9645
 20
537.064
 11
-36.8586
 21
537.619
  0
LINE
  8
0
 10
-36.8586
 20
537.619
 11
-36.684
 21
538.157
  0
LINE
  8
0
 10
-36.684
 20
538.157
 11
-36.4434
 21
538.668
  0
LINE
  8
0
 10
-36.4434
 20
538.668
 11
-36.1406
 21
539.145
  0
LINE
  8
0
 10
-36.1406
 20
539.145
 11
-35.7803
 21
539.58
  0
LINE
  8
0
 10
-35.7803
 20
539.58
 11
-35.3684
 21
539.967
  0
LINE
  8
0
 10
-35.3684
 20
539.967
 11
-34.9112
 21
540.299
  0
LINE
  8
0
 10
-34.9112
 20
540.299
 11
-34.416
 21
540.572
  0
LINE
  8
0
 10
-34.416
 20
540.572
 11
-33.8906
 21
540.78
  0
LINE
  8
0
 10
-33.8906
 20
540.78
 11
-33.3432
 21
540.92
  0
LINE
  8
0
 10
-33.3432
 20
540.92
 11
-32.7825
 21
540.991
  0
LINE
  8
0
 10
-32.7825
 20
540.991
 11
32.7825
 21
540.991
  0
LINE
  8
0
 10
32.7825
 20
540.991
 11
33.3432
 21
540.92
  0
LINE
  8
0
 10
33.3432
 20
540.92
 11
33.8906
 21
540.78
  0
LINE
  8
0
 10
33.8906
 20
540.78
 11
34.416
 21
540.572
  0
LINE
  8
0
 10
34.416
 20
540.572
 11
34.9112
 21
540.299
  0
LINE
  8
0
 10
34.9112
 20
540.299
 11
35.3684
 21
539.967
  0
LINE
  8
0
 10
35.3684
 20
539.967
 11
35.7803
 21
539.58
  0
LINE
  8
0
 10
35.7803
 20
539.58
 11
36.1406
 21
539.145
  0
LINE
  8
0
 10
36.1406
 20
539.145
 11
36.4434
 21
538.668
  0
LINE
  8
0
 10
36.4434
 20
538.668
 11
36.684
 21
538.157
  0
LINE
  8
0
 10
36.684
 20
538.157
 11
36.8586
 21
537.619
  0
LINE
  8
0
 10
36.8586
 20
537.619
 11
36.9645
 21
537.064
  0
LINE
  8
0
 10
36.9645
 20
537.064
 11
37
 21
536.5
  0
LINE
  8
0
 10
37
 20
536.5
 11
37
 21
471.5
  0
LINE
  8
0
 10
37
 20
471.5
 11
36.9645
 21
470.936
  0
LINE
  8
0
 10
36.9645
 20
470.936
 11
36.8586
 21
470.381
  0
LINE
  8
0
 10
36.8586
 20
470.381
 11
36.684
 21
469.843
  0
LINE
  8
0
 10
36.684
 20
469.843
 11
36.4434
 21
469.332
  0
LINE
  8
0
 10
36.4434
 20
469.332
 11
36.1406
 21
468.855
  0
LINE
  8
0
 10
36.1406
 20
468.855
 11
35.7803
 21
468.42
  0
LINE
  8
0
 10
35.7803
 20
468.42
 11
35.3684
 21
468.033
  0
LINE
  8
0
 10
35.3684
 20
468.033
 11
34.9112
 21
467.701
  0
LINE
  8
0
 10
34.9112
 20
467.701
 11
34.416
 21
467.428
  0
LINE
  8
0
 10
34.416
 20
467.428
 11
33.8906
 21
467.22
  0
LINE
  8
0
 10
33.8906
 20
467.22
 11
33.3432
 21
467.08
  0
LINE
  8
0
 10
33.3432
 20
467.08
 11
32.7825
 21
467.009
  0
LINE
  8
0
 10
32.7825
 20
467.009
 11
-27.311
 21
467.009
  0
LINE
  8
0
 10
30.4684
 20
531.544
 11
30.7725
 21
531.622
  0
LINE
  8
0
 10
30.7725
 20
531.622
 11
31.0644
 21
531.738
  0
LINE
  8
0
 10
31.0644
 20
531.738
 11
31.3396
 21
531.889
  0
LINE
  8
0
 10
31.3396
 20
531.889
 11
31.5936
 21
532.074
  0
LINE
  8
0
 10
31.5936
 20
532.074
 11
31.8224
 21
532.289
  0
LINE
  8
0
 10
31.8224
 20
532.289
 11
32.0225
 21
532.531
  0
LINE
  8
0
 10
32.0225
 20
532.531
 11
32.1908
 21
532.796
  0
LINE
  8
0
 10
32.1908
 20
532.796
 11
32.3244
 21
533.08
  0
LINE
  8
0
 10
32.3244
 20
533.08
 11
32.4214
 21
533.378
  0
LINE
  8
0
 10
32.4214
 20
533.378
 11
32.4803
 21
533.687
  0
LINE
  8
0
 10
32.4803
 20
533.687
 11
32.5
 21
534
  0
LINE
  8
0
 10
32.5
 20
534
 11
32.4803
 21
534.313
  0
LINE
  8
0
 10
32.4803
 20
534.313
 11
32.4214
 21
534.622
  0
LINE
  8
0
 10
32.4214
 20
534.622
 11
32.3244
 21
534.92
  0
LINE
  8
0
 10
32.3244
 20
534.92
 11
32.1908
 21
535.204
  0
LINE
  8
0
 10
32.1908
 20
535.204
 11
32.0225
 21
535.469
  0
LINE
  8
0
 10
32.0225
 20
535.469
 11
31.8224
 21
535.711
  0
LINE
  8
0
 10
31.8224
 20
535.711
 11
31.5936
 21
535.926
  0
LINE
  8
0
 10
31.5936
 20
535.926
 11
31.3396
 21
536.111
  0
LINE
  8
0
 10
31.3396
 20
536.111
 11
31.0644
 21
536.262
  0
LINE
  8
0
 10
31.0644
 20
536.262
 11
30.7725
 21
536.378
  0
LINE
  8
0
 10
30.7725
 20
536.378
 11
30.4684
 21
536.456
  0
LINE
  8
0
 10
30.4684
 20
536.456
 11
30.157
 21
536.495
  0
LINE
  8
0
 10
30.157
 20
536.495
 11
29.843
 21
536.495
  0
LINE
  8
0
 10
29.843
 20
536.495
 11
29.5315
 21
536.456
  0
LINE
  8
0
 10
29.5315
 20
536.456
 11
29.2274
 21
536.378
  0
LINE
  8
0
 10
29.2274
 20
536.378
 11
28.9355
 21
536.262
  0
LINE
  8
0
 10
28.9355
 20
536.262
 11
28.6604
 21
536.111
  0
LINE
  8
0
 10
28.6604
 20
536.111
 11
28.4064
 21
535.926
  0
LINE
  8
0
 10
28.4064
 20
535.926
 11
28.1776
 21
535.711
  0
LINE
  8
0
 10
28.1776
 20
535.711
 11
27.9774
 21
535.469
  0
LINE
  8
0
 10
27.9774
 20
535.469
 11
27.8092
 21
535.204
  0
LINE
  8
0
 10
27.8092
 20
535.204
 11
27.6756
 21
534.92
  0
LINE
  8
0
 10
27.6756
 20
534.92
 11
27.5785
 21
534.622
  0
LINE
  8
0
 10
27.5785
 20
534.622
 11
27.5197
 21
534.313
  0
LINE
  8
0
 10
27.5197
 20
534.313
 11
27.5
 21
534
  0
LINE
  8
0
 10
27.5
 20
534
 11
27.5197
 21
533.687
  0
LINE
  8
0
 10
27.5197
 20
533.687
 11
27.5785
 21
533.378
  0
LINE
  8
0
 10
27.5785
 20
533.378
 11
27.6756
 21
533.08
  0
LINE
  8
0
 10
27.6756
 20
533.08
 11
27.8092
 21
532.796
  0
LINE
  8
0
 10
27.8092
 20
532.796
 11
27.9774
 21
532.531
  0
LINE
  8
0
 10
27.9774
 20
532.531
 11
28.1776
 21
532.289
  0
LINE
  8
0
 10
28.1776
 20
532.289
 11
28.4064
 21
532.074
  0
LINE
  8
0
 10
28.4064
 20
532.074
 11
28.6604
 21
531.889
  0
LINE
  8
0
 10
28.6604
 20
531.889
 11
28.9355
 21
531.738
  0
LINE
  8
0
 10
28.9355
 20
531.738
 11
29.2274
 21
531.622
  0
LINE
  8
0
 10
29.2274
 20
531.622
 11
29.5315
 21
531.544
  0
LINE
  8
0
 10
29.5315
 20
531.544
 11
29.843
 21
531.505
  0
LINE
  8
0
 10
29.843
 20
531.505
 11
30.157
 21
531.505
  0
LINE
  8
0
 10
30.157
 20
531.505
 11
30.4684
 21
531.544
  0
LINE
  8
0
 10
29.9058
 20
532.503
 11
29.7189
 21
532.527
  0
LINE
  8
0
 10
29.7189
 20
532.527
 11
29.5365
 21
532.573
  0
LINE
  8
0
 10
29.5365
 20
532.573
 11
29.3613
 21
532.643
  0
LINE
  8
0
 10
29.3613
 20
532.643
 11
29.1963
 21
532.734
  0
LINE
  8
0
 10
29.1963
 20
532.734
 11
29.0439
 21
532.844
  0
LINE
  8
0
 10
29.0439
 20
532.844
 11
28.9065
 21
532.973
  0
LINE
  8
0
 10
28.9065
 20
532.973
 11
28.7865
 21
533.118
  0
LINE
  8
0
 10
28.7865
 20
533.118
 11
28.6855
 21
533.277
  0
LINE
  8
0
 10
28.6855
 20
533.277
 11
28.6053
 21
533.448
  0
LINE
  8
0
 10
28.6053
 20
533.448
 11
28.5471
 21
533.627
  0
LINE
  8
0
 10
28.5471
 20
533.627
 11
28.5118
 21
533.812
  0
LINE
  8
0
 10
28.5118
 20
533.812
 11
28.5
 21
534
  0
LINE
  8
0
 10
28.5
 20
534
 11
28.5118
 21
534.188
  0
LINE
  8
0
 10
28.5118
 20
534.188
 11
28.5471
 21
534.373
  0
LINE
  8
0
 10
28.5471
 20
534.373
 11
28.6053
 21
534.552
  0
LINE
  8
0
 10
28.6053
 20
534.552
 11
28.6855
 21
534.723
  0
LINE
  8
0
 10
28.6855
 20
534.723
 11
28.7865
 21
534.882
  0
LINE
  8
0
 10
28.7865
 20
534.882
 11
28.9065
 21
535.027
  0
LINE
  8
0
 10
28.9065
 20
535.027
 11
29.0439
 21
535.156
  0
LINE
  8
0
 10
29.0439
 20
535.156
 11
29.1963
 21
535.266
  0
LINE
  8
0
 10
29.1963
 20
535.266
 11
29.3613
 21
535.357
  0
LINE
  8
0
 10
29.3613
 20
535.357
 11
29.5365
 21
535.427
  0
LINE
  8
0
 10
29.5365
 20
535.427
 11
29.7189
 21
535.473
  0
LINE
  8
0
 10
29.7189
 20
535.473
 11
29.9058
 21
535.497
  0
LINE
  8
0
 10
29.9058
 20
535.497
 11
30.0942
 21
535.497
  0
LINE
  8
0
 10
30.0942
 20
535.497
 11
30.2811
 21
535.473
  0
LINE
  8
0
 10
30.2811
 20
535.473
 11
30.4635
 21
535.427
  0
LINE
  8
0
 10
30.4635
 20
535.427
 11
30.6387
 21
535.357
  0
LINE
  8
0
 10
30.6387
 20
535.357
 11
30.8037
 21
535.266
  0
LINE
  8
0
 10
30.8037
 20
535.266
 11
30.9561
 21
535.156
  0
LINE
  8
0
 10
30.9561
 20
535.156
 11
31.0934
 21
535.027
  0
LINE
  8
0
 10
31.0934
 20
535.027
 11
31.2135
 21
534.882
  0
LINE
  8
0
 10
31.2135
 20
534.882
 11
31.3145
 21
534.723
  0
LINE
  8
0
 10
31.3145
 20
534.723
 11
31.3947
 21
534.552
  0
LINE
  8
0
 10
31.3947
 20
534.552
 11
31.4529
 21
534.373
  0
LINE
  8
0
 10
31.4529
 20
534.373
 11
31.4882
 21
534.188
  0
LINE
  8
0
 10
31.4882
 20
534.188
 11
31.5
 21
534
  0
LINE
  8
0
 10
31.5
 20
534
 11
31.4882
 21
533.812
  0
LINE
  8
0
 10
31.4882
 20
533.812
 11
31.4529
 21
533.627
  0
LINE
  8
0
 10
31.4529
 20
533.627
 11
31.3947
 21
533.448
  0
LINE
  8
0
 10
31.3947
 20
533.448
 11
31.3145
 21
533.277
  0
LINE
  8
0
 10
31.3145
 20
533.277
 11
31.2135
 21
533.118
  0
LINE
  8
0
 10
31.2135
 20
533.118
 11
31.0934
 21
532.973
  0
LINE
  8
0
 10
31.0934
 20
532.973
 11
30.9561
 21
532.844
  0
LINE
  8
0
 10
30.9561
 20
532.844
 11
30.8037
 21
532.734
  0
LINE
  8
0
 10
30.8037
 20
532.734
 11
30.6387
 21
532.643
  0
LINE
  8
0
 10
30.6387
 20
532.643
 11
30.4635
 21
532.573
  0
LINE
  8
0
 10
30.4635
 20
532.573
 11
30.2811
 21
532.527
  0
LINE
  8
0
 10
30.2811
 20
532.527
 11
30.0942
 21
532.503
  0
LINE
  8
0
 10
30.0942
 20
532.503
 11
29.9058
 21
532.503
  0
LINE
  8
0
 10
-30.0942
 20
472.503
 11
-30.2811
 21
472.527
  0
LINE
  8
0
 10
-30.2811
 20
472.527
 11
-30.4635
 21
472.573
  0
LINE
  8
0
 10
-30.4635
 20
472.573
 11
-30.6387
 21
472.643
  0
LINE
  8
0
 10
-30.6387
 20
472.643
 11
-30.8037
 21
472.734
  0
LINE
  8
0
 10
-30.8037
 20
472.734
 11
-30.9561
 21
472.844
  0
LINE
  8
0
 10
-30.9561
 20
472.844
 11
-31.0934
 21
472.973
  0
LINE
  8
0
 10
-31.0934
 20
472.973
 11
-31.2135
 21
473.118
  0
LINE
  8
0
 10
-31.2135
 20
473.118
 11
-31.3145
 21
473.277
  0
LINE
  8
0
 10
-31.3145
 20
473.277
 11
-31.3947
 21
473.448
  0
LINE
  8
0
 10
-31.3947
 20
473.448
 11
-31.4529
 21
473.627
  0
LINE
  8
0
 10
-31.4529
 20
473.627
 11
-31.4882
 21
473.812
  0
LINE
  8
0
 10
-31.4882
 20
473.812
 11
-31.5
 21
474
  0
LINE
  8
0
 10
-31.5
 20
474
 11
-31.4882
 21
474.188
  0
LINE
  8
0
 10
-31.4882
 20
474.188
 11
-31.4529
 21
474.373
  0
LINE
  8
0
 10
-31.4529
 20
474.373
 11
-31.3947
 21
474.552
  0
LINE
  8
0
 10
-31.3947
 20
474.552
 11
-31.3145
 21
474.723
  0
LINE
  8
0
 10
-31.3145
 20
474.723
 11
-31.2135
 21
474.882
  0
LINE
  8
0
 10
-31.2135
 20
474.882
 11
-31.0934
 21
475.027
  0
LINE
  8
0
 10
-31.0934
 20
475.027
 11
-30.9561
 21
475.156
  0
LINE
  8
0
 10
-30.9561
 20
475.156
 11
-30.8037
 21
475.266
  0
LINE
  8
0
 10
-30.8037
 20
475.266
 11
-30.6387
 21
475.357
  0
LINE
  8
0
 10
-30.6387
 20
475.357
 11
-30.4635
 21
475.427
  0
LINE
  8
0
 10
-30.4635
 20
475.427
 11
-30.2811
 21
475.473
  0
LINE
  8
0
 10
-30.2811
 20
475.473
 11
-30.0942
 21
475.497
  0
LINE
  8
0
 10
-30.0942
 20
475.497
 11
-29.9058
 21
475.497
  0
LINE
  8
0
 10
-29.9058
 20
475.497
 11
-29.7189
 21
475.473
  0
LINE
  8
0
 10
-29.7189
 20
475.473
 11
-29.5365
 21
475.427
  0
LINE
  8
0
 10
-29.5365
 20
475.427
 11
-29.3613
 21
475.357
  0
LINE
  8
0
 10
-29.3613
 20
475.357
 11
-29.1963
 21
475.266
  0
LINE
  8
0
 10
-29.1963
 20
475.266
 11
-29.0439
 21
475.156
  0
LINE
  8
0
 10
-29.0439
 20
475.156
 11
-28.9065
 21
475.027
  0
LINE
  8
0
 10
-28.9065
 20
475.027
 11
-28.7865
 21
474.882
  0
LINE
  8
0
 10
-28.7865
 20
474.882
 11
-28.6855
 21
474.723
  0
LINE
  8
0
 10
-28.6855
 20
474.723
 11
-28.6053
 21
474.552
  0
LINE
  8
0
 10
-28.6053
 20
474.552
 11
-28.5471
 21
474.373
  0
LINE
  8
0
 10
-28.5471
 20
474.373
 11
-28.5118
 21
474.188
  0
LINE
  8
0
 10
-28.5118
 20
474.188
 11
-28.5
 21
474
  0
LINE
  8
0
 10
-28.5
 20
474
 11
-28.5118
 21
473.812
  0
LINE
  8
0
 10
-28.5118
 20
473.812
 11
-28.5471
 21
473.627
  0
LINE
  8
0
 10
-28.5471
 20
473.627
 11
-28.6053
 21
473.448
  0
LINE
  8
0
 10
-28.6053
 20
473.448
 11
-28.6855
 21
473.277
  0
LINE
  8
0
 10
-28.6855
 20
473.277
 11
-28.7865
 21
473.118
  0
LINE
  8
0
 10
-28.7865
 20
473.118
 11
-28.9065
 21
472.973
  0
LINE
  8
0
 10
-28.9065
 20
472.973
 11
-29.0439
 21
472.844
  0
LINE
  8
0
 10
-29.0439
 20
472.844
 11
-29.1963
 21
472.734
  0
LINE
  8
0
 10
-29.1963
 20
472.734
 11
-29.3613
 21
472.643
  0
LINE
  8
0
 10
-29.3613
 20
472.643
 11
-29.5365
 21
472.573
  0
LINE
  8
0
 10
-29.5365
 20
472.573
 11
-29.7189
 21
472.527
  0
LINE
  8
0
 10
-29.7189
 20
472.527
 11
-29.9058
 21
472.503
  0
LINE
  8
0
 10
-29.9058
 20
472.503
 11
-30.0942
 21
472.503
  0
LINE
  8
0
 10
33.4369
 20
382.589
 11
34.0451
 21
382.745
  0
LINE
  8
0
 10
34.0451
 20
382.745
 11
34.6289
 21
382.976
  0
LINE
  8
0
 10
34.6289
 20
382.976
 11
35.1791
 21
383.278
  0
LINE
  8
0
 10
35.1791
 20
383.278
 11
35.6871
 21
383.647
  0
LINE
  8
0
 10
35.6871
 20
383.647
 11
36.1448
 21
384.077
  0
LINE
  8
0
 10
36.1448
 20
384.077
 11
36.5451
 21
384.561
  0
LINE
  8
0
 10
36.5451
 20
384.561
 11
36.8815
 21
385.091
  0
LINE
  8
0
 10
36.8815
 20
385.091
 11
37.1489
 21
385.659
  0
LINE
  8
0
 10
37.1489
 20
385.659
 11
37.3429
 21
386.257
  0
LINE
  8
0
 10
37.3429
 20
386.257
 11
37.4606
 21
386.873
  0
LINE
  8
0
 10
37.4606
 20
386.873
 11
37.5
 21
387.5
  0
LINE
  8
0
 10
37.5
 20
387.5
 11
37.5
 21
452.5
  0
LINE
  8
0
 10
37.5
 20
452.5
 11
37.4606
 21
453.127
  0
LINE
  8
0
 10
37.4606
 20
453.127
 11
37.3429
 21
453.743
  0
LINE
  8
0
 10
37.3429
 20
453.743
 11
37.1489
 21
454.341
  0
LINE
  8
0
 10
37.1489
 20
454.341
 11
36.8815
 21
454.909
  0
LINE
  8
0
 10
36.8815
 20
454.909
 11
36.5451
 21
455.439
  0
LINE
  8
0
 10
36.5451
 20
455.439
 11
36.1448
 21
455.923
  0
LINE
  8
0
 10
36.1448
 20
455.923
 11
35.6871
 21
456.353
  0
LINE
  8
0
 10
35.6871
 20
456.353
 11
35.1791
 21
456.722
  0
LINE
  8
0
 10
35.1791
 20
456.722
 11
34.6289
 21
457.024
  0
LINE
  8
0
 10
34.6289
 20
457.024
 11
34.0451
 21
457.255
  0
LINE
  8
0
 10
34.0451
 20
457.255
 11
33.4369
 21
457.411
  0
LINE
  8
0
 10
33.4369
 20
457.411
 11
32.8139
 21
457.49
  0
LINE
  8
0
 10
32.8139
 20
457.49
 11
-32.8139
 21
457.49
  0
LINE
  8
0
 10
-32.8139
 20
457.49
 11
-33.4369
 21
457.411
  0
LINE
  8
0
 10
-33.4369
 20
457.411
 11
-34.0451
 21
457.255
  0
LINE
  8
0
 10
-34.0451
 20
457.255
 11
-34.6289
 21
457.024
  0
LINE
  8
0
 10
-34.6289
 20
457.024
 11
-35.1791
 21
456.722
  0
LINE
  8
0
 10
-35.1791
 20
456.722
 11
-35.6871
 21
456.353
  0
LINE
  8
0
 10
-35.6871
 20
456.353
 11
-36.1448
 21
455.923
  0
LINE
  8
0
 10
-36.1448
 20
455.923
 11
-36.5451
 21
455.439
  0
LINE
  8
0
 10
-36.5451
 20
455.439
 11
-36.8815
 21
454.909
  0
LINE
  8
0
 10
-36.8815
 20
454.909
 11
-37.1489
 21
454.341
  0
LINE
  8
0
 10
-37.1489
 20
454.341
 11
-37.3429
 21
453.743
  0
LINE
  8
0
 10
-37.3429
 20
453.743
 11
-37.4606
 21
453.127
  0
LINE
  8
0
 10
-37.4606
 20
453.127
 11
-37.5
 21
452.5
  0
LINE
  8
0
 10
-37.5
 20
452.5
 11
-37.5
 21
387.5
  0
LINE
  8
0
 10
-37.5
 20
387.5
 11
-37.4606
 21
386.873
  0
LINE
  8
0
 10
-37.4606
 20
386.873
 11
-37.3429
 21
386.257
  0
LINE
  8
0
 10
-37.3429
 20
386.257
 11
-37.1489
 21
385.659
  0
LINE
  8
0
 10
-37.1489
 20
385.659
 11
-36.8815
 21
385.091
  0
LINE
  8
0
 10
-36.8815
 20
385.091
 11
-36.5451
 21
384.561
  0
LINE
  8
0
 10
-36.5451
 20
384.561
 11
-36.1448
 21
384.077
  0
LINE
  8
0
 10
-36.1448
 20
384.077
 11
-35.6871
 21
383.647
  0
LINE
  8
0
 10
-35.6871
 20
383.647
 11
-35.1791
 21
383.278
  0
LINE
  8
0
 10
-35.1791
 20
383.278
 11
-34.6289
 21
382.976
  0
LINE
  8
0
 10
-34.6289
 20
382.976
 11
-34.0451
 21
382.745
  0
LINE
  8
0
 10
-34.0451
 20
382.745
 11
-33.4369
 21
382.589
  0
LINE
  8
0
 10
-33.4369
 20
382.589
 11
-32.8139
 21
382.51
  0
LINE
  8
0
 10
-32.8139
 20
382.51
 11
32.8139
 21
382.51
  0
LINE
  8
0
 10
32.8139
 20
382.51
 11
33.4369
 21
382.589
  0
LINE
  8
0
 10
-27.311
 20
383.009
 11
-26.8209
 21
383.278
  0
LINE
  8
0
 10
-26.8209
 20
383.278
 11
-26.3129
 21
383.647
  0
LINE
  8
0
 10
-26.3129
 20
383.647
 11
-25.8551
 21
384.077
  0
LINE
  8
0
 10
-25.8551
 20
384.077
 11
-25.4549
 21
384.561
  0
LINE
  8
0
 10
-25.4549
 20
384.561
 11
-25.1185
 21
385.091
  0
LINE
  8
0
 10
-25.1185
 20
385.091
 11
-24.8511
 21
385.659
  0
LINE
  8
0
 10
-24.8511
 20
385.659
 11
-24.6571
 21
386.257
  0
LINE
  8
0
 10
-24.6571
 20
386.257
 11
-24.5394
 21
386.873
  0
LINE
  8
0
 10
-24.5394
 20
386.873
 11
-24.5
 21
387.5
  0
LINE
  8
0
 10
-24.5
 20
387.5
 11
-24.5
 21
390.5
  0
LINE
  8
0
 10
-24.5
 20
390.5
 11
-24.5394
 21
391.127
  0
LINE
  8
0
 10
-24.5394
 20
391.127
 11
-24.6571
 21
391.743
  0
LINE
  8
0
 10
-24.6571
 20
391.743
 11
-24.8511
 21
392.341
  0
LINE
  8
0
 10
-24.8511
 20
392.341
 11
-25.1185
 21
392.909
  0
LINE
  8
0
 10
-25.1185
 20
392.909
 11
-25.4549
 21
393.439
  0
LINE
  8
0
 10
-25.4549
 20
393.439
 11
-25.8551
 21
393.923
  0
LINE
  8
0
 10
-25.8551
 20
393.923
 11
-26.3129
 21
394.353
  0
LINE
  8
0
 10
-26.3129
 20
394.353
 11
-26.8209
 21
394.722
  0
LINE
  8
0
 10
-26.8209
 20
394.722
 11
-27.3711
 21
395.024
  0
LINE
  8
0
 10
-27.3711
 20
395.024
 11
-27.9549
 21
395.255
  0
LINE
  8
0
 10
-27.9549
 20
395.255
 11
-28.5631
 21
395.411
  0
LINE
  8
0
 10
-28.5631
 20
395.411
 11
-29.186
 21
395.49
  0
LINE
  8
0
 10
-29.186
 20
395.49
 11
-32.8139
 21
395.49
  0
LINE
  8
0
 10
-32.8139
 20
395.49
 11
-33.4369
 21
395.411
  0
LINE
  8
0
 10
-33.4369
 20
395.411
 11
-34.0451
 21
395.255
  0
LINE
  8
0
 10
-34.0451
 20
395.255
 11
-34.6289
 21
395.024
  0
LINE
  8
0
 10
-34.6289
 20
395.024
 11
-35.1791
 21
394.722
  0
LINE
  8
0
 10
-35.1791
 20
394.722
 11
-35.6871
 21
394.353
  0
LINE
  8
0
 10
-35.6871
 20
394.353
 11
-36.1448
 21
393.923
  0
LINE
  8
0
 10
-36.1448
 20
393.923
 11
-36.5451
 21
393.439
  0
LINE
  8
0
 10
-36.5451
 20
393.439
 11
-36.8815
 21
392.909
  0
LINE
  8
0
 10
-36.8815
 20
392.909
 11
-37
 21
392.657
  0
LINE
  8
0
 10
-37
 20
392.657
 11
-37
 21
452.5
  0
LINE
  8
0
 10
-37
 20
452.5
 11
-36.9645
 21
453.064
  0
LINE
  8
0
 10
-36.9645
 20
453.064
 11
-36.8586
 21
453.619
  0
LINE
  8
0
 10
-36.8586
 20
453.619
 11
-36.684
 21
454.157
  0
LINE
  8
0
 10
-36.684
 20
454.157
 11
-36.4434
 21
454.668
  0
LINE
  8
0
 10
-36.4434
 20
454.668
 11
-36.1406
 21
455.145
  0
LINE
  8
0
 10
-36.1406
 20
455.145
 11
-35.7803
 21
455.58
  0
LINE
  8
0
 10
-35.7803
 20
455.58
 11
-35.3684
 21
455.967
  0
LINE
  8
0
 10
-35.3684
 20
455.967
 11
-34.9112
 21
456.299
  0
LINE
  8
0
 10
-34.9112
 20
456.299
 11
-34.416
 21
456.572
  0
LINE
  8
0
 10
-34.416
 20
456.572
 11
-33.8906
 21
456.78
  0
LINE
  8
0
 10
-33.8906
 20
456.78
 11
-33.3432
 21
456.92
  0
LINE
  8
0
 10
-33.3432
 20
456.92
 11
-32.7825
 21
456.991
  0
LINE
  8
0
 10
-32.7825
 20
456.991
 11
32.7825
 21
456.991
  0
LINE
  8
0
 10
32.7825
 20
456.991
 11
33.3432
 21
456.92
  0
LINE
  8
0
 10
33.3432
 20
456.92
 11
33.8906
 21
456.78
  0
LINE
  8
0
 10
33.8906
 20
456.78
 11
34.416
 21
456.572
  0
LINE
  8
0
 10
34.416
 20
456.572
 11
34.9112
 21
456.299
  0
LINE
  8
0
 10
34.9112
 20
456.299
 11
35.3684
 21
455.967
  0
LINE
  8
0
 10
35.3684
 20
455.967
 11
35.7803
 21
455.58
  0
LINE
  8
0
 10
35.7803
 20
455.58
 11
36.1406
 21
455.145
  0
LINE
  8
0
 10
36.1406
 20
455.145
 11
36.4434
 21
454.668
  0
LINE
  8
0
 10
36.4434
 20
454.668
 11
36.684
 21
454.157
  0
LINE
  8
0
 10
36.684
 20
454.157
 11
36.8586
 21
453.619
  0
LINE
  8
0
 10
36.8586
 20
453.619
 11
36.9645
 21
453.064
  0
LINE
  8
0
 10
36.9645
 20
453.064
 11
37
 21
452.5
  0
LINE
  8
0
 10
37
 20
452.5
 11
37
 21
387.5
  0
LINE
  8
0
 10
37
 20
387.5
 11
36.9645
 21
386.936
  0
LINE
  8
0
 10
36.9645
 20
386.936
 11
36.8586
 21
386.381
  0
LINE
  8
0
 10
36.8586
 20
386.381
 11
36.684
 21
385.843
  0
LINE
  8
0
 10
36.684
 20
385.843
 11
36.4434
 21
385.332
  0
LINE
  8
0
 10
36.4434
 20
385.332
 11
36.1406
 21
384.855
  0
LINE
  8
0
 10
36.1406
 20
384.855
 11
35.7803
 21
384.42
  0
LINE
  8
0
 10
35.7803
 20
384.42
 11
35.3684
 21
384.033
  0
LINE
  8
0
 10
35.3684
 20
384.033
 11
34.9112
 21
383.701
  0
LINE
  8
0
 10
34.9112
 20
383.701
 11
34.416
 21
383.428
  0
LINE
  8
0
 10
34.416
 20
383.428
 11
33.8906
 21
383.22
  0
LINE
  8
0
 10
33.8906
 20
383.22
 11
33.3432
 21
383.08
  0
LINE
  8
0
 10
33.3432
 20
383.08
 11
32.7825
 21
383.009
  0
LINE
  8
0
 10
32.7825
 20
383.009
 11
-27.311
 21
383.009
  0
LINE
  8
0
 10
30.4684
 20
447.544
 11
30.7725
 21
447.622
  0
LINE
  8
0
 10
30.7725
 20
447.622
 11
31.0644
 21
447.738
  0
LINE
  8
0
 10
31.0644
 20
447.738
 11
31.3396
 21
447.889
  0
LINE
  8
0
 10
31.3396
 20
447.889
 11
31.5936
 21
448.074
  0
LINE
  8
0
 10
31.5936
 20
448.074
 11
31.8224
 21
448.289
  0
LINE
  8
0
 10
31.8224
 20
448.289
 11
32.0225
 21
448.531
  0
LINE
  8
0
 10
32.0225
 20
448.531
 11
32.1908
 21
448.796
  0
LINE
  8
0
 10
32.1908
 20
448.796
 11
32.3244
 21
449.08
  0
LINE
  8
0
 10
32.3244
 20
449.08
 11
32.4214
 21
449.378
  0
LINE
  8
0
 10
32.4214
 20
449.378
 11
32.4803
 21
449.687
  0
LINE
  8
0
 10
32.4803
 20
449.687
 11
32.5
 21
450
  0
LINE
  8
0
 10
32.5
 20
450
 11
32.4803
 21
450.313
  0
LINE
  8
0
 10
32.4803
 20
450.313
 11
32.4214
 21
450.622
  0
LINE
  8
0
 10
32.4214
 20
450.622
 11
32.3244
 21
450.92
  0
LINE
  8
0
 10
32.3244
 20
450.92
 11
32.1908
 21
451.204
  0
LINE
  8
0
 10
32.1908
 20
451.204
 11
32.0225
 21
451.469
  0
LINE
  8
0
 10
32.0225
 20
451.469
 11
31.8224
 21
451.711
  0
LINE
  8
0
 10
31.8224
 20
451.711
 11
31.5936
 21
451.926
  0
LINE
  8
0
 10
31.5936
 20
451.926
 11
31.3396
 21
452.111
  0
LINE
  8
0
 10
31.3396
 20
452.111
 11
31.0644
 21
452.262
  0
LINE
  8
0
 10
31.0644
 20
452.262
 11
30.7725
 21
452.378
  0
LINE
  8
0
 10
30.7725
 20
452.378
 11
30.4684
 21
452.456
  0
LINE
  8
0
 10
30.4684
 20
452.456
 11
30.157
 21
452.495
  0
LINE
  8
0
 10
30.157
 20
452.495
 11
29.843
 21
452.495
  0
LINE
  8
0
 10
29.843
 20
452.495
 11
29.5315
 21
452.456
  0
LINE
  8
0
 10
29.5315
 20
452.456
 11
29.2274
 21
452.378
  0
LINE
  8
0
 10
29.2274
 20
452.378
 11
28.9355
 21
452.262
  0
LINE
  8
0
 10
28.9355
 20
452.262
 11
28.6604
 21
452.111
  0
LINE
  8
0
 10
28.6604
 20
452.111
 11
28.4064
 21
451.926
  0
LINE
  8
0
 10
28.4064
 20
451.926
 11
28.1776
 21
451.711
  0
LINE
  8
0
 10
28.1776
 20
451.711
 11
27.9774
 21
451.469
  0
LINE
  8
0
 10
27.9774
 20
451.469
 11
27.8092
 21
451.204
  0
LINE
  8
0
 10
27.8092
 20
451.204
 11
27.6756
 21
450.92
  0
LINE
  8
0
 10
27.6756
 20
450.92
 11
27.5785
 21
450.622
  0
LINE
  8
0
 10
27.5785
 20
450.622
 11
27.5197
 21
450.313
  0
LINE
  8
0
 10
27.5197
 20
450.313
 11
27.5
 21
450
  0
LINE
  8
0
 10
27.5
 20
450
 11
27.5197
 21
449.687
  0
LINE
  8
0
 10
27.5197
 20
449.687
 11
27.5785
 21
449.378
  0
LINE
  8
0
 10
27.5785
 20
449.378
 11
27.6756
 21
449.08
  0
LINE
  8
0
 10
27.6756
 20
449.08
 11
27.8092
 21
448.796
  0
LINE
  8
0
 10
27.8092
 20
448.796
 11
27.9774
 21
448.531
  0
LINE
  8
0
 10
27.9774
 20
448.531
 11
28.1776
 21
448.289
  0
LINE
  8
0
 10
28.1776
 20
448.289
 11
28.4064
 21
448.074
  0
LINE
  8
0
 10
28.4064
 20
448.074
 11
28.6604
 21
447.889
  0
LINE
  8
0
 10
28.6604
 20
447.889
 11
28.9355
 21
447.738
  0
LINE
  8
0
 10
28.9355
 20
447.738
 11
29.2274
 21
447.622
  0
LINE
  8
0
 10
29.2274
 20
447.622
 11
29.5315
 21
447.544
  0
LINE
  8
0
 10
29.5315
 20
447.544
 11
29.843
 21
447.505
  0
LINE
  8
0
 10
29.843
 20
447.505
 11
30.157
 21
447.505
  0
LINE
  8
0
 10
30.157
 20
447.505
 11
30.4684
 21
447.544
  0
LINE
  8
0
 10
29.9058
 20
448.503
 11
29.7189
 21
448.527
  0
LINE
  8
0
 10
29.7189
 20
448.527
 11
29.5365
 21
448.573
  0
LINE
  8
0
 10
29.5365
 20
448.573
 11
29.3613
 21
448.643
  0
LINE
  8
0
 10
29.3613
 20
448.643
 11
29.1963
 21
448.734
  0
LINE
  8
0
 10
29.1963
 20
448.734
 11
29.0439
 21
448.844
  0
LINE
  8
0
 10
29.0439
 20
448.844
 11
28.9065
 21
448.973
  0
LINE
  8
0
 10
28.9065
 20
448.973
 11
28.7865
 21
449.118
  0
LINE
  8
0
 10
28.7865
 20
449.118
 11
28.6855
 21
449.277
  0
LINE
  8
0
 10
28.6855
 20
449.277
 11
28.6053
 21
449.448
  0
LINE
  8
0
 10
28.6053
 20
449.448
 11
28.5471
 21
449.627
  0
LINE
  8
0
 10
28.5471
 20
449.627
 11
28.5118
 21
449.812
  0
LINE
  8
0
 10
28.5118
 20
449.812
 11
28.5
 21
450
  0
LINE
  8
0
 10
28.5
 20
450
 11
28.5118
 21
450.188
  0
LINE
  8
0
 10
28.5118
 20
450.188
 11
28.5471
 21
450.373
  0
LINE
  8
0
 10
28.5471
 20
450.373
 11
28.6053
 21
450.552
  0
LINE
  8
0
 10
28.6053
 20
450.552
 11
28.6855
 21
450.723
  0
LINE
  8
0
 10
28.6855
 20
450.723
 11
28.7865
 21
450.882
  0
LINE
  8
0
 10
28.7865
 20
450.882
 11
28.9065
 21
451.027
  0
LINE
  8
0
 10
28.9065
 20
451.027
 11
29.0439
 21
451.156
  0
LINE
  8
0
 10
29.0439
 20
451.156
 11
29.1963
 21
451.266
  0
LINE
  8
0
 10
29.1963
 20
451.266
 11
29.3613
 21
451.357
  0
LINE
  8
0
 10
29.3613
 20
451.357
 11
29.5365
 21
451.427
  0
LINE
  8
0
 10
29.5365
 20
451.427
 11
29.7189
 21
451.473
  0
LINE
  8
0
 10
29.7189
 20
451.473
 11
29.9058
 21
451.497
  0
LINE
  8
0
 10
29.9058
 20
451.497
 11
30.0942
 21
451.497
  0
LINE
  8
0
 10
30.0942
 20
451.497
 11
30.2811
 21
451.473
  0
LINE
  8
0
 10
30.2811
 20
451.473
 11
30.4635
 21
451.427
  0
LINE
  8
0
 10
30.4635
 20
451.427
 11
30.6387
 21
451.357
  0
LINE
  8
0
 10
30.6387
 20
451.357
 11
30.8037
 21
451.266
  0
LINE
  8
0
 10
30.8037
 20
451.266
 11
30.9561
 21
451.156
  0
LINE
  8
0
 10
30.9561
 20
451.156
 11
31.0934
 21
451.027
  0
LINE
  8
0
 10
31.0934
 20
451.027
 11
31.2135
 21
450.882
  0
LINE
  8
0
 10
31.2135
 20
450.882
 11
31.3145
 21
450.723
  0
LINE
  8
0
 10
31.3145
 20
450.723
 11
31.3947
 21
450.552
  0
LINE
  8
0
 10
31.3947
 20
450.552
 11
31.4529
 21
450.373
  0
LINE
  8
0
 10
31.4529
 20
450.373
 11
31.4882
 21
450.188
  0
LINE
  8
0
 10
31.4882
 20
450.188
 11
31.5
 21
450
  0
LINE
  8
0
 10
31.5
 20
450
 11
31.4882
 21
449.812
  0
LINE
  8
0
 10
31.4882
 20
449.812
 11
31.4529
 21
449.627
  0
LINE
  8
0
 10
31.4529
 20
449.627
 11
31.3947
 21
449.448
  0
LINE
  8
0
 10
31.3947
 20
449.448
 11
31.3145
 21
449.277
  0
LINE
  8
0
 10
31.3145
 20
449.277
 11
31.2135
 21
449.118
  0
LINE
  8
0
 10
31.2135
 20
449.118
 11
31.0934
 21
448.973
  0
LINE
  8
0
 10
31.0934
 20
448.973
 11
30.9561
 21
448.844
  0
LINE
  8
0
 10
30.9561
 20
448.844
 11
30.8037
 21
448.734
  0
LINE
  8
0
 10
30.8037
 20
448.734
 11
30.6387
 21
448.643
  0
LINE
  8
0
 10
30.6387
 20
448.643
 11
30.4635
 21
448.573
  0
LINE
  8
0
 10
30.4635
 20
448.573
 11
30.2811
 21
448.527
  0
LINE
  8
0
 10
30.2811
 20
448.527
 11
30.0942
 21
448.503
  0
LINE
  8
0
 10
30.0942
 20
448.503
 11
29.9058
 21
448.503
  0
LINE
  8
0
 10
-30.0942
 20
388.503
 11
-30.2811
 21
388.527
  0
LINE
  8
0
 10
-30.2811
 20
388.527
 11
-30.4635
 21
388.573
  0
LINE
  8
0
 10
-30.4635
 20
388.573
 11
-30.6387
 21
388.643
  0
LINE
  8
0
 10
-30.6387
 20
388.643
 11
-30.8037
 21
388.734
  0
LINE
  8
0
 10
-30.8037
 20
388.734
 11
-30.9561
 21
388.844
  0
LINE
  8
0
 10
-30.9561
 20
388.844
 11
-31.0934
 21
388.973
  0
LINE
  8
0
 10
-31.0934
 20
388.973
 11
-31.2135
 21
389.118
  0
LINE
  8
0
 10
-31.2135
 20
389.118
 11
-31.3145
 21
389.277
  0
LINE
  8
0
 10
-31.3145
 20
389.277
 11
-31.3947
 21
389.448
  0
LINE
  8
0
 10
-31.3947
 20
389.448
 11
-31.4529
 21
389.627
  0
LINE
  8
0
 10
-31.4529
 20
389.627
 11
-31.4882
 21
389.812
  0
LINE
  8
0
 10
-31.4882
 20
389.812
 11
-31.5
 21
390
  0
LINE
  8
0
 10
-31.5
 20
390
 11
-31.4882
 21
390.188
  0
LINE
  8
0
 10
-31.4882
 20
390.188
 11
-31.4529
 21
390.373
  0
LINE
  8
0
 10
-31.4529
 20
390.373
 11
-31.3947
 21
390.552
  0
LINE
  8
0
 10
-31.3947
 20
390.552
 11
-31.3145
 21
390.723
  0
LINE
  8
0
 10
-31.3145
 20
390.723
 11
-31.2135
 21
390.882
  0
LINE
  8
0
 10
-31.2135
 20
390.882
 11
-31.0934
 21
391.027
  0
LINE
  8
0
 10
-31.0934
 20
391.027
 11
-30.9561
 21
391.156
  0
LINE
  8
0
 10
-30.9561
 20
391.156
 11
-30.8037
 21
391.266
  0
LINE
  8
0
 10
-30.8037
 20
391.266
 11
-30.6387
 21
391.357
  0
LINE
  8
0
 10
-30.6387
 20
391.357
 11
-30.4635
 21
391.427
  0
LINE
  8
0
 10
-30.4635
 20
391.427
 11
-30.2811
 21
391.473
  0
LINE
  8
0
 10
-30.2811
 20
391.473
 11
-30.0942
 21
391.497
  0
LINE
  8
0
 10
-30.0942
 20
391.497
 11
-29.9058
 21
391.497
  0
LINE
  8
0
 10
-29.9058
 20
391.497
 11
-29.7189
 21
391.473
  0
LINE
  8
0
 10
-29.7189
 20
391.473
 11
-29.5365
 21
391.427
  0
LINE
  8
0
 10
-29.5365
 20
391.427
 11
-29.3613
 21
391.357
  0
LINE
  8
0
 10
-29.3613
 20
391.357
 11
-29.1963
 21
391.266
  0
LINE
  8
0
 10
-29.1963
 20
391.266
 11
-29.0439
 21
391.156
  0
LINE
  8
0
 10
-29.0439
 20
391.156
 11
-28.9065
 21
391.027
  0
LINE
  8
0
 10
-28.9065
 20
391.027
 11
-28.7865
 21
390.882
  0
LINE
  8
0
 10
-28.7865
 20
390.882
 11
-28.6855
 21
390.723
  0
LINE
  8
0
 10
-28.6855
 20
390.723
 11
-28.6053
 21
390.552
  0
LINE
  8
0
 10
-28.6053
 20
390.552
 11
-28.5471
 21
390.373
  0
LINE
  8
0
 10
-28.5471
 20
390.373
 11
-28.5118
 21
390.188
  0
LINE
  8
0
 10
-28.5118
 20
390.188
 11
-28.5
 21
390
  0
LINE
  8
0
 10
-28.5
 20
390
 11
-28.5118
 21
389.812
  0
LINE
  8
0
 10
-28.5118
 20
389.812
 11
-28.5471
 21
389.627
  0
LINE
  8
0
 10
-28.5471
 20
389.627
 11
-28.6053
 21
389.448
  0
LINE
  8
0
 10
-28.6053
 20
389.448
 11
-28.6855
 21
389.277
  0
LINE
  8
0
 10
-28.6855
 20
389.277
 11
-28.7865
 21
389.118
  0
LINE
  8
0
 10
-28.7865
 20
389.118
 11
-28.9065
 21
388.973
  0
LINE
  8
0
 10
-28.9065
 20
388.973
 11
-29.0439
 21
388.844
  0
LINE
  8
0
 10
-29.0439
 20
388.844
 11
-29.1963
 21
388.734
  0
LINE
  8
0
 10
-29.1963
 20
388.734
 11
-29.3613
 21
388.643
  0
LINE
  8
0
 10
-29.3613
 20
388.643
 11
-29.5365
 21
388.573
  0
LINE
  8
0
 10
-29.5365
 20
388.573
 11
-29.7189
 21
388.527
  0
LINE
  8
0
 10
-29.7189
 20
388.527
 11
-29.9058
 21
388.503
  0
LINE
  8
0
 10
-29.9058
 20
388.503
 11
-30.0942
 21
388.503
  0
LINE
  8
0
 10
33.4369
 20
298.589
 11
34.0451
 21
298.745
  0
LINE
  8
0
 10
34.0451
 20
298.745
 11
34.6289
 21
298.976
  0
LINE
  8
0
 10
34.6289
 20
298.976
 11
35.1791
 21
299.278
  0
LINE
  8
0
 10
35.1791
 20
299.278
 11
35.6871
 21
299.647
  0
LINE
  8
0
 10
35.6871
 20
299.647
 11
36.1448
 21
300.077
  0
LINE
  8
0
 10
36.1448
 20
300.077
 11
36.5451
 21
300.561
  0
LINE
  8
0
 10
36.5451
 20
300.561
 11
36.8815
 21
301.091
  0
LINE
  8
0
 10
36.8815
 20
301.091
 11
37.1489
 21
301.659
  0
LINE
  8
0
 10
37.1489
 20
301.659
 11
37.3429
 21
302.257
  0
LINE
  8
0
 10
37.3429
 20
302.257
 11
37.4606
 21
302.873
  0
LINE
  8
0
 10
37.4606
 20
302.873
 11
37.5
 21
303.5
  0
LINE
  8
0
 10
37.5
 20
303.5
 11
37.5
 21
368.5
  0
LINE
  8
0
 10
37.5
 20
368.5
 11
37.4606
 21
369.127
  0
LINE
  8
0
 10
37.4606
 20
369.127
 11
37.3429
 21
369.743
  0
LINE
  8
0
 10
37.3429
 20
369.743
 11
37.1489
 21
370.341
  0
LINE
  8
0
 10
37.1489
 20
370.341
 11
36.8815
 21
370.909
  0
LINE
  8
0
 10
36.8815
 20
370.909
 11
36.5451
 21
371.439
  0
LINE
  8
0
 10
36.5451
 20
371.439
 11
36.1448
 21
371.923
  0
LINE
  8
0
 10
36.1448
 20
371.923
 11
35.6871
 21
372.353
  0
LINE
  8
0
 10
35.6871
 20
372.353
 11
35.1791
 21
372.722
  0
LINE
  8
0
 10
35.1791
 20
372.722
 11
34.6289
 21
373.024
  0
LINE
  8
0
 10
34.6289
 20
373.024
 11
34.0451
 21
373.255
  0
LINE
  8
0
 10
34.0451
 20
373.255
 11
33.4369
 21
373.411
  0
LINE
  8
0
 10
33.4369
 20
373.411
 11
32.8139
 21
373.49
  0
LINE
  8
0
 10
32.8139
 20
373.49
 11
-32.8139
 21
373.49
  0
LINE
  8
0
 10
-32.8139
 20
373.49
 11
-33.4369
 21
373.411
  0
LINE
  8
0
 10
-33.4369
 20
373.411
 11
-34.0451
 21
373.255
  0
LINE
  8
0
 10
-34.0451
 20
373.255
 11
-34.6289
 21
373.024
  0
LINE
  8
0
 10
-34.6289
 20
373.024
 11
-35.1791
 21
372.722
  0
LINE
  8
0
 10
-35.1791
 20
372.722
 11
-35.6871
 21
372.353
  0
LINE
  8
0
 10
-35.6871
 20
372.353
 11
-36.1448
 21
371.923
  0
LINE
  8
0
 10
-36.1448
 20
371.923
 11
-36.5451
 21
371.439
  0
LINE
  8
0
 10
-36.5451
 20
371.439
 11
-36.8815
 21
370.909
  0
LINE
  8
0
 10
-36.8815
 20
370.909
 11
-37.1489
 21
370.341
  0
LINE
  8
0
 10
-37.1489
 20
370.341
 11
-37.3429
 21
369.743
  0
LINE
  8
0
 10
-37.3429
 20
369.743
 11
-37.4606
 21
369.127
  0
LINE
  8
0
 10
-37.4606
 20
369.127
 11
-37.5
 21
368.5
  0
LINE
  8
0
 10
-37.5
 20
368.5
 11
-37.5
 21
303.5
  0
LINE
  8
0
 10
-37.5
 20
303.5
 11
-37.4606
 21
302.873
  0
LINE
  8
0
 10
-37.4606
 20
302.873
 11
-37.3429
 21
302.257
  0
LINE
  8
0
 10
-37.3429
 20
302.257
 11
-37.1489
 21
301.659
  0
LINE
  8
0
 10
-37.1489
 20
301.659
 11
-36.8815
 21
301.091
  0
LINE
  8
0
 10
-36.8815
 20
301.091
 11
-36.5451
 21
300.561
  0
LINE
  8
0
 10
-36.5451
 20
300.561
 11
-36.1448
 21
300.077
  0
LINE
  8
0
 10
-36.1448
 20
300.077
 11
-35.6871
 21
299.647
  0
LINE
  8
0
 10
-35.6871
 20
299.647
 11
-35.1791
 21
299.278
  0
LINE
  8
0
 10
-35.1791
 20
299.278
 11
-34.6289
 21
298.976
  0
LINE
  8
0
 10
-34.6289
 20
298.976
 11
-34.0451
 21
298.745
  0
LINE
  8
0
 10
-34.0451
 20
298.745
 11
-33.4369
 21
298.589
  0
LINE
  8
0
 10
-33.4369
 20
298.589
 11
-32.8139
 21
298.51
  0
LINE
  8
0
 10
-32.8139
 20
298.51
 11
32.8139
 21
298.51
  0
LINE
  8
0
 10
32.8139
 20
298.51
 11
33.4369
 21
298.589
  0
LINE
  8
0
 10
-26.5357
 20
299.486
 11
-26.3129
 21
299.647
  0
LINE
  8
0
 10
-26.3129
 20
299.647
 11
-25.8551
 21
300.077
  0
LINE
  8
0
 10
-25.8551
 20
300.077
 11
-25.4549
 21
300.561
  0
LINE
  8
0
 10
-25.4549
 20
300.561
 11
-25.1185
 21
301.091
  0
LINE
  8
0
 10
-25.1185
 20
301.091
 11
-24.8511
 21
301.659
  0
LINE
  8
0
 10
-24.8511
 20
301.659
 11
-24.6571
 21
302.257
  0
LINE
  8
0
 10
-24.6571
 20
302.257
 11
-24.5394
 21
302.873
  0
LINE
  8
0
 10
-24.5394
 20
302.873
 11
-24.5
 21
303.5
  0
LINE
  8
0
 10
-24.5
 20
303.5
 11
-24.5
 21
306.5
  0
LINE
  8
0
 10
-24.5
 20
306.5
 11
-24.5394
 21
307.127
  0
LINE
  8
0
 10
-24.5394
 20
307.127
 11
-24.6571
 21
307.743
  0
LINE
  8
0
 10
-24.6571
 20
307.743
 11
-24.8511
 21
308.341
  0
LINE
  8
0
 10
-24.8511
 20
308.341
 11
-25.1185
 21
308.909
  0
LINE
  8
0
 10
-25.1185
 20
308.909
 11
-25.4549
 21
309.439
  0
LINE
  8
0
 10
-25.4549
 20
309.439
 11
-25.8551
 21
309.923
  0
LINE
  8
0
 10
-25.8551
 20
309.923
 11
-26.3129
 21
310.353
  0
LINE
  8
0
 10
-26.3129
 20
310.353
 11
-26.8209
 21
310.722
  0
LINE
  8
0
 10
-26.8209
 20
310.722
 11
-27.3711
 21
311.024
  0
LINE
  8
0
 10
-27.3711
 20
311.024
 11
-27.9549
 21
311.255
  0
LINE
  8
0
 10
-27.9549
 20
311.255
 11
-28.5631
 21
311.411
  0
LINE
  8
0
 10
-28.5631
 20
311.411
 11
-29.186
 21
311.49
  0
LINE
  8
0
 10
-29.186
 20
311.49
 11
-32.8139
 21
311.49
  0
LINE
  8
0
 10
-32.8139
 20
311.49
 11
-33.4369
 21
311.411
  0
LINE
  8
0
 10
-33.4369
 20
311.411
 11
-34.0451
 21
311.255
  0
LINE
  8
0
 10
-34.0451
 20
311.255
 11
-34.6289
 21
311.024
  0
LINE
  8
0
 10
-34.6289
 20
311.024
 11
-35.1791
 21
310.722
  0
LINE
  8
0
 10
-35.1791
 20
310.722
 11
-35.6871
 21
310.353
  0
LINE
  8
0
 10
-35.6871
 20
310.353
 11
-36.1448
 21
309.923
  0
LINE
  8
0
 10
-36.1448
 20
309.923
 11
-36.5224
 21
309.466
  0
LINE
  8
0
 10
-36.5224
 20
309.466
 11
-36.5224
 21
368.5
  0
LINE
  8
0
 10
-36.5224
 20
368.5
 11
-36.4907
 21
369.004
  0
LINE
  8
0
 10
-36.4907
 20
369.004
 11
-36.396
 21
369.5
  0
LINE
  8
0
 10
-36.396
 20
369.5
 11
-36.2399
 21
369.981
  0
LINE
  8
0
 10
-36.2399
 20
369.981
 11
-36.0248
 21
370.438
  0
LINE
  8
0
 10
-36.0248
 20
370.438
 11
-35.7542
 21
370.864
  0
LINE
  8
0
 10
-35.7542
 20
370.864
 11
-35.4322
 21
371.254
  0
LINE
  8
0
 10
-35.4322
 20
371.254
 11
-35.064
 21
371.599
  0
LINE
  8
0
 10
-35.064
 20
371.599
 11
-34.6553
 21
371.896
  0
LINE
  8
0
 10
-34.6553
 20
371.896
 11
-34.2126
 21
372.14
  0
LINE
  8
0
 10
-34.2126
 20
372.14
 11
-33.743
 21
372.326
  0
LINE
  8
0
 10
-33.743
 20
372.326
 11
-33.2537
 21
372.451
  0
LINE
  8
0
 10
-33.2537
 20
372.451
 11
-32.7526
 21
372.514
  0
LINE
  8
0
 10
-32.7526
 20
372.514
 11
26.5357
 21
372.514
  0
LINE
  8
0
 10
26.5357
 20
372.514
 11
26.3129
 21
372.353
  0
LINE
  8
0
 10
26.3129
 20
372.353
 11
25.8551
 21
371.923
  0
LINE
  8
0
 10
25.8551
 20
371.923
 11
25.4549
 21
371.439
  0
LINE
  8
0
 10
25.4549
 20
371.439
 11
25.1185
 21
370.909
  0
LINE
  8
0
 10
25.1185
 20
370.909
 11
24.8511
 21
370.341
  0
LINE
  8
0
 10
24.8511
 20
370.341
 11
24.6571
 21
369.743
  0
LINE
  8
0
 10
24.6571
 20
369.743
 11
24.5394
 21
369.127
  0
LINE
  8
0
 10
24.5394
 20
369.127
 11
24.5
 21
368.5
  0
LINE
  8
0
 10
24.5
 20
368.5
 11
24.5
 21
365.5
  0
LINE
  8
0
 10
24.5
 20
365.5
 11
24.5394
 21
364.873
  0
LINE
  8
0
 10
24.5394
 20
364.873
 11
24.6571
 21
364.257
  0
LINE
  8
0
 10
24.6571
 20
364.257
 11
24.8511
 21
363.659
  0
LINE
  8
0
 10
24.8511
 20
363.659
 11
25.1185
 21
363.091
  0
LINE
  8
0
 10
25.1185
 20
363.091
 11
25.4549
 21
362.561
  0
LINE
  8
0
 10
25.4549
 20
362.561
 11
25.8551
 21
362.077
  0
LINE
  8
0
 10
25.8551
 20
362.077
 11
26.3129
 21
361.647
  0
LINE
  8
0
 10
26.3129
 20
361.647
 11
26.8209
 21
361.278
  0
LINE
  8
0
 10
26.8209
 20
361.278
 11
27.3711
 21
360.976
  0
LINE
  8
0
 10
27.3711
 20
360.976
 11
27.9549
 21
360.745
  0
LINE
  8
0
 10
27.9549
 20
360.745
 11
28.5631
 21
360.589
  0
LINE
  8
0
 10
28.5631
 20
360.589
 11
29.186
 21
360.51
  0
LINE
  8
0
 10
29.186
 20
360.51
 11
32.8139
 21
360.51
  0
LINE
  8
0
 10
32.8139
 20
360.51
 11
33.4369
 21
360.589
  0
LINE
  8
0
 10
33.4369
 20
360.589
 11
34.0451
 21
360.745
  0
LINE
  8
0
 10
34.0451
 20
360.745
 11
34.6289
 21
360.976
  0
LINE
  8
0
 10
34.6289
 20
360.976
 11
35.1791
 21
361.278
  0
LINE
  8
0
 10
35.1791
 20
361.278
 11
35.6871
 21
361.647
  0
LINE
  8
0
 10
35.6871
 20
361.647
 11
36.1448
 21
362.077
  0
LINE
  8
0
 10
36.1448
 20
362.077
 11
36.5224
 21
362.534
  0
LINE
  8
0
 10
36.5224
 20
362.534
 11
36.5224
 21
303.5
  0
LINE
  8
0
 10
36.5224
 20
303.5
 11
36.4907
 21
302.996
  0
LINE
  8
0
 10
36.4907
 20
302.996
 11
36.396
 21
302.5
  0
LINE
  8
0
 10
36.396
 20
302.5
 11
36.2399
 21
302.019
  0
LINE
  8
0
 10
36.2399
 20
302.019
 11
36.0248
 21
301.562
  0
LINE
  8
0
 10
36.0248
 20
301.562
 11
35.7542
 21
301.136
  0
LINE
  8
0
 10
35.7542
 20
301.136
 11
35.4322
 21
300.746
  0
LINE
  8
0
 10
35.4322
 20
300.746
 11
35.064
 21
300.401
  0
LINE
  8
0
 10
35.064
 20
300.401
 11
34.6553
 21
300.104
  0
LINE
  8
0
 10
34.6553
 20
300.104
 11
34.2126
 21
299.86
  0
LINE
  8
0
 10
34.2126
 20
299.86
 11
33.743
 21
299.674
  0
LINE
  8
0
 10
33.743
 20
299.674
 11
33.2537
 21
299.549
  0
LINE
  8
0
 10
33.2537
 20
299.549
 11
32.7526
 21
299.486
  0
LINE
  8
0
 10
32.7526
 20
299.486
 11
-26.5357
 21
299.486
  0
LINE
  8
0
 10
29.9058
 20
364.503
 11
29.7189
 21
364.527
  0
LINE
  8
0
 10
29.7189
 20
364.527
 11
29.5365
 21
364.573
  0
LINE
  8
0
 10
29.5365
 20
364.573
 11
29.3613
 21
364.643
  0
LINE
  8
0
 10
29.3613
 20
364.643
 11
29.1963
 21
364.734
  0
LINE
  8
0
 10
29.1963
 20
364.734
 11
29.0439
 21
364.844
  0
LINE
  8
0
 10
29.0439
 20
364.844
 11
28.9065
 21
364.973
  0
LINE
  8
0
 10
28.9065
 20
364.973
 11
28.7865
 21
365.118
  0
LINE
  8
0
 10
28.7865
 20
365.118
 11
28.6855
 21
365.277
  0
LINE
  8
0
 10
28.6855
 20
365.277
 11
28.6053
 21
365.448
  0
LINE
  8
0
 10
28.6053
 20
365.448
 11
28.5471
 21
365.627
  0
LINE
  8
0
 10
28.5471
 20
365.627
 11
28.5118
 21
365.812
  0
LINE
  8
0
 10
28.5118
 20
365.812
 11
28.5
 21
366
  0
LINE
  8
0
 10
28.5
 20
366
 11
28.5118
 21
366.188
  0
LINE
  8
0
 10
28.5118
 20
366.188
 11
28.5471
 21
366.373
  0
LINE
  8
0
 10
28.5471
 20
366.373
 11
28.6053
 21
366.552
  0
LINE
  8
0
 10
28.6053
 20
366.552
 11
28.6855
 21
366.723
  0
LINE
  8
0
 10
28.6855
 20
366.723
 11
28.7865
 21
366.882
  0
LINE
  8
0
 10
28.7865
 20
366.882
 11
28.9065
 21
367.027
  0
LINE
  8
0
 10
28.9065
 20
367.027
 11
29.0439
 21
367.156
  0
LINE
  8
0
 10
29.0439
 20
367.156
 11
29.1963
 21
367.266
  0
LINE
  8
0
 10
29.1963
 20
367.266
 11
29.3613
 21
367.357
  0
LINE
  8
0
 10
29.3613
 20
367.357
 11
29.5365
 21
367.427
  0
LINE
  8
0
 10
29.5365
 20
367.427
 11
29.7189
 21
367.473
  0
LINE
  8
0
 10
29.7189
 20
367.473
 11
29.9058
 21
367.497
  0
LINE
  8
0
 10
29.9058
 20
367.497
 11
30.0942
 21
367.497
  0
LINE
  8
0
 10
30.0942
 20
367.497
 11
30.2811
 21
367.473
  0
LINE
  8
0
 10
30.2811
 20
367.473
 11
30.4635
 21
367.427
  0
LINE
  8
0
 10
30.4635
 20
367.427
 11
30.6387
 21
367.357
  0
LINE
  8
0
 10
30.6387
 20
367.357
 11
30.8037
 21
367.266
  0
LINE
  8
0
 10
30.8037
 20
367.266
 11
30.9561
 21
367.156
  0
LINE
  8
0
 10
30.9561
 20
367.156
 11
31.0934
 21
367.027
  0
LINE
  8
0
 10
31.0934
 20
367.027
 11
31.2135
 21
366.882
  0
LINE
  8
0
 10
31.2135
 20
366.882
 11
31.3145
 21
366.723
  0
LINE
  8
0
 10
31.3145
 20
366.723
 11
31.3947
 21
366.552
  0
LINE
  8
0
 10
31.3947
 20
366.552
 11
31.4529
 21
366.373
  0
LINE
  8
0
 10
31.4529
 20
366.373
 11
31.4882
 21
366.188
  0
LINE
  8
0
 10
31.4882
 20
366.188
 11
31.5
 21
366
  0
LINE
  8
0
 10
31.5
 20
366
 11
31.4882
 21
365.812
  0
LINE
  8
0
 10
31.4882
 20
365.812
 11
31.4529
 21
365.627
  0
LINE
  8
0
 10
31.4529
 20
365.627
 11
31.3947
 21
365.448
  0
LINE
  8
0
 10
31.3947
 20
365.448
 11
31.3145
 21
365.277
  0
LINE
  8
0
 10
31.3145
 20
365.277
 11
31.2135
 21
365.118
  0
LINE
  8
0
 10
31.2135
 20
365.118
 11
31.0934
 21
364.973
  0
LINE
  8
0
 10
31.0934
 20
364.973
 11
30.9561
 21
364.844
  0
LINE
  8
0
 10
30.9561
 20
364.844
 11
30.8037
 21
364.734
  0
LINE
  8
0
 10
30.8037
 20
364.734
 11
30.6387
 21
364.643
  0
LINE
  8
0
 10
30.6387
 20
364.643
 11
30.4635
 21
364.573
  0
LINE
  8
0
 10
30.4635
 20
364.573
 11
30.2811
 21
364.527
  0
LINE
  8
0
 10
30.2811
 20
364.527
 11
30.0942
 21
364.503
  0
LINE
  8
0
 10
30.0942
 20
364.503
 11
29.9058
 21
364.503
  0
LINE
  8
0
 10
-30.0942
 20
304.503
 11
-30.2811
 21
304.527
  0
LINE
  8
0
 10
-30.2811
 20
304.527
 11
-30.4635
 21
304.573
  0
LINE
  8
0
 10
-30.4635
 20
304.573
 11
-30.6387
 21
304.643
  0
LINE
  8
0
 10
-30.6387
 20
304.643
 11
-30.8037
 21
304.734
  0
LINE
  8
0
 10
-30.8037
 20
304.734
 11
-30.9561
 21
304.844
  0
LINE
  8
0
 10
-30.9561
 20
304.844
 11
-31.0934
 21
304.973
  0
LINE
  8
0
 10
-31.0934
 20
304.973
 11
-31.2135
 21
305.118
  0
LINE
  8
0
 10
-31.2135
 20
305.118
 11
-31.3145
 21
305.277
  0
LINE
  8
0
 10
-31.3145
 20
305.277
 11
-31.3947
 21
305.448
  0
LINE
  8
0
 10
-31.3947
 20
305.448
 11
-31.4529
 21
305.627
  0
LINE
  8
0
 10
-31.4529
 20
305.627
 11
-31.4882
 21
305.812
  0
LINE
  8
0
 10
-31.4882
 20
305.812
 11
-31.5
 21
306
  0
LINE
  8
0
 10
-31.5
 20
306
 11
-31.4882
 21
306.188
  0
LINE
  8
0
 10
-31.4882
 20
306.188
 11
-31.4529
 21
306.373
  0
LINE
  8
0
 10
-31.4529
 20
306.373
 11
-31.3947
 21
306.552
  0
LINE
  8
0
 10
-31.3947
 20
306.552
 11
-31.3145
 21
306.723
  0
LINE
  8
0
 10
-31.3145
 20
306.723
 11
-31.2135
 21
306.882
  0
LINE
  8
0
 10
-31.2135
 20
306.882
 11
-31.0934
 21
307.027
  0
LINE
  8
0
 10
-31.0934
 20
307.027
 11
-30.9561
 21
307.156
  0
LINE
  8
0
 10
-30.9561
 20
307.156
 11
-30.8037
 21
307.266
  0
LINE
  8
0
 10
-30.8037
 20
307.266
 11
-30.6387
 21
307.357
  0
LINE
  8
0
 10
-30.6387
 20
307.357
 11
-30.4635
 21
307.427
  0
LINE
  8
0
 10
-30.4635
 20
307.427
 11
-30.2811
 21
307.473
  0
LINE
  8
0
 10
-30.2811
 20
307.473
 11
-30.0942
 21
307.497
  0
LINE
  8
0
 10
-30.0942
 20
307.497
 11
-29.9058
 21
307.497
  0
LINE
  8
0
 10
-29.9058
 20
307.497
 11
-29.7189
 21
307.473
  0
LINE
  8
0
 10
-29.7189
 20
307.473
 11
-29.5365
 21
307.427
  0
LINE
  8
0
 10
-29.5365
 20
307.427
 11
-29.3613
 21
307.357
  0
LINE
  8
0
 10
-29.3613
 20
307.357
 11
-29.1963
 21
307.266
  0
LINE
  8
0
 10
-29.1963
 20
307.266
 11
-29.0439
 21
307.156
  0
LINE
  8
0
 10
-29.0439
 20
307.156
 11
-28.9065
 21
307.027
  0
LINE
  8
0
 10
-28.9065
 20
307.027
 11
-28.7865
 21
306.882
  0
LINE
  8
0
 10
-28.7865
 20
306.882
 11
-28.6855
 21
306.723
  0
LINE
  8
0
 10
-28.6855
 20
306.723
 11
-28.6053
 21
306.552
  0
LINE
  8
0
 10
-28.6053
 20
306.552
 11
-28.5471
 21
306.373
  0
LINE
  8
0
 10
-28.5471
 20
306.373
 11
-28.5118
 21
306.188
  0
LINE
  8
0
 10
-28.5118
 20
306.188
 11
-28.5
 21
306
  0
LINE
  8
0
 10
-28.5
 20
306
 11
-28.5118
 21
305.812
  0
LINE
  8
0
 10
-28.5118
 20
305.812
 11
-28.5471
 21
305.627
  0
LINE
  8
0
 10
-28.5471
 20
305.627
 11
-28.6053
 21
305.448
  0
LINE
  8
0
 10
-28.6053
 20
305.448
 11
-28.6855
 21
305.277
  0
LINE
  8
0
 10
-28.6855
 20
305.277
 11
-28.7865
 21
305.118
  0
LINE
  8
0
 10
-28.7865
 20
305.118
 11
-28.9065
 21
304.973
  0
LINE
  8
0
 10
-28.9065
 20
304.973
 11
-29.0439
 21
304.844
  0
LINE
  8
0
 10
-29.0439
 20
304.844
 11
-29.1963
 21
304.734
  0
LINE
  8
0
 10
-29.1963
 20
304.734
 11
-29.3613
 21
304.643
  0
LINE
  8
0
 10
-29.3613
 20
304.643
 11
-29.5365
 21
304.573
  0
LINE
  8
0
 10
-29.5365
 20
304.573
 11
-29.7189
 21
304.527
  0
LINE
  8
0
 10
-29.7189
 20
304.527
 11
-29.9058
 21
304.503
  0
LINE
  8
0
 10
-29.9058
 20
304.503
 11
-30.0942
 21
304.503
  0
LINE
  8
0
 10
33.4369
 20
214.589
 11
34.0451
 21
214.745
  0
LINE
  8
0
 10
34.0451
 20
214.745
 11
34.6289
 21
214.976
  0
LINE
  8
0
 10
34.6289
 20
214.976
 11
35.1791
 21
215.278
  0
LINE
  8
0
 10
35.1791
 20
215.278
 11
35.6871
 21
215.647
  0
LINE
  8
0
 10
35.6871
 20
215.647
 11
36.1448
 21
216.077
  0
LINE
  8
0
 10
36.1448
 20
216.077
 11
36.5451
 21
216.561
  0
LINE
  8
0
 10
36.5451
 20
216.561
 11
36.8815
 21
217.091
  0
LINE
  8
0
 10
36.8815
 20
217.091
 11
37.1489
 21
217.659
  0
LINE
  8
0
 10
37.1489
 20
217.659
 11
37.3429
 21
218.257
  0
LINE
  8
0
 10
37.3429
 20
218.257
 11
37.4606
 21
218.873
  0
LINE
  8
0
 10
37.4606
 20
218.873
 11
37.5
 21
219.5
  0
LINE
  8
0
 10
37.5
 20
219.5
 11
37.5
 21
284.5
  0
LINE
  8
0
 10
37.5
 20
284.5
 11
37.4606
 21
285.127
  0
LINE
  8
0
 10
37.4606
 20
285.127
 11
37.3429
 21
285.743
  0
LINE
  8
0
 10
37.3429
 20
285.743
 11
37.1489
 21
286.341
  0
LINE
  8
0
 10
37.1489
 20
286.341
 11
36.8815
 21
286.909
  0
LINE
  8
0
 10
36.8815
 20
286.909
 11
36.5451
 21
287.439
  0
LINE
  8
0
 10
36.5451
 20
287.439
 11
36.1448
 21
287.923
  0
LINE
  8
0
 10
36.1448
 20
287.923
 11
35.6871
 21
288.353
  0
LINE
  8
0
 10
35.6871
 20
288.353
 11
35.1791
 21
288.722
  0
LINE
  8
0
 10
35.1791
 20
288.722
 11
34.6289
 21
289.024
  0
LINE
  8
0
 10
34.6289
 20
289.024
 11
34.0451
 21
289.255
  0
LINE
  8
0
 10
34.0451
 20
289.255
 11
33.4369
 21
289.411
  0
LINE
  8
0
 10
33.4369
 20
289.411
 11
32.8139
 21
289.49
  0
LINE
  8
0
 10
32.8139
 20
289.49
 11
-32.8139
 21
289.49
  0
LINE
  8
0
 10
-32.8139
 20
289.49
 11
-33.4369
 21
289.411
  0
LINE
  8
0
 10
-33.4369
 20
289.411
 11
-34.0451
 21
289.255
  0
LINE
  8
0
 10
-34.0451
 20
289.255
 11
-34.6289
 21
289.024
  0
LINE
  8
0
 10
-34.6289
 20
289.024
 11
-35.1791
 21
288.722
  0
LINE
  8
0
 10
-35.1791
 20
288.722
 11
-35.6871
 21
288.353
  0
LINE
  8
0
 10
-35.6871
 20
288.353
 11
-36.1448
 21
287.923
  0
LINE
  8
0
 10
-36.1448
 20
287.923
 11
-36.5451
 21
287.439
  0
LINE
  8
0
 10
-36.5451
 20
287.439
 11
-36.8815
 21
286.909
  0
LINE
  8
0
 10
-36.8815
 20
286.909
 11
-37.1489
 21
286.341
  0
LINE
  8
0
 10
-37.1489
 20
286.341
 11
-37.3429
 21
285.743
  0
LINE
  8
0
 10
-37.3429
 20
285.743
 11
-37.4606
 21
285.127
  0
LINE
  8
0
 10
-37.4606
 20
285.127
 11
-37.5
 21
284.5
  0
LINE
  8
0
 10
-37.5
 20
284.5
 11
-37.5
 21
219.5
  0
LINE
  8
0
 10
-37.5
 20
219.5
 11
-37.4606
 21
218.873
  0
LINE
  8
0
 10
-37.4606
 20
218.873
 11
-37.3429
 21
218.257
  0
LINE
  8
0
 10
-37.3429
 20
218.257
 11
-37.1489
 21
217.659
  0
LINE
  8
0
 10
-37.1489
 20
217.659
 11
-36.8815
 21
217.091
  0
LINE
  8
0
 10
-36.8815
 20
217.091
 11
-36.5451
 21
216.561
  0
LINE
  8
0
 10
-36.5451
 20
216.561
 11
-36.1448
 21
216.077
  0
LINE
  8
0
 10
-36.1448
 20
216.077
 11
-35.6871
 21
215.647
  0
LINE
  8
0
 10
-35.6871
 20
215.647
 11
-35.1791
 21
215.278
  0
LINE
  8
0
 10
-35.1791
 20
215.278
 11
-34.6289
 21
214.976
  0
LINE
  8
0
 10
-34.6289
 20
214.976
 11
-34.0451
 21
214.745
  0
LINE
  8
0
 10
-34.0451
 20
214.745
 11
-33.4369
 21
214.589
  0
LINE
  8
0
 10
-33.4369
 20
214.589
 11
-32.8139
 21
214.51
  0
LINE
  8
0
 10
-32.8139
 20
214.51
 11
32.8139
 21
214.51
  0
LINE
  8
0
 10
32.8139
 20
214.51
 11
33.4369
 21
214.589
  0
LINE
  8
0
 10
29.8493
 20
279.605
 11
29.5503
 21
279.643
  0
LINE
  8
0
 10
29.5503
 20
279.643
 11
29.2583
 21
279.717
  0
LINE
  8
0
 10
29.2583
 20
279.717
 11
28.9781
 21
279.828
  0
LINE
  8
0
 10
28.9781
 20
279.828
 11
28.714
 21
279.974
  0
LINE
  8
0
 10
28.714
 20
279.974
 11
28.4702
 21
280.151
  0
LINE
  8
0
 10
28.4702
 20
280.151
 11
28.2505
 21
280.357
  0
LINE
  8
0
 10
28.2505
 20
280.357
 11
28.0583
 21
280.589
  0
LINE
  8
0
 10
28.0583
 20
280.589
 11
27.8969
 21
280.844
  0
LINE
  8
0
 10
27.8969
 20
280.844
 11
27.7685
 21
281.117
  0
LINE
  8
0
 10
27.7685
 20
281.117
 11
27.6754
 21
281.403
  0
LINE
  8
0
 10
27.6754
 20
281.403
 11
27.6189
 21
281.699
  0
LINE
  8
0
 10
27.6189
 20
281.699
 11
27.6
 21
282
  0
LINE
  8
0
 10
27.6
 20
282
 11
27.6189
 21
282.301
  0
LINE
  8
0
 10
27.6189
 20
282.301
 11
27.6754
 21
282.597
  0
LINE
  8
0
 10
27.6754
 20
282.597
 11
27.7685
 21
282.883
  0
LINE
  8
0
 10
27.7685
 20
282.883
 11
27.8969
 21
283.156
  0
LINE
  8
0
 10
27.8969
 20
283.156
 11
28.0583
 21
283.411
  0
LINE
  8
0
 10
28.0583
 20
283.411
 11
28.2505
 21
283.643
  0
LINE
  8
0
 10
28.2505
 20
283.643
 11
28.4702
 21
283.849
  0
LINE
  8
0
 10
28.4702
 20
283.849
 11
28.714
 21
284.026
  0
LINE
  8
0
 10
28.714
 20
284.026
 11
28.9781
 21
284.172
  0
LINE
  8
0
 10
28.9781
 20
284.172
 11
29.2583
 21
284.283
  0
LINE
  8
0
 10
29.2583
 20
284.283
 11
29.5503
 21
284.357
  0
LINE
  8
0
 10
29.5503
 20
284.357
 11
29.8493
 21
284.395
  0
LINE
  8
0
 10
29.8493
 20
284.395
 11
30.1507
 21
284.395
  0
LINE
  8
0
 10
30.1507
 20
284.395
 11
30.4497
 21
284.357
  0
LINE
  8
0
 10
30.4497
 20
284.357
 11
30.7416
 21
284.283
  0
LINE
  8
0
 10
30.7416
 20
284.283
 11
31.0219
 21
284.172
  0
LINE
  8
0
 10
31.0219
 20
284.172
 11
31.286
 21
284.026
  0
LINE
  8
0
 10
31.286
 20
284.026
 11
31.5298
 21
283.849
  0
LINE
  8
0
 10
31.5298
 20
283.849
 11
31.7495
 21
283.643
  0
LINE
  8
0
 10
31.7495
 20
283.643
 11
31.9416
 21
283.411
  0
LINE
  8
0
 10
31.9416
 20
283.411
 11
32.1031
 21
283.156
  0
LINE
  8
0
 10
32.1031
 20
283.156
 11
32.2315
 21
282.883
  0
LINE
  8
0
 10
32.2315
 20
282.883
 11
32.3246
 21
282.597
  0
LINE
  8
0
 10
32.3246
 20
282.597
 11
32.3811
 21
282.301
  0
LINE
  8
0
 10
32.3811
 20
282.301
 11
32.4
 21
282
  0
LINE
  8
0
 10
32.4
 20
282
 11
32.3811
 21
281.699
  0
LINE
  8
0
 10
32.3811
 20
281.699
 11
32.3246
 21
281.403
  0
LINE
  8
0
 10
32.3246
 20
281.403
 11
32.2315
 21
281.117
  0
LINE
  8
0
 10
32.2315
 20
281.117
 11
32.1031
 21
280.844
  0
LINE
  8
0
 10
32.1031
 20
280.844
 11
31.9416
 21
280.589
  0
LINE
  8
0
 10
31.9416
 20
280.589
 11
31.7495
 21
280.357
  0
LINE
  8
0
 10
31.7495
 20
280.357
 11
31.5298
 21
280.151
  0
LINE
  8
0
 10
31.5298
 20
280.151
 11
31.286
 21
279.974
  0
LINE
  8
0
 10
31.286
 20
279.974
 11
31.0219
 21
279.828
  0
LINE
  8
0
 10
31.0219
 20
279.828
 11
30.7416
 21
279.717
  0
LINE
  8
0
 10
30.7416
 20
279.717
 11
30.4497
 21
279.643
  0
LINE
  8
0
 10
30.4497
 20
279.643
 11
30.1507
 21
279.605
  0
LINE
  8
0
 10
30.1507
 20
279.605
 11
29.8493
 21
279.605
  0
LINE
  8
0
 10
-30.0942
 20
280.503
 11
-30.2811
 21
280.527
  0
LINE
  8
0
 10
-30.2811
 20
280.527
 11
-30.4635
 21
280.573
  0
LINE
  8
0
 10
-30.4635
 20
280.573
 11
-30.6387
 21
280.643
  0
LINE
  8
0
 10
-30.6387
 20
280.643
 11
-30.8037
 21
280.734
  0
LINE
  8
0
 10
-30.8037
 20
280.734
 11
-30.9561
 21
280.844
  0
LINE
  8
0
 10
-30.9561
 20
280.844
 11
-31.0934
 21
280.973
  0
LINE
  8
0
 10
-31.0934
 20
280.973
 11
-31.2135
 21
281.118
  0
LINE
  8
0
 10
-31.2135
 20
281.118
 11
-31.3145
 21
281.277
  0
LINE
  8
0
 10
-31.3145
 20
281.277
 11
-31.3947
 21
281.448
  0
LINE
  8
0
 10
-31.3947
 20
281.448
 11
-31.4529
 21
281.627
  0
LINE
  8
0
 10
-31.4529
 20
281.627
 11
-31.4882
 21
281.812
  0
LINE
  8
0
 10
-31.4882
 20
281.812
 11
-31.5
 21
282
  0
LINE
  8
0
 10
-31.5
 20
282
 11
-31.4882
 21
282.188
  0
LINE
  8
0
 10
-31.4882
 20
282.188
 11
-31.4529
 21
282.373
  0
LINE
  8
0
 10
-31.4529
 20
282.373
 11
-31.3947
 21
282.552
  0
LINE
  8
0
 10
-31.3947
 20
282.552
 11
-31.3145
 21
282.723
  0
LINE
  8
0
 10
-31.3145
 20
282.723
 11
-31.2135
 21
282.882
  0
LINE
  8
0
 10
-31.2135
 20
282.882
 11
-31.0934
 21
283.027
  0
LINE
  8
0
 10
-31.0934
 20
283.027
 11
-30.9561
 21
283.156
  0
LINE
  8
0
 10
-30.9561
 20
283.156
 11
-30.8037
 21
283.266
  0
LINE
  8
0
 10
-30.8037
 20
283.266
 11
-30.6387
 21
283.357
  0
LINE
  8
0
 10
-30.6387
 20
283.357
 11
-30.4635
 21
283.427
  0
LINE
  8
0
 10
-30.4635
 20
283.427
 11
-30.2811
 21
283.473
  0
LINE
  8
0
 10
-30.2811
 20
283.473
 11
-30.0942
 21
283.497
  0
LINE
  8
0
 10
-30.0942
 20
283.497
 11
-29.9058
 21
283.497
  0
LINE
  8
0
 10
-29.9058
 20
283.497
 11
-29.7189
 21
283.473
  0
LINE
  8
0
 10
-29.7189
 20
283.473
 11
-29.5365
 21
283.427
  0
LINE
  8
0
 10
-29.5365
 20
283.427
 11
-29.3613
 21
283.357
  0
LINE
  8
0
 10
-29.3613
 20
283.357
 11
-29.1963
 21
283.266
  0
LINE
  8
0
 10
-29.1963
 20
283.266
 11
-29.0439
 21
283.156
  0
LINE
  8
0
 10
-29.0439
 20
283.156
 11
-28.9065
 21
283.027
  0
LINE
  8
0
 10
-28.9065
 20
283.027
 11
-28.7865
 21
282.882
  0
LINE
  8
0
 10
-28.7865
 20
282.882
 11
-28.6855
 21
282.723
  0
LINE
  8
0
 10
-28.6855
 20
282.723
 11
-28.6053
 21
282.552
  0
LINE
  8
0
 10
-28.6053
 20
282.552
 11
-28.5471
 21
282.373
  0
LINE
  8
0
 10
-28.5471
 20
282.373
 11
-28.5118
 21
282.188
  0
LINE
  8
0
 10
-28.5118
 20
282.188
 11
-28.5
 21
282
  0
LINE
  8
0
 10
-28.5
 20
282
 11
-28.5118
 21
281.812
  0
LINE
  8
0
 10
-28.5118
 20
281.812
 11
-28.5471
 21
281.627
  0
LINE
  8
0
 10
-28.5471
 20
281.627
 11
-28.6053
 21
281.448
  0
LINE
  8
0
 10
-28.6053
 20
281.448
 11
-28.6855
 21
281.277
  0
LINE
  8
0
 10
-28.6855
 20
281.277
 11
-28.7865
 21
281.118
  0
LINE
  8
0
 10
-28.7865
 20
281.118
 11
-28.9065
 21
280.973
  0
LINE
  8
0
 10
-28.9065
 20
280.973
 11
-29.0439
 21
280.844
  0
LINE
  8
0
 10
-29.0439
 20
280.844
 11
-29.1963
 21
280.734
  0
LINE
  8
0
 10
-29.1963
 20
280.734
 11
-29.3613
 21
280.643
  0
LINE
  8
0
 10
-29.3613
 20
280.643
 11
-29.5365
 21
280.573
  0
LINE
  8
0
 10
-29.5365
 20
280.573
 11
-29.7189
 21
280.527
  0
LINE
  8
0
 10
-29.7189
 20
280.527
 11
-29.9058
 21
280.503
  0
LINE
  8
0
 10
-29.9058
 20
280.503
 11
-30.0942
 21
280.503
  0
LINE
  8
0
 10
-30.1507
 20
219.605
 11
-30.4497
 21
219.643
  0
LINE
  8
0
 10
-30.4497
 20
219.643
 11
-30.7416
 21
219.717
  0
LINE
  8
0
 10
-30.7416
 20
219.717
 11
-31.0219
 21
219.828
  0
LINE
  8
0
 10
-31.0219
 20
219.828
 11
-31.286
 21
219.974
  0
LINE
  8
0
 10
-31.286
 20
219.974
 11
-31.5298
 21
220.151
  0
LINE
  8
0
 10
-31.5298
 20
220.151
 11
-31.7495
 21
220.357
  0
LINE
  8
0
 10
-31.7495
 20
220.357
 11
-31.9416
 21
220.589
  0
LINE
  8
0
 10
-31.9416
 20
220.589
 11
-32.1031
 21
220.844
  0
LINE
  8
0
 10
-32.1031
 20
220.844
 11
-32.2315
 21
221.117
  0
LINE
  8
0
 10
-32.2315
 20
221.117
 11
-32.3246
 21
221.403
  0
LINE
  8
0
 10
-32.3246
 20
221.403
 11
-32.3811
 21
221.699
  0
LINE
  8
0
 10
-32.3811
 20
221.699
 11
-32.4
 21
222
  0
LINE
  8
0
 10
-32.4
 20
222
 11
-32.3811
 21
222.301
  0
LINE
  8
0
 10
-32.3811
 20
222.301
 11
-32.3246
 21
222.597
  0
LINE
  8
0
 10
-32.3246
 20
222.597
 11
-32.2315
 21
222.883
  0
LINE
  8
0
 10
-32.2315
 20
222.883
 11
-32.1031
 21
223.156
  0
LINE
  8
0
 10
-32.1031
 20
223.156
 11
-31.9416
 21
223.411
  0
LINE
  8
0
 10
-31.9416
 20
223.411
 11
-31.7495
 21
223.643
  0
LINE
  8
0
 10
-31.7495
 20
223.643
 11
-31.5298
 21
223.849
  0
LINE
  8
0
 10
-31.5298
 20
223.849
 11
-31.286
 21
224.026
  0
LINE
  8
0
 10
-31.286
 20
224.026
 11
-31.0219
 21
224.172
  0
LINE
  8
0
 10
-31.0219
 20
224.172
 11
-30.7416
 21
224.283
  0
LINE
  8
0
 10
-30.7416
 20
224.283
 11
-30.4497
 21
224.357
  0
LINE
  8
0
 10
-30.4497
 20
224.357
 11
-30.1507
 21
224.395
  0
LINE
  8
0
 10
-30.1507
 20
224.395
 11
-29.8493
 21
224.395
  0
LINE
  8
0
 10
-29.8493
 20
224.395
 11
-29.5503
 21
224.357
  0
LINE
  8
0
 10
-29.5503
 20
224.357
 11
-29.2583
 21
224.283
  0
LINE
  8
0
 10
-29.2583
 20
224.283
 11
-28.9781
 21
224.172
  0
LINE
  8
0
 10
-28.9781
 20
224.172
 11
-28.714
 21
224.026
  0
LINE
  8
0
 10
-28.714
 20
224.026
 11
-28.4702
 21
223.849
  0
LINE
  8
0
 10
-28.4702
 20
223.849
 11
-28.2505
 21
223.643
  0
LINE
  8
0
 10
-28.2505
 20
223.643
 11
-28.0583
 21
223.411
  0
LINE
  8
0
 10
-28.0583
 20
223.411
 11
-27.8969
 21
223.156
  0
LINE
  8
0
 10
-27.8969
 20
223.156
 11
-27.7685
 21
222.883
  0
LINE
  8
0
 10
-27.7685
 20
222.883
 11
-27.6754
 21
222.597
  0
LINE
  8
0
 10
-27.6754
 20
222.597
 11
-27.6189
 21
222.301
  0
LINE
  8
0
 10
-27.6189
 20
222.301
 11
-27.6
 21
222
  0
LINE
  8
0
 10
-27.6
 20
222
 11
-27.6189
 21
221.699
  0
LINE
  8
0
 10
-27.6189
 20
221.699
 11
-27.6754
 21
221.403
  0
LINE
  8
0
 10
-27.6754
 20
221.403
 11
-27.7685
 21
221.117
  0
LINE
  8
0
 10
-27.7685
 20
221.117
 11
-27.8969
 21
220.844
  0
LINE
  8
0
 10
-27.8969
 20
220.844
 11
-28.0583
 21
220.589
  0
LINE
  8
0
 10
-28.0583
 20
220.589
 11
-28.2505
 21
220.357
  0
LINE
  8
0
 10
-28.2505
 20
220.357
 11
-28.4702
 21
220.151
  0
LINE
  8
0
 10
-28.4702
 20
220.151
 11
-28.714
 21
219.974
  0
LINE
  8
0
 10
-28.714
 20
219.974
 11
-28.9781
 21
219.828
  0
LINE
  8
0
 10
-28.9781
 20
219.828
 11
-29.2583
 21
219.717
  0
LINE
  8
0
 10
-29.2583
 20
219.717
 11
-29.5503
 21
219.643
  0
LINE
  8
0
 10
-29.5503
 20
219.643
 11
-29.8493
 21
219.605
  0
LINE
  8
0
 10
-29.8493
 20
219.605
 11
-30.1507
 21
219.605
  0
LINE
  8
0
 10
29.9058
 20
220.503
 11
29.7189
 21
220.527
  0
LINE
  8
0
 10
29.7189
 20
220.527
 11
29.5365
 21
220.573
  0
LINE
  8
0
 10
29.5365
 20
220.573
 11
29.3613
 21
220.643
  0
LINE
  8
0
 10
29.3613
 20
220.643
 11
29.1963
 21
220.734
  0
LINE
  8
0
 10
29.1963
 20
220.734
 11
29.0439
 21
220.844
  0
LINE
  8
0
 10
29.0439
 20
220.844
 11
28.9065
 21
220.973
  0
LINE
  8
0
 10
28.9065
 20
220.973
 11
28.7865
 21
221.118
  0
LINE
  8
0
 10
28.7865
 20
221.118
 11
28.6855
 21
221.277
  0
LINE
  8
0
 10
28.6855
 20
221.277
 11
28.6053
 21
221.448
  0
LINE
  8
0
 10
28.6053
 20
221.448
 11
28.5471
 21
221.627
  0
LINE
  8
0
 10
28.5471
 20
221.627
 11
28.5118
 21
221.812
  0
LINE
  8
0
 10
28.5118
 20
221.812
 11
28.5
 21
222
  0
LINE
  8
0
 10
28.5
 20
222
 11
28.5118
 21
222.188
  0
LINE
  8
0
 10
28.5118
 20
222.188
 11
28.5471
 21
222.373
  0
LINE
  8
0
 10
28.5471
 20
222.373
 11
28.6053
 21
222.552
  0
LINE
  8
0
 10
28.6053
 20
222.552
 11
28.6855
 21
222.723
  0
LINE
  8
0
 10
28.6855
 20
222.723
 11
28.7865
 21
222.882
  0
LINE
  8
0
 10
28.7865
 20
222.882
 11
28.9065
 21
223.027
  0
LINE
  8
0
 10
28.9065
 20
223.027
 11
29.0439
 21
223.156
  0
LINE
  8
0
 10
29.0439
 20
223.156
 11
29.1963
 21
223.266
  0
LINE
  8
0
 10
29.1963
 20
223.266
 11
29.3613
 21
223.357
  0
LINE
  8
0
 10
29.3613
 20
223.357
 11
29.5365
 21
223.427
  0
LINE
  8
0
 10
29.5365
 20
223.427
 11
29.7189
 21
223.473
  0
LINE
  8
0
 10
29.7189
 20
223.473
 11
29.9058
 21
223.497
  0
LINE
  8
0
 10
29.9058
 20
223.497
 11
30.0942
 21
223.497
  0
LINE
  8
0
 10
30.0942
 20
223.497
 11
30.2811
 21
223.473
  0
LINE
  8
0
 10
30.2811
 20
223.473
 11
30.4635
 21
223.427
  0
LINE
  8
0
 10
30.4635
 20
223.427
 11
30.6387
 21
223.357
  0
LINE
  8
0
 10
30.6387
 20
223.357
 11
30.8037
 21
223.266
  0
LINE
  8
0
 10
30.8037
 20
223.266
 11
30.9561
 21
223.156
  0
LINE
  8
0
 10
30.9561
 20
223.156
 11
31.0934
 21
223.027
  0
LINE
  8
0
 10
31.0934
 20
223.027
 11
31.2135
 21
222.882
  0
LINE
  8
0
 10
31.2135
 20
222.882
 11
31.3145
 21
222.723
  0
LINE
  8
0
 10
31.3145
 20
222.723
 11
31.3947
 21
222.552
  0
LINE
  8
0
 10
31.3947
 20
222.552
 11
31.4529
 21
222.373
  0
LINE
  8
0
 10
31.4529
 20
222.373
 11
31.4882
 21
222.188
  0
LINE
  8
0
 10
31.4882
 20
222.188
 11
31.5
 21
222
  0
LINE
  8
0
 10
31.5
 20
222
 11
31.4882
 21
221.812
  0
LINE
  8
0
 10
31.4882
 20
221.812
 11
31.4529
 21
221.627
  0
LINE
  8
0
 10
31.4529
 20
221.627
 11
31.3947
 21
221.448
  0
LINE
  8
0
 10
31.3947
 20
221.448
 11
31.3145
 21
221.277
  0
LINE
  8
0
 10
31.3145
 20
221.277
 11
31.2135
 21
221.118
  0
LINE
  8
0
 10
31.2135
 20
221.118
 11
31.0934
 21
220.973
  0
LINE
  8
0
 10
31.0934
 20
220.973
 11
30.9561
 21
220.844
  0
LINE
  8
0
 10
30.9561
 20
220.844
 11
30.8037
 21
220.734
  0
LINE
  8
0
 10
30.8037
 20
220.734
 11
30.6387
 21
220.643
  0
LINE
  8
0
 10
30.6387
 20
220.643
 11
30.4635
 21
220.573
  0
LINE
  8
0
 10
30.4635
 20
220.573
 11
30.2811
 21
220.527
  0
LINE
  8
0
 10
30.2811
 20
220.527
 11
30.0942
 21
220.503
  0
LINE
  8
0
 10
30.0942
 20
220.503
 11
29.9058
 21
220.503
  0
ENDSEC
  0
SECTION
  2
OBJECTS
  0
DICTIONARY
  0
ENDSEC
  0
EOF
