solid OpenSCAD_Model
  facet normal -1 0 0
    outer loop
      vertex -14.5 -2 0
      vertex -14.5 2 1
      vertex -14.5 2 0
    endloop
  endfacet
  facet normal -1 -0 0
    outer loop
      vertex -14.5 2 1
      vertex -14.5 -2 0
      vertex -14.5 -2 1
    endloop
  endfacet
  facet normal -0.998029 -0.0627481 0
    outer loop
      vertex -14.4606 -2.62667 0
      vertex -14.5 -2 1
      vertex -14.5 -2 0
    endloop
  endfacet
  facet normal -0.998029 -0.0627481 0
    outer loop
      vertex -14.5 -2 1
      vertex -14.4606 -2.62667 0
      vertex -14.4606 -2.62667 1
    endloop
  endfacet
  facet normal -0.998029 0.0627481 0
    outer loop
      vertex -14.5 2 0
      vertex -14.4606 2.62667 1
      vertex -14.4606 2.62667 0
    endloop
  endfacet
  facet normal -0.998029 0.0627481 0
    outer loop
      vertex -14.4606 2.62667 1
      vertex -14.5 2 0
      vertex -14.5 2 1
    endloop
  endfacet
  facet normal -0 0 1
    outer loop
      vertex 13.75 0.25 1
      vertex 19.5 0 1
      vertex 19.4606 0.626666 1
    endloop
  endfacet
  facet normal 0 0 1
    outer loop
      vertex 13.75 0.25 1
      vertex 19.4606 0.626666 1
      vertex 19.3429 1.24345 1
    endloop
  endfacet
  facet normal 0 0 1
    outer loop
      vertex 13.75 -0.25 1
      vertex 19.5 0 1
      vertex 13.75 0.25 1
    endloop
  endfacet
  facet normal 0 0 1
    outer loop
      vertex 13.75 0.25 1
      vertex 19.3429 1.24345 1
      vertex 19.1489 1.84062 1
    endloop
  endfacet
  facet normal 0 0 1
    outer loop
      vertex 19.5 0 1
      vertex 13.75 -0.25 1
      vertex 19.4606 -0.626666 1
    endloop
  endfacet
  facet normal 0 0 1
    outer loop
      vertex 13.7027 1.002 1
      vertex 19.1489 1.84062 1
      vertex 18.8815 2.40877 1
    endloop
  endfacet
  facet normal 0 0 1
    outer loop
      vertex 19.4606 -0.626666 1
      vertex 13.75 -0.25 1
      vertex 19.3429 -1.24345 1
    endloop
  endfacet
  facet normal 0 0 1
    outer loop
      vertex 13.7027 1.002 1
      vertex 18.8815 2.40877 1
      vertex 18.5451 2.93893 1
    endloop
  endfacet
  facet normal 0 0 1
    outer loop
      vertex 19.3429 -1.24345 1
      vertex 13.75 -0.25 1
      vertex 19.1489 -1.84062 1
    endloop
  endfacet
  facet normal 0 0 1
    outer loop
      vertex 13.7027 1.002 1
      vertex 18.5451 2.93893 1
      vertex 18.1448 3.42274 1
    endloop
  endfacet
  facet normal -0 0 1
    outer loop
      vertex 13.7027 -1.002 1
      vertex 19.1489 -1.84062 1
      vertex 13.75 -0.25 1
    endloop
  endfacet
  facet normal 0 0 1
    outer loop
      vertex 13.7027 1.002 1
      vertex 18.1448 3.42274 1
      vertex 17.6871 3.85257 1
    endloop
  endfacet
  facet normal 0 0 1
    outer loop
      vertex 19.1489 -1.84062 1
      vertex 13.7027 -1.002 1
      vertex 18.8815 -2.40877 1
    endloop
  endfacet
  facet normal 0 0 1
    outer loop
      vertex 13.5615 1.74214 1
      vertex 17.6871 3.85257 1
      vertex 17.1791 4.22164 1
    endloop
  endfacet
  facet normal 0 0 1
    outer loop
      vertex 18.8815 -2.40877 1
      vertex 13.7027 -1.002 1
      vertex 18.5451 -2.93893 1
    endloop
  endfacet
  facet normal 0 0 1
    outer loop
      vertex 13.5615 1.74214 1
      vertex 17.1791 4.22164 1
      vertex 16.6289 4.52413 1
    endloop
  endfacet
  facet normal 0 0 1
    outer loop
      vertex 18.5451 -2.93893 1
      vertex 13.7027 -1.002 1
      vertex 18.1448 -3.42274 1
    endloop
  endfacet
  facet normal 0 0 1
    outer loop
      vertex 13.5615 1.74214 1
      vertex 16.6289 4.52413 1
      vertex 16.0451 4.75528 1
    endloop
  endfacet
  facet normal 0 0 1
    outer loop
      vertex 18.1448 -3.42274 1
      vertex 13.7027 -1.002 1
      vertex 17.6871 -3.85257 1
    endloop
  endfacet
  facet normal 0 0 1
    outer loop
      vertex 13.3287 2.45875 1
      vertex 16.0451 4.75528 1
      vertex 15.4369 4.91144 1
    endloop
  endfacet
  facet normal -0 0 1
    outer loop
      vertex 13.5615 -1.74214 1
      vertex 17.6871 -3.85257 1
      vertex 13.7027 -1.002 1
    endloop
  endfacet
  facet normal 0 0 1
    outer loop
      vertex 13.3287 2.45875 1
      vertex 15.4369 4.91144 1
      vertex 14.814 4.99013 1
    endloop
  endfacet
  facet normal 0 0 1
    outer loop
      vertex 17.6871 -3.85257 1
      vertex 13.5615 -1.74214 1
      vertex 17.1791 -4.22164 1
    endloop
  endfacet
  facet normal 0 0 1
    outer loop
      vertex 13.0078 3.14052 1
      vertex 14.814 4.99013 1
      vertex 14.186 4.99013 1
    endloop
  endfacet
  facet normal 0 0 1
    outer loop
      vertex 17.1791 -4.22164 1
      vertex 13.5615 -1.74214 1
      vertex 16.6289 -4.52413 1
    endloop
  endfacet
  facet normal 0 0 1
    outer loop
      vertex 16.6289 -4.52413 1
      vertex 13.5615 -1.74214 1
      vertex 16.0451 -4.75528 1
    endloop
  endfacet
  facet normal 0 0 1
    outer loop
      vertex 19.1489 1.84062 1
      vertex 13.7027 1.002 1
      vertex 13.75 0.25 1
    endloop
  endfacet
  facet normal 0 0 1
    outer loop
      vertex 13.0078 3.14052 1
      vertex 14.186 4.99013 1
      vertex 13.5631 4.91144 1
    endloop
  endfacet
  facet normal 0 0 1
    outer loop
      vertex 13.0078 3.14052 1
      vertex 13.5631 4.91144 1
      vertex 13.5626 4.91131 1
    endloop
  endfacet
  facet normal 0 0 1
    outer loop
      vertex 17.6871 3.85257 1
      vertex 13.5615 1.74214 1
      vertex 13.7027 1.002 1
    endloop
  endfacet
  facet normal 0 0 1
    outer loop
      vertex 12.6041 3.77671 1
      vertex 13.5626 4.91131 1
      vertex 13.5451 4.93893 1
    endloop
  endfacet
  facet normal 0 0 1
    outer loop
      vertex 16.0451 4.75528 1
      vertex 13.3287 2.45875 1
      vertex 13.5615 1.74214 1
    endloop
  endfacet
  facet normal 0 0 1
    outer loop
      vertex 12.1238 4.35728 1
      vertex 13.5451 4.93893 1
      vertex 13.1448 5.42274 1
    endloop
  endfacet
  facet normal 0 0 1
    outer loop
      vertex 14.814 4.99013 1
      vertex 13.0078 3.14052 1
      vertex 13.3287 2.45875 1
    endloop
  endfacet
  facet normal 0 0 1
    outer loop
      vertex 12.1238 4.35728 1
      vertex 13.1448 5.42274 1
      vertex 12.6871 5.85257 1
    endloop
  endfacet
  facet normal 0 0 1
    outer loop
      vertex 13.5626 4.91131 1
      vertex 12.6041 3.77671 1
      vertex 13.0078 3.14052 1
    endloop
  endfacet
  facet normal 0 0 1
    outer loop
      vertex 11.5745 4.87308 1
      vertex 12.6871 5.85257 1
      vertex 12.1791 6.22164 1
    endloop
  endfacet
  facet normal 0 0 1
    outer loop
      vertex 13.5451 4.93893 1
      vertex 12.1238 4.35728 1
      vertex 12.6041 3.77671 1
    endloop
  endfacet
  facet normal 0 0 1
    outer loop
      vertex 10.965 5.31597 1
      vertex 12.1791 6.22164 1
      vertex 11.6289 6.52413 1
    endloop
  endfacet
  facet normal 0 0 1
    outer loop
      vertex 12.6871 5.85257 1
      vertex 11.5745 4.87308 1
      vertex 12.1238 4.35728 1
    endloop
  endfacet
  facet normal 0 0 1
    outer loop
      vertex 10.965 5.31597 1
      vertex 11.6289 6.52413 1
      vertex 11.0451 6.75528 1
    endloop
  endfacet
  facet normal 0 0 1
    outer loop
      vertex 12.1791 6.22164 1
      vertex 10.965 5.31597 1
      vertex 11.5745 4.87308 1
    endloop
  endfacet
  facet normal 0 0 1
    outer loop
      vertex 10.3047 5.67896 1
      vertex 11.0451 6.75528 1
      vertex 10.4369 6.91144 1
    endloop
  endfacet
  facet normal 0 0 1
    outer loop
      vertex 11.0451 6.75528 1
      vertex 10.3047 5.67896 1
      vertex 10.965 5.31597 1
    endloop
  endfacet
  facet normal 0 0 1
    outer loop
      vertex 9.6041 5.95634 1
      vertex 10.4369 6.91144 1
      vertex 9.81395 6.99013 1
    endloop
  endfacet
  facet normal 0 0 1
    outer loop
      vertex 10.4369 6.91144 1
      vertex 9.6041 5.95634 1
      vertex 10.3047 5.67896 1
    endloop
  endfacet
  facet normal 0 0 1
    outer loop
      vertex 9.81395 6.99013 1
      vertex 8.87429 6.14372 1
      vertex 9.6041 5.95634 1
    endloop
  endfacet
  facet normal 0 0 1
    outer loop
      vertex 9.81395 6.99013 1
      vertex 8.12674 6.23816 1
      vertex 8.87429 6.14372 1
    endloop
  endfacet
  facet normal 0 0 1
    outer loop
      vertex 9.81395 6.99013 1
      vertex -8.12674 6.23816 1
      vertex 8.12674 6.23816 1
    endloop
  endfacet
  facet normal -0 0 1
    outer loop
      vertex -9.81395 6.99013 1
      vertex -8.12674 6.23816 1
      vertex 9.81395 6.99013 1
    endloop
  endfacet
  facet normal 0 0 1
    outer loop
      vertex -9.81395 6.99013 1
      vertex -8.87429 6.14372 1
      vertex -8.12674 6.23816 1
    endloop
  endfacet
  facet normal 0 0 1
    outer loop
      vertex -9.81395 6.99013 1
      vertex -9.6041 5.95634 1
      vertex -8.87429 6.14372 1
    endloop
  endfacet
  facet normal -0 0 1
    outer loop
      vertex -10.4369 6.91144 1
      vertex -9.6041 5.95634 1
      vertex -9.81395 6.99013 1
    endloop
  endfacet
  facet normal 0 0 1
    outer loop
      vertex -9.6041 5.95634 1
      vertex -10.4369 6.91144 1
      vertex -10.3047 5.67896 1
    endloop
  endfacet
  facet normal -0 0 1
    outer loop
      vertex -11.0451 6.75528 1
      vertex -10.3047 5.67896 1
      vertex -10.4369 6.91144 1
    endloop
  endfacet
  facet normal 0 0 1
    outer loop
      vertex -10.3047 5.67896 1
      vertex -11.0451 6.75528 1
      vertex -10.965 5.31597 1
    endloop
  endfacet
  facet normal -0 0 1
    outer loop
      vertex -11.6289 6.52413 1
      vertex -10.965 5.31597 1
      vertex -11.0451 6.75528 1
    endloop
  endfacet
  facet normal -0 0 1
    outer loop
      vertex -12.1791 6.22164 1
      vertex -10.965 5.31597 1
      vertex -11.6289 6.52413 1
    endloop
  endfacet
  facet normal 0 0 1
    outer loop
      vertex -10.965 5.31597 1
      vertex -12.1791 6.22164 1
      vertex -11.5745 4.87308 1
    endloop
  endfacet
  facet normal -0 0 1
    outer loop
      vertex -12.6871 5.85257 1
      vertex -11.5745 4.87308 1
      vertex -12.1791 6.22164 1
    endloop
  endfacet
  facet normal 0 0 1
    outer loop
      vertex -11.5745 4.87308 1
      vertex -12.6871 5.85257 1
      vertex -12.1238 4.35728 1
    endloop
  endfacet
  facet normal -0 0 1
    outer loop
      vertex -13.1448 5.42274 1
      vertex -12.1238 4.35728 1
      vertex -12.6871 5.85257 1
    endloop
  endfacet
  facet normal -0 0 1
    outer loop
      vertex -13.5451 4.93893 1
      vertex -12.1238 4.35728 1
      vertex -13.1448 5.42274 1
    endloop
  endfacet
  facet normal 0 0 1
    outer loop
      vertex -12.1238 4.35728 1
      vertex -13.5451 4.93893 1
      vertex -12.6041 3.77671 1
    endloop
  endfacet
  facet normal -0 0 1
    outer loop
      vertex -13.8815 4.40877 1
      vertex -12.6041 3.77671 1
      vertex -13.5451 4.93893 1
    endloop
  endfacet
  facet normal 0 0 1
    outer loop
      vertex -12.6041 3.77671 1
      vertex -13.8815 4.40877 1
      vertex -13.0078 3.14052 1
    endloop
  endfacet
  facet normal -0 0 1
    outer loop
      vertex -14.1489 3.84062 1
      vertex -13.0078 3.14052 1
      vertex -13.8815 4.40877 1
    endloop
  endfacet
  facet normal -0 0 1
    outer loop
      vertex -14.3429 3.24345 1
      vertex -13.0078 3.14052 1
      vertex -14.1489 3.84062 1
    endloop
  endfacet
  facet normal 0 0 1
    outer loop
      vertex -13.0078 3.14052 1
      vertex -14.3429 3.24345 1
      vertex -13.3287 2.45875 1
    endloop
  endfacet
  facet normal 0 0 1
    outer loop
      vertex -14.5 2 1
      vertex -13.3287 2.45875 1
      vertex -14.4606 2.62667 1
    endloop
  endfacet
  facet normal -0 0 1
    outer loop
      vertex -14.4606 2.62667 1
      vertex -13.3287 2.45875 1
      vertex -14.3429 3.24345 1
    endloop
  endfacet
  facet normal -0 0 1
    outer loop
      vertex 13.3287 -2.45875 1
      vertex 16.0451 -4.75528 1
      vertex 13.5615 -1.74214 1
    endloop
  endfacet
  facet normal 0 0 1
    outer loop
      vertex 16.0451 -4.75528 1
      vertex 13.3287 -2.45875 1
      vertex 15.4369 -4.91144 1
    endloop
  endfacet
  facet normal 0 0 1
    outer loop
      vertex 15.4369 -4.91144 1
      vertex 13.3287 -2.45875 1
      vertex 14.814 -4.99013 1
    endloop
  endfacet
  facet normal -0 0 1
    outer loop
      vertex 13.0078 -3.14052 1
      vertex 14.814 -4.99013 1
      vertex 13.3287 -2.45875 1
    endloop
  endfacet
  facet normal 0 0 1
    outer loop
      vertex 14.814 -4.99013 1
      vertex 13.0078 -3.14052 1
      vertex 14.186 -4.99013 1
    endloop
  endfacet
  facet normal 0 0 1
    outer loop
      vertex 14.186 -4.99013 1
      vertex 13.0078 -3.14052 1
      vertex 13.5631 -4.91144 1
    endloop
  endfacet
  facet normal 0 0 1
    outer loop
      vertex 13.5631 -4.91144 1
      vertex 13.0078 -3.14052 1
      vertex 13.5626 -4.91131 1
    endloop
  endfacet
  facet normal -0 0 1
    outer loop
      vertex 12.6041 -3.77671 1
      vertex 13.5626 -4.91131 1
      vertex 13.0078 -3.14052 1
    endloop
  endfacet
  facet normal 0 0 1
    outer loop
      vertex 13.5626 -4.91131 1
      vertex 12.6041 -3.77671 1
      vertex 13.5451 -4.93893 1
    endloop
  endfacet
  facet normal -0 0 1
    outer loop
      vertex 12.1238 -4.35728 1
      vertex 13.5451 -4.93893 1
      vertex 12.6041 -3.77671 1
    endloop
  endfacet
  facet normal 0 0 1
    outer loop
      vertex 13.5451 -4.93893 1
      vertex 12.1238 -4.35728 1
      vertex 13.1448 -5.42274 1
    endloop
  endfacet
  facet normal 0 0 1
    outer loop
      vertex 13.1448 -5.42274 1
      vertex 12.1238 -4.35728 1
      vertex 12.6871 -5.85257 1
    endloop
  endfacet
  facet normal -0 0 1
    outer loop
      vertex 11.5745 -4.87308 1
      vertex 12.6871 -5.85257 1
      vertex 12.1238 -4.35728 1
    endloop
  endfacet
  facet normal 0 0 1
    outer loop
      vertex 12.6871 -5.85257 1
      vertex 11.5745 -4.87308 1
      vertex 12.1791 -6.22164 1
    endloop
  endfacet
  facet normal -0 0 1
    outer loop
      vertex 10.965 -5.31597 1
      vertex 12.1791 -6.22164 1
      vertex 11.5745 -4.87308 1
    endloop
  endfacet
  facet normal 0 0 1
    outer loop
      vertex 12.1791 -6.22164 1
      vertex 10.965 -5.31597 1
      vertex 11.6289 -6.52413 1
    endloop
  endfacet
  facet normal 0 0 1
    outer loop
      vertex 11.6289 -6.52413 1
      vertex 10.965 -5.31597 1
      vertex 11.0451 -6.75528 1
    endloop
  endfacet
  facet normal -0 0 1
    outer loop
      vertex 10.3047 -5.67896 1
      vertex 11.0451 -6.75528 1
      vertex 10.965 -5.31597 1
    endloop
  endfacet
  facet normal 0 0 1
    outer loop
      vertex 11.0451 -6.75528 1
      vertex 10.3047 -5.67896 1
      vertex 10.4369 -6.91144 1
    endloop
  endfacet
  facet normal -0 0 1
    outer loop
      vertex 9.6041 -5.95634 1
      vertex 10.4369 -6.91144 1
      vertex 10.3047 -5.67896 1
    endloop
  endfacet
  facet normal 0 0 1
    outer loop
      vertex 10.4369 -6.91144 1
      vertex 9.6041 -5.95634 1
      vertex 9.81395 -6.99013 1
    endloop
  endfacet
  facet normal -0 0 1
    outer loop
      vertex 8.87429 -6.14372 1
      vertex 9.81395 -6.99013 1
      vertex 9.6041 -5.95634 1
    endloop
  endfacet
  facet normal -0 0 1
    outer loop
      vertex 8.12674 -6.23816 1
      vertex 9.81395 -6.99013 1
      vertex 8.87429 -6.14372 1
    endloop
  endfacet
  facet normal -0 0 1
    outer loop
      vertex -8.12674 -6.23816 1
      vertex 9.81395 -6.99013 1
      vertex 8.12674 -6.23816 1
    endloop
  endfacet
  facet normal 0 0 1
    outer loop
      vertex -8.12674 -6.23816 1
      vertex -9.81395 -6.99013 1
      vertex 9.81395 -6.99013 1
    endloop
  endfacet
  facet normal 0 0 1
    outer loop
      vertex -8.87429 -6.14372 1
      vertex -9.81395 -6.99013 1
      vertex -8.12674 -6.23816 1
    endloop
  endfacet
  facet normal 0 0 1
    outer loop
      vertex -9.6041 -5.95634 1
      vertex -9.81395 -6.99013 1
      vertex -8.87429 -6.14372 1
    endloop
  endfacet
  facet normal 0 0 1
    outer loop
      vertex -10.4369 -6.91144 1
      vertex -9.6041 -5.95634 1
      vertex -10.3047 -5.67896 1
    endloop
  endfacet
  facet normal 0 0 1
    outer loop
      vertex -9.6041 -5.95634 1
      vertex -10.4369 -6.91144 1
      vertex -9.81395 -6.99013 1
    endloop
  endfacet
  facet normal 0 0 1
    outer loop
      vertex -11.0451 -6.75528 1
      vertex -10.3047 -5.67896 1
      vertex -10.965 -5.31597 1
    endloop
  endfacet
  facet normal 0 0 1
    outer loop
      vertex -10.3047 -5.67896 1
      vertex -11.0451 -6.75528 1
      vertex -10.4369 -6.91144 1
    endloop
  endfacet
  facet normal 0 0 1
    outer loop
      vertex -12.1791 -6.22164 1
      vertex -10.965 -5.31597 1
      vertex -11.5745 -4.87308 1
    endloop
  endfacet
  facet normal 0 0 1
    outer loop
      vertex -10.965 -5.31597 1
      vertex -11.6289 -6.52413 1
      vertex -11.0451 -6.75528 1
    endloop
  endfacet
  facet normal 0 0 1
    outer loop
      vertex -12.6871 -5.85257 1
      vertex -11.5745 -4.87308 1
      vertex -12.1238 -4.35728 1
    endloop
  endfacet
  facet normal 0 0 1
    outer loop
      vertex -10.965 -5.31597 1
      vertex -12.1791 -6.22164 1
      vertex -11.6289 -6.52413 1
    endloop
  endfacet
  facet normal 0 0 1
    outer loop
      vertex -13.5451 -4.93893 1
      vertex -12.1238 -4.35728 1
      vertex -12.6041 -3.77671 1
    endloop
  endfacet
  facet normal 0 0 1
    outer loop
      vertex -11.5745 -4.87308 1
      vertex -12.6871 -5.85257 1
      vertex -12.1791 -6.22164 1
    endloop
  endfacet
  facet normal 0 0 1
    outer loop
      vertex -13.8815 -4.40877 1
      vertex -12.6041 -3.77671 1
      vertex -13.0078 -3.14052 1
    endloop
  endfacet
  facet normal 0 0 1
    outer loop
      vertex -12.1238 -4.35728 1
      vertex -13.1448 -5.42274 1
      vertex -12.6871 -5.85257 1
    endloop
  endfacet
  facet normal 0 0 1
    outer loop
      vertex -14.3429 -3.24345 1
      vertex -13.0078 -3.14052 1
      vertex -13.3287 -2.45875 1
    endloop
  endfacet
  facet normal 0 0 1
    outer loop
      vertex -12.1238 -4.35728 1
      vertex -13.5451 -4.93893 1
      vertex -13.1448 -5.42274 1
    endloop
  endfacet
  facet normal -0 0 1
    outer loop
      vertex -14.5 -2 1
      vertex -13.3287 -2.45875 1
      vertex -13.5615 -1.74214 1
    endloop
  endfacet
  facet normal 0 0 1
    outer loop
      vertex -14.5 -2 1
      vertex -13.5615 -1.74214 1
      vertex -13.7027 -1.002 1
    endloop
  endfacet
  facet normal 0 0 1
    outer loop
      vertex -14.5 -2 1
      vertex -13.7027 -1.002 1
      vertex -13.75 -0.25 1
    endloop
  endfacet
  facet normal 0 0 1
    outer loop
      vertex -12.6041 -3.77671 1
      vertex -13.8815 -4.40877 1
      vertex -13.5451 -4.93893 1
    endloop
  endfacet
  facet normal 0 0 1
    outer loop
      vertex -13.3287 2.45875 1
      vertex -14.5 2 1
      vertex -13.5615 1.74214 1
    endloop
  endfacet
  facet normal 0 0 1
    outer loop
      vertex -13.5615 1.74214 1
      vertex -14.5 2 1
      vertex -13.7027 1.002 1
    endloop
  endfacet
  facet normal 0 0 1
    outer loop
      vertex -14.5 -2 1
      vertex -13.75 -0.25 1
      vertex -14.5 2 1
    endloop
  endfacet
  facet normal 0 0 1
    outer loop
      vertex -13.7027 1.002 1
      vertex -14.5 2 1
      vertex -13.75 0.25 1
    endloop
  endfacet
  facet normal 0 0 1
    outer loop
      vertex -13.3287 -2.45875 1
      vertex -14.5 -2 1
      vertex -14.4606 -2.62667 1
    endloop
  endfacet
  facet normal 0 0 1
    outer loop
      vertex -13.75 0.25 1
      vertex -14.5 2 1
      vertex -13.75 -0.25 1
    endloop
  endfacet
  facet normal 0 0 1
    outer loop
      vertex -13.0078 -3.14052 1
      vertex -14.1489 -3.84062 1
      vertex -13.8815 -4.40877 1
    endloop
  endfacet
  facet normal 0 0 1
    outer loop
      vertex -13.0078 -3.14052 1
      vertex -14.3429 -3.24345 1
      vertex -14.1489 -3.84062 1
    endloop
  endfacet
  facet normal 0 0 1
    outer loop
      vertex -13.3287 -2.45875 1
      vertex -14.4606 -2.62667 1
      vertex -14.3429 -3.24345 1
    endloop
  endfacet
  facet normal 0 1 -0
    outer loop
      vertex 9.81395 6.99013 0
      vertex -9.81395 6.99013 1
      vertex 9.81395 6.99013 1
    endloop
  endfacet
  facet normal 0 1 0
    outer loop
      vertex -9.81395 6.99013 1
      vertex 9.81395 6.99013 0
      vertex -9.81395 6.99013 0
    endloop
  endfacet
  facet normal -0.125322 -0.992116 0
    outer loop
      vertex -10.4369 -6.91144 0
      vertex -9.81395 -6.99013 1
      vertex -10.4369 -6.91144 1
    endloop
  endfacet
  facet normal -0.125322 -0.992116 -0
    outer loop
      vertex -9.81395 -6.99013 1
      vertex -10.4369 -6.91144 0
      vertex -9.81395 -6.99013 0
    endloop
  endfacet
  facet normal 0.125322 0.992116 -0
    outer loop
      vertex 10.4369 6.91144 0
      vertex 9.81395 6.99013 1
      vertex 10.4369 6.91144 1
    endloop
  endfacet
  facet normal 0.125322 0.992116 0
    outer loop
      vertex 9.81395 6.99013 1
      vertex 10.4369 6.91144 0
      vertex 9.81395 6.99013 0
    endloop
  endfacet
  facet normal -0.481772 0.876297 0
    outer loop
      vertex -11.6289 6.52413 0
      vertex -12.1791 6.22164 1
      vertex -11.6289 6.52413 1
    endloop
  endfacet
  facet normal -0.481772 0.876297 0
    outer loop
      vertex -12.1791 6.22164 1
      vertex -11.6289 6.52413 0
      vertex -12.1791 6.22164 0
    endloop
  endfacet
  facet normal -0.770468 0.637478 0
    outer loop
      vertex -13.5451 4.93893 0
      vertex -13.1448 5.42274 1
      vertex -13.1448 5.42274 0
    endloop
  endfacet
  facet normal -0.770468 0.637478 0
    outer loop
      vertex -13.1448 5.42274 1
      vertex -13.5451 4.93893 0
      vertex -13.5451 4.93893 1
    endloop
  endfacet
  facet normal -0.481772 -0.876297 0
    outer loop
      vertex -12.1791 -6.22164 0
      vertex -11.6289 -6.52413 1
      vertex -12.1791 -6.22164 1
    endloop
  endfacet
  facet normal -0.481772 -0.876297 -0
    outer loop
      vertex -11.6289 -6.52413 1
      vertex -12.1791 -6.22164 0
      vertex -11.6289 -6.52413 0
    endloop
  endfacet
  facet normal -0.248691 -0.968583 0
    outer loop
      vertex -11.0451 -6.75528 0
      vertex -10.4369 -6.91144 1
      vertex -11.0451 -6.75528 1
    endloop
  endfacet
  facet normal -0.248691 -0.968583 -0
    outer loop
      vertex -10.4369 -6.91144 1
      vertex -11.0451 -6.75528 0
      vertex -10.4369 -6.91144 0
    endloop
  endfacet
  facet normal 0 -1 0
    outer loop
      vertex -9.81395 -6.99013 0
      vertex 9.81395 -6.99013 1
      vertex -9.81395 -6.99013 1
    endloop
  endfacet
  facet normal 0 -1 -0
    outer loop
      vertex 9.81395 -6.99013 1
      vertex -9.81395 -6.99013 0
      vertex 9.81395 -6.99013 0
    endloop
  endfacet
  facet normal 0.587771 -0.809027 0
    outer loop
      vertex 12.1791 -6.22164 0
      vertex 12.6871 -5.85257 1
      vertex 12.1791 -6.22164 1
    endloop
  endfacet
  facet normal 0.587771 -0.809027 0
    outer loop
      vertex 12.6871 -5.85257 1
      vertex 12.1791 -6.22164 0
      vertex 12.6871 -5.85257 0
    endloop
  endfacet
  facet normal 0.481772 0.876297 -0
    outer loop
      vertex 12.1791 6.22164 0
      vertex 11.6289 6.52413 1
      vertex 12.1791 6.22164 1
    endloop
  endfacet
  facet normal 0.481772 0.876297 0
    outer loop
      vertex 11.6289 6.52413 1
      vertex 12.1791 6.22164 0
      vertex 11.6289 6.52413 0
    endloop
  endfacet
  facet normal 0.248691 0.968583 -0
    outer loop
      vertex 11.0451 6.75528 0
      vertex 10.4369 6.91144 1
      vertex 11.0451 6.75528 1
    endloop
  endfacet
  facet normal 0.248691 0.968583 0
    outer loop
      vertex 10.4369 6.91144 1
      vertex 11.0451 6.75528 0
      vertex 10.4369 6.91144 0
    endloop
  endfacet
  facet normal -0.125322 0.992116 0
    outer loop
      vertex -9.81395 6.99013 0
      vertex -10.4369 6.91144 1
      vertex -9.81395 6.99013 1
    endloop
  endfacet
  facet normal -0.125322 0.992116 0
    outer loop
      vertex -10.4369 6.91144 1
      vertex -9.81395 6.99013 0
      vertex -10.4369 6.91144 0
    endloop
  endfacet
  facet normal -0.904797 0.425843 0
    outer loop
      vertex -14.1489 3.84062 0
      vertex -13.8815 4.40877 1
      vertex -13.8815 4.40877 0
    endloop
  endfacet
  facet normal -0.904797 0.425843 0
    outer loop
      vertex -13.8815 4.40877 1
      vertex -14.1489 3.84062 0
      vertex -14.1489 3.84062 1
    endloop
  endfacet
  facet normal 0 0 -1
    outer loop
      vertex 19.4606 -0.626666 0
      vertex 19.4606 0.626666 0
      vertex 19.5 0 0
    endloop
  endfacet
  facet normal 0 0 -1
    outer loop
      vertex 19.3429 -1.24345 0
      vertex 19.4606 0.626666 0
      vertex 19.4606 -0.626666 0
    endloop
  endfacet
  facet normal 0 0 -1
    outer loop
      vertex 19.3429 -1.24345 0
      vertex 19.3429 1.24345 0
      vertex 19.4606 0.626666 0
    endloop
  endfacet
  facet normal 0 0 -1
    outer loop
      vertex 19.1489 -1.84062 0
      vertex 19.3429 1.24345 0
      vertex 19.3429 -1.24345 0
    endloop
  endfacet
  facet normal 0 0 -1
    outer loop
      vertex 19.1489 -1.84062 0
      vertex 19.1489 1.84062 0
      vertex 19.3429 1.24345 0
    endloop
  endfacet
  facet normal 0 0 -1
    outer loop
      vertex 18.8815 -2.40877 0
      vertex 19.1489 1.84062 0
      vertex 19.1489 -1.84062 0
    endloop
  endfacet
  facet normal 0 0 -1
    outer loop
      vertex 18.8815 -2.40877 0
      vertex 18.8815 2.40877 0
      vertex 19.1489 1.84062 0
    endloop
  endfacet
  facet normal 0 0 -1
    outer loop
      vertex 18.5451 -2.93893 0
      vertex 18.8815 2.40877 0
      vertex 18.8815 -2.40877 0
    endloop
  endfacet
  facet normal 0 0 -1
    outer loop
      vertex 18.5451 -2.93893 0
      vertex 18.5451 2.93893 0
      vertex 18.8815 2.40877 0
    endloop
  endfacet
  facet normal 0 0 -1
    outer loop
      vertex 18.1448 -3.42274 0
      vertex 18.5451 2.93893 0
      vertex 18.5451 -2.93893 0
    endloop
  endfacet
  facet normal 0 0 -1
    outer loop
      vertex 18.1448 -3.42274 0
      vertex 18.1448 3.42274 0
      vertex 18.5451 2.93893 0
    endloop
  endfacet
  facet normal 0 0 -1
    outer loop
      vertex 17.6871 -3.85257 0
      vertex 18.1448 3.42274 0
      vertex 18.1448 -3.42274 0
    endloop
  endfacet
  facet normal 0 0 -1
    outer loop
      vertex 17.6871 -3.85257 0
      vertex 17.6871 3.85257 0
      vertex 18.1448 3.42274 0
    endloop
  endfacet
  facet normal 0 0 -1
    outer loop
      vertex 17.1791 -4.22164 0
      vertex 17.6871 3.85257 0
      vertex 17.6871 -3.85257 0
    endloop
  endfacet
  facet normal 0 0 -1
    outer loop
      vertex 17.1791 -4.22164 0
      vertex 17.1791 4.22164 0
      vertex 17.6871 3.85257 0
    endloop
  endfacet
  facet normal 0 0 -1
    outer loop
      vertex 16.6289 -4.52413 0
      vertex 17.1791 4.22164 0
      vertex 17.1791 -4.22164 0
    endloop
  endfacet
  facet normal 0 0 -1
    outer loop
      vertex 16.6289 -4.52413 0
      vertex 16.6289 4.52413 0
      vertex 17.1791 4.22164 0
    endloop
  endfacet
  facet normal 0 0 -1
    outer loop
      vertex 16.0451 -4.75528 0
      vertex 16.6289 4.52413 0
      vertex 16.6289 -4.52413 0
    endloop
  endfacet
  facet normal 0 0 -1
    outer loop
      vertex 16.0451 -4.75528 0
      vertex 16.0451 4.75528 0
      vertex 16.6289 4.52413 0
    endloop
  endfacet
  facet normal 0 0 -1
    outer loop
      vertex 15.4369 -4.91144 0
      vertex 16.0451 4.75528 0
      vertex 16.0451 -4.75528 0
    endloop
  endfacet
  facet normal 0 0 -1
    outer loop
      vertex 15.4369 -4.91144 0
      vertex 15.4369 4.91144 0
      vertex 16.0451 4.75528 0
    endloop
  endfacet
  facet normal 0 0 -1
    outer loop
      vertex 14.814 -4.99013 0
      vertex 15.4369 4.91144 0
      vertex 15.4369 -4.91144 0
    endloop
  endfacet
  facet normal 0 0 -1
    outer loop
      vertex 14.814 -4.99013 0
      vertex 14.814 4.99013 0
      vertex 15.4369 4.91144 0
    endloop
  endfacet
  facet normal 0 0 -1
    outer loop
      vertex 14.186 -4.99013 0
      vertex 14.814 4.99013 0
      vertex 14.814 -4.99013 0
    endloop
  endfacet
  facet normal 0 0 -1
    outer loop
      vertex 14.186 -4.99013 0
      vertex 14.186 4.99013 0
      vertex 14.814 4.99013 0
    endloop
  endfacet
  facet normal 0 0 -1
    outer loop
      vertex 13.5626 -4.91131 0
      vertex 14.186 -4.99013 0
      vertex 13.5631 -4.91144 0
    endloop
  endfacet
  facet normal 0 0 -1
    outer loop
      vertex 14.186 -4.99013 0
      vertex 13.5626 -4.91131 0
      vertex 14.186 4.99013 0
    endloop
  endfacet
  facet normal 0 0 -1
    outer loop
      vertex 13.5626 4.91131 0
      vertex 14.186 4.99013 0
      vertex 13.5626 -4.91131 0
    endloop
  endfacet
  facet normal 0 0 -1
    outer loop
      vertex 14.186 4.99013 0
      vertex 13.5626 4.91131 0
      vertex 13.5631 4.91144 0
    endloop
  endfacet
  facet normal 0 0 -1
    outer loop
      vertex 13.1448 -5.42274 0
      vertex 13.5626 -4.91131 0
      vertex 13.5451 -4.93893 0
    endloop
  endfacet
  facet normal -0 0 -1
    outer loop
      vertex 13.5626 -4.91131 0
      vertex 9.81395 -6.99013 0
      vertex 13.5626 4.91131 0
    endloop
  endfacet
  facet normal 0 0 -1
    outer loop
      vertex 13.5626 -4.91131 0
      vertex 13.1448 -5.42274 0
      vertex 9.81395 -6.99013 0
    endloop
  endfacet
  facet normal 0 0 -1
    outer loop
      vertex 9.81395 6.99013 0
      vertex 13.5626 4.91131 0
      vertex 9.81395 -6.99013 0
    endloop
  endfacet
  facet normal 0 0 -1
    outer loop
      vertex 9.81395 -6.99013 0
      vertex 13.1448 -5.42274 0
      vertex 12.6871 -5.85257 0
    endloop
  endfacet
  facet normal -0 -0 -1
    outer loop
      vertex 13.1448 5.42274 0
      vertex 13.5626 4.91131 0
      vertex 9.81395 6.99013 0
    endloop
  endfacet
  facet normal 0 0 -1
    outer loop
      vertex 9.81395 -6.99013 0
      vertex 12.6871 -5.85257 0
      vertex 12.1791 -6.22164 0
    endloop
  endfacet
  facet normal 0 0 -1
    outer loop
      vertex 13.5626 4.91131 0
      vertex 13.1448 5.42274 0
      vertex 13.5451 4.93893 0
    endloop
  endfacet
  facet normal 0 0 -1
    outer loop
      vertex 9.81395 -6.99013 0
      vertex 12.1791 -6.22164 0
      vertex 11.6289 -6.52413 0
    endloop
  endfacet
  facet normal 0 0 -1
    outer loop
      vertex 13.1448 5.42274 0
      vertex 9.81395 6.99013 0
      vertex 12.6871 5.85257 0
    endloop
  endfacet
  facet normal 0 0 -1
    outer loop
      vertex 9.81395 -6.99013 0
      vertex 11.6289 -6.52413 0
      vertex 11.0451 -6.75528 0
    endloop
  endfacet
  facet normal 0 0 -1
    outer loop
      vertex 12.6871 5.85257 0
      vertex 9.81395 6.99013 0
      vertex 12.1791 6.22164 0
    endloop
  endfacet
  facet normal 0 0 -1
    outer loop
      vertex 9.81395 -6.99013 0
      vertex 11.0451 -6.75528 0
      vertex 10.4369 -6.91144 0
    endloop
  endfacet
  facet normal 0 0 -1
    outer loop
      vertex 12.1791 6.22164 0
      vertex 9.81395 6.99013 0
      vertex 11.6289 6.52413 0
    endloop
  endfacet
  facet normal 0 0 -1
    outer loop
      vertex 11.6289 6.52413 0
      vertex 9.81395 6.99013 0
      vertex 11.0451 6.75528 0
    endloop
  endfacet
  facet normal 0 0 -1
    outer loop
      vertex 11.0451 6.75528 0
      vertex 9.81395 6.99013 0
      vertex 10.4369 6.91144 0
    endloop
  endfacet
  facet normal 0 0 -1
    outer loop
      vertex -9.81395 -6.99013 0
      vertex 9.81395 6.99013 0
      vertex 9.81395 -6.99013 0
    endloop
  endfacet
  facet normal 0 0 -1
    outer loop
      vertex -9.81395 -6.99013 0
      vertex -9.81395 6.99013 0
      vertex 9.81395 6.99013 0
    endloop
  endfacet
  facet normal 0 0 -1
    outer loop
      vertex -14.5 -2 0
      vertex -9.81395 -6.99013 0
      vertex -10.4369 -6.91144 0
    endloop
  endfacet
  facet normal 0 0 -1
    outer loop
      vertex -9.81395 -6.99013 0
      vertex -14.5 -2 0
      vertex -9.81395 6.99013 0
    endloop
  endfacet
  facet normal 0 0 -1
    outer loop
      vertex -14.5 -2 0
      vertex -10.4369 -6.91144 0
      vertex -11.0451 -6.75528 0
    endloop
  endfacet
  facet normal 0 0 -1
    outer loop
      vertex -14.5 2 0
      vertex -9.81395 6.99013 0
      vertex -14.5 -2 0
    endloop
  endfacet
  facet normal 0 0 -1
    outer loop
      vertex -14.5 -2 0
      vertex -11.0451 -6.75528 0
      vertex -11.6289 -6.52413 0
    endloop
  endfacet
  facet normal 0 0 -1
    outer loop
      vertex -9.81395 6.99013 0
      vertex -14.5 2 0
      vertex -10.4369 6.91144 0
    endloop
  endfacet
  facet normal 0 0 -1
    outer loop
      vertex -14.5 -2 0
      vertex -11.6289 -6.52413 0
      vertex -12.1791 -6.22164 0
    endloop
  endfacet
  facet normal 0 0 -1
    outer loop
      vertex -10.4369 6.91144 0
      vertex -14.5 2 0
      vertex -11.0451 6.75528 0
    endloop
  endfacet
  facet normal 0 0 -1
    outer loop
      vertex -14.5 -2 0
      vertex -12.1791 -6.22164 0
      vertex -12.6871 -5.85257 0
    endloop
  endfacet
  facet normal 0 0 -1
    outer loop
      vertex -11.0451 6.75528 0
      vertex -14.5 2 0
      vertex -11.6289 6.52413 0
    endloop
  endfacet
  facet normal 0 0 -1
    outer loop
      vertex -14.5 -2 0
      vertex -12.6871 -5.85257 0
      vertex -13.1448 -5.42274 0
    endloop
  endfacet
  facet normal 0 0 -1
    outer loop
      vertex -11.6289 6.52413 0
      vertex -14.5 2 0
      vertex -12.1791 6.22164 0
    endloop
  endfacet
  facet normal 0 0 -1
    outer loop
      vertex -14.5 -2 0
      vertex -13.1448 -5.42274 0
      vertex -13.5451 -4.93893 0
    endloop
  endfacet
  facet normal 0 0 -1
    outer loop
      vertex -12.1791 6.22164 0
      vertex -14.5 2 0
      vertex -12.6871 5.85257 0
    endloop
  endfacet
  facet normal 0 0 -1
    outer loop
      vertex -14.5 -2 0
      vertex -13.5451 -4.93893 0
      vertex -13.8815 -4.40877 0
    endloop
  endfacet
  facet normal 0 0 -1
    outer loop
      vertex -12.6871 5.85257 0
      vertex -14.5 2 0
      vertex -13.1448 5.42274 0
    endloop
  endfacet
  facet normal 0 0 -1
    outer loop
      vertex -14.5 -2 0
      vertex -13.8815 -4.40877 0
      vertex -14.1489 -3.84062 0
    endloop
  endfacet
  facet normal 0 0 -1
    outer loop
      vertex -13.1448 5.42274 0
      vertex -14.5 2 0
      vertex -13.5451 4.93893 0
    endloop
  endfacet
  facet normal 0 0 -1
    outer loop
      vertex -14.5 -2 0
      vertex -14.1489 -3.84062 0
      vertex -14.3429 -3.24345 0
    endloop
  endfacet
  facet normal 0 0 -1
    outer loop
      vertex -13.5451 4.93893 0
      vertex -14.5 2 0
      vertex -13.8815 4.40877 0
    endloop
  endfacet
  facet normal 0 0 -1
    outer loop
      vertex -14.5 -2 0
      vertex -14.3429 -3.24345 0
      vertex -14.4606 -2.62667 0
    endloop
  endfacet
  facet normal 0 0 -1
    outer loop
      vertex -13.8815 4.40877 0
      vertex -14.5 2 0
      vertex -14.1489 3.84062 0
    endloop
  endfacet
  facet normal 0 0 -1
    outer loop
      vertex -14.1489 3.84062 0
      vertex -14.5 2 0
      vertex -14.3429 3.24345 0
    endloop
  endfacet
  facet normal 0 0 -1
    outer loop
      vertex -14.3429 3.24345 0
      vertex -14.5 2 0
      vertex -14.4606 2.62667 0
    endloop
  endfacet
  facet normal -0.951072 -0.30897 0
    outer loop
      vertex -14.1489 -3.84062 0
      vertex -14.3429 -3.24345 1
      vertex -14.3429 -3.24345 0
    endloop
  endfacet
  facet normal -0.951072 -0.30897 0
    outer loop
      vertex -14.3429 -3.24345 1
      vertex -14.1489 -3.84062 0
      vertex -14.1489 -3.84062 1
    endloop
  endfacet
  facet normal -0.904797 -0.425843 0
    outer loop
      vertex -13.8815 -4.40877 0
      vertex -14.1489 -3.84062 1
      vertex -14.1489 -3.84062 0
    endloop
  endfacet
  facet normal -0.904797 -0.425843 0
    outer loop
      vertex -14.1489 -3.84062 1
      vertex -13.8815 -4.40877 0
      vertex -13.8815 -4.40877 1
    endloop
  endfacet
  facet normal -0.770468 -0.637478 0
    outer loop
      vertex -13.1448 -5.42274 0
      vertex -13.5451 -4.93893 1
      vertex -13.5451 -4.93893 0
    endloop
  endfacet
  facet normal -0.770468 -0.637478 0
    outer loop
      vertex -13.5451 -4.93893 1
      vertex -13.1448 -5.42274 0
      vertex -13.1448 -5.42274 1
    endloop
  endfacet
  facet normal -0.844364 -0.53577 0
    outer loop
      vertex -13.5451 -4.93893 0
      vertex -13.8815 -4.40877 1
      vertex -13.8815 -4.40877 0
    endloop
  endfacet
  facet normal -0.844364 -0.53577 0
    outer loop
      vertex -13.8815 -4.40877 1
      vertex -13.5451 -4.93893 0
      vertex -13.5451 -4.93893 1
    endloop
  endfacet
  facet normal -0.368135 -0.929773 0
    outer loop
      vertex -11.6289 -6.52413 0
      vertex -11.0451 -6.75528 1
      vertex -11.6289 -6.52413 1
    endloop
  endfacet
  facet normal -0.368135 -0.929773 -0
    outer loop
      vertex -11.0451 -6.75528 1
      vertex -11.6289 -6.52413 0
      vertex -11.0451 -6.75528 0
    endloop
  endfacet
  facet normal 0.125322 -0.992116 0
    outer loop
      vertex 9.81395 -6.99013 0
      vertex 10.4369 -6.91144 1
      vertex 9.81395 -6.99013 1
    endloop
  endfacet
  facet normal 0.125322 -0.992116 0
    outer loop
      vertex 10.4369 -6.91144 1
      vertex 9.81395 -6.99013 0
      vertex 10.4369 -6.91144 0
    endloop
  endfacet
  facet normal 0.770468 -0.637478 0
    outer loop
      vertex 13.1448 -5.42274 1
      vertex 13.5451 -4.93893 0
      vertex 13.5451 -4.93893 1
    endloop
  endfacet
  facet normal 0.770468 -0.637478 0
    outer loop
      vertex 13.5451 -4.93893 0
      vertex 13.1448 -5.42274 1
      vertex 13.1448 -5.42274 0
    endloop
  endfacet
  facet normal 0.684565 -0.728952 0
    outer loop
      vertex 12.6871 -5.85257 0
      vertex 13.1448 -5.42274 1
      vertex 12.6871 -5.85257 1
    endloop
  endfacet
  facet normal 0.684565 -0.728952 0
    outer loop
      vertex 13.1448 -5.42274 1
      vertex 12.6871 -5.85257 0
      vertex 13.1448 -5.42274 0
    endloop
  endfacet
  facet normal 0.844718 -0.535212 0
    outer loop
      vertex 13.5451 -4.93893 1
      vertex 13.5626 -4.91131 0
      vertex 13.5626 -4.91131 1
    endloop
  endfacet
  facet normal 0.844718 -0.535212 0
    outer loop
      vertex 13.5626 -4.91131 0
      vertex 13.5451 -4.93893 1
      vertex 13.5451 -4.93893 0
    endloop
  endfacet
  facet normal 0.368135 -0.929773 0
    outer loop
      vertex 11.0451 -6.75528 0
      vertex 11.6289 -6.52413 1
      vertex 11.0451 -6.75528 1
    endloop
  endfacet
  facet normal 0.368135 -0.929773 0
    outer loop
      vertex 11.6289 -6.52413 1
      vertex 11.0451 -6.75528 0
      vertex 11.6289 -6.52413 0
    endloop
  endfacet
  facet normal 0.481772 -0.876297 0
    outer loop
      vertex 11.6289 -6.52413 0
      vertex 12.1791 -6.22164 1
      vertex 11.6289 -6.52413 1
    endloop
  endfacet
  facet normal 0.481772 -0.876297 0
    outer loop
      vertex 12.1791 -6.22164 1
      vertex 11.6289 -6.52413 0
      vertex 12.1791 -6.22164 0
    endloop
  endfacet
  facet normal 0.248691 -0.968583 0
    outer loop
      vertex 10.4369 -6.91144 0
      vertex 11.0451 -6.75528 1
      vertex 10.4369 -6.91144 1
    endloop
  endfacet
  facet normal 0.248691 -0.968583 0
    outer loop
      vertex 11.0451 -6.75528 1
      vertex 10.4369 -6.91144 0
      vertex 11.0451 -6.75528 0
    endloop
  endfacet
  facet normal 0.684565 0.728952 -0
    outer loop
      vertex 13.1448 5.42274 0
      vertex 12.6871 5.85257 1
      vertex 13.1448 5.42274 1
    endloop
  endfacet
  facet normal 0.684565 0.728952 0
    outer loop
      vertex 12.6871 5.85257 1
      vertex 13.1448 5.42274 0
      vertex 12.6871 5.85257 0
    endloop
  endfacet
  facet normal 0.368135 0.929773 -0
    outer loop
      vertex 11.6289 6.52413 0
      vertex 11.0451 6.75528 1
      vertex 11.6289 6.52413 1
    endloop
  endfacet
  facet normal 0.368135 0.929773 0
    outer loop
      vertex 11.0451 6.75528 1
      vertex 11.6289 6.52413 0
      vertex 11.0451 6.75528 0
    endloop
  endfacet
  facet normal 0.844718 0.535212 0
    outer loop
      vertex 13.5626 4.91131 1
      vertex 13.5451 4.93893 0
      vertex 13.5451 4.93893 1
    endloop
  endfacet
  facet normal 0.844718 0.535212 0
    outer loop
      vertex 13.5451 4.93893 0
      vertex 13.5626 4.91131 1
      vertex 13.5626 4.91131 0
    endloop
  endfacet
  facet normal -0.684565 0.728952 0
    outer loop
      vertex -12.6871 5.85257 0
      vertex -13.1448 5.42274 1
      vertex -12.6871 5.85257 1
    endloop
  endfacet
  facet normal -0.684565 0.728952 0
    outer loop
      vertex -13.1448 5.42274 1
      vertex -12.6871 5.85257 0
      vertex -13.1448 5.42274 0
    endloop
  endfacet
  facet normal -0.587771 0.809027 0
    outer loop
      vertex -12.1791 6.22164 0
      vertex -12.6871 5.85257 1
      vertex -12.1791 6.22164 1
    endloop
  endfacet
  facet normal -0.587771 0.809027 0
    outer loop
      vertex -12.6871 5.85257 1
      vertex -12.1791 6.22164 0
      vertex -12.6871 5.85257 0
    endloop
  endfacet
  facet normal -0.368135 0.929773 0
    outer loop
      vertex -11.0451 6.75528 0
      vertex -11.6289 6.52413 1
      vertex -11.0451 6.75528 1
    endloop
  endfacet
  facet normal -0.368135 0.929773 0
    outer loop
      vertex -11.6289 6.52413 1
      vertex -11.0451 6.75528 0
      vertex -11.6289 6.52413 0
    endloop
  endfacet
  facet normal -0.248691 0.968583 0
    outer loop
      vertex -10.4369 6.91144 0
      vertex -11.0451 6.75528 1
      vertex -10.4369 6.91144 1
    endloop
  endfacet
  facet normal -0.248691 0.968583 0
    outer loop
      vertex -11.0451 6.75528 1
      vertex -10.4369 6.91144 0
      vertex -11.0451 6.75528 0
    endloop
  endfacet
  facet normal -0.844364 0.53577 0
    outer loop
      vertex -13.8815 4.40877 0
      vertex -13.5451 4.93893 1
      vertex -13.5451 4.93893 0
    endloop
  endfacet
  facet normal -0.844364 0.53577 0
    outer loop
      vertex -13.5451 4.93893 1
      vertex -13.8815 4.40877 0
      vertex -13.8815 4.40877 1
    endloop
  endfacet
  facet normal -0.982275 0.187447 0
    outer loop
      vertex -14.4606 2.62667 0
      vertex -14.3429 3.24345 1
      vertex -14.3429 3.24345 0
    endloop
  endfacet
  facet normal -0.982275 0.187447 0
    outer loop
      vertex -14.3429 3.24345 1
      vertex -14.4606 2.62667 0
      vertex -14.4606 2.62667 1
    endloop
  endfacet
  facet normal -0.951072 0.30897 0
    outer loop
      vertex -14.3429 3.24345 0
      vertex -14.1489 3.84062 1
      vertex -14.1489 3.84062 0
    endloop
  endfacet
  facet normal -0.951072 0.30897 0
    outer loop
      vertex -14.1489 3.84062 1
      vertex -14.3429 3.24345 0
      vertex -14.3429 3.24345 1
    endloop
  endfacet
  facet normal -0.982275 -0.187447 0
    outer loop
      vertex -14.3429 -3.24345 0
      vertex -14.4606 -2.62667 1
      vertex -14.4606 -2.62667 0
    endloop
  endfacet
  facet normal -0.982275 -0.187447 0
    outer loop
      vertex -14.4606 -2.62667 1
      vertex -14.3429 -3.24345 0
      vertex -14.3429 -3.24345 1
    endloop
  endfacet
  facet normal -0.587771 -0.809027 0
    outer loop
      vertex -12.6871 -5.85257 0
      vertex -12.1791 -6.22164 1
      vertex -12.6871 -5.85257 1
    endloop
  endfacet
  facet normal -0.587771 -0.809027 -0
    outer loop
      vertex -12.1791 -6.22164 1
      vertex -12.6871 -5.85257 0
      vertex -12.1791 -6.22164 0
    endloop
  endfacet
  facet normal -0.684565 -0.728952 0
    outer loop
      vertex -13.1448 -5.42274 0
      vertex -12.6871 -5.85257 1
      vertex -13.1448 -5.42274 1
    endloop
  endfacet
  facet normal -0.684565 -0.728952 -0
    outer loop
      vertex -12.6871 -5.85257 1
      vertex -13.1448 -5.42274 0
      vertex -12.6871 -5.85257 0
    endloop
  endfacet
  facet normal 0.587771 0.809027 -0
    outer loop
      vertex 12.6871 5.85257 0
      vertex 12.1791 6.22164 1
      vertex 12.6871 5.85257 1
    endloop
  endfacet
  facet normal 0.587771 0.809027 0
    outer loop
      vertex 12.1791 6.22164 1
      vertex 12.6871 5.85257 0
      vertex 12.1791 6.22164 0
    endloop
  endfacet
  facet normal 0.770468 0.637478 0
    outer loop
      vertex 13.5451 4.93893 1
      vertex 13.1448 5.42274 0
      vertex 13.1448 5.42274 1
    endloop
  endfacet
  facet normal 0.770468 0.637478 0
    outer loop
      vertex 13.1448 5.42274 0
      vertex 13.5451 4.93893 1
      vertex 13.5451 4.93893 0
    endloop
  endfacet
  facet normal -0.951072 0.308968 0
    outer loop
      vertex -13.5615 1.74214 1
      vertex -13.3287 2.45875 2
      vertex -13.3287 2.45875 1
    endloop
  endfacet
  facet normal -0.951072 0.308968 0
    outer loop
      vertex -13.3287 2.45875 2
      vertex -13.5615 1.74214 1
      vertex -13.5615 1.74214 2
    endloop
  endfacet
  facet normal -0.982285 0.187395 0
    outer loop
      vertex -13.7027 1.002 1
      vertex -13.5615 1.74214 2
      vertex -13.5615 1.74214 1
    endloop
  endfacet
  facet normal -0.982285 0.187395 0
    outer loop
      vertex -13.5615 1.74214 2
      vertex -13.7027 1.002 1
      vertex -13.7027 1.002 2
    endloop
  endfacet
  facet normal -1 0 0
    outer loop
      vertex -13.75 -0.25 1
      vertex -13.75 0.25 2
      vertex -13.75 0.25 1
    endloop
  endfacet
  facet normal -1 -0 0
    outer loop
      vertex -13.75 0.25 2
      vertex -13.75 -0.25 1
      vertex -13.75 -0.25 2
    endloop
  endfacet
  facet normal -0.684528 0.728987 0
    outer loop
      vertex -11.5745 4.87308 1
      vertex -12.1238 4.35728 2
      vertex -11.5745 4.87308 2
    endloop
  endfacet
  facet normal -0.684528 0.728987 0
    outer loop
      vertex -12.1238 4.35728 2
      vertex -11.5745 4.87308 1
      vertex -12.1238 4.35728 1
    endloop
  endfacet
  facet normal -0.998028 0.0627749 0
    outer loop
      vertex -13.75 0.25 1
      vertex -13.7027 1.002 2
      vertex -13.7027 1.002 1
    endloop
  endfacet
  facet normal -0.998028 0.0627749 0
    outer loop
      vertex -13.7027 1.002 2
      vertex -13.75 0.25 1
      vertex -13.75 0.25 2
    endloop
  endfacet
  facet normal -0.368116 -0.92978 0
    outer loop
      vertex -10.3047 -5.67896 1
      vertex -9.6041 -5.95634 2
      vertex -10.3047 -5.67896 2
    endloop
  endfacet
  facet normal -0.368116 -0.92978 -0
    outer loop
      vertex -9.6041 -5.95634 2
      vertex -10.3047 -5.67896 1
      vertex -9.6041 -5.95634 1
    endloop
  endfacet
  facet normal 0.125336 -0.992114 0
    outer loop
      vertex 8.12674 -6.23816 1
      vertex 8.87429 -6.14372 2
      vertex 8.12674 -6.23816 2
    endloop
  endfacet
  facet normal 0.125336 -0.992114 0
    outer loop
      vertex 8.87429 -6.14372 2
      vertex 8.12674 -6.23816 1
      vertex 8.87429 -6.14372 1
    endloop
  endfacet
  facet normal -0.770506 -0.637432 0
    outer loop
      vertex -12.1238 -4.35728 1
      vertex -12.6041 -3.77671 2
      vertex -12.6041 -3.77671 1
    endloop
  endfacet
  facet normal -0.770506 -0.637432 0
    outer loop
      vertex -12.6041 -3.77671 2
      vertex -12.1238 -4.35728 1
      vertex -12.1238 -4.35728 2
    endloop
  endfacet
  facet normal 0 1 -0
    outer loop
      vertex 8.12674 6.23816 1
      vertex -8.12674 6.23816 2
      vertex 8.12674 6.23816 2
    endloop
  endfacet
  facet normal 0 1 0
    outer loop
      vertex -8.12674 6.23816 2
      vertex 8.12674 6.23816 1
      vertex -8.12674 6.23816 1
    endloop
  endfacet
  facet normal 0.982285 0.187395 0
    outer loop
      vertex 13.7027 1.002 2
      vertex 13.5615 1.74214 1
      vertex 13.5615 1.74214 2
    endloop
  endfacet
  facet normal 0.982285 0.187395 0
    outer loop
      vertex 13.5615 1.74214 1
      vertex 13.7027 1.002 2
      vertex 13.7027 1.002 1
    endloop
  endfacet
  facet normal 0.770506 -0.637432 0
    outer loop
      vertex 12.1238 -4.35728 2
      vertex 12.6041 -3.77671 1
      vertex 12.6041 -3.77671 2
    endloop
  endfacet
  facet normal 0.770506 -0.637432 0
    outer loop
      vertex 12.6041 -3.77671 1
      vertex 12.1238 -4.35728 2
      vertex 12.1238 -4.35728 1
    endloop
  endfacet
  facet normal 0 -1 0
    outer loop
      vertex -8.12674 -6.23816 1
      vertex 8.12674 -6.23816 2
      vertex -8.12674 -6.23816 2
    endloop
  endfacet
  facet normal 0 -1 -0
    outer loop
      vertex 8.12674 -6.23816 2
      vertex -8.12674 -6.23816 1
      vertex 8.12674 -6.23816 1
    endloop
  endfacet
  facet normal -0.904784 0.42587 0
    outer loop
      vertex -13.3287 2.45875 1
      vertex -13.0078 3.14052 2
      vertex -13.0078 3.14052 1
    endloop
  endfacet
  facet normal -0.904784 0.42587 0
    outer loop
      vertex -13.0078 3.14052 2
      vertex -13.3287 2.45875 1
      vertex -13.3287 2.45875 2
    endloop
  endfacet
  facet normal -0.587839 0.808978 0
    outer loop
      vertex -10.965 5.31597 1
      vertex -11.5745 4.87308 2
      vertex -10.965 5.31597 2
    endloop
  endfacet
  facet normal -0.587839 0.808978 0
    outer loop
      vertex -11.5745 4.87308 2
      vertex -10.965 5.31597 1
      vertex -11.5745 4.87308 1
    endloop
  endfacet
  facet normal -0.368116 0.92978 0
    outer loop
      vertex -9.6041 5.95634 1
      vertex -10.3047 5.67896 2
      vertex -9.6041 5.95634 2
    endloop
  endfacet
  facet normal -0.368116 0.92978 0
    outer loop
      vertex -10.3047 5.67896 2
      vertex -9.6041 5.95634 1
      vertex -10.3047 5.67896 1
    endloop
  endfacet
  facet normal 0.125336 0.992114 -0
    outer loop
      vertex 8.87429 6.14372 1
      vertex 8.12674 6.23816 2
      vertex 8.87429 6.14372 2
    endloop
  endfacet
  facet normal 0.125336 0.992114 0
    outer loop
      vertex 8.12674 6.23816 2
      vertex 8.87429 6.14372 1
      vertex 8.12674 6.23816 1
    endloop
  endfacet
  facet normal 0.844351 0.53579 0
    outer loop
      vertex 13.0078 3.14052 2
      vertex 12.6041 3.77671 1
      vertex 12.6041 3.77671 2
    endloop
  endfacet
  facet normal 0.844351 0.53579 0
    outer loop
      vertex 12.6041 3.77671 1
      vertex 13.0078 3.14052 2
      vertex 13.0078 3.14052 1
    endloop
  endfacet
  facet normal 0.684528 -0.728987 0
    outer loop
      vertex 11.5745 -4.87308 1
      vertex 12.1238 -4.35728 2
      vertex 11.5745 -4.87308 2
    endloop
  endfacet
  facet normal 0.684528 -0.728987 0
    outer loop
      vertex 12.1238 -4.35728 2
      vertex 11.5745 -4.87308 1
      vertex 12.1238 -4.35728 1
    endloop
  endfacet
  facet normal -0.684528 -0.728987 0
    outer loop
      vertex -12.1238 -4.35728 1
      vertex -11.5745 -4.87308 2
      vertex -12.1238 -4.35728 2
    endloop
  endfacet
  facet normal -0.684528 -0.728987 -0
    outer loop
      vertex -11.5745 -4.87308 2
      vertex -12.1238 -4.35728 1
      vertex -11.5745 -4.87308 1
    endloop
  endfacet
  facet normal 0.998028 -0.0627749 0
    outer loop
      vertex 13.7027 -1.002 2
      vertex 13.75 -0.25 1
      vertex 13.75 -0.25 2
    endloop
  endfacet
  facet normal 0.998028 -0.0627749 0
    outer loop
      vertex 13.75 -0.25 1
      vertex 13.7027 -1.002 2
      vertex 13.7027 -1.002 1
    endloop
  endfacet
  facet normal -0.844351 0.53579 0
    outer loop
      vertex -13.0078 3.14052 1
      vertex -12.6041 3.77671 2
      vertex -12.6041 3.77671 1
    endloop
  endfacet
  facet normal -0.844351 0.53579 0
    outer loop
      vertex -12.6041 3.77671 2
      vertex -13.0078 3.14052 1
      vertex -13.0078 3.14052 2
    endloop
  endfacet
  facet normal -0.770506 0.637432 0
    outer loop
      vertex -12.6041 3.77671 1
      vertex -12.1238 4.35728 2
      vertex -12.1238 4.35728 1
    endloop
  endfacet
  facet normal -0.770506 0.637432 0
    outer loop
      vertex -12.1238 4.35728 2
      vertex -12.6041 3.77671 1
      vertex -12.6041 3.77671 2
    endloop
  endfacet
  facet normal -0.48174 0.876314 0
    outer loop
      vertex -10.3047 5.67896 1
      vertex -10.965 5.31597 2
      vertex -10.3047 5.67896 2
    endloop
  endfacet
  facet normal -0.48174 0.876314 0
    outer loop
      vertex -10.965 5.31597 2
      vertex -10.3047 5.67896 1
      vertex -10.965 5.31597 1
    endloop
  endfacet
  facet normal -0.125336 0.992114 0
    outer loop
      vertex -8.12674 6.23816 1
      vertex -8.87429 6.14372 2
      vertex -8.12674 6.23816 2
    endloop
  endfacet
  facet normal -0.125336 0.992114 0
    outer loop
      vertex -8.87429 6.14372 2
      vertex -8.12674 6.23816 1
      vertex -8.87429 6.14372 1
    endloop
  endfacet
  facet normal 0.998028 0.0627749 0
    outer loop
      vertex 13.75 0.25 2
      vertex 13.7027 1.002 1
      vertex 13.7027 1.002 2
    endloop
  endfacet
  facet normal 0.998028 0.0627749 0
    outer loop
      vertex 13.7027 1.002 1
      vertex 13.75 0.25 2
      vertex 13.75 0.25 1
    endloop
  endfacet
  facet normal 1 -0 0
    outer loop
      vertex 13.75 -0.25 2
      vertex 13.75 0.25 1
      vertex 13.75 0.25 2
    endloop
  endfacet
  facet normal 1 0 0
    outer loop
      vertex 13.75 0.25 1
      vertex 13.75 -0.25 2
      vertex 13.75 -0.25 1
    endloop
  endfacet
  facet normal 0.904784 -0.42587 0
    outer loop
      vertex 13.0078 -3.14052 2
      vertex 13.3287 -2.45875 1
      vertex 13.3287 -2.45875 2
    endloop
  endfacet
  facet normal 0.904784 -0.42587 0
    outer loop
      vertex 13.3287 -2.45875 1
      vertex 13.0078 -3.14052 2
      vertex 13.0078 -3.14052 1
    endloop
  endfacet
  facet normal 0.982285 -0.187395 0
    outer loop
      vertex 13.5615 -1.74214 2
      vertex 13.7027 -1.002 1
      vertex 13.7027 -1.002 2
    endloop
  endfacet
  facet normal 0.982285 -0.187395 0
    outer loop
      vertex 13.7027 -1.002 1
      vertex 13.5615 -1.74214 2
      vertex 13.5615 -1.74214 1
    endloop
  endfacet
  facet normal 0.248686 -0.968584 0
    outer loop
      vertex 8.87429 -6.14372 1
      vertex 9.6041 -5.95634 2
      vertex 8.87429 -6.14372 2
    endloop
  endfacet
  facet normal 0.248686 -0.968584 0
    outer loop
      vertex 9.6041 -5.95634 2
      vertex 8.87429 -6.14372 1
      vertex 9.6041 -5.95634 1
    endloop
  endfacet
  facet normal -0.248686 -0.968584 0
    outer loop
      vertex -9.6041 -5.95634 1
      vertex -8.87429 -6.14372 2
      vertex -9.6041 -5.95634 2
    endloop
  endfacet
  facet normal -0.248686 -0.968584 -0
    outer loop
      vertex -8.87429 -6.14372 2
      vertex -9.6041 -5.95634 1
      vertex -8.87429 -6.14372 1
    endloop
  endfacet
  facet normal -0.248686 0.968584 0
    outer loop
      vertex -8.87429 6.14372 1
      vertex -9.6041 5.95634 2
      vertex -8.87429 6.14372 2
    endloop
  endfacet
  facet normal -0.248686 0.968584 0
    outer loop
      vertex -9.6041 5.95634 2
      vertex -8.87429 6.14372 1
      vertex -9.6041 5.95634 1
    endloop
  endfacet
  facet normal 0.48174 0.876314 -0
    outer loop
      vertex 10.965 5.31597 1
      vertex 10.3047 5.67896 2
      vertex 10.965 5.31597 2
    endloop
  endfacet
  facet normal 0.48174 0.876314 0
    outer loop
      vertex 10.3047 5.67896 2
      vertex 10.965 5.31597 1
      vertex 10.3047 5.67896 1
    endloop
  endfacet
  facet normal 0.684528 0.728987 -0
    outer loop
      vertex 12.1238 4.35728 1
      vertex 11.5745 4.87308 2
      vertex 12.1238 4.35728 2
    endloop
  endfacet
  facet normal 0.684528 0.728987 0
    outer loop
      vertex 11.5745 4.87308 2
      vertex 12.1238 4.35728 1
      vertex 11.5745 4.87308 1
    endloop
  endfacet
  facet normal 0.770506 0.637432 0
    outer loop
      vertex 12.6041 3.77671 2
      vertex 12.1238 4.35728 1
      vertex 12.1238 4.35728 2
    endloop
  endfacet
  facet normal 0.770506 0.637432 0
    outer loop
      vertex 12.1238 4.35728 1
      vertex 12.6041 3.77671 2
      vertex 12.6041 3.77671 1
    endloop
  endfacet
  facet normal 0.951072 -0.308968 0
    outer loop
      vertex 13.3287 -2.45875 2
      vertex 13.5615 -1.74214 1
      vertex 13.5615 -1.74214 2
    endloop
  endfacet
  facet normal 0.951072 -0.308968 0
    outer loop
      vertex 13.5615 -1.74214 1
      vertex 13.3287 -2.45875 2
      vertex 13.3287 -2.45875 1
    endloop
  endfacet
  facet normal 0.368116 -0.92978 0
    outer loop
      vertex 9.6041 -5.95634 1
      vertex 10.3047 -5.67896 2
      vertex 9.6041 -5.95634 2
    endloop
  endfacet
  facet normal 0.368116 -0.92978 0
    outer loop
      vertex 10.3047 -5.67896 2
      vertex 9.6041 -5.95634 1
      vertex 10.3047 -5.67896 1
    endloop
  endfacet
  facet normal 0.587839 -0.808978 0
    outer loop
      vertex 10.965 -5.31597 1
      vertex 11.5745 -4.87308 2
      vertex 10.965 -5.31597 2
    endloop
  endfacet
  facet normal 0.587839 -0.808978 0
    outer loop
      vertex 11.5745 -4.87308 2
      vertex 10.965 -5.31597 1
      vertex 11.5745 -4.87308 1
    endloop
  endfacet
  facet normal 0.48174 -0.876314 0
    outer loop
      vertex 10.3047 -5.67896 1
      vertex 10.965 -5.31597 2
      vertex 10.3047 -5.67896 2
    endloop
  endfacet
  facet normal 0.48174 -0.876314 0
    outer loop
      vertex 10.965 -5.31597 2
      vertex 10.3047 -5.67896 1
      vertex 10.965 -5.31597 1
    endloop
  endfacet
  facet normal 0 0 1
    outer loop
      vertex 8.12674 6.23816 2
      vertex 13.75 0.25 2
      vertex 13.7027 1.002 2
    endloop
  endfacet
  facet normal 0 0 1
    outer loop
      vertex 13.75 0.25 2
      vertex 8.12674 6.23816 2
      vertex 13.75 -0.25 2
    endloop
  endfacet
  facet normal 0 0 1
    outer loop
      vertex 8.12674 6.23816 2
      vertex 13.7027 1.002 2
      vertex 13.5615 1.74214 2
    endloop
  endfacet
  facet normal 0 0 1
    outer loop
      vertex 8.12674 -6.23816 2
      vertex 13.75 -0.25 2
      vertex 8.12674 6.23816 2
    endloop
  endfacet
  facet normal 0 0 1
    outer loop
      vertex 13.0078 3.14052 2
      vertex 13.5615 1.74214 2
      vertex 13.3287 2.45875 2
    endloop
  endfacet
  facet normal 0 0 1
    outer loop
      vertex 12.6041 3.77671 2
      vertex 13.5615 1.74214 2
      vertex 13.0078 3.14052 2
    endloop
  endfacet
  facet normal 0 0 1
    outer loop
      vertex 12.1238 4.35728 2
      vertex 13.5615 1.74214 2
      vertex 12.6041 3.77671 2
    endloop
  endfacet
  facet normal 0 0 1
    outer loop
      vertex 11.5745 4.87308 2
      vertex 13.5615 1.74214 2
      vertex 12.1238 4.35728 2
    endloop
  endfacet
  facet normal 0 0 1
    outer loop
      vertex 13.5615 -1.74214 2
      vertex 13.0078 -3.14052 2
      vertex 13.3287 -2.45875 2
    endloop
  endfacet
  facet normal 0 0 1
    outer loop
      vertex 13.5615 -1.74214 2
      vertex 12.6041 -3.77671 2
      vertex 13.0078 -3.14052 2
    endloop
  endfacet
  facet normal 0 0 1
    outer loop
      vertex 10.965 5.31597 2
      vertex 13.5615 1.74214 2
      vertex 11.5745 4.87308 2
    endloop
  endfacet
  facet normal 0 0 1
    outer loop
      vertex 13.5615 -1.74214 2
      vertex 12.1238 -4.35728 2
      vertex 12.6041 -3.77671 2
    endloop
  endfacet
  facet normal 0 0 1
    outer loop
      vertex 10.3047 5.67896 2
      vertex 13.5615 1.74214 2
      vertex 10.965 5.31597 2
    endloop
  endfacet
  facet normal 0 0 1
    outer loop
      vertex 13.5615 -1.74214 2
      vertex 11.5745 -4.87308 2
      vertex 12.1238 -4.35728 2
    endloop
  endfacet
  facet normal 0 0 1
    outer loop
      vertex 9.6041 5.95634 2
      vertex 13.5615 1.74214 2
      vertex 10.3047 5.67896 2
    endloop
  endfacet
  facet normal 0 0 1
    outer loop
      vertex 13.5615 -1.74214 2
      vertex 10.965 -5.31597 2
      vertex 11.5745 -4.87308 2
    endloop
  endfacet
  facet normal 0 0 1
    outer loop
      vertex 8.87429 6.14372 2
      vertex 13.5615 1.74214 2
      vertex 9.6041 5.95634 2
    endloop
  endfacet
  facet normal 0 0 1
    outer loop
      vertex 13.5615 -1.74214 2
      vertex 10.3047 -5.67896 2
      vertex 10.965 -5.31597 2
    endloop
  endfacet
  facet normal 0 0 1
    outer loop
      vertex 8.12674 6.23816 2
      vertex 13.5615 1.74214 2
      vertex 8.87429 6.14372 2
    endloop
  endfacet
  facet normal 0 0 1
    outer loop
      vertex 13.5615 -1.74214 2
      vertex 9.6041 -5.95634 2
      vertex 10.3047 -5.67896 2
    endloop
  endfacet
  facet normal 0 0 1
    outer loop
      vertex 13.75 -0.25 2
      vertex 8.12674 -6.23816 2
      vertex 13.7027 -1.002 2
    endloop
  endfacet
  facet normal 0 0 1
    outer loop
      vertex 13.5615 -1.74214 2
      vertex 8.87429 -6.14372 2
      vertex 9.6041 -5.95634 2
    endloop
  endfacet
  facet normal 0 0 1
    outer loop
      vertex 13.7027 -1.002 2
      vertex 8.12674 -6.23816 2
      vertex 13.5615 -1.74214 2
    endloop
  endfacet
  facet normal 0 0 1
    outer loop
      vertex 13.5615 -1.74214 2
      vertex 8.12674 -6.23816 2
      vertex 8.87429 -6.14372 2
    endloop
  endfacet
  facet normal -0 0 1
    outer loop
      vertex -8.12674 6.23816 2
      vertex 8.12674 -6.23816 2
      vertex 8.12674 6.23816 2
    endloop
  endfacet
  facet normal 0 0 1
    outer loop
      vertex -8.12674 6.23816 2
      vertex -8.12674 -6.23816 2
      vertex 8.12674 -6.23816 2
    endloop
  endfacet
  facet normal 0 0 1
    outer loop
      vertex -13.75 0.25 2
      vertex -8.12674 6.23816 2
      vertex -8.87429 6.14372 2
    endloop
  endfacet
  facet normal 0 0 1
    outer loop
      vertex -8.12674 6.23816 2
      vertex -13.75 0.25 2
      vertex -8.12674 -6.23816 2
    endloop
  endfacet
  facet normal 0 0 1
    outer loop
      vertex -13.75 0.25 2
      vertex -8.87429 6.14372 2
      vertex -9.6041 5.95634 2
    endloop
  endfacet
  facet normal -0 0 1
    outer loop
      vertex -13.75 -0.25 2
      vertex -8.12674 -6.23816 2
      vertex -13.75 0.25 2
    endloop
  endfacet
  facet normal 0 0 1
    outer loop
      vertex -13.75 0.25 2
      vertex -9.6041 5.95634 2
      vertex -10.3047 5.67896 2
    endloop
  endfacet
  facet normal 0 0 1
    outer loop
      vertex -8.12674 -6.23816 2
      vertex -13.75 -0.25 2
      vertex -8.87429 -6.14372 2
    endloop
  endfacet
  facet normal 0 0 1
    outer loop
      vertex -13.75 0.25 2
      vertex -10.3047 5.67896 2
      vertex -10.965 5.31597 2
    endloop
  endfacet
  facet normal 0 0 1
    outer loop
      vertex -8.87429 -6.14372 2
      vertex -13.75 -0.25 2
      vertex -9.6041 -5.95634 2
    endloop
  endfacet
  facet normal 0 0 1
    outer loop
      vertex -13.75 0.25 2
      vertex -10.965 5.31597 2
      vertex -11.5745 4.87308 2
    endloop
  endfacet
  facet normal 0 0 1
    outer loop
      vertex -9.6041 -5.95634 2
      vertex -13.75 -0.25 2
      vertex -10.3047 -5.67896 2
    endloop
  endfacet
  facet normal 0 0 1
    outer loop
      vertex -13.75 0.25 2
      vertex -11.5745 4.87308 2
      vertex -12.1238 4.35728 2
    endloop
  endfacet
  facet normal 0 0 1
    outer loop
      vertex -10.3047 -5.67896 2
      vertex -13.75 -0.25 2
      vertex -10.965 -5.31597 2
    endloop
  endfacet
  facet normal 0 0 1
    outer loop
      vertex -13.75 0.25 2
      vertex -12.1238 4.35728 2
      vertex -12.6041 3.77671 2
    endloop
  endfacet
  facet normal 0 0 1
    outer loop
      vertex -10.965 -5.31597 2
      vertex -13.75 -0.25 2
      vertex -11.5745 -4.87308 2
    endloop
  endfacet
  facet normal 0 0 1
    outer loop
      vertex -13.75 0.25 2
      vertex -12.6041 3.77671 2
      vertex -13.0078 3.14052 2
    endloop
  endfacet
  facet normal 0 0 1
    outer loop
      vertex -11.5745 -4.87308 2
      vertex -13.75 -0.25 2
      vertex -12.1238 -4.35728 2
    endloop
  endfacet
  facet normal 0 0 1
    outer loop
      vertex -13.75 0.25 2
      vertex -13.0078 3.14052 2
      vertex -13.3287 2.45875 2
    endloop
  endfacet
  facet normal 0 0 1
    outer loop
      vertex -12.1238 -4.35728 2
      vertex -13.75 -0.25 2
      vertex -12.6041 -3.77671 2
    endloop
  endfacet
  facet normal 0 0 1
    outer loop
      vertex -13.75 0.25 2
      vertex -13.3287 2.45875 2
      vertex -13.5615 1.74214 2
    endloop
  endfacet
  facet normal 0 0 1
    outer loop
      vertex -12.6041 -3.77671 2
      vertex -13.75 -0.25 2
      vertex -13.0078 -3.14052 2
    endloop
  endfacet
  facet normal 0 0 1
    outer loop
      vertex -13.75 0.25 2
      vertex -13.5615 1.74214 2
      vertex -13.7027 1.002 2
    endloop
  endfacet
  facet normal 0 0 1
    outer loop
      vertex -13.0078 -3.14052 2
      vertex -13.75 -0.25 2
      vertex -13.3287 -2.45875 2
    endloop
  endfacet
  facet normal 0 0 1
    outer loop
      vertex -13.3287 -2.45875 2
      vertex -13.75 -0.25 2
      vertex -13.5615 -1.74214 2
    endloop
  endfacet
  facet normal 0 0 1
    outer loop
      vertex -13.5615 -1.74214 2
      vertex -13.75 -0.25 2
      vertex -13.7027 -1.002 2
    endloop
  endfacet
  facet normal -0.982285 -0.187395 0
    outer loop
      vertex -13.5615 -1.74214 1
      vertex -13.7027 -1.002 2
      vertex -13.7027 -1.002 1
    endloop
  endfacet
  facet normal -0.982285 -0.187395 0
    outer loop
      vertex -13.7027 -1.002 2
      vertex -13.5615 -1.74214 1
      vertex -13.5615 -1.74214 2
    endloop
  endfacet
  facet normal -0.48174 -0.876314 0
    outer loop
      vertex -10.965 -5.31597 1
      vertex -10.3047 -5.67896 2
      vertex -10.965 -5.31597 2
    endloop
  endfacet
  facet normal -0.48174 -0.876314 -0
    outer loop
      vertex -10.3047 -5.67896 2
      vertex -10.965 -5.31597 1
      vertex -10.3047 -5.67896 1
    endloop
  endfacet
  facet normal -0.125336 -0.992114 0
    outer loop
      vertex -8.87429 -6.14372 1
      vertex -8.12674 -6.23816 2
      vertex -8.87429 -6.14372 2
    endloop
  endfacet
  facet normal -0.125336 -0.992114 -0
    outer loop
      vertex -8.12674 -6.23816 2
      vertex -8.87429 -6.14372 1
      vertex -8.12674 -6.23816 1
    endloop
  endfacet
  facet normal 0.248686 0.968584 -0
    outer loop
      vertex 9.6041 5.95634 1
      vertex 8.87429 6.14372 2
      vertex 9.6041 5.95634 2
    endloop
  endfacet
  facet normal 0.248686 0.968584 0
    outer loop
      vertex 8.87429 6.14372 2
      vertex 9.6041 5.95634 1
      vertex 8.87429 6.14372 1
    endloop
  endfacet
  facet normal 0.368116 0.92978 -0
    outer loop
      vertex 10.3047 5.67896 1
      vertex 9.6041 5.95634 2
      vertex 10.3047 5.67896 2
    endloop
  endfacet
  facet normal 0.368116 0.92978 0
    outer loop
      vertex 9.6041 5.95634 2
      vertex 10.3047 5.67896 1
      vertex 9.6041 5.95634 1
    endloop
  endfacet
  facet normal 0.587839 0.808978 -0
    outer loop
      vertex 11.5745 4.87308 1
      vertex 10.965 5.31597 2
      vertex 11.5745 4.87308 2
    endloop
  endfacet
  facet normal 0.587839 0.808978 0
    outer loop
      vertex 10.965 5.31597 2
      vertex 11.5745 4.87308 1
      vertex 10.965 5.31597 1
    endloop
  endfacet
  facet normal 0.904784 0.42587 0
    outer loop
      vertex 13.3287 2.45875 2
      vertex 13.0078 3.14052 1
      vertex 13.0078 3.14052 2
    endloop
  endfacet
  facet normal 0.904784 0.42587 0
    outer loop
      vertex 13.0078 3.14052 1
      vertex 13.3287 2.45875 2
      vertex 13.3287 2.45875 1
    endloop
  endfacet
  facet normal 0.951072 0.308968 0
    outer loop
      vertex 13.5615 1.74214 2
      vertex 13.3287 2.45875 1
      vertex 13.3287 2.45875 2
    endloop
  endfacet
  facet normal 0.951072 0.308968 0
    outer loop
      vertex 13.3287 2.45875 1
      vertex 13.5615 1.74214 2
      vertex 13.5615 1.74214 1
    endloop
  endfacet
  facet normal 0.844351 -0.53579 0
    outer loop
      vertex 12.6041 -3.77671 2
      vertex 13.0078 -3.14052 1
      vertex 13.0078 -3.14052 2
    endloop
  endfacet
  facet normal 0.844351 -0.53579 0
    outer loop
      vertex 13.0078 -3.14052 1
      vertex 12.6041 -3.77671 2
      vertex 12.6041 -3.77671 1
    endloop
  endfacet
  facet normal -0.844351 -0.53579 0
    outer loop
      vertex -12.6041 -3.77671 1
      vertex -13.0078 -3.14052 2
      vertex -13.0078 -3.14052 1
    endloop
  endfacet
  facet normal -0.844351 -0.53579 0
    outer loop
      vertex -13.0078 -3.14052 2
      vertex -12.6041 -3.77671 1
      vertex -12.6041 -3.77671 2
    endloop
  endfacet
  facet normal -0.998028 -0.0627749 0
    outer loop
      vertex -13.7027 -1.002 1
      vertex -13.75 -0.25 2
      vertex -13.75 -0.25 1
    endloop
  endfacet
  facet normal -0.998028 -0.0627749 0
    outer loop
      vertex -13.75 -0.25 2
      vertex -13.7027 -1.002 1
      vertex -13.7027 -1.002 2
    endloop
  endfacet
  facet normal -0.587839 -0.808978 0
    outer loop
      vertex -11.5745 -4.87308 1
      vertex -10.965 -5.31597 2
      vertex -11.5745 -4.87308 2
    endloop
  endfacet
  facet normal -0.587839 -0.808978 -0
    outer loop
      vertex -10.965 -5.31597 2
      vertex -11.5745 -4.87308 1
      vertex -10.965 -5.31597 1
    endloop
  endfacet
  facet normal -0.904784 -0.42587 0
    outer loop
      vertex -13.0078 -3.14052 1
      vertex -13.3287 -2.45875 2
      vertex -13.3287 -2.45875 1
    endloop
  endfacet
  facet normal -0.904784 -0.42587 0
    outer loop
      vertex -13.3287 -2.45875 2
      vertex -13.0078 -3.14052 1
      vertex -13.0078 -3.14052 2
    endloop
  endfacet
  facet normal -0.951072 -0.308968 0
    outer loop
      vertex -13.3287 -2.45875 1
      vertex -13.5615 -1.74214 2
      vertex -13.5615 -1.74214 1
    endloop
  endfacet
  facet normal -0.951072 -0.308968 0
    outer loop
      vertex -13.5615 -1.74214 2
      vertex -13.3287 -2.45875 1
      vertex -13.3287 -2.45875 2
    endloop
  endfacet
  facet normal 0.844364 0.53577 0
    outer loop
      vertex 18.8815 2.40877 1
      vertex 18.5451 2.93893 0
      vertex 18.5451 2.93893 1
    endloop
  endfacet
  facet normal 0.844364 0.53577 0
    outer loop
      vertex 18.5451 2.93893 0
      vertex 18.8815 2.40877 1
      vertex 18.8815 2.40877 0
    endloop
  endfacet
  facet normal 0.368135 0.929773 -0
    outer loop
      vertex 16.6289 4.52413 0
      vertex 16.0451 4.75528 1
      vertex 16.6289 4.52413 1
    endloop
  endfacet
  facet normal 0.368135 0.929773 0
    outer loop
      vertex 16.0451 4.75528 1
      vertex 16.6289 4.52413 0
      vertex 16.0451 4.75528 0
    endloop
  endfacet
  facet normal 0.982275 -0.187446 0
    outer loop
      vertex 19.3429 -1.24345 1
      vertex 19.4606 -0.626666 0
      vertex 19.4606 -0.626666 1
    endloop
  endfacet
  facet normal 0.982275 -0.187446 0
    outer loop
      vertex 19.4606 -0.626666 0
      vertex 19.3429 -1.24345 1
      vertex 19.3429 -1.24345 0
    endloop
  endfacet
  facet normal 0.684565 0.728952 -0
    outer loop
      vertex 18.1448 3.42274 0
      vertex 17.6871 3.85257 1
      vertex 18.1448 3.42274 1
    endloop
  endfacet
  facet normal 0.684565 0.728952 0
    outer loop
      vertex 17.6871 3.85257 1
      vertex 18.1448 3.42274 0
      vertex 17.6871 3.85257 0
    endloop
  endfacet
  facet normal 0.481772 0.876297 -0
    outer loop
      vertex 17.1791 4.22164 0
      vertex 16.6289 4.52413 1
      vertex 17.1791 4.22164 1
    endloop
  endfacet
  facet normal 0.481772 0.876297 0
    outer loop
      vertex 16.6289 4.52413 1
      vertex 17.1791 4.22164 0
      vertex 16.6289 4.52413 0
    endloop
  endfacet
  facet normal -0.251634 0.967823 0
    outer loop
      vertex 13.5631 4.91144 0
      vertex 13.5626 4.91131 1
      vertex 13.5631 4.91144 1
    endloop
  endfacet
  facet normal -0.251634 0.967823 0
    outer loop
      vertex 13.5626 4.91131 1
      vertex 13.5631 4.91144 0
      vertex 13.5626 4.91131 0
    endloop
  endfacet
  facet normal 0.998029 0.0627485 0
    outer loop
      vertex 19.5 0 1
      vertex 19.4606 0.626666 0
      vertex 19.4606 0.626666 1
    endloop
  endfacet
  facet normal 0.998029 0.0627485 0
    outer loop
      vertex 19.4606 0.626666 0
      vertex 19.5 0 1
      vertex 19.5 0 0
    endloop
  endfacet
  facet normal 0.951072 -0.30897 0
    outer loop
      vertex 19.1489 -1.84062 1
      vertex 19.3429 -1.24345 0
      vertex 19.3429 -1.24345 1
    endloop
  endfacet
  facet normal 0.951072 -0.30897 0
    outer loop
      vertex 19.3429 -1.24345 0
      vertex 19.1489 -1.84062 1
      vertex 19.1489 -1.84062 0
    endloop
  endfacet
  facet normal 0.770468 0.637478 0
    outer loop
      vertex 18.5451 2.93893 1
      vertex 18.1448 3.42274 0
      vertex 18.1448 3.42274 1
    endloop
  endfacet
  facet normal 0.770468 0.637478 0
    outer loop
      vertex 18.1448 3.42274 0
      vertex 18.5451 2.93893 1
      vertex 18.5451 2.93893 0
    endloop
  endfacet
  facet normal -0.125332 0.992115 0
    outer loop
      vertex 14.186 4.99013 0
      vertex 13.5631 4.91144 1
      vertex 14.186 4.99013 1
    endloop
  endfacet
  facet normal -0.125332 0.992115 0
    outer loop
      vertex 13.5631 4.91144 1
      vertex 14.186 4.99013 0
      vertex 13.5631 4.91144 0
    endloop
  endfacet
  facet normal 0.248691 0.968583 -0
    outer loop
      vertex 16.0451 4.75528 0
      vertex 15.4369 4.91144 1
      vertex 16.0451 4.75528 1
    endloop
  endfacet
  facet normal 0.248691 0.968583 0
    outer loop
      vertex 15.4369 4.91144 1
      vertex 16.0451 4.75528 0
      vertex 15.4369 4.91144 0
    endloop
  endfacet
  facet normal 0.125332 0.992115 -0
    outer loop
      vertex 15.4369 4.91144 0
      vertex 14.814 4.99013 1
      vertex 15.4369 4.91144 1
    endloop
  endfacet
  facet normal 0.125332 0.992115 0
    outer loop
      vertex 14.814 4.99013 1
      vertex 15.4369 4.91144 0
      vertex 14.814 4.99013 0
    endloop
  endfacet
  facet normal 0.587771 0.809027 -0
    outer loop
      vertex 17.6871 3.85257 0
      vertex 17.1791 4.22164 1
      vertex 17.6871 3.85257 1
    endloop
  endfacet
  facet normal 0.587771 0.809027 0
    outer loop
      vertex 17.1791 4.22164 1
      vertex 17.6871 3.85257 0
      vertex 17.1791 4.22164 0
    endloop
  endfacet
  facet normal 0.998029 -0.0627485 0
    outer loop
      vertex 19.4606 -0.626666 1
      vertex 19.5 0 0
      vertex 19.5 0 1
    endloop
  endfacet
  facet normal 0.998029 -0.0627485 0
    outer loop
      vertex 19.5 0 0
      vertex 19.4606 -0.626666 1
      vertex 19.4606 -0.626666 0
    endloop
  endfacet
  facet normal 0.248691 -0.968583 0
    outer loop
      vertex 15.4369 -4.91144 0
      vertex 16.0451 -4.75528 1
      vertex 15.4369 -4.91144 1
    endloop
  endfacet
  facet normal 0.248691 -0.968583 0
    outer loop
      vertex 16.0451 -4.75528 1
      vertex 15.4369 -4.91144 0
      vertex 16.0451 -4.75528 0
    endloop
  endfacet
  facet normal 0.481772 -0.876297 0
    outer loop
      vertex 16.6289 -4.52413 0
      vertex 17.1791 -4.22164 1
      vertex 16.6289 -4.52413 1
    endloop
  endfacet
  facet normal 0.481772 -0.876297 0
    outer loop
      vertex 17.1791 -4.22164 1
      vertex 16.6289 -4.52413 0
      vertex 17.1791 -4.22164 0
    endloop
  endfacet
  facet normal 0.904797 0.425843 0
    outer loop
      vertex 19.1489 1.84062 1
      vertex 18.8815 2.40877 0
      vertex 18.8815 2.40877 1
    endloop
  endfacet
  facet normal 0.904797 0.425843 0
    outer loop
      vertex 18.8815 2.40877 0
      vertex 19.1489 1.84062 1
      vertex 19.1489 1.84062 0
    endloop
  endfacet
  facet normal 0.951072 0.30897 0
    outer loop
      vertex 19.3429 1.24345 1
      vertex 19.1489 1.84062 0
      vertex 19.1489 1.84062 1
    endloop
  endfacet
  facet normal 0.951072 0.30897 0
    outer loop
      vertex 19.1489 1.84062 0
      vertex 19.3429 1.24345 1
      vertex 19.3429 1.24345 0
    endloop
  endfacet
  facet normal 0.982275 0.187446 0
    outer loop
      vertex 19.4606 0.626666 1
      vertex 19.3429 1.24345 0
      vertex 19.3429 1.24345 1
    endloop
  endfacet
  facet normal 0.982275 0.187446 0
    outer loop
      vertex 19.3429 1.24345 0
      vertex 19.4606 0.626666 1
      vertex 19.4606 0.626666 0
    endloop
  endfacet
  facet normal 0 1 -0
    outer loop
      vertex 14.814 4.99013 0
      vertex 14.186 4.99013 1
      vertex 14.814 4.99013 1
    endloop
  endfacet
  facet normal 0 1 0
    outer loop
      vertex 14.186 4.99013 1
      vertex 14.814 4.99013 0
      vertex 14.186 4.99013 0
    endloop
  endfacet
  facet normal 0.770468 -0.637478 0
    outer loop
      vertex 18.1448 -3.42274 1
      vertex 18.5451 -2.93893 0
      vertex 18.5451 -2.93893 1
    endloop
  endfacet
  facet normal 0.770468 -0.637478 0
    outer loop
      vertex 18.5451 -2.93893 0
      vertex 18.1448 -3.42274 1
      vertex 18.1448 -3.42274 0
    endloop
  endfacet
  facet normal 0.844364 -0.53577 0
    outer loop
      vertex 18.5451 -2.93893 1
      vertex 18.8815 -2.40877 0
      vertex 18.8815 -2.40877 1
    endloop
  endfacet
  facet normal 0.844364 -0.53577 0
    outer loop
      vertex 18.8815 -2.40877 0
      vertex 18.5451 -2.93893 1
      vertex 18.5451 -2.93893 0
    endloop
  endfacet
  facet normal 0.904797 -0.425843 0
    outer loop
      vertex 18.8815 -2.40877 1
      vertex 19.1489 -1.84062 0
      vertex 19.1489 -1.84062 1
    endloop
  endfacet
  facet normal 0.904797 -0.425843 0
    outer loop
      vertex 19.1489 -1.84062 0
      vertex 18.8815 -2.40877 1
      vertex 18.8815 -2.40877 0
    endloop
  endfacet
  facet normal -0.125332 -0.992115 0
    outer loop
      vertex 13.5631 -4.91144 0
      vertex 14.186 -4.99013 1
      vertex 13.5631 -4.91144 1
    endloop
  endfacet
  facet normal -0.125332 -0.992115 -0
    outer loop
      vertex 14.186 -4.99013 1
      vertex 13.5631 -4.91144 0
      vertex 14.186 -4.99013 0
    endloop
  endfacet
  facet normal 0.368135 -0.929773 0
    outer loop
      vertex 16.0451 -4.75528 0
      vertex 16.6289 -4.52413 1
      vertex 16.0451 -4.75528 1
    endloop
  endfacet
  facet normal 0.368135 -0.929773 0
    outer loop
      vertex 16.6289 -4.52413 1
      vertex 16.0451 -4.75528 0
      vertex 16.6289 -4.52413 0
    endloop
  endfacet
  facet normal 0.684565 -0.728952 0
    outer loop
      vertex 17.6871 -3.85257 0
      vertex 18.1448 -3.42274 1
      vertex 17.6871 -3.85257 1
    endloop
  endfacet
  facet normal 0.684565 -0.728952 0
    outer loop
      vertex 18.1448 -3.42274 1
      vertex 17.6871 -3.85257 0
      vertex 18.1448 -3.42274 0
    endloop
  endfacet
  facet normal 0.587771 -0.809027 0
    outer loop
      vertex 17.1791 -4.22164 0
      vertex 17.6871 -3.85257 1
      vertex 17.1791 -4.22164 1
    endloop
  endfacet
  facet normal 0.587771 -0.809027 0
    outer loop
      vertex 17.6871 -3.85257 1
      vertex 17.1791 -4.22164 0
      vertex 17.6871 -3.85257 0
    endloop
  endfacet
  facet normal 0.125332 -0.992115 0
    outer loop
      vertex 14.814 -4.99013 0
      vertex 15.4369 -4.91144 1
      vertex 14.814 -4.99013 1
    endloop
  endfacet
  facet normal 0.125332 -0.992115 0
    outer loop
      vertex 15.4369 -4.91144 1
      vertex 14.814 -4.99013 0
      vertex 15.4369 -4.91144 0
    endloop
  endfacet
  facet normal -0.251634 -0.967823 0
    outer loop
      vertex 13.5626 -4.91131 0
      vertex 13.5631 -4.91144 1
      vertex 13.5626 -4.91131 1
    endloop
  endfacet
  facet normal -0.251634 -0.967823 -0
    outer loop
      vertex 13.5631 -4.91144 1
      vertex 13.5626 -4.91131 0
      vertex 13.5631 -4.91144 0
    endloop
  endfacet
  facet normal 0 -1 0
    outer loop
      vertex 14.186 -4.99013 0
      vertex 14.814 -4.99013 1
      vertex 14.186 -4.99013 1
    endloop
  endfacet
  facet normal 0 -1 -0
    outer loop
      vertex 14.814 -4.99013 1
      vertex 14.186 -4.99013 0
      vertex 14.814 -4.99013 0
    endloop
  endfacet
endsolid OpenSCAD_Model
