<?xml version="1.0" standalone="no"?>
<!DOCTYPE svg PUBLIC "-//W3C//DTD SVG 1.1//EN" "http://www.w3.org/Graphics/SVG/1.1/DTD/svg11.dtd">
<svg width="74mm" height="108mm" viewBox="-37 -171 74 108" xmlns="http://www.w3.org/2000/svg" version="1.1">
<title>OpenSCAD Model</title>
<path d="
M 32.9369,-141.589 L 33.5451,-141.745 L 34.1289,-141.976 L 34.6791,-142.278 L 35.1871,-142.647 L 35.6448,-143.077
 L 36.0451,-143.561 L 36.3815,-144.091 L 36.6489,-144.659 L 36.8429,-145.257 L 36.9606,-145.873 L 37,-146.5
 L 37,-165.5 L 36.9606,-166.127 L 36.8429,-166.743 L 36.6489,-167.341 L 36.3815,-167.909 L 36.0451,-168.439
 L 35.6448,-168.923 L 35.1871,-169.353 L 34.6791,-169.722 L 34.1289,-170.024 L 33.5451,-170.255 L 32.9369,-170.411
 L 32.3139,-170.49 L -32.3139,-170.49 L -32.9369,-170.411 L -33.5451,-170.255 L -34.1289,-170.024 L -34.6791,-169.722
 L -35.1871,-169.353 L -35.6448,-168.923 L -36.0451,-168.439 L -36.3815,-167.909 L -36.6489,-167.341 L -36.8429,-166.743
 L -36.9606,-166.127 L -37,-165.5 L -37,-146.5 L -36.9606,-145.873 L -36.8429,-145.257 L -36.6489,-144.659
 L -36.3815,-144.091 L -36.0451,-143.561 L -35.6448,-143.077 L -35.1871,-142.647 L -34.6791,-142.278 L -34.1289,-141.976
 L -33.5451,-141.745 L -32.9369,-141.589 L -32.3139,-141.51 L 32.3139,-141.51 z
M -32.2432,-142.635 L -32.7256,-142.696 L -33.1967,-142.817 L -33.6489,-142.996 L -34.0751,-143.23 L -34.4685,-143.516
 L -34.823,-143.849 L -35.133,-144.224 L -35.3936,-144.634 L -35.6007,-145.074 L -35.751,-145.537 L -35.8421,-146.015
 L -35.8726,-146.5 L -35.8726,-165.5 L -35.8421,-165.985 L -35.751,-166.463 L -35.6007,-166.926 L -35.3936,-167.366
 L -35.133,-167.776 L -34.823,-168.151 L -34.4685,-168.484 L -34.0751,-168.77 L -33.6489,-169.004 L -33.1967,-169.183
 L -32.7256,-169.304 L -32.2432,-169.365 L 32.2432,-169.365 L 32.7256,-169.304 L 33.1967,-169.183 L 33.6489,-169.004
 L 34.0751,-168.77 L 34.4685,-168.484 L 34.823,-168.151 L 35.133,-167.776 L 35.3936,-167.366 L 35.6007,-166.926
 L 35.751,-166.463 L 35.8421,-165.985 L 35.8726,-165.5 L 35.8726,-146.5 L 35.8421,-146.015 L 35.751,-145.537
 L 35.6007,-145.074 L 35.3936,-144.634 L 35.133,-144.224 L 34.823,-143.849 L 34.4685,-143.516 L 34.0751,-143.23
 L 33.6489,-142.996 L 33.1967,-142.817 L 32.7256,-142.696 L 32.2432,-142.635 z
M 32.9369,-102.589 L 33.5451,-102.745 L 34.1289,-102.976 L 34.6791,-103.278 L 35.1871,-103.647 L 35.6448,-104.077
 L 36.0451,-104.561 L 36.3815,-105.091 L 36.6489,-105.659 L 36.8429,-106.257 L 36.9606,-106.873 L 37,-107.5
 L 37,-126.5 L 36.9606,-127.127 L 36.8429,-127.743 L 36.6489,-128.341 L 36.3815,-128.909 L 36.0451,-129.439
 L 35.6448,-129.923 L 35.1871,-130.353 L 34.6791,-130.722 L 34.1289,-131.024 L 33.5451,-131.255 L 32.9369,-131.411
 L 32.3139,-131.49 L -32.3139,-131.49 L -32.9369,-131.411 L -33.5451,-131.255 L -34.1289,-131.024 L -34.6791,-130.722
 L -35.1871,-130.353 L -35.6448,-129.923 L -36.0451,-129.439 L -36.3815,-128.909 L -36.6489,-128.341 L -36.8429,-127.743
 L -36.9606,-127.127 L -37,-126.5 L -37,-107.5 L -36.9606,-106.873 L -36.8429,-106.257 L -36.6489,-105.659
 L -36.3815,-105.091 L -36.0451,-104.561 L -35.6448,-104.077 L -35.1871,-103.647 L -34.6791,-103.278 L -34.1289,-102.976
 L -33.5451,-102.745 L -32.9369,-102.589 L -32.3139,-102.51 L 32.3139,-102.51 z
M 32.9369,-63.5886 L 33.5451,-63.7447 L 34.1289,-63.9759 L 34.6791,-64.2784 L 35.1871,-64.6474 L 35.6448,-65.0773
 L 36.0451,-65.5611 L 36.3815,-66.0912 L 36.6489,-66.6594 L 36.8429,-67.2566 L 36.9606,-67.8733 L 37,-68.5
 L 37,-87.5 L 36.9606,-88.1267 L 36.8429,-88.7434 L 36.6489,-89.3406 L 36.3815,-89.9088 L 36.0451,-90.4389
 L 35.6448,-90.9227 L 35.1871,-91.3526 L 34.6791,-91.7216 L 34.1289,-92.0241 L 33.5451,-92.2553 L 32.9369,-92.4114
 L 32.3139,-92.4901 L -32.3139,-92.4901 L -32.9369,-92.4114 L -33.5451,-92.2553 L -34.1289,-92.0241 L -34.6791,-91.7216
 L -35.1871,-91.3526 L -35.6448,-90.9227 L -36.0451,-90.4389 L -36.3815,-89.9088 L -36.6489,-89.3406 L -36.8429,-88.7434
 L -36.9606,-88.1267 L -37,-87.5 L -37,-68.5 L -36.9606,-67.8733 L -36.8429,-67.2566 L -36.6489,-66.6594
 L -36.3815,-66.0912 L -36.0451,-65.5611 L -35.6448,-65.0773 L -35.1871,-64.6474 L -34.6791,-64.2784 L -34.1289,-63.9759
 L -33.5451,-63.7447 L -32.9369,-63.5886 L -32.3139,-63.5099 L 32.3139,-63.5099 z
M 29.8493,-83.1047 L 29.5503,-83.1425 L 29.2583,-83.2175 L 28.9781,-83.3284 L 28.714,-83.4736 L 28.4702,-83.6508
 L 28.2505,-83.8571 L 28.0583,-84.0893 L 27.8969,-84.3438 L 27.7685,-84.6165 L 27.6754,-84.9031 L 27.6189,-85.1992
 L 27.6,-85.5 L 27.6189,-85.8008 L 27.6754,-86.0968 L 27.7685,-86.3835 L 27.8969,-86.6562 L 28.0583,-86.9107
 L 28.2505,-87.1429 L 28.4702,-87.3492 L 28.714,-87.5264 L 28.9781,-87.6716 L 29.2583,-87.7825 L 29.5503,-87.8575
 L 29.8493,-87.8953 L 30.1507,-87.8953 L 30.4497,-87.8575 L 30.7416,-87.7825 L 31.0219,-87.6716 L 31.286,-87.5264
 L 31.5298,-87.3492 L 31.7495,-87.1429 L 31.9416,-86.9107 L 32.1031,-86.6562 L 32.2315,-86.3835 L 32.3246,-86.0968
 L 32.3811,-85.8008 L 32.4,-85.5 L 32.3811,-85.1992 L 32.3246,-84.9031 L 32.2315,-84.6165 L 32.1031,-84.3438
 L 31.9416,-84.0893 L 31.7495,-83.8571 L 31.5298,-83.6508 L 31.286,-83.4736 L 31.0219,-83.3284 L 30.7416,-83.2175
 L 30.4497,-83.1425 L 30.1507,-83.1047 z
M -30.1507,-83.1047 L -30.4497,-83.1425 L -30.7416,-83.2175 L -31.0219,-83.3284 L -31.286,-83.4736 L -31.5298,-83.6508
 L -31.7495,-83.8571 L -31.9416,-84.0893 L -32.1031,-84.3438 L -32.2315,-84.6165 L -32.3246,-84.9031 L -32.3811,-85.1992
 L -32.4,-85.5 L -32.3811,-85.8008 L -32.3246,-86.0968 L -32.2315,-86.3835 L -32.1031,-86.6562 L -31.9416,-86.9107
 L -31.7495,-87.1429 L -31.5298,-87.3492 L -31.286,-87.5264 L -31.0219,-87.6716 L -30.7416,-87.7825 L -30.4497,-87.8575
 L -30.1507,-87.8953 L -29.8493,-87.8953 L -29.5503,-87.8575 L -29.2583,-87.7825 L -28.9781,-87.6716 L -28.714,-87.5264
 L -28.4702,-87.3492 L -28.2505,-87.1429 L -28.0583,-86.9107 L -27.8969,-86.6562 L -27.7685,-86.3835 L -27.6754,-86.0968
 L -27.6189,-85.8008 L -27.6,-85.5 L -27.6189,-85.1992 L -27.6754,-84.9031 L -27.7685,-84.6165 L -27.8969,-84.3438
 L -28.0583,-84.0893 L -28.2505,-83.8571 L -28.4702,-83.6508 L -28.714,-83.4736 L -28.9781,-83.3284 L -29.2583,-83.2175
 L -29.5503,-83.1425 L -29.8493,-83.1047 z
M -30.1507,-68.1047 L -30.4497,-68.1425 L -30.7416,-68.2175 L -31.0219,-68.3284 L -31.286,-68.4736 L -31.5298,-68.6508
 L -31.7495,-68.8571 L -31.9416,-69.0893 L -32.1031,-69.3438 L -32.2315,-69.6165 L -32.3246,-69.9032 L -32.3811,-70.1992
 L -32.4,-70.5 L -32.3811,-70.8008 L -32.3246,-71.0969 L -32.2315,-71.3835 L -32.1031,-71.6562 L -31.9416,-71.9107
 L -31.7495,-72.1429 L -31.5298,-72.3492 L -31.286,-72.5264 L -31.0219,-72.6716 L -30.7416,-72.7825 L -30.4497,-72.8575
 L -30.1507,-72.8953 L -29.8493,-72.8953 L -29.5503,-72.8575 L -29.2583,-72.7825 L -28.9781,-72.6716 L -28.714,-72.5264
 L -28.4702,-72.3492 L -28.2505,-72.1429 L -28.0583,-71.9107 L -27.8969,-71.6562 L -27.7685,-71.3835 L -27.6754,-71.0969
 L -27.6189,-70.8008 L -27.6,-70.5 L -27.6189,-70.1992 L -27.6754,-69.9032 L -27.7685,-69.6165 L -27.8969,-69.3438
 L -28.0583,-69.0893 L -28.2505,-68.8571 L -28.4702,-68.6508 L -28.714,-68.4736 L -28.9781,-68.3284 L -29.2583,-68.2175
 L -29.5503,-68.1425 L -29.8493,-68.1047 z
M 29.8493,-68.1047 L 29.5503,-68.1425 L 29.2583,-68.2175 L 28.9781,-68.3284 L 28.714,-68.4736 L 28.4702,-68.6508
 L 28.2505,-68.8571 L 28.0583,-69.0893 L 27.8969,-69.3438 L 27.7685,-69.6165 L 27.6754,-69.9032 L 27.6189,-70.1992
 L 27.6,-70.5 L 27.6189,-70.8008 L 27.6754,-71.0969 L 27.7685,-71.3835 L 27.8969,-71.6562 L 28.0583,-71.9107
 L 28.2505,-72.1429 L 28.4702,-72.3492 L 28.714,-72.5264 L 28.9781,-72.6716 L 29.2583,-72.7825 L 29.5503,-72.8575
 L 29.8493,-72.8953 L 30.1507,-72.8953 L 30.4497,-72.8575 L 30.7416,-72.7825 L 31.0219,-72.6716 L 31.286,-72.5264
 L 31.5298,-72.3492 L 31.7495,-72.1429 L 31.9416,-71.9107 L 32.1031,-71.6562 L 32.2315,-71.3835 L 32.3246,-71.0969
 L 32.3811,-70.8008 L 32.4,-70.5 L 32.3811,-70.1992 L 32.3246,-69.9032 L 32.2315,-69.6165 L 32.1031,-69.3438
 L 31.9416,-69.0893 L 31.7495,-68.8571 L 31.5298,-68.6508 L 31.286,-68.4736 L 31.0219,-68.3284 L 30.7416,-68.2175
 L 30.4497,-68.1425 L 30.1507,-68.1047 z
" stroke="black" fill="lightgray" stroke-width="0.5"/>
</svg>
