<?xml version="1.0" standalone="no"?>
<!DOCTYPE svg PUBLIC "-//W3C//DTD SVG 1.1//EN" "http://www.w3.org/Graphics/SVG/1.1/DTD/svg11.dtd">
<svg width="76mm" height="411mm" viewBox="-39 -794 76 411" xmlns="http://www.w3.org/2000/svg" version="1.1">
<title>OpenSCAD Model</title>
<path d="
M -36,-721.007 L -35.6448,-720.577 L -35.1871,-720.147 L -34.6791,-719.778 L -34.1289,-719.476 L -33.5451,-719.245
 L -32.9369,-719.089 L -32.3139,-719.01 L 32.3139,-719.01 L 32.9369,-719.089 L 33.5451,-719.245 L 34.1289,-719.476
 L 34.6791,-719.778 L 35.1871,-720.147 L 35.6448,-720.577 L 36.0451,-721.061 L 36.3815,-721.591 L 36.6489,-722.159
 L 36.8429,-722.757 L 36.9606,-723.373 L 37,-724 L 37,-788 L 36.9606,-788.627 L 36.8429,-789.243
 L 36.6489,-789.841 L 36.3815,-790.409 L 36.0451,-790.939 L 35.6448,-791.423 L 35.1871,-791.853 L 34.6791,-792.222
 L 34.1289,-792.524 L 33.5451,-792.755 L 32.9369,-792.911 L 32.3139,-792.99 L -32.3139,-792.99 L -32.9369,-792.911
 L -33.5451,-792.755 L -34.1289,-792.524 L -34.6791,-792.222 L -35.1871,-791.853 L -35.6448,-791.423 L -36,-790.993
 L -36,-793.49 L -39,-793.49 L -39,-718.51 L -36,-718.51 z
M -32.2512,-720.008 L -32.7495,-720.071 L -33.2361,-720.196 L -33.7031,-720.381 L -34.1433,-720.623 L -34.5497,-720.918
 L -34.9159,-721.262 L -35.2361,-721.649 L -35.5052,-722.073 L -35.7191,-722.528 L -35.8743,-723.005 L -35.9685,-723.499
 L -36,-724 L -36,-788 L -35.9685,-788.501 L -35.8743,-788.995 L -35.7191,-789.472 L -35.5052,-789.927
 L -35.2361,-790.351 L -34.9159,-790.738 L -34.5497,-791.082 L -34.1433,-791.377 L -33.7031,-791.619 L -33.2361,-791.804
 L -32.7495,-791.929 L -32.2512,-791.992 L 32.2512,-791.992 L 32.7495,-791.929 L 33.2361,-791.804 L 33.7031,-791.619
 L 34.1433,-791.377 L 34.5497,-791.082 L 34.9159,-790.738 L 35.2361,-790.351 L 35.5052,-789.927 L 35.7191,-789.472
 L 35.8743,-788.995 L 35.9685,-788.501 L 36,-788 L 36,-724 L 35.9685,-723.499 L 35.8743,-723.005
 L 35.7191,-722.528 L 35.5052,-722.073 L 35.2361,-721.649 L 34.9159,-721.262 L 34.5497,-720.918 L 34.1433,-720.623
 L 33.7031,-720.381 L 33.2361,-720.196 L 32.7495,-720.071 L 32.2512,-720.008 z
M -36,-637.007 L -35.6448,-636.577 L -35.1871,-636.147 L -34.6791,-635.778 L -34.1289,-635.476 L -33.5451,-635.245
 L -32.9369,-635.089 L -32.3139,-635.01 L 32.3139,-635.01 L 32.9369,-635.089 L 33.5451,-635.245 L 34.1289,-635.476
 L 34.6791,-635.778 L 35.1871,-636.147 L 35.6448,-636.577 L 36.0451,-637.061 L 36.3815,-637.591 L 36.6489,-638.159
 L 36.8429,-638.757 L 36.9606,-639.373 L 37,-640 L 37,-704 L 36.9606,-704.627 L 36.8429,-705.243
 L 36.6489,-705.841 L 36.3815,-706.409 L 36.0451,-706.939 L 35.6448,-707.423 L 35.1871,-707.853 L 34.6791,-708.222
 L 34.1289,-708.524 L 33.5451,-708.755 L 32.9369,-708.911 L 32.3139,-708.99 L -32.3139,-708.99 L -32.9369,-708.911
 L -33.5451,-708.755 L -34.1289,-708.524 L -34.6791,-708.222 L -35.1871,-707.853 L -35.6448,-707.423 L -36,-706.993
 L -36,-709.49 L -39,-709.49 L -39,-634.51 L -36,-634.51 z
M -32.2512,-636.008 L -32.7495,-636.071 L -33.2361,-636.196 L -33.7031,-636.381 L -34.1433,-636.623 L -34.5497,-636.918
 L -34.9159,-637.262 L -35.2361,-637.649 L -35.5052,-638.073 L -35.7191,-638.528 L -35.8743,-639.005 L -35.9685,-639.499
 L -36,-640 L -36,-704 L -35.9685,-704.501 L -35.8743,-704.995 L -35.7191,-705.472 L -35.5052,-705.927
 L -35.2361,-706.351 L -34.9159,-706.738 L -34.5497,-707.082 L -34.1433,-707.377 L -33.7031,-707.619 L -33.2361,-707.804
 L -32.7495,-707.929 L -32.2512,-707.992 L 32.2512,-707.992 L 32.7495,-707.929 L 33.2361,-707.804 L 33.7031,-707.619
 L 34.1433,-707.377 L 34.5497,-707.082 L 34.9159,-706.738 L 35.2361,-706.351 L 35.5052,-705.927 L 35.7191,-705.472
 L 35.8743,-704.995 L 35.9685,-704.501 L 36,-704 L 36,-640 L 35.9685,-639.499 L 35.8743,-639.005
 L 35.7191,-638.528 L 35.5052,-638.073 L 35.2361,-637.649 L 34.9159,-637.262 L 34.5497,-636.918 L 34.1433,-636.623
 L 33.7031,-636.381 L 33.2361,-636.196 L 32.7495,-636.071 L 32.2512,-636.008 z
M -36,-553.007 L -35.6448,-552.577 L -35.1871,-552.147 L -34.6791,-551.778 L -34.1289,-551.476 L -33.5451,-551.245
 L -32.9369,-551.089 L -32.3139,-551.01 L 32.3139,-551.01 L 32.9369,-551.089 L 33.5451,-551.245 L 34.1289,-551.476
 L 34.6791,-551.778 L 35.1871,-552.147 L 35.6448,-552.577 L 36.0451,-553.061 L 36.3815,-553.591 L 36.6489,-554.159
 L 36.8429,-554.757 L 36.9606,-555.373 L 37,-556 L 37,-620 L 36.9606,-620.627 L 36.8429,-621.243
 L 36.6489,-621.841 L 36.3815,-622.409 L 36.0451,-622.939 L 35.6448,-623.423 L 35.1871,-623.853 L 34.6791,-624.222
 L 34.1289,-624.524 L 33.5451,-624.755 L 32.9369,-624.911 L 32.3139,-624.99 L -32.3139,-624.99 L -32.9369,-624.911
 L -33.5451,-624.755 L -34.1289,-624.524 L -34.6791,-624.222 L -35.1871,-623.853 L -35.6448,-623.423 L -36,-622.993
 L -36,-625.49 L -39,-625.49 L -39,-550.51 L -36,-550.51 z
M -32.2512,-552.008 L -32.7495,-552.071 L -33.2361,-552.196 L -33.7031,-552.381 L -34.1433,-552.623 L -34.5497,-552.918
 L -34.9159,-553.262 L -35.2361,-553.649 L -35.5052,-554.073 L -35.7191,-554.528 L -35.8743,-555.005 L -35.9685,-555.499
 L -36,-556 L -36,-620 L -35.9685,-620.501 L -35.8743,-620.995 L -35.7191,-621.472 L -35.5052,-621.927
 L -35.2361,-622.351 L -34.9159,-622.738 L -34.5497,-623.082 L -34.1433,-623.377 L -33.7031,-623.619 L -33.2361,-623.804
 L -32.7495,-623.929 L -32.2512,-623.992 L 32.2512,-623.992 L 32.7495,-623.929 L 33.2361,-623.804 L 33.7031,-623.619
 L 34.1433,-623.377 L 34.5497,-623.082 L 34.9159,-622.738 L 35.2361,-622.351 L 35.5052,-621.927 L 35.7191,-621.472
 L 35.8743,-620.995 L 35.9685,-620.501 L 36,-620 L 36,-556 L 35.9685,-555.499 L 35.8743,-555.005
 L 35.7191,-554.528 L 35.5052,-554.073 L 35.2361,-553.649 L 34.9159,-553.262 L 34.5497,-552.918 L 34.1433,-552.623
 L 33.7031,-552.381 L 33.2361,-552.196 L 32.7495,-552.071 L 32.2512,-552.008 z
M -36,-469.007 L -35.6448,-468.577 L -35.1871,-468.147 L -34.6791,-467.778 L -34.1289,-467.476 L -33.5451,-467.245
 L -32.9369,-467.089 L -32.3139,-467.01 L 32.3139,-467.01 L 32.9369,-467.089 L 33.5451,-467.245 L 34.1289,-467.476
 L 34.6791,-467.778 L 35.1871,-468.147 L 35.6448,-468.577 L 36.0451,-469.061 L 36.3815,-469.591 L 36.6489,-470.159
 L 36.8429,-470.757 L 36.9606,-471.373 L 37,-472 L 37,-536 L 36.9606,-536.627 L 36.8429,-537.243
 L 36.6489,-537.841 L 36.3815,-538.409 L 36.0451,-538.939 L 35.6448,-539.423 L 35.1871,-539.853 L 34.6791,-540.222
 L 34.1289,-540.524 L 33.5451,-540.755 L 32.9369,-540.911 L 32.3139,-540.99 L -32.3139,-540.99 L -32.9369,-540.911
 L -33.5451,-540.755 L -34.1289,-540.524 L -34.6791,-540.222 L -35.1871,-539.853 L -35.6448,-539.423 L -36,-538.993
 L -36,-541.479 L -39,-541.479 L -39,-466.521 L -36,-466.521 z
M -32.1954,-468.893 L -32.5833,-468.942 L -32.9619,-469.039 L -33.3254,-469.183 L -33.668,-469.372 L -33.9842,-469.601
 L -34.2692,-469.869 L -34.5184,-470.17 L -34.7279,-470.5 L -34.8943,-470.854 L -35.0151,-471.226 L -35.0884,-471.61
 L -35.1129,-472 L -35.1129,-536 L -35.0884,-536.39 L -35.0151,-536.774 L -34.8943,-537.146 L -34.7279,-537.5
 L -34.5184,-537.83 L -34.2692,-538.131 L -33.9842,-538.399 L -33.668,-538.628 L -33.3254,-538.817 L -32.9619,-538.961
 L -32.5833,-539.058 L -32.1954,-539.107 L 32.1954,-539.107 L 32.5833,-539.058 L 32.9619,-538.961 L 33.3254,-538.817
 L 33.668,-538.628 L 33.9842,-538.399 L 34.2692,-538.131 L 34.5184,-537.83 L 34.7279,-537.5 L 34.8943,-537.146
 L 35.0151,-536.774 L 35.0884,-536.39 L 35.1129,-536 L 35.1129,-472 L 35.0884,-471.61 L 35.0151,-471.226
 L 34.8943,-470.854 L 34.7279,-470.5 L 34.5184,-470.17 L 34.2692,-469.869 L 33.9842,-469.601 L 33.668,-469.372
 L 33.3254,-469.183 L 32.9619,-469.039 L 32.5833,-468.942 L 32.1954,-468.893 z
M 32.9369,-383.089 L 33.5451,-383.245 L 34.1289,-383.476 L 34.6791,-383.778 L 35.1871,-384.147 L 35.6448,-384.577
 L 36.0451,-385.061 L 36.3815,-385.591 L 36.6489,-386.159 L 36.8429,-386.757 L 36.9606,-387.373 L 37,-388
 L 37,-452 L 36.9606,-452.627 L 36.8429,-453.243 L 36.6489,-453.841 L 36.3815,-454.409 L 36.0451,-454.939
 L 35.6448,-455.423 L 35.1871,-455.853 L 34.6791,-456.222 L 34.1289,-456.524 L 33.5451,-456.755 L 32.9369,-456.911
 L 32.3139,-456.99 L -32.3139,-456.99 L -32.9369,-456.911 L -33.5451,-456.755 L -34.1289,-456.524 L -34.6791,-456.222
 L -35.1871,-455.853 L -35.6448,-455.423 L -36,-454.993 L -36,-456.153 L -39,-456.153 L -39,-383.847
 L -36,-383.847 L -36,-385.007 L -35.6448,-384.577 L -35.1871,-384.147 L -34.6791,-383.778 L -34.1289,-383.476
 L -33.5451,-383.245 L -32.9369,-383.089 L -32.3139,-383.01 L 32.3139,-383.01 z
M -30.1507,-447.605 L -30.4497,-447.643 L -30.7416,-447.717 L -31.0219,-447.828 L -31.286,-447.974 L -31.5298,-448.151
 L -31.7495,-448.357 L -31.9416,-448.589 L -32.1031,-448.844 L -32.2315,-449.117 L -32.3246,-449.403 L -32.3811,-449.699
 L -32.4,-450 L -32.3811,-450.301 L -32.3246,-450.597 L -32.2315,-450.883 L -32.1031,-451.156 L -31.9416,-451.411
 L -31.7495,-451.643 L -31.5298,-451.849 L -31.286,-452.026 L -31.0219,-452.172 L -30.7416,-452.283 L -30.4497,-452.357
 L -30.1507,-452.395 L -29.8493,-452.395 L -29.5503,-452.357 L -29.2583,-452.283 L -28.9781,-452.172 L -28.714,-452.026
 L -28.4702,-451.849 L -28.2505,-451.643 L -28.0583,-451.411 L -27.8969,-451.156 L -27.7685,-450.883 L -27.6754,-450.597
 L -27.6189,-450.301 L -27.6,-450 L -27.6189,-449.699 L -27.6754,-449.403 L -27.7685,-449.117 L -27.8969,-448.844
 L -28.0583,-448.589 L -28.2505,-448.357 L -28.4702,-448.151 L -28.714,-447.974 L -28.9781,-447.828 L -29.2583,-447.717
 L -29.5503,-447.643 L -29.8493,-447.605 z
M 29.8493,-447.605 L 29.5503,-447.643 L 29.2583,-447.717 L 28.9781,-447.828 L 28.714,-447.974 L 28.4702,-448.151
 L 28.2505,-448.357 L 28.0583,-448.589 L 27.8969,-448.844 L 27.7685,-449.117 L 27.6754,-449.403 L 27.6189,-449.699
 L 27.6,-450 L 27.6189,-450.301 L 27.6754,-450.597 L 27.7685,-450.883 L 27.8969,-451.156 L 28.0583,-451.411
 L 28.2505,-451.643 L 28.4702,-451.849 L 28.714,-452.026 L 28.9781,-452.172 L 29.2583,-452.283 L 29.5503,-452.357
 L 29.8493,-452.395 L 30.1507,-452.395 L 30.4497,-452.357 L 30.7416,-452.283 L 31.0219,-452.172 L 31.286,-452.026
 L 31.5298,-451.849 L 31.7495,-451.643 L 31.9416,-451.411 L 32.1031,-451.156 L 32.2315,-450.883 L 32.3246,-450.597
 L 32.3811,-450.301 L 32.4,-450 L 32.3811,-449.699 L 32.3246,-449.403 L 32.2315,-449.117 L 32.1031,-448.844
 L 31.9416,-448.589 L 31.7495,-448.357 L 31.5298,-448.151 L 31.286,-447.974 L 31.0219,-447.828 L 30.7416,-447.717
 L 30.4497,-447.643 L 30.1507,-447.605 z
M -30.1507,-387.605 L -30.4497,-387.643 L -30.7416,-387.717 L -31.0219,-387.828 L -31.286,-387.974 L -31.5298,-388.151
 L -31.7495,-388.357 L -31.9416,-388.589 L -32.1031,-388.844 L -32.2315,-389.117 L -32.3246,-389.403 L -32.3811,-389.699
 L -32.4,-390 L -32.3811,-390.301 L -32.3246,-390.597 L -32.2315,-390.883 L -32.1031,-391.156 L -31.9416,-391.411
 L -31.7495,-391.643 L -31.5298,-391.849 L -31.286,-392.026 L -31.0219,-392.172 L -30.7416,-392.283 L -30.4497,-392.357
 L -30.1507,-392.395 L -29.8493,-392.395 L -29.5503,-392.357 L -29.2583,-392.283 L -28.9781,-392.172 L -28.714,-392.026
 L -28.4702,-391.849 L -28.2505,-391.643 L -28.0583,-391.411 L -27.8969,-391.156 L -27.7685,-390.883 L -27.6754,-390.597
 L -27.6189,-390.301 L -27.6,-390 L -27.6189,-389.699 L -27.6754,-389.403 L -27.7685,-389.117 L -27.8969,-388.844
 L -28.0583,-388.589 L -28.2505,-388.357 L -28.4702,-388.151 L -28.714,-387.974 L -28.9781,-387.828 L -29.2583,-387.717
 L -29.5503,-387.643 L -29.8493,-387.605 z
M 29.8493,-387.605 L 29.5503,-387.643 L 29.2583,-387.717 L 28.9781,-387.828 L 28.714,-387.974 L 28.4702,-388.151
 L 28.2505,-388.357 L 28.0583,-388.589 L 27.8969,-388.844 L 27.7685,-389.117 L 27.6754,-389.403 L 27.6189,-389.699
 L 27.6,-390 L 27.6189,-390.301 L 27.6754,-390.597 L 27.7685,-390.883 L 27.8969,-391.156 L 28.0583,-391.411
 L 28.2505,-391.643 L 28.4702,-391.849 L 28.714,-392.026 L 28.9781,-392.172 L 29.2583,-392.283 L 29.5503,-392.357
 L 29.8493,-392.395 L 30.1507,-392.395 L 30.4497,-392.357 L 30.7416,-392.283 L 31.0219,-392.172 L 31.286,-392.026
 L 31.5298,-391.849 L 31.7495,-391.643 L 31.9416,-391.411 L 32.1031,-391.156 L 32.2315,-390.883 L 32.3246,-390.597
 L 32.3811,-390.301 L 32.4,-390 L 32.3811,-389.699 L 32.3246,-389.403 L 32.2315,-389.117 L 32.1031,-388.844
 L 31.9416,-388.589 L 31.7495,-388.357 L 31.5298,-388.151 L 31.286,-387.974 L 31.0219,-387.828 L 30.7416,-387.717
 L 30.4497,-387.643 L 30.1507,-387.605 z
" stroke="black" fill="lightgray" stroke-width="0.5"/>
</svg>
