  0
SECTION
  2
BLOCKS
  0
ENDSEC
  0
SECTION
  2
ENTITIES
  0
LINE
  8
0
 10
18.4369
 20
139.589
 11
19.0451
 21
139.745
  0
LINE
  8
0
 10
19.0451
 20
139.745
 11
19.6289
 21
139.976
  0
LINE
  8
0
 10
19.6289
 20
139.976
 11
20.1791
 21
140.278
  0
LINE
  8
0
 10
20.1791
 20
140.278
 11
20.6871
 21
140.647
  0
LINE
  8
0
 10
20.6871
 20
140.647
 11
21.1448
 21
141.077
  0
LINE
  8
0
 10
21.1448
 20
141.077
 11
21.5451
 21
141.561
  0
LINE
  8
0
 10
21.5451
 20
141.561
 11
21.8815
 21
142.091
  0
LINE
  8
0
 10
21.8815
 20
142.091
 11
22.1489
 21
142.659
  0
LINE
  8
0
 10
22.1489
 20
142.659
 11
22.3429
 21
143.257
  0
LINE
  8
0
 10
22.3429
 20
143.257
 11
22.4606
 21
143.873
  0
LINE
  8
0
 10
22.4606
 20
143.873
 11
22.5
 21
144.5
  0
LINE
  8
0
 10
22.5
 20
144.5
 11
22.5
 21
179.5
  0
LINE
  8
0
 10
22.5
 20
179.5
 11
22.4606
 21
180.127
  0
LINE
  8
0
 10
22.4606
 20
180.127
 11
22.3429
 21
180.743
  0
LINE
  8
0
 10
22.3429
 20
180.743
 11
22.1489
 21
181.341
  0
LINE
  8
0
 10
22.1489
 20
181.341
 11
21.8815
 21
181.909
  0
LINE
  8
0
 10
21.8815
 20
181.909
 11
21.5451
 21
182.439
  0
LINE
  8
0
 10
21.5451
 20
182.439
 11
21.1448
 21
182.923
  0
LINE
  8
0
 10
21.1448
 20
182.923
 11
20.6871
 21
183.353
  0
LINE
  8
0
 10
20.6871
 20
183.353
 11
20.1791
 21
183.722
  0
LINE
  8
0
 10
20.1791
 20
183.722
 11
19.6289
 21
184.024
  0
LINE
  8
0
 10
19.6289
 20
184.024
 11
19.0451
 21
184.255
  0
LINE
  8
0
 10
19.0451
 20
184.255
 11
18.4369
 21
184.411
  0
LINE
  8
0
 10
18.4369
 20
184.411
 11
17.8139
 21
184.49
  0
LINE
  8
0
 10
17.8139
 20
184.49
 11
-17.8139
 21
184.49
  0
LINE
  8
0
 10
-17.8139
 20
184.49
 11
-18.4369
 21
184.411
  0
LINE
  8
0
 10
-18.4369
 20
184.411
 11
-19.0451
 21
184.255
  0
LINE
  8
0
 10
-19.0451
 20
184.255
 11
-19.6289
 21
184.024
  0
LINE
  8
0
 10
-19.6289
 20
184.024
 11
-20.1791
 21
183.722
  0
LINE
  8
0
 10
-20.1791
 20
183.722
 11
-20.6871
 21
183.353
  0
LINE
  8
0
 10
-20.6871
 20
183.353
 11
-21.1448
 21
182.923
  0
LINE
  8
0
 10
-21.1448
 20
182.923
 11
-21.5451
 21
182.439
  0
LINE
  8
0
 10
-21.5451
 20
182.439
 11
-21.8815
 21
181.909
  0
LINE
  8
0
 10
-21.8815
 20
181.909
 11
-22.1489
 21
181.341
  0
LINE
  8
0
 10
-22.1489
 20
181.341
 11
-22.3429
 21
180.743
  0
LINE
  8
0
 10
-22.3429
 20
180.743
 11
-22.4606
 21
180.127
  0
LINE
  8
0
 10
-22.4606
 20
180.127
 11
-22.5
 21
179.5
  0
LINE
  8
0
 10
-22.5
 20
179.5
 11
-22.5
 21
144.5
  0
LINE
  8
0
 10
-22.5
 20
144.5
 11
-22.4606
 21
143.873
  0
LINE
  8
0
 10
-22.4606
 20
143.873
 11
-22.3429
 21
143.257
  0
LINE
  8
0
 10
-22.3429
 20
143.257
 11
-22.1489
 21
142.659
  0
LINE
  8
0
 10
-22.1489
 20
142.659
 11
-21.8815
 21
142.091
  0
LINE
  8
0
 10
-21.8815
 20
142.091
 11
-21.5451
 21
141.561
  0
LINE
  8
0
 10
-21.5451
 20
141.561
 11
-21.1448
 21
141.077
  0
LINE
  8
0
 10
-21.1448
 20
141.077
 11
-20.6871
 21
140.647
  0
LINE
  8
0
 10
-20.6871
 20
140.647
 11
-20.1791
 21
140.278
  0
LINE
  8
0
 10
-20.1791
 20
140.278
 11
-19.6289
 21
139.976
  0
LINE
  8
0
 10
-19.6289
 20
139.976
 11
-19.0451
 21
139.745
  0
LINE
  8
0
 10
-19.0451
 20
139.745
 11
-18.4369
 21
139.589
  0
LINE
  8
0
 10
-18.4369
 20
139.589
 11
-17.8139
 21
139.51
  0
LINE
  8
0
 10
-17.8139
 20
139.51
 11
17.8139
 21
139.51
  0
LINE
  8
0
 10
17.8139
 20
139.51
 11
18.4369
 21
139.589
  0
LINE
  8
0
 10
-12.2539
 20
140.04
 11
-11.8209
 21
140.278
  0
LINE
  8
0
 10
-11.8209
 20
140.278
 11
-11.3129
 21
140.647
  0
LINE
  8
0
 10
-11.3129
 20
140.647
 11
-10.8551
 21
141.077
  0
LINE
  8
0
 10
-10.8551
 20
141.077
 11
-10.4549
 21
141.561
  0
LINE
  8
0
 10
-10.4549
 20
141.561
 11
-10.1185
 21
142.091
  0
LINE
  8
0
 10
-10.1185
 20
142.091
 11
-9.8511
 21
142.659
  0
LINE
  8
0
 10
-9.8511
 20
142.659
 11
-9.65707
 21
143.257
  0
LINE
  8
0
 10
-9.65707
 20
143.257
 11
-9.53941
 21
143.873
  0
LINE
  8
0
 10
-9.53941
 20
143.873
 11
-9.5
 21
144.5
  0
LINE
  8
0
 10
-9.5
 20
144.5
 11
-9.5
 21
147.5
  0
LINE
  8
0
 10
-9.5
 20
147.5
 11
-9.53941
 21
148.127
  0
LINE
  8
0
 10
-9.53941
 20
148.127
 11
-9.65707
 21
148.743
  0
LINE
  8
0
 10
-9.65707
 20
148.743
 11
-9.8511
 21
149.341
  0
LINE
  8
0
 10
-9.8511
 20
149.341
 11
-10.1185
 21
149.909
  0
LINE
  8
0
 10
-10.1185
 20
149.909
 11
-10.4549
 21
150.439
  0
LINE
  8
0
 10
-10.4549
 20
150.439
 11
-10.8551
 21
150.923
  0
LINE
  8
0
 10
-10.8551
 20
150.923
 11
-11.3129
 21
151.353
  0
LINE
  8
0
 10
-11.3129
 20
151.353
 11
-11.8209
 21
151.722
  0
LINE
  8
0
 10
-11.8209
 20
151.722
 11
-12.3711
 21
152.024
  0
LINE
  8
0
 10
-12.3711
 20
152.024
 11
-12.9549
 21
152.255
  0
LINE
  8
0
 10
-12.9549
 20
152.255
 11
-13.5631
 21
152.411
  0
LINE
  8
0
 10
-13.5631
 20
152.411
 11
-14.186
 21
152.49
  0
LINE
  8
0
 10
-14.186
 20
152.49
 11
-17.8139
 21
152.49
  0
LINE
  8
0
 10
-17.8139
 20
152.49
 11
-18.4369
 21
152.411
  0
LINE
  8
0
 10
-18.4369
 20
152.411
 11
-19.0451
 21
152.255
  0
LINE
  8
0
 10
-19.0451
 20
152.255
 11
-19.6289
 21
152.024
  0
LINE
  8
0
 10
-19.6289
 20
152.024
 11
-20.1791
 21
151.722
  0
LINE
  8
0
 10
-20.1791
 20
151.722
 11
-20.6871
 21
151.353
  0
LINE
  8
0
 10
-20.6871
 20
151.353
 11
-21.1448
 21
150.923
  0
LINE
  8
0
 10
-21.1448
 20
150.923
 11
-21.5451
 21
150.439
  0
LINE
  8
0
 10
-21.5451
 20
150.439
 11
-21.8815
 21
149.909
  0
LINE
  8
0
 10
-21.8815
 20
149.909
 11
-21.9685
 21
149.724
  0
LINE
  8
0
 10
-21.9685
 20
149.724
 11
-21.9685
 21
179.5
  0
LINE
  8
0
 10
-21.9685
 20
179.5
 11
-21.9333
 21
180.06
  0
LINE
  8
0
 10
-21.9333
 20
180.06
 11
-21.8282
 21
180.611
  0
LINE
  8
0
 10
-21.8282
 20
180.611
 11
-21.6547
 21
181.145
  0
LINE
  8
0
 10
-21.6547
 20
181.145
 11
-21.4158
 21
181.653
  0
LINE
  8
0
 10
-21.4158
 20
181.653
 11
-21.1151
 21
182.127
  0
LINE
  8
0
 10
-21.1151
 20
182.127
 11
-20.7574
 21
182.559
  0
LINE
  8
0
 10
-20.7574
 20
182.559
 11
-20.3483
 21
182.943
  0
LINE
  8
0
 10
-20.3483
 20
182.943
 11
-19.8944
 21
183.273
  0
LINE
  8
0
 10
-19.8944
 20
183.273
 11
-19.4026
 21
183.543
  0
LINE
  8
0
 10
-19.4026
 20
183.543
 11
-18.8808
 21
183.75
  0
LINE
  8
0
 10
-18.8808
 20
183.75
 11
-18.3373
 21
183.889
  0
LINE
  8
0
 10
-18.3373
 20
183.889
 11
-17.7806
 21
183.96
  0
LINE
  8
0
 10
-17.7806
 20
183.96
 11
17.7806
 21
183.96
  0
LINE
  8
0
 10
17.7806
 20
183.96
 11
18.3373
 21
183.889
  0
LINE
  8
0
 10
18.3373
 20
183.889
 11
18.8808
 21
183.75
  0
LINE
  8
0
 10
18.8808
 20
183.75
 11
19.4026
 21
183.543
  0
LINE
  8
0
 10
19.4026
 20
183.543
 11
19.8944
 21
183.273
  0
LINE
  8
0
 10
19.8944
 20
183.273
 11
20.3483
 21
182.943
  0
LINE
  8
0
 10
20.3483
 20
182.943
 11
20.7574
 21
182.559
  0
LINE
  8
0
 10
20.7574
 20
182.559
 11
21.1151
 21
182.127
  0
LINE
  8
0
 10
21.1151
 20
182.127
 11
21.4158
 21
181.653
  0
LINE
  8
0
 10
21.4158
 20
181.653
 11
21.6547
 21
181.145
  0
LINE
  8
0
 10
21.6547
 20
181.145
 11
21.8282
 21
180.611
  0
LINE
  8
0
 10
21.8282
 20
180.611
 11
21.9333
 21
180.06
  0
LINE
  8
0
 10
21.9333
 20
180.06
 11
21.9685
 21
179.5
  0
LINE
  8
0
 10
21.9685
 20
179.5
 11
21.9685
 21
144.5
  0
LINE
  8
0
 10
21.9685
 20
144.5
 11
21.9333
 21
143.94
  0
LINE
  8
0
 10
21.9333
 20
143.94
 11
21.8282
 21
143.389
  0
LINE
  8
0
 10
21.8282
 20
143.389
 11
21.6547
 21
142.855
  0
LINE
  8
0
 10
21.6547
 20
142.855
 11
21.4158
 21
142.347
  0
LINE
  8
0
 10
21.4158
 20
142.347
 11
21.1151
 21
141.873
  0
LINE
  8
0
 10
21.1151
 20
141.873
 11
20.7574
 21
141.441
  0
LINE
  8
0
 10
20.7574
 20
141.441
 11
20.3483
 21
141.057
  0
LINE
  8
0
 10
20.3483
 20
141.057
 11
19.8944
 21
140.727
  0
LINE
  8
0
 10
19.8944
 20
140.727
 11
19.4026
 21
140.457
  0
LINE
  8
0
 10
19.4026
 20
140.457
 11
18.8808
 21
140.25
  0
LINE
  8
0
 10
18.8808
 20
140.25
 11
18.3373
 21
140.111
  0
LINE
  8
0
 10
18.3373
 20
140.111
 11
17.7806
 21
140.04
  0
LINE
  8
0
 10
17.7806
 20
140.04
 11
-12.2539
 21
140.04
  0
LINE
  8
0
 10
15.4684
 20
174.544
 11
15.7725
 21
174.622
  0
LINE
  8
0
 10
15.7725
 20
174.622
 11
16.0644
 21
174.738
  0
LINE
  8
0
 10
16.0644
 20
174.738
 11
16.3396
 21
174.889
  0
LINE
  8
0
 10
16.3396
 20
174.889
 11
16.5936
 21
175.074
  0
LINE
  8
0
 10
16.5936
 20
175.074
 11
16.8224
 21
175.289
  0
LINE
  8
0
 10
16.8224
 20
175.289
 11
17.0225
 21
175.531
  0
LINE
  8
0
 10
17.0225
 20
175.531
 11
17.1908
 21
175.796
  0
LINE
  8
0
 10
17.1908
 20
175.796
 11
17.3244
 21
176.08
  0
LINE
  8
0
 10
17.3244
 20
176.08
 11
17.4214
 21
176.378
  0
LINE
  8
0
 10
17.4214
 20
176.378
 11
17.4803
 21
176.687
  0
LINE
  8
0
 10
17.4803
 20
176.687
 11
17.5
 21
177
  0
LINE
  8
0
 10
17.5
 20
177
 11
17.4803
 21
177.313
  0
LINE
  8
0
 10
17.4803
 20
177.313
 11
17.4214
 21
177.622
  0
LINE
  8
0
 10
17.4214
 20
177.622
 11
17.3244
 21
177.92
  0
LINE
  8
0
 10
17.3244
 20
177.92
 11
17.1908
 21
178.204
  0
LINE
  8
0
 10
17.1908
 20
178.204
 11
17.0225
 21
178.469
  0
LINE
  8
0
 10
17.0225
 20
178.469
 11
16.8224
 21
178.711
  0
LINE
  8
0
 10
16.8224
 20
178.711
 11
16.5936
 21
178.926
  0
LINE
  8
0
 10
16.5936
 20
178.926
 11
16.3396
 21
179.111
  0
LINE
  8
0
 10
16.3396
 20
179.111
 11
16.0644
 21
179.262
  0
LINE
  8
0
 10
16.0644
 20
179.262
 11
15.7725
 21
179.378
  0
LINE
  8
0
 10
15.7725
 20
179.378
 11
15.4684
 21
179.456
  0
LINE
  8
0
 10
15.4684
 20
179.456
 11
15.157
 21
179.495
  0
LINE
  8
0
 10
15.157
 20
179.495
 11
14.843
 21
179.495
  0
LINE
  8
0
 10
14.843
 20
179.495
 11
14.5315
 21
179.456
  0
LINE
  8
0
 10
14.5315
 20
179.456
 11
14.2274
 21
179.378
  0
LINE
  8
0
 10
14.2274
 20
179.378
 11
13.9355
 21
179.262
  0
LINE
  8
0
 10
13.9355
 20
179.262
 11
13.6604
 21
179.111
  0
LINE
  8
0
 10
13.6604
 20
179.111
 11
13.4064
 21
178.926
  0
LINE
  8
0
 10
13.4064
 20
178.926
 11
13.1776
 21
178.711
  0
LINE
  8
0
 10
13.1776
 20
178.711
 11
12.9774
 21
178.469
  0
LINE
  8
0
 10
12.9774
 20
178.469
 11
12.8092
 21
178.204
  0
LINE
  8
0
 10
12.8092
 20
178.204
 11
12.6756
 21
177.92
  0
LINE
  8
0
 10
12.6756
 20
177.92
 11
12.5785
 21
177.622
  0
LINE
  8
0
 10
12.5785
 20
177.622
 11
12.5197
 21
177.313
  0
LINE
  8
0
 10
12.5197
 20
177.313
 11
12.5
 21
177
  0
LINE
  8
0
 10
12.5
 20
177
 11
12.5197
 21
176.687
  0
LINE
  8
0
 10
12.5197
 20
176.687
 11
12.5785
 21
176.378
  0
LINE
  8
0
 10
12.5785
 20
176.378
 11
12.6756
 21
176.08
  0
LINE
  8
0
 10
12.6756
 20
176.08
 11
12.8092
 21
175.796
  0
LINE
  8
0
 10
12.8092
 20
175.796
 11
12.9774
 21
175.531
  0
LINE
  8
0
 10
12.9774
 20
175.531
 11
13.1776
 21
175.289
  0
LINE
  8
0
 10
13.1776
 20
175.289
 11
13.4064
 21
175.074
  0
LINE
  8
0
 10
13.4064
 20
175.074
 11
13.6604
 21
174.889
  0
LINE
  8
0
 10
13.6604
 20
174.889
 11
13.9355
 21
174.738
  0
LINE
  8
0
 10
13.9355
 20
174.738
 11
14.2274
 21
174.622
  0
LINE
  8
0
 10
14.2274
 20
174.622
 11
14.5315
 21
174.544
  0
LINE
  8
0
 10
14.5315
 20
174.544
 11
14.843
 21
174.505
  0
LINE
  8
0
 10
14.843
 20
174.505
 11
15.157
 21
174.505
  0
LINE
  8
0
 10
15.157
 20
174.505
 11
15.4684
 21
174.544
  0
LINE
  8
0
 10
14.9058
 20
175.503
 11
14.7189
 21
175.527
  0
LINE
  8
0
 10
14.7189
 20
175.527
 11
14.5365
 21
175.573
  0
LINE
  8
0
 10
14.5365
 20
175.573
 11
14.3613
 21
175.643
  0
LINE
  8
0
 10
14.3613
 20
175.643
 11
14.1963
 21
175.734
  0
LINE
  8
0
 10
14.1963
 20
175.734
 11
14.0439
 21
175.844
  0
LINE
  8
0
 10
14.0439
 20
175.844
 11
13.9065
 21
175.973
  0
LINE
  8
0
 10
13.9065
 20
175.973
 11
13.7865
 21
176.118
  0
LINE
  8
0
 10
13.7865
 20
176.118
 11
13.6855
 21
176.277
  0
LINE
  8
0
 10
13.6855
 20
176.277
 11
13.6053
 21
176.448
  0
LINE
  8
0
 10
13.6053
 20
176.448
 11
13.5471
 21
176.627
  0
LINE
  8
0
 10
13.5471
 20
176.627
 11
13.5118
 21
176.812
  0
LINE
  8
0
 10
13.5118
 20
176.812
 11
13.5
 21
177
  0
LINE
  8
0
 10
13.5
 20
177
 11
13.5118
 21
177.188
  0
LINE
  8
0
 10
13.5118
 20
177.188
 11
13.5471
 21
177.373
  0
LINE
  8
0
 10
13.5471
 20
177.373
 11
13.6053
 21
177.552
  0
LINE
  8
0
 10
13.6053
 20
177.552
 11
13.6855
 21
177.723
  0
LINE
  8
0
 10
13.6855
 20
177.723
 11
13.7865
 21
177.882
  0
LINE
  8
0
 10
13.7865
 20
177.882
 11
13.9065
 21
178.027
  0
LINE
  8
0
 10
13.9065
 20
178.027
 11
14.0439
 21
178.156
  0
LINE
  8
0
 10
14.0439
 20
178.156
 11
14.1963
 21
178.266
  0
LINE
  8
0
 10
14.1963
 20
178.266
 11
14.3613
 21
178.357
  0
LINE
  8
0
 10
14.3613
 20
178.357
 11
14.5365
 21
178.427
  0
LINE
  8
0
 10
14.5365
 20
178.427
 11
14.7189
 21
178.473
  0
LINE
  8
0
 10
14.7189
 20
178.473
 11
14.9058
 21
178.497
  0
LINE
  8
0
 10
14.9058
 20
178.497
 11
15.0942
 21
178.497
  0
LINE
  8
0
 10
15.0942
 20
178.497
 11
15.2811
 21
178.473
  0
LINE
  8
0
 10
15.2811
 20
178.473
 11
15.4635
 21
178.427
  0
LINE
  8
0
 10
15.4635
 20
178.427
 11
15.6387
 21
178.357
  0
LINE
  8
0
 10
15.6387
 20
178.357
 11
15.8037
 21
178.266
  0
LINE
  8
0
 10
15.8037
 20
178.266
 11
15.9561
 21
178.156
  0
LINE
  8
0
 10
15.9561
 20
178.156
 11
16.0934
 21
178.027
  0
LINE
  8
0
 10
16.0934
 20
178.027
 11
16.2135
 21
177.882
  0
LINE
  8
0
 10
16.2135
 20
177.882
 11
16.3145
 21
177.723
  0
LINE
  8
0
 10
16.3145
 20
177.723
 11
16.3947
 21
177.552
  0
LINE
  8
0
 10
16.3947
 20
177.552
 11
16.4529
 21
177.373
  0
LINE
  8
0
 10
16.4529
 20
177.373
 11
16.4882
 21
177.188
  0
LINE
  8
0
 10
16.4882
 20
177.188
 11
16.5
 21
177
  0
LINE
  8
0
 10
16.5
 20
177
 11
16.4882
 21
176.812
  0
LINE
  8
0
 10
16.4882
 20
176.812
 11
16.4529
 21
176.627
  0
LINE
  8
0
 10
16.4529
 20
176.627
 11
16.3947
 21
176.448
  0
LINE
  8
0
 10
16.3947
 20
176.448
 11
16.3145
 21
176.277
  0
LINE
  8
0
 10
16.3145
 20
176.277
 11
16.2135
 21
176.118
  0
LINE
  8
0
 10
16.2135
 20
176.118
 11
16.0934
 21
175.973
  0
LINE
  8
0
 10
16.0934
 20
175.973
 11
15.9561
 21
175.844
  0
LINE
  8
0
 10
15.9561
 20
175.844
 11
15.8037
 21
175.734
  0
LINE
  8
0
 10
15.8037
 20
175.734
 11
15.6387
 21
175.643
  0
LINE
  8
0
 10
15.6387
 20
175.643
 11
15.4635
 21
175.573
  0
LINE
  8
0
 10
15.4635
 20
175.573
 11
15.2811
 21
175.527
  0
LINE
  8
0
 10
15.2811
 20
175.527
 11
15.0942
 21
175.503
  0
LINE
  8
0
 10
15.0942
 20
175.503
 11
14.9058
 21
175.503
  0
LINE
  8
0
 10
-15.0942
 20
145.503
 11
-15.2811
 21
145.527
  0
LINE
  8
0
 10
-15.2811
 20
145.527
 11
-15.4635
 21
145.573
  0
LINE
  8
0
 10
-15.4635
 20
145.573
 11
-15.6387
 21
145.643
  0
LINE
  8
0
 10
-15.6387
 20
145.643
 11
-15.8037
 21
145.734
  0
LINE
  8
0
 10
-15.8037
 20
145.734
 11
-15.9561
 21
145.844
  0
LINE
  8
0
 10
-15.9561
 20
145.844
 11
-16.0934
 21
145.973
  0
LINE
  8
0
 10
-16.0934
 20
145.973
 11
-16.2135
 21
146.118
  0
LINE
  8
0
 10
-16.2135
 20
146.118
 11
-16.3145
 21
146.277
  0
LINE
  8
0
 10
-16.3145
 20
146.277
 11
-16.3947
 21
146.448
  0
LINE
  8
0
 10
-16.3947
 20
146.448
 11
-16.4529
 21
146.627
  0
LINE
  8
0
 10
-16.4529
 20
146.627
 11
-16.4882
 21
146.812
  0
LINE
  8
0
 10
-16.4882
 20
146.812
 11
-16.5
 21
147
  0
LINE
  8
0
 10
-16.5
 20
147
 11
-16.4882
 21
147.188
  0
LINE
  8
0
 10
-16.4882
 20
147.188
 11
-16.4529
 21
147.373
  0
LINE
  8
0
 10
-16.4529
 20
147.373
 11
-16.3947
 21
147.552
  0
LINE
  8
0
 10
-16.3947
 20
147.552
 11
-16.3145
 21
147.723
  0
LINE
  8
0
 10
-16.3145
 20
147.723
 11
-16.2135
 21
147.882
  0
LINE
  8
0
 10
-16.2135
 20
147.882
 11
-16.0934
 21
148.027
  0
LINE
  8
0
 10
-16.0934
 20
148.027
 11
-15.9561
 21
148.156
  0
LINE
  8
0
 10
-15.9561
 20
148.156
 11
-15.8037
 21
148.266
  0
LINE
  8
0
 10
-15.8037
 20
148.266
 11
-15.6387
 21
148.357
  0
LINE
  8
0
 10
-15.6387
 20
148.357
 11
-15.4635
 21
148.427
  0
LINE
  8
0
 10
-15.4635
 20
148.427
 11
-15.2811
 21
148.473
  0
LINE
  8
0
 10
-15.2811
 20
148.473
 11
-15.0942
 21
148.497
  0
LINE
  8
0
 10
-15.0942
 20
148.497
 11
-14.9058
 21
148.497
  0
LINE
  8
0
 10
-14.9058
 20
148.497
 11
-14.7189
 21
148.473
  0
LINE
  8
0
 10
-14.7189
 20
148.473
 11
-14.5365
 21
148.427
  0
LINE
  8
0
 10
-14.5365
 20
148.427
 11
-14.3613
 21
148.357
  0
LINE
  8
0
 10
-14.3613
 20
148.357
 11
-14.1963
 21
148.266
  0
LINE
  8
0
 10
-14.1963
 20
148.266
 11
-14.0439
 21
148.156
  0
LINE
  8
0
 10
-14.0439
 20
148.156
 11
-13.9065
 21
148.027
  0
LINE
  8
0
 10
-13.9065
 20
148.027
 11
-13.7865
 21
147.882
  0
LINE
  8
0
 10
-13.7865
 20
147.882
 11
-13.6855
 21
147.723
  0
LINE
  8
0
 10
-13.6855
 20
147.723
 11
-13.6053
 21
147.552
  0
LINE
  8
0
 10
-13.6053
 20
147.552
 11
-13.5471
 21
147.373
  0
LINE
  8
0
 10
-13.5471
 20
147.373
 11
-13.5118
 21
147.188
  0
LINE
  8
0
 10
-13.5118
 20
147.188
 11
-13.5
 21
147
  0
LINE
  8
0
 10
-13.5
 20
147
 11
-13.5118
 21
146.812
  0
LINE
  8
0
 10
-13.5118
 20
146.812
 11
-13.5471
 21
146.627
  0
LINE
  8
0
 10
-13.5471
 20
146.627
 11
-13.6053
 21
146.448
  0
LINE
  8
0
 10
-13.6053
 20
146.448
 11
-13.6855
 21
146.277
  0
LINE
  8
0
 10
-13.6855
 20
146.277
 11
-13.7865
 21
146.118
  0
LINE
  8
0
 10
-13.7865
 20
146.118
 11
-13.9065
 21
145.973
  0
LINE
  8
0
 10
-13.9065
 20
145.973
 11
-14.0439
 21
145.844
  0
LINE
  8
0
 10
-14.0439
 20
145.844
 11
-14.1963
 21
145.734
  0
LINE
  8
0
 10
-14.1963
 20
145.734
 11
-14.3613
 21
145.643
  0
LINE
  8
0
 10
-14.3613
 20
145.643
 11
-14.5365
 21
145.573
  0
LINE
  8
0
 10
-14.5365
 20
145.573
 11
-14.7189
 21
145.527
  0
LINE
  8
0
 10
-14.7189
 20
145.527
 11
-14.9058
 21
145.503
  0
LINE
  8
0
 10
-14.9058
 20
145.503
 11
-15.0942
 21
145.503
  0
LINE
  8
0
 10
18.4369
 20
85.5886
 11
19.0451
 21
85.7447
  0
LINE
  8
0
 10
19.0451
 20
85.7447
 11
19.6289
 21
85.9759
  0
LINE
  8
0
 10
19.6289
 20
85.9759
 11
20.1791
 21
86.2784
  0
LINE
  8
0
 10
20.1791
 20
86.2784
 11
20.6871
 21
86.6474
  0
LINE
  8
0
 10
20.6871
 20
86.6474
 11
21.1448
 21
87.0773
  0
LINE
  8
0
 10
21.1448
 20
87.0773
 11
21.5451
 21
87.5611
  0
LINE
  8
0
 10
21.5451
 20
87.5611
 11
21.8815
 21
88.0912
  0
LINE
  8
0
 10
21.8815
 20
88.0912
 11
22.1489
 21
88.6594
  0
LINE
  8
0
 10
22.1489
 20
88.6594
 11
22.3429
 21
89.2566
  0
LINE
  8
0
 10
22.3429
 20
89.2566
 11
22.4606
 21
89.8733
  0
LINE
  8
0
 10
22.4606
 20
89.8733
 11
22.5
 21
90.5
  0
LINE
  8
0
 10
22.5
 20
90.5
 11
22.5
 21
125.5
  0
LINE
  8
0
 10
22.5
 20
125.5
 11
22.4606
 21
126.127
  0
LINE
  8
0
 10
22.4606
 20
126.127
 11
22.3429
 21
126.743
  0
LINE
  8
0
 10
22.3429
 20
126.743
 11
22.1489
 21
127.341
  0
LINE
  8
0
 10
22.1489
 20
127.341
 11
21.8815
 21
127.909
  0
LINE
  8
0
 10
21.8815
 20
127.909
 11
21.5451
 21
128.439
  0
LINE
  8
0
 10
21.5451
 20
128.439
 11
21.1448
 21
128.923
  0
LINE
  8
0
 10
21.1448
 20
128.923
 11
20.6871
 21
129.353
  0
LINE
  8
0
 10
20.6871
 20
129.353
 11
20.1791
 21
129.722
  0
LINE
  8
0
 10
20.1791
 20
129.722
 11
19.6289
 21
130.024
  0
LINE
  8
0
 10
19.6289
 20
130.024
 11
19.0451
 21
130.255
  0
LINE
  8
0
 10
19.0451
 20
130.255
 11
18.4369
 21
130.411
  0
LINE
  8
0
 10
18.4369
 20
130.411
 11
17.8139
 21
130.49
  0
LINE
  8
0
 10
17.8139
 20
130.49
 11
-17.8139
 21
130.49
  0
LINE
  8
0
 10
-17.8139
 20
130.49
 11
-18.4369
 21
130.411
  0
LINE
  8
0
 10
-18.4369
 20
130.411
 11
-19.0451
 21
130.255
  0
LINE
  8
0
 10
-19.0451
 20
130.255
 11
-19.6289
 21
130.024
  0
LINE
  8
0
 10
-19.6289
 20
130.024
 11
-20.1791
 21
129.722
  0
LINE
  8
0
 10
-20.1791
 20
129.722
 11
-20.6871
 21
129.353
  0
LINE
  8
0
 10
-20.6871
 20
129.353
 11
-21.1448
 21
128.923
  0
LINE
  8
0
 10
-21.1448
 20
128.923
 11
-21.5451
 21
128.439
  0
LINE
  8
0
 10
-21.5451
 20
128.439
 11
-21.8815
 21
127.909
  0
LINE
  8
0
 10
-21.8815
 20
127.909
 11
-22.1489
 21
127.341
  0
LINE
  8
0
 10
-22.1489
 20
127.341
 11
-22.3429
 21
126.743
  0
LINE
  8
0
 10
-22.3429
 20
126.743
 11
-22.4606
 21
126.127
  0
LINE
  8
0
 10
-22.4606
 20
126.127
 11
-22.5
 21
125.5
  0
LINE
  8
0
 10
-22.5
 20
125.5
 11
-22.5
 21
90.5
  0
LINE
  8
0
 10
-22.5
 20
90.5
 11
-22.4606
 21
89.8733
  0
LINE
  8
0
 10
-22.4606
 20
89.8733
 11
-22.3429
 21
89.2566
  0
LINE
  8
0
 10
-22.3429
 20
89.2566
 11
-22.1489
 21
88.6594
  0
LINE
  8
0
 10
-22.1489
 20
88.6594
 11
-21.8815
 21
88.0912
  0
LINE
  8
0
 10
-21.8815
 20
88.0912
 11
-21.5451
 21
87.5611
  0
LINE
  8
0
 10
-21.5451
 20
87.5611
 11
-21.1448
 21
87.0773
  0
LINE
  8
0
 10
-21.1448
 20
87.0773
 11
-20.6871
 21
86.6474
  0
LINE
  8
0
 10
-20.6871
 20
86.6474
 11
-20.1791
 21
86.2784
  0
LINE
  8
0
 10
-20.1791
 20
86.2784
 11
-19.6289
 21
85.9759
  0
LINE
  8
0
 10
-19.6289
 20
85.9759
 11
-19.0451
 21
85.7447
  0
LINE
  8
0
 10
-19.0451
 20
85.7447
 11
-18.4369
 21
85.5886
  0
LINE
  8
0
 10
-18.4369
 20
85.5886
 11
-17.8139
 21
85.5099
  0
LINE
  8
0
 10
-17.8139
 20
85.5099
 11
17.8139
 21
85.5099
  0
LINE
  8
0
 10
17.8139
 20
85.5099
 11
18.4369
 21
85.5886
  0
LINE
  8
0
 10
-10.3781
 20
87.6822
 11
-10.1185
 21
88.0912
  0
LINE
  8
0
 10
-10.1185
 20
88.0912
 11
-9.8511
 21
88.6594
  0
LINE
  8
0
 10
-9.8511
 20
88.6594
 11
-9.65707
 21
89.2566
  0
LINE
  8
0
 10
-9.65707
 20
89.2566
 11
-9.53941
 21
89.8733
  0
LINE
  8
0
 10
-9.53941
 20
89.8733
 11
-9.5
 21
90.5
  0
LINE
  8
0
 10
-9.5
 20
90.5
 11
-9.5
 21
93.5
  0
LINE
  8
0
 10
-9.5
 20
93.5
 11
-9.53941
 21
94.1267
  0
LINE
  8
0
 10
-9.53941
 20
94.1267
 11
-9.65707
 21
94.7435
  0
LINE
  8
0
 10
-9.65707
 20
94.7435
 11
-9.8511
 21
95.3406
  0
LINE
  8
0
 10
-9.8511
 20
95.3406
 11
-10.1185
 21
95.9088
  0
LINE
  8
0
 10
-10.1185
 20
95.9088
 11
-10.4549
 21
96.4389
  0
LINE
  8
0
 10
-10.4549
 20
96.4389
 11
-10.8551
 21
96.9227
  0
LINE
  8
0
 10
-10.8551
 20
96.9227
 11
-11.3129
 21
97.3526
  0
LINE
  8
0
 10
-11.3129
 20
97.3526
 11
-11.8209
 21
97.7216
  0
LINE
  8
0
 10
-11.8209
 20
97.7216
 11
-12.3711
 21
98.0241
  0
LINE
  8
0
 10
-12.3711
 20
98.0241
 11
-12.9549
 21
98.2553
  0
LINE
  8
0
 10
-12.9549
 20
98.2553
 11
-13.5631
 21
98.4114
  0
LINE
  8
0
 10
-13.5631
 20
98.4114
 11
-14.186
 21
98.4901
  0
LINE
  8
0
 10
-14.186
 20
98.4901
 11
-17.8139
 21
98.4901
  0
LINE
  8
0
 10
-17.8139
 20
98.4901
 11
-18.4369
 21
98.4114
  0
LINE
  8
0
 10
-18.4369
 20
98.4114
 11
-19.0451
 21
98.2553
  0
LINE
  8
0
 10
-19.0451
 20
98.2553
 11
-19.6289
 21
98.0241
  0
LINE
  8
0
 10
-19.6289
 20
98.0241
 11
-20.1791
 21
97.7216
  0
LINE
  8
0
 10
-20.1791
 20
97.7216
 11
-20.3234
 21
97.6168
  0
LINE
  8
0
 10
-20.3234
 20
97.6168
 11
-20.3234
 21
125.5
  0
LINE
  8
0
 10
-20.3234
 20
125.5
 11
-20.3011
 21
125.854
  0
LINE
  8
0
 10
-20.3011
 20
125.854
 11
-20.2347
 21
126.202
  0
LINE
  8
0
 10
-20.2347
 20
126.202
 11
-20.1251
 21
126.539
  0
LINE
  8
0
 10
-20.1251
 20
126.539
 11
-19.9742
 21
126.86
  0
LINE
  8
0
 10
-19.9742
 20
126.86
 11
-19.7842
 21
127.16
  0
LINE
  8
0
 10
-19.7842
 20
127.16
 11
-19.5582
 21
127.433
  0
LINE
  8
0
 10
-19.5582
 20
127.433
 11
-19.2997
 21
127.675
  0
LINE
  8
0
 10
-19.2997
 20
127.675
 11
-19.0128
 21
127.884
  0
LINE
  8
0
 10
-19.0128
 20
127.884
 11
-18.7021
 21
128.055
  0
LINE
  8
0
 10
-18.7021
 20
128.055
 11
-18.3725
 21
128.185
  0
LINE
  8
0
 10
-18.3725
 20
128.185
 11
-18.0291
 21
128.273
  0
LINE
  8
0
 10
-18.0291
 20
128.273
 11
-17.6773
 21
128.318
  0
LINE
  8
0
 10
-17.6773
 20
128.318
 11
10.3781
 21
128.318
  0
LINE
  8
0
 10
10.3781
 20
128.318
 11
10.1185
 21
127.909
  0
LINE
  8
0
 10
10.1185
 20
127.909
 11
9.8511
 21
127.341
  0
LINE
  8
0
 10
9.8511
 20
127.341
 11
9.65707
 21
126.743
  0
LINE
  8
0
 10
9.65707
 20
126.743
 11
9.53941
 21
126.127
  0
LINE
  8
0
 10
9.53941
 20
126.127
 11
9.5
 21
125.5
  0
LINE
  8
0
 10
9.5
 20
125.5
 11
9.5
 21
122.5
  0
LINE
  8
0
 10
9.5
 20
122.5
 11
9.53941
 21
121.873
  0
LINE
  8
0
 10
9.53941
 20
121.873
 11
9.65707
 21
121.257
  0
LINE
  8
0
 10
9.65707
 20
121.257
 11
9.8511
 21
120.659
  0
LINE
  8
0
 10
9.8511
 20
120.659
 11
10.1185
 21
120.091
  0
LINE
  8
0
 10
10.1185
 20
120.091
 11
10.4549
 21
119.561
  0
LINE
  8
0
 10
10.4549
 20
119.561
 11
10.8551
 21
119.077
  0
LINE
  8
0
 10
10.8551
 20
119.077
 11
11.3129
 21
118.647
  0
LINE
  8
0
 10
11.3129
 20
118.647
 11
11.8209
 21
118.278
  0
LINE
  8
0
 10
11.8209
 20
118.278
 11
12.3711
 21
117.976
  0
LINE
  8
0
 10
12.3711
 20
117.976
 11
12.9549
 21
117.745
  0
LINE
  8
0
 10
12.9549
 20
117.745
 11
13.5631
 21
117.589
  0
LINE
  8
0
 10
13.5631
 20
117.589
 11
14.186
 21
117.51
  0
LINE
  8
0
 10
14.186
 20
117.51
 11
17.8139
 21
117.51
  0
LINE
  8
0
 10
17.8139
 20
117.51
 11
18.4369
 21
117.589
  0
LINE
  8
0
 10
18.4369
 20
117.589
 11
19.0451
 21
117.745
  0
LINE
  8
0
 10
19.0451
 20
117.745
 11
19.6289
 21
117.976
  0
LINE
  8
0
 10
19.6289
 20
117.976
 11
20.1791
 21
118.278
  0
LINE
  8
0
 10
20.1791
 20
118.278
 11
20.3234
 21
118.383
  0
LINE
  8
0
 10
20.3234
 20
118.383
 11
20.3234
 21
90.5
  0
LINE
  8
0
 10
20.3234
 20
90.5
 11
20.3011
 21
90.1461
  0
LINE
  8
0
 10
20.3011
 20
90.1461
 11
20.2347
 21
89.7979
  0
LINE
  8
0
 10
20.2347
 20
89.7979
 11
20.1251
 21
89.4606
  0
LINE
  8
0
 10
20.1251
 20
89.4606
 11
19.9742
 21
89.1398
  0
LINE
  8
0
 10
19.9742
 20
89.1398
 11
19.7842
 21
88.8404
  0
LINE
  8
0
 10
19.7842
 20
88.8404
 11
19.5582
 21
88.5672
  0
LINE
  8
0
 10
19.5582
 20
88.5672
 11
19.2997
 21
88.3245
  0
LINE
  8
0
 10
19.2997
 20
88.3245
 11
19.0128
 21
88.1161
  0
LINE
  8
0
 10
19.0128
 20
88.1161
 11
18.7021
 21
87.9453
  0
LINE
  8
0
 10
18.7021
 20
87.9453
 11
18.3725
 21
87.8148
  0
LINE
  8
0
 10
18.3725
 20
87.8148
 11
18.0291
 21
87.7266
  0
LINE
  8
0
 10
18.0291
 20
87.7266
 11
17.6773
 21
87.6822
  0
LINE
  8
0
 10
17.6773
 20
87.6822
 11
-10.3781
 21
87.6822
  0
LINE
  8
0
 10
14.8493
 20
120.605
 11
14.5503
 21
120.643
  0
LINE
  8
0
 10
14.5503
 20
120.643
 11
14.2583
 21
120.717
  0
LINE
  8
0
 10
14.2583
 20
120.717
 11
13.9781
 21
120.828
  0
LINE
  8
0
 10
13.9781
 20
120.828
 11
13.714
 21
120.974
  0
LINE
  8
0
 10
13.714
 20
120.974
 11
13.4702
 21
121.151
  0
LINE
  8
0
 10
13.4702
 20
121.151
 11
13.2505
 21
121.357
  0
LINE
  8
0
 10
13.2505
 20
121.357
 11
13.0583
 21
121.589
  0
LINE
  8
0
 10
13.0583
 20
121.589
 11
12.8969
 21
121.844
  0
LINE
  8
0
 10
12.8969
 20
121.844
 11
12.7685
 21
122.117
  0
LINE
  8
0
 10
12.7685
 20
122.117
 11
12.6754
 21
122.403
  0
LINE
  8
0
 10
12.6754
 20
122.403
 11
12.6189
 21
122.699
  0
LINE
  8
0
 10
12.6189
 20
122.699
 11
12.6
 21
123
  0
LINE
  8
0
 10
12.6
 20
123
 11
12.6189
 21
123.301
  0
LINE
  8
0
 10
12.6189
 20
123.301
 11
12.6754
 21
123.597
  0
LINE
  8
0
 10
12.6754
 20
123.597
 11
12.7685
 21
123.883
  0
LINE
  8
0
 10
12.7685
 20
123.883
 11
12.8969
 21
124.156
  0
LINE
  8
0
 10
12.8969
 20
124.156
 11
13.0583
 21
124.411
  0
LINE
  8
0
 10
13.0583
 20
124.411
 11
13.2505
 21
124.643
  0
LINE
  8
0
 10
13.2505
 20
124.643
 11
13.4702
 21
124.849
  0
LINE
  8
0
 10
13.4702
 20
124.849
 11
13.714
 21
125.026
  0
LINE
  8
0
 10
13.714
 20
125.026
 11
13.9781
 21
125.172
  0
LINE
  8
0
 10
13.9781
 20
125.172
 11
14.2583
 21
125.283
  0
LINE
  8
0
 10
14.2583
 20
125.283
 11
14.5503
 21
125.357
  0
LINE
  8
0
 10
14.5503
 20
125.357
 11
14.8493
 21
125.395
  0
LINE
  8
0
 10
14.8493
 20
125.395
 11
15.1507
 21
125.395
  0
LINE
  8
0
 10
15.1507
 20
125.395
 11
15.4497
 21
125.357
  0
LINE
  8
0
 10
15.4497
 20
125.357
 11
15.7416
 21
125.283
  0
LINE
  8
0
 10
15.7416
 20
125.283
 11
16.0219
 21
125.172
  0
LINE
  8
0
 10
16.0219
 20
125.172
 11
16.286
 21
125.026
  0
LINE
  8
0
 10
16.286
 20
125.026
 11
16.5298
 21
124.849
  0
LINE
  8
0
 10
16.5298
 20
124.849
 11
16.7495
 21
124.643
  0
LINE
  8
0
 10
16.7495
 20
124.643
 11
16.9416
 21
124.411
  0
LINE
  8
0
 10
16.9416
 20
124.411
 11
17.1031
 21
124.156
  0
LINE
  8
0
 10
17.1031
 20
124.156
 11
17.2315
 21
123.883
  0
LINE
  8
0
 10
17.2315
 20
123.883
 11
17.3246
 21
123.597
  0
LINE
  8
0
 10
17.3246
 20
123.597
 11
17.3811
 21
123.301
  0
LINE
  8
0
 10
17.3811
 20
123.301
 11
17.4
 21
123
  0
LINE
  8
0
 10
17.4
 20
123
 11
17.3811
 21
122.699
  0
LINE
  8
0
 10
17.3811
 20
122.699
 11
17.3246
 21
122.403
  0
LINE
  8
0
 10
17.3246
 20
122.403
 11
17.2315
 21
122.117
  0
LINE
  8
0
 10
17.2315
 20
122.117
 11
17.1031
 21
121.844
  0
LINE
  8
0
 10
17.1031
 20
121.844
 11
16.9416
 21
121.589
  0
LINE
  8
0
 10
16.9416
 20
121.589
 11
16.7495
 21
121.357
  0
LINE
  8
0
 10
16.7495
 20
121.357
 11
16.5298
 21
121.151
  0
LINE
  8
0
 10
16.5298
 20
121.151
 11
16.286
 21
120.974
  0
LINE
  8
0
 10
16.286
 20
120.974
 11
16.0219
 21
120.828
  0
LINE
  8
0
 10
16.0219
 20
120.828
 11
15.7416
 21
120.717
  0
LINE
  8
0
 10
15.7416
 20
120.717
 11
15.4497
 21
120.643
  0
LINE
  8
0
 10
15.4497
 20
120.643
 11
15.1507
 21
120.605
  0
LINE
  8
0
 10
15.1507
 20
120.605
 11
14.8493
 21
120.605
  0
LINE
  8
0
 10
-15.1507
 20
90.6047
 11
-15.4497
 21
90.6425
  0
LINE
  8
0
 10
-15.4497
 20
90.6425
 11
-15.7416
 21
90.7175
  0
LINE
  8
0
 10
-15.7416
 20
90.7175
 11
-16.0219
 21
90.8284
  0
LINE
  8
0
 10
-16.0219
 20
90.8284
 11
-16.286
 21
90.9736
  0
LINE
  8
0
 10
-16.286
 20
90.9736
 11
-16.5298
 21
91.1508
  0
LINE
  8
0
 10
-16.5298
 20
91.1508
 11
-16.7495
 21
91.3571
  0
LINE
  8
0
 10
-16.7495
 20
91.3571
 11
-16.9416
 21
91.5893
  0
LINE
  8
0
 10
-16.9416
 20
91.5893
 11
-17.1031
 21
91.8438
  0
LINE
  8
0
 10
-17.1031
 20
91.8438
 11
-17.2315
 21
92.1165
  0
LINE
  8
0
 10
-17.2315
 20
92.1165
 11
-17.3246
 21
92.4032
  0
LINE
  8
0
 10
-17.3246
 20
92.4032
 11
-17.3811
 21
92.6992
  0
LINE
  8
0
 10
-17.3811
 20
92.6992
 11
-17.4
 21
93
  0
LINE
  8
0
 10
-17.4
 20
93
 11
-17.3811
 21
93.3008
  0
LINE
  8
0
 10
-17.3811
 20
93.3008
 11
-17.3246
 21
93.5969
  0
LINE
  8
0
 10
-17.3246
 20
93.5969
 11
-17.2315
 21
93.8835
  0
LINE
  8
0
 10
-17.2315
 20
93.8835
 11
-17.1031
 21
94.1562
  0
LINE
  8
0
 10
-17.1031
 20
94.1562
 11
-16.9416
 21
94.4107
  0
LINE
  8
0
 10
-16.9416
 20
94.4107
 11
-16.7495
 21
94.6429
  0
LINE
  8
0
 10
-16.7495
 20
94.6429
 11
-16.5298
 21
94.8492
  0
LINE
  8
0
 10
-16.5298
 20
94.8492
 11
-16.286
 21
95.0264
  0
LINE
  8
0
 10
-16.286
 20
95.0264
 11
-16.0219
 21
95.1716
  0
LINE
  8
0
 10
-16.0219
 20
95.1716
 11
-15.7416
 21
95.2825
  0
LINE
  8
0
 10
-15.7416
 20
95.2825
 11
-15.4497
 21
95.3575
  0
LINE
  8
0
 10
-15.4497
 20
95.3575
 11
-15.1507
 21
95.3953
  0
LINE
  8
0
 10
-15.1507
 20
95.3953
 11
-14.8493
 21
95.3953
  0
LINE
  8
0
 10
-14.8493
 20
95.3953
 11
-14.5503
 21
95.3575
  0
LINE
  8
0
 10
-14.5503
 20
95.3575
 11
-14.2583
 21
95.2825
  0
LINE
  8
0
 10
-14.2583
 20
95.2825
 11
-13.9781
 21
95.1716
  0
LINE
  8
0
 10
-13.9781
 20
95.1716
 11
-13.714
 21
95.0264
  0
LINE
  8
0
 10
-13.714
 20
95.0264
 11
-13.4702
 21
94.8492
  0
LINE
  8
0
 10
-13.4702
 20
94.8492
 11
-13.2505
 21
94.6429
  0
LINE
  8
0
 10
-13.2505
 20
94.6429
 11
-13.0583
 21
94.4107
  0
LINE
  8
0
 10
-13.0583
 20
94.4107
 11
-12.8969
 21
94.1562
  0
LINE
  8
0
 10
-12.8969
 20
94.1562
 11
-12.7685
 21
93.8835
  0
LINE
  8
0
 10
-12.7685
 20
93.8835
 11
-12.6754
 21
93.5969
  0
LINE
  8
0
 10
-12.6754
 20
93.5969
 11
-12.6189
 21
93.3008
  0
LINE
  8
0
 10
-12.6189
 20
93.3008
 11
-12.6
 21
93
  0
LINE
  8
0
 10
-12.6
 20
93
 11
-12.6189
 21
92.6992
  0
LINE
  8
0
 10
-12.6189
 20
92.6992
 11
-12.6754
 21
92.4032
  0
LINE
  8
0
 10
-12.6754
 20
92.4032
 11
-12.7685
 21
92.1165
  0
LINE
  8
0
 10
-12.7685
 20
92.1165
 11
-12.8969
 21
91.8438
  0
LINE
  8
0
 10
-12.8969
 20
91.8438
 11
-13.0583
 21
91.5893
  0
LINE
  8
0
 10
-13.0583
 20
91.5893
 11
-13.2505
 21
91.3571
  0
LINE
  8
0
 10
-13.2505
 20
91.3571
 11
-13.4702
 21
91.1508
  0
LINE
  8
0
 10
-13.4702
 20
91.1508
 11
-13.714
 21
90.9736
  0
LINE
  8
0
 10
-13.714
 20
90.9736
 11
-13.9781
 21
90.8284
  0
LINE
  8
0
 10
-13.9781
 20
90.8284
 11
-14.2583
 21
90.7175
  0
LINE
  8
0
 10
-14.2583
 20
90.7175
 11
-14.5503
 21
90.6425
  0
LINE
  8
0
 10
-14.5503
 20
90.6425
 11
-14.8493
 21
90.6047
  0
LINE
  8
0
 10
-14.8493
 20
90.6047
 11
-15.1507
 21
90.6047
  0
ENDSEC
  0
SECTION
  2
OBJECTS
  0
DICTIONARY
  0
ENDSEC
  0
EOF
