<?xml version="1.0" standalone="no"?>
<!DOCTYPE svg PUBLIC "-//W3C//DTD SVG 1.1//EN" "http://www.w3.org/Graphics/SVG/1.1/DTD/svg11.dtd">
<svg width="30mm" height="104mm" viewBox="-15 -220 30 104" xmlns="http://www.w3.org/2000/svg" version="1.1">
<title>OpenSCAD Model</title>
<path d="
M 12.7184,-212.544 L 13.0225,-212.622 L 13.3144,-212.738 L 13.5896,-212.889 L 13.8436,-213.074 L 14.0724,-213.289
 L 14.2725,-213.531 L 14.4408,-213.796 L 14.5744,-214.08 L 14.6714,-214.378 L 14.7303,-214.687 L 14.75,-215
 L 14.75,-217 L 14.7303,-217.313 L 14.6714,-217.622 L 14.5744,-217.92 L 14.4408,-218.204 L 14.2725,-218.469
 L 14.0724,-218.711 L 13.8436,-218.926 L 13.5896,-219.111 L 13.3144,-219.262 L 13.0225,-219.378 L 12.7184,-219.456
 L 12.407,-219.495 L -12.407,-219.495 L -12.7184,-219.456 L -13.0225,-219.378 L -13.3144,-219.262 L -13.5896,-219.111
 L -13.8436,-218.926 L -14.0724,-218.711 L -14.2725,-218.469 L -14.4408,-218.204 L -14.5744,-217.92 L -14.6714,-217.622
 L -14.7303,-217.313 L -14.75,-217 L -14.75,-215 L -14.7303,-214.687 L -14.6714,-214.378 L -14.5744,-214.08
 L -14.4408,-213.796 L -14.2725,-213.531 L -14.0724,-213.289 L -13.8436,-213.074 L -13.5896,-212.889 L -13.3144,-212.738
 L -13.0225,-212.622 L -12.7184,-212.544 L -12.407,-212.505 L 12.407,-212.505 z
M -3.84418,-214.503 L -4.03107,-214.527 L -4.21352,-214.573 L -4.38866,-214.643 L -4.55373,-214.734 L -4.70613,-214.844
 L -4.84344,-214.973 L -4.96352,-215.118 L -5.06445,-215.277 L -5.14465,-215.448 L -5.20287,-215.627 L -5.23816,-215.812
 L -5.25,-216 L -5.23816,-216.188 L -5.20287,-216.373 L -5.14465,-216.552 L -5.06445,-216.723 L -4.96352,-216.882
 L -4.84344,-217.027 L -4.70613,-217.156 L -4.55373,-217.266 L -4.38866,-217.357 L -4.21352,-217.427 L -4.03107,-217.473
 L -3.84418,-217.497 L -3.65581,-217.497 L -3.46892,-217.473 L -3.28647,-217.427 L -3.11133,-217.357 L -2.94626,-217.266
 L -2.79385,-217.156 L -2.65654,-217.027 L -2.53647,-216.882 L -2.43553,-216.723 L -2.35533,-216.552 L -2.29712,-216.373
 L -2.26183,-216.188 L -2.25,-216 L -2.26183,-215.812 L -2.29712,-215.627 L -2.35533,-215.448 L -2.43553,-215.277
 L -2.53647,-215.118 L -2.65654,-214.973 L -2.79385,-214.844 L -2.94626,-214.734 L -3.11133,-214.643 L -3.28647,-214.573
 L -3.46892,-214.527 L -3.65581,-214.503 z
M 11.1558,-214.503 L 10.9689,-214.527 L 10.7865,-214.573 L 10.6113,-214.643 L 10.4463,-214.734 L 10.2939,-214.844
 L 10.1565,-214.973 L 10.0365,-215.118 L 9.93553,-215.277 L 9.85533,-215.448 L 9.79712,-215.627 L 9.76183,-215.812
 L 9.75,-216 L 9.76183,-216.188 L 9.79712,-216.373 L 9.85533,-216.552 L 9.93553,-216.723 L 10.0365,-216.882
 L 10.1565,-217.027 L 10.2939,-217.156 L 10.4463,-217.266 L 10.6113,-217.357 L 10.7865,-217.427 L 10.9689,-217.473
 L 11.1558,-217.497 L 11.3442,-217.497 L 11.5311,-217.473 L 11.7135,-217.427 L 11.8887,-217.357 L 12.0537,-217.266
 L 12.2061,-217.156 L 12.3434,-217.027 L 12.4635,-216.882 L 12.5645,-216.723 L 12.6447,-216.552 L 12.7029,-216.373
 L 12.7382,-216.188 L 12.75,-216 L 12.7382,-215.812 L 12.7029,-215.627 L 12.6447,-215.448 L 12.5645,-215.277
 L 12.4635,-215.118 L 12.3434,-214.973 L 12.2061,-214.844 L 12.0537,-214.734 L 11.8887,-214.643 L 11.7135,-214.573
 L 11.5311,-214.527 L 11.3442,-214.503 z
M 3.65581,-214.503 L 3.46892,-214.527 L 3.28647,-214.573 L 3.11133,-214.643 L 2.94626,-214.734 L 2.79385,-214.844
 L 2.65654,-214.973 L 2.53647,-215.118 L 2.43553,-215.277 L 2.35533,-215.448 L 2.29712,-215.627 L 2.26183,-215.812
 L 2.25,-216 L 2.26183,-216.188 L 2.29712,-216.373 L 2.35533,-216.552 L 2.43553,-216.723 L 2.53647,-216.882
 L 2.65654,-217.027 L 2.79385,-217.156 L 2.94626,-217.266 L 3.11133,-217.357 L 3.28647,-217.427 L 3.46892,-217.473
 L 3.65581,-217.497 L 3.84418,-217.497 L 4.03107,-217.473 L 4.21352,-217.427 L 4.38866,-217.357 L 4.55373,-217.266
 L 4.70613,-217.156 L 4.84344,-217.027 L 4.96352,-216.882 L 5.06445,-216.723 L 5.14465,-216.552 L 5.20287,-216.373
 L 5.23816,-216.188 L 5.25,-216 L 5.23816,-215.812 L 5.20287,-215.627 L 5.14465,-215.448 L 5.06445,-215.277
 L 4.96352,-215.118 L 4.84344,-214.973 L 4.70613,-214.844 L 4.55373,-214.734 L 4.38866,-214.643 L 4.21352,-214.573
 L 4.03107,-214.527 L 3.84418,-214.503 z
M -11.3442,-214.503 L -11.5311,-214.527 L -11.7135,-214.573 L -11.8887,-214.643 L -12.0537,-214.734 L -12.2061,-214.844
 L -12.3434,-214.973 L -12.4635,-215.118 L -12.5645,-215.277 L -12.6447,-215.448 L -12.7029,-215.627 L -12.7382,-215.812
 L -12.75,-216 L -12.7382,-216.188 L -12.7029,-216.373 L -12.6447,-216.552 L -12.5645,-216.723 L -12.4635,-216.882
 L -12.3434,-217.027 L -12.2061,-217.156 L -12.0537,-217.266 L -11.8887,-217.357 L -11.7135,-217.427 L -11.5311,-217.473
 L -11.3442,-217.497 L -11.1558,-217.497 L -10.9689,-217.473 L -10.7865,-217.427 L -10.6113,-217.357 L -10.4463,-217.266
 L -10.2939,-217.156 L -10.1565,-217.027 L -10.0365,-216.882 L -9.93553,-216.723 L -9.85533,-216.552 L -9.79712,-216.373
 L -9.76183,-216.188 L -9.75,-216 L -9.76183,-215.812 L -9.79712,-215.627 L -9.85533,-215.448 L -9.93553,-215.277
 L -10.0365,-215.118 L -10.1565,-214.973 L -10.2939,-214.844 L -10.4463,-214.734 L -10.6113,-214.643 L -10.7865,-214.573
 L -10.9689,-214.527 L -11.1558,-214.503 z
M 12.7184,-188.544 L 13.0225,-188.622 L 13.3144,-188.738 L 13.5896,-188.889 L 13.8436,-189.074 L 14.0724,-189.289
 L 14.2725,-189.531 L 14.4408,-189.796 L 14.5744,-190.08 L 14.6714,-190.378 L 14.7303,-190.687 L 14.75,-191
 L 14.75,-193 L 14.7303,-193.313 L 14.6714,-193.622 L 14.5744,-193.92 L 14.4408,-194.204 L 14.2725,-194.469
 L 14.0724,-194.711 L 13.8436,-194.926 L 13.5896,-195.111 L 13.3144,-195.262 L 13.0225,-195.378 L 12.7184,-195.456
 L 12.407,-195.495 L -12.407,-195.495 L -12.7184,-195.456 L -13.0225,-195.378 L -13.3144,-195.262 L -13.5896,-195.111
 L -13.8436,-194.926 L -14.0724,-194.711 L -14.2725,-194.469 L -14.4408,-194.204 L -14.5744,-193.92 L -14.6714,-193.622
 L -14.7303,-193.313 L -14.75,-193 L -14.75,-191 L -14.7303,-190.687 L -14.6714,-190.378 L -14.5744,-190.08
 L -14.4408,-189.796 L -14.2725,-189.531 L -14.0724,-189.289 L -13.8436,-189.074 L -13.5896,-188.889 L -13.3144,-188.738
 L -13.0225,-188.622 L -12.7184,-188.544 L -12.407,-188.505 L 12.407,-188.505 z
M -3.84418,-190.503 L -4.03107,-190.527 L -4.21352,-190.573 L -4.38866,-190.643 L -4.55373,-190.734 L -4.70613,-190.844
 L -4.84344,-190.973 L -4.96352,-191.118 L -5.06445,-191.277 L -5.14465,-191.448 L -5.20287,-191.627 L -5.23816,-191.812
 L -5.25,-192 L -5.23816,-192.188 L -5.20287,-192.373 L -5.14465,-192.552 L -5.06445,-192.723 L -4.96352,-192.882
 L -4.84344,-193.027 L -4.70613,-193.156 L -4.55373,-193.266 L -4.38866,-193.357 L -4.21352,-193.427 L -4.03107,-193.473
 L -3.84418,-193.497 L -3.65581,-193.497 L -3.46892,-193.473 L -3.28647,-193.427 L -3.11133,-193.357 L -2.94626,-193.266
 L -2.79385,-193.156 L -2.65654,-193.027 L -2.53647,-192.882 L -2.43553,-192.723 L -2.35533,-192.552 L -2.29712,-192.373
 L -2.26183,-192.188 L -2.25,-192 L -2.26183,-191.812 L -2.29712,-191.627 L -2.35533,-191.448 L -2.43553,-191.277
 L -2.53647,-191.118 L -2.65654,-190.973 L -2.79385,-190.844 L -2.94626,-190.734 L -3.11133,-190.643 L -3.28647,-190.573
 L -3.46892,-190.527 L -3.65581,-190.503 z
M 11.1558,-190.503 L 10.9689,-190.527 L 10.7865,-190.573 L 10.6113,-190.643 L 10.4463,-190.734 L 10.2939,-190.844
 L 10.1565,-190.973 L 10.0365,-191.118 L 9.93553,-191.277 L 9.85533,-191.448 L 9.79712,-191.627 L 9.76183,-191.812
 L 9.75,-192 L 9.76183,-192.188 L 9.79712,-192.373 L 9.85533,-192.552 L 9.93553,-192.723 L 10.0365,-192.882
 L 10.1565,-193.027 L 10.2939,-193.156 L 10.4463,-193.266 L 10.6113,-193.357 L 10.7865,-193.427 L 10.9689,-193.473
 L 11.1558,-193.497 L 11.3442,-193.497 L 11.5311,-193.473 L 11.7135,-193.427 L 11.8887,-193.357 L 12.0537,-193.266
 L 12.2061,-193.156 L 12.3434,-193.027 L 12.4635,-192.882 L 12.5645,-192.723 L 12.6447,-192.552 L 12.7029,-192.373
 L 12.7382,-192.188 L 12.75,-192 L 12.7382,-191.812 L 12.7029,-191.627 L 12.6447,-191.448 L 12.5645,-191.277
 L 12.4635,-191.118 L 12.3434,-190.973 L 12.2061,-190.844 L 12.0537,-190.734 L 11.8887,-190.643 L 11.7135,-190.573
 L 11.5311,-190.527 L 11.3442,-190.503 z
M 3.65581,-190.503 L 3.46892,-190.527 L 3.28647,-190.573 L 3.11133,-190.643 L 2.94626,-190.734 L 2.79385,-190.844
 L 2.65654,-190.973 L 2.53647,-191.118 L 2.43553,-191.277 L 2.35533,-191.448 L 2.29712,-191.627 L 2.26183,-191.812
 L 2.25,-192 L 2.26183,-192.188 L 2.29712,-192.373 L 2.35533,-192.552 L 2.43553,-192.723 L 2.53647,-192.882
 L 2.65654,-193.027 L 2.79385,-193.156 L 2.94626,-193.266 L 3.11133,-193.357 L 3.28647,-193.427 L 3.46892,-193.473
 L 3.65581,-193.497 L 3.84418,-193.497 L 4.03107,-193.473 L 4.21352,-193.427 L 4.38866,-193.357 L 4.55373,-193.266
 L 4.70613,-193.156 L 4.84344,-193.027 L 4.96352,-192.882 L 5.06445,-192.723 L 5.14465,-192.552 L 5.20287,-192.373
 L 5.23816,-192.188 L 5.25,-192 L 5.23816,-191.812 L 5.20287,-191.627 L 5.14465,-191.448 L 5.06445,-191.277
 L 4.96352,-191.118 L 4.84344,-190.973 L 4.70613,-190.844 L 4.55373,-190.734 L 4.38866,-190.643 L 4.21352,-190.573
 L 4.03107,-190.527 L 3.84418,-190.503 z
M -11.3442,-190.503 L -11.5311,-190.527 L -11.7135,-190.573 L -11.8887,-190.643 L -12.0537,-190.734 L -12.2061,-190.844
 L -12.3434,-190.973 L -12.4635,-191.118 L -12.5645,-191.277 L -12.6447,-191.448 L -12.7029,-191.627 L -12.7382,-191.812
 L -12.75,-192 L -12.7382,-192.188 L -12.7029,-192.373 L -12.6447,-192.552 L -12.5645,-192.723 L -12.4635,-192.882
 L -12.3434,-193.027 L -12.2061,-193.156 L -12.0537,-193.266 L -11.8887,-193.357 L -11.7135,-193.427 L -11.5311,-193.473
 L -11.3442,-193.497 L -11.1558,-193.497 L -10.9689,-193.473 L -10.7865,-193.427 L -10.6113,-193.357 L -10.4463,-193.266
 L -10.2939,-193.156 L -10.1565,-193.027 L -10.0365,-192.882 L -9.93553,-192.723 L -9.85533,-192.552 L -9.79712,-192.373
 L -9.76183,-192.188 L -9.75,-192 L -9.76183,-191.812 L -9.79712,-191.627 L -9.85533,-191.448 L -9.93553,-191.277
 L -10.0365,-191.118 L -10.1565,-190.973 L -10.2939,-190.844 L -10.4463,-190.734 L -10.6113,-190.643 L -10.7865,-190.573
 L -10.9689,-190.527 L -11.1558,-190.503 z
M 12.7184,-164.544 L 13.0225,-164.622 L 13.3144,-164.738 L 13.5896,-164.889 L 13.8436,-165.074 L 14.0724,-165.289
 L 14.2725,-165.531 L 14.4408,-165.796 L 14.5744,-166.08 L 14.6714,-166.378 L 14.7303,-166.687 L 14.75,-167
 L 14.75,-169 L 14.7303,-169.313 L 14.6714,-169.622 L 14.5744,-169.92 L 14.4408,-170.204 L 14.2725,-170.469
 L 14.0724,-170.711 L 13.8436,-170.926 L 13.5896,-171.111 L 13.3144,-171.262 L 13.0225,-171.378 L 12.7184,-171.456
 L 12.407,-171.495 L -12.407,-171.495 L -12.7184,-171.456 L -13.0225,-171.378 L -13.3144,-171.262 L -13.5896,-171.111
 L -13.8436,-170.926 L -14.0724,-170.711 L -14.2725,-170.469 L -14.4408,-170.204 L -14.5744,-169.92 L -14.6714,-169.622
 L -14.7303,-169.313 L -14.75,-169 L -14.75,-167 L -14.7303,-166.687 L -14.6714,-166.378 L -14.5744,-166.08
 L -14.4408,-165.796 L -14.2725,-165.531 L -14.0724,-165.289 L -13.8436,-165.074 L -13.5896,-164.889 L -13.3144,-164.738
 L -13.0225,-164.622 L -12.7184,-164.544 L -12.407,-164.505 L 12.407,-164.505 z
M 3.65581,-166.503 L 3.46892,-166.527 L 3.28647,-166.573 L 3.11133,-166.643 L 2.94626,-166.734 L 2.79385,-166.844
 L 2.65654,-166.973 L 2.53647,-167.118 L 2.43553,-167.277 L 2.35533,-167.448 L 2.29712,-167.627 L 2.26183,-167.812
 L 2.25,-168 L 2.26183,-168.188 L 2.29712,-168.373 L 2.35533,-168.552 L 2.43553,-168.723 L 2.53647,-168.882
 L 2.65654,-169.027 L 2.79385,-169.156 L 2.94626,-169.266 L 3.11133,-169.357 L 3.28647,-169.427 L 3.46892,-169.473
 L 3.65581,-169.497 L 3.84418,-169.497 L 4.03107,-169.473 L 4.21352,-169.427 L 4.38866,-169.357 L 4.55373,-169.266
 L 4.70613,-169.156 L 4.84344,-169.027 L 4.96352,-168.882 L 5.06445,-168.723 L 5.14465,-168.552 L 5.20287,-168.373
 L 5.23816,-168.188 L 5.25,-168 L 5.23816,-167.812 L 5.20287,-167.627 L 5.14465,-167.448 L 5.06445,-167.277
 L 4.96352,-167.118 L 4.84344,-166.973 L 4.70613,-166.844 L 4.55373,-166.734 L 4.38866,-166.643 L 4.21352,-166.573
 L 4.03107,-166.527 L 3.84418,-166.503 z
M -3.84418,-166.503 L -4.03107,-166.527 L -4.21352,-166.573 L -4.38866,-166.643 L -4.55373,-166.734 L -4.70613,-166.844
 L -4.84344,-166.973 L -4.96352,-167.118 L -5.06445,-167.277 L -5.14465,-167.448 L -5.20287,-167.627 L -5.23816,-167.812
 L -5.25,-168 L -5.23816,-168.188 L -5.20287,-168.373 L -5.14465,-168.552 L -5.06445,-168.723 L -4.96352,-168.882
 L -4.84344,-169.027 L -4.70613,-169.156 L -4.55373,-169.266 L -4.38866,-169.357 L -4.21352,-169.427 L -4.03107,-169.473
 L -3.84418,-169.497 L -3.65581,-169.497 L -3.46892,-169.473 L -3.28647,-169.427 L -3.11133,-169.357 L -2.94626,-169.266
 L -2.79385,-169.156 L -2.65654,-169.027 L -2.53647,-168.882 L -2.43553,-168.723 L -2.35533,-168.552 L -2.29712,-168.373
 L -2.26183,-168.188 L -2.25,-168 L -2.26183,-167.812 L -2.29712,-167.627 L -2.35533,-167.448 L -2.43553,-167.277
 L -2.53647,-167.118 L -2.65654,-166.973 L -2.79385,-166.844 L -2.94626,-166.734 L -3.11133,-166.643 L -3.28647,-166.573
 L -3.46892,-166.527 L -3.65581,-166.503 z
M 11.1558,-166.503 L 10.9689,-166.527 L 10.7865,-166.573 L 10.6113,-166.643 L 10.4463,-166.734 L 10.2939,-166.844
 L 10.1565,-166.973 L 10.0365,-167.118 L 9.93553,-167.277 L 9.85533,-167.448 L 9.79712,-167.627 L 9.76183,-167.812
 L 9.75,-168 L 9.76183,-168.188 L 9.79712,-168.373 L 9.85533,-168.552 L 9.93553,-168.723 L 10.0365,-168.882
 L 10.1565,-169.027 L 10.2939,-169.156 L 10.4463,-169.266 L 10.6113,-169.357 L 10.7865,-169.427 L 10.9689,-169.473
 L 11.1558,-169.497 L 11.3442,-169.497 L 11.5311,-169.473 L 11.7135,-169.427 L 11.8887,-169.357 L 12.0537,-169.266
 L 12.2061,-169.156 L 12.3434,-169.027 L 12.4635,-168.882 L 12.5645,-168.723 L 12.6447,-168.552 L 12.7029,-168.373
 L 12.7382,-168.188 L 12.75,-168 L 12.7382,-167.812 L 12.7029,-167.627 L 12.6447,-167.448 L 12.5645,-167.277
 L 12.4635,-167.118 L 12.3434,-166.973 L 12.2061,-166.844 L 12.0537,-166.734 L 11.8887,-166.643 L 11.7135,-166.573
 L 11.5311,-166.527 L 11.3442,-166.503 z
M -11.3442,-166.503 L -11.5311,-166.527 L -11.7135,-166.573 L -11.8887,-166.643 L -12.0537,-166.734 L -12.2061,-166.844
 L -12.3434,-166.973 L -12.4635,-167.118 L -12.5645,-167.277 L -12.6447,-167.448 L -12.7029,-167.627 L -12.7382,-167.812
 L -12.75,-168 L -12.7382,-168.188 L -12.7029,-168.373 L -12.6447,-168.552 L -12.5645,-168.723 L -12.4635,-168.882
 L -12.3434,-169.027 L -12.2061,-169.156 L -12.0537,-169.266 L -11.8887,-169.357 L -11.7135,-169.427 L -11.5311,-169.473
 L -11.3442,-169.497 L -11.1558,-169.497 L -10.9689,-169.473 L -10.7865,-169.427 L -10.6113,-169.357 L -10.4463,-169.266
 L -10.2939,-169.156 L -10.1565,-169.027 L -10.0365,-168.882 L -9.93553,-168.723 L -9.85533,-168.552 L -9.79712,-168.373
 L -9.76183,-168.188 L -9.75,-168 L -9.76183,-167.812 L -9.79712,-167.627 L -9.85533,-167.448 L -9.93553,-167.277
 L -10.0365,-167.118 L -10.1565,-166.973 L -10.2939,-166.844 L -10.4463,-166.734 L -10.6113,-166.643 L -10.7865,-166.573
 L -10.9689,-166.527 L -11.1558,-166.503 z
M 12.7184,-140.544 L 13.0225,-140.622 L 13.3144,-140.738 L 13.5896,-140.889 L 13.8436,-141.074 L 14.0724,-141.289
 L 14.2725,-141.531 L 14.4408,-141.796 L 14.5744,-142.08 L 14.6714,-142.378 L 14.7303,-142.687 L 14.75,-143
 L 14.75,-145 L 14.7303,-145.313 L 14.6714,-145.622 L 14.5744,-145.92 L 14.4408,-146.204 L 14.2725,-146.469
 L 14.0724,-146.711 L 13.8436,-146.926 L 13.5896,-147.111 L 13.3144,-147.262 L 13.0225,-147.378 L 12.7184,-147.456
 L 12.407,-147.495 L -12.407,-147.495 L -12.7184,-147.456 L -13.0225,-147.378 L -13.3144,-147.262 L -13.5896,-147.111
 L -13.8436,-146.926 L -14.0724,-146.711 L -14.2725,-146.469 L -14.4408,-146.204 L -14.5744,-145.92 L -14.6714,-145.622
 L -14.7303,-145.313 L -14.75,-145 L -14.75,-143 L -14.7303,-142.687 L -14.6714,-142.378 L -14.5744,-142.08
 L -14.4408,-141.796 L -14.2725,-141.531 L -14.0724,-141.289 L -13.8436,-141.074 L -13.5896,-140.889 L -13.3144,-140.738
 L -13.0225,-140.622 L -12.7184,-140.544 L -12.407,-140.505 L 12.407,-140.505 z
M -3.84418,-142.503 L -4.03107,-142.527 L -4.21352,-142.573 L -4.38866,-142.643 L -4.55373,-142.734 L -4.70613,-142.844
 L -4.84344,-142.973 L -4.96352,-143.118 L -5.06445,-143.277 L -5.14465,-143.448 L -5.20287,-143.627 L -5.23816,-143.812
 L -5.25,-144 L -5.23816,-144.188 L -5.20287,-144.373 L -5.14465,-144.552 L -5.06445,-144.723 L -4.96352,-144.882
 L -4.84344,-145.027 L -4.70613,-145.156 L -4.55373,-145.266 L -4.38866,-145.357 L -4.21352,-145.427 L -4.03107,-145.473
 L -3.84418,-145.497 L -3.65581,-145.497 L -3.46892,-145.473 L -3.28647,-145.427 L -3.11133,-145.357 L -2.94626,-145.266
 L -2.79385,-145.156 L -2.65654,-145.027 L -2.53647,-144.882 L -2.43553,-144.723 L -2.35533,-144.552 L -2.29712,-144.373
 L -2.26183,-144.188 L -2.25,-144 L -2.26183,-143.812 L -2.29712,-143.627 L -2.35533,-143.448 L -2.43553,-143.277
 L -2.53647,-143.118 L -2.65654,-142.973 L -2.79385,-142.844 L -2.94626,-142.734 L -3.11133,-142.643 L -3.28647,-142.573
 L -3.46892,-142.527 L -3.65581,-142.503 z
M 11.1558,-142.503 L 10.9689,-142.527 L 10.7865,-142.573 L 10.6113,-142.643 L 10.4463,-142.734 L 10.2939,-142.844
 L 10.1565,-142.973 L 10.0365,-143.118 L 9.93553,-143.277 L 9.85533,-143.448 L 9.79712,-143.627 L 9.76183,-143.812
 L 9.75,-144 L 9.76183,-144.188 L 9.79712,-144.373 L 9.85533,-144.552 L 9.93553,-144.723 L 10.0365,-144.882
 L 10.1565,-145.027 L 10.2939,-145.156 L 10.4463,-145.266 L 10.6113,-145.357 L 10.7865,-145.427 L 10.9689,-145.473
 L 11.1558,-145.497 L 11.3442,-145.497 L 11.5311,-145.473 L 11.7135,-145.427 L 11.8887,-145.357 L 12.0537,-145.266
 L 12.2061,-145.156 L 12.3434,-145.027 L 12.4635,-144.882 L 12.5645,-144.723 L 12.6447,-144.552 L 12.7029,-144.373
 L 12.7382,-144.188 L 12.75,-144 L 12.7382,-143.812 L 12.7029,-143.627 L 12.6447,-143.448 L 12.5645,-143.277
 L 12.4635,-143.118 L 12.3434,-142.973 L 12.2061,-142.844 L 12.0537,-142.734 L 11.8887,-142.643 L 11.7135,-142.573
 L 11.5311,-142.527 L 11.3442,-142.503 z
M 3.65581,-142.503 L 3.46892,-142.527 L 3.28647,-142.573 L 3.11133,-142.643 L 2.94626,-142.734 L 2.79385,-142.844
 L 2.65654,-142.973 L 2.53647,-143.118 L 2.43553,-143.277 L 2.35533,-143.448 L 2.29712,-143.627 L 2.26183,-143.812
 L 2.25,-144 L 2.26183,-144.188 L 2.29712,-144.373 L 2.35533,-144.552 L 2.43553,-144.723 L 2.53647,-144.882
 L 2.65654,-145.027 L 2.79385,-145.156 L 2.94626,-145.266 L 3.11133,-145.357 L 3.28647,-145.427 L 3.46892,-145.473
 L 3.65581,-145.497 L 3.84418,-145.497 L 4.03107,-145.473 L 4.21352,-145.427 L 4.38866,-145.357 L 4.55373,-145.266
 L 4.70613,-145.156 L 4.84344,-145.027 L 4.96352,-144.882 L 5.06445,-144.723 L 5.14465,-144.552 L 5.20287,-144.373
 L 5.23816,-144.188 L 5.25,-144 L 5.23816,-143.812 L 5.20287,-143.627 L 5.14465,-143.448 L 5.06445,-143.277
 L 4.96352,-143.118 L 4.84344,-142.973 L 4.70613,-142.844 L 4.55373,-142.734 L 4.38866,-142.643 L 4.21352,-142.573
 L 4.03107,-142.527 L 3.84418,-142.503 z
M -11.3442,-142.503 L -11.5311,-142.527 L -11.7135,-142.573 L -11.8887,-142.643 L -12.0537,-142.734 L -12.2061,-142.844
 L -12.3434,-142.973 L -12.4635,-143.118 L -12.5645,-143.277 L -12.6447,-143.448 L -12.7029,-143.627 L -12.7382,-143.812
 L -12.75,-144 L -12.7382,-144.188 L -12.7029,-144.373 L -12.6447,-144.552 L -12.5645,-144.723 L -12.4635,-144.882
 L -12.3434,-145.027 L -12.2061,-145.156 L -12.0537,-145.266 L -11.8887,-145.357 L -11.7135,-145.427 L -11.5311,-145.473
 L -11.3442,-145.497 L -11.1558,-145.497 L -10.9689,-145.473 L -10.7865,-145.427 L -10.6113,-145.357 L -10.4463,-145.266
 L -10.2939,-145.156 L -10.1565,-145.027 L -10.0365,-144.882 L -9.93553,-144.723 L -9.85533,-144.552 L -9.79712,-144.373
 L -9.76183,-144.188 L -9.75,-144 L -9.76183,-143.812 L -9.79712,-143.627 L -9.85533,-143.448 L -9.93553,-143.277
 L -10.0365,-143.118 L -10.1565,-142.973 L -10.2939,-142.844 L -10.4463,-142.734 L -10.6113,-142.643 L -10.7865,-142.573
 L -10.9689,-142.527 L -11.1558,-142.503 z
M 12.7184,-116.544 L 13.0225,-116.622 L 13.3144,-116.738 L 13.5896,-116.889 L 13.8436,-117.074 L 14.0724,-117.289
 L 14.2725,-117.531 L 14.4408,-117.796 L 14.5744,-118.08 L 14.6714,-118.378 L 14.7303,-118.687 L 14.75,-119
 L 14.75,-121 L 14.7303,-121.313 L 14.6714,-121.622 L 14.5744,-121.92 L 14.4408,-122.204 L 14.2725,-122.469
 L 14.0724,-122.711 L 13.8436,-122.926 L 13.5896,-123.111 L 13.3144,-123.262 L 13.0225,-123.378 L 12.7184,-123.456
 L 12.407,-123.495 L -12.407,-123.495 L -12.7184,-123.456 L -13.0225,-123.378 L -13.3144,-123.262 L -13.5896,-123.111
 L -13.8436,-122.926 L -14.0724,-122.711 L -14.2725,-122.469 L -14.4408,-122.204 L -14.5744,-121.92 L -14.6714,-121.622
 L -14.7303,-121.313 L -14.75,-121 L -14.75,-119 L -14.7303,-118.687 L -14.6714,-118.378 L -14.5744,-118.08
 L -14.4408,-117.796 L -14.2725,-117.531 L -14.0724,-117.289 L -13.8436,-117.074 L -13.5896,-116.889 L -13.3144,-116.738
 L -13.0225,-116.622 L -12.7184,-116.544 L -12.407,-116.505 L 12.407,-116.505 z
M -3.84418,-118.503 L -4.03107,-118.527 L -4.21352,-118.573 L -4.38866,-118.643 L -4.55373,-118.734 L -4.70613,-118.844
 L -4.84344,-118.973 L -4.96352,-119.118 L -5.06445,-119.277 L -5.14465,-119.448 L -5.20287,-119.627 L -5.23816,-119.812
 L -5.25,-120 L -5.23816,-120.188 L -5.20287,-120.373 L -5.14465,-120.552 L -5.06445,-120.723 L -4.96352,-120.882
 L -4.84344,-121.027 L -4.70613,-121.156 L -4.55373,-121.266 L -4.38866,-121.357 L -4.21352,-121.427 L -4.03107,-121.473
 L -3.84418,-121.497 L -3.65581,-121.497 L -3.46892,-121.473 L -3.28647,-121.427 L -3.11133,-121.357 L -2.94626,-121.266
 L -2.79385,-121.156 L -2.65654,-121.027 L -2.53647,-120.882 L -2.43553,-120.723 L -2.35533,-120.552 L -2.29712,-120.373
 L -2.26183,-120.188 L -2.25,-120 L -2.26183,-119.812 L -2.29712,-119.627 L -2.35533,-119.448 L -2.43553,-119.277
 L -2.53647,-119.118 L -2.65654,-118.973 L -2.79385,-118.844 L -2.94626,-118.734 L -3.11133,-118.643 L -3.28647,-118.573
 L -3.46892,-118.527 L -3.65581,-118.503 z
M 11.1558,-118.503 L 10.9689,-118.527 L 10.7865,-118.573 L 10.6113,-118.643 L 10.4463,-118.734 L 10.2939,-118.844
 L 10.1565,-118.973 L 10.0365,-119.118 L 9.93553,-119.277 L 9.85533,-119.448 L 9.79712,-119.627 L 9.76183,-119.812
 L 9.75,-120 L 9.76183,-120.188 L 9.79712,-120.373 L 9.85533,-120.552 L 9.93553,-120.723 L 10.0365,-120.882
 L 10.1565,-121.027 L 10.2939,-121.156 L 10.4463,-121.266 L 10.6113,-121.357 L 10.7865,-121.427 L 10.9689,-121.473
 L 11.1558,-121.497 L 11.3442,-121.497 L 11.5311,-121.473 L 11.7135,-121.427 L 11.8887,-121.357 L 12.0537,-121.266
 L 12.2061,-121.156 L 12.3434,-121.027 L 12.4635,-120.882 L 12.5645,-120.723 L 12.6447,-120.552 L 12.7029,-120.373
 L 12.7382,-120.188 L 12.75,-120 L 12.7382,-119.812 L 12.7029,-119.627 L 12.6447,-119.448 L 12.5645,-119.277
 L 12.4635,-119.118 L 12.3434,-118.973 L 12.2061,-118.844 L 12.0537,-118.734 L 11.8887,-118.643 L 11.7135,-118.573
 L 11.5311,-118.527 L 11.3442,-118.503 z
M 3.65581,-118.503 L 3.46892,-118.527 L 3.28647,-118.573 L 3.11133,-118.643 L 2.94626,-118.734 L 2.79385,-118.844
 L 2.65654,-118.973 L 2.53647,-119.118 L 2.43553,-119.277 L 2.35533,-119.448 L 2.29712,-119.627 L 2.26183,-119.812
 L 2.25,-120 L 2.26183,-120.188 L 2.29712,-120.373 L 2.35533,-120.552 L 2.43553,-120.723 L 2.53647,-120.882
 L 2.65654,-121.027 L 2.79385,-121.156 L 2.94626,-121.266 L 3.11133,-121.357 L 3.28647,-121.427 L 3.46892,-121.473
 L 3.65581,-121.497 L 3.84418,-121.497 L 4.03107,-121.473 L 4.21352,-121.427 L 4.38866,-121.357 L 4.55373,-121.266
 L 4.70613,-121.156 L 4.84344,-121.027 L 4.96352,-120.882 L 5.06445,-120.723 L 5.14465,-120.552 L 5.20287,-120.373
 L 5.23816,-120.188 L 5.25,-120 L 5.23816,-119.812 L 5.20287,-119.627 L 5.14465,-119.448 L 5.06445,-119.277
 L 4.96352,-119.118 L 4.84344,-118.973 L 4.70613,-118.844 L 4.55373,-118.734 L 4.38866,-118.643 L 4.21352,-118.573
 L 4.03107,-118.527 L 3.84418,-118.503 z
M -11.3442,-118.503 L -11.5311,-118.527 L -11.7135,-118.573 L -11.8887,-118.643 L -12.0537,-118.734 L -12.2061,-118.844
 L -12.3434,-118.973 L -12.4635,-119.118 L -12.5645,-119.277 L -12.6447,-119.448 L -12.7029,-119.627 L -12.7382,-119.812
 L -12.75,-120 L -12.7382,-120.188 L -12.7029,-120.373 L -12.6447,-120.552 L -12.5645,-120.723 L -12.4635,-120.882
 L -12.3434,-121.027 L -12.2061,-121.156 L -12.0537,-121.266 L -11.8887,-121.357 L -11.7135,-121.427 L -11.5311,-121.473
 L -11.3442,-121.497 L -11.1558,-121.497 L -10.9689,-121.473 L -10.7865,-121.427 L -10.6113,-121.357 L -10.4463,-121.266
 L -10.2939,-121.156 L -10.1565,-121.027 L -10.0365,-120.882 L -9.93553,-120.723 L -9.85533,-120.552 L -9.79712,-120.373
 L -9.76183,-120.188 L -9.75,-120 L -9.76183,-119.812 L -9.79712,-119.627 L -9.85533,-119.448 L -9.93553,-119.277
 L -10.0365,-119.118 L -10.1565,-118.973 L -10.2939,-118.844 L -10.4463,-118.734 L -10.6113,-118.643 L -10.7865,-118.573
 L -10.9689,-118.527 L -11.1558,-118.503 z
" stroke="black" fill="lightgray" stroke-width="0.5"/>
</svg>
