<?xml version="1.0" standalone="no"?>
<!DOCTYPE svg PUBLIC "-//W3C//DTD SVG 1.1//EN" "http://www.w3.org/Graphics/SVG/1.1/DTD/svg11.dtd">
<svg width="16mm" height="154mm" viewBox="-8 -239 16 154" xmlns="http://www.w3.org/2000/svg" version="1.1">
<title>OpenSCAD Model</title>
<path d="
M 3.4369,-193.589 L 4.04507,-193.745 L 4.62889,-193.976 L 5.17912,-194.278 L 5.68712,-194.647 L 6.14484,-195.077
 L 6.54507,-195.561 L 6.88153,-196.091 L 7.14888,-196.659 L 7.34291,-197.257 L 7.46057,-197.873 L 7.5,-198.5
 L 7.5,-233.5 L 7.46057,-234.127 L 7.34291,-234.743 L 7.14888,-235.341 L 6.88153,-235.909 L 6.54507,-236.439
 L 6.14484,-236.923 L 5.68712,-237.353 L 5.17912,-237.722 L 4.62889,-238.024 L 4.04507,-238.255 L 3.4369,-238.411
 L 2.81395,-238.49 L -2.81395,-238.49 L -3.4369,-238.411 L -4.04507,-238.255 L -4.62889,-238.024 L -5.17912,-237.722
 L -5.68712,-237.353 L -6.14484,-236.923 L -6.54507,-236.439 L -6.88153,-235.909 L -7.14888,-235.341 L -7.34291,-234.743
 L -7.46057,-234.127 L -7.5,-233.5 L -7.5,-198.5 L -7.46057,-197.873 L -7.34291,-197.257 L -7.14888,-196.659
 L -6.88153,-196.091 L -6.54507,-195.561 L -6.14484,-195.077 L -5.68712,-194.647 L -5.17912,-194.278 L -4.62889,-193.976
 L -4.04507,-193.745 L -3.4369,-193.589 L -2.81395,-193.51 L 2.81395,-193.51 z
M -2.54825,-194.009 L -3.14006,-194.084 L -3.71782,-194.232 L -4.27245,-194.452 L -4.79517,-194.739 L -5.27776,-195.09
 L -5.7126,-195.498 L -6.09282,-195.958 L -6.41245,-196.462 L -6.66643,-197.001 L -6.85077,-197.569 L -6.96254,-198.155
 L -7,-198.75 L -7,-233.25 L -6.96254,-233.845 L -6.85077,-234.431 L -6.66643,-234.999 L -6.41245,-235.538
 L -6.09282,-236.042 L -5.7126,-236.502 L -5.27776,-236.91 L -4.79517,-237.261 L -4.27245,-237.548 L -3.71782,-237.768
 L -3.14006,-237.916 L -2.54825,-237.991 L 2.54825,-237.991 L 3.14006,-237.916 L 3.71782,-237.768 L 4.27245,-237.548
 L 4.79517,-237.261 L 5.27776,-236.91 L 5.7126,-236.502 L 6.09282,-236.042 L 6.41245,-235.538 L 6.66643,-234.999
 L 6.85077,-234.431 L 6.96254,-233.845 L 7,-233.25 L 7,-198.75 L 6.96254,-198.155 L 6.85077,-197.569
 L 6.66643,-197.001 L 6.41245,-196.462 L 6.09282,-195.958 L 5.7126,-195.498 L 5.27776,-195.09 L 4.79517,-194.739
 L 4.27245,-194.452 L 3.71782,-194.232 L 3.14006,-194.084 L 2.54825,-194.009 z
M 3.4369,-139.589 L 4.04507,-139.745 L 4.62889,-139.976 L 5.17912,-140.278 L 5.68712,-140.647 L 6.14484,-141.077
 L 6.54507,-141.561 L 6.88153,-142.091 L 7.14888,-142.659 L 7.34291,-143.257 L 7.46057,-143.873 L 7.5,-144.5
 L 7.5,-179.5 L 7.46057,-180.127 L 7.34291,-180.743 L 7.14888,-181.341 L 6.88153,-181.909 L 6.54507,-182.439
 L 6.14484,-182.923 L 5.68712,-183.353 L 5.17912,-183.722 L 4.62889,-184.024 L 4.04507,-184.255 L 3.4369,-184.411
 L 2.81395,-184.49 L -2.81395,-184.49 L -3.4369,-184.411 L -4.04507,-184.255 L -4.62889,-184.024 L -5.17912,-183.722
 L -5.68712,-183.353 L -6.14484,-182.923 L -6.54507,-182.439 L -6.88153,-181.909 L -7.14888,-181.341 L -7.34291,-180.743
 L -7.46057,-180.127 L -7.5,-179.5 L -7.5,-144.5 L -7.46057,-143.873 L -7.34291,-143.257 L -7.14888,-142.659
 L -6.88153,-142.091 L -6.54507,-141.561 L -6.14484,-141.077 L -5.68712,-140.647 L -5.17912,-140.278 L -4.62889,-139.976
 L -4.04507,-139.745 L -3.4369,-139.589 L -2.81395,-139.51 L 2.81395,-139.51 z
M -2.49297,-140.888 L -2.97505,-140.949 L -3.44572,-141.07 L -3.89754,-141.249 L -4.32336,-141.483 L -4.71649,-141.769
 L -5.07071,-142.101 L -5.38046,-142.476 L -5.64084,-142.886 L -5.84773,-143.326 L -5.99789,-143.788 L -6.08896,-144.265
 L -6.11946,-144.75 L -6.11946,-179.25 L -6.08896,-179.735 L -5.99789,-180.212 L -5.84773,-180.674 L -5.64084,-181.114
 L -5.38046,-181.524 L -5.07071,-181.899 L -4.71649,-182.231 L -4.32336,-182.517 L -3.89754,-182.751 L -3.44572,-182.93
 L -2.97505,-183.051 L -2.49297,-183.112 L 2.49297,-183.112 L 2.97505,-183.051 L 3.44572,-182.93 L 3.89754,-182.751
 L 4.32336,-182.517 L 4.71649,-182.231 L 5.07071,-181.899 L 5.38046,-181.524 L 5.64084,-181.114 L 5.84773,-180.674
 L 5.99789,-180.212 L 6.08896,-179.735 L 6.11946,-179.25 L 6.11946,-144.75 L 6.08896,-144.265 L 5.99789,-143.788
 L 5.84773,-143.326 L 5.64084,-142.886 L 5.38046,-142.476 L 5.07071,-142.101 L 4.71649,-141.769 L 4.32336,-141.483
 L 3.89754,-141.249 L 3.44572,-141.07 L 2.97505,-140.949 L 2.49297,-140.888 z
M 3.4369,-85.5886 L 4.04507,-85.7447 L 4.62889,-85.9759 L 5.17912,-86.2784 L 5.68712,-86.6474 L 6.14484,-87.0773
 L 6.54507,-87.5611 L 6.88153,-88.0912 L 7.14888,-88.6594 L 7.34291,-89.2566 L 7.46057,-89.8733 L 7.5,-90.5
 L 7.5,-125.5 L 7.46057,-126.127 L 7.34291,-126.743 L 7.14888,-127.341 L 6.88153,-127.909 L 6.54507,-128.439
 L 6.14484,-128.923 L 5.68712,-129.353 L 5.17912,-129.722 L 4.62889,-130.024 L 4.04507,-130.255 L 3.4369,-130.411
 L 2.81395,-130.49 L -2.81395,-130.49 L -3.4369,-130.411 L -4.04507,-130.255 L -4.62889,-130.024 L -5.17912,-129.722
 L -5.68712,-129.353 L -6.14484,-128.923 L -6.54507,-128.439 L -6.88153,-127.909 L -7.14888,-127.341 L -7.34291,-126.743
 L -7.46057,-126.127 L -7.5,-125.5 L -7.5,-90.5 L -7.46057,-89.8733 L -7.34291,-89.2566 L -7.14888,-88.6594
 L -6.88153,-88.0912 L -6.54507,-87.5611 L -6.14484,-87.0773 L -5.68712,-86.6474 L -5.17912,-86.2784 L -4.62889,-85.9759
 L -4.04507,-85.7447 L -3.4369,-85.5886 L -2.81395,-85.5099 L 2.81395,-85.5099 z
M -0.0941772,-121.503 L -0.281067,-121.527 L -0.463516,-121.573 L -0.638657,-121.643 L -0.803726,-121.734 L -0.956131,-121.844
 L -1.09344,-121.973 L -1.21352,-122.118 L -1.31445,-122.277 L -1.39465,-122.448 L -1.45287,-122.627 L -1.48816,-122.812
 L -1.5,-123 L -1.48816,-123.188 L -1.45287,-123.373 L -1.39465,-123.552 L -1.31445,-123.723 L -1.21352,-123.882
 L -1.09344,-124.027 L -0.956131,-124.156 L -0.803726,-124.266 L -0.638657,-124.357 L -0.463516,-124.427 L -0.281067,-124.473
 L -0.0941772,-124.497 L 0.0941772,-124.497 L 0.281067,-124.473 L 0.463516,-124.427 L 0.638657,-124.357 L 0.803726,-124.266
 L 0.956131,-124.156 L 1.09344,-124.027 L 1.21352,-123.882 L 1.31445,-123.723 L 1.39465,-123.552 L 1.45287,-123.373
 L 1.48816,-123.188 L 1.5,-123 L 1.48816,-122.812 L 1.45287,-122.627 L 1.39465,-122.448 L 1.31445,-122.277
 L 1.21352,-122.118 L 1.09344,-121.973 L 0.956131,-121.844 L 0.803726,-121.734 L 0.638657,-121.643 L 0.463516,-121.573
 L 0.281067,-121.527 L 0.0941772,-121.503 z
M -0.0941772,-91.503 L -0.281067,-91.5266 L -0.463516,-91.5734 L -0.638657,-91.6428 L -0.803726,-91.7335 L -0.956131,-91.8442
 L -1.09344,-91.9732 L -1.21352,-92.1183 L -1.31445,-92.2774 L -1.39465,-92.4478 L -1.45287,-92.627 L -1.48816,-92.812
 L -1.5,-93 L -1.48816,-93.188 L -1.45287,-93.373 L -1.39465,-93.5522 L -1.31445,-93.7226 L -1.21352,-93.8817
 L -1.09344,-94.0268 L -0.956131,-94.1558 L -0.803726,-94.2665 L -0.638657,-94.3573 L -0.463516,-94.4266 L -0.281067,-94.4734
 L -0.0941772,-94.4971 L 0.0941772,-94.4971 L 0.281067,-94.4734 L 0.463516,-94.4266 L 0.638657,-94.3573 L 0.803726,-94.2665
 L 0.956131,-94.1558 L 1.09344,-94.0268 L 1.21352,-93.8817 L 1.31445,-93.7226 L 1.39465,-93.5522 L 1.45287,-93.373
 L 1.48816,-93.188 L 1.5,-93 L 1.48816,-92.812 L 1.45287,-92.627 L 1.39465,-92.4478 L 1.31445,-92.2774
 L 1.21352,-92.1183 L 1.09344,-91.9732 L 0.956131,-91.8442 L 0.803726,-91.7335 L 0.638657,-91.6428 L 0.463516,-91.5734
 L 0.281067,-91.5266 L 0.0941772,-91.503 z
" stroke="black" fill="lightgray" stroke-width="0.5"/>
</svg>
