  0
SECTION
  2
BLOCKS
  0
ENDSEC
  0
SECTION
  2
ENTITIES
  0
LINE
  8
0
 10
8.96844
 20
43.0443
 11
9.27254
 21
43.1224
  0
LINE
  8
0
 10
9.27254
 20
43.1224
 11
9.56444
 21
43.2379
  0
LINE
  8
0
 10
9.56444
 20
43.2379
 11
9.83955
 21
43.3892
  0
LINE
  8
0
 10
9.83955
 20
43.3892
 11
10.0936
 21
43.5737
  0
LINE
  8
0
 10
10.0936
 20
43.5737
 11
10.3224
 21
43.7886
  0
LINE
  8
0
 10
10.3224
 20
43.7886
 11
10.5225
 21
44.0305
  0
LINE
  8
0
 10
10.5225
 20
44.0305
 11
10.6908
 21
44.2956
  0
LINE
  8
0
 10
10.6908
 20
44.2956
 11
10.8244
 21
44.5797
  0
LINE
  8
0
 10
10.8244
 20
44.5797
 11
10.9214
 21
44.8783
  0
LINE
  8
0
 10
10.9214
 20
44.8783
 11
10.9803
 21
45.1867
  0
LINE
  8
0
 10
10.9803
 20
45.1867
 11
11
 21
45.5
  0
LINE
  8
0
 10
11
 20
45.5
 11
11
 21
62.5
  0
LINE
  8
0
 10
11
 20
62.5
 11
10.9803
 21
62.8133
  0
LINE
  8
0
 10
10.9803
 20
62.8133
 11
10.9214
 21
63.1217
  0
LINE
  8
0
 10
10.9214
 20
63.1217
 11
10.8244
 21
63.4203
  0
LINE
  8
0
 10
10.8244
 20
63.4203
 11
10.6908
 21
63.7044
  0
LINE
  8
0
 10
10.6908
 20
63.7044
 11
10.5225
 21
63.9695
  0
LINE
  8
0
 10
10.5225
 20
63.9695
 11
10.3224
 21
64.2114
  0
LINE
  8
0
 10
10.3224
 20
64.2114
 11
10.0936
 21
64.4263
  0
LINE
  8
0
 10
10.0936
 20
64.4263
 11
9.83955
 21
64.6108
  0
LINE
  8
0
 10
9.83955
 20
64.6108
 11
9.56444
 21
64.7621
  0
LINE
  8
0
 10
9.56444
 20
64.7621
 11
9.27254
 21
64.8776
  0
LINE
  8
0
 10
9.27254
 20
64.8776
 11
8.96844
 21
64.9557
  0
LINE
  8
0
 10
8.96844
 20
64.9557
 11
8.65697
 21
64.9951
  0
LINE
  8
0
 10
8.65697
 20
64.9951
 11
-8.65697
 21
64.9951
  0
LINE
  8
0
 10
-8.65697
 20
64.9951
 11
-8.96844
 21
64.9557
  0
LINE
  8
0
 10
-8.96844
 20
64.9557
 11
-9.27254
 21
64.8776
  0
LINE
  8
0
 10
-9.27254
 20
64.8776
 11
-9.56444
 21
64.7621
  0
LINE
  8
0
 10
-9.56444
 20
64.7621
 11
-9.83955
 21
64.6108
  0
LINE
  8
0
 10
-9.83955
 20
64.6108
 11
-10.0936
 21
64.4263
  0
LINE
  8
0
 10
-10.0936
 20
64.4263
 11
-10.3224
 21
64.2114
  0
LINE
  8
0
 10
-10.3224
 20
64.2114
 11
-10.5225
 21
63.9695
  0
LINE
  8
0
 10
-10.5225
 20
63.9695
 11
-10.6908
 21
63.7044
  0
LINE
  8
0
 10
-10.6908
 20
63.7044
 11
-10.8244
 21
63.4203
  0
LINE
  8
0
 10
-10.8244
 20
63.4203
 11
-10.9214
 21
63.1217
  0
LINE
  8
0
 10
-10.9214
 20
63.1217
 11
-10.9803
 21
62.8133
  0
LINE
  8
0
 10
-10.9803
 20
62.8133
 11
-11
 21
62.5
  0
LINE
  8
0
 10
-11
 20
62.5
 11
-11
 21
45.5
  0
LINE
  8
0
 10
-11
 20
45.5
 11
-10.9803
 21
45.1867
  0
LINE
  8
0
 10
-10.9803
 20
45.1867
 11
-10.9214
 21
44.8783
  0
LINE
  8
0
 10
-10.9214
 20
44.8783
 11
-10.8244
 21
44.5797
  0
LINE
  8
0
 10
-10.8244
 20
44.5797
 11
-10.6908
 21
44.2956
  0
LINE
  8
0
 10
-10.6908
 20
44.2956
 11
-10.5225
 21
44.0305
  0
LINE
  8
0
 10
-10.5225
 20
44.0305
 11
-10.3224
 21
43.7886
  0
LINE
  8
0
 10
-10.3224
 20
43.7886
 11
-10.0936
 21
43.5737
  0
LINE
  8
0
 10
-10.0936
 20
43.5737
 11
-9.83955
 21
43.3892
  0
LINE
  8
0
 10
-9.83955
 20
43.3892
 11
-9.56444
 21
43.2379
  0
LINE
  8
0
 10
-9.56444
 20
43.2379
 11
-9.27254
 21
43.1224
  0
LINE
  8
0
 10
-9.27254
 20
43.1224
 11
-8.96844
 21
43.0443
  0
LINE
  8
0
 10
-8.96844
 20
43.0443
 11
-8.65697
 21
43.0049
  0
LINE
  8
0
 10
-8.65697
 20
43.0049
 11
8.65697
 21
43.0049
  0
LINE
  8
0
 10
8.65697
 20
43.0049
 11
8.96844
 21
43.0443
  0
LINE
  8
0
 10
-7.59418
 20
60.0029
 11
-7.78107
 21
60.0266
  0
LINE
  8
0
 10
-7.78107
 20
60.0266
 11
-7.96352
 21
60.0734
  0
LINE
  8
0
 10
-7.96352
 20
60.0734
 11
-8.13866
 21
60.1427
  0
LINE
  8
0
 10
-8.13866
 20
60.1427
 11
-8.30373
 21
60.2335
  0
LINE
  8
0
 10
-8.30373
 20
60.2335
 11
-8.45613
 21
60.3442
  0
LINE
  8
0
 10
-8.45613
 20
60.3442
 11
-8.59344
 21
60.4732
  0
LINE
  8
0
 10
-8.59344
 20
60.4732
 11
-8.71352
 21
60.6183
  0
LINE
  8
0
 10
-8.71352
 20
60.6183
 11
-8.81445
 21
60.7774
  0
LINE
  8
0
 10
-8.81445
 20
60.7774
 11
-8.89465
 21
60.9478
  0
LINE
  8
0
 10
-8.89465
 20
60.9478
 11
-8.95287
 21
61.127
  0
LINE
  8
0
 10
-8.95287
 20
61.127
 11
-8.98816
 21
61.312
  0
LINE
  8
0
 10
-8.98816
 20
61.312
 11
-9
 21
61.5
  0
LINE
  8
0
 10
-9
 20
61.5
 11
-8.98816
 21
61.688
  0
LINE
  8
0
 10
-8.98816
 20
61.688
 11
-8.95287
 21
61.873
  0
LINE
  8
0
 10
-8.95287
 20
61.873
 11
-8.89465
 21
62.0522
  0
LINE
  8
0
 10
-8.89465
 20
62.0522
 11
-8.81445
 21
62.2226
  0
LINE
  8
0
 10
-8.81445
 20
62.2226
 11
-8.71352
 21
62.3817
  0
LINE
  8
0
 10
-8.71352
 20
62.3817
 11
-8.59344
 21
62.5268
  0
LINE
  8
0
 10
-8.59344
 20
62.5268
 11
-8.45613
 21
62.6558
  0
LINE
  8
0
 10
-8.45613
 20
62.6558
 11
-8.30373
 21
62.7665
  0
LINE
  8
0
 10
-8.30373
 20
62.7665
 11
-8.13866
 21
62.8572
  0
LINE
  8
0
 10
-8.13866
 20
62.8572
 11
-7.96352
 21
62.9266
  0
LINE
  8
0
 10
-7.96352
 20
62.9266
 11
-7.78107
 21
62.9734
  0
LINE
  8
0
 10
-7.78107
 20
62.9734
 11
-7.59418
 21
62.997
  0
LINE
  8
0
 10
-7.59418
 20
62.997
 11
-7.40581
 21
62.997
  0
LINE
  8
0
 10
-7.40581
 20
62.997
 11
-7.21892
 21
62.9734
  0
LINE
  8
0
 10
-7.21892
 20
62.9734
 11
-7.03647
 21
62.9266
  0
LINE
  8
0
 10
-7.03647
 20
62.9266
 11
-6.86133
 21
62.8572
  0
LINE
  8
0
 10
-6.86133
 20
62.8572
 11
-6.69626
 21
62.7665
  0
LINE
  8
0
 10
-6.69626
 20
62.7665
 11
-6.54385
 21
62.6558
  0
LINE
  8
0
 10
-6.54385
 20
62.6558
 11
-6.40654
 21
62.5268
  0
LINE
  8
0
 10
-6.40654
 20
62.5268
 11
-6.28647
 21
62.3817
  0
LINE
  8
0
 10
-6.28647
 20
62.3817
 11
-6.18553
 21
62.2226
  0
LINE
  8
0
 10
-6.18553
 20
62.2226
 11
-6.10533
 21
62.0522
  0
LINE
  8
0
 10
-6.10533
 20
62.0522
 11
-6.04712
 21
61.873
  0
LINE
  8
0
 10
-6.04712
 20
61.873
 11
-6.01183
 21
61.688
  0
LINE
  8
0
 10
-6.01183
 20
61.688
 11
-6
 21
61.5
  0
LINE
  8
0
 10
-6
 20
61.5
 11
-6.01183
 21
61.312
  0
LINE
  8
0
 10
-6.01183
 20
61.312
 11
-6.04712
 21
61.127
  0
LINE
  8
0
 10
-6.04712
 20
61.127
 11
-6.10533
 21
60.9478
  0
LINE
  8
0
 10
-6.10533
 20
60.9478
 11
-6.18553
 21
60.7774
  0
LINE
  8
0
 10
-6.18553
 20
60.7774
 11
-6.28647
 21
60.6183
  0
LINE
  8
0
 10
-6.28647
 20
60.6183
 11
-6.40654
 21
60.4732
  0
LINE
  8
0
 10
-6.40654
 20
60.4732
 11
-6.54385
 21
60.3442
  0
LINE
  8
0
 10
-6.54385
 20
60.3442
 11
-6.69626
 21
60.2335
  0
LINE
  8
0
 10
-6.69626
 20
60.2335
 11
-6.86133
 21
60.1427
  0
LINE
  8
0
 10
-6.86133
 20
60.1427
 11
-7.03647
 21
60.0734
  0
LINE
  8
0
 10
-7.03647
 20
60.0734
 11
-7.21892
 21
60.0266
  0
LINE
  8
0
 10
-7.21892
 20
60.0266
 11
-7.40581
 21
60.0029
  0
LINE
  8
0
 10
-7.40581
 20
60.0029
 11
-7.59418
 21
60.0029
  0
LINE
  8
0
 10
-0.0941772
 20
60.0029
 11
-0.281067
 21
60.0266
  0
LINE
  8
0
 10
-0.281067
 20
60.0266
 11
-0.463516
 21
60.0734
  0
LINE
  8
0
 10
-0.463516
 20
60.0734
 11
-0.638657
 21
60.1427
  0
LINE
  8
0
 10
-0.638657
 20
60.1427
 11
-0.803726
 21
60.2335
  0
LINE
  8
0
 10
-0.803726
 20
60.2335
 11
-0.956131
 21
60.3442
  0
LINE
  8
0
 10
-0.956131
 20
60.3442
 11
-1.09344
 21
60.4732
  0
LINE
  8
0
 10
-1.09344
 20
60.4732
 11
-1.21352
 21
60.6183
  0
LINE
  8
0
 10
-1.21352
 20
60.6183
 11
-1.31445
 21
60.7774
  0
LINE
  8
0
 10
-1.31445
 20
60.7774
 11
-1.39465
 21
60.9478
  0
LINE
  8
0
 10
-1.39465
 20
60.9478
 11
-1.45287
 21
61.127
  0
LINE
  8
0
 10
-1.45287
 20
61.127
 11
-1.48816
 21
61.312
  0
LINE
  8
0
 10
-1.48816
 20
61.312
 11
-1.5
 21
61.5
  0
LINE
  8
0
 10
-1.5
 20
61.5
 11
-1.48816
 21
61.688
  0
LINE
  8
0
 10
-1.48816
 20
61.688
 11
-1.45287
 21
61.873
  0
LINE
  8
0
 10
-1.45287
 20
61.873
 11
-1.39465
 21
62.0522
  0
LINE
  8
0
 10
-1.39465
 20
62.0522
 11
-1.31445
 21
62.2226
  0
LINE
  8
0
 10
-1.31445
 20
62.2226
 11
-1.21352
 21
62.3817
  0
LINE
  8
0
 10
-1.21352
 20
62.3817
 11
-1.09344
 21
62.5268
  0
LINE
  8
0
 10
-1.09344
 20
62.5268
 11
-0.956131
 21
62.6558
  0
LINE
  8
0
 10
-0.956131
 20
62.6558
 11
-0.803726
 21
62.7665
  0
LINE
  8
0
 10
-0.803726
 20
62.7665
 11
-0.638657
 21
62.8572
  0
LINE
  8
0
 10
-0.638657
 20
62.8572
 11
-0.463516
 21
62.9266
  0
LINE
  8
0
 10
-0.463516
 20
62.9266
 11
-0.281067
 21
62.9734
  0
LINE
  8
0
 10
-0.281067
 20
62.9734
 11
-0.0941772
 21
62.997
  0
LINE
  8
0
 10
-0.0941772
 20
62.997
 11
0.0941772
 21
62.997
  0
LINE
  8
0
 10
0.0941772
 20
62.997
 11
0.281067
 21
62.9734
  0
LINE
  8
0
 10
0.281067
 20
62.9734
 11
0.463516
 21
62.9266
  0
LINE
  8
0
 10
0.463516
 20
62.9266
 11
0.638657
 21
62.8572
  0
LINE
  8
0
 10
0.638657
 20
62.8572
 11
0.803726
 21
62.7665
  0
LINE
  8
0
 10
0.803726
 20
62.7665
 11
0.956131
 21
62.6558
  0
LINE
  8
0
 10
0.956131
 20
62.6558
 11
1.09344
 21
62.5268
  0
LINE
  8
0
 10
1.09344
 20
62.5268
 11
1.21352
 21
62.3817
  0
LINE
  8
0
 10
1.21352
 20
62.3817
 11
1.31445
 21
62.2226
  0
LINE
  8
0
 10
1.31445
 20
62.2226
 11
1.39465
 21
62.0522
  0
LINE
  8
0
 10
1.39465
 20
62.0522
 11
1.45287
 21
61.873
  0
LINE
  8
0
 10
1.45287
 20
61.873
 11
1.48816
 21
61.688
  0
LINE
  8
0
 10
1.48816
 20
61.688
 11
1.5
 21
61.5
  0
LINE
  8
0
 10
1.5
 20
61.5
 11
1.48816
 21
61.312
  0
LINE
  8
0
 10
1.48816
 20
61.312
 11
1.45287
 21
61.127
  0
LINE
  8
0
 10
1.45287
 20
61.127
 11
1.39465
 21
60.9478
  0
LINE
  8
0
 10
1.39465
 20
60.9478
 11
1.31445
 21
60.7774
  0
LINE
  8
0
 10
1.31445
 20
60.7774
 11
1.21352
 21
60.6183
  0
LINE
  8
0
 10
1.21352
 20
60.6183
 11
1.09344
 21
60.4732
  0
LINE
  8
0
 10
1.09344
 20
60.4732
 11
0.956131
 21
60.3442
  0
LINE
  8
0
 10
0.956131
 20
60.3442
 11
0.803726
 21
60.2335
  0
LINE
  8
0
 10
0.803726
 20
60.2335
 11
0.638657
 21
60.1427
  0
LINE
  8
0
 10
0.638657
 20
60.1427
 11
0.463516
 21
60.0734
  0
LINE
  8
0
 10
0.463516
 20
60.0734
 11
0.281067
 21
60.0266
  0
LINE
  8
0
 10
0.281067
 20
60.0266
 11
0.0941772
 21
60.0029
  0
LINE
  8
0
 10
0.0941772
 20
60.0029
 11
-0.0941772
 21
60.0029
  0
LINE
  8
0
 10
7.40581
 20
60.0029
 11
7.21892
 21
60.0266
  0
LINE
  8
0
 10
7.21892
 20
60.0266
 11
7.03647
 21
60.0734
  0
LINE
  8
0
 10
7.03647
 20
60.0734
 11
6.86133
 21
60.1427
  0
LINE
  8
0
 10
6.86133
 20
60.1427
 11
6.69626
 21
60.2335
  0
LINE
  8
0
 10
6.69626
 20
60.2335
 11
6.54385
 21
60.3442
  0
LINE
  8
0
 10
6.54385
 20
60.3442
 11
6.40654
 21
60.4732
  0
LINE
  8
0
 10
6.40654
 20
60.4732
 11
6.28647
 21
60.6183
  0
LINE
  8
0
 10
6.28647
 20
60.6183
 11
6.18553
 21
60.7774
  0
LINE
  8
0
 10
6.18553
 20
60.7774
 11
6.10533
 21
60.9478
  0
LINE
  8
0
 10
6.10533
 20
60.9478
 11
6.04712
 21
61.127
  0
LINE
  8
0
 10
6.04712
 20
61.127
 11
6.01183
 21
61.312
  0
LINE
  8
0
 10
6.01183
 20
61.312
 11
6
 21
61.5
  0
LINE
  8
0
 10
6
 20
61.5
 11
6.01183
 21
61.688
  0
LINE
  8
0
 10
6.01183
 20
61.688
 11
6.04712
 21
61.873
  0
LINE
  8
0
 10
6.04712
 20
61.873
 11
6.10533
 21
62.0522
  0
LINE
  8
0
 10
6.10533
 20
62.0522
 11
6.18553
 21
62.2226
  0
LINE
  8
0
 10
6.18553
 20
62.2226
 11
6.28647
 21
62.3817
  0
LINE
  8
0
 10
6.28647
 20
62.3817
 11
6.40654
 21
62.5268
  0
LINE
  8
0
 10
6.40654
 20
62.5268
 11
6.54385
 21
62.6558
  0
LINE
  8
0
 10
6.54385
 20
62.6558
 11
6.69626
 21
62.7665
  0
LINE
  8
0
 10
6.69626
 20
62.7665
 11
6.86133
 21
62.8572
  0
LINE
  8
0
 10
6.86133
 20
62.8572
 11
7.03647
 21
62.9266
  0
LINE
  8
0
 10
7.03647
 20
62.9266
 11
7.21892
 21
62.9734
  0
LINE
  8
0
 10
7.21892
 20
62.9734
 11
7.40581
 21
62.997
  0
LINE
  8
0
 10
7.40581
 20
62.997
 11
7.59418
 21
62.997
  0
LINE
  8
0
 10
7.59418
 20
62.997
 11
7.78107
 21
62.9734
  0
LINE
  8
0
 10
7.78107
 20
62.9734
 11
7.96352
 21
62.9266
  0
LINE
  8
0
 10
7.96352
 20
62.9266
 11
8.13866
 21
62.8572
  0
LINE
  8
0
 10
8.13866
 20
62.8572
 11
8.30373
 21
62.7665
  0
LINE
  8
0
 10
8.30373
 20
62.7665
 11
8.45613
 21
62.6558
  0
LINE
  8
0
 10
8.45613
 20
62.6558
 11
8.59344
 21
62.5268
  0
LINE
  8
0
 10
8.59344
 20
62.5268
 11
8.71352
 21
62.3817
  0
LINE
  8
0
 10
8.71352
 20
62.3817
 11
8.81445
 21
62.2226
  0
LINE
  8
0
 10
8.81445
 20
62.2226
 11
8.89465
 21
62.0522
  0
LINE
  8
0
 10
8.89465
 20
62.0522
 11
8.95287
 21
61.873
  0
LINE
  8
0
 10
8.95287
 20
61.873
 11
8.98816
 21
61.688
  0
LINE
  8
0
 10
8.98816
 20
61.688
 11
9
 21
61.5
  0
LINE
  8
0
 10
9
 20
61.5
 11
8.98816
 21
61.312
  0
LINE
  8
0
 10
8.98816
 20
61.312
 11
8.95287
 21
61.127
  0
LINE
  8
0
 10
8.95287
 20
61.127
 11
8.89465
 21
60.9478
  0
LINE
  8
0
 10
8.89465
 20
60.9478
 11
8.81445
 21
60.7774
  0
LINE
  8
0
 10
8.81445
 20
60.7774
 11
8.71352
 21
60.6183
  0
LINE
  8
0
 10
8.71352
 20
60.6183
 11
8.59344
 21
60.4732
  0
LINE
  8
0
 10
8.59344
 20
60.4732
 11
8.45613
 21
60.3442
  0
LINE
  8
0
 10
8.45613
 20
60.3442
 11
8.30373
 21
60.2335
  0
LINE
  8
0
 10
8.30373
 20
60.2335
 11
8.13866
 21
60.1427
  0
LINE
  8
0
 10
8.13866
 20
60.1427
 11
7.96352
 21
60.0734
  0
LINE
  8
0
 10
7.96352
 20
60.0734
 11
7.78107
 21
60.0266
  0
LINE
  8
0
 10
7.78107
 20
60.0266
 11
7.59418
 21
60.0029
  0
LINE
  8
0
 10
7.59418
 20
60.0029
 11
7.40581
 21
60.0029
  0
LINE
  8
0
 10
7.40581
 20
52.503
 11
7.21892
 21
52.5266
  0
LINE
  8
0
 10
7.21892
 20
52.5266
 11
7.03647
 21
52.5734
  0
LINE
  8
0
 10
7.03647
 20
52.5734
 11
6.86133
 21
52.6428
  0
LINE
  8
0
 10
6.86133
 20
52.6428
 11
6.69626
 21
52.7335
  0
LINE
  8
0
 10
6.69626
 20
52.7335
 11
6.54385
 21
52.8442
  0
LINE
  8
0
 10
6.54385
 20
52.8442
 11
6.40654
 21
52.9732
  0
LINE
  8
0
 10
6.40654
 20
52.9732
 11
6.28647
 21
53.1183
  0
LINE
  8
0
 10
6.28647
 20
53.1183
 11
6.18553
 21
53.2774
  0
LINE
  8
0
 10
6.18553
 20
53.2774
 11
6.10533
 21
53.4478
  0
LINE
  8
0
 10
6.10533
 20
53.4478
 11
6.04712
 21
53.627
  0
LINE
  8
0
 10
6.04712
 20
53.627
 11
6.01183
 21
53.812
  0
LINE
  8
0
 10
6.01183
 20
53.812
 11
6
 21
54
  0
LINE
  8
0
 10
6
 20
54
 11
6.01183
 21
54.188
  0
LINE
  8
0
 10
6.01183
 20
54.188
 11
6.04712
 21
54.373
  0
LINE
  8
0
 10
6.04712
 20
54.373
 11
6.10533
 21
54.5522
  0
LINE
  8
0
 10
6.10533
 20
54.5522
 11
6.18553
 21
54.7226
  0
LINE
  8
0
 10
6.18553
 20
54.7226
 11
6.28647
 21
54.8817
  0
LINE
  8
0
 10
6.28647
 20
54.8817
 11
6.40654
 21
55.0268
  0
LINE
  8
0
 10
6.40654
 20
55.0268
 11
6.54385
 21
55.1558
  0
LINE
  8
0
 10
6.54385
 20
55.1558
 11
6.69626
 21
55.2665
  0
LINE
  8
0
 10
6.69626
 20
55.2665
 11
6.86133
 21
55.3572
  0
LINE
  8
0
 10
6.86133
 20
55.3572
 11
7.03647
 21
55.4266
  0
LINE
  8
0
 10
7.03647
 20
55.4266
 11
7.21892
 21
55.4734
  0
LINE
  8
0
 10
7.21892
 20
55.4734
 11
7.40581
 21
55.497
  0
LINE
  8
0
 10
7.40581
 20
55.497
 11
7.59418
 21
55.497
  0
LINE
  8
0
 10
7.59418
 20
55.497
 11
7.78107
 21
55.4734
  0
LINE
  8
0
 10
7.78107
 20
55.4734
 11
7.96352
 21
55.4266
  0
LINE
  8
0
 10
7.96352
 20
55.4266
 11
8.13866
 21
55.3572
  0
LINE
  8
0
 10
8.13866
 20
55.3572
 11
8.30373
 21
55.2665
  0
LINE
  8
0
 10
8.30373
 20
55.2665
 11
8.45613
 21
55.1558
  0
LINE
  8
0
 10
8.45613
 20
55.1558
 11
8.59344
 21
55.0268
  0
LINE
  8
0
 10
8.59344
 20
55.0268
 11
8.71352
 21
54.8817
  0
LINE
  8
0
 10
8.71352
 20
54.8817
 11
8.81445
 21
54.7226
  0
LINE
  8
0
 10
8.81445
 20
54.7226
 11
8.89465
 21
54.5522
  0
LINE
  8
0
 10
8.89465
 20
54.5522
 11
8.95287
 21
54.373
  0
LINE
  8
0
 10
8.95287
 20
54.373
 11
8.98816
 21
54.188
  0
LINE
  8
0
 10
8.98816
 20
54.188
 11
9
 21
54
  0
LINE
  8
0
 10
9
 20
54
 11
8.98816
 21
53.812
  0
LINE
  8
0
 10
8.98816
 20
53.812
 11
8.95287
 21
53.627
  0
LINE
  8
0
 10
8.95287
 20
53.627
 11
8.89465
 21
53.4478
  0
LINE
  8
0
 10
8.89465
 20
53.4478
 11
8.81445
 21
53.2774
  0
LINE
  8
0
 10
8.81445
 20
53.2774
 11
8.71352
 21
53.1183
  0
LINE
  8
0
 10
8.71352
 20
53.1183
 11
8.59344
 21
52.9732
  0
LINE
  8
0
 10
8.59344
 20
52.9732
 11
8.45613
 21
52.8442
  0
LINE
  8
0
 10
8.45613
 20
52.8442
 11
8.30373
 21
52.7335
  0
LINE
  8
0
 10
8.30373
 20
52.7335
 11
8.13866
 21
52.6428
  0
LINE
  8
0
 10
8.13866
 20
52.6428
 11
7.96352
 21
52.5734
  0
LINE
  8
0
 10
7.96352
 20
52.5734
 11
7.78107
 21
52.5266
  0
LINE
  8
0
 10
7.78107
 20
52.5266
 11
7.59418
 21
52.503
  0
LINE
  8
0
 10
7.59418
 20
52.503
 11
7.40581
 21
52.503
  0
LINE
  8
0
 10
-7.59418
 20
52.503
 11
-7.78107
 21
52.5266
  0
LINE
  8
0
 10
-7.78107
 20
52.5266
 11
-7.96352
 21
52.5734
  0
LINE
  8
0
 10
-7.96352
 20
52.5734
 11
-8.13866
 21
52.6428
  0
LINE
  8
0
 10
-8.13866
 20
52.6428
 11
-8.30373
 21
52.7335
  0
LINE
  8
0
 10
-8.30373
 20
52.7335
 11
-8.45613
 21
52.8442
  0
LINE
  8
0
 10
-8.45613
 20
52.8442
 11
-8.59344
 21
52.9732
  0
LINE
  8
0
 10
-8.59344
 20
52.9732
 11
-8.71352
 21
53.1183
  0
LINE
  8
0
 10
-8.71352
 20
53.1183
 11
-8.81445
 21
53.2774
  0
LINE
  8
0
 10
-8.81445
 20
53.2774
 11
-8.89465
 21
53.4478
  0
LINE
  8
0
 10
-8.89465
 20
53.4478
 11
-8.95287
 21
53.627
  0
LINE
  8
0
 10
-8.95287
 20
53.627
 11
-8.98816
 21
53.812
  0
LINE
  8
0
 10
-8.98816
 20
53.812
 11
-9
 21
54
  0
LINE
  8
0
 10
-9
 20
54
 11
-8.98816
 21
54.188
  0
LINE
  8
0
 10
-8.98816
 20
54.188
 11
-8.95287
 21
54.373
  0
LINE
  8
0
 10
-8.95287
 20
54.373
 11
-8.89465
 21
54.5522
  0
LINE
  8
0
 10
-8.89465
 20
54.5522
 11
-8.81445
 21
54.7226
  0
LINE
  8
0
 10
-8.81445
 20
54.7226
 11
-8.71352
 21
54.8817
  0
LINE
  8
0
 10
-8.71352
 20
54.8817
 11
-8.59344
 21
55.0268
  0
LINE
  8
0
 10
-8.59344
 20
55.0268
 11
-8.45613
 21
55.1558
  0
LINE
  8
0
 10
-8.45613
 20
55.1558
 11
-8.30373
 21
55.2665
  0
LINE
  8
0
 10
-8.30373
 20
55.2665
 11
-8.13866
 21
55.3572
  0
LINE
  8
0
 10
-8.13866
 20
55.3572
 11
-7.96352
 21
55.4266
  0
LINE
  8
0
 10
-7.96352
 20
55.4266
 11
-7.78107
 21
55.4734
  0
LINE
  8
0
 10
-7.78107
 20
55.4734
 11
-7.59418
 21
55.497
  0
LINE
  8
0
 10
-7.59418
 20
55.497
 11
-7.40581
 21
55.497
  0
LINE
  8
0
 10
-7.40581
 20
55.497
 11
-7.21892
 21
55.4734
  0
LINE
  8
0
 10
-7.21892
 20
55.4734
 11
-7.03647
 21
55.4266
  0
LINE
  8
0
 10
-7.03647
 20
55.4266
 11
-6.86133
 21
55.3572
  0
LINE
  8
0
 10
-6.86133
 20
55.3572
 11
-6.69626
 21
55.2665
  0
LINE
  8
0
 10
-6.69626
 20
55.2665
 11
-6.54385
 21
55.1558
  0
LINE
  8
0
 10
-6.54385
 20
55.1558
 11
-6.40654
 21
55.0268
  0
LINE
  8
0
 10
-6.40654
 20
55.0268
 11
-6.28647
 21
54.8817
  0
LINE
  8
0
 10
-6.28647
 20
54.8817
 11
-6.18553
 21
54.7226
  0
LINE
  8
0
 10
-6.18553
 20
54.7226
 11
-6.10533
 21
54.5522
  0
LINE
  8
0
 10
-6.10533
 20
54.5522
 11
-6.04712
 21
54.373
  0
LINE
  8
0
 10
-6.04712
 20
54.373
 11
-6.01183
 21
54.188
  0
LINE
  8
0
 10
-6.01183
 20
54.188
 11
-6
 21
54
  0
LINE
  8
0
 10
-6
 20
54
 11
-6.01183
 21
53.812
  0
LINE
  8
0
 10
-6.01183
 20
53.812
 11
-6.04712
 21
53.627
  0
LINE
  8
0
 10
-6.04712
 20
53.627
 11
-6.10533
 21
53.4478
  0
LINE
  8
0
 10
-6.10533
 20
53.4478
 11
-6.18553
 21
53.2774
  0
LINE
  8
0
 10
-6.18553
 20
53.2774
 11
-6.28647
 21
53.1183
  0
LINE
  8
0
 10
-6.28647
 20
53.1183
 11
-6.40654
 21
52.9732
  0
LINE
  8
0
 10
-6.40654
 20
52.9732
 11
-6.54385
 21
52.8442
  0
LINE
  8
0
 10
-6.54385
 20
52.8442
 11
-6.69626
 21
52.7335
  0
LINE
  8
0
 10
-6.69626
 20
52.7335
 11
-6.86133
 21
52.6428
  0
LINE
  8
0
 10
-6.86133
 20
52.6428
 11
-7.03647
 21
52.5734
  0
LINE
  8
0
 10
-7.03647
 20
52.5734
 11
-7.21892
 21
52.5266
  0
LINE
  8
0
 10
-7.21892
 20
52.5266
 11
-7.40581
 21
52.503
  0
LINE
  8
0
 10
-7.40581
 20
52.503
 11
-7.59418
 21
52.503
  0
LINE
  8
0
 10
-0.0941772
 20
52.503
 11
-0.281067
 21
52.5266
  0
LINE
  8
0
 10
-0.281067
 20
52.5266
 11
-0.463516
 21
52.5734
  0
LINE
  8
0
 10
-0.463516
 20
52.5734
 11
-0.638657
 21
52.6428
  0
LINE
  8
0
 10
-0.638657
 20
52.6428
 11
-0.803726
 21
52.7335
  0
LINE
  8
0
 10
-0.803726
 20
52.7335
 11
-0.956131
 21
52.8442
  0
LINE
  8
0
 10
-0.956131
 20
52.8442
 11
-1.09344
 21
52.9732
  0
LINE
  8
0
 10
-1.09344
 20
52.9732
 11
-1.21352
 21
53.1183
  0
LINE
  8
0
 10
-1.21352
 20
53.1183
 11
-1.31445
 21
53.2774
  0
LINE
  8
0
 10
-1.31445
 20
53.2774
 11
-1.39465
 21
53.4478
  0
LINE
  8
0
 10
-1.39465
 20
53.4478
 11
-1.45287
 21
53.627
  0
LINE
  8
0
 10
-1.45287
 20
53.627
 11
-1.48816
 21
53.812
  0
LINE
  8
0
 10
-1.48816
 20
53.812
 11
-1.5
 21
54
  0
LINE
  8
0
 10
-1.5
 20
54
 11
-1.48816
 21
54.188
  0
LINE
  8
0
 10
-1.48816
 20
54.188
 11
-1.45287
 21
54.373
  0
LINE
  8
0
 10
-1.45287
 20
54.373
 11
-1.39465
 21
54.5522
  0
LINE
  8
0
 10
-1.39465
 20
54.5522
 11
-1.31445
 21
54.7226
  0
LINE
  8
0
 10
-1.31445
 20
54.7226
 11
-1.21352
 21
54.8817
  0
LINE
  8
0
 10
-1.21352
 20
54.8817
 11
-1.09344
 21
55.0268
  0
LINE
  8
0
 10
-1.09344
 20
55.0268
 11
-0.956131
 21
55.1558
  0
LINE
  8
0
 10
-0.956131
 20
55.1558
 11
-0.803726
 21
55.2665
  0
LINE
  8
0
 10
-0.803726
 20
55.2665
 11
-0.638657
 21
55.3572
  0
LINE
  8
0
 10
-0.638657
 20
55.3572
 11
-0.463516
 21
55.4266
  0
LINE
  8
0
 10
-0.463516
 20
55.4266
 11
-0.281067
 21
55.4734
  0
LINE
  8
0
 10
-0.281067
 20
55.4734
 11
-0.0941772
 21
55.497
  0
LINE
  8
0
 10
-0.0941772
 20
55.497
 11
0.0941772
 21
55.497
  0
LINE
  8
0
 10
0.0941772
 20
55.497
 11
0.281067
 21
55.4734
  0
LINE
  8
0
 10
0.281067
 20
55.4734
 11
0.463516
 21
55.4266
  0
LINE
  8
0
 10
0.463516
 20
55.4266
 11
0.638657
 21
55.3572
  0
LINE
  8
0
 10
0.638657
 20
55.3572
 11
0.803726
 21
55.2665
  0
LINE
  8
0
 10
0.803726
 20
55.2665
 11
0.956131
 21
55.1558
  0
LINE
  8
0
 10
0.956131
 20
55.1558
 11
1.09344
 21
55.0268
  0
LINE
  8
0
 10
1.09344
 20
55.0268
 11
1.21352
 21
54.8817
  0
LINE
  8
0
 10
1.21352
 20
54.8817
 11
1.31445
 21
54.7226
  0
LINE
  8
0
 10
1.31445
 20
54.7226
 11
1.39465
 21
54.5522
  0
LINE
  8
0
 10
1.39465
 20
54.5522
 11
1.45287
 21
54.373
  0
LINE
  8
0
 10
1.45287
 20
54.373
 11
1.48816
 21
54.188
  0
LINE
  8
0
 10
1.48816
 20
54.188
 11
1.5
 21
54
  0
LINE
  8
0
 10
1.5
 20
54
 11
1.48816
 21
53.812
  0
LINE
  8
0
 10
1.48816
 20
53.812
 11
1.45287
 21
53.627
  0
LINE
  8
0
 10
1.45287
 20
53.627
 11
1.39465
 21
53.4478
  0
LINE
  8
0
 10
1.39465
 20
53.4478
 11
1.31445
 21
53.2774
  0
LINE
  8
0
 10
1.31445
 20
53.2774
 11
1.21352
 21
53.1183
  0
LINE
  8
0
 10
1.21352
 20
53.1183
 11
1.09344
 21
52.9732
  0
LINE
  8
0
 10
1.09344
 20
52.9732
 11
0.956131
 21
52.8442
  0
LINE
  8
0
 10
0.956131
 20
52.8442
 11
0.803726
 21
52.7335
  0
LINE
  8
0
 10
0.803726
 20
52.7335
 11
0.638657
 21
52.6428
  0
LINE
  8
0
 10
0.638657
 20
52.6428
 11
0.463516
 21
52.5734
  0
LINE
  8
0
 10
0.463516
 20
52.5734
 11
0.281067
 21
52.5266
  0
LINE
  8
0
 10
0.281067
 20
52.5266
 11
0.0941772
 21
52.503
  0
LINE
  8
0
 10
0.0941772
 20
52.503
 11
-0.0941772
 21
52.503
  0
LINE
  8
0
 10
7.40581
 20
45.003
 11
7.21892
 21
45.0266
  0
LINE
  8
0
 10
7.21892
 20
45.0266
 11
7.03647
 21
45.0734
  0
LINE
  8
0
 10
7.03647
 20
45.0734
 11
6.86133
 21
45.1428
  0
LINE
  8
0
 10
6.86133
 20
45.1428
 11
6.69626
 21
45.2335
  0
LINE
  8
0
 10
6.69626
 20
45.2335
 11
6.54385
 21
45.3442
  0
LINE
  8
0
 10
6.54385
 20
45.3442
 11
6.40654
 21
45.4732
  0
LINE
  8
0
 10
6.40654
 20
45.4732
 11
6.28647
 21
45.6183
  0
LINE
  8
0
 10
6.28647
 20
45.6183
 11
6.18553
 21
45.7774
  0
LINE
  8
0
 10
6.18553
 20
45.7774
 11
6.10533
 21
45.9478
  0
LINE
  8
0
 10
6.10533
 20
45.9478
 11
6.04712
 21
46.127
  0
LINE
  8
0
 10
6.04712
 20
46.127
 11
6.01183
 21
46.312
  0
LINE
  8
0
 10
6.01183
 20
46.312
 11
6
 21
46.5
  0
LINE
  8
0
 10
6
 20
46.5
 11
6.01183
 21
46.688
  0
LINE
  8
0
 10
6.01183
 20
46.688
 11
6.04712
 21
46.873
  0
LINE
  8
0
 10
6.04712
 20
46.873
 11
6.10533
 21
47.0522
  0
LINE
  8
0
 10
6.10533
 20
47.0522
 11
6.18553
 21
47.2226
  0
LINE
  8
0
 10
6.18553
 20
47.2226
 11
6.28647
 21
47.3817
  0
LINE
  8
0
 10
6.28647
 20
47.3817
 11
6.40654
 21
47.5268
  0
LINE
  8
0
 10
6.40654
 20
47.5268
 11
6.54385
 21
47.6558
  0
LINE
  8
0
 10
6.54385
 20
47.6558
 11
6.69626
 21
47.7665
  0
LINE
  8
0
 10
6.69626
 20
47.7665
 11
6.86133
 21
47.8573
  0
LINE
  8
0
 10
6.86133
 20
47.8573
 11
7.03647
 21
47.9266
  0
LINE
  8
0
 10
7.03647
 20
47.9266
 11
7.21892
 21
47.9734
  0
LINE
  8
0
 10
7.21892
 20
47.9734
 11
7.40581
 21
47.9971
  0
LINE
  8
0
 10
7.40581
 20
47.9971
 11
7.59418
 21
47.9971
  0
LINE
  8
0
 10
7.59418
 20
47.9971
 11
7.78107
 21
47.9734
  0
LINE
  8
0
 10
7.78107
 20
47.9734
 11
7.96352
 21
47.9266
  0
LINE
  8
0
 10
7.96352
 20
47.9266
 11
8.13866
 21
47.8573
  0
LINE
  8
0
 10
8.13866
 20
47.8573
 11
8.30373
 21
47.7665
  0
LINE
  8
0
 10
8.30373
 20
47.7665
 11
8.45613
 21
47.6558
  0
LINE
  8
0
 10
8.45613
 20
47.6558
 11
8.59344
 21
47.5268
  0
LINE
  8
0
 10
8.59344
 20
47.5268
 11
8.71352
 21
47.3817
  0
LINE
  8
0
 10
8.71352
 20
47.3817
 11
8.81445
 21
47.2226
  0
LINE
  8
0
 10
8.81445
 20
47.2226
 11
8.89465
 21
47.0522
  0
LINE
  8
0
 10
8.89465
 20
47.0522
 11
8.95287
 21
46.873
  0
LINE
  8
0
 10
8.95287
 20
46.873
 11
8.98816
 21
46.688
  0
LINE
  8
0
 10
8.98816
 20
46.688
 11
9
 21
46.5
  0
LINE
  8
0
 10
9
 20
46.5
 11
8.98816
 21
46.312
  0
LINE
  8
0
 10
8.98816
 20
46.312
 11
8.95287
 21
46.127
  0
LINE
  8
0
 10
8.95287
 20
46.127
 11
8.89465
 21
45.9478
  0
LINE
  8
0
 10
8.89465
 20
45.9478
 11
8.81445
 21
45.7774
  0
LINE
  8
0
 10
8.81445
 20
45.7774
 11
8.71352
 21
45.6183
  0
LINE
  8
0
 10
8.71352
 20
45.6183
 11
8.59344
 21
45.4732
  0
LINE
  8
0
 10
8.59344
 20
45.4732
 11
8.45613
 21
45.3442
  0
LINE
  8
0
 10
8.45613
 20
45.3442
 11
8.30373
 21
45.2335
  0
LINE
  8
0
 10
8.30373
 20
45.2335
 11
8.13866
 21
45.1428
  0
LINE
  8
0
 10
8.13866
 20
45.1428
 11
7.96352
 21
45.0734
  0
LINE
  8
0
 10
7.96352
 20
45.0734
 11
7.78107
 21
45.0266
  0
LINE
  8
0
 10
7.78107
 20
45.0266
 11
7.59418
 21
45.003
  0
LINE
  8
0
 10
7.59418
 20
45.003
 11
7.40581
 21
45.003
  0
LINE
  8
0
 10
-0.0941772
 20
45.003
 11
-0.281067
 21
45.0266
  0
LINE
  8
0
 10
-0.281067
 20
45.0266
 11
-0.463516
 21
45.0734
  0
LINE
  8
0
 10
-0.463516
 20
45.0734
 11
-0.638657
 21
45.1428
  0
LINE
  8
0
 10
-0.638657
 20
45.1428
 11
-0.803726
 21
45.2335
  0
LINE
  8
0
 10
-0.803726
 20
45.2335
 11
-0.956131
 21
45.3442
  0
LINE
  8
0
 10
-0.956131
 20
45.3442
 11
-1.09344
 21
45.4732
  0
LINE
  8
0
 10
-1.09344
 20
45.4732
 11
-1.21352
 21
45.6183
  0
LINE
  8
0
 10
-1.21352
 20
45.6183
 11
-1.31445
 21
45.7774
  0
LINE
  8
0
 10
-1.31445
 20
45.7774
 11
-1.39465
 21
45.9478
  0
LINE
  8
0
 10
-1.39465
 20
45.9478
 11
-1.45287
 21
46.127
  0
LINE
  8
0
 10
-1.45287
 20
46.127
 11
-1.48816
 21
46.312
  0
LINE
  8
0
 10
-1.48816
 20
46.312
 11
-1.5
 21
46.5
  0
LINE
  8
0
 10
-1.5
 20
46.5
 11
-1.48816
 21
46.688
  0
LINE
  8
0
 10
-1.48816
 20
46.688
 11
-1.45287
 21
46.873
  0
LINE
  8
0
 10
-1.45287
 20
46.873
 11
-1.39465
 21
47.0522
  0
LINE
  8
0
 10
-1.39465
 20
47.0522
 11
-1.31445
 21
47.2226
  0
LINE
  8
0
 10
-1.31445
 20
47.2226
 11
-1.21352
 21
47.3817
  0
LINE
  8
0
 10
-1.21352
 20
47.3817
 11
-1.09344
 21
47.5268
  0
LINE
  8
0
 10
-1.09344
 20
47.5268
 11
-0.956131
 21
47.6558
  0
LINE
  8
0
 10
-0.956131
 20
47.6558
 11
-0.803726
 21
47.7665
  0
LINE
  8
0
 10
-0.803726
 20
47.7665
 11
-0.638657
 21
47.8573
  0
LINE
  8
0
 10
-0.638657
 20
47.8573
 11
-0.463516
 21
47.9266
  0
LINE
  8
0
 10
-0.463516
 20
47.9266
 11
-0.281067
 21
47.9734
  0
LINE
  8
0
 10
-0.281067
 20
47.9734
 11
-0.0941772
 21
47.9971
  0
LINE
  8
0
 10
-0.0941772
 20
47.9971
 11
0.0941772
 21
47.9971
  0
LINE
  8
0
 10
0.0941772
 20
47.9971
 11
0.281067
 21
47.9734
  0
LINE
  8
0
 10
0.281067
 20
47.9734
 11
0.463516
 21
47.9266
  0
LINE
  8
0
 10
0.463516
 20
47.9266
 11
0.638657
 21
47.8573
  0
LINE
  8
0
 10
0.638657
 20
47.8573
 11
0.803726
 21
47.7665
  0
LINE
  8
0
 10
0.803726
 20
47.7665
 11
0.956131
 21
47.6558
  0
LINE
  8
0
 10
0.956131
 20
47.6558
 11
1.09344
 21
47.5268
  0
LINE
  8
0
 10
1.09344
 20
47.5268
 11
1.21352
 21
47.3817
  0
LINE
  8
0
 10
1.21352
 20
47.3817
 11
1.31445
 21
47.2226
  0
LINE
  8
0
 10
1.31445
 20
47.2226
 11
1.39465
 21
47.0522
  0
LINE
  8
0
 10
1.39465
 20
47.0522
 11
1.45287
 21
46.873
  0
LINE
  8
0
 10
1.45287
 20
46.873
 11
1.48816
 21
46.688
  0
LINE
  8
0
 10
1.48816
 20
46.688
 11
1.5
 21
46.5
  0
LINE
  8
0
 10
1.5
 20
46.5
 11
1.48816
 21
46.312
  0
LINE
  8
0
 10
1.48816
 20
46.312
 11
1.45287
 21
46.127
  0
LINE
  8
0
 10
1.45287
 20
46.127
 11
1.39465
 21
45.9478
  0
LINE
  8
0
 10
1.39465
 20
45.9478
 11
1.31445
 21
45.7774
  0
LINE
  8
0
 10
1.31445
 20
45.7774
 11
1.21352
 21
45.6183
  0
LINE
  8
0
 10
1.21352
 20
45.6183
 11
1.09344
 21
45.4732
  0
LINE
  8
0
 10
1.09344
 20
45.4732
 11
0.956131
 21
45.3442
  0
LINE
  8
0
 10
0.956131
 20
45.3442
 11
0.803726
 21
45.2335
  0
LINE
  8
0
 10
0.803726
 20
45.2335
 11
0.638657
 21
45.1428
  0
LINE
  8
0
 10
0.638657
 20
45.1428
 11
0.463516
 21
45.0734
  0
LINE
  8
0
 10
0.463516
 20
45.0734
 11
0.281067
 21
45.0266
  0
LINE
  8
0
 10
0.281067
 20
45.0266
 11
0.0941772
 21
45.003
  0
LINE
  8
0
 10
0.0941772
 20
45.003
 11
-0.0941772
 21
45.003
  0
LINE
  8
0
 10
-7.59418
 20
45.003
 11
-7.78107
 21
45.0266
  0
LINE
  8
0
 10
-7.78107
 20
45.0266
 11
-7.96352
 21
45.0734
  0
LINE
  8
0
 10
-7.96352
 20
45.0734
 11
-8.13866
 21
45.1428
  0
LINE
  8
0
 10
-8.13866
 20
45.1428
 11
-8.30373
 21
45.2335
  0
LINE
  8
0
 10
-8.30373
 20
45.2335
 11
-8.45613
 21
45.3442
  0
LINE
  8
0
 10
-8.45613
 20
45.3442
 11
-8.59344
 21
45.4732
  0
LINE
  8
0
 10
-8.59344
 20
45.4732
 11
-8.71352
 21
45.6183
  0
LINE
  8
0
 10
-8.71352
 20
45.6183
 11
-8.81445
 21
45.7774
  0
LINE
  8
0
 10
-8.81445
 20
45.7774
 11
-8.89465
 21
45.9478
  0
LINE
  8
0
 10
-8.89465
 20
45.9478
 11
-8.95287
 21
46.127
  0
LINE
  8
0
 10
-8.95287
 20
46.127
 11
-8.98816
 21
46.312
  0
LINE
  8
0
 10
-8.98816
 20
46.312
 11
-9
 21
46.5
  0
LINE
  8
0
 10
-9
 20
46.5
 11
-8.98816
 21
46.688
  0
LINE
  8
0
 10
-8.98816
 20
46.688
 11
-8.95287
 21
46.873
  0
LINE
  8
0
 10
-8.95287
 20
46.873
 11
-8.89465
 21
47.0522
  0
LINE
  8
0
 10
-8.89465
 20
47.0522
 11
-8.81445
 21
47.2226
  0
LINE
  8
0
 10
-8.81445
 20
47.2226
 11
-8.71352
 21
47.3817
  0
LINE
  8
0
 10
-8.71352
 20
47.3817
 11
-8.59344
 21
47.5268
  0
LINE
  8
0
 10
-8.59344
 20
47.5268
 11
-8.45613
 21
47.6558
  0
LINE
  8
0
 10
-8.45613
 20
47.6558
 11
-8.30373
 21
47.7665
  0
LINE
  8
0
 10
-8.30373
 20
47.7665
 11
-8.13866
 21
47.8573
  0
LINE
  8
0
 10
-8.13866
 20
47.8573
 11
-7.96352
 21
47.9266
  0
LINE
  8
0
 10
-7.96352
 20
47.9266
 11
-7.78107
 21
47.9734
  0
LINE
  8
0
 10
-7.78107
 20
47.9734
 11
-7.59418
 21
47.9971
  0
LINE
  8
0
 10
-7.59418
 20
47.9971
 11
-7.40581
 21
47.9971
  0
LINE
  8
0
 10
-7.40581
 20
47.9971
 11
-7.21892
 21
47.9734
  0
LINE
  8
0
 10
-7.21892
 20
47.9734
 11
-7.03647
 21
47.9266
  0
LINE
  8
0
 10
-7.03647
 20
47.9266
 11
-6.86133
 21
47.8573
  0
LINE
  8
0
 10
-6.86133
 20
47.8573
 11
-6.69626
 21
47.7665
  0
LINE
  8
0
 10
-6.69626
 20
47.7665
 11
-6.54385
 21
47.6558
  0
LINE
  8
0
 10
-6.54385
 20
47.6558
 11
-6.40654
 21
47.5268
  0
LINE
  8
0
 10
-6.40654
 20
47.5268
 11
-6.28647
 21
47.3817
  0
LINE
  8
0
 10
-6.28647
 20
47.3817
 11
-6.18553
 21
47.2226
  0
LINE
  8
0
 10
-6.18553
 20
47.2226
 11
-6.10533
 21
47.0522
  0
LINE
  8
0
 10
-6.10533
 20
47.0522
 11
-6.04712
 21
46.873
  0
LINE
  8
0
 10
-6.04712
 20
46.873
 11
-6.01183
 21
46.688
  0
LINE
  8
0
 10
-6.01183
 20
46.688
 11
-6
 21
46.5
  0
LINE
  8
0
 10
-6
 20
46.5
 11
-6.01183
 21
46.312
  0
LINE
  8
0
 10
-6.01183
 20
46.312
 11
-6.04712
 21
46.127
  0
LINE
  8
0
 10
-6.04712
 20
46.127
 11
-6.10533
 21
45.9478
  0
LINE
  8
0
 10
-6.10533
 20
45.9478
 11
-6.18553
 21
45.7774
  0
LINE
  8
0
 10
-6.18553
 20
45.7774
 11
-6.28647
 21
45.6183
  0
LINE
  8
0
 10
-6.28647
 20
45.6183
 11
-6.40654
 21
45.4732
  0
LINE
  8
0
 10
-6.40654
 20
45.4732
 11
-6.54385
 21
45.3442
  0
LINE
  8
0
 10
-6.54385
 20
45.3442
 11
-6.69626
 21
45.2335
  0
LINE
  8
0
 10
-6.69626
 20
45.2335
 11
-6.86133
 21
45.1428
  0
LINE
  8
0
 10
-6.86133
 20
45.1428
 11
-7.03647
 21
45.0734
  0
LINE
  8
0
 10
-7.03647
 20
45.0734
 11
-7.21892
 21
45.0266
  0
LINE
  8
0
 10
-7.21892
 20
45.0266
 11
-7.40581
 21
45.003
  0
LINE
  8
0
 10
-7.40581
 20
45.003
 11
-7.59418
 21
45.003
  0
ENDSEC
  0
SECTION
  2
OBJECTS
  0
DICTIONARY
  0
ENDSEC
  0
EOF
