<?xml version="1.0" standalone="no"?>
<!DOCTYPE svg PUBLIC "-//W3C//DTD SVG 1.1//EN" "http://www.w3.org/Graphics/SVG/1.1/DTD/svg11.dtd">
<svg width="74mm" height="44mm" viewBox="-37 -22 74 44" xmlns="http://www.w3.org/2000/svg" version="1.1">
<title>OpenSCAD Model</title>
<path d="
M 32.9369,21.9114 L 33.5451,21.7553 L 34.1289,21.5241 L 34.6791,21.2216 L 35.1871,20.8526 L 35.6448,20.4227
 L 36.0451,19.9389 L 36.3815,19.4088 L 36.6489,18.8406 L 36.8429,18.2434 L 36.9606,17.6267 L 37,17
 L 37,-17 L 36.9606,-17.6267 L 36.8429,-18.2434 L 36.6489,-18.8406 L 36.3815,-19.4088 L 36.0451,-19.9389
 L 35.6448,-20.4227 L 35.1871,-20.8526 L 34.6791,-21.2216 L 34.1289,-21.5241 L 33.5451,-21.7553 L 32.9369,-21.9114
 L 32.3139,-21.9901 L -32.3139,-21.9901 L -32.9369,-21.9114 L -33.5451,-21.7553 L -34.1289,-21.5241 L -34.6791,-21.2216
 L -35.1871,-20.8526 L -35.6448,-20.4227 L -36.0451,-19.9389 L -36.3815,-19.4088 L -36.6489,-18.8406 L -36.8429,-18.2434
 L -36.9606,-17.6267 L -37,-17 L -37,17 L -36.9606,17.6267 L -36.8429,18.2434 L -36.6489,18.8406
 L -36.3815,19.4088 L -36.0451,19.9389 L -35.6448,20.4227 L -35.1871,20.8526 L -34.6791,21.2216 L -34.1289,21.5241
 L -33.5451,21.7553 L -32.9369,21.9114 L -32.3139,21.9901 L 32.3139,21.9901 z
M -16.5942,-15.0029 L -16.7811,-15.0266 L -16.9635,-15.0734 L -17.1387,-15.1427 L -17.3037,-15.2335 L -17.4561,-15.3442
 L -17.5934,-15.4732 L -17.7135,-15.6183 L -17.8145,-15.7774 L -17.8947,-15.9478 L -17.9529,-16.127 L -17.9882,-16.312
 L -18,-16.5 L -17.9882,-16.688 L -17.9529,-16.873 L -17.8947,-17.0522 L -17.8145,-17.2226 L -17.7135,-17.3817
 L -17.5934,-17.5268 L -17.4561,-17.6558 L -17.3037,-17.7665 L -17.1387,-17.8572 L -16.9635,-17.9266 L -16.7811,-17.9734
 L -16.5942,-17.997 L -16.4058,-17.997 L -16.2189,-17.9734 L -16.0365,-17.9266 L -15.8613,-17.8572 L -15.6963,-17.7665
 L -15.5439,-17.6558 L -15.4065,-17.5268 L -15.2865,-17.3817 L -15.1855,-17.2226 L -15.1053,-17.0522 L -15.0471,-16.873
 L -15.0118,-16.688 L -15,-16.5 L -15.0118,-16.312 L -15.0471,-16.127 L -15.1053,-15.9478 L -15.1855,-15.7774
 L -15.2865,-15.6183 L -15.4065,-15.4732 L -15.5439,-15.3442 L -15.6963,-15.2335 L -15.8613,-15.1427 L -16.0365,-15.0734
 L -16.2189,-15.0266 L -16.4058,-15.0029 z
M 16.4058,-15.0029 L 16.2189,-15.0266 L 16.0365,-15.0734 L 15.8613,-15.1427 L 15.6963,-15.2335 L 15.5439,-15.3442
 L 15.4065,-15.4732 L 15.2865,-15.6183 L 15.1855,-15.7774 L 15.1053,-15.9478 L 15.0471,-16.127 L 15.0118,-16.312
 L 15,-16.5 L 15.0118,-16.688 L 15.0471,-16.873 L 15.1053,-17.0522 L 15.1855,-17.2226 L 15.2865,-17.3817
 L 15.4065,-17.5268 L 15.5439,-17.6558 L 15.6963,-17.7665 L 15.8613,-17.8572 L 16.0365,-17.9266 L 16.2189,-17.9734
 L 16.4058,-17.997 L 16.5942,-17.997 L 16.7811,-17.9734 L 16.9635,-17.9266 L 17.1387,-17.8572 L 17.3037,-17.7665
 L 17.4561,-17.6558 L 17.5934,-17.5268 L 17.7135,-17.3817 L 17.8145,-17.2226 L 17.8947,-17.0522 L 17.9529,-16.873
 L 17.9882,-16.688 L 18,-16.5 L 17.9882,-16.312 L 17.9529,-16.127 L 17.8947,-15.9478 L 17.8145,-15.7774
 L 17.7135,-15.6183 L 17.5934,-15.4732 L 17.4561,-15.3442 L 17.3037,-15.2335 L 17.1387,-15.1427 L 16.9635,-15.0734
 L 16.7811,-15.0266 L 16.5942,-15.0029 z
M -30.1884,-12.0059 L -30.5621,-12.0531 L -30.927,-12.1468 L -31.2773,-12.2855 L -31.6075,-12.467 L -31.9123,-12.6884
 L -32.1869,-12.9464 L -32.427,-13.2366 L -32.6289,-13.5547 L -32.7893,-13.8956 L -32.9057,-14.2539 L -32.9763,-14.624
 L -33,-15 L -32.9763,-15.376 L -32.9057,-15.7461 L -32.7893,-16.1044 L -32.6289,-16.4453 L -32.427,-16.7634
 L -32.1869,-17.0536 L -31.9123,-17.3115 L -31.6075,-17.533 L -31.2773,-17.7145 L -30.927,-17.8532 L -30.5621,-17.9469
 L -30.1884,-17.9941 L -29.8116,-17.9941 L -29.4379,-17.9469 L -29.0729,-17.8532 L -28.7227,-17.7145 L -28.3925,-17.533
 L -28.0877,-17.3115 L -27.8131,-17.0536 L -27.5729,-16.7634 L -27.3711,-16.4453 L -27.2107,-16.1044 L -27.0942,-15.7461
 L -27.0237,-15.376 L -27,-15 L -27.0237,-14.624 L -27.0942,-14.2539 L -27.2107,-13.8956 L -27.3711,-13.5547
 L -27.5729,-13.2366 L -27.8131,-12.9464 L -28.0877,-12.6884 L -28.3925,-12.467 L -28.7227,-12.2855 L -29.0729,-12.1468
 L -29.4379,-12.0531 L -29.8116,-12.0059 z
M 29.8116,-12.0059 L 29.4379,-12.0531 L 29.0729,-12.1468 L 28.7227,-12.2855 L 28.3925,-12.467 L 28.0877,-12.6884
 L 27.8131,-12.9464 L 27.5729,-13.2366 L 27.3711,-13.5547 L 27.2107,-13.8956 L 27.0942,-14.2539 L 27.0237,-14.624
 L 27,-15 L 27.0237,-15.376 L 27.0942,-15.7461 L 27.2107,-16.1044 L 27.3711,-16.4453 L 27.5729,-16.7634
 L 27.8131,-17.0536 L 28.0877,-17.3115 L 28.3925,-17.533 L 28.7227,-17.7145 L 29.0729,-17.8532 L 29.4379,-17.9469
 L 29.8116,-17.9941 L 30.1884,-17.9941 L 30.5621,-17.9469 L 30.927,-17.8532 L 31.2773,-17.7145 L 31.6075,-17.533
 L 31.9123,-17.3115 L 32.1869,-17.0536 L 32.427,-16.7634 L 32.6289,-16.4453 L 32.7893,-16.1044 L 32.9057,-15.7461
 L 32.9763,-15.376 L 33,-15 L 32.9763,-14.624 L 32.9057,-14.2539 L 32.7893,-13.8956 L 32.6289,-13.5547
 L 32.427,-13.2366 L 32.1869,-12.9464 L 31.9123,-12.6884 L 31.6075,-12.467 L 31.2773,-12.2855 L 30.927,-12.1468
 L 30.5621,-12.0531 L 30.1884,-12.0059 z
M -0.879059,13.9724 L -2.62334,13.752 L -4.32623,13.3148 L -5.96091,12.6676 L -7.50157,11.8206 L -8.92393,10.7872
 L -10.2056,9.58365 L -11.3262,8.22899 L -12.2683,6.74454 L -13.0169,5.15373 L -13.5602,3.48164 L -13.8896,1.75465
 L -14,-0 L -13.8896,-1.75465 L -13.5602,-3.48164 L -13.0169,-5.15373 L -12.2683,-6.74454 L -11.3262,-8.22899
 L -10.2056,-9.58365 L -8.92393,-10.7872 L -7.50157,-11.8206 L -5.96091,-12.6676 L -4.32623,-13.3148 L -2.62334,-13.752
 L -0.879059,-13.9724 L 0.879059,-13.9724 L 2.62334,-13.752 L 4.32623,-13.3148 L 5.96091,-12.6676 L 7.50157,-11.8206
 L 8.92393,-10.7872 L 10.2056,-9.58365 L 11.3262,-8.22899 L 12.2683,-6.74454 L 13.0169,-5.15373 L 13.5602,-3.48164
 L 13.8896,-1.75465 L 14,-0 L 13.8896,1.75465 L 13.5602,3.48164 L 13.0169,5.15373 L 12.2683,6.74454
 L 11.3262,8.22899 L 10.2056,9.58365 L 8.92393,10.7872 L 7.50157,11.8206 L 5.96091,12.6676 L 4.32623,13.3148
 L 2.62334,13.752 L 0.879059,13.9724 z
M -30.1884,2.99408 L -30.5621,2.94685 L -30.927,2.85316 L -31.2773,2.71448 L -31.6075,2.53297 L -31.9123,2.31154
 L -32.1869,2.05363 L -32.427,1.76335 L -32.6289,1.44525 L -32.7893,1.10437 L -32.9057,0.746063 L -32.9763,0.375992
 L -33,-0 L -32.9763,-0.375992 L -32.9057,-0.746063 L -32.7893,-1.10437 L -32.6289,-1.44525 L -32.427,-1.76335
 L -32.1869,-2.05363 L -31.9123,-2.31154 L -31.6075,-2.53297 L -31.2773,-2.71448 L -30.927,-2.85316 L -30.5621,-2.94685
 L -30.1884,-2.99408 L -29.8116,-2.99408 L -29.4379,-2.94685 L -29.0729,-2.85316 L -28.7227,-2.71448 L -28.3925,-2.53297
 L -28.0877,-2.31154 L -27.8131,-2.05363 L -27.5729,-1.76335 L -27.3711,-1.44525 L -27.2107,-1.10437 L -27.0942,-0.746063
 L -27.0237,-0.375992 L -27,-0 L -27.0237,0.375992 L -27.0942,0.746063 L -27.2107,1.10437 L -27.3711,1.44525
 L -27.5729,1.76335 L -27.8131,2.05363 L -28.0877,2.31154 L -28.3925,2.53297 L -28.7227,2.71448 L -29.0729,2.85316
 L -29.4379,2.94685 L -29.8116,2.99408 z
M 29.8116,2.99408 L 29.4379,2.94685 L 29.0729,2.85316 L 28.7227,2.71448 L 28.3925,2.53297 L 28.0877,2.31154
 L 27.8131,2.05363 L 27.5729,1.76335 L 27.3711,1.44525 L 27.2107,1.10437 L 27.0942,0.746063 L 27.0237,0.375992
 L 27,-0 L 27.0237,-0.375992 L 27.0942,-0.746063 L 27.2107,-1.10437 L 27.3711,-1.44525 L 27.5729,-1.76335
 L 27.8131,-2.05363 L 28.0877,-2.31154 L 28.3925,-2.53297 L 28.7227,-2.71448 L 29.0729,-2.85316 L 29.4379,-2.94685
 L 29.8116,-2.99408 L 30.1884,-2.99408 L 30.5621,-2.94685 L 30.927,-2.85316 L 31.2773,-2.71448 L 31.6075,-2.53297
 L 31.9123,-2.31154 L 32.1869,-2.05363 L 32.427,-1.76335 L 32.6289,-1.44525 L 32.7893,-1.10437 L 32.9057,-0.746063
 L 32.9763,-0.375992 L 33,-0 L 32.9763,0.375992 L 32.9057,0.746063 L 32.7893,1.10437 L 32.6289,1.44525
 L 32.427,1.76335 L 32.1869,2.05363 L 31.9123,2.31154 L 31.6075,2.53297 L 31.2773,2.71448 L 30.927,2.85316
 L 30.5621,2.94685 L 30.1884,2.99408 z
M -30.1884,17.9941 L -30.5621,17.9469 L -30.927,17.8532 L -31.2773,17.7145 L -31.6075,17.533 L -31.9123,17.3115
 L -32.1869,17.0536 L -32.427,16.7634 L -32.6289,16.4453 L -32.7893,16.1044 L -32.9057,15.7461 L -32.9763,15.376
 L -33,15 L -32.9763,14.624 L -32.9057,14.2539 L -32.7893,13.8956 L -32.6289,13.5547 L -32.427,13.2366
 L -32.1869,12.9464 L -31.9123,12.6884 L -31.6075,12.467 L -31.2773,12.2855 L -30.927,12.1468 L -30.5621,12.0531
 L -30.1884,12.0059 L -29.8116,12.0059 L -29.4379,12.0531 L -29.0729,12.1468 L -28.7227,12.2855 L -28.3925,12.467
 L -28.0877,12.6884 L -27.8131,12.9464 L -27.5729,13.2366 L -27.3711,13.5547 L -27.2107,13.8956 L -27.0942,14.2539
 L -27.0237,14.624 L -27,15 L -27.0237,15.376 L -27.0942,15.7461 L -27.2107,16.1044 L -27.3711,16.4453
 L -27.5729,16.7634 L -27.8131,17.0536 L -28.0877,17.3115 L -28.3925,17.533 L -28.7227,17.7145 L -29.0729,17.8532
 L -29.4379,17.9469 L -29.8116,17.9941 z
M 29.8116,17.9941 L 29.4379,17.9469 L 29.0729,17.8532 L 28.7227,17.7145 L 28.3925,17.533 L 28.0877,17.3115
 L 27.8131,17.0536 L 27.5729,16.7634 L 27.3711,16.4453 L 27.2107,16.1044 L 27.0942,15.7461 L 27.0237,15.376
 L 27,15 L 27.0237,14.624 L 27.0942,14.2539 L 27.2107,13.8956 L 27.3711,13.5547 L 27.5729,13.2366
 L 27.8131,12.9464 L 28.0877,12.6884 L 28.3925,12.467 L 28.7227,12.2855 L 29.0729,12.1468 L 29.4379,12.0531
 L 29.8116,12.0059 L 30.1884,12.0059 L 30.5621,12.0531 L 30.927,12.1468 L 31.2773,12.2855 L 31.6075,12.467
 L 31.9123,12.6884 L 32.1869,12.9464 L 32.427,13.2366 L 32.6289,13.5547 L 32.7893,13.8956 L 32.9057,14.2539
 L 32.9763,14.624 L 33,15 L 32.9763,15.376 L 32.9057,15.7461 L 32.7893,16.1044 L 32.6289,16.4453
 L 32.427,16.7634 L 32.1869,17.0536 L 31.9123,17.3115 L 31.6075,17.533 L 31.2773,17.7145 L 30.927,17.8532
 L 30.5621,17.9469 L 30.1884,17.9941 z
M 16.4058,17.997 L 16.2189,17.9734 L 16.0365,17.9266 L 15.8613,17.8572 L 15.6963,17.7665 L 15.5439,17.6558
 L 15.4065,17.5268 L 15.2865,17.3817 L 15.1855,17.2226 L 15.1053,17.0522 L 15.0471,16.873 L 15.0118,16.688
 L 15,16.5 L 15.0118,16.312 L 15.0471,16.127 L 15.1053,15.9478 L 15.1855,15.7774 L 15.2865,15.6183
 L 15.4065,15.4732 L 15.5439,15.3442 L 15.6963,15.2335 L 15.8613,15.1427 L 16.0365,15.0734 L 16.2189,15.0266
 L 16.4058,15.0029 L 16.5942,15.0029 L 16.7811,15.0266 L 16.9635,15.0734 L 17.1387,15.1427 L 17.3037,15.2335
 L 17.4561,15.3442 L 17.5934,15.4732 L 17.7135,15.6183 L 17.8145,15.7774 L 17.8947,15.9478 L 17.9529,16.127
 L 17.9882,16.312 L 18,16.5 L 17.9882,16.688 L 17.9529,16.873 L 17.8947,17.0522 L 17.8145,17.2226
 L 17.7135,17.3817 L 17.5934,17.5268 L 17.4561,17.6558 L 17.3037,17.7665 L 17.1387,17.8572 L 16.9635,17.9266
 L 16.7811,17.9734 L 16.5942,17.997 z
M -16.5942,17.997 L -16.7811,17.9734 L -16.9635,17.9266 L -17.1387,17.8572 L -17.3037,17.7665 L -17.4561,17.6558
 L -17.5934,17.5268 L -17.7135,17.3817 L -17.8145,17.2226 L -17.8947,17.0522 L -17.9529,16.873 L -17.9882,16.688
 L -18,16.5 L -17.9882,16.312 L -17.9529,16.127 L -17.8947,15.9478 L -17.8145,15.7774 L -17.7135,15.6183
 L -17.5934,15.4732 L -17.4561,15.3442 L -17.3037,15.2335 L -17.1387,15.1427 L -16.9635,15.0734 L -16.7811,15.0266
 L -16.5942,15.0029 L -16.4058,15.0029 L -16.2189,15.0266 L -16.0365,15.0734 L -15.8613,15.1427 L -15.6963,15.2335
 L -15.5439,15.3442 L -15.4065,15.4732 L -15.2865,15.6183 L -15.1855,15.7774 L -15.1053,15.9478 L -15.0471,16.127
 L -15.0118,16.312 L -15,16.5 L -15.0118,16.688 L -15.0471,16.873 L -15.1053,17.0522 L -15.1855,17.2226
 L -15.2865,17.3817 L -15.4065,17.5268 L -15.5439,17.6558 L -15.6963,17.7665 L -15.8613,17.8572 L -16.0365,17.9266
 L -16.2189,17.9734 L -16.4058,17.997 z
" stroke="black" fill="lightgray" stroke-width="0.5"/>
</svg>
