solid OpenSCAD_Model
  facet normal 0.998026 0.0628015 0
    outer loop
      vertex 3 0 3.2
      vertex 2.97634 0.375999 0
      vertex 2.97634 0.375999 3.2
    endloop
  endfacet
  facet normal 0.998026 0.0628015 0
    outer loop
      vertex 2.97634 0.375999 0
      vertex 3 0 3.2
      vertex 3 0 0
    endloop
  endfacet
  facet normal -0.998026 0.0628015 0
    outer loop
      vertex -3 0 0
      vertex -2.97634 0.375999 3.2
      vertex -2.97634 0.375999 0
    endloop
  endfacet
  facet normal -0.998026 0.0628015 0
    outer loop
      vertex -2.97634 0.375999 3.2
      vertex -3 0 0
      vertex -3 0 3.2
    endloop
  endfacet
  facet normal 0 1 -0
    outer loop
      vertex 0.188371 2.99408 0
      vertex -0.188371 2.99408 3.2
      vertex 0.188371 2.99408 3.2
    endloop
  endfacet
  facet normal 0 1 0
    outer loop
      vertex -0.188371 2.99408 3.2
      vertex 0.188371 2.99408 0
      vertex -0.188371 2.99408 0
    endloop
  endfacet
  facet normal 0 -1 0
    outer loop
      vertex -0.188371 -2.99408 0
      vertex 0.188371 -2.99408 3.2
      vertex -0.188371 -2.99408 3.2
    endloop
  endfacet
  facet normal 0 -1 -0
    outer loop
      vertex 0.188371 -2.99408 3.2
      vertex -0.188371 -2.99408 0
      vertex 0.188371 -2.99408 0
    endloop
  endfacet
  facet normal 0.684541 0.728974 -0
    outer loop
      vertex 2.18691 2.05364 0
      vertex 1.91227 2.31154 3.2
      vertex 2.18691 2.05364 3.2
    endloop
  endfacet
  facet normal 0.684541 0.728974 0
    outer loop
      vertex 1.91227 2.31154 3.2
      vertex 2.18691 2.05364 0
      vertex 1.91227 2.31154 0
    endloop
  endfacet
  facet normal -0.684541 0.728974 0
    outer loop
      vertex -1.91227 2.31154 0
      vertex -2.18691 2.05364 3.2
      vertex -1.91227 2.31154 3.2
    endloop
  endfacet
  facet normal -0.684541 0.728974 0
    outer loop
      vertex -2.18691 2.05364 3.2
      vertex -1.91227 2.31154 0
      vertex -2.18691 2.05364 0
    endloop
  endfacet
  facet normal -0.368126 0.929776 0
    outer loop
      vertex -0.927051 2.85317 0
      vertex -1.27734 2.71448 3.2
      vertex -0.927051 2.85317 3.2
    endloop
  endfacet
  facet normal -0.368126 0.929776 0
    outer loop
      vertex -1.27734 2.71448 3.2
      vertex -0.927051 2.85317 0
      vertex -1.27734 2.71448 0
    endloop
  endfacet
  facet normal 0.904828 0.425778 0
    outer loop
      vertex 2.78933 1.10437 3.2
      vertex 2.62892 1.44526 0
      vertex 2.62892 1.44526 3.2
    endloop
  endfacet
  facet normal 0.904828 0.425778 0
    outer loop
      vertex 2.62892 1.44526 0
      vertex 2.78933 1.10437 3.2
      vertex 2.78933 1.10437 0
    endloop
  endfacet
  facet normal 0.98229 0.187369 0
    outer loop
      vertex 2.97634 0.375999 3.2
      vertex 2.90575 0.746069 0
      vertex 2.90575 0.746069 3.2
    endloop
  endfacet
  facet normal 0.98229 0.187369 0
    outer loop
      vertex 2.90575 0.746069 0
      vertex 2.97634 0.375999 3.2
      vertex 2.97634 0.375999 0
    endloop
  endfacet
  facet normal 0.368126 0.929776 -0
    outer loop
      vertex 1.27734 2.71448 0
      vertex 0.927051 2.85317 3.2
      vertex 1.27734 2.71448 3.2
    endloop
  endfacet
  facet normal 0.368126 0.929776 0
    outer loop
      vertex 0.927051 2.85317 3.2
      vertex 1.27734 2.71448 0
      vertex 0.927051 2.85317 0
    endloop
  endfacet
  facet normal 0.248684 0.968585 -0
    outer loop
      vertex 0.927051 2.85317 0
      vertex 0.562143 2.94686 3.2
      vertex 0.927051 2.85317 3.2
    endloop
  endfacet
  facet normal 0.248684 0.968585 0
    outer loop
      vertex 0.562143 2.94686 3.2
      vertex 0.927051 2.85317 0
      vertex 0.562143 2.94686 0
    endloop
  endfacet
  facet normal 0.58778 0.809021 -0
    outer loop
      vertex 1.91227 2.31154 0
      vertex 1.60748 2.53298 3.2
      vertex 1.91227 2.31154 3.2
    endloop
  endfacet
  facet normal 0.58778 0.809021 0
    outer loop
      vertex 1.60748 2.53298 3.2
      vertex 1.91227 2.31154 0
      vertex 1.60748 2.53298 0
    endloop
  endfacet
  facet normal -0.904828 0.425778 0
    outer loop
      vertex -2.78933 1.10437 0
      vertex -2.62892 1.44526 3.2
      vertex -2.62892 1.44526 0
    endloop
  endfacet
  facet normal -0.904828 0.425778 0
    outer loop
      vertex -2.62892 1.44526 3.2
      vertex -2.78933 1.10437 0
      vertex -2.78933 1.10437 3.2
    endloop
  endfacet
  facet normal -0.951056 0.309019 0
    outer loop
      vertex -2.90575 0.746069 0
      vertex -2.78933 1.10437 3.2
      vertex -2.78933 1.10437 0
    endloop
  endfacet
  facet normal -0.951056 0.309019 0
    outer loop
      vertex -2.78933 1.10437 3.2
      vertex -2.90575 0.746069 0
      vertex -2.90575 0.746069 3.2
    endloop
  endfacet
  facet normal -0.248684 0.968585 0
    outer loop
      vertex -0.562143 2.94686 0
      vertex -0.927051 2.85317 3.2
      vertex -0.562143 2.94686 3.2
    endloop
  endfacet
  facet normal -0.248684 0.968585 0
    outer loop
      vertex -0.927051 2.85317 3.2
      vertex -0.562143 2.94686 0
      vertex -0.927051 2.85317 0
    endloop
  endfacet
  facet normal 0.125337 -0.992114 0
    outer loop
      vertex 0.188371 -2.99408 0
      vertex 0.562143 -2.94686 3.2
      vertex 0.188371 -2.99408 3.2
    endloop
  endfacet
  facet normal 0.125337 -0.992114 0
    outer loop
      vertex 0.562143 -2.94686 3.2
      vertex 0.188371 -2.99408 0
      vertex 0.562143 -2.94686 0
    endloop
  endfacet
  facet normal 0.368126 -0.929776 0
    outer loop
      vertex 0.927051 -2.85317 0
      vertex 1.27734 -2.71448 3.2
      vertex 0.927051 -2.85317 3.2
    endloop
  endfacet
  facet normal 0.368126 -0.929776 0
    outer loop
      vertex 1.27734 -2.71448 3.2
      vertex 0.927051 -2.85317 0
      vertex 1.27734 -2.71448 0
    endloop
  endfacet
  facet normal 0.951056 0.309019 0
    outer loop
      vertex 2.90575 0.746069 3.2
      vertex 2.78933 1.10437 0
      vertex 2.78933 1.10437 3.2
    endloop
  endfacet
  facet normal 0.951056 0.309019 0
    outer loop
      vertex 2.78933 1.10437 0
      vertex 2.90575 0.746069 3.2
      vertex 2.90575 0.746069 0
    endloop
  endfacet
  facet normal 0.770514 0.637423 0
    outer loop
      vertex 2.42705 1.76336 3.2
      vertex 2.18691 2.05364 0
      vertex 2.18691 2.05364 3.2
    endloop
  endfacet
  facet normal 0.770514 0.637423 0
    outer loop
      vertex 2.18691 2.05364 0
      vertex 2.42705 1.76336 3.2
      vertex 2.42705 1.76336 0
    endloop
  endfacet
  facet normal 0.844331 0.535822 0
    outer loop
      vertex 2.62892 1.44526 3.2
      vertex 2.42705 1.76336 0
      vertex 2.42705 1.76336 3.2
    endloop
  endfacet
  facet normal 0.844331 0.535822 0
    outer loop
      vertex 2.42705 1.76336 0
      vertex 2.62892 1.44526 3.2
      vertex 2.62892 1.44526 0
    endloop
  endfacet
  facet normal 0.125337 0.992114 -0
    outer loop
      vertex 0.562143 2.94686 0
      vertex 0.188371 2.99408 3.2
      vertex 0.562143 2.94686 3.2
    endloop
  endfacet
  facet normal 0.125337 0.992114 0
    outer loop
      vertex 0.188371 2.99408 3.2
      vertex 0.562143 2.94686 0
      vertex 0.188371 2.99408 0
    endloop
  endfacet
  facet normal 0.481762 0.876302 -0
    outer loop
      vertex 1.60748 2.53298 0
      vertex 1.27734 2.71448 3.2
      vertex 1.60748 2.53298 3.2
    endloop
  endfacet
  facet normal 0.481762 0.876302 0
    outer loop
      vertex 1.27734 2.71448 3.2
      vertex 1.60748 2.53298 0
      vertex 1.27734 2.71448 0
    endloop
  endfacet
  facet normal -0.844331 0.535822 0
    outer loop
      vertex -2.62892 1.44526 0
      vertex -2.42705 1.76336 3.2
      vertex -2.42705 1.76336 0
    endloop
  endfacet
  facet normal -0.844331 0.535822 0
    outer loop
      vertex -2.42705 1.76336 3.2
      vertex -2.62892 1.44526 0
      vertex -2.62892 1.44526 3.2
    endloop
  endfacet
  facet normal -0.770514 0.637423 0
    outer loop
      vertex -2.42705 1.76336 0
      vertex -2.18691 2.05364 3.2
      vertex -2.18691 2.05364 0
    endloop
  endfacet
  facet normal -0.770514 0.637423 0
    outer loop
      vertex -2.18691 2.05364 3.2
      vertex -2.42705 1.76336 0
      vertex -2.42705 1.76336 3.2
    endloop
  endfacet
  facet normal -0.98229 0.187369 0
    outer loop
      vertex -2.97634 0.375999 0
      vertex -2.90575 0.746069 3.2
      vertex -2.90575 0.746069 0
    endloop
  endfacet
  facet normal -0.98229 0.187369 0
    outer loop
      vertex -2.90575 0.746069 3.2
      vertex -2.97634 0.375999 0
      vertex -2.97634 0.375999 3.2
    endloop
  endfacet
  facet normal 0 0 1
    outer loop
      vertex 2.97634 0.375999 3.2
      vertex 2.97634 -0.375999 3.2
      vertex 3 0 3.2
    endloop
  endfacet
  facet normal 0 0 1
    outer loop
      vertex 2.90575 0.746069 3.2
      vertex 2.97634 -0.375999 3.2
      vertex 2.97634 0.375999 3.2
    endloop
  endfacet
  facet normal 0 0 1
    outer loop
      vertex 2.90575 0.746069 3.2
      vertex 2.90575 -0.746069 3.2
      vertex 2.97634 -0.375999 3.2
    endloop
  endfacet
  facet normal 0 0 1
    outer loop
      vertex 2.78933 1.10437 3.2
      vertex 2.90575 -0.746069 3.2
      vertex 2.90575 0.746069 3.2
    endloop
  endfacet
  facet normal 0 0 1
    outer loop
      vertex 2.78933 1.10437 3.2
      vertex 2.78933 -1.10437 3.2
      vertex 2.90575 -0.746069 3.2
    endloop
  endfacet
  facet normal 0 0 1
    outer loop
      vertex 2.62892 1.44526 3.2
      vertex 2.78933 -1.10437 3.2
      vertex 2.78933 1.10437 3.2
    endloop
  endfacet
  facet normal 0 0 1
    outer loop
      vertex 2.62892 1.44526 3.2
      vertex 2.62892 -1.44526 3.2
      vertex 2.78933 -1.10437 3.2
    endloop
  endfacet
  facet normal 0 0 1
    outer loop
      vertex 2.42705 1.76336 3.2
      vertex 2.62892 -1.44526 3.2
      vertex 2.62892 1.44526 3.2
    endloop
  endfacet
  facet normal 0 0 1
    outer loop
      vertex 2.42705 1.76336 3.2
      vertex 2.42705 -1.76336 3.2
      vertex 2.62892 -1.44526 3.2
    endloop
  endfacet
  facet normal 0 0 1
    outer loop
      vertex 2.18691 2.05364 3.2
      vertex 2.42705 -1.76336 3.2
      vertex 2.42705 1.76336 3.2
    endloop
  endfacet
  facet normal 0 0 1
    outer loop
      vertex 2.18691 2.05364 3.2
      vertex 2.18691 -2.05364 3.2
      vertex 2.42705 -1.76336 3.2
    endloop
  endfacet
  facet normal 0 0 1
    outer loop
      vertex 1.91227 2.31154 3.2
      vertex 2.18691 -2.05364 3.2
      vertex 2.18691 2.05364 3.2
    endloop
  endfacet
  facet normal 0 0 1
    outer loop
      vertex 1.91227 2.31154 3.2
      vertex 1.91227 -2.31154 3.2
      vertex 2.18691 -2.05364 3.2
    endloop
  endfacet
  facet normal 0 0 1
    outer loop
      vertex 1.60748 2.53298 3.2
      vertex 1.91227 -2.31154 3.2
      vertex 1.91227 2.31154 3.2
    endloop
  endfacet
  facet normal 0 0 1
    outer loop
      vertex 1.60748 2.53298 3.2
      vertex 1.60748 -2.53298 3.2
      vertex 1.91227 -2.31154 3.2
    endloop
  endfacet
  facet normal 0 0 1
    outer loop
      vertex 1.27734 2.71448 3.2
      vertex 1.60748 -2.53298 3.2
      vertex 1.60748 2.53298 3.2
    endloop
  endfacet
  facet normal 0 0 1
    outer loop
      vertex 1.27734 2.71448 3.2
      vertex 1.27734 -2.71448 3.2
      vertex 1.60748 -2.53298 3.2
    endloop
  endfacet
  facet normal 0 0 1
    outer loop
      vertex 0.927051 2.85317 3.2
      vertex 1.27734 -2.71448 3.2
      vertex 1.27734 2.71448 3.2
    endloop
  endfacet
  facet normal 0 0 1
    outer loop
      vertex 0.927051 2.85317 3.2
      vertex 0.927051 -2.85317 3.2
      vertex 1.27734 -2.71448 3.2
    endloop
  endfacet
  facet normal 0 0 1
    outer loop
      vertex 0.562143 2.94686 3.2
      vertex 0.927051 -2.85317 3.2
      vertex 0.927051 2.85317 3.2
    endloop
  endfacet
  facet normal 0 0 1
    outer loop
      vertex 0.562143 2.94686 3.2
      vertex 0.562143 -2.94686 3.2
      vertex 0.927051 -2.85317 3.2
    endloop
  endfacet
  facet normal 0 0 1
    outer loop
      vertex 0.188371 2.99408 3.2
      vertex 0.562143 -2.94686 3.2
      vertex 0.562143 2.94686 3.2
    endloop
  endfacet
  facet normal 0 0 1
    outer loop
      vertex 0.188371 2.99408 3.2
      vertex 0.188371 -2.99408 3.2
      vertex 0.562143 -2.94686 3.2
    endloop
  endfacet
  facet normal -0 0 1
    outer loop
      vertex -0.188371 2.99408 3.2
      vertex 0.188371 -2.99408 3.2
      vertex 0.188371 2.99408 3.2
    endloop
  endfacet
  facet normal 0 0 1
    outer loop
      vertex -0.188371 2.99408 3.2
      vertex -0.188371 -2.99408 3.2
      vertex 0.188371 -2.99408 3.2
    endloop
  endfacet
  facet normal -0 0 1
    outer loop
      vertex -0.562143 2.94686 3.2
      vertex -0.188371 -2.99408 3.2
      vertex -0.188371 2.99408 3.2
    endloop
  endfacet
  facet normal 0 0 1
    outer loop
      vertex -0.562143 2.94686 3.2
      vertex -0.562143 -2.94686 3.2
      vertex -0.188371 -2.99408 3.2
    endloop
  endfacet
  facet normal -0 0 1
    outer loop
      vertex -0.927051 2.85317 3.2
      vertex -0.562143 -2.94686 3.2
      vertex -0.562143 2.94686 3.2
    endloop
  endfacet
  facet normal 0 0 1
    outer loop
      vertex -0.927051 2.85317 3.2
      vertex -0.927051 -2.85317 3.2
      vertex -0.562143 -2.94686 3.2
    endloop
  endfacet
  facet normal -0 0 1
    outer loop
      vertex -1.27734 2.71448 3.2
      vertex -0.927051 -2.85317 3.2
      vertex -0.927051 2.85317 3.2
    endloop
  endfacet
  facet normal 0 0 1
    outer loop
      vertex -1.27734 2.71448 3.2
      vertex -1.27734 -2.71448 3.2
      vertex -0.927051 -2.85317 3.2
    endloop
  endfacet
  facet normal -0 0 1
    outer loop
      vertex -1.60748 2.53298 3.2
      vertex -1.27734 -2.71448 3.2
      vertex -1.27734 2.71448 3.2
    endloop
  endfacet
  facet normal 0 0 1
    outer loop
      vertex -1.60748 2.53298 3.2
      vertex -1.60748 -2.53298 3.2
      vertex -1.27734 -2.71448 3.2
    endloop
  endfacet
  facet normal -0 0 1
    outer loop
      vertex -1.91227 2.31154 3.2
      vertex -1.60748 -2.53298 3.2
      vertex -1.60748 2.53298 3.2
    endloop
  endfacet
  facet normal 0 0 1
    outer loop
      vertex -1.91227 2.31154 3.2
      vertex -1.91227 -2.31154 3.2
      vertex -1.60748 -2.53298 3.2
    endloop
  endfacet
  facet normal -0 0 1
    outer loop
      vertex -2.18691 2.05364 3.2
      vertex -1.91227 -2.31154 3.2
      vertex -1.91227 2.31154 3.2
    endloop
  endfacet
  facet normal 0 0 1
    outer loop
      vertex -2.18691 2.05364 3.2
      vertex -2.18691 -2.05364 3.2
      vertex -1.91227 -2.31154 3.2
    endloop
  endfacet
  facet normal -0 0 1
    outer loop
      vertex -2.42705 1.76336 3.2
      vertex -2.18691 -2.05364 3.2
      vertex -2.18691 2.05364 3.2
    endloop
  endfacet
  facet normal 0 0 1
    outer loop
      vertex -2.42705 1.76336 3.2
      vertex -2.42705 -1.76336 3.2
      vertex -2.18691 -2.05364 3.2
    endloop
  endfacet
  facet normal -0 0 1
    outer loop
      vertex -2.62892 1.44526 3.2
      vertex -2.42705 -1.76336 3.2
      vertex -2.42705 1.76336 3.2
    endloop
  endfacet
  facet normal 0 0 1
    outer loop
      vertex -2.62892 1.44526 3.2
      vertex -2.62892 -1.44526 3.2
      vertex -2.42705 -1.76336 3.2
    endloop
  endfacet
  facet normal -0 0 1
    outer loop
      vertex -2.78933 1.10437 3.2
      vertex -2.62892 -1.44526 3.2
      vertex -2.62892 1.44526 3.2
    endloop
  endfacet
  facet normal 0 0 1
    outer loop
      vertex -2.78933 1.10437 3.2
      vertex -2.78933 -1.10437 3.2
      vertex -2.62892 -1.44526 3.2
    endloop
  endfacet
  facet normal -0 0 1
    outer loop
      vertex -2.90575 0.746069 3.2
      vertex -2.78933 -1.10437 3.2
      vertex -2.78933 1.10437 3.2
    endloop
  endfacet
  facet normal 0 0 1
    outer loop
      vertex -2.90575 0.746069 3.2
      vertex -2.90575 -0.746069 3.2
      vertex -2.78933 -1.10437 3.2
    endloop
  endfacet
  facet normal -0 0 1
    outer loop
      vertex -2.97634 0.375999 3.2
      vertex -2.90575 -0.746069 3.2
      vertex -2.90575 0.746069 3.2
    endloop
  endfacet
  facet normal 0 0 1
    outer loop
      vertex -2.97634 0.375999 3.2
      vertex -2.97634 -0.375999 3.2
      vertex -2.90575 -0.746069 3.2
    endloop
  endfacet
  facet normal 0 -0 1
    outer loop
      vertex -2.97634 -0.375999 3.2
      vertex -2.97634 0.375999 3.2
      vertex -3 0 3.2
    endloop
  endfacet
  facet normal -0.481762 0.876302 0
    outer loop
      vertex -1.27734 2.71448 0
      vertex -1.60748 2.53298 3.2
      vertex -1.27734 2.71448 3.2
    endloop
  endfacet
  facet normal -0.481762 0.876302 0
    outer loop
      vertex -1.60748 2.53298 3.2
      vertex -1.27734 2.71448 0
      vertex -1.60748 2.53298 0
    endloop
  endfacet
  facet normal -0.58778 0.809021 0
    outer loop
      vertex -1.60748 2.53298 0
      vertex -1.91227 2.31154 3.2
      vertex -1.60748 2.53298 3.2
    endloop
  endfacet
  facet normal -0.58778 0.809021 0
    outer loop
      vertex -1.91227 2.31154 3.2
      vertex -1.60748 2.53298 0
      vertex -1.91227 2.31154 0
    endloop
  endfacet
  facet normal -0.125337 0.992114 0
    outer loop
      vertex -0.188371 2.99408 0
      vertex -0.562143 2.94686 3.2
      vertex -0.188371 2.99408 3.2
    endloop
  endfacet
  facet normal -0.125337 0.992114 0
    outer loop
      vertex -0.562143 2.94686 3.2
      vertex -0.188371 2.99408 0
      vertex -0.562143 2.94686 0
    endloop
  endfacet
  facet normal 0.998026 -0.0628015 0
    outer loop
      vertex 2.97634 -0.375999 3.2
      vertex 3 0 0
      vertex 3 0 3.2
    endloop
  endfacet
  facet normal 0.998026 -0.0628015 0
    outer loop
      vertex 3 0 0
      vertex 2.97634 -0.375999 3.2
      vertex 2.97634 -0.375999 0
    endloop
  endfacet
  facet normal 0.481762 -0.876302 0
    outer loop
      vertex 1.27734 -2.71448 0
      vertex 1.60748 -2.53298 3.2
      vertex 1.27734 -2.71448 3.2
    endloop
  endfacet
  facet normal 0.481762 -0.876302 0
    outer loop
      vertex 1.60748 -2.53298 3.2
      vertex 1.27734 -2.71448 0
      vertex 1.60748 -2.53298 0
    endloop
  endfacet
  facet normal 0.684541 -0.728974 0
    outer loop
      vertex 1.91227 -2.31154 0
      vertex 2.18691 -2.05364 3.2
      vertex 1.91227 -2.31154 3.2
    endloop
  endfacet
  facet normal 0.684541 -0.728974 0
    outer loop
      vertex 2.18691 -2.05364 3.2
      vertex 1.91227 -2.31154 0
      vertex 2.18691 -2.05364 0
    endloop
  endfacet
  facet normal 0.98229 -0.187369 0
    outer loop
      vertex 2.90575 -0.746069 3.2
      vertex 2.97634 -0.375999 0
      vertex 2.97634 -0.375999 3.2
    endloop
  endfacet
  facet normal 0.98229 -0.187369 0
    outer loop
      vertex 2.97634 -0.375999 0
      vertex 2.90575 -0.746069 3.2
      vertex 2.90575 -0.746069 0
    endloop
  endfacet
  facet normal 0 0 -1
    outer loop
      vertex 1.7 0 0
      vertex 3 0 0
      vertex 2.97634 -0.375999 0
    endloop
  endfacet
  facet normal 0 0 -1
    outer loop
      vertex 1.68659 -0.213066 0
      vertex 2.97634 -0.375999 0
      vertex 2.90575 -0.746069 0
    endloop
  endfacet
  facet normal 0 0 -1
    outer loop
      vertex 3 0 0
      vertex 1.7 0 0
      vertex 2.97634 0.375999 0
    endloop
  endfacet
  facet normal 0 0 -1
    outer loop
      vertex 1.64659 -0.422772 0
      vertex 2.90575 -0.746069 0
      vertex 2.78933 -1.10437 0
    endloop
  endfacet
  facet normal 0 0 -1
    outer loop
      vertex 1.68659 0.213066 0
      vertex 2.97634 0.375999 0
      vertex 1.7 0 0
    endloop
  endfacet
  facet normal 0 0 -1
    outer loop
      vertex 1.58062 -0.625812 0
      vertex 2.78933 -1.10437 0
      vertex 2.62892 -1.44526 0
    endloop
  endfacet
  facet normal -0 0 -1
    outer loop
      vertex 2.97634 0.375999 0
      vertex 1.68659 0.213066 0
      vertex 2.90575 0.746069 0
    endloop
  endfacet
  facet normal 0 0 -1
    outer loop
      vertex 1.48972 -0.818981 0
      vertex 2.62892 -1.44526 0
      vertex 2.42705 -1.76336 0
    endloop
  endfacet
  facet normal 0 0 -1
    outer loop
      vertex 1.64659 0.422772 0
      vertex 2.90575 0.746069 0
      vertex 1.68659 0.213066 0
    endloop
  endfacet
  facet normal 0 0 -1
    outer loop
      vertex 1.37533 -0.999234 0
      vertex 2.42705 -1.76336 0
      vertex 2.18691 -2.05364 0
    endloop
  endfacet
  facet normal -0 0 -1
    outer loop
      vertex 2.90575 0.746069 0
      vertex 1.64659 0.422772 0
      vertex 2.78933 1.10437 0
    endloop
  endfacet
  facet normal 0 0 -1
    outer loop
      vertex 1.23925 -1.16373 0
      vertex 2.18691 -2.05364 0
      vertex 1.91227 -2.31154 0
    endloop
  endfacet
  facet normal 0 0 -1
    outer loop
      vertex 1.58062 0.625812 0
      vertex 2.78933 1.10437 0
      vertex 1.64659 0.422772 0
    endloop
  endfacet
  facet normal -0 0 -1
    outer loop
      vertex 2.78933 1.10437 0
      vertex 1.58062 0.625812 0
      vertex 2.62892 1.44526 0
    endloop
  endfacet
  facet normal 0 0 -1
    outer loop
      vertex 2.97634 -0.375999 0
      vertex 1.68659 -0.213066 0
      vertex 1.7 0 0
    endloop
  endfacet
  facet normal 0 0 -1
    outer loop
      vertex 2.90575 -0.746069 0
      vertex 1.64659 -0.422772 0
      vertex 1.68659 -0.213066 0
    endloop
  endfacet
  facet normal 0 0 -1
    outer loop
      vertex 1.08362 -1.30987 0
      vertex 1.91227 -2.31154 0
      vertex 1.60748 -2.53298 0
    endloop
  endfacet
  facet normal 0 0 -1
    outer loop
      vertex 2.78933 -1.10437 0
      vertex 1.58062 -0.625812 0
      vertex 1.64659 -0.422772 0
    endloop
  endfacet
  facet normal 0 0 -1
    outer loop
      vertex 2.62892 -1.44526 0
      vertex 1.48972 -0.818981 0
      vertex 1.58062 -0.625812 0
    endloop
  endfacet
  facet normal 0 0 -1
    outer loop
      vertex 2.42705 -1.76336 0
      vertex 1.37533 -0.999234 0
      vertex 1.48972 -0.818981 0
    endloop
  endfacet
  facet normal 0 0 -1
    outer loop
      vertex 0.910905 -1.43536 0
      vertex 1.60748 -2.53298 0
      vertex 1.27734 -2.71448 0
    endloop
  endfacet
  facet normal 0 0 -1
    outer loop
      vertex 2.18691 -2.05364 0
      vertex 1.23925 -1.16373 0
      vertex 1.37533 -0.999234 0
    endloop
  endfacet
  facet normal 0 0 -1
    outer loop
      vertex 1.91227 -2.31154 0
      vertex 1.08362 -1.30987 0
      vertex 1.23925 -1.16373 0
    endloop
  endfacet
  facet normal 0 0 -1
    outer loop
      vertex 0.723825 -1.53821 0
      vertex 1.27734 -2.71448 0
      vertex 0.927051 -2.85317 0
    endloop
  endfacet
  facet normal 0 0 -1
    outer loop
      vertex 1.60748 -2.53298 0
      vertex 0.910905 -1.43536 0
      vertex 1.08362 -1.30987 0
    endloop
  endfacet
  facet normal 0 0 -1
    outer loop
      vertex 1.27734 -2.71448 0
      vertex 0.723825 -1.53821 0
      vertex 0.910905 -1.43536 0
    endloop
  endfacet
  facet normal 0 0 -1
    outer loop
      vertex 0.525329 -1.6168 0
      vertex 0.927051 -2.85317 0
      vertex 0.562143 -2.94686 0
    endloop
  endfacet
  facet normal 0 0 -1
    outer loop
      vertex 0.927051 -2.85317 0
      vertex 0.525329 -1.6168 0
      vertex 0.723825 -1.53821 0
    endloop
  endfacet
  facet normal 0 0 -1
    outer loop
      vertex 0.562143 -2.94686 0
      vertex 0.318548 -1.66989 0
      vertex 0.525329 -1.6168 0
    endloop
  endfacet
  facet normal 0 0 -1
    outer loop
      vertex 0.188371 -2.99408 0
      vertex 0.318548 -1.66989 0
      vertex 0.562143 -2.94686 0
    endloop
  endfacet
  facet normal 0 0 -1
    outer loop
      vertex 0.188371 -2.99408 0
      vertex 0.106744 -1.69664 0
      vertex 0.318548 -1.66989 0
    endloop
  endfacet
  facet normal 0 0 -1
    outer loop
      vertex 0.188371 -2.99408 0
      vertex -0.106744 -1.69664 0
      vertex 0.106744 -1.69664 0
    endloop
  endfacet
  facet normal 0 0 -1
    outer loop
      vertex -0.188371 -2.99408 0
      vertex -0.106744 -1.69664 0
      vertex 0.188371 -2.99408 0
    endloop
  endfacet
  facet normal 0 0 -1
    outer loop
      vertex -0.188371 -2.99408 0
      vertex -0.318548 -1.66989 0
      vertex -0.106744 -1.69664 0
    endloop
  endfacet
  facet normal 0 0 -1
    outer loop
      vertex -0.562143 -2.94686 0
      vertex -0.318548 -1.66989 0
      vertex -0.188371 -2.99408 0
    endloop
  endfacet
  facet normal -0 0 -1
    outer loop
      vertex -0.318548 -1.66989 0
      vertex -0.562143 -2.94686 0
      vertex -0.525329 -1.6168 0
    endloop
  endfacet
  facet normal 0 0 -1
    outer loop
      vertex -0.927051 -2.85317 0
      vertex -0.525329 -1.6168 0
      vertex -0.562143 -2.94686 0
    endloop
  endfacet
  facet normal -0 0 -1
    outer loop
      vertex -0.525329 -1.6168 0
      vertex -0.927051 -2.85317 0
      vertex -0.723825 -1.53821 0
    endloop
  endfacet
  facet normal 0 0 -1
    outer loop
      vertex -1.27734 -2.71448 0
      vertex -0.723825 -1.53821 0
      vertex -0.927051 -2.85317 0
    endloop
  endfacet
  facet normal -0 0 -1
    outer loop
      vertex -0.723825 -1.53821 0
      vertex -1.27734 -2.71448 0
      vertex -0.910905 -1.43536 0
    endloop
  endfacet
  facet normal 0 0 -1
    outer loop
      vertex -1.60748 -2.53298 0
      vertex -0.910905 -1.43536 0
      vertex -1.27734 -2.71448 0
    endloop
  endfacet
  facet normal -0 0 -1
    outer loop
      vertex -0.910905 -1.43536 0
      vertex -1.60748 -2.53298 0
      vertex -1.08362 -1.30987 0
    endloop
  endfacet
  facet normal 0 0 -1
    outer loop
      vertex -1.91227 -2.31154 0
      vertex -1.08362 -1.30987 0
      vertex -1.60748 -2.53298 0
    endloop
  endfacet
  facet normal -0 0 -1
    outer loop
      vertex -1.08362 -1.30987 0
      vertex -1.91227 -2.31154 0
      vertex -1.23925 -1.16373 0
    endloop
  endfacet
  facet normal 0 0 -1
    outer loop
      vertex -2.18691 -2.05364 0
      vertex -1.23925 -1.16373 0
      vertex -1.91227 -2.31154 0
    endloop
  endfacet
  facet normal -0 0 -1
    outer loop
      vertex -1.23925 -1.16373 0
      vertex -2.18691 -2.05364 0
      vertex -1.37533 -0.999234 0
    endloop
  endfacet
  facet normal 0 0 -1
    outer loop
      vertex -2.42705 -1.76336 0
      vertex -1.37533 -0.999234 0
      vertex -2.18691 -2.05364 0
    endloop
  endfacet
  facet normal -0 0 -1
    outer loop
      vertex -1.37533 -0.999234 0
      vertex -2.42705 -1.76336 0
      vertex -1.48972 -0.818981 0
    endloop
  endfacet
  facet normal 0 0 -1
    outer loop
      vertex -2.62892 -1.44526 0
      vertex -1.48972 -0.818981 0
      vertex -2.42705 -1.76336 0
    endloop
  endfacet
  facet normal -0 0 -1
    outer loop
      vertex -1.48972 -0.818981 0
      vertex -2.62892 -1.44526 0
      vertex -1.58062 -0.625812 0
    endloop
  endfacet
  facet normal 0 0 -1
    outer loop
      vertex 1.48972 0.818981 0
      vertex 2.62892 1.44526 0
      vertex 1.58062 0.625812 0
    endloop
  endfacet
  facet normal -0 0 -1
    outer loop
      vertex 2.62892 1.44526 0
      vertex 1.48972 0.818981 0
      vertex 2.42705 1.76336 0
    endloop
  endfacet
  facet normal 0 0 -1
    outer loop
      vertex 1.37533 0.999234 0
      vertex 2.42705 1.76336 0
      vertex 1.48972 0.818981 0
    endloop
  endfacet
  facet normal -0 0 -1
    outer loop
      vertex 2.42705 1.76336 0
      vertex 1.37533 0.999234 0
      vertex 2.18691 2.05364 0
    endloop
  endfacet
  facet normal 0 0 -1
    outer loop
      vertex 1.23925 1.16373 0
      vertex 2.18691 2.05364 0
      vertex 1.37533 0.999234 0
    endloop
  endfacet
  facet normal -0 0 -1
    outer loop
      vertex 2.18691 2.05364 0
      vertex 1.23925 1.16373 0
      vertex 1.91227 2.31154 0
    endloop
  endfacet
  facet normal 0 0 -1
    outer loop
      vertex 1.08362 1.30987 0
      vertex 1.91227 2.31154 0
      vertex 1.23925 1.16373 0
    endloop
  endfacet
  facet normal -0 0 -1
    outer loop
      vertex 1.91227 2.31154 0
      vertex 1.08362 1.30987 0
      vertex 1.60748 2.53298 0
    endloop
  endfacet
  facet normal 0 0 -1
    outer loop
      vertex 0.910905 1.43536 0
      vertex 1.60748 2.53298 0
      vertex 1.08362 1.30987 0
    endloop
  endfacet
  facet normal -0 0 -1
    outer loop
      vertex 1.60748 2.53298 0
      vertex 0.910905 1.43536 0
      vertex 1.27734 2.71448 0
    endloop
  endfacet
  facet normal 0 0 -1
    outer loop
      vertex 0.723825 1.53821 0
      vertex 1.27734 2.71448 0
      vertex 0.910905 1.43536 0
    endloop
  endfacet
  facet normal -0 0 -1
    outer loop
      vertex 1.27734 2.71448 0
      vertex 0.723825 1.53821 0
      vertex 0.927051 2.85317 0
    endloop
  endfacet
  facet normal 0 0 -1
    outer loop
      vertex 0.525329 1.6168 0
      vertex 0.927051 2.85317 0
      vertex 0.723825 1.53821 0
    endloop
  endfacet
  facet normal -0 0 -1
    outer loop
      vertex 0.927051 2.85317 0
      vertex 0.525329 1.6168 0
      vertex 0.562143 2.94686 0
    endloop
  endfacet
  facet normal 0 0 -1
    outer loop
      vertex 0.318548 1.66989 0
      vertex 0.562143 2.94686 0
      vertex 0.525329 1.6168 0
    endloop
  endfacet
  facet normal 0 0 -1
    outer loop
      vertex 0.318548 1.66989 0
      vertex 0.188371 2.99408 0
      vertex 0.562143 2.94686 0
    endloop
  endfacet
  facet normal 0 0 -1
    outer loop
      vertex 0.106744 1.69664 0
      vertex 0.188371 2.99408 0
      vertex 0.318548 1.66989 0
    endloop
  endfacet
  facet normal 0 0 -1
    outer loop
      vertex -0.106744 1.69664 0
      vertex 0.188371 2.99408 0
      vertex 0.106744 1.69664 0
    endloop
  endfacet
  facet normal 0 0 -1
    outer loop
      vertex -0.106744 1.69664 0
      vertex -0.188371 2.99408 0
      vertex 0.188371 2.99408 0
    endloop
  endfacet
  facet normal 0 0 -1
    outer loop
      vertex -0.318548 1.66989 0
      vertex -0.188371 2.99408 0
      vertex -0.106744 1.69664 0
    endloop
  endfacet
  facet normal 0 0 -1
    outer loop
      vertex -0.562143 2.94686 0
      vertex -0.318548 1.66989 0
      vertex -0.525329 1.6168 0
    endloop
  endfacet
  facet normal 0 0 -1
    outer loop
      vertex -0.318548 1.66989 0
      vertex -0.562143 2.94686 0
      vertex -0.188371 2.99408 0
    endloop
  endfacet
  facet normal 0 0 -1
    outer loop
      vertex -0.927051 2.85317 0
      vertex -0.525329 1.6168 0
      vertex -0.723825 1.53821 0
    endloop
  endfacet
  facet normal 0 0 -1
    outer loop
      vertex -1.27734 2.71448 0
      vertex -0.723825 1.53821 0
      vertex -0.910905 1.43536 0
    endloop
  endfacet
  facet normal 0 0 -1
    outer loop
      vertex -0.525329 1.6168 0
      vertex -0.927051 2.85317 0
      vertex -0.562143 2.94686 0
    endloop
  endfacet
  facet normal 0 0 -1
    outer loop
      vertex -1.60748 2.53298 0
      vertex -0.910905 1.43536 0
      vertex -1.08362 1.30987 0
    endloop
  endfacet
  facet normal 0 0 -1
    outer loop
      vertex -1.91227 2.31154 0
      vertex -1.08362 1.30987 0
      vertex -1.23925 1.16373 0
    endloop
  endfacet
  facet normal 0 0 -1
    outer loop
      vertex -0.723825 1.53821 0
      vertex -1.27734 2.71448 0
      vertex -0.927051 2.85317 0
    endloop
  endfacet
  facet normal 0 0 -1
    outer loop
      vertex -2.18691 2.05364 0
      vertex -1.23925 1.16373 0
      vertex -1.37533 0.999234 0
    endloop
  endfacet
  facet normal 0 0 -1
    outer loop
      vertex -2.42705 1.76336 0
      vertex -1.37533 0.999234 0
      vertex -1.48972 0.818981 0
    endloop
  endfacet
  facet normal 0 0 -1
    outer loop
      vertex -2.62892 1.44526 0
      vertex -1.48972 0.818981 0
      vertex -1.58062 0.625812 0
    endloop
  endfacet
  facet normal 0 0 -1
    outer loop
      vertex -0.910905 1.43536 0
      vertex -1.60748 2.53298 0
      vertex -1.27734 2.71448 0
    endloop
  endfacet
  facet normal 0 0 -1
    outer loop
      vertex -2.78933 1.10437 0
      vertex -1.58062 0.625812 0
      vertex -1.64659 0.422772 0
    endloop
  endfacet
  facet normal 0 0 -1
    outer loop
      vertex -2.90575 0.746069 0
      vertex -1.64659 0.422772 0
      vertex -1.68659 0.213066 0
    endloop
  endfacet
  facet normal 0 0 -1
    outer loop
      vertex -2.97634 0.375999 0
      vertex -1.68659 0.213066 0
      vertex -1.7 0 0
    endloop
  endfacet
  facet normal 0 0 -1
    outer loop
      vertex -2.78933 -1.10437 0
      vertex -1.58062 -0.625812 0
      vertex -2.62892 -1.44526 0
    endloop
  endfacet
  facet normal 0 0 -1
    outer loop
      vertex -1.08362 1.30987 0
      vertex -1.91227 2.31154 0
      vertex -1.60748 2.53298 0
    endloop
  endfacet
  facet normal -0 0 -1
    outer loop
      vertex -1.58062 -0.625812 0
      vertex -2.78933 -1.10437 0
      vertex -1.64659 -0.422772 0
    endloop
  endfacet
  facet normal 0 0 -1
    outer loop
      vertex -1.23925 1.16373 0
      vertex -2.18691 2.05364 0
      vertex -1.91227 2.31154 0
    endloop
  endfacet
  facet normal 0 0 -1
    outer loop
      vertex -2.90575 -0.746069 0
      vertex -1.64659 -0.422772 0
      vertex -2.78933 -1.10437 0
    endloop
  endfacet
  facet normal 0 0 -1
    outer loop
      vertex -1.37533 0.999234 0
      vertex -2.42705 1.76336 0
      vertex -2.18691 2.05364 0
    endloop
  endfacet
  facet normal -0 0 -1
    outer loop
      vertex -1.64659 -0.422772 0
      vertex -2.90575 -0.746069 0
      vertex -1.68659 -0.213066 0
    endloop
  endfacet
  facet normal 0 0 -1
    outer loop
      vertex -1.48972 0.818981 0
      vertex -2.62892 1.44526 0
      vertex -2.42705 1.76336 0
    endloop
  endfacet
  facet normal 0 0 -1
    outer loop
      vertex -2.97634 -0.375999 0
      vertex -1.68659 -0.213066 0
      vertex -2.90575 -0.746069 0
    endloop
  endfacet
  facet normal 0 0 -1
    outer loop
      vertex -1.58062 0.625812 0
      vertex -2.78933 1.10437 0
      vertex -2.62892 1.44526 0
    endloop
  endfacet
  facet normal -0 0 -1
    outer loop
      vertex -1.68659 -0.213066 0
      vertex -2.97634 -0.375999 0
      vertex -1.7 0 0
    endloop
  endfacet
  facet normal 0 0 -1
    outer loop
      vertex -1.64659 0.422772 0
      vertex -2.90575 0.746069 0
      vertex -2.78933 1.10437 0
    endloop
  endfacet
  facet normal 0 0 -1
    outer loop
      vertex -3 0 0
      vertex -1.7 0 0
      vertex -2.97634 -0.375999 0
    endloop
  endfacet
  facet normal 0 0 -1
    outer loop
      vertex -1.68659 0.213066 0
      vertex -2.97634 0.375999 0
      vertex -2.90575 0.746069 0
    endloop
  endfacet
  facet normal 0 0 -1
    outer loop
      vertex -1.7 0 0
      vertex -3 0 0
      vertex -2.97634 0.375999 0
    endloop
  endfacet
  facet normal 0.904828 -0.425778 0
    outer loop
      vertex 2.62892 -1.44526 3.2
      vertex 2.78933 -1.10437 0
      vertex 2.78933 -1.10437 3.2
    endloop
  endfacet
  facet normal 0.904828 -0.425778 0
    outer loop
      vertex 2.78933 -1.10437 0
      vertex 2.62892 -1.44526 3.2
      vertex 2.62892 -1.44526 0
    endloop
  endfacet
  facet normal 0.770514 -0.637423 0
    outer loop
      vertex 2.18691 -2.05364 3.2
      vertex 2.42705 -1.76336 0
      vertex 2.42705 -1.76336 3.2
    endloop
  endfacet
  facet normal 0.770514 -0.637423 0
    outer loop
      vertex 2.42705 -1.76336 0
      vertex 2.18691 -2.05364 3.2
      vertex 2.18691 -2.05364 0
    endloop
  endfacet
  facet normal -0.248684 -0.968585 0
    outer loop
      vertex -0.927051 -2.85317 0
      vertex -0.562143 -2.94686 3.2
      vertex -0.927051 -2.85317 3.2
    endloop
  endfacet
  facet normal -0.248684 -0.968585 -0
    outer loop
      vertex -0.562143 -2.94686 3.2
      vertex -0.927051 -2.85317 0
      vertex -0.562143 -2.94686 0
    endloop
  endfacet
  facet normal -0.684541 -0.728974 0
    outer loop
      vertex -2.18691 -2.05364 0
      vertex -1.91227 -2.31154 3.2
      vertex -2.18691 -2.05364 3.2
    endloop
  endfacet
  facet normal -0.684541 -0.728974 -0
    outer loop
      vertex -1.91227 -2.31154 3.2
      vertex -2.18691 -2.05364 0
      vertex -1.91227 -2.31154 0
    endloop
  endfacet
  facet normal -0.844331 -0.535822 0
    outer loop
      vertex -2.42705 -1.76336 0
      vertex -2.62892 -1.44526 3.2
      vertex -2.62892 -1.44526 0
    endloop
  endfacet
  facet normal -0.844331 -0.535822 0
    outer loop
      vertex -2.62892 -1.44526 3.2
      vertex -2.42705 -1.76336 0
      vertex -2.42705 -1.76336 3.2
    endloop
  endfacet
  facet normal -0.951056 -0.309019 0
    outer loop
      vertex -2.78933 -1.10437 0
      vertex -2.90575 -0.746069 3.2
      vertex -2.90575 -0.746069 0
    endloop
  endfacet
  facet normal -0.951056 -0.309019 0
    outer loop
      vertex -2.90575 -0.746069 3.2
      vertex -2.78933 -1.10437 0
      vertex -2.78933 -1.10437 3.2
    endloop
  endfacet
  facet normal 0.248684 -0.968585 0
    outer loop
      vertex 0.562143 -2.94686 0
      vertex 0.927051 -2.85317 3.2
      vertex 0.562143 -2.94686 3.2
    endloop
  endfacet
  facet normal 0.248684 -0.968585 0
    outer loop
      vertex 0.927051 -2.85317 3.2
      vertex 0.562143 -2.94686 0
      vertex 0.927051 -2.85317 0
    endloop
  endfacet
  facet normal 0.58778 -0.809021 0
    outer loop
      vertex 1.60748 -2.53298 0
      vertex 1.91227 -2.31154 3.2
      vertex 1.60748 -2.53298 3.2
    endloop
  endfacet
  facet normal 0.58778 -0.809021 0
    outer loop
      vertex 1.91227 -2.31154 3.2
      vertex 1.60748 -2.53298 0
      vertex 1.91227 -2.31154 0
    endloop
  endfacet
  facet normal 0.951056 -0.309019 0
    outer loop
      vertex 2.78933 -1.10437 3.2
      vertex 2.90575 -0.746069 0
      vertex 2.90575 -0.746069 3.2
    endloop
  endfacet
  facet normal 0.951056 -0.309019 0
    outer loop
      vertex 2.90575 -0.746069 0
      vertex 2.78933 -1.10437 3.2
      vertex 2.78933 -1.10437 0
    endloop
  endfacet
  facet normal 0.844331 -0.535822 0
    outer loop
      vertex 2.42705 -1.76336 3.2
      vertex 2.62892 -1.44526 0
      vertex 2.62892 -1.44526 3.2
    endloop
  endfacet
  facet normal 0.844331 -0.535822 0
    outer loop
      vertex 2.62892 -1.44526 0
      vertex 2.42705 -1.76336 3.2
      vertex 2.42705 -1.76336 0
    endloop
  endfacet
  facet normal -0.125337 -0.992114 0
    outer loop
      vertex -0.562143 -2.94686 0
      vertex -0.188371 -2.99408 3.2
      vertex -0.562143 -2.94686 3.2
    endloop
  endfacet
  facet normal -0.125337 -0.992114 -0
    outer loop
      vertex -0.188371 -2.99408 3.2
      vertex -0.562143 -2.94686 0
      vertex -0.188371 -2.99408 0
    endloop
  endfacet
  facet normal -0.368126 -0.929776 0
    outer loop
      vertex -1.27734 -2.71448 0
      vertex -0.927051 -2.85317 3.2
      vertex -1.27734 -2.71448 3.2
    endloop
  endfacet
  facet normal -0.368126 -0.929776 -0
    outer loop
      vertex -0.927051 -2.85317 3.2
      vertex -1.27734 -2.71448 0
      vertex -0.927051 -2.85317 0
    endloop
  endfacet
  facet normal -0.58778 -0.809021 0
    outer loop
      vertex -1.91227 -2.31154 0
      vertex -1.60748 -2.53298 3.2
      vertex -1.91227 -2.31154 3.2
    endloop
  endfacet
  facet normal -0.58778 -0.809021 -0
    outer loop
      vertex -1.60748 -2.53298 3.2
      vertex -1.91227 -2.31154 0
      vertex -1.60748 -2.53298 0
    endloop
  endfacet
  facet normal -0.770514 -0.637423 0
    outer loop
      vertex -2.18691 -2.05364 0
      vertex -2.42705 -1.76336 3.2
      vertex -2.42705 -1.76336 0
    endloop
  endfacet
  facet normal -0.770514 -0.637423 0
    outer loop
      vertex -2.42705 -1.76336 3.2
      vertex -2.18691 -2.05364 0
      vertex -2.18691 -2.05364 3.2
    endloop
  endfacet
  facet normal -0.904828 -0.425778 0
    outer loop
      vertex -2.62892 -1.44526 0
      vertex -2.78933 -1.10437 3.2
      vertex -2.78933 -1.10437 0
    endloop
  endfacet
  facet normal -0.904828 -0.425778 0
    outer loop
      vertex -2.78933 -1.10437 3.2
      vertex -2.62892 -1.44526 0
      vertex -2.62892 -1.44526 3.2
    endloop
  endfacet
  facet normal -0.98229 -0.187369 0
    outer loop
      vertex -2.90575 -0.746069 0
      vertex -2.97634 -0.375999 3.2
      vertex -2.97634 -0.375999 0
    endloop
  endfacet
  facet normal -0.98229 -0.187369 0
    outer loop
      vertex -2.97634 -0.375999 3.2
      vertex -2.90575 -0.746069 0
      vertex -2.90575 -0.746069 3.2
    endloop
  endfacet
  facet normal -0.998026 -0.0628015 0
    outer loop
      vertex -2.97634 -0.375999 0
      vertex -3 0 3.2
      vertex -3 0 0
    endloop
  endfacet
  facet normal -0.998026 -0.0628015 0
    outer loop
      vertex -3 0 3.2
      vertex -2.97634 -0.375999 0
      vertex -2.97634 -0.375999 3.2
    endloop
  endfacet
  facet normal -0.481762 -0.876302 0
    outer loop
      vertex -1.60748 -2.53298 0
      vertex -1.27734 -2.71448 3.2
      vertex -1.60748 -2.53298 3.2
    endloop
  endfacet
  facet normal -0.481762 -0.876302 -0
    outer loop
      vertex -1.27734 -2.71448 3.2
      vertex -1.60748 -2.53298 0
      vertex -1.27734 -2.71448 0
    endloop
  endfacet
  facet normal 0.998025 0.062814 0
    outer loop
      vertex 1.7 0 0
      vertex 1.68659 0.213066 -20
      vertex 1.68659 0.213066 0
    endloop
  endfacet
  facet normal 0.998025 0.062814 0
    outer loop
      vertex 1.68659 0.213066 -20
      vertex 1.7 0 0
      vertex 1.7 0 -20
    endloop
  endfacet
  facet normal -0.998025 0.062814 0
    outer loop
      vertex -1.7 0 -20
      vertex -1.68659 0.213066 0
      vertex -1.68659 0.213066 -20
    endloop
  endfacet
  facet normal -0.998025 0.062814 0
    outer loop
      vertex -1.68659 0.213066 0
      vertex -1.7 0 -20
      vertex -1.7 0 0
    endloop
  endfacet
  facet normal 0 1 -0
    outer loop
      vertex 0.106744 1.69664 -20
      vertex -0.106744 1.69664 0
      vertex 0.106744 1.69664 0
    endloop
  endfacet
  facet normal 0 1 0
    outer loop
      vertex -0.106744 1.69664 0
      vertex 0.106744 1.69664 -20
      vertex -0.106744 1.69664 -20
    endloop
  endfacet
  facet normal 0 -1 0
    outer loop
      vertex -0.106744 -1.69664 -20
      vertex 0.106744 -1.69664 0
      vertex -0.106744 -1.69664 0
    endloop
  endfacet
  facet normal 0 -1 -0
    outer loop
      vertex 0.106744 -1.69664 0
      vertex -0.106744 -1.69664 -20
      vertex 0.106744 -1.69664 -20
    endloop
  endfacet
  facet normal 0.684531 0.728983 -0
    outer loop
      vertex 1.23925 1.16373 -20
      vertex 1.08362 1.30987 0
      vertex 1.23925 1.16373 0
    endloop
  endfacet
  facet normal 0.684531 0.728983 0
    outer loop
      vertex 1.08362 1.30987 0
      vertex 1.23925 1.16373 -20
      vertex 1.08362 1.30987 -20
    endloop
  endfacet
  facet normal -0.684531 0.728983 0
    outer loop
      vertex -1.08362 1.30987 -20
      vertex -1.23925 1.16373 0
      vertex -1.08362 1.30987 0
    endloop
  endfacet
  facet normal -0.684531 0.728983 0
    outer loop
      vertex -1.23925 1.16373 0
      vertex -1.08362 1.30987 -20
      vertex -1.23925 1.16373 -20
    endloop
  endfacet
  facet normal -0.368124 0.929777 0
    outer loop
      vertex -0.525329 1.6168 -20
      vertex -0.723825 1.53821 0
      vertex -0.525329 1.6168 0
    endloop
  endfacet
  facet normal -0.368124 0.929777 0
    outer loop
      vertex -0.723825 1.53821 0
      vertex -0.525329 1.6168 -20
      vertex -0.723825 1.53821 -20
    endloop
  endfacet
  facet normal 0.904824 0.425785 0
    outer loop
      vertex 1.58062 0.625812 0
      vertex 1.48972 0.818981 -20
      vertex 1.48972 0.818981 0
    endloop
  endfacet
  facet normal 0.904824 0.425785 0
    outer loop
      vertex 1.48972 0.818981 -20
      vertex 1.58062 0.625812 0
      vertex 1.58062 0.625812 -20
    endloop
  endfacet
  facet normal 0.368124 0.929777 -0
    outer loop
      vertex 0.723825 1.53821 -20
      vertex 0.525329 1.6168 0
      vertex 0.723825 1.53821 0
    endloop
  endfacet
  facet normal 0.368124 0.929777 0
    outer loop
      vertex 0.525329 1.6168 0
      vertex 0.723825 1.53821 -20
      vertex 0.525329 1.6168 -20
    endloop
  endfacet
  facet normal 0.587801 0.809005 -0
    outer loop
      vertex 1.08362 1.30987 -20
      vertex 0.910905 1.43536 0
      vertex 1.08362 1.30987 0
    endloop
  endfacet
  facet normal 0.587801 0.809005 0
    outer loop
      vertex 0.910905 1.43536 0
      vertex 1.08362 1.30987 -20
      vertex 0.910905 1.43536 -20
    endloop
  endfacet
  facet normal -0.904824 0.425785 0
    outer loop
      vertex -1.58062 0.625812 -20
      vertex -1.48972 0.818981 0
      vertex -1.48972 0.818981 -20
    endloop
  endfacet
  facet normal -0.904824 0.425785 0
    outer loop
      vertex -1.48972 0.818981 0
      vertex -1.58062 0.625812 -20
      vertex -1.58062 0.625812 0
    endloop
  endfacet
  facet normal -0.844332 0.53582 0
    outer loop
      vertex -1.48972 0.818981 -20
      vertex -1.37533 0.999234 0
      vertex -1.37533 0.999234 -20
    endloop
  endfacet
  facet normal -0.844332 0.53582 0
    outer loop
      vertex -1.37533 0.999234 0
      vertex -1.48972 0.818981 -20
      vertex -1.48972 0.818981 0
    endloop
  endfacet
  facet normal -0.481761 0.876303 0
    outer loop
      vertex -0.723825 1.53821 -20
      vertex -0.910905 1.43536 0
      vertex -0.723825 1.53821 0
    endloop
  endfacet
  facet normal -0.481761 0.876303 0
    outer loop
      vertex -0.910905 1.43536 0
      vertex -0.723825 1.53821 -20
      vertex -0.910905 1.43536 -20
    endloop
  endfacet
  facet normal -0.24868 0.968586 0
    outer loop
      vertex -0.318548 1.66989 -20
      vertex -0.525329 1.6168 0
      vertex -0.318548 1.66989 0
    endloop
  endfacet
  facet normal -0.24868 0.968586 0
    outer loop
      vertex -0.525329 1.6168 0
      vertex -0.318548 1.66989 -20
      vertex -0.525329 1.6168 -20
    endloop
  endfacet
  facet normal 0 0 -1
    outer loop
      vertex 1.68659 -0.213066 -20
      vertex 1.68659 0.213066 -20
      vertex 1.7 0 -20
    endloop
  endfacet
  facet normal 0 0 -1
    outer loop
      vertex 1.64659 -0.422772 -20
      vertex 1.68659 0.213066 -20
      vertex 1.68659 -0.213066 -20
    endloop
  endfacet
  facet normal 0 0 -1
    outer loop
      vertex 1.64659 -0.422772 -20
      vertex 1.64659 0.422772 -20
      vertex 1.68659 0.213066 -20
    endloop
  endfacet
  facet normal 0 0 -1
    outer loop
      vertex 1.58062 -0.625812 -20
      vertex 1.64659 0.422772 -20
      vertex 1.64659 -0.422772 -20
    endloop
  endfacet
  facet normal 0 0 -1
    outer loop
      vertex 1.58062 -0.625812 -20
      vertex 1.58062 0.625812 -20
      vertex 1.64659 0.422772 -20
    endloop
  endfacet
  facet normal 0 0 -1
    outer loop
      vertex 1.48972 -0.818981 -20
      vertex 1.58062 0.625812 -20
      vertex 1.58062 -0.625812 -20
    endloop
  endfacet
  facet normal 0 0 -1
    outer loop
      vertex 1.48972 -0.818981 -20
      vertex 1.48972 0.818981 -20
      vertex 1.58062 0.625812 -20
    endloop
  endfacet
  facet normal 0 0 -1
    outer loop
      vertex 1.37533 -0.999234 -20
      vertex 1.48972 0.818981 -20
      vertex 1.48972 -0.818981 -20
    endloop
  endfacet
  facet normal 0 0 -1
    outer loop
      vertex 1.37533 -0.999234 -20
      vertex 1.37533 0.999234 -20
      vertex 1.48972 0.818981 -20
    endloop
  endfacet
  facet normal 0 0 -1
    outer loop
      vertex 1.23925 -1.16373 -20
      vertex 1.37533 0.999234 -20
      vertex 1.37533 -0.999234 -20
    endloop
  endfacet
  facet normal 0 0 -1
    outer loop
      vertex 1.23925 -1.16373 -20
      vertex 1.23925 1.16373 -20
      vertex 1.37533 0.999234 -20
    endloop
  endfacet
  facet normal 0 0 -1
    outer loop
      vertex 1.08362 -1.30987 -20
      vertex 1.23925 1.16373 -20
      vertex 1.23925 -1.16373 -20
    endloop
  endfacet
  facet normal 0 0 -1
    outer loop
      vertex 1.08362 -1.30987 -20
      vertex 1.08362 1.30987 -20
      vertex 1.23925 1.16373 -20
    endloop
  endfacet
  facet normal 0 0 -1
    outer loop
      vertex 0.910905 -1.43536 -20
      vertex 1.08362 1.30987 -20
      vertex 1.08362 -1.30987 -20
    endloop
  endfacet
  facet normal 0 0 -1
    outer loop
      vertex 0.910905 -1.43536 -20
      vertex 0.910905 1.43536 -20
      vertex 1.08362 1.30987 -20
    endloop
  endfacet
  facet normal 0 0 -1
    outer loop
      vertex 0.723825 -1.53821 -20
      vertex 0.910905 1.43536 -20
      vertex 0.910905 -1.43536 -20
    endloop
  endfacet
  facet normal 0 0 -1
    outer loop
      vertex 0.723825 -1.53821 -20
      vertex 0.723825 1.53821 -20
      vertex 0.910905 1.43536 -20
    endloop
  endfacet
  facet normal 0 0 -1
    outer loop
      vertex 0.525329 -1.6168 -20
      vertex 0.723825 1.53821 -20
      vertex 0.723825 -1.53821 -20
    endloop
  endfacet
  facet normal 0 0 -1
    outer loop
      vertex 0.525329 -1.6168 -20
      vertex 0.525329 1.6168 -20
      vertex 0.723825 1.53821 -20
    endloop
  endfacet
  facet normal 0 0 -1
    outer loop
      vertex 0.318548 -1.66989 -20
      vertex 0.525329 1.6168 -20
      vertex 0.525329 -1.6168 -20
    endloop
  endfacet
  facet normal 0 0 -1
    outer loop
      vertex 0.318548 -1.66989 -20
      vertex 0.318548 1.66989 -20
      vertex 0.525329 1.6168 -20
    endloop
  endfacet
  facet normal 0 0 -1
    outer loop
      vertex 0.106744 -1.69664 -20
      vertex 0.318548 1.66989 -20
      vertex 0.318548 -1.66989 -20
    endloop
  endfacet
  facet normal 0 0 -1
    outer loop
      vertex 0.106744 -1.69664 -20
      vertex 0.106744 1.69664 -20
      vertex 0.318548 1.66989 -20
    endloop
  endfacet
  facet normal 0 0 -1
    outer loop
      vertex -0.106744 -1.69664 -20
      vertex 0.106744 1.69664 -20
      vertex 0.106744 -1.69664 -20
    endloop
  endfacet
  facet normal 0 0 -1
    outer loop
      vertex -0.106744 -1.69664 -20
      vertex -0.106744 1.69664 -20
      vertex 0.106744 1.69664 -20
    endloop
  endfacet
  facet normal 0 0 -1
    outer loop
      vertex -0.318548 -1.66989 -20
      vertex -0.106744 1.69664 -20
      vertex -0.106744 -1.69664 -20
    endloop
  endfacet
  facet normal 0 0 -1
    outer loop
      vertex -0.318548 -1.66989 -20
      vertex -0.318548 1.66989 -20
      vertex -0.106744 1.69664 -20
    endloop
  endfacet
  facet normal 0 0 -1
    outer loop
      vertex -0.525329 -1.6168 -20
      vertex -0.318548 1.66989 -20
      vertex -0.318548 -1.66989 -20
    endloop
  endfacet
  facet normal 0 0 -1
    outer loop
      vertex -0.525329 -1.6168 -20
      vertex -0.525329 1.6168 -20
      vertex -0.318548 1.66989 -20
    endloop
  endfacet
  facet normal 0 0 -1
    outer loop
      vertex -0.723825 -1.53821 -20
      vertex -0.525329 1.6168 -20
      vertex -0.525329 -1.6168 -20
    endloop
  endfacet
  facet normal 0 0 -1
    outer loop
      vertex -0.723825 -1.53821 -20
      vertex -0.723825 1.53821 -20
      vertex -0.525329 1.6168 -20
    endloop
  endfacet
  facet normal 0 0 -1
    outer loop
      vertex -0.910905 -1.43536 -20
      vertex -0.723825 1.53821 -20
      vertex -0.723825 -1.53821 -20
    endloop
  endfacet
  facet normal 0 0 -1
    outer loop
      vertex -0.910905 -1.43536 -20
      vertex -0.910905 1.43536 -20
      vertex -0.723825 1.53821 -20
    endloop
  endfacet
  facet normal 0 0 -1
    outer loop
      vertex -1.08362 -1.30987 -20
      vertex -0.910905 1.43536 -20
      vertex -0.910905 -1.43536 -20
    endloop
  endfacet
  facet normal 0 0 -1
    outer loop
      vertex -1.08362 -1.30987 -20
      vertex -1.08362 1.30987 -20
      vertex -0.910905 1.43536 -20
    endloop
  endfacet
  facet normal 0 0 -1
    outer loop
      vertex -1.23925 -1.16373 -20
      vertex -1.08362 1.30987 -20
      vertex -1.08362 -1.30987 -20
    endloop
  endfacet
  facet normal 0 0 -1
    outer loop
      vertex -1.23925 -1.16373 -20
      vertex -1.23925 1.16373 -20
      vertex -1.08362 1.30987 -20
    endloop
  endfacet
  facet normal 0 0 -1
    outer loop
      vertex -1.37533 -0.999234 -20
      vertex -1.23925 1.16373 -20
      vertex -1.23925 -1.16373 -20
    endloop
  endfacet
  facet normal 0 0 -1
    outer loop
      vertex -1.37533 -0.999234 -20
      vertex -1.37533 0.999234 -20
      vertex -1.23925 1.16373 -20
    endloop
  endfacet
  facet normal 0 0 -1
    outer loop
      vertex -1.48972 -0.818981 -20
      vertex -1.37533 0.999234 -20
      vertex -1.37533 -0.999234 -20
    endloop
  endfacet
  facet normal 0 0 -1
    outer loop
      vertex -1.48972 -0.818981 -20
      vertex -1.48972 0.818981 -20
      vertex -1.37533 0.999234 -20
    endloop
  endfacet
  facet normal 0 0 -1
    outer loop
      vertex -1.58062 -0.625812 -20
      vertex -1.48972 0.818981 -20
      vertex -1.48972 -0.818981 -20
    endloop
  endfacet
  facet normal 0 0 -1
    outer loop
      vertex -1.58062 -0.625812 -20
      vertex -1.58062 0.625812 -20
      vertex -1.48972 0.818981 -20
    endloop
  endfacet
  facet normal 0 0 -1
    outer loop
      vertex -1.64659 -0.422772 -20
      vertex -1.58062 0.625812 -20
      vertex -1.58062 -0.625812 -20
    endloop
  endfacet
  facet normal 0 0 -1
    outer loop
      vertex -1.64659 -0.422772 -20
      vertex -1.64659 0.422772 -20
      vertex -1.58062 0.625812 -20
    endloop
  endfacet
  facet normal 0 0 -1
    outer loop
      vertex -1.68659 -0.213066 -20
      vertex -1.64659 0.422772 -20
      vertex -1.64659 -0.422772 -20
    endloop
  endfacet
  facet normal 0 0 -1
    outer loop
      vertex -1.68659 -0.213066 -20
      vertex -1.68659 0.213066 -20
      vertex -1.64659 0.422772 -20
    endloop
  endfacet
  facet normal 0 -0 -1
    outer loop
      vertex -1.68659 0.213066 -20
      vertex -1.68659 -0.213066 -20
      vertex -1.7 0 -20
    endloop
  endfacet
  facet normal 0.951059 0.30901 0
    outer loop
      vertex 1.64659 0.422772 0
      vertex 1.58062 0.625812 -20
      vertex 1.58062 0.625812 0
    endloop
  endfacet
  facet normal 0.951059 0.30901 0
    outer loop
      vertex 1.58062 0.625812 -20
      vertex 1.64659 0.422772 0
      vertex 1.64659 0.422772 -20
    endloop
  endfacet
  facet normal 0.98229 0.187365 0
    outer loop
      vertex 1.68659 0.213066 0
      vertex 1.64659 0.422772 -20
      vertex 1.64659 0.422772 0
    endloop
  endfacet
  facet normal 0.98229 0.187365 0
    outer loop
      vertex 1.64659 0.422772 -20
      vertex 1.68659 0.213066 0
      vertex 1.68659 0.213066 -20
    endloop
  endfacet
  facet normal 0.77052 0.637416 0
    outer loop
      vertex 1.37533 0.999234 0
      vertex 1.23925 1.16373 -20
      vertex 1.23925 1.16373 0
    endloop
  endfacet
  facet normal 0.77052 0.637416 0
    outer loop
      vertex 1.23925 1.16373 -20
      vertex 1.37533 0.999234 0
      vertex 1.37533 0.999234 -20
    endloop
  endfacet
  facet normal 0.844332 0.53582 0
    outer loop
      vertex 1.48972 0.818981 0
      vertex 1.37533 0.999234 -20
      vertex 1.37533 0.999234 0
    endloop
  endfacet
  facet normal 0.844332 0.53582 0
    outer loop
      vertex 1.37533 0.999234 -20
      vertex 1.48972 0.818981 0
      vertex 1.48972 0.818981 -20
    endloop
  endfacet
  facet normal 0.24868 0.968586 -0
    outer loop
      vertex 0.525329 1.6168 -20
      vertex 0.318548 1.66989 0
      vertex 0.525329 1.6168 0
    endloop
  endfacet
  facet normal 0.24868 0.968586 0
    outer loop
      vertex 0.318548 1.66989 0
      vertex 0.525329 1.6168 -20
      vertex 0.318548 1.66989 -20
    endloop
  endfacet
  facet normal 0.125301 0.992119 -0
    outer loop
      vertex 0.318548 1.66989 -20
      vertex 0.106744 1.69664 0
      vertex 0.318548 1.66989 0
    endloop
  endfacet
  facet normal 0.125301 0.992119 0
    outer loop
      vertex 0.106744 1.69664 0
      vertex 0.318548 1.66989 -20
      vertex 0.106744 1.69664 -20
    endloop
  endfacet
  facet normal -0.77052 0.637416 0
    outer loop
      vertex -1.37533 0.999234 -20
      vertex -1.23925 1.16373 0
      vertex -1.23925 1.16373 -20
    endloop
  endfacet
  facet normal -0.77052 0.637416 0
    outer loop
      vertex -1.23925 1.16373 0
      vertex -1.37533 0.999234 -20
      vertex -1.37533 0.999234 0
    endloop
  endfacet
  facet normal -0.951059 0.30901 0
    outer loop
      vertex -1.64659 0.422772 -20
      vertex -1.58062 0.625812 0
      vertex -1.58062 0.625812 -20
    endloop
  endfacet
  facet normal -0.951059 0.30901 0
    outer loop
      vertex -1.58062 0.625812 0
      vertex -1.64659 0.422772 -20
      vertex -1.64659 0.422772 0
    endloop
  endfacet
  facet normal -0.98229 0.187365 0
    outer loop
      vertex -1.68659 0.213066 -20
      vertex -1.64659 0.422772 0
      vertex -1.64659 0.422772 -20
    endloop
  endfacet
  facet normal -0.98229 0.187365 0
    outer loop
      vertex -1.64659 0.422772 0
      vertex -1.68659 0.213066 -20
      vertex -1.68659 0.213066 0
    endloop
  endfacet
  facet normal -0.587801 0.809005 0
    outer loop
      vertex -0.910905 1.43536 -20
      vertex -1.08362 1.30987 0
      vertex -0.910905 1.43536 0
    endloop
  endfacet
  facet normal -0.587801 0.809005 0
    outer loop
      vertex -1.08362 1.30987 0
      vertex -0.910905 1.43536 -20
      vertex -1.08362 1.30987 -20
    endloop
  endfacet
  facet normal -0.125301 0.992119 0
    outer loop
      vertex -0.106744 1.69664 -20
      vertex -0.318548 1.66989 0
      vertex -0.106744 1.69664 0
    endloop
  endfacet
  facet normal -0.125301 0.992119 0
    outer loop
      vertex -0.318548 1.66989 0
      vertex -0.106744 1.69664 -20
      vertex -0.318548 1.66989 -20
    endloop
  endfacet
  facet normal -0.368124 -0.929777 0
    outer loop
      vertex -0.723825 -1.53821 -20
      vertex -0.525329 -1.6168 0
      vertex -0.723825 -1.53821 0
    endloop
  endfacet
  facet normal -0.368124 -0.929777 -0
    outer loop
      vertex -0.525329 -1.6168 0
      vertex -0.723825 -1.53821 -20
      vertex -0.525329 -1.6168 -20
    endloop
  endfacet
  facet normal -0.844332 -0.53582 0
    outer loop
      vertex -1.37533 -0.999234 -20
      vertex -1.48972 -0.818981 0
      vertex -1.48972 -0.818981 -20
    endloop
  endfacet
  facet normal -0.844332 -0.53582 0
    outer loop
      vertex -1.48972 -0.818981 0
      vertex -1.37533 -0.999234 -20
      vertex -1.37533 -0.999234 0
    endloop
  endfacet
  facet normal -0.904824 -0.425785 0
    outer loop
      vertex -1.48972 -0.818981 -20
      vertex -1.58062 -0.625812 0
      vertex -1.58062 -0.625812 -20
    endloop
  endfacet
  facet normal -0.904824 -0.425785 0
    outer loop
      vertex -1.58062 -0.625812 0
      vertex -1.48972 -0.818981 -20
      vertex -1.48972 -0.818981 0
    endloop
  endfacet
  facet normal 0.481761 -0.876303 0
    outer loop
      vertex 0.723825 -1.53821 -20
      vertex 0.910905 -1.43536 0
      vertex 0.723825 -1.53821 0
    endloop
  endfacet
  facet normal 0.481761 -0.876303 0
    outer loop
      vertex 0.910905 -1.43536 0
      vertex 0.723825 -1.53821 -20
      vertex 0.910905 -1.43536 -20
    endloop
  endfacet
  facet normal 0.368124 -0.929777 0
    outer loop
      vertex 0.525329 -1.6168 -20
      vertex 0.723825 -1.53821 0
      vertex 0.525329 -1.6168 0
    endloop
  endfacet
  facet normal 0.368124 -0.929777 0
    outer loop
      vertex 0.723825 -1.53821 0
      vertex 0.525329 -1.6168 -20
      vertex 0.723825 -1.53821 -20
    endloop
  endfacet
  facet normal 0.684531 -0.728983 0
    outer loop
      vertex 1.08362 -1.30987 -20
      vertex 1.23925 -1.16373 0
      vertex 1.08362 -1.30987 0
    endloop
  endfacet
  facet normal 0.684531 -0.728983 0
    outer loop
      vertex 1.23925 -1.16373 0
      vertex 1.08362 -1.30987 -20
      vertex 1.23925 -1.16373 -20
    endloop
  endfacet
  facet normal 0.904824 -0.425785 0
    outer loop
      vertex 1.48972 -0.818981 0
      vertex 1.58062 -0.625812 -20
      vertex 1.58062 -0.625812 0
    endloop
  endfacet
  facet normal 0.904824 -0.425785 0
    outer loop
      vertex 1.58062 -0.625812 -20
      vertex 1.48972 -0.818981 0
      vertex 1.48972 -0.818981 -20
    endloop
  endfacet
  facet normal 0.481761 0.876303 -0
    outer loop
      vertex 0.910905 1.43536 -20
      vertex 0.723825 1.53821 0
      vertex 0.910905 1.43536 0
    endloop
  endfacet
  facet normal 0.481761 0.876303 0
    outer loop
      vertex 0.723825 1.53821 0
      vertex 0.910905 1.43536 -20
      vertex 0.723825 1.53821 -20
    endloop
  endfacet
  facet normal -0.998025 -0.062814 0
    outer loop
      vertex -1.68659 -0.213066 -20
      vertex -1.7 0 0
      vertex -1.7 0 -20
    endloop
  endfacet
  facet normal -0.998025 -0.062814 0
    outer loop
      vertex -1.7 0 0
      vertex -1.68659 -0.213066 -20
      vertex -1.68659 -0.213066 0
    endloop
  endfacet
  facet normal -0.98229 -0.187365 0
    outer loop
      vertex -1.64659 -0.422772 -20
      vertex -1.68659 -0.213066 0
      vertex -1.68659 -0.213066 -20
    endloop
  endfacet
  facet normal -0.98229 -0.187365 0
    outer loop
      vertex -1.68659 -0.213066 0
      vertex -1.64659 -0.422772 -20
      vertex -1.64659 -0.422772 0
    endloop
  endfacet
  facet normal -0.951059 -0.30901 0
    outer loop
      vertex -1.58062 -0.625812 -20
      vertex -1.64659 -0.422772 0
      vertex -1.64659 -0.422772 -20
    endloop
  endfacet
  facet normal -0.951059 -0.30901 0
    outer loop
      vertex -1.64659 -0.422772 0
      vertex -1.58062 -0.625812 -20
      vertex -1.58062 -0.625812 0
    endloop
  endfacet
  facet normal 0.24868 -0.968586 0
    outer loop
      vertex 0.318548 -1.66989 -20
      vertex 0.525329 -1.6168 0
      vertex 0.318548 -1.66989 0
    endloop
  endfacet
  facet normal 0.24868 -0.968586 0
    outer loop
      vertex 0.525329 -1.6168 0
      vertex 0.318548 -1.66989 -20
      vertex 0.525329 -1.6168 -20
    endloop
  endfacet
  facet normal 0.125301 -0.992119 0
    outer loop
      vertex 0.106744 -1.69664 -20
      vertex 0.318548 -1.66989 0
      vertex 0.106744 -1.69664 0
    endloop
  endfacet
  facet normal 0.125301 -0.992119 0
    outer loop
      vertex 0.318548 -1.66989 0
      vertex 0.106744 -1.69664 -20
      vertex 0.318548 -1.66989 -20
    endloop
  endfacet
  facet normal 0.587801 -0.809005 0
    outer loop
      vertex 0.910905 -1.43536 -20
      vertex 1.08362 -1.30987 0
      vertex 0.910905 -1.43536 0
    endloop
  endfacet
  facet normal 0.587801 -0.809005 0
    outer loop
      vertex 1.08362 -1.30987 0
      vertex 0.910905 -1.43536 -20
      vertex 1.08362 -1.30987 -20
    endloop
  endfacet
  facet normal 0.951059 -0.30901 0
    outer loop
      vertex 1.58062 -0.625812 0
      vertex 1.64659 -0.422772 -20
      vertex 1.64659 -0.422772 0
    endloop
  endfacet
  facet normal 0.951059 -0.30901 0
    outer loop
      vertex 1.64659 -0.422772 -20
      vertex 1.58062 -0.625812 0
      vertex 1.58062 -0.625812 -20
    endloop
  endfacet
  facet normal 0.98229 -0.187365 0
    outer loop
      vertex 1.64659 -0.422772 0
      vertex 1.68659 -0.213066 -20
      vertex 1.68659 -0.213066 0
    endloop
  endfacet
  facet normal 0.98229 -0.187365 0
    outer loop
      vertex 1.68659 -0.213066 -20
      vertex 1.64659 -0.422772 0
      vertex 1.64659 -0.422772 -20
    endloop
  endfacet
  facet normal 0.998025 -0.062814 0
    outer loop
      vertex 1.68659 -0.213066 0
      vertex 1.7 0 -20
      vertex 1.7 0 0
    endloop
  endfacet
  facet normal 0.998025 -0.062814 0
    outer loop
      vertex 1.7 0 -20
      vertex 1.68659 -0.213066 0
      vertex 1.68659 -0.213066 -20
    endloop
  endfacet
  facet normal -0.481761 -0.876303 0
    outer loop
      vertex -0.910905 -1.43536 -20
      vertex -0.723825 -1.53821 0
      vertex -0.910905 -1.43536 0
    endloop
  endfacet
  facet normal -0.481761 -0.876303 -0
    outer loop
      vertex -0.723825 -1.53821 0
      vertex -0.910905 -1.43536 -20
      vertex -0.723825 -1.53821 -20
    endloop
  endfacet
  facet normal -0.24868 -0.968586 0
    outer loop
      vertex -0.525329 -1.6168 -20
      vertex -0.318548 -1.66989 0
      vertex -0.525329 -1.6168 0
    endloop
  endfacet
  facet normal -0.24868 -0.968586 -0
    outer loop
      vertex -0.318548 -1.66989 0
      vertex -0.525329 -1.6168 -20
      vertex -0.318548 -1.66989 -20
    endloop
  endfacet
  facet normal -0.77052 -0.637416 0
    outer loop
      vertex -1.23925 -1.16373 -20
      vertex -1.37533 -0.999234 0
      vertex -1.37533 -0.999234 -20
    endloop
  endfacet
  facet normal -0.77052 -0.637416 0
    outer loop
      vertex -1.37533 -0.999234 0
      vertex -1.23925 -1.16373 -20
      vertex -1.23925 -1.16373 0
    endloop
  endfacet
  facet normal 0.844332 -0.53582 0
    outer loop
      vertex 1.37533 -0.999234 0
      vertex 1.48972 -0.818981 -20
      vertex 1.48972 -0.818981 0
    endloop
  endfacet
  facet normal 0.844332 -0.53582 0
    outer loop
      vertex 1.48972 -0.818981 -20
      vertex 1.37533 -0.999234 0
      vertex 1.37533 -0.999234 -20
    endloop
  endfacet
  facet normal 0.77052 -0.637416 0
    outer loop
      vertex 1.23925 -1.16373 0
      vertex 1.37533 -0.999234 -20
      vertex 1.37533 -0.999234 0
    endloop
  endfacet
  facet normal 0.77052 -0.637416 0
    outer loop
      vertex 1.37533 -0.999234 -20
      vertex 1.23925 -1.16373 0
      vertex 1.23925 -1.16373 -20
    endloop
  endfacet
  facet normal -0.684531 -0.728983 0
    outer loop
      vertex -1.23925 -1.16373 -20
      vertex -1.08362 -1.30987 0
      vertex -1.23925 -1.16373 0
    endloop
  endfacet
  facet normal -0.684531 -0.728983 -0
    outer loop
      vertex -1.08362 -1.30987 0
      vertex -1.23925 -1.16373 -20
      vertex -1.08362 -1.30987 -20
    endloop
  endfacet
  facet normal -0.587801 -0.809005 0
    outer loop
      vertex -1.08362 -1.30987 -20
      vertex -0.910905 -1.43536 0
      vertex -1.08362 -1.30987 0
    endloop
  endfacet
  facet normal -0.587801 -0.809005 -0
    outer loop
      vertex -0.910905 -1.43536 0
      vertex -1.08362 -1.30987 -20
      vertex -0.910905 -1.43536 -20
    endloop
  endfacet
  facet normal -0.125301 -0.992119 0
    outer loop
      vertex -0.318548 -1.66989 -20
      vertex -0.106744 -1.69664 0
      vertex -0.318548 -1.66989 0
    endloop
  endfacet
  facet normal -0.125301 -0.992119 -0
    outer loop
      vertex -0.106744 -1.69664 0
      vertex -0.318548 -1.66989 -20
      vertex -0.106744 -1.69664 -20
    endloop
  endfacet
endsolid OpenSCAD_Model
