<?xml version="1.0" standalone="no"?>
<!DOCTYPE svg PUBLIC "-//W3C//DTD SVG 1.1//EN" "http://www.w3.org/Graphics/SVG/1.1/DTD/svg11.dtd">
<svg width="22mm" height="130mm" viewBox="-11 -227 22 130" xmlns="http://www.w3.org/2000/svg" version="1.1">
<title>OpenSCAD Model</title>
<path d="
M 8.96844,-205.044 L 9.27254,-205.122 L 9.56444,-205.238 L 9.83955,-205.389 L 10.0936,-205.574 L 10.3224,-205.789
 L 10.5225,-206.031 L 10.6908,-206.296 L 10.8244,-206.58 L 10.9214,-206.878 L 10.9803,-207.187 L 11,-207.5
 L 11,-224.5 L 10.9803,-224.813 L 10.9214,-225.122 L 10.8244,-225.42 L 10.6908,-225.704 L 10.5225,-225.969
 L 10.3224,-226.211 L 10.0936,-226.426 L 9.83955,-226.611 L 9.56444,-226.762 L 9.27254,-226.878 L 8.96844,-226.956
 L 8.65697,-226.995 L -8.65697,-226.995 L -8.96844,-226.956 L -9.27254,-226.878 L -9.56444,-226.762 L -9.83955,-226.611
 L -10.0936,-226.426 L -10.3224,-226.211 L -10.5225,-225.969 L -10.6908,-225.704 L -10.8244,-225.42 L -10.9214,-225.122
 L -10.9803,-224.813 L -11,-224.5 L -11,-207.5 L -10.9803,-207.187 L -10.9214,-206.878 L -10.8244,-206.58
 L -10.6908,-206.296 L -10.5225,-206.031 L -10.3224,-205.789 L -10.0936,-205.574 L -9.83955,-205.389 L -9.56444,-205.238
 L -9.27254,-205.122 L -8.96844,-205.044 L -8.65697,-205.005 L 8.65697,-205.005 z
M 7.40581,-222.003 L 7.21892,-222.027 L 7.03647,-222.073 L 6.86133,-222.143 L 6.69626,-222.234 L 6.54385,-222.344
 L 6.40654,-222.473 L 6.28647,-222.618 L 6.18553,-222.777 L 6.10533,-222.948 L 6.04712,-223.127 L 6.01183,-223.312
 L 6,-223.5 L 6.01183,-223.688 L 6.04712,-223.873 L 6.10533,-224.052 L 6.18553,-224.223 L 6.28647,-224.382
 L 6.40654,-224.527 L 6.54385,-224.656 L 6.69626,-224.766 L 6.86133,-224.857 L 7.03647,-224.927 L 7.21892,-224.973
 L 7.40581,-224.997 L 7.59418,-224.997 L 7.78107,-224.973 L 7.96352,-224.927 L 8.13866,-224.857 L 8.30373,-224.766
 L 8.45613,-224.656 L 8.59344,-224.527 L 8.71352,-224.382 L 8.81445,-224.223 L 8.89465,-224.052 L 8.95287,-223.873
 L 8.98816,-223.688 L 9,-223.5 L 8.98816,-223.312 L 8.95287,-223.127 L 8.89465,-222.948 L 8.81445,-222.777
 L 8.71352,-222.618 L 8.59344,-222.473 L 8.45613,-222.344 L 8.30373,-222.234 L 8.13866,-222.143 L 7.96352,-222.073
 L 7.78107,-222.027 L 7.59418,-222.003 z
M -0.0941772,-222.003 L -0.281067,-222.027 L -0.463516,-222.073 L -0.638657,-222.143 L -0.803726,-222.234 L -0.956131,-222.344
 L -1.09344,-222.473 L -1.21352,-222.618 L -1.31445,-222.777 L -1.39465,-222.948 L -1.45287,-223.127 L -1.48816,-223.312
 L -1.5,-223.5 L -1.48816,-223.688 L -1.45287,-223.873 L -1.39465,-224.052 L -1.31445,-224.223 L -1.21352,-224.382
 L -1.09344,-224.527 L -0.956131,-224.656 L -0.803726,-224.766 L -0.638657,-224.857 L -0.463516,-224.927 L -0.281067,-224.973
 L -0.0941772,-224.997 L 0.0941772,-224.997 L 0.281067,-224.973 L 0.463516,-224.927 L 0.638657,-224.857 L 0.803726,-224.766
 L 0.956131,-224.656 L 1.09344,-224.527 L 1.21352,-224.382 L 1.31445,-224.223 L 1.39465,-224.052 L 1.45287,-223.873
 L 1.48816,-223.688 L 1.5,-223.5 L 1.48816,-223.312 L 1.45287,-223.127 L 1.39465,-222.948 L 1.31445,-222.777
 L 1.21352,-222.618 L 1.09344,-222.473 L 0.956131,-222.344 L 0.803726,-222.234 L 0.638657,-222.143 L 0.463516,-222.073
 L 0.281067,-222.027 L 0.0941772,-222.003 z
M -7.59418,-222.003 L -7.78107,-222.027 L -7.96352,-222.073 L -8.13866,-222.143 L -8.30373,-222.234 L -8.45613,-222.344
 L -8.59344,-222.473 L -8.71352,-222.618 L -8.81445,-222.777 L -8.89465,-222.948 L -8.95287,-223.127 L -8.98816,-223.312
 L -9,-223.5 L -8.98816,-223.688 L -8.95287,-223.873 L -8.89465,-224.052 L -8.81445,-224.223 L -8.71352,-224.382
 L -8.59344,-224.527 L -8.45613,-224.656 L -8.30373,-224.766 L -8.13866,-224.857 L -7.96352,-224.927 L -7.78107,-224.973
 L -7.59418,-224.997 L -7.40581,-224.997 L -7.21892,-224.973 L -7.03647,-224.927 L -6.86133,-224.857 L -6.69626,-224.766
 L -6.54385,-224.656 L -6.40654,-224.527 L -6.28647,-224.382 L -6.18553,-224.223 L -6.10533,-224.052 L -6.04712,-223.873
 L -6.01183,-223.688 L -6,-223.5 L -6.01183,-223.312 L -6.04712,-223.127 L -6.10533,-222.948 L -6.18553,-222.777
 L -6.28647,-222.618 L -6.40654,-222.473 L -6.54385,-222.344 L -6.69626,-222.234 L -6.86133,-222.143 L -7.03647,-222.073
 L -7.21892,-222.027 L -7.40581,-222.003 z
M -0.0941772,-214.503 L -0.281067,-214.527 L -0.463516,-214.573 L -0.638657,-214.643 L -0.803726,-214.734 L -0.956131,-214.844
 L -1.09344,-214.973 L -1.21352,-215.118 L -1.31445,-215.277 L -1.39465,-215.448 L -1.45287,-215.627 L -1.48816,-215.812
 L -1.5,-216 L -1.48816,-216.188 L -1.45287,-216.373 L -1.39465,-216.552 L -1.31445,-216.723 L -1.21352,-216.882
 L -1.09344,-217.027 L -0.956131,-217.156 L -0.803726,-217.266 L -0.638657,-217.357 L -0.463516,-217.427 L -0.281067,-217.473
 L -0.0941772,-217.497 L 0.0941772,-217.497 L 0.281067,-217.473 L 0.463516,-217.427 L 0.638657,-217.357 L 0.803726,-217.266
 L 0.956131,-217.156 L 1.09344,-217.027 L 1.21352,-216.882 L 1.31445,-216.723 L 1.39465,-216.552 L 1.45287,-216.373
 L 1.48816,-216.188 L 1.5,-216 L 1.48816,-215.812 L 1.45287,-215.627 L 1.39465,-215.448 L 1.31445,-215.277
 L 1.21352,-215.118 L 1.09344,-214.973 L 0.956131,-214.844 L 0.803726,-214.734 L 0.638657,-214.643 L 0.463516,-214.573
 L 0.281067,-214.527 L 0.0941772,-214.503 z
M -7.59418,-214.503 L -7.78107,-214.527 L -7.96352,-214.573 L -8.13866,-214.643 L -8.30373,-214.734 L -8.45613,-214.844
 L -8.59344,-214.973 L -8.71352,-215.118 L -8.81445,-215.277 L -8.89465,-215.448 L -8.95287,-215.627 L -8.98816,-215.812
 L -9,-216 L -8.98816,-216.188 L -8.95287,-216.373 L -8.89465,-216.552 L -8.81445,-216.723 L -8.71352,-216.882
 L -8.59344,-217.027 L -8.45613,-217.156 L -8.30373,-217.266 L -8.13866,-217.357 L -7.96352,-217.427 L -7.78107,-217.473
 L -7.59418,-217.497 L -7.40581,-217.497 L -7.21892,-217.473 L -7.03647,-217.427 L -6.86133,-217.357 L -6.69626,-217.266
 L -6.54385,-217.156 L -6.40654,-217.027 L -6.28647,-216.882 L -6.18553,-216.723 L -6.10533,-216.552 L -6.04712,-216.373
 L -6.01183,-216.188 L -6,-216 L -6.01183,-215.812 L -6.04712,-215.627 L -6.10533,-215.448 L -6.18553,-215.277
 L -6.28647,-215.118 L -6.40654,-214.973 L -6.54385,-214.844 L -6.69626,-214.734 L -6.86133,-214.643 L -7.03647,-214.573
 L -7.21892,-214.527 L -7.40581,-214.503 z
M 7.40581,-214.503 L 7.21892,-214.527 L 7.03647,-214.573 L 6.86133,-214.643 L 6.69626,-214.734 L 6.54385,-214.844
 L 6.40654,-214.973 L 6.28647,-215.118 L 6.18553,-215.277 L 6.10533,-215.448 L 6.04712,-215.627 L 6.01183,-215.812
 L 6,-216 L 6.01183,-216.188 L 6.04712,-216.373 L 6.10533,-216.552 L 6.18553,-216.723 L 6.28647,-216.882
 L 6.40654,-217.027 L 6.54385,-217.156 L 6.69626,-217.266 L 6.86133,-217.357 L 7.03647,-217.427 L 7.21892,-217.473
 L 7.40581,-217.497 L 7.59418,-217.497 L 7.78107,-217.473 L 7.96352,-217.427 L 8.13866,-217.357 L 8.30373,-217.266
 L 8.45613,-217.156 L 8.59344,-217.027 L 8.71352,-216.882 L 8.81445,-216.723 L 8.89465,-216.552 L 8.95287,-216.373
 L 8.98816,-216.188 L 9,-216 L 8.98816,-215.812 L 8.95287,-215.627 L 8.89465,-215.448 L 8.81445,-215.277
 L 8.71352,-215.118 L 8.59344,-214.973 L 8.45613,-214.844 L 8.30373,-214.734 L 8.13866,-214.643 L 7.96352,-214.573
 L 7.78107,-214.527 L 7.59418,-214.503 z
M -7.59418,-207.003 L -7.78107,-207.027 L -7.96352,-207.073 L -8.13866,-207.143 L -8.30373,-207.234 L -8.45613,-207.344
 L -8.59344,-207.473 L -8.71352,-207.618 L -8.81445,-207.777 L -8.89465,-207.948 L -8.95287,-208.127 L -8.98816,-208.312
 L -9,-208.5 L -8.98816,-208.688 L -8.95287,-208.873 L -8.89465,-209.052 L -8.81445,-209.223 L -8.71352,-209.382
 L -8.59344,-209.527 L -8.45613,-209.656 L -8.30373,-209.766 L -8.13866,-209.857 L -7.96352,-209.927 L -7.78107,-209.973
 L -7.59418,-209.997 L -7.40581,-209.997 L -7.21892,-209.973 L -7.03647,-209.927 L -6.86133,-209.857 L -6.69626,-209.766
 L -6.54385,-209.656 L -6.40654,-209.527 L -6.28647,-209.382 L -6.18553,-209.223 L -6.10533,-209.052 L -6.04712,-208.873
 L -6.01183,-208.688 L -6,-208.5 L -6.01183,-208.312 L -6.04712,-208.127 L -6.10533,-207.948 L -6.18553,-207.777
 L -6.28647,-207.618 L -6.40654,-207.473 L -6.54385,-207.344 L -6.69626,-207.234 L -6.86133,-207.143 L -7.03647,-207.073
 L -7.21892,-207.027 L -7.40581,-207.003 z
M -0.0941772,-207.003 L -0.281067,-207.027 L -0.463516,-207.073 L -0.638657,-207.143 L -0.803726,-207.234 L -0.956131,-207.344
 L -1.09344,-207.473 L -1.21352,-207.618 L -1.31445,-207.777 L -1.39465,-207.948 L -1.45287,-208.127 L -1.48816,-208.312
 L -1.5,-208.5 L -1.48816,-208.688 L -1.45287,-208.873 L -1.39465,-209.052 L -1.31445,-209.223 L -1.21352,-209.382
 L -1.09344,-209.527 L -0.956131,-209.656 L -0.803726,-209.766 L -0.638657,-209.857 L -0.463516,-209.927 L -0.281067,-209.973
 L -0.0941772,-209.997 L 0.0941772,-209.997 L 0.281067,-209.973 L 0.463516,-209.927 L 0.638657,-209.857 L 0.803726,-209.766
 L 0.956131,-209.656 L 1.09344,-209.527 L 1.21352,-209.382 L 1.31445,-209.223 L 1.39465,-209.052 L 1.45287,-208.873
 L 1.48816,-208.688 L 1.5,-208.5 L 1.48816,-208.312 L 1.45287,-208.127 L 1.39465,-207.948 L 1.31445,-207.777
 L 1.21352,-207.618 L 1.09344,-207.473 L 0.956131,-207.344 L 0.803726,-207.234 L 0.638657,-207.143 L 0.463516,-207.073
 L 0.281067,-207.027 L 0.0941772,-207.003 z
M 7.40581,-207.003 L 7.21892,-207.027 L 7.03647,-207.073 L 6.86133,-207.143 L 6.69626,-207.234 L 6.54385,-207.344
 L 6.40654,-207.473 L 6.28647,-207.618 L 6.18553,-207.777 L 6.10533,-207.948 L 6.04712,-208.127 L 6.01183,-208.312
 L 6,-208.5 L 6.01183,-208.688 L 6.04712,-208.873 L 6.10533,-209.052 L 6.18553,-209.223 L 6.28647,-209.382
 L 6.40654,-209.527 L 6.54385,-209.656 L 6.69626,-209.766 L 6.86133,-209.857 L 7.03647,-209.927 L 7.21892,-209.973
 L 7.40581,-209.997 L 7.59418,-209.997 L 7.78107,-209.973 L 7.96352,-209.927 L 8.13866,-209.857 L 8.30373,-209.766
 L 8.45613,-209.656 L 8.59344,-209.527 L 8.71352,-209.382 L 8.81445,-209.223 L 8.89465,-209.052 L 8.95287,-208.873
 L 8.98816,-208.688 L 9,-208.5 L 8.98816,-208.312 L 8.95287,-208.127 L 8.89465,-207.948 L 8.81445,-207.777
 L 8.71352,-207.618 L 8.59344,-207.473 L 8.45613,-207.344 L 8.30373,-207.234 L 8.13866,-207.143 L 7.96352,-207.073
 L 7.78107,-207.027 L 7.59418,-207.003 z
M 8.96844,-151.044 L 9.27254,-151.122 L 9.56444,-151.238 L 9.83955,-151.389 L 10.0936,-151.574 L 10.3224,-151.789
 L 10.5225,-152.031 L 10.6908,-152.296 L 10.8244,-152.58 L 10.9214,-152.878 L 10.9803,-153.187 L 11,-153.5
 L 11,-170.5 L 10.9803,-170.813 L 10.9214,-171.122 L 10.8244,-171.42 L 10.6908,-171.704 L 10.5225,-171.969
 L 10.3224,-172.211 L 10.0936,-172.426 L 9.83955,-172.611 L 9.56444,-172.762 L 9.27254,-172.878 L 8.96844,-172.956
 L 8.65697,-172.995 L -8.65697,-172.995 L -8.96844,-172.956 L -9.27254,-172.878 L -9.56444,-172.762 L -9.83955,-172.611
 L -10.0936,-172.426 L -10.3224,-172.211 L -10.5225,-171.969 L -10.6908,-171.704 L -10.8244,-171.42 L -10.9214,-171.122
 L -10.9803,-170.813 L -11,-170.5 L -11,-153.5 L -10.9803,-153.187 L -10.9214,-152.878 L -10.8244,-152.58
 L -10.6908,-152.296 L -10.5225,-152.031 L -10.3224,-151.789 L -10.0936,-151.574 L -9.83955,-151.389 L -9.56444,-151.238
 L -9.27254,-151.122 L -8.96844,-151.044 L -8.65697,-151.005 L 8.65697,-151.005 z
M -7.59418,-168.003 L -7.78107,-168.027 L -7.96352,-168.073 L -8.13866,-168.143 L -8.30373,-168.234 L -8.45613,-168.344
 L -8.59344,-168.473 L -8.71352,-168.618 L -8.81445,-168.777 L -8.89465,-168.948 L -8.95287,-169.127 L -8.98816,-169.312
 L -9,-169.5 L -8.98816,-169.688 L -8.95287,-169.873 L -8.89465,-170.052 L -8.81445,-170.223 L -8.71352,-170.382
 L -8.59344,-170.527 L -8.45613,-170.656 L -8.30373,-170.766 L -8.13866,-170.857 L -7.96352,-170.927 L -7.78107,-170.973
 L -7.59418,-170.997 L -7.40581,-170.997 L -7.21892,-170.973 L -7.03647,-170.927 L -6.86133,-170.857 L -6.69626,-170.766
 L -6.54385,-170.656 L -6.40654,-170.527 L -6.28647,-170.382 L -6.18553,-170.223 L -6.10533,-170.052 L -6.04712,-169.873
 L -6.01183,-169.688 L -6,-169.5 L -6.01183,-169.312 L -6.04712,-169.127 L -6.10533,-168.948 L -6.18553,-168.777
 L -6.28647,-168.618 L -6.40654,-168.473 L -6.54385,-168.344 L -6.69626,-168.234 L -6.86133,-168.143 L -7.03647,-168.073
 L -7.21892,-168.027 L -7.40581,-168.003 z
M -0.0941772,-168.003 L -0.281067,-168.027 L -0.463516,-168.073 L -0.638657,-168.143 L -0.803726,-168.234 L -0.956131,-168.344
 L -1.09344,-168.473 L -1.21352,-168.618 L -1.31445,-168.777 L -1.39465,-168.948 L -1.45287,-169.127 L -1.48816,-169.312
 L -1.5,-169.5 L -1.48816,-169.688 L -1.45287,-169.873 L -1.39465,-170.052 L -1.31445,-170.223 L -1.21352,-170.382
 L -1.09344,-170.527 L -0.956131,-170.656 L -0.803726,-170.766 L -0.638657,-170.857 L -0.463516,-170.927 L -0.281067,-170.973
 L -0.0941772,-170.997 L 0.0941772,-170.997 L 0.281067,-170.973 L 0.463516,-170.927 L 0.638657,-170.857 L 0.803726,-170.766
 L 0.956131,-170.656 L 1.09344,-170.527 L 1.21352,-170.382 L 1.31445,-170.223 L 1.39465,-170.052 L 1.45287,-169.873
 L 1.48816,-169.688 L 1.5,-169.5 L 1.48816,-169.312 L 1.45287,-169.127 L 1.39465,-168.948 L 1.31445,-168.777
 L 1.21352,-168.618 L 1.09344,-168.473 L 0.956131,-168.344 L 0.803726,-168.234 L 0.638657,-168.143 L 0.463516,-168.073
 L 0.281067,-168.027 L 0.0941772,-168.003 z
M 7.40581,-168.003 L 7.21892,-168.027 L 7.03647,-168.073 L 6.86133,-168.143 L 6.69626,-168.234 L 6.54385,-168.344
 L 6.40654,-168.473 L 6.28647,-168.618 L 6.18553,-168.777 L 6.10533,-168.948 L 6.04712,-169.127 L 6.01183,-169.312
 L 6,-169.5 L 6.01183,-169.688 L 6.04712,-169.873 L 6.10533,-170.052 L 6.18553,-170.223 L 6.28647,-170.382
 L 6.40654,-170.527 L 6.54385,-170.656 L 6.69626,-170.766 L 6.86133,-170.857 L 7.03647,-170.927 L 7.21892,-170.973
 L 7.40581,-170.997 L 7.59418,-170.997 L 7.78107,-170.973 L 7.96352,-170.927 L 8.13866,-170.857 L 8.30373,-170.766
 L 8.45613,-170.656 L 8.59344,-170.527 L 8.71352,-170.382 L 8.81445,-170.223 L 8.89465,-170.052 L 8.95287,-169.873
 L 8.98816,-169.688 L 9,-169.5 L 8.98816,-169.312 L 8.95287,-169.127 L 8.89465,-168.948 L 8.81445,-168.777
 L 8.71352,-168.618 L 8.59344,-168.473 L 8.45613,-168.344 L 8.30373,-168.234 L 8.13866,-168.143 L 7.96352,-168.073
 L 7.78107,-168.027 L 7.59418,-168.003 z
M -7.59418,-160.503 L -7.78107,-160.527 L -7.96352,-160.573 L -8.13866,-160.643 L -8.30373,-160.734 L -8.45613,-160.844
 L -8.59344,-160.973 L -8.71352,-161.118 L -8.81445,-161.277 L -8.89465,-161.448 L -8.95287,-161.627 L -8.98816,-161.812
 L -9,-162 L -8.98816,-162.188 L -8.95287,-162.373 L -8.89465,-162.552 L -8.81445,-162.723 L -8.71352,-162.882
 L -8.59344,-163.027 L -8.45613,-163.156 L -8.30373,-163.266 L -8.13866,-163.357 L -7.96352,-163.427 L -7.78107,-163.473
 L -7.59418,-163.497 L -7.40581,-163.497 L -7.21892,-163.473 L -7.03647,-163.427 L -6.86133,-163.357 L -6.69626,-163.266
 L -6.54385,-163.156 L -6.40654,-163.027 L -6.28647,-162.882 L -6.18553,-162.723 L -6.10533,-162.552 L -6.04712,-162.373
 L -6.01183,-162.188 L -6,-162 L -6.01183,-161.812 L -6.04712,-161.627 L -6.10533,-161.448 L -6.18553,-161.277
 L -6.28647,-161.118 L -6.40654,-160.973 L -6.54385,-160.844 L -6.69626,-160.734 L -6.86133,-160.643 L -7.03647,-160.573
 L -7.21892,-160.527 L -7.40581,-160.503 z
M -0.0941772,-160.503 L -0.281067,-160.527 L -0.463516,-160.573 L -0.638657,-160.643 L -0.803726,-160.734 L -0.956131,-160.844
 L -1.09344,-160.973 L -1.21352,-161.118 L -1.31445,-161.277 L -1.39465,-161.448 L -1.45287,-161.627 L -1.48816,-161.812
 L -1.5,-162 L -1.48816,-162.188 L -1.45287,-162.373 L -1.39465,-162.552 L -1.31445,-162.723 L -1.21352,-162.882
 L -1.09344,-163.027 L -0.956131,-163.156 L -0.803726,-163.266 L -0.638657,-163.357 L -0.463516,-163.427 L -0.281067,-163.473
 L -0.0941772,-163.497 L 0.0941772,-163.497 L 0.281067,-163.473 L 0.463516,-163.427 L 0.638657,-163.357 L 0.803726,-163.266
 L 0.956131,-163.156 L 1.09344,-163.027 L 1.21352,-162.882 L 1.31445,-162.723 L 1.39465,-162.552 L 1.45287,-162.373
 L 1.48816,-162.188 L 1.5,-162 L 1.48816,-161.812 L 1.45287,-161.627 L 1.39465,-161.448 L 1.31445,-161.277
 L 1.21352,-161.118 L 1.09344,-160.973 L 0.956131,-160.844 L 0.803726,-160.734 L 0.638657,-160.643 L 0.463516,-160.573
 L 0.281067,-160.527 L 0.0941772,-160.503 z
M 7.40581,-160.503 L 7.21892,-160.527 L 7.03647,-160.573 L 6.86133,-160.643 L 6.69626,-160.734 L 6.54385,-160.844
 L 6.40654,-160.973 L 6.28647,-161.118 L 6.18553,-161.277 L 6.10533,-161.448 L 6.04712,-161.627 L 6.01183,-161.812
 L 6,-162 L 6.01183,-162.188 L 6.04712,-162.373 L 6.10533,-162.552 L 6.18553,-162.723 L 6.28647,-162.882
 L 6.40654,-163.027 L 6.54385,-163.156 L 6.69626,-163.266 L 6.86133,-163.357 L 7.03647,-163.427 L 7.21892,-163.473
 L 7.40581,-163.497 L 7.59418,-163.497 L 7.78107,-163.473 L 7.96352,-163.427 L 8.13866,-163.357 L 8.30373,-163.266
 L 8.45613,-163.156 L 8.59344,-163.027 L 8.71352,-162.882 L 8.81445,-162.723 L 8.89465,-162.552 L 8.95287,-162.373
 L 8.98816,-162.188 L 9,-162 L 8.98816,-161.812 L 8.95287,-161.627 L 8.89465,-161.448 L 8.81445,-161.277
 L 8.71352,-161.118 L 8.59344,-160.973 L 8.45613,-160.844 L 8.30373,-160.734 L 8.13866,-160.643 L 7.96352,-160.573
 L 7.78107,-160.527 L 7.59418,-160.503 z
M 7.40581,-153.003 L 7.21892,-153.027 L 7.03647,-153.073 L 6.86133,-153.143 L 6.69626,-153.234 L 6.54385,-153.344
 L 6.40654,-153.473 L 6.28647,-153.618 L 6.18553,-153.777 L 6.10533,-153.948 L 6.04712,-154.127 L 6.01183,-154.312
 L 6,-154.5 L 6.01183,-154.688 L 6.04712,-154.873 L 6.10533,-155.052 L 6.18553,-155.223 L 6.28647,-155.382
 L 6.40654,-155.527 L 6.54385,-155.656 L 6.69626,-155.766 L 6.86133,-155.857 L 7.03647,-155.927 L 7.21892,-155.973
 L 7.40581,-155.997 L 7.59418,-155.997 L 7.78107,-155.973 L 7.96352,-155.927 L 8.13866,-155.857 L 8.30373,-155.766
 L 8.45613,-155.656 L 8.59344,-155.527 L 8.71352,-155.382 L 8.81445,-155.223 L 8.89465,-155.052 L 8.95287,-154.873
 L 8.98816,-154.688 L 9,-154.5 L 8.98816,-154.312 L 8.95287,-154.127 L 8.89465,-153.948 L 8.81445,-153.777
 L 8.71352,-153.618 L 8.59344,-153.473 L 8.45613,-153.344 L 8.30373,-153.234 L 8.13866,-153.143 L 7.96352,-153.073
 L 7.78107,-153.027 L 7.59418,-153.003 z
M -0.0941772,-153.003 L -0.281067,-153.027 L -0.463516,-153.073 L -0.638657,-153.143 L -0.803726,-153.234 L -0.956131,-153.344
 L -1.09344,-153.473 L -1.21352,-153.618 L -1.31445,-153.777 L -1.39465,-153.948 L -1.45287,-154.127 L -1.48816,-154.312
 L -1.5,-154.5 L -1.48816,-154.688 L -1.45287,-154.873 L -1.39465,-155.052 L -1.31445,-155.223 L -1.21352,-155.382
 L -1.09344,-155.527 L -0.956131,-155.656 L -0.803726,-155.766 L -0.638657,-155.857 L -0.463516,-155.927 L -0.281067,-155.973
 L -0.0941772,-155.997 L 0.0941772,-155.997 L 0.281067,-155.973 L 0.463516,-155.927 L 0.638657,-155.857 L 0.803726,-155.766
 L 0.956131,-155.656 L 1.09344,-155.527 L 1.21352,-155.382 L 1.31445,-155.223 L 1.39465,-155.052 L 1.45287,-154.873
 L 1.48816,-154.688 L 1.5,-154.5 L 1.48816,-154.312 L 1.45287,-154.127 L 1.39465,-153.948 L 1.31445,-153.777
 L 1.21352,-153.618 L 1.09344,-153.473 L 0.956131,-153.344 L 0.803726,-153.234 L 0.638657,-153.143 L 0.463516,-153.073
 L 0.281067,-153.027 L 0.0941772,-153.003 z
M -7.59418,-153.003 L -7.78107,-153.027 L -7.96352,-153.073 L -8.13866,-153.143 L -8.30373,-153.234 L -8.45613,-153.344
 L -8.59344,-153.473 L -8.71352,-153.618 L -8.81445,-153.777 L -8.89465,-153.948 L -8.95287,-154.127 L -8.98816,-154.312
 L -9,-154.5 L -8.98816,-154.688 L -8.95287,-154.873 L -8.89465,-155.052 L -8.81445,-155.223 L -8.71352,-155.382
 L -8.59344,-155.527 L -8.45613,-155.656 L -8.30373,-155.766 L -8.13866,-155.857 L -7.96352,-155.927 L -7.78107,-155.973
 L -7.59418,-155.997 L -7.40581,-155.997 L -7.21892,-155.973 L -7.03647,-155.927 L -6.86133,-155.857 L -6.69626,-155.766
 L -6.54385,-155.656 L -6.40654,-155.527 L -6.28647,-155.382 L -6.18553,-155.223 L -6.10533,-155.052 L -6.04712,-154.873
 L -6.01183,-154.688 L -6,-154.5 L -6.01183,-154.312 L -6.04712,-154.127 L -6.10533,-153.948 L -6.18553,-153.777
 L -6.28647,-153.618 L -6.40654,-153.473 L -6.54385,-153.344 L -6.69626,-153.234 L -6.86133,-153.143 L -7.03647,-153.073
 L -7.21892,-153.027 L -7.40581,-153.003 z
M 8.96844,-97.0443 L 9.27254,-97.1224 L 9.56444,-97.2379 L 9.83955,-97.3892 L 10.0936,-97.5737 L 10.3224,-97.7886
 L 10.5225,-98.0305 L 10.6908,-98.2956 L 10.8244,-98.5797 L 10.9214,-98.8783 L 10.9803,-99.1867 L 11,-99.5
 L 11,-116.5 L 10.9803,-116.813 L 10.9214,-117.122 L 10.8244,-117.42 L 10.6908,-117.704 L 10.5225,-117.969
 L 10.3224,-118.211 L 10.0936,-118.426 L 9.83955,-118.611 L 9.56444,-118.762 L 9.27254,-118.878 L 8.96844,-118.956
 L 8.65697,-118.995 L -8.65697,-118.995 L -8.96844,-118.956 L -9.27254,-118.878 L -9.56444,-118.762 L -9.83955,-118.611
 L -10.0936,-118.426 L -10.3224,-118.211 L -10.5225,-117.969 L -10.6908,-117.704 L -10.8244,-117.42 L -10.9214,-117.122
 L -10.9803,-116.813 L -11,-116.5 L -11,-99.5 L -10.9803,-99.1867 L -10.9214,-98.8783 L -10.8244,-98.5797
 L -10.6908,-98.2956 L -10.5225,-98.0305 L -10.3224,-97.7886 L -10.0936,-97.5737 L -9.83955,-97.3892 L -9.56444,-97.2379
 L -9.27254,-97.1224 L -8.96844,-97.0443 L -8.65697,-97.0049 L 8.65697,-97.0049 z
M -7.59418,-114.003 L -7.78107,-114.027 L -7.96352,-114.073 L -8.13866,-114.143 L -8.30373,-114.234 L -8.45613,-114.344
 L -8.59344,-114.473 L -8.71352,-114.618 L -8.81445,-114.777 L -8.89465,-114.948 L -8.95287,-115.127 L -8.98816,-115.312
 L -9,-115.5 L -8.98816,-115.688 L -8.95287,-115.873 L -8.89465,-116.052 L -8.81445,-116.223 L -8.71352,-116.382
 L -8.59344,-116.527 L -8.45613,-116.656 L -8.30373,-116.766 L -8.13866,-116.857 L -7.96352,-116.927 L -7.78107,-116.973
 L -7.59418,-116.997 L -7.40581,-116.997 L -7.21892,-116.973 L -7.03647,-116.927 L -6.86133,-116.857 L -6.69626,-116.766
 L -6.54385,-116.656 L -6.40654,-116.527 L -6.28647,-116.382 L -6.18553,-116.223 L -6.10533,-116.052 L -6.04712,-115.873
 L -6.01183,-115.688 L -6,-115.5 L -6.01183,-115.312 L -6.04712,-115.127 L -6.10533,-114.948 L -6.18553,-114.777
 L -6.28647,-114.618 L -6.40654,-114.473 L -6.54385,-114.344 L -6.69626,-114.234 L -6.86133,-114.143 L -7.03647,-114.073
 L -7.21892,-114.027 L -7.40581,-114.003 z
M -0.0941772,-114.003 L -0.281067,-114.027 L -0.463516,-114.073 L -0.638657,-114.143 L -0.803726,-114.234 L -0.956131,-114.344
 L -1.09344,-114.473 L -1.21352,-114.618 L -1.31445,-114.777 L -1.39465,-114.948 L -1.45287,-115.127 L -1.48816,-115.312
 L -1.5,-115.5 L -1.48816,-115.688 L -1.45287,-115.873 L -1.39465,-116.052 L -1.31445,-116.223 L -1.21352,-116.382
 L -1.09344,-116.527 L -0.956131,-116.656 L -0.803726,-116.766 L -0.638657,-116.857 L -0.463516,-116.927 L -0.281067,-116.973
 L -0.0941772,-116.997 L 0.0941772,-116.997 L 0.281067,-116.973 L 0.463516,-116.927 L 0.638657,-116.857 L 0.803726,-116.766
 L 0.956131,-116.656 L 1.09344,-116.527 L 1.21352,-116.382 L 1.31445,-116.223 L 1.39465,-116.052 L 1.45287,-115.873
 L 1.48816,-115.688 L 1.5,-115.5 L 1.48816,-115.312 L 1.45287,-115.127 L 1.39465,-114.948 L 1.31445,-114.777
 L 1.21352,-114.618 L 1.09344,-114.473 L 0.956131,-114.344 L 0.803726,-114.234 L 0.638657,-114.143 L 0.463516,-114.073
 L 0.281067,-114.027 L 0.0941772,-114.003 z
M 7.40581,-114.003 L 7.21892,-114.027 L 7.03647,-114.073 L 6.86133,-114.143 L 6.69626,-114.234 L 6.54385,-114.344
 L 6.40654,-114.473 L 6.28647,-114.618 L 6.18553,-114.777 L 6.10533,-114.948 L 6.04712,-115.127 L 6.01183,-115.312
 L 6,-115.5 L 6.01183,-115.688 L 6.04712,-115.873 L 6.10533,-116.052 L 6.18553,-116.223 L 6.28647,-116.382
 L 6.40654,-116.527 L 6.54385,-116.656 L 6.69626,-116.766 L 6.86133,-116.857 L 7.03647,-116.927 L 7.21892,-116.973
 L 7.40581,-116.997 L 7.59418,-116.997 L 7.78107,-116.973 L 7.96352,-116.927 L 8.13866,-116.857 L 8.30373,-116.766
 L 8.45613,-116.656 L 8.59344,-116.527 L 8.71352,-116.382 L 8.81445,-116.223 L 8.89465,-116.052 L 8.95287,-115.873
 L 8.98816,-115.688 L 9,-115.5 L 8.98816,-115.312 L 8.95287,-115.127 L 8.89465,-114.948 L 8.81445,-114.777
 L 8.71352,-114.618 L 8.59344,-114.473 L 8.45613,-114.344 L 8.30373,-114.234 L 8.13866,-114.143 L 7.96352,-114.073
 L 7.78107,-114.027 L 7.59418,-114.003 z
M -0.0941772,-106.503 L -0.281067,-106.527 L -0.463516,-106.573 L -0.638657,-106.643 L -0.803726,-106.734 L -0.956131,-106.844
 L -1.09344,-106.973 L -1.21352,-107.118 L -1.31445,-107.277 L -1.39465,-107.448 L -1.45287,-107.627 L -1.48816,-107.812
 L -1.5,-108 L -1.48816,-108.188 L -1.45287,-108.373 L -1.39465,-108.552 L -1.31445,-108.723 L -1.21352,-108.882
 L -1.09344,-109.027 L -0.956131,-109.156 L -0.803726,-109.266 L -0.638657,-109.357 L -0.463516,-109.427 L -0.281067,-109.473
 L -0.0941772,-109.497 L 0.0941772,-109.497 L 0.281067,-109.473 L 0.463516,-109.427 L 0.638657,-109.357 L 0.803726,-109.266
 L 0.956131,-109.156 L 1.09344,-109.027 L 1.21352,-108.882 L 1.31445,-108.723 L 1.39465,-108.552 L 1.45287,-108.373
 L 1.48816,-108.188 L 1.5,-108 L 1.48816,-107.812 L 1.45287,-107.627 L 1.39465,-107.448 L 1.31445,-107.277
 L 1.21352,-107.118 L 1.09344,-106.973 L 0.956131,-106.844 L 0.803726,-106.734 L 0.638657,-106.643 L 0.463516,-106.573
 L 0.281067,-106.527 L 0.0941772,-106.503 z
M -7.59418,-106.503 L -7.78107,-106.527 L -7.96352,-106.573 L -8.13866,-106.643 L -8.30373,-106.734 L -8.45613,-106.844
 L -8.59344,-106.973 L -8.71352,-107.118 L -8.81445,-107.277 L -8.89465,-107.448 L -8.95287,-107.627 L -8.98816,-107.812
 L -9,-108 L -8.98816,-108.188 L -8.95287,-108.373 L -8.89465,-108.552 L -8.81445,-108.723 L -8.71352,-108.882
 L -8.59344,-109.027 L -8.45613,-109.156 L -8.30373,-109.266 L -8.13866,-109.357 L -7.96352,-109.427 L -7.78107,-109.473
 L -7.59418,-109.497 L -7.40581,-109.497 L -7.21892,-109.473 L -7.03647,-109.427 L -6.86133,-109.357 L -6.69626,-109.266
 L -6.54385,-109.156 L -6.40654,-109.027 L -6.28647,-108.882 L -6.18553,-108.723 L -6.10533,-108.552 L -6.04712,-108.373
 L -6.01183,-108.188 L -6,-108 L -6.01183,-107.812 L -6.04712,-107.627 L -6.10533,-107.448 L -6.18553,-107.277
 L -6.28647,-107.118 L -6.40654,-106.973 L -6.54385,-106.844 L -6.69626,-106.734 L -6.86133,-106.643 L -7.03647,-106.573
 L -7.21892,-106.527 L -7.40581,-106.503 z
M 7.40581,-106.503 L 7.21892,-106.527 L 7.03647,-106.573 L 6.86133,-106.643 L 6.69626,-106.734 L 6.54385,-106.844
 L 6.40654,-106.973 L 6.28647,-107.118 L 6.18553,-107.277 L 6.10533,-107.448 L 6.04712,-107.627 L 6.01183,-107.812
 L 6,-108 L 6.01183,-108.188 L 6.04712,-108.373 L 6.10533,-108.552 L 6.18553,-108.723 L 6.28647,-108.882
 L 6.40654,-109.027 L 6.54385,-109.156 L 6.69626,-109.266 L 6.86133,-109.357 L 7.03647,-109.427 L 7.21892,-109.473
 L 7.40581,-109.497 L 7.59418,-109.497 L 7.78107,-109.473 L 7.96352,-109.427 L 8.13866,-109.357 L 8.30373,-109.266
 L 8.45613,-109.156 L 8.59344,-109.027 L 8.71352,-108.882 L 8.81445,-108.723 L 8.89465,-108.552 L 8.95287,-108.373
 L 8.98816,-108.188 L 9,-108 L 8.98816,-107.812 L 8.95287,-107.627 L 8.89465,-107.448 L 8.81445,-107.277
 L 8.71352,-107.118 L 8.59344,-106.973 L 8.45613,-106.844 L 8.30373,-106.734 L 8.13866,-106.643 L 7.96352,-106.573
 L 7.78107,-106.527 L 7.59418,-106.503 z
M -7.59418,-99.003 L -7.78107,-99.0266 L -7.96352,-99.0734 L -8.13866,-99.1428 L -8.30373,-99.2335 L -8.45613,-99.3442
 L -8.59344,-99.4732 L -8.71352,-99.6183 L -8.81445,-99.7774 L -8.89465,-99.9478 L -8.95287,-100.127 L -8.98816,-100.312
 L -9,-100.5 L -8.98816,-100.688 L -8.95287,-100.873 L -8.89465,-101.052 L -8.81445,-101.223 L -8.71352,-101.382
 L -8.59344,-101.527 L -8.45613,-101.656 L -8.30373,-101.766 L -8.13866,-101.857 L -7.96352,-101.927 L -7.78107,-101.973
 L -7.59418,-101.997 L -7.40581,-101.997 L -7.21892,-101.973 L -7.03647,-101.927 L -6.86133,-101.857 L -6.69626,-101.766
 L -6.54385,-101.656 L -6.40654,-101.527 L -6.28647,-101.382 L -6.18553,-101.223 L -6.10533,-101.052 L -6.04712,-100.873
 L -6.01183,-100.688 L -6,-100.5 L -6.01183,-100.312 L -6.04712,-100.127 L -6.10533,-99.9478 L -6.18553,-99.7774
 L -6.28647,-99.6183 L -6.40654,-99.4732 L -6.54385,-99.3442 L -6.69626,-99.2335 L -6.86133,-99.1428 L -7.03647,-99.0734
 L -7.21892,-99.0266 L -7.40581,-99.003 z
M -0.0941772,-99.003 L -0.281067,-99.0266 L -0.463516,-99.0734 L -0.638657,-99.1428 L -0.803726,-99.2335 L -0.956131,-99.3442
 L -1.09344,-99.4732 L -1.21352,-99.6183 L -1.31445,-99.7774 L -1.39465,-99.9478 L -1.45287,-100.127 L -1.48816,-100.312
 L -1.5,-100.5 L -1.48816,-100.688 L -1.45287,-100.873 L -1.39465,-101.052 L -1.31445,-101.223 L -1.21352,-101.382
 L -1.09344,-101.527 L -0.956131,-101.656 L -0.803726,-101.766 L -0.638657,-101.857 L -0.463516,-101.927 L -0.281067,-101.973
 L -0.0941772,-101.997 L 0.0941772,-101.997 L 0.281067,-101.973 L 0.463516,-101.927 L 0.638657,-101.857 L 0.803726,-101.766
 L 0.956131,-101.656 L 1.09344,-101.527 L 1.21352,-101.382 L 1.31445,-101.223 L 1.39465,-101.052 L 1.45287,-100.873
 L 1.48816,-100.688 L 1.5,-100.5 L 1.48816,-100.312 L 1.45287,-100.127 L 1.39465,-99.9478 L 1.31445,-99.7774
 L 1.21352,-99.6183 L 1.09344,-99.4732 L 0.956131,-99.3442 L 0.803726,-99.2335 L 0.638657,-99.1428 L 0.463516,-99.0734
 L 0.281067,-99.0266 L 0.0941772,-99.003 z
M 7.40581,-99.003 L 7.21892,-99.0266 L 7.03647,-99.0734 L 6.86133,-99.1428 L 6.69626,-99.2335 L 6.54385,-99.3442
 L 6.40654,-99.4732 L 6.28647,-99.6183 L 6.18553,-99.7774 L 6.10533,-99.9478 L 6.04712,-100.127 L 6.01183,-100.312
 L 6,-100.5 L 6.01183,-100.688 L 6.04712,-100.873 L 6.10533,-101.052 L 6.18553,-101.223 L 6.28647,-101.382
 L 6.40654,-101.527 L 6.54385,-101.656 L 6.69626,-101.766 L 6.86133,-101.857 L 7.03647,-101.927 L 7.21892,-101.973
 L 7.40581,-101.997 L 7.59418,-101.997 L 7.78107,-101.973 L 7.96352,-101.927 L 8.13866,-101.857 L 8.30373,-101.766
 L 8.45613,-101.656 L 8.59344,-101.527 L 8.71352,-101.382 L 8.81445,-101.223 L 8.89465,-101.052 L 8.95287,-100.873
 L 8.98816,-100.688 L 9,-100.5 L 8.98816,-100.312 L 8.95287,-100.127 L 8.89465,-99.9478 L 8.81445,-99.7774
 L 8.71352,-99.6183 L 8.59344,-99.4732 L 8.45613,-99.3442 L 8.30373,-99.2335 L 8.13866,-99.1428 L 7.96352,-99.0734
 L 7.78107,-99.0266 L 7.59418,-99.003 z
" stroke="black" fill="lightgray" stroke-width="0.5"/>
</svg>
