<?xml version="1.0" standalone="no"?>
<!DOCTYPE svg PUBLIC "-//W3C//DTD SVG 1.1//EN" "http://www.w3.org/Graphics/SVG/1.1/DTD/svg11.dtd">
<svg width="38mm" height="147mm" viewBox="-19 -288 38 147" xmlns="http://www.w3.org/2000/svg" version="1.1">
<title>OpenSCAD Model</title>
<path d="
M 14.6869,-258.089 L 15.2951,-258.245 L 15.8789,-258.476 L 16.4291,-258.778 L 16.9371,-259.147 L 17.3948,-259.577
 L 17.7951,-260.061 L 18.1315,-260.591 L 18.3989,-261.159 L 18.5929,-261.757 L 18.7106,-262.373 L 18.75,-263
 L 18.75,-283 L 18.7106,-283.627 L 18.5929,-284.243 L 18.3989,-284.841 L 18.1315,-285.409 L 17.7951,-285.939
 L 17.3948,-286.423 L 16.9371,-286.853 L 16.4291,-287.222 L 15.8789,-287.524 L 15.2951,-287.755 L 14.6869,-287.911
 L 14.0639,-287.99 L -14.0639,-287.99 L -14.6869,-287.911 L -15.2951,-287.755 L -15.8789,-287.524 L -16.4291,-287.222
 L -16.9371,-286.853 L -17.3948,-286.423 L -17.7951,-285.939 L -18.1315,-285.409 L -18.3989,-284.841 L -18.5929,-284.243
 L -18.7106,-283.627 L -18.75,-283 L -18.75,-263 L -18.7106,-262.373 L -18.5929,-261.757 L -18.3989,-261.159
 L -18.1315,-260.591 L -17.7951,-260.061 L -17.3948,-259.577 L -16.9371,-259.147 L -16.4291,-258.778 L -15.8789,-258.476
 L -15.2951,-258.245 L -14.6869,-258.089 L -14.0639,-258.01 L 14.0639,-258.01 z
M -8.56104,-258.509 L -8.07086,-258.778 L -7.56287,-259.147 L -7.10515,-259.577 L -6.70491,-260.061 L -6.36845,-260.591
 L -6.1011,-261.159 L -5.90707,-261.757 L -5.78941,-262.373 L -5.75,-263 L -5.75,-266 L -5.78941,-266.627
 L -5.90707,-267.243 L -6.1011,-267.841 L -6.36845,-268.409 L -6.70491,-268.939 L -7.10515,-269.423 L -7.56287,-269.853
 L -8.07086,-270.222 L -8.62109,-270.524 L -9.20491,-270.755 L -9.81308,-270.911 L -10.436,-270.99 L -14.0639,-270.99
 L -14.6869,-270.911 L -15.2951,-270.755 L -15.8789,-270.524 L -16.4291,-270.222 L -16.9371,-269.853 L -17.3948,-269.423
 L -17.7951,-268.939 L -18.1315,-268.409 L -18.25,-268.157 L -18.25,-283 L -18.2145,-283.564 L -18.1086,-284.119
 L -17.934,-284.657 L -17.6934,-285.168 L -17.3906,-285.645 L -17.0303,-286.08 L -16.6184,-286.467 L -16.1612,-286.799
 L -15.666,-287.072 L -15.1406,-287.28 L -14.5932,-287.42 L -14.0325,-287.491 L 14.0325,-287.491 L 14.5932,-287.42
 L 15.1406,-287.28 L 15.666,-287.072 L 16.1612,-286.799 L 16.6184,-286.467 L 17.0303,-286.08 L 17.3906,-285.645
 L 17.6934,-285.168 L 17.934,-284.657 L 18.1086,-284.119 L 18.2145,-283.564 L 18.25,-283 L 18.25,-263
 L 18.2145,-262.436 L 18.1086,-261.881 L 17.934,-261.343 L 17.6934,-260.832 L 17.3906,-260.355 L 17.0303,-259.92
 L 16.6184,-259.533 L 16.1612,-259.201 L 15.666,-258.928 L 15.1406,-258.72 L 14.5932,-258.58 L 14.0325,-258.509
 z
M 11.7184,-278.044 L 12.0225,-278.122 L 12.3144,-278.238 L 12.5896,-278.389 L 12.8436,-278.574 L 13.0724,-278.789
 L 13.2725,-279.031 L 13.4408,-279.296 L 13.5744,-279.58 L 13.6714,-279.878 L 13.7303,-280.187 L 13.75,-280.5
 L 13.7303,-280.813 L 13.6714,-281.122 L 13.5744,-281.42 L 13.4408,-281.704 L 13.2725,-281.969 L 13.0724,-282.211
 L 12.8436,-282.426 L 12.5896,-282.611 L 12.3144,-282.762 L 12.0225,-282.878 L 11.7184,-282.956 L 11.407,-282.995
 L 11.093,-282.995 L 10.7815,-282.956 L 10.4774,-282.878 L 10.1855,-282.762 L 9.91043,-282.611 L 9.65643,-282.426
 L 9.42757,-282.211 L 9.22745,-281.969 L 9.05922,-281.704 L 8.92555,-281.42 L 8.82854,-281.122 L 8.7697,-280.813
 L 8.75,-280.5 L 8.7697,-280.187 L 8.82854,-279.878 L 8.92555,-279.58 L 9.05922,-279.296 L 9.22745,-279.031
 L 9.42757,-278.789 L 9.65643,-278.574 L 9.91043,-278.389 L 10.1855,-278.238 L 10.4774,-278.122 L 10.7815,-278.044
 L 11.093,-278.005 L 11.407,-278.005 z
M 11.1558,-279.003 L 10.9689,-279.027 L 10.7865,-279.073 L 10.6113,-279.143 L 10.4463,-279.234 L 10.2939,-279.344
 L 10.1565,-279.473 L 10.0365,-279.618 L 9.93553,-279.777 L 9.85533,-279.948 L 9.79712,-280.127 L 9.76183,-280.312
 L 9.75,-280.5 L 9.76183,-280.688 L 9.79712,-280.873 L 9.85533,-281.052 L 9.93553,-281.223 L 10.0365,-281.382
 L 10.1565,-281.527 L 10.2939,-281.656 L 10.4463,-281.766 L 10.6113,-281.857 L 10.7865,-281.927 L 10.9689,-281.973
 L 11.1558,-281.997 L 11.3442,-281.997 L 11.5311,-281.973 L 11.7135,-281.927 L 11.8887,-281.857 L 12.0537,-281.766
 L 12.2061,-281.656 L 12.3434,-281.527 L 12.4635,-281.382 L 12.5645,-281.223 L 12.6447,-281.052 L 12.7029,-280.873
 L 12.7382,-280.688 L 12.75,-280.5 L 12.7382,-280.312 L 12.7029,-280.127 L 12.6447,-279.948 L 12.5645,-279.777
 L 12.4635,-279.618 L 12.3434,-279.473 L 12.2061,-279.344 L 12.0537,-279.234 L 11.8887,-279.143 L 11.7135,-279.073
 L 11.5311,-279.027 L 11.3442,-279.003 z
M -11.3442,-264.003 L -11.5311,-264.027 L -11.7135,-264.073 L -11.8887,-264.143 L -12.0537,-264.234 L -12.2061,-264.344
 L -12.3434,-264.473 L -12.4635,-264.618 L -12.5645,-264.777 L -12.6447,-264.948 L -12.7029,-265.127 L -12.7382,-265.312
 L -12.75,-265.5 L -12.7382,-265.688 L -12.7029,-265.873 L -12.6447,-266.052 L -12.5645,-266.223 L -12.4635,-266.382
 L -12.3434,-266.527 L -12.2061,-266.656 L -12.0537,-266.766 L -11.8887,-266.857 L -11.7135,-266.927 L -11.5311,-266.973
 L -11.3442,-266.997 L -11.1558,-266.997 L -10.9689,-266.973 L -10.7865,-266.927 L -10.6113,-266.857 L -10.4463,-266.766
 L -10.2939,-266.656 L -10.1565,-266.527 L -10.0365,-266.382 L -9.93553,-266.223 L -9.85533,-266.052 L -9.79712,-265.873
 L -9.76183,-265.688 L -9.75,-265.5 L -9.76183,-265.312 L -9.79712,-265.127 L -9.85533,-264.948 L -9.93553,-264.777
 L -10.0365,-264.618 L -10.1565,-264.473 L -10.2939,-264.344 L -10.4463,-264.234 L -10.6113,-264.143 L -10.7865,-264.073
 L -10.9689,-264.027 L -11.1558,-264.003 z
M 14.6869,-219.089 L 15.2951,-219.245 L 15.8789,-219.476 L 16.4291,-219.778 L 16.9371,-220.147 L 17.3948,-220.577
 L 17.7951,-221.061 L 18.1315,-221.591 L 18.3989,-222.159 L 18.5929,-222.757 L 18.7106,-223.373 L 18.75,-224
 L 18.75,-244 L 18.7106,-244.627 L 18.5929,-245.243 L 18.3989,-245.841 L 18.1315,-246.409 L 17.7951,-246.939
 L 17.3948,-247.423 L 16.9371,-247.853 L 16.4291,-248.222 L 15.8789,-248.524 L 15.2951,-248.755 L 14.6869,-248.911
 L 14.0639,-248.99 L -14.0639,-248.99 L -14.6869,-248.911 L -15.2951,-248.755 L -15.8789,-248.524 L -16.4291,-248.222
 L -16.9371,-247.853 L -17.3948,-247.423 L -17.7951,-246.939 L -18.1315,-246.409 L -18.3989,-245.841 L -18.5929,-245.243
 L -18.7106,-244.627 L -18.75,-244 L -18.75,-224 L -18.7106,-223.373 L -18.5929,-222.757 L -18.3989,-222.159
 L -18.1315,-221.591 L -17.7951,-221.061 L -17.3948,-220.577 L -16.9371,-220.147 L -16.4291,-219.778 L -15.8789,-219.476
 L -15.2951,-219.245 L -14.6869,-219.089 L -14.0639,-219.01 L 14.0639,-219.01 z
M -8.56104,-219.509 L -8.07086,-219.778 L -7.56287,-220.147 L -7.10515,-220.577 L -6.70491,-221.061 L -6.36845,-221.591
 L -6.1011,-222.159 L -5.90707,-222.757 L -5.78941,-223.373 L -5.75,-224 L -5.75,-227 L -5.78941,-227.627
 L -5.90707,-228.243 L -6.1011,-228.841 L -6.36845,-229.409 L -6.70491,-229.939 L -7.10515,-230.423 L -7.56287,-230.853
 L -8.07086,-231.222 L -8.62109,-231.524 L -9.20491,-231.755 L -9.81308,-231.911 L -10.436,-231.99 L -14.0639,-231.99
 L -14.6869,-231.911 L -15.2951,-231.755 L -15.8789,-231.524 L -16.4291,-231.222 L -16.9371,-230.853 L -17.3948,-230.423
 L -17.7951,-229.939 L -18.1315,-229.409 L -18.25,-229.157 L -18.25,-244 L -18.2145,-244.564 L -18.1086,-245.119
 L -17.934,-245.657 L -17.6934,-246.168 L -17.3906,-246.645 L -17.0303,-247.08 L -16.6184,-247.467 L -16.1612,-247.799
 L -15.666,-248.072 L -15.1406,-248.28 L -14.5932,-248.42 L -14.0325,-248.491 L 14.0325,-248.491 L 14.5932,-248.42
 L 15.1406,-248.28 L 15.666,-248.072 L 16.1612,-247.799 L 16.6184,-247.467 L 17.0303,-247.08 L 17.3906,-246.645
 L 17.6934,-246.168 L 17.934,-245.657 L 18.1086,-245.119 L 18.2145,-244.564 L 18.25,-244 L 18.25,-224
 L 18.2145,-223.436 L 18.1086,-222.881 L 17.934,-222.343 L 17.6934,-221.832 L 17.3906,-221.355 L 17.0303,-220.92
 L 16.6184,-220.533 L 16.1612,-220.201 L 15.666,-219.928 L 15.1406,-219.72 L 14.5932,-219.58 L 14.0325,-219.509
 z
M 11.7184,-239.044 L 12.0225,-239.122 L 12.3144,-239.238 L 12.5896,-239.389 L 12.8436,-239.574 L 13.0724,-239.789
 L 13.2725,-240.031 L 13.4408,-240.296 L 13.5744,-240.58 L 13.6714,-240.878 L 13.7303,-241.187 L 13.75,-241.5
 L 13.7303,-241.813 L 13.6714,-242.122 L 13.5744,-242.42 L 13.4408,-242.704 L 13.2725,-242.969 L 13.0724,-243.211
 L 12.8436,-243.426 L 12.5896,-243.611 L 12.3144,-243.762 L 12.0225,-243.878 L 11.7184,-243.956 L 11.407,-243.995
 L 11.093,-243.995 L 10.7815,-243.956 L 10.4774,-243.878 L 10.1855,-243.762 L 9.91043,-243.611 L 9.65643,-243.426
 L 9.42757,-243.211 L 9.22745,-242.969 L 9.05922,-242.704 L 8.92555,-242.42 L 8.82854,-242.122 L 8.7697,-241.813
 L 8.75,-241.5 L 8.7697,-241.187 L 8.82854,-240.878 L 8.92555,-240.58 L 9.05922,-240.296 L 9.22745,-240.031
 L 9.42757,-239.789 L 9.65643,-239.574 L 9.91043,-239.389 L 10.1855,-239.238 L 10.4774,-239.122 L 10.7815,-239.044
 L 11.093,-239.005 L 11.407,-239.005 z
M 11.1558,-240.003 L 10.9689,-240.027 L 10.7865,-240.073 L 10.6113,-240.143 L 10.4463,-240.234 L 10.2939,-240.344
 L 10.1565,-240.473 L 10.0365,-240.618 L 9.93553,-240.777 L 9.85533,-240.948 L 9.79712,-241.127 L 9.76183,-241.312
 L 9.75,-241.5 L 9.76183,-241.688 L 9.79712,-241.873 L 9.85533,-242.052 L 9.93553,-242.223 L 10.0365,-242.382
 L 10.1565,-242.527 L 10.2939,-242.656 L 10.4463,-242.766 L 10.6113,-242.857 L 10.7865,-242.927 L 10.9689,-242.973
 L 11.1558,-242.997 L 11.3442,-242.997 L 11.5311,-242.973 L 11.7135,-242.927 L 11.8887,-242.857 L 12.0537,-242.766
 L 12.2061,-242.656 L 12.3434,-242.527 L 12.4635,-242.382 L 12.5645,-242.223 L 12.6447,-242.052 L 12.7029,-241.873
 L 12.7382,-241.688 L 12.75,-241.5 L 12.7382,-241.312 L 12.7029,-241.127 L 12.6447,-240.948 L 12.5645,-240.777
 L 12.4635,-240.618 L 12.3434,-240.473 L 12.2061,-240.344 L 12.0537,-240.234 L 11.8887,-240.143 L 11.7135,-240.073
 L 11.5311,-240.027 L 11.3442,-240.003 z
M -11.3442,-225.003 L -11.5311,-225.027 L -11.7135,-225.073 L -11.8887,-225.143 L -12.0537,-225.234 L -12.2061,-225.344
 L -12.3434,-225.473 L -12.4635,-225.618 L -12.5645,-225.777 L -12.6447,-225.948 L -12.7029,-226.127 L -12.7382,-226.312
 L -12.75,-226.5 L -12.7382,-226.688 L -12.7029,-226.873 L -12.6447,-227.052 L -12.5645,-227.223 L -12.4635,-227.382
 L -12.3434,-227.527 L -12.2061,-227.656 L -12.0537,-227.766 L -11.8887,-227.857 L -11.7135,-227.927 L -11.5311,-227.973
 L -11.3442,-227.997 L -11.1558,-227.997 L -10.9689,-227.973 L -10.7865,-227.927 L -10.6113,-227.857 L -10.4463,-227.766
 L -10.2939,-227.656 L -10.1565,-227.527 L -10.0365,-227.382 L -9.93553,-227.223 L -9.85533,-227.052 L -9.79712,-226.873
 L -9.76183,-226.688 L -9.75,-226.5 L -9.76183,-226.312 L -9.79712,-226.127 L -9.85533,-225.948 L -9.93553,-225.777
 L -10.0365,-225.618 L -10.1565,-225.473 L -10.2939,-225.344 L -10.4463,-225.234 L -10.6113,-225.143 L -10.7865,-225.073
 L -10.9689,-225.027 L -11.1558,-225.003 z
M 14.6869,-180.089 L 15.2951,-180.245 L 15.8789,-180.476 L 16.4291,-180.778 L 16.9371,-181.147 L 17.3948,-181.577
 L 17.7951,-182.061 L 18.1315,-182.591 L 18.3989,-183.159 L 18.5929,-183.757 L 18.7106,-184.373 L 18.75,-185
 L 18.75,-205 L 18.7106,-205.627 L 18.5929,-206.243 L 18.3989,-206.841 L 18.1315,-207.409 L 17.7951,-207.939
 L 17.3948,-208.423 L 16.9371,-208.853 L 16.4291,-209.222 L 15.8789,-209.524 L 15.2951,-209.755 L 14.6869,-209.911
 L 14.0639,-209.99 L -14.0639,-209.99 L -14.6869,-209.911 L -15.2951,-209.755 L -15.8789,-209.524 L -16.4291,-209.222
 L -16.9371,-208.853 L -17.3948,-208.423 L -17.7951,-207.939 L -18.1315,-207.409 L -18.3989,-206.841 L -18.5929,-206.243
 L -18.7106,-205.627 L -18.75,-205 L -18.75,-185 L -18.7106,-184.373 L -18.5929,-183.757 L -18.3989,-183.159
 L -18.1315,-182.591 L -17.7951,-182.061 L -17.3948,-181.577 L -16.9371,-181.147 L -16.4291,-180.778 L -15.8789,-180.476
 L -15.2951,-180.245 L -14.6869,-180.089 L -14.0639,-180.01 L 14.0639,-180.01 z
M -8.50392,-180.54 L -8.07086,-180.778 L -7.56287,-181.147 L -7.10515,-181.577 L -6.70491,-182.061 L -6.36845,-182.591
 L -6.1011,-183.159 L -5.90707,-183.757 L -5.78941,-184.373 L -5.75,-185 L -5.75,-188 L -5.78941,-188.627
 L -5.90707,-189.243 L -6.1011,-189.841 L -6.36845,-190.409 L -6.70491,-190.939 L -7.10515,-191.423 L -7.56287,-191.853
 L -8.07086,-192.222 L -8.62109,-192.524 L -9.20491,-192.755 L -9.81308,-192.911 L -10.436,-192.99 L -14.0639,-192.99
 L -14.6869,-192.911 L -15.2951,-192.755 L -15.8789,-192.524 L -16.4291,-192.222 L -16.9371,-191.853 L -17.3948,-191.423
 L -17.7951,-190.939 L -18.1315,-190.409 L -18.2185,-190.224 L -18.2185,-205 L -18.1833,-205.56 L -18.0782,-206.111
 L -17.9047,-206.645 L -17.6658,-207.153 L -17.3651,-207.627 L -17.0074,-208.059 L -16.5983,-208.443 L -16.1444,-208.773
 L -15.6526,-209.043 L -15.1308,-209.25 L -14.5873,-209.389 L -14.0306,-209.46 L 14.0306,-209.46 L 14.5873,-209.389
 L 15.1308,-209.25 L 15.6526,-209.043 L 16.1444,-208.773 L 16.5983,-208.443 L 17.0074,-208.059 L 17.3651,-207.627
 L 17.6658,-207.153 L 17.9047,-206.645 L 18.0782,-206.111 L 18.1833,-205.56 L 18.2185,-205 L 18.2185,-185
 L 18.1833,-184.44 L 18.0782,-183.889 L 17.9047,-183.355 L 17.6658,-182.847 L 17.3651,-182.373 L 17.0074,-181.941
 L 16.5983,-181.557 L 16.1444,-181.227 L 15.6526,-180.957 L 15.1308,-180.75 L 14.5873,-180.611 L 14.0306,-180.54
 z
M 11.7184,-200.044 L 12.0225,-200.122 L 12.3144,-200.238 L 12.5896,-200.389 L 12.8436,-200.574 L 13.0724,-200.789
 L 13.2725,-201.031 L 13.4408,-201.296 L 13.5744,-201.58 L 13.6714,-201.878 L 13.7303,-202.187 L 13.75,-202.5
 L 13.7303,-202.813 L 13.6714,-203.122 L 13.5744,-203.42 L 13.4408,-203.704 L 13.2725,-203.969 L 13.0724,-204.211
 L 12.8436,-204.426 L 12.5896,-204.611 L 12.3144,-204.762 L 12.0225,-204.878 L 11.7184,-204.956 L 11.407,-204.995
 L 11.093,-204.995 L 10.7815,-204.956 L 10.4774,-204.878 L 10.1855,-204.762 L 9.91043,-204.611 L 9.65643,-204.426
 L 9.42757,-204.211 L 9.22745,-203.969 L 9.05922,-203.704 L 8.92555,-203.42 L 8.82854,-203.122 L 8.7697,-202.813
 L 8.75,-202.5 L 8.7697,-202.187 L 8.82854,-201.878 L 8.92555,-201.58 L 9.05922,-201.296 L 9.22745,-201.031
 L 9.42757,-200.789 L 9.65643,-200.574 L 9.91043,-200.389 L 10.1855,-200.238 L 10.4774,-200.122 L 10.7815,-200.044
 L 11.093,-200.005 L 11.407,-200.005 z
M 11.1558,-201.003 L 10.9689,-201.027 L 10.7865,-201.073 L 10.6113,-201.143 L 10.4463,-201.234 L 10.2939,-201.344
 L 10.1565,-201.473 L 10.0365,-201.618 L 9.93553,-201.777 L 9.85533,-201.948 L 9.79712,-202.127 L 9.76183,-202.312
 L 9.75,-202.5 L 9.76183,-202.688 L 9.79712,-202.873 L 9.85533,-203.052 L 9.93553,-203.223 L 10.0365,-203.382
 L 10.1565,-203.527 L 10.2939,-203.656 L 10.4463,-203.766 L 10.6113,-203.857 L 10.7865,-203.927 L 10.9689,-203.973
 L 11.1558,-203.997 L 11.3442,-203.997 L 11.5311,-203.973 L 11.7135,-203.927 L 11.8887,-203.857 L 12.0537,-203.766
 L 12.2061,-203.656 L 12.3434,-203.527 L 12.4635,-203.382 L 12.5645,-203.223 L 12.6447,-203.052 L 12.7029,-202.873
 L 12.7382,-202.688 L 12.75,-202.5 L 12.7382,-202.312 L 12.7029,-202.127 L 12.6447,-201.948 L 12.5645,-201.777
 L 12.4635,-201.618 L 12.3434,-201.473 L 12.2061,-201.344 L 12.0537,-201.234 L 11.8887,-201.143 L 11.7135,-201.073
 L 11.5311,-201.027 L 11.3442,-201.003 z
M -11.3442,-186.003 L -11.5311,-186.027 L -11.7135,-186.073 L -11.8887,-186.143 L -12.0537,-186.234 L -12.2061,-186.344
 L -12.3434,-186.473 L -12.4635,-186.618 L -12.5645,-186.777 L -12.6447,-186.948 L -12.7029,-187.127 L -12.7382,-187.312
 L -12.75,-187.5 L -12.7382,-187.688 L -12.7029,-187.873 L -12.6447,-188.052 L -12.5645,-188.223 L -12.4635,-188.382
 L -12.3434,-188.527 L -12.2061,-188.656 L -12.0537,-188.766 L -11.8887,-188.857 L -11.7135,-188.927 L -11.5311,-188.973
 L -11.3442,-188.997 L -11.1558,-188.997 L -10.9689,-188.973 L -10.7865,-188.927 L -10.6113,-188.857 L -10.4463,-188.766
 L -10.2939,-188.656 L -10.1565,-188.527 L -10.0365,-188.382 L -9.93553,-188.223 L -9.85533,-188.052 L -9.79712,-187.873
 L -9.76183,-187.688 L -9.75,-187.5 L -9.76183,-187.312 L -9.79712,-187.127 L -9.85533,-186.948 L -9.93553,-186.777
 L -10.0365,-186.618 L -10.1565,-186.473 L -10.2939,-186.344 L -10.4463,-186.234 L -10.6113,-186.143 L -10.7865,-186.073
 L -10.9689,-186.027 L -11.1558,-186.003 z
M 14.6869,-141.089 L 15.2951,-141.245 L 15.8789,-141.476 L 16.4291,-141.778 L 16.9371,-142.147 L 17.3948,-142.577
 L 17.7951,-143.061 L 18.1315,-143.591 L 18.3989,-144.159 L 18.5929,-144.757 L 18.7106,-145.373 L 18.75,-146
 L 18.75,-166 L 18.7106,-166.627 L 18.5929,-167.243 L 18.3989,-167.841 L 18.1315,-168.409 L 17.7951,-168.939
 L 17.3948,-169.423 L 16.9371,-169.853 L 16.4291,-170.222 L 15.8789,-170.524 L 15.2951,-170.755 L 14.6869,-170.911
 L 14.0639,-170.99 L -14.0639,-170.99 L -14.6869,-170.911 L -15.2951,-170.755 L -15.8789,-170.524 L -16.4291,-170.222
 L -16.9371,-169.853 L -17.3948,-169.423 L -17.7951,-168.939 L -18.1315,-168.409 L -18.3989,-167.841 L -18.5929,-167.243
 L -18.7106,-166.627 L -18.75,-166 L -18.75,-146 L -18.7106,-145.373 L -18.5929,-144.757 L -18.3989,-144.159
 L -18.1315,-143.591 L -17.7951,-143.061 L -17.3948,-142.577 L -16.9371,-142.147 L -16.4291,-141.778 L -15.8789,-141.476
 L -15.2951,-141.245 L -14.6869,-141.089 L -14.0639,-141.01 L 14.0639,-141.01 z
M -6.62805,-143.182 L -6.36845,-143.591 L -6.1011,-144.159 L -5.90707,-144.757 L -5.78941,-145.373 L -5.75,-146
 L -5.75,-149 L -5.78941,-149.627 L -5.90707,-150.243 L -6.1011,-150.841 L -6.36845,-151.409 L -6.70491,-151.939
 L -7.10515,-152.423 L -7.56287,-152.853 L -8.07086,-153.222 L -8.62109,-153.524 L -9.20491,-153.755 L -9.81308,-153.911
 L -10.436,-153.99 L -14.0639,-153.99 L -14.6869,-153.911 L -15.2951,-153.755 L -15.8789,-153.524 L -16.4291,-153.222
 L -16.5734,-153.117 L -16.5734,-166 L -16.5511,-166.354 L -16.4847,-166.702 L -16.3751,-167.039 L -16.2242,-167.36
 L -16.0342,-167.66 L -15.8082,-167.933 L -15.5497,-168.175 L -15.2628,-168.384 L -14.9521,-168.555 L -14.6225,-168.685
 L -14.2791,-168.773 L -13.9273,-168.818 L 6.62805,-168.818 L 6.36845,-168.409 L 6.1011,-167.841 L 5.90707,-167.243
 L 5.78941,-166.627 L 5.75,-166 L 5.75,-163 L 5.78941,-162.373 L 5.90707,-161.757 L 6.1011,-161.159
 L 6.36845,-160.591 L 6.70491,-160.061 L 7.10515,-159.577 L 7.56287,-159.147 L 8.07086,-158.778 L 8.62109,-158.476
 L 9.20491,-158.245 L 9.81308,-158.089 L 10.436,-158.01 L 14.0639,-158.01 L 14.6869,-158.089 L 15.2951,-158.245
 L 15.8789,-158.476 L 16.4291,-158.778 L 16.5734,-158.883 L 16.5734,-146 L 16.5511,-145.646 L 16.4847,-145.298
 L 16.3751,-144.961 L 16.2242,-144.64 L 16.0342,-144.34 L 15.8082,-144.067 L 15.5497,-143.825 L 15.2628,-143.616
 L 14.9521,-143.445 L 14.6225,-143.315 L 14.2791,-143.227 L 13.9273,-143.182 z
M 11.0993,-161.105 L 10.8003,-161.143 L 10.5083,-161.217 L 10.2281,-161.328 L 9.964,-161.474 L 9.72017,-161.651
 L 9.50047,-161.857 L 9.30835,-162.089 L 9.14685,-162.344 L 9.01852,-162.617 L 8.9254,-162.903 L 8.86891,-163.199
 L 8.84999,-163.5 L 8.86891,-163.801 L 8.9254,-164.097 L 9.01852,-164.383 L 9.14685,-164.656 L 9.30835,-164.911
 L 9.50047,-165.143 L 9.72017,-165.349 L 9.964,-165.526 L 10.2281,-165.672 L 10.5083,-165.783 L 10.8003,-165.857
 L 11.0993,-165.895 L 11.4007,-165.895 L 11.6997,-165.857 L 11.9916,-165.783 L 12.2719,-165.672 L 12.536,-165.526
 L 12.7798,-165.349 L 12.9995,-165.143 L 13.1916,-164.911 L 13.3531,-164.656 L 13.4815,-164.383 L 13.5746,-164.097
 L 13.6311,-163.801 L 13.65,-163.5 L 13.6311,-163.199 L 13.5746,-162.903 L 13.4815,-162.617 L 13.3531,-162.344
 L 13.1916,-162.089 L 12.9995,-161.857 L 12.7798,-161.651 L 12.536,-161.474 L 12.2719,-161.328 L 11.9916,-161.217
 L 11.6997,-161.143 L 11.4007,-161.105 z
M -11.4007,-146.105 L -11.6997,-146.143 L -11.9916,-146.217 L -12.2719,-146.328 L -12.536,-146.474 L -12.7798,-146.651
 L -12.9995,-146.857 L -13.1916,-147.089 L -13.3531,-147.344 L -13.4815,-147.617 L -13.5746,-147.903 L -13.6311,-148.199
 L -13.65,-148.5 L -13.6311,-148.801 L -13.5746,-149.097 L -13.4815,-149.383 L -13.3531,-149.656 L -13.1916,-149.911
 L -12.9995,-150.143 L -12.7798,-150.349 L -12.536,-150.526 L -12.2719,-150.672 L -11.9916,-150.783 L -11.6997,-150.857
 L -11.4007,-150.895 L -11.0993,-150.895 L -10.8003,-150.857 L -10.5083,-150.783 L -10.2281,-150.672 L -9.964,-150.526
 L -9.72017,-150.349 L -9.50047,-150.143 L -9.30835,-149.911 L -9.14685,-149.656 L -9.01852,-149.383 L -8.9254,-149.097
 L -8.86891,-148.801 L -8.84999,-148.5 L -8.86891,-148.199 L -8.9254,-147.903 L -9.01852,-147.617 L -9.14685,-147.344
 L -9.30835,-147.089 L -9.50047,-146.857 L -9.72017,-146.651 L -9.964,-146.474 L -10.2281,-146.328 L -10.5083,-146.217
 L -10.8003,-146.143 L -11.0993,-146.105 z
" stroke="black" fill="lightgray" stroke-width="0.5"/>
</svg>
