<?xml version="1.0" standalone="no"?>
<!DOCTYPE svg PUBLIC "-//W3C//DTD SVG 1.1//EN" "http://www.w3.org/Graphics/SVG/1.1/DTD/svg11.dtd">
<svg width="166mm" height="32mm" viewBox="-83 -76 166 32" xmlns="http://www.w3.org/2000/svg" version="1.1">
<title>OpenSCAD Model</title>
<path d="
M 80.2184,-68.5443 L 80.5225,-68.6224 L 80.8144,-68.7379 L 81.0896,-68.8892 L 81.3436,-69.0737 L 81.5724,-69.2886
 L 81.7725,-69.5305 L 81.9408,-69.7956 L 82.0744,-70.0797 L 82.1714,-70.3783 L 82.2303,-70.6867 L 82.25,-71
 L 82.25,-73 L 82.2303,-73.3133 L 82.1714,-73.6217 L 82.0744,-73.9203 L 81.9408,-74.2044 L 81.7725,-74.4695
 L 81.5724,-74.7114 L 81.3436,-74.9263 L 81.0896,-75.1108 L 80.8144,-75.2621 L 80.5225,-75.3776 L 80.2184,-75.4557
 L 79.907,-75.4951 L -79.907,-75.4951 L -80.2184,-75.4557 L -80.5225,-75.3776 L -80.8144,-75.2621 L -81.0896,-75.1108
 L -81.3436,-74.9263 L -81.5724,-74.7114 L -81.7725,-74.4695 L -81.9408,-74.2044 L -82.0744,-73.9203 L -82.1714,-73.6217
 L -82.2303,-73.3133 L -82.25,-73 L -82.25,-71 L -82.2303,-70.6867 L -82.1714,-70.3783 L -82.0744,-70.0797
 L -81.9408,-69.7956 L -81.7725,-69.5305 L -81.5724,-69.2886 L -81.3436,-69.0737 L -81.0896,-68.8892 L -80.8144,-68.7379
 L -80.5225,-68.6224 L -80.2184,-68.5443 L -79.907,-68.5049 L 79.907,-68.5049 z
M -41.3442,-70.503 L -41.5311,-70.5266 L -41.7135,-70.5734 L -41.8887,-70.6428 L -42.0537,-70.7335 L -42.2061,-70.8442
 L -42.3434,-70.9732 L -42.4635,-71.1183 L -42.5645,-71.2774 L -42.6447,-71.4478 L -42.7029,-71.627 L -42.7382,-71.812
 L -42.75,-72 L -42.7382,-72.188 L -42.7029,-72.373 L -42.6447,-72.5522 L -42.5645,-72.7226 L -42.4635,-72.8817
 L -42.3434,-73.0268 L -42.2061,-73.1558 L -42.0537,-73.2665 L -41.8887,-73.3572 L -41.7135,-73.4266 L -41.5311,-73.4734
 L -41.3442,-73.497 L -41.1558,-73.497 L -40.9689,-73.4734 L -40.7865,-73.4266 L -40.6113,-73.3572 L -40.4463,-73.2665
 L -40.2939,-73.1558 L -40.1565,-73.0268 L -40.0365,-72.8817 L -39.9355,-72.7226 L -39.8553,-72.5522 L -39.7971,-72.373
 L -39.7618,-72.188 L -39.75,-72 L -39.7618,-71.812 L -39.7971,-71.627 L -39.8553,-71.4478 L -39.9355,-71.2774
 L -40.0365,-71.1183 L -40.1565,-70.9732 L -40.2939,-70.8442 L -40.4463,-70.7335 L -40.6113,-70.6428 L -40.7865,-70.5734
 L -40.9689,-70.5266 L -41.1558,-70.503 z
M 63.6558,-70.503 L 63.4689,-70.5266 L 63.2865,-70.5734 L 63.1113,-70.6428 L 62.9463,-70.7335 L 62.7939,-70.8442
 L 62.6565,-70.9732 L 62.5365,-71.1183 L 62.4355,-71.2774 L 62.3553,-71.4478 L 62.2971,-71.627 L 62.2618,-71.812
 L 62.25,-72 L 62.2618,-72.188 L 62.2971,-72.373 L 62.3553,-72.5522 L 62.4355,-72.7226 L 62.5365,-72.8817
 L 62.6565,-73.0268 L 62.7939,-73.1558 L 62.9463,-73.2665 L 63.1113,-73.3572 L 63.2865,-73.4266 L 63.4689,-73.4734
 L 63.6558,-73.497 L 63.8442,-73.497 L 64.0311,-73.4734 L 64.2135,-73.4266 L 64.3887,-73.3572 L 64.5537,-73.2665
 L 64.7061,-73.1558 L 64.8434,-73.0268 L 64.9635,-72.8817 L 65.0645,-72.7226 L 65.1447,-72.5522 L 65.2029,-72.373
 L 65.2382,-72.188 L 65.25,-72 L 65.2382,-71.812 L 65.2029,-71.627 L 65.1447,-71.4478 L 65.0645,-71.2774
 L 64.9635,-71.1183 L 64.8434,-70.9732 L 64.7061,-70.8442 L 64.5537,-70.7335 L 64.3887,-70.6428 L 64.2135,-70.5734
 L 64.0311,-70.5266 L 63.8442,-70.503 z
M -11.3442,-70.503 L -11.5311,-70.5266 L -11.7135,-70.5734 L -11.8887,-70.6428 L -12.0537,-70.7335 L -12.2061,-70.8442
 L -12.3434,-70.9732 L -12.4635,-71.1183 L -12.5645,-71.2774 L -12.6447,-71.4478 L -12.7029,-71.627 L -12.7382,-71.812
 L -12.75,-72 L -12.7382,-72.188 L -12.7029,-72.373 L -12.6447,-72.5522 L -12.5645,-72.7226 L -12.4635,-72.8817
 L -12.3434,-73.0268 L -12.2061,-73.1558 L -12.0537,-73.2665 L -11.8887,-73.3572 L -11.7135,-73.4266 L -11.5311,-73.4734
 L -11.3442,-73.497 L -11.1558,-73.497 L -10.9689,-73.4734 L -10.7865,-73.4266 L -10.6113,-73.3572 L -10.4463,-73.2665
 L -10.2939,-73.1558 L -10.1565,-73.0268 L -10.0365,-72.8817 L -9.93553,-72.7226 L -9.85533,-72.5522 L -9.79712,-72.373
 L -9.76183,-72.188 L -9.75,-72 L -9.76183,-71.812 L -9.79712,-71.627 L -9.85533,-71.4478 L -9.93553,-71.2774
 L -10.0365,-71.1183 L -10.1565,-70.9732 L -10.2939,-70.8442 L -10.4463,-70.7335 L -10.6113,-70.6428 L -10.7865,-70.5734
 L -10.9689,-70.5266 L -11.1558,-70.503 z
M -18.8442,-70.503 L -19.0311,-70.5266 L -19.2135,-70.5734 L -19.3887,-70.6428 L -19.5537,-70.7335 L -19.7061,-70.8442
 L -19.8434,-70.9732 L -19.9635,-71.1183 L -20.0645,-71.2774 L -20.1447,-71.4478 L -20.2029,-71.627 L -20.2382,-71.812
 L -20.25,-72 L -20.2382,-72.188 L -20.2029,-72.373 L -20.1447,-72.5522 L -20.0645,-72.7226 L -19.9635,-72.8817
 L -19.8434,-73.0268 L -19.7061,-73.1558 L -19.5537,-73.2665 L -19.3887,-73.3572 L -19.2135,-73.4266 L -19.0311,-73.4734
 L -18.8442,-73.497 L -18.6558,-73.497 L -18.4689,-73.4734 L -18.2865,-73.4266 L -18.1113,-73.3572 L -17.9463,-73.2665
 L -17.7939,-73.1558 L -17.6565,-73.0268 L -17.5365,-72.8817 L -17.4355,-72.7226 L -17.3553,-72.5522 L -17.2971,-72.373
 L -17.2618,-72.188 L -17.25,-72 L -17.2618,-71.812 L -17.2971,-71.627 L -17.3553,-71.4478 L -17.4355,-71.2774
 L -17.5365,-71.1183 L -17.6565,-70.9732 L -17.7939,-70.8442 L -17.9463,-70.7335 L -18.1113,-70.6428 L -18.2865,-70.5734
 L -18.4689,-70.5266 L -18.6558,-70.503 z
M -3.84418,-70.503 L -4.03107,-70.5266 L -4.21352,-70.5734 L -4.38866,-70.6428 L -4.55373,-70.7335 L -4.70613,-70.8442
 L -4.84344,-70.9732 L -4.96352,-71.1183 L -5.06445,-71.2774 L -5.14465,-71.4478 L -5.20287,-71.627 L -5.23816,-71.812
 L -5.25,-72 L -5.23816,-72.188 L -5.20287,-72.373 L -5.14465,-72.5522 L -5.06445,-72.7226 L -4.96352,-72.8817
 L -4.84344,-73.0268 L -4.70613,-73.1558 L -4.55373,-73.2665 L -4.38866,-73.3572 L -4.21352,-73.4266 L -4.03107,-73.4734
 L -3.84418,-73.497 L -3.65581,-73.497 L -3.46892,-73.4734 L -3.28647,-73.4266 L -3.11133,-73.3572 L -2.94626,-73.2665
 L -2.79385,-73.1558 L -2.65654,-73.0268 L -2.53647,-72.8817 L -2.43553,-72.7226 L -2.35533,-72.5522 L -2.29712,-72.373
 L -2.26183,-72.188 L -2.25,-72 L -2.26183,-71.812 L -2.29712,-71.627 L -2.35533,-71.4478 L -2.43553,-71.2774
 L -2.53647,-71.1183 L -2.65654,-70.9732 L -2.79385,-70.8442 L -2.94626,-70.7335 L -3.11133,-70.6428 L -3.28647,-70.5734
 L -3.46892,-70.5266 L -3.65581,-70.503 z
M -63.8442,-70.503 L -64.0311,-70.5266 L -64.2135,-70.5734 L -64.3887,-70.6428 L -64.5537,-70.7335 L -64.7061,-70.8442
 L -64.8434,-70.9732 L -64.9635,-71.1183 L -65.0645,-71.2774 L -65.1447,-71.4478 L -65.2029,-71.627 L -65.2382,-71.812
 L -65.25,-72 L -65.2382,-72.188 L -65.2029,-72.373 L -65.1447,-72.5522 L -65.0645,-72.7226 L -64.9635,-72.8817
 L -64.8434,-73.0268 L -64.7061,-73.1558 L -64.5537,-73.2665 L -64.3887,-73.3572 L -64.2135,-73.4266 L -64.0311,-73.4734
 L -63.8442,-73.497 L -63.6558,-73.497 L -63.4689,-73.4734 L -63.2865,-73.4266 L -63.1113,-73.3572 L -62.9463,-73.2665
 L -62.7939,-73.1558 L -62.6565,-73.0268 L -62.5365,-72.8817 L -62.4355,-72.7226 L -62.3553,-72.5522 L -62.2971,-72.373
 L -62.2618,-72.188 L -62.25,-72 L -62.2618,-71.812 L -62.2971,-71.627 L -62.3553,-71.4478 L -62.4355,-71.2774
 L -62.5365,-71.1183 L -62.6565,-70.9732 L -62.7939,-70.8442 L -62.9463,-70.7335 L -63.1113,-70.6428 L -63.2865,-70.5734
 L -63.4689,-70.5266 L -63.6558,-70.503 z
M -71.3442,-70.503 L -71.5311,-70.5266 L -71.7135,-70.5734 L -71.8887,-70.6428 L -72.0537,-70.7335 L -72.2061,-70.8442
 L -72.3434,-70.9732 L -72.4635,-71.1183 L -72.5645,-71.2774 L -72.6447,-71.4478 L -72.7029,-71.627 L -72.7382,-71.812
 L -72.75,-72 L -72.7382,-72.188 L -72.7029,-72.373 L -72.6447,-72.5522 L -72.5645,-72.7226 L -72.4635,-72.8817
 L -72.3434,-73.0268 L -72.2061,-73.1558 L -72.0537,-73.2665 L -71.8887,-73.3572 L -71.7135,-73.4266 L -71.5311,-73.4734
 L -71.3442,-73.497 L -71.1558,-73.497 L -70.9689,-73.4734 L -70.7865,-73.4266 L -70.6113,-73.3572 L -70.4463,-73.2665
 L -70.2939,-73.1558 L -70.1565,-73.0268 L -70.0365,-72.8817 L -69.9355,-72.7226 L -69.8553,-72.5522 L -69.7971,-72.373
 L -69.7618,-72.188 L -69.75,-72 L -69.7618,-71.812 L -69.7971,-71.627 L -69.8553,-71.4478 L -69.9355,-71.2774
 L -70.0365,-71.1183 L -70.1565,-70.9732 L -70.2939,-70.8442 L -70.4463,-70.7335 L -70.6113,-70.6428 L -70.7865,-70.5734
 L -70.9689,-70.5266 L -71.1558,-70.503 z
M -56.3442,-70.503 L -56.5311,-70.5266 L -56.7135,-70.5734 L -56.8887,-70.6428 L -57.0537,-70.7335 L -57.2061,-70.8442
 L -57.3434,-70.9732 L -57.4635,-71.1183 L -57.5645,-71.2774 L -57.6447,-71.4478 L -57.7029,-71.627 L -57.7382,-71.812
 L -57.75,-72 L -57.7382,-72.188 L -57.7029,-72.373 L -57.6447,-72.5522 L -57.5645,-72.7226 L -57.4635,-72.8817
 L -57.3434,-73.0268 L -57.2061,-73.1558 L -57.0537,-73.2665 L -56.8887,-73.3572 L -56.7135,-73.4266 L -56.5311,-73.4734
 L -56.3442,-73.497 L -56.1558,-73.497 L -55.9689,-73.4734 L -55.7865,-73.4266 L -55.6113,-73.3572 L -55.4463,-73.2665
 L -55.2939,-73.1558 L -55.1565,-73.0268 L -55.0365,-72.8817 L -54.9355,-72.7226 L -54.8553,-72.5522 L -54.7971,-72.373
 L -54.7618,-72.188 L -54.75,-72 L -54.7618,-71.812 L -54.7971,-71.627 L -54.8553,-71.4478 L -54.9355,-71.2774
 L -55.0365,-71.1183 L -55.1565,-70.9732 L -55.2939,-70.8442 L -55.4463,-70.7335 L -55.6113,-70.6428 L -55.7865,-70.5734
 L -55.9689,-70.5266 L -56.1558,-70.503 z
M -48.8442,-70.503 L -49.0311,-70.5266 L -49.2135,-70.5734 L -49.3887,-70.6428 L -49.5537,-70.7335 L -49.7061,-70.8442
 L -49.8434,-70.9732 L -49.9635,-71.1183 L -50.0645,-71.2774 L -50.1447,-71.4478 L -50.2029,-71.627 L -50.2382,-71.812
 L -50.25,-72 L -50.2382,-72.188 L -50.2029,-72.373 L -50.1447,-72.5522 L -50.0645,-72.7226 L -49.9635,-72.8817
 L -49.8434,-73.0268 L -49.7061,-73.1558 L -49.5537,-73.2665 L -49.3887,-73.3572 L -49.2135,-73.4266 L -49.0311,-73.4734
 L -48.8442,-73.497 L -48.6558,-73.497 L -48.4689,-73.4734 L -48.2865,-73.4266 L -48.1113,-73.3572 L -47.9463,-73.2665
 L -47.7939,-73.1558 L -47.6565,-73.0268 L -47.5365,-72.8817 L -47.4355,-72.7226 L -47.3553,-72.5522 L -47.2971,-72.373
 L -47.2618,-72.188 L -47.25,-72 L -47.2618,-71.812 L -47.2971,-71.627 L -47.3553,-71.4478 L -47.4355,-71.2774
 L -47.5365,-71.1183 L -47.6565,-70.9732 L -47.7939,-70.8442 L -47.9463,-70.7335 L -48.1113,-70.6428 L -48.2865,-70.5734
 L -48.4689,-70.5266 L -48.6558,-70.503 z
M 3.65581,-70.503 L 3.46892,-70.5266 L 3.28647,-70.5734 L 3.11133,-70.6428 L 2.94626,-70.7335 L 2.79385,-70.8442
 L 2.65654,-70.9732 L 2.53647,-71.1183 L 2.43553,-71.2774 L 2.35533,-71.4478 L 2.29712,-71.627 L 2.26183,-71.812
 L 2.25,-72 L 2.26183,-72.188 L 2.29712,-72.373 L 2.35533,-72.5522 L 2.43553,-72.7226 L 2.53647,-72.8817
 L 2.65654,-73.0268 L 2.79385,-73.1558 L 2.94626,-73.2665 L 3.11133,-73.3572 L 3.28647,-73.4266 L 3.46892,-73.4734
 L 3.65581,-73.497 L 3.84418,-73.497 L 4.03107,-73.4734 L 4.21352,-73.4266 L 4.38866,-73.3572 L 4.55373,-73.2665
 L 4.70613,-73.1558 L 4.84344,-73.0268 L 4.96352,-72.8817 L 5.06445,-72.7226 L 5.14465,-72.5522 L 5.20287,-72.373
 L 5.23816,-72.188 L 5.25,-72 L 5.23816,-71.812 L 5.20287,-71.627 L 5.14465,-71.4478 L 5.06445,-71.2774
 L 4.96352,-71.1183 L 4.84344,-70.9732 L 4.70613,-70.8442 L 4.55373,-70.7335 L 4.38866,-70.6428 L 4.21352,-70.5734
 L 4.03107,-70.5266 L 3.84418,-70.503 z
M -26.3442,-70.503 L -26.5311,-70.5266 L -26.7135,-70.5734 L -26.8887,-70.6428 L -27.0537,-70.7335 L -27.2061,-70.8442
 L -27.3434,-70.9732 L -27.4635,-71.1183 L -27.5645,-71.2774 L -27.6447,-71.4478 L -27.7029,-71.627 L -27.7382,-71.812
 L -27.75,-72 L -27.7382,-72.188 L -27.7029,-72.373 L -27.6447,-72.5522 L -27.5645,-72.7226 L -27.4635,-72.8817
 L -27.3434,-73.0268 L -27.2061,-73.1558 L -27.0537,-73.2665 L -26.8887,-73.3572 L -26.7135,-73.4266 L -26.5311,-73.4734
 L -26.3442,-73.497 L -26.1558,-73.497 L -25.9689,-73.4734 L -25.7865,-73.4266 L -25.6113,-73.3572 L -25.4463,-73.2665
 L -25.2939,-73.1558 L -25.1565,-73.0268 L -25.0365,-72.8817 L -24.9355,-72.7226 L -24.8553,-72.5522 L -24.7971,-72.373
 L -24.7618,-72.188 L -24.75,-72 L -24.7618,-71.812 L -24.7971,-71.627 L -24.8553,-71.4478 L -24.9355,-71.2774
 L -25.0365,-71.1183 L -25.1565,-70.9732 L -25.2939,-70.8442 L -25.4463,-70.7335 L -25.6113,-70.6428 L -25.7865,-70.5734
 L -25.9689,-70.5266 L -26.1558,-70.503 z
M -33.8442,-70.503 L -34.0311,-70.5266 L -34.2135,-70.5734 L -34.3887,-70.6428 L -34.5537,-70.7335 L -34.7061,-70.8442
 L -34.8434,-70.9732 L -34.9635,-71.1183 L -35.0645,-71.2774 L -35.1447,-71.4478 L -35.2029,-71.627 L -35.2382,-71.812
 L -35.25,-72 L -35.2382,-72.188 L -35.2029,-72.373 L -35.1447,-72.5522 L -35.0645,-72.7226 L -34.9635,-72.8817
 L -34.8434,-73.0268 L -34.7061,-73.1558 L -34.5537,-73.2665 L -34.3887,-73.3572 L -34.2135,-73.4266 L -34.0311,-73.4734
 L -33.8442,-73.497 L -33.6558,-73.497 L -33.4689,-73.4734 L -33.2865,-73.4266 L -33.1113,-73.3572 L -32.9463,-73.2665
 L -32.7939,-73.1558 L -32.6565,-73.0268 L -32.5365,-72.8817 L -32.4355,-72.7226 L -32.3553,-72.5522 L -32.2971,-72.373
 L -32.2618,-72.188 L -32.25,-72 L -32.2618,-71.812 L -32.2971,-71.627 L -32.3553,-71.4478 L -32.4355,-71.2774
 L -32.5365,-71.1183 L -32.6565,-70.9732 L -32.7939,-70.8442 L -32.9463,-70.7335 L -33.1113,-70.6428 L -33.2865,-70.5734
 L -33.4689,-70.5266 L -33.6558,-70.503 z
M 71.1558,-70.503 L 70.9689,-70.5266 L 70.7865,-70.5734 L 70.6113,-70.6428 L 70.4463,-70.7335 L 70.2939,-70.8442
 L 70.1565,-70.9732 L 70.0365,-71.1183 L 69.9355,-71.2774 L 69.8553,-71.4478 L 69.7971,-71.627 L 69.7618,-71.812
 L 69.75,-72 L 69.7618,-72.188 L 69.7971,-72.373 L 69.8553,-72.5522 L 69.9355,-72.7226 L 70.0365,-72.8817
 L 70.1565,-73.0268 L 70.2939,-73.1558 L 70.4463,-73.2665 L 70.6113,-73.3572 L 70.7865,-73.4266 L 70.9689,-73.4734
 L 71.1558,-73.497 L 71.3442,-73.497 L 71.5311,-73.4734 L 71.7135,-73.4266 L 71.8887,-73.3572 L 72.0537,-73.2665
 L 72.2061,-73.1558 L 72.3434,-73.0268 L 72.4635,-72.8817 L 72.5645,-72.7226 L 72.6447,-72.5522 L 72.7029,-72.373
 L 72.7382,-72.188 L 72.75,-72 L 72.7382,-71.812 L 72.7029,-71.627 L 72.6447,-71.4478 L 72.5645,-71.2774
 L 72.4635,-71.1183 L 72.3434,-70.9732 L 72.2061,-70.8442 L 72.0537,-70.7335 L 71.8887,-70.6428 L 71.7135,-70.5734
 L 71.5311,-70.5266 L 71.3442,-70.503 z
M -78.8442,-70.503 L -79.0311,-70.5266 L -79.2135,-70.5734 L -79.3887,-70.6428 L -79.5537,-70.7335 L -79.7061,-70.8442
 L -79.8434,-70.9732 L -79.9635,-71.1183 L -80.0645,-71.2774 L -80.1447,-71.4478 L -80.2029,-71.627 L -80.2382,-71.812
 L -80.25,-72 L -80.2382,-72.188 L -80.2029,-72.373 L -80.1447,-72.5522 L -80.0645,-72.7226 L -79.9635,-72.8817
 L -79.8434,-73.0268 L -79.7061,-73.1558 L -79.5537,-73.2665 L -79.3887,-73.3572 L -79.2135,-73.4266 L -79.0311,-73.4734
 L -78.8442,-73.497 L -78.6558,-73.497 L -78.4689,-73.4734 L -78.2865,-73.4266 L -78.1113,-73.3572 L -77.9463,-73.2665
 L -77.7939,-73.1558 L -77.6565,-73.0268 L -77.5365,-72.8817 L -77.4355,-72.7226 L -77.3553,-72.5522 L -77.2971,-72.373
 L -77.2618,-72.188 L -77.25,-72 L -77.2618,-71.812 L -77.2971,-71.627 L -77.3553,-71.4478 L -77.4355,-71.2774
 L -77.5365,-71.1183 L -77.6565,-70.9732 L -77.7939,-70.8442 L -77.9463,-70.7335 L -78.1113,-70.6428 L -78.2865,-70.5734
 L -78.4689,-70.5266 L -78.6558,-70.503 z
M 78.6558,-70.503 L 78.4689,-70.5266 L 78.2865,-70.5734 L 78.1113,-70.6428 L 77.9463,-70.7335 L 77.7939,-70.8442
 L 77.6565,-70.9732 L 77.5365,-71.1183 L 77.4355,-71.2774 L 77.3553,-71.4478 L 77.2971,-71.627 L 77.2618,-71.812
 L 77.25,-72 L 77.2618,-72.188 L 77.2971,-72.373 L 77.3553,-72.5522 L 77.4355,-72.7226 L 77.5365,-72.8817
 L 77.6565,-73.0268 L 77.7939,-73.1558 L 77.9463,-73.2665 L 78.1113,-73.3572 L 78.2865,-73.4266 L 78.4689,-73.4734
 L 78.6558,-73.497 L 78.8442,-73.497 L 79.0311,-73.4734 L 79.2135,-73.4266 L 79.3887,-73.3572 L 79.5537,-73.2665
 L 79.7061,-73.1558 L 79.8434,-73.0268 L 79.9635,-72.8817 L 80.0645,-72.7226 L 80.1447,-72.5522 L 80.2029,-72.373
 L 80.2382,-72.188 L 80.25,-72 L 80.2382,-71.812 L 80.2029,-71.627 L 80.1447,-71.4478 L 80.0645,-71.2774
 L 79.9635,-71.1183 L 79.8434,-70.9732 L 79.7061,-70.8442 L 79.5537,-70.7335 L 79.3887,-70.6428 L 79.2135,-70.5734
 L 79.0311,-70.5266 L 78.8442,-70.503 z
M 56.1558,-70.503 L 55.9689,-70.5266 L 55.7865,-70.5734 L 55.6113,-70.6428 L 55.4463,-70.7335 L 55.2939,-70.8442
 L 55.1565,-70.9732 L 55.0365,-71.1183 L 54.9355,-71.2774 L 54.8553,-71.4478 L 54.7971,-71.627 L 54.7618,-71.812
 L 54.75,-72 L 54.7618,-72.188 L 54.7971,-72.373 L 54.8553,-72.5522 L 54.9355,-72.7226 L 55.0365,-72.8817
 L 55.1565,-73.0268 L 55.2939,-73.1558 L 55.4463,-73.2665 L 55.6113,-73.3572 L 55.7865,-73.4266 L 55.9689,-73.4734
 L 56.1558,-73.497 L 56.3442,-73.497 L 56.5311,-73.4734 L 56.7135,-73.4266 L 56.8887,-73.3572 L 57.0537,-73.2665
 L 57.2061,-73.1558 L 57.3434,-73.0268 L 57.4635,-72.8817 L 57.5645,-72.7226 L 57.6447,-72.5522 L 57.7029,-72.373
 L 57.7382,-72.188 L 57.75,-72 L 57.7382,-71.812 L 57.7029,-71.627 L 57.6447,-71.4478 L 57.5645,-71.2774
 L 57.4635,-71.1183 L 57.3434,-70.9732 L 57.2061,-70.8442 L 57.0537,-70.7335 L 56.8887,-70.6428 L 56.7135,-70.5734
 L 56.5311,-70.5266 L 56.3442,-70.503 z
M 11.1558,-70.503 L 10.9689,-70.5266 L 10.7865,-70.5734 L 10.6113,-70.6428 L 10.4463,-70.7335 L 10.2939,-70.8442
 L 10.1565,-70.9732 L 10.0365,-71.1183 L 9.93553,-71.2774 L 9.85533,-71.4478 L 9.79712,-71.627 L 9.76183,-71.812
 L 9.75,-72 L 9.76183,-72.188 L 9.79712,-72.373 L 9.85533,-72.5522 L 9.93553,-72.7226 L 10.0365,-72.8817
 L 10.1565,-73.0268 L 10.2939,-73.1558 L 10.4463,-73.2665 L 10.6113,-73.3572 L 10.7865,-73.4266 L 10.9689,-73.4734
 L 11.1558,-73.497 L 11.3442,-73.497 L 11.5311,-73.4734 L 11.7135,-73.4266 L 11.8887,-73.3572 L 12.0537,-73.2665
 L 12.2061,-73.1558 L 12.3434,-73.0268 L 12.4635,-72.8817 L 12.5645,-72.7226 L 12.6447,-72.5522 L 12.7029,-72.373
 L 12.7382,-72.188 L 12.75,-72 L 12.7382,-71.812 L 12.7029,-71.627 L 12.6447,-71.4478 L 12.5645,-71.2774
 L 12.4635,-71.1183 L 12.3434,-70.9732 L 12.2061,-70.8442 L 12.0537,-70.7335 L 11.8887,-70.6428 L 11.7135,-70.5734
 L 11.5311,-70.5266 L 11.3442,-70.503 z
M 48.6558,-70.503 L 48.4689,-70.5266 L 48.2865,-70.5734 L 48.1113,-70.6428 L 47.9463,-70.7335 L 47.7939,-70.8442
 L 47.6565,-70.9732 L 47.5365,-71.1183 L 47.4355,-71.2774 L 47.3553,-71.4478 L 47.2971,-71.627 L 47.2618,-71.812
 L 47.25,-72 L 47.2618,-72.188 L 47.2971,-72.373 L 47.3553,-72.5522 L 47.4355,-72.7226 L 47.5365,-72.8817
 L 47.6565,-73.0268 L 47.7939,-73.1558 L 47.9463,-73.2665 L 48.1113,-73.3572 L 48.2865,-73.4266 L 48.4689,-73.4734
 L 48.6558,-73.497 L 48.8442,-73.497 L 49.0311,-73.4734 L 49.2135,-73.4266 L 49.3887,-73.3572 L 49.5537,-73.2665
 L 49.7061,-73.1558 L 49.8434,-73.0268 L 49.9635,-72.8817 L 50.0645,-72.7226 L 50.1447,-72.5522 L 50.2029,-72.373
 L 50.2382,-72.188 L 50.25,-72 L 50.2382,-71.812 L 50.2029,-71.627 L 50.1447,-71.4478 L 50.0645,-71.2774
 L 49.9635,-71.1183 L 49.8434,-70.9732 L 49.7061,-70.8442 L 49.5537,-70.7335 L 49.3887,-70.6428 L 49.2135,-70.5734
 L 49.0311,-70.5266 L 48.8442,-70.503 z
M 33.6558,-70.503 L 33.4689,-70.5266 L 33.2865,-70.5734 L 33.1113,-70.6428 L 32.9463,-70.7335 L 32.7939,-70.8442
 L 32.6565,-70.9732 L 32.5365,-71.1183 L 32.4355,-71.2774 L 32.3553,-71.4478 L 32.2971,-71.627 L 32.2618,-71.812
 L 32.25,-72 L 32.2618,-72.188 L 32.2971,-72.373 L 32.3553,-72.5522 L 32.4355,-72.7226 L 32.5365,-72.8817
 L 32.6565,-73.0268 L 32.7939,-73.1558 L 32.9463,-73.2665 L 33.1113,-73.3572 L 33.2865,-73.4266 L 33.4689,-73.4734
 L 33.6558,-73.497 L 33.8442,-73.497 L 34.0311,-73.4734 L 34.2135,-73.4266 L 34.3887,-73.3572 L 34.5537,-73.2665
 L 34.7061,-73.1558 L 34.8434,-73.0268 L 34.9635,-72.8817 L 35.0645,-72.7226 L 35.1447,-72.5522 L 35.2029,-72.373
 L 35.2382,-72.188 L 35.25,-72 L 35.2382,-71.812 L 35.2029,-71.627 L 35.1447,-71.4478 L 35.0645,-71.2774
 L 34.9635,-71.1183 L 34.8434,-70.9732 L 34.7061,-70.8442 L 34.5537,-70.7335 L 34.3887,-70.6428 L 34.2135,-70.5734
 L 34.0311,-70.5266 L 33.8442,-70.503 z
M 41.1558,-70.503 L 40.9689,-70.5266 L 40.7865,-70.5734 L 40.6113,-70.6428 L 40.4463,-70.7335 L 40.2939,-70.8442
 L 40.1565,-70.9732 L 40.0365,-71.1183 L 39.9355,-71.2774 L 39.8553,-71.4478 L 39.7971,-71.627 L 39.7618,-71.812
 L 39.75,-72 L 39.7618,-72.188 L 39.7971,-72.373 L 39.8553,-72.5522 L 39.9355,-72.7226 L 40.0365,-72.8817
 L 40.1565,-73.0268 L 40.2939,-73.1558 L 40.4463,-73.2665 L 40.6113,-73.3572 L 40.7865,-73.4266 L 40.9689,-73.4734
 L 41.1558,-73.497 L 41.3442,-73.497 L 41.5311,-73.4734 L 41.7135,-73.4266 L 41.8887,-73.3572 L 42.0537,-73.2665
 L 42.2061,-73.1558 L 42.3434,-73.0268 L 42.4635,-72.8817 L 42.5645,-72.7226 L 42.6447,-72.5522 L 42.7029,-72.373
 L 42.7382,-72.188 L 42.75,-72 L 42.7382,-71.812 L 42.7029,-71.627 L 42.6447,-71.4478 L 42.5645,-71.2774
 L 42.4635,-71.1183 L 42.3434,-70.9732 L 42.2061,-70.8442 L 42.0537,-70.7335 L 41.8887,-70.6428 L 41.7135,-70.5734
 L 41.5311,-70.5266 L 41.3442,-70.503 z
M 18.6558,-70.503 L 18.4689,-70.5266 L 18.2865,-70.5734 L 18.1113,-70.6428 L 17.9463,-70.7335 L 17.7939,-70.8442
 L 17.6565,-70.9732 L 17.5365,-71.1183 L 17.4355,-71.2774 L 17.3553,-71.4478 L 17.2971,-71.627 L 17.2618,-71.812
 L 17.25,-72 L 17.2618,-72.188 L 17.2971,-72.373 L 17.3553,-72.5522 L 17.4355,-72.7226 L 17.5365,-72.8817
 L 17.6565,-73.0268 L 17.7939,-73.1558 L 17.9463,-73.2665 L 18.1113,-73.3572 L 18.2865,-73.4266 L 18.4689,-73.4734
 L 18.6558,-73.497 L 18.8442,-73.497 L 19.0311,-73.4734 L 19.2135,-73.4266 L 19.3887,-73.3572 L 19.5537,-73.2665
 L 19.7061,-73.1558 L 19.8434,-73.0268 L 19.9635,-72.8817 L 20.0645,-72.7226 L 20.1447,-72.5522 L 20.2029,-72.373
 L 20.2382,-72.188 L 20.25,-72 L 20.2382,-71.812 L 20.2029,-71.627 L 20.1447,-71.4478 L 20.0645,-71.2774
 L 19.9635,-71.1183 L 19.8434,-70.9732 L 19.7061,-70.8442 L 19.5537,-70.7335 L 19.3887,-70.6428 L 19.2135,-70.5734
 L 19.0311,-70.5266 L 18.8442,-70.503 z
M 26.1558,-70.503 L 25.9689,-70.5266 L 25.7865,-70.5734 L 25.6113,-70.6428 L 25.4463,-70.7335 L 25.2939,-70.8442
 L 25.1565,-70.9732 L 25.0365,-71.1183 L 24.9355,-71.2774 L 24.8553,-71.4478 L 24.7971,-71.627 L 24.7618,-71.812
 L 24.75,-72 L 24.7618,-72.188 L 24.7971,-72.373 L 24.8553,-72.5522 L 24.9355,-72.7226 L 25.0365,-72.8817
 L 25.1565,-73.0268 L 25.2939,-73.1558 L 25.4463,-73.2665 L 25.6113,-73.3572 L 25.7865,-73.4266 L 25.9689,-73.4734
 L 26.1558,-73.497 L 26.3442,-73.497 L 26.5311,-73.4734 L 26.7135,-73.4266 L 26.8887,-73.3572 L 27.0537,-73.2665
 L 27.2061,-73.1558 L 27.3434,-73.0268 L 27.4635,-72.8817 L 27.5645,-72.7226 L 27.6447,-72.5522 L 27.7029,-72.373
 L 27.7382,-72.188 L 27.75,-72 L 27.7382,-71.812 L 27.7029,-71.627 L 27.6447,-71.4478 L 27.5645,-71.2774
 L 27.4635,-71.1183 L 27.3434,-70.9732 L 27.2061,-70.8442 L 27.0537,-70.7335 L 26.8887,-70.6428 L 26.7135,-70.5734
 L 26.5311,-70.5266 L 26.3442,-70.503 z
M 80.2184,-44.5443 L 80.5225,-44.6224 L 80.8144,-44.7379 L 81.0896,-44.8892 L 81.3436,-45.0737 L 81.5724,-45.2886
 L 81.7725,-45.5305 L 81.9408,-45.7956 L 82.0744,-46.0797 L 82.1714,-46.3783 L 82.2303,-46.6867 L 82.25,-47
 L 82.25,-49 L 82.2303,-49.3133 L 82.1714,-49.6217 L 82.0744,-49.9203 L 81.9408,-50.2044 L 81.7725,-50.4695
 L 81.5724,-50.7114 L 81.3436,-50.9263 L 81.0896,-51.1108 L 80.8144,-51.2621 L 80.5225,-51.3776 L 80.2184,-51.4557
 L 79.907,-51.4951 L -79.907,-51.4951 L -80.2184,-51.4557 L -80.5225,-51.3776 L -80.8144,-51.2621 L -81.0896,-51.1108
 L -81.3436,-50.9263 L -81.5724,-50.7114 L -81.7725,-50.4695 L -81.9408,-50.2044 L -82.0744,-49.9203 L -82.1714,-49.6217
 L -82.2303,-49.3133 L -82.25,-49 L -82.25,-47 L -82.2303,-46.6867 L -82.1714,-46.3783 L -82.0744,-46.0797
 L -81.9408,-45.7956 L -81.7725,-45.5305 L -81.5724,-45.2886 L -81.3436,-45.0737 L -81.0896,-44.8892 L -80.8144,-44.7379
 L -80.5225,-44.6224 L -80.2184,-44.5443 L -79.907,-44.5049 L 79.907,-44.5049 z
M -41.3442,-46.503 L -41.5311,-46.5266 L -41.7135,-46.5734 L -41.8887,-46.6428 L -42.0537,-46.7335 L -42.2061,-46.8442
 L -42.3434,-46.9732 L -42.4635,-47.1183 L -42.5645,-47.2774 L -42.6447,-47.4478 L -42.7029,-47.627 L -42.7382,-47.812
 L -42.75,-48 L -42.7382,-48.188 L -42.7029,-48.373 L -42.6447,-48.5522 L -42.5645,-48.7226 L -42.4635,-48.8817
 L -42.3434,-49.0268 L -42.2061,-49.1558 L -42.0537,-49.2665 L -41.8887,-49.3572 L -41.7135,-49.4266 L -41.5311,-49.4734
 L -41.3442,-49.497 L -41.1558,-49.497 L -40.9689,-49.4734 L -40.7865,-49.4266 L -40.6113,-49.3572 L -40.4463,-49.2665
 L -40.2939,-49.1558 L -40.1565,-49.0268 L -40.0365,-48.8817 L -39.9355,-48.7226 L -39.8553,-48.5522 L -39.7971,-48.373
 L -39.7618,-48.188 L -39.75,-48 L -39.7618,-47.812 L -39.7971,-47.627 L -39.8553,-47.4478 L -39.9355,-47.2774
 L -40.0365,-47.1183 L -40.1565,-46.9732 L -40.2939,-46.8442 L -40.4463,-46.7335 L -40.6113,-46.6428 L -40.7865,-46.5734
 L -40.9689,-46.5266 L -41.1558,-46.503 z
M 63.6558,-46.503 L 63.4689,-46.5266 L 63.2865,-46.5734 L 63.1113,-46.6428 L 62.9463,-46.7335 L 62.7939,-46.8442
 L 62.6565,-46.9732 L 62.5365,-47.1183 L 62.4355,-47.2774 L 62.3553,-47.4478 L 62.2971,-47.627 L 62.2618,-47.812
 L 62.25,-48 L 62.2618,-48.188 L 62.2971,-48.373 L 62.3553,-48.5522 L 62.4355,-48.7226 L 62.5365,-48.8817
 L 62.6565,-49.0268 L 62.7939,-49.1558 L 62.9463,-49.2665 L 63.1113,-49.3572 L 63.2865,-49.4266 L 63.4689,-49.4734
 L 63.6558,-49.497 L 63.8442,-49.497 L 64.0311,-49.4734 L 64.2135,-49.4266 L 64.3887,-49.3572 L 64.5537,-49.2665
 L 64.7061,-49.1558 L 64.8434,-49.0268 L 64.9635,-48.8817 L 65.0645,-48.7226 L 65.1447,-48.5522 L 65.2029,-48.373
 L 65.2382,-48.188 L 65.25,-48 L 65.2382,-47.812 L 65.2029,-47.627 L 65.1447,-47.4478 L 65.0645,-47.2774
 L 64.9635,-47.1183 L 64.8434,-46.9732 L 64.7061,-46.8442 L 64.5537,-46.7335 L 64.3887,-46.6428 L 64.2135,-46.5734
 L 64.0311,-46.5266 L 63.8442,-46.503 z
M -11.3442,-46.503 L -11.5311,-46.5266 L -11.7135,-46.5734 L -11.8887,-46.6428 L -12.0537,-46.7335 L -12.2061,-46.8442
 L -12.3434,-46.9732 L -12.4635,-47.1183 L -12.5645,-47.2774 L -12.6447,-47.4478 L -12.7029,-47.627 L -12.7382,-47.812
 L -12.75,-48 L -12.7382,-48.188 L -12.7029,-48.373 L -12.6447,-48.5522 L -12.5645,-48.7226 L -12.4635,-48.8817
 L -12.3434,-49.0268 L -12.2061,-49.1558 L -12.0537,-49.2665 L -11.8887,-49.3572 L -11.7135,-49.4266 L -11.5311,-49.4734
 L -11.3442,-49.497 L -11.1558,-49.497 L -10.9689,-49.4734 L -10.7865,-49.4266 L -10.6113,-49.3572 L -10.4463,-49.2665
 L -10.2939,-49.1558 L -10.1565,-49.0268 L -10.0365,-48.8817 L -9.93553,-48.7226 L -9.85533,-48.5522 L -9.79712,-48.373
 L -9.76183,-48.188 L -9.75,-48 L -9.76183,-47.812 L -9.79712,-47.627 L -9.85533,-47.4478 L -9.93553,-47.2774
 L -10.0365,-47.1183 L -10.1565,-46.9732 L -10.2939,-46.8442 L -10.4463,-46.7335 L -10.6113,-46.6428 L -10.7865,-46.5734
 L -10.9689,-46.5266 L -11.1558,-46.503 z
M -18.8442,-46.503 L -19.0311,-46.5266 L -19.2135,-46.5734 L -19.3887,-46.6428 L -19.5537,-46.7335 L -19.7061,-46.8442
 L -19.8434,-46.9732 L -19.9635,-47.1183 L -20.0645,-47.2774 L -20.1447,-47.4478 L -20.2029,-47.627 L -20.2382,-47.812
 L -20.25,-48 L -20.2382,-48.188 L -20.2029,-48.373 L -20.1447,-48.5522 L -20.0645,-48.7226 L -19.9635,-48.8817
 L -19.8434,-49.0268 L -19.7061,-49.1558 L -19.5537,-49.2665 L -19.3887,-49.3572 L -19.2135,-49.4266 L -19.0311,-49.4734
 L -18.8442,-49.497 L -18.6558,-49.497 L -18.4689,-49.4734 L -18.2865,-49.4266 L -18.1113,-49.3572 L -17.9463,-49.2665
 L -17.7939,-49.1558 L -17.6565,-49.0268 L -17.5365,-48.8817 L -17.4355,-48.7226 L -17.3553,-48.5522 L -17.2971,-48.373
 L -17.2618,-48.188 L -17.25,-48 L -17.2618,-47.812 L -17.2971,-47.627 L -17.3553,-47.4478 L -17.4355,-47.2774
 L -17.5365,-47.1183 L -17.6565,-46.9732 L -17.7939,-46.8442 L -17.9463,-46.7335 L -18.1113,-46.6428 L -18.2865,-46.5734
 L -18.4689,-46.5266 L -18.6558,-46.503 z
M -3.84418,-46.503 L -4.03107,-46.5266 L -4.21352,-46.5734 L -4.38866,-46.6428 L -4.55373,-46.7335 L -4.70613,-46.8442
 L -4.84344,-46.9732 L -4.96352,-47.1183 L -5.06445,-47.2774 L -5.14465,-47.4478 L -5.20287,-47.627 L -5.23816,-47.812
 L -5.25,-48 L -5.23816,-48.188 L -5.20287,-48.373 L -5.14465,-48.5522 L -5.06445,-48.7226 L -4.96352,-48.8817
 L -4.84344,-49.0268 L -4.70613,-49.1558 L -4.55373,-49.2665 L -4.38866,-49.3572 L -4.21352,-49.4266 L -4.03107,-49.4734
 L -3.84418,-49.497 L -3.65581,-49.497 L -3.46892,-49.4734 L -3.28647,-49.4266 L -3.11133,-49.3572 L -2.94626,-49.2665
 L -2.79385,-49.1558 L -2.65654,-49.0268 L -2.53647,-48.8817 L -2.43553,-48.7226 L -2.35533,-48.5522 L -2.29712,-48.373
 L -2.26183,-48.188 L -2.25,-48 L -2.26183,-47.812 L -2.29712,-47.627 L -2.35533,-47.4478 L -2.43553,-47.2774
 L -2.53647,-47.1183 L -2.65654,-46.9732 L -2.79385,-46.8442 L -2.94626,-46.7335 L -3.11133,-46.6428 L -3.28647,-46.5734
 L -3.46892,-46.5266 L -3.65581,-46.503 z
M -63.8442,-46.503 L -64.0311,-46.5266 L -64.2135,-46.5734 L -64.3887,-46.6428 L -64.5537,-46.7335 L -64.7061,-46.8442
 L -64.8434,-46.9732 L -64.9635,-47.1183 L -65.0645,-47.2774 L -65.1447,-47.4478 L -65.2029,-47.627 L -65.2382,-47.812
 L -65.25,-48 L -65.2382,-48.188 L -65.2029,-48.373 L -65.1447,-48.5522 L -65.0645,-48.7226 L -64.9635,-48.8817
 L -64.8434,-49.0268 L -64.7061,-49.1558 L -64.5537,-49.2665 L -64.3887,-49.3572 L -64.2135,-49.4266 L -64.0311,-49.4734
 L -63.8442,-49.497 L -63.6558,-49.497 L -63.4689,-49.4734 L -63.2865,-49.4266 L -63.1113,-49.3572 L -62.9463,-49.2665
 L -62.7939,-49.1558 L -62.6565,-49.0268 L -62.5365,-48.8817 L -62.4355,-48.7226 L -62.3553,-48.5522 L -62.2971,-48.373
 L -62.2618,-48.188 L -62.25,-48 L -62.2618,-47.812 L -62.2971,-47.627 L -62.3553,-47.4478 L -62.4355,-47.2774
 L -62.5365,-47.1183 L -62.6565,-46.9732 L -62.7939,-46.8442 L -62.9463,-46.7335 L -63.1113,-46.6428 L -63.2865,-46.5734
 L -63.4689,-46.5266 L -63.6558,-46.503 z
M -71.3442,-46.503 L -71.5311,-46.5266 L -71.7135,-46.5734 L -71.8887,-46.6428 L -72.0537,-46.7335 L -72.2061,-46.8442
 L -72.3434,-46.9732 L -72.4635,-47.1183 L -72.5645,-47.2774 L -72.6447,-47.4478 L -72.7029,-47.627 L -72.7382,-47.812
 L -72.75,-48 L -72.7382,-48.188 L -72.7029,-48.373 L -72.6447,-48.5522 L -72.5645,-48.7226 L -72.4635,-48.8817
 L -72.3434,-49.0268 L -72.2061,-49.1558 L -72.0537,-49.2665 L -71.8887,-49.3572 L -71.7135,-49.4266 L -71.5311,-49.4734
 L -71.3442,-49.497 L -71.1558,-49.497 L -70.9689,-49.4734 L -70.7865,-49.4266 L -70.6113,-49.3572 L -70.4463,-49.2665
 L -70.2939,-49.1558 L -70.1565,-49.0268 L -70.0365,-48.8817 L -69.9355,-48.7226 L -69.8553,-48.5522 L -69.7971,-48.373
 L -69.7618,-48.188 L -69.75,-48 L -69.7618,-47.812 L -69.7971,-47.627 L -69.8553,-47.4478 L -69.9355,-47.2774
 L -70.0365,-47.1183 L -70.1565,-46.9732 L -70.2939,-46.8442 L -70.4463,-46.7335 L -70.6113,-46.6428 L -70.7865,-46.5734
 L -70.9689,-46.5266 L -71.1558,-46.503 z
M -56.3442,-46.503 L -56.5311,-46.5266 L -56.7135,-46.5734 L -56.8887,-46.6428 L -57.0537,-46.7335 L -57.2061,-46.8442
 L -57.3434,-46.9732 L -57.4635,-47.1183 L -57.5645,-47.2774 L -57.6447,-47.4478 L -57.7029,-47.627 L -57.7382,-47.812
 L -57.75,-48 L -57.7382,-48.188 L -57.7029,-48.373 L -57.6447,-48.5522 L -57.5645,-48.7226 L -57.4635,-48.8817
 L -57.3434,-49.0268 L -57.2061,-49.1558 L -57.0537,-49.2665 L -56.8887,-49.3572 L -56.7135,-49.4266 L -56.5311,-49.4734
 L -56.3442,-49.497 L -56.1558,-49.497 L -55.9689,-49.4734 L -55.7865,-49.4266 L -55.6113,-49.3572 L -55.4463,-49.2665
 L -55.2939,-49.1558 L -55.1565,-49.0268 L -55.0365,-48.8817 L -54.9355,-48.7226 L -54.8553,-48.5522 L -54.7971,-48.373
 L -54.7618,-48.188 L -54.75,-48 L -54.7618,-47.812 L -54.7971,-47.627 L -54.8553,-47.4478 L -54.9355,-47.2774
 L -55.0365,-47.1183 L -55.1565,-46.9732 L -55.2939,-46.8442 L -55.4463,-46.7335 L -55.6113,-46.6428 L -55.7865,-46.5734
 L -55.9689,-46.5266 L -56.1558,-46.503 z
M -48.8442,-46.503 L -49.0311,-46.5266 L -49.2135,-46.5734 L -49.3887,-46.6428 L -49.5537,-46.7335 L -49.7061,-46.8442
 L -49.8434,-46.9732 L -49.9635,-47.1183 L -50.0645,-47.2774 L -50.1447,-47.4478 L -50.2029,-47.627 L -50.2382,-47.812
 L -50.25,-48 L -50.2382,-48.188 L -50.2029,-48.373 L -50.1447,-48.5522 L -50.0645,-48.7226 L -49.9635,-48.8817
 L -49.8434,-49.0268 L -49.7061,-49.1558 L -49.5537,-49.2665 L -49.3887,-49.3572 L -49.2135,-49.4266 L -49.0311,-49.4734
 L -48.8442,-49.497 L -48.6558,-49.497 L -48.4689,-49.4734 L -48.2865,-49.4266 L -48.1113,-49.3572 L -47.9463,-49.2665
 L -47.7939,-49.1558 L -47.6565,-49.0268 L -47.5365,-48.8817 L -47.4355,-48.7226 L -47.3553,-48.5522 L -47.2971,-48.373
 L -47.2618,-48.188 L -47.25,-48 L -47.2618,-47.812 L -47.2971,-47.627 L -47.3553,-47.4478 L -47.4355,-47.2774
 L -47.5365,-47.1183 L -47.6565,-46.9732 L -47.7939,-46.8442 L -47.9463,-46.7335 L -48.1113,-46.6428 L -48.2865,-46.5734
 L -48.4689,-46.5266 L -48.6558,-46.503 z
M 3.65581,-46.503 L 3.46892,-46.5266 L 3.28647,-46.5734 L 3.11133,-46.6428 L 2.94626,-46.7335 L 2.79385,-46.8442
 L 2.65654,-46.9732 L 2.53647,-47.1183 L 2.43553,-47.2774 L 2.35533,-47.4478 L 2.29712,-47.627 L 2.26183,-47.812
 L 2.25,-48 L 2.26183,-48.188 L 2.29712,-48.373 L 2.35533,-48.5522 L 2.43553,-48.7226 L 2.53647,-48.8817
 L 2.65654,-49.0268 L 2.79385,-49.1558 L 2.94626,-49.2665 L 3.11133,-49.3572 L 3.28647,-49.4266 L 3.46892,-49.4734
 L 3.65581,-49.497 L 3.84418,-49.497 L 4.03107,-49.4734 L 4.21352,-49.4266 L 4.38866,-49.3572 L 4.55373,-49.2665
 L 4.70613,-49.1558 L 4.84344,-49.0268 L 4.96352,-48.8817 L 5.06445,-48.7226 L 5.14465,-48.5522 L 5.20287,-48.373
 L 5.23816,-48.188 L 5.25,-48 L 5.23816,-47.812 L 5.20287,-47.627 L 5.14465,-47.4478 L 5.06445,-47.2774
 L 4.96352,-47.1183 L 4.84344,-46.9732 L 4.70613,-46.8442 L 4.55373,-46.7335 L 4.38866,-46.6428 L 4.21352,-46.5734
 L 4.03107,-46.5266 L 3.84418,-46.503 z
M -26.3442,-46.503 L -26.5311,-46.5266 L -26.7135,-46.5734 L -26.8887,-46.6428 L -27.0537,-46.7335 L -27.2061,-46.8442
 L -27.3434,-46.9732 L -27.4635,-47.1183 L -27.5645,-47.2774 L -27.6447,-47.4478 L -27.7029,-47.627 L -27.7382,-47.812
 L -27.75,-48 L -27.7382,-48.188 L -27.7029,-48.373 L -27.6447,-48.5522 L -27.5645,-48.7226 L -27.4635,-48.8817
 L -27.3434,-49.0268 L -27.2061,-49.1558 L -27.0537,-49.2665 L -26.8887,-49.3572 L -26.7135,-49.4266 L -26.5311,-49.4734
 L -26.3442,-49.497 L -26.1558,-49.497 L -25.9689,-49.4734 L -25.7865,-49.4266 L -25.6113,-49.3572 L -25.4463,-49.2665
 L -25.2939,-49.1558 L -25.1565,-49.0268 L -25.0365,-48.8817 L -24.9355,-48.7226 L -24.8553,-48.5522 L -24.7971,-48.373
 L -24.7618,-48.188 L -24.75,-48 L -24.7618,-47.812 L -24.7971,-47.627 L -24.8553,-47.4478 L -24.9355,-47.2774
 L -25.0365,-47.1183 L -25.1565,-46.9732 L -25.2939,-46.8442 L -25.4463,-46.7335 L -25.6113,-46.6428 L -25.7865,-46.5734
 L -25.9689,-46.5266 L -26.1558,-46.503 z
M -33.8442,-46.503 L -34.0311,-46.5266 L -34.2135,-46.5734 L -34.3887,-46.6428 L -34.5537,-46.7335 L -34.7061,-46.8442
 L -34.8434,-46.9732 L -34.9635,-47.1183 L -35.0645,-47.2774 L -35.1447,-47.4478 L -35.2029,-47.627 L -35.2382,-47.812
 L -35.25,-48 L -35.2382,-48.188 L -35.2029,-48.373 L -35.1447,-48.5522 L -35.0645,-48.7226 L -34.9635,-48.8817
 L -34.8434,-49.0268 L -34.7061,-49.1558 L -34.5537,-49.2665 L -34.3887,-49.3572 L -34.2135,-49.4266 L -34.0311,-49.4734
 L -33.8442,-49.497 L -33.6558,-49.497 L -33.4689,-49.4734 L -33.2865,-49.4266 L -33.1113,-49.3572 L -32.9463,-49.2665
 L -32.7939,-49.1558 L -32.6565,-49.0268 L -32.5365,-48.8817 L -32.4355,-48.7226 L -32.3553,-48.5522 L -32.2971,-48.373
 L -32.2618,-48.188 L -32.25,-48 L -32.2618,-47.812 L -32.2971,-47.627 L -32.3553,-47.4478 L -32.4355,-47.2774
 L -32.5365,-47.1183 L -32.6565,-46.9732 L -32.7939,-46.8442 L -32.9463,-46.7335 L -33.1113,-46.6428 L -33.2865,-46.5734
 L -33.4689,-46.5266 L -33.6558,-46.503 z
M 71.1558,-46.503 L 70.9689,-46.5266 L 70.7865,-46.5734 L 70.6113,-46.6428 L 70.4463,-46.7335 L 70.2939,-46.8442
 L 70.1565,-46.9732 L 70.0365,-47.1183 L 69.9355,-47.2774 L 69.8553,-47.4478 L 69.7971,-47.627 L 69.7618,-47.812
 L 69.75,-48 L 69.7618,-48.188 L 69.7971,-48.373 L 69.8553,-48.5522 L 69.9355,-48.7226 L 70.0365,-48.8817
 L 70.1565,-49.0268 L 70.2939,-49.1558 L 70.4463,-49.2665 L 70.6113,-49.3572 L 70.7865,-49.4266 L 70.9689,-49.4734
 L 71.1558,-49.497 L 71.3442,-49.497 L 71.5311,-49.4734 L 71.7135,-49.4266 L 71.8887,-49.3572 L 72.0537,-49.2665
 L 72.2061,-49.1558 L 72.3434,-49.0268 L 72.4635,-48.8817 L 72.5645,-48.7226 L 72.6447,-48.5522 L 72.7029,-48.373
 L 72.7382,-48.188 L 72.75,-48 L 72.7382,-47.812 L 72.7029,-47.627 L 72.6447,-47.4478 L 72.5645,-47.2774
 L 72.4635,-47.1183 L 72.3434,-46.9732 L 72.2061,-46.8442 L 72.0537,-46.7335 L 71.8887,-46.6428 L 71.7135,-46.5734
 L 71.5311,-46.5266 L 71.3442,-46.503 z
M -78.8442,-46.503 L -79.0311,-46.5266 L -79.2135,-46.5734 L -79.3887,-46.6428 L -79.5537,-46.7335 L -79.7061,-46.8442
 L -79.8434,-46.9732 L -79.9635,-47.1183 L -80.0645,-47.2774 L -80.1447,-47.4478 L -80.2029,-47.627 L -80.2382,-47.812
 L -80.25,-48 L -80.2382,-48.188 L -80.2029,-48.373 L -80.1447,-48.5522 L -80.0645,-48.7226 L -79.9635,-48.8817
 L -79.8434,-49.0268 L -79.7061,-49.1558 L -79.5537,-49.2665 L -79.3887,-49.3572 L -79.2135,-49.4266 L -79.0311,-49.4734
 L -78.8442,-49.497 L -78.6558,-49.497 L -78.4689,-49.4734 L -78.2865,-49.4266 L -78.1113,-49.3572 L -77.9463,-49.2665
 L -77.7939,-49.1558 L -77.6565,-49.0268 L -77.5365,-48.8817 L -77.4355,-48.7226 L -77.3553,-48.5522 L -77.2971,-48.373
 L -77.2618,-48.188 L -77.25,-48 L -77.2618,-47.812 L -77.2971,-47.627 L -77.3553,-47.4478 L -77.4355,-47.2774
 L -77.5365,-47.1183 L -77.6565,-46.9732 L -77.7939,-46.8442 L -77.9463,-46.7335 L -78.1113,-46.6428 L -78.2865,-46.5734
 L -78.4689,-46.5266 L -78.6558,-46.503 z
M 78.6558,-46.503 L 78.4689,-46.5266 L 78.2865,-46.5734 L 78.1113,-46.6428 L 77.9463,-46.7335 L 77.7939,-46.8442
 L 77.6565,-46.9732 L 77.5365,-47.1183 L 77.4355,-47.2774 L 77.3553,-47.4478 L 77.2971,-47.627 L 77.2618,-47.812
 L 77.25,-48 L 77.2618,-48.188 L 77.2971,-48.373 L 77.3553,-48.5522 L 77.4355,-48.7226 L 77.5365,-48.8817
 L 77.6565,-49.0268 L 77.7939,-49.1558 L 77.9463,-49.2665 L 78.1113,-49.3572 L 78.2865,-49.4266 L 78.4689,-49.4734
 L 78.6558,-49.497 L 78.8442,-49.497 L 79.0311,-49.4734 L 79.2135,-49.4266 L 79.3887,-49.3572 L 79.5537,-49.2665
 L 79.7061,-49.1558 L 79.8434,-49.0268 L 79.9635,-48.8817 L 80.0645,-48.7226 L 80.1447,-48.5522 L 80.2029,-48.373
 L 80.2382,-48.188 L 80.25,-48 L 80.2382,-47.812 L 80.2029,-47.627 L 80.1447,-47.4478 L 80.0645,-47.2774
 L 79.9635,-47.1183 L 79.8434,-46.9732 L 79.7061,-46.8442 L 79.5537,-46.7335 L 79.3887,-46.6428 L 79.2135,-46.5734
 L 79.0311,-46.5266 L 78.8442,-46.503 z
M 56.1558,-46.503 L 55.9689,-46.5266 L 55.7865,-46.5734 L 55.6113,-46.6428 L 55.4463,-46.7335 L 55.2939,-46.8442
 L 55.1565,-46.9732 L 55.0365,-47.1183 L 54.9355,-47.2774 L 54.8553,-47.4478 L 54.7971,-47.627 L 54.7618,-47.812
 L 54.75,-48 L 54.7618,-48.188 L 54.7971,-48.373 L 54.8553,-48.5522 L 54.9355,-48.7226 L 55.0365,-48.8817
 L 55.1565,-49.0268 L 55.2939,-49.1558 L 55.4463,-49.2665 L 55.6113,-49.3572 L 55.7865,-49.4266 L 55.9689,-49.4734
 L 56.1558,-49.497 L 56.3442,-49.497 L 56.5311,-49.4734 L 56.7135,-49.4266 L 56.8887,-49.3572 L 57.0537,-49.2665
 L 57.2061,-49.1558 L 57.3434,-49.0268 L 57.4635,-48.8817 L 57.5645,-48.7226 L 57.6447,-48.5522 L 57.7029,-48.373
 L 57.7382,-48.188 L 57.75,-48 L 57.7382,-47.812 L 57.7029,-47.627 L 57.6447,-47.4478 L 57.5645,-47.2774
 L 57.4635,-47.1183 L 57.3434,-46.9732 L 57.2061,-46.8442 L 57.0537,-46.7335 L 56.8887,-46.6428 L 56.7135,-46.5734
 L 56.5311,-46.5266 L 56.3442,-46.503 z
M 11.1558,-46.503 L 10.9689,-46.5266 L 10.7865,-46.5734 L 10.6113,-46.6428 L 10.4463,-46.7335 L 10.2939,-46.8442
 L 10.1565,-46.9732 L 10.0365,-47.1183 L 9.93553,-47.2774 L 9.85533,-47.4478 L 9.79712,-47.627 L 9.76183,-47.812
 L 9.75,-48 L 9.76183,-48.188 L 9.79712,-48.373 L 9.85533,-48.5522 L 9.93553,-48.7226 L 10.0365,-48.8817
 L 10.1565,-49.0268 L 10.2939,-49.1558 L 10.4463,-49.2665 L 10.6113,-49.3572 L 10.7865,-49.4266 L 10.9689,-49.4734
 L 11.1558,-49.497 L 11.3442,-49.497 L 11.5311,-49.4734 L 11.7135,-49.4266 L 11.8887,-49.3572 L 12.0537,-49.2665
 L 12.2061,-49.1558 L 12.3434,-49.0268 L 12.4635,-48.8817 L 12.5645,-48.7226 L 12.6447,-48.5522 L 12.7029,-48.373
 L 12.7382,-48.188 L 12.75,-48 L 12.7382,-47.812 L 12.7029,-47.627 L 12.6447,-47.4478 L 12.5645,-47.2774
 L 12.4635,-47.1183 L 12.3434,-46.9732 L 12.2061,-46.8442 L 12.0537,-46.7335 L 11.8887,-46.6428 L 11.7135,-46.5734
 L 11.5311,-46.5266 L 11.3442,-46.503 z
M 48.6558,-46.503 L 48.4689,-46.5266 L 48.2865,-46.5734 L 48.1113,-46.6428 L 47.9463,-46.7335 L 47.7939,-46.8442
 L 47.6565,-46.9732 L 47.5365,-47.1183 L 47.4355,-47.2774 L 47.3553,-47.4478 L 47.2971,-47.627 L 47.2618,-47.812
 L 47.25,-48 L 47.2618,-48.188 L 47.2971,-48.373 L 47.3553,-48.5522 L 47.4355,-48.7226 L 47.5365,-48.8817
 L 47.6565,-49.0268 L 47.7939,-49.1558 L 47.9463,-49.2665 L 48.1113,-49.3572 L 48.2865,-49.4266 L 48.4689,-49.4734
 L 48.6558,-49.497 L 48.8442,-49.497 L 49.0311,-49.4734 L 49.2135,-49.4266 L 49.3887,-49.3572 L 49.5537,-49.2665
 L 49.7061,-49.1558 L 49.8434,-49.0268 L 49.9635,-48.8817 L 50.0645,-48.7226 L 50.1447,-48.5522 L 50.2029,-48.373
 L 50.2382,-48.188 L 50.25,-48 L 50.2382,-47.812 L 50.2029,-47.627 L 50.1447,-47.4478 L 50.0645,-47.2774
 L 49.9635,-47.1183 L 49.8434,-46.9732 L 49.7061,-46.8442 L 49.5537,-46.7335 L 49.3887,-46.6428 L 49.2135,-46.5734
 L 49.0311,-46.5266 L 48.8442,-46.503 z
M 33.6558,-46.503 L 33.4689,-46.5266 L 33.2865,-46.5734 L 33.1113,-46.6428 L 32.9463,-46.7335 L 32.7939,-46.8442
 L 32.6565,-46.9732 L 32.5365,-47.1183 L 32.4355,-47.2774 L 32.3553,-47.4478 L 32.2971,-47.627 L 32.2618,-47.812
 L 32.25,-48 L 32.2618,-48.188 L 32.2971,-48.373 L 32.3553,-48.5522 L 32.4355,-48.7226 L 32.5365,-48.8817
 L 32.6565,-49.0268 L 32.7939,-49.1558 L 32.9463,-49.2665 L 33.1113,-49.3572 L 33.2865,-49.4266 L 33.4689,-49.4734
 L 33.6558,-49.497 L 33.8442,-49.497 L 34.0311,-49.4734 L 34.2135,-49.4266 L 34.3887,-49.3572 L 34.5537,-49.2665
 L 34.7061,-49.1558 L 34.8434,-49.0268 L 34.9635,-48.8817 L 35.0645,-48.7226 L 35.1447,-48.5522 L 35.2029,-48.373
 L 35.2382,-48.188 L 35.25,-48 L 35.2382,-47.812 L 35.2029,-47.627 L 35.1447,-47.4478 L 35.0645,-47.2774
 L 34.9635,-47.1183 L 34.8434,-46.9732 L 34.7061,-46.8442 L 34.5537,-46.7335 L 34.3887,-46.6428 L 34.2135,-46.5734
 L 34.0311,-46.5266 L 33.8442,-46.503 z
M 41.1558,-46.503 L 40.9689,-46.5266 L 40.7865,-46.5734 L 40.6113,-46.6428 L 40.4463,-46.7335 L 40.2939,-46.8442
 L 40.1565,-46.9732 L 40.0365,-47.1183 L 39.9355,-47.2774 L 39.8553,-47.4478 L 39.7971,-47.627 L 39.7618,-47.812
 L 39.75,-48 L 39.7618,-48.188 L 39.7971,-48.373 L 39.8553,-48.5522 L 39.9355,-48.7226 L 40.0365,-48.8817
 L 40.1565,-49.0268 L 40.2939,-49.1558 L 40.4463,-49.2665 L 40.6113,-49.3572 L 40.7865,-49.4266 L 40.9689,-49.4734
 L 41.1558,-49.497 L 41.3442,-49.497 L 41.5311,-49.4734 L 41.7135,-49.4266 L 41.8887,-49.3572 L 42.0537,-49.2665
 L 42.2061,-49.1558 L 42.3434,-49.0268 L 42.4635,-48.8817 L 42.5645,-48.7226 L 42.6447,-48.5522 L 42.7029,-48.373
 L 42.7382,-48.188 L 42.75,-48 L 42.7382,-47.812 L 42.7029,-47.627 L 42.6447,-47.4478 L 42.5645,-47.2774
 L 42.4635,-47.1183 L 42.3434,-46.9732 L 42.2061,-46.8442 L 42.0537,-46.7335 L 41.8887,-46.6428 L 41.7135,-46.5734
 L 41.5311,-46.5266 L 41.3442,-46.503 z
M 18.6558,-46.503 L 18.4689,-46.5266 L 18.2865,-46.5734 L 18.1113,-46.6428 L 17.9463,-46.7335 L 17.7939,-46.8442
 L 17.6565,-46.9732 L 17.5365,-47.1183 L 17.4355,-47.2774 L 17.3553,-47.4478 L 17.2971,-47.627 L 17.2618,-47.812
 L 17.25,-48 L 17.2618,-48.188 L 17.2971,-48.373 L 17.3553,-48.5522 L 17.4355,-48.7226 L 17.5365,-48.8817
 L 17.6565,-49.0268 L 17.7939,-49.1558 L 17.9463,-49.2665 L 18.1113,-49.3572 L 18.2865,-49.4266 L 18.4689,-49.4734
 L 18.6558,-49.497 L 18.8442,-49.497 L 19.0311,-49.4734 L 19.2135,-49.4266 L 19.3887,-49.3572 L 19.5537,-49.2665
 L 19.7061,-49.1558 L 19.8434,-49.0268 L 19.9635,-48.8817 L 20.0645,-48.7226 L 20.1447,-48.5522 L 20.2029,-48.373
 L 20.2382,-48.188 L 20.25,-48 L 20.2382,-47.812 L 20.2029,-47.627 L 20.1447,-47.4478 L 20.0645,-47.2774
 L 19.9635,-47.1183 L 19.8434,-46.9732 L 19.7061,-46.8442 L 19.5537,-46.7335 L 19.3887,-46.6428 L 19.2135,-46.5734
 L 19.0311,-46.5266 L 18.8442,-46.503 z
M 26.1558,-46.503 L 25.9689,-46.5266 L 25.7865,-46.5734 L 25.6113,-46.6428 L 25.4463,-46.7335 L 25.2939,-46.8442
 L 25.1565,-46.9732 L 25.0365,-47.1183 L 24.9355,-47.2774 L 24.8553,-47.4478 L 24.7971,-47.627 L 24.7618,-47.812
 L 24.75,-48 L 24.7618,-48.188 L 24.7971,-48.373 L 24.8553,-48.5522 L 24.9355,-48.7226 L 25.0365,-48.8817
 L 25.1565,-49.0268 L 25.2939,-49.1558 L 25.4463,-49.2665 L 25.6113,-49.3572 L 25.7865,-49.4266 L 25.9689,-49.4734
 L 26.1558,-49.497 L 26.3442,-49.497 L 26.5311,-49.4734 L 26.7135,-49.4266 L 26.8887,-49.3572 L 27.0537,-49.2665
 L 27.2061,-49.1558 L 27.3434,-49.0268 L 27.4635,-48.8817 L 27.5645,-48.7226 L 27.6447,-48.5522 L 27.7029,-48.373
 L 27.7382,-48.188 L 27.75,-48 L 27.7382,-47.812 L 27.7029,-47.627 L 27.6447,-47.4478 L 27.5645,-47.2774
 L 27.4635,-47.1183 L 27.3434,-46.9732 L 27.2061,-46.8442 L 27.0537,-46.7335 L 26.8887,-46.6428 L 26.7135,-46.5734
 L 26.5311,-46.5266 L 26.3442,-46.503 z
" stroke="black" fill="lightgray" stroke-width="0.5"/>
</svg>
