<?xml version="1.0" standalone="no"?>
<!DOCTYPE svg PUBLIC "-//W3C//DTD SVG 1.1//EN" "http://www.w3.org/Graphics/SVG/1.1/DTD/svg11.dtd">
<svg width="82mm" height="104mm" viewBox="-41 -220 82 104" xmlns="http://www.w3.org/2000/svg" version="1.1">
<title>OpenSCAD Model</title>
<path d="
M 38.9684,-212.544 L 39.2725,-212.622 L 39.5644,-212.738 L 39.8396,-212.889 L 40.0936,-213.074 L 40.3224,-213.289
 L 40.5225,-213.531 L 40.6908,-213.796 L 40.8244,-214.08 L 40.9214,-214.378 L 40.9803,-214.687 L 41,-215
 L 41,-217 L 40.9803,-217.313 L 40.9214,-217.622 L 40.8244,-217.92 L 40.6908,-218.204 L 40.5225,-218.469
 L 40.3224,-218.711 L 40.0936,-218.926 L 39.8396,-219.111 L 39.5644,-219.262 L 39.2725,-219.378 L 38.9684,-219.456
 L 38.657,-219.495 L -38.657,-219.495 L -38.9684,-219.456 L -39.2725,-219.378 L -39.5644,-219.262 L -39.8396,-219.111
 L -40.0936,-218.926 L -40.3224,-218.711 L -40.5225,-218.469 L -40.6908,-218.204 L -40.8244,-217.92 L -40.9214,-217.622
 L -40.9803,-217.313 L -41,-217 L -41,-215 L -40.9803,-214.687 L -40.9214,-214.378 L -40.8244,-214.08
 L -40.6908,-213.796 L -40.5225,-213.531 L -40.3224,-213.289 L -40.0936,-213.074 L -39.8396,-212.889 L -39.5644,-212.738
 L -39.2725,-212.622 L -38.9684,-212.544 L -38.657,-212.505 L 38.657,-212.505 z
M -30.0942,-214.503 L -30.2811,-214.527 L -30.4635,-214.573 L -30.6387,-214.643 L -30.8037,-214.734 L -30.9561,-214.844
 L -31.0934,-214.973 L -31.2135,-215.118 L -31.3145,-215.277 L -31.3947,-215.448 L -31.4529,-215.627 L -31.4882,-215.812
 L -31.5,-216 L -31.4882,-216.188 L -31.4529,-216.373 L -31.3947,-216.552 L -31.3145,-216.723 L -31.2135,-216.882
 L -31.0934,-217.027 L -30.9561,-217.156 L -30.8037,-217.266 L -30.6387,-217.357 L -30.4635,-217.427 L -30.2811,-217.473
 L -30.0942,-217.497 L -29.9058,-217.497 L -29.7189,-217.473 L -29.5365,-217.427 L -29.3613,-217.357 L -29.1963,-217.266
 L -29.0439,-217.156 L -28.9065,-217.027 L -28.7865,-216.882 L -28.6855,-216.723 L -28.6053,-216.552 L -28.5471,-216.373
 L -28.5118,-216.188 L -28.5,-216 L -28.5118,-215.812 L -28.5471,-215.627 L -28.6053,-215.448 L -28.6855,-215.277
 L -28.7865,-215.118 L -28.9065,-214.973 L -29.0439,-214.844 L -29.1963,-214.734 L -29.3613,-214.643 L -29.5365,-214.573
 L -29.7189,-214.527 L -29.9058,-214.503 z
M 29.9058,-214.503 L 29.7189,-214.527 L 29.5365,-214.573 L 29.3613,-214.643 L 29.1963,-214.734 L 29.0439,-214.844
 L 28.9065,-214.973 L 28.7865,-215.118 L 28.6855,-215.277 L 28.6053,-215.448 L 28.5471,-215.627 L 28.5118,-215.812
 L 28.5,-216 L 28.5118,-216.188 L 28.5471,-216.373 L 28.6053,-216.552 L 28.6855,-216.723 L 28.7865,-216.882
 L 28.9065,-217.027 L 29.0439,-217.156 L 29.1963,-217.266 L 29.3613,-217.357 L 29.5365,-217.427 L 29.7189,-217.473
 L 29.9058,-217.497 L 30.0942,-217.497 L 30.2811,-217.473 L 30.4635,-217.427 L 30.6387,-217.357 L 30.8037,-217.266
 L 30.9561,-217.156 L 31.0934,-217.027 L 31.2135,-216.882 L 31.3145,-216.723 L 31.3947,-216.552 L 31.4529,-216.373
 L 31.4882,-216.188 L 31.5,-216 L 31.4882,-215.812 L 31.4529,-215.627 L 31.3947,-215.448 L 31.3145,-215.277
 L 31.2135,-215.118 L 31.0934,-214.973 L 30.9561,-214.844 L 30.8037,-214.734 L 30.6387,-214.643 L 30.4635,-214.573
 L 30.2811,-214.527 L 30.0942,-214.503 z
M -0.0941772,-214.503 L -0.281067,-214.527 L -0.463516,-214.573 L -0.638657,-214.643 L -0.803726,-214.734 L -0.956131,-214.844
 L -1.09344,-214.973 L -1.21352,-215.118 L -1.31445,-215.277 L -1.39465,-215.448 L -1.45287,-215.627 L -1.48816,-215.812
 L -1.5,-216 L -1.48816,-216.188 L -1.45287,-216.373 L -1.39465,-216.552 L -1.31445,-216.723 L -1.21352,-216.882
 L -1.09344,-217.027 L -0.956131,-217.156 L -0.803726,-217.266 L -0.638657,-217.357 L -0.463516,-217.427 L -0.281067,-217.473
 L -0.0941772,-217.497 L 0.0941772,-217.497 L 0.281067,-217.473 L 0.463516,-217.427 L 0.638657,-217.357 L 0.803726,-217.266
 L 0.956131,-217.156 L 1.09344,-217.027 L 1.21352,-216.882 L 1.31445,-216.723 L 1.39465,-216.552 L 1.45287,-216.373
 L 1.48816,-216.188 L 1.5,-216 L 1.48816,-215.812 L 1.45287,-215.627 L 1.39465,-215.448 L 1.31445,-215.277
 L 1.21352,-215.118 L 1.09344,-214.973 L 0.956131,-214.844 L 0.803726,-214.734 L 0.638657,-214.643 L 0.463516,-214.573
 L 0.281067,-214.527 L 0.0941772,-214.503 z
M -37.5942,-214.503 L -37.7811,-214.527 L -37.9635,-214.573 L -38.1387,-214.643 L -38.3037,-214.734 L -38.4561,-214.844
 L -38.5934,-214.973 L -38.7135,-215.118 L -38.8145,-215.277 L -38.8947,-215.448 L -38.9529,-215.627 L -38.9882,-215.812
 L -39,-216 L -38.9882,-216.188 L -38.9529,-216.373 L -38.8947,-216.552 L -38.8145,-216.723 L -38.7135,-216.882
 L -38.5934,-217.027 L -38.4561,-217.156 L -38.3037,-217.266 L -38.1387,-217.357 L -37.9635,-217.427 L -37.7811,-217.473
 L -37.5942,-217.497 L -37.4058,-217.497 L -37.2189,-217.473 L -37.0365,-217.427 L -36.8613,-217.357 L -36.6963,-217.266
 L -36.5439,-217.156 L -36.4065,-217.027 L -36.2865,-216.882 L -36.1855,-216.723 L -36.1053,-216.552 L -36.0471,-216.373
 L -36.0118,-216.188 L -36,-216 L -36.0118,-215.812 L -36.0471,-215.627 L -36.1053,-215.448 L -36.1855,-215.277
 L -36.2865,-215.118 L -36.4065,-214.973 L -36.5439,-214.844 L -36.6963,-214.734 L -36.8613,-214.643 L -37.0365,-214.573
 L -37.2189,-214.527 L -37.4058,-214.503 z
M 14.9058,-214.503 L 14.7189,-214.527 L 14.5365,-214.573 L 14.3613,-214.643 L 14.1963,-214.734 L 14.0439,-214.844
 L 13.9065,-214.973 L 13.7865,-215.118 L 13.6855,-215.277 L 13.6053,-215.448 L 13.5471,-215.627 L 13.5118,-215.812
 L 13.5,-216 L 13.5118,-216.188 L 13.5471,-216.373 L 13.6053,-216.552 L 13.6855,-216.723 L 13.7865,-216.882
 L 13.9065,-217.027 L 14.0439,-217.156 L 14.1963,-217.266 L 14.3613,-217.357 L 14.5365,-217.427 L 14.7189,-217.473
 L 14.9058,-217.497 L 15.0942,-217.497 L 15.2811,-217.473 L 15.4635,-217.427 L 15.6387,-217.357 L 15.8037,-217.266
 L 15.9561,-217.156 L 16.0934,-217.027 L 16.2135,-216.882 L 16.3145,-216.723 L 16.3947,-216.552 L 16.4529,-216.373
 L 16.4882,-216.188 L 16.5,-216 L 16.4882,-215.812 L 16.4529,-215.627 L 16.3947,-215.448 L 16.3145,-215.277
 L 16.2135,-215.118 L 16.0934,-214.973 L 15.9561,-214.844 L 15.8037,-214.734 L 15.6387,-214.643 L 15.4635,-214.573
 L 15.2811,-214.527 L 15.0942,-214.503 z
M 7.40581,-214.503 L 7.21892,-214.527 L 7.03647,-214.573 L 6.86133,-214.643 L 6.69626,-214.734 L 6.54385,-214.844
 L 6.40654,-214.973 L 6.28647,-215.118 L 6.18553,-215.277 L 6.10533,-215.448 L 6.04712,-215.627 L 6.01183,-215.812
 L 6,-216 L 6.01183,-216.188 L 6.04712,-216.373 L 6.10533,-216.552 L 6.18553,-216.723 L 6.28647,-216.882
 L 6.40654,-217.027 L 6.54385,-217.156 L 6.69626,-217.266 L 6.86133,-217.357 L 7.03647,-217.427 L 7.21892,-217.473
 L 7.40581,-217.497 L 7.59418,-217.497 L 7.78107,-217.473 L 7.96352,-217.427 L 8.13866,-217.357 L 8.30373,-217.266
 L 8.45613,-217.156 L 8.59344,-217.027 L 8.71352,-216.882 L 8.81445,-216.723 L 8.89465,-216.552 L 8.95287,-216.373
 L 8.98816,-216.188 L 9,-216 L 8.98816,-215.812 L 8.95287,-215.627 L 8.89465,-215.448 L 8.81445,-215.277
 L 8.71352,-215.118 L 8.59344,-214.973 L 8.45613,-214.844 L 8.30373,-214.734 L 8.13866,-214.643 L 7.96352,-214.573
 L 7.78107,-214.527 L 7.59418,-214.503 z
M 22.4058,-214.503 L 22.2189,-214.527 L 22.0365,-214.573 L 21.8613,-214.643 L 21.6963,-214.734 L 21.5439,-214.844
 L 21.4065,-214.973 L 21.2865,-215.118 L 21.1855,-215.277 L 21.1053,-215.448 L 21.0471,-215.627 L 21.0118,-215.812
 L 21,-216 L 21.0118,-216.188 L 21.0471,-216.373 L 21.1053,-216.552 L 21.1855,-216.723 L 21.2865,-216.882
 L 21.4065,-217.027 L 21.5439,-217.156 L 21.6963,-217.266 L 21.8613,-217.357 L 22.0365,-217.427 L 22.2189,-217.473
 L 22.4058,-217.497 L 22.5942,-217.497 L 22.7811,-217.473 L 22.9635,-217.427 L 23.1387,-217.357 L 23.3037,-217.266
 L 23.4561,-217.156 L 23.5934,-217.027 L 23.7135,-216.882 L 23.8145,-216.723 L 23.8947,-216.552 L 23.9529,-216.373
 L 23.9882,-216.188 L 24,-216 L 23.9882,-215.812 L 23.9529,-215.627 L 23.8947,-215.448 L 23.8145,-215.277
 L 23.7135,-215.118 L 23.5934,-214.973 L 23.4561,-214.844 L 23.3037,-214.734 L 23.1387,-214.643 L 22.9635,-214.573
 L 22.7811,-214.527 L 22.5942,-214.503 z
M 37.4058,-214.503 L 37.2189,-214.527 L 37.0365,-214.573 L 36.8613,-214.643 L 36.6963,-214.734 L 36.5439,-214.844
 L 36.4065,-214.973 L 36.2865,-215.118 L 36.1855,-215.277 L 36.1053,-215.448 L 36.0471,-215.627 L 36.0118,-215.812
 L 36,-216 L 36.0118,-216.188 L 36.0471,-216.373 L 36.1053,-216.552 L 36.1855,-216.723 L 36.2865,-216.882
 L 36.4065,-217.027 L 36.5439,-217.156 L 36.6963,-217.266 L 36.8613,-217.357 L 37.0365,-217.427 L 37.2189,-217.473
 L 37.4058,-217.497 L 37.5942,-217.497 L 37.7811,-217.473 L 37.9635,-217.427 L 38.1387,-217.357 L 38.3037,-217.266
 L 38.4561,-217.156 L 38.5934,-217.027 L 38.7135,-216.882 L 38.8145,-216.723 L 38.8947,-216.552 L 38.9529,-216.373
 L 38.9882,-216.188 L 39,-216 L 38.9882,-215.812 L 38.9529,-215.627 L 38.8947,-215.448 L 38.8145,-215.277
 L 38.7135,-215.118 L 38.5934,-214.973 L 38.4561,-214.844 L 38.3037,-214.734 L 38.1387,-214.643 L 37.9635,-214.573
 L 37.7811,-214.527 L 37.5942,-214.503 z
M -7.59418,-214.503 L -7.78107,-214.527 L -7.96352,-214.573 L -8.13866,-214.643 L -8.30373,-214.734 L -8.45613,-214.844
 L -8.59344,-214.973 L -8.71352,-215.118 L -8.81445,-215.277 L -8.89465,-215.448 L -8.95287,-215.627 L -8.98816,-215.812
 L -9,-216 L -8.98816,-216.188 L -8.95287,-216.373 L -8.89465,-216.552 L -8.81445,-216.723 L -8.71352,-216.882
 L -8.59344,-217.027 L -8.45613,-217.156 L -8.30373,-217.266 L -8.13866,-217.357 L -7.96352,-217.427 L -7.78107,-217.473
 L -7.59418,-217.497 L -7.40581,-217.497 L -7.21892,-217.473 L -7.03647,-217.427 L -6.86133,-217.357 L -6.69626,-217.266
 L -6.54385,-217.156 L -6.40654,-217.027 L -6.28647,-216.882 L -6.18553,-216.723 L -6.10533,-216.552 L -6.04712,-216.373
 L -6.01183,-216.188 L -6,-216 L -6.01183,-215.812 L -6.04712,-215.627 L -6.10533,-215.448 L -6.18553,-215.277
 L -6.28647,-215.118 L -6.40654,-214.973 L -6.54385,-214.844 L -6.69626,-214.734 L -6.86133,-214.643 L -7.03647,-214.573
 L -7.21892,-214.527 L -7.40581,-214.503 z
M -22.5942,-214.503 L -22.7811,-214.527 L -22.9635,-214.573 L -23.1387,-214.643 L -23.3037,-214.734 L -23.4561,-214.844
 L -23.5934,-214.973 L -23.7135,-215.118 L -23.8145,-215.277 L -23.8947,-215.448 L -23.9529,-215.627 L -23.9882,-215.812
 L -24,-216 L -23.9882,-216.188 L -23.9529,-216.373 L -23.8947,-216.552 L -23.8145,-216.723 L -23.7135,-216.882
 L -23.5934,-217.027 L -23.4561,-217.156 L -23.3037,-217.266 L -23.1387,-217.357 L -22.9635,-217.427 L -22.7811,-217.473
 L -22.5942,-217.497 L -22.4058,-217.497 L -22.2189,-217.473 L -22.0365,-217.427 L -21.8613,-217.357 L -21.6963,-217.266
 L -21.5439,-217.156 L -21.4065,-217.027 L -21.2865,-216.882 L -21.1855,-216.723 L -21.1053,-216.552 L -21.0471,-216.373
 L -21.0118,-216.188 L -21,-216 L -21.0118,-215.812 L -21.0471,-215.627 L -21.1053,-215.448 L -21.1855,-215.277
 L -21.2865,-215.118 L -21.4065,-214.973 L -21.5439,-214.844 L -21.6963,-214.734 L -21.8613,-214.643 L -22.0365,-214.573
 L -22.2189,-214.527 L -22.4058,-214.503 z
M -15.0942,-214.503 L -15.2811,-214.527 L -15.4635,-214.573 L -15.6387,-214.643 L -15.8037,-214.734 L -15.9561,-214.844
 L -16.0934,-214.973 L -16.2135,-215.118 L -16.3145,-215.277 L -16.3947,-215.448 L -16.4529,-215.627 L -16.4882,-215.812
 L -16.5,-216 L -16.4882,-216.188 L -16.4529,-216.373 L -16.3947,-216.552 L -16.3145,-216.723 L -16.2135,-216.882
 L -16.0934,-217.027 L -15.9561,-217.156 L -15.8037,-217.266 L -15.6387,-217.357 L -15.4635,-217.427 L -15.2811,-217.473
 L -15.0942,-217.497 L -14.9058,-217.497 L -14.7189,-217.473 L -14.5365,-217.427 L -14.3613,-217.357 L -14.1963,-217.266
 L -14.0439,-217.156 L -13.9065,-217.027 L -13.7865,-216.882 L -13.6855,-216.723 L -13.6053,-216.552 L -13.5471,-216.373
 L -13.5118,-216.188 L -13.5,-216 L -13.5118,-215.812 L -13.5471,-215.627 L -13.6053,-215.448 L -13.6855,-215.277
 L -13.7865,-215.118 L -13.9065,-214.973 L -14.0439,-214.844 L -14.1963,-214.734 L -14.3613,-214.643 L -14.5365,-214.573
 L -14.7189,-214.527 L -14.9058,-214.503 z
M 38.9684,-188.544 L 39.2725,-188.622 L 39.5644,-188.738 L 39.8396,-188.889 L 40.0936,-189.074 L 40.3224,-189.289
 L 40.5225,-189.531 L 40.6908,-189.796 L 40.8244,-190.08 L 40.9214,-190.378 L 40.9803,-190.687 L 41,-191
 L 41,-193 L 40.9803,-193.313 L 40.9214,-193.622 L 40.8244,-193.92 L 40.6908,-194.204 L 40.5225,-194.469
 L 40.3224,-194.711 L 40.0936,-194.926 L 39.8396,-195.111 L 39.5644,-195.262 L 39.2725,-195.378 L 38.9684,-195.456
 L 38.657,-195.495 L -38.657,-195.495 L -38.9684,-195.456 L -39.2725,-195.378 L -39.5644,-195.262 L -39.8396,-195.111
 L -40.0936,-194.926 L -40.3224,-194.711 L -40.5225,-194.469 L -40.6908,-194.204 L -40.8244,-193.92 L -40.9214,-193.622
 L -40.9803,-193.313 L -41,-193 L -41,-191 L -40.9803,-190.687 L -40.9214,-190.378 L -40.8244,-190.08
 L -40.6908,-189.796 L -40.5225,-189.531 L -40.3224,-189.289 L -40.0936,-189.074 L -39.8396,-188.889 L -39.5644,-188.738
 L -39.2725,-188.622 L -38.9684,-188.544 L -38.657,-188.505 L 38.657,-188.505 z
M -22.5942,-190.503 L -22.7811,-190.527 L -22.9635,-190.573 L -23.1387,-190.643 L -23.3037,-190.734 L -23.4561,-190.844
 L -23.5934,-190.973 L -23.7135,-191.118 L -23.8145,-191.277 L -23.8947,-191.448 L -23.9529,-191.627 L -23.9882,-191.812
 L -24,-192 L -23.9882,-192.188 L -23.9529,-192.373 L -23.8947,-192.552 L -23.8145,-192.723 L -23.7135,-192.882
 L -23.5934,-193.027 L -23.4561,-193.156 L -23.3037,-193.266 L -23.1387,-193.357 L -22.9635,-193.427 L -22.7811,-193.473
 L -22.5942,-193.497 L -22.4058,-193.497 L -22.2189,-193.473 L -22.0365,-193.427 L -21.8613,-193.357 L -21.6963,-193.266
 L -21.5439,-193.156 L -21.4065,-193.027 L -21.2865,-192.882 L -21.1855,-192.723 L -21.1053,-192.552 L -21.0471,-192.373
 L -21.0118,-192.188 L -21,-192 L -21.0118,-191.812 L -21.0471,-191.627 L -21.1053,-191.448 L -21.1855,-191.277
 L -21.2865,-191.118 L -21.4065,-190.973 L -21.5439,-190.844 L -21.6963,-190.734 L -21.8613,-190.643 L -22.0365,-190.573
 L -22.2189,-190.527 L -22.4058,-190.503 z
M 29.9058,-190.503 L 29.7189,-190.527 L 29.5365,-190.573 L 29.3613,-190.643 L 29.1963,-190.734 L 29.0439,-190.844
 L 28.9065,-190.973 L 28.7865,-191.118 L 28.6855,-191.277 L 28.6053,-191.448 L 28.5471,-191.627 L 28.5118,-191.812
 L 28.5,-192 L 28.5118,-192.188 L 28.5471,-192.373 L 28.6053,-192.552 L 28.6855,-192.723 L 28.7865,-192.882
 L 28.9065,-193.027 L 29.0439,-193.156 L 29.1963,-193.266 L 29.3613,-193.357 L 29.5365,-193.427 L 29.7189,-193.473
 L 29.9058,-193.497 L 30.0942,-193.497 L 30.2811,-193.473 L 30.4635,-193.427 L 30.6387,-193.357 L 30.8037,-193.266
 L 30.9561,-193.156 L 31.0934,-193.027 L 31.2135,-192.882 L 31.3145,-192.723 L 31.3947,-192.552 L 31.4529,-192.373
 L 31.4882,-192.188 L 31.5,-192 L 31.4882,-191.812 L 31.4529,-191.627 L 31.3947,-191.448 L 31.3145,-191.277
 L 31.2135,-191.118 L 31.0934,-190.973 L 30.9561,-190.844 L 30.8037,-190.734 L 30.6387,-190.643 L 30.4635,-190.573
 L 30.2811,-190.527 L 30.0942,-190.503 z
M -0.0941772,-190.503 L -0.281067,-190.527 L -0.463516,-190.573 L -0.638657,-190.643 L -0.803726,-190.734 L -0.956131,-190.844
 L -1.09344,-190.973 L -1.21352,-191.118 L -1.31445,-191.277 L -1.39465,-191.448 L -1.45287,-191.627 L -1.48816,-191.812
 L -1.5,-192 L -1.48816,-192.188 L -1.45287,-192.373 L -1.39465,-192.552 L -1.31445,-192.723 L -1.21352,-192.882
 L -1.09344,-193.027 L -0.956131,-193.156 L -0.803726,-193.266 L -0.638657,-193.357 L -0.463516,-193.427 L -0.281067,-193.473
 L -0.0941772,-193.497 L 0.0941772,-193.497 L 0.281067,-193.473 L 0.463516,-193.427 L 0.638657,-193.357 L 0.803726,-193.266
 L 0.956131,-193.156 L 1.09344,-193.027 L 1.21352,-192.882 L 1.31445,-192.723 L 1.39465,-192.552 L 1.45287,-192.373
 L 1.48816,-192.188 L 1.5,-192 L 1.48816,-191.812 L 1.45287,-191.627 L 1.39465,-191.448 L 1.31445,-191.277
 L 1.21352,-191.118 L 1.09344,-190.973 L 0.956131,-190.844 L 0.803726,-190.734 L 0.638657,-190.643 L 0.463516,-190.573
 L 0.281067,-190.527 L 0.0941772,-190.503 z
M -37.5942,-190.503 L -37.7811,-190.527 L -37.9635,-190.573 L -38.1387,-190.643 L -38.3037,-190.734 L -38.4561,-190.844
 L -38.5934,-190.973 L -38.7135,-191.118 L -38.8145,-191.277 L -38.8947,-191.448 L -38.9529,-191.627 L -38.9882,-191.812
 L -39,-192 L -38.9882,-192.188 L -38.9529,-192.373 L -38.8947,-192.552 L -38.8145,-192.723 L -38.7135,-192.882
 L -38.5934,-193.027 L -38.4561,-193.156 L -38.3037,-193.266 L -38.1387,-193.357 L -37.9635,-193.427 L -37.7811,-193.473
 L -37.5942,-193.497 L -37.4058,-193.497 L -37.2189,-193.473 L -37.0365,-193.427 L -36.8613,-193.357 L -36.6963,-193.266
 L -36.5439,-193.156 L -36.4065,-193.027 L -36.2865,-192.882 L -36.1855,-192.723 L -36.1053,-192.552 L -36.0471,-192.373
 L -36.0118,-192.188 L -36,-192 L -36.0118,-191.812 L -36.0471,-191.627 L -36.1053,-191.448 L -36.1855,-191.277
 L -36.2865,-191.118 L -36.4065,-190.973 L -36.5439,-190.844 L -36.6963,-190.734 L -36.8613,-190.643 L -37.0365,-190.573
 L -37.2189,-190.527 L -37.4058,-190.503 z
M 14.9058,-190.503 L 14.7189,-190.527 L 14.5365,-190.573 L 14.3613,-190.643 L 14.1963,-190.734 L 14.0439,-190.844
 L 13.9065,-190.973 L 13.7865,-191.118 L 13.6855,-191.277 L 13.6053,-191.448 L 13.5471,-191.627 L 13.5118,-191.812
 L 13.5,-192 L 13.5118,-192.188 L 13.5471,-192.373 L 13.6053,-192.552 L 13.6855,-192.723 L 13.7865,-192.882
 L 13.9065,-193.027 L 14.0439,-193.156 L 14.1963,-193.266 L 14.3613,-193.357 L 14.5365,-193.427 L 14.7189,-193.473
 L 14.9058,-193.497 L 15.0942,-193.497 L 15.2811,-193.473 L 15.4635,-193.427 L 15.6387,-193.357 L 15.8037,-193.266
 L 15.9561,-193.156 L 16.0934,-193.027 L 16.2135,-192.882 L 16.3145,-192.723 L 16.3947,-192.552 L 16.4529,-192.373
 L 16.4882,-192.188 L 16.5,-192 L 16.4882,-191.812 L 16.4529,-191.627 L 16.3947,-191.448 L 16.3145,-191.277
 L 16.2135,-191.118 L 16.0934,-190.973 L 15.9561,-190.844 L 15.8037,-190.734 L 15.6387,-190.643 L 15.4635,-190.573
 L 15.2811,-190.527 L 15.0942,-190.503 z
M 7.40581,-190.503 L 7.21892,-190.527 L 7.03647,-190.573 L 6.86133,-190.643 L 6.69626,-190.734 L 6.54385,-190.844
 L 6.40654,-190.973 L 6.28647,-191.118 L 6.18553,-191.277 L 6.10533,-191.448 L 6.04712,-191.627 L 6.01183,-191.812
 L 6,-192 L 6.01183,-192.188 L 6.04712,-192.373 L 6.10533,-192.552 L 6.18553,-192.723 L 6.28647,-192.882
 L 6.40654,-193.027 L 6.54385,-193.156 L 6.69626,-193.266 L 6.86133,-193.357 L 7.03647,-193.427 L 7.21892,-193.473
 L 7.40581,-193.497 L 7.59418,-193.497 L 7.78107,-193.473 L 7.96352,-193.427 L 8.13866,-193.357 L 8.30373,-193.266
 L 8.45613,-193.156 L 8.59344,-193.027 L 8.71352,-192.882 L 8.81445,-192.723 L 8.89465,-192.552 L 8.95287,-192.373
 L 8.98816,-192.188 L 9,-192 L 8.98816,-191.812 L 8.95287,-191.627 L 8.89465,-191.448 L 8.81445,-191.277
 L 8.71352,-191.118 L 8.59344,-190.973 L 8.45613,-190.844 L 8.30373,-190.734 L 8.13866,-190.643 L 7.96352,-190.573
 L 7.78107,-190.527 L 7.59418,-190.503 z
M 22.4058,-190.503 L 22.2189,-190.527 L 22.0365,-190.573 L 21.8613,-190.643 L 21.6963,-190.734 L 21.5439,-190.844
 L 21.4065,-190.973 L 21.2865,-191.118 L 21.1855,-191.277 L 21.1053,-191.448 L 21.0471,-191.627 L 21.0118,-191.812
 L 21,-192 L 21.0118,-192.188 L 21.0471,-192.373 L 21.1053,-192.552 L 21.1855,-192.723 L 21.2865,-192.882
 L 21.4065,-193.027 L 21.5439,-193.156 L 21.6963,-193.266 L 21.8613,-193.357 L 22.0365,-193.427 L 22.2189,-193.473
 L 22.4058,-193.497 L 22.5942,-193.497 L 22.7811,-193.473 L 22.9635,-193.427 L 23.1387,-193.357 L 23.3037,-193.266
 L 23.4561,-193.156 L 23.5934,-193.027 L 23.7135,-192.882 L 23.8145,-192.723 L 23.8947,-192.552 L 23.9529,-192.373
 L 23.9882,-192.188 L 24,-192 L 23.9882,-191.812 L 23.9529,-191.627 L 23.8947,-191.448 L 23.8145,-191.277
 L 23.7135,-191.118 L 23.5934,-190.973 L 23.4561,-190.844 L 23.3037,-190.734 L 23.1387,-190.643 L 22.9635,-190.573
 L 22.7811,-190.527 L 22.5942,-190.503 z
M 37.4058,-190.503 L 37.2189,-190.527 L 37.0365,-190.573 L 36.8613,-190.643 L 36.6963,-190.734 L 36.5439,-190.844
 L 36.4065,-190.973 L 36.2865,-191.118 L 36.1855,-191.277 L 36.1053,-191.448 L 36.0471,-191.627 L 36.0118,-191.812
 L 36,-192 L 36.0118,-192.188 L 36.0471,-192.373 L 36.1053,-192.552 L 36.1855,-192.723 L 36.2865,-192.882
 L 36.4065,-193.027 L 36.5439,-193.156 L 36.6963,-193.266 L 36.8613,-193.357 L 37.0365,-193.427 L 37.2189,-193.473
 L 37.4058,-193.497 L 37.5942,-193.497 L 37.7811,-193.473 L 37.9635,-193.427 L 38.1387,-193.357 L 38.3037,-193.266
 L 38.4561,-193.156 L 38.5934,-193.027 L 38.7135,-192.882 L 38.8145,-192.723 L 38.8947,-192.552 L 38.9529,-192.373
 L 38.9882,-192.188 L 39,-192 L 38.9882,-191.812 L 38.9529,-191.627 L 38.8947,-191.448 L 38.8145,-191.277
 L 38.7135,-191.118 L 38.5934,-190.973 L 38.4561,-190.844 L 38.3037,-190.734 L 38.1387,-190.643 L 37.9635,-190.573
 L 37.7811,-190.527 L 37.5942,-190.503 z
M -7.59418,-190.503 L -7.78107,-190.527 L -7.96352,-190.573 L -8.13866,-190.643 L -8.30373,-190.734 L -8.45613,-190.844
 L -8.59344,-190.973 L -8.71352,-191.118 L -8.81445,-191.277 L -8.89465,-191.448 L -8.95287,-191.627 L -8.98816,-191.812
 L -9,-192 L -8.98816,-192.188 L -8.95287,-192.373 L -8.89465,-192.552 L -8.81445,-192.723 L -8.71352,-192.882
 L -8.59344,-193.027 L -8.45613,-193.156 L -8.30373,-193.266 L -8.13866,-193.357 L -7.96352,-193.427 L -7.78107,-193.473
 L -7.59418,-193.497 L -7.40581,-193.497 L -7.21892,-193.473 L -7.03647,-193.427 L -6.86133,-193.357 L -6.69626,-193.266
 L -6.54385,-193.156 L -6.40654,-193.027 L -6.28647,-192.882 L -6.18553,-192.723 L -6.10533,-192.552 L -6.04712,-192.373
 L -6.01183,-192.188 L -6,-192 L -6.01183,-191.812 L -6.04712,-191.627 L -6.10533,-191.448 L -6.18553,-191.277
 L -6.28647,-191.118 L -6.40654,-190.973 L -6.54385,-190.844 L -6.69626,-190.734 L -6.86133,-190.643 L -7.03647,-190.573
 L -7.21892,-190.527 L -7.40581,-190.503 z
M -15.0942,-190.503 L -15.2811,-190.527 L -15.4635,-190.573 L -15.6387,-190.643 L -15.8037,-190.734 L -15.9561,-190.844
 L -16.0934,-190.973 L -16.2135,-191.118 L -16.3145,-191.277 L -16.3947,-191.448 L -16.4529,-191.627 L -16.4882,-191.812
 L -16.5,-192 L -16.4882,-192.188 L -16.4529,-192.373 L -16.3947,-192.552 L -16.3145,-192.723 L -16.2135,-192.882
 L -16.0934,-193.027 L -15.9561,-193.156 L -15.8037,-193.266 L -15.6387,-193.357 L -15.4635,-193.427 L -15.2811,-193.473
 L -15.0942,-193.497 L -14.9058,-193.497 L -14.7189,-193.473 L -14.5365,-193.427 L -14.3613,-193.357 L -14.1963,-193.266
 L -14.0439,-193.156 L -13.9065,-193.027 L -13.7865,-192.882 L -13.6855,-192.723 L -13.6053,-192.552 L -13.5471,-192.373
 L -13.5118,-192.188 L -13.5,-192 L -13.5118,-191.812 L -13.5471,-191.627 L -13.6053,-191.448 L -13.6855,-191.277
 L -13.7865,-191.118 L -13.9065,-190.973 L -14.0439,-190.844 L -14.1963,-190.734 L -14.3613,-190.643 L -14.5365,-190.573
 L -14.7189,-190.527 L -14.9058,-190.503 z
M -30.0942,-190.503 L -30.2811,-190.527 L -30.4635,-190.573 L -30.6387,-190.643 L -30.8037,-190.734 L -30.9561,-190.844
 L -31.0934,-190.973 L -31.2135,-191.118 L -31.3145,-191.277 L -31.3947,-191.448 L -31.4529,-191.627 L -31.4882,-191.812
 L -31.5,-192 L -31.4882,-192.188 L -31.4529,-192.373 L -31.3947,-192.552 L -31.3145,-192.723 L -31.2135,-192.882
 L -31.0934,-193.027 L -30.9561,-193.156 L -30.8037,-193.266 L -30.6387,-193.357 L -30.4635,-193.427 L -30.2811,-193.473
 L -30.0942,-193.497 L -29.9058,-193.497 L -29.7189,-193.473 L -29.5365,-193.427 L -29.3613,-193.357 L -29.1963,-193.266
 L -29.0439,-193.156 L -28.9065,-193.027 L -28.7865,-192.882 L -28.6855,-192.723 L -28.6053,-192.552 L -28.5471,-192.373
 L -28.5118,-192.188 L -28.5,-192 L -28.5118,-191.812 L -28.5471,-191.627 L -28.6053,-191.448 L -28.6855,-191.277
 L -28.7865,-191.118 L -28.9065,-190.973 L -29.0439,-190.844 L -29.1963,-190.734 L -29.3613,-190.643 L -29.5365,-190.573
 L -29.7189,-190.527 L -29.9058,-190.503 z
M 38.9684,-164.544 L 39.2725,-164.622 L 39.5644,-164.738 L 39.8396,-164.889 L 40.0936,-165.074 L 40.3224,-165.289
 L 40.5225,-165.531 L 40.6908,-165.796 L 40.8244,-166.08 L 40.9214,-166.378 L 40.9803,-166.687 L 41,-167
 L 41,-169 L 40.9803,-169.313 L 40.9214,-169.622 L 40.8244,-169.92 L 40.6908,-170.204 L 40.5225,-170.469
 L 40.3224,-170.711 L 40.0936,-170.926 L 39.8396,-171.111 L 39.5644,-171.262 L 39.2725,-171.378 L 38.9684,-171.456
 L 38.657,-171.495 L -38.657,-171.495 L -38.9684,-171.456 L -39.2725,-171.378 L -39.5644,-171.262 L -39.8396,-171.111
 L -40.0936,-170.926 L -40.3224,-170.711 L -40.5225,-170.469 L -40.6908,-170.204 L -40.8244,-169.92 L -40.9214,-169.622
 L -40.9803,-169.313 L -41,-169 L -41,-167 L -40.9803,-166.687 L -40.9214,-166.378 L -40.8244,-166.08
 L -40.6908,-165.796 L -40.5225,-165.531 L -40.3224,-165.289 L -40.0936,-165.074 L -39.8396,-164.889 L -39.5644,-164.738
 L -39.2725,-164.622 L -38.9684,-164.544 L -38.657,-164.505 L 38.657,-164.505 z
M 22.4058,-166.503 L 22.2189,-166.527 L 22.0365,-166.573 L 21.8613,-166.643 L 21.6963,-166.734 L 21.5439,-166.844
 L 21.4065,-166.973 L 21.2865,-167.118 L 21.1855,-167.277 L 21.1053,-167.448 L 21.0471,-167.627 L 21.0118,-167.812
 L 21,-168 L 21.0118,-168.188 L 21.0471,-168.373 L 21.1053,-168.552 L 21.1855,-168.723 L 21.2865,-168.882
 L 21.4065,-169.027 L 21.5439,-169.156 L 21.6963,-169.266 L 21.8613,-169.357 L 22.0365,-169.427 L 22.2189,-169.473
 L 22.4058,-169.497 L 22.5942,-169.497 L 22.7811,-169.473 L 22.9635,-169.427 L 23.1387,-169.357 L 23.3037,-169.266
 L 23.4561,-169.156 L 23.5934,-169.027 L 23.7135,-168.882 L 23.8145,-168.723 L 23.8947,-168.552 L 23.9529,-168.373
 L 23.9882,-168.188 L 24,-168 L 23.9882,-167.812 L 23.9529,-167.627 L 23.8947,-167.448 L 23.8145,-167.277
 L 23.7135,-167.118 L 23.5934,-166.973 L 23.4561,-166.844 L 23.3037,-166.734 L 23.1387,-166.643 L 22.9635,-166.573
 L 22.7811,-166.527 L 22.5942,-166.503 z
M -30.0942,-166.503 L -30.2811,-166.527 L -30.4635,-166.573 L -30.6387,-166.643 L -30.8037,-166.734 L -30.9561,-166.844
 L -31.0934,-166.973 L -31.2135,-167.118 L -31.3145,-167.277 L -31.3947,-167.448 L -31.4529,-167.627 L -31.4882,-167.812
 L -31.5,-168 L -31.4882,-168.188 L -31.4529,-168.373 L -31.3947,-168.552 L -31.3145,-168.723 L -31.2135,-168.882
 L -31.0934,-169.027 L -30.9561,-169.156 L -30.8037,-169.266 L -30.6387,-169.357 L -30.4635,-169.427 L -30.2811,-169.473
 L -30.0942,-169.497 L -29.9058,-169.497 L -29.7189,-169.473 L -29.5365,-169.427 L -29.3613,-169.357 L -29.1963,-169.266
 L -29.0439,-169.156 L -28.9065,-169.027 L -28.7865,-168.882 L -28.6855,-168.723 L -28.6053,-168.552 L -28.5471,-168.373
 L -28.5118,-168.188 L -28.5,-168 L -28.5118,-167.812 L -28.5471,-167.627 L -28.6053,-167.448 L -28.6855,-167.277
 L -28.7865,-167.118 L -28.9065,-166.973 L -29.0439,-166.844 L -29.1963,-166.734 L -29.3613,-166.643 L -29.5365,-166.573
 L -29.7189,-166.527 L -29.9058,-166.503 z
M -15.0942,-166.503 L -15.2811,-166.527 L -15.4635,-166.573 L -15.6387,-166.643 L -15.8037,-166.734 L -15.9561,-166.844
 L -16.0934,-166.973 L -16.2135,-167.118 L -16.3145,-167.277 L -16.3947,-167.448 L -16.4529,-167.627 L -16.4882,-167.812
 L -16.5,-168 L -16.4882,-168.188 L -16.4529,-168.373 L -16.3947,-168.552 L -16.3145,-168.723 L -16.2135,-168.882
 L -16.0934,-169.027 L -15.9561,-169.156 L -15.8037,-169.266 L -15.6387,-169.357 L -15.4635,-169.427 L -15.2811,-169.473
 L -15.0942,-169.497 L -14.9058,-169.497 L -14.7189,-169.473 L -14.5365,-169.427 L -14.3613,-169.357 L -14.1963,-169.266
 L -14.0439,-169.156 L -13.9065,-169.027 L -13.7865,-168.882 L -13.6855,-168.723 L -13.6053,-168.552 L -13.5471,-168.373
 L -13.5118,-168.188 L -13.5,-168 L -13.5118,-167.812 L -13.5471,-167.627 L -13.6053,-167.448 L -13.6855,-167.277
 L -13.7865,-167.118 L -13.9065,-166.973 L -14.0439,-166.844 L -14.1963,-166.734 L -14.3613,-166.643 L -14.5365,-166.573
 L -14.7189,-166.527 L -14.9058,-166.503 z
M -22.5942,-166.503 L -22.7811,-166.527 L -22.9635,-166.573 L -23.1387,-166.643 L -23.3037,-166.734 L -23.4561,-166.844
 L -23.5934,-166.973 L -23.7135,-167.118 L -23.8145,-167.277 L -23.8947,-167.448 L -23.9529,-167.627 L -23.9882,-167.812
 L -24,-168 L -23.9882,-168.188 L -23.9529,-168.373 L -23.8947,-168.552 L -23.8145,-168.723 L -23.7135,-168.882
 L -23.5934,-169.027 L -23.4561,-169.156 L -23.3037,-169.266 L -23.1387,-169.357 L -22.9635,-169.427 L -22.7811,-169.473
 L -22.5942,-169.497 L -22.4058,-169.497 L -22.2189,-169.473 L -22.0365,-169.427 L -21.8613,-169.357 L -21.6963,-169.266
 L -21.5439,-169.156 L -21.4065,-169.027 L -21.2865,-168.882 L -21.1855,-168.723 L -21.1053,-168.552 L -21.0471,-168.373
 L -21.0118,-168.188 L -21,-168 L -21.0118,-167.812 L -21.0471,-167.627 L -21.1053,-167.448 L -21.1855,-167.277
 L -21.2865,-167.118 L -21.4065,-166.973 L -21.5439,-166.844 L -21.6963,-166.734 L -21.8613,-166.643 L -22.0365,-166.573
 L -22.2189,-166.527 L -22.4058,-166.503 z
M -7.59418,-166.503 L -7.78107,-166.527 L -7.96352,-166.573 L -8.13866,-166.643 L -8.30373,-166.734 L -8.45613,-166.844
 L -8.59344,-166.973 L -8.71352,-167.118 L -8.81445,-167.277 L -8.89465,-167.448 L -8.95287,-167.627 L -8.98816,-167.812
 L -9,-168 L -8.98816,-168.188 L -8.95287,-168.373 L -8.89465,-168.552 L -8.81445,-168.723 L -8.71352,-168.882
 L -8.59344,-169.027 L -8.45613,-169.156 L -8.30373,-169.266 L -8.13866,-169.357 L -7.96352,-169.427 L -7.78107,-169.473
 L -7.59418,-169.497 L -7.40581,-169.497 L -7.21892,-169.473 L -7.03647,-169.427 L -6.86133,-169.357 L -6.69626,-169.266
 L -6.54385,-169.156 L -6.40654,-169.027 L -6.28647,-168.882 L -6.18553,-168.723 L -6.10533,-168.552 L -6.04712,-168.373
 L -6.01183,-168.188 L -6,-168 L -6.01183,-167.812 L -6.04712,-167.627 L -6.10533,-167.448 L -6.18553,-167.277
 L -6.28647,-167.118 L -6.40654,-166.973 L -6.54385,-166.844 L -6.69626,-166.734 L -6.86133,-166.643 L -7.03647,-166.573
 L -7.21892,-166.527 L -7.40581,-166.503 z
M 37.4058,-166.503 L 37.2189,-166.527 L 37.0365,-166.573 L 36.8613,-166.643 L 36.6963,-166.734 L 36.5439,-166.844
 L 36.4065,-166.973 L 36.2865,-167.118 L 36.1855,-167.277 L 36.1053,-167.448 L 36.0471,-167.627 L 36.0118,-167.812
 L 36,-168 L 36.0118,-168.188 L 36.0471,-168.373 L 36.1053,-168.552 L 36.1855,-168.723 L 36.2865,-168.882
 L 36.4065,-169.027 L 36.5439,-169.156 L 36.6963,-169.266 L 36.8613,-169.357 L 37.0365,-169.427 L 37.2189,-169.473
 L 37.4058,-169.497 L 37.5942,-169.497 L 37.7811,-169.473 L 37.9635,-169.427 L 38.1387,-169.357 L 38.3037,-169.266
 L 38.4561,-169.156 L 38.5934,-169.027 L 38.7135,-168.882 L 38.8145,-168.723 L 38.8947,-168.552 L 38.9529,-168.373
 L 38.9882,-168.188 L 39,-168 L 38.9882,-167.812 L 38.9529,-167.627 L 38.8947,-167.448 L 38.8145,-167.277
 L 38.7135,-167.118 L 38.5934,-166.973 L 38.4561,-166.844 L 38.3037,-166.734 L 38.1387,-166.643 L 37.9635,-166.573
 L 37.7811,-166.527 L 37.5942,-166.503 z
M 7.40581,-166.503 L 7.21892,-166.527 L 7.03647,-166.573 L 6.86133,-166.643 L 6.69626,-166.734 L 6.54385,-166.844
 L 6.40654,-166.973 L 6.28647,-167.118 L 6.18553,-167.277 L 6.10533,-167.448 L 6.04712,-167.627 L 6.01183,-167.812
 L 6,-168 L 6.01183,-168.188 L 6.04712,-168.373 L 6.10533,-168.552 L 6.18553,-168.723 L 6.28647,-168.882
 L 6.40654,-169.027 L 6.54385,-169.156 L 6.69626,-169.266 L 6.86133,-169.357 L 7.03647,-169.427 L 7.21892,-169.473
 L 7.40581,-169.497 L 7.59418,-169.497 L 7.78107,-169.473 L 7.96352,-169.427 L 8.13866,-169.357 L 8.30373,-169.266
 L 8.45613,-169.156 L 8.59344,-169.027 L 8.71352,-168.882 L 8.81445,-168.723 L 8.89465,-168.552 L 8.95287,-168.373
 L 8.98816,-168.188 L 9,-168 L 8.98816,-167.812 L 8.95287,-167.627 L 8.89465,-167.448 L 8.81445,-167.277
 L 8.71352,-167.118 L 8.59344,-166.973 L 8.45613,-166.844 L 8.30373,-166.734 L 8.13866,-166.643 L 7.96352,-166.573
 L 7.78107,-166.527 L 7.59418,-166.503 z
M 14.9058,-166.503 L 14.7189,-166.527 L 14.5365,-166.573 L 14.3613,-166.643 L 14.1963,-166.734 L 14.0439,-166.844
 L 13.9065,-166.973 L 13.7865,-167.118 L 13.6855,-167.277 L 13.6053,-167.448 L 13.5471,-167.627 L 13.5118,-167.812
 L 13.5,-168 L 13.5118,-168.188 L 13.5471,-168.373 L 13.6053,-168.552 L 13.6855,-168.723 L 13.7865,-168.882
 L 13.9065,-169.027 L 14.0439,-169.156 L 14.1963,-169.266 L 14.3613,-169.357 L 14.5365,-169.427 L 14.7189,-169.473
 L 14.9058,-169.497 L 15.0942,-169.497 L 15.2811,-169.473 L 15.4635,-169.427 L 15.6387,-169.357 L 15.8037,-169.266
 L 15.9561,-169.156 L 16.0934,-169.027 L 16.2135,-168.882 L 16.3145,-168.723 L 16.3947,-168.552 L 16.4529,-168.373
 L 16.4882,-168.188 L 16.5,-168 L 16.4882,-167.812 L 16.4529,-167.627 L 16.3947,-167.448 L 16.3145,-167.277
 L 16.2135,-167.118 L 16.0934,-166.973 L 15.9561,-166.844 L 15.8037,-166.734 L 15.6387,-166.643 L 15.4635,-166.573
 L 15.2811,-166.527 L 15.0942,-166.503 z
M -37.5942,-166.503 L -37.7811,-166.527 L -37.9635,-166.573 L -38.1387,-166.643 L -38.3037,-166.734 L -38.4561,-166.844
 L -38.5934,-166.973 L -38.7135,-167.118 L -38.8145,-167.277 L -38.8947,-167.448 L -38.9529,-167.627 L -38.9882,-167.812
 L -39,-168 L -38.9882,-168.188 L -38.9529,-168.373 L -38.8947,-168.552 L -38.8145,-168.723 L -38.7135,-168.882
 L -38.5934,-169.027 L -38.4561,-169.156 L -38.3037,-169.266 L -38.1387,-169.357 L -37.9635,-169.427 L -37.7811,-169.473
 L -37.5942,-169.497 L -37.4058,-169.497 L -37.2189,-169.473 L -37.0365,-169.427 L -36.8613,-169.357 L -36.6963,-169.266
 L -36.5439,-169.156 L -36.4065,-169.027 L -36.2865,-168.882 L -36.1855,-168.723 L -36.1053,-168.552 L -36.0471,-168.373
 L -36.0118,-168.188 L -36,-168 L -36.0118,-167.812 L -36.0471,-167.627 L -36.1053,-167.448 L -36.1855,-167.277
 L -36.2865,-167.118 L -36.4065,-166.973 L -36.5439,-166.844 L -36.6963,-166.734 L -36.8613,-166.643 L -37.0365,-166.573
 L -37.2189,-166.527 L -37.4058,-166.503 z
M -0.0941772,-166.503 L -0.281067,-166.527 L -0.463516,-166.573 L -0.638657,-166.643 L -0.803726,-166.734 L -0.956131,-166.844
 L -1.09344,-166.973 L -1.21352,-167.118 L -1.31445,-167.277 L -1.39465,-167.448 L -1.45287,-167.627 L -1.48816,-167.812
 L -1.5,-168 L -1.48816,-168.188 L -1.45287,-168.373 L -1.39465,-168.552 L -1.31445,-168.723 L -1.21352,-168.882
 L -1.09344,-169.027 L -0.956131,-169.156 L -0.803726,-169.266 L -0.638657,-169.357 L -0.463516,-169.427 L -0.281067,-169.473
 L -0.0941772,-169.497 L 0.0941772,-169.497 L 0.281067,-169.473 L 0.463516,-169.427 L 0.638657,-169.357 L 0.803726,-169.266
 L 0.956131,-169.156 L 1.09344,-169.027 L 1.21352,-168.882 L 1.31445,-168.723 L 1.39465,-168.552 L 1.45287,-168.373
 L 1.48816,-168.188 L 1.5,-168 L 1.48816,-167.812 L 1.45287,-167.627 L 1.39465,-167.448 L 1.31445,-167.277
 L 1.21352,-167.118 L 1.09344,-166.973 L 0.956131,-166.844 L 0.803726,-166.734 L 0.638657,-166.643 L 0.463516,-166.573
 L 0.281067,-166.527 L 0.0941772,-166.503 z
M 29.9058,-166.503 L 29.7189,-166.527 L 29.5365,-166.573 L 29.3613,-166.643 L 29.1963,-166.734 L 29.0439,-166.844
 L 28.9065,-166.973 L 28.7865,-167.118 L 28.6855,-167.277 L 28.6053,-167.448 L 28.5471,-167.627 L 28.5118,-167.812
 L 28.5,-168 L 28.5118,-168.188 L 28.5471,-168.373 L 28.6053,-168.552 L 28.6855,-168.723 L 28.7865,-168.882
 L 28.9065,-169.027 L 29.0439,-169.156 L 29.1963,-169.266 L 29.3613,-169.357 L 29.5365,-169.427 L 29.7189,-169.473
 L 29.9058,-169.497 L 30.0942,-169.497 L 30.2811,-169.473 L 30.4635,-169.427 L 30.6387,-169.357 L 30.8037,-169.266
 L 30.9561,-169.156 L 31.0934,-169.027 L 31.2135,-168.882 L 31.3145,-168.723 L 31.3947,-168.552 L 31.4529,-168.373
 L 31.4882,-168.188 L 31.5,-168 L 31.4882,-167.812 L 31.4529,-167.627 L 31.3947,-167.448 L 31.3145,-167.277
 L 31.2135,-167.118 L 31.0934,-166.973 L 30.9561,-166.844 L 30.8037,-166.734 L 30.6387,-166.643 L 30.4635,-166.573
 L 30.2811,-166.527 L 30.0942,-166.503 z
M 38.9684,-140.544 L 39.2725,-140.622 L 39.5644,-140.738 L 39.8396,-140.889 L 40.0936,-141.074 L 40.3224,-141.289
 L 40.5225,-141.531 L 40.6908,-141.796 L 40.8244,-142.08 L 40.9214,-142.378 L 40.9803,-142.687 L 41,-143
 L 41,-145 L 40.9803,-145.313 L 40.9214,-145.622 L 40.8244,-145.92 L 40.6908,-146.204 L 40.5225,-146.469
 L 40.3224,-146.711 L 40.0936,-146.926 L 39.8396,-147.111 L 39.5644,-147.262 L 39.2725,-147.378 L 38.9684,-147.456
 L 38.657,-147.495 L -38.657,-147.495 L -38.9684,-147.456 L -39.2725,-147.378 L -39.5644,-147.262 L -39.8396,-147.111
 L -40.0936,-146.926 L -40.3224,-146.711 L -40.5225,-146.469 L -40.6908,-146.204 L -40.8244,-145.92 L -40.9214,-145.622
 L -40.9803,-145.313 L -41,-145 L -41,-143 L -40.9803,-142.687 L -40.9214,-142.378 L -40.8244,-142.08
 L -40.6908,-141.796 L -40.5225,-141.531 L -40.3224,-141.289 L -40.0936,-141.074 L -39.8396,-140.889 L -39.5644,-140.738
 L -39.2725,-140.622 L -38.9684,-140.544 L -38.657,-140.505 L 38.657,-140.505 z
M -37.5942,-142.503 L -37.7811,-142.527 L -37.9635,-142.573 L -38.1387,-142.643 L -38.3037,-142.734 L -38.4561,-142.844
 L -38.5934,-142.973 L -38.7135,-143.118 L -38.8145,-143.277 L -38.8947,-143.448 L -38.9529,-143.627 L -38.9882,-143.812
 L -39,-144 L -38.9882,-144.188 L -38.9529,-144.373 L -38.8947,-144.552 L -38.8145,-144.723 L -38.7135,-144.882
 L -38.5934,-145.027 L -38.4561,-145.156 L -38.3037,-145.266 L -38.1387,-145.357 L -37.9635,-145.427 L -37.7811,-145.473
 L -37.5942,-145.497 L -37.4058,-145.497 L -37.2189,-145.473 L -37.0365,-145.427 L -36.8613,-145.357 L -36.6963,-145.266
 L -36.5439,-145.156 L -36.4065,-145.027 L -36.2865,-144.882 L -36.1855,-144.723 L -36.1053,-144.552 L -36.0471,-144.373
 L -36.0118,-144.188 L -36,-144 L -36.0118,-143.812 L -36.0471,-143.627 L -36.1053,-143.448 L -36.1855,-143.277
 L -36.2865,-143.118 L -36.4065,-142.973 L -36.5439,-142.844 L -36.6963,-142.734 L -36.8613,-142.643 L -37.0365,-142.573
 L -37.2189,-142.527 L -37.4058,-142.503 z
M 29.9058,-142.503 L 29.7189,-142.527 L 29.5365,-142.573 L 29.3613,-142.643 L 29.1963,-142.734 L 29.0439,-142.844
 L 28.9065,-142.973 L 28.7865,-143.118 L 28.6855,-143.277 L 28.6053,-143.448 L 28.5471,-143.627 L 28.5118,-143.812
 L 28.5,-144 L 28.5118,-144.188 L 28.5471,-144.373 L 28.6053,-144.552 L 28.6855,-144.723 L 28.7865,-144.882
 L 28.9065,-145.027 L 29.0439,-145.156 L 29.1963,-145.266 L 29.3613,-145.357 L 29.5365,-145.427 L 29.7189,-145.473
 L 29.9058,-145.497 L 30.0942,-145.497 L 30.2811,-145.473 L 30.4635,-145.427 L 30.6387,-145.357 L 30.8037,-145.266
 L 30.9561,-145.156 L 31.0934,-145.027 L 31.2135,-144.882 L 31.3145,-144.723 L 31.3947,-144.552 L 31.4529,-144.373
 L 31.4882,-144.188 L 31.5,-144 L 31.4882,-143.812 L 31.4529,-143.627 L 31.3947,-143.448 L 31.3145,-143.277
 L 31.2135,-143.118 L 31.0934,-142.973 L 30.9561,-142.844 L 30.8037,-142.734 L 30.6387,-142.643 L 30.4635,-142.573
 L 30.2811,-142.527 L 30.0942,-142.503 z
M -0.0941772,-142.503 L -0.281067,-142.527 L -0.463516,-142.573 L -0.638657,-142.643 L -0.803726,-142.734 L -0.956131,-142.844
 L -1.09344,-142.973 L -1.21352,-143.118 L -1.31445,-143.277 L -1.39465,-143.448 L -1.45287,-143.627 L -1.48816,-143.812
 L -1.5,-144 L -1.48816,-144.188 L -1.45287,-144.373 L -1.39465,-144.552 L -1.31445,-144.723 L -1.21352,-144.882
 L -1.09344,-145.027 L -0.956131,-145.156 L -0.803726,-145.266 L -0.638657,-145.357 L -0.463516,-145.427 L -0.281067,-145.473
 L -0.0941772,-145.497 L 0.0941772,-145.497 L 0.281067,-145.473 L 0.463516,-145.427 L 0.638657,-145.357 L 0.803726,-145.266
 L 0.956131,-145.156 L 1.09344,-145.027 L 1.21352,-144.882 L 1.31445,-144.723 L 1.39465,-144.552 L 1.45287,-144.373
 L 1.48816,-144.188 L 1.5,-144 L 1.48816,-143.812 L 1.45287,-143.627 L 1.39465,-143.448 L 1.31445,-143.277
 L 1.21352,-143.118 L 1.09344,-142.973 L 0.956131,-142.844 L 0.803726,-142.734 L 0.638657,-142.643 L 0.463516,-142.573
 L 0.281067,-142.527 L 0.0941772,-142.503 z
M 14.9058,-142.503 L 14.7189,-142.527 L 14.5365,-142.573 L 14.3613,-142.643 L 14.1963,-142.734 L 14.0439,-142.844
 L 13.9065,-142.973 L 13.7865,-143.118 L 13.6855,-143.277 L 13.6053,-143.448 L 13.5471,-143.627 L 13.5118,-143.812
 L 13.5,-144 L 13.5118,-144.188 L 13.5471,-144.373 L 13.6053,-144.552 L 13.6855,-144.723 L 13.7865,-144.882
 L 13.9065,-145.027 L 14.0439,-145.156 L 14.1963,-145.266 L 14.3613,-145.357 L 14.5365,-145.427 L 14.7189,-145.473
 L 14.9058,-145.497 L 15.0942,-145.497 L 15.2811,-145.473 L 15.4635,-145.427 L 15.6387,-145.357 L 15.8037,-145.266
 L 15.9561,-145.156 L 16.0934,-145.027 L 16.2135,-144.882 L 16.3145,-144.723 L 16.3947,-144.552 L 16.4529,-144.373
 L 16.4882,-144.188 L 16.5,-144 L 16.4882,-143.812 L 16.4529,-143.627 L 16.3947,-143.448 L 16.3145,-143.277
 L 16.2135,-143.118 L 16.0934,-142.973 L 15.9561,-142.844 L 15.8037,-142.734 L 15.6387,-142.643 L 15.4635,-142.573
 L 15.2811,-142.527 L 15.0942,-142.503 z
M 7.40581,-142.503 L 7.21892,-142.527 L 7.03647,-142.573 L 6.86133,-142.643 L 6.69626,-142.734 L 6.54385,-142.844
 L 6.40654,-142.973 L 6.28647,-143.118 L 6.18553,-143.277 L 6.10533,-143.448 L 6.04712,-143.627 L 6.01183,-143.812
 L 6,-144 L 6.01183,-144.188 L 6.04712,-144.373 L 6.10533,-144.552 L 6.18553,-144.723 L 6.28647,-144.882
 L 6.40654,-145.027 L 6.54385,-145.156 L 6.69626,-145.266 L 6.86133,-145.357 L 7.03647,-145.427 L 7.21892,-145.473
 L 7.40581,-145.497 L 7.59418,-145.497 L 7.78107,-145.473 L 7.96352,-145.427 L 8.13866,-145.357 L 8.30373,-145.266
 L 8.45613,-145.156 L 8.59344,-145.027 L 8.71352,-144.882 L 8.81445,-144.723 L 8.89465,-144.552 L 8.95287,-144.373
 L 8.98816,-144.188 L 9,-144 L 8.98816,-143.812 L 8.95287,-143.627 L 8.89465,-143.448 L 8.81445,-143.277
 L 8.71352,-143.118 L 8.59344,-142.973 L 8.45613,-142.844 L 8.30373,-142.734 L 8.13866,-142.643 L 7.96352,-142.573
 L 7.78107,-142.527 L 7.59418,-142.503 z
M 37.4058,-142.503 L 37.2189,-142.527 L 37.0365,-142.573 L 36.8613,-142.643 L 36.6963,-142.734 L 36.5439,-142.844
 L 36.4065,-142.973 L 36.2865,-143.118 L 36.1855,-143.277 L 36.1053,-143.448 L 36.0471,-143.627 L 36.0118,-143.812
 L 36,-144 L 36.0118,-144.188 L 36.0471,-144.373 L 36.1053,-144.552 L 36.1855,-144.723 L 36.2865,-144.882
 L 36.4065,-145.027 L 36.5439,-145.156 L 36.6963,-145.266 L 36.8613,-145.357 L 37.0365,-145.427 L 37.2189,-145.473
 L 37.4058,-145.497 L 37.5942,-145.497 L 37.7811,-145.473 L 37.9635,-145.427 L 38.1387,-145.357 L 38.3037,-145.266
 L 38.4561,-145.156 L 38.5934,-145.027 L 38.7135,-144.882 L 38.8145,-144.723 L 38.8947,-144.552 L 38.9529,-144.373
 L 38.9882,-144.188 L 39,-144 L 38.9882,-143.812 L 38.9529,-143.627 L 38.8947,-143.448 L 38.8145,-143.277
 L 38.7135,-143.118 L 38.5934,-142.973 L 38.4561,-142.844 L 38.3037,-142.734 L 38.1387,-142.643 L 37.9635,-142.573
 L 37.7811,-142.527 L 37.5942,-142.503 z
M -7.59418,-142.503 L -7.78107,-142.527 L -7.96352,-142.573 L -8.13866,-142.643 L -8.30373,-142.734 L -8.45613,-142.844
 L -8.59344,-142.973 L -8.71352,-143.118 L -8.81445,-143.277 L -8.89465,-143.448 L -8.95287,-143.627 L -8.98816,-143.812
 L -9,-144 L -8.98816,-144.188 L -8.95287,-144.373 L -8.89465,-144.552 L -8.81445,-144.723 L -8.71352,-144.882
 L -8.59344,-145.027 L -8.45613,-145.156 L -8.30373,-145.266 L -8.13866,-145.357 L -7.96352,-145.427 L -7.78107,-145.473
 L -7.59418,-145.497 L -7.40581,-145.497 L -7.21892,-145.473 L -7.03647,-145.427 L -6.86133,-145.357 L -6.69626,-145.266
 L -6.54385,-145.156 L -6.40654,-145.027 L -6.28647,-144.882 L -6.18553,-144.723 L -6.10533,-144.552 L -6.04712,-144.373
 L -6.01183,-144.188 L -6,-144 L -6.01183,-143.812 L -6.04712,-143.627 L -6.10533,-143.448 L -6.18553,-143.277
 L -6.28647,-143.118 L -6.40654,-142.973 L -6.54385,-142.844 L -6.69626,-142.734 L -6.86133,-142.643 L -7.03647,-142.573
 L -7.21892,-142.527 L -7.40581,-142.503 z
M -22.5942,-142.503 L -22.7811,-142.527 L -22.9635,-142.573 L -23.1387,-142.643 L -23.3037,-142.734 L -23.4561,-142.844
 L -23.5934,-142.973 L -23.7135,-143.118 L -23.8145,-143.277 L -23.8947,-143.448 L -23.9529,-143.627 L -23.9882,-143.812
 L -24,-144 L -23.9882,-144.188 L -23.9529,-144.373 L -23.8947,-144.552 L -23.8145,-144.723 L -23.7135,-144.882
 L -23.5934,-145.027 L -23.4561,-145.156 L -23.3037,-145.266 L -23.1387,-145.357 L -22.9635,-145.427 L -22.7811,-145.473
 L -22.5942,-145.497 L -22.4058,-145.497 L -22.2189,-145.473 L -22.0365,-145.427 L -21.8613,-145.357 L -21.6963,-145.266
 L -21.5439,-145.156 L -21.4065,-145.027 L -21.2865,-144.882 L -21.1855,-144.723 L -21.1053,-144.552 L -21.0471,-144.373
 L -21.0118,-144.188 L -21,-144 L -21.0118,-143.812 L -21.0471,-143.627 L -21.1053,-143.448 L -21.1855,-143.277
 L -21.2865,-143.118 L -21.4065,-142.973 L -21.5439,-142.844 L -21.6963,-142.734 L -21.8613,-142.643 L -22.0365,-142.573
 L -22.2189,-142.527 L -22.4058,-142.503 z
M -15.0942,-142.503 L -15.2811,-142.527 L -15.4635,-142.573 L -15.6387,-142.643 L -15.8037,-142.734 L -15.9561,-142.844
 L -16.0934,-142.973 L -16.2135,-143.118 L -16.3145,-143.277 L -16.3947,-143.448 L -16.4529,-143.627 L -16.4882,-143.812
 L -16.5,-144 L -16.4882,-144.188 L -16.4529,-144.373 L -16.3947,-144.552 L -16.3145,-144.723 L -16.2135,-144.882
 L -16.0934,-145.027 L -15.9561,-145.156 L -15.8037,-145.266 L -15.6387,-145.357 L -15.4635,-145.427 L -15.2811,-145.473
 L -15.0942,-145.497 L -14.9058,-145.497 L -14.7189,-145.473 L -14.5365,-145.427 L -14.3613,-145.357 L -14.1963,-145.266
 L -14.0439,-145.156 L -13.9065,-145.027 L -13.7865,-144.882 L -13.6855,-144.723 L -13.6053,-144.552 L -13.5471,-144.373
 L -13.5118,-144.188 L -13.5,-144 L -13.5118,-143.812 L -13.5471,-143.627 L -13.6053,-143.448 L -13.6855,-143.277
 L -13.7865,-143.118 L -13.9065,-142.973 L -14.0439,-142.844 L -14.1963,-142.734 L -14.3613,-142.643 L -14.5365,-142.573
 L -14.7189,-142.527 L -14.9058,-142.503 z
M -30.0942,-142.503 L -30.2811,-142.527 L -30.4635,-142.573 L -30.6387,-142.643 L -30.8037,-142.734 L -30.9561,-142.844
 L -31.0934,-142.973 L -31.2135,-143.118 L -31.3145,-143.277 L -31.3947,-143.448 L -31.4529,-143.627 L -31.4882,-143.812
 L -31.5,-144 L -31.4882,-144.188 L -31.4529,-144.373 L -31.3947,-144.552 L -31.3145,-144.723 L -31.2135,-144.882
 L -31.0934,-145.027 L -30.9561,-145.156 L -30.8037,-145.266 L -30.6387,-145.357 L -30.4635,-145.427 L -30.2811,-145.473
 L -30.0942,-145.497 L -29.9058,-145.497 L -29.7189,-145.473 L -29.5365,-145.427 L -29.3613,-145.357 L -29.1963,-145.266
 L -29.0439,-145.156 L -28.9065,-145.027 L -28.7865,-144.882 L -28.6855,-144.723 L -28.6053,-144.552 L -28.5471,-144.373
 L -28.5118,-144.188 L -28.5,-144 L -28.5118,-143.812 L -28.5471,-143.627 L -28.6053,-143.448 L -28.6855,-143.277
 L -28.7865,-143.118 L -28.9065,-142.973 L -29.0439,-142.844 L -29.1963,-142.734 L -29.3613,-142.643 L -29.5365,-142.573
 L -29.7189,-142.527 L -29.9058,-142.503 z
M 22.4058,-142.503 L 22.2189,-142.527 L 22.0365,-142.573 L 21.8613,-142.643 L 21.6963,-142.734 L 21.5439,-142.844
 L 21.4065,-142.973 L 21.2865,-143.118 L 21.1855,-143.277 L 21.1053,-143.448 L 21.0471,-143.627 L 21.0118,-143.812
 L 21,-144 L 21.0118,-144.188 L 21.0471,-144.373 L 21.1053,-144.552 L 21.1855,-144.723 L 21.2865,-144.882
 L 21.4065,-145.027 L 21.5439,-145.156 L 21.6963,-145.266 L 21.8613,-145.357 L 22.0365,-145.427 L 22.2189,-145.473
 L 22.4058,-145.497 L 22.5942,-145.497 L 22.7811,-145.473 L 22.9635,-145.427 L 23.1387,-145.357 L 23.3037,-145.266
 L 23.4561,-145.156 L 23.5934,-145.027 L 23.7135,-144.882 L 23.8145,-144.723 L 23.8947,-144.552 L 23.9529,-144.373
 L 23.9882,-144.188 L 24,-144 L 23.9882,-143.812 L 23.9529,-143.627 L 23.8947,-143.448 L 23.8145,-143.277
 L 23.7135,-143.118 L 23.5934,-142.973 L 23.4561,-142.844 L 23.3037,-142.734 L 23.1387,-142.643 L 22.9635,-142.573
 L 22.7811,-142.527 L 22.5942,-142.503 z
M 38.9684,-116.544 L 39.2725,-116.622 L 39.5644,-116.738 L 39.8396,-116.889 L 40.0936,-117.074 L 40.3224,-117.289
 L 40.5225,-117.531 L 40.6908,-117.796 L 40.8244,-118.08 L 40.9214,-118.378 L 40.9803,-118.687 L 41,-119
 L 41,-121 L 40.9803,-121.313 L 40.9214,-121.622 L 40.8244,-121.92 L 40.6908,-122.204 L 40.5225,-122.469
 L 40.3224,-122.711 L 40.0936,-122.926 L 39.8396,-123.111 L 39.5644,-123.262 L 39.2725,-123.378 L 38.9684,-123.456
 L 38.657,-123.495 L -38.657,-123.495 L -38.9684,-123.456 L -39.2725,-123.378 L -39.5644,-123.262 L -39.8396,-123.111
 L -40.0936,-122.926 L -40.3224,-122.711 L -40.5225,-122.469 L -40.6908,-122.204 L -40.8244,-121.92 L -40.9214,-121.622
 L -40.9803,-121.313 L -41,-121 L -41,-119 L -40.9803,-118.687 L -40.9214,-118.378 L -40.8244,-118.08
 L -40.6908,-117.796 L -40.5225,-117.531 L -40.3224,-117.289 L -40.0936,-117.074 L -39.8396,-116.889 L -39.5644,-116.738
 L -39.2725,-116.622 L -38.9684,-116.544 L -38.657,-116.505 L 38.657,-116.505 z
M 29.9058,-118.503 L 29.7189,-118.527 L 29.5365,-118.573 L 29.3613,-118.643 L 29.1963,-118.734 L 29.0439,-118.844
 L 28.9065,-118.973 L 28.7865,-119.118 L 28.6855,-119.277 L 28.6053,-119.448 L 28.5471,-119.627 L 28.5118,-119.812
 L 28.5,-120 L 28.5118,-120.188 L 28.5471,-120.373 L 28.6053,-120.552 L 28.6855,-120.723 L 28.7865,-120.882
 L 28.9065,-121.027 L 29.0439,-121.156 L 29.1963,-121.266 L 29.3613,-121.357 L 29.5365,-121.427 L 29.7189,-121.473
 L 29.9058,-121.497 L 30.0942,-121.497 L 30.2811,-121.473 L 30.4635,-121.427 L 30.6387,-121.357 L 30.8037,-121.266
 L 30.9561,-121.156 L 31.0934,-121.027 L 31.2135,-120.882 L 31.3145,-120.723 L 31.3947,-120.552 L 31.4529,-120.373
 L 31.4882,-120.188 L 31.5,-120 L 31.4882,-119.812 L 31.4529,-119.627 L 31.3947,-119.448 L 31.3145,-119.277
 L 31.2135,-119.118 L 31.0934,-118.973 L 30.9561,-118.844 L 30.8037,-118.734 L 30.6387,-118.643 L 30.4635,-118.573
 L 30.2811,-118.527 L 30.0942,-118.503 z
M -0.0941772,-118.503 L -0.281067,-118.527 L -0.463516,-118.573 L -0.638657,-118.643 L -0.803726,-118.734 L -0.956131,-118.844
 L -1.09344,-118.973 L -1.21352,-119.118 L -1.31445,-119.277 L -1.39465,-119.448 L -1.45287,-119.627 L -1.48816,-119.812
 L -1.5,-120 L -1.48816,-120.188 L -1.45287,-120.373 L -1.39465,-120.552 L -1.31445,-120.723 L -1.21352,-120.882
 L -1.09344,-121.027 L -0.956131,-121.156 L -0.803726,-121.266 L -0.638657,-121.357 L -0.463516,-121.427 L -0.281067,-121.473
 L -0.0941772,-121.497 L 0.0941772,-121.497 L 0.281067,-121.473 L 0.463516,-121.427 L 0.638657,-121.357 L 0.803726,-121.266
 L 0.956131,-121.156 L 1.09344,-121.027 L 1.21352,-120.882 L 1.31445,-120.723 L 1.39465,-120.552 L 1.45287,-120.373
 L 1.48816,-120.188 L 1.5,-120 L 1.48816,-119.812 L 1.45287,-119.627 L 1.39465,-119.448 L 1.31445,-119.277
 L 1.21352,-119.118 L 1.09344,-118.973 L 0.956131,-118.844 L 0.803726,-118.734 L 0.638657,-118.643 L 0.463516,-118.573
 L 0.281067,-118.527 L 0.0941772,-118.503 z
M -37.5942,-118.503 L -37.7811,-118.527 L -37.9635,-118.573 L -38.1387,-118.643 L -38.3037,-118.734 L -38.4561,-118.844
 L -38.5934,-118.973 L -38.7135,-119.118 L -38.8145,-119.277 L -38.8947,-119.448 L -38.9529,-119.627 L -38.9882,-119.812
 L -39,-120 L -38.9882,-120.188 L -38.9529,-120.373 L -38.8947,-120.552 L -38.8145,-120.723 L -38.7135,-120.882
 L -38.5934,-121.027 L -38.4561,-121.156 L -38.3037,-121.266 L -38.1387,-121.357 L -37.9635,-121.427 L -37.7811,-121.473
 L -37.5942,-121.497 L -37.4058,-121.497 L -37.2189,-121.473 L -37.0365,-121.427 L -36.8613,-121.357 L -36.6963,-121.266
 L -36.5439,-121.156 L -36.4065,-121.027 L -36.2865,-120.882 L -36.1855,-120.723 L -36.1053,-120.552 L -36.0471,-120.373
 L -36.0118,-120.188 L -36,-120 L -36.0118,-119.812 L -36.0471,-119.627 L -36.1053,-119.448 L -36.1855,-119.277
 L -36.2865,-119.118 L -36.4065,-118.973 L -36.5439,-118.844 L -36.6963,-118.734 L -36.8613,-118.643 L -37.0365,-118.573
 L -37.2189,-118.527 L -37.4058,-118.503 z
M 14.9058,-118.503 L 14.7189,-118.527 L 14.5365,-118.573 L 14.3613,-118.643 L 14.1963,-118.734 L 14.0439,-118.844
 L 13.9065,-118.973 L 13.7865,-119.118 L 13.6855,-119.277 L 13.6053,-119.448 L 13.5471,-119.627 L 13.5118,-119.812
 L 13.5,-120 L 13.5118,-120.188 L 13.5471,-120.373 L 13.6053,-120.552 L 13.6855,-120.723 L 13.7865,-120.882
 L 13.9065,-121.027 L 14.0439,-121.156 L 14.1963,-121.266 L 14.3613,-121.357 L 14.5365,-121.427 L 14.7189,-121.473
 L 14.9058,-121.497 L 15.0942,-121.497 L 15.2811,-121.473 L 15.4635,-121.427 L 15.6387,-121.357 L 15.8037,-121.266
 L 15.9561,-121.156 L 16.0934,-121.027 L 16.2135,-120.882 L 16.3145,-120.723 L 16.3947,-120.552 L 16.4529,-120.373
 L 16.4882,-120.188 L 16.5,-120 L 16.4882,-119.812 L 16.4529,-119.627 L 16.3947,-119.448 L 16.3145,-119.277
 L 16.2135,-119.118 L 16.0934,-118.973 L 15.9561,-118.844 L 15.8037,-118.734 L 15.6387,-118.643 L 15.4635,-118.573
 L 15.2811,-118.527 L 15.0942,-118.503 z
M 7.40581,-118.503 L 7.21892,-118.527 L 7.03647,-118.573 L 6.86133,-118.643 L 6.69626,-118.734 L 6.54385,-118.844
 L 6.40654,-118.973 L 6.28647,-119.118 L 6.18553,-119.277 L 6.10533,-119.448 L 6.04712,-119.627 L 6.01183,-119.812
 L 6,-120 L 6.01183,-120.188 L 6.04712,-120.373 L 6.10533,-120.552 L 6.18553,-120.723 L 6.28647,-120.882
 L 6.40654,-121.027 L 6.54385,-121.156 L 6.69626,-121.266 L 6.86133,-121.357 L 7.03647,-121.427 L 7.21892,-121.473
 L 7.40581,-121.497 L 7.59418,-121.497 L 7.78107,-121.473 L 7.96352,-121.427 L 8.13866,-121.357 L 8.30373,-121.266
 L 8.45613,-121.156 L 8.59344,-121.027 L 8.71352,-120.882 L 8.81445,-120.723 L 8.89465,-120.552 L 8.95287,-120.373
 L 8.98816,-120.188 L 9,-120 L 8.98816,-119.812 L 8.95287,-119.627 L 8.89465,-119.448 L 8.81445,-119.277
 L 8.71352,-119.118 L 8.59344,-118.973 L 8.45613,-118.844 L 8.30373,-118.734 L 8.13866,-118.643 L 7.96352,-118.573
 L 7.78107,-118.527 L 7.59418,-118.503 z
M 22.4058,-118.503 L 22.2189,-118.527 L 22.0365,-118.573 L 21.8613,-118.643 L 21.6963,-118.734 L 21.5439,-118.844
 L 21.4065,-118.973 L 21.2865,-119.118 L 21.1855,-119.277 L 21.1053,-119.448 L 21.0471,-119.627 L 21.0118,-119.812
 L 21,-120 L 21.0118,-120.188 L 21.0471,-120.373 L 21.1053,-120.552 L 21.1855,-120.723 L 21.2865,-120.882
 L 21.4065,-121.027 L 21.5439,-121.156 L 21.6963,-121.266 L 21.8613,-121.357 L 22.0365,-121.427 L 22.2189,-121.473
 L 22.4058,-121.497 L 22.5942,-121.497 L 22.7811,-121.473 L 22.9635,-121.427 L 23.1387,-121.357 L 23.3037,-121.266
 L 23.4561,-121.156 L 23.5934,-121.027 L 23.7135,-120.882 L 23.8145,-120.723 L 23.8947,-120.552 L 23.9529,-120.373
 L 23.9882,-120.188 L 24,-120 L 23.9882,-119.812 L 23.9529,-119.627 L 23.8947,-119.448 L 23.8145,-119.277
 L 23.7135,-119.118 L 23.5934,-118.973 L 23.4561,-118.844 L 23.3037,-118.734 L 23.1387,-118.643 L 22.9635,-118.573
 L 22.7811,-118.527 L 22.5942,-118.503 z
M 37.4058,-118.503 L 37.2189,-118.527 L 37.0365,-118.573 L 36.8613,-118.643 L 36.6963,-118.734 L 36.5439,-118.844
 L 36.4065,-118.973 L 36.2865,-119.118 L 36.1855,-119.277 L 36.1053,-119.448 L 36.0471,-119.627 L 36.0118,-119.812
 L 36,-120 L 36.0118,-120.188 L 36.0471,-120.373 L 36.1053,-120.552 L 36.1855,-120.723 L 36.2865,-120.882
 L 36.4065,-121.027 L 36.5439,-121.156 L 36.6963,-121.266 L 36.8613,-121.357 L 37.0365,-121.427 L 37.2189,-121.473
 L 37.4058,-121.497 L 37.5942,-121.497 L 37.7811,-121.473 L 37.9635,-121.427 L 38.1387,-121.357 L 38.3037,-121.266
 L 38.4561,-121.156 L 38.5934,-121.027 L 38.7135,-120.882 L 38.8145,-120.723 L 38.8947,-120.552 L 38.9529,-120.373
 L 38.9882,-120.188 L 39,-120 L 38.9882,-119.812 L 38.9529,-119.627 L 38.8947,-119.448 L 38.8145,-119.277
 L 38.7135,-119.118 L 38.5934,-118.973 L 38.4561,-118.844 L 38.3037,-118.734 L 38.1387,-118.643 L 37.9635,-118.573
 L 37.7811,-118.527 L 37.5942,-118.503 z
M -7.59418,-118.503 L -7.78107,-118.527 L -7.96352,-118.573 L -8.13866,-118.643 L -8.30373,-118.734 L -8.45613,-118.844
 L -8.59344,-118.973 L -8.71352,-119.118 L -8.81445,-119.277 L -8.89465,-119.448 L -8.95287,-119.627 L -8.98816,-119.812
 L -9,-120 L -8.98816,-120.188 L -8.95287,-120.373 L -8.89465,-120.552 L -8.81445,-120.723 L -8.71352,-120.882
 L -8.59344,-121.027 L -8.45613,-121.156 L -8.30373,-121.266 L -8.13866,-121.357 L -7.96352,-121.427 L -7.78107,-121.473
 L -7.59418,-121.497 L -7.40581,-121.497 L -7.21892,-121.473 L -7.03647,-121.427 L -6.86133,-121.357 L -6.69626,-121.266
 L -6.54385,-121.156 L -6.40654,-121.027 L -6.28647,-120.882 L -6.18553,-120.723 L -6.10533,-120.552 L -6.04712,-120.373
 L -6.01183,-120.188 L -6,-120 L -6.01183,-119.812 L -6.04712,-119.627 L -6.10533,-119.448 L -6.18553,-119.277
 L -6.28647,-119.118 L -6.40654,-118.973 L -6.54385,-118.844 L -6.69626,-118.734 L -6.86133,-118.643 L -7.03647,-118.573
 L -7.21892,-118.527 L -7.40581,-118.503 z
M -22.5942,-118.503 L -22.7811,-118.527 L -22.9635,-118.573 L -23.1387,-118.643 L -23.3037,-118.734 L -23.4561,-118.844
 L -23.5934,-118.973 L -23.7135,-119.118 L -23.8145,-119.277 L -23.8947,-119.448 L -23.9529,-119.627 L -23.9882,-119.812
 L -24,-120 L -23.9882,-120.188 L -23.9529,-120.373 L -23.8947,-120.552 L -23.8145,-120.723 L -23.7135,-120.882
 L -23.5934,-121.027 L -23.4561,-121.156 L -23.3037,-121.266 L -23.1387,-121.357 L -22.9635,-121.427 L -22.7811,-121.473
 L -22.5942,-121.497 L -22.4058,-121.497 L -22.2189,-121.473 L -22.0365,-121.427 L -21.8613,-121.357 L -21.6963,-121.266
 L -21.5439,-121.156 L -21.4065,-121.027 L -21.2865,-120.882 L -21.1855,-120.723 L -21.1053,-120.552 L -21.0471,-120.373
 L -21.0118,-120.188 L -21,-120 L -21.0118,-119.812 L -21.0471,-119.627 L -21.1053,-119.448 L -21.1855,-119.277
 L -21.2865,-119.118 L -21.4065,-118.973 L -21.5439,-118.844 L -21.6963,-118.734 L -21.8613,-118.643 L -22.0365,-118.573
 L -22.2189,-118.527 L -22.4058,-118.503 z
M -15.0942,-118.503 L -15.2811,-118.527 L -15.4635,-118.573 L -15.6387,-118.643 L -15.8037,-118.734 L -15.9561,-118.844
 L -16.0934,-118.973 L -16.2135,-119.118 L -16.3145,-119.277 L -16.3947,-119.448 L -16.4529,-119.627 L -16.4882,-119.812
 L -16.5,-120 L -16.4882,-120.188 L -16.4529,-120.373 L -16.3947,-120.552 L -16.3145,-120.723 L -16.2135,-120.882
 L -16.0934,-121.027 L -15.9561,-121.156 L -15.8037,-121.266 L -15.6387,-121.357 L -15.4635,-121.427 L -15.2811,-121.473
 L -15.0942,-121.497 L -14.9058,-121.497 L -14.7189,-121.473 L -14.5365,-121.427 L -14.3613,-121.357 L -14.1963,-121.266
 L -14.0439,-121.156 L -13.9065,-121.027 L -13.7865,-120.882 L -13.6855,-120.723 L -13.6053,-120.552 L -13.5471,-120.373
 L -13.5118,-120.188 L -13.5,-120 L -13.5118,-119.812 L -13.5471,-119.627 L -13.6053,-119.448 L -13.6855,-119.277
 L -13.7865,-119.118 L -13.9065,-118.973 L -14.0439,-118.844 L -14.1963,-118.734 L -14.3613,-118.643 L -14.5365,-118.573
 L -14.7189,-118.527 L -14.9058,-118.503 z
M -30.0942,-118.503 L -30.2811,-118.527 L -30.4635,-118.573 L -30.6387,-118.643 L -30.8037,-118.734 L -30.9561,-118.844
 L -31.0934,-118.973 L -31.2135,-119.118 L -31.3145,-119.277 L -31.3947,-119.448 L -31.4529,-119.627 L -31.4882,-119.812
 L -31.5,-120 L -31.4882,-120.188 L -31.4529,-120.373 L -31.3947,-120.552 L -31.3145,-120.723 L -31.2135,-120.882
 L -31.0934,-121.027 L -30.9561,-121.156 L -30.8037,-121.266 L -30.6387,-121.357 L -30.4635,-121.427 L -30.2811,-121.473
 L -30.0942,-121.497 L -29.9058,-121.497 L -29.7189,-121.473 L -29.5365,-121.427 L -29.3613,-121.357 L -29.1963,-121.266
 L -29.0439,-121.156 L -28.9065,-121.027 L -28.7865,-120.882 L -28.6855,-120.723 L -28.6053,-120.552 L -28.5471,-120.373
 L -28.5118,-120.188 L -28.5,-120 L -28.5118,-119.812 L -28.5471,-119.627 L -28.6053,-119.448 L -28.6855,-119.277
 L -28.7865,-119.118 L -28.9065,-118.973 L -29.0439,-118.844 L -29.1963,-118.734 L -29.3613,-118.643 L -29.5365,-118.573
 L -29.7189,-118.527 L -29.9058,-118.503 z
" stroke="black" fill="lightgray" stroke-width="0.5"/>
</svg>
