<?xml version="1.0" standalone="no"?>
<!DOCTYPE svg PUBLIC "-//W3C//DTD SVG 1.1//EN" "http://www.w3.org/Graphics/SVG/1.1/DTD/svg11.dtd">
<svg width="8mm" height="6mm" viewBox="-4 -16 8 6" xmlns="http://www.w3.org/2000/svg" version="1.1">
<title>OpenSCAD Model</title>
<path d="
M 3.17349,-12.75 L 1.58675,-15.4983 L -1.58675,-15.4983 L -3.17349,-12.75 L -1.58675,-10.0017 L 1.58675,-10.0017
 z
M -0.0941772,-11.253 L -0.281067,-11.2766 L -0.463516,-11.3234 L -0.638657,-11.3928 L -0.803726,-11.4835 L -0.956131,-11.5942
 L -1.09344,-11.7232 L -1.21352,-11.8683 L -1.31445,-12.0274 L -1.39465,-12.1978 L -1.45287,-12.377 L -1.48816,-12.562
 L -1.5,-12.75 L -1.48816,-12.938 L -1.45287,-13.123 L -1.39465,-13.3022 L -1.31445,-13.4726 L -1.21352,-13.6317
 L -1.09344,-13.7768 L -0.956131,-13.9058 L -0.803726,-14.0165 L -0.638657,-14.1072 L -0.463516,-14.1766 L -0.281067,-14.2234
 L -0.0941772,-14.247 L 0.0941772,-14.247 L 0.281067,-14.2234 L 0.463516,-14.1766 L 0.638657,-14.1072 L 0.803726,-14.0165
 L 0.956131,-13.9058 L 1.09344,-13.7768 L 1.21352,-13.6317 L 1.31445,-13.4726 L 1.39465,-13.3022 L 1.45287,-13.123
 L 1.48816,-12.938 L 1.5,-12.75 L 1.48816,-12.562 L 1.45287,-12.377 L 1.39465,-12.1978 L 1.31445,-12.0274
 L 1.21352,-11.8683 L 1.09344,-11.7232 L 0.956131,-11.5942 L 0.803726,-11.4835 L 0.638657,-11.3928 L 0.463516,-11.3234
 L 0.281067,-11.2766 L 0.0941772,-11.253 z
" stroke="black" fill="lightgray" stroke-width="0.5"/>
</svg>
