<?xml version="1.0" standalone="no"?>
<!DOCTYPE svg PUBLIC "-//W3C//DTD SVG 1.1//EN" "http://www.w3.org/Graphics/SVG/1.1/DTD/svg11.dtd">
<svg width="6mm" height="225mm" viewBox="-3 -223 6 225" xmlns="http://www.w3.org/2000/svg" version="1.1">
<title>OpenSCAD Model</title>
<path d="
M 0.543396,-217.151 L 0.896149,-217.242 L 1.23476,-217.376 L 1.55389,-217.551 L 1.84853,-217.766 L 2.114,-218.015
 L 2.34615,-218.295 L 2.54128,-218.603 L 2.69635,-218.932 L 2.80888,-219.279 L 2.87712,-219.637 L 2.89999,-220
 L 2.87712,-220.363 L 2.80888,-220.721 L 2.69635,-221.068 L 2.54128,-221.397 L 2.34615,-221.705 L 2.114,-221.985
 L 1.84853,-222.234 L 1.55389,-222.449 L 1.23476,-222.624 L 0.896149,-222.758 L 0.543396,-222.849 L 0.182083,-222.894
 L -0.182083,-222.894 L -0.543396,-222.849 L -0.896149,-222.758 L -1.23476,-222.624 L -1.55389,-222.449 L -1.84853,-222.234
 L -2.114,-221.985 L -2.34615,-221.705 L -2.54128,-221.397 L -2.69635,-221.068 L -2.80888,-220.721 L -2.87712,-220.363
 L -2.89999,-220 L -2.87712,-219.637 L -2.80888,-219.279 L -2.69635,-218.932 L -2.54128,-218.603 L -2.34615,-218.295
 L -2.114,-218.015 L -1.84853,-217.766 L -1.55389,-217.551 L -1.23476,-217.376 L -0.896149,-217.242 L -0.543396,-217.151
 L -0.182083,-217.106 L 0.182083,-217.106 z
M 0.281067,-108.527 L 0.463516,-108.573 L 0.638657,-108.643 L 0.803726,-108.734 L 0.956131,-108.844 L 1.09344,-108.973
 L 1.21352,-109.118 L 1.31445,-109.277 L 1.39465,-109.448 L 1.45287,-109.627 L 1.48816,-109.812 L 1.5,-110
 L 1.48816,-110.188 L 1.45287,-110.373 L 1.39465,-110.552 L 1.31445,-110.723 L 1.21352,-110.882 L 1.09344,-111.027
 L 0.956131,-111.156 L 0.803726,-111.266 L 0.638657,-111.357 L 0.463516,-111.427 L 0.281067,-111.473 L 0.0941772,-111.497
 L -0.0941772,-111.497 L -0.281067,-111.473 L -0.463516,-111.427 L -0.638657,-111.357 L -0.803726,-111.266 L -0.956131,-111.156
 L -1.09344,-111.027 L -1.21352,-110.882 L -1.31445,-110.723 L -1.39465,-110.552 L -1.45287,-110.373 L -1.48816,-110.188
 L -1.5,-110 L -1.48816,-109.812 L -1.45287,-109.627 L -1.39465,-109.448 L -1.31445,-109.277 L -1.21352,-109.118
 L -1.09344,-108.973 L -0.956131,-108.844 L -0.803726,-108.734 L -0.638657,-108.643 L -0.463516,-108.573 L -0.281067,-108.527
 L -0.0941772,-108.503 L 0.0941772,-108.503 z
M 0.281067,1.47342 L 0.463516,1.42657 L 0.638657,1.35724 L 0.803726,1.26648 L 0.956131,1.15576 L 1.09344,1.02681
 L 1.21352,0.881668 L 1.31445,0.722626 L 1.39465,0.552185 L 1.45287,0.373032 L 1.48816,0.187988 L 1.5,-0
 L 1.48816,-0.187988 L 1.45287,-0.373032 L 1.39465,-0.552185 L 1.31445,-0.722626 L 1.21352,-0.881668 L 1.09344,-1.02681
 L 0.956131,-1.15576 L 0.803726,-1.26648 L 0.638657,-1.35724 L 0.463516,-1.42657 L 0.281067,-1.47342 L 0.0941772,-1.49704
 L -0.0941772,-1.49704 L -0.281067,-1.47342 L -0.463516,-1.42657 L -0.638657,-1.35724 L -0.803726,-1.26648 L -0.956131,-1.15576
 L -1.09344,-1.02681 L -1.21352,-0.881668 L -1.31445,-0.722626 L -1.39465,-0.552185 L -1.45287,-0.373032 L -1.48816,-0.187988
 L -1.5,-0 L -1.48816,0.187988 L -1.45287,0.373032 L -1.39465,0.552185 L -1.31445,0.722626 L -1.21352,0.881668
 L -1.09344,1.02681 L -0.956131,1.15576 L -0.803726,1.26648 L -0.638657,1.35724 L -0.463516,1.42657 L -0.281067,1.47342
 L -0.0941772,1.49704 L 0.0941772,1.49704 z
" stroke="black" fill="lightgray" stroke-width="0.5"/>
</svg>
