<?xml version="1.0" standalone="no"?>
<!DOCTYPE svg PUBLIC "-//W3C//DTD SVG 1.1//EN" "http://www.w3.org/Graphics/SVG/1.1/DTD/svg11.dtd">
<svg width="44mm" height="117mm" viewBox="-22 -232 44 117" xmlns="http://www.w3.org/2000/svg" version="1.1">
<title>OpenSCAD Model</title>
<path d="
M 17.9369,-209.839 L 18.5451,-209.995 L 19.1289,-210.226 L 19.6791,-210.528 L 20.1871,-210.897 L 20.6448,-211.327
 L 21.0451,-211.811 L 21.3815,-212.341 L 21.6489,-212.909 L 21.8429,-213.507 L 21.9606,-214.123 L 22,-214.75
 L 22,-226.25 L 21.9606,-226.877 L 21.8429,-227.493 L 21.6489,-228.091 L 21.3815,-228.659 L 21.0451,-229.189
 L 20.6448,-229.673 L 20.1871,-230.103 L 19.6791,-230.472 L 19.1289,-230.774 L 18.5451,-231.005 L 17.9369,-231.161
 L 17.3139,-231.24 L -17.3139,-231.24 L -17.9369,-231.161 L -18.5451,-231.005 L -19.1289,-230.774 L -19.6791,-230.472
 L -20.1871,-230.103 L -20.6448,-229.673 L -21.0451,-229.189 L -21.3815,-228.659 L -21.6489,-228.091 L -21.8429,-227.493
 L -21.9606,-226.877 L -22,-226.25 L -22,-214.75 L -21.9606,-214.123 L -21.8429,-213.507 L -21.6489,-212.909
 L -21.3815,-212.341 L -21.0451,-211.811 L -20.6448,-211.327 L -20.1871,-210.897 L -19.6791,-210.528 L -19.1289,-210.226
 L -18.5451,-209.995 L -17.9369,-209.839 L -17.3139,-209.76 L 17.3139,-209.76 z
M -17.2512,-210.758 L -17.7495,-210.821 L -18.2361,-210.946 L -18.7031,-211.131 L -19.1433,-211.373 L -19.5497,-211.668
 L -19.9159,-212.012 L -20.2361,-212.399 L -20.5052,-212.823 L -20.7191,-213.278 L -20.8743,-213.755 L -20.9684,-214.249
 L -21,-214.75 L -21,-226.25 L -20.9684,-226.751 L -20.8743,-227.245 L -20.7191,-227.722 L -20.5052,-228.177
 L -20.2361,-228.601 L -19.9159,-228.988 L -19.5497,-229.332 L -19.1433,-229.627 L -18.7031,-229.869 L -18.2361,-230.054
 L -17.7495,-230.179 L -17.2512,-230.242 L 17.2512,-230.242 L 17.7495,-230.179 L 18.2361,-230.054 L 18.7031,-229.869
 L 19.1433,-229.627 L 19.5497,-229.332 L 19.9159,-228.988 L 20.2361,-228.601 L 20.5052,-228.177 L 20.7191,-227.722
 L 20.8743,-227.245 L 20.9684,-226.751 L 21,-226.25 L 21,-214.75 L 20.9684,-214.249 L 20.8743,-213.755
 L 20.7191,-213.278 L 20.5052,-212.823 L 20.2361,-212.399 L 19.9159,-212.012 L 19.5497,-211.668 L 19.1433,-211.373
 L 18.7031,-211.131 L 18.2361,-210.946 L 17.7495,-210.821 L 17.2512,-210.758 z
M 17.9369,-178.339 L 18.5451,-178.495 L 19.1289,-178.726 L 19.6791,-179.028 L 20.1871,-179.397 L 20.6448,-179.827
 L 21.0451,-180.311 L 21.3815,-180.841 L 21.6489,-181.409 L 21.8429,-182.007 L 21.9606,-182.623 L 22,-183.25
 L 22,-194.75 L 21.9606,-195.377 L 21.8429,-195.993 L 21.6489,-196.591 L 21.3815,-197.159 L 21.0451,-197.689
 L 20.6448,-198.173 L 20.1871,-198.603 L 19.6791,-198.972 L 19.1289,-199.274 L 18.5451,-199.505 L 17.9369,-199.661
 L 17.3139,-199.74 L -17.3139,-199.74 L -17.9369,-199.661 L -18.5451,-199.505 L -19.1289,-199.274 L -19.6791,-198.972
 L -20.1871,-198.603 L -20.6448,-198.173 L -21.0451,-197.689 L -21.3815,-197.159 L -21.6489,-196.591 L -21.8429,-195.993
 L -21.9606,-195.377 L -22,-194.75 L -22,-183.25 L -21.9606,-182.623 L -21.8429,-182.007 L -21.6489,-181.409
 L -21.3815,-180.841 L -21.0451,-180.311 L -20.6448,-179.827 L -20.1871,-179.397 L -19.6791,-179.028 L -19.1289,-178.726
 L -18.5451,-178.495 L -17.9369,-178.339 L -17.3139,-178.26 L 17.3139,-178.26 z
M -17.2512,-179.258 L -17.7495,-179.321 L -18.2361,-179.446 L -18.7031,-179.631 L -19.1433,-179.873 L -19.5497,-180.168
 L -19.9159,-180.512 L -20.2361,-180.899 L -20.5052,-181.323 L -20.7191,-181.778 L -20.8743,-182.255 L -20.9684,-182.749
 L -21,-183.25 L -21,-194.75 L -20.9684,-195.251 L -20.8743,-195.745 L -20.7191,-196.222 L -20.5052,-196.677
 L -20.2361,-197.101 L -19.9159,-197.488 L -19.5497,-197.832 L -19.1433,-198.127 L -18.7031,-198.369 L -18.2361,-198.554
 L -17.7495,-198.679 L -17.2512,-198.742 L 17.2512,-198.742 L 17.7495,-198.679 L 18.2361,-198.554 L 18.7031,-198.369
 L 19.1433,-198.127 L 19.5497,-197.832 L 19.9159,-197.488 L 20.2361,-197.101 L 20.5052,-196.677 L 20.7191,-196.222
 L 20.8743,-195.745 L 20.9684,-195.251 L 21,-194.75 L 21,-183.25 L 20.9684,-182.749 L 20.8743,-182.255
 L 20.7191,-181.778 L 20.5052,-181.323 L 20.2361,-180.899 L 19.9159,-180.512 L 19.5497,-180.168 L 19.1433,-179.873
 L 18.7031,-179.631 L 18.2361,-179.446 L 17.7495,-179.321 L 17.2512,-179.258 z
M 17.9369,-146.839 L 18.5451,-146.995 L 19.1289,-147.226 L 19.6791,-147.528 L 20.1871,-147.897 L 20.6448,-148.327
 L 21.0451,-148.811 L 21.3815,-149.341 L 21.6489,-149.909 L 21.8429,-150.507 L 21.9606,-151.123 L 22,-151.75
 L 22,-163.25 L 21.9606,-163.877 L 21.8429,-164.493 L 21.6489,-165.091 L 21.3815,-165.659 L 21.0451,-166.189
 L 20.6448,-166.673 L 20.1871,-167.103 L 19.6791,-167.472 L 19.1289,-167.774 L 18.5451,-168.005 L 17.9369,-168.161
 L 17.3139,-168.24 L -17.3139,-168.24 L -17.9369,-168.161 L -18.5451,-168.005 L -19.1289,-167.774 L -19.6791,-167.472
 L -20.1871,-167.103 L -20.6448,-166.673 L -21.0451,-166.189 L -21.3815,-165.659 L -21.6489,-165.091 L -21.8429,-164.493
 L -21.9606,-163.877 L -22,-163.25 L -22,-151.75 L -21.9606,-151.123 L -21.8429,-150.507 L -21.6489,-149.909
 L -21.3815,-149.341 L -21.0451,-148.811 L -20.6448,-148.327 L -20.1871,-147.897 L -19.6791,-147.528 L -19.1289,-147.226
 L -18.5451,-146.995 L -17.9369,-146.839 L -17.3139,-146.76 L 17.3139,-146.76 z
M -17.1954,-148.643 L -17.5833,-148.692 L -17.9619,-148.789 L -18.3254,-148.933 L -18.668,-149.122 L -18.9842,-149.351
 L -19.2692,-149.619 L -19.5184,-149.92 L -19.7279,-150.25 L -19.8943,-150.604 L -20.0151,-150.976 L -20.0884,-151.36
 L -20.1129,-151.75 L -20.1129,-163.25 L -20.0884,-163.64 L -20.0151,-164.024 L -19.8943,-164.396 L -19.7279,-164.75
 L -19.5184,-165.08 L -19.2692,-165.381 L -18.9842,-165.649 L -18.668,-165.878 L -18.3254,-166.067 L -17.9619,-166.211
 L -17.5833,-166.308 L -17.1954,-166.357 L 17.1954,-166.357 L 17.5833,-166.308 L 17.9619,-166.211 L 18.3254,-166.067
 L 18.668,-165.878 L 18.9842,-165.649 L 19.2692,-165.381 L 19.5184,-165.08 L 19.7279,-164.75 L 19.8943,-164.396
 L 20.0151,-164.024 L 20.0884,-163.64 L 20.1129,-163.25 L 20.1129,-151.75 L 20.0884,-151.36 L 20.0151,-150.976
 L 19.8943,-150.604 L 19.7279,-150.25 L 19.5184,-149.92 L 19.2692,-149.619 L 18.9842,-149.351 L 18.668,-149.122
 L 18.3254,-148.933 L 17.9619,-148.789 L 17.5833,-148.692 L 17.1954,-148.643 z
M 17.9369,-115.339 L 18.5451,-115.495 L 19.1289,-115.726 L 19.6791,-116.028 L 20.1871,-116.397 L 20.6448,-116.827
 L 21.0451,-117.311 L 21.3815,-117.841 L 21.6489,-118.409 L 21.8429,-119.007 L 21.9606,-119.623 L 22,-120.25
 L 22,-131.75 L 21.9606,-132.377 L 21.8429,-132.993 L 21.6489,-133.591 L 21.3815,-134.159 L 21.0451,-134.689
 L 20.6448,-135.173 L 20.1871,-135.603 L 19.6791,-135.972 L 19.1289,-136.274 L 18.5451,-136.505 L 17.9369,-136.661
 L 17.3139,-136.74 L -17.3139,-136.74 L -17.9369,-136.661 L -18.5451,-136.505 L -19.1289,-136.274 L -19.6791,-135.972
 L -20.1871,-135.603 L -20.6448,-135.173 L -21.0451,-134.689 L -21.3815,-134.159 L -21.6489,-133.591 L -21.8429,-132.993
 L -21.9606,-132.377 L -22,-131.75 L -22,-120.25 L -21.9606,-119.623 L -21.8429,-119.007 L -21.6489,-118.409
 L -21.3815,-117.841 L -21.0451,-117.311 L -20.6448,-116.827 L -20.1871,-116.397 L -19.6791,-116.028 L -19.1289,-115.726
 L -18.5451,-115.495 L -17.9369,-115.339 L -17.3139,-115.26 L 17.3139,-115.26 z
M 14.8493,-127.355 L 14.5503,-127.393 L 14.2583,-127.467 L 13.9781,-127.578 L 13.714,-127.724 L 13.4702,-127.901
 L 13.2505,-128.107 L 13.0583,-128.339 L 12.8969,-128.594 L 12.7685,-128.867 L 12.6754,-129.153 L 12.6189,-129.449
 L 12.6,-129.75 L 12.6189,-130.051 L 12.6754,-130.347 L 12.7685,-130.633 L 12.8969,-130.906 L 13.0583,-131.161
 L 13.2505,-131.393 L 13.4702,-131.599 L 13.714,-131.776 L 13.9781,-131.922 L 14.2583,-132.033 L 14.5503,-132.107
 L 14.8493,-132.145 L 15.1507,-132.145 L 15.4497,-132.107 L 15.7416,-132.033 L 16.0219,-131.922 L 16.286,-131.776
 L 16.5298,-131.599 L 16.7495,-131.393 L 16.9416,-131.161 L 17.1031,-130.906 L 17.2315,-130.633 L 17.3246,-130.347
 L 17.3811,-130.051 L 17.4,-129.75 L 17.3811,-129.449 L 17.3246,-129.153 L 17.2315,-128.867 L 17.1031,-128.594
 L 16.9416,-128.339 L 16.7495,-128.107 L 16.5298,-127.901 L 16.286,-127.724 L 16.0219,-127.578 L 15.7416,-127.467
 L 15.4497,-127.393 L 15.1507,-127.355 z
M -15.1507,-127.355 L -15.4497,-127.393 L -15.7416,-127.467 L -16.0219,-127.578 L -16.286,-127.724 L -16.5298,-127.901
 L -16.7495,-128.107 L -16.9416,-128.339 L -17.1031,-128.594 L -17.2315,-128.867 L -17.3246,-129.153 L -17.3811,-129.449
 L -17.4,-129.75 L -17.3811,-130.051 L -17.3246,-130.347 L -17.2315,-130.633 L -17.1031,-130.906 L -16.9416,-131.161
 L -16.7495,-131.393 L -16.5298,-131.599 L -16.286,-131.776 L -16.0219,-131.922 L -15.7416,-132.033 L -15.4497,-132.107
 L -15.1507,-132.145 L -14.8493,-132.145 L -14.5503,-132.107 L -14.2583,-132.033 L -13.9781,-131.922 L -13.714,-131.776
 L -13.4702,-131.599 L -13.2505,-131.393 L -13.0583,-131.161 L -12.8969,-130.906 L -12.7685,-130.633 L -12.6754,-130.347
 L -12.6189,-130.051 L -12.6,-129.75 L -12.6189,-129.449 L -12.6754,-129.153 L -12.7685,-128.867 L -12.8969,-128.594
 L -13.0583,-128.339 L -13.2505,-128.107 L -13.4702,-127.901 L -13.714,-127.724 L -13.9781,-127.578 L -14.2583,-127.467
 L -14.5503,-127.393 L -14.8493,-127.355 z
M -15.1507,-119.855 L -15.4497,-119.893 L -15.7416,-119.967 L -16.0219,-120.078 L -16.286,-120.224 L -16.5298,-120.401
 L -16.7495,-120.607 L -16.9416,-120.839 L -17.1031,-121.094 L -17.2315,-121.367 L -17.3246,-121.653 L -17.3811,-121.949
 L -17.4,-122.25 L -17.3811,-122.551 L -17.3246,-122.847 L -17.2315,-123.133 L -17.1031,-123.406 L -16.9416,-123.661
 L -16.7495,-123.893 L -16.5298,-124.099 L -16.286,-124.276 L -16.0219,-124.422 L -15.7416,-124.533 L -15.4497,-124.607
 L -15.1507,-124.645 L -14.8493,-124.645 L -14.5503,-124.607 L -14.2583,-124.533 L -13.9781,-124.422 L -13.714,-124.276
 L -13.4702,-124.099 L -13.2505,-123.893 L -13.0583,-123.661 L -12.8969,-123.406 L -12.7685,-123.133 L -12.6754,-122.847
 L -12.6189,-122.551 L -12.6,-122.25 L -12.6189,-121.949 L -12.6754,-121.653 L -12.7685,-121.367 L -12.8969,-121.094
 L -13.0583,-120.839 L -13.2505,-120.607 L -13.4702,-120.401 L -13.714,-120.224 L -13.9781,-120.078 L -14.2583,-119.967
 L -14.5503,-119.893 L -14.8493,-119.855 z
M 14.8493,-119.855 L 14.5503,-119.893 L 14.2583,-119.967 L 13.9781,-120.078 L 13.714,-120.224 L 13.4702,-120.401
 L 13.2505,-120.607 L 13.0583,-120.839 L 12.8969,-121.094 L 12.7685,-121.367 L 12.6754,-121.653 L 12.6189,-121.949
 L 12.6,-122.25 L 12.6189,-122.551 L 12.6754,-122.847 L 12.7685,-123.133 L 12.8969,-123.406 L 13.0583,-123.661
 L 13.2505,-123.893 L 13.4702,-124.099 L 13.714,-124.276 L 13.9781,-124.422 L 14.2583,-124.533 L 14.5503,-124.607
 L 14.8493,-124.645 L 15.1507,-124.645 L 15.4497,-124.607 L 15.7416,-124.533 L 16.0219,-124.422 L 16.286,-124.276
 L 16.5298,-124.099 L 16.7495,-123.893 L 16.9416,-123.661 L 17.1031,-123.406 L 17.2315,-123.133 L 17.3246,-122.847
 L 17.3811,-122.551 L 17.4,-122.25 L 17.3811,-121.949 L 17.3246,-121.653 L 17.2315,-121.367 L 17.1031,-121.094
 L 16.9416,-120.839 L 16.7495,-120.607 L 16.5298,-120.401 L 16.286,-120.224 L 16.0219,-120.078 L 15.7416,-119.967
 L 15.4497,-119.893 L 15.1507,-119.855 z
" stroke="black" fill="lightgray" stroke-width="0.5"/>
</svg>
