  0
SECTION
  2
BLOCKS
  0
ENDSEC
  0
SECTION
  2
ENTITIES
  0
LINE
  8
0
 10
40.4369
 20
-14.4114
 11
41.0451
 21
-14.2553
  0
LINE
  8
0
 10
41.0451
 20
-14.2553
 11
41.6289
 21
-14.0241
  0
LINE
  8
0
 10
41.6289
 20
-14.0241
 11
42.1791
 21
-13.7216
  0
LINE
  8
0
 10
42.1791
 20
-13.7216
 11
42.6871
 21
-13.3526
  0
LINE
  8
0
 10
42.6871
 20
-13.3526
 11
43.1448
 21
-12.9227
  0
LINE
  8
0
 10
43.1448
 20
-12.9227
 11
43.5451
 21
-12.4389
  0
LINE
  8
0
 10
43.5451
 20
-12.4389
 11
43.8815
 21
-11.9088
  0
LINE
  8
0
 10
43.8815
 20
-11.9088
 11
44.1489
 21
-11.3406
  0
LINE
  8
0
 10
44.1489
 20
-11.3406
 11
44.3429
 21
-10.7434
  0
LINE
  8
0
 10
44.3429
 20
-10.7434
 11
44.4606
 21
-10.1267
  0
LINE
  8
0
 10
44.4606
 20
-10.1267
 11
44.5
 21
-9.5
  0
LINE
  8
0
 10
44.5
 20
-9.5
 11
44.5
 21
9.5
  0
LINE
  8
0
 10
44.5
 20
9.5
 11
44.4606
 21
10.1267
  0
LINE
  8
0
 10
44.4606
 20
10.1267
 11
44.3429
 21
10.7434
  0
LINE
  8
0
 10
44.3429
 20
10.7434
 11
44.1489
 21
11.3406
  0
LINE
  8
0
 10
44.1489
 20
11.3406
 11
43.8815
 21
11.9088
  0
LINE
  8
0
 10
43.8815
 20
11.9088
 11
43.5451
 21
12.4389
  0
LINE
  8
0
 10
43.5451
 20
12.4389
 11
43.1448
 21
12.9227
  0
LINE
  8
0
 10
43.1448
 20
12.9227
 11
42.6871
 21
13.3526
  0
LINE
  8
0
 10
42.6871
 20
13.3526
 11
42.1791
 21
13.7216
  0
LINE
  8
0
 10
42.1791
 20
13.7216
 11
41.6289
 21
14.0241
  0
LINE
  8
0
 10
41.6289
 20
14.0241
 11
41.0451
 21
14.2553
  0
LINE
  8
0
 10
41.0451
 20
14.2553
 11
40.4369
 21
14.4114
  0
LINE
  8
0
 10
40.4369
 20
14.4114
 11
39.8139
 21
14.4901
  0
LINE
  8
0
 10
39.8139
 20
14.4901
 11
-39.8139
 21
14.4901
  0
LINE
  8
0
 10
-39.8139
 20
14.4901
 11
-40.4369
 21
14.4114
  0
LINE
  8
0
 10
-40.4369
 20
14.4114
 11
-41.0451
 21
14.2553
  0
LINE
  8
0
 10
-41.0451
 20
14.2553
 11
-41.6289
 21
14.0241
  0
LINE
  8
0
 10
-41.6289
 20
14.0241
 11
-42.1791
 21
13.7216
  0
LINE
  8
0
 10
-42.1791
 20
13.7216
 11
-42.6871
 21
13.3526
  0
LINE
  8
0
 10
-42.6871
 20
13.3526
 11
-43.1448
 21
12.9227
  0
LINE
  8
0
 10
-43.1448
 20
12.9227
 11
-43.5451
 21
12.4389
  0
LINE
  8
0
 10
-43.5451
 20
12.4389
 11
-43.8815
 21
11.9088
  0
LINE
  8
0
 10
-43.8815
 20
11.9088
 11
-44.1489
 21
11.3406
  0
LINE
  8
0
 10
-44.1489
 20
11.3406
 11
-44.3429
 21
10.7434
  0
LINE
  8
0
 10
-44.3429
 20
10.7434
 11
-44.4606
 21
10.1267
  0
LINE
  8
0
 10
-44.4606
 20
10.1267
 11
-44.5
 21
9.5
  0
LINE
  8
0
 10
-44.5
 20
9.5
 11
-44.5
 21
-9.5
  0
LINE
  8
0
 10
-44.5
 20
-9.5
 11
-44.4606
 21
-10.1267
  0
LINE
  8
0
 10
-44.4606
 20
-10.1267
 11
-44.3429
 21
-10.7434
  0
LINE
  8
0
 10
-44.3429
 20
-10.7434
 11
-44.1489
 21
-11.3406
  0
LINE
  8
0
 10
-44.1489
 20
-11.3406
 11
-43.8815
 21
-11.9088
  0
LINE
  8
0
 10
-43.8815
 20
-11.9088
 11
-43.5451
 21
-12.4389
  0
LINE
  8
0
 10
-43.5451
 20
-12.4389
 11
-43.1448
 21
-12.9227
  0
LINE
  8
0
 10
-43.1448
 20
-12.9227
 11
-42.6871
 21
-13.3526
  0
LINE
  8
0
 10
-42.6871
 20
-13.3526
 11
-42.1791
 21
-13.7216
  0
LINE
  8
0
 10
-42.1791
 20
-13.7216
 11
-41.6289
 21
-14.0241
  0
LINE
  8
0
 10
-41.6289
 20
-14.0241
 11
-41.0451
 21
-14.2553
  0
LINE
  8
0
 10
-41.0451
 20
-14.2553
 11
-40.4369
 21
-14.4114
  0
LINE
  8
0
 10
-40.4369
 20
-14.4114
 11
-39.8139
 21
-14.4901
  0
LINE
  8
0
 10
-39.8139
 20
-14.4901
 11
39.8139
 21
-14.4901
  0
LINE
  8
0
 10
39.8139
 20
-14.4901
 11
40.4369
 21
-14.4114
  0
LINE
  8
0
 10
-37.6884
 20
4.50591
 11
-38.0621
 21
4.55313
  0
LINE
  8
0
 10
-38.0621
 20
4.55313
 11
-38.427
 21
4.64682
  0
LINE
  8
0
 10
-38.427
 20
4.64682
 11
-38.7773
 21
4.78551
  0
LINE
  8
0
 10
-38.7773
 20
4.78551
 11
-39.1075
 21
4.96701
  0
LINE
  8
0
 10
-39.1075
 20
4.96701
 11
-39.4123
 21
5.18845
  0
LINE
  8
0
 10
-39.4123
 20
5.18845
 11
-39.6869
 21
5.44635
  0
LINE
  8
0
 10
-39.6869
 20
5.44635
 11
-39.927
 21
5.73663
  0
LINE
  8
0
 10
-39.927
 20
5.73663
 11
-40.1289
 21
6.05473
  0
LINE
  8
0
 10
-40.1289
 20
6.05473
 11
-40.2893
 21
6.39561
  0
LINE
  8
0
 10
-40.2893
 20
6.39561
 11
-40.4057
 21
6.75392
  0
LINE
  8
0
 10
-40.4057
 20
6.75392
 11
-40.4763
 21
7.12399
  0
LINE
  8
0
 10
-40.4763
 20
7.12399
 11
-40.5
 21
7.5
  0
LINE
  8
0
 10
-40.5
 20
7.5
 11
-40.4763
 21
7.87599
  0
LINE
  8
0
 10
-40.4763
 20
7.87599
 11
-40.4057
 21
8.24606
  0
LINE
  8
0
 10
-40.4057
 20
8.24606
 11
-40.2893
 21
8.60437
  0
LINE
  8
0
 10
-40.2893
 20
8.60437
 11
-40.1289
 21
8.94525
  0
LINE
  8
0
 10
-40.1289
 20
8.94525
 11
-39.927
 21
9.26335
  0
LINE
  8
0
 10
-39.927
 20
9.26335
 11
-39.6869
 21
9.55363
  0
LINE
  8
0
 10
-39.6869
 20
9.55363
 11
-39.4123
 21
9.81154
  0
LINE
  8
0
 10
-39.4123
 20
9.81154
 11
-39.1075
 21
10.033
  0
LINE
  8
0
 10
-39.1075
 20
10.033
 11
-38.7773
 21
10.2145
  0
LINE
  8
0
 10
-38.7773
 20
10.2145
 11
-38.427
 21
10.3532
  0
LINE
  8
0
 10
-38.427
 20
10.3532
 11
-38.0621
 21
10.4469
  0
LINE
  8
0
 10
-38.0621
 20
10.4469
 11
-37.6884
 21
10.4941
  0
LINE
  8
0
 10
-37.6884
 20
10.4941
 11
-37.3116
 21
10.4941
  0
LINE
  8
0
 10
-37.3116
 20
10.4941
 11
-36.9379
 21
10.4469
  0
LINE
  8
0
 10
-36.9379
 20
10.4469
 11
-36.5729
 21
10.3532
  0
LINE
  8
0
 10
-36.5729
 20
10.3532
 11
-36.2227
 21
10.2145
  0
LINE
  8
0
 10
-36.2227
 20
10.2145
 11
-35.8925
 21
10.033
  0
LINE
  8
0
 10
-35.8925
 20
10.033
 11
-35.5877
 21
9.81154
  0
LINE
  8
0
 10
-35.5877
 20
9.81154
 11
-35.3131
 21
9.55363
  0
LINE
  8
0
 10
-35.3131
 20
9.55363
 11
-35.0729
 21
9.26335
  0
LINE
  8
0
 10
-35.0729
 20
9.26335
 11
-34.8711
 21
8.94525
  0
LINE
  8
0
 10
-34.8711
 20
8.94525
 11
-34.7107
 21
8.60437
  0
LINE
  8
0
 10
-34.7107
 20
8.60437
 11
-34.5942
 21
8.24606
  0
LINE
  8
0
 10
-34.5942
 20
8.24606
 11
-34.5237
 21
7.87599
  0
LINE
  8
0
 10
-34.5237
 20
7.87599
 11
-34.5
 21
7.5
  0
LINE
  8
0
 10
-34.5
 20
7.5
 11
-34.5237
 21
7.12399
  0
LINE
  8
0
 10
-34.5237
 20
7.12399
 11
-34.5942
 21
6.75392
  0
LINE
  8
0
 10
-34.5942
 20
6.75392
 11
-34.7107
 21
6.39561
  0
LINE
  8
0
 10
-34.7107
 20
6.39561
 11
-34.8711
 21
6.05473
  0
LINE
  8
0
 10
-34.8711
 20
6.05473
 11
-35.0729
 21
5.73663
  0
LINE
  8
0
 10
-35.0729
 20
5.73663
 11
-35.3131
 21
5.44635
  0
LINE
  8
0
 10
-35.3131
 20
5.44635
 11
-35.5877
 21
5.18845
  0
LINE
  8
0
 10
-35.5877
 20
5.18845
 11
-35.8925
 21
4.96701
  0
LINE
  8
0
 10
-35.8925
 20
4.96701
 11
-36.2227
 21
4.78551
  0
LINE
  8
0
 10
-36.2227
 20
4.78551
 11
-36.5729
 21
4.64682
  0
LINE
  8
0
 10
-36.5729
 20
4.64682
 11
-36.9379
 21
4.55313
  0
LINE
  8
0
 10
-36.9379
 20
4.55313
 11
-37.3116
 21
4.50591
  0
LINE
  8
0
 10
-37.3116
 20
4.50591
 11
-37.6884
 21
4.50591
  0
LINE
  8
0
 10
37.3116
 20
4.50591
 11
36.9379
 21
4.55313
  0
LINE
  8
0
 10
36.9379
 20
4.55313
 11
36.5729
 21
4.64682
  0
LINE
  8
0
 10
36.5729
 20
4.64682
 11
36.2227
 21
4.78551
  0
LINE
  8
0
 10
36.2227
 20
4.78551
 11
35.8925
 21
4.96701
  0
LINE
  8
0
 10
35.8925
 20
4.96701
 11
35.5877
 21
5.18845
  0
LINE
  8
0
 10
35.5877
 20
5.18845
 11
35.3131
 21
5.44635
  0
LINE
  8
0
 10
35.3131
 20
5.44635
 11
35.0729
 21
5.73663
  0
LINE
  8
0
 10
35.0729
 20
5.73663
 11
34.8711
 21
6.05473
  0
LINE
  8
0
 10
34.8711
 20
6.05473
 11
34.7107
 21
6.39561
  0
LINE
  8
0
 10
34.7107
 20
6.39561
 11
34.5942
 21
6.75392
  0
LINE
  8
0
 10
34.5942
 20
6.75392
 11
34.5237
 21
7.12399
  0
LINE
  8
0
 10
34.5237
 20
7.12399
 11
34.5
 21
7.5
  0
LINE
  8
0
 10
34.5
 20
7.5
 11
34.5237
 21
7.87599
  0
LINE
  8
0
 10
34.5237
 20
7.87599
 11
34.5942
 21
8.24606
  0
LINE
  8
0
 10
34.5942
 20
8.24606
 11
34.7107
 21
8.60437
  0
LINE
  8
0
 10
34.7107
 20
8.60437
 11
34.8711
 21
8.94525
  0
LINE
  8
0
 10
34.8711
 20
8.94525
 11
35.0729
 21
9.26335
  0
LINE
  8
0
 10
35.0729
 20
9.26335
 11
35.3131
 21
9.55363
  0
LINE
  8
0
 10
35.3131
 20
9.55363
 11
35.5877
 21
9.81154
  0
LINE
  8
0
 10
35.5877
 20
9.81154
 11
35.8925
 21
10.033
  0
LINE
  8
0
 10
35.8925
 20
10.033
 11
36.2227
 21
10.2145
  0
LINE
  8
0
 10
36.2227
 20
10.2145
 11
36.5729
 21
10.3532
  0
LINE
  8
0
 10
36.5729
 20
10.3532
 11
36.9379
 21
10.4469
  0
LINE
  8
0
 10
36.9379
 20
10.4469
 11
37.3116
 21
10.4941
  0
LINE
  8
0
 10
37.3116
 20
10.4941
 11
37.6884
 21
10.4941
  0
LINE
  8
0
 10
37.6884
 20
10.4941
 11
38.0621
 21
10.4469
  0
LINE
  8
0
 10
38.0621
 20
10.4469
 11
38.427
 21
10.3532
  0
LINE
  8
0
 10
38.427
 20
10.3532
 11
38.7773
 21
10.2145
  0
LINE
  8
0
 10
38.7773
 20
10.2145
 11
39.1075
 21
10.033
  0
LINE
  8
0
 10
39.1075
 20
10.033
 11
39.4123
 21
9.81154
  0
LINE
  8
0
 10
39.4123
 20
9.81154
 11
39.6869
 21
9.55363
  0
LINE
  8
0
 10
39.6869
 20
9.55363
 11
39.927
 21
9.26335
  0
LINE
  8
0
 10
39.927
 20
9.26335
 11
40.1289
 21
8.94525
  0
LINE
  8
0
 10
40.1289
 20
8.94525
 11
40.2893
 21
8.60437
  0
LINE
  8
0
 10
40.2893
 20
8.60437
 11
40.4057
 21
8.24606
  0
LINE
  8
0
 10
40.4057
 20
8.24606
 11
40.4763
 21
7.87599
  0
LINE
  8
0
 10
40.4763
 20
7.87599
 11
40.5
 21
7.5
  0
LINE
  8
0
 10
40.5
 20
7.5
 11
40.4763
 21
7.12399
  0
LINE
  8
0
 10
40.4763
 20
7.12399
 11
40.4057
 21
6.75392
  0
LINE
  8
0
 10
40.4057
 20
6.75392
 11
40.2893
 21
6.39561
  0
LINE
  8
0
 10
40.2893
 20
6.39561
 11
40.1289
 21
6.05473
  0
LINE
  8
0
 10
40.1289
 20
6.05473
 11
39.927
 21
5.73663
  0
LINE
  8
0
 10
39.927
 20
5.73663
 11
39.6869
 21
5.44635
  0
LINE
  8
0
 10
39.6869
 20
5.44635
 11
39.4123
 21
5.18845
  0
LINE
  8
0
 10
39.4123
 20
5.18845
 11
39.1075
 21
4.96701
  0
LINE
  8
0
 10
39.1075
 20
4.96701
 11
38.7773
 21
4.78551
  0
LINE
  8
0
 10
38.7773
 20
4.78551
 11
38.427
 21
4.64682
  0
LINE
  8
0
 10
38.427
 20
4.64682
 11
38.0621
 21
4.55313
  0
LINE
  8
0
 10
38.0621
 20
4.55313
 11
37.6884
 21
4.50591
  0
LINE
  8
0
 10
37.6884
 20
4.50591
 11
37.3116
 21
4.50591
  0
LINE
  8
0
 10
26.8744
 20
5.50394
 11
26.6252
 21
5.53542
  0
LINE
  8
0
 10
26.6252
 20
5.53542
 11
26.382
 21
5.59789
  0
LINE
  8
0
 10
26.382
 20
5.59789
 11
26.1484
 21
5.69034
  0
LINE
  8
0
 10
26.1484
 20
5.69034
 11
25.9283
 21
5.81134
  0
LINE
  8
0
 10
25.9283
 20
5.81134
 11
25.7251
 21
5.95897
  0
LINE
  8
0
 10
25.7251
 20
5.95897
 11
25.5421
 21
6.13091
  0
LINE
  8
0
 10
25.5421
 20
6.13091
 11
25.382
 21
6.32442
  0
LINE
  8
0
 10
25.382
 20
6.32442
 11
25.2474
 21
6.53648
  0
LINE
  8
0
 10
25.2474
 20
6.53648
 11
25.1404
 21
6.76375
  0
LINE
  8
0
 10
25.1404
 20
6.76375
 11
25.0628
 21
7.00261
  0
LINE
  8
0
 10
25.0628
 20
7.00261
 11
25.0158
 21
7.24933
  0
LINE
  8
0
 10
25.0158
 20
7.24933
 11
25
 21
7.5
  0
LINE
  8
0
 10
25
 20
7.5
 11
25.0158
 21
7.75066
  0
LINE
  8
0
 10
25.0158
 20
7.75066
 11
25.0628
 21
7.99738
  0
LINE
  8
0
 10
25.0628
 20
7.99738
 11
25.1404
 21
8.23624
  0
LINE
  8
0
 10
25.1404
 20
8.23624
 11
25.2474
 21
8.4635
  0
LINE
  8
0
 10
25.2474
 20
8.4635
 11
25.382
 21
8.67557
  0
LINE
  8
0
 10
25.382
 20
8.67557
 11
25.5421
 21
8.86908
  0
LINE
  8
0
 10
25.5421
 20
8.86908
 11
25.7251
 21
9.04102
  0
LINE
  8
0
 10
25.7251
 20
9.04102
 11
25.9283
 21
9.18864
  0
LINE
  8
0
 10
25.9283
 20
9.18864
 11
26.1484
 21
9.30965
  0
LINE
  8
0
 10
26.1484
 20
9.30965
 11
26.382
 21
9.4021
  0
LINE
  8
0
 10
26.382
 20
9.4021
 11
26.6252
 21
9.46457
  0
LINE
  8
0
 10
26.6252
 20
9.46457
 11
26.8744
 21
9.49605
  0
LINE
  8
0
 10
26.8744
 20
9.49605
 11
27.1256
 21
9.49605
  0
LINE
  8
0
 10
27.1256
 20
9.49605
 11
27.3748
 21
9.46457
  0
LINE
  8
0
 10
27.3748
 20
9.46457
 11
27.618
 21
9.4021
  0
LINE
  8
0
 10
27.618
 20
9.4021
 11
27.8515
 21
9.30965
  0
LINE
  8
0
 10
27.8515
 20
9.30965
 11
28.0716
 21
9.18864
  0
LINE
  8
0
 10
28.0716
 20
9.18864
 11
28.2748
 21
9.04102
  0
LINE
  8
0
 10
28.2748
 20
9.04102
 11
28.4579
 21
8.86908
  0
LINE
  8
0
 10
28.4579
 20
8.86908
 11
28.618
 21
8.67557
  0
LINE
  8
0
 10
28.618
 20
8.67557
 11
28.7526
 21
8.4635
  0
LINE
  8
0
 10
28.7526
 20
8.4635
 11
28.8595
 21
8.23624
  0
LINE
  8
0
 10
28.8595
 20
8.23624
 11
28.9372
 21
7.99738
  0
LINE
  8
0
 10
28.9372
 20
7.99738
 11
28.9842
 21
7.75066
  0
LINE
  8
0
 10
28.9842
 20
7.75066
 11
29
 21
7.5
  0
LINE
  8
0
 10
29
 20
7.5
 11
28.9842
 21
7.24933
  0
LINE
  8
0
 10
28.9842
 20
7.24933
 11
28.9372
 21
7.00261
  0
LINE
  8
0
 10
28.9372
 20
7.00261
 11
28.8595
 21
6.76375
  0
LINE
  8
0
 10
28.8595
 20
6.76375
 11
28.7526
 21
6.53648
  0
LINE
  8
0
 10
28.7526
 20
6.53648
 11
28.618
 21
6.32442
  0
LINE
  8
0
 10
28.618
 20
6.32442
 11
28.4579
 21
6.13091
  0
LINE
  8
0
 10
28.4579
 20
6.13091
 11
28.2748
 21
5.95897
  0
LINE
  8
0
 10
28.2748
 20
5.95897
 11
28.0716
 21
5.81134
  0
LINE
  8
0
 10
28.0716
 20
5.81134
 11
27.8515
 21
5.69034
  0
LINE
  8
0
 10
27.8515
 20
5.69034
 11
27.618
 21
5.59789
  0
LINE
  8
0
 10
27.618
 20
5.59789
 11
27.3748
 21
5.53542
  0
LINE
  8
0
 10
27.3748
 20
5.53542
 11
27.1256
 21
5.50394
  0
LINE
  8
0
 10
27.1256
 20
5.50394
 11
26.8744
 21
5.50394
  0
LINE
  8
0
 10
-27.1256
 20
5.50394
 11
-27.3748
 21
5.53542
  0
LINE
  8
0
 10
-27.3748
 20
5.53542
 11
-27.618
 21
5.59789
  0
LINE
  8
0
 10
-27.618
 20
5.59789
 11
-27.8515
 21
5.69034
  0
LINE
  8
0
 10
-27.8515
 20
5.69034
 11
-28.0716
 21
5.81134
  0
LINE
  8
0
 10
-28.0716
 20
5.81134
 11
-28.2748
 21
5.95897
  0
LINE
  8
0
 10
-28.2748
 20
5.95897
 11
-28.4579
 21
6.13091
  0
LINE
  8
0
 10
-28.4579
 20
6.13091
 11
-28.618
 21
6.32442
  0
LINE
  8
0
 10
-28.618
 20
6.32442
 11
-28.7526
 21
6.53648
  0
LINE
  8
0
 10
-28.7526
 20
6.53648
 11
-28.8595
 21
6.76375
  0
LINE
  8
0
 10
-28.8595
 20
6.76375
 11
-28.9372
 21
7.00261
  0
LINE
  8
0
 10
-28.9372
 20
7.00261
 11
-28.9842
 21
7.24933
  0
LINE
  8
0
 10
-28.9842
 20
7.24933
 11
-29
 21
7.5
  0
LINE
  8
0
 10
-29
 20
7.5
 11
-28.9842
 21
7.75066
  0
LINE
  8
0
 10
-28.9842
 20
7.75066
 11
-28.9372
 21
7.99738
  0
LINE
  8
0
 10
-28.9372
 20
7.99738
 11
-28.8595
 21
8.23624
  0
LINE
  8
0
 10
-28.8595
 20
8.23624
 11
-28.7526
 21
8.4635
  0
LINE
  8
0
 10
-28.7526
 20
8.4635
 11
-28.618
 21
8.67557
  0
LINE
  8
0
 10
-28.618
 20
8.67557
 11
-28.4579
 21
8.86908
  0
LINE
  8
0
 10
-28.4579
 20
8.86908
 11
-28.2748
 21
9.04102
  0
LINE
  8
0
 10
-28.2748
 20
9.04102
 11
-28.0716
 21
9.18864
  0
LINE
  8
0
 10
-28.0716
 20
9.18864
 11
-27.8515
 21
9.30965
  0
LINE
  8
0
 10
-27.8515
 20
9.30965
 11
-27.618
 21
9.4021
  0
LINE
  8
0
 10
-27.618
 20
9.4021
 11
-27.3748
 21
9.46457
  0
LINE
  8
0
 10
-27.3748
 20
9.46457
 11
-27.1256
 21
9.49605
  0
LINE
  8
0
 10
-27.1256
 20
9.49605
 11
-26.8744
 21
9.49605
  0
LINE
  8
0
 10
-26.8744
 20
9.49605
 11
-26.6252
 21
9.46457
  0
LINE
  8
0
 10
-26.6252
 20
9.46457
 11
-26.382
 21
9.4021
  0
LINE
  8
0
 10
-26.382
 20
9.4021
 11
-26.1484
 21
9.30965
  0
LINE
  8
0
 10
-26.1484
 20
9.30965
 11
-25.9283
 21
9.18864
  0
LINE
  8
0
 10
-25.9283
 20
9.18864
 11
-25.7251
 21
9.04102
  0
LINE
  8
0
 10
-25.7251
 20
9.04102
 11
-25.5421
 21
8.86908
  0
LINE
  8
0
 10
-25.5421
 20
8.86908
 11
-25.382
 21
8.67557
  0
LINE
  8
0
 10
-25.382
 20
8.67557
 11
-25.2474
 21
8.4635
  0
LINE
  8
0
 10
-25.2474
 20
8.4635
 11
-25.1404
 21
8.23624
  0
LINE
  8
0
 10
-25.1404
 20
8.23624
 11
-25.0628
 21
7.99738
  0
LINE
  8
0
 10
-25.0628
 20
7.99738
 11
-25.0158
 21
7.75066
  0
LINE
  8
0
 10
-25.0158
 20
7.75066
 11
-25
 21
7.5
  0
LINE
  8
0
 10
-25
 20
7.5
 11
-25.0158
 21
7.24933
  0
LINE
  8
0
 10
-25.0158
 20
7.24933
 11
-25.0628
 21
7.00261
  0
LINE
  8
0
 10
-25.0628
 20
7.00261
 11
-25.1404
 21
6.76375
  0
LINE
  8
0
 10
-25.1404
 20
6.76375
 11
-25.2474
 21
6.53648
  0
LINE
  8
0
 10
-25.2474
 20
6.53648
 11
-25.382
 21
6.32442
  0
LINE
  8
0
 10
-25.382
 20
6.32442
 11
-25.5421
 21
6.13091
  0
LINE
  8
0
 10
-25.5421
 20
6.13091
 11
-25.7251
 21
5.95897
  0
LINE
  8
0
 10
-25.7251
 20
5.95897
 11
-25.9283
 21
5.81134
  0
LINE
  8
0
 10
-25.9283
 20
5.81134
 11
-26.1484
 21
5.69034
  0
LINE
  8
0
 10
-26.1484
 20
5.69034
 11
-26.382
 21
5.59789
  0
LINE
  8
0
 10
-26.382
 20
5.59789
 11
-26.6252
 21
5.53542
  0
LINE
  8
0
 10
-26.6252
 20
5.53542
 11
-26.8744
 21
5.50394
  0
LINE
  8
0
 10
-26.8744
 20
5.50394
 11
-27.1256
 21
5.50394
  0
LINE
  8
0
 10
37.3116
 20
-10.4941
 11
36.9379
 21
-10.4469
  0
LINE
  8
0
 10
36.9379
 20
-10.4469
 11
36.5729
 21
-10.3532
  0
LINE
  8
0
 10
36.5729
 20
-10.3532
 11
36.2227
 21
-10.2145
  0
LINE
  8
0
 10
36.2227
 20
-10.2145
 11
35.8925
 21
-10.033
  0
LINE
  8
0
 10
35.8925
 20
-10.033
 11
35.5877
 21
-9.81154
  0
LINE
  8
0
 10
35.5877
 20
-9.81154
 11
35.3131
 21
-9.55363
  0
LINE
  8
0
 10
35.3131
 20
-9.55363
 11
35.0729
 21
-9.26335
  0
LINE
  8
0
 10
35.0729
 20
-9.26335
 11
34.8711
 21
-8.94525
  0
LINE
  8
0
 10
34.8711
 20
-8.94525
 11
34.7107
 21
-8.60437
  0
LINE
  8
0
 10
34.7107
 20
-8.60437
 11
34.5942
 21
-8.24606
  0
LINE
  8
0
 10
34.5942
 20
-8.24606
 11
34.5237
 21
-7.87599
  0
LINE
  8
0
 10
34.5237
 20
-7.87599
 11
34.5
 21
-7.5
  0
LINE
  8
0
 10
34.5
 20
-7.5
 11
34.5237
 21
-7.12399
  0
LINE
  8
0
 10
34.5237
 20
-7.12399
 11
34.5942
 21
-6.75392
  0
LINE
  8
0
 10
34.5942
 20
-6.75392
 11
34.7107
 21
-6.39561
  0
LINE
  8
0
 10
34.7107
 20
-6.39561
 11
34.8711
 21
-6.05473
  0
LINE
  8
0
 10
34.8711
 20
-6.05473
 11
35.0729
 21
-5.73663
  0
LINE
  8
0
 10
35.0729
 20
-5.73663
 11
35.3131
 21
-5.44635
  0
LINE
  8
0
 10
35.3131
 20
-5.44635
 11
35.5877
 21
-5.18845
  0
LINE
  8
0
 10
35.5877
 20
-5.18845
 11
35.8925
 21
-4.96701
  0
LINE
  8
0
 10
35.8925
 20
-4.96701
 11
36.2227
 21
-4.78551
  0
LINE
  8
0
 10
36.2227
 20
-4.78551
 11
36.5729
 21
-4.64682
  0
LINE
  8
0
 10
36.5729
 20
-4.64682
 11
36.9379
 21
-4.55313
  0
LINE
  8
0
 10
36.9379
 20
-4.55313
 11
37.3116
 21
-4.50591
  0
LINE
  8
0
 10
37.3116
 20
-4.50591
 11
37.6884
 21
-4.50591
  0
LINE
  8
0
 10
37.6884
 20
-4.50591
 11
38.0621
 21
-4.55313
  0
LINE
  8
0
 10
38.0621
 20
-4.55313
 11
38.427
 21
-4.64682
  0
LINE
  8
0
 10
38.427
 20
-4.64682
 11
38.7773
 21
-4.78551
  0
LINE
  8
0
 10
38.7773
 20
-4.78551
 11
39.1075
 21
-4.96701
  0
LINE
  8
0
 10
39.1075
 20
-4.96701
 11
39.4123
 21
-5.18845
  0
LINE
  8
0
 10
39.4123
 20
-5.18845
 11
39.6869
 21
-5.44635
  0
LINE
  8
0
 10
39.6869
 20
-5.44635
 11
39.927
 21
-5.73663
  0
LINE
  8
0
 10
39.927
 20
-5.73663
 11
40.1289
 21
-6.05473
  0
LINE
  8
0
 10
40.1289
 20
-6.05473
 11
40.2893
 21
-6.39561
  0
LINE
  8
0
 10
40.2893
 20
-6.39561
 11
40.4057
 21
-6.75392
  0
LINE
  8
0
 10
40.4057
 20
-6.75392
 11
40.4763
 21
-7.12399
  0
LINE
  8
0
 10
40.4763
 20
-7.12399
 11
40.5
 21
-7.5
  0
LINE
  8
0
 10
40.5
 20
-7.5
 11
40.4763
 21
-7.87599
  0
LINE
  8
0
 10
40.4763
 20
-7.87599
 11
40.4057
 21
-8.24606
  0
LINE
  8
0
 10
40.4057
 20
-8.24606
 11
40.2893
 21
-8.60437
  0
LINE
  8
0
 10
40.2893
 20
-8.60437
 11
40.1289
 21
-8.94525
  0
LINE
  8
0
 10
40.1289
 20
-8.94525
 11
39.927
 21
-9.26335
  0
LINE
  8
0
 10
39.927
 20
-9.26335
 11
39.6869
 21
-9.55363
  0
LINE
  8
0
 10
39.6869
 20
-9.55363
 11
39.4123
 21
-9.81154
  0
LINE
  8
0
 10
39.4123
 20
-9.81154
 11
39.1075
 21
-10.033
  0
LINE
  8
0
 10
39.1075
 20
-10.033
 11
38.7773
 21
-10.2145
  0
LINE
  8
0
 10
38.7773
 20
-10.2145
 11
38.427
 21
-10.3532
  0
LINE
  8
0
 10
38.427
 20
-10.3532
 11
38.0621
 21
-10.4469
  0
LINE
  8
0
 10
38.0621
 20
-10.4469
 11
37.6884
 21
-10.4941
  0
LINE
  8
0
 10
37.6884
 20
-10.4941
 11
37.3116
 21
-10.4941
  0
LINE
  8
0
 10
-37.6884
 20
-10.4941
 11
-38.0621
 21
-10.4469
  0
LINE
  8
0
 10
-38.0621
 20
-10.4469
 11
-38.427
 21
-10.3532
  0
LINE
  8
0
 10
-38.427
 20
-10.3532
 11
-38.7773
 21
-10.2145
  0
LINE
  8
0
 10
-38.7773
 20
-10.2145
 11
-39.1075
 21
-10.033
  0
LINE
  8
0
 10
-39.1075
 20
-10.033
 11
-39.4123
 21
-9.81154
  0
LINE
  8
0
 10
-39.4123
 20
-9.81154
 11
-39.6869
 21
-9.55363
  0
LINE
  8
0
 10
-39.6869
 20
-9.55363
 11
-39.927
 21
-9.26335
  0
LINE
  8
0
 10
-39.927
 20
-9.26335
 11
-40.1289
 21
-8.94525
  0
LINE
  8
0
 10
-40.1289
 20
-8.94525
 11
-40.2893
 21
-8.60437
  0
LINE
  8
0
 10
-40.2893
 20
-8.60437
 11
-40.4057
 21
-8.24606
  0
LINE
  8
0
 10
-40.4057
 20
-8.24606
 11
-40.4763
 21
-7.87599
  0
LINE
  8
0
 10
-40.4763
 20
-7.87599
 11
-40.5
 21
-7.5
  0
LINE
  8
0
 10
-40.5
 20
-7.5
 11
-40.4763
 21
-7.12399
  0
LINE
  8
0
 10
-40.4763
 20
-7.12399
 11
-40.4057
 21
-6.75392
  0
LINE
  8
0
 10
-40.4057
 20
-6.75392
 11
-40.2893
 21
-6.39561
  0
LINE
  8
0
 10
-40.2893
 20
-6.39561
 11
-40.1289
 21
-6.05473
  0
LINE
  8
0
 10
-40.1289
 20
-6.05473
 11
-39.927
 21
-5.73663
  0
LINE
  8
0
 10
-39.927
 20
-5.73663
 11
-39.6869
 21
-5.44635
  0
LINE
  8
0
 10
-39.6869
 20
-5.44635
 11
-39.4123
 21
-5.18845
  0
LINE
  8
0
 10
-39.4123
 20
-5.18845
 11
-39.1075
 21
-4.96701
  0
LINE
  8
0
 10
-39.1075
 20
-4.96701
 11
-38.7773
 21
-4.78551
  0
LINE
  8
0
 10
-38.7773
 20
-4.78551
 11
-38.427
 21
-4.64682
  0
LINE
  8
0
 10
-38.427
 20
-4.64682
 11
-38.0621
 21
-4.55313
  0
LINE
  8
0
 10
-38.0621
 20
-4.55313
 11
-37.6884
 21
-4.50591
  0
LINE
  8
0
 10
-37.6884
 20
-4.50591
 11
-37.3116
 21
-4.50591
  0
LINE
  8
0
 10
-37.3116
 20
-4.50591
 11
-36.9379
 21
-4.55313
  0
LINE
  8
0
 10
-36.9379
 20
-4.55313
 11
-36.5729
 21
-4.64682
  0
LINE
  8
0
 10
-36.5729
 20
-4.64682
 11
-36.2227
 21
-4.78551
  0
LINE
  8
0
 10
-36.2227
 20
-4.78551
 11
-35.8925
 21
-4.96701
  0
LINE
  8
0
 10
-35.8925
 20
-4.96701
 11
-35.5877
 21
-5.18845
  0
LINE
  8
0
 10
-35.5877
 20
-5.18845
 11
-35.3131
 21
-5.44635
  0
LINE
  8
0
 10
-35.3131
 20
-5.44635
 11
-35.0729
 21
-5.73663
  0
LINE
  8
0
 10
-35.0729
 20
-5.73663
 11
-34.8711
 21
-6.05473
  0
LINE
  8
0
 10
-34.8711
 20
-6.05473
 11
-34.7107
 21
-6.39561
  0
LINE
  8
0
 10
-34.7107
 20
-6.39561
 11
-34.5942
 21
-6.75392
  0
LINE
  8
0
 10
-34.5942
 20
-6.75392
 11
-34.5237
 21
-7.12399
  0
LINE
  8
0
 10
-34.5237
 20
-7.12399
 11
-34.5
 21
-7.5
  0
LINE
  8
0
 10
-34.5
 20
-7.5
 11
-34.5237
 21
-7.87599
  0
LINE
  8
0
 10
-34.5237
 20
-7.87599
 11
-34.5942
 21
-8.24606
  0
LINE
  8
0
 10
-34.5942
 20
-8.24606
 11
-34.7107
 21
-8.60437
  0
LINE
  8
0
 10
-34.7107
 20
-8.60437
 11
-34.8711
 21
-8.94525
  0
LINE
  8
0
 10
-34.8711
 20
-8.94525
 11
-35.0729
 21
-9.26335
  0
LINE
  8
0
 10
-35.0729
 20
-9.26335
 11
-35.3131
 21
-9.55363
  0
LINE
  8
0
 10
-35.3131
 20
-9.55363
 11
-35.5877
 21
-9.81154
  0
LINE
  8
0
 10
-35.5877
 20
-9.81154
 11
-35.8925
 21
-10.033
  0
LINE
  8
0
 10
-35.8925
 20
-10.033
 11
-36.2227
 21
-10.2145
  0
LINE
  8
0
 10
-36.2227
 20
-10.2145
 11
-36.5729
 21
-10.3532
  0
LINE
  8
0
 10
-36.5729
 20
-10.3532
 11
-36.9379
 21
-10.4469
  0
LINE
  8
0
 10
-36.9379
 20
-10.4469
 11
-37.3116
 21
-10.4941
  0
LINE
  8
0
 10
-37.3116
 20
-10.4941
 11
-37.6884
 21
-10.4941
  0
LINE
  8
0
 10
26.8744
 20
-9.49605
 11
26.6252
 21
-9.46457
  0
LINE
  8
0
 10
26.6252
 20
-9.46457
 11
26.382
 21
-9.4021
  0
LINE
  8
0
 10
26.382
 20
-9.4021
 11
26.1484
 21
-9.30965
  0
LINE
  8
0
 10
26.1484
 20
-9.30965
 11
25.9283
 21
-9.18864
  0
LINE
  8
0
 10
25.9283
 20
-9.18864
 11
25.7251
 21
-9.04102
  0
LINE
  8
0
 10
25.7251
 20
-9.04102
 11
25.5421
 21
-8.86908
  0
LINE
  8
0
 10
25.5421
 20
-8.86908
 11
25.382
 21
-8.67557
  0
LINE
  8
0
 10
25.382
 20
-8.67557
 11
25.2474
 21
-8.4635
  0
LINE
  8
0
 10
25.2474
 20
-8.4635
 11
25.1404
 21
-8.23624
  0
LINE
  8
0
 10
25.1404
 20
-8.23624
 11
25.0628
 21
-7.99738
  0
LINE
  8
0
 10
25.0628
 20
-7.99738
 11
25.0158
 21
-7.75066
  0
LINE
  8
0
 10
25.0158
 20
-7.75066
 11
25
 21
-7.5
  0
LINE
  8
0
 10
25
 20
-7.5
 11
25.0158
 21
-7.24933
  0
LINE
  8
0
 10
25.0158
 20
-7.24933
 11
25.0628
 21
-7.00261
  0
LINE
  8
0
 10
25.0628
 20
-7.00261
 11
25.1404
 21
-6.76375
  0
LINE
  8
0
 10
25.1404
 20
-6.76375
 11
25.2474
 21
-6.53648
  0
LINE
  8
0
 10
25.2474
 20
-6.53648
 11
25.382
 21
-6.32442
  0
LINE
  8
0
 10
25.382
 20
-6.32442
 11
25.5421
 21
-6.13091
  0
LINE
  8
0
 10
25.5421
 20
-6.13091
 11
25.7251
 21
-5.95897
  0
LINE
  8
0
 10
25.7251
 20
-5.95897
 11
25.9283
 21
-5.81134
  0
LINE
  8
0
 10
25.9283
 20
-5.81134
 11
26.1484
 21
-5.69034
  0
LINE
  8
0
 10
26.1484
 20
-5.69034
 11
26.382
 21
-5.59789
  0
LINE
  8
0
 10
26.382
 20
-5.59789
 11
26.6252
 21
-5.53542
  0
LINE
  8
0
 10
26.6252
 20
-5.53542
 11
26.8744
 21
-5.50394
  0
LINE
  8
0
 10
26.8744
 20
-5.50394
 11
27.1256
 21
-5.50394
  0
LINE
  8
0
 10
27.1256
 20
-5.50394
 11
27.3748
 21
-5.53542
  0
LINE
  8
0
 10
27.3748
 20
-5.53542
 11
27.618
 21
-5.59789
  0
LINE
  8
0
 10
27.618
 20
-5.59789
 11
27.8515
 21
-5.69034
  0
LINE
  8
0
 10
27.8515
 20
-5.69034
 11
28.0716
 21
-5.81134
  0
LINE
  8
0
 10
28.0716
 20
-5.81134
 11
28.2748
 21
-5.95897
  0
LINE
  8
0
 10
28.2748
 20
-5.95897
 11
28.4579
 21
-6.13091
  0
LINE
  8
0
 10
28.4579
 20
-6.13091
 11
28.618
 21
-6.32442
  0
LINE
  8
0
 10
28.618
 20
-6.32442
 11
28.7526
 21
-6.53648
  0
LINE
  8
0
 10
28.7526
 20
-6.53648
 11
28.8595
 21
-6.76375
  0
LINE
  8
0
 10
28.8595
 20
-6.76375
 11
28.9372
 21
-7.00261
  0
LINE
  8
0
 10
28.9372
 20
-7.00261
 11
28.9842
 21
-7.24933
  0
LINE
  8
0
 10
28.9842
 20
-7.24933
 11
29
 21
-7.5
  0
LINE
  8
0
 10
29
 20
-7.5
 11
28.9842
 21
-7.75066
  0
LINE
  8
0
 10
28.9842
 20
-7.75066
 11
28.9372
 21
-7.99738
  0
LINE
  8
0
 10
28.9372
 20
-7.99738
 11
28.8595
 21
-8.23624
  0
LINE
  8
0
 10
28.8595
 20
-8.23624
 11
28.7526
 21
-8.4635
  0
LINE
  8
0
 10
28.7526
 20
-8.4635
 11
28.618
 21
-8.67557
  0
LINE
  8
0
 10
28.618
 20
-8.67557
 11
28.4579
 21
-8.86908
  0
LINE
  8
0
 10
28.4579
 20
-8.86908
 11
28.2748
 21
-9.04102
  0
LINE
  8
0
 10
28.2748
 20
-9.04102
 11
28.0716
 21
-9.18864
  0
LINE
  8
0
 10
28.0716
 20
-9.18864
 11
27.8515
 21
-9.30965
  0
LINE
  8
0
 10
27.8515
 20
-9.30965
 11
27.618
 21
-9.4021
  0
LINE
  8
0
 10
27.618
 20
-9.4021
 11
27.3748
 21
-9.46457
  0
LINE
  8
0
 10
27.3748
 20
-9.46457
 11
27.1256
 21
-9.49605
  0
LINE
  8
0
 10
27.1256
 20
-9.49605
 11
26.8744
 21
-9.49605
  0
LINE
  8
0
 10
-27.1256
 20
-9.49605
 11
-27.3748
 21
-9.46457
  0
LINE
  8
0
 10
-27.3748
 20
-9.46457
 11
-27.618
 21
-9.4021
  0
LINE
  8
0
 10
-27.618
 20
-9.4021
 11
-27.8515
 21
-9.30965
  0
LINE
  8
0
 10
-27.8515
 20
-9.30965
 11
-28.0716
 21
-9.18864
  0
LINE
  8
0
 10
-28.0716
 20
-9.18864
 11
-28.2748
 21
-9.04102
  0
LINE
  8
0
 10
-28.2748
 20
-9.04102
 11
-28.4579
 21
-8.86908
  0
LINE
  8
0
 10
-28.4579
 20
-8.86908
 11
-28.618
 21
-8.67557
  0
LINE
  8
0
 10
-28.618
 20
-8.67557
 11
-28.7526
 21
-8.4635
  0
LINE
  8
0
 10
-28.7526
 20
-8.4635
 11
-28.8595
 21
-8.23624
  0
LINE
  8
0
 10
-28.8595
 20
-8.23624
 11
-28.9372
 21
-7.99738
  0
LINE
  8
0
 10
-28.9372
 20
-7.99738
 11
-28.9842
 21
-7.75066
  0
LINE
  8
0
 10
-28.9842
 20
-7.75066
 11
-29
 21
-7.5
  0
LINE
  8
0
 10
-29
 20
-7.5
 11
-28.9842
 21
-7.24933
  0
LINE
  8
0
 10
-28.9842
 20
-7.24933
 11
-28.9372
 21
-7.00261
  0
LINE
  8
0
 10
-28.9372
 20
-7.00261
 11
-28.8595
 21
-6.76375
  0
LINE
  8
0
 10
-28.8595
 20
-6.76375
 11
-28.7526
 21
-6.53648
  0
LINE
  8
0
 10
-28.7526
 20
-6.53648
 11
-28.618
 21
-6.32442
  0
LINE
  8
0
 10
-28.618
 20
-6.32442
 11
-28.4579
 21
-6.13091
  0
LINE
  8
0
 10
-28.4579
 20
-6.13091
 11
-28.2748
 21
-5.95897
  0
LINE
  8
0
 10
-28.2748
 20
-5.95897
 11
-28.0716
 21
-5.81134
  0
LINE
  8
0
 10
-28.0716
 20
-5.81134
 11
-27.8515
 21
-5.69034
  0
LINE
  8
0
 10
-27.8515
 20
-5.69034
 11
-27.618
 21
-5.59789
  0
LINE
  8
0
 10
-27.618
 20
-5.59789
 11
-27.3748
 21
-5.53542
  0
LINE
  8
0
 10
-27.3748
 20
-5.53542
 11
-27.1256
 21
-5.50394
  0
LINE
  8
0
 10
-27.1256
 20
-5.50394
 11
-26.8744
 21
-5.50394
  0
LINE
  8
0
 10
-26.8744
 20
-5.50394
 11
-26.6252
 21
-5.53542
  0
LINE
  8
0
 10
-26.6252
 20
-5.53542
 11
-26.382
 21
-5.59789
  0
LINE
  8
0
 10
-26.382
 20
-5.59789
 11
-26.1484
 21
-5.69034
  0
LINE
  8
0
 10
-26.1484
 20
-5.69034
 11
-25.9283
 21
-5.81134
  0
LINE
  8
0
 10
-25.9283
 20
-5.81134
 11
-25.7251
 21
-5.95897
  0
LINE
  8
0
 10
-25.7251
 20
-5.95897
 11
-25.5421
 21
-6.13091
  0
LINE
  8
0
 10
-25.5421
 20
-6.13091
 11
-25.382
 21
-6.32442
  0
LINE
  8
0
 10
-25.382
 20
-6.32442
 11
-25.2474
 21
-6.53648
  0
LINE
  8
0
 10
-25.2474
 20
-6.53648
 11
-25.1404
 21
-6.76375
  0
LINE
  8
0
 10
-25.1404
 20
-6.76375
 11
-25.0628
 21
-7.00261
  0
LINE
  8
0
 10
-25.0628
 20
-7.00261
 11
-25.0158
 21
-7.24933
  0
LINE
  8
0
 10
-25.0158
 20
-7.24933
 11
-25
 21
-7.5
  0
LINE
  8
0
 10
-25
 20
-7.5
 11
-25.0158
 21
-7.75066
  0
LINE
  8
0
 10
-25.0158
 20
-7.75066
 11
-25.0628
 21
-7.99738
  0
LINE
  8
0
 10
-25.0628
 20
-7.99738
 11
-25.1404
 21
-8.23624
  0
LINE
  8
0
 10
-25.1404
 20
-8.23624
 11
-25.2474
 21
-8.4635
  0
LINE
  8
0
 10
-25.2474
 20
-8.4635
 11
-25.382
 21
-8.67557
  0
LINE
  8
0
 10
-25.382
 20
-8.67557
 11
-25.5421
 21
-8.86908
  0
LINE
  8
0
 10
-25.5421
 20
-8.86908
 11
-25.7251
 21
-9.04102
  0
LINE
  8
0
 10
-25.7251
 20
-9.04102
 11
-25.9283
 21
-9.18864
  0
LINE
  8
0
 10
-25.9283
 20
-9.18864
 11
-26.1484
 21
-9.30965
  0
LINE
  8
0
 10
-26.1484
 20
-9.30965
 11
-26.382
 21
-9.4021
  0
LINE
  8
0
 10
-26.382
 20
-9.4021
 11
-26.6252
 21
-9.46457
  0
LINE
  8
0
 10
-26.6252
 20
-9.46457
 11
-26.8744
 21
-9.49605
  0
LINE
  8
0
 10
-26.8744
 20
-9.49605
 11
-27.1256
 21
-9.49605
  0
ENDSEC
  0
SECTION
  2
OBJECTS
  0
DICTIONARY
  0
ENDSEC
  0
EOF
