<?xml version="1.0" standalone="no"?>
<!DOCTYPE svg PUBLIC "-//W3C//DTD SVG 1.1//EN" "http://www.w3.org/Graphics/SVG/1.1/DTD/svg11.dtd">
<svg width="90mm" height="30mm" viewBox="-45 -15 90 30" xmlns="http://www.w3.org/2000/svg" version="1.1">
<title>OpenSCAD Model</title>
<path d="
M 40.4369,14.4114 L 41.0451,14.2553 L 41.6289,14.0241 L 42.1791,13.7216 L 42.6871,13.3526 L 43.1448,12.9227
 L 43.5451,12.4389 L 43.8815,11.9088 L 44.1489,11.3406 L 44.3429,10.7434 L 44.4606,10.1267 L 44.5,9.5
 L 44.5,-9.5 L 44.4606,-10.1267 L 44.3429,-10.7434 L 44.1489,-11.3406 L 43.8815,-11.9088 L 43.5451,-12.4389
 L 43.1448,-12.9227 L 42.6871,-13.3526 L 42.1791,-13.7216 L 41.6289,-14.0241 L 41.0451,-14.2553 L 40.4369,-14.4114
 L 39.8139,-14.4901 L -39.8139,-14.4901 L -40.4369,-14.4114 L -41.0451,-14.2553 L -41.6289,-14.0241 L -42.1791,-13.7216
 L -42.6871,-13.3526 L -43.1448,-12.9227 L -43.5451,-12.4389 L -43.8815,-11.9088 L -44.1489,-11.3406 L -44.3429,-10.7434
 L -44.4606,-10.1267 L -44.5,-9.5 L -44.5,9.5 L -44.4606,10.1267 L -44.3429,10.7434 L -44.1489,11.3406
 L -43.8815,11.9088 L -43.5451,12.4389 L -43.1448,12.9227 L -42.6871,13.3526 L -42.1791,13.7216 L -41.6289,14.0241
 L -41.0451,14.2553 L -40.4369,14.4114 L -39.8139,14.4901 L 39.8139,14.4901 z
M -37.6884,-4.50591 L -38.0621,-4.55313 L -38.427,-4.64682 L -38.7773,-4.78551 L -39.1075,-4.96701 L -39.4123,-5.18845
 L -39.6869,-5.44635 L -39.927,-5.73663 L -40.1289,-6.05473 L -40.2893,-6.39561 L -40.4057,-6.75392 L -40.4763,-7.12399
 L -40.5,-7.5 L -40.4763,-7.87599 L -40.4057,-8.24606 L -40.2893,-8.60437 L -40.1289,-8.94525 L -39.927,-9.26335
 L -39.6869,-9.55363 L -39.4123,-9.81154 L -39.1075,-10.033 L -38.7773,-10.2145 L -38.427,-10.3532 L -38.0621,-10.4469
 L -37.6884,-10.4941 L -37.3116,-10.4941 L -36.9379,-10.4469 L -36.5729,-10.3532 L -36.2227,-10.2145 L -35.8925,-10.033
 L -35.5877,-9.81154 L -35.3131,-9.55363 L -35.0729,-9.26335 L -34.8711,-8.94525 L -34.7107,-8.60437 L -34.5942,-8.24606
 L -34.5237,-7.87599 L -34.5,-7.5 L -34.5237,-7.12399 L -34.5942,-6.75392 L -34.7107,-6.39561 L -34.8711,-6.05473
 L -35.0729,-5.73663 L -35.3131,-5.44635 L -35.5877,-5.18845 L -35.8925,-4.96701 L -36.2227,-4.78551 L -36.5729,-4.64682
 L -36.9379,-4.55313 L -37.3116,-4.50591 z
M 37.3116,-4.50591 L 36.9379,-4.55313 L 36.5729,-4.64682 L 36.2227,-4.78551 L 35.8925,-4.96701 L 35.5877,-5.18845
 L 35.3131,-5.44635 L 35.0729,-5.73663 L 34.8711,-6.05473 L 34.7107,-6.39561 L 34.5942,-6.75392 L 34.5237,-7.12399
 L 34.5,-7.5 L 34.5237,-7.87599 L 34.5942,-8.24606 L 34.7107,-8.60437 L 34.8711,-8.94525 L 35.0729,-9.26335
 L 35.3131,-9.55363 L 35.5877,-9.81154 L 35.8925,-10.033 L 36.2227,-10.2145 L 36.5729,-10.3532 L 36.9379,-10.4469
 L 37.3116,-10.4941 L 37.6884,-10.4941 L 38.0621,-10.4469 L 38.427,-10.3532 L 38.7773,-10.2145 L 39.1075,-10.033
 L 39.4123,-9.81154 L 39.6869,-9.55363 L 39.927,-9.26335 L 40.1289,-8.94525 L 40.2893,-8.60437 L 40.4057,-8.24606
 L 40.4763,-7.87599 L 40.5,-7.5 L 40.4763,-7.12399 L 40.4057,-6.75392 L 40.2893,-6.39561 L 40.1289,-6.05473
 L 39.927,-5.73663 L 39.6869,-5.44635 L 39.4123,-5.18845 L 39.1075,-4.96701 L 38.7773,-4.78551 L 38.427,-4.64682
 L 38.0621,-4.55313 L 37.6884,-4.50591 z
M 26.8744,-5.50394 L 26.6252,-5.53542 L 26.382,-5.59789 L 26.1484,-5.69034 L 25.9283,-5.81134 L 25.7251,-5.95897
 L 25.5421,-6.13091 L 25.382,-6.32442 L 25.2474,-6.53648 L 25.1404,-6.76375 L 25.0628,-7.00261 L 25.0158,-7.24933
 L 25,-7.5 L 25.0158,-7.75066 L 25.0628,-7.99738 L 25.1404,-8.23624 L 25.2474,-8.4635 L 25.382,-8.67557
 L 25.5421,-8.86908 L 25.7251,-9.04102 L 25.9283,-9.18864 L 26.1484,-9.30965 L 26.382,-9.4021 L 26.6252,-9.46457
 L 26.8744,-9.49605 L 27.1256,-9.49605 L 27.3748,-9.46457 L 27.618,-9.4021 L 27.8515,-9.30965 L 28.0716,-9.18864
 L 28.2748,-9.04102 L 28.4579,-8.86908 L 28.618,-8.67557 L 28.7526,-8.4635 L 28.8595,-8.23624 L 28.9372,-7.99738
 L 28.9842,-7.75066 L 29,-7.5 L 28.9842,-7.24933 L 28.9372,-7.00261 L 28.8595,-6.76375 L 28.7526,-6.53648
 L 28.618,-6.32442 L 28.4579,-6.13091 L 28.2748,-5.95897 L 28.0716,-5.81134 L 27.8515,-5.69034 L 27.618,-5.59789
 L 27.3748,-5.53542 L 27.1256,-5.50394 z
M -27.1256,-5.50394 L -27.3748,-5.53542 L -27.618,-5.59789 L -27.8515,-5.69034 L -28.0716,-5.81134 L -28.2748,-5.95897
 L -28.4579,-6.13091 L -28.618,-6.32442 L -28.7526,-6.53648 L -28.8595,-6.76375 L -28.9372,-7.00261 L -28.9842,-7.24933
 L -29,-7.5 L -28.9842,-7.75066 L -28.9372,-7.99738 L -28.8595,-8.23624 L -28.7526,-8.4635 L -28.618,-8.67557
 L -28.4579,-8.86908 L -28.2748,-9.04102 L -28.0716,-9.18864 L -27.8515,-9.30965 L -27.618,-9.4021 L -27.3748,-9.46457
 L -27.1256,-9.49605 L -26.8744,-9.49605 L -26.6252,-9.46457 L -26.382,-9.4021 L -26.1484,-9.30965 L -25.9283,-9.18864
 L -25.7251,-9.04102 L -25.5421,-8.86908 L -25.382,-8.67557 L -25.2474,-8.4635 L -25.1404,-8.23624 L -25.0628,-7.99738
 L -25.0158,-7.75066 L -25,-7.5 L -25.0158,-7.24933 L -25.0628,-7.00261 L -25.1404,-6.76375 L -25.2474,-6.53648
 L -25.382,-6.32442 L -25.5421,-6.13091 L -25.7251,-5.95897 L -25.9283,-5.81134 L -26.1484,-5.69034 L -26.382,-5.59789
 L -26.6252,-5.53542 L -26.8744,-5.50394 z
M 37.3116,10.4941 L 36.9379,10.4469 L 36.5729,10.3532 L 36.2227,10.2145 L 35.8925,10.033 L 35.5877,9.81154
 L 35.3131,9.55363 L 35.0729,9.26335 L 34.8711,8.94525 L 34.7107,8.60437 L 34.5942,8.24606 L 34.5237,7.87599
 L 34.5,7.5 L 34.5237,7.12399 L 34.5942,6.75392 L 34.7107,6.39561 L 34.8711,6.05473 L 35.0729,5.73663
 L 35.3131,5.44635 L 35.5877,5.18845 L 35.8925,4.96701 L 36.2227,4.78551 L 36.5729,4.64682 L 36.9379,4.55313
 L 37.3116,4.50591 L 37.6884,4.50591 L 38.0621,4.55313 L 38.427,4.64682 L 38.7773,4.78551 L 39.1075,4.96701
 L 39.4123,5.18845 L 39.6869,5.44635 L 39.927,5.73663 L 40.1289,6.05473 L 40.2893,6.39561 L 40.4057,6.75392
 L 40.4763,7.12399 L 40.5,7.5 L 40.4763,7.87599 L 40.4057,8.24606 L 40.2893,8.60437 L 40.1289,8.94525
 L 39.927,9.26335 L 39.6869,9.55363 L 39.4123,9.81154 L 39.1075,10.033 L 38.7773,10.2145 L 38.427,10.3532
 L 38.0621,10.4469 L 37.6884,10.4941 z
M -37.6884,10.4941 L -38.0621,10.4469 L -38.427,10.3532 L -38.7773,10.2145 L -39.1075,10.033 L -39.4123,9.81154
 L -39.6869,9.55363 L -39.927,9.26335 L -40.1289,8.94525 L -40.2893,8.60437 L -40.4057,8.24606 L -40.4763,7.87599
 L -40.5,7.5 L -40.4763,7.12399 L -40.4057,6.75392 L -40.2893,6.39561 L -40.1289,6.05473 L -39.927,5.73663
 L -39.6869,5.44635 L -39.4123,5.18845 L -39.1075,4.96701 L -38.7773,4.78551 L -38.427,4.64682 L -38.0621,4.55313
 L -37.6884,4.50591 L -37.3116,4.50591 L -36.9379,4.55313 L -36.5729,4.64682 L -36.2227,4.78551 L -35.8925,4.96701
 L -35.5877,5.18845 L -35.3131,5.44635 L -35.0729,5.73663 L -34.8711,6.05473 L -34.7107,6.39561 L -34.5942,6.75392
 L -34.5237,7.12399 L -34.5,7.5 L -34.5237,7.87599 L -34.5942,8.24606 L -34.7107,8.60437 L -34.8711,8.94525
 L -35.0729,9.26335 L -35.3131,9.55363 L -35.5877,9.81154 L -35.8925,10.033 L -36.2227,10.2145 L -36.5729,10.3532
 L -36.9379,10.4469 L -37.3116,10.4941 z
M 26.8744,9.49605 L 26.6252,9.46457 L 26.382,9.4021 L 26.1484,9.30965 L 25.9283,9.18864 L 25.7251,9.04102
 L 25.5421,8.86908 L 25.382,8.67557 L 25.2474,8.4635 L 25.1404,8.23624 L 25.0628,7.99738 L 25.0158,7.75066
 L 25,7.5 L 25.0158,7.24933 L 25.0628,7.00261 L 25.1404,6.76375 L 25.2474,6.53648 L 25.382,6.32442
 L 25.5421,6.13091 L 25.7251,5.95897 L 25.9283,5.81134 L 26.1484,5.69034 L 26.382,5.59789 L 26.6252,5.53542
 L 26.8744,5.50394 L 27.1256,5.50394 L 27.3748,5.53542 L 27.618,5.59789 L 27.8515,5.69034 L 28.0716,5.81134
 L 28.2748,5.95897 L 28.4579,6.13091 L 28.618,6.32442 L 28.7526,6.53648 L 28.8595,6.76375 L 28.9372,7.00261
 L 28.9842,7.24933 L 29,7.5 L 28.9842,7.75066 L 28.9372,7.99738 L 28.8595,8.23624 L 28.7526,8.4635
 L 28.618,8.67557 L 28.4579,8.86908 L 28.2748,9.04102 L 28.0716,9.18864 L 27.8515,9.30965 L 27.618,9.4021
 L 27.3748,9.46457 L 27.1256,9.49605 z
M -27.1256,9.49605 L -27.3748,9.46457 L -27.618,9.4021 L -27.8515,9.30965 L -28.0716,9.18864 L -28.2748,9.04102
 L -28.4579,8.86908 L -28.618,8.67557 L -28.7526,8.4635 L -28.8595,8.23624 L -28.9372,7.99738 L -28.9842,7.75066
 L -29,7.5 L -28.9842,7.24933 L -28.9372,7.00261 L -28.8595,6.76375 L -28.7526,6.53648 L -28.618,6.32442
 L -28.4579,6.13091 L -28.2748,5.95897 L -28.0716,5.81134 L -27.8515,5.69034 L -27.618,5.59789 L -27.3748,5.53542
 L -27.1256,5.50394 L -26.8744,5.50394 L -26.6252,5.53542 L -26.382,5.59789 L -26.1484,5.69034 L -25.9283,5.81134
 L -25.7251,5.95897 L -25.5421,6.13091 L -25.382,6.32442 L -25.2474,6.53648 L -25.1404,6.76375 L -25.0628,7.00261
 L -25.0158,7.24933 L -25,7.5 L -25.0158,7.75066 L -25.0628,7.99738 L -25.1404,8.23624 L -25.2474,8.4635
 L -25.382,8.67557 L -25.5421,8.86908 L -25.7251,9.04102 L -25.9283,9.18864 L -26.1484,9.30965 L -26.382,9.4021
 L -26.6252,9.46457 L -26.8744,9.49605 z
" stroke="black" fill="lightgray" stroke-width="0.5"/>
</svg>
