<?xml version="1.0" standalone="no"?>
<!DOCTYPE svg PUBLIC "-//W3C//DTD SVG 1.1//EN" "http://www.w3.org/Graphics/SVG/1.1/DTD/svg11.dtd">
<svg width="16mm" height="208mm" viewBox="-8 -401 16 208" xmlns="http://www.w3.org/2000/svg" version="1.1">
<title>OpenSCAD Model</title>
<path d="
M 3.4369,-355.589 L 4.04507,-355.745 L 4.62889,-355.976 L 5.17912,-356.278 L 5.68712,-356.647 L 6.14484,-357.077
 L 6.54507,-357.561 L 6.88153,-358.091 L 7.14888,-358.659 L 7.34291,-359.257 L 7.46057,-359.873 L 7.5,-360.5
 L 7.5,-395.5 L 7.46057,-396.127 L 7.34291,-396.743 L 7.14888,-397.341 L 6.88153,-397.909 L 6.54507,-398.439
 L 6.14484,-398.923 L 5.68712,-399.353 L 5.17912,-399.722 L 4.62889,-400.024 L 4.04507,-400.255 L 3.4369,-400.411
 L 2.81395,-400.49 L -2.81395,-400.49 L -3.4369,-400.411 L -4.04507,-400.255 L -4.62889,-400.024 L -5.17912,-399.722
 L -5.68712,-399.353 L -6.14484,-398.923 L -6.54507,-398.439 L -6.88153,-397.909 L -7.14888,-397.341 L -7.34291,-396.743
 L -7.46057,-396.127 L -7.5,-395.5 L -7.5,-360.5 L -7.46057,-359.873 L -7.34291,-359.257 L -7.14888,-358.659
 L -6.88153,-358.091 L -6.54507,-357.561 L -6.14484,-357.077 L -5.68712,-356.647 L -5.17912,-356.278 L -4.62889,-355.976
 L -4.04507,-355.745 L -3.4369,-355.589 L -2.81395,-355.51 L 2.81395,-355.51 z
M 2.68895,-356.009 L 3.17912,-356.278 L 3.68712,-356.647 L 4.14484,-357.077 L 4.54507,-357.561 L 4.88153,-358.091
 L 5.14888,-358.659 L 5.34291,-359.257 L 5.46057,-359.873 L 5.5,-360.5 L 5.5,-363.5 L 5.46057,-364.127
 L 5.34291,-364.743 L 5.14888,-365.341 L 4.88153,-365.909 L 4.54507,-366.439 L 4.14484,-366.923 L 3.68712,-367.353
 L 3.17912,-367.722 L 2.62889,-368.024 L 2.04507,-368.255 L 1.4369,-368.411 L 0.81395,-368.49 L -2.81395,-368.49
 L -3.4369,-368.411 L -4.04507,-368.255 L -4.62889,-368.024 L -5.17912,-367.722 L -5.68712,-367.353 L -6.14484,-366.923
 L -6.54507,-366.439 L -6.88153,-365.909 L -7,-365.657 L -7,-388.343 L -6.88153,-388.091 L -6.54507,-387.561
 L -6.14484,-387.077 L -5.68712,-386.647 L -5.17912,-386.278 L -4.62889,-385.976 L -4.04507,-385.745 L -3.4369,-385.589
 L -2.81395,-385.51 L 0.81395,-385.51 L 1.4369,-385.589 L 2.04507,-385.745 L 2.62889,-385.976 L 3.17912,-386.278
 L 3.68712,-386.647 L 4.14484,-387.077 L 4.54507,-387.561 L 4.88153,-388.091 L 5.14888,-388.659 L 5.34291,-389.257
 L 5.46057,-389.873 L 5.5,-390.5 L 5.5,-393.5 L 5.46057,-394.127 L 5.34291,-394.743 L 5.14888,-395.341
 L 4.88153,-395.909 L 4.54507,-396.439 L 4.14484,-396.923 L 3.68712,-397.353 L 3.17912,-397.722 L 2.62889,-398.024
 L 2.04507,-398.255 L 1.4369,-398.411 L 0.81395,-398.49 L -2.81395,-398.49 L -3.4369,-398.411 L -4.04507,-398.255
 L -4.62889,-398.024 L -5.17912,-397.722 L -5.68712,-397.353 L -6.14484,-396.923 L -6.54507,-396.439 L -6.88153,-395.909
 L -6.98859,-395.681 L -6.96451,-396.064 L -6.85861,-396.619 L -6.68399,-397.157 L -6.44337,-397.668 L -6.14056,-398.145
 L -5.78035,-398.58 L -5.36839,-398.967 L -4.91121,-399.299 L -4.416,-399.572 L -3.89056,-399.78 L -3.3432,-399.92
 L -2.78255,-399.991 L 2.78255,-399.991 L 3.3432,-399.92 L 3.89056,-399.78 L 4.416,-399.572 L 4.91121,-399.299
 L 5.36839,-398.967 L 5.78035,-398.58 L 6.14056,-398.145 L 6.44337,-397.668 L 6.68399,-397.157 L 6.85861,-396.619
 L 6.96451,-396.064 L 7,-395.5 L 7,-360.5 L 6.96451,-359.936 L 6.85861,-359.381 L 6.68399,-358.843
 L 6.44337,-358.332 L 6.14056,-357.855 L 5.78035,-357.42 L 5.36839,-357.033 L 4.91121,-356.701 L 4.416,-356.428
 L 3.89056,-356.22 L 3.3432,-356.08 L 2.78255,-356.009 z
M -0.0941772,-391.503 L -0.281067,-391.527 L -0.463516,-391.573 L -0.638657,-391.643 L -0.803726,-391.734 L -0.956131,-391.844
 L -1.09344,-391.973 L -1.21352,-392.118 L -1.31445,-392.277 L -1.39465,-392.448 L -1.45287,-392.627 L -1.48816,-392.812
 L -1.5,-393 L -1.48816,-393.188 L -1.45287,-393.373 L -1.39465,-393.552 L -1.31445,-393.723 L -1.21352,-393.882
 L -1.09344,-394.027 L -0.956131,-394.156 L -0.803726,-394.266 L -0.638657,-394.357 L -0.463516,-394.427 L -0.281067,-394.473
 L -0.0941772,-394.497 L 0.0941772,-394.497 L 0.281067,-394.473 L 0.463516,-394.427 L 0.638657,-394.357 L 0.803726,-394.266
 L 0.956131,-394.156 L 1.09344,-394.027 L 1.21352,-393.882 L 1.31445,-393.723 L 1.39465,-393.552 L 1.45287,-393.373
 L 1.48816,-393.188 L 1.5,-393 L 1.48816,-392.812 L 1.45287,-392.627 L 1.39465,-392.448 L 1.31445,-392.277
 L 1.21352,-392.118 L 1.09344,-391.973 L 0.956131,-391.844 L 0.803726,-391.734 L 0.638657,-391.643 L 0.463516,-391.573
 L 0.281067,-391.527 L 0.0941772,-391.503 z
M -0.0941772,-361.503 L -0.281067,-361.527 L -0.463516,-361.573 L -0.638657,-361.643 L -0.803726,-361.734 L -0.956131,-361.844
 L -1.09344,-361.973 L -1.21352,-362.118 L -1.31445,-362.277 L -1.39465,-362.448 L -1.45287,-362.627 L -1.48816,-362.812
 L -1.5,-363 L -1.48816,-363.188 L -1.45287,-363.373 L -1.39465,-363.552 L -1.31445,-363.723 L -1.21352,-363.882
 L -1.09344,-364.027 L -0.956131,-364.156 L -0.803726,-364.266 L -0.638657,-364.357 L -0.463516,-364.427 L -0.281067,-364.473
 L -0.0941772,-364.497 L 0.0941772,-364.497 L 0.281067,-364.473 L 0.463516,-364.427 L 0.638657,-364.357 L 0.803726,-364.266
 L 0.956131,-364.156 L 1.09344,-364.027 L 1.21352,-363.882 L 1.31445,-363.723 L 1.39465,-363.552 L 1.45287,-363.373
 L 1.48816,-363.188 L 1.5,-363 L 1.48816,-362.812 L 1.45287,-362.627 L 1.39465,-362.448 L 1.31445,-362.277
 L 1.21352,-362.118 L 1.09344,-361.973 L 0.956131,-361.844 L 0.803726,-361.734 L 0.638657,-361.643 L 0.463516,-361.573
 L 0.281067,-361.527 L 0.0941772,-361.503 z
M 3.4369,-301.589 L 4.04507,-301.745 L 4.62889,-301.976 L 5.17912,-302.278 L 5.68712,-302.647 L 6.14484,-303.077
 L 6.54507,-303.561 L 6.88153,-304.091 L 7.14888,-304.659 L 7.34291,-305.257 L 7.46057,-305.873 L 7.5,-306.5
 L 7.5,-341.5 L 7.46057,-342.127 L 7.34291,-342.743 L 7.14888,-343.341 L 6.88153,-343.909 L 6.54507,-344.439
 L 6.14484,-344.923 L 5.68712,-345.353 L 5.17912,-345.722 L 4.62889,-346.024 L 4.04507,-346.255 L 3.4369,-346.411
 L 2.81395,-346.49 L -2.81395,-346.49 L -3.4369,-346.411 L -4.04507,-346.255 L -4.62889,-346.024 L -5.17912,-345.722
 L -5.68712,-345.353 L -6.14484,-344.923 L -6.54507,-344.439 L -6.88153,-343.909 L -7.14888,-343.341 L -7.34291,-342.743
 L -7.46057,-342.127 L -7.5,-341.5 L -7.5,-306.5 L -7.46057,-305.873 L -7.34291,-305.257 L -7.14888,-304.659
 L -6.88153,-304.091 L -6.54507,-303.561 L -6.14484,-303.077 L -5.68712,-302.647 L -5.17912,-302.278 L -4.62889,-301.976
 L -4.04507,-301.745 L -3.4369,-301.589 L -2.81395,-301.51 L 2.81395,-301.51 z
M 2.68895,-302.009 L 3.17912,-302.278 L 3.68712,-302.647 L 4.14484,-303.077 L 4.54507,-303.561 L 4.88153,-304.091
 L 5.14888,-304.659 L 5.34291,-305.257 L 5.46057,-305.873 L 5.5,-306.5 L 5.5,-309.5 L 5.46057,-310.127
 L 5.34291,-310.743 L 5.14888,-311.341 L 4.88153,-311.909 L 4.54507,-312.439 L 4.14484,-312.923 L 3.68712,-313.353
 L 3.17912,-313.722 L 2.62889,-314.024 L 2.04507,-314.255 L 1.4369,-314.411 L 0.81395,-314.49 L -2.81395,-314.49
 L -3.4369,-314.411 L -4.04507,-314.255 L -4.62889,-314.024 L -5.17912,-313.722 L -5.68712,-313.353 L -6.14484,-312.923
 L -6.54507,-312.439 L -6.88153,-311.909 L -7,-311.657 L -7,-334.343 L -6.88153,-334.091 L -6.54507,-333.561
 L -6.14484,-333.077 L -5.68712,-332.647 L -5.17912,-332.278 L -4.62889,-331.976 L -4.04507,-331.745 L -3.4369,-331.589
 L -2.81395,-331.51 L 0.81395,-331.51 L 1.4369,-331.589 L 2.04507,-331.745 L 2.62889,-331.976 L 3.17912,-332.278
 L 3.68712,-332.647 L 4.14484,-333.077 L 4.54507,-333.561 L 4.88153,-334.091 L 5.14888,-334.659 L 5.34291,-335.257
 L 5.46057,-335.873 L 5.5,-336.5 L 5.5,-339.5 L 5.46057,-340.127 L 5.34291,-340.743 L 5.14888,-341.341
 L 4.88153,-341.909 L 4.54507,-342.439 L 4.14484,-342.923 L 3.68712,-343.353 L 3.17912,-343.722 L 2.62889,-344.024
 L 2.04507,-344.255 L 1.4369,-344.411 L 0.81395,-344.49 L -2.81395,-344.49 L -3.4369,-344.411 L -4.04507,-344.255
 L -4.62889,-344.024 L -5.17912,-343.722 L -5.68712,-343.353 L -6.14484,-342.923 L -6.54507,-342.439 L -6.88153,-341.909
 L -6.98859,-341.681 L -6.96451,-342.064 L -6.85861,-342.619 L -6.68399,-343.157 L -6.44337,-343.668 L -6.14056,-344.145
 L -5.78035,-344.58 L -5.36839,-344.967 L -4.91121,-345.299 L -4.416,-345.572 L -3.89056,-345.78 L -3.3432,-345.92
 L -2.78255,-345.991 L 2.78255,-345.991 L 3.3432,-345.92 L 3.89056,-345.78 L 4.416,-345.572 L 4.91121,-345.299
 L 5.36839,-344.967 L 5.78035,-344.58 L 6.14056,-344.145 L 6.44337,-343.668 L 6.68399,-343.157 L 6.85861,-342.619
 L 6.96451,-342.064 L 7,-341.5 L 7,-306.5 L 6.96451,-305.936 L 6.85861,-305.381 L 6.68399,-304.843
 L 6.44337,-304.332 L 6.14056,-303.855 L 5.78035,-303.42 L 5.36839,-303.033 L 4.91121,-302.701 L 4.416,-302.428
 L 3.89056,-302.22 L 3.3432,-302.08 L 2.78255,-302.009 z
M -0.0941772,-337.503 L -0.281067,-337.527 L -0.463516,-337.573 L -0.638657,-337.643 L -0.803726,-337.734 L -0.956131,-337.844
 L -1.09344,-337.973 L -1.21352,-338.118 L -1.31445,-338.277 L -1.39465,-338.448 L -1.45287,-338.627 L -1.48816,-338.812
 L -1.5,-339 L -1.48816,-339.188 L -1.45287,-339.373 L -1.39465,-339.552 L -1.31445,-339.723 L -1.21352,-339.882
 L -1.09344,-340.027 L -0.956131,-340.156 L -0.803726,-340.266 L -0.638657,-340.357 L -0.463516,-340.427 L -0.281067,-340.473
 L -0.0941772,-340.497 L 0.0941772,-340.497 L 0.281067,-340.473 L 0.463516,-340.427 L 0.638657,-340.357 L 0.803726,-340.266
 L 0.956131,-340.156 L 1.09344,-340.027 L 1.21352,-339.882 L 1.31445,-339.723 L 1.39465,-339.552 L 1.45287,-339.373
 L 1.48816,-339.188 L 1.5,-339 L 1.48816,-338.812 L 1.45287,-338.627 L 1.39465,-338.448 L 1.31445,-338.277
 L 1.21352,-338.118 L 1.09344,-337.973 L 0.956131,-337.844 L 0.803726,-337.734 L 0.638657,-337.643 L 0.463516,-337.573
 L 0.281067,-337.527 L 0.0941772,-337.503 z
M -0.0941772,-307.503 L -0.281067,-307.527 L -0.463516,-307.573 L -0.638657,-307.643 L -0.803726,-307.734 L -0.956131,-307.844
 L -1.09344,-307.973 L -1.21352,-308.118 L -1.31445,-308.277 L -1.39465,-308.448 L -1.45287,-308.627 L -1.48816,-308.812
 L -1.5,-309 L -1.48816,-309.188 L -1.45287,-309.373 L -1.39465,-309.552 L -1.31445,-309.723 L -1.21352,-309.882
 L -1.09344,-310.027 L -0.956131,-310.156 L -0.803726,-310.266 L -0.638657,-310.357 L -0.463516,-310.427 L -0.281067,-310.473
 L -0.0941772,-310.497 L 0.0941772,-310.497 L 0.281067,-310.473 L 0.463516,-310.427 L 0.638657,-310.357 L 0.803726,-310.266
 L 0.956131,-310.156 L 1.09344,-310.027 L 1.21352,-309.882 L 1.31445,-309.723 L 1.39465,-309.552 L 1.45287,-309.373
 L 1.48816,-309.188 L 1.5,-309 L 1.48816,-308.812 L 1.45287,-308.627 L 1.39465,-308.448 L 1.31445,-308.277
 L 1.21352,-308.118 L 1.09344,-307.973 L 0.956131,-307.844 L 0.803726,-307.734 L 0.638657,-307.643 L 0.463516,-307.573
 L 0.281067,-307.527 L 0.0941772,-307.503 z
M 3.4369,-247.589 L 4.04507,-247.745 L 4.62889,-247.976 L 5.17912,-248.278 L 5.68712,-248.647 L 6.14484,-249.077
 L 6.54507,-249.561 L 6.88153,-250.091 L 7.14888,-250.659 L 7.34291,-251.257 L 7.46057,-251.873 L 7.5,-252.5
 L 7.5,-287.5 L 7.46057,-288.127 L 7.34291,-288.743 L 7.14888,-289.341 L 6.88153,-289.909 L 6.54507,-290.439
 L 6.14484,-290.923 L 5.68712,-291.353 L 5.17912,-291.722 L 4.62889,-292.024 L 4.04507,-292.255 L 3.4369,-292.411
 L 2.81395,-292.49 L -2.81395,-292.49 L -3.4369,-292.411 L -4.04507,-292.255 L -4.62889,-292.024 L -5.17912,-291.722
 L -5.68712,-291.353 L -6.14484,-290.923 L -6.54507,-290.439 L -6.88153,-289.909 L -7.14888,-289.341 L -7.34291,-288.743
 L -7.46057,-288.127 L -7.5,-287.5 L -7.5,-252.5 L -7.46057,-251.873 L -7.34291,-251.257 L -7.14888,-250.659
 L -6.88153,-250.091 L -6.54507,-249.561 L -6.14484,-249.077 L -5.68712,-248.647 L -5.17912,-248.278 L -4.62889,-247.976
 L -4.04507,-247.745 L -3.4369,-247.589 L -2.81395,-247.51 L 2.81395,-247.51 z
M 2.74606,-248.04 L 3.17912,-248.278 L 3.68712,-248.647 L 4.14484,-249.077 L 4.54507,-249.561 L 4.88153,-250.091
 L 5.14888,-250.659 L 5.34291,-251.257 L 5.46057,-251.873 L 5.5,-252.5 L 5.5,-255.5 L 5.46057,-256.127
 L 5.34291,-256.743 L 5.14888,-257.341 L 4.88153,-257.909 L 4.54507,-258.439 L 4.14484,-258.923 L 3.68712,-259.353
 L 3.17912,-259.722 L 2.62889,-260.024 L 2.04507,-260.255 L 1.4369,-260.411 L 0.81395,-260.49 L -2.81395,-260.49
 L -3.4369,-260.411 L -4.04507,-260.255 L -4.62889,-260.024 L -5.17912,-259.722 L -5.68712,-259.353 L -6.14484,-258.923
 L -6.54507,-258.439 L -6.88153,-257.909 L -6.96854,-257.724 L -6.96854,-280.276 L -6.88153,-280.091 L -6.54507,-279.561
 L -6.14484,-279.077 L -5.68712,-278.647 L -5.17912,-278.278 L -4.62889,-277.976 L -4.04507,-277.745 L -3.4369,-277.589
 L -2.81395,-277.51 L 0.81395,-277.51 L 1.4369,-277.589 L 2.04507,-277.745 L 2.62889,-277.976 L 3.17912,-278.278
 L 3.68712,-278.647 L 4.14484,-279.077 L 4.54507,-279.561 L 4.88153,-280.091 L 5.14888,-280.659 L 5.34291,-281.257
 L 5.46057,-281.873 L 5.5,-282.5 L 5.5,-285.5 L 5.46057,-286.127 L 5.34291,-286.743 L 5.14888,-287.341
 L 4.88153,-287.909 L 4.54507,-288.439 L 4.14484,-288.923 L 3.68712,-289.353 L 3.17912,-289.722 L 2.62889,-290.024
 L 2.04507,-290.255 L 1.4369,-290.411 L 0.81395,-290.49 L -2.81395,-290.49 L -3.4369,-290.411 L -4.04507,-290.255
 L -4.62889,-290.024 L -5.17912,-289.722 L -5.68712,-289.353 L -6.14484,-288.923 L -6.54507,-288.439 L -6.88153,-287.909
 L -6.95227,-287.758 L -6.9333,-288.06 L -6.82814,-288.611 L -6.65474,-289.145 L -6.4158,-289.653 L -6.11511,-290.127
 L -5.75742,-290.559 L -5.34834,-290.943 L -4.89436,-291.273 L -4.4026,-291.543 L -3.88084,-291.75 L -3.33731,-291.889
 L -2.78058,-291.96 L 2.78058,-291.96 L 3.33731,-291.889 L 3.88084,-291.75 L 4.4026,-291.543 L 4.89436,-291.273
 L 5.34834,-290.943 L 5.75742,-290.559 L 6.11511,-290.127 L 6.4158,-289.653 L 6.65474,-289.145 L 6.82814,-288.611
 L 6.9333,-288.06 L 6.96854,-287.5 L 6.96854,-252.5 L 6.9333,-251.94 L 6.82814,-251.389 L 6.65474,-250.855
 L 6.4158,-250.347 L 6.11511,-249.873 L 5.75742,-249.441 L 5.34834,-249.057 L 4.89436,-248.727 L 4.4026,-248.457
 L 3.88084,-248.25 L 3.33731,-248.111 L 2.78058,-248.04 z
M -0.0941772,-283.503 L -0.281067,-283.527 L -0.463516,-283.573 L -0.638657,-283.643 L -0.803726,-283.734 L -0.956131,-283.844
 L -1.09344,-283.973 L -1.21352,-284.118 L -1.31445,-284.277 L -1.39465,-284.448 L -1.45287,-284.627 L -1.48816,-284.812
 L -1.5,-285 L -1.48816,-285.188 L -1.45287,-285.373 L -1.39465,-285.552 L -1.31445,-285.723 L -1.21352,-285.882
 L -1.09344,-286.027 L -0.956131,-286.156 L -0.803726,-286.266 L -0.638657,-286.357 L -0.463516,-286.427 L -0.281067,-286.473
 L -0.0941772,-286.497 L 0.0941772,-286.497 L 0.281067,-286.473 L 0.463516,-286.427 L 0.638657,-286.357 L 0.803726,-286.266
 L 0.956131,-286.156 L 1.09344,-286.027 L 1.21352,-285.882 L 1.31445,-285.723 L 1.39465,-285.552 L 1.45287,-285.373
 L 1.48816,-285.188 L 1.5,-285 L 1.48816,-284.812 L 1.45287,-284.627 L 1.39465,-284.448 L 1.31445,-284.277
 L 1.21352,-284.118 L 1.09344,-283.973 L 0.956131,-283.844 L 0.803726,-283.734 L 0.638657,-283.643 L 0.463516,-283.573
 L 0.281067,-283.527 L 0.0941772,-283.503 z
M -0.0941772,-253.503 L -0.281067,-253.527 L -0.463516,-253.573 L -0.638657,-253.643 L -0.803726,-253.734 L -0.956131,-253.844
 L -1.09344,-253.973 L -1.21352,-254.118 L -1.31445,-254.277 L -1.39465,-254.448 L -1.45287,-254.627 L -1.48816,-254.812
 L -1.5,-255 L -1.48816,-255.188 L -1.45287,-255.373 L -1.39465,-255.552 L -1.31445,-255.723 L -1.21352,-255.882
 L -1.09344,-256.027 L -0.956131,-256.156 L -0.803726,-256.266 L -0.638657,-256.357 L -0.463516,-256.427 L -0.281067,-256.473
 L -0.0941772,-256.497 L 0.0941772,-256.497 L 0.281067,-256.473 L 0.463516,-256.427 L 0.638657,-256.357 L 0.803726,-256.266
 L 0.956131,-256.156 L 1.09344,-256.027 L 1.21352,-255.882 L 1.31445,-255.723 L 1.39465,-255.552 L 1.45287,-255.373
 L 1.48816,-255.188 L 1.5,-255 L 1.48816,-254.812 L 1.45287,-254.627 L 1.39465,-254.448 L 1.31445,-254.277
 L 1.21352,-254.118 L 1.09344,-253.973 L 0.956131,-253.844 L 0.803726,-253.734 L 0.638657,-253.643 L 0.463516,-253.573
 L 0.281067,-253.527 L 0.0941772,-253.503 z
M 3.4369,-193.589 L 4.04507,-193.745 L 4.62889,-193.976 L 5.17912,-194.278 L 5.68712,-194.647 L 6.14484,-195.077
 L 6.54507,-195.561 L 6.88153,-196.091 L 7.14888,-196.659 L 7.34291,-197.257 L 7.46057,-197.873 L 7.5,-198.5
 L 7.5,-233.5 L 7.46057,-234.127 L 7.34291,-234.743 L 7.14888,-235.341 L 6.88153,-235.909 L 6.54507,-236.439
 L 6.14484,-236.923 L 5.68712,-237.353 L 5.17912,-237.722 L 4.62889,-238.024 L 4.04507,-238.255 L 3.4369,-238.411
 L 2.81395,-238.49 L -2.81395,-238.49 L -3.4369,-238.411 L -4.04507,-238.255 L -4.62889,-238.024 L -5.17912,-237.722
 L -5.68712,-237.353 L -6.14484,-236.923 L -6.54507,-236.439 L -6.88153,-235.909 L -7.14888,-235.341 L -7.34291,-234.743
 L -7.46057,-234.127 L -7.5,-233.5 L -7.5,-198.5 L -7.46057,-197.873 L -7.34291,-197.257 L -7.14888,-196.659
 L -6.88153,-196.091 L -6.54507,-195.561 L -6.14484,-195.077 L -5.68712,-194.647 L -5.17912,-194.278 L -4.62889,-193.976
 L -4.04507,-193.745 L -3.4369,-193.589 L -2.81395,-193.51 L 2.81395,-193.51 z
M 5.14888,-233.341 L 4.88153,-233.909 L 4.54507,-234.439 L 4.14484,-234.923 L 3.68712,-235.353 L 3.17912,-235.722
 L 2.62889,-236.024 L 2.04507,-236.255 L 1.80142,-236.318 L 2.67728,-236.318 L 3.02905,-236.273 L 3.37247,-236.185
 L 3.70215,-236.055 L 4.01285,-235.884 L 4.2997,-235.675 L 4.55817,-235.433 L 4.78418,-235.16 L 4.97417,-234.86
 L 5.12514,-234.539 L 5.2347,-234.202 L 5.30115,-233.854 L 5.32341,-233.5 L 5.32341,-232.803 z
M -0.150696,-228.605 L -0.449707,-228.643 L -0.741638,-228.717 L -1.02187,-228.828 L -1.28598,-228.974 L -1.52982,-229.151
 L -1.74951,-229.357 L -1.94164,-229.589 L -2.10313,-229.844 L -2.23146,-230.117 L -2.32458,-230.403 L -2.38107,-230.699
 L -2.39999,-231 L -2.38107,-231.301 L -2.32458,-231.597 L -2.23146,-231.883 L -2.10313,-232.156 L -1.94164,-232.411
 L -1.74951,-232.643 L -1.52982,-232.849 L -1.28598,-233.026 L -1.02187,-233.172 L -0.741638,-233.283 L -0.449707,-233.357
 L -0.150696,-233.395 L 0.150696,-233.395 L 0.449707,-233.357 L 0.741638,-233.283 L 1.02187,-233.172 L 1.28598,-233.026
 L 1.52982,-232.849 L 1.74951,-232.643 L 1.94164,-232.411 L 2.10313,-232.156 L 2.23146,-231.883 L 2.32458,-231.597
 L 2.38107,-231.301 L 2.39999,-231 L 2.38107,-230.699 L 2.32458,-230.403 L 2.23146,-230.117 L 2.10313,-229.844
 L 1.94164,-229.589 L 1.74951,-229.357 L 1.52982,-229.151 L 1.28598,-228.974 L 1.02187,-228.828 L 0.741638,-228.717
 L 0.449707,-228.643 L 0.150696,-228.605 z
M 5.14888,-203.341 L 4.88153,-203.909 L 4.54507,-204.439 L 4.14484,-204.923 L 3.68712,-205.353 L 3.17912,-205.722
 L 2.62889,-206.024 L 2.04507,-206.255 L 1.4369,-206.411 L 0.81395,-206.49 L -2.81395,-206.49 L -3.4369,-206.411
 L -4.04507,-206.255 L -4.62889,-206.024 L -5.17912,-205.722 L -5.32341,-205.617 L -5.32341,-224.383 L -5.17912,-224.278
 L -4.62889,-223.976 L -4.04507,-223.745 L -3.4369,-223.589 L -2.81395,-223.51 L 0.81395,-223.51 L 1.4369,-223.589
 L 2.04507,-223.745 L 2.62889,-223.976 L 3.17912,-224.278 L 3.68712,-224.647 L 4.14484,-225.077 L 4.54507,-225.561
 L 4.88153,-226.091 L 5.14888,-226.659 L 5.32341,-227.197 L 5.32341,-202.803 z
M -0.150696,-198.605 L -0.449707,-198.643 L -0.741638,-198.717 L -1.02187,-198.828 L -1.28598,-198.974 L -1.52982,-199.151
 L -1.74951,-199.357 L -1.94164,-199.589 L -2.10313,-199.844 L -2.23146,-200.117 L -2.32458,-200.403 L -2.38107,-200.699
 L -2.39999,-201 L -2.38107,-201.301 L -2.32458,-201.597 L -2.23146,-201.883 L -2.10313,-202.156 L -1.94164,-202.411
 L -1.74951,-202.643 L -1.52982,-202.849 L -1.28598,-203.026 L -1.02187,-203.172 L -0.741638,-203.283 L -0.449707,-203.357
 L -0.150696,-203.395 L 0.150696,-203.395 L 0.449707,-203.357 L 0.741638,-203.283 L 1.02187,-203.172 L 1.28598,-203.026
 L 1.52982,-202.849 L 1.74951,-202.643 L 1.94164,-202.411 L 2.10313,-202.156 L 2.23146,-201.883 L 2.32458,-201.597
 L 2.38107,-201.301 L 2.39999,-201 L 2.38107,-200.699 L 2.32458,-200.403 L 2.23146,-200.117 L 2.10313,-199.844
 L 1.94164,-199.589 L 1.74951,-199.357 L 1.52982,-199.151 L 1.28598,-198.974 L 1.02187,-198.828 L 0.741638,-198.717
 L 0.449707,-198.643 L 0.150696,-198.605 z
" stroke="black" fill="lightgray" stroke-width="0.5"/>
</svg>
