solid OpenSCAD_Model
  facet normal -1 0 0
    outer loop
      vertex -7 0 -6
      vertex -7 2.83 6
      vertex -7 2.83 -6
    endloop
  endfacet
  facet normal -1 -0 0
    outer loop
      vertex -7 2.83 6
      vertex -7 0 -6
      vertex -7 0 6
    endloop
  endfacet
  facet normal -1 0 0
    outer loop
      vertex -7 9 -6
      vertex -7 15.5 6
      vertex -7 15.5 -6
    endloop
  endfacet
  facet normal -1 -0 0
    outer loop
      vertex -7 15.5 6
      vertex -7 9 -6
      vertex -7 9 6
    endloop
  endfacet
  facet normal -0.998027 0.0627927 0
    outer loop
      vertex -7 15.5 -6
      vertex -6.96057 16.1267 6
      vertex -6.96057 16.1267 -6
    endloop
  endfacet
  facet normal -0.998027 0.0627927 0
    outer loop
      vertex -6.96057 16.1267 6
      vertex -7 15.5 -6
      vertex -7 15.5 6
    endloop
  endfacet
  facet normal -0 0 1
    outer loop
      vertex -1.5 17 6
      vertex 1.5 13 6
      vertex 1.5 17 6
    endloop
  endfacet
  facet normal 0 0 1
    outer loop
      vertex 1.5 13 6
      vertex -1.5 17 6
      vertex -1.5 13 6
    endloop
  endfacet
  facet normal 0 0 1
    outer loop
      vertex 6.96057 16.1267 6
      vertex 1.5 17 6
      vertex 7 15.5 6
    endloop
  endfacet
  facet normal 0 0 1
    outer loop
      vertex 2.31395 20.4901 6
      vertex -1.5 18 6
      vertex 1.5 18 6
    endloop
  endfacet
  facet normal 0 0 1
    outer loop
      vertex -5.18712 19.3526 6
      vertex -1.5 17 6
      vertex -1.5 18 6
    endloop
  endfacet
  facet normal 0 0 1
    outer loop
      vertex -1.5 17 6
      vertex -7 15.5 6
      vertex -1.5 13 6
    endloop
  endfacet
  facet normal -0 0 1
    outer loop
      vertex -2.93691 20.4114 6
      vertex -1.5 18 6
      vertex -2.31395 20.4901 6
    endloop
  endfacet
  facet normal -0 0 1
    outer loop
      vertex -2.31395 20.4901 6
      vertex -1.5 18 6
      vertex 2.31395 20.4901 6
    endloop
  endfacet
  facet normal 0 0 1
    outer loop
      vertex 6.64888 17.3406 6
      vertex 1.5 17 6
      vertex 6.84292 16.7435 6
    endloop
  endfacet
  facet normal 0 0 1
    outer loop
      vertex 6.38153 17.9088 6
      vertex 1.5 17 6
      vertex 6.64888 17.3406 6
    endloop
  endfacet
  facet normal 0 0 1
    outer loop
      vertex 6.04508 18.4389 6
      vertex 1.5 17 6
      vertex 6.38153 17.9088 6
    endloop
  endfacet
  facet normal 0 0 1
    outer loop
      vertex 5.64484 18.9227 6
      vertex 1.5 17 6
      vertex 6.04508 18.4389 6
    endloop
  endfacet
  facet normal 0 0 1
    outer loop
      vertex 5.18712 19.3526 6
      vertex 1.5 17 6
      vertex 5.64484 18.9227 6
    endloop
  endfacet
  facet normal 0 0 1
    outer loop
      vertex 1.5 17 6
      vertex 5.18712 19.3526 6
      vertex 1.5 18 6
    endloop
  endfacet
  facet normal 0 0 1
    outer loop
      vertex 4.67913 19.7216 6
      vertex 1.5 18 6
      vertex 5.18712 19.3526 6
    endloop
  endfacet
  facet normal 0 0 1
    outer loop
      vertex 4.1289 20.0241 6
      vertex 1.5 18 6
      vertex 4.67913 19.7216 6
    endloop
  endfacet
  facet normal 0 0 1
    outer loop
      vertex 3.54508 20.2553 6
      vertex 1.5 18 6
      vertex 4.1289 20.0241 6
    endloop
  endfacet
  facet normal 0 0 1
    outer loop
      vertex 2.93691 20.4114 6
      vertex 1.5 18 6
      vertex 3.54508 20.2553 6
    endloop
  endfacet
  facet normal 0 0 1
    outer loop
      vertex 1.5 18 6
      vertex 2.93691 20.4114 6
      vertex 2.31395 20.4901 6
    endloop
  endfacet
  facet normal 0 0 1
    outer loop
      vertex 6.84292 16.7435 6
      vertex 1.5 17 6
      vertex 6.96057 16.1267 6
    endloop
  endfacet
  facet normal 0 0 1
    outer loop
      vertex 7 15.5 6
      vertex 2.12305 9 6
      vertex 7 0 6
    endloop
  endfacet
  facet normal -0 0 1
    outer loop
      vertex 2.12305 2.83 6
      vertex 7 0 6
      vertex 2.12305 9 6
    endloop
  endfacet
  facet normal 0 0 1
    outer loop
      vertex -7 0 6
      vertex 2.12305 2.83 6
      vertex -7 2.83 6
    endloop
  endfacet
  facet normal 0 0 1
    outer loop
      vertex 2.12305 2.83 6
      vertex -7 0 6
      vertex 7 0 6
    endloop
  endfacet
  facet normal 0 0 1
    outer loop
      vertex 1.5 13 6
      vertex 7 15.5 6
      vertex 1.5 17 6
    endloop
  endfacet
  facet normal 0 0 1
    outer loop
      vertex 1.5 12 6
      vertex 7 15.5 6
      vertex 1.5 13 6
    endloop
  endfacet
  facet normal 0 0 1
    outer loop
      vertex 7 15.5 6
      vertex 1.5 12 6
      vertex 2.12305 9 6
    endloop
  endfacet
  facet normal -0 0 1
    outer loop
      vertex -1.5 12 6
      vertex 2.12305 9 6
      vertex 1.5 12 6
    endloop
  endfacet
  facet normal -0 0 1
    outer loop
      vertex -3.54508 20.2553 6
      vertex -1.5 18 6
      vertex -2.93691 20.4114 6
    endloop
  endfacet
  facet normal -0 0 1
    outer loop
      vertex -4.1289 20.0241 6
      vertex -1.5 18 6
      vertex -3.54508 20.2553 6
    endloop
  endfacet
  facet normal -0 0 1
    outer loop
      vertex -4.67913 19.7216 6
      vertex -1.5 18 6
      vertex -4.1289 20.0241 6
    endloop
  endfacet
  facet normal -0 0 1
    outer loop
      vertex -5.18712 19.3526 6
      vertex -1.5 18 6
      vertex -4.67913 19.7216 6
    endloop
  endfacet
  facet normal 0 0 1
    outer loop
      vertex -1.5 17 6
      vertex -5.18712 19.3526 6
      vertex -5.64484 18.9227 6
    endloop
  endfacet
  facet normal 0 0 1
    outer loop
      vertex -1.5 17 6
      vertex -5.64484 18.9227 6
      vertex -6.04508 18.4389 6
    endloop
  endfacet
  facet normal 0 0 1
    outer loop
      vertex -1.5 17 6
      vertex -6.04508 18.4389 6
      vertex -6.38153 17.9088 6
    endloop
  endfacet
  facet normal 0 0 1
    outer loop
      vertex -1.5 17 6
      vertex -6.38153 17.9088 6
      vertex -6.64888 17.3406 6
    endloop
  endfacet
  facet normal 0 0 1
    outer loop
      vertex -1.5 17 6
      vertex -6.64888 17.3406 6
      vertex -6.84292 16.7435 6
    endloop
  endfacet
  facet normal 0 0 1
    outer loop
      vertex -1.5 17 6
      vertex -6.84292 16.7435 6
      vertex -6.96057 16.1267 6
    endloop
  endfacet
  facet normal 0 0 1
    outer loop
      vertex -1.5 17 6
      vertex -6.96057 16.1267 6
      vertex -7 15.5 6
    endloop
  endfacet
  facet normal 0 0 1
    outer loop
      vertex -1.5 13 6
      vertex -7 15.5 6
      vertex -1.5 12 6
    endloop
  endfacet
  facet normal 0 0 1
    outer loop
      vertex -7 9 6
      vertex -1.5 12 6
      vertex -7 15.5 6
    endloop
  endfacet
  facet normal 0 0 1
    outer loop
      vertex -1.5 12 6
      vertex -7 9 6
      vertex 2.12305 9 6
    endloop
  endfacet
  facet normal -0.125336 0.992114 0
    outer loop
      vertex -2.31395 20.4901 -6
      vertex -2.93691 20.4114 6
      vertex -2.31395 20.4901 6
    endloop
  endfacet
  facet normal -0.125336 0.992114 0
    outer loop
      vertex -2.93691 20.4114 6
      vertex -2.31395 20.4901 -6
      vertex -2.93691 20.4114 -6
    endloop
  endfacet
  facet normal 1 -0 0
    outer loop
      vertex 7 0 6
      vertex 7 15.5 -6
      vertex 7 15.5 6
    endloop
  endfacet
  facet normal 1 0 0
    outer loop
      vertex 7 15.5 -6
      vertex 7 0 6
      vertex 7 0 -6
    endloop
  endfacet
  facet normal -0.770509 0.63743 0
    outer loop
      vertex -6.04508 18.4389 -6
      vertex -5.64484 18.9227 6
      vertex -5.64484 18.9227 -6
    endloop
  endfacet
  facet normal -0.770509 0.63743 0
    outer loop
      vertex -5.64484 18.9227 6
      vertex -6.04508 18.4389 -6
      vertex -6.04508 18.4389 6
    endloop
  endfacet
  facet normal 0.125336 0.992114 -0
    outer loop
      vertex 2.93691 20.4114 -6
      vertex 2.31395 20.4901 6
      vertex 2.93691 20.4114 6
    endloop
  endfacet
  facet normal 0.125336 0.992114 0
    outer loop
      vertex 2.31395 20.4901 6
      vertex 2.93691 20.4114 -6
      vertex 2.31395 20.4901 -6
    endloop
  endfacet
  facet normal -0.951042 0.309061 0
    outer loop
      vertex -6.84292 16.7435 -6
      vertex -6.64888 17.3406 6
      vertex -6.64888 17.3406 -6
    endloop
  endfacet
  facet normal -0.951042 0.309061 0
    outer loop
      vertex -6.64888 17.3406 6
      vertex -6.84292 16.7435 -6
      vertex -6.84292 16.7435 6
    endloop
  endfacet
  facet normal -0.8443 0.53587 0
    outer loop
      vertex -6.38153 17.9088 -6
      vertex -6.04508 18.4389 6
      vertex -6.04508 18.4389 -6
    endloop
  endfacet
  facet normal -0.8443 0.53587 0
    outer loop
      vertex -6.04508 18.4389 6
      vertex -6.38153 17.9088 -6
      vertex -6.38153 17.9088 6
    endloop
  endfacet
  facet normal -0.368192 0.92975 0
    outer loop
      vertex -3.54508 20.2553 -6
      vertex -4.1289 20.0241 6
      vertex -3.54508 20.2553 6
    endloop
  endfacet
  facet normal -0.368192 0.92975 0
    outer loop
      vertex -4.1289 20.0241 6
      vertex -3.54508 20.2553 -6
      vertex -4.1289 20.0241 -6
    endloop
  endfacet
  facet normal -0.684608 0.728911 0
    outer loop
      vertex -5.18712 19.3526 -6
      vertex -5.64484 18.9227 6
      vertex -5.18712 19.3526 6
    endloop
  endfacet
  facet normal -0.684608 0.728911 0
    outer loop
      vertex -5.64484 18.9227 6
      vertex -5.18712 19.3526 -6
      vertex -5.64484 18.9227 -6
    endloop
  endfacet
  facet normal -0.481764 0.876301 0
    outer loop
      vertex -4.1289 20.0241 -6
      vertex -4.67913 19.7216 6
      vertex -4.1289 20.0241 6
    endloop
  endfacet
  facet normal -0.481764 0.876301 0
    outer loop
      vertex -4.67913 19.7216 6
      vertex -4.1289 20.0241 -6
      vertex -4.67913 19.7216 -6
    endloop
  endfacet
  facet normal 0.368192 0.92975 -0
    outer loop
      vertex 4.1289 20.0241 -6
      vertex 3.54508 20.2553 6
      vertex 4.1289 20.0241 6
    endloop
  endfacet
  facet normal 0.368192 0.92975 0
    outer loop
      vertex 3.54508 20.2553 6
      vertex 4.1289 20.0241 -6
      vertex 3.54508 20.2553 -6
    endloop
  endfacet
  facet normal -0.98229 0.187365 0
    outer loop
      vertex -6.96057 16.1267 -6
      vertex -6.84292 16.7435 6
      vertex -6.84292 16.7435 -6
    endloop
  endfacet
  facet normal -0.98229 0.187365 0
    outer loop
      vertex -6.84292 16.7435 6
      vertex -6.96057 16.1267 -6
      vertex -6.96057 16.1267 6
    endloop
  endfacet
  facet normal -0.904842 0.425747 0
    outer loop
      vertex -6.64888 17.3406 -6
      vertex -6.38153 17.9088 6
      vertex -6.38153 17.9088 -6
    endloop
  endfacet
  facet normal -0.904842 0.425747 0
    outer loop
      vertex -6.38153 17.9088 6
      vertex -6.64888 17.3406 -6
      vertex -6.64888 17.3406 6
    endloop
  endfacet
  facet normal -0.248613 0.968603 0
    outer loop
      vertex -2.93691 20.4114 -6
      vertex -3.54508 20.2553 6
      vertex -2.93691 20.4114 6
    endloop
  endfacet
  facet normal -0.248613 0.968603 0
    outer loop
      vertex -3.54508 20.2553 6
      vertex -2.93691 20.4114 -6
      vertex -3.54508 20.2553 -6
    endloop
  endfacet
  facet normal 0.998027 0.0627927 0
    outer loop
      vertex 7 15.5 6
      vertex 6.96057 16.1267 -6
      vertex 6.96057 16.1267 6
    endloop
  endfacet
  facet normal 0.998027 0.0627927 0
    outer loop
      vertex 6.96057 16.1267 -6
      vertex 7 15.5 6
      vertex 7 15.5 -6
    endloop
  endfacet
  facet normal 0 1 -0
    outer loop
      vertex 2.31395 20.4901 -6
      vertex -2.31395 20.4901 6
      vertex 2.31395 20.4901 6
    endloop
  endfacet
  facet normal 0 1 0
    outer loop
      vertex -2.31395 20.4901 6
      vertex 2.31395 20.4901 -6
      vertex -2.31395 20.4901 -6
    endloop
  endfacet
  facet normal 0 0 -1
    outer loop
      vertex -1.5 13 -6
      vertex 1.5 17 -6
      vertex 1.5 13 -6
    endloop
  endfacet
  facet normal -0 0 -1
    outer loop
      vertex 1.5 17 -6
      vertex -1.5 13 -6
      vertex -1.5 17 -6
    endloop
  endfacet
  facet normal 0 0 -1
    outer loop
      vertex 2.12305 9 -6
      vertex -1.5 12 -6
      vertex 1.5 12 -6
    endloop
  endfacet
  facet normal 0 0 -1
    outer loop
      vertex -7 15.5 -6
      vertex -1.5 13 -6
      vertex -1.5 12 -6
    endloop
  endfacet
  facet normal 0 0 -1
    outer loop
      vertex -1.5 13 -6
      vertex -7 15.5 -6
      vertex -1.5 17 -6
    endloop
  endfacet
  facet normal 0 -0 -1
    outer loop
      vertex -6.96057 16.1267 -6
      vertex -1.5 17 -6
      vertex -7 15.5 -6
    endloop
  endfacet
  facet normal 0 0 -1
    outer loop
      vertex -1.5 18 -6
      vertex -2.93691 20.4114 -6
      vertex -2.31395 20.4901 -6
    endloop
  endfacet
  facet normal 0 0 -1
    outer loop
      vertex -1.5 18 -6
      vertex -3.54508 20.2553 -6
      vertex -2.93691 20.4114 -6
    endloop
  endfacet
  facet normal 0 0 -1
    outer loop
      vertex -1.5 18 -6
      vertex -4.1289 20.0241 -6
      vertex -3.54508 20.2553 -6
    endloop
  endfacet
  facet normal 0 0 -1
    outer loop
      vertex -1.5 18 -6
      vertex -4.67913 19.7216 -6
      vertex -4.1289 20.0241 -6
    endloop
  endfacet
  facet normal 0 0 -1
    outer loop
      vertex -1.5 18 -6
      vertex -5.18712 19.3526 -6
      vertex -4.67913 19.7216 -6
    endloop
  endfacet
  facet normal 0 0 -1
    outer loop
      vertex -1.5 17 -6
      vertex -5.18712 19.3526 -6
      vertex -1.5 18 -6
    endloop
  endfacet
  facet normal 0 -0 -1
    outer loop
      vertex -5.18712 19.3526 -6
      vertex -1.5 17 -6
      vertex -5.64484 18.9227 -6
    endloop
  endfacet
  facet normal 0 -0 -1
    outer loop
      vertex -5.64484 18.9227 -6
      vertex -1.5 17 -6
      vertex -6.04508 18.4389 -6
    endloop
  endfacet
  facet normal 0 -0 -1
    outer loop
      vertex -6.04508 18.4389 -6
      vertex -1.5 17 -6
      vertex -6.38153 17.9088 -6
    endloop
  endfacet
  facet normal 0 -0 -1
    outer loop
      vertex -6.38153 17.9088 -6
      vertex -1.5 17 -6
      vertex -6.64888 17.3406 -6
    endloop
  endfacet
  facet normal 0 -0 -1
    outer loop
      vertex -6.64888 17.3406 -6
      vertex -1.5 17 -6
      vertex -6.84292 16.7435 -6
    endloop
  endfacet
  facet normal 0 0 -1
    outer loop
      vertex -7 9 -6
      vertex -1.5 12 -6
      vertex 2.12305 9 -6
    endloop
  endfacet
  facet normal -0 0 -1
    outer loop
      vertex -1.5 12 -6
      vertex -7 9 -6
      vertex -7 15.5 -6
    endloop
  endfacet
  facet normal 0 -0 -1
    outer loop
      vertex -6.84292 16.7435 -6
      vertex -1.5 17 -6
      vertex -6.96057 16.1267 -6
    endloop
  endfacet
  facet normal 0 0 -1
    outer loop
      vertex 2.12305 9 -6
      vertex 7 15.5 -6
      vertex 7 0 -6
    endloop
  endfacet
  facet normal 0 0 -1
    outer loop
      vertex 1.5 12 -6
      vertex 7 15.5 -6
      vertex 2.12305 9 -6
    endloop
  endfacet
  facet normal 0 0 -1
    outer loop
      vertex 1.5 13 -6
      vertex 7 15.5 -6
      vertex 1.5 12 -6
    endloop
  endfacet
  facet normal 0 0 -1
    outer loop
      vertex 1.5 17 -6
      vertex 7 15.5 -6
      vertex 1.5 13 -6
    endloop
  endfacet
  facet normal 0 0 -1
    outer loop
      vertex 7 15.5 -6
      vertex 1.5 17 -6
      vertex 6.96057 16.1267 -6
    endloop
  endfacet
  facet normal 0 0 -1
    outer loop
      vertex 6.96057 16.1267 -6
      vertex 1.5 17 -6
      vertex 6.84292 16.7435 -6
    endloop
  endfacet
  facet normal 0 0 -1
    outer loop
      vertex 6.84292 16.7435 -6
      vertex 1.5 17 -6
      vertex 6.64888 17.3406 -6
    endloop
  endfacet
  facet normal -0 0 -1
    outer loop
      vertex 6.64888 17.3406 -6
      vertex 1.5 17 -6
      vertex 6.38153 17.9088 -6
    endloop
  endfacet
  facet normal -0 0 -1
    outer loop
      vertex 6.38153 17.9088 -6
      vertex 1.5 17 -6
      vertex 6.04508 18.4389 -6
    endloop
  endfacet
  facet normal -0 0 -1
    outer loop
      vertex 5.64484 18.9227 -6
      vertex 1.5 17 -6
      vertex 5.18712 19.3526 -6
    endloop
  endfacet
  facet normal 0 0 -1
    outer loop
      vertex 1.5 18 -6
      vertex 5.18712 19.3526 -6
      vertex 1.5 17 -6
    endloop
  endfacet
  facet normal -0 0 -1
    outer loop
      vertex 5.18712 19.3526 -6
      vertex 1.5 18 -6
      vertex 4.67913 19.7216 -6
    endloop
  endfacet
  facet normal 0 0 -1
    outer loop
      vertex 2.12305 9 -6
      vertex 7 0 -6
      vertex 2.12305 2.83 -6
    endloop
  endfacet
  facet normal 0 0 -1
    outer loop
      vertex -7 0 -6
      vertex 2.12305 2.83 -6
      vertex 7 0 -6
    endloop
  endfacet
  facet normal -0 0 -1
    outer loop
      vertex 2.12305 2.83 -6
      vertex -7 0 -6
      vertex -7 2.83 -6
    endloop
  endfacet
  facet normal -0 0 -1
    outer loop
      vertex 4.67913 19.7216 -6
      vertex 1.5 18 -6
      vertex 4.1289 20.0241 -6
    endloop
  endfacet
  facet normal -0 0 -1
    outer loop
      vertex 6.04508 18.4389 -6
      vertex 1.5 17 -6
      vertex 5.64484 18.9227 -6
    endloop
  endfacet
  facet normal -0 0 -1
    outer loop
      vertex 4.1289 20.0241 -6
      vertex 1.5 18 -6
      vertex 3.54508 20.2553 -6
    endloop
  endfacet
  facet normal -0 0 -1
    outer loop
      vertex 3.54508 20.2553 -6
      vertex 1.5 18 -6
      vertex 2.93691 20.4114 -6
    endloop
  endfacet
  facet normal -0 0 -1
    outer loop
      vertex 2.93691 20.4114 -6
      vertex 1.5 18 -6
      vertex 2.31395 20.4901 -6
    endloop
  endfacet
  facet normal 0 0 -1
    outer loop
      vertex -1.5 18 -6
      vertex 2.31395 20.4901 -6
      vertex 1.5 18 -6
    endloop
  endfacet
  facet normal -0 0 -1
    outer loop
      vertex 2.31395 20.4901 -6
      vertex -1.5 18 -6
      vertex -2.31395 20.4901 -6
    endloop
  endfacet
  facet normal -0.587706 0.809075 0
    outer loop
      vertex -4.67913 19.7216 -6
      vertex -5.18712 19.3526 6
      vertex -4.67913 19.7216 6
    endloop
  endfacet
  facet normal -0.587706 0.809075 0
    outer loop
      vertex -5.18712 19.3526 6
      vertex -4.67913 19.7216 -6
      vertex -5.18712 19.3526 -6
    endloop
  endfacet
  facet normal 0.98229 0.187365 0
    outer loop
      vertex 6.96057 16.1267 6
      vertex 6.84292 16.7435 -6
      vertex 6.84292 16.7435 6
    endloop
  endfacet
  facet normal 0.98229 0.187365 0
    outer loop
      vertex 6.84292 16.7435 -6
      vertex 6.96057 16.1267 6
      vertex 6.96057 16.1267 -6
    endloop
  endfacet
  facet normal 0.951042 0.309061 0
    outer loop
      vertex 6.84292 16.7435 6
      vertex 6.64888 17.3406 -6
      vertex 6.64888 17.3406 6
    endloop
  endfacet
  facet normal 0.951042 0.309061 0
    outer loop
      vertex 6.64888 17.3406 -6
      vertex 6.84292 16.7435 6
      vertex 6.84292 16.7435 -6
    endloop
  endfacet
  facet normal 0.904842 0.425747 0
    outer loop
      vertex 6.64888 17.3406 6
      vertex 6.38153 17.9088 -6
      vertex 6.38153 17.9088 6
    endloop
  endfacet
  facet normal 0.904842 0.425747 0
    outer loop
      vertex 6.38153 17.9088 -6
      vertex 6.64888 17.3406 6
      vertex 6.64888 17.3406 -6
    endloop
  endfacet
  facet normal 0.8443 0.53587 0
    outer loop
      vertex 6.38153 17.9088 6
      vertex 6.04508 18.4389 -6
      vertex 6.04508 18.4389 6
    endloop
  endfacet
  facet normal 0.8443 0.53587 0
    outer loop
      vertex 6.04508 18.4389 -6
      vertex 6.38153 17.9088 6
      vertex 6.38153 17.9088 -6
    endloop
  endfacet
  facet normal 0.684608 0.728911 -0
    outer loop
      vertex 5.64484 18.9227 -6
      vertex 5.18712 19.3526 6
      vertex 5.64484 18.9227 6
    endloop
  endfacet
  facet normal 0.684608 0.728911 0
    outer loop
      vertex 5.18712 19.3526 6
      vertex 5.64484 18.9227 -6
      vertex 5.18712 19.3526 -6
    endloop
  endfacet
  facet normal 0.770509 0.63743 0
    outer loop
      vertex 6.04508 18.4389 6
      vertex 5.64484 18.9227 -6
      vertex 5.64484 18.9227 6
    endloop
  endfacet
  facet normal 0.770509 0.63743 0
    outer loop
      vertex 5.64484 18.9227 -6
      vertex 6.04508 18.4389 6
      vertex 6.04508 18.4389 -6
    endloop
  endfacet
  facet normal 0.248613 0.968603 -0
    outer loop
      vertex 3.54508 20.2553 -6
      vertex 2.93691 20.4114 6
      vertex 3.54508 20.2553 6
    endloop
  endfacet
  facet normal 0.248613 0.968603 0
    outer loop
      vertex 2.93691 20.4114 6
      vertex 3.54508 20.2553 -6
      vertex 2.93691 20.4114 -6
    endloop
  endfacet
  facet normal 0.481764 0.876301 -0
    outer loop
      vertex 4.67913 19.7216 -6
      vertex 4.1289 20.0241 6
      vertex 4.67913 19.7216 6
    endloop
  endfacet
  facet normal 0.481764 0.876301 0
    outer loop
      vertex 4.1289 20.0241 6
      vertex 4.67913 19.7216 -6
      vertex 4.1289 20.0241 -6
    endloop
  endfacet
  facet normal 0.587706 0.809075 -0
    outer loop
      vertex 5.18712 19.3526 -6
      vertex 4.67913 19.7216 6
      vertex 5.18712 19.3526 6
    endloop
  endfacet
  facet normal 0.587706 0.809075 0
    outer loop
      vertex 4.67913 19.7216 6
      vertex 5.18712 19.3526 -6
      vertex 4.67913 19.7216 -6
    endloop
  endfacet
  facet normal 0 -1 0
    outer loop
      vertex -7 0 6
      vertex -0.188371 0 2.99408
      vertex 7 0 6
    endloop
  endfacet
  facet normal 0 -1 0
    outer loop
      vertex -7 0 6
      vertex -0.562143 0 2.94686
      vertex -0.188371 0 2.99408
    endloop
  endfacet
  facet normal 0 -1 0
    outer loop
      vertex -7 0 6
      vertex -0.927051 0 2.85317
      vertex -0.562143 0 2.94686
    endloop
  endfacet
  facet normal 0 -1 0
    outer loop
      vertex -7 0 6
      vertex -1.27734 0 2.71448
      vertex -0.927051 0 2.85317
    endloop
  endfacet
  facet normal 0 -1 0
    outer loop
      vertex -7 0 6
      vertex -1.60748 0 2.53298
      vertex -1.27734 0 2.71448
    endloop
  endfacet
  facet normal 0 -1 0
    outer loop
      vertex -7 0 6
      vertex -1.91227 0 2.31154
      vertex -1.60748 0 2.53298
    endloop
  endfacet
  facet normal 0 -1 0
    outer loop
      vertex -7 0 6
      vertex -2.18691 0 2.05364
      vertex -1.91227 0 2.31154
    endloop
  endfacet
  facet normal 0 -1 0
    outer loop
      vertex -7 0 6
      vertex -2.42705 0 1.76336
      vertex -2.18691 0 2.05364
    endloop
  endfacet
  facet normal 0 -1 0
    outer loop
      vertex -7 0 6
      vertex -2.62892 0 1.44526
      vertex -2.42705 0 1.76336
    endloop
  endfacet
  facet normal 0 -1 0
    outer loop
      vertex -7 0 6
      vertex -2.78933 0 1.10437
      vertex -2.62892 0 1.44526
    endloop
  endfacet
  facet normal 0 -1 0
    outer loop
      vertex -7 0 6
      vertex -2.90575 0 0.746069
      vertex -2.78933 0 1.10437
    endloop
  endfacet
  facet normal 0 -1 0
    outer loop
      vertex -7 0 6
      vertex -2.97634 0 0.375999
      vertex -2.90575 0 0.746069
    endloop
  endfacet
  facet normal 0 -1 0
    outer loop
      vertex -7 0 6
      vertex -3 0 0
      vertex -2.97634 0 0.375999
    endloop
  endfacet
  facet normal 0 -1 0
    outer loop
      vertex -7 0 -6
      vertex -3 0 0
      vertex -7 0 6
    endloop
  endfacet
  facet normal 0 -1 -0
    outer loop
      vertex -3 0 0
      vertex -7 0 -6
      vertex -2.97634 0 -0.375999
    endloop
  endfacet
  facet normal 0 -1 -0
    outer loop
      vertex -2.97634 0 -0.375999
      vertex -7 0 -6
      vertex -2.90575 0 -0.746069
    endloop
  endfacet
  facet normal 0 -1 -0
    outer loop
      vertex -2.90575 0 -0.746069
      vertex -7 0 -6
      vertex -2.78933 0 -1.10437
    endloop
  endfacet
  facet normal 0 -1 -0
    outer loop
      vertex -0.188371 0 -2.99408
      vertex -7 0 -6
      vertex 0.188371 0 -2.99408
    endloop
  endfacet
  facet normal 0 -1 -0
    outer loop
      vertex -0.562143 0 -2.94686
      vertex -7 0 -6
      vertex -0.188371 0 -2.99408
    endloop
  endfacet
  facet normal 0 -1 -0
    outer loop
      vertex -0.927051 0 -2.85317
      vertex -7 0 -6
      vertex -0.562143 0 -2.94686
    endloop
  endfacet
  facet normal 0 -1 -0
    outer loop
      vertex -1.27734 0 -2.71448
      vertex -7 0 -6
      vertex -0.927051 0 -2.85317
    endloop
  endfacet
  facet normal 0 -1 -0
    outer loop
      vertex -1.60748 0 -2.53298
      vertex -7 0 -6
      vertex -1.27734 0 -2.71448
    endloop
  endfacet
  facet normal 0 -1 -0
    outer loop
      vertex -1.91227 0 -2.31154
      vertex -7 0 -6
      vertex -1.60748 0 -2.53298
    endloop
  endfacet
  facet normal 0 -1 -0
    outer loop
      vertex -2.18691 0 -2.05364
      vertex -7 0 -6
      vertex -1.91227 0 -2.31154
    endloop
  endfacet
  facet normal 0 -1 -0
    outer loop
      vertex -2.42705 0 -1.76336
      vertex -7 0 -6
      vertex -2.18691 0 -2.05364
    endloop
  endfacet
  facet normal 0 -1 -0
    outer loop
      vertex -2.62892 0 -1.44526
      vertex -7 0 -6
      vertex -2.42705 0 -1.76336
    endloop
  endfacet
  facet normal 0 -1 -0
    outer loop
      vertex -2.78933 0 -1.10437
      vertex -7 0 -6
      vertex -2.62892 0 -1.44526
    endloop
  endfacet
  facet normal 0 -1 0
    outer loop
      vertex 0.188371 0 2.99408
      vertex 7 0 6
      vertex -0.188371 0 2.99408
    endloop
  endfacet
  facet normal 0 -1 0
    outer loop
      vertex 0.562143 0 2.94686
      vertex 7 0 6
      vertex 0.188371 0 2.99408
    endloop
  endfacet
  facet normal 0 -1 0
    outer loop
      vertex 0.927051 0 2.85317
      vertex 7 0 6
      vertex 0.562143 0 2.94686
    endloop
  endfacet
  facet normal 0 -1 0
    outer loop
      vertex 1.27734 0 2.71448
      vertex 7 0 6
      vertex 0.927051 0 2.85317
    endloop
  endfacet
  facet normal 0 -1 0
    outer loop
      vertex 1.60748 0 2.53298
      vertex 7 0 6
      vertex 1.27734 0 2.71448
    endloop
  endfacet
  facet normal 0 -1 0
    outer loop
      vertex 1.91227 0 2.31154
      vertex 7 0 6
      vertex 1.60748 0 2.53298
    endloop
  endfacet
  facet normal 0 -1 0
    outer loop
      vertex 2.18691 0 2.05364
      vertex 7 0 6
      vertex 1.91227 0 2.31154
    endloop
  endfacet
  facet normal 0 -1 0
    outer loop
      vertex 2.42705 0 1.76336
      vertex 7 0 6
      vertex 2.18691 0 2.05364
    endloop
  endfacet
  facet normal 0 -1 0
    outer loop
      vertex 2.62892 0 1.44526
      vertex 7 0 6
      vertex 2.42705 0 1.76336
    endloop
  endfacet
  facet normal 0 -1 0
    outer loop
      vertex 2.78933 0 1.10437
      vertex 7 0 6
      vertex 2.62892 0 1.44526
    endloop
  endfacet
  facet normal 0 -1 0
    outer loop
      vertex 2.90575 0 0.746069
      vertex 7 0 6
      vertex 2.78933 0 1.10437
    endloop
  endfacet
  facet normal 0 -1 0
    outer loop
      vertex 2.97634 0 0.375999
      vertex 7 0 6
      vertex 2.90575 0 0.746069
    endloop
  endfacet
  facet normal 0 -1 0
    outer loop
      vertex 3 0 0
      vertex 7 0 6
      vertex 2.97634 0 0.375999
    endloop
  endfacet
  facet normal 0 -1 0
    outer loop
      vertex 7 0 -6
      vertex 3 0 0
      vertex 2.97634 0 -0.375999
    endloop
  endfacet
  facet normal 0 -1 0
    outer loop
      vertex 7 0 -6
      vertex 2.97634 0 -0.375999
      vertex 2.90575 0 -0.746069
    endloop
  endfacet
  facet normal 0 -1 0
    outer loop
      vertex 7 0 -6
      vertex 2.90575 0 -0.746069
      vertex 2.78933 0 -1.10437
    endloop
  endfacet
  facet normal 0 -1 0
    outer loop
      vertex 7 0 -6
      vertex 2.78933 0 -1.10437
      vertex 2.62892 0 -1.44526
    endloop
  endfacet
  facet normal 0 -1 0
    outer loop
      vertex 7 0 -6
      vertex 0.188371 0 -2.99408
      vertex -7 0 -6
    endloop
  endfacet
  facet normal 0 -1 0
    outer loop
      vertex 0.188371 0 -2.99408
      vertex 7 0 -6
      vertex 0.562143 0 -2.94686
    endloop
  endfacet
  facet normal 0 -1 0
    outer loop
      vertex 0.562143 0 -2.94686
      vertex 7 0 -6
      vertex 0.927051 0 -2.85317
    endloop
  endfacet
  facet normal 0 -1 0
    outer loop
      vertex 3 0 0
      vertex 7 0 -6
      vertex 7 0 6
    endloop
  endfacet
  facet normal 0 -1 0
    outer loop
      vertex 2.42705 0 -1.76336
      vertex 7 0 -6
      vertex 2.62892 0 -1.44526
    endloop
  endfacet
  facet normal 0 -1 0
    outer loop
      vertex 2.18691 0 -2.05364
      vertex 7 0 -6
      vertex 2.42705 0 -1.76336
    endloop
  endfacet
  facet normal 0 -1 0
    outer loop
      vertex 1.91227 0 -2.31154
      vertex 7 0 -6
      vertex 2.18691 0 -2.05364
    endloop
  endfacet
  facet normal 0 -1 0
    outer loop
      vertex 1.60748 0 -2.53298
      vertex 7 0 -6
      vertex 1.91227 0 -2.31154
    endloop
  endfacet
  facet normal 0 -1 0
    outer loop
      vertex 1.27734 0 -2.71448
      vertex 7 0 -6
      vertex 1.60748 0 -2.53298
    endloop
  endfacet
  facet normal 0 -1 0
    outer loop
      vertex 0.927051 0 -2.85317
      vertex 7 0 -6
      vertex 1.27734 0 -2.71448
    endloop
  endfacet
  facet normal 1 -0 0
    outer loop
      vertex -1.5 12 6
      vertex -1.5 13 -6
      vertex -1.5 13 6
    endloop
  endfacet
  facet normal 1 0 0
    outer loop
      vertex -1.5 13 -6
      vertex -1.5 12 6
      vertex -1.5 12 -6
    endloop
  endfacet
  facet normal -1 0 0
    outer loop
      vertex 1.5 12 -6
      vertex 1.5 13 6
      vertex 1.5 13 -6
    endloop
  endfacet
  facet normal -1 -0 0
    outer loop
      vertex 1.5 13 6
      vertex 1.5 12 -6
      vertex 1.5 12 6
    endloop
  endfacet
  facet normal 0 1 -0
    outer loop
      vertex 1.5 12 -6
      vertex -1.5 12 6
      vertex 1.5 12 6
    endloop
  endfacet
  facet normal 0 1 0
    outer loop
      vertex -1.5 12 6
      vertex 1.5 12 -6
      vertex -1.5 12 -6
    endloop
  endfacet
  facet normal 0 -1 0
    outer loop
      vertex -1.5 13 -6
      vertex 1.5 13 6
      vertex -1.5 13 6
    endloop
  endfacet
  facet normal 0 -1 -0
    outer loop
      vertex 1.5 13 6
      vertex -1.5 13 -6
      vertex 1.5 13 -6
    endloop
  endfacet
  facet normal 1 -0 0
    outer loop
      vertex -1.5 17 6
      vertex -1.5 18 -6
      vertex -1.5 18 6
    endloop
  endfacet
  facet normal 1 0 0
    outer loop
      vertex -1.5 18 -6
      vertex -1.5 17 6
      vertex -1.5 17 -6
    endloop
  endfacet
  facet normal -1 0 0
    outer loop
      vertex 1.5 17 -6
      vertex 1.5 18 6
      vertex 1.5 18 -6
    endloop
  endfacet
  facet normal -1 -0 0
    outer loop
      vertex 1.5 18 6
      vertex 1.5 17 -6
      vertex 1.5 17 6
    endloop
  endfacet
  facet normal 0 -1 0
    outer loop
      vertex -1.5 18 -6
      vertex 1.5 18 6
      vertex -1.5 18 6
    endloop
  endfacet
  facet normal 0 -1 -0
    outer loop
      vertex 1.5 18 6
      vertex -1.5 18 -6
      vertex 1.5 18 -6
    endloop
  endfacet
  facet normal 0 1 -0
    outer loop
      vertex 1.5 17 -6
      vertex -1.5 17 6
      vertex 1.5 17 6
    endloop
  endfacet
  facet normal 0 1 0
    outer loop
      vertex -1.5 17 6
      vertex 1.5 17 -6
      vertex -1.5 17 -6
    endloop
  endfacet
  facet normal -0.998026 0 -0.0628015
    outer loop
      vertex 3 0 0
      vertex 2.97634 8 0.375999
      vertex 3 8 0
    endloop
  endfacet
  facet normal -0.998026 -0 -0.0628015
    outer loop
      vertex 2.97634 8 0.375999
      vertex 3 0 0
      vertex 2.97634 0 0.375999
    endloop
  endfacet
  facet normal -0.98229 0 -0.187369
    outer loop
      vertex 2.97634 0 0.375999
      vertex 2.90575 8 0.746069
      vertex 2.97634 8 0.375999
    endloop
  endfacet
  facet normal -0.98229 -0 -0.187369
    outer loop
      vertex 2.90575 8 0.746069
      vertex 2.97634 0 0.375999
      vertex 2.90575 0 0.746069
    endloop
  endfacet
  facet normal 0.998026 0 -0.0628015
    outer loop
      vertex -2.97634 0 0.375999
      vertex -3 2.83 0
      vertex -2.97634 2.83 0.375999
    endloop
  endfacet
  facet normal 0.998026 0 -0.0628015
    outer loop
      vertex -3 2.83 0
      vertex -2.97634 0 0.375999
      vertex -3 0 0
    endloop
  endfacet
  facet normal 0 0 -1
    outer loop
      vertex -0.188371 0 2.99408
      vertex 0.188371 2.83 2.99408
      vertex 0.188371 0 2.99408
    endloop
  endfacet
  facet normal -0 0 -1
    outer loop
      vertex 0.188371 2.83 2.99408
      vertex -0.188371 0 2.99408
      vertex -0.188371 2.83 2.99408
    endloop
  endfacet
  facet normal -0.684556 0 -0.72896
    outer loop
      vertex 2.18691 0 2.05364
      vertex 2.12305 2.83 2.11361
      vertex 2.18691 8 2.05364
    endloop
  endfacet
  facet normal -0.684541 6.25399e-07 -0.728974
    outer loop
      vertex 1.91227 0 2.31154
      vertex 2.12305 2.83 2.11361
      vertex 2.18691 0 2.05364
    endloop
  endfacet
  facet normal -0.684537 0 -0.728978
    outer loop
      vertex 2.12305 2.83 2.11361
      vertex 1.91227 0 2.31154
      vertex 1.91227 2.83 2.31154
    endloop
  endfacet
  facet normal -0.684556 0 -0.72896
    outer loop
      vertex 2.18691 8 2.05364
      vertex 2.12305 2.83 2.11361
      vertex 2.12305 8 2.11361
    endloop
  endfacet
  facet normal 0.684541 0 -0.728974
    outer loop
      vertex -2.18691 0 2.05364
      vertex -1.91227 2.83 2.31154
      vertex -1.91227 0 2.31154
    endloop
  endfacet
  facet normal 0.684541 0 -0.728974
    outer loop
      vertex -1.91227 2.83 2.31154
      vertex -2.18691 0 2.05364
      vertex -2.18691 2.83 2.05364
    endloop
  endfacet
  facet normal 0.368126 0 -0.929776
    outer loop
      vertex -1.27734 0 2.71448
      vertex -0.927051 2.83 2.85317
      vertex -0.927051 0 2.85317
    endloop
  endfacet
  facet normal 0.368126 0 -0.929776
    outer loop
      vertex -0.927051 2.83 2.85317
      vertex -1.27734 0 2.71448
      vertex -1.27734 2.83 2.71448
    endloop
  endfacet
  facet normal -0.904828 0 -0.425778
    outer loop
      vertex 2.78933 0 1.10437
      vertex 2.62892 8 1.44526
      vertex 2.78933 8 1.10437
    endloop
  endfacet
  facet normal -0.904828 -0 -0.425778
    outer loop
      vertex 2.62892 8 1.44526
      vertex 2.78933 0 1.10437
      vertex 2.62892 0 1.44526
    endloop
  endfacet
  facet normal -0.58778 0 -0.809021
    outer loop
      vertex 1.60748 0 2.53298
      vertex 1.91227 2.83 2.31154
      vertex 1.91227 0 2.31154
    endloop
  endfacet
  facet normal -0.58778 0 -0.809021
    outer loop
      vertex 1.91227 2.83 2.31154
      vertex 1.60748 0 2.53298
      vertex 1.60748 2.83 2.53298
    endloop
  endfacet
  facet normal 0.904828 0 -0.425778
    outer loop
      vertex -2.62892 0 1.44526
      vertex -2.78933 2.83 1.10437
      vertex -2.62892 2.83 1.44526
    endloop
  endfacet
  facet normal 0.904828 0 -0.425778
    outer loop
      vertex -2.78933 2.83 1.10437
      vertex -2.62892 0 1.44526
      vertex -2.78933 0 1.10437
    endloop
  endfacet
  facet normal 0.770514 0 -0.637423
    outer loop
      vertex -2.18691 0 2.05364
      vertex -2.42705 2.83 1.76336
      vertex -2.18691 2.83 2.05364
    endloop
  endfacet
  facet normal 0.770514 0 -0.637423
    outer loop
      vertex -2.42705 2.83 1.76336
      vertex -2.18691 0 2.05364
      vertex -2.42705 0 1.76336
    endloop
  endfacet
  facet normal 0.248684 0 -0.968585
    outer loop
      vertex -0.927051 0 2.85317
      vertex -0.562143 2.83 2.94686
      vertex -0.562143 0 2.94686
    endloop
  endfacet
  facet normal 0.248684 0 -0.968585
    outer loop
      vertex -0.562143 2.83 2.94686
      vertex -0.927051 0 2.85317
      vertex -0.927051 2.83 2.85317
    endloop
  endfacet
  facet normal -0.904828 0 0.425778
    outer loop
      vertex 2.62892 0 -1.44526
      vertex 2.78933 8 -1.10437
      vertex 2.62892 8 -1.44526
    endloop
  endfacet
  facet normal -0.904828 0 0.425778
    outer loop
      vertex 2.78933 8 -1.10437
      vertex 2.62892 0 -1.44526
      vertex 2.78933 0 -1.10437
    endloop
  endfacet
  facet normal -0.125337 0 0.992114
    outer loop
      vertex 0.188371 2.83 -2.99408
      vertex 0.562143 0 -2.94686
      vertex 0.562143 2.83 -2.94686
    endloop
  endfacet
  facet normal -0.125337 0 0.992114
    outer loop
      vertex 0.562143 0 -2.94686
      vertex 0.188371 2.83 -2.99408
      vertex 0.188371 0 -2.99408
    endloop
  endfacet
  facet normal -0.770514 0 -0.637423
    outer loop
      vertex 2.42705 0 1.76336
      vertex 2.18691 8 2.05364
      vertex 2.42705 8 1.76336
    endloop
  endfacet
  facet normal -0.770514 -0 -0.637423
    outer loop
      vertex 2.18691 8 2.05364
      vertex 2.42705 0 1.76336
      vertex 2.18691 0 2.05364
    endloop
  endfacet
  facet normal -0.844331 0 -0.535822
    outer loop
      vertex 2.62892 0 1.44526
      vertex 2.42705 8 1.76336
      vertex 2.62892 8 1.44526
    endloop
  endfacet
  facet normal -0.844331 -0 -0.535822
    outer loop
      vertex 2.42705 8 1.76336
      vertex 2.62892 0 1.44526
      vertex 2.42705 0 1.76336
    endloop
  endfacet
  facet normal -0.248684 0 -0.968585
    outer loop
      vertex 0.562143 0 2.94686
      vertex 0.927051 2.83 2.85317
      vertex 0.927051 0 2.85317
    endloop
  endfacet
  facet normal -0.248684 0 -0.968585
    outer loop
      vertex 0.927051 2.83 2.85317
      vertex 0.562143 0 2.94686
      vertex 0.562143 2.83 2.94686
    endloop
  endfacet
  facet normal 0.951056 0 -0.309019
    outer loop
      vertex -2.78933 0 1.10437
      vertex -2.90575 2.83 0.746069
      vertex -2.78933 2.83 1.10437
    endloop
  endfacet
  facet normal 0.951056 0 -0.309019
    outer loop
      vertex -2.90575 2.83 0.746069
      vertex -2.78933 0 1.10437
      vertex -2.90575 0 0.746069
    endloop
  endfacet
  facet normal 0.844331 0 -0.535822
    outer loop
      vertex -2.42705 0 1.76336
      vertex -2.62892 2.83 1.44526
      vertex -2.42705 2.83 1.76336
    endloop
  endfacet
  facet normal 0.844331 0 -0.535822
    outer loop
      vertex -2.62892 2.83 1.44526
      vertex -2.42705 0 1.76336
      vertex -2.62892 0 1.44526
    endloop
  endfacet
  facet normal 0.481762 0 -0.876302
    outer loop
      vertex -1.60748 0 2.53298
      vertex -1.27734 2.83 2.71448
      vertex -1.27734 0 2.71448
    endloop
  endfacet
  facet normal 0.481762 0 -0.876302
    outer loop
      vertex -1.27734 2.83 2.71448
      vertex -1.60748 0 2.53298
      vertex -1.60748 2.83 2.53298
    endloop
  endfacet
  facet normal 0.58778 0 -0.809021
    outer loop
      vertex -1.91227 0 2.31154
      vertex -1.60748 2.83 2.53298
      vertex -1.60748 0 2.53298
    endloop
  endfacet
  facet normal 0.58778 0 -0.809021
    outer loop
      vertex -1.60748 2.83 2.53298
      vertex -1.91227 0 2.31154
      vertex -1.91227 2.83 2.31154
    endloop
  endfacet
  facet normal 0.125337 0 -0.992114
    outer loop
      vertex -0.562143 0 2.94686
      vertex -0.188371 2.83 2.99408
      vertex -0.188371 0 2.99408
    endloop
  endfacet
  facet normal 0.125337 0 -0.992114
    outer loop
      vertex -0.188371 2.83 2.99408
      vertex -0.562143 0 2.94686
      vertex -0.562143 2.83 2.94686
    endloop
  endfacet
  facet normal -0.481762 0 0.876302
    outer loop
      vertex 1.27734 2.83 -2.71448
      vertex 1.60748 0 -2.53298
      vertex 1.60748 2.83 -2.53298
    endloop
  endfacet
  facet normal -0.481762 0 0.876302
    outer loop
      vertex 1.60748 0 -2.53298
      vertex 1.27734 2.83 -2.71448
      vertex 1.27734 0 -2.71448
    endloop
  endfacet
  facet normal 0.684541 0 0.728974
    outer loop
      vertex -2.18691 2.83 -2.05364
      vertex -1.91227 0 -2.31154
      vertex -1.91227 2.83 -2.31154
    endloop
  endfacet
  facet normal 0.684541 0 0.728974
    outer loop
      vertex -1.91227 0 -2.31154
      vertex -2.18691 2.83 -2.05364
      vertex -2.18691 0 -2.05364
    endloop
  endfacet
  facet normal 0 -1 0
    outer loop
      vertex 2.12305 8 2.11361
      vertex 2.42705 8 1.76336
      vertex 2.18691 8 2.05364
    endloop
  endfacet
  facet normal 0 -1 0
    outer loop
      vertex 2.12305 8 2.11361
      vertex 2.62892 8 1.44526
      vertex 2.42705 8 1.76336
    endloop
  endfacet
  facet normal 0 -1 0
    outer loop
      vertex 2.12305 8 2.11361
      vertex 2.78933 8 1.10437
      vertex 2.62892 8 1.44526
    endloop
  endfacet
  facet normal 0 -1 0
    outer loop
      vertex 2.12305 8 2.11361
      vertex 2.90575 8 0.746069
      vertex 2.78933 8 1.10437
    endloop
  endfacet
  facet normal 0 -1 0
    outer loop
      vertex 2.12305 8 2.11361
      vertex 2.97634 8 0.375999
      vertex 2.90575 8 0.746069
    endloop
  endfacet
  facet normal 0 -1 0
    outer loop
      vertex 2.12305 8 2.11361
      vertex 3 8 0
      vertex 2.97634 8 0.375999
    endloop
  endfacet
  facet normal 0 -1 0
    outer loop
      vertex 2.12305 8 2.11361
      vertex 2.97634 8 -0.375999
      vertex 3 8 0
    endloop
  endfacet
  facet normal 0 -1 0
    outer loop
      vertex 2.12305 8 2.11361
      vertex 2.90575 8 -0.746069
      vertex 2.97634 8 -0.375999
    endloop
  endfacet
  facet normal 0 -1 0
    outer loop
      vertex 2.12305 8 2.11361
      vertex 2.78933 8 -1.10437
      vertex 2.90575 8 -0.746069
    endloop
  endfacet
  facet normal 0 -1 0
    outer loop
      vertex 2.12305 8 2.11361
      vertex 2.62892 8 -1.44526
      vertex 2.78933 8 -1.10437
    endloop
  endfacet
  facet normal 0 -1 0
    outer loop
      vertex 2.12305 8 2.11361
      vertex 2.42705 8 -1.76336
      vertex 2.62892 8 -1.44526
    endloop
  endfacet
  facet normal 0 -1 0
    outer loop
      vertex 2.12305 8 -2.11361
      vertex 2.42705 8 -1.76336
      vertex 2.12305 8 2.11361
    endloop
  endfacet
  facet normal 0 -1 0
    outer loop
      vertex 2.42705 8 -1.76336
      vertex 2.12305 8 -2.11361
      vertex 2.18691 8 -2.05364
    endloop
  endfacet
  facet normal -0 0 1
    outer loop
      vertex -0.188371 2.83 -2.99408
      vertex 0.188371 0 -2.99408
      vertex 0.188371 2.83 -2.99408
    endloop
  endfacet
  facet normal 0 0 1
    outer loop
      vertex 0.188371 0 -2.99408
      vertex -0.188371 2.83 -2.99408
      vertex -0.188371 0 -2.99408
    endloop
  endfacet
  facet normal -0.951056 0 -0.309019
    outer loop
      vertex 2.90575 0 0.746069
      vertex 2.78933 8 1.10437
      vertex 2.90575 8 0.746069
    endloop
  endfacet
  facet normal -0.951056 -0 -0.309019
    outer loop
      vertex 2.78933 8 1.10437
      vertex 2.90575 0 0.746069
      vertex 2.78933 0 1.10437
    endloop
  endfacet
  facet normal -0.125337 0 -0.992114
    outer loop
      vertex 0.188371 0 2.99408
      vertex 0.562143 2.83 2.94686
      vertex 0.562143 0 2.94686
    endloop
  endfacet
  facet normal -0.125337 0 -0.992114
    outer loop
      vertex 0.562143 2.83 2.94686
      vertex 0.188371 0 2.99408
      vertex 0.188371 2.83 2.99408
    endloop
  endfacet
  facet normal -0.481762 0 -0.876302
    outer loop
      vertex 1.27734 0 2.71448
      vertex 1.60748 2.83 2.53298
      vertex 1.60748 0 2.53298
    endloop
  endfacet
  facet normal -0.481762 0 -0.876302
    outer loop
      vertex 1.60748 2.83 2.53298
      vertex 1.27734 0 2.71448
      vertex 1.27734 2.83 2.71448
    endloop
  endfacet
  facet normal -0.368126 0 -0.929776
    outer loop
      vertex 0.927051 0 2.85317
      vertex 1.27734 2.83 2.71448
      vertex 1.27734 0 2.71448
    endloop
  endfacet
  facet normal -0.368126 0 -0.929776
    outer loop
      vertex 1.27734 2.83 2.71448
      vertex 0.927051 0 2.85317
      vertex 0.927051 2.83 2.85317
    endloop
  endfacet
  facet normal 0.98229 0 -0.187369
    outer loop
      vertex -2.90575 0 0.746069
      vertex -2.97634 2.83 0.375999
      vertex -2.90575 2.83 0.746069
    endloop
  endfacet
  facet normal 0.98229 0 -0.187369
    outer loop
      vertex -2.97634 2.83 0.375999
      vertex -2.90575 0 0.746069
      vertex -2.97634 0 0.375999
    endloop
  endfacet
  facet normal -0.684556 0 0.72896
    outer loop
      vertex 2.12305 2.83 -2.11361
      vertex 2.18691 8 -2.05364
      vertex 2.12305 8 -2.11361
    endloop
  endfacet
  facet normal -0.684556 0 0.72896
    outer loop
      vertex 2.18691 8 -2.05364
      vertex 2.12305 2.83 -2.11361
      vertex 2.18691 0 -2.05364
    endloop
  endfacet
  facet normal -0.684537 0 0.728978
    outer loop
      vertex 1.91227 0 -2.31154
      vertex 2.12305 2.83 -2.11361
      vertex 1.91227 2.83 -2.31154
    endloop
  endfacet
  facet normal -0.684541 6.25399e-07 0.728974
    outer loop
      vertex 2.12305 2.83 -2.11361
      vertex 1.91227 0 -2.31154
      vertex 2.18691 0 -2.05364
    endloop
  endfacet
  facet normal -0.58778 0 0.809021
    outer loop
      vertex 1.60748 2.83 -2.53298
      vertex 1.91227 0 -2.31154
      vertex 1.91227 2.83 -2.31154
    endloop
  endfacet
  facet normal -0.58778 0 0.809021
    outer loop
      vertex 1.91227 0 -2.31154
      vertex 1.60748 2.83 -2.53298
      vertex 1.60748 0 -2.53298
    endloop
  endfacet
  facet normal -0.98229 0 0.187369
    outer loop
      vertex 2.90575 0 -0.746069
      vertex 2.97634 8 -0.375999
      vertex 2.90575 8 -0.746069
    endloop
  endfacet
  facet normal -0.98229 0 0.187369
    outer loop
      vertex 2.97634 8 -0.375999
      vertex 2.90575 0 -0.746069
      vertex 2.97634 0 -0.375999
    endloop
  endfacet
  facet normal -0.998026 0 0.0628015
    outer loop
      vertex 2.97634 0 -0.375999
      vertex 3 8 0
      vertex 2.97634 8 -0.375999
    endloop
  endfacet
  facet normal -0.998026 0 0.0628015
    outer loop
      vertex 3 8 0
      vertex 2.97634 0 -0.375999
      vertex 3 0 0
    endloop
  endfacet
  facet normal 0.248684 0 0.968585
    outer loop
      vertex -0.927051 2.83 -2.85317
      vertex -0.562143 0 -2.94686
      vertex -0.562143 2.83 -2.94686
    endloop
  endfacet
  facet normal 0.248684 0 0.968585
    outer loop
      vertex -0.562143 0 -2.94686
      vertex -0.927051 2.83 -2.85317
      vertex -0.927051 0 -2.85317
    endloop
  endfacet
  facet normal 0.904828 -0 0.425778
    outer loop
      vertex -2.78933 0 -1.10437
      vertex -2.62892 2.83 -1.44526
      vertex -2.78933 2.83 -1.10437
    endloop
  endfacet
  facet normal 0.904828 0 0.425778
    outer loop
      vertex -2.62892 2.83 -1.44526
      vertex -2.78933 0 -1.10437
      vertex -2.62892 0 -1.44526
    endloop
  endfacet
  facet normal 0.951056 -0 0.309019
    outer loop
      vertex -2.90575 0 -0.746069
      vertex -2.78933 2.83 -1.10437
      vertex -2.90575 2.83 -0.746069
    endloop
  endfacet
  facet normal 0.951056 0 0.309019
    outer loop
      vertex -2.78933 2.83 -1.10437
      vertex -2.90575 0 -0.746069
      vertex -2.78933 0 -1.10437
    endloop
  endfacet
  facet normal 0.98229 -0 0.187369
    outer loop
      vertex -2.97634 0 -0.375999
      vertex -2.90575 2.83 -0.746069
      vertex -2.97634 2.83 -0.375999
    endloop
  endfacet
  facet normal 0.98229 0 0.187369
    outer loop
      vertex -2.90575 2.83 -0.746069
      vertex -2.97634 0 -0.375999
      vertex -2.90575 0 -0.746069
    endloop
  endfacet
  facet normal 0.998026 -0 0.0628015
    outer loop
      vertex -3 0 0
      vertex -2.97634 2.83 -0.375999
      vertex -3 2.83 0
    endloop
  endfacet
  facet normal 0.998026 0 0.0628015
    outer loop
      vertex -2.97634 2.83 -0.375999
      vertex -3 0 0
      vertex -2.97634 0 -0.375999
    endloop
  endfacet
  facet normal -0.248684 0 0.968585
    outer loop
      vertex 0.562143 2.83 -2.94686
      vertex 0.927051 0 -2.85317
      vertex 0.927051 2.83 -2.85317
    endloop
  endfacet
  facet normal -0.248684 0 0.968585
    outer loop
      vertex 0.927051 0 -2.85317
      vertex 0.562143 2.83 -2.94686
      vertex 0.562143 0 -2.94686
    endloop
  endfacet
  facet normal -0.368126 0 0.929776
    outer loop
      vertex 0.927051 2.83 -2.85317
      vertex 1.27734 0 -2.71448
      vertex 1.27734 2.83 -2.71448
    endloop
  endfacet
  facet normal -0.368126 0 0.929776
    outer loop
      vertex 1.27734 0 -2.71448
      vertex 0.927051 2.83 -2.85317
      vertex 0.927051 0 -2.85317
    endloop
  endfacet
  facet normal -0.951056 0 0.309019
    outer loop
      vertex 2.78933 0 -1.10437
      vertex 2.90575 8 -0.746069
      vertex 2.78933 8 -1.10437
    endloop
  endfacet
  facet normal -0.951056 0 0.309019
    outer loop
      vertex 2.90575 8 -0.746069
      vertex 2.78933 0 -1.10437
      vertex 2.90575 0 -0.746069
    endloop
  endfacet
  facet normal -0.770514 0 0.637423
    outer loop
      vertex 2.18691 0 -2.05364
      vertex 2.42705 8 -1.76336
      vertex 2.18691 8 -2.05364
    endloop
  endfacet
  facet normal -0.770514 0 0.637423
    outer loop
      vertex 2.42705 8 -1.76336
      vertex 2.18691 0 -2.05364
      vertex 2.42705 0 -1.76336
    endloop
  endfacet
  facet normal -0.844331 0 0.535822
    outer loop
      vertex 2.42705 0 -1.76336
      vertex 2.62892 8 -1.44526
      vertex 2.42705 8 -1.76336
    endloop
  endfacet
  facet normal -0.844331 0 0.535822
    outer loop
      vertex 2.62892 8 -1.44526
      vertex 2.42705 0 -1.76336
      vertex 2.62892 0 -1.44526
    endloop
  endfacet
  facet normal 0.125337 0 0.992114
    outer loop
      vertex -0.562143 2.83 -2.94686
      vertex -0.188371 0 -2.99408
      vertex -0.188371 2.83 -2.99408
    endloop
  endfacet
  facet normal 0.125337 0 0.992114
    outer loop
      vertex -0.188371 0 -2.99408
      vertex -0.562143 2.83 -2.94686
      vertex -0.562143 0 -2.94686
    endloop
  endfacet
  facet normal 0.368126 0 0.929776
    outer loop
      vertex -1.27734 2.83 -2.71448
      vertex -0.927051 0 -2.85317
      vertex -0.927051 2.83 -2.85317
    endloop
  endfacet
  facet normal 0.368126 0 0.929776
    outer loop
      vertex -0.927051 0 -2.85317
      vertex -1.27734 2.83 -2.71448
      vertex -1.27734 0 -2.71448
    endloop
  endfacet
  facet normal 0.58778 0 0.809021
    outer loop
      vertex -1.91227 2.83 -2.31154
      vertex -1.60748 0 -2.53298
      vertex -1.60748 2.83 -2.53298
    endloop
  endfacet
  facet normal 0.58778 0 0.809021
    outer loop
      vertex -1.60748 0 -2.53298
      vertex -1.91227 2.83 -2.31154
      vertex -1.91227 0 -2.31154
    endloop
  endfacet
  facet normal 0.481762 0 0.876302
    outer loop
      vertex -1.60748 2.83 -2.53298
      vertex -1.27734 0 -2.71448
      vertex -1.27734 2.83 -2.71448
    endloop
  endfacet
  facet normal 0.481762 0 0.876302
    outer loop
      vertex -1.27734 0 -2.71448
      vertex -1.60748 2.83 -2.53298
      vertex -1.60748 0 -2.53298
    endloop
  endfacet
  facet normal 0.844331 -0 0.535822
    outer loop
      vertex -2.62892 0 -1.44526
      vertex -2.42705 2.83 -1.76336
      vertex -2.62892 2.83 -1.44526
    endloop
  endfacet
  facet normal 0.844331 0 0.535822
    outer loop
      vertex -2.42705 2.83 -1.76336
      vertex -2.62892 0 -1.44526
      vertex -2.42705 0 -1.76336
    endloop
  endfacet
  facet normal 0.770514 -0 0.637423
    outer loop
      vertex -2.42705 0 -1.76336
      vertex -2.18691 2.83 -2.05364
      vertex -2.42705 2.83 -1.76336
    endloop
  endfacet
  facet normal 0.770514 0 0.637423
    outer loop
      vertex -2.18691 2.83 -2.05364
      vertex -2.42705 0 -1.76336
      vertex -2.18691 0 -2.05364
    endloop
  endfacet
  facet normal 0 1 0
    outer loop
      vertex 0.188371 2.83 -2.99408
      vertex 2.12305 2.83 -6
      vertex -0.188371 2.83 -2.99408
    endloop
  endfacet
  facet normal 0 1 0
    outer loop
      vertex 0.562143 2.83 -2.94686
      vertex 2.12305 2.83 -6
      vertex 0.188371 2.83 -2.99408
    endloop
  endfacet
  facet normal 0 1 0
    outer loop
      vertex 0.927051 2.83 -2.85317
      vertex 2.12305 2.83 -6
      vertex 0.562143 2.83 -2.94686
    endloop
  endfacet
  facet normal 0 1 0
    outer loop
      vertex 1.27734 2.83 -2.71448
      vertex 2.12305 2.83 -6
      vertex 0.927051 2.83 -2.85317
    endloop
  endfacet
  facet normal 0 1 0
    outer loop
      vertex 1.60748 2.83 -2.53298
      vertex 2.12305 2.83 -6
      vertex 1.27734 2.83 -2.71448
    endloop
  endfacet
  facet normal 0 1 0
    outer loop
      vertex 1.91227 2.83 -2.31154
      vertex 2.12305 2.83 -6
      vertex 1.60748 2.83 -2.53298
    endloop
  endfacet
  facet normal 0 1 -0
    outer loop
      vertex 2.12305 2.83 -6
      vertex 1.91227 2.83 -2.31154
      vertex 2.12305 2.83 -2.11361
    endloop
  endfacet
  facet normal 0 1 0
    outer loop
      vertex -0.188371 2.83 2.99408
      vertex 2.12305 2.83 6
      vertex 0.188371 2.83 2.99408
    endloop
  endfacet
  facet normal 0 1 0
    outer loop
      vertex 2.12305 2.83 6
      vertex 0.562143 2.83 2.94686
      vertex 0.188371 2.83 2.99408
    endloop
  endfacet
  facet normal 0 1 0
    outer loop
      vertex 2.12305 2.83 6
      vertex 0.927051 2.83 2.85317
      vertex 0.562143 2.83 2.94686
    endloop
  endfacet
  facet normal 0 1 0
    outer loop
      vertex 2.12305 2.83 6
      vertex 1.27734 2.83 2.71448
      vertex 0.927051 2.83 2.85317
    endloop
  endfacet
  facet normal 0 1 0
    outer loop
      vertex 2.12305 2.83 6
      vertex 1.60748 2.83 2.53298
      vertex 1.27734 2.83 2.71448
    endloop
  endfacet
  facet normal 0 1 0
    outer loop
      vertex 2.12305 2.83 6
      vertex 1.91227 2.83 2.31154
      vertex 1.60748 2.83 2.53298
    endloop
  endfacet
  facet normal -0 1 0
    outer loop
      vertex 1.91227 2.83 2.31154
      vertex 2.12305 2.83 6
      vertex 2.12305 2.83 2.11361
    endloop
  endfacet
  facet normal 0 1 0
    outer loop
      vertex -0.562143 2.83 2.94686
      vertex 2.12305 2.83 6
      vertex -0.188371 2.83 2.99408
    endloop
  endfacet
  facet normal 0 1 0
    outer loop
      vertex -0.927051 2.83 2.85317
      vertex 2.12305 2.83 6
      vertex -0.562143 2.83 2.94686
    endloop
  endfacet
  facet normal 0 1 0
    outer loop
      vertex 2.12305 2.83 6
      vertex -0.927051 2.83 2.85317
      vertex -7 2.83 6
    endloop
  endfacet
  facet normal 0 1 -0
    outer loop
      vertex -1.27734 2.83 2.71448
      vertex -7 2.83 6
      vertex -0.927051 2.83 2.85317
    endloop
  endfacet
  facet normal 0 1 -0
    outer loop
      vertex -1.60748 2.83 2.53298
      vertex -7 2.83 6
      vertex -1.27734 2.83 2.71448
    endloop
  endfacet
  facet normal 0 1 -0
    outer loop
      vertex -1.91227 2.83 2.31154
      vertex -7 2.83 6
      vertex -1.60748 2.83 2.53298
    endloop
  endfacet
  facet normal 0 1 -0
    outer loop
      vertex -2.18691 2.83 2.05364
      vertex -7 2.83 6
      vertex -1.91227 2.83 2.31154
    endloop
  endfacet
  facet normal 0 1 -0
    outer loop
      vertex -2.42705 2.83 1.76336
      vertex -7 2.83 6
      vertex -2.18691 2.83 2.05364
    endloop
  endfacet
  facet normal 0 1 -0
    outer loop
      vertex -2.62892 2.83 1.44526
      vertex -7 2.83 6
      vertex -2.42705 2.83 1.76336
    endloop
  endfacet
  facet normal 0 1 -0
    outer loop
      vertex -2.78933 2.83 1.10437
      vertex -7 2.83 6
      vertex -2.62892 2.83 1.44526
    endloop
  endfacet
  facet normal 0 1 -0
    outer loop
      vertex -2.90575 2.83 0.746069
      vertex -7 2.83 6
      vertex -2.78933 2.83 1.10437
    endloop
  endfacet
  facet normal 0 1 -0
    outer loop
      vertex -2.97634 2.83 0.375999
      vertex -7 2.83 6
      vertex -2.90575 2.83 0.746069
    endloop
  endfacet
  facet normal 0 1 -0
    outer loop
      vertex -3 2.83 0
      vertex -7 2.83 6
      vertex -2.97634 2.83 0.375999
    endloop
  endfacet
  facet normal 0 1 0
    outer loop
      vertex -7 2.83 -6
      vertex -3 2.83 0
      vertex -2.97634 2.83 -0.375999
    endloop
  endfacet
  facet normal 0 1 0
    outer loop
      vertex -7 2.83 -6
      vertex -2.97634 2.83 -0.375999
      vertex -2.90575 2.83 -0.746069
    endloop
  endfacet
  facet normal 0 1 0
    outer loop
      vertex -7 2.83 -6
      vertex -2.90575 2.83 -0.746069
      vertex -2.78933 2.83 -1.10437
    endloop
  endfacet
  facet normal 0 1 0
    outer loop
      vertex -7 2.83 -6
      vertex -2.78933 2.83 -1.10437
      vertex -2.62892 2.83 -1.44526
    endloop
  endfacet
  facet normal 0 1 0
    outer loop
      vertex 2.12305 2.83 -6
      vertex -0.562143 2.83 -2.94686
      vertex -0.188371 2.83 -2.99408
    endloop
  endfacet
  facet normal 0 1 0
    outer loop
      vertex 2.12305 2.83 -6
      vertex -0.927051 2.83 -2.85317
      vertex -0.562143 2.83 -2.94686
    endloop
  endfacet
  facet normal 0 1 0
    outer loop
      vertex -7 2.83 -6
      vertex -0.927051 2.83 -2.85317
      vertex 2.12305 2.83 -6
    endloop
  endfacet
  facet normal 0 1 0
    outer loop
      vertex -0.927051 2.83 -2.85317
      vertex -7 2.83 -6
      vertex -1.27734 2.83 -2.71448
    endloop
  endfacet
  facet normal 0 1 0
    outer loop
      vertex -1.27734 2.83 -2.71448
      vertex -7 2.83 -6
      vertex -1.60748 2.83 -2.53298
    endloop
  endfacet
  facet normal 0 1 0
    outer loop
      vertex -3 2.83 0
      vertex -7 2.83 -6
      vertex -7 2.83 6
    endloop
  endfacet
  facet normal 0 1 0
    outer loop
      vertex -2.42705 2.83 -1.76336
      vertex -7 2.83 -6
      vertex -2.62892 2.83 -1.44526
    endloop
  endfacet
  facet normal 0 1 0
    outer loop
      vertex -2.18691 2.83 -2.05364
      vertex -7 2.83 -6
      vertex -2.42705 2.83 -1.76336
    endloop
  endfacet
  facet normal 0 1 0
    outer loop
      vertex -1.91227 2.83 -2.31154
      vertex -7 2.83 -6
      vertex -2.18691 2.83 -2.05364
    endloop
  endfacet
  facet normal 0 1 0
    outer loop
      vertex -1.60748 2.83 -2.53298
      vertex -7 2.83 -6
      vertex -1.91227 2.83 -2.31154
    endloop
  endfacet
  facet normal -1 0 0
    outer loop
      vertex 2.12305 9 -6
      vertex 2.12305 8 -2.11361
      vertex 2.12305 9 6
    endloop
  endfacet
  facet normal -1 0 0
    outer loop
      vertex 2.12305 2.83 -6
      vertex 2.12305 8 -2.11361
      vertex 2.12305 9 -6
    endloop
  endfacet
  facet normal -1 -0 0
    outer loop
      vertex 2.12305 8 -2.11361
      vertex 2.12305 2.83 -6
      vertex 2.12305 2.83 -2.11361
    endloop
  endfacet
  facet normal -1 0 0
    outer loop
      vertex 2.12305 8 2.11361
      vertex 2.12305 9 6
      vertex 2.12305 8 -2.11361
    endloop
  endfacet
  facet normal -1 0 0
    outer loop
      vertex 2.12305 2.83 6
      vertex 2.12305 8 2.11361
      vertex 2.12305 2.83 2.11361
    endloop
  endfacet
  facet normal -1 0 0
    outer loop
      vertex 2.12305 8 2.11361
      vertex 2.12305 2.83 6
      vertex 2.12305 9 6
    endloop
  endfacet
  facet normal 0 -1 0
    outer loop
      vertex -7 9 -6
      vertex 2.12305 9 6
      vertex -7 9 6
    endloop
  endfacet
  facet normal 0 -1 -0
    outer loop
      vertex 2.12305 9 6
      vertex -7 9 -6
      vertex 2.12305 9 -6
    endloop
  endfacet
endsolid OpenSCAD_Model
