<?xml version="1.0" standalone="no"?>
<!DOCTYPE svg PUBLIC "-//W3C//DTD SVG 1.1//EN" "http://www.w3.org/Graphics/SVG/1.1/DTD/svg11.dtd">
<svg width="44mm" height="14mm" viewBox="-22 -7 44 14" xmlns="http://www.w3.org/2000/svg" version="1.1">
<title>OpenSCAD Model</title>
<path d="
M 18.2495,6.42914 L 18.7361,6.30421 L 19.2031,6.11929 L 19.6433,5.8773 L 20.0497,5.58205 L 20.4159,5.23817
 L 20.7361,4.85114 L 21.0052,4.427 L 21.2191,3.97249 L 21.3743,3.49475 L 21.4684,3.00133 L 21.5,2.5
 L 21.5,-2.5 L 21.4684,-3.00133 L 21.3743,-3.49475 L 21.2191,-3.97249 L 21.0052,-4.427 L 20.7361,-4.85114
 L 20.4159,-5.23817 L 20.0497,-5.58205 L 19.6433,-5.8773 L 19.2031,-6.11929 L 18.7361,-6.30421 L 18.2495,-6.42914
 L 17.7512,-6.4921 L -17.7512,-6.4921 L -18.2495,-6.42914 L -18.7361,-6.30421 L -19.2031,-6.11929 L -19.6433,-5.8773
 L -20.0497,-5.58205 L -20.4159,-5.23817 L -20.7361,-4.85114 L -21.0052,-4.427 L -21.2191,-3.97249 L -21.3743,-3.49475
 L -21.4684,-3.00133 L -21.5,-2.5 L -21.5,2.5 L -21.4684,3.00133 L -21.3743,3.49475 L -21.2191,3.97249
 L -21.0052,4.427 L -20.7361,4.85114 L -20.4159,5.23817 L -20.0497,5.58205 L -19.6433,5.8773 L -19.2031,6.11929
 L -18.7361,6.30421 L -18.2495,6.42914 L -17.7512,6.4921 L 17.7512,6.4921 z
M 14.8179,2.89427 L 14.4566,2.84863 L 14.1038,2.75806 L 13.7652,2.62399 L 13.4461,2.44855 L 13.1515,2.23448
 L 12.886,1.98518 L 12.6538,1.70457 L 12.4587,1.39708 L 12.3036,1.06755 L 12.1911,0.721191 L 12.1229,0.363464
 L 12.1,-0 L 12.1229,-0.363464 L 12.1911,-0.721191 L 12.3036,-1.06755 L 12.4587,-1.39708 L 12.6538,-1.70457
 L 12.886,-1.98518 L 13.1515,-2.23448 L 13.4461,-2.44855 L 13.7652,-2.62399 L 14.1038,-2.75806 L 14.4566,-2.84863
 L 14.8179,-2.89427 L 15.1821,-2.89427 L 15.5434,-2.84863 L 15.8961,-2.75806 L 16.2348,-2.62399 L 16.5539,-2.44855
 L 16.8485,-2.23448 L 17.114,-1.98518 L 17.3461,-1.70457 L 17.5413,-1.39708 L 17.6964,-1.06755 L 17.8089,-0.721191
 L 17.8771,-0.363464 L 17.9,-0 L 17.8771,0.363464 L 17.8089,0.721191 L 17.6964,1.06755 L 17.5413,1.39708
 L 17.3461,1.70457 L 17.114,1.98518 L 16.8485,2.23448 L 16.5539,2.44855 L 16.2348,2.62399 L 15.8961,2.75806
 L 15.5434,2.84863 L 15.1821,2.89427 z
M -15.1821,2.89427 L -15.5434,2.84863 L -15.8961,2.75806 L -16.2348,2.62399 L -16.5539,2.44855 L -16.8485,2.23448
 L -17.114,1.98518 L -17.3461,1.70457 L -17.5413,1.39708 L -17.6964,1.06755 L -17.8089,0.721191 L -17.8771,0.363464
 L -17.9,-0 L -17.8771,-0.363464 L -17.8089,-0.721191 L -17.6964,-1.06755 L -17.5413,-1.39708 L -17.3461,-1.70457
 L -17.114,-1.98518 L -16.8485,-2.23448 L -16.5539,-2.44855 L -16.2348,-2.62399 L -15.8961,-2.75806 L -15.5434,-2.84863
 L -15.1821,-2.89427 L -14.8179,-2.89427 L -14.4566,-2.84863 L -14.1038,-2.75806 L -13.7652,-2.62399 L -13.4461,-2.44855
 L -13.1515,-2.23448 L -12.886,-1.98518 L -12.6538,-1.70457 L -12.4587,-1.39708 L -12.3036,-1.06755 L -12.1911,-0.721191
 L -12.1229,-0.363464 L -12.1,-0 L -12.1229,0.363464 L -12.1911,0.721191 L -12.3036,1.06755 L -12.4587,1.39708
 L -12.6538,1.70457 L -12.886,1.98518 L -13.1515,2.23448 L -13.4461,2.44855 L -13.7652,2.62399 L -14.1038,2.75806
 L -14.4566,2.84863 L -14.8179,2.89427 z
" stroke="black" fill="lightgray" stroke-width="0.5"/>
</svg>
