<?xml version="1.0" standalone="no"?>
<!DOCTYPE svg PUBLIC "-//W3C//DTD SVG 1.1//EN" "http://www.w3.org/Graphics/SVG/1.1/DTD/svg11.dtd">
<svg width="57mm" height="35mm" viewBox="-28 -18 57 35" xmlns="http://www.w3.org/2000/svg" version="1.1">
<title>OpenSCAD Model</title>
<path d="
M 25.712,-5.0173 L 26.1743,-5.13597 L 26.618,-5.31165 L 27.0361,-5.54155 L 27.4222,-5.82204 L 27.7701,-6.14871
 L 28.0743,-6.5164 L 28.33,-6.91933 L 28.5331,-7.35112 L 28.6806,-7.80498 L 28.77,-8.27373 L 28.8,-8.75
 L 28.8,-13.75 L 28.77,-14.2263 L 28.6806,-14.695 L 28.5331,-15.1489 L 28.33,-15.5807 L 28.0743,-15.9836
 L 27.7701,-16.3513 L 27.4222,-16.6779 L 27.0361,-16.9584 L 26.618,-17.1883 L 26.1743,-17.364 L 25.712,-17.4827
 L 25.2386,-17.5425 L 19.7614,-17.5425 L 19.2879,-17.4827 L 18.8257,-17.364 L 18.382,-17.1883 L 17.9639,-16.9584
 L 17.5778,-16.6779 L 17.2299,-16.3513 L 16.9257,-15.9836 L 16.67,-15.5807 L 16.4668,-15.1489 L 16.3194,-14.695
 L 16.2299,-14.2263 L 16.2,-13.75 L 16.2,-8.75 L 16.2299,-8.27373 L 16.3194,-7.80498 L 16.4668,-7.35112
 L 16.67,-6.91933 L 16.9257,-6.5164 L 17.2299,-6.14871 L 17.5778,-5.82204 L 17.9639,-5.54155 L 18.382,-5.31165
 L 18.8257,-5.13597 L 19.2879,-5.0173 L 19.7614,-4.95749 L 25.2386,-4.95749 z
M 21.8116,-7.75591 L 21.4379,-7.80313 L 21.0729,-7.89682 L 20.7227,-8.03551 L 20.3925,-8.21701 L 20.0877,-8.43845
 L 19.8131,-8.69635 L 19.5729,-8.98663 L 19.3711,-9.30473 L 19.2107,-9.64561 L 19.0942,-10.0039 L 19.0237,-10.374
 L 19,-10.75 L 19,-11.75 L 19.0237,-12.126 L 19.0942,-12.4961 L 19.2107,-12.8544 L 19.3711,-13.1953
 L 19.5729,-13.5134 L 19.8131,-13.8036 L 20.0877,-14.0615 L 20.3925,-14.283 L 20.7227,-14.4645 L 21.0729,-14.6032
 L 21.4379,-14.6969 L 21.8116,-14.7441 L 23.1884,-14.7441 L 23.5621,-14.6969 L 23.927,-14.6032 L 24.2773,-14.4645
 L 24.6075,-14.283 L 24.9123,-14.0615 L 25.1869,-13.8036 L 25.427,-13.5134 L 25.6289,-13.1953 L 25.7893,-12.8544
 L 25.9057,-12.4961 L 25.9763,-12.126 L 26,-11.75 L 26,-10.75 L 25.9763,-10.374 L 25.9057,-10.0039
 L 25.7893,-9.64561 L 25.6289,-9.30473 L 25.427,-8.98663 L 25.1869,-8.69635 L 24.9123,-8.43845 L 24.6075,-8.21701
 L 24.2773,-8.03551 L 23.927,-7.89682 L 23.5621,-7.80313 L 23.1884,-7.75591 z
M -21.5631,16.1614 L -20.9549,16.0053 L -20.3711,15.7741 L -19.8209,15.4716 L -19.3129,15.1026 L -18.8551,14.6727
 L -18.4549,14.1889 L -18.1185,13.6588 L -17.8511,13.0906 L -17.6571,12.4934 L -17.5394,11.8767 L -17.5,11.25
 L -17.5394,10.6233 L -17.6571,10.0065 L -17.8511,9.40936 L -18.1185,8.84122 L -18.4549,8.31107 L -18.8551,7.82726
 L -19.3129,7.39743 L -19.8209,7.02835 L -20.3711,6.72586 L -20.9549,6.49471 L -21.5631,6.33856 L -22.186,6.25986
 L -22.8139,6.25986 L -23.4369,6.33856 L -24.0451,6.49471 L -24.6289,6.72586 L -25.1791,7.02835 L -25.6871,7.39743
 L -26.1448,7.82726 L -26.5451,8.31107 L -26.8815,8.84122 L -27.1489,9.40936 L -27.3429,10.0065 L -27.4606,10.6233
 L -27.5,11.25 L -27.4606,11.8767 L -27.3429,12.4934 L -27.1489,13.0906 L -26.8815,13.6588 L -26.5451,14.1889
 L -26.1448,14.6727 L -25.6871,15.1026 L -25.1791,15.4716 L -24.6289,15.7741 L -24.0451,16.0053 L -23.4369,16.1614
 L -22.8139,16.2401 L -22.186,16.2401 z
M -22.5942,12.747 L -22.7811,12.7234 L -22.9635,12.6766 L -23.1387,12.6072 L -23.3037,12.5165 L -23.4561,12.4058
 L -23.5934,12.2768 L -23.7135,12.1317 L -23.8145,11.9726 L -23.8947,11.8022 L -23.9529,11.623 L -23.9882,11.438
 L -24,11.25 L -23.9882,11.062 L -23.9529,10.877 L -23.8947,10.6978 L -23.8145,10.5274 L -23.7135,10.3683
 L -23.5934,10.2232 L -23.4561,10.0942 L -23.3037,9.98351 L -23.1387,9.89275 L -22.9635,9.82341 L -22.7811,9.77657
 L -22.5942,9.75294 L -22.4058,9.75294 L -22.2189,9.77657 L -22.0365,9.82341 L -21.8613,9.89275 L -21.6963,9.98351
 L -21.5439,10.0942 L -21.4065,10.2232 L -21.2865,10.3683 L -21.1855,10.5274 L -21.1053,10.6978 L -21.0471,10.877
 L -21.0118,11.062 L -21,11.25 L -21.0118,11.438 L -21.0471,11.623 L -21.1053,11.8022 L -21.1855,11.9726
 L -21.2865,12.1317 L -21.4065,12.2768 L -21.5439,12.4058 L -21.6963,12.5165 L -21.8613,12.6072 L -22.0365,12.6766
 L -22.2189,12.7234 L -22.4058,12.747 z
" stroke="black" fill="lightgray" stroke-width="0.5"/>
</svg>
