<?xml version="1.0" standalone="no"?>
<!DOCTYPE svg PUBLIC "-//W3C//DTD SVG 1.1//EN" "http://www.w3.org/Graphics/SVG/1.1/DTD/svg11.dtd">
<svg width="44mm" height="153mm" viewBox="-22 -153 44 153" xmlns="http://www.w3.org/2000/svg" version="1.1">
<title>OpenSCAD Model</title>
<path d="
M 22,-147.5 L 21.9606,-148.127 L 21.8429,-148.743 L 21.6489,-149.341 L 21.3815,-149.909 L 21.0451,-150.439
 L 20.6448,-150.923 L 20.1871,-151.353 L 19.6791,-151.722 L 19.1289,-152.024 L 18.5451,-152.255 L 17.9369,-152.411
 L 17.3139,-152.49 L -17.3139,-152.49 L -17.9369,-152.411 L -18.5451,-152.255 L -19.1289,-152.024 L -19.6791,-151.722
 L -20.1871,-151.353 L -20.6448,-150.923 L -21.0451,-150.439 L -21.3815,-149.909 L -21.6489,-149.341 L -21.8429,-148.743
 L -21.9606,-148.127 L -22,-147.5 L -22,-117 L 22,-117 z
M 14.8116,-142.506 L 14.4379,-142.553 L 14.0729,-142.647 L 13.7227,-142.786 L 13.3925,-142.967 L 13.0877,-143.188
 L 12.8131,-143.446 L 12.5729,-143.737 L 12.3711,-144.055 L 12.2107,-144.396 L 12.0942,-144.754 L 12.0237,-145.124
 L 12,-145.5 L 12.0237,-145.876 L 12.0942,-146.246 L 12.2107,-146.604 L 12.3711,-146.945 L 12.5729,-147.263
 L 12.8131,-147.554 L 13.0877,-147.812 L 13.3925,-148.033 L 13.7227,-148.214 L 14.0729,-148.353 L 14.4379,-148.447
 L 14.8116,-148.494 L 15.1884,-148.494 L 15.5621,-148.447 L 15.927,-148.353 L 16.2773,-148.214 L 16.6075,-148.033
 L 16.9123,-147.812 L 17.1869,-147.554 L 17.427,-147.263 L 17.6289,-146.945 L 17.7893,-146.604 L 17.9057,-146.246
 L 17.9763,-145.876 L 18,-145.5 L 17.9763,-145.124 L 17.9057,-144.754 L 17.7893,-144.396 L 17.6289,-144.055
 L 17.427,-143.737 L 17.1869,-143.446 L 16.9123,-143.188 L 16.6075,-142.967 L 16.2773,-142.786 L 15.927,-142.647
 L 15.5621,-142.553 L 15.1884,-142.506 z
M -0.18837,-142.506 L -0.562134,-142.553 L -0.927048,-142.647 L -1.27733,-142.786 L -1.60747,-142.967 L -1.91226,-143.188
 L -2.1869,-143.446 L -2.42705,-143.737 L -2.62891,-144.055 L -2.78932,-144.396 L -2.90575,-144.754 L -2.97633,-145.124
 L -3,-145.5 L -2.97633,-145.876 L -2.90575,-146.246 L -2.78932,-146.604 L -2.62891,-146.945 L -2.42705,-147.263
 L -2.1869,-147.554 L -1.91226,-147.812 L -1.60747,-148.033 L -1.27733,-148.214 L -0.927048,-148.353 L -0.562134,-148.447
 L -0.18837,-148.494 L 0.18837,-148.494 L 0.562134,-148.447 L 0.927048,-148.353 L 1.27733,-148.214 L 1.60747,-148.033
 L 1.91226,-147.812 L 2.1869,-147.554 L 2.42705,-147.263 L 2.62891,-146.945 L 2.78932,-146.604 L 2.90575,-146.246
 L 2.97633,-145.876 L 3,-145.5 L 2.97633,-145.124 L 2.90575,-144.754 L 2.78932,-144.396 L 2.62891,-144.055
 L 2.42705,-143.737 L 2.1869,-143.446 L 1.91226,-143.188 L 1.60747,-142.967 L 1.27733,-142.786 L 0.927048,-142.647
 L 0.562134,-142.553 L 0.18837,-142.506 z
M -15.1884,-142.506 L -15.5621,-142.553 L -15.927,-142.647 L -16.2773,-142.786 L -16.6075,-142.967 L -16.9123,-143.188
 L -17.1869,-143.446 L -17.427,-143.737 L -17.6289,-144.055 L -17.7893,-144.396 L -17.9057,-144.754 L -17.9763,-145.124
 L -18,-145.5 L -17.9763,-145.876 L -17.9057,-146.246 L -17.7893,-146.604 L -17.6289,-146.945 L -17.427,-147.263
 L -17.1869,-147.554 L -16.9123,-147.812 L -16.6075,-148.033 L -16.2773,-148.214 L -15.927,-148.353 L -15.5621,-148.447
 L -15.1884,-148.494 L -14.8116,-148.494 L -14.4379,-148.447 L -14.0729,-148.353 L -13.7227,-148.214 L -13.3925,-148.033
 L -13.0877,-147.812 L -12.8131,-147.554 L -12.5729,-147.263 L -12.3711,-146.945 L -12.2107,-146.604 L -12.0942,-146.246
 L -12.0237,-145.876 L -12,-145.5 L -12.0237,-145.124 L -12.0942,-144.754 L -12.2107,-144.396 L -12.3711,-144.055
 L -12.5729,-143.737 L -12.8131,-143.446 L -13.0877,-143.188 L -13.3925,-142.967 L -13.7227,-142.786 L -14.0729,-142.647
 L -14.4379,-142.553 L -14.8116,-142.506 z
M -0.18837,-127.506 L -0.562134,-127.553 L -0.927048,-127.647 L -1.27733,-127.786 L -1.60747,-127.967 L -1.91226,-128.188
 L -2.1869,-128.446 L -2.42705,-128.737 L -2.62891,-129.055 L -2.78932,-129.396 L -2.90575,-129.754 L -2.97633,-130.124
 L -3,-130.5 L -2.97633,-130.876 L -2.90575,-131.246 L -2.78932,-131.604 L -2.62891,-131.945 L -2.42705,-132.263
 L -2.1869,-132.554 L -1.91226,-132.812 L -1.60747,-133.033 L -1.27733,-133.214 L -0.927048,-133.353 L -0.562134,-133.447
 L -0.18837,-133.494 L 0.18837,-133.494 L 0.562134,-133.447 L 0.927048,-133.353 L 1.27733,-133.214 L 1.60747,-133.033
 L 1.91226,-132.812 L 2.1869,-132.554 L 2.42705,-132.263 L 2.62891,-131.945 L 2.78932,-131.604 L 2.90575,-131.246
 L 2.97633,-130.876 L 3,-130.5 L 2.97633,-130.124 L 2.90575,-129.754 L 2.78932,-129.396 L 2.62891,-129.055
 L 2.42705,-128.737 L 2.1869,-128.446 L 1.91226,-128.188 L 1.60747,-127.967 L 1.27733,-127.786 L 0.927048,-127.647
 L 0.562134,-127.553 L 0.18837,-127.506 z
M -15.1884,-127.506 L -15.5621,-127.553 L -15.927,-127.647 L -16.2773,-127.786 L -16.6075,-127.967 L -16.9123,-128.188
 L -17.1869,-128.446 L -17.427,-128.737 L -17.6289,-129.055 L -17.7893,-129.396 L -17.9057,-129.754 L -17.9763,-130.124
 L -18,-130.5 L -17.9763,-130.876 L -17.9057,-131.246 L -17.7893,-131.604 L -17.6289,-131.945 L -17.427,-132.263
 L -17.1869,-132.554 L -16.9123,-132.812 L -16.6075,-133.033 L -16.2773,-133.214 L -15.927,-133.353 L -15.5621,-133.447
 L -15.1884,-133.494 L -14.8116,-133.494 L -14.4379,-133.447 L -14.0729,-133.353 L -13.7227,-133.214 L -13.3925,-133.033
 L -13.0877,-132.812 L -12.8131,-132.554 L -12.5729,-132.263 L -12.3711,-131.945 L -12.2107,-131.604 L -12.0942,-131.246
 L -12.0237,-130.876 L -12,-130.5 L -12.0237,-130.124 L -12.0942,-129.754 L -12.2107,-129.396 L -12.3711,-129.055
 L -12.5729,-128.737 L -12.8131,-128.446 L -13.0877,-128.188 L -13.3925,-127.967 L -13.7227,-127.786 L -14.0729,-127.647
 L -14.4379,-127.553 L -14.8116,-127.506 z
M 14.8116,-127.506 L 14.4379,-127.553 L 14.0729,-127.647 L 13.7227,-127.786 L 13.3925,-127.967 L 13.0877,-128.188
 L 12.8131,-128.446 L 12.5729,-128.737 L 12.3711,-129.055 L 12.2107,-129.396 L 12.0942,-129.754 L 12.0237,-130.124
 L 12,-130.5 L 12.0237,-130.876 L 12.0942,-131.246 L 12.2107,-131.604 L 12.3711,-131.945 L 12.5729,-132.263
 L 12.8131,-132.554 L 13.0877,-132.812 L 13.3925,-133.033 L 13.7227,-133.214 L 14.0729,-133.353 L 14.4379,-133.447
 L 14.8116,-133.494 L 15.1884,-133.494 L 15.5621,-133.447 L 15.927,-133.353 L 16.2773,-133.214 L 16.6075,-133.033
 L 16.9123,-132.812 L 17.1869,-132.554 L 17.427,-132.263 L 17.6289,-131.945 L 17.7893,-131.604 L 17.9057,-131.246
 L 17.9763,-130.876 L 18,-130.5 L 17.9763,-130.124 L 17.9057,-129.754 L 17.7893,-129.396 L 17.6289,-129.055
 L 17.427,-128.737 L 17.1869,-128.446 L 16.9123,-128.188 L 16.6075,-127.967 L 16.2773,-127.786 L 15.927,-127.647
 L 15.5621,-127.553 L 15.1884,-127.506 z
M -7.64441,-128.205 L -7.93097,-128.241 L -8.21072,-128.313 L -8.47928,-128.419 L -8.73239,-128.558 L -8.96606,-128.728
 L -9.17662,-128.926 L -9.36073,-129.148 L -9.5155,-129.392 L -9.63847,-129.653 L -9.72774,-129.928 L -9.78186,-130.212
 L -9.79999,-130.5 L -9.78186,-130.788 L -9.72774,-131.072 L -9.63847,-131.347 L -9.5155,-131.608 L -9.36073,-131.852
 L -9.17662,-132.074 L -8.96606,-132.272 L -8.73239,-132.442 L -8.47928,-132.581 L -8.21072,-132.687 L -7.93097,-132.759
 L -7.64441,-132.795 L -7.35558,-132.795 L -7.06902,-132.759 L -6.78926,-132.687 L -6.52071,-132.581 L -6.26759,-132.442
 L -6.03392,-132.272 L -5.82336,-132.074 L -5.63925,-131.852 L -5.48448,-131.608 L -5.36151,-131.347 L -5.27225,-131.072
 L -5.21812,-130.788 L -5.2,-130.5 L -5.21812,-130.212 L -5.27225,-129.928 L -5.36151,-129.653 L -5.48448,-129.392
 L -5.63925,-129.148 L -5.82336,-128.926 L -6.03392,-128.728 L -6.26759,-128.558 L -6.52071,-128.419 L -6.78926,-128.313
 L -7.06902,-128.241 L -7.35558,-128.205 z
M 7.35558,-128.205 L 7.06902,-128.241 L 6.78926,-128.313 L 6.52071,-128.419 L 6.26759,-128.558 L 6.03392,-128.728
 L 5.82336,-128.926 L 5.63925,-129.148 L 5.48448,-129.392 L 5.36151,-129.653 L 5.27225,-129.928 L 5.21812,-130.212
 L 5.2,-130.5 L 5.21812,-130.788 L 5.27225,-131.072 L 5.36151,-131.347 L 5.48448,-131.608 L 5.63925,-131.852
 L 5.82336,-132.074 L 6.03392,-132.272 L 6.26759,-132.442 L 6.52071,-132.581 L 6.78926,-132.687 L 7.06902,-132.759
 L 7.35558,-132.795 L 7.64441,-132.795 L 7.93097,-132.759 L 8.21072,-132.687 L 8.47928,-132.581 L 8.73239,-132.442
 L 8.96606,-132.272 L 9.17662,-132.074 L 9.36073,-131.852 L 9.5155,-131.608 L 9.63847,-131.347 L 9.72774,-131.072
 L 9.78186,-130.788 L 9.79999,-130.5 L 9.78186,-130.212 L 9.72774,-129.928 L 9.63847,-129.653 L 9.5155,-129.392
 L 9.36073,-129.148 L 9.17662,-128.926 L 8.96606,-128.728 L 8.73239,-128.558 L 8.47928,-128.419 L 8.21072,-128.313
 L 7.93097,-128.241 L 7.64441,-128.205 z
M -3.51418,-120.6 L -3.51418,-126 L 3.51418,-126 L 3.51418,-120.6 z
M 11.4858,-120.6 L 11.4858,-126 L 18.5142,-126 L 18.5142,-120.6 z
M -18.5142,-120.6 L -18.5142,-126 L -11.4858,-126 L -11.4858,-120.6 z
M -17.5307,-81.6 L -20.2462,-81.6 L -20.2462,-87 L -17.5307,-87 L -17.5307,-89.9 L -17.6289,-90.0547
 L -17.7893,-90.3956 L -17.9057,-90.7539 L -17.9763,-91.124 L -18,-91.5 L -17.9763,-91.876 L -17.9057,-92.2461
 L -17.7893,-92.6044 L -17.6289,-92.9453 L -17.427,-93.2634 L -17.1869,-93.5536 L -16.9123,-93.8115 L -16.6075,-94.033
 L -16.2773,-94.2145 L -15.927,-94.3532 L -15.5621,-94.4469 L -15.1884,-94.4941 L -14.8116,-94.4941 L -14.4379,-94.4469
 L -14.0729,-94.3532 L -13.7227,-94.2145 L -13.3925,-94.033 L -13.0877,-93.8115 L -12.8131,-93.5536 L -12.5729,-93.2634
 L -12.3711,-92.9453 L -12.2107,-92.6044 L -12.0942,-92.2461 L -12.0237,-91.876 L -12,-91.5 L -12.0237,-91.124
 L -12.0942,-90.7539 L -12.2107,-90.3956 L -12.3711,-90.0547 L -12.4693,-89.9 L -12.4693,-87 L -9.75375,-87
 L -9.75375,-81.6 L -12.4693,-81.6 L -12.4693,-78 L -2.53072,-78 L -2.53072,-81.6 L -5.24623,-81.6
 L -5.24623,-87 L -2.53072,-87 L -2.53072,-89.9 L -2.62891,-90.0547 L -2.78932,-90.3956 L -2.90575,-90.7539
 L -2.97633,-91.124 L -3,-91.5 L -2.97633,-91.876 L -2.90575,-92.2461 L -2.78932,-92.6044 L -2.62891,-92.9453
 L -2.42705,-93.2634 L -2.1869,-93.5536 L -1.91226,-93.8115 L -1.60747,-94.033 L -1.27733,-94.2145 L -0.927048,-94.3532
 L -0.562134,-94.4469 L -0.18837,-94.4941 L 0.18837,-94.4941 L 0.562134,-94.4469 L 0.927048,-94.3532 L 1.27733,-94.2145
 L 1.60747,-94.033 L 1.91226,-93.8115 L 2.1869,-93.5536 L 2.42705,-93.2634 L 2.62891,-92.9453 L 2.78932,-92.6044
 L 2.90575,-92.2461 L 2.97633,-91.876 L 3,-91.5 L 2.97633,-91.124 L 2.90575,-90.7539 L 2.78932,-90.3956
 L 2.62891,-90.0547 L 2.53072,-89.9 L 2.53072,-87 L 5.24623,-87 L 5.24623,-81.6 L 2.53072,-81.6
 L 2.53072,-78 L 12.4693,-78 L 12.4693,-81.6 L 9.75375,-81.6 L 9.75375,-87 L 12.4693,-87
 L 12.4693,-89.9 L 12.3711,-90.0547 L 12.2107,-90.3956 L 12.0942,-90.7539 L 12.0237,-91.124 L 12,-91.5
 L 12.0237,-91.876 L 12.0942,-92.2461 L 12.2107,-92.6044 L 12.3711,-92.9453 L 12.5729,-93.2634 L 12.8131,-93.5536
 L 13.0877,-93.8115 L 13.3925,-94.033 L 13.7227,-94.2145 L 14.0729,-94.3532 L 14.4379,-94.4469 L 14.8116,-94.4941
 L 15.1884,-94.4941 L 15.5621,-94.4469 L 15.927,-94.3532 L 16.2773,-94.2145 L 16.6075,-94.033 L 16.9123,-93.8115
 L 17.1869,-93.5536 L 17.427,-93.2634 L 17.6289,-92.9453 L 17.7893,-92.6044 L 17.9057,-92.2461 L 17.9763,-91.876
 L 18,-91.5 L 17.9763,-91.124 L 17.9057,-90.7539 L 17.7893,-90.3956 L 17.6289,-90.0547 L 17.5307,-89.9
 L 17.5307,-87 L 20.2462,-87 L 20.2462,-81.6 L 17.5307,-81.6 L 17.5307,-78 L 22,-78
 L 22,-108.5 L 21.9606,-109.127 L 21.8429,-109.743 L 21.6489,-110.341 L 21.3815,-110.909 L 21.0451,-111.439
 L 20.6448,-111.923 L 20.1871,-112.353 L 19.6791,-112.722 L 19.1289,-113.024 L 18.5451,-113.255 L 17.9369,-113.411
 L 17.3139,-113.49 L -17.3139,-113.49 L -17.9369,-113.411 L -18.5451,-113.255 L -19.1289,-113.024 L -19.6791,-112.722
 L -20.1871,-112.353 L -20.6448,-111.923 L -21.0451,-111.439 L -21.3815,-110.909 L -21.6489,-110.341 L -21.8429,-109.743
 L -21.9606,-109.127 L -22,-108.5 L -22,-78 L -17.5307,-78 z
M -0.18837,-103.506 L -0.562134,-103.553 L -0.927048,-103.647 L -1.27733,-103.786 L -1.60747,-103.967 L -1.91226,-104.188
 L -2.1869,-104.446 L -2.42705,-104.737 L -2.62891,-105.055 L -2.78932,-105.396 L -2.90575,-105.754 L -2.97633,-106.124
 L -3,-106.5 L -2.97633,-106.876 L -2.90575,-107.246 L -2.78932,-107.604 L -2.62891,-107.945 L -2.42705,-108.263
 L -2.1869,-108.554 L -1.91226,-108.812 L -1.60747,-109.033 L -1.27733,-109.214 L -0.927048,-109.353 L -0.562134,-109.447
 L -0.18837,-109.494 L 0.18837,-109.494 L 0.562134,-109.447 L 0.927048,-109.353 L 1.27733,-109.214 L 1.60747,-109.033
 L 1.91226,-108.812 L 2.1869,-108.554 L 2.42705,-108.263 L 2.62891,-107.945 L 2.78932,-107.604 L 2.90575,-107.246
 L 2.97633,-106.876 L 3,-106.5 L 2.97633,-106.124 L 2.90575,-105.754 L 2.78932,-105.396 L 2.62891,-105.055
 L 2.42705,-104.737 L 2.1869,-104.446 L 1.91226,-104.188 L 1.60747,-103.967 L 1.27733,-103.786 L 0.927048,-103.647
 L 0.562134,-103.553 L 0.18837,-103.506 z
M 14.8116,-103.506 L 14.4379,-103.553 L 14.0729,-103.647 L 13.7227,-103.786 L 13.3925,-103.967 L 13.0877,-104.188
 L 12.8131,-104.446 L 12.5729,-104.737 L 12.3711,-105.055 L 12.2107,-105.396 L 12.0942,-105.754 L 12.0237,-106.124
 L 12,-106.5 L 12.0237,-106.876 L 12.0942,-107.246 L 12.2107,-107.604 L 12.3711,-107.945 L 12.5729,-108.263
 L 12.8131,-108.554 L 13.0877,-108.812 L 13.3925,-109.033 L 13.7227,-109.214 L 14.0729,-109.353 L 14.4379,-109.447
 L 14.8116,-109.494 L 15.1884,-109.494 L 15.5621,-109.447 L 15.927,-109.353 L 16.2773,-109.214 L 16.6075,-109.033
 L 16.9123,-108.812 L 17.1869,-108.554 L 17.427,-108.263 L 17.6289,-107.945 L 17.7893,-107.604 L 17.9057,-107.246
 L 17.9763,-106.876 L 18,-106.5 L 17.9763,-106.124 L 17.9057,-105.754 L 17.7893,-105.396 L 17.6289,-105.055
 L 17.427,-104.737 L 17.1869,-104.446 L 16.9123,-104.188 L 16.6075,-103.967 L 16.2773,-103.786 L 15.927,-103.647
 L 15.5621,-103.553 L 15.1884,-103.506 z
M -15.1884,-103.506 L -15.5621,-103.553 L -15.927,-103.647 L -16.2773,-103.786 L -16.6075,-103.967 L -16.9123,-104.188
 L -17.1869,-104.446 L -17.427,-104.737 L -17.6289,-105.055 L -17.7893,-105.396 L -17.9057,-105.754 L -17.9763,-106.124
 L -18,-106.5 L -17.9763,-106.876 L -17.9057,-107.246 L -17.7893,-107.604 L -17.6289,-107.945 L -17.427,-108.263
 L -17.1869,-108.554 L -16.9123,-108.812 L -16.6075,-109.033 L -16.2773,-109.214 L -15.927,-109.353 L -15.5621,-109.447
 L -15.1884,-109.494 L -14.8116,-109.494 L -14.4379,-109.447 L -14.0729,-109.353 L -13.7227,-109.214 L -13.3925,-109.033
 L -13.0877,-108.812 L -12.8131,-108.554 L -12.5729,-108.263 L -12.3711,-107.945 L -12.2107,-107.604 L -12.0942,-107.246
 L -12.0237,-106.876 L -12,-106.5 L -12.0237,-106.124 L -12.0942,-105.754 L -12.2107,-105.396 L -12.3711,-105.055
 L -12.5729,-104.737 L -12.8131,-104.446 L -13.0877,-104.188 L -13.3925,-103.967 L -13.7227,-103.786 L -14.0729,-103.647
 L -14.4379,-103.553 L -14.8116,-103.506 z
M -9.08675,-88.7517 L -10.6735,-91.5 L -9.08675,-94.2483 L -5.91325,-94.2483 L -4.32651,-91.5 L -5.91325,-88.7517
 z
M 5.91325,-88.7517 L 4.32651,-91.5 L 5.91325,-94.2483 L 9.08675,-94.2483 L 10.6735,-91.5 L 9.08675,-88.7517
 z
M -17.5942,-42.6 L -20.304,-42.6 L -20.304,-48 L -17.5942,-48 L -17.5942,-51 L -17.6289,-51.0547
 L -17.7893,-51.3956 L -17.9057,-51.7539 L -17.9763,-52.124 L -18,-52.5 L -17.9763,-52.876 L -17.9057,-53.2461
 L -17.7893,-53.6044 L -17.6289,-53.9453 L -17.427,-54.2634 L -17.1869,-54.5536 L -16.9123,-54.8115 L -16.6075,-55.033
 L -16.2773,-55.2145 L -15.927,-55.3532 L -15.5621,-55.4469 L -15.1884,-55.4941 L -14.8116,-55.4941 L -14.4379,-55.4469
 L -14.0729,-55.3532 L -13.7227,-55.2145 L -13.3925,-55.033 L -13.0877,-54.8115 L -12.8131,-54.5536 L -12.5729,-54.2634
 L -12.3711,-53.9453 L -12.2107,-53.6044 L -12.0942,-53.2461 L -12.0237,-52.876 L -12,-52.5 L -12.0237,-52.124
 L -12.0942,-51.7539 L -12.2107,-51.3956 L -12.3711,-51.0547 L -12.4058,-51 L -12.4058,-48 L -9.69603,-48
 L -9.69603,-42.6 L -12.4058,-42.6 L -12.4058,-39 L -2.59418,-39 L -2.59418,-42.6 L -5.30396,-42.6
 L -5.30396,-48 L -2.59418,-48 L -2.59418,-51 L -2.62891,-51.0547 L -2.78932,-51.3956 L -2.90575,-51.7539
 L -2.97633,-52.124 L -3,-52.5 L -2.97633,-52.876 L -2.90575,-53.2461 L -2.78932,-53.6044 L -2.62891,-53.9453
 L -2.42705,-54.2634 L -2.1869,-54.5536 L -1.91226,-54.8115 L -1.60747,-55.033 L -1.27733,-55.2145 L -0.927048,-55.3532
 L -0.562134,-55.4469 L -0.18837,-55.4941 L 0.18837,-55.4941 L 0.562134,-55.4469 L 0.927048,-55.3532 L 1.27733,-55.2145
 L 1.60747,-55.033 L 1.91226,-54.8115 L 2.1869,-54.5536 L 2.42705,-54.2634 L 2.62891,-53.9453 L 2.78932,-53.6044
 L 2.90575,-53.2461 L 2.97633,-52.876 L 3,-52.5 L 2.97633,-52.124 L 2.90575,-51.7539 L 2.78932,-51.3956
 L 2.62891,-51.0547 L 2.59418,-51 L 2.59418,-48 L 5.30396,-48 L 5.30396,-42.6 L 2.59418,-42.6
 L 2.59418,-39 L 12.4058,-39 L 12.4058,-42.6 L 9.69603,-42.6 L 9.69603,-48 L 12.4058,-48
 L 12.4058,-51 L 12.3711,-51.0547 L 12.2107,-51.3956 L 12.0942,-51.7539 L 12.0237,-52.124 L 12,-52.5
 L 12.0237,-52.876 L 12.0942,-53.2461 L 12.2107,-53.6044 L 12.3711,-53.9453 L 12.5729,-54.2634 L 12.8131,-54.5536
 L 13.0877,-54.8115 L 13.3925,-55.033 L 13.7227,-55.2145 L 14.0729,-55.3532 L 14.4379,-55.4469 L 14.8116,-55.4941
 L 15.1884,-55.4941 L 15.5621,-55.4469 L 15.927,-55.3532 L 16.2773,-55.2145 L 16.6075,-55.033 L 16.9123,-54.8115
 L 17.1869,-54.5536 L 17.427,-54.2634 L 17.6289,-53.9453 L 17.7893,-53.6044 L 17.9057,-53.2461 L 17.9763,-52.876
 L 18,-52.5 L 17.9763,-52.124 L 17.9057,-51.7539 L 17.7893,-51.3956 L 17.6289,-51.0547 L 17.5942,-51
 L 17.5942,-48 L 20.304,-48 L 20.304,-42.6 L 17.5942,-42.6 L 17.5942,-39 L 22,-39
 L 22,-69.5 L 21.9606,-70.1267 L 21.8429,-70.7434 L 21.6489,-71.3406 L 21.3815,-71.9088 L 21.0451,-72.4389
 L 20.6448,-72.9227 L 20.1871,-73.3526 L 19.6791,-73.7216 L 19.1289,-74.0241 L 18.5451,-74.2553 L 17.9369,-74.4114
 L 17.3139,-74.4901 L -17.3139,-74.4901 L -17.9369,-74.4114 L -18.5451,-74.2553 L -19.1289,-74.0241 L -19.6791,-73.7216
 L -20.1871,-73.3526 L -20.6448,-72.9227 L -21.0451,-72.4389 L -21.3815,-71.9088 L -21.6489,-71.3406 L -21.8429,-70.7434
 L -21.9606,-70.1267 L -22,-69.5 L -22,-39 L -17.5942,-39 z
M -15.1884,-64.5059 L -15.5621,-64.5531 L -15.927,-64.6468 L -16.2773,-64.7855 L -16.6075,-64.967 L -16.9123,-65.1884
 L -17.1869,-65.4464 L -17.427,-65.7366 L -17.6289,-66.0547 L -17.7893,-66.3956 L -17.9057,-66.7539 L -17.9763,-67.124
 L -18,-67.5 L -17.9763,-67.876 L -17.9057,-68.2461 L -17.7893,-68.6044 L -17.6289,-68.9453 L -17.427,-69.2634
 L -17.1869,-69.5536 L -16.9123,-69.8115 L -16.6075,-70.033 L -16.2773,-70.2145 L -15.927,-70.3532 L -15.5621,-70.4469
 L -15.1884,-70.4941 L -14.8116,-70.4941 L -14.4379,-70.4469 L -14.0729,-70.3532 L -13.7227,-70.2145 L -13.3925,-70.033
 L -13.0877,-69.8115 L -12.8131,-69.5536 L -12.5729,-69.2634 L -12.3711,-68.9453 L -12.2107,-68.6044 L -12.0942,-68.2461
 L -12.0237,-67.876 L -12,-67.5 L -12.0237,-67.124 L -12.0942,-66.7539 L -12.2107,-66.3956 L -12.3711,-66.0547
 L -12.5729,-65.7366 L -12.8131,-65.4464 L -13.0877,-65.1884 L -13.3925,-64.967 L -13.7227,-64.7855 L -14.0729,-64.6468
 L -14.4379,-64.5531 L -14.8116,-64.5059 z
M 14.8116,-64.5059 L 14.4379,-64.5531 L 14.0729,-64.6468 L 13.7227,-64.7855 L 13.3925,-64.967 L 13.0877,-65.1884
 L 12.8131,-65.4464 L 12.5729,-65.7366 L 12.3711,-66.0547 L 12.2107,-66.3956 L 12.0942,-66.7539 L 12.0237,-67.124
 L 12,-67.5 L 12.0237,-67.876 L 12.0942,-68.2461 L 12.2107,-68.6044 L 12.3711,-68.9453 L 12.5729,-69.2634
 L 12.8131,-69.5536 L 13.0877,-69.8115 L 13.3925,-70.033 L 13.7227,-70.2145 L 14.0729,-70.3532 L 14.4379,-70.4469
 L 14.8116,-70.4941 L 15.1884,-70.4941 L 15.5621,-70.4469 L 15.927,-70.3532 L 16.2773,-70.2145 L 16.6075,-70.033
 L 16.9123,-69.8115 L 17.1869,-69.5536 L 17.427,-69.2634 L 17.6289,-68.9453 L 17.7893,-68.6044 L 17.9057,-68.2461
 L 17.9763,-67.876 L 18,-67.5 L 17.9763,-67.124 L 17.9057,-66.7539 L 17.7893,-66.3956 L 17.6289,-66.0547
 L 17.427,-65.7366 L 17.1869,-65.4464 L 16.9123,-65.1884 L 16.6075,-64.967 L 16.2773,-64.7855 L 15.927,-64.6468
 L 15.5621,-64.5531 L 15.1884,-64.5059 z
M -0.18837,-64.5059 L -0.562134,-64.5531 L -0.927048,-64.6468 L -1.27733,-64.7855 L -1.60747,-64.967 L -1.91226,-65.1884
 L -2.1869,-65.4464 L -2.42705,-65.7366 L -2.62891,-66.0547 L -2.78932,-66.3956 L -2.90575,-66.7539 L -2.97633,-67.124
 L -3,-67.5 L -2.97633,-67.876 L -2.90575,-68.2461 L -2.78932,-68.6044 L -2.62891,-68.9453 L -2.42705,-69.2634
 L -2.1869,-69.5536 L -1.91226,-69.8115 L -1.60747,-70.033 L -1.27733,-70.2145 L -0.927048,-70.3532 L -0.562134,-70.4469
 L -0.18837,-70.4941 L 0.18837,-70.4941 L 0.562134,-70.4469 L 0.927048,-70.3532 L 1.27733,-70.2145 L 1.60747,-70.033
 L 1.91226,-69.8115 L 2.1869,-69.5536 L 2.42705,-69.2634 L 2.62891,-68.9453 L 2.78932,-68.6044 L 2.90575,-68.2461
 L 2.97633,-67.876 L 3,-67.5 L 2.97633,-67.124 L 2.90575,-66.7539 L 2.78932,-66.3956 L 2.62891,-66.0547
 L 2.42705,-65.7366 L 2.1869,-65.4464 L 1.91226,-65.1884 L 1.60747,-64.967 L 1.27733,-64.7855 L 0.927048,-64.6468
 L 0.562134,-64.5531 L 0.18837,-64.5059 z
M 5.91325,-49.7517 L 4.32651,-52.5 L 5.91325,-55.2483 L 9.08675,-55.2483 L 10.6735,-52.5 L 9.08675,-49.7517
 z
M -9.08675,-49.7517 L -10.6735,-52.5 L -9.08675,-55.2483 L -5.91325,-55.2483 L -4.32651,-52.5 L -5.91325,-49.7517
 z
M 22,-30.5 L 21.9606,-31.1267 L 21.8429,-31.7434 L 21.6489,-32.3406 L 21.3815,-32.9088 L 21.0451,-33.4389
 L 20.6448,-33.9227 L 20.1871,-34.3526 L 19.6791,-34.7216 L 19.1289,-35.0241 L 18.5451,-35.2553 L 17.9369,-35.4114
 L 17.3139,-35.4901 L -17.3139,-35.4901 L -17.9369,-35.4114 L -18.5451,-35.2553 L -19.1289,-35.0241 L -19.6791,-34.7216
 L -20.1871,-34.3526 L -20.6448,-33.9227 L -21.0451,-33.4389 L -21.3815,-32.9088 L -21.6489,-32.3406 L -21.8429,-31.7434
 L -21.9606,-31.1267 L -22,-30.5 L -22,-0 L 22,-0 z
M 14.8116,-25.5059 L 14.4379,-25.5531 L 14.0729,-25.6468 L 13.7227,-25.7855 L 13.3925,-25.967 L 13.0877,-26.1884
 L 12.8131,-26.4464 L 12.5729,-26.7366 L 12.3711,-27.0547 L 12.2107,-27.3956 L 12.0942,-27.7539 L 12.0237,-28.124
 L 12,-28.5 L 12.0237,-28.876 L 12.0942,-29.2461 L 12.2107,-29.6044 L 12.3711,-29.9453 L 12.5729,-30.2634
 L 12.8131,-30.5536 L 13.0877,-30.8115 L 13.3925,-31.033 L 13.7227,-31.2145 L 14.0729,-31.3532 L 14.4379,-31.4469
 L 14.8116,-31.4941 L 15.1884,-31.4941 L 15.5621,-31.4469 L 15.927,-31.3532 L 16.2773,-31.2145 L 16.6075,-31.033
 L 16.9123,-30.8115 L 17.1869,-30.5536 L 17.427,-30.2634 L 17.6289,-29.9453 L 17.7893,-29.6044 L 17.9057,-29.2461
 L 17.9763,-28.876 L 18,-28.5 L 17.9763,-28.124 L 17.9057,-27.7539 L 17.7893,-27.3956 L 17.6289,-27.0547
 L 17.427,-26.7366 L 17.1869,-26.4464 L 16.9123,-26.1884 L 16.6075,-25.967 L 16.2773,-25.7855 L 15.927,-25.6468
 L 15.5621,-25.5531 L 15.1884,-25.5059 z
M -0.18837,-25.5059 L -0.562134,-25.5531 L -0.927048,-25.6468 L -1.27733,-25.7855 L -1.60747,-25.967 L -1.91226,-26.1884
 L -2.1869,-26.4464 L -2.42705,-26.7366 L -2.62891,-27.0547 L -2.78932,-27.3956 L -2.90575,-27.7539 L -2.97633,-28.124
 L -3,-28.5 L -2.97633,-28.876 L -2.90575,-29.2461 L -2.78932,-29.6044 L -2.62891,-29.9453 L -2.42705,-30.2634
 L -2.1869,-30.5536 L -1.91226,-30.8115 L -1.60747,-31.033 L -1.27733,-31.2145 L -0.927048,-31.3532 L -0.562134,-31.4469
 L -0.18837,-31.4941 L 0.18837,-31.4941 L 0.562134,-31.4469 L 0.927048,-31.3532 L 1.27733,-31.2145 L 1.60747,-31.033
 L 1.91226,-30.8115 L 2.1869,-30.5536 L 2.42705,-30.2634 L 2.62891,-29.9453 L 2.78932,-29.6044 L 2.90575,-29.2461
 L 2.97633,-28.876 L 3,-28.5 L 2.97633,-28.124 L 2.90575,-27.7539 L 2.78932,-27.3956 L 2.62891,-27.0547
 L 2.42705,-26.7366 L 2.1869,-26.4464 L 1.91226,-26.1884 L 1.60747,-25.967 L 1.27733,-25.7855 L 0.927048,-25.6468
 L 0.562134,-25.5531 L 0.18837,-25.5059 z
M -15.1884,-25.5059 L -15.5621,-25.5531 L -15.927,-25.6468 L -16.2773,-25.7855 L -16.6075,-25.967 L -16.9123,-26.1884
 L -17.1869,-26.4464 L -17.427,-26.7366 L -17.6289,-27.0547 L -17.7893,-27.3956 L -17.9057,-27.7539 L -17.9763,-28.124
 L -18,-28.5 L -17.9763,-28.876 L -17.9057,-29.2461 L -17.7893,-29.6044 L -17.6289,-29.9453 L -17.427,-30.2634
 L -17.1869,-30.5536 L -16.9123,-30.8115 L -16.6075,-31.033 L -16.2773,-31.2145 L -15.927,-31.3532 L -15.5621,-31.4469
 L -15.1884,-31.4941 L -14.8116,-31.4941 L -14.4379,-31.4469 L -14.0729,-31.3532 L -13.7227,-31.2145 L -13.3925,-31.033
 L -13.0877,-30.8115 L -12.8131,-30.5536 L -12.5729,-30.2634 L -12.3711,-29.9453 L -12.2107,-29.6044 L -12.0942,-29.2461
 L -12.0237,-28.876 L -12,-28.5 L -12.0237,-28.124 L -12.0942,-27.7539 L -12.2107,-27.3956 L -12.3711,-27.0547
 L -12.5729,-26.7366 L -12.8131,-26.4464 L -13.0877,-26.1884 L -13.3925,-25.967 L -13.7227,-25.7855 L -14.0729,-25.6468
 L -14.4379,-25.5531 L -14.8116,-25.5059 z
M -15.1884,-10.5059 L -15.5621,-10.5531 L -15.927,-10.6468 L -16.2773,-10.7855 L -16.6075,-10.967 L -16.9123,-11.1884
 L -17.1869,-11.4464 L -17.427,-11.7366 L -17.6289,-12.0547 L -17.7893,-12.3956 L -17.9057,-12.7539 L -17.9763,-13.124
 L -18,-13.5 L -17.9763,-13.876 L -17.9057,-14.2461 L -17.7893,-14.6044 L -17.6289,-14.9453 L -17.427,-15.2634
 L -17.1869,-15.5536 L -16.9123,-15.8115 L -16.6075,-16.033 L -16.2773,-16.2145 L -15.927,-16.3532 L -15.5621,-16.4469
 L -15.1884,-16.4941 L -14.8116,-16.4941 L -14.4379,-16.4469 L -14.0729,-16.3532 L -13.7227,-16.2145 L -13.3925,-16.033
 L -13.0877,-15.8115 L -12.8131,-15.5536 L -12.5729,-15.2634 L -12.3711,-14.9453 L -12.2107,-14.6044 L -12.0942,-14.2461
 L -12.0237,-13.876 L -12,-13.5 L -12.0237,-13.124 L -12.0942,-12.7539 L -12.2107,-12.3956 L -12.3711,-12.0547
 L -12.5729,-11.7366 L -12.8131,-11.4464 L -13.0877,-11.1884 L -13.3925,-10.967 L -13.7227,-10.7855 L -14.0729,-10.6468
 L -14.4379,-10.5531 L -14.8116,-10.5059 z
M -0.18837,-10.5059 L -0.562134,-10.5531 L -0.927048,-10.6468 L -1.27733,-10.7855 L -1.60747,-10.967 L -1.91226,-11.1884
 L -2.1869,-11.4464 L -2.42705,-11.7366 L -2.62891,-12.0547 L -2.78932,-12.3956 L -2.90575,-12.7539 L -2.97633,-13.124
 L -3,-13.5 L -2.97633,-13.876 L -2.90575,-14.2461 L -2.78932,-14.6044 L -2.62891,-14.9453 L -2.42705,-15.2634
 L -2.1869,-15.5536 L -1.91226,-15.8115 L -1.60747,-16.033 L -1.27733,-16.2145 L -0.927048,-16.3532 L -0.562134,-16.4469
 L -0.18837,-16.4941 L 0.18837,-16.4941 L 0.562134,-16.4469 L 0.927048,-16.3532 L 1.27733,-16.2145 L 1.60747,-16.033
 L 1.91226,-15.8115 L 2.1869,-15.5536 L 2.42705,-15.2634 L 2.62891,-14.9453 L 2.78932,-14.6044 L 2.90575,-14.2461
 L 2.97633,-13.876 L 3,-13.5 L 2.97633,-13.124 L 2.90575,-12.7539 L 2.78932,-12.3956 L 2.62891,-12.0547
 L 2.42705,-11.7366 L 2.1869,-11.4464 L 1.91226,-11.1884 L 1.60747,-10.967 L 1.27733,-10.7855 L 0.927048,-10.6468
 L 0.562134,-10.5531 L 0.18837,-10.5059 z
M 14.8116,-10.5059 L 14.4379,-10.5531 L 14.0729,-10.6468 L 13.7227,-10.7855 L 13.3925,-10.967 L 13.0877,-11.1884
 L 12.8131,-11.4464 L 12.5729,-11.7366 L 12.3711,-12.0547 L 12.2107,-12.3956 L 12.0942,-12.7539 L 12.0237,-13.124
 L 12,-13.5 L 12.0237,-13.876 L 12.0942,-14.2461 L 12.2107,-14.6044 L 12.3711,-14.9453 L 12.5729,-15.2634
 L 12.8131,-15.5536 L 13.0877,-15.8115 L 13.3925,-16.033 L 13.7227,-16.2145 L 14.0729,-16.3532 L 14.4379,-16.4469
 L 14.8116,-16.4941 L 15.1884,-16.4941 L 15.5621,-16.4469 L 15.927,-16.3532 L 16.2773,-16.2145 L 16.6075,-16.033
 L 16.9123,-15.8115 L 17.1869,-15.5536 L 17.427,-15.2634 L 17.6289,-14.9453 L 17.7893,-14.6044 L 17.9057,-14.2461
 L 17.9763,-13.876 L 18,-13.5 L 17.9763,-13.124 L 17.9057,-12.7539 L 17.7893,-12.3956 L 17.6289,-12.0547
 L 17.427,-11.7366 L 17.1869,-11.4464 L 16.9123,-11.1884 L 16.6075,-10.967 L 16.2773,-10.7855 L 15.927,-10.6468
 L 15.5621,-10.5531 L 15.1884,-10.5059 z
M 7.35558,-11.2045 L 7.06902,-11.2407 L 6.78926,-11.3126 L 6.52071,-11.4189 L 6.26759,-11.558 L 6.03392,-11.7278
 L 5.82336,-11.9255 L 5.63925,-12.1481 L 5.48448,-12.392 L 5.36151,-12.6533 L 5.27225,-12.928 L 5.21812,-13.2117
 L 5.2,-13.5 L 5.21812,-13.7883 L 5.27225,-14.072 L 5.36151,-14.3467 L 5.48448,-14.608 L 5.63925,-14.8519
 L 5.82336,-15.0744 L 6.03392,-15.2722 L 6.26759,-15.4419 L 6.52071,-15.5811 L 6.78926,-15.6874 L 7.06902,-15.7592
 L 7.35558,-15.7955 L 7.64441,-15.7955 L 7.93097,-15.7592 L 8.21072,-15.6874 L 8.47928,-15.5811 L 8.73239,-15.4419
 L 8.96606,-15.2722 L 9.17662,-15.0744 L 9.36073,-14.8519 L 9.5155,-14.608 L 9.63847,-14.3467 L 9.72774,-14.072
 L 9.78186,-13.7883 L 9.79999,-13.5 L 9.78186,-13.2117 L 9.72774,-12.928 L 9.63847,-12.6533 L 9.5155,-12.392
 L 9.36073,-12.1481 L 9.17662,-11.9255 L 8.96606,-11.7278 L 8.73239,-11.558 L 8.47928,-11.4189 L 8.21072,-11.3126
 L 7.93097,-11.2407 L 7.64441,-11.2045 z
M -7.64441,-11.2045 L -7.93097,-11.2407 L -8.21072,-11.3126 L -8.47928,-11.4189 L -8.73239,-11.558 L -8.96606,-11.7278
 L -9.17662,-11.9255 L -9.36073,-12.1481 L -9.5155,-12.392 L -9.63847,-12.6533 L -9.72774,-12.928 L -9.78186,-13.2117
 L -9.79999,-13.5 L -9.78186,-13.7883 L -9.72774,-14.072 L -9.63847,-14.3467 L -9.5155,-14.608 L -9.36073,-14.8519
 L -9.17662,-15.0744 L -8.96606,-15.2722 L -8.73239,-15.4419 L -8.47928,-15.5811 L -8.21072,-15.6874 L -7.93097,-15.7592
 L -7.64441,-15.7955 L -7.35558,-15.7955 L -7.06902,-15.7592 L -6.78926,-15.6874 L -6.52071,-15.5811 L -6.26759,-15.4419
 L -6.03392,-15.2722 L -5.82336,-15.0744 L -5.63925,-14.8519 L -5.48448,-14.608 L -5.36151,-14.3467 L -5.27225,-14.072
 L -5.21812,-13.7883 L -5.2,-13.5 L -5.21812,-13.2117 L -5.27225,-12.928 L -5.36151,-12.6533 L -5.48448,-12.392
 L -5.63925,-12.1481 L -5.82336,-11.9255 L -6.03392,-11.7278 L -6.26759,-11.558 L -6.52071,-11.4189 L -6.78926,-11.3126
 L -7.06902,-11.2407 L -7.35558,-11.2045 z
M -18.5719,-3.59999 L -18.5719,-9 L -11.4281,-9 L -11.4281,-3.59999 z
M -3.5719,-3.59999 L -3.5719,-9 L 3.5719,-9 L 3.5719,-3.59999 z
M 11.4281,-3.59999 L 11.4281,-9 L 18.5719,-9 L 18.5719,-3.59999 z
" stroke="black" fill="lightgray" stroke-width="0.5"/>
</svg>
