  0
SECTION
  2
BLOCKS
  0
ENDSEC
  0
SECTION
  2
ENTITIES
  0
LINE
  8
0
 10
22
 20
147.5
 11
21.9606
 21
148.127
  0
LINE
  8
0
 10
21.9606
 20
148.127
 11
21.8429
 21
148.743
  0
LINE
  8
0
 10
21.8429
 20
148.743
 11
21.6489
 21
149.341
  0
LINE
  8
0
 10
21.6489
 20
149.341
 11
21.3815
 21
149.909
  0
LINE
  8
0
 10
21.3815
 20
149.909
 11
21.0451
 21
150.439
  0
LINE
  8
0
 10
21.0451
 20
150.439
 11
20.6448
 21
150.923
  0
LINE
  8
0
 10
20.6448
 20
150.923
 11
20.1871
 21
151.353
  0
LINE
  8
0
 10
20.1871
 20
151.353
 11
19.6791
 21
151.722
  0
LINE
  8
0
 10
19.6791
 20
151.722
 11
19.1289
 21
152.024
  0
LINE
  8
0
 10
19.1289
 20
152.024
 11
18.5451
 21
152.255
  0
LINE
  8
0
 10
18.5451
 20
152.255
 11
17.9369
 21
152.411
  0
LINE
  8
0
 10
17.9369
 20
152.411
 11
17.3139
 21
152.49
  0
LINE
  8
0
 10
17.3139
 20
152.49
 11
-17.3139
 21
152.49
  0
LINE
  8
0
 10
-17.3139
 20
152.49
 11
-17.9369
 21
152.411
  0
LINE
  8
0
 10
-17.9369
 20
152.411
 11
-18.5451
 21
152.255
  0
LINE
  8
0
 10
-18.5451
 20
152.255
 11
-19.1289
 21
152.024
  0
LINE
  8
0
 10
-19.1289
 20
152.024
 11
-19.6791
 21
151.722
  0
LINE
  8
0
 10
-19.6791
 20
151.722
 11
-20.1871
 21
151.353
  0
LINE
  8
0
 10
-20.1871
 20
151.353
 11
-20.6448
 21
150.923
  0
LINE
  8
0
 10
-20.6448
 20
150.923
 11
-21.0451
 21
150.439
  0
LINE
  8
0
 10
-21.0451
 20
150.439
 11
-21.3815
 21
149.909
  0
LINE
  8
0
 10
-21.3815
 20
149.909
 11
-21.6489
 21
149.341
  0
LINE
  8
0
 10
-21.6489
 20
149.341
 11
-21.8429
 21
148.743
  0
LINE
  8
0
 10
-21.8429
 20
148.743
 11
-21.9606
 21
148.127
  0
LINE
  8
0
 10
-21.9606
 20
148.127
 11
-22
 21
147.5
  0
LINE
  8
0
 10
-22
 20
147.5
 11
-22
 21
117
  0
LINE
  8
0
 10
-22
 20
117
 11
22
 21
117
  0
LINE
  8
0
 10
22
 20
117
 11
22
 21
147.5
  0
LINE
  8
0
 10
14.8116
 20
142.506
 11
14.4379
 21
142.553
  0
LINE
  8
0
 10
14.4379
 20
142.553
 11
14.0729
 21
142.647
  0
LINE
  8
0
 10
14.0729
 20
142.647
 11
13.7227
 21
142.786
  0
LINE
  8
0
 10
13.7227
 20
142.786
 11
13.3925
 21
142.967
  0
LINE
  8
0
 10
13.3925
 20
142.967
 11
13.0877
 21
143.188
  0
LINE
  8
0
 10
13.0877
 20
143.188
 11
12.8131
 21
143.446
  0
LINE
  8
0
 10
12.8131
 20
143.446
 11
12.5729
 21
143.737
  0
LINE
  8
0
 10
12.5729
 20
143.737
 11
12.3711
 21
144.055
  0
LINE
  8
0
 10
12.3711
 20
144.055
 11
12.2107
 21
144.396
  0
LINE
  8
0
 10
12.2107
 20
144.396
 11
12.0942
 21
144.754
  0
LINE
  8
0
 10
12.0942
 20
144.754
 11
12.0237
 21
145.124
  0
LINE
  8
0
 10
12.0237
 20
145.124
 11
12
 21
145.5
  0
LINE
  8
0
 10
12
 20
145.5
 11
12.0237
 21
145.876
  0
LINE
  8
0
 10
12.0237
 20
145.876
 11
12.0942
 21
146.246
  0
LINE
  8
0
 10
12.0942
 20
146.246
 11
12.2107
 21
146.604
  0
LINE
  8
0
 10
12.2107
 20
146.604
 11
12.3711
 21
146.945
  0
LINE
  8
0
 10
12.3711
 20
146.945
 11
12.5729
 21
147.263
  0
LINE
  8
0
 10
12.5729
 20
147.263
 11
12.8131
 21
147.554
  0
LINE
  8
0
 10
12.8131
 20
147.554
 11
13.0877
 21
147.812
  0
LINE
  8
0
 10
13.0877
 20
147.812
 11
13.3925
 21
148.033
  0
LINE
  8
0
 10
13.3925
 20
148.033
 11
13.7227
 21
148.214
  0
LINE
  8
0
 10
13.7227
 20
148.214
 11
14.0729
 21
148.353
  0
LINE
  8
0
 10
14.0729
 20
148.353
 11
14.4379
 21
148.447
  0
LINE
  8
0
 10
14.4379
 20
148.447
 11
14.8116
 21
148.494
  0
LINE
  8
0
 10
14.8116
 20
148.494
 11
15.1884
 21
148.494
  0
LINE
  8
0
 10
15.1884
 20
148.494
 11
15.5621
 21
148.447
  0
LINE
  8
0
 10
15.5621
 20
148.447
 11
15.927
 21
148.353
  0
LINE
  8
0
 10
15.927
 20
148.353
 11
16.2773
 21
148.214
  0
LINE
  8
0
 10
16.2773
 20
148.214
 11
16.6075
 21
148.033
  0
LINE
  8
0
 10
16.6075
 20
148.033
 11
16.9123
 21
147.812
  0
LINE
  8
0
 10
16.9123
 20
147.812
 11
17.1869
 21
147.554
  0
LINE
  8
0
 10
17.1869
 20
147.554
 11
17.427
 21
147.263
  0
LINE
  8
0
 10
17.427
 20
147.263
 11
17.6289
 21
146.945
  0
LINE
  8
0
 10
17.6289
 20
146.945
 11
17.7893
 21
146.604
  0
LINE
  8
0
 10
17.7893
 20
146.604
 11
17.9057
 21
146.246
  0
LINE
  8
0
 10
17.9057
 20
146.246
 11
17.9763
 21
145.876
  0
LINE
  8
0
 10
17.9763
 20
145.876
 11
18
 21
145.5
  0
LINE
  8
0
 10
18
 20
145.5
 11
17.9763
 21
145.124
  0
LINE
  8
0
 10
17.9763
 20
145.124
 11
17.9057
 21
144.754
  0
LINE
  8
0
 10
17.9057
 20
144.754
 11
17.7893
 21
144.396
  0
LINE
  8
0
 10
17.7893
 20
144.396
 11
17.6289
 21
144.055
  0
LINE
  8
0
 10
17.6289
 20
144.055
 11
17.427
 21
143.737
  0
LINE
  8
0
 10
17.427
 20
143.737
 11
17.1869
 21
143.446
  0
LINE
  8
0
 10
17.1869
 20
143.446
 11
16.9123
 21
143.188
  0
LINE
  8
0
 10
16.9123
 20
143.188
 11
16.6075
 21
142.967
  0
LINE
  8
0
 10
16.6075
 20
142.967
 11
16.2773
 21
142.786
  0
LINE
  8
0
 10
16.2773
 20
142.786
 11
15.927
 21
142.647
  0
LINE
  8
0
 10
15.927
 20
142.647
 11
15.5621
 21
142.553
  0
LINE
  8
0
 10
15.5621
 20
142.553
 11
15.1884
 21
142.506
  0
LINE
  8
0
 10
15.1884
 20
142.506
 11
14.8116
 21
142.506
  0
LINE
  8
0
 10
-0.18837
 20
142.506
 11
-0.562134
 21
142.553
  0
LINE
  8
0
 10
-0.562134
 20
142.553
 11
-0.927048
 21
142.647
  0
LINE
  8
0
 10
-0.927048
 20
142.647
 11
-1.27733
 21
142.786
  0
LINE
  8
0
 10
-1.27733
 20
142.786
 11
-1.60747
 21
142.967
  0
LINE
  8
0
 10
-1.60747
 20
142.967
 11
-1.91226
 21
143.188
  0
LINE
  8
0
 10
-1.91226
 20
143.188
 11
-2.1869
 21
143.446
  0
LINE
  8
0
 10
-2.1869
 20
143.446
 11
-2.42705
 21
143.737
  0
LINE
  8
0
 10
-2.42705
 20
143.737
 11
-2.62891
 21
144.055
  0
LINE
  8
0
 10
-2.62891
 20
144.055
 11
-2.78932
 21
144.396
  0
LINE
  8
0
 10
-2.78932
 20
144.396
 11
-2.90575
 21
144.754
  0
LINE
  8
0
 10
-2.90575
 20
144.754
 11
-2.97633
 21
145.124
  0
LINE
  8
0
 10
-2.97633
 20
145.124
 11
-3
 21
145.5
  0
LINE
  8
0
 10
-3
 20
145.5
 11
-2.97633
 21
145.876
  0
LINE
  8
0
 10
-2.97633
 20
145.876
 11
-2.90575
 21
146.246
  0
LINE
  8
0
 10
-2.90575
 20
146.246
 11
-2.78932
 21
146.604
  0
LINE
  8
0
 10
-2.78932
 20
146.604
 11
-2.62891
 21
146.945
  0
LINE
  8
0
 10
-2.62891
 20
146.945
 11
-2.42705
 21
147.263
  0
LINE
  8
0
 10
-2.42705
 20
147.263
 11
-2.1869
 21
147.554
  0
LINE
  8
0
 10
-2.1869
 20
147.554
 11
-1.91226
 21
147.812
  0
LINE
  8
0
 10
-1.91226
 20
147.812
 11
-1.60747
 21
148.033
  0
LINE
  8
0
 10
-1.60747
 20
148.033
 11
-1.27733
 21
148.214
  0
LINE
  8
0
 10
-1.27733
 20
148.214
 11
-0.927048
 21
148.353
  0
LINE
  8
0
 10
-0.927048
 20
148.353
 11
-0.562134
 21
148.447
  0
LINE
  8
0
 10
-0.562134
 20
148.447
 11
-0.18837
 21
148.494
  0
LINE
  8
0
 10
-0.18837
 20
148.494
 11
0.18837
 21
148.494
  0
LINE
  8
0
 10
0.18837
 20
148.494
 11
0.562134
 21
148.447
  0
LINE
  8
0
 10
0.562134
 20
148.447
 11
0.927048
 21
148.353
  0
LINE
  8
0
 10
0.927048
 20
148.353
 11
1.27733
 21
148.214
  0
LINE
  8
0
 10
1.27733
 20
148.214
 11
1.60747
 21
148.033
  0
LINE
  8
0
 10
1.60747
 20
148.033
 11
1.91226
 21
147.812
  0
LINE
  8
0
 10
1.91226
 20
147.812
 11
2.1869
 21
147.554
  0
LINE
  8
0
 10
2.1869
 20
147.554
 11
2.42705
 21
147.263
  0
LINE
  8
0
 10
2.42705
 20
147.263
 11
2.62891
 21
146.945
  0
LINE
  8
0
 10
2.62891
 20
146.945
 11
2.78932
 21
146.604
  0
LINE
  8
0
 10
2.78932
 20
146.604
 11
2.90575
 21
146.246
  0
LINE
  8
0
 10
2.90575
 20
146.246
 11
2.97633
 21
145.876
  0
LINE
  8
0
 10
2.97633
 20
145.876
 11
3
 21
145.5
  0
LINE
  8
0
 10
3
 20
145.5
 11
2.97633
 21
145.124
  0
LINE
  8
0
 10
2.97633
 20
145.124
 11
2.90575
 21
144.754
  0
LINE
  8
0
 10
2.90575
 20
144.754
 11
2.78932
 21
144.396
  0
LINE
  8
0
 10
2.78932
 20
144.396
 11
2.62891
 21
144.055
  0
LINE
  8
0
 10
2.62891
 20
144.055
 11
2.42705
 21
143.737
  0
LINE
  8
0
 10
2.42705
 20
143.737
 11
2.1869
 21
143.446
  0
LINE
  8
0
 10
2.1869
 20
143.446
 11
1.91226
 21
143.188
  0
LINE
  8
0
 10
1.91226
 20
143.188
 11
1.60747
 21
142.967
  0
LINE
  8
0
 10
1.60747
 20
142.967
 11
1.27733
 21
142.786
  0
LINE
  8
0
 10
1.27733
 20
142.786
 11
0.927048
 21
142.647
  0
LINE
  8
0
 10
0.927048
 20
142.647
 11
0.562134
 21
142.553
  0
LINE
  8
0
 10
0.562134
 20
142.553
 11
0.18837
 21
142.506
  0
LINE
  8
0
 10
0.18837
 20
142.506
 11
-0.18837
 21
142.506
  0
LINE
  8
0
 10
-15.1884
 20
142.506
 11
-15.5621
 21
142.553
  0
LINE
  8
0
 10
-15.5621
 20
142.553
 11
-15.927
 21
142.647
  0
LINE
  8
0
 10
-15.927
 20
142.647
 11
-16.2773
 21
142.786
  0
LINE
  8
0
 10
-16.2773
 20
142.786
 11
-16.6075
 21
142.967
  0
LINE
  8
0
 10
-16.6075
 20
142.967
 11
-16.9123
 21
143.188
  0
LINE
  8
0
 10
-16.9123
 20
143.188
 11
-17.1869
 21
143.446
  0
LINE
  8
0
 10
-17.1869
 20
143.446
 11
-17.427
 21
143.737
  0
LINE
  8
0
 10
-17.427
 20
143.737
 11
-17.6289
 21
144.055
  0
LINE
  8
0
 10
-17.6289
 20
144.055
 11
-17.7893
 21
144.396
  0
LINE
  8
0
 10
-17.7893
 20
144.396
 11
-17.9057
 21
144.754
  0
LINE
  8
0
 10
-17.9057
 20
144.754
 11
-17.9763
 21
145.124
  0
LINE
  8
0
 10
-17.9763
 20
145.124
 11
-18
 21
145.5
  0
LINE
  8
0
 10
-18
 20
145.5
 11
-17.9763
 21
145.876
  0
LINE
  8
0
 10
-17.9763
 20
145.876
 11
-17.9057
 21
146.246
  0
LINE
  8
0
 10
-17.9057
 20
146.246
 11
-17.7893
 21
146.604
  0
LINE
  8
0
 10
-17.7893
 20
146.604
 11
-17.6289
 21
146.945
  0
LINE
  8
0
 10
-17.6289
 20
146.945
 11
-17.427
 21
147.263
  0
LINE
  8
0
 10
-17.427
 20
147.263
 11
-17.1869
 21
147.554
  0
LINE
  8
0
 10
-17.1869
 20
147.554
 11
-16.9123
 21
147.812
  0
LINE
  8
0
 10
-16.9123
 20
147.812
 11
-16.6075
 21
148.033
  0
LINE
  8
0
 10
-16.6075
 20
148.033
 11
-16.2773
 21
148.214
  0
LINE
  8
0
 10
-16.2773
 20
148.214
 11
-15.927
 21
148.353
  0
LINE
  8
0
 10
-15.927
 20
148.353
 11
-15.5621
 21
148.447
  0
LINE
  8
0
 10
-15.5621
 20
148.447
 11
-15.1884
 21
148.494
  0
LINE
  8
0
 10
-15.1884
 20
148.494
 11
-14.8116
 21
148.494
  0
LINE
  8
0
 10
-14.8116
 20
148.494
 11
-14.4379
 21
148.447
  0
LINE
  8
0
 10
-14.4379
 20
148.447
 11
-14.0729
 21
148.353
  0
LINE
  8
0
 10
-14.0729
 20
148.353
 11
-13.7227
 21
148.214
  0
LINE
  8
0
 10
-13.7227
 20
148.214
 11
-13.3925
 21
148.033
  0
LINE
  8
0
 10
-13.3925
 20
148.033
 11
-13.0877
 21
147.812
  0
LINE
  8
0
 10
-13.0877
 20
147.812
 11
-12.8131
 21
147.554
  0
LINE
  8
0
 10
-12.8131
 20
147.554
 11
-12.5729
 21
147.263
  0
LINE
  8
0
 10
-12.5729
 20
147.263
 11
-12.3711
 21
146.945
  0
LINE
  8
0
 10
-12.3711
 20
146.945
 11
-12.2107
 21
146.604
  0
LINE
  8
0
 10
-12.2107
 20
146.604
 11
-12.0942
 21
146.246
  0
LINE
  8
0
 10
-12.0942
 20
146.246
 11
-12.0237
 21
145.876
  0
LINE
  8
0
 10
-12.0237
 20
145.876
 11
-12
 21
145.5
  0
LINE
  8
0
 10
-12
 20
145.5
 11
-12.0237
 21
145.124
  0
LINE
  8
0
 10
-12.0237
 20
145.124
 11
-12.0942
 21
144.754
  0
LINE
  8
0
 10
-12.0942
 20
144.754
 11
-12.2107
 21
144.396
  0
LINE
  8
0
 10
-12.2107
 20
144.396
 11
-12.3711
 21
144.055
  0
LINE
  8
0
 10
-12.3711
 20
144.055
 11
-12.5729
 21
143.737
  0
LINE
  8
0
 10
-12.5729
 20
143.737
 11
-12.8131
 21
143.446
  0
LINE
  8
0
 10
-12.8131
 20
143.446
 11
-13.0877
 21
143.188
  0
LINE
  8
0
 10
-13.0877
 20
143.188
 11
-13.3925
 21
142.967
  0
LINE
  8
0
 10
-13.3925
 20
142.967
 11
-13.7227
 21
142.786
  0
LINE
  8
0
 10
-13.7227
 20
142.786
 11
-14.0729
 21
142.647
  0
LINE
  8
0
 10
-14.0729
 20
142.647
 11
-14.4379
 21
142.553
  0
LINE
  8
0
 10
-14.4379
 20
142.553
 11
-14.8116
 21
142.506
  0
LINE
  8
0
 10
-14.8116
 20
142.506
 11
-15.1884
 21
142.506
  0
LINE
  8
0
 10
-0.18837
 20
127.506
 11
-0.562134
 21
127.553
  0
LINE
  8
0
 10
-0.562134
 20
127.553
 11
-0.927048
 21
127.647
  0
LINE
  8
0
 10
-0.927048
 20
127.647
 11
-1.27733
 21
127.786
  0
LINE
  8
0
 10
-1.27733
 20
127.786
 11
-1.60747
 21
127.967
  0
LINE
  8
0
 10
-1.60747
 20
127.967
 11
-1.91226
 21
128.188
  0
LINE
  8
0
 10
-1.91226
 20
128.188
 11
-2.1869
 21
128.446
  0
LINE
  8
0
 10
-2.1869
 20
128.446
 11
-2.42705
 21
128.737
  0
LINE
  8
0
 10
-2.42705
 20
128.737
 11
-2.62891
 21
129.055
  0
LINE
  8
0
 10
-2.62891
 20
129.055
 11
-2.78932
 21
129.396
  0
LINE
  8
0
 10
-2.78932
 20
129.396
 11
-2.90575
 21
129.754
  0
LINE
  8
0
 10
-2.90575
 20
129.754
 11
-2.97633
 21
130.124
  0
LINE
  8
0
 10
-2.97633
 20
130.124
 11
-3
 21
130.5
  0
LINE
  8
0
 10
-3
 20
130.5
 11
-2.97633
 21
130.876
  0
LINE
  8
0
 10
-2.97633
 20
130.876
 11
-2.90575
 21
131.246
  0
LINE
  8
0
 10
-2.90575
 20
131.246
 11
-2.78932
 21
131.604
  0
LINE
  8
0
 10
-2.78932
 20
131.604
 11
-2.62891
 21
131.945
  0
LINE
  8
0
 10
-2.62891
 20
131.945
 11
-2.42705
 21
132.263
  0
LINE
  8
0
 10
-2.42705
 20
132.263
 11
-2.1869
 21
132.554
  0
LINE
  8
0
 10
-2.1869
 20
132.554
 11
-1.91226
 21
132.812
  0
LINE
  8
0
 10
-1.91226
 20
132.812
 11
-1.60747
 21
133.033
  0
LINE
  8
0
 10
-1.60747
 20
133.033
 11
-1.27733
 21
133.214
  0
LINE
  8
0
 10
-1.27733
 20
133.214
 11
-0.927048
 21
133.353
  0
LINE
  8
0
 10
-0.927048
 20
133.353
 11
-0.562134
 21
133.447
  0
LINE
  8
0
 10
-0.562134
 20
133.447
 11
-0.18837
 21
133.494
  0
LINE
  8
0
 10
-0.18837
 20
133.494
 11
0.18837
 21
133.494
  0
LINE
  8
0
 10
0.18837
 20
133.494
 11
0.562134
 21
133.447
  0
LINE
  8
0
 10
0.562134
 20
133.447
 11
0.927048
 21
133.353
  0
LINE
  8
0
 10
0.927048
 20
133.353
 11
1.27733
 21
133.214
  0
LINE
  8
0
 10
1.27733
 20
133.214
 11
1.60747
 21
133.033
  0
LINE
  8
0
 10
1.60747
 20
133.033
 11
1.91226
 21
132.812
  0
LINE
  8
0
 10
1.91226
 20
132.812
 11
2.1869
 21
132.554
  0
LINE
  8
0
 10
2.1869
 20
132.554
 11
2.42705
 21
132.263
  0
LINE
  8
0
 10
2.42705
 20
132.263
 11
2.62891
 21
131.945
  0
LINE
  8
0
 10
2.62891
 20
131.945
 11
2.78932
 21
131.604
  0
LINE
  8
0
 10
2.78932
 20
131.604
 11
2.90575
 21
131.246
  0
LINE
  8
0
 10
2.90575
 20
131.246
 11
2.97633
 21
130.876
  0
LINE
  8
0
 10
2.97633
 20
130.876
 11
3
 21
130.5
  0
LINE
  8
0
 10
3
 20
130.5
 11
2.97633
 21
130.124
  0
LINE
  8
0
 10
2.97633
 20
130.124
 11
2.90575
 21
129.754
  0
LINE
  8
0
 10
2.90575
 20
129.754
 11
2.78932
 21
129.396
  0
LINE
  8
0
 10
2.78932
 20
129.396
 11
2.62891
 21
129.055
  0
LINE
  8
0
 10
2.62891
 20
129.055
 11
2.42705
 21
128.737
  0
LINE
  8
0
 10
2.42705
 20
128.737
 11
2.1869
 21
128.446
  0
LINE
  8
0
 10
2.1869
 20
128.446
 11
1.91226
 21
128.188
  0
LINE
  8
0
 10
1.91226
 20
128.188
 11
1.60747
 21
127.967
  0
LINE
  8
0
 10
1.60747
 20
127.967
 11
1.27733
 21
127.786
  0
LINE
  8
0
 10
1.27733
 20
127.786
 11
0.927048
 21
127.647
  0
LINE
  8
0
 10
0.927048
 20
127.647
 11
0.562134
 21
127.553
  0
LINE
  8
0
 10
0.562134
 20
127.553
 11
0.18837
 21
127.506
  0
LINE
  8
0
 10
0.18837
 20
127.506
 11
-0.18837
 21
127.506
  0
LINE
  8
0
 10
-15.1884
 20
127.506
 11
-15.5621
 21
127.553
  0
LINE
  8
0
 10
-15.5621
 20
127.553
 11
-15.927
 21
127.647
  0
LINE
  8
0
 10
-15.927
 20
127.647
 11
-16.2773
 21
127.786
  0
LINE
  8
0
 10
-16.2773
 20
127.786
 11
-16.6075
 21
127.967
  0
LINE
  8
0
 10
-16.6075
 20
127.967
 11
-16.9123
 21
128.188
  0
LINE
  8
0
 10
-16.9123
 20
128.188
 11
-17.1869
 21
128.446
  0
LINE
  8
0
 10
-17.1869
 20
128.446
 11
-17.427
 21
128.737
  0
LINE
  8
0
 10
-17.427
 20
128.737
 11
-17.6289
 21
129.055
  0
LINE
  8
0
 10
-17.6289
 20
129.055
 11
-17.7893
 21
129.396
  0
LINE
  8
0
 10
-17.7893
 20
129.396
 11
-17.9057
 21
129.754
  0
LINE
  8
0
 10
-17.9057
 20
129.754
 11
-17.9763
 21
130.124
  0
LINE
  8
0
 10
-17.9763
 20
130.124
 11
-18
 21
130.5
  0
LINE
  8
0
 10
-18
 20
130.5
 11
-17.9763
 21
130.876
  0
LINE
  8
0
 10
-17.9763
 20
130.876
 11
-17.9057
 21
131.246
  0
LINE
  8
0
 10
-17.9057
 20
131.246
 11
-17.7893
 21
131.604
  0
LINE
  8
0
 10
-17.7893
 20
131.604
 11
-17.6289
 21
131.945
  0
LINE
  8
0
 10
-17.6289
 20
131.945
 11
-17.427
 21
132.263
  0
LINE
  8
0
 10
-17.427
 20
132.263
 11
-17.1869
 21
132.554
  0
LINE
  8
0
 10
-17.1869
 20
132.554
 11
-16.9123
 21
132.812
  0
LINE
  8
0
 10
-16.9123
 20
132.812
 11
-16.6075
 21
133.033
  0
LINE
  8
0
 10
-16.6075
 20
133.033
 11
-16.2773
 21
133.214
  0
LINE
  8
0
 10
-16.2773
 20
133.214
 11
-15.927
 21
133.353
  0
LINE
  8
0
 10
-15.927
 20
133.353
 11
-15.5621
 21
133.447
  0
LINE
  8
0
 10
-15.5621
 20
133.447
 11
-15.1884
 21
133.494
  0
LINE
  8
0
 10
-15.1884
 20
133.494
 11
-14.8116
 21
133.494
  0
LINE
  8
0
 10
-14.8116
 20
133.494
 11
-14.4379
 21
133.447
  0
LINE
  8
0
 10
-14.4379
 20
133.447
 11
-14.0729
 21
133.353
  0
LINE
  8
0
 10
-14.0729
 20
133.353
 11
-13.7227
 21
133.214
  0
LINE
  8
0
 10
-13.7227
 20
133.214
 11
-13.3925
 21
133.033
  0
LINE
  8
0
 10
-13.3925
 20
133.033
 11
-13.0877
 21
132.812
  0
LINE
  8
0
 10
-13.0877
 20
132.812
 11
-12.8131
 21
132.554
  0
LINE
  8
0
 10
-12.8131
 20
132.554
 11
-12.5729
 21
132.263
  0
LINE
  8
0
 10
-12.5729
 20
132.263
 11
-12.3711
 21
131.945
  0
LINE
  8
0
 10
-12.3711
 20
131.945
 11
-12.2107
 21
131.604
  0
LINE
  8
0
 10
-12.2107
 20
131.604
 11
-12.0942
 21
131.246
  0
LINE
  8
0
 10
-12.0942
 20
131.246
 11
-12.0237
 21
130.876
  0
LINE
  8
0
 10
-12.0237
 20
130.876
 11
-12
 21
130.5
  0
LINE
  8
0
 10
-12
 20
130.5
 11
-12.0237
 21
130.124
  0
LINE
  8
0
 10
-12.0237
 20
130.124
 11
-12.0942
 21
129.754
  0
LINE
  8
0
 10
-12.0942
 20
129.754
 11
-12.2107
 21
129.396
  0
LINE
  8
0
 10
-12.2107
 20
129.396
 11
-12.3711
 21
129.055
  0
LINE
  8
0
 10
-12.3711
 20
129.055
 11
-12.5729
 21
128.737
  0
LINE
  8
0
 10
-12.5729
 20
128.737
 11
-12.8131
 21
128.446
  0
LINE
  8
0
 10
-12.8131
 20
128.446
 11
-13.0877
 21
128.188
  0
LINE
  8
0
 10
-13.0877
 20
128.188
 11
-13.3925
 21
127.967
  0
LINE
  8
0
 10
-13.3925
 20
127.967
 11
-13.7227
 21
127.786
  0
LINE
  8
0
 10
-13.7227
 20
127.786
 11
-14.0729
 21
127.647
  0
LINE
  8
0
 10
-14.0729
 20
127.647
 11
-14.4379
 21
127.553
  0
LINE
  8
0
 10
-14.4379
 20
127.553
 11
-14.8116
 21
127.506
  0
LINE
  8
0
 10
-14.8116
 20
127.506
 11
-15.1884
 21
127.506
  0
LINE
  8
0
 10
14.8116
 20
127.506
 11
14.4379
 21
127.553
  0
LINE
  8
0
 10
14.4379
 20
127.553
 11
14.0729
 21
127.647
  0
LINE
  8
0
 10
14.0729
 20
127.647
 11
13.7227
 21
127.786
  0
LINE
  8
0
 10
13.7227
 20
127.786
 11
13.3925
 21
127.967
  0
LINE
  8
0
 10
13.3925
 20
127.967
 11
13.0877
 21
128.188
  0
LINE
  8
0
 10
13.0877
 20
128.188
 11
12.8131
 21
128.446
  0
LINE
  8
0
 10
12.8131
 20
128.446
 11
12.5729
 21
128.737
  0
LINE
  8
0
 10
12.5729
 20
128.737
 11
12.3711
 21
129.055
  0
LINE
  8
0
 10
12.3711
 20
129.055
 11
12.2107
 21
129.396
  0
LINE
  8
0
 10
12.2107
 20
129.396
 11
12.0942
 21
129.754
  0
LINE
  8
0
 10
12.0942
 20
129.754
 11
12.0237
 21
130.124
  0
LINE
  8
0
 10
12.0237
 20
130.124
 11
12
 21
130.5
  0
LINE
  8
0
 10
12
 20
130.5
 11
12.0237
 21
130.876
  0
LINE
  8
0
 10
12.0237
 20
130.876
 11
12.0942
 21
131.246
  0
LINE
  8
0
 10
12.0942
 20
131.246
 11
12.2107
 21
131.604
  0
LINE
  8
0
 10
12.2107
 20
131.604
 11
12.3711
 21
131.945
  0
LINE
  8
0
 10
12.3711
 20
131.945
 11
12.5729
 21
132.263
  0
LINE
  8
0
 10
12.5729
 20
132.263
 11
12.8131
 21
132.554
  0
LINE
  8
0
 10
12.8131
 20
132.554
 11
13.0877
 21
132.812
  0
LINE
  8
0
 10
13.0877
 20
132.812
 11
13.3925
 21
133.033
  0
LINE
  8
0
 10
13.3925
 20
133.033
 11
13.7227
 21
133.214
  0
LINE
  8
0
 10
13.7227
 20
133.214
 11
14.0729
 21
133.353
  0
LINE
  8
0
 10
14.0729
 20
133.353
 11
14.4379
 21
133.447
  0
LINE
  8
0
 10
14.4379
 20
133.447
 11
14.8116
 21
133.494
  0
LINE
  8
0
 10
14.8116
 20
133.494
 11
15.1884
 21
133.494
  0
LINE
  8
0
 10
15.1884
 20
133.494
 11
15.5621
 21
133.447
  0
LINE
  8
0
 10
15.5621
 20
133.447
 11
15.927
 21
133.353
  0
LINE
  8
0
 10
15.927
 20
133.353
 11
16.2773
 21
133.214
  0
LINE
  8
0
 10
16.2773
 20
133.214
 11
16.6075
 21
133.033
  0
LINE
  8
0
 10
16.6075
 20
133.033
 11
16.9123
 21
132.812
  0
LINE
  8
0
 10
16.9123
 20
132.812
 11
17.1869
 21
132.554
  0
LINE
  8
0
 10
17.1869
 20
132.554
 11
17.427
 21
132.263
  0
LINE
  8
0
 10
17.427
 20
132.263
 11
17.6289
 21
131.945
  0
LINE
  8
0
 10
17.6289
 20
131.945
 11
17.7893
 21
131.604
  0
LINE
  8
0
 10
17.7893
 20
131.604
 11
17.9057
 21
131.246
  0
LINE
  8
0
 10
17.9057
 20
131.246
 11
17.9763
 21
130.876
  0
LINE
  8
0
 10
17.9763
 20
130.876
 11
18
 21
130.5
  0
LINE
  8
0
 10
18
 20
130.5
 11
17.9763
 21
130.124
  0
LINE
  8
0
 10
17.9763
 20
130.124
 11
17.9057
 21
129.754
  0
LINE
  8
0
 10
17.9057
 20
129.754
 11
17.7893
 21
129.396
  0
LINE
  8
0
 10
17.7893
 20
129.396
 11
17.6289
 21
129.055
  0
LINE
  8
0
 10
17.6289
 20
129.055
 11
17.427
 21
128.737
  0
LINE
  8
0
 10
17.427
 20
128.737
 11
17.1869
 21
128.446
  0
LINE
  8
0
 10
17.1869
 20
128.446
 11
16.9123
 21
128.188
  0
LINE
  8
0
 10
16.9123
 20
128.188
 11
16.6075
 21
127.967
  0
LINE
  8
0
 10
16.6075
 20
127.967
 11
16.2773
 21
127.786
  0
LINE
  8
0
 10
16.2773
 20
127.786
 11
15.927
 21
127.647
  0
LINE
  8
0
 10
15.927
 20
127.647
 11
15.5621
 21
127.553
  0
LINE
  8
0
 10
15.5621
 20
127.553
 11
15.1884
 21
127.506
  0
LINE
  8
0
 10
15.1884
 20
127.506
 11
14.8116
 21
127.506
  0
LINE
  8
0
 10
-7.64441
 20
128.205
 11
-7.93097
 21
128.241
  0
LINE
  8
0
 10
-7.93097
 20
128.241
 11
-8.21072
 21
128.313
  0
LINE
  8
0
 10
-8.21072
 20
128.313
 11
-8.47928
 21
128.419
  0
LINE
  8
0
 10
-8.47928
 20
128.419
 11
-8.73239
 21
128.558
  0
LINE
  8
0
 10
-8.73239
 20
128.558
 11
-8.96606
 21
128.728
  0
LINE
  8
0
 10
-8.96606
 20
128.728
 11
-9.17662
 21
128.926
  0
LINE
  8
0
 10
-9.17662
 20
128.926
 11
-9.36073
 21
129.148
  0
LINE
  8
0
 10
-9.36073
 20
129.148
 11
-9.5155
 21
129.392
  0
LINE
  8
0
 10
-9.5155
 20
129.392
 11
-9.63847
 21
129.653
  0
LINE
  8
0
 10
-9.63847
 20
129.653
 11
-9.72774
 21
129.928
  0
LINE
  8
0
 10
-9.72774
 20
129.928
 11
-9.78186
 21
130.212
  0
LINE
  8
0
 10
-9.78186
 20
130.212
 11
-9.79999
 21
130.5
  0
LINE
  8
0
 10
-9.79999
 20
130.5
 11
-9.78186
 21
130.788
  0
LINE
  8
0
 10
-9.78186
 20
130.788
 11
-9.72774
 21
131.072
  0
LINE
  8
0
 10
-9.72774
 20
131.072
 11
-9.63847
 21
131.347
  0
LINE
  8
0
 10
-9.63847
 20
131.347
 11
-9.5155
 21
131.608
  0
LINE
  8
0
 10
-9.5155
 20
131.608
 11
-9.36073
 21
131.852
  0
LINE
  8
0
 10
-9.36073
 20
131.852
 11
-9.17662
 21
132.074
  0
LINE
  8
0
 10
-9.17662
 20
132.074
 11
-8.96606
 21
132.272
  0
LINE
  8
0
 10
-8.96606
 20
132.272
 11
-8.73239
 21
132.442
  0
LINE
  8
0
 10
-8.73239
 20
132.442
 11
-8.47928
 21
132.581
  0
LINE
  8
0
 10
-8.47928
 20
132.581
 11
-8.21072
 21
132.687
  0
LINE
  8
0
 10
-8.21072
 20
132.687
 11
-7.93097
 21
132.759
  0
LINE
  8
0
 10
-7.93097
 20
132.759
 11
-7.64441
 21
132.795
  0
LINE
  8
0
 10
-7.64441
 20
132.795
 11
-7.35558
 21
132.795
  0
LINE
  8
0
 10
-7.35558
 20
132.795
 11
-7.06902
 21
132.759
  0
LINE
  8
0
 10
-7.06902
 20
132.759
 11
-6.78926
 21
132.687
  0
LINE
  8
0
 10
-6.78926
 20
132.687
 11
-6.52071
 21
132.581
  0
LINE
  8
0
 10
-6.52071
 20
132.581
 11
-6.26759
 21
132.442
  0
LINE
  8
0
 10
-6.26759
 20
132.442
 11
-6.03392
 21
132.272
  0
LINE
  8
0
 10
-6.03392
 20
132.272
 11
-5.82336
 21
132.074
  0
LINE
  8
0
 10
-5.82336
 20
132.074
 11
-5.63925
 21
131.852
  0
LINE
  8
0
 10
-5.63925
 20
131.852
 11
-5.48448
 21
131.608
  0
LINE
  8
0
 10
-5.48448
 20
131.608
 11
-5.36151
 21
131.347
  0
LINE
  8
0
 10
-5.36151
 20
131.347
 11
-5.27225
 21
131.072
  0
LINE
  8
0
 10
-5.27225
 20
131.072
 11
-5.21812
 21
130.788
  0
LINE
  8
0
 10
-5.21812
 20
130.788
 11
-5.2
 21
130.5
  0
LINE
  8
0
 10
-5.2
 20
130.5
 11
-5.21812
 21
130.212
  0
LINE
  8
0
 10
-5.21812
 20
130.212
 11
-5.27225
 21
129.928
  0
LINE
  8
0
 10
-5.27225
 20
129.928
 11
-5.36151
 21
129.653
  0
LINE
  8
0
 10
-5.36151
 20
129.653
 11
-5.48448
 21
129.392
  0
LINE
  8
0
 10
-5.48448
 20
129.392
 11
-5.63925
 21
129.148
  0
LINE
  8
0
 10
-5.63925
 20
129.148
 11
-5.82336
 21
128.926
  0
LINE
  8
0
 10
-5.82336
 20
128.926
 11
-6.03392
 21
128.728
  0
LINE
  8
0
 10
-6.03392
 20
128.728
 11
-6.26759
 21
128.558
  0
LINE
  8
0
 10
-6.26759
 20
128.558
 11
-6.52071
 21
128.419
  0
LINE
  8
0
 10
-6.52071
 20
128.419
 11
-6.78926
 21
128.313
  0
LINE
  8
0
 10
-6.78926
 20
128.313
 11
-7.06902
 21
128.241
  0
LINE
  8
0
 10
-7.06902
 20
128.241
 11
-7.35558
 21
128.205
  0
LINE
  8
0
 10
-7.35558
 20
128.205
 11
-7.64441
 21
128.205
  0
LINE
  8
0
 10
7.35558
 20
128.205
 11
7.06902
 21
128.241
  0
LINE
  8
0
 10
7.06902
 20
128.241
 11
6.78926
 21
128.313
  0
LINE
  8
0
 10
6.78926
 20
128.313
 11
6.52071
 21
128.419
  0
LINE
  8
0
 10
6.52071
 20
128.419
 11
6.26759
 21
128.558
  0
LINE
  8
0
 10
6.26759
 20
128.558
 11
6.03392
 21
128.728
  0
LINE
  8
0
 10
6.03392
 20
128.728
 11
5.82336
 21
128.926
  0
LINE
  8
0
 10
5.82336
 20
128.926
 11
5.63925
 21
129.148
  0
LINE
  8
0
 10
5.63925
 20
129.148
 11
5.48448
 21
129.392
  0
LINE
  8
0
 10
5.48448
 20
129.392
 11
5.36151
 21
129.653
  0
LINE
  8
0
 10
5.36151
 20
129.653
 11
5.27225
 21
129.928
  0
LINE
  8
0
 10
5.27225
 20
129.928
 11
5.21812
 21
130.212
  0
LINE
  8
0
 10
5.21812
 20
130.212
 11
5.2
 21
130.5
  0
LINE
  8
0
 10
5.2
 20
130.5
 11
5.21812
 21
130.788
  0
LINE
  8
0
 10
5.21812
 20
130.788
 11
5.27225
 21
131.072
  0
LINE
  8
0
 10
5.27225
 20
131.072
 11
5.36151
 21
131.347
  0
LINE
  8
0
 10
5.36151
 20
131.347
 11
5.48448
 21
131.608
  0
LINE
  8
0
 10
5.48448
 20
131.608
 11
5.63925
 21
131.852
  0
LINE
  8
0
 10
5.63925
 20
131.852
 11
5.82336
 21
132.074
  0
LINE
  8
0
 10
5.82336
 20
132.074
 11
6.03392
 21
132.272
  0
LINE
  8
0
 10
6.03392
 20
132.272
 11
6.26759
 21
132.442
  0
LINE
  8
0
 10
6.26759
 20
132.442
 11
6.52071
 21
132.581
  0
LINE
  8
0
 10
6.52071
 20
132.581
 11
6.78926
 21
132.687
  0
LINE
  8
0
 10
6.78926
 20
132.687
 11
7.06902
 21
132.759
  0
LINE
  8
0
 10
7.06902
 20
132.759
 11
7.35558
 21
132.795
  0
LINE
  8
0
 10
7.35558
 20
132.795
 11
7.64441
 21
132.795
  0
LINE
  8
0
 10
7.64441
 20
132.795
 11
7.93097
 21
132.759
  0
LINE
  8
0
 10
7.93097
 20
132.759
 11
8.21072
 21
132.687
  0
LINE
  8
0
 10
8.21072
 20
132.687
 11
8.47928
 21
132.581
  0
LINE
  8
0
 10
8.47928
 20
132.581
 11
8.73239
 21
132.442
  0
LINE
  8
0
 10
8.73239
 20
132.442
 11
8.96606
 21
132.272
  0
LINE
  8
0
 10
8.96606
 20
132.272
 11
9.17662
 21
132.074
  0
LINE
  8
0
 10
9.17662
 20
132.074
 11
9.36073
 21
131.852
  0
LINE
  8
0
 10
9.36073
 20
131.852
 11
9.5155
 21
131.608
  0
LINE
  8
0
 10
9.5155
 20
131.608
 11
9.63847
 21
131.347
  0
LINE
  8
0
 10
9.63847
 20
131.347
 11
9.72774
 21
131.072
  0
LINE
  8
0
 10
9.72774
 20
131.072
 11
9.78186
 21
130.788
  0
LINE
  8
0
 10
9.78186
 20
130.788
 11
9.79999
 21
130.5
  0
LINE
  8
0
 10
9.79999
 20
130.5
 11
9.78186
 21
130.212
  0
LINE
  8
0
 10
9.78186
 20
130.212
 11
9.72774
 21
129.928
  0
LINE
  8
0
 10
9.72774
 20
129.928
 11
9.63847
 21
129.653
  0
LINE
  8
0
 10
9.63847
 20
129.653
 11
9.5155
 21
129.392
  0
LINE
  8
0
 10
9.5155
 20
129.392
 11
9.36073
 21
129.148
  0
LINE
  8
0
 10
9.36073
 20
129.148
 11
9.17662
 21
128.926
  0
LINE
  8
0
 10
9.17662
 20
128.926
 11
8.96606
 21
128.728
  0
LINE
  8
0
 10
8.96606
 20
128.728
 11
8.73239
 21
128.558
  0
LINE
  8
0
 10
8.73239
 20
128.558
 11
8.47928
 21
128.419
  0
LINE
  8
0
 10
8.47928
 20
128.419
 11
8.21072
 21
128.313
  0
LINE
  8
0
 10
8.21072
 20
128.313
 11
7.93097
 21
128.241
  0
LINE
  8
0
 10
7.93097
 20
128.241
 11
7.64441
 21
128.205
  0
LINE
  8
0
 10
7.64441
 20
128.205
 11
7.35558
 21
128.205
  0
LINE
  8
0
 10
-3.51418
 20
120.6
 11
-3.51418
 21
126
  0
LINE
  8
0
 10
-3.51418
 20
126
 11
3.51418
 21
126
  0
LINE
  8
0
 10
3.51418
 20
126
 11
3.51418
 21
120.6
  0
LINE
  8
0
 10
3.51418
 20
120.6
 11
-3.51418
 21
120.6
  0
LINE
  8
0
 10
11.4858
 20
120.6
 11
11.4858
 21
126
  0
LINE
  8
0
 10
11.4858
 20
126
 11
18.5142
 21
126
  0
LINE
  8
0
 10
18.5142
 20
126
 11
18.5142
 21
120.6
  0
LINE
  8
0
 10
18.5142
 20
120.6
 11
11.4858
 21
120.6
  0
LINE
  8
0
 10
-18.5142
 20
120.6
 11
-18.5142
 21
126
  0
LINE
  8
0
 10
-18.5142
 20
126
 11
-11.4858
 21
126
  0
LINE
  8
0
 10
-11.4858
 20
126
 11
-11.4858
 21
120.6
  0
LINE
  8
0
 10
-11.4858
 20
120.6
 11
-18.5142
 21
120.6
  0
LINE
  8
0
 10
-17.5307
 20
81.6
 11
-20.2462
 21
81.6
  0
LINE
  8
0
 10
-20.2462
 20
81.6
 11
-20.2462
 21
87
  0
LINE
  8
0
 10
-20.2462
 20
87
 11
-17.5307
 21
87
  0
LINE
  8
0
 10
-17.5307
 20
87
 11
-17.5307
 21
89.9
  0
LINE
  8
0
 10
-17.5307
 20
89.9
 11
-17.6289
 21
90.0547
  0
LINE
  8
0
 10
-17.6289
 20
90.0547
 11
-17.7893
 21
90.3956
  0
LINE
  8
0
 10
-17.7893
 20
90.3956
 11
-17.9057
 21
90.7539
  0
LINE
  8
0
 10
-17.9057
 20
90.7539
 11
-17.9763
 21
91.124
  0
LINE
  8
0
 10
-17.9763
 20
91.124
 11
-18
 21
91.5
  0
LINE
  8
0
 10
-18
 20
91.5
 11
-17.9763
 21
91.876
  0
LINE
  8
0
 10
-17.9763
 20
91.876
 11
-17.9057
 21
92.2461
  0
LINE
  8
0
 10
-17.9057
 20
92.2461
 11
-17.7893
 21
92.6044
  0
LINE
  8
0
 10
-17.7893
 20
92.6044
 11
-17.6289
 21
92.9453
  0
LINE
  8
0
 10
-17.6289
 20
92.9453
 11
-17.427
 21
93.2634
  0
LINE
  8
0
 10
-17.427
 20
93.2634
 11
-17.1869
 21
93.5536
  0
LINE
  8
0
 10
-17.1869
 20
93.5536
 11
-16.9123
 21
93.8115
  0
LINE
  8
0
 10
-16.9123
 20
93.8115
 11
-16.6075
 21
94.033
  0
LINE
  8
0
 10
-16.6075
 20
94.033
 11
-16.2773
 21
94.2145
  0
LINE
  8
0
 10
-16.2773
 20
94.2145
 11
-15.927
 21
94.3532
  0
LINE
  8
0
 10
-15.927
 20
94.3532
 11
-15.5621
 21
94.4469
  0
LINE
  8
0
 10
-15.5621
 20
94.4469
 11
-15.1884
 21
94.4941
  0
LINE
  8
0
 10
-15.1884
 20
94.4941
 11
-14.8116
 21
94.4941
  0
LINE
  8
0
 10
-14.8116
 20
94.4941
 11
-14.4379
 21
94.4469
  0
LINE
  8
0
 10
-14.4379
 20
94.4469
 11
-14.0729
 21
94.3532
  0
LINE
  8
0
 10
-14.0729
 20
94.3532
 11
-13.7227
 21
94.2145
  0
LINE
  8
0
 10
-13.7227
 20
94.2145
 11
-13.3925
 21
94.033
  0
LINE
  8
0
 10
-13.3925
 20
94.033
 11
-13.0877
 21
93.8115
  0
LINE
  8
0
 10
-13.0877
 20
93.8115
 11
-12.8131
 21
93.5536
  0
LINE
  8
0
 10
-12.8131
 20
93.5536
 11
-12.5729
 21
93.2634
  0
LINE
  8
0
 10
-12.5729
 20
93.2634
 11
-12.3711
 21
92.9453
  0
LINE
  8
0
 10
-12.3711
 20
92.9453
 11
-12.2107
 21
92.6044
  0
LINE
  8
0
 10
-12.2107
 20
92.6044
 11
-12.0942
 21
92.2461
  0
LINE
  8
0
 10
-12.0942
 20
92.2461
 11
-12.0237
 21
91.876
  0
LINE
  8
0
 10
-12.0237
 20
91.876
 11
-12
 21
91.5
  0
LINE
  8
0
 10
-12
 20
91.5
 11
-12.0237
 21
91.124
  0
LINE
  8
0
 10
-12.0237
 20
91.124
 11
-12.0942
 21
90.7539
  0
LINE
  8
0
 10
-12.0942
 20
90.7539
 11
-12.2107
 21
90.3956
  0
LINE
  8
0
 10
-12.2107
 20
90.3956
 11
-12.3711
 21
90.0547
  0
LINE
  8
0
 10
-12.3711
 20
90.0547
 11
-12.4693
 21
89.9
  0
LINE
  8
0
 10
-12.4693
 20
89.9
 11
-12.4693
 21
87
  0
LINE
  8
0
 10
-12.4693
 20
87
 11
-9.75375
 21
87
  0
LINE
  8
0
 10
-9.75375
 20
87
 11
-9.75375
 21
81.6
  0
LINE
  8
0
 10
-9.75375
 20
81.6
 11
-12.4693
 21
81.6
  0
LINE
  8
0
 10
-12.4693
 20
81.6
 11
-12.4693
 21
78
  0
LINE
  8
0
 10
-12.4693
 20
78
 11
-2.53072
 21
78
  0
LINE
  8
0
 10
-2.53072
 20
78
 11
-2.53072
 21
81.6
  0
LINE
  8
0
 10
-2.53072
 20
81.6
 11
-5.24623
 21
81.6
  0
LINE
  8
0
 10
-5.24623
 20
81.6
 11
-5.24623
 21
87
  0
LINE
  8
0
 10
-5.24623
 20
87
 11
-2.53072
 21
87
  0
LINE
  8
0
 10
-2.53072
 20
87
 11
-2.53072
 21
89.9
  0
LINE
  8
0
 10
-2.53072
 20
89.9
 11
-2.62891
 21
90.0547
  0
LINE
  8
0
 10
-2.62891
 20
90.0547
 11
-2.78932
 21
90.3956
  0
LINE
  8
0
 10
-2.78932
 20
90.3956
 11
-2.90575
 21
90.7539
  0
LINE
  8
0
 10
-2.90575
 20
90.7539
 11
-2.97633
 21
91.124
  0
LINE
  8
0
 10
-2.97633
 20
91.124
 11
-3
 21
91.5
  0
LINE
  8
0
 10
-3
 20
91.5
 11
-2.97633
 21
91.876
  0
LINE
  8
0
 10
-2.97633
 20
91.876
 11
-2.90575
 21
92.2461
  0
LINE
  8
0
 10
-2.90575
 20
92.2461
 11
-2.78932
 21
92.6044
  0
LINE
  8
0
 10
-2.78932
 20
92.6044
 11
-2.62891
 21
92.9453
  0
LINE
  8
0
 10
-2.62891
 20
92.9453
 11
-2.42705
 21
93.2634
  0
LINE
  8
0
 10
-2.42705
 20
93.2634
 11
-2.1869
 21
93.5536
  0
LINE
  8
0
 10
-2.1869
 20
93.5536
 11
-1.91226
 21
93.8115
  0
LINE
  8
0
 10
-1.91226
 20
93.8115
 11
-1.60747
 21
94.033
  0
LINE
  8
0
 10
-1.60747
 20
94.033
 11
-1.27733
 21
94.2145
  0
LINE
  8
0
 10
-1.27733
 20
94.2145
 11
-0.927048
 21
94.3532
  0
LINE
  8
0
 10
-0.927048
 20
94.3532
 11
-0.562134
 21
94.4469
  0
LINE
  8
0
 10
-0.562134
 20
94.4469
 11
-0.18837
 21
94.4941
  0
LINE
  8
0
 10
-0.18837
 20
94.4941
 11
0.18837
 21
94.4941
  0
LINE
  8
0
 10
0.18837
 20
94.4941
 11
0.562134
 21
94.4469
  0
LINE
  8
0
 10
0.562134
 20
94.4469
 11
0.927048
 21
94.3532
  0
LINE
  8
0
 10
0.927048
 20
94.3532
 11
1.27733
 21
94.2145
  0
LINE
  8
0
 10
1.27733
 20
94.2145
 11
1.60747
 21
94.033
  0
LINE
  8
0
 10
1.60747
 20
94.033
 11
1.91226
 21
93.8115
  0
LINE
  8
0
 10
1.91226
 20
93.8115
 11
2.1869
 21
93.5536
  0
LINE
  8
0
 10
2.1869
 20
93.5536
 11
2.42705
 21
93.2634
  0
LINE
  8
0
 10
2.42705
 20
93.2634
 11
2.62891
 21
92.9453
  0
LINE
  8
0
 10
2.62891
 20
92.9453
 11
2.78932
 21
92.6044
  0
LINE
  8
0
 10
2.78932
 20
92.6044
 11
2.90575
 21
92.2461
  0
LINE
  8
0
 10
2.90575
 20
92.2461
 11
2.97633
 21
91.876
  0
LINE
  8
0
 10
2.97633
 20
91.876
 11
3
 21
91.5
  0
LINE
  8
0
 10
3
 20
91.5
 11
2.97633
 21
91.124
  0
LINE
  8
0
 10
2.97633
 20
91.124
 11
2.90575
 21
90.7539
  0
LINE
  8
0
 10
2.90575
 20
90.7539
 11
2.78932
 21
90.3956
  0
LINE
  8
0
 10
2.78932
 20
90.3956
 11
2.62891
 21
90.0547
  0
LINE
  8
0
 10
2.62891
 20
90.0547
 11
2.53072
 21
89.9
  0
LINE
  8
0
 10
2.53072
 20
89.9
 11
2.53072
 21
87
  0
LINE
  8
0
 10
2.53072
 20
87
 11
5.24623
 21
87
  0
LINE
  8
0
 10
5.24623
 20
87
 11
5.24623
 21
81.6
  0
LINE
  8
0
 10
5.24623
 20
81.6
 11
2.53072
 21
81.6
  0
LINE
  8
0
 10
2.53072
 20
81.6
 11
2.53072
 21
78
  0
LINE
  8
0
 10
2.53072
 20
78
 11
12.4693
 21
78
  0
LINE
  8
0
 10
12.4693
 20
78
 11
12.4693
 21
81.6
  0
LINE
  8
0
 10
12.4693
 20
81.6
 11
9.75375
 21
81.6
  0
LINE
  8
0
 10
9.75375
 20
81.6
 11
9.75375
 21
87
  0
LINE
  8
0
 10
9.75375
 20
87
 11
12.4693
 21
87
  0
LINE
  8
0
 10
12.4693
 20
87
 11
12.4693
 21
89.9
  0
LINE
  8
0
 10
12.4693
 20
89.9
 11
12.3711
 21
90.0547
  0
LINE
  8
0
 10
12.3711
 20
90.0547
 11
12.2107
 21
90.3956
  0
LINE
  8
0
 10
12.2107
 20
90.3956
 11
12.0942
 21
90.7539
  0
LINE
  8
0
 10
12.0942
 20
90.7539
 11
12.0237
 21
91.124
  0
LINE
  8
0
 10
12.0237
 20
91.124
 11
12
 21
91.5
  0
LINE
  8
0
 10
12
 20
91.5
 11
12.0237
 21
91.876
  0
LINE
  8
0
 10
12.0237
 20
91.876
 11
12.0942
 21
92.2461
  0
LINE
  8
0
 10
12.0942
 20
92.2461
 11
12.2107
 21
92.6044
  0
LINE
  8
0
 10
12.2107
 20
92.6044
 11
12.3711
 21
92.9453
  0
LINE
  8
0
 10
12.3711
 20
92.9453
 11
12.5729
 21
93.2634
  0
LINE
  8
0
 10
12.5729
 20
93.2634
 11
12.8131
 21
93.5536
  0
LINE
  8
0
 10
12.8131
 20
93.5536
 11
13.0877
 21
93.8115
  0
LINE
  8
0
 10
13.0877
 20
93.8115
 11
13.3925
 21
94.033
  0
LINE
  8
0
 10
13.3925
 20
94.033
 11
13.7227
 21
94.2145
  0
LINE
  8
0
 10
13.7227
 20
94.2145
 11
14.0729
 21
94.3532
  0
LINE
  8
0
 10
14.0729
 20
94.3532
 11
14.4379
 21
94.4469
  0
LINE
  8
0
 10
14.4379
 20
94.4469
 11
14.8116
 21
94.4941
  0
LINE
  8
0
 10
14.8116
 20
94.4941
 11
15.1884
 21
94.4941
  0
LINE
  8
0
 10
15.1884
 20
94.4941
 11
15.5621
 21
94.4469
  0
LINE
  8
0
 10
15.5621
 20
94.4469
 11
15.927
 21
94.3532
  0
LINE
  8
0
 10
15.927
 20
94.3532
 11
16.2773
 21
94.2145
  0
LINE
  8
0
 10
16.2773
 20
94.2145
 11
16.6075
 21
94.033
  0
LINE
  8
0
 10
16.6075
 20
94.033
 11
16.9123
 21
93.8115
  0
LINE
  8
0
 10
16.9123
 20
93.8115
 11
17.1869
 21
93.5536
  0
LINE
  8
0
 10
17.1869
 20
93.5536
 11
17.427
 21
93.2634
  0
LINE
  8
0
 10
17.427
 20
93.2634
 11
17.6289
 21
92.9453
  0
LINE
  8
0
 10
17.6289
 20
92.9453
 11
17.7893
 21
92.6044
  0
LINE
  8
0
 10
17.7893
 20
92.6044
 11
17.9057
 21
92.2461
  0
LINE
  8
0
 10
17.9057
 20
92.2461
 11
17.9763
 21
91.876
  0
LINE
  8
0
 10
17.9763
 20
91.876
 11
18
 21
91.5
  0
LINE
  8
0
 10
18
 20
91.5
 11
17.9763
 21
91.124
  0
LINE
  8
0
 10
17.9763
 20
91.124
 11
17.9057
 21
90.7539
  0
LINE
  8
0
 10
17.9057
 20
90.7539
 11
17.7893
 21
90.3956
  0
LINE
  8
0
 10
17.7893
 20
90.3956
 11
17.6289
 21
90.0547
  0
LINE
  8
0
 10
17.6289
 20
90.0547
 11
17.5307
 21
89.9
  0
LINE
  8
0
 10
17.5307
 20
89.9
 11
17.5307
 21
87
  0
LINE
  8
0
 10
17.5307
 20
87
 11
20.2462
 21
87
  0
LINE
  8
0
 10
20.2462
 20
87
 11
20.2462
 21
81.6
  0
LINE
  8
0
 10
20.2462
 20
81.6
 11
17.5307
 21
81.6
  0
LINE
  8
0
 10
17.5307
 20
81.6
 11
17.5307
 21
78
  0
LINE
  8
0
 10
17.5307
 20
78
 11
22
 21
78
  0
LINE
  8
0
 10
22
 20
78
 11
22
 21
108.5
  0
LINE
  8
0
 10
22
 20
108.5
 11
21.9606
 21
109.127
  0
LINE
  8
0
 10
21.9606
 20
109.127
 11
21.8429
 21
109.743
  0
LINE
  8
0
 10
21.8429
 20
109.743
 11
21.6489
 21
110.341
  0
LINE
  8
0
 10
21.6489
 20
110.341
 11
21.3815
 21
110.909
  0
LINE
  8
0
 10
21.3815
 20
110.909
 11
21.0451
 21
111.439
  0
LINE
  8
0
 10
21.0451
 20
111.439
 11
20.6448
 21
111.923
  0
LINE
  8
0
 10
20.6448
 20
111.923
 11
20.1871
 21
112.353
  0
LINE
  8
0
 10
20.1871
 20
112.353
 11
19.6791
 21
112.722
  0
LINE
  8
0
 10
19.6791
 20
112.722
 11
19.1289
 21
113.024
  0
LINE
  8
0
 10
19.1289
 20
113.024
 11
18.5451
 21
113.255
  0
LINE
  8
0
 10
18.5451
 20
113.255
 11
17.9369
 21
113.411
  0
LINE
  8
0
 10
17.9369
 20
113.411
 11
17.3139
 21
113.49
  0
LINE
  8
0
 10
17.3139
 20
113.49
 11
-17.3139
 21
113.49
  0
LINE
  8
0
 10
-17.3139
 20
113.49
 11
-17.9369
 21
113.411
  0
LINE
  8
0
 10
-17.9369
 20
113.411
 11
-18.5451
 21
113.255
  0
LINE
  8
0
 10
-18.5451
 20
113.255
 11
-19.1289
 21
113.024
  0
LINE
  8
0
 10
-19.1289
 20
113.024
 11
-19.6791
 21
112.722
  0
LINE
  8
0
 10
-19.6791
 20
112.722
 11
-20.1871
 21
112.353
  0
LINE
  8
0
 10
-20.1871
 20
112.353
 11
-20.6448
 21
111.923
  0
LINE
  8
0
 10
-20.6448
 20
111.923
 11
-21.0451
 21
111.439
  0
LINE
  8
0
 10
-21.0451
 20
111.439
 11
-21.3815
 21
110.909
  0
LINE
  8
0
 10
-21.3815
 20
110.909
 11
-21.6489
 21
110.341
  0
LINE
  8
0
 10
-21.6489
 20
110.341
 11
-21.8429
 21
109.743
  0
LINE
  8
0
 10
-21.8429
 20
109.743
 11
-21.9606
 21
109.127
  0
LINE
  8
0
 10
-21.9606
 20
109.127
 11
-22
 21
108.5
  0
LINE
  8
0
 10
-22
 20
108.5
 11
-22
 21
78
  0
LINE
  8
0
 10
-22
 20
78
 11
-17.5307
 21
78
  0
LINE
  8
0
 10
-17.5307
 20
78
 11
-17.5307
 21
81.6
  0
LINE
  8
0
 10
-0.18837
 20
103.506
 11
-0.562134
 21
103.553
  0
LINE
  8
0
 10
-0.562134
 20
103.553
 11
-0.927048
 21
103.647
  0
LINE
  8
0
 10
-0.927048
 20
103.647
 11
-1.27733
 21
103.786
  0
LINE
  8
0
 10
-1.27733
 20
103.786
 11
-1.60747
 21
103.967
  0
LINE
  8
0
 10
-1.60747
 20
103.967
 11
-1.91226
 21
104.188
  0
LINE
  8
0
 10
-1.91226
 20
104.188
 11
-2.1869
 21
104.446
  0
LINE
  8
0
 10
-2.1869
 20
104.446
 11
-2.42705
 21
104.737
  0
LINE
  8
0
 10
-2.42705
 20
104.737
 11
-2.62891
 21
105.055
  0
LINE
  8
0
 10
-2.62891
 20
105.055
 11
-2.78932
 21
105.396
  0
LINE
  8
0
 10
-2.78932
 20
105.396
 11
-2.90575
 21
105.754
  0
LINE
  8
0
 10
-2.90575
 20
105.754
 11
-2.97633
 21
106.124
  0
LINE
  8
0
 10
-2.97633
 20
106.124
 11
-3
 21
106.5
  0
LINE
  8
0
 10
-3
 20
106.5
 11
-2.97633
 21
106.876
  0
LINE
  8
0
 10
-2.97633
 20
106.876
 11
-2.90575
 21
107.246
  0
LINE
  8
0
 10
-2.90575
 20
107.246
 11
-2.78932
 21
107.604
  0
LINE
  8
0
 10
-2.78932
 20
107.604
 11
-2.62891
 21
107.945
  0
LINE
  8
0
 10
-2.62891
 20
107.945
 11
-2.42705
 21
108.263
  0
LINE
  8
0
 10
-2.42705
 20
108.263
 11
-2.1869
 21
108.554
  0
LINE
  8
0
 10
-2.1869
 20
108.554
 11
-1.91226
 21
108.812
  0
LINE
  8
0
 10
-1.91226
 20
108.812
 11
-1.60747
 21
109.033
  0
LINE
  8
0
 10
-1.60747
 20
109.033
 11
-1.27733
 21
109.214
  0
LINE
  8
0
 10
-1.27733
 20
109.214
 11
-0.927048
 21
109.353
  0
LINE
  8
0
 10
-0.927048
 20
109.353
 11
-0.562134
 21
109.447
  0
LINE
  8
0
 10
-0.562134
 20
109.447
 11
-0.18837
 21
109.494
  0
LINE
  8
0
 10
-0.18837
 20
109.494
 11
0.18837
 21
109.494
  0
LINE
  8
0
 10
0.18837
 20
109.494
 11
0.562134
 21
109.447
  0
LINE
  8
0
 10
0.562134
 20
109.447
 11
0.927048
 21
109.353
  0
LINE
  8
0
 10
0.927048
 20
109.353
 11
1.27733
 21
109.214
  0
LINE
  8
0
 10
1.27733
 20
109.214
 11
1.60747
 21
109.033
  0
LINE
  8
0
 10
1.60747
 20
109.033
 11
1.91226
 21
108.812
  0
LINE
  8
0
 10
1.91226
 20
108.812
 11
2.1869
 21
108.554
  0
LINE
  8
0
 10
2.1869
 20
108.554
 11
2.42705
 21
108.263
  0
LINE
  8
0
 10
2.42705
 20
108.263
 11
2.62891
 21
107.945
  0
LINE
  8
0
 10
2.62891
 20
107.945
 11
2.78932
 21
107.604
  0
LINE
  8
0
 10
2.78932
 20
107.604
 11
2.90575
 21
107.246
  0
LINE
  8
0
 10
2.90575
 20
107.246
 11
2.97633
 21
106.876
  0
LINE
  8
0
 10
2.97633
 20
106.876
 11
3
 21
106.5
  0
LINE
  8
0
 10
3
 20
106.5
 11
2.97633
 21
106.124
  0
LINE
  8
0
 10
2.97633
 20
106.124
 11
2.90575
 21
105.754
  0
LINE
  8
0
 10
2.90575
 20
105.754
 11
2.78932
 21
105.396
  0
LINE
  8
0
 10
2.78932
 20
105.396
 11
2.62891
 21
105.055
  0
LINE
  8
0
 10
2.62891
 20
105.055
 11
2.42705
 21
104.737
  0
LINE
  8
0
 10
2.42705
 20
104.737
 11
2.1869
 21
104.446
  0
LINE
  8
0
 10
2.1869
 20
104.446
 11
1.91226
 21
104.188
  0
LINE
  8
0
 10
1.91226
 20
104.188
 11
1.60747
 21
103.967
  0
LINE
  8
0
 10
1.60747
 20
103.967
 11
1.27733
 21
103.786
  0
LINE
  8
0
 10
1.27733
 20
103.786
 11
0.927048
 21
103.647
  0
LINE
  8
0
 10
0.927048
 20
103.647
 11
0.562134
 21
103.553
  0
LINE
  8
0
 10
0.562134
 20
103.553
 11
0.18837
 21
103.506
  0
LINE
  8
0
 10
0.18837
 20
103.506
 11
-0.18837
 21
103.506
  0
LINE
  8
0
 10
14.8116
 20
103.506
 11
14.4379
 21
103.553
  0
LINE
  8
0
 10
14.4379
 20
103.553
 11
14.0729
 21
103.647
  0
LINE
  8
0
 10
14.0729
 20
103.647
 11
13.7227
 21
103.786
  0
LINE
  8
0
 10
13.7227
 20
103.786
 11
13.3925
 21
103.967
  0
LINE
  8
0
 10
13.3925
 20
103.967
 11
13.0877
 21
104.188
  0
LINE
  8
0
 10
13.0877
 20
104.188
 11
12.8131
 21
104.446
  0
LINE
  8
0
 10
12.8131
 20
104.446
 11
12.5729
 21
104.737
  0
LINE
  8
0
 10
12.5729
 20
104.737
 11
12.3711
 21
105.055
  0
LINE
  8
0
 10
12.3711
 20
105.055
 11
12.2107
 21
105.396
  0
LINE
  8
0
 10
12.2107
 20
105.396
 11
12.0942
 21
105.754
  0
LINE
  8
0
 10
12.0942
 20
105.754
 11
12.0237
 21
106.124
  0
LINE
  8
0
 10
12.0237
 20
106.124
 11
12
 21
106.5
  0
LINE
  8
0
 10
12
 20
106.5
 11
12.0237
 21
106.876
  0
LINE
  8
0
 10
12.0237
 20
106.876
 11
12.0942
 21
107.246
  0
LINE
  8
0
 10
12.0942
 20
107.246
 11
12.2107
 21
107.604
  0
LINE
  8
0
 10
12.2107
 20
107.604
 11
12.3711
 21
107.945
  0
LINE
  8
0
 10
12.3711
 20
107.945
 11
12.5729
 21
108.263
  0
LINE
  8
0
 10
12.5729
 20
108.263
 11
12.8131
 21
108.554
  0
LINE
  8
0
 10
12.8131
 20
108.554
 11
13.0877
 21
108.812
  0
LINE
  8
0
 10
13.0877
 20
108.812
 11
13.3925
 21
109.033
  0
LINE
  8
0
 10
13.3925
 20
109.033
 11
13.7227
 21
109.214
  0
LINE
  8
0
 10
13.7227
 20
109.214
 11
14.0729
 21
109.353
  0
LINE
  8
0
 10
14.0729
 20
109.353
 11
14.4379
 21
109.447
  0
LINE
  8
0
 10
14.4379
 20
109.447
 11
14.8116
 21
109.494
  0
LINE
  8
0
 10
14.8116
 20
109.494
 11
15.1884
 21
109.494
  0
LINE
  8
0
 10
15.1884
 20
109.494
 11
15.5621
 21
109.447
  0
LINE
  8
0
 10
15.5621
 20
109.447
 11
15.927
 21
109.353
  0
LINE
  8
0
 10
15.927
 20
109.353
 11
16.2773
 21
109.214
  0
LINE
  8
0
 10
16.2773
 20
109.214
 11
16.6075
 21
109.033
  0
LINE
  8
0
 10
16.6075
 20
109.033
 11
16.9123
 21
108.812
  0
LINE
  8
0
 10
16.9123
 20
108.812
 11
17.1869
 21
108.554
  0
LINE
  8
0
 10
17.1869
 20
108.554
 11
17.427
 21
108.263
  0
LINE
  8
0
 10
17.427
 20
108.263
 11
17.6289
 21
107.945
  0
LINE
  8
0
 10
17.6289
 20
107.945
 11
17.7893
 21
107.604
  0
LINE
  8
0
 10
17.7893
 20
107.604
 11
17.9057
 21
107.246
  0
LINE
  8
0
 10
17.9057
 20
107.246
 11
17.9763
 21
106.876
  0
LINE
  8
0
 10
17.9763
 20
106.876
 11
18
 21
106.5
  0
LINE
  8
0
 10
18
 20
106.5
 11
17.9763
 21
106.124
  0
LINE
  8
0
 10
17.9763
 20
106.124
 11
17.9057
 21
105.754
  0
LINE
  8
0
 10
17.9057
 20
105.754
 11
17.7893
 21
105.396
  0
LINE
  8
0
 10
17.7893
 20
105.396
 11
17.6289
 21
105.055
  0
LINE
  8
0
 10
17.6289
 20
105.055
 11
17.427
 21
104.737
  0
LINE
  8
0
 10
17.427
 20
104.737
 11
17.1869
 21
104.446
  0
LINE
  8
0
 10
17.1869
 20
104.446
 11
16.9123
 21
104.188
  0
LINE
  8
0
 10
16.9123
 20
104.188
 11
16.6075
 21
103.967
  0
LINE
  8
0
 10
16.6075
 20
103.967
 11
16.2773
 21
103.786
  0
LINE
  8
0
 10
16.2773
 20
103.786
 11
15.927
 21
103.647
  0
LINE
  8
0
 10
15.927
 20
103.647
 11
15.5621
 21
103.553
  0
LINE
  8
0
 10
15.5621
 20
103.553
 11
15.1884
 21
103.506
  0
LINE
  8
0
 10
15.1884
 20
103.506
 11
14.8116
 21
103.506
  0
LINE
  8
0
 10
-15.1884
 20
103.506
 11
-15.5621
 21
103.553
  0
LINE
  8
0
 10
-15.5621
 20
103.553
 11
-15.927
 21
103.647
  0
LINE
  8
0
 10
-15.927
 20
103.647
 11
-16.2773
 21
103.786
  0
LINE
  8
0
 10
-16.2773
 20
103.786
 11
-16.6075
 21
103.967
  0
LINE
  8
0
 10
-16.6075
 20
103.967
 11
-16.9123
 21
104.188
  0
LINE
  8
0
 10
-16.9123
 20
104.188
 11
-17.1869
 21
104.446
  0
LINE
  8
0
 10
-17.1869
 20
104.446
 11
-17.427
 21
104.737
  0
LINE
  8
0
 10
-17.427
 20
104.737
 11
-17.6289
 21
105.055
  0
LINE
  8
0
 10
-17.6289
 20
105.055
 11
-17.7893
 21
105.396
  0
LINE
  8
0
 10
-17.7893
 20
105.396
 11
-17.9057
 21
105.754
  0
LINE
  8
0
 10
-17.9057
 20
105.754
 11
-17.9763
 21
106.124
  0
LINE
  8
0
 10
-17.9763
 20
106.124
 11
-18
 21
106.5
  0
LINE
  8
0
 10
-18
 20
106.5
 11
-17.9763
 21
106.876
  0
LINE
  8
0
 10
-17.9763
 20
106.876
 11
-17.9057
 21
107.246
  0
LINE
  8
0
 10
-17.9057
 20
107.246
 11
-17.7893
 21
107.604
  0
LINE
  8
0
 10
-17.7893
 20
107.604
 11
-17.6289
 21
107.945
  0
LINE
  8
0
 10
-17.6289
 20
107.945
 11
-17.427
 21
108.263
  0
LINE
  8
0
 10
-17.427
 20
108.263
 11
-17.1869
 21
108.554
  0
LINE
  8
0
 10
-17.1869
 20
108.554
 11
-16.9123
 21
108.812
  0
LINE
  8
0
 10
-16.9123
 20
108.812
 11
-16.6075
 21
109.033
  0
LINE
  8
0
 10
-16.6075
 20
109.033
 11
-16.2773
 21
109.214
  0
LINE
  8
0
 10
-16.2773
 20
109.214
 11
-15.927
 21
109.353
  0
LINE
  8
0
 10
-15.927
 20
109.353
 11
-15.5621
 21
109.447
  0
LINE
  8
0
 10
-15.5621
 20
109.447
 11
-15.1884
 21
109.494
  0
LINE
  8
0
 10
-15.1884
 20
109.494
 11
-14.8116
 21
109.494
  0
LINE
  8
0
 10
-14.8116
 20
109.494
 11
-14.4379
 21
109.447
  0
LINE
  8
0
 10
-14.4379
 20
109.447
 11
-14.0729
 21
109.353
  0
LINE
  8
0
 10
-14.0729
 20
109.353
 11
-13.7227
 21
109.214
  0
LINE
  8
0
 10
-13.7227
 20
109.214
 11
-13.3925
 21
109.033
  0
LINE
  8
0
 10
-13.3925
 20
109.033
 11
-13.0877
 21
108.812
  0
LINE
  8
0
 10
-13.0877
 20
108.812
 11
-12.8131
 21
108.554
  0
LINE
  8
0
 10
-12.8131
 20
108.554
 11
-12.5729
 21
108.263
  0
LINE
  8
0
 10
-12.5729
 20
108.263
 11
-12.3711
 21
107.945
  0
LINE
  8
0
 10
-12.3711
 20
107.945
 11
-12.2107
 21
107.604
  0
LINE
  8
0
 10
-12.2107
 20
107.604
 11
-12.0942
 21
107.246
  0
LINE
  8
0
 10
-12.0942
 20
107.246
 11
-12.0237
 21
106.876
  0
LINE
  8
0
 10
-12.0237
 20
106.876
 11
-12
 21
106.5
  0
LINE
  8
0
 10
-12
 20
106.5
 11
-12.0237
 21
106.124
  0
LINE
  8
0
 10
-12.0237
 20
106.124
 11
-12.0942
 21
105.754
  0
LINE
  8
0
 10
-12.0942
 20
105.754
 11
-12.2107
 21
105.396
  0
LINE
  8
0
 10
-12.2107
 20
105.396
 11
-12.3711
 21
105.055
  0
LINE
  8
0
 10
-12.3711
 20
105.055
 11
-12.5729
 21
104.737
  0
LINE
  8
0
 10
-12.5729
 20
104.737
 11
-12.8131
 21
104.446
  0
LINE
  8
0
 10
-12.8131
 20
104.446
 11
-13.0877
 21
104.188
  0
LINE
  8
0
 10
-13.0877
 20
104.188
 11
-13.3925
 21
103.967
  0
LINE
  8
0
 10
-13.3925
 20
103.967
 11
-13.7227
 21
103.786
  0
LINE
  8
0
 10
-13.7227
 20
103.786
 11
-14.0729
 21
103.647
  0
LINE
  8
0
 10
-14.0729
 20
103.647
 11
-14.4379
 21
103.553
  0
LINE
  8
0
 10
-14.4379
 20
103.553
 11
-14.8116
 21
103.506
  0
LINE
  8
0
 10
-14.8116
 20
103.506
 11
-15.1884
 21
103.506
  0
LINE
  8
0
 10
-9.08675
 20
88.7517
 11
-10.6735
 21
91.5
  0
LINE
  8
0
 10
-10.6735
 20
91.5
 11
-9.08675
 21
94.2483
  0
LINE
  8
0
 10
-9.08675
 20
94.2483
 11
-5.91325
 21
94.2483
  0
LINE
  8
0
 10
-5.91325
 20
94.2483
 11
-4.32651
 21
91.5
  0
LINE
  8
0
 10
-4.32651
 20
91.5
 11
-5.91325
 21
88.7517
  0
LINE
  8
0
 10
-5.91325
 20
88.7517
 11
-9.08675
 21
88.7517
  0
LINE
  8
0
 10
5.91325
 20
88.7517
 11
4.32651
 21
91.5
  0
LINE
  8
0
 10
4.32651
 20
91.5
 11
5.91325
 21
94.2483
  0
LINE
  8
0
 10
5.91325
 20
94.2483
 11
9.08675
 21
94.2483
  0
LINE
  8
0
 10
9.08675
 20
94.2483
 11
10.6735
 21
91.5
  0
LINE
  8
0
 10
10.6735
 20
91.5
 11
9.08675
 21
88.7517
  0
LINE
  8
0
 10
9.08675
 20
88.7517
 11
5.91325
 21
88.7517
  0
LINE
  8
0
 10
-17.5942
 20
42.6
 11
-20.304
 21
42.6
  0
LINE
  8
0
 10
-20.304
 20
42.6
 11
-20.304
 21
48
  0
LINE
  8
0
 10
-20.304
 20
48
 11
-17.5942
 21
48
  0
LINE
  8
0
 10
-17.5942
 20
48
 11
-17.5942
 21
51
  0
LINE
  8
0
 10
-17.5942
 20
51
 11
-17.6289
 21
51.0547
  0
LINE
  8
0
 10
-17.6289
 20
51.0547
 11
-17.7893
 21
51.3956
  0
LINE
  8
0
 10
-17.7893
 20
51.3956
 11
-17.9057
 21
51.7539
  0
LINE
  8
0
 10
-17.9057
 20
51.7539
 11
-17.9763
 21
52.124
  0
LINE
  8
0
 10
-17.9763
 20
52.124
 11
-18
 21
52.5
  0
LINE
  8
0
 10
-18
 20
52.5
 11
-17.9763
 21
52.876
  0
LINE
  8
0
 10
-17.9763
 20
52.876
 11
-17.9057
 21
53.2461
  0
LINE
  8
0
 10
-17.9057
 20
53.2461
 11
-17.7893
 21
53.6044
  0
LINE
  8
0
 10
-17.7893
 20
53.6044
 11
-17.6289
 21
53.9453
  0
LINE
  8
0
 10
-17.6289
 20
53.9453
 11
-17.427
 21
54.2634
  0
LINE
  8
0
 10
-17.427
 20
54.2634
 11
-17.1869
 21
54.5536
  0
LINE
  8
0
 10
-17.1869
 20
54.5536
 11
-16.9123
 21
54.8115
  0
LINE
  8
0
 10
-16.9123
 20
54.8115
 11
-16.6075
 21
55.033
  0
LINE
  8
0
 10
-16.6075
 20
55.033
 11
-16.2773
 21
55.2145
  0
LINE
  8
0
 10
-16.2773
 20
55.2145
 11
-15.927
 21
55.3532
  0
LINE
  8
0
 10
-15.927
 20
55.3532
 11
-15.5621
 21
55.4469
  0
LINE
  8
0
 10
-15.5621
 20
55.4469
 11
-15.1884
 21
55.4941
  0
LINE
  8
0
 10
-15.1884
 20
55.4941
 11
-14.8116
 21
55.4941
  0
LINE
  8
0
 10
-14.8116
 20
55.4941
 11
-14.4379
 21
55.4469
  0
LINE
  8
0
 10
-14.4379
 20
55.4469
 11
-14.0729
 21
55.3532
  0
LINE
  8
0
 10
-14.0729
 20
55.3532
 11
-13.7227
 21
55.2145
  0
LINE
  8
0
 10
-13.7227
 20
55.2145
 11
-13.3925
 21
55.033
  0
LINE
  8
0
 10
-13.3925
 20
55.033
 11
-13.0877
 21
54.8115
  0
LINE
  8
0
 10
-13.0877
 20
54.8115
 11
-12.8131
 21
54.5536
  0
LINE
  8
0
 10
-12.8131
 20
54.5536
 11
-12.5729
 21
54.2634
  0
LINE
  8
0
 10
-12.5729
 20
54.2634
 11
-12.3711
 21
53.9453
  0
LINE
  8
0
 10
-12.3711
 20
53.9453
 11
-12.2107
 21
53.6044
  0
LINE
  8
0
 10
-12.2107
 20
53.6044
 11
-12.0942
 21
53.2461
  0
LINE
  8
0
 10
-12.0942
 20
53.2461
 11
-12.0237
 21
52.876
  0
LINE
  8
0
 10
-12.0237
 20
52.876
 11
-12
 21
52.5
  0
LINE
  8
0
 10
-12
 20
52.5
 11
-12.0237
 21
52.124
  0
LINE
  8
0
 10
-12.0237
 20
52.124
 11
-12.0942
 21
51.7539
  0
LINE
  8
0
 10
-12.0942
 20
51.7539
 11
-12.2107
 21
51.3956
  0
LINE
  8
0
 10
-12.2107
 20
51.3956
 11
-12.3711
 21
51.0547
  0
LINE
  8
0
 10
-12.3711
 20
51.0547
 11
-12.4058
 21
51
  0
LINE
  8
0
 10
-12.4058
 20
51
 11
-12.4058
 21
48
  0
LINE
  8
0
 10
-12.4058
 20
48
 11
-9.69603
 21
48
  0
LINE
  8
0
 10
-9.69603
 20
48
 11
-9.69603
 21
42.6
  0
LINE
  8
0
 10
-9.69603
 20
42.6
 11
-12.4058
 21
42.6
  0
LINE
  8
0
 10
-12.4058
 20
42.6
 11
-12.4058
 21
39
  0
LINE
  8
0
 10
-12.4058
 20
39
 11
-2.59418
 21
39
  0
LINE
  8
0
 10
-2.59418
 20
39
 11
-2.59418
 21
42.6
  0
LINE
  8
0
 10
-2.59418
 20
42.6
 11
-5.30396
 21
42.6
  0
LINE
  8
0
 10
-5.30396
 20
42.6
 11
-5.30396
 21
48
  0
LINE
  8
0
 10
-5.30396
 20
48
 11
-2.59418
 21
48
  0
LINE
  8
0
 10
-2.59418
 20
48
 11
-2.59418
 21
51
  0
LINE
  8
0
 10
-2.59418
 20
51
 11
-2.62891
 21
51.0547
  0
LINE
  8
0
 10
-2.62891
 20
51.0547
 11
-2.78932
 21
51.3956
  0
LINE
  8
0
 10
-2.78932
 20
51.3956
 11
-2.90575
 21
51.7539
  0
LINE
  8
0
 10
-2.90575
 20
51.7539
 11
-2.97633
 21
52.124
  0
LINE
  8
0
 10
-2.97633
 20
52.124
 11
-3
 21
52.5
  0
LINE
  8
0
 10
-3
 20
52.5
 11
-2.97633
 21
52.876
  0
LINE
  8
0
 10
-2.97633
 20
52.876
 11
-2.90575
 21
53.2461
  0
LINE
  8
0
 10
-2.90575
 20
53.2461
 11
-2.78932
 21
53.6044
  0
LINE
  8
0
 10
-2.78932
 20
53.6044
 11
-2.62891
 21
53.9453
  0
LINE
  8
0
 10
-2.62891
 20
53.9453
 11
-2.42705
 21
54.2634
  0
LINE
  8
0
 10
-2.42705
 20
54.2634
 11
-2.1869
 21
54.5536
  0
LINE
  8
0
 10
-2.1869
 20
54.5536
 11
-1.91226
 21
54.8115
  0
LINE
  8
0
 10
-1.91226
 20
54.8115
 11
-1.60747
 21
55.033
  0
LINE
  8
0
 10
-1.60747
 20
55.033
 11
-1.27733
 21
55.2145
  0
LINE
  8
0
 10
-1.27733
 20
55.2145
 11
-0.927048
 21
55.3532
  0
LINE
  8
0
 10
-0.927048
 20
55.3532
 11
-0.562134
 21
55.4469
  0
LINE
  8
0
 10
-0.562134
 20
55.4469
 11
-0.18837
 21
55.4941
  0
LINE
  8
0
 10
-0.18837
 20
55.4941
 11
0.18837
 21
55.4941
  0
LINE
  8
0
 10
0.18837
 20
55.4941
 11
0.562134
 21
55.4469
  0
LINE
  8
0
 10
0.562134
 20
55.4469
 11
0.927048
 21
55.3532
  0
LINE
  8
0
 10
0.927048
 20
55.3532
 11
1.27733
 21
55.2145
  0
LINE
  8
0
 10
1.27733
 20
55.2145
 11
1.60747
 21
55.033
  0
LINE
  8
0
 10
1.60747
 20
55.033
 11
1.91226
 21
54.8115
  0
LINE
  8
0
 10
1.91226
 20
54.8115
 11
2.1869
 21
54.5536
  0
LINE
  8
0
 10
2.1869
 20
54.5536
 11
2.42705
 21
54.2634
  0
LINE
  8
0
 10
2.42705
 20
54.2634
 11
2.62891
 21
53.9453
  0
LINE
  8
0
 10
2.62891
 20
53.9453
 11
2.78932
 21
53.6044
  0
LINE
  8
0
 10
2.78932
 20
53.6044
 11
2.90575
 21
53.2461
  0
LINE
  8
0
 10
2.90575
 20
53.2461
 11
2.97633
 21
52.876
  0
LINE
  8
0
 10
2.97633
 20
52.876
 11
3
 21
52.5
  0
LINE
  8
0
 10
3
 20
52.5
 11
2.97633
 21
52.124
  0
LINE
  8
0
 10
2.97633
 20
52.124
 11
2.90575
 21
51.7539
  0
LINE
  8
0
 10
2.90575
 20
51.7539
 11
2.78932
 21
51.3956
  0
LINE
  8
0
 10
2.78932
 20
51.3956
 11
2.62891
 21
51.0547
  0
LINE
  8
0
 10
2.62891
 20
51.0547
 11
2.59418
 21
51
  0
LINE
  8
0
 10
2.59418
 20
51
 11
2.59418
 21
48
  0
LINE
  8
0
 10
2.59418
 20
48
 11
5.30396
 21
48
  0
LINE
  8
0
 10
5.30396
 20
48
 11
5.30396
 21
42.6
  0
LINE
  8
0
 10
5.30396
 20
42.6
 11
2.59418
 21
42.6
  0
LINE
  8
0
 10
2.59418
 20
42.6
 11
2.59418
 21
39
  0
LINE
  8
0
 10
2.59418
 20
39
 11
12.4058
 21
39
  0
LINE
  8
0
 10
12.4058
 20
39
 11
12.4058
 21
42.6
  0
LINE
  8
0
 10
12.4058
 20
42.6
 11
9.69603
 21
42.6
  0
LINE
  8
0
 10
9.69603
 20
42.6
 11
9.69603
 21
48
  0
LINE
  8
0
 10
9.69603
 20
48
 11
12.4058
 21
48
  0
LINE
  8
0
 10
12.4058
 20
48
 11
12.4058
 21
51
  0
LINE
  8
0
 10
12.4058
 20
51
 11
12.3711
 21
51.0547
  0
LINE
  8
0
 10
12.3711
 20
51.0547
 11
12.2107
 21
51.3956
  0
LINE
  8
0
 10
12.2107
 20
51.3956
 11
12.0942
 21
51.7539
  0
LINE
  8
0
 10
12.0942
 20
51.7539
 11
12.0237
 21
52.124
  0
LINE
  8
0
 10
12.0237
 20
52.124
 11
12
 21
52.5
  0
LINE
  8
0
 10
12
 20
52.5
 11
12.0237
 21
52.876
  0
LINE
  8
0
 10
12.0237
 20
52.876
 11
12.0942
 21
53.2461
  0
LINE
  8
0
 10
12.0942
 20
53.2461
 11
12.2107
 21
53.6044
  0
LINE
  8
0
 10
12.2107
 20
53.6044
 11
12.3711
 21
53.9453
  0
LINE
  8
0
 10
12.3711
 20
53.9453
 11
12.5729
 21
54.2634
  0
LINE
  8
0
 10
12.5729
 20
54.2634
 11
12.8131
 21
54.5536
  0
LINE
  8
0
 10
12.8131
 20
54.5536
 11
13.0877
 21
54.8115
  0
LINE
  8
0
 10
13.0877
 20
54.8115
 11
13.3925
 21
55.033
  0
LINE
  8
0
 10
13.3925
 20
55.033
 11
13.7227
 21
55.2145
  0
LINE
  8
0
 10
13.7227
 20
55.2145
 11
14.0729
 21
55.3532
  0
LINE
  8
0
 10
14.0729
 20
55.3532
 11
14.4379
 21
55.4469
  0
LINE
  8
0
 10
14.4379
 20
55.4469
 11
14.8116
 21
55.4941
  0
LINE
  8
0
 10
14.8116
 20
55.4941
 11
15.1884
 21
55.4941
  0
LINE
  8
0
 10
15.1884
 20
55.4941
 11
15.5621
 21
55.4469
  0
LINE
  8
0
 10
15.5621
 20
55.4469
 11
15.927
 21
55.3532
  0
LINE
  8
0
 10
15.927
 20
55.3532
 11
16.2773
 21
55.2145
  0
LINE
  8
0
 10
16.2773
 20
55.2145
 11
16.6075
 21
55.033
  0
LINE
  8
0
 10
16.6075
 20
55.033
 11
16.9123
 21
54.8115
  0
LINE
  8
0
 10
16.9123
 20
54.8115
 11
17.1869
 21
54.5536
  0
LINE
  8
0
 10
17.1869
 20
54.5536
 11
17.427
 21
54.2634
  0
LINE
  8
0
 10
17.427
 20
54.2634
 11
17.6289
 21
53.9453
  0
LINE
  8
0
 10
17.6289
 20
53.9453
 11
17.7893
 21
53.6044
  0
LINE
  8
0
 10
17.7893
 20
53.6044
 11
17.9057
 21
53.2461
  0
LINE
  8
0
 10
17.9057
 20
53.2461
 11
17.9763
 21
52.876
  0
LINE
  8
0
 10
17.9763
 20
52.876
 11
18
 21
52.5
  0
LINE
  8
0
 10
18
 20
52.5
 11
17.9763
 21
52.124
  0
LINE
  8
0
 10
17.9763
 20
52.124
 11
17.9057
 21
51.7539
  0
LINE
  8
0
 10
17.9057
 20
51.7539
 11
17.7893
 21
51.3956
  0
LINE
  8
0
 10
17.7893
 20
51.3956
 11
17.6289
 21
51.0547
  0
LINE
  8
0
 10
17.6289
 20
51.0547
 11
17.5942
 21
51
  0
LINE
  8
0
 10
17.5942
 20
51
 11
17.5942
 21
48
  0
LINE
  8
0
 10
17.5942
 20
48
 11
20.304
 21
48
  0
LINE
  8
0
 10
20.304
 20
48
 11
20.304
 21
42.6
  0
LINE
  8
0
 10
20.304
 20
42.6
 11
17.5942
 21
42.6
  0
LINE
  8
0
 10
17.5942
 20
42.6
 11
17.5942
 21
39
  0
LINE
  8
0
 10
17.5942
 20
39
 11
22
 21
39
  0
LINE
  8
0
 10
22
 20
39
 11
22
 21
69.5
  0
LINE
  8
0
 10
22
 20
69.5
 11
21.9606
 21
70.1267
  0
LINE
  8
0
 10
21.9606
 20
70.1267
 11
21.8429
 21
70.7434
  0
LINE
  8
0
 10
21.8429
 20
70.7434
 11
21.6489
 21
71.3406
  0
LINE
  8
0
 10
21.6489
 20
71.3406
 11
21.3815
 21
71.9088
  0
LINE
  8
0
 10
21.3815
 20
71.9088
 11
21.0451
 21
72.4389
  0
LINE
  8
0
 10
21.0451
 20
72.4389
 11
20.6448
 21
72.9227
  0
LINE
  8
0
 10
20.6448
 20
72.9227
 11
20.1871
 21
73.3526
  0
LINE
  8
0
 10
20.1871
 20
73.3526
 11
19.6791
 21
73.7216
  0
LINE
  8
0
 10
19.6791
 20
73.7216
 11
19.1289
 21
74.0241
  0
LINE
  8
0
 10
19.1289
 20
74.0241
 11
18.5451
 21
74.2553
  0
LINE
  8
0
 10
18.5451
 20
74.2553
 11
17.9369
 21
74.4114
  0
LINE
  8
0
 10
17.9369
 20
74.4114
 11
17.3139
 21
74.4901
  0
LINE
  8
0
 10
17.3139
 20
74.4901
 11
-17.3139
 21
74.4901
  0
LINE
  8
0
 10
-17.3139
 20
74.4901
 11
-17.9369
 21
74.4114
  0
LINE
  8
0
 10
-17.9369
 20
74.4114
 11
-18.5451
 21
74.2553
  0
LINE
  8
0
 10
-18.5451
 20
74.2553
 11
-19.1289
 21
74.0241
  0
LINE
  8
0
 10
-19.1289
 20
74.0241
 11
-19.6791
 21
73.7216
  0
LINE
  8
0
 10
-19.6791
 20
73.7216
 11
-20.1871
 21
73.3526
  0
LINE
  8
0
 10
-20.1871
 20
73.3526
 11
-20.6448
 21
72.9227
  0
LINE
  8
0
 10
-20.6448
 20
72.9227
 11
-21.0451
 21
72.4389
  0
LINE
  8
0
 10
-21.0451
 20
72.4389
 11
-21.3815
 21
71.9088
  0
LINE
  8
0
 10
-21.3815
 20
71.9088
 11
-21.6489
 21
71.3406
  0
LINE
  8
0
 10
-21.6489
 20
71.3406
 11
-21.8429
 21
70.7434
  0
LINE
  8
0
 10
-21.8429
 20
70.7434
 11
-21.9606
 21
70.1267
  0
LINE
  8
0
 10
-21.9606
 20
70.1267
 11
-22
 21
69.5
  0
LINE
  8
0
 10
-22
 20
69.5
 11
-22
 21
39
  0
LINE
  8
0
 10
-22
 20
39
 11
-17.5942
 21
39
  0
LINE
  8
0
 10
-17.5942
 20
39
 11
-17.5942
 21
42.6
  0
LINE
  8
0
 10
-15.1884
 20
64.5059
 11
-15.5621
 21
64.5531
  0
LINE
  8
0
 10
-15.5621
 20
64.5531
 11
-15.927
 21
64.6468
  0
LINE
  8
0
 10
-15.927
 20
64.6468
 11
-16.2773
 21
64.7855
  0
LINE
  8
0
 10
-16.2773
 20
64.7855
 11
-16.6075
 21
64.967
  0
LINE
  8
0
 10
-16.6075
 20
64.967
 11
-16.9123
 21
65.1884
  0
LINE
  8
0
 10
-16.9123
 20
65.1884
 11
-17.1869
 21
65.4464
  0
LINE
  8
0
 10
-17.1869
 20
65.4464
 11
-17.427
 21
65.7366
  0
LINE
  8
0
 10
-17.427
 20
65.7366
 11
-17.6289
 21
66.0547
  0
LINE
  8
0
 10
-17.6289
 20
66.0547
 11
-17.7893
 21
66.3956
  0
LINE
  8
0
 10
-17.7893
 20
66.3956
 11
-17.9057
 21
66.7539
  0
LINE
  8
0
 10
-17.9057
 20
66.7539
 11
-17.9763
 21
67.124
  0
LINE
  8
0
 10
-17.9763
 20
67.124
 11
-18
 21
67.5
  0
LINE
  8
0
 10
-18
 20
67.5
 11
-17.9763
 21
67.876
  0
LINE
  8
0
 10
-17.9763
 20
67.876
 11
-17.9057
 21
68.2461
  0
LINE
  8
0
 10
-17.9057
 20
68.2461
 11
-17.7893
 21
68.6044
  0
LINE
  8
0
 10
-17.7893
 20
68.6044
 11
-17.6289
 21
68.9453
  0
LINE
  8
0
 10
-17.6289
 20
68.9453
 11
-17.427
 21
69.2634
  0
LINE
  8
0
 10
-17.427
 20
69.2634
 11
-17.1869
 21
69.5536
  0
LINE
  8
0
 10
-17.1869
 20
69.5536
 11
-16.9123
 21
69.8115
  0
LINE
  8
0
 10
-16.9123
 20
69.8115
 11
-16.6075
 21
70.033
  0
LINE
  8
0
 10
-16.6075
 20
70.033
 11
-16.2773
 21
70.2145
  0
LINE
  8
0
 10
-16.2773
 20
70.2145
 11
-15.927
 21
70.3532
  0
LINE
  8
0
 10
-15.927
 20
70.3532
 11
-15.5621
 21
70.4469
  0
LINE
  8
0
 10
-15.5621
 20
70.4469
 11
-15.1884
 21
70.4941
  0
LINE
  8
0
 10
-15.1884
 20
70.4941
 11
-14.8116
 21
70.4941
  0
LINE
  8
0
 10
-14.8116
 20
70.4941
 11
-14.4379
 21
70.4469
  0
LINE
  8
0
 10
-14.4379
 20
70.4469
 11
-14.0729
 21
70.3532
  0
LINE
  8
0
 10
-14.0729
 20
70.3532
 11
-13.7227
 21
70.2145
  0
LINE
  8
0
 10
-13.7227
 20
70.2145
 11
-13.3925
 21
70.033
  0
LINE
  8
0
 10
-13.3925
 20
70.033
 11
-13.0877
 21
69.8115
  0
LINE
  8
0
 10
-13.0877
 20
69.8115
 11
-12.8131
 21
69.5536
  0
LINE
  8
0
 10
-12.8131
 20
69.5536
 11
-12.5729
 21
69.2634
  0
LINE
  8
0
 10
-12.5729
 20
69.2634
 11
-12.3711
 21
68.9453
  0
LINE
  8
0
 10
-12.3711
 20
68.9453
 11
-12.2107
 21
68.6044
  0
LINE
  8
0
 10
-12.2107
 20
68.6044
 11
-12.0942
 21
68.2461
  0
LINE
  8
0
 10
-12.0942
 20
68.2461
 11
-12.0237
 21
67.876
  0
LINE
  8
0
 10
-12.0237
 20
67.876
 11
-12
 21
67.5
  0
LINE
  8
0
 10
-12
 20
67.5
 11
-12.0237
 21
67.124
  0
LINE
  8
0
 10
-12.0237
 20
67.124
 11
-12.0942
 21
66.7539
  0
LINE
  8
0
 10
-12.0942
 20
66.7539
 11
-12.2107
 21
66.3956
  0
LINE
  8
0
 10
-12.2107
 20
66.3956
 11
-12.3711
 21
66.0547
  0
LINE
  8
0
 10
-12.3711
 20
66.0547
 11
-12.5729
 21
65.7366
  0
LINE
  8
0
 10
-12.5729
 20
65.7366
 11
-12.8131
 21
65.4464
  0
LINE
  8
0
 10
-12.8131
 20
65.4464
 11
-13.0877
 21
65.1884
  0
LINE
  8
0
 10
-13.0877
 20
65.1884
 11
-13.3925
 21
64.967
  0
LINE
  8
0
 10
-13.3925
 20
64.967
 11
-13.7227
 21
64.7855
  0
LINE
  8
0
 10
-13.7227
 20
64.7855
 11
-14.0729
 21
64.6468
  0
LINE
  8
0
 10
-14.0729
 20
64.6468
 11
-14.4379
 21
64.5531
  0
LINE
  8
0
 10
-14.4379
 20
64.5531
 11
-14.8116
 21
64.5059
  0
LINE
  8
0
 10
-14.8116
 20
64.5059
 11
-15.1884
 21
64.5059
  0
LINE
  8
0
 10
14.8116
 20
64.5059
 11
14.4379
 21
64.5531
  0
LINE
  8
0
 10
14.4379
 20
64.5531
 11
14.0729
 21
64.6468
  0
LINE
  8
0
 10
14.0729
 20
64.6468
 11
13.7227
 21
64.7855
  0
LINE
  8
0
 10
13.7227
 20
64.7855
 11
13.3925
 21
64.967
  0
LINE
  8
0
 10
13.3925
 20
64.967
 11
13.0877
 21
65.1884
  0
LINE
  8
0
 10
13.0877
 20
65.1884
 11
12.8131
 21
65.4464
  0
LINE
  8
0
 10
12.8131
 20
65.4464
 11
12.5729
 21
65.7366
  0
LINE
  8
0
 10
12.5729
 20
65.7366
 11
12.3711
 21
66.0547
  0
LINE
  8
0
 10
12.3711
 20
66.0547
 11
12.2107
 21
66.3956
  0
LINE
  8
0
 10
12.2107
 20
66.3956
 11
12.0942
 21
66.7539
  0
LINE
  8
0
 10
12.0942
 20
66.7539
 11
12.0237
 21
67.124
  0
LINE
  8
0
 10
12.0237
 20
67.124
 11
12
 21
67.5
  0
LINE
  8
0
 10
12
 20
67.5
 11
12.0237
 21
67.876
  0
LINE
  8
0
 10
12.0237
 20
67.876
 11
12.0942
 21
68.2461
  0
LINE
  8
0
 10
12.0942
 20
68.2461
 11
12.2107
 21
68.6044
  0
LINE
  8
0
 10
12.2107
 20
68.6044
 11
12.3711
 21
68.9453
  0
LINE
  8
0
 10
12.3711
 20
68.9453
 11
12.5729
 21
69.2634
  0
LINE
  8
0
 10
12.5729
 20
69.2634
 11
12.8131
 21
69.5536
  0
LINE
  8
0
 10
12.8131
 20
69.5536
 11
13.0877
 21
69.8115
  0
LINE
  8
0
 10
13.0877
 20
69.8115
 11
13.3925
 21
70.033
  0
LINE
  8
0
 10
13.3925
 20
70.033
 11
13.7227
 21
70.2145
  0
LINE
  8
0
 10
13.7227
 20
70.2145
 11
14.0729
 21
70.3532
  0
LINE
  8
0
 10
14.0729
 20
70.3532
 11
14.4379
 21
70.4469
  0
LINE
  8
0
 10
14.4379
 20
70.4469
 11
14.8116
 21
70.4941
  0
LINE
  8
0
 10
14.8116
 20
70.4941
 11
15.1884
 21
70.4941
  0
LINE
  8
0
 10
15.1884
 20
70.4941
 11
15.5621
 21
70.4469
  0
LINE
  8
0
 10
15.5621
 20
70.4469
 11
15.927
 21
70.3532
  0
LINE
  8
0
 10
15.927
 20
70.3532
 11
16.2773
 21
70.2145
  0
LINE
  8
0
 10
16.2773
 20
70.2145
 11
16.6075
 21
70.033
  0
LINE
  8
0
 10
16.6075
 20
70.033
 11
16.9123
 21
69.8115
  0
LINE
  8
0
 10
16.9123
 20
69.8115
 11
17.1869
 21
69.5536
  0
LINE
  8
0
 10
17.1869
 20
69.5536
 11
17.427
 21
69.2634
  0
LINE
  8
0
 10
17.427
 20
69.2634
 11
17.6289
 21
68.9453
  0
LINE
  8
0
 10
17.6289
 20
68.9453
 11
17.7893
 21
68.6044
  0
LINE
  8
0
 10
17.7893
 20
68.6044
 11
17.9057
 21
68.2461
  0
LINE
  8
0
 10
17.9057
 20
68.2461
 11
17.9763
 21
67.876
  0
LINE
  8
0
 10
17.9763
 20
67.876
 11
18
 21
67.5
  0
LINE
  8
0
 10
18
 20
67.5
 11
17.9763
 21
67.124
  0
LINE
  8
0
 10
17.9763
 20
67.124
 11
17.9057
 21
66.7539
  0
LINE
  8
0
 10
17.9057
 20
66.7539
 11
17.7893
 21
66.3956
  0
LINE
  8
0
 10
17.7893
 20
66.3956
 11
17.6289
 21
66.0547
  0
LINE
  8
0
 10
17.6289
 20
66.0547
 11
17.427
 21
65.7366
  0
LINE
  8
0
 10
17.427
 20
65.7366
 11
17.1869
 21
65.4464
  0
LINE
  8
0
 10
17.1869
 20
65.4464
 11
16.9123
 21
65.1884
  0
LINE
  8
0
 10
16.9123
 20
65.1884
 11
16.6075
 21
64.967
  0
LINE
  8
0
 10
16.6075
 20
64.967
 11
16.2773
 21
64.7855
  0
LINE
  8
0
 10
16.2773
 20
64.7855
 11
15.927
 21
64.6468
  0
LINE
  8
0
 10
15.927
 20
64.6468
 11
15.5621
 21
64.5531
  0
LINE
  8
0
 10
15.5621
 20
64.5531
 11
15.1884
 21
64.5059
  0
LINE
  8
0
 10
15.1884
 20
64.5059
 11
14.8116
 21
64.5059
  0
LINE
  8
0
 10
-0.18837
 20
64.5059
 11
-0.562134
 21
64.5531
  0
LINE
  8
0
 10
-0.562134
 20
64.5531
 11
-0.927048
 21
64.6468
  0
LINE
  8
0
 10
-0.927048
 20
64.6468
 11
-1.27733
 21
64.7855
  0
LINE
  8
0
 10
-1.27733
 20
64.7855
 11
-1.60747
 21
64.967
  0
LINE
  8
0
 10
-1.60747
 20
64.967
 11
-1.91226
 21
65.1884
  0
LINE
  8
0
 10
-1.91226
 20
65.1884
 11
-2.1869
 21
65.4464
  0
LINE
  8
0
 10
-2.1869
 20
65.4464
 11
-2.42705
 21
65.7366
  0
LINE
  8
0
 10
-2.42705
 20
65.7366
 11
-2.62891
 21
66.0547
  0
LINE
  8
0
 10
-2.62891
 20
66.0547
 11
-2.78932
 21
66.3956
  0
LINE
  8
0
 10
-2.78932
 20
66.3956
 11
-2.90575
 21
66.7539
  0
LINE
  8
0
 10
-2.90575
 20
66.7539
 11
-2.97633
 21
67.124
  0
LINE
  8
0
 10
-2.97633
 20
67.124
 11
-3
 21
67.5
  0
LINE
  8
0
 10
-3
 20
67.5
 11
-2.97633
 21
67.876
  0
LINE
  8
0
 10
-2.97633
 20
67.876
 11
-2.90575
 21
68.2461
  0
LINE
  8
0
 10
-2.90575
 20
68.2461
 11
-2.78932
 21
68.6044
  0
LINE
  8
0
 10
-2.78932
 20
68.6044
 11
-2.62891
 21
68.9453
  0
LINE
  8
0
 10
-2.62891
 20
68.9453
 11
-2.42705
 21
69.2634
  0
LINE
  8
0
 10
-2.42705
 20
69.2634
 11
-2.1869
 21
69.5536
  0
LINE
  8
0
 10
-2.1869
 20
69.5536
 11
-1.91226
 21
69.8115
  0
LINE
  8
0
 10
-1.91226
 20
69.8115
 11
-1.60747
 21
70.033
  0
LINE
  8
0
 10
-1.60747
 20
70.033
 11
-1.27733
 21
70.2145
  0
LINE
  8
0
 10
-1.27733
 20
70.2145
 11
-0.927048
 21
70.3532
  0
LINE
  8
0
 10
-0.927048
 20
70.3532
 11
-0.562134
 21
70.4469
  0
LINE
  8
0
 10
-0.562134
 20
70.4469
 11
-0.18837
 21
70.4941
  0
LINE
  8
0
 10
-0.18837
 20
70.4941
 11
0.18837
 21
70.4941
  0
LINE
  8
0
 10
0.18837
 20
70.4941
 11
0.562134
 21
70.4469
  0
LINE
  8
0
 10
0.562134
 20
70.4469
 11
0.927048
 21
70.3532
  0
LINE
  8
0
 10
0.927048
 20
70.3532
 11
1.27733
 21
70.2145
  0
LINE
  8
0
 10
1.27733
 20
70.2145
 11
1.60747
 21
70.033
  0
LINE
  8
0
 10
1.60747
 20
70.033
 11
1.91226
 21
69.8115
  0
LINE
  8
0
 10
1.91226
 20
69.8115
 11
2.1869
 21
69.5536
  0
LINE
  8
0
 10
2.1869
 20
69.5536
 11
2.42705
 21
69.2634
  0
LINE
  8
0
 10
2.42705
 20
69.2634
 11
2.62891
 21
68.9453
  0
LINE
  8
0
 10
2.62891
 20
68.9453
 11
2.78932
 21
68.6044
  0
LINE
  8
0
 10
2.78932
 20
68.6044
 11
2.90575
 21
68.2461
  0
LINE
  8
0
 10
2.90575
 20
68.2461
 11
2.97633
 21
67.876
  0
LINE
  8
0
 10
2.97633
 20
67.876
 11
3
 21
67.5
  0
LINE
  8
0
 10
3
 20
67.5
 11
2.97633
 21
67.124
  0
LINE
  8
0
 10
2.97633
 20
67.124
 11
2.90575
 21
66.7539
  0
LINE
  8
0
 10
2.90575
 20
66.7539
 11
2.78932
 21
66.3956
  0
LINE
  8
0
 10
2.78932
 20
66.3956
 11
2.62891
 21
66.0547
  0
LINE
  8
0
 10
2.62891
 20
66.0547
 11
2.42705
 21
65.7366
  0
LINE
  8
0
 10
2.42705
 20
65.7366
 11
2.1869
 21
65.4464
  0
LINE
  8
0
 10
2.1869
 20
65.4464
 11
1.91226
 21
65.1884
  0
LINE
  8
0
 10
1.91226
 20
65.1884
 11
1.60747
 21
64.967
  0
LINE
  8
0
 10
1.60747
 20
64.967
 11
1.27733
 21
64.7855
  0
LINE
  8
0
 10
1.27733
 20
64.7855
 11
0.927048
 21
64.6468
  0
LINE
  8
0
 10
0.927048
 20
64.6468
 11
0.562134
 21
64.5531
  0
LINE
  8
0
 10
0.562134
 20
64.5531
 11
0.18837
 21
64.5059
  0
LINE
  8
0
 10
0.18837
 20
64.5059
 11
-0.18837
 21
64.5059
  0
LINE
  8
0
 10
5.91325
 20
49.7517
 11
4.32651
 21
52.5
  0
LINE
  8
0
 10
4.32651
 20
52.5
 11
5.91325
 21
55.2483
  0
LINE
  8
0
 10
5.91325
 20
55.2483
 11
9.08675
 21
55.2483
  0
LINE
  8
0
 10
9.08675
 20
55.2483
 11
10.6735
 21
52.5
  0
LINE
  8
0
 10
10.6735
 20
52.5
 11
9.08675
 21
49.7517
  0
LINE
  8
0
 10
9.08675
 20
49.7517
 11
5.91325
 21
49.7517
  0
LINE
  8
0
 10
-9.08675
 20
49.7517
 11
-10.6735
 21
52.5
  0
LINE
  8
0
 10
-10.6735
 20
52.5
 11
-9.08675
 21
55.2483
  0
LINE
  8
0
 10
-9.08675
 20
55.2483
 11
-5.91325
 21
55.2483
  0
LINE
  8
0
 10
-5.91325
 20
55.2483
 11
-4.32651
 21
52.5
  0
LINE
  8
0
 10
-4.32651
 20
52.5
 11
-5.91325
 21
49.7517
  0
LINE
  8
0
 10
-5.91325
 20
49.7517
 11
-9.08675
 21
49.7517
  0
LINE
  8
0
 10
22
 20
30.5
 11
21.9606
 21
31.1267
  0
LINE
  8
0
 10
21.9606
 20
31.1267
 11
21.8429
 21
31.7434
  0
LINE
  8
0
 10
21.8429
 20
31.7434
 11
21.6489
 21
32.3406
  0
LINE
  8
0
 10
21.6489
 20
32.3406
 11
21.3815
 21
32.9088
  0
LINE
  8
0
 10
21.3815
 20
32.9088
 11
21.0451
 21
33.4389
  0
LINE
  8
0
 10
21.0451
 20
33.4389
 11
20.6448
 21
33.9227
  0
LINE
  8
0
 10
20.6448
 20
33.9227
 11
20.1871
 21
34.3526
  0
LINE
  8
0
 10
20.1871
 20
34.3526
 11
19.6791
 21
34.7216
  0
LINE
  8
0
 10
19.6791
 20
34.7216
 11
19.1289
 21
35.0241
  0
LINE
  8
0
 10
19.1289
 20
35.0241
 11
18.5451
 21
35.2553
  0
LINE
  8
0
 10
18.5451
 20
35.2553
 11
17.9369
 21
35.4114
  0
LINE
  8
0
 10
17.9369
 20
35.4114
 11
17.3139
 21
35.4901
  0
LINE
  8
0
 10
17.3139
 20
35.4901
 11
-17.3139
 21
35.4901
  0
LINE
  8
0
 10
-17.3139
 20
35.4901
 11
-17.9369
 21
35.4114
  0
LINE
  8
0
 10
-17.9369
 20
35.4114
 11
-18.5451
 21
35.2553
  0
LINE
  8
0
 10
-18.5451
 20
35.2553
 11
-19.1289
 21
35.0241
  0
LINE
  8
0
 10
-19.1289
 20
35.0241
 11
-19.6791
 21
34.7216
  0
LINE
  8
0
 10
-19.6791
 20
34.7216
 11
-20.1871
 21
34.3526
  0
LINE
  8
0
 10
-20.1871
 20
34.3526
 11
-20.6448
 21
33.9227
  0
LINE
  8
0
 10
-20.6448
 20
33.9227
 11
-21.0451
 21
33.4389
  0
LINE
  8
0
 10
-21.0451
 20
33.4389
 11
-21.3815
 21
32.9088
  0
LINE
  8
0
 10
-21.3815
 20
32.9088
 11
-21.6489
 21
32.3406
  0
LINE
  8
0
 10
-21.6489
 20
32.3406
 11
-21.8429
 21
31.7434
  0
LINE
  8
0
 10
-21.8429
 20
31.7434
 11
-21.9606
 21
31.1267
  0
LINE
  8
0
 10
-21.9606
 20
31.1267
 11
-22
 21
30.5
  0
LINE
  8
0
 10
-22
 20
30.5
 11
-22
 21
0
  0
LINE
  8
0
 10
-22
 20
0
 11
22
 21
0
  0
LINE
  8
0
 10
22
 20
0
 11
22
 21
30.5
  0
LINE
  8
0
 10
14.8116
 20
25.5059
 11
14.4379
 21
25.5531
  0
LINE
  8
0
 10
14.4379
 20
25.5531
 11
14.0729
 21
25.6468
  0
LINE
  8
0
 10
14.0729
 20
25.6468
 11
13.7227
 21
25.7855
  0
LINE
  8
0
 10
13.7227
 20
25.7855
 11
13.3925
 21
25.967
  0
LINE
  8
0
 10
13.3925
 20
25.967
 11
13.0877
 21
26.1884
  0
LINE
  8
0
 10
13.0877
 20
26.1884
 11
12.8131
 21
26.4464
  0
LINE
  8
0
 10
12.8131
 20
26.4464
 11
12.5729
 21
26.7366
  0
LINE
  8
0
 10
12.5729
 20
26.7366
 11
12.3711
 21
27.0547
  0
LINE
  8
0
 10
12.3711
 20
27.0547
 11
12.2107
 21
27.3956
  0
LINE
  8
0
 10
12.2107
 20
27.3956
 11
12.0942
 21
27.7539
  0
LINE
  8
0
 10
12.0942
 20
27.7539
 11
12.0237
 21
28.124
  0
LINE
  8
0
 10
12.0237
 20
28.124
 11
12
 21
28.5
  0
LINE
  8
0
 10
12
 20
28.5
 11
12.0237
 21
28.876
  0
LINE
  8
0
 10
12.0237
 20
28.876
 11
12.0942
 21
29.2461
  0
LINE
  8
0
 10
12.0942
 20
29.2461
 11
12.2107
 21
29.6044
  0
LINE
  8
0
 10
12.2107
 20
29.6044
 11
12.3711
 21
29.9453
  0
LINE
  8
0
 10
12.3711
 20
29.9453
 11
12.5729
 21
30.2634
  0
LINE
  8
0
 10
12.5729
 20
30.2634
 11
12.8131
 21
30.5536
  0
LINE
  8
0
 10
12.8131
 20
30.5536
 11
13.0877
 21
30.8115
  0
LINE
  8
0
 10
13.0877
 20
30.8115
 11
13.3925
 21
31.033
  0
LINE
  8
0
 10
13.3925
 20
31.033
 11
13.7227
 21
31.2145
  0
LINE
  8
0
 10
13.7227
 20
31.2145
 11
14.0729
 21
31.3532
  0
LINE
  8
0
 10
14.0729
 20
31.3532
 11
14.4379
 21
31.4469
  0
LINE
  8
0
 10
14.4379
 20
31.4469
 11
14.8116
 21
31.4941
  0
LINE
  8
0
 10
14.8116
 20
31.4941
 11
15.1884
 21
31.4941
  0
LINE
  8
0
 10
15.1884
 20
31.4941
 11
15.5621
 21
31.4469
  0
LINE
  8
0
 10
15.5621
 20
31.4469
 11
15.927
 21
31.3532
  0
LINE
  8
0
 10
15.927
 20
31.3532
 11
16.2773
 21
31.2145
  0
LINE
  8
0
 10
16.2773
 20
31.2145
 11
16.6075
 21
31.033
  0
LINE
  8
0
 10
16.6075
 20
31.033
 11
16.9123
 21
30.8115
  0
LINE
  8
0
 10
16.9123
 20
30.8115
 11
17.1869
 21
30.5536
  0
LINE
  8
0
 10
17.1869
 20
30.5536
 11
17.427
 21
30.2634
  0
LINE
  8
0
 10
17.427
 20
30.2634
 11
17.6289
 21
29.9453
  0
LINE
  8
0
 10
17.6289
 20
29.9453
 11
17.7893
 21
29.6044
  0
LINE
  8
0
 10
17.7893
 20
29.6044
 11
17.9057
 21
29.2461
  0
LINE
  8
0
 10
17.9057
 20
29.2461
 11
17.9763
 21
28.876
  0
LINE
  8
0
 10
17.9763
 20
28.876
 11
18
 21
28.5
  0
LINE
  8
0
 10
18
 20
28.5
 11
17.9763
 21
28.124
  0
LINE
  8
0
 10
17.9763
 20
28.124
 11
17.9057
 21
27.7539
  0
LINE
  8
0
 10
17.9057
 20
27.7539
 11
17.7893
 21
27.3956
  0
LINE
  8
0
 10
17.7893
 20
27.3956
 11
17.6289
 21
27.0547
  0
LINE
  8
0
 10
17.6289
 20
27.0547
 11
17.427
 21
26.7366
  0
LINE
  8
0
 10
17.427
 20
26.7366
 11
17.1869
 21
26.4464
  0
LINE
  8
0
 10
17.1869
 20
26.4464
 11
16.9123
 21
26.1884
  0
LINE
  8
0
 10
16.9123
 20
26.1884
 11
16.6075
 21
25.967
  0
LINE
  8
0
 10
16.6075
 20
25.967
 11
16.2773
 21
25.7855
  0
LINE
  8
0
 10
16.2773
 20
25.7855
 11
15.927
 21
25.6468
  0
LINE
  8
0
 10
15.927
 20
25.6468
 11
15.5621
 21
25.5531
  0
LINE
  8
0
 10
15.5621
 20
25.5531
 11
15.1884
 21
25.5059
  0
LINE
  8
0
 10
15.1884
 20
25.5059
 11
14.8116
 21
25.5059
  0
LINE
  8
0
 10
-0.18837
 20
25.5059
 11
-0.562134
 21
25.5531
  0
LINE
  8
0
 10
-0.562134
 20
25.5531
 11
-0.927048
 21
25.6468
  0
LINE
  8
0
 10
-0.927048
 20
25.6468
 11
-1.27733
 21
25.7855
  0
LINE
  8
0
 10
-1.27733
 20
25.7855
 11
-1.60747
 21
25.967
  0
LINE
  8
0
 10
-1.60747
 20
25.967
 11
-1.91226
 21
26.1884
  0
LINE
  8
0
 10
-1.91226
 20
26.1884
 11
-2.1869
 21
26.4464
  0
LINE
  8
0
 10
-2.1869
 20
26.4464
 11
-2.42705
 21
26.7366
  0
LINE
  8
0
 10
-2.42705
 20
26.7366
 11
-2.62891
 21
27.0547
  0
LINE
  8
0
 10
-2.62891
 20
27.0547
 11
-2.78932
 21
27.3956
  0
LINE
  8
0
 10
-2.78932
 20
27.3956
 11
-2.90575
 21
27.7539
  0
LINE
  8
0
 10
-2.90575
 20
27.7539
 11
-2.97633
 21
28.124
  0
LINE
  8
0
 10
-2.97633
 20
28.124
 11
-3
 21
28.5
  0
LINE
  8
0
 10
-3
 20
28.5
 11
-2.97633
 21
28.876
  0
LINE
  8
0
 10
-2.97633
 20
28.876
 11
-2.90575
 21
29.2461
  0
LINE
  8
0
 10
-2.90575
 20
29.2461
 11
-2.78932
 21
29.6044
  0
LINE
  8
0
 10
-2.78932
 20
29.6044
 11
-2.62891
 21
29.9453
  0
LINE
  8
0
 10
-2.62891
 20
29.9453
 11
-2.42705
 21
30.2634
  0
LINE
  8
0
 10
-2.42705
 20
30.2634
 11
-2.1869
 21
30.5536
  0
LINE
  8
0
 10
-2.1869
 20
30.5536
 11
-1.91226
 21
30.8115
  0
LINE
  8
0
 10
-1.91226
 20
30.8115
 11
-1.60747
 21
31.033
  0
LINE
  8
0
 10
-1.60747
 20
31.033
 11
-1.27733
 21
31.2145
  0
LINE
  8
0
 10
-1.27733
 20
31.2145
 11
-0.927048
 21
31.3532
  0
LINE
  8
0
 10
-0.927048
 20
31.3532
 11
-0.562134
 21
31.4469
  0
LINE
  8
0
 10
-0.562134
 20
31.4469
 11
-0.18837
 21
31.4941
  0
LINE
  8
0
 10
-0.18837
 20
31.4941
 11
0.18837
 21
31.4941
  0
LINE
  8
0
 10
0.18837
 20
31.4941
 11
0.562134
 21
31.4469
  0
LINE
  8
0
 10
0.562134
 20
31.4469
 11
0.927048
 21
31.3532
  0
LINE
  8
0
 10
0.927048
 20
31.3532
 11
1.27733
 21
31.2145
  0
LINE
  8
0
 10
1.27733
 20
31.2145
 11
1.60747
 21
31.033
  0
LINE
  8
0
 10
1.60747
 20
31.033
 11
1.91226
 21
30.8115
  0
LINE
  8
0
 10
1.91226
 20
30.8115
 11
2.1869
 21
30.5536
  0
LINE
  8
0
 10
2.1869
 20
30.5536
 11
2.42705
 21
30.2634
  0
LINE
  8
0
 10
2.42705
 20
30.2634
 11
2.62891
 21
29.9453
  0
LINE
  8
0
 10
2.62891
 20
29.9453
 11
2.78932
 21
29.6044
  0
LINE
  8
0
 10
2.78932
 20
29.6044
 11
2.90575
 21
29.2461
  0
LINE
  8
0
 10
2.90575
 20
29.2461
 11
2.97633
 21
28.876
  0
LINE
  8
0
 10
2.97633
 20
28.876
 11
3
 21
28.5
  0
LINE
  8
0
 10
3
 20
28.5
 11
2.97633
 21
28.124
  0
LINE
  8
0
 10
2.97633
 20
28.124
 11
2.90575
 21
27.7539
  0
LINE
  8
0
 10
2.90575
 20
27.7539
 11
2.78932
 21
27.3956
  0
LINE
  8
0
 10
2.78932
 20
27.3956
 11
2.62891
 21
27.0547
  0
LINE
  8
0
 10
2.62891
 20
27.0547
 11
2.42705
 21
26.7366
  0
LINE
  8
0
 10
2.42705
 20
26.7366
 11
2.1869
 21
26.4464
  0
LINE
  8
0
 10
2.1869
 20
26.4464
 11
1.91226
 21
26.1884
  0
LINE
  8
0
 10
1.91226
 20
26.1884
 11
1.60747
 21
25.967
  0
LINE
  8
0
 10
1.60747
 20
25.967
 11
1.27733
 21
25.7855
  0
LINE
  8
0
 10
1.27733
 20
25.7855
 11
0.927048
 21
25.6468
  0
LINE
  8
0
 10
0.927048
 20
25.6468
 11
0.562134
 21
25.5531
  0
LINE
  8
0
 10
0.562134
 20
25.5531
 11
0.18837
 21
25.5059
  0
LINE
  8
0
 10
0.18837
 20
25.5059
 11
-0.18837
 21
25.5059
  0
LINE
  8
0
 10
-15.1884
 20
25.5059
 11
-15.5621
 21
25.5531
  0
LINE
  8
0
 10
-15.5621
 20
25.5531
 11
-15.927
 21
25.6468
  0
LINE
  8
0
 10
-15.927
 20
25.6468
 11
-16.2773
 21
25.7855
  0
LINE
  8
0
 10
-16.2773
 20
25.7855
 11
-16.6075
 21
25.967
  0
LINE
  8
0
 10
-16.6075
 20
25.967
 11
-16.9123
 21
26.1884
  0
LINE
  8
0
 10
-16.9123
 20
26.1884
 11
-17.1869
 21
26.4464
  0
LINE
  8
0
 10
-17.1869
 20
26.4464
 11
-17.427
 21
26.7366
  0
LINE
  8
0
 10
-17.427
 20
26.7366
 11
-17.6289
 21
27.0547
  0
LINE
  8
0
 10
-17.6289
 20
27.0547
 11
-17.7893
 21
27.3956
  0
LINE
  8
0
 10
-17.7893
 20
27.3956
 11
-17.9057
 21
27.7539
  0
LINE
  8
0
 10
-17.9057
 20
27.7539
 11
-17.9763
 21
28.124
  0
LINE
  8
0
 10
-17.9763
 20
28.124
 11
-18
 21
28.5
  0
LINE
  8
0
 10
-18
 20
28.5
 11
-17.9763
 21
28.876
  0
LINE
  8
0
 10
-17.9763
 20
28.876
 11
-17.9057
 21
29.2461
  0
LINE
  8
0
 10
-17.9057
 20
29.2461
 11
-17.7893
 21
29.6044
  0
LINE
  8
0
 10
-17.7893
 20
29.6044
 11
-17.6289
 21
29.9453
  0
LINE
  8
0
 10
-17.6289
 20
29.9453
 11
-17.427
 21
30.2634
  0
LINE
  8
0
 10
-17.427
 20
30.2634
 11
-17.1869
 21
30.5536
  0
LINE
  8
0
 10
-17.1869
 20
30.5536
 11
-16.9123
 21
30.8115
  0
LINE
  8
0
 10
-16.9123
 20
30.8115
 11
-16.6075
 21
31.033
  0
LINE
  8
0
 10
-16.6075
 20
31.033
 11
-16.2773
 21
31.2145
  0
LINE
  8
0
 10
-16.2773
 20
31.2145
 11
-15.927
 21
31.3532
  0
LINE
  8
0
 10
-15.927
 20
31.3532
 11
-15.5621
 21
31.4469
  0
LINE
  8
0
 10
-15.5621
 20
31.4469
 11
-15.1884
 21
31.4941
  0
LINE
  8
0
 10
-15.1884
 20
31.4941
 11
-14.8116
 21
31.4941
  0
LINE
  8
0
 10
-14.8116
 20
31.4941
 11
-14.4379
 21
31.4469
  0
LINE
  8
0
 10
-14.4379
 20
31.4469
 11
-14.0729
 21
31.3532
  0
LINE
  8
0
 10
-14.0729
 20
31.3532
 11
-13.7227
 21
31.2145
  0
LINE
  8
0
 10
-13.7227
 20
31.2145
 11
-13.3925
 21
31.033
  0
LINE
  8
0
 10
-13.3925
 20
31.033
 11
-13.0877
 21
30.8115
  0
LINE
  8
0
 10
-13.0877
 20
30.8115
 11
-12.8131
 21
30.5536
  0
LINE
  8
0
 10
-12.8131
 20
30.5536
 11
-12.5729
 21
30.2634
  0
LINE
  8
0
 10
-12.5729
 20
30.2634
 11
-12.3711
 21
29.9453
  0
LINE
  8
0
 10
-12.3711
 20
29.9453
 11
-12.2107
 21
29.6044
  0
LINE
  8
0
 10
-12.2107
 20
29.6044
 11
-12.0942
 21
29.2461
  0
LINE
  8
0
 10
-12.0942
 20
29.2461
 11
-12.0237
 21
28.876
  0
LINE
  8
0
 10
-12.0237
 20
28.876
 11
-12
 21
28.5
  0
LINE
  8
0
 10
-12
 20
28.5
 11
-12.0237
 21
28.124
  0
LINE
  8
0
 10
-12.0237
 20
28.124
 11
-12.0942
 21
27.7539
  0
LINE
  8
0
 10
-12.0942
 20
27.7539
 11
-12.2107
 21
27.3956
  0
LINE
  8
0
 10
-12.2107
 20
27.3956
 11
-12.3711
 21
27.0547
  0
LINE
  8
0
 10
-12.3711
 20
27.0547
 11
-12.5729
 21
26.7366
  0
LINE
  8
0
 10
-12.5729
 20
26.7366
 11
-12.8131
 21
26.4464
  0
LINE
  8
0
 10
-12.8131
 20
26.4464
 11
-13.0877
 21
26.1884
  0
LINE
  8
0
 10
-13.0877
 20
26.1884
 11
-13.3925
 21
25.967
  0
LINE
  8
0
 10
-13.3925
 20
25.967
 11
-13.7227
 21
25.7855
  0
LINE
  8
0
 10
-13.7227
 20
25.7855
 11
-14.0729
 21
25.6468
  0
LINE
  8
0
 10
-14.0729
 20
25.6468
 11
-14.4379
 21
25.5531
  0
LINE
  8
0
 10
-14.4379
 20
25.5531
 11
-14.8116
 21
25.5059
  0
LINE
  8
0
 10
-14.8116
 20
25.5059
 11
-15.1884
 21
25.5059
  0
LINE
  8
0
 10
-15.1884
 20
10.5059
 11
-15.5621
 21
10.5531
  0
LINE
  8
0
 10
-15.5621
 20
10.5531
 11
-15.927
 21
10.6468
  0
LINE
  8
0
 10
-15.927
 20
10.6468
 11
-16.2773
 21
10.7855
  0
LINE
  8
0
 10
-16.2773
 20
10.7855
 11
-16.6075
 21
10.967
  0
LINE
  8
0
 10
-16.6075
 20
10.967
 11
-16.9123
 21
11.1884
  0
LINE
  8
0
 10
-16.9123
 20
11.1884
 11
-17.1869
 21
11.4464
  0
LINE
  8
0
 10
-17.1869
 20
11.4464
 11
-17.427
 21
11.7366
  0
LINE
  8
0
 10
-17.427
 20
11.7366
 11
-17.6289
 21
12.0547
  0
LINE
  8
0
 10
-17.6289
 20
12.0547
 11
-17.7893
 21
12.3956
  0
LINE
  8
0
 10
-17.7893
 20
12.3956
 11
-17.9057
 21
12.7539
  0
LINE
  8
0
 10
-17.9057
 20
12.7539
 11
-17.9763
 21
13.124
  0
LINE
  8
0
 10
-17.9763
 20
13.124
 11
-18
 21
13.5
  0
LINE
  8
0
 10
-18
 20
13.5
 11
-17.9763
 21
13.876
  0
LINE
  8
0
 10
-17.9763
 20
13.876
 11
-17.9057
 21
14.2461
  0
LINE
  8
0
 10
-17.9057
 20
14.2461
 11
-17.7893
 21
14.6044
  0
LINE
  8
0
 10
-17.7893
 20
14.6044
 11
-17.6289
 21
14.9453
  0
LINE
  8
0
 10
-17.6289
 20
14.9453
 11
-17.427
 21
15.2634
  0
LINE
  8
0
 10
-17.427
 20
15.2634
 11
-17.1869
 21
15.5536
  0
LINE
  8
0
 10
-17.1869
 20
15.5536
 11
-16.9123
 21
15.8115
  0
LINE
  8
0
 10
-16.9123
 20
15.8115
 11
-16.6075
 21
16.033
  0
LINE
  8
0
 10
-16.6075
 20
16.033
 11
-16.2773
 21
16.2145
  0
LINE
  8
0
 10
-16.2773
 20
16.2145
 11
-15.927
 21
16.3532
  0
LINE
  8
0
 10
-15.927
 20
16.3532
 11
-15.5621
 21
16.4469
  0
LINE
  8
0
 10
-15.5621
 20
16.4469
 11
-15.1884
 21
16.4941
  0
LINE
  8
0
 10
-15.1884
 20
16.4941
 11
-14.8116
 21
16.4941
  0
LINE
  8
0
 10
-14.8116
 20
16.4941
 11
-14.4379
 21
16.4469
  0
LINE
  8
0
 10
-14.4379
 20
16.4469
 11
-14.0729
 21
16.3532
  0
LINE
  8
0
 10
-14.0729
 20
16.3532
 11
-13.7227
 21
16.2145
  0
LINE
  8
0
 10
-13.7227
 20
16.2145
 11
-13.3925
 21
16.033
  0
LINE
  8
0
 10
-13.3925
 20
16.033
 11
-13.0877
 21
15.8115
  0
LINE
  8
0
 10
-13.0877
 20
15.8115
 11
-12.8131
 21
15.5536
  0
LINE
  8
0
 10
-12.8131
 20
15.5536
 11
-12.5729
 21
15.2634
  0
LINE
  8
0
 10
-12.5729
 20
15.2634
 11
-12.3711
 21
14.9453
  0
LINE
  8
0
 10
-12.3711
 20
14.9453
 11
-12.2107
 21
14.6044
  0
LINE
  8
0
 10
-12.2107
 20
14.6044
 11
-12.0942
 21
14.2461
  0
LINE
  8
0
 10
-12.0942
 20
14.2461
 11
-12.0237
 21
13.876
  0
LINE
  8
0
 10
-12.0237
 20
13.876
 11
-12
 21
13.5
  0
LINE
  8
0
 10
-12
 20
13.5
 11
-12.0237
 21
13.124
  0
LINE
  8
0
 10
-12.0237
 20
13.124
 11
-12.0942
 21
12.7539
  0
LINE
  8
0
 10
-12.0942
 20
12.7539
 11
-12.2107
 21
12.3956
  0
LINE
  8
0
 10
-12.2107
 20
12.3956
 11
-12.3711
 21
12.0547
  0
LINE
  8
0
 10
-12.3711
 20
12.0547
 11
-12.5729
 21
11.7366
  0
LINE
  8
0
 10
-12.5729
 20
11.7366
 11
-12.8131
 21
11.4464
  0
LINE
  8
0
 10
-12.8131
 20
11.4464
 11
-13.0877
 21
11.1884
  0
LINE
  8
0
 10
-13.0877
 20
11.1884
 11
-13.3925
 21
10.967
  0
LINE
  8
0
 10
-13.3925
 20
10.967
 11
-13.7227
 21
10.7855
  0
LINE
  8
0
 10
-13.7227
 20
10.7855
 11
-14.0729
 21
10.6468
  0
LINE
  8
0
 10
-14.0729
 20
10.6468
 11
-14.4379
 21
10.5531
  0
LINE
  8
0
 10
-14.4379
 20
10.5531
 11
-14.8116
 21
10.5059
  0
LINE
  8
0
 10
-14.8116
 20
10.5059
 11
-15.1884
 21
10.5059
  0
LINE
  8
0
 10
-0.18837
 20
10.5059
 11
-0.562134
 21
10.5531
  0
LINE
  8
0
 10
-0.562134
 20
10.5531
 11
-0.927048
 21
10.6468
  0
LINE
  8
0
 10
-0.927048
 20
10.6468
 11
-1.27733
 21
10.7855
  0
LINE
  8
0
 10
-1.27733
 20
10.7855
 11
-1.60747
 21
10.967
  0
LINE
  8
0
 10
-1.60747
 20
10.967
 11
-1.91226
 21
11.1884
  0
LINE
  8
0
 10
-1.91226
 20
11.1884
 11
-2.1869
 21
11.4464
  0
LINE
  8
0
 10
-2.1869
 20
11.4464
 11
-2.42705
 21
11.7366
  0
LINE
  8
0
 10
-2.42705
 20
11.7366
 11
-2.62891
 21
12.0547
  0
LINE
  8
0
 10
-2.62891
 20
12.0547
 11
-2.78932
 21
12.3956
  0
LINE
  8
0
 10
-2.78932
 20
12.3956
 11
-2.90575
 21
12.7539
  0
LINE
  8
0
 10
-2.90575
 20
12.7539
 11
-2.97633
 21
13.124
  0
LINE
  8
0
 10
-2.97633
 20
13.124
 11
-3
 21
13.5
  0
LINE
  8
0
 10
-3
 20
13.5
 11
-2.97633
 21
13.876
  0
LINE
  8
0
 10
-2.97633
 20
13.876
 11
-2.90575
 21
14.2461
  0
LINE
  8
0
 10
-2.90575
 20
14.2461
 11
-2.78932
 21
14.6044
  0
LINE
  8
0
 10
-2.78932
 20
14.6044
 11
-2.62891
 21
14.9453
  0
LINE
  8
0
 10
-2.62891
 20
14.9453
 11
-2.42705
 21
15.2634
  0
LINE
  8
0
 10
-2.42705
 20
15.2634
 11
-2.1869
 21
15.5536
  0
LINE
  8
0
 10
-2.1869
 20
15.5536
 11
-1.91226
 21
15.8115
  0
LINE
  8
0
 10
-1.91226
 20
15.8115
 11
-1.60747
 21
16.033
  0
LINE
  8
0
 10
-1.60747
 20
16.033
 11
-1.27733
 21
16.2145
  0
LINE
  8
0
 10
-1.27733
 20
16.2145
 11
-0.927048
 21
16.3532
  0
LINE
  8
0
 10
-0.927048
 20
16.3532
 11
-0.562134
 21
16.4469
  0
LINE
  8
0
 10
-0.562134
 20
16.4469
 11
-0.18837
 21
16.4941
  0
LINE
  8
0
 10
-0.18837
 20
16.4941
 11
0.18837
 21
16.4941
  0
LINE
  8
0
 10
0.18837
 20
16.4941
 11
0.562134
 21
16.4469
  0
LINE
  8
0
 10
0.562134
 20
16.4469
 11
0.927048
 21
16.3532
  0
LINE
  8
0
 10
0.927048
 20
16.3532
 11
1.27733
 21
16.2145
  0
LINE
  8
0
 10
1.27733
 20
16.2145
 11
1.60747
 21
16.033
  0
LINE
  8
0
 10
1.60747
 20
16.033
 11
1.91226
 21
15.8115
  0
LINE
  8
0
 10
1.91226
 20
15.8115
 11
2.1869
 21
15.5536
  0
LINE
  8
0
 10
2.1869
 20
15.5536
 11
2.42705
 21
15.2634
  0
LINE
  8
0
 10
2.42705
 20
15.2634
 11
2.62891
 21
14.9453
  0
LINE
  8
0
 10
2.62891
 20
14.9453
 11
2.78932
 21
14.6044
  0
LINE
  8
0
 10
2.78932
 20
14.6044
 11
2.90575
 21
14.2461
  0
LINE
  8
0
 10
2.90575
 20
14.2461
 11
2.97633
 21
13.876
  0
LINE
  8
0
 10
2.97633
 20
13.876
 11
3
 21
13.5
  0
LINE
  8
0
 10
3
 20
13.5
 11
2.97633
 21
13.124
  0
LINE
  8
0
 10
2.97633
 20
13.124
 11
2.90575
 21
12.7539
  0
LINE
  8
0
 10
2.90575
 20
12.7539
 11
2.78932
 21
12.3956
  0
LINE
  8
0
 10
2.78932
 20
12.3956
 11
2.62891
 21
12.0547
  0
LINE
  8
0
 10
2.62891
 20
12.0547
 11
2.42705
 21
11.7366
  0
LINE
  8
0
 10
2.42705
 20
11.7366
 11
2.1869
 21
11.4464
  0
LINE
  8
0
 10
2.1869
 20
11.4464
 11
1.91226
 21
11.1884
  0
LINE
  8
0
 10
1.91226
 20
11.1884
 11
1.60747
 21
10.967
  0
LINE
  8
0
 10
1.60747
 20
10.967
 11
1.27733
 21
10.7855
  0
LINE
  8
0
 10
1.27733
 20
10.7855
 11
0.927048
 21
10.6468
  0
LINE
  8
0
 10
0.927048
 20
10.6468
 11
0.562134
 21
10.5531
  0
LINE
  8
0
 10
0.562134
 20
10.5531
 11
0.18837
 21
10.5059
  0
LINE
  8
0
 10
0.18837
 20
10.5059
 11
-0.18837
 21
10.5059
  0
LINE
  8
0
 10
14.8116
 20
10.5059
 11
14.4379
 21
10.5531
  0
LINE
  8
0
 10
14.4379
 20
10.5531
 11
14.0729
 21
10.6468
  0
LINE
  8
0
 10
14.0729
 20
10.6468
 11
13.7227
 21
10.7855
  0
LINE
  8
0
 10
13.7227
 20
10.7855
 11
13.3925
 21
10.967
  0
LINE
  8
0
 10
13.3925
 20
10.967
 11
13.0877
 21
11.1884
  0
LINE
  8
0
 10
13.0877
 20
11.1884
 11
12.8131
 21
11.4464
  0
LINE
  8
0
 10
12.8131
 20
11.4464
 11
12.5729
 21
11.7366
  0
LINE
  8
0
 10
12.5729
 20
11.7366
 11
12.3711
 21
12.0547
  0
LINE
  8
0
 10
12.3711
 20
12.0547
 11
12.2107
 21
12.3956
  0
LINE
  8
0
 10
12.2107
 20
12.3956
 11
12.0942
 21
12.7539
  0
LINE
  8
0
 10
12.0942
 20
12.7539
 11
12.0237
 21
13.124
  0
LINE
  8
0
 10
12.0237
 20
13.124
 11
12
 21
13.5
  0
LINE
  8
0
 10
12
 20
13.5
 11
12.0237
 21
13.876
  0
LINE
  8
0
 10
12.0237
 20
13.876
 11
12.0942
 21
14.2461
  0
LINE
  8
0
 10
12.0942
 20
14.2461
 11
12.2107
 21
14.6044
  0
LINE
  8
0
 10
12.2107
 20
14.6044
 11
12.3711
 21
14.9453
  0
LINE
  8
0
 10
12.3711
 20
14.9453
 11
12.5729
 21
15.2634
  0
LINE
  8
0
 10
12.5729
 20
15.2634
 11
12.8131
 21
15.5536
  0
LINE
  8
0
 10
12.8131
 20
15.5536
 11
13.0877
 21
15.8115
  0
LINE
  8
0
 10
13.0877
 20
15.8115
 11
13.3925
 21
16.033
  0
LINE
  8
0
 10
13.3925
 20
16.033
 11
13.7227
 21
16.2145
  0
LINE
  8
0
 10
13.7227
 20
16.2145
 11
14.0729
 21
16.3532
  0
LINE
  8
0
 10
14.0729
 20
16.3532
 11
14.4379
 21
16.4469
  0
LINE
  8
0
 10
14.4379
 20
16.4469
 11
14.8116
 21
16.4941
  0
LINE
  8
0
 10
14.8116
 20
16.4941
 11
15.1884
 21
16.4941
  0
LINE
  8
0
 10
15.1884
 20
16.4941
 11
15.5621
 21
16.4469
  0
LINE
  8
0
 10
15.5621
 20
16.4469
 11
15.927
 21
16.3532
  0
LINE
  8
0
 10
15.927
 20
16.3532
 11
16.2773
 21
16.2145
  0
LINE
  8
0
 10
16.2773
 20
16.2145
 11
16.6075
 21
16.033
  0
LINE
  8
0
 10
16.6075
 20
16.033
 11
16.9123
 21
15.8115
  0
LINE
  8
0
 10
16.9123
 20
15.8115
 11
17.1869
 21
15.5536
  0
LINE
  8
0
 10
17.1869
 20
15.5536
 11
17.427
 21
15.2634
  0
LINE
  8
0
 10
17.427
 20
15.2634
 11
17.6289
 21
14.9453
  0
LINE
  8
0
 10
17.6289
 20
14.9453
 11
17.7893
 21
14.6044
  0
LINE
  8
0
 10
17.7893
 20
14.6044
 11
17.9057
 21
14.2461
  0
LINE
  8
0
 10
17.9057
 20
14.2461
 11
17.9763
 21
13.876
  0
LINE
  8
0
 10
17.9763
 20
13.876
 11
18
 21
13.5
  0
LINE
  8
0
 10
18
 20
13.5
 11
17.9763
 21
13.124
  0
LINE
  8
0
 10
17.9763
 20
13.124
 11
17.9057
 21
12.7539
  0
LINE
  8
0
 10
17.9057
 20
12.7539
 11
17.7893
 21
12.3956
  0
LINE
  8
0
 10
17.7893
 20
12.3956
 11
17.6289
 21
12.0547
  0
LINE
  8
0
 10
17.6289
 20
12.0547
 11
17.427
 21
11.7366
  0
LINE
  8
0
 10
17.427
 20
11.7366
 11
17.1869
 21
11.4464
  0
LINE
  8
0
 10
17.1869
 20
11.4464
 11
16.9123
 21
11.1884
  0
LINE
  8
0
 10
16.9123
 20
11.1884
 11
16.6075
 21
10.967
  0
LINE
  8
0
 10
16.6075
 20
10.967
 11
16.2773
 21
10.7855
  0
LINE
  8
0
 10
16.2773
 20
10.7855
 11
15.927
 21
10.6468
  0
LINE
  8
0
 10
15.927
 20
10.6468
 11
15.5621
 21
10.5531
  0
LINE
  8
0
 10
15.5621
 20
10.5531
 11
15.1884
 21
10.5059
  0
LINE
  8
0
 10
15.1884
 20
10.5059
 11
14.8116
 21
10.5059
  0
LINE
  8
0
 10
7.35558
 20
11.2045
 11
7.06902
 21
11.2407
  0
LINE
  8
0
 10
7.06902
 20
11.2407
 11
6.78926
 21
11.3126
  0
LINE
  8
0
 10
6.78926
 20
11.3126
 11
6.52071
 21
11.4189
  0
LINE
  8
0
 10
6.52071
 20
11.4189
 11
6.26759
 21
11.558
  0
LINE
  8
0
 10
6.26759
 20
11.558
 11
6.03392
 21
11.7278
  0
LINE
  8
0
 10
6.03392
 20
11.7278
 11
5.82336
 21
11.9255
  0
LINE
  8
0
 10
5.82336
 20
11.9255
 11
5.63925
 21
12.1481
  0
LINE
  8
0
 10
5.63925
 20
12.1481
 11
5.48448
 21
12.392
  0
LINE
  8
0
 10
5.48448
 20
12.392
 11
5.36151
 21
12.6533
  0
LINE
  8
0
 10
5.36151
 20
12.6533
 11
5.27225
 21
12.928
  0
LINE
  8
0
 10
5.27225
 20
12.928
 11
5.21812
 21
13.2117
  0
LINE
  8
0
 10
5.21812
 20
13.2117
 11
5.2
 21
13.5
  0
LINE
  8
0
 10
5.2
 20
13.5
 11
5.21812
 21
13.7883
  0
LINE
  8
0
 10
5.21812
 20
13.7883
 11
5.27225
 21
14.072
  0
LINE
  8
0
 10
5.27225
 20
14.072
 11
5.36151
 21
14.3467
  0
LINE
  8
0
 10
5.36151
 20
14.3467
 11
5.48448
 21
14.608
  0
LINE
  8
0
 10
5.48448
 20
14.608
 11
5.63925
 21
14.8519
  0
LINE
  8
0
 10
5.63925
 20
14.8519
 11
5.82336
 21
15.0744
  0
LINE
  8
0
 10
5.82336
 20
15.0744
 11
6.03392
 21
15.2722
  0
LINE
  8
0
 10
6.03392
 20
15.2722
 11
6.26759
 21
15.4419
  0
LINE
  8
0
 10
6.26759
 20
15.4419
 11
6.52071
 21
15.5811
  0
LINE
  8
0
 10
6.52071
 20
15.5811
 11
6.78926
 21
15.6874
  0
LINE
  8
0
 10
6.78926
 20
15.6874
 11
7.06902
 21
15.7592
  0
LINE
  8
0
 10
7.06902
 20
15.7592
 11
7.35558
 21
15.7955
  0
LINE
  8
0
 10
7.35558
 20
15.7955
 11
7.64441
 21
15.7955
  0
LINE
  8
0
 10
7.64441
 20
15.7955
 11
7.93097
 21
15.7592
  0
LINE
  8
0
 10
7.93097
 20
15.7592
 11
8.21072
 21
15.6874
  0
LINE
  8
0
 10
8.21072
 20
15.6874
 11
8.47928
 21
15.5811
  0
LINE
  8
0
 10
8.47928
 20
15.5811
 11
8.73239
 21
15.4419
  0
LINE
  8
0
 10
8.73239
 20
15.4419
 11
8.96606
 21
15.2722
  0
LINE
  8
0
 10
8.96606
 20
15.2722
 11
9.17662
 21
15.0744
  0
LINE
  8
0
 10
9.17662
 20
15.0744
 11
9.36073
 21
14.8519
  0
LINE
  8
0
 10
9.36073
 20
14.8519
 11
9.5155
 21
14.608
  0
LINE
  8
0
 10
9.5155
 20
14.608
 11
9.63847
 21
14.3467
  0
LINE
  8
0
 10
9.63847
 20
14.3467
 11
9.72774
 21
14.072
  0
LINE
  8
0
 10
9.72774
 20
14.072
 11
9.78186
 21
13.7883
  0
LINE
  8
0
 10
9.78186
 20
13.7883
 11
9.79999
 21
13.5
  0
LINE
  8
0
 10
9.79999
 20
13.5
 11
9.78186
 21
13.2117
  0
LINE
  8
0
 10
9.78186
 20
13.2117
 11
9.72774
 21
12.928
  0
LINE
  8
0
 10
9.72774
 20
12.928
 11
9.63847
 21
12.6533
  0
LINE
  8
0
 10
9.63847
 20
12.6533
 11
9.5155
 21
12.392
  0
LINE
  8
0
 10
9.5155
 20
12.392
 11
9.36073
 21
12.1481
  0
LINE
  8
0
 10
9.36073
 20
12.1481
 11
9.17662
 21
11.9255
  0
LINE
  8
0
 10
9.17662
 20
11.9255
 11
8.96606
 21
11.7278
  0
LINE
  8
0
 10
8.96606
 20
11.7278
 11
8.73239
 21
11.558
  0
LINE
  8
0
 10
8.73239
 20
11.558
 11
8.47928
 21
11.4189
  0
LINE
  8
0
 10
8.47928
 20
11.4189
 11
8.21072
 21
11.3126
  0
LINE
  8
0
 10
8.21072
 20
11.3126
 11
7.93097
 21
11.2407
  0
LINE
  8
0
 10
7.93097
 20
11.2407
 11
7.64441
 21
11.2045
  0
LINE
  8
0
 10
7.64441
 20
11.2045
 11
7.35558
 21
11.2045
  0
LINE
  8
0
 10
-7.64441
 20
11.2045
 11
-7.93097
 21
11.2407
  0
LINE
  8
0
 10
-7.93097
 20
11.2407
 11
-8.21072
 21
11.3126
  0
LINE
  8
0
 10
-8.21072
 20
11.3126
 11
-8.47928
 21
11.4189
  0
LINE
  8
0
 10
-8.47928
 20
11.4189
 11
-8.73239
 21
11.558
  0
LINE
  8
0
 10
-8.73239
 20
11.558
 11
-8.96606
 21
11.7278
  0
LINE
  8
0
 10
-8.96606
 20
11.7278
 11
-9.17662
 21
11.9255
  0
LINE
  8
0
 10
-9.17662
 20
11.9255
 11
-9.36073
 21
12.1481
  0
LINE
  8
0
 10
-9.36073
 20
12.1481
 11
-9.5155
 21
12.392
  0
LINE
  8
0
 10
-9.5155
 20
12.392
 11
-9.63847
 21
12.6533
  0
LINE
  8
0
 10
-9.63847
 20
12.6533
 11
-9.72774
 21
12.928
  0
LINE
  8
0
 10
-9.72774
 20
12.928
 11
-9.78186
 21
13.2117
  0
LINE
  8
0
 10
-9.78186
 20
13.2117
 11
-9.79999
 21
13.5
  0
LINE
  8
0
 10
-9.79999
 20
13.5
 11
-9.78186
 21
13.7883
  0
LINE
  8
0
 10
-9.78186
 20
13.7883
 11
-9.72774
 21
14.072
  0
LINE
  8
0
 10
-9.72774
 20
14.072
 11
-9.63847
 21
14.3467
  0
LINE
  8
0
 10
-9.63847
 20
14.3467
 11
-9.5155
 21
14.608
  0
LINE
  8
0
 10
-9.5155
 20
14.608
 11
-9.36073
 21
14.8519
  0
LINE
  8
0
 10
-9.36073
 20
14.8519
 11
-9.17662
 21
15.0744
  0
LINE
  8
0
 10
-9.17662
 20
15.0744
 11
-8.96606
 21
15.2722
  0
LINE
  8
0
 10
-8.96606
 20
15.2722
 11
-8.73239
 21
15.4419
  0
LINE
  8
0
 10
-8.73239
 20
15.4419
 11
-8.47928
 21
15.5811
  0
LINE
  8
0
 10
-8.47928
 20
15.5811
 11
-8.21072
 21
15.6874
  0
LINE
  8
0
 10
-8.21072
 20
15.6874
 11
-7.93097
 21
15.7592
  0
LINE
  8
0
 10
-7.93097
 20
15.7592
 11
-7.64441
 21
15.7955
  0
LINE
  8
0
 10
-7.64441
 20
15.7955
 11
-7.35558
 21
15.7955
  0
LINE
  8
0
 10
-7.35558
 20
15.7955
 11
-7.06902
 21
15.7592
  0
LINE
  8
0
 10
-7.06902
 20
15.7592
 11
-6.78926
 21
15.6874
  0
LINE
  8
0
 10
-6.78926
 20
15.6874
 11
-6.52071
 21
15.5811
  0
LINE
  8
0
 10
-6.52071
 20
15.5811
 11
-6.26759
 21
15.4419
  0
LINE
  8
0
 10
-6.26759
 20
15.4419
 11
-6.03392
 21
15.2722
  0
LINE
  8
0
 10
-6.03392
 20
15.2722
 11
-5.82336
 21
15.0744
  0
LINE
  8
0
 10
-5.82336
 20
15.0744
 11
-5.63925
 21
14.8519
  0
LINE
  8
0
 10
-5.63925
 20
14.8519
 11
-5.48448
 21
14.608
  0
LINE
  8
0
 10
-5.48448
 20
14.608
 11
-5.36151
 21
14.3467
  0
LINE
  8
0
 10
-5.36151
 20
14.3467
 11
-5.27225
 21
14.072
  0
LINE
  8
0
 10
-5.27225
 20
14.072
 11
-5.21812
 21
13.7883
  0
LINE
  8
0
 10
-5.21812
 20
13.7883
 11
-5.2
 21
13.5
  0
LINE
  8
0
 10
-5.2
 20
13.5
 11
-5.21812
 21
13.2117
  0
LINE
  8
0
 10
-5.21812
 20
13.2117
 11
-5.27225
 21
12.928
  0
LINE
  8
0
 10
-5.27225
 20
12.928
 11
-5.36151
 21
12.6533
  0
LINE
  8
0
 10
-5.36151
 20
12.6533
 11
-5.48448
 21
12.392
  0
LINE
  8
0
 10
-5.48448
 20
12.392
 11
-5.63925
 21
12.1481
  0
LINE
  8
0
 10
-5.63925
 20
12.1481
 11
-5.82336
 21
11.9255
  0
LINE
  8
0
 10
-5.82336
 20
11.9255
 11
-6.03392
 21
11.7278
  0
LINE
  8
0
 10
-6.03392
 20
11.7278
 11
-6.26759
 21
11.558
  0
LINE
  8
0
 10
-6.26759
 20
11.558
 11
-6.52071
 21
11.4189
  0
LINE
  8
0
 10
-6.52071
 20
11.4189
 11
-6.78926
 21
11.3126
  0
LINE
  8
0
 10
-6.78926
 20
11.3126
 11
-7.06902
 21
11.2407
  0
LINE
  8
0
 10
-7.06902
 20
11.2407
 11
-7.35558
 21
11.2045
  0
LINE
  8
0
 10
-7.35558
 20
11.2045
 11
-7.64441
 21
11.2045
  0
LINE
  8
0
 10
-18.5719
 20
3.59999
 11
-18.5719
 21
9
  0
LINE
  8
0
 10
-18.5719
 20
9
 11
-11.4281
 21
9
  0
LINE
  8
0
 10
-11.4281
 20
9
 11
-11.4281
 21
3.59999
  0
LINE
  8
0
 10
-11.4281
 20
3.59999
 11
-18.5719
 21
3.59999
  0
LINE
  8
0
 10
-3.5719
 20
3.59999
 11
-3.5719
 21
9
  0
LINE
  8
0
 10
-3.5719
 20
9
 11
3.5719
 21
9
  0
LINE
  8
0
 10
3.5719
 20
9
 11
3.5719
 21
3.59999
  0
LINE
  8
0
 10
3.5719
 20
3.59999
 11
-3.5719
 21
3.59999
  0
LINE
  8
0
 10
11.4281
 20
3.59999
 11
11.4281
 21
9
  0
LINE
  8
0
 10
11.4281
 20
9
 11
18.5719
 21
9
  0
LINE
  8
0
 10
18.5719
 20
9
 11
18.5719
 21
3.59999
  0
LINE
  8
0
 10
18.5719
 20
3.59999
 11
11.4281
 21
3.59999
  0
ENDSEC
  0
SECTION
  2
OBJECTS
  0
DICTIONARY
  0
ENDSEC
  0
EOF
