<?xml version="1.0" standalone="no"?>
<!DOCTYPE svg PUBLIC "-//W3C//DTD SVG 1.1//EN" "http://www.w3.org/Graphics/SVG/1.1/DTD/svg11.dtd">
<svg width="44mm" height="110mm" viewBox="-22 -199 44 110" xmlns="http://www.w3.org/2000/svg" version="1.1">
<title>OpenSCAD Model</title>
<path d="
M 17.9369,-185.089 L 18.5451,-185.245 L 19.1289,-185.476 L 19.6791,-185.778 L 20.1871,-186.147 L 20.6448,-186.577
 L 21.0451,-187.061 L 21.3815,-187.591 L 21.6489,-188.159 L 21.8429,-188.757 L 21.9606,-189.373 L 22,-190
 L 22,-194 L 21.9606,-194.627 L 21.8429,-195.243 L 21.6489,-195.841 L 21.3815,-196.409 L 21.0451,-196.939
 L 20.6448,-197.423 L 20.1871,-197.853 L 19.6791,-198.222 L 19.1289,-198.524 L 18.5451,-198.755 L 17.9369,-198.911
 L 17.3139,-198.99 L -17.3139,-198.99 L -17.9369,-198.911 L -18.5451,-198.755 L -19.1289,-198.524 L -19.6791,-198.222
 L -20.1871,-197.853 L -20.6448,-197.423 L -21.0451,-196.939 L -21.3815,-196.409 L -21.6489,-195.841 L -21.8429,-195.243
 L -21.9606,-194.627 L -22,-194 L -22,-190 L -21.9606,-189.373 L -21.8429,-188.757 L -21.6489,-188.159
 L -21.3815,-187.591 L -21.0451,-187.061 L -20.6448,-186.577 L -20.1871,-186.147 L -19.6791,-185.778 L -19.1289,-185.476
 L -18.5451,-185.245 L -17.9369,-185.089 L -17.3139,-185.01 L 17.3139,-185.01 z
M -17.2512,-186.008 L -17.7495,-186.071 L -18.2361,-186.196 L -18.7031,-186.381 L -19.1433,-186.623 L -19.5497,-186.918
 L -19.9159,-187.262 L -20.2361,-187.649 L -20.5052,-188.073 L -20.7191,-188.528 L -20.8743,-189.005 L -20.9684,-189.499
 L -21,-190 L -21,-194 L -20.9684,-194.501 L -20.8743,-194.995 L -20.7191,-195.472 L -20.5052,-195.927
 L -20.2361,-196.351 L -19.9159,-196.738 L -19.5497,-197.082 L -19.1433,-197.377 L -18.7031,-197.619 L -18.2361,-197.804
 L -17.7495,-197.929 L -17.2512,-197.992 L 17.2512,-197.992 L 17.7495,-197.929 L 18.2361,-197.804 L 18.7031,-197.619
 L 19.1433,-197.377 L 19.5497,-197.082 L 19.9159,-196.738 L 20.2361,-196.351 L 20.5052,-195.927 L 20.7191,-195.472
 L 20.8743,-194.995 L 20.9684,-194.501 L 21,-194 L 21,-190 L 20.9684,-189.499 L 20.8743,-189.005
 L 20.7191,-188.528 L 20.5052,-188.073 L 20.2361,-187.649 L 19.9159,-187.262 L 19.5497,-186.918 L 19.1433,-186.623
 L 18.7031,-186.381 L 18.2361,-186.196 L 17.7495,-186.071 L 17.2512,-186.008 z
M 17.9369,-161.089 L 18.5451,-161.245 L 19.1289,-161.476 L 19.6791,-161.778 L 20.1871,-162.147 L 20.6448,-162.577
 L 21.0451,-163.061 L 21.3815,-163.591 L 21.6489,-164.159 L 21.8429,-164.757 L 21.9606,-165.373 L 22,-166
 L 22,-170 L 21.9606,-170.627 L 21.8429,-171.243 L 21.6489,-171.841 L 21.3815,-172.409 L 21.0451,-172.939
 L 20.6448,-173.423 L 20.1871,-173.853 L 19.6791,-174.222 L 19.1289,-174.524 L 18.5451,-174.755 L 17.9369,-174.911
 L 17.3139,-174.99 L -17.3139,-174.99 L -17.9369,-174.911 L -18.5451,-174.755 L -19.1289,-174.524 L -19.6791,-174.222
 L -20.1871,-173.853 L -20.6448,-173.423 L -21.0451,-172.939 L -21.3815,-172.409 L -21.6489,-171.841 L -21.8429,-171.243
 L -21.9606,-170.627 L -22,-170 L -22,-166 L -21.9606,-165.373 L -21.8429,-164.757 L -21.6489,-164.159
 L -21.3815,-163.591 L -21.0451,-163.061 L -20.6448,-162.577 L -20.1871,-162.147 L -19.6791,-161.778 L -19.1289,-161.476
 L -18.5451,-161.245 L -17.9369,-161.089 L -17.3139,-161.01 L 17.3139,-161.01 z
M -17.2512,-162.008 L -17.7495,-162.071 L -18.2361,-162.196 L -18.7031,-162.381 L -19.1433,-162.623 L -19.5497,-162.918
 L -19.9159,-163.262 L -20.2361,-163.649 L -20.5052,-164.073 L -20.7191,-164.528 L -20.8743,-165.005 L -20.9684,-165.499
 L -21,-166 L -21,-170 L -20.9684,-170.501 L -20.8743,-170.995 L -20.7191,-171.472 L -20.5052,-171.927
 L -20.2361,-172.351 L -19.9159,-172.738 L -19.5497,-173.082 L -19.1433,-173.377 L -18.7031,-173.619 L -18.2361,-173.804
 L -17.7495,-173.929 L -17.2512,-173.992 L 17.2512,-173.992 L 17.7495,-173.929 L 18.2361,-173.804 L 18.7031,-173.619
 L 19.1433,-173.377 L 19.5497,-173.082 L 19.9159,-172.738 L 20.2361,-172.351 L 20.5052,-171.927 L 20.7191,-171.472
 L 20.8743,-170.995 L 20.9684,-170.501 L 21,-170 L 21,-166 L 20.9684,-165.499 L 20.8743,-165.005
 L 20.7191,-164.528 L 20.5052,-164.073 L 20.2361,-163.649 L 19.9159,-163.262 L 19.5497,-162.918 L 19.1433,-162.623
 L 18.7031,-162.381 L 18.2361,-162.196 L 17.7495,-162.071 L 17.2512,-162.008 z
M 17.9369,-137.089 L 18.5451,-137.245 L 19.1289,-137.476 L 19.6791,-137.778 L 20.1871,-138.147 L 20.6448,-138.577
 L 21.0451,-139.061 L 21.3815,-139.591 L 21.6489,-140.159 L 21.8429,-140.757 L 21.9606,-141.373 L 22,-142
 L 22,-146 L 21.9606,-146.627 L 21.8429,-147.243 L 21.6489,-147.841 L 21.3815,-148.409 L 21.0451,-148.939
 L 20.6448,-149.423 L 20.1871,-149.853 L 19.6791,-150.222 L 19.1289,-150.524 L 18.5451,-150.755 L 17.9369,-150.911
 L 17.3139,-150.99 L -17.3139,-150.99 L -17.9369,-150.911 L -18.5451,-150.755 L -19.1289,-150.524 L -19.6791,-150.222
 L -20.1871,-149.853 L -20.6448,-149.423 L -21.0451,-148.939 L -21.3815,-148.409 L -21.6489,-147.841 L -21.8429,-147.243
 L -21.9606,-146.627 L -22,-146 L -22,-142 L -21.9606,-141.373 L -21.8429,-140.757 L -21.6489,-140.159
 L -21.3815,-139.591 L -21.0451,-139.061 L -20.6448,-138.577 L -20.1871,-138.147 L -19.6791,-137.778 L -19.1289,-137.476
 L -18.5451,-137.245 L -17.9369,-137.089 L -17.3139,-137.01 L 17.3139,-137.01 z
M -17.2432,-138.135 L -17.7256,-138.196 L -18.1967,-138.317 L -18.6489,-138.496 L -19.0751,-138.73 L -19.4685,-139.016
 L -19.823,-139.349 L -20.133,-139.724 L -20.3936,-140.134 L -20.6007,-140.574 L -20.751,-141.037 L -20.8421,-141.515
 L -20.8726,-142 L -20.8726,-146 L -20.8421,-146.485 L -20.751,-146.963 L -20.6007,-147.426 L -20.3936,-147.866
 L -20.133,-148.276 L -19.823,-148.651 L -19.4685,-148.984 L -19.0751,-149.27 L -18.6489,-149.504 L -18.1967,-149.683
 L -17.7256,-149.804 L -17.2432,-149.865 L 17.2432,-149.865 L 17.7256,-149.804 L 18.1967,-149.683 L 18.6489,-149.504
 L 19.0751,-149.27 L 19.4685,-148.984 L 19.823,-148.651 L 20.133,-148.276 L 20.3936,-147.866 L 20.6007,-147.426
 L 20.751,-146.963 L 20.8421,-146.485 L 20.8726,-146 L 20.8726,-142 L 20.8421,-141.515 L 20.751,-141.037
 L 20.6007,-140.574 L 20.3936,-140.134 L 20.133,-139.724 L 19.823,-139.349 L 19.4685,-139.016 L 19.0751,-138.73
 L 18.6489,-138.496 L 18.1967,-138.317 L 17.7256,-138.196 L 17.2432,-138.135 z
M 17.9369,-113.089 L 18.5451,-113.245 L 19.1289,-113.476 L 19.6791,-113.778 L 20.1871,-114.147 L 20.6448,-114.577
 L 21.0451,-115.061 L 21.3815,-115.591 L 21.6489,-116.159 L 21.8429,-116.757 L 21.9606,-117.373 L 22,-118
 L 22,-122 L 21.9606,-122.627 L 21.8429,-123.243 L 21.6489,-123.841 L 21.3815,-124.409 L 21.0451,-124.939
 L 20.6448,-125.423 L 20.1871,-125.853 L 19.6791,-126.222 L 19.1289,-126.524 L 18.5451,-126.755 L 17.9369,-126.911
 L 17.3139,-126.99 L -17.3139,-126.99 L -17.9369,-126.911 L -18.5451,-126.755 L -19.1289,-126.524 L -19.6791,-126.222
 L -20.1871,-125.853 L -20.6448,-125.423 L -21.0451,-124.939 L -21.3815,-124.409 L -21.6489,-123.841 L -21.8429,-123.243
 L -21.9606,-122.627 L -22,-122 L -22,-118 L -21.9606,-117.373 L -21.8429,-116.757 L -21.6489,-116.159
 L -21.3815,-115.591 L -21.0451,-115.061 L -20.6448,-114.577 L -20.1871,-114.147 L -19.6791,-113.778 L -19.1289,-113.476
 L -18.5451,-113.245 L -17.9369,-113.089 L -17.3139,-113.01 L 17.3139,-113.01 z
M 17.9369,-89.0886 L 18.5451,-89.2447 L 19.1289,-89.4759 L 19.6791,-89.7784 L 20.1871,-90.1474 L 20.6448,-90.5773
 L 21.0451,-91.0611 L 21.3815,-91.5912 L 21.6489,-92.1594 L 21.8429,-92.7566 L 21.9606,-93.3733 L 22,-94
 L 22,-98 L 21.9606,-98.6267 L 21.8429,-99.2434 L 21.6489,-99.8406 L 21.3815,-100.409 L 21.0451,-100.939
 L 20.6448,-101.423 L 20.1871,-101.853 L 19.6791,-102.222 L 19.1289,-102.524 L 18.5451,-102.755 L 17.9369,-102.911
 L 17.3139,-102.99 L -17.3139,-102.99 L -17.9369,-102.911 L -18.5451,-102.755 L -19.1289,-102.524 L -19.6791,-102.222
 L -20.1871,-101.853 L -20.6448,-101.423 L -21.0451,-100.939 L -21.3815,-100.409 L -21.6489,-99.8406 L -21.8429,-99.2434
 L -21.9606,-98.6267 L -22,-98 L -22,-94 L -21.9606,-93.3733 L -21.8429,-92.7566 L -21.6489,-92.1594
 L -21.3815,-91.5912 L -21.0451,-91.0611 L -20.6448,-90.5773 L -20.1871,-90.1474 L -19.6791,-89.7784 L -19.1289,-89.4759
 L -18.5451,-89.2447 L -17.9369,-89.0886 L -17.3139,-89.0099 L 17.3139,-89.0099 z
M 14.8493,-93.6047 L 14.5503,-93.6425 L 14.2583,-93.7175 L 13.9781,-93.8284 L 13.714,-93.9736 L 13.4702,-94.1508
 L 13.2505,-94.3571 L 13.0583,-94.5893 L 12.8969,-94.8438 L 12.7685,-95.1165 L 12.6754,-95.4032 L 12.6189,-95.6992
 L 12.6,-96 L 12.6189,-96.3008 L 12.6754,-96.5968 L 12.7685,-96.8835 L 12.8969,-97.1562 L 13.0583,-97.4107
 L 13.2505,-97.6429 L 13.4702,-97.8492 L 13.714,-98.0264 L 13.9781,-98.1716 L 14.2583,-98.2825 L 14.5503,-98.3575
 L 14.8493,-98.3953 L 15.1507,-98.3953 L 15.4497,-98.3575 L 15.7416,-98.2825 L 16.0219,-98.1716 L 16.286,-98.0264
 L 16.5298,-97.8492 L 16.7495,-97.6429 L 16.9416,-97.4107 L 17.1031,-97.1562 L 17.2315,-96.8835 L 17.3246,-96.5968
 L 17.3811,-96.3008 L 17.4,-96 L 17.3811,-95.6992 L 17.3246,-95.4032 L 17.2315,-95.1165 L 17.1031,-94.8438
 L 16.9416,-94.5893 L 16.7495,-94.3571 L 16.5298,-94.1508 L 16.286,-93.9736 L 16.0219,-93.8284 L 15.7416,-93.7175
 L 15.4497,-93.6425 L 15.1507,-93.6047 z
M -15.1507,-93.6047 L -15.4497,-93.6425 L -15.7416,-93.7175 L -16.0219,-93.8284 L -16.286,-93.9736 L -16.5298,-94.1508
 L -16.7495,-94.3571 L -16.9416,-94.5893 L -17.1031,-94.8438 L -17.2315,-95.1165 L -17.3246,-95.4032 L -17.3811,-95.6992
 L -17.4,-96 L -17.3811,-96.3008 L -17.3246,-96.5968 L -17.2315,-96.8835 L -17.1031,-97.1562 L -16.9416,-97.4107
 L -16.7495,-97.6429 L -16.5298,-97.8492 L -16.286,-98.0264 L -16.0219,-98.1716 L -15.7416,-98.2825 L -15.4497,-98.3575
 L -15.1507,-98.3953 L -14.8493,-98.3953 L -14.5503,-98.3575 L -14.2583,-98.2825 L -13.9781,-98.1716 L -13.714,-98.0264
 L -13.4702,-97.8492 L -13.2505,-97.6429 L -13.0583,-97.4107 L -12.8969,-97.1562 L -12.7685,-96.8835 L -12.6754,-96.5968
 L -12.6189,-96.3008 L -12.6,-96 L -12.6189,-95.6992 L -12.6754,-95.4032 L -12.7685,-95.1165 L -12.8969,-94.8438
 L -13.0583,-94.5893 L -13.2505,-94.3571 L -13.4702,-94.1508 L -13.714,-93.9736 L -13.9781,-93.8284 L -14.2583,-93.7175
 L -14.5503,-93.6425 L -14.8493,-93.6047 z
" stroke="black" fill="lightgray" stroke-width="0.5"/>
</svg>
