<?xml version="1.0" standalone="no"?>
<!DOCTYPE svg PUBLIC "-//W3C//DTD SVG 1.1//EN" "http://www.w3.org/Graphics/SVG/1.1/DTD/svg11.dtd">
<svg width="30mm" height="208mm" viewBox="-15 -347 30 208" xmlns="http://www.w3.org/2000/svg" version="1.1">
<title>OpenSCAD Model</title>
<path d="
M 10.9369,-301.589 L 11.5451,-301.745 L 12.1289,-301.976 L 12.6791,-302.278 L 13.1871,-302.647 L 13.6448,-303.077
 L 14.0451,-303.561 L 14.3815,-304.091 L 14.6489,-304.659 L 14.8429,-305.257 L 14.9606,-305.873 L 15,-306.5
 L 15,-341.5 L 14.9606,-342.127 L 14.8429,-342.743 L 14.6489,-343.341 L 14.3815,-343.909 L 14.0451,-344.439
 L 13.6448,-344.923 L 13.1871,-345.353 L 12.6791,-345.722 L 12.1289,-346.024 L 11.5451,-346.255 L 10.9369,-346.411
 L 10.3139,-346.49 L -10.3139,-346.49 L -10.9369,-346.411 L -11.5451,-346.255 L -12.1289,-346.024 L -12.6791,-345.722
 L -13.1871,-345.353 L -13.6448,-344.923 L -14.0451,-344.439 L -14.3815,-343.909 L -14.6489,-343.341 L -14.8429,-342.743
 L -14.9606,-342.127 L -15,-341.5 L -15,-306.5 L -14.9606,-305.873 L -14.8429,-305.257 L -14.6489,-304.659
 L -14.3815,-304.091 L -14.0451,-303.561 L -13.6448,-303.077 L -13.1871,-302.647 L -12.6791,-302.278 L -12.1289,-301.976
 L -11.5451,-301.745 L -10.9369,-301.589 L -10.3139,-301.51 L 10.3139,-301.51 z
M -10.0482,-302.009 L -10.6401,-302.084 L -11.2178,-302.232 L -11.7724,-302.452 L -12.2952,-302.739 L -12.7778,-303.09
 L -13.2126,-303.498 L -13.5928,-303.958 L -13.9124,-304.462 L -14.1664,-305.001 L -14.3508,-305.569 L -14.4625,-306.155
 L -14.5,-306.75 L -14.5,-341.25 L -14.4625,-341.845 L -14.3508,-342.431 L -14.1664,-342.999 L -13.9124,-343.538
 L -13.5928,-344.042 L -13.2126,-344.502 L -12.7778,-344.91 L -12.2952,-345.261 L -11.7724,-345.548 L -11.2178,-345.768
 L -10.6401,-345.916 L -10.0482,-345.991 L 10.0482,-345.991 L 10.6401,-345.916 L 11.2178,-345.768 L 11.7724,-345.548
 L 12.2952,-345.261 L 12.7778,-344.91 L 13.2126,-344.502 L 13.5928,-344.042 L 13.9124,-343.538 L 14.1664,-342.999
 L 14.3508,-342.431 L 14.4625,-341.845 L 14.5,-341.25 L 14.5,-306.75 L 14.4625,-306.155 L 14.3508,-305.569
 L 14.1664,-305.001 L 13.9124,-304.462 L 13.5928,-303.958 L 13.2126,-303.498 L 12.7778,-303.09 L 12.2952,-302.739
 L 11.7724,-302.452 L 11.2178,-302.232 L 10.6401,-302.084 L 10.0482,-302.009 z
M 10.9369,-247.589 L 11.5451,-247.745 L 12.1289,-247.976 L 12.6791,-248.278 L 13.1871,-248.647 L 13.6448,-249.077
 L 14.0451,-249.561 L 14.3815,-250.091 L 14.6489,-250.659 L 14.8429,-251.257 L 14.9606,-251.873 L 15,-252.5
 L 15,-287.5 L 14.9606,-288.127 L 14.8429,-288.743 L 14.6489,-289.341 L 14.3815,-289.909 L 14.0451,-290.439
 L 13.6448,-290.923 L 13.1871,-291.353 L 12.6791,-291.722 L 12.1289,-292.024 L 11.5451,-292.255 L 10.9369,-292.411
 L 10.3139,-292.49 L -10.3139,-292.49 L -10.9369,-292.411 L -11.5451,-292.255 L -12.1289,-292.024 L -12.6791,-291.722
 L -13.1871,-291.353 L -13.6448,-290.923 L -14.0451,-290.439 L -14.3815,-289.909 L -14.6489,-289.341 L -14.8429,-288.743
 L -14.9606,-288.127 L -15,-287.5 L -15,-252.5 L -14.9606,-251.873 L -14.8429,-251.257 L -14.6489,-250.659
 L -14.3815,-250.091 L -14.0451,-249.561 L -13.6448,-249.077 L -13.1871,-248.647 L -12.6791,-248.278 L -12.1289,-247.976
 L -11.5451,-247.745 L -10.9369,-247.589 L -10.3139,-247.51 L 10.3139,-247.51 z
M -10.0482,-248.009 L -10.6401,-248.084 L -11.2178,-248.232 L -11.7724,-248.452 L -12.2952,-248.739 L -12.7778,-249.09
 L -13.2126,-249.498 L -13.5928,-249.958 L -13.9124,-250.462 L -14.1664,-251.001 L -14.3508,-251.569 L -14.4625,-252.155
 L -14.5,-252.75 L -14.5,-287.25 L -14.4625,-287.845 L -14.3508,-288.431 L -14.1664,-288.999 L -13.9124,-289.538
 L -13.5928,-290.042 L -13.2126,-290.502 L -12.7778,-290.91 L -12.2952,-291.261 L -11.7724,-291.548 L -11.2178,-291.768
 L -10.6401,-291.916 L -10.0482,-291.991 L 10.0482,-291.991 L 10.6401,-291.916 L 11.2178,-291.768 L 11.7724,-291.548
 L 12.2952,-291.261 L 12.7778,-290.91 L 13.2126,-290.502 L 13.5928,-290.042 L 13.9124,-289.538 L 14.1664,-288.999
 L 14.3508,-288.431 L 14.4625,-287.845 L 14.5,-287.25 L 14.5,-252.75 L 14.4625,-252.155 L 14.3508,-251.569
 L 14.1664,-251.001 L 13.9124,-250.462 L 13.5928,-249.958 L 13.2126,-249.498 L 12.7778,-249.09 L 12.2952,-248.739
 L 11.7724,-248.452 L 11.2178,-248.232 L 10.6401,-248.084 L 10.0482,-248.009 z
M 10.9369,-193.589 L 11.5451,-193.745 L 12.1289,-193.976 L 12.6791,-194.278 L 13.1871,-194.647 L 13.6448,-195.077
 L 14.0451,-195.561 L 14.3815,-196.091 L 14.6489,-196.659 L 14.8429,-197.257 L 14.9606,-197.873 L 15,-198.5
 L 15,-233.5 L 14.9606,-234.127 L 14.8429,-234.743 L 14.6489,-235.341 L 14.3815,-235.909 L 14.0451,-236.439
 L 13.6448,-236.923 L 13.1871,-237.353 L 12.6791,-237.722 L 12.1289,-238.024 L 11.5451,-238.255 L 10.9369,-238.411
 L 10.3139,-238.49 L -10.3139,-238.49 L -10.9369,-238.411 L -11.5451,-238.255 L -12.1289,-238.024 L -12.6791,-237.722
 L -13.1871,-237.353 L -13.6448,-236.923 L -14.0451,-236.439 L -14.3815,-235.909 L -14.6489,-235.341 L -14.8429,-234.743
 L -14.9606,-234.127 L -15,-233.5 L -15,-198.5 L -14.9606,-197.873 L -14.8429,-197.257 L -14.6489,-196.659
 L -14.3815,-196.091 L -14.0451,-195.561 L -13.6448,-195.077 L -13.1871,-194.647 L -12.6791,-194.278 L -12.1289,-193.976
 L -11.5451,-193.745 L -10.9369,-193.589 L -10.3139,-193.51 L 10.3139,-193.51 z
M -9.99297,-194.888 L -10.4751,-194.949 L -10.9457,-195.07 L -11.3975,-195.249 L -11.8234,-195.483 L -12.2165,-195.769
 L -12.5707,-196.101 L -12.8805,-196.476 L -13.1408,-196.886 L -13.3477,-197.326 L -13.4979,-197.788 L -13.589,-198.265
 L -13.6195,-198.75 L -13.6195,-233.25 L -13.589,-233.735 L -13.4979,-234.212 L -13.3477,-234.674 L -13.1408,-235.114
 L -12.8805,-235.524 L -12.5707,-235.899 L -12.2165,-236.231 L -11.8234,-236.517 L -11.3975,-236.751 L -10.9457,-236.93
 L -10.4751,-237.051 L -9.99297,-237.112 L 9.99297,-237.112 L 10.4751,-237.051 L 10.9457,-236.93 L 11.3975,-236.751
 L 11.8234,-236.517 L 12.2165,-236.231 L 12.5707,-235.899 L 12.8805,-235.524 L 13.1408,-235.114 L 13.3477,-234.674
 L 13.4979,-234.212 L 13.589,-233.735 L 13.6195,-233.25 L 13.6195,-198.75 L 13.589,-198.265 L 13.4979,-197.788
 L 13.3477,-197.326 L 13.1408,-196.886 L 12.8805,-196.476 L 12.5707,-196.101 L 12.2165,-195.769 L 11.8234,-195.483
 L 11.3975,-195.249 L 10.9457,-195.07 L 10.4751,-194.949 L 9.99297,-194.888 z
M 10.9369,-139.589 L 11.5451,-139.745 L 12.1289,-139.976 L 12.6791,-140.278 L 13.1871,-140.647 L 13.6448,-141.077
 L 14.0451,-141.561 L 14.3815,-142.091 L 14.6489,-142.659 L 14.8429,-143.257 L 14.9606,-143.873 L 15,-144.5
 L 15,-179.5 L 14.9606,-180.127 L 14.8429,-180.743 L 14.6489,-181.341 L 14.3815,-181.909 L 14.0451,-182.439
 L 13.6448,-182.923 L 13.1871,-183.353 L 12.6791,-183.722 L 12.1289,-184.024 L 11.5451,-184.255 L 10.9369,-184.411
 L 10.3139,-184.49 L -10.3139,-184.49 L -10.9369,-184.411 L -11.5451,-184.255 L -12.1289,-184.024 L -12.6791,-183.722
 L -13.1871,-183.353 L -13.6448,-182.923 L -14.0451,-182.439 L -14.3815,-181.909 L -14.6489,-181.341 L -14.8429,-180.743
 L -14.9606,-180.127 L -15,-179.5 L -15,-144.5 L -14.9606,-143.873 L -14.8429,-143.257 L -14.6489,-142.659
 L -14.3815,-142.091 L -14.0451,-141.561 L -13.6448,-141.077 L -13.1871,-140.647 L -12.6791,-140.278 L -12.1289,-139.976
 L -11.5451,-139.745 L -10.9369,-139.589 L -10.3139,-139.51 L 10.3139,-139.51 z
M -7.59418,-175.503 L -7.78107,-175.527 L -7.96352,-175.573 L -8.13866,-175.643 L -8.30373,-175.734 L -8.45613,-175.844
 L -8.59344,-175.973 L -8.71352,-176.118 L -8.81445,-176.277 L -8.89465,-176.448 L -8.95287,-176.627 L -8.98816,-176.812
 L -9,-177 L -8.98816,-177.188 L -8.95287,-177.373 L -8.89465,-177.552 L -8.81445,-177.723 L -8.71352,-177.882
 L -8.59344,-178.027 L -8.45613,-178.156 L -8.30373,-178.266 L -8.13866,-178.357 L -7.96352,-178.427 L -7.78107,-178.473
 L -7.59418,-178.497 L -7.40581,-178.497 L -7.21892,-178.473 L -7.03647,-178.427 L -6.86133,-178.357 L -6.69626,-178.266
 L -6.54385,-178.156 L -6.40654,-178.027 L -6.28647,-177.882 L -6.18553,-177.723 L -6.10533,-177.552 L -6.04712,-177.373
 L -6.01183,-177.188 L -6,-177 L -6.01183,-176.812 L -6.04712,-176.627 L -6.10533,-176.448 L -6.18553,-176.277
 L -6.28647,-176.118 L -6.40654,-175.973 L -6.54385,-175.844 L -6.69626,-175.734 L -6.86133,-175.643 L -7.03647,-175.573
 L -7.21892,-175.527 L -7.40581,-175.503 z
M 7.40581,-175.503 L 7.21892,-175.527 L 7.03647,-175.573 L 6.86133,-175.643 L 6.69626,-175.734 L 6.54385,-175.844
 L 6.40654,-175.973 L 6.28647,-176.118 L 6.18553,-176.277 L 6.10533,-176.448 L 6.04712,-176.627 L 6.01183,-176.812
 L 6,-177 L 6.01183,-177.188 L 6.04712,-177.373 L 6.10533,-177.552 L 6.18553,-177.723 L 6.28647,-177.882
 L 6.40654,-178.027 L 6.54385,-178.156 L 6.69626,-178.266 L 6.86133,-178.357 L 7.03647,-178.427 L 7.21892,-178.473
 L 7.40581,-178.497 L 7.59418,-178.497 L 7.78107,-178.473 L 7.96352,-178.427 L 8.13866,-178.357 L 8.30373,-178.266
 L 8.45613,-178.156 L 8.59344,-178.027 L 8.71352,-177.882 L 8.81445,-177.723 L 8.89465,-177.552 L 8.95287,-177.373
 L 8.98816,-177.188 L 9,-177 L 8.98816,-176.812 L 8.95287,-176.627 L 8.89465,-176.448 L 8.81445,-176.277
 L 8.71352,-176.118 L 8.59344,-175.973 L 8.45613,-175.844 L 8.30373,-175.734 L 8.13866,-175.643 L 7.96352,-175.573
 L 7.78107,-175.527 L 7.59418,-175.503 z
M -7.59418,-145.503 L -7.78107,-145.527 L -7.96352,-145.573 L -8.13866,-145.643 L -8.30373,-145.734 L -8.45613,-145.844
 L -8.59344,-145.973 L -8.71352,-146.118 L -8.81445,-146.277 L -8.89465,-146.448 L -8.95287,-146.627 L -8.98816,-146.812
 L -9,-147 L -8.98816,-147.188 L -8.95287,-147.373 L -8.89465,-147.552 L -8.81445,-147.723 L -8.71352,-147.882
 L -8.59344,-148.027 L -8.45613,-148.156 L -8.30373,-148.266 L -8.13866,-148.357 L -7.96352,-148.427 L -7.78107,-148.473
 L -7.59418,-148.497 L -7.40581,-148.497 L -7.21892,-148.473 L -7.03647,-148.427 L -6.86133,-148.357 L -6.69626,-148.266
 L -6.54385,-148.156 L -6.40654,-148.027 L -6.28647,-147.882 L -6.18553,-147.723 L -6.10533,-147.552 L -6.04712,-147.373
 L -6.01183,-147.188 L -6,-147 L -6.01183,-146.812 L -6.04712,-146.627 L -6.10533,-146.448 L -6.18553,-146.277
 L -6.28647,-146.118 L -6.40654,-145.973 L -6.54385,-145.844 L -6.69626,-145.734 L -6.86133,-145.643 L -7.03647,-145.573
 L -7.21892,-145.527 L -7.40581,-145.503 z
M 7.40581,-145.503 L 7.21892,-145.527 L 7.03647,-145.573 L 6.86133,-145.643 L 6.69626,-145.734 L 6.54385,-145.844
 L 6.40654,-145.973 L 6.28647,-146.118 L 6.18553,-146.277 L 6.10533,-146.448 L 6.04712,-146.627 L 6.01183,-146.812
 L 6,-147 L 6.01183,-147.188 L 6.04712,-147.373 L 6.10533,-147.552 L 6.18553,-147.723 L 6.28647,-147.882
 L 6.40654,-148.027 L 6.54385,-148.156 L 6.69626,-148.266 L 6.86133,-148.357 L 7.03647,-148.427 L 7.21892,-148.473
 L 7.40581,-148.497 L 7.59418,-148.497 L 7.78107,-148.473 L 7.96352,-148.427 L 8.13866,-148.357 L 8.30373,-148.266
 L 8.45613,-148.156 L 8.59344,-148.027 L 8.71352,-147.882 L 8.81445,-147.723 L 8.89465,-147.552 L 8.95287,-147.373
 L 8.98816,-147.188 L 9,-147 L 8.98816,-146.812 L 8.95287,-146.627 L 8.89465,-146.448 L 8.81445,-146.277
 L 8.71352,-146.118 L 8.59344,-145.973 L 8.45613,-145.844 L 8.30373,-145.734 L 8.13866,-145.643 L 7.96352,-145.573
 L 7.78107,-145.527 L 7.59418,-145.503 z
" stroke="black" fill="lightgray" stroke-width="0.5"/>
</svg>
