<?xml version="1.0" standalone="no"?>
<!DOCTYPE svg PUBLIC "-//W3C//DTD SVG 1.1//EN" "http://www.w3.org/Graphics/SVG/1.1/DTD/svg11.dtd">
<svg width="2mm" height="2mm" viewBox="-1 -1 2 2" xmlns="http://www.w3.org/2000/svg" version="1.1">
<title>OpenSCAD Model</title>
<path d="
M 0.140533,0.73671 L 0.23175,0.713287 L 0.319321,0.678619 L 0.401855,0.63324 L 0.478058,0.577881 L 0.546722,0.513397
 L 0.60675,0.440826 L 0.657227,0.361313 L 0.697327,0.276093 L 0.726425,0.186508 L 0.74408,0.0939941 L 0.75,-0
 L 0.74408,-0.0939941 L 0.726425,-0.186508 L 0.697327,-0.276093 L 0.657227,-0.361313 L 0.60675,-0.440826 L 0.546722,-0.513397
 L 0.478058,-0.577881 L 0.401855,-0.63324 L 0.319321,-0.678619 L 0.23175,-0.713287 L 0.140533,-0.73671 L 0.0470886,-0.74852
 L -0.0470886,-0.74852 L -0.140533,-0.73671 L -0.23175,-0.713287 L -0.319321,-0.678619 L -0.401855,-0.63324 L -0.478058,-0.577881
 L -0.546722,-0.513397 L -0.60675,-0.440826 L -0.657227,-0.361313 L -0.697327,-0.276093 L -0.726425,-0.186508 L -0.74408,-0.0939941
 L -0.75,-0 L -0.74408,0.0939941 L -0.726425,0.186508 L -0.697327,0.276093 L -0.657227,0.361313 L -0.60675,0.440826
 L -0.546722,0.513397 L -0.478058,0.577881 L -0.401855,0.63324 L -0.319321,0.678619 L -0.23175,0.713287 L -0.140533,0.73671
 L -0.0470886,0.74852 L 0.0470886,0.74852 z
" stroke="black" fill="lightgray" stroke-width="0.5"/>
</svg>
