<?xml version="1.0" standalone="no"?>
<!DOCTYPE svg PUBLIC "-//W3C//DTD SVG 1.1//EN" "http://www.w3.org/Graphics/SVG/1.1/DTD/svg11.dtd">
<svg width="30mm" height="122mm" viewBox="-15 -92 30 122" xmlns="http://www.w3.org/2000/svg" version="1.1">
<title>OpenSCAD Model</title>
<path d="
M 10.4369,-32.5886 L 11.0451,-32.7447 L 11.6289,-32.9759 L 12.1791,-33.2784 L 12.6871,-33.6474 L 13.1448,-34.0773
 L 13.5451,-34.5611 L 13.8815,-35.0912 L 14.1489,-35.6594 L 14.3429,-36.2566 L 14.4606,-36.8733 L 14.5,-37.5
 L 14.5,-86.5 L 14.4606,-87.1267 L 14.3429,-87.7434 L 14.1489,-88.3406 L 13.8815,-88.9088 L 13.5451,-89.4389
 L 13.1448,-89.9227 L 12.6871,-90.3526 L 12.1791,-90.7216 L 11.6289,-91.0241 L 11.0451,-91.2553 L 10.4369,-91.4114
 L 9.81395,-91.4901 L -9.81395,-91.4901 L -10.4369,-91.4114 L -11.0451,-91.2553 L -11.6289,-91.0241 L -12.1791,-90.7216
 L -12.6871,-90.3526 L -13.1448,-89.9227 L -13.5451,-89.4389 L -13.8815,-88.9088 L -14.1489,-88.3406 L -14.3429,-87.7434
 L -14.4606,-87.1267 L -14.5,-86.5 L -14.5,-37.5 L -14.4606,-36.8733 L -14.3429,-36.2566 L -14.1489,-35.6594
 L -13.8815,-35.0912 L -13.5451,-34.5611 L -13.1448,-34.0773 L -12.6871,-33.6474 L -12.1791,-33.2784 L -11.6289,-32.9759
 L -11.0451,-32.7447 L -10.4369,-32.5886 L -9.81395,-32.5099 L 9.81395,-32.5099 z
M -7.68837,-81.5059 L -8.06213,-81.5531 L -8.42705,-81.6468 L -8.77733,-81.7855 L -9.10747,-81.967 L -9.41226,-82.1884
 L -9.6869,-82.4464 L -9.92705,-82.7366 L -10.1289,-83.0547 L -10.2893,-83.3956 L -10.4057,-83.7539 L -10.4763,-84.124
 L -10.5,-84.5 L -10.4763,-84.876 L -10.4057,-85.2461 L -10.2893,-85.6044 L -10.1289,-85.9453 L -9.92705,-86.2634
 L -9.6869,-86.5536 L -9.41226,-86.8115 L -9.10747,-87.033 L -8.77733,-87.2145 L -8.42705,-87.3532 L -8.06213,-87.4469
 L -7.68837,-87.4941 L -7.31161,-87.4941 L -6.93785,-87.4469 L -6.57294,-87.3532 L -6.22266,-87.2145 L -5.89252,-87.033
 L -5.58772,-86.8115 L -5.31308,-86.5536 L -5.07294,-86.2634 L -4.87108,-85.9453 L -4.71066,-85.6044 L -4.59424,-85.2461
 L -4.52365,-84.876 L -4.5,-84.5 L -4.52365,-84.124 L -4.59424,-83.7539 L -4.71066,-83.3956 L -4.87108,-83.0547
 L -5.07294,-82.7366 L -5.31308,-82.4464 L -5.58772,-82.1884 L -5.89252,-81.967 L -6.22266,-81.7855 L -6.57294,-81.6468
 L -6.93785,-81.5531 L -7.31161,-81.5059 z
M 7.31161,-81.5059 L 6.93785,-81.5531 L 6.57294,-81.6468 L 6.22266,-81.7855 L 5.89252,-81.967 L 5.58772,-82.1884
 L 5.31308,-82.4464 L 5.07294,-82.7366 L 4.87108,-83.0547 L 4.71066,-83.3956 L 4.59424,-83.7539 L 4.52365,-84.124
 L 4.5,-84.5 L 4.52365,-84.876 L 4.59424,-85.2461 L 4.71066,-85.6044 L 4.87108,-85.9453 L 5.07294,-86.2634
 L 5.31308,-86.5536 L 5.58772,-86.8115 L 5.89252,-87.033 L 6.22266,-87.2145 L 6.57294,-87.3532 L 6.93785,-87.4469
 L 7.31161,-87.4941 L 7.68837,-87.4941 L 8.06213,-87.4469 L 8.42705,-87.3532 L 8.77733,-87.2145 L 9.10747,-87.033
 L 9.41226,-86.8115 L 9.6869,-86.5536 L 9.92705,-86.2634 L 10.1289,-85.9453 L 10.2893,-85.6044 L 10.4057,-85.2461
 L 10.4763,-84.876 L 10.5,-84.5 L 10.4763,-84.124 L 10.4057,-83.7539 L 10.2893,-83.3956 L 10.1289,-83.0547
 L 9.92705,-82.7366 L 9.6869,-82.4464 L 9.41226,-82.1884 L 9.10747,-81.967 L 8.77733,-81.7855 L 8.42705,-81.6468
 L 8.06213,-81.5531 L 7.68837,-81.5059 z
M -9.5,-65.25 L -9.5,-73.75 L -5.5,-73.75 L -5.5,-65.25 z
M 5.5,-65.25 L 5.5,-73.75 L 9.5,-73.75 L 9.5,-65.25 z
M -9.5,-50.25 L -9.5,-58.75 L -5.5,-58.75 L -5.5,-50.25 z
M 5.5,-50.25 L 5.5,-58.75 L 9.5,-58.75 L 9.5,-50.25 z
M 7.31161,-36.5059 L 6.93785,-36.5531 L 6.57294,-36.6468 L 6.22266,-36.7855 L 5.89252,-36.967 L 5.58772,-37.1885
 L 5.31308,-37.4464 L 5.07294,-37.7366 L 4.87108,-38.0547 L 4.71066,-38.3956 L 4.59424,-38.7539 L 4.52365,-39.124
 L 4.5,-39.5 L 4.52365,-39.876 L 4.59424,-40.2461 L 4.71066,-40.6044 L 4.87108,-40.9453 L 5.07294,-41.2634
 L 5.31308,-41.5536 L 5.58772,-41.8116 L 5.89252,-42.033 L 6.22266,-42.2145 L 6.57294,-42.3532 L 6.93785,-42.4469
 L 7.31161,-42.4941 L 7.68837,-42.4941 L 8.06213,-42.4469 L 8.42705,-42.3532 L 8.77733,-42.2145 L 9.10747,-42.033
 L 9.41226,-41.8116 L 9.6869,-41.5536 L 9.92705,-41.2634 L 10.1289,-40.9453 L 10.2893,-40.6044 L 10.4057,-40.2461
 L 10.4763,-39.876 L 10.5,-39.5 L 10.4763,-39.124 L 10.4057,-38.7539 L 10.2893,-38.3956 L 10.1289,-38.0547
 L 9.92705,-37.7366 L 9.6869,-37.4464 L 9.41226,-37.1885 L 9.10747,-36.967 L 8.77733,-36.7855 L 8.42705,-36.6468
 L 8.06213,-36.5531 L 7.68837,-36.5059 z
M -7.68837,-36.5059 L -8.06213,-36.5531 L -8.42705,-36.6468 L -8.77733,-36.7855 L -9.10747,-36.967 L -9.41226,-37.1885
 L -9.6869,-37.4464 L -9.92705,-37.7366 L -10.1289,-38.0547 L -10.2893,-38.3956 L -10.4057,-38.7539 L -10.4763,-39.124
 L -10.5,-39.5 L -10.4763,-39.876 L -10.4057,-40.2461 L -10.2893,-40.6044 L -10.1289,-40.9453 L -9.92705,-41.2634
 L -9.6869,-41.5536 L -9.41226,-41.8116 L -9.10747,-42.033 L -8.77733,-42.2145 L -8.42705,-42.3532 L -8.06213,-42.4469
 L -7.68837,-42.4941 L -7.31161,-42.4941 L -6.93785,-42.4469 L -6.57294,-42.3532 L -6.22266,-42.2145 L -5.89252,-42.033
 L -5.58772,-41.8116 L -5.31308,-41.5536 L -5.07294,-41.2634 L -4.87108,-40.9453 L -4.71066,-40.6044 L -4.59424,-40.2461
 L -4.52365,-39.876 L -4.5,-39.5 L -4.52365,-39.124 L -4.59424,-38.7539 L -4.71066,-38.3956 L -4.87108,-38.0547
 L -5.07294,-37.7366 L -5.31308,-37.4464 L -5.58772,-37.1885 L -5.89252,-36.967 L -6.22266,-36.7855 L -6.57294,-36.6468
 L -6.93785,-36.5531 L -7.31161,-36.5059 z
M 10.4369,29.4114 L 11.0451,29.2553 L 11.6289,29.0241 L 12.1791,28.7216 L 12.6871,28.3526 L 13.1448,27.9227
 L 13.5451,27.4389 L 13.8815,26.9088 L 14.1489,26.3406 L 14.3429,25.7434 L 14.4606,25.1267 L 14.5,24.5
 L 14.5,-24.5 L 14.4606,-25.1267 L 14.3429,-25.7434 L 14.1489,-26.3406 L 13.8815,-26.9088 L 13.5451,-27.4389
 L 13.1448,-27.9227 L 12.6871,-28.3526 L 12.1791,-28.7216 L 11.6289,-29.0241 L 11.0451,-29.2553 L 10.4369,-29.4114
 L 9.81395,-29.4901 L -9.81395,-29.4901 L -10.4369,-29.4114 L -11.0451,-29.2553 L -11.6289,-29.0241 L -12.1791,-28.7216
 L -12.6871,-28.3526 L -13.1448,-27.9227 L -13.5451,-27.4389 L -13.8815,-26.9088 L -14.1489,-26.3406 L -14.3429,-25.7434
 L -14.4606,-25.1267 L -14.5,-24.5 L -14.5,24.5 L -14.4606,25.1267 L -14.3429,25.7434 L -14.1489,26.3406
 L -13.8815,26.9088 L -13.5451,27.4389 L -13.1448,27.9227 L -12.6871,28.3526 L -12.1791,28.7216 L -11.6289,29.0241
 L -11.0451,29.2553 L -10.4369,29.4114 L -9.81395,29.4901 L 9.81395,29.4901 z
M 7.31161,-19.5059 L 6.93785,-19.5531 L 6.57294,-19.6468 L 6.22266,-19.7855 L 5.89252,-19.967 L 5.58772,-20.1884
 L 5.31308,-20.4464 L 5.07294,-20.7366 L 4.87108,-21.0547 L 4.71066,-21.3956 L 4.59424,-21.7539 L 4.52365,-22.124
 L 4.5,-22.5 L 4.52365,-22.876 L 4.59424,-23.2461 L 4.71066,-23.6044 L 4.87108,-23.9453 L 5.07294,-24.2634
 L 5.31308,-24.5536 L 5.58772,-24.8115 L 5.89252,-25.033 L 6.22266,-25.2145 L 6.57294,-25.3532 L 6.93785,-25.4469
 L 7.31161,-25.4941 L 7.68837,-25.4941 L 8.06213,-25.4469 L 8.42705,-25.3532 L 8.77733,-25.2145 L 9.10747,-25.033
 L 9.41226,-24.8115 L 9.6869,-24.5536 L 9.92705,-24.2634 L 10.1289,-23.9453 L 10.2893,-23.6044 L 10.4057,-23.2461
 L 10.4763,-22.876 L 10.5,-22.5 L 10.4763,-22.124 L 10.4057,-21.7539 L 10.2893,-21.3956 L 10.1289,-21.0547
 L 9.92705,-20.7366 L 9.6869,-20.4464 L 9.41226,-20.1884 L 9.10747,-19.967 L 8.77733,-19.7855 L 8.42705,-19.6468
 L 8.06213,-19.5531 L 7.68837,-19.5059 z
M -7.68837,-19.5059 L -8.06213,-19.5531 L -8.42705,-19.6468 L -8.77733,-19.7855 L -9.10747,-19.967 L -9.41226,-20.1884
 L -9.6869,-20.4464 L -9.92705,-20.7366 L -10.1289,-21.0547 L -10.2893,-21.3956 L -10.4057,-21.7539 L -10.4763,-22.124
 L -10.5,-22.5 L -10.4763,-22.876 L -10.4057,-23.2461 L -10.2893,-23.6044 L -10.1289,-23.9453 L -9.92705,-24.2634
 L -9.6869,-24.5536 L -9.41226,-24.8115 L -9.10747,-25.033 L -8.77733,-25.2145 L -8.42705,-25.3532 L -8.06213,-25.4469
 L -7.68837,-25.4941 L -7.31161,-25.4941 L -6.93785,-25.4469 L -6.57294,-25.3532 L -6.22266,-25.2145 L -5.89252,-25.033
 L -5.58772,-24.8115 L -5.31308,-24.5536 L -5.07294,-24.2634 L -4.87108,-23.9453 L -4.71066,-23.6044 L -4.59424,-23.2461
 L -4.52365,-22.876 L -4.5,-22.5 L -4.52365,-22.124 L -4.59424,-21.7539 L -4.71066,-21.3956 L -4.87108,-21.0547
 L -5.07294,-20.7366 L -5.31308,-20.4464 L -5.58772,-20.1884 L -5.89252,-19.967 L -6.22266,-19.7855 L -6.57294,-19.6468
 L -6.93785,-19.5531 L -7.31161,-19.5059 z
M 5.5,-10.25 L 5.5,-11.75 L 9.5,-11.75 L 9.5,-10.25 z
M -9.5,-10.25 L -9.5,-11.75 L -5.5,-11.75 L -5.5,-10.25 z
M -9.5,-3.25 L -9.5,-4.75 L -5.5,-4.75 L -5.5,-3.25 z
M 5.5,-3.25 L 5.5,-4.75 L 9.5,-4.75 L 9.5,-3.25 z
M -9.5,4.75 L -9.5,3.25 L -5.5,3.25 L -5.5,4.75 z
M 5.5,4.75 L 5.5,3.25 L 9.5,3.25 L 9.5,4.75 z
M -9.5,11.75 L -9.5,10.25 L -5.5,10.25 L -5.5,11.75 z
M 5.5,11.75 L 5.5,10.25 L 9.5,10.25 L 9.5,11.75 z
M 7.31161,25.4941 L 6.93785,25.4469 L 6.57294,25.3532 L 6.22266,25.2145 L 5.89252,25.033 L 5.58772,24.8115
 L 5.31308,24.5536 L 5.07294,24.2634 L 4.87108,23.9453 L 4.71066,23.6044 L 4.59424,23.2461 L 4.52365,22.876
 L 4.5,22.5 L 4.52365,22.124 L 4.59424,21.7539 L 4.71066,21.3956 L 4.87108,21.0547 L 5.07294,20.7366
 L 5.31308,20.4464 L 5.58772,20.1884 L 5.89252,19.967 L 6.22266,19.7855 L 6.57294,19.6468 L 6.93785,19.5531
 L 7.31161,19.5059 L 7.68837,19.5059 L 8.06213,19.5531 L 8.42705,19.6468 L 8.77733,19.7855 L 9.10747,19.967
 L 9.41226,20.1884 L 9.6869,20.4464 L 9.92705,20.7366 L 10.1289,21.0547 L 10.2893,21.3956 L 10.4057,21.7539
 L 10.4763,22.124 L 10.5,22.5 L 10.4763,22.876 L 10.4057,23.2461 L 10.2893,23.6044 L 10.1289,23.9453
 L 9.92705,24.2634 L 9.6869,24.5536 L 9.41226,24.8115 L 9.10747,25.033 L 8.77733,25.2145 L 8.42705,25.3532
 L 8.06213,25.4469 L 7.68837,25.4941 z
M -7.68837,25.4941 L -8.06213,25.4469 L -8.42705,25.3532 L -8.77733,25.2145 L -9.10747,25.033 L -9.41226,24.8115
 L -9.6869,24.5536 L -9.92705,24.2634 L -10.1289,23.9453 L -10.2893,23.6044 L -10.4057,23.2461 L -10.4763,22.876
 L -10.5,22.5 L -10.4763,22.124 L -10.4057,21.7539 L -10.2893,21.3956 L -10.1289,21.0547 L -9.92705,20.7366
 L -9.6869,20.4464 L -9.41226,20.1884 L -9.10747,19.967 L -8.77733,19.7855 L -8.42705,19.6468 L -8.06213,19.5531
 L -7.68837,19.5059 L -7.31161,19.5059 L -6.93785,19.5531 L -6.57294,19.6468 L -6.22266,19.7855 L -5.89252,19.967
 L -5.58772,20.1884 L -5.31308,20.4464 L -5.07294,20.7366 L -4.87108,21.0547 L -4.71066,21.3956 L -4.59424,21.7539
 L -4.52365,22.124 L -4.5,22.5 L -4.52365,22.876 L -4.59424,23.2461 L -4.71066,23.6044 L -4.87108,23.9453
 L -5.07294,24.2634 L -5.31308,24.5536 L -5.58772,24.8115 L -5.89252,25.033 L -6.22266,25.2145 L -6.57294,25.3532
 L -6.93785,25.4469 L -7.31161,25.4941 z
" stroke="black" fill="lightgray" stroke-width="0.5"/>
</svg>
