  0
SECTION
  2
BLOCKS
  0
ENDSEC
  0
SECTION
  2
ENTITIES
  0
LINE
  8
0
 10
47.9369
 20
-29.4114
 11
48.5451
 21
-29.2553
  0
LINE
  8
0
 10
48.5451
 20
-29.2553
 11
49.1289
 21
-29.0241
  0
LINE
  8
0
 10
49.1289
 20
-29.0241
 11
49.6791
 21
-28.7216
  0
LINE
  8
0
 10
49.6791
 20
-28.7216
 11
50.1871
 21
-28.3526
  0
LINE
  8
0
 10
50.1871
 20
-28.3526
 11
50.6448
 21
-27.9227
  0
LINE
  8
0
 10
50.6448
 20
-27.9227
 11
51.0451
 21
-27.4389
  0
LINE
  8
0
 10
51.0451
 20
-27.4389
 11
51.3815
 21
-26.9088
  0
LINE
  8
0
 10
51.3815
 20
-26.9088
 11
51.6489
 21
-26.3406
  0
LINE
  8
0
 10
51.6489
 20
-26.3406
 11
51.8429
 21
-25.7434
  0
LINE
  8
0
 10
51.8429
 20
-25.7434
 11
51.9606
 21
-25.1267
  0
LINE
  8
0
 10
51.9606
 20
-25.1267
 11
52
 21
-24.5
  0
LINE
  8
0
 10
52
 20
-24.5
 11
52
 21
24.5
  0
LINE
  8
0
 10
52
 20
24.5
 11
51.9606
 21
25.1267
  0
LINE
  8
0
 10
51.9606
 20
25.1267
 11
51.8429
 21
25.7434
  0
LINE
  8
0
 10
51.8429
 20
25.7434
 11
51.6489
 21
26.3406
  0
LINE
  8
0
 10
51.6489
 20
26.3406
 11
51.3815
 21
26.9088
  0
LINE
  8
0
 10
51.3815
 20
26.9088
 11
51.0451
 21
27.4389
  0
LINE
  8
0
 10
51.0451
 20
27.4389
 11
50.6448
 21
27.9227
  0
LINE
  8
0
 10
50.6448
 20
27.9227
 11
50.1871
 21
28.3526
  0
LINE
  8
0
 10
50.1871
 20
28.3526
 11
49.6791
 21
28.7216
  0
LINE
  8
0
 10
49.6791
 20
28.7216
 11
49.1289
 21
29.0241
  0
LINE
  8
0
 10
49.1289
 20
29.0241
 11
48.5451
 21
29.2553
  0
LINE
  8
0
 10
48.5451
 20
29.2553
 11
47.9369
 21
29.4114
  0
LINE
  8
0
 10
47.9369
 20
29.4114
 11
47.3139
 21
29.4901
  0
LINE
  8
0
 10
47.3139
 20
29.4901
 11
-47.3139
 21
29.4901
  0
LINE
  8
0
 10
-47.3139
 20
29.4901
 11
-47.9369
 21
29.4114
  0
LINE
  8
0
 10
-47.9369
 20
29.4114
 11
-48.5451
 21
29.2553
  0
LINE
  8
0
 10
-48.5451
 20
29.2553
 11
-49.1289
 21
29.0241
  0
LINE
  8
0
 10
-49.1289
 20
29.0241
 11
-49.6791
 21
28.7216
  0
LINE
  8
0
 10
-49.6791
 20
28.7216
 11
-50.1871
 21
28.3526
  0
LINE
  8
0
 10
-50.1871
 20
28.3526
 11
-50.6448
 21
27.9227
  0
LINE
  8
0
 10
-50.6448
 20
27.9227
 11
-51.0451
 21
27.4389
  0
LINE
  8
0
 10
-51.0451
 20
27.4389
 11
-51.3815
 21
26.9088
  0
LINE
  8
0
 10
-51.3815
 20
26.9088
 11
-51.6489
 21
26.3406
  0
LINE
  8
0
 10
-51.6489
 20
26.3406
 11
-51.8429
 21
25.7434
  0
LINE
  8
0
 10
-51.8429
 20
25.7434
 11
-51.9606
 21
25.1267
  0
LINE
  8
0
 10
-51.9606
 20
25.1267
 11
-52
 21
24.5
  0
LINE
  8
0
 10
-52
 20
24.5
 11
-52
 21
-24.5
  0
LINE
  8
0
 10
-52
 20
-24.5
 11
-51.9606
 21
-25.1267
  0
LINE
  8
0
 10
-51.9606
 20
-25.1267
 11
-51.8429
 21
-25.7434
  0
LINE
  8
0
 10
-51.8429
 20
-25.7434
 11
-51.6489
 21
-26.3406
  0
LINE
  8
0
 10
-51.6489
 20
-26.3406
 11
-51.3815
 21
-26.9088
  0
LINE
  8
0
 10
-51.3815
 20
-26.9088
 11
-51.0451
 21
-27.4389
  0
LINE
  8
0
 10
-51.0451
 20
-27.4389
 11
-50.6448
 21
-27.9227
  0
LINE
  8
0
 10
-50.6448
 20
-27.9227
 11
-50.1871
 21
-28.3526
  0
LINE
  8
0
 10
-50.1871
 20
-28.3526
 11
-49.6791
 21
-28.7216
  0
LINE
  8
0
 10
-49.6791
 20
-28.7216
 11
-49.1289
 21
-29.0241
  0
LINE
  8
0
 10
-49.1289
 20
-29.0241
 11
-48.5451
 21
-29.2553
  0
LINE
  8
0
 10
-48.5451
 20
-29.2553
 11
-47.9369
 21
-29.4114
  0
LINE
  8
0
 10
-47.9369
 20
-29.4114
 11
-47.3139
 21
-29.4901
  0
LINE
  8
0
 10
-47.3139
 20
-29.4901
 11
47.3139
 21
-29.4901
  0
LINE
  8
0
 10
47.3139
 20
-29.4901
 11
47.9369
 21
-29.4114
  0
LINE
  8
0
 10
29.8116
 20
19.5059
 11
29.4379
 21
19.5531
  0
LINE
  8
0
 10
29.4379
 20
19.5531
 11
29.0729
 21
19.6468
  0
LINE
  8
0
 10
29.0729
 20
19.6468
 11
28.7227
 21
19.7855
  0
LINE
  8
0
 10
28.7227
 20
19.7855
 11
28.3925
 21
19.967
  0
LINE
  8
0
 10
28.3925
 20
19.967
 11
28.0877
 21
20.1884
  0
LINE
  8
0
 10
28.0877
 20
20.1884
 11
27.8131
 21
20.4464
  0
LINE
  8
0
 10
27.8131
 20
20.4464
 11
27.5729
 21
20.7366
  0
LINE
  8
0
 10
27.5729
 20
20.7366
 11
27.3711
 21
21.0547
  0
LINE
  8
0
 10
27.3711
 20
21.0547
 11
27.2107
 21
21.3956
  0
LINE
  8
0
 10
27.2107
 20
21.3956
 11
27.0942
 21
21.7539
  0
LINE
  8
0
 10
27.0942
 20
21.7539
 11
27.0237
 21
22.124
  0
LINE
  8
0
 10
27.0237
 20
22.124
 11
27
 21
22.5
  0
LINE
  8
0
 10
27
 20
22.5
 11
27.0237
 21
22.876
  0
LINE
  8
0
 10
27.0237
 20
22.876
 11
27.0942
 21
23.2461
  0
LINE
  8
0
 10
27.0942
 20
23.2461
 11
27.2107
 21
23.6044
  0
LINE
  8
0
 10
27.2107
 20
23.6044
 11
27.3711
 21
23.9453
  0
LINE
  8
0
 10
27.3711
 20
23.9453
 11
27.5729
 21
24.2634
  0
LINE
  8
0
 10
27.5729
 20
24.2634
 11
27.8131
 21
24.5536
  0
LINE
  8
0
 10
27.8131
 20
24.5536
 11
28.0877
 21
24.8115
  0
LINE
  8
0
 10
28.0877
 20
24.8115
 11
28.3925
 21
25.033
  0
LINE
  8
0
 10
28.3925
 20
25.033
 11
28.7227
 21
25.2145
  0
LINE
  8
0
 10
28.7227
 20
25.2145
 11
29.0729
 21
25.3532
  0
LINE
  8
0
 10
29.0729
 20
25.3532
 11
29.4379
 21
25.4469
  0
LINE
  8
0
 10
29.4379
 20
25.4469
 11
29.8116
 21
25.4941
  0
LINE
  8
0
 10
29.8116
 20
25.4941
 11
30.1884
 21
25.4941
  0
LINE
  8
0
 10
30.1884
 20
25.4941
 11
30.5621
 21
25.4469
  0
LINE
  8
0
 10
30.5621
 20
25.4469
 11
30.927
 21
25.3532
  0
LINE
  8
0
 10
30.927
 20
25.3532
 11
31.2773
 21
25.2145
  0
LINE
  8
0
 10
31.2773
 20
25.2145
 11
31.6075
 21
25.033
  0
LINE
  8
0
 10
31.6075
 20
25.033
 11
31.9123
 21
24.8115
  0
LINE
  8
0
 10
31.9123
 20
24.8115
 11
32.1869
 21
24.5536
  0
LINE
  8
0
 10
32.1869
 20
24.5536
 11
32.427
 21
24.2634
  0
LINE
  8
0
 10
32.427
 20
24.2634
 11
32.6289
 21
23.9453
  0
LINE
  8
0
 10
32.6289
 20
23.9453
 11
32.7893
 21
23.6044
  0
LINE
  8
0
 10
32.7893
 20
23.6044
 11
32.9057
 21
23.2461
  0
LINE
  8
0
 10
32.9057
 20
23.2461
 11
32.9763
 21
22.876
  0
LINE
  8
0
 10
32.9763
 20
22.876
 11
33
 21
22.5
  0
LINE
  8
0
 10
33
 20
22.5
 11
32.9763
 21
22.124
  0
LINE
  8
0
 10
32.9763
 20
22.124
 11
32.9057
 21
21.7539
  0
LINE
  8
0
 10
32.9057
 20
21.7539
 11
32.7893
 21
21.3956
  0
LINE
  8
0
 10
32.7893
 20
21.3956
 11
32.6289
 21
21.0547
  0
LINE
  8
0
 10
32.6289
 20
21.0547
 11
32.427
 21
20.7366
  0
LINE
  8
0
 10
32.427
 20
20.7366
 11
32.1869
 21
20.4464
  0
LINE
  8
0
 10
32.1869
 20
20.4464
 11
31.9123
 21
20.1884
  0
LINE
  8
0
 10
31.9123
 20
20.1884
 11
31.6075
 21
19.967
  0
LINE
  8
0
 10
31.6075
 20
19.967
 11
31.2773
 21
19.7855
  0
LINE
  8
0
 10
31.2773
 20
19.7855
 11
30.927
 21
19.6468
  0
LINE
  8
0
 10
30.927
 20
19.6468
 11
30.5621
 21
19.5531
  0
LINE
  8
0
 10
30.5621
 20
19.5531
 11
30.1884
 21
19.5059
  0
LINE
  8
0
 10
30.1884
 20
19.5059
 11
29.8116
 21
19.5059
  0
LINE
  8
0
 10
-15.1884
 20
19.5059
 11
-15.5621
 21
19.5531
  0
LINE
  8
0
 10
-15.5621
 20
19.5531
 11
-15.927
 21
19.6468
  0
LINE
  8
0
 10
-15.927
 20
19.6468
 11
-16.2773
 21
19.7855
  0
LINE
  8
0
 10
-16.2773
 20
19.7855
 11
-16.6075
 21
19.967
  0
LINE
  8
0
 10
-16.6075
 20
19.967
 11
-16.9123
 21
20.1884
  0
LINE
  8
0
 10
-16.9123
 20
20.1884
 11
-17.1869
 21
20.4464
  0
LINE
  8
0
 10
-17.1869
 20
20.4464
 11
-17.427
 21
20.7366
  0
LINE
  8
0
 10
-17.427
 20
20.7366
 11
-17.6289
 21
21.0547
  0
LINE
  8
0
 10
-17.6289
 20
21.0547
 11
-17.7893
 21
21.3956
  0
LINE
  8
0
 10
-17.7893
 20
21.3956
 11
-17.9057
 21
21.7539
  0
LINE
  8
0
 10
-17.9057
 20
21.7539
 11
-17.9763
 21
22.124
  0
LINE
  8
0
 10
-17.9763
 20
22.124
 11
-18
 21
22.5
  0
LINE
  8
0
 10
-18
 20
22.5
 11
-17.9763
 21
22.876
  0
LINE
  8
0
 10
-17.9763
 20
22.876
 11
-17.9057
 21
23.2461
  0
LINE
  8
0
 10
-17.9057
 20
23.2461
 11
-17.7893
 21
23.6044
  0
LINE
  8
0
 10
-17.7893
 20
23.6044
 11
-17.6289
 21
23.9453
  0
LINE
  8
0
 10
-17.6289
 20
23.9453
 11
-17.427
 21
24.2634
  0
LINE
  8
0
 10
-17.427
 20
24.2634
 11
-17.1869
 21
24.5536
  0
LINE
  8
0
 10
-17.1869
 20
24.5536
 11
-16.9123
 21
24.8115
  0
LINE
  8
0
 10
-16.9123
 20
24.8115
 11
-16.6075
 21
25.033
  0
LINE
  8
0
 10
-16.6075
 20
25.033
 11
-16.2773
 21
25.2145
  0
LINE
  8
0
 10
-16.2773
 20
25.2145
 11
-15.927
 21
25.3532
  0
LINE
  8
0
 10
-15.927
 20
25.3532
 11
-15.5621
 21
25.4469
  0
LINE
  8
0
 10
-15.5621
 20
25.4469
 11
-15.1884
 21
25.4941
  0
LINE
  8
0
 10
-15.1884
 20
25.4941
 11
-14.8116
 21
25.4941
  0
LINE
  8
0
 10
-14.8116
 20
25.4941
 11
-14.4379
 21
25.4469
  0
LINE
  8
0
 10
-14.4379
 20
25.4469
 11
-14.0729
 21
25.3532
  0
LINE
  8
0
 10
-14.0729
 20
25.3532
 11
-13.7227
 21
25.2145
  0
LINE
  8
0
 10
-13.7227
 20
25.2145
 11
-13.3925
 21
25.033
  0
LINE
  8
0
 10
-13.3925
 20
25.033
 11
-13.0877
 21
24.8115
  0
LINE
  8
0
 10
-13.0877
 20
24.8115
 11
-12.8131
 21
24.5536
  0
LINE
  8
0
 10
-12.8131
 20
24.5536
 11
-12.5729
 21
24.2634
  0
LINE
  8
0
 10
-12.5729
 20
24.2634
 11
-12.3711
 21
23.9453
  0
LINE
  8
0
 10
-12.3711
 20
23.9453
 11
-12.2107
 21
23.6044
  0
LINE
  8
0
 10
-12.2107
 20
23.6044
 11
-12.0942
 21
23.2461
  0
LINE
  8
0
 10
-12.0942
 20
23.2461
 11
-12.0237
 21
22.876
  0
LINE
  8
0
 10
-12.0237
 20
22.876
 11
-12
 21
22.5
  0
LINE
  8
0
 10
-12
 20
22.5
 11
-12.0237
 21
22.124
  0
LINE
  8
0
 10
-12.0237
 20
22.124
 11
-12.0942
 21
21.7539
  0
LINE
  8
0
 10
-12.0942
 20
21.7539
 11
-12.2107
 21
21.3956
  0
LINE
  8
0
 10
-12.2107
 20
21.3956
 11
-12.3711
 21
21.0547
  0
LINE
  8
0
 10
-12.3711
 20
21.0547
 11
-12.5729
 21
20.7366
  0
LINE
  8
0
 10
-12.5729
 20
20.7366
 11
-12.8131
 21
20.4464
  0
LINE
  8
0
 10
-12.8131
 20
20.4464
 11
-13.0877
 21
20.1884
  0
LINE
  8
0
 10
-13.0877
 20
20.1884
 11
-13.3925
 21
19.967
  0
LINE
  8
0
 10
-13.3925
 20
19.967
 11
-13.7227
 21
19.7855
  0
LINE
  8
0
 10
-13.7227
 20
19.7855
 11
-14.0729
 21
19.6468
  0
LINE
  8
0
 10
-14.0729
 20
19.6468
 11
-14.4379
 21
19.5531
  0
LINE
  8
0
 10
-14.4379
 20
19.5531
 11
-14.8116
 21
19.5059
  0
LINE
  8
0
 10
-14.8116
 20
19.5059
 11
-15.1884
 21
19.5059
  0
LINE
  8
0
 10
14.8116
 20
19.5059
 11
14.4379
 21
19.5531
  0
LINE
  8
0
 10
14.4379
 20
19.5531
 11
14.0729
 21
19.6468
  0
LINE
  8
0
 10
14.0729
 20
19.6468
 11
13.7227
 21
19.7855
  0
LINE
  8
0
 10
13.7227
 20
19.7855
 11
13.3925
 21
19.967
  0
LINE
  8
0
 10
13.3925
 20
19.967
 11
13.0877
 21
20.1884
  0
LINE
  8
0
 10
13.0877
 20
20.1884
 11
12.8131
 21
20.4464
  0
LINE
  8
0
 10
12.8131
 20
20.4464
 11
12.5729
 21
20.7366
  0
LINE
  8
0
 10
12.5729
 20
20.7366
 11
12.3711
 21
21.0547
  0
LINE
  8
0
 10
12.3711
 20
21.0547
 11
12.2107
 21
21.3956
  0
LINE
  8
0
 10
12.2107
 20
21.3956
 11
12.0942
 21
21.7539
  0
LINE
  8
0
 10
12.0942
 20
21.7539
 11
12.0237
 21
22.124
  0
LINE
  8
0
 10
12.0237
 20
22.124
 11
12
 21
22.5
  0
LINE
  8
0
 10
12
 20
22.5
 11
12.0237
 21
22.876
  0
LINE
  8
0
 10
12.0237
 20
22.876
 11
12.0942
 21
23.2461
  0
LINE
  8
0
 10
12.0942
 20
23.2461
 11
12.2107
 21
23.6044
  0
LINE
  8
0
 10
12.2107
 20
23.6044
 11
12.3711
 21
23.9453
  0
LINE
  8
0
 10
12.3711
 20
23.9453
 11
12.5729
 21
24.2634
  0
LINE
  8
0
 10
12.5729
 20
24.2634
 11
12.8131
 21
24.5536
  0
LINE
  8
0
 10
12.8131
 20
24.5536
 11
13.0877
 21
24.8115
  0
LINE
  8
0
 10
13.0877
 20
24.8115
 11
13.3925
 21
25.033
  0
LINE
  8
0
 10
13.3925
 20
25.033
 11
13.7227
 21
25.2145
  0
LINE
  8
0
 10
13.7227
 20
25.2145
 11
14.0729
 21
25.3532
  0
LINE
  8
0
 10
14.0729
 20
25.3532
 11
14.4379
 21
25.4469
  0
LINE
  8
0
 10
14.4379
 20
25.4469
 11
14.8116
 21
25.4941
  0
LINE
  8
0
 10
14.8116
 20
25.4941
 11
15.1884
 21
25.4941
  0
LINE
  8
0
 10
15.1884
 20
25.4941
 11
15.5621
 21
25.4469
  0
LINE
  8
0
 10
15.5621
 20
25.4469
 11
15.927
 21
25.3532
  0
LINE
  8
0
 10
15.927
 20
25.3532
 11
16.2773
 21
25.2145
  0
LINE
  8
0
 10
16.2773
 20
25.2145
 11
16.6075
 21
25.033
  0
LINE
  8
0
 10
16.6075
 20
25.033
 11
16.9123
 21
24.8115
  0
LINE
  8
0
 10
16.9123
 20
24.8115
 11
17.1869
 21
24.5536
  0
LINE
  8
0
 10
17.1869
 20
24.5536
 11
17.427
 21
24.2634
  0
LINE
  8
0
 10
17.427
 20
24.2634
 11
17.6289
 21
23.9453
  0
LINE
  8
0
 10
17.6289
 20
23.9453
 11
17.7893
 21
23.6044
  0
LINE
  8
0
 10
17.7893
 20
23.6044
 11
17.9057
 21
23.2461
  0
LINE
  8
0
 10
17.9057
 20
23.2461
 11
17.9763
 21
22.876
  0
LINE
  8
0
 10
17.9763
 20
22.876
 11
18
 21
22.5
  0
LINE
  8
0
 10
18
 20
22.5
 11
17.9763
 21
22.124
  0
LINE
  8
0
 10
17.9763
 20
22.124
 11
17.9057
 21
21.7539
  0
LINE
  8
0
 10
17.9057
 20
21.7539
 11
17.7893
 21
21.3956
  0
LINE
  8
0
 10
17.7893
 20
21.3956
 11
17.6289
 21
21.0547
  0
LINE
  8
0
 10
17.6289
 20
21.0547
 11
17.427
 21
20.7366
  0
LINE
  8
0
 10
17.427
 20
20.7366
 11
17.1869
 21
20.4464
  0
LINE
  8
0
 10
17.1869
 20
20.4464
 11
16.9123
 21
20.1884
  0
LINE
  8
0
 10
16.9123
 20
20.1884
 11
16.6075
 21
19.967
  0
LINE
  8
0
 10
16.6075
 20
19.967
 11
16.2773
 21
19.7855
  0
LINE
  8
0
 10
16.2773
 20
19.7855
 11
15.927
 21
19.6468
  0
LINE
  8
0
 10
15.927
 20
19.6468
 11
15.5621
 21
19.5531
  0
LINE
  8
0
 10
15.5621
 20
19.5531
 11
15.1884
 21
19.5059
  0
LINE
  8
0
 10
15.1884
 20
19.5059
 11
14.8116
 21
19.5059
  0
LINE
  8
0
 10
-45.1884
 20
19.5059
 11
-45.5621
 21
19.5531
  0
LINE
  8
0
 10
-45.5621
 20
19.5531
 11
-45.927
 21
19.6468
  0
LINE
  8
0
 10
-45.927
 20
19.6468
 11
-46.2773
 21
19.7855
  0
LINE
  8
0
 10
-46.2773
 20
19.7855
 11
-46.6075
 21
19.967
  0
LINE
  8
0
 10
-46.6075
 20
19.967
 11
-46.9123
 21
20.1884
  0
LINE
  8
0
 10
-46.9123
 20
20.1884
 11
-47.1869
 21
20.4464
  0
LINE
  8
0
 10
-47.1869
 20
20.4464
 11
-47.427
 21
20.7366
  0
LINE
  8
0
 10
-47.427
 20
20.7366
 11
-47.6289
 21
21.0547
  0
LINE
  8
0
 10
-47.6289
 20
21.0547
 11
-47.7893
 21
21.3956
  0
LINE
  8
0
 10
-47.7893
 20
21.3956
 11
-47.9057
 21
21.7539
  0
LINE
  8
0
 10
-47.9057
 20
21.7539
 11
-47.9763
 21
22.124
  0
LINE
  8
0
 10
-47.9763
 20
22.124
 11
-48
 21
22.5
  0
LINE
  8
0
 10
-48
 20
22.5
 11
-47.9763
 21
22.876
  0
LINE
  8
0
 10
-47.9763
 20
22.876
 11
-47.9057
 21
23.2461
  0
LINE
  8
0
 10
-47.9057
 20
23.2461
 11
-47.7893
 21
23.6044
  0
LINE
  8
0
 10
-47.7893
 20
23.6044
 11
-47.6289
 21
23.9453
  0
LINE
  8
0
 10
-47.6289
 20
23.9453
 11
-47.427
 21
24.2634
  0
LINE
  8
0
 10
-47.427
 20
24.2634
 11
-47.1869
 21
24.5536
  0
LINE
  8
0
 10
-47.1869
 20
24.5536
 11
-46.9123
 21
24.8115
  0
LINE
  8
0
 10
-46.9123
 20
24.8115
 11
-46.6075
 21
25.033
  0
LINE
  8
0
 10
-46.6075
 20
25.033
 11
-46.2773
 21
25.2145
  0
LINE
  8
0
 10
-46.2773
 20
25.2145
 11
-45.927
 21
25.3532
  0
LINE
  8
0
 10
-45.927
 20
25.3532
 11
-45.5621
 21
25.4469
  0
LINE
  8
0
 10
-45.5621
 20
25.4469
 11
-45.1884
 21
25.4941
  0
LINE
  8
0
 10
-45.1884
 20
25.4941
 11
-44.8116
 21
25.4941
  0
LINE
  8
0
 10
-44.8116
 20
25.4941
 11
-44.4379
 21
25.4469
  0
LINE
  8
0
 10
-44.4379
 20
25.4469
 11
-44.0729
 21
25.3532
  0
LINE
  8
0
 10
-44.0729
 20
25.3532
 11
-43.7227
 21
25.2145
  0
LINE
  8
0
 10
-43.7227
 20
25.2145
 11
-43.3925
 21
25.033
  0
LINE
  8
0
 10
-43.3925
 20
25.033
 11
-43.0877
 21
24.8115
  0
LINE
  8
0
 10
-43.0877
 20
24.8115
 11
-42.8131
 21
24.5536
  0
LINE
  8
0
 10
-42.8131
 20
24.5536
 11
-42.5729
 21
24.2634
  0
LINE
  8
0
 10
-42.5729
 20
24.2634
 11
-42.3711
 21
23.9453
  0
LINE
  8
0
 10
-42.3711
 20
23.9453
 11
-42.2107
 21
23.6044
  0
LINE
  8
0
 10
-42.2107
 20
23.6044
 11
-42.0942
 21
23.2461
  0
LINE
  8
0
 10
-42.0942
 20
23.2461
 11
-42.0237
 21
22.876
  0
LINE
  8
0
 10
-42.0237
 20
22.876
 11
-42
 21
22.5
  0
LINE
  8
0
 10
-42
 20
22.5
 11
-42.0237
 21
22.124
  0
LINE
  8
0
 10
-42.0237
 20
22.124
 11
-42.0942
 21
21.7539
  0
LINE
  8
0
 10
-42.0942
 20
21.7539
 11
-42.2107
 21
21.3956
  0
LINE
  8
0
 10
-42.2107
 20
21.3956
 11
-42.3711
 21
21.0547
  0
LINE
  8
0
 10
-42.3711
 20
21.0547
 11
-42.5729
 21
20.7366
  0
LINE
  8
0
 10
-42.5729
 20
20.7366
 11
-42.8131
 21
20.4464
  0
LINE
  8
0
 10
-42.8131
 20
20.4464
 11
-43.0877
 21
20.1884
  0
LINE
  8
0
 10
-43.0877
 20
20.1884
 11
-43.3925
 21
19.967
  0
LINE
  8
0
 10
-43.3925
 20
19.967
 11
-43.7227
 21
19.7855
  0
LINE
  8
0
 10
-43.7227
 20
19.7855
 11
-44.0729
 21
19.6468
  0
LINE
  8
0
 10
-44.0729
 20
19.6468
 11
-44.4379
 21
19.5531
  0
LINE
  8
0
 10
-44.4379
 20
19.5531
 11
-44.8116
 21
19.5059
  0
LINE
  8
0
 10
-44.8116
 20
19.5059
 11
-45.1884
 21
19.5059
  0
LINE
  8
0
 10
44.8116
 20
19.5059
 11
44.4379
 21
19.5531
  0
LINE
  8
0
 10
44.4379
 20
19.5531
 11
44.0729
 21
19.6468
  0
LINE
  8
0
 10
44.0729
 20
19.6468
 11
43.7227
 21
19.7855
  0
LINE
  8
0
 10
43.7227
 20
19.7855
 11
43.3925
 21
19.967
  0
LINE
  8
0
 10
43.3925
 20
19.967
 11
43.0877
 21
20.1884
  0
LINE
  8
0
 10
43.0877
 20
20.1884
 11
42.8131
 21
20.4464
  0
LINE
  8
0
 10
42.8131
 20
20.4464
 11
42.5729
 21
20.7366
  0
LINE
  8
0
 10
42.5729
 20
20.7366
 11
42.3711
 21
21.0547
  0
LINE
  8
0
 10
42.3711
 20
21.0547
 11
42.2107
 21
21.3956
  0
LINE
  8
0
 10
42.2107
 20
21.3956
 11
42.0942
 21
21.7539
  0
LINE
  8
0
 10
42.0942
 20
21.7539
 11
42.0237
 21
22.124
  0
LINE
  8
0
 10
42.0237
 20
22.124
 11
42
 21
22.5
  0
LINE
  8
0
 10
42
 20
22.5
 11
42.0237
 21
22.876
  0
LINE
  8
0
 10
42.0237
 20
22.876
 11
42.0942
 21
23.2461
  0
LINE
  8
0
 10
42.0942
 20
23.2461
 11
42.2107
 21
23.6044
  0
LINE
  8
0
 10
42.2107
 20
23.6044
 11
42.3711
 21
23.9453
  0
LINE
  8
0
 10
42.3711
 20
23.9453
 11
42.5729
 21
24.2634
  0
LINE
  8
0
 10
42.5729
 20
24.2634
 11
42.8131
 21
24.5536
  0
LINE
  8
0
 10
42.8131
 20
24.5536
 11
43.0877
 21
24.8115
  0
LINE
  8
0
 10
43.0877
 20
24.8115
 11
43.3925
 21
25.033
  0
LINE
  8
0
 10
43.3925
 20
25.033
 11
43.7227
 21
25.2145
  0
LINE
  8
0
 10
43.7227
 20
25.2145
 11
44.0729
 21
25.3532
  0
LINE
  8
0
 10
44.0729
 20
25.3532
 11
44.4379
 21
25.4469
  0
LINE
  8
0
 10
44.4379
 20
25.4469
 11
44.8116
 21
25.4941
  0
LINE
  8
0
 10
44.8116
 20
25.4941
 11
45.1884
 21
25.4941
  0
LINE
  8
0
 10
45.1884
 20
25.4941
 11
45.5621
 21
25.4469
  0
LINE
  8
0
 10
45.5621
 20
25.4469
 11
45.927
 21
25.3532
  0
LINE
  8
0
 10
45.927
 20
25.3532
 11
46.2773
 21
25.2145
  0
LINE
  8
0
 10
46.2773
 20
25.2145
 11
46.6075
 21
25.033
  0
LINE
  8
0
 10
46.6075
 20
25.033
 11
46.9123
 21
24.8115
  0
LINE
  8
0
 10
46.9123
 20
24.8115
 11
47.1869
 21
24.5536
  0
LINE
  8
0
 10
47.1869
 20
24.5536
 11
47.427
 21
24.2634
  0
LINE
  8
0
 10
47.427
 20
24.2634
 11
47.6289
 21
23.9453
  0
LINE
  8
0
 10
47.6289
 20
23.9453
 11
47.7893
 21
23.6044
  0
LINE
  8
0
 10
47.7893
 20
23.6044
 11
47.9057
 21
23.2461
  0
LINE
  8
0
 10
47.9057
 20
23.2461
 11
47.9763
 21
22.876
  0
LINE
  8
0
 10
47.9763
 20
22.876
 11
48
 21
22.5
  0
LINE
  8
0
 10
48
 20
22.5
 11
47.9763
 21
22.124
  0
LINE
  8
0
 10
47.9763
 20
22.124
 11
47.9057
 21
21.7539
  0
LINE
  8
0
 10
47.9057
 20
21.7539
 11
47.7893
 21
21.3956
  0
LINE
  8
0
 10
47.7893
 20
21.3956
 11
47.6289
 21
21.0547
  0
LINE
  8
0
 10
47.6289
 20
21.0547
 11
47.427
 21
20.7366
  0
LINE
  8
0
 10
47.427
 20
20.7366
 11
47.1869
 21
20.4464
  0
LINE
  8
0
 10
47.1869
 20
20.4464
 11
46.9123
 21
20.1884
  0
LINE
  8
0
 10
46.9123
 20
20.1884
 11
46.6075
 21
19.967
  0
LINE
  8
0
 10
46.6075
 20
19.967
 11
46.2773
 21
19.7855
  0
LINE
  8
0
 10
46.2773
 20
19.7855
 11
45.927
 21
19.6468
  0
LINE
  8
0
 10
45.927
 20
19.6468
 11
45.5621
 21
19.5531
  0
LINE
  8
0
 10
45.5621
 20
19.5531
 11
45.1884
 21
19.5059
  0
LINE
  8
0
 10
45.1884
 20
19.5059
 11
44.8116
 21
19.5059
  0
LINE
  8
0
 10
-32.9057
 20
23.2461
 11
-32.7893
 21
23.6044
  0
LINE
  8
0
 10
-32.7893
 20
23.6044
 11
-32.6289
 21
23.9453
  0
LINE
  8
0
 10
-32.6289
 20
23.9453
 11
-32.427
 21
24.2634
  0
LINE
  8
0
 10
-32.427
 20
24.2634
 11
-32.1869
 21
24.5536
  0
LINE
  8
0
 10
-32.1869
 20
24.5536
 11
-31.9123
 21
24.8115
  0
LINE
  8
0
 10
-31.9123
 20
24.8115
 11
-31.6075
 21
25.033
  0
LINE
  8
0
 10
-31.6075
 20
25.033
 11
-31.2773
 21
25.2145
  0
LINE
  8
0
 10
-31.2773
 20
25.2145
 11
-30.927
 21
25.3532
  0
LINE
  8
0
 10
-30.927
 20
25.3532
 11
-30.5621
 21
25.4469
  0
LINE
  8
0
 10
-30.5621
 20
25.4469
 11
-30.1884
 21
25.4941
  0
LINE
  8
0
 10
-30.1884
 20
25.4941
 11
-29.8116
 21
25.4941
  0
LINE
  8
0
 10
-29.8116
 20
25.4941
 11
-29.4379
 21
25.4469
  0
LINE
  8
0
 10
-29.4379
 20
25.4469
 11
-29.0729
 21
25.3532
  0
LINE
  8
0
 10
-29.0729
 20
25.3532
 11
-28.7227
 21
25.2145
  0
LINE
  8
0
 10
-28.7227
 20
25.2145
 11
-28.3925
 21
25.033
  0
LINE
  8
0
 10
-28.3925
 20
25.033
 11
-28.0877
 21
24.8115
  0
LINE
  8
0
 10
-28.0877
 20
24.8115
 11
-27.8131
 21
24.5536
  0
LINE
  8
0
 10
-27.8131
 20
24.5536
 11
-27.5729
 21
24.2634
  0
LINE
  8
0
 10
-27.5729
 20
24.2634
 11
-27.3711
 21
23.9453
  0
LINE
  8
0
 10
-27.3711
 20
23.9453
 11
-27.2107
 21
23.6044
  0
LINE
  8
0
 10
-27.2107
 20
23.6044
 11
-27.0942
 21
23.2461
  0
LINE
  8
0
 10
-27.0942
 20
23.2461
 11
-27.0237
 21
22.876
  0
LINE
  8
0
 10
-27.0237
 20
22.876
 11
-27
 21
22.5
  0
LINE
  8
0
 10
-27
 20
22.5
 11
-27.0237
 21
22.124
  0
LINE
  8
0
 10
-27.0237
 20
22.124
 11
-27.0942
 21
21.7539
  0
LINE
  8
0
 10
-27.0942
 20
21.7539
 11
-27.2107
 21
21.3956
  0
LINE
  8
0
 10
-27.2107
 20
21.3956
 11
-27.3711
 21
21.0547
  0
LINE
  8
0
 10
-27.3711
 20
21.0547
 11
-27.5729
 21
20.7366
  0
LINE
  8
0
 10
-27.5729
 20
20.7366
 11
-27.8131
 21
20.4464
  0
LINE
  8
0
 10
-27.8131
 20
20.4464
 11
-28.0877
 21
20.1884
  0
LINE
  8
0
 10
-28.0877
 20
20.1884
 11
-28.3925
 21
19.967
  0
LINE
  8
0
 10
-28.3925
 20
19.967
 11
-28.7227
 21
19.7855
  0
LINE
  8
0
 10
-28.7227
 20
19.7855
 11
-29.0729
 21
19.6468
  0
LINE
  8
0
 10
-29.0729
 20
19.6468
 11
-29.4379
 21
19.5531
  0
LINE
  8
0
 10
-29.4379
 20
19.5531
 11
-29.8116
 21
19.5059
  0
LINE
  8
0
 10
-29.8116
 20
19.5059
 11
-30.1884
 21
19.5059
  0
LINE
  8
0
 10
-30.1884
 20
19.5059
 11
-30.5621
 21
19.5531
  0
LINE
  8
0
 10
-30.5621
 20
19.5531
 11
-30.927
 21
19.6468
  0
LINE
  8
0
 10
-30.927
 20
19.6468
 11
-31.2773
 21
19.7855
  0
LINE
  8
0
 10
-31.2773
 20
19.7855
 11
-31.6075
 21
19.967
  0
LINE
  8
0
 10
-31.6075
 20
19.967
 11
-31.9123
 21
20.1884
  0
LINE
  8
0
 10
-31.9123
 20
20.1884
 11
-32.1869
 21
20.4464
  0
LINE
  8
0
 10
-32.1869
 20
20.4464
 11
-32.427
 21
20.7366
  0
LINE
  8
0
 10
-32.427
 20
20.7366
 11
-32.6289
 21
21.0547
  0
LINE
  8
0
 10
-32.6289
 20
21.0547
 11
-32.7893
 21
21.3956
  0
LINE
  8
0
 10
-32.7893
 20
21.3956
 11
-32.9057
 21
21.7539
  0
LINE
  8
0
 10
-32.9057
 20
21.7539
 11
-32.9763
 21
22.124
  0
LINE
  8
0
 10
-32.9763
 20
22.124
 11
-33
 21
22.5
  0
LINE
  8
0
 10
-33
 20
22.5
 11
-32.9763
 21
22.876
  0
LINE
  8
0
 10
-32.9763
 20
22.876
 11
-32.9057
 21
23.2461
  0
LINE
  8
0
 10
-0.18837
 20
19.5059
 11
-0.562134
 21
19.5531
  0
LINE
  8
0
 10
-0.562134
 20
19.5531
 11
-0.927048
 21
19.6468
  0
LINE
  8
0
 10
-0.927048
 20
19.6468
 11
-1.27733
 21
19.7855
  0
LINE
  8
0
 10
-1.27733
 20
19.7855
 11
-1.60747
 21
19.967
  0
LINE
  8
0
 10
-1.60747
 20
19.967
 11
-1.91226
 21
20.1884
  0
LINE
  8
0
 10
-1.91226
 20
20.1884
 11
-2.1869
 21
20.4464
  0
LINE
  8
0
 10
-2.1869
 20
20.4464
 11
-2.42705
 21
20.7366
  0
LINE
  8
0
 10
-2.42705
 20
20.7366
 11
-2.62891
 21
21.0547
  0
LINE
  8
0
 10
-2.62891
 20
21.0547
 11
-2.78932
 21
21.3956
  0
LINE
  8
0
 10
-2.78932
 20
21.3956
 11
-2.90575
 21
21.7539
  0
LINE
  8
0
 10
-2.90575
 20
21.7539
 11
-2.97633
 21
22.124
  0
LINE
  8
0
 10
-2.97633
 20
22.124
 11
-3
 21
22.5
  0
LINE
  8
0
 10
-3
 20
22.5
 11
-2.97633
 21
22.876
  0
LINE
  8
0
 10
-2.97633
 20
22.876
 11
-2.90575
 21
23.2461
  0
LINE
  8
0
 10
-2.90575
 20
23.2461
 11
-2.78932
 21
23.6044
  0
LINE
  8
0
 10
-2.78932
 20
23.6044
 11
-2.62891
 21
23.9453
  0
LINE
  8
0
 10
-2.62891
 20
23.9453
 11
-2.42705
 21
24.2634
  0
LINE
  8
0
 10
-2.42705
 20
24.2634
 11
-2.1869
 21
24.5536
  0
LINE
  8
0
 10
-2.1869
 20
24.5536
 11
-1.91226
 21
24.8115
  0
LINE
  8
0
 10
-1.91226
 20
24.8115
 11
-1.60747
 21
25.033
  0
LINE
  8
0
 10
-1.60747
 20
25.033
 11
-1.27733
 21
25.2145
  0
LINE
  8
0
 10
-1.27733
 20
25.2145
 11
-0.927048
 21
25.3532
  0
LINE
  8
0
 10
-0.927048
 20
25.3532
 11
-0.562134
 21
25.4469
  0
LINE
  8
0
 10
-0.562134
 20
25.4469
 11
-0.18837
 21
25.4941
  0
LINE
  8
0
 10
-0.18837
 20
25.4941
 11
0.18837
 21
25.4941
  0
LINE
  8
0
 10
0.18837
 20
25.4941
 11
0.562134
 21
25.4469
  0
LINE
  8
0
 10
0.562134
 20
25.4469
 11
0.927048
 21
25.3532
  0
LINE
  8
0
 10
0.927048
 20
25.3532
 11
1.27733
 21
25.2145
  0
LINE
  8
0
 10
1.27733
 20
25.2145
 11
1.60747
 21
25.033
  0
LINE
  8
0
 10
1.60747
 20
25.033
 11
1.91226
 21
24.8115
  0
LINE
  8
0
 10
1.91226
 20
24.8115
 11
2.1869
 21
24.5536
  0
LINE
  8
0
 10
2.1869
 20
24.5536
 11
2.42705
 21
24.2634
  0
LINE
  8
0
 10
2.42705
 20
24.2634
 11
2.62891
 21
23.9453
  0
LINE
  8
0
 10
2.62891
 20
23.9453
 11
2.78932
 21
23.6044
  0
LINE
  8
0
 10
2.78932
 20
23.6044
 11
2.90575
 21
23.2461
  0
LINE
  8
0
 10
2.90575
 20
23.2461
 11
2.97633
 21
22.876
  0
LINE
  8
0
 10
2.97633
 20
22.876
 11
3
 21
22.5
  0
LINE
  8
0
 10
3
 20
22.5
 11
2.97633
 21
22.124
  0
LINE
  8
0
 10
2.97633
 20
22.124
 11
2.90575
 21
21.7539
  0
LINE
  8
0
 10
2.90575
 20
21.7539
 11
2.78932
 21
21.3956
  0
LINE
  8
0
 10
2.78932
 20
21.3956
 11
2.62891
 21
21.0547
  0
LINE
  8
0
 10
2.62891
 20
21.0547
 11
2.42705
 21
20.7366
  0
LINE
  8
0
 10
2.42705
 20
20.7366
 11
2.1869
 21
20.4464
  0
LINE
  8
0
 10
2.1869
 20
20.4464
 11
1.91226
 21
20.1884
  0
LINE
  8
0
 10
1.91226
 20
20.1884
 11
1.60747
 21
19.967
  0
LINE
  8
0
 10
1.60747
 20
19.967
 11
1.27733
 21
19.7855
  0
LINE
  8
0
 10
1.27733
 20
19.7855
 11
0.927048
 21
19.6468
  0
LINE
  8
0
 10
0.927048
 20
19.6468
 11
0.562134
 21
19.5531
  0
LINE
  8
0
 10
0.562134
 20
19.5531
 11
0.18837
 21
19.5059
  0
LINE
  8
0
 10
0.18837
 20
19.5059
 11
-0.18837
 21
19.5059
  0
LINE
  8
0
 10
-7.59418
 20
21.003
 11
-7.78107
 21
21.0266
  0
LINE
  8
0
 10
-7.78107
 20
21.0266
 11
-7.96352
 21
21.0734
  0
LINE
  8
0
 10
-7.96352
 20
21.0734
 11
-8.13866
 21
21.1427
  0
LINE
  8
0
 10
-8.13866
 20
21.1427
 11
-8.30373
 21
21.2335
  0
LINE
  8
0
 10
-8.30373
 20
21.2335
 11
-8.45613
 21
21.3442
  0
LINE
  8
0
 10
-8.45613
 20
21.3442
 11
-8.59344
 21
21.4732
  0
LINE
  8
0
 10
-8.59344
 20
21.4732
 11
-8.71352
 21
21.6183
  0
LINE
  8
0
 10
-8.71352
 20
21.6183
 11
-8.81445
 21
21.7774
  0
LINE
  8
0
 10
-8.81445
 20
21.7774
 11
-8.89465
 21
21.9478
  0
LINE
  8
0
 10
-8.89465
 20
21.9478
 11
-8.95287
 21
22.127
  0
LINE
  8
0
 10
-8.95287
 20
22.127
 11
-8.98816
 21
22.312
  0
LINE
  8
0
 10
-8.98816
 20
22.312
 11
-9
 21
22.5
  0
LINE
  8
0
 10
-9
 20
22.5
 11
-8.98816
 21
22.688
  0
LINE
  8
0
 10
-8.98816
 20
22.688
 11
-8.95287
 21
22.873
  0
LINE
  8
0
 10
-8.95287
 20
22.873
 11
-8.89465
 21
23.0522
  0
LINE
  8
0
 10
-8.89465
 20
23.0522
 11
-8.81445
 21
23.2226
  0
LINE
  8
0
 10
-8.81445
 20
23.2226
 11
-8.71352
 21
23.3817
  0
LINE
  8
0
 10
-8.71352
 20
23.3817
 11
-8.59344
 21
23.5268
  0
LINE
  8
0
 10
-8.59344
 20
23.5268
 11
-8.45613
 21
23.6558
  0
LINE
  8
0
 10
-8.45613
 20
23.6558
 11
-8.30373
 21
23.7665
  0
LINE
  8
0
 10
-8.30373
 20
23.7665
 11
-8.13866
 21
23.8572
  0
LINE
  8
0
 10
-8.13866
 20
23.8572
 11
-7.96352
 21
23.9266
  0
LINE
  8
0
 10
-7.96352
 20
23.9266
 11
-7.78107
 21
23.9734
  0
LINE
  8
0
 10
-7.78107
 20
23.9734
 11
-7.59418
 21
23.997
  0
LINE
  8
0
 10
-7.59418
 20
23.997
 11
-7.40581
 21
23.997
  0
LINE
  8
0
 10
-7.40581
 20
23.997
 11
-7.21892
 21
23.9734
  0
LINE
  8
0
 10
-7.21892
 20
23.9734
 11
-7.03647
 21
23.9266
  0
LINE
  8
0
 10
-7.03647
 20
23.9266
 11
-6.86133
 21
23.8572
  0
LINE
  8
0
 10
-6.86133
 20
23.8572
 11
-6.69626
 21
23.7665
  0
LINE
  8
0
 10
-6.69626
 20
23.7665
 11
-6.54385
 21
23.6558
  0
LINE
  8
0
 10
-6.54385
 20
23.6558
 11
-6.40654
 21
23.5268
  0
LINE
  8
0
 10
-6.40654
 20
23.5268
 11
-6.28647
 21
23.3817
  0
LINE
  8
0
 10
-6.28647
 20
23.3817
 11
-6.18553
 21
23.2226
  0
LINE
  8
0
 10
-6.18553
 20
23.2226
 11
-6.10533
 21
23.0522
  0
LINE
  8
0
 10
-6.10533
 20
23.0522
 11
-6.04712
 21
22.873
  0
LINE
  8
0
 10
-6.04712
 20
22.873
 11
-6.01183
 21
22.688
  0
LINE
  8
0
 10
-6.01183
 20
22.688
 11
-6
 21
22.5
  0
LINE
  8
0
 10
-6
 20
22.5
 11
-6.01183
 21
22.312
  0
LINE
  8
0
 10
-6.01183
 20
22.312
 11
-6.04712
 21
22.127
  0
LINE
  8
0
 10
-6.04712
 20
22.127
 11
-6.10533
 21
21.9478
  0
LINE
  8
0
 10
-6.10533
 20
21.9478
 11
-6.18553
 21
21.7774
  0
LINE
  8
0
 10
-6.18553
 20
21.7774
 11
-6.28647
 21
21.6183
  0
LINE
  8
0
 10
-6.28647
 20
21.6183
 11
-6.40654
 21
21.4732
  0
LINE
  8
0
 10
-6.40654
 20
21.4732
 11
-6.54385
 21
21.3442
  0
LINE
  8
0
 10
-6.54385
 20
21.3442
 11
-6.69626
 21
21.2335
  0
LINE
  8
0
 10
-6.69626
 20
21.2335
 11
-6.86133
 21
21.1427
  0
LINE
  8
0
 10
-6.86133
 20
21.1427
 11
-7.03647
 21
21.0734
  0
LINE
  8
0
 10
-7.03647
 20
21.0734
 11
-7.21892
 21
21.0266
  0
LINE
  8
0
 10
-7.21892
 20
21.0266
 11
-7.40581
 21
21.003
  0
LINE
  8
0
 10
-7.40581
 20
21.003
 11
-7.59418
 21
21.003
  0
LINE
  8
0
 10
-22.5942
 20
21.003
 11
-22.7811
 21
21.0266
  0
LINE
  8
0
 10
-22.7811
 20
21.0266
 11
-22.9635
 21
21.0734
  0
LINE
  8
0
 10
-22.9635
 20
21.0734
 11
-23.1387
 21
21.1427
  0
LINE
  8
0
 10
-23.1387
 20
21.1427
 11
-23.3037
 21
21.2335
  0
LINE
  8
0
 10
-23.3037
 20
21.2335
 11
-23.4561
 21
21.3442
  0
LINE
  8
0
 10
-23.4561
 20
21.3442
 11
-23.5934
 21
21.4732
  0
LINE
  8
0
 10
-23.5934
 20
21.4732
 11
-23.7135
 21
21.6183
  0
LINE
  8
0
 10
-23.7135
 20
21.6183
 11
-23.8145
 21
21.7774
  0
LINE
  8
0
 10
-23.8145
 20
21.7774
 11
-23.8947
 21
21.9478
  0
LINE
  8
0
 10
-23.8947
 20
21.9478
 11
-23.9529
 21
22.127
  0
LINE
  8
0
 10
-23.9529
 20
22.127
 11
-23.9882
 21
22.312
  0
LINE
  8
0
 10
-23.9882
 20
22.312
 11
-24
 21
22.5
  0
LINE
  8
0
 10
-24
 20
22.5
 11
-23.9882
 21
22.688
  0
LINE
  8
0
 10
-23.9882
 20
22.688
 11
-23.9529
 21
22.873
  0
LINE
  8
0
 10
-23.9529
 20
22.873
 11
-23.8947
 21
23.0522
  0
LINE
  8
0
 10
-23.8947
 20
23.0522
 11
-23.8145
 21
23.2226
  0
LINE
  8
0
 10
-23.8145
 20
23.2226
 11
-23.7135
 21
23.3817
  0
LINE
  8
0
 10
-23.7135
 20
23.3817
 11
-23.5934
 21
23.5268
  0
LINE
  8
0
 10
-23.5934
 20
23.5268
 11
-23.4561
 21
23.6558
  0
LINE
  8
0
 10
-23.4561
 20
23.6558
 11
-23.3037
 21
23.7665
  0
LINE
  8
0
 10
-23.3037
 20
23.7665
 11
-23.1387
 21
23.8572
  0
LINE
  8
0
 10
-23.1387
 20
23.8572
 11
-22.9635
 21
23.9266
  0
LINE
  8
0
 10
-22.9635
 20
23.9266
 11
-22.7811
 21
23.9734
  0
LINE
  8
0
 10
-22.7811
 20
23.9734
 11
-22.5942
 21
23.997
  0
LINE
  8
0
 10
-22.5942
 20
23.997
 11
-22.4058
 21
23.997
  0
LINE
  8
0
 10
-22.4058
 20
23.997
 11
-22.2189
 21
23.9734
  0
LINE
  8
0
 10
-22.2189
 20
23.9734
 11
-22.0365
 21
23.9266
  0
LINE
  8
0
 10
-22.0365
 20
23.9266
 11
-21.8613
 21
23.8572
  0
LINE
  8
0
 10
-21.8613
 20
23.8572
 11
-21.6963
 21
23.7665
  0
LINE
  8
0
 10
-21.6963
 20
23.7665
 11
-21.5439
 21
23.6558
  0
LINE
  8
0
 10
-21.5439
 20
23.6558
 11
-21.4065
 21
23.5268
  0
LINE
  8
0
 10
-21.4065
 20
23.5268
 11
-21.2865
 21
23.3817
  0
LINE
  8
0
 10
-21.2865
 20
23.3817
 11
-21.1855
 21
23.2226
  0
LINE
  8
0
 10
-21.1855
 20
23.2226
 11
-21.1053
 21
23.0522
  0
LINE
  8
0
 10
-21.1053
 20
23.0522
 11
-21.0471
 21
22.873
  0
LINE
  8
0
 10
-21.0471
 20
22.873
 11
-21.0118
 21
22.688
  0
LINE
  8
0
 10
-21.0118
 20
22.688
 11
-21
 21
22.5
  0
LINE
  8
0
 10
-21
 20
22.5
 11
-21.0118
 21
22.312
  0
LINE
  8
0
 10
-21.0118
 20
22.312
 11
-21.0471
 21
22.127
  0
LINE
  8
0
 10
-21.0471
 20
22.127
 11
-21.1053
 21
21.9478
  0
LINE
  8
0
 10
-21.1053
 20
21.9478
 11
-21.1855
 21
21.7774
  0
LINE
  8
0
 10
-21.1855
 20
21.7774
 11
-21.2865
 21
21.6183
  0
LINE
  8
0
 10
-21.2865
 20
21.6183
 11
-21.4065
 21
21.4732
  0
LINE
  8
0
 10
-21.4065
 20
21.4732
 11
-21.5439
 21
21.3442
  0
LINE
  8
0
 10
-21.5439
 20
21.3442
 11
-21.6963
 21
21.2335
  0
LINE
  8
0
 10
-21.6963
 20
21.2335
 11
-21.8613
 21
21.1427
  0
LINE
  8
0
 10
-21.8613
 20
21.1427
 11
-22.0365
 21
21.0734
  0
LINE
  8
0
 10
-22.0365
 20
21.0734
 11
-22.2189
 21
21.0266
  0
LINE
  8
0
 10
-22.2189
 20
21.0266
 11
-22.4058
 21
21.003
  0
LINE
  8
0
 10
-22.4058
 20
21.003
 11
-22.5942
 21
21.003
  0
LINE
  8
0
 10
37.4058
 20
21.003
 11
37.2189
 21
21.0266
  0
LINE
  8
0
 10
37.2189
 20
21.0266
 11
37.0365
 21
21.0734
  0
LINE
  8
0
 10
37.0365
 20
21.0734
 11
36.8613
 21
21.1427
  0
LINE
  8
0
 10
36.8613
 20
21.1427
 11
36.6963
 21
21.2335
  0
LINE
  8
0
 10
36.6963
 20
21.2335
 11
36.5439
 21
21.3442
  0
LINE
  8
0
 10
36.5439
 20
21.3442
 11
36.4065
 21
21.4732
  0
LINE
  8
0
 10
36.4065
 20
21.4732
 11
36.2865
 21
21.6183
  0
LINE
  8
0
 10
36.2865
 20
21.6183
 11
36.1855
 21
21.7774
  0
LINE
  8
0
 10
36.1855
 20
21.7774
 11
36.1053
 21
21.9478
  0
LINE
  8
0
 10
36.1053
 20
21.9478
 11
36.0471
 21
22.127
  0
LINE
  8
0
 10
36.0471
 20
22.127
 11
36.0118
 21
22.312
  0
LINE
  8
0
 10
36.0118
 20
22.312
 11
36
 21
22.5
  0
LINE
  8
0
 10
36
 20
22.5
 11
36.0118
 21
22.688
  0
LINE
  8
0
 10
36.0118
 20
22.688
 11
36.0471
 21
22.873
  0
LINE
  8
0
 10
36.0471
 20
22.873
 11
36.1053
 21
23.0522
  0
LINE
  8
0
 10
36.1053
 20
23.0522
 11
36.1855
 21
23.2226
  0
LINE
  8
0
 10
36.1855
 20
23.2226
 11
36.2865
 21
23.3817
  0
LINE
  8
0
 10
36.2865
 20
23.3817
 11
36.4065
 21
23.5268
  0
LINE
  8
0
 10
36.4065
 20
23.5268
 11
36.5439
 21
23.6558
  0
LINE
  8
0
 10
36.5439
 20
23.6558
 11
36.6963
 21
23.7665
  0
LINE
  8
0
 10
36.6963
 20
23.7665
 11
36.8613
 21
23.8572
  0
LINE
  8
0
 10
36.8613
 20
23.8572
 11
37.0365
 21
23.9266
  0
LINE
  8
0
 10
37.0365
 20
23.9266
 11
37.2189
 21
23.9734
  0
LINE
  8
0
 10
37.2189
 20
23.9734
 11
37.4058
 21
23.997
  0
LINE
  8
0
 10
37.4058
 20
23.997
 11
37.5942
 21
23.997
  0
LINE
  8
0
 10
37.5942
 20
23.997
 11
37.7811
 21
23.9734
  0
LINE
  8
0
 10
37.7811
 20
23.9734
 11
37.9635
 21
23.9266
  0
LINE
  8
0
 10
37.9635
 20
23.9266
 11
38.1387
 21
23.8572
  0
LINE
  8
0
 10
38.1387
 20
23.8572
 11
38.3037
 21
23.7665
  0
LINE
  8
0
 10
38.3037
 20
23.7665
 11
38.4561
 21
23.6558
  0
LINE
  8
0
 10
38.4561
 20
23.6558
 11
38.5934
 21
23.5268
  0
LINE
  8
0
 10
38.5934
 20
23.5268
 11
38.7135
 21
23.3817
  0
LINE
  8
0
 10
38.7135
 20
23.3817
 11
38.8145
 21
23.2226
  0
LINE
  8
0
 10
38.8145
 20
23.2226
 11
38.8947
 21
23.0522
  0
LINE
  8
0
 10
38.8947
 20
23.0522
 11
38.9529
 21
22.873
  0
LINE
  8
0
 10
38.9529
 20
22.873
 11
38.9882
 21
22.688
  0
LINE
  8
0
 10
38.9882
 20
22.688
 11
39
 21
22.5
  0
LINE
  8
0
 10
39
 20
22.5
 11
38.9882
 21
22.312
  0
LINE
  8
0
 10
38.9882
 20
22.312
 11
38.9529
 21
22.127
  0
LINE
  8
0
 10
38.9529
 20
22.127
 11
38.8947
 21
21.9478
  0
LINE
  8
0
 10
38.8947
 20
21.9478
 11
38.8145
 21
21.7774
  0
LINE
  8
0
 10
38.8145
 20
21.7774
 11
38.7135
 21
21.6183
  0
LINE
  8
0
 10
38.7135
 20
21.6183
 11
38.5934
 21
21.4732
  0
LINE
  8
0
 10
38.5934
 20
21.4732
 11
38.4561
 21
21.3442
  0
LINE
  8
0
 10
38.4561
 20
21.3442
 11
38.3037
 21
21.2335
  0
LINE
  8
0
 10
38.3037
 20
21.2335
 11
38.1387
 21
21.1427
  0
LINE
  8
0
 10
38.1387
 20
21.1427
 11
37.9635
 21
21.0734
  0
LINE
  8
0
 10
37.9635
 20
21.0734
 11
37.7811
 21
21.0266
  0
LINE
  8
0
 10
37.7811
 20
21.0266
 11
37.5942
 21
21.003
  0
LINE
  8
0
 10
37.5942
 20
21.003
 11
37.4058
 21
21.003
  0
LINE
  8
0
 10
22.4058
 20
21.003
 11
22.2189
 21
21.0266
  0
LINE
  8
0
 10
22.2189
 20
21.0266
 11
22.0365
 21
21.0734
  0
LINE
  8
0
 10
22.0365
 20
21.0734
 11
21.8613
 21
21.1427
  0
LINE
  8
0
 10
21.8613
 20
21.1427
 11
21.6963
 21
21.2335
  0
LINE
  8
0
 10
21.6963
 20
21.2335
 11
21.5439
 21
21.3442
  0
LINE
  8
0
 10
21.5439
 20
21.3442
 11
21.4065
 21
21.4732
  0
LINE
  8
0
 10
21.4065
 20
21.4732
 11
21.2865
 21
21.6183
  0
LINE
  8
0
 10
21.2865
 20
21.6183
 11
21.1855
 21
21.7774
  0
LINE
  8
0
 10
21.1855
 20
21.7774
 11
21.1053
 21
21.9478
  0
LINE
  8
0
 10
21.1053
 20
21.9478
 11
21.0471
 21
22.127
  0
LINE
  8
0
 10
21.0471
 20
22.127
 11
21.0118
 21
22.312
  0
LINE
  8
0
 10
21.0118
 20
22.312
 11
21
 21
22.5
  0
LINE
  8
0
 10
21
 20
22.5
 11
21.0118
 21
22.688
  0
LINE
  8
0
 10
21.0118
 20
22.688
 11
21.0471
 21
22.873
  0
LINE
  8
0
 10
21.0471
 20
22.873
 11
21.1053
 21
23.0522
  0
LINE
  8
0
 10
21.1053
 20
23.0522
 11
21.1855
 21
23.2226
  0
LINE
  8
0
 10
21.1855
 20
23.2226
 11
21.2865
 21
23.3817
  0
LINE
  8
0
 10
21.2865
 20
23.3817
 11
21.4065
 21
23.5268
  0
LINE
  8
0
 10
21.4065
 20
23.5268
 11
21.5439
 21
23.6558
  0
LINE
  8
0
 10
21.5439
 20
23.6558
 11
21.6963
 21
23.7665
  0
LINE
  8
0
 10
21.6963
 20
23.7665
 11
21.8613
 21
23.8572
  0
LINE
  8
0
 10
21.8613
 20
23.8572
 11
22.0365
 21
23.9266
  0
LINE
  8
0
 10
22.0365
 20
23.9266
 11
22.2189
 21
23.9734
  0
LINE
  8
0
 10
22.2189
 20
23.9734
 11
22.4058
 21
23.997
  0
LINE
  8
0
 10
22.4058
 20
23.997
 11
22.5942
 21
23.997
  0
LINE
  8
0
 10
22.5942
 20
23.997
 11
22.7811
 21
23.9734
  0
LINE
  8
0
 10
22.7811
 20
23.9734
 11
22.9635
 21
23.9266
  0
LINE
  8
0
 10
22.9635
 20
23.9266
 11
23.1387
 21
23.8572
  0
LINE
  8
0
 10
23.1387
 20
23.8572
 11
23.3037
 21
23.7665
  0
LINE
  8
0
 10
23.3037
 20
23.7665
 11
23.4561
 21
23.6558
  0
LINE
  8
0
 10
23.4561
 20
23.6558
 11
23.5934
 21
23.5268
  0
LINE
  8
0
 10
23.5934
 20
23.5268
 11
23.7135
 21
23.3817
  0
LINE
  8
0
 10
23.7135
 20
23.3817
 11
23.8145
 21
23.2226
  0
LINE
  8
0
 10
23.8145
 20
23.2226
 11
23.8947
 21
23.0522
  0
LINE
  8
0
 10
23.8947
 20
23.0522
 11
23.9529
 21
22.873
  0
LINE
  8
0
 10
23.9529
 20
22.873
 11
23.9882
 21
22.688
  0
LINE
  8
0
 10
23.9882
 20
22.688
 11
24
 21
22.5
  0
LINE
  8
0
 10
24
 20
22.5
 11
23.9882
 21
22.312
  0
LINE
  8
0
 10
23.9882
 20
22.312
 11
23.9529
 21
22.127
  0
LINE
  8
0
 10
23.9529
 20
22.127
 11
23.8947
 21
21.9478
  0
LINE
  8
0
 10
23.8947
 20
21.9478
 11
23.8145
 21
21.7774
  0
LINE
  8
0
 10
23.8145
 20
21.7774
 11
23.7135
 21
21.6183
  0
LINE
  8
0
 10
23.7135
 20
21.6183
 11
23.5934
 21
21.4732
  0
LINE
  8
0
 10
23.5934
 20
21.4732
 11
23.4561
 21
21.3442
  0
LINE
  8
0
 10
23.4561
 20
21.3442
 11
23.3037
 21
21.2335
  0
LINE
  8
0
 10
23.3037
 20
21.2335
 11
23.1387
 21
21.1427
  0
LINE
  8
0
 10
23.1387
 20
21.1427
 11
22.9635
 21
21.0734
  0
LINE
  8
0
 10
22.9635
 20
21.0734
 11
22.7811
 21
21.0266
  0
LINE
  8
0
 10
22.7811
 20
21.0266
 11
22.5942
 21
21.003
  0
LINE
  8
0
 10
22.5942
 20
21.003
 11
22.4058
 21
21.003
  0
LINE
  8
0
 10
7.40581
 20
21.003
 11
7.21892
 21
21.0266
  0
LINE
  8
0
 10
7.21892
 20
21.0266
 11
7.03647
 21
21.0734
  0
LINE
  8
0
 10
7.03647
 20
21.0734
 11
6.86133
 21
21.1427
  0
LINE
  8
0
 10
6.86133
 20
21.1427
 11
6.69626
 21
21.2335
  0
LINE
  8
0
 10
6.69626
 20
21.2335
 11
6.54385
 21
21.3442
  0
LINE
  8
0
 10
6.54385
 20
21.3442
 11
6.40654
 21
21.4732
  0
LINE
  8
0
 10
6.40654
 20
21.4732
 11
6.28647
 21
21.6183
  0
LINE
  8
0
 10
6.28647
 20
21.6183
 11
6.18553
 21
21.7774
  0
LINE
  8
0
 10
6.18553
 20
21.7774
 11
6.10533
 21
21.9478
  0
LINE
  8
0
 10
6.10533
 20
21.9478
 11
6.04712
 21
22.127
  0
LINE
  8
0
 10
6.04712
 20
22.127
 11
6.01183
 21
22.312
  0
LINE
  8
0
 10
6.01183
 20
22.312
 11
6
 21
22.5
  0
LINE
  8
0
 10
6
 20
22.5
 11
6.01183
 21
22.688
  0
LINE
  8
0
 10
6.01183
 20
22.688
 11
6.04712
 21
22.873
  0
LINE
  8
0
 10
6.04712
 20
22.873
 11
6.10533
 21
23.0522
  0
LINE
  8
0
 10
6.10533
 20
23.0522
 11
6.18553
 21
23.2226
  0
LINE
  8
0
 10
6.18553
 20
23.2226
 11
6.28647
 21
23.3817
  0
LINE
  8
0
 10
6.28647
 20
23.3817
 11
6.40654
 21
23.5268
  0
LINE
  8
0
 10
6.40654
 20
23.5268
 11
6.54385
 21
23.6558
  0
LINE
  8
0
 10
6.54385
 20
23.6558
 11
6.69626
 21
23.7665
  0
LINE
  8
0
 10
6.69626
 20
23.7665
 11
6.86133
 21
23.8572
  0
LINE
  8
0
 10
6.86133
 20
23.8572
 11
7.03647
 21
23.9266
  0
LINE
  8
0
 10
7.03647
 20
23.9266
 11
7.21892
 21
23.9734
  0
LINE
  8
0
 10
7.21892
 20
23.9734
 11
7.40581
 21
23.997
  0
LINE
  8
0
 10
7.40581
 20
23.997
 11
7.59418
 21
23.997
  0
LINE
  8
0
 10
7.59418
 20
23.997
 11
7.78107
 21
23.9734
  0
LINE
  8
0
 10
7.78107
 20
23.9734
 11
7.96352
 21
23.9266
  0
LINE
  8
0
 10
7.96352
 20
23.9266
 11
8.13866
 21
23.8572
  0
LINE
  8
0
 10
8.13866
 20
23.8572
 11
8.30373
 21
23.7665
  0
LINE
  8
0
 10
8.30373
 20
23.7665
 11
8.45613
 21
23.6558
  0
LINE
  8
0
 10
8.45613
 20
23.6558
 11
8.59344
 21
23.5268
  0
LINE
  8
0
 10
8.59344
 20
23.5268
 11
8.71352
 21
23.3817
  0
LINE
  8
0
 10
8.71352
 20
23.3817
 11
8.81445
 21
23.2226
  0
LINE
  8
0
 10
8.81445
 20
23.2226
 11
8.89465
 21
23.0522
  0
LINE
  8
0
 10
8.89465
 20
23.0522
 11
8.95287
 21
22.873
  0
LINE
  8
0
 10
8.95287
 20
22.873
 11
8.98816
 21
22.688
  0
LINE
  8
0
 10
8.98816
 20
22.688
 11
9
 21
22.5
  0
LINE
  8
0
 10
9
 20
22.5
 11
8.98816
 21
22.312
  0
LINE
  8
0
 10
8.98816
 20
22.312
 11
8.95287
 21
22.127
  0
LINE
  8
0
 10
8.95287
 20
22.127
 11
8.89465
 21
21.9478
  0
LINE
  8
0
 10
8.89465
 20
21.9478
 11
8.81445
 21
21.7774
  0
LINE
  8
0
 10
8.81445
 20
21.7774
 11
8.71352
 21
21.6183
  0
LINE
  8
0
 10
8.71352
 20
21.6183
 11
8.59344
 21
21.4732
  0
LINE
  8
0
 10
8.59344
 20
21.4732
 11
8.45613
 21
21.3442
  0
LINE
  8
0
 10
8.45613
 20
21.3442
 11
8.30373
 21
21.2335
  0
LINE
  8
0
 10
8.30373
 20
21.2335
 11
8.13866
 21
21.1427
  0
LINE
  8
0
 10
8.13866
 20
21.1427
 11
7.96352
 21
21.0734
  0
LINE
  8
0
 10
7.96352
 20
21.0734
 11
7.78107
 21
21.0266
  0
LINE
  8
0
 10
7.78107
 20
21.0266
 11
7.59418
 21
21.003
  0
LINE
  8
0
 10
7.59418
 20
21.003
 11
7.40581
 21
21.003
  0
LINE
  8
0
 10
-45.0942
 20
13.5029
 11
-45.2811
 21
13.5266
  0
LINE
  8
0
 10
-45.2811
 20
13.5266
 11
-45.4635
 21
13.5734
  0
LINE
  8
0
 10
-45.4635
 20
13.5734
 11
-45.6387
 21
13.6427
  0
LINE
  8
0
 10
-45.6387
 20
13.6427
 11
-45.8037
 21
13.7335
  0
LINE
  8
0
 10
-45.8037
 20
13.7335
 11
-45.9561
 21
13.8442
  0
LINE
  8
0
 10
-45.9561
 20
13.8442
 11
-46.0934
 21
13.9732
  0
LINE
  8
0
 10
-46.0934
 20
13.9732
 11
-46.2135
 21
14.1183
  0
LINE
  8
0
 10
-46.2135
 20
14.1183
 11
-46.3145
 21
14.2774
  0
LINE
  8
0
 10
-46.3145
 20
14.2774
 11
-46.3947
 21
14.4478
  0
LINE
  8
0
 10
-46.3947
 20
14.4478
 11
-46.4529
 21
14.627
  0
LINE
  8
0
 10
-46.4529
 20
14.627
 11
-46.4882
 21
14.812
  0
LINE
  8
0
 10
-46.4882
 20
14.812
 11
-46.5
 21
15
  0
LINE
  8
0
 10
-46.5
 20
15
 11
-46.4882
 21
15.188
  0
LINE
  8
0
 10
-46.4882
 20
15.188
 11
-46.4529
 21
15.373
  0
LINE
  8
0
 10
-46.4529
 20
15.373
 11
-46.3947
 21
15.5522
  0
LINE
  8
0
 10
-46.3947
 20
15.5522
 11
-46.3145
 21
15.7226
  0
LINE
  8
0
 10
-46.3145
 20
15.7226
 11
-46.2135
 21
15.8817
  0
LINE
  8
0
 10
-46.2135
 20
15.8817
 11
-46.0934
 21
16.0268
  0
LINE
  8
0
 10
-46.0934
 20
16.0268
 11
-45.9561
 21
16.1558
  0
LINE
  8
0
 10
-45.9561
 20
16.1558
 11
-45.8037
 21
16.2665
  0
LINE
  8
0
 10
-45.8037
 20
16.2665
 11
-45.6387
 21
16.3572
  0
LINE
  8
0
 10
-45.6387
 20
16.3572
 11
-45.4635
 21
16.4266
  0
LINE
  8
0
 10
-45.4635
 20
16.4266
 11
-45.2811
 21
16.4734
  0
LINE
  8
0
 10
-45.2811
 20
16.4734
 11
-45.0942
 21
16.497
  0
LINE
  8
0
 10
-45.0942
 20
16.497
 11
-44.9058
 21
16.497
  0
LINE
  8
0
 10
-44.9058
 20
16.497
 11
-44.7189
 21
16.4734
  0
LINE
  8
0
 10
-44.7189
 20
16.4734
 11
-44.5365
 21
16.4266
  0
LINE
  8
0
 10
-44.5365
 20
16.4266
 11
-44.3613
 21
16.3572
  0
LINE
  8
0
 10
-44.3613
 20
16.3572
 11
-44.1963
 21
16.2665
  0
LINE
  8
0
 10
-44.1963
 20
16.2665
 11
-44.0439
 21
16.1558
  0
LINE
  8
0
 10
-44.0439
 20
16.1558
 11
-43.9065
 21
16.0268
  0
LINE
  8
0
 10
-43.9065
 20
16.0268
 11
-43.7865
 21
15.8817
  0
LINE
  8
0
 10
-43.7865
 20
15.8817
 11
-43.6855
 21
15.7226
  0
LINE
  8
0
 10
-43.6855
 20
15.7226
 11
-43.6053
 21
15.5522
  0
LINE
  8
0
 10
-43.6053
 20
15.5522
 11
-43.5471
 21
15.373
  0
LINE
  8
0
 10
-43.5471
 20
15.373
 11
-43.5118
 21
15.188
  0
LINE
  8
0
 10
-43.5118
 20
15.188
 11
-43.5
 21
15
  0
LINE
  8
0
 10
-43.5
 20
15
 11
-43.5118
 21
14.812
  0
LINE
  8
0
 10
-43.5118
 20
14.812
 11
-43.5471
 21
14.627
  0
LINE
  8
0
 10
-43.5471
 20
14.627
 11
-43.6053
 21
14.4478
  0
LINE
  8
0
 10
-43.6053
 20
14.4478
 11
-43.6855
 21
14.2774
  0
LINE
  8
0
 10
-43.6855
 20
14.2774
 11
-43.7865
 21
14.1183
  0
LINE
  8
0
 10
-43.7865
 20
14.1183
 11
-43.9065
 21
13.9732
  0
LINE
  8
0
 10
-43.9065
 20
13.9732
 11
-44.0439
 21
13.8442
  0
LINE
  8
0
 10
-44.0439
 20
13.8442
 11
-44.1963
 21
13.7335
  0
LINE
  8
0
 10
-44.1963
 20
13.7335
 11
-44.3613
 21
13.6427
  0
LINE
  8
0
 10
-44.3613
 20
13.6427
 11
-44.5365
 21
13.5734
  0
LINE
  8
0
 10
-44.5365
 20
13.5734
 11
-44.7189
 21
13.5266
  0
LINE
  8
0
 10
-44.7189
 20
13.5266
 11
-44.9058
 21
13.5029
  0
LINE
  8
0
 10
-44.9058
 20
13.5029
 11
-45.0942
 21
13.5029
  0
LINE
  8
0
 10
44.9058
 20
13.5029
 11
44.7189
 21
13.5266
  0
LINE
  8
0
 10
44.7189
 20
13.5266
 11
44.5365
 21
13.5734
  0
LINE
  8
0
 10
44.5365
 20
13.5734
 11
44.3613
 21
13.6427
  0
LINE
  8
0
 10
44.3613
 20
13.6427
 11
44.1963
 21
13.7335
  0
LINE
  8
0
 10
44.1963
 20
13.7335
 11
44.0439
 21
13.8442
  0
LINE
  8
0
 10
44.0439
 20
13.8442
 11
43.9065
 21
13.9732
  0
LINE
  8
0
 10
43.9065
 20
13.9732
 11
43.7865
 21
14.1183
  0
LINE
  8
0
 10
43.7865
 20
14.1183
 11
43.6855
 21
14.2774
  0
LINE
  8
0
 10
43.6855
 20
14.2774
 11
43.6053
 21
14.4478
  0
LINE
  8
0
 10
43.6053
 20
14.4478
 11
43.5471
 21
14.627
  0
LINE
  8
0
 10
43.5471
 20
14.627
 11
43.5118
 21
14.812
  0
LINE
  8
0
 10
43.5118
 20
14.812
 11
43.5
 21
15
  0
LINE
  8
0
 10
43.5
 20
15
 11
43.5118
 21
15.188
  0
LINE
  8
0
 10
43.5118
 20
15.188
 11
43.5471
 21
15.373
  0
LINE
  8
0
 10
43.5471
 20
15.373
 11
43.6053
 21
15.5522
  0
LINE
  8
0
 10
43.6053
 20
15.5522
 11
43.6855
 21
15.7226
  0
LINE
  8
0
 10
43.6855
 20
15.7226
 11
43.7865
 21
15.8817
  0
LINE
  8
0
 10
43.7865
 20
15.8817
 11
43.9065
 21
16.0268
  0
LINE
  8
0
 10
43.9065
 20
16.0268
 11
44.0439
 21
16.1558
  0
LINE
  8
0
 10
44.0439
 20
16.1558
 11
44.1963
 21
16.2665
  0
LINE
  8
0
 10
44.1963
 20
16.2665
 11
44.3613
 21
16.3572
  0
LINE
  8
0
 10
44.3613
 20
16.3572
 11
44.5365
 21
16.4266
  0
LINE
  8
0
 10
44.5365
 20
16.4266
 11
44.7189
 21
16.4734
  0
LINE
  8
0
 10
44.7189
 20
16.4734
 11
44.9058
 21
16.497
  0
LINE
  8
0
 10
44.9058
 20
16.497
 11
45.0942
 21
16.497
  0
LINE
  8
0
 10
45.0942
 20
16.497
 11
45.2811
 21
16.4734
  0
LINE
  8
0
 10
45.2811
 20
16.4734
 11
45.4635
 21
16.4266
  0
LINE
  8
0
 10
45.4635
 20
16.4266
 11
45.6387
 21
16.3572
  0
LINE
  8
0
 10
45.6387
 20
16.3572
 11
45.8037
 21
16.2665
  0
LINE
  8
0
 10
45.8037
 20
16.2665
 11
45.9561
 21
16.1558
  0
LINE
  8
0
 10
45.9561
 20
16.1558
 11
46.0934
 21
16.0268
  0
LINE
  8
0
 10
46.0934
 20
16.0268
 11
46.2135
 21
15.8817
  0
LINE
  8
0
 10
46.2135
 20
15.8817
 11
46.3145
 21
15.7226
  0
LINE
  8
0
 10
46.3145
 20
15.7226
 11
46.3947
 21
15.5522
  0
LINE
  8
0
 10
46.3947
 20
15.5522
 11
46.4529
 21
15.373
  0
LINE
  8
0
 10
46.4529
 20
15.373
 11
46.4882
 21
15.188
  0
LINE
  8
0
 10
46.4882
 20
15.188
 11
46.5
 21
15
  0
LINE
  8
0
 10
46.5
 20
15
 11
46.4882
 21
14.812
  0
LINE
  8
0
 10
46.4882
 20
14.812
 11
46.4529
 21
14.627
  0
LINE
  8
0
 10
46.4529
 20
14.627
 11
46.3947
 21
14.4478
  0
LINE
  8
0
 10
46.3947
 20
14.4478
 11
46.3145
 21
14.2774
  0
LINE
  8
0
 10
46.3145
 20
14.2774
 11
46.2135
 21
14.1183
  0
LINE
  8
0
 10
46.2135
 20
14.1183
 11
46.0934
 21
13.9732
  0
LINE
  8
0
 10
46.0934
 20
13.9732
 11
45.9561
 21
13.8442
  0
LINE
  8
0
 10
45.9561
 20
13.8442
 11
45.8037
 21
13.7335
  0
LINE
  8
0
 10
45.8037
 20
13.7335
 11
45.6387
 21
13.6427
  0
LINE
  8
0
 10
45.6387
 20
13.6427
 11
45.4635
 21
13.5734
  0
LINE
  8
0
 10
45.4635
 20
13.5734
 11
45.2811
 21
13.5266
  0
LINE
  8
0
 10
45.2811
 20
13.5266
 11
45.0942
 21
13.5029
  0
LINE
  8
0
 10
45.0942
 20
13.5029
 11
44.9058
 21
13.5029
  0
LINE
  8
0
 10
31.4058
 20
8.50294
 11
31.2189
 21
8.52657
  0
LINE
  8
0
 10
31.2189
 20
8.52657
 11
31.0365
 21
8.57341
  0
LINE
  8
0
 10
31.0365
 20
8.57341
 11
30.8613
 21
8.64275
  0
LINE
  8
0
 10
30.8613
 20
8.64275
 11
30.6963
 21
8.73351
  0
LINE
  8
0
 10
30.6963
 20
8.73351
 11
30.5439
 21
8.84422
  0
LINE
  8
0
 10
30.5439
 20
8.84422
 11
30.4065
 21
8.97318
  0
LINE
  8
0
 10
30.4065
 20
8.97318
 11
30.2865
 21
9.11832
  0
LINE
  8
0
 10
30.2865
 20
9.11832
 11
30.1855
 21
9.27736
  0
LINE
  8
0
 10
30.1855
 20
9.27736
 11
30.1053
 21
9.4478
  0
LINE
  8
0
 10
30.1053
 20
9.4478
 11
30.0471
 21
9.62695
  0
LINE
  8
0
 10
30.0471
 20
9.62695
 11
30.0118
 21
9.812
  0
LINE
  8
0
 10
30.0118
 20
9.812
 11
30
 21
10
  0
LINE
  8
0
 10
30
 20
10
 11
30.0118
 21
10.188
  0
LINE
  8
0
 10
30.0118
 20
10.188
 11
30.0471
 21
10.373
  0
LINE
  8
0
 10
30.0471
 20
10.373
 11
30.1053
 21
10.5522
  0
LINE
  8
0
 10
30.1053
 20
10.5522
 11
30.1855
 21
10.7226
  0
LINE
  8
0
 10
30.1855
 20
10.7226
 11
30.2865
 21
10.8817
  0
LINE
  8
0
 10
30.2865
 20
10.8817
 11
30.4065
 21
11.0268
  0
LINE
  8
0
 10
30.4065
 20
11.0268
 11
30.5439
 21
11.1558
  0
LINE
  8
0
 10
30.5439
 20
11.1558
 11
30.6963
 21
11.2665
  0
LINE
  8
0
 10
30.6963
 20
11.2665
 11
30.8613
 21
11.3572
  0
LINE
  8
0
 10
30.8613
 20
11.3572
 11
31.0365
 21
11.4266
  0
LINE
  8
0
 10
31.0365
 20
11.4266
 11
31.2189
 21
11.4734
  0
LINE
  8
0
 10
31.2189
 20
11.4734
 11
31.4058
 21
11.497
  0
LINE
  8
0
 10
31.4058
 20
11.497
 11
31.5942
 21
11.497
  0
LINE
  8
0
 10
31.5942
 20
11.497
 11
31.7811
 21
11.4734
  0
LINE
  8
0
 10
31.7811
 20
11.4734
 11
31.9635
 21
11.4266
  0
LINE
  8
0
 10
31.9635
 20
11.4266
 11
32.1387
 21
11.3572
  0
LINE
  8
0
 10
32.1387
 20
11.3572
 11
32.3037
 21
11.2665
  0
LINE
  8
0
 10
32.3037
 20
11.2665
 11
32.4561
 21
11.1558
  0
LINE
  8
0
 10
32.4561
 20
11.1558
 11
32.5934
 21
11.0268
  0
LINE
  8
0
 10
32.5934
 20
11.0268
 11
32.7135
 21
10.8817
  0
LINE
  8
0
 10
32.7135
 20
10.8817
 11
32.8145
 21
10.7226
  0
LINE
  8
0
 10
32.8145
 20
10.7226
 11
32.8947
 21
10.5522
  0
LINE
  8
0
 10
32.8947
 20
10.5522
 11
32.9529
 21
10.373
  0
LINE
  8
0
 10
32.9529
 20
10.373
 11
32.9882
 21
10.188
  0
LINE
  8
0
 10
32.9882
 20
10.188
 11
33
 21
10
  0
LINE
  8
0
 10
33
 20
10
 11
32.9882
 21
9.812
  0
LINE
  8
0
 10
32.9882
 20
9.812
 11
32.9529
 21
9.62695
  0
LINE
  8
0
 10
32.9529
 20
9.62695
 11
32.8947
 21
9.4478
  0
LINE
  8
0
 10
32.8947
 20
9.4478
 11
32.8145
 21
9.27736
  0
LINE
  8
0
 10
32.8145
 20
9.27736
 11
32.7135
 21
9.11832
  0
LINE
  8
0
 10
32.7135
 20
9.11832
 11
32.5934
 21
8.97318
  0
LINE
  8
0
 10
32.5934
 20
8.97318
 11
32.4561
 21
8.84422
  0
LINE
  8
0
 10
32.4561
 20
8.84422
 11
32.3037
 21
8.73351
  0
LINE
  8
0
 10
32.3037
 20
8.73351
 11
32.1387
 21
8.64275
  0
LINE
  8
0
 10
32.1387
 20
8.64275
 11
31.9635
 21
8.57341
  0
LINE
  8
0
 10
31.9635
 20
8.57341
 11
31.7811
 21
8.52657
  0
LINE
  8
0
 10
31.7811
 20
8.52657
 11
31.5942
 21
8.50294
  0
LINE
  8
0
 10
31.5942
 20
8.50294
 11
31.4058
 21
8.50294
  0
LINE
  8
0
 10
-32.5942
 20
8.50294
 11
-32.7811
 21
8.52657
  0
LINE
  8
0
 10
-32.7811
 20
8.52657
 11
-32.9635
 21
8.57341
  0
LINE
  8
0
 10
-32.9635
 20
8.57341
 11
-33.1387
 21
8.64275
  0
LINE
  8
0
 10
-33.1387
 20
8.64275
 11
-33.3037
 21
8.73351
  0
LINE
  8
0
 10
-33.3037
 20
8.73351
 11
-33.4561
 21
8.84422
  0
LINE
  8
0
 10
-33.4561
 20
8.84422
 11
-33.5934
 21
8.97318
  0
LINE
  8
0
 10
-33.5934
 20
8.97318
 11
-33.7135
 21
9.11832
  0
LINE
  8
0
 10
-33.7135
 20
9.11832
 11
-33.8145
 21
9.27736
  0
LINE
  8
0
 10
-33.8145
 20
9.27736
 11
-33.8947
 21
9.4478
  0
LINE
  8
0
 10
-33.8947
 20
9.4478
 11
-33.9529
 21
9.62695
  0
LINE
  8
0
 10
-33.9529
 20
9.62695
 11
-33.9882
 21
9.812
  0
LINE
  8
0
 10
-33.9882
 20
9.812
 11
-34
 21
10
  0
LINE
  8
0
 10
-34
 20
10
 11
-33.9882
 21
10.188
  0
LINE
  8
0
 10
-33.9882
 20
10.188
 11
-33.9529
 21
10.373
  0
LINE
  8
0
 10
-33.9529
 20
10.373
 11
-33.8947
 21
10.5522
  0
LINE
  8
0
 10
-33.8947
 20
10.5522
 11
-33.8145
 21
10.7226
  0
LINE
  8
0
 10
-33.8145
 20
10.7226
 11
-33.7135
 21
10.8817
  0
LINE
  8
0
 10
-33.7135
 20
10.8817
 11
-33.5934
 21
11.0268
  0
LINE
  8
0
 10
-33.5934
 20
11.0268
 11
-33.4561
 21
11.1558
  0
LINE
  8
0
 10
-33.4561
 20
11.1558
 11
-33.3037
 21
11.2665
  0
LINE
  8
0
 10
-33.3037
 20
11.2665
 11
-33.1387
 21
11.3572
  0
LINE
  8
0
 10
-33.1387
 20
11.3572
 11
-32.9635
 21
11.4266
  0
LINE
  8
0
 10
-32.9635
 20
11.4266
 11
-32.7811
 21
11.4734
  0
LINE
  8
0
 10
-32.7811
 20
11.4734
 11
-32.5942
 21
11.497
  0
LINE
  8
0
 10
-32.5942
 20
11.497
 11
-32.4058
 21
11.497
  0
LINE
  8
0
 10
-32.4058
 20
11.497
 11
-32.2189
 21
11.4734
  0
LINE
  8
0
 10
-32.2189
 20
11.4734
 11
-32.0365
 21
11.4266
  0
LINE
  8
0
 10
-32.0365
 20
11.4266
 11
-31.8613
 21
11.3572
  0
LINE
  8
0
 10
-31.8613
 20
11.3572
 11
-31.6963
 21
11.2665
  0
LINE
  8
0
 10
-31.6963
 20
11.2665
 11
-31.5439
 21
11.1558
  0
LINE
  8
0
 10
-31.5439
 20
11.1558
 11
-31.4065
 21
11.0268
  0
LINE
  8
0
 10
-31.4065
 20
11.0268
 11
-31.2865
 21
10.8817
  0
LINE
  8
0
 10
-31.2865
 20
10.8817
 11
-31.1855
 21
10.7226
  0
LINE
  8
0
 10
-31.1855
 20
10.7226
 11
-31.1053
 21
10.5522
  0
LINE
  8
0
 10
-31.1053
 20
10.5522
 11
-31.0471
 21
10.373
  0
LINE
  8
0
 10
-31.0471
 20
10.373
 11
-31.0118
 21
10.188
  0
LINE
  8
0
 10
-31.0118
 20
10.188
 11
-31
 21
10
  0
LINE
  8
0
 10
-31
 20
10
 11
-31.0118
 21
9.812
  0
LINE
  8
0
 10
-31.0118
 20
9.812
 11
-31.0471
 21
9.62695
  0
LINE
  8
0
 10
-31.0471
 20
9.62695
 11
-31.1053
 21
9.4478
  0
LINE
  8
0
 10
-31.1053
 20
9.4478
 11
-31.1855
 21
9.27736
  0
LINE
  8
0
 10
-31.1855
 20
9.27736
 11
-31.2865
 21
9.11832
  0
LINE
  8
0
 10
-31.2865
 20
9.11832
 11
-31.4065
 21
8.97318
  0
LINE
  8
0
 10
-31.4065
 20
8.97318
 11
-31.5439
 21
8.84422
  0
LINE
  8
0
 10
-31.5439
 20
8.84422
 11
-31.6963
 21
8.73351
  0
LINE
  8
0
 10
-31.6963
 20
8.73351
 11
-31.8613
 21
8.64275
  0
LINE
  8
0
 10
-31.8613
 20
8.64275
 11
-32.0365
 21
8.57341
  0
LINE
  8
0
 10
-32.0365
 20
8.57341
 11
-32.2189
 21
8.52657
  0
LINE
  8
0
 10
-32.2189
 20
8.52657
 11
-32.4058
 21
8.50294
  0
LINE
  8
0
 10
-32.4058
 20
8.50294
 11
-32.5942
 21
8.50294
  0
LINE
  8
0
 10
-45.1884
 20
4.50591
 11
-45.5621
 21
4.55313
  0
LINE
  8
0
 10
-45.5621
 20
4.55313
 11
-45.927
 21
4.64682
  0
LINE
  8
0
 10
-45.927
 20
4.64682
 11
-46.2773
 21
4.78551
  0
LINE
  8
0
 10
-46.2773
 20
4.78551
 11
-46.6075
 21
4.96701
  0
LINE
  8
0
 10
-46.6075
 20
4.96701
 11
-46.9123
 21
5.18845
  0
LINE
  8
0
 10
-46.9123
 20
5.18845
 11
-47.1869
 21
5.44635
  0
LINE
  8
0
 10
-47.1869
 20
5.44635
 11
-47.427
 21
5.73663
  0
LINE
  8
0
 10
-47.427
 20
5.73663
 11
-47.6289
 21
6.05473
  0
LINE
  8
0
 10
-47.6289
 20
6.05473
 11
-47.7893
 21
6.39561
  0
LINE
  8
0
 10
-47.7893
 20
6.39561
 11
-47.9057
 21
6.75392
  0
LINE
  8
0
 10
-47.9057
 20
6.75392
 11
-47.9763
 21
7.12399
  0
LINE
  8
0
 10
-47.9763
 20
7.12399
 11
-48
 21
7.5
  0
LINE
  8
0
 10
-48
 20
7.5
 11
-47.9763
 21
7.87599
  0
LINE
  8
0
 10
-47.9763
 20
7.87599
 11
-47.9057
 21
8.24606
  0
LINE
  8
0
 10
-47.9057
 20
8.24606
 11
-47.7893
 21
8.60437
  0
LINE
  8
0
 10
-47.7893
 20
8.60437
 11
-47.6289
 21
8.94525
  0
LINE
  8
0
 10
-47.6289
 20
8.94525
 11
-47.427
 21
9.26335
  0
LINE
  8
0
 10
-47.427
 20
9.26335
 11
-47.1869
 21
9.55363
  0
LINE
  8
0
 10
-47.1869
 20
9.55363
 11
-46.9123
 21
9.81154
  0
LINE
  8
0
 10
-46.9123
 20
9.81154
 11
-46.6075
 21
10.033
  0
LINE
  8
0
 10
-46.6075
 20
10.033
 11
-46.2773
 21
10.2145
  0
LINE
  8
0
 10
-46.2773
 20
10.2145
 11
-45.927
 21
10.3532
  0
LINE
  8
0
 10
-45.927
 20
10.3532
 11
-45.5621
 21
10.4469
  0
LINE
  8
0
 10
-45.5621
 20
10.4469
 11
-45.1884
 21
10.4941
  0
LINE
  8
0
 10
-45.1884
 20
10.4941
 11
-44.8116
 21
10.4941
  0
LINE
  8
0
 10
-44.8116
 20
10.4941
 11
-44.4379
 21
10.4469
  0
LINE
  8
0
 10
-44.4379
 20
10.4469
 11
-44.0729
 21
10.3532
  0
LINE
  8
0
 10
-44.0729
 20
10.3532
 11
-43.7227
 21
10.2145
  0
LINE
  8
0
 10
-43.7227
 20
10.2145
 11
-43.3925
 21
10.033
  0
LINE
  8
0
 10
-43.3925
 20
10.033
 11
-43.0877
 21
9.81154
  0
LINE
  8
0
 10
-43.0877
 20
9.81154
 11
-42.8131
 21
9.55363
  0
LINE
  8
0
 10
-42.8131
 20
9.55363
 11
-42.5729
 21
9.26335
  0
LINE
  8
0
 10
-42.5729
 20
9.26335
 11
-42.3711
 21
8.94525
  0
LINE
  8
0
 10
-42.3711
 20
8.94525
 11
-42.2107
 21
8.60437
  0
LINE
  8
0
 10
-42.2107
 20
8.60437
 11
-42.0942
 21
8.24606
  0
LINE
  8
0
 10
-42.0942
 20
8.24606
 11
-42.0237
 21
7.87599
  0
LINE
  8
0
 10
-42.0237
 20
7.87599
 11
-42
 21
7.5
  0
LINE
  8
0
 10
-42
 20
7.5
 11
-42.0237
 21
7.12399
  0
LINE
  8
0
 10
-42.0237
 20
7.12399
 11
-42.0942
 21
6.75392
  0
LINE
  8
0
 10
-42.0942
 20
6.75392
 11
-42.2107
 21
6.39561
  0
LINE
  8
0
 10
-42.2107
 20
6.39561
 11
-42.3711
 21
6.05473
  0
LINE
  8
0
 10
-42.3711
 20
6.05473
 11
-42.5729
 21
5.73663
  0
LINE
  8
0
 10
-42.5729
 20
5.73663
 11
-42.8131
 21
5.44635
  0
LINE
  8
0
 10
-42.8131
 20
5.44635
 11
-43.0877
 21
5.18845
  0
LINE
  8
0
 10
-43.0877
 20
5.18845
 11
-43.3925
 21
4.96701
  0
LINE
  8
0
 10
-43.3925
 20
4.96701
 11
-43.7227
 21
4.78551
  0
LINE
  8
0
 10
-43.7227
 20
4.78551
 11
-44.0729
 21
4.64682
  0
LINE
  8
0
 10
-44.0729
 20
4.64682
 11
-44.4379
 21
4.55313
  0
LINE
  8
0
 10
-44.4379
 20
4.55313
 11
-44.8116
 21
4.50591
  0
LINE
  8
0
 10
-44.8116
 20
4.50591
 11
-45.1884
 21
4.50591
  0
LINE
  8
0
 10
44.8116
 20
4.50591
 11
44.4379
 21
4.55313
  0
LINE
  8
0
 10
44.4379
 20
4.55313
 11
44.0729
 21
4.64682
  0
LINE
  8
0
 10
44.0729
 20
4.64682
 11
43.7227
 21
4.78551
  0
LINE
  8
0
 10
43.7227
 20
4.78551
 11
43.3925
 21
4.96701
  0
LINE
  8
0
 10
43.3925
 20
4.96701
 11
43.0877
 21
5.18845
  0
LINE
  8
0
 10
43.0877
 20
5.18845
 11
42.8131
 21
5.44635
  0
LINE
  8
0
 10
42.8131
 20
5.44635
 11
42.5729
 21
5.73663
  0
LINE
  8
0
 10
42.5729
 20
5.73663
 11
42.3711
 21
6.05473
  0
LINE
  8
0
 10
42.3711
 20
6.05473
 11
42.2107
 21
6.39561
  0
LINE
  8
0
 10
42.2107
 20
6.39561
 11
42.0942
 21
6.75392
  0
LINE
  8
0
 10
42.0942
 20
6.75392
 11
42.0237
 21
7.12399
  0
LINE
  8
0
 10
42.0237
 20
7.12399
 11
42
 21
7.5
  0
LINE
  8
0
 10
42
 20
7.5
 11
42.0237
 21
7.87599
  0
LINE
  8
0
 10
42.0237
 20
7.87599
 11
42.0942
 21
8.24606
  0
LINE
  8
0
 10
42.0942
 20
8.24606
 11
42.2107
 21
8.60437
  0
LINE
  8
0
 10
42.2107
 20
8.60437
 11
42.3711
 21
8.94525
  0
LINE
  8
0
 10
42.3711
 20
8.94525
 11
42.5729
 21
9.26335
  0
LINE
  8
0
 10
42.5729
 20
9.26335
 11
42.8131
 21
9.55363
  0
LINE
  8
0
 10
42.8131
 20
9.55363
 11
43.0877
 21
9.81154
  0
LINE
  8
0
 10
43.0877
 20
9.81154
 11
43.3925
 21
10.033
  0
LINE
  8
0
 10
43.3925
 20
10.033
 11
43.7227
 21
10.2145
  0
LINE
  8
0
 10
43.7227
 20
10.2145
 11
44.0729
 21
10.3532
  0
LINE
  8
0
 10
44.0729
 20
10.3532
 11
44.4379
 21
10.4469
  0
LINE
  8
0
 10
44.4379
 20
10.4469
 11
44.8116
 21
10.4941
  0
LINE
  8
0
 10
44.8116
 20
10.4941
 11
45.1884
 21
10.4941
  0
LINE
  8
0
 10
45.1884
 20
10.4941
 11
45.5621
 21
10.4469
  0
LINE
  8
0
 10
45.5621
 20
10.4469
 11
45.927
 21
10.3532
  0
LINE
  8
0
 10
45.927
 20
10.3532
 11
46.2773
 21
10.2145
  0
LINE
  8
0
 10
46.2773
 20
10.2145
 11
46.6075
 21
10.033
  0
LINE
  8
0
 10
46.6075
 20
10.033
 11
46.9123
 21
9.81154
  0
LINE
  8
0
 10
46.9123
 20
9.81154
 11
47.1869
 21
9.55363
  0
LINE
  8
0
 10
47.1869
 20
9.55363
 11
47.427
 21
9.26335
  0
LINE
  8
0
 10
47.427
 20
9.26335
 11
47.6289
 21
8.94525
  0
LINE
  8
0
 10
47.6289
 20
8.94525
 11
47.7893
 21
8.60437
  0
LINE
  8
0
 10
47.7893
 20
8.60437
 11
47.9057
 21
8.24606
  0
LINE
  8
0
 10
47.9057
 20
8.24606
 11
47.9763
 21
7.87599
  0
LINE
  8
0
 10
47.9763
 20
7.87599
 11
48
 21
7.5
  0
LINE
  8
0
 10
48
 20
7.5
 11
47.9763
 21
7.12399
  0
LINE
  8
0
 10
47.9763
 20
7.12399
 11
47.9057
 21
6.75392
  0
LINE
  8
0
 10
47.9057
 20
6.75392
 11
47.7893
 21
6.39561
  0
LINE
  8
0
 10
47.7893
 20
6.39561
 11
47.6289
 21
6.05473
  0
LINE
  8
0
 10
47.6289
 20
6.05473
 11
47.427
 21
5.73663
  0
LINE
  8
0
 10
47.427
 20
5.73663
 11
47.1869
 21
5.44635
  0
LINE
  8
0
 10
47.1869
 20
5.44635
 11
46.9123
 21
5.18845
  0
LINE
  8
0
 10
46.9123
 20
5.18845
 11
46.6075
 21
4.96701
  0
LINE
  8
0
 10
46.6075
 20
4.96701
 11
46.2773
 21
4.78551
  0
LINE
  8
0
 10
46.2773
 20
4.78551
 11
45.927
 21
4.64682
  0
LINE
  8
0
 10
45.927
 20
4.64682
 11
45.5621
 21
4.55313
  0
LINE
  8
0
 10
45.5621
 20
4.55313
 11
45.1884
 21
4.50591
  0
LINE
  8
0
 10
45.1884
 20
4.50591
 11
44.8116
 21
4.50591
  0
LINE
  8
0
 10
-45.0942
 20
-1.49704
 11
-45.2811
 21
-1.47342
  0
LINE
  8
0
 10
-45.2811
 20
-1.47342
 11
-45.4635
 21
-1.42657
  0
LINE
  8
0
 10
-45.4635
 20
-1.42657
 11
-45.6387
 21
-1.35724
  0
LINE
  8
0
 10
-45.6387
 20
-1.35724
 11
-45.8037
 21
-1.26648
  0
LINE
  8
0
 10
-45.8037
 20
-1.26648
 11
-45.9561
 21
-1.15576
  0
LINE
  8
0
 10
-45.9561
 20
-1.15576
 11
-46.0934
 21
-1.02681
  0
LINE
  8
0
 10
-46.0934
 20
-1.02681
 11
-46.2135
 21
-0.881668
  0
LINE
  8
0
 10
-46.2135
 20
-0.881668
 11
-46.3145
 21
-0.722626
  0
LINE
  8
0
 10
-46.3145
 20
-0.722626
 11
-46.3947
 21
-0.552185
  0
LINE
  8
0
 10
-46.3947
 20
-0.552185
 11
-46.4529
 21
-0.373032
  0
LINE
  8
0
 10
-46.4529
 20
-0.373032
 11
-46.4882
 21
-0.187988
  0
LINE
  8
0
 10
-46.4882
 20
-0.187988
 11
-46.5
 21
0
  0
LINE
  8
0
 10
-46.5
 20
0
 11
-46.4882
 21
0.187988
  0
LINE
  8
0
 10
-46.4882
 20
0.187988
 11
-46.4529
 21
0.373032
  0
LINE
  8
0
 10
-46.4529
 20
0.373032
 11
-46.3947
 21
0.552185
  0
LINE
  8
0
 10
-46.3947
 20
0.552185
 11
-46.3145
 21
0.722626
  0
LINE
  8
0
 10
-46.3145
 20
0.722626
 11
-46.2135
 21
0.881668
  0
LINE
  8
0
 10
-46.2135
 20
0.881668
 11
-46.0934
 21
1.02681
  0
LINE
  8
0
 10
-46.0934
 20
1.02681
 11
-45.9561
 21
1.15576
  0
LINE
  8
0
 10
-45.9561
 20
1.15576
 11
-45.8037
 21
1.26648
  0
LINE
  8
0
 10
-45.8037
 20
1.26648
 11
-45.6387
 21
1.35724
  0
LINE
  8
0
 10
-45.6387
 20
1.35724
 11
-45.4635
 21
1.42657
  0
LINE
  8
0
 10
-45.4635
 20
1.42657
 11
-45.2811
 21
1.47342
  0
LINE
  8
0
 10
-45.2811
 20
1.47342
 11
-45.0942
 21
1.49704
  0
LINE
  8
0
 10
-45.0942
 20
1.49704
 11
-44.9058
 21
1.49704
  0
LINE
  8
0
 10
-44.9058
 20
1.49704
 11
-44.7189
 21
1.47342
  0
LINE
  8
0
 10
-44.7189
 20
1.47342
 11
-44.5365
 21
1.42657
  0
LINE
  8
0
 10
-44.5365
 20
1.42657
 11
-44.3613
 21
1.35724
  0
LINE
  8
0
 10
-44.3613
 20
1.35724
 11
-44.1963
 21
1.26648
  0
LINE
  8
0
 10
-44.1963
 20
1.26648
 11
-44.0439
 21
1.15576
  0
LINE
  8
0
 10
-44.0439
 20
1.15576
 11
-43.9065
 21
1.02681
  0
LINE
  8
0
 10
-43.9065
 20
1.02681
 11
-43.7865
 21
0.881668
  0
LINE
  8
0
 10
-43.7865
 20
0.881668
 11
-43.6855
 21
0.722626
  0
LINE
  8
0
 10
-43.6855
 20
0.722626
 11
-43.6053
 21
0.552185
  0
LINE
  8
0
 10
-43.6053
 20
0.552185
 11
-43.5471
 21
0.373032
  0
LINE
  8
0
 10
-43.5471
 20
0.373032
 11
-43.5118
 21
0.187988
  0
LINE
  8
0
 10
-43.5118
 20
0.187988
 11
-43.5
 21
0
  0
LINE
  8
0
 10
-43.5
 20
0
 11
-43.5118
 21
-0.187988
  0
LINE
  8
0
 10
-43.5118
 20
-0.187988
 11
-43.5471
 21
-0.373032
  0
LINE
  8
0
 10
-43.5471
 20
-0.373032
 11
-43.6053
 21
-0.552185
  0
LINE
  8
0
 10
-43.6053
 20
-0.552185
 11
-43.6855
 21
-0.722626
  0
LINE
  8
0
 10
-43.6855
 20
-0.722626
 11
-43.7865
 21
-0.881668
  0
LINE
  8
0
 10
-43.7865
 20
-0.881668
 11
-43.9065
 21
-1.02681
  0
LINE
  8
0
 10
-43.9065
 20
-1.02681
 11
-44.0439
 21
-1.15576
  0
LINE
  8
0
 10
-44.0439
 20
-1.15576
 11
-44.1963
 21
-1.26648
  0
LINE
  8
0
 10
-44.1963
 20
-1.26648
 11
-44.3613
 21
-1.35724
  0
LINE
  8
0
 10
-44.3613
 20
-1.35724
 11
-44.5365
 21
-1.42657
  0
LINE
  8
0
 10
-44.5365
 20
-1.42657
 11
-44.7189
 21
-1.47342
  0
LINE
  8
0
 10
-44.7189
 20
-1.47342
 11
-44.9058
 21
-1.49704
  0
LINE
  8
0
 10
-44.9058
 20
-1.49704
 11
-45.0942
 21
-1.49704
  0
LINE
  8
0
 10
44.9058
 20
-1.49704
 11
44.7189
 21
-1.47342
  0
LINE
  8
0
 10
44.7189
 20
-1.47342
 11
44.5365
 21
-1.42657
  0
LINE
  8
0
 10
44.5365
 20
-1.42657
 11
44.3613
 21
-1.35724
  0
LINE
  8
0
 10
44.3613
 20
-1.35724
 11
44.1963
 21
-1.26648
  0
LINE
  8
0
 10
44.1963
 20
-1.26648
 11
44.0439
 21
-1.15576
  0
LINE
  8
0
 10
44.0439
 20
-1.15576
 11
43.9065
 21
-1.02681
  0
LINE
  8
0
 10
43.9065
 20
-1.02681
 11
43.7865
 21
-0.881668
  0
LINE
  8
0
 10
43.7865
 20
-0.881668
 11
43.6855
 21
-0.722626
  0
LINE
  8
0
 10
43.6855
 20
-0.722626
 11
43.6053
 21
-0.552185
  0
LINE
  8
0
 10
43.6053
 20
-0.552185
 11
43.5471
 21
-0.373032
  0
LINE
  8
0
 10
43.5471
 20
-0.373032
 11
43.5118
 21
-0.187988
  0
LINE
  8
0
 10
43.5118
 20
-0.187988
 11
43.5
 21
0
  0
LINE
  8
0
 10
43.5
 20
0
 11
43.5118
 21
0.187988
  0
LINE
  8
0
 10
43.5118
 20
0.187988
 11
43.5471
 21
0.373032
  0
LINE
  8
0
 10
43.5471
 20
0.373032
 11
43.6053
 21
0.552185
  0
LINE
  8
0
 10
43.6053
 20
0.552185
 11
43.6855
 21
0.722626
  0
LINE
  8
0
 10
43.6855
 20
0.722626
 11
43.7865
 21
0.881668
  0
LINE
  8
0
 10
43.7865
 20
0.881668
 11
43.9065
 21
1.02681
  0
LINE
  8
0
 10
43.9065
 20
1.02681
 11
44.0439
 21
1.15576
  0
LINE
  8
0
 10
44.0439
 20
1.15576
 11
44.1963
 21
1.26648
  0
LINE
  8
0
 10
44.1963
 20
1.26648
 11
44.3613
 21
1.35724
  0
LINE
  8
0
 10
44.3613
 20
1.35724
 11
44.5365
 21
1.42657
  0
LINE
  8
0
 10
44.5365
 20
1.42657
 11
44.7189
 21
1.47342
  0
LINE
  8
0
 10
44.7189
 20
1.47342
 11
44.9058
 21
1.49704
  0
LINE
  8
0
 10
44.9058
 20
1.49704
 11
45.0942
 21
1.49704
  0
LINE
  8
0
 10
45.0942
 20
1.49704
 11
45.2811
 21
1.47342
  0
LINE
  8
0
 10
45.2811
 20
1.47342
 11
45.4635
 21
1.42657
  0
LINE
  8
0
 10
45.4635
 20
1.42657
 11
45.6387
 21
1.35724
  0
LINE
  8
0
 10
45.6387
 20
1.35724
 11
45.8037
 21
1.26648
  0
LINE
  8
0
 10
45.8037
 20
1.26648
 11
45.9561
 21
1.15576
  0
LINE
  8
0
 10
45.9561
 20
1.15576
 11
46.0934
 21
1.02681
  0
LINE
  8
0
 10
46.0934
 20
1.02681
 11
46.2135
 21
0.881668
  0
LINE
  8
0
 10
46.2135
 20
0.881668
 11
46.3145
 21
0.722626
  0
LINE
  8
0
 10
46.3145
 20
0.722626
 11
46.3947
 21
0.552185
  0
LINE
  8
0
 10
46.3947
 20
0.552185
 11
46.4529
 21
0.373032
  0
LINE
  8
0
 10
46.4529
 20
0.373032
 11
46.4882
 21
0.187988
  0
LINE
  8
0
 10
46.4882
 20
0.187988
 11
46.5
 21
0
  0
LINE
  8
0
 10
46.5
 20
0
 11
46.4882
 21
-0.187988
  0
LINE
  8
0
 10
46.4882
 20
-0.187988
 11
46.4529
 21
-0.373032
  0
LINE
  8
0
 10
46.4529
 20
-0.373032
 11
46.3947
 21
-0.552185
  0
LINE
  8
0
 10
46.3947
 20
-0.552185
 11
46.3145
 21
-0.722626
  0
LINE
  8
0
 10
46.3145
 20
-0.722626
 11
46.2135
 21
-0.881668
  0
LINE
  8
0
 10
46.2135
 20
-0.881668
 11
46.0934
 21
-1.02681
  0
LINE
  8
0
 10
46.0934
 20
-1.02681
 11
45.9561
 21
-1.15576
  0
LINE
  8
0
 10
45.9561
 20
-1.15576
 11
45.8037
 21
-1.26648
  0
LINE
  8
0
 10
45.8037
 20
-1.26648
 11
45.6387
 21
-1.35724
  0
LINE
  8
0
 10
45.6387
 20
-1.35724
 11
45.4635
 21
-1.42657
  0
LINE
  8
0
 10
45.4635
 20
-1.42657
 11
45.2811
 21
-1.47342
  0
LINE
  8
0
 10
45.2811
 20
-1.47342
 11
45.0942
 21
-1.49704
  0
LINE
  8
0
 10
45.0942
 20
-1.49704
 11
44.9058
 21
-1.49704
  0
LINE
  8
0
 10
44.8116
 20
-10.4941
 11
44.4379
 21
-10.4469
  0
LINE
  8
0
 10
44.4379
 20
-10.4469
 11
44.0729
 21
-10.3532
  0
LINE
  8
0
 10
44.0729
 20
-10.3532
 11
43.7227
 21
-10.2145
  0
LINE
  8
0
 10
43.7227
 20
-10.2145
 11
43.3925
 21
-10.033
  0
LINE
  8
0
 10
43.3925
 20
-10.033
 11
43.0877
 21
-9.81154
  0
LINE
  8
0
 10
43.0877
 20
-9.81154
 11
42.8131
 21
-9.55363
  0
LINE
  8
0
 10
42.8131
 20
-9.55363
 11
42.5729
 21
-9.26335
  0
LINE
  8
0
 10
42.5729
 20
-9.26335
 11
42.3711
 21
-8.94525
  0
LINE
  8
0
 10
42.3711
 20
-8.94525
 11
42.2107
 21
-8.60437
  0
LINE
  8
0
 10
42.2107
 20
-8.60437
 11
42.0942
 21
-8.24606
  0
LINE
  8
0
 10
42.0942
 20
-8.24606
 11
42.0237
 21
-7.87599
  0
LINE
  8
0
 10
42.0237
 20
-7.87599
 11
42
 21
-7.5
  0
LINE
  8
0
 10
42
 20
-7.5
 11
42.0237
 21
-7.12399
  0
LINE
  8
0
 10
42.0237
 20
-7.12399
 11
42.0942
 21
-6.75392
  0
LINE
  8
0
 10
42.0942
 20
-6.75392
 11
42.2107
 21
-6.39561
  0
LINE
  8
0
 10
42.2107
 20
-6.39561
 11
42.3711
 21
-6.05473
  0
LINE
  8
0
 10
42.3711
 20
-6.05473
 11
42.5729
 21
-5.73663
  0
LINE
  8
0
 10
42.5729
 20
-5.73663
 11
42.8131
 21
-5.44635
  0
LINE
  8
0
 10
42.8131
 20
-5.44635
 11
43.0877
 21
-5.18845
  0
LINE
  8
0
 10
43.0877
 20
-5.18845
 11
43.3925
 21
-4.96701
  0
LINE
  8
0
 10
43.3925
 20
-4.96701
 11
43.7227
 21
-4.78551
  0
LINE
  8
0
 10
43.7227
 20
-4.78551
 11
44.0729
 21
-4.64682
  0
LINE
  8
0
 10
44.0729
 20
-4.64682
 11
44.4379
 21
-4.55313
  0
LINE
  8
0
 10
44.4379
 20
-4.55313
 11
44.8116
 21
-4.50591
  0
LINE
  8
0
 10
44.8116
 20
-4.50591
 11
45.1884
 21
-4.50591
  0
LINE
  8
0
 10
45.1884
 20
-4.50591
 11
45.5621
 21
-4.55313
  0
LINE
  8
0
 10
45.5621
 20
-4.55313
 11
45.927
 21
-4.64682
  0
LINE
  8
0
 10
45.927
 20
-4.64682
 11
46.2773
 21
-4.78551
  0
LINE
  8
0
 10
46.2773
 20
-4.78551
 11
46.6075
 21
-4.96701
  0
LINE
  8
0
 10
46.6075
 20
-4.96701
 11
46.9123
 21
-5.18845
  0
LINE
  8
0
 10
46.9123
 20
-5.18845
 11
47.1869
 21
-5.44635
  0
LINE
  8
0
 10
47.1869
 20
-5.44635
 11
47.427
 21
-5.73663
  0
LINE
  8
0
 10
47.427
 20
-5.73663
 11
47.6289
 21
-6.05473
  0
LINE
  8
0
 10
47.6289
 20
-6.05473
 11
47.7893
 21
-6.39561
  0
LINE
  8
0
 10
47.7893
 20
-6.39561
 11
47.9057
 21
-6.75392
  0
LINE
  8
0
 10
47.9057
 20
-6.75392
 11
47.9763
 21
-7.12399
  0
LINE
  8
0
 10
47.9763
 20
-7.12399
 11
48
 21
-7.5
  0
LINE
  8
0
 10
48
 20
-7.5
 11
47.9763
 21
-7.87599
  0
LINE
  8
0
 10
47.9763
 20
-7.87599
 11
47.9057
 21
-8.24606
  0
LINE
  8
0
 10
47.9057
 20
-8.24606
 11
47.7893
 21
-8.60437
  0
LINE
  8
0
 10
47.7893
 20
-8.60437
 11
47.6289
 21
-8.94525
  0
LINE
  8
0
 10
47.6289
 20
-8.94525
 11
47.427
 21
-9.26335
  0
LINE
  8
0
 10
47.427
 20
-9.26335
 11
47.1869
 21
-9.55363
  0
LINE
  8
0
 10
47.1869
 20
-9.55363
 11
46.9123
 21
-9.81154
  0
LINE
  8
0
 10
46.9123
 20
-9.81154
 11
46.6075
 21
-10.033
  0
LINE
  8
0
 10
46.6075
 20
-10.033
 11
46.2773
 21
-10.2145
  0
LINE
  8
0
 10
46.2773
 20
-10.2145
 11
45.927
 21
-10.3532
  0
LINE
  8
0
 10
45.927
 20
-10.3532
 11
45.5621
 21
-10.4469
  0
LINE
  8
0
 10
45.5621
 20
-10.4469
 11
45.1884
 21
-10.4941
  0
LINE
  8
0
 10
45.1884
 20
-10.4941
 11
44.8116
 21
-10.4941
  0
LINE
  8
0
 10
-45.1884
 20
-10.4941
 11
-45.5621
 21
-10.4469
  0
LINE
  8
0
 10
-45.5621
 20
-10.4469
 11
-45.927
 21
-10.3532
  0
LINE
  8
0
 10
-45.927
 20
-10.3532
 11
-46.2773
 21
-10.2145
  0
LINE
  8
0
 10
-46.2773
 20
-10.2145
 11
-46.6075
 21
-10.033
  0
LINE
  8
0
 10
-46.6075
 20
-10.033
 11
-46.9123
 21
-9.81154
  0
LINE
  8
0
 10
-46.9123
 20
-9.81154
 11
-47.1869
 21
-9.55363
  0
LINE
  8
0
 10
-47.1869
 20
-9.55363
 11
-47.427
 21
-9.26335
  0
LINE
  8
0
 10
-47.427
 20
-9.26335
 11
-47.6289
 21
-8.94525
  0
LINE
  8
0
 10
-47.6289
 20
-8.94525
 11
-47.7893
 21
-8.60437
  0
LINE
  8
0
 10
-47.7893
 20
-8.60437
 11
-47.9057
 21
-8.24606
  0
LINE
  8
0
 10
-47.9057
 20
-8.24606
 11
-47.9763
 21
-7.87599
  0
LINE
  8
0
 10
-47.9763
 20
-7.87599
 11
-48
 21
-7.5
  0
LINE
  8
0
 10
-48
 20
-7.5
 11
-47.9763
 21
-7.12399
  0
LINE
  8
0
 10
-47.9763
 20
-7.12399
 11
-47.9057
 21
-6.75392
  0
LINE
  8
0
 10
-47.9057
 20
-6.75392
 11
-47.7893
 21
-6.39561
  0
LINE
  8
0
 10
-47.7893
 20
-6.39561
 11
-47.6289
 21
-6.05473
  0
LINE
  8
0
 10
-47.6289
 20
-6.05473
 11
-47.427
 21
-5.73663
  0
LINE
  8
0
 10
-47.427
 20
-5.73663
 11
-47.1869
 21
-5.44635
  0
LINE
  8
0
 10
-47.1869
 20
-5.44635
 11
-46.9123
 21
-5.18845
  0
LINE
  8
0
 10
-46.9123
 20
-5.18845
 11
-46.6075
 21
-4.96701
  0
LINE
  8
0
 10
-46.6075
 20
-4.96701
 11
-46.2773
 21
-4.78551
  0
LINE
  8
0
 10
-46.2773
 20
-4.78551
 11
-45.927
 21
-4.64682
  0
LINE
  8
0
 10
-45.927
 20
-4.64682
 11
-45.5621
 21
-4.55313
  0
LINE
  8
0
 10
-45.5621
 20
-4.55313
 11
-45.1884
 21
-4.50591
  0
LINE
  8
0
 10
-45.1884
 20
-4.50591
 11
-44.8116
 21
-4.50591
  0
LINE
  8
0
 10
-44.8116
 20
-4.50591
 11
-44.4379
 21
-4.55313
  0
LINE
  8
0
 10
-44.4379
 20
-4.55313
 11
-44.0729
 21
-4.64682
  0
LINE
  8
0
 10
-44.0729
 20
-4.64682
 11
-43.7227
 21
-4.78551
  0
LINE
  8
0
 10
-43.7227
 20
-4.78551
 11
-43.3925
 21
-4.96701
  0
LINE
  8
0
 10
-43.3925
 20
-4.96701
 11
-43.0877
 21
-5.18845
  0
LINE
  8
0
 10
-43.0877
 20
-5.18845
 11
-42.8131
 21
-5.44635
  0
LINE
  8
0
 10
-42.8131
 20
-5.44635
 11
-42.5729
 21
-5.73663
  0
LINE
  8
0
 10
-42.5729
 20
-5.73663
 11
-42.3711
 21
-6.05473
  0
LINE
  8
0
 10
-42.3711
 20
-6.05473
 11
-42.2107
 21
-6.39561
  0
LINE
  8
0
 10
-42.2107
 20
-6.39561
 11
-42.0942
 21
-6.75392
  0
LINE
  8
0
 10
-42.0942
 20
-6.75392
 11
-42.0237
 21
-7.12399
  0
LINE
  8
0
 10
-42.0237
 20
-7.12399
 11
-42
 21
-7.5
  0
LINE
  8
0
 10
-42
 20
-7.5
 11
-42.0237
 21
-7.87599
  0
LINE
  8
0
 10
-42.0237
 20
-7.87599
 11
-42.0942
 21
-8.24606
  0
LINE
  8
0
 10
-42.0942
 20
-8.24606
 11
-42.2107
 21
-8.60437
  0
LINE
  8
0
 10
-42.2107
 20
-8.60437
 11
-42.3711
 21
-8.94525
  0
LINE
  8
0
 10
-42.3711
 20
-8.94525
 11
-42.5729
 21
-9.26335
  0
LINE
  8
0
 10
-42.5729
 20
-9.26335
 11
-42.8131
 21
-9.55363
  0
LINE
  8
0
 10
-42.8131
 20
-9.55363
 11
-43.0877
 21
-9.81154
  0
LINE
  8
0
 10
-43.0877
 20
-9.81154
 11
-43.3925
 21
-10.033
  0
LINE
  8
0
 10
-43.3925
 20
-10.033
 11
-43.7227
 21
-10.2145
  0
LINE
  8
0
 10
-43.7227
 20
-10.2145
 11
-44.0729
 21
-10.3532
  0
LINE
  8
0
 10
-44.0729
 20
-10.3532
 11
-44.4379
 21
-10.4469
  0
LINE
  8
0
 10
-44.4379
 20
-10.4469
 11
-44.8116
 21
-10.4941
  0
LINE
  8
0
 10
-44.8116
 20
-10.4941
 11
-45.1884
 21
-10.4941
  0
LINE
  8
0
 10
31.4058
 20
-11.497
 11
31.2189
 21
-11.4734
  0
LINE
  8
0
 10
31.2189
 20
-11.4734
 11
31.0365
 21
-11.4266
  0
LINE
  8
0
 10
31.0365
 20
-11.4266
 11
30.8613
 21
-11.3572
  0
LINE
  8
0
 10
30.8613
 20
-11.3572
 11
30.6963
 21
-11.2665
  0
LINE
  8
0
 10
30.6963
 20
-11.2665
 11
30.5439
 21
-11.1558
  0
LINE
  8
0
 10
30.5439
 20
-11.1558
 11
30.4065
 21
-11.0268
  0
LINE
  8
0
 10
30.4065
 20
-11.0268
 11
30.2865
 21
-10.8817
  0
LINE
  8
0
 10
30.2865
 20
-10.8817
 11
30.1855
 21
-10.7226
  0
LINE
  8
0
 10
30.1855
 20
-10.7226
 11
30.1053
 21
-10.5522
  0
LINE
  8
0
 10
30.1053
 20
-10.5522
 11
30.0471
 21
-10.373
  0
LINE
  8
0
 10
30.0471
 20
-10.373
 11
30.0118
 21
-10.188
  0
LINE
  8
0
 10
30.0118
 20
-10.188
 11
30
 21
-10
  0
LINE
  8
0
 10
30
 20
-10
 11
30.0118
 21
-9.812
  0
LINE
  8
0
 10
30.0118
 20
-9.812
 11
30.0471
 21
-9.62695
  0
LINE
  8
0
 10
30.0471
 20
-9.62695
 11
30.1053
 21
-9.4478
  0
LINE
  8
0
 10
30.1053
 20
-9.4478
 11
30.1855
 21
-9.27736
  0
LINE
  8
0
 10
30.1855
 20
-9.27736
 11
30.2865
 21
-9.11832
  0
LINE
  8
0
 10
30.2865
 20
-9.11832
 11
30.4065
 21
-8.97318
  0
LINE
  8
0
 10
30.4065
 20
-8.97318
 11
30.5439
 21
-8.84422
  0
LINE
  8
0
 10
30.5439
 20
-8.84422
 11
30.6963
 21
-8.73351
  0
LINE
  8
0
 10
30.6963
 20
-8.73351
 11
30.8613
 21
-8.64275
  0
LINE
  8
0
 10
30.8613
 20
-8.64275
 11
31.0365
 21
-8.57341
  0
LINE
  8
0
 10
31.0365
 20
-8.57341
 11
31.2189
 21
-8.52657
  0
LINE
  8
0
 10
31.2189
 20
-8.52657
 11
31.4058
 21
-8.50294
  0
LINE
  8
0
 10
31.4058
 20
-8.50294
 11
31.5942
 21
-8.50294
  0
LINE
  8
0
 10
31.5942
 20
-8.50294
 11
31.7811
 21
-8.52657
  0
LINE
  8
0
 10
31.7811
 20
-8.52657
 11
31.9635
 21
-8.57341
  0
LINE
  8
0
 10
31.9635
 20
-8.57341
 11
32.1387
 21
-8.64275
  0
LINE
  8
0
 10
32.1387
 20
-8.64275
 11
32.3037
 21
-8.73351
  0
LINE
  8
0
 10
32.3037
 20
-8.73351
 11
32.4561
 21
-8.84422
  0
LINE
  8
0
 10
32.4561
 20
-8.84422
 11
32.5934
 21
-8.97318
  0
LINE
  8
0
 10
32.5934
 20
-8.97318
 11
32.7135
 21
-9.11832
  0
LINE
  8
0
 10
32.7135
 20
-9.11832
 11
32.8145
 21
-9.27736
  0
LINE
  8
0
 10
32.8145
 20
-9.27736
 11
32.8947
 21
-9.4478
  0
LINE
  8
0
 10
32.8947
 20
-9.4478
 11
32.9529
 21
-9.62695
  0
LINE
  8
0
 10
32.9529
 20
-9.62695
 11
32.9882
 21
-9.812
  0
LINE
  8
0
 10
32.9882
 20
-9.812
 11
33
 21
-10
  0
LINE
  8
0
 10
33
 20
-10
 11
32.9882
 21
-10.188
  0
LINE
  8
0
 10
32.9882
 20
-10.188
 11
32.9529
 21
-10.373
  0
LINE
  8
0
 10
32.9529
 20
-10.373
 11
32.8947
 21
-10.5522
  0
LINE
  8
0
 10
32.8947
 20
-10.5522
 11
32.8145
 21
-10.7226
  0
LINE
  8
0
 10
32.8145
 20
-10.7226
 11
32.7135
 21
-10.8817
  0
LINE
  8
0
 10
32.7135
 20
-10.8817
 11
32.5934
 21
-11.0268
  0
LINE
  8
0
 10
32.5934
 20
-11.0268
 11
32.4561
 21
-11.1558
  0
LINE
  8
0
 10
32.4561
 20
-11.1558
 11
32.3037
 21
-11.2665
  0
LINE
  8
0
 10
32.3037
 20
-11.2665
 11
32.1387
 21
-11.3572
  0
LINE
  8
0
 10
32.1387
 20
-11.3572
 11
31.9635
 21
-11.4266
  0
LINE
  8
0
 10
31.9635
 20
-11.4266
 11
31.7811
 21
-11.4734
  0
LINE
  8
0
 10
31.7811
 20
-11.4734
 11
31.5942
 21
-11.497
  0
LINE
  8
0
 10
31.5942
 20
-11.497
 11
31.4058
 21
-11.497
  0
LINE
  8
0
 10
-24.5942
 20
-11.497
 11
-24.7811
 21
-11.4734
  0
LINE
  8
0
 10
-24.7811
 20
-11.4734
 11
-24.9635
 21
-11.4266
  0
LINE
  8
0
 10
-24.9635
 20
-11.4266
 11
-25.1387
 21
-11.3572
  0
LINE
  8
0
 10
-25.1387
 20
-11.3572
 11
-25.3037
 21
-11.2665
  0
LINE
  8
0
 10
-25.3037
 20
-11.2665
 11
-25.4561
 21
-11.1558
  0
LINE
  8
0
 10
-25.4561
 20
-11.1558
 11
-25.5934
 21
-11.0268
  0
LINE
  8
0
 10
-25.5934
 20
-11.0268
 11
-25.7135
 21
-10.8817
  0
LINE
  8
0
 10
-25.7135
 20
-10.8817
 11
-25.8145
 21
-10.7226
  0
LINE
  8
0
 10
-25.8145
 20
-10.7226
 11
-25.8947
 21
-10.5522
  0
LINE
  8
0
 10
-25.8947
 20
-10.5522
 11
-25.9529
 21
-10.373
  0
LINE
  8
0
 10
-25.9529
 20
-10.373
 11
-25.9882
 21
-10.188
  0
LINE
  8
0
 10
-25.9882
 20
-10.188
 11
-26
 21
-10
  0
LINE
  8
0
 10
-26
 20
-10
 11
-25.9882
 21
-9.812
  0
LINE
  8
0
 10
-25.9882
 20
-9.812
 11
-25.9529
 21
-9.62695
  0
LINE
  8
0
 10
-25.9529
 20
-9.62695
 11
-25.8947
 21
-9.4478
  0
LINE
  8
0
 10
-25.8947
 20
-9.4478
 11
-25.8145
 21
-9.27736
  0
LINE
  8
0
 10
-25.8145
 20
-9.27736
 11
-25.7135
 21
-9.11832
  0
LINE
  8
0
 10
-25.7135
 20
-9.11832
 11
-25.5934
 21
-8.97318
  0
LINE
  8
0
 10
-25.5934
 20
-8.97318
 11
-25.4561
 21
-8.84422
  0
LINE
  8
0
 10
-25.4561
 20
-8.84422
 11
-25.3037
 21
-8.73351
  0
LINE
  8
0
 10
-25.3037
 20
-8.73351
 11
-25.1387
 21
-8.64275
  0
LINE
  8
0
 10
-25.1387
 20
-8.64275
 11
-24.9635
 21
-8.57341
  0
LINE
  8
0
 10
-24.9635
 20
-8.57341
 11
-24.7811
 21
-8.52657
  0
LINE
  8
0
 10
-24.7811
 20
-8.52657
 11
-24.5942
 21
-8.50294
  0
LINE
  8
0
 10
-24.5942
 20
-8.50294
 11
-24.4058
 21
-8.50294
  0
LINE
  8
0
 10
-24.4058
 20
-8.50294
 11
-24.2189
 21
-8.52657
  0
LINE
  8
0
 10
-24.2189
 20
-8.52657
 11
-24.0365
 21
-8.57341
  0
LINE
  8
0
 10
-24.0365
 20
-8.57341
 11
-23.8613
 21
-8.64275
  0
LINE
  8
0
 10
-23.8613
 20
-8.64275
 11
-23.6963
 21
-8.73351
  0
LINE
  8
0
 10
-23.6963
 20
-8.73351
 11
-23.5439
 21
-8.84422
  0
LINE
  8
0
 10
-23.5439
 20
-8.84422
 11
-23.4065
 21
-8.97318
  0
LINE
  8
0
 10
-23.4065
 20
-8.97318
 11
-23.2865
 21
-9.11832
  0
LINE
  8
0
 10
-23.2865
 20
-9.11832
 11
-23.1855
 21
-9.27736
  0
LINE
  8
0
 10
-23.1855
 20
-9.27736
 11
-23.1053
 21
-9.4478
  0
LINE
  8
0
 10
-23.1053
 20
-9.4478
 11
-23.0471
 21
-9.62695
  0
LINE
  8
0
 10
-23.0471
 20
-9.62695
 11
-23.0118
 21
-9.812
  0
LINE
  8
0
 10
-23.0118
 20
-9.812
 11
-23
 21
-10
  0
LINE
  8
0
 10
-23
 20
-10
 11
-23.0118
 21
-10.188
  0
LINE
  8
0
 10
-23.0118
 20
-10.188
 11
-23.0471
 21
-10.373
  0
LINE
  8
0
 10
-23.0471
 20
-10.373
 11
-23.1053
 21
-10.5522
  0
LINE
  8
0
 10
-23.1053
 20
-10.5522
 11
-23.1855
 21
-10.7226
  0
LINE
  8
0
 10
-23.1855
 20
-10.7226
 11
-23.2865
 21
-10.8817
  0
LINE
  8
0
 10
-23.2865
 20
-10.8817
 11
-23.4065
 21
-11.0268
  0
LINE
  8
0
 10
-23.4065
 20
-11.0268
 11
-23.5439
 21
-11.1558
  0
LINE
  8
0
 10
-23.5439
 20
-11.1558
 11
-23.6963
 21
-11.2665
  0
LINE
  8
0
 10
-23.6963
 20
-11.2665
 11
-23.8613
 21
-11.3572
  0
LINE
  8
0
 10
-23.8613
 20
-11.3572
 11
-24.0365
 21
-11.4266
  0
LINE
  8
0
 10
-24.0365
 20
-11.4266
 11
-24.2189
 21
-11.4734
  0
LINE
  8
0
 10
-24.2189
 20
-11.4734
 11
-24.4058
 21
-11.497
  0
LINE
  8
0
 10
-24.4058
 20
-11.497
 11
-24.5942
 21
-11.497
  0
LINE
  8
0
 10
44.9058
 20
-16.497
 11
44.7189
 21
-16.4734
  0
LINE
  8
0
 10
44.7189
 20
-16.4734
 11
44.5365
 21
-16.4266
  0
LINE
  8
0
 10
44.5365
 20
-16.4266
 11
44.3613
 21
-16.3572
  0
LINE
  8
0
 10
44.3613
 20
-16.3572
 11
44.1963
 21
-16.2665
  0
LINE
  8
0
 10
44.1963
 20
-16.2665
 11
44.0439
 21
-16.1558
  0
LINE
  8
0
 10
44.0439
 20
-16.1558
 11
43.9065
 21
-16.0268
  0
LINE
  8
0
 10
43.9065
 20
-16.0268
 11
43.7865
 21
-15.8817
  0
LINE
  8
0
 10
43.7865
 20
-15.8817
 11
43.6855
 21
-15.7226
  0
LINE
  8
0
 10
43.6855
 20
-15.7226
 11
43.6053
 21
-15.5522
  0
LINE
  8
0
 10
43.6053
 20
-15.5522
 11
43.5471
 21
-15.373
  0
LINE
  8
0
 10
43.5471
 20
-15.373
 11
43.5118
 21
-15.188
  0
LINE
  8
0
 10
43.5118
 20
-15.188
 11
43.5
 21
-15
  0
LINE
  8
0
 10
43.5
 20
-15
 11
43.5118
 21
-14.812
  0
LINE
  8
0
 10
43.5118
 20
-14.812
 11
43.5471
 21
-14.627
  0
LINE
  8
0
 10
43.5471
 20
-14.627
 11
43.6053
 21
-14.4478
  0
LINE
  8
0
 10
43.6053
 20
-14.4478
 11
43.6855
 21
-14.2774
  0
LINE
  8
0
 10
43.6855
 20
-14.2774
 11
43.7865
 21
-14.1183
  0
LINE
  8
0
 10
43.7865
 20
-14.1183
 11
43.9065
 21
-13.9732
  0
LINE
  8
0
 10
43.9065
 20
-13.9732
 11
44.0439
 21
-13.8442
  0
LINE
  8
0
 10
44.0439
 20
-13.8442
 11
44.1963
 21
-13.7335
  0
LINE
  8
0
 10
44.1963
 20
-13.7335
 11
44.3613
 21
-13.6427
  0
LINE
  8
0
 10
44.3613
 20
-13.6427
 11
44.5365
 21
-13.5734
  0
LINE
  8
0
 10
44.5365
 20
-13.5734
 11
44.7189
 21
-13.5266
  0
LINE
  8
0
 10
44.7189
 20
-13.5266
 11
44.9058
 21
-13.5029
  0
LINE
  8
0
 10
44.9058
 20
-13.5029
 11
45.0942
 21
-13.5029
  0
LINE
  8
0
 10
45.0942
 20
-13.5029
 11
45.2811
 21
-13.5266
  0
LINE
  8
0
 10
45.2811
 20
-13.5266
 11
45.4635
 21
-13.5734
  0
LINE
  8
0
 10
45.4635
 20
-13.5734
 11
45.6387
 21
-13.6427
  0
LINE
  8
0
 10
45.6387
 20
-13.6427
 11
45.8037
 21
-13.7335
  0
LINE
  8
0
 10
45.8037
 20
-13.7335
 11
45.9561
 21
-13.8442
  0
LINE
  8
0
 10
45.9561
 20
-13.8442
 11
46.0934
 21
-13.9732
  0
LINE
  8
0
 10
46.0934
 20
-13.9732
 11
46.2135
 21
-14.1183
  0
LINE
  8
0
 10
46.2135
 20
-14.1183
 11
46.3145
 21
-14.2774
  0
LINE
  8
0
 10
46.3145
 20
-14.2774
 11
46.3947
 21
-14.4478
  0
LINE
  8
0
 10
46.3947
 20
-14.4478
 11
46.4529
 21
-14.627
  0
LINE
  8
0
 10
46.4529
 20
-14.627
 11
46.4882
 21
-14.812
  0
LINE
  8
0
 10
46.4882
 20
-14.812
 11
46.5
 21
-15
  0
LINE
  8
0
 10
46.5
 20
-15
 11
46.4882
 21
-15.188
  0
LINE
  8
0
 10
46.4882
 20
-15.188
 11
46.4529
 21
-15.373
  0
LINE
  8
0
 10
46.4529
 20
-15.373
 11
46.3947
 21
-15.5522
  0
LINE
  8
0
 10
46.3947
 20
-15.5522
 11
46.3145
 21
-15.7226
  0
LINE
  8
0
 10
46.3145
 20
-15.7226
 11
46.2135
 21
-15.8817
  0
LINE
  8
0
 10
46.2135
 20
-15.8817
 11
46.0934
 21
-16.0268
  0
LINE
  8
0
 10
46.0934
 20
-16.0268
 11
45.9561
 21
-16.1558
  0
LINE
  8
0
 10
45.9561
 20
-16.1558
 11
45.8037
 21
-16.2665
  0
LINE
  8
0
 10
45.8037
 20
-16.2665
 11
45.6387
 21
-16.3572
  0
LINE
  8
0
 10
45.6387
 20
-16.3572
 11
45.4635
 21
-16.4266
  0
LINE
  8
0
 10
45.4635
 20
-16.4266
 11
45.2811
 21
-16.4734
  0
LINE
  8
0
 10
45.2811
 20
-16.4734
 11
45.0942
 21
-16.497
  0
LINE
  8
0
 10
45.0942
 20
-16.497
 11
44.9058
 21
-16.497
  0
LINE
  8
0
 10
-45.0942
 20
-16.497
 11
-45.2811
 21
-16.4734
  0
LINE
  8
0
 10
-45.2811
 20
-16.4734
 11
-45.4635
 21
-16.4266
  0
LINE
  8
0
 10
-45.4635
 20
-16.4266
 11
-45.6387
 21
-16.3572
  0
LINE
  8
0
 10
-45.6387
 20
-16.3572
 11
-45.8037
 21
-16.2665
  0
LINE
  8
0
 10
-45.8037
 20
-16.2665
 11
-45.9561
 21
-16.1558
  0
LINE
  8
0
 10
-45.9561
 20
-16.1558
 11
-46.0934
 21
-16.0268
  0
LINE
  8
0
 10
-46.0934
 20
-16.0268
 11
-46.2135
 21
-15.8817
  0
LINE
  8
0
 10
-46.2135
 20
-15.8817
 11
-46.3145
 21
-15.7226
  0
LINE
  8
0
 10
-46.3145
 20
-15.7226
 11
-46.3947
 21
-15.5522
  0
LINE
  8
0
 10
-46.3947
 20
-15.5522
 11
-46.4529
 21
-15.373
  0
LINE
  8
0
 10
-46.4529
 20
-15.373
 11
-46.4882
 21
-15.188
  0
LINE
  8
0
 10
-46.4882
 20
-15.188
 11
-46.5
 21
-15
  0
LINE
  8
0
 10
-46.5
 20
-15
 11
-46.4882
 21
-14.812
  0
LINE
  8
0
 10
-46.4882
 20
-14.812
 11
-46.4529
 21
-14.627
  0
LINE
  8
0
 10
-46.4529
 20
-14.627
 11
-46.3947
 21
-14.4478
  0
LINE
  8
0
 10
-46.3947
 20
-14.4478
 11
-46.3145
 21
-14.2774
  0
LINE
  8
0
 10
-46.3145
 20
-14.2774
 11
-46.2135
 21
-14.1183
  0
LINE
  8
0
 10
-46.2135
 20
-14.1183
 11
-46.0934
 21
-13.9732
  0
LINE
  8
0
 10
-46.0934
 20
-13.9732
 11
-45.9561
 21
-13.8442
  0
LINE
  8
0
 10
-45.9561
 20
-13.8442
 11
-45.8037
 21
-13.7335
  0
LINE
  8
0
 10
-45.8037
 20
-13.7335
 11
-45.6387
 21
-13.6427
  0
LINE
  8
0
 10
-45.6387
 20
-13.6427
 11
-45.4635
 21
-13.5734
  0
LINE
  8
0
 10
-45.4635
 20
-13.5734
 11
-45.2811
 21
-13.5266
  0
LINE
  8
0
 10
-45.2811
 20
-13.5266
 11
-45.0942
 21
-13.5029
  0
LINE
  8
0
 10
-45.0942
 20
-13.5029
 11
-44.9058
 21
-13.5029
  0
LINE
  8
0
 10
-44.9058
 20
-13.5029
 11
-44.7189
 21
-13.5266
  0
LINE
  8
0
 10
-44.7189
 20
-13.5266
 11
-44.5365
 21
-13.5734
  0
LINE
  8
0
 10
-44.5365
 20
-13.5734
 11
-44.3613
 21
-13.6427
  0
LINE
  8
0
 10
-44.3613
 20
-13.6427
 11
-44.1963
 21
-13.7335
  0
LINE
  8
0
 10
-44.1963
 20
-13.7335
 11
-44.0439
 21
-13.8442
  0
LINE
  8
0
 10
-44.0439
 20
-13.8442
 11
-43.9065
 21
-13.9732
  0
LINE
  8
0
 10
-43.9065
 20
-13.9732
 11
-43.7865
 21
-14.1183
  0
LINE
  8
0
 10
-43.7865
 20
-14.1183
 11
-43.6855
 21
-14.2774
  0
LINE
  8
0
 10
-43.6855
 20
-14.2774
 11
-43.6053
 21
-14.4478
  0
LINE
  8
0
 10
-43.6053
 20
-14.4478
 11
-43.5471
 21
-14.627
  0
LINE
  8
0
 10
-43.5471
 20
-14.627
 11
-43.5118
 21
-14.812
  0
LINE
  8
0
 10
-43.5118
 20
-14.812
 11
-43.5
 21
-15
  0
LINE
  8
0
 10
-43.5
 20
-15
 11
-43.5118
 21
-15.188
  0
LINE
  8
0
 10
-43.5118
 20
-15.188
 11
-43.5471
 21
-15.373
  0
LINE
  8
0
 10
-43.5471
 20
-15.373
 11
-43.6053
 21
-15.5522
  0
LINE
  8
0
 10
-43.6053
 20
-15.5522
 11
-43.6855
 21
-15.7226
  0
LINE
  8
0
 10
-43.6855
 20
-15.7226
 11
-43.7865
 21
-15.8817
  0
LINE
  8
0
 10
-43.7865
 20
-15.8817
 11
-43.9065
 21
-16.0268
  0
LINE
  8
0
 10
-43.9065
 20
-16.0268
 11
-44.0439
 21
-16.1558
  0
LINE
  8
0
 10
-44.0439
 20
-16.1558
 11
-44.1963
 21
-16.2665
  0
LINE
  8
0
 10
-44.1963
 20
-16.2665
 11
-44.3613
 21
-16.3572
  0
LINE
  8
0
 10
-44.3613
 20
-16.3572
 11
-44.5365
 21
-16.4266
  0
LINE
  8
0
 10
-44.5365
 20
-16.4266
 11
-44.7189
 21
-16.4734
  0
LINE
  8
0
 10
-44.7189
 20
-16.4734
 11
-44.9058
 21
-16.497
  0
LINE
  8
0
 10
-44.9058
 20
-16.497
 11
-45.0942
 21
-16.497
  0
LINE
  8
0
 10
-15.1884
 20
-25.4941
 11
-15.5621
 21
-25.4469
  0
LINE
  8
0
 10
-15.5621
 20
-25.4469
 11
-15.927
 21
-25.3532
  0
LINE
  8
0
 10
-15.927
 20
-25.3532
 11
-16.2773
 21
-25.2145
  0
LINE
  8
0
 10
-16.2773
 20
-25.2145
 11
-16.6075
 21
-25.033
  0
LINE
  8
0
 10
-16.6075
 20
-25.033
 11
-16.9123
 21
-24.8115
  0
LINE
  8
0
 10
-16.9123
 20
-24.8115
 11
-17.1869
 21
-24.5536
  0
LINE
  8
0
 10
-17.1869
 20
-24.5536
 11
-17.427
 21
-24.2634
  0
LINE
  8
0
 10
-17.427
 20
-24.2634
 11
-17.6289
 21
-23.9453
  0
LINE
  8
0
 10
-17.6289
 20
-23.9453
 11
-17.7893
 21
-23.6044
  0
LINE
  8
0
 10
-17.7893
 20
-23.6044
 11
-17.9057
 21
-23.2461
  0
LINE
  8
0
 10
-17.9057
 20
-23.2461
 11
-17.9763
 21
-22.876
  0
LINE
  8
0
 10
-17.9763
 20
-22.876
 11
-18
 21
-22.5
  0
LINE
  8
0
 10
-18
 20
-22.5
 11
-17.9763
 21
-22.124
  0
LINE
  8
0
 10
-17.9763
 20
-22.124
 11
-17.9057
 21
-21.7539
  0
LINE
  8
0
 10
-17.9057
 20
-21.7539
 11
-17.7893
 21
-21.3956
  0
LINE
  8
0
 10
-17.7893
 20
-21.3956
 11
-17.6289
 21
-21.0547
  0
LINE
  8
0
 10
-17.6289
 20
-21.0547
 11
-17.427
 21
-20.7366
  0
LINE
  8
0
 10
-17.427
 20
-20.7366
 11
-17.1869
 21
-20.4464
  0
LINE
  8
0
 10
-17.1869
 20
-20.4464
 11
-16.9123
 21
-20.1884
  0
LINE
  8
0
 10
-16.9123
 20
-20.1884
 11
-16.6075
 21
-19.967
  0
LINE
  8
0
 10
-16.6075
 20
-19.967
 11
-16.2773
 21
-19.7855
  0
LINE
  8
0
 10
-16.2773
 20
-19.7855
 11
-15.927
 21
-19.6468
  0
LINE
  8
0
 10
-15.927
 20
-19.6468
 11
-15.5621
 21
-19.5531
  0
LINE
  8
0
 10
-15.5621
 20
-19.5531
 11
-15.1884
 21
-19.5059
  0
LINE
  8
0
 10
-15.1884
 20
-19.5059
 11
-14.8116
 21
-19.5059
  0
LINE
  8
0
 10
-14.8116
 20
-19.5059
 11
-14.4379
 21
-19.5531
  0
LINE
  8
0
 10
-14.4379
 20
-19.5531
 11
-14.0729
 21
-19.6468
  0
LINE
  8
0
 10
-14.0729
 20
-19.6468
 11
-13.7227
 21
-19.7855
  0
LINE
  8
0
 10
-13.7227
 20
-19.7855
 11
-13.3925
 21
-19.967
  0
LINE
  8
0
 10
-13.3925
 20
-19.967
 11
-13.0877
 21
-20.1884
  0
LINE
  8
0
 10
-13.0877
 20
-20.1884
 11
-12.8131
 21
-20.4464
  0
LINE
  8
0
 10
-12.8131
 20
-20.4464
 11
-12.5729
 21
-20.7366
  0
LINE
  8
0
 10
-12.5729
 20
-20.7366
 11
-12.3711
 21
-21.0547
  0
LINE
  8
0
 10
-12.3711
 20
-21.0547
 11
-12.2107
 21
-21.3956
  0
LINE
  8
0
 10
-12.2107
 20
-21.3956
 11
-12.0942
 21
-21.7539
  0
LINE
  8
0
 10
-12.0942
 20
-21.7539
 11
-12.0237
 21
-22.124
  0
LINE
  8
0
 10
-12.0237
 20
-22.124
 11
-12
 21
-22.5
  0
LINE
  8
0
 10
-12
 20
-22.5
 11
-12.0237
 21
-22.876
  0
LINE
  8
0
 10
-12.0237
 20
-22.876
 11
-12.0942
 21
-23.2461
  0
LINE
  8
0
 10
-12.0942
 20
-23.2461
 11
-12.2107
 21
-23.6044
  0
LINE
  8
0
 10
-12.2107
 20
-23.6044
 11
-12.3711
 21
-23.9453
  0
LINE
  8
0
 10
-12.3711
 20
-23.9453
 11
-12.5729
 21
-24.2634
  0
LINE
  8
0
 10
-12.5729
 20
-24.2634
 11
-12.8131
 21
-24.5536
  0
LINE
  8
0
 10
-12.8131
 20
-24.5536
 11
-13.0877
 21
-24.8115
  0
LINE
  8
0
 10
-13.0877
 20
-24.8115
 11
-13.3925
 21
-25.033
  0
LINE
  8
0
 10
-13.3925
 20
-25.033
 11
-13.7227
 21
-25.2145
  0
LINE
  8
0
 10
-13.7227
 20
-25.2145
 11
-14.0729
 21
-25.3532
  0
LINE
  8
0
 10
-14.0729
 20
-25.3532
 11
-14.4379
 21
-25.4469
  0
LINE
  8
0
 10
-14.4379
 20
-25.4469
 11
-14.8116
 21
-25.4941
  0
LINE
  8
0
 10
-14.8116
 20
-25.4941
 11
-15.1884
 21
-25.4941
  0
LINE
  8
0
 10
14.8116
 20
-25.4941
 11
14.4379
 21
-25.4469
  0
LINE
  8
0
 10
14.4379
 20
-25.4469
 11
14.0729
 21
-25.3532
  0
LINE
  8
0
 10
14.0729
 20
-25.3532
 11
13.7227
 21
-25.2145
  0
LINE
  8
0
 10
13.7227
 20
-25.2145
 11
13.3925
 21
-25.033
  0
LINE
  8
0
 10
13.3925
 20
-25.033
 11
13.0877
 21
-24.8115
  0
LINE
  8
0
 10
13.0877
 20
-24.8115
 11
12.8131
 21
-24.5536
  0
LINE
  8
0
 10
12.8131
 20
-24.5536
 11
12.5729
 21
-24.2634
  0
LINE
  8
0
 10
12.5729
 20
-24.2634
 11
12.3711
 21
-23.9453
  0
LINE
  8
0
 10
12.3711
 20
-23.9453
 11
12.2107
 21
-23.6044
  0
LINE
  8
0
 10
12.2107
 20
-23.6044
 11
12.0942
 21
-23.2461
  0
LINE
  8
0
 10
12.0942
 20
-23.2461
 11
12.0237
 21
-22.876
  0
LINE
  8
0
 10
12.0237
 20
-22.876
 11
12
 21
-22.5
  0
LINE
  8
0
 10
12
 20
-22.5
 11
12.0237
 21
-22.124
  0
LINE
  8
0
 10
12.0237
 20
-22.124
 11
12.0942
 21
-21.7539
  0
LINE
  8
0
 10
12.0942
 20
-21.7539
 11
12.2107
 21
-21.3956
  0
LINE
  8
0
 10
12.2107
 20
-21.3956
 11
12.3711
 21
-21.0547
  0
LINE
  8
0
 10
12.3711
 20
-21.0547
 11
12.5729
 21
-20.7366
  0
LINE
  8
0
 10
12.5729
 20
-20.7366
 11
12.8131
 21
-20.4464
  0
LINE
  8
0
 10
12.8131
 20
-20.4464
 11
13.0877
 21
-20.1884
  0
LINE
  8
0
 10
13.0877
 20
-20.1884
 11
13.3925
 21
-19.967
  0
LINE
  8
0
 10
13.3925
 20
-19.967
 11
13.7227
 21
-19.7855
  0
LINE
  8
0
 10
13.7227
 20
-19.7855
 11
14.0729
 21
-19.6468
  0
LINE
  8
0
 10
14.0729
 20
-19.6468
 11
14.4379
 21
-19.5531
  0
LINE
  8
0
 10
14.4379
 20
-19.5531
 11
14.8116
 21
-19.5059
  0
LINE
  8
0
 10
14.8116
 20
-19.5059
 11
15.1884
 21
-19.5059
  0
LINE
  8
0
 10
15.1884
 20
-19.5059
 11
15.5621
 21
-19.5531
  0
LINE
  8
0
 10
15.5621
 20
-19.5531
 11
15.927
 21
-19.6468
  0
LINE
  8
0
 10
15.927
 20
-19.6468
 11
16.2773
 21
-19.7855
  0
LINE
  8
0
 10
16.2773
 20
-19.7855
 11
16.6075
 21
-19.967
  0
LINE
  8
0
 10
16.6075
 20
-19.967
 11
16.9123
 21
-20.1884
  0
LINE
  8
0
 10
16.9123
 20
-20.1884
 11
17.1869
 21
-20.4464
  0
LINE
  8
0
 10
17.1869
 20
-20.4464
 11
17.427
 21
-20.7366
  0
LINE
  8
0
 10
17.427
 20
-20.7366
 11
17.6289
 21
-21.0547
  0
LINE
  8
0
 10
17.6289
 20
-21.0547
 11
17.7893
 21
-21.3956
  0
LINE
  8
0
 10
17.7893
 20
-21.3956
 11
17.9057
 21
-21.7539
  0
LINE
  8
0
 10
17.9057
 20
-21.7539
 11
17.9763
 21
-22.124
  0
LINE
  8
0
 10
17.9763
 20
-22.124
 11
18
 21
-22.5
  0
LINE
  8
0
 10
18
 20
-22.5
 11
17.9763
 21
-22.876
  0
LINE
  8
0
 10
17.9763
 20
-22.876
 11
17.9057
 21
-23.2461
  0
LINE
  8
0
 10
17.9057
 20
-23.2461
 11
17.7893
 21
-23.6044
  0
LINE
  8
0
 10
17.7893
 20
-23.6044
 11
17.6289
 21
-23.9453
  0
LINE
  8
0
 10
17.6289
 20
-23.9453
 11
17.427
 21
-24.2634
  0
LINE
  8
0
 10
17.427
 20
-24.2634
 11
17.1869
 21
-24.5536
  0
LINE
  8
0
 10
17.1869
 20
-24.5536
 11
16.9123
 21
-24.8115
  0
LINE
  8
0
 10
16.9123
 20
-24.8115
 11
16.6075
 21
-25.033
  0
LINE
  8
0
 10
16.6075
 20
-25.033
 11
16.2773
 21
-25.2145
  0
LINE
  8
0
 10
16.2773
 20
-25.2145
 11
15.927
 21
-25.3532
  0
LINE
  8
0
 10
15.927
 20
-25.3532
 11
15.5621
 21
-25.4469
  0
LINE
  8
0
 10
15.5621
 20
-25.4469
 11
15.1884
 21
-25.4941
  0
LINE
  8
0
 10
15.1884
 20
-25.4941
 11
14.8116
 21
-25.4941
  0
LINE
  8
0
 10
-30.1884
 20
-25.4941
 11
-30.5621
 21
-25.4469
  0
LINE
  8
0
 10
-30.5621
 20
-25.4469
 11
-30.927
 21
-25.3532
  0
LINE
  8
0
 10
-30.927
 20
-25.3532
 11
-31.2773
 21
-25.2145
  0
LINE
  8
0
 10
-31.2773
 20
-25.2145
 11
-31.6075
 21
-25.033
  0
LINE
  8
0
 10
-31.6075
 20
-25.033
 11
-31.9123
 21
-24.8115
  0
LINE
  8
0
 10
-31.9123
 20
-24.8115
 11
-32.1869
 21
-24.5536
  0
LINE
  8
0
 10
-32.1869
 20
-24.5536
 11
-32.427
 21
-24.2634
  0
LINE
  8
0
 10
-32.427
 20
-24.2634
 11
-32.6289
 21
-23.9453
  0
LINE
  8
0
 10
-32.6289
 20
-23.9453
 11
-32.7893
 21
-23.6044
  0
LINE
  8
0
 10
-32.7893
 20
-23.6044
 11
-32.9057
 21
-23.2461
  0
LINE
  8
0
 10
-32.9057
 20
-23.2461
 11
-32.9763
 21
-22.876
  0
LINE
  8
0
 10
-32.9763
 20
-22.876
 11
-33
 21
-22.5
  0
LINE
  8
0
 10
-33
 20
-22.5
 11
-32.9763
 21
-22.124
  0
LINE
  8
0
 10
-32.9763
 20
-22.124
 11
-32.9057
 21
-21.7539
  0
LINE
  8
0
 10
-32.9057
 20
-21.7539
 11
-32.7893
 21
-21.3956
  0
LINE
  8
0
 10
-32.7893
 20
-21.3956
 11
-32.6289
 21
-21.0547
  0
LINE
  8
0
 10
-32.6289
 20
-21.0547
 11
-32.427
 21
-20.7366
  0
LINE
  8
0
 10
-32.427
 20
-20.7366
 11
-32.1869
 21
-20.4464
  0
LINE
  8
0
 10
-32.1869
 20
-20.4464
 11
-31.9123
 21
-20.1884
  0
LINE
  8
0
 10
-31.9123
 20
-20.1884
 11
-31.6075
 21
-19.967
  0
LINE
  8
0
 10
-31.6075
 20
-19.967
 11
-31.2773
 21
-19.7855
  0
LINE
  8
0
 10
-31.2773
 20
-19.7855
 11
-30.927
 21
-19.6468
  0
LINE
  8
0
 10
-30.927
 20
-19.6468
 11
-30.5621
 21
-19.5531
  0
LINE
  8
0
 10
-30.5621
 20
-19.5531
 11
-30.1884
 21
-19.5059
  0
LINE
  8
0
 10
-30.1884
 20
-19.5059
 11
-29.8116
 21
-19.5059
  0
LINE
  8
0
 10
-29.8116
 20
-19.5059
 11
-29.4379
 21
-19.5531
  0
LINE
  8
0
 10
-29.4379
 20
-19.5531
 11
-29.0729
 21
-19.6468
  0
LINE
  8
0
 10
-29.0729
 20
-19.6468
 11
-28.7227
 21
-19.7855
  0
LINE
  8
0
 10
-28.7227
 20
-19.7855
 11
-28.3925
 21
-19.967
  0
LINE
  8
0
 10
-28.3925
 20
-19.967
 11
-28.0877
 21
-20.1884
  0
LINE
  8
0
 10
-28.0877
 20
-20.1884
 11
-27.8131
 21
-20.4464
  0
LINE
  8
0
 10
-27.8131
 20
-20.4464
 11
-27.5729
 21
-20.7366
  0
LINE
  8
0
 10
-27.5729
 20
-20.7366
 11
-27.3711
 21
-21.0547
  0
LINE
  8
0
 10
-27.3711
 20
-21.0547
 11
-27.2107
 21
-21.3956
  0
LINE
  8
0
 10
-27.2107
 20
-21.3956
 11
-27.0942
 21
-21.7539
  0
LINE
  8
0
 10
-27.0942
 20
-21.7539
 11
-27.0237
 21
-22.124
  0
LINE
  8
0
 10
-27.0237
 20
-22.124
 11
-27
 21
-22.5
  0
LINE
  8
0
 10
-27
 20
-22.5
 11
-27.0237
 21
-22.876
  0
LINE
  8
0
 10
-27.0237
 20
-22.876
 11
-27.0942
 21
-23.2461
  0
LINE
  8
0
 10
-27.0942
 20
-23.2461
 11
-27.2107
 21
-23.6044
  0
LINE
  8
0
 10
-27.2107
 20
-23.6044
 11
-27.3711
 21
-23.9453
  0
LINE
  8
0
 10
-27.3711
 20
-23.9453
 11
-27.5729
 21
-24.2634
  0
LINE
  8
0
 10
-27.5729
 20
-24.2634
 11
-27.8131
 21
-24.5536
  0
LINE
  8
0
 10
-27.8131
 20
-24.5536
 11
-28.0877
 21
-24.8115
  0
LINE
  8
0
 10
-28.0877
 20
-24.8115
 11
-28.3925
 21
-25.033
  0
LINE
  8
0
 10
-28.3925
 20
-25.033
 11
-28.7227
 21
-25.2145
  0
LINE
  8
0
 10
-28.7227
 20
-25.2145
 11
-29.0729
 21
-25.3532
  0
LINE
  8
0
 10
-29.0729
 20
-25.3532
 11
-29.4379
 21
-25.4469
  0
LINE
  8
0
 10
-29.4379
 20
-25.4469
 11
-29.8116
 21
-25.4941
  0
LINE
  8
0
 10
-29.8116
 20
-25.4941
 11
-30.1884
 21
-25.4941
  0
LINE
  8
0
 10
29.8116
 20
-25.4941
 11
29.4379
 21
-25.4469
  0
LINE
  8
0
 10
29.4379
 20
-25.4469
 11
29.0729
 21
-25.3532
  0
LINE
  8
0
 10
29.0729
 20
-25.3532
 11
28.7227
 21
-25.2145
  0
LINE
  8
0
 10
28.7227
 20
-25.2145
 11
28.3925
 21
-25.033
  0
LINE
  8
0
 10
28.3925
 20
-25.033
 11
28.0877
 21
-24.8115
  0
LINE
  8
0
 10
28.0877
 20
-24.8115
 11
27.8131
 21
-24.5536
  0
LINE
  8
0
 10
27.8131
 20
-24.5536
 11
27.5729
 21
-24.2634
  0
LINE
  8
0
 10
27.5729
 20
-24.2634
 11
27.3711
 21
-23.9453
  0
LINE
  8
0
 10
27.3711
 20
-23.9453
 11
27.2107
 21
-23.6044
  0
LINE
  8
0
 10
27.2107
 20
-23.6044
 11
27.0942
 21
-23.2461
  0
LINE
  8
0
 10
27.0942
 20
-23.2461
 11
27.0237
 21
-22.876
  0
LINE
  8
0
 10
27.0237
 20
-22.876
 11
27
 21
-22.5
  0
LINE
  8
0
 10
27
 20
-22.5
 11
27.0237
 21
-22.124
  0
LINE
  8
0
 10
27.0237
 20
-22.124
 11
27.0942
 21
-21.7539
  0
LINE
  8
0
 10
27.0942
 20
-21.7539
 11
27.2107
 21
-21.3956
  0
LINE
  8
0
 10
27.2107
 20
-21.3956
 11
27.3711
 21
-21.0547
  0
LINE
  8
0
 10
27.3711
 20
-21.0547
 11
27.5729
 21
-20.7366
  0
LINE
  8
0
 10
27.5729
 20
-20.7366
 11
27.8131
 21
-20.4464
  0
LINE
  8
0
 10
27.8131
 20
-20.4464
 11
28.0877
 21
-20.1884
  0
LINE
  8
0
 10
28.0877
 20
-20.1884
 11
28.3925
 21
-19.967
  0
LINE
  8
0
 10
28.3925
 20
-19.967
 11
28.7227
 21
-19.7855
  0
LINE
  8
0
 10
28.7227
 20
-19.7855
 11
29.0729
 21
-19.6468
  0
LINE
  8
0
 10
29.0729
 20
-19.6468
 11
29.4379
 21
-19.5531
  0
LINE
  8
0
 10
29.4379
 20
-19.5531
 11
29.8116
 21
-19.5059
  0
LINE
  8
0
 10
29.8116
 20
-19.5059
 11
30.1884
 21
-19.5059
  0
LINE
  8
0
 10
30.1884
 20
-19.5059
 11
30.5621
 21
-19.5531
  0
LINE
  8
0
 10
30.5621
 20
-19.5531
 11
30.927
 21
-19.6468
  0
LINE
  8
0
 10
30.927
 20
-19.6468
 11
31.2773
 21
-19.7855
  0
LINE
  8
0
 10
31.2773
 20
-19.7855
 11
31.6075
 21
-19.967
  0
LINE
  8
0
 10
31.6075
 20
-19.967
 11
31.9123
 21
-20.1884
  0
LINE
  8
0
 10
31.9123
 20
-20.1884
 11
32.1869
 21
-20.4464
  0
LINE
  8
0
 10
32.1869
 20
-20.4464
 11
32.427
 21
-20.7366
  0
LINE
  8
0
 10
32.427
 20
-20.7366
 11
32.6289
 21
-21.0547
  0
LINE
  8
0
 10
32.6289
 20
-21.0547
 11
32.7893
 21
-21.3956
  0
LINE
  8
0
 10
32.7893
 20
-21.3956
 11
32.9057
 21
-21.7539
  0
LINE
  8
0
 10
32.9057
 20
-21.7539
 11
32.9763
 21
-22.124
  0
LINE
  8
0
 10
32.9763
 20
-22.124
 11
33
 21
-22.5
  0
LINE
  8
0
 10
33
 20
-22.5
 11
32.9763
 21
-22.876
  0
LINE
  8
0
 10
32.9763
 20
-22.876
 11
32.9057
 21
-23.2461
  0
LINE
  8
0
 10
32.9057
 20
-23.2461
 11
32.7893
 21
-23.6044
  0
LINE
  8
0
 10
32.7893
 20
-23.6044
 11
32.6289
 21
-23.9453
  0
LINE
  8
0
 10
32.6289
 20
-23.9453
 11
32.427
 21
-24.2634
  0
LINE
  8
0
 10
32.427
 20
-24.2634
 11
32.1869
 21
-24.5536
  0
LINE
  8
0
 10
32.1869
 20
-24.5536
 11
31.9123
 21
-24.8115
  0
LINE
  8
0
 10
31.9123
 20
-24.8115
 11
31.6075
 21
-25.033
  0
LINE
  8
0
 10
31.6075
 20
-25.033
 11
31.2773
 21
-25.2145
  0
LINE
  8
0
 10
31.2773
 20
-25.2145
 11
30.927
 21
-25.3532
  0
LINE
  8
0
 10
30.927
 20
-25.3532
 11
30.5621
 21
-25.4469
  0
LINE
  8
0
 10
30.5621
 20
-25.4469
 11
30.1884
 21
-25.4941
  0
LINE
  8
0
 10
30.1884
 20
-25.4941
 11
29.8116
 21
-25.4941
  0
LINE
  8
0
 10
-0.18837
 20
-25.4941
 11
-0.562134
 21
-25.4469
  0
LINE
  8
0
 10
-0.562134
 20
-25.4469
 11
-0.927048
 21
-25.3532
  0
LINE
  8
0
 10
-0.927048
 20
-25.3532
 11
-1.27733
 21
-25.2145
  0
LINE
  8
0
 10
-1.27733
 20
-25.2145
 11
-1.60747
 21
-25.033
  0
LINE
  8
0
 10
-1.60747
 20
-25.033
 11
-1.91226
 21
-24.8115
  0
LINE
  8
0
 10
-1.91226
 20
-24.8115
 11
-2.1869
 21
-24.5536
  0
LINE
  8
0
 10
-2.1869
 20
-24.5536
 11
-2.42705
 21
-24.2634
  0
LINE
  8
0
 10
-2.42705
 20
-24.2634
 11
-2.62891
 21
-23.9453
  0
LINE
  8
0
 10
-2.62891
 20
-23.9453
 11
-2.78932
 21
-23.6044
  0
LINE
  8
0
 10
-2.78932
 20
-23.6044
 11
-2.90575
 21
-23.2461
  0
LINE
  8
0
 10
-2.90575
 20
-23.2461
 11
-2.97633
 21
-22.876
  0
LINE
  8
0
 10
-2.97633
 20
-22.876
 11
-3
 21
-22.5
  0
LINE
  8
0
 10
-3
 20
-22.5
 11
-2.97633
 21
-22.124
  0
LINE
  8
0
 10
-2.97633
 20
-22.124
 11
-2.90575
 21
-21.7539
  0
LINE
  8
0
 10
-2.90575
 20
-21.7539
 11
-2.78932
 21
-21.3956
  0
LINE
  8
0
 10
-2.78932
 20
-21.3956
 11
-2.62891
 21
-21.0547
  0
LINE
  8
0
 10
-2.62891
 20
-21.0547
 11
-2.42705
 21
-20.7366
  0
LINE
  8
0
 10
-2.42705
 20
-20.7366
 11
-2.1869
 21
-20.4464
  0
LINE
  8
0
 10
-2.1869
 20
-20.4464
 11
-1.91226
 21
-20.1884
  0
LINE
  8
0
 10
-1.91226
 20
-20.1884
 11
-1.60747
 21
-19.967
  0
LINE
  8
0
 10
-1.60747
 20
-19.967
 11
-1.27733
 21
-19.7855
  0
LINE
  8
0
 10
-1.27733
 20
-19.7855
 11
-0.927048
 21
-19.6468
  0
LINE
  8
0
 10
-0.927048
 20
-19.6468
 11
-0.562134
 21
-19.5531
  0
LINE
  8
0
 10
-0.562134
 20
-19.5531
 11
-0.18837
 21
-19.5059
  0
LINE
  8
0
 10
-0.18837
 20
-19.5059
 11
0.18837
 21
-19.5059
  0
LINE
  8
0
 10
0.18837
 20
-19.5059
 11
0.562134
 21
-19.5531
  0
LINE
  8
0
 10
0.562134
 20
-19.5531
 11
0.927048
 21
-19.6468
  0
LINE
  8
0
 10
0.927048
 20
-19.6468
 11
1.27733
 21
-19.7855
  0
LINE
  8
0
 10
1.27733
 20
-19.7855
 11
1.60747
 21
-19.967
  0
LINE
  8
0
 10
1.60747
 20
-19.967
 11
1.91226
 21
-20.1884
  0
LINE
  8
0
 10
1.91226
 20
-20.1884
 11
2.1869
 21
-20.4464
  0
LINE
  8
0
 10
2.1869
 20
-20.4464
 11
2.42705
 21
-20.7366
  0
LINE
  8
0
 10
2.42705
 20
-20.7366
 11
2.62891
 21
-21.0547
  0
LINE
  8
0
 10
2.62891
 20
-21.0547
 11
2.78932
 21
-21.3956
  0
LINE
  8
0
 10
2.78932
 20
-21.3956
 11
2.90575
 21
-21.7539
  0
LINE
  8
0
 10
2.90575
 20
-21.7539
 11
2.97633
 21
-22.124
  0
LINE
  8
0
 10
2.97633
 20
-22.124
 11
3
 21
-22.5
  0
LINE
  8
0
 10
3
 20
-22.5
 11
2.97633
 21
-22.876
  0
LINE
  8
0
 10
2.97633
 20
-22.876
 11
2.90575
 21
-23.2461
  0
LINE
  8
0
 10
2.90575
 20
-23.2461
 11
2.78932
 21
-23.6044
  0
LINE
  8
0
 10
2.78932
 20
-23.6044
 11
2.62891
 21
-23.9453
  0
LINE
  8
0
 10
2.62891
 20
-23.9453
 11
2.42705
 21
-24.2634
  0
LINE
  8
0
 10
2.42705
 20
-24.2634
 11
2.1869
 21
-24.5536
  0
LINE
  8
0
 10
2.1869
 20
-24.5536
 11
1.91226
 21
-24.8115
  0
LINE
  8
0
 10
1.91226
 20
-24.8115
 11
1.60747
 21
-25.033
  0
LINE
  8
0
 10
1.60747
 20
-25.033
 11
1.27733
 21
-25.2145
  0
LINE
  8
0
 10
1.27733
 20
-25.2145
 11
0.927048
 21
-25.3532
  0
LINE
  8
0
 10
0.927048
 20
-25.3532
 11
0.562134
 21
-25.4469
  0
LINE
  8
0
 10
0.562134
 20
-25.4469
 11
0.18837
 21
-25.4941
  0
LINE
  8
0
 10
0.18837
 20
-25.4941
 11
-0.18837
 21
-25.4941
  0
LINE
  8
0
 10
-45.1884
 20
-25.4941
 11
-45.5621
 21
-25.4469
  0
LINE
  8
0
 10
-45.5621
 20
-25.4469
 11
-45.927
 21
-25.3532
  0
LINE
  8
0
 10
-45.927
 20
-25.3532
 11
-46.2773
 21
-25.2145
  0
LINE
  8
0
 10
-46.2773
 20
-25.2145
 11
-46.6075
 21
-25.033
  0
LINE
  8
0
 10
-46.6075
 20
-25.033
 11
-46.9123
 21
-24.8115
  0
LINE
  8
0
 10
-46.9123
 20
-24.8115
 11
-47.1869
 21
-24.5536
  0
LINE
  8
0
 10
-47.1869
 20
-24.5536
 11
-47.427
 21
-24.2634
  0
LINE
  8
0
 10
-47.427
 20
-24.2634
 11
-47.6289
 21
-23.9453
  0
LINE
  8
0
 10
-47.6289
 20
-23.9453
 11
-47.7893
 21
-23.6044
  0
LINE
  8
0
 10
-47.7893
 20
-23.6044
 11
-47.9057
 21
-23.2461
  0
LINE
  8
0
 10
-47.9057
 20
-23.2461
 11
-47.9763
 21
-22.876
  0
LINE
  8
0
 10
-47.9763
 20
-22.876
 11
-48
 21
-22.5
  0
LINE
  8
0
 10
-48
 20
-22.5
 11
-47.9763
 21
-22.124
  0
LINE
  8
0
 10
-47.9763
 20
-22.124
 11
-47.9057
 21
-21.7539
  0
LINE
  8
0
 10
-47.9057
 20
-21.7539
 11
-47.7893
 21
-21.3956
  0
LINE
  8
0
 10
-47.7893
 20
-21.3956
 11
-47.6289
 21
-21.0547
  0
LINE
  8
0
 10
-47.6289
 20
-21.0547
 11
-47.427
 21
-20.7366
  0
LINE
  8
0
 10
-47.427
 20
-20.7366
 11
-47.1869
 21
-20.4464
  0
LINE
  8
0
 10
-47.1869
 20
-20.4464
 11
-46.9123
 21
-20.1884
  0
LINE
  8
0
 10
-46.9123
 20
-20.1884
 11
-46.6075
 21
-19.967
  0
LINE
  8
0
 10
-46.6075
 20
-19.967
 11
-46.2773
 21
-19.7855
  0
LINE
  8
0
 10
-46.2773
 20
-19.7855
 11
-45.927
 21
-19.6468
  0
LINE
  8
0
 10
-45.927
 20
-19.6468
 11
-45.5621
 21
-19.5531
  0
LINE
  8
0
 10
-45.5621
 20
-19.5531
 11
-45.1884
 21
-19.5059
  0
LINE
  8
0
 10
-45.1884
 20
-19.5059
 11
-44.8116
 21
-19.5059
  0
LINE
  8
0
 10
-44.8116
 20
-19.5059
 11
-44.4379
 21
-19.5531
  0
LINE
  8
0
 10
-44.4379
 20
-19.5531
 11
-44.0729
 21
-19.6468
  0
LINE
  8
0
 10
-44.0729
 20
-19.6468
 11
-43.7227
 21
-19.7855
  0
LINE
  8
0
 10
-43.7227
 20
-19.7855
 11
-43.3925
 21
-19.967
  0
LINE
  8
0
 10
-43.3925
 20
-19.967
 11
-43.0877
 21
-20.1884
  0
LINE
  8
0
 10
-43.0877
 20
-20.1884
 11
-42.8131
 21
-20.4464
  0
LINE
  8
0
 10
-42.8131
 20
-20.4464
 11
-42.5729
 21
-20.7366
  0
LINE
  8
0
 10
-42.5729
 20
-20.7366
 11
-42.3711
 21
-21.0547
  0
LINE
  8
0
 10
-42.3711
 20
-21.0547
 11
-42.2107
 21
-21.3956
  0
LINE
  8
0
 10
-42.2107
 20
-21.3956
 11
-42.0942
 21
-21.7539
  0
LINE
  8
0
 10
-42.0942
 20
-21.7539
 11
-42.0237
 21
-22.124
  0
LINE
  8
0
 10
-42.0237
 20
-22.124
 11
-42
 21
-22.5
  0
LINE
  8
0
 10
-42
 20
-22.5
 11
-42.0237
 21
-22.876
  0
LINE
  8
0
 10
-42.0237
 20
-22.876
 11
-42.0942
 21
-23.2461
  0
LINE
  8
0
 10
-42.0942
 20
-23.2461
 11
-42.2107
 21
-23.6044
  0
LINE
  8
0
 10
-42.2107
 20
-23.6044
 11
-42.3711
 21
-23.9453
  0
LINE
  8
0
 10
-42.3711
 20
-23.9453
 11
-42.5729
 21
-24.2634
  0
LINE
  8
0
 10
-42.5729
 20
-24.2634
 11
-42.8131
 21
-24.5536
  0
LINE
  8
0
 10
-42.8131
 20
-24.5536
 11
-43.0877
 21
-24.8115
  0
LINE
  8
0
 10
-43.0877
 20
-24.8115
 11
-43.3925
 21
-25.033
  0
LINE
  8
0
 10
-43.3925
 20
-25.033
 11
-43.7227
 21
-25.2145
  0
LINE
  8
0
 10
-43.7227
 20
-25.2145
 11
-44.0729
 21
-25.3532
  0
LINE
  8
0
 10
-44.0729
 20
-25.3532
 11
-44.4379
 21
-25.4469
  0
LINE
  8
0
 10
-44.4379
 20
-25.4469
 11
-44.8116
 21
-25.4941
  0
LINE
  8
0
 10
-44.8116
 20
-25.4941
 11
-45.1884
 21
-25.4941
  0
LINE
  8
0
 10
44.8116
 20
-25.4941
 11
44.4379
 21
-25.4469
  0
LINE
  8
0
 10
44.4379
 20
-25.4469
 11
44.0729
 21
-25.3532
  0
LINE
  8
0
 10
44.0729
 20
-25.3532
 11
43.7227
 21
-25.2145
  0
LINE
  8
0
 10
43.7227
 20
-25.2145
 11
43.3925
 21
-25.033
  0
LINE
  8
0
 10
43.3925
 20
-25.033
 11
43.0877
 21
-24.8115
  0
LINE
  8
0
 10
43.0877
 20
-24.8115
 11
42.8131
 21
-24.5536
  0
LINE
  8
0
 10
42.8131
 20
-24.5536
 11
42.5729
 21
-24.2634
  0
LINE
  8
0
 10
42.5729
 20
-24.2634
 11
42.3711
 21
-23.9453
  0
LINE
  8
0
 10
42.3711
 20
-23.9453
 11
42.2107
 21
-23.6044
  0
LINE
  8
0
 10
42.2107
 20
-23.6044
 11
42.0942
 21
-23.2461
  0
LINE
  8
0
 10
42.0942
 20
-23.2461
 11
42.0237
 21
-22.876
  0
LINE
  8
0
 10
42.0237
 20
-22.876
 11
42
 21
-22.5
  0
LINE
  8
0
 10
42
 20
-22.5
 11
42.0237
 21
-22.124
  0
LINE
  8
0
 10
42.0237
 20
-22.124
 11
42.0942
 21
-21.7539
  0
LINE
  8
0
 10
42.0942
 20
-21.7539
 11
42.2107
 21
-21.3956
  0
LINE
  8
0
 10
42.2107
 20
-21.3956
 11
42.3711
 21
-21.0547
  0
LINE
  8
0
 10
42.3711
 20
-21.0547
 11
42.5729
 21
-20.7366
  0
LINE
  8
0
 10
42.5729
 20
-20.7366
 11
42.8131
 21
-20.4464
  0
LINE
  8
0
 10
42.8131
 20
-20.4464
 11
43.0877
 21
-20.1884
  0
LINE
  8
0
 10
43.0877
 20
-20.1884
 11
43.3925
 21
-19.967
  0
LINE
  8
0
 10
43.3925
 20
-19.967
 11
43.7227
 21
-19.7855
  0
LINE
  8
0
 10
43.7227
 20
-19.7855
 11
44.0729
 21
-19.6468
  0
LINE
  8
0
 10
44.0729
 20
-19.6468
 11
44.4379
 21
-19.5531
  0
LINE
  8
0
 10
44.4379
 20
-19.5531
 11
44.8116
 21
-19.5059
  0
LINE
  8
0
 10
44.8116
 20
-19.5059
 11
45.1884
 21
-19.5059
  0
LINE
  8
0
 10
45.1884
 20
-19.5059
 11
45.5621
 21
-19.5531
  0
LINE
  8
0
 10
45.5621
 20
-19.5531
 11
45.927
 21
-19.6468
  0
LINE
  8
0
 10
45.927
 20
-19.6468
 11
46.2773
 21
-19.7855
  0
LINE
  8
0
 10
46.2773
 20
-19.7855
 11
46.6075
 21
-19.967
  0
LINE
  8
0
 10
46.6075
 20
-19.967
 11
46.9123
 21
-20.1884
  0
LINE
  8
0
 10
46.9123
 20
-20.1884
 11
47.1869
 21
-20.4464
  0
LINE
  8
0
 10
47.1869
 20
-20.4464
 11
47.427
 21
-20.7366
  0
LINE
  8
0
 10
47.427
 20
-20.7366
 11
47.6289
 21
-21.0547
  0
LINE
  8
0
 10
47.6289
 20
-21.0547
 11
47.7893
 21
-21.3956
  0
LINE
  8
0
 10
47.7893
 20
-21.3956
 11
47.9057
 21
-21.7539
  0
LINE
  8
0
 10
47.9057
 20
-21.7539
 11
47.9763
 21
-22.124
  0
LINE
  8
0
 10
47.9763
 20
-22.124
 11
48
 21
-22.5
  0
LINE
  8
0
 10
48
 20
-22.5
 11
47.9763
 21
-22.876
  0
LINE
  8
0
 10
47.9763
 20
-22.876
 11
47.9057
 21
-23.2461
  0
LINE
  8
0
 10
47.9057
 20
-23.2461
 11
47.7893
 21
-23.6044
  0
LINE
  8
0
 10
47.7893
 20
-23.6044
 11
47.6289
 21
-23.9453
  0
LINE
  8
0
 10
47.6289
 20
-23.9453
 11
47.427
 21
-24.2634
  0
LINE
  8
0
 10
47.427
 20
-24.2634
 11
47.1869
 21
-24.5536
  0
LINE
  8
0
 10
47.1869
 20
-24.5536
 11
46.9123
 21
-24.8115
  0
LINE
  8
0
 10
46.9123
 20
-24.8115
 11
46.6075
 21
-25.033
  0
LINE
  8
0
 10
46.6075
 20
-25.033
 11
46.2773
 21
-25.2145
  0
LINE
  8
0
 10
46.2773
 20
-25.2145
 11
45.927
 21
-25.3532
  0
LINE
  8
0
 10
45.927
 20
-25.3532
 11
45.5621
 21
-25.4469
  0
LINE
  8
0
 10
45.5621
 20
-25.4469
 11
45.1884
 21
-25.4941
  0
LINE
  8
0
 10
45.1884
 20
-25.4941
 11
44.8116
 21
-25.4941
  0
LINE
  8
0
 10
-22.5942
 20
-23.997
 11
-22.7811
 21
-23.9734
  0
LINE
  8
0
 10
-22.7811
 20
-23.9734
 11
-22.9635
 21
-23.9266
  0
LINE
  8
0
 10
-22.9635
 20
-23.9266
 11
-23.1387
 21
-23.8572
  0
LINE
  8
0
 10
-23.1387
 20
-23.8572
 11
-23.3037
 21
-23.7665
  0
LINE
  8
0
 10
-23.3037
 20
-23.7665
 11
-23.4561
 21
-23.6558
  0
LINE
  8
0
 10
-23.4561
 20
-23.6558
 11
-23.5934
 21
-23.5268
  0
LINE
  8
0
 10
-23.5934
 20
-23.5268
 11
-23.7135
 21
-23.3817
  0
LINE
  8
0
 10
-23.7135
 20
-23.3817
 11
-23.8145
 21
-23.2226
  0
LINE
  8
0
 10
-23.8145
 20
-23.2226
 11
-23.8947
 21
-23.0522
  0
LINE
  8
0
 10
-23.8947
 20
-23.0522
 11
-23.9529
 21
-22.873
  0
LINE
  8
0
 10
-23.9529
 20
-22.873
 11
-23.9882
 21
-22.688
  0
LINE
  8
0
 10
-23.9882
 20
-22.688
 11
-24
 21
-22.5
  0
LINE
  8
0
 10
-24
 20
-22.5
 11
-23.9882
 21
-22.312
  0
LINE
  8
0
 10
-23.9882
 20
-22.312
 11
-23.9529
 21
-22.127
  0
LINE
  8
0
 10
-23.9529
 20
-22.127
 11
-23.8947
 21
-21.9478
  0
LINE
  8
0
 10
-23.8947
 20
-21.9478
 11
-23.8145
 21
-21.7774
  0
LINE
  8
0
 10
-23.8145
 20
-21.7774
 11
-23.7135
 21
-21.6183
  0
LINE
  8
0
 10
-23.7135
 20
-21.6183
 11
-23.5934
 21
-21.4732
  0
LINE
  8
0
 10
-23.5934
 20
-21.4732
 11
-23.4561
 21
-21.3442
  0
LINE
  8
0
 10
-23.4561
 20
-21.3442
 11
-23.3037
 21
-21.2335
  0
LINE
  8
0
 10
-23.3037
 20
-21.2335
 11
-23.1387
 21
-21.1427
  0
LINE
  8
0
 10
-23.1387
 20
-21.1427
 11
-22.9635
 21
-21.0734
  0
LINE
  8
0
 10
-22.9635
 20
-21.0734
 11
-22.7811
 21
-21.0266
  0
LINE
  8
0
 10
-22.7811
 20
-21.0266
 11
-22.5942
 21
-21.003
  0
LINE
  8
0
 10
-22.5942
 20
-21.003
 11
-22.4058
 21
-21.003
  0
LINE
  8
0
 10
-22.4058
 20
-21.003
 11
-22.2189
 21
-21.0266
  0
LINE
  8
0
 10
-22.2189
 20
-21.0266
 11
-22.0365
 21
-21.0734
  0
LINE
  8
0
 10
-22.0365
 20
-21.0734
 11
-21.8613
 21
-21.1427
  0
LINE
  8
0
 10
-21.8613
 20
-21.1427
 11
-21.6963
 21
-21.2335
  0
LINE
  8
0
 10
-21.6963
 20
-21.2335
 11
-21.5439
 21
-21.3442
  0
LINE
  8
0
 10
-21.5439
 20
-21.3442
 11
-21.4065
 21
-21.4732
  0
LINE
  8
0
 10
-21.4065
 20
-21.4732
 11
-21.2865
 21
-21.6183
  0
LINE
  8
0
 10
-21.2865
 20
-21.6183
 11
-21.1855
 21
-21.7774
  0
LINE
  8
0
 10
-21.1855
 20
-21.7774
 11
-21.1053
 21
-21.9478
  0
LINE
  8
0
 10
-21.1053
 20
-21.9478
 11
-21.0471
 21
-22.127
  0
LINE
  8
0
 10
-21.0471
 20
-22.127
 11
-21.0118
 21
-22.312
  0
LINE
  8
0
 10
-21.0118
 20
-22.312
 11
-21
 21
-22.5
  0
LINE
  8
0
 10
-21
 20
-22.5
 11
-21.0118
 21
-22.688
  0
LINE
  8
0
 10
-21.0118
 20
-22.688
 11
-21.0471
 21
-22.873
  0
LINE
  8
0
 10
-21.0471
 20
-22.873
 11
-21.1053
 21
-23.0522
  0
LINE
  8
0
 10
-21.1053
 20
-23.0522
 11
-21.1855
 21
-23.2226
  0
LINE
  8
0
 10
-21.1855
 20
-23.2226
 11
-21.2865
 21
-23.3817
  0
LINE
  8
0
 10
-21.2865
 20
-23.3817
 11
-21.4065
 21
-23.5268
  0
LINE
  8
0
 10
-21.4065
 20
-23.5268
 11
-21.5439
 21
-23.6558
  0
LINE
  8
0
 10
-21.5439
 20
-23.6558
 11
-21.6963
 21
-23.7665
  0
LINE
  8
0
 10
-21.6963
 20
-23.7665
 11
-21.8613
 21
-23.8572
  0
LINE
  8
0
 10
-21.8613
 20
-23.8572
 11
-22.0365
 21
-23.9266
  0
LINE
  8
0
 10
-22.0365
 20
-23.9266
 11
-22.2189
 21
-23.9734
  0
LINE
  8
0
 10
-22.2189
 20
-23.9734
 11
-22.4058
 21
-23.997
  0
LINE
  8
0
 10
-22.4058
 20
-23.997
 11
-22.5942
 21
-23.997
  0
LINE
  8
0
 10
-37.5942
 20
-23.997
 11
-37.7811
 21
-23.9734
  0
LINE
  8
0
 10
-37.7811
 20
-23.9734
 11
-37.9635
 21
-23.9266
  0
LINE
  8
0
 10
-37.9635
 20
-23.9266
 11
-38.1387
 21
-23.8572
  0
LINE
  8
0
 10
-38.1387
 20
-23.8572
 11
-38.3037
 21
-23.7665
  0
LINE
  8
0
 10
-38.3037
 20
-23.7665
 11
-38.4561
 21
-23.6558
  0
LINE
  8
0
 10
-38.4561
 20
-23.6558
 11
-38.5934
 21
-23.5268
  0
LINE
  8
0
 10
-38.5934
 20
-23.5268
 11
-38.7135
 21
-23.3817
  0
LINE
  8
0
 10
-38.7135
 20
-23.3817
 11
-38.8145
 21
-23.2226
  0
LINE
  8
0
 10
-38.8145
 20
-23.2226
 11
-38.8947
 21
-23.0522
  0
LINE
  8
0
 10
-38.8947
 20
-23.0522
 11
-38.9529
 21
-22.873
  0
LINE
  8
0
 10
-38.9529
 20
-22.873
 11
-38.9882
 21
-22.688
  0
LINE
  8
0
 10
-38.9882
 20
-22.688
 11
-39
 21
-22.5
  0
LINE
  8
0
 10
-39
 20
-22.5
 11
-38.9882
 21
-22.312
  0
LINE
  8
0
 10
-38.9882
 20
-22.312
 11
-38.9529
 21
-22.127
  0
LINE
  8
0
 10
-38.9529
 20
-22.127
 11
-38.8947
 21
-21.9478
  0
LINE
  8
0
 10
-38.8947
 20
-21.9478
 11
-38.8145
 21
-21.7774
  0
LINE
  8
0
 10
-38.8145
 20
-21.7774
 11
-38.7135
 21
-21.6183
  0
LINE
  8
0
 10
-38.7135
 20
-21.6183
 11
-38.5934
 21
-21.4732
  0
LINE
  8
0
 10
-38.5934
 20
-21.4732
 11
-38.4561
 21
-21.3442
  0
LINE
  8
0
 10
-38.4561
 20
-21.3442
 11
-38.3037
 21
-21.2335
  0
LINE
  8
0
 10
-38.3037
 20
-21.2335
 11
-38.1387
 21
-21.1427
  0
LINE
  8
0
 10
-38.1387
 20
-21.1427
 11
-37.9635
 21
-21.0734
  0
LINE
  8
0
 10
-37.9635
 20
-21.0734
 11
-37.7811
 21
-21.0266
  0
LINE
  8
0
 10
-37.7811
 20
-21.0266
 11
-37.5942
 21
-21.003
  0
LINE
  8
0
 10
-37.5942
 20
-21.003
 11
-37.4058
 21
-21.003
  0
LINE
  8
0
 10
-37.4058
 20
-21.003
 11
-37.2189
 21
-21.0266
  0
LINE
  8
0
 10
-37.2189
 20
-21.0266
 11
-37.0365
 21
-21.0734
  0
LINE
  8
0
 10
-37.0365
 20
-21.0734
 11
-36.8613
 21
-21.1427
  0
LINE
  8
0
 10
-36.8613
 20
-21.1427
 11
-36.6963
 21
-21.2335
  0
LINE
  8
0
 10
-36.6963
 20
-21.2335
 11
-36.5439
 21
-21.3442
  0
LINE
  8
0
 10
-36.5439
 20
-21.3442
 11
-36.4065
 21
-21.4732
  0
LINE
  8
0
 10
-36.4065
 20
-21.4732
 11
-36.2865
 21
-21.6183
  0
LINE
  8
0
 10
-36.2865
 20
-21.6183
 11
-36.1855
 21
-21.7774
  0
LINE
  8
0
 10
-36.1855
 20
-21.7774
 11
-36.1053
 21
-21.9478
  0
LINE
  8
0
 10
-36.1053
 20
-21.9478
 11
-36.0471
 21
-22.127
  0
LINE
  8
0
 10
-36.0471
 20
-22.127
 11
-36.0118
 21
-22.312
  0
LINE
  8
0
 10
-36.0118
 20
-22.312
 11
-36
 21
-22.5
  0
LINE
  8
0
 10
-36
 20
-22.5
 11
-36.0118
 21
-22.688
  0
LINE
  8
0
 10
-36.0118
 20
-22.688
 11
-36.0471
 21
-22.873
  0
LINE
  8
0
 10
-36.0471
 20
-22.873
 11
-36.1053
 21
-23.0522
  0
LINE
  8
0
 10
-36.1053
 20
-23.0522
 11
-36.1855
 21
-23.2226
  0
LINE
  8
0
 10
-36.1855
 20
-23.2226
 11
-36.2865
 21
-23.3817
  0
LINE
  8
0
 10
-36.2865
 20
-23.3817
 11
-36.4065
 21
-23.5268
  0
LINE
  8
0
 10
-36.4065
 20
-23.5268
 11
-36.5439
 21
-23.6558
  0
LINE
  8
0
 10
-36.5439
 20
-23.6558
 11
-36.6963
 21
-23.7665
  0
LINE
  8
0
 10
-36.6963
 20
-23.7665
 11
-36.8613
 21
-23.8572
  0
LINE
  8
0
 10
-36.8613
 20
-23.8572
 11
-37.0365
 21
-23.9266
  0
LINE
  8
0
 10
-37.0365
 20
-23.9266
 11
-37.2189
 21
-23.9734
  0
LINE
  8
0
 10
-37.2189
 20
-23.9734
 11
-37.4058
 21
-23.997
  0
LINE
  8
0
 10
-37.4058
 20
-23.997
 11
-37.5942
 21
-23.997
  0
LINE
  8
0
 10
7.40581
 20
-23.997
 11
7.21892
 21
-23.9734
  0
LINE
  8
0
 10
7.21892
 20
-23.9734
 11
7.03647
 21
-23.9266
  0
LINE
  8
0
 10
7.03647
 20
-23.9266
 11
6.86133
 21
-23.8572
  0
LINE
  8
0
 10
6.86133
 20
-23.8572
 11
6.69626
 21
-23.7665
  0
LINE
  8
0
 10
6.69626
 20
-23.7665
 11
6.54385
 21
-23.6558
  0
LINE
  8
0
 10
6.54385
 20
-23.6558
 11
6.40654
 21
-23.5268
  0
LINE
  8
0
 10
6.40654
 20
-23.5268
 11
6.28647
 21
-23.3817
  0
LINE
  8
0
 10
6.28647
 20
-23.3817
 11
6.18553
 21
-23.2226
  0
LINE
  8
0
 10
6.18553
 20
-23.2226
 11
6.10533
 21
-23.0522
  0
LINE
  8
0
 10
6.10533
 20
-23.0522
 11
6.04712
 21
-22.873
  0
LINE
  8
0
 10
6.04712
 20
-22.873
 11
6.01183
 21
-22.688
  0
LINE
  8
0
 10
6.01183
 20
-22.688
 11
6
 21
-22.5
  0
LINE
  8
0
 10
6
 20
-22.5
 11
6.01183
 21
-22.312
  0
LINE
  8
0
 10
6.01183
 20
-22.312
 11
6.04712
 21
-22.127
  0
LINE
  8
0
 10
6.04712
 20
-22.127
 11
6.10533
 21
-21.9478
  0
LINE
  8
0
 10
6.10533
 20
-21.9478
 11
6.18553
 21
-21.7774
  0
LINE
  8
0
 10
6.18553
 20
-21.7774
 11
6.28647
 21
-21.6183
  0
LINE
  8
0
 10
6.28647
 20
-21.6183
 11
6.40654
 21
-21.4732
  0
LINE
  8
0
 10
6.40654
 20
-21.4732
 11
6.54385
 21
-21.3442
  0
LINE
  8
0
 10
6.54385
 20
-21.3442
 11
6.69626
 21
-21.2335
  0
LINE
  8
0
 10
6.69626
 20
-21.2335
 11
6.86133
 21
-21.1427
  0
LINE
  8
0
 10
6.86133
 20
-21.1427
 11
7.03647
 21
-21.0734
  0
LINE
  8
0
 10
7.03647
 20
-21.0734
 11
7.21892
 21
-21.0266
  0
LINE
  8
0
 10
7.21892
 20
-21.0266
 11
7.40581
 21
-21.003
  0
LINE
  8
0
 10
7.40581
 20
-21.003
 11
7.59418
 21
-21.003
  0
LINE
  8
0
 10
7.59418
 20
-21.003
 11
7.78107
 21
-21.0266
  0
LINE
  8
0
 10
7.78107
 20
-21.0266
 11
7.96352
 21
-21.0734
  0
LINE
  8
0
 10
7.96352
 20
-21.0734
 11
8.13866
 21
-21.1427
  0
LINE
  8
0
 10
8.13866
 20
-21.1427
 11
8.30373
 21
-21.2335
  0
LINE
  8
0
 10
8.30373
 20
-21.2335
 11
8.45613
 21
-21.3442
  0
LINE
  8
0
 10
8.45613
 20
-21.3442
 11
8.59344
 21
-21.4732
  0
LINE
  8
0
 10
8.59344
 20
-21.4732
 11
8.71352
 21
-21.6183
  0
LINE
  8
0
 10
8.71352
 20
-21.6183
 11
8.81445
 21
-21.7774
  0
LINE
  8
0
 10
8.81445
 20
-21.7774
 11
8.89465
 21
-21.9478
  0
LINE
  8
0
 10
8.89465
 20
-21.9478
 11
8.95287
 21
-22.127
  0
LINE
  8
0
 10
8.95287
 20
-22.127
 11
8.98816
 21
-22.312
  0
LINE
  8
0
 10
8.98816
 20
-22.312
 11
9
 21
-22.5
  0
LINE
  8
0
 10
9
 20
-22.5
 11
8.98816
 21
-22.688
  0
LINE
  8
0
 10
8.98816
 20
-22.688
 11
8.95287
 21
-22.873
  0
LINE
  8
0
 10
8.95287
 20
-22.873
 11
8.89465
 21
-23.0522
  0
LINE
  8
0
 10
8.89465
 20
-23.0522
 11
8.81445
 21
-23.2226
  0
LINE
  8
0
 10
8.81445
 20
-23.2226
 11
8.71352
 21
-23.3817
  0
LINE
  8
0
 10
8.71352
 20
-23.3817
 11
8.59344
 21
-23.5268
  0
LINE
  8
0
 10
8.59344
 20
-23.5268
 11
8.45613
 21
-23.6558
  0
LINE
  8
0
 10
8.45613
 20
-23.6558
 11
8.30373
 21
-23.7665
  0
LINE
  8
0
 10
8.30373
 20
-23.7665
 11
8.13866
 21
-23.8572
  0
LINE
  8
0
 10
8.13866
 20
-23.8572
 11
7.96352
 21
-23.9266
  0
LINE
  8
0
 10
7.96352
 20
-23.9266
 11
7.78107
 21
-23.9734
  0
LINE
  8
0
 10
7.78107
 20
-23.9734
 11
7.59418
 21
-23.997
  0
LINE
  8
0
 10
7.59418
 20
-23.997
 11
7.40581
 21
-23.997
  0
LINE
  8
0
 10
37.4058
 20
-23.997
 11
37.2189
 21
-23.9734
  0
LINE
  8
0
 10
37.2189
 20
-23.9734
 11
37.0365
 21
-23.9266
  0
LINE
  8
0
 10
37.0365
 20
-23.9266
 11
36.8613
 21
-23.8572
  0
LINE
  8
0
 10
36.8613
 20
-23.8572
 11
36.6963
 21
-23.7665
  0
LINE
  8
0
 10
36.6963
 20
-23.7665
 11
36.5439
 21
-23.6558
  0
LINE
  8
0
 10
36.5439
 20
-23.6558
 11
36.4065
 21
-23.5268
  0
LINE
  8
0
 10
36.4065
 20
-23.5268
 11
36.2865
 21
-23.3817
  0
LINE
  8
0
 10
36.2865
 20
-23.3817
 11
36.1855
 21
-23.2226
  0
LINE
  8
0
 10
36.1855
 20
-23.2226
 11
36.1053
 21
-23.0522
  0
LINE
  8
0
 10
36.1053
 20
-23.0522
 11
36.0471
 21
-22.873
  0
LINE
  8
0
 10
36.0471
 20
-22.873
 11
36.0118
 21
-22.688
  0
LINE
  8
0
 10
36.0118
 20
-22.688
 11
36
 21
-22.5
  0
LINE
  8
0
 10
36
 20
-22.5
 11
36.0118
 21
-22.312
  0
LINE
  8
0
 10
36.0118
 20
-22.312
 11
36.0471
 21
-22.127
  0
LINE
  8
0
 10
36.0471
 20
-22.127
 11
36.1053
 21
-21.9478
  0
LINE
  8
0
 10
36.1053
 20
-21.9478
 11
36.1855
 21
-21.7774
  0
LINE
  8
0
 10
36.1855
 20
-21.7774
 11
36.2865
 21
-21.6183
  0
LINE
  8
0
 10
36.2865
 20
-21.6183
 11
36.4065
 21
-21.4732
  0
LINE
  8
0
 10
36.4065
 20
-21.4732
 11
36.5439
 21
-21.3442
  0
LINE
  8
0
 10
36.5439
 20
-21.3442
 11
36.6963
 21
-21.2335
  0
LINE
  8
0
 10
36.6963
 20
-21.2335
 11
36.8613
 21
-21.1427
  0
LINE
  8
0
 10
36.8613
 20
-21.1427
 11
37.0365
 21
-21.0734
  0
LINE
  8
0
 10
37.0365
 20
-21.0734
 11
37.2189
 21
-21.0266
  0
LINE
  8
0
 10
37.2189
 20
-21.0266
 11
37.4058
 21
-21.003
  0
LINE
  8
0
 10
37.4058
 20
-21.003
 11
37.5942
 21
-21.003
  0
LINE
  8
0
 10
37.5942
 20
-21.003
 11
37.7811
 21
-21.0266
  0
LINE
  8
0
 10
37.7811
 20
-21.0266
 11
37.9635
 21
-21.0734
  0
LINE
  8
0
 10
37.9635
 20
-21.0734
 11
38.1387
 21
-21.1427
  0
LINE
  8
0
 10
38.1387
 20
-21.1427
 11
38.3037
 21
-21.2335
  0
LINE
  8
0
 10
38.3037
 20
-21.2335
 11
38.4561
 21
-21.3442
  0
LINE
  8
0
 10
38.4561
 20
-21.3442
 11
38.5934
 21
-21.4732
  0
LINE
  8
0
 10
38.5934
 20
-21.4732
 11
38.7135
 21
-21.6183
  0
LINE
  8
0
 10
38.7135
 20
-21.6183
 11
38.8145
 21
-21.7774
  0
LINE
  8
0
 10
38.8145
 20
-21.7774
 11
38.8947
 21
-21.9478
  0
LINE
  8
0
 10
38.8947
 20
-21.9478
 11
38.9529
 21
-22.127
  0
LINE
  8
0
 10
38.9529
 20
-22.127
 11
38.9882
 21
-22.312
  0
LINE
  8
0
 10
38.9882
 20
-22.312
 11
39
 21
-22.5
  0
LINE
  8
0
 10
39
 20
-22.5
 11
38.9882
 21
-22.688
  0
LINE
  8
0
 10
38.9882
 20
-22.688
 11
38.9529
 21
-22.873
  0
LINE
  8
0
 10
38.9529
 20
-22.873
 11
38.8947
 21
-23.0522
  0
LINE
  8
0
 10
38.8947
 20
-23.0522
 11
38.8145
 21
-23.2226
  0
LINE
  8
0
 10
38.8145
 20
-23.2226
 11
38.7135
 21
-23.3817
  0
LINE
  8
0
 10
38.7135
 20
-23.3817
 11
38.5934
 21
-23.5268
  0
LINE
  8
0
 10
38.5934
 20
-23.5268
 11
38.4561
 21
-23.6558
  0
LINE
  8
0
 10
38.4561
 20
-23.6558
 11
38.3037
 21
-23.7665
  0
LINE
  8
0
 10
38.3037
 20
-23.7665
 11
38.1387
 21
-23.8572
  0
LINE
  8
0
 10
38.1387
 20
-23.8572
 11
37.9635
 21
-23.9266
  0
LINE
  8
0
 10
37.9635
 20
-23.9266
 11
37.7811
 21
-23.9734
  0
LINE
  8
0
 10
37.7811
 20
-23.9734
 11
37.5942
 21
-23.997
  0
LINE
  8
0
 10
37.5942
 20
-23.997
 11
37.4058
 21
-23.997
  0
LINE
  8
0
 10
-7.59418
 20
-23.997
 11
-7.78107
 21
-23.9734
  0
LINE
  8
0
 10
-7.78107
 20
-23.9734
 11
-7.96352
 21
-23.9266
  0
LINE
  8
0
 10
-7.96352
 20
-23.9266
 11
-8.13866
 21
-23.8572
  0
LINE
  8
0
 10
-8.13866
 20
-23.8572
 11
-8.30373
 21
-23.7665
  0
LINE
  8
0
 10
-8.30373
 20
-23.7665
 11
-8.45613
 21
-23.6558
  0
LINE
  8
0
 10
-8.45613
 20
-23.6558
 11
-8.59344
 21
-23.5268
  0
LINE
  8
0
 10
-8.59344
 20
-23.5268
 11
-8.71352
 21
-23.3817
  0
LINE
  8
0
 10
-8.71352
 20
-23.3817
 11
-8.81445
 21
-23.2226
  0
LINE
  8
0
 10
-8.81445
 20
-23.2226
 11
-8.89465
 21
-23.0522
  0
LINE
  8
0
 10
-8.89465
 20
-23.0522
 11
-8.95287
 21
-22.873
  0
LINE
  8
0
 10
-8.95287
 20
-22.873
 11
-8.98816
 21
-22.688
  0
LINE
  8
0
 10
-8.98816
 20
-22.688
 11
-9
 21
-22.5
  0
LINE
  8
0
 10
-9
 20
-22.5
 11
-8.98816
 21
-22.312
  0
LINE
  8
0
 10
-8.98816
 20
-22.312
 11
-8.95287
 21
-22.127
  0
LINE
  8
0
 10
-8.95287
 20
-22.127
 11
-8.89465
 21
-21.9478
  0
LINE
  8
0
 10
-8.89465
 20
-21.9478
 11
-8.81445
 21
-21.7774
  0
LINE
  8
0
 10
-8.81445
 20
-21.7774
 11
-8.71352
 21
-21.6183
  0
LINE
  8
0
 10
-8.71352
 20
-21.6183
 11
-8.59344
 21
-21.4732
  0
LINE
  8
0
 10
-8.59344
 20
-21.4732
 11
-8.45613
 21
-21.3442
  0
LINE
  8
0
 10
-8.45613
 20
-21.3442
 11
-8.30373
 21
-21.2335
  0
LINE
  8
0
 10
-8.30373
 20
-21.2335
 11
-8.13866
 21
-21.1427
  0
LINE
  8
0
 10
-8.13866
 20
-21.1427
 11
-7.96352
 21
-21.0734
  0
LINE
  8
0
 10
-7.96352
 20
-21.0734
 11
-7.78107
 21
-21.0266
  0
LINE
  8
0
 10
-7.78107
 20
-21.0266
 11
-7.59418
 21
-21.003
  0
LINE
  8
0
 10
-7.59418
 20
-21.003
 11
-7.40581
 21
-21.003
  0
LINE
  8
0
 10
-7.40581
 20
-21.003
 11
-7.21892
 21
-21.0266
  0
LINE
  8
0
 10
-7.21892
 20
-21.0266
 11
-7.03647
 21
-21.0734
  0
LINE
  8
0
 10
-7.03647
 20
-21.0734
 11
-6.86133
 21
-21.1427
  0
LINE
  8
0
 10
-6.86133
 20
-21.1427
 11
-6.69626
 21
-21.2335
  0
LINE
  8
0
 10
-6.69626
 20
-21.2335
 11
-6.54385
 21
-21.3442
  0
LINE
  8
0
 10
-6.54385
 20
-21.3442
 11
-6.40654
 21
-21.4732
  0
LINE
  8
0
 10
-6.40654
 20
-21.4732
 11
-6.28647
 21
-21.6183
  0
LINE
  8
0
 10
-6.28647
 20
-21.6183
 11
-6.18553
 21
-21.7774
  0
LINE
  8
0
 10
-6.18553
 20
-21.7774
 11
-6.10533
 21
-21.9478
  0
LINE
  8
0
 10
-6.10533
 20
-21.9478
 11
-6.04712
 21
-22.127
  0
LINE
  8
0
 10
-6.04712
 20
-22.127
 11
-6.01183
 21
-22.312
  0
LINE
  8
0
 10
-6.01183
 20
-22.312
 11
-6
 21
-22.5
  0
LINE
  8
0
 10
-6
 20
-22.5
 11
-6.01183
 21
-22.688
  0
LINE
  8
0
 10
-6.01183
 20
-22.688
 11
-6.04712
 21
-22.873
  0
LINE
  8
0
 10
-6.04712
 20
-22.873
 11
-6.10533
 21
-23.0522
  0
LINE
  8
0
 10
-6.10533
 20
-23.0522
 11
-6.18553
 21
-23.2226
  0
LINE
  8
0
 10
-6.18553
 20
-23.2226
 11
-6.28647
 21
-23.3817
  0
LINE
  8
0
 10
-6.28647
 20
-23.3817
 11
-6.40654
 21
-23.5268
  0
LINE
  8
0
 10
-6.40654
 20
-23.5268
 11
-6.54385
 21
-23.6558
  0
LINE
  8
0
 10
-6.54385
 20
-23.6558
 11
-6.69626
 21
-23.7665
  0
LINE
  8
0
 10
-6.69626
 20
-23.7665
 11
-6.86133
 21
-23.8572
  0
LINE
  8
0
 10
-6.86133
 20
-23.8572
 11
-7.03647
 21
-23.9266
  0
LINE
  8
0
 10
-7.03647
 20
-23.9266
 11
-7.21892
 21
-23.9734
  0
LINE
  8
0
 10
-7.21892
 20
-23.9734
 11
-7.40581
 21
-23.997
  0
LINE
  8
0
 10
-7.40581
 20
-23.997
 11
-7.59418
 21
-23.997
  0
LINE
  8
0
 10
22.4058
 20
-23.997
 11
22.2189
 21
-23.9734
  0
LINE
  8
0
 10
22.2189
 20
-23.9734
 11
22.0365
 21
-23.9266
  0
LINE
  8
0
 10
22.0365
 20
-23.9266
 11
21.8613
 21
-23.8572
  0
LINE
  8
0
 10
21.8613
 20
-23.8572
 11
21.6963
 21
-23.7665
  0
LINE
  8
0
 10
21.6963
 20
-23.7665
 11
21.5439
 21
-23.6558
  0
LINE
  8
0
 10
21.5439
 20
-23.6558
 11
21.4065
 21
-23.5268
  0
LINE
  8
0
 10
21.4065
 20
-23.5268
 11
21.2865
 21
-23.3817
  0
LINE
  8
0
 10
21.2865
 20
-23.3817
 11
21.1855
 21
-23.2226
  0
LINE
  8
0
 10
21.1855
 20
-23.2226
 11
21.1053
 21
-23.0522
  0
LINE
  8
0
 10
21.1053
 20
-23.0522
 11
21.0471
 21
-22.873
  0
LINE
  8
0
 10
21.0471
 20
-22.873
 11
21.0118
 21
-22.688
  0
LINE
  8
0
 10
21.0118
 20
-22.688
 11
21
 21
-22.5
  0
LINE
  8
0
 10
21
 20
-22.5
 11
21.0118
 21
-22.312
  0
LINE
  8
0
 10
21.0118
 20
-22.312
 11
21.0471
 21
-22.127
  0
LINE
  8
0
 10
21.0471
 20
-22.127
 11
21.1053
 21
-21.9478
  0
LINE
  8
0
 10
21.1053
 20
-21.9478
 11
21.1855
 21
-21.7774
  0
LINE
  8
0
 10
21.1855
 20
-21.7774
 11
21.2865
 21
-21.6183
  0
LINE
  8
0
 10
21.2865
 20
-21.6183
 11
21.4065
 21
-21.4732
  0
LINE
  8
0
 10
21.4065
 20
-21.4732
 11
21.5439
 21
-21.3442
  0
LINE
  8
0
 10
21.5439
 20
-21.3442
 11
21.6963
 21
-21.2335
  0
LINE
  8
0
 10
21.6963
 20
-21.2335
 11
21.8613
 21
-21.1427
  0
LINE
  8
0
 10
21.8613
 20
-21.1427
 11
22.0365
 21
-21.0734
  0
LINE
  8
0
 10
22.0365
 20
-21.0734
 11
22.2189
 21
-21.0266
  0
LINE
  8
0
 10
22.2189
 20
-21.0266
 11
22.4058
 21
-21.003
  0
LINE
  8
0
 10
22.4058
 20
-21.003
 11
22.5942
 21
-21.003
  0
LINE
  8
0
 10
22.5942
 20
-21.003
 11
22.7811
 21
-21.0266
  0
LINE
  8
0
 10
22.7811
 20
-21.0266
 11
22.9635
 21
-21.0734
  0
LINE
  8
0
 10
22.9635
 20
-21.0734
 11
23.1387
 21
-21.1427
  0
LINE
  8
0
 10
23.1387
 20
-21.1427
 11
23.3037
 21
-21.2335
  0
LINE
  8
0
 10
23.3037
 20
-21.2335
 11
23.4561
 21
-21.3442
  0
LINE
  8
0
 10
23.4561
 20
-21.3442
 11
23.5934
 21
-21.4732
  0
LINE
  8
0
 10
23.5934
 20
-21.4732
 11
23.7135
 21
-21.6183
  0
LINE
  8
0
 10
23.7135
 20
-21.6183
 11
23.8145
 21
-21.7774
  0
LINE
  8
0
 10
23.8145
 20
-21.7774
 11
23.8947
 21
-21.9478
  0
LINE
  8
0
 10
23.8947
 20
-21.9478
 11
23.9529
 21
-22.127
  0
LINE
  8
0
 10
23.9529
 20
-22.127
 11
23.9882
 21
-22.312
  0
LINE
  8
0
 10
23.9882
 20
-22.312
 11
24
 21
-22.5
  0
LINE
  8
0
 10
24
 20
-22.5
 11
23.9882
 21
-22.688
  0
LINE
  8
0
 10
23.9882
 20
-22.688
 11
23.9529
 21
-22.873
  0
LINE
  8
0
 10
23.9529
 20
-22.873
 11
23.8947
 21
-23.0522
  0
LINE
  8
0
 10
23.8947
 20
-23.0522
 11
23.8145
 21
-23.2226
  0
LINE
  8
0
 10
23.8145
 20
-23.2226
 11
23.7135
 21
-23.3817
  0
LINE
  8
0
 10
23.7135
 20
-23.3817
 11
23.5934
 21
-23.5268
  0
LINE
  8
0
 10
23.5934
 20
-23.5268
 11
23.4561
 21
-23.6558
  0
LINE
  8
0
 10
23.4561
 20
-23.6558
 11
23.3037
 21
-23.7665
  0
LINE
  8
0
 10
23.3037
 20
-23.7665
 11
23.1387
 21
-23.8572
  0
LINE
  8
0
 10
23.1387
 20
-23.8572
 11
22.9635
 21
-23.9266
  0
LINE
  8
0
 10
22.9635
 20
-23.9266
 11
22.7811
 21
-23.9734
  0
LINE
  8
0
 10
22.7811
 20
-23.9734
 11
22.5942
 21
-23.997
  0
LINE
  8
0
 10
22.5942
 20
-23.997
 11
22.4058
 21
-23.997
  0
LINE
  8
0
 10
-36.0471
 20
22.127
 11
-36.1053
 21
21.9478
  0
LINE
  8
0
 10
-36.1053
 20
21.9478
 11
-36.1855
 21
21.7774
  0
LINE
  8
0
 10
-36.1855
 20
21.7774
 11
-36.2865
 21
21.6183
  0
LINE
  8
0
 10
-36.2865
 20
21.6183
 11
-36.4065
 21
21.4732
  0
LINE
  8
0
 10
-36.4065
 20
21.4732
 11
-36.5439
 21
21.3442
  0
LINE
  8
0
 10
-36.5439
 20
21.3442
 11
-36.6963
 21
21.2335
  0
LINE
  8
0
 10
-36.6963
 20
21.2335
 11
-36.8613
 21
21.1427
  0
LINE
  8
0
 10
-36.8613
 20
21.1427
 11
-37.0365
 21
21.0734
  0
LINE
  8
0
 10
-37.0365
 20
21.0734
 11
-37.2189
 21
21.0266
  0
LINE
  8
0
 10
-37.2189
 20
21.0266
 11
-37.4058
 21
21.003
  0
LINE
  8
0
 10
-37.4058
 20
21.003
 11
-37.5942
 21
21.003
  0
LINE
  8
0
 10
-37.5942
 20
21.003
 11
-37.7811
 21
21.0266
  0
LINE
  8
0
 10
-37.7811
 20
21.0266
 11
-37.9635
 21
21.0734
  0
LINE
  8
0
 10
-37.9635
 20
21.0734
 11
-38.1387
 21
21.1427
  0
LINE
  8
0
 10
-38.1387
 20
21.1427
 11
-38.3037
 21
21.2335
  0
LINE
  8
0
 10
-38.3037
 20
21.2335
 11
-38.4561
 21
21.3442
  0
LINE
  8
0
 10
-38.4561
 20
21.3442
 11
-38.5934
 21
21.4732
  0
LINE
  8
0
 10
-38.5934
 20
21.4732
 11
-38.7135
 21
21.6183
  0
LINE
  8
0
 10
-38.7135
 20
21.6183
 11
-38.8145
 21
21.7774
  0
LINE
  8
0
 10
-38.8145
 20
21.7774
 11
-38.8947
 21
21.9478
  0
LINE
  8
0
 10
-38.8947
 20
21.9478
 11
-38.9529
 21
22.127
  0
LINE
  8
0
 10
-38.9529
 20
22.127
 11
-38.9882
 21
22.312
  0
LINE
  8
0
 10
-38.9882
 20
22.312
 11
-39
 21
22.5
  0
LINE
  8
0
 10
-39
 20
22.5
 11
-38.9882
 21
22.688
  0
LINE
  8
0
 10
-38.9882
 20
22.688
 11
-38.9529
 21
22.873
  0
LINE
  8
0
 10
-38.9529
 20
22.873
 11
-38.8947
 21
23.0522
  0
LINE
  8
0
 10
-38.8947
 20
23.0522
 11
-38.8145
 21
23.2226
  0
LINE
  8
0
 10
-38.8145
 20
23.2226
 11
-38.7135
 21
23.3817
  0
LINE
  8
0
 10
-38.7135
 20
23.3817
 11
-38.5934
 21
23.5268
  0
LINE
  8
0
 10
-38.5934
 20
23.5268
 11
-38.4561
 21
23.6558
  0
LINE
  8
0
 10
-38.4561
 20
23.6558
 11
-38.3037
 21
23.7665
  0
LINE
  8
0
 10
-38.3037
 20
23.7665
 11
-38.1387
 21
23.8572
  0
LINE
  8
0
 10
-38.1387
 20
23.8572
 11
-37.9635
 21
23.9266
  0
LINE
  8
0
 10
-37.9635
 20
23.9266
 11
-37.7811
 21
23.9734
  0
LINE
  8
0
 10
-37.7811
 20
23.9734
 11
-37.5942
 21
23.997
  0
LINE
  8
0
 10
-37.5942
 20
23.997
 11
-37.4058
 21
23.997
  0
LINE
  8
0
 10
-37.4058
 20
23.997
 11
-37.2189
 21
23.9734
  0
LINE
  8
0
 10
-37.2189
 20
23.9734
 11
-37.0365
 21
23.9266
  0
LINE
  8
0
 10
-37.0365
 20
23.9266
 11
-36.8613
 21
23.8572
  0
LINE
  8
0
 10
-36.8613
 20
23.8572
 11
-36.6963
 21
23.7665
  0
LINE
  8
0
 10
-36.6963
 20
23.7665
 11
-36.5439
 21
23.6558
  0
LINE
  8
0
 10
-36.5439
 20
23.6558
 11
-36.4065
 21
23.5268
  0
LINE
  8
0
 10
-36.4065
 20
23.5268
 11
-36.2865
 21
23.3817
  0
LINE
  8
0
 10
-36.2865
 20
23.3817
 11
-36.1855
 21
23.2226
  0
LINE
  8
0
 10
-36.1855
 20
23.2226
 11
-36.1053
 21
23.0522
  0
LINE
  8
0
 10
-36.1053
 20
23.0522
 11
-36.0471
 21
22.873
  0
LINE
  8
0
 10
-36.0471
 20
22.873
 11
-36.0118
 21
22.688
  0
LINE
  8
0
 10
-36.0118
 20
22.688
 11
-36
 21
22.5
  0
LINE
  8
0
 10
-36
 20
22.5
 11
-36.0118
 21
22.312
  0
LINE
  8
0
 10
-36.0118
 20
22.312
 11
-36.0471
 21
22.127
  0
ENDSEC
  0
SECTION
  2
OBJECTS
  0
DICTIONARY
  0
ENDSEC
  0
EOF
