<?xml version="1.0" standalone="no"?>
<!DOCTYPE svg PUBLIC "-//W3C//DTD SVG 1.1//EN" "http://www.w3.org/Graphics/SVG/1.1/DTD/svg11.dtd">
<svg width="40mm" height="108mm" viewBox="-21 -210 40 108" xmlns="http://www.w3.org/2000/svg" version="1.1">
<title>OpenSCAD Model</title>
<path d="
M -17.25,-182.507 L -16.8948,-182.077 L -16.4371,-181.647 L -15.9291,-181.278 L -15.3789,-180.976 L -14.7951,-180.745
 L -14.1869,-180.589 L -13.5639,-180.51 L 13.5639,-180.51 L 14.1869,-180.589 L 14.7951,-180.745 L 15.3789,-180.976
 L 15.9291,-181.278 L 16.4371,-181.647 L 16.8948,-182.077 L 17.2951,-182.561 L 17.6315,-183.091 L 17.8989,-183.659
 L 18.0929,-184.257 L 18.2106,-184.873 L 18.25,-185.5 L 18.25,-204.5 L 18.2106,-205.127 L 18.0929,-205.743
 L 17.8989,-206.341 L 17.6315,-206.909 L 17.2951,-207.439 L 16.8948,-207.923 L 16.4371,-208.353 L 15.9291,-208.722
 L 15.3789,-209.024 L 14.7951,-209.255 L 14.1869,-209.411 L 13.5639,-209.49 L -13.5639,-209.49 L -14.1869,-209.411
 L -14.7951,-209.255 L -15.3789,-209.024 L -15.9291,-208.722 L -16.4371,-208.353 L -16.8948,-207.923 L -17.25,-207.493
 L -17.25,-209.99 L -20.25,-209.99 L -20.25,-180.01 L -17.25,-180.01 z
M -13.5012,-181.508 L -13.9995,-181.571 L -14.4861,-181.696 L -14.9531,-181.881 L -15.3933,-182.123 L -15.7997,-182.418
 L -16.1659,-182.762 L -16.4861,-183.149 L -16.7552,-183.573 L -16.9691,-184.028 L -17.1243,-184.505 L -17.2184,-184.999
 L -17.25,-185.5 L -17.25,-204.5 L -17.2184,-205.001 L -17.1243,-205.495 L -16.9691,-205.972 L -16.7552,-206.427
 L -16.4861,-206.851 L -16.1659,-207.238 L -15.7997,-207.582 L -15.3933,-207.877 L -14.9531,-208.119 L -14.4861,-208.304
 L -13.9995,-208.429 L -13.5012,-208.492 L 13.5012,-208.492 L 13.9995,-208.429 L 14.4861,-208.304 L 14.9531,-208.119
 L 15.3933,-207.877 L 15.7997,-207.582 L 16.1659,-207.238 L 16.4861,-206.851 L 16.7552,-206.427 L 16.9691,-205.972
 L 17.1243,-205.495 L 17.2184,-205.001 L 17.25,-204.5 L 17.25,-185.5 L 17.2184,-184.999 L 17.1243,-184.505
 L 16.9691,-184.028 L 16.7552,-183.573 L 16.4861,-183.149 L 16.1659,-182.762 L 15.7997,-182.418 L 15.3933,-182.123
 L 14.9531,-181.881 L 14.4861,-181.696 L 13.9995,-181.571 L 13.5012,-181.508 z
M -17.25,-143.507 L -16.8948,-143.077 L -16.4371,-142.647 L -15.9291,-142.278 L -15.3789,-141.976 L -14.7951,-141.745
 L -14.1869,-141.589 L -13.5639,-141.51 L 13.5639,-141.51 L 14.1869,-141.589 L 14.7951,-141.745 L 15.3789,-141.976
 L 15.9291,-142.278 L 16.4371,-142.647 L 16.8948,-143.077 L 17.2951,-143.561 L 17.6315,-144.091 L 17.8989,-144.659
 L 18.0929,-145.257 L 18.2106,-145.873 L 18.25,-146.5 L 18.25,-165.5 L 18.2106,-166.127 L 18.0929,-166.743
 L 17.8989,-167.341 L 17.6315,-167.909 L 17.2951,-168.439 L 16.8948,-168.923 L 16.4371,-169.353 L 15.9291,-169.722
 L 15.3789,-170.024 L 14.7951,-170.255 L 14.1869,-170.411 L 13.5639,-170.49 L -13.5639,-170.49 L -14.1869,-170.411
 L -14.7951,-170.255 L -15.3789,-170.024 L -15.9291,-169.722 L -16.4371,-169.353 L -16.8948,-168.923 L -17.25,-168.493
 L -17.25,-170.979 L -20.25,-170.979 L -20.25,-141.021 L -17.25,-141.021 z
M -13.4454,-143.393 L -13.8333,-143.442 L -14.2119,-143.539 L -14.5754,-143.683 L -14.918,-143.872 L -15.2342,-144.101
 L -15.5192,-144.369 L -15.7684,-144.67 L -15.9779,-145 L -16.1443,-145.354 L -16.2651,-145.726 L -16.3384,-146.11
 L -16.3629,-146.5 L -16.3629,-165.5 L -16.3384,-165.89 L -16.2651,-166.274 L -16.1443,-166.646 L -15.9779,-167
 L -15.7684,-167.33 L -15.5192,-167.631 L -15.2342,-167.899 L -14.918,-168.128 L -14.5754,-168.317 L -14.2119,-168.461
 L -13.8333,-168.558 L -13.4454,-168.607 L 13.4454,-168.607 L 13.8333,-168.558 L 14.2119,-168.461 L 14.5754,-168.317
 L 14.918,-168.128 L 15.2342,-167.899 L 15.5192,-167.631 L 15.7684,-167.33 L 15.9779,-167 L 16.1443,-166.646
 L 16.2651,-166.274 L 16.3384,-165.89 L 16.3629,-165.5 L 16.3629,-146.5 L 16.3384,-146.11 L 16.2651,-145.726
 L 16.1443,-145.354 L 15.9779,-145 L 15.7684,-144.67 L 15.5192,-144.369 L 15.2342,-144.101 L 14.918,-143.872
 L 14.5754,-143.683 L 14.2119,-143.539 L 13.8333,-143.442 L 13.4454,-143.393 z
M 14.1869,-102.589 L 14.7951,-102.745 L 15.3789,-102.976 L 15.9291,-103.278 L 16.4371,-103.647 L 16.8948,-104.077
 L 17.2951,-104.561 L 17.6315,-105.091 L 17.8989,-105.659 L 18.0929,-106.257 L 18.2106,-106.873 L 18.25,-107.5
 L 18.25,-126.5 L 18.2106,-127.127 L 18.0929,-127.743 L 17.8989,-128.341 L 17.6315,-128.909 L 17.2951,-129.439
 L 16.8948,-129.923 L 16.4371,-130.353 L 15.9291,-130.722 L 15.3789,-131.024 L 14.7951,-131.255 L 14.1869,-131.411
 L 13.5639,-131.49 L -13.5639,-131.49 L -14.1869,-131.411 L -14.7951,-131.255 L -15.3789,-131.024 L -15.9291,-130.722
 L -16.4371,-130.353 L -16.8948,-129.923 L -17.25,-129.493 L -17.25,-130.653 L -20.25,-130.653 L -20.25,-103.347
 L -17.25,-103.347 L -17.25,-104.507 L -16.8948,-104.077 L -16.4371,-103.647 L -15.9291,-103.278 L -15.3789,-102.976
 L -14.7951,-102.745 L -14.1869,-102.589 L -13.5639,-102.51 L 13.5639,-102.51 z
M 11.0993,-122.105 L 10.8003,-122.143 L 10.5083,-122.217 L 10.2281,-122.328 L 9.964,-122.474 L 9.72017,-122.651
 L 9.50047,-122.857 L 9.30835,-123.089 L 9.14685,-123.344 L 9.01852,-123.617 L 8.9254,-123.903 L 8.86891,-124.199
 L 8.84999,-124.5 L 8.86891,-124.801 L 8.9254,-125.097 L 9.01852,-125.383 L 9.14685,-125.656 L 9.30835,-125.911
 L 9.50047,-126.143 L 9.72017,-126.349 L 9.964,-126.526 L 10.2281,-126.672 L 10.5083,-126.783 L 10.8003,-126.857
 L 11.0993,-126.895 L 11.4007,-126.895 L 11.6997,-126.857 L 11.9916,-126.783 L 12.2719,-126.672 L 12.536,-126.526
 L 12.7798,-126.349 L 12.9995,-126.143 L 13.1916,-125.911 L 13.3531,-125.656 L 13.4815,-125.383 L 13.5746,-125.097
 L 13.6311,-124.801 L 13.65,-124.5 L 13.6311,-124.199 L 13.5746,-123.903 L 13.4815,-123.617 L 13.3531,-123.344
 L 13.1916,-123.089 L 12.9995,-122.857 L 12.7798,-122.651 L 12.536,-122.474 L 12.2719,-122.328 L 11.9916,-122.217
 L 11.6997,-122.143 L 11.4007,-122.105 z
M -11.4007,-122.105 L -11.6997,-122.143 L -11.9916,-122.217 L -12.2719,-122.328 L -12.536,-122.474 L -12.7798,-122.651
 L -12.9995,-122.857 L -13.1916,-123.089 L -13.3531,-123.344 L -13.4815,-123.617 L -13.5746,-123.903 L -13.6311,-124.199
 L -13.65,-124.5 L -13.6311,-124.801 L -13.5746,-125.097 L -13.4815,-125.383 L -13.3531,-125.656 L -13.1916,-125.911
 L -12.9995,-126.143 L -12.7798,-126.349 L -12.536,-126.526 L -12.2719,-126.672 L -11.9916,-126.783 L -11.6997,-126.857
 L -11.4007,-126.895 L -11.0993,-126.895 L -10.8003,-126.857 L -10.5083,-126.783 L -10.2281,-126.672 L -9.964,-126.526
 L -9.72017,-126.349 L -9.50047,-126.143 L -9.30835,-125.911 L -9.14685,-125.656 L -9.01852,-125.383 L -8.9254,-125.097
 L -8.86891,-124.801 L -8.84999,-124.5 L -8.86891,-124.199 L -8.9254,-123.903 L -9.01852,-123.617 L -9.14685,-123.344
 L -9.30835,-123.089 L -9.50047,-122.857 L -9.72017,-122.651 L -9.964,-122.474 L -10.2281,-122.328 L -10.5083,-122.217
 L -10.8003,-122.143 L -11.0993,-122.105 z
M 11.0993,-107.105 L 10.8003,-107.143 L 10.5083,-107.217 L 10.2281,-107.328 L 9.964,-107.474 L 9.72017,-107.651
 L 9.50047,-107.857 L 9.30835,-108.089 L 9.14685,-108.344 L 9.01852,-108.617 L 8.9254,-108.903 L 8.86891,-109.199
 L 8.84999,-109.5 L 8.86891,-109.801 L 8.9254,-110.097 L 9.01852,-110.383 L 9.14685,-110.656 L 9.30835,-110.911
 L 9.50047,-111.143 L 9.72017,-111.349 L 9.964,-111.526 L 10.2281,-111.672 L 10.5083,-111.783 L 10.8003,-111.857
 L 11.0993,-111.895 L 11.4007,-111.895 L 11.6997,-111.857 L 11.9916,-111.783 L 12.2719,-111.672 L 12.536,-111.526
 L 12.7798,-111.349 L 12.9995,-111.143 L 13.1916,-110.911 L 13.3531,-110.656 L 13.4815,-110.383 L 13.5746,-110.097
 L 13.6311,-109.801 L 13.65,-109.5 L 13.6311,-109.199 L 13.5746,-108.903 L 13.4815,-108.617 L 13.3531,-108.344
 L 13.1916,-108.089 L 12.9995,-107.857 L 12.7798,-107.651 L 12.536,-107.474 L 12.2719,-107.328 L 11.9916,-107.217
 L 11.6997,-107.143 L 11.4007,-107.105 z
M -11.4007,-107.105 L -11.6997,-107.143 L -11.9916,-107.217 L -12.2719,-107.328 L -12.536,-107.474 L -12.7798,-107.651
 L -12.9995,-107.857 L -13.1916,-108.089 L -13.3531,-108.344 L -13.4815,-108.617 L -13.5746,-108.903 L -13.6311,-109.199
 L -13.65,-109.5 L -13.6311,-109.801 L -13.5746,-110.097 L -13.4815,-110.383 L -13.3531,-110.656 L -13.1916,-110.911
 L -12.9995,-111.143 L -12.7798,-111.349 L -12.536,-111.526 L -12.2719,-111.672 L -11.9916,-111.783 L -11.6997,-111.857
 L -11.4007,-111.895 L -11.0993,-111.895 L -10.8003,-111.857 L -10.5083,-111.783 L -10.2281,-111.672 L -9.964,-111.526
 L -9.72017,-111.349 L -9.50047,-111.143 L -9.30835,-110.911 L -9.14685,-110.656 L -9.01852,-110.383 L -8.9254,-110.097
 L -8.86891,-109.801 L -8.84999,-109.5 L -8.86891,-109.199 L -8.9254,-108.903 L -9.01852,-108.617 L -9.14685,-108.344
 L -9.30835,-108.089 L -9.50047,-107.857 L -9.72017,-107.651 L -9.964,-107.474 L -10.2281,-107.328 L -10.5083,-107.217
 L -10.8003,-107.143 L -11.0993,-107.105 z
" stroke="black" fill="lightgray" stroke-width="0.5"/>
</svg>
