<?xml version="1.0" standalone="no"?>
<!DOCTYPE svg PUBLIC "-//W3C//DTD SVG 1.1//EN" "http://www.w3.org/Graphics/SVG/1.1/DTD/svg11.dtd">
<svg width="74mm" height="74mm" viewBox="-37 -37 74 74" xmlns="http://www.w3.org/2000/svg" version="1.1">
<title>OpenSCAD Model</title>
<path d="
M 33.2495,36.4291 L 33.7361,36.3042 L 34.2031,36.1193 L 34.6433,35.8773 L 35.0497,35.582 L 35.4159,35.2382
 L 35.7361,34.8511 L 36.0052,34.427 L 36.2191,33.9725 L 36.3743,33.4948 L 36.4685,33.0013 L 36.5,32.5
 L 36.5,-32.5 L 36.4685,-33.0013 L 36.3743,-33.4948 L 36.2191,-33.9725 L 36.0052,-34.427 L 35.7361,-34.8511
 L 35.4159,-35.2382 L 35.0497,-35.582 L 34.6433,-35.8773 L 34.2031,-36.1193 L 33.7361,-36.3042 L 33.2495,-36.4291
 L 32.7512,-36.4921 L -32.7512,-36.4921 L -33.2495,-36.4291 L -33.7361,-36.3042 L -34.2031,-36.1193 L -34.6433,-35.8773
 L -35.0497,-35.582 L -35.4159,-35.2382 L -35.7361,-34.8511 L -36.0052,-34.427 L -36.2191,-33.9725 L -36.3743,-33.4948
 L -36.4685,-33.0013 L -36.5,-32.5 L -36.5,32.5 L -36.4685,33.0013 L -36.3743,33.4948 L -36.2191,33.9725
 L -36.0052,34.427 L -35.7361,34.8511 L -35.4159,35.2382 L -35.0497,35.582 L -34.6433,35.8773 L -34.2031,36.1193
 L -33.7361,36.3042 L -33.2495,36.4291 L -32.7512,36.4921 L 32.7512,36.4921 z
M -30.1821,-27.1057 L -30.5434,-27.1514 L -30.8961,-27.2419 L -31.2348,-27.376 L -31.5539,-27.5514 L -31.8485,-27.7655
 L -32.114,-28.0148 L -32.3461,-28.2954 L -32.5413,-28.6029 L -32.6964,-28.9324 L -32.8089,-29.2788 L -32.8771,-29.6365
 L -32.9,-30 L -32.8771,-30.3635 L -32.8089,-30.7212 L -32.6964,-31.0676 L -32.5413,-31.3971 L -32.3461,-31.7046
 L -32.114,-31.9852 L -31.8485,-32.2345 L -31.5539,-32.4485 L -31.2348,-32.624 L -30.8961,-32.7581 L -30.5434,-32.8486
 L -30.1821,-32.8943 L -29.8179,-32.8943 L -29.4566,-32.8486 L -29.1039,-32.7581 L -28.7652,-32.624 L -28.4461,-32.4485
 L -28.1515,-32.2345 L -27.886,-31.9852 L -27.6538,-31.7046 L -27.4587,-31.3971 L -27.3036,-31.0676 L -27.1911,-30.7212
 L -27.1229,-30.3635 L -27.1,-30 L -27.1229,-29.6365 L -27.1911,-29.2788 L -27.3036,-28.9324 L -27.4587,-28.6029
 L -27.6538,-28.2954 L -27.886,-28.0148 L -28.1515,-27.7655 L -28.4461,-27.5514 L -28.7652,-27.376 L -29.1039,-27.2419
 L -29.4566,-27.1514 L -29.8179,-27.1057 z
M 29.8179,-27.1057 L 29.4566,-27.1514 L 29.1039,-27.2419 L 28.7652,-27.376 L 28.4461,-27.5514 L 28.1515,-27.7655
 L 27.886,-28.0148 L 27.6538,-28.2954 L 27.4587,-28.6029 L 27.3036,-28.9324 L 27.1911,-29.2788 L 27.1229,-29.6365
 L 27.1,-30 L 27.1229,-30.3635 L 27.1911,-30.7212 L 27.3036,-31.0676 L 27.4587,-31.3971 L 27.6538,-31.7046
 L 27.886,-31.9852 L 28.1515,-32.2345 L 28.4461,-32.4485 L 28.7652,-32.624 L 29.1039,-32.7581 L 29.4566,-32.8486
 L 29.8179,-32.8943 L 30.1821,-32.8943 L 30.5434,-32.8486 L 30.8961,-32.7581 L 31.2348,-32.624 L 31.5539,-32.4485
 L 31.8485,-32.2345 L 32.114,-31.9852 L 32.3461,-31.7046 L 32.5413,-31.3971 L 32.6964,-31.0676 L 32.8089,-30.7212
 L 32.8771,-30.3635 L 32.9,-30 L 32.8771,-29.6365 L 32.8089,-29.2788 L 32.6964,-28.9324 L 32.5413,-28.6029
 L 32.3461,-28.2954 L 32.114,-28.0148 L 31.8485,-27.7655 L 31.5539,-27.5514 L 31.2348,-27.376 L 30.8961,-27.2419
 L 30.5434,-27.1514 L 30.1821,-27.1057 z
M 29.8179,32.8943 L 29.4566,32.8486 L 29.1039,32.7581 L 28.7652,32.624 L 28.4461,32.4485 L 28.1515,32.2345
 L 27.886,31.9852 L 27.6538,31.7046 L 27.4587,31.3971 L 27.3036,31.0676 L 27.1911,30.7212 L 27.1229,30.3635
 L 27.1,30 L 27.1229,29.6365 L 27.1911,29.2788 L 27.3036,28.9324 L 27.4587,28.6029 L 27.6538,28.2954
 L 27.886,28.0148 L 28.1515,27.7655 L 28.4461,27.5514 L 28.7652,27.376 L 29.1039,27.2419 L 29.4566,27.1514
 L 29.8179,27.1057 L 30.1821,27.1057 L 30.5434,27.1514 L 30.8961,27.2419 L 31.2348,27.376 L 31.5539,27.5514
 L 31.8485,27.7655 L 32.114,28.0148 L 32.3461,28.2954 L 32.5413,28.6029 L 32.6964,28.9324 L 32.8089,29.2788
 L 32.8771,29.6365 L 32.9,30 L 32.8771,30.3635 L 32.8089,30.7212 L 32.6964,31.0676 L 32.5413,31.3971
 L 32.3461,31.7046 L 32.114,31.9852 L 31.8485,32.2345 L 31.5539,32.4485 L 31.2348,32.624 L 30.8961,32.7581
 L 30.5434,32.8486 L 30.1821,32.8943 z
M -30.1821,32.8943 L -30.5434,32.8486 L -30.8961,32.7581 L -31.2348,32.624 L -31.5539,32.4485 L -31.8485,32.2345
 L -32.114,31.9852 L -32.3461,31.7046 L -32.5413,31.3971 L -32.6964,31.0676 L -32.8089,30.7212 L -32.8771,30.3635
 L -32.9,30 L -32.8771,29.6365 L -32.8089,29.2788 L -32.6964,28.9324 L -32.5413,28.6029 L -32.3461,28.2954
 L -32.114,28.0148 L -31.8485,27.7655 L -31.5539,27.5514 L -31.2348,27.376 L -30.8961,27.2419 L -30.5434,27.1514
 L -30.1821,27.1057 L -29.8179,27.1057 L -29.4566,27.1514 L -29.1039,27.2419 L -28.7652,27.376 L -28.4461,27.5514
 L -28.1515,27.7655 L -27.886,28.0148 L -27.6538,28.2954 L -27.4587,28.6029 L -27.3036,28.9324 L -27.1911,29.2788
 L -27.1229,29.6365 L -27.1,30 L -27.1229,30.3635 L -27.1911,30.7212 L -27.3036,31.0676 L -27.4587,31.3971
 L -27.6538,31.7046 L -27.886,31.9852 L -28.1515,32.2345 L -28.4461,32.4485 L -28.7652,32.624 L -29.1039,32.7581
 L -29.4566,32.8486 L -29.8179,32.8943 z
" stroke="black" fill="lightgray" stroke-width="0.5"/>
</svg>
