<?xml version="1.0" standalone="no"?>
<!DOCTYPE svg PUBLIC "-//W3C//DTD SVG 1.1//EN" "http://www.w3.org/Graphics/SVG/1.1/DTD/svg11.dtd">
<svg width="30mm" height="186mm" viewBox="-15 -327 30 186" xmlns="http://www.w3.org/2000/svg" version="1.1">
<title>OpenSCAD Model</title>
<path d="
M 10.4369,-297.589 L 11.0451,-297.745 L 11.6289,-297.976 L 12.1791,-298.278 L 12.6871,-298.647 L 13.1448,-299.077
 L 13.5451,-299.561 L 13.8815,-300.091 L 14.1489,-300.659 L 14.3429,-301.257 L 14.4606,-301.873 L 14.5,-302.5
 L 14.5,-321.5 L 14.4606,-322.127 L 14.3429,-322.743 L 14.1489,-323.341 L 13.8815,-323.909 L 13.5451,-324.439
 L 13.1448,-324.923 L 12.6871,-325.353 L 12.1791,-325.722 L 11.6289,-326.024 L 11.0451,-326.255 L 10.4369,-326.411
 L 9.81395,-326.49 L -9.81395,-326.49 L -10.4369,-326.411 L -11.0451,-326.255 L -11.6289,-326.024 L -12.1791,-325.722
 L -12.6871,-325.353 L -13.1448,-324.923 L -13.5451,-324.439 L -13.8815,-323.909 L -14.1489,-323.341 L -14.3429,-322.743
 L -14.4606,-322.127 L -14.5,-321.5 L -14.5,-302.5 L -14.4606,-301.873 L -14.3429,-301.257 L -14.1489,-300.659
 L -13.8815,-300.091 L -13.5451,-299.561 L -13.1448,-299.077 L -12.6871,-298.647 L -12.1791,-298.278 L -11.6289,-297.976
 L -11.0451,-297.745 L -10.4369,-297.589 L -9.81395,-297.51 L 9.81395,-297.51 z
M -9.75116,-298.508 L -10.2495,-298.571 L -10.7361,-298.696 L -11.2031,-298.881 L -11.6433,-299.123 L -12.0497,-299.418
 L -12.4159,-299.762 L -12.7361,-300.149 L -13.0052,-300.573 L -13.2191,-301.028 L -13.3743,-301.505 L -13.4684,-301.999
 L -13.5,-302.5 L -13.5,-321.5 L -13.4684,-322.001 L -13.3743,-322.495 L -13.2191,-322.972 L -13.0052,-323.427
 L -12.7361,-323.851 L -12.4159,-324.238 L -12.0497,-324.582 L -11.6433,-324.877 L -11.2031,-325.119 L -10.7361,-325.304
 L -10.2495,-325.429 L -9.75116,-325.492 L 9.75116,-325.492 L 10.2495,-325.429 L 10.7361,-325.304 L 11.2031,-325.119
 L 11.6433,-324.877 L 12.0497,-324.582 L 12.4159,-324.238 L 12.7361,-323.851 L 13.0052,-323.427 L 13.2191,-322.972
 L 13.3743,-322.495 L 13.4684,-322.001 L 13.5,-321.5 L 13.5,-302.5 L 13.4684,-301.999 L 13.3743,-301.505
 L 13.2191,-301.028 L 13.0052,-300.573 L 12.7361,-300.149 L 12.4159,-299.762 L 12.0497,-299.418 L 11.6433,-299.123
 L 11.2031,-298.881 L 10.7361,-298.696 L 10.2495,-298.571 L 9.75116,-298.508 z
M 10.4369,-258.589 L 11.0451,-258.745 L 11.6289,-258.976 L 12.1791,-259.278 L 12.6871,-259.647 L 13.1448,-260.077
 L 13.5451,-260.561 L 13.8815,-261.091 L 14.1489,-261.659 L 14.3429,-262.257 L 14.4606,-262.873 L 14.5,-263.5
 L 14.5,-282.5 L 14.4606,-283.127 L 14.3429,-283.743 L 14.1489,-284.341 L 13.8815,-284.909 L 13.5451,-285.439
 L 13.1448,-285.923 L 12.6871,-286.353 L 12.1791,-286.722 L 11.6289,-287.024 L 11.0451,-287.255 L 10.4369,-287.411
 L 9.81395,-287.49 L -9.81395,-287.49 L -10.4369,-287.411 L -11.0451,-287.255 L -11.6289,-287.024 L -12.1791,-286.722
 L -12.6871,-286.353 L -13.1448,-285.923 L -13.5451,-285.439 L -13.8815,-284.909 L -14.1489,-284.341 L -14.3429,-283.743
 L -14.4606,-283.127 L -14.5,-282.5 L -14.5,-263.5 L -14.4606,-262.873 L -14.3429,-262.257 L -14.1489,-261.659
 L -13.8815,-261.091 L -13.5451,-260.561 L -13.1448,-260.077 L -12.6871,-259.647 L -12.1791,-259.278 L -11.6289,-258.976
 L -11.0451,-258.745 L -10.4369,-258.589 L -9.81395,-258.51 L 9.81395,-258.51 z
M -9.75116,-259.508 L -10.2495,-259.571 L -10.7361,-259.696 L -11.2031,-259.881 L -11.6433,-260.123 L -12.0497,-260.418
 L -12.4159,-260.762 L -12.7361,-261.149 L -13.0052,-261.573 L -13.2191,-262.028 L -13.3743,-262.505 L -13.4684,-262.999
 L -13.5,-263.5 L -13.5,-282.5 L -13.4684,-283.001 L -13.3743,-283.495 L -13.2191,-283.972 L -13.0052,-284.427
 L -12.7361,-284.851 L -12.4159,-285.238 L -12.0497,-285.582 L -11.6433,-285.877 L -11.2031,-286.119 L -10.7361,-286.304
 L -10.2495,-286.429 L -9.75116,-286.492 L 9.75116,-286.492 L 10.2495,-286.429 L 10.7361,-286.304 L 11.2031,-286.119
 L 11.6433,-285.877 L 12.0497,-285.582 L 12.4159,-285.238 L 12.7361,-284.851 L 13.0052,-284.427 L 13.2191,-283.972
 L 13.3743,-283.495 L 13.4684,-283.001 L 13.5,-282.5 L 13.5,-263.5 L 13.4684,-262.999 L 13.3743,-262.505
 L 13.2191,-262.028 L 13.0052,-261.573 L 12.7361,-261.149 L 12.4159,-260.762 L 12.0497,-260.418 L 11.6433,-260.123
 L 11.2031,-259.881 L 10.7361,-259.696 L 10.2495,-259.571 L 9.75116,-259.508 z
M 10.4369,-219.589 L 11.0451,-219.745 L 11.6289,-219.976 L 12.1791,-220.278 L 12.6871,-220.647 L 13.1448,-221.077
 L 13.5451,-221.561 L 13.8815,-222.091 L 14.1489,-222.659 L 14.3429,-223.257 L 14.4606,-223.873 L 14.5,-224.5
 L 14.5,-243.5 L 14.4606,-244.127 L 14.3429,-244.743 L 14.1489,-245.341 L 13.8815,-245.909 L 13.5451,-246.439
 L 13.1448,-246.923 L 12.6871,-247.353 L 12.1791,-247.722 L 11.6289,-248.024 L 11.0451,-248.255 L 10.4369,-248.411
 L 9.81395,-248.49 L -9.81395,-248.49 L -10.4369,-248.411 L -11.0451,-248.255 L -11.6289,-248.024 L -12.1791,-247.722
 L -12.6871,-247.353 L -13.1448,-246.923 L -13.5451,-246.439 L -13.8815,-245.909 L -14.1489,-245.341 L -14.3429,-244.743
 L -14.4606,-244.127 L -14.5,-243.5 L -14.5,-224.5 L -14.4606,-223.873 L -14.3429,-223.257 L -14.1489,-222.659
 L -13.8815,-222.091 L -13.5451,-221.561 L -13.1448,-221.077 L -12.6871,-220.647 L -12.1791,-220.278 L -11.6289,-219.976
 L -11.0451,-219.745 L -10.4369,-219.589 L -9.81395,-219.51 L 9.81395,-219.51 z
M -9.74316,-220.635 L -10.2256,-220.696 L -10.6967,-220.817 L -11.1489,-220.996 L -11.5751,-221.23 L -11.9685,-221.516
 L -12.323,-221.849 L -12.633,-222.224 L -12.8936,-222.634 L -13.1007,-223.074 L -13.251,-223.537 L -13.3421,-224.015
 L -13.3726,-224.5 L -13.3726,-243.5 L -13.3421,-243.985 L -13.251,-244.463 L -13.1007,-244.926 L -12.8936,-245.366
 L -12.633,-245.776 L -12.323,-246.151 L -11.9685,-246.484 L -11.5751,-246.77 L -11.1489,-247.004 L -10.6967,-247.183
 L -10.2256,-247.304 L -9.74316,-247.365 L 9.74316,-247.365 L 10.2256,-247.304 L 10.6967,-247.183 L 11.1489,-247.004
 L 11.5751,-246.77 L 11.9685,-246.484 L 12.323,-246.151 L 12.633,-245.776 L 12.8936,-245.366 L 13.1007,-244.926
 L 13.251,-244.463 L 13.3421,-243.985 L 13.3726,-243.5 L 13.3726,-224.5 L 13.3421,-224.015 L 13.251,-223.537
 L 13.1007,-223.074 L 12.8936,-222.634 L 12.633,-222.224 L 12.323,-221.849 L 11.9685,-221.516 L 11.5751,-221.23
 L 11.1489,-220.996 L 10.6967,-220.817 L 10.2256,-220.696 L 9.74316,-220.635 z
M 10.4369,-180.589 L 11.0451,-180.745 L 11.6289,-180.976 L 12.1791,-181.278 L 12.6871,-181.647 L 13.1448,-182.077
 L 13.5451,-182.561 L 13.8815,-183.091 L 14.1489,-183.659 L 14.3429,-184.257 L 14.4606,-184.873 L 14.5,-185.5
 L 14.5,-204.5 L 14.4606,-205.127 L 14.3429,-205.743 L 14.1489,-206.341 L 13.8815,-206.909 L 13.5451,-207.439
 L 13.1448,-207.923 L 12.6871,-208.353 L 12.1791,-208.722 L 11.6289,-209.024 L 11.0451,-209.255 L 10.4369,-209.411
 L 9.81395,-209.49 L -9.81395,-209.49 L -10.4369,-209.411 L -11.0451,-209.255 L -11.6289,-209.024 L -12.1791,-208.722
 L -12.6871,-208.353 L -13.1448,-207.923 L -13.5451,-207.439 L -13.8815,-206.909 L -14.1489,-206.341 L -14.3429,-205.743
 L -14.4606,-205.127 L -14.5,-204.5 L -14.5,-185.5 L -14.4606,-184.873 L -14.3429,-184.257 L -14.1489,-183.659
 L -13.8815,-183.091 L -13.5451,-182.561 L -13.1448,-182.077 L -12.6871,-181.647 L -12.1791,-181.278 L -11.6289,-180.976
 L -11.0451,-180.745 L -10.4369,-180.589 L -9.81395,-180.51 L 9.81395,-180.51 z
M 10.4369,-141.589 L 11.0451,-141.745 L 11.6289,-141.976 L 12.1791,-142.278 L 12.6871,-142.647 L 13.1448,-143.077
 L 13.5451,-143.561 L 13.8815,-144.091 L 14.1489,-144.659 L 14.3429,-145.257 L 14.4606,-145.873 L 14.5,-146.5
 L 14.5,-165.5 L 14.4606,-166.127 L 14.3429,-166.743 L 14.1489,-167.341 L 13.8815,-167.909 L 13.5451,-168.439
 L 13.1448,-168.923 L 12.6871,-169.353 L 12.1791,-169.722 L 11.6289,-170.024 L 11.0451,-170.255 L 10.4369,-170.411
 L 9.81395,-170.49 L -9.81395,-170.49 L -10.4369,-170.411 L -11.0451,-170.255 L -11.6289,-170.024 L -12.1791,-169.722
 L -12.6871,-169.353 L -13.1448,-168.923 L -13.5451,-168.439 L -13.8815,-167.909 L -14.1489,-167.341 L -14.3429,-166.743
 L -14.4606,-166.127 L -14.5,-165.5 L -14.5,-146.5 L -14.4606,-145.873 L -14.3429,-145.257 L -14.1489,-144.659
 L -13.8815,-144.091 L -13.5451,-143.561 L -13.1448,-143.077 L -12.6871,-142.647 L -12.1791,-142.278 L -11.6289,-141.976
 L -11.0451,-141.745 L -10.4369,-141.589 L -9.81395,-141.51 L 9.81395,-141.51 z
M 7.34929,-161.105 L 7.05028,-161.143 L 6.75835,-161.217 L 6.47812,-161.328 L 6.214,-161.474 L 5.97017,-161.651
 L 5.75047,-161.857 L 5.55835,-162.089 L 5.39685,-162.344 L 5.26852,-162.617 L 5.1754,-162.903 L 5.11891,-163.199
 L 5.09999,-163.5 L 5.11891,-163.801 L 5.1754,-164.097 L 5.26852,-164.383 L 5.39685,-164.656 L 5.55835,-164.911
 L 5.75047,-165.143 L 5.97017,-165.349 L 6.214,-165.526 L 6.47812,-165.672 L 6.75835,-165.783 L 7.05028,-165.857
 L 7.34929,-165.895 L 7.6507,-165.895 L 7.94971,-165.857 L 8.24164,-165.783 L 8.52187,-165.672 L 8.78598,-165.526
 L 9.02982,-165.349 L 9.24951,-165.143 L 9.44164,-164.911 L 9.60313,-164.656 L 9.73146,-164.383 L 9.82458,-164.097
 L 9.88107,-163.801 L 9.89999,-163.5 L 9.88107,-163.199 L 9.82458,-162.903 L 9.73146,-162.617 L 9.60313,-162.344
 L 9.44164,-162.089 L 9.24951,-161.857 L 9.02982,-161.651 L 8.78598,-161.474 L 8.52187,-161.328 L 8.24164,-161.217
 L 7.94971,-161.143 L 7.6507,-161.105 z
M -7.6507,-161.105 L -7.94971,-161.143 L -8.24164,-161.217 L -8.52187,-161.328 L -8.78598,-161.474 L -9.02982,-161.651
 L -9.24951,-161.857 L -9.44164,-162.089 L -9.60313,-162.344 L -9.73146,-162.617 L -9.82458,-162.903 L -9.88107,-163.199
 L -9.89999,-163.5 L -9.88107,-163.801 L -9.82458,-164.097 L -9.73146,-164.383 L -9.60313,-164.656 L -9.44164,-164.911
 L -9.24951,-165.143 L -9.02982,-165.349 L -8.78598,-165.526 L -8.52187,-165.672 L -8.24164,-165.783 L -7.94971,-165.857
 L -7.6507,-165.895 L -7.34929,-165.895 L -7.05028,-165.857 L -6.75835,-165.783 L -6.47812,-165.672 L -6.214,-165.526
 L -5.97017,-165.349 L -5.75047,-165.143 L -5.55835,-164.911 L -5.39685,-164.656 L -5.26852,-164.383 L -5.1754,-164.097
 L -5.11891,-163.801 L -5.09999,-163.5 L -5.11891,-163.199 L -5.1754,-162.903 L -5.26852,-162.617 L -5.39685,-162.344
 L -5.55835,-162.089 L -5.75047,-161.857 L -5.97017,-161.651 L -6.214,-161.474 L -6.47812,-161.328 L -6.75835,-161.217
 L -7.05028,-161.143 L -7.34929,-161.105 z
M -7.6507,-146.105 L -7.94971,-146.143 L -8.24164,-146.217 L -8.52187,-146.328 L -8.78598,-146.474 L -9.02982,-146.651
 L -9.24951,-146.857 L -9.44164,-147.089 L -9.60313,-147.344 L -9.73146,-147.617 L -9.82458,-147.903 L -9.88107,-148.199
 L -9.89999,-148.5 L -9.88107,-148.801 L -9.82458,-149.097 L -9.73146,-149.383 L -9.60313,-149.656 L -9.44164,-149.911
 L -9.24951,-150.143 L -9.02982,-150.349 L -8.78598,-150.526 L -8.52187,-150.672 L -8.24164,-150.783 L -7.94971,-150.857
 L -7.6507,-150.895 L -7.34929,-150.895 L -7.05028,-150.857 L -6.75835,-150.783 L -6.47812,-150.672 L -6.214,-150.526
 L -5.97017,-150.349 L -5.75047,-150.143 L -5.55835,-149.911 L -5.39685,-149.656 L -5.26852,-149.383 L -5.1754,-149.097
 L -5.11891,-148.801 L -5.09999,-148.5 L -5.11891,-148.199 L -5.1754,-147.903 L -5.26852,-147.617 L -5.39685,-147.344
 L -5.55835,-147.089 L -5.75047,-146.857 L -5.97017,-146.651 L -6.214,-146.474 L -6.47812,-146.328 L -6.75835,-146.217
 L -7.05028,-146.143 L -7.34929,-146.105 z
M 7.34929,-146.105 L 7.05028,-146.143 L 6.75835,-146.217 L 6.47812,-146.328 L 6.214,-146.474 L 5.97017,-146.651
 L 5.75047,-146.857 L 5.55835,-147.089 L 5.39685,-147.344 L 5.26852,-147.617 L 5.1754,-147.903 L 5.11891,-148.199
 L 5.09999,-148.5 L 5.11891,-148.801 L 5.1754,-149.097 L 5.26852,-149.383 L 5.39685,-149.656 L 5.55835,-149.911
 L 5.75047,-150.143 L 5.97017,-150.349 L 6.214,-150.526 L 6.47812,-150.672 L 6.75835,-150.783 L 7.05028,-150.857
 L 7.34929,-150.895 L 7.6507,-150.895 L 7.94971,-150.857 L 8.24164,-150.783 L 8.52187,-150.672 L 8.78598,-150.526
 L 9.02982,-150.349 L 9.24951,-150.143 L 9.44164,-149.911 L 9.60313,-149.656 L 9.73146,-149.383 L 9.82458,-149.097
 L 9.88107,-148.801 L 9.89999,-148.5 L 9.88107,-148.199 L 9.82458,-147.903 L 9.73146,-147.617 L 9.60313,-147.344
 L 9.44164,-147.089 L 9.24951,-146.857 L 9.02982,-146.651 L 8.78598,-146.474 L 8.52187,-146.328 L 8.24164,-146.217
 L 7.94971,-146.143 L 7.6507,-146.105 z
" stroke="black" fill="lightgray" stroke-width="0.5"/>
</svg>
