<?xml version="1.0" standalone="no"?>
<!DOCTYPE svg PUBLIC "-//W3C//DTD SVG 1.1//EN" "http://www.w3.org/Graphics/SVG/1.1/DTD/svg11.dtd">
<svg width="14mm" height="206mm" viewBox="-7 -346 14 206" xmlns="http://www.w3.org/2000/svg" version="1.1">
<title>OpenSCAD Model</title>
<path d="
M 2.9369,-302.089 L 3.54507,-302.245 L 4.12889,-302.476 L 4.67912,-302.778 L 5.18712,-303.147 L 5.64484,-303.577
 L 6.04507,-304.061 L 6.38153,-304.591 L 6.64888,-305.159 L 6.84291,-305.757 L 6.96057,-306.373 L 7,-307
 L 7,-341 L 6.96057,-341.627 L 6.84291,-342.243 L 6.64888,-342.841 L 6.38153,-343.409 L 6.04507,-343.939
 L 5.64484,-344.423 L 5.18712,-344.853 L 4.67912,-345.222 L 4.12889,-345.524 L 3.54507,-345.755 L 2.9369,-345.911
 L 2.31395,-345.99 L -2.31395,-345.99 L -2.9369,-345.911 L -3.54507,-345.755 L -4.12889,-345.524 L -4.67912,-345.222
 L -5.18712,-344.853 L -5.64484,-344.423 L -6.04507,-343.939 L -6.38153,-343.409 L -6.64888,-342.841 L -6.84291,-342.243
 L -6.96057,-341.627 L -7,-341 L -7,-307 L -6.96057,-306.373 L -6.84291,-305.757 L -6.64888,-305.159
 L -6.38153,-304.591 L -6.04507,-304.061 L -5.64484,-303.577 L -5.18712,-303.147 L -4.67912,-302.778 L -4.12889,-302.476
 L -3.54507,-302.245 L -2.9369,-302.089 L -2.31395,-302.01 L 2.31395,-302.01 z
M -2.04825,-302.509 L -2.64006,-302.584 L -3.21782,-302.732 L -3.77245,-302.952 L -4.29517,-303.239 L -4.77776,-303.59
 L -5.2126,-303.998 L -5.59282,-304.458 L -5.91245,-304.962 L -6.16643,-305.501 L -6.35077,-306.069 L -6.46254,-306.655
 L -6.5,-307.25 L -6.5,-340.75 L -6.46254,-341.345 L -6.35077,-341.931 L -6.16643,-342.499 L -5.91245,-343.038
 L -5.59282,-343.542 L -5.2126,-344.002 L -4.77776,-344.41 L -4.29517,-344.761 L -3.77245,-345.048 L -3.21782,-345.268
 L -2.64006,-345.416 L -2.04825,-345.491 L 2.04825,-345.491 L 2.64006,-345.416 L 3.21782,-345.268 L 3.77245,-345.048
 L 4.29517,-344.761 L 4.77776,-344.41 L 5.2126,-344.002 L 5.59282,-343.542 L 5.91245,-343.038 L 6.16643,-342.499
 L 6.35077,-341.931 L 6.46254,-341.345 L 6.5,-340.75 L 6.5,-307.25 L 6.46254,-306.655 L 6.35077,-306.069
 L 6.16643,-305.501 L 5.91245,-304.962 L 5.59282,-304.458 L 5.2126,-303.998 L 4.77776,-303.59 L 4.29517,-303.239
 L 3.77245,-302.952 L 3.21782,-302.732 L 2.64006,-302.584 L 2.04825,-302.509 z
M 2.9369,-248.089 L 3.54507,-248.245 L 4.12889,-248.476 L 4.67912,-248.778 L 5.18712,-249.147 L 5.64484,-249.577
 L 6.04507,-250.061 L 6.38153,-250.591 L 6.64888,-251.159 L 6.84291,-251.757 L 6.96057,-252.373 L 7,-253
 L 7,-287 L 6.96057,-287.627 L 6.84291,-288.243 L 6.64888,-288.841 L 6.38153,-289.409 L 6.04507,-289.939
 L 5.64484,-290.423 L 5.18712,-290.853 L 4.67912,-291.222 L 4.12889,-291.524 L 3.54507,-291.755 L 2.9369,-291.911
 L 2.31395,-291.99 L -2.31395,-291.99 L -2.9369,-291.911 L -3.54507,-291.755 L -4.12889,-291.524 L -4.67912,-291.222
 L -5.18712,-290.853 L -5.64484,-290.423 L -6.04507,-289.939 L -6.38153,-289.409 L -6.64888,-288.841 L -6.84291,-288.243
 L -6.96057,-287.627 L -7,-287 L -7,-253 L -6.96057,-252.373 L -6.84291,-251.757 L -6.64888,-251.159
 L -6.38153,-250.591 L -6.04507,-250.061 L -5.64484,-249.577 L -5.18712,-249.147 L -4.67912,-248.778 L -4.12889,-248.476
 L -3.54507,-248.245 L -2.9369,-248.089 L -2.31395,-248.01 L 2.31395,-248.01 z
M -2.04825,-248.509 L -2.64006,-248.584 L -3.21782,-248.732 L -3.77245,-248.952 L -4.29517,-249.239 L -4.77776,-249.59
 L -5.2126,-249.998 L -5.59282,-250.458 L -5.91245,-250.962 L -6.16643,-251.501 L -6.35077,-252.069 L -6.46254,-252.655
 L -6.5,-253.25 L -6.5,-286.75 L -6.46254,-287.345 L -6.35077,-287.931 L -6.16643,-288.499 L -5.91245,-289.038
 L -5.59282,-289.542 L -5.2126,-290.002 L -4.77776,-290.41 L -4.29517,-290.761 L -3.77245,-291.048 L -3.21782,-291.268
 L -2.64006,-291.416 L -2.04825,-291.491 L 2.04825,-291.491 L 2.64006,-291.416 L 3.21782,-291.268 L 3.77245,-291.048
 L 4.29517,-290.761 L 4.77776,-290.41 L 5.2126,-290.002 L 5.59282,-289.542 L 5.91245,-289.038 L 6.16643,-288.499
 L 6.35077,-287.931 L 6.46254,-287.345 L 6.5,-286.75 L 6.5,-253.25 L 6.46254,-252.655 L 6.35077,-252.069
 L 6.16643,-251.501 L 5.91245,-250.962 L 5.59282,-250.458 L 5.2126,-249.998 L 4.77776,-249.59 L 4.29517,-249.239
 L 3.77245,-248.952 L 3.21782,-248.732 L 2.64006,-248.584 L 2.04825,-248.509 z
M 2.9369,-194.089 L 3.54507,-194.245 L 4.12889,-194.476 L 4.67912,-194.778 L 5.18712,-195.147 L 5.64484,-195.577
 L 6.04507,-196.061 L 6.38153,-196.591 L 6.64888,-197.159 L 6.84291,-197.757 L 6.96057,-198.373 L 7,-199
 L 7,-233 L 6.96057,-233.627 L 6.84291,-234.243 L 6.64888,-234.841 L 6.38153,-235.409 L 6.04507,-235.939
 L 5.64484,-236.423 L 5.18712,-236.853 L 4.67912,-237.222 L 4.12889,-237.524 L 3.54507,-237.755 L 2.9369,-237.911
 L 2.31395,-237.99 L -2.31395,-237.99 L -2.9369,-237.911 L -3.54507,-237.755 L -4.12889,-237.524 L -4.67912,-237.222
 L -5.18712,-236.853 L -5.64484,-236.423 L -6.04507,-235.939 L -6.38153,-235.409 L -6.64888,-234.841 L -6.84291,-234.243
 L -6.96057,-233.627 L -7,-233 L -7,-199 L -6.96057,-198.373 L -6.84291,-197.757 L -6.64888,-197.159
 L -6.38153,-196.591 L -6.04507,-196.061 L -5.64484,-195.577 L -5.18712,-195.147 L -4.67912,-194.778 L -4.12889,-194.476
 L -3.54507,-194.245 L -2.9369,-194.089 L -2.31395,-194.01 L 2.31395,-194.01 z
M -1.99297,-195.388 L -2.47505,-195.449 L -2.94572,-195.57 L -3.39754,-195.749 L -3.82336,-195.983 L -4.21649,-196.269
 L -4.57071,-196.601 L -4.88046,-196.976 L -5.14084,-197.386 L -5.34773,-197.826 L -5.49789,-198.288 L -5.58896,-198.765
 L -5.61946,-199.25 L -5.61946,-232.75 L -5.58896,-233.235 L -5.49789,-233.712 L -5.34773,-234.174 L -5.14084,-234.614
 L -4.88046,-235.024 L -4.57071,-235.399 L -4.21649,-235.731 L -3.82336,-236.017 L -3.39754,-236.251 L -2.94572,-236.43
 L -2.47505,-236.551 L -1.99297,-236.612 L 1.99297,-236.612 L 2.47505,-236.551 L 2.94572,-236.43 L 3.39754,-236.251
 L 3.82336,-236.017 L 4.21649,-235.731 L 4.57071,-235.399 L 4.88046,-235.024 L 5.14084,-234.614 L 5.34773,-234.174
 L 5.49789,-233.712 L 5.58896,-233.235 L 5.61946,-232.75 L 5.61946,-199.25 L 5.58896,-198.765 L 5.49789,-198.288
 L 5.34773,-197.826 L 5.14084,-197.386 L 4.88046,-196.976 L 4.57071,-196.601 L 4.21649,-196.269 L 3.82336,-195.983
 L 3.39754,-195.749 L 2.94572,-195.57 L 2.47505,-195.449 L 1.99297,-195.388 z
M 2.9369,-140.089 L 3.54507,-140.245 L 4.12889,-140.476 L 4.67912,-140.778 L 5.18712,-141.147 L 5.64484,-141.577
 L 6.04507,-142.061 L 6.38153,-142.591 L 6.64888,-143.159 L 6.84291,-143.757 L 6.96057,-144.373 L 7,-145
 L 7,-179 L 6.96057,-179.627 L 6.84291,-180.243 L 6.64888,-180.841 L 6.38153,-181.409 L 6.04507,-181.939
 L 5.64484,-182.423 L 5.18712,-182.853 L 4.67912,-183.222 L 4.12889,-183.524 L 3.54507,-183.755 L 2.9369,-183.911
 L 2.31395,-183.99 L -2.31395,-183.99 L -2.9369,-183.911 L -3.54507,-183.755 L -4.12889,-183.524 L -4.67912,-183.222
 L -5.18712,-182.853 L -5.64484,-182.423 L -6.04507,-181.939 L -6.38153,-181.409 L -6.64888,-180.841 L -6.84291,-180.243
 L -6.96057,-179.627 L -7,-179 L -7,-145 L -6.96057,-144.373 L -6.84291,-143.757 L -6.64888,-143.159
 L -6.38153,-142.591 L -6.04507,-142.061 L -5.64484,-141.577 L -5.18712,-141.147 L -4.67912,-140.778 L -4.12889,-140.476
 L -3.54507,-140.245 L -2.9369,-140.089 L -2.31395,-140.01 L 2.31395,-140.01 z
M -0.0941772,-175.503 L -0.281067,-175.527 L -0.463516,-175.573 L -0.638657,-175.643 L -0.803726,-175.734 L -0.956131,-175.844
 L -1.09344,-175.973 L -1.21352,-176.118 L -1.31445,-176.277 L -1.39465,-176.448 L -1.45287,-176.627 L -1.48816,-176.812
 L -1.5,-177 L -1.48816,-177.188 L -1.45287,-177.373 L -1.39465,-177.552 L -1.31445,-177.723 L -1.21352,-177.882
 L -1.09344,-178.027 L -0.956131,-178.156 L -0.803726,-178.266 L -0.638657,-178.357 L -0.463516,-178.427 L -0.281067,-178.473
 L -0.0941772,-178.497 L 0.0941772,-178.497 L 0.281067,-178.473 L 0.463516,-178.427 L 0.638657,-178.357 L 0.803726,-178.266
 L 0.956131,-178.156 L 1.09344,-178.027 L 1.21352,-177.882 L 1.31445,-177.723 L 1.39465,-177.552 L 1.45287,-177.373
 L 1.48816,-177.188 L 1.5,-177 L 1.48816,-176.812 L 1.45287,-176.627 L 1.39465,-176.448 L 1.31445,-176.277
 L 1.21352,-176.118 L 1.09344,-175.973 L 0.956131,-175.844 L 0.803726,-175.734 L 0.638657,-175.643 L 0.463516,-175.573
 L 0.281067,-175.527 L 0.0941772,-175.503 z
M -0.0941772,-145.503 L -0.281067,-145.527 L -0.463516,-145.573 L -0.638657,-145.643 L -0.803726,-145.734 L -0.956131,-145.844
 L -1.09344,-145.973 L -1.21352,-146.118 L -1.31445,-146.277 L -1.39465,-146.448 L -1.45287,-146.627 L -1.48816,-146.812
 L -1.5,-147 L -1.48816,-147.188 L -1.45287,-147.373 L -1.39465,-147.552 L -1.31445,-147.723 L -1.21352,-147.882
 L -1.09344,-148.027 L -0.956131,-148.156 L -0.803726,-148.266 L -0.638657,-148.357 L -0.463516,-148.427 L -0.281067,-148.473
 L -0.0941772,-148.497 L 0.0941772,-148.497 L 0.281067,-148.473 L 0.463516,-148.427 L 0.638657,-148.357 L 0.803726,-148.266
 L 0.956131,-148.156 L 1.09344,-148.027 L 1.21352,-147.882 L 1.31445,-147.723 L 1.39465,-147.552 L 1.45287,-147.373
 L 1.48816,-147.188 L 1.5,-147 L 1.48816,-146.812 L 1.45287,-146.627 L 1.39465,-146.448 L 1.31445,-146.277
 L 1.21352,-146.118 L 1.09344,-145.973 L 0.956131,-145.844 L 0.803726,-145.734 L 0.638657,-145.643 L 0.463516,-145.573
 L 0.281067,-145.527 L 0.0941772,-145.503 z
" stroke="black" fill="lightgray" stroke-width="0.5"/>
</svg>
