<?xml version="1.0" standalone="no"?>
<!DOCTYPE svg PUBLIC "-//W3C//DTD SVG 1.1//EN" "http://www.w3.org/Graphics/SVG/1.1/DTD/svg11.dtd">
<svg width="16mm" height="208mm" viewBox="-8 -347 16 208" xmlns="http://www.w3.org/2000/svg" version="1.1">
<title>OpenSCAD Model</title>
<path d="
M 3.4369,-301.589 L 4.04507,-301.745 L 4.62889,-301.976 L 5.17912,-302.278 L 5.68712,-302.647 L 6.14484,-303.077
 L 6.54507,-303.561 L 6.88153,-304.091 L 7.14888,-304.659 L 7.34291,-305.257 L 7.46057,-305.873 L 7.5,-306.5
 L 7.5,-341.5 L 7.46057,-342.127 L 7.34291,-342.743 L 7.14888,-343.341 L 6.88153,-343.909 L 6.54507,-344.439
 L 6.14484,-344.923 L 5.68712,-345.353 L 5.17912,-345.722 L 4.62889,-346.024 L 4.04507,-346.255 L 3.4369,-346.411
 L 2.81395,-346.49 L -2.81395,-346.49 L -3.4369,-346.411 L -4.04507,-346.255 L -4.62889,-346.024 L -5.17912,-345.722
 L -5.68712,-345.353 L -6.14484,-344.923 L -6.54507,-344.439 L -6.88153,-343.909 L -7.14888,-343.341 L -7.34291,-342.743
 L -7.46057,-342.127 L -7.5,-341.5 L -7.5,-306.5 L -7.46057,-305.873 L -7.34291,-305.257 L -7.14888,-304.659
 L -6.88153,-304.091 L -6.54507,-303.561 L -6.14484,-303.077 L -5.68712,-302.647 L -5.17912,-302.278 L -4.62889,-301.976
 L -4.04507,-301.745 L -3.4369,-301.589 L -2.81395,-301.51 L 2.81395,-301.51 z
M -2.54825,-302.009 L -3.14006,-302.084 L -3.71782,-302.232 L -4.27245,-302.452 L -4.79517,-302.739 L -5.27776,-303.09
 L -5.7126,-303.498 L -6.09282,-303.958 L -6.41245,-304.462 L -6.66643,-305.001 L -6.85077,-305.569 L -6.96254,-306.155
 L -7,-306.75 L -7,-341.25 L -6.96254,-341.845 L -6.85077,-342.431 L -6.66643,-342.999 L -6.41245,-343.538
 L -6.09282,-344.042 L -5.7126,-344.502 L -5.27776,-344.91 L -4.79517,-345.261 L -4.27245,-345.548 L -3.71782,-345.768
 L -3.14006,-345.916 L -2.54825,-345.991 L 2.54825,-345.991 L 3.14006,-345.916 L 3.71782,-345.768 L 4.27245,-345.548
 L 4.79517,-345.261 L 5.27776,-344.91 L 5.7126,-344.502 L 6.09282,-344.042 L 6.41245,-343.538 L 6.66643,-342.999
 L 6.85077,-342.431 L 6.96254,-341.845 L 7,-341.25 L 7,-306.75 L 6.96254,-306.155 L 6.85077,-305.569
 L 6.66643,-305.001 L 6.41245,-304.462 L 6.09282,-303.958 L 5.7126,-303.498 L 5.27776,-303.09 L 4.79517,-302.739
 L 4.27245,-302.452 L 3.71782,-302.232 L 3.14006,-302.084 L 2.54825,-302.009 z
M 3.4369,-247.589 L 4.04507,-247.745 L 4.62889,-247.976 L 5.17912,-248.278 L 5.68712,-248.647 L 6.14484,-249.077
 L 6.54507,-249.561 L 6.88153,-250.091 L 7.14888,-250.659 L 7.34291,-251.257 L 7.46057,-251.873 L 7.5,-252.5
 L 7.5,-287.5 L 7.46057,-288.127 L 7.34291,-288.743 L 7.14888,-289.341 L 6.88153,-289.909 L 6.54507,-290.439
 L 6.14484,-290.923 L 5.68712,-291.353 L 5.17912,-291.722 L 4.62889,-292.024 L 4.04507,-292.255 L 3.4369,-292.411
 L 2.81395,-292.49 L -2.81395,-292.49 L -3.4369,-292.411 L -4.04507,-292.255 L -4.62889,-292.024 L -5.17912,-291.722
 L -5.68712,-291.353 L -6.14484,-290.923 L -6.54507,-290.439 L -6.88153,-289.909 L -7.14888,-289.341 L -7.34291,-288.743
 L -7.46057,-288.127 L -7.5,-287.5 L -7.5,-252.5 L -7.46057,-251.873 L -7.34291,-251.257 L -7.14888,-250.659
 L -6.88153,-250.091 L -6.54507,-249.561 L -6.14484,-249.077 L -5.68712,-248.647 L -5.17912,-248.278 L -4.62889,-247.976
 L -4.04507,-247.745 L -3.4369,-247.589 L -2.81395,-247.51 L 2.81395,-247.51 z
M -2.54825,-248.009 L -3.14006,-248.084 L -3.71782,-248.232 L -4.27245,-248.452 L -4.79517,-248.739 L -5.27776,-249.09
 L -5.7126,-249.498 L -6.09282,-249.958 L -6.41245,-250.462 L -6.66643,-251.001 L -6.85077,-251.569 L -6.96254,-252.155
 L -7,-252.75 L -7,-287.25 L -6.96254,-287.845 L -6.85077,-288.431 L -6.66643,-288.999 L -6.41245,-289.538
 L -6.09282,-290.042 L -5.7126,-290.502 L -5.27776,-290.91 L -4.79517,-291.261 L -4.27245,-291.548 L -3.71782,-291.768
 L -3.14006,-291.916 L -2.54825,-291.991 L 2.54825,-291.991 L 3.14006,-291.916 L 3.71782,-291.768 L 4.27245,-291.548
 L 4.79517,-291.261 L 5.27776,-290.91 L 5.7126,-290.502 L 6.09282,-290.042 L 6.41245,-289.538 L 6.66643,-288.999
 L 6.85077,-288.431 L 6.96254,-287.845 L 7,-287.25 L 7,-252.75 L 6.96254,-252.155 L 6.85077,-251.569
 L 6.66643,-251.001 L 6.41245,-250.462 L 6.09282,-249.958 L 5.7126,-249.498 L 5.27776,-249.09 L 4.79517,-248.739
 L 4.27245,-248.452 L 3.71782,-248.232 L 3.14006,-248.084 L 2.54825,-248.009 z
M 3.4369,-193.589 L 4.04507,-193.745 L 4.62889,-193.976 L 5.17912,-194.278 L 5.68712,-194.647 L 6.14484,-195.077
 L 6.54507,-195.561 L 6.88153,-196.091 L 7.14888,-196.659 L 7.34291,-197.257 L 7.46057,-197.873 L 7.5,-198.5
 L 7.5,-233.5 L 7.46057,-234.127 L 7.34291,-234.743 L 7.14888,-235.341 L 6.88153,-235.909 L 6.54507,-236.439
 L 6.14484,-236.923 L 5.68712,-237.353 L 5.17912,-237.722 L 4.62889,-238.024 L 4.04507,-238.255 L 3.4369,-238.411
 L 2.81395,-238.49 L -2.81395,-238.49 L -3.4369,-238.411 L -4.04507,-238.255 L -4.62889,-238.024 L -5.17912,-237.722
 L -5.68712,-237.353 L -6.14484,-236.923 L -6.54507,-236.439 L -6.88153,-235.909 L -7.14888,-235.341 L -7.34291,-234.743
 L -7.46057,-234.127 L -7.5,-233.5 L -7.5,-198.5 L -7.46057,-197.873 L -7.34291,-197.257 L -7.14888,-196.659
 L -6.88153,-196.091 L -6.54507,-195.561 L -6.14484,-195.077 L -5.68712,-194.647 L -5.17912,-194.278 L -4.62889,-193.976
 L -4.04507,-193.745 L -3.4369,-193.589 L -2.81395,-193.51 L 2.81395,-193.51 z
M -2.49297,-194.888 L -2.97505,-194.949 L -3.44572,-195.07 L -3.89754,-195.249 L -4.32336,-195.483 L -4.71649,-195.769
 L -5.07071,-196.101 L -5.38046,-196.476 L -5.64084,-196.886 L -5.84773,-197.326 L -5.99789,-197.788 L -6.08896,-198.265
 L -6.11946,-198.75 L -6.11946,-233.25 L -6.08896,-233.735 L -5.99789,-234.212 L -5.84773,-234.674 L -5.64084,-235.114
 L -5.38046,-235.524 L -5.07071,-235.899 L -4.71649,-236.231 L -4.32336,-236.517 L -3.89754,-236.751 L -3.44572,-236.93
 L -2.97505,-237.051 L -2.49297,-237.112 L 2.49297,-237.112 L 2.97505,-237.051 L 3.44572,-236.93 L 3.89754,-236.751
 L 4.32336,-236.517 L 4.71649,-236.231 L 5.07071,-235.899 L 5.38046,-235.524 L 5.64084,-235.114 L 5.84773,-234.674
 L 5.99789,-234.212 L 6.08896,-233.735 L 6.11946,-233.25 L 6.11946,-198.75 L 6.08896,-198.265 L 5.99789,-197.788
 L 5.84773,-197.326 L 5.64084,-196.886 L 5.38046,-196.476 L 5.07071,-196.101 L 4.71649,-195.769 L 4.32336,-195.483
 L 3.89754,-195.249 L 3.44572,-195.07 L 2.97505,-194.949 L 2.49297,-194.888 z
M 3.4369,-139.589 L 4.04507,-139.745 L 4.62889,-139.976 L 5.17912,-140.278 L 5.68712,-140.647 L 6.14484,-141.077
 L 6.54507,-141.561 L 6.88153,-142.091 L 7.14888,-142.659 L 7.34291,-143.257 L 7.46057,-143.873 L 7.5,-144.5
 L 7.5,-179.5 L 7.46057,-180.127 L 7.34291,-180.743 L 7.14888,-181.341 L 6.88153,-181.909 L 6.54507,-182.439
 L 6.14484,-182.923 L 5.68712,-183.353 L 5.17912,-183.722 L 4.62889,-184.024 L 4.04507,-184.255 L 3.4369,-184.411
 L 2.81395,-184.49 L -2.81395,-184.49 L -3.4369,-184.411 L -4.04507,-184.255 L -4.62889,-184.024 L -5.17912,-183.722
 L -5.68712,-183.353 L -6.14484,-182.923 L -6.54507,-182.439 L -6.88153,-181.909 L -7.14888,-181.341 L -7.34291,-180.743
 L -7.46057,-180.127 L -7.5,-179.5 L -7.5,-144.5 L -7.46057,-143.873 L -7.34291,-143.257 L -7.14888,-142.659
 L -6.88153,-142.091 L -6.54507,-141.561 L -6.14484,-141.077 L -5.68712,-140.647 L -5.17912,-140.278 L -4.62889,-139.976
 L -4.04507,-139.745 L -3.4369,-139.589 L -2.81395,-139.51 L 2.81395,-139.51 z
M -0.0941772,-175.503 L -0.281067,-175.527 L -0.463516,-175.573 L -0.638657,-175.643 L -0.803726,-175.734 L -0.956131,-175.844
 L -1.09344,-175.973 L -1.21352,-176.118 L -1.31445,-176.277 L -1.39465,-176.448 L -1.45287,-176.627 L -1.48816,-176.812
 L -1.5,-177 L -1.48816,-177.188 L -1.45287,-177.373 L -1.39465,-177.552 L -1.31445,-177.723 L -1.21352,-177.882
 L -1.09344,-178.027 L -0.956131,-178.156 L -0.803726,-178.266 L -0.638657,-178.357 L -0.463516,-178.427 L -0.281067,-178.473
 L -0.0941772,-178.497 L 0.0941772,-178.497 L 0.281067,-178.473 L 0.463516,-178.427 L 0.638657,-178.357 L 0.803726,-178.266
 L 0.956131,-178.156 L 1.09344,-178.027 L 1.21352,-177.882 L 1.31445,-177.723 L 1.39465,-177.552 L 1.45287,-177.373
 L 1.48816,-177.188 L 1.5,-177 L 1.48816,-176.812 L 1.45287,-176.627 L 1.39465,-176.448 L 1.31445,-176.277
 L 1.21352,-176.118 L 1.09344,-175.973 L 0.956131,-175.844 L 0.803726,-175.734 L 0.638657,-175.643 L 0.463516,-175.573
 L 0.281067,-175.527 L 0.0941772,-175.503 z
M -0.0941772,-145.503 L -0.281067,-145.527 L -0.463516,-145.573 L -0.638657,-145.643 L -0.803726,-145.734 L -0.956131,-145.844
 L -1.09344,-145.973 L -1.21352,-146.118 L -1.31445,-146.277 L -1.39465,-146.448 L -1.45287,-146.627 L -1.48816,-146.812
 L -1.5,-147 L -1.48816,-147.188 L -1.45287,-147.373 L -1.39465,-147.552 L -1.31445,-147.723 L -1.21352,-147.882
 L -1.09344,-148.027 L -0.956131,-148.156 L -0.803726,-148.266 L -0.638657,-148.357 L -0.463516,-148.427 L -0.281067,-148.473
 L -0.0941772,-148.497 L 0.0941772,-148.497 L 0.281067,-148.473 L 0.463516,-148.427 L 0.638657,-148.357 L 0.803726,-148.266
 L 0.956131,-148.156 L 1.09344,-148.027 L 1.21352,-147.882 L 1.31445,-147.723 L 1.39465,-147.552 L 1.45287,-147.373
 L 1.48816,-147.188 L 1.5,-147 L 1.48816,-146.812 L 1.45287,-146.627 L 1.39465,-146.448 L 1.31445,-146.277
 L 1.21352,-146.118 L 1.09344,-145.973 L 0.956131,-145.844 L 0.803726,-145.734 L 0.638657,-145.643 L 0.463516,-145.573
 L 0.281067,-145.527 L 0.0941772,-145.503 z
" stroke="black" fill="lightgray" stroke-width="0.5"/>
</svg>
