<?xml version="1.0" standalone="no"?>
<!DOCTYPE svg PUBLIC "-//W3C//DTD SVG 1.1//EN" "http://www.w3.org/Graphics/SVG/1.1/DTD/svg11.dtd">
<svg width="14mm" height="152mm" viewBox="-7 -238 14 152" xmlns="http://www.w3.org/2000/svg" version="1.1">
<title>OpenSCAD Model</title>
<path d="
M 2.9369,-194.089 L 3.54507,-194.245 L 4.12889,-194.476 L 4.67912,-194.778 L 5.18712,-195.147 L 5.64484,-195.577
 L 6.04507,-196.061 L 6.38153,-196.591 L 6.64888,-197.159 L 6.84291,-197.757 L 6.96057,-198.373 L 7,-199
 L 7,-233 L 6.96057,-233.627 L 6.84291,-234.243 L 6.64888,-234.841 L 6.38153,-235.409 L 6.04507,-235.939
 L 5.64484,-236.423 L 5.18712,-236.853 L 4.67912,-237.222 L 4.12889,-237.524 L 3.54507,-237.755 L 2.9369,-237.911
 L 2.31395,-237.99 L -2.31395,-237.99 L -2.9369,-237.911 L -3.54507,-237.755 L -4.12889,-237.524 L -4.67912,-237.222
 L -5.18712,-236.853 L -5.64484,-236.423 L -6.04507,-235.939 L -6.38153,-235.409 L -6.64888,-234.841 L -6.84291,-234.243
 L -6.96057,-233.627 L -7,-233 L -7,-199 L -6.96057,-198.373 L -6.84291,-197.757 L -6.64888,-197.159
 L -6.38153,-196.591 L -6.04507,-196.061 L -5.64484,-195.577 L -5.18712,-195.147 L -4.67912,-194.778 L -4.12889,-194.476
 L -3.54507,-194.245 L -2.9369,-194.089 L -2.31395,-194.01 L 2.31395,-194.01 z
M -2.04825,-194.509 L -2.64006,-194.584 L -3.21782,-194.732 L -3.77245,-194.952 L -4.29517,-195.239 L -4.77776,-195.59
 L -5.2126,-195.998 L -5.59282,-196.458 L -5.91245,-196.962 L -6.16643,-197.501 L -6.35077,-198.069 L -6.46254,-198.655
 L -6.5,-199.25 L -6.5,-232.75 L -6.46254,-233.345 L -6.35077,-233.931 L -6.16643,-234.499 L -5.91245,-235.038
 L -5.59282,-235.542 L -5.2126,-236.002 L -4.77776,-236.41 L -4.29517,-236.761 L -3.77245,-237.048 L -3.21782,-237.268
 L -2.64006,-237.416 L -2.04825,-237.491 L 2.04825,-237.491 L 2.64006,-237.416 L 3.21782,-237.268 L 3.77245,-237.048
 L 4.29517,-236.761 L 4.77776,-236.41 L 5.2126,-236.002 L 5.59282,-235.542 L 5.91245,-235.038 L 6.16643,-234.499
 L 6.35077,-233.931 L 6.46254,-233.345 L 6.5,-232.75 L 6.5,-199.25 L 6.46254,-198.655 L 6.35077,-198.069
 L 6.16643,-197.501 L 5.91245,-196.962 L 5.59282,-196.458 L 5.2126,-195.998 L 4.77776,-195.59 L 4.29517,-195.239
 L 3.77245,-194.952 L 3.21782,-194.732 L 2.64006,-194.584 L 2.04825,-194.509 z
M 2.9369,-140.089 L 3.54507,-140.245 L 4.12889,-140.476 L 4.67912,-140.778 L 5.18712,-141.147 L 5.64484,-141.577
 L 6.04507,-142.061 L 6.38153,-142.591 L 6.64888,-143.159 L 6.84291,-143.757 L 6.96057,-144.373 L 7,-145
 L 7,-179 L 6.96057,-179.627 L 6.84291,-180.243 L 6.64888,-180.841 L 6.38153,-181.409 L 6.04507,-181.939
 L 5.64484,-182.423 L 5.18712,-182.853 L 4.67912,-183.222 L 4.12889,-183.524 L 3.54507,-183.755 L 2.9369,-183.911
 L 2.31395,-183.99 L -2.31395,-183.99 L -2.9369,-183.911 L -3.54507,-183.755 L -4.12889,-183.524 L -4.67912,-183.222
 L -5.18712,-182.853 L -5.64484,-182.423 L -6.04507,-181.939 L -6.38153,-181.409 L -6.64888,-180.841 L -6.84291,-180.243
 L -6.96057,-179.627 L -7,-179 L -7,-145 L -6.96057,-144.373 L -6.84291,-143.757 L -6.64888,-143.159
 L -6.38153,-142.591 L -6.04507,-142.061 L -5.64484,-141.577 L -5.18712,-141.147 L -4.67912,-140.778 L -4.12889,-140.476
 L -3.54507,-140.245 L -2.9369,-140.089 L -2.31395,-140.01 L 2.31395,-140.01 z
M -1.99297,-141.388 L -2.47505,-141.449 L -2.94572,-141.57 L -3.39754,-141.749 L -3.82336,-141.983 L -4.21649,-142.269
 L -4.57071,-142.601 L -4.88046,-142.976 L -5.14084,-143.386 L -5.34773,-143.826 L -5.49789,-144.288 L -5.58896,-144.765
 L -5.61946,-145.25 L -5.61946,-178.75 L -5.58896,-179.235 L -5.49789,-179.712 L -5.34773,-180.174 L -5.14084,-180.614
 L -4.88046,-181.024 L -4.57071,-181.399 L -4.21649,-181.731 L -3.82336,-182.017 L -3.39754,-182.251 L -2.94572,-182.43
 L -2.47505,-182.551 L -1.99297,-182.612 L 1.99297,-182.612 L 2.47505,-182.551 L 2.94572,-182.43 L 3.39754,-182.251
 L 3.82336,-182.017 L 4.21649,-181.731 L 4.57071,-181.399 L 4.88046,-181.024 L 5.14084,-180.614 L 5.34773,-180.174
 L 5.49789,-179.712 L 5.58896,-179.235 L 5.61946,-178.75 L 5.61946,-145.25 L 5.58896,-144.765 L 5.49789,-144.288
 L 5.34773,-143.826 L 5.14084,-143.386 L 4.88046,-142.976 L 4.57071,-142.601 L 4.21649,-142.269 L 3.82336,-141.983
 L 3.39754,-141.749 L 2.94572,-141.57 L 2.47505,-141.449 L 1.99297,-141.388 z
M 2.9369,-86.0886 L 3.54507,-86.2447 L 4.12889,-86.4759 L 4.67912,-86.7784 L 5.18712,-87.1474 L 5.64484,-87.5773
 L 6.04507,-88.0611 L 6.38153,-88.5912 L 6.64888,-89.1594 L 6.84291,-89.7566 L 6.96057,-90.3733 L 7,-91
 L 7,-125 L 6.96057,-125.627 L 6.84291,-126.243 L 6.64888,-126.841 L 6.38153,-127.409 L 6.04507,-127.939
 L 5.64484,-128.423 L 5.18712,-128.853 L 4.67912,-129.222 L 4.12889,-129.524 L 3.54507,-129.755 L 2.9369,-129.911
 L 2.31395,-129.99 L -2.31395,-129.99 L -2.9369,-129.911 L -3.54507,-129.755 L -4.12889,-129.524 L -4.67912,-129.222
 L -5.18712,-128.853 L -5.64484,-128.423 L -6.04507,-127.939 L -6.38153,-127.409 L -6.64888,-126.841 L -6.84291,-126.243
 L -6.96057,-125.627 L -7,-125 L -7,-91 L -6.96057,-90.3733 L -6.84291,-89.7566 L -6.64888,-89.1594
 L -6.38153,-88.5912 L -6.04507,-88.0611 L -5.64484,-87.5773 L -5.18712,-87.1474 L -4.67912,-86.7784 L -4.12889,-86.4759
 L -3.54507,-86.2447 L -2.9369,-86.0886 L -2.31395,-86.0099 L 2.31395,-86.0099 z
M -0.0941772,-121.503 L -0.281067,-121.527 L -0.463516,-121.573 L -0.638657,-121.643 L -0.803726,-121.734 L -0.956131,-121.844
 L -1.09344,-121.973 L -1.21352,-122.118 L -1.31445,-122.277 L -1.39465,-122.448 L -1.45287,-122.627 L -1.48816,-122.812
 L -1.5,-123 L -1.48816,-123.188 L -1.45287,-123.373 L -1.39465,-123.552 L -1.31445,-123.723 L -1.21352,-123.882
 L -1.09344,-124.027 L -0.956131,-124.156 L -0.803726,-124.266 L -0.638657,-124.357 L -0.463516,-124.427 L -0.281067,-124.473
 L -0.0941772,-124.497 L 0.0941772,-124.497 L 0.281067,-124.473 L 0.463516,-124.427 L 0.638657,-124.357 L 0.803726,-124.266
 L 0.956131,-124.156 L 1.09344,-124.027 L 1.21352,-123.882 L 1.31445,-123.723 L 1.39465,-123.552 L 1.45287,-123.373
 L 1.48816,-123.188 L 1.5,-123 L 1.48816,-122.812 L 1.45287,-122.627 L 1.39465,-122.448 L 1.31445,-122.277
 L 1.21352,-122.118 L 1.09344,-121.973 L 0.956131,-121.844 L 0.803726,-121.734 L 0.638657,-121.643 L 0.463516,-121.573
 L 0.281067,-121.527 L 0.0941772,-121.503 z
M -0.0941772,-91.503 L -0.281067,-91.5266 L -0.463516,-91.5734 L -0.638657,-91.6428 L -0.803726,-91.7335 L -0.956131,-91.8442
 L -1.09344,-91.9732 L -1.21352,-92.1183 L -1.31445,-92.2774 L -1.39465,-92.4478 L -1.45287,-92.627 L -1.48816,-92.812
 L -1.5,-93 L -1.48816,-93.188 L -1.45287,-93.373 L -1.39465,-93.5522 L -1.31445,-93.7226 L -1.21352,-93.8817
 L -1.09344,-94.0268 L -0.956131,-94.1558 L -0.803726,-94.2665 L -0.638657,-94.3573 L -0.463516,-94.4266 L -0.281067,-94.4734
 L -0.0941772,-94.4971 L 0.0941772,-94.4971 L 0.281067,-94.4734 L 0.463516,-94.4266 L 0.638657,-94.3573 L 0.803726,-94.2665
 L 0.956131,-94.1558 L 1.09344,-94.0268 L 1.21352,-93.8817 L 1.31445,-93.7226 L 1.39465,-93.5522 L 1.45287,-93.373
 L 1.48816,-93.188 L 1.5,-93 L 1.48816,-92.812 L 1.45287,-92.627 L 1.39465,-92.4478 L 1.31445,-92.2774
 L 1.21352,-92.1183 L 1.09344,-91.9732 L 0.956131,-91.8442 L 0.803726,-91.7335 L 0.638657,-91.6428 L 0.463516,-91.5734
 L 0.281067,-91.5266 L 0.0941772,-91.503 z
" stroke="black" fill="lightgray" stroke-width="0.5"/>
</svg>
