<?xml version="1.0" standalone="no"?>
<!DOCTYPE svg PUBLIC "-//W3C//DTD SVG 1.1//EN" "http://www.w3.org/Graphics/SVG/1.1/DTD/svg11.dtd">
<svg width="30mm" height="147mm" viewBox="-15 -249 30 147" xmlns="http://www.w3.org/2000/svg" version="1.1">
<title>OpenSCAD Model</title>
<path d="
M 10.4369,-219.589 L 11.0451,-219.745 L 11.6289,-219.976 L 12.1791,-220.278 L 12.6871,-220.647 L 13.1448,-221.077
 L 13.5451,-221.561 L 13.8815,-222.091 L 14.1489,-222.659 L 14.3429,-223.257 L 14.4606,-223.873 L 14.5,-224.5
 L 14.5,-243.5 L 14.4606,-244.127 L 14.3429,-244.743 L 14.1489,-245.341 L 13.8815,-245.909 L 13.5451,-246.439
 L 13.1448,-246.923 L 12.6871,-247.353 L 12.1791,-247.722 L 11.6289,-248.024 L 11.0451,-248.255 L 10.4369,-248.411
 L 9.81395,-248.49 L -9.81395,-248.49 L -10.4369,-248.411 L -11.0451,-248.255 L -11.6289,-248.024 L -12.1791,-247.722
 L -12.6871,-247.353 L -13.1448,-246.923 L -13.5451,-246.439 L -13.8815,-245.909 L -14.1489,-245.341 L -14.3429,-244.743
 L -14.4606,-244.127 L -14.5,-243.5 L -14.5,-224.5 L -14.4606,-223.873 L -14.3429,-223.257 L -14.1489,-222.659
 L -13.8815,-222.091 L -13.5451,-221.561 L -13.1448,-221.077 L -12.6871,-220.647 L -12.1791,-220.278 L -11.6289,-219.976
 L -11.0451,-219.745 L -10.4369,-219.589 L -9.81395,-219.51 L 9.81395,-219.51 z
M -9.54825,-220.009 L -10.1401,-220.084 L -10.7178,-220.232 L -11.2724,-220.452 L -11.7952,-220.739 L -12.2778,-221.09
 L -12.7126,-221.498 L -13.0928,-221.958 L -13.4124,-222.462 L -13.6664,-223.001 L -13.8508,-223.569 L -13.9625,-224.155
 L -14,-224.75 L -14,-243.25 L -13.9625,-243.845 L -13.8508,-244.431 L -13.6664,-244.999 L -13.4124,-245.538
 L -13.0928,-246.042 L -12.7126,-246.502 L -12.2778,-246.91 L -11.7952,-247.261 L -11.2724,-247.548 L -10.7178,-247.768
 L -10.1401,-247.916 L -9.54825,-247.991 L 9.54825,-247.991 L 10.1401,-247.916 L 10.7178,-247.768 L 11.2724,-247.548
 L 11.7952,-247.261 L 12.2778,-246.91 L 12.7126,-246.502 L 13.0928,-246.042 L 13.4124,-245.538 L 13.6664,-244.999
 L 13.8508,-244.431 L 13.9625,-243.845 L 14,-243.25 L 14,-224.75 L 13.9625,-224.155 L 13.8508,-223.569
 L 13.6664,-223.001 L 13.4124,-222.462 L 13.0928,-221.958 L 12.7126,-221.498 L 12.2778,-221.09 L 11.7952,-220.739
 L 11.2724,-220.452 L 10.7178,-220.232 L 10.1401,-220.084 L 9.54825,-220.009 z
M 10.4369,-180.589 L 11.0451,-180.745 L 11.6289,-180.976 L 12.1791,-181.278 L 12.6871,-181.647 L 13.1448,-182.077
 L 13.5451,-182.561 L 13.8815,-183.091 L 14.1489,-183.659 L 14.3429,-184.257 L 14.4606,-184.873 L 14.5,-185.5
 L 14.5,-204.5 L 14.4606,-205.127 L 14.3429,-205.743 L 14.1489,-206.341 L 13.8815,-206.909 L 13.5451,-207.439
 L 13.1448,-207.923 L 12.6871,-208.353 L 12.1791,-208.722 L 11.6289,-209.024 L 11.0451,-209.255 L 10.4369,-209.411
 L 9.81395,-209.49 L -9.81395,-209.49 L -10.4369,-209.411 L -11.0451,-209.255 L -11.6289,-209.024 L -12.1791,-208.722
 L -12.6871,-208.353 L -13.1448,-207.923 L -13.5451,-207.439 L -13.8815,-206.909 L -14.1489,-206.341 L -14.3429,-205.743
 L -14.4606,-205.127 L -14.5,-204.5 L -14.5,-185.5 L -14.4606,-184.873 L -14.3429,-184.257 L -14.1489,-183.659
 L -13.8815,-183.091 L -13.5451,-182.561 L -13.1448,-182.077 L -12.6871,-181.647 L -12.1791,-181.278 L -11.6289,-180.976
 L -11.0451,-180.745 L -10.4369,-180.589 L -9.81395,-180.51 L 9.81395,-180.51 z
M -9.54825,-181.009 L -10.1401,-181.084 L -10.7178,-181.232 L -11.2724,-181.452 L -11.7952,-181.739 L -12.2778,-182.09
 L -12.7126,-182.498 L -13.0928,-182.958 L -13.4124,-183.462 L -13.6664,-184.001 L -13.8508,-184.569 L -13.9625,-185.155
 L -14,-185.75 L -14,-204.25 L -13.9625,-204.845 L -13.8508,-205.431 L -13.6664,-205.999 L -13.4124,-206.538
 L -13.0928,-207.042 L -12.7126,-207.502 L -12.2778,-207.91 L -11.7952,-208.261 L -11.2724,-208.548 L -10.7178,-208.768
 L -10.1401,-208.916 L -9.54825,-208.991 L 9.54825,-208.991 L 10.1401,-208.916 L 10.7178,-208.768 L 11.2724,-208.548
 L 11.7952,-208.261 L 12.2778,-207.91 L 12.7126,-207.502 L 13.0928,-207.042 L 13.4124,-206.538 L 13.6664,-205.999
 L 13.8508,-205.431 L 13.9625,-204.845 L 14,-204.25 L 14,-185.75 L 13.9625,-185.155 L 13.8508,-184.569
 L 13.6664,-184.001 L 13.4124,-183.462 L 13.0928,-182.958 L 12.7126,-182.498 L 12.2778,-182.09 L 11.7952,-181.739
 L 11.2724,-181.452 L 10.7178,-181.232 L 10.1401,-181.084 L 9.54825,-181.009 z
M 10.4369,-141.589 L 11.0451,-141.745 L 11.6289,-141.976 L 12.1791,-142.278 L 12.6871,-142.647 L 13.1448,-143.077
 L 13.5451,-143.561 L 13.8815,-144.091 L 14.1489,-144.659 L 14.3429,-145.257 L 14.4606,-145.873 L 14.5,-146.5
 L 14.5,-165.5 L 14.4606,-166.127 L 14.3429,-166.743 L 14.1489,-167.341 L 13.8815,-167.909 L 13.5451,-168.439
 L 13.1448,-168.923 L 12.6871,-169.353 L 12.1791,-169.722 L 11.6289,-170.024 L 11.0451,-170.255 L 10.4369,-170.411
 L 9.81395,-170.49 L -9.81395,-170.49 L -10.4369,-170.411 L -11.0451,-170.255 L -11.6289,-170.024 L -12.1791,-169.722
 L -12.6871,-169.353 L -13.1448,-168.923 L -13.5451,-168.439 L -13.8815,-167.909 L -14.1489,-167.341 L -14.3429,-166.743
 L -14.4606,-166.127 L -14.5,-165.5 L -14.5,-146.5 L -14.4606,-145.873 L -14.3429,-145.257 L -14.1489,-144.659
 L -13.8815,-144.091 L -13.5451,-143.561 L -13.1448,-143.077 L -12.6871,-142.647 L -12.1791,-142.278 L -11.6289,-141.976
 L -11.0451,-141.745 L -10.4369,-141.589 L -9.81395,-141.51 L 9.81395,-141.51 z
M -9.49297,-142.888 L -9.97507,-142.949 L -10.4457,-143.07 L -10.8975,-143.249 L -11.3234,-143.483 L -11.7165,-143.769
 L -12.0707,-144.101 L -12.3805,-144.476 L -12.6408,-144.886 L -12.8477,-145.326 L -12.9979,-145.788 L -13.089,-146.265
 L -13.1195,-146.75 L -13.1195,-165.25 L -13.089,-165.735 L -12.9979,-166.212 L -12.8477,-166.674 L -12.6408,-167.114
 L -12.3805,-167.524 L -12.0707,-167.899 L -11.7165,-168.231 L -11.3234,-168.517 L -10.8975,-168.751 L -10.4457,-168.93
 L -9.97507,-169.051 L -9.49297,-169.112 L 9.49297,-169.112 L 9.97507,-169.051 L 10.4457,-168.93 L 10.8975,-168.751
 L 11.3234,-168.517 L 11.7165,-168.231 L 12.0707,-167.899 L 12.3805,-167.524 L 12.6408,-167.114 L 12.8477,-166.674
 L 12.9979,-166.212 L 13.089,-165.735 L 13.1195,-165.25 L 13.1195,-146.75 L 13.089,-146.265 L 12.9979,-145.788
 L 12.8477,-145.326 L 12.6408,-144.886 L 12.3805,-144.476 L 12.0707,-144.101 L 11.7165,-143.769 L 11.3234,-143.483
 L 10.8975,-143.249 L 10.4457,-143.07 L 9.97507,-142.949 L 9.49297,-142.888 z
M 10.4369,-102.589 L 11.0451,-102.745 L 11.6289,-102.976 L 12.1791,-103.278 L 12.6871,-103.647 L 13.1448,-104.077
 L 13.5451,-104.561 L 13.8815,-105.091 L 14.1489,-105.659 L 14.3429,-106.257 L 14.4606,-106.873 L 14.5,-107.5
 L 14.5,-126.5 L 14.4606,-127.127 L 14.3429,-127.743 L 14.1489,-128.341 L 13.8815,-128.909 L 13.5451,-129.439
 L 13.1448,-129.923 L 12.6871,-130.353 L 12.1791,-130.722 L 11.6289,-131.024 L 11.0451,-131.255 L 10.4369,-131.411
 L 9.81395,-131.49 L -9.81395,-131.49 L -10.4369,-131.411 L -11.0451,-131.255 L -11.6289,-131.024 L -12.1791,-130.722
 L -12.6871,-130.353 L -13.1448,-129.923 L -13.5451,-129.439 L -13.8815,-128.909 L -14.1489,-128.341 L -14.3429,-127.743
 L -14.4606,-127.127 L -14.5,-126.5 L -14.5,-107.5 L -14.4606,-106.873 L -14.3429,-106.257 L -14.1489,-105.659
 L -13.8815,-105.091 L -13.5451,-104.561 L -13.1448,-104.077 L -12.6871,-103.647 L -12.1791,-103.278 L -11.6289,-102.976
 L -11.0451,-102.745 L -10.4369,-102.589 L -9.81395,-102.51 L 9.81395,-102.51 z
M -7.59418,-123.003 L -7.78107,-123.027 L -7.96352,-123.073 L -8.13866,-123.143 L -8.30373,-123.234 L -8.45613,-123.344
 L -8.59344,-123.473 L -8.71352,-123.618 L -8.81445,-123.777 L -8.89465,-123.948 L -8.95287,-124.127 L -8.98816,-124.312
 L -9,-124.5 L -8.98816,-124.688 L -8.95287,-124.873 L -8.89465,-125.052 L -8.81445,-125.223 L -8.71352,-125.382
 L -8.59344,-125.527 L -8.45613,-125.656 L -8.30373,-125.766 L -8.13866,-125.857 L -7.96352,-125.927 L -7.78107,-125.973
 L -7.59418,-125.997 L -7.40581,-125.997 L -7.21892,-125.973 L -7.03647,-125.927 L -6.86133,-125.857 L -6.69626,-125.766
 L -6.54385,-125.656 L -6.40654,-125.527 L -6.28647,-125.382 L -6.18553,-125.223 L -6.10533,-125.052 L -6.04712,-124.873
 L -6.01183,-124.688 L -6,-124.5 L -6.01183,-124.312 L -6.04712,-124.127 L -6.10533,-123.948 L -6.18553,-123.777
 L -6.28647,-123.618 L -6.40654,-123.473 L -6.54385,-123.344 L -6.69626,-123.234 L -6.86133,-123.143 L -7.03647,-123.073
 L -7.21892,-123.027 L -7.40581,-123.003 z
M 7.40581,-123.003 L 7.21892,-123.027 L 7.03647,-123.073 L 6.86133,-123.143 L 6.69626,-123.234 L 6.54385,-123.344
 L 6.40654,-123.473 L 6.28647,-123.618 L 6.18553,-123.777 L 6.10533,-123.948 L 6.04712,-124.127 L 6.01183,-124.312
 L 6,-124.5 L 6.01183,-124.688 L 6.04712,-124.873 L 6.10533,-125.052 L 6.18553,-125.223 L 6.28647,-125.382
 L 6.40654,-125.527 L 6.54385,-125.656 L 6.69626,-125.766 L 6.86133,-125.857 L 7.03647,-125.927 L 7.21892,-125.973
 L 7.40581,-125.997 L 7.59418,-125.997 L 7.78107,-125.973 L 7.96352,-125.927 L 8.13866,-125.857 L 8.30373,-125.766
 L 8.45613,-125.656 L 8.59344,-125.527 L 8.71352,-125.382 L 8.81445,-125.223 L 8.89465,-125.052 L 8.95287,-124.873
 L 8.98816,-124.688 L 9,-124.5 L 8.98816,-124.312 L 8.95287,-124.127 L 8.89465,-123.948 L 8.81445,-123.777
 L 8.71352,-123.618 L 8.59344,-123.473 L 8.45613,-123.344 L 8.30373,-123.234 L 8.13866,-123.143 L 7.96352,-123.073
 L 7.78107,-123.027 L 7.59418,-123.003 z
M 7.40581,-108.003 L 7.21892,-108.027 L 7.03647,-108.073 L 6.86133,-108.143 L 6.69626,-108.234 L 6.54385,-108.344
 L 6.40654,-108.473 L 6.28647,-108.618 L 6.18553,-108.777 L 6.10533,-108.948 L 6.04712,-109.127 L 6.01183,-109.312
 L 6,-109.5 L 6.01183,-109.688 L 6.04712,-109.873 L 6.10533,-110.052 L 6.18553,-110.223 L 6.28647,-110.382
 L 6.40654,-110.527 L 6.54385,-110.656 L 6.69626,-110.766 L 6.86133,-110.857 L 7.03647,-110.927 L 7.21892,-110.973
 L 7.40581,-110.997 L 7.59418,-110.997 L 7.78107,-110.973 L 7.96352,-110.927 L 8.13866,-110.857 L 8.30373,-110.766
 L 8.45613,-110.656 L 8.59344,-110.527 L 8.71352,-110.382 L 8.81445,-110.223 L 8.89465,-110.052 L 8.95287,-109.873
 L 8.98816,-109.688 L 9,-109.5 L 8.98816,-109.312 L 8.95287,-109.127 L 8.89465,-108.948 L 8.81445,-108.777
 L 8.71352,-108.618 L 8.59344,-108.473 L 8.45613,-108.344 L 8.30373,-108.234 L 8.13866,-108.143 L 7.96352,-108.073
 L 7.78107,-108.027 L 7.59418,-108.003 z
M -7.59418,-108.003 L -7.78107,-108.027 L -7.96352,-108.073 L -8.13866,-108.143 L -8.30373,-108.234 L -8.45613,-108.344
 L -8.59344,-108.473 L -8.71352,-108.618 L -8.81445,-108.777 L -8.89465,-108.948 L -8.95287,-109.127 L -8.98816,-109.312
 L -9,-109.5 L -8.98816,-109.688 L -8.95287,-109.873 L -8.89465,-110.052 L -8.81445,-110.223 L -8.71352,-110.382
 L -8.59344,-110.527 L -8.45613,-110.656 L -8.30373,-110.766 L -8.13866,-110.857 L -7.96352,-110.927 L -7.78107,-110.973
 L -7.59418,-110.997 L -7.40581,-110.997 L -7.21892,-110.973 L -7.03647,-110.927 L -6.86133,-110.857 L -6.69626,-110.766
 L -6.54385,-110.656 L -6.40654,-110.527 L -6.28647,-110.382 L -6.18553,-110.223 L -6.10533,-110.052 L -6.04712,-109.873
 L -6.01183,-109.688 L -6,-109.5 L -6.01183,-109.312 L -6.04712,-109.127 L -6.10533,-108.948 L -6.18553,-108.777
 L -6.28647,-108.618 L -6.40654,-108.473 L -6.54385,-108.344 L -6.69626,-108.234 L -6.86133,-108.143 L -7.03647,-108.073
 L -7.21892,-108.027 L -7.40581,-108.003 z
" stroke="black" fill="lightgray" stroke-width="0.5"/>
</svg>
