  0
SECTION
  2
BLOCKS
  0
ENDSEC
  0
SECTION
  2
ENTITIES
  0
LINE
  8
0
 10
25.9369
 20
177.089
 11
26.5451
 21
177.245
  0
LINE
  8
0
 10
26.5451
 20
177.245
 11
27.1289
 21
177.476
  0
LINE
  8
0
 10
27.1289
 20
177.476
 11
27.6791
 21
177.778
  0
LINE
  8
0
 10
27.6791
 20
177.778
 11
28.1871
 21
178.147
  0
LINE
  8
0
 10
28.1871
 20
178.147
 11
28.6448
 21
178.577
  0
LINE
  8
0
 10
28.6448
 20
178.577
 11
29.0451
 21
179.061
  0
LINE
  8
0
 10
29.0451
 20
179.061
 11
29.3815
 21
179.591
  0
LINE
  8
0
 10
29.3815
 20
179.591
 11
29.6489
 21
180.159
  0
LINE
  8
0
 10
29.6489
 20
180.159
 11
29.8429
 21
180.757
  0
LINE
  8
0
 10
29.8429
 20
180.757
 11
29.9606
 21
181.373
  0
LINE
  8
0
 10
29.9606
 20
181.373
 11
30
 21
182
  0
LINE
  8
0
 10
30
 20
182
 11
30
 21
232
  0
LINE
  8
0
 10
30
 20
232
 11
29.9606
 21
232.627
  0
LINE
  8
0
 10
29.9606
 20
232.627
 11
29.8429
 21
233.243
  0
LINE
  8
0
 10
29.8429
 20
233.243
 11
29.6489
 21
233.841
  0
LINE
  8
0
 10
29.6489
 20
233.841
 11
29.3815
 21
234.409
  0
LINE
  8
0
 10
29.3815
 20
234.409
 11
29.0451
 21
234.939
  0
LINE
  8
0
 10
29.0451
 20
234.939
 11
28.6448
 21
235.423
  0
LINE
  8
0
 10
28.6448
 20
235.423
 11
28.1871
 21
235.853
  0
LINE
  8
0
 10
28.1871
 20
235.853
 11
27.6791
 21
236.222
  0
LINE
  8
0
 10
27.6791
 20
236.222
 11
27.1289
 21
236.524
  0
LINE
  8
0
 10
27.1289
 20
236.524
 11
26.5451
 21
236.755
  0
LINE
  8
0
 10
26.5451
 20
236.755
 11
25.9369
 21
236.911
  0
LINE
  8
0
 10
25.9369
 20
236.911
 11
25.3139
 21
236.99
  0
LINE
  8
0
 10
25.3139
 20
236.99
 11
-25.3139
 21
236.99
  0
LINE
  8
0
 10
-25.3139
 20
236.99
 11
-25.9369
 21
236.911
  0
LINE
  8
0
 10
-25.9369
 20
236.911
 11
-26.5451
 21
236.755
  0
LINE
  8
0
 10
-26.5451
 20
236.755
 11
-27.1289
 21
236.524
  0
LINE
  8
0
 10
-27.1289
 20
236.524
 11
-27.6791
 21
236.222
  0
LINE
  8
0
 10
-27.6791
 20
236.222
 11
-28.1871
 21
235.853
  0
LINE
  8
0
 10
-28.1871
 20
235.853
 11
-28.6448
 21
235.423
  0
LINE
  8
0
 10
-28.6448
 20
235.423
 11
-29.0451
 21
234.939
  0
LINE
  8
0
 10
-29.0451
 20
234.939
 11
-29.3815
 21
234.409
  0
LINE
  8
0
 10
-29.3815
 20
234.409
 11
-29.6489
 21
233.841
  0
LINE
  8
0
 10
-29.6489
 20
233.841
 11
-29.8429
 21
233.243
  0
LINE
  8
0
 10
-29.8429
 20
233.243
 11
-29.9606
 21
232.627
  0
LINE
  8
0
 10
-29.9606
 20
232.627
 11
-30
 21
232
  0
LINE
  8
0
 10
-30
 20
232
 11
-30
 21
182
  0
LINE
  8
0
 10
-30
 20
182
 11
-29.9606
 21
181.373
  0
LINE
  8
0
 10
-29.9606
 20
181.373
 11
-29.8429
 21
180.757
  0
LINE
  8
0
 10
-29.8429
 20
180.757
 11
-29.6489
 21
180.159
  0
LINE
  8
0
 10
-29.6489
 20
180.159
 11
-29.3815
 21
179.591
  0
LINE
  8
0
 10
-29.3815
 20
179.591
 11
-29.0451
 21
179.061
  0
LINE
  8
0
 10
-29.0451
 20
179.061
 11
-28.6448
 21
178.577
  0
LINE
  8
0
 10
-28.6448
 20
178.577
 11
-28.1871
 21
178.147
  0
LINE
  8
0
 10
-28.1871
 20
178.147
 11
-27.6791
 21
177.778
  0
LINE
  8
0
 10
-27.6791
 20
177.778
 11
-27.1289
 21
177.476
  0
LINE
  8
0
 10
-27.1289
 20
177.476
 11
-26.5451
 21
177.245
  0
LINE
  8
0
 10
-26.5451
 20
177.245
 11
-25.9369
 21
177.089
  0
LINE
  8
0
 10
-25.9369
 20
177.089
 11
-25.3139
 21
177.01
  0
LINE
  8
0
 10
-25.3139
 20
177.01
 11
25.3139
 21
177.01
  0
LINE
  8
0
 10
25.3139
 20
177.01
 11
25.9369
 21
177.089
  0
LINE
  8
0
 10
-19.7539
 20
177.54
 11
-19.3209
 21
177.778
  0
LINE
  8
0
 10
-19.3209
 20
177.778
 11
-18.8129
 21
178.147
  0
LINE
  8
0
 10
-18.8129
 20
178.147
 11
-18.3551
 21
178.577
  0
LINE
  8
0
 10
-18.3551
 20
178.577
 11
-17.9549
 21
179.061
  0
LINE
  8
0
 10
-17.9549
 20
179.061
 11
-17.6185
 21
179.591
  0
LINE
  8
0
 10
-17.6185
 20
179.591
 11
-17.3511
 21
180.159
  0
LINE
  8
0
 10
-17.3511
 20
180.159
 11
-17.1571
 21
180.757
  0
LINE
  8
0
 10
-17.1571
 20
180.757
 11
-17.0394
 21
181.373
  0
LINE
  8
0
 10
-17.0394
 20
181.373
 11
-17
 21
182
  0
LINE
  8
0
 10
-17
 20
182
 11
-17
 21
185
  0
LINE
  8
0
 10
-17
 20
185
 11
-17.0394
 21
185.627
  0
LINE
  8
0
 10
-17.0394
 20
185.627
 11
-17.1571
 21
186.243
  0
LINE
  8
0
 10
-17.1571
 20
186.243
 11
-17.3511
 21
186.841
  0
LINE
  8
0
 10
-17.3511
 20
186.841
 11
-17.6185
 21
187.409
  0
LINE
  8
0
 10
-17.6185
 20
187.409
 11
-17.9549
 21
187.939
  0
LINE
  8
0
 10
-17.9549
 20
187.939
 11
-18.3551
 21
188.423
  0
LINE
  8
0
 10
-18.3551
 20
188.423
 11
-18.8129
 21
188.853
  0
LINE
  8
0
 10
-18.8129
 20
188.853
 11
-19.3209
 21
189.222
  0
LINE
  8
0
 10
-19.3209
 20
189.222
 11
-19.8711
 21
189.524
  0
LINE
  8
0
 10
-19.8711
 20
189.524
 11
-20.4549
 21
189.755
  0
LINE
  8
0
 10
-20.4549
 20
189.755
 11
-21.0631
 21
189.911
  0
LINE
  8
0
 10
-21.0631
 20
189.911
 11
-21.686
 21
189.99
  0
LINE
  8
0
 10
-21.686
 20
189.99
 11
-25.3139
 21
189.99
  0
LINE
  8
0
 10
-25.3139
 20
189.99
 11
-25.9369
 21
189.911
  0
LINE
  8
0
 10
-25.9369
 20
189.911
 11
-26.5451
 21
189.755
  0
LINE
  8
0
 10
-26.5451
 20
189.755
 11
-27.1289
 21
189.524
  0
LINE
  8
0
 10
-27.1289
 20
189.524
 11
-27.6791
 21
189.222
  0
LINE
  8
0
 10
-27.6791
 20
189.222
 11
-28.1871
 21
188.853
  0
LINE
  8
0
 10
-28.1871
 20
188.853
 11
-28.6448
 21
188.423
  0
LINE
  8
0
 10
-28.6448
 20
188.423
 11
-29.0451
 21
187.939
  0
LINE
  8
0
 10
-29.0451
 20
187.939
 11
-29.3815
 21
187.409
  0
LINE
  8
0
 10
-29.3815
 20
187.409
 11
-29.4685
 21
187.224
  0
LINE
  8
0
 10
-29.4685
 20
187.224
 11
-29.4685
 21
232
  0
LINE
  8
0
 10
-29.4685
 20
232
 11
-29.4333
 21
232.56
  0
LINE
  8
0
 10
-29.4333
 20
232.56
 11
-29.3282
 21
233.111
  0
LINE
  8
0
 10
-29.3282
 20
233.111
 11
-29.1547
 21
233.645
  0
LINE
  8
0
 10
-29.1547
 20
233.645
 11
-28.9158
 21
234.153
  0
LINE
  8
0
 10
-28.9158
 20
234.153
 11
-28.6151
 21
234.627
  0
LINE
  8
0
 10
-28.6151
 20
234.627
 11
-28.2574
 21
235.059
  0
LINE
  8
0
 10
-28.2574
 20
235.059
 11
-27.8483
 21
235.443
  0
LINE
  8
0
 10
-27.8483
 20
235.443
 11
-27.3944
 21
235.773
  0
LINE
  8
0
 10
-27.3944
 20
235.773
 11
-26.9026
 21
236.043
  0
LINE
  8
0
 10
-26.9026
 20
236.043
 11
-26.3808
 21
236.25
  0
LINE
  8
0
 10
-26.3808
 20
236.25
 11
-25.8373
 21
236.389
  0
LINE
  8
0
 10
-25.8373
 20
236.389
 11
-25.2806
 21
236.46
  0
LINE
  8
0
 10
-25.2806
 20
236.46
 11
25.2806
 21
236.46
  0
LINE
  8
0
 10
25.2806
 20
236.46
 11
25.8373
 21
236.389
  0
LINE
  8
0
 10
25.8373
 20
236.389
 11
26.3808
 21
236.25
  0
LINE
  8
0
 10
26.3808
 20
236.25
 11
26.9026
 21
236.043
  0
LINE
  8
0
 10
26.9026
 20
236.043
 11
27.3944
 21
235.773
  0
LINE
  8
0
 10
27.3944
 20
235.773
 11
27.8483
 21
235.443
  0
LINE
  8
0
 10
27.8483
 20
235.443
 11
28.2574
 21
235.059
  0
LINE
  8
0
 10
28.2574
 20
235.059
 11
28.6151
 21
234.627
  0
LINE
  8
0
 10
28.6151
 20
234.627
 11
28.9158
 21
234.153
  0
LINE
  8
0
 10
28.9158
 20
234.153
 11
29.1547
 21
233.645
  0
LINE
  8
0
 10
29.1547
 20
233.645
 11
29.3282
 21
233.111
  0
LINE
  8
0
 10
29.3282
 20
233.111
 11
29.4333
 21
232.56
  0
LINE
  8
0
 10
29.4333
 20
232.56
 11
29.4685
 21
232
  0
LINE
  8
0
 10
29.4685
 20
232
 11
29.4685
 21
182
  0
LINE
  8
0
 10
29.4685
 20
182
 11
29.4333
 21
181.44
  0
LINE
  8
0
 10
29.4333
 20
181.44
 11
29.3282
 21
180.889
  0
LINE
  8
0
 10
29.3282
 20
180.889
 11
29.1547
 21
180.355
  0
LINE
  8
0
 10
29.1547
 20
180.355
 11
28.9158
 21
179.847
  0
LINE
  8
0
 10
28.9158
 20
179.847
 11
28.6151
 21
179.373
  0
LINE
  8
0
 10
28.6151
 20
179.373
 11
28.2574
 21
178.941
  0
LINE
  8
0
 10
28.2574
 20
178.941
 11
27.8483
 21
178.557
  0
LINE
  8
0
 10
27.8483
 20
178.557
 11
27.3944
 21
178.227
  0
LINE
  8
0
 10
27.3944
 20
178.227
 11
26.9026
 21
177.957
  0
LINE
  8
0
 10
26.9026
 20
177.957
 11
26.3808
 21
177.75
  0
LINE
  8
0
 10
26.3808
 20
177.75
 11
25.8373
 21
177.611
  0
LINE
  8
0
 10
25.8373
 20
177.611
 11
25.2806
 21
177.54
  0
LINE
  8
0
 10
25.2806
 20
177.54
 11
-19.7539
 21
177.54
  0
LINE
  8
0
 10
22.9684
 20
227.044
 11
23.2725
 21
227.122
  0
LINE
  8
0
 10
23.2725
 20
227.122
 11
23.5644
 21
227.238
  0
LINE
  8
0
 10
23.5644
 20
227.238
 11
23.8396
 21
227.389
  0
LINE
  8
0
 10
23.8396
 20
227.389
 11
24.0936
 21
227.574
  0
LINE
  8
0
 10
24.0936
 20
227.574
 11
24.3224
 21
227.789
  0
LINE
  8
0
 10
24.3224
 20
227.789
 11
24.5225
 21
228.031
  0
LINE
  8
0
 10
24.5225
 20
228.031
 11
24.6908
 21
228.296
  0
LINE
  8
0
 10
24.6908
 20
228.296
 11
24.8244
 21
228.58
  0
LINE
  8
0
 10
24.8244
 20
228.58
 11
24.9214
 21
228.878
  0
LINE
  8
0
 10
24.9214
 20
228.878
 11
24.9803
 21
229.187
  0
LINE
  8
0
 10
24.9803
 20
229.187
 11
25
 21
229.5
  0
LINE
  8
0
 10
25
 20
229.5
 11
24.9803
 21
229.813
  0
LINE
  8
0
 10
24.9803
 20
229.813
 11
24.9214
 21
230.122
  0
LINE
  8
0
 10
24.9214
 20
230.122
 11
24.8244
 21
230.42
  0
LINE
  8
0
 10
24.8244
 20
230.42
 11
24.6908
 21
230.704
  0
LINE
  8
0
 10
24.6908
 20
230.704
 11
24.5225
 21
230.969
  0
LINE
  8
0
 10
24.5225
 20
230.969
 11
24.3224
 21
231.211
  0
LINE
  8
0
 10
24.3224
 20
231.211
 11
24.0936
 21
231.426
  0
LINE
  8
0
 10
24.0936
 20
231.426
 11
23.8396
 21
231.611
  0
LINE
  8
0
 10
23.8396
 20
231.611
 11
23.5644
 21
231.762
  0
LINE
  8
0
 10
23.5644
 20
231.762
 11
23.2725
 21
231.878
  0
LINE
  8
0
 10
23.2725
 20
231.878
 11
22.9684
 21
231.956
  0
LINE
  8
0
 10
22.9684
 20
231.956
 11
22.657
 21
231.995
  0
LINE
  8
0
 10
22.657
 20
231.995
 11
22.343
 21
231.995
  0
LINE
  8
0
 10
22.343
 20
231.995
 11
22.0315
 21
231.956
  0
LINE
  8
0
 10
22.0315
 20
231.956
 11
21.7274
 21
231.878
  0
LINE
  8
0
 10
21.7274
 20
231.878
 11
21.4355
 21
231.762
  0
LINE
  8
0
 10
21.4355
 20
231.762
 11
21.1604
 21
231.611
  0
LINE
  8
0
 10
21.1604
 20
231.611
 11
20.9064
 21
231.426
  0
LINE
  8
0
 10
20.9064
 20
231.426
 11
20.6776
 21
231.211
  0
LINE
  8
0
 10
20.6776
 20
231.211
 11
20.4774
 21
230.969
  0
LINE
  8
0
 10
20.4774
 20
230.969
 11
20.3092
 21
230.704
  0
LINE
  8
0
 10
20.3092
 20
230.704
 11
20.1756
 21
230.42
  0
LINE
  8
0
 10
20.1756
 20
230.42
 11
20.0785
 21
230.122
  0
LINE
  8
0
 10
20.0785
 20
230.122
 11
20.0197
 21
229.813
  0
LINE
  8
0
 10
20.0197
 20
229.813
 11
20
 21
229.5
  0
LINE
  8
0
 10
20
 20
229.5
 11
20.0197
 21
229.187
  0
LINE
  8
0
 10
20.0197
 20
229.187
 11
20.0785
 21
228.878
  0
LINE
  8
0
 10
20.0785
 20
228.878
 11
20.1756
 21
228.58
  0
LINE
  8
0
 10
20.1756
 20
228.58
 11
20.3092
 21
228.296
  0
LINE
  8
0
 10
20.3092
 20
228.296
 11
20.4774
 21
228.031
  0
LINE
  8
0
 10
20.4774
 20
228.031
 11
20.6776
 21
227.789
  0
LINE
  8
0
 10
20.6776
 20
227.789
 11
20.9064
 21
227.574
  0
LINE
  8
0
 10
20.9064
 20
227.574
 11
21.1604
 21
227.389
  0
LINE
  8
0
 10
21.1604
 20
227.389
 11
21.4355
 21
227.238
  0
LINE
  8
0
 10
21.4355
 20
227.238
 11
21.7274
 21
227.122
  0
LINE
  8
0
 10
21.7274
 20
227.122
 11
22.0315
 21
227.044
  0
LINE
  8
0
 10
22.0315
 20
227.044
 11
22.343
 21
227.005
  0
LINE
  8
0
 10
22.343
 20
227.005
 11
22.657
 21
227.005
  0
LINE
  8
0
 10
22.657
 20
227.005
 11
22.9684
 21
227.044
  0
LINE
  8
0
 10
22.4058
 20
228.003
 11
22.2189
 21
228.027
  0
LINE
  8
0
 10
22.2189
 20
228.027
 11
22.0365
 21
228.073
  0
LINE
  8
0
 10
22.0365
 20
228.073
 11
21.8613
 21
228.143
  0
LINE
  8
0
 10
21.8613
 20
228.143
 11
21.6963
 21
228.234
  0
LINE
  8
0
 10
21.6963
 20
228.234
 11
21.5439
 21
228.344
  0
LINE
  8
0
 10
21.5439
 20
228.344
 11
21.4065
 21
228.473
  0
LINE
  8
0
 10
21.4065
 20
228.473
 11
21.2865
 21
228.618
  0
LINE
  8
0
 10
21.2865
 20
228.618
 11
21.1855
 21
228.777
  0
LINE
  8
0
 10
21.1855
 20
228.777
 11
21.1053
 21
228.948
  0
LINE
  8
0
 10
21.1053
 20
228.948
 11
21.0471
 21
229.127
  0
LINE
  8
0
 10
21.0471
 20
229.127
 11
21.0118
 21
229.312
  0
LINE
  8
0
 10
21.0118
 20
229.312
 11
21
 21
229.5
  0
LINE
  8
0
 10
21
 20
229.5
 11
21.0118
 21
229.688
  0
LINE
  8
0
 10
21.0118
 20
229.688
 11
21.0471
 21
229.873
  0
LINE
  8
0
 10
21.0471
 20
229.873
 11
21.1053
 21
230.052
  0
LINE
  8
0
 10
21.1053
 20
230.052
 11
21.1855
 21
230.223
  0
LINE
  8
0
 10
21.1855
 20
230.223
 11
21.2865
 21
230.382
  0
LINE
  8
0
 10
21.2865
 20
230.382
 11
21.4065
 21
230.527
  0
LINE
  8
0
 10
21.4065
 20
230.527
 11
21.5439
 21
230.656
  0
LINE
  8
0
 10
21.5439
 20
230.656
 11
21.6963
 21
230.766
  0
LINE
  8
0
 10
21.6963
 20
230.766
 11
21.8613
 21
230.857
  0
LINE
  8
0
 10
21.8613
 20
230.857
 11
22.0365
 21
230.927
  0
LINE
  8
0
 10
22.0365
 20
230.927
 11
22.2189
 21
230.973
  0
LINE
  8
0
 10
22.2189
 20
230.973
 11
22.4058
 21
230.997
  0
LINE
  8
0
 10
22.4058
 20
230.997
 11
22.5942
 21
230.997
  0
LINE
  8
0
 10
22.5942
 20
230.997
 11
22.7811
 21
230.973
  0
LINE
  8
0
 10
22.7811
 20
230.973
 11
22.9635
 21
230.927
  0
LINE
  8
0
 10
22.9635
 20
230.927
 11
23.1387
 21
230.857
  0
LINE
  8
0
 10
23.1387
 20
230.857
 11
23.3037
 21
230.766
  0
LINE
  8
0
 10
23.3037
 20
230.766
 11
23.4561
 21
230.656
  0
LINE
  8
0
 10
23.4561
 20
230.656
 11
23.5934
 21
230.527
  0
LINE
  8
0
 10
23.5934
 20
230.527
 11
23.7135
 21
230.382
  0
LINE
  8
0
 10
23.7135
 20
230.382
 11
23.8145
 21
230.223
  0
LINE
  8
0
 10
23.8145
 20
230.223
 11
23.8947
 21
230.052
  0
LINE
  8
0
 10
23.8947
 20
230.052
 11
23.9529
 21
229.873
  0
LINE
  8
0
 10
23.9529
 20
229.873
 11
23.9882
 21
229.688
  0
LINE
  8
0
 10
23.9882
 20
229.688
 11
24
 21
229.5
  0
LINE
  8
0
 10
24
 20
229.5
 11
23.9882
 21
229.312
  0
LINE
  8
0
 10
23.9882
 20
229.312
 11
23.9529
 21
229.127
  0
LINE
  8
0
 10
23.9529
 20
229.127
 11
23.8947
 21
228.948
  0
LINE
  8
0
 10
23.8947
 20
228.948
 11
23.8145
 21
228.777
  0
LINE
  8
0
 10
23.8145
 20
228.777
 11
23.7135
 21
228.618
  0
LINE
  8
0
 10
23.7135
 20
228.618
 11
23.5934
 21
228.473
  0
LINE
  8
0
 10
23.5934
 20
228.473
 11
23.4561
 21
228.344
  0
LINE
  8
0
 10
23.4561
 20
228.344
 11
23.3037
 21
228.234
  0
LINE
  8
0
 10
23.3037
 20
228.234
 11
23.1387
 21
228.143
  0
LINE
  8
0
 10
23.1387
 20
228.143
 11
22.9635
 21
228.073
  0
LINE
  8
0
 10
22.9635
 20
228.073
 11
22.7811
 21
228.027
  0
LINE
  8
0
 10
22.7811
 20
228.027
 11
22.5942
 21
228.003
  0
LINE
  8
0
 10
22.5942
 20
228.003
 11
22.4058
 21
228.003
  0
LINE
  8
0
 10
-22.5942
 20
183.003
 11
-22.7811
 21
183.027
  0
LINE
  8
0
 10
-22.7811
 20
183.027
 11
-22.9635
 21
183.073
  0
LINE
  8
0
 10
-22.9635
 20
183.073
 11
-23.1387
 21
183.143
  0
LINE
  8
0
 10
-23.1387
 20
183.143
 11
-23.3037
 21
183.234
  0
LINE
  8
0
 10
-23.3037
 20
183.234
 11
-23.4561
 21
183.344
  0
LINE
  8
0
 10
-23.4561
 20
183.344
 11
-23.5934
 21
183.473
  0
LINE
  8
0
 10
-23.5934
 20
183.473
 11
-23.7135
 21
183.618
  0
LINE
  8
0
 10
-23.7135
 20
183.618
 11
-23.8145
 21
183.777
  0
LINE
  8
0
 10
-23.8145
 20
183.777
 11
-23.8947
 21
183.948
  0
LINE
  8
0
 10
-23.8947
 20
183.948
 11
-23.9529
 21
184.127
  0
LINE
  8
0
 10
-23.9529
 20
184.127
 11
-23.9882
 21
184.312
  0
LINE
  8
0
 10
-23.9882
 20
184.312
 11
-24
 21
184.5
  0
LINE
  8
0
 10
-24
 20
184.5
 11
-23.9882
 21
184.688
  0
LINE
  8
0
 10
-23.9882
 20
184.688
 11
-23.9529
 21
184.873
  0
LINE
  8
0
 10
-23.9529
 20
184.873
 11
-23.8947
 21
185.052
  0
LINE
  8
0
 10
-23.8947
 20
185.052
 11
-23.8145
 21
185.223
  0
LINE
  8
0
 10
-23.8145
 20
185.223
 11
-23.7135
 21
185.382
  0
LINE
  8
0
 10
-23.7135
 20
185.382
 11
-23.5934
 21
185.527
  0
LINE
  8
0
 10
-23.5934
 20
185.527
 11
-23.4561
 21
185.656
  0
LINE
  8
0
 10
-23.4561
 20
185.656
 11
-23.3037
 21
185.766
  0
LINE
  8
0
 10
-23.3037
 20
185.766
 11
-23.1387
 21
185.857
  0
LINE
  8
0
 10
-23.1387
 20
185.857
 11
-22.9635
 21
185.927
  0
LINE
  8
0
 10
-22.9635
 20
185.927
 11
-22.7811
 21
185.973
  0
LINE
  8
0
 10
-22.7811
 20
185.973
 11
-22.5942
 21
185.997
  0
LINE
  8
0
 10
-22.5942
 20
185.997
 11
-22.4058
 21
185.997
  0
LINE
  8
0
 10
-22.4058
 20
185.997
 11
-22.2189
 21
185.973
  0
LINE
  8
0
 10
-22.2189
 20
185.973
 11
-22.0365
 21
185.927
  0
LINE
  8
0
 10
-22.0365
 20
185.927
 11
-21.8613
 21
185.857
  0
LINE
  8
0
 10
-21.8613
 20
185.857
 11
-21.6963
 21
185.766
  0
LINE
  8
0
 10
-21.6963
 20
185.766
 11
-21.5439
 21
185.656
  0
LINE
  8
0
 10
-21.5439
 20
185.656
 11
-21.4065
 21
185.527
  0
LINE
  8
0
 10
-21.4065
 20
185.527
 11
-21.2865
 21
185.382
  0
LINE
  8
0
 10
-21.2865
 20
185.382
 11
-21.1855
 21
185.223
  0
LINE
  8
0
 10
-21.1855
 20
185.223
 11
-21.1053
 21
185.052
  0
LINE
  8
0
 10
-21.1053
 20
185.052
 11
-21.0471
 21
184.873
  0
LINE
  8
0
 10
-21.0471
 20
184.873
 11
-21.0118
 21
184.688
  0
LINE
  8
0
 10
-21.0118
 20
184.688
 11
-21
 21
184.5
  0
LINE
  8
0
 10
-21
 20
184.5
 11
-21.0118
 21
184.312
  0
LINE
  8
0
 10
-21.0118
 20
184.312
 11
-21.0471
 21
184.127
  0
LINE
  8
0
 10
-21.0471
 20
184.127
 11
-21.1053
 21
183.948
  0
LINE
  8
0
 10
-21.1053
 20
183.948
 11
-21.1855
 21
183.777
  0
LINE
  8
0
 10
-21.1855
 20
183.777
 11
-21.2865
 21
183.618
  0
LINE
  8
0
 10
-21.2865
 20
183.618
 11
-21.4065
 21
183.473
  0
LINE
  8
0
 10
-21.4065
 20
183.473
 11
-21.5439
 21
183.344
  0
LINE
  8
0
 10
-21.5439
 20
183.344
 11
-21.6963
 21
183.234
  0
LINE
  8
0
 10
-21.6963
 20
183.234
 11
-21.8613
 21
183.143
  0
LINE
  8
0
 10
-21.8613
 20
183.143
 11
-22.0365
 21
183.073
  0
LINE
  8
0
 10
-22.0365
 20
183.073
 11
-22.2189
 21
183.027
  0
LINE
  8
0
 10
-22.2189
 20
183.027
 11
-22.4058
 21
183.003
  0
LINE
  8
0
 10
-22.4058
 20
183.003
 11
-22.5942
 21
183.003
  0
LINE
  8
0
 10
25.9369
 20
108.089
 11
26.5451
 21
108.245
  0
LINE
  8
0
 10
26.5451
 20
108.245
 11
27.1289
 21
108.476
  0
LINE
  8
0
 10
27.1289
 20
108.476
 11
27.6791
 21
108.778
  0
LINE
  8
0
 10
27.6791
 20
108.778
 11
28.1871
 21
109.147
  0
LINE
  8
0
 10
28.1871
 20
109.147
 11
28.6448
 21
109.577
  0
LINE
  8
0
 10
28.6448
 20
109.577
 11
29.0451
 21
110.061
  0
LINE
  8
0
 10
29.0451
 20
110.061
 11
29.3815
 21
110.591
  0
LINE
  8
0
 10
29.3815
 20
110.591
 11
29.6489
 21
111.159
  0
LINE
  8
0
 10
29.6489
 20
111.159
 11
29.8429
 21
111.757
  0
LINE
  8
0
 10
29.8429
 20
111.757
 11
29.9606
 21
112.373
  0
LINE
  8
0
 10
29.9606
 20
112.373
 11
30
 21
113
  0
LINE
  8
0
 10
30
 20
113
 11
30
 21
163
  0
LINE
  8
0
 10
30
 20
163
 11
29.9606
 21
163.627
  0
LINE
  8
0
 10
29.9606
 20
163.627
 11
29.8429
 21
164.243
  0
LINE
  8
0
 10
29.8429
 20
164.243
 11
29.6489
 21
164.841
  0
LINE
  8
0
 10
29.6489
 20
164.841
 11
29.3815
 21
165.409
  0
LINE
  8
0
 10
29.3815
 20
165.409
 11
29.0451
 21
165.939
  0
LINE
  8
0
 10
29.0451
 20
165.939
 11
28.6448
 21
166.423
  0
LINE
  8
0
 10
28.6448
 20
166.423
 11
28.1871
 21
166.853
  0
LINE
  8
0
 10
28.1871
 20
166.853
 11
27.6791
 21
167.222
  0
LINE
  8
0
 10
27.6791
 20
167.222
 11
27.1289
 21
167.524
  0
LINE
  8
0
 10
27.1289
 20
167.524
 11
26.5451
 21
167.755
  0
LINE
  8
0
 10
26.5451
 20
167.755
 11
25.9369
 21
167.911
  0
LINE
  8
0
 10
25.9369
 20
167.911
 11
25.3139
 21
167.99
  0
LINE
  8
0
 10
25.3139
 20
167.99
 11
-25.3139
 21
167.99
  0
LINE
  8
0
 10
-25.3139
 20
167.99
 11
-25.9369
 21
167.911
  0
LINE
  8
0
 10
-25.9369
 20
167.911
 11
-26.5451
 21
167.755
  0
LINE
  8
0
 10
-26.5451
 20
167.755
 11
-27.1289
 21
167.524
  0
LINE
  8
0
 10
-27.1289
 20
167.524
 11
-27.6791
 21
167.222
  0
LINE
  8
0
 10
-27.6791
 20
167.222
 11
-28.1871
 21
166.853
  0
LINE
  8
0
 10
-28.1871
 20
166.853
 11
-28.6448
 21
166.423
  0
LINE
  8
0
 10
-28.6448
 20
166.423
 11
-29.0451
 21
165.939
  0
LINE
  8
0
 10
-29.0451
 20
165.939
 11
-29.3815
 21
165.409
  0
LINE
  8
0
 10
-29.3815
 20
165.409
 11
-29.6489
 21
164.841
  0
LINE
  8
0
 10
-29.6489
 20
164.841
 11
-29.8429
 21
164.243
  0
LINE
  8
0
 10
-29.8429
 20
164.243
 11
-29.9606
 21
163.627
  0
LINE
  8
0
 10
-29.9606
 20
163.627
 11
-30
 21
163
  0
LINE
  8
0
 10
-30
 20
163
 11
-30
 21
113
  0
LINE
  8
0
 10
-30
 20
113
 11
-29.9606
 21
112.373
  0
LINE
  8
0
 10
-29.9606
 20
112.373
 11
-29.8429
 21
111.757
  0
LINE
  8
0
 10
-29.8429
 20
111.757
 11
-29.6489
 21
111.159
  0
LINE
  8
0
 10
-29.6489
 20
111.159
 11
-29.3815
 21
110.591
  0
LINE
  8
0
 10
-29.3815
 20
110.591
 11
-29.0451
 21
110.061
  0
LINE
  8
0
 10
-29.0451
 20
110.061
 11
-28.6448
 21
109.577
  0
LINE
  8
0
 10
-28.6448
 20
109.577
 11
-28.1871
 21
109.147
  0
LINE
  8
0
 10
-28.1871
 20
109.147
 11
-27.6791
 21
108.778
  0
LINE
  8
0
 10
-27.6791
 20
108.778
 11
-27.1289
 21
108.476
  0
LINE
  8
0
 10
-27.1289
 20
108.476
 11
-26.5451
 21
108.245
  0
LINE
  8
0
 10
-26.5451
 20
108.245
 11
-25.9369
 21
108.089
  0
LINE
  8
0
 10
-25.9369
 20
108.089
 11
-25.3139
 21
108.01
  0
LINE
  8
0
 10
-25.3139
 20
108.01
 11
25.3139
 21
108.01
  0
LINE
  8
0
 10
25.3139
 20
108.01
 11
25.9369
 21
108.089
  0
LINE
  8
0
 10
-17.8781
 20
110.182
 11
-17.6185
 21
110.591
  0
LINE
  8
0
 10
-17.6185
 20
110.591
 11
-17.3511
 21
111.159
  0
LINE
  8
0
 10
-17.3511
 20
111.159
 11
-17.1571
 21
111.757
  0
LINE
  8
0
 10
-17.1571
 20
111.757
 11
-17.0394
 21
112.373
  0
LINE
  8
0
 10
-17.0394
 20
112.373
 11
-17
 21
113
  0
LINE
  8
0
 10
-17
 20
113
 11
-17
 21
116
  0
LINE
  8
0
 10
-17
 20
116
 11
-17.0394
 21
116.627
  0
LINE
  8
0
 10
-17.0394
 20
116.627
 11
-17.1571
 21
117.243
  0
LINE
  8
0
 10
-17.1571
 20
117.243
 11
-17.3511
 21
117.841
  0
LINE
  8
0
 10
-17.3511
 20
117.841
 11
-17.6185
 21
118.409
  0
LINE
  8
0
 10
-17.6185
 20
118.409
 11
-17.9549
 21
118.939
  0
LINE
  8
0
 10
-17.9549
 20
118.939
 11
-18.3551
 21
119.423
  0
LINE
  8
0
 10
-18.3551
 20
119.423
 11
-18.8129
 21
119.853
  0
LINE
  8
0
 10
-18.8129
 20
119.853
 11
-19.3209
 21
120.222
  0
LINE
  8
0
 10
-19.3209
 20
120.222
 11
-19.8711
 21
120.524
  0
LINE
  8
0
 10
-19.8711
 20
120.524
 11
-20.4549
 21
120.755
  0
LINE
  8
0
 10
-20.4549
 20
120.755
 11
-21.0631
 21
120.911
  0
LINE
  8
0
 10
-21.0631
 20
120.911
 11
-21.686
 21
120.99
  0
LINE
  8
0
 10
-21.686
 20
120.99
 11
-25.3139
 21
120.99
  0
LINE
  8
0
 10
-25.3139
 20
120.99
 11
-25.9369
 21
120.911
  0
LINE
  8
0
 10
-25.9369
 20
120.911
 11
-26.5451
 21
120.755
  0
LINE
  8
0
 10
-26.5451
 20
120.755
 11
-27.1289
 21
120.524
  0
LINE
  8
0
 10
-27.1289
 20
120.524
 11
-27.6791
 21
120.222
  0
LINE
  8
0
 10
-27.6791
 20
120.222
 11
-27.8234
 21
120.117
  0
LINE
  8
0
 10
-27.8234
 20
120.117
 11
-27.8234
 21
163
  0
LINE
  8
0
 10
-27.8234
 20
163
 11
-27.8011
 21
163.354
  0
LINE
  8
0
 10
-27.8011
 20
163.354
 11
-27.7347
 21
163.702
  0
LINE
  8
0
 10
-27.7347
 20
163.702
 11
-27.6251
 21
164.039
  0
LINE
  8
0
 10
-27.6251
 20
164.039
 11
-27.4742
 21
164.36
  0
LINE
  8
0
 10
-27.4742
 20
164.36
 11
-27.2842
 21
164.66
  0
LINE
  8
0
 10
-27.2842
 20
164.66
 11
-27.0582
 21
164.933
  0
LINE
  8
0
 10
-27.0582
 20
164.933
 11
-26.7997
 21
165.175
  0
LINE
  8
0
 10
-26.7997
 20
165.175
 11
-26.5128
 21
165.384
  0
LINE
  8
0
 10
-26.5128
 20
165.384
 11
-26.2021
 21
165.555
  0
LINE
  8
0
 10
-26.2021
 20
165.555
 11
-25.8725
 21
165.685
  0
LINE
  8
0
 10
-25.8725
 20
165.685
 11
-25.5291
 21
165.773
  0
LINE
  8
0
 10
-25.5291
 20
165.773
 11
-25.1773
 21
165.818
  0
LINE
  8
0
 10
-25.1773
 20
165.818
 11
17.8781
 21
165.818
  0
LINE
  8
0
 10
17.8781
 20
165.818
 11
17.6185
 21
165.409
  0
LINE
  8
0
 10
17.6185
 20
165.409
 11
17.3511
 21
164.841
  0
LINE
  8
0
 10
17.3511
 20
164.841
 11
17.1571
 21
164.243
  0
LINE
  8
0
 10
17.1571
 20
164.243
 11
17.0394
 21
163.627
  0
LINE
  8
0
 10
17.0394
 20
163.627
 11
17
 21
163
  0
LINE
  8
0
 10
17
 20
163
 11
17
 21
160
  0
LINE
  8
0
 10
17
 20
160
 11
17.0394
 21
159.373
  0
LINE
  8
0
 10
17.0394
 20
159.373
 11
17.1571
 21
158.757
  0
LINE
  8
0
 10
17.1571
 20
158.757
 11
17.3511
 21
158.159
  0
LINE
  8
0
 10
17.3511
 20
158.159
 11
17.6185
 21
157.591
  0
LINE
  8
0
 10
17.6185
 20
157.591
 11
17.9549
 21
157.061
  0
LINE
  8
0
 10
17.9549
 20
157.061
 11
18.3551
 21
156.577
  0
LINE
  8
0
 10
18.3551
 20
156.577
 11
18.8129
 21
156.147
  0
LINE
  8
0
 10
18.8129
 20
156.147
 11
19.3209
 21
155.778
  0
LINE
  8
0
 10
19.3209
 20
155.778
 11
19.8711
 21
155.476
  0
LINE
  8
0
 10
19.8711
 20
155.476
 11
20.4549
 21
155.245
  0
LINE
  8
0
 10
20.4549
 20
155.245
 11
21.0631
 21
155.089
  0
LINE
  8
0
 10
21.0631
 20
155.089
 11
21.686
 21
155.01
  0
LINE
  8
0
 10
21.686
 20
155.01
 11
25.3139
 21
155.01
  0
LINE
  8
0
 10
25.3139
 20
155.01
 11
25.9369
 21
155.089
  0
LINE
  8
0
 10
25.9369
 20
155.089
 11
26.5451
 21
155.245
  0
LINE
  8
0
 10
26.5451
 20
155.245
 11
27.1289
 21
155.476
  0
LINE
  8
0
 10
27.1289
 20
155.476
 11
27.6791
 21
155.778
  0
LINE
  8
0
 10
27.6791
 20
155.778
 11
27.8234
 21
155.883
  0
LINE
  8
0
 10
27.8234
 20
155.883
 11
27.8234
 21
113
  0
LINE
  8
0
 10
27.8234
 20
113
 11
27.8011
 21
112.646
  0
LINE
  8
0
 10
27.8011
 20
112.646
 11
27.7347
 21
112.298
  0
LINE
  8
0
 10
27.7347
 20
112.298
 11
27.6251
 21
111.961
  0
LINE
  8
0
 10
27.6251
 20
111.961
 11
27.4742
 21
111.64
  0
LINE
  8
0
 10
27.4742
 20
111.64
 11
27.2842
 21
111.34
  0
LINE
  8
0
 10
27.2842
 20
111.34
 11
27.0582
 21
111.067
  0
LINE
  8
0
 10
27.0582
 20
111.067
 11
26.7997
 21
110.825
  0
LINE
  8
0
 10
26.7997
 20
110.825
 11
26.5128
 21
110.616
  0
LINE
  8
0
 10
26.5128
 20
110.616
 11
26.2021
 21
110.445
  0
LINE
  8
0
 10
26.2021
 20
110.445
 11
25.8725
 21
110.315
  0
LINE
  8
0
 10
25.8725
 20
110.315
 11
25.5291
 21
110.227
  0
LINE
  8
0
 10
25.5291
 20
110.227
 11
25.1773
 21
110.182
  0
LINE
  8
0
 10
25.1773
 20
110.182
 11
-17.8781
 21
110.182
  0
LINE
  8
0
 10
22.3493
 20
158.105
 11
22.0503
 21
158.143
  0
LINE
  8
0
 10
22.0503
 20
158.143
 11
21.7583
 21
158.217
  0
LINE
  8
0
 10
21.7583
 20
158.217
 11
21.4781
 21
158.328
  0
LINE
  8
0
 10
21.4781
 20
158.328
 11
21.214
 21
158.474
  0
LINE
  8
0
 10
21.214
 20
158.474
 11
20.9702
 21
158.651
  0
LINE
  8
0
 10
20.9702
 20
158.651
 11
20.7505
 21
158.857
  0
LINE
  8
0
 10
20.7505
 20
158.857
 11
20.5583
 21
159.089
  0
LINE
  8
0
 10
20.5583
 20
159.089
 11
20.3969
 21
159.344
  0
LINE
  8
0
 10
20.3969
 20
159.344
 11
20.2685
 21
159.617
  0
LINE
  8
0
 10
20.2685
 20
159.617
 11
20.1754
 21
159.903
  0
LINE
  8
0
 10
20.1754
 20
159.903
 11
20.1189
 21
160.199
  0
LINE
  8
0
 10
20.1189
 20
160.199
 11
20.1
 21
160.5
  0
LINE
  8
0
 10
20.1
 20
160.5
 11
20.1189
 21
160.801
  0
LINE
  8
0
 10
20.1189
 20
160.801
 11
20.1754
 21
161.097
  0
LINE
  8
0
 10
20.1754
 20
161.097
 11
20.2685
 21
161.383
  0
LINE
  8
0
 10
20.2685
 20
161.383
 11
20.3969
 21
161.656
  0
LINE
  8
0
 10
20.3969
 20
161.656
 11
20.5583
 21
161.911
  0
LINE
  8
0
 10
20.5583
 20
161.911
 11
20.7505
 21
162.143
  0
LINE
  8
0
 10
20.7505
 20
162.143
 11
20.9702
 21
162.349
  0
LINE
  8
0
 10
20.9702
 20
162.349
 11
21.214
 21
162.526
  0
LINE
  8
0
 10
21.214
 20
162.526
 11
21.4781
 21
162.672
  0
LINE
  8
0
 10
21.4781
 20
162.672
 11
21.7583
 21
162.783
  0
LINE
  8
0
 10
21.7583
 20
162.783
 11
22.0503
 21
162.857
  0
LINE
  8
0
 10
22.0503
 20
162.857
 11
22.3493
 21
162.895
  0
LINE
  8
0
 10
22.3493
 20
162.895
 11
22.6507
 21
162.895
  0
LINE
  8
0
 10
22.6507
 20
162.895
 11
22.9497
 21
162.857
  0
LINE
  8
0
 10
22.9497
 20
162.857
 11
23.2416
 21
162.783
  0
LINE
  8
0
 10
23.2416
 20
162.783
 11
23.5219
 21
162.672
  0
LINE
  8
0
 10
23.5219
 20
162.672
 11
23.786
 21
162.526
  0
LINE
  8
0
 10
23.786
 20
162.526
 11
24.0298
 21
162.349
  0
LINE
  8
0
 10
24.0298
 20
162.349
 11
24.2495
 21
162.143
  0
LINE
  8
0
 10
24.2495
 20
162.143
 11
24.4416
 21
161.911
  0
LINE
  8
0
 10
24.4416
 20
161.911
 11
24.6031
 21
161.656
  0
LINE
  8
0
 10
24.6031
 20
161.656
 11
24.7315
 21
161.383
  0
LINE
  8
0
 10
24.7315
 20
161.383
 11
24.8246
 21
161.097
  0
LINE
  8
0
 10
24.8246
 20
161.097
 11
24.8811
 21
160.801
  0
LINE
  8
0
 10
24.8811
 20
160.801
 11
24.9
 21
160.5
  0
LINE
  8
0
 10
24.9
 20
160.5
 11
24.8811
 21
160.199
  0
LINE
  8
0
 10
24.8811
 20
160.199
 11
24.8246
 21
159.903
  0
LINE
  8
0
 10
24.8246
 20
159.903
 11
24.7315
 21
159.617
  0
LINE
  8
0
 10
24.7315
 20
159.617
 11
24.6031
 21
159.344
  0
LINE
  8
0
 10
24.6031
 20
159.344
 11
24.4416
 21
159.089
  0
LINE
  8
0
 10
24.4416
 20
159.089
 11
24.2495
 21
158.857
  0
LINE
  8
0
 10
24.2495
 20
158.857
 11
24.0298
 21
158.651
  0
LINE
  8
0
 10
24.0298
 20
158.651
 11
23.786
 21
158.474
  0
LINE
  8
0
 10
23.786
 20
158.474
 11
23.5219
 21
158.328
  0
LINE
  8
0
 10
23.5219
 20
158.328
 11
23.2416
 21
158.217
  0
LINE
  8
0
 10
23.2416
 20
158.217
 11
22.9497
 21
158.143
  0
LINE
  8
0
 10
22.9497
 20
158.143
 11
22.6507
 21
158.105
  0
LINE
  8
0
 10
22.6507
 20
158.105
 11
22.3493
 21
158.105
  0
LINE
  8
0
 10
-22.6507
 20
113.105
 11
-22.9497
 21
113.143
  0
LINE
  8
0
 10
-22.9497
 20
113.143
 11
-23.2416
 21
113.217
  0
LINE
  8
0
 10
-23.2416
 20
113.217
 11
-23.5219
 21
113.328
  0
LINE
  8
0
 10
-23.5219
 20
113.328
 11
-23.786
 21
113.474
  0
LINE
  8
0
 10
-23.786
 20
113.474
 11
-24.0298
 21
113.651
  0
LINE
  8
0
 10
-24.0298
 20
113.651
 11
-24.2495
 21
113.857
  0
LINE
  8
0
 10
-24.2495
 20
113.857
 11
-24.4416
 21
114.089
  0
LINE
  8
0
 10
-24.4416
 20
114.089
 11
-24.6031
 21
114.344
  0
LINE
  8
0
 10
-24.6031
 20
114.344
 11
-24.7315
 21
114.617
  0
LINE
  8
0
 10
-24.7315
 20
114.617
 11
-24.8246
 21
114.903
  0
LINE
  8
0
 10
-24.8246
 20
114.903
 11
-24.8811
 21
115.199
  0
LINE
  8
0
 10
-24.8811
 20
115.199
 11
-24.9
 21
115.5
  0
LINE
  8
0
 10
-24.9
 20
115.5
 11
-24.8811
 21
115.801
  0
LINE
  8
0
 10
-24.8811
 20
115.801
 11
-24.8246
 21
116.097
  0
LINE
  8
0
 10
-24.8246
 20
116.097
 11
-24.7315
 21
116.383
  0
LINE
  8
0
 10
-24.7315
 20
116.383
 11
-24.6031
 21
116.656
  0
LINE
  8
0
 10
-24.6031
 20
116.656
 11
-24.4416
 21
116.911
  0
LINE
  8
0
 10
-24.4416
 20
116.911
 11
-24.2495
 21
117.143
  0
LINE
  8
0
 10
-24.2495
 20
117.143
 11
-24.0298
 21
117.349
  0
LINE
  8
0
 10
-24.0298
 20
117.349
 11
-23.786
 21
117.526
  0
LINE
  8
0
 10
-23.786
 20
117.526
 11
-23.5219
 21
117.672
  0
LINE
  8
0
 10
-23.5219
 20
117.672
 11
-23.2416
 21
117.783
  0
LINE
  8
0
 10
-23.2416
 20
117.783
 11
-22.9497
 21
117.857
  0
LINE
  8
0
 10
-22.9497
 20
117.857
 11
-22.6507
 21
117.895
  0
LINE
  8
0
 10
-22.6507
 20
117.895
 11
-22.3493
 21
117.895
  0
LINE
  8
0
 10
-22.3493
 20
117.895
 11
-22.0503
 21
117.857
  0
LINE
  8
0
 10
-22.0503
 20
117.857
 11
-21.7583
 21
117.783
  0
LINE
  8
0
 10
-21.7583
 20
117.783
 11
-21.4781
 21
117.672
  0
LINE
  8
0
 10
-21.4781
 20
117.672
 11
-21.214
 21
117.526
  0
LINE
  8
0
 10
-21.214
 20
117.526
 11
-20.9702
 21
117.349
  0
LINE
  8
0
 10
-20.9702
 20
117.349
 11
-20.7505
 21
117.143
  0
LINE
  8
0
 10
-20.7505
 20
117.143
 11
-20.5583
 21
116.911
  0
LINE
  8
0
 10
-20.5583
 20
116.911
 11
-20.3969
 21
116.656
  0
LINE
  8
0
 10
-20.3969
 20
116.656
 11
-20.2685
 21
116.383
  0
LINE
  8
0
 10
-20.2685
 20
116.383
 11
-20.1754
 21
116.097
  0
LINE
  8
0
 10
-20.1754
 20
116.097
 11
-20.1189
 21
115.801
  0
LINE
  8
0
 10
-20.1189
 20
115.801
 11
-20.1
 21
115.5
  0
LINE
  8
0
 10
-20.1
 20
115.5
 11
-20.1189
 21
115.199
  0
LINE
  8
0
 10
-20.1189
 20
115.199
 11
-20.1754
 21
114.903
  0
LINE
  8
0
 10
-20.1754
 20
114.903
 11
-20.2685
 21
114.617
  0
LINE
  8
0
 10
-20.2685
 20
114.617
 11
-20.3969
 21
114.344
  0
LINE
  8
0
 10
-20.3969
 20
114.344
 11
-20.5583
 21
114.089
  0
LINE
  8
0
 10
-20.5583
 20
114.089
 11
-20.7505
 21
113.857
  0
LINE
  8
0
 10
-20.7505
 20
113.857
 11
-20.9702
 21
113.651
  0
LINE
  8
0
 10
-20.9702
 20
113.651
 11
-21.214
 21
113.474
  0
LINE
  8
0
 10
-21.214
 20
113.474
 11
-21.4781
 21
113.328
  0
LINE
  8
0
 10
-21.4781
 20
113.328
 11
-21.7583
 21
113.217
  0
LINE
  8
0
 10
-21.7583
 20
113.217
 11
-22.0503
 21
113.143
  0
LINE
  8
0
 10
-22.0503
 20
113.143
 11
-22.3493
 21
113.105
  0
LINE
  8
0
 10
-22.3493
 20
113.105
 11
-22.6507
 21
113.105
  0
ENDSEC
  0
SECTION
  2
OBJECTS
  0
DICTIONARY
  0
ENDSEC
  0
EOF
