<?xml version="1.0" standalone="no"?>
<!DOCTYPE svg PUBLIC "-//W3C//DTD SVG 1.1//EN" "http://www.w3.org/Graphics/SVG/1.1/DTD/svg11.dtd">
<svg width="60mm" height="129mm" viewBox="-30 -237 60 129" xmlns="http://www.w3.org/2000/svg" version="1.1">
<title>OpenSCAD Model</title>
<path d="
M 25.9369,-177.089 L 26.5451,-177.245 L 27.1289,-177.476 L 27.6791,-177.778 L 28.1871,-178.147 L 28.6448,-178.577
 L 29.0451,-179.061 L 29.3815,-179.591 L 29.6489,-180.159 L 29.8429,-180.757 L 29.9606,-181.373 L 30,-182
 L 30,-232 L 29.9606,-232.627 L 29.8429,-233.243 L 29.6489,-233.841 L 29.3815,-234.409 L 29.0451,-234.939
 L 28.6448,-235.423 L 28.1871,-235.853 L 27.6791,-236.222 L 27.1289,-236.524 L 26.5451,-236.755 L 25.9369,-236.911
 L 25.3139,-236.99 L -25.3139,-236.99 L -25.9369,-236.911 L -26.5451,-236.755 L -27.1289,-236.524 L -27.6791,-236.222
 L -28.1871,-235.853 L -28.6448,-235.423 L -29.0451,-234.939 L -29.3815,-234.409 L -29.6489,-233.841 L -29.8429,-233.243
 L -29.9606,-232.627 L -30,-232 L -30,-182 L -29.9606,-181.373 L -29.8429,-180.757 L -29.6489,-180.159
 L -29.3815,-179.591 L -29.0451,-179.061 L -28.6448,-178.577 L -28.1871,-178.147 L -27.6791,-177.778 L -27.1289,-177.476
 L -26.5451,-177.245 L -25.9369,-177.089 L -25.3139,-177.01 L 25.3139,-177.01 z
M -19.7539,-177.54 L -19.3209,-177.778 L -18.8129,-178.147 L -18.3551,-178.577 L -17.9549,-179.061 L -17.6185,-179.591
 L -17.3511,-180.159 L -17.1571,-180.757 L -17.0394,-181.373 L -17,-182 L -17,-185 L -17.0394,-185.627
 L -17.1571,-186.243 L -17.3511,-186.841 L -17.6185,-187.409 L -17.9549,-187.939 L -18.3551,-188.423 L -18.8129,-188.853
 L -19.3209,-189.222 L -19.8711,-189.524 L -20.4549,-189.755 L -21.0631,-189.911 L -21.686,-189.99 L -25.3139,-189.99
 L -25.9369,-189.911 L -26.5451,-189.755 L -27.1289,-189.524 L -27.6791,-189.222 L -28.1871,-188.853 L -28.6448,-188.423
 L -29.0451,-187.939 L -29.3815,-187.409 L -29.4685,-187.224 L -29.4685,-232 L -29.4333,-232.56 L -29.3282,-233.111
 L -29.1547,-233.645 L -28.9158,-234.153 L -28.6151,-234.627 L -28.2574,-235.059 L -27.8483,-235.443 L -27.3944,-235.773
 L -26.9026,-236.043 L -26.3808,-236.25 L -25.8373,-236.389 L -25.2806,-236.46 L 25.2806,-236.46 L 25.8373,-236.389
 L 26.3808,-236.25 L 26.9026,-236.043 L 27.3944,-235.773 L 27.8483,-235.443 L 28.2574,-235.059 L 28.6151,-234.627
 L 28.9158,-234.153 L 29.1547,-233.645 L 29.3282,-233.111 L 29.4333,-232.56 L 29.4685,-232 L 29.4685,-182
 L 29.4333,-181.44 L 29.3282,-180.889 L 29.1547,-180.355 L 28.9158,-179.847 L 28.6151,-179.373 L 28.2574,-178.941
 L 27.8483,-178.557 L 27.3944,-178.227 L 26.9026,-177.957 L 26.3808,-177.75 L 25.8373,-177.611 L 25.2806,-177.54
 z
M 22.9684,-227.044 L 23.2725,-227.122 L 23.5644,-227.238 L 23.8396,-227.389 L 24.0936,-227.574 L 24.3224,-227.789
 L 24.5225,-228.031 L 24.6908,-228.296 L 24.8244,-228.58 L 24.9214,-228.878 L 24.9803,-229.187 L 25,-229.5
 L 24.9803,-229.813 L 24.9214,-230.122 L 24.8244,-230.42 L 24.6908,-230.704 L 24.5225,-230.969 L 24.3224,-231.211
 L 24.0936,-231.426 L 23.8396,-231.611 L 23.5644,-231.762 L 23.2725,-231.878 L 22.9684,-231.956 L 22.657,-231.995
 L 22.343,-231.995 L 22.0315,-231.956 L 21.7274,-231.878 L 21.4355,-231.762 L 21.1604,-231.611 L 20.9064,-231.426
 L 20.6776,-231.211 L 20.4774,-230.969 L 20.3092,-230.704 L 20.1756,-230.42 L 20.0785,-230.122 L 20.0197,-229.813
 L 20,-229.5 L 20.0197,-229.187 L 20.0785,-228.878 L 20.1756,-228.58 L 20.3092,-228.296 L 20.4774,-228.031
 L 20.6776,-227.789 L 20.9064,-227.574 L 21.1604,-227.389 L 21.4355,-227.238 L 21.7274,-227.122 L 22.0315,-227.044
 L 22.343,-227.005 L 22.657,-227.005 z
M 22.4058,-228.003 L 22.2189,-228.027 L 22.0365,-228.073 L 21.8613,-228.143 L 21.6963,-228.234 L 21.5439,-228.344
 L 21.4065,-228.473 L 21.2865,-228.618 L 21.1855,-228.777 L 21.1053,-228.948 L 21.0471,-229.127 L 21.0118,-229.312
 L 21,-229.5 L 21.0118,-229.688 L 21.0471,-229.873 L 21.1053,-230.052 L 21.1855,-230.223 L 21.2865,-230.382
 L 21.4065,-230.527 L 21.5439,-230.656 L 21.6963,-230.766 L 21.8613,-230.857 L 22.0365,-230.927 L 22.2189,-230.973
 L 22.4058,-230.997 L 22.5942,-230.997 L 22.7811,-230.973 L 22.9635,-230.927 L 23.1387,-230.857 L 23.3037,-230.766
 L 23.4561,-230.656 L 23.5934,-230.527 L 23.7135,-230.382 L 23.8145,-230.223 L 23.8947,-230.052 L 23.9529,-229.873
 L 23.9882,-229.688 L 24,-229.5 L 23.9882,-229.312 L 23.9529,-229.127 L 23.8947,-228.948 L 23.8145,-228.777
 L 23.7135,-228.618 L 23.5934,-228.473 L 23.4561,-228.344 L 23.3037,-228.234 L 23.1387,-228.143 L 22.9635,-228.073
 L 22.7811,-228.027 L 22.5942,-228.003 z
M -22.5942,-183.003 L -22.7811,-183.027 L -22.9635,-183.073 L -23.1387,-183.143 L -23.3037,-183.234 L -23.4561,-183.344
 L -23.5934,-183.473 L -23.7135,-183.618 L -23.8145,-183.777 L -23.8947,-183.948 L -23.9529,-184.127 L -23.9882,-184.312
 L -24,-184.5 L -23.9882,-184.688 L -23.9529,-184.873 L -23.8947,-185.052 L -23.8145,-185.223 L -23.7135,-185.382
 L -23.5934,-185.527 L -23.4561,-185.656 L -23.3037,-185.766 L -23.1387,-185.857 L -22.9635,-185.927 L -22.7811,-185.973
 L -22.5942,-185.997 L -22.4058,-185.997 L -22.2189,-185.973 L -22.0365,-185.927 L -21.8613,-185.857 L -21.6963,-185.766
 L -21.5439,-185.656 L -21.4065,-185.527 L -21.2865,-185.382 L -21.1855,-185.223 L -21.1053,-185.052 L -21.0471,-184.873
 L -21.0118,-184.688 L -21,-184.5 L -21.0118,-184.312 L -21.0471,-184.127 L -21.1053,-183.948 L -21.1855,-183.777
 L -21.2865,-183.618 L -21.4065,-183.473 L -21.5439,-183.344 L -21.6963,-183.234 L -21.8613,-183.143 L -22.0365,-183.073
 L -22.2189,-183.027 L -22.4058,-183.003 z
M 25.9369,-108.089 L 26.5451,-108.245 L 27.1289,-108.476 L 27.6791,-108.778 L 28.1871,-109.147 L 28.6448,-109.577
 L 29.0451,-110.061 L 29.3815,-110.591 L 29.6489,-111.159 L 29.8429,-111.757 L 29.9606,-112.373 L 30,-113
 L 30,-163 L 29.9606,-163.627 L 29.8429,-164.243 L 29.6489,-164.841 L 29.3815,-165.409 L 29.0451,-165.939
 L 28.6448,-166.423 L 28.1871,-166.853 L 27.6791,-167.222 L 27.1289,-167.524 L 26.5451,-167.755 L 25.9369,-167.911
 L 25.3139,-167.99 L -25.3139,-167.99 L -25.9369,-167.911 L -26.5451,-167.755 L -27.1289,-167.524 L -27.6791,-167.222
 L -28.1871,-166.853 L -28.6448,-166.423 L -29.0451,-165.939 L -29.3815,-165.409 L -29.6489,-164.841 L -29.8429,-164.243
 L -29.9606,-163.627 L -30,-163 L -30,-113 L -29.9606,-112.373 L -29.8429,-111.757 L -29.6489,-111.159
 L -29.3815,-110.591 L -29.0451,-110.061 L -28.6448,-109.577 L -28.1871,-109.147 L -27.6791,-108.778 L -27.1289,-108.476
 L -26.5451,-108.245 L -25.9369,-108.089 L -25.3139,-108.01 L 25.3139,-108.01 z
M -17.8781,-110.182 L -17.6185,-110.591 L -17.3511,-111.159 L -17.1571,-111.757 L -17.0394,-112.373 L -17,-113
 L -17,-116 L -17.0394,-116.627 L -17.1571,-117.243 L -17.3511,-117.841 L -17.6185,-118.409 L -17.9549,-118.939
 L -18.3551,-119.423 L -18.8129,-119.853 L -19.3209,-120.222 L -19.8711,-120.524 L -20.4549,-120.755 L -21.0631,-120.911
 L -21.686,-120.99 L -25.3139,-120.99 L -25.9369,-120.911 L -26.5451,-120.755 L -27.1289,-120.524 L -27.6791,-120.222
 L -27.8234,-120.117 L -27.8234,-163 L -27.8011,-163.354 L -27.7347,-163.702 L -27.6251,-164.039 L -27.4742,-164.36
 L -27.2842,-164.66 L -27.0582,-164.933 L -26.7997,-165.175 L -26.5128,-165.384 L -26.2021,-165.555 L -25.8725,-165.685
 L -25.5291,-165.773 L -25.1773,-165.818 L 17.8781,-165.818 L 17.6185,-165.409 L 17.3511,-164.841 L 17.1571,-164.243
 L 17.0394,-163.627 L 17,-163 L 17,-160 L 17.0394,-159.373 L 17.1571,-158.757 L 17.3511,-158.159
 L 17.6185,-157.591 L 17.9549,-157.061 L 18.3551,-156.577 L 18.8129,-156.147 L 19.3209,-155.778 L 19.8711,-155.476
 L 20.4549,-155.245 L 21.0631,-155.089 L 21.686,-155.01 L 25.3139,-155.01 L 25.9369,-155.089 L 26.5451,-155.245
 L 27.1289,-155.476 L 27.6791,-155.778 L 27.8234,-155.883 L 27.8234,-113 L 27.8011,-112.646 L 27.7347,-112.298
 L 27.6251,-111.961 L 27.4742,-111.64 L 27.2842,-111.34 L 27.0582,-111.067 L 26.7997,-110.825 L 26.5128,-110.616
 L 26.2021,-110.445 L 25.8725,-110.315 L 25.5291,-110.227 L 25.1773,-110.182 z
M 22.3493,-158.105 L 22.0503,-158.143 L 21.7583,-158.217 L 21.4781,-158.328 L 21.214,-158.474 L 20.9702,-158.651
 L 20.7505,-158.857 L 20.5583,-159.089 L 20.3969,-159.344 L 20.2685,-159.617 L 20.1754,-159.903 L 20.1189,-160.199
 L 20.1,-160.5 L 20.1189,-160.801 L 20.1754,-161.097 L 20.2685,-161.383 L 20.3969,-161.656 L 20.5583,-161.911
 L 20.7505,-162.143 L 20.9702,-162.349 L 21.214,-162.526 L 21.4781,-162.672 L 21.7583,-162.783 L 22.0503,-162.857
 L 22.3493,-162.895 L 22.6507,-162.895 L 22.9497,-162.857 L 23.2416,-162.783 L 23.5219,-162.672 L 23.786,-162.526
 L 24.0298,-162.349 L 24.2495,-162.143 L 24.4416,-161.911 L 24.6031,-161.656 L 24.7315,-161.383 L 24.8246,-161.097
 L 24.8811,-160.801 L 24.9,-160.5 L 24.8811,-160.199 L 24.8246,-159.903 L 24.7315,-159.617 L 24.6031,-159.344
 L 24.4416,-159.089 L 24.2495,-158.857 L 24.0298,-158.651 L 23.786,-158.474 L 23.5219,-158.328 L 23.2416,-158.217
 L 22.9497,-158.143 L 22.6507,-158.105 z
M -22.6507,-113.105 L -22.9497,-113.143 L -23.2416,-113.217 L -23.5219,-113.328 L -23.786,-113.474 L -24.0298,-113.651
 L -24.2495,-113.857 L -24.4416,-114.089 L -24.6031,-114.344 L -24.7315,-114.617 L -24.8246,-114.903 L -24.8811,-115.199
 L -24.9,-115.5 L -24.8811,-115.801 L -24.8246,-116.097 L -24.7315,-116.383 L -24.6031,-116.656 L -24.4416,-116.911
 L -24.2495,-117.143 L -24.0298,-117.349 L -23.786,-117.526 L -23.5219,-117.672 L -23.2416,-117.783 L -22.9497,-117.857
 L -22.6507,-117.895 L -22.3493,-117.895 L -22.0503,-117.857 L -21.7583,-117.783 L -21.4781,-117.672 L -21.214,-117.526
 L -20.9702,-117.349 L -20.7505,-117.143 L -20.5583,-116.911 L -20.3969,-116.656 L -20.2685,-116.383 L -20.1754,-116.097
 L -20.1189,-115.801 L -20.1,-115.5 L -20.1189,-115.199 L -20.1754,-114.903 L -20.2685,-114.617 L -20.3969,-114.344
 L -20.5583,-114.089 L -20.7505,-113.857 L -20.9702,-113.651 L -21.214,-113.474 L -21.4781,-113.328 L -21.7583,-113.217
 L -22.0503,-113.143 L -22.3493,-113.105 z
" stroke="black" fill="lightgray" stroke-width="0.5"/>
</svg>
