<?xml version="1.0" standalone="no"?>
<!DOCTYPE svg PUBLIC "-//W3C//DTD SVG 1.1//EN" "http://www.w3.org/Graphics/SVG/1.1/DTD/svg11.dtd">
<svg width="46mm" height="160mm" viewBox="-23 -290 46 160" xmlns="http://www.w3.org/2000/svg" version="1.1">
<title>OpenSCAD Model</title>
<path d="
M 18.4369,-214.589 L 19.0451,-214.745 L 19.6289,-214.976 L 20.1791,-215.278 L 20.6871,-215.647 L 21.1448,-216.077
 L 21.5451,-216.561 L 21.8815,-217.091 L 22.1489,-217.659 L 22.3429,-218.257 L 22.4606,-218.873 L 22.5,-219.5
 L 22.5,-284.5 L 22.4606,-285.127 L 22.3429,-285.743 L 22.1489,-286.341 L 21.8815,-286.909 L 21.5451,-287.439
 L 21.1448,-287.923 L 20.6871,-288.353 L 20.1791,-288.722 L 19.6289,-289.024 L 19.0451,-289.255 L 18.4369,-289.411
 L 17.8139,-289.49 L -17.8139,-289.49 L -18.4369,-289.411 L -19.0451,-289.255 L -19.6289,-289.024 L -20.1791,-288.722
 L -20.6871,-288.353 L -21.1448,-287.923 L -21.5451,-287.439 L -21.8815,-286.909 L -22.1489,-286.341 L -22.3429,-285.743
 L -22.4606,-285.127 L -22.5,-284.5 L -22.5,-219.5 L -22.4606,-218.873 L -22.3429,-218.257 L -22.1489,-217.659
 L -21.8815,-217.091 L -21.5451,-216.561 L -21.1448,-216.077 L -20.6871,-215.647 L -20.1791,-215.278 L -19.6289,-214.976
 L -19.0451,-214.745 L -18.4369,-214.589 L -17.8139,-214.51 L 17.8139,-214.51 z
M -12.2539,-215.04 L -11.8209,-215.278 L -11.3129,-215.647 L -10.8551,-216.077 L -10.4549,-216.561 L -10.1185,-217.091
 L -9.8511,-217.659 L -9.65707,-218.257 L -9.53941,-218.873 L -9.5,-219.5 L -9.5,-222.5 L -9.53941,-223.127
 L -9.65707,-223.743 L -9.8511,-224.341 L -10.1185,-224.909 L -10.4549,-225.439 L -10.8551,-225.923 L -11.3129,-226.353
 L -11.8209,-226.722 L -12.3711,-227.024 L -12.9549,-227.255 L -13.5631,-227.411 L -14.186,-227.49 L -17.8139,-227.49
 L -18.4369,-227.411 L -19.0451,-227.255 L -19.6289,-227.024 L -20.1791,-226.722 L -20.6871,-226.353 L -21.1448,-225.923
 L -21.5451,-225.439 L -21.8815,-224.909 L -21.9685,-224.724 L -21.9685,-284.5 L -21.9333,-285.06 L -21.8282,-285.611
 L -21.6547,-286.145 L -21.4158,-286.653 L -21.1151,-287.127 L -20.7574,-287.559 L -20.3483,-287.943 L -19.8944,-288.273
 L -19.4026,-288.543 L -18.8808,-288.75 L -18.3373,-288.889 L -17.7806,-288.96 L 17.7806,-288.96 L 18.3373,-288.889
 L 18.8808,-288.75 L 19.4026,-288.543 L 19.8944,-288.273 L 20.3483,-287.943 L 20.7574,-287.559 L 21.1151,-287.127
 L 21.4158,-286.653 L 21.6547,-286.145 L 21.8282,-285.611 L 21.9333,-285.06 L 21.9685,-284.5 L 21.9685,-219.5
 L 21.9333,-218.94 L 21.8282,-218.389 L 21.6547,-217.855 L 21.4158,-217.347 L 21.1151,-216.873 L 20.7574,-216.441
 L 20.3483,-216.057 L 19.8944,-215.727 L 19.4026,-215.457 L 18.8808,-215.25 L 18.3373,-215.111 L 17.7806,-215.04
 z
M 15.4684,-279.544 L 15.7725,-279.622 L 16.0644,-279.738 L 16.3396,-279.889 L 16.5936,-280.074 L 16.8224,-280.289
 L 17.0225,-280.531 L 17.1908,-280.796 L 17.3244,-281.08 L 17.4214,-281.378 L 17.4803,-281.687 L 17.5,-282
 L 17.4803,-282.313 L 17.4214,-282.622 L 17.3244,-282.92 L 17.1908,-283.204 L 17.0225,-283.469 L 16.8224,-283.711
 L 16.5936,-283.926 L 16.3396,-284.111 L 16.0644,-284.262 L 15.7725,-284.378 L 15.4684,-284.456 L 15.157,-284.495
 L 14.843,-284.495 L 14.5315,-284.456 L 14.2274,-284.378 L 13.9355,-284.262 L 13.6604,-284.111 L 13.4064,-283.926
 L 13.1776,-283.711 L 12.9774,-283.469 L 12.8092,-283.204 L 12.6756,-282.92 L 12.5785,-282.622 L 12.5197,-282.313
 L 12.5,-282 L 12.5197,-281.687 L 12.5785,-281.378 L 12.6756,-281.08 L 12.8092,-280.796 L 12.9774,-280.531
 L 13.1776,-280.289 L 13.4064,-280.074 L 13.6604,-279.889 L 13.9355,-279.738 L 14.2274,-279.622 L 14.5315,-279.544
 L 14.843,-279.505 L 15.157,-279.505 z
M 14.9058,-280.503 L 14.7189,-280.527 L 14.5365,-280.573 L 14.3613,-280.643 L 14.1963,-280.734 L 14.0439,-280.844
 L 13.9065,-280.973 L 13.7865,-281.118 L 13.6855,-281.277 L 13.6053,-281.448 L 13.5471,-281.627 L 13.5118,-281.812
 L 13.5,-282 L 13.5118,-282.188 L 13.5471,-282.373 L 13.6053,-282.552 L 13.6855,-282.723 L 13.7865,-282.882
 L 13.9065,-283.027 L 14.0439,-283.156 L 14.1963,-283.266 L 14.3613,-283.357 L 14.5365,-283.427 L 14.7189,-283.473
 L 14.9058,-283.497 L 15.0942,-283.497 L 15.2811,-283.473 L 15.4635,-283.427 L 15.6387,-283.357 L 15.8037,-283.266
 L 15.9561,-283.156 L 16.0934,-283.027 L 16.2135,-282.882 L 16.3145,-282.723 L 16.3947,-282.552 L 16.4529,-282.373
 L 16.4882,-282.188 L 16.5,-282 L 16.4882,-281.812 L 16.4529,-281.627 L 16.3947,-281.448 L 16.3145,-281.277
 L 16.2135,-281.118 L 16.0934,-280.973 L 15.9561,-280.844 L 15.8037,-280.734 L 15.6387,-280.643 L 15.4635,-280.573
 L 15.2811,-280.527 L 15.0942,-280.503 z
M -15.0942,-220.503 L -15.2811,-220.527 L -15.4635,-220.573 L -15.6387,-220.643 L -15.8037,-220.734 L -15.9561,-220.844
 L -16.0934,-220.973 L -16.2135,-221.118 L -16.3145,-221.277 L -16.3947,-221.448 L -16.4529,-221.627 L -16.4882,-221.812
 L -16.5,-222 L -16.4882,-222.188 L -16.4529,-222.373 L -16.3947,-222.552 L -16.3145,-222.723 L -16.2135,-222.882
 L -16.0934,-223.027 L -15.9561,-223.156 L -15.8037,-223.266 L -15.6387,-223.357 L -15.4635,-223.427 L -15.2811,-223.473
 L -15.0942,-223.497 L -14.9058,-223.497 L -14.7189,-223.473 L -14.5365,-223.427 L -14.3613,-223.357 L -14.1963,-223.266
 L -14.0439,-223.156 L -13.9065,-223.027 L -13.7865,-222.882 L -13.6855,-222.723 L -13.6053,-222.552 L -13.5471,-222.373
 L -13.5118,-222.188 L -13.5,-222 L -13.5118,-221.812 L -13.5471,-221.627 L -13.6053,-221.448 L -13.6855,-221.277
 L -13.7865,-221.118 L -13.9065,-220.973 L -14.0439,-220.844 L -14.1963,-220.734 L -14.3613,-220.643 L -14.5365,-220.573
 L -14.7189,-220.527 L -14.9058,-220.503 z
M 18.4369,-130.589 L 19.0451,-130.745 L 19.6289,-130.976 L 20.1791,-131.278 L 20.6871,-131.647 L 21.1448,-132.077
 L 21.5451,-132.561 L 21.8815,-133.091 L 22.1489,-133.659 L 22.3429,-134.257 L 22.4606,-134.873 L 22.5,-135.5
 L 22.5,-200.5 L 22.4606,-201.127 L 22.3429,-201.743 L 22.1489,-202.341 L 21.8815,-202.909 L 21.5451,-203.439
 L 21.1448,-203.923 L 20.6871,-204.353 L 20.1791,-204.722 L 19.6289,-205.024 L 19.0451,-205.255 L 18.4369,-205.411
 L 17.8139,-205.49 L -17.8139,-205.49 L -18.4369,-205.411 L -19.0451,-205.255 L -19.6289,-205.024 L -20.1791,-204.722
 L -20.6871,-204.353 L -21.1448,-203.923 L -21.5451,-203.439 L -21.8815,-202.909 L -22.1489,-202.341 L -22.3429,-201.743
 L -22.4606,-201.127 L -22.5,-200.5 L -22.5,-135.5 L -22.4606,-134.873 L -22.3429,-134.257 L -22.1489,-133.659
 L -21.8815,-133.091 L -21.5451,-132.561 L -21.1448,-132.077 L -20.6871,-131.647 L -20.1791,-131.278 L -19.6289,-130.976
 L -19.0451,-130.745 L -18.4369,-130.589 L -17.8139,-130.51 L 17.8139,-130.51 z
M -10.3781,-132.682 L -10.1185,-133.091 L -9.8511,-133.659 L -9.65707,-134.257 L -9.53941,-134.873 L -9.5,-135.5
 L -9.5,-138.5 L -9.53941,-139.127 L -9.65707,-139.743 L -9.8511,-140.341 L -10.1185,-140.909 L -10.4549,-141.439
 L -10.8551,-141.923 L -11.3129,-142.353 L -11.8209,-142.722 L -12.3711,-143.024 L -12.9549,-143.255 L -13.5631,-143.411
 L -14.186,-143.49 L -17.8139,-143.49 L -18.4369,-143.411 L -19.0451,-143.255 L -19.6289,-143.024 L -20.1791,-142.722
 L -20.3234,-142.617 L -20.3234,-200.5 L -20.3011,-200.854 L -20.2347,-201.202 L -20.1251,-201.539 L -19.9742,-201.86
 L -19.7842,-202.16 L -19.5582,-202.433 L -19.2997,-202.675 L -19.0128,-202.884 L -18.7021,-203.055 L -18.3725,-203.185
 L -18.0291,-203.273 L -17.6773,-203.318 L 10.3781,-203.318 L 10.1185,-202.909 L 9.8511,-202.341 L 9.65707,-201.743
 L 9.53941,-201.127 L 9.5,-200.5 L 9.5,-197.5 L 9.53941,-196.873 L 9.65707,-196.257 L 9.8511,-195.659
 L 10.1185,-195.091 L 10.4549,-194.561 L 10.8551,-194.077 L 11.3129,-193.647 L 11.8209,-193.278 L 12.3711,-192.976
 L 12.9549,-192.745 L 13.5631,-192.589 L 14.186,-192.51 L 17.8139,-192.51 L 18.4369,-192.589 L 19.0451,-192.745
 L 19.6289,-192.976 L 20.1791,-193.278 L 20.3234,-193.383 L 20.3234,-135.5 L 20.3011,-135.146 L 20.2347,-134.798
 L 20.1251,-134.461 L 19.9742,-134.14 L 19.7842,-133.84 L 19.5582,-133.567 L 19.2997,-133.325 L 19.0128,-133.116
 L 18.7021,-132.945 L 18.3725,-132.815 L 18.0291,-132.727 L 17.6773,-132.682 z
M 14.8493,-195.605 L 14.5503,-195.643 L 14.2583,-195.717 L 13.9781,-195.828 L 13.714,-195.974 L 13.4702,-196.151
 L 13.2505,-196.357 L 13.0583,-196.589 L 12.8969,-196.844 L 12.7685,-197.117 L 12.6754,-197.403 L 12.6189,-197.699
 L 12.6,-198 L 12.6189,-198.301 L 12.6754,-198.597 L 12.7685,-198.883 L 12.8969,-199.156 L 13.0583,-199.411
 L 13.2505,-199.643 L 13.4702,-199.849 L 13.714,-200.026 L 13.9781,-200.172 L 14.2583,-200.283 L 14.5503,-200.357
 L 14.8493,-200.395 L 15.1507,-200.395 L 15.4497,-200.357 L 15.7416,-200.283 L 16.0219,-200.172 L 16.286,-200.026
 L 16.5298,-199.849 L 16.7495,-199.643 L 16.9416,-199.411 L 17.1031,-199.156 L 17.2315,-198.883 L 17.3246,-198.597
 L 17.3811,-198.301 L 17.4,-198 L 17.3811,-197.699 L 17.3246,-197.403 L 17.2315,-197.117 L 17.1031,-196.844
 L 16.9416,-196.589 L 16.7495,-196.357 L 16.5298,-196.151 L 16.286,-195.974 L 16.0219,-195.828 L 15.7416,-195.717
 L 15.4497,-195.643 L 15.1507,-195.605 z
M -15.1507,-135.605 L -15.4497,-135.643 L -15.7416,-135.717 L -16.0219,-135.828 L -16.286,-135.974 L -16.5298,-136.151
 L -16.7495,-136.357 L -16.9416,-136.589 L -17.1031,-136.844 L -17.2315,-137.117 L -17.3246,-137.403 L -17.3811,-137.699
 L -17.4,-138 L -17.3811,-138.301 L -17.3246,-138.597 L -17.2315,-138.883 L -17.1031,-139.156 L -16.9416,-139.411
 L -16.7495,-139.643 L -16.5298,-139.849 L -16.286,-140.026 L -16.0219,-140.172 L -15.7416,-140.283 L -15.4497,-140.357
 L -15.1507,-140.395 L -14.8493,-140.395 L -14.5503,-140.357 L -14.2583,-140.283 L -13.9781,-140.172 L -13.714,-140.026
 L -13.4702,-139.849 L -13.2505,-139.643 L -13.0583,-139.411 L -12.8969,-139.156 L -12.7685,-138.883 L -12.6754,-138.597
 L -12.6189,-138.301 L -12.6,-138 L -12.6189,-137.699 L -12.6754,-137.403 L -12.7685,-137.117 L -12.8969,-136.844
 L -13.0583,-136.589 L -13.2505,-136.357 L -13.4702,-136.151 L -13.714,-135.974 L -13.9781,-135.828 L -14.2583,-135.717
 L -14.5503,-135.643 L -14.8493,-135.605 z
" stroke="black" fill="lightgray" stroke-width="0.5"/>
</svg>
