  0
SECTION
  2
BLOCKS
  0
ENDSEC
  0
SECTION
  2
ENTITIES
  0
LINE
  8
0
 10
25.4369
 20
-21.9114
 11
26.0451
 21
-21.7553
  0
LINE
  8
0
 10
26.0451
 20
-21.7553
 11
26.6289
 21
-21.5241
  0
LINE
  8
0
 10
26.6289
 20
-21.5241
 11
27.1791
 21
-21.2216
  0
LINE
  8
0
 10
27.1791
 20
-21.2216
 11
27.6871
 21
-20.8526
  0
LINE
  8
0
 10
27.6871
 20
-20.8526
 11
28.1448
 21
-20.4227
  0
LINE
  8
0
 10
28.1448
 20
-20.4227
 11
28.5451
 21
-19.9389
  0
LINE
  8
0
 10
28.5451
 20
-19.9389
 11
28.8815
 21
-19.4088
  0
LINE
  8
0
 10
28.8815
 20
-19.4088
 11
29.1489
 21
-18.8406
  0
LINE
  8
0
 10
29.1489
 20
-18.8406
 11
29.3429
 21
-18.2434
  0
LINE
  8
0
 10
29.3429
 20
-18.2434
 11
29.4606
 21
-17.6267
  0
LINE
  8
0
 10
29.4606
 20
-17.6267
 11
29.5
 21
-17
  0
LINE
  8
0
 10
29.5
 20
-17
 11
29.5
 21
17
  0
LINE
  8
0
 10
29.5
 20
17
 11
29.4606
 21
17.6267
  0
LINE
  8
0
 10
29.4606
 20
17.6267
 11
29.3429
 21
18.2434
  0
LINE
  8
0
 10
29.3429
 20
18.2434
 11
29.1489
 21
18.8406
  0
LINE
  8
0
 10
29.1489
 20
18.8406
 11
28.8815
 21
19.4088
  0
LINE
  8
0
 10
28.8815
 20
19.4088
 11
28.5451
 21
19.9389
  0
LINE
  8
0
 10
28.5451
 20
19.9389
 11
28.1448
 21
20.4227
  0
LINE
  8
0
 10
28.1448
 20
20.4227
 11
27.6871
 21
20.8526
  0
LINE
  8
0
 10
27.6871
 20
20.8526
 11
27.1791
 21
21.2216
  0
LINE
  8
0
 10
27.1791
 20
21.2216
 11
26.6289
 21
21.5241
  0
LINE
  8
0
 10
26.6289
 20
21.5241
 11
26.0451
 21
21.7553
  0
LINE
  8
0
 10
26.0451
 20
21.7553
 11
25.4369
 21
21.9114
  0
LINE
  8
0
 10
25.4369
 20
21.9114
 11
24.8139
 21
21.9901
  0
LINE
  8
0
 10
24.8139
 20
21.9901
 11
-24.8139
 21
21.9901
  0
LINE
  8
0
 10
-24.8139
 20
21.9901
 11
-25.4369
 21
21.9114
  0
LINE
  8
0
 10
-25.4369
 20
21.9114
 11
-26.0451
 21
21.7553
  0
LINE
  8
0
 10
-26.0451
 20
21.7553
 11
-26.6289
 21
21.5241
  0
LINE
  8
0
 10
-26.6289
 20
21.5241
 11
-27.1791
 21
21.2216
  0
LINE
  8
0
 10
-27.1791
 20
21.2216
 11
-27.6871
 21
20.8526
  0
LINE
  8
0
 10
-27.6871
 20
20.8526
 11
-28.1448
 21
20.4227
  0
LINE
  8
0
 10
-28.1448
 20
20.4227
 11
-28.5451
 21
19.9389
  0
LINE
  8
0
 10
-28.5451
 20
19.9389
 11
-28.8815
 21
19.4088
  0
LINE
  8
0
 10
-28.8815
 20
19.4088
 11
-29.1489
 21
18.8406
  0
LINE
  8
0
 10
-29.1489
 20
18.8406
 11
-29.3429
 21
18.2434
  0
LINE
  8
0
 10
-29.3429
 20
18.2434
 11
-29.4606
 21
17.6267
  0
LINE
  8
0
 10
-29.4606
 20
17.6267
 11
-29.5
 21
17
  0
LINE
  8
0
 10
-29.5
 20
17
 11
-29.5
 21
-17
  0
LINE
  8
0
 10
-29.5
 20
-17
 11
-29.4606
 21
-17.6267
  0
LINE
  8
0
 10
-29.4606
 20
-17.6267
 11
-29.3429
 21
-18.2434
  0
LINE
  8
0
 10
-29.3429
 20
-18.2434
 11
-29.1489
 21
-18.8406
  0
LINE
  8
0
 10
-29.1489
 20
-18.8406
 11
-28.8815
 21
-19.4088
  0
LINE
  8
0
 10
-28.8815
 20
-19.4088
 11
-28.5451
 21
-19.9389
  0
LINE
  8
0
 10
-28.5451
 20
-19.9389
 11
-28.1448
 21
-20.4227
  0
LINE
  8
0
 10
-28.1448
 20
-20.4227
 11
-27.6871
 21
-20.8526
  0
LINE
  8
0
 10
-27.6871
 20
-20.8526
 11
-27.1791
 21
-21.2216
  0
LINE
  8
0
 10
-27.1791
 20
-21.2216
 11
-26.6289
 21
-21.5241
  0
LINE
  8
0
 10
-26.6289
 20
-21.5241
 11
-26.0451
 21
-21.7553
  0
LINE
  8
0
 10
-26.0451
 20
-21.7553
 11
-25.4369
 21
-21.9114
  0
LINE
  8
0
 10
-25.4369
 20
-21.9114
 11
-24.8139
 21
-21.9901
  0
LINE
  8
0
 10
-24.8139
 20
-21.9901
 11
24.8139
 21
-21.9901
  0
LINE
  8
0
 10
24.8139
 20
-21.9901
 11
25.4369
 21
-21.9114
  0
LINE
  8
0
 10
-22.6884
 20
12.0059
 11
-23.0621
 21
12.0531
  0
LINE
  8
0
 10
-23.0621
 20
12.0531
 11
-23.427
 21
12.1468
  0
LINE
  8
0
 10
-23.427
 20
12.1468
 11
-23.7773
 21
12.2855
  0
LINE
  8
0
 10
-23.7773
 20
12.2855
 11
-24.1075
 21
12.467
  0
LINE
  8
0
 10
-24.1075
 20
12.467
 11
-24.4123
 21
12.6884
  0
LINE
  8
0
 10
-24.4123
 20
12.6884
 11
-24.6869
 21
12.9464
  0
LINE
  8
0
 10
-24.6869
 20
12.9464
 11
-24.927
 21
13.2366
  0
LINE
  8
0
 10
-24.927
 20
13.2366
 11
-25.1289
 21
13.5547
  0
LINE
  8
0
 10
-25.1289
 20
13.5547
 11
-25.2893
 21
13.8956
  0
LINE
  8
0
 10
-25.2893
 20
13.8956
 11
-25.4057
 21
14.2539
  0
LINE
  8
0
 10
-25.4057
 20
14.2539
 11
-25.4763
 21
14.624
  0
LINE
  8
0
 10
-25.4763
 20
14.624
 11
-25.5
 21
15
  0
LINE
  8
0
 10
-25.5
 20
15
 11
-25.4763
 21
15.376
  0
LINE
  8
0
 10
-25.4763
 20
15.376
 11
-25.4057
 21
15.7461
  0
LINE
  8
0
 10
-25.4057
 20
15.7461
 11
-25.2893
 21
16.1044
  0
LINE
  8
0
 10
-25.2893
 20
16.1044
 11
-25.1289
 21
16.4453
  0
LINE
  8
0
 10
-25.1289
 20
16.4453
 11
-24.927
 21
16.7634
  0
LINE
  8
0
 10
-24.927
 20
16.7634
 11
-24.6869
 21
17.0536
  0
LINE
  8
0
 10
-24.6869
 20
17.0536
 11
-24.4123
 21
17.3115
  0
LINE
  8
0
 10
-24.4123
 20
17.3115
 11
-24.1075
 21
17.533
  0
LINE
  8
0
 10
-24.1075
 20
17.533
 11
-23.7773
 21
17.7145
  0
LINE
  8
0
 10
-23.7773
 20
17.7145
 11
-23.427
 21
17.8532
  0
LINE
  8
0
 10
-23.427
 20
17.8532
 11
-23.0621
 21
17.9469
  0
LINE
  8
0
 10
-23.0621
 20
17.9469
 11
-22.6884
 21
17.9941
  0
LINE
  8
0
 10
-22.6884
 20
17.9941
 11
-22.3116
 21
17.9941
  0
LINE
  8
0
 10
-22.3116
 20
17.9941
 11
-21.9379
 21
17.9469
  0
LINE
  8
0
 10
-21.9379
 20
17.9469
 11
-21.5729
 21
17.8532
  0
LINE
  8
0
 10
-21.5729
 20
17.8532
 11
-21.2227
 21
17.7145
  0
LINE
  8
0
 10
-21.2227
 20
17.7145
 11
-20.8925
 21
17.533
  0
LINE
  8
0
 10
-20.8925
 20
17.533
 11
-20.5877
 21
17.3115
  0
LINE
  8
0
 10
-20.5877
 20
17.3115
 11
-20.3131
 21
17.0536
  0
LINE
  8
0
 10
-20.3131
 20
17.0536
 11
-20.0729
 21
16.7634
  0
LINE
  8
0
 10
-20.0729
 20
16.7634
 11
-19.8711
 21
16.4453
  0
LINE
  8
0
 10
-19.8711
 20
16.4453
 11
-19.7107
 21
16.1044
  0
LINE
  8
0
 10
-19.7107
 20
16.1044
 11
-19.5942
 21
15.7461
  0
LINE
  8
0
 10
-19.5942
 20
15.7461
 11
-19.5237
 21
15.376
  0
LINE
  8
0
 10
-19.5237
 20
15.376
 11
-19.5
 21
15
  0
LINE
  8
0
 10
-19.5
 20
15
 11
-19.5237
 21
14.624
  0
LINE
  8
0
 10
-19.5237
 20
14.624
 11
-19.5942
 21
14.2539
  0
LINE
  8
0
 10
-19.5942
 20
14.2539
 11
-19.7107
 21
13.8956
  0
LINE
  8
0
 10
-19.7107
 20
13.8956
 11
-19.8711
 21
13.5547
  0
LINE
  8
0
 10
-19.8711
 20
13.5547
 11
-20.0729
 21
13.2366
  0
LINE
  8
0
 10
-20.0729
 20
13.2366
 11
-20.3131
 21
12.9464
  0
LINE
  8
0
 10
-20.3131
 20
12.9464
 11
-20.5877
 21
12.6884
  0
LINE
  8
0
 10
-20.5877
 20
12.6884
 11
-20.8925
 21
12.467
  0
LINE
  8
0
 10
-20.8925
 20
12.467
 11
-21.2227
 21
12.2855
  0
LINE
  8
0
 10
-21.2227
 20
12.2855
 11
-21.5729
 21
12.1468
  0
LINE
  8
0
 10
-21.5729
 20
12.1468
 11
-21.9379
 21
12.0531
  0
LINE
  8
0
 10
-21.9379
 20
12.0531
 11
-22.3116
 21
12.0059
  0
LINE
  8
0
 10
-22.3116
 20
12.0059
 11
-22.6884
 21
12.0059
  0
LINE
  8
0
 10
-5.59418
 20
11.5029
 11
-5.78107
 21
11.5266
  0
LINE
  8
0
 10
-5.78107
 20
11.5266
 11
-5.96352
 21
11.5734
  0
LINE
  8
0
 10
-5.96352
 20
11.5734
 11
-6.13866
 21
11.6427
  0
LINE
  8
0
 10
-6.13866
 20
11.6427
 11
-6.30373
 21
11.7335
  0
LINE
  8
0
 10
-6.30373
 20
11.7335
 11
-6.45613
 21
11.8442
  0
LINE
  8
0
 10
-6.45613
 20
11.8442
 11
-6.59344
 21
11.9732
  0
LINE
  8
0
 10
-6.59344
 20
11.9732
 11
-6.71352
 21
12.1183
  0
LINE
  8
0
 10
-6.71352
 20
12.1183
 11
-6.81445
 21
12.2774
  0
LINE
  8
0
 10
-6.81445
 20
12.2774
 11
-6.89465
 21
12.4478
  0
LINE
  8
0
 10
-6.89465
 20
12.4478
 11
-6.95287
 21
12.627
  0
LINE
  8
0
 10
-6.95287
 20
12.627
 11
-6.98816
 21
12.812
  0
LINE
  8
0
 10
-6.98816
 20
12.812
 11
-7
 21
13
  0
LINE
  8
0
 10
-7
 20
13
 11
-6.98816
 21
13.188
  0
LINE
  8
0
 10
-6.98816
 20
13.188
 11
-6.95287
 21
13.373
  0
LINE
  8
0
 10
-6.95287
 20
13.373
 11
-6.89465
 21
13.5522
  0
LINE
  8
0
 10
-6.89465
 20
13.5522
 11
-6.81445
 21
13.7226
  0
LINE
  8
0
 10
-6.81445
 20
13.7226
 11
-6.71352
 21
13.8817
  0
LINE
  8
0
 10
-6.71352
 20
13.8817
 11
-6.59344
 21
14.0268
  0
LINE
  8
0
 10
-6.59344
 20
14.0268
 11
-6.45613
 21
14.1558
  0
LINE
  8
0
 10
-6.45613
 20
14.1558
 11
-6.30373
 21
14.2665
  0
LINE
  8
0
 10
-6.30373
 20
14.2665
 11
-6.13866
 21
14.3572
  0
LINE
  8
0
 10
-6.13866
 20
14.3572
 11
-5.96352
 21
14.4266
  0
LINE
  8
0
 10
-5.96352
 20
14.4266
 11
-5.78107
 21
14.4734
  0
LINE
  8
0
 10
-5.78107
 20
14.4734
 11
-5.59418
 21
14.497
  0
LINE
  8
0
 10
-5.59418
 20
14.497
 11
-5.40581
 21
14.497
  0
LINE
  8
0
 10
-5.40581
 20
14.497
 11
-5.21892
 21
14.4734
  0
LINE
  8
0
 10
-5.21892
 20
14.4734
 11
-5.03647
 21
14.4266
  0
LINE
  8
0
 10
-5.03647
 20
14.4266
 11
-4.86133
 21
14.3572
  0
LINE
  8
0
 10
-4.86133
 20
14.3572
 11
-4.69626
 21
14.2665
  0
LINE
  8
0
 10
-4.69626
 20
14.2665
 11
-4.54385
 21
14.1558
  0
LINE
  8
0
 10
-4.54385
 20
14.1558
 11
-4.40654
 21
14.0268
  0
LINE
  8
0
 10
-4.40654
 20
14.0268
 11
-4.28647
 21
13.8817
  0
LINE
  8
0
 10
-4.28647
 20
13.8817
 11
-4.18553
 21
13.7226
  0
LINE
  8
0
 10
-4.18553
 20
13.7226
 11
-4.10533
 21
13.5522
  0
LINE
  8
0
 10
-4.10533
 20
13.5522
 11
-4.04712
 21
13.373
  0
LINE
  8
0
 10
-4.04712
 20
13.373
 11
-4.01183
 21
13.188
  0
LINE
  8
0
 10
-4.01183
 20
13.188
 11
-4
 21
13
  0
LINE
  8
0
 10
-4
 20
13
 11
-4.01183
 21
12.812
  0
LINE
  8
0
 10
-4.01183
 20
12.812
 11
-4.04712
 21
12.627
  0
LINE
  8
0
 10
-4.04712
 20
12.627
 11
-4.10533
 21
12.4478
  0
LINE
  8
0
 10
-4.10533
 20
12.4478
 11
-4.18553
 21
12.2774
  0
LINE
  8
0
 10
-4.18553
 20
12.2774
 11
-4.28647
 21
12.1183
  0
LINE
  8
0
 10
-4.28647
 20
12.1183
 11
-4.40654
 21
11.9732
  0
LINE
  8
0
 10
-4.40654
 20
11.9732
 11
-4.54385
 21
11.8442
  0
LINE
  8
0
 10
-4.54385
 20
11.8442
 11
-4.69626
 21
11.7335
  0
LINE
  8
0
 10
-4.69626
 20
11.7335
 11
-4.86133
 21
11.6427
  0
LINE
  8
0
 10
-4.86133
 20
11.6427
 11
-5.03647
 21
11.5734
  0
LINE
  8
0
 10
-5.03647
 20
11.5734
 11
-5.21892
 21
11.5266
  0
LINE
  8
0
 10
-5.21892
 20
11.5266
 11
-5.40581
 21
11.5029
  0
LINE
  8
0
 10
-5.40581
 20
11.5029
 11
-5.59418
 21
11.5029
  0
LINE
  8
0
 10
20.4058
 20
11.5029
 11
20.2189
 21
11.5266
  0
LINE
  8
0
 10
20.2189
 20
11.5266
 11
20.0365
 21
11.5734
  0
LINE
  8
0
 10
20.0365
 20
11.5734
 11
19.8613
 21
11.6427
  0
LINE
  8
0
 10
19.8613
 20
11.6427
 11
19.6963
 21
11.7335
  0
LINE
  8
0
 10
19.6963
 20
11.7335
 11
19.5439
 21
11.8442
  0
LINE
  8
0
 10
19.5439
 20
11.8442
 11
19.4065
 21
11.9732
  0
LINE
  8
0
 10
19.4065
 20
11.9732
 11
19.2865
 21
12.1183
  0
LINE
  8
0
 10
19.2865
 20
12.1183
 11
19.1855
 21
12.2774
  0
LINE
  8
0
 10
19.1855
 20
12.2774
 11
19.1053
 21
12.4478
  0
LINE
  8
0
 10
19.1053
 20
12.4478
 11
19.0471
 21
12.627
  0
LINE
  8
0
 10
19.0471
 20
12.627
 11
19.0118
 21
12.812
  0
LINE
  8
0
 10
19.0118
 20
12.812
 11
19
 21
13
  0
LINE
  8
0
 10
19
 20
13
 11
19.0118
 21
13.188
  0
LINE
  8
0
 10
19.0118
 20
13.188
 11
19.0471
 21
13.373
  0
LINE
  8
0
 10
19.0471
 20
13.373
 11
19.1053
 21
13.5522
  0
LINE
  8
0
 10
19.1053
 20
13.5522
 11
19.1855
 21
13.7226
  0
LINE
  8
0
 10
19.1855
 20
13.7226
 11
19.2865
 21
13.8817
  0
LINE
  8
0
 10
19.2865
 20
13.8817
 11
19.4065
 21
14.0268
  0
LINE
  8
0
 10
19.4065
 20
14.0268
 11
19.5439
 21
14.1558
  0
LINE
  8
0
 10
19.5439
 20
14.1558
 11
19.6963
 21
14.2665
  0
LINE
  8
0
 10
19.6963
 20
14.2665
 11
19.8613
 21
14.3572
  0
LINE
  8
0
 10
19.8613
 20
14.3572
 11
20.0365
 21
14.4266
  0
LINE
  8
0
 10
20.0365
 20
14.4266
 11
20.2189
 21
14.4734
  0
LINE
  8
0
 10
20.2189
 20
14.4734
 11
20.4058
 21
14.497
  0
LINE
  8
0
 10
20.4058
 20
14.497
 11
20.5942
 21
14.497
  0
LINE
  8
0
 10
20.5942
 20
14.497
 11
20.7811
 21
14.4734
  0
LINE
  8
0
 10
20.7811
 20
14.4734
 11
20.9635
 21
14.4266
  0
LINE
  8
0
 10
20.9635
 20
14.4266
 11
21.1387
 21
14.3572
  0
LINE
  8
0
 10
21.1387
 20
14.3572
 11
21.3037
 21
14.2665
  0
LINE
  8
0
 10
21.3037
 20
14.2665
 11
21.4561
 21
14.1558
  0
LINE
  8
0
 10
21.4561
 20
14.1558
 11
21.5934
 21
14.0268
  0
LINE
  8
0
 10
21.5934
 20
14.0268
 11
21.7135
 21
13.8817
  0
LINE
  8
0
 10
21.7135
 20
13.8817
 11
21.8145
 21
13.7226
  0
LINE
  8
0
 10
21.8145
 20
13.7226
 11
21.8947
 21
13.5522
  0
LINE
  8
0
 10
21.8947
 20
13.5522
 11
21.9529
 21
13.373
  0
LINE
  8
0
 10
21.9529
 20
13.373
 11
21.9882
 21
13.188
  0
LINE
  8
0
 10
21.9882
 20
13.188
 11
22
 21
13
  0
LINE
  8
0
 10
22
 20
13
 11
21.9882
 21
12.812
  0
LINE
  8
0
 10
21.9882
 20
12.812
 11
21.9529
 21
12.627
  0
LINE
  8
0
 10
21.9529
 20
12.627
 11
21.8947
 21
12.4478
  0
LINE
  8
0
 10
21.8947
 20
12.4478
 11
21.8145
 21
12.2774
  0
LINE
  8
0
 10
21.8145
 20
12.2774
 11
21.7135
 21
12.1183
  0
LINE
  8
0
 10
21.7135
 20
12.1183
 11
21.5934
 21
11.9732
  0
LINE
  8
0
 10
21.5934
 20
11.9732
 11
21.4561
 21
11.8442
  0
LINE
  8
0
 10
21.4561
 20
11.8442
 11
21.3037
 21
11.7335
  0
LINE
  8
0
 10
21.3037
 20
11.7335
 11
21.1387
 21
11.6427
  0
LINE
  8
0
 10
21.1387
 20
11.6427
 11
20.9635
 21
11.5734
  0
LINE
  8
0
 10
20.9635
 20
11.5734
 11
20.7811
 21
11.5266
  0
LINE
  8
0
 10
20.7811
 20
11.5266
 11
20.5942
 21
11.5029
  0
LINE
  8
0
 10
20.5942
 20
11.5029
 11
20.4058
 21
11.5029
  0
LINE
  8
0
 10
-22.6884
 20
-2.99408
 11
-23.0621
 21
-2.94685
  0
LINE
  8
0
 10
-23.0621
 20
-2.94685
 11
-23.427
 21
-2.85316
  0
LINE
  8
0
 10
-23.427
 20
-2.85316
 11
-23.7773
 21
-2.71448
  0
LINE
  8
0
 10
-23.7773
 20
-2.71448
 11
-24.1075
 21
-2.53297
  0
LINE
  8
0
 10
-24.1075
 20
-2.53297
 11
-24.4123
 21
-2.31154
  0
LINE
  8
0
 10
-24.4123
 20
-2.31154
 11
-24.6869
 21
-2.05363
  0
LINE
  8
0
 10
-24.6869
 20
-2.05363
 11
-24.927
 21
-1.76335
  0
LINE
  8
0
 10
-24.927
 20
-1.76335
 11
-25.1289
 21
-1.44525
  0
LINE
  8
0
 10
-25.1289
 20
-1.44525
 11
-25.2893
 21
-1.10437
  0
LINE
  8
0
 10
-25.2893
 20
-1.10437
 11
-25.4057
 21
-0.746063
  0
LINE
  8
0
 10
-25.4057
 20
-0.746063
 11
-25.4763
 21
-0.375992
  0
LINE
  8
0
 10
-25.4763
 20
-0.375992
 11
-25.5
 21
0
  0
LINE
  8
0
 10
-25.5
 20
0
 11
-25.4763
 21
0.375992
  0
LINE
  8
0
 10
-25.4763
 20
0.375992
 11
-25.4057
 21
0.746063
  0
LINE
  8
0
 10
-25.4057
 20
0.746063
 11
-25.2893
 21
1.10437
  0
LINE
  8
0
 10
-25.2893
 20
1.10437
 11
-25.1289
 21
1.44525
  0
LINE
  8
0
 10
-25.1289
 20
1.44525
 11
-24.927
 21
1.76335
  0
LINE
  8
0
 10
-24.927
 20
1.76335
 11
-24.6869
 21
2.05363
  0
LINE
  8
0
 10
-24.6869
 20
2.05363
 11
-24.4123
 21
2.31154
  0
LINE
  8
0
 10
-24.4123
 20
2.31154
 11
-24.1075
 21
2.53297
  0
LINE
  8
0
 10
-24.1075
 20
2.53297
 11
-23.7773
 21
2.71448
  0
LINE
  8
0
 10
-23.7773
 20
2.71448
 11
-23.427
 21
2.85316
  0
LINE
  8
0
 10
-23.427
 20
2.85316
 11
-23.0621
 21
2.94685
  0
LINE
  8
0
 10
-23.0621
 20
2.94685
 11
-22.6884
 21
2.99408
  0
LINE
  8
0
 10
-22.6884
 20
2.99408
 11
-22.3116
 21
2.99408
  0
LINE
  8
0
 10
-22.3116
 20
2.99408
 11
-21.9379
 21
2.94685
  0
LINE
  8
0
 10
-21.9379
 20
2.94685
 11
-21.5729
 21
2.85316
  0
LINE
  8
0
 10
-21.5729
 20
2.85316
 11
-21.2227
 21
2.71448
  0
LINE
  8
0
 10
-21.2227
 20
2.71448
 11
-20.8925
 21
2.53297
  0
LINE
  8
0
 10
-20.8925
 20
2.53297
 11
-20.5877
 21
2.31154
  0
LINE
  8
0
 10
-20.5877
 20
2.31154
 11
-20.3131
 21
2.05363
  0
LINE
  8
0
 10
-20.3131
 20
2.05363
 11
-20.0729
 21
1.76335
  0
LINE
  8
0
 10
-20.0729
 20
1.76335
 11
-19.8711
 21
1.44525
  0
LINE
  8
0
 10
-19.8711
 20
1.44525
 11
-19.7107
 21
1.10437
  0
LINE
  8
0
 10
-19.7107
 20
1.10437
 11
-19.5942
 21
0.746063
  0
LINE
  8
0
 10
-19.5942
 20
0.746063
 11
-19.5237
 21
0.375992
  0
LINE
  8
0
 10
-19.5237
 20
0.375992
 11
-19.5
 21
0
  0
LINE
  8
0
 10
-19.5
 20
0
 11
-19.5237
 21
-0.375992
  0
LINE
  8
0
 10
-19.5237
 20
-0.375992
 11
-19.5942
 21
-0.746063
  0
LINE
  8
0
 10
-19.5942
 20
-0.746063
 11
-19.7107
 21
-1.10437
  0
LINE
  8
0
 10
-19.7107
 20
-1.10437
 11
-19.8711
 21
-1.44525
  0
LINE
  8
0
 10
-19.8711
 20
-1.44525
 11
-20.0729
 21
-1.76335
  0
LINE
  8
0
 10
-20.0729
 20
-1.76335
 11
-20.3131
 21
-2.05363
  0
LINE
  8
0
 10
-20.3131
 20
-2.05363
 11
-20.5877
 21
-2.31154
  0
LINE
  8
0
 10
-20.5877
 20
-2.31154
 11
-20.8925
 21
-2.53297
  0
LINE
  8
0
 10
-20.8925
 20
-2.53297
 11
-21.2227
 21
-2.71448
  0
LINE
  8
0
 10
-21.2227
 20
-2.71448
 11
-21.5729
 21
-2.85316
  0
LINE
  8
0
 10
-21.5729
 20
-2.85316
 11
-21.9379
 21
-2.94685
  0
LINE
  8
0
 10
-21.9379
 20
-2.94685
 11
-22.3116
 21
-2.99408
  0
LINE
  8
0
 10
-22.3116
 20
-2.99408
 11
-22.6884
 21
-2.99408
  0
LINE
  8
0
 10
20.4058
 20
-14.497
 11
20.2189
 21
-14.4734
  0
LINE
  8
0
 10
20.2189
 20
-14.4734
 11
20.0365
 21
-14.4266
  0
LINE
  8
0
 10
20.0365
 20
-14.4266
 11
19.8613
 21
-14.3572
  0
LINE
  8
0
 10
19.8613
 20
-14.3572
 11
19.6963
 21
-14.2665
  0
LINE
  8
0
 10
19.6963
 20
-14.2665
 11
19.5439
 21
-14.1558
  0
LINE
  8
0
 10
19.5439
 20
-14.1558
 11
19.4065
 21
-14.0268
  0
LINE
  8
0
 10
19.4065
 20
-14.0268
 11
19.2865
 21
-13.8817
  0
LINE
  8
0
 10
19.2865
 20
-13.8817
 11
19.1855
 21
-13.7226
  0
LINE
  8
0
 10
19.1855
 20
-13.7226
 11
19.1053
 21
-13.5522
  0
LINE
  8
0
 10
19.1053
 20
-13.5522
 11
19.0471
 21
-13.373
  0
LINE
  8
0
 10
19.0471
 20
-13.373
 11
19.0118
 21
-13.188
  0
LINE
  8
0
 10
19.0118
 20
-13.188
 11
19
 21
-13
  0
LINE
  8
0
 10
19
 20
-13
 11
19.0118
 21
-12.812
  0
LINE
  8
0
 10
19.0118
 20
-12.812
 11
19.0471
 21
-12.627
  0
LINE
  8
0
 10
19.0471
 20
-12.627
 11
19.1053
 21
-12.4478
  0
LINE
  8
0
 10
19.1053
 20
-12.4478
 11
19.1855
 21
-12.2774
  0
LINE
  8
0
 10
19.1855
 20
-12.2774
 11
19.2865
 21
-12.1183
  0
LINE
  8
0
 10
19.2865
 20
-12.1183
 11
19.4065
 21
-11.9732
  0
LINE
  8
0
 10
19.4065
 20
-11.9732
 11
19.5439
 21
-11.8442
  0
LINE
  8
0
 10
19.5439
 20
-11.8442
 11
19.6963
 21
-11.7335
  0
LINE
  8
0
 10
19.6963
 20
-11.7335
 11
19.8613
 21
-11.6427
  0
LINE
  8
0
 10
19.8613
 20
-11.6427
 11
20.0365
 21
-11.5734
  0
LINE
  8
0
 10
20.0365
 20
-11.5734
 11
20.2189
 21
-11.5266
  0
LINE
  8
0
 10
20.2189
 20
-11.5266
 11
20.4058
 21
-11.5029
  0
LINE
  8
0
 10
20.4058
 20
-11.5029
 11
20.5942
 21
-11.5029
  0
LINE
  8
0
 10
20.5942
 20
-11.5029
 11
20.7811
 21
-11.5266
  0
LINE
  8
0
 10
20.7811
 20
-11.5266
 11
20.9635
 21
-11.5734
  0
LINE
  8
0
 10
20.9635
 20
-11.5734
 11
21.1387
 21
-11.6427
  0
LINE
  8
0
 10
21.1387
 20
-11.6427
 11
21.3037
 21
-11.7335
  0
LINE
  8
0
 10
21.3037
 20
-11.7335
 11
21.4561
 21
-11.8442
  0
LINE
  8
0
 10
21.4561
 20
-11.8442
 11
21.5934
 21
-11.9732
  0
LINE
  8
0
 10
21.5934
 20
-11.9732
 11
21.7135
 21
-12.1183
  0
LINE
  8
0
 10
21.7135
 20
-12.1183
 11
21.8145
 21
-12.2774
  0
LINE
  8
0
 10
21.8145
 20
-12.2774
 11
21.8947
 21
-12.4478
  0
LINE
  8
0
 10
21.8947
 20
-12.4478
 11
21.9529
 21
-12.627
  0
LINE
  8
0
 10
21.9529
 20
-12.627
 11
21.9882
 21
-12.812
  0
LINE
  8
0
 10
21.9882
 20
-12.812
 11
22
 21
-13
  0
LINE
  8
0
 10
22
 20
-13
 11
21.9882
 21
-13.188
  0
LINE
  8
0
 10
21.9882
 20
-13.188
 11
21.9529
 21
-13.373
  0
LINE
  8
0
 10
21.9529
 20
-13.373
 11
21.8947
 21
-13.5522
  0
LINE
  8
0
 10
21.8947
 20
-13.5522
 11
21.8145
 21
-13.7226
  0
LINE
  8
0
 10
21.8145
 20
-13.7226
 11
21.7135
 21
-13.8817
  0
LINE
  8
0
 10
21.7135
 20
-13.8817
 11
21.5934
 21
-14.0268
  0
LINE
  8
0
 10
21.5934
 20
-14.0268
 11
21.4561
 21
-14.1558
  0
LINE
  8
0
 10
21.4561
 20
-14.1558
 11
21.3037
 21
-14.2665
  0
LINE
  8
0
 10
21.3037
 20
-14.2665
 11
21.1387
 21
-14.3572
  0
LINE
  8
0
 10
21.1387
 20
-14.3572
 11
20.9635
 21
-14.4266
  0
LINE
  8
0
 10
20.9635
 20
-14.4266
 11
20.7811
 21
-14.4734
  0
LINE
  8
0
 10
20.7811
 20
-14.4734
 11
20.5942
 21
-14.497
  0
LINE
  8
0
 10
20.5942
 20
-14.497
 11
20.4058
 21
-14.497
  0
LINE
  8
0
 10
-5.59418
 20
-14.497
 11
-5.78107
 21
-14.4734
  0
LINE
  8
0
 10
-5.78107
 20
-14.4734
 11
-5.96352
 21
-14.4266
  0
LINE
  8
0
 10
-5.96352
 20
-14.4266
 11
-6.13866
 21
-14.3572
  0
LINE
  8
0
 10
-6.13866
 20
-14.3572
 11
-6.30373
 21
-14.2665
  0
LINE
  8
0
 10
-6.30373
 20
-14.2665
 11
-6.45613
 21
-14.1558
  0
LINE
  8
0
 10
-6.45613
 20
-14.1558
 11
-6.59344
 21
-14.0268
  0
LINE
  8
0
 10
-6.59344
 20
-14.0268
 11
-6.71352
 21
-13.8817
  0
LINE
  8
0
 10
-6.71352
 20
-13.8817
 11
-6.81445
 21
-13.7226
  0
LINE
  8
0
 10
-6.81445
 20
-13.7226
 11
-6.89465
 21
-13.5522
  0
LINE
  8
0
 10
-6.89465
 20
-13.5522
 11
-6.95287
 21
-13.373
  0
LINE
  8
0
 10
-6.95287
 20
-13.373
 11
-6.98816
 21
-13.188
  0
LINE
  8
0
 10
-6.98816
 20
-13.188
 11
-7
 21
-13
  0
LINE
  8
0
 10
-7
 20
-13
 11
-6.98816
 21
-12.812
  0
LINE
  8
0
 10
-6.98816
 20
-12.812
 11
-6.95287
 21
-12.627
  0
LINE
  8
0
 10
-6.95287
 20
-12.627
 11
-6.89465
 21
-12.4478
  0
LINE
  8
0
 10
-6.89465
 20
-12.4478
 11
-6.81445
 21
-12.2774
  0
LINE
  8
0
 10
-6.81445
 20
-12.2774
 11
-6.71352
 21
-12.1183
  0
LINE
  8
0
 10
-6.71352
 20
-12.1183
 11
-6.59344
 21
-11.9732
  0
LINE
  8
0
 10
-6.59344
 20
-11.9732
 11
-6.45613
 21
-11.8442
  0
LINE
  8
0
 10
-6.45613
 20
-11.8442
 11
-6.30373
 21
-11.7335
  0
LINE
  8
0
 10
-6.30373
 20
-11.7335
 11
-6.13866
 21
-11.6427
  0
LINE
  8
0
 10
-6.13866
 20
-11.6427
 11
-5.96352
 21
-11.5734
  0
LINE
  8
0
 10
-5.96352
 20
-11.5734
 11
-5.78107
 21
-11.5266
  0
LINE
  8
0
 10
-5.78107
 20
-11.5266
 11
-5.59418
 21
-11.5029
  0
LINE
  8
0
 10
-5.59418
 20
-11.5029
 11
-5.40581
 21
-11.5029
  0
LINE
  8
0
 10
-5.40581
 20
-11.5029
 11
-5.21892
 21
-11.5266
  0
LINE
  8
0
 10
-5.21892
 20
-11.5266
 11
-5.03647
 21
-11.5734
  0
LINE
  8
0
 10
-5.03647
 20
-11.5734
 11
-4.86133
 21
-11.6427
  0
LINE
  8
0
 10
-4.86133
 20
-11.6427
 11
-4.69626
 21
-11.7335
  0
LINE
  8
0
 10
-4.69626
 20
-11.7335
 11
-4.54385
 21
-11.8442
  0
LINE
  8
0
 10
-4.54385
 20
-11.8442
 11
-4.40654
 21
-11.9732
  0
LINE
  8
0
 10
-4.40654
 20
-11.9732
 11
-4.28647
 21
-12.1183
  0
LINE
  8
0
 10
-4.28647
 20
-12.1183
 11
-4.18553
 21
-12.2774
  0
LINE
  8
0
 10
-4.18553
 20
-12.2774
 11
-4.10533
 21
-12.4478
  0
LINE
  8
0
 10
-4.10533
 20
-12.4478
 11
-4.04712
 21
-12.627
  0
LINE
  8
0
 10
-4.04712
 20
-12.627
 11
-4.01183
 21
-12.812
  0
LINE
  8
0
 10
-4.01183
 20
-12.812
 11
-4
 21
-13
  0
LINE
  8
0
 10
-4
 20
-13
 11
-4.01183
 21
-13.188
  0
LINE
  8
0
 10
-4.01183
 20
-13.188
 11
-4.04712
 21
-13.373
  0
LINE
  8
0
 10
-4.04712
 20
-13.373
 11
-4.10533
 21
-13.5522
  0
LINE
  8
0
 10
-4.10533
 20
-13.5522
 11
-4.18553
 21
-13.7226
  0
LINE
  8
0
 10
-4.18553
 20
-13.7226
 11
-4.28647
 21
-13.8817
  0
LINE
  8
0
 10
-4.28647
 20
-13.8817
 11
-4.40654
 21
-14.0268
  0
LINE
  8
0
 10
-4.40654
 20
-14.0268
 11
-4.54385
 21
-14.1558
  0
LINE
  8
0
 10
-4.54385
 20
-14.1558
 11
-4.69626
 21
-14.2665
  0
LINE
  8
0
 10
-4.69626
 20
-14.2665
 11
-4.86133
 21
-14.3572
  0
LINE
  8
0
 10
-4.86133
 20
-14.3572
 11
-5.03647
 21
-14.4266
  0
LINE
  8
0
 10
-5.03647
 20
-14.4266
 11
-5.21892
 21
-14.4734
  0
LINE
  8
0
 10
-5.21892
 20
-14.4734
 11
-5.40581
 21
-14.497
  0
LINE
  8
0
 10
-5.40581
 20
-14.497
 11
-5.59418
 21
-14.497
  0
LINE
  8
0
 10
-22.6884
 20
-17.9941
 11
-23.0621
 21
-17.9469
  0
LINE
  8
0
 10
-23.0621
 20
-17.9469
 11
-23.427
 21
-17.8532
  0
LINE
  8
0
 10
-23.427
 20
-17.8532
 11
-23.7773
 21
-17.7145
  0
LINE
  8
0
 10
-23.7773
 20
-17.7145
 11
-24.1075
 21
-17.533
  0
LINE
  8
0
 10
-24.1075
 20
-17.533
 11
-24.4123
 21
-17.3115
  0
LINE
  8
0
 10
-24.4123
 20
-17.3115
 11
-24.6869
 21
-17.0536
  0
LINE
  8
0
 10
-24.6869
 20
-17.0536
 11
-24.927
 21
-16.7634
  0
LINE
  8
0
 10
-24.927
 20
-16.7634
 11
-25.1289
 21
-16.4453
  0
LINE
  8
0
 10
-25.1289
 20
-16.4453
 11
-25.2893
 21
-16.1044
  0
LINE
  8
0
 10
-25.2893
 20
-16.1044
 11
-25.4057
 21
-15.7461
  0
LINE
  8
0
 10
-25.4057
 20
-15.7461
 11
-25.4763
 21
-15.376
  0
LINE
  8
0
 10
-25.4763
 20
-15.376
 11
-25.5
 21
-15
  0
LINE
  8
0
 10
-25.5
 20
-15
 11
-25.4763
 21
-14.624
  0
LINE
  8
0
 10
-25.4763
 20
-14.624
 11
-25.4057
 21
-14.2539
  0
LINE
  8
0
 10
-25.4057
 20
-14.2539
 11
-25.2893
 21
-13.8956
  0
LINE
  8
0
 10
-25.2893
 20
-13.8956
 11
-25.1289
 21
-13.5547
  0
LINE
  8
0
 10
-25.1289
 20
-13.5547
 11
-24.927
 21
-13.2366
  0
LINE
  8
0
 10
-24.927
 20
-13.2366
 11
-24.6869
 21
-12.9464
  0
LINE
  8
0
 10
-24.6869
 20
-12.9464
 11
-24.4123
 21
-12.6884
  0
LINE
  8
0
 10
-24.4123
 20
-12.6884
 11
-24.1075
 21
-12.467
  0
LINE
  8
0
 10
-24.1075
 20
-12.467
 11
-23.7773
 21
-12.2855
  0
LINE
  8
0
 10
-23.7773
 20
-12.2855
 11
-23.427
 21
-12.1468
  0
LINE
  8
0
 10
-23.427
 20
-12.1468
 11
-23.0621
 21
-12.0531
  0
LINE
  8
0
 10
-23.0621
 20
-12.0531
 11
-22.6884
 21
-12.0059
  0
LINE
  8
0
 10
-22.6884
 20
-12.0059
 11
-22.3116
 21
-12.0059
  0
LINE
  8
0
 10
-22.3116
 20
-12.0059
 11
-21.9379
 21
-12.0531
  0
LINE
  8
0
 10
-21.9379
 20
-12.0531
 11
-21.5729
 21
-12.1468
  0
LINE
  8
0
 10
-21.5729
 20
-12.1468
 11
-21.2227
 21
-12.2855
  0
LINE
  8
0
 10
-21.2227
 20
-12.2855
 11
-20.8925
 21
-12.467
  0
LINE
  8
0
 10
-20.8925
 20
-12.467
 11
-20.5877
 21
-12.6884
  0
LINE
  8
0
 10
-20.5877
 20
-12.6884
 11
-20.3131
 21
-12.9464
  0
LINE
  8
0
 10
-20.3131
 20
-12.9464
 11
-20.0729
 21
-13.2366
  0
LINE
  8
0
 10
-20.0729
 20
-13.2366
 11
-19.8711
 21
-13.5547
  0
LINE
  8
0
 10
-19.8711
 20
-13.5547
 11
-19.7107
 21
-13.8956
  0
LINE
  8
0
 10
-19.7107
 20
-13.8956
 11
-19.5942
 21
-14.2539
  0
LINE
  8
0
 10
-19.5942
 20
-14.2539
 11
-19.5237
 21
-14.624
  0
LINE
  8
0
 10
-19.5237
 20
-14.624
 11
-19.5
 21
-15
  0
LINE
  8
0
 10
-19.5
 20
-15
 11
-19.5237
 21
-15.376
  0
LINE
  8
0
 10
-19.5237
 20
-15.376
 11
-19.5942
 21
-15.7461
  0
LINE
  8
0
 10
-19.5942
 20
-15.7461
 11
-19.7107
 21
-16.1044
  0
LINE
  8
0
 10
-19.7107
 20
-16.1044
 11
-19.8711
 21
-16.4453
  0
LINE
  8
0
 10
-19.8711
 20
-16.4453
 11
-20.0729
 21
-16.7634
  0
LINE
  8
0
 10
-20.0729
 20
-16.7634
 11
-20.3131
 21
-17.0536
  0
LINE
  8
0
 10
-20.3131
 20
-17.0536
 11
-20.5877
 21
-17.3115
  0
LINE
  8
0
 10
-20.5877
 20
-17.3115
 11
-20.8925
 21
-17.533
  0
LINE
  8
0
 10
-20.8925
 20
-17.533
 11
-21.2227
 21
-17.7145
  0
LINE
  8
0
 10
-21.2227
 20
-17.7145
 11
-21.5729
 21
-17.8532
  0
LINE
  8
0
 10
-21.5729
 20
-17.8532
 11
-21.9379
 21
-17.9469
  0
LINE
  8
0
 10
-21.9379
 20
-17.9469
 11
-22.3116
 21
-17.9941
  0
LINE
  8
0
 10
-22.3116
 20
-17.9941
 11
-22.6884
 21
-17.9941
  0
ENDSEC
  0
SECTION
  2
OBJECTS
  0
DICTIONARY
  0
ENDSEC
  0
EOF
