<?xml version="1.0" standalone="no"?>
<!DOCTYPE svg PUBLIC "-//W3C//DTD SVG 1.1//EN" "http://www.w3.org/Graphics/SVG/1.1/DTD/svg11.dtd">
<svg width="10mm" height="316mm" viewBox="-5 -313 10 316" xmlns="http://www.w3.org/2000/svg" version="1.1">
<title>OpenSCAD Model</title>
<path d="
M 4.616,-309 L 2.308,-312.998 L -2.308,-312.998 L -4.616,-309 L -2.308,-305.002 L 2.308,-305.002
 z
M 0.468445,-203.544 L 0.772537,-203.622 L 1.06444,-203.738 L 1.33955,-203.889 L 1.59355,-204.074 L 1.82242,-204.289
 L 2.02254,-204.531 L 2.19077,-204.796 L 2.32443,-205.08 L 2.42145,-205.378 L 2.48029,-205.687 L 2.5,-206
 L 2.48029,-206.313 L 2.42145,-206.622 L 2.32443,-206.92 L 2.19077,-207.204 L 2.02254,-207.469 L 1.82242,-207.711
 L 1.59355,-207.926 L 1.33955,-208.111 L 1.06444,-208.262 L 0.772537,-208.378 L 0.468445,-208.456 L 0.156967,-208.495
 L -0.156967,-208.495 L -0.468445,-208.456 L -0.772537,-208.378 L -1.06444,-208.262 L -1.33955,-208.111 L -1.59355,-207.926
 L -1.82242,-207.711 L -2.02254,-207.469 L -2.19077,-207.204 L -2.32443,-206.92 L -2.42145,-206.622 L -2.48029,-206.313
 L -2.5,-206 L -2.48029,-205.687 L -2.42145,-205.378 L -2.32443,-205.08 L -2.19077,-204.796 L -2.02254,-204.531
 L -1.82242,-204.289 L -1.59355,-204.074 L -1.33955,-203.889 L -1.06444,-203.738 L -0.772537,-203.622 L -0.468445,-203.544
 L -0.156967,-203.505 L 0.156967,-203.505 z
M 0.468445,-100.544 L 0.772537,-100.622 L 1.06444,-100.738 L 1.33955,-100.889 L 1.59355,-101.074 L 1.82242,-101.289
 L 2.02254,-101.531 L 2.19077,-101.796 L 2.32443,-102.08 L 2.42145,-102.378 L 2.48029,-102.687 L 2.5,-103
 L 2.48029,-103.313 L 2.42145,-103.622 L 2.32443,-103.92 L 2.19077,-104.204 L 2.02254,-104.469 L 1.82242,-104.711
 L 1.59355,-104.926 L 1.33955,-105.111 L 1.06444,-105.262 L 0.772537,-105.378 L 0.468445,-105.456 L 0.156967,-105.495
 L -0.156967,-105.495 L -0.468445,-105.456 L -0.772537,-105.378 L -1.06444,-105.262 L -1.33955,-105.111 L -1.59355,-104.926
 L -1.82242,-104.711 L -2.02254,-104.469 L -2.19077,-104.204 L -2.32443,-103.92 L -2.42145,-103.622 L -2.48029,-103.313
 L -2.5,-103 L -2.48029,-102.687 L -2.42145,-102.378 L -2.32443,-102.08 L -2.19077,-101.796 L -2.02254,-101.531
 L -1.82242,-101.289 L -1.59355,-101.074 L -1.33955,-100.889 L -1.06444,-100.738 L -0.772537,-100.622 L -0.468445,-100.544
 L -0.156967,-100.505 L 0.156967,-100.505 z
M 0.468445,2.4557 L 0.772537,2.37764 L 1.06444,2.26205 L 1.33955,2.11081 L 1.59355,1.92627 L 1.82242,1.71136
 L 2.02254,1.46945 L 2.19077,1.20438 L 2.32443,0.920303 L 2.42145,0.621719 L 2.48029,0.313324 L 2.5,-0
 L 2.48029,-0.313324 L 2.42145,-0.621719 L 2.32443,-0.920303 L 2.19077,-1.20438 L 2.02254,-1.46945 L 1.82242,-1.71136
 L 1.59355,-1.92627 L 1.33955,-2.11081 L 1.06444,-2.26205 L 0.772537,-2.37764 L 0.468445,-2.4557 L 0.156967,-2.49506
 L -0.156967,-2.49506 L -0.468445,-2.4557 L -0.772537,-2.37764 L -1.06444,-2.26205 L -1.33955,-2.11081 L -1.59355,-1.92627
 L -1.82242,-1.71136 L -2.02254,-1.46945 L -2.19077,-1.20438 L -2.32443,-0.920303 L -2.42145,-0.621719 L -2.48029,-0.313324
 L -2.5,-0 L -2.48029,0.313324 L -2.42145,0.621719 L -2.32443,0.920303 L -2.19077,1.20438 L -2.02254,1.46945
 L -1.82242,1.71136 L -1.59355,1.92627 L -1.33955,2.11081 L -1.06444,2.26205 L -0.772537,2.37764 L -0.468445,2.4557
 L -0.156967,2.49506 L 0.156967,2.49506 z
" stroke="black" fill="lightgray" stroke-width="0.5"/>
</svg>
