<?xml version="1.0" standalone="no"?>
<!DOCTYPE svg PUBLIC "-//W3C//DTD SVG 1.1//EN" "http://www.w3.org/Graphics/SVG/1.1/DTD/svg11.dtd">
<svg width="44mm" height="93mm" viewBox="-22 -93 44 93" xmlns="http://www.w3.org/2000/svg" version="1.1">
<title>OpenSCAD Model</title>
<path d="
M 22,-87.5 L 21.9606,-88.1267 L 21.8429,-88.7434 L 21.6489,-89.3406 L 21.3815,-89.9088 L 21.0451,-90.4389
 L 20.6448,-90.9227 L 20.1871,-91.3526 L 19.6791,-91.7216 L 19.1289,-92.0241 L 18.5451,-92.2553 L 17.9369,-92.4114
 L 17.3139,-92.4901 L -17.3139,-92.4901 L -17.9369,-92.4114 L -18.5451,-92.2553 L -19.1289,-92.0241 L -19.6791,-91.7216
 L -20.1871,-91.3526 L -20.6448,-90.9227 L -21.0451,-90.4389 L -21.3815,-89.9088 L -21.6489,-89.3406 L -21.8429,-88.7434
 L -21.9606,-88.1267 L -22,-87.5 L -22,-72 L 22,-72 z
M -0.18837,-82.5059 L -0.562134,-82.5531 L -0.927048,-82.6468 L -1.27733,-82.7855 L -1.60747,-82.967 L -1.91226,-83.1884
 L -2.1869,-83.4464 L -2.42705,-83.7366 L -2.62891,-84.0547 L -2.78932,-84.3956 L -2.90575,-84.7539 L -2.97633,-85.124
 L -3,-85.5 L -2.97633,-85.876 L -2.90575,-86.2461 L -2.78932,-86.6044 L -2.62891,-86.9453 L -2.42705,-87.2634
 L -2.1869,-87.5536 L -1.91226,-87.8115 L -1.60747,-88.033 L -1.27733,-88.2145 L -0.927048,-88.3532 L -0.562134,-88.4469
 L -0.18837,-88.4941 L 0.18837,-88.4941 L 0.562134,-88.4469 L 0.927048,-88.3532 L 1.27733,-88.2145 L 1.60747,-88.033
 L 1.91226,-87.8115 L 2.1869,-87.5536 L 2.42705,-87.2634 L 2.62891,-86.9453 L 2.78932,-86.6044 L 2.90575,-86.2461
 L 2.97633,-85.876 L 3,-85.5 L 2.97633,-85.124 L 2.90575,-84.7539 L 2.78932,-84.3956 L 2.62891,-84.0547
 L 2.42705,-83.7366 L 2.1869,-83.4464 L 1.91226,-83.1884 L 1.60747,-82.967 L 1.27733,-82.7855 L 0.927048,-82.6468
 L 0.562134,-82.5531 L 0.18837,-82.5059 z
M -15.1884,-82.5059 L -15.5621,-82.5531 L -15.927,-82.6468 L -16.2773,-82.7855 L -16.6075,-82.967 L -16.9123,-83.1884
 L -17.1869,-83.4464 L -17.427,-83.7366 L -17.6289,-84.0547 L -17.7893,-84.3956 L -17.9057,-84.7539 L -17.9763,-85.124
 L -18,-85.5 L -17.9763,-85.876 L -17.9057,-86.2461 L -17.7893,-86.6044 L -17.6289,-86.9453 L -17.427,-87.2634
 L -17.1869,-87.5536 L -16.9123,-87.8115 L -16.6075,-88.033 L -16.2773,-88.2145 L -15.927,-88.3532 L -15.5621,-88.4469
 L -15.1884,-88.4941 L -14.8116,-88.4941 L -14.4379,-88.4469 L -14.0729,-88.3532 L -13.7227,-88.2145 L -13.3925,-88.033
 L -13.0877,-87.8115 L -12.8131,-87.5536 L -12.5729,-87.2634 L -12.3711,-86.9453 L -12.2107,-86.6044 L -12.0942,-86.2461
 L -12.0237,-85.876 L -12,-85.5 L -12.0237,-85.124 L -12.0942,-84.7539 L -12.2107,-84.3956 L -12.3711,-84.0547
 L -12.5729,-83.7366 L -12.8131,-83.4464 L -13.0877,-83.1884 L -13.3925,-82.967 L -13.7227,-82.7855 L -14.0729,-82.6468
 L -14.4379,-82.5531 L -14.8116,-82.5059 z
M 14.8116,-82.5059 L 14.4379,-82.5531 L 14.0729,-82.6468 L 13.7227,-82.7855 L 13.3925,-82.967 L 13.0877,-83.1884
 L 12.8131,-83.4464 L 12.5729,-83.7366 L 12.3711,-84.0547 L 12.2107,-84.3956 L 12.0942,-84.7539 L 12.0237,-85.124
 L 12,-85.5 L 12.0237,-85.876 L 12.0942,-86.2461 L 12.2107,-86.6044 L 12.3711,-86.9453 L 12.5729,-87.2634
 L 12.8131,-87.5536 L 13.0877,-87.8115 L 13.3925,-88.033 L 13.7227,-88.2145 L 14.0729,-88.3532 L 14.4379,-88.4469
 L 14.8116,-88.4941 L 15.1884,-88.4941 L 15.5621,-88.4469 L 15.927,-88.3532 L 16.2773,-88.2145 L 16.6075,-88.033
 L 16.9123,-87.8115 L 17.1869,-87.5536 L 17.427,-87.2634 L 17.6289,-86.9453 L 17.7893,-86.6044 L 17.9057,-86.2461
 L 17.9763,-85.876 L 18,-85.5 L 17.9763,-85.124 L 17.9057,-84.7539 L 17.7893,-84.3956 L 17.6289,-84.0547
 L 17.427,-83.7366 L 17.1869,-83.4464 L 16.9123,-83.1884 L 16.6075,-82.967 L 16.2773,-82.7855 L 15.927,-82.6468
 L 15.5621,-82.5531 L 15.1884,-82.5059 z
M -7.6507,-83.1047 L -7.94971,-83.1425 L -8.24164,-83.2175 L -8.52187,-83.3284 L -8.78598,-83.4736 L -9.02982,-83.6508
 L -9.24951,-83.8571 L -9.44164,-84.0893 L -9.60313,-84.3438 L -9.73146,-84.6165 L -9.82458,-84.9031 L -9.88107,-85.1992
 L -9.89999,-85.5 L -9.88107,-85.8008 L -9.82458,-86.0968 L -9.73146,-86.3835 L -9.60313,-86.6562 L -9.44164,-86.9107
 L -9.24951,-87.1429 L -9.02982,-87.3492 L -8.78598,-87.5264 L -8.52187,-87.6716 L -8.24164,-87.7825 L -7.94971,-87.8575
 L -7.6507,-87.8953 L -7.34929,-87.8953 L -7.05028,-87.8575 L -6.75835,-87.7825 L -6.47812,-87.6716 L -6.214,-87.5264
 L -5.97017,-87.3492 L -5.75047,-87.1429 L -5.55835,-86.9107 L -5.39685,-86.6562 L -5.26852,-86.3835 L -5.1754,-86.0968
 L -5.11891,-85.8008 L -5.09999,-85.5 L -5.11891,-85.1992 L -5.1754,-84.9031 L -5.26852,-84.6165 L -5.39685,-84.3438
 L -5.55835,-84.0893 L -5.75047,-83.8571 L -5.97017,-83.6508 L -6.214,-83.4736 L -6.47812,-83.3284 L -6.75835,-83.2175
 L -7.05028,-83.1425 L -7.34929,-83.1047 z
M 7.34929,-83.1047 L 7.05028,-83.1425 L 6.75835,-83.2175 L 6.47812,-83.3284 L 6.214,-83.4736 L 5.97017,-83.6508
 L 5.75047,-83.8571 L 5.55835,-84.0893 L 5.39685,-84.3438 L 5.26852,-84.6165 L 5.1754,-84.9031 L 5.11891,-85.1992
 L 5.09999,-85.5 L 5.11891,-85.8008 L 5.1754,-86.0968 L 5.26852,-86.3835 L 5.39685,-86.6562 L 5.55835,-86.9107
 L 5.75047,-87.1429 L 5.97017,-87.3492 L 6.214,-87.5264 L 6.47812,-87.6716 L 6.75835,-87.7825 L 7.05028,-87.8575
 L 7.34929,-87.8953 L 7.6507,-87.8953 L 7.94971,-87.8575 L 8.24164,-87.7825 L 8.52187,-87.6716 L 8.78598,-87.5264
 L 9.02982,-87.3492 L 9.24951,-87.1429 L 9.44164,-86.9107 L 9.60313,-86.6562 L 9.73146,-86.3835 L 9.82458,-86.0968
 L 9.88107,-85.8008 L 9.89999,-85.5 L 9.88107,-85.1992 L 9.82458,-84.9031 L 9.73146,-84.6165 L 9.60313,-84.3438
 L 9.44164,-84.0893 L 9.24951,-83.8571 L 9.02982,-83.6508 L 8.78598,-83.4736 L 8.52187,-83.3284 L 8.24164,-83.2175
 L 7.94971,-83.1425 L 7.6507,-83.1047 z
M -3.51418,-75.6 L -3.51418,-81 L 3.51418,-81 L 3.51418,-75.6 z
M -18.5142,-75.6 L -18.5142,-81 L -11.4858,-81 L -11.4858,-75.6 z
M 11.4858,-75.6 L 11.4858,-81 L 18.5142,-81 L 18.5142,-75.6 z
M -17.5307,-51.6 L -20.2462,-51.6 L -20.2462,-57 L -17.5307,-57 L -17.5307,-59.9 L -17.6289,-60.0547
 L -17.7893,-60.3956 L -17.9057,-60.7539 L -17.9763,-61.124 L -18,-61.5 L -17.9763,-61.876 L -17.9057,-62.2461
 L -17.7893,-62.6044 L -17.6289,-62.9453 L -17.427,-63.2634 L -17.1869,-63.5536 L -16.9123,-63.8115 L -16.6075,-64.033
 L -16.2773,-64.2145 L -15.927,-64.3532 L -15.5621,-64.4469 L -15.1884,-64.4941 L -14.8116,-64.4941 L -14.4379,-64.4469
 L -14.0729,-64.3532 L -13.7227,-64.2145 L -13.3925,-64.033 L -13.0877,-63.8115 L -12.8131,-63.5536 L -12.5729,-63.2634
 L -12.3711,-62.9453 L -12.2107,-62.6044 L -12.0942,-62.2461 L -12.0237,-61.876 L -12,-61.5 L -12.0237,-61.124
 L -12.0942,-60.7539 L -12.2107,-60.3956 L -12.3711,-60.0547 L -12.4693,-59.9 L -12.4693,-57 L -9.75375,-57
 L -9.75375,-51.6 L -12.4693,-51.6 L -12.4693,-48 L -2.53072,-48 L -2.53072,-51.6 L -5.24623,-51.6
 L -5.24623,-57 L -2.53072,-57 L -2.53072,-59.9 L -2.62891,-60.0547 L -2.78932,-60.3956 L -2.90575,-60.7539
 L -2.97633,-61.124 L -3,-61.5 L -2.97633,-61.876 L -2.90575,-62.2461 L -2.78932,-62.6044 L -2.62891,-62.9453
 L -2.42705,-63.2634 L -2.1869,-63.5536 L -1.91226,-63.8115 L -1.60747,-64.033 L -1.27733,-64.2145 L -0.927048,-64.3532
 L -0.562134,-64.4469 L -0.18837,-64.4941 L 0.18837,-64.4941 L 0.562134,-64.4469 L 0.927048,-64.3532 L 1.27733,-64.2145
 L 1.60747,-64.033 L 1.91226,-63.8115 L 2.1869,-63.5536 L 2.42705,-63.2634 L 2.62891,-62.9453 L 2.78932,-62.6044
 L 2.90575,-62.2461 L 2.97633,-61.876 L 3,-61.5 L 2.97633,-61.124 L 2.90575,-60.7539 L 2.78932,-60.3956
 L 2.62891,-60.0547 L 2.53072,-59.9 L 2.53072,-57 L 5.24623,-57 L 5.24623,-51.6 L 2.53072,-51.6
 L 2.53072,-48 L 12.4693,-48 L 12.4693,-51.6 L 9.75375,-51.6 L 9.75375,-57 L 12.4693,-57
 L 12.4693,-59.9 L 12.3711,-60.0547 L 12.2107,-60.3956 L 12.0942,-60.7539 L 12.0237,-61.124 L 12,-61.5
 L 12.0237,-61.876 L 12.0942,-62.2461 L 12.2107,-62.6044 L 12.3711,-62.9453 L 12.5729,-63.2634 L 12.8131,-63.5536
 L 13.0877,-63.8115 L 13.3925,-64.033 L 13.7227,-64.2145 L 14.0729,-64.3532 L 14.4379,-64.4469 L 14.8116,-64.4941
 L 15.1884,-64.4941 L 15.5621,-64.4469 L 15.927,-64.3532 L 16.2773,-64.2145 L 16.6075,-64.033 L 16.9123,-63.8115
 L 17.1869,-63.5536 L 17.427,-63.2634 L 17.6289,-62.9453 L 17.7893,-62.6044 L 17.9057,-62.2461 L 17.9763,-61.876
 L 18,-61.5 L 17.9763,-61.124 L 17.9057,-60.7539 L 17.7893,-60.3956 L 17.6289,-60.0547 L 17.5307,-59.9
 L 17.5307,-57 L 20.2462,-57 L 20.2462,-51.6 L 17.5307,-51.6 L 17.5307,-48 L 22,-48
 L 22,-63.5 L 21.9606,-64.1267 L 21.8429,-64.7434 L 21.6489,-65.3406 L 21.3815,-65.9088 L 21.0451,-66.4389
 L 20.6448,-66.9227 L 20.1871,-67.3526 L 19.6791,-67.7216 L 19.1289,-68.0241 L 18.5451,-68.2553 L 17.9369,-68.4114
 L 17.3139,-68.4901 L -17.3139,-68.4901 L -17.9369,-68.4114 L -18.5451,-68.2553 L -19.1289,-68.0241 L -19.6791,-67.7216
 L -20.1871,-67.3526 L -20.6448,-66.9227 L -21.0451,-66.4389 L -21.3815,-65.9088 L -21.6489,-65.3406 L -21.8429,-64.7434
 L -21.9606,-64.1267 L -22,-63.5 L -22,-48 L -17.5307,-48 z
M -9.17329,-58.6018 L -10.8466,-61.5 L -9.17329,-64.3982 L -5.82671,-64.3982 L -4.15341,-61.5 L -5.82671,-58.6018
 z
M 5.82671,-58.6018 L 4.15341,-61.5 L 5.82671,-64.3982 L 9.17329,-64.3982 L 10.8466,-61.5 L 9.17329,-58.6018
 z
M -17.5942,-27.6 L -20.304,-27.6 L -20.304,-33 L -17.5942,-33 L -17.5942,-36 L -17.6289,-36.0547
 L -17.7893,-36.3956 L -17.9057,-36.7539 L -17.9763,-37.124 L -18,-37.5 L -17.9763,-37.876 L -17.9057,-38.2461
 L -17.7893,-38.6044 L -17.6289,-38.9453 L -17.427,-39.2634 L -17.1869,-39.5536 L -16.9123,-39.8115 L -16.6075,-40.033
 L -16.2773,-40.2145 L -15.927,-40.3532 L -15.5621,-40.4469 L -15.1884,-40.4941 L -14.8116,-40.4941 L -14.4379,-40.4469
 L -14.0729,-40.3532 L -13.7227,-40.2145 L -13.3925,-40.033 L -13.0877,-39.8115 L -12.8131,-39.5536 L -12.5729,-39.2634
 L -12.3711,-38.9453 L -12.2107,-38.6044 L -12.0942,-38.2461 L -12.0237,-37.876 L -12,-37.5 L -12.0237,-37.124
 L -12.0942,-36.7539 L -12.2107,-36.3956 L -12.3711,-36.0547 L -12.4058,-36 L -12.4058,-33 L -9.69603,-33
 L -9.69603,-27.6 L -12.4058,-27.6 L -12.4058,-24 L -2.59418,-24 L -2.59418,-27.6 L -5.30396,-27.6
 L -5.30396,-33 L -2.59418,-33 L -2.59418,-36 L -2.62891,-36.0547 L -2.78932,-36.3956 L -2.90575,-36.7539
 L -2.97633,-37.124 L -3,-37.5 L -2.97633,-37.876 L -2.90575,-38.2461 L -2.78932,-38.6044 L -2.62891,-38.9453
 L -2.42705,-39.2634 L -2.1869,-39.5536 L -1.91226,-39.8115 L -1.60747,-40.033 L -1.27733,-40.2145 L -0.927048,-40.3532
 L -0.562134,-40.4469 L -0.18837,-40.4941 L 0.18837,-40.4941 L 0.562134,-40.4469 L 0.927048,-40.3532 L 1.27733,-40.2145
 L 1.60747,-40.033 L 1.91226,-39.8115 L 2.1869,-39.5536 L 2.42705,-39.2634 L 2.62891,-38.9453 L 2.78932,-38.6044
 L 2.90575,-38.2461 L 2.97633,-37.876 L 3,-37.5 L 2.97633,-37.124 L 2.90575,-36.7539 L 2.78932,-36.3956
 L 2.62891,-36.0547 L 2.59418,-36 L 2.59418,-33 L 5.30396,-33 L 5.30396,-27.6 L 2.59418,-27.6
 L 2.59418,-24 L 12.4058,-24 L 12.4058,-27.6 L 9.69603,-27.6 L 9.69603,-33 L 12.4058,-33
 L 12.4058,-36 L 12.3711,-36.0547 L 12.2107,-36.3956 L 12.0942,-36.7539 L 12.0237,-37.124 L 12,-37.5
 L 12.0237,-37.876 L 12.0942,-38.2461 L 12.2107,-38.6044 L 12.3711,-38.9453 L 12.5729,-39.2634 L 12.8131,-39.5536
 L 13.0877,-39.8115 L 13.3925,-40.033 L 13.7227,-40.2145 L 14.0729,-40.3532 L 14.4379,-40.4469 L 14.8116,-40.4941
 L 15.1884,-40.4941 L 15.5621,-40.4469 L 15.927,-40.3532 L 16.2773,-40.2145 L 16.6075,-40.033 L 16.9123,-39.8115
 L 17.1869,-39.5536 L 17.427,-39.2634 L 17.6289,-38.9453 L 17.7893,-38.6044 L 17.9057,-38.2461 L 17.9763,-37.876
 L 18,-37.5 L 17.9763,-37.124 L 17.9057,-36.7539 L 17.7893,-36.3956 L 17.6289,-36.0547 L 17.5942,-36
 L 17.5942,-33 L 20.304,-33 L 20.304,-27.6 L 17.5942,-27.6 L 17.5942,-24 L 22,-24
 L 22,-39.5 L 21.9606,-40.1267 L 21.8429,-40.7434 L 21.6489,-41.3406 L 21.3815,-41.9088 L 21.0451,-42.4389
 L 20.6448,-42.9227 L 20.1871,-43.3526 L 19.6791,-43.7216 L 19.1289,-44.0241 L 18.5451,-44.2553 L 17.9369,-44.4114
 L 17.3139,-44.4901 L -17.3139,-44.4901 L -17.9369,-44.4114 L -18.5451,-44.2553 L -19.1289,-44.0241 L -19.6791,-43.7216
 L -20.1871,-43.3526 L -20.6448,-42.9227 L -21.0451,-42.4389 L -21.3815,-41.9088 L -21.6489,-41.3406 L -21.8429,-40.7434
 L -21.9606,-40.1267 L -22,-39.5 L -22,-24 L -17.5942,-24 z
M -9.17329,-34.6018 L -10.8466,-37.5 L -9.17329,-40.3982 L -5.82671,-40.3982 L -4.15341,-37.5 L -5.82671,-34.6018
 z
M 5.82671,-34.6018 L 4.15341,-37.5 L 5.82671,-40.3982 L 9.17329,-40.3982 L 10.8466,-37.5 L 9.17329,-34.6018
 z
M 22,-15.5 L 21.9606,-16.1267 L 21.8429,-16.7434 L 21.6489,-17.3406 L 21.3815,-17.9088 L 21.0451,-18.4389
 L 20.6448,-18.9227 L 20.1871,-19.3526 L 19.6791,-19.7216 L 19.1289,-20.0241 L 18.5451,-20.2553 L 17.9369,-20.4114
 L 17.3139,-20.4901 L -17.3139,-20.4901 L -17.9369,-20.4114 L -18.5451,-20.2553 L -19.1289,-20.0241 L -19.6791,-19.7216
 L -20.1871,-19.3526 L -20.6448,-18.9227 L -21.0451,-18.4389 L -21.3815,-17.9088 L -21.6489,-17.3406 L -21.8429,-16.7434
 L -21.9606,-16.1267 L -22,-15.5 L -22,-0 L 22,-0 z
M -0.18837,-10.5059 L -0.562134,-10.5531 L -0.927048,-10.6468 L -1.27733,-10.7855 L -1.60747,-10.967 L -1.91226,-11.1884
 L -2.1869,-11.4464 L -2.42705,-11.7366 L -2.62891,-12.0547 L -2.78932,-12.3956 L -2.90575,-12.7539 L -2.97633,-13.124
 L -3,-13.5 L -2.97633,-13.876 L -2.90575,-14.2461 L -2.78932,-14.6044 L -2.62891,-14.9453 L -2.42705,-15.2634
 L -2.1869,-15.5536 L -1.91226,-15.8115 L -1.60747,-16.033 L -1.27733,-16.2145 L -0.927048,-16.3532 L -0.562134,-16.4469
 L -0.18837,-16.4941 L 0.18837,-16.4941 L 0.562134,-16.4469 L 0.927048,-16.3532 L 1.27733,-16.2145 L 1.60747,-16.033
 L 1.91226,-15.8115 L 2.1869,-15.5536 L 2.42705,-15.2634 L 2.62891,-14.9453 L 2.78932,-14.6044 L 2.90575,-14.2461
 L 2.97633,-13.876 L 3,-13.5 L 2.97633,-13.124 L 2.90575,-12.7539 L 2.78932,-12.3956 L 2.62891,-12.0547
 L 2.42705,-11.7366 L 2.1869,-11.4464 L 1.91226,-11.1884 L 1.60747,-10.967 L 1.27733,-10.7855 L 0.927048,-10.6468
 L 0.562134,-10.5531 L 0.18837,-10.5059 z
M -15.1884,-10.5059 L -15.5621,-10.5531 L -15.927,-10.6468 L -16.2773,-10.7855 L -16.6075,-10.967 L -16.9123,-11.1884
 L -17.1869,-11.4464 L -17.427,-11.7366 L -17.6289,-12.0547 L -17.7893,-12.3956 L -17.9057,-12.7539 L -17.9763,-13.124
 L -18,-13.5 L -17.9763,-13.876 L -17.9057,-14.2461 L -17.7893,-14.6044 L -17.6289,-14.9453 L -17.427,-15.2634
 L -17.1869,-15.5536 L -16.9123,-15.8115 L -16.6075,-16.033 L -16.2773,-16.2145 L -15.927,-16.3532 L -15.5621,-16.4469
 L -15.1884,-16.4941 L -14.8116,-16.4941 L -14.4379,-16.4469 L -14.0729,-16.3532 L -13.7227,-16.2145 L -13.3925,-16.033
 L -13.0877,-15.8115 L -12.8131,-15.5536 L -12.5729,-15.2634 L -12.3711,-14.9453 L -12.2107,-14.6044 L -12.0942,-14.2461
 L -12.0237,-13.876 L -12,-13.5 L -12.0237,-13.124 L -12.0942,-12.7539 L -12.2107,-12.3956 L -12.3711,-12.0547
 L -12.5729,-11.7366 L -12.8131,-11.4464 L -13.0877,-11.1884 L -13.3925,-10.967 L -13.7227,-10.7855 L -14.0729,-10.6468
 L -14.4379,-10.5531 L -14.8116,-10.5059 z
M 14.8116,-10.5059 L 14.4379,-10.5531 L 14.0729,-10.6468 L 13.7227,-10.7855 L 13.3925,-10.967 L 13.0877,-11.1884
 L 12.8131,-11.4464 L 12.5729,-11.7366 L 12.3711,-12.0547 L 12.2107,-12.3956 L 12.0942,-12.7539 L 12.0237,-13.124
 L 12,-13.5 L 12.0237,-13.876 L 12.0942,-14.2461 L 12.2107,-14.6044 L 12.3711,-14.9453 L 12.5729,-15.2634
 L 12.8131,-15.5536 L 13.0877,-15.8115 L 13.3925,-16.033 L 13.7227,-16.2145 L 14.0729,-16.3532 L 14.4379,-16.4469
 L 14.8116,-16.4941 L 15.1884,-16.4941 L 15.5621,-16.4469 L 15.927,-16.3532 L 16.2773,-16.2145 L 16.6075,-16.033
 L 16.9123,-15.8115 L 17.1869,-15.5536 L 17.427,-15.2634 L 17.6289,-14.9453 L 17.7893,-14.6044 L 17.9057,-14.2461
 L 17.9763,-13.876 L 18,-13.5 L 17.9763,-13.124 L 17.9057,-12.7539 L 17.7893,-12.3956 L 17.6289,-12.0547
 L 17.427,-11.7366 L 17.1869,-11.4464 L 16.9123,-11.1884 L 16.6075,-10.967 L 16.2773,-10.7855 L 15.927,-10.6468
 L 15.5621,-10.5531 L 15.1884,-10.5059 z
M -7.6507,-11.1047 L -7.94971,-11.1425 L -8.24164,-11.2175 L -8.52187,-11.3284 L -8.78598,-11.4736 L -9.02982,-11.6508
 L -9.24951,-11.8571 L -9.44164,-12.0893 L -9.60313,-12.3438 L -9.73146,-12.6165 L -9.82458,-12.9031 L -9.88107,-13.1992
 L -9.89999,-13.5 L -9.88107,-13.8008 L -9.82458,-14.0968 L -9.73146,-14.3835 L -9.60313,-14.6562 L -9.44164,-14.9107
 L -9.24951,-15.1429 L -9.02982,-15.3492 L -8.78598,-15.5264 L -8.52187,-15.6716 L -8.24164,-15.7825 L -7.94971,-15.8575
 L -7.6507,-15.8953 L -7.34929,-15.8953 L -7.05028,-15.8575 L -6.75835,-15.7825 L -6.47812,-15.6716 L -6.214,-15.5264
 L -5.97017,-15.3492 L -5.75047,-15.1429 L -5.55835,-14.9107 L -5.39685,-14.6562 L -5.26852,-14.3835 L -5.1754,-14.0968
 L -5.11891,-13.8008 L -5.09999,-13.5 L -5.11891,-13.1992 L -5.1754,-12.9031 L -5.26852,-12.6165 L -5.39685,-12.3438
 L -5.55835,-12.0893 L -5.75047,-11.8571 L -5.97017,-11.6508 L -6.214,-11.4736 L -6.47812,-11.3284 L -6.75835,-11.2175
 L -7.05028,-11.1425 L -7.34929,-11.1047 z
M 7.34929,-11.1047 L 7.05028,-11.1425 L 6.75835,-11.2175 L 6.47812,-11.3284 L 6.214,-11.4736 L 5.97017,-11.6508
 L 5.75047,-11.8571 L 5.55835,-12.0893 L 5.39685,-12.3438 L 5.26852,-12.6165 L 5.1754,-12.9031 L 5.11891,-13.1992
 L 5.09999,-13.5 L 5.11891,-13.8008 L 5.1754,-14.0968 L 5.26852,-14.3835 L 5.39685,-14.6562 L 5.55835,-14.9107
 L 5.75047,-15.1429 L 5.97017,-15.3492 L 6.214,-15.5264 L 6.47812,-15.6716 L 6.75835,-15.7825 L 7.05028,-15.8575
 L 7.34929,-15.8953 L 7.6507,-15.8953 L 7.94971,-15.8575 L 8.24164,-15.7825 L 8.52187,-15.6716 L 8.78598,-15.5264
 L 9.02982,-15.3492 L 9.24951,-15.1429 L 9.44164,-14.9107 L 9.60313,-14.6562 L 9.73146,-14.3835 L 9.82458,-14.0968
 L 9.88107,-13.8008 L 9.89999,-13.5 L 9.88107,-13.1992 L 9.82458,-12.9031 L 9.73146,-12.6165 L 9.60313,-12.3438
 L 9.44164,-12.0893 L 9.24951,-11.8571 L 9.02982,-11.6508 L 8.78598,-11.4736 L 8.52187,-11.3284 L 8.24164,-11.2175
 L 7.94971,-11.1425 L 7.6507,-11.1047 z
M -18.5719,-3.59999 L -18.5719,-9 L -11.4281,-9 L -11.4281,-3.59999 z
M -3.5719,-3.59999 L -3.5719,-9 L 3.5719,-9 L 3.5719,-3.59999 z
M 11.4281,-3.59999 L 11.4281,-9 L 18.5719,-9 L 18.5719,-3.59999 z
" stroke="black" fill="lightgray" stroke-width="0.5"/>
</svg>
