<?xml version="1.0" standalone="no"?>
<!DOCTYPE svg PUBLIC "-//W3C//DTD SVG 1.1//EN" "http://www.w3.org/Graphics/SVG/1.1/DTD/svg11.dtd">
<svg width="38mm" height="262mm" viewBox="-19 -455 38 262" xmlns="http://www.w3.org/2000/svg" version="1.1">
<title>OpenSCAD Model</title>
<path d="
M 14.6869,-409.589 L 15.2951,-409.745 L 15.8789,-409.976 L 16.4291,-410.278 L 16.9371,-410.647 L 17.3948,-411.077
 L 17.7951,-411.561 L 18.1315,-412.091 L 18.3989,-412.659 L 18.5929,-413.257 L 18.7106,-413.873 L 18.75,-414.5
 L 18.75,-449.5 L 18.7106,-450.127 L 18.5929,-450.743 L 18.3989,-451.341 L 18.1315,-451.909 L 17.7951,-452.439
 L 17.3948,-452.923 L 16.9371,-453.353 L 16.4291,-453.722 L 15.8789,-454.024 L 15.2951,-454.255 L 14.6869,-454.411
 L 14.0639,-454.49 L -14.0639,-454.49 L -14.6869,-454.411 L -15.2951,-454.255 L -15.8789,-454.024 L -16.4291,-453.722
 L -16.9371,-453.353 L -17.3948,-452.923 L -17.7951,-452.439 L -18.1315,-451.909 L -18.3989,-451.341 L -18.5929,-450.743
 L -18.7106,-450.127 L -18.75,-449.5 L -18.75,-414.5 L -18.7106,-413.873 L -18.5929,-413.257 L -18.3989,-412.659
 L -18.1315,-412.091 L -17.7951,-411.561 L -17.3948,-411.077 L -16.9371,-410.647 L -16.4291,-410.278 L -15.8789,-409.976
 L -15.2951,-409.745 L -14.6869,-409.589 L -14.0639,-409.51 L 14.0639,-409.51 z
M -8.56104,-410.009 L -8.07086,-410.278 L -7.56287,-410.647 L -7.10515,-411.077 L -6.70491,-411.561 L -6.36845,-412.091
 L -6.1011,-412.659 L -5.90707,-413.257 L -5.78941,-413.873 L -5.75,-414.5 L -5.75,-417.5 L -5.78941,-418.127
 L -5.90707,-418.743 L -6.1011,-419.341 L -6.36845,-419.909 L -6.70491,-420.439 L -7.10515,-420.923 L -7.56287,-421.353
 L -8.07086,-421.722 L -8.62109,-422.024 L -9.20491,-422.255 L -9.81308,-422.411 L -10.436,-422.49 L -14.0639,-422.49
 L -14.6869,-422.411 L -15.2951,-422.255 L -15.8789,-422.024 L -16.4291,-421.722 L -16.9371,-421.353 L -17.3948,-420.923
 L -17.7951,-420.439 L -18.1315,-419.909 L -18.25,-419.657 L -18.25,-449.5 L -18.2145,-450.064 L -18.1086,-450.619
 L -17.934,-451.157 L -17.6934,-451.668 L -17.3906,-452.145 L -17.0303,-452.58 L -16.6184,-452.967 L -16.1612,-453.299
 L -15.666,-453.572 L -15.1406,-453.78 L -14.5932,-453.92 L -14.0325,-453.991 L 14.0325,-453.991 L 14.5932,-453.92
 L 15.1406,-453.78 L 15.666,-453.572 L 16.1612,-453.299 L 16.6184,-452.967 L 17.0303,-452.58 L 17.3906,-452.145
 L 17.6934,-451.668 L 17.934,-451.157 L 18.1086,-450.619 L 18.2145,-450.064 L 18.25,-449.5 L 18.25,-414.5
 L 18.2145,-413.936 L 18.1086,-413.381 L 17.934,-412.843 L 17.6934,-412.332 L 17.3906,-411.855 L 17.0303,-411.42
 L 16.6184,-411.033 L 16.1612,-410.701 L 15.666,-410.428 L 15.1406,-410.22 L 14.5932,-410.08 L 14.0325,-410.009
 z
M 11.7184,-444.544 L 12.0225,-444.622 L 12.3144,-444.738 L 12.5896,-444.889 L 12.8436,-445.074 L 13.0724,-445.289
 L 13.2725,-445.531 L 13.4408,-445.796 L 13.5744,-446.08 L 13.6714,-446.378 L 13.7303,-446.687 L 13.75,-447
 L 13.7303,-447.313 L 13.6714,-447.622 L 13.5744,-447.92 L 13.4408,-448.204 L 13.2725,-448.469 L 13.0724,-448.711
 L 12.8436,-448.926 L 12.5896,-449.111 L 12.3144,-449.262 L 12.0225,-449.378 L 11.7184,-449.456 L 11.407,-449.495
 L 11.093,-449.495 L 10.7815,-449.456 L 10.4774,-449.378 L 10.1855,-449.262 L 9.91043,-449.111 L 9.65643,-448.926
 L 9.42757,-448.711 L 9.22745,-448.469 L 9.05922,-448.204 L 8.92555,-447.92 L 8.82854,-447.622 L 8.7697,-447.313
 L 8.75,-447 L 8.7697,-446.687 L 8.82854,-446.378 L 8.92555,-446.08 L 9.05922,-445.796 L 9.22745,-445.531
 L 9.42757,-445.289 L 9.65643,-445.074 L 9.91043,-444.889 L 10.1855,-444.738 L 10.4774,-444.622 L 10.7815,-444.544
 L 11.093,-444.505 L 11.407,-444.505 z
M 11.1558,-445.503 L 10.9689,-445.527 L 10.7865,-445.573 L 10.6113,-445.643 L 10.4463,-445.734 L 10.2939,-445.844
 L 10.1565,-445.973 L 10.0365,-446.118 L 9.93553,-446.277 L 9.85533,-446.448 L 9.79712,-446.627 L 9.76183,-446.812
 L 9.75,-447 L 9.76183,-447.188 L 9.79712,-447.373 L 9.85533,-447.552 L 9.93553,-447.723 L 10.0365,-447.882
 L 10.1565,-448.027 L 10.2939,-448.156 L 10.4463,-448.266 L 10.6113,-448.357 L 10.7865,-448.427 L 10.9689,-448.473
 L 11.1558,-448.497 L 11.3442,-448.497 L 11.5311,-448.473 L 11.7135,-448.427 L 11.8887,-448.357 L 12.0537,-448.266
 L 12.2061,-448.156 L 12.3434,-448.027 L 12.4635,-447.882 L 12.5645,-447.723 L 12.6447,-447.552 L 12.7029,-447.373
 L 12.7382,-447.188 L 12.75,-447 L 12.7382,-446.812 L 12.7029,-446.627 L 12.6447,-446.448 L 12.5645,-446.277
 L 12.4635,-446.118 L 12.3434,-445.973 L 12.2061,-445.844 L 12.0537,-445.734 L 11.8887,-445.643 L 11.7135,-445.573
 L 11.5311,-445.527 L 11.3442,-445.503 z
M -11.3442,-415.503 L -11.5311,-415.527 L -11.7135,-415.573 L -11.8887,-415.643 L -12.0537,-415.734 L -12.2061,-415.844
 L -12.3434,-415.973 L -12.4635,-416.118 L -12.5645,-416.277 L -12.6447,-416.448 L -12.7029,-416.627 L -12.7382,-416.812
 L -12.75,-417 L -12.7382,-417.188 L -12.7029,-417.373 L -12.6447,-417.552 L -12.5645,-417.723 L -12.4635,-417.882
 L -12.3434,-418.027 L -12.2061,-418.156 L -12.0537,-418.266 L -11.8887,-418.357 L -11.7135,-418.427 L -11.5311,-418.473
 L -11.3442,-418.497 L -11.1558,-418.497 L -10.9689,-418.473 L -10.7865,-418.427 L -10.6113,-418.357 L -10.4463,-418.266
 L -10.2939,-418.156 L -10.1565,-418.027 L -10.0365,-417.882 L -9.93553,-417.723 L -9.85533,-417.552 L -9.79712,-417.373
 L -9.76183,-417.188 L -9.75,-417 L -9.76183,-416.812 L -9.79712,-416.627 L -9.85533,-416.448 L -9.93553,-416.277
 L -10.0365,-416.118 L -10.1565,-415.973 L -10.2939,-415.844 L -10.4463,-415.734 L -10.6113,-415.643 L -10.7865,-415.573
 L -10.9689,-415.527 L -11.1558,-415.503 z
M 14.6869,-355.589 L 15.2951,-355.745 L 15.8789,-355.976 L 16.4291,-356.278 L 16.9371,-356.647 L 17.3948,-357.077
 L 17.7951,-357.561 L 18.1315,-358.091 L 18.3989,-358.659 L 18.5929,-359.257 L 18.7106,-359.873 L 18.75,-360.5
 L 18.75,-395.5 L 18.7106,-396.127 L 18.5929,-396.743 L 18.3989,-397.341 L 18.1315,-397.909 L 17.7951,-398.439
 L 17.3948,-398.923 L 16.9371,-399.353 L 16.4291,-399.722 L 15.8789,-400.024 L 15.2951,-400.255 L 14.6869,-400.411
 L 14.0639,-400.49 L -14.0639,-400.49 L -14.6869,-400.411 L -15.2951,-400.255 L -15.8789,-400.024 L -16.4291,-399.722
 L -16.9371,-399.353 L -17.3948,-398.923 L -17.7951,-398.439 L -18.1315,-397.909 L -18.3989,-397.341 L -18.5929,-396.743
 L -18.7106,-396.127 L -18.75,-395.5 L -18.75,-360.5 L -18.7106,-359.873 L -18.5929,-359.257 L -18.3989,-358.659
 L -18.1315,-358.091 L -17.7951,-357.561 L -17.3948,-357.077 L -16.9371,-356.647 L -16.4291,-356.278 L -15.8789,-355.976
 L -15.2951,-355.745 L -14.6869,-355.589 L -14.0639,-355.51 L 14.0639,-355.51 z
M -8.56104,-356.009 L -8.07086,-356.278 L -7.56287,-356.647 L -7.10515,-357.077 L -6.70491,-357.561 L -6.36845,-358.091
 L -6.1011,-358.659 L -5.90707,-359.257 L -5.78941,-359.873 L -5.75,-360.5 L -5.75,-363.5 L -5.78941,-364.127
 L -5.90707,-364.743 L -6.1011,-365.341 L -6.36845,-365.909 L -6.70491,-366.439 L -7.10515,-366.923 L -7.56287,-367.353
 L -8.07086,-367.722 L -8.62109,-368.024 L -9.20491,-368.255 L -9.81308,-368.411 L -10.436,-368.49 L -14.0639,-368.49
 L -14.6869,-368.411 L -15.2951,-368.255 L -15.8789,-368.024 L -16.4291,-367.722 L -16.9371,-367.353 L -17.3948,-366.923
 L -17.7951,-366.439 L -18.1315,-365.909 L -18.25,-365.657 L -18.25,-395.5 L -18.2145,-396.064 L -18.1086,-396.619
 L -17.934,-397.157 L -17.6934,-397.668 L -17.3906,-398.145 L -17.0303,-398.58 L -16.6184,-398.967 L -16.1612,-399.299
 L -15.666,-399.572 L -15.1406,-399.78 L -14.5932,-399.92 L -14.0325,-399.991 L 14.0325,-399.991 L 14.5932,-399.92
 L 15.1406,-399.78 L 15.666,-399.572 L 16.1612,-399.299 L 16.6184,-398.967 L 17.0303,-398.58 L 17.3906,-398.145
 L 17.6934,-397.668 L 17.934,-397.157 L 18.1086,-396.619 L 18.2145,-396.064 L 18.25,-395.5 L 18.25,-360.5
 L 18.2145,-359.936 L 18.1086,-359.381 L 17.934,-358.843 L 17.6934,-358.332 L 17.3906,-357.855 L 17.0303,-357.42
 L 16.6184,-357.033 L 16.1612,-356.701 L 15.666,-356.428 L 15.1406,-356.22 L 14.5932,-356.08 L 14.0325,-356.009
 z
M 11.7184,-390.544 L 12.0225,-390.622 L 12.3144,-390.738 L 12.5896,-390.889 L 12.8436,-391.074 L 13.0724,-391.289
 L 13.2725,-391.531 L 13.4408,-391.796 L 13.5744,-392.08 L 13.6714,-392.378 L 13.7303,-392.687 L 13.75,-393
 L 13.7303,-393.313 L 13.6714,-393.622 L 13.5744,-393.92 L 13.4408,-394.204 L 13.2725,-394.469 L 13.0724,-394.711
 L 12.8436,-394.926 L 12.5896,-395.111 L 12.3144,-395.262 L 12.0225,-395.378 L 11.7184,-395.456 L 11.407,-395.495
 L 11.093,-395.495 L 10.7815,-395.456 L 10.4774,-395.378 L 10.1855,-395.262 L 9.91043,-395.111 L 9.65643,-394.926
 L 9.42757,-394.711 L 9.22745,-394.469 L 9.05922,-394.204 L 8.92555,-393.92 L 8.82854,-393.622 L 8.7697,-393.313
 L 8.75,-393 L 8.7697,-392.687 L 8.82854,-392.378 L 8.92555,-392.08 L 9.05922,-391.796 L 9.22745,-391.531
 L 9.42757,-391.289 L 9.65643,-391.074 L 9.91043,-390.889 L 10.1855,-390.738 L 10.4774,-390.622 L 10.7815,-390.544
 L 11.093,-390.505 L 11.407,-390.505 z
M 11.1558,-391.503 L 10.9689,-391.527 L 10.7865,-391.573 L 10.6113,-391.643 L 10.4463,-391.734 L 10.2939,-391.844
 L 10.1565,-391.973 L 10.0365,-392.118 L 9.93553,-392.277 L 9.85533,-392.448 L 9.79712,-392.627 L 9.76183,-392.812
 L 9.75,-393 L 9.76183,-393.188 L 9.79712,-393.373 L 9.85533,-393.552 L 9.93553,-393.723 L 10.0365,-393.882
 L 10.1565,-394.027 L 10.2939,-394.156 L 10.4463,-394.266 L 10.6113,-394.357 L 10.7865,-394.427 L 10.9689,-394.473
 L 11.1558,-394.497 L 11.3442,-394.497 L 11.5311,-394.473 L 11.7135,-394.427 L 11.8887,-394.357 L 12.0537,-394.266
 L 12.2061,-394.156 L 12.3434,-394.027 L 12.4635,-393.882 L 12.5645,-393.723 L 12.6447,-393.552 L 12.7029,-393.373
 L 12.7382,-393.188 L 12.75,-393 L 12.7382,-392.812 L 12.7029,-392.627 L 12.6447,-392.448 L 12.5645,-392.277
 L 12.4635,-392.118 L 12.3434,-391.973 L 12.2061,-391.844 L 12.0537,-391.734 L 11.8887,-391.643 L 11.7135,-391.573
 L 11.5311,-391.527 L 11.3442,-391.503 z
M -11.3442,-361.503 L -11.5311,-361.527 L -11.7135,-361.573 L -11.8887,-361.643 L -12.0537,-361.734 L -12.2061,-361.844
 L -12.3434,-361.973 L -12.4635,-362.118 L -12.5645,-362.277 L -12.6447,-362.448 L -12.7029,-362.627 L -12.7382,-362.812
 L -12.75,-363 L -12.7382,-363.188 L -12.7029,-363.373 L -12.6447,-363.552 L -12.5645,-363.723 L -12.4635,-363.882
 L -12.3434,-364.027 L -12.2061,-364.156 L -12.0537,-364.266 L -11.8887,-364.357 L -11.7135,-364.427 L -11.5311,-364.473
 L -11.3442,-364.497 L -11.1558,-364.497 L -10.9689,-364.473 L -10.7865,-364.427 L -10.6113,-364.357 L -10.4463,-364.266
 L -10.2939,-364.156 L -10.1565,-364.027 L -10.0365,-363.882 L -9.93553,-363.723 L -9.85533,-363.552 L -9.79712,-363.373
 L -9.76183,-363.188 L -9.75,-363 L -9.76183,-362.812 L -9.79712,-362.627 L -9.85533,-362.448 L -9.93553,-362.277
 L -10.0365,-362.118 L -10.1565,-361.973 L -10.2939,-361.844 L -10.4463,-361.734 L -10.6113,-361.643 L -10.7865,-361.573
 L -10.9689,-361.527 L -11.1558,-361.503 z
M 14.6869,-301.589 L 15.2951,-301.745 L 15.8789,-301.976 L 16.4291,-302.278 L 16.9371,-302.647 L 17.3948,-303.077
 L 17.7951,-303.561 L 18.1315,-304.091 L 18.3989,-304.659 L 18.5929,-305.257 L 18.7106,-305.873 L 18.75,-306.5
 L 18.75,-341.5 L 18.7106,-342.127 L 18.5929,-342.743 L 18.3989,-343.341 L 18.1315,-343.909 L 17.7951,-344.439
 L 17.3948,-344.923 L 16.9371,-345.353 L 16.4291,-345.722 L 15.8789,-346.024 L 15.2951,-346.255 L 14.6869,-346.411
 L 14.0639,-346.49 L -14.0639,-346.49 L -14.6869,-346.411 L -15.2951,-346.255 L -15.8789,-346.024 L -16.4291,-345.722
 L -16.9371,-345.353 L -17.3948,-344.923 L -17.7951,-344.439 L -18.1315,-343.909 L -18.3989,-343.341 L -18.5929,-342.743
 L -18.7106,-342.127 L -18.75,-341.5 L -18.75,-306.5 L -18.7106,-305.873 L -18.5929,-305.257 L -18.3989,-304.659
 L -18.1315,-304.091 L -17.7951,-303.561 L -17.3948,-303.077 L -16.9371,-302.647 L -16.4291,-302.278 L -15.8789,-301.976
 L -15.2951,-301.745 L -14.6869,-301.589 L -14.0639,-301.51 L 14.0639,-301.51 z
M -8.56104,-302.009 L -8.07086,-302.278 L -7.56287,-302.647 L -7.10515,-303.077 L -6.70491,-303.561 L -6.36845,-304.091
 L -6.1011,-304.659 L -5.90707,-305.257 L -5.78941,-305.873 L -5.75,-306.5 L -5.75,-309.5 L -5.78941,-310.127
 L -5.90707,-310.743 L -6.1011,-311.341 L -6.36845,-311.909 L -6.70491,-312.439 L -7.10515,-312.923 L -7.56287,-313.353
 L -8.07086,-313.722 L -8.62109,-314.024 L -9.20491,-314.255 L -9.81308,-314.411 L -10.436,-314.49 L -14.0639,-314.49
 L -14.6869,-314.411 L -15.2951,-314.255 L -15.8789,-314.024 L -16.4291,-313.722 L -16.9371,-313.353 L -17.3948,-312.923
 L -17.7951,-312.439 L -18.1315,-311.909 L -18.25,-311.657 L -18.25,-341.5 L -18.2145,-342.064 L -18.1086,-342.619
 L -17.934,-343.157 L -17.6934,-343.668 L -17.3906,-344.145 L -17.0303,-344.58 L -16.6184,-344.967 L -16.1612,-345.299
 L -15.666,-345.572 L -15.1406,-345.78 L -14.5932,-345.92 L -14.0325,-345.991 L 14.0325,-345.991 L 14.5932,-345.92
 L 15.1406,-345.78 L 15.666,-345.572 L 16.1612,-345.299 L 16.6184,-344.967 L 17.0303,-344.58 L 17.3906,-344.145
 L 17.6934,-343.668 L 17.934,-343.157 L 18.1086,-342.619 L 18.2145,-342.064 L 18.25,-341.5 L 18.25,-306.5
 L 18.2145,-305.936 L 18.1086,-305.381 L 17.934,-304.843 L 17.6934,-304.332 L 17.3906,-303.855 L 17.0303,-303.42
 L 16.6184,-303.033 L 16.1612,-302.701 L 15.666,-302.428 L 15.1406,-302.22 L 14.5932,-302.08 L 14.0325,-302.009
 z
M 11.7184,-336.544 L 12.0225,-336.622 L 12.3144,-336.738 L 12.5896,-336.889 L 12.8436,-337.074 L 13.0724,-337.289
 L 13.2725,-337.531 L 13.4408,-337.796 L 13.5744,-338.08 L 13.6714,-338.378 L 13.7303,-338.687 L 13.75,-339
 L 13.7303,-339.313 L 13.6714,-339.622 L 13.5744,-339.92 L 13.4408,-340.204 L 13.2725,-340.469 L 13.0724,-340.711
 L 12.8436,-340.926 L 12.5896,-341.111 L 12.3144,-341.262 L 12.0225,-341.378 L 11.7184,-341.456 L 11.407,-341.495
 L 11.093,-341.495 L 10.7815,-341.456 L 10.4774,-341.378 L 10.1855,-341.262 L 9.91043,-341.111 L 9.65643,-340.926
 L 9.42757,-340.711 L 9.22745,-340.469 L 9.05922,-340.204 L 8.92555,-339.92 L 8.82854,-339.622 L 8.7697,-339.313
 L 8.75,-339 L 8.7697,-338.687 L 8.82854,-338.378 L 8.92555,-338.08 L 9.05922,-337.796 L 9.22745,-337.531
 L 9.42757,-337.289 L 9.65643,-337.074 L 9.91043,-336.889 L 10.1855,-336.738 L 10.4774,-336.622 L 10.7815,-336.544
 L 11.093,-336.505 L 11.407,-336.505 z
M 11.1558,-337.503 L 10.9689,-337.527 L 10.7865,-337.573 L 10.6113,-337.643 L 10.4463,-337.734 L 10.2939,-337.844
 L 10.1565,-337.973 L 10.0365,-338.118 L 9.93553,-338.277 L 9.85533,-338.448 L 9.79712,-338.627 L 9.76183,-338.812
 L 9.75,-339 L 9.76183,-339.188 L 9.79712,-339.373 L 9.85533,-339.552 L 9.93553,-339.723 L 10.0365,-339.882
 L 10.1565,-340.027 L 10.2939,-340.156 L 10.4463,-340.266 L 10.6113,-340.357 L 10.7865,-340.427 L 10.9689,-340.473
 L 11.1558,-340.497 L 11.3442,-340.497 L 11.5311,-340.473 L 11.7135,-340.427 L 11.8887,-340.357 L 12.0537,-340.266
 L 12.2061,-340.156 L 12.3434,-340.027 L 12.4635,-339.882 L 12.5645,-339.723 L 12.6447,-339.552 L 12.7029,-339.373
 L 12.7382,-339.188 L 12.75,-339 L 12.7382,-338.812 L 12.7029,-338.627 L 12.6447,-338.448 L 12.5645,-338.277
 L 12.4635,-338.118 L 12.3434,-337.973 L 12.2061,-337.844 L 12.0537,-337.734 L 11.8887,-337.643 L 11.7135,-337.573
 L 11.5311,-337.527 L 11.3442,-337.503 z
M -11.3442,-307.503 L -11.5311,-307.527 L -11.7135,-307.573 L -11.8887,-307.643 L -12.0537,-307.734 L -12.2061,-307.844
 L -12.3434,-307.973 L -12.4635,-308.118 L -12.5645,-308.277 L -12.6447,-308.448 L -12.7029,-308.627 L -12.7382,-308.812
 L -12.75,-309 L -12.7382,-309.188 L -12.7029,-309.373 L -12.6447,-309.552 L -12.5645,-309.723 L -12.4635,-309.882
 L -12.3434,-310.027 L -12.2061,-310.156 L -12.0537,-310.266 L -11.8887,-310.357 L -11.7135,-310.427 L -11.5311,-310.473
 L -11.3442,-310.497 L -11.1558,-310.497 L -10.9689,-310.473 L -10.7865,-310.427 L -10.6113,-310.357 L -10.4463,-310.266
 L -10.2939,-310.156 L -10.1565,-310.027 L -10.0365,-309.882 L -9.93553,-309.723 L -9.85533,-309.552 L -9.79712,-309.373
 L -9.76183,-309.188 L -9.75,-309 L -9.76183,-308.812 L -9.79712,-308.627 L -9.85533,-308.448 L -9.93553,-308.277
 L -10.0365,-308.118 L -10.1565,-307.973 L -10.2939,-307.844 L -10.4463,-307.734 L -10.6113,-307.643 L -10.7865,-307.573
 L -10.9689,-307.527 L -11.1558,-307.503 z
M 14.6869,-247.589 L 15.2951,-247.745 L 15.8789,-247.976 L 16.4291,-248.278 L 16.9371,-248.647 L 17.3948,-249.077
 L 17.7951,-249.561 L 18.1315,-250.091 L 18.3989,-250.659 L 18.5929,-251.257 L 18.7106,-251.873 L 18.75,-252.5
 L 18.75,-287.5 L 18.7106,-288.127 L 18.5929,-288.743 L 18.3989,-289.341 L 18.1315,-289.909 L 17.7951,-290.439
 L 17.3948,-290.923 L 16.9371,-291.353 L 16.4291,-291.722 L 15.8789,-292.024 L 15.2951,-292.255 L 14.6869,-292.411
 L 14.0639,-292.49 L -14.0639,-292.49 L -14.6869,-292.411 L -15.2951,-292.255 L -15.8789,-292.024 L -16.4291,-291.722
 L -16.9371,-291.353 L -17.3948,-290.923 L -17.7951,-290.439 L -18.1315,-289.909 L -18.3989,-289.341 L -18.5929,-288.743
 L -18.7106,-288.127 L -18.75,-287.5 L -18.75,-252.5 L -18.7106,-251.873 L -18.5929,-251.257 L -18.3989,-250.659
 L -18.1315,-250.091 L -17.7951,-249.561 L -17.3948,-249.077 L -16.9371,-248.647 L -16.4291,-248.278 L -15.8789,-247.976
 L -15.2951,-247.745 L -14.6869,-247.589 L -14.0639,-247.51 L 14.0639,-247.51 z
M -7.78568,-248.486 L -7.56287,-248.647 L -7.10515,-249.077 L -6.70491,-249.561 L -6.36845,-250.091 L -6.1011,-250.659
 L -5.90707,-251.257 L -5.78941,-251.873 L -5.75,-252.5 L -5.75,-255.5 L -5.78941,-256.127 L -5.90707,-256.743
 L -6.1011,-257.341 L -6.36845,-257.909 L -6.70491,-258.439 L -7.10515,-258.923 L -7.56287,-259.353 L -8.07086,-259.722
 L -8.62109,-260.024 L -9.20491,-260.255 L -9.81308,-260.411 L -10.436,-260.49 L -14.0639,-260.49 L -14.6869,-260.411
 L -15.2951,-260.255 L -15.8789,-260.024 L -16.4291,-259.722 L -16.9371,-259.353 L -17.3948,-258.923 L -17.7724,-258.466
 L -17.7724,-287.5 L -17.7407,-288.004 L -17.646,-288.5 L -17.4899,-288.981 L -17.2748,-289.438 L -17.0042,-289.864
 L -16.6822,-290.254 L -16.3139,-290.599 L -15.9053,-290.896 L -15.4626,-291.14 L -14.993,-291.326 L -14.5037,-291.451
 L -14.0026,-291.514 L 7.78568,-291.514 L 7.56287,-291.353 L 7.10515,-290.923 L 6.70491,-290.439 L 6.36845,-289.909
 L 6.1011,-289.341 L 5.90707,-288.743 L 5.78941,-288.127 L 5.75,-287.5 L 5.75,-284.5 L 5.78941,-283.873
 L 5.90707,-283.257 L 6.1011,-282.659 L 6.36845,-282.091 L 6.70491,-281.561 L 7.10515,-281.077 L 7.56287,-280.647
 L 8.07086,-280.278 L 8.62109,-279.976 L 9.20491,-279.745 L 9.81308,-279.589 L 10.436,-279.51 L 14.0639,-279.51
 L 14.6869,-279.589 L 15.2951,-279.745 L 15.8789,-279.976 L 16.4291,-280.278 L 16.9371,-280.647 L 17.3948,-281.077
 L 17.7724,-281.534 L 17.7724,-252.5 L 17.7407,-251.996 L 17.646,-251.5 L 17.4899,-251.019 L 17.2748,-250.562
 L 17.0042,-250.136 L 16.6822,-249.746 L 16.3139,-249.401 L 15.9053,-249.104 L 15.4626,-248.86 L 14.993,-248.674
 L 14.5037,-248.549 L 14.0026,-248.486 z
M 11.1558,-283.503 L 10.9689,-283.527 L 10.7865,-283.573 L 10.6113,-283.643 L 10.4463,-283.734 L 10.2939,-283.844
 L 10.1565,-283.973 L 10.0365,-284.118 L 9.93553,-284.277 L 9.85533,-284.448 L 9.79712,-284.627 L 9.76183,-284.812
 L 9.75,-285 L 9.76183,-285.188 L 9.79712,-285.373 L 9.85533,-285.552 L 9.93553,-285.723 L 10.0365,-285.882
 L 10.1565,-286.027 L 10.2939,-286.156 L 10.4463,-286.266 L 10.6113,-286.357 L 10.7865,-286.427 L 10.9689,-286.473
 L 11.1558,-286.497 L 11.3442,-286.497 L 11.5311,-286.473 L 11.7135,-286.427 L 11.8887,-286.357 L 12.0537,-286.266
 L 12.2061,-286.156 L 12.3434,-286.027 L 12.4635,-285.882 L 12.5645,-285.723 L 12.6447,-285.552 L 12.7029,-285.373
 L 12.7382,-285.188 L 12.75,-285 L 12.7382,-284.812 L 12.7029,-284.627 L 12.6447,-284.448 L 12.5645,-284.277
 L 12.4635,-284.118 L 12.3434,-283.973 L 12.2061,-283.844 L 12.0537,-283.734 L 11.8887,-283.643 L 11.7135,-283.573
 L 11.5311,-283.527 L 11.3442,-283.503 z
M -11.3442,-253.503 L -11.5311,-253.527 L -11.7135,-253.573 L -11.8887,-253.643 L -12.0537,-253.734 L -12.2061,-253.844
 L -12.3434,-253.973 L -12.4635,-254.118 L -12.5645,-254.277 L -12.6447,-254.448 L -12.7029,-254.627 L -12.7382,-254.812
 L -12.75,-255 L -12.7382,-255.188 L -12.7029,-255.373 L -12.6447,-255.552 L -12.5645,-255.723 L -12.4635,-255.882
 L -12.3434,-256.027 L -12.2061,-256.156 L -12.0537,-256.266 L -11.8887,-256.357 L -11.7135,-256.427 L -11.5311,-256.473
 L -11.3442,-256.497 L -11.1558,-256.497 L -10.9689,-256.473 L -10.7865,-256.427 L -10.6113,-256.357 L -10.4463,-256.266
 L -10.2939,-256.156 L -10.1565,-256.027 L -10.0365,-255.882 L -9.93553,-255.723 L -9.85533,-255.552 L -9.79712,-255.373
 L -9.76183,-255.188 L -9.75,-255 L -9.76183,-254.812 L -9.79712,-254.627 L -9.85533,-254.448 L -9.93553,-254.277
 L -10.0365,-254.118 L -10.1565,-253.973 L -10.2939,-253.844 L -10.4463,-253.734 L -10.6113,-253.643 L -10.7865,-253.573
 L -10.9689,-253.527 L -11.1558,-253.503 z
M 14.6869,-193.589 L 15.2951,-193.745 L 15.8789,-193.976 L 16.4291,-194.278 L 16.9371,-194.647 L 17.3948,-195.077
 L 17.7951,-195.561 L 18.1315,-196.091 L 18.3989,-196.659 L 18.5929,-197.257 L 18.7106,-197.873 L 18.75,-198.5
 L 18.75,-233.5 L 18.7106,-234.127 L 18.5929,-234.743 L 18.3989,-235.341 L 18.1315,-235.909 L 17.7951,-236.439
 L 17.3948,-236.923 L 16.9371,-237.353 L 16.4291,-237.722 L 15.8789,-238.024 L 15.2951,-238.255 L 14.6869,-238.411
 L 14.0639,-238.49 L -14.0639,-238.49 L -14.6869,-238.411 L -15.2951,-238.255 L -15.8789,-238.024 L -16.4291,-237.722
 L -16.9371,-237.353 L -17.3948,-236.923 L -17.7951,-236.439 L -18.1315,-235.909 L -18.3989,-235.341 L -18.5929,-234.743
 L -18.7106,-234.127 L -18.75,-233.5 L -18.75,-198.5 L -18.7106,-197.873 L -18.5929,-197.257 L -18.3989,-196.659
 L -18.1315,-196.091 L -17.7951,-195.561 L -17.3948,-195.077 L -16.9371,-194.647 L -16.4291,-194.278 L -15.8789,-193.976
 L -15.2951,-193.745 L -14.6869,-193.589 L -14.0639,-193.51 L 14.0639,-193.51 z
M 11.0993,-228.605 L 10.8003,-228.643 L 10.5083,-228.717 L 10.2281,-228.828 L 9.964,-228.974 L 9.72017,-229.151
 L 9.50047,-229.357 L 9.30835,-229.589 L 9.14685,-229.844 L 9.01852,-230.117 L 8.9254,-230.403 L 8.86891,-230.699
 L 8.84999,-231 L 8.86891,-231.301 L 8.9254,-231.597 L 9.01852,-231.883 L 9.14685,-232.156 L 9.30835,-232.411
 L 9.50047,-232.643 L 9.72017,-232.849 L 9.964,-233.026 L 10.2281,-233.172 L 10.5083,-233.283 L 10.8003,-233.357
 L 11.0993,-233.395 L 11.4007,-233.395 L 11.6997,-233.357 L 11.9916,-233.283 L 12.2719,-233.172 L 12.536,-233.026
 L 12.7798,-232.849 L 12.9995,-232.643 L 13.1916,-232.411 L 13.3531,-232.156 L 13.4815,-231.883 L 13.5746,-231.597
 L 13.6311,-231.301 L 13.65,-231 L 13.6311,-230.699 L 13.5746,-230.403 L 13.4815,-230.117 L 13.3531,-229.844
 L 13.1916,-229.589 L 12.9995,-229.357 L 12.7798,-229.151 L 12.536,-228.974 L 12.2719,-228.828 L 11.9916,-228.717
 L 11.6997,-228.643 L 11.4007,-228.605 z
M -11.3442,-229.503 L -11.5311,-229.527 L -11.7135,-229.573 L -11.8887,-229.643 L -12.0537,-229.734 L -12.2061,-229.844
 L -12.3434,-229.973 L -12.4635,-230.118 L -12.5645,-230.277 L -12.6447,-230.448 L -12.7029,-230.627 L -12.7382,-230.812
 L -12.75,-231 L -12.7382,-231.188 L -12.7029,-231.373 L -12.6447,-231.552 L -12.5645,-231.723 L -12.4635,-231.882
 L -12.3434,-232.027 L -12.2061,-232.156 L -12.0537,-232.266 L -11.8887,-232.357 L -11.7135,-232.427 L -11.5311,-232.473
 L -11.3442,-232.497 L -11.1558,-232.497 L -10.9689,-232.473 L -10.7865,-232.427 L -10.6113,-232.357 L -10.4463,-232.266
 L -10.2939,-232.156 L -10.1565,-232.027 L -10.0365,-231.882 L -9.93553,-231.723 L -9.85533,-231.552 L -9.79712,-231.373
 L -9.76183,-231.188 L -9.75,-231 L -9.76183,-230.812 L -9.79712,-230.627 L -9.85533,-230.448 L -9.93553,-230.277
 L -10.0365,-230.118 L -10.1565,-229.973 L -10.2939,-229.844 L -10.4463,-229.734 L -10.6113,-229.643 L -10.7865,-229.573
 L -10.9689,-229.527 L -11.1558,-229.503 z
M -11.4007,-198.605 L -11.6997,-198.643 L -11.9916,-198.717 L -12.2719,-198.828 L -12.536,-198.974 L -12.7798,-199.151
 L -12.9995,-199.357 L -13.1916,-199.589 L -13.3531,-199.844 L -13.4815,-200.117 L -13.5746,-200.403 L -13.6311,-200.699
 L -13.65,-201 L -13.6311,-201.301 L -13.5746,-201.597 L -13.4815,-201.883 L -13.3531,-202.156 L -13.1916,-202.411
 L -12.9995,-202.643 L -12.7798,-202.849 L -12.536,-203.026 L -12.2719,-203.172 L -11.9916,-203.283 L -11.6997,-203.357
 L -11.4007,-203.395 L -11.0993,-203.395 L -10.8003,-203.357 L -10.5083,-203.283 L -10.2281,-203.172 L -9.964,-203.026
 L -9.72017,-202.849 L -9.50047,-202.643 L -9.30835,-202.411 L -9.14685,-202.156 L -9.01852,-201.883 L -8.9254,-201.597
 L -8.86891,-201.301 L -8.84999,-201 L -8.86891,-200.699 L -8.9254,-200.403 L -9.01852,-200.117 L -9.14685,-199.844
 L -9.30835,-199.589 L -9.50047,-199.357 L -9.72017,-199.151 L -9.964,-198.974 L -10.2281,-198.828 L -10.5083,-198.717
 L -10.8003,-198.643 L -11.0993,-198.605 z
M 11.1558,-199.503 L 10.9689,-199.527 L 10.7865,-199.573 L 10.6113,-199.643 L 10.4463,-199.734 L 10.2939,-199.844
 L 10.1565,-199.973 L 10.0365,-200.118 L 9.93553,-200.277 L 9.85533,-200.448 L 9.79712,-200.627 L 9.76183,-200.812
 L 9.75,-201 L 9.76183,-201.188 L 9.79712,-201.373 L 9.85533,-201.552 L 9.93553,-201.723 L 10.0365,-201.882
 L 10.1565,-202.027 L 10.2939,-202.156 L 10.4463,-202.266 L 10.6113,-202.357 L 10.7865,-202.427 L 10.9689,-202.473
 L 11.1558,-202.497 L 11.3442,-202.497 L 11.5311,-202.473 L 11.7135,-202.427 L 11.8887,-202.357 L 12.0537,-202.266
 L 12.2061,-202.156 L 12.3434,-202.027 L 12.4635,-201.882 L 12.5645,-201.723 L 12.6447,-201.552 L 12.7029,-201.373
 L 12.7382,-201.188 L 12.75,-201 L 12.7382,-200.812 L 12.7029,-200.627 L 12.6447,-200.448 L 12.5645,-200.277
 L 12.4635,-200.118 L 12.3434,-199.973 L 12.2061,-199.844 L 12.0537,-199.734 L 11.8887,-199.643 L 11.7135,-199.573
 L 11.5311,-199.527 L 11.3442,-199.503 z
" stroke="black" fill="lightgray" stroke-width="0.5"/>
</svg>
