<?xml version="1.0" standalone="no"?>
<!DOCTYPE svg PUBLIC "-//W3C//DTD SVG 1.1//EN" "http://www.w3.org/Graphics/SVG/1.1/DTD/svg11.dtd">
<svg width="16mm" height="147mm" viewBox="-9 -288 16 147" xmlns="http://www.w3.org/2000/svg" version="1.1">
<title>OpenSCAD Model</title>
<path d="
M -6,-260.507 L -5.64484,-260.077 L -5.18712,-259.647 L -4.67912,-259.278 L -4.12889,-258.976 L -3.54507,-258.745
 L -2.9369,-258.589 L -2.31395,-258.51 L 2.31395,-258.51 L 2.9369,-258.589 L 3.54507,-258.745 L 4.12889,-258.976
 L 4.67912,-259.278 L 5.18712,-259.647 L 5.64484,-260.077 L 6.04507,-260.561 L 6.38153,-261.091 L 6.64888,-261.659
 L 6.84291,-262.257 L 6.96057,-262.873 L 7,-263.5 L 7,-282.5 L 6.96057,-283.127 L 6.84291,-283.743
 L 6.64888,-284.341 L 6.38153,-284.909 L 6.04507,-285.439 L 5.64484,-285.923 L 5.18712,-286.353 L 4.67912,-286.722
 L 4.12889,-287.024 L 3.54507,-287.255 L 2.9369,-287.411 L 2.31395,-287.49 L -2.31395,-287.49 L -2.9369,-287.411
 L -3.54507,-287.255 L -4.12889,-287.024 L -4.67912,-286.722 L -5.18712,-286.353 L -5.64484,-285.923 L -6,-285.493
 L -6,-287.99 L -9,-287.99 L -9,-258.01 L -6,-258.01 z
M -2.25116,-259.508 L -2.74951,-259.571 L -3.23605,-259.696 L -3.70311,-259.881 L -4.1433,-260.123 L -4.54968,-260.418
 L -4.91586,-260.762 L -5.23605,-261.149 L -5.50522,-261.573 L -5.7191,-262.028 L -5.87433,-262.505 L -5.96844,-262.999
 L -6,-263.5 L -6,-282.5 L -5.96844,-283.001 L -5.87433,-283.495 L -5.7191,-283.972 L -5.50522,-284.427
 L -5.23605,-284.851 L -4.91586,-285.238 L -4.54968,-285.582 L -4.1433,-285.877 L -3.70311,-286.119 L -3.23605,-286.304
 L -2.74951,-286.429 L -2.25116,-286.492 L 2.25116,-286.492 L 2.74951,-286.429 L 3.23605,-286.304 L 3.70311,-286.119
 L 4.1433,-285.877 L 4.54968,-285.582 L 4.91586,-285.238 L 5.23605,-284.851 L 5.50522,-284.427 L 5.7191,-283.972
 L 5.87433,-283.495 L 5.96844,-283.001 L 6,-282.5 L 6,-263.5 L 5.96844,-262.999 L 5.87433,-262.505
 L 5.7191,-262.028 L 5.50522,-261.573 L 5.23605,-261.149 L 4.91586,-260.762 L 4.54968,-260.418 L 4.1433,-260.123
 L 3.70311,-259.881 L 3.23605,-259.696 L 2.74951,-259.571 L 2.25116,-259.508 z
M -6,-221.507 L -5.64484,-221.077 L -5.18712,-220.647 L -4.67912,-220.278 L -4.12889,-219.976 L -3.54507,-219.745
 L -2.9369,-219.589 L -2.31395,-219.51 L 2.31395,-219.51 L 2.9369,-219.589 L 3.54507,-219.745 L 4.12889,-219.976
 L 4.67912,-220.278 L 5.18712,-220.647 L 5.64484,-221.077 L 6.04507,-221.561 L 6.38153,-222.091 L 6.64888,-222.659
 L 6.84291,-223.257 L 6.96057,-223.873 L 7,-224.5 L 7,-243.5 L 6.96057,-244.127 L 6.84291,-244.743
 L 6.64888,-245.341 L 6.38153,-245.909 L 6.04507,-246.439 L 5.64484,-246.923 L 5.18712,-247.353 L 4.67912,-247.722
 L 4.12889,-248.024 L 3.54507,-248.255 L 2.9369,-248.411 L 2.31395,-248.49 L -2.31395,-248.49 L -2.9369,-248.411
 L -3.54507,-248.255 L -4.12889,-248.024 L -4.67912,-247.722 L -5.18712,-247.353 L -5.64484,-246.923 L -6,-246.493
 L -6,-248.99 L -9,-248.99 L -9,-219.01 L -6,-219.01 z
M -2.25116,-220.508 L -2.74951,-220.571 L -3.23605,-220.696 L -3.70311,-220.881 L -4.1433,-221.123 L -4.54968,-221.418
 L -4.91586,-221.762 L -5.23605,-222.149 L -5.50522,-222.573 L -5.7191,-223.028 L -5.87433,-223.505 L -5.96844,-223.999
 L -6,-224.5 L -6,-243.5 L -5.96844,-244.001 L -5.87433,-244.495 L -5.7191,-244.972 L -5.50522,-245.427
 L -5.23605,-245.851 L -4.91586,-246.238 L -4.54968,-246.582 L -4.1433,-246.877 L -3.70311,-247.119 L -3.23605,-247.304
 L -2.74951,-247.429 L -2.25116,-247.492 L 2.25116,-247.492 L 2.74951,-247.429 L 3.23605,-247.304 L 3.70311,-247.119
 L 4.1433,-246.877 L 4.54968,-246.582 L 4.91586,-246.238 L 5.23605,-245.851 L 5.50522,-245.427 L 5.7191,-244.972
 L 5.87433,-244.495 L 5.96844,-244.001 L 6,-243.5 L 6,-224.5 L 5.96844,-223.999 L 5.87433,-223.505
 L 5.7191,-223.028 L 5.50522,-222.573 L 5.23605,-222.149 L 4.91586,-221.762 L 4.54968,-221.418 L 4.1433,-221.123
 L 3.70311,-220.881 L 3.23605,-220.696 L 2.74951,-220.571 L 2.25116,-220.508 z
M -6,-182.507 L -5.64484,-182.077 L -5.18712,-181.647 L -4.67912,-181.278 L -4.12889,-180.976 L -3.54507,-180.745
 L -2.9369,-180.589 L -2.31395,-180.51 L 2.31395,-180.51 L 2.9369,-180.589 L 3.54507,-180.745 L 4.12889,-180.976
 L 4.67912,-181.278 L 5.18712,-181.647 L 5.64484,-182.077 L 6.04507,-182.561 L 6.38153,-183.091 L 6.64888,-183.659
 L 6.84291,-184.257 L 6.96057,-184.873 L 7,-185.5 L 7,-204.5 L 6.96057,-205.127 L 6.84291,-205.743
 L 6.64888,-206.341 L 6.38153,-206.909 L 6.04507,-207.439 L 5.64484,-207.923 L 5.18712,-208.353 L 4.67912,-208.722
 L 4.12889,-209.024 L 3.54507,-209.255 L 2.9369,-209.411 L 2.31395,-209.49 L -2.31395,-209.49 L -2.9369,-209.411
 L -3.54507,-209.255 L -4.12889,-209.024 L -4.67912,-208.722 L -5.18712,-208.353 L -5.64484,-207.923 L -6,-207.493
 L -6,-209.979 L -9,-209.979 L -9,-180.021 L -6,-180.021 z
M -2.19545,-182.393 L -2.5833,-182.442 L -2.96194,-182.539 L -3.32541,-182.683 L -3.66798,-182.872 L -3.98424,-183.101
 L -4.26921,-183.369 L -4.5184,-183.67 L -4.72786,-184 L -4.89432,-184.354 L -5.01512,-184.726 L -5.08836,-185.11
 L -5.11292,-185.5 L -5.11292,-204.5 L -5.08836,-204.89 L -5.01512,-205.274 L -4.89432,-205.646 L -4.72786,-206
 L -4.5184,-206.33 L -4.26921,-206.631 L -3.98424,-206.899 L -3.66798,-207.128 L -3.32541,-207.317 L -2.96194,-207.461
 L -2.5833,-207.558 L -2.19545,-207.607 L 2.19545,-207.607 L 2.5833,-207.558 L 2.96194,-207.461 L 3.32541,-207.317
 L 3.66798,-207.128 L 3.98424,-206.899 L 4.26921,-206.631 L 4.5184,-206.33 L 4.72786,-206 L 4.89432,-205.646
 L 5.01512,-205.274 L 5.08836,-204.89 L 5.11292,-204.5 L 5.11292,-185.5 L 5.08836,-185.11 L 5.01512,-184.726
 L 4.89432,-184.354 L 4.72786,-184 L 4.5184,-183.67 L 4.26921,-183.369 L 3.98424,-183.101 L 3.66798,-182.872
 L 3.32541,-182.683 L 2.96194,-182.539 L 2.5833,-182.442 L 2.19545,-182.393 z
M 2.9369,-141.589 L 3.54507,-141.745 L 4.12889,-141.976 L 4.67912,-142.278 L 5.18712,-142.647 L 5.64484,-143.077
 L 6.04507,-143.561 L 6.38153,-144.091 L 6.64888,-144.659 L 6.84291,-145.257 L 6.96057,-145.873 L 7,-146.5
 L 7,-165.5 L 6.96057,-166.127 L 6.84291,-166.743 L 6.64888,-167.341 L 6.38153,-167.909 L 6.04507,-168.439
 L 5.64484,-168.923 L 5.18712,-169.353 L 4.67912,-169.722 L 4.12889,-170.024 L 3.54507,-170.255 L 2.9369,-170.411
 L 2.31395,-170.49 L -2.31395,-170.49 L -2.9369,-170.411 L -3.54507,-170.255 L -4.12889,-170.024 L -4.67912,-169.722
 L -5.18712,-169.353 L -5.64484,-168.923 L -6,-168.493 L -6,-169.653 L -9,-169.653 L -9,-142.347
 L -6,-142.347 L -6,-143.507 L -5.64484,-143.077 L -5.18712,-142.647 L -4.67912,-142.278 L -4.12889,-141.976
 L -3.54507,-141.745 L -2.9369,-141.589 L -2.31395,-141.51 L 2.31395,-141.51 z
M -0.150696,-161.105 L -0.449707,-161.143 L -0.741638,-161.217 L -1.02187,-161.328 L -1.28598,-161.474 L -1.52982,-161.651
 L -1.74951,-161.857 L -1.94164,-162.089 L -2.10313,-162.344 L -2.23146,-162.617 L -2.32458,-162.903 L -2.38107,-163.199
 L -2.39999,-163.5 L -2.38107,-163.801 L -2.32458,-164.097 L -2.23146,-164.383 L -2.10313,-164.656 L -1.94164,-164.911
 L -1.74951,-165.143 L -1.52982,-165.349 L -1.28598,-165.526 L -1.02187,-165.672 L -0.741638,-165.783 L -0.449707,-165.857
 L -0.150696,-165.895 L 0.150696,-165.895 L 0.449707,-165.857 L 0.741638,-165.783 L 1.02187,-165.672 L 1.28598,-165.526
 L 1.52982,-165.349 L 1.74951,-165.143 L 1.94164,-164.911 L 2.10313,-164.656 L 2.23146,-164.383 L 2.32458,-164.097
 L 2.38107,-163.801 L 2.39999,-163.5 L 2.38107,-163.199 L 2.32458,-162.903 L 2.23146,-162.617 L 2.10313,-162.344
 L 1.94164,-162.089 L 1.74951,-161.857 L 1.52982,-161.651 L 1.28598,-161.474 L 1.02187,-161.328 L 0.741638,-161.217
 L 0.449707,-161.143 L 0.150696,-161.105 z
M -0.150696,-146.105 L -0.449707,-146.143 L -0.741638,-146.217 L -1.02187,-146.328 L -1.28598,-146.474 L -1.52982,-146.651
 L -1.74951,-146.857 L -1.94164,-147.089 L -2.10313,-147.344 L -2.23146,-147.617 L -2.32458,-147.903 L -2.38107,-148.199
 L -2.39999,-148.5 L -2.38107,-148.801 L -2.32458,-149.097 L -2.23146,-149.383 L -2.10313,-149.656 L -1.94164,-149.911
 L -1.74951,-150.143 L -1.52982,-150.349 L -1.28598,-150.526 L -1.02187,-150.672 L -0.741638,-150.783 L -0.449707,-150.857
 L -0.150696,-150.895 L 0.150696,-150.895 L 0.449707,-150.857 L 0.741638,-150.783 L 1.02187,-150.672 L 1.28598,-150.526
 L 1.52982,-150.349 L 1.74951,-150.143 L 1.94164,-149.911 L 2.10313,-149.656 L 2.23146,-149.383 L 2.32458,-149.097
 L 2.38107,-148.801 L 2.39999,-148.5 L 2.38107,-148.199 L 2.32458,-147.903 L 2.23146,-147.617 L 2.10313,-147.344
 L 1.94164,-147.089 L 1.74951,-146.857 L 1.52982,-146.651 L 1.28598,-146.474 L 1.02187,-146.328 L 0.741638,-146.217
 L 0.449707,-146.143 L 0.150696,-146.105 z
" stroke="black" fill="lightgray" stroke-width="0.5"/>
</svg>
