<?xml version="1.0" standalone="no"?>
<!DOCTYPE svg PUBLIC "-//W3C//DTD SVG 1.1//EN" "http://www.w3.org/Graphics/SVG/1.1/DTD/svg11.dtd">
<svg width="44mm" height="351mm" viewBox="-22 -351 44 351" xmlns="http://www.w3.org/2000/svg" version="1.1">
<title>OpenSCAD Model</title>
<path d="
M 22,-345.5 L 21.9606,-346.127 L 21.8429,-346.743 L 21.6489,-347.341 L 21.3815,-347.909 L 21.0451,-348.439
 L 20.6448,-348.923 L 20.1871,-349.353 L 19.6791,-349.722 L 19.1289,-350.024 L 18.5451,-350.255 L 17.9369,-350.411
 L 17.3139,-350.49 L -17.3139,-350.49 L -17.9369,-350.411 L -18.5451,-350.255 L -19.1289,-350.024 L -19.6791,-349.722
 L -20.1871,-349.353 L -20.6448,-348.923 L -21.0451,-348.439 L -21.3815,-347.909 L -21.6489,-347.341 L -21.8429,-346.743
 L -21.9606,-346.127 L -22,-345.5 L -22,-330 L 22,-330 z
M 13,-347.75 L 13,-349.25 L 17,-349.25 L 17,-347.75 z
M -17,-347.75 L -17,-349.25 L -13,-349.25 L -13,-347.75 z
M -2,-347.75 L -2,-349.25 L 2,-349.25 L 2,-347.75 z
M -2,-340.75 L -2,-342.25 L 2,-342.25 L 2,-340.75 z
M -17,-340.75 L -17,-342.25 L -13,-342.25 L -13,-340.75 z
M 13,-340.75 L 13,-342.25 L 17,-342.25 L 17,-340.75 z
M -5.34662,-333.6 L -5.34662,-339 L 5.34662,-339 L 5.34662,-333.6 z
M 9.65337,-333.6 L 9.65337,-339 L 20.3466,-339 L 20.3466,-333.6 z
M -20.3466,-333.6 L -20.3466,-339 L -9.65337,-339 L -9.65337,-333.6 z
M -17.5307,-223.6 L -20.3466,-223.6 L -20.3466,-229 L -9.65337,-229 L -9.65337,-223.6 L -12.4693,-223.6
 L -12.4693,-220 L -2.53072,-220 L -2.53072,-223.6 L -5.34662,-223.6 L -5.34662,-229 L 5.34662,-229
 L 5.34662,-223.6 L 2.53072,-223.6 L 2.53072,-220 L 12.4693,-220 L 12.4693,-223.6 L 9.65337,-223.6
 L 9.65337,-229 L 20.3466,-229 L 20.3466,-223.6 L 17.5307,-223.6 L 17.5307,-220 L 22,-220
 L 22,-235.5 L 21.9606,-236.127 L 21.8429,-236.743 L 21.6489,-237.341 L 21.3815,-237.909 L 21.0451,-238.439
 L 20.6448,-238.923 L 20.1871,-239.353 L 19.6791,-239.722 L 19.1289,-240.024 L 18.5451,-240.255 L 17.9369,-240.411
 L 17.3139,-240.49 L -17.3139,-240.49 L -17.9369,-240.411 L -18.5451,-240.255 L -19.1289,-240.024 L -19.6791,-239.722
 L -20.1871,-239.353 L -20.6448,-238.923 L -21.0451,-238.439 L -21.3815,-237.909 L -21.6489,-237.341 L -21.8429,-236.743
 L -21.9606,-236.127 L -22,-235.5 L -22,-220 L -17.5307,-220 z
M -2,-237.75 L -2,-239.25 L 2,-239.25 L 2,-237.75 z
M -17,-237.75 L -17,-239.25 L -13,-239.25 L -13,-237.75 z
M 13,-237.75 L 13,-239.25 L 17,-239.25 L 17,-237.75 z
M 13,-230.75 L 13,-232.25 L 17,-232.25 L 17,-230.75 z
M -2,-230.75 L -2,-232.25 L 2,-232.25 L 2,-230.75 z
M -17,-230.75 L -17,-232.25 L -13,-232.25 L -13,-230.75 z
M -17.5942,-113.6 L -20.3466,-113.6 L -20.3466,-119 L -9.65337,-119 L -9.65337,-113.6 L -12.4058,-113.6
 L -12.4058,-110 L -2.59418,-110 L -2.59418,-113.6 L -5.34662,-113.6 L -5.34662,-119 L 5.34662,-119
 L 5.34662,-113.6 L 2.59418,-113.6 L 2.59418,-110 L 12.4058,-110 L 12.4058,-113.6 L 9.65337,-113.6
 L 9.65337,-119 L 20.3466,-119 L 20.3466,-113.6 L 17.5942,-113.6 L 17.5942,-110 L 22,-110
 L 22,-125.5 L 21.9606,-126.127 L 21.8429,-126.743 L 21.6489,-127.341 L 21.3815,-127.909 L 21.0451,-128.439
 L 20.6448,-128.923 L 20.1871,-129.353 L 19.6791,-129.722 L 19.1289,-130.024 L 18.5451,-130.255 L 17.9369,-130.411
 L 17.3139,-130.49 L -17.3139,-130.49 L -17.9369,-130.411 L -18.5451,-130.255 L -19.1289,-130.024 L -19.6791,-129.722
 L -20.1871,-129.353 L -20.6448,-128.923 L -21.0451,-128.439 L -21.3815,-127.909 L -21.6489,-127.341 L -21.8429,-126.743
 L -21.9606,-126.127 L -22,-125.5 L -22,-110 L -17.5942,-110 z
M -2,-127.75 L -2,-129.25 L 2,-129.25 L 2,-127.75 z
M 13,-127.75 L 13,-129.25 L 17,-129.25 L 17,-127.75 z
M -17,-127.75 L -17,-129.25 L -13,-129.25 L -13,-127.75 z
M -17,-120.75 L -17,-122.25 L -13,-122.25 L -13,-120.75 z
M 13,-120.75 L 13,-122.25 L 17,-122.25 L 17,-120.75 z
M -2,-120.75 L -2,-122.25 L 2,-122.25 L 2,-120.75 z
M 22,-15.5 L 21.9606,-16.1267 L 21.8429,-16.7434 L 21.6489,-17.3406 L 21.3815,-17.9088 L 21.0451,-18.4389
 L 20.6448,-18.9227 L 20.1871,-19.3526 L 19.6791,-19.7216 L 19.1289,-20.0241 L 18.5451,-20.2553 L 17.9369,-20.4114
 L 17.3139,-20.4901 L -17.3139,-20.4901 L -17.9369,-20.4114 L -18.5451,-20.2553 L -19.1289,-20.0241 L -19.6791,-19.7216
 L -20.1871,-19.3526 L -20.6448,-18.9227 L -21.0451,-18.4389 L -21.3815,-17.9088 L -21.6489,-17.3406 L -21.8429,-16.7434
 L -21.9606,-16.1267 L -22,-15.5 L -22,-0 L 22,-0 z
M -2,-17.75 L -2,-19.25 L 2,-19.25 L 2,-17.75 z
M -17,-17.75 L -17,-19.25 L -13,-19.25 L -13,-17.75 z
M 13,-17.75 L 13,-19.25 L 17,-19.25 L 17,-17.75 z
M -2,-10.75 L -2,-12.25 L 2,-12.25 L 2,-10.75 z
M -17,-10.75 L -17,-12.25 L -13,-12.25 L -13,-10.75 z
M 13,-10.75 L 13,-12.25 L 17,-12.25 L 17,-10.75 z
M -5.34662,-3.59999 L -5.34662,-9 L 5.34662,-9 L 5.34662,-3.59999 z
M -20.3466,-3.59999 L -20.3466,-9 L -9.65337,-9 L -9.65337,-3.59999 z
M 9.65337,-3.59999 L 9.65337,-9 L 20.3466,-9 L 20.3466,-3.59999 z
" stroke="black" fill="lightgray" stroke-width="0.5"/>
</svg>
