<?xml version="1.0" standalone="no"?>
<!DOCTYPE svg PUBLIC "-//W3C//DTD SVG 1.1//EN" "http://www.w3.org/Graphics/SVG/1.1/DTD/svg11.dtd">
<svg width="44mm" height="21mm" viewBox="-22 -21 44 21" xmlns="http://www.w3.org/2000/svg" version="1.1">
<title>OpenSCAD Model</title>
<path d="
M -17.5307,-2.82999 L -19.6794,-2.82999 L -19.6794,-9 L -10.3206,-9 L -10.3206,-2.82999 L -12.4693,-2.82999
 L -12.4693,-0 L -2.53072,-0 L -2.53072,-2.82999 L -4.67937,-2.82999 L -4.67937,-9 L 4.67937,-9
 L 4.67937,-2.82999 L 2.53072,-2.82999 L 2.53072,-0 L 12.4693,-0 L 12.4693,-2.82999 L 10.3206,-2.82999
 L 10.3206,-9 L 19.6794,-9 L 19.6794,-2.82999 L 17.5307,-2.82999 L 17.5307,-0 L 22,-0
 L 22,-15.5 L 21.9606,-16.1267 L 21.8429,-16.7434 L 21.6489,-17.3406 L 21.3815,-17.9088 L 21.0451,-18.4389
 L 20.6448,-18.9227 L 20.1871,-19.3526 L 19.6791,-19.7216 L 19.1289,-20.0241 L 18.5451,-20.2553 L 17.9369,-20.4114
 L 17.3139,-20.4901 L -17.3139,-20.4901 L -17.9369,-20.4114 L -18.5451,-20.2553 L -19.1289,-20.0241 L -19.6791,-19.7216
 L -20.1871,-19.3526 L -20.6448,-18.9227 L -21.0451,-18.4389 L -21.3815,-17.9088 L -21.6489,-17.3406 L -21.8429,-16.7434
 L -21.9606,-16.1267 L -22,-15.5 L -22,-0 L -17.5307,-0 z
M 13,-17.75 L 13,-19.25 L 17,-19.25 L 17,-17.75 z
M -2,-17.75 L -2,-19.25 L 2,-19.25 L 2,-17.75 z
M -17,-17.75 L -17,-19.25 L -13,-19.25 L -13,-17.75 z
M -2,-10.75 L -2,-12.25 L 2,-12.25 L 2,-10.75 z
M -17,-10.75 L -17,-12.25 L -13,-12.25 L -13,-10.75 z
M 13,-10.75 L 13,-12.25 L 17,-12.25 L 17,-10.75 z
" stroke="black" fill="lightgray" stroke-width="0.5"/>
</svg>
