<?xml version="1.0" standalone="no"?>
<!DOCTYPE svg PUBLIC "-//W3C//DTD SVG 1.1//EN" "http://www.w3.org/Graphics/SVG/1.1/DTD/svg11.dtd">
<svg width="16mm" height="262mm" viewBox="-8 -509 16 262" xmlns="http://www.w3.org/2000/svg" version="1.1">
<title>OpenSCAD Model</title>
<path d="
M 3.4369,-463.589 L 4.04507,-463.745 L 4.62889,-463.976 L 5.17912,-464.278 L 5.68712,-464.647 L 6.14484,-465.077
 L 6.54507,-465.561 L 6.88153,-466.091 L 7.14888,-466.659 L 7.34291,-467.257 L 7.46057,-467.873 L 7.5,-468.5
 L 7.5,-503.5 L 7.46057,-504.127 L 7.34291,-504.743 L 7.14888,-505.341 L 6.88153,-505.909 L 6.54507,-506.439
 L 6.14484,-506.923 L 5.68712,-507.353 L 5.17912,-507.722 L 4.62889,-508.024 L 4.04507,-508.255 L 3.4369,-508.411
 L 2.81395,-508.49 L -2.81395,-508.49 L -3.4369,-508.411 L -4.04507,-508.255 L -4.62889,-508.024 L -5.17912,-507.722
 L -5.68712,-507.353 L -6.14484,-506.923 L -6.54507,-506.439 L -6.88153,-505.909 L -7.14888,-505.341 L -7.34291,-504.743
 L -7.46057,-504.127 L -7.5,-503.5 L -7.5,-468.5 L -7.46057,-467.873 L -7.34291,-467.257 L -7.14888,-466.659
 L -6.88153,-466.091 L -6.54507,-465.561 L -6.14484,-465.077 L -5.68712,-464.647 L -5.17912,-464.278 L -4.62889,-463.976
 L -4.04507,-463.745 L -3.4369,-463.589 L -2.81395,-463.51 L 2.81395,-463.51 z
M -2.54825,-464.009 L -3.14006,-464.084 L -3.71782,-464.232 L -4.27245,-464.452 L -4.79517,-464.739 L -5.27776,-465.09
 L -5.7126,-465.498 L -6.09282,-465.958 L -6.41245,-466.462 L -6.66643,-467.001 L -6.85077,-467.569 L -6.96254,-468.155
 L -7,-468.75 L -7,-503.25 L -6.96254,-503.845 L -6.85077,-504.431 L -6.66643,-504.999 L -6.41245,-505.538
 L -6.09282,-506.042 L -5.7126,-506.502 L -5.27776,-506.91 L -4.79517,-507.261 L -4.27245,-507.548 L -3.71782,-507.768
 L -3.14006,-507.916 L -2.54825,-507.991 L 2.54825,-507.991 L 3.14006,-507.916 L 3.71782,-507.768 L 4.27245,-507.548
 L 4.79517,-507.261 L 5.27776,-506.91 L 5.7126,-506.502 L 6.09282,-506.042 L 6.41245,-505.538 L 6.66643,-504.999
 L 6.85077,-504.431 L 6.96254,-503.845 L 7,-503.25 L 7,-468.75 L 6.96254,-468.155 L 6.85077,-467.569
 L 6.66643,-467.001 L 6.41245,-466.462 L 6.09282,-465.958 L 5.7126,-465.498 L 5.27776,-465.09 L 4.79517,-464.739
 L 4.27245,-464.452 L 3.71782,-464.232 L 3.14006,-464.084 L 2.54825,-464.009 z
M 3.4369,-409.589 L 4.04507,-409.745 L 4.62889,-409.976 L 5.17912,-410.278 L 5.68712,-410.647 L 6.14484,-411.077
 L 6.54507,-411.561 L 6.88153,-412.091 L 7.14888,-412.659 L 7.34291,-413.257 L 7.46057,-413.873 L 7.5,-414.5
 L 7.5,-449.5 L 7.46057,-450.127 L 7.34291,-450.743 L 7.14888,-451.341 L 6.88153,-451.909 L 6.54507,-452.439
 L 6.14484,-452.923 L 5.68712,-453.353 L 5.17912,-453.722 L 4.62889,-454.024 L 4.04507,-454.255 L 3.4369,-454.411
 L 2.81395,-454.49 L -2.81395,-454.49 L -3.4369,-454.411 L -4.04507,-454.255 L -4.62889,-454.024 L -5.17912,-453.722
 L -5.68712,-453.353 L -6.14484,-452.923 L -6.54507,-452.439 L -6.88153,-451.909 L -7.14888,-451.341 L -7.34291,-450.743
 L -7.46057,-450.127 L -7.5,-449.5 L -7.5,-414.5 L -7.46057,-413.873 L -7.34291,-413.257 L -7.14888,-412.659
 L -6.88153,-412.091 L -6.54507,-411.561 L -6.14484,-411.077 L -5.68712,-410.647 L -5.17912,-410.278 L -4.62889,-409.976
 L -4.04507,-409.745 L -3.4369,-409.589 L -2.81395,-409.51 L 2.81395,-409.51 z
M -2.54825,-410.009 L -3.14006,-410.084 L -3.71782,-410.232 L -4.27245,-410.452 L -4.79517,-410.739 L -5.27776,-411.09
 L -5.7126,-411.498 L -6.09282,-411.958 L -6.41245,-412.462 L -6.66643,-413.001 L -6.85077,-413.569 L -6.96254,-414.155
 L -7,-414.75 L -7,-449.25 L -6.96254,-449.845 L -6.85077,-450.431 L -6.66643,-450.999 L -6.41245,-451.538
 L -6.09282,-452.042 L -5.7126,-452.502 L -5.27776,-452.91 L -4.79517,-453.261 L -4.27245,-453.548 L -3.71782,-453.768
 L -3.14006,-453.916 L -2.54825,-453.991 L 2.54825,-453.991 L 3.14006,-453.916 L 3.71782,-453.768 L 4.27245,-453.548
 L 4.79517,-453.261 L 5.27776,-452.91 L 5.7126,-452.502 L 6.09282,-452.042 L 6.41245,-451.538 L 6.66643,-450.999
 L 6.85077,-450.431 L 6.96254,-449.845 L 7,-449.25 L 7,-414.75 L 6.96254,-414.155 L 6.85077,-413.569
 L 6.66643,-413.001 L 6.41245,-412.462 L 6.09282,-411.958 L 5.7126,-411.498 L 5.27776,-411.09 L 4.79517,-410.739
 L 4.27245,-410.452 L 3.71782,-410.232 L 3.14006,-410.084 L 2.54825,-410.009 z
M 3.4369,-355.589 L 4.04507,-355.745 L 4.62889,-355.976 L 5.17912,-356.278 L 5.68712,-356.647 L 6.14484,-357.077
 L 6.54507,-357.561 L 6.88153,-358.091 L 7.14888,-358.659 L 7.34291,-359.257 L 7.46057,-359.873 L 7.5,-360.5
 L 7.5,-395.5 L 7.46057,-396.127 L 7.34291,-396.743 L 7.14888,-397.341 L 6.88153,-397.909 L 6.54507,-398.439
 L 6.14484,-398.923 L 5.68712,-399.353 L 5.17912,-399.722 L 4.62889,-400.024 L 4.04507,-400.255 L 3.4369,-400.411
 L 2.81395,-400.49 L -2.81395,-400.49 L -3.4369,-400.411 L -4.04507,-400.255 L -4.62889,-400.024 L -5.17912,-399.722
 L -5.68712,-399.353 L -6.14484,-398.923 L -6.54507,-398.439 L -6.88153,-397.909 L -7.14888,-397.341 L -7.34291,-396.743
 L -7.46057,-396.127 L -7.5,-395.5 L -7.5,-360.5 L -7.46057,-359.873 L -7.34291,-359.257 L -7.14888,-358.659
 L -6.88153,-358.091 L -6.54507,-357.561 L -6.14484,-357.077 L -5.68712,-356.647 L -5.17912,-356.278 L -4.62889,-355.976
 L -4.04507,-355.745 L -3.4369,-355.589 L -2.81395,-355.51 L 2.81395,-355.51 z
M -2.54825,-356.009 L -3.14006,-356.084 L -3.71782,-356.232 L -4.27245,-356.452 L -4.79517,-356.739 L -5.27776,-357.09
 L -5.7126,-357.498 L -6.09282,-357.958 L -6.41245,-358.462 L -6.66643,-359.001 L -6.85077,-359.569 L -6.96254,-360.155
 L -7,-360.75 L -7,-395.25 L -6.96254,-395.845 L -6.85077,-396.431 L -6.66643,-396.999 L -6.41245,-397.538
 L -6.09282,-398.042 L -5.7126,-398.502 L -5.27776,-398.91 L -4.79517,-399.261 L -4.27245,-399.548 L -3.71782,-399.768
 L -3.14006,-399.916 L -2.54825,-399.991 L 2.54825,-399.991 L 3.14006,-399.916 L 3.71782,-399.768 L 4.27245,-399.548
 L 4.79517,-399.261 L 5.27776,-398.91 L 5.7126,-398.502 L 6.09282,-398.042 L 6.41245,-397.538 L 6.66643,-396.999
 L 6.85077,-396.431 L 6.96254,-395.845 L 7,-395.25 L 7,-360.75 L 6.96254,-360.155 L 6.85077,-359.569
 L 6.66643,-359.001 L 6.41245,-358.462 L 6.09282,-357.958 L 5.7126,-357.498 L 5.27776,-357.09 L 4.79517,-356.739
 L 4.27245,-356.452 L 3.71782,-356.232 L 3.14006,-356.084 L 2.54825,-356.009 z
M 3.4369,-301.589 L 4.04507,-301.745 L 4.62889,-301.976 L 5.17912,-302.278 L 5.68712,-302.647 L 6.14484,-303.077
 L 6.54507,-303.561 L 6.88153,-304.091 L 7.14888,-304.659 L 7.34291,-305.257 L 7.46057,-305.873 L 7.5,-306.5
 L 7.5,-341.5 L 7.46057,-342.127 L 7.34291,-342.743 L 7.14888,-343.341 L 6.88153,-343.909 L 6.54507,-344.439
 L 6.14484,-344.923 L 5.68712,-345.353 L 5.17912,-345.722 L 4.62889,-346.024 L 4.04507,-346.255 L 3.4369,-346.411
 L 2.81395,-346.49 L -2.81395,-346.49 L -3.4369,-346.411 L -4.04507,-346.255 L -4.62889,-346.024 L -5.17912,-345.722
 L -5.68712,-345.353 L -6.14484,-344.923 L -6.54507,-344.439 L -6.88153,-343.909 L -7.14888,-343.341 L -7.34291,-342.743
 L -7.46057,-342.127 L -7.5,-341.5 L -7.5,-306.5 L -7.46057,-305.873 L -7.34291,-305.257 L -7.14888,-304.659
 L -6.88153,-304.091 L -6.54507,-303.561 L -6.14484,-303.077 L -5.68712,-302.647 L -5.17912,-302.278 L -4.62889,-301.976
 L -4.04507,-301.745 L -3.4369,-301.589 L -2.81395,-301.51 L 2.81395,-301.51 z
M -2.53748,-302.181 L -3.10791,-302.253 L -3.66481,-302.396 L -4.1994,-302.607 L -4.70325,-302.884 L -5.1684,-303.222
 L -5.58754,-303.616 L -5.95403,-304.059 L -6.26212,-304.544 L -6.50691,-305.065 L -6.68459,-305.611 L -6.79233,-306.176
 L -6.82843,-306.75 L -6.82843,-341.25 L -6.79233,-341.824 L -6.68459,-342.389 L -6.50691,-342.935 L -6.26212,-343.456
 L -5.95403,-343.941 L -5.58754,-344.384 L -5.1684,-344.778 L -4.70325,-345.116 L -4.1994,-345.393 L -3.66481,-345.604
 L -3.10791,-345.747 L -2.53748,-345.819 L 2.53748,-345.819 L 3.10791,-345.747 L 3.66481,-345.604 L 4.1994,-345.393
 L 4.70325,-345.116 L 5.1684,-344.778 L 5.58754,-344.384 L 5.95403,-343.941 L 6.26212,-343.456 L 6.50691,-342.935
 L 6.68459,-342.389 L 6.79233,-341.824 L 6.82843,-341.25 L 6.82843,-306.75 L 6.79233,-306.176 L 6.68459,-305.611
 L 6.50691,-305.065 L 6.26212,-304.544 L 5.95403,-304.059 L 5.58754,-303.616 L 5.1684,-303.222 L 4.70325,-302.884
 L 4.1994,-302.607 L 3.66481,-302.396 L 3.10791,-302.253 L 2.53748,-302.181 z
M 3.4369,-247.589 L 4.04507,-247.745 L 4.62889,-247.976 L 5.17912,-248.278 L 5.68712,-248.647 L 6.14484,-249.077
 L 6.54507,-249.561 L 6.88153,-250.091 L 7.14888,-250.659 L 7.34291,-251.257 L 7.46057,-251.873 L 7.5,-252.5
 L 7.5,-287.5 L 7.46057,-288.127 L 7.34291,-288.743 L 7.14888,-289.341 L 6.88153,-289.909 L 6.54507,-290.439
 L 6.14484,-290.923 L 5.68712,-291.353 L 5.17912,-291.722 L 4.62889,-292.024 L 4.04507,-292.255 L 3.4369,-292.411
 L 2.81395,-292.49 L -2.81395,-292.49 L -3.4369,-292.411 L -4.04507,-292.255 L -4.62889,-292.024 L -5.17912,-291.722
 L -5.68712,-291.353 L -6.14484,-290.923 L -6.54507,-290.439 L -6.88153,-289.909 L -7.14888,-289.341 L -7.34291,-288.743
 L -7.46057,-288.127 L -7.5,-287.5 L -7.5,-252.5 L -7.46057,-251.873 L -7.34291,-251.257 L -7.14888,-250.659
 L -6.88153,-250.091 L -6.54507,-249.561 L -6.14484,-249.077 L -5.68712,-248.647 L -5.17912,-248.278 L -4.62889,-247.976
 L -4.04507,-247.745 L -3.4369,-247.589 L -2.81395,-247.51 L 2.81395,-247.51 z
M -2.38246,-250.645 L -2.64529,-250.678 L -2.9019,-250.744 L -3.14822,-250.841 L -3.38039,-250.969 L -3.59473,-251.125
 L -3.78784,-251.306 L -3.95673,-251.51 L -4.09868,-251.734 L -4.21149,-251.973 L -4.29335,-252.225 L -4.34299,-252.486
 L -4.35962,-252.75 L -4.35962,-287.25 L -4.34299,-287.514 L -4.29335,-287.775 L -4.21149,-288.027 L -4.09868,-288.266
 L -3.95673,-288.49 L -3.78784,-288.694 L -3.59473,-288.875 L -3.38039,-289.031 L -3.14822,-289.159 L -2.9019,-289.256
 L -2.64529,-289.322 L -2.38246,-289.355 L 2.38246,-289.355 L 2.64529,-289.322 L 2.9019,-289.256 L 3.14822,-289.159
 L 3.38039,-289.031 L 3.59473,-288.875 L 3.78784,-288.694 L 3.95673,-288.49 L 4.09868,-288.266 L 4.21149,-288.027
 L 4.29335,-287.775 L 4.34299,-287.514 L 4.35962,-287.25 L 4.35962,-252.75 L 4.34299,-252.486 L 4.29335,-252.225
 L 4.21149,-251.973 L 4.09868,-251.734 L 3.95673,-251.51 L 3.78784,-251.306 L 3.59473,-251.125 L 3.38039,-250.969
 L 3.14822,-250.841 L 2.9019,-250.744 L 2.64529,-250.678 L 2.38246,-250.645 z
" stroke="black" fill="lightgray" stroke-width="0.5"/>
</svg>
