<?xml version="1.0" standalone="no"?>
<!DOCTYPE svg PUBLIC "-//W3C//DTD SVG 1.1//EN" "http://www.w3.org/Graphics/SVG/1.1/DTD/svg11.dtd">
<svg width="6mm" height="211mm" viewBox="-3 -209 6 211" xmlns="http://www.w3.org/2000/svg" version="1.1">
<title>OpenSCAD Model</title>
<path d="
M 0.543396,-203.151 L 0.896149,-203.242 L 1.23476,-203.376 L 1.55389,-203.551 L 1.84853,-203.766 L 2.114,-204.015
 L 2.34615,-204.295 L 2.54128,-204.603 L 2.69635,-204.932 L 2.80888,-205.279 L 2.87712,-205.637 L 2.89999,-206
 L 2.87712,-206.363 L 2.80888,-206.721 L 2.69635,-207.068 L 2.54128,-207.397 L 2.34615,-207.705 L 2.114,-207.985
 L 1.84853,-208.234 L 1.55389,-208.449 L 1.23476,-208.624 L 0.896149,-208.758 L 0.543396,-208.849 L 0.182083,-208.894
 L -0.182083,-208.894 L -0.543396,-208.849 L -0.896149,-208.758 L -1.23476,-208.624 L -1.55389,-208.449 L -1.84853,-208.234
 L -2.114,-207.985 L -2.34615,-207.705 L -2.54128,-207.397 L -2.69635,-207.068 L -2.80888,-206.721 L -2.87712,-206.363
 L -2.89999,-206 L -2.87712,-205.637 L -2.80888,-205.279 L -2.69635,-204.932 L -2.54128,-204.603 L -2.34615,-204.295
 L -2.114,-204.015 L -1.84853,-203.766 L -1.55389,-203.551 L -1.23476,-203.376 L -0.896149,-203.242 L -0.543396,-203.151
 L -0.182083,-203.106 L 0.182083,-203.106 z
M 0.281067,-101.527 L 0.463516,-101.573 L 0.638657,-101.643 L 0.803726,-101.734 L 0.956131,-101.844 L 1.09344,-101.973
 L 1.21352,-102.118 L 1.31445,-102.277 L 1.39465,-102.448 L 1.45287,-102.627 L 1.48816,-102.812 L 1.5,-103
 L 1.48816,-103.188 L 1.45287,-103.373 L 1.39465,-103.552 L 1.31445,-103.723 L 1.21352,-103.882 L 1.09344,-104.027
 L 0.956131,-104.156 L 0.803726,-104.266 L 0.638657,-104.357 L 0.463516,-104.427 L 0.281067,-104.473 L 0.0941772,-104.497
 L -0.0941772,-104.497 L -0.281067,-104.473 L -0.463516,-104.427 L -0.638657,-104.357 L -0.803726,-104.266 L -0.956131,-104.156
 L -1.09344,-104.027 L -1.21352,-103.882 L -1.31445,-103.723 L -1.39465,-103.552 L -1.45287,-103.373 L -1.48816,-103.188
 L -1.5,-103 L -1.48816,-102.812 L -1.45287,-102.627 L -1.39465,-102.448 L -1.31445,-102.277 L -1.21352,-102.118
 L -1.09344,-101.973 L -0.956131,-101.844 L -0.803726,-101.734 L -0.638657,-101.643 L -0.463516,-101.573 L -0.281067,-101.527
 L -0.0941772,-101.503 L 0.0941772,-101.503 z
M 0.281067,1.47342 L 0.463516,1.42657 L 0.638657,1.35724 L 0.803726,1.26648 L 0.956131,1.15576 L 1.09344,1.02681
 L 1.21352,0.881668 L 1.31445,0.722626 L 1.39465,0.552185 L 1.45287,0.373032 L 1.48816,0.187988 L 1.5,-0
 L 1.48816,-0.187988 L 1.45287,-0.373032 L 1.39465,-0.552185 L 1.31445,-0.722626 L 1.21352,-0.881668 L 1.09344,-1.02681
 L 0.956131,-1.15576 L 0.803726,-1.26648 L 0.638657,-1.35724 L 0.463516,-1.42657 L 0.281067,-1.47342 L 0.0941772,-1.49704
 L -0.0941772,-1.49704 L -0.281067,-1.47342 L -0.463516,-1.42657 L -0.638657,-1.35724 L -0.803726,-1.26648 L -0.956131,-1.15576
 L -1.09344,-1.02681 L -1.21352,-0.881668 L -1.31445,-0.722626 L -1.39465,-0.552185 L -1.45287,-0.373032 L -1.48816,-0.187988
 L -1.5,-0 L -1.48816,0.187988 L -1.45287,0.373032 L -1.39465,0.552185 L -1.31445,0.722626 L -1.21352,0.881668
 L -1.09344,1.02681 L -0.956131,1.15576 L -0.803726,1.26648 L -0.638657,1.35724 L -0.463516,1.42657 L -0.281067,1.47342
 L -0.0941772,1.49704 L 0.0941772,1.49704 z
" stroke="black" fill="lightgray" stroke-width="0.5"/>
</svg>
