<?xml version="1.0" standalone="no"?>
<!DOCTYPE svg PUBLIC "-//W3C//DTD SVG 1.1//EN" "http://www.w3.org/Graphics/SVG/1.1/DTD/svg11.dtd">
<svg width="74mm" height="410mm" viewBox="-37 -709 74 410" xmlns="http://www.w3.org/2000/svg" version="1.1">
<title>OpenSCAD Model</title>
<path d="
M 32.9369,-635.089 L 33.5451,-635.245 L 34.1289,-635.476 L 34.6791,-635.778 L 35.1871,-636.147 L 35.6448,-636.577
 L 36.0451,-637.061 L 36.3815,-637.591 L 36.6489,-638.159 L 36.8429,-638.757 L 36.9606,-639.373 L 37,-640
 L 37,-704 L 36.9606,-704.627 L 36.8429,-705.243 L 36.6489,-705.841 L 36.3815,-706.409 L 36.0451,-706.939
 L 35.6448,-707.423 L 35.1871,-707.853 L 34.6791,-708.222 L 34.1289,-708.524 L 33.5451,-708.755 L 32.9369,-708.911
 L 32.3139,-708.99 L -32.3139,-708.99 L -32.9369,-708.911 L -33.5451,-708.755 L -34.1289,-708.524 L -34.6791,-708.222
 L -35.1871,-707.853 L -35.6448,-707.423 L -36.0451,-706.939 L -36.3815,-706.409 L -36.6489,-705.841 L -36.8429,-705.243
 L -36.9606,-704.627 L -37,-704 L -37,-640 L -36.9606,-639.373 L -36.8429,-638.757 L -36.6489,-638.159
 L -36.3815,-637.591 L -36.0451,-637.061 L -35.6448,-636.577 L -35.1871,-636.147 L -34.6791,-635.778 L -34.1289,-635.476
 L -33.5451,-635.245 L -32.9369,-635.089 L -32.3139,-635.01 L 32.3139,-635.01 z
M -32.2512,-636.008 L -32.7495,-636.071 L -33.2361,-636.196 L -33.7031,-636.381 L -34.1433,-636.623 L -34.5497,-636.918
 L -34.9159,-637.262 L -35.2361,-637.649 L -35.5052,-638.073 L -35.7191,-638.528 L -35.8743,-639.005 L -35.9685,-639.499
 L -36,-640 L -36,-704 L -35.9685,-704.501 L -35.8743,-704.995 L -35.7191,-705.472 L -35.5052,-705.927
 L -35.2361,-706.351 L -34.9159,-706.738 L -34.5497,-707.082 L -34.1433,-707.377 L -33.7031,-707.619 L -33.2361,-707.804
 L -32.7495,-707.929 L -32.2512,-707.992 L 32.2512,-707.992 L 32.7495,-707.929 L 33.2361,-707.804 L 33.7031,-707.619
 L 34.1433,-707.377 L 34.5497,-707.082 L 34.9159,-706.738 L 35.2361,-706.351 L 35.5052,-705.927 L 35.7191,-705.472
 L 35.8743,-704.995 L 35.9685,-704.501 L 36,-704 L 36,-640 L 35.9685,-639.499 L 35.8743,-639.005
 L 35.7191,-638.528 L 35.5052,-638.073 L 35.2361,-637.649 L 34.9159,-637.262 L 34.5497,-636.918 L 34.1433,-636.623
 L 33.7031,-636.381 L 33.2361,-636.196 L 32.7495,-636.071 L 32.2512,-636.008 z
M 32.9369,-551.089 L 33.5451,-551.245 L 34.1289,-551.476 L 34.6791,-551.778 L 35.1871,-552.147 L 35.6448,-552.577
 L 36.0451,-553.061 L 36.3815,-553.591 L 36.6489,-554.159 L 36.8429,-554.757 L 36.9606,-555.373 L 37,-556
 L 37,-620 L 36.9606,-620.627 L 36.8429,-621.243 L 36.6489,-621.841 L 36.3815,-622.409 L 36.0451,-622.939
 L 35.6448,-623.423 L 35.1871,-623.853 L 34.6791,-624.222 L 34.1289,-624.524 L 33.5451,-624.755 L 32.9369,-624.911
 L 32.3139,-624.99 L -32.3139,-624.99 L -32.9369,-624.911 L -33.5451,-624.755 L -34.1289,-624.524 L -34.6791,-624.222
 L -35.1871,-623.853 L -35.6448,-623.423 L -36.0451,-622.939 L -36.3815,-622.409 L -36.6489,-621.841 L -36.8429,-621.243
 L -36.9606,-620.627 L -37,-620 L -37,-556 L -36.9606,-555.373 L -36.8429,-554.757 L -36.6489,-554.159
 L -36.3815,-553.591 L -36.0451,-553.061 L -35.6448,-552.577 L -35.1871,-552.147 L -34.6791,-551.778 L -34.1289,-551.476
 L -33.5451,-551.245 L -32.9369,-551.089 L -32.3139,-551.01 L 32.3139,-551.01 z
M -32.2512,-552.008 L -32.7495,-552.071 L -33.2361,-552.196 L -33.7031,-552.381 L -34.1433,-552.623 L -34.5497,-552.918
 L -34.9159,-553.262 L -35.2361,-553.649 L -35.5052,-554.073 L -35.7191,-554.528 L -35.8743,-555.005 L -35.9685,-555.499
 L -36,-556 L -36,-620 L -35.9685,-620.501 L -35.8743,-620.995 L -35.7191,-621.472 L -35.5052,-621.927
 L -35.2361,-622.351 L -34.9159,-622.738 L -34.5497,-623.082 L -34.1433,-623.377 L -33.7031,-623.619 L -33.2361,-623.804
 L -32.7495,-623.929 L -32.2512,-623.992 L 32.2512,-623.992 L 32.7495,-623.929 L 33.2361,-623.804 L 33.7031,-623.619
 L 34.1433,-623.377 L 34.5497,-623.082 L 34.9159,-622.738 L 35.2361,-622.351 L 35.5052,-621.927 L 35.7191,-621.472
 L 35.8743,-620.995 L 35.9685,-620.501 L 36,-620 L 36,-556 L 35.9685,-555.499 L 35.8743,-555.005
 L 35.7191,-554.528 L 35.5052,-554.073 L 35.2361,-553.649 L 34.9159,-553.262 L 34.5497,-552.918 L 34.1433,-552.623
 L 33.7031,-552.381 L 33.2361,-552.196 L 32.7495,-552.071 L 32.2512,-552.008 z
M 32.9369,-383.089 L 33.5451,-383.245 L 34.1289,-383.476 L 34.6791,-383.778 L 35.1871,-384.147 L 35.6448,-384.577
 L 36.0451,-385.061 L 36.3815,-385.591 L 36.6489,-386.159 L 36.8429,-386.757 L 36.9606,-387.373 L 37,-388
 L 37,-452 L 36.9606,-452.627 L 36.8429,-453.243 L 36.6489,-453.841 L 36.3815,-454.409 L 36.0451,-454.939
 L 35.6448,-455.423 L 35.1871,-455.853 L 34.6791,-456.222 L 34.1289,-456.524 L 33.5451,-456.755 L 32.9369,-456.911
 L 32.3139,-456.99 L -32.3139,-456.99 L -32.9369,-456.911 L -33.5451,-456.755 L -34.1289,-456.524 L -34.6791,-456.222
 L -35.1871,-455.853 L -35.6448,-455.423 L -36.0451,-454.939 L -36.3815,-454.409 L -36.6489,-453.841 L -36.8429,-453.243
 L -36.9606,-452.627 L -37,-452 L -37,-388 L -36.9606,-387.373 L -36.8429,-386.757 L -36.6489,-386.159
 L -36.3815,-385.591 L -36.0451,-385.061 L -35.6448,-384.577 L -35.1871,-384.147 L -34.6791,-383.778 L -34.1289,-383.476
 L -33.5451,-383.245 L -32.9369,-383.089 L -32.3139,-383.01 L 32.3139,-383.01 z
M 32.9369,-299.089 L 33.5451,-299.245 L 34.1289,-299.476 L 34.6791,-299.778 L 35.1871,-300.147 L 35.6448,-300.577
 L 36.0451,-301.061 L 36.3815,-301.591 L 36.6489,-302.159 L 36.8429,-302.757 L 36.9606,-303.373 L 37,-304
 L 37,-368 L 36.9606,-368.627 L 36.8429,-369.243 L 36.6489,-369.841 L 36.3815,-370.409 L 36.0451,-370.939
 L 35.6448,-371.423 L 35.1871,-371.853 L 34.6791,-372.222 L 34.1289,-372.524 L 33.5451,-372.755 L 32.9369,-372.911
 L 32.3139,-372.99 L -32.3139,-372.99 L -32.9369,-372.911 L -33.5451,-372.755 L -34.1289,-372.524 L -34.6791,-372.222
 L -35.1871,-371.853 L -35.6448,-371.423 L -36.0451,-370.939 L -36.3815,-370.409 L -36.6489,-369.841 L -36.8429,-369.243
 L -36.9606,-368.627 L -37,-368 L -37,-304 L -36.9606,-303.373 L -36.8429,-302.757 L -36.6489,-302.159
 L -36.3815,-301.591 L -36.0451,-301.061 L -35.6448,-300.577 L -35.1871,-300.147 L -34.6791,-299.778 L -34.1289,-299.476
 L -33.5451,-299.245 L -32.9369,-299.089 L -32.3139,-299.01 L 32.3139,-299.01 z
M 29.8493,-363.605 L 29.5503,-363.643 L 29.2583,-363.717 L 28.9781,-363.828 L 28.714,-363.974 L 28.4702,-364.151
 L 28.2505,-364.357 L 28.0583,-364.589 L 27.8969,-364.844 L 27.7685,-365.117 L 27.6754,-365.403 L 27.6189,-365.699
 L 27.6,-366 L 27.6189,-366.301 L 27.6754,-366.597 L 27.7685,-366.883 L 27.8969,-367.156 L 28.0583,-367.411
 L 28.2505,-367.643 L 28.4702,-367.849 L 28.714,-368.026 L 28.9781,-368.172 L 29.2583,-368.283 L 29.5503,-368.357
 L 29.8493,-368.395 L 30.1507,-368.395 L 30.4497,-368.357 L 30.7416,-368.283 L 31.0219,-368.172 L 31.286,-368.026
 L 31.5298,-367.849 L 31.7495,-367.643 L 31.9416,-367.411 L 32.1031,-367.156 L 32.2315,-366.883 L 32.3246,-366.597
 L 32.3811,-366.301 L 32.4,-366 L 32.3811,-365.699 L 32.3246,-365.403 L 32.2315,-365.117 L 32.1031,-364.844
 L 31.9416,-364.589 L 31.7495,-364.357 L 31.5298,-364.151 L 31.286,-363.974 L 31.0219,-363.828 L 30.7416,-363.717
 L 30.4497,-363.643 L 30.1507,-363.605 z
M -30.1507,-363.605 L -30.4497,-363.643 L -30.7416,-363.717 L -31.0219,-363.828 L -31.286,-363.974 L -31.5298,-364.151
 L -31.7495,-364.357 L -31.9416,-364.589 L -32.1031,-364.844 L -32.2315,-365.117 L -32.3246,-365.403 L -32.3811,-365.699
 L -32.4,-366 L -32.3811,-366.301 L -32.3246,-366.597 L -32.2315,-366.883 L -32.1031,-367.156 L -31.9416,-367.411
 L -31.7495,-367.643 L -31.5298,-367.849 L -31.286,-368.026 L -31.0219,-368.172 L -30.7416,-368.283 L -30.4497,-368.357
 L -30.1507,-368.395 L -29.8493,-368.395 L -29.5503,-368.357 L -29.2583,-368.283 L -28.9781,-368.172 L -28.714,-368.026
 L -28.4702,-367.849 L -28.2505,-367.643 L -28.0583,-367.411 L -27.8969,-367.156 L -27.7685,-366.883 L -27.6754,-366.597
 L -27.6189,-366.301 L -27.6,-366 L -27.6189,-365.699 L -27.6754,-365.403 L -27.7685,-365.117 L -27.8969,-364.844
 L -28.0583,-364.589 L -28.2505,-364.357 L -28.4702,-364.151 L -28.714,-363.974 L -28.9781,-363.828 L -29.2583,-363.717
 L -29.5503,-363.643 L -29.8493,-363.605 z
M -30.1507,-303.605 L -30.4497,-303.643 L -30.7416,-303.717 L -31.0219,-303.828 L -31.286,-303.974 L -31.5298,-304.151
 L -31.7495,-304.357 L -31.9416,-304.589 L -32.1031,-304.844 L -32.2315,-305.117 L -32.3246,-305.403 L -32.3811,-305.699
 L -32.4,-306 L -32.3811,-306.301 L -32.3246,-306.597 L -32.2315,-306.883 L -32.1031,-307.156 L -31.9416,-307.411
 L -31.7495,-307.643 L -31.5298,-307.849 L -31.286,-308.026 L -31.0219,-308.172 L -30.7416,-308.283 L -30.4497,-308.357
 L -30.1507,-308.395 L -29.8493,-308.395 L -29.5503,-308.357 L -29.2583,-308.283 L -28.9781,-308.172 L -28.714,-308.026
 L -28.4702,-307.849 L -28.2505,-307.643 L -28.0583,-307.411 L -27.8969,-307.156 L -27.7685,-306.883 L -27.6754,-306.597
 L -27.6189,-306.301 L -27.6,-306 L -27.6189,-305.699 L -27.6754,-305.403 L -27.7685,-305.117 L -27.8969,-304.844
 L -28.0583,-304.589 L -28.2505,-304.357 L -28.4702,-304.151 L -28.714,-303.974 L -28.9781,-303.828 L -29.2583,-303.717
 L -29.5503,-303.643 L -29.8493,-303.605 z
M 29.8493,-303.605 L 29.5503,-303.643 L 29.2583,-303.717 L 28.9781,-303.828 L 28.714,-303.974 L 28.4702,-304.151
 L 28.2505,-304.357 L 28.0583,-304.589 L 27.8969,-304.844 L 27.7685,-305.117 L 27.6754,-305.403 L 27.6189,-305.699
 L 27.6,-306 L 27.6189,-306.301 L 27.6754,-306.597 L 27.7685,-306.883 L 27.8969,-307.156 L 28.0583,-307.411
 L 28.2505,-307.643 L 28.4702,-307.849 L 28.714,-308.026 L 28.9781,-308.172 L 29.2583,-308.283 L 29.5503,-308.357
 L 29.8493,-308.395 L 30.1507,-308.395 L 30.4497,-308.357 L 30.7416,-308.283 L 31.0219,-308.172 L 31.286,-308.026
 L 31.5298,-307.849 L 31.7495,-307.643 L 31.9416,-307.411 L 32.1031,-307.156 L 32.2315,-306.883 L 32.3246,-306.597
 L 32.3811,-306.301 L 32.4,-306 L 32.3811,-305.699 L 32.3246,-305.403 L 32.2315,-305.117 L 32.1031,-304.844
 L 31.9416,-304.589 L 31.7495,-304.357 L 31.5298,-304.151 L 31.286,-303.974 L 31.0219,-303.828 L 30.7416,-303.717
 L 30.4497,-303.643 L 30.1507,-303.605 z
M -32.9369,-467.089 L -32.3139,-467.01 L 32.3139,-467.01 L 32.9369,-467.089 L 33.5451,-467.245 L 34.1289,-467.476
 L 34.6791,-467.778 L 35.1871,-468.147 L 35.6448,-468.577 L 36.0451,-469.061 L 36.3815,-469.591 L 36.6489,-470.159
 L 36.8429,-470.757 L 36.9606,-471.373 L 37,-472 L 37,-536 L 36.9606,-536.627 L 36.8429,-537.243
 L 36.6489,-537.841 L 36.3815,-538.409 L 36.0451,-538.939 L 35.6448,-539.423 L 35.1871,-539.853 L 34.6791,-540.222
 L 34.1289,-540.524 L 33.5451,-540.755 L 32.9369,-540.911 L 32.3139,-540.99 L -32.3139,-540.99 L -32.9369,-540.911
 L -33.5451,-540.755 L -34.1289,-540.524 L -34.6791,-540.222 L -35.1871,-539.853 L -35.6448,-539.423 L -36.0451,-538.939
 L -36.3815,-538.409 L -36.6489,-537.841 L -36.8429,-537.243 L -36.9606,-536.627 L -37,-536 L -37,-472
 L -36.9606,-471.373 L -36.8429,-470.757 L -36.6489,-470.159 L -36.3815,-469.591 L -36.0451,-469.061 L -35.6448,-468.577
 L -35.1871,-468.147 L -34.6791,-467.778 L -34.1289,-467.476 L -33.5451,-467.245 z
M -34.4685,-469.016 L -34.823,-469.349 L -35.133,-469.724 L -35.3936,-470.134 L -35.6007,-470.574 L -35.751,-471.037
 L -35.8421,-471.515 L -35.8726,-472 L -35.8726,-536 L -35.8421,-536.485 L -35.751,-536.963 L -35.6007,-537.426
 L -35.3936,-537.866 L -35.133,-538.276 L -34.823,-538.651 L -34.4685,-538.984 L -34.0751,-539.27 L -33.6489,-539.504
 L -33.1967,-539.683 L -32.7256,-539.804 L -32.2432,-539.865 L 32.2432,-539.865 L 32.7256,-539.804 L 33.1967,-539.683
 L 33.6489,-539.504 L 34.0751,-539.27 L 34.4685,-538.984 L 34.823,-538.651 L 35.133,-538.276 L 35.3936,-537.866
 L 35.6007,-537.426 L 35.751,-536.963 L 35.8421,-536.485 L 35.8726,-536 L 35.8726,-472 L 35.8421,-471.515
 L 35.751,-471.037 L 35.6007,-470.574 L 35.3936,-470.134 L 35.133,-469.724 L 34.823,-469.349 L 34.4685,-469.016
 L 34.0751,-468.73 L 33.6489,-468.496 L 33.1967,-468.317 L 32.7256,-468.196 L 32.2432,-468.135 L -32.2432,-468.135
 L -32.7256,-468.196 L -33.1967,-468.317 L -33.6489,-468.496 L -34.0751,-468.73 z
" stroke="black" fill="lightgray" stroke-width="0.5"/>
</svg>
