  0
SECTION
  2
BLOCKS
  0
ENDSEC
  0
SECTION
  2
ENTITIES
  0
LINE
  8
0
 10
4.616
 20
927
 11
2.308
 21
930.998
  0
LINE
  8
0
 10
2.308
 20
930.998
 11
-2.308
 21
930.998
  0
LINE
  8
0
 10
-2.308
 20
930.998
 11
-4.616
 21
927
  0
LINE
  8
0
 10
-4.616
 20
927
 11
-2.308
 21
923.002
  0
LINE
  8
0
 10
-2.308
 20
923.002
 11
2.308
 21
923.002
  0
LINE
  8
0
 10
2.308
 20
923.002
 11
4.616
 21
927
  0
LINE
  8
0
 10
4.616
 20
824
 11
2.308
 21
827.998
  0
LINE
  8
0
 10
2.308
 20
827.998
 11
-2.308
 21
827.998
  0
LINE
  8
0
 10
-2.308
 20
827.998
 11
-4.616
 21
824
  0
LINE
  8
0
 10
-4.616
 20
824
 11
-2.308
 21
820.002
  0
LINE
  8
0
 10
-2.308
 20
820.002
 11
2.308
 21
820.002
  0
LINE
  8
0
 10
2.308
 20
820.002
 11
4.616
 21
824
  0
LINE
  8
0
 10
0.468445
 20
718.544
 11
0.772537
 21
718.622
  0
LINE
  8
0
 10
0.772537
 20
718.622
 11
1.06444
 21
718.738
  0
LINE
  8
0
 10
1.06444
 20
718.738
 11
1.33955
 21
718.889
  0
LINE
  8
0
 10
1.33955
 20
718.889
 11
1.59355
 21
719.074
  0
LINE
  8
0
 10
1.59355
 20
719.074
 11
1.82242
 21
719.289
  0
LINE
  8
0
 10
1.82242
 20
719.289
 11
2.02254
 21
719.531
  0
LINE
  8
0
 10
2.02254
 20
719.531
 11
2.19077
 21
719.796
  0
LINE
  8
0
 10
2.19077
 20
719.796
 11
2.32443
 21
720.08
  0
LINE
  8
0
 10
2.32443
 20
720.08
 11
2.42145
 21
720.378
  0
LINE
  8
0
 10
2.42145
 20
720.378
 11
2.48029
 21
720.687
  0
LINE
  8
0
 10
2.48029
 20
720.687
 11
2.5
 21
721
  0
LINE
  8
0
 10
2.5
 20
721
 11
2.48029
 21
721.313
  0
LINE
  8
0
 10
2.48029
 20
721.313
 11
2.42145
 21
721.622
  0
LINE
  8
0
 10
2.42145
 20
721.622
 11
2.32443
 21
721.92
  0
LINE
  8
0
 10
2.32443
 20
721.92
 11
2.19077
 21
722.204
  0
LINE
  8
0
 10
2.19077
 20
722.204
 11
2.02254
 21
722.469
  0
LINE
  8
0
 10
2.02254
 20
722.469
 11
1.82242
 21
722.711
  0
LINE
  8
0
 10
1.82242
 20
722.711
 11
1.59355
 21
722.926
  0
LINE
  8
0
 10
1.59355
 20
722.926
 11
1.33955
 21
723.111
  0
LINE
  8
0
 10
1.33955
 20
723.111
 11
1.06444
 21
723.262
  0
LINE
  8
0
 10
1.06444
 20
723.262
 11
0.772537
 21
723.378
  0
LINE
  8
0
 10
0.772537
 20
723.378
 11
0.468445
 21
723.456
  0
LINE
  8
0
 10
0.468445
 20
723.456
 11
0.156967
 21
723.495
  0
LINE
  8
0
 10
0.156967
 20
723.495
 11
-0.156967
 21
723.495
  0
LINE
  8
0
 10
-0.156967
 20
723.495
 11
-0.468445
 21
723.456
  0
LINE
  8
0
 10
-0.468445
 20
723.456
 11
-0.772537
 21
723.378
  0
LINE
  8
0
 10
-0.772537
 20
723.378
 11
-1.06444
 21
723.262
  0
LINE
  8
0
 10
-1.06444
 20
723.262
 11
-1.33955
 21
723.111
  0
LINE
  8
0
 10
-1.33955
 20
723.111
 11
-1.59355
 21
722.926
  0
LINE
  8
0
 10
-1.59355
 20
722.926
 11
-1.82242
 21
722.711
  0
LINE
  8
0
 10
-1.82242
 20
722.711
 11
-2.02254
 21
722.469
  0
LINE
  8
0
 10
-2.02254
 20
722.469
 11
-2.19077
 21
722.204
  0
LINE
  8
0
 10
-2.19077
 20
722.204
 11
-2.32443
 21
721.92
  0
LINE
  8
0
 10
-2.32443
 20
721.92
 11
-2.42145
 21
721.622
  0
LINE
  8
0
 10
-2.42145
 20
721.622
 11
-2.48029
 21
721.313
  0
LINE
  8
0
 10
-2.48029
 20
721.313
 11
-2.5
 21
721
  0
LINE
  8
0
 10
-2.5
 20
721
 11
-2.48029
 21
720.687
  0
LINE
  8
0
 10
-2.48029
 20
720.687
 11
-2.42145
 21
720.378
  0
LINE
  8
0
 10
-2.42145
 20
720.378
 11
-2.32443
 21
720.08
  0
LINE
  8
0
 10
-2.32443
 20
720.08
 11
-2.19077
 21
719.796
  0
LINE
  8
0
 10
-2.19077
 20
719.796
 11
-2.02254
 21
719.531
  0
LINE
  8
0
 10
-2.02254
 20
719.531
 11
-1.82242
 21
719.289
  0
LINE
  8
0
 10
-1.82242
 20
719.289
 11
-1.59355
 21
719.074
  0
LINE
  8
0
 10
-1.59355
 20
719.074
 11
-1.33955
 21
718.889
  0
LINE
  8
0
 10
-1.33955
 20
718.889
 11
-1.06444
 21
718.738
  0
LINE
  8
0
 10
-1.06444
 20
718.738
 11
-0.772537
 21
718.622
  0
LINE
  8
0
 10
-0.772537
 20
718.622
 11
-0.468445
 21
718.544
  0
LINE
  8
0
 10
-0.468445
 20
718.544
 11
-0.156967
 21
718.505
  0
LINE
  8
0
 10
-0.156967
 20
718.505
 11
0.156967
 21
718.505
  0
LINE
  8
0
 10
0.156967
 20
718.505
 11
0.468445
 21
718.544
  0
LINE
  8
0
 10
0.468445
 20
615.544
 11
0.772537
 21
615.622
  0
LINE
  8
0
 10
0.772537
 20
615.622
 11
1.06444
 21
615.738
  0
LINE
  8
0
 10
1.06444
 20
615.738
 11
1.33955
 21
615.889
  0
LINE
  8
0
 10
1.33955
 20
615.889
 11
1.59355
 21
616.074
  0
LINE
  8
0
 10
1.59355
 20
616.074
 11
1.82242
 21
616.289
  0
LINE
  8
0
 10
1.82242
 20
616.289
 11
2.02254
 21
616.531
  0
LINE
  8
0
 10
2.02254
 20
616.531
 11
2.19077
 21
616.796
  0
LINE
  8
0
 10
2.19077
 20
616.796
 11
2.32443
 21
617.08
  0
LINE
  8
0
 10
2.32443
 20
617.08
 11
2.42145
 21
617.378
  0
LINE
  8
0
 10
2.42145
 20
617.378
 11
2.48029
 21
617.687
  0
LINE
  8
0
 10
2.48029
 20
617.687
 11
2.5
 21
618
  0
LINE
  8
0
 10
2.5
 20
618
 11
2.48029
 21
618.313
  0
LINE
  8
0
 10
2.48029
 20
618.313
 11
2.42145
 21
618.622
  0
LINE
  8
0
 10
2.42145
 20
618.622
 11
2.32443
 21
618.92
  0
LINE
  8
0
 10
2.32443
 20
618.92
 11
2.19077
 21
619.204
  0
LINE
  8
0
 10
2.19077
 20
619.204
 11
2.02254
 21
619.469
  0
LINE
  8
0
 10
2.02254
 20
619.469
 11
1.82242
 21
619.711
  0
LINE
  8
0
 10
1.82242
 20
619.711
 11
1.59355
 21
619.926
  0
LINE
  8
0
 10
1.59355
 20
619.926
 11
1.33955
 21
620.111
  0
LINE
  8
0
 10
1.33955
 20
620.111
 11
1.06444
 21
620.262
  0
LINE
  8
0
 10
1.06444
 20
620.262
 11
0.772537
 21
620.378
  0
LINE
  8
0
 10
0.772537
 20
620.378
 11
0.468445
 21
620.456
  0
LINE
  8
0
 10
0.468445
 20
620.456
 11
0.156967
 21
620.495
  0
LINE
  8
0
 10
0.156967
 20
620.495
 11
-0.156967
 21
620.495
  0
LINE
  8
0
 10
-0.156967
 20
620.495
 11
-0.468445
 21
620.456
  0
LINE
  8
0
 10
-0.468445
 20
620.456
 11
-0.772537
 21
620.378
  0
LINE
  8
0
 10
-0.772537
 20
620.378
 11
-1.06444
 21
620.262
  0
LINE
  8
0
 10
-1.06444
 20
620.262
 11
-1.33955
 21
620.111
  0
LINE
  8
0
 10
-1.33955
 20
620.111
 11
-1.59355
 21
619.926
  0
LINE
  8
0
 10
-1.59355
 20
619.926
 11
-1.82242
 21
619.711
  0
LINE
  8
0
 10
-1.82242
 20
619.711
 11
-2.02254
 21
619.469
  0
LINE
  8
0
 10
-2.02254
 20
619.469
 11
-2.19077
 21
619.204
  0
LINE
  8
0
 10
-2.19077
 20
619.204
 11
-2.32443
 21
618.92
  0
LINE
  8
0
 10
-2.32443
 20
618.92
 11
-2.42145
 21
618.622
  0
LINE
  8
0
 10
-2.42145
 20
618.622
 11
-2.48029
 21
618.313
  0
LINE
  8
0
 10
-2.48029
 20
618.313
 11
-2.5
 21
618
  0
LINE
  8
0
 10
-2.5
 20
618
 11
-2.48029
 21
617.687
  0
LINE
  8
0
 10
-2.48029
 20
617.687
 11
-2.42145
 21
617.378
  0
LINE
  8
0
 10
-2.42145
 20
617.378
 11
-2.32443
 21
617.08
  0
LINE
  8
0
 10
-2.32443
 20
617.08
 11
-2.19077
 21
616.796
  0
LINE
  8
0
 10
-2.19077
 20
616.796
 11
-2.02254
 21
616.531
  0
LINE
  8
0
 10
-2.02254
 20
616.531
 11
-1.82242
 21
616.289
  0
LINE
  8
0
 10
-1.82242
 20
616.289
 11
-1.59355
 21
616.074
  0
LINE
  8
0
 10
-1.59355
 20
616.074
 11
-1.33955
 21
615.889
  0
LINE
  8
0
 10
-1.33955
 20
615.889
 11
-1.06444
 21
615.738
  0
LINE
  8
0
 10
-1.06444
 20
615.738
 11
-0.772537
 21
615.622
  0
LINE
  8
0
 10
-0.772537
 20
615.622
 11
-0.468445
 21
615.544
  0
LINE
  8
0
 10
-0.468445
 20
615.544
 11
-0.156967
 21
615.505
  0
LINE
  8
0
 10
-0.156967
 20
615.505
 11
0.156967
 21
615.505
  0
LINE
  8
0
 10
0.156967
 20
615.505
 11
0.468445
 21
615.544
  0
LINE
  8
0
 10
0.468445
 20
512.544
 11
0.772537
 21
512.622
  0
LINE
  8
0
 10
0.772537
 20
512.622
 11
1.06444
 21
512.738
  0
LINE
  8
0
 10
1.06444
 20
512.738
 11
1.33955
 21
512.889
  0
LINE
  8
0
 10
1.33955
 20
512.889
 11
1.59355
 21
513.074
  0
LINE
  8
0
 10
1.59355
 20
513.074
 11
1.82242
 21
513.289
  0
LINE
  8
0
 10
1.82242
 20
513.289
 11
2.02254
 21
513.531
  0
LINE
  8
0
 10
2.02254
 20
513.531
 11
2.19077
 21
513.796
  0
LINE
  8
0
 10
2.19077
 20
513.796
 11
2.32443
 21
514.08
  0
LINE
  8
0
 10
2.32443
 20
514.08
 11
2.42145
 21
514.378
  0
LINE
  8
0
 10
2.42145
 20
514.378
 11
2.48029
 21
514.687
  0
LINE
  8
0
 10
2.48029
 20
514.687
 11
2.5
 21
515
  0
LINE
  8
0
 10
2.5
 20
515
 11
2.48029
 21
515.313
  0
LINE
  8
0
 10
2.48029
 20
515.313
 11
2.42145
 21
515.622
  0
LINE
  8
0
 10
2.42145
 20
515.622
 11
2.32443
 21
515.92
  0
LINE
  8
0
 10
2.32443
 20
515.92
 11
2.19077
 21
516.204
  0
LINE
  8
0
 10
2.19077
 20
516.204
 11
2.02254
 21
516.469
  0
LINE
  8
0
 10
2.02254
 20
516.469
 11
1.82242
 21
516.711
  0
LINE
  8
0
 10
1.82242
 20
516.711
 11
1.59355
 21
516.926
  0
LINE
  8
0
 10
1.59355
 20
516.926
 11
1.33955
 21
517.111
  0
LINE
  8
0
 10
1.33955
 20
517.111
 11
1.06444
 21
517.262
  0
LINE
  8
0
 10
1.06444
 20
517.262
 11
0.772537
 21
517.378
  0
LINE
  8
0
 10
0.772537
 20
517.378
 11
0.468445
 21
517.456
  0
LINE
  8
0
 10
0.468445
 20
517.456
 11
0.156967
 21
517.495
  0
LINE
  8
0
 10
0.156967
 20
517.495
 11
-0.156967
 21
517.495
  0
LINE
  8
0
 10
-0.156967
 20
517.495
 11
-0.468445
 21
517.456
  0
LINE
  8
0
 10
-0.468445
 20
517.456
 11
-0.772537
 21
517.378
  0
LINE
  8
0
 10
-0.772537
 20
517.378
 11
-1.06444
 21
517.262
  0
LINE
  8
0
 10
-1.06444
 20
517.262
 11
-1.33955
 21
517.111
  0
LINE
  8
0
 10
-1.33955
 20
517.111
 11
-1.59355
 21
516.926
  0
LINE
  8
0
 10
-1.59355
 20
516.926
 11
-1.82242
 21
516.711
  0
LINE
  8
0
 10
-1.82242
 20
516.711
 11
-2.02254
 21
516.469
  0
LINE
  8
0
 10
-2.02254
 20
516.469
 11
-2.19077
 21
516.204
  0
LINE
  8
0
 10
-2.19077
 20
516.204
 11
-2.32443
 21
515.92
  0
LINE
  8
0
 10
-2.32443
 20
515.92
 11
-2.42145
 21
515.622
  0
LINE
  8
0
 10
-2.42145
 20
515.622
 11
-2.48029
 21
515.313
  0
LINE
  8
0
 10
-2.48029
 20
515.313
 11
-2.5
 21
515
  0
LINE
  8
0
 10
-2.5
 20
515
 11
-2.48029
 21
514.687
  0
LINE
  8
0
 10
-2.48029
 20
514.687
 11
-2.42145
 21
514.378
  0
LINE
  8
0
 10
-2.42145
 20
514.378
 11
-2.32443
 21
514.08
  0
LINE
  8
0
 10
-2.32443
 20
514.08
 11
-2.19077
 21
513.796
  0
LINE
  8
0
 10
-2.19077
 20
513.796
 11
-2.02254
 21
513.531
  0
LINE
  8
0
 10
-2.02254
 20
513.531
 11
-1.82242
 21
513.289
  0
LINE
  8
0
 10
-1.82242
 20
513.289
 11
-1.59355
 21
513.074
  0
LINE
  8
0
 10
-1.59355
 20
513.074
 11
-1.33955
 21
512.889
  0
LINE
  8
0
 10
-1.33955
 20
512.889
 11
-1.06444
 21
512.738
  0
LINE
  8
0
 10
-1.06444
 20
512.738
 11
-0.772537
 21
512.622
  0
LINE
  8
0
 10
-0.772537
 20
512.622
 11
-0.468445
 21
512.544
  0
LINE
  8
0
 10
-0.468445
 20
512.544
 11
-0.156967
 21
512.505
  0
LINE
  8
0
 10
-0.156967
 20
512.505
 11
0.156967
 21
512.505
  0
LINE
  8
0
 10
0.156967
 20
512.505
 11
0.468445
 21
512.544
  0
LINE
  8
0
 10
0.468445
 20
409.544
 11
0.772537
 21
409.622
  0
LINE
  8
0
 10
0.772537
 20
409.622
 11
1.06444
 21
409.738
  0
LINE
  8
0
 10
1.06444
 20
409.738
 11
1.33955
 21
409.889
  0
LINE
  8
0
 10
1.33955
 20
409.889
 11
1.59355
 21
410.074
  0
LINE
  8
0
 10
1.59355
 20
410.074
 11
1.82242
 21
410.289
  0
LINE
  8
0
 10
1.82242
 20
410.289
 11
2.02254
 21
410.531
  0
LINE
  8
0
 10
2.02254
 20
410.531
 11
2.19077
 21
410.796
  0
LINE
  8
0
 10
2.19077
 20
410.796
 11
2.32443
 21
411.08
  0
LINE
  8
0
 10
2.32443
 20
411.08
 11
2.42145
 21
411.378
  0
LINE
  8
0
 10
2.42145
 20
411.378
 11
2.48029
 21
411.687
  0
LINE
  8
0
 10
2.48029
 20
411.687
 11
2.5
 21
412
  0
LINE
  8
0
 10
2.5
 20
412
 11
2.48029
 21
412.313
  0
LINE
  8
0
 10
2.48029
 20
412.313
 11
2.42145
 21
412.622
  0
LINE
  8
0
 10
2.42145
 20
412.622
 11
2.32443
 21
412.92
  0
LINE
  8
0
 10
2.32443
 20
412.92
 11
2.19077
 21
413.204
  0
LINE
  8
0
 10
2.19077
 20
413.204
 11
2.02254
 21
413.469
  0
LINE
  8
0
 10
2.02254
 20
413.469
 11
1.82242
 21
413.711
  0
LINE
  8
0
 10
1.82242
 20
413.711
 11
1.59355
 21
413.926
  0
LINE
  8
0
 10
1.59355
 20
413.926
 11
1.33955
 21
414.111
  0
LINE
  8
0
 10
1.33955
 20
414.111
 11
1.06444
 21
414.262
  0
LINE
  8
0
 10
1.06444
 20
414.262
 11
0.772537
 21
414.378
  0
LINE
  8
0
 10
0.772537
 20
414.378
 11
0.468445
 21
414.456
  0
LINE
  8
0
 10
0.468445
 20
414.456
 11
0.156967
 21
414.495
  0
LINE
  8
0
 10
0.156967
 20
414.495
 11
-0.156967
 21
414.495
  0
LINE
  8
0
 10
-0.156967
 20
414.495
 11
-0.468445
 21
414.456
  0
LINE
  8
0
 10
-0.468445
 20
414.456
 11
-0.772537
 21
414.378
  0
LINE
  8
0
 10
-0.772537
 20
414.378
 11
-1.06444
 21
414.262
  0
LINE
  8
0
 10
-1.06444
 20
414.262
 11
-1.33955
 21
414.111
  0
LINE
  8
0
 10
-1.33955
 20
414.111
 11
-1.59355
 21
413.926
  0
LINE
  8
0
 10
-1.59355
 20
413.926
 11
-1.82242
 21
413.711
  0
LINE
  8
0
 10
-1.82242
 20
413.711
 11
-2.02254
 21
413.469
  0
LINE
  8
0
 10
-2.02254
 20
413.469
 11
-2.19077
 21
413.204
  0
LINE
  8
0
 10
-2.19077
 20
413.204
 11
-2.32443
 21
412.92
  0
LINE
  8
0
 10
-2.32443
 20
412.92
 11
-2.42145
 21
412.622
  0
LINE
  8
0
 10
-2.42145
 20
412.622
 11
-2.48029
 21
412.313
  0
LINE
  8
0
 10
-2.48029
 20
412.313
 11
-2.5
 21
412
  0
LINE
  8
0
 10
-2.5
 20
412
 11
-2.48029
 21
411.687
  0
LINE
  8
0
 10
-2.48029
 20
411.687
 11
-2.42145
 21
411.378
  0
LINE
  8
0
 10
-2.42145
 20
411.378
 11
-2.32443
 21
411.08
  0
LINE
  8
0
 10
-2.32443
 20
411.08
 11
-2.19077
 21
410.796
  0
LINE
  8
0
 10
-2.19077
 20
410.796
 11
-2.02254
 21
410.531
  0
LINE
  8
0
 10
-2.02254
 20
410.531
 11
-1.82242
 21
410.289
  0
LINE
  8
0
 10
-1.82242
 20
410.289
 11
-1.59355
 21
410.074
  0
LINE
  8
0
 10
-1.59355
 20
410.074
 11
-1.33955
 21
409.889
  0
LINE
  8
0
 10
-1.33955
 20
409.889
 11
-1.06444
 21
409.738
  0
LINE
  8
0
 10
-1.06444
 20
409.738
 11
-0.772537
 21
409.622
  0
LINE
  8
0
 10
-0.772537
 20
409.622
 11
-0.468445
 21
409.544
  0
LINE
  8
0
 10
-0.468445
 20
409.544
 11
-0.156967
 21
409.505
  0
LINE
  8
0
 10
-0.156967
 20
409.505
 11
0.156967
 21
409.505
  0
LINE
  8
0
 10
0.156967
 20
409.505
 11
0.468445
 21
409.544
  0
LINE
  8
0
 10
0.468445
 20
306.544
 11
0.772537
 21
306.622
  0
LINE
  8
0
 10
0.772537
 20
306.622
 11
1.06444
 21
306.738
  0
LINE
  8
0
 10
1.06444
 20
306.738
 11
1.33955
 21
306.889
  0
LINE
  8
0
 10
1.33955
 20
306.889
 11
1.59355
 21
307.074
  0
LINE
  8
0
 10
1.59355
 20
307.074
 11
1.82242
 21
307.289
  0
LINE
  8
0
 10
1.82242
 20
307.289
 11
2.02254
 21
307.531
  0
LINE
  8
0
 10
2.02254
 20
307.531
 11
2.19077
 21
307.796
  0
LINE
  8
0
 10
2.19077
 20
307.796
 11
2.32443
 21
308.08
  0
LINE
  8
0
 10
2.32443
 20
308.08
 11
2.42145
 21
308.378
  0
LINE
  8
0
 10
2.42145
 20
308.378
 11
2.48029
 21
308.687
  0
LINE
  8
0
 10
2.48029
 20
308.687
 11
2.5
 21
309
  0
LINE
  8
0
 10
2.5
 20
309
 11
2.48029
 21
309.313
  0
LINE
  8
0
 10
2.48029
 20
309.313
 11
2.42145
 21
309.622
  0
LINE
  8
0
 10
2.42145
 20
309.622
 11
2.32443
 21
309.92
  0
LINE
  8
0
 10
2.32443
 20
309.92
 11
2.19077
 21
310.204
  0
LINE
  8
0
 10
2.19077
 20
310.204
 11
2.02254
 21
310.469
  0
LINE
  8
0
 10
2.02254
 20
310.469
 11
1.82242
 21
310.711
  0
LINE
  8
0
 10
1.82242
 20
310.711
 11
1.59355
 21
310.926
  0
LINE
  8
0
 10
1.59355
 20
310.926
 11
1.33955
 21
311.111
  0
LINE
  8
0
 10
1.33955
 20
311.111
 11
1.06444
 21
311.262
  0
LINE
  8
0
 10
1.06444
 20
311.262
 11
0.772537
 21
311.378
  0
LINE
  8
0
 10
0.772537
 20
311.378
 11
0.468445
 21
311.456
  0
LINE
  8
0
 10
0.468445
 20
311.456
 11
0.156967
 21
311.495
  0
LINE
  8
0
 10
0.156967
 20
311.495
 11
-0.156967
 21
311.495
  0
LINE
  8
0
 10
-0.156967
 20
311.495
 11
-0.468445
 21
311.456
  0
LINE
  8
0
 10
-0.468445
 20
311.456
 11
-0.772537
 21
311.378
  0
LINE
  8
0
 10
-0.772537
 20
311.378
 11
-1.06444
 21
311.262
  0
LINE
  8
0
 10
-1.06444
 20
311.262
 11
-1.33955
 21
311.111
  0
LINE
  8
0
 10
-1.33955
 20
311.111
 11
-1.59355
 21
310.926
  0
LINE
  8
0
 10
-1.59355
 20
310.926
 11
-1.82242
 21
310.711
  0
LINE
  8
0
 10
-1.82242
 20
310.711
 11
-2.02254
 21
310.469
  0
LINE
  8
0
 10
-2.02254
 20
310.469
 11
-2.19077
 21
310.204
  0
LINE
  8
0
 10
-2.19077
 20
310.204
 11
-2.32443
 21
309.92
  0
LINE
  8
0
 10
-2.32443
 20
309.92
 11
-2.42145
 21
309.622
  0
LINE
  8
0
 10
-2.42145
 20
309.622
 11
-2.48029
 21
309.313
  0
LINE
  8
0
 10
-2.48029
 20
309.313
 11
-2.5
 21
309
  0
LINE
  8
0
 10
-2.5
 20
309
 11
-2.48029
 21
308.687
  0
LINE
  8
0
 10
-2.48029
 20
308.687
 11
-2.42145
 21
308.378
  0
LINE
  8
0
 10
-2.42145
 20
308.378
 11
-2.32443
 21
308.08
  0
LINE
  8
0
 10
-2.32443
 20
308.08
 11
-2.19077
 21
307.796
  0
LINE
  8
0
 10
-2.19077
 20
307.796
 11
-2.02254
 21
307.531
  0
LINE
  8
0
 10
-2.02254
 20
307.531
 11
-1.82242
 21
307.289
  0
LINE
  8
0
 10
-1.82242
 20
307.289
 11
-1.59355
 21
307.074
  0
LINE
  8
0
 10
-1.59355
 20
307.074
 11
-1.33955
 21
306.889
  0
LINE
  8
0
 10
-1.33955
 20
306.889
 11
-1.06444
 21
306.738
  0
LINE
  8
0
 10
-1.06444
 20
306.738
 11
-0.772537
 21
306.622
  0
LINE
  8
0
 10
-0.772537
 20
306.622
 11
-0.468445
 21
306.544
  0
LINE
  8
0
 10
-0.468445
 20
306.544
 11
-0.156967
 21
306.505
  0
LINE
  8
0
 10
-0.156967
 20
306.505
 11
0.156967
 21
306.505
  0
LINE
  8
0
 10
0.156967
 20
306.505
 11
0.468445
 21
306.544
  0
LINE
  8
0
 10
0.468445
 20
203.544
 11
0.772537
 21
203.622
  0
LINE
  8
0
 10
0.772537
 20
203.622
 11
1.06444
 21
203.738
  0
LINE
  8
0
 10
1.06444
 20
203.738
 11
1.33955
 21
203.889
  0
LINE
  8
0
 10
1.33955
 20
203.889
 11
1.59355
 21
204.074
  0
LINE
  8
0
 10
1.59355
 20
204.074
 11
1.82242
 21
204.289
  0
LINE
  8
0
 10
1.82242
 20
204.289
 11
2.02254
 21
204.531
  0
LINE
  8
0
 10
2.02254
 20
204.531
 11
2.19077
 21
204.796
  0
LINE
  8
0
 10
2.19077
 20
204.796
 11
2.32443
 21
205.08
  0
LINE
  8
0
 10
2.32443
 20
205.08
 11
2.42145
 21
205.378
  0
LINE
  8
0
 10
2.42145
 20
205.378
 11
2.48029
 21
205.687
  0
LINE
  8
0
 10
2.48029
 20
205.687
 11
2.5
 21
206
  0
LINE
  8
0
 10
2.5
 20
206
 11
2.48029
 21
206.313
  0
LINE
  8
0
 10
2.48029
 20
206.313
 11
2.42145
 21
206.622
  0
LINE
  8
0
 10
2.42145
 20
206.622
 11
2.32443
 21
206.92
  0
LINE
  8
0
 10
2.32443
 20
206.92
 11
2.19077
 21
207.204
  0
LINE
  8
0
 10
2.19077
 20
207.204
 11
2.02254
 21
207.469
  0
LINE
  8
0
 10
2.02254
 20
207.469
 11
1.82242
 21
207.711
  0
LINE
  8
0
 10
1.82242
 20
207.711
 11
1.59355
 21
207.926
  0
LINE
  8
0
 10
1.59355
 20
207.926
 11
1.33955
 21
208.111
  0
LINE
  8
0
 10
1.33955
 20
208.111
 11
1.06444
 21
208.262
  0
LINE
  8
0
 10
1.06444
 20
208.262
 11
0.772537
 21
208.378
  0
LINE
  8
0
 10
0.772537
 20
208.378
 11
0.468445
 21
208.456
  0
LINE
  8
0
 10
0.468445
 20
208.456
 11
0.156967
 21
208.495
  0
LINE
  8
0
 10
0.156967
 20
208.495
 11
-0.156967
 21
208.495
  0
LINE
  8
0
 10
-0.156967
 20
208.495
 11
-0.468445
 21
208.456
  0
LINE
  8
0
 10
-0.468445
 20
208.456
 11
-0.772537
 21
208.378
  0
LINE
  8
0
 10
-0.772537
 20
208.378
 11
-1.06444
 21
208.262
  0
LINE
  8
0
 10
-1.06444
 20
208.262
 11
-1.33955
 21
208.111
  0
LINE
  8
0
 10
-1.33955
 20
208.111
 11
-1.59355
 21
207.926
  0
LINE
  8
0
 10
-1.59355
 20
207.926
 11
-1.82242
 21
207.711
  0
LINE
  8
0
 10
-1.82242
 20
207.711
 11
-2.02254
 21
207.469
  0
LINE
  8
0
 10
-2.02254
 20
207.469
 11
-2.19077
 21
207.204
  0
LINE
  8
0
 10
-2.19077
 20
207.204
 11
-2.32443
 21
206.92
  0
LINE
  8
0
 10
-2.32443
 20
206.92
 11
-2.42145
 21
206.622
  0
LINE
  8
0
 10
-2.42145
 20
206.622
 11
-2.48029
 21
206.313
  0
LINE
  8
0
 10
-2.48029
 20
206.313
 11
-2.5
 21
206
  0
LINE
  8
0
 10
-2.5
 20
206
 11
-2.48029
 21
205.687
  0
LINE
  8
0
 10
-2.48029
 20
205.687
 11
-2.42145
 21
205.378
  0
LINE
  8
0
 10
-2.42145
 20
205.378
 11
-2.32443
 21
205.08
  0
LINE
  8
0
 10
-2.32443
 20
205.08
 11
-2.19077
 21
204.796
  0
LINE
  8
0
 10
-2.19077
 20
204.796
 11
-2.02254
 21
204.531
  0
LINE
  8
0
 10
-2.02254
 20
204.531
 11
-1.82242
 21
204.289
  0
LINE
  8
0
 10
-1.82242
 20
204.289
 11
-1.59355
 21
204.074
  0
LINE
  8
0
 10
-1.59355
 20
204.074
 11
-1.33955
 21
203.889
  0
LINE
  8
0
 10
-1.33955
 20
203.889
 11
-1.06444
 21
203.738
  0
LINE
  8
0
 10
-1.06444
 20
203.738
 11
-0.772537
 21
203.622
  0
LINE
  8
0
 10
-0.772537
 20
203.622
 11
-0.468445
 21
203.544
  0
LINE
  8
0
 10
-0.468445
 20
203.544
 11
-0.156967
 21
203.505
  0
LINE
  8
0
 10
-0.156967
 20
203.505
 11
0.156967
 21
203.505
  0
LINE
  8
0
 10
0.156967
 20
203.505
 11
0.468445
 21
203.544
  0
LINE
  8
0
 10
0.468445
 20
100.544
 11
0.772537
 21
100.622
  0
LINE
  8
0
 10
0.772537
 20
100.622
 11
1.06444
 21
100.738
  0
LINE
  8
0
 10
1.06444
 20
100.738
 11
1.33955
 21
100.889
  0
LINE
  8
0
 10
1.33955
 20
100.889
 11
1.59355
 21
101.074
  0
LINE
  8
0
 10
1.59355
 20
101.074
 11
1.82242
 21
101.289
  0
LINE
  8
0
 10
1.82242
 20
101.289
 11
2.02254
 21
101.531
  0
LINE
  8
0
 10
2.02254
 20
101.531
 11
2.19077
 21
101.796
  0
LINE
  8
0
 10
2.19077
 20
101.796
 11
2.32443
 21
102.08
  0
LINE
  8
0
 10
2.32443
 20
102.08
 11
2.42145
 21
102.378
  0
LINE
  8
0
 10
2.42145
 20
102.378
 11
2.48029
 21
102.687
  0
LINE
  8
0
 10
2.48029
 20
102.687
 11
2.5
 21
103
  0
LINE
  8
0
 10
2.5
 20
103
 11
2.48029
 21
103.313
  0
LINE
  8
0
 10
2.48029
 20
103.313
 11
2.42145
 21
103.622
  0
LINE
  8
0
 10
2.42145
 20
103.622
 11
2.32443
 21
103.92
  0
LINE
  8
0
 10
2.32443
 20
103.92
 11
2.19077
 21
104.204
  0
LINE
  8
0
 10
2.19077
 20
104.204
 11
2.02254
 21
104.469
  0
LINE
  8
0
 10
2.02254
 20
104.469
 11
1.82242
 21
104.711
  0
LINE
  8
0
 10
1.82242
 20
104.711
 11
1.59355
 21
104.926
  0
LINE
  8
0
 10
1.59355
 20
104.926
 11
1.33955
 21
105.111
  0
LINE
  8
0
 10
1.33955
 20
105.111
 11
1.06444
 21
105.262
  0
LINE
  8
0
 10
1.06444
 20
105.262
 11
0.772537
 21
105.378
  0
LINE
  8
0
 10
0.772537
 20
105.378
 11
0.468445
 21
105.456
  0
LINE
  8
0
 10
0.468445
 20
105.456
 11
0.156967
 21
105.495
  0
LINE
  8
0
 10
0.156967
 20
105.495
 11
-0.156967
 21
105.495
  0
LINE
  8
0
 10
-0.156967
 20
105.495
 11
-0.468445
 21
105.456
  0
LINE
  8
0
 10
-0.468445
 20
105.456
 11
-0.772537
 21
105.378
  0
LINE
  8
0
 10
-0.772537
 20
105.378
 11
-1.06444
 21
105.262
  0
LINE
  8
0
 10
-1.06444
 20
105.262
 11
-1.33955
 21
105.111
  0
LINE
  8
0
 10
-1.33955
 20
105.111
 11
-1.59355
 21
104.926
  0
LINE
  8
0
 10
-1.59355
 20
104.926
 11
-1.82242
 21
104.711
  0
LINE
  8
0
 10
-1.82242
 20
104.711
 11
-2.02254
 21
104.469
  0
LINE
  8
0
 10
-2.02254
 20
104.469
 11
-2.19077
 21
104.204
  0
LINE
  8
0
 10
-2.19077
 20
104.204
 11
-2.32443
 21
103.92
  0
LINE
  8
0
 10
-2.32443
 20
103.92
 11
-2.42145
 21
103.622
  0
LINE
  8
0
 10
-2.42145
 20
103.622
 11
-2.48029
 21
103.313
  0
LINE
  8
0
 10
-2.48029
 20
103.313
 11
-2.5
 21
103
  0
LINE
  8
0
 10
-2.5
 20
103
 11
-2.48029
 21
102.687
  0
LINE
  8
0
 10
-2.48029
 20
102.687
 11
-2.42145
 21
102.378
  0
LINE
  8
0
 10
-2.42145
 20
102.378
 11
-2.32443
 21
102.08
  0
LINE
  8
0
 10
-2.32443
 20
102.08
 11
-2.19077
 21
101.796
  0
LINE
  8
0
 10
-2.19077
 20
101.796
 11
-2.02254
 21
101.531
  0
LINE
  8
0
 10
-2.02254
 20
101.531
 11
-1.82242
 21
101.289
  0
LINE
  8
0
 10
-1.82242
 20
101.289
 11
-1.59355
 21
101.074
  0
LINE
  8
0
 10
-1.59355
 20
101.074
 11
-1.33955
 21
100.889
  0
LINE
  8
0
 10
-1.33955
 20
100.889
 11
-1.06444
 21
100.738
  0
LINE
  8
0
 10
-1.06444
 20
100.738
 11
-0.772537
 21
100.622
  0
LINE
  8
0
 10
-0.772537
 20
100.622
 11
-0.468445
 21
100.544
  0
LINE
  8
0
 10
-0.468445
 20
100.544
 11
-0.156967
 21
100.505
  0
LINE
  8
0
 10
-0.156967
 20
100.505
 11
0.156967
 21
100.505
  0
LINE
  8
0
 10
0.156967
 20
100.505
 11
0.468445
 21
100.544
  0
LINE
  8
0
 10
0.468445
 20
-2.4557
 11
0.772537
 21
-2.37764
  0
LINE
  8
0
 10
0.772537
 20
-2.37764
 11
1.06444
 21
-2.26205
  0
LINE
  8
0
 10
1.06444
 20
-2.26205
 11
1.33955
 21
-2.11081
  0
LINE
  8
0
 10
1.33955
 20
-2.11081
 11
1.59355
 21
-1.92627
  0
LINE
  8
0
 10
1.59355
 20
-1.92627
 11
1.82242
 21
-1.71136
  0
LINE
  8
0
 10
1.82242
 20
-1.71136
 11
2.02254
 21
-1.46945
  0
LINE
  8
0
 10
2.02254
 20
-1.46945
 11
2.19077
 21
-1.20438
  0
LINE
  8
0
 10
2.19077
 20
-1.20438
 11
2.32443
 21
-0.920303
  0
LINE
  8
0
 10
2.32443
 20
-0.920303
 11
2.42145
 21
-0.621719
  0
LINE
  8
0
 10
2.42145
 20
-0.621719
 11
2.48029
 21
-0.313324
  0
LINE
  8
0
 10
2.48029
 20
-0.313324
 11
2.5
 21
0
  0
LINE
  8
0
 10
2.5
 20
0
 11
2.48029
 21
0.313324
  0
LINE
  8
0
 10
2.48029
 20
0.313324
 11
2.42145
 21
0.621719
  0
LINE
  8
0
 10
2.42145
 20
0.621719
 11
2.32443
 21
0.920303
  0
LINE
  8
0
 10
2.32443
 20
0.920303
 11
2.19077
 21
1.20438
  0
LINE
  8
0
 10
2.19077
 20
1.20438
 11
2.02254
 21
1.46945
  0
LINE
  8
0
 10
2.02254
 20
1.46945
 11
1.82242
 21
1.71136
  0
LINE
  8
0
 10
1.82242
 20
1.71136
 11
1.59355
 21
1.92627
  0
LINE
  8
0
 10
1.59355
 20
1.92627
 11
1.33955
 21
2.11081
  0
LINE
  8
0
 10
1.33955
 20
2.11081
 11
1.06444
 21
2.26205
  0
LINE
  8
0
 10
1.06444
 20
2.26205
 11
0.772537
 21
2.37764
  0
LINE
  8
0
 10
0.772537
 20
2.37764
 11
0.468445
 21
2.4557
  0
LINE
  8
0
 10
0.468445
 20
2.4557
 11
0.156967
 21
2.49506
  0
LINE
  8
0
 10
0.156967
 20
2.49506
 11
-0.156967
 21
2.49506
  0
LINE
  8
0
 10
-0.156967
 20
2.49506
 11
-0.468445
 21
2.4557
  0
LINE
  8
0
 10
-0.468445
 20
2.4557
 11
-0.772537
 21
2.37764
  0
LINE
  8
0
 10
-0.772537
 20
2.37764
 11
-1.06444
 21
2.26205
  0
LINE
  8
0
 10
-1.06444
 20
2.26205
 11
-1.33955
 21
2.11081
  0
LINE
  8
0
 10
-1.33955
 20
2.11081
 11
-1.59355
 21
1.92627
  0
LINE
  8
0
 10
-1.59355
 20
1.92627
 11
-1.82242
 21
1.71136
  0
LINE
  8
0
 10
-1.82242
 20
1.71136
 11
-2.02254
 21
1.46945
  0
LINE
  8
0
 10
-2.02254
 20
1.46945
 11
-2.19077
 21
1.20438
  0
LINE
  8
0
 10
-2.19077
 20
1.20438
 11
-2.32443
 21
0.920303
  0
LINE
  8
0
 10
-2.32443
 20
0.920303
 11
-2.42145
 21
0.621719
  0
LINE
  8
0
 10
-2.42145
 20
0.621719
 11
-2.48029
 21
0.313324
  0
LINE
  8
0
 10
-2.48029
 20
0.313324
 11
-2.5
 21
0
  0
LINE
  8
0
 10
-2.5
 20
0
 11
-2.48029
 21
-0.313324
  0
LINE
  8
0
 10
-2.48029
 20
-0.313324
 11
-2.42145
 21
-0.621719
  0
LINE
  8
0
 10
-2.42145
 20
-0.621719
 11
-2.32443
 21
-0.920303
  0
LINE
  8
0
 10
-2.32443
 20
-0.920303
 11
-2.19077
 21
-1.20438
  0
LINE
  8
0
 10
-2.19077
 20
-1.20438
 11
-2.02254
 21
-1.46945
  0
LINE
  8
0
 10
-2.02254
 20
-1.46945
 11
-1.82242
 21
-1.71136
  0
LINE
  8
0
 10
-1.82242
 20
-1.71136
 11
-1.59355
 21
-1.92627
  0
LINE
  8
0
 10
-1.59355
 20
-1.92627
 11
-1.33955
 21
-2.11081
  0
LINE
  8
0
 10
-1.33955
 20
-2.11081
 11
-1.06444
 21
-2.26205
  0
LINE
  8
0
 10
-1.06444
 20
-2.26205
 11
-0.772537
 21
-2.37764
  0
LINE
  8
0
 10
-0.772537
 20
-2.37764
 11
-0.468445
 21
-2.4557
  0
LINE
  8
0
 10
-0.468445
 20
-2.4557
 11
-0.156967
 21
-2.49506
  0
LINE
  8
0
 10
-0.156967
 20
-2.49506
 11
0.156967
 21
-2.49506
  0
LINE
  8
0
 10
0.156967
 20
-2.49506
 11
0.468445
 21
-2.4557
  0
ENDSEC
  0
SECTION
  2
OBJECTS
  0
DICTIONARY
  0
ENDSEC
  0
EOF
