<?xml version="1.0" standalone="no"?>
<!DOCTYPE svg PUBLIC "-//W3C//DTD SVG 1.1//EN" "http://www.w3.org/Graphics/SVG/1.1/DTD/svg11.dtd">
<svg width="22mm" height="43mm" viewBox="-11 -43 22 43" xmlns="http://www.w3.org/2000/svg" version="1.1">
<title>OpenSCAD Model</title>
<path d="
M 11,-39.75 L 10.9803,-40.0633 L 10.9214,-40.3717 L 10.8244,-40.6703 L 10.6908,-40.9544 L 10.5225,-41.2195
 L 10.3224,-41.4614 L 10.0936,-41.6763 L 9.83955,-41.8608 L 9.56444,-42.0121 L 9.27254,-42.1276 L 8.96844,-42.2057
 L 8.65697,-42.2451 L -8.65697,-42.2451 L -8.96844,-42.2057 L -9.27254,-42.1276 L -9.56444,-42.0121 L -9.83955,-41.8608
 L -10.0936,-41.6763 L -10.3224,-41.4614 L -10.5225,-41.2195 L -10.6908,-40.9544 L -10.8244,-40.6703 L -10.9214,-40.3717
 L -10.9803,-40.0633 L -11,-39.75 L -11,-24.5 L 11,-24.5 z
M -7.59418,-37.2529 L -7.78107,-37.2766 L -7.96352,-37.3234 L -8.13866,-37.3927 L -8.30373,-37.4835 L -8.45613,-37.5942
 L -8.59344,-37.7232 L -8.71352,-37.8683 L -8.81445,-38.0274 L -8.89465,-38.1978 L -8.95287,-38.377 L -8.98816,-38.562
 L -9,-38.75 L -8.98816,-38.938 L -8.95287,-39.123 L -8.89465,-39.3022 L -8.81445,-39.4726 L -8.71352,-39.6317
 L -8.59344,-39.7768 L -8.45613,-39.9058 L -8.30373,-40.0165 L -8.13866,-40.1072 L -7.96352,-40.1766 L -7.78107,-40.2234
 L -7.59418,-40.247 L -7.40581,-40.247 L -7.21892,-40.2234 L -7.03647,-40.1766 L -6.86133,-40.1072 L -6.69626,-40.0165
 L -6.54385,-39.9058 L -6.40654,-39.7768 L -6.28647,-39.6317 L -6.18553,-39.4726 L -6.10533,-39.3022 L -6.04712,-39.123
 L -6.01183,-38.938 L -6,-38.75 L -6.01183,-38.562 L -6.04712,-38.377 L -6.10533,-38.1978 L -6.18553,-38.0274
 L -6.28647,-37.8683 L -6.40654,-37.7232 L -6.54385,-37.5942 L -6.69626,-37.4835 L -6.86133,-37.3927 L -7.03647,-37.3234
 L -7.21892,-37.2766 L -7.40581,-37.2529 z
M 7.40581,-37.2529 L 7.21892,-37.2766 L 7.03647,-37.3234 L 6.86133,-37.3927 L 6.69626,-37.4835 L 6.54385,-37.5942
 L 6.40654,-37.7232 L 6.28647,-37.8683 L 6.18553,-38.0274 L 6.10533,-38.1978 L 6.04712,-38.377 L 6.01183,-38.562
 L 6,-38.75 L 6.01183,-38.938 L 6.04712,-39.123 L 6.10533,-39.3022 L 6.18553,-39.4726 L 6.28647,-39.6317
 L 6.40654,-39.7768 L 6.54385,-39.9058 L 6.69626,-40.0165 L 6.86133,-40.1072 L 7.03647,-40.1766 L 7.21892,-40.2234
 L 7.40581,-40.247 L 7.59418,-40.247 L 7.78107,-40.2234 L 7.96352,-40.1766 L 8.13866,-40.1072 L 8.30373,-40.0165
 L 8.45613,-39.9058 L 8.59344,-39.7768 L 8.71352,-39.6317 L 8.81445,-39.4726 L 8.89465,-39.3022 L 8.95287,-39.123
 L 8.98816,-38.938 L 9,-38.75 L 8.98816,-38.562 L 8.95287,-38.377 L 8.89465,-38.1978 L 8.81445,-38.0274
 L 8.71352,-37.8683 L 8.59344,-37.7232 L 8.45613,-37.5942 L 8.30373,-37.4835 L 8.13866,-37.3927 L 7.96352,-37.3234
 L 7.78107,-37.2766 L 7.59418,-37.2529 z
M -0.0941772,-37.2529 L -0.281067,-37.2766 L -0.463516,-37.3234 L -0.638657,-37.3927 L -0.803726,-37.4835 L -0.956131,-37.5942
 L -1.09344,-37.7232 L -1.21352,-37.8683 L -1.31445,-38.0274 L -1.39465,-38.1978 L -1.45287,-38.377 L -1.48816,-38.562
 L -1.5,-38.75 L -1.48816,-38.938 L -1.45287,-39.123 L -1.39465,-39.3022 L -1.31445,-39.4726 L -1.21352,-39.6317
 L -1.09344,-39.7768 L -0.956131,-39.9058 L -0.803726,-40.0165 L -0.638657,-40.1072 L -0.463516,-40.1766 L -0.281067,-40.2234
 L -0.0941772,-40.247 L 0.0941772,-40.247 L 0.281067,-40.2234 L 0.463516,-40.1766 L 0.638657,-40.1072 L 0.803726,-40.0165
 L 0.956131,-39.9058 L 1.09344,-39.7768 L 1.21352,-39.6317 L 1.31445,-39.4726 L 1.39465,-39.3022 L 1.45287,-39.123
 L 1.48816,-38.938 L 1.5,-38.75 L 1.48816,-38.562 L 1.45287,-38.377 L 1.39465,-38.1978 L 1.31445,-38.0274
 L 1.21352,-37.8683 L 1.09344,-37.7232 L 0.956131,-37.5942 L 0.803726,-37.4835 L 0.638657,-37.3927 L 0.463516,-37.3234
 L 0.281067,-37.2766 L 0.0941772,-37.2529 z
M -0.0941772,-29.7529 L -0.281067,-29.7766 L -0.463516,-29.8234 L -0.638657,-29.8927 L -0.803726,-29.9835 L -0.956131,-30.0942
 L -1.09344,-30.2232 L -1.21352,-30.3683 L -1.31445,-30.5274 L -1.39465,-30.6978 L -1.45287,-30.877 L -1.48816,-31.062
 L -1.5,-31.25 L -1.48816,-31.438 L -1.45287,-31.623 L -1.39465,-31.8022 L -1.31445,-31.9726 L -1.21352,-32.1317
 L -1.09344,-32.2768 L -0.956131,-32.4058 L -0.803726,-32.5165 L -0.638657,-32.6072 L -0.463516,-32.6766 L -0.281067,-32.7234
 L -0.0941772,-32.747 L 0.0941772,-32.747 L 0.281067,-32.7234 L 0.463516,-32.6766 L 0.638657,-32.6072 L 0.803726,-32.5165
 L 0.956131,-32.4058 L 1.09344,-32.2768 L 1.21352,-32.1317 L 1.31445,-31.9726 L 1.39465,-31.8022 L 1.45287,-31.623
 L 1.48816,-31.438 L 1.5,-31.25 L 1.48816,-31.062 L 1.45287,-30.877 L 1.39465,-30.6978 L 1.31445,-30.5274
 L 1.21352,-30.3683 L 1.09344,-30.2232 L 0.956131,-30.0942 L 0.803726,-29.9835 L 0.638657,-29.8927 L 0.463516,-29.8234
 L 0.281067,-29.7766 L 0.0941772,-29.7529 z
M -7.59418,-29.7529 L -7.78107,-29.7766 L -7.96352,-29.8234 L -8.13866,-29.8927 L -8.30373,-29.9835 L -8.45613,-30.0942
 L -8.59344,-30.2232 L -8.71352,-30.3683 L -8.81445,-30.5274 L -8.89465,-30.6978 L -8.95287,-30.877 L -8.98816,-31.062
 L -9,-31.25 L -8.98816,-31.438 L -8.95287,-31.623 L -8.89465,-31.8022 L -8.81445,-31.9726 L -8.71352,-32.1317
 L -8.59344,-32.2768 L -8.45613,-32.4058 L -8.30373,-32.5165 L -8.13866,-32.6072 L -7.96352,-32.6766 L -7.78107,-32.7234
 L -7.59418,-32.747 L -7.40581,-32.747 L -7.21892,-32.7234 L -7.03647,-32.6766 L -6.86133,-32.6072 L -6.69626,-32.5165
 L -6.54385,-32.4058 L -6.40654,-32.2768 L -6.28647,-32.1317 L -6.18553,-31.9726 L -6.10533,-31.8022 L -6.04712,-31.623
 L -6.01183,-31.438 L -6,-31.25 L -6.01183,-31.062 L -6.04712,-30.877 L -6.10533,-30.6978 L -6.18553,-30.5274
 L -6.28647,-30.3683 L -6.40654,-30.2232 L -6.54385,-30.0942 L -6.69626,-29.9835 L -6.86133,-29.8927 L -7.03647,-29.8234
 L -7.21892,-29.7766 L -7.40581,-29.7529 z
M 7.40581,-29.7529 L 7.21892,-29.7766 L 7.03647,-29.8234 L 6.86133,-29.8927 L 6.69626,-29.9835 L 6.54385,-30.0942
 L 6.40654,-30.2232 L 6.28647,-30.3683 L 6.18553,-30.5274 L 6.10533,-30.6978 L 6.04712,-30.877 L 6.01183,-31.062
 L 6,-31.25 L 6.01183,-31.438 L 6.04712,-31.623 L 6.10533,-31.8022 L 6.18553,-31.9726 L 6.28647,-32.1317
 L 6.40654,-32.2768 L 6.54385,-32.4058 L 6.69626,-32.5165 L 6.86133,-32.6072 L 7.03647,-32.6766 L 7.21892,-32.7234
 L 7.40581,-32.747 L 7.59418,-32.747 L 7.78107,-32.7234 L 7.96352,-32.6766 L 8.13866,-32.6072 L 8.30373,-32.5165
 L 8.45613,-32.4058 L 8.59344,-32.2768 L 8.71352,-32.1317 L 8.81445,-31.9726 L 8.89465,-31.8022 L 8.95287,-31.623
 L 8.98816,-31.438 L 9,-31.25 L 8.98816,-31.062 L 8.95287,-30.877 L 8.89465,-30.6978 L 8.81445,-30.5274
 L 8.71352,-30.3683 L 8.59344,-30.2232 L 8.45613,-30.0942 L 8.30373,-29.9835 L 8.13866,-29.8927 L 7.96352,-29.8234
 L 7.78107,-29.7766 L 7.59418,-29.7529 z
M 3.69975,-30.4516 L 3.60008,-30.4642 L 3.50278,-30.4892 L 3.40936,-30.5261 L 3.32133,-30.5745 L 3.24005,-30.6336
 L 3.16682,-30.7024 L 3.10278,-30.7798 L 3.04895,-30.8646 L 3.00616,-30.9555 L 2.97513,-31.051 L 2.9563,-31.1497
 L 2.95,-31.25 L 2.9563,-31.3503 L 2.97513,-31.4489 L 3.00616,-31.5445 L 3.04895,-31.6354 L 3.10278,-31.7202
 L 3.16682,-31.7976 L 3.24005,-31.8664 L 3.32133,-31.9255 L 3.40936,-31.9738 L 3.50278,-32.0108 L 3.60008,-32.0358
 L 3.69975,-32.0484 L 3.80023,-32.0484 L 3.8999,-32.0358 L 3.99721,-32.0108 L 4.09062,-31.9738 L 4.17865,-31.9255
 L 4.25993,-31.8664 L 4.33316,-31.7976 L 4.3972,-31.7202 L 4.45103,-31.6354 L 4.49382,-31.5445 L 4.52486,-31.4489
 L 4.54369,-31.3503 L 4.54999,-31.25 L 4.54369,-31.1497 L 4.52486,-31.051 L 4.49382,-30.9555 L 4.45103,-30.8646
 L 4.3972,-30.7798 L 4.33316,-30.7024 L 4.25993,-30.6336 L 4.17865,-30.5745 L 4.09062,-30.5261 L 3.99721,-30.4892
 L 3.8999,-30.4642 L 3.80023,-30.4516 z
M -3.80023,-30.4516 L -3.8999,-30.4642 L -3.99721,-30.4892 L -4.09062,-30.5261 L -4.17865,-30.5745 L -4.25993,-30.6336
 L -4.33316,-30.7024 L -4.3972,-30.7798 L -4.45103,-30.8646 L -4.49382,-30.9555 L -4.52486,-31.051 L -4.54369,-31.1497
 L -4.54999,-31.25 L -4.54369,-31.3503 L -4.52486,-31.4489 L -4.49382,-31.5445 L -4.45103,-31.6354 L -4.3972,-31.7202
 L -4.33316,-31.7976 L -4.25993,-31.8664 L -4.17865,-31.9255 L -4.09062,-31.9738 L -3.99721,-32.0108 L -3.8999,-32.0358
 L -3.80023,-32.0484 L -3.69975,-32.0484 L -3.60008,-32.0358 L -3.50278,-32.0108 L -3.40936,-31.9738 L -3.32133,-31.9255
 L -3.24005,-31.8664 L -3.16682,-31.7976 L -3.10278,-31.7202 L -3.04895,-31.6354 L -3.00616,-31.5445 L -2.97513,-31.4489
 L -2.9563,-31.3503 L -2.95,-31.25 L -2.9563,-31.1497 L -2.97513,-31.051 L -3.00616,-30.9555 L -3.04895,-30.8646
 L -3.10278,-30.7798 L -3.16682,-30.7024 L -3.24005,-30.6336 L -3.32133,-30.5745 L -3.40936,-30.5261 L -3.50278,-30.4892
 L -3.60008,-30.4642 L -3.69975,-30.4516 z
M -2.72536,-26 L -2.72536,-28.5 L 2.72536,-28.5 L 2.72536,-26 z
M -10.2254,-26 L -10.2254,-28.5 L -4.77463,-28.5 L -4.77463,-26 z
M 4.77463,-26 L 4.77463,-28.5 L 10.2254,-28.5 L 10.2254,-26 z
M 11,-15.25 L 10.9803,-15.5633 L 10.9214,-15.8717 L 10.8244,-16.1703 L 10.6908,-16.4544 L 10.5225,-16.7195
 L 10.3224,-16.9614 L 10.0936,-17.1763 L 9.83955,-17.3608 L 9.56444,-17.5121 L 9.27254,-17.6276 L 8.96844,-17.7057
 L 8.65697,-17.7451 L -8.65697,-17.7451 L -8.96844,-17.7057 L -9.27254,-17.6276 L -9.56444,-17.5121 L -9.83955,-17.3608
 L -10.0936,-17.1763 L -10.3224,-16.9614 L -10.5225,-16.7195 L -10.6908,-16.4544 L -10.8244,-16.1703 L -10.9214,-15.8717
 L -10.9803,-15.5633 L -11,-15.25 L -11,-0 L 11,-0 z
M -7.59418,-12.7529 L -7.78107,-12.7766 L -7.96352,-12.8234 L -8.13866,-12.8927 L -8.30373,-12.9835 L -8.45613,-13.0942
 L -8.59344,-13.2232 L -8.71352,-13.3683 L -8.81445,-13.5274 L -8.89465,-13.6978 L -8.95287,-13.877 L -8.98816,-14.062
 L -9,-14.25 L -8.98816,-14.438 L -8.95287,-14.623 L -8.89465,-14.8022 L -8.81445,-14.9726 L -8.71352,-15.1317
 L -8.59344,-15.2768 L -8.45613,-15.4058 L -8.30373,-15.5165 L -8.13866,-15.6072 L -7.96352,-15.6766 L -7.78107,-15.7234
 L -7.59418,-15.747 L -7.40581,-15.747 L -7.21892,-15.7234 L -7.03647,-15.6766 L -6.86133,-15.6072 L -6.69626,-15.5165
 L -6.54385,-15.4058 L -6.40654,-15.2768 L -6.28647,-15.1317 L -6.18553,-14.9726 L -6.10533,-14.8022 L -6.04712,-14.623
 L -6.01183,-14.438 L -6,-14.25 L -6.01183,-14.062 L -6.04712,-13.877 L -6.10533,-13.6978 L -6.18553,-13.5274
 L -6.28647,-13.3683 L -6.40654,-13.2232 L -6.54385,-13.0942 L -6.69626,-12.9835 L -6.86133,-12.8927 L -7.03647,-12.8234
 L -7.21892,-12.7766 L -7.40581,-12.7529 z
M 7.40581,-12.7529 L 7.21892,-12.7766 L 7.03647,-12.8234 L 6.86133,-12.8927 L 6.69626,-12.9835 L 6.54385,-13.0942
 L 6.40654,-13.2232 L 6.28647,-13.3683 L 6.18553,-13.5274 L 6.10533,-13.6978 L 6.04712,-13.877 L 6.01183,-14.062
 L 6,-14.25 L 6.01183,-14.438 L 6.04712,-14.623 L 6.10533,-14.8022 L 6.18553,-14.9726 L 6.28647,-15.1317
 L 6.40654,-15.2768 L 6.54385,-15.4058 L 6.69626,-15.5165 L 6.86133,-15.6072 L 7.03647,-15.6766 L 7.21892,-15.7234
 L 7.40581,-15.747 L 7.59418,-15.747 L 7.78107,-15.7234 L 7.96352,-15.6766 L 8.13866,-15.6072 L 8.30373,-15.5165
 L 8.45613,-15.4058 L 8.59344,-15.2768 L 8.71352,-15.1317 L 8.81445,-14.9726 L 8.89465,-14.8022 L 8.95287,-14.623
 L 8.98816,-14.438 L 9,-14.25 L 8.98816,-14.062 L 8.95287,-13.877 L 8.89465,-13.6978 L 8.81445,-13.5274
 L 8.71352,-13.3683 L 8.59344,-13.2232 L 8.45613,-13.0942 L 8.30373,-12.9835 L 8.13866,-12.8927 L 7.96352,-12.8234
 L 7.78107,-12.7766 L 7.59418,-12.7529 z
M -0.0941772,-12.7529 L -0.281067,-12.7766 L -0.463516,-12.8234 L -0.638657,-12.8927 L -0.803726,-12.9835 L -0.956131,-13.0942
 L -1.09344,-13.2232 L -1.21352,-13.3683 L -1.31445,-13.5274 L -1.39465,-13.6978 L -1.45287,-13.877 L -1.48816,-14.062
 L -1.5,-14.25 L -1.48816,-14.438 L -1.45287,-14.623 L -1.39465,-14.8022 L -1.31445,-14.9726 L -1.21352,-15.1317
 L -1.09344,-15.2768 L -0.956131,-15.4058 L -0.803726,-15.5165 L -0.638657,-15.6072 L -0.463516,-15.6766 L -0.281067,-15.7234
 L -0.0941772,-15.747 L 0.0941772,-15.747 L 0.281067,-15.7234 L 0.463516,-15.6766 L 0.638657,-15.6072 L 0.803726,-15.5165
 L 0.956131,-15.4058 L 1.09344,-15.2768 L 1.21352,-15.1317 L 1.31445,-14.9726 L 1.39465,-14.8022 L 1.45287,-14.623
 L 1.48816,-14.438 L 1.5,-14.25 L 1.48816,-14.062 L 1.45287,-13.877 L 1.39465,-13.6978 L 1.31445,-13.5274
 L 1.21352,-13.3683 L 1.09344,-13.2232 L 0.956131,-13.0942 L 0.803726,-12.9835 L 0.638657,-12.8927 L 0.463516,-12.8234
 L 0.281067,-12.7766 L 0.0941772,-12.7529 z
M -7.59418,-5.25294 L -7.78107,-5.27657 L -7.96352,-5.32341 L -8.13866,-5.39275 L -8.30373,-5.48351 L -8.45613,-5.59422
 L -8.59344,-5.72318 L -8.71352,-5.86832 L -8.81445,-6.02736 L -8.89465,-6.1978 L -8.95287,-6.37695 L -8.98816,-6.562
 L -9,-6.75 L -8.98816,-6.93799 L -8.95287,-7.12303 L -8.89465,-7.30219 L -8.81445,-7.47263 L -8.71352,-7.63167
 L -8.59344,-7.77681 L -8.45613,-7.90576 L -8.30373,-8.01648 L -8.13866,-8.10724 L -7.96352,-8.17657 L -7.78107,-8.22342
 L -7.59418,-8.24704 L -7.40581,-8.24704 L -7.21892,-8.22342 L -7.03647,-8.17657 L -6.86133,-8.10724 L -6.69626,-8.01648
 L -6.54385,-7.90576 L -6.40654,-7.77681 L -6.28647,-7.63167 L -6.18553,-7.47263 L -6.10533,-7.30219 L -6.04712,-7.12303
 L -6.01183,-6.93799 L -6,-6.75 L -6.01183,-6.562 L -6.04712,-6.37695 L -6.10533,-6.1978 L -6.18553,-6.02736
 L -6.28647,-5.86832 L -6.40654,-5.72318 L -6.54385,-5.59422 L -6.69626,-5.48351 L -6.86133,-5.39275 L -7.03647,-5.32341
 L -7.21892,-5.27657 L -7.40581,-5.25294 z
M -0.0941772,-5.25294 L -0.281067,-5.27657 L -0.463516,-5.32341 L -0.638657,-5.39275 L -0.803726,-5.48351 L -0.956131,-5.59422
 L -1.09344,-5.72318 L -1.21352,-5.86832 L -1.31445,-6.02736 L -1.39465,-6.1978 L -1.45287,-6.37695 L -1.48816,-6.562
 L -1.5,-6.75 L -1.48816,-6.93799 L -1.45287,-7.12303 L -1.39465,-7.30219 L -1.31445,-7.47263 L -1.21352,-7.63167
 L -1.09344,-7.77681 L -0.956131,-7.90576 L -0.803726,-8.01648 L -0.638657,-8.10724 L -0.463516,-8.17657 L -0.281067,-8.22342
 L -0.0941772,-8.24704 L 0.0941772,-8.24704 L 0.281067,-8.22342 L 0.463516,-8.17657 L 0.638657,-8.10724 L 0.803726,-8.01648
 L 0.956131,-7.90576 L 1.09344,-7.77681 L 1.21352,-7.63167 L 1.31445,-7.47263 L 1.39465,-7.30219 L 1.45287,-7.12303
 L 1.48816,-6.93799 L 1.5,-6.75 L 1.48816,-6.562 L 1.45287,-6.37695 L 1.39465,-6.1978 L 1.31445,-6.02736
 L 1.21352,-5.86832 L 1.09344,-5.72318 L 0.956131,-5.59422 L 0.803726,-5.48351 L 0.638657,-5.39275 L 0.463516,-5.32341
 L 0.281067,-5.27657 L 0.0941772,-5.25294 z
M 7.40581,-5.25294 L 7.21892,-5.27657 L 7.03647,-5.32341 L 6.86133,-5.39275 L 6.69626,-5.48351 L 6.54385,-5.59422
 L 6.40654,-5.72318 L 6.28647,-5.86832 L 6.18553,-6.02736 L 6.10533,-6.1978 L 6.04712,-6.37695 L 6.01183,-6.562
 L 6,-6.75 L 6.01183,-6.93799 L 6.04712,-7.12303 L 6.10533,-7.30219 L 6.18553,-7.47263 L 6.28647,-7.63167
 L 6.40654,-7.77681 L 6.54385,-7.90576 L 6.69626,-8.01648 L 6.86133,-8.10724 L 7.03647,-8.17657 L 7.21892,-8.22342
 L 7.40581,-8.24704 L 7.59418,-8.24704 L 7.78107,-8.22342 L 7.96352,-8.17657 L 8.13866,-8.10724 L 8.30373,-8.01648
 L 8.45613,-7.90576 L 8.59344,-7.77681 L 8.71352,-7.63167 L 8.81445,-7.47263 L 8.89465,-7.30219 L 8.95287,-7.12303
 L 8.98816,-6.93799 L 9,-6.75 L 8.98816,-6.562 L 8.95287,-6.37695 L 8.89465,-6.1978 L 8.81445,-6.02736
 L 8.71352,-5.86832 L 8.59344,-5.72318 L 8.45613,-5.59422 L 8.30373,-5.48351 L 8.13866,-5.39275 L 7.96352,-5.32341
 L 7.78107,-5.27657 L 7.59418,-5.25294 z
M 3.69975,-5.95157 L 3.60008,-5.96416 L 3.50278,-5.98915 L 3.40936,-6.02614 L 3.32133,-6.07452 L 3.24005,-6.13358
 L 3.16682,-6.20236 L 3.10278,-6.27977 L 3.04895,-6.36459 L 3.00616,-6.45549 L 2.97513,-6.55104 L 2.9563,-6.64972
 L 2.95,-6.75 L 2.9563,-6.85027 L 2.97513,-6.94894 L 3.00616,-7.04449 L 3.04895,-7.13539 L 3.10278,-7.22021
 L 3.16682,-7.29762 L 3.24005,-7.36641 L 3.32133,-7.42546 L 3.40936,-7.47385 L 3.50278,-7.51083 L 3.60008,-7.53583
 L 3.69975,-7.54842 L 3.80023,-7.54842 L 3.8999,-7.53583 L 3.99721,-7.51083 L 4.09062,-7.47385 L 4.17865,-7.42546
 L 4.25993,-7.36641 L 4.33316,-7.29762 L 4.3972,-7.22021 L 4.45103,-7.13539 L 4.49382,-7.04449 L 4.52486,-6.94894
 L 4.54369,-6.85027 L 4.54999,-6.75 L 4.54369,-6.64972 L 4.52486,-6.55104 L 4.49382,-6.45549 L 4.45103,-6.36459
 L 4.3972,-6.27977 L 4.33316,-6.20236 L 4.25993,-6.13358 L 4.17865,-6.07452 L 4.09062,-6.02614 L 3.99721,-5.98915
 L 3.8999,-5.96416 L 3.80023,-5.95157 z
M -3.80023,-5.95157 L -3.8999,-5.96416 L -3.99721,-5.98915 L -4.09062,-6.02614 L -4.17865,-6.07452 L -4.25993,-6.13358
 L -4.33316,-6.20236 L -4.3972,-6.27977 L -4.45103,-6.36459 L -4.49382,-6.45549 L -4.52486,-6.55104 L -4.54369,-6.64972
 L -4.54999,-6.75 L -4.54369,-6.85027 L -4.52486,-6.94894 L -4.49382,-7.04449 L -4.45103,-7.13539 L -4.3972,-7.22021
 L -4.33316,-7.29762 L -4.25993,-7.36641 L -4.17865,-7.42546 L -4.09062,-7.47385 L -3.99721,-7.51083 L -3.8999,-7.53583
 L -3.80023,-7.54842 L -3.69975,-7.54842 L -3.60008,-7.53583 L -3.50278,-7.51083 L -3.40936,-7.47385 L -3.32133,-7.42546
 L -3.24005,-7.36641 L -3.16682,-7.29762 L -3.10278,-7.22021 L -3.04895,-7.13539 L -3.00616,-7.04449 L -2.97513,-6.94894
 L -2.9563,-6.85027 L -2.95,-6.75 L -2.9563,-6.64972 L -2.97513,-6.55104 L -3.00616,-6.45549 L -3.04895,-6.36459
 L -3.10278,-6.27977 L -3.16682,-6.20236 L -3.24005,-6.13358 L -3.32133,-6.07452 L -3.40936,-6.02614 L -3.50278,-5.98915
 L -3.60008,-5.96416 L -3.69975,-5.95157 z
M -10.2483,-1.5 L -10.2483,-4 L -4.75166,-4 L -4.75166,-1.5 z
M -2.74832,-1.5 L -2.74832,-4 L 2.74832,-4 L 2.74832,-1.5 z
M 4.75166,-1.5 L 4.75166,-4 L 10.2483,-4 L 10.2483,-1.5 z
" stroke="black" fill="lightgray" stroke-width="0.5"/>
</svg>
