<?xml version="1.0" standalone="no"?>
<!DOCTYPE svg PUBLIC "-//W3C//DTD SVG 1.1//EN" "http://www.w3.org/Graphics/SVG/1.1/DTD/svg11.dtd">
<svg width="4mm" height="224mm" viewBox="-2 -222 4 224" xmlns="http://www.w3.org/2000/svg" version="1.1">
<title>OpenSCAD Model</title>
<path d="
M 0.281067,-218.527 L 0.463516,-218.573 L 0.638657,-218.643 L 0.803726,-218.734 L 0.956131,-218.844 L 1.09344,-218.973
 L 1.21352,-219.118 L 1.31445,-219.277 L 1.39465,-219.448 L 1.45287,-219.627 L 1.48816,-219.812 L 1.5,-220
 L 1.48816,-220.188 L 1.45287,-220.373 L 1.39465,-220.552 L 1.31445,-220.723 L 1.21352,-220.882 L 1.09344,-221.027
 L 0.956131,-221.156 L 0.803726,-221.266 L 0.638657,-221.357 L 0.463516,-221.427 L 0.281067,-221.473 L 0.0941772,-221.497
 L -0.0941772,-221.497 L -0.281067,-221.473 L -0.463516,-221.427 L -0.638657,-221.357 L -0.803726,-221.266 L -0.956131,-221.156
 L -1.09344,-221.027 L -1.21352,-220.882 L -1.31445,-220.723 L -1.39465,-220.552 L -1.45287,-220.373 L -1.48816,-220.188
 L -1.5,-220 L -1.48816,-219.812 L -1.45287,-219.627 L -1.39465,-219.448 L -1.31445,-219.277 L -1.21352,-219.118
 L -1.09344,-218.973 L -0.956131,-218.844 L -0.803726,-218.734 L -0.638657,-218.643 L -0.463516,-218.573 L -0.281067,-218.527
 L -0.0941772,-218.503 L 0.0941772,-218.503 z
M 0.281067,-108.527 L 0.463516,-108.573 L 0.638657,-108.643 L 0.803726,-108.734 L 0.956131,-108.844 L 1.09344,-108.973
 L 1.21352,-109.118 L 1.31445,-109.277 L 1.39465,-109.448 L 1.45287,-109.627 L 1.48816,-109.812 L 1.5,-110
 L 1.48816,-110.188 L 1.45287,-110.373 L 1.39465,-110.552 L 1.31445,-110.723 L 1.21352,-110.882 L 1.09344,-111.027
 L 0.956131,-111.156 L 0.803726,-111.266 L 0.638657,-111.357 L 0.463516,-111.427 L 0.281067,-111.473 L 0.0941772,-111.497
 L -0.0941772,-111.497 L -0.281067,-111.473 L -0.463516,-111.427 L -0.638657,-111.357 L -0.803726,-111.266 L -0.956131,-111.156
 L -1.09344,-111.027 L -1.21352,-110.882 L -1.31445,-110.723 L -1.39465,-110.552 L -1.45287,-110.373 L -1.48816,-110.188
 L -1.5,-110 L -1.48816,-109.812 L -1.45287,-109.627 L -1.39465,-109.448 L -1.31445,-109.277 L -1.21352,-109.118
 L -1.09344,-108.973 L -0.956131,-108.844 L -0.803726,-108.734 L -0.638657,-108.643 L -0.463516,-108.573 L -0.281067,-108.527
 L -0.0941772,-108.503 L 0.0941772,-108.503 z
M 0.281067,1.47342 L 0.463516,1.42657 L 0.638657,1.35724 L 0.803726,1.26648 L 0.956131,1.15576 L 1.09344,1.02681
 L 1.21352,0.881668 L 1.31445,0.722626 L 1.39465,0.552185 L 1.45287,0.373032 L 1.48816,0.187988 L 1.5,-0
 L 1.48816,-0.187988 L 1.45287,-0.373032 L 1.39465,-0.552185 L 1.31445,-0.722626 L 1.21352,-0.881668 L 1.09344,-1.02681
 L 0.956131,-1.15576 L 0.803726,-1.26648 L 0.638657,-1.35724 L 0.463516,-1.42657 L 0.281067,-1.47342 L 0.0941772,-1.49704
 L -0.0941772,-1.49704 L -0.281067,-1.47342 L -0.463516,-1.42657 L -0.638657,-1.35724 L -0.803726,-1.26648 L -0.956131,-1.15576
 L -1.09344,-1.02681 L -1.21352,-0.881668 L -1.31445,-0.722626 L -1.39465,-0.552185 L -1.45287,-0.373032 L -1.48816,-0.187988
 L -1.5,-0 L -1.48816,0.187988 L -1.45287,0.373032 L -1.39465,0.552185 L -1.31445,0.722626 L -1.21352,0.881668
 L -1.09344,1.02681 L -0.956131,1.15576 L -0.803726,1.26648 L -0.638657,1.35724 L -0.463516,1.42657 L -0.281067,1.47342
 L -0.0941772,1.49704 L 0.0941772,1.49704 z
" stroke="black" fill="lightgray" stroke-width="0.5"/>
</svg>
