<?xml version="1.0" standalone="no"?>
<!DOCTYPE svg PUBLIC "-//W3C//DTD SVG 1.1//EN" "http://www.w3.org/Graphics/SVG/1.1/DTD/svg11.dtd">
<svg width="44mm" height="44mm" viewBox="-22 -22 44 44" xmlns="http://www.w3.org/2000/svg" version="1.1">
<title>OpenSCAD Model</title>
<path d="
M 4.02869,21.1192 L 6.64386,20.4477 L 9.15425,19.4538 L 11.5203,18.153 L 13.7046,16.566 L 15.6728,14.7178
 L 17.3939,12.6374 L 18.8406,10.3577 L 19.9902,7.91467 L 20.8245,5.34683 L 21.3305,2.69466 L 21.5,-0
 L 21.3305,-2.69466 L 20.8245,-5.34683 L 19.9902,-7.91467 L 18.8406,-10.3577 L 17.3939,-12.6374 L 15.6728,-14.7178
 L 13.7046,-16.566 L 11.5203,-18.153 L 9.15425,-19.4538 L 6.64386,-20.4477 L 4.02869,-21.1192 L 1.34999,-21.4576
 L -1.34999,-21.4576 L -4.02869,-21.1192 L -6.64386,-20.4477 L -9.15425,-19.4538 L -11.5203,-18.153 L -13.7046,-16.566
 L -15.6728,-14.7178 L -17.3939,-12.6374 L -18.8406,-10.3577 L -19.9902,-7.91467 L -20.8245,-5.34683 L -21.3305,-2.69466
 L -21.5,-0 L -21.3305,2.69466 L -20.8245,5.34683 L -19.9902,7.91467 L -18.8406,10.3577 L -17.3939,12.6374
 L -15.6728,14.7178 L -13.7046,16.566 L -11.5203,18.153 L -9.15425,19.4538 L -6.64386,20.4477 L -4.02869,21.1192
 L -1.34999,21.4576 L 1.34999,21.4576 z
M -0.18837,-12.0059 L -0.562134,-12.0531 L -0.927048,-12.1468 L -1.27733,-12.2855 L -1.60747,-12.467 L -1.91226,-12.6884
 L -2.1869,-12.9464 L -2.42705,-13.2366 L -2.62891,-13.5547 L -2.78932,-13.8956 L -2.90575,-14.2539 L -2.97633,-14.624
 L -3,-15 L -2.97633,-15.376 L -2.90575,-15.7461 L -2.78932,-16.1044 L -2.62891,-16.4453 L -2.42705,-16.7634
 L -2.1869,-17.0536 L -1.91226,-17.3115 L -1.60747,-17.533 L -1.27733,-17.7145 L -0.927048,-17.8532 L -0.562134,-17.9469
 L -0.18837,-17.9941 L 0.18837,-17.9941 L 0.562134,-17.9469 L 0.927048,-17.8532 L 1.27733,-17.7145 L 1.60747,-17.533
 L 1.91226,-17.3115 L 2.1869,-17.0536 L 2.42705,-16.7634 L 2.62891,-16.4453 L 2.78932,-16.1044 L 2.90575,-15.7461
 L 2.97633,-15.376 L 3,-15 L 2.97633,-14.624 L 2.90575,-14.2539 L 2.78932,-13.8956 L 2.62891,-13.5547
 L 2.42705,-13.2366 L 2.1869,-12.9464 L 1.91226,-12.6884 L 1.60747,-12.467 L 1.27733,-12.2855 L 0.927048,-12.1468
 L 0.562134,-12.0531 L 0.18837,-12.0059 z
M 10.4186,-7.61292 L 10.0448,-7.66013 L 9.67995,-7.75383 L 9.32965,-7.89252 L 8.99951,-8.07401 L 8.69472,-8.29546
 L 8.42009,-8.55334 L 8.17995,-8.84364 L 7.97807,-9.16173 L 7.81766,-9.50262 L 7.70125,-9.86092 L 7.63065,-10.231
 L 7.60699,-10.607 L 7.63065,-10.983 L 7.70125,-11.3531 L 7.81766,-11.7114 L 7.97807,-12.0522 L 8.17995,-12.3703
 L 8.42009,-12.6606 L 8.69472,-12.9185 L 8.99951,-13.14 L 9.32965,-13.3215 L 9.67995,-13.4602 L 10.0448,-13.5538
 L 10.4186,-13.6011 L 10.7954,-13.6011 L 11.1691,-13.5538 L 11.534,-13.4602 L 11.8843,-13.3215 L 12.2145,-13.14
 L 12.5193,-12.9185 L 12.7939,-12.6606 L 13.034,-12.3703 L 13.2359,-12.0522 L 13.3963,-11.7114 L 13.5127,-11.3531
 L 13.5833,-10.983 L 13.607,-10.607 L 13.5833,-10.231 L 13.5127,-9.86092 L 13.3963,-9.50262 L 13.2359,-9.16173
 L 13.034,-8.84364 L 12.7939,-8.55334 L 12.5193,-8.29546 L 12.2145,-8.07401 L 11.8843,-7.89252 L 11.534,-7.75383
 L 11.1691,-7.66013 L 10.7954,-7.61292 z
M -10.7954,-7.61292 L -11.1691,-7.66013 L -11.534,-7.75383 L -11.8843,-7.89252 L -12.2145,-8.07401 L -12.5193,-8.29546
 L -12.7939,-8.55334 L -13.034,-8.84364 L -13.2359,-9.16173 L -13.3963,-9.50262 L -13.5127,-9.86092 L -13.5833,-10.231
 L -13.607,-10.607 L -13.5833,-10.983 L -13.5127,-11.3531 L -13.3963,-11.7114 L -13.2359,-12.0522 L -13.034,-12.3703
 L -12.7939,-12.6606 L -12.5193,-12.9185 L -12.2145,-13.14 L -11.8843,-13.3215 L -11.534,-13.4602 L -11.1691,-13.5538
 L -10.7954,-13.6011 L -10.4186,-13.6011 L -10.0448,-13.5538 L -9.67995,-13.4602 L -9.32965,-13.3215 L -8.99951,-13.14
 L -8.69472,-12.9185 L -8.42009,-12.6606 L -8.17995,-12.3703 L -7.97807,-12.0522 L -7.81766,-11.7114 L -7.70125,-11.3531
 L -7.63065,-10.983 L -7.60699,-10.607 L -7.63065,-10.231 L -7.70125,-9.86092 L -7.81766,-9.50262 L -7.97807,-9.16173
 L -8.17995,-8.84364 L -8.42009,-8.55334 L -8.69472,-8.29546 L -8.99951,-8.07401 L -9.32965,-7.89252 L -9.67995,-7.75383
 L -10.0448,-7.66013 L -10.4186,-7.61292 z
M -0.0941772,-6.00294 L -0.281067,-6.02657 L -0.463516,-6.07341 L -0.638657,-6.14275 L -0.803726,-6.23351 L -0.956131,-6.34422
 L -1.09344,-6.47318 L -1.21352,-6.61832 L -1.31445,-6.77736 L -1.39465,-6.9478 L -1.45287,-7.12695 L -1.48816,-7.312
 L -1.5,-7.5 L -1.48816,-7.68799 L -1.45287,-7.87303 L -1.39465,-8.05219 L -1.31445,-8.22263 L -1.21352,-8.38167
 L -1.09344,-8.52681 L -0.956131,-8.65576 L -0.803726,-8.76648 L -0.638657,-8.85724 L -0.463516,-8.92657 L -0.281067,-8.97342
 L -0.0941772,-8.99704 L 0.0941772,-8.99704 L 0.281067,-8.97342 L 0.463516,-8.92657 L 0.638657,-8.85724 L 0.803726,-8.76648
 L 0.956131,-8.65576 L 1.09344,-8.52681 L 1.21352,-8.38167 L 1.31445,-8.22263 L 1.39465,-8.05219 L 1.45287,-7.87303
 L 1.48816,-7.68799 L 1.5,-7.5 L 1.48816,-7.312 L 1.45287,-7.12695 L 1.39465,-6.9478 L 1.31445,-6.77736
 L 1.21352,-6.61832 L 1.09344,-6.47318 L 0.956131,-6.34422 L 0.803726,-6.23351 L 0.638657,-6.14275 L 0.463516,-6.07341
 L 0.281067,-6.02657 L 0.0941772,-6.00294 z
M -0.18837,2.99408 L -0.562134,2.94685 L -0.927048,2.85316 L -1.27733,2.71448 L -1.60747,2.53297 L -1.91226,2.31154
 L -2.1869,2.05363 L -2.42705,1.76335 L -2.62891,1.44525 L -2.78932,1.10437 L -2.90575,0.746063 L -2.97633,0.375992
 L -3,-0 L -2.97633,-0.375992 L -2.90575,-0.746063 L -2.78932,-1.10437 L -2.62891,-1.44525 L -2.42705,-1.76335
 L -2.1869,-2.05363 L -1.91226,-2.31154 L -1.60747,-2.53297 L -1.27733,-2.71448 L -0.927048,-2.85316 L -0.562134,-2.94685
 L -0.18837,-2.99408 L 0.18837,-2.99408 L 0.562134,-2.94685 L 0.927048,-2.85316 L 1.27733,-2.71448 L 1.60747,-2.53297
 L 1.91226,-2.31154 L 2.1869,-2.05363 L 2.42705,-1.76335 L 2.62891,-1.44525 L 2.78932,-1.10437 L 2.90575,-0.746063
 L 2.97633,-0.375992 L 3,-0 L 2.97633,0.375992 L 2.90575,0.746063 L 2.78932,1.10437 L 2.62891,1.44525
 L 2.42705,1.76335 L 2.1869,2.05363 L 1.91226,2.31154 L 1.60747,2.53297 L 1.27733,2.71448 L 0.927048,2.85316
 L 0.562134,2.94685 L 0.18837,2.99408 z
M -15.1884,2.99408 L -15.5621,2.94685 L -15.927,2.85316 L -16.2773,2.71448 L -16.6075,2.53297 L -16.9123,2.31154
 L -17.1869,2.05363 L -17.427,1.76335 L -17.6289,1.44525 L -17.7893,1.10437 L -17.9057,0.746063 L -17.9763,0.375992
 L -18,-0 L -17.9763,-0.375992 L -17.9057,-0.746063 L -17.7893,-1.10437 L -17.6289,-1.44525 L -17.427,-1.76335
 L -17.1869,-2.05363 L -16.9123,-2.31154 L -16.6075,-2.53297 L -16.2773,-2.71448 L -15.927,-2.85316 L -15.5621,-2.94685
 L -15.1884,-2.99408 L -14.8116,-2.99408 L -14.4379,-2.94685 L -14.0729,-2.85316 L -13.7227,-2.71448 L -13.3925,-2.53297
 L -13.0877,-2.31154 L -12.8131,-2.05363 L -12.5729,-1.76335 L -12.3711,-1.44525 L -12.2107,-1.10437 L -12.0942,-0.746063
 L -12.0237,-0.375992 L -12,-0 L -12.0237,0.375992 L -12.0942,0.746063 L -12.2107,1.10437 L -12.3711,1.44525
 L -12.5729,1.76335 L -12.8131,2.05363 L -13.0877,2.31154 L -13.3925,2.53297 L -13.7227,2.71448 L -14.0729,2.85316
 L -14.4379,2.94685 L -14.8116,2.99408 z
M 14.8116,2.99408 L 14.4379,2.94685 L 14.0729,2.85316 L 13.7227,2.71448 L 13.3925,2.53297 L 13.0877,2.31154
 L 12.8131,2.05363 L 12.5729,1.76335 L 12.3711,1.44525 L 12.2107,1.10437 L 12.0942,0.746063 L 12.0237,0.375992
 L 12,-0 L 12.0237,-0.375992 L 12.0942,-0.746063 L 12.2107,-1.10437 L 12.3711,-1.44525 L 12.5729,-1.76335
 L 12.8131,-2.05363 L 13.0877,-2.31154 L 13.3925,-2.53297 L 13.7227,-2.71448 L 14.0729,-2.85316 L 14.4379,-2.94685
 L 14.8116,-2.99408 L 15.1884,-2.99408 L 15.5621,-2.94685 L 15.927,-2.85316 L 16.2773,-2.71448 L 16.6075,-2.53297
 L 16.9123,-2.31154 L 17.1869,-2.05363 L 17.427,-1.76335 L 17.6289,-1.44525 L 17.7893,-1.10437 L 17.9057,-0.746063
 L 17.9763,-0.375992 L 18,-0 L 17.9763,0.375992 L 17.9057,0.746063 L 17.7893,1.10437 L 17.6289,1.44525
 L 17.427,1.76335 L 17.1869,2.05363 L 16.9123,2.31154 L 16.6075,2.53297 L 16.2773,2.71448 L 15.927,2.85316
 L 15.5621,2.94685 L 15.1884,2.99408 z
M -7.59418,1.49704 L -7.78107,1.47342 L -7.96352,1.42657 L -8.13866,1.35724 L -8.30373,1.26648 L -8.45613,1.15576
 L -8.59344,1.02681 L -8.71352,0.881668 L -8.81445,0.722626 L -8.89465,0.552185 L -8.95287,0.373032 L -8.98816,0.187988
 L -9,-0 L -8.98816,-0.187988 L -8.95287,-0.373032 L -8.89465,-0.552185 L -8.81445,-0.722626 L -8.71352,-0.881668
 L -8.59344,-1.02681 L -8.45613,-1.15576 L -8.30373,-1.26648 L -8.13866,-1.35724 L -7.96352,-1.42657 L -7.78107,-1.47342
 L -7.59418,-1.49704 L -7.40581,-1.49704 L -7.21892,-1.47342 L -7.03647,-1.42657 L -6.86133,-1.35724 L -6.69626,-1.26648
 L -6.54385,-1.15576 L -6.40654,-1.02681 L -6.28647,-0.881668 L -6.18553,-0.722626 L -6.10533,-0.552185 L -6.04712,-0.373032
 L -6.01183,-0.187988 L -6,-0 L -6.01183,0.187988 L -6.04712,0.373032 L -6.10533,0.552185 L -6.18553,0.722626
 L -6.28647,0.881668 L -6.40654,1.02681 L -6.54385,1.15576 L -6.69626,1.26648 L -6.86133,1.35724 L -7.03647,1.42657
 L -7.21892,1.47342 L -7.40581,1.49704 z
M 7.40581,1.49704 L 7.21892,1.47342 L 7.03647,1.42657 L 6.86133,1.35724 L 6.69626,1.26648 L 6.54385,1.15576
 L 6.40654,1.02681 L 6.28647,0.881668 L 6.18553,0.722626 L 6.10533,0.552185 L 6.04712,0.373032 L 6.01183,0.187988
 L 6,-0 L 6.01183,-0.187988 L 6.04712,-0.373032 L 6.10533,-0.552185 L 6.18553,-0.722626 L 6.28647,-0.881668
 L 6.40654,-1.02681 L 6.54385,-1.15576 L 6.69626,-1.26648 L 6.86133,-1.35724 L 7.03647,-1.42657 L 7.21892,-1.47342
 L 7.40581,-1.49704 L 7.59418,-1.49704 L 7.78107,-1.47342 L 7.96352,-1.42657 L 8.13866,-1.35724 L 8.30373,-1.26648
 L 8.45613,-1.15576 L 8.59344,-1.02681 L 8.71352,-0.881668 L 8.81445,-0.722626 L 8.89465,-0.552185 L 8.95287,-0.373032
 L 8.98816,-0.187988 L 9,-0 L 8.98816,0.187988 L 8.95287,0.373032 L 8.89465,0.552185 L 8.81445,0.722626
 L 8.71352,0.881668 L 8.59344,1.02681 L 8.45613,1.15576 L 8.30373,1.26648 L 8.13866,1.35724 L 7.96352,1.42657
 L 7.78107,1.47342 L 7.59418,1.49704 z
M -0.0941772,8.99704 L -0.281067,8.97342 L -0.463516,8.92657 L -0.638657,8.85724 L -0.803726,8.76648 L -0.956131,8.65576
 L -1.09344,8.52681 L -1.21352,8.38167 L -1.31445,8.22263 L -1.39465,8.05219 L -1.45287,7.87303 L -1.48816,7.68799
 L -1.5,7.5 L -1.48816,7.312 L -1.45287,7.12695 L -1.39465,6.9478 L -1.31445,6.77736 L -1.21352,6.61832
 L -1.09344,6.47318 L -0.956131,6.34422 L -0.803726,6.23351 L -0.638657,6.14275 L -0.463516,6.07341 L -0.281067,6.02657
 L -0.0941772,6.00294 L 0.0941772,6.00294 L 0.281067,6.02657 L 0.463516,6.07341 L 0.638657,6.14275 L 0.803726,6.23351
 L 0.956131,6.34422 L 1.09344,6.47318 L 1.21352,6.61832 L 1.31445,6.77736 L 1.39465,6.9478 L 1.45287,7.12695
 L 1.48816,7.312 L 1.5,7.5 L 1.48816,7.68799 L 1.45287,7.87303 L 1.39465,8.05219 L 1.31445,8.22263
 L 1.21352,8.38167 L 1.09344,8.52681 L 0.956131,8.65576 L 0.803726,8.76648 L 0.638657,8.85724 L 0.463516,8.92657
 L 0.281067,8.97342 L 0.0941772,8.99704 z
M -10.7954,13.6011 L -11.1691,13.5538 L -11.534,13.4602 L -11.8843,13.3215 L -12.2145,13.14 L -12.5193,12.9185
 L -12.7939,12.6606 L -13.034,12.3703 L -13.2359,12.0522 L -13.3963,11.7114 L -13.5127,11.3531 L -13.5833,10.983
 L -13.607,10.607 L -13.5833,10.231 L -13.5127,9.86092 L -13.3963,9.50262 L -13.2359,9.16173 L -13.034,8.84364
 L -12.7939,8.55334 L -12.5193,8.29546 L -12.2145,8.07401 L -11.8843,7.89252 L -11.534,7.75383 L -11.1691,7.66013
 L -10.7954,7.61292 L -10.4186,7.61292 L -10.0448,7.66013 L -9.67995,7.75383 L -9.32965,7.89252 L -8.99951,8.07401
 L -8.69472,8.29546 L -8.42009,8.55334 L -8.17995,8.84364 L -7.97807,9.16173 L -7.81766,9.50262 L -7.70125,9.86092
 L -7.63065,10.231 L -7.60699,10.607 L -7.63065,10.983 L -7.70125,11.3531 L -7.81766,11.7114 L -7.97807,12.0522
 L -8.17995,12.3703 L -8.42009,12.6606 L -8.69472,12.9185 L -8.99951,13.14 L -9.32965,13.3215 L -9.67995,13.4602
 L -10.0448,13.5538 L -10.4186,13.6011 z
M 10.4186,13.6011 L 10.0448,13.5538 L 9.67995,13.4602 L 9.32965,13.3215 L 8.99951,13.14 L 8.69472,12.9185
 L 8.42009,12.6606 L 8.17995,12.3703 L 7.97807,12.0522 L 7.81766,11.7114 L 7.70125,11.3531 L 7.63065,10.983
 L 7.60699,10.607 L 7.63065,10.231 L 7.70125,9.86092 L 7.81766,9.50262 L 7.97807,9.16173 L 8.17995,8.84364
 L 8.42009,8.55334 L 8.69472,8.29546 L 8.99951,8.07401 L 9.32965,7.89252 L 9.67995,7.75383 L 10.0448,7.66013
 L 10.4186,7.61292 L 10.7954,7.61292 L 11.1691,7.66013 L 11.534,7.75383 L 11.8843,7.89252 L 12.2145,8.07401
 L 12.5193,8.29546 L 12.7939,8.55334 L 13.034,8.84364 L 13.2359,9.16173 L 13.3963,9.50262 L 13.5127,9.86092
 L 13.5833,10.231 L 13.607,10.607 L 13.5833,10.983 L 13.5127,11.3531 L 13.3963,11.7114 L 13.2359,12.0522
 L 13.034,12.3703 L 12.7939,12.6606 L 12.5193,12.9185 L 12.2145,13.14 L 11.8843,13.3215 L 11.534,13.4602
 L 11.1691,13.5538 L 10.7954,13.6011 z
M -0.18837,17.9941 L -0.562134,17.9469 L -0.927048,17.8532 L -1.27733,17.7145 L -1.60747,17.533 L -1.91226,17.3115
 L -2.1869,17.0536 L -2.42705,16.7634 L -2.62891,16.4453 L -2.78932,16.1044 L -2.90575,15.7461 L -2.97633,15.376
 L -3,15 L -2.97633,14.624 L -2.90575,14.2539 L -2.78932,13.8956 L -2.62891,13.5547 L -2.42705,13.2366
 L -2.1869,12.9464 L -1.91226,12.6884 L -1.60747,12.467 L -1.27733,12.2855 L -0.927048,12.1468 L -0.562134,12.0531
 L -0.18837,12.0059 L 0.18837,12.0059 L 0.562134,12.0531 L 0.927048,12.1468 L 1.27733,12.2855 L 1.60747,12.467
 L 1.91226,12.6884 L 2.1869,12.9464 L 2.42705,13.2366 L 2.62891,13.5547 L 2.78932,13.8956 L 2.90575,14.2539
 L 2.97633,14.624 L 3,15 L 2.97633,15.376 L 2.90575,15.7461 L 2.78932,16.1044 L 2.62891,16.4453
 L 2.42705,16.7634 L 2.1869,17.0536 L 1.91226,17.3115 L 1.60747,17.533 L 1.27733,17.7145 L 0.927048,17.8532
 L 0.562134,17.9469 L 0.18837,17.9941 z
" stroke="black" fill="lightgray" stroke-width="0.5"/>
</svg>
