<?xml version="1.0" standalone="no"?>
<!DOCTYPE svg PUBLIC "-//W3C//DTD SVG 1.1//EN" "http://www.w3.org/Graphics/SVG/1.1/DTD/svg11.dtd">
<svg width="30mm" height="44mm" viewBox="0 -22 30 44" xmlns="http://www.w3.org/2000/svg" version="1.1">
<title>OpenSCAD Model</title>
<path d="
M 25.4369,21.9114 L 26.0451,21.7553 L 26.6289,21.5241 L 27.1791,21.2216 L 27.6871,20.8526 L 28.1448,20.4227
 L 28.5451,19.9389 L 28.8815,19.4088 L 29.1489,18.8406 L 29.3429,18.2434 L 29.4606,17.6267 L 29.5,17
 L 29.5,-17 L 29.4606,-17.6267 L 29.3429,-18.2434 L 29.1489,-18.8406 L 28.8815,-19.4088 L 28.5451,-19.9389
 L 28.1448,-20.4227 L 27.6871,-20.8526 L 27.1791,-21.2216 L 26.6289,-21.5241 L 26.0451,-21.7553 L 25.4369,-21.9114
 L 24.8139,-21.9901 L 5.18604,-21.9901 L 4.56308,-21.9114 L 3.95491,-21.7553 L 3.37109,-21.5241 L 2.82086,-21.2216
 L 2.31287,-20.8526 L 1.85515,-20.4227 L 1.45491,-19.9389 L 1.11845,-19.4088 L 0.851105,-18.8406 L 0.657074,-18.2434
 L 0.539413,-17.6267 L 0.5,-17 L 0.5,17 L 0.539413,17.6267 L 0.657074,18.2434 L 0.851105,18.8406
 L 1.11845,19.4088 L 1.45491,19.9389 L 1.85515,20.4227 L 2.31287,20.8526 L 2.82086,21.2216 L 3.37109,21.5241
 L 3.95491,21.7553 L 4.56308,21.9114 L 5.18604,21.9901 L 24.8139,21.9901 z
M 22.3116,-12.0059 L 21.9379,-12.0531 L 21.5729,-12.1468 L 21.2227,-12.2855 L 20.8925,-12.467 L 20.5877,-12.6884
 L 20.3131,-12.9464 L 20.0729,-13.2366 L 19.8711,-13.5547 L 19.7107,-13.8956 L 19.5942,-14.2539 L 19.5237,-14.624
 L 19.5,-15 L 19.5237,-15.376 L 19.5942,-15.7461 L 19.7107,-16.1044 L 19.8711,-16.4453 L 20.0729,-16.7634
 L 20.3131,-17.0536 L 20.5877,-17.3115 L 20.8925,-17.533 L 21.2227,-17.7145 L 21.5729,-17.8532 L 21.9379,-17.9469
 L 22.3116,-17.9941 L 22.6884,-17.9941 L 23.0621,-17.9469 L 23.427,-17.8532 L 23.7773,-17.7145 L 24.1075,-17.533
 L 24.4123,-17.3115 L 24.6869,-17.0536 L 24.927,-16.7634 L 25.1289,-16.4453 L 25.2893,-16.1044 L 25.4057,-15.7461
 L 25.4763,-15.376 L 25.5,-15 L 25.4763,-14.624 L 25.4057,-14.2539 L 25.2893,-13.8956 L 25.1289,-13.5547
 L 24.927,-13.2366 L 24.6869,-12.9464 L 24.4123,-12.6884 L 24.1075,-12.467 L 23.7773,-12.2855 L 23.427,-12.1468
 L 23.0621,-12.0531 L 22.6884,-12.0059 z
M 7.31161,-12.0059 L 6.93785,-12.0531 L 6.57294,-12.1468 L 6.22266,-12.2855 L 5.89252,-12.467 L 5.58772,-12.6884
 L 5.31308,-12.9464 L 5.07294,-13.2366 L 4.87108,-13.5547 L 4.71066,-13.8956 L 4.59424,-14.2539 L 4.52365,-14.624
 L 4.5,-15 L 4.52365,-15.376 L 4.59424,-15.7461 L 4.71066,-16.1044 L 4.87108,-16.4453 L 5.07294,-16.7634
 L 5.31308,-17.0536 L 5.58772,-17.3115 L 5.89252,-17.533 L 6.22266,-17.7145 L 6.57294,-17.8532 L 6.93785,-17.9469
 L 7.31161,-17.9941 L 7.68837,-17.9941 L 8.06213,-17.9469 L 8.42705,-17.8532 L 8.77733,-17.7145 L 9.10747,-17.533
 L 9.41226,-17.3115 L 9.6869,-17.0536 L 9.92705,-16.7634 L 10.1289,-16.4453 L 10.2893,-16.1044 L 10.4057,-15.7461
 L 10.4763,-15.376 L 10.5,-15 L 10.4763,-14.624 L 10.4057,-14.2539 L 10.2893,-13.8956 L 10.1289,-13.5547
 L 9.92705,-13.2366 L 9.6869,-12.9464 L 9.41226,-12.6884 L 9.10747,-12.467 L 8.77733,-12.2855 L 8.42705,-12.1468
 L 8.06213,-12.0531 L 7.68837,-12.0059 z
M 14.9058,-13.5029 L 14.7189,-13.5266 L 14.5365,-13.5734 L 14.3613,-13.6427 L 14.1963,-13.7335 L 14.0439,-13.8442
 L 13.9065,-13.9732 L 13.7865,-14.1183 L 13.6855,-14.2774 L 13.6053,-14.4478 L 13.5471,-14.627 L 13.5118,-14.812
 L 13.5,-15 L 13.5118,-15.188 L 13.5471,-15.373 L 13.6053,-15.5522 L 13.6855,-15.7226 L 13.7865,-15.8817
 L 13.9065,-16.0268 L 14.0439,-16.1558 L 14.1963,-16.2665 L 14.3613,-16.3572 L 14.5365,-16.4266 L 14.7189,-16.4734
 L 14.9058,-16.497 L 15.0942,-16.497 L 15.2811,-16.4734 L 15.4635,-16.4266 L 15.6387,-16.3572 L 15.8037,-16.2665
 L 15.9561,-16.1558 L 16.0934,-16.0268 L 16.2135,-15.8817 L 16.3145,-15.7226 L 16.3947,-15.5522 L 16.4529,-15.373
 L 16.4882,-15.188 L 16.5,-15 L 16.4882,-14.812 L 16.4529,-14.627 L 16.3947,-14.4478 L 16.3145,-14.2774
 L 16.2135,-14.1183 L 16.0934,-13.9732 L 15.9561,-13.8442 L 15.8037,-13.7335 L 15.6387,-13.6427 L 15.4635,-13.5734
 L 15.2811,-13.5266 L 15.0942,-13.5029 z
M 14.8493,-5.10472 L 14.5503,-5.1425 L 14.2583,-5.21745 L 13.9781,-5.32841 L 13.714,-5.4736 L 13.4702,-5.65076
 L 13.2505,-5.85709 L 13.0583,-6.08931 L 12.8969,-6.34378 L 12.7685,-6.6165 L 12.6754,-6.90314 L 12.6189,-7.19919
 L 12.6,-7.5 L 12.6189,-7.8008 L 12.6754,-8.09685 L 12.7685,-8.38348 L 12.8969,-8.6562 L 13.0583,-8.91068
 L 13.2505,-9.1429 L 13.4702,-9.34923 L 13.714,-9.52638 L 13.9781,-9.67157 L 14.2583,-9.78253 L 14.5503,-9.85748
 L 14.8493,-9.89526 L 15.1507,-9.89526 L 15.4497,-9.85748 L 15.7416,-9.78253 L 16.0219,-9.67157 L 16.286,-9.52638
 L 16.5298,-9.34923 L 16.7495,-9.1429 L 16.9416,-8.91068 L 17.1031,-8.6562 L 17.2315,-8.38348 L 17.3246,-8.09685
 L 17.3811,-7.8008 L 17.4,-7.5 L 17.3811,-7.19919 L 17.3246,-6.90314 L 17.2315,-6.6165 L 17.1031,-6.34378
 L 16.9416,-6.08931 L 16.7495,-5.85709 L 16.5298,-5.65076 L 16.286,-5.4736 L 16.0219,-5.32841 L 15.7416,-5.21745
 L 15.4497,-5.1425 L 15.1507,-5.10472 z
M 14.8493,9.89526 L 14.5503,9.85748 L 14.2583,9.78253 L 13.9781,9.67157 L 13.714,9.52638 L 13.4702,9.34923
 L 13.2505,9.1429 L 13.0583,8.91068 L 12.8969,8.6562 L 12.7685,8.38348 L 12.6754,8.09685 L 12.6189,7.8008
 L 12.6,7.5 L 12.6189,7.19919 L 12.6754,6.90314 L 12.7685,6.6165 L 12.8969,6.34378 L 13.0583,6.08931
 L 13.2505,5.85709 L 13.4702,5.65076 L 13.714,5.4736 L 13.9781,5.32841 L 14.2583,5.21745 L 14.5503,5.1425
 L 14.8493,5.10472 L 15.1507,5.10472 L 15.4497,5.1425 L 15.7416,5.21745 L 16.0219,5.32841 L 16.286,5.4736
 L 16.5298,5.65076 L 16.7495,5.85709 L 16.9416,6.08931 L 17.1031,6.34378 L 17.2315,6.6165 L 17.3246,6.90314
 L 17.3811,7.19919 L 17.4,7.5 L 17.3811,7.8008 L 17.3246,8.09685 L 17.2315,8.38348 L 17.1031,8.6562
 L 16.9416,8.91068 L 16.7495,9.1429 L 16.5298,9.34923 L 16.286,9.52638 L 16.0219,9.67157 L 15.7416,9.78253
 L 15.4497,9.85748 L 15.1507,9.89526 z
M 22.3116,17.9941 L 21.9379,17.9469 L 21.5729,17.8532 L 21.2227,17.7145 L 20.8925,17.533 L 20.5877,17.3115
 L 20.3131,17.0536 L 20.0729,16.7634 L 19.8711,16.4453 L 19.7107,16.1044 L 19.5942,15.7461 L 19.5237,15.376
 L 19.5,15 L 19.5237,14.624 L 19.5942,14.2539 L 19.7107,13.8956 L 19.8711,13.5547 L 20.0729,13.2366
 L 20.3131,12.9464 L 20.5877,12.6884 L 20.8925,12.467 L 21.2227,12.2855 L 21.5729,12.1468 L 21.9379,12.0531
 L 22.3116,12.0059 L 22.6884,12.0059 L 23.0621,12.0531 L 23.427,12.1468 L 23.7773,12.2855 L 24.1075,12.467
 L 24.4123,12.6884 L 24.6869,12.9464 L 24.927,13.2366 L 25.1289,13.5547 L 25.2893,13.8956 L 25.4057,14.2539
 L 25.4763,14.624 L 25.5,15 L 25.4763,15.376 L 25.4057,15.7461 L 25.2893,16.1044 L 25.1289,16.4453
 L 24.927,16.7634 L 24.6869,17.0536 L 24.4123,17.3115 L 24.1075,17.533 L 23.7773,17.7145 L 23.427,17.8532
 L 23.0621,17.9469 L 22.6884,17.9941 z
M 7.31161,17.9941 L 6.93785,17.9469 L 6.57294,17.8532 L 6.22266,17.7145 L 5.89252,17.533 L 5.58772,17.3115
 L 5.31308,17.0536 L 5.07294,16.7634 L 4.87108,16.4453 L 4.71066,16.1044 L 4.59424,15.7461 L 4.52365,15.376
 L 4.5,15 L 4.52365,14.624 L 4.59424,14.2539 L 4.71066,13.8956 L 4.87108,13.5547 L 5.07294,13.2366
 L 5.31308,12.9464 L 5.58772,12.6884 L 5.89252,12.467 L 6.22266,12.2855 L 6.57294,12.1468 L 6.93785,12.0531
 L 7.31161,12.0059 L 7.68837,12.0059 L 8.06213,12.0531 L 8.42705,12.1468 L 8.77733,12.2855 L 9.10747,12.467
 L 9.41226,12.6884 L 9.6869,12.9464 L 9.92705,13.2366 L 10.1289,13.5547 L 10.2893,13.8956 L 10.4057,14.2539
 L 10.4763,14.624 L 10.5,15 L 10.4763,15.376 L 10.4057,15.7461 L 10.2893,16.1044 L 10.1289,16.4453
 L 9.92705,16.7634 L 9.6869,17.0536 L 9.41226,17.3115 L 9.10747,17.533 L 8.77733,17.7145 L 8.42705,17.8532
 L 8.06213,17.9469 L 7.68837,17.9941 z
M 14.9058,16.497 L 14.7189,16.4734 L 14.5365,16.4266 L 14.3613,16.3572 L 14.1963,16.2665 L 14.0439,16.1558
 L 13.9065,16.0268 L 13.7865,15.8817 L 13.6855,15.7226 L 13.6053,15.5522 L 13.5471,15.373 L 13.5118,15.188
 L 13.5,15 L 13.5118,14.812 L 13.5471,14.627 L 13.6053,14.4478 L 13.6855,14.2774 L 13.7865,14.1183
 L 13.9065,13.9732 L 14.0439,13.8442 L 14.1963,13.7335 L 14.3613,13.6427 L 14.5365,13.5734 L 14.7189,13.5266
 L 14.9058,13.5029 L 15.0942,13.5029 L 15.2811,13.5266 L 15.4635,13.5734 L 15.6387,13.6427 L 15.8037,13.7335
 L 15.9561,13.8442 L 16.0934,13.9732 L 16.2135,14.1183 L 16.3145,14.2774 L 16.3947,14.4478 L 16.4529,14.627
 L 16.4882,14.812 L 16.5,15 L 16.4882,15.188 L 16.4529,15.373 L 16.3947,15.5522 L 16.3145,15.7226
 L 16.2135,15.8817 L 16.0934,16.0268 L 15.9561,16.1558 L 15.8037,16.2665 L 15.6387,16.3572 L 15.4635,16.4266
 L 15.2811,16.4734 L 15.0942,16.497 z
" stroke="black" fill="lightgray" stroke-width="0.5"/>
</svg>
