<?xml version="1.0" standalone="no"?>
<!DOCTYPE svg PUBLIC "-//W3C//DTD SVG 1.1//EN" "http://www.w3.org/Graphics/SVG/1.1/DTD/svg11.dtd">
<svg width="44mm" height="130mm" viewBox="-22 -251 44 130" xmlns="http://www.w3.org/2000/svg" version="1.1">
<title>OpenSCAD Model</title>
<path d="
M 17.9369,-214.339 L 18.5451,-214.495 L 19.1289,-214.726 L 19.6791,-215.028 L 20.1871,-215.397 L 20.6448,-215.827
 L 21.0451,-216.311 L 21.3815,-216.841 L 21.6489,-217.409 L 21.8429,-218.007 L 21.9606,-218.623 L 22,-219.25
 L 22,-245.75 L 21.9606,-246.377 L 21.8429,-246.993 L 21.6489,-247.591 L 21.3815,-248.159 L 21.0451,-248.689
 L 20.6448,-249.173 L 20.1871,-249.603 L 19.6791,-249.972 L 19.1289,-250.274 L 18.5451,-250.505 L 17.9369,-250.661
 L 17.3139,-250.74 L -17.3139,-250.74 L -17.9369,-250.661 L -18.5451,-250.505 L -19.1289,-250.274 L -19.6791,-249.972
 L -20.1871,-249.603 L -20.6448,-249.173 L -21.0451,-248.689 L -21.3815,-248.159 L -21.6489,-247.591 L -21.8429,-246.993
 L -21.9606,-246.377 L -22,-245.75 L -22,-219.25 L -21.9606,-218.623 L -21.8429,-218.007 L -21.6489,-217.409
 L -21.3815,-216.841 L -21.0451,-216.311 L -20.6448,-215.827 L -20.1871,-215.397 L -19.6791,-215.028 L -19.1289,-214.726
 L -18.5451,-214.495 L -17.9369,-214.339 L -17.3139,-214.26 L 17.3139,-214.26 z
M -17.2512,-215.258 L -17.7495,-215.321 L -18.2361,-215.446 L -18.7031,-215.631 L -19.1433,-215.873 L -19.5497,-216.168
 L -19.9159,-216.512 L -20.2361,-216.899 L -20.5052,-217.323 L -20.7191,-217.778 L -20.8743,-218.255 L -20.9684,-218.749
 L -21,-219.25 L -21,-245.75 L -20.9684,-246.251 L -20.8743,-246.745 L -20.7191,-247.222 L -20.5052,-247.677
 L -20.2361,-248.101 L -19.9159,-248.488 L -19.5497,-248.832 L -19.1433,-249.127 L -18.7031,-249.369 L -18.2361,-249.554
 L -17.7495,-249.679 L -17.2512,-249.742 L 17.2512,-249.742 L 17.7495,-249.679 L 18.2361,-249.554 L 18.7031,-249.369
 L 19.1433,-249.127 L 19.5497,-248.832 L 19.9159,-248.488 L 20.2361,-248.101 L 20.5052,-247.677 L 20.7191,-247.222
 L 20.8743,-246.745 L 20.9684,-246.251 L 21,-245.75 L 21,-219.25 L 20.9684,-218.749 L 20.8743,-218.255
 L 20.7191,-217.778 L 20.5052,-217.323 L 20.2361,-216.899 L 19.9159,-216.512 L 19.5497,-216.168 L 19.1433,-215.873
 L 18.7031,-215.631 L 18.2361,-215.446 L 17.7495,-215.321 L 17.2512,-215.258 z
M 17.9369,-121.339 L 18.5451,-121.495 L 19.1289,-121.726 L 19.6791,-122.028 L 20.1871,-122.397 L 20.6448,-122.827
 L 21.0451,-123.311 L 21.3815,-123.841 L 21.6489,-124.409 L 21.8429,-125.007 L 21.9606,-125.623 L 22,-126.25
 L 22,-152.75 L 21.9606,-153.377 L 21.8429,-153.993 L 21.6489,-154.591 L 21.3815,-155.159 L 21.0451,-155.689
 L 20.6448,-156.173 L 20.1871,-156.603 L 19.6791,-156.972 L 19.1289,-157.274 L 18.5451,-157.505 L 17.9369,-157.661
 L 17.3139,-157.74 L -17.3139,-157.74 L -17.9369,-157.661 L -18.5451,-157.505 L -19.1289,-157.274 L -19.6791,-156.972
 L -20.1871,-156.603 L -20.6448,-156.173 L -21.0451,-155.689 L -21.3815,-155.159 L -21.6489,-154.591 L -21.8429,-153.993
 L -21.9606,-153.377 L -22,-152.75 L -22,-126.25 L -21.9606,-125.623 L -21.8429,-125.007 L -21.6489,-124.409
 L -21.3815,-123.841 L -21.0451,-123.311 L -20.6448,-122.827 L -20.1871,-122.397 L -19.6791,-122.028 L -19.1289,-121.726
 L -18.5451,-121.495 L -17.9369,-121.339 L -17.3139,-121.26 L 17.3139,-121.26 z
M -15.1507,-148.355 L -15.4497,-148.393 L -15.7416,-148.467 L -16.0219,-148.578 L -16.286,-148.724 L -16.5298,-148.901
 L -16.7495,-149.107 L -16.9416,-149.339 L -17.1031,-149.594 L -17.2315,-149.867 L -17.3246,-150.153 L -17.3811,-150.449
 L -17.4,-150.75 L -17.3811,-151.051 L -17.3246,-151.347 L -17.2315,-151.633 L -17.1031,-151.906 L -16.9416,-152.161
 L -16.7495,-152.393 L -16.5298,-152.599 L -16.286,-152.776 L -16.0219,-152.922 L -15.7416,-153.033 L -15.4497,-153.107
 L -15.1507,-153.145 L -14.8493,-153.145 L -14.5503,-153.107 L -14.2583,-153.033 L -13.9781,-152.922 L -13.714,-152.776
 L -13.4702,-152.599 L -13.2505,-152.393 L -13.0583,-152.161 L -12.8969,-151.906 L -12.7685,-151.633 L -12.6754,-151.347
 L -12.6189,-151.051 L -12.6,-150.75 L -12.6189,-150.449 L -12.6754,-150.153 L -12.7685,-149.867 L -12.8969,-149.594
 L -13.0583,-149.339 L -13.2505,-149.107 L -13.4702,-148.901 L -13.714,-148.724 L -13.9781,-148.578 L -14.2583,-148.467
 L -14.5503,-148.393 L -14.8493,-148.355 z
M 14.8493,-148.355 L 14.5503,-148.393 L 14.2583,-148.467 L 13.9781,-148.578 L 13.714,-148.724 L 13.4702,-148.901
 L 13.2505,-149.107 L 13.0583,-149.339 L 12.8969,-149.594 L 12.7685,-149.867 L 12.6754,-150.153 L 12.6189,-150.449
 L 12.6,-150.75 L 12.6189,-151.051 L 12.6754,-151.347 L 12.7685,-151.633 L 12.8969,-151.906 L 13.0583,-152.161
 L 13.2505,-152.393 L 13.4702,-152.599 L 13.714,-152.776 L 13.9781,-152.922 L 14.2583,-153.033 L 14.5503,-153.107
 L 14.8493,-153.145 L 15.1507,-153.145 L 15.4497,-153.107 L 15.7416,-153.033 L 16.0219,-152.922 L 16.286,-152.776
 L 16.5298,-152.599 L 16.7495,-152.393 L 16.9416,-152.161 L 17.1031,-151.906 L 17.2315,-151.633 L 17.3246,-151.347
 L 17.3811,-151.051 L 17.4,-150.75 L 17.3811,-150.449 L 17.3246,-150.153 L 17.2315,-149.867 L 17.1031,-149.594
 L 16.9416,-149.339 L 16.7495,-149.107 L 16.5298,-148.901 L 16.286,-148.724 L 16.0219,-148.578 L 15.7416,-148.467
 L 15.4497,-148.393 L 15.1507,-148.355 z
M -15.1507,-125.855 L -15.4497,-125.893 L -15.7416,-125.967 L -16.0219,-126.078 L -16.286,-126.224 L -16.5298,-126.401
 L -16.7495,-126.607 L -16.9416,-126.839 L -17.1031,-127.094 L -17.2315,-127.367 L -17.3246,-127.653 L -17.3811,-127.949
 L -17.4,-128.25 L -17.3811,-128.551 L -17.3246,-128.847 L -17.2315,-129.133 L -17.1031,-129.406 L -16.9416,-129.661
 L -16.7495,-129.893 L -16.5298,-130.099 L -16.286,-130.276 L -16.0219,-130.422 L -15.7416,-130.533 L -15.4497,-130.607
 L -15.1507,-130.645 L -14.8493,-130.645 L -14.5503,-130.607 L -14.2583,-130.533 L -13.9781,-130.422 L -13.714,-130.276
 L -13.4702,-130.099 L -13.2505,-129.893 L -13.0583,-129.661 L -12.8969,-129.406 L -12.7685,-129.133 L -12.6754,-128.847
 L -12.6189,-128.551 L -12.6,-128.25 L -12.6189,-127.949 L -12.6754,-127.653 L -12.7685,-127.367 L -12.8969,-127.094
 L -13.0583,-126.839 L -13.2505,-126.607 L -13.4702,-126.401 L -13.714,-126.224 L -13.9781,-126.078 L -14.2583,-125.967
 L -14.5503,-125.893 L -14.8493,-125.855 z
M 14.8493,-125.855 L 14.5503,-125.893 L 14.2583,-125.967 L 13.9781,-126.078 L 13.714,-126.224 L 13.4702,-126.401
 L 13.2505,-126.607 L 13.0583,-126.839 L 12.8969,-127.094 L 12.7685,-127.367 L 12.6754,-127.653 L 12.6189,-127.949
 L 12.6,-128.25 L 12.6189,-128.551 L 12.6754,-128.847 L 12.7685,-129.133 L 12.8969,-129.406 L 13.0583,-129.661
 L 13.2505,-129.893 L 13.4702,-130.099 L 13.714,-130.276 L 13.9781,-130.422 L 14.2583,-130.533 L 14.5503,-130.607
 L 14.8493,-130.645 L 15.1507,-130.645 L 15.4497,-130.607 L 15.7416,-130.533 L 16.0219,-130.422 L 16.286,-130.276
 L 16.5298,-130.099 L 16.7495,-129.893 L 16.9416,-129.661 L 17.1031,-129.406 L 17.2315,-129.133 L 17.3246,-128.847
 L 17.3811,-128.551 L 17.4,-128.25 L 17.3811,-127.949 L 17.3246,-127.653 L 17.2315,-127.367 L 17.1031,-127.094
 L 16.9416,-126.839 L 16.7495,-126.607 L 16.5298,-126.401 L 16.286,-126.224 L 16.0219,-126.078 L 15.7416,-125.967
 L 15.4497,-125.893 L 15.1507,-125.855 z
M 21.0451,-202.189 L 20.6448,-202.673 L 20.1871,-203.103 L 19.6791,-203.472 L 19.1289,-203.774 L 18.5451,-204.005
 L 17.9369,-204.161 L 17.3139,-204.24 L -17.3139,-204.24 L -17.9369,-204.161 L -18.5451,-204.005 L -19.1289,-203.774
 L -19.6791,-203.472 L -20.1871,-203.103 L -20.6448,-202.673 L -21.0451,-202.189 L -21.3815,-201.659 L -21.6489,-201.091
 L -21.8429,-200.493 L -21.9606,-199.877 L -22,-199.25 L -22,-172.75 L -21.9606,-172.123 L -21.8429,-171.507
 L -21.6489,-170.909 L -21.3815,-170.341 L -21.0451,-169.811 L -20.6448,-169.327 L -20.1871,-168.897 L -19.6791,-168.528
 L -19.1289,-168.226 L -18.5451,-167.995 L -17.9369,-167.839 L -17.3139,-167.76 L 17.3139,-167.76 L 17.9369,-167.839
 L 18.5451,-167.995 L 19.1289,-168.226 L 19.6791,-168.528 L 20.1871,-168.897 L 20.6448,-169.327 L 21.0451,-169.811
 L 21.3815,-170.341 L 21.6489,-170.909 L 21.8429,-171.507 L 21.9606,-172.123 L 22,-172.75 L 22,-199.25
 L 21.9606,-199.877 L 21.8429,-200.493 L 21.6489,-201.091 L 21.3815,-201.659 z
M -20.0884,-172.36 L -20.1129,-172.75 L -20.1129,-199.25 L -20.0884,-199.64 L -20.0151,-200.024 L -19.8943,-200.396
 L -19.7279,-200.75 L -19.5184,-201.08 L -19.2692,-201.381 L -18.9842,-201.649 L -18.668,-201.878 L -18.3254,-202.067
 L -17.9619,-202.211 L -17.5833,-202.308 L -17.1954,-202.357 L 17.1954,-202.357 L 17.5833,-202.308 L 17.9619,-202.211
 L 18.3254,-202.067 L 18.668,-201.878 L 18.9842,-201.649 L 19.2692,-201.381 L 19.5184,-201.08 L 19.7279,-200.75
 L 19.8943,-200.396 L 20.0151,-200.024 L 20.0884,-199.64 L 20.1129,-199.25 L 20.1129,-172.75 L 20.0884,-172.36
 L 20.0151,-171.976 L 19.8943,-171.604 L 19.7279,-171.25 L 19.5184,-170.92 L 19.2692,-170.619 L 18.9842,-170.351
 L 18.668,-170.122 L 18.3254,-169.933 L 17.9619,-169.789 L 17.5833,-169.692 L 17.1954,-169.643 L -17.1954,-169.643
 L -17.5833,-169.692 L -17.9619,-169.789 L -18.3254,-169.933 L -18.668,-170.122 L -18.9842,-170.351 L -19.2692,-170.619
 L -19.5184,-170.92 L -19.7279,-171.25 L -19.8943,-171.604 L -20.0151,-171.976 z
" stroke="black" fill="lightgray" stroke-width="0.5"/>
</svg>
