<?xml version="1.0" standalone="no"?>
<!DOCTYPE svg PUBLIC "-//W3C//DTD SVG 1.1//EN" "http://www.w3.org/Graphics/SVG/1.1/DTD/svg11.dtd">
<svg width="44mm" height="206mm" viewBox="-22 -346 44 206" xmlns="http://www.w3.org/2000/svg" version="1.1">
<title>OpenSCAD Model</title>
<path d="
M 17.9369,-302.089 L 18.5451,-302.245 L 19.1289,-302.476 L 19.6791,-302.778 L 20.1871,-303.147 L 20.6448,-303.577
 L 21.0451,-304.061 L 21.3815,-304.591 L 21.6489,-305.159 L 21.8429,-305.757 L 21.9606,-306.373 L 22,-307
 L 22,-341 L 21.9606,-341.627 L 21.8429,-342.243 L 21.6489,-342.841 L 21.3815,-343.409 L 21.0451,-343.939
 L 20.6448,-344.423 L 20.1871,-344.853 L 19.6791,-345.222 L 19.1289,-345.524 L 18.5451,-345.755 L 17.9369,-345.911
 L 17.3139,-345.99 L -17.3139,-345.99 L -17.9369,-345.911 L -18.5451,-345.755 L -19.1289,-345.524 L -19.6791,-345.222
 L -20.1871,-344.853 L -20.6448,-344.423 L -21.0451,-343.939 L -21.3815,-343.409 L -21.6489,-342.841 L -21.8429,-342.243
 L -21.9606,-341.627 L -22,-341 L -22,-307 L -21.9606,-306.373 L -21.8429,-305.757 L -21.6489,-305.159
 L -21.3815,-304.591 L -21.0451,-304.061 L -20.6448,-303.577 L -20.1871,-303.147 L -19.6791,-302.778 L -19.1289,-302.476
 L -18.5451,-302.245 L -17.9369,-302.089 L -17.3139,-302.01 L 17.3139,-302.01 z
M -17.0482,-302.509 L -17.6401,-302.584 L -18.2178,-302.732 L -18.7724,-302.952 L -19.2952,-303.239 L -19.7778,-303.59
 L -20.2126,-303.998 L -20.5928,-304.458 L -20.9124,-304.962 L -21.1664,-305.501 L -21.3508,-306.069 L -21.4625,-306.655
 L -21.5,-307.25 L -21.5,-340.75 L -21.4625,-341.345 L -21.3508,-341.931 L -21.1664,-342.499 L -20.9124,-343.038
 L -20.5928,-343.542 L -20.2126,-344.002 L -19.7778,-344.41 L -19.2952,-344.761 L -18.7724,-345.048 L -18.2178,-345.268
 L -17.6401,-345.416 L -17.0482,-345.491 L 17.0482,-345.491 L 17.6401,-345.416 L 18.2178,-345.268 L 18.7724,-345.048
 L 19.2952,-344.761 L 19.7778,-344.41 L 20.2126,-344.002 L 20.5928,-343.542 L 20.9124,-343.038 L 21.1664,-342.499
 L 21.3508,-341.931 L 21.4625,-341.345 L 21.5,-340.75 L 21.5,-307.25 L 21.4625,-306.655 L 21.3508,-306.069
 L 21.1664,-305.501 L 20.9124,-304.962 L 20.5928,-304.458 L 20.2126,-303.998 L 19.7778,-303.59 L 19.2952,-303.239
 L 18.7724,-302.952 L 18.2178,-302.732 L 17.6401,-302.584 L 17.0482,-302.509 z
M 17.9369,-248.089 L 18.5451,-248.245 L 19.1289,-248.476 L 19.6791,-248.778 L 20.1871,-249.147 L 20.6448,-249.577
 L 21.0451,-250.061 L 21.3815,-250.591 L 21.6489,-251.159 L 21.8429,-251.757 L 21.9606,-252.373 L 22,-253
 L 22,-287 L 21.9606,-287.627 L 21.8429,-288.243 L 21.6489,-288.841 L 21.3815,-289.409 L 21.0451,-289.939
 L 20.6448,-290.423 L 20.1871,-290.853 L 19.6791,-291.222 L 19.1289,-291.524 L 18.5451,-291.755 L 17.9369,-291.911
 L 17.3139,-291.99 L -17.3139,-291.99 L -17.9369,-291.911 L -18.5451,-291.755 L -19.1289,-291.524 L -19.6791,-291.222
 L -20.1871,-290.853 L -20.6448,-290.423 L -21.0451,-289.939 L -21.3815,-289.409 L -21.6489,-288.841 L -21.8429,-288.243
 L -21.9606,-287.627 L -22,-287 L -22,-253 L -21.9606,-252.373 L -21.8429,-251.757 L -21.6489,-251.159
 L -21.3815,-250.591 L -21.0451,-250.061 L -20.6448,-249.577 L -20.1871,-249.147 L -19.6791,-248.778 L -19.1289,-248.476
 L -18.5451,-248.245 L -17.9369,-248.089 L -17.3139,-248.01 L 17.3139,-248.01 z
M -17.0482,-248.509 L -17.6401,-248.584 L -18.2178,-248.732 L -18.7724,-248.952 L -19.2952,-249.239 L -19.7778,-249.59
 L -20.2126,-249.998 L -20.5928,-250.458 L -20.9124,-250.962 L -21.1664,-251.501 L -21.3508,-252.069 L -21.4625,-252.655
 L -21.5,-253.25 L -21.5,-286.75 L -21.4625,-287.345 L -21.3508,-287.931 L -21.1664,-288.499 L -20.9124,-289.038
 L -20.5928,-289.542 L -20.2126,-290.002 L -19.7778,-290.41 L -19.2952,-290.761 L -18.7724,-291.048 L -18.2178,-291.268
 L -17.6401,-291.416 L -17.0482,-291.491 L 17.0482,-291.491 L 17.6401,-291.416 L 18.2178,-291.268 L 18.7724,-291.048
 L 19.2952,-290.761 L 19.7778,-290.41 L 20.2126,-290.002 L 20.5928,-289.542 L 20.9124,-289.038 L 21.1664,-288.499
 L 21.3508,-287.931 L 21.4625,-287.345 L 21.5,-286.75 L 21.5,-253.25 L 21.4625,-252.655 L 21.3508,-252.069
 L 21.1664,-251.501 L 20.9124,-250.962 L 20.5928,-250.458 L 20.2126,-249.998 L 19.7778,-249.59 L 19.2952,-249.239
 L 18.7724,-248.952 L 18.2178,-248.732 L 17.6401,-248.584 L 17.0482,-248.509 z
M 17.9369,-194.089 L 18.5451,-194.245 L 19.1289,-194.476 L 19.6791,-194.778 L 20.1871,-195.147 L 20.6448,-195.577
 L 21.0451,-196.061 L 21.3815,-196.591 L 21.6489,-197.159 L 21.8429,-197.757 L 21.9606,-198.373 L 22,-199
 L 22,-233 L 21.9606,-233.627 L 21.8429,-234.243 L 21.6489,-234.841 L 21.3815,-235.409 L 21.0451,-235.939
 L 20.6448,-236.423 L 20.1871,-236.853 L 19.6791,-237.222 L 19.1289,-237.524 L 18.5451,-237.755 L 17.9369,-237.911
 L 17.3139,-237.99 L -17.3139,-237.99 L -17.9369,-237.911 L -18.5451,-237.755 L -19.1289,-237.524 L -19.6791,-237.222
 L -20.1871,-236.853 L -20.6448,-236.423 L -21.0451,-235.939 L -21.3815,-235.409 L -21.6489,-234.841 L -21.8429,-234.243
 L -21.9606,-233.627 L -22,-233 L -22,-199 L -21.9606,-198.373 L -21.8429,-197.757 L -21.6489,-197.159
 L -21.3815,-196.591 L -21.0451,-196.061 L -20.6448,-195.577 L -20.1871,-195.147 L -19.6791,-194.778 L -19.1289,-194.476
 L -18.5451,-194.245 L -17.9369,-194.089 L -17.3139,-194.01 L 17.3139,-194.01 z
M -16.993,-195.388 L -17.4751,-195.449 L -17.9457,-195.57 L -18.3975,-195.749 L -18.8234,-195.983 L -19.2165,-196.269
 L -19.5707,-196.601 L -19.8805,-196.976 L -20.1408,-197.386 L -20.3477,-197.826 L -20.4979,-198.288 L -20.589,-198.765
 L -20.6195,-199.25 L -20.6195,-232.75 L -20.589,-233.235 L -20.4979,-233.712 L -20.3477,-234.174 L -20.1408,-234.614
 L -19.8805,-235.024 L -19.5707,-235.399 L -19.2165,-235.731 L -18.8234,-236.017 L -18.3975,-236.251 L -17.9457,-236.43
 L -17.4751,-236.551 L -16.993,-236.612 L 16.993,-236.612 L 17.4751,-236.551 L 17.9457,-236.43 L 18.3975,-236.251
 L 18.8234,-236.017 L 19.2165,-235.731 L 19.5707,-235.399 L 19.8805,-235.024 L 20.1408,-234.614 L 20.3477,-234.174
 L 20.4979,-233.712 L 20.589,-233.235 L 20.6195,-232.75 L 20.6195,-199.25 L 20.589,-198.765 L 20.4979,-198.288
 L 20.3477,-197.826 L 20.1408,-197.386 L 19.8805,-196.976 L 19.5707,-196.601 L 19.2165,-196.269 L 18.8234,-195.983
 L 18.3975,-195.749 L 17.9457,-195.57 L 17.4751,-195.449 L 16.993,-195.388 z
M 17.9369,-140.089 L 18.5451,-140.245 L 19.1289,-140.476 L 19.6791,-140.778 L 20.1871,-141.147 L 20.6448,-141.577
 L 21.0451,-142.061 L 21.3815,-142.591 L 21.6489,-143.159 L 21.8429,-143.757 L 21.9606,-144.373 L 22,-145
 L 22,-179 L 21.9606,-179.627 L 21.8429,-180.243 L 21.6489,-180.841 L 21.3815,-181.409 L 21.0451,-181.939
 L 20.6448,-182.423 L 20.1871,-182.853 L 19.6791,-183.222 L 19.1289,-183.524 L 18.5451,-183.755 L 17.9369,-183.911
 L 17.3139,-183.99 L -17.3139,-183.99 L -17.9369,-183.911 L -18.5451,-183.755 L -19.1289,-183.524 L -19.6791,-183.222
 L -20.1871,-182.853 L -20.6448,-182.423 L -21.0451,-181.939 L -21.3815,-181.409 L -21.6489,-180.841 L -21.8429,-180.243
 L -21.9606,-179.627 L -22,-179 L -22,-145 L -21.9606,-144.373 L -21.8429,-143.757 L -21.6489,-143.159
 L -21.3815,-142.591 L -21.0451,-142.061 L -20.6448,-141.577 L -20.1871,-141.147 L -19.6791,-140.778 L -19.1289,-140.476
 L -18.5451,-140.245 L -17.9369,-140.089 L -17.3139,-140.01 L 17.3139,-140.01 z
M 14.9058,-175.503 L 14.7189,-175.527 L 14.5365,-175.573 L 14.3613,-175.643 L 14.1963,-175.734 L 14.0439,-175.844
 L 13.9065,-175.973 L 13.7865,-176.118 L 13.6855,-176.277 L 13.6053,-176.448 L 13.5471,-176.627 L 13.5118,-176.812
 L 13.5,-177 L 13.5118,-177.188 L 13.5471,-177.373 L 13.6053,-177.552 L 13.6855,-177.723 L 13.7865,-177.882
 L 13.9065,-178.027 L 14.0439,-178.156 L 14.1963,-178.266 L 14.3613,-178.357 L 14.5365,-178.427 L 14.7189,-178.473
 L 14.9058,-178.497 L 15.0942,-178.497 L 15.2811,-178.473 L 15.4635,-178.427 L 15.6387,-178.357 L 15.8037,-178.266
 L 15.9561,-178.156 L 16.0934,-178.027 L 16.2135,-177.882 L 16.3145,-177.723 L 16.3947,-177.552 L 16.4529,-177.373
 L 16.4882,-177.188 L 16.5,-177 L 16.4882,-176.812 L 16.4529,-176.627 L 16.3947,-176.448 L 16.3145,-176.277
 L 16.2135,-176.118 L 16.0934,-175.973 L 15.9561,-175.844 L 15.8037,-175.734 L 15.6387,-175.643 L 15.4635,-175.573
 L 15.2811,-175.527 L 15.0942,-175.503 z
M -15.0942,-175.503 L -15.2811,-175.527 L -15.4635,-175.573 L -15.6387,-175.643 L -15.8037,-175.734 L -15.9561,-175.844
 L -16.0934,-175.973 L -16.2135,-176.118 L -16.3145,-176.277 L -16.3947,-176.448 L -16.4529,-176.627 L -16.4882,-176.812
 L -16.5,-177 L -16.4882,-177.188 L -16.4529,-177.373 L -16.3947,-177.552 L -16.3145,-177.723 L -16.2135,-177.882
 L -16.0934,-178.027 L -15.9561,-178.156 L -15.8037,-178.266 L -15.6387,-178.357 L -15.4635,-178.427 L -15.2811,-178.473
 L -15.0942,-178.497 L -14.9058,-178.497 L -14.7189,-178.473 L -14.5365,-178.427 L -14.3613,-178.357 L -14.1963,-178.266
 L -14.0439,-178.156 L -13.9065,-178.027 L -13.7865,-177.882 L -13.6855,-177.723 L -13.6053,-177.552 L -13.5471,-177.373
 L -13.5118,-177.188 L -13.5,-177 L -13.5118,-176.812 L -13.5471,-176.627 L -13.6053,-176.448 L -13.6855,-176.277
 L -13.7865,-176.118 L -13.9065,-175.973 L -14.0439,-175.844 L -14.1963,-175.734 L -14.3613,-175.643 L -14.5365,-175.573
 L -14.7189,-175.527 L -14.9058,-175.503 z
M 14.9058,-145.503 L 14.7189,-145.527 L 14.5365,-145.573 L 14.3613,-145.643 L 14.1963,-145.734 L 14.0439,-145.844
 L 13.9065,-145.973 L 13.7865,-146.118 L 13.6855,-146.277 L 13.6053,-146.448 L 13.5471,-146.627 L 13.5118,-146.812
 L 13.5,-147 L 13.5118,-147.188 L 13.5471,-147.373 L 13.6053,-147.552 L 13.6855,-147.723 L 13.7865,-147.882
 L 13.9065,-148.027 L 14.0439,-148.156 L 14.1963,-148.266 L 14.3613,-148.357 L 14.5365,-148.427 L 14.7189,-148.473
 L 14.9058,-148.497 L 15.0942,-148.497 L 15.2811,-148.473 L 15.4635,-148.427 L 15.6387,-148.357 L 15.8037,-148.266
 L 15.9561,-148.156 L 16.0934,-148.027 L 16.2135,-147.882 L 16.3145,-147.723 L 16.3947,-147.552 L 16.4529,-147.373
 L 16.4882,-147.188 L 16.5,-147 L 16.4882,-146.812 L 16.4529,-146.627 L 16.3947,-146.448 L 16.3145,-146.277
 L 16.2135,-146.118 L 16.0934,-145.973 L 15.9561,-145.844 L 15.8037,-145.734 L 15.6387,-145.643 L 15.4635,-145.573
 L 15.2811,-145.527 L 15.0942,-145.503 z
M -15.0942,-145.503 L -15.2811,-145.527 L -15.4635,-145.573 L -15.6387,-145.643 L -15.8037,-145.734 L -15.9561,-145.844
 L -16.0934,-145.973 L -16.2135,-146.118 L -16.3145,-146.277 L -16.3947,-146.448 L -16.4529,-146.627 L -16.4882,-146.812
 L -16.5,-147 L -16.4882,-147.188 L -16.4529,-147.373 L -16.3947,-147.552 L -16.3145,-147.723 L -16.2135,-147.882
 L -16.0934,-148.027 L -15.9561,-148.156 L -15.8037,-148.266 L -15.6387,-148.357 L -15.4635,-148.427 L -15.2811,-148.473
 L -15.0942,-148.497 L -14.9058,-148.497 L -14.7189,-148.473 L -14.5365,-148.427 L -14.3613,-148.357 L -14.1963,-148.266
 L -14.0439,-148.156 L -13.9065,-148.027 L -13.7865,-147.882 L -13.6855,-147.723 L -13.6053,-147.552 L -13.5471,-147.373
 L -13.5118,-147.188 L -13.5,-147 L -13.5118,-146.812 L -13.5471,-146.627 L -13.6053,-146.448 L -13.6855,-146.277
 L -13.7865,-146.118 L -13.9065,-145.973 L -14.0439,-145.844 L -14.1963,-145.734 L -14.3613,-145.643 L -14.5365,-145.573
 L -14.7189,-145.527 L -14.9058,-145.503 z
" stroke="black" fill="lightgray" stroke-width="0.5"/>
</svg>
