<?xml version="1.0" standalone="no"?>
<!DOCTYPE svg PUBLIC "-//W3C//DTD SVG 1.1//EN" "http://www.w3.org/Graphics/SVG/1.1/DTD/svg11.dtd">
<svg width="60mm" height="98mm" viewBox="-30 -184 60 98" xmlns="http://www.w3.org/2000/svg" version="1.1">
<title>OpenSCAD Model</title>
<path d="
M 25.4369,-86.0886 L 26.0451,-86.2447 L 26.6289,-86.4759 L 27.1791,-86.7784 L 27.6871,-87.1474 L 28.1448,-87.5773
 L 28.5451,-88.0611 L 28.8815,-88.5912 L 29.1489,-89.1594 L 29.3429,-89.7566 L 29.4606,-90.3733 L 29.5,-91
 L 29.5,-125 L 29.4606,-125.627 L 29.3429,-126.243 L 29.1489,-126.841 L 28.8815,-127.409 L 28.5451,-127.939
 L 28.1448,-128.423 L 27.6871,-128.853 L 27.1791,-129.222 L 26.6289,-129.524 L 26.0451,-129.755 L 25.4369,-129.911
 L 24.8139,-129.99 L -24.8139,-129.99 L -25.4369,-129.911 L -26.0451,-129.755 L -26.6289,-129.524 L -27.1791,-129.222
 L -27.6871,-128.853 L -28.1448,-128.423 L -28.5451,-127.939 L -28.8815,-127.409 L -29.1489,-126.841 L -29.3429,-126.243
 L -29.4606,-125.627 L -29.5,-125 L -29.5,-91 L -29.4606,-90.3733 L -29.3429,-89.7566 L -29.1489,-89.1594
 L -28.8815,-88.5912 L -28.5451,-88.0611 L -28.1448,-87.5773 L -27.6871,-87.1474 L -27.1791,-86.7784 L -26.6289,-86.4759
 L -26.0451,-86.2447 L -25.4369,-86.0886 L -24.8139,-86.0099 L 24.8139,-86.0099 z
M -22.6507,-120.605 L -22.9497,-120.643 L -23.2416,-120.717 L -23.5219,-120.828 L -23.786,-120.974 L -24.0298,-121.151
 L -24.2495,-121.357 L -24.4416,-121.589 L -24.6031,-121.844 L -24.7315,-122.117 L -24.8246,-122.403 L -24.8811,-122.699
 L -24.9,-123 L -24.8811,-123.301 L -24.8246,-123.597 L -24.7315,-123.883 L -24.6031,-124.156 L -24.4416,-124.411
 L -24.2495,-124.643 L -24.0298,-124.849 L -23.786,-125.026 L -23.5219,-125.172 L -23.2416,-125.283 L -22.9497,-125.357
 L -22.6507,-125.395 L -22.3493,-125.395 L -22.0503,-125.357 L -21.7583,-125.283 L -21.4781,-125.172 L -21.214,-125.026
 L -20.9702,-124.849 L -20.7505,-124.643 L -20.5583,-124.411 L -20.3969,-124.156 L -20.2685,-123.883 L -20.1754,-123.597
 L -20.1189,-123.301 L -20.1,-123 L -20.1189,-122.699 L -20.1754,-122.403 L -20.2685,-122.117 L -20.3969,-121.844
 L -20.5583,-121.589 L -20.7505,-121.357 L -20.9702,-121.151 L -21.214,-120.974 L -21.4781,-120.828 L -21.7583,-120.717
 L -22.0503,-120.643 L -22.3493,-120.605 z
M 22.3493,-120.605 L 22.0503,-120.643 L 21.7583,-120.717 L 21.4781,-120.828 L 21.214,-120.974 L 20.9702,-121.151
 L 20.7505,-121.357 L 20.5583,-121.589 L 20.3969,-121.844 L 20.2685,-122.117 L 20.1754,-122.403 L 20.1189,-122.699
 L 20.1,-123 L 20.1189,-123.301 L 20.1754,-123.597 L 20.2685,-123.883 L 20.3969,-124.156 L 20.5583,-124.411
 L 20.7505,-124.643 L 20.9702,-124.849 L 21.214,-125.026 L 21.4781,-125.172 L 21.7583,-125.283 L 22.0503,-125.357
 L 22.3493,-125.395 L 22.6507,-125.395 L 22.9497,-125.357 L 23.2416,-125.283 L 23.5219,-125.172 L 23.786,-125.026
 L 24.0298,-124.849 L 24.2495,-124.643 L 24.4416,-124.411 L 24.6031,-124.156 L 24.7315,-123.883 L 24.8246,-123.597
 L 24.8811,-123.301 L 24.9,-123 L 24.8811,-122.699 L 24.8246,-122.403 L 24.7315,-122.117 L 24.6031,-121.844
 L 24.4416,-121.589 L 24.2495,-121.357 L 24.0298,-121.151 L 23.786,-120.974 L 23.5219,-120.828 L 23.2416,-120.717
 L 22.9497,-120.643 L 22.6507,-120.605 z
M 22.3493,-90.6047 L 22.0503,-90.6425 L 21.7583,-90.7175 L 21.4781,-90.8284 L 21.214,-90.9736 L 20.9702,-91.1508
 L 20.7505,-91.3571 L 20.5583,-91.5893 L 20.3969,-91.8438 L 20.2685,-92.1165 L 20.1754,-92.4032 L 20.1189,-92.6992
 L 20.1,-93 L 20.1189,-93.3008 L 20.1754,-93.5969 L 20.2685,-93.8835 L 20.3969,-94.1562 L 20.5583,-94.4107
 L 20.7505,-94.6429 L 20.9702,-94.8492 L 21.214,-95.0264 L 21.4781,-95.1716 L 21.7583,-95.2825 L 22.0503,-95.3575
 L 22.3493,-95.3953 L 22.6507,-95.3953 L 22.9497,-95.3575 L 23.2416,-95.2825 L 23.5219,-95.1716 L 23.786,-95.0264
 L 24.0298,-94.8492 L 24.2495,-94.6429 L 24.4416,-94.4107 L 24.6031,-94.1562 L 24.7315,-93.8835 L 24.8246,-93.5969
 L 24.8811,-93.3008 L 24.9,-93 L 24.8811,-92.6992 L 24.8246,-92.4032 L 24.7315,-92.1165 L 24.6031,-91.8438
 L 24.4416,-91.5893 L 24.2495,-91.3571 L 24.0298,-91.1508 L 23.786,-90.9736 L 23.5219,-90.8284 L 23.2416,-90.7175
 L 22.9497,-90.6425 L 22.6507,-90.6047 z
M -22.6507,-90.6047 L -22.9497,-90.6425 L -23.2416,-90.7175 L -23.5219,-90.8284 L -23.786,-90.9736 L -24.0298,-91.1508
 L -24.2495,-91.3571 L -24.4416,-91.5893 L -24.6031,-91.8438 L -24.7315,-92.1165 L -24.8246,-92.4032 L -24.8811,-92.6992
 L -24.9,-93 L -24.8811,-93.3008 L -24.8246,-93.5969 L -24.7315,-93.8835 L -24.6031,-94.1562 L -24.4416,-94.4107
 L -24.2495,-94.6429 L -24.0298,-94.8492 L -23.786,-95.0264 L -23.5219,-95.1716 L -23.2416,-95.2825 L -22.9497,-95.3575
 L -22.6507,-95.3953 L -22.3493,-95.3953 L -22.0503,-95.3575 L -21.7583,-95.2825 L -21.4781,-95.1716 L -21.214,-95.0264
 L -20.9702,-94.8492 L -20.7505,-94.6429 L -20.5583,-94.4107 L -20.3969,-94.1562 L -20.2685,-93.8835 L -20.1754,-93.5969
 L -20.1189,-93.3008 L -20.1,-93 L -20.1189,-92.6992 L -20.1754,-92.4032 L -20.2685,-92.1165 L -20.3969,-91.8438
 L -20.5583,-91.5893 L -20.7505,-91.3571 L -20.9702,-91.1508 L -21.214,-90.9736 L -21.4781,-90.8284 L -21.7583,-90.7175
 L -22.0503,-90.6425 L -22.3493,-90.6047 z
M -28.5451,-142.061 L -28.1448,-141.577 L -27.6871,-141.147 L -27.1791,-140.778 L -26.6289,-140.476 L -26.0451,-140.245
 L -25.4369,-140.089 L -24.8139,-140.01 L 24.8139,-140.01 L 25.4369,-140.089 L 26.0451,-140.245 L 26.6289,-140.476
 L 27.1791,-140.778 L 27.6871,-141.147 L 28.1448,-141.577 L 28.5451,-142.061 L 28.8815,-142.591 L 29.1489,-143.159
 L 29.3429,-143.757 L 29.4606,-144.373 L 29.5,-145 L 29.5,-179 L 29.4606,-179.627 L 29.3429,-180.243
 L 29.1489,-180.841 L 28.8815,-181.409 L 28.5451,-181.939 L 28.1448,-182.423 L 27.6871,-182.853 L 27.1791,-183.222
 L 26.6289,-183.524 L 26.0451,-183.755 L 25.4369,-183.911 L 24.8139,-183.99 L -24.8139,-183.99 L -25.4369,-183.911
 L -26.0451,-183.755 L -26.6289,-183.524 L -27.1791,-183.222 L -27.6871,-182.853 L -28.1448,-182.423 L -28.5451,-181.939
 L -28.8815,-181.409 L -29.1489,-180.841 L -29.3429,-180.243 L -29.4606,-179.627 L -29.5,-179 L -29.5,-145
 L -29.4606,-144.373 L -29.3429,-143.757 L -29.1489,-143.159 L -28.8815,-142.591 z
M -27.5884,-144.61 L -27.6129,-145 L -27.6129,-179 L -27.5884,-179.39 L -27.5151,-179.774 L -27.3943,-180.146
 L -27.2279,-180.5 L -27.0184,-180.83 L -26.7692,-181.131 L -26.4842,-181.399 L -26.168,-181.628 L -25.8254,-181.817
 L -25.4619,-181.961 L -25.0833,-182.058 L -24.6954,-182.107 L 24.6954,-182.107 L 25.0833,-182.058 L 25.4619,-181.961
 L 25.8254,-181.817 L 26.168,-181.628 L 26.4842,-181.399 L 26.7692,-181.131 L 27.0184,-180.83 L 27.2279,-180.5
 L 27.3943,-180.146 L 27.5151,-179.774 L 27.5884,-179.39 L 27.6129,-179 L 27.6129,-145 L 27.5884,-144.61
 L 27.5151,-144.226 L 27.3943,-143.854 L 27.2279,-143.5 L 27.0184,-143.17 L 26.7692,-142.869 L 26.4842,-142.601
 L 26.168,-142.372 L 25.8254,-142.183 L 25.4619,-142.039 L 25.0833,-141.942 L 24.6954,-141.893 L -24.6954,-141.893
 L -25.0833,-141.942 L -25.4619,-142.039 L -25.8254,-142.183 L -26.168,-142.372 L -26.4842,-142.601 L -26.7692,-142.869
 L -27.0184,-143.17 L -27.2279,-143.5 L -27.3943,-143.854 L -27.5151,-144.226 z
" stroke="black" fill="lightgray" stroke-width="0.5"/>
</svg>
