<?xml version="1.0" standalone="no"?>
<!DOCTYPE svg PUBLIC "-//W3C//DTD SVG 1.1//EN" "http://www.w3.org/Graphics/SVG/1.1/DTD/svg11.dtd">
<svg width="30mm" height="208mm" viewBox="-15 -401 30 208" xmlns="http://www.w3.org/2000/svg" version="1.1">
<title>OpenSCAD Model</title>
<path d="
M 10.9369,-355.589 L 11.5451,-355.745 L 12.1289,-355.976 L 12.6791,-356.278 L 13.1871,-356.647 L 13.6448,-357.077
 L 14.0451,-357.561 L 14.3815,-358.091 L 14.6489,-358.659 L 14.8429,-359.257 L 14.9606,-359.873 L 15,-360.5
 L 15,-395.5 L 14.9606,-396.127 L 14.8429,-396.743 L 14.6489,-397.341 L 14.3815,-397.909 L 14.0451,-398.439
 L 13.6448,-398.923 L 13.1871,-399.353 L 12.6791,-399.722 L 12.1289,-400.024 L 11.5451,-400.255 L 10.9369,-400.411
 L 10.3139,-400.49 L -10.3139,-400.49 L -10.9369,-400.411 L -11.5451,-400.255 L -12.1289,-400.024 L -12.6791,-399.722
 L -13.1871,-399.353 L -13.6448,-398.923 L -14.0451,-398.439 L -14.3815,-397.909 L -14.6489,-397.341 L -14.8429,-396.743
 L -14.9606,-396.127 L -15,-395.5 L -15,-360.5 L -14.9606,-359.873 L -14.8429,-359.257 L -14.6489,-358.659
 L -14.3815,-358.091 L -14.0451,-357.561 L -13.6448,-357.077 L -13.1871,-356.647 L -12.6791,-356.278 L -12.1289,-355.976
 L -11.5451,-355.745 L -10.9369,-355.589 L -10.3139,-355.51 L 10.3139,-355.51 z
M -10.0482,-356.009 L -10.6401,-356.084 L -11.2178,-356.232 L -11.7724,-356.452 L -12.2952,-356.739 L -12.7778,-357.09
 L -13.2126,-357.498 L -13.5928,-357.958 L -13.9124,-358.462 L -14.1664,-359.001 L -14.3508,-359.569 L -14.4625,-360.155
 L -14.5,-360.75 L -14.5,-395.25 L -14.4625,-395.845 L -14.3508,-396.431 L -14.1664,-396.999 L -13.9124,-397.538
 L -13.5928,-398.042 L -13.2126,-398.502 L -12.7778,-398.91 L -12.2952,-399.261 L -11.7724,-399.548 L -11.2178,-399.768
 L -10.6401,-399.916 L -10.0482,-399.991 L 10.0482,-399.991 L 10.6401,-399.916 L 11.2178,-399.768 L 11.7724,-399.548
 L 12.2952,-399.261 L 12.7778,-398.91 L 13.2126,-398.502 L 13.5928,-398.042 L 13.9124,-397.538 L 14.1664,-396.999
 L 14.3508,-396.431 L 14.4625,-395.845 L 14.5,-395.25 L 14.5,-360.75 L 14.4625,-360.155 L 14.3508,-359.569
 L 14.1664,-359.001 L 13.9124,-358.462 L 13.5928,-357.958 L 13.2126,-357.498 L 12.7778,-357.09 L 12.2952,-356.739
 L 11.7724,-356.452 L 11.2178,-356.232 L 10.6401,-356.084 L 10.0482,-356.009 z
M 10.9369,-301.589 L 11.5451,-301.745 L 12.1289,-301.976 L 12.6791,-302.278 L 13.1871,-302.647 L 13.6448,-303.077
 L 14.0451,-303.561 L 14.3815,-304.091 L 14.6489,-304.659 L 14.8429,-305.257 L 14.9606,-305.873 L 15,-306.5
 L 15,-341.5 L 14.9606,-342.127 L 14.8429,-342.743 L 14.6489,-343.341 L 14.3815,-343.909 L 14.0451,-344.439
 L 13.6448,-344.923 L 13.1871,-345.353 L 12.6791,-345.722 L 12.1289,-346.024 L 11.5451,-346.255 L 10.9369,-346.411
 L 10.3139,-346.49 L -10.3139,-346.49 L -10.9369,-346.411 L -11.5451,-346.255 L -12.1289,-346.024 L -12.6791,-345.722
 L -13.1871,-345.353 L -13.6448,-344.923 L -14.0451,-344.439 L -14.3815,-343.909 L -14.6489,-343.341 L -14.8429,-342.743
 L -14.9606,-342.127 L -15,-341.5 L -15,-306.5 L -14.9606,-305.873 L -14.8429,-305.257 L -14.6489,-304.659
 L -14.3815,-304.091 L -14.0451,-303.561 L -13.6448,-303.077 L -13.1871,-302.647 L -12.6791,-302.278 L -12.1289,-301.976
 L -11.5451,-301.745 L -10.9369,-301.589 L -10.3139,-301.51 L 10.3139,-301.51 z
M -10.0482,-302.009 L -10.6401,-302.084 L -11.2178,-302.232 L -11.7724,-302.452 L -12.2952,-302.739 L -12.7778,-303.09
 L -13.2126,-303.498 L -13.5928,-303.958 L -13.9124,-304.462 L -14.1664,-305.001 L -14.3508,-305.569 L -14.4625,-306.155
 L -14.5,-306.75 L -14.5,-341.25 L -14.4625,-341.845 L -14.3508,-342.431 L -14.1664,-342.999 L -13.9124,-343.538
 L -13.5928,-344.042 L -13.2126,-344.502 L -12.7778,-344.91 L -12.2952,-345.261 L -11.7724,-345.548 L -11.2178,-345.768
 L -10.6401,-345.916 L -10.0482,-345.991 L 10.0482,-345.991 L 10.6401,-345.916 L 11.2178,-345.768 L 11.7724,-345.548
 L 12.2952,-345.261 L 12.7778,-344.91 L 13.2126,-344.502 L 13.5928,-344.042 L 13.9124,-343.538 L 14.1664,-342.999
 L 14.3508,-342.431 L 14.4625,-341.845 L 14.5,-341.25 L 14.5,-306.75 L 14.4625,-306.155 L 14.3508,-305.569
 L 14.1664,-305.001 L 13.9124,-304.462 L 13.5928,-303.958 L 13.2126,-303.498 L 12.7778,-303.09 L 12.2952,-302.739
 L 11.7724,-302.452 L 11.2178,-302.232 L 10.6401,-302.084 L 10.0482,-302.009 z
M 10.9369,-247.589 L 11.5451,-247.745 L 12.1289,-247.976 L 12.6791,-248.278 L 13.1871,-248.647 L 13.6448,-249.077
 L 14.0451,-249.561 L 14.3815,-250.091 L 14.6489,-250.659 L 14.8429,-251.257 L 14.9606,-251.873 L 15,-252.5
 L 15,-287.5 L 14.9606,-288.127 L 14.8429,-288.743 L 14.6489,-289.341 L 14.3815,-289.909 L 14.0451,-290.439
 L 13.6448,-290.923 L 13.1871,-291.353 L 12.6791,-291.722 L 12.1289,-292.024 L 11.5451,-292.255 L 10.9369,-292.411
 L 10.3139,-292.49 L -10.3139,-292.49 L -10.9369,-292.411 L -11.5451,-292.255 L -12.1289,-292.024 L -12.6791,-291.722
 L -13.1871,-291.353 L -13.6448,-290.923 L -14.0451,-290.439 L -14.3815,-289.909 L -14.6489,-289.341 L -14.8429,-288.743
 L -14.9606,-288.127 L -15,-287.5 L -15,-252.5 L -14.9606,-251.873 L -14.8429,-251.257 L -14.6489,-250.659
 L -14.3815,-250.091 L -14.0451,-249.561 L -13.6448,-249.077 L -13.1871,-248.647 L -12.6791,-248.278 L -12.1289,-247.976
 L -11.5451,-247.745 L -10.9369,-247.589 L -10.3139,-247.51 L 10.3139,-247.51 z
M -10.0375,-248.181 L -10.6079,-248.253 L -11.1648,-248.396 L -11.6994,-248.607 L -12.2032,-248.884 L -12.6684,-249.222
 L -13.0875,-249.616 L -13.454,-250.059 L -13.7621,-250.544 L -14.0069,-251.065 L -14.1846,-251.611 L -14.2923,-252.176
 L -14.3284,-252.75 L -14.3284,-287.25 L -14.2923,-287.824 L -14.1846,-288.389 L -14.0069,-288.935 L -13.7621,-289.456
 L -13.454,-289.941 L -13.0875,-290.384 L -12.6684,-290.778 L -12.2032,-291.116 L -11.6994,-291.393 L -11.1648,-291.604
 L -10.6079,-291.747 L -10.0375,-291.819 L 10.0375,-291.819 L 10.6079,-291.747 L 11.1648,-291.604 L 11.6994,-291.393
 L 12.2032,-291.116 L 12.6684,-290.778 L 13.0875,-290.384 L 13.454,-289.941 L 13.7621,-289.456 L 14.0069,-288.935
 L 14.1846,-288.389 L 14.2923,-287.824 L 14.3284,-287.25 L 14.3284,-252.75 L 14.2923,-252.176 L 14.1846,-251.611
 L 14.0069,-251.065 L 13.7621,-250.544 L 13.454,-250.059 L 13.0875,-249.616 L 12.6684,-249.222 L 12.2032,-248.884
 L 11.6994,-248.607 L 11.1648,-248.396 L 10.6079,-248.253 L 10.0375,-248.181 z
M 10.9369,-193.589 L 11.5451,-193.745 L 12.1289,-193.976 L 12.6791,-194.278 L 13.1871,-194.647 L 13.6448,-195.077
 L 14.0451,-195.561 L 14.3815,-196.091 L 14.6489,-196.659 L 14.8429,-197.257 L 14.9606,-197.873 L 15,-198.5
 L 15,-233.5 L 14.9606,-234.127 L 14.8429,-234.743 L 14.6489,-235.341 L 14.3815,-235.909 L 14.0451,-236.439
 L 13.6448,-236.923 L 13.1871,-237.353 L 12.6791,-237.722 L 12.1289,-238.024 L 11.5451,-238.255 L 10.9369,-238.411
 L 10.3139,-238.49 L -10.3139,-238.49 L -10.9369,-238.411 L -11.5451,-238.255 L -12.1289,-238.024 L -12.6791,-237.722
 L -13.1871,-237.353 L -13.6448,-236.923 L -14.0451,-236.439 L -14.3815,-235.909 L -14.6489,-235.341 L -14.8429,-234.743
 L -14.9606,-234.127 L -15,-233.5 L -15,-198.5 L -14.9606,-197.873 L -14.8429,-197.257 L -14.6489,-196.659
 L -14.3815,-196.091 L -14.0451,-195.561 L -13.6448,-195.077 L -13.1871,-194.647 L -12.6791,-194.278 L -12.1289,-193.976
 L -11.5451,-193.745 L -10.9369,-193.589 L -10.3139,-193.51 L 10.3139,-193.51 z
M -9.88246,-196.645 L -10.1453,-196.678 L -10.4019,-196.744 L -10.6482,-196.841 L -10.8804,-196.969 L -11.0947,-197.125
 L -11.2878,-197.306 L -11.4567,-197.51 L -11.5987,-197.734 L -11.7115,-197.973 L -11.7934,-198.225 L -11.843,-198.486
 L -11.8596,-198.75 L -11.8596,-233.25 L -11.843,-233.514 L -11.7934,-233.775 L -11.7115,-234.027 L -11.5987,-234.266
 L -11.4567,-234.49 L -11.2878,-234.694 L -11.0947,-234.875 L -10.8804,-235.031 L -10.6482,-235.159 L -10.4019,-235.256
 L -10.1453,-235.322 L -9.88246,-235.355 L 9.88246,-235.355 L 10.1453,-235.322 L 10.4019,-235.256 L 10.6482,-235.159
 L 10.8804,-235.031 L 11.0947,-234.875 L 11.2878,-234.694 L 11.4567,-234.49 L 11.5987,-234.266 L 11.7115,-234.027
 L 11.7934,-233.775 L 11.843,-233.514 L 11.8596,-233.25 L 11.8596,-198.75 L 11.843,-198.486 L 11.7934,-198.225
 L 11.7115,-197.973 L 11.5987,-197.734 L 11.4567,-197.51 L 11.2878,-197.306 L 11.0947,-197.125 L 10.8804,-196.969
 L 10.6482,-196.841 L 10.4019,-196.744 L 10.1453,-196.678 L 9.88246,-196.645 z
" stroke="black" fill="lightgray" stroke-width="0.5"/>
</svg>
