<?xml version="1.0" standalone="no"?>
<!DOCTYPE svg PUBLIC "-//W3C//DTD SVG 1.1//EN" "http://www.w3.org/Graphics/SVG/1.1/DTD/svg11.dtd">
<svg width="58mm" height="58mm" viewBox="-29 -29 58 58" xmlns="http://www.w3.org/2000/svg" version="1.1">
<title>OpenSCAD Model</title>
<path d="
M 25.7495,28.9291 L 26.2361,28.8042 L 26.7031,28.6193 L 27.1433,28.3773 L 27.5497,28.082 L 27.9159,27.7382
 L 28.2361,27.3511 L 28.5052,26.927 L 28.7191,26.4725 L 28.8743,25.9948 L 28.9684,25.5013 L 29,25
 L 29,-25 L 28.9684,-25.5013 L 28.8743,-25.9948 L 28.7191,-26.4725 L 28.5052,-26.927 L 28.2361,-27.3511
 L 27.9159,-27.7382 L 27.5497,-28.082 L 27.1433,-28.3773 L 26.7031,-28.6193 L 26.2361,-28.8042 L 25.7495,-28.9291
 L 25.2512,-28.9921 L -25.2512,-28.9921 L -25.7495,-28.9291 L -26.2361,-28.8042 L -26.7031,-28.6193 L -27.1433,-28.3773
 L -27.5497,-28.082 L -27.9159,-27.7382 L -28.2361,-27.3511 L -28.5052,-26.927 L -28.7191,-26.4725 L -28.8743,-25.9948
 L -28.9684,-25.5013 L -29,-25 L -29,25 L -28.9684,25.5013 L -28.8743,25.9948 L -28.7191,26.4725
 L -28.5052,26.927 L -28.2361,27.3511 L -27.9159,27.7382 L -27.5497,28.082 L -27.1433,28.3773 L -26.7031,28.6193
 L -26.2361,28.8042 L -25.7495,28.9291 L -25.2512,28.9921 L 25.2512,28.9921 z
M 22.3179,-19.6057 L 21.9566,-19.6514 L 21.6039,-19.7419 L 21.2652,-19.876 L 20.9461,-20.0514 L 20.6515,-20.2655
 L 20.386,-20.5148 L 20.1538,-20.7954 L 19.9587,-21.1029 L 19.8036,-21.4324 L 19.6911,-21.7788 L 19.6229,-22.1365
 L 19.6,-22.5 L 19.6229,-22.8635 L 19.6911,-23.2212 L 19.8036,-23.5676 L 19.9587,-23.8971 L 20.1538,-24.2046
 L 20.386,-24.4852 L 20.6515,-24.7345 L 20.9461,-24.9485 L 21.2652,-25.124 L 21.6039,-25.2581 L 21.9566,-25.3486
 L 22.3179,-25.3943 L 22.6821,-25.3943 L 23.0434,-25.3486 L 23.3961,-25.2581 L 23.7348,-25.124 L 24.0539,-24.9485
 L 24.3485,-24.7345 L 24.614,-24.4852 L 24.8461,-24.2046 L 25.0413,-23.8971 L 25.1964,-23.5676 L 25.3089,-23.2212
 L 25.3771,-22.8635 L 25.4,-22.5 L 25.3771,-22.1365 L 25.3089,-21.7788 L 25.1964,-21.4324 L 25.0413,-21.1029
 L 24.8461,-20.7954 L 24.614,-20.5148 L 24.3485,-20.2655 L 24.0539,-20.0514 L 23.7348,-19.876 L 23.3961,-19.7419
 L 23.0434,-19.6514 L 22.6821,-19.6057 z
M -22.6821,-19.6057 L -23.0434,-19.6514 L -23.3961,-19.7419 L -23.7348,-19.876 L -24.0539,-20.0514 L -24.3485,-20.2655
 L -24.614,-20.5148 L -24.8461,-20.7954 L -25.0413,-21.1029 L -25.1964,-21.4324 L -25.3089,-21.7788 L -25.3771,-22.1365
 L -25.4,-22.5 L -25.3771,-22.8635 L -25.3089,-23.2212 L -25.1964,-23.5676 L -25.0413,-23.8971 L -24.8461,-24.2046
 L -24.614,-24.4852 L -24.3485,-24.7345 L -24.0539,-24.9485 L -23.7348,-25.124 L -23.3961,-25.2581 L -23.0434,-25.3486
 L -22.6821,-25.3943 L -22.3179,-25.3943 L -21.9566,-25.3486 L -21.6039,-25.2581 L -21.2652,-25.124 L -20.9461,-24.9485
 L -20.6515,-24.7345 L -20.386,-24.4852 L -20.1538,-24.2046 L -19.9587,-23.8971 L -19.8036,-23.5676 L -19.6911,-23.2212
 L -19.6229,-22.8635 L -19.6,-22.5 L -19.6229,-22.1365 L -19.6911,-21.7788 L -19.8036,-21.4324 L -19.9587,-21.1029
 L -20.1538,-20.7954 L -20.386,-20.5148 L -20.6515,-20.2655 L -20.9461,-20.0514 L -21.2652,-19.876 L -21.6039,-19.7419
 L -21.9566,-19.6514 L -22.3179,-19.6057 z
M 20.1538,24.2046 L 19.9587,23.8971 L 19.8036,23.5676 L 19.6911,23.2212 L 19.6229,22.8635 L 19.6,22.5
 L 19.6229,22.1365 L 19.6911,21.7788 L 19.8036,21.4324 L 19.9587,21.1029 L 20.1538,20.7954 L 20.386,20.5148
 L 20.6515,20.2655 L 20.9461,20.0514 L 21.2652,19.876 L 21.6039,19.7419 L 21.9566,19.6514 L 22.3179,19.6057
 L 22.6821,19.6057 L 23.0434,19.6514 L 23.3961,19.7419 L 23.7348,19.876 L 24.0539,20.0514 L 24.3485,20.2655
 L 24.614,20.5148 L 24.8461,20.7954 L 25.0413,21.1029 L 25.1964,21.4324 L 25.3089,21.7788 L 25.3771,22.1365
 L 25.4,22.5 L 25.3771,22.8635 L 25.3089,23.2212 L 25.1964,23.5676 L 25.0413,23.8971 L 24.8461,24.2046
 L 24.614,24.4852 L 24.3485,24.7345 L 24.0539,24.9485 L 23.7348,25.124 L 23.3961,25.2581 L 23.0434,25.3486
 L 22.6821,25.3943 L 22.3179,25.3943 L 21.9566,25.3486 L 21.6039,25.2581 L 21.2652,25.124 L 20.9461,24.9485
 L 20.6515,24.7345 L 20.386,24.4852 z
M -21.2652,25.124 L -21.6039,25.2581 L -21.9566,25.3486 L -22.3179,25.3943 L -22.6821,25.3943 L -23.0434,25.3486
 L -23.3961,25.2581 L -23.7348,25.124 L -24.0539,24.9485 L -24.3485,24.7345 L -24.614,24.4852 L -24.8461,24.2046
 L -25.0413,23.8971 L -25.1964,23.5676 L -25.3089,23.2212 L -25.3771,22.8635 L -25.4,22.5 L -25.3771,22.1365
 L -25.3089,21.7788 L -25.1964,21.4324 L -25.0413,21.1029 L -24.8461,20.7954 L -24.614,20.5148 L -24.3485,20.2655
 L -24.0539,20.0514 L -23.7348,19.876 L -23.3961,19.7419 L -23.0434,19.6514 L -22.6821,19.6057 L -22.3179,19.6057
 L -21.9566,19.6514 L -21.6039,19.7419 L -21.2652,19.876 L -20.9461,20.0514 L -20.6515,20.2655 L -20.386,20.5148
 L -20.1538,20.7954 L -19.9587,21.1029 L -19.8036,21.4324 L -19.6911,21.7788 L -19.6229,22.1365 L -19.6,22.5
 L -19.6229,22.8635 L -19.6911,23.2212 L -19.8036,23.5676 L -19.9587,23.8971 L -20.1538,24.2046 L -20.386,24.4852
 L -20.6515,24.7345 L -20.9461,24.9485 z
" stroke="black" fill="lightgray" stroke-width="0.5"/>
</svg>
