<?xml version="1.0" standalone="no"?>
<!DOCTYPE svg PUBLIC "-//W3C//DTD SVG 1.1//EN" "http://www.w3.org/Graphics/SVG/1.1/DTD/svg11.dtd">
<svg width="24mm" height="184mm" viewBox="-12 -174 24 184" xmlns="http://www.w3.org/2000/svg" version="1.1">
<title>OpenSCAD Model</title>
<path d="
M 2.10803,-150.949 L 3.47644,-151.301 L 4.79001,-151.821 L 6.02805,-152.501 L 7.17101,-153.332 L 8.20088,-154.299
 L 9.10144,-155.387 L 9.85844,-156.58 L 10.46,-157.859 L 10.8965,-159.202 L 11.1613,-160.59 L 11.25,-162
 L 11.1613,-163.41 L 10.8965,-164.798 L 10.46,-166.141 L 9.85844,-167.42 L 9.10144,-168.613 L 8.20088,-169.701
 L 7.17101,-170.668 L 6.02805,-171.499 L 4.79001,-172.179 L 3.47644,-172.699 L 2.10803,-173.051 L 0.70639,-173.228
 L -0.70639,-173.228 L -2.10803,-173.051 L -3.47644,-172.699 L -4.79001,-172.179 L -6.02805,-171.499 L -7.17101,-170.668
 L -8.20088,-169.701 L -9.10144,-168.613 L -9.85844,-167.42 L -10.46,-166.141 L -10.8965,-164.798 L -11.1613,-163.41
 L -11.25,-162 L -11.1613,-160.59 L -10.8965,-159.202 L -10.46,-157.859 L -9.85844,-156.58 L -9.10144,-155.387
 L -8.20088,-154.299 L -7.17101,-153.332 L -6.02805,-152.501 L -4.79001,-151.821 L -3.47644,-151.301 L -2.10803,-150.949
 L -0.70639,-150.772 L 0.70639,-150.772 z
M -1.5,-159.5 L -1.5,-160.5 L -2.5,-160.5 L -2.5,-163.5 L -1.5,-163.5 L -1.5,-164.5
 L 1.5,-164.5 L 1.5,-163.5 L 2.5,-163.5 L 2.5,-160.5 L 1.5,-160.5 L 1.5,-159.5
 z
M -7.59418,-160.503 L -7.78107,-160.527 L -7.96352,-160.573 L -8.13866,-160.643 L -8.30373,-160.734 L -8.45613,-160.844
 L -8.59344,-160.973 L -8.71352,-161.118 L -8.81445,-161.277 L -8.89465,-161.448 L -8.95287,-161.627 L -8.98816,-161.812
 L -9,-162 L -8.98816,-162.188 L -8.95287,-162.373 L -8.89465,-162.552 L -8.81445,-162.723 L -8.71352,-162.882
 L -8.59344,-163.027 L -8.45613,-163.156 L -8.30373,-163.266 L -8.13866,-163.357 L -7.96352,-163.427 L -7.78107,-163.473
 L -7.59418,-163.497 L -7.40581,-163.497 L -7.21892,-163.473 L -7.03647,-163.427 L -6.86133,-163.357 L -6.69626,-163.266
 L -6.54385,-163.156 L -6.40654,-163.027 L -6.28647,-162.882 L -6.18553,-162.723 L -6.10533,-162.552 L -6.04712,-162.373
 L -6.01183,-162.188 L -6,-162 L -6.01183,-161.812 L -6.04712,-161.627 L -6.10533,-161.448 L -6.18553,-161.277
 L -6.28647,-161.118 L -6.40654,-160.973 L -6.54385,-160.844 L -6.69626,-160.734 L -6.86133,-160.643 L -7.03647,-160.573
 L -7.21892,-160.527 L -7.40581,-160.503 z
M 7.40581,-160.503 L 7.21892,-160.527 L 7.03647,-160.573 L 6.86133,-160.643 L 6.69626,-160.734 L 6.54385,-160.844
 L 6.40654,-160.973 L 6.28647,-161.118 L 6.18553,-161.277 L 6.10533,-161.448 L 6.04712,-161.627 L 6.01183,-161.812
 L 6,-162 L 6.01183,-162.188 L 6.04712,-162.373 L 6.10533,-162.552 L 6.18553,-162.723 L 6.28647,-162.882
 L 6.40654,-163.027 L 6.54385,-163.156 L 6.69626,-163.266 L 6.86133,-163.357 L 7.03647,-163.427 L 7.21892,-163.473
 L 7.40581,-163.497 L 7.59418,-163.497 L 7.78107,-163.473 L 7.96352,-163.427 L 8.13866,-163.357 L 8.30373,-163.266
 L 8.45613,-163.156 L 8.59344,-163.027 L 8.71352,-162.882 L 8.81445,-162.723 L 8.89465,-162.552 L 8.95287,-162.373
 L 8.98816,-162.188 L 9,-162 L 8.98816,-161.812 L 8.95287,-161.627 L 8.89465,-161.448 L 8.81445,-161.277
 L 8.71352,-161.118 L 8.59344,-160.973 L 8.45613,-160.844 L 8.30373,-160.734 L 8.13866,-160.643 L 7.96352,-160.573
 L 7.78107,-160.527 L 7.59418,-160.503 z
M 1.87381,-98.1771 L 3.09016,-98.4894 L 4.25778,-98.9517 L 5.35826,-99.5567 L 6.37424,-100.295 L 7.28967,-101.155
 L 8.09016,-102.122 L 8.76306,-103.182 L 9.29776,-104.319 L 9.68582,-105.513 L 9.92114,-106.747 L 10,-108
 L 9.92114,-109.253 L 9.68582,-110.487 L 9.29776,-111.681 L 8.76306,-112.818 L 8.09016,-113.878 L 7.28967,-114.845
 L 6.37424,-115.705 L 5.35826,-116.443 L 4.25778,-117.048 L 3.09016,-117.511 L 1.87381,-117.823 L 0.627899,-117.98
 L -0.627899,-117.98 L -1.87381,-117.823 L -3.09016,-117.511 L -4.25778,-117.048 L -5.35826,-116.443 L -6.37424,-115.705
 L -7.28967,-114.845 L -8.09016,-113.878 L -8.76306,-112.818 L -9.29776,-111.681 L -9.68582,-110.487 L -9.92114,-109.253
 L -10,-108 L -9.92114,-106.747 L -9.68582,-105.513 L -9.29776,-104.319 L -8.76306,-103.182 L -8.09016,-102.122
 L -7.28967,-101.155 L -6.37424,-100.295 L -5.35826,-99.5567 L -4.25778,-98.9517 L -3.09016,-98.4894 L -1.87381,-98.1771
 L -0.627899,-98.0197 L 0.627899,-98.0197 z
M -1.5,-105.5 L -1.5,-106.5 L -2.5,-106.5 L -2.5,-109.5 L -1.5,-109.5 L -1.5,-110.5
 L 1.5,-110.5 L 1.5,-109.5 L 2.5,-109.5 L 2.5,-106.5 L 1.5,-106.5 L 1.5,-105.5
 z
M 7.40581,-106.503 L 7.21892,-106.527 L 7.03647,-106.573 L 6.86133,-106.643 L 6.69626,-106.734 L 6.54385,-106.844
 L 6.40654,-106.973 L 6.28647,-107.118 L 6.18553,-107.277 L 6.10533,-107.448 L 6.04712,-107.627 L 6.01183,-107.812
 L 6,-108 L 6.01183,-108.188 L 6.04712,-108.373 L 6.10533,-108.552 L 6.18553,-108.723 L 6.28647,-108.882
 L 6.40654,-109.027 L 6.54385,-109.156 L 6.69626,-109.266 L 6.86133,-109.357 L 7.03647,-109.427 L 7.21892,-109.473
 L 7.40581,-109.497 L 7.59418,-109.497 L 7.78107,-109.473 L 7.96352,-109.427 L 8.13866,-109.357 L 8.30373,-109.266
 L 8.45613,-109.156 L 8.59344,-109.027 L 8.71352,-108.882 L 8.81445,-108.723 L 8.89465,-108.552 L 8.95287,-108.373
 L 8.98816,-108.188 L 9,-108 L 8.98816,-107.812 L 8.95287,-107.627 L 8.89465,-107.448 L 8.81445,-107.277
 L 8.71352,-107.118 L 8.59344,-106.973 L 8.45613,-106.844 L 8.30373,-106.734 L 8.13866,-106.643 L 7.96352,-106.573
 L 7.78107,-106.527 L 7.59418,-106.503 z
M -7.59418,-106.503 L -7.78107,-106.527 L -7.96352,-106.573 L -8.13866,-106.643 L -8.30373,-106.734 L -8.45613,-106.844
 L -8.59344,-106.973 L -8.71352,-107.118 L -8.81445,-107.277 L -8.89465,-107.448 L -8.95287,-107.627 L -8.98816,-107.812
 L -9,-108 L -8.98816,-108.188 L -8.95287,-108.373 L -8.89465,-108.552 L -8.81445,-108.723 L -8.71352,-108.882
 L -8.59344,-109.027 L -8.45613,-109.156 L -8.30373,-109.266 L -8.13866,-109.357 L -7.96352,-109.427 L -7.78107,-109.473
 L -7.59418,-109.497 L -7.40581,-109.497 L -7.21892,-109.473 L -7.03647,-109.427 L -6.86133,-109.357 L -6.69626,-109.266
 L -6.54385,-109.156 L -6.40654,-109.027 L -6.28647,-108.882 L -6.18553,-108.723 L -6.10533,-108.552 L -6.04712,-108.373
 L -6.01183,-108.188 L -6,-108 L -6.01183,-107.812 L -6.04712,-107.627 L -6.10533,-107.448 L -6.18553,-107.277
 L -6.28647,-107.118 L -6.40654,-106.973 L -6.54385,-106.844 L -6.69626,-106.734 L -6.86133,-106.643 L -7.03647,-106.573
 L -7.21892,-106.527 L -7.40581,-106.503 z
M 1.87381,-44.1771 L 3.09016,-44.4894 L 4.25778,-44.9517 L 5.35826,-45.5567 L 6.37424,-46.2949 L 7.28967,-47.1545
 L 8.09016,-48.1222 L 8.76306,-49.1825 L 9.29776,-50.3188 L 9.68582,-51.5131 L 9.92114,-52.7467 L 10,-54
 L 9.92114,-55.2533 L 9.68582,-56.4869 L 9.29776,-57.6812 L 8.76306,-58.8175 L 8.09016,-59.8778 L 7.28967,-60.8455
 L 6.37424,-61.7051 L 5.35826,-62.4433 L 4.25778,-63.0483 L 3.09016,-63.5106 L 1.87381,-63.8229 L 0.627899,-63.9803
 L -0.627899,-63.9803 L -1.87381,-63.8229 L -3.09016,-63.5106 L -4.25778,-63.0483 L -5.35826,-62.4433 L -6.37424,-61.7051
 L -7.28967,-60.8455 L -8.09016,-59.8778 L -8.76306,-58.8175 L -9.29776,-57.6812 L -9.68582,-56.4869 L -9.92114,-55.2533
 L -10,-54 L -9.92114,-52.7467 L -9.68582,-51.5131 L -9.29776,-50.3188 L -8.76306,-49.1825 L -8.09016,-48.1222
 L -7.28967,-47.1545 L -6.37424,-46.2949 L -5.35826,-45.5567 L -4.25778,-44.9517 L -3.09016,-44.4894 L -1.87381,-44.1771
 L -0.627899,-44.0197 L 0.627899,-44.0197 z
M -0.2229,-50.457 L -0.665192,-50.5129 L -1.097,-50.6238 L -1.51151,-50.7879 L -1.90218,-51.0026 L -2.26285,-51.2647
 L -2.58783,-51.5699 L -2.87201,-51.9134 L -3.11089,-52.2898 L -3.3007,-52.6932 L -3.43846,-53.1172 L -3.522,-53.5551
 L -3.54999,-54 L -3.522,-54.4449 L -3.43846,-54.8828 L -3.3007,-55.3068 L -3.11089,-55.7102 L -2.87201,-56.0866
 L -2.58783,-56.4301 L -2.26285,-56.7353 L -1.90218,-56.9974 L -1.51151,-57.2121 L -1.097,-57.3762 L -0.665192,-57.4871
 L -0.2229,-57.543 L 0.2229,-57.543 L 0.665192,-57.4871 L 1.097,-57.3762 L 1.51151,-57.2121 L 1.90218,-56.9974
 L 2.26285,-56.7353 L 2.58783,-56.4301 L 2.87201,-56.0866 L 3.11089,-55.7102 L 3.3007,-55.3068 L 3.43846,-54.8828
 L 3.522,-54.4449 L 3.54999,-54 L 3.522,-53.5551 L 3.43846,-53.1172 L 3.3007,-52.6932 L 3.11089,-52.2898
 L 2.87201,-51.9134 L 2.58783,-51.5699 L 2.26285,-51.2647 L 1.90218,-51.0026 L 1.51151,-50.7879 L 1.097,-50.6238
 L 0.665192,-50.5129 L 0.2229,-50.457 z
M -7.61929,-52.1038 L -7.85602,-52.1337 L -8.08713,-52.193 L -8.30898,-52.2808 L -8.51807,-52.3958 L -8.71111,-52.536
 L -8.88504,-52.6994 L -9.03712,-52.8832 L -9.16498,-53.0847 L -9.26657,-53.3006 L -9.3403,-53.5275 L -9.38501,-53.7619
 L -9.39999,-54 L -9.38501,-54.2381 L -9.3403,-54.4725 L -9.26657,-54.6994 L -9.16498,-54.9153 L -9.03712,-55.1168
 L -8.88504,-55.3006 L -8.71111,-55.464 L -8.51807,-55.6042 L -8.30898,-55.7192 L -8.08713,-55.807 L -7.85602,-55.8663
 L -7.61929,-55.8962 L -7.38069,-55.8962 L -7.14397,-55.8663 L -6.91286,-55.807 L -6.69101,-55.7192 L -6.48192,-55.6042
 L -6.28888,-55.464 L -6.11494,-55.3006 L -5.96286,-55.1168 L -5.83501,-54.9153 L -5.73341,-54.6994 L -5.65968,-54.4725
 L -5.61497,-54.2381 L -5.59999,-54 L -5.61497,-53.7619 L -5.65968,-53.5275 L -5.73341,-53.3006 L -5.83501,-53.0847
 L -5.96286,-52.8832 L -6.11494,-52.6994 L -6.28888,-52.536 L -6.48192,-52.3958 L -6.69101,-52.2808 L -6.91286,-52.193
 L -7.14397,-52.1337 L -7.38069,-52.1038 z
M 7.38069,-52.1038 L 7.14397,-52.1337 L 6.91286,-52.193 L 6.69101,-52.2808 L 6.48192,-52.3958 L 6.28888,-52.536
 L 6.11494,-52.6994 L 5.96286,-52.8832 L 5.83501,-53.0847 L 5.73341,-53.3006 L 5.65968,-53.5275 L 5.61497,-53.7619
 L 5.59999,-54 L 5.61497,-54.2381 L 5.65968,-54.4725 L 5.73341,-54.6994 L 5.83501,-54.9153 L 5.96286,-55.1168
 L 6.11494,-55.3006 L 6.28888,-55.464 L 6.48192,-55.6042 L 6.69101,-55.7192 L 6.91286,-55.807 L 7.14397,-55.8663
 L 7.38069,-55.8962 L 7.61929,-55.8962 L 7.85602,-55.8663 L 8.08713,-55.807 L 8.30898,-55.7192 L 8.51807,-55.6042
 L 8.71111,-55.464 L 8.88504,-55.3006 L 9.03712,-55.1168 L 9.16498,-54.9153 L 9.26657,-54.6994 L 9.3403,-54.4725
 L 9.38501,-54.2381 L 9.39999,-54 L 9.38501,-53.7619 L 9.3403,-53.5275 L 9.26657,-53.3006 L 9.16498,-53.0847
 L 9.03712,-52.8832 L 8.88504,-52.6994 L 8.71111,-52.536 L 8.51807,-52.3958 L 8.30898,-52.2808 L 8.08713,-52.193
 L 7.85602,-52.1337 L 7.61929,-52.1038 z
M 1.87381,9.82286 L 3.09016,9.51056 L 4.25778,9.04826 L 5.35826,8.44327 L 6.37424,7.70512 L 7.28967,6.84546
 L 8.09016,5.87784 L 8.76306,4.81754 L 9.29776,3.68124 L 9.68582,2.48689 L 9.92114,1.25333 L 10,-0
 L 9.92114,-1.25333 L 9.68582,-2.48689 L 9.29776,-3.68124 L 8.76306,-4.81754 L 8.09016,-5.87784 L 7.28967,-6.84546
 L 6.37424,-7.70512 L 5.35826,-8.44327 L 4.25778,-9.04826 L 3.09016,-9.51056 L 1.87381,-9.82286 L 0.627899,-9.98026
 L -0.627899,-9.98026 L -1.87381,-9.82286 L -3.09016,-9.51056 L -4.25778,-9.04826 L -5.35826,-8.44327 L -6.37424,-7.70512
 L -7.28967,-6.84546 L -8.09016,-5.87784 L -8.76306,-4.81754 L -9.29776,-3.68124 L -9.68582,-2.48689 L -9.92114,-1.25333
 L -10,-0 L -9.92114,1.25333 L -9.68582,2.48689 L -9.29776,3.68124 L -8.76306,4.81754 L -8.09016,5.87784
 L -7.28967,6.84546 L -6.37424,7.70512 L -5.35826,8.44327 L -4.25778,9.04826 L -3.09016,9.51056 L -1.87381,9.82286
 L -0.627899,9.98026 L 0.627899,9.98026 z
M -0.2229,3.54298 L -0.665192,3.48711 L -1.097,3.37624 L -1.51151,3.21213 L -1.90218,2.99736 L -2.26285,2.73532
 L -2.58783,2.43013 L -2.87201,2.08662 L -3.11089,1.71022 L -3.3007,1.30684 L -3.43846,0.882843 L -3.522,0.444931
 L -3.54999,-0 L -3.522,-0.444931 L -3.43846,-0.882843 L -3.3007,-1.30684 L -3.11089,-1.71022 L -2.87201,-2.08662
 L -2.58783,-2.43013 L -2.26285,-2.73532 L -1.90218,-2.99736 L -1.51151,-3.21213 L -1.097,-3.37624 L -0.665192,-3.48711
 L -0.2229,-3.54298 L 0.2229,-3.54298 L 0.665192,-3.48711 L 1.097,-3.37624 L 1.51151,-3.21213 L 1.90218,-2.99736
 L 2.26285,-2.73532 L 2.58783,-2.43013 L 2.87201,-2.08662 L 3.11089,-1.71022 L 3.3007,-1.30684 L 3.43846,-0.882843
 L 3.522,-0.444931 L 3.54999,-0 L 3.522,0.444931 L 3.43846,0.882843 L 3.3007,1.30684 L 3.11089,1.71022
 L 2.87201,2.08662 L 2.58783,2.43013 L 2.26285,2.73532 L 1.90218,2.99736 L 1.51151,3.21213 L 1.097,3.37624
 L 0.665192,3.48711 L 0.2229,3.54298 z
M -7.61929,1.89624 L -7.85602,1.86633 L -8.08713,1.80701 L -8.30898,1.71916 L -8.51807,1.60422 L -8.71111,1.46397
 L -8.88504,1.30063 L -9.03712,1.11679 L -9.16498,0.915329 L -9.26657,0.699432 L -9.3403,0.472504 L -9.38501,0.238129
 L -9.39999,-0 L -9.38501,-0.238129 L -9.3403,-0.472504 L -9.26657,-0.699432 L -9.16498,-0.915329 L -9.03712,-1.11679
 L -8.88504,-1.30063 L -8.71111,-1.46397 L -8.51807,-1.60422 L -8.30898,-1.71916 L -8.08713,-1.80701 L -7.85602,-1.86633
 L -7.61929,-1.89624 L -7.38069,-1.89624 L -7.14397,-1.86633 L -6.91286,-1.80701 L -6.69101,-1.71916 L -6.48192,-1.60422
 L -6.28888,-1.46397 L -6.11494,-1.30063 L -5.96286,-1.11679 L -5.83501,-0.915329 L -5.73341,-0.699432 L -5.65968,-0.472504
 L -5.61497,-0.238129 L -5.59999,-0 L -5.61497,0.238129 L -5.65968,0.472504 L -5.73341,0.699432 L -5.83501,0.915329
 L -5.96286,1.11679 L -6.11494,1.30063 L -6.28888,1.46397 L -6.48192,1.60422 L -6.69101,1.71916 L -6.91286,1.80701
 L -7.14397,1.86633 L -7.38069,1.89624 z
M 7.38069,1.89624 L 7.14397,1.86633 L 6.91286,1.80701 L 6.69101,1.71916 L 6.48192,1.60422 L 6.28888,1.46397
 L 6.11494,1.30063 L 5.96286,1.11679 L 5.83501,0.915329 L 5.73341,0.699432 L 5.65968,0.472504 L 5.61497,0.238129
 L 5.59999,-0 L 5.61497,-0.238129 L 5.65968,-0.472504 L 5.73341,-0.699432 L 5.83501,-0.915329 L 5.96286,-1.11679
 L 6.11494,-1.30063 L 6.28888,-1.46397 L 6.48192,-1.60422 L 6.69101,-1.71916 L 6.91286,-1.80701 L 7.14397,-1.86633
 L 7.38069,-1.89624 L 7.61929,-1.89624 L 7.85602,-1.86633 L 8.08713,-1.80701 L 8.30898,-1.71916 L 8.51807,-1.60422
 L 8.71111,-1.46397 L 8.88504,-1.30063 L 9.03712,-1.11679 L 9.16498,-0.915329 L 9.26657,-0.699432 L 9.3403,-0.472504
 L 9.38501,-0.238129 L 9.39999,-0 L 9.38501,0.238129 L 9.3403,0.472504 L 9.26657,0.699432 L 9.16498,0.915329
 L 9.03712,1.11679 L 8.88504,1.30063 L 8.71111,1.46397 L 8.51807,1.60422 L 8.30898,1.71916 L 8.08713,1.80701
 L 7.85602,1.86633 L 7.61929,1.89624 z
" stroke="black" fill="lightgray" stroke-width="0.5"/>
</svg>
