<?xml version="1.0" standalone="no"?>
<!DOCTYPE svg PUBLIC "-//W3C//DTD SVG 1.1//EN" "http://www.w3.org/Graphics/SVG/1.1/DTD/svg11.dtd">
<svg width="32mm" height="252mm" viewBox="-16 -236 32 252" xmlns="http://www.w3.org/2000/svg" version="1.1">
<title>OpenSCAD Model</title>
<path d="
M 2.96718,-204.445 L 4.89328,-204.94 L 6.7422,-205.672 L 8.4848,-206.63 L 10.0936,-207.799 L 11.5432,-209.16
 L 12.8108,-210.692 L 13.8763,-212.371 L 14.723,-214.171 L 15.3375,-216.062 L 15.7101,-218.015 L 15.835,-220
 L 15.7101,-221.985 L 15.3375,-223.938 L 14.723,-225.829 L 13.8763,-227.629 L 12.8108,-229.308 L 11.5432,-230.84
 L 10.0936,-232.201 L 8.4848,-233.37 L 6.7422,-234.328 L 4.89328,-235.06 L 2.96718,-235.555 L 0.994278,-235.804
 L -0.994278,-235.804 L -2.96718,-235.555 L -4.89328,-235.06 L -6.7422,-234.328 L -8.4848,-233.37 L -10.0936,-232.201
 L -11.5432,-230.84 L -12.8108,-229.308 L -13.8763,-227.629 L -14.723,-225.829 L -15.3375,-223.938 L -15.7101,-221.985
 L -15.835,-220 L -15.7101,-218.015 L -15.3375,-216.062 L -14.723,-214.171 L -13.8763,-212.371 L -12.8108,-210.692
 L -11.5432,-209.16 L -10.0936,-207.799 L -8.4848,-206.63 L -6.7422,-205.672 L -4.89328,-204.94 L -2.96718,-204.445
 L -0.994278,-204.196 L 0.994278,-204.196 z
M 8.09975,-226.134 L 7.80632,-226.202 L 7.52382,-226.307 L 7.25673,-226.447 L 7.00923,-226.619 L 6.78526,-226.821
 L 6.58832,-227.049 L 6.42152,-227.3 L 6.28752,-227.57 L 6.1884,-227.855 L 6.12573,-228.149 L 6.10052,-228.45
 L 6.11314,-228.751 L 6.16341,-229.048 L 6.25052,-229.337 L 6.37311,-229.612 L 6.52924,-229.87 L 6.71645,-230.106
 L 6.93178,-230.317 L 7.17186,-230.499 L 7.43286,-230.65 L 7.71071,-230.766 L 8.00101,-230.848 L 8.29916,-230.892
 L 8.60049,-230.898 L 8.90024,-230.866 L 9.19366,-230.798 L 9.47617,-230.693 L 9.74326,-230.553 L 9.99075,-230.381
 L 10.2147,-230.179 L 10.4117,-229.951 L 10.5785,-229.7 L 10.7125,-229.43 L 10.8116,-229.145 L 10.8743,-228.851
 L 10.8995,-228.55 L 10.8868,-228.249 L 10.8366,-227.952 L 10.7495,-227.663 L 10.6269,-227.388 L 10.4707,-227.13
 L 10.2835,-226.894 L 10.0682,-226.683 L 9.82812,-226.501 L 9.56712,-226.35 L 9.28928,-226.233 L 8.99898,-226.152
 L 8.70082,-226.108 L 8.39949,-226.102 z
M -8.90024,-226.134 L -9.19366,-226.202 L -9.47617,-226.307 L -9.74326,-226.447 L -9.99075,-226.619 L -10.2147,-226.821
 L -10.4117,-227.049 L -10.5785,-227.3 L -10.7125,-227.57 L -10.8116,-227.855 L -10.8743,-228.149 L -10.8995,-228.45
 L -10.8868,-228.751 L -10.8366,-229.048 L -10.7495,-229.337 L -10.6269,-229.612 L -10.4707,-229.87 L -10.2835,-230.106
 L -10.0682,-230.317 L -9.82812,-230.499 L -9.56712,-230.65 L -9.28928,-230.766 L -8.99898,-230.848 L -8.70082,-230.892
 L -8.39949,-230.898 L -8.09975,-230.866 L -7.80632,-230.798 L -7.52382,-230.693 L -7.25673,-230.553 L -7.00923,-230.381
 L -6.78526,-230.179 L -6.58832,-229.951 L -6.42152,-229.7 L -6.28752,-229.43 L -6.1884,-229.145 L -6.12573,-228.851
 L -6.10052,-228.55 L -6.11314,-228.249 L -6.16341,-227.952 L -6.25052,-227.663 L -6.37311,-227.388 L -6.52924,-227.13
 L -6.71645,-226.894 L -6.93178,-226.683 L -7.17186,-226.501 L -7.43286,-226.35 L -7.71071,-226.233 L -8.00101,-226.152
 L -8.29916,-226.108 L -8.60049,-226.102 z
M -0.470917,-212.515 L -1.40535,-212.633 L -2.31763,-212.867 L -3.19334,-213.214 L -4.01869,-213.668 L -4.78067,-214.221
 L -5.46725,-214.866 L -6.06763,-215.592 L -6.5723,-216.387 L -6.97331,-217.239 L -7.26436,-218.135 L -7.44086,-219.06
 L -7.5,-220 L -7.44086,-220.94 L -7.26436,-221.865 L -6.97331,-222.761 L -6.5723,-223.613 L -6.06763,-224.408
 L -5.46725,-225.134 L -4.78067,-225.779 L -4.01869,-226.332 L -3.19334,-226.786 L -2.31763,-227.133 L -1.40535,-227.367
 L -0.470917,-227.485 L 0.470917,-227.485 L 1.40535,-227.367 L 2.31763,-227.133 L 3.19334,-226.786 L 4.01869,-226.332
 L 4.78067,-225.779 L 5.46725,-225.134 L 6.06763,-224.408 L 6.5723,-223.613 L 6.97331,-222.761 L 7.26436,-221.865
 L 7.44086,-220.94 L 7.5,-220 L 7.44086,-219.06 L 7.26436,-218.135 L 6.97331,-217.239 L 6.5723,-216.387
 L 6.06763,-215.592 L 5.46725,-214.866 L 4.78067,-214.221 L 4.01869,-213.668 L 3.19334,-213.214 L 2.31763,-212.867
 L 1.40535,-212.633 L 0.470917,-212.515 z
M 0.749512,-216.071 L 1.23605,-216.196 L 1.70311,-216.381 L 2.1433,-216.623 L 2.54968,-216.918 L 2.91586,-217.262
 L 3.23605,-217.649 L 3.50522,-218.073 L 3.7191,-218.528 L 3.87433,-219.005 L 3.96844,-219.499 L 4,-220
 L 3.96844,-220.501 L 3.87433,-220.995 L 3.7191,-221.472 L 3.50522,-221.927 L 3.23605,-222.351 L 2.91586,-222.738
 L 2.54968,-223.082 L 2.1433,-223.377 L 1.70311,-223.619 L 1.23605,-223.804 L 0.749512,-223.929 L 0.25116,-223.992
 L -0.25116,-223.992 L -0.749512,-223.929 L -1.23605,-223.804 L -1.70311,-223.619 L -2.1433,-223.377 L -2.54968,-223.082
 L -2.91586,-222.738 L -3.23605,-222.351 L -3.50522,-221.927 L -3.7191,-221.472 L -3.87433,-220.995 L -3.96844,-220.501
 L -4,-220 L -3.96844,-219.499 L -3.87433,-219.005 L -3.7191,-218.528 L -3.50522,-218.073 L -3.23605,-217.649
 L -2.91586,-217.262 L -2.54968,-216.918 L -2.1433,-216.623 L -1.70311,-216.381 L -1.23605,-216.196 L -0.749512,-216.071
 L -0.25116,-216.008 L 0.25116,-216.008 z
M -0.18837,-217.006 L -0.562134,-217.053 L -0.927048,-217.147 L -1.27733,-217.286 L -1.60747,-217.467 L -1.91226,-217.688
 L -2.1869,-217.946 L -2.42705,-218.237 L -2.62891,-218.555 L -2.78932,-218.896 L -2.90575,-219.254 L -2.97633,-219.624
 L -3,-220 L -2.97633,-220.376 L -2.90575,-220.746 L -2.78932,-221.104 L -2.62891,-221.445 L -2.42705,-221.763
 L -2.1869,-222.054 L -1.91226,-222.312 L -1.60747,-222.533 L -1.27733,-222.714 L -0.927048,-222.853 L -0.562134,-222.947
 L -0.18837,-222.994 L 0.18837,-222.994 L 0.562134,-222.947 L 0.927048,-222.853 L 1.27733,-222.714 L 1.60747,-222.533
 L 1.91226,-222.312 L 2.1869,-222.054 L 2.42705,-221.763 L 2.62891,-221.445 L 2.78932,-221.104 L 2.90575,-220.746
 L 2.97633,-220.376 L 3,-220 L 2.97633,-219.624 L 2.90575,-219.254 L 2.78932,-218.896 L 2.62891,-218.555
 L 2.42705,-218.237 L 2.1869,-217.946 L 1.91226,-217.688 L 1.60747,-217.467 L 1.27733,-217.286 L 0.927048,-217.147
 L 0.562134,-217.053 L 0.18837,-217.006 z
M -8.90024,-209.134 L -9.19366,-209.202 L -9.47617,-209.307 L -9.74326,-209.447 L -9.99075,-209.619 L -10.2147,-209.821
 L -10.4117,-210.049 L -10.5785,-210.3 L -10.7125,-210.57 L -10.8116,-210.855 L -10.8743,-211.149 L -10.8995,-211.45
 L -10.8868,-211.751 L -10.8366,-212.048 L -10.7495,-212.337 L -10.6269,-212.612 L -10.4707,-212.87 L -10.2835,-213.106
 L -10.0682,-213.317 L -9.82812,-213.499 L -9.56712,-213.65 L -9.28928,-213.767 L -8.99898,-213.848 L -8.70082,-213.892
 L -8.39949,-213.898 L -8.09975,-213.866 L -7.80632,-213.798 L -7.52382,-213.693 L -7.25673,-213.553 L -7.00923,-213.381
 L -6.78526,-213.179 L -6.58832,-212.951 L -6.42152,-212.7 L -6.28752,-212.43 L -6.1884,-212.145 L -6.12573,-211.851
 L -6.10052,-211.55 L -6.11314,-211.249 L -6.16341,-210.952 L -6.25052,-210.663 L -6.37311,-210.388 L -6.52924,-210.13
 L -6.71645,-209.894 L -6.93178,-209.683 L -7.17186,-209.501 L -7.43286,-209.35 L -7.71071,-209.234 L -8.00101,-209.152
 L -8.29916,-209.108 L -8.60049,-209.102 z
M 8.09975,-209.134 L 7.80632,-209.202 L 7.52382,-209.307 L 7.25673,-209.447 L 7.00923,-209.619 L 6.78526,-209.821
 L 6.58832,-210.049 L 6.42152,-210.3 L 6.28752,-210.57 L 6.1884,-210.855 L 6.12573,-211.149 L 6.10052,-211.45
 L 6.11314,-211.751 L 6.16341,-212.048 L 6.25052,-212.337 L 6.37311,-212.612 L 6.52924,-212.87 L 6.71645,-213.106
 L 6.93178,-213.317 L 7.17186,-213.499 L 7.43286,-213.65 L 7.71071,-213.767 L 8.00101,-213.848 L 8.29916,-213.892
 L 8.60049,-213.898 L 8.90024,-213.866 L 9.19366,-213.798 L 9.47617,-213.693 L 9.74326,-213.553 L 9.99075,-213.381
 L 10.2147,-213.179 L 10.4117,-212.951 L 10.5785,-212.7 L 10.7125,-212.43 L 10.8116,-212.145 L 10.8743,-211.851
 L 10.8995,-211.55 L 10.8868,-211.249 L 10.8366,-210.952 L 10.7495,-210.663 L 10.6269,-210.388 L 10.4707,-210.13
 L 10.2835,-209.894 L 10.0682,-209.683 L 9.82812,-209.501 L 9.56712,-209.35 L 9.28928,-209.234 L 8.99898,-209.152
 L 8.70082,-209.108 L 8.39949,-209.102 z
M 2.84375,-95.0925 L 4.68973,-95.5665 L 6.46175,-96.2681 L 8.13185,-97.1862 L 9.67372,-98.3065 L 11.063,-99.6111
 L 12.2779,-101.08 L 13.2991,-102.689 L 14.1105,-104.413 L 14.6995,-106.226 L 15.0566,-108.098 L 15.1763,-110
 L 15.0566,-111.902 L 14.6995,-113.774 L 14.1105,-115.587 L 13.2991,-117.311 L 12.2779,-118.92 L 11.063,-120.389
 L 9.67372,-121.694 L 8.13185,-122.814 L 6.46175,-123.732 L 4.68973,-124.434 L 2.84375,-124.907 L 0.952927,-125.146
 L -0.952927,-125.146 L -2.84375,-124.907 L -4.68973,-124.434 L -6.46175,-123.732 L -8.13185,-122.814 L -9.67372,-121.694
 L -11.063,-120.389 L -12.2779,-118.92 L -13.2991,-117.311 L -14.1105,-115.587 L -14.6995,-113.774 L -15.0566,-111.902
 L -15.1763,-110 L -15.0566,-108.098 L -14.6995,-106.226 L -14.1105,-104.413 L -13.2991,-102.689 L -12.2779,-101.08
 L -11.063,-99.6111 L -9.67372,-98.3065 L -8.13185,-97.1862 L -6.46175,-96.2681 L -4.68973,-95.5665 L -2.84375,-95.0925
 L -0.952927,-94.8537 L 0.952927,-94.8537 z
M 8.24983,-117.021 L 8.06645,-117.064 L 7.88989,-117.13 L 7.72295,-117.217 L 7.56827,-117.324 L 7.42828,-117.451
 L 7.30519,-117.593 L 7.20096,-117.75 L 7.1172,-117.919 L 7.05525,-118.097 L 7.01608,-118.281 L 7.00032,-118.469
 L 7.00821,-118.657 L 7.03963,-118.843 L 7.09407,-119.023 L 7.17068,-119.195 L 7.26826,-119.356 L 7.38527,-119.504
 L 7.51987,-119.635 L 7.66991,-119.749 L 7.83304,-119.844 L 8.0067,-119.917 L 8.18813,-119.967 L 8.37448,-119.995
 L 8.56281,-119.999 L 8.75015,-119.979 L 8.93353,-119.936 L 9.11009,-119.87 L 9.27704,-119.783 L 9.43172,-119.676
 L 9.5717,-119.549 L 9.69479,-119.407 L 9.79903,-119.25 L 9.88278,-119.081 L 9.94473,-118.903 L 9.9839,-118.719
 L 9.99966,-118.531 L 9.99178,-118.343 L 9.96036,-118.157 L 9.90591,-117.977 L 9.8293,-117.805 L 9.73172,-117.644
 L 9.61472,-117.496 L 9.48012,-117.365 L 9.33008,-117.251 L 9.16695,-117.156 L 8.99329,-117.083 L 8.81186,-117.033
 L 8.6255,-117.005 L 8.43718,-117.001 z
M -8.75015,-117.021 L -8.93353,-117.064 L -9.11009,-117.13 L -9.27704,-117.217 L -9.43172,-117.324 L -9.5717,-117.451
 L -9.69479,-117.593 L -9.79903,-117.75 L -9.88278,-117.919 L -9.94473,-118.097 L -9.9839,-118.281 L -9.99966,-118.469
 L -9.99178,-118.657 L -9.96036,-118.843 L -9.90591,-119.023 L -9.8293,-119.195 L -9.73172,-119.356 L -9.61472,-119.504
 L -9.48012,-119.635 L -9.33008,-119.749 L -9.16695,-119.844 L -8.99329,-119.917 L -8.81186,-119.967 L -8.6255,-119.995
 L -8.43718,-119.999 L -8.24983,-119.979 L -8.06645,-119.936 L -7.88989,-119.87 L -7.72295,-119.783 L -7.56827,-119.676
 L -7.42828,-119.549 L -7.30519,-119.407 L -7.20096,-119.25 L -7.1172,-119.081 L -7.05525,-118.903 L -7.01608,-118.719
 L -7.00032,-118.531 L -7.00821,-118.343 L -7.03963,-118.157 L -7.09407,-117.977 L -7.17068,-117.805 L -7.26826,-117.644
 L -7.38527,-117.496 L -7.51987,-117.365 L -7.66991,-117.251 L -7.83304,-117.156 L -8.0067,-117.083 L -8.18813,-117.033
 L -8.37448,-117.005 L -8.56281,-117.001 z
M -0.533707,-101.517 L -1.59273,-101.651 L -2.62663,-101.916 L -3.61911,-102.309 L -4.55452,-102.823 L -5.41809,-103.451
 L -6.19623,-104.181 L -6.87663,-105.004 L -7.44859,-105.905 L -7.90309,-106.871 L -8.23296,-107.886 L -8.43297,-108.935
 L -8.5,-110 L -8.43297,-111.065 L -8.23296,-112.114 L -7.90309,-113.129 L -7.44859,-114.095 L -6.87663,-114.996
 L -6.19623,-115.819 L -5.41809,-116.549 L -4.55452,-117.177 L -3.61911,-117.691 L -2.62663,-118.084 L -1.59273,-118.349
 L -0.533707,-118.483 L 0.533707,-118.483 L 1.59273,-118.349 L 2.62663,-118.084 L 3.61911,-117.691 L 4.55452,-117.177
 L 5.41809,-116.549 L 6.19623,-115.819 L 6.87663,-114.996 L 7.44859,-114.095 L 7.90309,-113.129 L 8.23296,-112.114
 L 8.43297,-111.065 L 8.5,-110 L 8.43297,-108.935 L 8.23296,-107.886 L 7.90309,-106.871 L 7.44859,-105.905
 L 6.87663,-105.004 L 6.19623,-104.181 L 5.41809,-103.451 L 4.55452,-102.823 L 3.61911,-102.309 L 2.62663,-101.916
 L 1.59273,-101.651 L 0.533707,-101.517 z
M -8.75015,-100.021 L -8.93353,-100.064 L -9.11009,-100.13 L -9.27704,-100.217 L -9.43172,-100.324 L -9.5717,-100.451
 L -9.69479,-100.593 L -9.79903,-100.75 L -9.88278,-100.919 L -9.94473,-101.097 L -9.9839,-101.281 L -9.99966,-101.469
 L -9.99178,-101.657 L -9.96036,-101.843 L -9.90591,-102.023 L -9.8293,-102.195 L -9.73172,-102.356 L -9.61472,-102.504
 L -9.48012,-102.635 L -9.33008,-102.749 L -9.16695,-102.844 L -8.99329,-102.917 L -8.81186,-102.967 L -8.6255,-102.995
 L -8.43718,-102.999 L -8.24983,-102.979 L -8.06645,-102.936 L -7.88989,-102.87 L -7.72295,-102.783 L -7.56827,-102.676
 L -7.42828,-102.549 L -7.30519,-102.407 L -7.20096,-102.25 L -7.1172,-102.081 L -7.05525,-101.903 L -7.01608,-101.719
 L -7.00032,-101.531 L -7.00821,-101.343 L -7.03963,-101.157 L -7.09407,-100.977 L -7.17068,-100.805 L -7.26826,-100.644
 L -7.38527,-100.496 L -7.51987,-100.365 L -7.66991,-100.251 L -7.83304,-100.156 L -8.0067,-100.083 L -8.18813,-100.033
 L -8.37448,-100.005 L -8.56281,-100.001 z
M 8.24983,-100.021 L 8.06645,-100.064 L 7.88989,-100.13 L 7.72295,-100.217 L 7.56827,-100.324 L 7.42828,-100.451
 L 7.30519,-100.593 L 7.20096,-100.75 L 7.1172,-100.919 L 7.05525,-101.097 L 7.01608,-101.281 L 7.00032,-101.469
 L 7.00821,-101.657 L 7.03963,-101.843 L 7.09407,-102.023 L 7.17068,-102.195 L 7.26826,-102.356 L 7.38527,-102.504
 L 7.51987,-102.635 L 7.66991,-102.749 L 7.83304,-102.844 L 8.0067,-102.917 L 8.18813,-102.967 L 8.37448,-102.995
 L 8.56281,-102.999 L 8.75015,-102.979 L 8.93353,-102.936 L 9.11009,-102.87 L 9.27704,-102.783 L 9.43172,-102.676
 L 9.5717,-102.549 L 9.69479,-102.407 L 9.79903,-102.25 L 9.88278,-102.081 L 9.94473,-101.903 L 9.9839,-101.719
 L 9.99966,-101.531 L 9.99178,-101.343 L 9.96036,-101.157 L 9.90591,-100.977 L 9.8293,-100.805 L 9.73172,-100.644
 L 9.61472,-100.496 L 9.48012,-100.365 L 9.33008,-100.251 L 9.16695,-100.156 L 8.99329,-100.083 L 8.81186,-100.033
 L 8.6255,-100.005 L 8.43718,-100.001 z
M 2.96718,15.5545 L 4.89328,15.06 L 6.7422,14.3279 L 8.4848,13.3699 L 10.0936,12.2011 L 11.5432,10.8398
 L 12.8108,9.30757 L 13.8763,7.62856 L 14.723,5.82924 L 15.3375,3.938 L 15.7101,1.98465 L 15.835,-0
 L 15.7101,-1.98465 L 15.3375,-3.938 L 14.723,-5.82924 L 13.8763,-7.62856 L 12.8108,-9.30757 L 11.5432,-10.8398
 L 10.0936,-12.2011 L 8.4848,-13.3699 L 6.7422,-14.3279 L 4.89328,-15.06 L 2.96718,-15.5545 L 0.994278,-15.8037
 L -0.994278,-15.8037 L -2.96718,-15.5545 L -4.89328,-15.06 L -6.7422,-14.3279 L -8.4848,-13.3699 L -10.0936,-12.2011
 L -11.5432,-10.8398 L -12.8108,-9.30757 L -13.8763,-7.62856 L -14.723,-5.82924 L -15.3375,-3.938 L -15.7101,-1.98465
 L -15.835,-0 L -15.7101,1.98465 L -15.3375,3.938 L -14.723,5.82924 L -13.8763,7.62856 L -12.8108,9.30757
 L -11.5432,10.8398 L -10.0936,12.2011 L -8.4848,13.3699 L -6.7422,14.3279 L -4.89328,15.06 L -2.96718,15.5545
 L -0.994278,15.8037 L 0.994278,15.8037 z
M 6.82671,-5.60176 L 5.1534,-8.5 L 6.82669,-11.3982 L 10.1733,-11.3982 L 11.8466,-8.49998 L 10.1733,-5.60176
 z
M -8.90024,-6.13361 L -9.19366,-6.20242 L -9.47617,-6.30748 L -9.74326,-6.44711 L -9.99075,-6.61913 L -10.2147,-6.8208
 L -10.4117,-7.04895 L -10.5785,-7.29999 L -10.7125,-7.56996 L -10.8116,-7.85458 L -10.8743,-8.1494 L -10.8995,-8.44974
 L -10.8868,-8.75085 L -10.8366,-9.04803 L -10.7495,-9.33656 L -10.6269,-9.61191 L -10.4707,-9.86971 L -10.2835,-10.1059
 L -10.0682,-10.3168 L -9.82812,-10.499 L -9.56712,-10.6497 L -9.28928,-10.7665 L -8.99898,-10.8475 L -8.70082,-10.8916
 L -8.39949,-10.8979 L -8.09975,-10.8664 L -7.80632,-10.7976 L -7.52382,-10.6925 L -7.25673,-10.5529 L -7.00923,-10.3809
 L -6.78526,-10.1792 L -6.58832,-9.95103 L -6.42152,-9.7 L -6.28752,-9.43002 L -6.1884,-9.1454 L -6.12573,-8.85059
 L -6.10052,-8.55025 L -6.11314,-8.24913 L -6.16341,-7.95195 L -6.25052,-7.66342 L -6.37311,-7.38808 L -6.52924,-7.13028
 L -6.71645,-6.89407 L -6.93178,-6.6832 L -7.17186,-6.50098 L -7.43286,-6.35028 L -7.71071,-6.23349 L -8.00101,-6.15244
 L -8.29916,-6.10841 L -8.60049,-6.1021 z
M -0.533707,8.48322 L -1.59273,8.34944 L -2.62663,8.08397 L -3.61911,7.69102 L -4.55452,7.17677 L -5.41809,6.54936
 L -6.19623,5.81865 L -6.87663,4.99617 L -7.44859,4.09489 L -7.90309,3.12904 L -8.23296,2.11386 L -8.43297,1.06532
 L -8.5,-0 L -8.43297,-1.06532 L -8.23296,-2.11386 L -7.90309,-3.12904 L -7.44859,-4.09489 L -6.87663,-4.99617
 L -6.19623,-5.81865 L -5.41809,-6.54936 L -4.55452,-7.17677 L -3.61911,-7.69102 L -2.62663,-8.08397 L -1.59273,-8.34944
 L -0.533707,-8.48322 L 0.533707,-8.48322 L 1.59273,-8.34944 L 2.62663,-8.08397 L 3.61911,-7.69102 L 4.55452,-7.17677
 L 5.41809,-6.54936 L 6.19623,-5.81865 L 6.87663,-4.99617 L 7.44859,-4.09489 L 7.90309,-3.12904 L 8.23296,-2.11386
 L 8.43297,-1.06532 L 8.5,-0 L 8.43297,1.06532 L 8.23296,2.11386 L 7.90309,3.12904 L 7.44859,4.09489
 L 6.87663,4.99617 L 6.19623,5.81865 L 5.41809,6.54936 L 4.55452,7.17677 L 3.61911,7.69102 L 2.62663,8.08397
 L 1.59273,8.34944 L 0.533707,8.48322 z
M -10.1733,11.3982 L -11.8466,8.49998 L -10.1733,5.60176 L -6.82671,5.60176 L -5.1534,8.5 L -6.82669,11.3982
 z
M 8.09975,10.8664 L 7.80632,10.7976 L 7.52382,10.6925 L 7.25673,10.5529 L 7.00923,10.3809 L 6.78526,10.1792
 L 6.58832,9.95103 L 6.42152,9.7 L 6.28752,9.43002 L 6.1884,9.1454 L 6.12573,8.85059 L 6.10052,8.55025
 L 6.11314,8.24913 L 6.16341,7.95195 L 6.25052,7.66342 L 6.37311,7.38808 L 6.52924,7.13028 L 6.71645,6.89407
 L 6.93178,6.6832 L 7.17186,6.50098 L 7.43286,6.35028 L 7.71071,6.23349 L 8.00101,6.15244 L 8.29916,6.10841
 L 8.60049,6.1021 L 8.90024,6.13361 L 9.19366,6.20242 L 9.47617,6.30748 L 9.74326,6.44711 L 9.99075,6.61913
 L 10.2147,6.8208 L 10.4117,7.04895 L 10.5785,7.29999 L 10.7125,7.56996 L 10.8116,7.85458 L 10.8743,8.1494
 L 10.8995,8.44974 L 10.8868,8.75085 L 10.8366,9.04803 L 10.7495,9.33656 L 10.6269,9.61191 L 10.4707,9.86971
 L 10.2835,10.1059 L 10.0682,10.3168 L 9.82812,10.499 L 9.56712,10.6497 L 9.28928,10.7665 L 8.99898,10.8475
 L 8.70082,10.8916 L 8.39949,10.8979 z
" stroke="black" fill="lightgray" stroke-width="0.5"/>
</svg>
