<?xml version="1.0" standalone="no"?>
<!DOCTYPE svg PUBLIC "-//W3C//DTD SVG 1.1//EN" "http://www.w3.org/Graphics/SVG/1.1/DTD/svg11.dtd">
<svg width="22mm" height="462mm" viewBox="-11 -451 22 462" xmlns="http://www.w3.org/2000/svg" version="1.1">
<title>OpenSCAD Model</title>
<path d="
M 2.01373,-429.444 L 3.32091,-429.779 L 4.57573,-430.276 L 5.75838,-430.926 L 6.12228,-431.191 L 6.10052,-431.45
 L 6.11314,-431.751 L 6.16341,-432.048 L 6.25052,-432.337 L 6.37311,-432.612 L 6.52924,-432.87 L 6.71645,-433.106
 L 6.93178,-433.317 L 7.17186,-433.499 L 7.43286,-433.65 L 7.71071,-433.767 L 8.00101,-433.848 L 8.29916,-433.892
 L 8.60049,-433.898 L 8.81612,-433.875 L 9.41742,-434.823 L 9.99205,-436.044 L 10.4091,-437.327 L 10.662,-438.653
 L 10.7467,-440 L 10.662,-441.347 L 10.4091,-442.673 L 9.99205,-443.956 L 9.41742,-445.177 L 8.81573,-446.125
 L 8.70082,-446.108 L 8.39949,-446.102 L 8.09975,-446.134 L 7.80632,-446.202 L 7.52382,-446.307 L 7.25673,-446.447
 L 7.00923,-446.619 L 6.78526,-446.821 L 6.58832,-447.049 L 6.42152,-447.3 L 6.28752,-447.57 L 6.1884,-447.855
 L 6.12573,-448.149 L 6.10052,-448.45 L 6.11314,-448.751 L 6.12296,-448.809 L 5.75838,-449.074 L 4.57573,-449.724
 L 3.32091,-450.221 L 2.01373,-450.556 L 0.674789,-450.726 L -0.674789,-450.726 L -2.01373,-450.556 L -3.32091,-450.221
 L -4.57573,-449.724 L -5.75838,-449.074 L -6.12228,-448.809 L -6.10052,-448.55 L -6.11314,-448.249 L -6.16341,-447.952
 L -6.25052,-447.663 L -6.37311,-447.388 L -6.52924,-447.13 L -6.71645,-446.894 L -6.93178,-446.683 L -7.17186,-446.501
 L -7.43286,-446.35 L -7.71071,-446.233 L -8.00101,-446.152 L -8.29916,-446.108 L -8.60049,-446.102 L -8.81612,-446.125
 L -9.41742,-445.177 L -9.99205,-443.956 L -10.4091,-442.673 L -10.662,-441.347 L -10.7467,-440 L -10.662,-438.653
 L -10.4091,-437.327 L -9.99205,-436.044 L -9.41742,-434.823 L -8.81573,-433.875 L -8.70082,-433.892 L -8.39949,-433.898
 L -8.09975,-433.866 L -7.80632,-433.798 L -7.52382,-433.693 L -7.25673,-433.553 L -7.00923,-433.381 L -6.78526,-433.179
 L -6.58832,-432.951 L -6.42152,-432.7 L -6.28752,-432.43 L -6.1884,-432.145 L -6.12573,-431.851 L -6.10052,-431.55
 L -6.11314,-431.249 L -6.12296,-431.191 L -5.75838,-430.926 L -4.57573,-430.276 L -3.32091,-429.779 L -2.01373,-429.444
 L -0.674789,-429.274 L 0.674789,-429.274 z
M -0.533707,-431.517 L -1.59273,-431.651 L -2.62663,-431.916 L -3.61911,-432.309 L -4.55452,-432.823 L -5.41809,-433.451
 L -6.19623,-434.181 L -6.87663,-435.004 L -7.44859,-435.905 L -7.90309,-436.871 L -8.23296,-437.886 L -8.43297,-438.935
 L -8.5,-440 L -8.43297,-441.065 L -8.23296,-442.114 L -7.90309,-443.129 L -7.44859,-444.095 L -6.87663,-444.996
 L -6.19623,-445.819 L -5.41809,-446.549 L -4.55452,-447.177 L -3.61911,-447.691 L -2.62663,-448.084 L -1.59273,-448.349
 L -0.533707,-448.483 L 0.533707,-448.483 L 1.59273,-448.349 L 2.62663,-448.084 L 3.61911,-447.691 L 4.55452,-447.177
 L 5.41809,-446.549 L 6.19623,-445.819 L 6.87663,-444.996 L 7.44859,-444.095 L 7.90309,-443.129 L 8.23296,-442.114
 L 8.43297,-441.065 L 8.5,-440 L 8.43297,-438.935 L 8.23296,-437.886 L 7.90309,-436.871 L 7.44859,-435.905
 L 6.87663,-435.004 L 6.19623,-434.181 L 5.41809,-433.451 L 4.55452,-432.823 L 3.61911,-432.309 L 2.62663,-431.916
 L 1.59273,-431.651 L 0.533707,-431.517 z
M 2.00063,-319.512 L 3.2993,-319.846 L 4.54596,-320.339 L 5.7209,-320.985 L 6.80563,-321.773 L 7.11043,-322.06
 L 7.17068,-322.195 L 7.26826,-322.356 L 7.38527,-322.504 L 7.51987,-322.635 L 7.66991,-322.749 L 7.83304,-322.844
 L 7.94962,-322.893 L 8.63771,-323.724 L 9.35614,-324.856 L 9.92703,-326.07 L 10.3414,-327.345 L 10.5926,-328.662
 L 10.6768,-330 L 10.5926,-331.338 L 10.3414,-332.655 L 9.92703,-333.93 L 9.35614,-335.144 L 9.06537,-335.602
 L 6.82671,-335.602 L 5.1534,-338.5 L 5.5157,-339.128 L 4.54596,-339.661 L 3.2993,-340.154 L 2.00063,-340.488
 L 0.670395,-340.656 L -0.670395,-340.656 L -2.00063,-340.488 L -3.2993,-340.154 L -4.54596,-339.661 L -5.7209,-339.015
 L -6.80563,-338.227 L -7.11043,-337.94 L -7.17068,-337.805 L -7.26826,-337.644 L -7.38527,-337.496 L -7.51987,-337.365
 L -7.66991,-337.251 L -7.83304,-337.156 L -7.94962,-337.107 L -8.63771,-336.276 L -9.35614,-335.144 L -9.92703,-333.93
 L -10.3414,-332.655 L -10.5926,-331.338 L -10.6768,-330 L -10.5926,-328.662 L -10.3414,-327.345 L -9.92703,-326.07
 L -9.35614,-324.856 L -9.06537,-324.398 L -6.82671,-324.398 L -5.1534,-321.5 L -5.5157,-320.872 L -4.54596,-320.339
 L -3.2993,-319.846 L -2.00063,-319.512 L -0.670395,-319.344 L 0.670395,-319.344 z
M -0.533707,-321.517 L -1.59273,-321.651 L -2.62663,-321.916 L -3.61911,-322.309 L -4.55452,-322.823 L -5.41809,-323.451
 L -6.19623,-324.181 L -6.87663,-325.004 L -7.44859,-325.905 L -7.90309,-326.871 L -8.23296,-327.886 L -8.43297,-328.935
 L -8.5,-330 L -8.43297,-331.065 L -8.23296,-332.114 L -7.90309,-333.129 L -7.44859,-334.095 L -6.87663,-334.996
 L -6.19623,-335.819 L -5.41809,-336.549 L -4.55452,-337.177 L -3.61911,-337.691 L -2.62663,-338.084 L -1.59273,-338.349
 L -0.533707,-338.483 L 0.533707,-338.483 L 1.59273,-338.349 L 2.62663,-338.084 L 3.61911,-337.691 L 4.55452,-337.177
 L 5.41809,-336.549 L 6.19623,-335.819 L 6.87663,-334.996 L 7.44859,-334.095 L 7.90309,-333.129 L 8.23296,-332.114
 L 8.43297,-331.065 L 8.5,-330 L 8.43297,-328.935 L 8.23296,-327.886 L 7.90309,-326.871 L 7.44859,-325.905
 L 6.87663,-325.004 L 6.19623,-324.181 L 5.41809,-323.451 L 4.55452,-322.823 L 3.61911,-322.309 L 2.62663,-321.916
 L 1.59273,-321.651 L 0.533707,-321.517 z
M 2.03777,-209.318 L 3.36055,-209.657 L 4.63034,-210.16 L 5.8271,-210.818 L 6.93198,-211.621 L 7.01534,-211.699
 L 7.03963,-211.843 L 7.09407,-212.023 L 7.17068,-212.195 L 7.26826,-212.356 L 7.38527,-212.504 L 7.51987,-212.635
 L 7.66991,-212.749 L 7.83304,-212.844 L 8.0067,-212.917 L 8.18813,-212.967 L 8.27922,-212.981 L 8.79805,-213.608
 L 9.52983,-214.761 L 10.1113,-215.997 L 10.5333,-217.296 L 10.7892,-218.637 L 10.875,-220 L 10.7892,-221.363
 L 10.5333,-222.704 L 10.1113,-224.003 L 9.52983,-225.239 L 9.29965,-225.602 L 6.82671,-225.602 L 5.1534,-228.5
 L 5.61462,-229.299 L 4.63034,-229.84 L 3.36055,-230.343 L 2.03777,-230.682 L 0.682846,-230.854 L -0.682846,-230.854
 L -2.03777,-230.682 L -3.36055,-230.343 L -4.63034,-229.84 L -5.8271,-229.182 L -6.93198,-228.379 L -7.01534,-228.301
 L -7.03963,-228.157 L -7.09407,-227.977 L -7.17068,-227.805 L -7.26826,-227.644 L -7.38527,-227.496 L -7.51987,-227.365
 L -7.66991,-227.251 L -7.83304,-227.156 L -8.0067,-227.083 L -8.18813,-227.033 L -8.27922,-227.019 L -8.79805,-226.392
 L -9.52983,-225.239 L -10.1113,-224.003 L -10.5333,-222.704 L -10.7892,-221.363 L -10.875,-220 L -10.7892,-218.637
 L -10.5333,-217.296 L -10.1113,-215.997 L -9.52983,-214.761 L -9.29965,-214.398 L -6.82671,-214.398 L -5.1534,-211.5
 L -5.61462,-210.701 L -4.63034,-210.16 L -3.36055,-209.657 L -2.03777,-209.318 L -0.682846,-209.146 L 0.682846,-209.146
 z
M -0.470917,-212.515 L -1.40535,-212.633 L -2.31763,-212.867 L -3.19334,-213.214 L -4.01869,-213.668 L -4.78067,-214.221
 L -5.46725,-214.866 L -6.06763,-215.592 L -6.5723,-216.387 L -6.97331,-217.239 L -7.26436,-218.135 L -7.44086,-219.06
 L -7.5,-220 L -7.44086,-220.94 L -7.26436,-221.865 L -6.97331,-222.761 L -6.5723,-223.613 L -6.06763,-224.408
 L -5.46725,-225.134 L -4.78067,-225.779 L -4.01869,-226.332 L -3.19334,-226.786 L -2.31763,-227.133 L -1.40535,-227.367
 L -0.470917,-227.485 L 0.470917,-227.485 L 1.40535,-227.367 L 2.31763,-227.133 L 3.19334,-226.786 L 4.01869,-226.332
 L 4.78067,-225.779 L 5.46725,-225.134 L 6.06763,-224.408 L 6.5723,-223.613 L 6.97331,-222.761 L 7.26436,-221.865
 L 7.44086,-220.94 L 7.5,-220 L 7.44086,-219.06 L 7.26436,-218.135 L 6.97331,-217.239 L 6.5723,-216.387
 L 6.06763,-215.592 L 5.46725,-214.866 L 4.78067,-214.221 L 4.01869,-213.668 L 3.19334,-213.214 L 2.31763,-212.867
 L 1.40535,-212.633 L 0.470917,-212.515 z
M 0.749512,-216.071 L 1.23605,-216.196 L 1.70311,-216.381 L 2.1433,-216.623 L 2.54968,-216.918 L 2.91586,-217.262
 L 3.23605,-217.649 L 3.50522,-218.073 L 3.7191,-218.528 L 3.87433,-219.005 L 3.96844,-219.499 L 4,-220
 L 3.96844,-220.501 L 3.87433,-220.995 L 3.7191,-221.472 L 3.50522,-221.927 L 3.23605,-222.351 L 2.91586,-222.738
 L 2.54968,-223.082 L 2.1433,-223.377 L 1.70311,-223.619 L 1.23605,-223.804 L 0.749512,-223.929 L 0.25116,-223.992
 L -0.25116,-223.992 L -0.749512,-223.929 L -1.23605,-223.804 L -1.70311,-223.619 L -2.1433,-223.377 L -2.54968,-223.082
 L -2.91586,-222.738 L -3.23605,-222.351 L -3.50522,-221.927 L -3.7191,-221.472 L -3.87433,-220.995 L -3.96844,-220.501
 L -4,-220 L -3.96844,-219.499 L -3.87433,-219.005 L -3.7191,-218.528 L -3.50522,-218.073 L -3.23605,-217.649
 L -2.91586,-217.262 L -2.54968,-216.918 L -2.1433,-216.623 L -1.70311,-216.381 L -1.23605,-216.196 L -0.749512,-216.071
 L -0.25116,-216.008 L 0.25116,-216.008 z
M -0.18837,-217.006 L -0.562134,-217.053 L -0.927048,-217.147 L -1.27733,-217.286 L -1.60747,-217.467 L -1.91226,-217.688
 L -2.1869,-217.946 L -2.42705,-218.237 L -2.62891,-218.555 L -2.78932,-218.896 L -2.90575,-219.254 L -2.97633,-219.624
 L -3,-220 L -2.97633,-220.376 L -2.90575,-220.746 L -2.78932,-221.104 L -2.62891,-221.445 L -2.42705,-221.763
 L -2.1869,-222.054 L -1.91226,-222.312 L -1.60747,-222.533 L -1.27733,-222.714 L -0.927048,-222.853 L -0.562134,-222.947
 L -0.18837,-222.994 L 0.18837,-222.994 L 0.562134,-222.947 L 0.927048,-222.853 L 1.27733,-222.714 L 1.60747,-222.533
 L 1.91226,-222.312 L 2.1869,-222.054 L 2.42705,-221.763 L 2.62891,-221.445 L 2.78932,-221.104 L 2.90575,-220.746
 L 2.97633,-220.376 L 3,-220 L 2.97633,-219.624 L 2.90575,-219.254 L 2.78932,-218.896 L 2.62891,-218.555
 L 2.42705,-218.237 L 2.1869,-217.946 L 1.91226,-217.688 L 1.60747,-217.467 L 1.27733,-217.286 L 0.927048,-217.147
 L 0.562134,-217.053 L 0.18837,-217.006 z
M 2.01373,-99.4436 L 3.32091,-99.7793 L 4.57573,-100.276 L 5.75838,-100.926 L 6.85022,-101.72 L 7.06273,-101.919
 L 7.09407,-102.023 L 7.17068,-102.195 L 7.26826,-102.356 L 7.38527,-102.504 L 7.51987,-102.635 L 7.66991,-102.749
 L 7.83304,-102.844 L 8.0067,-102.917 L 8.07605,-102.936 L 8.69427,-103.683 L 9.41742,-104.823 L 9.99205,-106.044
 L 10.4091,-107.327 L 10.662,-108.653 L 10.7467,-110 L 10.662,-111.347 L 10.4091,-112.673 L 9.99205,-113.956
 L 9.41742,-115.177 L 9.14803,-115.602 L 6.82671,-115.602 L 5.1534,-118.5 L 5.5506,-119.188 L 4.57573,-119.724
 L 3.32091,-120.221 L 2.01373,-120.556 L 0.674789,-120.726 L -0.674789,-120.726 L -2.01373,-120.556 L -3.32091,-120.221
 L -4.57573,-119.724 L -5.75838,-119.074 L -6.85022,-118.28 L -7.06273,-118.081 L -7.09407,-117.977 L -7.17068,-117.805
 L -7.26826,-117.644 L -7.38527,-117.496 L -7.51987,-117.365 L -7.66991,-117.251 L -7.83304,-117.156 L -8.0067,-117.083
 L -8.07605,-117.064 L -8.69427,-116.317 L -9.41742,-115.177 L -9.99205,-113.956 L -10.4091,-112.673 L -10.662,-111.347
 L -10.7467,-110 L -10.662,-108.653 L -10.4091,-107.327 L -9.99205,-106.044 L -9.41742,-104.823 L -9.14803,-104.398
 L -6.82671,-104.398 L -5.1534,-101.5 L -5.5506,-100.812 L -4.57573,-100.276 L -3.32091,-99.7793 L -2.01373,-99.4436
 L -0.674789,-99.2745 L 0.674789,-99.2745 z
M -0.533707,-101.517 L -1.59273,-101.651 L -2.62663,-101.916 L -3.61911,-102.309 L -4.55452,-102.823 L -5.41809,-103.451
 L -6.19623,-104.181 L -6.87663,-105.004 L -7.44859,-105.905 L -7.90309,-106.871 L -8.23296,-107.886 L -8.43297,-108.935
 L -8.5,-110 L -8.43297,-111.065 L -8.23296,-112.114 L -7.90309,-113.129 L -7.44859,-114.095 L -6.87663,-114.996
 L -6.19623,-115.819 L -5.41809,-116.549 L -4.55452,-117.177 L -3.61911,-117.691 L -2.62663,-118.084 L -1.59273,-118.349
 L -0.533707,-118.483 L 0.533707,-118.483 L 1.59273,-118.349 L 2.62663,-118.084 L 3.61911,-117.691 L 4.55452,-117.177
 L 5.41809,-116.549 L 6.19623,-115.819 L 6.87663,-114.996 L 7.44859,-114.095 L 7.90309,-113.129 L 8.23296,-112.114
 L 8.43297,-111.065 L 8.5,-110 L 8.43297,-108.935 L 8.23296,-107.886 L 7.90309,-106.871 L 7.44859,-105.905
 L 6.87663,-105.004 L 6.19623,-104.181 L 5.41809,-103.451 L 4.55452,-102.823 L 3.61911,-102.309 L 2.62663,-101.916
 L 1.59273,-101.651 L 0.533707,-101.517 z
M 2.00063,10.4877 L 3.2993,10.1542 L 4.54596,9.66064 L 5.7209,9.01471 L 6.11545,8.72806 L 6.10052,8.55025
 L 6.11314,8.24913 L 6.16341,7.95195 L 6.25052,7.66342 L 6.37311,7.38808 L 6.52924,7.13028 L 6.71645,6.89407
 L 6.93178,6.6832 L 7.17186,6.50098 L 7.43286,6.35028 L 7.71071,6.23349 L 8.00101,6.15244 L 8.29916,6.10841
 L 8.60049,6.1021 L 8.73863,6.11662 L 9.35614,5.14359 L 9.92703,3.93039 L 10.3414,2.6552 L 10.5926,1.33815
 L 10.6768,-0 L 10.5926,-1.33815 L 10.3414,-2.6552 L 9.92703,-3.93039 L 9.35614,-5.14359 L 8.74016,-6.11421
 L 8.70082,-6.10841 L 8.39949,-6.1021 L 8.09975,-6.13361 L 7.80632,-6.20242 L 7.52382,-6.30748 L 7.25673,-6.44711
 L 7.00923,-6.61913 L 6.78526,-6.8208 L 6.58832,-7.04895 L 6.42152,-7.29999 L 6.28752,-7.56996 L 6.1884,-7.85458
 L 6.12573,-8.1494 L 6.10052,-8.44974 L 6.11227,-8.73036 L 5.7209,-9.01471 L 4.54596,-9.66064 L 3.2993,-10.1542
 L 2.00063,-10.4877 L 0.670395,-10.6557 L -0.670395,-10.6557 L -2.00063,-10.4877 L -3.2993,-10.1542 L -4.54596,-9.66064
 L -5.7209,-9.01471 L -6.11545,-8.72806 L -6.10052,-8.55025 L -6.11314,-8.24913 L -6.16341,-7.95195 L -6.25052,-7.66342
 L -6.37311,-7.38808 L -6.52924,-7.13028 L -6.71645,-6.89407 L -6.93178,-6.6832 L -7.17186,-6.50098 L -7.43286,-6.35028
 L -7.71071,-6.23349 L -8.00101,-6.15244 L -8.29916,-6.10841 L -8.60049,-6.1021 L -8.73863,-6.11662 L -9.35614,-5.14359
 L -9.92703,-3.93039 L -10.3414,-2.6552 L -10.5926,-1.33815 L -10.6768,-0 L -10.5926,1.33815 L -10.3414,2.6552
 L -9.92703,3.93039 L -9.35614,5.14359 L -8.74016,6.11421 L -8.70082,6.10841 L -8.39949,6.1021 L -8.09975,6.13361
 L -7.80632,6.20242 L -7.52382,6.30748 L -7.25673,6.44711 L -7.00923,6.61913 L -6.78526,6.8208 L -6.58832,7.04895
 L -6.42152,7.29999 L -6.28752,7.56996 L -6.1884,7.85458 L -6.12573,8.1494 L -6.10052,8.44974 L -6.11227,8.73036
 L -5.7209,9.01471 L -4.54596,9.66064 L -3.2993,10.1542 L -2.00063,10.4877 L -0.670395,10.6557 L 0.670395,10.6557
 z
M -0.533707,8.48322 L -1.59273,8.34944 L -2.62663,8.08397 L -3.61911,7.69102 L -4.55452,7.17677 L -5.41809,6.54936
 L -6.19623,5.81865 L -6.87663,4.99617 L -7.44859,4.09489 L -7.90309,3.12904 L -8.23296,2.11386 L -8.43297,1.06532
 L -8.5,-0 L -8.43297,-1.06532 L -8.23296,-2.11386 L -7.90309,-3.12904 L -7.44859,-4.09489 L -6.87663,-4.99617
 L -6.19623,-5.81865 L -5.41809,-6.54936 L -4.55452,-7.17677 L -3.61911,-7.69102 L -2.62663,-8.08397 L -1.59273,-8.34944
 L -0.533707,-8.48322 L 0.533707,-8.48322 L 1.59273,-8.34944 L 2.62663,-8.08397 L 3.61911,-7.69102 L 4.55452,-7.17677
 L 5.41809,-6.54936 L 6.19623,-5.81865 L 6.87663,-4.99617 L 7.44859,-4.09489 L 7.90309,-3.12904 L 8.23296,-2.11386
 L 8.43297,-1.06532 L 8.5,-0 L 8.43297,1.06532 L 8.23296,2.11386 L 7.90309,3.12904 L 7.44859,4.09489
 L 6.87663,4.99617 L 6.19623,5.81865 L 5.41809,6.54936 L 4.55452,7.17677 L 3.61911,7.69102 L 2.62663,8.08397
 L 1.59273,8.34944 L 0.533707,8.48322 z
" stroke="black" fill="lightgray" stroke-width="0.5"/>
</svg>
