<?xml version="1.0" standalone="no"?>
<!DOCTYPE svg PUBLIC "-//W3C//DTD SVG 1.1//EN" "http://www.w3.org/Graphics/SVG/1.1/DTD/svg11.dtd">
<svg width="22mm" height="28mm" viewBox="-11 -28 22 28" xmlns="http://www.w3.org/2000/svg" version="1.1">
<title>OpenSCAD Model</title>
<path d="
M 11,-24.75 L 10.9803,-25.0633 L 10.9214,-25.3717 L 10.8244,-25.6703 L 10.6908,-25.9544 L 10.5225,-26.2195
 L 10.3224,-26.4614 L 10.0936,-26.6763 L 9.83955,-26.8608 L 9.56444,-27.0121 L 9.27254,-27.1276 L 8.96844,-27.2057
 L 8.65697,-27.2451 L -8.65697,-27.2451 L -8.96844,-27.2057 L -9.27254,-27.1276 L -9.56444,-27.0121 L -9.83955,-26.8608
 L -10.0936,-26.6763 L -10.3224,-26.4614 L -10.5225,-26.2195 L -10.6908,-25.9544 L -10.8244,-25.6703 L -10.9214,-25.3717
 L -10.9803,-25.0633 L -11,-24.75 L -11,-17 L 11,-17 z
M -7.59418,-22.2529 L -7.78107,-22.2766 L -7.96352,-22.3234 L -8.13866,-22.3927 L -8.30373,-22.4835 L -8.45613,-22.5942
 L -8.59344,-22.7232 L -8.71352,-22.8683 L -8.81445,-23.0274 L -8.89465,-23.1978 L -8.95287,-23.377 L -8.98816,-23.562
 L -9,-23.75 L -8.98816,-23.938 L -8.95287,-24.123 L -8.89465,-24.3022 L -8.81445,-24.4726 L -8.71352,-24.6317
 L -8.59344,-24.7768 L -8.45613,-24.9058 L -8.30373,-25.0165 L -8.13866,-25.1072 L -7.96352,-25.1766 L -7.78107,-25.2234
 L -7.59418,-25.247 L -7.40581,-25.247 L -7.21892,-25.2234 L -7.03647,-25.1766 L -6.86133,-25.1072 L -6.69626,-25.0165
 L -6.54385,-24.9058 L -6.40654,-24.7768 L -6.28647,-24.6317 L -6.18553,-24.4726 L -6.10533,-24.3022 L -6.04712,-24.123
 L -6.01183,-23.938 L -6,-23.75 L -6.01183,-23.562 L -6.04712,-23.377 L -6.10533,-23.1978 L -6.18553,-23.0274
 L -6.28647,-22.8683 L -6.40654,-22.7232 L -6.54385,-22.5942 L -6.69626,-22.4835 L -6.86133,-22.3927 L -7.03647,-22.3234
 L -7.21892,-22.2766 L -7.40581,-22.2529 z
M -0.0941772,-22.2529 L -0.281067,-22.2766 L -0.463516,-22.3234 L -0.638657,-22.3927 L -0.803726,-22.4835 L -0.956131,-22.5942
 L -1.09344,-22.7232 L -1.21352,-22.8683 L -1.31445,-23.0274 L -1.39465,-23.1978 L -1.45287,-23.377 L -1.48816,-23.562
 L -1.5,-23.75 L -1.48816,-23.938 L -1.45287,-24.123 L -1.39465,-24.3022 L -1.31445,-24.4726 L -1.21352,-24.6317
 L -1.09344,-24.7768 L -0.956131,-24.9058 L -0.803726,-25.0165 L -0.638657,-25.1072 L -0.463516,-25.1766 L -0.281067,-25.2234
 L -0.0941772,-25.247 L 0.0941772,-25.247 L 0.281067,-25.2234 L 0.463516,-25.1766 L 0.638657,-25.1072 L 0.803726,-25.0165
 L 0.956131,-24.9058 L 1.09344,-24.7768 L 1.21352,-24.6317 L 1.31445,-24.4726 L 1.39465,-24.3022 L 1.45287,-24.123
 L 1.48816,-23.938 L 1.5,-23.75 L 1.48816,-23.562 L 1.45287,-23.377 L 1.39465,-23.1978 L 1.31445,-23.0274
 L 1.21352,-22.8683 L 1.09344,-22.7232 L 0.956131,-22.5942 L 0.803726,-22.4835 L 0.638657,-22.3927 L 0.463516,-22.3234
 L 0.281067,-22.2766 L 0.0941772,-22.2529 z
M 7.40581,-22.2529 L 7.21892,-22.2766 L 7.03647,-22.3234 L 6.86133,-22.3927 L 6.69626,-22.4835 L 6.54385,-22.5942
 L 6.40654,-22.7232 L 6.28647,-22.8683 L 6.18553,-23.0274 L 6.10533,-23.1978 L 6.04712,-23.377 L 6.01183,-23.562
 L 6,-23.75 L 6.01183,-23.938 L 6.04712,-24.123 L 6.10533,-24.3022 L 6.18553,-24.4726 L 6.28647,-24.6317
 L 6.40654,-24.7768 L 6.54385,-24.9058 L 6.69626,-25.0165 L 6.86133,-25.1072 L 7.03647,-25.1766 L 7.21892,-25.2234
 L 7.40581,-25.247 L 7.59418,-25.247 L 7.78107,-25.2234 L 7.96352,-25.1766 L 8.13866,-25.1072 L 8.30373,-25.0165
 L 8.45613,-24.9058 L 8.59344,-24.7768 L 8.71352,-24.6317 L 8.81445,-24.4726 L 8.89465,-24.3022 L 8.95287,-24.123
 L 8.98816,-23.938 L 9,-23.75 L 8.98816,-23.562 L 8.95287,-23.377 L 8.89465,-23.1978 L 8.81445,-23.0274
 L 8.71352,-22.8683 L 8.59344,-22.7232 L 8.45613,-22.5942 L 8.30373,-22.4835 L 8.13866,-22.3927 L 7.96352,-22.3234
 L 7.78107,-22.2766 L 7.59418,-22.2529 z
M 3.69975,-22.9516 L 3.60008,-22.9642 L 3.50278,-22.9892 L 3.40936,-23.0261 L 3.32133,-23.0745 L 3.24005,-23.1336
 L 3.16682,-23.2024 L 3.10278,-23.2798 L 3.04895,-23.3646 L 3.00616,-23.4555 L 2.97513,-23.551 L 2.9563,-23.6497
 L 2.95,-23.75 L 2.9563,-23.8503 L 2.97513,-23.9489 L 3.00616,-24.0445 L 3.04895,-24.1354 L 3.10278,-24.2202
 L 3.16682,-24.2976 L 3.24005,-24.3664 L 3.32133,-24.4255 L 3.40936,-24.4738 L 3.50278,-24.5108 L 3.60008,-24.5358
 L 3.69975,-24.5484 L 3.80023,-24.5484 L 3.8999,-24.5358 L 3.99721,-24.5108 L 4.09062,-24.4738 L 4.17865,-24.4255
 L 4.25993,-24.3664 L 4.33316,-24.2976 L 4.3972,-24.2202 L 4.45103,-24.1354 L 4.49382,-24.0445 L 4.52486,-23.9489
 L 4.54369,-23.8503 L 4.54999,-23.75 L 4.54369,-23.6497 L 4.52486,-23.551 L 4.49382,-23.4555 L 4.45103,-23.3646
 L 4.3972,-23.2798 L 4.33316,-23.2024 L 4.25993,-23.1336 L 4.17865,-23.0745 L 4.09062,-23.0261 L 3.99721,-22.9892
 L 3.8999,-22.9642 L 3.80023,-22.9516 z
M -3.80023,-22.9516 L -3.8999,-22.9642 L -3.99721,-22.9892 L -4.09062,-23.0261 L -4.17865,-23.0745 L -4.25993,-23.1336
 L -4.33316,-23.2024 L -4.3972,-23.2798 L -4.45103,-23.3646 L -4.49382,-23.4555 L -4.52486,-23.551 L -4.54369,-23.6497
 L -4.54999,-23.75 L -4.54369,-23.8503 L -4.52486,-23.9489 L -4.49382,-24.0445 L -4.45103,-24.1354 L -4.3972,-24.2202
 L -4.33316,-24.2976 L -4.25993,-24.3664 L -4.17865,-24.4255 L -4.09062,-24.4738 L -3.99721,-24.5108 L -3.8999,-24.5358
 L -3.80023,-24.5484 L -3.69975,-24.5484 L -3.60008,-24.5358 L -3.50278,-24.5108 L -3.40936,-24.4738 L -3.32133,-24.4255
 L -3.24005,-24.3664 L -3.16682,-24.2976 L -3.10278,-24.2202 L -3.04895,-24.1354 L -3.00616,-24.0445 L -2.97513,-23.9489
 L -2.9563,-23.8503 L -2.95,-23.75 L -2.9563,-23.6497 L -2.97513,-23.551 L -3.00616,-23.4555 L -3.04895,-23.3646
 L -3.10278,-23.2798 L -3.16682,-23.2024 L -3.24005,-23.1336 L -3.32133,-23.0745 L -3.40936,-23.0261 L -3.50278,-22.9892
 L -3.60008,-22.9642 L -3.69975,-22.9516 z
M -2.72536,-18.5 L -2.72536,-21 L 2.72536,-21 L 2.72536,-18.5 z
M -10.2254,-18.5 L -10.2254,-21 L -4.77463,-21 L -4.77463,-18.5 z
M 4.77463,-18.5 L 4.77463,-21 L 10.2254,-21 L 10.2254,-18.5 z
M 11,-7.75 L 10.9803,-8.06332 L 10.9214,-8.37172 L 10.8244,-8.6703 L 10.6908,-8.95438 L 10.5225,-9.21945
 L 10.3224,-9.46136 L 10.0936,-9.67627 L 9.83955,-9.86081 L 9.56444,-10.0121 L 9.27254,-10.1276 L 8.96844,-10.2057
 L 8.65697,-10.2451 L -8.65697,-10.2451 L -8.96844,-10.2057 L -9.27254,-10.1276 L -9.56444,-10.0121 L -9.83955,-9.86081
 L -10.0936,-9.67627 L -10.3224,-9.46136 L -10.5225,-9.21945 L -10.6908,-8.95438 L -10.8244,-8.6703 L -10.9214,-8.37172
 L -10.9803,-8.06332 L -11,-7.75 L -11,-0 L 11,-0 z
M -7.59418,-5.25294 L -7.78107,-5.27657 L -7.96352,-5.32341 L -8.13866,-5.39275 L -8.30373,-5.48351 L -8.45613,-5.59422
 L -8.59344,-5.72318 L -8.71352,-5.86832 L -8.81445,-6.02736 L -8.89465,-6.1978 L -8.95287,-6.37695 L -8.98816,-6.562
 L -9,-6.75 L -8.98816,-6.93799 L -8.95287,-7.12303 L -8.89465,-7.30219 L -8.81445,-7.47263 L -8.71352,-7.63167
 L -8.59344,-7.77681 L -8.45613,-7.90576 L -8.30373,-8.01648 L -8.13866,-8.10724 L -7.96352,-8.17657 L -7.78107,-8.22342
 L -7.59418,-8.24704 L -7.40581,-8.24704 L -7.21892,-8.22342 L -7.03647,-8.17657 L -6.86133,-8.10724 L -6.69626,-8.01648
 L -6.54385,-7.90576 L -6.40654,-7.77681 L -6.28647,-7.63167 L -6.18553,-7.47263 L -6.10533,-7.30219 L -6.04712,-7.12303
 L -6.01183,-6.93799 L -6,-6.75 L -6.01183,-6.562 L -6.04712,-6.37695 L -6.10533,-6.1978 L -6.18553,-6.02736
 L -6.28647,-5.86832 L -6.40654,-5.72318 L -6.54385,-5.59422 L -6.69626,-5.48351 L -6.86133,-5.39275 L -7.03647,-5.32341
 L -7.21892,-5.27657 L -7.40581,-5.25294 z
M 7.40581,-5.25294 L 7.21892,-5.27657 L 7.03647,-5.32341 L 6.86133,-5.39275 L 6.69626,-5.48351 L 6.54385,-5.59422
 L 6.40654,-5.72318 L 6.28647,-5.86832 L 6.18553,-6.02736 L 6.10533,-6.1978 L 6.04712,-6.37695 L 6.01183,-6.562
 L 6,-6.75 L 6.01183,-6.93799 L 6.04712,-7.12303 L 6.10533,-7.30219 L 6.18553,-7.47263 L 6.28647,-7.63167
 L 6.40654,-7.77681 L 6.54385,-7.90576 L 6.69626,-8.01648 L 6.86133,-8.10724 L 7.03647,-8.17657 L 7.21892,-8.22342
 L 7.40581,-8.24704 L 7.59418,-8.24704 L 7.78107,-8.22342 L 7.96352,-8.17657 L 8.13866,-8.10724 L 8.30373,-8.01648
 L 8.45613,-7.90576 L 8.59344,-7.77681 L 8.71352,-7.63167 L 8.81445,-7.47263 L 8.89465,-7.30219 L 8.95287,-7.12303
 L 8.98816,-6.93799 L 9,-6.75 L 8.98816,-6.562 L 8.95287,-6.37695 L 8.89465,-6.1978 L 8.81445,-6.02736
 L 8.71352,-5.86832 L 8.59344,-5.72318 L 8.45613,-5.59422 L 8.30373,-5.48351 L 8.13866,-5.39275 L 7.96352,-5.32341
 L 7.78107,-5.27657 L 7.59418,-5.25294 z
M -0.0941772,-5.25294 L -0.281067,-5.27657 L -0.463516,-5.32341 L -0.638657,-5.39275 L -0.803726,-5.48351 L -0.956131,-5.59422
 L -1.09344,-5.72318 L -1.21352,-5.86832 L -1.31445,-6.02736 L -1.39465,-6.1978 L -1.45287,-6.37695 L -1.48816,-6.562
 L -1.5,-6.75 L -1.48816,-6.93799 L -1.45287,-7.12303 L -1.39465,-7.30219 L -1.31445,-7.47263 L -1.21352,-7.63167
 L -1.09344,-7.77681 L -0.956131,-7.90576 L -0.803726,-8.01648 L -0.638657,-8.10724 L -0.463516,-8.17657 L -0.281067,-8.22342
 L -0.0941772,-8.24704 L 0.0941772,-8.24704 L 0.281067,-8.22342 L 0.463516,-8.17657 L 0.638657,-8.10724 L 0.803726,-8.01648
 L 0.956131,-7.90576 L 1.09344,-7.77681 L 1.21352,-7.63167 L 1.31445,-7.47263 L 1.39465,-7.30219 L 1.45287,-7.12303
 L 1.48816,-6.93799 L 1.5,-6.75 L 1.48816,-6.562 L 1.45287,-6.37695 L 1.39465,-6.1978 L 1.31445,-6.02736
 L 1.21352,-5.86832 L 1.09344,-5.72318 L 0.956131,-5.59422 L 0.803726,-5.48351 L 0.638657,-5.39275 L 0.463516,-5.32341
 L 0.281067,-5.27657 L 0.0941772,-5.25294 z
M -3.80023,-5.95157 L -3.8999,-5.96416 L -3.99721,-5.98915 L -4.09062,-6.02614 L -4.17865,-6.07452 L -4.25993,-6.13358
 L -4.33316,-6.20236 L -4.3972,-6.27977 L -4.45103,-6.36459 L -4.49382,-6.45549 L -4.52486,-6.55104 L -4.54369,-6.64972
 L -4.54999,-6.75 L -4.54369,-6.85027 L -4.52486,-6.94894 L -4.49382,-7.04449 L -4.45103,-7.13539 L -4.3972,-7.22021
 L -4.33316,-7.29762 L -4.25993,-7.36641 L -4.17865,-7.42546 L -4.09062,-7.47385 L -3.99721,-7.51083 L -3.8999,-7.53583
 L -3.80023,-7.54842 L -3.69975,-7.54842 L -3.60008,-7.53583 L -3.50278,-7.51083 L -3.40936,-7.47385 L -3.32133,-7.42546
 L -3.24005,-7.36641 L -3.16682,-7.29762 L -3.10278,-7.22021 L -3.04895,-7.13539 L -3.00616,-7.04449 L -2.97513,-6.94894
 L -2.9563,-6.85027 L -2.95,-6.75 L -2.9563,-6.64972 L -2.97513,-6.55104 L -3.00616,-6.45549 L -3.04895,-6.36459
 L -3.10278,-6.27977 L -3.16682,-6.20236 L -3.24005,-6.13358 L -3.32133,-6.07452 L -3.40936,-6.02614 L -3.50278,-5.98915
 L -3.60008,-5.96416 L -3.69975,-5.95157 z
M 3.69975,-5.95157 L 3.60008,-5.96416 L 3.50278,-5.98915 L 3.40936,-6.02614 L 3.32133,-6.07452 L 3.24005,-6.13358
 L 3.16682,-6.20236 L 3.10278,-6.27977 L 3.04895,-6.36459 L 3.00616,-6.45549 L 2.97513,-6.55104 L 2.9563,-6.64972
 L 2.95,-6.75 L 2.9563,-6.85027 L 2.97513,-6.94894 L 3.00616,-7.04449 L 3.04895,-7.13539 L 3.10278,-7.22021
 L 3.16682,-7.29762 L 3.24005,-7.36641 L 3.32133,-7.42546 L 3.40936,-7.47385 L 3.50278,-7.51083 L 3.60008,-7.53583
 L 3.69975,-7.54842 L 3.80023,-7.54842 L 3.8999,-7.53583 L 3.99721,-7.51083 L 4.09062,-7.47385 L 4.17865,-7.42546
 L 4.25993,-7.36641 L 4.33316,-7.29762 L 4.3972,-7.22021 L 4.45103,-7.13539 L 4.49382,-7.04449 L 4.52486,-6.94894
 L 4.54369,-6.85027 L 4.54999,-6.75 L 4.54369,-6.64972 L 4.52486,-6.55104 L 4.49382,-6.45549 L 4.45103,-6.36459
 L 4.3972,-6.27977 L 4.33316,-6.20236 L 4.25993,-6.13358 L 4.17865,-6.07452 L 4.09062,-6.02614 L 3.99721,-5.98915
 L 3.8999,-5.96416 L 3.80023,-5.95157 z
M -10.2483,-1.5 L -10.2483,-4 L -4.75166,-4 L -4.75166,-1.5 z
M -2.74832,-1.5 L -2.74832,-4 L 2.74832,-4 L 2.74832,-1.5 z
M 4.75166,-1.5 L 4.75166,-4 L 10.2483,-4 L 10.2483,-1.5 z
" stroke="black" fill="lightgray" stroke-width="0.5"/>
</svg>
