  0
SECTION
  2
BLOCKS
  0
ENDSEC
  0
SECTION
  2
ENTITIES
  0
LINE
  8
0
 10
18.4369
 20
193.589
 11
19.0451
 21
193.745
  0
LINE
  8
0
 10
19.0451
 20
193.745
 11
19.6289
 21
193.976
  0
LINE
  8
0
 10
19.6289
 20
193.976
 11
20.1791
 21
194.278
  0
LINE
  8
0
 10
20.1791
 20
194.278
 11
20.6871
 21
194.647
  0
LINE
  8
0
 10
20.6871
 20
194.647
 11
21.1448
 21
195.077
  0
LINE
  8
0
 10
21.1448
 20
195.077
 11
21.5451
 21
195.561
  0
LINE
  8
0
 10
21.5451
 20
195.561
 11
21.8815
 21
196.091
  0
LINE
  8
0
 10
21.8815
 20
196.091
 11
22.1489
 21
196.659
  0
LINE
  8
0
 10
22.1489
 20
196.659
 11
22.3429
 21
197.257
  0
LINE
  8
0
 10
22.3429
 20
197.257
 11
22.4606
 21
197.873
  0
LINE
  8
0
 10
22.4606
 20
197.873
 11
22.5
 21
198.5
  0
LINE
  8
0
 10
22.5
 20
198.5
 11
22.5
 21
233.5
  0
LINE
  8
0
 10
22.5
 20
233.5
 11
22.4606
 21
234.127
  0
LINE
  8
0
 10
22.4606
 20
234.127
 11
22.3429
 21
234.743
  0
LINE
  8
0
 10
22.3429
 20
234.743
 11
22.1489
 21
235.341
  0
LINE
  8
0
 10
22.1489
 20
235.341
 11
21.8815
 21
235.909
  0
LINE
  8
0
 10
21.8815
 20
235.909
 11
21.5451
 21
236.439
  0
LINE
  8
0
 10
21.5451
 20
236.439
 11
21.1448
 21
236.923
  0
LINE
  8
0
 10
21.1448
 20
236.923
 11
20.6871
 21
237.353
  0
LINE
  8
0
 10
20.6871
 20
237.353
 11
20.1791
 21
237.722
  0
LINE
  8
0
 10
20.1791
 20
237.722
 11
19.6289
 21
238.024
  0
LINE
  8
0
 10
19.6289
 20
238.024
 11
19.0451
 21
238.255
  0
LINE
  8
0
 10
19.0451
 20
238.255
 11
18.4369
 21
238.411
  0
LINE
  8
0
 10
18.4369
 20
238.411
 11
17.8139
 21
238.49
  0
LINE
  8
0
 10
17.8139
 20
238.49
 11
-17.8139
 21
238.49
  0
LINE
  8
0
 10
-17.8139
 20
238.49
 11
-18.4369
 21
238.411
  0
LINE
  8
0
 10
-18.4369
 20
238.411
 11
-19.0451
 21
238.255
  0
LINE
  8
0
 10
-19.0451
 20
238.255
 11
-19.6289
 21
238.024
  0
LINE
  8
0
 10
-19.6289
 20
238.024
 11
-20.1791
 21
237.722
  0
LINE
  8
0
 10
-20.1791
 20
237.722
 11
-20.6871
 21
237.353
  0
LINE
  8
0
 10
-20.6871
 20
237.353
 11
-21.1448
 21
236.923
  0
LINE
  8
0
 10
-21.1448
 20
236.923
 11
-21.5451
 21
236.439
  0
LINE
  8
0
 10
-21.5451
 20
236.439
 11
-21.8815
 21
235.909
  0
LINE
  8
0
 10
-21.8815
 20
235.909
 11
-22.1489
 21
235.341
  0
LINE
  8
0
 10
-22.1489
 20
235.341
 11
-22.3429
 21
234.743
  0
LINE
  8
0
 10
-22.3429
 20
234.743
 11
-22.4606
 21
234.127
  0
LINE
  8
0
 10
-22.4606
 20
234.127
 11
-22.5
 21
233.5
  0
LINE
  8
0
 10
-22.5
 20
233.5
 11
-22.5
 21
198.5
  0
LINE
  8
0
 10
-22.5
 20
198.5
 11
-22.4606
 21
197.873
  0
LINE
  8
0
 10
-22.4606
 20
197.873
 11
-22.3429
 21
197.257
  0
LINE
  8
0
 10
-22.3429
 20
197.257
 11
-22.1489
 21
196.659
  0
LINE
  8
0
 10
-22.1489
 20
196.659
 11
-21.8815
 21
196.091
  0
LINE
  8
0
 10
-21.8815
 20
196.091
 11
-21.5451
 21
195.561
  0
LINE
  8
0
 10
-21.5451
 20
195.561
 11
-21.1448
 21
195.077
  0
LINE
  8
0
 10
-21.1448
 20
195.077
 11
-20.6871
 21
194.647
  0
LINE
  8
0
 10
-20.6871
 20
194.647
 11
-20.1791
 21
194.278
  0
LINE
  8
0
 10
-20.1791
 20
194.278
 11
-19.6289
 21
193.976
  0
LINE
  8
0
 10
-19.6289
 20
193.976
 11
-19.0451
 21
193.745
  0
LINE
  8
0
 10
-19.0451
 20
193.745
 11
-18.4369
 21
193.589
  0
LINE
  8
0
 10
-18.4369
 20
193.589
 11
-17.8139
 21
193.51
  0
LINE
  8
0
 10
-17.8139
 20
193.51
 11
17.8139
 21
193.51
  0
LINE
  8
0
 10
17.8139
 20
193.51
 11
18.4369
 21
193.589
  0
LINE
  8
0
 10
-17.5482
 20
194.009
 11
-18.1401
 21
194.084
  0
LINE
  8
0
 10
-18.1401
 20
194.084
 11
-18.7178
 21
194.232
  0
LINE
  8
0
 10
-18.7178
 20
194.232
 11
-19.2724
 21
194.452
  0
LINE
  8
0
 10
-19.2724
 20
194.452
 11
-19.7952
 21
194.739
  0
LINE
  8
0
 10
-19.7952
 20
194.739
 11
-20.2778
 21
195.09
  0
LINE
  8
0
 10
-20.2778
 20
195.09
 11
-20.7126
 21
195.498
  0
LINE
  8
0
 10
-20.7126
 20
195.498
 11
-21.0928
 21
195.958
  0
LINE
  8
0
 10
-21.0928
 20
195.958
 11
-21.4124
 21
196.462
  0
LINE
  8
0
 10
-21.4124
 20
196.462
 11
-21.6664
 21
197.001
  0
LINE
  8
0
 10
-21.6664
 20
197.001
 11
-21.8508
 21
197.569
  0
LINE
  8
0
 10
-21.8508
 20
197.569
 11
-21.9625
 21
198.155
  0
LINE
  8
0
 10
-21.9625
 20
198.155
 11
-22
 21
198.75
  0
LINE
  8
0
 10
-22
 20
198.75
 11
-22
 21
233.25
  0
LINE
  8
0
 10
-22
 20
233.25
 11
-21.9625
 21
233.845
  0
LINE
  8
0
 10
-21.9625
 20
233.845
 11
-21.8508
 21
234.431
  0
LINE
  8
0
 10
-21.8508
 20
234.431
 11
-21.6664
 21
234.999
  0
LINE
  8
0
 10
-21.6664
 20
234.999
 11
-21.4124
 21
235.538
  0
LINE
  8
0
 10
-21.4124
 20
235.538
 11
-21.0928
 21
236.042
  0
LINE
  8
0
 10
-21.0928
 20
236.042
 11
-20.7126
 21
236.502
  0
LINE
  8
0
 10
-20.7126
 20
236.502
 11
-20.2778
 21
236.91
  0
LINE
  8
0
 10
-20.2778
 20
236.91
 11
-19.7952
 21
237.261
  0
LINE
  8
0
 10
-19.7952
 20
237.261
 11
-19.2724
 21
237.548
  0
LINE
  8
0
 10
-19.2724
 20
237.548
 11
-18.7178
 21
237.768
  0
LINE
  8
0
 10
-18.7178
 20
237.768
 11
-18.1401
 21
237.916
  0
LINE
  8
0
 10
-18.1401
 20
237.916
 11
-17.5482
 21
237.991
  0
LINE
  8
0
 10
-17.5482
 20
237.991
 11
17.5482
 21
237.991
  0
LINE
  8
0
 10
17.5482
 20
237.991
 11
18.1401
 21
237.916
  0
LINE
  8
0
 10
18.1401
 20
237.916
 11
18.7178
 21
237.768
  0
LINE
  8
0
 10
18.7178
 20
237.768
 11
19.2724
 21
237.548
  0
LINE
  8
0
 10
19.2724
 20
237.548
 11
19.7952
 21
237.261
  0
LINE
  8
0
 10
19.7952
 20
237.261
 11
20.2778
 21
236.91
  0
LINE
  8
0
 10
20.2778
 20
236.91
 11
20.7126
 21
236.502
  0
LINE
  8
0
 10
20.7126
 20
236.502
 11
21.0928
 21
236.042
  0
LINE
  8
0
 10
21.0928
 20
236.042
 11
21.4124
 21
235.538
  0
LINE
  8
0
 10
21.4124
 20
235.538
 11
21.6664
 21
234.999
  0
LINE
  8
0
 10
21.6664
 20
234.999
 11
21.8508
 21
234.431
  0
LINE
  8
0
 10
21.8508
 20
234.431
 11
21.9625
 21
233.845
  0
LINE
  8
0
 10
21.9625
 20
233.845
 11
22
 21
233.25
  0
LINE
  8
0
 10
22
 20
233.25
 11
22
 21
198.75
  0
LINE
  8
0
 10
22
 20
198.75
 11
21.9625
 21
198.155
  0
LINE
  8
0
 10
21.9625
 20
198.155
 11
21.8508
 21
197.569
  0
LINE
  8
0
 10
21.8508
 20
197.569
 11
21.6664
 21
197.001
  0
LINE
  8
0
 10
21.6664
 20
197.001
 11
21.4124
 21
196.462
  0
LINE
  8
0
 10
21.4124
 20
196.462
 11
21.0928
 21
195.958
  0
LINE
  8
0
 10
21.0928
 20
195.958
 11
20.7126
 21
195.498
  0
LINE
  8
0
 10
20.7126
 20
195.498
 11
20.2778
 21
195.09
  0
LINE
  8
0
 10
20.2778
 20
195.09
 11
19.7952
 21
194.739
  0
LINE
  8
0
 10
19.7952
 20
194.739
 11
19.2724
 21
194.452
  0
LINE
  8
0
 10
19.2724
 20
194.452
 11
18.7178
 21
194.232
  0
LINE
  8
0
 10
18.7178
 20
194.232
 11
18.1401
 21
194.084
  0
LINE
  8
0
 10
18.1401
 20
194.084
 11
17.5482
 21
194.009
  0
LINE
  8
0
 10
17.5482
 20
194.009
 11
-17.5482
 21
194.009
  0
LINE
  8
0
 10
18.4369
 20
139.589
 11
19.0451
 21
139.745
  0
LINE
  8
0
 10
19.0451
 20
139.745
 11
19.6289
 21
139.976
  0
LINE
  8
0
 10
19.6289
 20
139.976
 11
20.1791
 21
140.278
  0
LINE
  8
0
 10
20.1791
 20
140.278
 11
20.6871
 21
140.647
  0
LINE
  8
0
 10
20.6871
 20
140.647
 11
21.1448
 21
141.077
  0
LINE
  8
0
 10
21.1448
 20
141.077
 11
21.5451
 21
141.561
  0
LINE
  8
0
 10
21.5451
 20
141.561
 11
21.8815
 21
142.091
  0
LINE
  8
0
 10
21.8815
 20
142.091
 11
22.1489
 21
142.659
  0
LINE
  8
0
 10
22.1489
 20
142.659
 11
22.3429
 21
143.257
  0
LINE
  8
0
 10
22.3429
 20
143.257
 11
22.4606
 21
143.873
  0
LINE
  8
0
 10
22.4606
 20
143.873
 11
22.5
 21
144.5
  0
LINE
  8
0
 10
22.5
 20
144.5
 11
22.5
 21
179.5
  0
LINE
  8
0
 10
22.5
 20
179.5
 11
22.4606
 21
180.127
  0
LINE
  8
0
 10
22.4606
 20
180.127
 11
22.3429
 21
180.743
  0
LINE
  8
0
 10
22.3429
 20
180.743
 11
22.1489
 21
181.341
  0
LINE
  8
0
 10
22.1489
 20
181.341
 11
21.8815
 21
181.909
  0
LINE
  8
0
 10
21.8815
 20
181.909
 11
21.5451
 21
182.439
  0
LINE
  8
0
 10
21.5451
 20
182.439
 11
21.1448
 21
182.923
  0
LINE
  8
0
 10
21.1448
 20
182.923
 11
20.6871
 21
183.353
  0
LINE
  8
0
 10
20.6871
 20
183.353
 11
20.1791
 21
183.722
  0
LINE
  8
0
 10
20.1791
 20
183.722
 11
19.6289
 21
184.024
  0
LINE
  8
0
 10
19.6289
 20
184.024
 11
19.0451
 21
184.255
  0
LINE
  8
0
 10
19.0451
 20
184.255
 11
18.4369
 21
184.411
  0
LINE
  8
0
 10
18.4369
 20
184.411
 11
17.8139
 21
184.49
  0
LINE
  8
0
 10
17.8139
 20
184.49
 11
-17.8139
 21
184.49
  0
LINE
  8
0
 10
-17.8139
 20
184.49
 11
-18.4369
 21
184.411
  0
LINE
  8
0
 10
-18.4369
 20
184.411
 11
-19.0451
 21
184.255
  0
LINE
  8
0
 10
-19.0451
 20
184.255
 11
-19.6289
 21
184.024
  0
LINE
  8
0
 10
-19.6289
 20
184.024
 11
-20.1791
 21
183.722
  0
LINE
  8
0
 10
-20.1791
 20
183.722
 11
-20.6871
 21
183.353
  0
LINE
  8
0
 10
-20.6871
 20
183.353
 11
-21.1448
 21
182.923
  0
LINE
  8
0
 10
-21.1448
 20
182.923
 11
-21.5451
 21
182.439
  0
LINE
  8
0
 10
-21.5451
 20
182.439
 11
-21.8815
 21
181.909
  0
LINE
  8
0
 10
-21.8815
 20
181.909
 11
-22.1489
 21
181.341
  0
LINE
  8
0
 10
-22.1489
 20
181.341
 11
-22.3429
 21
180.743
  0
LINE
  8
0
 10
-22.3429
 20
180.743
 11
-22.4606
 21
180.127
  0
LINE
  8
0
 10
-22.4606
 20
180.127
 11
-22.5
 21
179.5
  0
LINE
  8
0
 10
-22.5
 20
179.5
 11
-22.5
 21
144.5
  0
LINE
  8
0
 10
-22.5
 20
144.5
 11
-22.4606
 21
143.873
  0
LINE
  8
0
 10
-22.4606
 20
143.873
 11
-22.3429
 21
143.257
  0
LINE
  8
0
 10
-22.3429
 20
143.257
 11
-22.1489
 21
142.659
  0
LINE
  8
0
 10
-22.1489
 20
142.659
 11
-21.8815
 21
142.091
  0
LINE
  8
0
 10
-21.8815
 20
142.091
 11
-21.5451
 21
141.561
  0
LINE
  8
0
 10
-21.5451
 20
141.561
 11
-21.1448
 21
141.077
  0
LINE
  8
0
 10
-21.1448
 20
141.077
 11
-20.6871
 21
140.647
  0
LINE
  8
0
 10
-20.6871
 20
140.647
 11
-20.1791
 21
140.278
  0
LINE
  8
0
 10
-20.1791
 20
140.278
 11
-19.6289
 21
139.976
  0
LINE
  8
0
 10
-19.6289
 20
139.976
 11
-19.0451
 21
139.745
  0
LINE
  8
0
 10
-19.0451
 20
139.745
 11
-18.4369
 21
139.589
  0
LINE
  8
0
 10
-18.4369
 20
139.589
 11
-17.8139
 21
139.51
  0
LINE
  8
0
 10
-17.8139
 20
139.51
 11
17.8139
 21
139.51
  0
LINE
  8
0
 10
17.8139
 20
139.51
 11
18.4369
 21
139.589
  0
LINE
  8
0
 10
-17.493
 20
140.888
 11
-17.9751
 21
140.949
  0
LINE
  8
0
 10
-17.9751
 20
140.949
 11
-18.4457
 21
141.07
  0
LINE
  8
0
 10
-18.4457
 20
141.07
 11
-18.8975
 21
141.249
  0
LINE
  8
0
 10
-18.8975
 20
141.249
 11
-19.3234
 21
141.483
  0
LINE
  8
0
 10
-19.3234
 20
141.483
 11
-19.7165
 21
141.769
  0
LINE
  8
0
 10
-19.7165
 20
141.769
 11
-20.0707
 21
142.101
  0
LINE
  8
0
 10
-20.0707
 20
142.101
 11
-20.3805
 21
142.476
  0
LINE
  8
0
 10
-20.3805
 20
142.476
 11
-20.6408
 21
142.886
  0
LINE
  8
0
 10
-20.6408
 20
142.886
 11
-20.8477
 21
143.326
  0
LINE
  8
0
 10
-20.8477
 20
143.326
 11
-20.9979
 21
143.788
  0
LINE
  8
0
 10
-20.9979
 20
143.788
 11
-21.089
 21
144.265
  0
LINE
  8
0
 10
-21.089
 20
144.265
 11
-21.1195
 21
144.75
  0
LINE
  8
0
 10
-21.1195
 20
144.75
 11
-21.1195
 21
179.25
  0
LINE
  8
0
 10
-21.1195
 20
179.25
 11
-21.089
 21
179.735
  0
LINE
  8
0
 10
-21.089
 20
179.735
 11
-20.9979
 21
180.212
  0
LINE
  8
0
 10
-20.9979
 20
180.212
 11
-20.8477
 21
180.674
  0
LINE
  8
0
 10
-20.8477
 20
180.674
 11
-20.6408
 21
181.114
  0
LINE
  8
0
 10
-20.6408
 20
181.114
 11
-20.3805
 21
181.524
  0
LINE
  8
0
 10
-20.3805
 20
181.524
 11
-20.0707
 21
181.899
  0
LINE
  8
0
 10
-20.0707
 20
181.899
 11
-19.7165
 21
182.231
  0
LINE
  8
0
 10
-19.7165
 20
182.231
 11
-19.3234
 21
182.517
  0
LINE
  8
0
 10
-19.3234
 20
182.517
 11
-18.8975
 21
182.751
  0
LINE
  8
0
 10
-18.8975
 20
182.751
 11
-18.4457
 21
182.93
  0
LINE
  8
0
 10
-18.4457
 20
182.93
 11
-17.9751
 21
183.051
  0
LINE
  8
0
 10
-17.9751
 20
183.051
 11
-17.493
 21
183.112
  0
LINE
  8
0
 10
-17.493
 20
183.112
 11
17.493
 21
183.112
  0
LINE
  8
0
 10
17.493
 20
183.112
 11
17.9751
 21
183.051
  0
LINE
  8
0
 10
17.9751
 20
183.051
 11
18.4457
 21
182.93
  0
LINE
  8
0
 10
18.4457
 20
182.93
 11
18.8975
 21
182.751
  0
LINE
  8
0
 10
18.8975
 20
182.751
 11
19.3234
 21
182.517
  0
LINE
  8
0
 10
19.3234
 20
182.517
 11
19.7165
 21
182.231
  0
LINE
  8
0
 10
19.7165
 20
182.231
 11
20.0707
 21
181.899
  0
LINE
  8
0
 10
20.0707
 20
181.899
 11
20.3805
 21
181.524
  0
LINE
  8
0
 10
20.3805
 20
181.524
 11
20.6408
 21
181.114
  0
LINE
  8
0
 10
20.6408
 20
181.114
 11
20.8477
 21
180.674
  0
LINE
  8
0
 10
20.8477
 20
180.674
 11
20.9979
 21
180.212
  0
LINE
  8
0
 10
20.9979
 20
180.212
 11
21.089
 21
179.735
  0
LINE
  8
0
 10
21.089
 20
179.735
 11
21.1195
 21
179.25
  0
LINE
  8
0
 10
21.1195
 20
179.25
 11
21.1195
 21
144.75
  0
LINE
  8
0
 10
21.1195
 20
144.75
 11
21.089
 21
144.265
  0
LINE
  8
0
 10
21.089
 20
144.265
 11
20.9979
 21
143.788
  0
LINE
  8
0
 10
20.9979
 20
143.788
 11
20.8477
 21
143.326
  0
LINE
  8
0
 10
20.8477
 20
143.326
 11
20.6408
 21
142.886
  0
LINE
  8
0
 10
20.6408
 20
142.886
 11
20.3805
 21
142.476
  0
LINE
  8
0
 10
20.3805
 20
142.476
 11
20.0707
 21
142.101
  0
LINE
  8
0
 10
20.0707
 20
142.101
 11
19.7165
 21
141.769
  0
LINE
  8
0
 10
19.7165
 20
141.769
 11
19.3234
 21
141.483
  0
LINE
  8
0
 10
19.3234
 20
141.483
 11
18.8975
 21
141.249
  0
LINE
  8
0
 10
18.8975
 20
141.249
 11
18.4457
 21
141.07
  0
LINE
  8
0
 10
18.4457
 20
141.07
 11
17.9751
 21
140.949
  0
LINE
  8
0
 10
17.9751
 20
140.949
 11
17.493
 21
140.888
  0
LINE
  8
0
 10
17.493
 20
140.888
 11
-17.493
 21
140.888
  0
LINE
  8
0
 10
18.4369
 20
85.5886
 11
19.0451
 21
85.7447
  0
LINE
  8
0
 10
19.0451
 20
85.7447
 11
19.6289
 21
85.9759
  0
LINE
  8
0
 10
19.6289
 20
85.9759
 11
20.1791
 21
86.2784
  0
LINE
  8
0
 10
20.1791
 20
86.2784
 11
20.6871
 21
86.6474
  0
LINE
  8
0
 10
20.6871
 20
86.6474
 11
21.1448
 21
87.0773
  0
LINE
  8
0
 10
21.1448
 20
87.0773
 11
21.5451
 21
87.5611
  0
LINE
  8
0
 10
21.5451
 20
87.5611
 11
21.8815
 21
88.0912
  0
LINE
  8
0
 10
21.8815
 20
88.0912
 11
22.1489
 21
88.6594
  0
LINE
  8
0
 10
22.1489
 20
88.6594
 11
22.3429
 21
89.2566
  0
LINE
  8
0
 10
22.3429
 20
89.2566
 11
22.4606
 21
89.8733
  0
LINE
  8
0
 10
22.4606
 20
89.8733
 11
22.5
 21
90.5
  0
LINE
  8
0
 10
22.5
 20
90.5
 11
22.5
 21
125.5
  0
LINE
  8
0
 10
22.5
 20
125.5
 11
22.4606
 21
126.127
  0
LINE
  8
0
 10
22.4606
 20
126.127
 11
22.3429
 21
126.743
  0
LINE
  8
0
 10
22.3429
 20
126.743
 11
22.1489
 21
127.341
  0
LINE
  8
0
 10
22.1489
 20
127.341
 11
21.8815
 21
127.909
  0
LINE
  8
0
 10
21.8815
 20
127.909
 11
21.5451
 21
128.439
  0
LINE
  8
0
 10
21.5451
 20
128.439
 11
21.1448
 21
128.923
  0
LINE
  8
0
 10
21.1448
 20
128.923
 11
20.6871
 21
129.353
  0
LINE
  8
0
 10
20.6871
 20
129.353
 11
20.1791
 21
129.722
  0
LINE
  8
0
 10
20.1791
 20
129.722
 11
19.6289
 21
130.024
  0
LINE
  8
0
 10
19.6289
 20
130.024
 11
19.0451
 21
130.255
  0
LINE
  8
0
 10
19.0451
 20
130.255
 11
18.4369
 21
130.411
  0
LINE
  8
0
 10
18.4369
 20
130.411
 11
17.8139
 21
130.49
  0
LINE
  8
0
 10
17.8139
 20
130.49
 11
-17.8139
 21
130.49
  0
LINE
  8
0
 10
-17.8139
 20
130.49
 11
-18.4369
 21
130.411
  0
LINE
  8
0
 10
-18.4369
 20
130.411
 11
-19.0451
 21
130.255
  0
LINE
  8
0
 10
-19.0451
 20
130.255
 11
-19.6289
 21
130.024
  0
LINE
  8
0
 10
-19.6289
 20
130.024
 11
-20.1791
 21
129.722
  0
LINE
  8
0
 10
-20.1791
 20
129.722
 11
-20.6871
 21
129.353
  0
LINE
  8
0
 10
-20.6871
 20
129.353
 11
-21.1448
 21
128.923
  0
LINE
  8
0
 10
-21.1448
 20
128.923
 11
-21.5451
 21
128.439
  0
LINE
  8
0
 10
-21.5451
 20
128.439
 11
-21.8815
 21
127.909
  0
LINE
  8
0
 10
-21.8815
 20
127.909
 11
-22.1489
 21
127.341
  0
LINE
  8
0
 10
-22.1489
 20
127.341
 11
-22.3429
 21
126.743
  0
LINE
  8
0
 10
-22.3429
 20
126.743
 11
-22.4606
 21
126.127
  0
LINE
  8
0
 10
-22.4606
 20
126.127
 11
-22.5
 21
125.5
  0
LINE
  8
0
 10
-22.5
 20
125.5
 11
-22.5
 21
90.5
  0
LINE
  8
0
 10
-22.5
 20
90.5
 11
-22.4606
 21
89.8733
  0
LINE
  8
0
 10
-22.4606
 20
89.8733
 11
-22.3429
 21
89.2566
  0
LINE
  8
0
 10
-22.3429
 20
89.2566
 11
-22.1489
 21
88.6594
  0
LINE
  8
0
 10
-22.1489
 20
88.6594
 11
-21.8815
 21
88.0912
  0
LINE
  8
0
 10
-21.8815
 20
88.0912
 11
-21.5451
 21
87.5611
  0
LINE
  8
0
 10
-21.5451
 20
87.5611
 11
-21.1448
 21
87.0773
  0
LINE
  8
0
 10
-21.1448
 20
87.0773
 11
-20.6871
 21
86.6474
  0
LINE
  8
0
 10
-20.6871
 20
86.6474
 11
-20.1791
 21
86.2784
  0
LINE
  8
0
 10
-20.1791
 20
86.2784
 11
-19.6289
 21
85.9759
  0
LINE
  8
0
 10
-19.6289
 20
85.9759
 11
-19.0451
 21
85.7447
  0
LINE
  8
0
 10
-19.0451
 20
85.7447
 11
-18.4369
 21
85.5886
  0
LINE
  8
0
 10
-18.4369
 20
85.5886
 11
-17.8139
 21
85.5099
  0
LINE
  8
0
 10
-17.8139
 20
85.5099
 11
17.8139
 21
85.5099
  0
LINE
  8
0
 10
17.8139
 20
85.5099
 11
18.4369
 21
85.5886
  0
LINE
  8
0
 10
14.9058
 20
121.503
 11
14.7189
 21
121.527
  0
LINE
  8
0
 10
14.7189
 20
121.527
 11
14.5365
 21
121.573
  0
LINE
  8
0
 10
14.5365
 20
121.573
 11
14.3613
 21
121.643
  0
LINE
  8
0
 10
14.3613
 20
121.643
 11
14.1963
 21
121.734
  0
LINE
  8
0
 10
14.1963
 20
121.734
 11
14.0439
 21
121.844
  0
LINE
  8
0
 10
14.0439
 20
121.844
 11
13.9065
 21
121.973
  0
LINE
  8
0
 10
13.9065
 20
121.973
 11
13.7865
 21
122.118
  0
LINE
  8
0
 10
13.7865
 20
122.118
 11
13.6855
 21
122.277
  0
LINE
  8
0
 10
13.6855
 20
122.277
 11
13.6053
 21
122.448
  0
LINE
  8
0
 10
13.6053
 20
122.448
 11
13.5471
 21
122.627
  0
LINE
  8
0
 10
13.5471
 20
122.627
 11
13.5118
 21
122.812
  0
LINE
  8
0
 10
13.5118
 20
122.812
 11
13.5
 21
123
  0
LINE
  8
0
 10
13.5
 20
123
 11
13.5118
 21
123.188
  0
LINE
  8
0
 10
13.5118
 20
123.188
 11
13.5471
 21
123.373
  0
LINE
  8
0
 10
13.5471
 20
123.373
 11
13.6053
 21
123.552
  0
LINE
  8
0
 10
13.6053
 20
123.552
 11
13.6855
 21
123.723
  0
LINE
  8
0
 10
13.6855
 20
123.723
 11
13.7865
 21
123.882
  0
LINE
  8
0
 10
13.7865
 20
123.882
 11
13.9065
 21
124.027
  0
LINE
  8
0
 10
13.9065
 20
124.027
 11
14.0439
 21
124.156
  0
LINE
  8
0
 10
14.0439
 20
124.156
 11
14.1963
 21
124.266
  0
LINE
  8
0
 10
14.1963
 20
124.266
 11
14.3613
 21
124.357
  0
LINE
  8
0
 10
14.3613
 20
124.357
 11
14.5365
 21
124.427
  0
LINE
  8
0
 10
14.5365
 20
124.427
 11
14.7189
 21
124.473
  0
LINE
  8
0
 10
14.7189
 20
124.473
 11
14.9058
 21
124.497
  0
LINE
  8
0
 10
14.9058
 20
124.497
 11
15.0942
 21
124.497
  0
LINE
  8
0
 10
15.0942
 20
124.497
 11
15.2811
 21
124.473
  0
LINE
  8
0
 10
15.2811
 20
124.473
 11
15.4635
 21
124.427
  0
LINE
  8
0
 10
15.4635
 20
124.427
 11
15.6387
 21
124.357
  0
LINE
  8
0
 10
15.6387
 20
124.357
 11
15.8037
 21
124.266
  0
LINE
  8
0
 10
15.8037
 20
124.266
 11
15.9561
 21
124.156
  0
LINE
  8
0
 10
15.9561
 20
124.156
 11
16.0934
 21
124.027
  0
LINE
  8
0
 10
16.0934
 20
124.027
 11
16.2135
 21
123.882
  0
LINE
  8
0
 10
16.2135
 20
123.882
 11
16.3145
 21
123.723
  0
LINE
  8
0
 10
16.3145
 20
123.723
 11
16.3947
 21
123.552
  0
LINE
  8
0
 10
16.3947
 20
123.552
 11
16.4529
 21
123.373
  0
LINE
  8
0
 10
16.4529
 20
123.373
 11
16.4882
 21
123.188
  0
LINE
  8
0
 10
16.4882
 20
123.188
 11
16.5
 21
123
  0
LINE
  8
0
 10
16.5
 20
123
 11
16.4882
 21
122.812
  0
LINE
  8
0
 10
16.4882
 20
122.812
 11
16.4529
 21
122.627
  0
LINE
  8
0
 10
16.4529
 20
122.627
 11
16.3947
 21
122.448
  0
LINE
  8
0
 10
16.3947
 20
122.448
 11
16.3145
 21
122.277
  0
LINE
  8
0
 10
16.3145
 20
122.277
 11
16.2135
 21
122.118
  0
LINE
  8
0
 10
16.2135
 20
122.118
 11
16.0934
 21
121.973
  0
LINE
  8
0
 10
16.0934
 20
121.973
 11
15.9561
 21
121.844
  0
LINE
  8
0
 10
15.9561
 20
121.844
 11
15.8037
 21
121.734
  0
LINE
  8
0
 10
15.8037
 20
121.734
 11
15.6387
 21
121.643
  0
LINE
  8
0
 10
15.6387
 20
121.643
 11
15.4635
 21
121.573
  0
LINE
  8
0
 10
15.4635
 20
121.573
 11
15.2811
 21
121.527
  0
LINE
  8
0
 10
15.2811
 20
121.527
 11
15.0942
 21
121.503
  0
LINE
  8
0
 10
15.0942
 20
121.503
 11
14.9058
 21
121.503
  0
LINE
  8
0
 10
-15.0942
 20
121.503
 11
-15.2811
 21
121.527
  0
LINE
  8
0
 10
-15.2811
 20
121.527
 11
-15.4635
 21
121.573
  0
LINE
  8
0
 10
-15.4635
 20
121.573
 11
-15.6387
 21
121.643
  0
LINE
  8
0
 10
-15.6387
 20
121.643
 11
-15.8037
 21
121.734
  0
LINE
  8
0
 10
-15.8037
 20
121.734
 11
-15.9561
 21
121.844
  0
LINE
  8
0
 10
-15.9561
 20
121.844
 11
-16.0934
 21
121.973
  0
LINE
  8
0
 10
-16.0934
 20
121.973
 11
-16.2135
 21
122.118
  0
LINE
  8
0
 10
-16.2135
 20
122.118
 11
-16.3145
 21
122.277
  0
LINE
  8
0
 10
-16.3145
 20
122.277
 11
-16.3947
 21
122.448
  0
LINE
  8
0
 10
-16.3947
 20
122.448
 11
-16.4529
 21
122.627
  0
LINE
  8
0
 10
-16.4529
 20
122.627
 11
-16.4882
 21
122.812
  0
LINE
  8
0
 10
-16.4882
 20
122.812
 11
-16.5
 21
123
  0
LINE
  8
0
 10
-16.5
 20
123
 11
-16.4882
 21
123.188
  0
LINE
  8
0
 10
-16.4882
 20
123.188
 11
-16.4529
 21
123.373
  0
LINE
  8
0
 10
-16.4529
 20
123.373
 11
-16.3947
 21
123.552
  0
LINE
  8
0
 10
-16.3947
 20
123.552
 11
-16.3145
 21
123.723
  0
LINE
  8
0
 10
-16.3145
 20
123.723
 11
-16.2135
 21
123.882
  0
LINE
  8
0
 10
-16.2135
 20
123.882
 11
-16.0934
 21
124.027
  0
LINE
  8
0
 10
-16.0934
 20
124.027
 11
-15.9561
 21
124.156
  0
LINE
  8
0
 10
-15.9561
 20
124.156
 11
-15.8037
 21
124.266
  0
LINE
  8
0
 10
-15.8037
 20
124.266
 11
-15.6387
 21
124.357
  0
LINE
  8
0
 10
-15.6387
 20
124.357
 11
-15.4635
 21
124.427
  0
LINE
  8
0
 10
-15.4635
 20
124.427
 11
-15.2811
 21
124.473
  0
LINE
  8
0
 10
-15.2811
 20
124.473
 11
-15.0942
 21
124.497
  0
LINE
  8
0
 10
-15.0942
 20
124.497
 11
-14.9058
 21
124.497
  0
LINE
  8
0
 10
-14.9058
 20
124.497
 11
-14.7189
 21
124.473
  0
LINE
  8
0
 10
-14.7189
 20
124.473
 11
-14.5365
 21
124.427
  0
LINE
  8
0
 10
-14.5365
 20
124.427
 11
-14.3613
 21
124.357
  0
LINE
  8
0
 10
-14.3613
 20
124.357
 11
-14.1963
 21
124.266
  0
LINE
  8
0
 10
-14.1963
 20
124.266
 11
-14.0439
 21
124.156
  0
LINE
  8
0
 10
-14.0439
 20
124.156
 11
-13.9065
 21
124.027
  0
LINE
  8
0
 10
-13.9065
 20
124.027
 11
-13.7865
 21
123.882
  0
LINE
  8
0
 10
-13.7865
 20
123.882
 11
-13.6855
 21
123.723
  0
LINE
  8
0
 10
-13.6855
 20
123.723
 11
-13.6053
 21
123.552
  0
LINE
  8
0
 10
-13.6053
 20
123.552
 11
-13.5471
 21
123.373
  0
LINE
  8
0
 10
-13.5471
 20
123.373
 11
-13.5118
 21
123.188
  0
LINE
  8
0
 10
-13.5118
 20
123.188
 11
-13.5
 21
123
  0
LINE
  8
0
 10
-13.5
 20
123
 11
-13.5118
 21
122.812
  0
LINE
  8
0
 10
-13.5118
 20
122.812
 11
-13.5471
 21
122.627
  0
LINE
  8
0
 10
-13.5471
 20
122.627
 11
-13.6053
 21
122.448
  0
LINE
  8
0
 10
-13.6053
 20
122.448
 11
-13.6855
 21
122.277
  0
LINE
  8
0
 10
-13.6855
 20
122.277
 11
-13.7865
 21
122.118
  0
LINE
  8
0
 10
-13.7865
 20
122.118
 11
-13.9065
 21
121.973
  0
LINE
  8
0
 10
-13.9065
 20
121.973
 11
-14.0439
 21
121.844
  0
LINE
  8
0
 10
-14.0439
 20
121.844
 11
-14.1963
 21
121.734
  0
LINE
  8
0
 10
-14.1963
 20
121.734
 11
-14.3613
 21
121.643
  0
LINE
  8
0
 10
-14.3613
 20
121.643
 11
-14.5365
 21
121.573
  0
LINE
  8
0
 10
-14.5365
 20
121.573
 11
-14.7189
 21
121.527
  0
LINE
  8
0
 10
-14.7189
 20
121.527
 11
-14.9058
 21
121.503
  0
LINE
  8
0
 10
-14.9058
 20
121.503
 11
-15.0942
 21
121.503
  0
LINE
  8
0
 10
14.9058
 20
91.503
 11
14.7189
 21
91.5266
  0
LINE
  8
0
 10
14.7189
 20
91.5266
 11
14.5365
 21
91.5734
  0
LINE
  8
0
 10
14.5365
 20
91.5734
 11
14.3613
 21
91.6428
  0
LINE
  8
0
 10
14.3613
 20
91.6428
 11
14.1963
 21
91.7335
  0
LINE
  8
0
 10
14.1963
 20
91.7335
 11
14.0439
 21
91.8442
  0
LINE
  8
0
 10
14.0439
 20
91.8442
 11
13.9065
 21
91.9732
  0
LINE
  8
0
 10
13.9065
 20
91.9732
 11
13.7865
 21
92.1183
  0
LINE
  8
0
 10
13.7865
 20
92.1183
 11
13.6855
 21
92.2774
  0
LINE
  8
0
 10
13.6855
 20
92.2774
 11
13.6053
 21
92.4478
  0
LINE
  8
0
 10
13.6053
 20
92.4478
 11
13.5471
 21
92.627
  0
LINE
  8
0
 10
13.5471
 20
92.627
 11
13.5118
 21
92.812
  0
LINE
  8
0
 10
13.5118
 20
92.812
 11
13.5
 21
93
  0
LINE
  8
0
 10
13.5
 20
93
 11
13.5118
 21
93.188
  0
LINE
  8
0
 10
13.5118
 20
93.188
 11
13.5471
 21
93.373
  0
LINE
  8
0
 10
13.5471
 20
93.373
 11
13.6053
 21
93.5522
  0
LINE
  8
0
 10
13.6053
 20
93.5522
 11
13.6855
 21
93.7226
  0
LINE
  8
0
 10
13.6855
 20
93.7226
 11
13.7865
 21
93.8817
  0
LINE
  8
0
 10
13.7865
 20
93.8817
 11
13.9065
 21
94.0268
  0
LINE
  8
0
 10
13.9065
 20
94.0268
 11
14.0439
 21
94.1558
  0
LINE
  8
0
 10
14.0439
 20
94.1558
 11
14.1963
 21
94.2665
  0
LINE
  8
0
 10
14.1963
 20
94.2665
 11
14.3613
 21
94.3573
  0
LINE
  8
0
 10
14.3613
 20
94.3573
 11
14.5365
 21
94.4266
  0
LINE
  8
0
 10
14.5365
 20
94.4266
 11
14.7189
 21
94.4734
  0
LINE
  8
0
 10
14.7189
 20
94.4734
 11
14.9058
 21
94.4971
  0
LINE
  8
0
 10
14.9058
 20
94.4971
 11
15.0942
 21
94.4971
  0
LINE
  8
0
 10
15.0942
 20
94.4971
 11
15.2811
 21
94.4734
  0
LINE
  8
0
 10
15.2811
 20
94.4734
 11
15.4635
 21
94.4266
  0
LINE
  8
0
 10
15.4635
 20
94.4266
 11
15.6387
 21
94.3573
  0
LINE
  8
0
 10
15.6387
 20
94.3573
 11
15.8037
 21
94.2665
  0
LINE
  8
0
 10
15.8037
 20
94.2665
 11
15.9561
 21
94.1558
  0
LINE
  8
0
 10
15.9561
 20
94.1558
 11
16.0934
 21
94.0268
  0
LINE
  8
0
 10
16.0934
 20
94.0268
 11
16.2135
 21
93.8817
  0
LINE
  8
0
 10
16.2135
 20
93.8817
 11
16.3145
 21
93.7226
  0
LINE
  8
0
 10
16.3145
 20
93.7226
 11
16.3947
 21
93.5522
  0
LINE
  8
0
 10
16.3947
 20
93.5522
 11
16.4529
 21
93.373
  0
LINE
  8
0
 10
16.4529
 20
93.373
 11
16.4882
 21
93.188
  0
LINE
  8
0
 10
16.4882
 20
93.188
 11
16.5
 21
93
  0
LINE
  8
0
 10
16.5
 20
93
 11
16.4882
 21
92.812
  0
LINE
  8
0
 10
16.4882
 20
92.812
 11
16.4529
 21
92.627
  0
LINE
  8
0
 10
16.4529
 20
92.627
 11
16.3947
 21
92.4478
  0
LINE
  8
0
 10
16.3947
 20
92.4478
 11
16.3145
 21
92.2774
  0
LINE
  8
0
 10
16.3145
 20
92.2774
 11
16.2135
 21
92.1183
  0
LINE
  8
0
 10
16.2135
 20
92.1183
 11
16.0934
 21
91.9732
  0
LINE
  8
0
 10
16.0934
 20
91.9732
 11
15.9561
 21
91.8442
  0
LINE
  8
0
 10
15.9561
 20
91.8442
 11
15.8037
 21
91.7335
  0
LINE
  8
0
 10
15.8037
 20
91.7335
 11
15.6387
 21
91.6428
  0
LINE
  8
0
 10
15.6387
 20
91.6428
 11
15.4635
 21
91.5734
  0
LINE
  8
0
 10
15.4635
 20
91.5734
 11
15.2811
 21
91.5266
  0
LINE
  8
0
 10
15.2811
 20
91.5266
 11
15.0942
 21
91.503
  0
LINE
  8
0
 10
15.0942
 20
91.503
 11
14.9058
 21
91.503
  0
LINE
  8
0
 10
-15.0942
 20
91.503
 11
-15.2811
 21
91.5266
  0
LINE
  8
0
 10
-15.2811
 20
91.5266
 11
-15.4635
 21
91.5734
  0
LINE
  8
0
 10
-15.4635
 20
91.5734
 11
-15.6387
 21
91.6428
  0
LINE
  8
0
 10
-15.6387
 20
91.6428
 11
-15.8037
 21
91.7335
  0
LINE
  8
0
 10
-15.8037
 20
91.7335
 11
-15.9561
 21
91.8442
  0
LINE
  8
0
 10
-15.9561
 20
91.8442
 11
-16.0934
 21
91.9732
  0
LINE
  8
0
 10
-16.0934
 20
91.9732
 11
-16.2135
 21
92.1183
  0
LINE
  8
0
 10
-16.2135
 20
92.1183
 11
-16.3145
 21
92.2774
  0
LINE
  8
0
 10
-16.3145
 20
92.2774
 11
-16.3947
 21
92.4478
  0
LINE
  8
0
 10
-16.3947
 20
92.4478
 11
-16.4529
 21
92.627
  0
LINE
  8
0
 10
-16.4529
 20
92.627
 11
-16.4882
 21
92.812
  0
LINE
  8
0
 10
-16.4882
 20
92.812
 11
-16.5
 21
93
  0
LINE
  8
0
 10
-16.5
 20
93
 11
-16.4882
 21
93.188
  0
LINE
  8
0
 10
-16.4882
 20
93.188
 11
-16.4529
 21
93.373
  0
LINE
  8
0
 10
-16.4529
 20
93.373
 11
-16.3947
 21
93.5522
  0
LINE
  8
0
 10
-16.3947
 20
93.5522
 11
-16.3145
 21
93.7226
  0
LINE
  8
0
 10
-16.3145
 20
93.7226
 11
-16.2135
 21
93.8817
  0
LINE
  8
0
 10
-16.2135
 20
93.8817
 11
-16.0934
 21
94.0268
  0
LINE
  8
0
 10
-16.0934
 20
94.0268
 11
-15.9561
 21
94.1558
  0
LINE
  8
0
 10
-15.9561
 20
94.1558
 11
-15.8037
 21
94.2665
  0
LINE
  8
0
 10
-15.8037
 20
94.2665
 11
-15.6387
 21
94.3573
  0
LINE
  8
0
 10
-15.6387
 20
94.3573
 11
-15.4635
 21
94.4266
  0
LINE
  8
0
 10
-15.4635
 20
94.4266
 11
-15.2811
 21
94.4734
  0
LINE
  8
0
 10
-15.2811
 20
94.4734
 11
-15.0942
 21
94.4971
  0
LINE
  8
0
 10
-15.0942
 20
94.4971
 11
-14.9058
 21
94.4971
  0
LINE
  8
0
 10
-14.9058
 20
94.4971
 11
-14.7189
 21
94.4734
  0
LINE
  8
0
 10
-14.7189
 20
94.4734
 11
-14.5365
 21
94.4266
  0
LINE
  8
0
 10
-14.5365
 20
94.4266
 11
-14.3613
 21
94.3573
  0
LINE
  8
0
 10
-14.3613
 20
94.3573
 11
-14.1963
 21
94.2665
  0
LINE
  8
0
 10
-14.1963
 20
94.2665
 11
-14.0439
 21
94.1558
  0
LINE
  8
0
 10
-14.0439
 20
94.1558
 11
-13.9065
 21
94.0268
  0
LINE
  8
0
 10
-13.9065
 20
94.0268
 11
-13.7865
 21
93.8817
  0
LINE
  8
0
 10
-13.7865
 20
93.8817
 11
-13.6855
 21
93.7226
  0
LINE
  8
0
 10
-13.6855
 20
93.7226
 11
-13.6053
 21
93.5522
  0
LINE
  8
0
 10
-13.6053
 20
93.5522
 11
-13.5471
 21
93.373
  0
LINE
  8
0
 10
-13.5471
 20
93.373
 11
-13.5118
 21
93.188
  0
LINE
  8
0
 10
-13.5118
 20
93.188
 11
-13.5
 21
93
  0
LINE
  8
0
 10
-13.5
 20
93
 11
-13.5118
 21
92.812
  0
LINE
  8
0
 10
-13.5118
 20
92.812
 11
-13.5471
 21
92.627
  0
LINE
  8
0
 10
-13.5471
 20
92.627
 11
-13.6053
 21
92.4478
  0
LINE
  8
0
 10
-13.6053
 20
92.4478
 11
-13.6855
 21
92.2774
  0
LINE
  8
0
 10
-13.6855
 20
92.2774
 11
-13.7865
 21
92.1183
  0
LINE
  8
0
 10
-13.7865
 20
92.1183
 11
-13.9065
 21
91.9732
  0
LINE
  8
0
 10
-13.9065
 20
91.9732
 11
-14.0439
 21
91.8442
  0
LINE
  8
0
 10
-14.0439
 20
91.8442
 11
-14.1963
 21
91.7335
  0
LINE
  8
0
 10
-14.1963
 20
91.7335
 11
-14.3613
 21
91.6428
  0
LINE
  8
0
 10
-14.3613
 20
91.6428
 11
-14.5365
 21
91.5734
  0
LINE
  8
0
 10
-14.5365
 20
91.5734
 11
-14.7189
 21
91.5266
  0
LINE
  8
0
 10
-14.7189
 20
91.5266
 11
-14.9058
 21
91.503
  0
LINE
  8
0
 10
-14.9058
 20
91.503
 11
-15.0942
 21
91.503
  0
ENDSEC
  0
SECTION
  2
OBJECTS
  0
DICTIONARY
  0
ENDSEC
  0
EOF
