<?xml version="1.0" standalone="no"?>
<!DOCTYPE svg PUBLIC "-//W3C//DTD SVG 1.1//EN" "http://www.w3.org/Graphics/SVG/1.1/DTD/svg11.dtd">
<svg width="158mm" height="32mm" viewBox="-79 -52 158 32" xmlns="http://www.w3.org/2000/svg" version="1.1">
<title>OpenSCAD Model</title>
<path d="
M 76.4684,-44.5443 L 76.7725,-44.6224 L 77.0644,-44.7379 L 77.3396,-44.8892 L 77.5936,-45.0737 L 77.8224,-45.2886
 L 78.0225,-45.5305 L 78.1908,-45.7956 L 78.3244,-46.0797 L 78.4214,-46.3783 L 78.4803,-46.6867 L 78.5,-47
 L 78.5,-49 L 78.4803,-49.3133 L 78.4214,-49.6217 L 78.3244,-49.9203 L 78.1908,-50.2044 L 78.0225,-50.4695
 L 77.8224,-50.7114 L 77.5936,-50.9263 L 77.3396,-51.1108 L 77.0644,-51.2621 L 76.7725,-51.3776 L 76.4684,-51.4557
 L 76.157,-51.4951 L -76.157,-51.4951 L -76.4684,-51.4557 L -76.7725,-51.3776 L -77.0644,-51.2621 L -77.3396,-51.1108
 L -77.5936,-50.9263 L -77.8224,-50.7114 L -78.0225,-50.4695 L -78.1908,-50.2044 L -78.3244,-49.9203 L -78.4214,-49.6217
 L -78.4803,-49.3133 L -78.5,-49 L -78.5,-47 L -78.4803,-46.6867 L -78.4214,-46.3783 L -78.3244,-46.0797
 L -78.1908,-45.7956 L -78.0225,-45.5305 L -77.8224,-45.2886 L -77.5936,-45.0737 L -77.3396,-44.8892 L -77.0644,-44.7379
 L -76.7725,-44.6224 L -76.4684,-44.5443 L -76.157,-44.5049 L 76.157,-44.5049 z
M 14.9058,-46.503 L 14.7189,-46.5266 L 14.5365,-46.5734 L 14.3613,-46.6428 L 14.1963,-46.7335 L 14.0439,-46.8442
 L 13.9065,-46.9732 L 13.7865,-47.1183 L 13.6855,-47.2774 L 13.6053,-47.4478 L 13.5471,-47.627 L 13.5118,-47.812
 L 13.5,-48 L 13.5118,-48.188 L 13.5471,-48.373 L 13.6053,-48.5522 L 13.6855,-48.7226 L 13.7865,-48.8817
 L 13.9065,-49.0268 L 14.0439,-49.1558 L 14.1963,-49.2665 L 14.3613,-49.3572 L 14.5365,-49.4266 L 14.7189,-49.4734
 L 14.9058,-49.497 L 15.0942,-49.497 L 15.2811,-49.4734 L 15.4635,-49.4266 L 15.6387,-49.3572 L 15.8037,-49.2665
 L 15.9561,-49.1558 L 16.0934,-49.0268 L 16.2135,-48.8817 L 16.3145,-48.7226 L 16.3947,-48.5522 L 16.4529,-48.373
 L 16.4882,-48.188 L 16.5,-48 L 16.4882,-47.812 L 16.4529,-47.627 L 16.3947,-47.4478 L 16.3145,-47.2774
 L 16.2135,-47.1183 L 16.0934,-46.9732 L 15.9561,-46.8442 L 15.8037,-46.7335 L 15.6387,-46.6428 L 15.4635,-46.5734
 L 15.2811,-46.5266 L 15.0942,-46.503 z
M 29.9058,-46.503 L 29.7189,-46.5266 L 29.5365,-46.5734 L 29.3613,-46.6428 L 29.1963,-46.7335 L 29.0439,-46.8442
 L 28.9065,-46.9732 L 28.7865,-47.1183 L 28.6855,-47.2774 L 28.6053,-47.4478 L 28.5471,-47.627 L 28.5118,-47.812
 L 28.5,-48 L 28.5118,-48.188 L 28.5471,-48.373 L 28.6053,-48.5522 L 28.6855,-48.7226 L 28.7865,-48.8817
 L 28.9065,-49.0268 L 29.0439,-49.1558 L 29.1963,-49.2665 L 29.3613,-49.3572 L 29.5365,-49.4266 L 29.7189,-49.4734
 L 29.9058,-49.497 L 30.0942,-49.497 L 30.2811,-49.4734 L 30.4635,-49.4266 L 30.6387,-49.3572 L 30.8037,-49.2665
 L 30.9561,-49.1558 L 31.0934,-49.0268 L 31.2135,-48.8817 L 31.3145,-48.7226 L 31.3947,-48.5522 L 31.4529,-48.373
 L 31.4882,-48.188 L 31.5,-48 L 31.4882,-47.812 L 31.4529,-47.627 L 31.3947,-47.4478 L 31.3145,-47.2774
 L 31.2135,-47.1183 L 31.0934,-46.9732 L 30.9561,-46.8442 L 30.8037,-46.7335 L 30.6387,-46.6428 L 30.4635,-46.5734
 L 30.2811,-46.5266 L 30.0942,-46.503 z
M -30.0942,-46.503 L -30.2811,-46.5266 L -30.4635,-46.5734 L -30.6387,-46.6428 L -30.8037,-46.7335 L -30.9561,-46.8442
 L -31.0934,-46.9732 L -31.2135,-47.1183 L -31.3145,-47.2774 L -31.3947,-47.4478 L -31.4529,-47.627 L -31.4882,-47.812
 L -31.5,-48 L -31.4882,-48.188 L -31.4529,-48.373 L -31.3947,-48.5522 L -31.3145,-48.7226 L -31.2135,-48.8817
 L -31.0934,-49.0268 L -30.9561,-49.1558 L -30.8037,-49.2665 L -30.6387,-49.3572 L -30.4635,-49.4266 L -30.2811,-49.4734
 L -30.0942,-49.497 L -29.9058,-49.497 L -29.7189,-49.4734 L -29.5365,-49.4266 L -29.3613,-49.3572 L -29.1963,-49.2665
 L -29.0439,-49.1558 L -28.9065,-49.0268 L -28.7865,-48.8817 L -28.6855,-48.7226 L -28.6053,-48.5522 L -28.5471,-48.373
 L -28.5118,-48.188 L -28.5,-48 L -28.5118,-47.812 L -28.5471,-47.627 L -28.6053,-47.4478 L -28.6855,-47.2774
 L -28.7865,-47.1183 L -28.9065,-46.9732 L -29.0439,-46.8442 L -29.1963,-46.7335 L -29.3613,-46.6428 L -29.5365,-46.5734
 L -29.7189,-46.5266 L -29.9058,-46.503 z
M -0.0941772,-46.503 L -0.281067,-46.5266 L -0.463516,-46.5734 L -0.638657,-46.6428 L -0.803726,-46.7335 L -0.956131,-46.8442
 L -1.09344,-46.9732 L -1.21352,-47.1183 L -1.31445,-47.2774 L -1.39465,-47.4478 L -1.45287,-47.627 L -1.48816,-47.812
 L -1.5,-48 L -1.48816,-48.188 L -1.45287,-48.373 L -1.39465,-48.5522 L -1.31445,-48.7226 L -1.21352,-48.8817
 L -1.09344,-49.0268 L -0.956131,-49.1558 L -0.803726,-49.2665 L -0.638657,-49.3572 L -0.463516,-49.4266 L -0.281067,-49.4734
 L -0.0941772,-49.497 L 0.0941772,-49.497 L 0.281067,-49.4734 L 0.463516,-49.4266 L 0.638657,-49.3572 L 0.803726,-49.2665
 L 0.956131,-49.1558 L 1.09344,-49.0268 L 1.21352,-48.8817 L 1.31445,-48.7226 L 1.39465,-48.5522 L 1.45287,-48.373
 L 1.48816,-48.188 L 1.5,-48 L 1.48816,-47.812 L 1.45287,-47.627 L 1.39465,-47.4478 L 1.31445,-47.2774
 L 1.21352,-47.1183 L 1.09344,-46.9732 L 0.956131,-46.8442 L 0.803726,-46.7335 L 0.638657,-46.6428 L 0.463516,-46.5734
 L 0.281067,-46.5266 L 0.0941772,-46.503 z
M 7.40581,-46.503 L 7.21892,-46.5266 L 7.03647,-46.5734 L 6.86133,-46.6428 L 6.69626,-46.7335 L 6.54385,-46.8442
 L 6.40654,-46.9732 L 6.28647,-47.1183 L 6.18553,-47.2774 L 6.10533,-47.4478 L 6.04712,-47.627 L 6.01183,-47.812
 L 6,-48 L 6.01183,-48.188 L 6.04712,-48.373 L 6.10533,-48.5522 L 6.18553,-48.7226 L 6.28647,-48.8817
 L 6.40654,-49.0268 L 6.54385,-49.1558 L 6.69626,-49.2665 L 6.86133,-49.3572 L 7.03647,-49.4266 L 7.21892,-49.4734
 L 7.40581,-49.497 L 7.59418,-49.497 L 7.78107,-49.4734 L 7.96352,-49.4266 L 8.13866,-49.3572 L 8.30373,-49.2665
 L 8.45613,-49.1558 L 8.59344,-49.0268 L 8.71352,-48.8817 L 8.81445,-48.7226 L 8.89465,-48.5522 L 8.95287,-48.373
 L 8.98816,-48.188 L 9,-48 L 8.98816,-47.812 L 8.95287,-47.627 L 8.89465,-47.4478 L 8.81445,-47.2774
 L 8.71352,-47.1183 L 8.59344,-46.9732 L 8.45613,-46.8442 L 8.30373,-46.7335 L 8.13866,-46.6428 L 7.96352,-46.5734
 L 7.78107,-46.5266 L 7.59418,-46.503 z
M -45.0942,-46.503 L -45.2811,-46.5266 L -45.4635,-46.5734 L -45.6387,-46.6428 L -45.8037,-46.7335 L -45.9561,-46.8442
 L -46.0934,-46.9732 L -46.2135,-47.1183 L -46.3145,-47.2774 L -46.3947,-47.4478 L -46.4529,-47.627 L -46.4882,-47.812
 L -46.5,-48 L -46.4882,-48.188 L -46.4529,-48.373 L -46.3947,-48.5522 L -46.3145,-48.7226 L -46.2135,-48.8817
 L -46.0934,-49.0268 L -45.9561,-49.1558 L -45.8037,-49.2665 L -45.6387,-49.3572 L -45.4635,-49.4266 L -45.2811,-49.4734
 L -45.0942,-49.497 L -44.9058,-49.497 L -44.7189,-49.4734 L -44.5365,-49.4266 L -44.3613,-49.3572 L -44.1963,-49.2665
 L -44.0439,-49.1558 L -43.9065,-49.0268 L -43.7865,-48.8817 L -43.6855,-48.7226 L -43.6053,-48.5522 L -43.5471,-48.373
 L -43.5118,-48.188 L -43.5,-48 L -43.5118,-47.812 L -43.5471,-47.627 L -43.6053,-47.4478 L -43.6855,-47.2774
 L -43.7865,-47.1183 L -43.9065,-46.9732 L -44.0439,-46.8442 L -44.1963,-46.7335 L -44.3613,-46.6428 L -44.5365,-46.5734
 L -44.7189,-46.5266 L -44.9058,-46.503 z
M -37.5942,-46.503 L -37.7811,-46.5266 L -37.9635,-46.5734 L -38.1387,-46.6428 L -38.3037,-46.7335 L -38.4561,-46.8442
 L -38.5934,-46.9732 L -38.7135,-47.1183 L -38.8145,-47.2774 L -38.8947,-47.4478 L -38.9529,-47.627 L -38.9882,-47.812
 L -39,-48 L -38.9882,-48.188 L -38.9529,-48.373 L -38.8947,-48.5522 L -38.8145,-48.7226 L -38.7135,-48.8817
 L -38.5934,-49.0268 L -38.4561,-49.1558 L -38.3037,-49.2665 L -38.1387,-49.3572 L -37.9635,-49.4266 L -37.7811,-49.4734
 L -37.5942,-49.497 L -37.4058,-49.497 L -37.2189,-49.4734 L -37.0365,-49.4266 L -36.8613,-49.3572 L -36.6963,-49.2665
 L -36.5439,-49.1558 L -36.4065,-49.0268 L -36.2865,-48.8817 L -36.1855,-48.7226 L -36.1053,-48.5522 L -36.0471,-48.373
 L -36.0118,-48.188 L -36,-48 L -36.0118,-47.812 L -36.0471,-47.627 L -36.1053,-47.4478 L -36.1855,-47.2774
 L -36.2865,-47.1183 L -36.4065,-46.9732 L -36.5439,-46.8442 L -36.6963,-46.7335 L -36.8613,-46.6428 L -37.0365,-46.5734
 L -37.2189,-46.5266 L -37.4058,-46.503 z
M -22.5942,-46.503 L -22.7811,-46.5266 L -22.9635,-46.5734 L -23.1387,-46.6428 L -23.3037,-46.7335 L -23.4561,-46.8442
 L -23.5934,-46.9732 L -23.7135,-47.1183 L -23.8145,-47.2774 L -23.8947,-47.4478 L -23.9529,-47.627 L -23.9882,-47.812
 L -24,-48 L -23.9882,-48.188 L -23.9529,-48.373 L -23.8947,-48.5522 L -23.8145,-48.7226 L -23.7135,-48.8817
 L -23.5934,-49.0268 L -23.4561,-49.1558 L -23.3037,-49.2665 L -23.1387,-49.3572 L -22.9635,-49.4266 L -22.7811,-49.4734
 L -22.5942,-49.497 L -22.4058,-49.497 L -22.2189,-49.4734 L -22.0365,-49.4266 L -21.8613,-49.3572 L -21.6963,-49.2665
 L -21.5439,-49.1558 L -21.4065,-49.0268 L -21.2865,-48.8817 L -21.1855,-48.7226 L -21.1053,-48.5522 L -21.0471,-48.373
 L -21.0118,-48.188 L -21,-48 L -21.0118,-47.812 L -21.0471,-47.627 L -21.1053,-47.4478 L -21.1855,-47.2774
 L -21.2865,-47.1183 L -21.4065,-46.9732 L -21.5439,-46.8442 L -21.6963,-46.7335 L -21.8613,-46.6428 L -22.0365,-46.5734
 L -22.2189,-46.5266 L -22.4058,-46.503 z
M -15.0942,-46.503 L -15.2811,-46.5266 L -15.4635,-46.5734 L -15.6387,-46.6428 L -15.8037,-46.7335 L -15.9561,-46.8442
 L -16.0934,-46.9732 L -16.2135,-47.1183 L -16.3145,-47.2774 L -16.3947,-47.4478 L -16.4529,-47.627 L -16.4882,-47.812
 L -16.5,-48 L -16.4882,-48.188 L -16.4529,-48.373 L -16.3947,-48.5522 L -16.3145,-48.7226 L -16.2135,-48.8817
 L -16.0934,-49.0268 L -15.9561,-49.1558 L -15.8037,-49.2665 L -15.6387,-49.3572 L -15.4635,-49.4266 L -15.2811,-49.4734
 L -15.0942,-49.497 L -14.9058,-49.497 L -14.7189,-49.4734 L -14.5365,-49.4266 L -14.3613,-49.3572 L -14.1963,-49.2665
 L -14.0439,-49.1558 L -13.9065,-49.0268 L -13.7865,-48.8817 L -13.6855,-48.7226 L -13.6053,-48.5522 L -13.5471,-48.373
 L -13.5118,-48.188 L -13.5,-48 L -13.5118,-47.812 L -13.5471,-47.627 L -13.6053,-47.4478 L -13.6855,-47.2774
 L -13.7865,-47.1183 L -13.9065,-46.9732 L -14.0439,-46.8442 L -14.1963,-46.7335 L -14.3613,-46.6428 L -14.5365,-46.5734
 L -14.7189,-46.5266 L -14.9058,-46.503 z
M -67.5942,-46.503 L -67.7811,-46.5266 L -67.9635,-46.5734 L -68.1387,-46.6428 L -68.3037,-46.7335 L -68.4561,-46.8442
 L -68.5934,-46.9732 L -68.7135,-47.1183 L -68.8145,-47.2774 L -68.8947,-47.4478 L -68.9529,-47.627 L -68.9882,-47.812
 L -69,-48 L -68.9882,-48.188 L -68.9529,-48.373 L -68.8947,-48.5522 L -68.8145,-48.7226 L -68.7135,-48.8817
 L -68.5934,-49.0268 L -68.4561,-49.1558 L -68.3037,-49.2665 L -68.1387,-49.3572 L -67.9635,-49.4266 L -67.7811,-49.4734
 L -67.5942,-49.497 L -67.4058,-49.497 L -67.2189,-49.4734 L -67.0365,-49.4266 L -66.8613,-49.3572 L -66.6963,-49.2665
 L -66.5439,-49.1558 L -66.4065,-49.0268 L -66.2865,-48.8817 L -66.1855,-48.7226 L -66.1053,-48.5522 L -66.0471,-48.373
 L -66.0118,-48.188 L -66,-48 L -66.0118,-47.812 L -66.0471,-47.627 L -66.1053,-47.4478 L -66.1855,-47.2774
 L -66.2865,-47.1183 L -66.4065,-46.9732 L -66.5439,-46.8442 L -66.6963,-46.7335 L -66.8613,-46.6428 L -67.0365,-46.5734
 L -67.2189,-46.5266 L -67.4058,-46.503 z
M -75.0942,-46.503 L -75.2811,-46.5266 L -75.4635,-46.5734 L -75.6387,-46.6428 L -75.8037,-46.7335 L -75.9561,-46.8442
 L -76.0934,-46.9732 L -76.2135,-47.1183 L -76.3145,-47.2774 L -76.3947,-47.4478 L -76.4529,-47.627 L -76.4882,-47.812
 L -76.5,-48 L -76.4882,-48.188 L -76.4529,-48.373 L -76.3947,-48.5522 L -76.3145,-48.7226 L -76.2135,-48.8817
 L -76.0934,-49.0268 L -75.9561,-49.1558 L -75.8037,-49.2665 L -75.6387,-49.3572 L -75.4635,-49.4266 L -75.2811,-49.4734
 L -75.0942,-49.497 L -74.9058,-49.497 L -74.7189,-49.4734 L -74.5365,-49.4266 L -74.3613,-49.3572 L -74.1963,-49.2665
 L -74.0439,-49.1558 L -73.9065,-49.0268 L -73.7865,-48.8817 L -73.6855,-48.7226 L -73.6053,-48.5522 L -73.5471,-48.373
 L -73.5118,-48.188 L -73.5,-48 L -73.5118,-47.812 L -73.5471,-47.627 L -73.6053,-47.4478 L -73.6855,-47.2774
 L -73.7865,-47.1183 L -73.9065,-46.9732 L -74.0439,-46.8442 L -74.1963,-46.7335 L -74.3613,-46.6428 L -74.5365,-46.5734
 L -74.7189,-46.5266 L -74.9058,-46.503 z
M 67.4058,-46.503 L 67.2189,-46.5266 L 67.0365,-46.5734 L 66.8613,-46.6428 L 66.6963,-46.7335 L 66.5439,-46.8442
 L 66.4065,-46.9732 L 66.2865,-47.1183 L 66.1855,-47.2774 L 66.1053,-47.4478 L 66.0471,-47.627 L 66.0118,-47.812
 L 66,-48 L 66.0118,-48.188 L 66.0471,-48.373 L 66.1053,-48.5522 L 66.1855,-48.7226 L 66.2865,-48.8817
 L 66.4065,-49.0268 L 66.5439,-49.1558 L 66.6963,-49.2665 L 66.8613,-49.3572 L 67.0365,-49.4266 L 67.2189,-49.4734
 L 67.4058,-49.497 L 67.5942,-49.497 L 67.7811,-49.4734 L 67.9635,-49.4266 L 68.1387,-49.3572 L 68.3037,-49.2665
 L 68.4561,-49.1558 L 68.5934,-49.0268 L 68.7135,-48.8817 L 68.8145,-48.7226 L 68.8947,-48.5522 L 68.9529,-48.373
 L 68.9882,-48.188 L 69,-48 L 68.9882,-47.812 L 68.9529,-47.627 L 68.8947,-47.4478 L 68.8145,-47.2774
 L 68.7135,-47.1183 L 68.5934,-46.9732 L 68.4561,-46.8442 L 68.3037,-46.7335 L 68.1387,-46.6428 L 67.9635,-46.5734
 L 67.7811,-46.5266 L 67.5942,-46.503 z
M 74.9058,-46.503 L 74.7189,-46.5266 L 74.5365,-46.5734 L 74.3613,-46.6428 L 74.1963,-46.7335 L 74.0439,-46.8442
 L 73.9065,-46.9732 L 73.7865,-47.1183 L 73.6855,-47.2774 L 73.6053,-47.4478 L 73.5471,-47.627 L 73.5118,-47.812
 L 73.5,-48 L 73.5118,-48.188 L 73.5471,-48.373 L 73.6053,-48.5522 L 73.6855,-48.7226 L 73.7865,-48.8817
 L 73.9065,-49.0268 L 74.0439,-49.1558 L 74.1963,-49.2665 L 74.3613,-49.3572 L 74.5365,-49.4266 L 74.7189,-49.4734
 L 74.9058,-49.497 L 75.0942,-49.497 L 75.2811,-49.4734 L 75.4635,-49.4266 L 75.6387,-49.3572 L 75.8037,-49.2665
 L 75.9561,-49.1558 L 76.0934,-49.0268 L 76.2135,-48.8817 L 76.3145,-48.7226 L 76.3947,-48.5522 L 76.4529,-48.373
 L 76.4882,-48.188 L 76.5,-48 L 76.4882,-47.812 L 76.4529,-47.627 L 76.3947,-47.4478 L 76.3145,-47.2774
 L 76.2135,-47.1183 L 76.0934,-46.9732 L 75.9561,-46.8442 L 75.8037,-46.7335 L 75.6387,-46.6428 L 75.4635,-46.5734
 L 75.2811,-46.5266 L 75.0942,-46.503 z
M -7.59418,-46.503 L -7.78107,-46.5266 L -7.96352,-46.5734 L -8.13866,-46.6428 L -8.30373,-46.7335 L -8.45613,-46.8442
 L -8.59344,-46.9732 L -8.71352,-47.1183 L -8.81445,-47.2774 L -8.89465,-47.4478 L -8.95287,-47.627 L -8.98816,-47.812
 L -9,-48 L -8.98816,-48.188 L -8.95287,-48.373 L -8.89465,-48.5522 L -8.81445,-48.7226 L -8.71352,-48.8817
 L -8.59344,-49.0268 L -8.45613,-49.1558 L -8.30373,-49.2665 L -8.13866,-49.3572 L -7.96352,-49.4266 L -7.78107,-49.4734
 L -7.59418,-49.497 L -7.40581,-49.497 L -7.21892,-49.4734 L -7.03647,-49.4266 L -6.86133,-49.3572 L -6.69626,-49.2665
 L -6.54385,-49.1558 L -6.40654,-49.0268 L -6.28647,-48.8817 L -6.18553,-48.7226 L -6.10533,-48.5522 L -6.04712,-48.373
 L -6.01183,-48.188 L -6,-48 L -6.01183,-47.812 L -6.04712,-47.627 L -6.10533,-47.4478 L -6.18553,-47.2774
 L -6.28647,-47.1183 L -6.40654,-46.9732 L -6.54385,-46.8442 L -6.69626,-46.7335 L -6.86133,-46.6428 L -7.03647,-46.5734
 L -7.21892,-46.5266 L -7.40581,-46.503 z
M 37.4058,-46.503 L 37.2189,-46.5266 L 37.0365,-46.5734 L 36.8613,-46.6428 L 36.6963,-46.7335 L 36.5439,-46.8442
 L 36.4065,-46.9732 L 36.2865,-47.1183 L 36.1855,-47.2774 L 36.1053,-47.4478 L 36.0471,-47.627 L 36.0118,-47.812
 L 36,-48 L 36.0118,-48.188 L 36.0471,-48.373 L 36.1053,-48.5522 L 36.1855,-48.7226 L 36.2865,-48.8817
 L 36.4065,-49.0268 L 36.5439,-49.1558 L 36.6963,-49.2665 L 36.8613,-49.3572 L 37.0365,-49.4266 L 37.2189,-49.4734
 L 37.4058,-49.497 L 37.5942,-49.497 L 37.7811,-49.4734 L 37.9635,-49.4266 L 38.1387,-49.3572 L 38.3037,-49.2665
 L 38.4561,-49.1558 L 38.5934,-49.0268 L 38.7135,-48.8817 L 38.8145,-48.7226 L 38.8947,-48.5522 L 38.9529,-48.373
 L 38.9882,-48.188 L 39,-48 L 38.9882,-47.812 L 38.9529,-47.627 L 38.8947,-47.4478 L 38.8145,-47.2774
 L 38.7135,-47.1183 L 38.5934,-46.9732 L 38.4561,-46.8442 L 38.3037,-46.7335 L 38.1387,-46.6428 L 37.9635,-46.5734
 L 37.7811,-46.5266 L 37.5942,-46.503 z
M 44.9058,-46.503 L 44.7189,-46.5266 L 44.5365,-46.5734 L 44.3613,-46.6428 L 44.1963,-46.7335 L 44.0439,-46.8442
 L 43.9065,-46.9732 L 43.7865,-47.1183 L 43.6855,-47.2774 L 43.6053,-47.4478 L 43.5471,-47.627 L 43.5118,-47.812
 L 43.5,-48 L 43.5118,-48.188 L 43.5471,-48.373 L 43.6053,-48.5522 L 43.6855,-48.7226 L 43.7865,-48.8817
 L 43.9065,-49.0268 L 44.0439,-49.1558 L 44.1963,-49.2665 L 44.3613,-49.3572 L 44.5365,-49.4266 L 44.7189,-49.4734
 L 44.9058,-49.497 L 45.0942,-49.497 L 45.2811,-49.4734 L 45.4635,-49.4266 L 45.6387,-49.3572 L 45.8037,-49.2665
 L 45.9561,-49.1558 L 46.0934,-49.0268 L 46.2135,-48.8817 L 46.3145,-48.7226 L 46.3947,-48.5522 L 46.4529,-48.373
 L 46.4882,-48.188 L 46.5,-48 L 46.4882,-47.812 L 46.4529,-47.627 L 46.3947,-47.4478 L 46.3145,-47.2774
 L 46.2135,-47.1183 L 46.0934,-46.9732 L 45.9561,-46.8442 L 45.8037,-46.7335 L 45.6387,-46.6428 L 45.4635,-46.5734
 L 45.2811,-46.5266 L 45.0942,-46.503 z
M 22.4058,-46.503 L 22.2189,-46.5266 L 22.0365,-46.5734 L 21.8613,-46.6428 L 21.6963,-46.7335 L 21.5439,-46.8442
 L 21.4065,-46.9732 L 21.2865,-47.1183 L 21.1855,-47.2774 L 21.1053,-47.4478 L 21.0471,-47.627 L 21.0118,-47.812
 L 21,-48 L 21.0118,-48.188 L 21.0471,-48.373 L 21.1053,-48.5522 L 21.1855,-48.7226 L 21.2865,-48.8817
 L 21.4065,-49.0268 L 21.5439,-49.1558 L 21.6963,-49.2665 L 21.8613,-49.3572 L 22.0365,-49.4266 L 22.2189,-49.4734
 L 22.4058,-49.497 L 22.5942,-49.497 L 22.7811,-49.4734 L 22.9635,-49.4266 L 23.1387,-49.3572 L 23.3037,-49.2665
 L 23.4561,-49.1558 L 23.5934,-49.0268 L 23.7135,-48.8817 L 23.8145,-48.7226 L 23.8947,-48.5522 L 23.9529,-48.373
 L 23.9882,-48.188 L 24,-48 L 23.9882,-47.812 L 23.9529,-47.627 L 23.8947,-47.4478 L 23.8145,-47.2774
 L 23.7135,-47.1183 L 23.5934,-46.9732 L 23.4561,-46.8442 L 23.3037,-46.7335 L 23.1387,-46.6428 L 22.9635,-46.5734
 L 22.7811,-46.5266 L 22.5942,-46.503 z
M 59.9058,-46.503 L 59.7189,-46.5266 L 59.5365,-46.5734 L 59.3613,-46.6428 L 59.1963,-46.7335 L 59.0439,-46.8442
 L 58.9065,-46.9732 L 58.7865,-47.1183 L 58.6855,-47.2774 L 58.6053,-47.4478 L 58.5471,-47.627 L 58.5118,-47.812
 L 58.5,-48 L 58.5118,-48.188 L 58.5471,-48.373 L 58.6053,-48.5522 L 58.6855,-48.7226 L 58.7865,-48.8817
 L 58.9065,-49.0268 L 59.0439,-49.1558 L 59.1963,-49.2665 L 59.3613,-49.3572 L 59.5365,-49.4266 L 59.7189,-49.4734
 L 59.9058,-49.497 L 60.0942,-49.497 L 60.2811,-49.4734 L 60.4635,-49.4266 L 60.6387,-49.3572 L 60.8037,-49.2665
 L 60.9561,-49.1558 L 61.0934,-49.0268 L 61.2135,-48.8817 L 61.3145,-48.7226 L 61.3947,-48.5522 L 61.4529,-48.373
 L 61.4882,-48.188 L 61.5,-48 L 61.4882,-47.812 L 61.4529,-47.627 L 61.3947,-47.4478 L 61.3145,-47.2774
 L 61.2135,-47.1183 L 61.0934,-46.9732 L 60.9561,-46.8442 L 60.8037,-46.7335 L 60.6387,-46.6428 L 60.4635,-46.5734
 L 60.2811,-46.5266 L 60.0942,-46.503 z
M -60.0942,-46.503 L -60.2811,-46.5266 L -60.4635,-46.5734 L -60.6387,-46.6428 L -60.8037,-46.7335 L -60.9561,-46.8442
 L -61.0934,-46.9732 L -61.2135,-47.1183 L -61.3145,-47.2774 L -61.3947,-47.4478 L -61.4529,-47.627 L -61.4882,-47.812
 L -61.5,-48 L -61.4882,-48.188 L -61.4529,-48.373 L -61.3947,-48.5522 L -61.3145,-48.7226 L -61.2135,-48.8817
 L -61.0934,-49.0268 L -60.9561,-49.1558 L -60.8037,-49.2665 L -60.6387,-49.3572 L -60.4635,-49.4266 L -60.2811,-49.4734
 L -60.0942,-49.497 L -59.9058,-49.497 L -59.7189,-49.4734 L -59.5365,-49.4266 L -59.3613,-49.3572 L -59.1963,-49.2665
 L -59.0439,-49.1558 L -58.9065,-49.0268 L -58.7865,-48.8817 L -58.6855,-48.7226 L -58.6053,-48.5522 L -58.5471,-48.373
 L -58.5118,-48.188 L -58.5,-48 L -58.5118,-47.812 L -58.5471,-47.627 L -58.6053,-47.4478 L -58.6855,-47.2774
 L -58.7865,-47.1183 L -58.9065,-46.9732 L -59.0439,-46.8442 L -59.1963,-46.7335 L -59.3613,-46.6428 L -59.5365,-46.5734
 L -59.7189,-46.5266 L -59.9058,-46.503 z
M -52.5942,-46.503 L -52.7811,-46.5266 L -52.9635,-46.5734 L -53.1387,-46.6428 L -53.3037,-46.7335 L -53.4561,-46.8442
 L -53.5934,-46.9732 L -53.7135,-47.1183 L -53.8145,-47.2774 L -53.8947,-47.4478 L -53.9529,-47.627 L -53.9882,-47.812
 L -54,-48 L -53.9882,-48.188 L -53.9529,-48.373 L -53.8947,-48.5522 L -53.8145,-48.7226 L -53.7135,-48.8817
 L -53.5934,-49.0268 L -53.4561,-49.1558 L -53.3037,-49.2665 L -53.1387,-49.3572 L -52.9635,-49.4266 L -52.7811,-49.4734
 L -52.5942,-49.497 L -52.4058,-49.497 L -52.2189,-49.4734 L -52.0365,-49.4266 L -51.8613,-49.3572 L -51.6963,-49.2665
 L -51.5439,-49.1558 L -51.4065,-49.0268 L -51.2865,-48.8817 L -51.1855,-48.7226 L -51.1053,-48.5522 L -51.0471,-48.373
 L -51.0118,-48.188 L -51,-48 L -51.0118,-47.812 L -51.0471,-47.627 L -51.1053,-47.4478 L -51.1855,-47.2774
 L -51.2865,-47.1183 L -51.4065,-46.9732 L -51.5439,-46.8442 L -51.6963,-46.7335 L -51.8613,-46.6428 L -52.0365,-46.5734
 L -52.2189,-46.5266 L -52.4058,-46.503 z
M 52.4058,-46.503 L 52.2189,-46.5266 L 52.0365,-46.5734 L 51.8613,-46.6428 L 51.6963,-46.7335 L 51.5439,-46.8442
 L 51.4065,-46.9732 L 51.2865,-47.1183 L 51.1855,-47.2774 L 51.1053,-47.4478 L 51.0471,-47.627 L 51.0118,-47.812
 L 51,-48 L 51.0118,-48.188 L 51.0471,-48.373 L 51.1053,-48.5522 L 51.1855,-48.7226 L 51.2865,-48.8817
 L 51.4065,-49.0268 L 51.5439,-49.1558 L 51.6963,-49.2665 L 51.8613,-49.3572 L 52.0365,-49.4266 L 52.2189,-49.4734
 L 52.4058,-49.497 L 52.5942,-49.497 L 52.7811,-49.4734 L 52.9635,-49.4266 L 53.1387,-49.3572 L 53.3037,-49.2665
 L 53.4561,-49.1558 L 53.5934,-49.0268 L 53.7135,-48.8817 L 53.8145,-48.7226 L 53.8947,-48.5522 L 53.9529,-48.373
 L 53.9882,-48.188 L 54,-48 L 53.9882,-47.812 L 53.9529,-47.627 L 53.8947,-47.4478 L 53.8145,-47.2774
 L 53.7135,-47.1183 L 53.5934,-46.9732 L 53.4561,-46.8442 L 53.3037,-46.7335 L 53.1387,-46.6428 L 52.9635,-46.5734
 L 52.7811,-46.5266 L 52.5942,-46.503 z
M 76.4684,-20.5443 L 76.7725,-20.6224 L 77.0644,-20.7379 L 77.3396,-20.8892 L 77.5936,-21.0737 L 77.8224,-21.2886
 L 78.0225,-21.5305 L 78.1908,-21.7956 L 78.3244,-22.0797 L 78.4214,-22.3783 L 78.4803,-22.6867 L 78.5,-23
 L 78.5,-25 L 78.4803,-25.3133 L 78.4214,-25.6217 L 78.3244,-25.9203 L 78.1908,-26.2044 L 78.0225,-26.4695
 L 77.8224,-26.7114 L 77.5936,-26.9263 L 77.3396,-27.1108 L 77.0644,-27.2621 L 76.7725,-27.3776 L 76.4684,-27.4557
 L 76.157,-27.4951 L -76.157,-27.4951 L -76.4684,-27.4557 L -76.7725,-27.3776 L -77.0644,-27.2621 L -77.3396,-27.1108
 L -77.5936,-26.9263 L -77.8224,-26.7114 L -78.0225,-26.4695 L -78.1908,-26.2044 L -78.3244,-25.9203 L -78.4214,-25.6217
 L -78.4803,-25.3133 L -78.5,-25 L -78.5,-23 L -78.4803,-22.6867 L -78.4214,-22.3783 L -78.3244,-22.0797
 L -78.1908,-21.7956 L -78.0225,-21.5305 L -77.8224,-21.2886 L -77.5936,-21.0737 L -77.3396,-20.8892 L -77.0644,-20.7379
 L -76.7725,-20.6224 L -76.4684,-20.5443 L -76.157,-20.5049 L 76.157,-20.5049 z
M -7.59418,-22.503 L -7.78107,-22.5266 L -7.96352,-22.5734 L -8.13866,-22.6428 L -8.30373,-22.7335 L -8.45613,-22.8442
 L -8.59344,-22.9732 L -8.71352,-23.1183 L -8.81445,-23.2774 L -8.89465,-23.4478 L -8.95287,-23.627 L -8.98816,-23.812
 L -9,-24 L -8.98816,-24.188 L -8.95287,-24.373 L -8.89465,-24.5522 L -8.81445,-24.7226 L -8.71352,-24.8817
 L -8.59344,-25.0268 L -8.45613,-25.1558 L -8.30373,-25.2665 L -8.13866,-25.3572 L -7.96352,-25.4266 L -7.78107,-25.4734
 L -7.59418,-25.497 L -7.40581,-25.497 L -7.21892,-25.4734 L -7.03647,-25.4266 L -6.86133,-25.3572 L -6.69626,-25.2665
 L -6.54385,-25.1558 L -6.40654,-25.0268 L -6.28647,-24.8817 L -6.18553,-24.7226 L -6.10533,-24.5522 L -6.04712,-24.373
 L -6.01183,-24.188 L -6,-24 L -6.01183,-23.812 L -6.04712,-23.627 L -6.10533,-23.4478 L -6.18553,-23.2774
 L -6.28647,-23.1183 L -6.40654,-22.9732 L -6.54385,-22.8442 L -6.69626,-22.7335 L -6.86133,-22.6428 L -7.03647,-22.5734
 L -7.21892,-22.5266 L -7.40581,-22.503 z
M -60.0942,-22.503 L -60.2811,-22.5266 L -60.4635,-22.5734 L -60.6387,-22.6428 L -60.8037,-22.7335 L -60.9561,-22.8442
 L -61.0934,-22.9732 L -61.2135,-23.1183 L -61.3145,-23.2774 L -61.3947,-23.4478 L -61.4529,-23.627 L -61.4882,-23.812
 L -61.5,-24 L -61.4882,-24.188 L -61.4529,-24.373 L -61.3947,-24.5522 L -61.3145,-24.7226 L -61.2135,-24.8817
 L -61.0934,-25.0268 L -60.9561,-25.1558 L -60.8037,-25.2665 L -60.6387,-25.3572 L -60.4635,-25.4266 L -60.2811,-25.4734
 L -60.0942,-25.497 L -59.9058,-25.497 L -59.7189,-25.4734 L -59.5365,-25.4266 L -59.3613,-25.3572 L -59.1963,-25.2665
 L -59.0439,-25.1558 L -58.9065,-25.0268 L -58.7865,-24.8817 L -58.6855,-24.7226 L -58.6053,-24.5522 L -58.5471,-24.373
 L -58.5118,-24.188 L -58.5,-24 L -58.5118,-23.812 L -58.5471,-23.627 L -58.6053,-23.4478 L -58.6855,-23.2774
 L -58.7865,-23.1183 L -58.9065,-22.9732 L -59.0439,-22.8442 L -59.1963,-22.7335 L -59.3613,-22.6428 L -59.5365,-22.5734
 L -59.7189,-22.5266 L -59.9058,-22.503 z
M 67.4058,-22.503 L 67.2189,-22.5266 L 67.0365,-22.5734 L 66.8613,-22.6428 L 66.6963,-22.7335 L 66.5439,-22.8442
 L 66.4065,-22.9732 L 66.2865,-23.1183 L 66.1855,-23.2774 L 66.1053,-23.4478 L 66.0471,-23.627 L 66.0118,-23.812
 L 66,-24 L 66.0118,-24.188 L 66.0471,-24.373 L 66.1053,-24.5522 L 66.1855,-24.7226 L 66.2865,-24.8817
 L 66.4065,-25.0268 L 66.5439,-25.1558 L 66.6963,-25.2665 L 66.8613,-25.3572 L 67.0365,-25.4266 L 67.2189,-25.4734
 L 67.4058,-25.497 L 67.5942,-25.497 L 67.7811,-25.4734 L 67.9635,-25.4266 L 68.1387,-25.3572 L 68.3037,-25.2665
 L 68.4561,-25.1558 L 68.5934,-25.0268 L 68.7135,-24.8817 L 68.8145,-24.7226 L 68.8947,-24.5522 L 68.9529,-24.373
 L 68.9882,-24.188 L 69,-24 L 68.9882,-23.812 L 68.9529,-23.627 L 68.8947,-23.4478 L 68.8145,-23.2774
 L 68.7135,-23.1183 L 68.5934,-22.9732 L 68.4561,-22.8442 L 68.3037,-22.7335 L 68.1387,-22.6428 L 67.9635,-22.5734
 L 67.7811,-22.5266 L 67.5942,-22.503 z
M -45.0942,-22.503 L -45.2811,-22.5266 L -45.4635,-22.5734 L -45.6387,-22.6428 L -45.8037,-22.7335 L -45.9561,-22.8442
 L -46.0934,-22.9732 L -46.2135,-23.1183 L -46.3145,-23.2774 L -46.3947,-23.4478 L -46.4529,-23.627 L -46.4882,-23.812
 L -46.5,-24 L -46.4882,-24.188 L -46.4529,-24.373 L -46.3947,-24.5522 L -46.3145,-24.7226 L -46.2135,-24.8817
 L -46.0934,-25.0268 L -45.9561,-25.1558 L -45.8037,-25.2665 L -45.6387,-25.3572 L -45.4635,-25.4266 L -45.2811,-25.4734
 L -45.0942,-25.497 L -44.9058,-25.497 L -44.7189,-25.4734 L -44.5365,-25.4266 L -44.3613,-25.3572 L -44.1963,-25.2665
 L -44.0439,-25.1558 L -43.9065,-25.0268 L -43.7865,-24.8817 L -43.6855,-24.7226 L -43.6053,-24.5522 L -43.5471,-24.373
 L -43.5118,-24.188 L -43.5,-24 L -43.5118,-23.812 L -43.5471,-23.627 L -43.6053,-23.4478 L -43.6855,-23.2774
 L -43.7865,-23.1183 L -43.9065,-22.9732 L -44.0439,-22.8442 L -44.1963,-22.7335 L -44.3613,-22.6428 L -44.5365,-22.5734
 L -44.7189,-22.5266 L -44.9058,-22.503 z
M -52.5942,-22.503 L -52.7811,-22.5266 L -52.9635,-22.5734 L -53.1387,-22.6428 L -53.3037,-22.7335 L -53.4561,-22.8442
 L -53.5934,-22.9732 L -53.7135,-23.1183 L -53.8145,-23.2774 L -53.8947,-23.4478 L -53.9529,-23.627 L -53.9882,-23.812
 L -54,-24 L -53.9882,-24.188 L -53.9529,-24.373 L -53.8947,-24.5522 L -53.8145,-24.7226 L -53.7135,-24.8817
 L -53.5934,-25.0268 L -53.4561,-25.1558 L -53.3037,-25.2665 L -53.1387,-25.3572 L -52.9635,-25.4266 L -52.7811,-25.4734
 L -52.5942,-25.497 L -52.4058,-25.497 L -52.2189,-25.4734 L -52.0365,-25.4266 L -51.8613,-25.3572 L -51.6963,-25.2665
 L -51.5439,-25.1558 L -51.4065,-25.0268 L -51.2865,-24.8817 L -51.1855,-24.7226 L -51.1053,-24.5522 L -51.0471,-24.373
 L -51.0118,-24.188 L -51,-24 L -51.0118,-23.812 L -51.0471,-23.627 L -51.1053,-23.4478 L -51.1855,-23.2774
 L -51.2865,-23.1183 L -51.4065,-22.9732 L -51.5439,-22.8442 L -51.6963,-22.7335 L -51.8613,-22.6428 L -52.0365,-22.5734
 L -52.2189,-22.5266 L -52.4058,-22.503 z
M -22.5942,-22.503 L -22.7811,-22.5266 L -22.9635,-22.5734 L -23.1387,-22.6428 L -23.3037,-22.7335 L -23.4561,-22.8442
 L -23.5934,-22.9732 L -23.7135,-23.1183 L -23.8145,-23.2774 L -23.8947,-23.4478 L -23.9529,-23.627 L -23.9882,-23.812
 L -24,-24 L -23.9882,-24.188 L -23.9529,-24.373 L -23.8947,-24.5522 L -23.8145,-24.7226 L -23.7135,-24.8817
 L -23.5934,-25.0268 L -23.4561,-25.1558 L -23.3037,-25.2665 L -23.1387,-25.3572 L -22.9635,-25.4266 L -22.7811,-25.4734
 L -22.5942,-25.497 L -22.4058,-25.497 L -22.2189,-25.4734 L -22.0365,-25.4266 L -21.8613,-25.3572 L -21.6963,-25.2665
 L -21.5439,-25.1558 L -21.4065,-25.0268 L -21.2865,-24.8817 L -21.1855,-24.7226 L -21.1053,-24.5522 L -21.0471,-24.373
 L -21.0118,-24.188 L -21,-24 L -21.0118,-23.812 L -21.0471,-23.627 L -21.1053,-23.4478 L -21.1855,-23.2774
 L -21.2865,-23.1183 L -21.4065,-22.9732 L -21.5439,-22.8442 L -21.6963,-22.7335 L -21.8613,-22.6428 L -22.0365,-22.5734
 L -22.2189,-22.5266 L -22.4058,-22.503 z
M 59.9058,-22.503 L 59.7189,-22.5266 L 59.5365,-22.5734 L 59.3613,-22.6428 L 59.1963,-22.7335 L 59.0439,-22.8442
 L 58.9065,-22.9732 L 58.7865,-23.1183 L 58.6855,-23.2774 L 58.6053,-23.4478 L 58.5471,-23.627 L 58.5118,-23.812
 L 58.5,-24 L 58.5118,-24.188 L 58.5471,-24.373 L 58.6053,-24.5522 L 58.6855,-24.7226 L 58.7865,-24.8817
 L 58.9065,-25.0268 L 59.0439,-25.1558 L 59.1963,-25.2665 L 59.3613,-25.3572 L 59.5365,-25.4266 L 59.7189,-25.4734
 L 59.9058,-25.497 L 60.0942,-25.497 L 60.2811,-25.4734 L 60.4635,-25.4266 L 60.6387,-25.3572 L 60.8037,-25.2665
 L 60.9561,-25.1558 L 61.0934,-25.0268 L 61.2135,-24.8817 L 61.3145,-24.7226 L 61.3947,-24.5522 L 61.4529,-24.373
 L 61.4882,-24.188 L 61.5,-24 L 61.4882,-23.812 L 61.4529,-23.627 L 61.3947,-23.4478 L 61.3145,-23.2774
 L 61.2135,-23.1183 L 61.0934,-22.9732 L 60.9561,-22.8442 L 60.8037,-22.7335 L 60.6387,-22.6428 L 60.4635,-22.5734
 L 60.2811,-22.5266 L 60.0942,-22.503 z
M 29.9058,-22.503 L 29.7189,-22.5266 L 29.5365,-22.5734 L 29.3613,-22.6428 L 29.1963,-22.7335 L 29.0439,-22.8442
 L 28.9065,-22.9732 L 28.7865,-23.1183 L 28.6855,-23.2774 L 28.6053,-23.4478 L 28.5471,-23.627 L 28.5118,-23.812
 L 28.5,-24 L 28.5118,-24.188 L 28.5471,-24.373 L 28.6053,-24.5522 L 28.6855,-24.7226 L 28.7865,-24.8817
 L 28.9065,-25.0268 L 29.0439,-25.1558 L 29.1963,-25.2665 L 29.3613,-25.3572 L 29.5365,-25.4266 L 29.7189,-25.4734
 L 29.9058,-25.497 L 30.0942,-25.497 L 30.2811,-25.4734 L 30.4635,-25.4266 L 30.6387,-25.3572 L 30.8037,-25.2665
 L 30.9561,-25.1558 L 31.0934,-25.0268 L 31.2135,-24.8817 L 31.3145,-24.7226 L 31.3947,-24.5522 L 31.4529,-24.373
 L 31.4882,-24.188 L 31.5,-24 L 31.4882,-23.812 L 31.4529,-23.627 L 31.3947,-23.4478 L 31.3145,-23.2774
 L 31.2135,-23.1183 L 31.0934,-22.9732 L 30.9561,-22.8442 L 30.8037,-22.7335 L 30.6387,-22.6428 L 30.4635,-22.5734
 L 30.2811,-22.5266 L 30.0942,-22.503 z
M 52.4058,-22.503 L 52.2189,-22.5266 L 52.0365,-22.5734 L 51.8613,-22.6428 L 51.6963,-22.7335 L 51.5439,-22.8442
 L 51.4065,-22.9732 L 51.2865,-23.1183 L 51.1855,-23.2774 L 51.1053,-23.4478 L 51.0471,-23.627 L 51.0118,-23.812
 L 51,-24 L 51.0118,-24.188 L 51.0471,-24.373 L 51.1053,-24.5522 L 51.1855,-24.7226 L 51.2865,-24.8817
 L 51.4065,-25.0268 L 51.5439,-25.1558 L 51.6963,-25.2665 L 51.8613,-25.3572 L 52.0365,-25.4266 L 52.2189,-25.4734
 L 52.4058,-25.497 L 52.5942,-25.497 L 52.7811,-25.4734 L 52.9635,-25.4266 L 53.1387,-25.3572 L 53.3037,-25.2665
 L 53.4561,-25.1558 L 53.5934,-25.0268 L 53.7135,-24.8817 L 53.8145,-24.7226 L 53.8947,-24.5522 L 53.9529,-24.373
 L 53.9882,-24.188 L 54,-24 L 53.9882,-23.812 L 53.9529,-23.627 L 53.8947,-23.4478 L 53.8145,-23.2774
 L 53.7135,-23.1183 L 53.5934,-22.9732 L 53.4561,-22.8442 L 53.3037,-22.7335 L 53.1387,-22.6428 L 52.9635,-22.5734
 L 52.7811,-22.5266 L 52.5942,-22.503 z
M -15.0942,-22.503 L -15.2811,-22.5266 L -15.4635,-22.5734 L -15.6387,-22.6428 L -15.8037,-22.7335 L -15.9561,-22.8442
 L -16.0934,-22.9732 L -16.2135,-23.1183 L -16.3145,-23.2774 L -16.3947,-23.4478 L -16.4529,-23.627 L -16.4882,-23.812
 L -16.5,-24 L -16.4882,-24.188 L -16.4529,-24.373 L -16.3947,-24.5522 L -16.3145,-24.7226 L -16.2135,-24.8817
 L -16.0934,-25.0268 L -15.9561,-25.1558 L -15.8037,-25.2665 L -15.6387,-25.3572 L -15.4635,-25.4266 L -15.2811,-25.4734
 L -15.0942,-25.497 L -14.9058,-25.497 L -14.7189,-25.4734 L -14.5365,-25.4266 L -14.3613,-25.3572 L -14.1963,-25.2665
 L -14.0439,-25.1558 L -13.9065,-25.0268 L -13.7865,-24.8817 L -13.6855,-24.7226 L -13.6053,-24.5522 L -13.5471,-24.373
 L -13.5118,-24.188 L -13.5,-24 L -13.5118,-23.812 L -13.5471,-23.627 L -13.6053,-23.4478 L -13.6855,-23.2774
 L -13.7865,-23.1183 L -13.9065,-22.9732 L -14.0439,-22.8442 L -14.1963,-22.7335 L -14.3613,-22.6428 L -14.5365,-22.5734
 L -14.7189,-22.5266 L -14.9058,-22.503 z
M -75.0942,-22.503 L -75.2811,-22.5266 L -75.4635,-22.5734 L -75.6387,-22.6428 L -75.8037,-22.7335 L -75.9561,-22.8442
 L -76.0934,-22.9732 L -76.2135,-23.1183 L -76.3145,-23.2774 L -76.3947,-23.4478 L -76.4529,-23.627 L -76.4882,-23.812
 L -76.5,-24 L -76.4882,-24.188 L -76.4529,-24.373 L -76.3947,-24.5522 L -76.3145,-24.7226 L -76.2135,-24.8817
 L -76.0934,-25.0268 L -75.9561,-25.1558 L -75.8037,-25.2665 L -75.6387,-25.3572 L -75.4635,-25.4266 L -75.2811,-25.4734
 L -75.0942,-25.497 L -74.9058,-25.497 L -74.7189,-25.4734 L -74.5365,-25.4266 L -74.3613,-25.3572 L -74.1963,-25.2665
 L -74.0439,-25.1558 L -73.9065,-25.0268 L -73.7865,-24.8817 L -73.6855,-24.7226 L -73.6053,-24.5522 L -73.5471,-24.373
 L -73.5118,-24.188 L -73.5,-24 L -73.5118,-23.812 L -73.5471,-23.627 L -73.6053,-23.4478 L -73.6855,-23.2774
 L -73.7865,-23.1183 L -73.9065,-22.9732 L -74.0439,-22.8442 L -74.1963,-22.7335 L -74.3613,-22.6428 L -74.5365,-22.5734
 L -74.7189,-22.5266 L -74.9058,-22.503 z
M -37.5942,-22.503 L -37.7811,-22.5266 L -37.9635,-22.5734 L -38.1387,-22.6428 L -38.3037,-22.7335 L -38.4561,-22.8442
 L -38.5934,-22.9732 L -38.7135,-23.1183 L -38.8145,-23.2774 L -38.8947,-23.4478 L -38.9529,-23.627 L -38.9882,-23.812
 L -39,-24 L -38.9882,-24.188 L -38.9529,-24.373 L -38.8947,-24.5522 L -38.8145,-24.7226 L -38.7135,-24.8817
 L -38.5934,-25.0268 L -38.4561,-25.1558 L -38.3037,-25.2665 L -38.1387,-25.3572 L -37.9635,-25.4266 L -37.7811,-25.4734
 L -37.5942,-25.497 L -37.4058,-25.497 L -37.2189,-25.4734 L -37.0365,-25.4266 L -36.8613,-25.3572 L -36.6963,-25.2665
 L -36.5439,-25.1558 L -36.4065,-25.0268 L -36.2865,-24.8817 L -36.1855,-24.7226 L -36.1053,-24.5522 L -36.0471,-24.373
 L -36.0118,-24.188 L -36,-24 L -36.0118,-23.812 L -36.0471,-23.627 L -36.1053,-23.4478 L -36.1855,-23.2774
 L -36.2865,-23.1183 L -36.4065,-22.9732 L -36.5439,-22.8442 L -36.6963,-22.7335 L -36.8613,-22.6428 L -37.0365,-22.5734
 L -37.2189,-22.5266 L -37.4058,-22.503 z
M -30.0942,-22.503 L -30.2811,-22.5266 L -30.4635,-22.5734 L -30.6387,-22.6428 L -30.8037,-22.7335 L -30.9561,-22.8442
 L -31.0934,-22.9732 L -31.2135,-23.1183 L -31.3145,-23.2774 L -31.3947,-23.4478 L -31.4529,-23.627 L -31.4882,-23.812
 L -31.5,-24 L -31.4882,-24.188 L -31.4529,-24.373 L -31.3947,-24.5522 L -31.3145,-24.7226 L -31.2135,-24.8817
 L -31.0934,-25.0268 L -30.9561,-25.1558 L -30.8037,-25.2665 L -30.6387,-25.3572 L -30.4635,-25.4266 L -30.2811,-25.4734
 L -30.0942,-25.497 L -29.9058,-25.497 L -29.7189,-25.4734 L -29.5365,-25.4266 L -29.3613,-25.3572 L -29.1963,-25.2665
 L -29.0439,-25.1558 L -28.9065,-25.0268 L -28.7865,-24.8817 L -28.6855,-24.7226 L -28.6053,-24.5522 L -28.5471,-24.373
 L -28.5118,-24.188 L -28.5,-24 L -28.5118,-23.812 L -28.5471,-23.627 L -28.6053,-23.4478 L -28.6855,-23.2774
 L -28.7865,-23.1183 L -28.9065,-22.9732 L -29.0439,-22.8442 L -29.1963,-22.7335 L -29.3613,-22.6428 L -29.5365,-22.5734
 L -29.7189,-22.5266 L -29.9058,-22.503 z
M 22.4058,-22.503 L 22.2189,-22.5266 L 22.0365,-22.5734 L 21.8613,-22.6428 L 21.6963,-22.7335 L 21.5439,-22.8442
 L 21.4065,-22.9732 L 21.2865,-23.1183 L 21.1855,-23.2774 L 21.1053,-23.4478 L 21.0471,-23.627 L 21.0118,-23.812
 L 21,-24 L 21.0118,-24.188 L 21.0471,-24.373 L 21.1053,-24.5522 L 21.1855,-24.7226 L 21.2865,-24.8817
 L 21.4065,-25.0268 L 21.5439,-25.1558 L 21.6963,-25.2665 L 21.8613,-25.3572 L 22.0365,-25.4266 L 22.2189,-25.4734
 L 22.4058,-25.497 L 22.5942,-25.497 L 22.7811,-25.4734 L 22.9635,-25.4266 L 23.1387,-25.3572 L 23.3037,-25.2665
 L 23.4561,-25.1558 L 23.5934,-25.0268 L 23.7135,-24.8817 L 23.8145,-24.7226 L 23.8947,-24.5522 L 23.9529,-24.373
 L 23.9882,-24.188 L 24,-24 L 23.9882,-23.812 L 23.9529,-23.627 L 23.8947,-23.4478 L 23.8145,-23.2774
 L 23.7135,-23.1183 L 23.5934,-22.9732 L 23.4561,-22.8442 L 23.3037,-22.7335 L 23.1387,-22.6428 L 22.9635,-22.5734
 L 22.7811,-22.5266 L 22.5942,-22.503 z
M 7.40581,-22.503 L 7.21892,-22.5266 L 7.03647,-22.5734 L 6.86133,-22.6428 L 6.69626,-22.7335 L 6.54385,-22.8442
 L 6.40654,-22.9732 L 6.28647,-23.1183 L 6.18553,-23.2774 L 6.10533,-23.4478 L 6.04712,-23.627 L 6.01183,-23.812
 L 6,-24 L 6.01183,-24.188 L 6.04712,-24.373 L 6.10533,-24.5522 L 6.18553,-24.7226 L 6.28647,-24.8817
 L 6.40654,-25.0268 L 6.54385,-25.1558 L 6.69626,-25.2665 L 6.86133,-25.3572 L 7.03647,-25.4266 L 7.21892,-25.4734
 L 7.40581,-25.497 L 7.59418,-25.497 L 7.78107,-25.4734 L 7.96352,-25.4266 L 8.13866,-25.3572 L 8.30373,-25.2665
 L 8.45613,-25.1558 L 8.59344,-25.0268 L 8.71352,-24.8817 L 8.81445,-24.7226 L 8.89465,-24.5522 L 8.95287,-24.373
 L 8.98816,-24.188 L 9,-24 L 8.98816,-23.812 L 8.95287,-23.627 L 8.89465,-23.4478 L 8.81445,-23.2774
 L 8.71352,-23.1183 L 8.59344,-22.9732 L 8.45613,-22.8442 L 8.30373,-22.7335 L 8.13866,-22.6428 L 7.96352,-22.5734
 L 7.78107,-22.5266 L 7.59418,-22.503 z
M -0.0941772,-22.503 L -0.281067,-22.5266 L -0.463516,-22.5734 L -0.638657,-22.6428 L -0.803726,-22.7335 L -0.956131,-22.8442
 L -1.09344,-22.9732 L -1.21352,-23.1183 L -1.31445,-23.2774 L -1.39465,-23.4478 L -1.45287,-23.627 L -1.48816,-23.812
 L -1.5,-24 L -1.48816,-24.188 L -1.45287,-24.373 L -1.39465,-24.5522 L -1.31445,-24.7226 L -1.21352,-24.8817
 L -1.09344,-25.0268 L -0.956131,-25.1558 L -0.803726,-25.2665 L -0.638657,-25.3572 L -0.463516,-25.4266 L -0.281067,-25.4734
 L -0.0941772,-25.497 L 0.0941772,-25.497 L 0.281067,-25.4734 L 0.463516,-25.4266 L 0.638657,-25.3572 L 0.803726,-25.2665
 L 0.956131,-25.1558 L 1.09344,-25.0268 L 1.21352,-24.8817 L 1.31445,-24.7226 L 1.39465,-24.5522 L 1.45287,-24.373
 L 1.48816,-24.188 L 1.5,-24 L 1.48816,-23.812 L 1.45287,-23.627 L 1.39465,-23.4478 L 1.31445,-23.2774
 L 1.21352,-23.1183 L 1.09344,-22.9732 L 0.956131,-22.8442 L 0.803726,-22.7335 L 0.638657,-22.6428 L 0.463516,-22.5734
 L 0.281067,-22.5266 L 0.0941772,-22.503 z
M 14.9058,-22.503 L 14.7189,-22.5266 L 14.5365,-22.5734 L 14.3613,-22.6428 L 14.1963,-22.7335 L 14.0439,-22.8442
 L 13.9065,-22.9732 L 13.7865,-23.1183 L 13.6855,-23.2774 L 13.6053,-23.4478 L 13.5471,-23.627 L 13.5118,-23.812
 L 13.5,-24 L 13.5118,-24.188 L 13.5471,-24.373 L 13.6053,-24.5522 L 13.6855,-24.7226 L 13.7865,-24.8817
 L 13.9065,-25.0268 L 14.0439,-25.1558 L 14.1963,-25.2665 L 14.3613,-25.3572 L 14.5365,-25.4266 L 14.7189,-25.4734
 L 14.9058,-25.497 L 15.0942,-25.497 L 15.2811,-25.4734 L 15.4635,-25.4266 L 15.6387,-25.3572 L 15.8037,-25.2665
 L 15.9561,-25.1558 L 16.0934,-25.0268 L 16.2135,-24.8817 L 16.3145,-24.7226 L 16.3947,-24.5522 L 16.4529,-24.373
 L 16.4882,-24.188 L 16.5,-24 L 16.4882,-23.812 L 16.4529,-23.627 L 16.3947,-23.4478 L 16.3145,-23.2774
 L 16.2135,-23.1183 L 16.0934,-22.9732 L 15.9561,-22.8442 L 15.8037,-22.7335 L 15.6387,-22.6428 L 15.4635,-22.5734
 L 15.2811,-22.5266 L 15.0942,-22.503 z
M 74.9058,-22.503 L 74.7189,-22.5266 L 74.5365,-22.5734 L 74.3613,-22.6428 L 74.1963,-22.7335 L 74.0439,-22.8442
 L 73.9065,-22.9732 L 73.7865,-23.1183 L 73.6855,-23.2774 L 73.6053,-23.4478 L 73.5471,-23.627 L 73.5118,-23.812
 L 73.5,-24 L 73.5118,-24.188 L 73.5471,-24.373 L 73.6053,-24.5522 L 73.6855,-24.7226 L 73.7865,-24.8817
 L 73.9065,-25.0268 L 74.0439,-25.1558 L 74.1963,-25.2665 L 74.3613,-25.3572 L 74.5365,-25.4266 L 74.7189,-25.4734
 L 74.9058,-25.497 L 75.0942,-25.497 L 75.2811,-25.4734 L 75.4635,-25.4266 L 75.6387,-25.3572 L 75.8037,-25.2665
 L 75.9561,-25.1558 L 76.0934,-25.0268 L 76.2135,-24.8817 L 76.3145,-24.7226 L 76.3947,-24.5522 L 76.4529,-24.373
 L 76.4882,-24.188 L 76.5,-24 L 76.4882,-23.812 L 76.4529,-23.627 L 76.3947,-23.4478 L 76.3145,-23.2774
 L 76.2135,-23.1183 L 76.0934,-22.9732 L 75.9561,-22.8442 L 75.8037,-22.7335 L 75.6387,-22.6428 L 75.4635,-22.5734
 L 75.2811,-22.5266 L 75.0942,-22.503 z
M -67.5942,-22.503 L -67.7811,-22.5266 L -67.9635,-22.5734 L -68.1387,-22.6428 L -68.3037,-22.7335 L -68.4561,-22.8442
 L -68.5934,-22.9732 L -68.7135,-23.1183 L -68.8145,-23.2774 L -68.8947,-23.4478 L -68.9529,-23.627 L -68.9882,-23.812
 L -69,-24 L -68.9882,-24.188 L -68.9529,-24.373 L -68.8947,-24.5522 L -68.8145,-24.7226 L -68.7135,-24.8817
 L -68.5934,-25.0268 L -68.4561,-25.1558 L -68.3037,-25.2665 L -68.1387,-25.3572 L -67.9635,-25.4266 L -67.7811,-25.4734
 L -67.5942,-25.497 L -67.4058,-25.497 L -67.2189,-25.4734 L -67.0365,-25.4266 L -66.8613,-25.3572 L -66.6963,-25.2665
 L -66.5439,-25.1558 L -66.4065,-25.0268 L -66.2865,-24.8817 L -66.1855,-24.7226 L -66.1053,-24.5522 L -66.0471,-24.373
 L -66.0118,-24.188 L -66,-24 L -66.0118,-23.812 L -66.0471,-23.627 L -66.1053,-23.4478 L -66.1855,-23.2774
 L -66.2865,-23.1183 L -66.4065,-22.9732 L -66.5439,-22.8442 L -66.6963,-22.7335 L -66.8613,-22.6428 L -67.0365,-22.5734
 L -67.2189,-22.5266 L -67.4058,-22.503 z
M 37.4058,-22.503 L 37.2189,-22.5266 L 37.0365,-22.5734 L 36.8613,-22.6428 L 36.6963,-22.7335 L 36.5439,-22.8442
 L 36.4065,-22.9732 L 36.2865,-23.1183 L 36.1855,-23.2774 L 36.1053,-23.4478 L 36.0471,-23.627 L 36.0118,-23.812
 L 36,-24 L 36.0118,-24.188 L 36.0471,-24.373 L 36.1053,-24.5522 L 36.1855,-24.7226 L 36.2865,-24.8817
 L 36.4065,-25.0268 L 36.5439,-25.1558 L 36.6963,-25.2665 L 36.8613,-25.3572 L 37.0365,-25.4266 L 37.2189,-25.4734
 L 37.4058,-25.497 L 37.5942,-25.497 L 37.7811,-25.4734 L 37.9635,-25.4266 L 38.1387,-25.3572 L 38.3037,-25.2665
 L 38.4561,-25.1558 L 38.5934,-25.0268 L 38.7135,-24.8817 L 38.8145,-24.7226 L 38.8947,-24.5522 L 38.9529,-24.373
 L 38.9882,-24.188 L 39,-24 L 38.9882,-23.812 L 38.9529,-23.627 L 38.8947,-23.4478 L 38.8145,-23.2774
 L 38.7135,-23.1183 L 38.5934,-22.9732 L 38.4561,-22.8442 L 38.3037,-22.7335 L 38.1387,-22.6428 L 37.9635,-22.5734
 L 37.7811,-22.5266 L 37.5942,-22.503 z
M 44.9058,-22.503 L 44.7189,-22.5266 L 44.5365,-22.5734 L 44.3613,-22.6428 L 44.1963,-22.7335 L 44.0439,-22.8442
 L 43.9065,-22.9732 L 43.7865,-23.1183 L 43.6855,-23.2774 L 43.6053,-23.4478 L 43.5471,-23.627 L 43.5118,-23.812
 L 43.5,-24 L 43.5118,-24.188 L 43.5471,-24.373 L 43.6053,-24.5522 L 43.6855,-24.7226 L 43.7865,-24.8817
 L 43.9065,-25.0268 L 44.0439,-25.1558 L 44.1963,-25.2665 L 44.3613,-25.3572 L 44.5365,-25.4266 L 44.7189,-25.4734
 L 44.9058,-25.497 L 45.0942,-25.497 L 45.2811,-25.4734 L 45.4635,-25.4266 L 45.6387,-25.3572 L 45.8037,-25.2665
 L 45.9561,-25.1558 L 46.0934,-25.0268 L 46.2135,-24.8817 L 46.3145,-24.7226 L 46.3947,-24.5522 L 46.4529,-24.373
 L 46.4882,-24.188 L 46.5,-24 L 46.4882,-23.812 L 46.4529,-23.627 L 46.3947,-23.4478 L 46.3145,-23.2774
 L 46.2135,-23.1183 L 46.0934,-22.9732 L 45.9561,-22.8442 L 45.8037,-22.7335 L 45.6387,-22.6428 L 45.4635,-22.5734
 L 45.2811,-22.5266 L 45.0942,-22.503 z
" stroke="black" fill="lightgray" stroke-width="0.5"/>
</svg>
