<?xml version="1.0" standalone="no"?>
<!DOCTYPE svg PUBLIC "-//W3C//DTD SVG 1.1//EN" "http://www.w3.org/Graphics/SVG/1.1/DTD/svg11.dtd">
<svg width="30mm" height="21mm" viewBox="-15 -21 30 21" xmlns="http://www.w3.org/2000/svg" version="1.1">
<title>OpenSCAD Model</title>
<path d="
M -10.0307,-2.82999 L -12.1794,-2.82999 L -12.1794,-9 L -2.82062,-9 L -2.82062,-2.82999 L -4.96927,-2.82999
 L -4.96927,-0 L 4.96927,-0 L 4.96927,-2.82999 L 2.82062,-2.82999 L 2.82062,-9 L 12.1794,-9
 L 12.1794,-2.82999 L 10.0307,-2.82999 L 10.0307,-0 L 14.5,-0 L 14.5,-15.5 L 14.4606,-16.1267
 L 14.3429,-16.7434 L 14.1489,-17.3406 L 13.8815,-17.9088 L 13.5451,-18.4389 L 13.1448,-18.9227 L 12.6871,-19.3526
 L 12.1791,-19.7216 L 11.6289,-20.0241 L 11.0451,-20.2553 L 10.4369,-20.4114 L 9.81395,-20.4901 L -9.81395,-20.4901
 L -10.4369,-20.4114 L -11.0451,-20.2553 L -11.6289,-20.0241 L -12.1791,-19.7216 L -12.6871,-19.3526 L -13.1448,-18.9227
 L -13.5451,-18.4389 L -13.8815,-17.9088 L -14.1489,-17.3406 L -14.3429,-16.7434 L -14.4606,-16.1267 L -14.5,-15.5
 L -14.5,-0 L -10.0307,-0 z
M 5.5,-17.75 L 5.5,-19.25 L 9.5,-19.25 L 9.5,-17.75 z
M -9.5,-17.75 L -9.5,-19.25 L -5.5,-19.25 L -5.5,-17.75 z
M -9.5,-10.75 L -9.5,-12.25 L -5.5,-12.25 L -5.5,-10.75 z
M 5.5,-10.75 L 5.5,-12.25 L 9.5,-12.25 L 9.5,-10.75 z
" stroke="black" fill="lightgray" stroke-width="0.5"/>
</svg>
