<?xml version="1.0" standalone="no"?>
<!DOCTYPE svg PUBLIC "-//W3C//DTD SVG 1.1//EN" "http://www.w3.org/Graphics/SVG/1.1/DTD/svg11.dtd">
<svg width="30mm" height="351mm" viewBox="-15 -351 30 351" xmlns="http://www.w3.org/2000/svg" version="1.1">
<title>OpenSCAD Model</title>
<path d="
M 14.5,-345.5 L 14.4606,-346.127 L 14.3429,-346.743 L 14.1489,-347.341 L 13.8815,-347.909 L 13.5451,-348.439
 L 13.1448,-348.923 L 12.6871,-349.353 L 12.1791,-349.722 L 11.6289,-350.024 L 11.0451,-350.255 L 10.4369,-350.411
 L 9.81395,-350.49 L -9.81395,-350.49 L -10.4369,-350.411 L -11.0451,-350.255 L -11.6289,-350.024 L -12.1791,-349.722
 L -12.6871,-349.353 L -13.1448,-348.923 L -13.5451,-348.439 L -13.8815,-347.909 L -14.1489,-347.341 L -14.3429,-346.743
 L -14.4606,-346.127 L -14.5,-345.5 L -14.5,-330 L 14.5,-330 z
M -9.5,-347.75 L -9.5,-349.25 L -5.5,-349.25 L -5.5,-347.75 z
M 5.5,-347.75 L 5.5,-349.25 L 9.5,-349.25 L 9.5,-347.75 z
M -9.5,-340.75 L -9.5,-342.25 L -5.5,-342.25 L -5.5,-340.75 z
M 5.5,-340.75 L 5.5,-342.25 L 9.5,-342.25 L 9.5,-340.75 z
M -12.8466,-333.6 L -12.8466,-339 L -2.15337,-339 L -2.15337,-333.6 z
M 2.15337,-333.6 L 2.15337,-339 L 12.8466,-339 L 12.8466,-333.6 z
M -10.0307,-223.6 L -12.8466,-223.6 L -12.8466,-229 L -2.15337,-229 L -2.15337,-223.6 L -4.96927,-223.6
 L -4.96927,-220 L 4.96927,-220 L 4.96927,-223.6 L 2.15337,-223.6 L 2.15337,-229 L 12.8466,-229
 L 12.8466,-223.6 L 10.0307,-223.6 L 10.0307,-220 L 14.5,-220 L 14.5,-235.5 L 14.4606,-236.127
 L 14.3429,-236.743 L 14.1489,-237.341 L 13.8815,-237.909 L 13.5451,-238.439 L 13.1448,-238.923 L 12.6871,-239.353
 L 12.1791,-239.722 L 11.6289,-240.024 L 11.0451,-240.255 L 10.4369,-240.411 L 9.81395,-240.49 L -9.81395,-240.49
 L -10.4369,-240.411 L -11.0451,-240.255 L -11.6289,-240.024 L -12.1791,-239.722 L -12.6871,-239.353 L -13.1448,-238.923
 L -13.5451,-238.439 L -13.8815,-237.909 L -14.1489,-237.341 L -14.3429,-236.743 L -14.4606,-236.127 L -14.5,-235.5
 L -14.5,-220 L -10.0307,-220 z
M -9.5,-237.75 L -9.5,-239.25 L -5.5,-239.25 L -5.5,-237.75 z
M 5.5,-237.75 L 5.5,-239.25 L 9.5,-239.25 L 9.5,-237.75 z
M 5.5,-230.75 L 5.5,-232.25 L 9.5,-232.25 L 9.5,-230.75 z
M -9.5,-230.75 L -9.5,-232.25 L -5.5,-232.25 L -5.5,-230.75 z
M -10.0942,-113.6 L -12.8466,-113.6 L -12.8466,-119 L -2.15337,-119 L -2.15337,-113.6 L -4.90581,-113.6
 L -4.90581,-110 L 4.90581,-110 L 4.90581,-113.6 L 2.15337,-113.6 L 2.15337,-119 L 12.8466,-119
 L 12.8466,-113.6 L 10.0942,-113.6 L 10.0942,-110 L 14.5,-110 L 14.5,-125.5 L 14.4606,-126.127
 L 14.3429,-126.743 L 14.1489,-127.341 L 13.8815,-127.909 L 13.5451,-128.439 L 13.1448,-128.923 L 12.6871,-129.353
 L 12.1791,-129.722 L 11.6289,-130.024 L 11.0451,-130.255 L 10.4369,-130.411 L 9.81395,-130.49 L -9.81395,-130.49
 L -10.4369,-130.411 L -11.0451,-130.255 L -11.6289,-130.024 L -12.1791,-129.722 L -12.6871,-129.353 L -13.1448,-128.923
 L -13.5451,-128.439 L -13.8815,-127.909 L -14.1489,-127.341 L -14.3429,-126.743 L -14.4606,-126.127 L -14.5,-125.5
 L -14.5,-110 L -10.0942,-110 z
M 5.5,-127.75 L 5.5,-129.25 L 9.5,-129.25 L 9.5,-127.75 z
M -9.5,-127.75 L -9.5,-129.25 L -5.5,-129.25 L -5.5,-127.75 z
M -9.5,-120.75 L -9.5,-122.25 L -5.5,-122.25 L -5.5,-120.75 z
M 5.5,-120.75 L 5.5,-122.25 L 9.5,-122.25 L 9.5,-120.75 z
M 14.5,-15.5 L 14.4606,-16.1267 L 14.3429,-16.7434 L 14.1489,-17.3406 L 13.8815,-17.9088 L 13.5451,-18.4389
 L 13.1448,-18.9227 L 12.6871,-19.3526 L 12.1791,-19.7216 L 11.6289,-20.0241 L 11.0451,-20.2553 L 10.4369,-20.4114
 L 9.81395,-20.4901 L -9.81395,-20.4901 L -10.4369,-20.4114 L -11.0451,-20.2553 L -11.6289,-20.0241 L -12.1791,-19.7216
 L -12.6871,-19.3526 L -13.1448,-18.9227 L -13.5451,-18.4389 L -13.8815,-17.9088 L -14.1489,-17.3406 L -14.3429,-16.7434
 L -14.4606,-16.1267 L -14.5,-15.5 L -14.5,-0 L 14.5,-0 z
M -9.5,-17.75 L -9.5,-19.25 L -5.5,-19.25 L -5.5,-17.75 z
M 5.5,-17.75 L 5.5,-19.25 L 9.5,-19.25 L 9.5,-17.75 z
M -9.5,-10.75 L -9.5,-12.25 L -5.5,-12.25 L -5.5,-10.75 z
M 5.5,-10.75 L 5.5,-12.25 L 9.5,-12.25 L 9.5,-10.75 z
M -12.8466,-3.59999 L -12.8466,-9 L -2.15337,-9 L -2.15337,-3.59999 z
M 2.15337,-3.59999 L 2.15337,-9 L 12.8466,-9 L 12.8466,-3.59999 z
" stroke="black" fill="lightgray" stroke-width="0.5"/>
</svg>
