<?xml version="1.0" standalone="no"?>
<!DOCTYPE svg PUBLIC "-//W3C//DTD SVG 1.1//EN" "http://www.w3.org/Graphics/SVG/1.1/DTD/svg11.dtd">
<svg width="16mm" height="108mm" viewBox="-8 -171 16 108" xmlns="http://www.w3.org/2000/svg" version="1.1">
<title>OpenSCAD Model</title>
<path d="
M 3.4369,-141.089 L 4.04507,-141.245 L 4.62889,-141.476 L 5.17912,-141.778 L 5.68712,-142.147 L 6.14484,-142.577
 L 6.54507,-143.061 L 6.88153,-143.591 L 7.14888,-144.159 L 7.34291,-144.757 L 7.46057,-145.373 L 7.5,-146
 L 7.5,-166 L 7.46057,-166.627 L 7.34291,-167.243 L 7.14888,-167.841 L 6.88153,-168.409 L 6.54507,-168.939
 L 6.14484,-169.423 L 5.68712,-169.853 L 5.17912,-170.222 L 4.62889,-170.524 L 4.04507,-170.755 L 3.4369,-170.911
 L 2.81395,-170.99 L -2.81395,-170.99 L -3.4369,-170.911 L -4.04507,-170.755 L -4.62889,-170.524 L -5.17912,-170.222
 L -5.68712,-169.853 L -6.14484,-169.423 L -6.54507,-168.939 L -6.88153,-168.409 L -7.14888,-167.841 L -7.34291,-167.243
 L -7.46057,-166.627 L -7.5,-166 L -7.5,-146 L -7.46057,-145.373 L -7.34291,-144.757 L -7.14888,-144.159
 L -6.88153,-143.591 L -6.54507,-143.061 L -6.14484,-142.577 L -5.68712,-142.147 L -5.17912,-141.778 L -4.62889,-141.476
 L -4.04507,-141.245 L -3.4369,-141.089 L -2.81395,-141.01 L 2.81395,-141.01 z
M 2.68895,-141.509 L 3.17912,-141.778 L 3.68712,-142.147 L 4.14484,-142.577 L 4.54507,-143.061 L 4.88153,-143.591
 L 5.14888,-144.159 L 5.34291,-144.757 L 5.46057,-145.373 L 5.5,-146 L 5.5,-149 L 5.46057,-149.627
 L 5.34291,-150.243 L 5.14888,-150.841 L 4.88153,-151.409 L 4.54507,-151.939 L 4.14484,-152.423 L 3.68712,-152.853
 L 3.17912,-153.222 L 2.62889,-153.524 L 2.04507,-153.755 L 1.4369,-153.911 L 0.81395,-153.99 L -2.81395,-153.99
 L -3.4369,-153.911 L -4.04507,-153.755 L -4.62889,-153.524 L -5.17912,-153.222 L -5.68712,-152.853 L -6.14484,-152.423
 L -6.54507,-151.939 L -6.88153,-151.409 L -7,-151.157 L -7,-158.843 L -6.88153,-158.591 L -6.54507,-158.061
 L -6.14484,-157.577 L -5.68712,-157.147 L -5.17912,-156.778 L -4.62889,-156.476 L -4.04507,-156.245 L -3.4369,-156.089
 L -2.81395,-156.01 L 0.81395,-156.01 L 1.4369,-156.089 L 2.04507,-156.245 L 2.62889,-156.476 L 3.17912,-156.778
 L 3.68712,-157.147 L 4.14484,-157.577 L 4.54507,-158.061 L 4.88153,-158.591 L 5.14888,-159.159 L 5.34291,-159.757
 L 5.46057,-160.373 L 5.5,-161 L 5.5,-164 L 5.46057,-164.627 L 5.34291,-165.243 L 5.14888,-165.841
 L 4.88153,-166.409 L 4.54507,-166.939 L 4.14484,-167.423 L 3.68712,-167.853 L 3.17912,-168.222 L 2.62889,-168.524
 L 2.04507,-168.755 L 1.4369,-168.911 L 0.81395,-168.99 L -2.81395,-168.99 L -3.4369,-168.911 L -4.04507,-168.755
 L -4.62889,-168.524 L -5.17912,-168.222 L -5.68712,-167.853 L -6.14484,-167.423 L -6.54507,-166.939 L -6.88153,-166.409
 L -6.98859,-166.181 L -6.96451,-166.564 L -6.85861,-167.119 L -6.68399,-167.657 L -6.44337,-168.168 L -6.14056,-168.645
 L -5.78035,-169.08 L -5.36839,-169.467 L -4.91121,-169.799 L -4.416,-170.072 L -3.89056,-170.28 L -3.3432,-170.42
 L -2.78255,-170.491 L 2.78255,-170.491 L 3.3432,-170.42 L 3.89056,-170.28 L 4.416,-170.072 L 4.91121,-169.799
 L 5.36839,-169.467 L 5.78035,-169.08 L 6.14056,-168.645 L 6.44337,-168.168 L 6.68399,-167.657 L 6.85861,-167.119
 L 6.96451,-166.564 L 7,-166 L 7,-146 L 6.96451,-145.436 L 6.85861,-144.881 L 6.68399,-144.343
 L 6.44337,-143.832 L 6.14056,-143.355 L 5.78035,-142.92 L 5.36839,-142.533 L 4.91121,-142.201 L 4.416,-141.928
 L 3.89056,-141.72 L 3.3432,-141.58 L 2.78255,-141.509 z
M -0.0941772,-162.003 L -0.281067,-162.027 L -0.463516,-162.073 L -0.638657,-162.143 L -0.803726,-162.234 L -0.956131,-162.344
 L -1.09344,-162.473 L -1.21352,-162.618 L -1.31445,-162.777 L -1.39465,-162.948 L -1.45287,-163.127 L -1.48816,-163.312
 L -1.5,-163.5 L -1.48816,-163.688 L -1.45287,-163.873 L -1.39465,-164.052 L -1.31445,-164.223 L -1.21352,-164.382
 L -1.09344,-164.527 L -0.956131,-164.656 L -0.803726,-164.766 L -0.638657,-164.857 L -0.463516,-164.927 L -0.281067,-164.973
 L -0.0941772,-164.997 L 0.0941772,-164.997 L 0.281067,-164.973 L 0.463516,-164.927 L 0.638657,-164.857 L 0.803726,-164.766
 L 0.956131,-164.656 L 1.09344,-164.527 L 1.21352,-164.382 L 1.31445,-164.223 L 1.39465,-164.052 L 1.45287,-163.873
 L 1.48816,-163.688 L 1.5,-163.5 L 1.48816,-163.312 L 1.45287,-163.127 L 1.39465,-162.948 L 1.31445,-162.777
 L 1.21352,-162.618 L 1.09344,-162.473 L 0.956131,-162.344 L 0.803726,-162.234 L 0.638657,-162.143 L 0.463516,-162.073
 L 0.281067,-162.027 L 0.0941772,-162.003 z
M -0.0941772,-147.003 L -0.281067,-147.027 L -0.463516,-147.073 L -0.638657,-147.143 L -0.803726,-147.234 L -0.956131,-147.344
 L -1.09344,-147.473 L -1.21352,-147.618 L -1.31445,-147.777 L -1.39465,-147.948 L -1.45287,-148.127 L -1.48816,-148.312
 L -1.5,-148.5 L -1.48816,-148.688 L -1.45287,-148.873 L -1.39465,-149.052 L -1.31445,-149.223 L -1.21352,-149.382
 L -1.09344,-149.527 L -0.956131,-149.656 L -0.803726,-149.766 L -0.638657,-149.857 L -0.463516,-149.927 L -0.281067,-149.973
 L -0.0941772,-149.997 L 0.0941772,-149.997 L 0.281067,-149.973 L 0.463516,-149.927 L 0.638657,-149.857 L 0.803726,-149.766
 L 0.956131,-149.656 L 1.09344,-149.527 L 1.21352,-149.382 L 1.31445,-149.223 L 1.39465,-149.052 L 1.45287,-148.873
 L 1.48816,-148.688 L 1.5,-148.5 L 1.48816,-148.312 L 1.45287,-148.127 L 1.39465,-147.948 L 1.31445,-147.777
 L 1.21352,-147.618 L 1.09344,-147.473 L 0.956131,-147.344 L 0.803726,-147.234 L 0.638657,-147.143 L 0.463516,-147.073
 L 0.281067,-147.027 L 0.0941772,-147.003 z
M 3.4369,-102.089 L 4.04507,-102.245 L 4.62889,-102.476 L 5.17912,-102.778 L 5.68712,-103.147 L 6.14484,-103.577
 L 6.54507,-104.061 L 6.88153,-104.591 L 7.14888,-105.159 L 7.34291,-105.757 L 7.46057,-106.373 L 7.5,-107
 L 7.5,-127 L 7.46057,-127.627 L 7.34291,-128.243 L 7.14888,-128.841 L 6.88153,-129.409 L 6.54507,-129.939
 L 6.14484,-130.423 L 5.68712,-130.853 L 5.17912,-131.222 L 4.62889,-131.524 L 4.04507,-131.755 L 3.4369,-131.911
 L 2.81395,-131.99 L -2.81395,-131.99 L -3.4369,-131.911 L -4.04507,-131.755 L -4.62889,-131.524 L -5.17912,-131.222
 L -5.68712,-130.853 L -6.14484,-130.423 L -6.54507,-129.939 L -6.88153,-129.409 L -7.14888,-128.841 L -7.34291,-128.243
 L -7.46057,-127.627 L -7.5,-127 L -7.5,-107 L -7.46057,-106.373 L -7.34291,-105.757 L -7.14888,-105.159
 L -6.88153,-104.591 L -6.54507,-104.061 L -6.14484,-103.577 L -5.68712,-103.147 L -5.17912,-102.778 L -4.62889,-102.476
 L -4.04507,-102.245 L -3.4369,-102.089 L -2.81395,-102.01 L 2.81395,-102.01 z
M 4.14484,-103.577 L 4.54507,-104.061 L 4.88153,-104.591 L 5.14888,-105.159 L 5.34291,-105.757 L 5.46057,-106.373
 L 5.5,-107 L 5.5,-110 L 5.46057,-110.627 L 5.34291,-111.243 L 5.14888,-111.841 L 4.88153,-112.409
 L 4.54507,-112.939 L 4.14484,-113.423 L 3.68712,-113.853 L 3.17912,-114.222 L 2.62889,-114.524 L 2.04507,-114.755
 L 1.4369,-114.911 L 0.81395,-114.99 L -2.81395,-114.99 L -3.4369,-114.911 L -4.04507,-114.755 L -4.62889,-114.524
 L -5.17912,-114.222 L -5.68712,-113.853 L -6.14484,-113.423 L -6.52237,-112.966 L -6.52237,-119.034 L -6.14484,-118.577
 L -5.68712,-118.147 L -5.17912,-117.778 L -4.62889,-117.476 L -4.04507,-117.245 L -3.4369,-117.089 L -2.81395,-117.01
 L 0.81395,-117.01 L 1.4369,-117.089 L 2.04507,-117.245 L 2.62889,-117.476 L 3.17912,-117.778 L 3.68712,-118.147
 L 4.14484,-118.577 L 4.54507,-119.061 L 4.88153,-119.591 L 5.14888,-120.159 L 5.34291,-120.757 L 5.46057,-121.373
 L 5.5,-122 L 5.5,-125 L 5.46057,-125.627 L 5.34291,-126.243 L 5.14888,-126.841 L 4.88153,-127.409
 L 4.54507,-127.939 L 4.14484,-128.423 L 3.68712,-128.853 L 3.17912,-129.222 L 2.62889,-129.524 L 2.04507,-129.755
 L 1.4369,-129.911 L 0.81395,-129.99 L -2.81395,-129.99 L -3.4369,-129.911 L -4.04507,-129.755 L -4.62889,-129.524
 L -5.17912,-129.222 L -5.68712,-128.853 L -6.14484,-128.423 L -6.33244,-128.196 L -6.23991,-128.481 L -6.02484,-128.938
 L -5.75417,-129.364 L -5.43219,-129.754 L -5.06395,-130.099 L -4.65529,-130.396 L -4.21265,-130.64 L -3.74298,-130.826
 L -3.25371,-130.951 L -2.75256,-131.014 L 2.75256,-131.014 L 3.25371,-130.951 L 3.74298,-130.826 L 4.21265,-130.64
 L 4.65529,-130.396 L 5.06395,-130.099 L 5.43219,-129.754 L 5.75417,-129.364 L 6.02484,-128.938 L 6.23991,-128.481
 L 6.39601,-128 L 6.49066,-127.504 L 6.52237,-127 L 6.52237,-107 L 6.49066,-106.496 L 6.39601,-106
 L 6.23991,-105.519 L 6.02484,-105.062 L 5.75417,-104.636 L 5.43219,-104.246 L 5.06395,-103.901 L 4.65529,-103.604
 L 4.21265,-103.36 L 3.74298,-103.174 L 3.70573,-103.165 z
M -0.0941772,-123.003 L -0.281067,-123.027 L -0.463516,-123.073 L -0.638657,-123.143 L -0.803726,-123.234 L -0.956131,-123.344
 L -1.09344,-123.473 L -1.21352,-123.618 L -1.31445,-123.777 L -1.39465,-123.948 L -1.45287,-124.127 L -1.48816,-124.312
 L -1.5,-124.5 L -1.48816,-124.688 L -1.45287,-124.873 L -1.39465,-125.052 L -1.31445,-125.223 L -1.21352,-125.382
 L -1.09344,-125.527 L -0.956131,-125.656 L -0.803726,-125.766 L -0.638657,-125.857 L -0.463516,-125.927 L -0.281067,-125.973
 L -0.0941772,-125.997 L 0.0941772,-125.997 L 0.281067,-125.973 L 0.463516,-125.927 L 0.638657,-125.857 L 0.803726,-125.766
 L 0.956131,-125.656 L 1.09344,-125.527 L 1.21352,-125.382 L 1.31445,-125.223 L 1.39465,-125.052 L 1.45287,-124.873
 L 1.48816,-124.688 L 1.5,-124.5 L 1.48816,-124.312 L 1.45287,-124.127 L 1.39465,-123.948 L 1.31445,-123.777
 L 1.21352,-123.618 L 1.09344,-123.473 L 0.956131,-123.344 L 0.803726,-123.234 L 0.638657,-123.143 L 0.463516,-123.073
 L 0.281067,-123.027 L 0.0941772,-123.003 z
M -0.0941772,-108.003 L -0.281067,-108.027 L -0.463516,-108.073 L -0.638657,-108.143 L -0.803726,-108.234 L -0.956131,-108.344
 L -1.09344,-108.473 L -1.21352,-108.618 L -1.31445,-108.777 L -1.39465,-108.948 L -1.45287,-109.127 L -1.48816,-109.312
 L -1.5,-109.5 L -1.48816,-109.688 L -1.45287,-109.873 L -1.39465,-110.052 L -1.31445,-110.223 L -1.21352,-110.382
 L -1.09344,-110.527 L -0.956131,-110.656 L -0.803726,-110.766 L -0.638657,-110.857 L -0.463516,-110.927 L -0.281067,-110.973
 L -0.0941772,-110.997 L 0.0941772,-110.997 L 0.281067,-110.973 L 0.463516,-110.927 L 0.638657,-110.857 L 0.803726,-110.766
 L 0.956131,-110.656 L 1.09344,-110.527 L 1.21352,-110.382 L 1.31445,-110.223 L 1.39465,-110.052 L 1.45287,-109.873
 L 1.48816,-109.688 L 1.5,-109.5 L 1.48816,-109.312 L 1.45287,-109.127 L 1.39465,-108.948 L 1.31445,-108.777
 L 1.21352,-108.618 L 1.09344,-108.473 L 0.956131,-108.344 L 0.803726,-108.234 L 0.638657,-108.143 L 0.463516,-108.073
 L 0.281067,-108.027 L 0.0941772,-108.003 z
M 3.4369,-63.0886 L 4.04507,-63.2447 L 4.62889,-63.4759 L 5.17912,-63.7784 L 5.68712,-64.1474 L 6.14484,-64.5773
 L 6.54507,-65.0611 L 6.88153,-65.5912 L 7.14888,-66.1594 L 7.34291,-66.7566 L 7.46057,-67.3733 L 7.5,-68
 L 7.5,-88 L 7.46057,-88.6267 L 7.34291,-89.2434 L 7.14888,-89.8406 L 6.88153,-90.4088 L 6.54507,-90.9389
 L 6.14484,-91.4227 L 5.68712,-91.8526 L 5.17912,-92.2216 L 4.62889,-92.5241 L 4.04507,-92.7553 L 3.4369,-92.9114
 L 2.81395,-92.9901 L -2.81395,-92.9901 L -3.4369,-92.9114 L -4.04507,-92.7553 L -4.62889,-92.5241 L -5.17912,-92.2216
 L -5.68712,-91.8526 L -6.14484,-91.4227 L -6.54507,-90.9389 L -6.88153,-90.4088 L -7.14888,-89.8406 L -7.34291,-89.2434
 L -7.46057,-88.6267 L -7.5,-88 L -7.5,-68 L -7.46057,-67.3733 L -7.34291,-66.7566 L -7.14888,-66.1594
 L -6.88153,-65.5912 L -6.54507,-65.0611 L -6.14484,-64.5773 L -5.68712,-64.1474 L -5.17912,-63.7784 L -4.62889,-63.4759
 L -4.04507,-63.2447 L -3.4369,-63.0886 L -2.81395,-63.0099 L 2.81395,-63.0099 z
M -0.150696,-83.1047 L -0.449707,-83.1425 L -0.741638,-83.2175 L -1.02187,-83.3284 L -1.28598,-83.4736 L -1.52982,-83.6508
 L -1.74951,-83.8571 L -1.94164,-84.0893 L -2.10313,-84.3438 L -2.23146,-84.6165 L -2.32458,-84.9031 L -2.38107,-85.1992
 L -2.39999,-85.5 L -2.38107,-85.8008 L -2.32458,-86.0968 L -2.23146,-86.3835 L -2.10313,-86.6562 L -1.94164,-86.9107
 L -1.74951,-87.1429 L -1.52982,-87.3492 L -1.28598,-87.5264 L -1.02187,-87.6716 L -0.741638,-87.7825 L -0.449707,-87.8575
 L -0.150696,-87.8953 L 0.150696,-87.8953 L 0.449707,-87.8575 L 0.741638,-87.7825 L 1.02187,-87.6716 L 1.28598,-87.5264
 L 1.52982,-87.3492 L 1.74951,-87.1429 L 1.94164,-86.9107 L 2.10313,-86.6562 L 2.23146,-86.3835 L 2.32458,-86.0968
 L 2.38107,-85.8008 L 2.39999,-85.5 L 2.38107,-85.1992 L 2.32458,-84.9031 L 2.23146,-84.6165 L 2.10313,-84.3438
 L 1.94164,-84.0893 L 1.74951,-83.8571 L 1.52982,-83.6508 L 1.28598,-83.4736 L 1.02187,-83.3284 L 0.741638,-83.2175
 L 0.449707,-83.1425 L 0.150696,-83.1047 z
M -0.150696,-68.1047 L -0.449707,-68.1425 L -0.741638,-68.2175 L -1.02187,-68.3284 L -1.28598,-68.4736 L -1.52982,-68.6508
 L -1.74951,-68.8571 L -1.94164,-69.0893 L -2.10313,-69.3438 L -2.23146,-69.6165 L -2.32458,-69.9032 L -2.38107,-70.1992
 L -2.39999,-70.5 L -2.38107,-70.8008 L -2.32458,-71.0969 L -2.23146,-71.3835 L -2.10313,-71.6562 L -1.94164,-71.9107
 L -1.74951,-72.1429 L -1.52982,-72.3492 L -1.28598,-72.5264 L -1.02187,-72.6716 L -0.741638,-72.7825 L -0.449707,-72.8575
 L -0.150696,-72.8953 L 0.150696,-72.8953 L 0.449707,-72.8575 L 0.741638,-72.7825 L 1.02187,-72.6716 L 1.28598,-72.5264
 L 1.52982,-72.3492 L 1.74951,-72.1429 L 1.94164,-71.9107 L 2.10313,-71.6562 L 2.23146,-71.3835 L 2.32458,-71.0969
 L 2.38107,-70.8008 L 2.39999,-70.5 L 2.38107,-70.1992 L 2.32458,-69.9032 L 2.23146,-69.6165 L 2.10313,-69.3438
 L 1.94164,-69.0893 L 1.74951,-68.8571 L 1.52982,-68.6508 L 1.28598,-68.4736 L 1.02187,-68.3284 L 0.741638,-68.2175
 L 0.449707,-68.1425 L 0.150696,-68.1047 z
" stroke="black" fill="lightgray" stroke-width="0.5"/>
</svg>
