<?xml version="1.0" standalone="no"?>
<!DOCTYPE svg PUBLIC "-//W3C//DTD SVG 1.1//EN" "http://www.w3.org/Graphics/SVG/1.1/DTD/svg11.dtd">
<svg width="30mm" height="69mm" viewBox="-15 -132 30 69" xmlns="http://www.w3.org/2000/svg" version="1.1">
<title>OpenSCAD Model</title>
<path d="
M 10.9369,-102.089 L 11.5451,-102.245 L 12.1289,-102.476 L 12.6791,-102.778 L 13.1871,-103.147 L 13.6448,-103.577
 L 14.0451,-104.061 L 14.3815,-104.591 L 14.6489,-105.159 L 14.8429,-105.757 L 14.9606,-106.373 L 15,-107
 L 15,-127 L 14.9606,-127.627 L 14.8429,-128.243 L 14.6489,-128.841 L 14.3815,-129.409 L 14.0451,-129.939
 L 13.6448,-130.423 L 13.1871,-130.853 L 12.6791,-131.222 L 12.1289,-131.524 L 11.5451,-131.755 L 10.9369,-131.911
 L 10.3139,-131.99 L -10.3139,-131.99 L -10.9369,-131.911 L -11.5451,-131.755 L -12.1289,-131.524 L -12.6791,-131.222
 L -13.1871,-130.853 L -13.6448,-130.423 L -14.0451,-129.939 L -14.3815,-129.409 L -14.6489,-128.841 L -14.8429,-128.243
 L -14.9606,-127.627 L -15,-127 L -15,-107 L -14.9606,-106.373 L -14.8429,-105.757 L -14.6489,-105.159
 L -14.3815,-104.591 L -14.0451,-104.061 L -13.6448,-103.577 L -13.1871,-103.147 L -12.6791,-102.778 L -12.1289,-102.476
 L -11.5451,-102.245 L -10.9369,-102.089 L -10.3139,-102.01 L 10.3139,-102.01 z
M -4.75392,-102.54 L -4.32086,-102.778 L -3.81287,-103.147 L -3.35515,-103.577 L -2.95491,-104.061 L -2.61845,-104.591
 L -2.3511,-105.159 L -2.15707,-105.757 L -2.03941,-106.373 L -2,-107 L -2,-110 L -2.03941,-110.627
 L -2.15707,-111.243 L -2.3511,-111.841 L -2.61845,-112.409 L -2.95491,-112.939 L -3.35515,-113.423 L -3.81287,-113.853
 L -4.32086,-114.222 L -4.87109,-114.524 L -5.45491,-114.755 L -6.06308,-114.911 L -6.68604,-114.99 L -10.3139,-114.99
 L -10.9369,-114.911 L -11.5451,-114.755 L -12.1289,-114.524 L -12.6791,-114.222 L -13.1871,-113.853 L -13.6448,-113.423
 L -14.0451,-112.939 L -14.3815,-112.409 L -14.4685,-112.224 L -14.4685,-127 L -14.4333,-127.56 L -14.3281,-128.111
 L -14.1547,-128.645 L -13.9158,-129.153 L -13.6151,-129.627 L -13.2574,-130.059 L -12.8483,-130.443 L -12.3944,-130.773
 L -11.9026,-131.043 L -11.3808,-131.25 L -10.8373,-131.389 L -10.2806,-131.46 L 10.2806,-131.46 L 10.8373,-131.389
 L 11.3808,-131.25 L 11.9026,-131.043 L 12.3944,-130.773 L 12.8483,-130.443 L 13.2574,-130.059 L 13.6151,-129.627
 L 13.9158,-129.153 L 14.1547,-128.645 L 14.3281,-128.111 L 14.4333,-127.56 L 14.4685,-127 L 14.4685,-107
 L 14.4333,-106.44 L 14.3281,-105.889 L 14.1547,-105.355 L 13.9158,-104.847 L 13.6151,-104.373 L 13.2574,-103.941
 L 12.8483,-103.557 L 12.3944,-103.227 L 11.9026,-102.957 L 11.3808,-102.75 L 10.8373,-102.611 L 10.2806,-102.54
 z
M 7.96844,-122.044 L 8.27254,-122.122 L 8.56444,-122.238 L 8.83955,-122.389 L 9.09355,-122.574 L 9.32242,-122.789
 L 9.52254,-123.031 L 9.69077,-123.296 L 9.82443,-123.58 L 9.92145,-123.878 L 9.98029,-124.187 L 10,-124.5
 L 9.98029,-124.813 L 9.92145,-125.122 L 9.82443,-125.42 L 9.69077,-125.704 L 9.52254,-125.969 L 9.32242,-126.211
 L 9.09355,-126.426 L 8.83955,-126.611 L 8.56444,-126.762 L 8.27254,-126.878 L 7.96844,-126.956 L 7.65697,-126.995
 L 7.34302,-126.995 L 7.03154,-126.956 L 6.72745,-126.878 L 6.43555,-126.762 L 6.16043,-126.611 L 5.90643,-126.426
 L 5.67757,-126.211 L 5.47745,-125.969 L 5.30922,-125.704 L 5.17555,-125.42 L 5.07854,-125.122 L 5.0197,-124.813
 L 5,-124.5 L 5.0197,-124.187 L 5.07854,-123.878 L 5.17555,-123.58 L 5.30922,-123.296 L 5.47745,-123.031
 L 5.67757,-122.789 L 5.90643,-122.574 L 6.16043,-122.389 L 6.43555,-122.238 L 6.72745,-122.122 L 7.03154,-122.044
 L 7.34302,-122.005 L 7.65697,-122.005 z
M 7.40581,-123.003 L 7.21892,-123.027 L 7.03647,-123.073 L 6.86133,-123.143 L 6.69626,-123.234 L 6.54385,-123.344
 L 6.40654,-123.473 L 6.28647,-123.618 L 6.18553,-123.777 L 6.10533,-123.948 L 6.04712,-124.127 L 6.01183,-124.312
 L 6,-124.5 L 6.01183,-124.688 L 6.04712,-124.873 L 6.10533,-125.052 L 6.18553,-125.223 L 6.28647,-125.382
 L 6.40654,-125.527 L 6.54385,-125.656 L 6.69626,-125.766 L 6.86133,-125.857 L 7.03647,-125.927 L 7.21892,-125.973
 L 7.40581,-125.997 L 7.59418,-125.997 L 7.78107,-125.973 L 7.96352,-125.927 L 8.13866,-125.857 L 8.30373,-125.766
 L 8.45613,-125.656 L 8.59344,-125.527 L 8.71352,-125.382 L 8.81445,-125.223 L 8.89465,-125.052 L 8.95287,-124.873
 L 8.98816,-124.688 L 9,-124.5 L 8.98816,-124.312 L 8.95287,-124.127 L 8.89465,-123.948 L 8.81445,-123.777
 L 8.71352,-123.618 L 8.59344,-123.473 L 8.45613,-123.344 L 8.30373,-123.234 L 8.13866,-123.143 L 7.96352,-123.073
 L 7.78107,-123.027 L 7.59418,-123.003 z
M -7.59418,-108.003 L -7.78107,-108.027 L -7.96352,-108.073 L -8.13866,-108.143 L -8.30373,-108.234 L -8.45613,-108.344
 L -8.59344,-108.473 L -8.71352,-108.618 L -8.81445,-108.777 L -8.89465,-108.948 L -8.95287,-109.127 L -8.98816,-109.312
 L -9,-109.5 L -8.98816,-109.688 L -8.95287,-109.873 L -8.89465,-110.052 L -8.81445,-110.223 L -8.71352,-110.382
 L -8.59344,-110.527 L -8.45613,-110.656 L -8.30373,-110.766 L -8.13866,-110.857 L -7.96352,-110.927 L -7.78107,-110.973
 L -7.59418,-110.997 L -7.40581,-110.997 L -7.21892,-110.973 L -7.03647,-110.927 L -6.86133,-110.857 L -6.69626,-110.766
 L -6.54385,-110.656 L -6.40654,-110.527 L -6.28647,-110.382 L -6.18553,-110.223 L -6.10533,-110.052 L -6.04712,-109.873
 L -6.01183,-109.688 L -6,-109.5 L -6.01183,-109.312 L -6.04712,-109.127 L -6.10533,-108.948 L -6.18553,-108.777
 L -6.28647,-108.618 L -6.40654,-108.473 L -6.54385,-108.344 L -6.69626,-108.234 L -6.86133,-108.143 L -7.03647,-108.073
 L -7.21892,-108.027 L -7.40581,-108.003 z
M 10.9369,-63.0886 L 11.5451,-63.2447 L 12.1289,-63.4759 L 12.6791,-63.7784 L 13.1871,-64.1474 L 13.6448,-64.5773
 L 14.0451,-65.0611 L 14.3815,-65.5912 L 14.6489,-66.1594 L 14.8429,-66.7566 L 14.9606,-67.3733 L 15,-68
 L 15,-88 L 14.9606,-88.6267 L 14.8429,-89.2434 L 14.6489,-89.8406 L 14.3815,-90.4088 L 14.0451,-90.9389
 L 13.6448,-91.4227 L 13.1871,-91.8526 L 12.6791,-92.2216 L 12.1289,-92.5241 L 11.5451,-92.7553 L 10.9369,-92.9114
 L 10.3139,-92.9901 L -10.3139,-92.9901 L -10.9369,-92.9114 L -11.5451,-92.7553 L -12.1289,-92.5241 L -12.6791,-92.2216
 L -13.1871,-91.8526 L -13.6448,-91.4227 L -14.0451,-90.9389 L -14.3815,-90.4088 L -14.6489,-89.8406 L -14.8429,-89.2434
 L -14.9606,-88.6267 L -15,-88 L -15,-68 L -14.9606,-67.3733 L -14.8429,-66.7566 L -14.6489,-66.1594
 L -14.3815,-65.5912 L -14.0451,-65.0611 L -13.6448,-64.5773 L -13.1871,-64.1474 L -12.6791,-63.7784 L -12.1289,-63.4759
 L -11.5451,-63.2447 L -10.9369,-63.0886 L -10.3139,-63.0099 L 10.3139,-63.0099 z
M -2.87805,-65.1822 L -2.61845,-65.5912 L -2.3511,-66.1594 L -2.15707,-66.7566 L -2.03941,-67.3733 L -2,-68
 L -2,-71 L -2.03941,-71.6267 L -2.15707,-72.2435 L -2.3511,-72.8406 L -2.61845,-73.4088 L -2.95491,-73.9389
 L -3.35515,-74.4227 L -3.81287,-74.8526 L -4.32086,-75.2216 L -4.87109,-75.5241 L -5.45491,-75.7553 L -6.06308,-75.9114
 L -6.68604,-75.9901 L -10.3139,-75.9901 L -10.9369,-75.9114 L -11.5451,-75.7553 L -12.1289,-75.5241 L -12.6791,-75.2216
 L -12.8234,-75.1168 L -12.8234,-88 L -12.8011,-88.3539 L -12.7347,-88.7021 L -12.6251,-89.0394 L -12.4742,-89.3602
 L -12.2842,-89.6595 L -12.0582,-89.9328 L -11.7997,-90.1755 L -11.5128,-90.3839 L -11.2021,-90.5547 L -10.8725,-90.6852
 L -10.5291,-90.7734 L -10.1773,-90.8178 L 2.87805,-90.8178 L 2.61845,-90.4088 L 2.3511,-89.8406 L 2.15707,-89.2434
 L 2.03941,-88.6267 L 2,-88 L 2,-85 L 2.03941,-84.3733 L 2.15707,-83.7565 L 2.3511,-83.1594
 L 2.61845,-82.5912 L 2.95491,-82.0611 L 3.35515,-81.5773 L 3.81287,-81.1474 L 4.32086,-80.7784 L 4.87109,-80.4759
 L 5.45491,-80.2447 L 6.06308,-80.0886 L 6.68604,-80.0099 L 10.3139,-80.0099 L 10.9369,-80.0886 L 11.5451,-80.2447
 L 12.1289,-80.4759 L 12.6791,-80.7784 L 12.8234,-80.8832 L 12.8234,-68 L 12.8011,-67.6461 L 12.7347,-67.2979
 L 12.6251,-66.9606 L 12.4742,-66.6398 L 12.2842,-66.3405 L 12.0582,-66.0672 L 11.7997,-65.8245 L 11.5128,-65.6161
 L 11.2021,-65.4453 L 10.8725,-65.3148 L 10.5291,-65.2266 L 10.1773,-65.1822 z
M 7.34929,-83.1047 L 7.05028,-83.1425 L 6.75835,-83.2175 L 6.47812,-83.3284 L 6.214,-83.4736 L 5.97017,-83.6508
 L 5.75047,-83.8571 L 5.55835,-84.0893 L 5.39685,-84.3438 L 5.26852,-84.6165 L 5.1754,-84.9031 L 5.11891,-85.1992
 L 5.09999,-85.5 L 5.11891,-85.8008 L 5.1754,-86.0968 L 5.26852,-86.3835 L 5.39685,-86.6562 L 5.55835,-86.9107
 L 5.75047,-87.1429 L 5.97017,-87.3492 L 6.214,-87.5264 L 6.47812,-87.6716 L 6.75835,-87.7825 L 7.05028,-87.8575
 L 7.34929,-87.8953 L 7.6507,-87.8953 L 7.94971,-87.8575 L 8.24164,-87.7825 L 8.52187,-87.6716 L 8.78598,-87.5264
 L 9.02982,-87.3492 L 9.24951,-87.1429 L 9.44164,-86.9107 L 9.60313,-86.6562 L 9.73146,-86.3835 L 9.82458,-86.0968
 L 9.88107,-85.8008 L 9.89999,-85.5 L 9.88107,-85.1992 L 9.82458,-84.9031 L 9.73146,-84.6165 L 9.60313,-84.3438
 L 9.44164,-84.0893 L 9.24951,-83.8571 L 9.02982,-83.6508 L 8.78598,-83.4736 L 8.52187,-83.3284 L 8.24164,-83.2175
 L 7.94971,-83.1425 L 7.6507,-83.1047 z
M -7.6507,-68.1047 L -7.94971,-68.1425 L -8.24164,-68.2175 L -8.52187,-68.3284 L -8.78598,-68.4736 L -9.02982,-68.6508
 L -9.24951,-68.8571 L -9.44164,-69.0893 L -9.60313,-69.3438 L -9.73146,-69.6165 L -9.82458,-69.9032 L -9.88107,-70.1992
 L -9.89999,-70.5 L -9.88107,-70.8008 L -9.82458,-71.0969 L -9.73146,-71.3835 L -9.60313,-71.6562 L -9.44164,-71.9107
 L -9.24951,-72.1429 L -9.02982,-72.3492 L -8.78598,-72.5264 L -8.52187,-72.6716 L -8.24164,-72.7825 L -7.94971,-72.8575
 L -7.6507,-72.8953 L -7.34929,-72.8953 L -7.05028,-72.8575 L -6.75835,-72.7825 L -6.47812,-72.6716 L -6.214,-72.5264
 L -5.97017,-72.3492 L -5.75047,-72.1429 L -5.55835,-71.9107 L -5.39685,-71.6562 L -5.26852,-71.3835 L -5.1754,-71.0969
 L -5.11891,-70.8008 L -5.09999,-70.5 L -5.11891,-70.1992 L -5.1754,-69.9032 L -5.26852,-69.6165 L -5.39685,-69.3438
 L -5.55835,-69.0893 L -5.75047,-68.8571 L -5.97017,-68.6508 L -6.214,-68.4736 L -6.47812,-68.3284 L -6.75835,-68.2175
 L -7.05028,-68.1425 L -7.34929,-68.1047 z
" stroke="black" fill="lightgray" stroke-width="0.5"/>
</svg>
