<?xml version="1.0" standalone="no"?>
<!DOCTYPE svg PUBLIC "-//W3C//DTD SVG 1.1//EN" "http://www.w3.org/Graphics/SVG/1.1/DTD/svg11.dtd">
<svg width="30mm" height="108mm" viewBox="-15 -171 30 108" xmlns="http://www.w3.org/2000/svg" version="1.1">
<title>OpenSCAD Model</title>
<path d="
M 10.9369,-141.089 L 11.5451,-141.245 L 12.1289,-141.476 L 12.6791,-141.778 L 13.1871,-142.147 L 13.6448,-142.577
 L 14.0451,-143.061 L 14.3815,-143.591 L 14.6489,-144.159 L 14.8429,-144.757 L 14.9606,-145.373 L 15,-146
 L 15,-166 L 14.9606,-166.627 L 14.8429,-167.243 L 14.6489,-167.841 L 14.3815,-168.409 L 14.0451,-168.939
 L 13.6448,-169.423 L 13.1871,-169.853 L 12.6791,-170.222 L 12.1289,-170.524 L 11.5451,-170.755 L 10.9369,-170.911
 L 10.3139,-170.99 L -10.3139,-170.99 L -10.9369,-170.911 L -11.5451,-170.755 L -12.1289,-170.524 L -12.6791,-170.222
 L -13.1871,-169.853 L -13.6448,-169.423 L -14.0451,-168.939 L -14.3815,-168.409 L -14.6489,-167.841 L -14.8429,-167.243
 L -14.9606,-166.627 L -15,-166 L -15,-146 L -14.9606,-145.373 L -14.8429,-144.757 L -14.6489,-144.159
 L -14.3815,-143.591 L -14.0451,-143.061 L -13.6448,-142.577 L -13.1871,-142.147 L -12.6791,-141.778 L -12.1289,-141.476
 L -11.5451,-141.245 L -10.9369,-141.089 L -10.3139,-141.01 L 10.3139,-141.01 z
M -10.0482,-141.509 L -10.6401,-141.584 L -11.2178,-141.732 L -11.7724,-141.952 L -12.2952,-142.239 L -12.7778,-142.59
 L -13.2126,-142.998 L -13.5928,-143.458 L -13.9124,-143.962 L -14.1664,-144.501 L -14.3508,-145.069 L -14.4625,-145.655
 L -14.5,-146.25 L -14.5,-165.75 L -14.4625,-166.345 L -14.3508,-166.931 L -14.1664,-167.499 L -13.9124,-168.038
 L -13.5928,-168.542 L -13.2126,-169.002 L -12.7778,-169.41 L -12.2952,-169.761 L -11.7724,-170.048 L -11.2178,-170.268
 L -10.6401,-170.416 L -10.0482,-170.491 L 10.0482,-170.491 L 10.6401,-170.416 L 11.2178,-170.268 L 11.7724,-170.048
 L 12.2952,-169.761 L 12.7778,-169.41 L 13.2126,-169.002 L 13.5928,-168.542 L 13.9124,-168.038 L 14.1664,-167.499
 L 14.3508,-166.931 L 14.4625,-166.345 L 14.5,-165.75 L 14.5,-146.25 L 14.4625,-145.655 L 14.3508,-145.069
 L 14.1664,-144.501 L 13.9124,-143.962 L 13.5928,-143.458 L 13.2126,-142.998 L 12.7778,-142.59 L 12.2952,-142.239
 L 11.7724,-141.952 L 11.2178,-141.732 L 10.6401,-141.584 L 10.0482,-141.509 z
M 10.9369,-102.089 L 11.5451,-102.245 L 12.1289,-102.476 L 12.6791,-102.778 L 13.1871,-103.147 L 13.6448,-103.577
 L 14.0451,-104.061 L 14.3815,-104.591 L 14.6489,-105.159 L 14.8429,-105.757 L 14.9606,-106.373 L 15,-107
 L 15,-127 L 14.9606,-127.627 L 14.8429,-128.243 L 14.6489,-128.841 L 14.3815,-129.409 L 14.0451,-129.939
 L 13.6448,-130.423 L 13.1871,-130.853 L 12.6791,-131.222 L 12.1289,-131.524 L 11.5451,-131.755 L 10.9369,-131.911
 L 10.3139,-131.99 L -10.3139,-131.99 L -10.9369,-131.911 L -11.5451,-131.755 L -12.1289,-131.524 L -12.6791,-131.222
 L -13.1871,-130.853 L -13.6448,-130.423 L -14.0451,-129.939 L -14.3815,-129.409 L -14.6489,-128.841 L -14.8429,-128.243
 L -14.9606,-127.627 L -15,-127 L -15,-107 L -14.9606,-106.373 L -14.8429,-105.757 L -14.6489,-105.159
 L -14.3815,-104.591 L -14.0451,-104.061 L -13.6448,-103.577 L -13.1871,-103.147 L -12.6791,-102.778 L -12.1289,-102.476
 L -11.5451,-102.245 L -10.9369,-102.089 L -10.3139,-102.01 L 10.3139,-102.01 z
M -9.99297,-103.388 L -10.4751,-103.449 L -10.9457,-103.57 L -11.3975,-103.749 L -11.8234,-103.983 L -12.2165,-104.269
 L -12.5707,-104.601 L -12.8805,-104.976 L -13.1408,-105.386 L -13.3477,-105.826 L -13.4979,-106.288 L -13.589,-106.765
 L -13.6195,-107.25 L -13.6195,-126.75 L -13.589,-127.235 L -13.4979,-127.712 L -13.3477,-128.174 L -13.1408,-128.614
 L -12.8805,-129.024 L -12.5707,-129.399 L -12.2165,-129.731 L -11.8234,-130.017 L -11.3975,-130.251 L -10.9457,-130.43
 L -10.4751,-130.551 L -9.99297,-130.612 L 9.99297,-130.612 L 10.4751,-130.551 L 10.9457,-130.43 L 11.3975,-130.251
 L 11.8234,-130.017 L 12.2165,-129.731 L 12.5707,-129.399 L 12.8805,-129.024 L 13.1408,-128.614 L 13.3477,-128.174
 L 13.4979,-127.712 L 13.589,-127.235 L 13.6195,-126.75 L 13.6195,-107.25 L 13.589,-106.765 L 13.4979,-106.288
 L 13.3477,-105.826 L 13.1408,-105.386 L 12.8805,-104.976 L 12.5707,-104.601 L 12.2165,-104.269 L 11.8234,-103.983
 L 11.3975,-103.749 L 10.9457,-103.57 L 10.4751,-103.449 L 9.99297,-103.388 z
M 10.9369,-63.0886 L 11.5451,-63.2447 L 12.1289,-63.4759 L 12.6791,-63.7784 L 13.1871,-64.1474 L 13.6448,-64.5773
 L 14.0451,-65.0611 L 14.3815,-65.5912 L 14.6489,-66.1594 L 14.8429,-66.7566 L 14.9606,-67.3733 L 15,-68
 L 15,-88 L 14.9606,-88.6267 L 14.8429,-89.2434 L 14.6489,-89.8406 L 14.3815,-90.4088 L 14.0451,-90.9389
 L 13.6448,-91.4227 L 13.1871,-91.8526 L 12.6791,-92.2216 L 12.1289,-92.5241 L 11.5451,-92.7553 L 10.9369,-92.9114
 L 10.3139,-92.9901 L -10.3139,-92.9901 L -10.9369,-92.9114 L -11.5451,-92.7553 L -12.1289,-92.5241 L -12.6791,-92.2216
 L -13.1871,-91.8526 L -13.6448,-91.4227 L -14.0451,-90.9389 L -14.3815,-90.4088 L -14.6489,-89.8406 L -14.8429,-89.2434
 L -14.9606,-88.6267 L -15,-88 L -15,-68 L -14.9606,-67.3733 L -14.8429,-66.7566 L -14.6489,-66.1594
 L -14.3815,-65.5912 L -14.0451,-65.0611 L -13.6448,-64.5773 L -13.1871,-64.1474 L -12.6791,-63.7784 L -12.1289,-63.4759
 L -11.5451,-63.2447 L -10.9369,-63.0886 L -10.3139,-63.0099 L 10.3139,-63.0099 z
M 7.40581,-84.0029 L 7.21892,-84.0266 L 7.03647,-84.0734 L 6.86133,-84.1427 L 6.69626,-84.2335 L 6.54385,-84.3442
 L 6.40654,-84.4732 L 6.28647,-84.6183 L 6.18553,-84.7774 L 6.10533,-84.9478 L 6.04712,-85.127 L 6.01183,-85.312
 L 6,-85.5 L 6.01183,-85.688 L 6.04712,-85.873 L 6.10533,-86.0522 L 6.18553,-86.2226 L 6.28647,-86.3817
 L 6.40654,-86.5268 L 6.54385,-86.6558 L 6.69626,-86.7665 L 6.86133,-86.8572 L 7.03647,-86.9266 L 7.21892,-86.9734
 L 7.40581,-86.997 L 7.59418,-86.997 L 7.78107,-86.9734 L 7.96352,-86.9266 L 8.13866,-86.8572 L 8.30373,-86.7665
 L 8.45613,-86.6558 L 8.59344,-86.5268 L 8.71352,-86.3817 L 8.81445,-86.2226 L 8.89465,-86.0522 L 8.95287,-85.873
 L 8.98816,-85.688 L 9,-85.5 L 8.98816,-85.312 L 8.95287,-85.127 L 8.89465,-84.9478 L 8.81445,-84.7774
 L 8.71352,-84.6183 L 8.59344,-84.4732 L 8.45613,-84.3442 L 8.30373,-84.2335 L 8.13866,-84.1427 L 7.96352,-84.0734
 L 7.78107,-84.0266 L 7.59418,-84.0029 z
M -7.59418,-84.0029 L -7.78107,-84.0266 L -7.96352,-84.0734 L -8.13866,-84.1427 L -8.30373,-84.2335 L -8.45613,-84.3442
 L -8.59344,-84.4732 L -8.71352,-84.6183 L -8.81445,-84.7774 L -8.89465,-84.9478 L -8.95287,-85.127 L -8.98816,-85.312
 L -9,-85.5 L -8.98816,-85.688 L -8.95287,-85.873 L -8.89465,-86.0522 L -8.81445,-86.2226 L -8.71352,-86.3817
 L -8.59344,-86.5268 L -8.45613,-86.6558 L -8.30373,-86.7665 L -8.13866,-86.8572 L -7.96352,-86.9266 L -7.78107,-86.9734
 L -7.59418,-86.997 L -7.40581,-86.997 L -7.21892,-86.9734 L -7.03647,-86.9266 L -6.86133,-86.8572 L -6.69626,-86.7665
 L -6.54385,-86.6558 L -6.40654,-86.5268 L -6.28647,-86.3817 L -6.18553,-86.2226 L -6.10533,-86.0522 L -6.04712,-85.873
 L -6.01183,-85.688 L -6,-85.5 L -6.01183,-85.312 L -6.04712,-85.127 L -6.10533,-84.9478 L -6.18553,-84.7774
 L -6.28647,-84.6183 L -6.40654,-84.4732 L -6.54385,-84.3442 L -6.69626,-84.2335 L -6.86133,-84.1427 L -7.03647,-84.0734
 L -7.21892,-84.0266 L -7.40581,-84.0029 z
M -7.59418,-69.003 L -7.78107,-69.0266 L -7.96352,-69.0734 L -8.13866,-69.1428 L -8.30373,-69.2335 L -8.45613,-69.3442
 L -8.59344,-69.4732 L -8.71352,-69.6183 L -8.81445,-69.7774 L -8.89465,-69.9478 L -8.95287,-70.127 L -8.98816,-70.312
 L -9,-70.5 L -8.98816,-70.688 L -8.95287,-70.873 L -8.89465,-71.0522 L -8.81445,-71.2226 L -8.71352,-71.3817
 L -8.59344,-71.5268 L -8.45613,-71.6558 L -8.30373,-71.7665 L -8.13866,-71.8573 L -7.96352,-71.9266 L -7.78107,-71.9734
 L -7.59418,-71.9971 L -7.40581,-71.9971 L -7.21892,-71.9734 L -7.03647,-71.9266 L -6.86133,-71.8573 L -6.69626,-71.7665
 L -6.54385,-71.6558 L -6.40654,-71.5268 L -6.28647,-71.3817 L -6.18553,-71.2226 L -6.10533,-71.0522 L -6.04712,-70.873
 L -6.01183,-70.688 L -6,-70.5 L -6.01183,-70.312 L -6.04712,-70.127 L -6.10533,-69.9478 L -6.18553,-69.7774
 L -6.28647,-69.6183 L -6.40654,-69.4732 L -6.54385,-69.3442 L -6.69626,-69.2335 L -6.86133,-69.1428 L -7.03647,-69.0734
 L -7.21892,-69.0266 L -7.40581,-69.003 z
M 7.40581,-69.003 L 7.21892,-69.0266 L 7.03647,-69.0734 L 6.86133,-69.1428 L 6.69626,-69.2335 L 6.54385,-69.3442
 L 6.40654,-69.4732 L 6.28647,-69.6183 L 6.18553,-69.7774 L 6.10533,-69.9478 L 6.04712,-70.127 L 6.01183,-70.312
 L 6,-70.5 L 6.01183,-70.688 L 6.04712,-70.873 L 6.10533,-71.0522 L 6.18553,-71.2226 L 6.28647,-71.3817
 L 6.40654,-71.5268 L 6.54385,-71.6558 L 6.69626,-71.7665 L 6.86133,-71.8573 L 7.03647,-71.9266 L 7.21892,-71.9734
 L 7.40581,-71.9971 L 7.59418,-71.9971 L 7.78107,-71.9734 L 7.96352,-71.9266 L 8.13866,-71.8573 L 8.30373,-71.7665
 L 8.45613,-71.6558 L 8.59344,-71.5268 L 8.71352,-71.3817 L 8.81445,-71.2226 L 8.89465,-71.0522 L 8.95287,-70.873
 L 8.98816,-70.688 L 9,-70.5 L 8.98816,-70.312 L 8.95287,-70.127 L 8.89465,-69.9478 L 8.81445,-69.7774
 L 8.71352,-69.6183 L 8.59344,-69.4732 L 8.45613,-69.3442 L 8.30373,-69.2335 L 8.13866,-69.1428 L 7.96352,-69.0734
 L 7.78107,-69.0266 L 7.59418,-69.003 z
" stroke="black" fill="lightgray" stroke-width="0.5"/>
</svg>
