<?xml version="1.0" standalone="no"?>
<!DOCTYPE svg PUBLIC "-//W3C//DTD SVG 1.1//EN" "http://www.w3.org/Graphics/SVG/1.1/DTD/svg11.dtd">
<svg width="16mm" height="262mm" viewBox="-8 -455 16 262" xmlns="http://www.w3.org/2000/svg" version="1.1">
<title>OpenSCAD Model</title>
<path d="
M 3.4369,-409.589 L 4.04507,-409.745 L 4.62889,-409.976 L 5.17912,-410.278 L 5.68712,-410.647 L 6.14484,-411.077
 L 6.54507,-411.561 L 6.88153,-412.091 L 7.14888,-412.659 L 7.34291,-413.257 L 7.46057,-413.873 L 7.5,-414.5
 L 7.5,-449.5 L 7.46057,-450.127 L 7.34291,-450.743 L 7.14888,-451.341 L 6.88153,-451.909 L 6.54507,-452.439
 L 6.14484,-452.923 L 5.68712,-453.353 L 5.17912,-453.722 L 4.62889,-454.024 L 4.04507,-454.255 L 3.4369,-454.411
 L 2.81395,-454.49 L -2.81395,-454.49 L -3.4369,-454.411 L -4.04507,-454.255 L -4.62889,-454.024 L -5.17912,-453.722
 L -5.68712,-453.353 L -6.14484,-452.923 L -6.54507,-452.439 L -6.88153,-451.909 L -7.14888,-451.341 L -7.34291,-450.743
 L -7.46057,-450.127 L -7.5,-449.5 L -7.5,-414.5 L -7.46057,-413.873 L -7.34291,-413.257 L -7.14888,-412.659
 L -6.88153,-412.091 L -6.54507,-411.561 L -6.14484,-411.077 L -5.68712,-410.647 L -5.17912,-410.278 L -4.62889,-409.976
 L -4.04507,-409.745 L -3.4369,-409.589 L -2.81395,-409.51 L 2.81395,-409.51 z
M -2.54825,-410.009 L -3.14006,-410.084 L -3.71782,-410.232 L -4.27245,-410.452 L -4.79517,-410.739 L -5.27776,-411.09
 L -5.7126,-411.498 L -6.09282,-411.958 L -6.41245,-412.462 L -6.66643,-413.001 L -6.85077,-413.569 L -6.96254,-414.155
 L -7,-414.75 L -7,-449.25 L -6.96254,-449.845 L -6.85077,-450.431 L -6.66643,-450.999 L -6.41245,-451.538
 L -6.09282,-452.042 L -5.7126,-452.502 L -5.27776,-452.91 L -4.79517,-453.261 L -4.27245,-453.548 L -3.71782,-453.768
 L -3.14006,-453.916 L -2.54825,-453.991 L 2.54825,-453.991 L 3.14006,-453.916 L 3.71782,-453.768 L 4.27245,-453.548
 L 4.79517,-453.261 L 5.27776,-452.91 L 5.7126,-452.502 L 6.09282,-452.042 L 6.41245,-451.538 L 6.66643,-450.999
 L 6.85077,-450.431 L 6.96254,-449.845 L 7,-449.25 L 7,-414.75 L 6.96254,-414.155 L 6.85077,-413.569
 L 6.66643,-413.001 L 6.41245,-412.462 L 6.09282,-411.958 L 5.7126,-411.498 L 5.27776,-411.09 L 4.79517,-410.739
 L 4.27245,-410.452 L 3.71782,-410.232 L 3.14006,-410.084 L 2.54825,-410.009 z
M 3.4369,-355.589 L 4.04507,-355.745 L 4.62889,-355.976 L 5.17912,-356.278 L 5.68712,-356.647 L 6.14484,-357.077
 L 6.54507,-357.561 L 6.88153,-358.091 L 7.14888,-358.659 L 7.34291,-359.257 L 7.46057,-359.873 L 7.5,-360.5
 L 7.5,-395.5 L 7.46057,-396.127 L 7.34291,-396.743 L 7.14888,-397.341 L 6.88153,-397.909 L 6.54507,-398.439
 L 6.14484,-398.923 L 5.68712,-399.353 L 5.17912,-399.722 L 4.62889,-400.024 L 4.04507,-400.255 L 3.4369,-400.411
 L 2.81395,-400.49 L -2.81395,-400.49 L -3.4369,-400.411 L -4.04507,-400.255 L -4.62889,-400.024 L -5.17912,-399.722
 L -5.68712,-399.353 L -6.14484,-398.923 L -6.54507,-398.439 L -6.88153,-397.909 L -7.14888,-397.341 L -7.34291,-396.743
 L -7.46057,-396.127 L -7.5,-395.5 L -7.5,-360.5 L -7.46057,-359.873 L -7.34291,-359.257 L -7.14888,-358.659
 L -6.88153,-358.091 L -6.54507,-357.561 L -6.14484,-357.077 L -5.68712,-356.647 L -5.17912,-356.278 L -4.62889,-355.976
 L -4.04507,-355.745 L -3.4369,-355.589 L -2.81395,-355.51 L 2.81395,-355.51 z
M -2.54825,-356.009 L -3.14006,-356.084 L -3.71782,-356.232 L -4.27245,-356.452 L -4.79517,-356.739 L -5.27776,-357.09
 L -5.7126,-357.498 L -6.09282,-357.958 L -6.41245,-358.462 L -6.66643,-359.001 L -6.85077,-359.569 L -6.96254,-360.155
 L -7,-360.75 L -7,-395.25 L -6.96254,-395.845 L -6.85077,-396.431 L -6.66643,-396.999 L -6.41245,-397.538
 L -6.09282,-398.042 L -5.7126,-398.502 L -5.27776,-398.91 L -4.79517,-399.261 L -4.27245,-399.548 L -3.71782,-399.768
 L -3.14006,-399.916 L -2.54825,-399.991 L 2.54825,-399.991 L 3.14006,-399.916 L 3.71782,-399.768 L 4.27245,-399.548
 L 4.79517,-399.261 L 5.27776,-398.91 L 5.7126,-398.502 L 6.09282,-398.042 L 6.41245,-397.538 L 6.66643,-396.999
 L 6.85077,-396.431 L 6.96254,-395.845 L 7,-395.25 L 7,-360.75 L 6.96254,-360.155 L 6.85077,-359.569
 L 6.66643,-359.001 L 6.41245,-358.462 L 6.09282,-357.958 L 5.7126,-357.498 L 5.27776,-357.09 L 4.79517,-356.739
 L 4.27245,-356.452 L 3.71782,-356.232 L 3.14006,-356.084 L 2.54825,-356.009 z
M 3.4369,-301.589 L 4.04507,-301.745 L 4.62889,-301.976 L 5.17912,-302.278 L 5.68712,-302.647 L 6.14484,-303.077
 L 6.54507,-303.561 L 6.88153,-304.091 L 7.14888,-304.659 L 7.34291,-305.257 L 7.46057,-305.873 L 7.5,-306.5
 L 7.5,-341.5 L 7.46057,-342.127 L 7.34291,-342.743 L 7.14888,-343.341 L 6.88153,-343.909 L 6.54507,-344.439
 L 6.14484,-344.923 L 5.68712,-345.353 L 5.17912,-345.722 L 4.62889,-346.024 L 4.04507,-346.255 L 3.4369,-346.411
 L 2.81395,-346.49 L -2.81395,-346.49 L -3.4369,-346.411 L -4.04507,-346.255 L -4.62889,-346.024 L -5.17912,-345.722
 L -5.68712,-345.353 L -6.14484,-344.923 L -6.54507,-344.439 L -6.88153,-343.909 L -7.14888,-343.341 L -7.34291,-342.743
 L -7.46057,-342.127 L -7.5,-341.5 L -7.5,-306.5 L -7.46057,-305.873 L -7.34291,-305.257 L -7.14888,-304.659
 L -6.88153,-304.091 L -6.54507,-303.561 L -6.14484,-303.077 L -5.68712,-302.647 L -5.17912,-302.278 L -4.62889,-301.976
 L -4.04507,-301.745 L -3.4369,-301.589 L -2.81395,-301.51 L 2.81395,-301.51 z
M -2.54825,-302.009 L -3.14006,-302.084 L -3.71782,-302.232 L -4.27245,-302.452 L -4.79517,-302.739 L -5.27776,-303.09
 L -5.7126,-303.498 L -6.09282,-303.958 L -6.41245,-304.462 L -6.66643,-305.001 L -6.85077,-305.569 L -6.96254,-306.155
 L -7,-306.75 L -7,-341.25 L -6.96254,-341.845 L -6.85077,-342.431 L -6.66643,-342.999 L -6.41245,-343.538
 L -6.09282,-344.042 L -5.7126,-344.502 L -5.27776,-344.91 L -4.79517,-345.261 L -4.27245,-345.548 L -3.71782,-345.768
 L -3.14006,-345.916 L -2.54825,-345.991 L 2.54825,-345.991 L 3.14006,-345.916 L 3.71782,-345.768 L 4.27245,-345.548
 L 4.79517,-345.261 L 5.27776,-344.91 L 5.7126,-344.502 L 6.09282,-344.042 L 6.41245,-343.538 L 6.66643,-342.999
 L 6.85077,-342.431 L 6.96254,-341.845 L 7,-341.25 L 7,-306.75 L 6.96254,-306.155 L 6.85077,-305.569
 L 6.66643,-305.001 L 6.41245,-304.462 L 6.09282,-303.958 L 5.7126,-303.498 L 5.27776,-303.09 L 4.79517,-302.739
 L 4.27245,-302.452 L 3.71782,-302.232 L 3.14006,-302.084 L 2.54825,-302.009 z
M 3.4369,-247.589 L 4.04507,-247.745 L 4.62889,-247.976 L 5.17912,-248.278 L 5.68712,-248.647 L 6.14484,-249.077
 L 6.54507,-249.561 L 6.88153,-250.091 L 7.14888,-250.659 L 7.34291,-251.257 L 7.46057,-251.873 L 7.5,-252.5
 L 7.5,-287.5 L 7.46057,-288.127 L 7.34291,-288.743 L 7.14888,-289.341 L 6.88153,-289.909 L 6.54507,-290.439
 L 6.14484,-290.923 L 5.68712,-291.353 L 5.17912,-291.722 L 4.62889,-292.024 L 4.04507,-292.255 L 3.4369,-292.411
 L 2.81395,-292.49 L -2.81395,-292.49 L -3.4369,-292.411 L -4.04507,-292.255 L -4.62889,-292.024 L -5.17912,-291.722
 L -5.68712,-291.353 L -6.14484,-290.923 L -6.54507,-290.439 L -6.88153,-289.909 L -7.14888,-289.341 L -7.34291,-288.743
 L -7.46057,-288.127 L -7.5,-287.5 L -7.5,-252.5 L -7.46057,-251.873 L -7.34291,-251.257 L -7.14888,-250.659
 L -6.88153,-250.091 L -6.54507,-249.561 L -6.14484,-249.077 L -5.68712,-248.647 L -5.17912,-248.278 L -4.62889,-247.976
 L -4.04507,-247.745 L -3.4369,-247.589 L -2.81395,-247.51 L 2.81395,-247.51 z
M -2.49297,-248.888 L -2.97505,-248.949 L -3.44572,-249.07 L -3.89754,-249.249 L -4.32336,-249.483 L -4.71649,-249.769
 L -5.07071,-250.101 L -5.38046,-250.476 L -5.64084,-250.886 L -5.84773,-251.326 L -5.99789,-251.788 L -6.08896,-252.265
 L -6.11946,-252.75 L -6.11946,-287.25 L -6.08896,-287.735 L -5.99789,-288.212 L -5.84773,-288.674 L -5.64084,-289.114
 L -5.38046,-289.524 L -5.07071,-289.899 L -4.71649,-290.231 L -4.32336,-290.517 L -3.89754,-290.751 L -3.44572,-290.93
 L -2.97505,-291.051 L -2.49297,-291.112 L 2.49297,-291.112 L 2.97505,-291.051 L 3.44572,-290.93 L 3.89754,-290.751
 L 4.32336,-290.517 L 4.71649,-290.231 L 5.07071,-289.899 L 5.38046,-289.524 L 5.64084,-289.114 L 5.84773,-288.674
 L 5.99789,-288.212 L 6.08896,-287.735 L 6.11946,-287.25 L 6.11946,-252.75 L 6.08896,-252.265 L 5.99789,-251.788
 L 5.84773,-251.326 L 5.64084,-250.886 L 5.38046,-250.476 L 5.07071,-250.101 L 4.71649,-249.769 L 4.32336,-249.483
 L 3.89754,-249.249 L 3.44572,-249.07 L 2.97505,-248.949 L 2.49297,-248.888 z
M 3.4369,-193.589 L 4.04507,-193.745 L 4.62889,-193.976 L 5.17912,-194.278 L 5.68712,-194.647 L 6.14484,-195.077
 L 6.54507,-195.561 L 6.88153,-196.091 L 7.14888,-196.659 L 7.34291,-197.257 L 7.46057,-197.873 L 7.5,-198.5
 L 7.5,-233.5 L 7.46057,-234.127 L 7.34291,-234.743 L 7.14888,-235.341 L 6.88153,-235.909 L 6.54507,-236.439
 L 6.14484,-236.923 L 5.68712,-237.353 L 5.17912,-237.722 L 4.62889,-238.024 L 4.04507,-238.255 L 3.4369,-238.411
 L 2.81395,-238.49 L -2.81395,-238.49 L -3.4369,-238.411 L -4.04507,-238.255 L -4.62889,-238.024 L -5.17912,-237.722
 L -5.68712,-237.353 L -6.14484,-236.923 L -6.54507,-236.439 L -6.88153,-235.909 L -7.14888,-235.341 L -7.34291,-234.743
 L -7.46057,-234.127 L -7.5,-233.5 L -7.5,-198.5 L -7.46057,-197.873 L -7.34291,-197.257 L -7.14888,-196.659
 L -6.88153,-196.091 L -6.54507,-195.561 L -6.14484,-195.077 L -5.68712,-194.647 L -5.17912,-194.278 L -4.62889,-193.976
 L -4.04507,-193.745 L -3.4369,-193.589 L -2.81395,-193.51 L 2.81395,-193.51 z
M -0.0941772,-229.503 L -0.281067,-229.527 L -0.463516,-229.573 L -0.638657,-229.643 L -0.803726,-229.734 L -0.956131,-229.844
 L -1.09344,-229.973 L -1.21352,-230.118 L -1.31445,-230.277 L -1.39465,-230.448 L -1.45287,-230.627 L -1.48816,-230.812
 L -1.5,-231 L -1.48816,-231.188 L -1.45287,-231.373 L -1.39465,-231.552 L -1.31445,-231.723 L -1.21352,-231.882
 L -1.09344,-232.027 L -0.956131,-232.156 L -0.803726,-232.266 L -0.638657,-232.357 L -0.463516,-232.427 L -0.281067,-232.473
 L -0.0941772,-232.497 L 0.0941772,-232.497 L 0.281067,-232.473 L 0.463516,-232.427 L 0.638657,-232.357 L 0.803726,-232.266
 L 0.956131,-232.156 L 1.09344,-232.027 L 1.21352,-231.882 L 1.31445,-231.723 L 1.39465,-231.552 L 1.45287,-231.373
 L 1.48816,-231.188 L 1.5,-231 L 1.48816,-230.812 L 1.45287,-230.627 L 1.39465,-230.448 L 1.31445,-230.277
 L 1.21352,-230.118 L 1.09344,-229.973 L 0.956131,-229.844 L 0.803726,-229.734 L 0.638657,-229.643 L 0.463516,-229.573
 L 0.281067,-229.527 L 0.0941772,-229.503 z
M -0.0941772,-199.503 L -0.281067,-199.527 L -0.463516,-199.573 L -0.638657,-199.643 L -0.803726,-199.734 L -0.956131,-199.844
 L -1.09344,-199.973 L -1.21352,-200.118 L -1.31445,-200.277 L -1.39465,-200.448 L -1.45287,-200.627 L -1.48816,-200.812
 L -1.5,-201 L -1.48816,-201.188 L -1.45287,-201.373 L -1.39465,-201.552 L -1.31445,-201.723 L -1.21352,-201.882
 L -1.09344,-202.027 L -0.956131,-202.156 L -0.803726,-202.266 L -0.638657,-202.357 L -0.463516,-202.427 L -0.281067,-202.473
 L -0.0941772,-202.497 L 0.0941772,-202.497 L 0.281067,-202.473 L 0.463516,-202.427 L 0.638657,-202.357 L 0.803726,-202.266
 L 0.956131,-202.156 L 1.09344,-202.027 L 1.21352,-201.882 L 1.31445,-201.723 L 1.39465,-201.552 L 1.45287,-201.373
 L 1.48816,-201.188 L 1.5,-201 L 1.48816,-200.812 L 1.45287,-200.627 L 1.39465,-200.448 L 1.31445,-200.277
 L 1.21352,-200.118 L 1.09344,-199.973 L 0.956131,-199.844 L 0.803726,-199.734 L 0.638657,-199.643 L 0.463516,-199.573
 L 0.281067,-199.527 L 0.0941772,-199.503 z
" stroke="black" fill="lightgray" stroke-width="0.5"/>
</svg>
