<?xml version="1.0" standalone="no"?>
<!DOCTYPE svg PUBLIC "-//W3C//DTD SVG 1.1//EN" "http://www.w3.org/Graphics/SVG/1.1/DTD/svg11.dtd">
<svg width="38mm" height="108mm" viewBox="-19 -171 38 108" xmlns="http://www.w3.org/2000/svg" version="1.1">
<title>OpenSCAD Model</title>
<path d="
M 14.6869,-141.089 L 15.2951,-141.245 L 15.8789,-141.476 L 16.4291,-141.778 L 16.9371,-142.147 L 17.3948,-142.577
 L 17.7951,-143.061 L 18.1315,-143.591 L 18.3989,-144.159 L 18.5929,-144.757 L 18.7106,-145.373 L 18.75,-146
 L 18.75,-166 L 18.7106,-166.627 L 18.5929,-167.243 L 18.3989,-167.841 L 18.1315,-168.409 L 17.7951,-168.939
 L 17.3948,-169.423 L 16.9371,-169.853 L 16.4291,-170.222 L 15.8789,-170.524 L 15.2951,-170.755 L 14.6869,-170.911
 L 14.0639,-170.99 L -14.0639,-170.99 L -14.6869,-170.911 L -15.2951,-170.755 L -15.8789,-170.524 L -16.4291,-170.222
 L -16.9371,-169.853 L -17.3948,-169.423 L -17.7951,-168.939 L -18.1315,-168.409 L -18.3989,-167.841 L -18.5929,-167.243
 L -18.7106,-166.627 L -18.75,-166 L -18.75,-146 L -18.7106,-145.373 L -18.5929,-144.757 L -18.3989,-144.159
 L -18.1315,-143.591 L -17.7951,-143.061 L -17.3948,-142.577 L -16.9371,-142.147 L -16.4291,-141.778 L -15.8789,-141.476
 L -15.2951,-141.245 L -14.6869,-141.089 L -14.0639,-141.01 L 14.0639,-141.01 z
M -8.56104,-141.509 L -8.07086,-141.778 L -7.56287,-142.147 L -7.10515,-142.577 L -6.70491,-143.061 L -6.36845,-143.591
 L -6.1011,-144.159 L -5.90707,-144.757 L -5.78941,-145.373 L -5.75,-146 L -5.75,-149 L -5.78941,-149.627
 L -5.90707,-150.243 L -6.1011,-150.841 L -6.36845,-151.409 L -6.70491,-151.939 L -7.10515,-152.423 L -7.56287,-152.853
 L -8.07086,-153.222 L -8.62109,-153.524 L -9.20491,-153.755 L -9.81308,-153.911 L -10.436,-153.99 L -14.0639,-153.99
 L -14.6869,-153.911 L -15.2951,-153.755 L -15.8789,-153.524 L -16.4291,-153.222 L -16.9371,-152.853 L -17.3948,-152.423
 L -17.7951,-151.939 L -18.1315,-151.409 L -18.25,-151.157 L -18.25,-166 L -18.2145,-166.564 L -18.1086,-167.119
 L -17.934,-167.657 L -17.6934,-168.168 L -17.3906,-168.645 L -17.0303,-169.08 L -16.6184,-169.467 L -16.1612,-169.799
 L -15.666,-170.072 L -15.1406,-170.28 L -14.5932,-170.42 L -14.0325,-170.491 L 14.0325,-170.491 L 14.5932,-170.42
 L 15.1406,-170.28 L 15.666,-170.072 L 16.1612,-169.799 L 16.6184,-169.467 L 17.0303,-169.08 L 17.3906,-168.645
 L 17.6934,-168.168 L 17.934,-167.657 L 18.1086,-167.119 L 18.2145,-166.564 L 18.25,-166 L 18.25,-146
 L 18.2145,-145.436 L 18.1086,-144.881 L 17.934,-144.343 L 17.6934,-143.832 L 17.3906,-143.355 L 17.0303,-142.92
 L 16.6184,-142.533 L 16.1612,-142.201 L 15.666,-141.928 L 15.1406,-141.72 L 14.5932,-141.58 L 14.0325,-141.509
 z
M 11.7184,-161.044 L 12.0225,-161.122 L 12.3144,-161.238 L 12.5896,-161.389 L 12.8436,-161.574 L 13.0724,-161.789
 L 13.2725,-162.031 L 13.4408,-162.296 L 13.5744,-162.58 L 13.6714,-162.878 L 13.7303,-163.187 L 13.75,-163.5
 L 13.7303,-163.813 L 13.6714,-164.122 L 13.5744,-164.42 L 13.4408,-164.704 L 13.2725,-164.969 L 13.0724,-165.211
 L 12.8436,-165.426 L 12.5896,-165.611 L 12.3144,-165.762 L 12.0225,-165.878 L 11.7184,-165.956 L 11.407,-165.995
 L 11.093,-165.995 L 10.7815,-165.956 L 10.4774,-165.878 L 10.1855,-165.762 L 9.91043,-165.611 L 9.65643,-165.426
 L 9.42757,-165.211 L 9.22745,-164.969 L 9.05922,-164.704 L 8.92555,-164.42 L 8.82854,-164.122 L 8.7697,-163.813
 L 8.75,-163.5 L 8.7697,-163.187 L 8.82854,-162.878 L 8.92555,-162.58 L 9.05922,-162.296 L 9.22745,-162.031
 L 9.42757,-161.789 L 9.65643,-161.574 L 9.91043,-161.389 L 10.1855,-161.238 L 10.4774,-161.122 L 10.7815,-161.044
 L 11.093,-161.005 L 11.407,-161.005 z
M 11.1558,-162.003 L 10.9689,-162.027 L 10.7865,-162.073 L 10.6113,-162.143 L 10.4463,-162.234 L 10.2939,-162.344
 L 10.1565,-162.473 L 10.0365,-162.618 L 9.93553,-162.777 L 9.85533,-162.948 L 9.79712,-163.127 L 9.76183,-163.312
 L 9.75,-163.5 L 9.76183,-163.688 L 9.79712,-163.873 L 9.85533,-164.052 L 9.93553,-164.223 L 10.0365,-164.382
 L 10.1565,-164.527 L 10.2939,-164.656 L 10.4463,-164.766 L 10.6113,-164.857 L 10.7865,-164.927 L 10.9689,-164.973
 L 11.1558,-164.997 L 11.3442,-164.997 L 11.5311,-164.973 L 11.7135,-164.927 L 11.8887,-164.857 L 12.0537,-164.766
 L 12.2061,-164.656 L 12.3434,-164.527 L 12.4635,-164.382 L 12.5645,-164.223 L 12.6447,-164.052 L 12.7029,-163.873
 L 12.7382,-163.688 L 12.75,-163.5 L 12.7382,-163.312 L 12.7029,-163.127 L 12.6447,-162.948 L 12.5645,-162.777
 L 12.4635,-162.618 L 12.3434,-162.473 L 12.2061,-162.344 L 12.0537,-162.234 L 11.8887,-162.143 L 11.7135,-162.073
 L 11.5311,-162.027 L 11.3442,-162.003 z
M -11.3442,-147.003 L -11.5311,-147.027 L -11.7135,-147.073 L -11.8887,-147.143 L -12.0537,-147.234 L -12.2061,-147.344
 L -12.3434,-147.473 L -12.4635,-147.618 L -12.5645,-147.777 L -12.6447,-147.948 L -12.7029,-148.127 L -12.7382,-148.312
 L -12.75,-148.5 L -12.7382,-148.688 L -12.7029,-148.873 L -12.6447,-149.052 L -12.5645,-149.223 L -12.4635,-149.382
 L -12.3434,-149.527 L -12.2061,-149.656 L -12.0537,-149.766 L -11.8887,-149.857 L -11.7135,-149.927 L -11.5311,-149.973
 L -11.3442,-149.997 L -11.1558,-149.997 L -10.9689,-149.973 L -10.7865,-149.927 L -10.6113,-149.857 L -10.4463,-149.766
 L -10.2939,-149.656 L -10.1565,-149.527 L -10.0365,-149.382 L -9.93553,-149.223 L -9.85533,-149.052 L -9.79712,-148.873
 L -9.76183,-148.688 L -9.75,-148.5 L -9.76183,-148.312 L -9.79712,-148.127 L -9.85533,-147.948 L -9.93553,-147.777
 L -10.0365,-147.618 L -10.1565,-147.473 L -10.2939,-147.344 L -10.4463,-147.234 L -10.6113,-147.143 L -10.7865,-147.073
 L -10.9689,-147.027 L -11.1558,-147.003 z
M 14.6869,-102.089 L 15.2951,-102.245 L 15.8789,-102.476 L 16.4291,-102.778 L 16.9371,-103.147 L 17.3948,-103.577
 L 17.7951,-104.061 L 18.1315,-104.591 L 18.3989,-105.159 L 18.5929,-105.757 L 18.7106,-106.373 L 18.75,-107
 L 18.75,-127 L 18.7106,-127.627 L 18.5929,-128.243 L 18.3989,-128.841 L 18.1315,-129.409 L 17.7951,-129.939
 L 17.3948,-130.423 L 16.9371,-130.853 L 16.4291,-131.222 L 15.8789,-131.524 L 15.2951,-131.755 L 14.6869,-131.911
 L 14.0639,-131.99 L -14.0639,-131.99 L -14.6869,-131.911 L -15.2951,-131.755 L -15.8789,-131.524 L -16.4291,-131.222
 L -16.9371,-130.853 L -17.3948,-130.423 L -17.7951,-129.939 L -18.1315,-129.409 L -18.3989,-128.841 L -18.5929,-128.243
 L -18.7106,-127.627 L -18.75,-127 L -18.75,-107 L -18.7106,-106.373 L -18.5929,-105.757 L -18.3989,-105.159
 L -18.1315,-104.591 L -17.7951,-104.061 L -17.3948,-103.577 L -16.9371,-103.147 L -16.4291,-102.778 L -15.8789,-102.476
 L -15.2951,-102.245 L -14.6869,-102.089 L -14.0639,-102.01 L 14.0639,-102.01 z
M -7.78568,-102.986 L -7.56287,-103.147 L -7.10515,-103.577 L -6.70491,-104.061 L -6.36845,-104.591 L -6.1011,-105.159
 L -5.90707,-105.757 L -5.78941,-106.373 L -5.75,-107 L -5.75,-110 L -5.78941,-110.627 L -5.90707,-111.243
 L -6.1011,-111.841 L -6.36845,-112.409 L -6.70491,-112.939 L -7.10515,-113.423 L -7.56287,-113.853 L -8.07086,-114.222
 L -8.62109,-114.524 L -9.20491,-114.755 L -9.81308,-114.911 L -10.436,-114.99 L -14.0639,-114.99 L -14.6869,-114.911
 L -15.2951,-114.755 L -15.8789,-114.524 L -16.4291,-114.222 L -16.9371,-113.853 L -17.3948,-113.423 L -17.7724,-112.966
 L -17.7724,-127 L -17.7407,-127.504 L -17.646,-128 L -17.4899,-128.481 L -17.2748,-128.938 L -17.0042,-129.364
 L -16.6822,-129.754 L -16.3139,-130.099 L -15.9053,-130.396 L -15.4626,-130.64 L -14.993,-130.826 L -14.5037,-130.951
 L -14.0026,-131.014 L 7.78568,-131.014 L 7.56287,-130.853 L 7.10515,-130.423 L 6.70491,-129.939 L 6.36845,-129.409
 L 6.1011,-128.841 L 5.90707,-128.243 L 5.78941,-127.627 L 5.75,-127 L 5.75,-124 L 5.78941,-123.373
 L 5.90707,-122.757 L 6.1011,-122.159 L 6.36845,-121.591 L 6.70491,-121.061 L 7.10515,-120.577 L 7.56287,-120.147
 L 8.07086,-119.778 L 8.62109,-119.476 L 9.20491,-119.245 L 9.81308,-119.089 L 10.436,-119.01 L 14.0639,-119.01
 L 14.6869,-119.089 L 15.2951,-119.245 L 15.8789,-119.476 L 16.4291,-119.778 L 16.9371,-120.147 L 17.3948,-120.577
 L 17.7724,-121.034 L 17.7724,-107 L 17.7407,-106.496 L 17.646,-106 L 17.4899,-105.519 L 17.2748,-105.062
 L 17.0042,-104.636 L 16.6822,-104.246 L 16.3139,-103.901 L 15.9053,-103.604 L 15.4626,-103.36 L 14.993,-103.174
 L 14.5037,-103.049 L 14.0026,-102.986 z
M 11.1558,-123.003 L 10.9689,-123.027 L 10.7865,-123.073 L 10.6113,-123.143 L 10.4463,-123.234 L 10.2939,-123.344
 L 10.1565,-123.473 L 10.0365,-123.618 L 9.93553,-123.777 L 9.85533,-123.948 L 9.79712,-124.127 L 9.76183,-124.312
 L 9.75,-124.5 L 9.76183,-124.688 L 9.79712,-124.873 L 9.85533,-125.052 L 9.93553,-125.223 L 10.0365,-125.382
 L 10.1565,-125.527 L 10.2939,-125.656 L 10.4463,-125.766 L 10.6113,-125.857 L 10.7865,-125.927 L 10.9689,-125.973
 L 11.1558,-125.997 L 11.3442,-125.997 L 11.5311,-125.973 L 11.7135,-125.927 L 11.8887,-125.857 L 12.0537,-125.766
 L 12.2061,-125.656 L 12.3434,-125.527 L 12.4635,-125.382 L 12.5645,-125.223 L 12.6447,-125.052 L 12.7029,-124.873
 L 12.7382,-124.688 L 12.75,-124.5 L 12.7382,-124.312 L 12.7029,-124.127 L 12.6447,-123.948 L 12.5645,-123.777
 L 12.4635,-123.618 L 12.3434,-123.473 L 12.2061,-123.344 L 12.0537,-123.234 L 11.8887,-123.143 L 11.7135,-123.073
 L 11.5311,-123.027 L 11.3442,-123.003 z
M -11.3442,-108.003 L -11.5311,-108.027 L -11.7135,-108.073 L -11.8887,-108.143 L -12.0537,-108.234 L -12.2061,-108.344
 L -12.3434,-108.473 L -12.4635,-108.618 L -12.5645,-108.777 L -12.6447,-108.948 L -12.7029,-109.127 L -12.7382,-109.312
 L -12.75,-109.5 L -12.7382,-109.688 L -12.7029,-109.873 L -12.6447,-110.052 L -12.5645,-110.223 L -12.4635,-110.382
 L -12.3434,-110.527 L -12.2061,-110.656 L -12.0537,-110.766 L -11.8887,-110.857 L -11.7135,-110.927 L -11.5311,-110.973
 L -11.3442,-110.997 L -11.1558,-110.997 L -10.9689,-110.973 L -10.7865,-110.927 L -10.6113,-110.857 L -10.4463,-110.766
 L -10.2939,-110.656 L -10.1565,-110.527 L -10.0365,-110.382 L -9.93553,-110.223 L -9.85533,-110.052 L -9.79712,-109.873
 L -9.76183,-109.688 L -9.75,-109.5 L -9.76183,-109.312 L -9.79712,-109.127 L -9.85533,-108.948 L -9.93553,-108.777
 L -10.0365,-108.618 L -10.1565,-108.473 L -10.2939,-108.344 L -10.4463,-108.234 L -10.6113,-108.143 L -10.7865,-108.073
 L -10.9689,-108.027 L -11.1558,-108.003 z
M 14.6869,-63.0886 L 15.2951,-63.2447 L 15.8789,-63.4759 L 16.4291,-63.7784 L 16.9371,-64.1474 L 17.3948,-64.5773
 L 17.7951,-65.0611 L 18.1315,-65.5912 L 18.3989,-66.1594 L 18.5929,-66.7566 L 18.7106,-67.3733 L 18.75,-68
 L 18.75,-88 L 18.7106,-88.6267 L 18.5929,-89.2434 L 18.3989,-89.8406 L 18.1315,-90.4088 L 17.7951,-90.9389
 L 17.3948,-91.4227 L 16.9371,-91.8526 L 16.4291,-92.2216 L 15.8789,-92.5241 L 15.2951,-92.7553 L 14.6869,-92.9114
 L 14.0639,-92.9901 L -14.0639,-92.9901 L -14.6869,-92.9114 L -15.2951,-92.7553 L -15.8789,-92.5241 L -16.4291,-92.2216
 L -16.9371,-91.8526 L -17.3948,-91.4227 L -17.7951,-90.9389 L -18.1315,-90.4088 L -18.3989,-89.8406 L -18.5929,-89.2434
 L -18.7106,-88.6267 L -18.75,-88 L -18.75,-68 L -18.7106,-67.3733 L -18.5929,-66.7566 L -18.3989,-66.1594
 L -18.1315,-65.5912 L -17.7951,-65.0611 L -17.3948,-64.5773 L -16.9371,-64.1474 L -16.4291,-63.7784 L -15.8789,-63.4759
 L -15.2951,-63.2447 L -14.6869,-63.0886 L -14.0639,-63.0099 L 14.0639,-63.0099 z
M 11.0993,-83.1047 L 10.8003,-83.1425 L 10.5083,-83.2175 L 10.2281,-83.3284 L 9.964,-83.4736 L 9.72017,-83.6508
 L 9.50047,-83.8571 L 9.30835,-84.0893 L 9.14685,-84.3438 L 9.01852,-84.6165 L 8.9254,-84.9031 L 8.86891,-85.1992
 L 8.84999,-85.5 L 8.86891,-85.8008 L 8.9254,-86.0968 L 9.01852,-86.3835 L 9.14685,-86.6562 L 9.30835,-86.9107
 L 9.50047,-87.1429 L 9.72017,-87.3492 L 9.964,-87.5264 L 10.2281,-87.6716 L 10.5083,-87.7825 L 10.8003,-87.8575
 L 11.0993,-87.8953 L 11.4007,-87.8953 L 11.6997,-87.8575 L 11.9916,-87.7825 L 12.2719,-87.6716 L 12.536,-87.5264
 L 12.7798,-87.3492 L 12.9995,-87.1429 L 13.1916,-86.9107 L 13.3531,-86.6562 L 13.4815,-86.3835 L 13.5746,-86.0968
 L 13.6311,-85.8008 L 13.65,-85.5 L 13.6311,-85.1992 L 13.5746,-84.9031 L 13.4815,-84.6165 L 13.3531,-84.3438
 L 13.1916,-84.0893 L 12.9995,-83.8571 L 12.7798,-83.6508 L 12.536,-83.4736 L 12.2719,-83.3284 L 11.9916,-83.2175
 L 11.6997,-83.1425 L 11.4007,-83.1047 z
M -11.3442,-84.0029 L -11.5311,-84.0266 L -11.7135,-84.0734 L -11.8887,-84.1427 L -12.0537,-84.2335 L -12.2061,-84.3442
 L -12.3434,-84.4732 L -12.4635,-84.6183 L -12.5645,-84.7774 L -12.6447,-84.9478 L -12.7029,-85.127 L -12.7382,-85.312
 L -12.75,-85.5 L -12.7382,-85.688 L -12.7029,-85.873 L -12.6447,-86.0522 L -12.5645,-86.2226 L -12.4635,-86.3817
 L -12.3434,-86.5268 L -12.2061,-86.6558 L -12.0537,-86.7665 L -11.8887,-86.8572 L -11.7135,-86.9266 L -11.5311,-86.9734
 L -11.3442,-86.997 L -11.1558,-86.997 L -10.9689,-86.9734 L -10.7865,-86.9266 L -10.6113,-86.8572 L -10.4463,-86.7665
 L -10.2939,-86.6558 L -10.1565,-86.5268 L -10.0365,-86.3817 L -9.93553,-86.2226 L -9.85533,-86.0522 L -9.79712,-85.873
 L -9.76183,-85.688 L -9.75,-85.5 L -9.76183,-85.312 L -9.79712,-85.127 L -9.85533,-84.9478 L -9.93553,-84.7774
 L -10.0365,-84.6183 L -10.1565,-84.4732 L -10.2939,-84.3442 L -10.4463,-84.2335 L -10.6113,-84.1427 L -10.7865,-84.0734
 L -10.9689,-84.0266 L -11.1558,-84.0029 z
M -11.4007,-68.1047 L -11.6997,-68.1425 L -11.9916,-68.2175 L -12.2719,-68.3284 L -12.536,-68.4736 L -12.7798,-68.6508
 L -12.9995,-68.8571 L -13.1916,-69.0893 L -13.3531,-69.3438 L -13.4815,-69.6165 L -13.5746,-69.9032 L -13.6311,-70.1992
 L -13.65,-70.5 L -13.6311,-70.8008 L -13.5746,-71.0969 L -13.4815,-71.3835 L -13.3531,-71.6562 L -13.1916,-71.9107
 L -12.9995,-72.1429 L -12.7798,-72.3492 L -12.536,-72.5264 L -12.2719,-72.6716 L -11.9916,-72.7825 L -11.6997,-72.8575
 L -11.4007,-72.8953 L -11.0993,-72.8953 L -10.8003,-72.8575 L -10.5083,-72.7825 L -10.2281,-72.6716 L -9.964,-72.5264
 L -9.72017,-72.3492 L -9.50047,-72.1429 L -9.30835,-71.9107 L -9.14685,-71.6562 L -9.01852,-71.3835 L -8.9254,-71.0969
 L -8.86891,-70.8008 L -8.84999,-70.5 L -8.86891,-70.1992 L -8.9254,-69.9032 L -9.01852,-69.6165 L -9.14685,-69.3438
 L -9.30835,-69.0893 L -9.50047,-68.8571 L -9.72017,-68.6508 L -9.964,-68.4736 L -10.2281,-68.3284 L -10.5083,-68.2175
 L -10.8003,-68.1425 L -11.0993,-68.1047 z
M 11.1558,-69.003 L 10.9689,-69.0266 L 10.7865,-69.0734 L 10.6113,-69.1428 L 10.4463,-69.2335 L 10.2939,-69.3442
 L 10.1565,-69.4732 L 10.0365,-69.6183 L 9.93553,-69.7774 L 9.85533,-69.9478 L 9.79712,-70.127 L 9.76183,-70.312
 L 9.75,-70.5 L 9.76183,-70.688 L 9.79712,-70.873 L 9.85533,-71.0522 L 9.93553,-71.2226 L 10.0365,-71.3817
 L 10.1565,-71.5268 L 10.2939,-71.6558 L 10.4463,-71.7665 L 10.6113,-71.8573 L 10.7865,-71.9266 L 10.9689,-71.9734
 L 11.1558,-71.9971 L 11.3442,-71.9971 L 11.5311,-71.9734 L 11.7135,-71.9266 L 11.8887,-71.8573 L 12.0537,-71.7665
 L 12.2061,-71.6558 L 12.3434,-71.5268 L 12.4635,-71.3817 L 12.5645,-71.2226 L 12.6447,-71.0522 L 12.7029,-70.873
 L 12.7382,-70.688 L 12.75,-70.5 L 12.7382,-70.312 L 12.7029,-70.127 L 12.6447,-69.9478 L 12.5645,-69.7774
 L 12.4635,-69.6183 L 12.3434,-69.4732 L 12.2061,-69.3442 L 12.0537,-69.2335 L 11.8887,-69.1428 L 11.7135,-69.0734
 L 11.5311,-69.0266 L 11.3442,-69.003 z
" stroke="black" fill="lightgray" stroke-width="0.5"/>
</svg>
