<?xml version="1.0" standalone="no"?>
<!DOCTYPE svg PUBLIC "-//W3C//DTD SVG 1.1//EN" "http://www.w3.org/Graphics/SVG/1.1/DTD/svg11.dtd">
<svg width="2mm" height="112mm" viewBox="-1 -111 2 112" xmlns="http://www.w3.org/2000/svg" version="1.1">
<title>OpenSCAD Model</title>
<path d="
M 0.140533,-109.263 L 0.23175,-109.287 L 0.319321,-109.321 L 0.401855,-109.367 L 0.478058,-109.422 L 0.546722,-109.487
 L 0.60675,-109.559 L 0.657227,-109.639 L 0.697327,-109.724 L 0.726425,-109.813 L 0.74408,-109.906 L 0.75,-110
 L 0.74408,-110.094 L 0.726425,-110.187 L 0.697327,-110.276 L 0.657227,-110.361 L 0.60675,-110.441 L 0.546722,-110.513
 L 0.478058,-110.578 L 0.401855,-110.633 L 0.319321,-110.679 L 0.23175,-110.713 L 0.140533,-110.737 L 0.0470886,-110.749
 L -0.0470886,-110.749 L -0.140533,-110.737 L -0.23175,-110.713 L -0.319321,-110.679 L -0.401855,-110.633 L -0.478058,-110.578
 L -0.546722,-110.513 L -0.60675,-110.441 L -0.657227,-110.361 L -0.697327,-110.276 L -0.726425,-110.187 L -0.74408,-110.094
 L -0.75,-110 L -0.74408,-109.906 L -0.726425,-109.813 L -0.697327,-109.724 L -0.657227,-109.639 L -0.60675,-109.559
 L -0.546722,-109.487 L -0.478058,-109.422 L -0.401855,-109.367 L -0.319321,-109.321 L -0.23175,-109.287 L -0.140533,-109.263
 L -0.0470886,-109.251 L 0.0470886,-109.251 z
M 0.140533,0.73671 L 0.23175,0.713287 L 0.319321,0.678619 L 0.401855,0.63324 L 0.478058,0.577881 L 0.546722,0.513397
 L 0.60675,0.440826 L 0.657227,0.361313 L 0.697327,0.276093 L 0.726425,0.186508 L 0.74408,0.0939941 L 0.75,-0
 L 0.74408,-0.0939941 L 0.726425,-0.186508 L 0.697327,-0.276093 L 0.657227,-0.361313 L 0.60675,-0.440826 L 0.546722,-0.513397
 L 0.478058,-0.577881 L 0.401855,-0.63324 L 0.319321,-0.678619 L 0.23175,-0.713287 L 0.140533,-0.73671 L 0.0470886,-0.74852
 L -0.0470886,-0.74852 L -0.140533,-0.73671 L -0.23175,-0.713287 L -0.319321,-0.678619 L -0.401855,-0.63324 L -0.478058,-0.577881
 L -0.546722,-0.513397 L -0.60675,-0.440826 L -0.657227,-0.361313 L -0.697327,-0.276093 L -0.726425,-0.186508 L -0.74408,-0.0939941
 L -0.75,-0 L -0.74408,0.0939941 L -0.726425,0.186508 L -0.697327,0.276093 L -0.657227,0.361313 L -0.60675,0.440826
 L -0.546722,0.513397 L -0.478058,0.577881 L -0.401855,0.63324 L -0.319321,0.678619 L -0.23175,0.713287 L -0.140533,0.73671
 L -0.0470886,0.74852 L 0.0470886,0.74852 z
" stroke="black" fill="lightgray" stroke-width="0.5"/>
</svg>
