<?xml version="1.0" standalone="no"?>
<!DOCTYPE svg PUBLIC "-//W3C//DTD SVG 1.1//EN" "http://www.w3.org/Graphics/SVG/1.1/DTD/svg11.dtd">
<svg width="30mm" height="223mm" viewBox="-15 -437 30 223" xmlns="http://www.w3.org/2000/svg" version="1.1">
<title>OpenSCAD Model</title>
<path d="
M 10.4369,-400.339 L 11.0451,-400.495 L 11.6289,-400.726 L 12.1791,-401.028 L 12.6871,-401.397 L 13.1448,-401.827
 L 13.5451,-402.311 L 13.8815,-402.841 L 14.1489,-403.409 L 14.3429,-404.007 L 14.4606,-404.623 L 14.5,-405.25
 L 14.5,-431.75 L 14.4606,-432.377 L 14.3429,-432.993 L 14.1489,-433.591 L 13.8815,-434.159 L 13.5451,-434.689
 L 13.1448,-435.173 L 12.6871,-435.603 L 12.1791,-435.972 L 11.6289,-436.274 L 11.0451,-436.505 L 10.4369,-436.661
 L 9.81395,-436.74 L -9.81395,-436.74 L -10.4369,-436.661 L -11.0451,-436.505 L -11.6289,-436.274 L -12.1791,-435.972
 L -12.6871,-435.603 L -13.1448,-435.173 L -13.5451,-434.689 L -13.8815,-434.159 L -14.1489,-433.591 L -14.3429,-432.993
 L -14.4606,-432.377 L -14.5,-431.75 L -14.5,-405.25 L -14.4606,-404.623 L -14.3429,-404.007 L -14.1489,-403.409
 L -13.8815,-402.841 L -13.5451,-402.311 L -13.1448,-401.827 L -12.6871,-401.397 L -12.1791,-401.028 L -11.6289,-400.726
 L -11.0451,-400.495 L -10.4369,-400.339 L -9.81395,-400.26 L 9.81395,-400.26 z
M -9.75116,-401.258 L -10.2495,-401.321 L -10.7361,-401.446 L -11.2031,-401.631 L -11.6433,-401.873 L -12.0497,-402.168
 L -12.4159,-402.512 L -12.7361,-402.899 L -13.0052,-403.323 L -13.2191,-403.778 L -13.3743,-404.255 L -13.4684,-404.749
 L -13.5,-405.25 L -13.5,-431.75 L -13.4684,-432.251 L -13.3743,-432.745 L -13.2191,-433.222 L -13.0052,-433.677
 L -12.7361,-434.101 L -12.4159,-434.488 L -12.0497,-434.832 L -11.6433,-435.127 L -11.2031,-435.369 L -10.7361,-435.554
 L -10.2495,-435.679 L -9.75116,-435.742 L 9.75116,-435.742 L 10.2495,-435.679 L 10.7361,-435.554 L 11.2031,-435.369
 L 11.6433,-435.127 L 12.0497,-434.832 L 12.4159,-434.488 L 12.7361,-434.101 L 13.0052,-433.677 L 13.2191,-433.222
 L 13.3743,-432.745 L 13.4684,-432.251 L 13.5,-431.75 L 13.5,-405.25 L 13.4684,-404.749 L 13.3743,-404.255
 L 13.2191,-403.778 L 13.0052,-403.323 L 12.7361,-402.899 L 12.4159,-402.512 L 12.0497,-402.168 L 11.6433,-401.873
 L 11.2031,-401.631 L 10.7361,-401.446 L 10.2495,-401.321 L 9.75116,-401.258 z
M 10.4369,-353.839 L 11.0451,-353.995 L 11.6289,-354.226 L 12.1791,-354.528 L 12.6871,-354.897 L 13.1448,-355.327
 L 13.5451,-355.811 L 13.8815,-356.341 L 14.1489,-356.909 L 14.3429,-357.507 L 14.4606,-358.123 L 14.5,-358.75
 L 14.5,-385.25 L 14.4606,-385.877 L 14.3429,-386.493 L 14.1489,-387.091 L 13.8815,-387.659 L 13.5451,-388.189
 L 13.1448,-388.673 L 12.6871,-389.103 L 12.1791,-389.472 L 11.6289,-389.774 L 11.0451,-390.005 L 10.4369,-390.161
 L 9.81395,-390.24 L -9.81395,-390.24 L -10.4369,-390.161 L -11.0451,-390.005 L -11.6289,-389.774 L -12.1791,-389.472
 L -12.6871,-389.103 L -13.1448,-388.673 L -13.5451,-388.189 L -13.8815,-387.659 L -14.1489,-387.091 L -14.3429,-386.493
 L -14.4606,-385.877 L -14.5,-385.25 L -14.5,-358.75 L -14.4606,-358.123 L -14.3429,-357.507 L -14.1489,-356.909
 L -13.8815,-356.341 L -13.5451,-355.811 L -13.1448,-355.327 L -12.6871,-354.897 L -12.1791,-354.528 L -11.6289,-354.226
 L -11.0451,-353.995 L -10.4369,-353.839 L -9.81395,-353.76 L 9.81395,-353.76 z
M -9.75116,-354.758 L -10.2495,-354.821 L -10.7361,-354.946 L -11.2031,-355.131 L -11.6433,-355.373 L -12.0497,-355.668
 L -12.4159,-356.012 L -12.7361,-356.399 L -13.0052,-356.823 L -13.2191,-357.278 L -13.3743,-357.755 L -13.4684,-358.249
 L -13.5,-358.75 L -13.5,-385.25 L -13.4684,-385.751 L -13.3743,-386.245 L -13.2191,-386.722 L -13.0052,-387.177
 L -12.7361,-387.601 L -12.4159,-387.988 L -12.0497,-388.332 L -11.6433,-388.627 L -11.2031,-388.869 L -10.7361,-389.054
 L -10.2495,-389.179 L -9.75116,-389.242 L 9.75116,-389.242 L 10.2495,-389.179 L 10.7361,-389.054 L 11.2031,-388.869
 L 11.6433,-388.627 L 12.0497,-388.332 L 12.4159,-387.988 L 12.7361,-387.601 L 13.0052,-387.177 L 13.2191,-386.722
 L 13.3743,-386.245 L 13.4684,-385.751 L 13.5,-385.25 L 13.5,-358.75 L 13.4684,-358.249 L 13.3743,-357.755
 L 13.2191,-357.278 L 13.0052,-356.823 L 12.7361,-356.399 L 12.4159,-356.012 L 12.0497,-355.668 L 11.6433,-355.373
 L 11.2031,-355.131 L 10.7361,-354.946 L 10.2495,-354.821 L 9.75116,-354.758 z
M 10.4369,-307.339 L 11.0451,-307.495 L 11.6289,-307.726 L 12.1791,-308.028 L 12.6871,-308.397 L 13.1448,-308.827
 L 13.5451,-309.311 L 13.8815,-309.841 L 14.1489,-310.409 L 14.3429,-311.007 L 14.4606,-311.623 L 14.5,-312.25
 L 14.5,-338.75 L 14.4606,-339.377 L 14.3429,-339.993 L 14.1489,-340.591 L 13.8815,-341.159 L 13.5451,-341.689
 L 13.1448,-342.173 L 12.6871,-342.603 L 12.1791,-342.972 L 11.6289,-343.274 L 11.0451,-343.505 L 10.4369,-343.661
 L 9.81395,-343.74 L -9.81395,-343.74 L -10.4369,-343.661 L -11.0451,-343.505 L -11.6289,-343.274 L -12.1791,-342.972
 L -12.6871,-342.603 L -13.1448,-342.173 L -13.5451,-341.689 L -13.8815,-341.159 L -14.1489,-340.591 L -14.3429,-339.993
 L -14.4606,-339.377 L -14.5,-338.75 L -14.5,-312.25 L -14.4606,-311.623 L -14.3429,-311.007 L -14.1489,-310.409
 L -13.8815,-309.841 L -13.5451,-309.311 L -13.1448,-308.827 L -12.6871,-308.397 L -12.1791,-308.028 L -11.6289,-307.726
 L -11.0451,-307.495 L -10.4369,-307.339 L -9.81395,-307.26 L 9.81395,-307.26 z
M -9.75116,-308.258 L -10.2495,-308.321 L -10.7361,-308.446 L -11.2031,-308.631 L -11.6433,-308.873 L -12.0497,-309.168
 L -12.4159,-309.512 L -12.7361,-309.899 L -13.0052,-310.323 L -13.2191,-310.778 L -13.3743,-311.255 L -13.4684,-311.749
 L -13.5,-312.25 L -13.5,-338.75 L -13.4684,-339.251 L -13.3743,-339.745 L -13.2191,-340.222 L -13.0052,-340.677
 L -12.7361,-341.101 L -12.4159,-341.488 L -12.0497,-341.832 L -11.6433,-342.127 L -11.2031,-342.369 L -10.7361,-342.554
 L -10.2495,-342.679 L -9.75116,-342.742 L 9.75116,-342.742 L 10.2495,-342.679 L 10.7361,-342.554 L 11.2031,-342.369
 L 11.6433,-342.127 L 12.0497,-341.832 L 12.4159,-341.488 L 12.7361,-341.101 L 13.0052,-340.677 L 13.2191,-340.222
 L 13.3743,-339.745 L 13.4684,-339.251 L 13.5,-338.75 L 13.5,-312.25 L 13.4684,-311.749 L 13.3743,-311.255
 L 13.2191,-310.778 L 13.0052,-310.323 L 12.7361,-309.899 L 12.4159,-309.512 L 12.0497,-309.168 L 11.6433,-308.873
 L 11.2031,-308.631 L 10.7361,-308.446 L 10.2495,-308.321 L 9.75116,-308.258 z
M 10.4369,-260.839 L 11.0451,-260.995 L 11.6289,-261.226 L 12.1791,-261.528 L 12.6871,-261.897 L 13.1448,-262.327
 L 13.5451,-262.811 L 13.8815,-263.341 L 14.1489,-263.909 L 14.3429,-264.507 L 14.4606,-265.123 L 14.5,-265.75
 L 14.5,-292.25 L 14.4606,-292.877 L 14.3429,-293.493 L 14.1489,-294.091 L 13.8815,-294.659 L 13.5451,-295.189
 L 13.1448,-295.673 L 12.6871,-296.103 L 12.1791,-296.472 L 11.6289,-296.774 L 11.0451,-297.005 L 10.4369,-297.161
 L 9.81395,-297.24 L -9.81395,-297.24 L -10.4369,-297.161 L -11.0451,-297.005 L -11.6289,-296.774 L -12.1791,-296.472
 L -12.6871,-296.103 L -13.1448,-295.673 L -13.5451,-295.189 L -13.8815,-294.659 L -14.1489,-294.091 L -14.3429,-293.493
 L -14.4606,-292.877 L -14.5,-292.25 L -14.5,-265.75 L -14.4606,-265.123 L -14.3429,-264.507 L -14.1489,-263.909
 L -13.8815,-263.341 L -13.5451,-262.811 L -13.1448,-262.327 L -12.6871,-261.897 L -12.1791,-261.528 L -11.6289,-261.226
 L -11.0451,-260.995 L -10.4369,-260.839 L -9.81395,-260.76 L 9.81395,-260.76 z
M -9.69545,-262.643 L -10.0833,-262.692 L -10.4619,-262.789 L -10.8254,-262.933 L -11.168,-263.122 L -11.4842,-263.351
 L -11.7692,-263.619 L -12.0184,-263.92 L -12.2279,-264.25 L -12.3943,-264.604 L -12.5151,-264.976 L -12.5884,-265.36
 L -12.6129,-265.75 L -12.6129,-292.25 L -12.5884,-292.64 L -12.5151,-293.024 L -12.3943,-293.396 L -12.2279,-293.75
 L -12.0184,-294.08 L -11.7692,-294.381 L -11.4842,-294.649 L -11.168,-294.878 L -10.8254,-295.067 L -10.4619,-295.211
 L -10.0833,-295.308 L -9.69545,-295.357 L 9.69545,-295.357 L 10.0833,-295.308 L 10.4619,-295.211 L 10.8254,-295.067
 L 11.168,-294.878 L 11.4842,-294.649 L 11.7692,-294.381 L 12.0184,-294.08 L 12.2279,-293.75 L 12.3943,-293.396
 L 12.5151,-293.024 L 12.5884,-292.64 L 12.6129,-292.25 L 12.6129,-265.75 L 12.5884,-265.36 L 12.5151,-264.976
 L 12.3943,-264.604 L 12.2279,-264.25 L 12.0184,-263.92 L 11.7692,-263.619 L 11.4842,-263.351 L 11.168,-263.122
 L 10.8254,-262.933 L 10.4619,-262.789 L 10.0833,-262.692 L 9.69545,-262.643 z
M 10.4369,-214.339 L 11.0451,-214.495 L 11.6289,-214.726 L 12.1791,-215.028 L 12.6871,-215.397 L 13.1448,-215.827
 L 13.5451,-216.311 L 13.8815,-216.841 L 14.1489,-217.409 L 14.3429,-218.007 L 14.4606,-218.623 L 14.5,-219.25
 L 14.5,-245.75 L 14.4606,-246.377 L 14.3429,-246.993 L 14.1489,-247.591 L 13.8815,-248.159 L 13.5451,-248.689
 L 13.1448,-249.173 L 12.6871,-249.603 L 12.1791,-249.972 L 11.6289,-250.274 L 11.0451,-250.505 L 10.4369,-250.661
 L 9.81395,-250.74 L -9.81395,-250.74 L -10.4369,-250.661 L -11.0451,-250.505 L -11.6289,-250.274 L -12.1791,-249.972
 L -12.6871,-249.603 L -13.1448,-249.173 L -13.5451,-248.689 L -13.8815,-248.159 L -14.1489,-247.591 L -14.3429,-246.993
 L -14.4606,-246.377 L -14.5,-245.75 L -14.5,-219.25 L -14.4606,-218.623 L -14.3429,-218.007 L -14.1489,-217.409
 L -13.8815,-216.841 L -13.5451,-216.311 L -13.1448,-215.827 L -12.6871,-215.397 L -12.1791,-215.028 L -11.6289,-214.726
 L -11.0451,-214.495 L -10.4369,-214.339 L -9.81395,-214.26 L 9.81395,-214.26 z
M 7.34929,-241.355 L 7.05028,-241.393 L 6.75835,-241.467 L 6.47812,-241.578 L 6.214,-241.724 L 5.97017,-241.901
 L 5.75047,-242.107 L 5.55835,-242.339 L 5.39685,-242.594 L 5.26852,-242.867 L 5.1754,-243.153 L 5.11891,-243.449
 L 5.09999,-243.75 L 5.11891,-244.051 L 5.1754,-244.347 L 5.26852,-244.633 L 5.39685,-244.906 L 5.55835,-245.161
 L 5.75047,-245.393 L 5.97017,-245.599 L 6.214,-245.776 L 6.47812,-245.922 L 6.75835,-246.033 L 7.05028,-246.107
 L 7.34929,-246.145 L 7.6507,-246.145 L 7.94971,-246.107 L 8.24164,-246.033 L 8.52187,-245.922 L 8.78598,-245.776
 L 9.02982,-245.599 L 9.24951,-245.393 L 9.44164,-245.161 L 9.60313,-244.906 L 9.73146,-244.633 L 9.82458,-244.347
 L 9.88107,-244.051 L 9.89999,-243.75 L 9.88107,-243.449 L 9.82458,-243.153 L 9.73146,-242.867 L 9.60313,-242.594
 L 9.44164,-242.339 L 9.24951,-242.107 L 9.02982,-241.901 L 8.78598,-241.724 L 8.52187,-241.578 L 8.24164,-241.467
 L 7.94971,-241.393 L 7.6507,-241.355 z
M -7.6507,-241.355 L -7.94971,-241.393 L -8.24164,-241.467 L -8.52187,-241.578 L -8.78598,-241.724 L -9.02982,-241.901
 L -9.24951,-242.107 L -9.44164,-242.339 L -9.60313,-242.594 L -9.73146,-242.867 L -9.82458,-243.153 L -9.88107,-243.449
 L -9.89999,-243.75 L -9.88107,-244.051 L -9.82458,-244.347 L -9.73146,-244.633 L -9.60313,-244.906 L -9.44164,-245.161
 L -9.24951,-245.393 L -9.02982,-245.599 L -8.78598,-245.776 L -8.52187,-245.922 L -8.24164,-246.033 L -7.94971,-246.107
 L -7.6507,-246.145 L -7.34929,-246.145 L -7.05028,-246.107 L -6.75835,-246.033 L -6.47812,-245.922 L -6.214,-245.776
 L -5.97017,-245.599 L -5.75047,-245.393 L -5.55835,-245.161 L -5.39685,-244.906 L -5.26852,-244.633 L -5.1754,-244.347
 L -5.11891,-244.051 L -5.09999,-243.75 L -5.11891,-243.449 L -5.1754,-243.153 L -5.26852,-242.867 L -5.39685,-242.594
 L -5.55835,-242.339 L -5.75047,-242.107 L -5.97017,-241.901 L -6.214,-241.724 L -6.47812,-241.578 L -6.75835,-241.467
 L -7.05028,-241.393 L -7.34929,-241.355 z
M 7.34929,-218.855 L 7.05028,-218.893 L 6.75835,-218.967 L 6.47812,-219.078 L 6.214,-219.224 L 5.97017,-219.401
 L 5.75047,-219.607 L 5.55835,-219.839 L 5.39685,-220.094 L 5.26852,-220.367 L 5.1754,-220.653 L 5.11891,-220.949
 L 5.09999,-221.25 L 5.11891,-221.551 L 5.1754,-221.847 L 5.26852,-222.133 L 5.39685,-222.406 L 5.55835,-222.661
 L 5.75047,-222.893 L 5.97017,-223.099 L 6.214,-223.276 L 6.47812,-223.422 L 6.75835,-223.533 L 7.05028,-223.607
 L 7.34929,-223.645 L 7.6507,-223.645 L 7.94971,-223.607 L 8.24164,-223.533 L 8.52187,-223.422 L 8.78598,-223.276
 L 9.02982,-223.099 L 9.24951,-222.893 L 9.44164,-222.661 L 9.60313,-222.406 L 9.73146,-222.133 L 9.82458,-221.847
 L 9.88107,-221.551 L 9.89999,-221.25 L 9.88107,-220.949 L 9.82458,-220.653 L 9.73146,-220.367 L 9.60313,-220.094
 L 9.44164,-219.839 L 9.24951,-219.607 L 9.02982,-219.401 L 8.78598,-219.224 L 8.52187,-219.078 L 8.24164,-218.967
 L 7.94971,-218.893 L 7.6507,-218.855 z
M -7.6507,-218.855 L -7.94971,-218.893 L -8.24164,-218.967 L -8.52187,-219.078 L -8.78598,-219.224 L -9.02982,-219.401
 L -9.24951,-219.607 L -9.44164,-219.839 L -9.60313,-220.094 L -9.73146,-220.367 L -9.82458,-220.653 L -9.88107,-220.949
 L -9.89999,-221.25 L -9.88107,-221.551 L -9.82458,-221.847 L -9.73146,-222.133 L -9.60313,-222.406 L -9.44164,-222.661
 L -9.24951,-222.893 L -9.02982,-223.099 L -8.78598,-223.276 L -8.52187,-223.422 L -8.24164,-223.533 L -7.94971,-223.607
 L -7.6507,-223.645 L -7.34929,-223.645 L -7.05028,-223.607 L -6.75835,-223.533 L -6.47812,-223.422 L -6.214,-223.276
 L -5.97017,-223.099 L -5.75047,-222.893 L -5.55835,-222.661 L -5.39685,-222.406 L -5.26852,-222.133 L -5.1754,-221.847
 L -5.11891,-221.551 L -5.09999,-221.25 L -5.11891,-220.949 L -5.1754,-220.653 L -5.26852,-220.367 L -5.39685,-220.094
 L -5.55835,-219.839 L -5.75047,-219.607 L -5.97017,-219.401 L -6.214,-219.224 L -6.47812,-219.078 L -6.75835,-218.967
 L -7.05028,-218.893 L -7.34929,-218.855 z
" stroke="black" fill="lightgray" stroke-width="0.5"/>
</svg>
