  0
SECTION
  2
BLOCKS
  0
ENDSEC
  0
SECTION
  2
ENTITIES
  0
LINE
  8
0
 10
67
 20
87.5
 11
66.9606
 21
88.1267
  0
LINE
  8
0
 10
66.9606
 20
88.1267
 11
66.8429
 21
88.7434
  0
LINE
  8
0
 10
66.8429
 20
88.7434
 11
66.6489
 21
89.3406
  0
LINE
  8
0
 10
66.6489
 20
89.3406
 11
66.3815
 21
89.9088
  0
LINE
  8
0
 10
66.3815
 20
89.9088
 11
66.0451
 21
90.4389
  0
LINE
  8
0
 10
66.0451
 20
90.4389
 11
65.6448
 21
90.9227
  0
LINE
  8
0
 10
65.6448
 20
90.9227
 11
65.1871
 21
91.3526
  0
LINE
  8
0
 10
65.1871
 20
91.3526
 11
64.6791
 21
91.7216
  0
LINE
  8
0
 10
64.6791
 20
91.7216
 11
64.1289
 21
92.0241
  0
LINE
  8
0
 10
64.1289
 20
92.0241
 11
63.5451
 21
92.2553
  0
LINE
  8
0
 10
63.5451
 20
92.2553
 11
62.9369
 21
92.4114
  0
LINE
  8
0
 10
62.9369
 20
92.4114
 11
62.3139
 21
92.4901
  0
LINE
  8
0
 10
62.3139
 20
92.4901
 11
-62.3139
 21
92.4901
  0
LINE
  8
0
 10
-62.3139
 20
92.4901
 11
-62.9369
 21
92.4114
  0
LINE
  8
0
 10
-62.9369
 20
92.4114
 11
-63.5451
 21
92.2553
  0
LINE
  8
0
 10
-63.5451
 20
92.2553
 11
-64.1289
 21
92.0241
  0
LINE
  8
0
 10
-64.1289
 20
92.0241
 11
-64.6791
 21
91.7216
  0
LINE
  8
0
 10
-64.6791
 20
91.7216
 11
-65.1871
 21
91.3526
  0
LINE
  8
0
 10
-65.1871
 20
91.3526
 11
-65.6448
 21
90.9227
  0
LINE
  8
0
 10
-65.6448
 20
90.9227
 11
-66.0451
 21
90.4389
  0
LINE
  8
0
 10
-66.0451
 20
90.4389
 11
-66.3815
 21
89.9088
  0
LINE
  8
0
 10
-66.3815
 20
89.9088
 11
-66.6489
 21
89.3406
  0
LINE
  8
0
 10
-66.6489
 20
89.3406
 11
-66.8429
 21
88.7434
  0
LINE
  8
0
 10
-66.8429
 20
88.7434
 11
-66.9606
 21
88.1267
  0
LINE
  8
0
 10
-66.9606
 20
88.1267
 11
-67
 21
87.5
  0
LINE
  8
0
 10
-67
 20
87.5
 11
-67
 21
72
  0
LINE
  8
0
 10
-67
 20
72
 11
67
 21
72
  0
LINE
  8
0
 10
67
 20
72
 11
67
 21
87.5
  0
LINE
  8
0
 10
44.8116
 20
82.5059
 11
44.4379
 21
82.5531
  0
LINE
  8
0
 10
44.4379
 20
82.5531
 11
44.0729
 21
82.6468
  0
LINE
  8
0
 10
44.0729
 20
82.6468
 11
43.7227
 21
82.7855
  0
LINE
  8
0
 10
43.7227
 20
82.7855
 11
43.3925
 21
82.967
  0
LINE
  8
0
 10
43.3925
 20
82.967
 11
43.0877
 21
83.1884
  0
LINE
  8
0
 10
43.0877
 20
83.1884
 11
42.8131
 21
83.4464
  0
LINE
  8
0
 10
42.8131
 20
83.4464
 11
42.5729
 21
83.7366
  0
LINE
  8
0
 10
42.5729
 20
83.7366
 11
42.3711
 21
84.0547
  0
LINE
  8
0
 10
42.3711
 20
84.0547
 11
42.2107
 21
84.3956
  0
LINE
  8
0
 10
42.2107
 20
84.3956
 11
42.0942
 21
84.7539
  0
LINE
  8
0
 10
42.0942
 20
84.7539
 11
42.0237
 21
85.124
  0
LINE
  8
0
 10
42.0237
 20
85.124
 11
42
 21
85.5
  0
LINE
  8
0
 10
42
 20
85.5
 11
42.0237
 21
85.876
  0
LINE
  8
0
 10
42.0237
 20
85.876
 11
42.0942
 21
86.2461
  0
LINE
  8
0
 10
42.0942
 20
86.2461
 11
42.2107
 21
86.6044
  0
LINE
  8
0
 10
42.2107
 20
86.6044
 11
42.3711
 21
86.9453
  0
LINE
  8
0
 10
42.3711
 20
86.9453
 11
42.5729
 21
87.2634
  0
LINE
  8
0
 10
42.5729
 20
87.2634
 11
42.8131
 21
87.5536
  0
LINE
  8
0
 10
42.8131
 20
87.5536
 11
43.0877
 21
87.8115
  0
LINE
  8
0
 10
43.0877
 20
87.8115
 11
43.3925
 21
88.033
  0
LINE
  8
0
 10
43.3925
 20
88.033
 11
43.7227
 21
88.2145
  0
LINE
  8
0
 10
43.7227
 20
88.2145
 11
44.0729
 21
88.3532
  0
LINE
  8
0
 10
44.0729
 20
88.3532
 11
44.4379
 21
88.4469
  0
LINE
  8
0
 10
44.4379
 20
88.4469
 11
44.8116
 21
88.4941
  0
LINE
  8
0
 10
44.8116
 20
88.4941
 11
45.1884
 21
88.4941
  0
LINE
  8
0
 10
45.1884
 20
88.4941
 11
45.5621
 21
88.4469
  0
LINE
  8
0
 10
45.5621
 20
88.4469
 11
45.927
 21
88.3532
  0
LINE
  8
0
 10
45.927
 20
88.3532
 11
46.2773
 21
88.2145
  0
LINE
  8
0
 10
46.2773
 20
88.2145
 11
46.6075
 21
88.033
  0
LINE
  8
0
 10
46.6075
 20
88.033
 11
46.9123
 21
87.8115
  0
LINE
  8
0
 10
46.9123
 20
87.8115
 11
47.1869
 21
87.5536
  0
LINE
  8
0
 10
47.1869
 20
87.5536
 11
47.427
 21
87.2634
  0
LINE
  8
0
 10
47.427
 20
87.2634
 11
47.6289
 21
86.9453
  0
LINE
  8
0
 10
47.6289
 20
86.9453
 11
47.7893
 21
86.6044
  0
LINE
  8
0
 10
47.7893
 20
86.6044
 11
47.9057
 21
86.2461
  0
LINE
  8
0
 10
47.9057
 20
86.2461
 11
47.9763
 21
85.876
  0
LINE
  8
0
 10
47.9763
 20
85.876
 11
48
 21
85.5
  0
LINE
  8
0
 10
48
 20
85.5
 11
47.9763
 21
85.124
  0
LINE
  8
0
 10
47.9763
 20
85.124
 11
47.9057
 21
84.7539
  0
LINE
  8
0
 10
47.9057
 20
84.7539
 11
47.7893
 21
84.3956
  0
LINE
  8
0
 10
47.7893
 20
84.3956
 11
47.6289
 21
84.0547
  0
LINE
  8
0
 10
47.6289
 20
84.0547
 11
47.427
 21
83.7366
  0
LINE
  8
0
 10
47.427
 20
83.7366
 11
47.1869
 21
83.4464
  0
LINE
  8
0
 10
47.1869
 20
83.4464
 11
46.9123
 21
83.1884
  0
LINE
  8
0
 10
46.9123
 20
83.1884
 11
46.6075
 21
82.967
  0
LINE
  8
0
 10
46.6075
 20
82.967
 11
46.2773
 21
82.7855
  0
LINE
  8
0
 10
46.2773
 20
82.7855
 11
45.927
 21
82.6468
  0
LINE
  8
0
 10
45.927
 20
82.6468
 11
45.5621
 21
82.5531
  0
LINE
  8
0
 10
45.5621
 20
82.5531
 11
45.1884
 21
82.5059
  0
LINE
  8
0
 10
45.1884
 20
82.5059
 11
44.8116
 21
82.5059
  0
LINE
  8
0
 10
-60.1884
 20
82.5059
 11
-60.5621
 21
82.5531
  0
LINE
  8
0
 10
-60.5621
 20
82.5531
 11
-60.927
 21
82.6468
  0
LINE
  8
0
 10
-60.927
 20
82.6468
 11
-61.2773
 21
82.7855
  0
LINE
  8
0
 10
-61.2773
 20
82.7855
 11
-61.6075
 21
82.967
  0
LINE
  8
0
 10
-61.6075
 20
82.967
 11
-61.9123
 21
83.1884
  0
LINE
  8
0
 10
-61.9123
 20
83.1884
 11
-62.1869
 21
83.4464
  0
LINE
  8
0
 10
-62.1869
 20
83.4464
 11
-62.427
 21
83.7366
  0
LINE
  8
0
 10
-62.427
 20
83.7366
 11
-62.6289
 21
84.0547
  0
LINE
  8
0
 10
-62.6289
 20
84.0547
 11
-62.7893
 21
84.3956
  0
LINE
  8
0
 10
-62.7893
 20
84.3956
 11
-62.9057
 21
84.7539
  0
LINE
  8
0
 10
-62.9057
 20
84.7539
 11
-62.9763
 21
85.124
  0
LINE
  8
0
 10
-62.9763
 20
85.124
 11
-63
 21
85.5
  0
LINE
  8
0
 10
-63
 20
85.5
 11
-62.9763
 21
85.876
  0
LINE
  8
0
 10
-62.9763
 20
85.876
 11
-62.9057
 21
86.2461
  0
LINE
  8
0
 10
-62.9057
 20
86.2461
 11
-62.7893
 21
86.6044
  0
LINE
  8
0
 10
-62.7893
 20
86.6044
 11
-62.6289
 21
86.9453
  0
LINE
  8
0
 10
-62.6289
 20
86.9453
 11
-62.427
 21
87.2634
  0
LINE
  8
0
 10
-62.427
 20
87.2634
 11
-62.1869
 21
87.5536
  0
LINE
  8
0
 10
-62.1869
 20
87.5536
 11
-61.9123
 21
87.8115
  0
LINE
  8
0
 10
-61.9123
 20
87.8115
 11
-61.6075
 21
88.033
  0
LINE
  8
0
 10
-61.6075
 20
88.033
 11
-61.2773
 21
88.2145
  0
LINE
  8
0
 10
-61.2773
 20
88.2145
 11
-60.927
 21
88.3532
  0
LINE
  8
0
 10
-60.927
 20
88.3532
 11
-60.5621
 21
88.4469
  0
LINE
  8
0
 10
-60.5621
 20
88.4469
 11
-60.1884
 21
88.4941
  0
LINE
  8
0
 10
-60.1884
 20
88.4941
 11
-59.8116
 21
88.4941
  0
LINE
  8
0
 10
-59.8116
 20
88.4941
 11
-59.4379
 21
88.4469
  0
LINE
  8
0
 10
-59.4379
 20
88.4469
 11
-59.0729
 21
88.3532
  0
LINE
  8
0
 10
-59.0729
 20
88.3532
 11
-58.7227
 21
88.2145
  0
LINE
  8
0
 10
-58.7227
 20
88.2145
 11
-58.3925
 21
88.033
  0
LINE
  8
0
 10
-58.3925
 20
88.033
 11
-58.0877
 21
87.8115
  0
LINE
  8
0
 10
-58.0877
 20
87.8115
 11
-57.8131
 21
87.5536
  0
LINE
  8
0
 10
-57.8131
 20
87.5536
 11
-57.5729
 21
87.2634
  0
LINE
  8
0
 10
-57.5729
 20
87.2634
 11
-57.3711
 21
86.9453
  0
LINE
  8
0
 10
-57.3711
 20
86.9453
 11
-57.2107
 21
86.6044
  0
LINE
  8
0
 10
-57.2107
 20
86.6044
 11
-57.0942
 21
86.2461
  0
LINE
  8
0
 10
-57.0942
 20
86.2461
 11
-57.0237
 21
85.876
  0
LINE
  8
0
 10
-57.0237
 20
85.876
 11
-57
 21
85.5
  0
LINE
  8
0
 10
-57
 20
85.5
 11
-57.0237
 21
85.124
  0
LINE
  8
0
 10
-57.0237
 20
85.124
 11
-57.0942
 21
84.7539
  0
LINE
  8
0
 10
-57.0942
 20
84.7539
 11
-57.2107
 21
84.3956
  0
LINE
  8
0
 10
-57.2107
 20
84.3956
 11
-57.3711
 21
84.0547
  0
LINE
  8
0
 10
-57.3711
 20
84.0547
 11
-57.5729
 21
83.7366
  0
LINE
  8
0
 10
-57.5729
 20
83.7366
 11
-57.8131
 21
83.4464
  0
LINE
  8
0
 10
-57.8131
 20
83.4464
 11
-58.0877
 21
83.1884
  0
LINE
  8
0
 10
-58.0877
 20
83.1884
 11
-58.3925
 21
82.967
  0
LINE
  8
0
 10
-58.3925
 20
82.967
 11
-58.7227
 21
82.7855
  0
LINE
  8
0
 10
-58.7227
 20
82.7855
 11
-59.0729
 21
82.6468
  0
LINE
  8
0
 10
-59.0729
 20
82.6468
 11
-59.4379
 21
82.5531
  0
LINE
  8
0
 10
-59.4379
 20
82.5531
 11
-59.8116
 21
82.5059
  0
LINE
  8
0
 10
-59.8116
 20
82.5059
 11
-60.1884
 21
82.5059
  0
LINE
  8
0
 10
-0.18837
 20
82.5059
 11
-0.562134
 21
82.5531
  0
LINE
  8
0
 10
-0.562134
 20
82.5531
 11
-0.927048
 21
82.6468
  0
LINE
  8
0
 10
-0.927048
 20
82.6468
 11
-1.27733
 21
82.7855
  0
LINE
  8
0
 10
-1.27733
 20
82.7855
 11
-1.60747
 21
82.967
  0
LINE
  8
0
 10
-1.60747
 20
82.967
 11
-1.91226
 21
83.1884
  0
LINE
  8
0
 10
-1.91226
 20
83.1884
 11
-2.1869
 21
83.4464
  0
LINE
  8
0
 10
-2.1869
 20
83.4464
 11
-2.42705
 21
83.7366
  0
LINE
  8
0
 10
-2.42705
 20
83.7366
 11
-2.62891
 21
84.0547
  0
LINE
  8
0
 10
-2.62891
 20
84.0547
 11
-2.78932
 21
84.3956
  0
LINE
  8
0
 10
-2.78932
 20
84.3956
 11
-2.90575
 21
84.7539
  0
LINE
  8
0
 10
-2.90575
 20
84.7539
 11
-2.97633
 21
85.124
  0
LINE
  8
0
 10
-2.97633
 20
85.124
 11
-3
 21
85.5
  0
LINE
  8
0
 10
-3
 20
85.5
 11
-2.97633
 21
85.876
  0
LINE
  8
0
 10
-2.97633
 20
85.876
 11
-2.90575
 21
86.2461
  0
LINE
  8
0
 10
-2.90575
 20
86.2461
 11
-2.78932
 21
86.6044
  0
LINE
  8
0
 10
-2.78932
 20
86.6044
 11
-2.62891
 21
86.9453
  0
LINE
  8
0
 10
-2.62891
 20
86.9453
 11
-2.42705
 21
87.2634
  0
LINE
  8
0
 10
-2.42705
 20
87.2634
 11
-2.1869
 21
87.5536
  0
LINE
  8
0
 10
-2.1869
 20
87.5536
 11
-1.91226
 21
87.8115
  0
LINE
  8
0
 10
-1.91226
 20
87.8115
 11
-1.60747
 21
88.033
  0
LINE
  8
0
 10
-1.60747
 20
88.033
 11
-1.27733
 21
88.2145
  0
LINE
  8
0
 10
-1.27733
 20
88.2145
 11
-0.927048
 21
88.3532
  0
LINE
  8
0
 10
-0.927048
 20
88.3532
 11
-0.562134
 21
88.4469
  0
LINE
  8
0
 10
-0.562134
 20
88.4469
 11
-0.18837
 21
88.4941
  0
LINE
  8
0
 10
-0.18837
 20
88.4941
 11
0.18837
 21
88.4941
  0
LINE
  8
0
 10
0.18837
 20
88.4941
 11
0.562134
 21
88.4469
  0
LINE
  8
0
 10
0.562134
 20
88.4469
 11
0.927048
 21
88.3532
  0
LINE
  8
0
 10
0.927048
 20
88.3532
 11
1.27733
 21
88.2145
  0
LINE
  8
0
 10
1.27733
 20
88.2145
 11
1.60747
 21
88.033
  0
LINE
  8
0
 10
1.60747
 20
88.033
 11
1.91226
 21
87.8115
  0
LINE
  8
0
 10
1.91226
 20
87.8115
 11
2.1869
 21
87.5536
  0
LINE
  8
0
 10
2.1869
 20
87.5536
 11
2.42705
 21
87.2634
  0
LINE
  8
0
 10
2.42705
 20
87.2634
 11
2.62891
 21
86.9453
  0
LINE
  8
0
 10
2.62891
 20
86.9453
 11
2.78932
 21
86.6044
  0
LINE
  8
0
 10
2.78932
 20
86.6044
 11
2.90575
 21
86.2461
  0
LINE
  8
0
 10
2.90575
 20
86.2461
 11
2.97633
 21
85.876
  0
LINE
  8
0
 10
2.97633
 20
85.876
 11
3
 21
85.5
  0
LINE
  8
0
 10
3
 20
85.5
 11
2.97633
 21
85.124
  0
LINE
  8
0
 10
2.97633
 20
85.124
 11
2.90575
 21
84.7539
  0
LINE
  8
0
 10
2.90575
 20
84.7539
 11
2.78932
 21
84.3956
  0
LINE
  8
0
 10
2.78932
 20
84.3956
 11
2.62891
 21
84.0547
  0
LINE
  8
0
 10
2.62891
 20
84.0547
 11
2.42705
 21
83.7366
  0
LINE
  8
0
 10
2.42705
 20
83.7366
 11
2.1869
 21
83.4464
  0
LINE
  8
0
 10
2.1869
 20
83.4464
 11
1.91226
 21
83.1884
  0
LINE
  8
0
 10
1.91226
 20
83.1884
 11
1.60747
 21
82.967
  0
LINE
  8
0
 10
1.60747
 20
82.967
 11
1.27733
 21
82.7855
  0
LINE
  8
0
 10
1.27733
 20
82.7855
 11
0.927048
 21
82.6468
  0
LINE
  8
0
 10
0.927048
 20
82.6468
 11
0.562134
 21
82.5531
  0
LINE
  8
0
 10
0.562134
 20
82.5531
 11
0.18837
 21
82.5059
  0
LINE
  8
0
 10
0.18837
 20
82.5059
 11
-0.18837
 21
82.5059
  0
LINE
  8
0
 10
-15.1884
 20
82.5059
 11
-15.5621
 21
82.5531
  0
LINE
  8
0
 10
-15.5621
 20
82.5531
 11
-15.927
 21
82.6468
  0
LINE
  8
0
 10
-15.927
 20
82.6468
 11
-16.2773
 21
82.7855
  0
LINE
  8
0
 10
-16.2773
 20
82.7855
 11
-16.6075
 21
82.967
  0
LINE
  8
0
 10
-16.6075
 20
82.967
 11
-16.9123
 21
83.1884
  0
LINE
  8
0
 10
-16.9123
 20
83.1884
 11
-17.1869
 21
83.4464
  0
LINE
  8
0
 10
-17.1869
 20
83.4464
 11
-17.427
 21
83.7366
  0
LINE
  8
0
 10
-17.427
 20
83.7366
 11
-17.6289
 21
84.0547
  0
LINE
  8
0
 10
-17.6289
 20
84.0547
 11
-17.7893
 21
84.3956
  0
LINE
  8
0
 10
-17.7893
 20
84.3956
 11
-17.9057
 21
84.7539
  0
LINE
  8
0
 10
-17.9057
 20
84.7539
 11
-17.9763
 21
85.124
  0
LINE
  8
0
 10
-17.9763
 20
85.124
 11
-18
 21
85.5
  0
LINE
  8
0
 10
-18
 20
85.5
 11
-17.9763
 21
85.876
  0
LINE
  8
0
 10
-17.9763
 20
85.876
 11
-17.9057
 21
86.2461
  0
LINE
  8
0
 10
-17.9057
 20
86.2461
 11
-17.7893
 21
86.6044
  0
LINE
  8
0
 10
-17.7893
 20
86.6044
 11
-17.6289
 21
86.9453
  0
LINE
  8
0
 10
-17.6289
 20
86.9453
 11
-17.427
 21
87.2634
  0
LINE
  8
0
 10
-17.427
 20
87.2634
 11
-17.1869
 21
87.5536
  0
LINE
  8
0
 10
-17.1869
 20
87.5536
 11
-16.9123
 21
87.8115
  0
LINE
  8
0
 10
-16.9123
 20
87.8115
 11
-16.6075
 21
88.033
  0
LINE
  8
0
 10
-16.6075
 20
88.033
 11
-16.2773
 21
88.2145
  0
LINE
  8
0
 10
-16.2773
 20
88.2145
 11
-15.927
 21
88.3532
  0
LINE
  8
0
 10
-15.927
 20
88.3532
 11
-15.5621
 21
88.4469
  0
LINE
  8
0
 10
-15.5621
 20
88.4469
 11
-15.1884
 21
88.4941
  0
LINE
  8
0
 10
-15.1884
 20
88.4941
 11
-14.8116
 21
88.4941
  0
LINE
  8
0
 10
-14.8116
 20
88.4941
 11
-14.4379
 21
88.4469
  0
LINE
  8
0
 10
-14.4379
 20
88.4469
 11
-14.0729
 21
88.3532
  0
LINE
  8
0
 10
-14.0729
 20
88.3532
 11
-13.7227
 21
88.2145
  0
LINE
  8
0
 10
-13.7227
 20
88.2145
 11
-13.3925
 21
88.033
  0
LINE
  8
0
 10
-13.3925
 20
88.033
 11
-13.0877
 21
87.8115
  0
LINE
  8
0
 10
-13.0877
 20
87.8115
 11
-12.8131
 21
87.5536
  0
LINE
  8
0
 10
-12.8131
 20
87.5536
 11
-12.5729
 21
87.2634
  0
LINE
  8
0
 10
-12.5729
 20
87.2634
 11
-12.3711
 21
86.9453
  0
LINE
  8
0
 10
-12.3711
 20
86.9453
 11
-12.2107
 21
86.6044
  0
LINE
  8
0
 10
-12.2107
 20
86.6044
 11
-12.0942
 21
86.2461
  0
LINE
  8
0
 10
-12.0942
 20
86.2461
 11
-12.0237
 21
85.876
  0
LINE
  8
0
 10
-12.0237
 20
85.876
 11
-12
 21
85.5
  0
LINE
  8
0
 10
-12
 20
85.5
 11
-12.0237
 21
85.124
  0
LINE
  8
0
 10
-12.0237
 20
85.124
 11
-12.0942
 21
84.7539
  0
LINE
  8
0
 10
-12.0942
 20
84.7539
 11
-12.2107
 21
84.3956
  0
LINE
  8
0
 10
-12.2107
 20
84.3956
 11
-12.3711
 21
84.0547
  0
LINE
  8
0
 10
-12.3711
 20
84.0547
 11
-12.5729
 21
83.7366
  0
LINE
  8
0
 10
-12.5729
 20
83.7366
 11
-12.8131
 21
83.4464
  0
LINE
  8
0
 10
-12.8131
 20
83.4464
 11
-13.0877
 21
83.1884
  0
LINE
  8
0
 10
-13.0877
 20
83.1884
 11
-13.3925
 21
82.967
  0
LINE
  8
0
 10
-13.3925
 20
82.967
 11
-13.7227
 21
82.7855
  0
LINE
  8
0
 10
-13.7227
 20
82.7855
 11
-14.0729
 21
82.6468
  0
LINE
  8
0
 10
-14.0729
 20
82.6468
 11
-14.4379
 21
82.5531
  0
LINE
  8
0
 10
-14.4379
 20
82.5531
 11
-14.8116
 21
82.5059
  0
LINE
  8
0
 10
-14.8116
 20
82.5059
 11
-15.1884
 21
82.5059
  0
LINE
  8
0
 10
59.8116
 20
82.5059
 11
59.4379
 21
82.5531
  0
LINE
  8
0
 10
59.4379
 20
82.5531
 11
59.0729
 21
82.6468
  0
LINE
  8
0
 10
59.0729
 20
82.6468
 11
58.7227
 21
82.7855
  0
LINE
  8
0
 10
58.7227
 20
82.7855
 11
58.3925
 21
82.967
  0
LINE
  8
0
 10
58.3925
 20
82.967
 11
58.0877
 21
83.1884
  0
LINE
  8
0
 10
58.0877
 20
83.1884
 11
57.8131
 21
83.4464
  0
LINE
  8
0
 10
57.8131
 20
83.4464
 11
57.5729
 21
83.7366
  0
LINE
  8
0
 10
57.5729
 20
83.7366
 11
57.3711
 21
84.0547
  0
LINE
  8
0
 10
57.3711
 20
84.0547
 11
57.2107
 21
84.3956
  0
LINE
  8
0
 10
57.2107
 20
84.3956
 11
57.0942
 21
84.7539
  0
LINE
  8
0
 10
57.0942
 20
84.7539
 11
57.0237
 21
85.124
  0
LINE
  8
0
 10
57.0237
 20
85.124
 11
57
 21
85.5
  0
LINE
  8
0
 10
57
 20
85.5
 11
57.0237
 21
85.876
  0
LINE
  8
0
 10
57.0237
 20
85.876
 11
57.0942
 21
86.2461
  0
LINE
  8
0
 10
57.0942
 20
86.2461
 11
57.2107
 21
86.6044
  0
LINE
  8
0
 10
57.2107
 20
86.6044
 11
57.3711
 21
86.9453
  0
LINE
  8
0
 10
57.3711
 20
86.9453
 11
57.5729
 21
87.2634
  0
LINE
  8
0
 10
57.5729
 20
87.2634
 11
57.8131
 21
87.5536
  0
LINE
  8
0
 10
57.8131
 20
87.5536
 11
58.0877
 21
87.8115
  0
LINE
  8
0
 10
58.0877
 20
87.8115
 11
58.3925
 21
88.033
  0
LINE
  8
0
 10
58.3925
 20
88.033
 11
58.7227
 21
88.2145
  0
LINE
  8
0
 10
58.7227
 20
88.2145
 11
59.0729
 21
88.3532
  0
LINE
  8
0
 10
59.0729
 20
88.3532
 11
59.4379
 21
88.4469
  0
LINE
  8
0
 10
59.4379
 20
88.4469
 11
59.8116
 21
88.4941
  0
LINE
  8
0
 10
59.8116
 20
88.4941
 11
60.1884
 21
88.4941
  0
LINE
  8
0
 10
60.1884
 20
88.4941
 11
60.5621
 21
88.4469
  0
LINE
  8
0
 10
60.5621
 20
88.4469
 11
60.927
 21
88.3532
  0
LINE
  8
0
 10
60.927
 20
88.3532
 11
61.2773
 21
88.2145
  0
LINE
  8
0
 10
61.2773
 20
88.2145
 11
61.6075
 21
88.033
  0
LINE
  8
0
 10
61.6075
 20
88.033
 11
61.9123
 21
87.8115
  0
LINE
  8
0
 10
61.9123
 20
87.8115
 11
62.1869
 21
87.5536
  0
LINE
  8
0
 10
62.1869
 20
87.5536
 11
62.427
 21
87.2634
  0
LINE
  8
0
 10
62.427
 20
87.2634
 11
62.6289
 21
86.9453
  0
LINE
  8
0
 10
62.6289
 20
86.9453
 11
62.7893
 21
86.6044
  0
LINE
  8
0
 10
62.7893
 20
86.6044
 11
62.9057
 21
86.2461
  0
LINE
  8
0
 10
62.9057
 20
86.2461
 11
62.9763
 21
85.876
  0
LINE
  8
0
 10
62.9763
 20
85.876
 11
63
 21
85.5
  0
LINE
  8
0
 10
63
 20
85.5
 11
62.9763
 21
85.124
  0
LINE
  8
0
 10
62.9763
 20
85.124
 11
62.9057
 21
84.7539
  0
LINE
  8
0
 10
62.9057
 20
84.7539
 11
62.7893
 21
84.3956
  0
LINE
  8
0
 10
62.7893
 20
84.3956
 11
62.6289
 21
84.0547
  0
LINE
  8
0
 10
62.6289
 20
84.0547
 11
62.427
 21
83.7366
  0
LINE
  8
0
 10
62.427
 20
83.7366
 11
62.1869
 21
83.4464
  0
LINE
  8
0
 10
62.1869
 20
83.4464
 11
61.9123
 21
83.1884
  0
LINE
  8
0
 10
61.9123
 20
83.1884
 11
61.6075
 21
82.967
  0
LINE
  8
0
 10
61.6075
 20
82.967
 11
61.2773
 21
82.7855
  0
LINE
  8
0
 10
61.2773
 20
82.7855
 11
60.927
 21
82.6468
  0
LINE
  8
0
 10
60.927
 20
82.6468
 11
60.5621
 21
82.5531
  0
LINE
  8
0
 10
60.5621
 20
82.5531
 11
60.1884
 21
82.5059
  0
LINE
  8
0
 10
60.1884
 20
82.5059
 11
59.8116
 21
82.5059
  0
LINE
  8
0
 10
14.8116
 20
82.5059
 11
14.4379
 21
82.5531
  0
LINE
  8
0
 10
14.4379
 20
82.5531
 11
14.0729
 21
82.6468
  0
LINE
  8
0
 10
14.0729
 20
82.6468
 11
13.7227
 21
82.7855
  0
LINE
  8
0
 10
13.7227
 20
82.7855
 11
13.3925
 21
82.967
  0
LINE
  8
0
 10
13.3925
 20
82.967
 11
13.0877
 21
83.1884
  0
LINE
  8
0
 10
13.0877
 20
83.1884
 11
12.8131
 21
83.4464
  0
LINE
  8
0
 10
12.8131
 20
83.4464
 11
12.5729
 21
83.7366
  0
LINE
  8
0
 10
12.5729
 20
83.7366
 11
12.3711
 21
84.0547
  0
LINE
  8
0
 10
12.3711
 20
84.0547
 11
12.2107
 21
84.3956
  0
LINE
  8
0
 10
12.2107
 20
84.3956
 11
12.0942
 21
84.7539
  0
LINE
  8
0
 10
12.0942
 20
84.7539
 11
12.0237
 21
85.124
  0
LINE
  8
0
 10
12.0237
 20
85.124
 11
12
 21
85.5
  0
LINE
  8
0
 10
12
 20
85.5
 11
12.0237
 21
85.876
  0
LINE
  8
0
 10
12.0237
 20
85.876
 11
12.0942
 21
86.2461
  0
LINE
  8
0
 10
12.0942
 20
86.2461
 11
12.2107
 21
86.6044
  0
LINE
  8
0
 10
12.2107
 20
86.6044
 11
12.3711
 21
86.9453
  0
LINE
  8
0
 10
12.3711
 20
86.9453
 11
12.5729
 21
87.2634
  0
LINE
  8
0
 10
12.5729
 20
87.2634
 11
12.8131
 21
87.5536
  0
LINE
  8
0
 10
12.8131
 20
87.5536
 11
13.0877
 21
87.8115
  0
LINE
  8
0
 10
13.0877
 20
87.8115
 11
13.3925
 21
88.033
  0
LINE
  8
0
 10
13.3925
 20
88.033
 11
13.7227
 21
88.2145
  0
LINE
  8
0
 10
13.7227
 20
88.2145
 11
14.0729
 21
88.3532
  0
LINE
  8
0
 10
14.0729
 20
88.3532
 11
14.4379
 21
88.4469
  0
LINE
  8
0
 10
14.4379
 20
88.4469
 11
14.8116
 21
88.4941
  0
LINE
  8
0
 10
14.8116
 20
88.4941
 11
15.1884
 21
88.4941
  0
LINE
  8
0
 10
15.1884
 20
88.4941
 11
15.5621
 21
88.4469
  0
LINE
  8
0
 10
15.5621
 20
88.4469
 11
15.927
 21
88.3532
  0
LINE
  8
0
 10
15.927
 20
88.3532
 11
16.2773
 21
88.2145
  0
LINE
  8
0
 10
16.2773
 20
88.2145
 11
16.6075
 21
88.033
  0
LINE
  8
0
 10
16.6075
 20
88.033
 11
16.9123
 21
87.8115
  0
LINE
  8
0
 10
16.9123
 20
87.8115
 11
17.1869
 21
87.5536
  0
LINE
  8
0
 10
17.1869
 20
87.5536
 11
17.427
 21
87.2634
  0
LINE
  8
0
 10
17.427
 20
87.2634
 11
17.6289
 21
86.9453
  0
LINE
  8
0
 10
17.6289
 20
86.9453
 11
17.7893
 21
86.6044
  0
LINE
  8
0
 10
17.7893
 20
86.6044
 11
17.9057
 21
86.2461
  0
LINE
  8
0
 10
17.9057
 20
86.2461
 11
17.9763
 21
85.876
  0
LINE
  8
0
 10
17.9763
 20
85.876
 11
18
 21
85.5
  0
LINE
  8
0
 10
18
 20
85.5
 11
17.9763
 21
85.124
  0
LINE
  8
0
 10
17.9763
 20
85.124
 11
17.9057
 21
84.7539
  0
LINE
  8
0
 10
17.9057
 20
84.7539
 11
17.7893
 21
84.3956
  0
LINE
  8
0
 10
17.7893
 20
84.3956
 11
17.6289
 21
84.0547
  0
LINE
  8
0
 10
17.6289
 20
84.0547
 11
17.427
 21
83.7366
  0
LINE
  8
0
 10
17.427
 20
83.7366
 11
17.1869
 21
83.4464
  0
LINE
  8
0
 10
17.1869
 20
83.4464
 11
16.9123
 21
83.1884
  0
LINE
  8
0
 10
16.9123
 20
83.1884
 11
16.6075
 21
82.967
  0
LINE
  8
0
 10
16.6075
 20
82.967
 11
16.2773
 21
82.7855
  0
LINE
  8
0
 10
16.2773
 20
82.7855
 11
15.927
 21
82.6468
  0
LINE
  8
0
 10
15.927
 20
82.6468
 11
15.5621
 21
82.5531
  0
LINE
  8
0
 10
15.5621
 20
82.5531
 11
15.1884
 21
82.5059
  0
LINE
  8
0
 10
15.1884
 20
82.5059
 11
14.8116
 21
82.5059
  0
LINE
  8
0
 10
29.8116
 20
82.5059
 11
29.4379
 21
82.5531
  0
LINE
  8
0
 10
29.4379
 20
82.5531
 11
29.0729
 21
82.6468
  0
LINE
  8
0
 10
29.0729
 20
82.6468
 11
28.7227
 21
82.7855
  0
LINE
  8
0
 10
28.7227
 20
82.7855
 11
28.3925
 21
82.967
  0
LINE
  8
0
 10
28.3925
 20
82.967
 11
28.0877
 21
83.1884
  0
LINE
  8
0
 10
28.0877
 20
83.1884
 11
27.8131
 21
83.4464
  0
LINE
  8
0
 10
27.8131
 20
83.4464
 11
27.5729
 21
83.7366
  0
LINE
  8
0
 10
27.5729
 20
83.7366
 11
27.3711
 21
84.0547
  0
LINE
  8
0
 10
27.3711
 20
84.0547
 11
27.2107
 21
84.3956
  0
LINE
  8
0
 10
27.2107
 20
84.3956
 11
27.0942
 21
84.7539
  0
LINE
  8
0
 10
27.0942
 20
84.7539
 11
27.0237
 21
85.124
  0
LINE
  8
0
 10
27.0237
 20
85.124
 11
27
 21
85.5
  0
LINE
  8
0
 10
27
 20
85.5
 11
27.0237
 21
85.876
  0
LINE
  8
0
 10
27.0237
 20
85.876
 11
27.0942
 21
86.2461
  0
LINE
  8
0
 10
27.0942
 20
86.2461
 11
27.2107
 21
86.6044
  0
LINE
  8
0
 10
27.2107
 20
86.6044
 11
27.3711
 21
86.9453
  0
LINE
  8
0
 10
27.3711
 20
86.9453
 11
27.5729
 21
87.2634
  0
LINE
  8
0
 10
27.5729
 20
87.2634
 11
27.8131
 21
87.5536
  0
LINE
  8
0
 10
27.8131
 20
87.5536
 11
28.0877
 21
87.8115
  0
LINE
  8
0
 10
28.0877
 20
87.8115
 11
28.3925
 21
88.033
  0
LINE
  8
0
 10
28.3925
 20
88.033
 11
28.7227
 21
88.2145
  0
LINE
  8
0
 10
28.7227
 20
88.2145
 11
29.0729
 21
88.3532
  0
LINE
  8
0
 10
29.0729
 20
88.3532
 11
29.4379
 21
88.4469
  0
LINE
  8
0
 10
29.4379
 20
88.4469
 11
29.8116
 21
88.4941
  0
LINE
  8
0
 10
29.8116
 20
88.4941
 11
30.1884
 21
88.4941
  0
LINE
  8
0
 10
30.1884
 20
88.4941
 11
30.5621
 21
88.4469
  0
LINE
  8
0
 10
30.5621
 20
88.4469
 11
30.927
 21
88.3532
  0
LINE
  8
0
 10
30.927
 20
88.3532
 11
31.2773
 21
88.2145
  0
LINE
  8
0
 10
31.2773
 20
88.2145
 11
31.6075
 21
88.033
  0
LINE
  8
0
 10
31.6075
 20
88.033
 11
31.9123
 21
87.8115
  0
LINE
  8
0
 10
31.9123
 20
87.8115
 11
32.1869
 21
87.5536
  0
LINE
  8
0
 10
32.1869
 20
87.5536
 11
32.427
 21
87.2634
  0
LINE
  8
0
 10
32.427
 20
87.2634
 11
32.6289
 21
86.9453
  0
LINE
  8
0
 10
32.6289
 20
86.9453
 11
32.7893
 21
86.6044
  0
LINE
  8
0
 10
32.7893
 20
86.6044
 11
32.9057
 21
86.2461
  0
LINE
  8
0
 10
32.9057
 20
86.2461
 11
32.9763
 21
85.876
  0
LINE
  8
0
 10
32.9763
 20
85.876
 11
33
 21
85.5
  0
LINE
  8
0
 10
33
 20
85.5
 11
32.9763
 21
85.124
  0
LINE
  8
0
 10
32.9763
 20
85.124
 11
32.9057
 21
84.7539
  0
LINE
  8
0
 10
32.9057
 20
84.7539
 11
32.7893
 21
84.3956
  0
LINE
  8
0
 10
32.7893
 20
84.3956
 11
32.6289
 21
84.0547
  0
LINE
  8
0
 10
32.6289
 20
84.0547
 11
32.427
 21
83.7366
  0
LINE
  8
0
 10
32.427
 20
83.7366
 11
32.1869
 21
83.4464
  0
LINE
  8
0
 10
32.1869
 20
83.4464
 11
31.9123
 21
83.1884
  0
LINE
  8
0
 10
31.9123
 20
83.1884
 11
31.6075
 21
82.967
  0
LINE
  8
0
 10
31.6075
 20
82.967
 11
31.2773
 21
82.7855
  0
LINE
  8
0
 10
31.2773
 20
82.7855
 11
30.927
 21
82.6468
  0
LINE
  8
0
 10
30.927
 20
82.6468
 11
30.5621
 21
82.5531
  0
LINE
  8
0
 10
30.5621
 20
82.5531
 11
30.1884
 21
82.5059
  0
LINE
  8
0
 10
30.1884
 20
82.5059
 11
29.8116
 21
82.5059
  0
LINE
  8
0
 10
-45.1884
 20
82.5059
 11
-45.5621
 21
82.5531
  0
LINE
  8
0
 10
-45.5621
 20
82.5531
 11
-45.927
 21
82.6468
  0
LINE
  8
0
 10
-45.927
 20
82.6468
 11
-46.2773
 21
82.7855
  0
LINE
  8
0
 10
-46.2773
 20
82.7855
 11
-46.6075
 21
82.967
  0
LINE
  8
0
 10
-46.6075
 20
82.967
 11
-46.9123
 21
83.1884
  0
LINE
  8
0
 10
-46.9123
 20
83.1884
 11
-47.1869
 21
83.4464
  0
LINE
  8
0
 10
-47.1869
 20
83.4464
 11
-47.427
 21
83.7366
  0
LINE
  8
0
 10
-47.427
 20
83.7366
 11
-47.6289
 21
84.0547
  0
LINE
  8
0
 10
-47.6289
 20
84.0547
 11
-47.7893
 21
84.3956
  0
LINE
  8
0
 10
-47.7893
 20
84.3956
 11
-47.9057
 21
84.7539
  0
LINE
  8
0
 10
-47.9057
 20
84.7539
 11
-47.9763
 21
85.124
  0
LINE
  8
0
 10
-47.9763
 20
85.124
 11
-48
 21
85.5
  0
LINE
  8
0
 10
-48
 20
85.5
 11
-47.9763
 21
85.876
  0
LINE
  8
0
 10
-47.9763
 20
85.876
 11
-47.9057
 21
86.2461
  0
LINE
  8
0
 10
-47.9057
 20
86.2461
 11
-47.7893
 21
86.6044
  0
LINE
  8
0
 10
-47.7893
 20
86.6044
 11
-47.6289
 21
86.9453
  0
LINE
  8
0
 10
-47.6289
 20
86.9453
 11
-47.427
 21
87.2634
  0
LINE
  8
0
 10
-47.427
 20
87.2634
 11
-47.1869
 21
87.5536
  0
LINE
  8
0
 10
-47.1869
 20
87.5536
 11
-46.9123
 21
87.8115
  0
LINE
  8
0
 10
-46.9123
 20
87.8115
 11
-46.6075
 21
88.033
  0
LINE
  8
0
 10
-46.6075
 20
88.033
 11
-46.2773
 21
88.2145
  0
LINE
  8
0
 10
-46.2773
 20
88.2145
 11
-45.927
 21
88.3532
  0
LINE
  8
0
 10
-45.927
 20
88.3532
 11
-45.5621
 21
88.4469
  0
LINE
  8
0
 10
-45.5621
 20
88.4469
 11
-45.1884
 21
88.4941
  0
LINE
  8
0
 10
-45.1884
 20
88.4941
 11
-44.8116
 21
88.4941
  0
LINE
  8
0
 10
-44.8116
 20
88.4941
 11
-44.4379
 21
88.4469
  0
LINE
  8
0
 10
-44.4379
 20
88.4469
 11
-44.0729
 21
88.3532
  0
LINE
  8
0
 10
-44.0729
 20
88.3532
 11
-43.7227
 21
88.2145
  0
LINE
  8
0
 10
-43.7227
 20
88.2145
 11
-43.3925
 21
88.033
  0
LINE
  8
0
 10
-43.3925
 20
88.033
 11
-43.0877
 21
87.8115
  0
LINE
  8
0
 10
-43.0877
 20
87.8115
 11
-42.8131
 21
87.5536
  0
LINE
  8
0
 10
-42.8131
 20
87.5536
 11
-42.5729
 21
87.2634
  0
LINE
  8
0
 10
-42.5729
 20
87.2634
 11
-42.3711
 21
86.9453
  0
LINE
  8
0
 10
-42.3711
 20
86.9453
 11
-42.2107
 21
86.6044
  0
LINE
  8
0
 10
-42.2107
 20
86.6044
 11
-42.0942
 21
86.2461
  0
LINE
  8
0
 10
-42.0942
 20
86.2461
 11
-42.0237
 21
85.876
  0
LINE
  8
0
 10
-42.0237
 20
85.876
 11
-42
 21
85.5
  0
LINE
  8
0
 10
-42
 20
85.5
 11
-42.0237
 21
85.124
  0
LINE
  8
0
 10
-42.0237
 20
85.124
 11
-42.0942
 21
84.7539
  0
LINE
  8
0
 10
-42.0942
 20
84.7539
 11
-42.2107
 21
84.3956
  0
LINE
  8
0
 10
-42.2107
 20
84.3956
 11
-42.3711
 21
84.0547
  0
LINE
  8
0
 10
-42.3711
 20
84.0547
 11
-42.5729
 21
83.7366
  0
LINE
  8
0
 10
-42.5729
 20
83.7366
 11
-42.8131
 21
83.4464
  0
LINE
  8
0
 10
-42.8131
 20
83.4464
 11
-43.0877
 21
83.1884
  0
LINE
  8
0
 10
-43.0877
 20
83.1884
 11
-43.3925
 21
82.967
  0
LINE
  8
0
 10
-43.3925
 20
82.967
 11
-43.7227
 21
82.7855
  0
LINE
  8
0
 10
-43.7227
 20
82.7855
 11
-44.0729
 21
82.6468
  0
LINE
  8
0
 10
-44.0729
 20
82.6468
 11
-44.4379
 21
82.5531
  0
LINE
  8
0
 10
-44.4379
 20
82.5531
 11
-44.8116
 21
82.5059
  0
LINE
  8
0
 10
-44.8116
 20
82.5059
 11
-45.1884
 21
82.5059
  0
LINE
  8
0
 10
-30.1884
 20
82.5059
 11
-30.5621
 21
82.5531
  0
LINE
  8
0
 10
-30.5621
 20
82.5531
 11
-30.927
 21
82.6468
  0
LINE
  8
0
 10
-30.927
 20
82.6468
 11
-31.2773
 21
82.7855
  0
LINE
  8
0
 10
-31.2773
 20
82.7855
 11
-31.6075
 21
82.967
  0
LINE
  8
0
 10
-31.6075
 20
82.967
 11
-31.9123
 21
83.1884
  0
LINE
  8
0
 10
-31.9123
 20
83.1884
 11
-32.1869
 21
83.4464
  0
LINE
  8
0
 10
-32.1869
 20
83.4464
 11
-32.427
 21
83.7366
  0
LINE
  8
0
 10
-32.427
 20
83.7366
 11
-32.6289
 21
84.0547
  0
LINE
  8
0
 10
-32.6289
 20
84.0547
 11
-32.7893
 21
84.3956
  0
LINE
  8
0
 10
-32.7893
 20
84.3956
 11
-32.9057
 21
84.7539
  0
LINE
  8
0
 10
-32.9057
 20
84.7539
 11
-32.9763
 21
85.124
  0
LINE
  8
0
 10
-32.9763
 20
85.124
 11
-33
 21
85.5
  0
LINE
  8
0
 10
-33
 20
85.5
 11
-32.9763
 21
85.876
  0
LINE
  8
0
 10
-32.9763
 20
85.876
 11
-32.9057
 21
86.2461
  0
LINE
  8
0
 10
-32.9057
 20
86.2461
 11
-32.7893
 21
86.6044
  0
LINE
  8
0
 10
-32.7893
 20
86.6044
 11
-32.6289
 21
86.9453
  0
LINE
  8
0
 10
-32.6289
 20
86.9453
 11
-32.427
 21
87.2634
  0
LINE
  8
0
 10
-32.427
 20
87.2634
 11
-32.1869
 21
87.5536
  0
LINE
  8
0
 10
-32.1869
 20
87.5536
 11
-31.9123
 21
87.8115
  0
LINE
  8
0
 10
-31.9123
 20
87.8115
 11
-31.6075
 21
88.033
  0
LINE
  8
0
 10
-31.6075
 20
88.033
 11
-31.2773
 21
88.2145
  0
LINE
  8
0
 10
-31.2773
 20
88.2145
 11
-30.927
 21
88.3532
  0
LINE
  8
0
 10
-30.927
 20
88.3532
 11
-30.5621
 21
88.4469
  0
LINE
  8
0
 10
-30.5621
 20
88.4469
 11
-30.1884
 21
88.4941
  0
LINE
  8
0
 10
-30.1884
 20
88.4941
 11
-29.8116
 21
88.4941
  0
LINE
  8
0
 10
-29.8116
 20
88.4941
 11
-29.4379
 21
88.4469
  0
LINE
  8
0
 10
-29.4379
 20
88.4469
 11
-29.0729
 21
88.3532
  0
LINE
  8
0
 10
-29.0729
 20
88.3532
 11
-28.7227
 21
88.2145
  0
LINE
  8
0
 10
-28.7227
 20
88.2145
 11
-28.3925
 21
88.033
  0
LINE
  8
0
 10
-28.3925
 20
88.033
 11
-28.0877
 21
87.8115
  0
LINE
  8
0
 10
-28.0877
 20
87.8115
 11
-27.8131
 21
87.5536
  0
LINE
  8
0
 10
-27.8131
 20
87.5536
 11
-27.5729
 21
87.2634
  0
LINE
  8
0
 10
-27.5729
 20
87.2634
 11
-27.3711
 21
86.9453
  0
LINE
  8
0
 10
-27.3711
 20
86.9453
 11
-27.2107
 21
86.6044
  0
LINE
  8
0
 10
-27.2107
 20
86.6044
 11
-27.0942
 21
86.2461
  0
LINE
  8
0
 10
-27.0942
 20
86.2461
 11
-27.0237
 21
85.876
  0
LINE
  8
0
 10
-27.0237
 20
85.876
 11
-27
 21
85.5
  0
LINE
  8
0
 10
-27
 20
85.5
 11
-27.0237
 21
85.124
  0
LINE
  8
0
 10
-27.0237
 20
85.124
 11
-27.0942
 21
84.7539
  0
LINE
  8
0
 10
-27.0942
 20
84.7539
 11
-27.2107
 21
84.3956
  0
LINE
  8
0
 10
-27.2107
 20
84.3956
 11
-27.3711
 21
84.0547
  0
LINE
  8
0
 10
-27.3711
 20
84.0547
 11
-27.5729
 21
83.7366
  0
LINE
  8
0
 10
-27.5729
 20
83.7366
 11
-27.8131
 21
83.4464
  0
LINE
  8
0
 10
-27.8131
 20
83.4464
 11
-28.0877
 21
83.1884
  0
LINE
  8
0
 10
-28.0877
 20
83.1884
 11
-28.3925
 21
82.967
  0
LINE
  8
0
 10
-28.3925
 20
82.967
 11
-28.7227
 21
82.7855
  0
LINE
  8
0
 10
-28.7227
 20
82.7855
 11
-29.0729
 21
82.6468
  0
LINE
  8
0
 10
-29.0729
 20
82.6468
 11
-29.4379
 21
82.5531
  0
LINE
  8
0
 10
-29.4379
 20
82.5531
 11
-29.8116
 21
82.5059
  0
LINE
  8
0
 10
-29.8116
 20
82.5059
 11
-30.1884
 21
82.5059
  0
LINE
  8
0
 10
-37.8836
 20
83.2322
 11
-38.1648
 21
83.2982
  0
LINE
  8
0
 10
-38.1648
 20
83.2982
 11
-38.4355
 21
83.3988
  0
LINE
  8
0
 10
-38.4355
 20
83.3988
 11
-38.6915
 21
83.5327
  0
LINE
  8
0
 10
-38.6915
 20
83.5327
 11
-38.9286
 21
83.6975
  0
LINE
  8
0
 10
-38.9286
 20
83.6975
 11
-39.1433
 21
83.8908
  0
LINE
  8
0
 10
-39.1433
 20
83.8908
 11
-39.332
 21
84.1094
  0
LINE
  8
0
 10
-39.332
 20
84.1094
 11
-39.4919
 21
84.35
  0
LINE
  8
0
 10
-39.4919
 20
84.35
 11
-39.6203
 21
84.6087
  0
LINE
  8
0
 10
-39.6203
 20
84.6087
 11
-39.7153
 21
84.8815
  0
LINE
  8
0
 10
-39.7153
 20
84.8815
 11
-39.7753
 21
85.164
  0
LINE
  8
0
 10
-39.7753
 20
85.164
 11
-39.7995
 21
85.4518
  0
LINE
  8
0
 10
-39.7995
 20
85.4518
 11
-39.7874
 21
85.7404
  0
LINE
  8
0
 10
-39.7874
 20
85.7404
 11
-39.7392
 21
86.0252
  0
LINE
  8
0
 10
-39.7392
 20
86.0252
 11
-39.6557
 21
86.3017
  0
LINE
  8
0
 10
-39.6557
 20
86.3017
 11
-39.5383
 21
86.5656
  0
LINE
  8
0
 10
-39.5383
 20
86.5656
 11
-39.3886
 21
86.8126
  0
LINE
  8
0
 10
-39.3886
 20
86.8126
 11
-39.2092
 21
87.039
  0
LINE
  8
0
 10
-39.2092
 20
87.039
 11
-39.0029
 21
87.2411
  0
LINE
  8
0
 10
-39.0029
 20
87.2411
 11
-38.7728
 21
87.4157
  0
LINE
  8
0
 10
-38.7728
 20
87.4157
 11
-38.5227
 21
87.5601
  0
LINE
  8
0
 10
-38.5227
 20
87.5601
 11
-38.2564
 21
87.6721
  0
LINE
  8
0
 10
-38.2564
 20
87.6721
 11
-37.9782
 21
87.7497
  0
LINE
  8
0
 10
-37.9782
 20
87.7497
 11
-37.6925
 21
87.7919
  0
LINE
  8
0
 10
-37.6925
 20
87.7919
 11
-37.4037
 21
87.798
  0
LINE
  8
0
 10
-37.4037
 20
87.798
 11
-37.1164
 21
87.7678
  0
LINE
  8
0
 10
-37.1164
 20
87.7678
 11
-36.8352
 21
87.7018
  0
LINE
  8
0
 10
-36.8352
 20
87.7018
 11
-36.5645
 21
87.6012
  0
LINE
  8
0
 10
-36.5645
 20
87.6012
 11
-36.3085
 21
87.4673
  0
LINE
  8
0
 10
-36.3085
 20
87.4673
 11
-36.0714
 21
87.3025
  0
LINE
  8
0
 10
-36.0714
 20
87.3025
 11
-35.8567
 21
87.1092
  0
LINE
  8
0
 10
-35.8567
 20
87.1092
 11
-35.668
 21
86.8906
  0
LINE
  8
0
 10
-35.668
 20
86.8906
 11
-35.5081
 21
86.65
  0
LINE
  8
0
 10
-35.5081
 20
86.65
 11
-35.3797
 21
86.3913
  0
LINE
  8
0
 10
-35.3797
 20
86.3913
 11
-35.2847
 21
86.1185
  0
LINE
  8
0
 10
-35.2847
 20
86.1185
 11
-35.2247
 21
85.836
  0
LINE
  8
0
 10
-35.2247
 20
85.836
 11
-35.2005
 21
85.5482
  0
LINE
  8
0
 10
-35.2005
 20
85.5482
 11
-35.2126
 21
85.2596
  0
LINE
  8
0
 10
-35.2126
 20
85.2596
 11
-35.2608
 21
84.9748
  0
LINE
  8
0
 10
-35.2608
 20
84.9748
 11
-35.3442
 21
84.6983
  0
LINE
  8
0
 10
-35.3442
 20
84.6983
 11
-35.4617
 21
84.4344
  0
LINE
  8
0
 10
-35.4617
 20
84.4344
 11
-35.6114
 21
84.1873
  0
LINE
  8
0
 10
-35.6114
 20
84.1873
 11
-35.7908
 21
83.961
  0
LINE
  8
0
 10
-35.7908
 20
83.961
 11
-35.9971
 21
83.7589
  0
LINE
  8
0
 10
-35.9971
 20
83.7589
 11
-36.2272
 21
83.5843
  0
LINE
  8
0
 10
-36.2272
 20
83.5843
 11
-36.4773
 21
83.4398
  0
LINE
  8
0
 10
-36.4773
 20
83.4398
 11
-36.7436
 21
83.3279
  0
LINE
  8
0
 10
-36.7436
 20
83.3279
 11
-37.0218
 21
83.2503
  0
LINE
  8
0
 10
-37.0218
 20
83.2503
 11
-37.3075
 21
83.2081
  0
LINE
  8
0
 10
-37.3075
 20
83.2081
 11
-37.5963
 21
83.202
  0
LINE
  8
0
 10
-37.5963
 20
83.202
 11
-37.8836
 21
83.2322
  0
LINE
  8
0
 10
7.11642
 20
83.2322
 11
6.83522
 21
83.2982
  0
LINE
  8
0
 10
6.83522
 20
83.2982
 11
6.5645
 21
83.3988
  0
LINE
  8
0
 10
6.5645
 20
83.3988
 11
6.30853
 21
83.5327
  0
LINE
  8
0
 10
6.30853
 20
83.5327
 11
6.07135
 21
83.6975
  0
LINE
  8
0
 10
6.07135
 20
83.6975
 11
5.8567
 21
83.8908
  0
LINE
  8
0
 10
5.8567
 20
83.8908
 11
5.66797
 21
84.1094
  0
LINE
  8
0
 10
5.66797
 20
84.1094
 11
5.50813
 21
84.35
  0
LINE
  8
0
 10
5.50813
 20
84.35
 11
5.3797
 21
84.6087
  0
LINE
  8
0
 10
5.3797
 20
84.6087
 11
5.28471
 21
84.8815
  0
LINE
  8
0
 10
5.28471
 20
84.8815
 11
5.22467
 21
85.164
  0
LINE
  8
0
 10
5.22467
 20
85.164
 11
5.2005
 21
85.4518
  0
LINE
  8
0
 10
5.2005
 20
85.4518
 11
5.21259
 21
85.7404
  0
LINE
  8
0
 10
5.21259
 20
85.7404
 11
5.26076
 21
86.0252
  0
LINE
  8
0
 10
5.26076
 20
86.0252
 11
5.34424
 21
86.3017
  0
LINE
  8
0
 10
5.34424
 20
86.3017
 11
5.46173
 21
86.5656
  0
LINE
  8
0
 10
5.46173
 20
86.5656
 11
5.61134
 21
86.8126
  0
LINE
  8
0
 10
5.61134
 20
86.8126
 11
5.79076
 21
87.039
  0
LINE
  8
0
 10
5.79076
 20
87.039
 11
5.99713
 21
87.2411
  0
LINE
  8
0
 10
5.99713
 20
87.2411
 11
6.22719
 21
87.4157
  0
LINE
  8
0
 10
6.22719
 20
87.4157
 11
6.47733
 21
87.5601
  0
LINE
  8
0
 10
6.47733
 20
87.5601
 11
6.74361
 21
87.6721
  0
LINE
  8
0
 10
6.74361
 20
87.6721
 11
7.02179
 21
87.7497
  0
LINE
  8
0
 10
7.02179
 20
87.7497
 11
7.30754
 21
87.7919
  0
LINE
  8
0
 10
7.30754
 20
87.7919
 11
7.59631
 21
87.798
  0
LINE
  8
0
 10
7.59631
 20
87.798
 11
7.88356
 21
87.7678
  0
LINE
  8
0
 10
7.88356
 20
87.7678
 11
8.16476
 21
87.7018
  0
LINE
  8
0
 10
8.16476
 20
87.7018
 11
8.43549
 21
87.6012
  0
LINE
  8
0
 10
8.43549
 20
87.6012
 11
8.69145
 21
87.4673
  0
LINE
  8
0
 10
8.69145
 20
87.4673
 11
8.92863
 21
87.3025
  0
LINE
  8
0
 10
8.92863
 20
87.3025
 11
9.14328
 21
87.1092
  0
LINE
  8
0
 10
9.14328
 20
87.1092
 11
9.33202
 21
86.8906
  0
LINE
  8
0
 10
9.33202
 20
86.8906
 11
9.49185
 21
86.65
  0
LINE
  8
0
 10
9.49185
 20
86.65
 11
9.62029
 21
86.3913
  0
LINE
  8
0
 10
9.62029
 20
86.3913
 11
9.71527
 21
86.1185
  0
LINE
  8
0
 10
9.71527
 20
86.1185
 11
9.77531
 21
85.836
  0
LINE
  8
0
 10
9.77531
 20
85.836
 11
9.79948
 21
85.5482
  0
LINE
  8
0
 10
9.79948
 20
85.5482
 11
9.7874
 21
85.2596
  0
LINE
  8
0
 10
9.7874
 20
85.2596
 11
9.73923
 21
84.9748
  0
LINE
  8
0
 10
9.73923
 20
84.9748
 11
9.65575
 21
84.6983
  0
LINE
  8
0
 10
9.65575
 20
84.6983
 11
9.53825
 21
84.4344
  0
LINE
  8
0
 10
9.53825
 20
84.4344
 11
9.38864
 21
84.1873
  0
LINE
  8
0
 10
9.38864
 20
84.1873
 11
9.20923
 21
83.961
  0
LINE
  8
0
 10
9.20923
 20
83.961
 11
9.00285
 21
83.7589
  0
LINE
  8
0
 10
9.00285
 20
83.7589
 11
8.7728
 21
83.5843
  0
LINE
  8
0
 10
8.7728
 20
83.5843
 11
8.52266
 21
83.4398
  0
LINE
  8
0
 10
8.52266
 20
83.4398
 11
8.25638
 21
83.3279
  0
LINE
  8
0
 10
8.25638
 20
83.3279
 11
7.9782
 21
83.2503
  0
LINE
  8
0
 10
7.9782
 20
83.2503
 11
7.69244
 21
83.2081
  0
LINE
  8
0
 10
7.69244
 20
83.2081
 11
7.40367
 21
83.202
  0
LINE
  8
0
 10
7.40367
 20
83.202
 11
7.11642
 21
83.2322
  0
LINE
  8
0
 10
-22.8836
 20
83.2322
 11
-23.1648
 21
83.2982
  0
LINE
  8
0
 10
-23.1648
 20
83.2982
 11
-23.4355
 21
83.3988
  0
LINE
  8
0
 10
-23.4355
 20
83.3988
 11
-23.6915
 21
83.5327
  0
LINE
  8
0
 10
-23.6915
 20
83.5327
 11
-23.9286
 21
83.6975
  0
LINE
  8
0
 10
-23.9286
 20
83.6975
 11
-24.1433
 21
83.8908
  0
LINE
  8
0
 10
-24.1433
 20
83.8908
 11
-24.332
 21
84.1094
  0
LINE
  8
0
 10
-24.332
 20
84.1094
 11
-24.4919
 21
84.35
  0
LINE
  8
0
 10
-24.4919
 20
84.35
 11
-24.6203
 21
84.6087
  0
LINE
  8
0
 10
-24.6203
 20
84.6087
 11
-24.7153
 21
84.8815
  0
LINE
  8
0
 10
-24.7153
 20
84.8815
 11
-24.7753
 21
85.164
  0
LINE
  8
0
 10
-24.7753
 20
85.164
 11
-24.7995
 21
85.4518
  0
LINE
  8
0
 10
-24.7995
 20
85.4518
 11
-24.7874
 21
85.7404
  0
LINE
  8
0
 10
-24.7874
 20
85.7404
 11
-24.7392
 21
86.0252
  0
LINE
  8
0
 10
-24.7392
 20
86.0252
 11
-24.6557
 21
86.3017
  0
LINE
  8
0
 10
-24.6557
 20
86.3017
 11
-24.5383
 21
86.5656
  0
LINE
  8
0
 10
-24.5383
 20
86.5656
 11
-24.3886
 21
86.8126
  0
LINE
  8
0
 10
-24.3886
 20
86.8126
 11
-24.2092
 21
87.039
  0
LINE
  8
0
 10
-24.2092
 20
87.039
 11
-24.0029
 21
87.2411
  0
LINE
  8
0
 10
-24.0029
 20
87.2411
 11
-23.7728
 21
87.4157
  0
LINE
  8
0
 10
-23.7728
 20
87.4157
 11
-23.5227
 21
87.5601
  0
LINE
  8
0
 10
-23.5227
 20
87.5601
 11
-23.2564
 21
87.6721
  0
LINE
  8
0
 10
-23.2564
 20
87.6721
 11
-22.9782
 21
87.7497
  0
LINE
  8
0
 10
-22.9782
 20
87.7497
 11
-22.6925
 21
87.7919
  0
LINE
  8
0
 10
-22.6925
 20
87.7919
 11
-22.4037
 21
87.798
  0
LINE
  8
0
 10
-22.4037
 20
87.798
 11
-22.1164
 21
87.7678
  0
LINE
  8
0
 10
-22.1164
 20
87.7678
 11
-21.8352
 21
87.7018
  0
LINE
  8
0
 10
-21.8352
 20
87.7018
 11
-21.5645
 21
87.6012
  0
LINE
  8
0
 10
-21.5645
 20
87.6012
 11
-21.3085
 21
87.4673
  0
LINE
  8
0
 10
-21.3085
 20
87.4673
 11
-21.0714
 21
87.3025
  0
LINE
  8
0
 10
-21.0714
 20
87.3025
 11
-20.8567
 21
87.1092
  0
LINE
  8
0
 10
-20.8567
 20
87.1092
 11
-20.668
 21
86.8906
  0
LINE
  8
0
 10
-20.668
 20
86.8906
 11
-20.5081
 21
86.65
  0
LINE
  8
0
 10
-20.5081
 20
86.65
 11
-20.3797
 21
86.3913
  0
LINE
  8
0
 10
-20.3797
 20
86.3913
 11
-20.2847
 21
86.1185
  0
LINE
  8
0
 10
-20.2847
 20
86.1185
 11
-20.2247
 21
85.836
  0
LINE
  8
0
 10
-20.2247
 20
85.836
 11
-20.2005
 21
85.5482
  0
LINE
  8
0
 10
-20.2005
 20
85.5482
 11
-20.2126
 21
85.2596
  0
LINE
  8
0
 10
-20.2126
 20
85.2596
 11
-20.2608
 21
84.9748
  0
LINE
  8
0
 10
-20.2608
 20
84.9748
 11
-20.3442
 21
84.6983
  0
LINE
  8
0
 10
-20.3442
 20
84.6983
 11
-20.4617
 21
84.4344
  0
LINE
  8
0
 10
-20.4617
 20
84.4344
 11
-20.6113
 21
84.1873
  0
LINE
  8
0
 10
-20.6113
 20
84.1873
 11
-20.7908
 21
83.961
  0
LINE
  8
0
 10
-20.7908
 20
83.961
 11
-20.9971
 21
83.7589
  0
LINE
  8
0
 10
-20.9971
 20
83.7589
 11
-21.2272
 21
83.5843
  0
LINE
  8
0
 10
-21.2272
 20
83.5843
 11
-21.4773
 21
83.4398
  0
LINE
  8
0
 10
-21.4773
 20
83.4398
 11
-21.7436
 21
83.3279
  0
LINE
  8
0
 10
-21.7436
 20
83.3279
 11
-22.0218
 21
83.2503
  0
LINE
  8
0
 10
-22.0218
 20
83.2503
 11
-22.3075
 21
83.2081
  0
LINE
  8
0
 10
-22.3075
 20
83.2081
 11
-22.5963
 21
83.202
  0
LINE
  8
0
 10
-22.5963
 20
83.202
 11
-22.8836
 21
83.2322
  0
LINE
  8
0
 10
-52.8836
 20
83.2322
 11
-53.1648
 21
83.2982
  0
LINE
  8
0
 10
-53.1648
 20
83.2982
 11
-53.4355
 21
83.3988
  0
LINE
  8
0
 10
-53.4355
 20
83.3988
 11
-53.6915
 21
83.5327
  0
LINE
  8
0
 10
-53.6915
 20
83.5327
 11
-53.9286
 21
83.6975
  0
LINE
  8
0
 10
-53.9286
 20
83.6975
 11
-54.1433
 21
83.8908
  0
LINE
  8
0
 10
-54.1433
 20
83.8908
 11
-54.332
 21
84.1094
  0
LINE
  8
0
 10
-54.332
 20
84.1094
 11
-54.4919
 21
84.35
  0
LINE
  8
0
 10
-54.4919
 20
84.35
 11
-54.6203
 21
84.6087
  0
LINE
  8
0
 10
-54.6203
 20
84.6087
 11
-54.7153
 21
84.8815
  0
LINE
  8
0
 10
-54.7153
 20
84.8815
 11
-54.7753
 21
85.164
  0
LINE
  8
0
 10
-54.7753
 20
85.164
 11
-54.7995
 21
85.4518
  0
LINE
  8
0
 10
-54.7995
 20
85.4518
 11
-54.7874
 21
85.7404
  0
LINE
  8
0
 10
-54.7874
 20
85.7404
 11
-54.7392
 21
86.0252
  0
LINE
  8
0
 10
-54.7392
 20
86.0252
 11
-54.6557
 21
86.3017
  0
LINE
  8
0
 10
-54.6557
 20
86.3017
 11
-54.5383
 21
86.5656
  0
LINE
  8
0
 10
-54.5383
 20
86.5656
 11
-54.3886
 21
86.8126
  0
LINE
  8
0
 10
-54.3886
 20
86.8126
 11
-54.2092
 21
87.039
  0
LINE
  8
0
 10
-54.2092
 20
87.039
 11
-54.0029
 21
87.2411
  0
LINE
  8
0
 10
-54.0029
 20
87.2411
 11
-53.7728
 21
87.4157
  0
LINE
  8
0
 10
-53.7728
 20
87.4157
 11
-53.5227
 21
87.5601
  0
LINE
  8
0
 10
-53.5227
 20
87.5601
 11
-53.2564
 21
87.6721
  0
LINE
  8
0
 10
-53.2564
 20
87.6721
 11
-52.9782
 21
87.7497
  0
LINE
  8
0
 10
-52.9782
 20
87.7497
 11
-52.6925
 21
87.7919
  0
LINE
  8
0
 10
-52.6925
 20
87.7919
 11
-52.4037
 21
87.798
  0
LINE
  8
0
 10
-52.4037
 20
87.798
 11
-52.1164
 21
87.7678
  0
LINE
  8
0
 10
-52.1164
 20
87.7678
 11
-51.8352
 21
87.7018
  0
LINE
  8
0
 10
-51.8352
 20
87.7018
 11
-51.5645
 21
87.6012
  0
LINE
  8
0
 10
-51.5645
 20
87.6012
 11
-51.3085
 21
87.4673
  0
LINE
  8
0
 10
-51.3085
 20
87.4673
 11
-51.0714
 21
87.3025
  0
LINE
  8
0
 10
-51.0714
 20
87.3025
 11
-50.8567
 21
87.1092
  0
LINE
  8
0
 10
-50.8567
 20
87.1092
 11
-50.668
 21
86.8906
  0
LINE
  8
0
 10
-50.668
 20
86.8906
 11
-50.5081
 21
86.65
  0
LINE
  8
0
 10
-50.5081
 20
86.65
 11
-50.3797
 21
86.3913
  0
LINE
  8
0
 10
-50.3797
 20
86.3913
 11
-50.2847
 21
86.1185
  0
LINE
  8
0
 10
-50.2847
 20
86.1185
 11
-50.2247
 21
85.836
  0
LINE
  8
0
 10
-50.2247
 20
85.836
 11
-50.2005
 21
85.5482
  0
LINE
  8
0
 10
-50.2005
 20
85.5482
 11
-50.2126
 21
85.2596
  0
LINE
  8
0
 10
-50.2126
 20
85.2596
 11
-50.2608
 21
84.9748
  0
LINE
  8
0
 10
-50.2608
 20
84.9748
 11
-50.3442
 21
84.6983
  0
LINE
  8
0
 10
-50.3442
 20
84.6983
 11
-50.4617
 21
84.4344
  0
LINE
  8
0
 10
-50.4617
 20
84.4344
 11
-50.6114
 21
84.1873
  0
LINE
  8
0
 10
-50.6114
 20
84.1873
 11
-50.7908
 21
83.961
  0
LINE
  8
0
 10
-50.7908
 20
83.961
 11
-50.9971
 21
83.7589
  0
LINE
  8
0
 10
-50.9971
 20
83.7589
 11
-51.2272
 21
83.5843
  0
LINE
  8
0
 10
-51.2272
 20
83.5843
 11
-51.4773
 21
83.4398
  0
LINE
  8
0
 10
-51.4773
 20
83.4398
 11
-51.7436
 21
83.3279
  0
LINE
  8
0
 10
-51.7436
 20
83.3279
 11
-52.0218
 21
83.2503
  0
LINE
  8
0
 10
-52.0218
 20
83.2503
 11
-52.3075
 21
83.2081
  0
LINE
  8
0
 10
-52.3075
 20
83.2081
 11
-52.5963
 21
83.202
  0
LINE
  8
0
 10
-52.5963
 20
83.202
 11
-52.8836
 21
83.2322
  0
LINE
  8
0
 10
37.1164
 20
83.2322
 11
36.8352
 21
83.2982
  0
LINE
  8
0
 10
36.8352
 20
83.2982
 11
36.5645
 21
83.3988
  0
LINE
  8
0
 10
36.5645
 20
83.3988
 11
36.3085
 21
83.5327
  0
LINE
  8
0
 10
36.3085
 20
83.5327
 11
36.0714
 21
83.6975
  0
LINE
  8
0
 10
36.0714
 20
83.6975
 11
35.8567
 21
83.8908
  0
LINE
  8
0
 10
35.8567
 20
83.8908
 11
35.668
 21
84.1094
  0
LINE
  8
0
 10
35.668
 20
84.1094
 11
35.5081
 21
84.35
  0
LINE
  8
0
 10
35.5081
 20
84.35
 11
35.3797
 21
84.6087
  0
LINE
  8
0
 10
35.3797
 20
84.6087
 11
35.2847
 21
84.8815
  0
LINE
  8
0
 10
35.2847
 20
84.8815
 11
35.2247
 21
85.164
  0
LINE
  8
0
 10
35.2247
 20
85.164
 11
35.2005
 21
85.4518
  0
LINE
  8
0
 10
35.2005
 20
85.4518
 11
35.2126
 21
85.7404
  0
LINE
  8
0
 10
35.2126
 20
85.7404
 11
35.2608
 21
86.0252
  0
LINE
  8
0
 10
35.2608
 20
86.0252
 11
35.3442
 21
86.3017
  0
LINE
  8
0
 10
35.3442
 20
86.3017
 11
35.4617
 21
86.5656
  0
LINE
  8
0
 10
35.4617
 20
86.5656
 11
35.6114
 21
86.8126
  0
LINE
  8
0
 10
35.6114
 20
86.8126
 11
35.7908
 21
87.039
  0
LINE
  8
0
 10
35.7908
 20
87.039
 11
35.9971
 21
87.2411
  0
LINE
  8
0
 10
35.9971
 20
87.2411
 11
36.2272
 21
87.4157
  0
LINE
  8
0
 10
36.2272
 20
87.4157
 11
36.4773
 21
87.5601
  0
LINE
  8
0
 10
36.4773
 20
87.5601
 11
36.7436
 21
87.6721
  0
LINE
  8
0
 10
36.7436
 20
87.6721
 11
37.0218
 21
87.7497
  0
LINE
  8
0
 10
37.0218
 20
87.7497
 11
37.3075
 21
87.7919
  0
LINE
  8
0
 10
37.3075
 20
87.7919
 11
37.5963
 21
87.798
  0
LINE
  8
0
 10
37.5963
 20
87.798
 11
37.8836
 21
87.7678
  0
LINE
  8
0
 10
37.8836
 20
87.7678
 11
38.1648
 21
87.7018
  0
LINE
  8
0
 10
38.1648
 20
87.7018
 11
38.4355
 21
87.6012
  0
LINE
  8
0
 10
38.4355
 20
87.6012
 11
38.6915
 21
87.4673
  0
LINE
  8
0
 10
38.6915
 20
87.4673
 11
38.9286
 21
87.3025
  0
LINE
  8
0
 10
38.9286
 20
87.3025
 11
39.1433
 21
87.1092
  0
LINE
  8
0
 10
39.1433
 20
87.1092
 11
39.332
 21
86.8906
  0
LINE
  8
0
 10
39.332
 20
86.8906
 11
39.4919
 21
86.65
  0
LINE
  8
0
 10
39.4919
 20
86.65
 11
39.6203
 21
86.3913
  0
LINE
  8
0
 10
39.6203
 20
86.3913
 11
39.7153
 21
86.1185
  0
LINE
  8
0
 10
39.7153
 20
86.1185
 11
39.7753
 21
85.836
  0
LINE
  8
0
 10
39.7753
 20
85.836
 11
39.7995
 21
85.5482
  0
LINE
  8
0
 10
39.7995
 20
85.5482
 11
39.7874
 21
85.2596
  0
LINE
  8
0
 10
39.7874
 20
85.2596
 11
39.7392
 21
84.9748
  0
LINE
  8
0
 10
39.7392
 20
84.9748
 11
39.6557
 21
84.6983
  0
LINE
  8
0
 10
39.6557
 20
84.6983
 11
39.5383
 21
84.4344
  0
LINE
  8
0
 10
39.5383
 20
84.4344
 11
39.3886
 21
84.1873
  0
LINE
  8
0
 10
39.3886
 20
84.1873
 11
39.2092
 21
83.961
  0
LINE
  8
0
 10
39.2092
 20
83.961
 11
39.0029
 21
83.7589
  0
LINE
  8
0
 10
39.0029
 20
83.7589
 11
38.7728
 21
83.5843
  0
LINE
  8
0
 10
38.7728
 20
83.5843
 11
38.5227
 21
83.4398
  0
LINE
  8
0
 10
38.5227
 20
83.4398
 11
38.2564
 21
83.3279
  0
LINE
  8
0
 10
38.2564
 20
83.3279
 11
37.9782
 21
83.2503
  0
LINE
  8
0
 10
37.9782
 20
83.2503
 11
37.6925
 21
83.2081
  0
LINE
  8
0
 10
37.6925
 20
83.2081
 11
37.4037
 21
83.202
  0
LINE
  8
0
 10
37.4037
 20
83.202
 11
37.1164
 21
83.2322
  0
LINE
  8
0
 10
-49.6794
 20
74.83
 11
-49.6794
 21
81
  0
LINE
  8
0
 10
-49.6794
 20
81
 11
-40.3206
 21
81
  0
LINE
  8
0
 10
-40.3206
 20
81
 11
-40.3206
 21
74.83
  0
LINE
  8
0
 10
-40.3206
 20
74.83
 11
-49.6794
 21
74.83
  0
LINE
  8
0
 10
25.3206
 20
74.83
 11
25.3206
 21
81
  0
LINE
  8
0
 10
25.3206
 20
81
 11
34.6794
 21
81
  0
LINE
  8
0
 10
34.6794
 20
81
 11
34.6794
 21
74.83
  0
LINE
  8
0
 10
34.6794
 20
74.83
 11
25.3206
 21
74.83
  0
LINE
  8
0
 10
10.3206
 20
74.83
 11
10.3206
 21
81
  0
LINE
  8
0
 10
10.3206
 20
81
 11
19.6794
 21
81
  0
LINE
  8
0
 10
19.6794
 20
81
 11
19.6794
 21
74.83
  0
LINE
  8
0
 10
19.6794
 20
74.83
 11
10.3206
 21
74.83
  0
LINE
  8
0
 10
-64.6794
 20
74.83
 11
-64.6794
 21
81
  0
LINE
  8
0
 10
-64.6794
 20
81
 11
-55.3206
 21
81
  0
LINE
  8
0
 10
-55.3206
 20
81
 11
-55.3206
 21
74.83
  0
LINE
  8
0
 10
-55.3206
 20
74.83
 11
-64.6794
 21
74.83
  0
LINE
  8
0
 10
40.3206
 20
74.83
 11
40.3206
 21
81
  0
LINE
  8
0
 10
40.3206
 20
81
 11
49.6794
 21
81
  0
LINE
  8
0
 10
49.6794
 20
81
 11
49.6794
 21
74.83
  0
LINE
  8
0
 10
49.6794
 20
74.83
 11
40.3206
 21
74.83
  0
LINE
  8
0
 10
-4.67937
 20
74.83
 11
-4.67937
 21
81
  0
LINE
  8
0
 10
-4.67937
 20
81
 11
4.67937
 21
81
  0
LINE
  8
0
 10
4.67937
 20
81
 11
4.67937
 21
74.83
  0
LINE
  8
0
 10
4.67937
 20
74.83
 11
-4.67937
 21
74.83
  0
LINE
  8
0
 10
-19.6794
 20
74.83
 11
-19.6794
 21
81
  0
LINE
  8
0
 10
-19.6794
 20
81
 11
-10.3206
 21
81
  0
LINE
  8
0
 10
-10.3206
 20
81
 11
-10.3206
 21
74.83
  0
LINE
  8
0
 10
-10.3206
 20
74.83
 11
-19.6794
 21
74.83
  0
LINE
  8
0
 10
-34.6794
 20
74.83
 11
-34.6794
 21
81
  0
LINE
  8
0
 10
-34.6794
 20
81
 11
-25.3206
 21
81
  0
LINE
  8
0
 10
-25.3206
 20
81
 11
-25.3206
 21
74.83
  0
LINE
  8
0
 10
-25.3206
 20
74.83
 11
-34.6794
 21
74.83
  0
LINE
  8
0
 10
55.3206
 20
74.83
 11
55.3206
 21
81
  0
LINE
  8
0
 10
55.3206
 20
81
 11
64.6794
 21
81
  0
LINE
  8
0
 10
64.6794
 20
81
 11
64.6794
 21
74.83
  0
LINE
  8
0
 10
64.6794
 20
74.83
 11
55.3206
 21
74.83
  0
LINE
  8
0
 10
-62.5307
 20
50.83
 11
-64.6794
 21
50.83
  0
LINE
  8
0
 10
-64.6794
 20
50.83
 11
-64.6794
 21
57
  0
LINE
  8
0
 10
-64.6794
 20
57
 11
-62.5307
 21
57
  0
LINE
  8
0
 10
-62.5307
 20
57
 11
-62.5307
 21
59.9
  0
LINE
  8
0
 10
-62.5307
 20
59.9
 11
-62.6289
 21
60.0547
  0
LINE
  8
0
 10
-62.6289
 20
60.0547
 11
-62.7893
 21
60.3956
  0
LINE
  8
0
 10
-62.7893
 20
60.3956
 11
-62.9057
 21
60.7539
  0
LINE
  8
0
 10
-62.9057
 20
60.7539
 11
-62.9763
 21
61.124
  0
LINE
  8
0
 10
-62.9763
 20
61.124
 11
-63
 21
61.5
  0
LINE
  8
0
 10
-63
 20
61.5
 11
-62.9763
 21
61.876
  0
LINE
  8
0
 10
-62.9763
 20
61.876
 11
-62.9057
 21
62.2461
  0
LINE
  8
0
 10
-62.9057
 20
62.2461
 11
-62.7893
 21
62.6044
  0
LINE
  8
0
 10
-62.7893
 20
62.6044
 11
-62.6289
 21
62.9453
  0
LINE
  8
0
 10
-62.6289
 20
62.9453
 11
-62.427
 21
63.2634
  0
LINE
  8
0
 10
-62.427
 20
63.2634
 11
-62.1869
 21
63.5536
  0
LINE
  8
0
 10
-62.1869
 20
63.5536
 11
-61.9123
 21
63.8115
  0
LINE
  8
0
 10
-61.9123
 20
63.8115
 11
-61.6075
 21
64.033
  0
LINE
  8
0
 10
-61.6075
 20
64.033
 11
-61.2773
 21
64.2145
  0
LINE
  8
0
 10
-61.2773
 20
64.2145
 11
-60.927
 21
64.3532
  0
LINE
  8
0
 10
-60.927
 20
64.3532
 11
-60.5621
 21
64.4469
  0
LINE
  8
0
 10
-60.5621
 20
64.4469
 11
-60.1884
 21
64.4941
  0
LINE
  8
0
 10
-60.1884
 20
64.4941
 11
-59.8116
 21
64.4941
  0
LINE
  8
0
 10
-59.8116
 20
64.4941
 11
-59.4379
 21
64.4469
  0
LINE
  8
0
 10
-59.4379
 20
64.4469
 11
-59.0729
 21
64.3532
  0
LINE
  8
0
 10
-59.0729
 20
64.3532
 11
-58.7227
 21
64.2145
  0
LINE
  8
0
 10
-58.7227
 20
64.2145
 11
-58.3925
 21
64.033
  0
LINE
  8
0
 10
-58.3925
 20
64.033
 11
-58.0877
 21
63.8115
  0
LINE
  8
0
 10
-58.0877
 20
63.8115
 11
-57.8131
 21
63.5536
  0
LINE
  8
0
 10
-57.8131
 20
63.5536
 11
-57.5729
 21
63.2634
  0
LINE
  8
0
 10
-57.5729
 20
63.2634
 11
-57.3711
 21
62.9453
  0
LINE
  8
0
 10
-57.3711
 20
62.9453
 11
-57.2107
 21
62.6044
  0
LINE
  8
0
 10
-57.2107
 20
62.6044
 11
-57.0942
 21
62.2461
  0
LINE
  8
0
 10
-57.0942
 20
62.2461
 11
-57.0237
 21
61.876
  0
LINE
  8
0
 10
-57.0237
 20
61.876
 11
-57
 21
61.5
  0
LINE
  8
0
 10
-57
 20
61.5
 11
-57.0237
 21
61.124
  0
LINE
  8
0
 10
-57.0237
 20
61.124
 11
-57.0942
 21
60.7539
  0
LINE
  8
0
 10
-57.0942
 20
60.7539
 11
-57.2107
 21
60.3956
  0
LINE
  8
0
 10
-57.2107
 20
60.3956
 11
-57.3711
 21
60.0547
  0
LINE
  8
0
 10
-57.3711
 20
60.0547
 11
-57.4693
 21
59.9
  0
LINE
  8
0
 10
-57.4693
 20
59.9
 11
-57.4693
 21
57
  0
LINE
  8
0
 10
-57.4693
 20
57
 11
-55.3206
 21
57
  0
LINE
  8
0
 10
-55.3206
 20
57
 11
-55.3206
 21
50.83
  0
LINE
  8
0
 10
-55.3206
 20
50.83
 11
-57.4693
 21
50.83
  0
LINE
  8
0
 10
-57.4693
 20
50.83
 11
-57.4693
 21
48
  0
LINE
  8
0
 10
-57.4693
 20
48
 11
-47.5307
 21
48
  0
LINE
  8
0
 10
-47.5307
 20
48
 11
-47.5307
 21
50.83
  0
LINE
  8
0
 10
-47.5307
 20
50.83
 11
-49.6794
 21
50.83
  0
LINE
  8
0
 10
-49.6794
 20
50.83
 11
-49.6794
 21
57
  0
LINE
  8
0
 10
-49.6794
 20
57
 11
-47.5307
 21
57
  0
LINE
  8
0
 10
-47.5307
 20
57
 11
-47.5307
 21
59.9
  0
LINE
  8
0
 10
-47.5307
 20
59.9
 11
-47.6289
 21
60.0547
  0
LINE
  8
0
 10
-47.6289
 20
60.0547
 11
-47.7893
 21
60.3956
  0
LINE
  8
0
 10
-47.7893
 20
60.3956
 11
-47.9057
 21
60.7539
  0
LINE
  8
0
 10
-47.9057
 20
60.7539
 11
-47.9763
 21
61.124
  0
LINE
  8
0
 10
-47.9763
 20
61.124
 11
-48
 21
61.5
  0
LINE
  8
0
 10
-48
 20
61.5
 11
-47.9763
 21
61.876
  0
LINE
  8
0
 10
-47.9763
 20
61.876
 11
-47.9057
 21
62.2461
  0
LINE
  8
0
 10
-47.9057
 20
62.2461
 11
-47.7893
 21
62.6044
  0
LINE
  8
0
 10
-47.7893
 20
62.6044
 11
-47.6289
 21
62.9453
  0
LINE
  8
0
 10
-47.6289
 20
62.9453
 11
-47.427
 21
63.2634
  0
LINE
  8
0
 10
-47.427
 20
63.2634
 11
-47.1869
 21
63.5536
  0
LINE
  8
0
 10
-47.1869
 20
63.5536
 11
-46.9123
 21
63.8115
  0
LINE
  8
0
 10
-46.9123
 20
63.8115
 11
-46.6075
 21
64.033
  0
LINE
  8
0
 10
-46.6075
 20
64.033
 11
-46.2773
 21
64.2145
  0
LINE
  8
0
 10
-46.2773
 20
64.2145
 11
-45.927
 21
64.3532
  0
LINE
  8
0
 10
-45.927
 20
64.3532
 11
-45.5621
 21
64.4469
  0
LINE
  8
0
 10
-45.5621
 20
64.4469
 11
-45.1884
 21
64.4941
  0
LINE
  8
0
 10
-45.1884
 20
64.4941
 11
-44.8116
 21
64.4941
  0
LINE
  8
0
 10
-44.8116
 20
64.4941
 11
-44.4379
 21
64.4469
  0
LINE
  8
0
 10
-44.4379
 20
64.4469
 11
-44.0729
 21
64.3532
  0
LINE
  8
0
 10
-44.0729
 20
64.3532
 11
-43.7227
 21
64.2145
  0
LINE
  8
0
 10
-43.7227
 20
64.2145
 11
-43.3925
 21
64.033
  0
LINE
  8
0
 10
-43.3925
 20
64.033
 11
-43.0877
 21
63.8115
  0
LINE
  8
0
 10
-43.0877
 20
63.8115
 11
-42.8131
 21
63.5536
  0
LINE
  8
0
 10
-42.8131
 20
63.5536
 11
-42.5729
 21
63.2634
  0
LINE
  8
0
 10
-42.5729
 20
63.2634
 11
-42.3711
 21
62.9453
  0
LINE
  8
0
 10
-42.3711
 20
62.9453
 11
-42.2107
 21
62.6044
  0
LINE
  8
0
 10
-42.2107
 20
62.6044
 11
-42.0942
 21
62.2461
  0
LINE
  8
0
 10
-42.0942
 20
62.2461
 11
-42.0237
 21
61.876
  0
LINE
  8
0
 10
-42.0237
 20
61.876
 11
-42
 21
61.5
  0
LINE
  8
0
 10
-42
 20
61.5
 11
-42.0237
 21
61.124
  0
LINE
  8
0
 10
-42.0237
 20
61.124
 11
-42.0942
 21
60.7539
  0
LINE
  8
0
 10
-42.0942
 20
60.7539
 11
-42.2107
 21
60.3956
  0
LINE
  8
0
 10
-42.2107
 20
60.3956
 11
-42.3711
 21
60.0547
  0
LINE
  8
0
 10
-42.3711
 20
60.0547
 11
-42.4693
 21
59.9
  0
LINE
  8
0
 10
-42.4693
 20
59.9
 11
-42.4693
 21
57
  0
LINE
  8
0
 10
-42.4693
 20
57
 11
-40.3206
 21
57
  0
LINE
  8
0
 10
-40.3206
 20
57
 11
-40.3206
 21
50.83
  0
LINE
  8
0
 10
-40.3206
 20
50.83
 11
-42.4693
 21
50.83
  0
LINE
  8
0
 10
-42.4693
 20
50.83
 11
-42.4693
 21
48
  0
LINE
  8
0
 10
-42.4693
 20
48
 11
-32.5307
 21
48
  0
LINE
  8
0
 10
-32.5307
 20
48
 11
-32.5307
 21
50.83
  0
LINE
  8
0
 10
-32.5307
 20
50.83
 11
-34.6794
 21
50.83
  0
LINE
  8
0
 10
-34.6794
 20
50.83
 11
-34.6794
 21
57
  0
LINE
  8
0
 10
-34.6794
 20
57
 11
-32.5307
 21
57
  0
LINE
  8
0
 10
-32.5307
 20
57
 11
-32.5307
 21
59.9
  0
LINE
  8
0
 10
-32.5307
 20
59.9
 11
-32.6289
 21
60.0547
  0
LINE
  8
0
 10
-32.6289
 20
60.0547
 11
-32.7893
 21
60.3956
  0
LINE
  8
0
 10
-32.7893
 20
60.3956
 11
-32.9057
 21
60.7539
  0
LINE
  8
0
 10
-32.9057
 20
60.7539
 11
-32.9763
 21
61.124
  0
LINE
  8
0
 10
-32.9763
 20
61.124
 11
-33
 21
61.5
  0
LINE
  8
0
 10
-33
 20
61.5
 11
-32.9763
 21
61.876
  0
LINE
  8
0
 10
-32.9763
 20
61.876
 11
-32.9057
 21
62.2461
  0
LINE
  8
0
 10
-32.9057
 20
62.2461
 11
-32.7893
 21
62.6044
  0
LINE
  8
0
 10
-32.7893
 20
62.6044
 11
-32.6289
 21
62.9453
  0
LINE
  8
0
 10
-32.6289
 20
62.9453
 11
-32.427
 21
63.2634
  0
LINE
  8
0
 10
-32.427
 20
63.2634
 11
-32.1869
 21
63.5536
  0
LINE
  8
0
 10
-32.1869
 20
63.5536
 11
-31.9123
 21
63.8115
  0
LINE
  8
0
 10
-31.9123
 20
63.8115
 11
-31.6075
 21
64.033
  0
LINE
  8
0
 10
-31.6075
 20
64.033
 11
-31.2773
 21
64.2145
  0
LINE
  8
0
 10
-31.2773
 20
64.2145
 11
-30.927
 21
64.3532
  0
LINE
  8
0
 10
-30.927
 20
64.3532
 11
-30.5621
 21
64.4469
  0
LINE
  8
0
 10
-30.5621
 20
64.4469
 11
-30.1884
 21
64.4941
  0
LINE
  8
0
 10
-30.1884
 20
64.4941
 11
-29.8116
 21
64.4941
  0
LINE
  8
0
 10
-29.8116
 20
64.4941
 11
-29.4379
 21
64.4469
  0
LINE
  8
0
 10
-29.4379
 20
64.4469
 11
-29.0729
 21
64.3532
  0
LINE
  8
0
 10
-29.0729
 20
64.3532
 11
-28.7227
 21
64.2145
  0
LINE
  8
0
 10
-28.7227
 20
64.2145
 11
-28.3925
 21
64.033
  0
LINE
  8
0
 10
-28.3925
 20
64.033
 11
-28.0877
 21
63.8115
  0
LINE
  8
0
 10
-28.0877
 20
63.8115
 11
-27.8131
 21
63.5536
  0
LINE
  8
0
 10
-27.8131
 20
63.5536
 11
-27.5729
 21
63.2634
  0
LINE
  8
0
 10
-27.5729
 20
63.2634
 11
-27.3711
 21
62.9453
  0
LINE
  8
0
 10
-27.3711
 20
62.9453
 11
-27.2107
 21
62.6044
  0
LINE
  8
0
 10
-27.2107
 20
62.6044
 11
-27.0942
 21
62.2461
  0
LINE
  8
0
 10
-27.0942
 20
62.2461
 11
-27.0237
 21
61.876
  0
LINE
  8
0
 10
-27.0237
 20
61.876
 11
-27
 21
61.5
  0
LINE
  8
0
 10
-27
 20
61.5
 11
-27.0237
 21
61.124
  0
LINE
  8
0
 10
-27.0237
 20
61.124
 11
-27.0942
 21
60.7539
  0
LINE
  8
0
 10
-27.0942
 20
60.7539
 11
-27.2107
 21
60.3956
  0
LINE
  8
0
 10
-27.2107
 20
60.3956
 11
-27.3711
 21
60.0547
  0
LINE
  8
0
 10
-27.3711
 20
60.0547
 11
-27.4693
 21
59.9
  0
LINE
  8
0
 10
-27.4693
 20
59.9
 11
-27.4693
 21
57
  0
LINE
  8
0
 10
-27.4693
 20
57
 11
-25.3206
 21
57
  0
LINE
  8
0
 10
-25.3206
 20
57
 11
-25.3206
 21
50.83
  0
LINE
  8
0
 10
-25.3206
 20
50.83
 11
-27.4693
 21
50.83
  0
LINE
  8
0
 10
-27.4693
 20
50.83
 11
-27.4693
 21
48
  0
LINE
  8
0
 10
-27.4693
 20
48
 11
-17.5307
 21
48
  0
LINE
  8
0
 10
-17.5307
 20
48
 11
-17.5307
 21
50.83
  0
LINE
  8
0
 10
-17.5307
 20
50.83
 11
-19.6794
 21
50.83
  0
LINE
  8
0
 10
-19.6794
 20
50.83
 11
-19.6794
 21
57
  0
LINE
  8
0
 10
-19.6794
 20
57
 11
-17.5307
 21
57
  0
LINE
  8
0
 10
-17.5307
 20
57
 11
-17.5307
 21
59.9
  0
LINE
  8
0
 10
-17.5307
 20
59.9
 11
-17.6289
 21
60.0547
  0
LINE
  8
0
 10
-17.6289
 20
60.0547
 11
-17.7893
 21
60.3956
  0
LINE
  8
0
 10
-17.7893
 20
60.3956
 11
-17.9057
 21
60.7539
  0
LINE
  8
0
 10
-17.9057
 20
60.7539
 11
-17.9763
 21
61.124
  0
LINE
  8
0
 10
-17.9763
 20
61.124
 11
-18
 21
61.5
  0
LINE
  8
0
 10
-18
 20
61.5
 11
-17.9763
 21
61.876
  0
LINE
  8
0
 10
-17.9763
 20
61.876
 11
-17.9057
 21
62.2461
  0
LINE
  8
0
 10
-17.9057
 20
62.2461
 11
-17.7893
 21
62.6044
  0
LINE
  8
0
 10
-17.7893
 20
62.6044
 11
-17.6289
 21
62.9453
  0
LINE
  8
0
 10
-17.6289
 20
62.9453
 11
-17.427
 21
63.2634
  0
LINE
  8
0
 10
-17.427
 20
63.2634
 11
-17.1869
 21
63.5536
  0
LINE
  8
0
 10
-17.1869
 20
63.5536
 11
-16.9123
 21
63.8115
  0
LINE
  8
0
 10
-16.9123
 20
63.8115
 11
-16.6075
 21
64.033
  0
LINE
  8
0
 10
-16.6075
 20
64.033
 11
-16.2773
 21
64.2145
  0
LINE
  8
0
 10
-16.2773
 20
64.2145
 11
-15.927
 21
64.3532
  0
LINE
  8
0
 10
-15.927
 20
64.3532
 11
-15.5621
 21
64.4469
  0
LINE
  8
0
 10
-15.5621
 20
64.4469
 11
-15.1884
 21
64.4941
  0
LINE
  8
0
 10
-15.1884
 20
64.4941
 11
-14.8116
 21
64.4941
  0
LINE
  8
0
 10
-14.8116
 20
64.4941
 11
-14.4379
 21
64.4469
  0
LINE
  8
0
 10
-14.4379
 20
64.4469
 11
-14.0729
 21
64.3532
  0
LINE
  8
0
 10
-14.0729
 20
64.3532
 11
-13.7227
 21
64.2145
  0
LINE
  8
0
 10
-13.7227
 20
64.2145
 11
-13.3925
 21
64.033
  0
LINE
  8
0
 10
-13.3925
 20
64.033
 11
-13.0877
 21
63.8115
  0
LINE
  8
0
 10
-13.0877
 20
63.8115
 11
-12.8131
 21
63.5536
  0
LINE
  8
0
 10
-12.8131
 20
63.5536
 11
-12.5729
 21
63.2634
  0
LINE
  8
0
 10
-12.5729
 20
63.2634
 11
-12.3711
 21
62.9453
  0
LINE
  8
0
 10
-12.3711
 20
62.9453
 11
-12.2107
 21
62.6044
  0
LINE
  8
0
 10
-12.2107
 20
62.6044
 11
-12.0942
 21
62.2461
  0
LINE
  8
0
 10
-12.0942
 20
62.2461
 11
-12.0237
 21
61.876
  0
LINE
  8
0
 10
-12.0237
 20
61.876
 11
-12
 21
61.5
  0
LINE
  8
0
 10
-12
 20
61.5
 11
-12.0237
 21
61.124
  0
LINE
  8
0
 10
-12.0237
 20
61.124
 11
-12.0942
 21
60.7539
  0
LINE
  8
0
 10
-12.0942
 20
60.7539
 11
-12.2107
 21
60.3956
  0
LINE
  8
0
 10
-12.2107
 20
60.3956
 11
-12.3711
 21
60.0547
  0
LINE
  8
0
 10
-12.3711
 20
60.0547
 11
-12.4693
 21
59.9
  0
LINE
  8
0
 10
-12.4693
 20
59.9
 11
-12.4693
 21
57
  0
LINE
  8
0
 10
-12.4693
 20
57
 11
-10.3206
 21
57
  0
LINE
  8
0
 10
-10.3206
 20
57
 11
-10.3206
 21
50.83
  0
LINE
  8
0
 10
-10.3206
 20
50.83
 11
-12.4693
 21
50.83
  0
LINE
  8
0
 10
-12.4693
 20
50.83
 11
-12.4693
 21
48
  0
LINE
  8
0
 10
-12.4693
 20
48
 11
-2.53072
 21
48
  0
LINE
  8
0
 10
-2.53072
 20
48
 11
-2.53072
 21
50.83
  0
LINE
  8
0
 10
-2.53072
 20
50.83
 11
-4.67937
 21
50.83
  0
LINE
  8
0
 10
-4.67937
 20
50.83
 11
-4.67937
 21
57
  0
LINE
  8
0
 10
-4.67937
 20
57
 11
-2.53072
 21
57
  0
LINE
  8
0
 10
-2.53072
 20
57
 11
-2.53072
 21
59.9
  0
LINE
  8
0
 10
-2.53072
 20
59.9
 11
-2.62891
 21
60.0547
  0
LINE
  8
0
 10
-2.62891
 20
60.0547
 11
-2.78932
 21
60.3956
  0
LINE
  8
0
 10
-2.78932
 20
60.3956
 11
-2.90575
 21
60.7539
  0
LINE
  8
0
 10
-2.90575
 20
60.7539
 11
-2.97633
 21
61.124
  0
LINE
  8
0
 10
-2.97633
 20
61.124
 11
-3
 21
61.5
  0
LINE
  8
0
 10
-3
 20
61.5
 11
-2.97633
 21
61.876
  0
LINE
  8
0
 10
-2.97633
 20
61.876
 11
-2.90575
 21
62.2461
  0
LINE
  8
0
 10
-2.90575
 20
62.2461
 11
-2.78932
 21
62.6044
  0
LINE
  8
0
 10
-2.78932
 20
62.6044
 11
-2.62891
 21
62.9453
  0
LINE
  8
0
 10
-2.62891
 20
62.9453
 11
-2.42705
 21
63.2634
  0
LINE
  8
0
 10
-2.42705
 20
63.2634
 11
-2.1869
 21
63.5536
  0
LINE
  8
0
 10
-2.1869
 20
63.5536
 11
-1.91226
 21
63.8115
  0
LINE
  8
0
 10
-1.91226
 20
63.8115
 11
-1.60747
 21
64.033
  0
LINE
  8
0
 10
-1.60747
 20
64.033
 11
-1.27733
 21
64.2145
  0
LINE
  8
0
 10
-1.27733
 20
64.2145
 11
-0.927048
 21
64.3532
  0
LINE
  8
0
 10
-0.927048
 20
64.3532
 11
-0.562134
 21
64.4469
  0
LINE
  8
0
 10
-0.562134
 20
64.4469
 11
-0.18837
 21
64.4941
  0
LINE
  8
0
 10
-0.18837
 20
64.4941
 11
0.18837
 21
64.4941
  0
LINE
  8
0
 10
0.18837
 20
64.4941
 11
0.562134
 21
64.4469
  0
LINE
  8
0
 10
0.562134
 20
64.4469
 11
0.927048
 21
64.3532
  0
LINE
  8
0
 10
0.927048
 20
64.3532
 11
1.27733
 21
64.2145
  0
LINE
  8
0
 10
1.27733
 20
64.2145
 11
1.60747
 21
64.033
  0
LINE
  8
0
 10
1.60747
 20
64.033
 11
1.91226
 21
63.8115
  0
LINE
  8
0
 10
1.91226
 20
63.8115
 11
2.1869
 21
63.5536
  0
LINE
  8
0
 10
2.1869
 20
63.5536
 11
2.42705
 21
63.2634
  0
LINE
  8
0
 10
2.42705
 20
63.2634
 11
2.62891
 21
62.9453
  0
LINE
  8
0
 10
2.62891
 20
62.9453
 11
2.78932
 21
62.6044
  0
LINE
  8
0
 10
2.78932
 20
62.6044
 11
2.90575
 21
62.2461
  0
LINE
  8
0
 10
2.90575
 20
62.2461
 11
2.97633
 21
61.876
  0
LINE
  8
0
 10
2.97633
 20
61.876
 11
3
 21
61.5
  0
LINE
  8
0
 10
3
 20
61.5
 11
2.97633
 21
61.124
  0
LINE
  8
0
 10
2.97633
 20
61.124
 11
2.90575
 21
60.7539
  0
LINE
  8
0
 10
2.90575
 20
60.7539
 11
2.78932
 21
60.3956
  0
LINE
  8
0
 10
2.78932
 20
60.3956
 11
2.62891
 21
60.0547
  0
LINE
  8
0
 10
2.62891
 20
60.0547
 11
2.53072
 21
59.9
  0
LINE
  8
0
 10
2.53072
 20
59.9
 11
2.53072
 21
57
  0
LINE
  8
0
 10
2.53072
 20
57
 11
4.67937
 21
57
  0
LINE
  8
0
 10
4.67937
 20
57
 11
4.67937
 21
50.83
  0
LINE
  8
0
 10
4.67937
 20
50.83
 11
2.53072
 21
50.83
  0
LINE
  8
0
 10
2.53072
 20
50.83
 11
2.53072
 21
48
  0
LINE
  8
0
 10
2.53072
 20
48
 11
12.4693
 21
48
  0
LINE
  8
0
 10
12.4693
 20
48
 11
12.4693
 21
50.83
  0
LINE
  8
0
 10
12.4693
 20
50.83
 11
10.3206
 21
50.83
  0
LINE
  8
0
 10
10.3206
 20
50.83
 11
10.3206
 21
57
  0
LINE
  8
0
 10
10.3206
 20
57
 11
12.4693
 21
57
  0
LINE
  8
0
 10
12.4693
 20
57
 11
12.4693
 21
59.9
  0
LINE
  8
0
 10
12.4693
 20
59.9
 11
12.3711
 21
60.0547
  0
LINE
  8
0
 10
12.3711
 20
60.0547
 11
12.2107
 21
60.3956
  0
LINE
  8
0
 10
12.2107
 20
60.3956
 11
12.0942
 21
60.7539
  0
LINE
  8
0
 10
12.0942
 20
60.7539
 11
12.0237
 21
61.124
  0
LINE
  8
0
 10
12.0237
 20
61.124
 11
12
 21
61.5
  0
LINE
  8
0
 10
12
 20
61.5
 11
12.0237
 21
61.876
  0
LINE
  8
0
 10
12.0237
 20
61.876
 11
12.0942
 21
62.2461
  0
LINE
  8
0
 10
12.0942
 20
62.2461
 11
12.2107
 21
62.6044
  0
LINE
  8
0
 10
12.2107
 20
62.6044
 11
12.3711
 21
62.9453
  0
LINE
  8
0
 10
12.3711
 20
62.9453
 11
12.5729
 21
63.2634
  0
LINE
  8
0
 10
12.5729
 20
63.2634
 11
12.8131
 21
63.5536
  0
LINE
  8
0
 10
12.8131
 20
63.5536
 11
13.0877
 21
63.8115
  0
LINE
  8
0
 10
13.0877
 20
63.8115
 11
13.3925
 21
64.033
  0
LINE
  8
0
 10
13.3925
 20
64.033
 11
13.7227
 21
64.2145
  0
LINE
  8
0
 10
13.7227
 20
64.2145
 11
14.0729
 21
64.3532
  0
LINE
  8
0
 10
14.0729
 20
64.3532
 11
14.4379
 21
64.4469
  0
LINE
  8
0
 10
14.4379
 20
64.4469
 11
14.8116
 21
64.4941
  0
LINE
  8
0
 10
14.8116
 20
64.4941
 11
15.1884
 21
64.4941
  0
LINE
  8
0
 10
15.1884
 20
64.4941
 11
15.5621
 21
64.4469
  0
LINE
  8
0
 10
15.5621
 20
64.4469
 11
15.927
 21
64.3532
  0
LINE
  8
0
 10
15.927
 20
64.3532
 11
16.2773
 21
64.2145
  0
LINE
  8
0
 10
16.2773
 20
64.2145
 11
16.6075
 21
64.033
  0
LINE
  8
0
 10
16.6075
 20
64.033
 11
16.9123
 21
63.8115
  0
LINE
  8
0
 10
16.9123
 20
63.8115
 11
17.1869
 21
63.5536
  0
LINE
  8
0
 10
17.1869
 20
63.5536
 11
17.427
 21
63.2634
  0
LINE
  8
0
 10
17.427
 20
63.2634
 11
17.6289
 21
62.9453
  0
LINE
  8
0
 10
17.6289
 20
62.9453
 11
17.7893
 21
62.6044
  0
LINE
  8
0
 10
17.7893
 20
62.6044
 11
17.9057
 21
62.2461
  0
LINE
  8
0
 10
17.9057
 20
62.2461
 11
17.9763
 21
61.876
  0
LINE
  8
0
 10
17.9763
 20
61.876
 11
18
 21
61.5
  0
LINE
  8
0
 10
18
 20
61.5
 11
17.9763
 21
61.124
  0
LINE
  8
0
 10
17.9763
 20
61.124
 11
17.9057
 21
60.7539
  0
LINE
  8
0
 10
17.9057
 20
60.7539
 11
17.7893
 21
60.3956
  0
LINE
  8
0
 10
17.7893
 20
60.3956
 11
17.6289
 21
60.0547
  0
LINE
  8
0
 10
17.6289
 20
60.0547
 11
17.5307
 21
59.9
  0
LINE
  8
0
 10
17.5307
 20
59.9
 11
17.5307
 21
57
  0
LINE
  8
0
 10
17.5307
 20
57
 11
19.6794
 21
57
  0
LINE
  8
0
 10
19.6794
 20
57
 11
19.6794
 21
50.83
  0
LINE
  8
0
 10
19.6794
 20
50.83
 11
17.5307
 21
50.83
  0
LINE
  8
0
 10
17.5307
 20
50.83
 11
17.5307
 21
48
  0
LINE
  8
0
 10
17.5307
 20
48
 11
27.4693
 21
48
  0
LINE
  8
0
 10
27.4693
 20
48
 11
27.4693
 21
50.83
  0
LINE
  8
0
 10
27.4693
 20
50.83
 11
25.3206
 21
50.83
  0
LINE
  8
0
 10
25.3206
 20
50.83
 11
25.3206
 21
57
  0
LINE
  8
0
 10
25.3206
 20
57
 11
27.4693
 21
57
  0
LINE
  8
0
 10
27.4693
 20
57
 11
27.4693
 21
59.9
  0
LINE
  8
0
 10
27.4693
 20
59.9
 11
27.3711
 21
60.0547
  0
LINE
  8
0
 10
27.3711
 20
60.0547
 11
27.2107
 21
60.3956
  0
LINE
  8
0
 10
27.2107
 20
60.3956
 11
27.0942
 21
60.7539
  0
LINE
  8
0
 10
27.0942
 20
60.7539
 11
27.0237
 21
61.124
  0
LINE
  8
0
 10
27.0237
 20
61.124
 11
27
 21
61.5
  0
LINE
  8
0
 10
27
 20
61.5
 11
27.0237
 21
61.876
  0
LINE
  8
0
 10
27.0237
 20
61.876
 11
27.0942
 21
62.2461
  0
LINE
  8
0
 10
27.0942
 20
62.2461
 11
27.2107
 21
62.6044
  0
LINE
  8
0
 10
27.2107
 20
62.6044
 11
27.3711
 21
62.9453
  0
LINE
  8
0
 10
27.3711
 20
62.9453
 11
27.5729
 21
63.2634
  0
LINE
  8
0
 10
27.5729
 20
63.2634
 11
27.8131
 21
63.5536
  0
LINE
  8
0
 10
27.8131
 20
63.5536
 11
28.0877
 21
63.8115
  0
LINE
  8
0
 10
28.0877
 20
63.8115
 11
28.3925
 21
64.033
  0
LINE
  8
0
 10
28.3925
 20
64.033
 11
28.7227
 21
64.2145
  0
LINE
  8
0
 10
28.7227
 20
64.2145
 11
29.0729
 21
64.3532
  0
LINE
  8
0
 10
29.0729
 20
64.3532
 11
29.4379
 21
64.4469
  0
LINE
  8
0
 10
29.4379
 20
64.4469
 11
29.8116
 21
64.4941
  0
LINE
  8
0
 10
29.8116
 20
64.4941
 11
30.1884
 21
64.4941
  0
LINE
  8
0
 10
30.1884
 20
64.4941
 11
30.5621
 21
64.4469
  0
LINE
  8
0
 10
30.5621
 20
64.4469
 11
30.927
 21
64.3532
  0
LINE
  8
0
 10
30.927
 20
64.3532
 11
31.2773
 21
64.2145
  0
LINE
  8
0
 10
31.2773
 20
64.2145
 11
31.6075
 21
64.033
  0
LINE
  8
0
 10
31.6075
 20
64.033
 11
31.9123
 21
63.8115
  0
LINE
  8
0
 10
31.9123
 20
63.8115
 11
32.1869
 21
63.5536
  0
LINE
  8
0
 10
32.1869
 20
63.5536
 11
32.427
 21
63.2634
  0
LINE
  8
0
 10
32.427
 20
63.2634
 11
32.6289
 21
62.9453
  0
LINE
  8
0
 10
32.6289
 20
62.9453
 11
32.7893
 21
62.6044
  0
LINE
  8
0
 10
32.7893
 20
62.6044
 11
32.9057
 21
62.2461
  0
LINE
  8
0
 10
32.9057
 20
62.2461
 11
32.9763
 21
61.876
  0
LINE
  8
0
 10
32.9763
 20
61.876
 11
33
 21
61.5
  0
LINE
  8
0
 10
33
 20
61.5
 11
32.9763
 21
61.124
  0
LINE
  8
0
 10
32.9763
 20
61.124
 11
32.9057
 21
60.7539
  0
LINE
  8
0
 10
32.9057
 20
60.7539
 11
32.7893
 21
60.3956
  0
LINE
  8
0
 10
32.7893
 20
60.3956
 11
32.6289
 21
60.0547
  0
LINE
  8
0
 10
32.6289
 20
60.0547
 11
32.5307
 21
59.9
  0
LINE
  8
0
 10
32.5307
 20
59.9
 11
32.5307
 21
57
  0
LINE
  8
0
 10
32.5307
 20
57
 11
34.6794
 21
57
  0
LINE
  8
0
 10
34.6794
 20
57
 11
34.6794
 21
50.83
  0
LINE
  8
0
 10
34.6794
 20
50.83
 11
32.5307
 21
50.83
  0
LINE
  8
0
 10
32.5307
 20
50.83
 11
32.5307
 21
48
  0
LINE
  8
0
 10
32.5307
 20
48
 11
42.4693
 21
48
  0
LINE
  8
0
 10
42.4693
 20
48
 11
42.4693
 21
50.83
  0
LINE
  8
0
 10
42.4693
 20
50.83
 11
40.3206
 21
50.83
  0
LINE
  8
0
 10
40.3206
 20
50.83
 11
40.3206
 21
57
  0
LINE
  8
0
 10
40.3206
 20
57
 11
42.4693
 21
57
  0
LINE
  8
0
 10
42.4693
 20
57
 11
42.4693
 21
59.9
  0
LINE
  8
0
 10
42.4693
 20
59.9
 11
42.3711
 21
60.0547
  0
LINE
  8
0
 10
42.3711
 20
60.0547
 11
42.2107
 21
60.3956
  0
LINE
  8
0
 10
42.2107
 20
60.3956
 11
42.0942
 21
60.7539
  0
LINE
  8
0
 10
42.0942
 20
60.7539
 11
42.0237
 21
61.124
  0
LINE
  8
0
 10
42.0237
 20
61.124
 11
42
 21
61.5
  0
LINE
  8
0
 10
42
 20
61.5
 11
42.0237
 21
61.876
  0
LINE
  8
0
 10
42.0237
 20
61.876
 11
42.0942
 21
62.2461
  0
LINE
  8
0
 10
42.0942
 20
62.2461
 11
42.2107
 21
62.6044
  0
LINE
  8
0
 10
42.2107
 20
62.6044
 11
42.3711
 21
62.9453
  0
LINE
  8
0
 10
42.3711
 20
62.9453
 11
42.5729
 21
63.2634
  0
LINE
  8
0
 10
42.5729
 20
63.2634
 11
42.8131
 21
63.5536
  0
LINE
  8
0
 10
42.8131
 20
63.5536
 11
43.0877
 21
63.8115
  0
LINE
  8
0
 10
43.0877
 20
63.8115
 11
43.3925
 21
64.033
  0
LINE
  8
0
 10
43.3925
 20
64.033
 11
43.7227
 21
64.2145
  0
LINE
  8
0
 10
43.7227
 20
64.2145
 11
44.0729
 21
64.3532
  0
LINE
  8
0
 10
44.0729
 20
64.3532
 11
44.4379
 21
64.4469
  0
LINE
  8
0
 10
44.4379
 20
64.4469
 11
44.8116
 21
64.4941
  0
LINE
  8
0
 10
44.8116
 20
64.4941
 11
45.1884
 21
64.4941
  0
LINE
  8
0
 10
45.1884
 20
64.4941
 11
45.5621
 21
64.4469
  0
LINE
  8
0
 10
45.5621
 20
64.4469
 11
45.927
 21
64.3532
  0
LINE
  8
0
 10
45.927
 20
64.3532
 11
46.2773
 21
64.2145
  0
LINE
  8
0
 10
46.2773
 20
64.2145
 11
46.6075
 21
64.033
  0
LINE
  8
0
 10
46.6075
 20
64.033
 11
46.9123
 21
63.8115
  0
LINE
  8
0
 10
46.9123
 20
63.8115
 11
47.1869
 21
63.5536
  0
LINE
  8
0
 10
47.1869
 20
63.5536
 11
47.427
 21
63.2634
  0
LINE
  8
0
 10
47.427
 20
63.2634
 11
47.6289
 21
62.9453
  0
LINE
  8
0
 10
47.6289
 20
62.9453
 11
47.7893
 21
62.6044
  0
LINE
  8
0
 10
47.7893
 20
62.6044
 11
47.9057
 21
62.2461
  0
LINE
  8
0
 10
47.9057
 20
62.2461
 11
47.9763
 21
61.876
  0
LINE
  8
0
 10
47.9763
 20
61.876
 11
48
 21
61.5
  0
LINE
  8
0
 10
48
 20
61.5
 11
47.9763
 21
61.124
  0
LINE
  8
0
 10
47.9763
 20
61.124
 11
47.9057
 21
60.7539
  0
LINE
  8
0
 10
47.9057
 20
60.7539
 11
47.7893
 21
60.3956
  0
LINE
  8
0
 10
47.7893
 20
60.3956
 11
47.6289
 21
60.0547
  0
LINE
  8
0
 10
47.6289
 20
60.0547
 11
47.5307
 21
59.9
  0
LINE
  8
0
 10
47.5307
 20
59.9
 11
47.5307
 21
57
  0
LINE
  8
0
 10
47.5307
 20
57
 11
49.6794
 21
57
  0
LINE
  8
0
 10
49.6794
 20
57
 11
49.6794
 21
50.83
  0
LINE
  8
0
 10
49.6794
 20
50.83
 11
47.5307
 21
50.83
  0
LINE
  8
0
 10
47.5307
 20
50.83
 11
47.5307
 21
48
  0
LINE
  8
0
 10
47.5307
 20
48
 11
57.4693
 21
48
  0
LINE
  8
0
 10
57.4693
 20
48
 11
57.4693
 21
50.83
  0
LINE
  8
0
 10
57.4693
 20
50.83
 11
55.3206
 21
50.83
  0
LINE
  8
0
 10
55.3206
 20
50.83
 11
55.3206
 21
57
  0
LINE
  8
0
 10
55.3206
 20
57
 11
57.4693
 21
57
  0
LINE
  8
0
 10
57.4693
 20
57
 11
57.4693
 21
59.9
  0
LINE
  8
0
 10
57.4693
 20
59.9
 11
57.3711
 21
60.0547
  0
LINE
  8
0
 10
57.3711
 20
60.0547
 11
57.2107
 21
60.3956
  0
LINE
  8
0
 10
57.2107
 20
60.3956
 11
57.0942
 21
60.7539
  0
LINE
  8
0
 10
57.0942
 20
60.7539
 11
57.0237
 21
61.124
  0
LINE
  8
0
 10
57.0237
 20
61.124
 11
57
 21
61.5
  0
LINE
  8
0
 10
57
 20
61.5
 11
57.0237
 21
61.876
  0
LINE
  8
0
 10
57.0237
 20
61.876
 11
57.0942
 21
62.2461
  0
LINE
  8
0
 10
57.0942
 20
62.2461
 11
57.2107
 21
62.6044
  0
LINE
  8
0
 10
57.2107
 20
62.6044
 11
57.3711
 21
62.9453
  0
LINE
  8
0
 10
57.3711
 20
62.9453
 11
57.5729
 21
63.2634
  0
LINE
  8
0
 10
57.5729
 20
63.2634
 11
57.8131
 21
63.5536
  0
LINE
  8
0
 10
57.8131
 20
63.5536
 11
58.0877
 21
63.8115
  0
LINE
  8
0
 10
58.0877
 20
63.8115
 11
58.3925
 21
64.033
  0
LINE
  8
0
 10
58.3925
 20
64.033
 11
58.7227
 21
64.2145
  0
LINE
  8
0
 10
58.7227
 20
64.2145
 11
59.0729
 21
64.3532
  0
LINE
  8
0
 10
59.0729
 20
64.3532
 11
59.4379
 21
64.4469
  0
LINE
  8
0
 10
59.4379
 20
64.4469
 11
59.8116
 21
64.4941
  0
LINE
  8
0
 10
59.8116
 20
64.4941
 11
60.1884
 21
64.4941
  0
LINE
  8
0
 10
60.1884
 20
64.4941
 11
60.5621
 21
64.4469
  0
LINE
  8
0
 10
60.5621
 20
64.4469
 11
60.927
 21
64.3532
  0
LINE
  8
0
 10
60.927
 20
64.3532
 11
61.2773
 21
64.2145
  0
LINE
  8
0
 10
61.2773
 20
64.2145
 11
61.6075
 21
64.033
  0
LINE
  8
0
 10
61.6075
 20
64.033
 11
61.9123
 21
63.8115
  0
LINE
  8
0
 10
61.9123
 20
63.8115
 11
62.1869
 21
63.5536
  0
LINE
  8
0
 10
62.1869
 20
63.5536
 11
62.427
 21
63.2634
  0
LINE
  8
0
 10
62.427
 20
63.2634
 11
62.6289
 21
62.9453
  0
LINE
  8
0
 10
62.6289
 20
62.9453
 11
62.7893
 21
62.6044
  0
LINE
  8
0
 10
62.7893
 20
62.6044
 11
62.9057
 21
62.2461
  0
LINE
  8
0
 10
62.9057
 20
62.2461
 11
62.9763
 21
61.876
  0
LINE
  8
0
 10
62.9763
 20
61.876
 11
63
 21
61.5
  0
LINE
  8
0
 10
63
 20
61.5
 11
62.9763
 21
61.124
  0
LINE
  8
0
 10
62.9763
 20
61.124
 11
62.9057
 21
60.7539
  0
LINE
  8
0
 10
62.9057
 20
60.7539
 11
62.7893
 21
60.3956
  0
LINE
  8
0
 10
62.7893
 20
60.3956
 11
62.6289
 21
60.0547
  0
LINE
  8
0
 10
62.6289
 20
60.0547
 11
62.5307
 21
59.9
  0
LINE
  8
0
 10
62.5307
 20
59.9
 11
62.5307
 21
57
  0
LINE
  8
0
 10
62.5307
 20
57
 11
64.6794
 21
57
  0
LINE
  8
0
 10
64.6794
 20
57
 11
64.6794
 21
50.83
  0
LINE
  8
0
 10
64.6794
 20
50.83
 11
62.5307
 21
50.83
  0
LINE
  8
0
 10
62.5307
 20
50.83
 11
62.5307
 21
48
  0
LINE
  8
0
 10
62.5307
 20
48
 11
67
 21
48
  0
LINE
  8
0
 10
67
 20
48
 11
67
 21
63.5
  0
LINE
  8
0
 10
67
 20
63.5
 11
66.9606
 21
64.1267
  0
LINE
  8
0
 10
66.9606
 20
64.1267
 11
66.8429
 21
64.7434
  0
LINE
  8
0
 10
66.8429
 20
64.7434
 11
66.6489
 21
65.3406
  0
LINE
  8
0
 10
66.6489
 20
65.3406
 11
66.3815
 21
65.9088
  0
LINE
  8
0
 10
66.3815
 20
65.9088
 11
66.0451
 21
66.4389
  0
LINE
  8
0
 10
66.0451
 20
66.4389
 11
65.6448
 21
66.9227
  0
LINE
  8
0
 10
65.6448
 20
66.9227
 11
65.1871
 21
67.3526
  0
LINE
  8
0
 10
65.1871
 20
67.3526
 11
64.6791
 21
67.7216
  0
LINE
  8
0
 10
64.6791
 20
67.7216
 11
64.1289
 21
68.0241
  0
LINE
  8
0
 10
64.1289
 20
68.0241
 11
63.5451
 21
68.2553
  0
LINE
  8
0
 10
63.5451
 20
68.2553
 11
62.9369
 21
68.4114
  0
LINE
  8
0
 10
62.9369
 20
68.4114
 11
62.3139
 21
68.4901
  0
LINE
  8
0
 10
62.3139
 20
68.4901
 11
-62.3139
 21
68.4901
  0
LINE
  8
0
 10
-62.3139
 20
68.4901
 11
-62.9369
 21
68.4114
  0
LINE
  8
0
 10
-62.9369
 20
68.4114
 11
-63.5451
 21
68.2553
  0
LINE
  8
0
 10
-63.5451
 20
68.2553
 11
-64.1289
 21
68.0241
  0
LINE
  8
0
 10
-64.1289
 20
68.0241
 11
-64.6791
 21
67.7216
  0
LINE
  8
0
 10
-64.6791
 20
67.7216
 11
-65.1871
 21
67.3526
  0
LINE
  8
0
 10
-65.1871
 20
67.3526
 11
-65.6448
 21
66.9227
  0
LINE
  8
0
 10
-65.6448
 20
66.9227
 11
-66.0451
 21
66.4389
  0
LINE
  8
0
 10
-66.0451
 20
66.4389
 11
-66.3815
 21
65.9088
  0
LINE
  8
0
 10
-66.3815
 20
65.9088
 11
-66.6489
 21
65.3406
  0
LINE
  8
0
 10
-66.6489
 20
65.3406
 11
-66.8429
 21
64.7434
  0
LINE
  8
0
 10
-66.8429
 20
64.7434
 11
-66.9606
 21
64.1267
  0
LINE
  8
0
 10
-66.9606
 20
64.1267
 11
-67
 21
63.5
  0
LINE
  8
0
 10
-67
 20
63.5
 11
-67
 21
48
  0
LINE
  8
0
 10
-67
 20
48
 11
-62.5307
 21
48
  0
LINE
  8
0
 10
-62.5307
 20
48
 11
-62.5307
 21
50.83
  0
LINE
  8
0
 10
-25.2483
 20
59.9133
 11
-25.2483
 21
63.0867
  0
LINE
  8
0
 10
-25.2483
 20
63.0867
 11
-22.5
 21
64.6735
  0
LINE
  8
0
 10
-22.5
 20
64.6735
 11
-19.7517
 21
63.0867
  0
LINE
  8
0
 10
-19.7517
 20
63.0867
 11
-19.7517
 21
59.9133
  0
LINE
  8
0
 10
-19.7517
 20
59.9133
 11
-22.5
 21
58.3265
  0
LINE
  8
0
 10
-22.5
 20
58.3265
 11
-25.2483
 21
59.9133
  0
LINE
  8
0
 10
-40.2483
 20
59.9133
 11
-40.2483
 21
63.0867
  0
LINE
  8
0
 10
-40.2483
 20
63.0867
 11
-37.5
 21
64.6735
  0
LINE
  8
0
 10
-37.5
 20
64.6735
 11
-34.7517
 21
63.0867
  0
LINE
  8
0
 10
-34.7517
 20
63.0867
 11
-34.7517
 21
59.9133
  0
LINE
  8
0
 10
-34.7517
 20
59.9133
 11
-37.5
 21
58.3265
  0
LINE
  8
0
 10
-37.5
 20
58.3265
 11
-40.2483
 21
59.9133
  0
LINE
  8
0
 10
-55.2483
 20
59.9133
 11
-55.2483
 21
63.0867
  0
LINE
  8
0
 10
-55.2483
 20
63.0867
 11
-52.5
 21
64.6735
  0
LINE
  8
0
 10
-52.5
 20
64.6735
 11
-49.7517
 21
63.0867
  0
LINE
  8
0
 10
-49.7517
 20
63.0867
 11
-49.7517
 21
59.9133
  0
LINE
  8
0
 10
-49.7517
 20
59.9133
 11
-52.5
 21
58.3265
  0
LINE
  8
0
 10
-52.5
 20
58.3265
 11
-55.2483
 21
59.9133
  0
LINE
  8
0
 10
4.75166
 20
59.9133
 11
4.75166
 21
63.0867
  0
LINE
  8
0
 10
4.75166
 20
63.0867
 11
7.5
 21
64.6735
  0
LINE
  8
0
 10
7.5
 20
64.6735
 11
10.2483
 21
63.0867
  0
LINE
  8
0
 10
10.2483
 20
63.0867
 11
10.2483
 21
59.9133
  0
LINE
  8
0
 10
10.2483
 20
59.9133
 11
7.49998
 21
58.3265
  0
LINE
  8
0
 10
7.49998
 20
58.3265
 11
4.75166
 21
59.9133
  0
LINE
  8
0
 10
34.7517
 20
59.9133
 11
34.7517
 21
63.0867
  0
LINE
  8
0
 10
34.7517
 20
63.0867
 11
37.5
 21
64.6735
  0
LINE
  8
0
 10
37.5
 20
64.6735
 11
40.2483
 21
63.0867
  0
LINE
  8
0
 10
40.2483
 20
63.0867
 11
40.2483
 21
59.9133
  0
LINE
  8
0
 10
40.2483
 20
59.9133
 11
37.5
 21
58.3265
  0
LINE
  8
0
 10
37.5
 20
58.3265
 11
34.7517
 21
59.9133
  0
LINE
  8
0
 10
-7.88356
 20
59.2322
 11
-8.16476
 21
59.2982
  0
LINE
  8
0
 10
-8.16476
 20
59.2982
 11
-8.43549
 21
59.3988
  0
LINE
  8
0
 10
-8.43549
 20
59.3988
 11
-8.69145
 21
59.5327
  0
LINE
  8
0
 10
-8.69145
 20
59.5327
 11
-8.92863
 21
59.6975
  0
LINE
  8
0
 10
-8.92863
 20
59.6975
 11
-9.14328
 21
59.8908
  0
LINE
  8
0
 10
-9.14328
 20
59.8908
 11
-9.33202
 21
60.1094
  0
LINE
  8
0
 10
-9.33202
 20
60.1094
 11
-9.49185
 21
60.35
  0
LINE
  8
0
 10
-9.49185
 20
60.35
 11
-9.62029
 21
60.6087
  0
LINE
  8
0
 10
-9.62029
 20
60.6087
 11
-9.71527
 21
60.8815
  0
LINE
  8
0
 10
-9.71527
 20
60.8815
 11
-9.77531
 21
61.164
  0
LINE
  8
0
 10
-9.77531
 20
61.164
 11
-9.79948
 21
61.4518
  0
LINE
  8
0
 10
-9.79948
 20
61.4518
 11
-9.7874
 21
61.7404
  0
LINE
  8
0
 10
-9.7874
 20
61.7404
 11
-9.73923
 21
62.0252
  0
LINE
  8
0
 10
-9.73923
 20
62.0252
 11
-9.65575
 21
62.3017
  0
LINE
  8
0
 10
-9.65575
 20
62.3017
 11
-9.53825
 21
62.5656
  0
LINE
  8
0
 10
-9.53825
 20
62.5656
 11
-9.38864
 21
62.8126
  0
LINE
  8
0
 10
-9.38864
 20
62.8126
 11
-9.20923
 21
63.039
  0
LINE
  8
0
 10
-9.20923
 20
63.039
 11
-9.00285
 21
63.2411
  0
LINE
  8
0
 10
-9.00285
 20
63.2411
 11
-8.7728
 21
63.4157
  0
LINE
  8
0
 10
-8.7728
 20
63.4157
 11
-8.52266
 21
63.5601
  0
LINE
  8
0
 10
-8.52266
 20
63.5601
 11
-8.25638
 21
63.6721
  0
LINE
  8
0
 10
-8.25638
 20
63.6721
 11
-7.9782
 21
63.7497
  0
LINE
  8
0
 10
-7.9782
 20
63.7497
 11
-7.69244
 21
63.7919
  0
LINE
  8
0
 10
-7.69244
 20
63.7919
 11
-7.40367
 21
63.798
  0
LINE
  8
0
 10
-7.40367
 20
63.798
 11
-7.11642
 21
63.7678
  0
LINE
  8
0
 10
-7.11642
 20
63.7678
 11
-6.83522
 21
63.7018
  0
LINE
  8
0
 10
-6.83522
 20
63.7018
 11
-6.5645
 21
63.6012
  0
LINE
  8
0
 10
-6.5645
 20
63.6012
 11
-6.30853
 21
63.4673
  0
LINE
  8
0
 10
-6.30853
 20
63.4673
 11
-6.07135
 21
63.3025
  0
LINE
  8
0
 10
-6.07135
 20
63.3025
 11
-5.8567
 21
63.1092
  0
LINE
  8
0
 10
-5.8567
 20
63.1092
 11
-5.66797
 21
62.8906
  0
LINE
  8
0
 10
-5.66797
 20
62.8906
 11
-5.50813
 21
62.65
  0
LINE
  8
0
 10
-5.50813
 20
62.65
 11
-5.3797
 21
62.3913
  0
LINE
  8
0
 10
-5.3797
 20
62.3913
 11
-5.28471
 21
62.1185
  0
LINE
  8
0
 10
-5.28471
 20
62.1185
 11
-5.22467
 21
61.836
  0
LINE
  8
0
 10
-5.22467
 20
61.836
 11
-5.2005
 21
61.5482
  0
LINE
  8
0
 10
-5.2005
 20
61.5482
 11
-5.21259
 21
61.2596
  0
LINE
  8
0
 10
-5.21259
 20
61.2596
 11
-5.26076
 21
60.9748
  0
LINE
  8
0
 10
-5.26076
 20
60.9748
 11
-5.34424
 21
60.6983
  0
LINE
  8
0
 10
-5.34424
 20
60.6983
 11
-5.46173
 21
60.4344
  0
LINE
  8
0
 10
-5.46173
 20
60.4344
 11
-5.61134
 21
60.1873
  0
LINE
  8
0
 10
-5.61134
 20
60.1873
 11
-5.79076
 21
59.961
  0
LINE
  8
0
 10
-5.79076
 20
59.961
 11
-5.99713
 21
59.7589
  0
LINE
  8
0
 10
-5.99713
 20
59.7589
 11
-6.22719
 21
59.5843
  0
LINE
  8
0
 10
-6.22719
 20
59.5843
 11
-6.47733
 21
59.4398
  0
LINE
  8
0
 10
-6.47733
 20
59.4398
 11
-6.74361
 21
59.3279
  0
LINE
  8
0
 10
-6.74361
 20
59.3279
 11
-7.02179
 21
59.2503
  0
LINE
  8
0
 10
-7.02179
 20
59.2503
 11
-7.30754
 21
59.2081
  0
LINE
  8
0
 10
-7.30754
 20
59.2081
 11
-7.59631
 21
59.202
  0
LINE
  8
0
 10
-7.59631
 20
59.202
 11
-7.88356
 21
59.2322
  0
LINE
  8
0
 10
52.1164
 20
59.2322
 11
51.8352
 21
59.2982
  0
LINE
  8
0
 10
51.8352
 20
59.2982
 11
51.5645
 21
59.3988
  0
LINE
  8
0
 10
51.5645
 20
59.3988
 11
51.3085
 21
59.5327
  0
LINE
  8
0
 10
51.3085
 20
59.5327
 11
51.0714
 21
59.6975
  0
LINE
  8
0
 10
51.0714
 20
59.6975
 11
50.8567
 21
59.8908
  0
LINE
  8
0
 10
50.8567
 20
59.8908
 11
50.668
 21
60.1094
  0
LINE
  8
0
 10
50.668
 20
60.1094
 11
50.5081
 21
60.35
  0
LINE
  8
0
 10
50.5081
 20
60.35
 11
50.3797
 21
60.6087
  0
LINE
  8
0
 10
50.3797
 20
60.6087
 11
50.2847
 21
60.8815
  0
LINE
  8
0
 10
50.2847
 20
60.8815
 11
50.2247
 21
61.164
  0
LINE
  8
0
 10
50.2247
 20
61.164
 11
50.2005
 21
61.4518
  0
LINE
  8
0
 10
50.2005
 20
61.4518
 11
50.2126
 21
61.7404
  0
LINE
  8
0
 10
50.2126
 20
61.7404
 11
50.2608
 21
62.0252
  0
LINE
  8
0
 10
50.2608
 20
62.0252
 11
50.3442
 21
62.3017
  0
LINE
  8
0
 10
50.3442
 20
62.3017
 11
50.4617
 21
62.5656
  0
LINE
  8
0
 10
50.4617
 20
62.5656
 11
50.6114
 21
62.8126
  0
LINE
  8
0
 10
50.6114
 20
62.8126
 11
50.7908
 21
63.039
  0
LINE
  8
0
 10
50.7908
 20
63.039
 11
50.9971
 21
63.2411
  0
LINE
  8
0
 10
50.9971
 20
63.2411
 11
51.2272
 21
63.4157
  0
LINE
  8
0
 10
51.2272
 20
63.4157
 11
51.4773
 21
63.5601
  0
LINE
  8
0
 10
51.4773
 20
63.5601
 11
51.7436
 21
63.6721
  0
LINE
  8
0
 10
51.7436
 20
63.6721
 11
52.0218
 21
63.7497
  0
LINE
  8
0
 10
52.0218
 20
63.7497
 11
52.3075
 21
63.7919
  0
LINE
  8
0
 10
52.3075
 20
63.7919
 11
52.5963
 21
63.798
  0
LINE
  8
0
 10
52.5963
 20
63.798
 11
52.8836
 21
63.7678
  0
LINE
  8
0
 10
52.8836
 20
63.7678
 11
53.1648
 21
63.7018
  0
LINE
  8
0
 10
53.1648
 20
63.7018
 11
53.4355
 21
63.6012
  0
LINE
  8
0
 10
53.4355
 20
63.6012
 11
53.6915
 21
63.4673
  0
LINE
  8
0
 10
53.6915
 20
63.4673
 11
53.9286
 21
63.3025
  0
LINE
  8
0
 10
53.9286
 20
63.3025
 11
54.1433
 21
63.1092
  0
LINE
  8
0
 10
54.1433
 20
63.1092
 11
54.332
 21
62.8906
  0
LINE
  8
0
 10
54.332
 20
62.8906
 11
54.4919
 21
62.65
  0
LINE
  8
0
 10
54.4919
 20
62.65
 11
54.6203
 21
62.3913
  0
LINE
  8
0
 10
54.6203
 20
62.3913
 11
54.7153
 21
62.1185
  0
LINE
  8
0
 10
54.7153
 20
62.1185
 11
54.7753
 21
61.836
  0
LINE
  8
0
 10
54.7753
 20
61.836
 11
54.7995
 21
61.5482
  0
LINE
  8
0
 10
54.7995
 20
61.5482
 11
54.7874
 21
61.2596
  0
LINE
  8
0
 10
54.7874
 20
61.2596
 11
54.7392
 21
60.9748
  0
LINE
  8
0
 10
54.7392
 20
60.9748
 11
54.6557
 21
60.6983
  0
LINE
  8
0
 10
54.6557
 20
60.6983
 11
54.5383
 21
60.4344
  0
LINE
  8
0
 10
54.5383
 20
60.4344
 11
54.3886
 21
60.1873
  0
LINE
  8
0
 10
54.3886
 20
60.1873
 11
54.2092
 21
59.961
  0
LINE
  8
0
 10
54.2092
 20
59.961
 11
54.0029
 21
59.7589
  0
LINE
  8
0
 10
54.0029
 20
59.7589
 11
53.7728
 21
59.5843
  0
LINE
  8
0
 10
53.7728
 20
59.5843
 11
53.5227
 21
59.4398
  0
LINE
  8
0
 10
53.5227
 20
59.4398
 11
53.2564
 21
59.3279
  0
LINE
  8
0
 10
53.2564
 20
59.3279
 11
52.9782
 21
59.2503
  0
LINE
  8
0
 10
52.9782
 20
59.2503
 11
52.6925
 21
59.2081
  0
LINE
  8
0
 10
52.6925
 20
59.2081
 11
52.4037
 21
59.202
  0
LINE
  8
0
 10
52.4037
 20
59.202
 11
52.1164
 21
59.2322
  0
LINE
  8
0
 10
22.1164
 20
59.2322
 11
21.8352
 21
59.2982
  0
LINE
  8
0
 10
21.8352
 20
59.2982
 11
21.5645
 21
59.3988
  0
LINE
  8
0
 10
21.5645
 20
59.3988
 11
21.3085
 21
59.5327
  0
LINE
  8
0
 10
21.3085
 20
59.5327
 11
21.0714
 21
59.6975
  0
LINE
  8
0
 10
21.0714
 20
59.6975
 11
20.8567
 21
59.8908
  0
LINE
  8
0
 10
20.8567
 20
59.8908
 11
20.668
 21
60.1094
  0
LINE
  8
0
 10
20.668
 20
60.1094
 11
20.5081
 21
60.35
  0
LINE
  8
0
 10
20.5081
 20
60.35
 11
20.3797
 21
60.6087
  0
LINE
  8
0
 10
20.3797
 20
60.6087
 11
20.2847
 21
60.8815
  0
LINE
  8
0
 10
20.2847
 20
60.8815
 11
20.2247
 21
61.164
  0
LINE
  8
0
 10
20.2247
 20
61.164
 11
20.2005
 21
61.4518
  0
LINE
  8
0
 10
20.2005
 20
61.4518
 11
20.2126
 21
61.7404
  0
LINE
  8
0
 10
20.2126
 20
61.7404
 11
20.2608
 21
62.0252
  0
LINE
  8
0
 10
20.2608
 20
62.0252
 11
20.3442
 21
62.3017
  0
LINE
  8
0
 10
20.3442
 20
62.3017
 11
20.4617
 21
62.5656
  0
LINE
  8
0
 10
20.4617
 20
62.5656
 11
20.6113
 21
62.8126
  0
LINE
  8
0
 10
20.6113
 20
62.8126
 11
20.7908
 21
63.039
  0
LINE
  8
0
 10
20.7908
 20
63.039
 11
20.9971
 21
63.2411
  0
LINE
  8
0
 10
20.9971
 20
63.2411
 11
21.2272
 21
63.4157
  0
LINE
  8
0
 10
21.2272
 20
63.4157
 11
21.4773
 21
63.5601
  0
LINE
  8
0
 10
21.4773
 20
63.5601
 11
21.7436
 21
63.6721
  0
LINE
  8
0
 10
21.7436
 20
63.6721
 11
22.0218
 21
63.7497
  0
LINE
  8
0
 10
22.0218
 20
63.7497
 11
22.3075
 21
63.7919
  0
LINE
  8
0
 10
22.3075
 20
63.7919
 11
22.5963
 21
63.798
  0
LINE
  8
0
 10
22.5963
 20
63.798
 11
22.8836
 21
63.7678
  0
LINE
  8
0
 10
22.8836
 20
63.7678
 11
23.1648
 21
63.7018
  0
LINE
  8
0
 10
23.1648
 20
63.7018
 11
23.4355
 21
63.6012
  0
LINE
  8
0
 10
23.4355
 20
63.6012
 11
23.6915
 21
63.4673
  0
LINE
  8
0
 10
23.6915
 20
63.4673
 11
23.9286
 21
63.3025
  0
LINE
  8
0
 10
23.9286
 20
63.3025
 11
24.1433
 21
63.1092
  0
LINE
  8
0
 10
24.1433
 20
63.1092
 11
24.332
 21
62.8906
  0
LINE
  8
0
 10
24.332
 20
62.8906
 11
24.4919
 21
62.65
  0
LINE
  8
0
 10
24.4919
 20
62.65
 11
24.6203
 21
62.3913
  0
LINE
  8
0
 10
24.6203
 20
62.3913
 11
24.7153
 21
62.1185
  0
LINE
  8
0
 10
24.7153
 20
62.1185
 11
24.7753
 21
61.836
  0
LINE
  8
0
 10
24.7753
 20
61.836
 11
24.7995
 21
61.5482
  0
LINE
  8
0
 10
24.7995
 20
61.5482
 11
24.7874
 21
61.2596
  0
LINE
  8
0
 10
24.7874
 20
61.2596
 11
24.7392
 21
60.9748
  0
LINE
  8
0
 10
24.7392
 20
60.9748
 11
24.6557
 21
60.6983
  0
LINE
  8
0
 10
24.6557
 20
60.6983
 11
24.5383
 21
60.4344
  0
LINE
  8
0
 10
24.5383
 20
60.4344
 11
24.3886
 21
60.1873
  0
LINE
  8
0
 10
24.3886
 20
60.1873
 11
24.2092
 21
59.961
  0
LINE
  8
0
 10
24.2092
 20
59.961
 11
24.0029
 21
59.7589
  0
LINE
  8
0
 10
24.0029
 20
59.7589
 11
23.7728
 21
59.5843
  0
LINE
  8
0
 10
23.7728
 20
59.5843
 11
23.5227
 21
59.4398
  0
LINE
  8
0
 10
23.5227
 20
59.4398
 11
23.2564
 21
59.3279
  0
LINE
  8
0
 10
23.2564
 20
59.3279
 11
22.9782
 21
59.2503
  0
LINE
  8
0
 10
22.9782
 20
59.2503
 11
22.6925
 21
59.2081
  0
LINE
  8
0
 10
22.6925
 20
59.2081
 11
22.4037
 21
59.202
  0
LINE
  8
0
 10
22.4037
 20
59.202
 11
22.1164
 21
59.2322
  0
LINE
  8
0
 10
-62.5942
 20
26.83
 11
-64.6794
 21
26.83
  0
LINE
  8
0
 10
-64.6794
 20
26.83
 11
-64.6794
 21
33
  0
LINE
  8
0
 10
-64.6794
 20
33
 11
-62.5942
 21
33
  0
LINE
  8
0
 10
-62.5942
 20
33
 11
-62.5942
 21
36
  0
LINE
  8
0
 10
-62.5942
 20
36
 11
-62.6289
 21
36.0547
  0
LINE
  8
0
 10
-62.6289
 20
36.0547
 11
-62.7893
 21
36.3956
  0
LINE
  8
0
 10
-62.7893
 20
36.3956
 11
-62.9057
 21
36.7539
  0
LINE
  8
0
 10
-62.9057
 20
36.7539
 11
-62.9763
 21
37.124
  0
LINE
  8
0
 10
-62.9763
 20
37.124
 11
-63
 21
37.5
  0
LINE
  8
0
 10
-63
 20
37.5
 11
-62.9763
 21
37.876
  0
LINE
  8
0
 10
-62.9763
 20
37.876
 11
-62.9057
 21
38.2461
  0
LINE
  8
0
 10
-62.9057
 20
38.2461
 11
-62.7893
 21
38.6044
  0
LINE
  8
0
 10
-62.7893
 20
38.6044
 11
-62.6289
 21
38.9453
  0
LINE
  8
0
 10
-62.6289
 20
38.9453
 11
-62.427
 21
39.2634
  0
LINE
  8
0
 10
-62.427
 20
39.2634
 11
-62.1869
 21
39.5536
  0
LINE
  8
0
 10
-62.1869
 20
39.5536
 11
-61.9123
 21
39.8115
  0
LINE
  8
0
 10
-61.9123
 20
39.8115
 11
-61.6075
 21
40.033
  0
LINE
  8
0
 10
-61.6075
 20
40.033
 11
-61.2773
 21
40.2145
  0
LINE
  8
0
 10
-61.2773
 20
40.2145
 11
-60.927
 21
40.3532
  0
LINE
  8
0
 10
-60.927
 20
40.3532
 11
-60.5621
 21
40.4469
  0
LINE
  8
0
 10
-60.5621
 20
40.4469
 11
-60.1884
 21
40.4941
  0
LINE
  8
0
 10
-60.1884
 20
40.4941
 11
-59.8116
 21
40.4941
  0
LINE
  8
0
 10
-59.8116
 20
40.4941
 11
-59.4379
 21
40.4469
  0
LINE
  8
0
 10
-59.4379
 20
40.4469
 11
-59.0729
 21
40.3532
  0
LINE
  8
0
 10
-59.0729
 20
40.3532
 11
-58.7227
 21
40.2145
  0
LINE
  8
0
 10
-58.7227
 20
40.2145
 11
-58.3925
 21
40.033
  0
LINE
  8
0
 10
-58.3925
 20
40.033
 11
-58.0877
 21
39.8115
  0
LINE
  8
0
 10
-58.0877
 20
39.8115
 11
-57.8131
 21
39.5536
  0
LINE
  8
0
 10
-57.8131
 20
39.5536
 11
-57.5729
 21
39.2634
  0
LINE
  8
0
 10
-57.5729
 20
39.2634
 11
-57.3711
 21
38.9453
  0
LINE
  8
0
 10
-57.3711
 20
38.9453
 11
-57.2107
 21
38.6044
  0
LINE
  8
0
 10
-57.2107
 20
38.6044
 11
-57.0942
 21
38.2461
  0
LINE
  8
0
 10
-57.0942
 20
38.2461
 11
-57.0237
 21
37.876
  0
LINE
  8
0
 10
-57.0237
 20
37.876
 11
-57
 21
37.5
  0
LINE
  8
0
 10
-57
 20
37.5
 11
-57.0237
 21
37.124
  0
LINE
  8
0
 10
-57.0237
 20
37.124
 11
-57.0942
 21
36.7539
  0
LINE
  8
0
 10
-57.0942
 20
36.7539
 11
-57.2107
 21
36.3956
  0
LINE
  8
0
 10
-57.2107
 20
36.3956
 11
-57.3711
 21
36.0547
  0
LINE
  8
0
 10
-57.3711
 20
36.0547
 11
-57.4058
 21
36
  0
LINE
  8
0
 10
-57.4058
 20
36
 11
-57.4058
 21
33
  0
LINE
  8
0
 10
-57.4058
 20
33
 11
-55.3206
 21
33
  0
LINE
  8
0
 10
-55.3206
 20
33
 11
-55.3206
 21
26.83
  0
LINE
  8
0
 10
-55.3206
 20
26.83
 11
-57.4058
 21
26.83
  0
LINE
  8
0
 10
-57.4058
 20
26.83
 11
-57.4058
 21
24
  0
LINE
  8
0
 10
-57.4058
 20
24
 11
-47.5942
 21
24
  0
LINE
  8
0
 10
-47.5942
 20
24
 11
-47.5942
 21
26.83
  0
LINE
  8
0
 10
-47.5942
 20
26.83
 11
-49.6794
 21
26.83
  0
LINE
  8
0
 10
-49.6794
 20
26.83
 11
-49.6794
 21
33
  0
LINE
  8
0
 10
-49.6794
 20
33
 11
-47.5942
 21
33
  0
LINE
  8
0
 10
-47.5942
 20
33
 11
-47.5942
 21
36
  0
LINE
  8
0
 10
-47.5942
 20
36
 11
-47.6289
 21
36.0547
  0
LINE
  8
0
 10
-47.6289
 20
36.0547
 11
-47.7893
 21
36.3956
  0
LINE
  8
0
 10
-47.7893
 20
36.3956
 11
-47.9057
 21
36.7539
  0
LINE
  8
0
 10
-47.9057
 20
36.7539
 11
-47.9763
 21
37.124
  0
LINE
  8
0
 10
-47.9763
 20
37.124
 11
-48
 21
37.5
  0
LINE
  8
0
 10
-48
 20
37.5
 11
-47.9763
 21
37.876
  0
LINE
  8
0
 10
-47.9763
 20
37.876
 11
-47.9057
 21
38.2461
  0
LINE
  8
0
 10
-47.9057
 20
38.2461
 11
-47.7893
 21
38.6044
  0
LINE
  8
0
 10
-47.7893
 20
38.6044
 11
-47.6289
 21
38.9453
  0
LINE
  8
0
 10
-47.6289
 20
38.9453
 11
-47.427
 21
39.2634
  0
LINE
  8
0
 10
-47.427
 20
39.2634
 11
-47.1869
 21
39.5536
  0
LINE
  8
0
 10
-47.1869
 20
39.5536
 11
-46.9123
 21
39.8115
  0
LINE
  8
0
 10
-46.9123
 20
39.8115
 11
-46.6075
 21
40.033
  0
LINE
  8
0
 10
-46.6075
 20
40.033
 11
-46.2773
 21
40.2145
  0
LINE
  8
0
 10
-46.2773
 20
40.2145
 11
-45.927
 21
40.3532
  0
LINE
  8
0
 10
-45.927
 20
40.3532
 11
-45.5621
 21
40.4469
  0
LINE
  8
0
 10
-45.5621
 20
40.4469
 11
-45.1884
 21
40.4941
  0
LINE
  8
0
 10
-45.1884
 20
40.4941
 11
-44.8116
 21
40.4941
  0
LINE
  8
0
 10
-44.8116
 20
40.4941
 11
-44.4379
 21
40.4469
  0
LINE
  8
0
 10
-44.4379
 20
40.4469
 11
-44.0729
 21
40.3532
  0
LINE
  8
0
 10
-44.0729
 20
40.3532
 11
-43.7227
 21
40.2145
  0
LINE
  8
0
 10
-43.7227
 20
40.2145
 11
-43.3925
 21
40.033
  0
LINE
  8
0
 10
-43.3925
 20
40.033
 11
-43.0877
 21
39.8115
  0
LINE
  8
0
 10
-43.0877
 20
39.8115
 11
-42.8131
 21
39.5536
  0
LINE
  8
0
 10
-42.8131
 20
39.5536
 11
-42.5729
 21
39.2634
  0
LINE
  8
0
 10
-42.5729
 20
39.2634
 11
-42.3711
 21
38.9453
  0
LINE
  8
0
 10
-42.3711
 20
38.9453
 11
-42.2107
 21
38.6044
  0
LINE
  8
0
 10
-42.2107
 20
38.6044
 11
-42.0942
 21
38.2461
  0
LINE
  8
0
 10
-42.0942
 20
38.2461
 11
-42.0237
 21
37.876
  0
LINE
  8
0
 10
-42.0237
 20
37.876
 11
-42
 21
37.5
  0
LINE
  8
0
 10
-42
 20
37.5
 11
-42.0237
 21
37.124
  0
LINE
  8
0
 10
-42.0237
 20
37.124
 11
-42.0942
 21
36.7539
  0
LINE
  8
0
 10
-42.0942
 20
36.7539
 11
-42.2107
 21
36.3956
  0
LINE
  8
0
 10
-42.2107
 20
36.3956
 11
-42.3711
 21
36.0547
  0
LINE
  8
0
 10
-42.3711
 20
36.0547
 11
-42.4058
 21
36
  0
LINE
  8
0
 10
-42.4058
 20
36
 11
-42.4058
 21
33
  0
LINE
  8
0
 10
-42.4058
 20
33
 11
-40.3206
 21
33
  0
LINE
  8
0
 10
-40.3206
 20
33
 11
-40.3206
 21
26.83
  0
LINE
  8
0
 10
-40.3206
 20
26.83
 11
-42.4058
 21
26.83
  0
LINE
  8
0
 10
-42.4058
 20
26.83
 11
-42.4058
 21
24
  0
LINE
  8
0
 10
-42.4058
 20
24
 11
-32.5942
 21
24
  0
LINE
  8
0
 10
-32.5942
 20
24
 11
-32.5942
 21
26.83
  0
LINE
  8
0
 10
-32.5942
 20
26.83
 11
-34.6794
 21
26.83
  0
LINE
  8
0
 10
-34.6794
 20
26.83
 11
-34.6794
 21
33
  0
LINE
  8
0
 10
-34.6794
 20
33
 11
-32.5942
 21
33
  0
LINE
  8
0
 10
-32.5942
 20
33
 11
-32.5942
 21
36
  0
LINE
  8
0
 10
-32.5942
 20
36
 11
-32.6289
 21
36.0547
  0
LINE
  8
0
 10
-32.6289
 20
36.0547
 11
-32.7893
 21
36.3956
  0
LINE
  8
0
 10
-32.7893
 20
36.3956
 11
-32.9057
 21
36.7539
  0
LINE
  8
0
 10
-32.9057
 20
36.7539
 11
-32.9763
 21
37.124
  0
LINE
  8
0
 10
-32.9763
 20
37.124
 11
-33
 21
37.5
  0
LINE
  8
0
 10
-33
 20
37.5
 11
-32.9763
 21
37.876
  0
LINE
  8
0
 10
-32.9763
 20
37.876
 11
-32.9057
 21
38.2461
  0
LINE
  8
0
 10
-32.9057
 20
38.2461
 11
-32.7893
 21
38.6044
  0
LINE
  8
0
 10
-32.7893
 20
38.6044
 11
-32.6289
 21
38.9453
  0
LINE
  8
0
 10
-32.6289
 20
38.9453
 11
-32.427
 21
39.2634
  0
LINE
  8
0
 10
-32.427
 20
39.2634
 11
-32.1869
 21
39.5536
  0
LINE
  8
0
 10
-32.1869
 20
39.5536
 11
-31.9123
 21
39.8115
  0
LINE
  8
0
 10
-31.9123
 20
39.8115
 11
-31.6075
 21
40.033
  0
LINE
  8
0
 10
-31.6075
 20
40.033
 11
-31.2773
 21
40.2145
  0
LINE
  8
0
 10
-31.2773
 20
40.2145
 11
-30.927
 21
40.3532
  0
LINE
  8
0
 10
-30.927
 20
40.3532
 11
-30.5621
 21
40.4469
  0
LINE
  8
0
 10
-30.5621
 20
40.4469
 11
-30.1884
 21
40.4941
  0
LINE
  8
0
 10
-30.1884
 20
40.4941
 11
-29.8116
 21
40.4941
  0
LINE
  8
0
 10
-29.8116
 20
40.4941
 11
-29.4379
 21
40.4469
  0
LINE
  8
0
 10
-29.4379
 20
40.4469
 11
-29.0729
 21
40.3532
  0
LINE
  8
0
 10
-29.0729
 20
40.3532
 11
-28.7227
 21
40.2145
  0
LINE
  8
0
 10
-28.7227
 20
40.2145
 11
-28.3925
 21
40.033
  0
LINE
  8
0
 10
-28.3925
 20
40.033
 11
-28.0877
 21
39.8115
  0
LINE
  8
0
 10
-28.0877
 20
39.8115
 11
-27.8131
 21
39.5536
  0
LINE
  8
0
 10
-27.8131
 20
39.5536
 11
-27.5729
 21
39.2634
  0
LINE
  8
0
 10
-27.5729
 20
39.2634
 11
-27.3711
 21
38.9453
  0
LINE
  8
0
 10
-27.3711
 20
38.9453
 11
-27.2107
 21
38.6044
  0
LINE
  8
0
 10
-27.2107
 20
38.6044
 11
-27.0942
 21
38.2461
  0
LINE
  8
0
 10
-27.0942
 20
38.2461
 11
-27.0237
 21
37.876
  0
LINE
  8
0
 10
-27.0237
 20
37.876
 11
-27
 21
37.5
  0
LINE
  8
0
 10
-27
 20
37.5
 11
-27.0237
 21
37.124
  0
LINE
  8
0
 10
-27.0237
 20
37.124
 11
-27.0942
 21
36.7539
  0
LINE
  8
0
 10
-27.0942
 20
36.7539
 11
-27.2107
 21
36.3956
  0
LINE
  8
0
 10
-27.2107
 20
36.3956
 11
-27.3711
 21
36.0547
  0
LINE
  8
0
 10
-27.3711
 20
36.0547
 11
-27.4058
 21
36
  0
LINE
  8
0
 10
-27.4058
 20
36
 11
-27.4058
 21
33
  0
LINE
  8
0
 10
-27.4058
 20
33
 11
-25.3206
 21
33
  0
LINE
  8
0
 10
-25.3206
 20
33
 11
-25.3206
 21
26.83
  0
LINE
  8
0
 10
-25.3206
 20
26.83
 11
-27.4058
 21
26.83
  0
LINE
  8
0
 10
-27.4058
 20
26.83
 11
-27.4058
 21
24
  0
LINE
  8
0
 10
-27.4058
 20
24
 11
-17.5942
 21
24
  0
LINE
  8
0
 10
-17.5942
 20
24
 11
-17.5942
 21
26.83
  0
LINE
  8
0
 10
-17.5942
 20
26.83
 11
-19.6794
 21
26.83
  0
LINE
  8
0
 10
-19.6794
 20
26.83
 11
-19.6794
 21
33
  0
LINE
  8
0
 10
-19.6794
 20
33
 11
-17.5942
 21
33
  0
LINE
  8
0
 10
-17.5942
 20
33
 11
-17.5942
 21
36
  0
LINE
  8
0
 10
-17.5942
 20
36
 11
-17.6289
 21
36.0547
  0
LINE
  8
0
 10
-17.6289
 20
36.0547
 11
-17.7893
 21
36.3956
  0
LINE
  8
0
 10
-17.7893
 20
36.3956
 11
-17.9057
 21
36.7539
  0
LINE
  8
0
 10
-17.9057
 20
36.7539
 11
-17.9763
 21
37.124
  0
LINE
  8
0
 10
-17.9763
 20
37.124
 11
-18
 21
37.5
  0
LINE
  8
0
 10
-18
 20
37.5
 11
-17.9763
 21
37.876
  0
LINE
  8
0
 10
-17.9763
 20
37.876
 11
-17.9057
 21
38.2461
  0
LINE
  8
0
 10
-17.9057
 20
38.2461
 11
-17.7893
 21
38.6044
  0
LINE
  8
0
 10
-17.7893
 20
38.6044
 11
-17.6289
 21
38.9453
  0
LINE
  8
0
 10
-17.6289
 20
38.9453
 11
-17.427
 21
39.2634
  0
LINE
  8
0
 10
-17.427
 20
39.2634
 11
-17.1869
 21
39.5536
  0
LINE
  8
0
 10
-17.1869
 20
39.5536
 11
-16.9123
 21
39.8115
  0
LINE
  8
0
 10
-16.9123
 20
39.8115
 11
-16.6075
 21
40.033
  0
LINE
  8
0
 10
-16.6075
 20
40.033
 11
-16.2773
 21
40.2145
  0
LINE
  8
0
 10
-16.2773
 20
40.2145
 11
-15.927
 21
40.3532
  0
LINE
  8
0
 10
-15.927
 20
40.3532
 11
-15.5621
 21
40.4469
  0
LINE
  8
0
 10
-15.5621
 20
40.4469
 11
-15.1884
 21
40.4941
  0
LINE
  8
0
 10
-15.1884
 20
40.4941
 11
-14.8116
 21
40.4941
  0
LINE
  8
0
 10
-14.8116
 20
40.4941
 11
-14.4379
 21
40.4469
  0
LINE
  8
0
 10
-14.4379
 20
40.4469
 11
-14.0729
 21
40.3532
  0
LINE
  8
0
 10
-14.0729
 20
40.3532
 11
-13.7227
 21
40.2145
  0
LINE
  8
0
 10
-13.7227
 20
40.2145
 11
-13.3925
 21
40.033
  0
LINE
  8
0
 10
-13.3925
 20
40.033
 11
-13.0877
 21
39.8115
  0
LINE
  8
0
 10
-13.0877
 20
39.8115
 11
-12.8131
 21
39.5536
  0
LINE
  8
0
 10
-12.8131
 20
39.5536
 11
-12.5729
 21
39.2634
  0
LINE
  8
0
 10
-12.5729
 20
39.2634
 11
-12.3711
 21
38.9453
  0
LINE
  8
0
 10
-12.3711
 20
38.9453
 11
-12.2107
 21
38.6044
  0
LINE
  8
0
 10
-12.2107
 20
38.6044
 11
-12.0942
 21
38.2461
  0
LINE
  8
0
 10
-12.0942
 20
38.2461
 11
-12.0237
 21
37.876
  0
LINE
  8
0
 10
-12.0237
 20
37.876
 11
-12
 21
37.5
  0
LINE
  8
0
 10
-12
 20
37.5
 11
-12.0237
 21
37.124
  0
LINE
  8
0
 10
-12.0237
 20
37.124
 11
-12.0942
 21
36.7539
  0
LINE
  8
0
 10
-12.0942
 20
36.7539
 11
-12.2107
 21
36.3956
  0
LINE
  8
0
 10
-12.2107
 20
36.3956
 11
-12.3711
 21
36.0547
  0
LINE
  8
0
 10
-12.3711
 20
36.0547
 11
-12.4058
 21
36
  0
LINE
  8
0
 10
-12.4058
 20
36
 11
-12.4058
 21
33
  0
LINE
  8
0
 10
-12.4058
 20
33
 11
-10.3206
 21
33
  0
LINE
  8
0
 10
-10.3206
 20
33
 11
-10.3206
 21
26.83
  0
LINE
  8
0
 10
-10.3206
 20
26.83
 11
-12.4058
 21
26.83
  0
LINE
  8
0
 10
-12.4058
 20
26.83
 11
-12.4058
 21
24
  0
LINE
  8
0
 10
-12.4058
 20
24
 11
-2.59418
 21
24
  0
LINE
  8
0
 10
-2.59418
 20
24
 11
-2.59418
 21
26.83
  0
LINE
  8
0
 10
-2.59418
 20
26.83
 11
-4.67937
 21
26.83
  0
LINE
  8
0
 10
-4.67937
 20
26.83
 11
-4.67937
 21
33
  0
LINE
  8
0
 10
-4.67937
 20
33
 11
-2.59418
 21
33
  0
LINE
  8
0
 10
-2.59418
 20
33
 11
-2.59418
 21
36
  0
LINE
  8
0
 10
-2.59418
 20
36
 11
-2.62891
 21
36.0547
  0
LINE
  8
0
 10
-2.62891
 20
36.0547
 11
-2.78932
 21
36.3956
  0
LINE
  8
0
 10
-2.78932
 20
36.3956
 11
-2.90575
 21
36.7539
  0
LINE
  8
0
 10
-2.90575
 20
36.7539
 11
-2.97633
 21
37.124
  0
LINE
  8
0
 10
-2.97633
 20
37.124
 11
-3
 21
37.5
  0
LINE
  8
0
 10
-3
 20
37.5
 11
-2.97633
 21
37.876
  0
LINE
  8
0
 10
-2.97633
 20
37.876
 11
-2.90575
 21
38.2461
  0
LINE
  8
0
 10
-2.90575
 20
38.2461
 11
-2.78932
 21
38.6044
  0
LINE
  8
0
 10
-2.78932
 20
38.6044
 11
-2.62891
 21
38.9453
  0
LINE
  8
0
 10
-2.62891
 20
38.9453
 11
-2.42705
 21
39.2634
  0
LINE
  8
0
 10
-2.42705
 20
39.2634
 11
-2.1869
 21
39.5536
  0
LINE
  8
0
 10
-2.1869
 20
39.5536
 11
-1.91226
 21
39.8115
  0
LINE
  8
0
 10
-1.91226
 20
39.8115
 11
-1.60747
 21
40.033
  0
LINE
  8
0
 10
-1.60747
 20
40.033
 11
-1.27733
 21
40.2145
  0
LINE
  8
0
 10
-1.27733
 20
40.2145
 11
-0.927048
 21
40.3532
  0
LINE
  8
0
 10
-0.927048
 20
40.3532
 11
-0.562134
 21
40.4469
  0
LINE
  8
0
 10
-0.562134
 20
40.4469
 11
-0.18837
 21
40.4941
  0
LINE
  8
0
 10
-0.18837
 20
40.4941
 11
0.18837
 21
40.4941
  0
LINE
  8
0
 10
0.18837
 20
40.4941
 11
0.562134
 21
40.4469
  0
LINE
  8
0
 10
0.562134
 20
40.4469
 11
0.927048
 21
40.3532
  0
LINE
  8
0
 10
0.927048
 20
40.3532
 11
1.27733
 21
40.2145
  0
LINE
  8
0
 10
1.27733
 20
40.2145
 11
1.60747
 21
40.033
  0
LINE
  8
0
 10
1.60747
 20
40.033
 11
1.91226
 21
39.8115
  0
LINE
  8
0
 10
1.91226
 20
39.8115
 11
2.1869
 21
39.5536
  0
LINE
  8
0
 10
2.1869
 20
39.5536
 11
2.42705
 21
39.2634
  0
LINE
  8
0
 10
2.42705
 20
39.2634
 11
2.62891
 21
38.9453
  0
LINE
  8
0
 10
2.62891
 20
38.9453
 11
2.78932
 21
38.6044
  0
LINE
  8
0
 10
2.78932
 20
38.6044
 11
2.90575
 21
38.2461
  0
LINE
  8
0
 10
2.90575
 20
38.2461
 11
2.97633
 21
37.876
  0
LINE
  8
0
 10
2.97633
 20
37.876
 11
3
 21
37.5
  0
LINE
  8
0
 10
3
 20
37.5
 11
2.97633
 21
37.124
  0
LINE
  8
0
 10
2.97633
 20
37.124
 11
2.90575
 21
36.7539
  0
LINE
  8
0
 10
2.90575
 20
36.7539
 11
2.78932
 21
36.3956
  0
LINE
  8
0
 10
2.78932
 20
36.3956
 11
2.62891
 21
36.0547
  0
LINE
  8
0
 10
2.62891
 20
36.0547
 11
2.59418
 21
36
  0
LINE
  8
0
 10
2.59418
 20
36
 11
2.59418
 21
33
  0
LINE
  8
0
 10
2.59418
 20
33
 11
4.67937
 21
33
  0
LINE
  8
0
 10
4.67937
 20
33
 11
4.67937
 21
26.83
  0
LINE
  8
0
 10
4.67937
 20
26.83
 11
2.59418
 21
26.83
  0
LINE
  8
0
 10
2.59418
 20
26.83
 11
2.59418
 21
24
  0
LINE
  8
0
 10
2.59418
 20
24
 11
12.4058
 21
24
  0
LINE
  8
0
 10
12.4058
 20
24
 11
12.4058
 21
26.83
  0
LINE
  8
0
 10
12.4058
 20
26.83
 11
10.3206
 21
26.83
  0
LINE
  8
0
 10
10.3206
 20
26.83
 11
10.3206
 21
33
  0
LINE
  8
0
 10
10.3206
 20
33
 11
12.4058
 21
33
  0
LINE
  8
0
 10
12.4058
 20
33
 11
12.4058
 21
36
  0
LINE
  8
0
 10
12.4058
 20
36
 11
12.3711
 21
36.0547
  0
LINE
  8
0
 10
12.3711
 20
36.0547
 11
12.2107
 21
36.3956
  0
LINE
  8
0
 10
12.2107
 20
36.3956
 11
12.0942
 21
36.7539
  0
LINE
  8
0
 10
12.0942
 20
36.7539
 11
12.0237
 21
37.124
  0
LINE
  8
0
 10
12.0237
 20
37.124
 11
12
 21
37.5
  0
LINE
  8
0
 10
12
 20
37.5
 11
12.0237
 21
37.876
  0
LINE
  8
0
 10
12.0237
 20
37.876
 11
12.0942
 21
38.2461
  0
LINE
  8
0
 10
12.0942
 20
38.2461
 11
12.2107
 21
38.6044
  0
LINE
  8
0
 10
12.2107
 20
38.6044
 11
12.3711
 21
38.9453
  0
LINE
  8
0
 10
12.3711
 20
38.9453
 11
12.5729
 21
39.2634
  0
LINE
  8
0
 10
12.5729
 20
39.2634
 11
12.8131
 21
39.5536
  0
LINE
  8
0
 10
12.8131
 20
39.5536
 11
13.0877
 21
39.8115
  0
LINE
  8
0
 10
13.0877
 20
39.8115
 11
13.3925
 21
40.033
  0
LINE
  8
0
 10
13.3925
 20
40.033
 11
13.7227
 21
40.2145
  0
LINE
  8
0
 10
13.7227
 20
40.2145
 11
14.0729
 21
40.3532
  0
LINE
  8
0
 10
14.0729
 20
40.3532
 11
14.4379
 21
40.4469
  0
LINE
  8
0
 10
14.4379
 20
40.4469
 11
14.8116
 21
40.4941
  0
LINE
  8
0
 10
14.8116
 20
40.4941
 11
15.1884
 21
40.4941
  0
LINE
  8
0
 10
15.1884
 20
40.4941
 11
15.5621
 21
40.4469
  0
LINE
  8
0
 10
15.5621
 20
40.4469
 11
15.927
 21
40.3532
  0
LINE
  8
0
 10
15.927
 20
40.3532
 11
16.2773
 21
40.2145
  0
LINE
  8
0
 10
16.2773
 20
40.2145
 11
16.6075
 21
40.033
  0
LINE
  8
0
 10
16.6075
 20
40.033
 11
16.9123
 21
39.8115
  0
LINE
  8
0
 10
16.9123
 20
39.8115
 11
17.1869
 21
39.5536
  0
LINE
  8
0
 10
17.1869
 20
39.5536
 11
17.427
 21
39.2634
  0
LINE
  8
0
 10
17.427
 20
39.2634
 11
17.6289
 21
38.9453
  0
LINE
  8
0
 10
17.6289
 20
38.9453
 11
17.7893
 21
38.6044
  0
LINE
  8
0
 10
17.7893
 20
38.6044
 11
17.9057
 21
38.2461
  0
LINE
  8
0
 10
17.9057
 20
38.2461
 11
17.9763
 21
37.876
  0
LINE
  8
0
 10
17.9763
 20
37.876
 11
18
 21
37.5
  0
LINE
  8
0
 10
18
 20
37.5
 11
17.9763
 21
37.124
  0
LINE
  8
0
 10
17.9763
 20
37.124
 11
17.9057
 21
36.7539
  0
LINE
  8
0
 10
17.9057
 20
36.7539
 11
17.7893
 21
36.3956
  0
LINE
  8
0
 10
17.7893
 20
36.3956
 11
17.6289
 21
36.0547
  0
LINE
  8
0
 10
17.6289
 20
36.0547
 11
17.5942
 21
36
  0
LINE
  8
0
 10
17.5942
 20
36
 11
17.5942
 21
33
  0
LINE
  8
0
 10
17.5942
 20
33
 11
19.6794
 21
33
  0
LINE
  8
0
 10
19.6794
 20
33
 11
19.6794
 21
26.83
  0
LINE
  8
0
 10
19.6794
 20
26.83
 11
17.5942
 21
26.83
  0
LINE
  8
0
 10
17.5942
 20
26.83
 11
17.5942
 21
24
  0
LINE
  8
0
 10
17.5942
 20
24
 11
27.4058
 21
24
  0
LINE
  8
0
 10
27.4058
 20
24
 11
27.4058
 21
26.83
  0
LINE
  8
0
 10
27.4058
 20
26.83
 11
25.3206
 21
26.83
  0
LINE
  8
0
 10
25.3206
 20
26.83
 11
25.3206
 21
33
  0
LINE
  8
0
 10
25.3206
 20
33
 11
27.4058
 21
33
  0
LINE
  8
0
 10
27.4058
 20
33
 11
27.4058
 21
36
  0
LINE
  8
0
 10
27.4058
 20
36
 11
27.3711
 21
36.0547
  0
LINE
  8
0
 10
27.3711
 20
36.0547
 11
27.2107
 21
36.3956
  0
LINE
  8
0
 10
27.2107
 20
36.3956
 11
27.0942
 21
36.7539
  0
LINE
  8
0
 10
27.0942
 20
36.7539
 11
27.0237
 21
37.124
  0
LINE
  8
0
 10
27.0237
 20
37.124
 11
27
 21
37.5
  0
LINE
  8
0
 10
27
 20
37.5
 11
27.0237
 21
37.876
  0
LINE
  8
0
 10
27.0237
 20
37.876
 11
27.0942
 21
38.2461
  0
LINE
  8
0
 10
27.0942
 20
38.2461
 11
27.2107
 21
38.6044
  0
LINE
  8
0
 10
27.2107
 20
38.6044
 11
27.3711
 21
38.9453
  0
LINE
  8
0
 10
27.3711
 20
38.9453
 11
27.5729
 21
39.2634
  0
LINE
  8
0
 10
27.5729
 20
39.2634
 11
27.8131
 21
39.5536
  0
LINE
  8
0
 10
27.8131
 20
39.5536
 11
28.0877
 21
39.8115
  0
LINE
  8
0
 10
28.0877
 20
39.8115
 11
28.3925
 21
40.033
  0
LINE
  8
0
 10
28.3925
 20
40.033
 11
28.7227
 21
40.2145
  0
LINE
  8
0
 10
28.7227
 20
40.2145
 11
29.0729
 21
40.3532
  0
LINE
  8
0
 10
29.0729
 20
40.3532
 11
29.4379
 21
40.4469
  0
LINE
  8
0
 10
29.4379
 20
40.4469
 11
29.8116
 21
40.4941
  0
LINE
  8
0
 10
29.8116
 20
40.4941
 11
30.1884
 21
40.4941
  0
LINE
  8
0
 10
30.1884
 20
40.4941
 11
30.5621
 21
40.4469
  0
LINE
  8
0
 10
30.5621
 20
40.4469
 11
30.927
 21
40.3532
  0
LINE
  8
0
 10
30.927
 20
40.3532
 11
31.2773
 21
40.2145
  0
LINE
  8
0
 10
31.2773
 20
40.2145
 11
31.6075
 21
40.033
  0
LINE
  8
0
 10
31.6075
 20
40.033
 11
31.9123
 21
39.8115
  0
LINE
  8
0
 10
31.9123
 20
39.8115
 11
32.1869
 21
39.5536
  0
LINE
  8
0
 10
32.1869
 20
39.5536
 11
32.427
 21
39.2634
  0
LINE
  8
0
 10
32.427
 20
39.2634
 11
32.6289
 21
38.9453
  0
LINE
  8
0
 10
32.6289
 20
38.9453
 11
32.7893
 21
38.6044
  0
LINE
  8
0
 10
32.7893
 20
38.6044
 11
32.9057
 21
38.2461
  0
LINE
  8
0
 10
32.9057
 20
38.2461
 11
32.9763
 21
37.876
  0
LINE
  8
0
 10
32.9763
 20
37.876
 11
33
 21
37.5
  0
LINE
  8
0
 10
33
 20
37.5
 11
32.9763
 21
37.124
  0
LINE
  8
0
 10
32.9763
 20
37.124
 11
32.9057
 21
36.7539
  0
LINE
  8
0
 10
32.9057
 20
36.7539
 11
32.7893
 21
36.3956
  0
LINE
  8
0
 10
32.7893
 20
36.3956
 11
32.6289
 21
36.0547
  0
LINE
  8
0
 10
32.6289
 20
36.0547
 11
32.5942
 21
36
  0
LINE
  8
0
 10
32.5942
 20
36
 11
32.5942
 21
33
  0
LINE
  8
0
 10
32.5942
 20
33
 11
34.6794
 21
33
  0
LINE
  8
0
 10
34.6794
 20
33
 11
34.6794
 21
26.83
  0
LINE
  8
0
 10
34.6794
 20
26.83
 11
32.5942
 21
26.83
  0
LINE
  8
0
 10
32.5942
 20
26.83
 11
32.5942
 21
24
  0
LINE
  8
0
 10
32.5942
 20
24
 11
42.4058
 21
24
  0
LINE
  8
0
 10
42.4058
 20
24
 11
42.4058
 21
26.83
  0
LINE
  8
0
 10
42.4058
 20
26.83
 11
40.3206
 21
26.83
  0
LINE
  8
0
 10
40.3206
 20
26.83
 11
40.3206
 21
33
  0
LINE
  8
0
 10
40.3206
 20
33
 11
42.4058
 21
33
  0
LINE
  8
0
 10
42.4058
 20
33
 11
42.4058
 21
36
  0
LINE
  8
0
 10
42.4058
 20
36
 11
42.3711
 21
36.0547
  0
LINE
  8
0
 10
42.3711
 20
36.0547
 11
42.2107
 21
36.3956
  0
LINE
  8
0
 10
42.2107
 20
36.3956
 11
42.0942
 21
36.7539
  0
LINE
  8
0
 10
42.0942
 20
36.7539
 11
42.0237
 21
37.124
  0
LINE
  8
0
 10
42.0237
 20
37.124
 11
42
 21
37.5
  0
LINE
  8
0
 10
42
 20
37.5
 11
42.0237
 21
37.876
  0
LINE
  8
0
 10
42.0237
 20
37.876
 11
42.0942
 21
38.2461
  0
LINE
  8
0
 10
42.0942
 20
38.2461
 11
42.2107
 21
38.6044
  0
LINE
  8
0
 10
42.2107
 20
38.6044
 11
42.3711
 21
38.9453
  0
LINE
  8
0
 10
42.3711
 20
38.9453
 11
42.5729
 21
39.2634
  0
LINE
  8
0
 10
42.5729
 20
39.2634
 11
42.8131
 21
39.5536
  0
LINE
  8
0
 10
42.8131
 20
39.5536
 11
43.0877
 21
39.8115
  0
LINE
  8
0
 10
43.0877
 20
39.8115
 11
43.3925
 21
40.033
  0
LINE
  8
0
 10
43.3925
 20
40.033
 11
43.7227
 21
40.2145
  0
LINE
  8
0
 10
43.7227
 20
40.2145
 11
44.0729
 21
40.3532
  0
LINE
  8
0
 10
44.0729
 20
40.3532
 11
44.4379
 21
40.4469
  0
LINE
  8
0
 10
44.4379
 20
40.4469
 11
44.8116
 21
40.4941
  0
LINE
  8
0
 10
44.8116
 20
40.4941
 11
45.1884
 21
40.4941
  0
LINE
  8
0
 10
45.1884
 20
40.4941
 11
45.5621
 21
40.4469
  0
LINE
  8
0
 10
45.5621
 20
40.4469
 11
45.927
 21
40.3532
  0
LINE
  8
0
 10
45.927
 20
40.3532
 11
46.2773
 21
40.2145
  0
LINE
  8
0
 10
46.2773
 20
40.2145
 11
46.6075
 21
40.033
  0
LINE
  8
0
 10
46.6075
 20
40.033
 11
46.9123
 21
39.8115
  0
LINE
  8
0
 10
46.9123
 20
39.8115
 11
47.1869
 21
39.5536
  0
LINE
  8
0
 10
47.1869
 20
39.5536
 11
47.427
 21
39.2634
  0
LINE
  8
0
 10
47.427
 20
39.2634
 11
47.6289
 21
38.9453
  0
LINE
  8
0
 10
47.6289
 20
38.9453
 11
47.7893
 21
38.6044
  0
LINE
  8
0
 10
47.7893
 20
38.6044
 11
47.9057
 21
38.2461
  0
LINE
  8
0
 10
47.9057
 20
38.2461
 11
47.9763
 21
37.876
  0
LINE
  8
0
 10
47.9763
 20
37.876
 11
48
 21
37.5
  0
LINE
  8
0
 10
48
 20
37.5
 11
47.9763
 21
37.124
  0
LINE
  8
0
 10
47.9763
 20
37.124
 11
47.9057
 21
36.7539
  0
LINE
  8
0
 10
47.9057
 20
36.7539
 11
47.7893
 21
36.3956
  0
LINE
  8
0
 10
47.7893
 20
36.3956
 11
47.6289
 21
36.0547
  0
LINE
  8
0
 10
47.6289
 20
36.0547
 11
47.5942
 21
36
  0
LINE
  8
0
 10
47.5942
 20
36
 11
47.5942
 21
33
  0
LINE
  8
0
 10
47.5942
 20
33
 11
49.6794
 21
33
  0
LINE
  8
0
 10
49.6794
 20
33
 11
49.6794
 21
26.83
  0
LINE
  8
0
 10
49.6794
 20
26.83
 11
47.5942
 21
26.83
  0
LINE
  8
0
 10
47.5942
 20
26.83
 11
47.5942
 21
24
  0
LINE
  8
0
 10
47.5942
 20
24
 11
57.4058
 21
24
  0
LINE
  8
0
 10
57.4058
 20
24
 11
57.4058
 21
26.83
  0
LINE
  8
0
 10
57.4058
 20
26.83
 11
55.3206
 21
26.83
  0
LINE
  8
0
 10
55.3206
 20
26.83
 11
55.3206
 21
33
  0
LINE
  8
0
 10
55.3206
 20
33
 11
57.4058
 21
33
  0
LINE
  8
0
 10
57.4058
 20
33
 11
57.4058
 21
36
  0
LINE
  8
0
 10
57.4058
 20
36
 11
57.3711
 21
36.0547
  0
LINE
  8
0
 10
57.3711
 20
36.0547
 11
57.2107
 21
36.3956
  0
LINE
  8
0
 10
57.2107
 20
36.3956
 11
57.0942
 21
36.7539
  0
LINE
  8
0
 10
57.0942
 20
36.7539
 11
57.0237
 21
37.124
  0
LINE
  8
0
 10
57.0237
 20
37.124
 11
57
 21
37.5
  0
LINE
  8
0
 10
57
 20
37.5
 11
57.0237
 21
37.876
  0
LINE
  8
0
 10
57.0237
 20
37.876
 11
57.0942
 21
38.2461
  0
LINE
  8
0
 10
57.0942
 20
38.2461
 11
57.2107
 21
38.6044
  0
LINE
  8
0
 10
57.2107
 20
38.6044
 11
57.3711
 21
38.9453
  0
LINE
  8
0
 10
57.3711
 20
38.9453
 11
57.5729
 21
39.2634
  0
LINE
  8
0
 10
57.5729
 20
39.2634
 11
57.8131
 21
39.5536
  0
LINE
  8
0
 10
57.8131
 20
39.5536
 11
58.0877
 21
39.8115
  0
LINE
  8
0
 10
58.0877
 20
39.8115
 11
58.3925
 21
40.033
  0
LINE
  8
0
 10
58.3925
 20
40.033
 11
58.7227
 21
40.2145
  0
LINE
  8
0
 10
58.7227
 20
40.2145
 11
59.0729
 21
40.3532
  0
LINE
  8
0
 10
59.0729
 20
40.3532
 11
59.4379
 21
40.4469
  0
LINE
  8
0
 10
59.4379
 20
40.4469
 11
59.8116
 21
40.4941
  0
LINE
  8
0
 10
59.8116
 20
40.4941
 11
60.1884
 21
40.4941
  0
LINE
  8
0
 10
60.1884
 20
40.4941
 11
60.5621
 21
40.4469
  0
LINE
  8
0
 10
60.5621
 20
40.4469
 11
60.927
 21
40.3532
  0
LINE
  8
0
 10
60.927
 20
40.3532
 11
61.2773
 21
40.2145
  0
LINE
  8
0
 10
61.2773
 20
40.2145
 11
61.6075
 21
40.033
  0
LINE
  8
0
 10
61.6075
 20
40.033
 11
61.9123
 21
39.8115
  0
LINE
  8
0
 10
61.9123
 20
39.8115
 11
62.1869
 21
39.5536
  0
LINE
  8
0
 10
62.1869
 20
39.5536
 11
62.427
 21
39.2634
  0
LINE
  8
0
 10
62.427
 20
39.2634
 11
62.6289
 21
38.9453
  0
LINE
  8
0
 10
62.6289
 20
38.9453
 11
62.7893
 21
38.6044
  0
LINE
  8
0
 10
62.7893
 20
38.6044
 11
62.9057
 21
38.2461
  0
LINE
  8
0
 10
62.9057
 20
38.2461
 11
62.9763
 21
37.876
  0
LINE
  8
0
 10
62.9763
 20
37.876
 11
63
 21
37.5
  0
LINE
  8
0
 10
63
 20
37.5
 11
62.9763
 21
37.124
  0
LINE
  8
0
 10
62.9763
 20
37.124
 11
62.9057
 21
36.7539
  0
LINE
  8
0
 10
62.9057
 20
36.7539
 11
62.7893
 21
36.3956
  0
LINE
  8
0
 10
62.7893
 20
36.3956
 11
62.6289
 21
36.0547
  0
LINE
  8
0
 10
62.6289
 20
36.0547
 11
62.5942
 21
36
  0
LINE
  8
0
 10
62.5942
 20
36
 11
62.5942
 21
33
  0
LINE
  8
0
 10
62.5942
 20
33
 11
64.6794
 21
33
  0
LINE
  8
0
 10
64.6794
 20
33
 11
64.6794
 21
26.83
  0
LINE
  8
0
 10
64.6794
 20
26.83
 11
62.5942
 21
26.83
  0
LINE
  8
0
 10
62.5942
 20
26.83
 11
62.5942
 21
24
  0
LINE
  8
0
 10
62.5942
 20
24
 11
67
 21
24
  0
LINE
  8
0
 10
67
 20
24
 11
67
 21
39.5
  0
LINE
  8
0
 10
67
 20
39.5
 11
66.9606
 21
40.1267
  0
LINE
  8
0
 10
66.9606
 20
40.1267
 11
66.8429
 21
40.7434
  0
LINE
  8
0
 10
66.8429
 20
40.7434
 11
66.6489
 21
41.3406
  0
LINE
  8
0
 10
66.6489
 20
41.3406
 11
66.3815
 21
41.9088
  0
LINE
  8
0
 10
66.3815
 20
41.9088
 11
66.0451
 21
42.4389
  0
LINE
  8
0
 10
66.0451
 20
42.4389
 11
65.6448
 21
42.9227
  0
LINE
  8
0
 10
65.6448
 20
42.9227
 11
65.1871
 21
43.3526
  0
LINE
  8
0
 10
65.1871
 20
43.3526
 11
64.6791
 21
43.7216
  0
LINE
  8
0
 10
64.6791
 20
43.7216
 11
64.1289
 21
44.0241
  0
LINE
  8
0
 10
64.1289
 20
44.0241
 11
63.5451
 21
44.2553
  0
LINE
  8
0
 10
63.5451
 20
44.2553
 11
62.9369
 21
44.4114
  0
LINE
  8
0
 10
62.9369
 20
44.4114
 11
62.3139
 21
44.4901
  0
LINE
  8
0
 10
62.3139
 20
44.4901
 11
-62.3139
 21
44.4901
  0
LINE
  8
0
 10
-62.3139
 20
44.4901
 11
-62.9369
 21
44.4114
  0
LINE
  8
0
 10
-62.9369
 20
44.4114
 11
-63.5451
 21
44.2553
  0
LINE
  8
0
 10
-63.5451
 20
44.2553
 11
-64.1289
 21
44.0241
  0
LINE
  8
0
 10
-64.1289
 20
44.0241
 11
-64.6791
 21
43.7216
  0
LINE
  8
0
 10
-64.6791
 20
43.7216
 11
-65.1871
 21
43.3526
  0
LINE
  8
0
 10
-65.1871
 20
43.3526
 11
-65.6448
 21
42.9227
  0
LINE
  8
0
 10
-65.6448
 20
42.9227
 11
-66.0451
 21
42.4389
  0
LINE
  8
0
 10
-66.0451
 20
42.4389
 11
-66.3815
 21
41.9088
  0
LINE
  8
0
 10
-66.3815
 20
41.9088
 11
-66.6489
 21
41.3406
  0
LINE
  8
0
 10
-66.6489
 20
41.3406
 11
-66.8429
 21
40.7434
  0
LINE
  8
0
 10
-66.8429
 20
40.7434
 11
-66.9606
 21
40.1267
  0
LINE
  8
0
 10
-66.9606
 20
40.1267
 11
-67
 21
39.5
  0
LINE
  8
0
 10
-67
 20
39.5
 11
-67
 21
24
  0
LINE
  8
0
 10
-67
 20
24
 11
-62.5942
 21
24
  0
LINE
  8
0
 10
-62.5942
 20
24
 11
-62.5942
 21
26.83
  0
LINE
  8
0
 10
4.75166
 20
35.9133
 11
4.75166
 21
39.0867
  0
LINE
  8
0
 10
4.75166
 20
39.0867
 11
7.5
 21
40.6735
  0
LINE
  8
0
 10
7.5
 20
40.6735
 11
10.2483
 21
39.0867
  0
LINE
  8
0
 10
10.2483
 20
39.0867
 11
10.2483
 21
35.9133
  0
LINE
  8
0
 10
10.2483
 20
35.9133
 11
7.49998
 21
34.3265
  0
LINE
  8
0
 10
7.49998
 20
34.3265
 11
4.75166
 21
35.9133
  0
LINE
  8
0
 10
-25.2483
 20
35.9133
 11
-25.2483
 21
39.0867
  0
LINE
  8
0
 10
-25.2483
 20
39.0867
 11
-22.5
 21
40.6735
  0
LINE
  8
0
 10
-22.5
 20
40.6735
 11
-19.7517
 21
39.0867
  0
LINE
  8
0
 10
-19.7517
 20
39.0867
 11
-19.7517
 21
35.9133
  0
LINE
  8
0
 10
-19.7517
 20
35.9133
 11
-22.5
 21
34.3265
  0
LINE
  8
0
 10
-22.5
 20
34.3265
 11
-25.2483
 21
35.9133
  0
LINE
  8
0
 10
-55.2483
 20
35.9133
 11
-55.2483
 21
39.0867
  0
LINE
  8
0
 10
-55.2483
 20
39.0867
 11
-52.5
 21
40.6735
  0
LINE
  8
0
 10
-52.5
 20
40.6735
 11
-49.7517
 21
39.0867
  0
LINE
  8
0
 10
-49.7517
 20
39.0867
 11
-49.7517
 21
35.9133
  0
LINE
  8
0
 10
-49.7517
 20
35.9133
 11
-52.5
 21
34.3265
  0
LINE
  8
0
 10
-52.5
 20
34.3265
 11
-55.2483
 21
35.9133
  0
LINE
  8
0
 10
34.7517
 20
35.9133
 11
34.7517
 21
39.0867
  0
LINE
  8
0
 10
34.7517
 20
39.0867
 11
37.5
 21
40.6735
  0
LINE
  8
0
 10
37.5
 20
40.6735
 11
40.2483
 21
39.0867
  0
LINE
  8
0
 10
40.2483
 20
39.0867
 11
40.2483
 21
35.9133
  0
LINE
  8
0
 10
40.2483
 20
35.9133
 11
37.5
 21
34.3265
  0
LINE
  8
0
 10
37.5
 20
34.3265
 11
34.7517
 21
35.9133
  0
LINE
  8
0
 10
-40.2483
 20
35.9133
 11
-40.2483
 21
39.0867
  0
LINE
  8
0
 10
-40.2483
 20
39.0867
 11
-37.5
 21
40.6735
  0
LINE
  8
0
 10
-37.5
 20
40.6735
 11
-34.7517
 21
39.0867
  0
LINE
  8
0
 10
-34.7517
 20
39.0867
 11
-34.7517
 21
35.9133
  0
LINE
  8
0
 10
-34.7517
 20
35.9133
 11
-37.5
 21
34.3265
  0
LINE
  8
0
 10
-37.5
 20
34.3265
 11
-40.2483
 21
35.9133
  0
LINE
  8
0
 10
67
 20
15.5
 11
66.9606
 21
16.1267
  0
LINE
  8
0
 10
66.9606
 20
16.1267
 11
66.8429
 21
16.7434
  0
LINE
  8
0
 10
66.8429
 20
16.7434
 11
66.6489
 21
17.3406
  0
LINE
  8
0
 10
66.6489
 20
17.3406
 11
66.3815
 21
17.9088
  0
LINE
  8
0
 10
66.3815
 20
17.9088
 11
66.0451
 21
18.4389
  0
LINE
  8
0
 10
66.0451
 20
18.4389
 11
65.6448
 21
18.9227
  0
LINE
  8
0
 10
65.6448
 20
18.9227
 11
65.1871
 21
19.3526
  0
LINE
  8
0
 10
65.1871
 20
19.3526
 11
64.6791
 21
19.7216
  0
LINE
  8
0
 10
64.6791
 20
19.7216
 11
64.1289
 21
20.0241
  0
LINE
  8
0
 10
64.1289
 20
20.0241
 11
63.5451
 21
20.2553
  0
LINE
  8
0
 10
63.5451
 20
20.2553
 11
62.9369
 21
20.4114
  0
LINE
  8
0
 10
62.9369
 20
20.4114
 11
62.3139
 21
20.4901
  0
LINE
  8
0
 10
62.3139
 20
20.4901
 11
-62.3139
 21
20.4901
  0
LINE
  8
0
 10
-62.3139
 20
20.4901
 11
-62.9369
 21
20.4114
  0
LINE
  8
0
 10
-62.9369
 20
20.4114
 11
-63.5451
 21
20.2553
  0
LINE
  8
0
 10
-63.5451
 20
20.2553
 11
-64.1289
 21
20.0241
  0
LINE
  8
0
 10
-64.1289
 20
20.0241
 11
-64.6791
 21
19.7216
  0
LINE
  8
0
 10
-64.6791
 20
19.7216
 11
-65.1871
 21
19.3526
  0
LINE
  8
0
 10
-65.1871
 20
19.3526
 11
-65.6448
 21
18.9227
  0
LINE
  8
0
 10
-65.6448
 20
18.9227
 11
-66.0451
 21
18.4389
  0
LINE
  8
0
 10
-66.0451
 20
18.4389
 11
-66.3815
 21
17.9088
  0
LINE
  8
0
 10
-66.3815
 20
17.9088
 11
-66.6489
 21
17.3406
  0
LINE
  8
0
 10
-66.6489
 20
17.3406
 11
-66.8429
 21
16.7434
  0
LINE
  8
0
 10
-66.8429
 20
16.7434
 11
-66.9606
 21
16.1267
  0
LINE
  8
0
 10
-66.9606
 20
16.1267
 11
-67
 21
15.5
  0
LINE
  8
0
 10
-67
 20
15.5
 11
-67
 21
0
  0
LINE
  8
0
 10
-67
 20
0
 11
67
 21
0
  0
LINE
  8
0
 10
67
 20
0
 11
67
 21
15.5
  0
LINE
  8
0
 10
19.7517
 20
11.9133
 11
19.7517
 21
15.0867
  0
LINE
  8
0
 10
19.7517
 20
15.0867
 11
22.5
 21
16.6735
  0
LINE
  8
0
 10
22.5
 20
16.6735
 11
25.2483
 21
15.0867
  0
LINE
  8
0
 10
25.2483
 20
15.0867
 11
25.2483
 21
11.9133
  0
LINE
  8
0
 10
25.2483
 20
11.9133
 11
22.5
 21
10.3265
  0
LINE
  8
0
 10
22.5
 20
10.3265
 11
19.7517
 21
11.9133
  0
LINE
  8
0
 10
-10.2483
 20
11.9133
 11
-10.2483
 21
15.0867
  0
LINE
  8
0
 10
-10.2483
 20
15.0867
 11
-7.49998
 21
16.6735
  0
LINE
  8
0
 10
-7.49998
 20
16.6735
 11
-4.75166
 21
15.0867
  0
LINE
  8
0
 10
-4.75166
 20
15.0867
 11
-4.75166
 21
11.9133
  0
LINE
  8
0
 10
-4.75166
 20
11.9133
 11
-7.5
 21
10.3265
  0
LINE
  8
0
 10
-7.5
 20
10.3265
 11
-10.2483
 21
11.9133
  0
LINE
  8
0
 10
49.7517
 20
11.9133
 11
49.7517
 21
15.0867
  0
LINE
  8
0
 10
49.7517
 20
15.0867
 11
52.5
 21
16.6735
  0
LINE
  8
0
 10
52.5
 20
16.6735
 11
55.2483
 21
15.0867
  0
LINE
  8
0
 10
55.2483
 20
15.0867
 11
55.2483
 21
11.9133
  0
LINE
  8
0
 10
55.2483
 20
11.9133
 11
52.5
 21
10.3265
  0
LINE
  8
0
 10
52.5
 20
10.3265
 11
49.7517
 21
11.9133
  0
LINE
  8
0
 10
-15.1884
 20
10.5059
 11
-15.5621
 21
10.5531
  0
LINE
  8
0
 10
-15.5621
 20
10.5531
 11
-15.927
 21
10.6468
  0
LINE
  8
0
 10
-15.927
 20
10.6468
 11
-16.2773
 21
10.7855
  0
LINE
  8
0
 10
-16.2773
 20
10.7855
 11
-16.6075
 21
10.967
  0
LINE
  8
0
 10
-16.6075
 20
10.967
 11
-16.9123
 21
11.1884
  0
LINE
  8
0
 10
-16.9123
 20
11.1884
 11
-17.1869
 21
11.4464
  0
LINE
  8
0
 10
-17.1869
 20
11.4464
 11
-17.427
 21
11.7366
  0
LINE
  8
0
 10
-17.427
 20
11.7366
 11
-17.6289
 21
12.0547
  0
LINE
  8
0
 10
-17.6289
 20
12.0547
 11
-17.7893
 21
12.3956
  0
LINE
  8
0
 10
-17.7893
 20
12.3956
 11
-17.9057
 21
12.7539
  0
LINE
  8
0
 10
-17.9057
 20
12.7539
 11
-17.9763
 21
13.124
  0
LINE
  8
0
 10
-17.9763
 20
13.124
 11
-18
 21
13.5
  0
LINE
  8
0
 10
-18
 20
13.5
 11
-17.9763
 21
13.876
  0
LINE
  8
0
 10
-17.9763
 20
13.876
 11
-17.9057
 21
14.2461
  0
LINE
  8
0
 10
-17.9057
 20
14.2461
 11
-17.7893
 21
14.6044
  0
LINE
  8
0
 10
-17.7893
 20
14.6044
 11
-17.6289
 21
14.9453
  0
LINE
  8
0
 10
-17.6289
 20
14.9453
 11
-17.427
 21
15.2634
  0
LINE
  8
0
 10
-17.427
 20
15.2634
 11
-17.1869
 21
15.5536
  0
LINE
  8
0
 10
-17.1869
 20
15.5536
 11
-16.9123
 21
15.8115
  0
LINE
  8
0
 10
-16.9123
 20
15.8115
 11
-16.6075
 21
16.033
  0
LINE
  8
0
 10
-16.6075
 20
16.033
 11
-16.2773
 21
16.2145
  0
LINE
  8
0
 10
-16.2773
 20
16.2145
 11
-15.927
 21
16.3532
  0
LINE
  8
0
 10
-15.927
 20
16.3532
 11
-15.5621
 21
16.4469
  0
LINE
  8
0
 10
-15.5621
 20
16.4469
 11
-15.1884
 21
16.4941
  0
LINE
  8
0
 10
-15.1884
 20
16.4941
 11
-14.8116
 21
16.4941
  0
LINE
  8
0
 10
-14.8116
 20
16.4941
 11
-14.4379
 21
16.4469
  0
LINE
  8
0
 10
-14.4379
 20
16.4469
 11
-14.0729
 21
16.3532
  0
LINE
  8
0
 10
-14.0729
 20
16.3532
 11
-13.7227
 21
16.2145
  0
LINE
  8
0
 10
-13.7227
 20
16.2145
 11
-13.3925
 21
16.033
  0
LINE
  8
0
 10
-13.3925
 20
16.033
 11
-13.0877
 21
15.8115
  0
LINE
  8
0
 10
-13.0877
 20
15.8115
 11
-12.8131
 21
15.5536
  0
LINE
  8
0
 10
-12.8131
 20
15.5536
 11
-12.5729
 21
15.2634
  0
LINE
  8
0
 10
-12.5729
 20
15.2634
 11
-12.3711
 21
14.9453
  0
LINE
  8
0
 10
-12.3711
 20
14.9453
 11
-12.2107
 21
14.6044
  0
LINE
  8
0
 10
-12.2107
 20
14.6044
 11
-12.0942
 21
14.2461
  0
LINE
  8
0
 10
-12.0942
 20
14.2461
 11
-12.0237
 21
13.876
  0
LINE
  8
0
 10
-12.0237
 20
13.876
 11
-12
 21
13.5
  0
LINE
  8
0
 10
-12
 20
13.5
 11
-12.0237
 21
13.124
  0
LINE
  8
0
 10
-12.0237
 20
13.124
 11
-12.0942
 21
12.7539
  0
LINE
  8
0
 10
-12.0942
 20
12.7539
 11
-12.2107
 21
12.3956
  0
LINE
  8
0
 10
-12.2107
 20
12.3956
 11
-12.3711
 21
12.0547
  0
LINE
  8
0
 10
-12.3711
 20
12.0547
 11
-12.5729
 21
11.7366
  0
LINE
  8
0
 10
-12.5729
 20
11.7366
 11
-12.8131
 21
11.4464
  0
LINE
  8
0
 10
-12.8131
 20
11.4464
 11
-13.0877
 21
11.1884
  0
LINE
  8
0
 10
-13.0877
 20
11.1884
 11
-13.3925
 21
10.967
  0
LINE
  8
0
 10
-13.3925
 20
10.967
 11
-13.7227
 21
10.7855
  0
LINE
  8
0
 10
-13.7227
 20
10.7855
 11
-14.0729
 21
10.6468
  0
LINE
  8
0
 10
-14.0729
 20
10.6468
 11
-14.4379
 21
10.5531
  0
LINE
  8
0
 10
-14.4379
 20
10.5531
 11
-14.8116
 21
10.5059
  0
LINE
  8
0
 10
-14.8116
 20
10.5059
 11
-15.1884
 21
10.5059
  0
LINE
  8
0
 10
29.8116
 20
10.5059
 11
29.4379
 21
10.5531
  0
LINE
  8
0
 10
29.4379
 20
10.5531
 11
29.0729
 21
10.6468
  0
LINE
  8
0
 10
29.0729
 20
10.6468
 11
28.7227
 21
10.7855
  0
LINE
  8
0
 10
28.7227
 20
10.7855
 11
28.3925
 21
10.967
  0
LINE
  8
0
 10
28.3925
 20
10.967
 11
28.0877
 21
11.1884
  0
LINE
  8
0
 10
28.0877
 20
11.1884
 11
27.8131
 21
11.4464
  0
LINE
  8
0
 10
27.8131
 20
11.4464
 11
27.5729
 21
11.7366
  0
LINE
  8
0
 10
27.5729
 20
11.7366
 11
27.3711
 21
12.0547
  0
LINE
  8
0
 10
27.3711
 20
12.0547
 11
27.2107
 21
12.3956
  0
LINE
  8
0
 10
27.2107
 20
12.3956
 11
27.0942
 21
12.7539
  0
LINE
  8
0
 10
27.0942
 20
12.7539
 11
27.0237
 21
13.124
  0
LINE
  8
0
 10
27.0237
 20
13.124
 11
27
 21
13.5
  0
LINE
  8
0
 10
27
 20
13.5
 11
27.0237
 21
13.876
  0
LINE
  8
0
 10
27.0237
 20
13.876
 11
27.0942
 21
14.2461
  0
LINE
  8
0
 10
27.0942
 20
14.2461
 11
27.2107
 21
14.6044
  0
LINE
  8
0
 10
27.2107
 20
14.6044
 11
27.3711
 21
14.9453
  0
LINE
  8
0
 10
27.3711
 20
14.9453
 11
27.5729
 21
15.2634
  0
LINE
  8
0
 10
27.5729
 20
15.2634
 11
27.8131
 21
15.5536
  0
LINE
  8
0
 10
27.8131
 20
15.5536
 11
28.0877
 21
15.8115
  0
LINE
  8
0
 10
28.0877
 20
15.8115
 11
28.3925
 21
16.033
  0
LINE
  8
0
 10
28.3925
 20
16.033
 11
28.7227
 21
16.2145
  0
LINE
  8
0
 10
28.7227
 20
16.2145
 11
29.0729
 21
16.3532
  0
LINE
  8
0
 10
29.0729
 20
16.3532
 11
29.4379
 21
16.4469
  0
LINE
  8
0
 10
29.4379
 20
16.4469
 11
29.8116
 21
16.4941
  0
LINE
  8
0
 10
29.8116
 20
16.4941
 11
30.1884
 21
16.4941
  0
LINE
  8
0
 10
30.1884
 20
16.4941
 11
30.5621
 21
16.4469
  0
LINE
  8
0
 10
30.5621
 20
16.4469
 11
30.927
 21
16.3532
  0
LINE
  8
0
 10
30.927
 20
16.3532
 11
31.2773
 21
16.2145
  0
LINE
  8
0
 10
31.2773
 20
16.2145
 11
31.6075
 21
16.033
  0
LINE
  8
0
 10
31.6075
 20
16.033
 11
31.9123
 21
15.8115
  0
LINE
  8
0
 10
31.9123
 20
15.8115
 11
32.1869
 21
15.5536
  0
LINE
  8
0
 10
32.1869
 20
15.5536
 11
32.427
 21
15.2634
  0
LINE
  8
0
 10
32.427
 20
15.2634
 11
32.6289
 21
14.9453
  0
LINE
  8
0
 10
32.6289
 20
14.9453
 11
32.7893
 21
14.6044
  0
LINE
  8
0
 10
32.7893
 20
14.6044
 11
32.9057
 21
14.2461
  0
LINE
  8
0
 10
32.9057
 20
14.2461
 11
32.9763
 21
13.876
  0
LINE
  8
0
 10
32.9763
 20
13.876
 11
33
 21
13.5
  0
LINE
  8
0
 10
33
 20
13.5
 11
32.9763
 21
13.124
  0
LINE
  8
0
 10
32.9763
 20
13.124
 11
32.9057
 21
12.7539
  0
LINE
  8
0
 10
32.9057
 20
12.7539
 11
32.7893
 21
12.3956
  0
LINE
  8
0
 10
32.7893
 20
12.3956
 11
32.6289
 21
12.0547
  0
LINE
  8
0
 10
32.6289
 20
12.0547
 11
32.427
 21
11.7366
  0
LINE
  8
0
 10
32.427
 20
11.7366
 11
32.1869
 21
11.4464
  0
LINE
  8
0
 10
32.1869
 20
11.4464
 11
31.9123
 21
11.1884
  0
LINE
  8
0
 10
31.9123
 20
11.1884
 11
31.6075
 21
10.967
  0
LINE
  8
0
 10
31.6075
 20
10.967
 11
31.2773
 21
10.7855
  0
LINE
  8
0
 10
31.2773
 20
10.7855
 11
30.927
 21
10.6468
  0
LINE
  8
0
 10
30.927
 20
10.6468
 11
30.5621
 21
10.5531
  0
LINE
  8
0
 10
30.5621
 20
10.5531
 11
30.1884
 21
10.5059
  0
LINE
  8
0
 10
30.1884
 20
10.5059
 11
29.8116
 21
10.5059
  0
LINE
  8
0
 10
59.8116
 20
10.5059
 11
59.4379
 21
10.5531
  0
LINE
  8
0
 10
59.4379
 20
10.5531
 11
59.0729
 21
10.6468
  0
LINE
  8
0
 10
59.0729
 20
10.6468
 11
58.7227
 21
10.7855
  0
LINE
  8
0
 10
58.7227
 20
10.7855
 11
58.3925
 21
10.967
  0
LINE
  8
0
 10
58.3925
 20
10.967
 11
58.0877
 21
11.1884
  0
LINE
  8
0
 10
58.0877
 20
11.1884
 11
57.8131
 21
11.4464
  0
LINE
  8
0
 10
57.8131
 20
11.4464
 11
57.5729
 21
11.7366
  0
LINE
  8
0
 10
57.5729
 20
11.7366
 11
57.3711
 21
12.0547
  0
LINE
  8
0
 10
57.3711
 20
12.0547
 11
57.2107
 21
12.3956
  0
LINE
  8
0
 10
57.2107
 20
12.3956
 11
57.0942
 21
12.7539
  0
LINE
  8
0
 10
57.0942
 20
12.7539
 11
57.0237
 21
13.124
  0
LINE
  8
0
 10
57.0237
 20
13.124
 11
57
 21
13.5
  0
LINE
  8
0
 10
57
 20
13.5
 11
57.0237
 21
13.876
  0
LINE
  8
0
 10
57.0237
 20
13.876
 11
57.0942
 21
14.2461
  0
LINE
  8
0
 10
57.0942
 20
14.2461
 11
57.2107
 21
14.6044
  0
LINE
  8
0
 10
57.2107
 20
14.6044
 11
57.3711
 21
14.9453
  0
LINE
  8
0
 10
57.3711
 20
14.9453
 11
57.5729
 21
15.2634
  0
LINE
  8
0
 10
57.5729
 20
15.2634
 11
57.8131
 21
15.5536
  0
LINE
  8
0
 10
57.8131
 20
15.5536
 11
58.0877
 21
15.8115
  0
LINE
  8
0
 10
58.0877
 20
15.8115
 11
58.3925
 21
16.033
  0
LINE
  8
0
 10
58.3925
 20
16.033
 11
58.7227
 21
16.2145
  0
LINE
  8
0
 10
58.7227
 20
16.2145
 11
59.0729
 21
16.3532
  0
LINE
  8
0
 10
59.0729
 20
16.3532
 11
59.4379
 21
16.4469
  0
LINE
  8
0
 10
59.4379
 20
16.4469
 11
59.8116
 21
16.4941
  0
LINE
  8
0
 10
59.8116
 20
16.4941
 11
60.1884
 21
16.4941
  0
LINE
  8
0
 10
60.1884
 20
16.4941
 11
60.5621
 21
16.4469
  0
LINE
  8
0
 10
60.5621
 20
16.4469
 11
60.927
 21
16.3532
  0
LINE
  8
0
 10
60.927
 20
16.3532
 11
61.2773
 21
16.2145
  0
LINE
  8
0
 10
61.2773
 20
16.2145
 11
61.6075
 21
16.033
  0
LINE
  8
0
 10
61.6075
 20
16.033
 11
61.9123
 21
15.8115
  0
LINE
  8
0
 10
61.9123
 20
15.8115
 11
62.1869
 21
15.5536
  0
LINE
  8
0
 10
62.1869
 20
15.5536
 11
62.427
 21
15.2634
  0
LINE
  8
0
 10
62.427
 20
15.2634
 11
62.6289
 21
14.9453
  0
LINE
  8
0
 10
62.6289
 20
14.9453
 11
62.7893
 21
14.6044
  0
LINE
  8
0
 10
62.7893
 20
14.6044
 11
62.9057
 21
14.2461
  0
LINE
  8
0
 10
62.9057
 20
14.2461
 11
62.9763
 21
13.876
  0
LINE
  8
0
 10
62.9763
 20
13.876
 11
63
 21
13.5
  0
LINE
  8
0
 10
63
 20
13.5
 11
62.9763
 21
13.124
  0
LINE
  8
0
 10
62.9763
 20
13.124
 11
62.9057
 21
12.7539
  0
LINE
  8
0
 10
62.9057
 20
12.7539
 11
62.7893
 21
12.3956
  0
LINE
  8
0
 10
62.7893
 20
12.3956
 11
62.6289
 21
12.0547
  0
LINE
  8
0
 10
62.6289
 20
12.0547
 11
62.427
 21
11.7366
  0
LINE
  8
0
 10
62.427
 20
11.7366
 11
62.1869
 21
11.4464
  0
LINE
  8
0
 10
62.1869
 20
11.4464
 11
61.9123
 21
11.1884
  0
LINE
  8
0
 10
61.9123
 20
11.1884
 11
61.6075
 21
10.967
  0
LINE
  8
0
 10
61.6075
 20
10.967
 11
61.2773
 21
10.7855
  0
LINE
  8
0
 10
61.2773
 20
10.7855
 11
60.927
 21
10.6468
  0
LINE
  8
0
 10
60.927
 20
10.6468
 11
60.5621
 21
10.5531
  0
LINE
  8
0
 10
60.5621
 20
10.5531
 11
60.1884
 21
10.5059
  0
LINE
  8
0
 10
60.1884
 20
10.5059
 11
59.8116
 21
10.5059
  0
LINE
  8
0
 10
-60.1884
 20
10.5059
 11
-60.5621
 21
10.5531
  0
LINE
  8
0
 10
-60.5621
 20
10.5531
 11
-60.927
 21
10.6468
  0
LINE
  8
0
 10
-60.927
 20
10.6468
 11
-61.2773
 21
10.7855
  0
LINE
  8
0
 10
-61.2773
 20
10.7855
 11
-61.6075
 21
10.967
  0
LINE
  8
0
 10
-61.6075
 20
10.967
 11
-61.9123
 21
11.1884
  0
LINE
  8
0
 10
-61.9123
 20
11.1884
 11
-62.1869
 21
11.4464
  0
LINE
  8
0
 10
-62.1869
 20
11.4464
 11
-62.427
 21
11.7366
  0
LINE
  8
0
 10
-62.427
 20
11.7366
 11
-62.6289
 21
12.0547
  0
LINE
  8
0
 10
-62.6289
 20
12.0547
 11
-62.7893
 21
12.3956
  0
LINE
  8
0
 10
-62.7893
 20
12.3956
 11
-62.9057
 21
12.7539
  0
LINE
  8
0
 10
-62.9057
 20
12.7539
 11
-62.9763
 21
13.124
  0
LINE
  8
0
 10
-62.9763
 20
13.124
 11
-63
 21
13.5
  0
LINE
  8
0
 10
-63
 20
13.5
 11
-62.9763
 21
13.876
  0
LINE
  8
0
 10
-62.9763
 20
13.876
 11
-62.9057
 21
14.2461
  0
LINE
  8
0
 10
-62.9057
 20
14.2461
 11
-62.7893
 21
14.6044
  0
LINE
  8
0
 10
-62.7893
 20
14.6044
 11
-62.6289
 21
14.9453
  0
LINE
  8
0
 10
-62.6289
 20
14.9453
 11
-62.427
 21
15.2634
  0
LINE
  8
0
 10
-62.427
 20
15.2634
 11
-62.1869
 21
15.5536
  0
LINE
  8
0
 10
-62.1869
 20
15.5536
 11
-61.9123
 21
15.8115
  0
LINE
  8
0
 10
-61.9123
 20
15.8115
 11
-61.6075
 21
16.033
  0
LINE
  8
0
 10
-61.6075
 20
16.033
 11
-61.2773
 21
16.2145
  0
LINE
  8
0
 10
-61.2773
 20
16.2145
 11
-60.927
 21
16.3532
  0
LINE
  8
0
 10
-60.927
 20
16.3532
 11
-60.5621
 21
16.4469
  0
LINE
  8
0
 10
-60.5621
 20
16.4469
 11
-60.1884
 21
16.4941
  0
LINE
  8
0
 10
-60.1884
 20
16.4941
 11
-59.8116
 21
16.4941
  0
LINE
  8
0
 10
-59.8116
 20
16.4941
 11
-59.4379
 21
16.4469
  0
LINE
  8
0
 10
-59.4379
 20
16.4469
 11
-59.0729
 21
16.3532
  0
LINE
  8
0
 10
-59.0729
 20
16.3532
 11
-58.7227
 21
16.2145
  0
LINE
  8
0
 10
-58.7227
 20
16.2145
 11
-58.3925
 21
16.033
  0
LINE
  8
0
 10
-58.3925
 20
16.033
 11
-58.0877
 21
15.8115
  0
LINE
  8
0
 10
-58.0877
 20
15.8115
 11
-57.8131
 21
15.5536
  0
LINE
  8
0
 10
-57.8131
 20
15.5536
 11
-57.5729
 21
15.2634
  0
LINE
  8
0
 10
-57.5729
 20
15.2634
 11
-57.3711
 21
14.9453
  0
LINE
  8
0
 10
-57.3711
 20
14.9453
 11
-57.2107
 21
14.6044
  0
LINE
  8
0
 10
-57.2107
 20
14.6044
 11
-57.0942
 21
14.2461
  0
LINE
  8
0
 10
-57.0942
 20
14.2461
 11
-57.0237
 21
13.876
  0
LINE
  8
0
 10
-57.0237
 20
13.876
 11
-57
 21
13.5
  0
LINE
  8
0
 10
-57
 20
13.5
 11
-57.0237
 21
13.124
  0
LINE
  8
0
 10
-57.0237
 20
13.124
 11
-57.0942
 21
12.7539
  0
LINE
  8
0
 10
-57.0942
 20
12.7539
 11
-57.2107
 21
12.3956
  0
LINE
  8
0
 10
-57.2107
 20
12.3956
 11
-57.3711
 21
12.0547
  0
LINE
  8
0
 10
-57.3711
 20
12.0547
 11
-57.5729
 21
11.7366
  0
LINE
  8
0
 10
-57.5729
 20
11.7366
 11
-57.8131
 21
11.4464
  0
LINE
  8
0
 10
-57.8131
 20
11.4464
 11
-58.0877
 21
11.1884
  0
LINE
  8
0
 10
-58.0877
 20
11.1884
 11
-58.3925
 21
10.967
  0
LINE
  8
0
 10
-58.3925
 20
10.967
 11
-58.7227
 21
10.7855
  0
LINE
  8
0
 10
-58.7227
 20
10.7855
 11
-59.0729
 21
10.6468
  0
LINE
  8
0
 10
-59.0729
 20
10.6468
 11
-59.4379
 21
10.5531
  0
LINE
  8
0
 10
-59.4379
 20
10.5531
 11
-59.8116
 21
10.5059
  0
LINE
  8
0
 10
-59.8116
 20
10.5059
 11
-60.1884
 21
10.5059
  0
LINE
  8
0
 10
-0.18837
 20
10.5059
 11
-0.562134
 21
10.5531
  0
LINE
  8
0
 10
-0.562134
 20
10.5531
 11
-0.927048
 21
10.6468
  0
LINE
  8
0
 10
-0.927048
 20
10.6468
 11
-1.27733
 21
10.7855
  0
LINE
  8
0
 10
-1.27733
 20
10.7855
 11
-1.60747
 21
10.967
  0
LINE
  8
0
 10
-1.60747
 20
10.967
 11
-1.91226
 21
11.1884
  0
LINE
  8
0
 10
-1.91226
 20
11.1884
 11
-2.1869
 21
11.4464
  0
LINE
  8
0
 10
-2.1869
 20
11.4464
 11
-2.42705
 21
11.7366
  0
LINE
  8
0
 10
-2.42705
 20
11.7366
 11
-2.62891
 21
12.0547
  0
LINE
  8
0
 10
-2.62891
 20
12.0547
 11
-2.78932
 21
12.3956
  0
LINE
  8
0
 10
-2.78932
 20
12.3956
 11
-2.90575
 21
12.7539
  0
LINE
  8
0
 10
-2.90575
 20
12.7539
 11
-2.97633
 21
13.124
  0
LINE
  8
0
 10
-2.97633
 20
13.124
 11
-3
 21
13.5
  0
LINE
  8
0
 10
-3
 20
13.5
 11
-2.97633
 21
13.876
  0
LINE
  8
0
 10
-2.97633
 20
13.876
 11
-2.90575
 21
14.2461
  0
LINE
  8
0
 10
-2.90575
 20
14.2461
 11
-2.78932
 21
14.6044
  0
LINE
  8
0
 10
-2.78932
 20
14.6044
 11
-2.62891
 21
14.9453
  0
LINE
  8
0
 10
-2.62891
 20
14.9453
 11
-2.42705
 21
15.2634
  0
LINE
  8
0
 10
-2.42705
 20
15.2634
 11
-2.1869
 21
15.5536
  0
LINE
  8
0
 10
-2.1869
 20
15.5536
 11
-1.91226
 21
15.8115
  0
LINE
  8
0
 10
-1.91226
 20
15.8115
 11
-1.60747
 21
16.033
  0
LINE
  8
0
 10
-1.60747
 20
16.033
 11
-1.27733
 21
16.2145
  0
LINE
  8
0
 10
-1.27733
 20
16.2145
 11
-0.927048
 21
16.3532
  0
LINE
  8
0
 10
-0.927048
 20
16.3532
 11
-0.562134
 21
16.4469
  0
LINE
  8
0
 10
-0.562134
 20
16.4469
 11
-0.18837
 21
16.4941
  0
LINE
  8
0
 10
-0.18837
 20
16.4941
 11
0.18837
 21
16.4941
  0
LINE
  8
0
 10
0.18837
 20
16.4941
 11
0.562134
 21
16.4469
  0
LINE
  8
0
 10
0.562134
 20
16.4469
 11
0.927048
 21
16.3532
  0
LINE
  8
0
 10
0.927048
 20
16.3532
 11
1.27733
 21
16.2145
  0
LINE
  8
0
 10
1.27733
 20
16.2145
 11
1.60747
 21
16.033
  0
LINE
  8
0
 10
1.60747
 20
16.033
 11
1.91226
 21
15.8115
  0
LINE
  8
0
 10
1.91226
 20
15.8115
 11
2.1869
 21
15.5536
  0
LINE
  8
0
 10
2.1869
 20
15.5536
 11
2.42705
 21
15.2634
  0
LINE
  8
0
 10
2.42705
 20
15.2634
 11
2.62891
 21
14.9453
  0
LINE
  8
0
 10
2.62891
 20
14.9453
 11
2.78932
 21
14.6044
  0
LINE
  8
0
 10
2.78932
 20
14.6044
 11
2.90575
 21
14.2461
  0
LINE
  8
0
 10
2.90575
 20
14.2461
 11
2.97633
 21
13.876
  0
LINE
  8
0
 10
2.97633
 20
13.876
 11
3
 21
13.5
  0
LINE
  8
0
 10
3
 20
13.5
 11
2.97633
 21
13.124
  0
LINE
  8
0
 10
2.97633
 20
13.124
 11
2.90575
 21
12.7539
  0
LINE
  8
0
 10
2.90575
 20
12.7539
 11
2.78932
 21
12.3956
  0
LINE
  8
0
 10
2.78932
 20
12.3956
 11
2.62891
 21
12.0547
  0
LINE
  8
0
 10
2.62891
 20
12.0547
 11
2.42705
 21
11.7366
  0
LINE
  8
0
 10
2.42705
 20
11.7366
 11
2.1869
 21
11.4464
  0
LINE
  8
0
 10
2.1869
 20
11.4464
 11
1.91226
 21
11.1884
  0
LINE
  8
0
 10
1.91226
 20
11.1884
 11
1.60747
 21
10.967
  0
LINE
  8
0
 10
1.60747
 20
10.967
 11
1.27733
 21
10.7855
  0
LINE
  8
0
 10
1.27733
 20
10.7855
 11
0.927048
 21
10.6468
  0
LINE
  8
0
 10
0.927048
 20
10.6468
 11
0.562134
 21
10.5531
  0
LINE
  8
0
 10
0.562134
 20
10.5531
 11
0.18837
 21
10.5059
  0
LINE
  8
0
 10
0.18837
 20
10.5059
 11
-0.18837
 21
10.5059
  0
LINE
  8
0
 10
-45.1884
 20
10.5059
 11
-45.5621
 21
10.5531
  0
LINE
  8
0
 10
-45.5621
 20
10.5531
 11
-45.927
 21
10.6468
  0
LINE
  8
0
 10
-45.927
 20
10.6468
 11
-46.2773
 21
10.7855
  0
LINE
  8
0
 10
-46.2773
 20
10.7855
 11
-46.6075
 21
10.967
  0
LINE
  8
0
 10
-46.6075
 20
10.967
 11
-46.9123
 21
11.1884
  0
LINE
  8
0
 10
-46.9123
 20
11.1884
 11
-47.1869
 21
11.4464
  0
LINE
  8
0
 10
-47.1869
 20
11.4464
 11
-47.427
 21
11.7366
  0
LINE
  8
0
 10
-47.427
 20
11.7366
 11
-47.6289
 21
12.0547
  0
LINE
  8
0
 10
-47.6289
 20
12.0547
 11
-47.7893
 21
12.3956
  0
LINE
  8
0
 10
-47.7893
 20
12.3956
 11
-47.9057
 21
12.7539
  0
LINE
  8
0
 10
-47.9057
 20
12.7539
 11
-47.9763
 21
13.124
  0
LINE
  8
0
 10
-47.9763
 20
13.124
 11
-48
 21
13.5
  0
LINE
  8
0
 10
-48
 20
13.5
 11
-47.9763
 21
13.876
  0
LINE
  8
0
 10
-47.9763
 20
13.876
 11
-47.9057
 21
14.2461
  0
LINE
  8
0
 10
-47.9057
 20
14.2461
 11
-47.7893
 21
14.6044
  0
LINE
  8
0
 10
-47.7893
 20
14.6044
 11
-47.6289
 21
14.9453
  0
LINE
  8
0
 10
-47.6289
 20
14.9453
 11
-47.427
 21
15.2634
  0
LINE
  8
0
 10
-47.427
 20
15.2634
 11
-47.1869
 21
15.5536
  0
LINE
  8
0
 10
-47.1869
 20
15.5536
 11
-46.9123
 21
15.8115
  0
LINE
  8
0
 10
-46.9123
 20
15.8115
 11
-46.6075
 21
16.033
  0
LINE
  8
0
 10
-46.6075
 20
16.033
 11
-46.2773
 21
16.2145
  0
LINE
  8
0
 10
-46.2773
 20
16.2145
 11
-45.927
 21
16.3532
  0
LINE
  8
0
 10
-45.927
 20
16.3532
 11
-45.5621
 21
16.4469
  0
LINE
  8
0
 10
-45.5621
 20
16.4469
 11
-45.1884
 21
16.4941
  0
LINE
  8
0
 10
-45.1884
 20
16.4941
 11
-44.8116
 21
16.4941
  0
LINE
  8
0
 10
-44.8116
 20
16.4941
 11
-44.4379
 21
16.4469
  0
LINE
  8
0
 10
-44.4379
 20
16.4469
 11
-44.0729
 21
16.3532
  0
LINE
  8
0
 10
-44.0729
 20
16.3532
 11
-43.7227
 21
16.2145
  0
LINE
  8
0
 10
-43.7227
 20
16.2145
 11
-43.3925
 21
16.033
  0
LINE
  8
0
 10
-43.3925
 20
16.033
 11
-43.0877
 21
15.8115
  0
LINE
  8
0
 10
-43.0877
 20
15.8115
 11
-42.8131
 21
15.5536
  0
LINE
  8
0
 10
-42.8131
 20
15.5536
 11
-42.5729
 21
15.2634
  0
LINE
  8
0
 10
-42.5729
 20
15.2634
 11
-42.3711
 21
14.9453
  0
LINE
  8
0
 10
-42.3711
 20
14.9453
 11
-42.2107
 21
14.6044
  0
LINE
  8
0
 10
-42.2107
 20
14.6044
 11
-42.0942
 21
14.2461
  0
LINE
  8
0
 10
-42.0942
 20
14.2461
 11
-42.0237
 21
13.876
  0
LINE
  8
0
 10
-42.0237
 20
13.876
 11
-42
 21
13.5
  0
LINE
  8
0
 10
-42
 20
13.5
 11
-42.0237
 21
13.124
  0
LINE
  8
0
 10
-42.0237
 20
13.124
 11
-42.0942
 21
12.7539
  0
LINE
  8
0
 10
-42.0942
 20
12.7539
 11
-42.2107
 21
12.3956
  0
LINE
  8
0
 10
-42.2107
 20
12.3956
 11
-42.3711
 21
12.0547
  0
LINE
  8
0
 10
-42.3711
 20
12.0547
 11
-42.5729
 21
11.7366
  0
LINE
  8
0
 10
-42.5729
 20
11.7366
 11
-42.8131
 21
11.4464
  0
LINE
  8
0
 10
-42.8131
 20
11.4464
 11
-43.0877
 21
11.1884
  0
LINE
  8
0
 10
-43.0877
 20
11.1884
 11
-43.3925
 21
10.967
  0
LINE
  8
0
 10
-43.3925
 20
10.967
 11
-43.7227
 21
10.7855
  0
LINE
  8
0
 10
-43.7227
 20
10.7855
 11
-44.0729
 21
10.6468
  0
LINE
  8
0
 10
-44.0729
 20
10.6468
 11
-44.4379
 21
10.5531
  0
LINE
  8
0
 10
-44.4379
 20
10.5531
 11
-44.8116
 21
10.5059
  0
LINE
  8
0
 10
-44.8116
 20
10.5059
 11
-45.1884
 21
10.5059
  0
LINE
  8
0
 10
44.8116
 20
10.5059
 11
44.4379
 21
10.5531
  0
LINE
  8
0
 10
44.4379
 20
10.5531
 11
44.0729
 21
10.6468
  0
LINE
  8
0
 10
44.0729
 20
10.6468
 11
43.7227
 21
10.7855
  0
LINE
  8
0
 10
43.7227
 20
10.7855
 11
43.3925
 21
10.967
  0
LINE
  8
0
 10
43.3925
 20
10.967
 11
43.0877
 21
11.1884
  0
LINE
  8
0
 10
43.0877
 20
11.1884
 11
42.8131
 21
11.4464
  0
LINE
  8
0
 10
42.8131
 20
11.4464
 11
42.5729
 21
11.7366
  0
LINE
  8
0
 10
42.5729
 20
11.7366
 11
42.3711
 21
12.0547
  0
LINE
  8
0
 10
42.3711
 20
12.0547
 11
42.2107
 21
12.3956
  0
LINE
  8
0
 10
42.2107
 20
12.3956
 11
42.0942
 21
12.7539
  0
LINE
  8
0
 10
42.0942
 20
12.7539
 11
42.0237
 21
13.124
  0
LINE
  8
0
 10
42.0237
 20
13.124
 11
42
 21
13.5
  0
LINE
  8
0
 10
42
 20
13.5
 11
42.0237
 21
13.876
  0
LINE
  8
0
 10
42.0237
 20
13.876
 11
42.0942
 21
14.2461
  0
LINE
  8
0
 10
42.0942
 20
14.2461
 11
42.2107
 21
14.6044
  0
LINE
  8
0
 10
42.2107
 20
14.6044
 11
42.3711
 21
14.9453
  0
LINE
  8
0
 10
42.3711
 20
14.9453
 11
42.5729
 21
15.2634
  0
LINE
  8
0
 10
42.5729
 20
15.2634
 11
42.8131
 21
15.5536
  0
LINE
  8
0
 10
42.8131
 20
15.5536
 11
43.0877
 21
15.8115
  0
LINE
  8
0
 10
43.0877
 20
15.8115
 11
43.3925
 21
16.033
  0
LINE
  8
0
 10
43.3925
 20
16.033
 11
43.7227
 21
16.2145
  0
LINE
  8
0
 10
43.7227
 20
16.2145
 11
44.0729
 21
16.3532
  0
LINE
  8
0
 10
44.0729
 20
16.3532
 11
44.4379
 21
16.4469
  0
LINE
  8
0
 10
44.4379
 20
16.4469
 11
44.8116
 21
16.4941
  0
LINE
  8
0
 10
44.8116
 20
16.4941
 11
45.1884
 21
16.4941
  0
LINE
  8
0
 10
45.1884
 20
16.4941
 11
45.5621
 21
16.4469
  0
LINE
  8
0
 10
45.5621
 20
16.4469
 11
45.927
 21
16.3532
  0
LINE
  8
0
 10
45.927
 20
16.3532
 11
46.2773
 21
16.2145
  0
LINE
  8
0
 10
46.2773
 20
16.2145
 11
46.6075
 21
16.033
  0
LINE
  8
0
 10
46.6075
 20
16.033
 11
46.9123
 21
15.8115
  0
LINE
  8
0
 10
46.9123
 20
15.8115
 11
47.1869
 21
15.5536
  0
LINE
  8
0
 10
47.1869
 20
15.5536
 11
47.427
 21
15.2634
  0
LINE
  8
0
 10
47.427
 20
15.2634
 11
47.6289
 21
14.9453
  0
LINE
  8
0
 10
47.6289
 20
14.9453
 11
47.7893
 21
14.6044
  0
LINE
  8
0
 10
47.7893
 20
14.6044
 11
47.9057
 21
14.2461
  0
LINE
  8
0
 10
47.9057
 20
14.2461
 11
47.9763
 21
13.876
  0
LINE
  8
0
 10
47.9763
 20
13.876
 11
48
 21
13.5
  0
LINE
  8
0
 10
48
 20
13.5
 11
47.9763
 21
13.124
  0
LINE
  8
0
 10
47.9763
 20
13.124
 11
47.9057
 21
12.7539
  0
LINE
  8
0
 10
47.9057
 20
12.7539
 11
47.7893
 21
12.3956
  0
LINE
  8
0
 10
47.7893
 20
12.3956
 11
47.6289
 21
12.0547
  0
LINE
  8
0
 10
47.6289
 20
12.0547
 11
47.427
 21
11.7366
  0
LINE
  8
0
 10
47.427
 20
11.7366
 11
47.1869
 21
11.4464
  0
LINE
  8
0
 10
47.1869
 20
11.4464
 11
46.9123
 21
11.1884
  0
LINE
  8
0
 10
46.9123
 20
11.1884
 11
46.6075
 21
10.967
  0
LINE
  8
0
 10
46.6075
 20
10.967
 11
46.2773
 21
10.7855
  0
LINE
  8
0
 10
46.2773
 20
10.7855
 11
45.927
 21
10.6468
  0
LINE
  8
0
 10
45.927
 20
10.6468
 11
45.5621
 21
10.5531
  0
LINE
  8
0
 10
45.5621
 20
10.5531
 11
45.1884
 21
10.5059
  0
LINE
  8
0
 10
45.1884
 20
10.5059
 11
44.8116
 21
10.5059
  0
LINE
  8
0
 10
-30.1884
 20
10.5059
 11
-30.5621
 21
10.5531
  0
LINE
  8
0
 10
-30.5621
 20
10.5531
 11
-30.927
 21
10.6468
  0
LINE
  8
0
 10
-30.927
 20
10.6468
 11
-31.2773
 21
10.7855
  0
LINE
  8
0
 10
-31.2773
 20
10.7855
 11
-31.6075
 21
10.967
  0
LINE
  8
0
 10
-31.6075
 20
10.967
 11
-31.9123
 21
11.1884
  0
LINE
  8
0
 10
-31.9123
 20
11.1884
 11
-32.1869
 21
11.4464
  0
LINE
  8
0
 10
-32.1869
 20
11.4464
 11
-32.427
 21
11.7366
  0
LINE
  8
0
 10
-32.427
 20
11.7366
 11
-32.6289
 21
12.0547
  0
LINE
  8
0
 10
-32.6289
 20
12.0547
 11
-32.7893
 21
12.3956
  0
LINE
  8
0
 10
-32.7893
 20
12.3956
 11
-32.9057
 21
12.7539
  0
LINE
  8
0
 10
-32.9057
 20
12.7539
 11
-32.9763
 21
13.124
  0
LINE
  8
0
 10
-32.9763
 20
13.124
 11
-33
 21
13.5
  0
LINE
  8
0
 10
-33
 20
13.5
 11
-32.9763
 21
13.876
  0
LINE
  8
0
 10
-32.9763
 20
13.876
 11
-32.9057
 21
14.2461
  0
LINE
  8
0
 10
-32.9057
 20
14.2461
 11
-32.7893
 21
14.6044
  0
LINE
  8
0
 10
-32.7893
 20
14.6044
 11
-32.6289
 21
14.9453
  0
LINE
  8
0
 10
-32.6289
 20
14.9453
 11
-32.427
 21
15.2634
  0
LINE
  8
0
 10
-32.427
 20
15.2634
 11
-32.1869
 21
15.5536
  0
LINE
  8
0
 10
-32.1869
 20
15.5536
 11
-31.9123
 21
15.8115
  0
LINE
  8
0
 10
-31.9123
 20
15.8115
 11
-31.6075
 21
16.033
  0
LINE
  8
0
 10
-31.6075
 20
16.033
 11
-31.2773
 21
16.2145
  0
LINE
  8
0
 10
-31.2773
 20
16.2145
 11
-30.927
 21
16.3532
  0
LINE
  8
0
 10
-30.927
 20
16.3532
 11
-30.5621
 21
16.4469
  0
LINE
  8
0
 10
-30.5621
 20
16.4469
 11
-30.1884
 21
16.4941
  0
LINE
  8
0
 10
-30.1884
 20
16.4941
 11
-29.8116
 21
16.4941
  0
LINE
  8
0
 10
-29.8116
 20
16.4941
 11
-29.4379
 21
16.4469
  0
LINE
  8
0
 10
-29.4379
 20
16.4469
 11
-29.0729
 21
16.3532
  0
LINE
  8
0
 10
-29.0729
 20
16.3532
 11
-28.7227
 21
16.2145
  0
LINE
  8
0
 10
-28.7227
 20
16.2145
 11
-28.3925
 21
16.033
  0
LINE
  8
0
 10
-28.3925
 20
16.033
 11
-28.0877
 21
15.8115
  0
LINE
  8
0
 10
-28.0877
 20
15.8115
 11
-27.8131
 21
15.5536
  0
LINE
  8
0
 10
-27.8131
 20
15.5536
 11
-27.5729
 21
15.2634
  0
LINE
  8
0
 10
-27.5729
 20
15.2634
 11
-27.3711
 21
14.9453
  0
LINE
  8
0
 10
-27.3711
 20
14.9453
 11
-27.2107
 21
14.6044
  0
LINE
  8
0
 10
-27.2107
 20
14.6044
 11
-27.0942
 21
14.2461
  0
LINE
  8
0
 10
-27.0942
 20
14.2461
 11
-27.0237
 21
13.876
  0
LINE
  8
0
 10
-27.0237
 20
13.876
 11
-27
 21
13.5
  0
LINE
  8
0
 10
-27
 20
13.5
 11
-27.0237
 21
13.124
  0
LINE
  8
0
 10
-27.0237
 20
13.124
 11
-27.0942
 21
12.7539
  0
LINE
  8
0
 10
-27.0942
 20
12.7539
 11
-27.2107
 21
12.3956
  0
LINE
  8
0
 10
-27.2107
 20
12.3956
 11
-27.3711
 21
12.0547
  0
LINE
  8
0
 10
-27.3711
 20
12.0547
 11
-27.5729
 21
11.7366
  0
LINE
  8
0
 10
-27.5729
 20
11.7366
 11
-27.8131
 21
11.4464
  0
LINE
  8
0
 10
-27.8131
 20
11.4464
 11
-28.0877
 21
11.1884
  0
LINE
  8
0
 10
-28.0877
 20
11.1884
 11
-28.3925
 21
10.967
  0
LINE
  8
0
 10
-28.3925
 20
10.967
 11
-28.7227
 21
10.7855
  0
LINE
  8
0
 10
-28.7227
 20
10.7855
 11
-29.0729
 21
10.6468
  0
LINE
  8
0
 10
-29.0729
 20
10.6468
 11
-29.4379
 21
10.5531
  0
LINE
  8
0
 10
-29.4379
 20
10.5531
 11
-29.8116
 21
10.5059
  0
LINE
  8
0
 10
-29.8116
 20
10.5059
 11
-30.1884
 21
10.5059
  0
LINE
  8
0
 10
14.8116
 20
10.5059
 11
14.4379
 21
10.5531
  0
LINE
  8
0
 10
14.4379
 20
10.5531
 11
14.0729
 21
10.6468
  0
LINE
  8
0
 10
14.0729
 20
10.6468
 11
13.7227
 21
10.7855
  0
LINE
  8
0
 10
13.7227
 20
10.7855
 11
13.3925
 21
10.967
  0
LINE
  8
0
 10
13.3925
 20
10.967
 11
13.0877
 21
11.1884
  0
LINE
  8
0
 10
13.0877
 20
11.1884
 11
12.8131
 21
11.4464
  0
LINE
  8
0
 10
12.8131
 20
11.4464
 11
12.5729
 21
11.7366
  0
LINE
  8
0
 10
12.5729
 20
11.7366
 11
12.3711
 21
12.0547
  0
LINE
  8
0
 10
12.3711
 20
12.0547
 11
12.2107
 21
12.3956
  0
LINE
  8
0
 10
12.2107
 20
12.3956
 11
12.0942
 21
12.7539
  0
LINE
  8
0
 10
12.0942
 20
12.7539
 11
12.0237
 21
13.124
  0
LINE
  8
0
 10
12.0237
 20
13.124
 11
12
 21
13.5
  0
LINE
  8
0
 10
12
 20
13.5
 11
12.0237
 21
13.876
  0
LINE
  8
0
 10
12.0237
 20
13.876
 11
12.0942
 21
14.2461
  0
LINE
  8
0
 10
12.0942
 20
14.2461
 11
12.2107
 21
14.6044
  0
LINE
  8
0
 10
12.2107
 20
14.6044
 11
12.3711
 21
14.9453
  0
LINE
  8
0
 10
12.3711
 20
14.9453
 11
12.5729
 21
15.2634
  0
LINE
  8
0
 10
12.5729
 20
15.2634
 11
12.8131
 21
15.5536
  0
LINE
  8
0
 10
12.8131
 20
15.5536
 11
13.0877
 21
15.8115
  0
LINE
  8
0
 10
13.0877
 20
15.8115
 11
13.3925
 21
16.033
  0
LINE
  8
0
 10
13.3925
 20
16.033
 11
13.7227
 21
16.2145
  0
LINE
  8
0
 10
13.7227
 20
16.2145
 11
14.0729
 21
16.3532
  0
LINE
  8
0
 10
14.0729
 20
16.3532
 11
14.4379
 21
16.4469
  0
LINE
  8
0
 10
14.4379
 20
16.4469
 11
14.8116
 21
16.4941
  0
LINE
  8
0
 10
14.8116
 20
16.4941
 11
15.1884
 21
16.4941
  0
LINE
  8
0
 10
15.1884
 20
16.4941
 11
15.5621
 21
16.4469
  0
LINE
  8
0
 10
15.5621
 20
16.4469
 11
15.927
 21
16.3532
  0
LINE
  8
0
 10
15.927
 20
16.3532
 11
16.2773
 21
16.2145
  0
LINE
  8
0
 10
16.2773
 20
16.2145
 11
16.6075
 21
16.033
  0
LINE
  8
0
 10
16.6075
 20
16.033
 11
16.9123
 21
15.8115
  0
LINE
  8
0
 10
16.9123
 20
15.8115
 11
17.1869
 21
15.5536
  0
LINE
  8
0
 10
17.1869
 20
15.5536
 11
17.427
 21
15.2634
  0
LINE
  8
0
 10
17.427
 20
15.2634
 11
17.6289
 21
14.9453
  0
LINE
  8
0
 10
17.6289
 20
14.9453
 11
17.7893
 21
14.6044
  0
LINE
  8
0
 10
17.7893
 20
14.6044
 11
17.9057
 21
14.2461
  0
LINE
  8
0
 10
17.9057
 20
14.2461
 11
17.9763
 21
13.876
  0
LINE
  8
0
 10
17.9763
 20
13.876
 11
18
 21
13.5
  0
LINE
  8
0
 10
18
 20
13.5
 11
17.9763
 21
13.124
  0
LINE
  8
0
 10
17.9763
 20
13.124
 11
17.9057
 21
12.7539
  0
LINE
  8
0
 10
17.9057
 20
12.7539
 11
17.7893
 21
12.3956
  0
LINE
  8
0
 10
17.7893
 20
12.3956
 11
17.6289
 21
12.0547
  0
LINE
  8
0
 10
17.6289
 20
12.0547
 11
17.427
 21
11.7366
  0
LINE
  8
0
 10
17.427
 20
11.7366
 11
17.1869
 21
11.4464
  0
LINE
  8
0
 10
17.1869
 20
11.4464
 11
16.9123
 21
11.1884
  0
LINE
  8
0
 10
16.9123
 20
11.1884
 11
16.6075
 21
10.967
  0
LINE
  8
0
 10
16.6075
 20
10.967
 11
16.2773
 21
10.7855
  0
LINE
  8
0
 10
16.2773
 20
10.7855
 11
15.927
 21
10.6468
  0
LINE
  8
0
 10
15.927
 20
10.6468
 11
15.5621
 21
10.5531
  0
LINE
  8
0
 10
15.5621
 20
10.5531
 11
15.1884
 21
10.5059
  0
LINE
  8
0
 10
15.1884
 20
10.5059
 11
14.8116
 21
10.5059
  0
LINE
  8
0
 10
-52.8836
 20
11.2322
 11
-53.1648
 21
11.2982
  0
LINE
  8
0
 10
-53.1648
 20
11.2982
 11
-53.4355
 21
11.3988
  0
LINE
  8
0
 10
-53.4355
 20
11.3988
 11
-53.6915
 21
11.5327
  0
LINE
  8
0
 10
-53.6915
 20
11.5327
 11
-53.9286
 21
11.6975
  0
LINE
  8
0
 10
-53.9286
 20
11.6975
 11
-54.1433
 21
11.8908
  0
LINE
  8
0
 10
-54.1433
 20
11.8908
 11
-54.332
 21
12.1094
  0
LINE
  8
0
 10
-54.332
 20
12.1094
 11
-54.4919
 21
12.35
  0
LINE
  8
0
 10
-54.4919
 20
12.35
 11
-54.6203
 21
12.6087
  0
LINE
  8
0
 10
-54.6203
 20
12.6087
 11
-54.7153
 21
12.8815
  0
LINE
  8
0
 10
-54.7153
 20
12.8815
 11
-54.7753
 21
13.164
  0
LINE
  8
0
 10
-54.7753
 20
13.164
 11
-54.7995
 21
13.4518
  0
LINE
  8
0
 10
-54.7995
 20
13.4518
 11
-54.7874
 21
13.7404
  0
LINE
  8
0
 10
-54.7874
 20
13.7404
 11
-54.7392
 21
14.0252
  0
LINE
  8
0
 10
-54.7392
 20
14.0252
 11
-54.6557
 21
14.3017
  0
LINE
  8
0
 10
-54.6557
 20
14.3017
 11
-54.5383
 21
14.5656
  0
LINE
  8
0
 10
-54.5383
 20
14.5656
 11
-54.3886
 21
14.8126
  0
LINE
  8
0
 10
-54.3886
 20
14.8126
 11
-54.2092
 21
15.039
  0
LINE
  8
0
 10
-54.2092
 20
15.039
 11
-54.0029
 21
15.2411
  0
LINE
  8
0
 10
-54.0029
 20
15.2411
 11
-53.7728
 21
15.4157
  0
LINE
  8
0
 10
-53.7728
 20
15.4157
 11
-53.5227
 21
15.5601
  0
LINE
  8
0
 10
-53.5227
 20
15.5601
 11
-53.2564
 21
15.6721
  0
LINE
  8
0
 10
-53.2564
 20
15.6721
 11
-52.9782
 21
15.7497
  0
LINE
  8
0
 10
-52.9782
 20
15.7497
 11
-52.6925
 21
15.7919
  0
LINE
  8
0
 10
-52.6925
 20
15.7919
 11
-52.4037
 21
15.798
  0
LINE
  8
0
 10
-52.4037
 20
15.798
 11
-52.1164
 21
15.7678
  0
LINE
  8
0
 10
-52.1164
 20
15.7678
 11
-51.8352
 21
15.7018
  0
LINE
  8
0
 10
-51.8352
 20
15.7018
 11
-51.5645
 21
15.6012
  0
LINE
  8
0
 10
-51.5645
 20
15.6012
 11
-51.3085
 21
15.4673
  0
LINE
  8
0
 10
-51.3085
 20
15.4673
 11
-51.0714
 21
15.3025
  0
LINE
  8
0
 10
-51.0714
 20
15.3025
 11
-50.8567
 21
15.1092
  0
LINE
  8
0
 10
-50.8567
 20
15.1092
 11
-50.668
 21
14.8906
  0
LINE
  8
0
 10
-50.668
 20
14.8906
 11
-50.5081
 21
14.65
  0
LINE
  8
0
 10
-50.5081
 20
14.65
 11
-50.3797
 21
14.3913
  0
LINE
  8
0
 10
-50.3797
 20
14.3913
 11
-50.2847
 21
14.1185
  0
LINE
  8
0
 10
-50.2847
 20
14.1185
 11
-50.2247
 21
13.836
  0
LINE
  8
0
 10
-50.2247
 20
13.836
 11
-50.2005
 21
13.5482
  0
LINE
  8
0
 10
-50.2005
 20
13.5482
 11
-50.2126
 21
13.2596
  0
LINE
  8
0
 10
-50.2126
 20
13.2596
 11
-50.2608
 21
12.9748
  0
LINE
  8
0
 10
-50.2608
 20
12.9748
 11
-50.3442
 21
12.6983
  0
LINE
  8
0
 10
-50.3442
 20
12.6983
 11
-50.4617
 21
12.4344
  0
LINE
  8
0
 10
-50.4617
 20
12.4344
 11
-50.6114
 21
12.1873
  0
LINE
  8
0
 10
-50.6114
 20
12.1873
 11
-50.7908
 21
11.961
  0
LINE
  8
0
 10
-50.7908
 20
11.961
 11
-50.9971
 21
11.7589
  0
LINE
  8
0
 10
-50.9971
 20
11.7589
 11
-51.2272
 21
11.5843
  0
LINE
  8
0
 10
-51.2272
 20
11.5843
 11
-51.4773
 21
11.4398
  0
LINE
  8
0
 10
-51.4773
 20
11.4398
 11
-51.7436
 21
11.3279
  0
LINE
  8
0
 10
-51.7436
 20
11.3279
 11
-52.0218
 21
11.2503
  0
LINE
  8
0
 10
-52.0218
 20
11.2503
 11
-52.3075
 21
11.2081
  0
LINE
  8
0
 10
-52.3075
 20
11.2081
 11
-52.5963
 21
11.202
  0
LINE
  8
0
 10
-52.5963
 20
11.202
 11
-52.8836
 21
11.2322
  0
LINE
  8
0
 10
7.11642
 20
11.2322
 11
6.83522
 21
11.2982
  0
LINE
  8
0
 10
6.83522
 20
11.2982
 11
6.5645
 21
11.3988
  0
LINE
  8
0
 10
6.5645
 20
11.3988
 11
6.30853
 21
11.5327
  0
LINE
  8
0
 10
6.30853
 20
11.5327
 11
6.07135
 21
11.6975
  0
LINE
  8
0
 10
6.07135
 20
11.6975
 11
5.8567
 21
11.8908
  0
LINE
  8
0
 10
5.8567
 20
11.8908
 11
5.66797
 21
12.1094
  0
LINE
  8
0
 10
5.66797
 20
12.1094
 11
5.50813
 21
12.35
  0
LINE
  8
0
 10
5.50813
 20
12.35
 11
5.3797
 21
12.6087
  0
LINE
  8
0
 10
5.3797
 20
12.6087
 11
5.28471
 21
12.8815
  0
LINE
  8
0
 10
5.28471
 20
12.8815
 11
5.22467
 21
13.164
  0
LINE
  8
0
 10
5.22467
 20
13.164
 11
5.2005
 21
13.4518
  0
LINE
  8
0
 10
5.2005
 20
13.4518
 11
5.21259
 21
13.7404
  0
LINE
  8
0
 10
5.21259
 20
13.7404
 11
5.26076
 21
14.0252
  0
LINE
  8
0
 10
5.26076
 20
14.0252
 11
5.34424
 21
14.3017
  0
LINE
  8
0
 10
5.34424
 20
14.3017
 11
5.46173
 21
14.5656
  0
LINE
  8
0
 10
5.46173
 20
14.5656
 11
5.61134
 21
14.8126
  0
LINE
  8
0
 10
5.61134
 20
14.8126
 11
5.79076
 21
15.039
  0
LINE
  8
0
 10
5.79076
 20
15.039
 11
5.99713
 21
15.2411
  0
LINE
  8
0
 10
5.99713
 20
15.2411
 11
6.22719
 21
15.4157
  0
LINE
  8
0
 10
6.22719
 20
15.4157
 11
6.47733
 21
15.5601
  0
LINE
  8
0
 10
6.47733
 20
15.5601
 11
6.74361
 21
15.6721
  0
LINE
  8
0
 10
6.74361
 20
15.6721
 11
7.02179
 21
15.7497
  0
LINE
  8
0
 10
7.02179
 20
15.7497
 11
7.30754
 21
15.7919
  0
LINE
  8
0
 10
7.30754
 20
15.7919
 11
7.59631
 21
15.798
  0
LINE
  8
0
 10
7.59631
 20
15.798
 11
7.88356
 21
15.7678
  0
LINE
  8
0
 10
7.88356
 20
15.7678
 11
8.16476
 21
15.7018
  0
LINE
  8
0
 10
8.16476
 20
15.7018
 11
8.43549
 21
15.6012
  0
LINE
  8
0
 10
8.43549
 20
15.6012
 11
8.69145
 21
15.4673
  0
LINE
  8
0
 10
8.69145
 20
15.4673
 11
8.92863
 21
15.3025
  0
LINE
  8
0
 10
8.92863
 20
15.3025
 11
9.14328
 21
15.1092
  0
LINE
  8
0
 10
9.14328
 20
15.1092
 11
9.33202
 21
14.8906
  0
LINE
  8
0
 10
9.33202
 20
14.8906
 11
9.49185
 21
14.65
  0
LINE
  8
0
 10
9.49185
 20
14.65
 11
9.62029
 21
14.3913
  0
LINE
  8
0
 10
9.62029
 20
14.3913
 11
9.71527
 21
14.1185
  0
LINE
  8
0
 10
9.71527
 20
14.1185
 11
9.77531
 21
13.836
  0
LINE
  8
0
 10
9.77531
 20
13.836
 11
9.79948
 21
13.5482
  0
LINE
  8
0
 10
9.79948
 20
13.5482
 11
9.7874
 21
13.2596
  0
LINE
  8
0
 10
9.7874
 20
13.2596
 11
9.73923
 21
12.9748
  0
LINE
  8
0
 10
9.73923
 20
12.9748
 11
9.65575
 21
12.6983
  0
LINE
  8
0
 10
9.65575
 20
12.6983
 11
9.53825
 21
12.4344
  0
LINE
  8
0
 10
9.53825
 20
12.4344
 11
9.38864
 21
12.1873
  0
LINE
  8
0
 10
9.38864
 20
12.1873
 11
9.20923
 21
11.961
  0
LINE
  8
0
 10
9.20923
 20
11.961
 11
9.00285
 21
11.7589
  0
LINE
  8
0
 10
9.00285
 20
11.7589
 11
8.7728
 21
11.5843
  0
LINE
  8
0
 10
8.7728
 20
11.5843
 11
8.52266
 21
11.4398
  0
LINE
  8
0
 10
8.52266
 20
11.4398
 11
8.25638
 21
11.3279
  0
LINE
  8
0
 10
8.25638
 20
11.3279
 11
7.9782
 21
11.2503
  0
LINE
  8
0
 10
7.9782
 20
11.2503
 11
7.69244
 21
11.2081
  0
LINE
  8
0
 10
7.69244
 20
11.2081
 11
7.40367
 21
11.202
  0
LINE
  8
0
 10
7.40367
 20
11.202
 11
7.11642
 21
11.2322
  0
LINE
  8
0
 10
37.1164
 20
11.2322
 11
36.8352
 21
11.2982
  0
LINE
  8
0
 10
36.8352
 20
11.2982
 11
36.5645
 21
11.3988
  0
LINE
  8
0
 10
36.5645
 20
11.3988
 11
36.3085
 21
11.5327
  0
LINE
  8
0
 10
36.3085
 20
11.5327
 11
36.0714
 21
11.6975
  0
LINE
  8
0
 10
36.0714
 20
11.6975
 11
35.8567
 21
11.8908
  0
LINE
  8
0
 10
35.8567
 20
11.8908
 11
35.668
 21
12.1094
  0
LINE
  8
0
 10
35.668
 20
12.1094
 11
35.5081
 21
12.35
  0
LINE
  8
0
 10
35.5081
 20
12.35
 11
35.3797
 21
12.6087
  0
LINE
  8
0
 10
35.3797
 20
12.6087
 11
35.2847
 21
12.8815
  0
LINE
  8
0
 10
35.2847
 20
12.8815
 11
35.2247
 21
13.164
  0
LINE
  8
0
 10
35.2247
 20
13.164
 11
35.2005
 21
13.4518
  0
LINE
  8
0
 10
35.2005
 20
13.4518
 11
35.2126
 21
13.7404
  0
LINE
  8
0
 10
35.2126
 20
13.7404
 11
35.2608
 21
14.0252
  0
LINE
  8
0
 10
35.2608
 20
14.0252
 11
35.3442
 21
14.3017
  0
LINE
  8
0
 10
35.3442
 20
14.3017
 11
35.4617
 21
14.5656
  0
LINE
  8
0
 10
35.4617
 20
14.5656
 11
35.6114
 21
14.8126
  0
LINE
  8
0
 10
35.6114
 20
14.8126
 11
35.7908
 21
15.039
  0
LINE
  8
0
 10
35.7908
 20
15.039
 11
35.9971
 21
15.2411
  0
LINE
  8
0
 10
35.9971
 20
15.2411
 11
36.2272
 21
15.4157
  0
LINE
  8
0
 10
36.2272
 20
15.4157
 11
36.4773
 21
15.5601
  0
LINE
  8
0
 10
36.4773
 20
15.5601
 11
36.7436
 21
15.6721
  0
LINE
  8
0
 10
36.7436
 20
15.6721
 11
37.0218
 21
15.7497
  0
LINE
  8
0
 10
37.0218
 20
15.7497
 11
37.3075
 21
15.7919
  0
LINE
  8
0
 10
37.3075
 20
15.7919
 11
37.5963
 21
15.798
  0
LINE
  8
0
 10
37.5963
 20
15.798
 11
37.8836
 21
15.7678
  0
LINE
  8
0
 10
37.8836
 20
15.7678
 11
38.1648
 21
15.7018
  0
LINE
  8
0
 10
38.1648
 20
15.7018
 11
38.4355
 21
15.6012
  0
LINE
  8
0
 10
38.4355
 20
15.6012
 11
38.6915
 21
15.4673
  0
LINE
  8
0
 10
38.6915
 20
15.4673
 11
38.9286
 21
15.3025
  0
LINE
  8
0
 10
38.9286
 20
15.3025
 11
39.1433
 21
15.1092
  0
LINE
  8
0
 10
39.1433
 20
15.1092
 11
39.332
 21
14.8906
  0
LINE
  8
0
 10
39.332
 20
14.8906
 11
39.4919
 21
14.65
  0
LINE
  8
0
 10
39.4919
 20
14.65
 11
39.6203
 21
14.3913
  0
LINE
  8
0
 10
39.6203
 20
14.3913
 11
39.7153
 21
14.1185
  0
LINE
  8
0
 10
39.7153
 20
14.1185
 11
39.7753
 21
13.836
  0
LINE
  8
0
 10
39.7753
 20
13.836
 11
39.7995
 21
13.5482
  0
LINE
  8
0
 10
39.7995
 20
13.5482
 11
39.7874
 21
13.2596
  0
LINE
  8
0
 10
39.7874
 20
13.2596
 11
39.7392
 21
12.9748
  0
LINE
  8
0
 10
39.7392
 20
12.9748
 11
39.6557
 21
12.6983
  0
LINE
  8
0
 10
39.6557
 20
12.6983
 11
39.5383
 21
12.4344
  0
LINE
  8
0
 10
39.5383
 20
12.4344
 11
39.3886
 21
12.1873
  0
LINE
  8
0
 10
39.3886
 20
12.1873
 11
39.2092
 21
11.961
  0
LINE
  8
0
 10
39.2092
 20
11.961
 11
39.0029
 21
11.7589
  0
LINE
  8
0
 10
39.0029
 20
11.7589
 11
38.7728
 21
11.5843
  0
LINE
  8
0
 10
38.7728
 20
11.5843
 11
38.5227
 21
11.4398
  0
LINE
  8
0
 10
38.5227
 20
11.4398
 11
38.2564
 21
11.3279
  0
LINE
  8
0
 10
38.2564
 20
11.3279
 11
37.9782
 21
11.2503
  0
LINE
  8
0
 10
37.9782
 20
11.2503
 11
37.6925
 21
11.2081
  0
LINE
  8
0
 10
37.6925
 20
11.2081
 11
37.4037
 21
11.202
  0
LINE
  8
0
 10
37.4037
 20
11.202
 11
37.1164
 21
11.2322
  0
LINE
  8
0
 10
-22.8836
 20
11.2322
 11
-23.1648
 21
11.2982
  0
LINE
  8
0
 10
-23.1648
 20
11.2982
 11
-23.4355
 21
11.3988
  0
LINE
  8
0
 10
-23.4355
 20
11.3988
 11
-23.6915
 21
11.5327
  0
LINE
  8
0
 10
-23.6915
 20
11.5327
 11
-23.9286
 21
11.6975
  0
LINE
  8
0
 10
-23.9286
 20
11.6975
 11
-24.1433
 21
11.8908
  0
LINE
  8
0
 10
-24.1433
 20
11.8908
 11
-24.332
 21
12.1094
  0
LINE
  8
0
 10
-24.332
 20
12.1094
 11
-24.4919
 21
12.35
  0
LINE
  8
0
 10
-24.4919
 20
12.35
 11
-24.6203
 21
12.6087
  0
LINE
  8
0
 10
-24.6203
 20
12.6087
 11
-24.7153
 21
12.8815
  0
LINE
  8
0
 10
-24.7153
 20
12.8815
 11
-24.7753
 21
13.164
  0
LINE
  8
0
 10
-24.7753
 20
13.164
 11
-24.7995
 21
13.4518
  0
LINE
  8
0
 10
-24.7995
 20
13.4518
 11
-24.7874
 21
13.7404
  0
LINE
  8
0
 10
-24.7874
 20
13.7404
 11
-24.7392
 21
14.0252
  0
LINE
  8
0
 10
-24.7392
 20
14.0252
 11
-24.6557
 21
14.3017
  0
LINE
  8
0
 10
-24.6557
 20
14.3017
 11
-24.5383
 21
14.5656
  0
LINE
  8
0
 10
-24.5383
 20
14.5656
 11
-24.3886
 21
14.8126
  0
LINE
  8
0
 10
-24.3886
 20
14.8126
 11
-24.2092
 21
15.039
  0
LINE
  8
0
 10
-24.2092
 20
15.039
 11
-24.0029
 21
15.2411
  0
LINE
  8
0
 10
-24.0029
 20
15.2411
 11
-23.7728
 21
15.4157
  0
LINE
  8
0
 10
-23.7728
 20
15.4157
 11
-23.5227
 21
15.5601
  0
LINE
  8
0
 10
-23.5227
 20
15.5601
 11
-23.2564
 21
15.6721
  0
LINE
  8
0
 10
-23.2564
 20
15.6721
 11
-22.9782
 21
15.7497
  0
LINE
  8
0
 10
-22.9782
 20
15.7497
 11
-22.6925
 21
15.7919
  0
LINE
  8
0
 10
-22.6925
 20
15.7919
 11
-22.4037
 21
15.798
  0
LINE
  8
0
 10
-22.4037
 20
15.798
 11
-22.1164
 21
15.7678
  0
LINE
  8
0
 10
-22.1164
 20
15.7678
 11
-21.8352
 21
15.7018
  0
LINE
  8
0
 10
-21.8352
 20
15.7018
 11
-21.5645
 21
15.6012
  0
LINE
  8
0
 10
-21.5645
 20
15.6012
 11
-21.3085
 21
15.4673
  0
LINE
  8
0
 10
-21.3085
 20
15.4673
 11
-21.0714
 21
15.3025
  0
LINE
  8
0
 10
-21.0714
 20
15.3025
 11
-20.8567
 21
15.1092
  0
LINE
  8
0
 10
-20.8567
 20
15.1092
 11
-20.668
 21
14.8906
  0
LINE
  8
0
 10
-20.668
 20
14.8906
 11
-20.5081
 21
14.65
  0
LINE
  8
0
 10
-20.5081
 20
14.65
 11
-20.3797
 21
14.3913
  0
LINE
  8
0
 10
-20.3797
 20
14.3913
 11
-20.2847
 21
14.1185
  0
LINE
  8
0
 10
-20.2847
 20
14.1185
 11
-20.2247
 21
13.836
  0
LINE
  8
0
 10
-20.2247
 20
13.836
 11
-20.2005
 21
13.5482
  0
LINE
  8
0
 10
-20.2005
 20
13.5482
 11
-20.2126
 21
13.2596
  0
LINE
  8
0
 10
-20.2126
 20
13.2596
 11
-20.2608
 21
12.9748
  0
LINE
  8
0
 10
-20.2608
 20
12.9748
 11
-20.3442
 21
12.6983
  0
LINE
  8
0
 10
-20.3442
 20
12.6983
 11
-20.4617
 21
12.4344
  0
LINE
  8
0
 10
-20.4617
 20
12.4344
 11
-20.6113
 21
12.1873
  0
LINE
  8
0
 10
-20.6113
 20
12.1873
 11
-20.7908
 21
11.961
  0
LINE
  8
0
 10
-20.7908
 20
11.961
 11
-20.9971
 21
11.7589
  0
LINE
  8
0
 10
-20.9971
 20
11.7589
 11
-21.2272
 21
11.5843
  0
LINE
  8
0
 10
-21.2272
 20
11.5843
 11
-21.4773
 21
11.4398
  0
LINE
  8
0
 10
-21.4773
 20
11.4398
 11
-21.7436
 21
11.3279
  0
LINE
  8
0
 10
-21.7436
 20
11.3279
 11
-22.0218
 21
11.2503
  0
LINE
  8
0
 10
-22.0218
 20
11.2503
 11
-22.3075
 21
11.2081
  0
LINE
  8
0
 10
-22.3075
 20
11.2081
 11
-22.5963
 21
11.202
  0
LINE
  8
0
 10
-22.5963
 20
11.202
 11
-22.8836
 21
11.2322
  0
LINE
  8
0
 10
-37.8836
 20
11.2322
 11
-38.1648
 21
11.2982
  0
LINE
  8
0
 10
-38.1648
 20
11.2982
 11
-38.4355
 21
11.3988
  0
LINE
  8
0
 10
-38.4355
 20
11.3988
 11
-38.6915
 21
11.5327
  0
LINE
  8
0
 10
-38.6915
 20
11.5327
 11
-38.9286
 21
11.6975
  0
LINE
  8
0
 10
-38.9286
 20
11.6975
 11
-39.1433
 21
11.8908
  0
LINE
  8
0
 10
-39.1433
 20
11.8908
 11
-39.332
 21
12.1094
  0
LINE
  8
0
 10
-39.332
 20
12.1094
 11
-39.4919
 21
12.35
  0
LINE
  8
0
 10
-39.4919
 20
12.35
 11
-39.6203
 21
12.6087
  0
LINE
  8
0
 10
-39.6203
 20
12.6087
 11
-39.7153
 21
12.8815
  0
LINE
  8
0
 10
-39.7153
 20
12.8815
 11
-39.7753
 21
13.164
  0
LINE
  8
0
 10
-39.7753
 20
13.164
 11
-39.7995
 21
13.4518
  0
LINE
  8
0
 10
-39.7995
 20
13.4518
 11
-39.7874
 21
13.7404
  0
LINE
  8
0
 10
-39.7874
 20
13.7404
 11
-39.7392
 21
14.0252
  0
LINE
  8
0
 10
-39.7392
 20
14.0252
 11
-39.6557
 21
14.3017
  0
LINE
  8
0
 10
-39.6557
 20
14.3017
 11
-39.5383
 21
14.5656
  0
LINE
  8
0
 10
-39.5383
 20
14.5656
 11
-39.3886
 21
14.8126
  0
LINE
  8
0
 10
-39.3886
 20
14.8126
 11
-39.2092
 21
15.039
  0
LINE
  8
0
 10
-39.2092
 20
15.039
 11
-39.0029
 21
15.2411
  0
LINE
  8
0
 10
-39.0029
 20
15.2411
 11
-38.7728
 21
15.4157
  0
LINE
  8
0
 10
-38.7728
 20
15.4157
 11
-38.5227
 21
15.5601
  0
LINE
  8
0
 10
-38.5227
 20
15.5601
 11
-38.2564
 21
15.6721
  0
LINE
  8
0
 10
-38.2564
 20
15.6721
 11
-37.9782
 21
15.7497
  0
LINE
  8
0
 10
-37.9782
 20
15.7497
 11
-37.6925
 21
15.7919
  0
LINE
  8
0
 10
-37.6925
 20
15.7919
 11
-37.4037
 21
15.798
  0
LINE
  8
0
 10
-37.4037
 20
15.798
 11
-37.1164
 21
15.7678
  0
LINE
  8
0
 10
-37.1164
 20
15.7678
 11
-36.8352
 21
15.7018
  0
LINE
  8
0
 10
-36.8352
 20
15.7018
 11
-36.5645
 21
15.6012
  0
LINE
  8
0
 10
-36.5645
 20
15.6012
 11
-36.3085
 21
15.4673
  0
LINE
  8
0
 10
-36.3085
 20
15.4673
 11
-36.0714
 21
15.3025
  0
LINE
  8
0
 10
-36.0714
 20
15.3025
 11
-35.8567
 21
15.1092
  0
LINE
  8
0
 10
-35.8567
 20
15.1092
 11
-35.668
 21
14.8906
  0
LINE
  8
0
 10
-35.668
 20
14.8906
 11
-35.5081
 21
14.65
  0
LINE
  8
0
 10
-35.5081
 20
14.65
 11
-35.3797
 21
14.3913
  0
LINE
  8
0
 10
-35.3797
 20
14.3913
 11
-35.2847
 21
14.1185
  0
LINE
  8
0
 10
-35.2847
 20
14.1185
 11
-35.2247
 21
13.836
  0
LINE
  8
0
 10
-35.2247
 20
13.836
 11
-35.2005
 21
13.5482
  0
LINE
  8
0
 10
-35.2005
 20
13.5482
 11
-35.2126
 21
13.2596
  0
LINE
  8
0
 10
-35.2126
 20
13.2596
 11
-35.2608
 21
12.9748
  0
LINE
  8
0
 10
-35.2608
 20
12.9748
 11
-35.3442
 21
12.6983
  0
LINE
  8
0
 10
-35.3442
 20
12.6983
 11
-35.4617
 21
12.4344
  0
LINE
  8
0
 10
-35.4617
 20
12.4344
 11
-35.6114
 21
12.1873
  0
LINE
  8
0
 10
-35.6114
 20
12.1873
 11
-35.7908
 21
11.961
  0
LINE
  8
0
 10
-35.7908
 20
11.961
 11
-35.9971
 21
11.7589
  0
LINE
  8
0
 10
-35.9971
 20
11.7589
 11
-36.2272
 21
11.5843
  0
LINE
  8
0
 10
-36.2272
 20
11.5843
 11
-36.4773
 21
11.4398
  0
LINE
  8
0
 10
-36.4773
 20
11.4398
 11
-36.7436
 21
11.3279
  0
LINE
  8
0
 10
-36.7436
 20
11.3279
 11
-37.0218
 21
11.2503
  0
LINE
  8
0
 10
-37.0218
 20
11.2503
 11
-37.3075
 21
11.2081
  0
LINE
  8
0
 10
-37.3075
 20
11.2081
 11
-37.5963
 21
11.202
  0
LINE
  8
0
 10
-37.5963
 20
11.202
 11
-37.8836
 21
11.2322
  0
LINE
  8
0
 10
55.3206
 20
2.82999
 11
55.3206
 21
9
  0
LINE
  8
0
 10
55.3206
 20
9
 11
64.6794
 21
9
  0
LINE
  8
0
 10
64.6794
 20
9
 11
64.6794
 21
2.82999
  0
LINE
  8
0
 10
64.6794
 20
2.82999
 11
55.3206
 21
2.82999
  0
LINE
  8
0
 10
-49.6794
 20
2.82999
 11
-49.6794
 21
9
  0
LINE
  8
0
 10
-49.6794
 20
9
 11
-40.3206
 21
9
  0
LINE
  8
0
 10
-40.3206
 20
9
 11
-40.3206
 21
2.82999
  0
LINE
  8
0
 10
-40.3206
 20
2.82999
 11
-49.6794
 21
2.82999
  0
LINE
  8
0
 10
-4.67937
 20
2.82999
 11
-4.67937
 21
9
  0
LINE
  8
0
 10
-4.67937
 20
9
 11
4.67937
 21
9
  0
LINE
  8
0
 10
4.67937
 20
9
 11
4.67937
 21
2.82999
  0
LINE
  8
0
 10
4.67937
 20
2.82999
 11
-4.67937
 21
2.82999
  0
LINE
  8
0
 10
25.3206
 20
2.82999
 11
25.3206
 21
9
  0
LINE
  8
0
 10
25.3206
 20
9
 11
34.6794
 21
9
  0
LINE
  8
0
 10
34.6794
 20
9
 11
34.6794
 21
2.82999
  0
LINE
  8
0
 10
34.6794
 20
2.82999
 11
25.3206
 21
2.82999
  0
LINE
  8
0
 10
-19.6794
 20
2.82999
 11
-19.6794
 21
9
  0
LINE
  8
0
 10
-19.6794
 20
9
 11
-10.3206
 21
9
  0
LINE
  8
0
 10
-10.3206
 20
9
 11
-10.3206
 21
2.82999
  0
LINE
  8
0
 10
-10.3206
 20
2.82999
 11
-19.6794
 21
2.82999
  0
LINE
  8
0
 10
-34.6794
 20
2.82999
 11
-34.6794
 21
9
  0
LINE
  8
0
 10
-34.6794
 20
9
 11
-25.3206
 21
9
  0
LINE
  8
0
 10
-25.3206
 20
9
 11
-25.3206
 21
2.82999
  0
LINE
  8
0
 10
-25.3206
 20
2.82999
 11
-34.6794
 21
2.82999
  0
LINE
  8
0
 10
40.3206
 20
2.82999
 11
40.3206
 21
9
  0
LINE
  8
0
 10
40.3206
 20
9
 11
49.6794
 21
9
  0
LINE
  8
0
 10
49.6794
 20
9
 11
49.6794
 21
2.82999
  0
LINE
  8
0
 10
49.6794
 20
2.82999
 11
40.3206
 21
2.82999
  0
LINE
  8
0
 10
-64.6794
 20
2.82999
 11
-64.6794
 21
9
  0
LINE
  8
0
 10
-64.6794
 20
9
 11
-55.3206
 21
9
  0
LINE
  8
0
 10
-55.3206
 20
9
 11
-55.3206
 21
2.82999
  0
LINE
  8
0
 10
-55.3206
 20
2.82999
 11
-64.6794
 21
2.82999
  0
LINE
  8
0
 10
10.3206
 20
2.82999
 11
10.3206
 21
9
  0
LINE
  8
0
 10
10.3206
 20
9
 11
19.6794
 21
9
  0
LINE
  8
0
 10
19.6794
 20
9
 11
19.6794
 21
2.82999
  0
LINE
  8
0
 10
19.6794
 20
2.82999
 11
10.3206
 21
2.82999
  0
ENDSEC
  0
SECTION
  2
OBJECTS
  0
DICTIONARY
  0
ENDSEC
  0
EOF
