<?xml version="1.0" standalone="no"?>
<!DOCTYPE svg PUBLIC "-//W3C//DTD SVG 1.1//EN" "http://www.w3.org/Graphics/SVG/1.1/DTD/svg11.dtd">
<svg width="38mm" height="208mm" viewBox="-19 -347 38 208" xmlns="http://www.w3.org/2000/svg" version="1.1">
<title>OpenSCAD Model</title>
<path d="
M 14.6869,-301.589 L 15.2951,-301.745 L 15.8789,-301.976 L 16.4291,-302.278 L 16.9371,-302.647 L 17.3948,-303.077
 L 17.7951,-303.561 L 18.1315,-304.091 L 18.3989,-304.659 L 18.5929,-305.257 L 18.7106,-305.873 L 18.75,-306.5
 L 18.75,-341.5 L 18.7106,-342.127 L 18.5929,-342.743 L 18.3989,-343.341 L 18.1315,-343.909 L 17.7951,-344.439
 L 17.3948,-344.923 L 16.9371,-345.353 L 16.4291,-345.722 L 15.8789,-346.024 L 15.2951,-346.255 L 14.6869,-346.411
 L 14.0639,-346.49 L -14.0639,-346.49 L -14.6869,-346.411 L -15.2951,-346.255 L -15.8789,-346.024 L -16.4291,-345.722
 L -16.9371,-345.353 L -17.3948,-344.923 L -17.7951,-344.439 L -18.1315,-343.909 L -18.3989,-343.341 L -18.5929,-342.743
 L -18.7106,-342.127 L -18.75,-341.5 L -18.75,-306.5 L -18.7106,-305.873 L -18.5929,-305.257 L -18.3989,-304.659
 L -18.1315,-304.091 L -17.7951,-303.561 L -17.3948,-303.077 L -16.9371,-302.647 L -16.4291,-302.278 L -15.8789,-301.976
 L -15.2951,-301.745 L -14.6869,-301.589 L -14.0639,-301.51 L 14.0639,-301.51 z
M -13.7982,-302.009 L -14.3901,-302.084 L -14.9678,-302.232 L -15.5224,-302.452 L -16.0452,-302.739 L -16.5278,-303.09
 L -16.9626,-303.498 L -17.3428,-303.958 L -17.6624,-304.462 L -17.9164,-305.001 L -18.1008,-305.569 L -18.2125,-306.155
 L -18.25,-306.75 L -18.25,-341.25 L -18.2125,-341.845 L -18.1008,-342.431 L -17.9164,-342.999 L -17.6624,-343.538
 L -17.3428,-344.042 L -16.9626,-344.502 L -16.5278,-344.91 L -16.0452,-345.261 L -15.5224,-345.548 L -14.9678,-345.768
 L -14.3901,-345.916 L -13.7982,-345.991 L 13.7982,-345.991 L 14.3901,-345.916 L 14.9678,-345.768 L 15.5224,-345.548
 L 16.0452,-345.261 L 16.5278,-344.91 L 16.9626,-344.502 L 17.3428,-344.042 L 17.6624,-343.538 L 17.9164,-342.999
 L 18.1008,-342.431 L 18.2125,-341.845 L 18.25,-341.25 L 18.25,-306.75 L 18.2125,-306.155 L 18.1008,-305.569
 L 17.9164,-305.001 L 17.6624,-304.462 L 17.3428,-303.958 L 16.9626,-303.498 L 16.5278,-303.09 L 16.0452,-302.739
 L 15.5224,-302.452 L 14.9678,-302.232 L 14.3901,-302.084 L 13.7982,-302.009 z
M 14.6869,-247.589 L 15.2951,-247.745 L 15.8789,-247.976 L 16.4291,-248.278 L 16.9371,-248.647 L 17.3948,-249.077
 L 17.7951,-249.561 L 18.1315,-250.091 L 18.3989,-250.659 L 18.5929,-251.257 L 18.7106,-251.873 L 18.75,-252.5
 L 18.75,-287.5 L 18.7106,-288.127 L 18.5929,-288.743 L 18.3989,-289.341 L 18.1315,-289.909 L 17.7951,-290.439
 L 17.3948,-290.923 L 16.9371,-291.353 L 16.4291,-291.722 L 15.8789,-292.024 L 15.2951,-292.255 L 14.6869,-292.411
 L 14.0639,-292.49 L -14.0639,-292.49 L -14.6869,-292.411 L -15.2951,-292.255 L -15.8789,-292.024 L -16.4291,-291.722
 L -16.9371,-291.353 L -17.3948,-290.923 L -17.7951,-290.439 L -18.1315,-289.909 L -18.3989,-289.341 L -18.5929,-288.743
 L -18.7106,-288.127 L -18.75,-287.5 L -18.75,-252.5 L -18.7106,-251.873 L -18.5929,-251.257 L -18.3989,-250.659
 L -18.1315,-250.091 L -17.7951,-249.561 L -17.3948,-249.077 L -16.9371,-248.647 L -16.4291,-248.278 L -15.8789,-247.976
 L -15.2951,-247.745 L -14.6869,-247.589 L -14.0639,-247.51 L 14.0639,-247.51 z
M -13.7982,-248.009 L -14.3901,-248.084 L -14.9678,-248.232 L -15.5224,-248.452 L -16.0452,-248.739 L -16.5278,-249.09
 L -16.9626,-249.498 L -17.3428,-249.958 L -17.6624,-250.462 L -17.9164,-251.001 L -18.1008,-251.569 L -18.2125,-252.155
 L -18.25,-252.75 L -18.25,-287.25 L -18.2125,-287.845 L -18.1008,-288.431 L -17.9164,-288.999 L -17.6624,-289.538
 L -17.3428,-290.042 L -16.9626,-290.502 L -16.5278,-290.91 L -16.0452,-291.261 L -15.5224,-291.548 L -14.9678,-291.768
 L -14.3901,-291.916 L -13.7982,-291.991 L 13.7982,-291.991 L 14.3901,-291.916 L 14.9678,-291.768 L 15.5224,-291.548
 L 16.0452,-291.261 L 16.5278,-290.91 L 16.9626,-290.502 L 17.3428,-290.042 L 17.6624,-289.538 L 17.9164,-288.999
 L 18.1008,-288.431 L 18.2125,-287.845 L 18.25,-287.25 L 18.25,-252.75 L 18.2125,-252.155 L 18.1008,-251.569
 L 17.9164,-251.001 L 17.6624,-250.462 L 17.3428,-249.958 L 16.9626,-249.498 L 16.5278,-249.09 L 16.0452,-248.739
 L 15.5224,-248.452 L 14.9678,-248.232 L 14.3901,-248.084 L 13.7982,-248.009 z
M 14.6869,-193.589 L 15.2951,-193.745 L 15.8789,-193.976 L 16.4291,-194.278 L 16.9371,-194.647 L 17.3948,-195.077
 L 17.7951,-195.561 L 18.1315,-196.091 L 18.3989,-196.659 L 18.5929,-197.257 L 18.7106,-197.873 L 18.75,-198.5
 L 18.75,-233.5 L 18.7106,-234.127 L 18.5929,-234.743 L 18.3989,-235.341 L 18.1315,-235.909 L 17.7951,-236.439
 L 17.3948,-236.923 L 16.9371,-237.353 L 16.4291,-237.722 L 15.8789,-238.024 L 15.2951,-238.255 L 14.6869,-238.411
 L 14.0639,-238.49 L -14.0639,-238.49 L -14.6869,-238.411 L -15.2951,-238.255 L -15.8789,-238.024 L -16.4291,-237.722
 L -16.9371,-237.353 L -17.3948,-236.923 L -17.7951,-236.439 L -18.1315,-235.909 L -18.3989,-235.341 L -18.5929,-234.743
 L -18.7106,-234.127 L -18.75,-233.5 L -18.75,-198.5 L -18.7106,-197.873 L -18.5929,-197.257 L -18.3989,-196.659
 L -18.1315,-196.091 L -17.7951,-195.561 L -17.3948,-195.077 L -16.9371,-194.647 L -16.4291,-194.278 L -15.8789,-193.976
 L -15.2951,-193.745 L -14.6869,-193.589 L -14.0639,-193.51 L 14.0639,-193.51 z
M -13.743,-194.888 L -14.2251,-194.949 L -14.6957,-195.07 L -15.1475,-195.249 L -15.5734,-195.483 L -15.9665,-195.769
 L -16.3207,-196.101 L -16.6305,-196.476 L -16.8908,-196.886 L -17.0977,-197.326 L -17.2479,-197.788 L -17.339,-198.265
 L -17.3695,-198.75 L -17.3695,-233.25 L -17.339,-233.735 L -17.2479,-234.212 L -17.0977,-234.674 L -16.8908,-235.114
 L -16.6305,-235.524 L -16.3207,-235.899 L -15.9665,-236.231 L -15.5734,-236.517 L -15.1475,-236.751 L -14.6957,-236.93
 L -14.2251,-237.051 L -13.743,-237.112 L 13.743,-237.112 L 14.2251,-237.051 L 14.6957,-236.93 L 15.1475,-236.751
 L 15.5734,-236.517 L 15.9665,-236.231 L 16.3207,-235.899 L 16.6305,-235.524 L 16.8908,-235.114 L 17.0977,-234.674
 L 17.2479,-234.212 L 17.339,-233.735 L 17.3695,-233.25 L 17.3695,-198.75 L 17.339,-198.265 L 17.2479,-197.788
 L 17.0977,-197.326 L 16.8908,-196.886 L 16.6305,-196.476 L 16.3207,-196.101 L 15.9665,-195.769 L 15.5734,-195.483
 L 15.1475,-195.249 L 14.6957,-195.07 L 14.2251,-194.949 L 13.743,-194.888 z
M 14.6869,-139.589 L 15.2951,-139.745 L 15.8789,-139.976 L 16.4291,-140.278 L 16.9371,-140.647 L 17.3948,-141.077
 L 17.7951,-141.561 L 18.1315,-142.091 L 18.3989,-142.659 L 18.5929,-143.257 L 18.7106,-143.873 L 18.75,-144.5
 L 18.75,-179.5 L 18.7106,-180.127 L 18.5929,-180.743 L 18.3989,-181.341 L 18.1315,-181.909 L 17.7951,-182.439
 L 17.3948,-182.923 L 16.9371,-183.353 L 16.4291,-183.722 L 15.8789,-184.024 L 15.2951,-184.255 L 14.6869,-184.411
 L 14.0639,-184.49 L -14.0639,-184.49 L -14.6869,-184.411 L -15.2951,-184.255 L -15.8789,-184.024 L -16.4291,-183.722
 L -16.9371,-183.353 L -17.3948,-182.923 L -17.7951,-182.439 L -18.1315,-181.909 L -18.3989,-181.341 L -18.5929,-180.743
 L -18.7106,-180.127 L -18.75,-179.5 L -18.75,-144.5 L -18.7106,-143.873 L -18.5929,-143.257 L -18.3989,-142.659
 L -18.1315,-142.091 L -17.7951,-141.561 L -17.3948,-141.077 L -16.9371,-140.647 L -16.4291,-140.278 L -15.8789,-139.976
 L -15.2951,-139.745 L -14.6869,-139.589 L -14.0639,-139.51 L 14.0639,-139.51 z
M 11.1558,-175.503 L 10.9689,-175.527 L 10.7865,-175.573 L 10.6113,-175.643 L 10.4463,-175.734 L 10.2939,-175.844
 L 10.1565,-175.973 L 10.0365,-176.118 L 9.93553,-176.277 L 9.85533,-176.448 L 9.79712,-176.627 L 9.76183,-176.812
 L 9.75,-177 L 9.76183,-177.188 L 9.79712,-177.373 L 9.85533,-177.552 L 9.93553,-177.723 L 10.0365,-177.882
 L 10.1565,-178.027 L 10.2939,-178.156 L 10.4463,-178.266 L 10.6113,-178.357 L 10.7865,-178.427 L 10.9689,-178.473
 L 11.1558,-178.497 L 11.3442,-178.497 L 11.5311,-178.473 L 11.7135,-178.427 L 11.8887,-178.357 L 12.0537,-178.266
 L 12.2061,-178.156 L 12.3434,-178.027 L 12.4635,-177.882 L 12.5645,-177.723 L 12.6447,-177.552 L 12.7029,-177.373
 L 12.7382,-177.188 L 12.75,-177 L 12.7382,-176.812 L 12.7029,-176.627 L 12.6447,-176.448 L 12.5645,-176.277
 L 12.4635,-176.118 L 12.3434,-175.973 L 12.2061,-175.844 L 12.0537,-175.734 L 11.8887,-175.643 L 11.7135,-175.573
 L 11.5311,-175.527 L 11.3442,-175.503 z
M -11.3442,-175.503 L -11.5311,-175.527 L -11.7135,-175.573 L -11.8887,-175.643 L -12.0537,-175.734 L -12.2061,-175.844
 L -12.3434,-175.973 L -12.4635,-176.118 L -12.5645,-176.277 L -12.6447,-176.448 L -12.7029,-176.627 L -12.7382,-176.812
 L -12.75,-177 L -12.7382,-177.188 L -12.7029,-177.373 L -12.6447,-177.552 L -12.5645,-177.723 L -12.4635,-177.882
 L -12.3434,-178.027 L -12.2061,-178.156 L -12.0537,-178.266 L -11.8887,-178.357 L -11.7135,-178.427 L -11.5311,-178.473
 L -11.3442,-178.497 L -11.1558,-178.497 L -10.9689,-178.473 L -10.7865,-178.427 L -10.6113,-178.357 L -10.4463,-178.266
 L -10.2939,-178.156 L -10.1565,-178.027 L -10.0365,-177.882 L -9.93553,-177.723 L -9.85533,-177.552 L -9.79712,-177.373
 L -9.76183,-177.188 L -9.75,-177 L -9.76183,-176.812 L -9.79712,-176.627 L -9.85533,-176.448 L -9.93553,-176.277
 L -10.0365,-176.118 L -10.1565,-175.973 L -10.2939,-175.844 L -10.4463,-175.734 L -10.6113,-175.643 L -10.7865,-175.573
 L -10.9689,-175.527 L -11.1558,-175.503 z
M 11.1558,-145.503 L 10.9689,-145.527 L 10.7865,-145.573 L 10.6113,-145.643 L 10.4463,-145.734 L 10.2939,-145.844
 L 10.1565,-145.973 L 10.0365,-146.118 L 9.93553,-146.277 L 9.85533,-146.448 L 9.79712,-146.627 L 9.76183,-146.812
 L 9.75,-147 L 9.76183,-147.188 L 9.79712,-147.373 L 9.85533,-147.552 L 9.93553,-147.723 L 10.0365,-147.882
 L 10.1565,-148.027 L 10.2939,-148.156 L 10.4463,-148.266 L 10.6113,-148.357 L 10.7865,-148.427 L 10.9689,-148.473
 L 11.1558,-148.497 L 11.3442,-148.497 L 11.5311,-148.473 L 11.7135,-148.427 L 11.8887,-148.357 L 12.0537,-148.266
 L 12.2061,-148.156 L 12.3434,-148.027 L 12.4635,-147.882 L 12.5645,-147.723 L 12.6447,-147.552 L 12.7029,-147.373
 L 12.7382,-147.188 L 12.75,-147 L 12.7382,-146.812 L 12.7029,-146.627 L 12.6447,-146.448 L 12.5645,-146.277
 L 12.4635,-146.118 L 12.3434,-145.973 L 12.2061,-145.844 L 12.0537,-145.734 L 11.8887,-145.643 L 11.7135,-145.573
 L 11.5311,-145.527 L 11.3442,-145.503 z
M -11.3442,-145.503 L -11.5311,-145.527 L -11.7135,-145.573 L -11.8887,-145.643 L -12.0537,-145.734 L -12.2061,-145.844
 L -12.3434,-145.973 L -12.4635,-146.118 L -12.5645,-146.277 L -12.6447,-146.448 L -12.7029,-146.627 L -12.7382,-146.812
 L -12.75,-147 L -12.7382,-147.188 L -12.7029,-147.373 L -12.6447,-147.552 L -12.5645,-147.723 L -12.4635,-147.882
 L -12.3434,-148.027 L -12.2061,-148.156 L -12.0537,-148.266 L -11.8887,-148.357 L -11.7135,-148.427 L -11.5311,-148.473
 L -11.3442,-148.497 L -11.1558,-148.497 L -10.9689,-148.473 L -10.7865,-148.427 L -10.6113,-148.357 L -10.4463,-148.266
 L -10.2939,-148.156 L -10.1565,-148.027 L -10.0365,-147.882 L -9.93553,-147.723 L -9.85533,-147.552 L -9.79712,-147.373
 L -9.76183,-147.188 L -9.75,-147 L -9.76183,-146.812 L -9.79712,-146.627 L -9.85533,-146.448 L -9.93553,-146.277
 L -10.0365,-146.118 L -10.1565,-145.973 L -10.2939,-145.844 L -10.4463,-145.734 L -10.6113,-145.643 L -10.7865,-145.573
 L -10.9689,-145.527 L -11.1558,-145.503 z
" stroke="black" fill="lightgray" stroke-width="0.5"/>
</svg>
