<?xml version="1.0" standalone="no"?>
<!DOCTYPE svg PUBLIC "-//W3C//DTD SVG 1.1//EN" "http://www.w3.org/Graphics/SVG/1.1/DTD/svg11.dtd">
<svg width="16mm" height="147mm" viewBox="-8 -249 16 147" xmlns="http://www.w3.org/2000/svg" version="1.1">
<title>OpenSCAD Model</title>
<path d="
M 3.4369,-219.089 L 4.04507,-219.245 L 4.62889,-219.476 L 5.17912,-219.778 L 5.68712,-220.147 L 6.14484,-220.577
 L 6.54507,-221.061 L 6.88153,-221.591 L 7.14888,-222.159 L 7.34291,-222.757 L 7.46057,-223.373 L 7.5,-224
 L 7.5,-244 L 7.46057,-244.627 L 7.34291,-245.243 L 7.14888,-245.841 L 6.88153,-246.409 L 6.54507,-246.939
 L 6.14484,-247.423 L 5.68712,-247.853 L 5.17912,-248.222 L 4.62889,-248.524 L 4.04507,-248.755 L 3.4369,-248.911
 L 2.81395,-248.99 L -2.81395,-248.99 L -3.4369,-248.911 L -4.04507,-248.755 L -4.62889,-248.524 L -5.17912,-248.222
 L -5.68712,-247.853 L -6.14484,-247.423 L -6.54507,-246.939 L -6.88153,-246.409 L -7.14888,-245.841 L -7.34291,-245.243
 L -7.46057,-244.627 L -7.5,-244 L -7.5,-224 L -7.46057,-223.373 L -7.34291,-222.757 L -7.14888,-222.159
 L -6.88153,-221.591 L -6.54507,-221.061 L -6.14484,-220.577 L -5.68712,-220.147 L -5.17912,-219.778 L -4.62889,-219.476
 L -4.04507,-219.245 L -3.4369,-219.089 L -2.81395,-219.01 L 2.81395,-219.01 z
M -2.54825,-219.509 L -3.14006,-219.584 L -3.71782,-219.732 L -4.27245,-219.952 L -4.79517,-220.239 L -5.27776,-220.59
 L -5.7126,-220.998 L -6.09282,-221.458 L -6.41245,-221.962 L -6.66643,-222.501 L -6.85077,-223.069 L -6.96254,-223.655
 L -7,-224.25 L -7,-243.75 L -6.96254,-244.345 L -6.85077,-244.931 L -6.66643,-245.499 L -6.41245,-246.038
 L -6.09282,-246.542 L -5.7126,-247.002 L -5.27776,-247.41 L -4.79517,-247.761 L -4.27245,-248.048 L -3.71782,-248.268
 L -3.14006,-248.416 L -2.54825,-248.491 L 2.54825,-248.491 L 3.14006,-248.416 L 3.71782,-248.268 L 4.27245,-248.048
 L 4.79517,-247.761 L 5.27776,-247.41 L 5.7126,-247.002 L 6.09282,-246.542 L 6.41245,-246.038 L 6.66643,-245.499
 L 6.85077,-244.931 L 6.96254,-244.345 L 7,-243.75 L 7,-224.25 L 6.96254,-223.655 L 6.85077,-223.069
 L 6.66643,-222.501 L 6.41245,-221.962 L 6.09282,-221.458 L 5.7126,-220.998 L 5.27776,-220.59 L 4.79517,-220.239
 L 4.27245,-219.952 L 3.71782,-219.732 L 3.14006,-219.584 L 2.54825,-219.509 z
M 3.4369,-180.089 L 4.04507,-180.245 L 4.62889,-180.476 L 5.17912,-180.778 L 5.68712,-181.147 L 6.14484,-181.577
 L 6.54507,-182.061 L 6.88153,-182.591 L 7.14888,-183.159 L 7.34291,-183.757 L 7.46057,-184.373 L 7.5,-185
 L 7.5,-205 L 7.46057,-205.627 L 7.34291,-206.243 L 7.14888,-206.841 L 6.88153,-207.409 L 6.54507,-207.939
 L 6.14484,-208.423 L 5.68712,-208.853 L 5.17912,-209.222 L 4.62889,-209.524 L 4.04507,-209.755 L 3.4369,-209.911
 L 2.81395,-209.99 L -2.81395,-209.99 L -3.4369,-209.911 L -4.04507,-209.755 L -4.62889,-209.524 L -5.17912,-209.222
 L -5.68712,-208.853 L -6.14484,-208.423 L -6.54507,-207.939 L -6.88153,-207.409 L -7.14888,-206.841 L -7.34291,-206.243
 L -7.46057,-205.627 L -7.5,-205 L -7.5,-185 L -7.46057,-184.373 L -7.34291,-183.757 L -7.14888,-183.159
 L -6.88153,-182.591 L -6.54507,-182.061 L -6.14484,-181.577 L -5.68712,-181.147 L -5.17912,-180.778 L -4.62889,-180.476
 L -4.04507,-180.245 L -3.4369,-180.089 L -2.81395,-180.01 L 2.81395,-180.01 z
M -2.54825,-180.509 L -3.14006,-180.584 L -3.71782,-180.732 L -4.27245,-180.952 L -4.79517,-181.239 L -5.27776,-181.59
 L -5.7126,-181.998 L -6.09282,-182.458 L -6.41245,-182.962 L -6.66643,-183.501 L -6.85077,-184.069 L -6.96254,-184.655
 L -7,-185.25 L -7,-204.75 L -6.96254,-205.345 L -6.85077,-205.931 L -6.66643,-206.499 L -6.41245,-207.038
 L -6.09282,-207.542 L -5.7126,-208.002 L -5.27776,-208.41 L -4.79517,-208.761 L -4.27245,-209.048 L -3.71782,-209.268
 L -3.14006,-209.416 L -2.54825,-209.491 L 2.54825,-209.491 L 3.14006,-209.416 L 3.71782,-209.268 L 4.27245,-209.048
 L 4.79517,-208.761 L 5.27776,-208.41 L 5.7126,-208.002 L 6.09282,-207.542 L 6.41245,-207.038 L 6.66643,-206.499
 L 6.85077,-205.931 L 6.96254,-205.345 L 7,-204.75 L 7,-185.25 L 6.96254,-184.655 L 6.85077,-184.069
 L 6.66643,-183.501 L 6.41245,-182.962 L 6.09282,-182.458 L 5.7126,-181.998 L 5.27776,-181.59 L 4.79517,-181.239
 L 4.27245,-180.952 L 3.71782,-180.732 L 3.14006,-180.584 L 2.54825,-180.509 z
M 3.4369,-141.089 L 4.04507,-141.245 L 4.62889,-141.476 L 5.17912,-141.778 L 5.68712,-142.147 L 6.14484,-142.577
 L 6.54507,-143.061 L 6.88153,-143.591 L 7.14888,-144.159 L 7.34291,-144.757 L 7.46057,-145.373 L 7.5,-146
 L 7.5,-166 L 7.46057,-166.627 L 7.34291,-167.243 L 7.14888,-167.841 L 6.88153,-168.409 L 6.54507,-168.939
 L 6.14484,-169.423 L 5.68712,-169.853 L 5.17912,-170.222 L 4.62889,-170.524 L 4.04507,-170.755 L 3.4369,-170.911
 L 2.81395,-170.99 L -2.81395,-170.99 L -3.4369,-170.911 L -4.04507,-170.755 L -4.62889,-170.524 L -5.17912,-170.222
 L -5.68712,-169.853 L -6.14484,-169.423 L -6.54507,-168.939 L -6.88153,-168.409 L -7.14888,-167.841 L -7.34291,-167.243
 L -7.46057,-166.627 L -7.5,-166 L -7.5,-146 L -7.46057,-145.373 L -7.34291,-144.757 L -7.14888,-144.159
 L -6.88153,-143.591 L -6.54507,-143.061 L -6.14484,-142.577 L -5.68712,-142.147 L -5.17912,-141.778 L -4.62889,-141.476
 L -4.04507,-141.245 L -3.4369,-141.089 L -2.81395,-141.01 L 2.81395,-141.01 z
M -2.49297,-142.388 L -2.97505,-142.449 L -3.44572,-142.57 L -3.89754,-142.749 L -4.32336,-142.983 L -4.71649,-143.269
 L -5.07071,-143.601 L -5.38046,-143.976 L -5.64084,-144.386 L -5.84773,-144.826 L -5.99789,-145.288 L -6.08896,-145.765
 L -6.11946,-146.25 L -6.11946,-165.75 L -6.08896,-166.235 L -5.99789,-166.712 L -5.84773,-167.174 L -5.64084,-167.614
 L -5.38046,-168.024 L -5.07071,-168.399 L -4.71649,-168.731 L -4.32336,-169.017 L -3.89754,-169.251 L -3.44572,-169.43
 L -2.97505,-169.551 L -2.49297,-169.612 L 2.49297,-169.612 L 2.97505,-169.551 L 3.44572,-169.43 L 3.89754,-169.251
 L 4.32336,-169.017 L 4.71649,-168.731 L 5.07071,-168.399 L 5.38046,-168.024 L 5.64084,-167.614 L 5.84773,-167.174
 L 5.99789,-166.712 L 6.08896,-166.235 L 6.11946,-165.75 L 6.11946,-146.25 L 6.08896,-145.765 L 5.99789,-145.288
 L 5.84773,-144.826 L 5.64084,-144.386 L 5.38046,-143.976 L 5.07071,-143.601 L 4.71649,-143.269 L 4.32336,-142.983
 L 3.89754,-142.749 L 3.44572,-142.57 L 2.97505,-142.449 L 2.49297,-142.388 z
M 3.4369,-102.089 L 4.04507,-102.245 L 4.62889,-102.476 L 5.17912,-102.778 L 5.68712,-103.147 L 6.14484,-103.577
 L 6.54507,-104.061 L 6.88153,-104.591 L 7.14888,-105.159 L 7.34291,-105.757 L 7.46057,-106.373 L 7.5,-107
 L 7.5,-127 L 7.46057,-127.627 L 7.34291,-128.243 L 7.14888,-128.841 L 6.88153,-129.409 L 6.54507,-129.939
 L 6.14484,-130.423 L 5.68712,-130.853 L 5.17912,-131.222 L 4.62889,-131.524 L 4.04507,-131.755 L 3.4369,-131.911
 L 2.81395,-131.99 L -2.81395,-131.99 L -3.4369,-131.911 L -4.04507,-131.755 L -4.62889,-131.524 L -5.17912,-131.222
 L -5.68712,-130.853 L -6.14484,-130.423 L -6.54507,-129.939 L -6.88153,-129.409 L -7.14888,-128.841 L -7.34291,-128.243
 L -7.46057,-127.627 L -7.5,-127 L -7.5,-107 L -7.46057,-106.373 L -7.34291,-105.757 L -7.14888,-105.159
 L -6.88153,-104.591 L -6.54507,-104.061 L -6.14484,-103.577 L -5.68712,-103.147 L -5.17912,-102.778 L -4.62889,-102.476
 L -4.04507,-102.245 L -3.4369,-102.089 L -2.81395,-102.01 L 2.81395,-102.01 z
M -0.0941772,-123.003 L -0.281067,-123.027 L -0.463516,-123.073 L -0.638657,-123.143 L -0.803726,-123.234 L -0.956131,-123.344
 L -1.09344,-123.473 L -1.21352,-123.618 L -1.31445,-123.777 L -1.39465,-123.948 L -1.45287,-124.127 L -1.48816,-124.312
 L -1.5,-124.5 L -1.48816,-124.688 L -1.45287,-124.873 L -1.39465,-125.052 L -1.31445,-125.223 L -1.21352,-125.382
 L -1.09344,-125.527 L -0.956131,-125.656 L -0.803726,-125.766 L -0.638657,-125.857 L -0.463516,-125.927 L -0.281067,-125.973
 L -0.0941772,-125.997 L 0.0941772,-125.997 L 0.281067,-125.973 L 0.463516,-125.927 L 0.638657,-125.857 L 0.803726,-125.766
 L 0.956131,-125.656 L 1.09344,-125.527 L 1.21352,-125.382 L 1.31445,-125.223 L 1.39465,-125.052 L 1.45287,-124.873
 L 1.48816,-124.688 L 1.5,-124.5 L 1.48816,-124.312 L 1.45287,-124.127 L 1.39465,-123.948 L 1.31445,-123.777
 L 1.21352,-123.618 L 1.09344,-123.473 L 0.956131,-123.344 L 0.803726,-123.234 L 0.638657,-123.143 L 0.463516,-123.073
 L 0.281067,-123.027 L 0.0941772,-123.003 z
M -0.0941772,-108.003 L -0.281067,-108.027 L -0.463516,-108.073 L -0.638657,-108.143 L -0.803726,-108.234 L -0.956131,-108.344
 L -1.09344,-108.473 L -1.21352,-108.618 L -1.31445,-108.777 L -1.39465,-108.948 L -1.45287,-109.127 L -1.48816,-109.312
 L -1.5,-109.5 L -1.48816,-109.688 L -1.45287,-109.873 L -1.39465,-110.052 L -1.31445,-110.223 L -1.21352,-110.382
 L -1.09344,-110.527 L -0.956131,-110.656 L -0.803726,-110.766 L -0.638657,-110.857 L -0.463516,-110.927 L -0.281067,-110.973
 L -0.0941772,-110.997 L 0.0941772,-110.997 L 0.281067,-110.973 L 0.463516,-110.927 L 0.638657,-110.857 L 0.803726,-110.766
 L 0.956131,-110.656 L 1.09344,-110.527 L 1.21352,-110.382 L 1.31445,-110.223 L 1.39465,-110.052 L 1.45287,-109.873
 L 1.48816,-109.688 L 1.5,-109.5 L 1.48816,-109.312 L 1.45287,-109.127 L 1.39465,-108.948 L 1.31445,-108.777
 L 1.21352,-108.618 L 1.09344,-108.473 L 0.956131,-108.344 L 0.803726,-108.234 L 0.638657,-108.143 L 0.463516,-108.073
 L 0.281067,-108.027 L 0.0941772,-108.003 z
" stroke="black" fill="lightgray" stroke-width="0.5"/>
</svg>
