<?xml version="1.0" standalone="no"?>
<!DOCTYPE svg PUBLIC "-//W3C//DTD SVG 1.1//EN" "http://www.w3.org/Graphics/SVG/1.1/DTD/svg11.dtd">
<svg width="44mm" height="213mm" viewBox="-22 -183 44 213" xmlns="http://www.w3.org/2000/svg" version="1.1">
<title>OpenSCAD Model</title>
<path d="
M 22,-177.5 L 21.9606,-178.127 L 21.8429,-178.743 L 21.6489,-179.341 L 21.3815,-179.909 L 21.0451,-180.439
 L 20.6448,-180.923 L 20.1871,-181.353 L 19.6791,-181.722 L 19.1289,-182.024 L 18.5451,-182.255 L 17.9369,-182.411
 L 17.3139,-182.49 L -17.3139,-182.49 L -17.9369,-182.411 L -18.5451,-182.255 L -19.1289,-182.024 L -19.6791,-181.722
 L -20.1871,-181.353 L -20.6448,-180.923 L -21.0451,-180.439 L -21.3815,-179.909 L -21.6489,-179.341 L -21.8429,-178.743
 L -21.9606,-178.127 L -22,-177.5 L -22,-132 L 22,-132 z
M 15.3179,-174.606 L 14.9566,-174.651 L 14.6038,-174.742 L 14.2652,-174.876 L 13.9461,-175.051 L 13.6515,-175.266
 L 13.386,-175.515 L 13.1538,-175.795 L 12.9587,-176.103 L 12.8036,-176.432 L 12.6911,-176.779 L 12.6229,-177.137
 L 12.6,-177.5 L 12.6229,-177.863 L 12.6911,-178.221 L 12.8036,-178.568 L 12.9587,-178.897 L 13.1538,-179.205
 L 13.386,-179.485 L 13.6515,-179.734 L 13.9461,-179.949 L 14.2652,-180.124 L 14.6038,-180.258 L 14.9566,-180.349
 L 15.3179,-180.394 L 15.6821,-180.394 L 16.0434,-180.349 L 16.3961,-180.258 L 16.7348,-180.124 L 17.0539,-179.949
 L 17.3485,-179.734 L 17.614,-179.485 L 17.8461,-179.205 L 18.0413,-178.897 L 18.1964,-178.568 L 18.3089,-178.221
 L 18.3771,-177.863 L 18.4,-177.5 L 18.3771,-177.137 L 18.3089,-176.779 L 18.1964,-176.432 L 18.0413,-176.103
 L 17.8461,-175.795 L 17.614,-175.515 L 17.3485,-175.266 L 17.0539,-175.051 L 16.7348,-174.876 L 16.3961,-174.742
 L 16.0434,-174.651 L 15.6821,-174.606 z
M -15.6821,-174.606 L -16.0434,-174.651 L -16.3961,-174.742 L -16.7348,-174.876 L -17.0539,-175.051 L -17.3485,-175.266
 L -17.614,-175.515 L -17.8461,-175.795 L -18.0413,-176.103 L -18.1964,-176.432 L -18.3089,-176.779 L -18.3771,-177.137
 L -18.4,-177.5 L -18.3771,-177.863 L -18.3089,-178.221 L -18.1964,-178.568 L -18.0413,-178.897 L -17.8461,-179.205
 L -17.614,-179.485 L -17.3485,-179.734 L -17.0539,-179.949 L -16.7348,-180.124 L -16.3961,-180.258 L -16.0434,-180.349
 L -15.6821,-180.394 L -15.3179,-180.394 L -14.9566,-180.349 L -14.6038,-180.258 L -14.2652,-180.124 L -13.9461,-179.949
 L -13.6515,-179.734 L -13.386,-179.485 L -13.1538,-179.205 L -12.9587,-178.897 L -12.8036,-178.568 L -12.6911,-178.221
 L -12.6229,-177.863 L -12.6,-177.5 L -12.6229,-177.137 L -12.6911,-176.779 L -12.8036,-176.432 L -12.9587,-176.103
 L -13.1538,-175.795 L -13.386,-175.515 L -13.6515,-175.266 L -13.9461,-175.051 L -14.2652,-174.876 L -14.6038,-174.742
 L -14.9566,-174.651 L -15.3179,-174.606 z
M -0.879059,-148.028 L -2.62334,-148.248 L -4.32623,-148.685 L -5.96091,-149.332 L -7.50157,-150.179 L -8.92393,-151.213
 L -10.2056,-152.416 L -11.3262,-153.771 L -12.2683,-155.255 L -13.0169,-156.846 L -13.5602,-158.518 L -13.8896,-160.245
 L -14,-162 L -13.8896,-163.755 L -13.5602,-165.482 L -13.0169,-167.154 L -12.2683,-168.745 L -11.3262,-170.229
 L -10.2056,-171.584 L -8.92393,-172.787 L -7.50157,-173.821 L -5.96091,-174.668 L -4.32623,-175.315 L -2.62334,-175.752
 L -0.879059,-175.972 L 0.879059,-175.972 L 2.62334,-175.752 L 4.32623,-175.315 L 5.96091,-174.668 L 7.50157,-173.821
 L 8.92393,-172.787 L 10.2056,-171.584 L 11.3262,-170.229 L 12.2683,-168.745 L 13.0169,-167.154 L 13.5602,-165.482
 L 13.8896,-163.755 L 14,-162 L 13.8896,-160.245 L 13.5602,-158.518 L 13.0169,-156.846 L 12.2683,-155.255
 L 11.3262,-153.771 L 10.2056,-152.416 L 8.92393,-151.213 L 7.50157,-150.179 L 5.96091,-149.332 L 4.32623,-148.685
 L 2.62334,-148.248 L 0.879059,-148.028 z
M 15.3179,-143.606 L 14.9566,-143.651 L 14.6038,-143.742 L 14.2652,-143.876 L 13.9461,-144.051 L 13.6515,-144.266
 L 13.386,-144.515 L 13.1538,-144.795 L 12.9587,-145.103 L 12.8036,-145.432 L 12.6911,-145.779 L 12.6229,-146.137
 L 12.6,-146.5 L 12.6229,-146.863 L 12.6911,-147.221 L 12.8036,-147.568 L 12.9587,-147.897 L 13.1538,-148.205
 L 13.386,-148.485 L 13.6515,-148.734 L 13.9461,-148.949 L 14.2652,-149.124 L 14.6038,-149.258 L 14.9566,-149.349
 L 15.3179,-149.394 L 15.6821,-149.394 L 16.0434,-149.349 L 16.3961,-149.258 L 16.7348,-149.124 L 17.0539,-148.949
 L 17.3485,-148.734 L 17.614,-148.485 L 17.8461,-148.205 L 18.0413,-147.897 L 18.1964,-147.568 L 18.3089,-147.221
 L 18.3771,-146.863 L 18.4,-146.5 L 18.3771,-146.137 L 18.3089,-145.779 L 18.1964,-145.432 L 18.0413,-145.103
 L 17.8461,-144.795 L 17.614,-144.515 L 17.3485,-144.266 L 17.0539,-144.051 L 16.7348,-143.876 L 16.3961,-143.742
 L 16.0434,-143.651 L 15.6821,-143.606 z
M -15.6821,-143.606 L -16.0434,-143.651 L -16.3961,-143.742 L -16.7348,-143.876 L -17.0539,-144.051 L -17.3485,-144.266
 L -17.614,-144.515 L -17.8461,-144.795 L -18.0413,-145.103 L -18.1964,-145.432 L -18.3089,-145.779 L -18.3771,-146.137
 L -18.4,-146.5 L -18.3771,-146.863 L -18.3089,-147.221 L -18.1964,-147.568 L -18.0413,-147.897 L -17.8461,-148.205
 L -17.614,-148.485 L -17.3485,-148.734 L -17.0539,-148.949 L -16.7348,-149.124 L -16.3961,-149.258 L -16.0434,-149.349
 L -15.6821,-149.394 L -15.3179,-149.394 L -14.9566,-149.349 L -14.6038,-149.258 L -14.2652,-149.124 L -13.9461,-148.949
 L -13.6515,-148.734 L -13.386,-148.485 L -13.1538,-148.205 L -12.9587,-147.897 L -12.8036,-147.568 L -12.6911,-147.221
 L -12.6229,-146.863 L -12.6,-146.5 L -12.6229,-146.137 L -12.6911,-145.779 L -12.8036,-145.432 L -12.9587,-145.103
 L -13.1538,-144.795 L -13.386,-144.515 L -13.6515,-144.266 L -13.9461,-144.051 L -14.2652,-143.876 L -14.6038,-143.742
 L -14.9566,-143.651 L -15.3179,-143.606 z
M -5.34662,-135.1 L -5.34662,-140.5 L 5.34662,-140.5 L 5.34662,-135.1 z
M -20.3466,-135.1 L -20.3466,-140.5 L -9.65337,-140.5 L -9.65337,-135.1 z
M 9.65337,-135.1 L 9.65337,-140.5 L 20.3466,-140.5 L 20.3466,-135.1 z
M -17.5307,-81.1 L -20.3466,-81.1 L -20.3466,-86.5 L -17.5307,-86.5 L -17.5307,-91.5 L -16.6156,-91.5
 L -16.7135,-91.6183 L -16.8145,-91.7774 L -16.8947,-91.9478 L -16.9529,-92.127 L -16.9882,-92.312 L -17,-92.5
 L -16.9882,-92.688 L -16.9529,-92.873 L -16.8947,-93.0522 L -16.8145,-93.2226 L -16.7135,-93.3817 L -16.5934,-93.5268
 L -16.4561,-93.6558 L -16.3037,-93.7665 L -16.1387,-93.8573 L -15.9635,-93.9266 L -15.7811,-93.9734 L -15.5942,-93.9971
 L -15.4058,-93.9971 L -15.2189,-93.9734 L -15.0365,-93.9266 L -14.8613,-93.8573 L -14.6963,-93.7665 L -14.5439,-93.6558
 L -14.4065,-93.5268 L -14.2865,-93.3817 L -14.1855,-93.2226 L -14.1053,-93.0522 L -14.0471,-92.873 L -14.0118,-92.688
 L -14,-92.5 L -14.0118,-92.312 L -14.0471,-92.127 L -14.1053,-91.9478 L -14.1855,-91.7774 L -14.2865,-91.6183
 L -14.3844,-91.5 L -12.4693,-91.5 L -12.4693,-86.5 L -9.65337,-86.5 L -9.65337,-81.1 L -12.4693,-81.1
 L -12.4693,-78 L -2.53072,-78 L -2.53072,-81.1 L -5.34662,-81.1 L -5.34662,-86.5 L -2.53072,-86.5
 L -2.53072,-91.5 L 2.53072,-91.5 L 2.53072,-86.5 L 5.34662,-86.5 L 5.34662,-81.1 L 2.53072,-81.1
 L 2.53072,-78 L 12.4693,-78 L 12.4693,-81.1 L 9.65337,-81.1 L 9.65337,-86.5 L 12.4693,-86.5
 L 12.4693,-91.5 L 14.3844,-91.5 L 14.2865,-91.6183 L 14.1855,-91.7774 L 14.1053,-91.9478 L 14.0471,-92.127
 L 14.0118,-92.312 L 14,-92.5 L 14.0118,-92.688 L 14.0471,-92.873 L 14.1053,-93.0522 L 14.1855,-93.2226
 L 14.2865,-93.3817 L 14.4065,-93.5268 L 14.5439,-93.6558 L 14.6963,-93.7665 L 14.8613,-93.8573 L 15.0365,-93.9266
 L 15.2189,-93.9734 L 15.4058,-93.9971 L 15.5942,-93.9971 L 15.7811,-93.9734 L 15.9635,-93.9266 L 16.1387,-93.8573
 L 16.3037,-93.7665 L 16.4561,-93.6558 L 16.5934,-93.5268 L 16.7135,-93.3817 L 16.8145,-93.2226 L 16.8947,-93.0522
 L 16.9529,-92.873 L 16.9882,-92.688 L 17,-92.5 L 16.9882,-92.312 L 16.9529,-92.127 L 16.8947,-91.9478
 L 16.8145,-91.7774 L 16.7135,-91.6183 L 16.6156,-91.5 L 17.5307,-91.5 L 17.5307,-86.5 L 20.3466,-86.5
 L 20.3466,-81.1 L 17.5307,-81.1 L 17.5307,-78 L 22,-78 L 22,-123.5 L 21.9606,-124.127
 L 21.8429,-124.743 L 21.6489,-125.341 L 21.3815,-125.909 L 21.0451,-126.439 L 20.6448,-126.923 L 20.1871,-127.353
 L 19.6791,-127.722 L 19.1289,-128.024 L 18.5451,-128.255 L 17.9369,-128.411 L 17.3139,-128.49 L -17.3139,-128.49
 L -17.9369,-128.411 L -18.5451,-128.255 L -19.1289,-128.024 L -19.6791,-127.722 L -20.1871,-127.353 L -20.6448,-126.923
 L -21.0451,-126.439 L -21.3815,-125.909 L -21.6489,-125.341 L -21.8429,-124.743 L -21.9606,-124.127 L -22,-123.5
 L -22,-78 L -17.5307,-78 z
M 15.4058,-122.003 L 15.2189,-122.027 L 15.0365,-122.073 L 14.8613,-122.143 L 14.6963,-122.234 L 14.5439,-122.344
 L 14.4065,-122.473 L 14.2865,-122.618 L 14.1855,-122.777 L 14.1053,-122.948 L 14.0471,-123.127 L 14.0118,-123.312
 L 14,-123.5 L 14.0118,-123.688 L 14.0471,-123.873 L 14.1053,-124.052 L 14.1855,-124.223 L 14.2865,-124.382
 L 14.4065,-124.527 L 14.5439,-124.656 L 14.6963,-124.766 L 14.8613,-124.857 L 15.0365,-124.927 L 15.2189,-124.973
 L 15.4058,-124.997 L 15.5942,-124.997 L 15.7811,-124.973 L 15.9635,-124.927 L 16.1387,-124.857 L 16.3037,-124.766
 L 16.4561,-124.656 L 16.5934,-124.527 L 16.7135,-124.382 L 16.8145,-124.223 L 16.8947,-124.052 L 16.9529,-123.873
 L 16.9882,-123.688 L 17,-123.5 L 16.9882,-123.312 L 16.9529,-123.127 L 16.8947,-122.948 L 16.8145,-122.777
 L 16.7135,-122.618 L 16.5934,-122.473 L 16.4561,-122.344 L 16.3037,-122.234 L 16.1387,-122.143 L 15.9635,-122.073
 L 15.7811,-122.027 L 15.5942,-122.003 z
M -15.5942,-122.003 L -15.7811,-122.027 L -15.9635,-122.073 L -16.1387,-122.143 L -16.3037,-122.234 L -16.4561,-122.344
 L -16.5934,-122.473 L -16.7135,-122.618 L -16.8145,-122.777 L -16.8947,-122.948 L -16.9529,-123.127 L -16.9882,-123.312
 L -17,-123.5 L -16.9882,-123.688 L -16.9529,-123.873 L -16.8947,-124.052 L -16.8145,-124.223 L -16.7135,-124.382
 L -16.5934,-124.527 L -16.4561,-124.656 L -16.3037,-124.766 L -16.1387,-124.857 L -15.9635,-124.927 L -15.7811,-124.973
 L -15.5942,-124.997 L -15.4058,-124.997 L -15.2189,-124.973 L -15.0365,-124.927 L -14.8613,-124.857 L -14.6963,-124.766
 L -14.5439,-124.656 L -14.4065,-124.527 L -14.2865,-124.382 L -14.1855,-124.223 L -14.1053,-124.052 L -14.0471,-123.873
 L -14.0118,-123.688 L -14,-123.5 L -14.0118,-123.312 L -14.0471,-123.127 L -14.1053,-122.948 L -14.1855,-122.777
 L -14.2865,-122.618 L -14.4065,-122.473 L -14.5439,-122.344 L -14.6963,-122.234 L -14.8613,-122.143 L -15.0365,-122.073
 L -15.2189,-122.027 L -15.4058,-122.003 z
M -0.879059,-94.0276 L -2.62334,-94.248 L -4.32623,-94.6852 L -5.96091,-95.3324 L -7.50157,-96.1794 L -8.92393,-97.2128
 L -10.2056,-98.4164 L -11.3262,-99.771 L -12.2683,-101.255 L -13.0169,-102.846 L -13.5602,-104.518 L -13.8896,-106.245
 L -14,-108 L -13.8896,-109.755 L -13.5602,-111.482 L -13.0169,-113.154 L -12.2683,-114.745 L -11.3262,-116.229
 L -10.2056,-117.584 L -8.92393,-118.787 L -7.50157,-119.821 L -5.96091,-120.668 L -4.32623,-121.315 L -2.62334,-121.752
 L -0.879059,-121.972 L 0.879059,-121.972 L 2.62334,-121.752 L 4.32623,-121.315 L 5.96091,-120.668 L 7.50157,-119.821
 L 8.92393,-118.787 L 10.2056,-117.584 L 11.3262,-116.229 L 12.2683,-114.745 L 13.0169,-113.154 L 13.5602,-111.482
 L 13.8896,-109.755 L 14,-108 L 13.8896,-106.245 L 13.5602,-104.518 L 13.0169,-102.846 L 12.2683,-101.255
 L 11.3262,-99.771 L 10.2056,-98.4164 L 8.92393,-97.2128 L 7.50157,-96.1794 L 5.96091,-95.3324 L 4.32623,-94.6852
 L 2.62334,-94.248 L 0.879059,-94.0276 z
M -17.5942,-27.1 L -20.3466,-27.1 L -20.3466,-32.5 L -17.5942,-32.5 L -17.5942,-37.5 L -16.6156,-37.5
 L -16.7135,-37.6183 L -16.8145,-37.7774 L -16.8947,-37.9478 L -16.9529,-38.127 L -16.9882,-38.312 L -17,-38.5
 L -16.9882,-38.688 L -16.9529,-38.873 L -16.8947,-39.0522 L -16.8145,-39.2226 L -16.7135,-39.3817 L -16.5934,-39.5268
 L -16.4561,-39.6558 L -16.3037,-39.7665 L -16.1387,-39.8573 L -15.9635,-39.9266 L -15.7811,-39.9734 L -15.5942,-39.9971
 L -15.4058,-39.9971 L -15.2189,-39.9734 L -15.0365,-39.9266 L -14.8613,-39.8573 L -14.6963,-39.7665 L -14.5439,-39.6558
 L -14.4065,-39.5268 L -14.2865,-39.3817 L -14.1855,-39.2226 L -14.1053,-39.0522 L -14.0471,-38.873 L -14.0118,-38.688
 L -14,-38.5 L -14.0118,-38.312 L -14.0471,-38.127 L -14.1053,-37.9478 L -14.1855,-37.7774 L -14.2865,-37.6183
 L -14.3844,-37.5 L -12.4058,-37.5 L -12.4058,-32.5 L -9.65337,-32.5 L -9.65337,-27.1 L -12.4058,-27.1
 L -12.4058,-24 L -2.59418,-24 L -2.59418,-27.1 L -5.34662,-27.1 L -5.34662,-32.5 L -2.59418,-32.5
 L -2.59418,-37.5 L 2.59418,-37.5 L 2.59418,-32.5 L 5.34662,-32.5 L 5.34662,-27.1 L 2.59418,-27.1
 L 2.59418,-24 L 12.4058,-24 L 12.4058,-27.1 L 9.65337,-27.1 L 9.65337,-32.5 L 12.4058,-32.5
 L 12.4058,-37.5 L 14.3844,-37.5 L 14.2865,-37.6183 L 14.1855,-37.7774 L 14.1053,-37.9478 L 14.0471,-38.127
 L 14.0118,-38.312 L 14,-38.5 L 14.0118,-38.688 L 14.0471,-38.873 L 14.1053,-39.0522 L 14.1855,-39.2226
 L 14.2865,-39.3817 L 14.4065,-39.5268 L 14.5439,-39.6558 L 14.6963,-39.7665 L 14.8613,-39.8573 L 15.0365,-39.9266
 L 15.2189,-39.9734 L 15.4058,-39.9971 L 15.5942,-39.9971 L 15.7811,-39.9734 L 15.9635,-39.9266 L 16.1387,-39.8573
 L 16.3037,-39.7665 L 16.4561,-39.6558 L 16.5934,-39.5268 L 16.7135,-39.3817 L 16.8145,-39.2226 L 16.8947,-39.0522
 L 16.9529,-38.873 L 16.9882,-38.688 L 17,-38.5 L 16.9882,-38.312 L 16.9529,-38.127 L 16.8947,-37.9478
 L 16.8145,-37.7774 L 16.7135,-37.6183 L 16.6156,-37.5 L 17.5942,-37.5 L 17.5942,-32.5 L 20.3466,-32.5
 L 20.3466,-27.1 L 17.5942,-27.1 L 17.5942,-24 L 22,-24 L 22,-69.5 L 21.9606,-70.1267
 L 21.8429,-70.7434 L 21.6489,-71.3406 L 21.3815,-71.9088 L 21.0451,-72.4389 L 20.6448,-72.9227 L 20.1871,-73.3526
 L 19.6791,-73.7216 L 19.1289,-74.0241 L 18.5451,-74.2553 L 17.9369,-74.4114 L 17.3139,-74.4901 L -17.3139,-74.4901
 L -17.9369,-74.4114 L -18.5451,-74.2553 L -19.1289,-74.0241 L -19.6791,-73.7216 L -20.1871,-73.3526 L -20.6448,-72.9227
 L -21.0451,-72.4389 L -21.3815,-71.9088 L -21.6489,-71.3406 L -21.8429,-70.7434 L -21.9606,-70.1267 L -22,-69.5
 L -22,-24 L -17.5942,-24 z
M 15.4058,-68.0029 L 15.2189,-68.0266 L 15.0365,-68.0734 L 14.8613,-68.1427 L 14.6963,-68.2335 L 14.5439,-68.3442
 L 14.4065,-68.4732 L 14.2865,-68.6183 L 14.1855,-68.7774 L 14.1053,-68.9478 L 14.0471,-69.127 L 14.0118,-69.312
 L 14,-69.5 L 14.0118,-69.688 L 14.0471,-69.873 L 14.1053,-70.0522 L 14.1855,-70.2226 L 14.2865,-70.3817
 L 14.4065,-70.5268 L 14.5439,-70.6558 L 14.6963,-70.7665 L 14.8613,-70.8572 L 15.0365,-70.9266 L 15.2189,-70.9734
 L 15.4058,-70.997 L 15.5942,-70.997 L 15.7811,-70.9734 L 15.9635,-70.9266 L 16.1387,-70.8572 L 16.3037,-70.7665
 L 16.4561,-70.6558 L 16.5934,-70.5268 L 16.7135,-70.3817 L 16.8145,-70.2226 L 16.8947,-70.0522 L 16.9529,-69.873
 L 16.9882,-69.688 L 17,-69.5 L 16.9882,-69.312 L 16.9529,-69.127 L 16.8947,-68.9478 L 16.8145,-68.7774
 L 16.7135,-68.6183 L 16.5934,-68.4732 L 16.4561,-68.3442 L 16.3037,-68.2335 L 16.1387,-68.1427 L 15.9635,-68.0734
 L 15.7811,-68.0266 L 15.5942,-68.0029 z
M -15.5942,-68.0029 L -15.7811,-68.0266 L -15.9635,-68.0734 L -16.1387,-68.1427 L -16.3037,-68.2335 L -16.4561,-68.3442
 L -16.5934,-68.4732 L -16.7135,-68.6183 L -16.8145,-68.7774 L -16.8947,-68.9478 L -16.9529,-69.127 L -16.9882,-69.312
 L -17,-69.5 L -16.9882,-69.688 L -16.9529,-69.873 L -16.8947,-70.0522 L -16.8145,-70.2226 L -16.7135,-70.3817
 L -16.5934,-70.5268 L -16.4561,-70.6558 L -16.3037,-70.7665 L -16.1387,-70.8572 L -15.9635,-70.9266 L -15.7811,-70.9734
 L -15.5942,-70.997 L -15.4058,-70.997 L -15.2189,-70.9734 L -15.0365,-70.9266 L -14.8613,-70.8572 L -14.6963,-70.7665
 L -14.5439,-70.6558 L -14.4065,-70.5268 L -14.2865,-70.3817 L -14.1855,-70.2226 L -14.1053,-70.0522 L -14.0471,-69.873
 L -14.0118,-69.688 L -14,-69.5 L -14.0118,-69.312 L -14.0471,-69.127 L -14.1053,-68.9478 L -14.1855,-68.7774
 L -14.2865,-68.6183 L -14.4065,-68.4732 L -14.5439,-68.3442 L -14.6963,-68.2335 L -14.8613,-68.1427 L -15.0365,-68.0734
 L -15.2189,-68.0266 L -15.4058,-68.0029 z
M -0.879059,-40.0276 L -2.62334,-40.248 L -4.32623,-40.6852 L -5.96091,-41.3324 L -7.50157,-42.1794 L -8.92393,-43.2128
 L -10.2056,-44.4164 L -11.3262,-45.771 L -12.2683,-47.2555 L -13.0169,-48.8463 L -13.5602,-50.5184 L -13.8896,-52.2453
 L -14,-54 L -13.8896,-55.7547 L -13.5602,-57.4816 L -13.0169,-59.1537 L -12.2683,-60.7445 L -11.3262,-62.229
 L -10.2056,-63.5836 L -8.92393,-64.7872 L -7.50157,-65.8206 L -5.96091,-66.6676 L -4.32623,-67.3148 L -2.62334,-67.752
 L -0.879059,-67.9724 L 0.879059,-67.9724 L 2.62334,-67.752 L 4.32623,-67.3148 L 5.96091,-66.6676 L 7.50157,-65.8206
 L 8.92393,-64.7872 L 10.2056,-63.5836 L 11.3262,-62.229 L 12.2683,-60.7445 L 13.0169,-59.1537 L 13.5602,-57.4816
 L 13.8896,-55.7547 L 14,-54 L 13.8896,-52.2453 L 13.5602,-50.5184 L 13.0169,-48.8463 L 12.2683,-47.2555
 L 11.3262,-45.771 L 10.2056,-44.4164 L 8.92393,-43.2128 L 7.50157,-42.1794 L 5.96091,-41.3324 L 4.32623,-40.6852
 L 2.62334,-40.248 L 0.879059,-40.0276 z
M 22,-15.5 L 21.9606,-16.1267 L 21.8429,-16.7434 L 21.6489,-17.3406 L 21.3815,-17.9088 L 21.0451,-18.4389
 L 20.6448,-18.9227 L 20.1871,-19.3526 L 19.6791,-19.7216 L 19.1289,-20.0241 L 18.5451,-20.2553 L 17.9369,-20.4114
 L 17.3139,-20.4901 L -17.3139,-20.4901 L -17.9369,-20.4114 L -18.5451,-20.2553 L -19.1289,-20.0241 L -19.6791,-19.7216
 L -20.1871,-19.3526 L -20.6448,-18.9227 L -21.0451,-18.4389 L -21.3815,-17.9088 L -21.6489,-17.3406 L -21.8429,-16.7434
 L -21.9606,-16.1267 L -22,-15.5 L -22,30 L 22,30 z
M 15.4058,-14.0029 L 15.2189,-14.0266 L 15.0365,-14.0734 L 14.8613,-14.1427 L 14.6963,-14.2335 L 14.5439,-14.3442
 L 14.4065,-14.4732 L 14.2865,-14.6183 L 14.1855,-14.7774 L 14.1053,-14.9478 L 14.0471,-15.127 L 14.0118,-15.312
 L 14,-15.5 L 14.0118,-15.688 L 14.0471,-15.873 L 14.1053,-16.0522 L 14.1855,-16.2226 L 14.2865,-16.3817
 L 14.4065,-16.5268 L 14.5439,-16.6558 L 14.6963,-16.7665 L 14.8613,-16.8572 L 15.0365,-16.9266 L 15.2189,-16.9734
 L 15.4058,-16.997 L 15.5942,-16.997 L 15.7811,-16.9734 L 15.9635,-16.9266 L 16.1387,-16.8572 L 16.3037,-16.7665
 L 16.4561,-16.6558 L 16.5934,-16.5268 L 16.7135,-16.3817 L 16.8145,-16.2226 L 16.8947,-16.0522 L 16.9529,-15.873
 L 16.9882,-15.688 L 17,-15.5 L 16.9882,-15.312 L 16.9529,-15.127 L 16.8947,-14.9478 L 16.8145,-14.7774
 L 16.7135,-14.6183 L 16.5934,-14.4732 L 16.4561,-14.3442 L 16.3037,-14.2335 L 16.1387,-14.1427 L 15.9635,-14.0734
 L 15.7811,-14.0266 L 15.5942,-14.0029 z
M -15.5942,-14.0029 L -15.7811,-14.0266 L -15.9635,-14.0734 L -16.1387,-14.1427 L -16.3037,-14.2335 L -16.4561,-14.3442
 L -16.5934,-14.4732 L -16.7135,-14.6183 L -16.8145,-14.7774 L -16.8947,-14.9478 L -16.9529,-15.127 L -16.9882,-15.312
 L -17,-15.5 L -16.9882,-15.688 L -16.9529,-15.873 L -16.8947,-16.0522 L -16.8145,-16.2226 L -16.7135,-16.3817
 L -16.5934,-16.5268 L -16.4561,-16.6558 L -16.3037,-16.7665 L -16.1387,-16.8572 L -15.9635,-16.9266 L -15.7811,-16.9734
 L -15.5942,-16.997 L -15.4058,-16.997 L -15.2189,-16.9734 L -15.0365,-16.9266 L -14.8613,-16.8572 L -14.6963,-16.7665
 L -14.5439,-16.6558 L -14.4065,-16.5268 L -14.2865,-16.3817 L -14.1855,-16.2226 L -14.1053,-16.0522 L -14.0471,-15.873
 L -14.0118,-15.688 L -14,-15.5 L -14.0118,-15.312 L -14.0471,-15.127 L -14.1053,-14.9478 L -14.1855,-14.7774
 L -14.2865,-14.6183 L -14.4065,-14.4732 L -14.5439,-14.3442 L -14.6963,-14.2335 L -14.8613,-14.1427 L -15.0365,-14.0734
 L -15.2189,-14.0266 L -15.4058,-14.0029 z
M -0.879059,13.9724 L -2.62334,13.752 L -4.32623,13.3148 L -5.96091,12.6676 L -7.50157,11.8206 L -8.92393,10.7872
 L -10.2056,9.58365 L -11.3262,8.22899 L -12.2683,6.74454 L -13.0169,5.15373 L -13.5602,3.48164 L -13.8896,1.75465
 L -14,-0 L -13.8896,-1.75465 L -13.5602,-3.48164 L -13.0169,-5.15373 L -12.2683,-6.74454 L -11.3262,-8.22899
 L -10.2056,-9.58365 L -8.92393,-10.7872 L -7.50157,-11.8206 L -5.96091,-12.6676 L -4.32623,-13.3148 L -2.62334,-13.752
 L -0.879059,-13.9724 L 0.879059,-13.9724 L 2.62334,-13.752 L 4.32623,-13.3148 L 5.96091,-12.6676 L 7.50157,-11.8206
 L 8.92393,-10.7872 L 10.2056,-9.58365 L 11.3262,-8.22899 L 12.2683,-6.74454 L 13.0169,-5.15373 L 13.5602,-3.48164
 L 13.8896,-1.75465 L 14,-0 L 13.8896,1.75465 L 13.5602,3.48164 L 13.0169,5.15373 L 12.2683,6.74454
 L 11.3262,8.22899 L 10.2056,9.58365 L 8.92393,10.7872 L 7.50157,11.8206 L 5.96091,12.6676 L 4.32623,13.3148
 L 2.62334,13.752 L 0.879059,13.9724 z
M 15.4058,16.997 L 15.2189,16.9734 L 15.0365,16.9266 L 14.8613,16.8572 L 14.6963,16.7665 L 14.5439,16.6558
 L 14.4065,16.5268 L 14.2865,16.3817 L 14.1855,16.2226 L 14.1053,16.0522 L 14.0471,15.873 L 14.0118,15.688
 L 14,15.5 L 14.0118,15.312 L 14.0471,15.127 L 14.1053,14.9478 L 14.1855,14.7774 L 14.2865,14.6183
 L 14.4065,14.4732 L 14.5439,14.3442 L 14.6963,14.2335 L 14.8613,14.1427 L 15.0365,14.0734 L 15.2189,14.0266
 L 15.4058,14.0029 L 15.5942,14.0029 L 15.7811,14.0266 L 15.9635,14.0734 L 16.1387,14.1427 L 16.3037,14.2335
 L 16.4561,14.3442 L 16.5934,14.4732 L 16.7135,14.6183 L 16.8145,14.7774 L 16.8947,14.9478 L 16.9529,15.127
 L 16.9882,15.312 L 17,15.5 L 16.9882,15.688 L 16.9529,15.873 L 16.8947,16.0522 L 16.8145,16.2226
 L 16.7135,16.3817 L 16.5934,16.5268 L 16.4561,16.6558 L 16.3037,16.7665 L 16.1387,16.8572 L 15.9635,16.9266
 L 15.7811,16.9734 L 15.5942,16.997 z
M -15.5942,16.997 L -15.7811,16.9734 L -15.9635,16.9266 L -16.1387,16.8572 L -16.3037,16.7665 L -16.4561,16.6558
 L -16.5934,16.5268 L -16.7135,16.3817 L -16.8145,16.2226 L -16.8947,16.0522 L -16.9529,15.873 L -16.9882,15.688
 L -17,15.5 L -16.9882,15.312 L -16.9529,15.127 L -16.8947,14.9478 L -16.8145,14.7774 L -16.7135,14.6183
 L -16.5934,14.4732 L -16.4561,14.3442 L -16.3037,14.2335 L -16.1387,14.1427 L -15.9635,14.0734 L -15.7811,14.0266
 L -15.5942,14.0029 L -15.4058,14.0029 L -15.2189,14.0266 L -15.0365,14.0734 L -14.8613,14.1427 L -14.6963,14.2335
 L -14.5439,14.3442 L -14.4065,14.4732 L -14.2865,14.6183 L -14.1855,14.7774 L -14.1053,14.9478 L -14.0471,15.127
 L -14.0118,15.312 L -14,15.5 L -14.0118,15.688 L -14.0471,15.873 L -14.1053,16.0522 L -14.1855,16.2226
 L -14.2865,16.3817 L -14.4065,16.5268 L -14.5439,16.6558 L -14.6963,16.7665 L -14.8613,16.8572 L -15.0365,16.9266
 L -15.2189,16.9734 L -15.4058,16.997 z
M -20.3466,26.9 L -20.3466,21.5 L -9.65337,21.5 L -9.65337,26.9 z
M -5.34662,26.9 L -5.34662,21.5 L 5.34662,21.5 L 5.34662,26.9 z
M 9.65337,26.9 L 9.65337,21.5 L 20.3466,21.5 L 20.3466,26.9 z
" stroke="black" fill="lightgray" stroke-width="0.5"/>
</svg>
