  0
SECTION
  2
BLOCKS
  0
ENDSEC
  0
SECTION
  2
ENTITIES
  0
LINE
  8
0
 10
14.6869
 20
219.089
 11
15.2951
 21
219.245
  0
LINE
  8
0
 10
15.2951
 20
219.245
 11
15.8789
 21
219.476
  0
LINE
  8
0
 10
15.8789
 20
219.476
 11
16.4291
 21
219.778
  0
LINE
  8
0
 10
16.4291
 20
219.778
 11
16.9371
 21
220.147
  0
LINE
  8
0
 10
16.9371
 20
220.147
 11
17.3948
 21
220.577
  0
LINE
  8
0
 10
17.3948
 20
220.577
 11
17.7951
 21
221.061
  0
LINE
  8
0
 10
17.7951
 20
221.061
 11
18.1315
 21
221.591
  0
LINE
  8
0
 10
18.1315
 20
221.591
 11
18.3989
 21
222.159
  0
LINE
  8
0
 10
18.3989
 20
222.159
 11
18.5929
 21
222.757
  0
LINE
  8
0
 10
18.5929
 20
222.757
 11
18.7106
 21
223.373
  0
LINE
  8
0
 10
18.7106
 20
223.373
 11
18.75
 21
224
  0
LINE
  8
0
 10
18.75
 20
224
 11
18.75
 21
244
  0
LINE
  8
0
 10
18.75
 20
244
 11
18.7106
 21
244.627
  0
LINE
  8
0
 10
18.7106
 20
244.627
 11
18.5929
 21
245.243
  0
LINE
  8
0
 10
18.5929
 20
245.243
 11
18.3989
 21
245.841
  0
LINE
  8
0
 10
18.3989
 20
245.841
 11
18.1315
 21
246.409
  0
LINE
  8
0
 10
18.1315
 20
246.409
 11
17.7951
 21
246.939
  0
LINE
  8
0
 10
17.7951
 20
246.939
 11
17.3948
 21
247.423
  0
LINE
  8
0
 10
17.3948
 20
247.423
 11
16.9371
 21
247.853
  0
LINE
  8
0
 10
16.9371
 20
247.853
 11
16.4291
 21
248.222
  0
LINE
  8
0
 10
16.4291
 20
248.222
 11
15.8789
 21
248.524
  0
LINE
  8
0
 10
15.8789
 20
248.524
 11
15.2951
 21
248.755
  0
LINE
  8
0
 10
15.2951
 20
248.755
 11
14.6869
 21
248.911
  0
LINE
  8
0
 10
14.6869
 20
248.911
 11
14.0639
 21
248.99
  0
LINE
  8
0
 10
14.0639
 20
248.99
 11
-14.0639
 21
248.99
  0
LINE
  8
0
 10
-14.0639
 20
248.99
 11
-14.6869
 21
248.911
  0
LINE
  8
0
 10
-14.6869
 20
248.911
 11
-15.2951
 21
248.755
  0
LINE
  8
0
 10
-15.2951
 20
248.755
 11
-15.8789
 21
248.524
  0
LINE
  8
0
 10
-15.8789
 20
248.524
 11
-16.4291
 21
248.222
  0
LINE
  8
0
 10
-16.4291
 20
248.222
 11
-16.9371
 21
247.853
  0
LINE
  8
0
 10
-16.9371
 20
247.853
 11
-17.3948
 21
247.423
  0
LINE
  8
0
 10
-17.3948
 20
247.423
 11
-17.7951
 21
246.939
  0
LINE
  8
0
 10
-17.7951
 20
246.939
 11
-18.1315
 21
246.409
  0
LINE
  8
0
 10
-18.1315
 20
246.409
 11
-18.3989
 21
245.841
  0
LINE
  8
0
 10
-18.3989
 20
245.841
 11
-18.5929
 21
245.243
  0
LINE
  8
0
 10
-18.5929
 20
245.243
 11
-18.7106
 21
244.627
  0
LINE
  8
0
 10
-18.7106
 20
244.627
 11
-18.75
 21
244
  0
LINE
  8
0
 10
-18.75
 20
244
 11
-18.75
 21
224
  0
LINE
  8
0
 10
-18.75
 20
224
 11
-18.7106
 21
223.373
  0
LINE
  8
0
 10
-18.7106
 20
223.373
 11
-18.5929
 21
222.757
  0
LINE
  8
0
 10
-18.5929
 20
222.757
 11
-18.3989
 21
222.159
  0
LINE
  8
0
 10
-18.3989
 20
222.159
 11
-18.1315
 21
221.591
  0
LINE
  8
0
 10
-18.1315
 20
221.591
 11
-17.7951
 21
221.061
  0
LINE
  8
0
 10
-17.7951
 20
221.061
 11
-17.3948
 21
220.577
  0
LINE
  8
0
 10
-17.3948
 20
220.577
 11
-16.9371
 21
220.147
  0
LINE
  8
0
 10
-16.9371
 20
220.147
 11
-16.4291
 21
219.778
  0
LINE
  8
0
 10
-16.4291
 20
219.778
 11
-15.8789
 21
219.476
  0
LINE
  8
0
 10
-15.8789
 20
219.476
 11
-15.2951
 21
219.245
  0
LINE
  8
0
 10
-15.2951
 20
219.245
 11
-14.6869
 21
219.089
  0
LINE
  8
0
 10
-14.6869
 20
219.089
 11
-14.0639
 21
219.01
  0
LINE
  8
0
 10
-14.0639
 20
219.01
 11
14.0639
 21
219.01
  0
LINE
  8
0
 10
14.0639
 20
219.01
 11
14.6869
 21
219.089
  0
LINE
  8
0
 10
-8.56104
 20
219.509
 11
-8.07086
 21
219.778
  0
LINE
  8
0
 10
-8.07086
 20
219.778
 11
-7.56287
 21
220.147
  0
LINE
  8
0
 10
-7.56287
 20
220.147
 11
-7.10515
 21
220.577
  0
LINE
  8
0
 10
-7.10515
 20
220.577
 11
-6.70491
 21
221.061
  0
LINE
  8
0
 10
-6.70491
 20
221.061
 11
-6.36845
 21
221.591
  0
LINE
  8
0
 10
-6.36845
 20
221.591
 11
-6.1011
 21
222.159
  0
LINE
  8
0
 10
-6.1011
 20
222.159
 11
-5.90707
 21
222.757
  0
LINE
  8
0
 10
-5.90707
 20
222.757
 11
-5.78941
 21
223.373
  0
LINE
  8
0
 10
-5.78941
 20
223.373
 11
-5.75
 21
224
  0
LINE
  8
0
 10
-5.75
 20
224
 11
-5.75
 21
227
  0
LINE
  8
0
 10
-5.75
 20
227
 11
-5.78941
 21
227.627
  0
LINE
  8
0
 10
-5.78941
 20
227.627
 11
-5.90707
 21
228.243
  0
LINE
  8
0
 10
-5.90707
 20
228.243
 11
-6.1011
 21
228.841
  0
LINE
  8
0
 10
-6.1011
 20
228.841
 11
-6.36845
 21
229.409
  0
LINE
  8
0
 10
-6.36845
 20
229.409
 11
-6.70491
 21
229.939
  0
LINE
  8
0
 10
-6.70491
 20
229.939
 11
-7.10515
 21
230.423
  0
LINE
  8
0
 10
-7.10515
 20
230.423
 11
-7.56287
 21
230.853
  0
LINE
  8
0
 10
-7.56287
 20
230.853
 11
-8.07086
 21
231.222
  0
LINE
  8
0
 10
-8.07086
 20
231.222
 11
-8.62109
 21
231.524
  0
LINE
  8
0
 10
-8.62109
 20
231.524
 11
-9.20491
 21
231.755
  0
LINE
  8
0
 10
-9.20491
 20
231.755
 11
-9.81308
 21
231.911
  0
LINE
  8
0
 10
-9.81308
 20
231.911
 11
-10.436
 21
231.99
  0
LINE
  8
0
 10
-10.436
 20
231.99
 11
-14.0639
 21
231.99
  0
LINE
  8
0
 10
-14.0639
 20
231.99
 11
-14.6869
 21
231.911
  0
LINE
  8
0
 10
-14.6869
 20
231.911
 11
-15.2951
 21
231.755
  0
LINE
  8
0
 10
-15.2951
 20
231.755
 11
-15.8789
 21
231.524
  0
LINE
  8
0
 10
-15.8789
 20
231.524
 11
-16.4291
 21
231.222
  0
LINE
  8
0
 10
-16.4291
 20
231.222
 11
-16.9371
 21
230.853
  0
LINE
  8
0
 10
-16.9371
 20
230.853
 11
-17.3948
 21
230.423
  0
LINE
  8
0
 10
-17.3948
 20
230.423
 11
-17.7951
 21
229.939
  0
LINE
  8
0
 10
-17.7951
 20
229.939
 11
-18.1315
 21
229.409
  0
LINE
  8
0
 10
-18.1315
 20
229.409
 11
-18.25
 21
229.157
  0
LINE
  8
0
 10
-18.25
 20
229.157
 11
-18.25
 21
244
  0
LINE
  8
0
 10
-18.25
 20
244
 11
-18.2145
 21
244.564
  0
LINE
  8
0
 10
-18.2145
 20
244.564
 11
-18.1086
 21
245.119
  0
LINE
  8
0
 10
-18.1086
 20
245.119
 11
-17.934
 21
245.657
  0
LINE
  8
0
 10
-17.934
 20
245.657
 11
-17.6934
 21
246.168
  0
LINE
  8
0
 10
-17.6934
 20
246.168
 11
-17.3906
 21
246.645
  0
LINE
  8
0
 10
-17.3906
 20
246.645
 11
-17.0303
 21
247.08
  0
LINE
  8
0
 10
-17.0303
 20
247.08
 11
-16.6184
 21
247.467
  0
LINE
  8
0
 10
-16.6184
 20
247.467
 11
-16.1612
 21
247.799
  0
LINE
  8
0
 10
-16.1612
 20
247.799
 11
-15.666
 21
248.072
  0
LINE
  8
0
 10
-15.666
 20
248.072
 11
-15.1406
 21
248.28
  0
LINE
  8
0
 10
-15.1406
 20
248.28
 11
-14.5932
 21
248.42
  0
LINE
  8
0
 10
-14.5932
 20
248.42
 11
-14.0325
 21
248.491
  0
LINE
  8
0
 10
-14.0325
 20
248.491
 11
14.0325
 21
248.491
  0
LINE
  8
0
 10
14.0325
 20
248.491
 11
14.5932
 21
248.42
  0
LINE
  8
0
 10
14.5932
 20
248.42
 11
15.1406
 21
248.28
  0
LINE
  8
0
 10
15.1406
 20
248.28
 11
15.666
 21
248.072
  0
LINE
  8
0
 10
15.666
 20
248.072
 11
16.1612
 21
247.799
  0
LINE
  8
0
 10
16.1612
 20
247.799
 11
16.6184
 21
247.467
  0
LINE
  8
0
 10
16.6184
 20
247.467
 11
17.0303
 21
247.08
  0
LINE
  8
0
 10
17.0303
 20
247.08
 11
17.3906
 21
246.645
  0
LINE
  8
0
 10
17.3906
 20
246.645
 11
17.6934
 21
246.168
  0
LINE
  8
0
 10
17.6934
 20
246.168
 11
17.934
 21
245.657
  0
LINE
  8
0
 10
17.934
 20
245.657
 11
18.1086
 21
245.119
  0
LINE
  8
0
 10
18.1086
 20
245.119
 11
18.2145
 21
244.564
  0
LINE
  8
0
 10
18.2145
 20
244.564
 11
18.25
 21
244
  0
LINE
  8
0
 10
18.25
 20
244
 11
18.25
 21
224
  0
LINE
  8
0
 10
18.25
 20
224
 11
18.2145
 21
223.436
  0
LINE
  8
0
 10
18.2145
 20
223.436
 11
18.1086
 21
222.881
  0
LINE
  8
0
 10
18.1086
 20
222.881
 11
17.934
 21
222.343
  0
LINE
  8
0
 10
17.934
 20
222.343
 11
17.6934
 21
221.832
  0
LINE
  8
0
 10
17.6934
 20
221.832
 11
17.3906
 21
221.355
  0
LINE
  8
0
 10
17.3906
 20
221.355
 11
17.0303
 21
220.92
  0
LINE
  8
0
 10
17.0303
 20
220.92
 11
16.6184
 21
220.533
  0
LINE
  8
0
 10
16.6184
 20
220.533
 11
16.1612
 21
220.201
  0
LINE
  8
0
 10
16.1612
 20
220.201
 11
15.666
 21
219.928
  0
LINE
  8
0
 10
15.666
 20
219.928
 11
15.1406
 21
219.72
  0
LINE
  8
0
 10
15.1406
 20
219.72
 11
14.5932
 21
219.58
  0
LINE
  8
0
 10
14.5932
 20
219.58
 11
14.0325
 21
219.509
  0
LINE
  8
0
 10
14.0325
 20
219.509
 11
-8.56104
 21
219.509
  0
LINE
  8
0
 10
11.7184
 20
239.044
 11
12.0225
 21
239.122
  0
LINE
  8
0
 10
12.0225
 20
239.122
 11
12.3144
 21
239.238
  0
LINE
  8
0
 10
12.3144
 20
239.238
 11
12.5896
 21
239.389
  0
LINE
  8
0
 10
12.5896
 20
239.389
 11
12.8436
 21
239.574
  0
LINE
  8
0
 10
12.8436
 20
239.574
 11
13.0724
 21
239.789
  0
LINE
  8
0
 10
13.0724
 20
239.789
 11
13.2725
 21
240.031
  0
LINE
  8
0
 10
13.2725
 20
240.031
 11
13.4408
 21
240.296
  0
LINE
  8
0
 10
13.4408
 20
240.296
 11
13.5744
 21
240.58
  0
LINE
  8
0
 10
13.5744
 20
240.58
 11
13.6714
 21
240.878
  0
LINE
  8
0
 10
13.6714
 20
240.878
 11
13.7303
 21
241.187
  0
LINE
  8
0
 10
13.7303
 20
241.187
 11
13.75
 21
241.5
  0
LINE
  8
0
 10
13.75
 20
241.5
 11
13.7303
 21
241.813
  0
LINE
  8
0
 10
13.7303
 20
241.813
 11
13.6714
 21
242.122
  0
LINE
  8
0
 10
13.6714
 20
242.122
 11
13.5744
 21
242.42
  0
LINE
  8
0
 10
13.5744
 20
242.42
 11
13.4408
 21
242.704
  0
LINE
  8
0
 10
13.4408
 20
242.704
 11
13.2725
 21
242.969
  0
LINE
  8
0
 10
13.2725
 20
242.969
 11
13.0724
 21
243.211
  0
LINE
  8
0
 10
13.0724
 20
243.211
 11
12.8436
 21
243.426
  0
LINE
  8
0
 10
12.8436
 20
243.426
 11
12.5896
 21
243.611
  0
LINE
  8
0
 10
12.5896
 20
243.611
 11
12.3144
 21
243.762
  0
LINE
  8
0
 10
12.3144
 20
243.762
 11
12.0225
 21
243.878
  0
LINE
  8
0
 10
12.0225
 20
243.878
 11
11.7184
 21
243.956
  0
LINE
  8
0
 10
11.7184
 20
243.956
 11
11.407
 21
243.995
  0
LINE
  8
0
 10
11.407
 20
243.995
 11
11.093
 21
243.995
  0
LINE
  8
0
 10
11.093
 20
243.995
 11
10.7815
 21
243.956
  0
LINE
  8
0
 10
10.7815
 20
243.956
 11
10.4774
 21
243.878
  0
LINE
  8
0
 10
10.4774
 20
243.878
 11
10.1855
 21
243.762
  0
LINE
  8
0
 10
10.1855
 20
243.762
 11
9.91043
 21
243.611
  0
LINE
  8
0
 10
9.91043
 20
243.611
 11
9.65643
 21
243.426
  0
LINE
  8
0
 10
9.65643
 20
243.426
 11
9.42757
 21
243.211
  0
LINE
  8
0
 10
9.42757
 20
243.211
 11
9.22745
 21
242.969
  0
LINE
  8
0
 10
9.22745
 20
242.969
 11
9.05922
 21
242.704
  0
LINE
  8
0
 10
9.05922
 20
242.704
 11
8.92555
 21
242.42
  0
LINE
  8
0
 10
8.92555
 20
242.42
 11
8.82854
 21
242.122
  0
LINE
  8
0
 10
8.82854
 20
242.122
 11
8.7697
 21
241.813
  0
LINE
  8
0
 10
8.7697
 20
241.813
 11
8.75
 21
241.5
  0
LINE
  8
0
 10
8.75
 20
241.5
 11
8.7697
 21
241.187
  0
LINE
  8
0
 10
8.7697
 20
241.187
 11
8.82854
 21
240.878
  0
LINE
  8
0
 10
8.82854
 20
240.878
 11
8.92555
 21
240.58
  0
LINE
  8
0
 10
8.92555
 20
240.58
 11
9.05922
 21
240.296
  0
LINE
  8
0
 10
9.05922
 20
240.296
 11
9.22745
 21
240.031
  0
LINE
  8
0
 10
9.22745
 20
240.031
 11
9.42757
 21
239.789
  0
LINE
  8
0
 10
9.42757
 20
239.789
 11
9.65643
 21
239.574
  0
LINE
  8
0
 10
9.65643
 20
239.574
 11
9.91043
 21
239.389
  0
LINE
  8
0
 10
9.91043
 20
239.389
 11
10.1855
 21
239.238
  0
LINE
  8
0
 10
10.1855
 20
239.238
 11
10.4774
 21
239.122
  0
LINE
  8
0
 10
10.4774
 20
239.122
 11
10.7815
 21
239.044
  0
LINE
  8
0
 10
10.7815
 20
239.044
 11
11.093
 21
239.005
  0
LINE
  8
0
 10
11.093
 20
239.005
 11
11.407
 21
239.005
  0
LINE
  8
0
 10
11.407
 20
239.005
 11
11.7184
 21
239.044
  0
LINE
  8
0
 10
11.1558
 20
240.003
 11
10.9689
 21
240.027
  0
LINE
  8
0
 10
10.9689
 20
240.027
 11
10.7865
 21
240.073
  0
LINE
  8
0
 10
10.7865
 20
240.073
 11
10.6113
 21
240.143
  0
LINE
  8
0
 10
10.6113
 20
240.143
 11
10.4463
 21
240.234
  0
LINE
  8
0
 10
10.4463
 20
240.234
 11
10.2939
 21
240.344
  0
LINE
  8
0
 10
10.2939
 20
240.344
 11
10.1565
 21
240.473
  0
LINE
  8
0
 10
10.1565
 20
240.473
 11
10.0365
 21
240.618
  0
LINE
  8
0
 10
10.0365
 20
240.618
 11
9.93553
 21
240.777
  0
LINE
  8
0
 10
9.93553
 20
240.777
 11
9.85533
 21
240.948
  0
LINE
  8
0
 10
9.85533
 20
240.948
 11
9.79712
 21
241.127
  0
LINE
  8
0
 10
9.79712
 20
241.127
 11
9.76183
 21
241.312
  0
LINE
  8
0
 10
9.76183
 20
241.312
 11
9.75
 21
241.5
  0
LINE
  8
0
 10
9.75
 20
241.5
 11
9.76183
 21
241.688
  0
LINE
  8
0
 10
9.76183
 20
241.688
 11
9.79712
 21
241.873
  0
LINE
  8
0
 10
9.79712
 20
241.873
 11
9.85533
 21
242.052
  0
LINE
  8
0
 10
9.85533
 20
242.052
 11
9.93553
 21
242.223
  0
LINE
  8
0
 10
9.93553
 20
242.223
 11
10.0365
 21
242.382
  0
LINE
  8
0
 10
10.0365
 20
242.382
 11
10.1565
 21
242.527
  0
LINE
  8
0
 10
10.1565
 20
242.527
 11
10.2939
 21
242.656
  0
LINE
  8
0
 10
10.2939
 20
242.656
 11
10.4463
 21
242.766
  0
LINE
  8
0
 10
10.4463
 20
242.766
 11
10.6113
 21
242.857
  0
LINE
  8
0
 10
10.6113
 20
242.857
 11
10.7865
 21
242.927
  0
LINE
  8
0
 10
10.7865
 20
242.927
 11
10.9689
 21
242.973
  0
LINE
  8
0
 10
10.9689
 20
242.973
 11
11.1558
 21
242.997
  0
LINE
  8
0
 10
11.1558
 20
242.997
 11
11.3442
 21
242.997
  0
LINE
  8
0
 10
11.3442
 20
242.997
 11
11.5311
 21
242.973
  0
LINE
  8
0
 10
11.5311
 20
242.973
 11
11.7135
 21
242.927
  0
LINE
  8
0
 10
11.7135
 20
242.927
 11
11.8887
 21
242.857
  0
LINE
  8
0
 10
11.8887
 20
242.857
 11
12.0537
 21
242.766
  0
LINE
  8
0
 10
12.0537
 20
242.766
 11
12.2061
 21
242.656
  0
LINE
  8
0
 10
12.2061
 20
242.656
 11
12.3434
 21
242.527
  0
LINE
  8
0
 10
12.3434
 20
242.527
 11
12.4635
 21
242.382
  0
LINE
  8
0
 10
12.4635
 20
242.382
 11
12.5645
 21
242.223
  0
LINE
  8
0
 10
12.5645
 20
242.223
 11
12.6447
 21
242.052
  0
LINE
  8
0
 10
12.6447
 20
242.052
 11
12.7029
 21
241.873
  0
LINE
  8
0
 10
12.7029
 20
241.873
 11
12.7382
 21
241.688
  0
LINE
  8
0
 10
12.7382
 20
241.688
 11
12.75
 21
241.5
  0
LINE
  8
0
 10
12.75
 20
241.5
 11
12.7382
 21
241.312
  0
LINE
  8
0
 10
12.7382
 20
241.312
 11
12.7029
 21
241.127
  0
LINE
  8
0
 10
12.7029
 20
241.127
 11
12.6447
 21
240.948
  0
LINE
  8
0
 10
12.6447
 20
240.948
 11
12.5645
 21
240.777
  0
LINE
  8
0
 10
12.5645
 20
240.777
 11
12.4635
 21
240.618
  0
LINE
  8
0
 10
12.4635
 20
240.618
 11
12.3434
 21
240.473
  0
LINE
  8
0
 10
12.3434
 20
240.473
 11
12.2061
 21
240.344
  0
LINE
  8
0
 10
12.2061
 20
240.344
 11
12.0537
 21
240.234
  0
LINE
  8
0
 10
12.0537
 20
240.234
 11
11.8887
 21
240.143
  0
LINE
  8
0
 10
11.8887
 20
240.143
 11
11.7135
 21
240.073
  0
LINE
  8
0
 10
11.7135
 20
240.073
 11
11.5311
 21
240.027
  0
LINE
  8
0
 10
11.5311
 20
240.027
 11
11.3442
 21
240.003
  0
LINE
  8
0
 10
11.3442
 20
240.003
 11
11.1558
 21
240.003
  0
LINE
  8
0
 10
-11.3442
 20
225.003
 11
-11.5311
 21
225.027
  0
LINE
  8
0
 10
-11.5311
 20
225.027
 11
-11.7135
 21
225.073
  0
LINE
  8
0
 10
-11.7135
 20
225.073
 11
-11.8887
 21
225.143
  0
LINE
  8
0
 10
-11.8887
 20
225.143
 11
-12.0537
 21
225.234
  0
LINE
  8
0
 10
-12.0537
 20
225.234
 11
-12.2061
 21
225.344
  0
LINE
  8
0
 10
-12.2061
 20
225.344
 11
-12.3434
 21
225.473
  0
LINE
  8
0
 10
-12.3434
 20
225.473
 11
-12.4635
 21
225.618
  0
LINE
  8
0
 10
-12.4635
 20
225.618
 11
-12.5645
 21
225.777
  0
LINE
  8
0
 10
-12.5645
 20
225.777
 11
-12.6447
 21
225.948
  0
LINE
  8
0
 10
-12.6447
 20
225.948
 11
-12.7029
 21
226.127
  0
LINE
  8
0
 10
-12.7029
 20
226.127
 11
-12.7382
 21
226.312
  0
LINE
  8
0
 10
-12.7382
 20
226.312
 11
-12.75
 21
226.5
  0
LINE
  8
0
 10
-12.75
 20
226.5
 11
-12.7382
 21
226.688
  0
LINE
  8
0
 10
-12.7382
 20
226.688
 11
-12.7029
 21
226.873
  0
LINE
  8
0
 10
-12.7029
 20
226.873
 11
-12.6447
 21
227.052
  0
LINE
  8
0
 10
-12.6447
 20
227.052
 11
-12.5645
 21
227.223
  0
LINE
  8
0
 10
-12.5645
 20
227.223
 11
-12.4635
 21
227.382
  0
LINE
  8
0
 10
-12.4635
 20
227.382
 11
-12.3434
 21
227.527
  0
LINE
  8
0
 10
-12.3434
 20
227.527
 11
-12.2061
 21
227.656
  0
LINE
  8
0
 10
-12.2061
 20
227.656
 11
-12.0537
 21
227.766
  0
LINE
  8
0
 10
-12.0537
 20
227.766
 11
-11.8887
 21
227.857
  0
LINE
  8
0
 10
-11.8887
 20
227.857
 11
-11.7135
 21
227.927
  0
LINE
  8
0
 10
-11.7135
 20
227.927
 11
-11.5311
 21
227.973
  0
LINE
  8
0
 10
-11.5311
 20
227.973
 11
-11.3442
 21
227.997
  0
LINE
  8
0
 10
-11.3442
 20
227.997
 11
-11.1558
 21
227.997
  0
LINE
  8
0
 10
-11.1558
 20
227.997
 11
-10.9689
 21
227.973
  0
LINE
  8
0
 10
-10.9689
 20
227.973
 11
-10.7865
 21
227.927
  0
LINE
  8
0
 10
-10.7865
 20
227.927
 11
-10.6113
 21
227.857
  0
LINE
  8
0
 10
-10.6113
 20
227.857
 11
-10.4463
 21
227.766
  0
LINE
  8
0
 10
-10.4463
 20
227.766
 11
-10.2939
 21
227.656
  0
LINE
  8
0
 10
-10.2939
 20
227.656
 11
-10.1565
 21
227.527
  0
LINE
  8
0
 10
-10.1565
 20
227.527
 11
-10.0365
 21
227.382
  0
LINE
  8
0
 10
-10.0365
 20
227.382
 11
-9.93553
 21
227.223
  0
LINE
  8
0
 10
-9.93553
 20
227.223
 11
-9.85533
 21
227.052
  0
LINE
  8
0
 10
-9.85533
 20
227.052
 11
-9.79712
 21
226.873
  0
LINE
  8
0
 10
-9.79712
 20
226.873
 11
-9.76183
 21
226.688
  0
LINE
  8
0
 10
-9.76183
 20
226.688
 11
-9.75
 21
226.5
  0
LINE
  8
0
 10
-9.75
 20
226.5
 11
-9.76183
 21
226.312
  0
LINE
  8
0
 10
-9.76183
 20
226.312
 11
-9.79712
 21
226.127
  0
LINE
  8
0
 10
-9.79712
 20
226.127
 11
-9.85533
 21
225.948
  0
LINE
  8
0
 10
-9.85533
 20
225.948
 11
-9.93553
 21
225.777
  0
LINE
  8
0
 10
-9.93553
 20
225.777
 11
-10.0365
 21
225.618
  0
LINE
  8
0
 10
-10.0365
 20
225.618
 11
-10.1565
 21
225.473
  0
LINE
  8
0
 10
-10.1565
 20
225.473
 11
-10.2939
 21
225.344
  0
LINE
  8
0
 10
-10.2939
 20
225.344
 11
-10.4463
 21
225.234
  0
LINE
  8
0
 10
-10.4463
 20
225.234
 11
-10.6113
 21
225.143
  0
LINE
  8
0
 10
-10.6113
 20
225.143
 11
-10.7865
 21
225.073
  0
LINE
  8
0
 10
-10.7865
 20
225.073
 11
-10.9689
 21
225.027
  0
LINE
  8
0
 10
-10.9689
 20
225.027
 11
-11.1558
 21
225.003
  0
LINE
  8
0
 10
-11.1558
 20
225.003
 11
-11.3442
 21
225.003
  0
LINE
  8
0
 10
14.6869
 20
180.089
 11
15.2951
 21
180.245
  0
LINE
  8
0
 10
15.2951
 20
180.245
 11
15.8789
 21
180.476
  0
LINE
  8
0
 10
15.8789
 20
180.476
 11
16.4291
 21
180.778
  0
LINE
  8
0
 10
16.4291
 20
180.778
 11
16.9371
 21
181.147
  0
LINE
  8
0
 10
16.9371
 20
181.147
 11
17.3948
 21
181.577
  0
LINE
  8
0
 10
17.3948
 20
181.577
 11
17.7951
 21
182.061
  0
LINE
  8
0
 10
17.7951
 20
182.061
 11
18.1315
 21
182.591
  0
LINE
  8
0
 10
18.1315
 20
182.591
 11
18.3989
 21
183.159
  0
LINE
  8
0
 10
18.3989
 20
183.159
 11
18.5929
 21
183.757
  0
LINE
  8
0
 10
18.5929
 20
183.757
 11
18.7106
 21
184.373
  0
LINE
  8
0
 10
18.7106
 20
184.373
 11
18.75
 21
185
  0
LINE
  8
0
 10
18.75
 20
185
 11
18.75
 21
205
  0
LINE
  8
0
 10
18.75
 20
205
 11
18.7106
 21
205.627
  0
LINE
  8
0
 10
18.7106
 20
205.627
 11
18.5929
 21
206.243
  0
LINE
  8
0
 10
18.5929
 20
206.243
 11
18.3989
 21
206.841
  0
LINE
  8
0
 10
18.3989
 20
206.841
 11
18.1315
 21
207.409
  0
LINE
  8
0
 10
18.1315
 20
207.409
 11
17.7951
 21
207.939
  0
LINE
  8
0
 10
17.7951
 20
207.939
 11
17.3948
 21
208.423
  0
LINE
  8
0
 10
17.3948
 20
208.423
 11
16.9371
 21
208.853
  0
LINE
  8
0
 10
16.9371
 20
208.853
 11
16.4291
 21
209.222
  0
LINE
  8
0
 10
16.4291
 20
209.222
 11
15.8789
 21
209.524
  0
LINE
  8
0
 10
15.8789
 20
209.524
 11
15.2951
 21
209.755
  0
LINE
  8
0
 10
15.2951
 20
209.755
 11
14.6869
 21
209.911
  0
LINE
  8
0
 10
14.6869
 20
209.911
 11
14.0639
 21
209.99
  0
LINE
  8
0
 10
14.0639
 20
209.99
 11
-14.0639
 21
209.99
  0
LINE
  8
0
 10
-14.0639
 20
209.99
 11
-14.6869
 21
209.911
  0
LINE
  8
0
 10
-14.6869
 20
209.911
 11
-15.2951
 21
209.755
  0
LINE
  8
0
 10
-15.2951
 20
209.755
 11
-15.8789
 21
209.524
  0
LINE
  8
0
 10
-15.8789
 20
209.524
 11
-16.4291
 21
209.222
  0
LINE
  8
0
 10
-16.4291
 20
209.222
 11
-16.9371
 21
208.853
  0
LINE
  8
0
 10
-16.9371
 20
208.853
 11
-17.3948
 21
208.423
  0
LINE
  8
0
 10
-17.3948
 20
208.423
 11
-17.7951
 21
207.939
  0
LINE
  8
0
 10
-17.7951
 20
207.939
 11
-18.1315
 21
207.409
  0
LINE
  8
0
 10
-18.1315
 20
207.409
 11
-18.3989
 21
206.841
  0
LINE
  8
0
 10
-18.3989
 20
206.841
 11
-18.5929
 21
206.243
  0
LINE
  8
0
 10
-18.5929
 20
206.243
 11
-18.7106
 21
205.627
  0
LINE
  8
0
 10
-18.7106
 20
205.627
 11
-18.75
 21
205
  0
LINE
  8
0
 10
-18.75
 20
205
 11
-18.75
 21
185
  0
LINE
  8
0
 10
-18.75
 20
185
 11
-18.7106
 21
184.373
  0
LINE
  8
0
 10
-18.7106
 20
184.373
 11
-18.5929
 21
183.757
  0
LINE
  8
0
 10
-18.5929
 20
183.757
 11
-18.3989
 21
183.159
  0
LINE
  8
0
 10
-18.3989
 20
183.159
 11
-18.1315
 21
182.591
  0
LINE
  8
0
 10
-18.1315
 20
182.591
 11
-17.7951
 21
182.061
  0
LINE
  8
0
 10
-17.7951
 20
182.061
 11
-17.3948
 21
181.577
  0
LINE
  8
0
 10
-17.3948
 20
181.577
 11
-16.9371
 21
181.147
  0
LINE
  8
0
 10
-16.9371
 20
181.147
 11
-16.4291
 21
180.778
  0
LINE
  8
0
 10
-16.4291
 20
180.778
 11
-15.8789
 21
180.476
  0
LINE
  8
0
 10
-15.8789
 20
180.476
 11
-15.2951
 21
180.245
  0
LINE
  8
0
 10
-15.2951
 20
180.245
 11
-14.6869
 21
180.089
  0
LINE
  8
0
 10
-14.6869
 20
180.089
 11
-14.0639
 21
180.01
  0
LINE
  8
0
 10
-14.0639
 20
180.01
 11
14.0639
 21
180.01
  0
LINE
  8
0
 10
14.0639
 20
180.01
 11
14.6869
 21
180.089
  0
LINE
  8
0
 10
-8.56104
 20
180.509
 11
-8.07086
 21
180.778
  0
LINE
  8
0
 10
-8.07086
 20
180.778
 11
-7.56287
 21
181.147
  0
LINE
  8
0
 10
-7.56287
 20
181.147
 11
-7.10515
 21
181.577
  0
LINE
  8
0
 10
-7.10515
 20
181.577
 11
-6.70491
 21
182.061
  0
LINE
  8
0
 10
-6.70491
 20
182.061
 11
-6.36845
 21
182.591
  0
LINE
  8
0
 10
-6.36845
 20
182.591
 11
-6.1011
 21
183.159
  0
LINE
  8
0
 10
-6.1011
 20
183.159
 11
-5.90707
 21
183.757
  0
LINE
  8
0
 10
-5.90707
 20
183.757
 11
-5.78941
 21
184.373
  0
LINE
  8
0
 10
-5.78941
 20
184.373
 11
-5.75
 21
185
  0
LINE
  8
0
 10
-5.75
 20
185
 11
-5.75
 21
188
  0
LINE
  8
0
 10
-5.75
 20
188
 11
-5.78941
 21
188.627
  0
LINE
  8
0
 10
-5.78941
 20
188.627
 11
-5.90707
 21
189.243
  0
LINE
  8
0
 10
-5.90707
 20
189.243
 11
-6.1011
 21
189.841
  0
LINE
  8
0
 10
-6.1011
 20
189.841
 11
-6.36845
 21
190.409
  0
LINE
  8
0
 10
-6.36845
 20
190.409
 11
-6.70491
 21
190.939
  0
LINE
  8
0
 10
-6.70491
 20
190.939
 11
-7.10515
 21
191.423
  0
LINE
  8
0
 10
-7.10515
 20
191.423
 11
-7.56287
 21
191.853
  0
LINE
  8
0
 10
-7.56287
 20
191.853
 11
-8.07086
 21
192.222
  0
LINE
  8
0
 10
-8.07086
 20
192.222
 11
-8.62109
 21
192.524
  0
LINE
  8
0
 10
-8.62109
 20
192.524
 11
-9.20491
 21
192.755
  0
LINE
  8
0
 10
-9.20491
 20
192.755
 11
-9.81308
 21
192.911
  0
LINE
  8
0
 10
-9.81308
 20
192.911
 11
-10.436
 21
192.99
  0
LINE
  8
0
 10
-10.436
 20
192.99
 11
-14.0639
 21
192.99
  0
LINE
  8
0
 10
-14.0639
 20
192.99
 11
-14.6869
 21
192.911
  0
LINE
  8
0
 10
-14.6869
 20
192.911
 11
-15.2951
 21
192.755
  0
LINE
  8
0
 10
-15.2951
 20
192.755
 11
-15.8789
 21
192.524
  0
LINE
  8
0
 10
-15.8789
 20
192.524
 11
-16.4291
 21
192.222
  0
LINE
  8
0
 10
-16.4291
 20
192.222
 11
-16.9371
 21
191.853
  0
LINE
  8
0
 10
-16.9371
 20
191.853
 11
-17.3948
 21
191.423
  0
LINE
  8
0
 10
-17.3948
 20
191.423
 11
-17.7951
 21
190.939
  0
LINE
  8
0
 10
-17.7951
 20
190.939
 11
-18.1315
 21
190.409
  0
LINE
  8
0
 10
-18.1315
 20
190.409
 11
-18.25
 21
190.157
  0
LINE
  8
0
 10
-18.25
 20
190.157
 11
-18.25
 21
205
  0
LINE
  8
0
 10
-18.25
 20
205
 11
-18.2145
 21
205.564
  0
LINE
  8
0
 10
-18.2145
 20
205.564
 11
-18.1086
 21
206.119
  0
LINE
  8
0
 10
-18.1086
 20
206.119
 11
-17.934
 21
206.657
  0
LINE
  8
0
 10
-17.934
 20
206.657
 11
-17.6934
 21
207.168
  0
LINE
  8
0
 10
-17.6934
 20
207.168
 11
-17.3906
 21
207.645
  0
LINE
  8
0
 10
-17.3906
 20
207.645
 11
-17.0303
 21
208.08
  0
LINE
  8
0
 10
-17.0303
 20
208.08
 11
-16.6184
 21
208.467
  0
LINE
  8
0
 10
-16.6184
 20
208.467
 11
-16.1612
 21
208.799
  0
LINE
  8
0
 10
-16.1612
 20
208.799
 11
-15.666
 21
209.072
  0
LINE
  8
0
 10
-15.666
 20
209.072
 11
-15.1406
 21
209.28
  0
LINE
  8
0
 10
-15.1406
 20
209.28
 11
-14.5932
 21
209.42
  0
LINE
  8
0
 10
-14.5932
 20
209.42
 11
-14.0325
 21
209.491
  0
LINE
  8
0
 10
-14.0325
 20
209.491
 11
14.0325
 21
209.491
  0
LINE
  8
0
 10
14.0325
 20
209.491
 11
14.5932
 21
209.42
  0
LINE
  8
0
 10
14.5932
 20
209.42
 11
15.1406
 21
209.28
  0
LINE
  8
0
 10
15.1406
 20
209.28
 11
15.666
 21
209.072
  0
LINE
  8
0
 10
15.666
 20
209.072
 11
16.1612
 21
208.799
  0
LINE
  8
0
 10
16.1612
 20
208.799
 11
16.6184
 21
208.467
  0
LINE
  8
0
 10
16.6184
 20
208.467
 11
17.0303
 21
208.08
  0
LINE
  8
0
 10
17.0303
 20
208.08
 11
17.3906
 21
207.645
  0
LINE
  8
0
 10
17.3906
 20
207.645
 11
17.6934
 21
207.168
  0
LINE
  8
0
 10
17.6934
 20
207.168
 11
17.934
 21
206.657
  0
LINE
  8
0
 10
17.934
 20
206.657
 11
18.1086
 21
206.119
  0
LINE
  8
0
 10
18.1086
 20
206.119
 11
18.2145
 21
205.564
  0
LINE
  8
0
 10
18.2145
 20
205.564
 11
18.25
 21
205
  0
LINE
  8
0
 10
18.25
 20
205
 11
18.25
 21
185
  0
LINE
  8
0
 10
18.25
 20
185
 11
18.2145
 21
184.436
  0
LINE
  8
0
 10
18.2145
 20
184.436
 11
18.1086
 21
183.881
  0
LINE
  8
0
 10
18.1086
 20
183.881
 11
17.934
 21
183.343
  0
LINE
  8
0
 10
17.934
 20
183.343
 11
17.6934
 21
182.832
  0
LINE
  8
0
 10
17.6934
 20
182.832
 11
17.3906
 21
182.355
  0
LINE
  8
0
 10
17.3906
 20
182.355
 11
17.0303
 21
181.92
  0
LINE
  8
0
 10
17.0303
 20
181.92
 11
16.6184
 21
181.533
  0
LINE
  8
0
 10
16.6184
 20
181.533
 11
16.1612
 21
181.201
  0
LINE
  8
0
 10
16.1612
 20
181.201
 11
15.666
 21
180.928
  0
LINE
  8
0
 10
15.666
 20
180.928
 11
15.1406
 21
180.72
  0
LINE
  8
0
 10
15.1406
 20
180.72
 11
14.5932
 21
180.58
  0
LINE
  8
0
 10
14.5932
 20
180.58
 11
14.0325
 21
180.509
  0
LINE
  8
0
 10
14.0325
 20
180.509
 11
-8.56104
 21
180.509
  0
LINE
  8
0
 10
11.7184
 20
200.044
 11
12.0225
 21
200.122
  0
LINE
  8
0
 10
12.0225
 20
200.122
 11
12.3144
 21
200.238
  0
LINE
  8
0
 10
12.3144
 20
200.238
 11
12.5896
 21
200.389
  0
LINE
  8
0
 10
12.5896
 20
200.389
 11
12.8436
 21
200.574
  0
LINE
  8
0
 10
12.8436
 20
200.574
 11
13.0724
 21
200.789
  0
LINE
  8
0
 10
13.0724
 20
200.789
 11
13.2725
 21
201.031
  0
LINE
  8
0
 10
13.2725
 20
201.031
 11
13.4408
 21
201.296
  0
LINE
  8
0
 10
13.4408
 20
201.296
 11
13.5744
 21
201.58
  0
LINE
  8
0
 10
13.5744
 20
201.58
 11
13.6714
 21
201.878
  0
LINE
  8
0
 10
13.6714
 20
201.878
 11
13.7303
 21
202.187
  0
LINE
  8
0
 10
13.7303
 20
202.187
 11
13.75
 21
202.5
  0
LINE
  8
0
 10
13.75
 20
202.5
 11
13.7303
 21
202.813
  0
LINE
  8
0
 10
13.7303
 20
202.813
 11
13.6714
 21
203.122
  0
LINE
  8
0
 10
13.6714
 20
203.122
 11
13.5744
 21
203.42
  0
LINE
  8
0
 10
13.5744
 20
203.42
 11
13.4408
 21
203.704
  0
LINE
  8
0
 10
13.4408
 20
203.704
 11
13.2725
 21
203.969
  0
LINE
  8
0
 10
13.2725
 20
203.969
 11
13.0724
 21
204.211
  0
LINE
  8
0
 10
13.0724
 20
204.211
 11
12.8436
 21
204.426
  0
LINE
  8
0
 10
12.8436
 20
204.426
 11
12.5896
 21
204.611
  0
LINE
  8
0
 10
12.5896
 20
204.611
 11
12.3144
 21
204.762
  0
LINE
  8
0
 10
12.3144
 20
204.762
 11
12.0225
 21
204.878
  0
LINE
  8
0
 10
12.0225
 20
204.878
 11
11.7184
 21
204.956
  0
LINE
  8
0
 10
11.7184
 20
204.956
 11
11.407
 21
204.995
  0
LINE
  8
0
 10
11.407
 20
204.995
 11
11.093
 21
204.995
  0
LINE
  8
0
 10
11.093
 20
204.995
 11
10.7815
 21
204.956
  0
LINE
  8
0
 10
10.7815
 20
204.956
 11
10.4774
 21
204.878
  0
LINE
  8
0
 10
10.4774
 20
204.878
 11
10.1855
 21
204.762
  0
LINE
  8
0
 10
10.1855
 20
204.762
 11
9.91043
 21
204.611
  0
LINE
  8
0
 10
9.91043
 20
204.611
 11
9.65643
 21
204.426
  0
LINE
  8
0
 10
9.65643
 20
204.426
 11
9.42757
 21
204.211
  0
LINE
  8
0
 10
9.42757
 20
204.211
 11
9.22745
 21
203.969
  0
LINE
  8
0
 10
9.22745
 20
203.969
 11
9.05922
 21
203.704
  0
LINE
  8
0
 10
9.05922
 20
203.704
 11
8.92555
 21
203.42
  0
LINE
  8
0
 10
8.92555
 20
203.42
 11
8.82854
 21
203.122
  0
LINE
  8
0
 10
8.82854
 20
203.122
 11
8.7697
 21
202.813
  0
LINE
  8
0
 10
8.7697
 20
202.813
 11
8.75
 21
202.5
  0
LINE
  8
0
 10
8.75
 20
202.5
 11
8.7697
 21
202.187
  0
LINE
  8
0
 10
8.7697
 20
202.187
 11
8.82854
 21
201.878
  0
LINE
  8
0
 10
8.82854
 20
201.878
 11
8.92555
 21
201.58
  0
LINE
  8
0
 10
8.92555
 20
201.58
 11
9.05922
 21
201.296
  0
LINE
  8
0
 10
9.05922
 20
201.296
 11
9.22745
 21
201.031
  0
LINE
  8
0
 10
9.22745
 20
201.031
 11
9.42757
 21
200.789
  0
LINE
  8
0
 10
9.42757
 20
200.789
 11
9.65643
 21
200.574
  0
LINE
  8
0
 10
9.65643
 20
200.574
 11
9.91043
 21
200.389
  0
LINE
  8
0
 10
9.91043
 20
200.389
 11
10.1855
 21
200.238
  0
LINE
  8
0
 10
10.1855
 20
200.238
 11
10.4774
 21
200.122
  0
LINE
  8
0
 10
10.4774
 20
200.122
 11
10.7815
 21
200.044
  0
LINE
  8
0
 10
10.7815
 20
200.044
 11
11.093
 21
200.005
  0
LINE
  8
0
 10
11.093
 20
200.005
 11
11.407
 21
200.005
  0
LINE
  8
0
 10
11.407
 20
200.005
 11
11.7184
 21
200.044
  0
LINE
  8
0
 10
11.1558
 20
201.003
 11
10.9689
 21
201.027
  0
LINE
  8
0
 10
10.9689
 20
201.027
 11
10.7865
 21
201.073
  0
LINE
  8
0
 10
10.7865
 20
201.073
 11
10.6113
 21
201.143
  0
LINE
  8
0
 10
10.6113
 20
201.143
 11
10.4463
 21
201.234
  0
LINE
  8
0
 10
10.4463
 20
201.234
 11
10.2939
 21
201.344
  0
LINE
  8
0
 10
10.2939
 20
201.344
 11
10.1565
 21
201.473
  0
LINE
  8
0
 10
10.1565
 20
201.473
 11
10.0365
 21
201.618
  0
LINE
  8
0
 10
10.0365
 20
201.618
 11
9.93553
 21
201.777
  0
LINE
  8
0
 10
9.93553
 20
201.777
 11
9.85533
 21
201.948
  0
LINE
  8
0
 10
9.85533
 20
201.948
 11
9.79712
 21
202.127
  0
LINE
  8
0
 10
9.79712
 20
202.127
 11
9.76183
 21
202.312
  0
LINE
  8
0
 10
9.76183
 20
202.312
 11
9.75
 21
202.5
  0
LINE
  8
0
 10
9.75
 20
202.5
 11
9.76183
 21
202.688
  0
LINE
  8
0
 10
9.76183
 20
202.688
 11
9.79712
 21
202.873
  0
LINE
  8
0
 10
9.79712
 20
202.873
 11
9.85533
 21
203.052
  0
LINE
  8
0
 10
9.85533
 20
203.052
 11
9.93553
 21
203.223
  0
LINE
  8
0
 10
9.93553
 20
203.223
 11
10.0365
 21
203.382
  0
LINE
  8
0
 10
10.0365
 20
203.382
 11
10.1565
 21
203.527
  0
LINE
  8
0
 10
10.1565
 20
203.527
 11
10.2939
 21
203.656
  0
LINE
  8
0
 10
10.2939
 20
203.656
 11
10.4463
 21
203.766
  0
LINE
  8
0
 10
10.4463
 20
203.766
 11
10.6113
 21
203.857
  0
LINE
  8
0
 10
10.6113
 20
203.857
 11
10.7865
 21
203.927
  0
LINE
  8
0
 10
10.7865
 20
203.927
 11
10.9689
 21
203.973
  0
LINE
  8
0
 10
10.9689
 20
203.973
 11
11.1558
 21
203.997
  0
LINE
  8
0
 10
11.1558
 20
203.997
 11
11.3442
 21
203.997
  0
LINE
  8
0
 10
11.3442
 20
203.997
 11
11.5311
 21
203.973
  0
LINE
  8
0
 10
11.5311
 20
203.973
 11
11.7135
 21
203.927
  0
LINE
  8
0
 10
11.7135
 20
203.927
 11
11.8887
 21
203.857
  0
LINE
  8
0
 10
11.8887
 20
203.857
 11
12.0537
 21
203.766
  0
LINE
  8
0
 10
12.0537
 20
203.766
 11
12.2061
 21
203.656
  0
LINE
  8
0
 10
12.2061
 20
203.656
 11
12.3434
 21
203.527
  0
LINE
  8
0
 10
12.3434
 20
203.527
 11
12.4635
 21
203.382
  0
LINE
  8
0
 10
12.4635
 20
203.382
 11
12.5645
 21
203.223
  0
LINE
  8
0
 10
12.5645
 20
203.223
 11
12.6447
 21
203.052
  0
LINE
  8
0
 10
12.6447
 20
203.052
 11
12.7029
 21
202.873
  0
LINE
  8
0
 10
12.7029
 20
202.873
 11
12.7382
 21
202.688
  0
LINE
  8
0
 10
12.7382
 20
202.688
 11
12.75
 21
202.5
  0
LINE
  8
0
 10
12.75
 20
202.5
 11
12.7382
 21
202.312
  0
LINE
  8
0
 10
12.7382
 20
202.312
 11
12.7029
 21
202.127
  0
LINE
  8
0
 10
12.7029
 20
202.127
 11
12.6447
 21
201.948
  0
LINE
  8
0
 10
12.6447
 20
201.948
 11
12.5645
 21
201.777
  0
LINE
  8
0
 10
12.5645
 20
201.777
 11
12.4635
 21
201.618
  0
LINE
  8
0
 10
12.4635
 20
201.618
 11
12.3434
 21
201.473
  0
LINE
  8
0
 10
12.3434
 20
201.473
 11
12.2061
 21
201.344
  0
LINE
  8
0
 10
12.2061
 20
201.344
 11
12.0537
 21
201.234
  0
LINE
  8
0
 10
12.0537
 20
201.234
 11
11.8887
 21
201.143
  0
LINE
  8
0
 10
11.8887
 20
201.143
 11
11.7135
 21
201.073
  0
LINE
  8
0
 10
11.7135
 20
201.073
 11
11.5311
 21
201.027
  0
LINE
  8
0
 10
11.5311
 20
201.027
 11
11.3442
 21
201.003
  0
LINE
  8
0
 10
11.3442
 20
201.003
 11
11.1558
 21
201.003
  0
LINE
  8
0
 10
-11.3442
 20
186.003
 11
-11.5311
 21
186.027
  0
LINE
  8
0
 10
-11.5311
 20
186.027
 11
-11.7135
 21
186.073
  0
LINE
  8
0
 10
-11.7135
 20
186.073
 11
-11.8887
 21
186.143
  0
LINE
  8
0
 10
-11.8887
 20
186.143
 11
-12.0537
 21
186.234
  0
LINE
  8
0
 10
-12.0537
 20
186.234
 11
-12.2061
 21
186.344
  0
LINE
  8
0
 10
-12.2061
 20
186.344
 11
-12.3434
 21
186.473
  0
LINE
  8
0
 10
-12.3434
 20
186.473
 11
-12.4635
 21
186.618
  0
LINE
  8
0
 10
-12.4635
 20
186.618
 11
-12.5645
 21
186.777
  0
LINE
  8
0
 10
-12.5645
 20
186.777
 11
-12.6447
 21
186.948
  0
LINE
  8
0
 10
-12.6447
 20
186.948
 11
-12.7029
 21
187.127
  0
LINE
  8
0
 10
-12.7029
 20
187.127
 11
-12.7382
 21
187.312
  0
LINE
  8
0
 10
-12.7382
 20
187.312
 11
-12.75
 21
187.5
  0
LINE
  8
0
 10
-12.75
 20
187.5
 11
-12.7382
 21
187.688
  0
LINE
  8
0
 10
-12.7382
 20
187.688
 11
-12.7029
 21
187.873
  0
LINE
  8
0
 10
-12.7029
 20
187.873
 11
-12.6447
 21
188.052
  0
LINE
  8
0
 10
-12.6447
 20
188.052
 11
-12.5645
 21
188.223
  0
LINE
  8
0
 10
-12.5645
 20
188.223
 11
-12.4635
 21
188.382
  0
LINE
  8
0
 10
-12.4635
 20
188.382
 11
-12.3434
 21
188.527
  0
LINE
  8
0
 10
-12.3434
 20
188.527
 11
-12.2061
 21
188.656
  0
LINE
  8
0
 10
-12.2061
 20
188.656
 11
-12.0537
 21
188.766
  0
LINE
  8
0
 10
-12.0537
 20
188.766
 11
-11.8887
 21
188.857
  0
LINE
  8
0
 10
-11.8887
 20
188.857
 11
-11.7135
 21
188.927
  0
LINE
  8
0
 10
-11.7135
 20
188.927
 11
-11.5311
 21
188.973
  0
LINE
  8
0
 10
-11.5311
 20
188.973
 11
-11.3442
 21
188.997
  0
LINE
  8
0
 10
-11.3442
 20
188.997
 11
-11.1558
 21
188.997
  0
LINE
  8
0
 10
-11.1558
 20
188.997
 11
-10.9689
 21
188.973
  0
LINE
  8
0
 10
-10.9689
 20
188.973
 11
-10.7865
 21
188.927
  0
LINE
  8
0
 10
-10.7865
 20
188.927
 11
-10.6113
 21
188.857
  0
LINE
  8
0
 10
-10.6113
 20
188.857
 11
-10.4463
 21
188.766
  0
LINE
  8
0
 10
-10.4463
 20
188.766
 11
-10.2939
 21
188.656
  0
LINE
  8
0
 10
-10.2939
 20
188.656
 11
-10.1565
 21
188.527
  0
LINE
  8
0
 10
-10.1565
 20
188.527
 11
-10.0365
 21
188.382
  0
LINE
  8
0
 10
-10.0365
 20
188.382
 11
-9.93553
 21
188.223
  0
LINE
  8
0
 10
-9.93553
 20
188.223
 11
-9.85533
 21
188.052
  0
LINE
  8
0
 10
-9.85533
 20
188.052
 11
-9.79712
 21
187.873
  0
LINE
  8
0
 10
-9.79712
 20
187.873
 11
-9.76183
 21
187.688
  0
LINE
  8
0
 10
-9.76183
 20
187.688
 11
-9.75
 21
187.5
  0
LINE
  8
0
 10
-9.75
 20
187.5
 11
-9.76183
 21
187.312
  0
LINE
  8
0
 10
-9.76183
 20
187.312
 11
-9.79712
 21
187.127
  0
LINE
  8
0
 10
-9.79712
 20
187.127
 11
-9.85533
 21
186.948
  0
LINE
  8
0
 10
-9.85533
 20
186.948
 11
-9.93553
 21
186.777
  0
LINE
  8
0
 10
-9.93553
 20
186.777
 11
-10.0365
 21
186.618
  0
LINE
  8
0
 10
-10.0365
 20
186.618
 11
-10.1565
 21
186.473
  0
LINE
  8
0
 10
-10.1565
 20
186.473
 11
-10.2939
 21
186.344
  0
LINE
  8
0
 10
-10.2939
 20
186.344
 11
-10.4463
 21
186.234
  0
LINE
  8
0
 10
-10.4463
 20
186.234
 11
-10.6113
 21
186.143
  0
LINE
  8
0
 10
-10.6113
 20
186.143
 11
-10.7865
 21
186.073
  0
LINE
  8
0
 10
-10.7865
 20
186.073
 11
-10.9689
 21
186.027
  0
LINE
  8
0
 10
-10.9689
 20
186.027
 11
-11.1558
 21
186.003
  0
LINE
  8
0
 10
-11.1558
 20
186.003
 11
-11.3442
 21
186.003
  0
LINE
  8
0
 10
14.6869
 20
141.089
 11
15.2951
 21
141.245
  0
LINE
  8
0
 10
15.2951
 20
141.245
 11
15.8789
 21
141.476
  0
LINE
  8
0
 10
15.8789
 20
141.476
 11
16.4291
 21
141.778
  0
LINE
  8
0
 10
16.4291
 20
141.778
 11
16.9371
 21
142.147
  0
LINE
  8
0
 10
16.9371
 20
142.147
 11
17.3948
 21
142.577
  0
LINE
  8
0
 10
17.3948
 20
142.577
 11
17.7951
 21
143.061
  0
LINE
  8
0
 10
17.7951
 20
143.061
 11
18.1315
 21
143.591
  0
LINE
  8
0
 10
18.1315
 20
143.591
 11
18.3989
 21
144.159
  0
LINE
  8
0
 10
18.3989
 20
144.159
 11
18.5929
 21
144.757
  0
LINE
  8
0
 10
18.5929
 20
144.757
 11
18.7106
 21
145.373
  0
LINE
  8
0
 10
18.7106
 20
145.373
 11
18.75
 21
146
  0
LINE
  8
0
 10
18.75
 20
146
 11
18.75
 21
166
  0
LINE
  8
0
 10
18.75
 20
166
 11
18.7106
 21
166.627
  0
LINE
  8
0
 10
18.7106
 20
166.627
 11
18.5929
 21
167.243
  0
LINE
  8
0
 10
18.5929
 20
167.243
 11
18.3989
 21
167.841
  0
LINE
  8
0
 10
18.3989
 20
167.841
 11
18.1315
 21
168.409
  0
LINE
  8
0
 10
18.1315
 20
168.409
 11
17.7951
 21
168.939
  0
LINE
  8
0
 10
17.7951
 20
168.939
 11
17.3948
 21
169.423
  0
LINE
  8
0
 10
17.3948
 20
169.423
 11
16.9371
 21
169.853
  0
LINE
  8
0
 10
16.9371
 20
169.853
 11
16.4291
 21
170.222
  0
LINE
  8
0
 10
16.4291
 20
170.222
 11
15.8789
 21
170.524
  0
LINE
  8
0
 10
15.8789
 20
170.524
 11
15.2951
 21
170.755
  0
LINE
  8
0
 10
15.2951
 20
170.755
 11
14.6869
 21
170.911
  0
LINE
  8
0
 10
14.6869
 20
170.911
 11
14.0639
 21
170.99
  0
LINE
  8
0
 10
14.0639
 20
170.99
 11
-14.0639
 21
170.99
  0
LINE
  8
0
 10
-14.0639
 20
170.99
 11
-14.6869
 21
170.911
  0
LINE
  8
0
 10
-14.6869
 20
170.911
 11
-15.2951
 21
170.755
  0
LINE
  8
0
 10
-15.2951
 20
170.755
 11
-15.8789
 21
170.524
  0
LINE
  8
0
 10
-15.8789
 20
170.524
 11
-16.4291
 21
170.222
  0
LINE
  8
0
 10
-16.4291
 20
170.222
 11
-16.9371
 21
169.853
  0
LINE
  8
0
 10
-16.9371
 20
169.853
 11
-17.3948
 21
169.423
  0
LINE
  8
0
 10
-17.3948
 20
169.423
 11
-17.7951
 21
168.939
  0
LINE
  8
0
 10
-17.7951
 20
168.939
 11
-18.1315
 21
168.409
  0
LINE
  8
0
 10
-18.1315
 20
168.409
 11
-18.3989
 21
167.841
  0
LINE
  8
0
 10
-18.3989
 20
167.841
 11
-18.5929
 21
167.243
  0
LINE
  8
0
 10
-18.5929
 20
167.243
 11
-18.7106
 21
166.627
  0
LINE
  8
0
 10
-18.7106
 20
166.627
 11
-18.75
 21
166
  0
LINE
  8
0
 10
-18.75
 20
166
 11
-18.75
 21
146
  0
LINE
  8
0
 10
-18.75
 20
146
 11
-18.7106
 21
145.373
  0
LINE
  8
0
 10
-18.7106
 20
145.373
 11
-18.5929
 21
144.757
  0
LINE
  8
0
 10
-18.5929
 20
144.757
 11
-18.3989
 21
144.159
  0
LINE
  8
0
 10
-18.3989
 20
144.159
 11
-18.1315
 21
143.591
  0
LINE
  8
0
 10
-18.1315
 20
143.591
 11
-17.7951
 21
143.061
  0
LINE
  8
0
 10
-17.7951
 20
143.061
 11
-17.3948
 21
142.577
  0
LINE
  8
0
 10
-17.3948
 20
142.577
 11
-16.9371
 21
142.147
  0
LINE
  8
0
 10
-16.9371
 20
142.147
 11
-16.4291
 21
141.778
  0
LINE
  8
0
 10
-16.4291
 20
141.778
 11
-15.8789
 21
141.476
  0
LINE
  8
0
 10
-15.8789
 20
141.476
 11
-15.2951
 21
141.245
  0
LINE
  8
0
 10
-15.2951
 20
141.245
 11
-14.6869
 21
141.089
  0
LINE
  8
0
 10
-14.6869
 20
141.089
 11
-14.0639
 21
141.01
  0
LINE
  8
0
 10
-14.0639
 20
141.01
 11
14.0639
 21
141.01
  0
LINE
  8
0
 10
14.0639
 20
141.01
 11
14.6869
 21
141.089
  0
LINE
  8
0
 10
-7.78568
 20
141.986
 11
-7.56287
 21
142.147
  0
LINE
  8
0
 10
-7.56287
 20
142.147
 11
-7.10515
 21
142.577
  0
LINE
  8
0
 10
-7.10515
 20
142.577
 11
-6.70491
 21
143.061
  0
LINE
  8
0
 10
-6.70491
 20
143.061
 11
-6.36845
 21
143.591
  0
LINE
  8
0
 10
-6.36845
 20
143.591
 11
-6.1011
 21
144.159
  0
LINE
  8
0
 10
-6.1011
 20
144.159
 11
-5.90707
 21
144.757
  0
LINE
  8
0
 10
-5.90707
 20
144.757
 11
-5.78941
 21
145.373
  0
LINE
  8
0
 10
-5.78941
 20
145.373
 11
-5.75
 21
146
  0
LINE
  8
0
 10
-5.75
 20
146
 11
-5.75
 21
149
  0
LINE
  8
0
 10
-5.75
 20
149
 11
-5.78941
 21
149.627
  0
LINE
  8
0
 10
-5.78941
 20
149.627
 11
-5.90707
 21
150.243
  0
LINE
  8
0
 10
-5.90707
 20
150.243
 11
-6.1011
 21
150.841
  0
LINE
  8
0
 10
-6.1011
 20
150.841
 11
-6.36845
 21
151.409
  0
LINE
  8
0
 10
-6.36845
 20
151.409
 11
-6.70491
 21
151.939
  0
LINE
  8
0
 10
-6.70491
 20
151.939
 11
-7.10515
 21
152.423
  0
LINE
  8
0
 10
-7.10515
 20
152.423
 11
-7.56287
 21
152.853
  0
LINE
  8
0
 10
-7.56287
 20
152.853
 11
-8.07086
 21
153.222
  0
LINE
  8
0
 10
-8.07086
 20
153.222
 11
-8.62109
 21
153.524
  0
LINE
  8
0
 10
-8.62109
 20
153.524
 11
-9.20491
 21
153.755
  0
LINE
  8
0
 10
-9.20491
 20
153.755
 11
-9.81308
 21
153.911
  0
LINE
  8
0
 10
-9.81308
 20
153.911
 11
-10.436
 21
153.99
  0
LINE
  8
0
 10
-10.436
 20
153.99
 11
-14.0639
 21
153.99
  0
LINE
  8
0
 10
-14.0639
 20
153.99
 11
-14.6869
 21
153.911
  0
LINE
  8
0
 10
-14.6869
 20
153.911
 11
-15.2951
 21
153.755
  0
LINE
  8
0
 10
-15.2951
 20
153.755
 11
-15.8789
 21
153.524
  0
LINE
  8
0
 10
-15.8789
 20
153.524
 11
-16.4291
 21
153.222
  0
LINE
  8
0
 10
-16.4291
 20
153.222
 11
-16.9371
 21
152.853
  0
LINE
  8
0
 10
-16.9371
 20
152.853
 11
-17.3948
 21
152.423
  0
LINE
  8
0
 10
-17.3948
 20
152.423
 11
-17.7724
 21
151.966
  0
LINE
  8
0
 10
-17.7724
 20
151.966
 11
-17.7724
 21
166
  0
LINE
  8
0
 10
-17.7724
 20
166
 11
-17.7407
 21
166.504
  0
LINE
  8
0
 10
-17.7407
 20
166.504
 11
-17.646
 21
167
  0
LINE
  8
0
 10
-17.646
 20
167
 11
-17.4899
 21
167.481
  0
LINE
  8
0
 10
-17.4899
 20
167.481
 11
-17.2748
 21
167.938
  0
LINE
  8
0
 10
-17.2748
 20
167.938
 11
-17.0042
 21
168.364
  0
LINE
  8
0
 10
-17.0042
 20
168.364
 11
-16.6822
 21
168.754
  0
LINE
  8
0
 10
-16.6822
 20
168.754
 11
-16.3139
 21
169.099
  0
LINE
  8
0
 10
-16.3139
 20
169.099
 11
-15.9053
 21
169.396
  0
LINE
  8
0
 10
-15.9053
 20
169.396
 11
-15.4626
 21
169.64
  0
LINE
  8
0
 10
-15.4626
 20
169.64
 11
-14.993
 21
169.826
  0
LINE
  8
0
 10
-14.993
 20
169.826
 11
-14.5037
 21
169.951
  0
LINE
  8
0
 10
-14.5037
 20
169.951
 11
-14.0026
 21
170.014
  0
LINE
  8
0
 10
-14.0026
 20
170.014
 11
7.78568
 21
170.014
  0
LINE
  8
0
 10
7.78568
 20
170.014
 11
7.56287
 21
169.853
  0
LINE
  8
0
 10
7.56287
 20
169.853
 11
7.10515
 21
169.423
  0
LINE
  8
0
 10
7.10515
 20
169.423
 11
6.70491
 21
168.939
  0
LINE
  8
0
 10
6.70491
 20
168.939
 11
6.36845
 21
168.409
  0
LINE
  8
0
 10
6.36845
 20
168.409
 11
6.1011
 21
167.841
  0
LINE
  8
0
 10
6.1011
 20
167.841
 11
5.90707
 21
167.243
  0
LINE
  8
0
 10
5.90707
 20
167.243
 11
5.78941
 21
166.627
  0
LINE
  8
0
 10
5.78941
 20
166.627
 11
5.75
 21
166
  0
LINE
  8
0
 10
5.75
 20
166
 11
5.75
 21
163
  0
LINE
  8
0
 10
5.75
 20
163
 11
5.78941
 21
162.373
  0
LINE
  8
0
 10
5.78941
 20
162.373
 11
5.90707
 21
161.757
  0
LINE
  8
0
 10
5.90707
 20
161.757
 11
6.1011
 21
161.159
  0
LINE
  8
0
 10
6.1011
 20
161.159
 11
6.36845
 21
160.591
  0
LINE
  8
0
 10
6.36845
 20
160.591
 11
6.70491
 21
160.061
  0
LINE
  8
0
 10
6.70491
 20
160.061
 11
7.10515
 21
159.577
  0
LINE
  8
0
 10
7.10515
 20
159.577
 11
7.56287
 21
159.147
  0
LINE
  8
0
 10
7.56287
 20
159.147
 11
8.07086
 21
158.778
  0
LINE
  8
0
 10
8.07086
 20
158.778
 11
8.62109
 21
158.476
  0
LINE
  8
0
 10
8.62109
 20
158.476
 11
9.20491
 21
158.245
  0
LINE
  8
0
 10
9.20491
 20
158.245
 11
9.81308
 21
158.089
  0
LINE
  8
0
 10
9.81308
 20
158.089
 11
10.436
 21
158.01
  0
LINE
  8
0
 10
10.436
 20
158.01
 11
14.0639
 21
158.01
  0
LINE
  8
0
 10
14.0639
 20
158.01
 11
14.6869
 21
158.089
  0
LINE
  8
0
 10
14.6869
 20
158.089
 11
15.2951
 21
158.245
  0
LINE
  8
0
 10
15.2951
 20
158.245
 11
15.8789
 21
158.476
  0
LINE
  8
0
 10
15.8789
 20
158.476
 11
16.4291
 21
158.778
  0
LINE
  8
0
 10
16.4291
 20
158.778
 11
16.9371
 21
159.147
  0
LINE
  8
0
 10
16.9371
 20
159.147
 11
17.3948
 21
159.577
  0
LINE
  8
0
 10
17.3948
 20
159.577
 11
17.7724
 21
160.034
  0
LINE
  8
0
 10
17.7724
 20
160.034
 11
17.7724
 21
146
  0
LINE
  8
0
 10
17.7724
 20
146
 11
17.7407
 21
145.496
  0
LINE
  8
0
 10
17.7407
 20
145.496
 11
17.646
 21
145
  0
LINE
  8
0
 10
17.646
 20
145
 11
17.4899
 21
144.519
  0
LINE
  8
0
 10
17.4899
 20
144.519
 11
17.2748
 21
144.062
  0
LINE
  8
0
 10
17.2748
 20
144.062
 11
17.0042
 21
143.636
  0
LINE
  8
0
 10
17.0042
 20
143.636
 11
16.6822
 21
143.246
  0
LINE
  8
0
 10
16.6822
 20
143.246
 11
16.3139
 21
142.901
  0
LINE
  8
0
 10
16.3139
 20
142.901
 11
15.9053
 21
142.604
  0
LINE
  8
0
 10
15.9053
 20
142.604
 11
15.4626
 21
142.36
  0
LINE
  8
0
 10
15.4626
 20
142.36
 11
14.993
 21
142.174
  0
LINE
  8
0
 10
14.993
 20
142.174
 11
14.5037
 21
142.049
  0
LINE
  8
0
 10
14.5037
 20
142.049
 11
14.0026
 21
141.986
  0
LINE
  8
0
 10
14.0026
 20
141.986
 11
-7.78568
 21
141.986
  0
LINE
  8
0
 10
11.1558
 20
162.003
 11
10.9689
 21
162.027
  0
LINE
  8
0
 10
10.9689
 20
162.027
 11
10.7865
 21
162.073
  0
LINE
  8
0
 10
10.7865
 20
162.073
 11
10.6113
 21
162.143
  0
LINE
  8
0
 10
10.6113
 20
162.143
 11
10.4463
 21
162.234
  0
LINE
  8
0
 10
10.4463
 20
162.234
 11
10.2939
 21
162.344
  0
LINE
  8
0
 10
10.2939
 20
162.344
 11
10.1565
 21
162.473
  0
LINE
  8
0
 10
10.1565
 20
162.473
 11
10.0365
 21
162.618
  0
LINE
  8
0
 10
10.0365
 20
162.618
 11
9.93553
 21
162.777
  0
LINE
  8
0
 10
9.93553
 20
162.777
 11
9.85533
 21
162.948
  0
LINE
  8
0
 10
9.85533
 20
162.948
 11
9.79712
 21
163.127
  0
LINE
  8
0
 10
9.79712
 20
163.127
 11
9.76183
 21
163.312
  0
LINE
  8
0
 10
9.76183
 20
163.312
 11
9.75
 21
163.5
  0
LINE
  8
0
 10
9.75
 20
163.5
 11
9.76183
 21
163.688
  0
LINE
  8
0
 10
9.76183
 20
163.688
 11
9.79712
 21
163.873
  0
LINE
  8
0
 10
9.79712
 20
163.873
 11
9.85533
 21
164.052
  0
LINE
  8
0
 10
9.85533
 20
164.052
 11
9.93553
 21
164.223
  0
LINE
  8
0
 10
9.93553
 20
164.223
 11
10.0365
 21
164.382
  0
LINE
  8
0
 10
10.0365
 20
164.382
 11
10.1565
 21
164.527
  0
LINE
  8
0
 10
10.1565
 20
164.527
 11
10.2939
 21
164.656
  0
LINE
  8
0
 10
10.2939
 20
164.656
 11
10.4463
 21
164.766
  0
LINE
  8
0
 10
10.4463
 20
164.766
 11
10.6113
 21
164.857
  0
LINE
  8
0
 10
10.6113
 20
164.857
 11
10.7865
 21
164.927
  0
LINE
  8
0
 10
10.7865
 20
164.927
 11
10.9689
 21
164.973
  0
LINE
  8
0
 10
10.9689
 20
164.973
 11
11.1558
 21
164.997
  0
LINE
  8
0
 10
11.1558
 20
164.997
 11
11.3442
 21
164.997
  0
LINE
  8
0
 10
11.3442
 20
164.997
 11
11.5311
 21
164.973
  0
LINE
  8
0
 10
11.5311
 20
164.973
 11
11.7135
 21
164.927
  0
LINE
  8
0
 10
11.7135
 20
164.927
 11
11.8887
 21
164.857
  0
LINE
  8
0
 10
11.8887
 20
164.857
 11
12.0537
 21
164.766
  0
LINE
  8
0
 10
12.0537
 20
164.766
 11
12.2061
 21
164.656
  0
LINE
  8
0
 10
12.2061
 20
164.656
 11
12.3434
 21
164.527
  0
LINE
  8
0
 10
12.3434
 20
164.527
 11
12.4635
 21
164.382
  0
LINE
  8
0
 10
12.4635
 20
164.382
 11
12.5645
 21
164.223
  0
LINE
  8
0
 10
12.5645
 20
164.223
 11
12.6447
 21
164.052
  0
LINE
  8
0
 10
12.6447
 20
164.052
 11
12.7029
 21
163.873
  0
LINE
  8
0
 10
12.7029
 20
163.873
 11
12.7382
 21
163.688
  0
LINE
  8
0
 10
12.7382
 20
163.688
 11
12.75
 21
163.5
  0
LINE
  8
0
 10
12.75
 20
163.5
 11
12.7382
 21
163.312
  0
LINE
  8
0
 10
12.7382
 20
163.312
 11
12.7029
 21
163.127
  0
LINE
  8
0
 10
12.7029
 20
163.127
 11
12.6447
 21
162.948
  0
LINE
  8
0
 10
12.6447
 20
162.948
 11
12.5645
 21
162.777
  0
LINE
  8
0
 10
12.5645
 20
162.777
 11
12.4635
 21
162.618
  0
LINE
  8
0
 10
12.4635
 20
162.618
 11
12.3434
 21
162.473
  0
LINE
  8
0
 10
12.3434
 20
162.473
 11
12.2061
 21
162.344
  0
LINE
  8
0
 10
12.2061
 20
162.344
 11
12.0537
 21
162.234
  0
LINE
  8
0
 10
12.0537
 20
162.234
 11
11.8887
 21
162.143
  0
LINE
  8
0
 10
11.8887
 20
162.143
 11
11.7135
 21
162.073
  0
LINE
  8
0
 10
11.7135
 20
162.073
 11
11.5311
 21
162.027
  0
LINE
  8
0
 10
11.5311
 20
162.027
 11
11.3442
 21
162.003
  0
LINE
  8
0
 10
11.3442
 20
162.003
 11
11.1558
 21
162.003
  0
LINE
  8
0
 10
-11.3442
 20
147.003
 11
-11.5311
 21
147.027
  0
LINE
  8
0
 10
-11.5311
 20
147.027
 11
-11.7135
 21
147.073
  0
LINE
  8
0
 10
-11.7135
 20
147.073
 11
-11.8887
 21
147.143
  0
LINE
  8
0
 10
-11.8887
 20
147.143
 11
-12.0537
 21
147.234
  0
LINE
  8
0
 10
-12.0537
 20
147.234
 11
-12.2061
 21
147.344
  0
LINE
  8
0
 10
-12.2061
 20
147.344
 11
-12.3434
 21
147.473
  0
LINE
  8
0
 10
-12.3434
 20
147.473
 11
-12.4635
 21
147.618
  0
LINE
  8
0
 10
-12.4635
 20
147.618
 11
-12.5645
 21
147.777
  0
LINE
  8
0
 10
-12.5645
 20
147.777
 11
-12.6447
 21
147.948
  0
LINE
  8
0
 10
-12.6447
 20
147.948
 11
-12.7029
 21
148.127
  0
LINE
  8
0
 10
-12.7029
 20
148.127
 11
-12.7382
 21
148.312
  0
LINE
  8
0
 10
-12.7382
 20
148.312
 11
-12.75
 21
148.5
  0
LINE
  8
0
 10
-12.75
 20
148.5
 11
-12.7382
 21
148.688
  0
LINE
  8
0
 10
-12.7382
 20
148.688
 11
-12.7029
 21
148.873
  0
LINE
  8
0
 10
-12.7029
 20
148.873
 11
-12.6447
 21
149.052
  0
LINE
  8
0
 10
-12.6447
 20
149.052
 11
-12.5645
 21
149.223
  0
LINE
  8
0
 10
-12.5645
 20
149.223
 11
-12.4635
 21
149.382
  0
LINE
  8
0
 10
-12.4635
 20
149.382
 11
-12.3434
 21
149.527
  0
LINE
  8
0
 10
-12.3434
 20
149.527
 11
-12.2061
 21
149.656
  0
LINE
  8
0
 10
-12.2061
 20
149.656
 11
-12.0537
 21
149.766
  0
LINE
  8
0
 10
-12.0537
 20
149.766
 11
-11.8887
 21
149.857
  0
LINE
  8
0
 10
-11.8887
 20
149.857
 11
-11.7135
 21
149.927
  0
LINE
  8
0
 10
-11.7135
 20
149.927
 11
-11.5311
 21
149.973
  0
LINE
  8
0
 10
-11.5311
 20
149.973
 11
-11.3442
 21
149.997
  0
LINE
  8
0
 10
-11.3442
 20
149.997
 11
-11.1558
 21
149.997
  0
LINE
  8
0
 10
-11.1558
 20
149.997
 11
-10.9689
 21
149.973
  0
LINE
  8
0
 10
-10.9689
 20
149.973
 11
-10.7865
 21
149.927
  0
LINE
  8
0
 10
-10.7865
 20
149.927
 11
-10.6113
 21
149.857
  0
LINE
  8
0
 10
-10.6113
 20
149.857
 11
-10.4463
 21
149.766
  0
LINE
  8
0
 10
-10.4463
 20
149.766
 11
-10.2939
 21
149.656
  0
LINE
  8
0
 10
-10.2939
 20
149.656
 11
-10.1565
 21
149.527
  0
LINE
  8
0
 10
-10.1565
 20
149.527
 11
-10.0365
 21
149.382
  0
LINE
  8
0
 10
-10.0365
 20
149.382
 11
-9.93553
 21
149.223
  0
LINE
  8
0
 10
-9.93553
 20
149.223
 11
-9.85533
 21
149.052
  0
LINE
  8
0
 10
-9.85533
 20
149.052
 11
-9.79712
 21
148.873
  0
LINE
  8
0
 10
-9.79712
 20
148.873
 11
-9.76183
 21
148.688
  0
LINE
  8
0
 10
-9.76183
 20
148.688
 11
-9.75
 21
148.5
  0
LINE
  8
0
 10
-9.75
 20
148.5
 11
-9.76183
 21
148.312
  0
LINE
  8
0
 10
-9.76183
 20
148.312
 11
-9.79712
 21
148.127
  0
LINE
  8
0
 10
-9.79712
 20
148.127
 11
-9.85533
 21
147.948
  0
LINE
  8
0
 10
-9.85533
 20
147.948
 11
-9.93553
 21
147.777
  0
LINE
  8
0
 10
-9.93553
 20
147.777
 11
-10.0365
 21
147.618
  0
LINE
  8
0
 10
-10.0365
 20
147.618
 11
-10.1565
 21
147.473
  0
LINE
  8
0
 10
-10.1565
 20
147.473
 11
-10.2939
 21
147.344
  0
LINE
  8
0
 10
-10.2939
 20
147.344
 11
-10.4463
 21
147.234
  0
LINE
  8
0
 10
-10.4463
 20
147.234
 11
-10.6113
 21
147.143
  0
LINE
  8
0
 10
-10.6113
 20
147.143
 11
-10.7865
 21
147.073
  0
LINE
  8
0
 10
-10.7865
 20
147.073
 11
-10.9689
 21
147.027
  0
LINE
  8
0
 10
-10.9689
 20
147.027
 11
-11.1558
 21
147.003
  0
LINE
  8
0
 10
-11.1558
 20
147.003
 11
-11.3442
 21
147.003
  0
LINE
  8
0
 10
14.6869
 20
102.089
 11
15.2951
 21
102.245
  0
LINE
  8
0
 10
15.2951
 20
102.245
 11
15.8789
 21
102.476
  0
LINE
  8
0
 10
15.8789
 20
102.476
 11
16.4291
 21
102.778
  0
LINE
  8
0
 10
16.4291
 20
102.778
 11
16.9371
 21
103.147
  0
LINE
  8
0
 10
16.9371
 20
103.147
 11
17.3948
 21
103.577
  0
LINE
  8
0
 10
17.3948
 20
103.577
 11
17.7951
 21
104.061
  0
LINE
  8
0
 10
17.7951
 20
104.061
 11
18.1315
 21
104.591
  0
LINE
  8
0
 10
18.1315
 20
104.591
 11
18.3989
 21
105.159
  0
LINE
  8
0
 10
18.3989
 20
105.159
 11
18.5929
 21
105.757
  0
LINE
  8
0
 10
18.5929
 20
105.757
 11
18.7106
 21
106.373
  0
LINE
  8
0
 10
18.7106
 20
106.373
 11
18.75
 21
107
  0
LINE
  8
0
 10
18.75
 20
107
 11
18.75
 21
127
  0
LINE
  8
0
 10
18.75
 20
127
 11
18.7106
 21
127.627
  0
LINE
  8
0
 10
18.7106
 20
127.627
 11
18.5929
 21
128.243
  0
LINE
  8
0
 10
18.5929
 20
128.243
 11
18.3989
 21
128.841
  0
LINE
  8
0
 10
18.3989
 20
128.841
 11
18.1315
 21
129.409
  0
LINE
  8
0
 10
18.1315
 20
129.409
 11
17.7951
 21
129.939
  0
LINE
  8
0
 10
17.7951
 20
129.939
 11
17.3948
 21
130.423
  0
LINE
  8
0
 10
17.3948
 20
130.423
 11
16.9371
 21
130.853
  0
LINE
  8
0
 10
16.9371
 20
130.853
 11
16.4291
 21
131.222
  0
LINE
  8
0
 10
16.4291
 20
131.222
 11
15.8789
 21
131.524
  0
LINE
  8
0
 10
15.8789
 20
131.524
 11
15.2951
 21
131.755
  0
LINE
  8
0
 10
15.2951
 20
131.755
 11
14.6869
 21
131.911
  0
LINE
  8
0
 10
14.6869
 20
131.911
 11
14.0639
 21
131.99
  0
LINE
  8
0
 10
14.0639
 20
131.99
 11
-14.0639
 21
131.99
  0
LINE
  8
0
 10
-14.0639
 20
131.99
 11
-14.6869
 21
131.911
  0
LINE
  8
0
 10
-14.6869
 20
131.911
 11
-15.2951
 21
131.755
  0
LINE
  8
0
 10
-15.2951
 20
131.755
 11
-15.8789
 21
131.524
  0
LINE
  8
0
 10
-15.8789
 20
131.524
 11
-16.4291
 21
131.222
  0
LINE
  8
0
 10
-16.4291
 20
131.222
 11
-16.9371
 21
130.853
  0
LINE
  8
0
 10
-16.9371
 20
130.853
 11
-17.3948
 21
130.423
  0
LINE
  8
0
 10
-17.3948
 20
130.423
 11
-17.7951
 21
129.939
  0
LINE
  8
0
 10
-17.7951
 20
129.939
 11
-18.1315
 21
129.409
  0
LINE
  8
0
 10
-18.1315
 20
129.409
 11
-18.3989
 21
128.841
  0
LINE
  8
0
 10
-18.3989
 20
128.841
 11
-18.5929
 21
128.243
  0
LINE
  8
0
 10
-18.5929
 20
128.243
 11
-18.7106
 21
127.627
  0
LINE
  8
0
 10
-18.7106
 20
127.627
 11
-18.75
 21
127
  0
LINE
  8
0
 10
-18.75
 20
127
 11
-18.75
 21
107
  0
LINE
  8
0
 10
-18.75
 20
107
 11
-18.7106
 21
106.373
  0
LINE
  8
0
 10
-18.7106
 20
106.373
 11
-18.5929
 21
105.757
  0
LINE
  8
0
 10
-18.5929
 20
105.757
 11
-18.3989
 21
105.159
  0
LINE
  8
0
 10
-18.3989
 20
105.159
 11
-18.1315
 21
104.591
  0
LINE
  8
0
 10
-18.1315
 20
104.591
 11
-17.7951
 21
104.061
  0
LINE
  8
0
 10
-17.7951
 20
104.061
 11
-17.3948
 21
103.577
  0
LINE
  8
0
 10
-17.3948
 20
103.577
 11
-16.9371
 21
103.147
  0
LINE
  8
0
 10
-16.9371
 20
103.147
 11
-16.4291
 21
102.778
  0
LINE
  8
0
 10
-16.4291
 20
102.778
 11
-15.8789
 21
102.476
  0
LINE
  8
0
 10
-15.8789
 20
102.476
 11
-15.2951
 21
102.245
  0
LINE
  8
0
 10
-15.2951
 20
102.245
 11
-14.6869
 21
102.089
  0
LINE
  8
0
 10
-14.6869
 20
102.089
 11
-14.0639
 21
102.01
  0
LINE
  8
0
 10
-14.0639
 20
102.01
 11
14.0639
 21
102.01
  0
LINE
  8
0
 10
14.0639
 20
102.01
 11
14.6869
 21
102.089
  0
LINE
  8
0
 10
11.0993
 20
122.105
 11
10.8003
 21
122.143
  0
LINE
  8
0
 10
10.8003
 20
122.143
 11
10.5083
 21
122.217
  0
LINE
  8
0
 10
10.5083
 20
122.217
 11
10.2281
 21
122.328
  0
LINE
  8
0
 10
10.2281
 20
122.328
 11
9.964
 21
122.474
  0
LINE
  8
0
 10
9.964
 20
122.474
 11
9.72017
 21
122.651
  0
LINE
  8
0
 10
9.72017
 20
122.651
 11
9.50047
 21
122.857
  0
LINE
  8
0
 10
9.50047
 20
122.857
 11
9.30835
 21
123.089
  0
LINE
  8
0
 10
9.30835
 20
123.089
 11
9.14685
 21
123.344
  0
LINE
  8
0
 10
9.14685
 20
123.344
 11
9.01852
 21
123.617
  0
LINE
  8
0
 10
9.01852
 20
123.617
 11
8.9254
 21
123.903
  0
LINE
  8
0
 10
8.9254
 20
123.903
 11
8.86891
 21
124.199
  0
LINE
  8
0
 10
8.86891
 20
124.199
 11
8.84999
 21
124.5
  0
LINE
  8
0
 10
8.84999
 20
124.5
 11
8.86891
 21
124.801
  0
LINE
  8
0
 10
8.86891
 20
124.801
 11
8.9254
 21
125.097
  0
LINE
  8
0
 10
8.9254
 20
125.097
 11
9.01852
 21
125.383
  0
LINE
  8
0
 10
9.01852
 20
125.383
 11
9.14685
 21
125.656
  0
LINE
  8
0
 10
9.14685
 20
125.656
 11
9.30835
 21
125.911
  0
LINE
  8
0
 10
9.30835
 20
125.911
 11
9.50047
 21
126.143
  0
LINE
  8
0
 10
9.50047
 20
126.143
 11
9.72017
 21
126.349
  0
LINE
  8
0
 10
9.72017
 20
126.349
 11
9.964
 21
126.526
  0
LINE
  8
0
 10
9.964
 20
126.526
 11
10.2281
 21
126.672
  0
LINE
  8
0
 10
10.2281
 20
126.672
 11
10.5083
 21
126.783
  0
LINE
  8
0
 10
10.5083
 20
126.783
 11
10.8003
 21
126.857
  0
LINE
  8
0
 10
10.8003
 20
126.857
 11
11.0993
 21
126.895
  0
LINE
  8
0
 10
11.0993
 20
126.895
 11
11.4007
 21
126.895
  0
LINE
  8
0
 10
11.4007
 20
126.895
 11
11.6997
 21
126.857
  0
LINE
  8
0
 10
11.6997
 20
126.857
 11
11.9916
 21
126.783
  0
LINE
  8
0
 10
11.9916
 20
126.783
 11
12.2719
 21
126.672
  0
LINE
  8
0
 10
12.2719
 20
126.672
 11
12.536
 21
126.526
  0
LINE
  8
0
 10
12.536
 20
126.526
 11
12.7798
 21
126.349
  0
LINE
  8
0
 10
12.7798
 20
126.349
 11
12.9995
 21
126.143
  0
LINE
  8
0
 10
12.9995
 20
126.143
 11
13.1916
 21
125.911
  0
LINE
  8
0
 10
13.1916
 20
125.911
 11
13.3531
 21
125.656
  0
LINE
  8
0
 10
13.3531
 20
125.656
 11
13.4815
 21
125.383
  0
LINE
  8
0
 10
13.4815
 20
125.383
 11
13.5746
 21
125.097
  0
LINE
  8
0
 10
13.5746
 20
125.097
 11
13.6311
 21
124.801
  0
LINE
  8
0
 10
13.6311
 20
124.801
 11
13.65
 21
124.5
  0
LINE
  8
0
 10
13.65
 20
124.5
 11
13.6311
 21
124.199
  0
LINE
  8
0
 10
13.6311
 20
124.199
 11
13.5746
 21
123.903
  0
LINE
  8
0
 10
13.5746
 20
123.903
 11
13.4815
 21
123.617
  0
LINE
  8
0
 10
13.4815
 20
123.617
 11
13.3531
 21
123.344
  0
LINE
  8
0
 10
13.3531
 20
123.344
 11
13.1916
 21
123.089
  0
LINE
  8
0
 10
13.1916
 20
123.089
 11
12.9995
 21
122.857
  0
LINE
  8
0
 10
12.9995
 20
122.857
 11
12.7798
 21
122.651
  0
LINE
  8
0
 10
12.7798
 20
122.651
 11
12.536
 21
122.474
  0
LINE
  8
0
 10
12.536
 20
122.474
 11
12.2719
 21
122.328
  0
LINE
  8
0
 10
12.2719
 20
122.328
 11
11.9916
 21
122.217
  0
LINE
  8
0
 10
11.9916
 20
122.217
 11
11.6997
 21
122.143
  0
LINE
  8
0
 10
11.6997
 20
122.143
 11
11.4007
 21
122.105
  0
LINE
  8
0
 10
11.4007
 20
122.105
 11
11.0993
 21
122.105
  0
LINE
  8
0
 10
-11.3442
 20
123.003
 11
-11.5311
 21
123.027
  0
LINE
  8
0
 10
-11.5311
 20
123.027
 11
-11.7135
 21
123.073
  0
LINE
  8
0
 10
-11.7135
 20
123.073
 11
-11.8887
 21
123.143
  0
LINE
  8
0
 10
-11.8887
 20
123.143
 11
-12.0537
 21
123.234
  0
LINE
  8
0
 10
-12.0537
 20
123.234
 11
-12.2061
 21
123.344
  0
LINE
  8
0
 10
-12.2061
 20
123.344
 11
-12.3434
 21
123.473
  0
LINE
  8
0
 10
-12.3434
 20
123.473
 11
-12.4635
 21
123.618
  0
LINE
  8
0
 10
-12.4635
 20
123.618
 11
-12.5645
 21
123.777
  0
LINE
  8
0
 10
-12.5645
 20
123.777
 11
-12.6447
 21
123.948
  0
LINE
  8
0
 10
-12.6447
 20
123.948
 11
-12.7029
 21
124.127
  0
LINE
  8
0
 10
-12.7029
 20
124.127
 11
-12.7382
 21
124.312
  0
LINE
  8
0
 10
-12.7382
 20
124.312
 11
-12.75
 21
124.5
  0
LINE
  8
0
 10
-12.75
 20
124.5
 11
-12.7382
 21
124.688
  0
LINE
  8
0
 10
-12.7382
 20
124.688
 11
-12.7029
 21
124.873
  0
LINE
  8
0
 10
-12.7029
 20
124.873
 11
-12.6447
 21
125.052
  0
LINE
  8
0
 10
-12.6447
 20
125.052
 11
-12.5645
 21
125.223
  0
LINE
  8
0
 10
-12.5645
 20
125.223
 11
-12.4635
 21
125.382
  0
LINE
  8
0
 10
-12.4635
 20
125.382
 11
-12.3434
 21
125.527
  0
LINE
  8
0
 10
-12.3434
 20
125.527
 11
-12.2061
 21
125.656
  0
LINE
  8
0
 10
-12.2061
 20
125.656
 11
-12.0537
 21
125.766
  0
LINE
  8
0
 10
-12.0537
 20
125.766
 11
-11.8887
 21
125.857
  0
LINE
  8
0
 10
-11.8887
 20
125.857
 11
-11.7135
 21
125.927
  0
LINE
  8
0
 10
-11.7135
 20
125.927
 11
-11.5311
 21
125.973
  0
LINE
  8
0
 10
-11.5311
 20
125.973
 11
-11.3442
 21
125.997
  0
LINE
  8
0
 10
-11.3442
 20
125.997
 11
-11.1558
 21
125.997
  0
LINE
  8
0
 10
-11.1558
 20
125.997
 11
-10.9689
 21
125.973
  0
LINE
  8
0
 10
-10.9689
 20
125.973
 11
-10.7865
 21
125.927
  0
LINE
  8
0
 10
-10.7865
 20
125.927
 11
-10.6113
 21
125.857
  0
LINE
  8
0
 10
-10.6113
 20
125.857
 11
-10.4463
 21
125.766
  0
LINE
  8
0
 10
-10.4463
 20
125.766
 11
-10.2939
 21
125.656
  0
LINE
  8
0
 10
-10.2939
 20
125.656
 11
-10.1565
 21
125.527
  0
LINE
  8
0
 10
-10.1565
 20
125.527
 11
-10.0365
 21
125.382
  0
LINE
  8
0
 10
-10.0365
 20
125.382
 11
-9.93553
 21
125.223
  0
LINE
  8
0
 10
-9.93553
 20
125.223
 11
-9.85533
 21
125.052
  0
LINE
  8
0
 10
-9.85533
 20
125.052
 11
-9.79712
 21
124.873
  0
LINE
  8
0
 10
-9.79712
 20
124.873
 11
-9.76183
 21
124.688
  0
LINE
  8
0
 10
-9.76183
 20
124.688
 11
-9.75
 21
124.5
  0
LINE
  8
0
 10
-9.75
 20
124.5
 11
-9.76183
 21
124.312
  0
LINE
  8
0
 10
-9.76183
 20
124.312
 11
-9.79712
 21
124.127
  0
LINE
  8
0
 10
-9.79712
 20
124.127
 11
-9.85533
 21
123.948
  0
LINE
  8
0
 10
-9.85533
 20
123.948
 11
-9.93553
 21
123.777
  0
LINE
  8
0
 10
-9.93553
 20
123.777
 11
-10.0365
 21
123.618
  0
LINE
  8
0
 10
-10.0365
 20
123.618
 11
-10.1565
 21
123.473
  0
LINE
  8
0
 10
-10.1565
 20
123.473
 11
-10.2939
 21
123.344
  0
LINE
  8
0
 10
-10.2939
 20
123.344
 11
-10.4463
 21
123.234
  0
LINE
  8
0
 10
-10.4463
 20
123.234
 11
-10.6113
 21
123.143
  0
LINE
  8
0
 10
-10.6113
 20
123.143
 11
-10.7865
 21
123.073
  0
LINE
  8
0
 10
-10.7865
 20
123.073
 11
-10.9689
 21
123.027
  0
LINE
  8
0
 10
-10.9689
 20
123.027
 11
-11.1558
 21
123.003
  0
LINE
  8
0
 10
-11.1558
 20
123.003
 11
-11.3442
 21
123.003
  0
LINE
  8
0
 10
-11.4007
 20
107.105
 11
-11.6997
 21
107.143
  0
LINE
  8
0
 10
-11.6997
 20
107.143
 11
-11.9916
 21
107.217
  0
LINE
  8
0
 10
-11.9916
 20
107.217
 11
-12.2719
 21
107.328
  0
LINE
  8
0
 10
-12.2719
 20
107.328
 11
-12.536
 21
107.474
  0
LINE
  8
0
 10
-12.536
 20
107.474
 11
-12.7798
 21
107.651
  0
LINE
  8
0
 10
-12.7798
 20
107.651
 11
-12.9995
 21
107.857
  0
LINE
  8
0
 10
-12.9995
 20
107.857
 11
-13.1916
 21
108.089
  0
LINE
  8
0
 10
-13.1916
 20
108.089
 11
-13.3531
 21
108.344
  0
LINE
  8
0
 10
-13.3531
 20
108.344
 11
-13.4815
 21
108.617
  0
LINE
  8
0
 10
-13.4815
 20
108.617
 11
-13.5746
 21
108.903
  0
LINE
  8
0
 10
-13.5746
 20
108.903
 11
-13.6311
 21
109.199
  0
LINE
  8
0
 10
-13.6311
 20
109.199
 11
-13.65
 21
109.5
  0
LINE
  8
0
 10
-13.65
 20
109.5
 11
-13.6311
 21
109.801
  0
LINE
  8
0
 10
-13.6311
 20
109.801
 11
-13.5746
 21
110.097
  0
LINE
  8
0
 10
-13.5746
 20
110.097
 11
-13.4815
 21
110.383
  0
LINE
  8
0
 10
-13.4815
 20
110.383
 11
-13.3531
 21
110.656
  0
LINE
  8
0
 10
-13.3531
 20
110.656
 11
-13.1916
 21
110.911
  0
LINE
  8
0
 10
-13.1916
 20
110.911
 11
-12.9995
 21
111.143
  0
LINE
  8
0
 10
-12.9995
 20
111.143
 11
-12.7798
 21
111.349
  0
LINE
  8
0
 10
-12.7798
 20
111.349
 11
-12.536
 21
111.526
  0
LINE
  8
0
 10
-12.536
 20
111.526
 11
-12.2719
 21
111.672
  0
LINE
  8
0
 10
-12.2719
 20
111.672
 11
-11.9916
 21
111.783
  0
LINE
  8
0
 10
-11.9916
 20
111.783
 11
-11.6997
 21
111.857
  0
LINE
  8
0
 10
-11.6997
 20
111.857
 11
-11.4007
 21
111.895
  0
LINE
  8
0
 10
-11.4007
 20
111.895
 11
-11.0993
 21
111.895
  0
LINE
  8
0
 10
-11.0993
 20
111.895
 11
-10.8003
 21
111.857
  0
LINE
  8
0
 10
-10.8003
 20
111.857
 11
-10.5083
 21
111.783
  0
LINE
  8
0
 10
-10.5083
 20
111.783
 11
-10.2281
 21
111.672
  0
LINE
  8
0
 10
-10.2281
 20
111.672
 11
-9.964
 21
111.526
  0
LINE
  8
0
 10
-9.964
 20
111.526
 11
-9.72017
 21
111.349
  0
LINE
  8
0
 10
-9.72017
 20
111.349
 11
-9.50047
 21
111.143
  0
LINE
  8
0
 10
-9.50047
 20
111.143
 11
-9.30835
 21
110.911
  0
LINE
  8
0
 10
-9.30835
 20
110.911
 11
-9.14685
 21
110.656
  0
LINE
  8
0
 10
-9.14685
 20
110.656
 11
-9.01852
 21
110.383
  0
LINE
  8
0
 10
-9.01852
 20
110.383
 11
-8.9254
 21
110.097
  0
LINE
  8
0
 10
-8.9254
 20
110.097
 11
-8.86891
 21
109.801
  0
LINE
  8
0
 10
-8.86891
 20
109.801
 11
-8.84999
 21
109.5
  0
LINE
  8
0
 10
-8.84999
 20
109.5
 11
-8.86891
 21
109.199
  0
LINE
  8
0
 10
-8.86891
 20
109.199
 11
-8.9254
 21
108.903
  0
LINE
  8
0
 10
-8.9254
 20
108.903
 11
-9.01852
 21
108.617
  0
LINE
  8
0
 10
-9.01852
 20
108.617
 11
-9.14685
 21
108.344
  0
LINE
  8
0
 10
-9.14685
 20
108.344
 11
-9.30835
 21
108.089
  0
LINE
  8
0
 10
-9.30835
 20
108.089
 11
-9.50047
 21
107.857
  0
LINE
  8
0
 10
-9.50047
 20
107.857
 11
-9.72017
 21
107.651
  0
LINE
  8
0
 10
-9.72017
 20
107.651
 11
-9.964
 21
107.474
  0
LINE
  8
0
 10
-9.964
 20
107.474
 11
-10.2281
 21
107.328
  0
LINE
  8
0
 10
-10.2281
 20
107.328
 11
-10.5083
 21
107.217
  0
LINE
  8
0
 10
-10.5083
 20
107.217
 11
-10.8003
 21
107.143
  0
LINE
  8
0
 10
-10.8003
 20
107.143
 11
-11.0993
 21
107.105
  0
LINE
  8
0
 10
-11.0993
 20
107.105
 11
-11.4007
 21
107.105
  0
LINE
  8
0
 10
11.1558
 20
108.003
 11
10.9689
 21
108.027
  0
LINE
  8
0
 10
10.9689
 20
108.027
 11
10.7865
 21
108.073
  0
LINE
  8
0
 10
10.7865
 20
108.073
 11
10.6113
 21
108.143
  0
LINE
  8
0
 10
10.6113
 20
108.143
 11
10.4463
 21
108.234
  0
LINE
  8
0
 10
10.4463
 20
108.234
 11
10.2939
 21
108.344
  0
LINE
  8
0
 10
10.2939
 20
108.344
 11
10.1565
 21
108.473
  0
LINE
  8
0
 10
10.1565
 20
108.473
 11
10.0365
 21
108.618
  0
LINE
  8
0
 10
10.0365
 20
108.618
 11
9.93553
 21
108.777
  0
LINE
  8
0
 10
9.93553
 20
108.777
 11
9.85533
 21
108.948
  0
LINE
  8
0
 10
9.85533
 20
108.948
 11
9.79712
 21
109.127
  0
LINE
  8
0
 10
9.79712
 20
109.127
 11
9.76183
 21
109.312
  0
LINE
  8
0
 10
9.76183
 20
109.312
 11
9.75
 21
109.5
  0
LINE
  8
0
 10
9.75
 20
109.5
 11
9.76183
 21
109.688
  0
LINE
  8
0
 10
9.76183
 20
109.688
 11
9.79712
 21
109.873
  0
LINE
  8
0
 10
9.79712
 20
109.873
 11
9.85533
 21
110.052
  0
LINE
  8
0
 10
9.85533
 20
110.052
 11
9.93553
 21
110.223
  0
LINE
  8
0
 10
9.93553
 20
110.223
 11
10.0365
 21
110.382
  0
LINE
  8
0
 10
10.0365
 20
110.382
 11
10.1565
 21
110.527
  0
LINE
  8
0
 10
10.1565
 20
110.527
 11
10.2939
 21
110.656
  0
LINE
  8
0
 10
10.2939
 20
110.656
 11
10.4463
 21
110.766
  0
LINE
  8
0
 10
10.4463
 20
110.766
 11
10.6113
 21
110.857
  0
LINE
  8
0
 10
10.6113
 20
110.857
 11
10.7865
 21
110.927
  0
LINE
  8
0
 10
10.7865
 20
110.927
 11
10.9689
 21
110.973
  0
LINE
  8
0
 10
10.9689
 20
110.973
 11
11.1558
 21
110.997
  0
LINE
  8
0
 10
11.1558
 20
110.997
 11
11.3442
 21
110.997
  0
LINE
  8
0
 10
11.3442
 20
110.997
 11
11.5311
 21
110.973
  0
LINE
  8
0
 10
11.5311
 20
110.973
 11
11.7135
 21
110.927
  0
LINE
  8
0
 10
11.7135
 20
110.927
 11
11.8887
 21
110.857
  0
LINE
  8
0
 10
11.8887
 20
110.857
 11
12.0537
 21
110.766
  0
LINE
  8
0
 10
12.0537
 20
110.766
 11
12.2061
 21
110.656
  0
LINE
  8
0
 10
12.2061
 20
110.656
 11
12.3434
 21
110.527
  0
LINE
  8
0
 10
12.3434
 20
110.527
 11
12.4635
 21
110.382
  0
LINE
  8
0
 10
12.4635
 20
110.382
 11
12.5645
 21
110.223
  0
LINE
  8
0
 10
12.5645
 20
110.223
 11
12.6447
 21
110.052
  0
LINE
  8
0
 10
12.6447
 20
110.052
 11
12.7029
 21
109.873
  0
LINE
  8
0
 10
12.7029
 20
109.873
 11
12.7382
 21
109.688
  0
LINE
  8
0
 10
12.7382
 20
109.688
 11
12.75
 21
109.5
  0
LINE
  8
0
 10
12.75
 20
109.5
 11
12.7382
 21
109.312
  0
LINE
  8
0
 10
12.7382
 20
109.312
 11
12.7029
 21
109.127
  0
LINE
  8
0
 10
12.7029
 20
109.127
 11
12.6447
 21
108.948
  0
LINE
  8
0
 10
12.6447
 20
108.948
 11
12.5645
 21
108.777
  0
LINE
  8
0
 10
12.5645
 20
108.777
 11
12.4635
 21
108.618
  0
LINE
  8
0
 10
12.4635
 20
108.618
 11
12.3434
 21
108.473
  0
LINE
  8
0
 10
12.3434
 20
108.473
 11
12.2061
 21
108.344
  0
LINE
  8
0
 10
12.2061
 20
108.344
 11
12.0537
 21
108.234
  0
LINE
  8
0
 10
12.0537
 20
108.234
 11
11.8887
 21
108.143
  0
LINE
  8
0
 10
11.8887
 20
108.143
 11
11.7135
 21
108.073
  0
LINE
  8
0
 10
11.7135
 20
108.073
 11
11.5311
 21
108.027
  0
LINE
  8
0
 10
11.5311
 20
108.027
 11
11.3442
 21
108.003
  0
LINE
  8
0
 10
11.3442
 20
108.003
 11
11.1558
 21
108.003
  0
ENDSEC
  0
SECTION
  2
OBJECTS
  0
DICTIONARY
  0
ENDSEC
  0
EOF
