<?xml version="1.0" standalone="no"?>
<!DOCTYPE svg PUBLIC "-//W3C//DTD SVG 1.1//EN" "http://www.w3.org/Graphics/SVG/1.1/DTD/svg11.dtd">
<svg width="38mm" height="147mm" viewBox="-19 -249 38 147" xmlns="http://www.w3.org/2000/svg" version="1.1">
<title>OpenSCAD Model</title>
<path d="
M 14.6869,-219.089 L 15.2951,-219.245 L 15.8789,-219.476 L 16.4291,-219.778 L 16.9371,-220.147 L 17.3948,-220.577
 L 17.7951,-221.061 L 18.1315,-221.591 L 18.3989,-222.159 L 18.5929,-222.757 L 18.7106,-223.373 L 18.75,-224
 L 18.75,-244 L 18.7106,-244.627 L 18.5929,-245.243 L 18.3989,-245.841 L 18.1315,-246.409 L 17.7951,-246.939
 L 17.3948,-247.423 L 16.9371,-247.853 L 16.4291,-248.222 L 15.8789,-248.524 L 15.2951,-248.755 L 14.6869,-248.911
 L 14.0639,-248.99 L -14.0639,-248.99 L -14.6869,-248.911 L -15.2951,-248.755 L -15.8789,-248.524 L -16.4291,-248.222
 L -16.9371,-247.853 L -17.3948,-247.423 L -17.7951,-246.939 L -18.1315,-246.409 L -18.3989,-245.841 L -18.5929,-245.243
 L -18.7106,-244.627 L -18.75,-244 L -18.75,-224 L -18.7106,-223.373 L -18.5929,-222.757 L -18.3989,-222.159
 L -18.1315,-221.591 L -17.7951,-221.061 L -17.3948,-220.577 L -16.9371,-220.147 L -16.4291,-219.778 L -15.8789,-219.476
 L -15.2951,-219.245 L -14.6869,-219.089 L -14.0639,-219.01 L 14.0639,-219.01 z
M -8.56104,-219.509 L -8.07086,-219.778 L -7.56287,-220.147 L -7.10515,-220.577 L -6.70491,-221.061 L -6.36845,-221.591
 L -6.1011,-222.159 L -5.90707,-222.757 L -5.78941,-223.373 L -5.75,-224 L -5.75,-227 L -5.78941,-227.627
 L -5.90707,-228.243 L -6.1011,-228.841 L -6.36845,-229.409 L -6.70491,-229.939 L -7.10515,-230.423 L -7.56287,-230.853
 L -8.07086,-231.222 L -8.62109,-231.524 L -9.20491,-231.755 L -9.81308,-231.911 L -10.436,-231.99 L -14.0639,-231.99
 L -14.6869,-231.911 L -15.2951,-231.755 L -15.8789,-231.524 L -16.4291,-231.222 L -16.9371,-230.853 L -17.3948,-230.423
 L -17.7951,-229.939 L -18.1315,-229.409 L -18.25,-229.157 L -18.25,-244 L -18.2145,-244.564 L -18.1086,-245.119
 L -17.934,-245.657 L -17.6934,-246.168 L -17.3906,-246.645 L -17.0303,-247.08 L -16.6184,-247.467 L -16.1612,-247.799
 L -15.666,-248.072 L -15.1406,-248.28 L -14.5932,-248.42 L -14.0325,-248.491 L 14.0325,-248.491 L 14.5932,-248.42
 L 15.1406,-248.28 L 15.666,-248.072 L 16.1612,-247.799 L 16.6184,-247.467 L 17.0303,-247.08 L 17.3906,-246.645
 L 17.6934,-246.168 L 17.934,-245.657 L 18.1086,-245.119 L 18.2145,-244.564 L 18.25,-244 L 18.25,-224
 L 18.2145,-223.436 L 18.1086,-222.881 L 17.934,-222.343 L 17.6934,-221.832 L 17.3906,-221.355 L 17.0303,-220.92
 L 16.6184,-220.533 L 16.1612,-220.201 L 15.666,-219.928 L 15.1406,-219.72 L 14.5932,-219.58 L 14.0325,-219.509
 z
M 11.7184,-239.044 L 12.0225,-239.122 L 12.3144,-239.238 L 12.5896,-239.389 L 12.8436,-239.574 L 13.0724,-239.789
 L 13.2725,-240.031 L 13.4408,-240.296 L 13.5744,-240.58 L 13.6714,-240.878 L 13.7303,-241.187 L 13.75,-241.5
 L 13.7303,-241.813 L 13.6714,-242.122 L 13.5744,-242.42 L 13.4408,-242.704 L 13.2725,-242.969 L 13.0724,-243.211
 L 12.8436,-243.426 L 12.5896,-243.611 L 12.3144,-243.762 L 12.0225,-243.878 L 11.7184,-243.956 L 11.407,-243.995
 L 11.093,-243.995 L 10.7815,-243.956 L 10.4774,-243.878 L 10.1855,-243.762 L 9.91043,-243.611 L 9.65643,-243.426
 L 9.42757,-243.211 L 9.22745,-242.969 L 9.05922,-242.704 L 8.92555,-242.42 L 8.82854,-242.122 L 8.7697,-241.813
 L 8.75,-241.5 L 8.7697,-241.187 L 8.82854,-240.878 L 8.92555,-240.58 L 9.05922,-240.296 L 9.22745,-240.031
 L 9.42757,-239.789 L 9.65643,-239.574 L 9.91043,-239.389 L 10.1855,-239.238 L 10.4774,-239.122 L 10.7815,-239.044
 L 11.093,-239.005 L 11.407,-239.005 z
M 11.1558,-240.003 L 10.9689,-240.027 L 10.7865,-240.073 L 10.6113,-240.143 L 10.4463,-240.234 L 10.2939,-240.344
 L 10.1565,-240.473 L 10.0365,-240.618 L 9.93553,-240.777 L 9.85533,-240.948 L 9.79712,-241.127 L 9.76183,-241.312
 L 9.75,-241.5 L 9.76183,-241.688 L 9.79712,-241.873 L 9.85533,-242.052 L 9.93553,-242.223 L 10.0365,-242.382
 L 10.1565,-242.527 L 10.2939,-242.656 L 10.4463,-242.766 L 10.6113,-242.857 L 10.7865,-242.927 L 10.9689,-242.973
 L 11.1558,-242.997 L 11.3442,-242.997 L 11.5311,-242.973 L 11.7135,-242.927 L 11.8887,-242.857 L 12.0537,-242.766
 L 12.2061,-242.656 L 12.3434,-242.527 L 12.4635,-242.382 L 12.5645,-242.223 L 12.6447,-242.052 L 12.7029,-241.873
 L 12.7382,-241.688 L 12.75,-241.5 L 12.7382,-241.312 L 12.7029,-241.127 L 12.6447,-240.948 L 12.5645,-240.777
 L 12.4635,-240.618 L 12.3434,-240.473 L 12.2061,-240.344 L 12.0537,-240.234 L 11.8887,-240.143 L 11.7135,-240.073
 L 11.5311,-240.027 L 11.3442,-240.003 z
M -11.3442,-225.003 L -11.5311,-225.027 L -11.7135,-225.073 L -11.8887,-225.143 L -12.0537,-225.234 L -12.2061,-225.344
 L -12.3434,-225.473 L -12.4635,-225.618 L -12.5645,-225.777 L -12.6447,-225.948 L -12.7029,-226.127 L -12.7382,-226.312
 L -12.75,-226.5 L -12.7382,-226.688 L -12.7029,-226.873 L -12.6447,-227.052 L -12.5645,-227.223 L -12.4635,-227.382
 L -12.3434,-227.527 L -12.2061,-227.656 L -12.0537,-227.766 L -11.8887,-227.857 L -11.7135,-227.927 L -11.5311,-227.973
 L -11.3442,-227.997 L -11.1558,-227.997 L -10.9689,-227.973 L -10.7865,-227.927 L -10.6113,-227.857 L -10.4463,-227.766
 L -10.2939,-227.656 L -10.1565,-227.527 L -10.0365,-227.382 L -9.93553,-227.223 L -9.85533,-227.052 L -9.79712,-226.873
 L -9.76183,-226.688 L -9.75,-226.5 L -9.76183,-226.312 L -9.79712,-226.127 L -9.85533,-225.948 L -9.93553,-225.777
 L -10.0365,-225.618 L -10.1565,-225.473 L -10.2939,-225.344 L -10.4463,-225.234 L -10.6113,-225.143 L -10.7865,-225.073
 L -10.9689,-225.027 L -11.1558,-225.003 z
M 14.6869,-180.089 L 15.2951,-180.245 L 15.8789,-180.476 L 16.4291,-180.778 L 16.9371,-181.147 L 17.3948,-181.577
 L 17.7951,-182.061 L 18.1315,-182.591 L 18.3989,-183.159 L 18.5929,-183.757 L 18.7106,-184.373 L 18.75,-185
 L 18.75,-205 L 18.7106,-205.627 L 18.5929,-206.243 L 18.3989,-206.841 L 18.1315,-207.409 L 17.7951,-207.939
 L 17.3948,-208.423 L 16.9371,-208.853 L 16.4291,-209.222 L 15.8789,-209.524 L 15.2951,-209.755 L 14.6869,-209.911
 L 14.0639,-209.99 L -14.0639,-209.99 L -14.6869,-209.911 L -15.2951,-209.755 L -15.8789,-209.524 L -16.4291,-209.222
 L -16.9371,-208.853 L -17.3948,-208.423 L -17.7951,-207.939 L -18.1315,-207.409 L -18.3989,-206.841 L -18.5929,-206.243
 L -18.7106,-205.627 L -18.75,-205 L -18.75,-185 L -18.7106,-184.373 L -18.5929,-183.757 L -18.3989,-183.159
 L -18.1315,-182.591 L -17.7951,-182.061 L -17.3948,-181.577 L -16.9371,-181.147 L -16.4291,-180.778 L -15.8789,-180.476
 L -15.2951,-180.245 L -14.6869,-180.089 L -14.0639,-180.01 L 14.0639,-180.01 z
M -8.56104,-180.509 L -8.07086,-180.778 L -7.56287,-181.147 L -7.10515,-181.577 L -6.70491,-182.061 L -6.36845,-182.591
 L -6.1011,-183.159 L -5.90707,-183.757 L -5.78941,-184.373 L -5.75,-185 L -5.75,-188 L -5.78941,-188.627
 L -5.90707,-189.243 L -6.1011,-189.841 L -6.36845,-190.409 L -6.70491,-190.939 L -7.10515,-191.423 L -7.56287,-191.853
 L -8.07086,-192.222 L -8.62109,-192.524 L -9.20491,-192.755 L -9.81308,-192.911 L -10.436,-192.99 L -14.0639,-192.99
 L -14.6869,-192.911 L -15.2951,-192.755 L -15.8789,-192.524 L -16.4291,-192.222 L -16.9371,-191.853 L -17.3948,-191.423
 L -17.7951,-190.939 L -18.1315,-190.409 L -18.25,-190.157 L -18.25,-205 L -18.2145,-205.564 L -18.1086,-206.119
 L -17.934,-206.657 L -17.6934,-207.168 L -17.3906,-207.645 L -17.0303,-208.08 L -16.6184,-208.467 L -16.1612,-208.799
 L -15.666,-209.072 L -15.1406,-209.28 L -14.5932,-209.42 L -14.0325,-209.491 L 14.0325,-209.491 L 14.5932,-209.42
 L 15.1406,-209.28 L 15.666,-209.072 L 16.1612,-208.799 L 16.6184,-208.467 L 17.0303,-208.08 L 17.3906,-207.645
 L 17.6934,-207.168 L 17.934,-206.657 L 18.1086,-206.119 L 18.2145,-205.564 L 18.25,-205 L 18.25,-185
 L 18.2145,-184.436 L 18.1086,-183.881 L 17.934,-183.343 L 17.6934,-182.832 L 17.3906,-182.355 L 17.0303,-181.92
 L 16.6184,-181.533 L 16.1612,-181.201 L 15.666,-180.928 L 15.1406,-180.72 L 14.5932,-180.58 L 14.0325,-180.509
 z
M 11.7184,-200.044 L 12.0225,-200.122 L 12.3144,-200.238 L 12.5896,-200.389 L 12.8436,-200.574 L 13.0724,-200.789
 L 13.2725,-201.031 L 13.4408,-201.296 L 13.5744,-201.58 L 13.6714,-201.878 L 13.7303,-202.187 L 13.75,-202.5
 L 13.7303,-202.813 L 13.6714,-203.122 L 13.5744,-203.42 L 13.4408,-203.704 L 13.2725,-203.969 L 13.0724,-204.211
 L 12.8436,-204.426 L 12.5896,-204.611 L 12.3144,-204.762 L 12.0225,-204.878 L 11.7184,-204.956 L 11.407,-204.995
 L 11.093,-204.995 L 10.7815,-204.956 L 10.4774,-204.878 L 10.1855,-204.762 L 9.91043,-204.611 L 9.65643,-204.426
 L 9.42757,-204.211 L 9.22745,-203.969 L 9.05922,-203.704 L 8.92555,-203.42 L 8.82854,-203.122 L 8.7697,-202.813
 L 8.75,-202.5 L 8.7697,-202.187 L 8.82854,-201.878 L 8.92555,-201.58 L 9.05922,-201.296 L 9.22745,-201.031
 L 9.42757,-200.789 L 9.65643,-200.574 L 9.91043,-200.389 L 10.1855,-200.238 L 10.4774,-200.122 L 10.7815,-200.044
 L 11.093,-200.005 L 11.407,-200.005 z
M 11.1558,-201.003 L 10.9689,-201.027 L 10.7865,-201.073 L 10.6113,-201.143 L 10.4463,-201.234 L 10.2939,-201.344
 L 10.1565,-201.473 L 10.0365,-201.618 L 9.93553,-201.777 L 9.85533,-201.948 L 9.79712,-202.127 L 9.76183,-202.312
 L 9.75,-202.5 L 9.76183,-202.688 L 9.79712,-202.873 L 9.85533,-203.052 L 9.93553,-203.223 L 10.0365,-203.382
 L 10.1565,-203.527 L 10.2939,-203.656 L 10.4463,-203.766 L 10.6113,-203.857 L 10.7865,-203.927 L 10.9689,-203.973
 L 11.1558,-203.997 L 11.3442,-203.997 L 11.5311,-203.973 L 11.7135,-203.927 L 11.8887,-203.857 L 12.0537,-203.766
 L 12.2061,-203.656 L 12.3434,-203.527 L 12.4635,-203.382 L 12.5645,-203.223 L 12.6447,-203.052 L 12.7029,-202.873
 L 12.7382,-202.688 L 12.75,-202.5 L 12.7382,-202.312 L 12.7029,-202.127 L 12.6447,-201.948 L 12.5645,-201.777
 L 12.4635,-201.618 L 12.3434,-201.473 L 12.2061,-201.344 L 12.0537,-201.234 L 11.8887,-201.143 L 11.7135,-201.073
 L 11.5311,-201.027 L 11.3442,-201.003 z
M -11.3442,-186.003 L -11.5311,-186.027 L -11.7135,-186.073 L -11.8887,-186.143 L -12.0537,-186.234 L -12.2061,-186.344
 L -12.3434,-186.473 L -12.4635,-186.618 L -12.5645,-186.777 L -12.6447,-186.948 L -12.7029,-187.127 L -12.7382,-187.312
 L -12.75,-187.5 L -12.7382,-187.688 L -12.7029,-187.873 L -12.6447,-188.052 L -12.5645,-188.223 L -12.4635,-188.382
 L -12.3434,-188.527 L -12.2061,-188.656 L -12.0537,-188.766 L -11.8887,-188.857 L -11.7135,-188.927 L -11.5311,-188.973
 L -11.3442,-188.997 L -11.1558,-188.997 L -10.9689,-188.973 L -10.7865,-188.927 L -10.6113,-188.857 L -10.4463,-188.766
 L -10.2939,-188.656 L -10.1565,-188.527 L -10.0365,-188.382 L -9.93553,-188.223 L -9.85533,-188.052 L -9.79712,-187.873
 L -9.76183,-187.688 L -9.75,-187.5 L -9.76183,-187.312 L -9.79712,-187.127 L -9.85533,-186.948 L -9.93553,-186.777
 L -10.0365,-186.618 L -10.1565,-186.473 L -10.2939,-186.344 L -10.4463,-186.234 L -10.6113,-186.143 L -10.7865,-186.073
 L -10.9689,-186.027 L -11.1558,-186.003 z
M 14.6869,-141.089 L 15.2951,-141.245 L 15.8789,-141.476 L 16.4291,-141.778 L 16.9371,-142.147 L 17.3948,-142.577
 L 17.7951,-143.061 L 18.1315,-143.591 L 18.3989,-144.159 L 18.5929,-144.757 L 18.7106,-145.373 L 18.75,-146
 L 18.75,-166 L 18.7106,-166.627 L 18.5929,-167.243 L 18.3989,-167.841 L 18.1315,-168.409 L 17.7951,-168.939
 L 17.3948,-169.423 L 16.9371,-169.853 L 16.4291,-170.222 L 15.8789,-170.524 L 15.2951,-170.755 L 14.6869,-170.911
 L 14.0639,-170.99 L -14.0639,-170.99 L -14.6869,-170.911 L -15.2951,-170.755 L -15.8789,-170.524 L -16.4291,-170.222
 L -16.9371,-169.853 L -17.3948,-169.423 L -17.7951,-168.939 L -18.1315,-168.409 L -18.3989,-167.841 L -18.5929,-167.243
 L -18.7106,-166.627 L -18.75,-166 L -18.75,-146 L -18.7106,-145.373 L -18.5929,-144.757 L -18.3989,-144.159
 L -18.1315,-143.591 L -17.7951,-143.061 L -17.3948,-142.577 L -16.9371,-142.147 L -16.4291,-141.778 L -15.8789,-141.476
 L -15.2951,-141.245 L -14.6869,-141.089 L -14.0639,-141.01 L 14.0639,-141.01 z
M -7.78568,-141.986 L -7.56287,-142.147 L -7.10515,-142.577 L -6.70491,-143.061 L -6.36845,-143.591 L -6.1011,-144.159
 L -5.90707,-144.757 L -5.78941,-145.373 L -5.75,-146 L -5.75,-149 L -5.78941,-149.627 L -5.90707,-150.243
 L -6.1011,-150.841 L -6.36845,-151.409 L -6.70491,-151.939 L -7.10515,-152.423 L -7.56287,-152.853 L -8.07086,-153.222
 L -8.62109,-153.524 L -9.20491,-153.755 L -9.81308,-153.911 L -10.436,-153.99 L -14.0639,-153.99 L -14.6869,-153.911
 L -15.2951,-153.755 L -15.8789,-153.524 L -16.4291,-153.222 L -16.9371,-152.853 L -17.3948,-152.423 L -17.7724,-151.966
 L -17.7724,-166 L -17.7407,-166.504 L -17.646,-167 L -17.4899,-167.481 L -17.2748,-167.938 L -17.0042,-168.364
 L -16.6822,-168.754 L -16.3139,-169.099 L -15.9053,-169.396 L -15.4626,-169.64 L -14.993,-169.826 L -14.5037,-169.951
 L -14.0026,-170.014 L 7.78568,-170.014 L 7.56287,-169.853 L 7.10515,-169.423 L 6.70491,-168.939 L 6.36845,-168.409
 L 6.1011,-167.841 L 5.90707,-167.243 L 5.78941,-166.627 L 5.75,-166 L 5.75,-163 L 5.78941,-162.373
 L 5.90707,-161.757 L 6.1011,-161.159 L 6.36845,-160.591 L 6.70491,-160.061 L 7.10515,-159.577 L 7.56287,-159.147
 L 8.07086,-158.778 L 8.62109,-158.476 L 9.20491,-158.245 L 9.81308,-158.089 L 10.436,-158.01 L 14.0639,-158.01
 L 14.6869,-158.089 L 15.2951,-158.245 L 15.8789,-158.476 L 16.4291,-158.778 L 16.9371,-159.147 L 17.3948,-159.577
 L 17.7724,-160.034 L 17.7724,-146 L 17.7407,-145.496 L 17.646,-145 L 17.4899,-144.519 L 17.2748,-144.062
 L 17.0042,-143.636 L 16.6822,-143.246 L 16.3139,-142.901 L 15.9053,-142.604 L 15.4626,-142.36 L 14.993,-142.174
 L 14.5037,-142.049 L 14.0026,-141.986 z
M 11.1558,-162.003 L 10.9689,-162.027 L 10.7865,-162.073 L 10.6113,-162.143 L 10.4463,-162.234 L 10.2939,-162.344
 L 10.1565,-162.473 L 10.0365,-162.618 L 9.93553,-162.777 L 9.85533,-162.948 L 9.79712,-163.127 L 9.76183,-163.312
 L 9.75,-163.5 L 9.76183,-163.688 L 9.79712,-163.873 L 9.85533,-164.052 L 9.93553,-164.223 L 10.0365,-164.382
 L 10.1565,-164.527 L 10.2939,-164.656 L 10.4463,-164.766 L 10.6113,-164.857 L 10.7865,-164.927 L 10.9689,-164.973
 L 11.1558,-164.997 L 11.3442,-164.997 L 11.5311,-164.973 L 11.7135,-164.927 L 11.8887,-164.857 L 12.0537,-164.766
 L 12.2061,-164.656 L 12.3434,-164.527 L 12.4635,-164.382 L 12.5645,-164.223 L 12.6447,-164.052 L 12.7029,-163.873
 L 12.7382,-163.688 L 12.75,-163.5 L 12.7382,-163.312 L 12.7029,-163.127 L 12.6447,-162.948 L 12.5645,-162.777
 L 12.4635,-162.618 L 12.3434,-162.473 L 12.2061,-162.344 L 12.0537,-162.234 L 11.8887,-162.143 L 11.7135,-162.073
 L 11.5311,-162.027 L 11.3442,-162.003 z
M -11.3442,-147.003 L -11.5311,-147.027 L -11.7135,-147.073 L -11.8887,-147.143 L -12.0537,-147.234 L -12.2061,-147.344
 L -12.3434,-147.473 L -12.4635,-147.618 L -12.5645,-147.777 L -12.6447,-147.948 L -12.7029,-148.127 L -12.7382,-148.312
 L -12.75,-148.5 L -12.7382,-148.688 L -12.7029,-148.873 L -12.6447,-149.052 L -12.5645,-149.223 L -12.4635,-149.382
 L -12.3434,-149.527 L -12.2061,-149.656 L -12.0537,-149.766 L -11.8887,-149.857 L -11.7135,-149.927 L -11.5311,-149.973
 L -11.3442,-149.997 L -11.1558,-149.997 L -10.9689,-149.973 L -10.7865,-149.927 L -10.6113,-149.857 L -10.4463,-149.766
 L -10.2939,-149.656 L -10.1565,-149.527 L -10.0365,-149.382 L -9.93553,-149.223 L -9.85533,-149.052 L -9.79712,-148.873
 L -9.76183,-148.688 L -9.75,-148.5 L -9.76183,-148.312 L -9.79712,-148.127 L -9.85533,-147.948 L -9.93553,-147.777
 L -10.0365,-147.618 L -10.1565,-147.473 L -10.2939,-147.344 L -10.4463,-147.234 L -10.6113,-147.143 L -10.7865,-147.073
 L -10.9689,-147.027 L -11.1558,-147.003 z
M 14.6869,-102.089 L 15.2951,-102.245 L 15.8789,-102.476 L 16.4291,-102.778 L 16.9371,-103.147 L 17.3948,-103.577
 L 17.7951,-104.061 L 18.1315,-104.591 L 18.3989,-105.159 L 18.5929,-105.757 L 18.7106,-106.373 L 18.75,-107
 L 18.75,-127 L 18.7106,-127.627 L 18.5929,-128.243 L 18.3989,-128.841 L 18.1315,-129.409 L 17.7951,-129.939
 L 17.3948,-130.423 L 16.9371,-130.853 L 16.4291,-131.222 L 15.8789,-131.524 L 15.2951,-131.755 L 14.6869,-131.911
 L 14.0639,-131.99 L -14.0639,-131.99 L -14.6869,-131.911 L -15.2951,-131.755 L -15.8789,-131.524 L -16.4291,-131.222
 L -16.9371,-130.853 L -17.3948,-130.423 L -17.7951,-129.939 L -18.1315,-129.409 L -18.3989,-128.841 L -18.5929,-128.243
 L -18.7106,-127.627 L -18.75,-127 L -18.75,-107 L -18.7106,-106.373 L -18.5929,-105.757 L -18.3989,-105.159
 L -18.1315,-104.591 L -17.7951,-104.061 L -17.3948,-103.577 L -16.9371,-103.147 L -16.4291,-102.778 L -15.8789,-102.476
 L -15.2951,-102.245 L -14.6869,-102.089 L -14.0639,-102.01 L 14.0639,-102.01 z
M 11.0993,-122.105 L 10.8003,-122.143 L 10.5083,-122.217 L 10.2281,-122.328 L 9.964,-122.474 L 9.72017,-122.651
 L 9.50047,-122.857 L 9.30835,-123.089 L 9.14685,-123.344 L 9.01852,-123.617 L 8.9254,-123.903 L 8.86891,-124.199
 L 8.84999,-124.5 L 8.86891,-124.801 L 8.9254,-125.097 L 9.01852,-125.383 L 9.14685,-125.656 L 9.30835,-125.911
 L 9.50047,-126.143 L 9.72017,-126.349 L 9.964,-126.526 L 10.2281,-126.672 L 10.5083,-126.783 L 10.8003,-126.857
 L 11.0993,-126.895 L 11.4007,-126.895 L 11.6997,-126.857 L 11.9916,-126.783 L 12.2719,-126.672 L 12.536,-126.526
 L 12.7798,-126.349 L 12.9995,-126.143 L 13.1916,-125.911 L 13.3531,-125.656 L 13.4815,-125.383 L 13.5746,-125.097
 L 13.6311,-124.801 L 13.65,-124.5 L 13.6311,-124.199 L 13.5746,-123.903 L 13.4815,-123.617 L 13.3531,-123.344
 L 13.1916,-123.089 L 12.9995,-122.857 L 12.7798,-122.651 L 12.536,-122.474 L 12.2719,-122.328 L 11.9916,-122.217
 L 11.6997,-122.143 L 11.4007,-122.105 z
M -11.3442,-123.003 L -11.5311,-123.027 L -11.7135,-123.073 L -11.8887,-123.143 L -12.0537,-123.234 L -12.2061,-123.344
 L -12.3434,-123.473 L -12.4635,-123.618 L -12.5645,-123.777 L -12.6447,-123.948 L -12.7029,-124.127 L -12.7382,-124.312
 L -12.75,-124.5 L -12.7382,-124.688 L -12.7029,-124.873 L -12.6447,-125.052 L -12.5645,-125.223 L -12.4635,-125.382
 L -12.3434,-125.527 L -12.2061,-125.656 L -12.0537,-125.766 L -11.8887,-125.857 L -11.7135,-125.927 L -11.5311,-125.973
 L -11.3442,-125.997 L -11.1558,-125.997 L -10.9689,-125.973 L -10.7865,-125.927 L -10.6113,-125.857 L -10.4463,-125.766
 L -10.2939,-125.656 L -10.1565,-125.527 L -10.0365,-125.382 L -9.93553,-125.223 L -9.85533,-125.052 L -9.79712,-124.873
 L -9.76183,-124.688 L -9.75,-124.5 L -9.76183,-124.312 L -9.79712,-124.127 L -9.85533,-123.948 L -9.93553,-123.777
 L -10.0365,-123.618 L -10.1565,-123.473 L -10.2939,-123.344 L -10.4463,-123.234 L -10.6113,-123.143 L -10.7865,-123.073
 L -10.9689,-123.027 L -11.1558,-123.003 z
M -11.4007,-107.105 L -11.6997,-107.143 L -11.9916,-107.217 L -12.2719,-107.328 L -12.536,-107.474 L -12.7798,-107.651
 L -12.9995,-107.857 L -13.1916,-108.089 L -13.3531,-108.344 L -13.4815,-108.617 L -13.5746,-108.903 L -13.6311,-109.199
 L -13.65,-109.5 L -13.6311,-109.801 L -13.5746,-110.097 L -13.4815,-110.383 L -13.3531,-110.656 L -13.1916,-110.911
 L -12.9995,-111.143 L -12.7798,-111.349 L -12.536,-111.526 L -12.2719,-111.672 L -11.9916,-111.783 L -11.6997,-111.857
 L -11.4007,-111.895 L -11.0993,-111.895 L -10.8003,-111.857 L -10.5083,-111.783 L -10.2281,-111.672 L -9.964,-111.526
 L -9.72017,-111.349 L -9.50047,-111.143 L -9.30835,-110.911 L -9.14685,-110.656 L -9.01852,-110.383 L -8.9254,-110.097
 L -8.86891,-109.801 L -8.84999,-109.5 L -8.86891,-109.199 L -8.9254,-108.903 L -9.01852,-108.617 L -9.14685,-108.344
 L -9.30835,-108.089 L -9.50047,-107.857 L -9.72017,-107.651 L -9.964,-107.474 L -10.2281,-107.328 L -10.5083,-107.217
 L -10.8003,-107.143 L -11.0993,-107.105 z
M 11.1558,-108.003 L 10.9689,-108.027 L 10.7865,-108.073 L 10.6113,-108.143 L 10.4463,-108.234 L 10.2939,-108.344
 L 10.1565,-108.473 L 10.0365,-108.618 L 9.93553,-108.777 L 9.85533,-108.948 L 9.79712,-109.127 L 9.76183,-109.312
 L 9.75,-109.5 L 9.76183,-109.688 L 9.79712,-109.873 L 9.85533,-110.052 L 9.93553,-110.223 L 10.0365,-110.382
 L 10.1565,-110.527 L 10.2939,-110.656 L 10.4463,-110.766 L 10.6113,-110.857 L 10.7865,-110.927 L 10.9689,-110.973
 L 11.1558,-110.997 L 11.3442,-110.997 L 11.5311,-110.973 L 11.7135,-110.927 L 11.8887,-110.857 L 12.0537,-110.766
 L 12.2061,-110.656 L 12.3434,-110.527 L 12.4635,-110.382 L 12.5645,-110.223 L 12.6447,-110.052 L 12.7029,-109.873
 L 12.7382,-109.688 L 12.75,-109.5 L 12.7382,-109.312 L 12.7029,-109.127 L 12.6447,-108.948 L 12.5645,-108.777
 L 12.4635,-108.618 L 12.3434,-108.473 L 12.2061,-108.344 L 12.0537,-108.234 L 11.8887,-108.143 L 11.7135,-108.073
 L 11.5311,-108.027 L 11.3442,-108.003 z
" stroke="black" fill="lightgray" stroke-width="0.5"/>
</svg>
