<?xml version="1.0" standalone="no"?>
<!DOCTYPE svg PUBLIC "-//W3C//DTD SVG 1.1//EN" "http://www.w3.org/Graphics/SVG/1.1/DTD/svg11.dtd">
<svg width="20mm" height="18mm" viewBox="-10 -32 20 18" xmlns="http://www.w3.org/2000/svg" version="1.1">
<title>OpenSCAD Model</title>
<path d="
M 9.80899,-23 L 4.9045,-31.4948 L -4.9045,-31.4948 L -9.80899,-23 L -4.9045,-14.5052 L 4.9045,-14.5052
 z
M -0.31395,-18.0099 L -0.936905,-18.0886 L -1.54507,-18.2447 L -2.12889,-18.4759 L -2.67912,-18.7784 L -3.18712,-19.1474
 L -3.64484,-19.5773 L -4.04507,-20.0611 L -4.38153,-20.5912 L -4.64888,-21.1594 L -4.84291,-21.7566 L -4.96057,-22.3733
 L -5,-23 L -4.96057,-23.6267 L -4.84291,-24.2434 L -4.64888,-24.8406 L -4.38153,-25.4088 L -4.04507,-25.9389
 L -3.64484,-26.4227 L -3.18712,-26.8526 L -2.67912,-27.2216 L -2.12889,-27.5241 L -1.54507,-27.7553 L -0.936905,-27.9114
 L -0.31395,-27.9901 L 0.31395,-27.9901 L 0.936905,-27.9114 L 1.54507,-27.7553 L 2.12889,-27.5241 L 2.67912,-27.2216
 L 3.18712,-26.8526 L 3.64484,-26.4227 L 4.04507,-25.9389 L 4.38153,-25.4088 L 4.64888,-24.8406 L 4.84291,-24.2434
 L 4.96057,-23.6267 L 5,-23 L 4.96057,-22.3733 L 4.84291,-21.7566 L 4.64888,-21.1594 L 4.38153,-20.5912
 L 4.04507,-20.0611 L 3.64484,-19.5773 L 3.18712,-19.1474 L 2.67912,-18.7784 L 2.12889,-18.4759 L 1.54507,-18.2447
 L 0.936905,-18.0886 L 0.31395,-18.0099 z
" stroke="black" fill="lightgray" stroke-width="0.5"/>
</svg>
