  0
SECTION
  2
BLOCKS
  0
ENDSEC
  0
SECTION
  2
ENTITIES
  0
LINE
  8
0
 10
9.80899
 20
23
 11
4.9045
 21
31.4948
  0
LINE
  8
0
 10
4.9045
 20
31.4948
 11
-4.9045
 21
31.4948
  0
LINE
  8
0
 10
-4.9045
 20
31.4948
 11
-9.80899
 21
23
  0
LINE
  8
0
 10
-9.80899
 20
23
 11
-4.9045
 21
14.5052
  0
LINE
  8
0
 10
-4.9045
 20
14.5052
 11
4.9045
 21
14.5052
  0
LINE
  8
0
 10
4.9045
 20
14.5052
 11
9.80899
 21
23
  0
LINE
  8
0
 10
-0.31395
 20
18.0099
 11
-0.936905
 21
18.0886
  0
LINE
  8
0
 10
-0.936905
 20
18.0886
 11
-1.54507
 21
18.2447
  0
LINE
  8
0
 10
-1.54507
 20
18.2447
 11
-2.12889
 21
18.4759
  0
LINE
  8
0
 10
-2.12889
 20
18.4759
 11
-2.67912
 21
18.7784
  0
LINE
  8
0
 10
-2.67912
 20
18.7784
 11
-3.18712
 21
19.1474
  0
LINE
  8
0
 10
-3.18712
 20
19.1474
 11
-3.64484
 21
19.5773
  0
LINE
  8
0
 10
-3.64484
 20
19.5773
 11
-4.04507
 21
20.0611
  0
LINE
  8
0
 10
-4.04507
 20
20.0611
 11
-4.38153
 21
20.5912
  0
LINE
  8
0
 10
-4.38153
 20
20.5912
 11
-4.64888
 21
21.1594
  0
LINE
  8
0
 10
-4.64888
 20
21.1594
 11
-4.84291
 21
21.7566
  0
LINE
  8
0
 10
-4.84291
 20
21.7566
 11
-4.96057
 21
22.3733
  0
LINE
  8
0
 10
-4.96057
 20
22.3733
 11
-5
 21
23
  0
LINE
  8
0
 10
-5
 20
23
 11
-4.96057
 21
23.6267
  0
LINE
  8
0
 10
-4.96057
 20
23.6267
 11
-4.84291
 21
24.2434
  0
LINE
  8
0
 10
-4.84291
 20
24.2434
 11
-4.64888
 21
24.8406
  0
LINE
  8
0
 10
-4.64888
 20
24.8406
 11
-4.38153
 21
25.4088
  0
LINE
  8
0
 10
-4.38153
 20
25.4088
 11
-4.04507
 21
25.9389
  0
LINE
  8
0
 10
-4.04507
 20
25.9389
 11
-3.64484
 21
26.4227
  0
LINE
  8
0
 10
-3.64484
 20
26.4227
 11
-3.18712
 21
26.8526
  0
LINE
  8
0
 10
-3.18712
 20
26.8526
 11
-2.67912
 21
27.2216
  0
LINE
  8
0
 10
-2.67912
 20
27.2216
 11
-2.12889
 21
27.5241
  0
LINE
  8
0
 10
-2.12889
 20
27.5241
 11
-1.54507
 21
27.7553
  0
LINE
  8
0
 10
-1.54507
 20
27.7553
 11
-0.936905
 21
27.9114
  0
LINE
  8
0
 10
-0.936905
 20
27.9114
 11
-0.31395
 21
27.9901
  0
LINE
  8
0
 10
-0.31395
 20
27.9901
 11
0.31395
 21
27.9901
  0
LINE
  8
0
 10
0.31395
 20
27.9901
 11
0.936905
 21
27.9114
  0
LINE
  8
0
 10
0.936905
 20
27.9114
 11
1.54507
 21
27.7553
  0
LINE
  8
0
 10
1.54507
 20
27.7553
 11
2.12889
 21
27.5241
  0
LINE
  8
0
 10
2.12889
 20
27.5241
 11
2.67912
 21
27.2216
  0
LINE
  8
0
 10
2.67912
 20
27.2216
 11
3.18712
 21
26.8526
  0
LINE
  8
0
 10
3.18712
 20
26.8526
 11
3.64484
 21
26.4227
  0
LINE
  8
0
 10
3.64484
 20
26.4227
 11
4.04507
 21
25.9389
  0
LINE
  8
0
 10
4.04507
 20
25.9389
 11
4.38153
 21
25.4088
  0
LINE
  8
0
 10
4.38153
 20
25.4088
 11
4.64888
 21
24.8406
  0
LINE
  8
0
 10
4.64888
 20
24.8406
 11
4.84291
 21
24.2434
  0
LINE
  8
0
 10
4.84291
 20
24.2434
 11
4.96057
 21
23.6267
  0
LINE
  8
0
 10
4.96057
 20
23.6267
 11
5
 21
23
  0
LINE
  8
0
 10
5
 20
23
 11
4.96057
 21
22.3733
  0
LINE
  8
0
 10
4.96057
 20
22.3733
 11
4.84291
 21
21.7566
  0
LINE
  8
0
 10
4.84291
 20
21.7566
 11
4.64888
 21
21.1594
  0
LINE
  8
0
 10
4.64888
 20
21.1594
 11
4.38153
 21
20.5912
  0
LINE
  8
0
 10
4.38153
 20
20.5912
 11
4.04507
 21
20.0611
  0
LINE
  8
0
 10
4.04507
 20
20.0611
 11
3.64484
 21
19.5773
  0
LINE
  8
0
 10
3.64484
 20
19.5773
 11
3.18712
 21
19.1474
  0
LINE
  8
0
 10
3.18712
 20
19.1474
 11
2.67912
 21
18.7784
  0
LINE
  8
0
 10
2.67912
 20
18.7784
 11
2.12889
 21
18.4759
  0
LINE
  8
0
 10
2.12889
 20
18.4759
 11
1.54507
 21
18.2447
  0
LINE
  8
0
 10
1.54507
 20
18.2447
 11
0.936905
 21
18.0886
  0
LINE
  8
0
 10
0.936905
 20
18.0886
 11
0.31395
 21
18.0099
  0
LINE
  8
0
 10
0.31395
 20
18.0099
 11
-0.31395
 21
18.0099
  0
ENDSEC
  0
SECTION
  2
OBJECTS
  0
DICTIONARY
  0
ENDSEC
  0
EOF
