<?xml version="1.0" standalone="no"?>
<!DOCTYPE svg PUBLIC "-//W3C//DTD SVG 1.1//EN" "http://www.w3.org/Graphics/SVG/1.1/DTD/svg11.dtd">
<svg width="44mm" height="117mm" viewBox="-22 -200 44 117" xmlns="http://www.w3.org/2000/svg" version="1.1">
<title>OpenSCAD Model</title>
<path d="
M 17.9369,-178.339 L 18.5451,-178.495 L 19.1289,-178.726 L 19.6791,-179.028 L 20.1871,-179.397 L 20.6448,-179.827
 L 21.0451,-180.311 L 21.3815,-180.841 L 21.6489,-181.409 L 21.8429,-182.007 L 21.9606,-182.623 L 22,-183.25
 L 22,-194.75 L 21.9606,-195.377 L 21.8429,-195.993 L 21.6489,-196.591 L 21.3815,-197.159 L 21.0451,-197.689
 L 20.6448,-198.173 L 20.1871,-198.603 L 19.6791,-198.972 L 19.1289,-199.274 L 18.5451,-199.505 L 17.9369,-199.661
 L 17.3139,-199.74 L -17.3139,-199.74 L -17.9369,-199.661 L -18.5451,-199.505 L -19.1289,-199.274 L -19.6791,-198.972
 L -20.1871,-198.603 L -20.6448,-198.173 L -21.0451,-197.689 L -21.3815,-197.159 L -21.6489,-196.591 L -21.8429,-195.993
 L -21.9606,-195.377 L -22,-194.75 L -22,-183.25 L -21.9606,-182.623 L -21.8429,-182.007 L -21.6489,-181.409
 L -21.3815,-180.841 L -21.0451,-180.311 L -20.6448,-179.827 L -20.1871,-179.397 L -19.6791,-179.028 L -19.1289,-178.726
 L -18.5451,-178.495 L -17.9369,-178.339 L -17.3139,-178.26 L 17.3139,-178.26 z
M -17.2512,-179.258 L -17.7495,-179.321 L -18.2361,-179.446 L -18.7031,-179.631 L -19.1433,-179.873 L -19.5497,-180.168
 L -19.9159,-180.512 L -20.2361,-180.899 L -20.5052,-181.323 L -20.7191,-181.778 L -20.8743,-182.255 L -20.9684,-182.749
 L -21,-183.25 L -21,-194.75 L -20.9684,-195.251 L -20.8743,-195.745 L -20.7191,-196.222 L -20.5052,-196.677
 L -20.2361,-197.101 L -19.9159,-197.488 L -19.5497,-197.832 L -19.1433,-198.127 L -18.7031,-198.369 L -18.2361,-198.554
 L -17.7495,-198.679 L -17.2512,-198.742 L 17.2512,-198.742 L 17.7495,-198.679 L 18.2361,-198.554 L 18.7031,-198.369
 L 19.1433,-198.127 L 19.5497,-197.832 L 19.9159,-197.488 L 20.2361,-197.101 L 20.5052,-196.677 L 20.7191,-196.222
 L 20.8743,-195.745 L 20.9684,-195.251 L 21,-194.75 L 21,-183.25 L 20.9684,-182.749 L 20.8743,-182.255
 L 20.7191,-181.778 L 20.5052,-181.323 L 20.2361,-180.899 L 19.9159,-180.512 L 19.5497,-180.168 L 19.1433,-179.873
 L 18.7031,-179.631 L 18.2361,-179.446 L 17.7495,-179.321 L 17.2512,-179.258 z
M 17.9369,-146.839 L 18.5451,-146.995 L 19.1289,-147.226 L 19.6791,-147.528 L 20.1871,-147.897 L 20.6448,-148.327
 L 21.0451,-148.811 L 21.3815,-149.341 L 21.6489,-149.909 L 21.8429,-150.507 L 21.9606,-151.123 L 22,-151.75
 L 22,-163.25 L 21.9606,-163.877 L 21.8429,-164.493 L 21.6489,-165.091 L 21.3815,-165.659 L 21.0451,-166.189
 L 20.6448,-166.673 L 20.1871,-167.103 L 19.6791,-167.472 L 19.1289,-167.774 L 18.5451,-168.005 L 17.9369,-168.161
 L 17.3139,-168.24 L -17.3139,-168.24 L -17.9369,-168.161 L -18.5451,-168.005 L -19.1289,-167.774 L -19.6791,-167.472
 L -20.1871,-167.103 L -20.6448,-166.673 L -21.0451,-166.189 L -21.3815,-165.659 L -21.6489,-165.091 L -21.8429,-164.493
 L -21.9606,-163.877 L -22,-163.25 L -22,-151.75 L -21.9606,-151.123 L -21.8429,-150.507 L -21.6489,-149.909
 L -21.3815,-149.341 L -21.0451,-148.811 L -20.6448,-148.327 L -20.1871,-147.897 L -19.6791,-147.528 L -19.1289,-147.226
 L -18.5451,-146.995 L -17.9369,-146.839 L -17.3139,-146.76 L 17.3139,-146.76 z
M -17.2432,-147.885 L -17.7256,-147.946 L -18.1967,-148.067 L -18.6489,-148.246 L -19.0751,-148.48 L -19.4685,-148.766
 L -19.823,-149.099 L -20.133,-149.474 L -20.3936,-149.884 L -20.6007,-150.324 L -20.751,-150.787 L -20.8421,-151.265
 L -20.8726,-151.75 L -20.8726,-163.25 L -20.8421,-163.735 L -20.751,-164.213 L -20.6007,-164.676 L -20.3936,-165.116
 L -20.133,-165.526 L -19.823,-165.901 L -19.4685,-166.234 L -19.0751,-166.52 L -18.6489,-166.754 L -18.1967,-166.933
 L -17.7256,-167.054 L -17.2432,-167.115 L 17.2432,-167.115 L 17.7256,-167.054 L 18.1967,-166.933 L 18.6489,-166.754
 L 19.0751,-166.52 L 19.4685,-166.234 L 19.823,-165.901 L 20.133,-165.526 L 20.3936,-165.116 L 20.6007,-164.676
 L 20.751,-164.213 L 20.8421,-163.735 L 20.8726,-163.25 L 20.8726,-151.75 L 20.8421,-151.265 L 20.751,-150.787
 L 20.6007,-150.324 L 20.3936,-149.884 L 20.133,-149.474 L 19.823,-149.099 L 19.4685,-148.766 L 19.0751,-148.48
 L 18.6489,-148.246 L 18.1967,-148.067 L 17.7256,-147.946 L 17.2432,-147.885 z
M 17.9369,-115.339 L 18.5451,-115.495 L 19.1289,-115.726 L 19.6791,-116.028 L 20.1871,-116.397 L 20.6448,-116.827
 L 21.0451,-117.311 L 21.3815,-117.841 L 21.6489,-118.409 L 21.8429,-119.007 L 21.9606,-119.623 L 22,-120.25
 L 22,-131.75 L 21.9606,-132.377 L 21.8429,-132.993 L 21.6489,-133.591 L 21.3815,-134.159 L 21.0451,-134.689
 L 20.6448,-135.173 L 20.1871,-135.603 L 19.6791,-135.972 L 19.1289,-136.274 L 18.5451,-136.505 L 17.9369,-136.661
 L 17.3139,-136.74 L -17.3139,-136.74 L -17.9369,-136.661 L -18.5451,-136.505 L -19.1289,-136.274 L -19.6791,-135.972
 L -20.1871,-135.603 L -20.6448,-135.173 L -21.0451,-134.689 L -21.3815,-134.159 L -21.6489,-133.591 L -21.8429,-132.993
 L -21.9606,-132.377 L -22,-131.75 L -22,-120.25 L -21.9606,-119.623 L -21.8429,-119.007 L -21.6489,-118.409
 L -21.3815,-117.841 L -21.0451,-117.311 L -20.6448,-116.827 L -20.1871,-116.397 L -19.6791,-116.028 L -19.1289,-115.726
 L -18.5451,-115.495 L -17.9369,-115.339 L -17.3139,-115.26 L 17.3139,-115.26 z
M 17.9369,-83.8386 L 18.5451,-83.9947 L 19.1289,-84.2259 L 19.6791,-84.5284 L 20.1871,-84.8974 L 20.6448,-85.3273
 L 21.0451,-85.8111 L 21.3815,-86.3412 L 21.6489,-86.9094 L 21.8429,-87.5066 L 21.9606,-88.1233 L 22,-88.75
 L 22,-100.25 L 21.9606,-100.877 L 21.8429,-101.493 L 21.6489,-102.091 L 21.3815,-102.659 L 21.0451,-103.189
 L 20.6448,-103.673 L 20.1871,-104.103 L 19.6791,-104.472 L 19.1289,-104.774 L 18.5451,-105.005 L 17.9369,-105.161
 L 17.3139,-105.24 L -17.3139,-105.24 L -17.9369,-105.161 L -18.5451,-105.005 L -19.1289,-104.774 L -19.6791,-104.472
 L -20.1871,-104.103 L -20.6448,-103.673 L -21.0451,-103.189 L -21.3815,-102.659 L -21.6489,-102.091 L -21.8429,-101.493
 L -21.9606,-100.877 L -22,-100.25 L -22,-88.75 L -21.9606,-88.1233 L -21.8429,-87.5066 L -21.6489,-86.9094
 L -21.3815,-86.3412 L -21.0451,-85.8111 L -20.6448,-85.3273 L -20.1871,-84.8974 L -19.6791,-84.5284 L -19.1289,-84.2259
 L -18.5451,-83.9947 L -17.9369,-83.8386 L -17.3139,-83.7599 L 17.3139,-83.7599 z
M 14.8493,-95.8547 L 14.5503,-95.8925 L 14.2583,-95.9675 L 13.9781,-96.0784 L 13.714,-96.2236 L 13.4702,-96.4008
 L 13.2505,-96.6071 L 13.0583,-96.8393 L 12.8969,-97.0938 L 12.7685,-97.3665 L 12.6754,-97.6531 L 12.6189,-97.9492
 L 12.6,-98.25 L 12.6189,-98.5508 L 12.6754,-98.8468 L 12.7685,-99.1335 L 12.8969,-99.4062 L 13.0583,-99.6607
 L 13.2505,-99.8929 L 13.4702,-100.099 L 13.714,-100.276 L 13.9781,-100.422 L 14.2583,-100.533 L 14.5503,-100.607
 L 14.8493,-100.645 L 15.1507,-100.645 L 15.4497,-100.607 L 15.7416,-100.533 L 16.0219,-100.422 L 16.286,-100.276
 L 16.5298,-100.099 L 16.7495,-99.8929 L 16.9416,-99.6607 L 17.1031,-99.4062 L 17.2315,-99.1335 L 17.3246,-98.8468
 L 17.3811,-98.5508 L 17.4,-98.25 L 17.3811,-97.9492 L 17.3246,-97.6531 L 17.2315,-97.3665 L 17.1031,-97.0938
 L 16.9416,-96.8393 L 16.7495,-96.6071 L 16.5298,-96.4008 L 16.286,-96.2236 L 16.0219,-96.0784 L 15.7416,-95.9675
 L 15.4497,-95.8925 L 15.1507,-95.8547 z
M -15.1507,-95.8547 L -15.4497,-95.8925 L -15.7416,-95.9675 L -16.0219,-96.0784 L -16.286,-96.2236 L -16.5298,-96.4008
 L -16.7495,-96.6071 L -16.9416,-96.8393 L -17.1031,-97.0938 L -17.2315,-97.3665 L -17.3246,-97.6531 L -17.3811,-97.9492
 L -17.4,-98.25 L -17.3811,-98.5508 L -17.3246,-98.8468 L -17.2315,-99.1335 L -17.1031,-99.4062 L -16.9416,-99.6607
 L -16.7495,-99.8929 L -16.5298,-100.099 L -16.286,-100.276 L -16.0219,-100.422 L -15.7416,-100.533 L -15.4497,-100.607
 L -15.1507,-100.645 L -14.8493,-100.645 L -14.5503,-100.607 L -14.2583,-100.533 L -13.9781,-100.422 L -13.714,-100.276
 L -13.4702,-100.099 L -13.2505,-99.8929 L -13.0583,-99.6607 L -12.8969,-99.4062 L -12.7685,-99.1335 L -12.6754,-98.8468
 L -12.6189,-98.5508 L -12.6,-98.25 L -12.6189,-97.9492 L -12.6754,-97.6531 L -12.7685,-97.3665 L -12.8969,-97.0938
 L -13.0583,-96.8393 L -13.2505,-96.6071 L -13.4702,-96.4008 L -13.714,-96.2236 L -13.9781,-96.0784 L -14.2583,-95.9675
 L -14.5503,-95.8925 L -14.8493,-95.8547 z
M -15.1507,-88.3547 L -15.4497,-88.3925 L -15.7416,-88.4675 L -16.0219,-88.5784 L -16.286,-88.7236 L -16.5298,-88.9008
 L -16.7495,-89.1071 L -16.9416,-89.3393 L -17.1031,-89.5938 L -17.2315,-89.8665 L -17.3246,-90.1532 L -17.3811,-90.4492
 L -17.4,-90.75 L -17.3811,-91.0508 L -17.3246,-91.3469 L -17.2315,-91.6335 L -17.1031,-91.9062 L -16.9416,-92.1607
 L -16.7495,-92.3929 L -16.5298,-92.5992 L -16.286,-92.7764 L -16.0219,-92.9216 L -15.7416,-93.0325 L -15.4497,-93.1075
 L -15.1507,-93.1453 L -14.8493,-93.1453 L -14.5503,-93.1075 L -14.2583,-93.0325 L -13.9781,-92.9216 L -13.714,-92.7764
 L -13.4702,-92.5992 L -13.2505,-92.3929 L -13.0583,-92.1607 L -12.8969,-91.9062 L -12.7685,-91.6335 L -12.6754,-91.3469
 L -12.6189,-91.0508 L -12.6,-90.75 L -12.6189,-90.4492 L -12.6754,-90.1532 L -12.7685,-89.8665 L -12.8969,-89.5938
 L -13.0583,-89.3393 L -13.2505,-89.1071 L -13.4702,-88.9008 L -13.714,-88.7236 L -13.9781,-88.5784 L -14.2583,-88.4675
 L -14.5503,-88.3925 L -14.8493,-88.3547 z
M 14.8493,-88.3547 L 14.5503,-88.3925 L 14.2583,-88.4675 L 13.9781,-88.5784 L 13.714,-88.7236 L 13.4702,-88.9008
 L 13.2505,-89.1071 L 13.0583,-89.3393 L 12.8969,-89.5938 L 12.7685,-89.8665 L 12.6754,-90.1532 L 12.6189,-90.4492
 L 12.6,-90.75 L 12.6189,-91.0508 L 12.6754,-91.3469 L 12.7685,-91.6335 L 12.8969,-91.9062 L 13.0583,-92.1607
 L 13.2505,-92.3929 L 13.4702,-92.5992 L 13.714,-92.7764 L 13.9781,-92.9216 L 14.2583,-93.0325 L 14.5503,-93.1075
 L 14.8493,-93.1453 L 15.1507,-93.1453 L 15.4497,-93.1075 L 15.7416,-93.0325 L 16.0219,-92.9216 L 16.286,-92.7764
 L 16.5298,-92.5992 L 16.7495,-92.3929 L 16.9416,-92.1607 L 17.1031,-91.9062 L 17.2315,-91.6335 L 17.3246,-91.3469
 L 17.3811,-91.0508 L 17.4,-90.75 L 17.3811,-90.4492 L 17.3246,-90.1532 L 17.2315,-89.8665 L 17.1031,-89.5938
 L 16.9416,-89.3393 L 16.7495,-89.1071 L 16.5298,-88.9008 L 16.286,-88.7236 L 16.0219,-88.5784 L 15.7416,-88.4675
 L 15.4497,-88.3925 L 15.1507,-88.3547 z
" stroke="black" fill="lightgray" stroke-width="0.5"/>
</svg>
