<?xml version="1.0" standalone="no"?>
<!DOCTYPE svg PUBLIC "-//W3C//DTD SVG 1.1//EN" "http://www.w3.org/Graphics/SVG/1.1/DTD/svg11.dtd">
<svg width="30mm" height="147mm" viewBox="-15 -288 30 147" xmlns="http://www.w3.org/2000/svg" version="1.1">
<title>OpenSCAD Model</title>
<path d="
M 10.4369,-258.589 L 11.0451,-258.745 L 11.6289,-258.976 L 12.1791,-259.278 L 12.6871,-259.647 L 13.1448,-260.077
 L 13.5451,-260.561 L 13.8815,-261.091 L 14.1489,-261.659 L 14.3429,-262.257 L 14.4606,-262.873 L 14.5,-263.5
 L 14.5,-282.5 L 14.4606,-283.127 L 14.3429,-283.743 L 14.1489,-284.341 L 13.8815,-284.909 L 13.5451,-285.439
 L 13.1448,-285.923 L 12.6871,-286.353 L 12.1791,-286.722 L 11.6289,-287.024 L 11.0451,-287.255 L 10.4369,-287.411
 L 9.81395,-287.49 L -9.81395,-287.49 L -10.4369,-287.411 L -11.0451,-287.255 L -11.6289,-287.024 L -12.1791,-286.722
 L -12.6871,-286.353 L -13.1448,-285.923 L -13.5451,-285.439 L -13.8815,-284.909 L -14.1489,-284.341 L -14.3429,-283.743
 L -14.4606,-283.127 L -14.5,-282.5 L -14.5,-263.5 L -14.4606,-262.873 L -14.3429,-262.257 L -14.1489,-261.659
 L -13.8815,-261.091 L -13.5451,-260.561 L -13.1448,-260.077 L -12.6871,-259.647 L -12.1791,-259.278 L -11.6289,-258.976
 L -11.0451,-258.745 L -10.4369,-258.589 L -9.81395,-258.51 L 9.81395,-258.51 z
M -9.54825,-259.009 L -10.1401,-259.084 L -10.7178,-259.232 L -11.2724,-259.452 L -11.7952,-259.739 L -12.2778,-260.09
 L -12.7126,-260.498 L -13.0928,-260.958 L -13.4124,-261.462 L -13.6664,-262.001 L -13.8508,-262.569 L -13.9625,-263.155
 L -14,-263.75 L -14,-282.25 L -13.9625,-282.845 L -13.8508,-283.431 L -13.6664,-283.999 L -13.4124,-284.538
 L -13.0928,-285.042 L -12.7126,-285.502 L -12.2778,-285.91 L -11.7952,-286.261 L -11.2724,-286.548 L -10.7178,-286.768
 L -10.1401,-286.916 L -9.54825,-286.991 L 9.54825,-286.991 L 10.1401,-286.916 L 10.7178,-286.768 L 11.2724,-286.548
 L 11.7952,-286.261 L 12.2778,-285.91 L 12.7126,-285.502 L 13.0928,-285.042 L 13.4124,-284.538 L 13.6664,-283.999
 L 13.8508,-283.431 L 13.9625,-282.845 L 14,-282.25 L 14,-263.75 L 13.9625,-263.155 L 13.8508,-262.569
 L 13.6664,-262.001 L 13.4124,-261.462 L 13.0928,-260.958 L 12.7126,-260.498 L 12.2778,-260.09 L 11.7952,-259.739
 L 11.2724,-259.452 L 10.7178,-259.232 L 10.1401,-259.084 L 9.54825,-259.009 z
M 10.4369,-219.589 L 11.0451,-219.745 L 11.6289,-219.976 L 12.1791,-220.278 L 12.6871,-220.647 L 13.1448,-221.077
 L 13.5451,-221.561 L 13.8815,-222.091 L 14.1489,-222.659 L 14.3429,-223.257 L 14.4606,-223.873 L 14.5,-224.5
 L 14.5,-243.5 L 14.4606,-244.127 L 14.3429,-244.743 L 14.1489,-245.341 L 13.8815,-245.909 L 13.5451,-246.439
 L 13.1448,-246.923 L 12.6871,-247.353 L 12.1791,-247.722 L 11.6289,-248.024 L 11.0451,-248.255 L 10.4369,-248.411
 L 9.81395,-248.49 L -9.81395,-248.49 L -10.4369,-248.411 L -11.0451,-248.255 L -11.6289,-248.024 L -12.1791,-247.722
 L -12.6871,-247.353 L -13.1448,-246.923 L -13.5451,-246.439 L -13.8815,-245.909 L -14.1489,-245.341 L -14.3429,-244.743
 L -14.4606,-244.127 L -14.5,-243.5 L -14.5,-224.5 L -14.4606,-223.873 L -14.3429,-223.257 L -14.1489,-222.659
 L -13.8815,-222.091 L -13.5451,-221.561 L -13.1448,-221.077 L -12.6871,-220.647 L -12.1791,-220.278 L -11.6289,-219.976
 L -11.0451,-219.745 L -10.4369,-219.589 L -9.81395,-219.51 L 9.81395,-219.51 z
M -9.54825,-220.009 L -10.1401,-220.084 L -10.7178,-220.232 L -11.2724,-220.452 L -11.7952,-220.739 L -12.2778,-221.09
 L -12.7126,-221.498 L -13.0928,-221.958 L -13.4124,-222.462 L -13.6664,-223.001 L -13.8508,-223.569 L -13.9625,-224.155
 L -14,-224.75 L -14,-243.25 L -13.9625,-243.845 L -13.8508,-244.431 L -13.6664,-244.999 L -13.4124,-245.538
 L -13.0928,-246.042 L -12.7126,-246.502 L -12.2778,-246.91 L -11.7952,-247.261 L -11.2724,-247.548 L -10.7178,-247.768
 L -10.1401,-247.916 L -9.54825,-247.991 L 9.54825,-247.991 L 10.1401,-247.916 L 10.7178,-247.768 L 11.2724,-247.548
 L 11.7952,-247.261 L 12.2778,-246.91 L 12.7126,-246.502 L 13.0928,-246.042 L 13.4124,-245.538 L 13.6664,-244.999
 L 13.8508,-244.431 L 13.9625,-243.845 L 14,-243.25 L 14,-224.75 L 13.9625,-224.155 L 13.8508,-223.569
 L 13.6664,-223.001 L 13.4124,-222.462 L 13.0928,-221.958 L 12.7126,-221.498 L 12.2778,-221.09 L 11.7952,-220.739
 L 11.2724,-220.452 L 10.7178,-220.232 L 10.1401,-220.084 L 9.54825,-220.009 z
M 10.4369,-180.589 L 11.0451,-180.745 L 11.6289,-180.976 L 12.1791,-181.278 L 12.6871,-181.647 L 13.1448,-182.077
 L 13.5451,-182.561 L 13.8815,-183.091 L 14.1489,-183.659 L 14.3429,-184.257 L 14.4606,-184.873 L 14.5,-185.5
 L 14.5,-204.5 L 14.4606,-205.127 L 14.3429,-205.743 L 14.1489,-206.341 L 13.8815,-206.909 L 13.5451,-207.439
 L 13.1448,-207.923 L 12.6871,-208.353 L 12.1791,-208.722 L 11.6289,-209.024 L 11.0451,-209.255 L 10.4369,-209.411
 L 9.81395,-209.49 L -9.81395,-209.49 L -10.4369,-209.411 L -11.0451,-209.255 L -11.6289,-209.024 L -12.1791,-208.722
 L -12.6871,-208.353 L -13.1448,-207.923 L -13.5451,-207.439 L -13.8815,-206.909 L -14.1489,-206.341 L -14.3429,-205.743
 L -14.4606,-205.127 L -14.5,-204.5 L -14.5,-185.5 L -14.4606,-184.873 L -14.3429,-184.257 L -14.1489,-183.659
 L -13.8815,-183.091 L -13.5451,-182.561 L -13.1448,-182.077 L -12.6871,-181.647 L -12.1791,-181.278 L -11.6289,-180.976
 L -11.0451,-180.745 L -10.4369,-180.589 L -9.81395,-180.51 L 9.81395,-180.51 z
M -9.53748,-181.181 L -10.1079,-181.253 L -10.6648,-181.396 L -11.1994,-181.607 L -11.7032,-181.884 L -12.1684,-182.222
 L -12.5875,-182.616 L -12.954,-183.059 L -13.2621,-183.544 L -13.5069,-184.065 L -13.6846,-184.611 L -13.7923,-185.176
 L -13.8284,-185.75 L -13.8284,-204.25 L -13.7923,-204.824 L -13.6846,-205.389 L -13.5069,-205.935 L -13.2621,-206.456
 L -12.954,-206.941 L -12.5875,-207.384 L -12.1684,-207.778 L -11.7032,-208.116 L -11.1994,-208.393 L -10.6648,-208.604
 L -10.1079,-208.747 L -9.53748,-208.819 L 9.53748,-208.819 L 10.1079,-208.747 L 10.6648,-208.604 L 11.1994,-208.393
 L 11.7032,-208.116 L 12.1684,-207.778 L 12.5875,-207.384 L 12.954,-206.941 L 13.2621,-206.456 L 13.5069,-205.935
 L 13.6846,-205.389 L 13.7923,-204.824 L 13.8284,-204.25 L 13.8284,-185.75 L 13.7923,-185.176 L 13.6846,-184.611
 L 13.5069,-184.065 L 13.2621,-183.544 L 12.954,-183.059 L 12.5875,-182.616 L 12.1684,-182.222 L 11.7032,-181.884
 L 11.1994,-181.607 L 10.6648,-181.396 L 10.1079,-181.253 L 9.53748,-181.181 z
M 10.4369,-141.589 L 11.0451,-141.745 L 11.6289,-141.976 L 12.1791,-142.278 L 12.6871,-142.647 L 13.1448,-143.077
 L 13.5451,-143.561 L 13.8815,-144.091 L 14.1489,-144.659 L 14.3429,-145.257 L 14.4606,-145.873 L 14.5,-146.5
 L 14.5,-165.5 L 14.4606,-166.127 L 14.3429,-166.743 L 14.1489,-167.341 L 13.8815,-167.909 L 13.5451,-168.439
 L 13.1448,-168.923 L 12.6871,-169.353 L 12.1791,-169.722 L 11.6289,-170.024 L 11.0451,-170.255 L 10.4369,-170.411
 L 9.81395,-170.49 L -9.81395,-170.49 L -10.4369,-170.411 L -11.0451,-170.255 L -11.6289,-170.024 L -12.1791,-169.722
 L -12.6871,-169.353 L -13.1448,-168.923 L -13.5451,-168.439 L -13.8815,-167.909 L -14.1489,-167.341 L -14.3429,-166.743
 L -14.4606,-166.127 L -14.5,-165.5 L -14.5,-146.5 L -14.4606,-145.873 L -14.3429,-145.257 L -14.1489,-144.659
 L -13.8815,-144.091 L -13.5451,-143.561 L -13.1448,-143.077 L -12.6871,-142.647 L -12.1791,-142.278 L -11.6289,-141.976
 L -11.0451,-141.745 L -10.4369,-141.589 L -9.81395,-141.51 L 9.81395,-141.51 z
M -9.38246,-144.645 L -9.64529,-144.678 L -9.9019,-144.744 L -10.1482,-144.841 L -10.3804,-144.969 L -10.5947,-145.125
 L -10.7878,-145.306 L -10.9567,-145.51 L -11.0987,-145.734 L -11.2115,-145.973 L -11.2934,-146.225 L -11.343,-146.486
 L -11.3596,-146.75 L -11.3596,-165.25 L -11.343,-165.514 L -11.2934,-165.775 L -11.2115,-166.027 L -11.0987,-166.266
 L -10.9567,-166.49 L -10.7878,-166.694 L -10.5947,-166.875 L -10.3804,-167.031 L -10.1482,-167.159 L -9.9019,-167.256
 L -9.64529,-167.322 L -9.38246,-167.355 L 9.38246,-167.355 L 9.64529,-167.322 L 9.9019,-167.256 L 10.1482,-167.159
 L 10.3804,-167.031 L 10.5947,-166.875 L 10.7878,-166.694 L 10.9567,-166.49 L 11.0987,-166.266 L 11.2115,-166.027
 L 11.2934,-165.775 L 11.343,-165.514 L 11.3596,-165.25 L 11.3596,-146.75 L 11.343,-146.486 L 11.2934,-146.225
 L 11.2115,-145.973 L 11.0987,-145.734 L 10.9567,-145.51 L 10.7878,-145.306 L 10.5947,-145.125 L 10.3804,-144.969
 L 10.1482,-144.841 L 9.9019,-144.744 L 9.64529,-144.678 L 9.38246,-144.645 z
" stroke="black" fill="lightgray" stroke-width="0.5"/>
</svg>
