<?xml version="1.0" standalone="no"?>
<!DOCTYPE svg PUBLIC "-//W3C//DTD SVG 1.1//EN" "http://www.w3.org/Graphics/SVG/1.1/DTD/svg11.dtd">
<svg width="74mm" height="147mm" viewBox="-37 -249 74 147" xmlns="http://www.w3.org/2000/svg" version="1.1">
<title>OpenSCAD Model</title>
<path d="
M 32.9369,-219.589 L 33.5451,-219.745 L 34.1289,-219.976 L 34.6791,-220.278 L 35.1871,-220.647 L 35.6448,-221.077
 L 36.0451,-221.561 L 36.3815,-222.091 L 36.6489,-222.659 L 36.8429,-223.257 L 36.9606,-223.873 L 37,-224.5
 L 37,-243.5 L 36.9606,-244.127 L 36.8429,-244.743 L 36.6489,-245.341 L 36.3815,-245.909 L 36.0451,-246.439
 L 35.6448,-246.923 L 35.1871,-247.353 L 34.6791,-247.722 L 34.1289,-248.024 L 33.5451,-248.255 L 32.9369,-248.411
 L 32.3139,-248.49 L -32.3139,-248.49 L -32.9369,-248.411 L -33.5451,-248.255 L -34.1289,-248.024 L -34.6791,-247.722
 L -35.1871,-247.353 L -35.6448,-246.923 L -36.0451,-246.439 L -36.3815,-245.909 L -36.6489,-245.341 L -36.8429,-244.743
 L -36.9606,-244.127 L -37,-243.5 L -37,-224.5 L -36.9606,-223.873 L -36.8429,-223.257 L -36.6489,-222.659
 L -36.3815,-222.091 L -36.0451,-221.561 L -35.6448,-221.077 L -35.1871,-220.647 L -34.6791,-220.278 L -34.1289,-219.976
 L -33.5451,-219.745 L -32.9369,-219.589 L -32.3139,-219.51 L 32.3139,-219.51 z
M -32.2512,-220.508 L -32.7495,-220.571 L -33.2361,-220.696 L -33.7031,-220.881 L -34.1433,-221.123 L -34.5497,-221.418
 L -34.9159,-221.762 L -35.2361,-222.149 L -35.5052,-222.573 L -35.7191,-223.028 L -35.8743,-223.505 L -35.9685,-223.999
 L -36,-224.5 L -36,-243.5 L -35.9685,-244.001 L -35.8743,-244.495 L -35.7191,-244.972 L -35.5052,-245.427
 L -35.2361,-245.851 L -34.9159,-246.238 L -34.5497,-246.582 L -34.1433,-246.877 L -33.7031,-247.119 L -33.2361,-247.304
 L -32.7495,-247.429 L -32.2512,-247.492 L 32.2512,-247.492 L 32.7495,-247.429 L 33.2361,-247.304 L 33.7031,-247.119
 L 34.1433,-246.877 L 34.5497,-246.582 L 34.9159,-246.238 L 35.2361,-245.851 L 35.5052,-245.427 L 35.7191,-244.972
 L 35.8743,-244.495 L 35.9685,-244.001 L 36,-243.5 L 36,-224.5 L 35.9685,-223.999 L 35.8743,-223.505
 L 35.7191,-223.028 L 35.5052,-222.573 L 35.2361,-222.149 L 34.9159,-221.762 L 34.5497,-221.418 L 34.1433,-221.123
 L 33.7031,-220.881 L 33.2361,-220.696 L 32.7495,-220.571 L 32.2512,-220.508 z
M 32.9369,-180.589 L 33.5451,-180.745 L 34.1289,-180.976 L 34.6791,-181.278 L 35.1871,-181.647 L 35.6448,-182.077
 L 36.0451,-182.561 L 36.3815,-183.091 L 36.6489,-183.659 L 36.8429,-184.257 L 36.9606,-184.873 L 37,-185.5
 L 37,-204.5 L 36.9606,-205.127 L 36.8429,-205.743 L 36.6489,-206.341 L 36.3815,-206.909 L 36.0451,-207.439
 L 35.6448,-207.923 L 35.1871,-208.353 L 34.6791,-208.722 L 34.1289,-209.024 L 33.5451,-209.255 L 32.9369,-209.411
 L 32.3139,-209.49 L -32.3139,-209.49 L -32.9369,-209.411 L -33.5451,-209.255 L -34.1289,-209.024 L -34.6791,-208.722
 L -35.1871,-208.353 L -35.6448,-207.923 L -36.0451,-207.439 L -36.3815,-206.909 L -36.6489,-206.341 L -36.8429,-205.743
 L -36.9606,-205.127 L -37,-204.5 L -37,-185.5 L -36.9606,-184.873 L -36.8429,-184.257 L -36.6489,-183.659
 L -36.3815,-183.091 L -36.0451,-182.561 L -35.6448,-182.077 L -35.1871,-181.647 L -34.6791,-181.278 L -34.1289,-180.976
 L -33.5451,-180.745 L -32.9369,-180.589 L -32.3139,-180.51 L 32.3139,-180.51 z
M -32.2432,-181.635 L -32.7256,-181.696 L -33.1967,-181.817 L -33.6489,-181.996 L -34.0751,-182.23 L -34.4685,-182.516
 L -34.823,-182.849 L -35.133,-183.224 L -35.3936,-183.634 L -35.6007,-184.074 L -35.751,-184.537 L -35.8421,-185.015
 L -35.8726,-185.5 L -35.8726,-204.5 L -35.8421,-204.985 L -35.751,-205.463 L -35.6007,-205.926 L -35.3936,-206.366
 L -35.133,-206.776 L -34.823,-207.151 L -34.4685,-207.484 L -34.0751,-207.77 L -33.6489,-208.004 L -33.1967,-208.183
 L -32.7256,-208.304 L -32.2432,-208.365 L 32.2432,-208.365 L 32.7256,-208.304 L 33.1967,-208.183 L 33.6489,-208.004
 L 34.0751,-207.77 L 34.4685,-207.484 L 34.823,-207.151 L 35.133,-206.776 L 35.3936,-206.366 L 35.6007,-205.926
 L 35.751,-205.463 L 35.8421,-204.985 L 35.8726,-204.5 L 35.8726,-185.5 L 35.8421,-185.015 L 35.751,-184.537
 L 35.6007,-184.074 L 35.3936,-183.634 L 35.133,-183.224 L 34.823,-182.849 L 34.4685,-182.516 L 34.0751,-182.23
 L 33.6489,-181.996 L 33.1967,-181.817 L 32.7256,-181.696 L 32.2432,-181.635 z
M 32.9369,-141.589 L 33.5451,-141.745 L 34.1289,-141.976 L 34.6791,-142.278 L 35.1871,-142.647 L 35.6448,-143.077
 L 36.0451,-143.561 L 36.3815,-144.091 L 36.6489,-144.659 L 36.8429,-145.257 L 36.9606,-145.873 L 37,-146.5
 L 37,-165.5 L 36.9606,-166.127 L 36.8429,-166.743 L 36.6489,-167.341 L 36.3815,-167.909 L 36.0451,-168.439
 L 35.6448,-168.923 L 35.1871,-169.353 L 34.6791,-169.722 L 34.1289,-170.024 L 33.5451,-170.255 L 32.9369,-170.411
 L 32.3139,-170.49 L -32.3139,-170.49 L -32.9369,-170.411 L -33.5451,-170.255 L -34.1289,-170.024 L -34.6791,-169.722
 L -35.1871,-169.353 L -35.6448,-168.923 L -36.0451,-168.439 L -36.3815,-167.909 L -36.6489,-167.341 L -36.8429,-166.743
 L -36.9606,-166.127 L -37,-165.5 L -37,-146.5 L -36.9606,-145.873 L -36.8429,-145.257 L -36.6489,-144.659
 L -36.3815,-144.091 L -36.0451,-143.561 L -35.6448,-143.077 L -35.1871,-142.647 L -34.6791,-142.278 L -34.1289,-141.976
 L -33.5451,-141.745 L -32.9369,-141.589 L -32.3139,-141.51 L 32.3139,-141.51 z
M 32.9369,-102.589 L 33.5451,-102.745 L 34.1289,-102.976 L 34.6791,-103.278 L 35.1871,-103.647 L 35.6448,-104.077
 L 36.0451,-104.561 L 36.3815,-105.091 L 36.6489,-105.659 L 36.8429,-106.257 L 36.9606,-106.873 L 37,-107.5
 L 37,-126.5 L 36.9606,-127.127 L 36.8429,-127.743 L 36.6489,-128.341 L 36.3815,-128.909 L 36.0451,-129.439
 L 35.6448,-129.923 L 35.1871,-130.353 L 34.6791,-130.722 L 34.1289,-131.024 L 33.5451,-131.255 L 32.9369,-131.411
 L 32.3139,-131.49 L -32.3139,-131.49 L -32.9369,-131.411 L -33.5451,-131.255 L -34.1289,-131.024 L -34.6791,-130.722
 L -35.1871,-130.353 L -35.6448,-129.923 L -36.0451,-129.439 L -36.3815,-128.909 L -36.6489,-128.341 L -36.8429,-127.743
 L -36.9606,-127.127 L -37,-126.5 L -37,-107.5 L -36.9606,-106.873 L -36.8429,-106.257 L -36.6489,-105.659
 L -36.3815,-105.091 L -36.0451,-104.561 L -35.6448,-104.077 L -35.1871,-103.647 L -34.6791,-103.278 L -34.1289,-102.976
 L -33.5451,-102.745 L -32.9369,-102.589 L -32.3139,-102.51 L 32.3139,-102.51 z
M 29.8493,-122.105 L 29.5503,-122.143 L 29.2583,-122.217 L 28.9781,-122.328 L 28.714,-122.474 L 28.4702,-122.651
 L 28.2505,-122.857 L 28.0583,-123.089 L 27.8969,-123.344 L 27.7685,-123.617 L 27.6754,-123.903 L 27.6189,-124.199
 L 27.6,-124.5 L 27.6189,-124.801 L 27.6754,-125.097 L 27.7685,-125.383 L 27.8969,-125.656 L 28.0583,-125.911
 L 28.2505,-126.143 L 28.4702,-126.349 L 28.714,-126.526 L 28.9781,-126.672 L 29.2583,-126.783 L 29.5503,-126.857
 L 29.8493,-126.895 L 30.1507,-126.895 L 30.4497,-126.857 L 30.7416,-126.783 L 31.0219,-126.672 L 31.286,-126.526
 L 31.5298,-126.349 L 31.7495,-126.143 L 31.9416,-125.911 L 32.1031,-125.656 L 32.2315,-125.383 L 32.3246,-125.097
 L 32.3811,-124.801 L 32.4,-124.5 L 32.3811,-124.199 L 32.3246,-123.903 L 32.2315,-123.617 L 32.1031,-123.344
 L 31.9416,-123.089 L 31.7495,-122.857 L 31.5298,-122.651 L 31.286,-122.474 L 31.0219,-122.328 L 30.7416,-122.217
 L 30.4497,-122.143 L 30.1507,-122.105 z
M -30.1507,-122.105 L -30.4497,-122.143 L -30.7416,-122.217 L -31.0219,-122.328 L -31.286,-122.474 L -31.5298,-122.651
 L -31.7495,-122.857 L -31.9416,-123.089 L -32.1031,-123.344 L -32.2315,-123.617 L -32.3246,-123.903 L -32.3811,-124.199
 L -32.4,-124.5 L -32.3811,-124.801 L -32.3246,-125.097 L -32.2315,-125.383 L -32.1031,-125.656 L -31.9416,-125.911
 L -31.7495,-126.143 L -31.5298,-126.349 L -31.286,-126.526 L -31.0219,-126.672 L -30.7416,-126.783 L -30.4497,-126.857
 L -30.1507,-126.895 L -29.8493,-126.895 L -29.5503,-126.857 L -29.2583,-126.783 L -28.9781,-126.672 L -28.714,-126.526
 L -28.4702,-126.349 L -28.2505,-126.143 L -28.0583,-125.911 L -27.8969,-125.656 L -27.7685,-125.383 L -27.6754,-125.097
 L -27.6189,-124.801 L -27.6,-124.5 L -27.6189,-124.199 L -27.6754,-123.903 L -27.7685,-123.617 L -27.8969,-123.344
 L -28.0583,-123.089 L -28.2505,-122.857 L -28.4702,-122.651 L -28.714,-122.474 L -28.9781,-122.328 L -29.2583,-122.217
 L -29.5503,-122.143 L -29.8493,-122.105 z
M -30.1507,-107.105 L -30.4497,-107.143 L -30.7416,-107.217 L -31.0219,-107.328 L -31.286,-107.474 L -31.5298,-107.651
 L -31.7495,-107.857 L -31.9416,-108.089 L -32.1031,-108.344 L -32.2315,-108.617 L -32.3246,-108.903 L -32.3811,-109.199
 L -32.4,-109.5 L -32.3811,-109.801 L -32.3246,-110.097 L -32.2315,-110.383 L -32.1031,-110.656 L -31.9416,-110.911
 L -31.7495,-111.143 L -31.5298,-111.349 L -31.286,-111.526 L -31.0219,-111.672 L -30.7416,-111.783 L -30.4497,-111.857
 L -30.1507,-111.895 L -29.8493,-111.895 L -29.5503,-111.857 L -29.2583,-111.783 L -28.9781,-111.672 L -28.714,-111.526
 L -28.4702,-111.349 L -28.2505,-111.143 L -28.0583,-110.911 L -27.8969,-110.656 L -27.7685,-110.383 L -27.6754,-110.097
 L -27.6189,-109.801 L -27.6,-109.5 L -27.6189,-109.199 L -27.6754,-108.903 L -27.7685,-108.617 L -27.8969,-108.344
 L -28.0583,-108.089 L -28.2505,-107.857 L -28.4702,-107.651 L -28.714,-107.474 L -28.9781,-107.328 L -29.2583,-107.217
 L -29.5503,-107.143 L -29.8493,-107.105 z
M 29.8493,-107.105 L 29.5503,-107.143 L 29.2583,-107.217 L 28.9781,-107.328 L 28.714,-107.474 L 28.4702,-107.651
 L 28.2505,-107.857 L 28.0583,-108.089 L 27.8969,-108.344 L 27.7685,-108.617 L 27.6754,-108.903 L 27.6189,-109.199
 L 27.6,-109.5 L 27.6189,-109.801 L 27.6754,-110.097 L 27.7685,-110.383 L 27.8969,-110.656 L 28.0583,-110.911
 L 28.2505,-111.143 L 28.4702,-111.349 L 28.714,-111.526 L 28.9781,-111.672 L 29.2583,-111.783 L 29.5503,-111.857
 L 29.8493,-111.895 L 30.1507,-111.895 L 30.4497,-111.857 L 30.7416,-111.783 L 31.0219,-111.672 L 31.286,-111.526
 L 31.5298,-111.349 L 31.7495,-111.143 L 31.9416,-110.911 L 32.1031,-110.656 L 32.2315,-110.383 L 32.3246,-110.097
 L 32.3811,-109.801 L 32.4,-109.5 L 32.3811,-109.199 L 32.3246,-108.903 L 32.2315,-108.617 L 32.1031,-108.344
 L 31.9416,-108.089 L 31.7495,-107.857 L 31.5298,-107.651 L 31.286,-107.474 L 31.0219,-107.328 L 30.7416,-107.217
 L 30.4497,-107.143 L 30.1507,-107.105 z
" stroke="black" fill="lightgray" stroke-width="0.5"/>
</svg>
