  0
SECTION
  2
BLOCKS
  0
ENDSEC
  0
SECTION
  2
ENTITIES
  0
LINE
  8
0
 10
-6
 20
466.007
 11
-5.64484
 21
465.577
  0
LINE
  8
0
 10
-5.64484
 20
465.577
 11
-5.18712
 21
465.147
  0
LINE
  8
0
 10
-5.18712
 20
465.147
 11
-4.67912
 21
464.778
  0
LINE
  8
0
 10
-4.67912
 20
464.778
 11
-4.12889
 21
464.476
  0
LINE
  8
0
 10
-4.12889
 20
464.476
 11
-3.54507
 21
464.245
  0
LINE
  8
0
 10
-3.54507
 20
464.245
 11
-2.9369
 21
464.089
  0
LINE
  8
0
 10
-2.9369
 20
464.089
 11
-2.31395
 21
464.01
  0
LINE
  8
0
 10
-2.31395
 20
464.01
 11
2.31395
 21
464.01
  0
LINE
  8
0
 10
2.31395
 20
464.01
 11
2.9369
 21
464.089
  0
LINE
  8
0
 10
2.9369
 20
464.089
 11
3.54507
 21
464.245
  0
LINE
  8
0
 10
3.54507
 20
464.245
 11
4.12889
 21
464.476
  0
LINE
  8
0
 10
4.12889
 20
464.476
 11
4.67912
 21
464.778
  0
LINE
  8
0
 10
4.67912
 20
464.778
 11
5.18712
 21
465.147
  0
LINE
  8
0
 10
5.18712
 20
465.147
 11
5.64484
 21
465.577
  0
LINE
  8
0
 10
5.64484
 20
465.577
 11
6.04507
 21
466.061
  0
LINE
  8
0
 10
6.04507
 20
466.061
 11
6.38153
 21
466.591
  0
LINE
  8
0
 10
6.38153
 20
466.591
 11
6.64888
 21
467.159
  0
LINE
  8
0
 10
6.64888
 20
467.159
 11
6.84291
 21
467.757
  0
LINE
  8
0
 10
6.84291
 20
467.757
 11
6.96057
 21
468.373
  0
LINE
  8
0
 10
6.96057
 20
468.373
 11
7
 21
469
  0
LINE
  8
0
 10
7
 20
469
 11
7
 21
503
  0
LINE
  8
0
 10
7
 20
503
 11
6.96057
 21
503.627
  0
LINE
  8
0
 10
6.96057
 20
503.627
 11
6.84291
 21
504.243
  0
LINE
  8
0
 10
6.84291
 20
504.243
 11
6.64888
 21
504.841
  0
LINE
  8
0
 10
6.64888
 20
504.841
 11
6.38153
 21
505.409
  0
LINE
  8
0
 10
6.38153
 20
505.409
 11
6.04507
 21
505.939
  0
LINE
  8
0
 10
6.04507
 20
505.939
 11
5.64484
 21
506.423
  0
LINE
  8
0
 10
5.64484
 20
506.423
 11
5.18712
 21
506.853
  0
LINE
  8
0
 10
5.18712
 20
506.853
 11
4.67912
 21
507.222
  0
LINE
  8
0
 10
4.67912
 20
507.222
 11
4.12889
 21
507.524
  0
LINE
  8
0
 10
4.12889
 20
507.524
 11
3.54507
 21
507.755
  0
LINE
  8
0
 10
3.54507
 20
507.755
 11
2.9369
 21
507.911
  0
LINE
  8
0
 10
2.9369
 20
507.911
 11
2.31395
 21
507.99
  0
LINE
  8
0
 10
2.31395
 20
507.99
 11
-2.31395
 21
507.99
  0
LINE
  8
0
 10
-2.31395
 20
507.99
 11
-2.9369
 21
507.911
  0
LINE
  8
0
 10
-2.9369
 20
507.911
 11
-3.54507
 21
507.755
  0
LINE
  8
0
 10
-3.54507
 20
507.755
 11
-4.12889
 21
507.524
  0
LINE
  8
0
 10
-4.12889
 20
507.524
 11
-4.67912
 21
507.222
  0
LINE
  8
0
 10
-4.67912
 20
507.222
 11
-5.18712
 21
506.853
  0
LINE
  8
0
 10
-5.18712
 20
506.853
 11
-5.64484
 21
506.423
  0
LINE
  8
0
 10
-5.64484
 20
506.423
 11
-6
 21
505.993
  0
LINE
  8
0
 10
-6
 20
505.993
 11
-6
 21
508.49
  0
LINE
  8
0
 10
-6
 20
508.49
 11
-9
 21
508.49
  0
LINE
  8
0
 10
-9
 20
508.49
 11
-9
 21
463.51
  0
LINE
  8
0
 10
-9
 20
463.51
 11
-6
 21
463.51
  0
LINE
  8
0
 10
-6
 20
463.51
 11
-6
 21
466.007
  0
LINE
  8
0
 10
-2.25116
 20
465.008
 11
-2.74951
 21
465.071
  0
LINE
  8
0
 10
-2.74951
 20
465.071
 11
-3.23605
 21
465.196
  0
LINE
  8
0
 10
-3.23605
 20
465.196
 11
-3.70311
 21
465.381
  0
LINE
  8
0
 10
-3.70311
 20
465.381
 11
-4.1433
 21
465.623
  0
LINE
  8
0
 10
-4.1433
 20
465.623
 11
-4.54968
 21
465.918
  0
LINE
  8
0
 10
-4.54968
 20
465.918
 11
-4.91586
 21
466.262
  0
LINE
  8
0
 10
-4.91586
 20
466.262
 11
-5.23605
 21
466.649
  0
LINE
  8
0
 10
-5.23605
 20
466.649
 11
-5.50522
 21
467.073
  0
LINE
  8
0
 10
-5.50522
 20
467.073
 11
-5.7191
 21
467.528
  0
LINE
  8
0
 10
-5.7191
 20
467.528
 11
-5.87433
 21
468.005
  0
LINE
  8
0
 10
-5.87433
 20
468.005
 11
-5.96844
 21
468.499
  0
LINE
  8
0
 10
-5.96844
 20
468.499
 11
-6
 21
469
  0
LINE
  8
0
 10
-6
 20
469
 11
-6
 21
503
  0
LINE
  8
0
 10
-6
 20
503
 11
-5.96844
 21
503.501
  0
LINE
  8
0
 10
-5.96844
 20
503.501
 11
-5.87433
 21
503.995
  0
LINE
  8
0
 10
-5.87433
 20
503.995
 11
-5.7191
 21
504.472
  0
LINE
  8
0
 10
-5.7191
 20
504.472
 11
-5.50522
 21
504.927
  0
LINE
  8
0
 10
-5.50522
 20
504.927
 11
-5.23605
 21
505.351
  0
LINE
  8
0
 10
-5.23605
 20
505.351
 11
-4.91586
 21
505.738
  0
LINE
  8
0
 10
-4.91586
 20
505.738
 11
-4.54968
 21
506.082
  0
LINE
  8
0
 10
-4.54968
 20
506.082
 11
-4.1433
 21
506.377
  0
LINE
  8
0
 10
-4.1433
 20
506.377
 11
-3.70311
 21
506.619
  0
LINE
  8
0
 10
-3.70311
 20
506.619
 11
-3.23605
 21
506.804
  0
LINE
  8
0
 10
-3.23605
 20
506.804
 11
-2.74951
 21
506.929
  0
LINE
  8
0
 10
-2.74951
 20
506.929
 11
-2.25116
 21
506.992
  0
LINE
  8
0
 10
-2.25116
 20
506.992
 11
2.25116
 21
506.992
  0
LINE
  8
0
 10
2.25116
 20
506.992
 11
2.74951
 21
506.929
  0
LINE
  8
0
 10
2.74951
 20
506.929
 11
3.23605
 21
506.804
  0
LINE
  8
0
 10
3.23605
 20
506.804
 11
3.70311
 21
506.619
  0
LINE
  8
0
 10
3.70311
 20
506.619
 11
4.1433
 21
506.377
  0
LINE
  8
0
 10
4.1433
 20
506.377
 11
4.54968
 21
506.082
  0
LINE
  8
0
 10
4.54968
 20
506.082
 11
4.91586
 21
505.738
  0
LINE
  8
0
 10
4.91586
 20
505.738
 11
5.23605
 21
505.351
  0
LINE
  8
0
 10
5.23605
 20
505.351
 11
5.50522
 21
504.927
  0
LINE
  8
0
 10
5.50522
 20
504.927
 11
5.7191
 21
504.472
  0
LINE
  8
0
 10
5.7191
 20
504.472
 11
5.87433
 21
503.995
  0
LINE
  8
0
 10
5.87433
 20
503.995
 11
5.96844
 21
503.501
  0
LINE
  8
0
 10
5.96844
 20
503.501
 11
6
 21
503
  0
LINE
  8
0
 10
6
 20
503
 11
6
 21
469
  0
LINE
  8
0
 10
6
 20
469
 11
5.96844
 21
468.499
  0
LINE
  8
0
 10
5.96844
 20
468.499
 11
5.87433
 21
468.005
  0
LINE
  8
0
 10
5.87433
 20
468.005
 11
5.7191
 21
467.528
  0
LINE
  8
0
 10
5.7191
 20
467.528
 11
5.50522
 21
467.073
  0
LINE
  8
0
 10
5.50522
 20
467.073
 11
5.23605
 21
466.649
  0
LINE
  8
0
 10
5.23605
 20
466.649
 11
4.91586
 21
466.262
  0
LINE
  8
0
 10
4.91586
 20
466.262
 11
4.54968
 21
465.918
  0
LINE
  8
0
 10
4.54968
 20
465.918
 11
4.1433
 21
465.623
  0
LINE
  8
0
 10
4.1433
 20
465.623
 11
3.70311
 21
465.381
  0
LINE
  8
0
 10
3.70311
 20
465.381
 11
3.23605
 21
465.196
  0
LINE
  8
0
 10
3.23605
 20
465.196
 11
2.74951
 21
465.071
  0
LINE
  8
0
 10
2.74951
 20
465.071
 11
2.25116
 21
465.008
  0
LINE
  8
0
 10
2.25116
 20
465.008
 11
-2.25116
 21
465.008
  0
LINE
  8
0
 10
-6
 20
412.007
 11
-5.64484
 21
411.577
  0
LINE
  8
0
 10
-5.64484
 20
411.577
 11
-5.18712
 21
411.147
  0
LINE
  8
0
 10
-5.18712
 20
411.147
 11
-4.67912
 21
410.778
  0
LINE
  8
0
 10
-4.67912
 20
410.778
 11
-4.12889
 21
410.476
  0
LINE
  8
0
 10
-4.12889
 20
410.476
 11
-3.54507
 21
410.245
  0
LINE
  8
0
 10
-3.54507
 20
410.245
 11
-2.9369
 21
410.089
  0
LINE
  8
0
 10
-2.9369
 20
410.089
 11
-2.31395
 21
410.01
  0
LINE
  8
0
 10
-2.31395
 20
410.01
 11
2.31395
 21
410.01
  0
LINE
  8
0
 10
2.31395
 20
410.01
 11
2.9369
 21
410.089
  0
LINE
  8
0
 10
2.9369
 20
410.089
 11
3.54507
 21
410.245
  0
LINE
  8
0
 10
3.54507
 20
410.245
 11
4.12889
 21
410.476
  0
LINE
  8
0
 10
4.12889
 20
410.476
 11
4.67912
 21
410.778
  0
LINE
  8
0
 10
4.67912
 20
410.778
 11
5.18712
 21
411.147
  0
LINE
  8
0
 10
5.18712
 20
411.147
 11
5.64484
 21
411.577
  0
LINE
  8
0
 10
5.64484
 20
411.577
 11
6.04507
 21
412.061
  0
LINE
  8
0
 10
6.04507
 20
412.061
 11
6.38153
 21
412.591
  0
LINE
  8
0
 10
6.38153
 20
412.591
 11
6.64888
 21
413.159
  0
LINE
  8
0
 10
6.64888
 20
413.159
 11
6.84291
 21
413.757
  0
LINE
  8
0
 10
6.84291
 20
413.757
 11
6.96057
 21
414.373
  0
LINE
  8
0
 10
6.96057
 20
414.373
 11
7
 21
415
  0
LINE
  8
0
 10
7
 20
415
 11
7
 21
449
  0
LINE
  8
0
 10
7
 20
449
 11
6.96057
 21
449.627
  0
LINE
  8
0
 10
6.96057
 20
449.627
 11
6.84291
 21
450.243
  0
LINE
  8
0
 10
6.84291
 20
450.243
 11
6.64888
 21
450.841
  0
LINE
  8
0
 10
6.64888
 20
450.841
 11
6.38153
 21
451.409
  0
LINE
  8
0
 10
6.38153
 20
451.409
 11
6.04507
 21
451.939
  0
LINE
  8
0
 10
6.04507
 20
451.939
 11
5.64484
 21
452.423
  0
LINE
  8
0
 10
5.64484
 20
452.423
 11
5.18712
 21
452.853
  0
LINE
  8
0
 10
5.18712
 20
452.853
 11
4.67912
 21
453.222
  0
LINE
  8
0
 10
4.67912
 20
453.222
 11
4.12889
 21
453.524
  0
LINE
  8
0
 10
4.12889
 20
453.524
 11
3.54507
 21
453.755
  0
LINE
  8
0
 10
3.54507
 20
453.755
 11
2.9369
 21
453.911
  0
LINE
  8
0
 10
2.9369
 20
453.911
 11
2.31395
 21
453.99
  0
LINE
  8
0
 10
2.31395
 20
453.99
 11
-2.31395
 21
453.99
  0
LINE
  8
0
 10
-2.31395
 20
453.99
 11
-2.9369
 21
453.911
  0
LINE
  8
0
 10
-2.9369
 20
453.911
 11
-3.54507
 21
453.755
  0
LINE
  8
0
 10
-3.54507
 20
453.755
 11
-4.12889
 21
453.524
  0
LINE
  8
0
 10
-4.12889
 20
453.524
 11
-4.67912
 21
453.222
  0
LINE
  8
0
 10
-4.67912
 20
453.222
 11
-5.18712
 21
452.853
  0
LINE
  8
0
 10
-5.18712
 20
452.853
 11
-5.64484
 21
452.423
  0
LINE
  8
0
 10
-5.64484
 20
452.423
 11
-6
 21
451.993
  0
LINE
  8
0
 10
-6
 20
451.993
 11
-6
 21
454.49
  0
LINE
  8
0
 10
-6
 20
454.49
 11
-9
 21
454.49
  0
LINE
  8
0
 10
-9
 20
454.49
 11
-9
 21
409.51
  0
LINE
  8
0
 10
-9
 20
409.51
 11
-6
 21
409.51
  0
LINE
  8
0
 10
-6
 20
409.51
 11
-6
 21
412.007
  0
LINE
  8
0
 10
-2.25116
 20
411.008
 11
-2.74951
 21
411.071
  0
LINE
  8
0
 10
-2.74951
 20
411.071
 11
-3.23605
 21
411.196
  0
LINE
  8
0
 10
-3.23605
 20
411.196
 11
-3.70311
 21
411.381
  0
LINE
  8
0
 10
-3.70311
 20
411.381
 11
-4.1433
 21
411.623
  0
LINE
  8
0
 10
-4.1433
 20
411.623
 11
-4.54968
 21
411.918
  0
LINE
  8
0
 10
-4.54968
 20
411.918
 11
-4.91586
 21
412.262
  0
LINE
  8
0
 10
-4.91586
 20
412.262
 11
-5.23605
 21
412.649
  0
LINE
  8
0
 10
-5.23605
 20
412.649
 11
-5.50522
 21
413.073
  0
LINE
  8
0
 10
-5.50522
 20
413.073
 11
-5.7191
 21
413.528
  0
LINE
  8
0
 10
-5.7191
 20
413.528
 11
-5.87433
 21
414.005
  0
LINE
  8
0
 10
-5.87433
 20
414.005
 11
-5.96844
 21
414.499
  0
LINE
  8
0
 10
-5.96844
 20
414.499
 11
-6
 21
415
  0
LINE
  8
0
 10
-6
 20
415
 11
-6
 21
449
  0
LINE
  8
0
 10
-6
 20
449
 11
-5.96844
 21
449.501
  0
LINE
  8
0
 10
-5.96844
 20
449.501
 11
-5.87433
 21
449.995
  0
LINE
  8
0
 10
-5.87433
 20
449.995
 11
-5.7191
 21
450.472
  0
LINE
  8
0
 10
-5.7191
 20
450.472
 11
-5.50522
 21
450.927
  0
LINE
  8
0
 10
-5.50522
 20
450.927
 11
-5.23605
 21
451.351
  0
LINE
  8
0
 10
-5.23605
 20
451.351
 11
-4.91586
 21
451.738
  0
LINE
  8
0
 10
-4.91586
 20
451.738
 11
-4.54968
 21
452.082
  0
LINE
  8
0
 10
-4.54968
 20
452.082
 11
-4.1433
 21
452.377
  0
LINE
  8
0
 10
-4.1433
 20
452.377
 11
-3.70311
 21
452.619
  0
LINE
  8
0
 10
-3.70311
 20
452.619
 11
-3.23605
 21
452.804
  0
LINE
  8
0
 10
-3.23605
 20
452.804
 11
-2.74951
 21
452.929
  0
LINE
  8
0
 10
-2.74951
 20
452.929
 11
-2.25116
 21
452.992
  0
LINE
  8
0
 10
-2.25116
 20
452.992
 11
2.25116
 21
452.992
  0
LINE
  8
0
 10
2.25116
 20
452.992
 11
2.74951
 21
452.929
  0
LINE
  8
0
 10
2.74951
 20
452.929
 11
3.23605
 21
452.804
  0
LINE
  8
0
 10
3.23605
 20
452.804
 11
3.70311
 21
452.619
  0
LINE
  8
0
 10
3.70311
 20
452.619
 11
4.1433
 21
452.377
  0
LINE
  8
0
 10
4.1433
 20
452.377
 11
4.54968
 21
452.082
  0
LINE
  8
0
 10
4.54968
 20
452.082
 11
4.91586
 21
451.738
  0
LINE
  8
0
 10
4.91586
 20
451.738
 11
5.23605
 21
451.351
  0
LINE
  8
0
 10
5.23605
 20
451.351
 11
5.50522
 21
450.927
  0
LINE
  8
0
 10
5.50522
 20
450.927
 11
5.7191
 21
450.472
  0
LINE
  8
0
 10
5.7191
 20
450.472
 11
5.87433
 21
449.995
  0
LINE
  8
0
 10
5.87433
 20
449.995
 11
5.96844
 21
449.501
  0
LINE
  8
0
 10
5.96844
 20
449.501
 11
6
 21
449
  0
LINE
  8
0
 10
6
 20
449
 11
6
 21
415
  0
LINE
  8
0
 10
6
 20
415
 11
5.96844
 21
414.499
  0
LINE
  8
0
 10
5.96844
 20
414.499
 11
5.87433
 21
414.005
  0
LINE
  8
0
 10
5.87433
 20
414.005
 11
5.7191
 21
413.528
  0
LINE
  8
0
 10
5.7191
 20
413.528
 11
5.50522
 21
413.073
  0
LINE
  8
0
 10
5.50522
 20
413.073
 11
5.23605
 21
412.649
  0
LINE
  8
0
 10
5.23605
 20
412.649
 11
4.91586
 21
412.262
  0
LINE
  8
0
 10
4.91586
 20
412.262
 11
4.54968
 21
411.918
  0
LINE
  8
0
 10
4.54968
 20
411.918
 11
4.1433
 21
411.623
  0
LINE
  8
0
 10
4.1433
 20
411.623
 11
3.70311
 21
411.381
  0
LINE
  8
0
 10
3.70311
 20
411.381
 11
3.23605
 21
411.196
  0
LINE
  8
0
 10
3.23605
 20
411.196
 11
2.74951
 21
411.071
  0
LINE
  8
0
 10
2.74951
 20
411.071
 11
2.25116
 21
411.008
  0
LINE
  8
0
 10
2.25116
 20
411.008
 11
-2.25116
 21
411.008
  0
LINE
  8
0
 10
-6
 20
358.007
 11
-5.64484
 21
357.577
  0
LINE
  8
0
 10
-5.64484
 20
357.577
 11
-5.18712
 21
357.147
  0
LINE
  8
0
 10
-5.18712
 20
357.147
 11
-4.67912
 21
356.778
  0
LINE
  8
0
 10
-4.67912
 20
356.778
 11
-4.12889
 21
356.476
  0
LINE
  8
0
 10
-4.12889
 20
356.476
 11
-3.54507
 21
356.245
  0
LINE
  8
0
 10
-3.54507
 20
356.245
 11
-2.9369
 21
356.089
  0
LINE
  8
0
 10
-2.9369
 20
356.089
 11
-2.31395
 21
356.01
  0
LINE
  8
0
 10
-2.31395
 20
356.01
 11
2.31395
 21
356.01
  0
LINE
  8
0
 10
2.31395
 20
356.01
 11
2.9369
 21
356.089
  0
LINE
  8
0
 10
2.9369
 20
356.089
 11
3.54507
 21
356.245
  0
LINE
  8
0
 10
3.54507
 20
356.245
 11
4.12889
 21
356.476
  0
LINE
  8
0
 10
4.12889
 20
356.476
 11
4.67912
 21
356.778
  0
LINE
  8
0
 10
4.67912
 20
356.778
 11
5.18712
 21
357.147
  0
LINE
  8
0
 10
5.18712
 20
357.147
 11
5.64484
 21
357.577
  0
LINE
  8
0
 10
5.64484
 20
357.577
 11
6.04507
 21
358.061
  0
LINE
  8
0
 10
6.04507
 20
358.061
 11
6.38153
 21
358.591
  0
LINE
  8
0
 10
6.38153
 20
358.591
 11
6.64888
 21
359.159
  0
LINE
  8
0
 10
6.64888
 20
359.159
 11
6.84291
 21
359.757
  0
LINE
  8
0
 10
6.84291
 20
359.757
 11
6.96057
 21
360.373
  0
LINE
  8
0
 10
6.96057
 20
360.373
 11
7
 21
361
  0
LINE
  8
0
 10
7
 20
361
 11
7
 21
395
  0
LINE
  8
0
 10
7
 20
395
 11
6.96057
 21
395.627
  0
LINE
  8
0
 10
6.96057
 20
395.627
 11
6.84291
 21
396.243
  0
LINE
  8
0
 10
6.84291
 20
396.243
 11
6.64888
 21
396.841
  0
LINE
  8
0
 10
6.64888
 20
396.841
 11
6.38153
 21
397.409
  0
LINE
  8
0
 10
6.38153
 20
397.409
 11
6.04507
 21
397.939
  0
LINE
  8
0
 10
6.04507
 20
397.939
 11
5.64484
 21
398.423
  0
LINE
  8
0
 10
5.64484
 20
398.423
 11
5.18712
 21
398.853
  0
LINE
  8
0
 10
5.18712
 20
398.853
 11
4.67912
 21
399.222
  0
LINE
  8
0
 10
4.67912
 20
399.222
 11
4.12889
 21
399.524
  0
LINE
  8
0
 10
4.12889
 20
399.524
 11
3.54507
 21
399.755
  0
LINE
  8
0
 10
3.54507
 20
399.755
 11
2.9369
 21
399.911
  0
LINE
  8
0
 10
2.9369
 20
399.911
 11
2.31395
 21
399.99
  0
LINE
  8
0
 10
2.31395
 20
399.99
 11
-2.31395
 21
399.99
  0
LINE
  8
0
 10
-2.31395
 20
399.99
 11
-2.9369
 21
399.911
  0
LINE
  8
0
 10
-2.9369
 20
399.911
 11
-3.54507
 21
399.755
  0
LINE
  8
0
 10
-3.54507
 20
399.755
 11
-4.12889
 21
399.524
  0
LINE
  8
0
 10
-4.12889
 20
399.524
 11
-4.67912
 21
399.222
  0
LINE
  8
0
 10
-4.67912
 20
399.222
 11
-5.18712
 21
398.853
  0
LINE
  8
0
 10
-5.18712
 20
398.853
 11
-5.64484
 21
398.423
  0
LINE
  8
0
 10
-5.64484
 20
398.423
 11
-6
 21
397.993
  0
LINE
  8
0
 10
-6
 20
397.993
 11
-6
 21
400.49
  0
LINE
  8
0
 10
-6
 20
400.49
 11
-9
 21
400.49
  0
LINE
  8
0
 10
-9
 20
400.49
 11
-9
 21
355.51
  0
LINE
  8
0
 10
-9
 20
355.51
 11
-6
 21
355.51
  0
LINE
  8
0
 10
-6
 20
355.51
 11
-6
 21
358.007
  0
LINE
  8
0
 10
-2.25116
 20
357.008
 11
-2.74951
 21
357.071
  0
LINE
  8
0
 10
-2.74951
 20
357.071
 11
-3.23605
 21
357.196
  0
LINE
  8
0
 10
-3.23605
 20
357.196
 11
-3.70311
 21
357.381
  0
LINE
  8
0
 10
-3.70311
 20
357.381
 11
-4.1433
 21
357.623
  0
LINE
  8
0
 10
-4.1433
 20
357.623
 11
-4.54968
 21
357.918
  0
LINE
  8
0
 10
-4.54968
 20
357.918
 11
-4.91586
 21
358.262
  0
LINE
  8
0
 10
-4.91586
 20
358.262
 11
-5.23605
 21
358.649
  0
LINE
  8
0
 10
-5.23605
 20
358.649
 11
-5.50522
 21
359.073
  0
LINE
  8
0
 10
-5.50522
 20
359.073
 11
-5.7191
 21
359.528
  0
LINE
  8
0
 10
-5.7191
 20
359.528
 11
-5.87433
 21
360.005
  0
LINE
  8
0
 10
-5.87433
 20
360.005
 11
-5.96844
 21
360.499
  0
LINE
  8
0
 10
-5.96844
 20
360.499
 11
-6
 21
361
  0
LINE
  8
0
 10
-6
 20
361
 11
-6
 21
395
  0
LINE
  8
0
 10
-6
 20
395
 11
-5.96844
 21
395.501
  0
LINE
  8
0
 10
-5.96844
 20
395.501
 11
-5.87433
 21
395.995
  0
LINE
  8
0
 10
-5.87433
 20
395.995
 11
-5.7191
 21
396.472
  0
LINE
  8
0
 10
-5.7191
 20
396.472
 11
-5.50522
 21
396.927
  0
LINE
  8
0
 10
-5.50522
 20
396.927
 11
-5.23605
 21
397.351
  0
LINE
  8
0
 10
-5.23605
 20
397.351
 11
-4.91586
 21
397.738
  0
LINE
  8
0
 10
-4.91586
 20
397.738
 11
-4.54968
 21
398.082
  0
LINE
  8
0
 10
-4.54968
 20
398.082
 11
-4.1433
 21
398.377
  0
LINE
  8
0
 10
-4.1433
 20
398.377
 11
-3.70311
 21
398.619
  0
LINE
  8
0
 10
-3.70311
 20
398.619
 11
-3.23605
 21
398.804
  0
LINE
  8
0
 10
-3.23605
 20
398.804
 11
-2.74951
 21
398.929
  0
LINE
  8
0
 10
-2.74951
 20
398.929
 11
-2.25116
 21
398.992
  0
LINE
  8
0
 10
-2.25116
 20
398.992
 11
2.25116
 21
398.992
  0
LINE
  8
0
 10
2.25116
 20
398.992
 11
2.74951
 21
398.929
  0
LINE
  8
0
 10
2.74951
 20
398.929
 11
3.23605
 21
398.804
  0
LINE
  8
0
 10
3.23605
 20
398.804
 11
3.70311
 21
398.619
  0
LINE
  8
0
 10
3.70311
 20
398.619
 11
4.1433
 21
398.377
  0
LINE
  8
0
 10
4.1433
 20
398.377
 11
4.54968
 21
398.082
  0
LINE
  8
0
 10
4.54968
 20
398.082
 11
4.91586
 21
397.738
  0
LINE
  8
0
 10
4.91586
 20
397.738
 11
5.23605
 21
397.351
  0
LINE
  8
0
 10
5.23605
 20
397.351
 11
5.50522
 21
396.927
  0
LINE
  8
0
 10
5.50522
 20
396.927
 11
5.7191
 21
396.472
  0
LINE
  8
0
 10
5.7191
 20
396.472
 11
5.87433
 21
395.995
  0
LINE
  8
0
 10
5.87433
 20
395.995
 11
5.96844
 21
395.501
  0
LINE
  8
0
 10
5.96844
 20
395.501
 11
6
 21
395
  0
LINE
  8
0
 10
6
 20
395
 11
6
 21
361
  0
LINE
  8
0
 10
6
 20
361
 11
5.96844
 21
360.499
  0
LINE
  8
0
 10
5.96844
 20
360.499
 11
5.87433
 21
360.005
  0
LINE
  8
0
 10
5.87433
 20
360.005
 11
5.7191
 21
359.528
  0
LINE
  8
0
 10
5.7191
 20
359.528
 11
5.50522
 21
359.073
  0
LINE
  8
0
 10
5.50522
 20
359.073
 11
5.23605
 21
358.649
  0
LINE
  8
0
 10
5.23605
 20
358.649
 11
4.91586
 21
358.262
  0
LINE
  8
0
 10
4.91586
 20
358.262
 11
4.54968
 21
357.918
  0
LINE
  8
0
 10
4.54968
 20
357.918
 11
4.1433
 21
357.623
  0
LINE
  8
0
 10
4.1433
 20
357.623
 11
3.70311
 21
357.381
  0
LINE
  8
0
 10
3.70311
 20
357.381
 11
3.23605
 21
357.196
  0
LINE
  8
0
 10
3.23605
 20
357.196
 11
2.74951
 21
357.071
  0
LINE
  8
0
 10
2.74951
 20
357.071
 11
2.25116
 21
357.008
  0
LINE
  8
0
 10
2.25116
 20
357.008
 11
-2.25116
 21
357.008
  0
LINE
  8
0
 10
-6
 20
304.007
 11
-5.64484
 21
303.577
  0
LINE
  8
0
 10
-5.64484
 20
303.577
 11
-5.18712
 21
303.147
  0
LINE
  8
0
 10
-5.18712
 20
303.147
 11
-4.67912
 21
302.778
  0
LINE
  8
0
 10
-4.67912
 20
302.778
 11
-4.12889
 21
302.476
  0
LINE
  8
0
 10
-4.12889
 20
302.476
 11
-3.54507
 21
302.245
  0
LINE
  8
0
 10
-3.54507
 20
302.245
 11
-2.9369
 21
302.089
  0
LINE
  8
0
 10
-2.9369
 20
302.089
 11
-2.31395
 21
302.01
  0
LINE
  8
0
 10
-2.31395
 20
302.01
 11
2.31395
 21
302.01
  0
LINE
  8
0
 10
2.31395
 20
302.01
 11
2.9369
 21
302.089
  0
LINE
  8
0
 10
2.9369
 20
302.089
 11
3.54507
 21
302.245
  0
LINE
  8
0
 10
3.54507
 20
302.245
 11
4.12889
 21
302.476
  0
LINE
  8
0
 10
4.12889
 20
302.476
 11
4.67912
 21
302.778
  0
LINE
  8
0
 10
4.67912
 20
302.778
 11
5.18712
 21
303.147
  0
LINE
  8
0
 10
5.18712
 20
303.147
 11
5.64484
 21
303.577
  0
LINE
  8
0
 10
5.64484
 20
303.577
 11
6.04507
 21
304.061
  0
LINE
  8
0
 10
6.04507
 20
304.061
 11
6.38153
 21
304.591
  0
LINE
  8
0
 10
6.38153
 20
304.591
 11
6.64888
 21
305.159
  0
LINE
  8
0
 10
6.64888
 20
305.159
 11
6.84291
 21
305.757
  0
LINE
  8
0
 10
6.84291
 20
305.757
 11
6.96057
 21
306.373
  0
LINE
  8
0
 10
6.96057
 20
306.373
 11
7
 21
307
  0
LINE
  8
0
 10
7
 20
307
 11
7
 21
341
  0
LINE
  8
0
 10
7
 20
341
 11
6.96057
 21
341.627
  0
LINE
  8
0
 10
6.96057
 20
341.627
 11
6.84291
 21
342.243
  0
LINE
  8
0
 10
6.84291
 20
342.243
 11
6.64888
 21
342.841
  0
LINE
  8
0
 10
6.64888
 20
342.841
 11
6.38153
 21
343.409
  0
LINE
  8
0
 10
6.38153
 20
343.409
 11
6.04507
 21
343.939
  0
LINE
  8
0
 10
6.04507
 20
343.939
 11
5.64484
 21
344.423
  0
LINE
  8
0
 10
5.64484
 20
344.423
 11
5.18712
 21
344.853
  0
LINE
  8
0
 10
5.18712
 20
344.853
 11
4.67912
 21
345.222
  0
LINE
  8
0
 10
4.67912
 20
345.222
 11
4.12889
 21
345.524
  0
LINE
  8
0
 10
4.12889
 20
345.524
 11
3.54507
 21
345.755
  0
LINE
  8
0
 10
3.54507
 20
345.755
 11
2.9369
 21
345.911
  0
LINE
  8
0
 10
2.9369
 20
345.911
 11
2.31395
 21
345.99
  0
LINE
  8
0
 10
2.31395
 20
345.99
 11
-2.31395
 21
345.99
  0
LINE
  8
0
 10
-2.31395
 20
345.99
 11
-2.9369
 21
345.911
  0
LINE
  8
0
 10
-2.9369
 20
345.911
 11
-3.54507
 21
345.755
  0
LINE
  8
0
 10
-3.54507
 20
345.755
 11
-4.12889
 21
345.524
  0
LINE
  8
0
 10
-4.12889
 20
345.524
 11
-4.67912
 21
345.222
  0
LINE
  8
0
 10
-4.67912
 20
345.222
 11
-5.18712
 21
344.853
  0
LINE
  8
0
 10
-5.18712
 20
344.853
 11
-5.64484
 21
344.423
  0
LINE
  8
0
 10
-5.64484
 20
344.423
 11
-6
 21
343.993
  0
LINE
  8
0
 10
-6
 20
343.993
 11
-6
 21
346.479
  0
LINE
  8
0
 10
-6
 20
346.479
 11
-9
 21
346.479
  0
LINE
  8
0
 10
-9
 20
346.479
 11
-9
 21
301.521
  0
LINE
  8
0
 10
-9
 20
301.521
 11
-6
 21
301.521
  0
LINE
  8
0
 10
-6
 20
301.521
 11
-6
 21
304.007
  0
LINE
  8
0
 10
-2.19545
 20
303.893
 11
-2.5833
 21
303.942
  0
LINE
  8
0
 10
-2.5833
 20
303.942
 11
-2.96194
 21
304.039
  0
LINE
  8
0
 10
-2.96194
 20
304.039
 11
-3.32541
 21
304.183
  0
LINE
  8
0
 10
-3.32541
 20
304.183
 11
-3.66798
 21
304.372
  0
LINE
  8
0
 10
-3.66798
 20
304.372
 11
-3.98424
 21
304.601
  0
LINE
  8
0
 10
-3.98424
 20
304.601
 11
-4.26921
 21
304.869
  0
LINE
  8
0
 10
-4.26921
 20
304.869
 11
-4.5184
 21
305.17
  0
LINE
  8
0
 10
-4.5184
 20
305.17
 11
-4.72786
 21
305.5
  0
LINE
  8
0
 10
-4.72786
 20
305.5
 11
-4.89432
 21
305.854
  0
LINE
  8
0
 10
-4.89432
 20
305.854
 11
-5.01512
 21
306.226
  0
LINE
  8
0
 10
-5.01512
 20
306.226
 11
-5.08836
 21
306.61
  0
LINE
  8
0
 10
-5.08836
 20
306.61
 11
-5.11292
 21
307
  0
LINE
  8
0
 10
-5.11292
 20
307
 11
-5.11292
 21
341
  0
LINE
  8
0
 10
-5.11292
 20
341
 11
-5.08836
 21
341.39
  0
LINE
  8
0
 10
-5.08836
 20
341.39
 11
-5.01512
 21
341.774
  0
LINE
  8
0
 10
-5.01512
 20
341.774
 11
-4.89432
 21
342.146
  0
LINE
  8
0
 10
-4.89432
 20
342.146
 11
-4.72786
 21
342.5
  0
LINE
  8
0
 10
-4.72786
 20
342.5
 11
-4.5184
 21
342.83
  0
LINE
  8
0
 10
-4.5184
 20
342.83
 11
-4.26921
 21
343.131
  0
LINE
  8
0
 10
-4.26921
 20
343.131
 11
-3.98424
 21
343.399
  0
LINE
  8
0
 10
-3.98424
 20
343.399
 11
-3.66798
 21
343.628
  0
LINE
  8
0
 10
-3.66798
 20
343.628
 11
-3.32541
 21
343.817
  0
LINE
  8
0
 10
-3.32541
 20
343.817
 11
-2.96194
 21
343.961
  0
LINE
  8
0
 10
-2.96194
 20
343.961
 11
-2.5833
 21
344.058
  0
LINE
  8
0
 10
-2.5833
 20
344.058
 11
-2.19545
 21
344.107
  0
LINE
  8
0
 10
-2.19545
 20
344.107
 11
2.19545
 21
344.107
  0
LINE
  8
0
 10
2.19545
 20
344.107
 11
2.5833
 21
344.058
  0
LINE
  8
0
 10
2.5833
 20
344.058
 11
2.96194
 21
343.961
  0
LINE
  8
0
 10
2.96194
 20
343.961
 11
3.32541
 21
343.817
  0
LINE
  8
0
 10
3.32541
 20
343.817
 11
3.66798
 21
343.628
  0
LINE
  8
0
 10
3.66798
 20
343.628
 11
3.98424
 21
343.399
  0
LINE
  8
0
 10
3.98424
 20
343.399
 11
4.26921
 21
343.131
  0
LINE
  8
0
 10
4.26921
 20
343.131
 11
4.5184
 21
342.83
  0
LINE
  8
0
 10
4.5184
 20
342.83
 11
4.72786
 21
342.5
  0
LINE
  8
0
 10
4.72786
 20
342.5
 11
4.89432
 21
342.146
  0
LINE
  8
0
 10
4.89432
 20
342.146
 11
5.01512
 21
341.774
  0
LINE
  8
0
 10
5.01512
 20
341.774
 11
5.08836
 21
341.39
  0
LINE
  8
0
 10
5.08836
 20
341.39
 11
5.11292
 21
341
  0
LINE
  8
0
 10
5.11292
 20
341
 11
5.11292
 21
307
  0
LINE
  8
0
 10
5.11292
 20
307
 11
5.08836
 21
306.61
  0
LINE
  8
0
 10
5.08836
 20
306.61
 11
5.01512
 21
306.226
  0
LINE
  8
0
 10
5.01512
 20
306.226
 11
4.89432
 21
305.854
  0
LINE
  8
0
 10
4.89432
 20
305.854
 11
4.72786
 21
305.5
  0
LINE
  8
0
 10
4.72786
 20
305.5
 11
4.5184
 21
305.17
  0
LINE
  8
0
 10
4.5184
 20
305.17
 11
4.26921
 21
304.869
  0
LINE
  8
0
 10
4.26921
 20
304.869
 11
3.98424
 21
304.601
  0
LINE
  8
0
 10
3.98424
 20
304.601
 11
3.66798
 21
304.372
  0
LINE
  8
0
 10
3.66798
 20
304.372
 11
3.32541
 21
304.183
  0
LINE
  8
0
 10
3.32541
 20
304.183
 11
2.96194
 21
304.039
  0
LINE
  8
0
 10
2.96194
 20
304.039
 11
2.5833
 21
303.942
  0
LINE
  8
0
 10
2.5833
 20
303.942
 11
2.19545
 21
303.893
  0
LINE
  8
0
 10
2.19545
 20
303.893
 11
-2.19545
 21
303.893
  0
LINE
  8
0
 10
2.9369
 20
248.089
 11
3.54507
 21
248.245
  0
LINE
  8
0
 10
3.54507
 20
248.245
 11
4.12889
 21
248.476
  0
LINE
  8
0
 10
4.12889
 20
248.476
 11
4.67912
 21
248.778
  0
LINE
  8
0
 10
4.67912
 20
248.778
 11
5.18712
 21
249.147
  0
LINE
  8
0
 10
5.18712
 20
249.147
 11
5.64484
 21
249.577
  0
LINE
  8
0
 10
5.64484
 20
249.577
 11
6.04507
 21
250.061
  0
LINE
  8
0
 10
6.04507
 20
250.061
 11
6.38153
 21
250.591
  0
LINE
  8
0
 10
6.38153
 20
250.591
 11
6.64888
 21
251.159
  0
LINE
  8
0
 10
6.64888
 20
251.159
 11
6.84291
 21
251.757
  0
LINE
  8
0
 10
6.84291
 20
251.757
 11
6.96057
 21
252.373
  0
LINE
  8
0
 10
6.96057
 20
252.373
 11
7
 21
253
  0
LINE
  8
0
 10
7
 20
253
 11
7
 21
287
  0
LINE
  8
0
 10
7
 20
287
 11
6.96057
 21
287.627
  0
LINE
  8
0
 10
6.96057
 20
287.627
 11
6.84291
 21
288.243
  0
LINE
  8
0
 10
6.84291
 20
288.243
 11
6.64888
 21
288.841
  0
LINE
  8
0
 10
6.64888
 20
288.841
 11
6.38153
 21
289.409
  0
LINE
  8
0
 10
6.38153
 20
289.409
 11
6.04507
 21
289.939
  0
LINE
  8
0
 10
6.04507
 20
289.939
 11
5.64484
 21
290.423
  0
LINE
  8
0
 10
5.64484
 20
290.423
 11
5.18712
 21
290.853
  0
LINE
  8
0
 10
5.18712
 20
290.853
 11
4.67912
 21
291.222
  0
LINE
  8
0
 10
4.67912
 20
291.222
 11
4.12889
 21
291.524
  0
LINE
  8
0
 10
4.12889
 20
291.524
 11
3.54507
 21
291.755
  0
LINE
  8
0
 10
3.54507
 20
291.755
 11
2.9369
 21
291.911
  0
LINE
  8
0
 10
2.9369
 20
291.911
 11
2.31395
 21
291.99
  0
LINE
  8
0
 10
2.31395
 20
291.99
 11
-2.31395
 21
291.99
  0
LINE
  8
0
 10
-2.31395
 20
291.99
 11
-2.9369
 21
291.911
  0
LINE
  8
0
 10
-2.9369
 20
291.911
 11
-3.54507
 21
291.755
  0
LINE
  8
0
 10
-3.54507
 20
291.755
 11
-4.12889
 21
291.524
  0
LINE
  8
0
 10
-4.12889
 20
291.524
 11
-4.67912
 21
291.222
  0
LINE
  8
0
 10
-4.67912
 20
291.222
 11
-5.18712
 21
290.853
  0
LINE
  8
0
 10
-5.18712
 20
290.853
 11
-5.64484
 21
290.423
  0
LINE
  8
0
 10
-5.64484
 20
290.423
 11
-6
 21
289.993
  0
LINE
  8
0
 10
-6
 20
289.993
 11
-6
 21
291.153
  0
LINE
  8
0
 10
-6
 20
291.153
 11
-9
 21
291.153
  0
LINE
  8
0
 10
-9
 20
291.153
 11
-9
 21
248.847
  0
LINE
  8
0
 10
-9
 20
248.847
 11
-6
 21
248.847
  0
LINE
  8
0
 10
-6
 20
248.847
 11
-6
 21
250.007
  0
LINE
  8
0
 10
-6
 20
250.007
 11
-5.64484
 21
249.577
  0
LINE
  8
0
 10
-5.64484
 20
249.577
 11
-5.18712
 21
249.147
  0
LINE
  8
0
 10
-5.18712
 20
249.147
 11
-4.67912
 21
248.778
  0
LINE
  8
0
 10
-4.67912
 20
248.778
 11
-4.12889
 21
248.476
  0
LINE
  8
0
 10
-4.12889
 20
248.476
 11
-3.54507
 21
248.245
  0
LINE
  8
0
 10
-3.54507
 20
248.245
 11
-2.9369
 21
248.089
  0
LINE
  8
0
 10
-2.9369
 20
248.089
 11
-2.31395
 21
248.01
  0
LINE
  8
0
 10
-2.31395
 20
248.01
 11
2.31395
 21
248.01
  0
LINE
  8
0
 10
2.31395
 20
248.01
 11
2.9369
 21
248.089
  0
LINE
  8
0
 10
-0.150696
 20
282.605
 11
-0.449707
 21
282.643
  0
LINE
  8
0
 10
-0.449707
 20
282.643
 11
-0.741638
 21
282.717
  0
LINE
  8
0
 10
-0.741638
 20
282.717
 11
-1.02187
 21
282.828
  0
LINE
  8
0
 10
-1.02187
 20
282.828
 11
-1.28598
 21
282.974
  0
LINE
  8
0
 10
-1.28598
 20
282.974
 11
-1.52982
 21
283.151
  0
LINE
  8
0
 10
-1.52982
 20
283.151
 11
-1.74951
 21
283.357
  0
LINE
  8
0
 10
-1.74951
 20
283.357
 11
-1.94164
 21
283.589
  0
LINE
  8
0
 10
-1.94164
 20
283.589
 11
-2.10313
 21
283.844
  0
LINE
  8
0
 10
-2.10313
 20
283.844
 11
-2.23146
 21
284.117
  0
LINE
  8
0
 10
-2.23146
 20
284.117
 11
-2.32458
 21
284.403
  0
LINE
  8
0
 10
-2.32458
 20
284.403
 11
-2.38107
 21
284.699
  0
LINE
  8
0
 10
-2.38107
 20
284.699
 11
-2.39999
 21
285
  0
LINE
  8
0
 10
-2.39999
 20
285
 11
-2.38107
 21
285.301
  0
LINE
  8
0
 10
-2.38107
 20
285.301
 11
-2.32458
 21
285.597
  0
LINE
  8
0
 10
-2.32458
 20
285.597
 11
-2.23146
 21
285.883
  0
LINE
  8
0
 10
-2.23146
 20
285.883
 11
-2.10313
 21
286.156
  0
LINE
  8
0
 10
-2.10313
 20
286.156
 11
-1.94164
 21
286.411
  0
LINE
  8
0
 10
-1.94164
 20
286.411
 11
-1.74951
 21
286.643
  0
LINE
  8
0
 10
-1.74951
 20
286.643
 11
-1.52982
 21
286.849
  0
LINE
  8
0
 10
-1.52982
 20
286.849
 11
-1.28598
 21
287.026
  0
LINE
  8
0
 10
-1.28598
 20
287.026
 11
-1.02187
 21
287.172
  0
LINE
  8
0
 10
-1.02187
 20
287.172
 11
-0.741638
 21
287.283
  0
LINE
  8
0
 10
-0.741638
 20
287.283
 11
-0.449707
 21
287.357
  0
LINE
  8
0
 10
-0.449707
 20
287.357
 11
-0.150696
 21
287.395
  0
LINE
  8
0
 10
-0.150696
 20
287.395
 11
0.150696
 21
287.395
  0
LINE
  8
0
 10
0.150696
 20
287.395
 11
0.449707
 21
287.357
  0
LINE
  8
0
 10
0.449707
 20
287.357
 11
0.741638
 21
287.283
  0
LINE
  8
0
 10
0.741638
 20
287.283
 11
1.02187
 21
287.172
  0
LINE
  8
0
 10
1.02187
 20
287.172
 11
1.28598
 21
287.026
  0
LINE
  8
0
 10
1.28598
 20
287.026
 11
1.52982
 21
286.849
  0
LINE
  8
0
 10
1.52982
 20
286.849
 11
1.74951
 21
286.643
  0
LINE
  8
0
 10
1.74951
 20
286.643
 11
1.94164
 21
286.411
  0
LINE
  8
0
 10
1.94164
 20
286.411
 11
2.10313
 21
286.156
  0
LINE
  8
0
 10
2.10313
 20
286.156
 11
2.23146
 21
285.883
  0
LINE
  8
0
 10
2.23146
 20
285.883
 11
2.32458
 21
285.597
  0
LINE
  8
0
 10
2.32458
 20
285.597
 11
2.38107
 21
285.301
  0
LINE
  8
0
 10
2.38107
 20
285.301
 11
2.39999
 21
285
  0
LINE
  8
0
 10
2.39999
 20
285
 11
2.38107
 21
284.699
  0
LINE
  8
0
 10
2.38107
 20
284.699
 11
2.32458
 21
284.403
  0
LINE
  8
0
 10
2.32458
 20
284.403
 11
2.23146
 21
284.117
  0
LINE
  8
0
 10
2.23146
 20
284.117
 11
2.10313
 21
283.844
  0
LINE
  8
0
 10
2.10313
 20
283.844
 11
1.94164
 21
283.589
  0
LINE
  8
0
 10
1.94164
 20
283.589
 11
1.74951
 21
283.357
  0
LINE
  8
0
 10
1.74951
 20
283.357
 11
1.52982
 21
283.151
  0
LINE
  8
0
 10
1.52982
 20
283.151
 11
1.28598
 21
282.974
  0
LINE
  8
0
 10
1.28598
 20
282.974
 11
1.02187
 21
282.828
  0
LINE
  8
0
 10
1.02187
 20
282.828
 11
0.741638
 21
282.717
  0
LINE
  8
0
 10
0.741638
 20
282.717
 11
0.449707
 21
282.643
  0
LINE
  8
0
 10
0.449707
 20
282.643
 11
0.150696
 21
282.605
  0
LINE
  8
0
 10
0.150696
 20
282.605
 11
-0.150696
 21
282.605
  0
LINE
  8
0
 10
-0.150696
 20
252.605
 11
-0.449707
 21
252.643
  0
LINE
  8
0
 10
-0.449707
 20
252.643
 11
-0.741638
 21
252.717
  0
LINE
  8
0
 10
-0.741638
 20
252.717
 11
-1.02187
 21
252.828
  0
LINE
  8
0
 10
-1.02187
 20
252.828
 11
-1.28598
 21
252.974
  0
LINE
  8
0
 10
-1.28598
 20
252.974
 11
-1.52982
 21
253.151
  0
LINE
  8
0
 10
-1.52982
 20
253.151
 11
-1.74951
 21
253.357
  0
LINE
  8
0
 10
-1.74951
 20
253.357
 11
-1.94164
 21
253.589
  0
LINE
  8
0
 10
-1.94164
 20
253.589
 11
-2.10313
 21
253.844
  0
LINE
  8
0
 10
-2.10313
 20
253.844
 11
-2.23146
 21
254.117
  0
LINE
  8
0
 10
-2.23146
 20
254.117
 11
-2.32458
 21
254.403
  0
LINE
  8
0
 10
-2.32458
 20
254.403
 11
-2.38107
 21
254.699
  0
LINE
  8
0
 10
-2.38107
 20
254.699
 11
-2.39999
 21
255
  0
LINE
  8
0
 10
-2.39999
 20
255
 11
-2.38107
 21
255.301
  0
LINE
  8
0
 10
-2.38107
 20
255.301
 11
-2.32458
 21
255.597
  0
LINE
  8
0
 10
-2.32458
 20
255.597
 11
-2.23146
 21
255.883
  0
LINE
  8
0
 10
-2.23146
 20
255.883
 11
-2.10313
 21
256.156
  0
LINE
  8
0
 10
-2.10313
 20
256.156
 11
-1.94164
 21
256.411
  0
LINE
  8
0
 10
-1.94164
 20
256.411
 11
-1.74951
 21
256.643
  0
LINE
  8
0
 10
-1.74951
 20
256.643
 11
-1.52982
 21
256.849
  0
LINE
  8
0
 10
-1.52982
 20
256.849
 11
-1.28598
 21
257.026
  0
LINE
  8
0
 10
-1.28598
 20
257.026
 11
-1.02187
 21
257.172
  0
LINE
  8
0
 10
-1.02187
 20
257.172
 11
-0.741638
 21
257.283
  0
LINE
  8
0
 10
-0.741638
 20
257.283
 11
-0.449707
 21
257.357
  0
LINE
  8
0
 10
-0.449707
 20
257.357
 11
-0.150696
 21
257.395
  0
LINE
  8
0
 10
-0.150696
 20
257.395
 11
0.150696
 21
257.395
  0
LINE
  8
0
 10
0.150696
 20
257.395
 11
0.449707
 21
257.357
  0
LINE
  8
0
 10
0.449707
 20
257.357
 11
0.741638
 21
257.283
  0
LINE
  8
0
 10
0.741638
 20
257.283
 11
1.02187
 21
257.172
  0
LINE
  8
0
 10
1.02187
 20
257.172
 11
1.28598
 21
257.026
  0
LINE
  8
0
 10
1.28598
 20
257.026
 11
1.52982
 21
256.849
  0
LINE
  8
0
 10
1.52982
 20
256.849
 11
1.74951
 21
256.643
  0
LINE
  8
0
 10
1.74951
 20
256.643
 11
1.94164
 21
256.411
  0
LINE
  8
0
 10
1.94164
 20
256.411
 11
2.10313
 21
256.156
  0
LINE
  8
0
 10
2.10313
 20
256.156
 11
2.23146
 21
255.883
  0
LINE
  8
0
 10
2.23146
 20
255.883
 11
2.32458
 21
255.597
  0
LINE
  8
0
 10
2.32458
 20
255.597
 11
2.38107
 21
255.301
  0
LINE
  8
0
 10
2.38107
 20
255.301
 11
2.39999
 21
255
  0
LINE
  8
0
 10
2.39999
 20
255
 11
2.38107
 21
254.699
  0
LINE
  8
0
 10
2.38107
 20
254.699
 11
2.32458
 21
254.403
  0
LINE
  8
0
 10
2.32458
 20
254.403
 11
2.23146
 21
254.117
  0
LINE
  8
0
 10
2.23146
 20
254.117
 11
2.10313
 21
253.844
  0
LINE
  8
0
 10
2.10313
 20
253.844
 11
1.94164
 21
253.589
  0
LINE
  8
0
 10
1.94164
 20
253.589
 11
1.74951
 21
253.357
  0
LINE
  8
0
 10
1.74951
 20
253.357
 11
1.52982
 21
253.151
  0
LINE
  8
0
 10
1.52982
 20
253.151
 11
1.28598
 21
252.974
  0
LINE
  8
0
 10
1.28598
 20
252.974
 11
1.02187
 21
252.828
  0
LINE
  8
0
 10
1.02187
 20
252.828
 11
0.741638
 21
252.717
  0
LINE
  8
0
 10
0.741638
 20
252.717
 11
0.449707
 21
252.643
  0
LINE
  8
0
 10
0.449707
 20
252.643
 11
0.150696
 21
252.605
  0
LINE
  8
0
 10
0.150696
 20
252.605
 11
-0.150696
 21
252.605
  0
ENDSEC
  0
SECTION
  2
OBJECTS
  0
DICTIONARY
  0
ENDSEC
  0
EOF
