<?xml version="1.0" standalone="no"?>
<!DOCTYPE svg PUBLIC "-//W3C//DTD SVG 1.1//EN" "http://www.w3.org/Graphics/SVG/1.1/DTD/svg11.dtd">
<svg width="60mm" height="186mm" viewBox="-30 -366 60 186" xmlns="http://www.w3.org/2000/svg" version="1.1">
<title>OpenSCAD Model</title>
<path d="
M 25.4369,-336.589 L 26.0451,-336.745 L 26.6289,-336.976 L 27.1791,-337.278 L 27.6871,-337.647 L 28.1448,-338.077
 L 28.5451,-338.561 L 28.8815,-339.091 L 29.1489,-339.659 L 29.3429,-340.257 L 29.4606,-340.873 L 29.5,-341.5
 L 29.5,-360.5 L 29.4606,-361.127 L 29.3429,-361.743 L 29.1489,-362.341 L 28.8815,-362.909 L 28.5451,-363.439
 L 28.1448,-363.923 L 27.6871,-364.353 L 27.1791,-364.722 L 26.6289,-365.024 L 26.0451,-365.255 L 25.4369,-365.411
 L 24.8139,-365.49 L -24.8139,-365.49 L -25.4369,-365.411 L -26.0451,-365.255 L -26.6289,-365.024 L -27.1791,-364.722
 L -27.6871,-364.353 L -28.1448,-363.923 L -28.5451,-363.439 L -28.8815,-362.909 L -29.1489,-362.341 L -29.3429,-361.743
 L -29.4606,-361.127 L -29.5,-360.5 L -29.5,-341.5 L -29.4606,-340.873 L -29.3429,-340.257 L -29.1489,-339.659
 L -28.8815,-339.091 L -28.5451,-338.561 L -28.1448,-338.077 L -27.6871,-337.647 L -27.1791,-337.278 L -26.6289,-336.976
 L -26.0451,-336.745 L -25.4369,-336.589 L -24.8139,-336.51 L 24.8139,-336.51 z
M -24.7512,-337.508 L -25.2495,-337.571 L -25.7361,-337.696 L -26.2031,-337.881 L -26.6433,-338.123 L -27.0497,-338.418
 L -27.4159,-338.762 L -27.7361,-339.149 L -28.0052,-339.573 L -28.2191,-340.028 L -28.3743,-340.505 L -28.4684,-340.999
 L -28.5,-341.5 L -28.5,-360.5 L -28.4684,-361.001 L -28.3743,-361.495 L -28.2191,-361.972 L -28.0052,-362.427
 L -27.7361,-362.851 L -27.4159,-363.238 L -27.0497,-363.582 L -26.6433,-363.877 L -26.2031,-364.119 L -25.7361,-364.304
 L -25.2495,-364.429 L -24.7512,-364.492 L 24.7512,-364.492 L 25.2495,-364.429 L 25.7361,-364.304 L 26.2031,-364.119
 L 26.6433,-363.877 L 27.0497,-363.582 L 27.4159,-363.238 L 27.7361,-362.851 L 28.0052,-362.427 L 28.2191,-361.972
 L 28.3743,-361.495 L 28.4684,-361.001 L 28.5,-360.5 L 28.5,-341.5 L 28.4684,-340.999 L 28.3743,-340.505
 L 28.2191,-340.028 L 28.0052,-339.573 L 27.7361,-339.149 L 27.4159,-338.762 L 27.0497,-338.418 L 26.6433,-338.123
 L 26.2031,-337.881 L 25.7361,-337.696 L 25.2495,-337.571 L 24.7512,-337.508 z
M 25.4369,-297.589 L 26.0451,-297.745 L 26.6289,-297.976 L 27.1791,-298.278 L 27.6871,-298.647 L 28.1448,-299.077
 L 28.5451,-299.561 L 28.8815,-300.091 L 29.1489,-300.659 L 29.3429,-301.257 L 29.4606,-301.873 L 29.5,-302.5
 L 29.5,-321.5 L 29.4606,-322.127 L 29.3429,-322.743 L 29.1489,-323.341 L 28.8815,-323.909 L 28.5451,-324.439
 L 28.1448,-324.923 L 27.6871,-325.353 L 27.1791,-325.722 L 26.6289,-326.024 L 26.0451,-326.255 L 25.4369,-326.411
 L 24.8139,-326.49 L -24.8139,-326.49 L -25.4369,-326.411 L -26.0451,-326.255 L -26.6289,-326.024 L -27.1791,-325.722
 L -27.6871,-325.353 L -28.1448,-324.923 L -28.5451,-324.439 L -28.8815,-323.909 L -29.1489,-323.341 L -29.3429,-322.743
 L -29.4606,-322.127 L -29.5,-321.5 L -29.5,-302.5 L -29.4606,-301.873 L -29.3429,-301.257 L -29.1489,-300.659
 L -28.8815,-300.091 L -28.5451,-299.561 L -28.1448,-299.077 L -27.6871,-298.647 L -27.1791,-298.278 L -26.6289,-297.976
 L -26.0451,-297.745 L -25.4369,-297.589 L -24.8139,-297.51 L 24.8139,-297.51 z
M -24.7512,-298.508 L -25.2495,-298.571 L -25.7361,-298.696 L -26.2031,-298.881 L -26.6433,-299.123 L -27.0497,-299.418
 L -27.4159,-299.762 L -27.7361,-300.149 L -28.0052,-300.573 L -28.2191,-301.028 L -28.3743,-301.505 L -28.4684,-301.999
 L -28.5,-302.5 L -28.5,-321.5 L -28.4684,-322.001 L -28.3743,-322.495 L -28.2191,-322.972 L -28.0052,-323.427
 L -27.7361,-323.851 L -27.4159,-324.238 L -27.0497,-324.582 L -26.6433,-324.877 L -26.2031,-325.119 L -25.7361,-325.304
 L -25.2495,-325.429 L -24.7512,-325.492 L 24.7512,-325.492 L 25.2495,-325.429 L 25.7361,-325.304 L 26.2031,-325.119
 L 26.6433,-324.877 L 27.0497,-324.582 L 27.4159,-324.238 L 27.7361,-323.851 L 28.0052,-323.427 L 28.2191,-322.972
 L 28.3743,-322.495 L 28.4684,-322.001 L 28.5,-321.5 L 28.5,-302.5 L 28.4684,-301.999 L 28.3743,-301.505
 L 28.2191,-301.028 L 28.0052,-300.573 L 27.7361,-300.149 L 27.4159,-299.762 L 27.0497,-299.418 L 26.6433,-299.123
 L 26.2031,-298.881 L 25.7361,-298.696 L 25.2495,-298.571 L 24.7512,-298.508 z
M 25.4369,-258.589 L 26.0451,-258.745 L 26.6289,-258.976 L 27.1791,-259.278 L 27.6871,-259.647 L 28.1448,-260.077
 L 28.5451,-260.561 L 28.8815,-261.091 L 29.1489,-261.659 L 29.3429,-262.257 L 29.4606,-262.873 L 29.5,-263.5
 L 29.5,-282.5 L 29.4606,-283.127 L 29.3429,-283.743 L 29.1489,-284.341 L 28.8815,-284.909 L 28.5451,-285.439
 L 28.1448,-285.923 L 27.6871,-286.353 L 27.1791,-286.722 L 26.6289,-287.024 L 26.0451,-287.255 L 25.4369,-287.411
 L 24.8139,-287.49 L -24.8139,-287.49 L -25.4369,-287.411 L -26.0451,-287.255 L -26.6289,-287.024 L -27.1791,-286.722
 L -27.6871,-286.353 L -28.1448,-285.923 L -28.5451,-285.439 L -28.8815,-284.909 L -29.1489,-284.341 L -29.3429,-283.743
 L -29.4606,-283.127 L -29.5,-282.5 L -29.5,-263.5 L -29.4606,-262.873 L -29.3429,-262.257 L -29.1489,-261.659
 L -28.8815,-261.091 L -28.5451,-260.561 L -28.1448,-260.077 L -27.6871,-259.647 L -27.1791,-259.278 L -26.6289,-258.976
 L -26.0451,-258.745 L -25.4369,-258.589 L -24.8139,-258.51 L 24.8139,-258.51 z
M -24.7512,-259.508 L -25.2495,-259.571 L -25.7361,-259.696 L -26.2031,-259.881 L -26.6433,-260.123 L -27.0497,-260.418
 L -27.4159,-260.762 L -27.7361,-261.149 L -28.0052,-261.573 L -28.2191,-262.028 L -28.3743,-262.505 L -28.4684,-262.999
 L -28.5,-263.5 L -28.5,-282.5 L -28.4684,-283.001 L -28.3743,-283.495 L -28.2191,-283.972 L -28.0052,-284.427
 L -27.7361,-284.851 L -27.4159,-285.238 L -27.0497,-285.582 L -26.6433,-285.877 L -26.2031,-286.119 L -25.7361,-286.304
 L -25.2495,-286.429 L -24.7512,-286.492 L 24.7512,-286.492 L 25.2495,-286.429 L 25.7361,-286.304 L 26.2031,-286.119
 L 26.6433,-285.877 L 27.0497,-285.582 L 27.4159,-285.238 L 27.7361,-284.851 L 28.0052,-284.427 L 28.2191,-283.972
 L 28.3743,-283.495 L 28.4684,-283.001 L 28.5,-282.5 L 28.5,-263.5 L 28.4684,-262.999 L 28.3743,-262.505
 L 28.2191,-262.028 L 28.0052,-261.573 L 27.7361,-261.149 L 27.4159,-260.762 L 27.0497,-260.418 L 26.6433,-260.123
 L 26.2031,-259.881 L 25.7361,-259.696 L 25.2495,-259.571 L 24.7512,-259.508 z
M 25.4369,-219.589 L 26.0451,-219.745 L 26.6289,-219.976 L 27.1791,-220.278 L 27.6871,-220.647 L 28.1448,-221.077
 L 28.5451,-221.561 L 28.8815,-222.091 L 29.1489,-222.659 L 29.3429,-223.257 L 29.4606,-223.873 L 29.5,-224.5
 L 29.5,-243.5 L 29.4606,-244.127 L 29.3429,-244.743 L 29.1489,-245.341 L 28.8815,-245.909 L 28.5451,-246.439
 L 28.1448,-246.923 L 27.6871,-247.353 L 27.1791,-247.722 L 26.6289,-248.024 L 26.0451,-248.255 L 25.4369,-248.411
 L 24.8139,-248.49 L -24.8139,-248.49 L -25.4369,-248.411 L -26.0451,-248.255 L -26.6289,-248.024 L -27.1791,-247.722
 L -27.6871,-247.353 L -28.1448,-246.923 L -28.5451,-246.439 L -28.8815,-245.909 L -29.1489,-245.341 L -29.3429,-244.743
 L -29.4606,-244.127 L -29.5,-243.5 L -29.5,-224.5 L -29.4606,-223.873 L -29.3429,-223.257 L -29.1489,-222.659
 L -28.8815,-222.091 L -28.5451,-221.561 L -28.1448,-221.077 L -27.6871,-220.647 L -27.1791,-220.278 L -26.6289,-219.976
 L -26.0451,-219.745 L -25.4369,-219.589 L -24.8139,-219.51 L 24.8139,-219.51 z
M -24.6954,-221.393 L -25.0833,-221.442 L -25.4619,-221.539 L -25.8254,-221.683 L -26.168,-221.872 L -26.4842,-222.101
 L -26.7692,-222.369 L -27.0184,-222.67 L -27.2279,-223 L -27.3943,-223.354 L -27.5151,-223.726 L -27.5884,-224.11
 L -27.6129,-224.5 L -27.6129,-243.5 L -27.5884,-243.89 L -27.5151,-244.274 L -27.3943,-244.646 L -27.2279,-245
 L -27.0184,-245.33 L -26.7692,-245.631 L -26.4842,-245.899 L -26.168,-246.128 L -25.8254,-246.317 L -25.4619,-246.461
 L -25.0833,-246.558 L -24.6954,-246.607 L 24.6954,-246.607 L 25.0833,-246.558 L 25.4619,-246.461 L 25.8254,-246.317
 L 26.168,-246.128 L 26.4842,-245.899 L 26.7692,-245.631 L 27.0184,-245.33 L 27.2279,-245 L 27.3943,-244.646
 L 27.5151,-244.274 L 27.5884,-243.89 L 27.6129,-243.5 L 27.6129,-224.5 L 27.5884,-224.11 L 27.5151,-223.726
 L 27.3943,-223.354 L 27.2279,-223 L 27.0184,-222.67 L 26.7692,-222.369 L 26.4842,-222.101 L 26.168,-221.872
 L 25.8254,-221.683 L 25.4619,-221.539 L 25.0833,-221.442 L 24.6954,-221.393 z
M 25.4369,-180.589 L 26.0451,-180.745 L 26.6289,-180.976 L 27.1791,-181.278 L 27.6871,-181.647 L 28.1448,-182.077
 L 28.5451,-182.561 L 28.8815,-183.091 L 29.1489,-183.659 L 29.3429,-184.257 L 29.4606,-184.873 L 29.5,-185.5
 L 29.5,-204.5 L 29.4606,-205.127 L 29.3429,-205.743 L 29.1489,-206.341 L 28.8815,-206.909 L 28.5451,-207.439
 L 28.1448,-207.923 L 27.6871,-208.353 L 27.1791,-208.722 L 26.6289,-209.024 L 26.0451,-209.255 L 25.4369,-209.411
 L 24.8139,-209.49 L -24.8139,-209.49 L -25.4369,-209.411 L -26.0451,-209.255 L -26.6289,-209.024 L -27.1791,-208.722
 L -27.6871,-208.353 L -28.1448,-207.923 L -28.5451,-207.439 L -28.8815,-206.909 L -29.1489,-206.341 L -29.3429,-205.743
 L -29.4606,-205.127 L -29.5,-204.5 L -29.5,-185.5 L -29.4606,-184.873 L -29.3429,-184.257 L -29.1489,-183.659
 L -28.8815,-183.091 L -28.5451,-182.561 L -28.1448,-182.077 L -27.6871,-181.647 L -27.1791,-181.278 L -26.6289,-180.976
 L -26.0451,-180.745 L -25.4369,-180.589 L -24.8139,-180.51 L 24.8139,-180.51 z
M 22.3493,-200.105 L 22.0503,-200.143 L 21.7583,-200.217 L 21.4781,-200.328 L 21.214,-200.474 L 20.9702,-200.651
 L 20.7505,-200.857 L 20.5583,-201.089 L 20.3969,-201.344 L 20.2685,-201.617 L 20.1754,-201.903 L 20.1189,-202.199
 L 20.1,-202.5 L 20.1189,-202.801 L 20.1754,-203.097 L 20.2685,-203.383 L 20.3969,-203.656 L 20.5583,-203.911
 L 20.7505,-204.143 L 20.9702,-204.349 L 21.214,-204.526 L 21.4781,-204.672 L 21.7583,-204.783 L 22.0503,-204.857
 L 22.3493,-204.895 L 22.6507,-204.895 L 22.9497,-204.857 L 23.2416,-204.783 L 23.5219,-204.672 L 23.786,-204.526
 L 24.0298,-204.349 L 24.2495,-204.143 L 24.4416,-203.911 L 24.6031,-203.656 L 24.7315,-203.383 L 24.8246,-203.097
 L 24.8811,-202.801 L 24.9,-202.5 L 24.8811,-202.199 L 24.8246,-201.903 L 24.7315,-201.617 L 24.6031,-201.344
 L 24.4416,-201.089 L 24.2495,-200.857 L 24.0298,-200.651 L 23.786,-200.474 L 23.5219,-200.328 L 23.2416,-200.217
 L 22.9497,-200.143 L 22.6507,-200.105 z
M -22.6507,-200.105 L -22.9497,-200.143 L -23.2416,-200.217 L -23.5219,-200.328 L -23.786,-200.474 L -24.0298,-200.651
 L -24.2495,-200.857 L -24.4416,-201.089 L -24.6031,-201.344 L -24.7315,-201.617 L -24.8246,-201.903 L -24.8811,-202.199
 L -24.9,-202.5 L -24.8811,-202.801 L -24.8246,-203.097 L -24.7315,-203.383 L -24.6031,-203.656 L -24.4416,-203.911
 L -24.2495,-204.143 L -24.0298,-204.349 L -23.786,-204.526 L -23.5219,-204.672 L -23.2416,-204.783 L -22.9497,-204.857
 L -22.6507,-204.895 L -22.3493,-204.895 L -22.0503,-204.857 L -21.7583,-204.783 L -21.4781,-204.672 L -21.214,-204.526
 L -20.9702,-204.349 L -20.7505,-204.143 L -20.5583,-203.911 L -20.3969,-203.656 L -20.2685,-203.383 L -20.1754,-203.097
 L -20.1189,-202.801 L -20.1,-202.5 L -20.1189,-202.199 L -20.1754,-201.903 L -20.2685,-201.617 L -20.3969,-201.344
 L -20.5583,-201.089 L -20.7505,-200.857 L -20.9702,-200.651 L -21.214,-200.474 L -21.4781,-200.328 L -21.7583,-200.217
 L -22.0503,-200.143 L -22.3493,-200.105 z
M -22.6507,-185.105 L -22.9497,-185.143 L -23.2416,-185.217 L -23.5219,-185.328 L -23.786,-185.474 L -24.0298,-185.651
 L -24.2495,-185.857 L -24.4416,-186.089 L -24.6031,-186.344 L -24.7315,-186.617 L -24.8246,-186.903 L -24.8811,-187.199
 L -24.9,-187.5 L -24.8811,-187.801 L -24.8246,-188.097 L -24.7315,-188.383 L -24.6031,-188.656 L -24.4416,-188.911
 L -24.2495,-189.143 L -24.0298,-189.349 L -23.786,-189.526 L -23.5219,-189.672 L -23.2416,-189.783 L -22.9497,-189.857
 L -22.6507,-189.895 L -22.3493,-189.895 L -22.0503,-189.857 L -21.7583,-189.783 L -21.4781,-189.672 L -21.214,-189.526
 L -20.9702,-189.349 L -20.7505,-189.143 L -20.5583,-188.911 L -20.3969,-188.656 L -20.2685,-188.383 L -20.1754,-188.097
 L -20.1189,-187.801 L -20.1,-187.5 L -20.1189,-187.199 L -20.1754,-186.903 L -20.2685,-186.617 L -20.3969,-186.344
 L -20.5583,-186.089 L -20.7505,-185.857 L -20.9702,-185.651 L -21.214,-185.474 L -21.4781,-185.328 L -21.7583,-185.217
 L -22.0503,-185.143 L -22.3493,-185.105 z
M 22.3493,-185.105 L 22.0503,-185.143 L 21.7583,-185.217 L 21.4781,-185.328 L 21.214,-185.474 L 20.9702,-185.651
 L 20.7505,-185.857 L 20.5583,-186.089 L 20.3969,-186.344 L 20.2685,-186.617 L 20.1754,-186.903 L 20.1189,-187.199
 L 20.1,-187.5 L 20.1189,-187.801 L 20.1754,-188.097 L 20.2685,-188.383 L 20.3969,-188.656 L 20.5583,-188.911
 L 20.7505,-189.143 L 20.9702,-189.349 L 21.214,-189.526 L 21.4781,-189.672 L 21.7583,-189.783 L 22.0503,-189.857
 L 22.3493,-189.895 L 22.6507,-189.895 L 22.9497,-189.857 L 23.2416,-189.783 L 23.5219,-189.672 L 23.786,-189.526
 L 24.0298,-189.349 L 24.2495,-189.143 L 24.4416,-188.911 L 24.6031,-188.656 L 24.7315,-188.383 L 24.8246,-188.097
 L 24.8811,-187.801 L 24.9,-187.5 L 24.8811,-187.199 L 24.8246,-186.903 L 24.7315,-186.617 L 24.6031,-186.344
 L 24.4416,-186.089 L 24.2495,-185.857 L 24.0298,-185.651 L 23.786,-185.474 L 23.5219,-185.328 L 23.2416,-185.217
 L 22.9497,-185.143 L 22.6507,-185.105 z
" stroke="black" fill="lightgray" stroke-width="0.5"/>
</svg>
