<?xml version="1.0" standalone="no"?>
<!DOCTYPE svg PUBLIC "-//W3C//DTD SVG 1.1//EN" "http://www.w3.org/Graphics/SVG/1.1/DTD/svg11.dtd">
<svg width="14mm" height="98mm" viewBox="-7 -184 14 98" xmlns="http://www.w3.org/2000/svg" version="1.1">
<title>OpenSCAD Model</title>
<path d="
M 2.9369,-140.089 L 3.54507,-140.245 L 4.12889,-140.476 L 4.67912,-140.778 L 5.18712,-141.147 L 5.64484,-141.577
 L 6.04507,-142.061 L 6.38153,-142.591 L 6.64888,-143.159 L 6.84291,-143.757 L 6.96057,-144.373 L 7,-145
 L 7,-179 L 6.96057,-179.627 L 6.84291,-180.243 L 6.64888,-180.841 L 6.38153,-181.409 L 6.04507,-181.939
 L 5.64484,-182.423 L 5.18712,-182.853 L 4.67912,-183.222 L 4.12889,-183.524 L 3.54507,-183.755 L 2.9369,-183.911
 L 2.31395,-183.99 L -2.31395,-183.99 L -2.9369,-183.911 L -3.54507,-183.755 L -4.12889,-183.524 L -4.67912,-183.222
 L -5.18712,-182.853 L -5.64484,-182.423 L -6.04507,-181.939 L -6.38153,-181.409 L -6.64888,-180.841 L -6.84291,-180.243
 L -6.96057,-179.627 L -7,-179 L -7,-145 L -6.96057,-144.373 L -6.84291,-143.757 L -6.64888,-143.159
 L -6.38153,-142.591 L -6.04507,-142.061 L -5.64484,-141.577 L -5.18712,-141.147 L -4.67912,-140.778 L -4.12889,-140.476
 L -3.54507,-140.245 L -2.9369,-140.089 L -2.31395,-140.01 L 2.31395,-140.01 z
M -2.03748,-140.681 L -2.60791,-140.753 L -3.16481,-140.896 L -3.6994,-141.107 L -4.20325,-141.384 L -4.6684,-141.722
 L -5.08754,-142.116 L -5.45403,-142.559 L -5.76212,-143.044 L -6.00691,-143.565 L -6.18459,-144.111 L -6.29233,-144.676
 L -6.32843,-145.25 L -6.32843,-178.75 L -6.29233,-179.324 L -6.18459,-179.889 L -6.00691,-180.435 L -5.76212,-180.956
 L -5.45403,-181.441 L -5.08754,-181.884 L -4.6684,-182.278 L -4.20325,-182.616 L -3.6994,-182.893 L -3.16481,-183.104
 L -2.60791,-183.247 L -2.03748,-183.319 L 2.03748,-183.319 L 2.60791,-183.247 L 3.16481,-183.104 L 3.6994,-182.893
 L 4.20325,-182.616 L 4.6684,-182.278 L 5.08754,-181.884 L 5.45403,-181.441 L 5.76212,-180.956 L 6.00691,-180.435
 L 6.18459,-179.889 L 6.29233,-179.324 L 6.32843,-178.75 L 6.32843,-145.25 L 6.29233,-144.676 L 6.18459,-144.111
 L 6.00691,-143.565 L 5.76212,-143.044 L 5.45403,-142.559 L 5.08754,-142.116 L 4.6684,-141.722 L 4.20325,-141.384
 L 3.6994,-141.107 L 3.16481,-140.896 L 2.60791,-140.753 L 2.03748,-140.681 z
M 2.9369,-86.0886 L 3.54507,-86.2447 L 4.12889,-86.4759 L 4.67912,-86.7784 L 5.18712,-87.1474 L 5.64484,-87.5773
 L 6.04507,-88.0611 L 6.38153,-88.5912 L 6.64888,-89.1594 L 6.84291,-89.7566 L 6.96057,-90.3733 L 7,-91
 L 7,-125 L 6.96057,-125.627 L 6.84291,-126.243 L 6.64888,-126.841 L 6.38153,-127.409 L 6.04507,-127.939
 L 5.64484,-128.423 L 5.18712,-128.853 L 4.67912,-129.222 L 4.12889,-129.524 L 3.54507,-129.755 L 2.9369,-129.911
 L 2.31395,-129.99 L -2.31395,-129.99 L -2.9369,-129.911 L -3.54507,-129.755 L -4.12889,-129.524 L -4.67912,-129.222
 L -5.18712,-128.853 L -5.64484,-128.423 L -6.04507,-127.939 L -6.38153,-127.409 L -6.64888,-126.841 L -6.84291,-126.243
 L -6.96057,-125.627 L -7,-125 L -7,-91 L -6.96057,-90.3733 L -6.84291,-89.7566 L -6.64888,-89.1594
 L -6.38153,-88.5912 L -6.04507,-88.0611 L -5.64484,-87.5773 L -5.18712,-87.1474 L -4.67912,-86.7784 L -4.12889,-86.4759
 L -3.54507,-86.2447 L -2.9369,-86.0886 L -2.31395,-86.0099 L 2.31395,-86.0099 z
M -1.88246,-89.1445 L -2.14529,-89.1777 L -2.4019,-89.2436 L -2.64822,-89.3412 L -2.88039,-89.4688 L -3.09473,-89.6245
 L -3.28784,-89.8059 L -3.45673,-90.01 L -3.59868,-90.2337 L -3.71149,-90.4734 L -3.79335,-90.7254 L -3.84299,-90.9856
 L -3.85962,-91.25 L -3.85962,-124.75 L -3.84299,-125.014 L -3.79335,-125.275 L -3.71149,-125.527 L -3.59868,-125.766
 L -3.45673,-125.99 L -3.28784,-126.194 L -3.09473,-126.375 L -2.88039,-126.531 L -2.64822,-126.659 L -2.4019,-126.756
 L -2.14529,-126.822 L -1.88246,-126.855 L 1.88246,-126.855 L 2.14529,-126.822 L 2.4019,-126.756 L 2.64822,-126.659
 L 2.88039,-126.531 L 3.09473,-126.375 L 3.28784,-126.194 L 3.45673,-125.99 L 3.59868,-125.766 L 3.71149,-125.527
 L 3.79335,-125.275 L 3.84299,-125.014 L 3.85962,-124.75 L 3.85962,-91.25 L 3.84299,-90.9856 L 3.79335,-90.7254
 L 3.71149,-90.4734 L 3.59868,-90.2337 L 3.45673,-90.01 L 3.28784,-89.8059 L 3.09473,-89.6245 L 2.88039,-89.4688
 L 2.64822,-89.3412 L 2.4019,-89.2436 L 2.14529,-89.1777 L 1.88246,-89.1445 z
" stroke="black" fill="lightgray" stroke-width="0.5"/>
</svg>
