  0
SECTION
  2
BLOCKS
  0
ENDSEC
  0
SECTION
  2
ENTITIES
  0
LINE
  8
0
 10
-13.5
 20
721.007
 11
-13.1448
 21
720.577
  0
LINE
  8
0
 10
-13.1448
 20
720.577
 11
-12.6871
 21
720.147
  0
LINE
  8
0
 10
-12.6871
 20
720.147
 11
-12.1791
 21
719.778
  0
LINE
  8
0
 10
-12.1791
 20
719.778
 11
-11.6289
 21
719.476
  0
LINE
  8
0
 10
-11.6289
 20
719.476
 11
-11.0451
 21
719.245
  0
LINE
  8
0
 10
-11.0451
 20
719.245
 11
-10.4369
 21
719.089
  0
LINE
  8
0
 10
-10.4369
 20
719.089
 11
-9.81395
 21
719.01
  0
LINE
  8
0
 10
-9.81395
 20
719.01
 11
9.81395
 21
719.01
  0
LINE
  8
0
 10
9.81395
 20
719.01
 11
10.4369
 21
719.089
  0
LINE
  8
0
 10
10.4369
 20
719.089
 11
11.0451
 21
719.245
  0
LINE
  8
0
 10
11.0451
 20
719.245
 11
11.6289
 21
719.476
  0
LINE
  8
0
 10
11.6289
 20
719.476
 11
12.1791
 21
719.778
  0
LINE
  8
0
 10
12.1791
 20
719.778
 11
12.6871
 21
720.147
  0
LINE
  8
0
 10
12.6871
 20
720.147
 11
13.1448
 21
720.577
  0
LINE
  8
0
 10
13.1448
 20
720.577
 11
13.5451
 21
721.061
  0
LINE
  8
0
 10
13.5451
 20
721.061
 11
13.8815
 21
721.591
  0
LINE
  8
0
 10
13.8815
 20
721.591
 11
14.1489
 21
722.159
  0
LINE
  8
0
 10
14.1489
 20
722.159
 11
14.3429
 21
722.757
  0
LINE
  8
0
 10
14.3429
 20
722.757
 11
14.4606
 21
723.373
  0
LINE
  8
0
 10
14.4606
 20
723.373
 11
14.5
 21
724
  0
LINE
  8
0
 10
14.5
 20
724
 11
14.5
 21
788
  0
LINE
  8
0
 10
14.5
 20
788
 11
14.4606
 21
788.627
  0
LINE
  8
0
 10
14.4606
 20
788.627
 11
14.3429
 21
789.243
  0
LINE
  8
0
 10
14.3429
 20
789.243
 11
14.1489
 21
789.841
  0
LINE
  8
0
 10
14.1489
 20
789.841
 11
13.8815
 21
790.409
  0
LINE
  8
0
 10
13.8815
 20
790.409
 11
13.5451
 21
790.939
  0
LINE
  8
0
 10
13.5451
 20
790.939
 11
13.1448
 21
791.423
  0
LINE
  8
0
 10
13.1448
 20
791.423
 11
12.6871
 21
791.853
  0
LINE
  8
0
 10
12.6871
 20
791.853
 11
12.1791
 21
792.222
  0
LINE
  8
0
 10
12.1791
 20
792.222
 11
11.6289
 21
792.524
  0
LINE
  8
0
 10
11.6289
 20
792.524
 11
11.0451
 21
792.755
  0
LINE
  8
0
 10
11.0451
 20
792.755
 11
10.4369
 21
792.911
  0
LINE
  8
0
 10
10.4369
 20
792.911
 11
9.81395
 21
792.99
  0
LINE
  8
0
 10
9.81395
 20
792.99
 11
-9.81395
 21
792.99
  0
LINE
  8
0
 10
-9.81395
 20
792.99
 11
-10.4369
 21
792.911
  0
LINE
  8
0
 10
-10.4369
 20
792.911
 11
-11.0451
 21
792.755
  0
LINE
  8
0
 10
-11.0451
 20
792.755
 11
-11.6289
 21
792.524
  0
LINE
  8
0
 10
-11.6289
 20
792.524
 11
-12.1791
 21
792.222
  0
LINE
  8
0
 10
-12.1791
 20
792.222
 11
-12.6871
 21
791.853
  0
LINE
  8
0
 10
-12.6871
 20
791.853
 11
-13.1448
 21
791.423
  0
LINE
  8
0
 10
-13.1448
 20
791.423
 11
-13.5
 21
790.993
  0
LINE
  8
0
 10
-13.5
 20
790.993
 11
-13.5
 21
793.49
  0
LINE
  8
0
 10
-13.5
 20
793.49
 11
-16.5
 21
793.49
  0
LINE
  8
0
 10
-16.5
 20
793.49
 11
-16.5
 21
718.51
  0
LINE
  8
0
 10
-16.5
 20
718.51
 11
-13.5
 21
718.51
  0
LINE
  8
0
 10
-13.5
 20
718.51
 11
-13.5
 21
721.007
  0
LINE
  8
0
 10
-9.75116
 20
720.008
 11
-10.2495
 21
720.071
  0
LINE
  8
0
 10
-10.2495
 20
720.071
 11
-10.7361
 21
720.196
  0
LINE
  8
0
 10
-10.7361
 20
720.196
 11
-11.2031
 21
720.381
  0
LINE
  8
0
 10
-11.2031
 20
720.381
 11
-11.6433
 21
720.623
  0
LINE
  8
0
 10
-11.6433
 20
720.623
 11
-12.0497
 21
720.918
  0
LINE
  8
0
 10
-12.0497
 20
720.918
 11
-12.4159
 21
721.262
  0
LINE
  8
0
 10
-12.4159
 20
721.262
 11
-12.7361
 21
721.649
  0
LINE
  8
0
 10
-12.7361
 20
721.649
 11
-13.0052
 21
722.073
  0
LINE
  8
0
 10
-13.0052
 20
722.073
 11
-13.2191
 21
722.528
  0
LINE
  8
0
 10
-13.2191
 20
722.528
 11
-13.3743
 21
723.005
  0
LINE
  8
0
 10
-13.3743
 20
723.005
 11
-13.4684
 21
723.499
  0
LINE
  8
0
 10
-13.4684
 20
723.499
 11
-13.5
 21
724
  0
LINE
  8
0
 10
-13.5
 20
724
 11
-13.5
 21
788
  0
LINE
  8
0
 10
-13.5
 20
788
 11
-13.4684
 21
788.501
  0
LINE
  8
0
 10
-13.4684
 20
788.501
 11
-13.3743
 21
788.995
  0
LINE
  8
0
 10
-13.3743
 20
788.995
 11
-13.2191
 21
789.472
  0
LINE
  8
0
 10
-13.2191
 20
789.472
 11
-13.0052
 21
789.927
  0
LINE
  8
0
 10
-13.0052
 20
789.927
 11
-12.7361
 21
790.351
  0
LINE
  8
0
 10
-12.7361
 20
790.351
 11
-12.4159
 21
790.738
  0
LINE
  8
0
 10
-12.4159
 20
790.738
 11
-12.0497
 21
791.082
  0
LINE
  8
0
 10
-12.0497
 20
791.082
 11
-11.6433
 21
791.377
  0
LINE
  8
0
 10
-11.6433
 20
791.377
 11
-11.2031
 21
791.619
  0
LINE
  8
0
 10
-11.2031
 20
791.619
 11
-10.7361
 21
791.804
  0
LINE
  8
0
 10
-10.7361
 20
791.804
 11
-10.2495
 21
791.929
  0
LINE
  8
0
 10
-10.2495
 20
791.929
 11
-9.75116
 21
791.992
  0
LINE
  8
0
 10
-9.75116
 20
791.992
 11
9.75116
 21
791.992
  0
LINE
  8
0
 10
9.75116
 20
791.992
 11
10.2495
 21
791.929
  0
LINE
  8
0
 10
10.2495
 20
791.929
 11
10.7361
 21
791.804
  0
LINE
  8
0
 10
10.7361
 20
791.804
 11
11.2031
 21
791.619
  0
LINE
  8
0
 10
11.2031
 20
791.619
 11
11.6433
 21
791.377
  0
LINE
  8
0
 10
11.6433
 20
791.377
 11
12.0497
 21
791.082
  0
LINE
  8
0
 10
12.0497
 20
791.082
 11
12.4159
 21
790.738
  0
LINE
  8
0
 10
12.4159
 20
790.738
 11
12.7361
 21
790.351
  0
LINE
  8
0
 10
12.7361
 20
790.351
 11
13.0052
 21
789.927
  0
LINE
  8
0
 10
13.0052
 20
789.927
 11
13.2191
 21
789.472
  0
LINE
  8
0
 10
13.2191
 20
789.472
 11
13.3743
 21
788.995
  0
LINE
  8
0
 10
13.3743
 20
788.995
 11
13.4684
 21
788.501
  0
LINE
  8
0
 10
13.4684
 20
788.501
 11
13.5
 21
788
  0
LINE
  8
0
 10
13.5
 20
788
 11
13.5
 21
724
  0
LINE
  8
0
 10
13.5
 20
724
 11
13.4684
 21
723.499
  0
LINE
  8
0
 10
13.4684
 20
723.499
 11
13.3743
 21
723.005
  0
LINE
  8
0
 10
13.3743
 20
723.005
 11
13.2191
 21
722.528
  0
LINE
  8
0
 10
13.2191
 20
722.528
 11
13.0052
 21
722.073
  0
LINE
  8
0
 10
13.0052
 20
722.073
 11
12.7361
 21
721.649
  0
LINE
  8
0
 10
12.7361
 20
721.649
 11
12.4159
 21
721.262
  0
LINE
  8
0
 10
12.4159
 20
721.262
 11
12.0497
 21
720.918
  0
LINE
  8
0
 10
12.0497
 20
720.918
 11
11.6433
 21
720.623
  0
LINE
  8
0
 10
11.6433
 20
720.623
 11
11.2031
 21
720.381
  0
LINE
  8
0
 10
11.2031
 20
720.381
 11
10.7361
 21
720.196
  0
LINE
  8
0
 10
10.7361
 20
720.196
 11
10.2495
 21
720.071
  0
LINE
  8
0
 10
10.2495
 20
720.071
 11
9.75116
 21
720.008
  0
LINE
  8
0
 10
9.75116
 20
720.008
 11
-9.75116
 21
720.008
  0
LINE
  8
0
 10
-13.5
 20
637.007
 11
-13.1448
 21
636.577
  0
LINE
  8
0
 10
-13.1448
 20
636.577
 11
-12.6871
 21
636.147
  0
LINE
  8
0
 10
-12.6871
 20
636.147
 11
-12.1791
 21
635.778
  0
LINE
  8
0
 10
-12.1791
 20
635.778
 11
-11.6289
 21
635.476
  0
LINE
  8
0
 10
-11.6289
 20
635.476
 11
-11.0451
 21
635.245
  0
LINE
  8
0
 10
-11.0451
 20
635.245
 11
-10.4369
 21
635.089
  0
LINE
  8
0
 10
-10.4369
 20
635.089
 11
-9.81395
 21
635.01
  0
LINE
  8
0
 10
-9.81395
 20
635.01
 11
9.81395
 21
635.01
  0
LINE
  8
0
 10
9.81395
 20
635.01
 11
10.4369
 21
635.089
  0
LINE
  8
0
 10
10.4369
 20
635.089
 11
11.0451
 21
635.245
  0
LINE
  8
0
 10
11.0451
 20
635.245
 11
11.6289
 21
635.476
  0
LINE
  8
0
 10
11.6289
 20
635.476
 11
12.1791
 21
635.778
  0
LINE
  8
0
 10
12.1791
 20
635.778
 11
12.6871
 21
636.147
  0
LINE
  8
0
 10
12.6871
 20
636.147
 11
13.1448
 21
636.577
  0
LINE
  8
0
 10
13.1448
 20
636.577
 11
13.5451
 21
637.061
  0
LINE
  8
0
 10
13.5451
 20
637.061
 11
13.8815
 21
637.591
  0
LINE
  8
0
 10
13.8815
 20
637.591
 11
14.1489
 21
638.159
  0
LINE
  8
0
 10
14.1489
 20
638.159
 11
14.3429
 21
638.757
  0
LINE
  8
0
 10
14.3429
 20
638.757
 11
14.4606
 21
639.373
  0
LINE
  8
0
 10
14.4606
 20
639.373
 11
14.5
 21
640
  0
LINE
  8
0
 10
14.5
 20
640
 11
14.5
 21
704
  0
LINE
  8
0
 10
14.5
 20
704
 11
14.4606
 21
704.627
  0
LINE
  8
0
 10
14.4606
 20
704.627
 11
14.3429
 21
705.243
  0
LINE
  8
0
 10
14.3429
 20
705.243
 11
14.1489
 21
705.841
  0
LINE
  8
0
 10
14.1489
 20
705.841
 11
13.8815
 21
706.409
  0
LINE
  8
0
 10
13.8815
 20
706.409
 11
13.5451
 21
706.939
  0
LINE
  8
0
 10
13.5451
 20
706.939
 11
13.1448
 21
707.423
  0
LINE
  8
0
 10
13.1448
 20
707.423
 11
12.6871
 21
707.853
  0
LINE
  8
0
 10
12.6871
 20
707.853
 11
12.1791
 21
708.222
  0
LINE
  8
0
 10
12.1791
 20
708.222
 11
11.6289
 21
708.524
  0
LINE
  8
0
 10
11.6289
 20
708.524
 11
11.0451
 21
708.755
  0
LINE
  8
0
 10
11.0451
 20
708.755
 11
10.4369
 21
708.911
  0
LINE
  8
0
 10
10.4369
 20
708.911
 11
9.81395
 21
708.99
  0
LINE
  8
0
 10
9.81395
 20
708.99
 11
-9.81395
 21
708.99
  0
LINE
  8
0
 10
-9.81395
 20
708.99
 11
-10.4369
 21
708.911
  0
LINE
  8
0
 10
-10.4369
 20
708.911
 11
-11.0451
 21
708.755
  0
LINE
  8
0
 10
-11.0451
 20
708.755
 11
-11.6289
 21
708.524
  0
LINE
  8
0
 10
-11.6289
 20
708.524
 11
-12.1791
 21
708.222
  0
LINE
  8
0
 10
-12.1791
 20
708.222
 11
-12.6871
 21
707.853
  0
LINE
  8
0
 10
-12.6871
 20
707.853
 11
-13.1448
 21
707.423
  0
LINE
  8
0
 10
-13.1448
 20
707.423
 11
-13.5
 21
706.993
  0
LINE
  8
0
 10
-13.5
 20
706.993
 11
-13.5
 21
709.49
  0
LINE
  8
0
 10
-13.5
 20
709.49
 11
-16.5
 21
709.49
  0
LINE
  8
0
 10
-16.5
 20
709.49
 11
-16.5
 21
634.51
  0
LINE
  8
0
 10
-16.5
 20
634.51
 11
-13.5
 21
634.51
  0
LINE
  8
0
 10
-13.5
 20
634.51
 11
-13.5
 21
637.007
  0
LINE
  8
0
 10
-9.75116
 20
636.008
 11
-10.2495
 21
636.071
  0
LINE
  8
0
 10
-10.2495
 20
636.071
 11
-10.7361
 21
636.196
  0
LINE
  8
0
 10
-10.7361
 20
636.196
 11
-11.2031
 21
636.381
  0
LINE
  8
0
 10
-11.2031
 20
636.381
 11
-11.6433
 21
636.623
  0
LINE
  8
0
 10
-11.6433
 20
636.623
 11
-12.0497
 21
636.918
  0
LINE
  8
0
 10
-12.0497
 20
636.918
 11
-12.4159
 21
637.262
  0
LINE
  8
0
 10
-12.4159
 20
637.262
 11
-12.7361
 21
637.649
  0
LINE
  8
0
 10
-12.7361
 20
637.649
 11
-13.0052
 21
638.073
  0
LINE
  8
0
 10
-13.0052
 20
638.073
 11
-13.2191
 21
638.528
  0
LINE
  8
0
 10
-13.2191
 20
638.528
 11
-13.3743
 21
639.005
  0
LINE
  8
0
 10
-13.3743
 20
639.005
 11
-13.4684
 21
639.499
  0
LINE
  8
0
 10
-13.4684
 20
639.499
 11
-13.5
 21
640
  0
LINE
  8
0
 10
-13.5
 20
640
 11
-13.5
 21
704
  0
LINE
  8
0
 10
-13.5
 20
704
 11
-13.4684
 21
704.501
  0
LINE
  8
0
 10
-13.4684
 20
704.501
 11
-13.3743
 21
704.995
  0
LINE
  8
0
 10
-13.3743
 20
704.995
 11
-13.2191
 21
705.472
  0
LINE
  8
0
 10
-13.2191
 20
705.472
 11
-13.0052
 21
705.927
  0
LINE
  8
0
 10
-13.0052
 20
705.927
 11
-12.7361
 21
706.351
  0
LINE
  8
0
 10
-12.7361
 20
706.351
 11
-12.4159
 21
706.738
  0
LINE
  8
0
 10
-12.4159
 20
706.738
 11
-12.0497
 21
707.082
  0
LINE
  8
0
 10
-12.0497
 20
707.082
 11
-11.6433
 21
707.377
  0
LINE
  8
0
 10
-11.6433
 20
707.377
 11
-11.2031
 21
707.619
  0
LINE
  8
0
 10
-11.2031
 20
707.619
 11
-10.7361
 21
707.804
  0
LINE
  8
0
 10
-10.7361
 20
707.804
 11
-10.2495
 21
707.929
  0
LINE
  8
0
 10
-10.2495
 20
707.929
 11
-9.75116
 21
707.992
  0
LINE
  8
0
 10
-9.75116
 20
707.992
 11
9.75116
 21
707.992
  0
LINE
  8
0
 10
9.75116
 20
707.992
 11
10.2495
 21
707.929
  0
LINE
  8
0
 10
10.2495
 20
707.929
 11
10.7361
 21
707.804
  0
LINE
  8
0
 10
10.7361
 20
707.804
 11
11.2031
 21
707.619
  0
LINE
  8
0
 10
11.2031
 20
707.619
 11
11.6433
 21
707.377
  0
LINE
  8
0
 10
11.6433
 20
707.377
 11
12.0497
 21
707.082
  0
LINE
  8
0
 10
12.0497
 20
707.082
 11
12.4159
 21
706.738
  0
LINE
  8
0
 10
12.4159
 20
706.738
 11
12.7361
 21
706.351
  0
LINE
  8
0
 10
12.7361
 20
706.351
 11
13.0052
 21
705.927
  0
LINE
  8
0
 10
13.0052
 20
705.927
 11
13.2191
 21
705.472
  0
LINE
  8
0
 10
13.2191
 20
705.472
 11
13.3743
 21
704.995
  0
LINE
  8
0
 10
13.3743
 20
704.995
 11
13.4684
 21
704.501
  0
LINE
  8
0
 10
13.4684
 20
704.501
 11
13.5
 21
704
  0
LINE
  8
0
 10
13.5
 20
704
 11
13.5
 21
640
  0
LINE
  8
0
 10
13.5
 20
640
 11
13.4684
 21
639.499
  0
LINE
  8
0
 10
13.4684
 20
639.499
 11
13.3743
 21
639.005
  0
LINE
  8
0
 10
13.3743
 20
639.005
 11
13.2191
 21
638.528
  0
LINE
  8
0
 10
13.2191
 20
638.528
 11
13.0052
 21
638.073
  0
LINE
  8
0
 10
13.0052
 20
638.073
 11
12.7361
 21
637.649
  0
LINE
  8
0
 10
12.7361
 20
637.649
 11
12.4159
 21
637.262
  0
LINE
  8
0
 10
12.4159
 20
637.262
 11
12.0497
 21
636.918
  0
LINE
  8
0
 10
12.0497
 20
636.918
 11
11.6433
 21
636.623
  0
LINE
  8
0
 10
11.6433
 20
636.623
 11
11.2031
 21
636.381
  0
LINE
  8
0
 10
11.2031
 20
636.381
 11
10.7361
 21
636.196
  0
LINE
  8
0
 10
10.7361
 20
636.196
 11
10.2495
 21
636.071
  0
LINE
  8
0
 10
10.2495
 20
636.071
 11
9.75116
 21
636.008
  0
LINE
  8
0
 10
9.75116
 20
636.008
 11
-9.75116
 21
636.008
  0
LINE
  8
0
 10
-13.5
 20
553.007
 11
-13.1448
 21
552.577
  0
LINE
  8
0
 10
-13.1448
 20
552.577
 11
-12.6871
 21
552.147
  0
LINE
  8
0
 10
-12.6871
 20
552.147
 11
-12.1791
 21
551.778
  0
LINE
  8
0
 10
-12.1791
 20
551.778
 11
-11.6289
 21
551.476
  0
LINE
  8
0
 10
-11.6289
 20
551.476
 11
-11.0451
 21
551.245
  0
LINE
  8
0
 10
-11.0451
 20
551.245
 11
-10.4369
 21
551.089
  0
LINE
  8
0
 10
-10.4369
 20
551.089
 11
-9.81395
 21
551.01
  0
LINE
  8
0
 10
-9.81395
 20
551.01
 11
9.81395
 21
551.01
  0
LINE
  8
0
 10
9.81395
 20
551.01
 11
10.4369
 21
551.089
  0
LINE
  8
0
 10
10.4369
 20
551.089
 11
11.0451
 21
551.245
  0
LINE
  8
0
 10
11.0451
 20
551.245
 11
11.6289
 21
551.476
  0
LINE
  8
0
 10
11.6289
 20
551.476
 11
12.1791
 21
551.778
  0
LINE
  8
0
 10
12.1791
 20
551.778
 11
12.6871
 21
552.147
  0
LINE
  8
0
 10
12.6871
 20
552.147
 11
13.1448
 21
552.577
  0
LINE
  8
0
 10
13.1448
 20
552.577
 11
13.5451
 21
553.061
  0
LINE
  8
0
 10
13.5451
 20
553.061
 11
13.8815
 21
553.591
  0
LINE
  8
0
 10
13.8815
 20
553.591
 11
14.1489
 21
554.159
  0
LINE
  8
0
 10
14.1489
 20
554.159
 11
14.3429
 21
554.757
  0
LINE
  8
0
 10
14.3429
 20
554.757
 11
14.4606
 21
555.373
  0
LINE
  8
0
 10
14.4606
 20
555.373
 11
14.5
 21
556
  0
LINE
  8
0
 10
14.5
 20
556
 11
14.5
 21
620
  0
LINE
  8
0
 10
14.5
 20
620
 11
14.4606
 21
620.627
  0
LINE
  8
0
 10
14.4606
 20
620.627
 11
14.3429
 21
621.243
  0
LINE
  8
0
 10
14.3429
 20
621.243
 11
14.1489
 21
621.841
  0
LINE
  8
0
 10
14.1489
 20
621.841
 11
13.8815
 21
622.409
  0
LINE
  8
0
 10
13.8815
 20
622.409
 11
13.5451
 21
622.939
  0
LINE
  8
0
 10
13.5451
 20
622.939
 11
13.1448
 21
623.423
  0
LINE
  8
0
 10
13.1448
 20
623.423
 11
12.6871
 21
623.853
  0
LINE
  8
0
 10
12.6871
 20
623.853
 11
12.1791
 21
624.222
  0
LINE
  8
0
 10
12.1791
 20
624.222
 11
11.6289
 21
624.524
  0
LINE
  8
0
 10
11.6289
 20
624.524
 11
11.0451
 21
624.755
  0
LINE
  8
0
 10
11.0451
 20
624.755
 11
10.4369
 21
624.911
  0
LINE
  8
0
 10
10.4369
 20
624.911
 11
9.81395
 21
624.99
  0
LINE
  8
0
 10
9.81395
 20
624.99
 11
-9.81395
 21
624.99
  0
LINE
  8
0
 10
-9.81395
 20
624.99
 11
-10.4369
 21
624.911
  0
LINE
  8
0
 10
-10.4369
 20
624.911
 11
-11.0451
 21
624.755
  0
LINE
  8
0
 10
-11.0451
 20
624.755
 11
-11.6289
 21
624.524
  0
LINE
  8
0
 10
-11.6289
 20
624.524
 11
-12.1791
 21
624.222
  0
LINE
  8
0
 10
-12.1791
 20
624.222
 11
-12.6871
 21
623.853
  0
LINE
  8
0
 10
-12.6871
 20
623.853
 11
-13.1448
 21
623.423
  0
LINE
  8
0
 10
-13.1448
 20
623.423
 11
-13.5
 21
622.993
  0
LINE
  8
0
 10
-13.5
 20
622.993
 11
-13.5
 21
625.49
  0
LINE
  8
0
 10
-13.5
 20
625.49
 11
-16.5
 21
625.49
  0
LINE
  8
0
 10
-16.5
 20
625.49
 11
-16.5
 21
550.51
  0
LINE
  8
0
 10
-16.5
 20
550.51
 11
-13.5
 21
550.51
  0
LINE
  8
0
 10
-13.5
 20
550.51
 11
-13.5
 21
553.007
  0
LINE
  8
0
 10
-9.75116
 20
552.008
 11
-10.2495
 21
552.071
  0
LINE
  8
0
 10
-10.2495
 20
552.071
 11
-10.7361
 21
552.196
  0
LINE
  8
0
 10
-10.7361
 20
552.196
 11
-11.2031
 21
552.381
  0
LINE
  8
0
 10
-11.2031
 20
552.381
 11
-11.6433
 21
552.623
  0
LINE
  8
0
 10
-11.6433
 20
552.623
 11
-12.0497
 21
552.918
  0
LINE
  8
0
 10
-12.0497
 20
552.918
 11
-12.4159
 21
553.262
  0
LINE
  8
0
 10
-12.4159
 20
553.262
 11
-12.7361
 21
553.649
  0
LINE
  8
0
 10
-12.7361
 20
553.649
 11
-13.0052
 21
554.073
  0
LINE
  8
0
 10
-13.0052
 20
554.073
 11
-13.2191
 21
554.528
  0
LINE
  8
0
 10
-13.2191
 20
554.528
 11
-13.3743
 21
555.005
  0
LINE
  8
0
 10
-13.3743
 20
555.005
 11
-13.4684
 21
555.499
  0
LINE
  8
0
 10
-13.4684
 20
555.499
 11
-13.5
 21
556
  0
LINE
  8
0
 10
-13.5
 20
556
 11
-13.5
 21
620
  0
LINE
  8
0
 10
-13.5
 20
620
 11
-13.4684
 21
620.501
  0
LINE
  8
0
 10
-13.4684
 20
620.501
 11
-13.3743
 21
620.995
  0
LINE
  8
0
 10
-13.3743
 20
620.995
 11
-13.2191
 21
621.472
  0
LINE
  8
0
 10
-13.2191
 20
621.472
 11
-13.0052
 21
621.927
  0
LINE
  8
0
 10
-13.0052
 20
621.927
 11
-12.7361
 21
622.351
  0
LINE
  8
0
 10
-12.7361
 20
622.351
 11
-12.4159
 21
622.738
  0
LINE
  8
0
 10
-12.4159
 20
622.738
 11
-12.0497
 21
623.082
  0
LINE
  8
0
 10
-12.0497
 20
623.082
 11
-11.6433
 21
623.377
  0
LINE
  8
0
 10
-11.6433
 20
623.377
 11
-11.2031
 21
623.619
  0
LINE
  8
0
 10
-11.2031
 20
623.619
 11
-10.7361
 21
623.804
  0
LINE
  8
0
 10
-10.7361
 20
623.804
 11
-10.2495
 21
623.929
  0
LINE
  8
0
 10
-10.2495
 20
623.929
 11
-9.75116
 21
623.992
  0
LINE
  8
0
 10
-9.75116
 20
623.992
 11
9.75116
 21
623.992
  0
LINE
  8
0
 10
9.75116
 20
623.992
 11
10.2495
 21
623.929
  0
LINE
  8
0
 10
10.2495
 20
623.929
 11
10.7361
 21
623.804
  0
LINE
  8
0
 10
10.7361
 20
623.804
 11
11.2031
 21
623.619
  0
LINE
  8
0
 10
11.2031
 20
623.619
 11
11.6433
 21
623.377
  0
LINE
  8
0
 10
11.6433
 20
623.377
 11
12.0497
 21
623.082
  0
LINE
  8
0
 10
12.0497
 20
623.082
 11
12.4159
 21
622.738
  0
LINE
  8
0
 10
12.4159
 20
622.738
 11
12.7361
 21
622.351
  0
LINE
  8
0
 10
12.7361
 20
622.351
 11
13.0052
 21
621.927
  0
LINE
  8
0
 10
13.0052
 20
621.927
 11
13.2191
 21
621.472
  0
LINE
  8
0
 10
13.2191
 20
621.472
 11
13.3743
 21
620.995
  0
LINE
  8
0
 10
13.3743
 20
620.995
 11
13.4684
 21
620.501
  0
LINE
  8
0
 10
13.4684
 20
620.501
 11
13.5
 21
620
  0
LINE
  8
0
 10
13.5
 20
620
 11
13.5
 21
556
  0
LINE
  8
0
 10
13.5
 20
556
 11
13.4684
 21
555.499
  0
LINE
  8
0
 10
13.4684
 20
555.499
 11
13.3743
 21
555.005
  0
LINE
  8
0
 10
13.3743
 20
555.005
 11
13.2191
 21
554.528
  0
LINE
  8
0
 10
13.2191
 20
554.528
 11
13.0052
 21
554.073
  0
LINE
  8
0
 10
13.0052
 20
554.073
 11
12.7361
 21
553.649
  0
LINE
  8
0
 10
12.7361
 20
553.649
 11
12.4159
 21
553.262
  0
LINE
  8
0
 10
12.4159
 20
553.262
 11
12.0497
 21
552.918
  0
LINE
  8
0
 10
12.0497
 20
552.918
 11
11.6433
 21
552.623
  0
LINE
  8
0
 10
11.6433
 20
552.623
 11
11.2031
 21
552.381
  0
LINE
  8
0
 10
11.2031
 20
552.381
 11
10.7361
 21
552.196
  0
LINE
  8
0
 10
10.7361
 20
552.196
 11
10.2495
 21
552.071
  0
LINE
  8
0
 10
10.2495
 20
552.071
 11
9.75116
 21
552.008
  0
LINE
  8
0
 10
9.75116
 20
552.008
 11
-9.75116
 21
552.008
  0
LINE
  8
0
 10
-13.5
 20
469.007
 11
-13.1448
 21
468.577
  0
LINE
  8
0
 10
-13.1448
 20
468.577
 11
-12.6871
 21
468.147
  0
LINE
  8
0
 10
-12.6871
 20
468.147
 11
-12.1791
 21
467.778
  0
LINE
  8
0
 10
-12.1791
 20
467.778
 11
-11.6289
 21
467.476
  0
LINE
  8
0
 10
-11.6289
 20
467.476
 11
-11.0451
 21
467.245
  0
LINE
  8
0
 10
-11.0451
 20
467.245
 11
-10.4369
 21
467.089
  0
LINE
  8
0
 10
-10.4369
 20
467.089
 11
-9.81395
 21
467.01
  0
LINE
  8
0
 10
-9.81395
 20
467.01
 11
9.81395
 21
467.01
  0
LINE
  8
0
 10
9.81395
 20
467.01
 11
10.4369
 21
467.089
  0
LINE
  8
0
 10
10.4369
 20
467.089
 11
11.0451
 21
467.245
  0
LINE
  8
0
 10
11.0451
 20
467.245
 11
11.6289
 21
467.476
  0
LINE
  8
0
 10
11.6289
 20
467.476
 11
12.1791
 21
467.778
  0
LINE
  8
0
 10
12.1791
 20
467.778
 11
12.6871
 21
468.147
  0
LINE
  8
0
 10
12.6871
 20
468.147
 11
13.1448
 21
468.577
  0
LINE
  8
0
 10
13.1448
 20
468.577
 11
13.5451
 21
469.061
  0
LINE
  8
0
 10
13.5451
 20
469.061
 11
13.8815
 21
469.591
  0
LINE
  8
0
 10
13.8815
 20
469.591
 11
14.1489
 21
470.159
  0
LINE
  8
0
 10
14.1489
 20
470.159
 11
14.3429
 21
470.757
  0
LINE
  8
0
 10
14.3429
 20
470.757
 11
14.4606
 21
471.373
  0
LINE
  8
0
 10
14.4606
 20
471.373
 11
14.5
 21
472
  0
LINE
  8
0
 10
14.5
 20
472
 11
14.5
 21
536
  0
LINE
  8
0
 10
14.5
 20
536
 11
14.4606
 21
536.627
  0
LINE
  8
0
 10
14.4606
 20
536.627
 11
14.3429
 21
537.243
  0
LINE
  8
0
 10
14.3429
 20
537.243
 11
14.1489
 21
537.841
  0
LINE
  8
0
 10
14.1489
 20
537.841
 11
13.8815
 21
538.409
  0
LINE
  8
0
 10
13.8815
 20
538.409
 11
13.5451
 21
538.939
  0
LINE
  8
0
 10
13.5451
 20
538.939
 11
13.1448
 21
539.423
  0
LINE
  8
0
 10
13.1448
 20
539.423
 11
12.6871
 21
539.853
  0
LINE
  8
0
 10
12.6871
 20
539.853
 11
12.1791
 21
540.222
  0
LINE
  8
0
 10
12.1791
 20
540.222
 11
11.6289
 21
540.524
  0
LINE
  8
0
 10
11.6289
 20
540.524
 11
11.0451
 21
540.755
  0
LINE
  8
0
 10
11.0451
 20
540.755
 11
10.4369
 21
540.911
  0
LINE
  8
0
 10
10.4369
 20
540.911
 11
9.81395
 21
540.99
  0
LINE
  8
0
 10
9.81395
 20
540.99
 11
-9.81395
 21
540.99
  0
LINE
  8
0
 10
-9.81395
 20
540.99
 11
-10.4369
 21
540.911
  0
LINE
  8
0
 10
-10.4369
 20
540.911
 11
-11.0451
 21
540.755
  0
LINE
  8
0
 10
-11.0451
 20
540.755
 11
-11.6289
 21
540.524
  0
LINE
  8
0
 10
-11.6289
 20
540.524
 11
-12.1791
 21
540.222
  0
LINE
  8
0
 10
-12.1791
 20
540.222
 11
-12.6871
 21
539.853
  0
LINE
  8
0
 10
-12.6871
 20
539.853
 11
-13.1448
 21
539.423
  0
LINE
  8
0
 10
-13.1448
 20
539.423
 11
-13.5
 21
538.993
  0
LINE
  8
0
 10
-13.5
 20
538.993
 11
-13.5
 21
541.479
  0
LINE
  8
0
 10
-13.5
 20
541.479
 11
-16.5
 21
541.479
  0
LINE
  8
0
 10
-16.5
 20
541.479
 11
-16.5
 21
466.521
  0
LINE
  8
0
 10
-16.5
 20
466.521
 11
-13.5
 21
466.521
  0
LINE
  8
0
 10
-13.5
 20
466.521
 11
-13.5
 21
469.007
  0
LINE
  8
0
 10
-9.69545
 20
468.893
 11
-10.0833
 21
468.942
  0
LINE
  8
0
 10
-10.0833
 20
468.942
 11
-10.4619
 21
469.039
  0
LINE
  8
0
 10
-10.4619
 20
469.039
 11
-10.8254
 21
469.183
  0
LINE
  8
0
 10
-10.8254
 20
469.183
 11
-11.168
 21
469.372
  0
LINE
  8
0
 10
-11.168
 20
469.372
 11
-11.4842
 21
469.601
  0
LINE
  8
0
 10
-11.4842
 20
469.601
 11
-11.7692
 21
469.869
  0
LINE
  8
0
 10
-11.7692
 20
469.869
 11
-12.0184
 21
470.17
  0
LINE
  8
0
 10
-12.0184
 20
470.17
 11
-12.2279
 21
470.5
  0
LINE
  8
0
 10
-12.2279
 20
470.5
 11
-12.3943
 21
470.854
  0
LINE
  8
0
 10
-12.3943
 20
470.854
 11
-12.5151
 21
471.226
  0
LINE
  8
0
 10
-12.5151
 20
471.226
 11
-12.5884
 21
471.61
  0
LINE
  8
0
 10
-12.5884
 20
471.61
 11
-12.6129
 21
472
  0
LINE
  8
0
 10
-12.6129
 20
472
 11
-12.6129
 21
536
  0
LINE
  8
0
 10
-12.6129
 20
536
 11
-12.5884
 21
536.39
  0
LINE
  8
0
 10
-12.5884
 20
536.39
 11
-12.5151
 21
536.774
  0
LINE
  8
0
 10
-12.5151
 20
536.774
 11
-12.3943
 21
537.146
  0
LINE
  8
0
 10
-12.3943
 20
537.146
 11
-12.2279
 21
537.5
  0
LINE
  8
0
 10
-12.2279
 20
537.5
 11
-12.0184
 21
537.83
  0
LINE
  8
0
 10
-12.0184
 20
537.83
 11
-11.7692
 21
538.131
  0
LINE
  8
0
 10
-11.7692
 20
538.131
 11
-11.4842
 21
538.399
  0
LINE
  8
0
 10
-11.4842
 20
538.399
 11
-11.168
 21
538.628
  0
LINE
  8
0
 10
-11.168
 20
538.628
 11
-10.8254
 21
538.817
  0
LINE
  8
0
 10
-10.8254
 20
538.817
 11
-10.4619
 21
538.961
  0
LINE
  8
0
 10
-10.4619
 20
538.961
 11
-10.0833
 21
539.058
  0
LINE
  8
0
 10
-10.0833
 20
539.058
 11
-9.69545
 21
539.107
  0
LINE
  8
0
 10
-9.69545
 20
539.107
 11
9.69545
 21
539.107
  0
LINE
  8
0
 10
9.69545
 20
539.107
 11
10.0833
 21
539.058
  0
LINE
  8
0
 10
10.0833
 20
539.058
 11
10.4619
 21
538.961
  0
LINE
  8
0
 10
10.4619
 20
538.961
 11
10.8254
 21
538.817
  0
LINE
  8
0
 10
10.8254
 20
538.817
 11
11.168
 21
538.628
  0
LINE
  8
0
 10
11.168
 20
538.628
 11
11.4842
 21
538.399
  0
LINE
  8
0
 10
11.4842
 20
538.399
 11
11.7692
 21
538.131
  0
LINE
  8
0
 10
11.7692
 20
538.131
 11
12.0184
 21
537.83
  0
LINE
  8
0
 10
12.0184
 20
537.83
 11
12.2279
 21
537.5
  0
LINE
  8
0
 10
12.2279
 20
537.5
 11
12.3943
 21
537.146
  0
LINE
  8
0
 10
12.3943
 20
537.146
 11
12.5151
 21
536.774
  0
LINE
  8
0
 10
12.5151
 20
536.774
 11
12.5884
 21
536.39
  0
LINE
  8
0
 10
12.5884
 20
536.39
 11
12.6129
 21
536
  0
LINE
  8
0
 10
12.6129
 20
536
 11
12.6129
 21
472
  0
LINE
  8
0
 10
12.6129
 20
472
 11
12.5884
 21
471.61
  0
LINE
  8
0
 10
12.5884
 20
471.61
 11
12.5151
 21
471.226
  0
LINE
  8
0
 10
12.5151
 20
471.226
 11
12.3943
 21
470.854
  0
LINE
  8
0
 10
12.3943
 20
470.854
 11
12.2279
 21
470.5
  0
LINE
  8
0
 10
12.2279
 20
470.5
 11
12.0184
 21
470.17
  0
LINE
  8
0
 10
12.0184
 20
470.17
 11
11.7692
 21
469.869
  0
LINE
  8
0
 10
11.7692
 20
469.869
 11
11.4842
 21
469.601
  0
LINE
  8
0
 10
11.4842
 20
469.601
 11
11.168
 21
469.372
  0
LINE
  8
0
 10
11.168
 20
469.372
 11
10.8254
 21
469.183
  0
LINE
  8
0
 10
10.8254
 20
469.183
 11
10.4619
 21
469.039
  0
LINE
  8
0
 10
10.4619
 20
469.039
 11
10.0833
 21
468.942
  0
LINE
  8
0
 10
10.0833
 20
468.942
 11
9.69545
 21
468.893
  0
LINE
  8
0
 10
9.69545
 20
468.893
 11
-9.69545
 21
468.893
  0
LINE
  8
0
 10
10.4369
 20
383.089
 11
11.0451
 21
383.245
  0
LINE
  8
0
 10
11.0451
 20
383.245
 11
11.6289
 21
383.476
  0
LINE
  8
0
 10
11.6289
 20
383.476
 11
12.1791
 21
383.778
  0
LINE
  8
0
 10
12.1791
 20
383.778
 11
12.6871
 21
384.147
  0
LINE
  8
0
 10
12.6871
 20
384.147
 11
13.1448
 21
384.577
  0
LINE
  8
0
 10
13.1448
 20
384.577
 11
13.5451
 21
385.061
  0
LINE
  8
0
 10
13.5451
 20
385.061
 11
13.8815
 21
385.591
  0
LINE
  8
0
 10
13.8815
 20
385.591
 11
14.1489
 21
386.159
  0
LINE
  8
0
 10
14.1489
 20
386.159
 11
14.3429
 21
386.757
  0
LINE
  8
0
 10
14.3429
 20
386.757
 11
14.4606
 21
387.373
  0
LINE
  8
0
 10
14.4606
 20
387.373
 11
14.5
 21
388
  0
LINE
  8
0
 10
14.5
 20
388
 11
14.5
 21
452
  0
LINE
  8
0
 10
14.5
 20
452
 11
14.4606
 21
452.627
  0
LINE
  8
0
 10
14.4606
 20
452.627
 11
14.3429
 21
453.243
  0
LINE
  8
0
 10
14.3429
 20
453.243
 11
14.1489
 21
453.841
  0
LINE
  8
0
 10
14.1489
 20
453.841
 11
13.8815
 21
454.409
  0
LINE
  8
0
 10
13.8815
 20
454.409
 11
13.5451
 21
454.939
  0
LINE
  8
0
 10
13.5451
 20
454.939
 11
13.1448
 21
455.423
  0
LINE
  8
0
 10
13.1448
 20
455.423
 11
12.6871
 21
455.853
  0
LINE
  8
0
 10
12.6871
 20
455.853
 11
12.1791
 21
456.222
  0
LINE
  8
0
 10
12.1791
 20
456.222
 11
11.6289
 21
456.524
  0
LINE
  8
0
 10
11.6289
 20
456.524
 11
11.0451
 21
456.755
  0
LINE
  8
0
 10
11.0451
 20
456.755
 11
10.4369
 21
456.911
  0
LINE
  8
0
 10
10.4369
 20
456.911
 11
9.81395
 21
456.99
  0
LINE
  8
0
 10
9.81395
 20
456.99
 11
-9.81395
 21
456.99
  0
LINE
  8
0
 10
-9.81395
 20
456.99
 11
-10.4369
 21
456.911
  0
LINE
  8
0
 10
-10.4369
 20
456.911
 11
-11.0451
 21
456.755
  0
LINE
  8
0
 10
-11.0451
 20
456.755
 11
-11.6289
 21
456.524
  0
LINE
  8
0
 10
-11.6289
 20
456.524
 11
-12.1791
 21
456.222
  0
LINE
  8
0
 10
-12.1791
 20
456.222
 11
-12.6871
 21
455.853
  0
LINE
  8
0
 10
-12.6871
 20
455.853
 11
-13.1448
 21
455.423
  0
LINE
  8
0
 10
-13.1448
 20
455.423
 11
-13.5
 21
454.993
  0
LINE
  8
0
 10
-13.5
 20
454.993
 11
-13.5
 21
456.153
  0
LINE
  8
0
 10
-13.5
 20
456.153
 11
-16.5
 21
456.153
  0
LINE
  8
0
 10
-16.5
 20
456.153
 11
-16.5
 21
383.847
  0
LINE
  8
0
 10
-16.5
 20
383.847
 11
-13.5
 21
383.847
  0
LINE
  8
0
 10
-13.5
 20
383.847
 11
-13.5
 21
385.007
  0
LINE
  8
0
 10
-13.5
 20
385.007
 11
-13.1448
 21
384.577
  0
LINE
  8
0
 10
-13.1448
 20
384.577
 11
-12.6871
 21
384.147
  0
LINE
  8
0
 10
-12.6871
 20
384.147
 11
-12.1791
 21
383.778
  0
LINE
  8
0
 10
-12.1791
 20
383.778
 11
-11.6289
 21
383.476
  0
LINE
  8
0
 10
-11.6289
 20
383.476
 11
-11.0451
 21
383.245
  0
LINE
  8
0
 10
-11.0451
 20
383.245
 11
-10.4369
 21
383.089
  0
LINE
  8
0
 10
-10.4369
 20
383.089
 11
-9.81395
 21
383.01
  0
LINE
  8
0
 10
-9.81395
 20
383.01
 11
9.81395
 21
383.01
  0
LINE
  8
0
 10
9.81395
 20
383.01
 11
10.4369
 21
383.089
  0
LINE
  8
0
 10
7.34929
 20
447.605
 11
7.05028
 21
447.643
  0
LINE
  8
0
 10
7.05028
 20
447.643
 11
6.75835
 21
447.717
  0
LINE
  8
0
 10
6.75835
 20
447.717
 11
6.47812
 21
447.828
  0
LINE
  8
0
 10
6.47812
 20
447.828
 11
6.214
 21
447.974
  0
LINE
  8
0
 10
6.214
 20
447.974
 11
5.97017
 21
448.151
  0
LINE
  8
0
 10
5.97017
 20
448.151
 11
5.75047
 21
448.357
  0
LINE
  8
0
 10
5.75047
 20
448.357
 11
5.55835
 21
448.589
  0
LINE
  8
0
 10
5.55835
 20
448.589
 11
5.39685
 21
448.844
  0
LINE
  8
0
 10
5.39685
 20
448.844
 11
5.26852
 21
449.117
  0
LINE
  8
0
 10
5.26852
 20
449.117
 11
5.1754
 21
449.403
  0
LINE
  8
0
 10
5.1754
 20
449.403
 11
5.11891
 21
449.699
  0
LINE
  8
0
 10
5.11891
 20
449.699
 11
5.09999
 21
450
  0
LINE
  8
0
 10
5.09999
 20
450
 11
5.11891
 21
450.301
  0
LINE
  8
0
 10
5.11891
 20
450.301
 11
5.1754
 21
450.597
  0
LINE
  8
0
 10
5.1754
 20
450.597
 11
5.26852
 21
450.883
  0
LINE
  8
0
 10
5.26852
 20
450.883
 11
5.39685
 21
451.156
  0
LINE
  8
0
 10
5.39685
 20
451.156
 11
5.55835
 21
451.411
  0
LINE
  8
0
 10
5.55835
 20
451.411
 11
5.75047
 21
451.643
  0
LINE
  8
0
 10
5.75047
 20
451.643
 11
5.97017
 21
451.849
  0
LINE
  8
0
 10
5.97017
 20
451.849
 11
6.214
 21
452.026
  0
LINE
  8
0
 10
6.214
 20
452.026
 11
6.47812
 21
452.172
  0
LINE
  8
0
 10
6.47812
 20
452.172
 11
6.75835
 21
452.283
  0
LINE
  8
0
 10
6.75835
 20
452.283
 11
7.05028
 21
452.357
  0
LINE
  8
0
 10
7.05028
 20
452.357
 11
7.34929
 21
452.395
  0
LINE
  8
0
 10
7.34929
 20
452.395
 11
7.6507
 21
452.395
  0
LINE
  8
0
 10
7.6507
 20
452.395
 11
7.94971
 21
452.357
  0
LINE
  8
0
 10
7.94971
 20
452.357
 11
8.24164
 21
452.283
  0
LINE
  8
0
 10
8.24164
 20
452.283
 11
8.52187
 21
452.172
  0
LINE
  8
0
 10
8.52187
 20
452.172
 11
8.78598
 21
452.026
  0
LINE
  8
0
 10
8.78598
 20
452.026
 11
9.02982
 21
451.849
  0
LINE
  8
0
 10
9.02982
 20
451.849
 11
9.24951
 21
451.643
  0
LINE
  8
0
 10
9.24951
 20
451.643
 11
9.44164
 21
451.411
  0
LINE
  8
0
 10
9.44164
 20
451.411
 11
9.60313
 21
451.156
  0
LINE
  8
0
 10
9.60313
 20
451.156
 11
9.73146
 21
450.883
  0
LINE
  8
0
 10
9.73146
 20
450.883
 11
9.82458
 21
450.597
  0
LINE
  8
0
 10
9.82458
 20
450.597
 11
9.88107
 21
450.301
  0
LINE
  8
0
 10
9.88107
 20
450.301
 11
9.89999
 21
450
  0
LINE
  8
0
 10
9.89999
 20
450
 11
9.88107
 21
449.699
  0
LINE
  8
0
 10
9.88107
 20
449.699
 11
9.82458
 21
449.403
  0
LINE
  8
0
 10
9.82458
 20
449.403
 11
9.73146
 21
449.117
  0
LINE
  8
0
 10
9.73146
 20
449.117
 11
9.60313
 21
448.844
  0
LINE
  8
0
 10
9.60313
 20
448.844
 11
9.44164
 21
448.589
  0
LINE
  8
0
 10
9.44164
 20
448.589
 11
9.24951
 21
448.357
  0
LINE
  8
0
 10
9.24951
 20
448.357
 11
9.02982
 21
448.151
  0
LINE
  8
0
 10
9.02982
 20
448.151
 11
8.78598
 21
447.974
  0
LINE
  8
0
 10
8.78598
 20
447.974
 11
8.52187
 21
447.828
  0
LINE
  8
0
 10
8.52187
 20
447.828
 11
8.24164
 21
447.717
  0
LINE
  8
0
 10
8.24164
 20
447.717
 11
7.94971
 21
447.643
  0
LINE
  8
0
 10
7.94971
 20
447.643
 11
7.6507
 21
447.605
  0
LINE
  8
0
 10
7.6507
 20
447.605
 11
7.34929
 21
447.605
  0
LINE
  8
0
 10
-7.6507
 20
447.605
 11
-7.94971
 21
447.643
  0
LINE
  8
0
 10
-7.94971
 20
447.643
 11
-8.24164
 21
447.717
  0
LINE
  8
0
 10
-8.24164
 20
447.717
 11
-8.52187
 21
447.828
  0
LINE
  8
0
 10
-8.52187
 20
447.828
 11
-8.78598
 21
447.974
  0
LINE
  8
0
 10
-8.78598
 20
447.974
 11
-9.02982
 21
448.151
  0
LINE
  8
0
 10
-9.02982
 20
448.151
 11
-9.24951
 21
448.357
  0
LINE
  8
0
 10
-9.24951
 20
448.357
 11
-9.44164
 21
448.589
  0
LINE
  8
0
 10
-9.44164
 20
448.589
 11
-9.60313
 21
448.844
  0
LINE
  8
0
 10
-9.60313
 20
448.844
 11
-9.73146
 21
449.117
  0
LINE
  8
0
 10
-9.73146
 20
449.117
 11
-9.82458
 21
449.403
  0
LINE
  8
0
 10
-9.82458
 20
449.403
 11
-9.88107
 21
449.699
  0
LINE
  8
0
 10
-9.88107
 20
449.699
 11
-9.89999
 21
450
  0
LINE
  8
0
 10
-9.89999
 20
450
 11
-9.88107
 21
450.301
  0
LINE
  8
0
 10
-9.88107
 20
450.301
 11
-9.82458
 21
450.597
  0
LINE
  8
0
 10
-9.82458
 20
450.597
 11
-9.73146
 21
450.883
  0
LINE
  8
0
 10
-9.73146
 20
450.883
 11
-9.60313
 21
451.156
  0
LINE
  8
0
 10
-9.60313
 20
451.156
 11
-9.44164
 21
451.411
  0
LINE
  8
0
 10
-9.44164
 20
451.411
 11
-9.24951
 21
451.643
  0
LINE
  8
0
 10
-9.24951
 20
451.643
 11
-9.02982
 21
451.849
  0
LINE
  8
0
 10
-9.02982
 20
451.849
 11
-8.78598
 21
452.026
  0
LINE
  8
0
 10
-8.78598
 20
452.026
 11
-8.52187
 21
452.172
  0
LINE
  8
0
 10
-8.52187
 20
452.172
 11
-8.24164
 21
452.283
  0
LINE
  8
0
 10
-8.24164
 20
452.283
 11
-7.94971
 21
452.357
  0
LINE
  8
0
 10
-7.94971
 20
452.357
 11
-7.6507
 21
452.395
  0
LINE
  8
0
 10
-7.6507
 20
452.395
 11
-7.34929
 21
452.395
  0
LINE
  8
0
 10
-7.34929
 20
452.395
 11
-7.05028
 21
452.357
  0
LINE
  8
0
 10
-7.05028
 20
452.357
 11
-6.75835
 21
452.283
  0
LINE
  8
0
 10
-6.75835
 20
452.283
 11
-6.47812
 21
452.172
  0
LINE
  8
0
 10
-6.47812
 20
452.172
 11
-6.214
 21
452.026
  0
LINE
  8
0
 10
-6.214
 20
452.026
 11
-5.97017
 21
451.849
  0
LINE
  8
0
 10
-5.97017
 20
451.849
 11
-5.75047
 21
451.643
  0
LINE
  8
0
 10
-5.75047
 20
451.643
 11
-5.55835
 21
451.411
  0
LINE
  8
0
 10
-5.55835
 20
451.411
 11
-5.39685
 21
451.156
  0
LINE
  8
0
 10
-5.39685
 20
451.156
 11
-5.26852
 21
450.883
  0
LINE
  8
0
 10
-5.26852
 20
450.883
 11
-5.1754
 21
450.597
  0
LINE
  8
0
 10
-5.1754
 20
450.597
 11
-5.11891
 21
450.301
  0
LINE
  8
0
 10
-5.11891
 20
450.301
 11
-5.09999
 21
450
  0
LINE
  8
0
 10
-5.09999
 20
450
 11
-5.11891
 21
449.699
  0
LINE
  8
0
 10
-5.11891
 20
449.699
 11
-5.1754
 21
449.403
  0
LINE
  8
0
 10
-5.1754
 20
449.403
 11
-5.26852
 21
449.117
  0
LINE
  8
0
 10
-5.26852
 20
449.117
 11
-5.39685
 21
448.844
  0
LINE
  8
0
 10
-5.39685
 20
448.844
 11
-5.55835
 21
448.589
  0
LINE
  8
0
 10
-5.55835
 20
448.589
 11
-5.75047
 21
448.357
  0
LINE
  8
0
 10
-5.75047
 20
448.357
 11
-5.97017
 21
448.151
  0
LINE
  8
0
 10
-5.97017
 20
448.151
 11
-6.214
 21
447.974
  0
LINE
  8
0
 10
-6.214
 20
447.974
 11
-6.47812
 21
447.828
  0
LINE
  8
0
 10
-6.47812
 20
447.828
 11
-6.75835
 21
447.717
  0
LINE
  8
0
 10
-6.75835
 20
447.717
 11
-7.05028
 21
447.643
  0
LINE
  8
0
 10
-7.05028
 20
447.643
 11
-7.34929
 21
447.605
  0
LINE
  8
0
 10
-7.34929
 20
447.605
 11
-7.6507
 21
447.605
  0
LINE
  8
0
 10
7.34929
 20
387.605
 11
7.05028
 21
387.643
  0
LINE
  8
0
 10
7.05028
 20
387.643
 11
6.75835
 21
387.717
  0
LINE
  8
0
 10
6.75835
 20
387.717
 11
6.47812
 21
387.828
  0
LINE
  8
0
 10
6.47812
 20
387.828
 11
6.214
 21
387.974
  0
LINE
  8
0
 10
6.214
 20
387.974
 11
5.97017
 21
388.151
  0
LINE
  8
0
 10
5.97017
 20
388.151
 11
5.75047
 21
388.357
  0
LINE
  8
0
 10
5.75047
 20
388.357
 11
5.55835
 21
388.589
  0
LINE
  8
0
 10
5.55835
 20
388.589
 11
5.39685
 21
388.844
  0
LINE
  8
0
 10
5.39685
 20
388.844
 11
5.26852
 21
389.117
  0
LINE
  8
0
 10
5.26852
 20
389.117
 11
5.1754
 21
389.403
  0
LINE
  8
0
 10
5.1754
 20
389.403
 11
5.11891
 21
389.699
  0
LINE
  8
0
 10
5.11891
 20
389.699
 11
5.09999
 21
390
  0
LINE
  8
0
 10
5.09999
 20
390
 11
5.11891
 21
390.301
  0
LINE
  8
0
 10
5.11891
 20
390.301
 11
5.1754
 21
390.597
  0
LINE
  8
0
 10
5.1754
 20
390.597
 11
5.26852
 21
390.883
  0
LINE
  8
0
 10
5.26852
 20
390.883
 11
5.39685
 21
391.156
  0
LINE
  8
0
 10
5.39685
 20
391.156
 11
5.55835
 21
391.411
  0
LINE
  8
0
 10
5.55835
 20
391.411
 11
5.75047
 21
391.643
  0
LINE
  8
0
 10
5.75047
 20
391.643
 11
5.97017
 21
391.849
  0
LINE
  8
0
 10
5.97017
 20
391.849
 11
6.214
 21
392.026
  0
LINE
  8
0
 10
6.214
 20
392.026
 11
6.47812
 21
392.172
  0
LINE
  8
0
 10
6.47812
 20
392.172
 11
6.75835
 21
392.283
  0
LINE
  8
0
 10
6.75835
 20
392.283
 11
7.05028
 21
392.357
  0
LINE
  8
0
 10
7.05028
 20
392.357
 11
7.34929
 21
392.395
  0
LINE
  8
0
 10
7.34929
 20
392.395
 11
7.6507
 21
392.395
  0
LINE
  8
0
 10
7.6507
 20
392.395
 11
7.94971
 21
392.357
  0
LINE
  8
0
 10
7.94971
 20
392.357
 11
8.24164
 21
392.283
  0
LINE
  8
0
 10
8.24164
 20
392.283
 11
8.52187
 21
392.172
  0
LINE
  8
0
 10
8.52187
 20
392.172
 11
8.78598
 21
392.026
  0
LINE
  8
0
 10
8.78598
 20
392.026
 11
9.02982
 21
391.849
  0
LINE
  8
0
 10
9.02982
 20
391.849
 11
9.24951
 21
391.643
  0
LINE
  8
0
 10
9.24951
 20
391.643
 11
9.44164
 21
391.411
  0
LINE
  8
0
 10
9.44164
 20
391.411
 11
9.60313
 21
391.156
  0
LINE
  8
0
 10
9.60313
 20
391.156
 11
9.73146
 21
390.883
  0
LINE
  8
0
 10
9.73146
 20
390.883
 11
9.82458
 21
390.597
  0
LINE
  8
0
 10
9.82458
 20
390.597
 11
9.88107
 21
390.301
  0
LINE
  8
0
 10
9.88107
 20
390.301
 11
9.89999
 21
390
  0
LINE
  8
0
 10
9.89999
 20
390
 11
9.88107
 21
389.699
  0
LINE
  8
0
 10
9.88107
 20
389.699
 11
9.82458
 21
389.403
  0
LINE
  8
0
 10
9.82458
 20
389.403
 11
9.73146
 21
389.117
  0
LINE
  8
0
 10
9.73146
 20
389.117
 11
9.60313
 21
388.844
  0
LINE
  8
0
 10
9.60313
 20
388.844
 11
9.44164
 21
388.589
  0
LINE
  8
0
 10
9.44164
 20
388.589
 11
9.24951
 21
388.357
  0
LINE
  8
0
 10
9.24951
 20
388.357
 11
9.02982
 21
388.151
  0
LINE
  8
0
 10
9.02982
 20
388.151
 11
8.78598
 21
387.974
  0
LINE
  8
0
 10
8.78598
 20
387.974
 11
8.52187
 21
387.828
  0
LINE
  8
0
 10
8.52187
 20
387.828
 11
8.24164
 21
387.717
  0
LINE
  8
0
 10
8.24164
 20
387.717
 11
7.94971
 21
387.643
  0
LINE
  8
0
 10
7.94971
 20
387.643
 11
7.6507
 21
387.605
  0
LINE
  8
0
 10
7.6507
 20
387.605
 11
7.34929
 21
387.605
  0
LINE
  8
0
 10
-7.6507
 20
387.605
 11
-7.94971
 21
387.643
  0
LINE
  8
0
 10
-7.94971
 20
387.643
 11
-8.24164
 21
387.717
  0
LINE
  8
0
 10
-8.24164
 20
387.717
 11
-8.52187
 21
387.828
  0
LINE
  8
0
 10
-8.52187
 20
387.828
 11
-8.78598
 21
387.974
  0
LINE
  8
0
 10
-8.78598
 20
387.974
 11
-9.02982
 21
388.151
  0
LINE
  8
0
 10
-9.02982
 20
388.151
 11
-9.24951
 21
388.357
  0
LINE
  8
0
 10
-9.24951
 20
388.357
 11
-9.44164
 21
388.589
  0
LINE
  8
0
 10
-9.44164
 20
388.589
 11
-9.60313
 21
388.844
  0
LINE
  8
0
 10
-9.60313
 20
388.844
 11
-9.73146
 21
389.117
  0
LINE
  8
0
 10
-9.73146
 20
389.117
 11
-9.82458
 21
389.403
  0
LINE
  8
0
 10
-9.82458
 20
389.403
 11
-9.88107
 21
389.699
  0
LINE
  8
0
 10
-9.88107
 20
389.699
 11
-9.89999
 21
390
  0
LINE
  8
0
 10
-9.89999
 20
390
 11
-9.88107
 21
390.301
  0
LINE
  8
0
 10
-9.88107
 20
390.301
 11
-9.82458
 21
390.597
  0
LINE
  8
0
 10
-9.82458
 20
390.597
 11
-9.73146
 21
390.883
  0
LINE
  8
0
 10
-9.73146
 20
390.883
 11
-9.60313
 21
391.156
  0
LINE
  8
0
 10
-9.60313
 20
391.156
 11
-9.44164
 21
391.411
  0
LINE
  8
0
 10
-9.44164
 20
391.411
 11
-9.24951
 21
391.643
  0
LINE
  8
0
 10
-9.24951
 20
391.643
 11
-9.02982
 21
391.849
  0
LINE
  8
0
 10
-9.02982
 20
391.849
 11
-8.78598
 21
392.026
  0
LINE
  8
0
 10
-8.78598
 20
392.026
 11
-8.52187
 21
392.172
  0
LINE
  8
0
 10
-8.52187
 20
392.172
 11
-8.24164
 21
392.283
  0
LINE
  8
0
 10
-8.24164
 20
392.283
 11
-7.94971
 21
392.357
  0
LINE
  8
0
 10
-7.94971
 20
392.357
 11
-7.6507
 21
392.395
  0
LINE
  8
0
 10
-7.6507
 20
392.395
 11
-7.34929
 21
392.395
  0
LINE
  8
0
 10
-7.34929
 20
392.395
 11
-7.05028
 21
392.357
  0
LINE
  8
0
 10
-7.05028
 20
392.357
 11
-6.75835
 21
392.283
  0
LINE
  8
0
 10
-6.75835
 20
392.283
 11
-6.47812
 21
392.172
  0
LINE
  8
0
 10
-6.47812
 20
392.172
 11
-6.214
 21
392.026
  0
LINE
  8
0
 10
-6.214
 20
392.026
 11
-5.97017
 21
391.849
  0
LINE
  8
0
 10
-5.97017
 20
391.849
 11
-5.75047
 21
391.643
  0
LINE
  8
0
 10
-5.75047
 20
391.643
 11
-5.55835
 21
391.411
  0
LINE
  8
0
 10
-5.55835
 20
391.411
 11
-5.39685
 21
391.156
  0
LINE
  8
0
 10
-5.39685
 20
391.156
 11
-5.26852
 21
390.883
  0
LINE
  8
0
 10
-5.26852
 20
390.883
 11
-5.1754
 21
390.597
  0
LINE
  8
0
 10
-5.1754
 20
390.597
 11
-5.11891
 21
390.301
  0
LINE
  8
0
 10
-5.11891
 20
390.301
 11
-5.09999
 21
390
  0
LINE
  8
0
 10
-5.09999
 20
390
 11
-5.11891
 21
389.699
  0
LINE
  8
0
 10
-5.11891
 20
389.699
 11
-5.1754
 21
389.403
  0
LINE
  8
0
 10
-5.1754
 20
389.403
 11
-5.26852
 21
389.117
  0
LINE
  8
0
 10
-5.26852
 20
389.117
 11
-5.39685
 21
388.844
  0
LINE
  8
0
 10
-5.39685
 20
388.844
 11
-5.55835
 21
388.589
  0
LINE
  8
0
 10
-5.55835
 20
388.589
 11
-5.75047
 21
388.357
  0
LINE
  8
0
 10
-5.75047
 20
388.357
 11
-5.97017
 21
388.151
  0
LINE
  8
0
 10
-5.97017
 20
388.151
 11
-6.214
 21
387.974
  0
LINE
  8
0
 10
-6.214
 20
387.974
 11
-6.47812
 21
387.828
  0
LINE
  8
0
 10
-6.47812
 20
387.828
 11
-6.75835
 21
387.717
  0
LINE
  8
0
 10
-6.75835
 20
387.717
 11
-7.05028
 21
387.643
  0
LINE
  8
0
 10
-7.05028
 20
387.643
 11
-7.34929
 21
387.605
  0
LINE
  8
0
 10
-7.34929
 20
387.605
 11
-7.6507
 21
387.605
  0
ENDSEC
  0
SECTION
  2
OBJECTS
  0
DICTIONARY
  0
ENDSEC
  0
EOF
