<?xml version="1.0" standalone="no"?>
<!DOCTYPE svg PUBLIC "-//W3C//DTD SVG 1.1//EN" "http://www.w3.org/Graphics/SVG/1.1/DTD/svg11.dtd">
<svg width="62mm" height="172mm" viewBox="-31 -141 62 172" xmlns="http://www.w3.org/2000/svg" version="1.1">
<title>OpenSCAD Model</title>
<path d="
M 5.80351,-79.5769 L 9.57079,-80.5441 L 13.1871,-81.976 L 16.5955,-83.8497 L 19.7421,-86.1359 L 22.5774,-88.7984
 L 25.0566,-91.7953 L 27.1407,-95.0793 L 28.7968,-98.5986 L 29.9987,-102.298 L 30.7275,-106.118 L 30.9717,-110
 L 30.7275,-113.882 L 29.9987,-117.702 L 28.7968,-121.401 L 27.1407,-124.921 L 25.0566,-128.205 L 22.5774,-131.202
 L 19.7421,-133.864 L 16.5955,-136.15 L 13.1871,-138.024 L 9.57079,-139.456 L 5.80351,-140.423 L 1.94472,-140.911
 L -1.94472,-140.911 L -5.80351,-140.423 L -9.57079,-139.456 L -13.1871,-138.024 L -16.5955,-136.15 L -19.7421,-133.864
 L -22.5774,-131.202 L -25.0566,-128.205 L -27.1407,-124.921 L -28.7968,-121.401 L -29.9987,-117.702 L -30.7275,-113.882
 L -30.9717,-110 L -30.7275,-106.118 L -29.9987,-102.298 L -28.7968,-98.5986 L -27.1407,-95.0793 L -25.0566,-91.7953
 L -22.5774,-88.7984 L -19.7421,-86.1359 L -16.5955,-83.8497 L -13.1871,-81.976 L -9.57079,-80.5441 L -5.80351,-79.5769
 L -1.94472,-79.0894 L 1.94472,-79.0894 z
M -0.18837,-122.006 L -0.562134,-122.053 L -0.927048,-122.147 L -1.27733,-122.286 L -1.60747,-122.467 L -1.91226,-122.688
 L -2.1869,-122.946 L -2.42705,-123.237 L -2.62891,-123.555 L -2.78932,-123.896 L -2.90575,-124.254 L -2.97633,-124.624
 L -3,-125 L -2.97633,-125.376 L -2.90575,-125.746 L -2.78932,-126.104 L -2.62891,-126.445 L -2.42705,-126.763
 L -2.1869,-127.054 L -1.91226,-127.312 L -1.60747,-127.533 L -1.27733,-127.714 L -0.927048,-127.853 L -0.562134,-127.947
 L -0.18837,-127.994 L 0.18837,-127.994 L 0.562134,-127.947 L 0.927048,-127.853 L 1.27733,-127.714 L 1.60747,-127.533
 L 1.91226,-127.312 L 2.1869,-127.054 L 2.42705,-126.763 L 2.62891,-126.445 L 2.78932,-126.104 L 2.90575,-125.746
 L 2.97633,-125.376 L 3,-125 L 2.97633,-124.624 L 2.90575,-124.254 L 2.78932,-123.896 L 2.62891,-123.555
 L 2.42705,-123.237 L 2.1869,-122.946 L 1.91226,-122.688 L 1.60747,-122.467 L 1.27733,-122.286 L 0.927048,-122.147
 L 0.562134,-122.053 L 0.18837,-122.006 z
M -10.7954,-117.613 L -11.1691,-117.66 L -11.534,-117.754 L -11.8843,-117.893 L -12.2145,-118.074 L -12.5193,-118.295
 L -12.7939,-118.553 L -13.034,-118.844 L -13.2359,-119.162 L -13.3963,-119.503 L -13.5127,-119.861 L -13.5833,-120.231
 L -13.607,-120.607 L -13.5833,-120.983 L -13.5127,-121.353 L -13.3963,-121.711 L -13.2359,-122.052 L -13.034,-122.37
 L -12.7939,-122.661 L -12.5193,-122.919 L -12.2145,-123.14 L -11.8843,-123.321 L -11.534,-123.46 L -11.1691,-123.554
 L -10.7954,-123.601 L -10.4186,-123.601 L -10.0448,-123.554 L -9.67995,-123.46 L -9.32965,-123.321 L -8.99951,-123.14
 L -8.69472,-122.919 L -8.42009,-122.661 L -8.17995,-122.37 L -7.97807,-122.052 L -7.81766,-121.711 L -7.70125,-121.353
 L -7.63065,-120.983 L -7.60699,-120.607 L -7.63065,-120.231 L -7.70125,-119.861 L -7.81766,-119.503 L -7.97807,-119.162
 L -8.17995,-118.844 L -8.42009,-118.553 L -8.69472,-118.295 L -8.99951,-118.074 L -9.32965,-117.893 L -9.67995,-117.754
 L -10.0448,-117.66 L -10.4186,-117.613 z
M 10.4186,-117.613 L 10.0448,-117.66 L 9.67995,-117.754 L 9.32965,-117.893 L 8.99951,-118.074 L 8.69472,-118.295
 L 8.42009,-118.553 L 8.17995,-118.844 L 7.97807,-119.162 L 7.81766,-119.503 L 7.70125,-119.861 L 7.63065,-120.231
 L 7.60699,-120.607 L 7.63065,-120.983 L 7.70125,-121.353 L 7.81766,-121.711 L 7.97807,-122.052 L 8.17995,-122.37
 L 8.42009,-122.661 L 8.69472,-122.919 L 8.99951,-123.14 L 9.32965,-123.321 L 9.67995,-123.46 L 10.0448,-123.554
 L 10.4186,-123.601 L 10.7954,-123.601 L 11.1691,-123.554 L 11.534,-123.46 L 11.8843,-123.321 L 12.2145,-123.14
 L 12.5193,-122.919 L 12.7939,-122.661 L 13.034,-122.37 L 13.2359,-122.052 L 13.3963,-121.711 L 13.5127,-121.353
 L 13.5833,-120.983 L 13.607,-120.607 L 13.5833,-120.231 L 13.5127,-119.861 L 13.3963,-119.503 L 13.2359,-119.162
 L 13.034,-118.844 L 12.7939,-118.553 L 12.5193,-118.295 L 12.2145,-118.074 L 11.8843,-117.893 L 11.534,-117.754
 L 11.1691,-117.66 L 10.7954,-117.613 z
M -0.0941772,-116.003 L -0.281067,-116.027 L -0.463516,-116.073 L -0.638657,-116.143 L -0.803726,-116.234 L -0.956131,-116.344
 L -1.09344,-116.473 L -1.21352,-116.618 L -1.31445,-116.777 L -1.39465,-116.948 L -1.45287,-117.127 L -1.48816,-117.312
 L -1.5,-117.5 L -1.48816,-117.688 L -1.45287,-117.873 L -1.39465,-118.052 L -1.31445,-118.223 L -1.21352,-118.382
 L -1.09344,-118.527 L -0.956131,-118.656 L -0.803726,-118.766 L -0.638657,-118.857 L -0.463516,-118.927 L -0.281067,-118.973
 L -0.0941772,-118.997 L 0.0941772,-118.997 L 0.281067,-118.973 L 0.463516,-118.927 L 0.638657,-118.857 L 0.803726,-118.766
 L 0.956131,-118.656 L 1.09344,-118.527 L 1.21352,-118.382 L 1.31445,-118.223 L 1.39465,-118.052 L 1.45287,-117.873
 L 1.48816,-117.688 L 1.5,-117.5 L 1.48816,-117.312 L 1.45287,-117.127 L 1.39465,-116.948 L 1.31445,-116.777
 L 1.21352,-116.618 L 1.09344,-116.473 L 0.956131,-116.344 L 0.803726,-116.234 L 0.638657,-116.143 L 0.463516,-116.073
 L 0.281067,-116.027 L 0.0941772,-116.003 z
M 14.8116,-107.006 L 14.4379,-107.053 L 14.0729,-107.147 L 13.7227,-107.286 L 13.3925,-107.467 L 13.0877,-107.688
 L 12.8131,-107.946 L 12.5729,-108.237 L 12.3711,-108.555 L 12.2107,-108.896 L 12.0942,-109.254 L 12.0237,-109.624
 L 12,-110 L 12.0237,-110.376 L 12.0942,-110.746 L 12.2107,-111.104 L 12.3711,-111.445 L 12.5729,-111.763
 L 12.8131,-112.054 L 13.0877,-112.312 L 13.3925,-112.533 L 13.7227,-112.714 L 14.0729,-112.853 L 14.4379,-112.947
 L 14.8116,-112.994 L 15.1884,-112.994 L 15.5621,-112.947 L 15.927,-112.853 L 16.2773,-112.714 L 16.6075,-112.533
 L 16.9123,-112.312 L 17.1869,-112.054 L 17.427,-111.763 L 17.6289,-111.445 L 17.7893,-111.104 L 17.9057,-110.746
 L 17.9763,-110.376 L 18,-110 L 17.9763,-109.624 L 17.9057,-109.254 L 17.7893,-108.896 L 17.6289,-108.555
 L 17.427,-108.237 L 17.1869,-107.946 L 16.9123,-107.688 L 16.6075,-107.467 L 16.2773,-107.286 L 15.927,-107.147
 L 15.5621,-107.053 L 15.1884,-107.006 z
M -0.18837,-107.006 L -0.562134,-107.053 L -0.927048,-107.147 L -1.27733,-107.286 L -1.60747,-107.467 L -1.91226,-107.688
 L -2.1869,-107.946 L -2.42705,-108.237 L -2.62891,-108.555 L -2.78932,-108.896 L -2.90575,-109.254 L -2.97633,-109.624
 L -3,-110 L -2.97633,-110.376 L -2.90575,-110.746 L -2.78932,-111.104 L -2.62891,-111.445 L -2.42705,-111.763
 L -2.1869,-112.054 L -1.91226,-112.312 L -1.60747,-112.533 L -1.27733,-112.714 L -0.927048,-112.853 L -0.562134,-112.947
 L -0.18837,-112.994 L 0.18837,-112.994 L 0.562134,-112.947 L 0.927048,-112.853 L 1.27733,-112.714 L 1.60747,-112.533
 L 1.91226,-112.312 L 2.1869,-112.054 L 2.42705,-111.763 L 2.62891,-111.445 L 2.78932,-111.104 L 2.90575,-110.746
 L 2.97633,-110.376 L 3,-110 L 2.97633,-109.624 L 2.90575,-109.254 L 2.78932,-108.896 L 2.62891,-108.555
 L 2.42705,-108.237 L 2.1869,-107.946 L 1.91226,-107.688 L 1.60747,-107.467 L 1.27733,-107.286 L 0.927048,-107.147
 L 0.562134,-107.053 L 0.18837,-107.006 z
M -15.1884,-107.006 L -15.5621,-107.053 L -15.927,-107.147 L -16.2773,-107.286 L -16.6075,-107.467 L -16.9123,-107.688
 L -17.1869,-107.946 L -17.427,-108.237 L -17.6289,-108.555 L -17.7893,-108.896 L -17.9057,-109.254 L -17.9763,-109.624
 L -18,-110 L -17.9763,-110.376 L -17.9057,-110.746 L -17.7893,-111.104 L -17.6289,-111.445 L -17.427,-111.763
 L -17.1869,-112.054 L -16.9123,-112.312 L -16.6075,-112.533 L -16.2773,-112.714 L -15.927,-112.853 L -15.5621,-112.947
 L -15.1884,-112.994 L -14.8116,-112.994 L -14.4379,-112.947 L -14.0729,-112.853 L -13.7227,-112.714 L -13.3925,-112.533
 L -13.0877,-112.312 L -12.8131,-112.054 L -12.5729,-111.763 L -12.3711,-111.445 L -12.2107,-111.104 L -12.0942,-110.746
 L -12.0237,-110.376 L -12,-110 L -12.0237,-109.624 L -12.0942,-109.254 L -12.2107,-108.896 L -12.3711,-108.555
 L -12.5729,-108.237 L -12.8131,-107.946 L -13.0877,-107.688 L -13.3925,-107.467 L -13.7227,-107.286 L -14.0729,-107.147
 L -14.4379,-107.053 L -14.8116,-107.006 z
M 7.40581,-108.503 L 7.21892,-108.527 L 7.03647,-108.573 L 6.86133,-108.643 L 6.69626,-108.734 L 6.54385,-108.844
 L 6.40654,-108.973 L 6.28647,-109.118 L 6.18553,-109.277 L 6.10533,-109.448 L 6.04712,-109.627 L 6.01183,-109.812
 L 6,-110 L 6.01183,-110.188 L 6.04712,-110.373 L 6.10533,-110.552 L 6.18553,-110.723 L 6.28647,-110.882
 L 6.40654,-111.027 L 6.54385,-111.156 L 6.69626,-111.266 L 6.86133,-111.357 L 7.03647,-111.427 L 7.21892,-111.473
 L 7.40581,-111.497 L 8.09418,-111.497 L 8.28107,-111.473 L 8.46352,-111.427 L 8.63866,-111.357 L 8.80373,-111.266
 L 8.95613,-111.156 L 9.09344,-111.027 L 9.21352,-110.882 L 9.31445,-110.723 L 9.39465,-110.552 L 9.45287,-110.373
 L 9.48816,-110.188 L 9.5,-110 L 9.48816,-109.812 L 9.45287,-109.627 L 9.39465,-109.448 L 9.31445,-109.277
 L 9.21352,-109.118 L 9.09344,-108.973 L 8.95613,-108.844 L 8.80373,-108.734 L 8.63866,-108.643 L 8.46352,-108.573
 L 8.28107,-108.527 L 8.09418,-108.503 z
M -8.09418,-108.503 L -8.28107,-108.527 L -8.46352,-108.573 L -8.63866,-108.643 L -8.80373,-108.734 L -8.95613,-108.844
 L -9.09344,-108.973 L -9.21352,-109.118 L -9.31445,-109.277 L -9.39465,-109.448 L -9.45287,-109.627 L -9.48816,-109.812
 L -9.5,-110 L -9.48816,-110.188 L -9.45287,-110.373 L -9.39465,-110.552 L -9.31445,-110.723 L -9.21352,-110.882
 L -9.09344,-111.027 L -8.95613,-111.156 L -8.80373,-111.266 L -8.63866,-111.357 L -8.46352,-111.427 L -8.28107,-111.473
 L -8.09418,-111.497 L -7.40581,-111.497 L -7.21892,-111.473 L -7.03647,-111.427 L -6.86133,-111.357 L -6.69626,-111.266
 L -6.54385,-111.156 L -6.40654,-111.027 L -6.28647,-110.882 L -6.18553,-110.723 L -6.10533,-110.552 L -6.04712,-110.373
 L -6.01183,-110.188 L -6,-110 L -6.01183,-109.812 L -6.04712,-109.627 L -6.10533,-109.448 L -6.18553,-109.277
 L -6.28647,-109.118 L -6.40654,-108.973 L -6.54385,-108.844 L -6.69626,-108.734 L -6.86133,-108.643 L -7.03647,-108.573
 L -7.21892,-108.527 L -7.40581,-108.503 z
M -0.0941772,-101.003 L -0.281067,-101.027 L -0.463516,-101.073 L -0.638657,-101.143 L -0.803726,-101.234 L -0.956131,-101.344
 L -1.09344,-101.473 L -1.21352,-101.618 L -1.31445,-101.777 L -1.39465,-101.948 L -1.45287,-102.127 L -1.48816,-102.312
 L -1.5,-102.5 L -1.48816,-102.688 L -1.45287,-102.873 L -1.39465,-103.052 L -1.31445,-103.223 L -1.21352,-103.382
 L -1.09344,-103.527 L -0.956131,-103.656 L -0.803726,-103.766 L -0.638657,-103.857 L -0.463516,-103.927 L -0.281067,-103.973
 L -0.0941772,-103.997 L 0.0941772,-103.997 L 0.281067,-103.973 L 0.463516,-103.927 L 0.638657,-103.857 L 0.803726,-103.766
 L 0.956131,-103.656 L 1.09344,-103.527 L 1.21352,-103.382 L 1.31445,-103.223 L 1.39465,-103.052 L 1.45287,-102.873
 L 1.48816,-102.688 L 1.5,-102.5 L 1.48816,-102.312 L 1.45287,-102.127 L 1.39465,-101.948 L 1.31445,-101.777
 L 1.21352,-101.618 L 1.09344,-101.473 L 0.956131,-101.344 L 0.803726,-101.234 L 0.638657,-101.143 L 0.463516,-101.073
 L 0.281067,-101.027 L 0.0941772,-101.003 z
M -10.7954,-96.3989 L -11.1691,-96.4462 L -11.534,-96.5398 L -11.8843,-96.6785 L -12.2145,-96.86 L -12.5193,-97.0815
 L -12.7939,-97.3394 L -13.034,-97.6297 L -13.2359,-97.9478 L -13.3963,-98.2886 L -13.5127,-98.6469 L -13.5833,-99.017
 L -13.607,-99.393 L -13.5833,-99.769 L -13.5127,-100.139 L -13.3963,-100.497 L -13.2359,-100.838 L -13.034,-101.156
 L -12.7939,-101.447 L -12.5193,-101.705 L -12.2145,-101.926 L -11.8843,-102.107 L -11.534,-102.246 L -11.1691,-102.34
 L -10.7954,-102.387 L -10.4186,-102.387 L -10.0448,-102.34 L -9.67995,-102.246 L -9.32965,-102.107 L -8.99951,-101.926
 L -8.69472,-101.705 L -8.42009,-101.447 L -8.17995,-101.156 L -7.97807,-100.838 L -7.81766,-100.497 L -7.70125,-100.139
 L -7.63065,-99.769 L -7.60699,-99.393 L -7.63065,-99.017 L -7.70125,-98.6469 L -7.81766,-98.2886 L -7.97807,-97.9478
 L -8.17995,-97.6297 L -8.42009,-97.3394 L -8.69472,-97.0815 L -8.99951,-96.86 L -9.32965,-96.6785 L -9.67995,-96.5398
 L -10.0448,-96.4462 L -10.4186,-96.3989 z
M 10.4186,-96.3989 L 10.0448,-96.4462 L 9.67995,-96.5398 L 9.32965,-96.6785 L 8.99951,-96.86 L 8.69472,-97.0815
 L 8.42009,-97.3394 L 8.17995,-97.6297 L 7.97807,-97.9478 L 7.81766,-98.2886 L 7.70125,-98.6469 L 7.63065,-99.017
 L 7.60699,-99.393 L 7.63065,-99.769 L 7.70125,-100.139 L 7.81766,-100.497 L 7.97807,-100.838 L 8.17995,-101.156
 L 8.42009,-101.447 L 8.69472,-101.705 L 8.99951,-101.926 L 9.32965,-102.107 L 9.67995,-102.246 L 10.0448,-102.34
 L 10.4186,-102.387 L 10.7954,-102.387 L 11.1691,-102.34 L 11.534,-102.246 L 11.8843,-102.107 L 12.2145,-101.926
 L 12.5193,-101.705 L 12.7939,-101.447 L 13.034,-101.156 L 13.2359,-100.838 L 13.3963,-100.497 L 13.5127,-100.139
 L 13.5833,-99.769 L 13.607,-99.393 L 13.5833,-99.017 L 13.5127,-98.6469 L 13.3963,-98.2886 L 13.2359,-97.9478
 L 13.034,-97.6297 L 12.7939,-97.3394 L 12.5193,-97.0815 L 12.2145,-96.86 L 11.8843,-96.6785 L 11.534,-96.5398
 L 11.1691,-96.4462 L 10.7954,-96.3989 z
M -0.18837,-92.0059 L -0.562134,-92.0531 L -0.927048,-92.1468 L -1.27733,-92.2855 L -1.60747,-92.467 L -1.91226,-92.6885
 L -2.1869,-92.9464 L -2.42705,-93.2366 L -2.62891,-93.5547 L -2.78932,-93.8956 L -2.90575,-94.2539 L -2.97633,-94.624
 L -3,-95 L -2.97633,-95.376 L -2.90575,-95.7461 L -2.78932,-96.1044 L -2.62891,-96.4453 L -2.42705,-96.7634
 L -2.1869,-97.0536 L -1.91226,-97.3116 L -1.60747,-97.533 L -1.27733,-97.7145 L -0.927048,-97.8532 L -0.562134,-97.9469
 L -0.18837,-97.9941 L 0.18837,-97.9941 L 0.562134,-97.9469 L 0.927048,-97.8532 L 1.27733,-97.7145 L 1.60747,-97.533
 L 1.91226,-97.3116 L 2.1869,-97.0536 L 2.42705,-96.7634 L 2.62891,-96.4453 L 2.78932,-96.1044 L 2.90575,-95.7461
 L 2.97633,-95.376 L 3,-95 L 2.97633,-94.624 L 2.90575,-94.2539 L 2.78932,-93.8956 L 2.62891,-93.5547
 L 2.42705,-93.2366 L 2.1869,-92.9464 L 1.91226,-92.6885 L 1.60747,-92.467 L 1.27733,-92.2855 L 0.927048,-92.1468
 L 0.562134,-92.0531 L 0.18837,-92.0059 z
M 5.79041,30.3544 L 9.54918,29.3894 L 13.1573,27.9608 L 16.558,26.0912 L 19.6975,23.8102 L 22.5264,21.1537
 L 25.0001,18.1636 L 27.0795,14.8871 L 28.7318,11.3757 L 29.931,7.68495 L 30.6581,3.87302 L 30.9018,-0
 L 30.6581,-3.87302 L 29.931,-7.68495 L 28.7318,-11.3757 L 27.0795,-14.8871 L 25.0001,-18.1636 L 22.5264,-21.1537
 L 19.6975,-23.8102 L 16.558,-26.0912 L 13.1573,-27.9608 L 9.54918,-29.3894 L 5.79041,-30.3544 L 1.94034,-30.8408
 L -1.94034,-30.8408 L -5.79041,-30.3544 L -9.54918,-29.3894 L -13.1573,-27.9608 L -16.558,-26.0912 L -19.6975,-23.8102
 L -22.5264,-21.1537 L -25.0001,-18.1636 L -27.0795,-14.8871 L -28.7318,-11.3757 L -29.931,-7.68495 L -30.6581,-3.87302
 L -30.9018,-0 L -30.6581,3.87302 L -29.931,7.68495 L -28.7318,11.3757 L -27.0795,14.8871 L -25.0001,18.1636
 L -22.5264,21.1537 L -19.6975,23.8102 L -16.558,26.0912 L -13.1573,27.9608 L -9.54918,29.3894 L -5.79041,30.3544
 L -1.94034,30.8408 L 1.94034,30.8408 z
M -0.18837,-12.0059 L -0.562134,-12.0531 L -0.927048,-12.1468 L -1.27733,-12.2855 L -1.60747,-12.467 L -1.91226,-12.6884
 L -2.1869,-12.9464 L -2.42705,-13.2366 L -2.62891,-13.5547 L -2.78932,-13.8956 L -2.90575,-14.2539 L -2.97633,-14.624
 L -3,-15 L -2.97633,-15.376 L -2.90575,-15.7461 L -2.78932,-16.1044 L -2.62891,-16.4453 L -2.42705,-16.7634
 L -2.1869,-17.0536 L -1.91226,-17.3115 L -1.60747,-17.533 L -1.27733,-17.7145 L -0.927048,-17.8532 L -0.562134,-17.9469
 L -0.18837,-17.9941 L 0.18837,-17.9941 L 0.562134,-17.9469 L 0.927048,-17.8532 L 1.27733,-17.7145 L 1.60747,-17.533
 L 1.91226,-17.3115 L 2.1869,-17.0536 L 2.42705,-16.7634 L 2.62891,-16.4453 L 2.78932,-16.1044 L 2.90575,-15.7461
 L 2.97633,-15.376 L 3,-15 L 2.97633,-14.624 L 2.90575,-14.2539 L 2.78932,-13.8956 L 2.62891,-13.5547
 L 2.42705,-13.2366 L 2.1869,-12.9464 L 1.91226,-12.6884 L 1.60747,-12.467 L 1.27733,-12.2855 L 0.927048,-12.1468
 L 0.562134,-12.0531 L 0.18837,-12.0059 z
M -10.7954,-7.61292 L -11.1691,-7.66013 L -11.534,-7.75383 L -11.8843,-7.89252 L -12.2145,-8.07401 L -12.5193,-8.29546
 L -12.7939,-8.55334 L -13.034,-8.84364 L -13.2359,-9.16173 L -13.3963,-9.50262 L -13.5127,-9.86092 L -13.5833,-10.231
 L -13.607,-10.607 L -13.5833,-10.983 L -13.5127,-11.3531 L -13.3963,-11.7114 L -13.2359,-12.0522 L -13.034,-12.3703
 L -12.7939,-12.6606 L -12.5193,-12.9185 L -12.2145,-13.14 L -11.8843,-13.3215 L -11.534,-13.4602 L -11.1691,-13.5538
 L -10.7954,-13.6011 L -10.4186,-13.6011 L -10.0448,-13.5538 L -9.67995,-13.4602 L -9.32965,-13.3215 L -8.99951,-13.14
 L -8.69472,-12.9185 L -8.42009,-12.6606 L -8.17995,-12.3703 L -7.97807,-12.0522 L -7.81766,-11.7114 L -7.70125,-11.3531
 L -7.63065,-10.983 L -7.60699,-10.607 L -7.63065,-10.231 L -7.70125,-9.86092 L -7.81766,-9.50262 L -7.97807,-9.16173
 L -8.17995,-8.84364 L -8.42009,-8.55334 L -8.69472,-8.29546 L -8.99951,-8.07401 L -9.32965,-7.89252 L -9.67995,-7.75383
 L -10.0448,-7.66013 L -10.4186,-7.61292 z
M 10.4186,-7.61292 L 10.0448,-7.66013 L 9.67995,-7.75383 L 9.32965,-7.89252 L 8.99951,-8.07401 L 8.69472,-8.29546
 L 8.42009,-8.55334 L 8.17995,-8.84364 L 7.97807,-9.16173 L 7.81766,-9.50262 L 7.70125,-9.86092 L 7.63065,-10.231
 L 7.60699,-10.607 L 7.63065,-10.983 L 7.70125,-11.3531 L 7.81766,-11.7114 L 7.97807,-12.0522 L 8.17995,-12.3703
 L 8.42009,-12.6606 L 8.69472,-12.9185 L 8.99951,-13.14 L 9.32965,-13.3215 L 9.67995,-13.4602 L 10.0448,-13.5538
 L 10.4186,-13.6011 L 10.7954,-13.6011 L 11.1691,-13.5538 L 11.534,-13.4602 L 11.8843,-13.3215 L 12.2145,-13.14
 L 12.5193,-12.9185 L 12.7939,-12.6606 L 13.034,-12.3703 L 13.2359,-12.0522 L 13.3963,-11.7114 L 13.5127,-11.3531
 L 13.5833,-10.983 L 13.607,-10.607 L 13.5833,-10.231 L 13.5127,-9.86092 L 13.3963,-9.50262 L 13.2359,-9.16173
 L 13.034,-8.84364 L 12.7939,-8.55334 L 12.5193,-8.29546 L 12.2145,-8.07401 L 11.8843,-7.89252 L 11.534,-7.75383
 L 11.1691,-7.66013 L 10.7954,-7.61292 z
M -0.0941772,-6.00294 L -0.281067,-6.02657 L -0.463516,-6.07341 L -0.638657,-6.14275 L -0.803726,-6.23351 L -0.956131,-6.34422
 L -1.09344,-6.47318 L -1.21352,-6.61832 L -1.31445,-6.77736 L -1.39465,-6.9478 L -1.45287,-7.12695 L -1.48816,-7.312
 L -1.5,-7.5 L -1.48816,-7.68799 L -1.45287,-7.87303 L -1.39465,-8.05219 L -1.31445,-8.22263 L -1.21352,-8.38167
 L -1.09344,-8.52681 L -0.956131,-8.65576 L -0.803726,-8.76648 L -0.638657,-8.85724 L -0.463516,-8.92657 L -0.281067,-8.97342
 L -0.0941772,-8.99704 L 0.0941772,-8.99704 L 0.281067,-8.97342 L 0.463516,-8.92657 L 0.638657,-8.85724 L 0.803726,-8.76648
 L 0.956131,-8.65576 L 1.09344,-8.52681 L 1.21352,-8.38167 L 1.31445,-8.22263 L 1.39465,-8.05219 L 1.45287,-7.87303
 L 1.48816,-7.68799 L 1.5,-7.5 L 1.48816,-7.312 L 1.45287,-7.12695 L 1.39465,-6.9478 L 1.31445,-6.77736
 L 1.21352,-6.61832 L 1.09344,-6.47318 L 0.956131,-6.34422 L 0.803726,-6.23351 L 0.638657,-6.14275 L 0.463516,-6.07341
 L 0.281067,-6.02657 L 0.0941772,-6.00294 z
M -15.1884,2.99408 L -15.5621,2.94685 L -15.927,2.85316 L -16.2773,2.71448 L -16.6075,2.53297 L -16.9123,2.31154
 L -17.1869,2.05363 L -17.427,1.76335 L -17.6289,1.44525 L -17.7893,1.10437 L -17.9057,0.746063 L -17.9763,0.375992
 L -18,-0 L -17.9763,-0.375992 L -17.9057,-0.746063 L -17.7893,-1.10437 L -17.6289,-1.44525 L -17.427,-1.76335
 L -17.1869,-2.05363 L -16.9123,-2.31154 L -16.6075,-2.53297 L -16.2773,-2.71448 L -15.927,-2.85316 L -15.5621,-2.94685
 L -15.1884,-2.99408 L -14.8116,-2.99408 L -14.4379,-2.94685 L -14.0729,-2.85316 L -13.7227,-2.71448 L -13.3925,-2.53297
 L -13.0877,-2.31154 L -12.8131,-2.05363 L -12.5729,-1.76335 L -12.3711,-1.44525 L -12.2107,-1.10437 L -12.0942,-0.746063
 L -12.0237,-0.375992 L -12,-0 L -12.0237,0.375992 L -12.0942,0.746063 L -12.2107,1.10437 L -12.3711,1.44525
 L -12.5729,1.76335 L -12.8131,2.05363 L -13.0877,2.31154 L -13.3925,2.53297 L -13.7227,2.71448 L -14.0729,2.85316
 L -14.4379,2.94685 L -14.8116,2.99408 z
M -0.18837,2.99408 L -0.562134,2.94685 L -0.927048,2.85316 L -1.27733,2.71448 L -1.60747,2.53297 L -1.91226,2.31154
 L -2.1869,2.05363 L -2.42705,1.76335 L -2.62891,1.44525 L -2.78932,1.10437 L -2.90575,0.746063 L -2.97633,0.375992
 L -3,-0 L -2.97633,-0.375992 L -2.90575,-0.746063 L -2.78932,-1.10437 L -2.62891,-1.44525 L -2.42705,-1.76335
 L -2.1869,-2.05363 L -1.91226,-2.31154 L -1.60747,-2.53297 L -1.27733,-2.71448 L -0.927048,-2.85316 L -0.562134,-2.94685
 L -0.18837,-2.99408 L 0.18837,-2.99408 L 0.562134,-2.94685 L 0.927048,-2.85316 L 1.27733,-2.71448 L 1.60747,-2.53297
 L 1.91226,-2.31154 L 2.1869,-2.05363 L 2.42705,-1.76335 L 2.62891,-1.44525 L 2.78932,-1.10437 L 2.90575,-0.746063
 L 2.97633,-0.375992 L 3,-0 L 2.97633,0.375992 L 2.90575,0.746063 L 2.78932,1.10437 L 2.62891,1.44525
 L 2.42705,1.76335 L 2.1869,2.05363 L 1.91226,2.31154 L 1.60747,2.53297 L 1.27733,2.71448 L 0.927048,2.85316
 L 0.562134,2.94685 L 0.18837,2.99408 z
M 14.8116,2.99408 L 14.4379,2.94685 L 14.0729,2.85316 L 13.7227,2.71448 L 13.3925,2.53297 L 13.0877,2.31154
 L 12.8131,2.05363 L 12.5729,1.76335 L 12.3711,1.44525 L 12.2107,1.10437 L 12.0942,0.746063 L 12.0237,0.375992
 L 12,-0 L 12.0237,-0.375992 L 12.0942,-0.746063 L 12.2107,-1.10437 L 12.3711,-1.44525 L 12.5729,-1.76335
 L 12.8131,-2.05363 L 13.0877,-2.31154 L 13.3925,-2.53297 L 13.7227,-2.71448 L 14.0729,-2.85316 L 14.4379,-2.94685
 L 14.8116,-2.99408 L 15.1884,-2.99408 L 15.5621,-2.94685 L 15.927,-2.85316 L 16.2773,-2.71448 L 16.6075,-2.53297
 L 16.9123,-2.31154 L 17.1869,-2.05363 L 17.427,-1.76335 L 17.6289,-1.44525 L 17.7893,-1.10437 L 17.9057,-0.746063
 L 17.9763,-0.375992 L 18,-0 L 17.9763,0.375992 L 17.9057,0.746063 L 17.7893,1.10437 L 17.6289,1.44525
 L 17.427,1.76335 L 17.1869,2.05363 L 16.9123,2.31154 L 16.6075,2.53297 L 16.2773,2.71448 L 15.927,2.85316
 L 15.5621,2.94685 L 15.1884,2.99408 z
M -8.09418,1.49704 L -8.28107,1.47342 L -8.46352,1.42657 L -8.63866,1.35724 L -8.80373,1.26648 L -8.95613,1.15576
 L -9.09344,1.02681 L -9.21352,0.881668 L -9.31445,0.722626 L -9.39465,0.552185 L -9.45287,0.373032 L -9.48816,0.187988
 L -9.5,-0 L -9.48816,-0.187988 L -9.45287,-0.373032 L -9.39465,-0.552185 L -9.31445,-0.722626 L -9.21352,-0.881668
 L -9.09344,-1.02681 L -8.95613,-1.15576 L -8.80373,-1.26648 L -8.63866,-1.35724 L -8.46352,-1.42657 L -8.28107,-1.47342
 L -8.09418,-1.49704 L -7.40581,-1.49704 L -7.21892,-1.47342 L -7.03647,-1.42657 L -6.86133,-1.35724 L -6.69626,-1.26648
 L -6.54385,-1.15576 L -6.40654,-1.02681 L -6.28647,-0.881668 L -6.18553,-0.722626 L -6.10533,-0.552185 L -6.04712,-0.373032
 L -6.01183,-0.187988 L -6,-0 L -6.01183,0.187988 L -6.04712,0.373032 L -6.10533,0.552185 L -6.18553,0.722626
 L -6.28647,0.881668 L -6.40654,1.02681 L -6.54385,1.15576 L -6.69626,1.26648 L -6.86133,1.35724 L -7.03647,1.42657
 L -7.21892,1.47342 L -7.40581,1.49704 z
M 7.40581,1.49704 L 7.21892,1.47342 L 7.03647,1.42657 L 6.86133,1.35724 L 6.69626,1.26648 L 6.54385,1.15576
 L 6.40654,1.02681 L 6.28647,0.881668 L 6.18553,0.722626 L 6.10533,0.552185 L 6.04712,0.373032 L 6.01183,0.187988
 L 6,-0 L 6.01183,-0.187988 L 6.04712,-0.373032 L 6.10533,-0.552185 L 6.18553,-0.722626 L 6.28647,-0.881668
 L 6.40654,-1.02681 L 6.54385,-1.15576 L 6.69626,-1.26648 L 6.86133,-1.35724 L 7.03647,-1.42657 L 7.21892,-1.47342
 L 7.40581,-1.49704 L 8.09418,-1.49704 L 8.28107,-1.47342 L 8.46352,-1.42657 L 8.63866,-1.35724 L 8.80373,-1.26648
 L 8.95613,-1.15576 L 9.09344,-1.02681 L 9.21352,-0.881668 L 9.31445,-0.722626 L 9.39465,-0.552185 L 9.45287,-0.373032
 L 9.48816,-0.187988 L 9.5,-0 L 9.48816,0.187988 L 9.45287,0.373032 L 9.39465,0.552185 L 9.31445,0.722626
 L 9.21352,0.881668 L 9.09344,1.02681 L 8.95613,1.15576 L 8.80373,1.26648 L 8.63866,1.35724 L 8.46352,1.42657
 L 8.28107,1.47342 L 8.09418,1.49704 z
M -0.0941772,8.99704 L -0.281067,8.97342 L -0.463516,8.92657 L -0.638657,8.85724 L -0.803726,8.76648 L -0.956131,8.65576
 L -1.09344,8.52681 L -1.21352,8.38167 L -1.31445,8.22263 L -1.39465,8.05219 L -1.45287,7.87303 L -1.48816,7.68799
 L -1.5,7.5 L -1.48816,7.312 L -1.45287,7.12695 L -1.39465,6.9478 L -1.31445,6.77736 L -1.21352,6.61832
 L -1.09344,6.47318 L -0.956131,6.34422 L -0.803726,6.23351 L -0.638657,6.14275 L -0.463516,6.07341 L -0.281067,6.02657
 L -0.0941772,6.00294 L 0.0941772,6.00294 L 0.281067,6.02657 L 0.463516,6.07341 L 0.638657,6.14275 L 0.803726,6.23351
 L 0.956131,6.34422 L 1.09344,6.47318 L 1.21352,6.61832 L 1.31445,6.77736 L 1.39465,6.9478 L 1.45287,7.12695
 L 1.48816,7.312 L 1.5,7.5 L 1.48816,7.68799 L 1.45287,7.87303 L 1.39465,8.05219 L 1.31445,8.22263
 L 1.21352,8.38167 L 1.09344,8.52681 L 0.956131,8.65576 L 0.803726,8.76648 L 0.638657,8.85724 L 0.463516,8.92657
 L 0.281067,8.97342 L 0.0941772,8.99704 z
M -10.7954,13.6011 L -11.1691,13.5538 L -11.534,13.4602 L -11.8843,13.3215 L -12.2145,13.14 L -12.5193,12.9185
 L -12.7939,12.6606 L -13.034,12.3703 L -13.2359,12.0522 L -13.3963,11.7114 L -13.5127,11.3531 L -13.5833,10.983
 L -13.607,10.607 L -13.5833,10.231 L -13.5127,9.86092 L -13.3963,9.50262 L -13.2359,9.16173 L -13.034,8.84364
 L -12.7939,8.55334 L -12.5193,8.29546 L -12.2145,8.07401 L -11.8843,7.89252 L -11.534,7.75383 L -11.1691,7.66013
 L -10.7954,7.61292 L -10.4186,7.61292 L -10.0448,7.66013 L -9.67995,7.75383 L -9.32965,7.89252 L -8.99951,8.07401
 L -8.69472,8.29546 L -8.42009,8.55334 L -8.17995,8.84364 L -7.97807,9.16173 L -7.81766,9.50262 L -7.70125,9.86092
 L -7.63065,10.231 L -7.60699,10.607 L -7.63065,10.983 L -7.70125,11.3531 L -7.81766,11.7114 L -7.97807,12.0522
 L -8.17995,12.3703 L -8.42009,12.6606 L -8.69472,12.9185 L -8.99951,13.14 L -9.32965,13.3215 L -9.67995,13.4602
 L -10.0448,13.5538 L -10.4186,13.6011 z
M 10.4186,13.6011 L 10.0448,13.5538 L 9.67995,13.4602 L 9.32965,13.3215 L 8.99951,13.14 L 8.69472,12.9185
 L 8.42009,12.6606 L 8.17995,12.3703 L 7.97807,12.0522 L 7.81766,11.7114 L 7.70125,11.3531 L 7.63065,10.983
 L 7.60699,10.607 L 7.63065,10.231 L 7.70125,9.86092 L 7.81766,9.50262 L 7.97807,9.16173 L 8.17995,8.84364
 L 8.42009,8.55334 L 8.69472,8.29546 L 8.99951,8.07401 L 9.32965,7.89252 L 9.67995,7.75383 L 10.0448,7.66013
 L 10.4186,7.61292 L 10.7954,7.61292 L 11.1691,7.66013 L 11.534,7.75383 L 11.8843,7.89252 L 12.2145,8.07401
 L 12.5193,8.29546 L 12.7939,8.55334 L 13.034,8.84364 L 13.2359,9.16173 L 13.3963,9.50262 L 13.5127,9.86092
 L 13.5833,10.231 L 13.607,10.607 L 13.5833,10.983 L 13.5127,11.3531 L 13.3963,11.7114 L 13.2359,12.0522
 L 13.034,12.3703 L 12.7939,12.6606 L 12.5193,12.9185 L 12.2145,13.14 L 11.8843,13.3215 L 11.534,13.4602
 L 11.1691,13.5538 L 10.7954,13.6011 z
M -0.18837,17.9941 L -0.562134,17.9469 L -0.927048,17.8532 L -1.27733,17.7145 L -1.60747,17.533 L -1.91226,17.3115
 L -2.1869,17.0536 L -2.42705,16.7634 L -2.62891,16.4453 L -2.78932,16.1044 L -2.90575,15.7461 L -2.97633,15.376
 L -3,15 L -2.97633,14.624 L -2.90575,14.2539 L -2.78932,13.8956 L -2.62891,13.5547 L -2.42705,13.2366
 L -2.1869,12.9464 L -1.91226,12.6884 L -1.60747,12.467 L -1.27733,12.2855 L -0.927048,12.1468 L -0.562134,12.0531
 L -0.18837,12.0059 L 0.18837,12.0059 L 0.562134,12.0531 L 0.927048,12.1468 L 1.27733,12.2855 L 1.60747,12.467
 L 1.91226,12.6884 L 2.1869,12.9464 L 2.42705,13.2366 L 2.62891,13.5547 L 2.78932,13.8956 L 2.90575,14.2539
 L 2.97633,14.624 L 3,15 L 2.97633,15.376 L 2.90575,15.7461 L 2.78932,16.1044 L 2.62891,16.4453
 L 2.42705,16.7634 L 2.1869,17.0536 L 1.91226,17.3115 L 1.60747,17.533 L 1.27733,17.7145 L 0.927048,17.8532
 L 0.562134,17.9469 L 0.18837,17.9941 z
" stroke="black" fill="lightgray" stroke-width="0.5"/>
</svg>
