<?xml version="1.0" standalone="no"?>
<!DOCTYPE svg PUBLIC "-//W3C//DTD SVG 1.1//EN" "http://www.w3.org/Graphics/SVG/1.1/DTD/svg11.dtd">
<svg width="30mm" height="244mm" viewBox="-15 -374 30 244" xmlns="http://www.w3.org/2000/svg" version="1.1">
<title>OpenSCAD Model</title>
<path d="
M 10.9369,-298.589 L 11.5451,-298.745 L 12.1289,-298.976 L 12.6791,-299.278 L 13.1871,-299.647 L 13.6448,-300.077
 L 14.0451,-300.561 L 14.3815,-301.091 L 14.6489,-301.659 L 14.8429,-302.257 L 14.9606,-302.873 L 15,-303.5
 L 15,-368.5 L 14.9606,-369.127 L 14.8429,-369.743 L 14.6489,-370.341 L 14.3815,-370.909 L 14.0451,-371.439
 L 13.6448,-371.923 L 13.1871,-372.353 L 12.6791,-372.722 L 12.1289,-373.024 L 11.5451,-373.255 L 10.9369,-373.411
 L 10.3139,-373.49 L -10.3139,-373.49 L -10.9369,-373.411 L -11.5451,-373.255 L -12.1289,-373.024 L -12.6791,-372.722
 L -13.1871,-372.353 L -13.6448,-371.923 L -14.0451,-371.439 L -14.3815,-370.909 L -14.6489,-370.341 L -14.8429,-369.743
 L -14.9606,-369.127 L -15,-368.5 L -15,-303.5 L -14.9606,-302.873 L -14.8429,-302.257 L -14.6489,-301.659
 L -14.3815,-301.091 L -14.0451,-300.561 L -13.6448,-300.077 L -13.1871,-299.647 L -12.6791,-299.278 L -12.1289,-298.976
 L -11.5451,-298.745 L -10.9369,-298.589 L -10.3139,-298.51 L 10.3139,-298.51 z
M -10.0482,-299.009 L -10.6401,-299.084 L -11.2178,-299.232 L -11.7724,-299.452 L -12.2952,-299.739 L -12.7778,-300.09
 L -13.2126,-300.498 L -13.5928,-300.958 L -13.9124,-301.462 L -14.1664,-302.001 L -14.3508,-302.569 L -14.4625,-303.155
 L -14.5,-303.75 L -14.5,-368.25 L -14.4625,-368.845 L -14.3508,-369.431 L -14.1664,-369.999 L -13.9124,-370.538
 L -13.5928,-371.042 L -13.2126,-371.502 L -12.7778,-371.91 L -12.2952,-372.261 L -11.7724,-372.548 L -11.2178,-372.768
 L -10.6401,-372.916 L -10.0482,-372.991 L 10.0482,-372.991 L 10.6401,-372.916 L 11.2178,-372.768 L 11.7724,-372.548
 L 12.2952,-372.261 L 12.7778,-371.91 L 13.2126,-371.502 L 13.5928,-371.042 L 13.9124,-370.538 L 14.1664,-369.999
 L 14.3508,-369.431 L 14.4625,-368.845 L 14.5,-368.25 L 14.5,-303.75 L 14.4625,-303.155 L 14.3508,-302.569
 L 14.1664,-302.001 L 13.9124,-301.462 L 13.5928,-300.958 L 13.2126,-300.498 L 12.7778,-300.09 L 12.2952,-299.739
 L 11.7724,-299.452 L 11.2178,-299.232 L 10.6401,-299.084 L 10.0482,-299.009 z
M 10.9369,-214.589 L 11.5451,-214.745 L 12.1289,-214.976 L 12.6791,-215.278 L 13.1871,-215.647 L 13.6448,-216.077
 L 14.0451,-216.561 L 14.3815,-217.091 L 14.6489,-217.659 L 14.8429,-218.257 L 14.9606,-218.873 L 15,-219.5
 L 15,-284.5 L 14.9606,-285.127 L 14.8429,-285.743 L 14.6489,-286.341 L 14.3815,-286.909 L 14.0451,-287.439
 L 13.6448,-287.923 L 13.1871,-288.353 L 12.6791,-288.722 L 12.1289,-289.024 L 11.5451,-289.255 L 10.9369,-289.411
 L 10.3139,-289.49 L -10.3139,-289.49 L -10.9369,-289.411 L -11.5451,-289.255 L -12.1289,-289.024 L -12.6791,-288.722
 L -13.1871,-288.353 L -13.6448,-287.923 L -14.0451,-287.439 L -14.3815,-286.909 L -14.6489,-286.341 L -14.8429,-285.743
 L -14.9606,-285.127 L -15,-284.5 L -15,-219.5 L -14.9606,-218.873 L -14.8429,-218.257 L -14.6489,-217.659
 L -14.3815,-217.091 L -14.0451,-216.561 L -13.6448,-216.077 L -13.1871,-215.647 L -12.6791,-215.278 L -12.1289,-214.976
 L -11.5451,-214.745 L -10.9369,-214.589 L -10.3139,-214.51 L 10.3139,-214.51 z
M -9.99297,-215.888 L -10.4751,-215.949 L -10.9457,-216.07 L -11.3975,-216.249 L -11.8234,-216.483 L -12.2165,-216.769
 L -12.5707,-217.101 L -12.8805,-217.476 L -13.1408,-217.886 L -13.3477,-218.326 L -13.4979,-218.788 L -13.589,-219.265
 L -13.6195,-219.75 L -13.6195,-284.25 L -13.589,-284.735 L -13.4979,-285.212 L -13.3477,-285.674 L -13.1408,-286.114
 L -12.8805,-286.524 L -12.5707,-286.899 L -12.2165,-287.231 L -11.8234,-287.517 L -11.3975,-287.751 L -10.9457,-287.93
 L -10.4751,-288.051 L -9.99297,-288.112 L 9.99297,-288.112 L 10.4751,-288.051 L 10.9457,-287.93 L 11.3975,-287.751
 L 11.8234,-287.517 L 12.2165,-287.231 L 12.5707,-286.899 L 12.8805,-286.524 L 13.1408,-286.114 L 13.3477,-285.674
 L 13.4979,-285.212 L 13.589,-284.735 L 13.6195,-284.25 L 13.6195,-219.75 L 13.589,-219.265 L 13.4979,-218.788
 L 13.3477,-218.326 L 13.1408,-217.886 L 12.8805,-217.476 L 12.5707,-217.101 L 12.2165,-216.769 L 11.8234,-216.483
 L 11.3975,-216.249 L 10.9457,-216.07 L 10.4751,-215.949 L 9.99297,-215.888 z
M 10.9369,-130.589 L 11.5451,-130.745 L 12.1289,-130.976 L 12.6791,-131.278 L 13.1871,-131.647 L 13.6448,-132.077
 L 14.0451,-132.561 L 14.3815,-133.091 L 14.6489,-133.659 L 14.8429,-134.257 L 14.9606,-134.873 L 15,-135.5
 L 15,-200.5 L 14.9606,-201.127 L 14.8429,-201.743 L 14.6489,-202.341 L 14.3815,-202.909 L 14.0451,-203.439
 L 13.6448,-203.923 L 13.1871,-204.353 L 12.6791,-204.722 L 12.1289,-205.024 L 11.5451,-205.255 L 10.9369,-205.411
 L 10.3139,-205.49 L -10.3139,-205.49 L -10.9369,-205.411 L -11.5451,-205.255 L -12.1289,-205.024 L -12.6791,-204.722
 L -13.1871,-204.353 L -13.6448,-203.923 L -14.0451,-203.439 L -14.3815,-202.909 L -14.6489,-202.341 L -14.8429,-201.743
 L -14.9606,-201.127 L -15,-200.5 L -15,-135.5 L -14.9606,-134.873 L -14.8429,-134.257 L -14.6489,-133.659
 L -14.3815,-133.091 L -14.0451,-132.561 L -13.6448,-132.077 L -13.1871,-131.647 L -12.6791,-131.278 L -12.1289,-130.976
 L -11.5451,-130.745 L -10.9369,-130.589 L -10.3139,-130.51 L 10.3139,-130.51 z
M 7.40581,-196.503 L 7.21892,-196.527 L 7.03647,-196.573 L 6.86133,-196.643 L 6.69626,-196.734 L 6.54385,-196.844
 L 6.40654,-196.973 L 6.28647,-197.118 L 6.18553,-197.277 L 6.10533,-197.448 L 6.04712,-197.627 L 6.01183,-197.812
 L 6,-198 L 6.01183,-198.188 L 6.04712,-198.373 L 6.10533,-198.552 L 6.18553,-198.723 L 6.28647,-198.882
 L 6.40654,-199.027 L 6.54385,-199.156 L 6.69626,-199.266 L 6.86133,-199.357 L 7.03647,-199.427 L 7.21892,-199.473
 L 7.40581,-199.497 L 7.59418,-199.497 L 7.78107,-199.473 L 7.96352,-199.427 L 8.13866,-199.357 L 8.30373,-199.266
 L 8.45613,-199.156 L 8.59344,-199.027 L 8.71352,-198.882 L 8.81445,-198.723 L 8.89465,-198.552 L 8.95287,-198.373
 L 8.98816,-198.188 L 9,-198 L 8.98816,-197.812 L 8.95287,-197.627 L 8.89465,-197.448 L 8.81445,-197.277
 L 8.71352,-197.118 L 8.59344,-196.973 L 8.45613,-196.844 L 8.30373,-196.734 L 8.13866,-196.643 L 7.96352,-196.573
 L 7.78107,-196.527 L 7.59418,-196.503 z
M -7.59418,-196.503 L -7.78107,-196.527 L -7.96352,-196.573 L -8.13866,-196.643 L -8.30373,-196.734 L -8.45613,-196.844
 L -8.59344,-196.973 L -8.71352,-197.118 L -8.81445,-197.277 L -8.89465,-197.448 L -8.95287,-197.627 L -8.98816,-197.812
 L -9,-198 L -8.98816,-198.188 L -8.95287,-198.373 L -8.89465,-198.552 L -8.81445,-198.723 L -8.71352,-198.882
 L -8.59344,-199.027 L -8.45613,-199.156 L -8.30373,-199.266 L -8.13866,-199.357 L -7.96352,-199.427 L -7.78107,-199.473
 L -7.59418,-199.497 L -7.40581,-199.497 L -7.21892,-199.473 L -7.03647,-199.427 L -6.86133,-199.357 L -6.69626,-199.266
 L -6.54385,-199.156 L -6.40654,-199.027 L -6.28647,-198.882 L -6.18553,-198.723 L -6.10533,-198.552 L -6.04712,-198.373
 L -6.01183,-198.188 L -6,-198 L -6.01183,-197.812 L -6.04712,-197.627 L -6.10533,-197.448 L -6.18553,-197.277
 L -6.28647,-197.118 L -6.40654,-196.973 L -6.54385,-196.844 L -6.69626,-196.734 L -6.86133,-196.643 L -7.03647,-196.573
 L -7.21892,-196.527 L -7.40581,-196.503 z
M -7.59418,-136.503 L -7.78107,-136.527 L -7.96352,-136.573 L -8.13866,-136.643 L -8.30373,-136.734 L -8.45613,-136.844
 L -8.59344,-136.973 L -8.71352,-137.118 L -8.81445,-137.277 L -8.89465,-137.448 L -8.95287,-137.627 L -8.98816,-137.812
 L -9,-138 L -8.98816,-138.188 L -8.95287,-138.373 L -8.89465,-138.552 L -8.81445,-138.723 L -8.71352,-138.882
 L -8.59344,-139.027 L -8.45613,-139.156 L -8.30373,-139.266 L -8.13866,-139.357 L -7.96352,-139.427 L -7.78107,-139.473
 L -7.59418,-139.497 L -7.40581,-139.497 L -7.21892,-139.473 L -7.03647,-139.427 L -6.86133,-139.357 L -6.69626,-139.266
 L -6.54385,-139.156 L -6.40654,-139.027 L -6.28647,-138.882 L -6.18553,-138.723 L -6.10533,-138.552 L -6.04712,-138.373
 L -6.01183,-138.188 L -6,-138 L -6.01183,-137.812 L -6.04712,-137.627 L -6.10533,-137.448 L -6.18553,-137.277
 L -6.28647,-137.118 L -6.40654,-136.973 L -6.54385,-136.844 L -6.69626,-136.734 L -6.86133,-136.643 L -7.03647,-136.573
 L -7.21892,-136.527 L -7.40581,-136.503 z
M 7.40581,-136.503 L 7.21892,-136.527 L 7.03647,-136.573 L 6.86133,-136.643 L 6.69626,-136.734 L 6.54385,-136.844
 L 6.40654,-136.973 L 6.28647,-137.118 L 6.18553,-137.277 L 6.10533,-137.448 L 6.04712,-137.627 L 6.01183,-137.812
 L 6,-138 L 6.01183,-138.188 L 6.04712,-138.373 L 6.10533,-138.552 L 6.18553,-138.723 L 6.28647,-138.882
 L 6.40654,-139.027 L 6.54385,-139.156 L 6.69626,-139.266 L 6.86133,-139.357 L 7.03647,-139.427 L 7.21892,-139.473
 L 7.40581,-139.497 L 7.59418,-139.497 L 7.78107,-139.473 L 7.96352,-139.427 L 8.13866,-139.357 L 8.30373,-139.266
 L 8.45613,-139.156 L 8.59344,-139.027 L 8.71352,-138.882 L 8.81445,-138.723 L 8.89465,-138.552 L 8.95287,-138.373
 L 8.98816,-138.188 L 9,-138 L 8.98816,-137.812 L 8.95287,-137.627 L 8.89465,-137.448 L 8.81445,-137.277
 L 8.71352,-137.118 L 8.59344,-136.973 L 8.45613,-136.844 L 8.30373,-136.734 L 8.13866,-136.643 L 7.96352,-136.573
 L 7.78107,-136.527 L 7.59418,-136.503 z
" stroke="black" fill="lightgray" stroke-width="0.5"/>
</svg>
