  0
SECTION
  2
BLOCKS
  0
ENDSEC
  0
SECTION
  2
ENTITIES
  0
LINE
  8
0
 10
20.2184
 20
-7.2057
 11
20.5225
 21
-7.12764
  0
LINE
  8
0
 10
20.5225
 20
-7.12764
 11
20.8144
 21
-7.01205
  0
LINE
  8
0
 10
20.8144
 20
-7.01205
 11
21.0896
 21
-6.86081
  0
LINE
  8
0
 10
21.0896
 20
-6.86081
 11
21.3436
 21
-6.67627
  0
LINE
  8
0
 10
21.3436
 20
-6.67627
 11
21.5724
 21
-6.46136
  0
LINE
  8
0
 10
21.5724
 20
-6.46136
 11
21.7725
 21
-6.21945
  0
LINE
  8
0
 10
21.7725
 20
-6.21945
 11
21.9408
 21
-5.95438
  0
LINE
  8
0
 10
21.9408
 20
-5.95438
 11
22.0744
 21
-5.6703
  0
LINE
  8
0
 10
22.0744
 20
-5.6703
 11
22.1714
 21
-5.37172
  0
LINE
  8
0
 10
22.1714
 20
-5.37172
 11
22.2303
 21
-5.06332
  0
LINE
  8
0
 10
22.2303
 20
-5.06332
 11
22.25
 21
-4.75
  0
LINE
  8
0
 10
22.25
 20
-4.75
 11
22.25
 21
4.75
  0
LINE
  8
0
 10
22.25
 20
4.75
 11
22.2303
 21
5.06332
  0
LINE
  8
0
 10
22.2303
 20
5.06332
 11
22.1714
 21
5.37172
  0
LINE
  8
0
 10
22.1714
 20
5.37172
 11
22.0744
 21
5.6703
  0
LINE
  8
0
 10
22.0744
 20
5.6703
 11
21.9408
 21
5.95438
  0
LINE
  8
0
 10
21.9408
 20
5.95438
 11
21.7725
 21
6.21945
  0
LINE
  8
0
 10
21.7725
 20
6.21945
 11
21.5724
 21
6.46136
  0
LINE
  8
0
 10
21.5724
 20
6.46136
 11
21.3436
 21
6.67627
  0
LINE
  8
0
 10
21.3436
 20
6.67627
 11
21.0896
 21
6.86081
  0
LINE
  8
0
 10
21.0896
 20
6.86081
 11
20.8144
 21
7.01205
  0
LINE
  8
0
 10
20.8144
 20
7.01205
 11
20.5225
 21
7.12764
  0
LINE
  8
0
 10
20.5225
 20
7.12764
 11
20.2184
 21
7.2057
  0
LINE
  8
0
 10
20.2184
 20
7.2057
 11
19.907
 21
7.24506
  0
LINE
  8
0
 10
19.907
 20
7.24506
 11
-19.907
 21
7.24506
  0
LINE
  8
0
 10
-19.907
 20
7.24506
 11
-20.2184
 21
7.2057
  0
LINE
  8
0
 10
-20.2184
 20
7.2057
 11
-20.5225
 21
7.12764
  0
LINE
  8
0
 10
-20.5225
 20
7.12764
 11
-20.8144
 21
7.01205
  0
LINE
  8
0
 10
-20.8144
 20
7.01205
 11
-21.0896
 21
6.86081
  0
LINE
  8
0
 10
-21.0896
 20
6.86081
 11
-21.3436
 21
6.67627
  0
LINE
  8
0
 10
-21.3436
 20
6.67627
 11
-21.5724
 21
6.46136
  0
LINE
  8
0
 10
-21.5724
 20
6.46136
 11
-21.7725
 21
6.21945
  0
LINE
  8
0
 10
-21.7725
 20
6.21945
 11
-21.9408
 21
5.95438
  0
LINE
  8
0
 10
-21.9408
 20
5.95438
 11
-22.0744
 21
5.6703
  0
LINE
  8
0
 10
-22.0744
 20
5.6703
 11
-22.1714
 21
5.37172
  0
LINE
  8
0
 10
-22.1714
 20
5.37172
 11
-22.2303
 21
5.06332
  0
LINE
  8
0
 10
-22.2303
 20
5.06332
 11
-22.25
 21
4.75
  0
LINE
  8
0
 10
-22.25
 20
4.75
 11
-22.25
 21
-4.75
  0
LINE
  8
0
 10
-22.25
 20
-4.75
 11
-22.2303
 21
-5.06332
  0
LINE
  8
0
 10
-22.2303
 20
-5.06332
 11
-22.1714
 21
-5.37172
  0
LINE
  8
0
 10
-22.1714
 20
-5.37172
 11
-22.0744
 21
-5.6703
  0
LINE
  8
0
 10
-22.0744
 20
-5.6703
 11
-21.9408
 21
-5.95438
  0
LINE
  8
0
 10
-21.9408
 20
-5.95438
 11
-21.7725
 21
-6.21945
  0
LINE
  8
0
 10
-21.7725
 20
-6.21945
 11
-21.5724
 21
-6.46136
  0
LINE
  8
0
 10
-21.5724
 20
-6.46136
 11
-21.3436
 21
-6.67627
  0
LINE
  8
0
 10
-21.3436
 20
-6.67627
 11
-21.0896
 21
-6.86081
  0
LINE
  8
0
 10
-21.0896
 20
-6.86081
 11
-20.8144
 21
-7.01205
  0
LINE
  8
0
 10
-20.8144
 20
-7.01205
 11
-20.5225
 21
-7.12764
  0
LINE
  8
0
 10
-20.5225
 20
-7.12764
 11
-20.2184
 21
-7.2057
  0
LINE
  8
0
 10
-20.2184
 20
-7.2057
 11
-19.907
 21
-7.24506
  0
LINE
  8
0
 10
-19.907
 20
-7.24506
 11
19.907
 21
-7.24506
  0
LINE
  8
0
 10
19.907
 20
-7.24506
 11
20.2184
 21
-7.2057
  0
LINE
  8
0
 10
-3.84418
 20
2.25294
 11
-4.03107
 21
2.27657
  0
LINE
  8
0
 10
-4.03107
 20
2.27657
 11
-4.21352
 21
2.32341
  0
LINE
  8
0
 10
-4.21352
 20
2.32341
 11
-4.38866
 21
2.39275
  0
LINE
  8
0
 10
-4.38866
 20
2.39275
 11
-4.55373
 21
2.48351
  0
LINE
  8
0
 10
-4.55373
 20
2.48351
 11
-4.70613
 21
2.59422
  0
LINE
  8
0
 10
-4.70613
 20
2.59422
 11
-4.84344
 21
2.72318
  0
LINE
  8
0
 10
-4.84344
 20
2.72318
 11
-4.96352
 21
2.86832
  0
LINE
  8
0
 10
-4.96352
 20
2.86832
 11
-5.06445
 21
3.02736
  0
LINE
  8
0
 10
-5.06445
 20
3.02736
 11
-5.14465
 21
3.1978
  0
LINE
  8
0
 10
-5.14465
 20
3.1978
 11
-5.20287
 21
3.37695
  0
LINE
  8
0
 10
-5.20287
 20
3.37695
 11
-5.23816
 21
3.562
  0
LINE
  8
0
 10
-5.23816
 20
3.562
 11
-5.25
 21
3.75
  0
LINE
  8
0
 10
-5.25
 20
3.75
 11
-5.23816
 21
3.93799
  0
LINE
  8
0
 10
-5.23816
 20
3.93799
 11
-5.20287
 21
4.12303
  0
LINE
  8
0
 10
-5.20287
 20
4.12303
 11
-5.14465
 21
4.30219
  0
LINE
  8
0
 10
-5.14465
 20
4.30219
 11
-5.06445
 21
4.47263
  0
LINE
  8
0
 10
-5.06445
 20
4.47263
 11
-4.96352
 21
4.63167
  0
LINE
  8
0
 10
-4.96352
 20
4.63167
 11
-4.84344
 21
4.77681
  0
LINE
  8
0
 10
-4.84344
 20
4.77681
 11
-4.70613
 21
4.90576
  0
LINE
  8
0
 10
-4.70613
 20
4.90576
 11
-4.55373
 21
5.01648
  0
LINE
  8
0
 10
-4.55373
 20
5.01648
 11
-4.38866
 21
5.10724
  0
LINE
  8
0
 10
-4.38866
 20
5.10724
 11
-4.21352
 21
5.17657
  0
LINE
  8
0
 10
-4.21352
 20
5.17657
 11
-4.03107
 21
5.22342
  0
LINE
  8
0
 10
-4.03107
 20
5.22342
 11
-3.84418
 21
5.24704
  0
LINE
  8
0
 10
-3.84418
 20
5.24704
 11
-3.65581
 21
5.24704
  0
LINE
  8
0
 10
-3.65581
 20
5.24704
 11
-3.46892
 21
5.22342
  0
LINE
  8
0
 10
-3.46892
 20
5.22342
 11
-3.28647
 21
5.17657
  0
LINE
  8
0
 10
-3.28647
 20
5.17657
 11
-3.11133
 21
5.10724
  0
LINE
  8
0
 10
-3.11133
 20
5.10724
 11
-2.94626
 21
5.01648
  0
LINE
  8
0
 10
-2.94626
 20
5.01648
 11
-2.79385
 21
4.90576
  0
LINE
  8
0
 10
-2.79385
 20
4.90576
 11
-2.65654
 21
4.77681
  0
LINE
  8
0
 10
-2.65654
 20
4.77681
 11
-2.53647
 21
4.63167
  0
LINE
  8
0
 10
-2.53647
 20
4.63167
 11
-2.43553
 21
4.47263
  0
LINE
  8
0
 10
-2.43553
 20
4.47263
 11
-2.35533
 21
4.30219
  0
LINE
  8
0
 10
-2.35533
 20
4.30219
 11
-2.29712
 21
4.12303
  0
LINE
  8
0
 10
-2.29712
 20
4.12303
 11
-2.26183
 21
3.93799
  0
LINE
  8
0
 10
-2.26183
 20
3.93799
 11
-2.25
 21
3.75
  0
LINE
  8
0
 10
-2.25
 20
3.75
 11
-2.26183
 21
3.562
  0
LINE
  8
0
 10
-2.26183
 20
3.562
 11
-2.29712
 21
3.37695
  0
LINE
  8
0
 10
-2.29712
 20
3.37695
 11
-2.35533
 21
3.1978
  0
LINE
  8
0
 10
-2.35533
 20
3.1978
 11
-2.43553
 21
3.02736
  0
LINE
  8
0
 10
-2.43553
 20
3.02736
 11
-2.53647
 21
2.86832
  0
LINE
  8
0
 10
-2.53647
 20
2.86832
 11
-2.65654
 21
2.72318
  0
LINE
  8
0
 10
-2.65654
 20
2.72318
 11
-2.79385
 21
2.59422
  0
LINE
  8
0
 10
-2.79385
 20
2.59422
 11
-2.94626
 21
2.48351
  0
LINE
  8
0
 10
-2.94626
 20
2.48351
 11
-3.11133
 21
2.39275
  0
LINE
  8
0
 10
-3.11133
 20
2.39275
 11
-3.28647
 21
2.32341
  0
LINE
  8
0
 10
-3.28647
 20
2.32341
 11
-3.46892
 21
2.27657
  0
LINE
  8
0
 10
-3.46892
 20
2.27657
 11
-3.65581
 21
2.25294
  0
LINE
  8
0
 10
-3.65581
 20
2.25294
 11
-3.84418
 21
2.25294
  0
LINE
  8
0
 10
-11.3442
 20
2.25294
 11
-11.5311
 21
2.27657
  0
LINE
  8
0
 10
-11.5311
 20
2.27657
 11
-11.7135
 21
2.32341
  0
LINE
  8
0
 10
-11.7135
 20
2.32341
 11
-11.8887
 21
2.39275
  0
LINE
  8
0
 10
-11.8887
 20
2.39275
 11
-12.0537
 21
2.48351
  0
LINE
  8
0
 10
-12.0537
 20
2.48351
 11
-12.2061
 21
2.59422
  0
LINE
  8
0
 10
-12.2061
 20
2.59422
 11
-12.3434
 21
2.72318
  0
LINE
  8
0
 10
-12.3434
 20
2.72318
 11
-12.4635
 21
2.86832
  0
LINE
  8
0
 10
-12.4635
 20
2.86832
 11
-12.5645
 21
3.02736
  0
LINE
  8
0
 10
-12.5645
 20
3.02736
 11
-12.6447
 21
3.1978
  0
LINE
  8
0
 10
-12.6447
 20
3.1978
 11
-12.7029
 21
3.37695
  0
LINE
  8
0
 10
-12.7029
 20
3.37695
 11
-12.7382
 21
3.562
  0
LINE
  8
0
 10
-12.7382
 20
3.562
 11
-12.75
 21
3.75
  0
LINE
  8
0
 10
-12.75
 20
3.75
 11
-12.7382
 21
3.93799
  0
LINE
  8
0
 10
-12.7382
 20
3.93799
 11
-12.7029
 21
4.12303
  0
LINE
  8
0
 10
-12.7029
 20
4.12303
 11
-12.6447
 21
4.30219
  0
LINE
  8
0
 10
-12.6447
 20
4.30219
 11
-12.5645
 21
4.47263
  0
LINE
  8
0
 10
-12.5645
 20
4.47263
 11
-12.4635
 21
4.63167
  0
LINE
  8
0
 10
-12.4635
 20
4.63167
 11
-12.3434
 21
4.77681
  0
LINE
  8
0
 10
-12.3434
 20
4.77681
 11
-12.2061
 21
4.90576
  0
LINE
  8
0
 10
-12.2061
 20
4.90576
 11
-12.0537
 21
5.01648
  0
LINE
  8
0
 10
-12.0537
 20
5.01648
 11
-11.8887
 21
5.10724
  0
LINE
  8
0
 10
-11.8887
 20
5.10724
 11
-11.7135
 21
5.17657
  0
LINE
  8
0
 10
-11.7135
 20
5.17657
 11
-11.5311
 21
5.22342
  0
LINE
  8
0
 10
-11.5311
 20
5.22342
 11
-11.3442
 21
5.24704
  0
LINE
  8
0
 10
-11.3442
 20
5.24704
 11
-11.1558
 21
5.24704
  0
LINE
  8
0
 10
-11.1558
 20
5.24704
 11
-10.9689
 21
5.22342
  0
LINE
  8
0
 10
-10.9689
 20
5.22342
 11
-10.7865
 21
5.17657
  0
LINE
  8
0
 10
-10.7865
 20
5.17657
 11
-10.6113
 21
5.10724
  0
LINE
  8
0
 10
-10.6113
 20
5.10724
 11
-10.4463
 21
5.01648
  0
LINE
  8
0
 10
-10.4463
 20
5.01648
 11
-10.2939
 21
4.90576
  0
LINE
  8
0
 10
-10.2939
 20
4.90576
 11
-10.1565
 21
4.77681
  0
LINE
  8
0
 10
-10.1565
 20
4.77681
 11
-10.0365
 21
4.63167
  0
LINE
  8
0
 10
-10.0365
 20
4.63167
 11
-9.93553
 21
4.47263
  0
LINE
  8
0
 10
-9.93553
 20
4.47263
 11
-9.85533
 21
4.30219
  0
LINE
  8
0
 10
-9.85533
 20
4.30219
 11
-9.79712
 21
4.12303
  0
LINE
  8
0
 10
-9.79712
 20
4.12303
 11
-9.76183
 21
3.93799
  0
LINE
  8
0
 10
-9.76183
 20
3.93799
 11
-9.75
 21
3.75
  0
LINE
  8
0
 10
-9.75
 20
3.75
 11
-9.76183
 21
3.562
  0
LINE
  8
0
 10
-9.76183
 20
3.562
 11
-9.79712
 21
3.37695
  0
LINE
  8
0
 10
-9.79712
 20
3.37695
 11
-9.85533
 21
3.1978
  0
LINE
  8
0
 10
-9.85533
 20
3.1978
 11
-9.93553
 21
3.02736
  0
LINE
  8
0
 10
-9.93553
 20
3.02736
 11
-10.0365
 21
2.86832
  0
LINE
  8
0
 10
-10.0365
 20
2.86832
 11
-10.1565
 21
2.72318
  0
LINE
  8
0
 10
-10.1565
 20
2.72318
 11
-10.2939
 21
2.59422
  0
LINE
  8
0
 10
-10.2939
 20
2.59422
 11
-10.4463
 21
2.48351
  0
LINE
  8
0
 10
-10.4463
 20
2.48351
 11
-10.6113
 21
2.39275
  0
LINE
  8
0
 10
-10.6113
 20
2.39275
 11
-10.7865
 21
2.32341
  0
LINE
  8
0
 10
-10.7865
 20
2.32341
 11
-10.9689
 21
2.27657
  0
LINE
  8
0
 10
-10.9689
 20
2.27657
 11
-11.1558
 21
2.25294
  0
LINE
  8
0
 10
-11.1558
 20
2.25294
 11
-11.3442
 21
2.25294
  0
LINE
  8
0
 10
18.6558
 20
2.25294
 11
18.4689
 21
2.27657
  0
LINE
  8
0
 10
18.4689
 20
2.27657
 11
18.2865
 21
2.32341
  0
LINE
  8
0
 10
18.2865
 20
2.32341
 11
18.1113
 21
2.39275
  0
LINE
  8
0
 10
18.1113
 20
2.39275
 11
17.9463
 21
2.48351
  0
LINE
  8
0
 10
17.9463
 20
2.48351
 11
17.7939
 21
2.59422
  0
LINE
  8
0
 10
17.7939
 20
2.59422
 11
17.6565
 21
2.72318
  0
LINE
  8
0
 10
17.6565
 20
2.72318
 11
17.5365
 21
2.86832
  0
LINE
  8
0
 10
17.5365
 20
2.86832
 11
17.4355
 21
3.02736
  0
LINE
  8
0
 10
17.4355
 20
3.02736
 11
17.3553
 21
3.1978
  0
LINE
  8
0
 10
17.3553
 20
3.1978
 11
17.2971
 21
3.37695
  0
LINE
  8
0
 10
17.2971
 20
3.37695
 11
17.2618
 21
3.562
  0
LINE
  8
0
 10
17.2618
 20
3.562
 11
17.25
 21
3.75
  0
LINE
  8
0
 10
17.25
 20
3.75
 11
17.2618
 21
3.93799
  0
LINE
  8
0
 10
17.2618
 20
3.93799
 11
17.2971
 21
4.12303
  0
LINE
  8
0
 10
17.2971
 20
4.12303
 11
17.3553
 21
4.30219
  0
LINE
  8
0
 10
17.3553
 20
4.30219
 11
17.4355
 21
4.47263
  0
LINE
  8
0
 10
17.4355
 20
4.47263
 11
17.5365
 21
4.63167
  0
LINE
  8
0
 10
17.5365
 20
4.63167
 11
17.6565
 21
4.77681
  0
LINE
  8
0
 10
17.6565
 20
4.77681
 11
17.7939
 21
4.90576
  0
LINE
  8
0
 10
17.7939
 20
4.90576
 11
17.9463
 21
5.01648
  0
LINE
  8
0
 10
17.9463
 20
5.01648
 11
18.1113
 21
5.10724
  0
LINE
  8
0
 10
18.1113
 20
5.10724
 11
18.2865
 21
5.17657
  0
LINE
  8
0
 10
18.2865
 20
5.17657
 11
18.4689
 21
5.22342
  0
LINE
  8
0
 10
18.4689
 20
5.22342
 11
18.6558
 21
5.24704
  0
LINE
  8
0
 10
18.6558
 20
5.24704
 11
18.8442
 21
5.24704
  0
LINE
  8
0
 10
18.8442
 20
5.24704
 11
19.0311
 21
5.22342
  0
LINE
  8
0
 10
19.0311
 20
5.22342
 11
19.2135
 21
5.17657
  0
LINE
  8
0
 10
19.2135
 20
5.17657
 11
19.3887
 21
5.10724
  0
LINE
  8
0
 10
19.3887
 20
5.10724
 11
19.5537
 21
5.01648
  0
LINE
  8
0
 10
19.5537
 20
5.01648
 11
19.7061
 21
4.90576
  0
LINE
  8
0
 10
19.7061
 20
4.90576
 11
19.8434
 21
4.77681
  0
LINE
  8
0
 10
19.8434
 20
4.77681
 11
19.9635
 21
4.63167
  0
LINE
  8
0
 10
19.9635
 20
4.63167
 11
20.0645
 21
4.47263
  0
LINE
  8
0
 10
20.0645
 20
4.47263
 11
20.1447
 21
4.30219
  0
LINE
  8
0
 10
20.1447
 20
4.30219
 11
20.2029
 21
4.12303
  0
LINE
  8
0
 10
20.2029
 20
4.12303
 11
20.2382
 21
3.93799
  0
LINE
  8
0
 10
20.2382
 20
3.93799
 11
20.25
 21
3.75
  0
LINE
  8
0
 10
20.25
 20
3.75
 11
20.2382
 21
3.562
  0
LINE
  8
0
 10
20.2382
 20
3.562
 11
20.2029
 21
3.37695
  0
LINE
  8
0
 10
20.2029
 20
3.37695
 11
20.1447
 21
3.1978
  0
LINE
  8
0
 10
20.1447
 20
3.1978
 11
20.0645
 21
3.02736
  0
LINE
  8
0
 10
20.0645
 20
3.02736
 11
19.9635
 21
2.86832
  0
LINE
  8
0
 10
19.9635
 20
2.86832
 11
19.8434
 21
2.72318
  0
LINE
  8
0
 10
19.8434
 20
2.72318
 11
19.7061
 21
2.59422
  0
LINE
  8
0
 10
19.7061
 20
2.59422
 11
19.5537
 21
2.48351
  0
LINE
  8
0
 10
19.5537
 20
2.48351
 11
19.3887
 21
2.39275
  0
LINE
  8
0
 10
19.3887
 20
2.39275
 11
19.2135
 21
2.32341
  0
LINE
  8
0
 10
19.2135
 20
2.32341
 11
19.0311
 21
2.27657
  0
LINE
  8
0
 10
19.0311
 20
2.27657
 11
18.8442
 21
2.25294
  0
LINE
  8
0
 10
18.8442
 20
2.25294
 11
18.6558
 21
2.25294
  0
LINE
  8
0
 10
-18.8442
 20
2.25294
 11
-19.0311
 21
2.27657
  0
LINE
  8
0
 10
-19.0311
 20
2.27657
 11
-19.2135
 21
2.32341
  0
LINE
  8
0
 10
-19.2135
 20
2.32341
 11
-19.3887
 21
2.39275
  0
LINE
  8
0
 10
-19.3887
 20
2.39275
 11
-19.5537
 21
2.48351
  0
LINE
  8
0
 10
-19.5537
 20
2.48351
 11
-19.7061
 21
2.59422
  0
LINE
  8
0
 10
-19.7061
 20
2.59422
 11
-19.8434
 21
2.72318
  0
LINE
  8
0
 10
-19.8434
 20
2.72318
 11
-19.9635
 21
2.86832
  0
LINE
  8
0
 10
-19.9635
 20
2.86832
 11
-20.0645
 21
3.02736
  0
LINE
  8
0
 10
-20.0645
 20
3.02736
 11
-20.1447
 21
3.1978
  0
LINE
  8
0
 10
-20.1447
 20
3.1978
 11
-20.2029
 21
3.37695
  0
LINE
  8
0
 10
-20.2029
 20
3.37695
 11
-20.2382
 21
3.562
  0
LINE
  8
0
 10
-20.2382
 20
3.562
 11
-20.25
 21
3.75
  0
LINE
  8
0
 10
-20.25
 20
3.75
 11
-20.2382
 21
3.93799
  0
LINE
  8
0
 10
-20.2382
 20
3.93799
 11
-20.2029
 21
4.12303
  0
LINE
  8
0
 10
-20.2029
 20
4.12303
 11
-20.1447
 21
4.30219
  0
LINE
  8
0
 10
-20.1447
 20
4.30219
 11
-20.0645
 21
4.47263
  0
LINE
  8
0
 10
-20.0645
 20
4.47263
 11
-19.9635
 21
4.63167
  0
LINE
  8
0
 10
-19.9635
 20
4.63167
 11
-19.8434
 21
4.77681
  0
LINE
  8
0
 10
-19.8434
 20
4.77681
 11
-19.7061
 21
4.90576
  0
LINE
  8
0
 10
-19.7061
 20
4.90576
 11
-19.5537
 21
5.01648
  0
LINE
  8
0
 10
-19.5537
 20
5.01648
 11
-19.3887
 21
5.10724
  0
LINE
  8
0
 10
-19.3887
 20
5.10724
 11
-19.2135
 21
5.17657
  0
LINE
  8
0
 10
-19.2135
 20
5.17657
 11
-19.0311
 21
5.22342
  0
LINE
  8
0
 10
-19.0311
 20
5.22342
 11
-18.8442
 21
5.24704
  0
LINE
  8
0
 10
-18.8442
 20
5.24704
 11
-18.6558
 21
5.24704
  0
LINE
  8
0
 10
-18.6558
 20
5.24704
 11
-18.4689
 21
5.22342
  0
LINE
  8
0
 10
-18.4689
 20
5.22342
 11
-18.2865
 21
5.17657
  0
LINE
  8
0
 10
-18.2865
 20
5.17657
 11
-18.1113
 21
5.10724
  0
LINE
  8
0
 10
-18.1113
 20
5.10724
 11
-17.9463
 21
5.01648
  0
LINE
  8
0
 10
-17.9463
 20
5.01648
 11
-17.7939
 21
4.90576
  0
LINE
  8
0
 10
-17.7939
 20
4.90576
 11
-17.6565
 21
4.77681
  0
LINE
  8
0
 10
-17.6565
 20
4.77681
 11
-17.5365
 21
4.63167
  0
LINE
  8
0
 10
-17.5365
 20
4.63167
 11
-17.4355
 21
4.47263
  0
LINE
  8
0
 10
-17.4355
 20
4.47263
 11
-17.3553
 21
4.30219
  0
LINE
  8
0
 10
-17.3553
 20
4.30219
 11
-17.2971
 21
4.12303
  0
LINE
  8
0
 10
-17.2971
 20
4.12303
 11
-17.2618
 21
3.93799
  0
LINE
  8
0
 10
-17.2618
 20
3.93799
 11
-17.25
 21
3.75
  0
LINE
  8
0
 10
-17.25
 20
3.75
 11
-17.2618
 21
3.562
  0
LINE
  8
0
 10
-17.2618
 20
3.562
 11
-17.2971
 21
3.37695
  0
LINE
  8
0
 10
-17.2971
 20
3.37695
 11
-17.3553
 21
3.1978
  0
LINE
  8
0
 10
-17.3553
 20
3.1978
 11
-17.4355
 21
3.02736
  0
LINE
  8
0
 10
-17.4355
 20
3.02736
 11
-17.5365
 21
2.86832
  0
LINE
  8
0
 10
-17.5365
 20
2.86832
 11
-17.6565
 21
2.72318
  0
LINE
  8
0
 10
-17.6565
 20
2.72318
 11
-17.7939
 21
2.59422
  0
LINE
  8
0
 10
-17.7939
 20
2.59422
 11
-17.9463
 21
2.48351
  0
LINE
  8
0
 10
-17.9463
 20
2.48351
 11
-18.1113
 21
2.39275
  0
LINE
  8
0
 10
-18.1113
 20
2.39275
 11
-18.2865
 21
2.32341
  0
LINE
  8
0
 10
-18.2865
 20
2.32341
 11
-18.4689
 21
2.27657
  0
LINE
  8
0
 10
-18.4689
 20
2.27657
 11
-18.6558
 21
2.25294
  0
LINE
  8
0
 10
-18.6558
 20
2.25294
 11
-18.8442
 21
2.25294
  0
LINE
  8
0
 10
3.65581
 20
2.25294
 11
3.46892
 21
2.27657
  0
LINE
  8
0
 10
3.46892
 20
2.27657
 11
3.28647
 21
2.32341
  0
LINE
  8
0
 10
3.28647
 20
2.32341
 11
3.11133
 21
2.39275
  0
LINE
  8
0
 10
3.11133
 20
2.39275
 11
2.94626
 21
2.48351
  0
LINE
  8
0
 10
2.94626
 20
2.48351
 11
2.79385
 21
2.59422
  0
LINE
  8
0
 10
2.79385
 20
2.59422
 11
2.65654
 21
2.72318
  0
LINE
  8
0
 10
2.65654
 20
2.72318
 11
2.53647
 21
2.86832
  0
LINE
  8
0
 10
2.53647
 20
2.86832
 11
2.43553
 21
3.02736
  0
LINE
  8
0
 10
2.43553
 20
3.02736
 11
2.35533
 21
3.1978
  0
LINE
  8
0
 10
2.35533
 20
3.1978
 11
2.29712
 21
3.37695
  0
LINE
  8
0
 10
2.29712
 20
3.37695
 11
2.26183
 21
3.562
  0
LINE
  8
0
 10
2.26183
 20
3.562
 11
2.25
 21
3.75
  0
LINE
  8
0
 10
2.25
 20
3.75
 11
2.26183
 21
3.93799
  0
LINE
  8
0
 10
2.26183
 20
3.93799
 11
2.29712
 21
4.12303
  0
LINE
  8
0
 10
2.29712
 20
4.12303
 11
2.35533
 21
4.30219
  0
LINE
  8
0
 10
2.35533
 20
4.30219
 11
2.43553
 21
4.47263
  0
LINE
  8
0
 10
2.43553
 20
4.47263
 11
2.53647
 21
4.63167
  0
LINE
  8
0
 10
2.53647
 20
4.63167
 11
2.65654
 21
4.77681
  0
LINE
  8
0
 10
2.65654
 20
4.77681
 11
2.79385
 21
4.90576
  0
LINE
  8
0
 10
2.79385
 20
4.90576
 11
2.94626
 21
5.01648
  0
LINE
  8
0
 10
2.94626
 20
5.01648
 11
3.11133
 21
5.10724
  0
LINE
  8
0
 10
3.11133
 20
5.10724
 11
3.28647
 21
5.17657
  0
LINE
  8
0
 10
3.28647
 20
5.17657
 11
3.46892
 21
5.22342
  0
LINE
  8
0
 10
3.46892
 20
5.22342
 11
3.65581
 21
5.24704
  0
LINE
  8
0
 10
3.65581
 20
5.24704
 11
3.84418
 21
5.24704
  0
LINE
  8
0
 10
3.84418
 20
5.24704
 11
4.03107
 21
5.22342
  0
LINE
  8
0
 10
4.03107
 20
5.22342
 11
4.21352
 21
5.17657
  0
LINE
  8
0
 10
4.21352
 20
5.17657
 11
4.38866
 21
5.10724
  0
LINE
  8
0
 10
4.38866
 20
5.10724
 11
4.55373
 21
5.01648
  0
LINE
  8
0
 10
4.55373
 20
5.01648
 11
4.70613
 21
4.90576
  0
LINE
  8
0
 10
4.70613
 20
4.90576
 11
4.84344
 21
4.77681
  0
LINE
  8
0
 10
4.84344
 20
4.77681
 11
4.96352
 21
4.63167
  0
LINE
  8
0
 10
4.96352
 20
4.63167
 11
5.06445
 21
4.47263
  0
LINE
  8
0
 10
5.06445
 20
4.47263
 11
5.14465
 21
4.30219
  0
LINE
  8
0
 10
5.14465
 20
4.30219
 11
5.20287
 21
4.12303
  0
LINE
  8
0
 10
5.20287
 20
4.12303
 11
5.23816
 21
3.93799
  0
LINE
  8
0
 10
5.23816
 20
3.93799
 11
5.25
 21
3.75
  0
LINE
  8
0
 10
5.25
 20
3.75
 11
5.23816
 21
3.562
  0
LINE
  8
0
 10
5.23816
 20
3.562
 11
5.20287
 21
3.37695
  0
LINE
  8
0
 10
5.20287
 20
3.37695
 11
5.14465
 21
3.1978
  0
LINE
  8
0
 10
5.14465
 20
3.1978
 11
5.06445
 21
3.02736
  0
LINE
  8
0
 10
5.06445
 20
3.02736
 11
4.96352
 21
2.86832
  0
LINE
  8
0
 10
4.96352
 20
2.86832
 11
4.84344
 21
2.72318
  0
LINE
  8
0
 10
4.84344
 20
2.72318
 11
4.70613
 21
2.59422
  0
LINE
  8
0
 10
4.70613
 20
2.59422
 11
4.55373
 21
2.48351
  0
LINE
  8
0
 10
4.55373
 20
2.48351
 11
4.38866
 21
2.39275
  0
LINE
  8
0
 10
4.38866
 20
2.39275
 11
4.21352
 21
2.32341
  0
LINE
  8
0
 10
4.21352
 20
2.32341
 11
4.03107
 21
2.27657
  0
LINE
  8
0
 10
4.03107
 20
2.27657
 11
3.84418
 21
2.25294
  0
LINE
  8
0
 10
3.84418
 20
2.25294
 11
3.65581
 21
2.25294
  0
LINE
  8
0
 10
11.1558
 20
2.25294
 11
10.9689
 21
2.27657
  0
LINE
  8
0
 10
10.9689
 20
2.27657
 11
10.7865
 21
2.32341
  0
LINE
  8
0
 10
10.7865
 20
2.32341
 11
10.6113
 21
2.39275
  0
LINE
  8
0
 10
10.6113
 20
2.39275
 11
10.4463
 21
2.48351
  0
LINE
  8
0
 10
10.4463
 20
2.48351
 11
10.2939
 21
2.59422
  0
LINE
  8
0
 10
10.2939
 20
2.59422
 11
10.1565
 21
2.72318
  0
LINE
  8
0
 10
10.1565
 20
2.72318
 11
10.0365
 21
2.86832
  0
LINE
  8
0
 10
10.0365
 20
2.86832
 11
9.93553
 21
3.02736
  0
LINE
  8
0
 10
9.93553
 20
3.02736
 11
9.85533
 21
3.1978
  0
LINE
  8
0
 10
9.85533
 20
3.1978
 11
9.79712
 21
3.37695
  0
LINE
  8
0
 10
9.79712
 20
3.37695
 11
9.76183
 21
3.562
  0
LINE
  8
0
 10
9.76183
 20
3.562
 11
9.75
 21
3.75
  0
LINE
  8
0
 10
9.75
 20
3.75
 11
9.76183
 21
3.93799
  0
LINE
  8
0
 10
9.76183
 20
3.93799
 11
9.79712
 21
4.12303
  0
LINE
  8
0
 10
9.79712
 20
4.12303
 11
9.85533
 21
4.30219
  0
LINE
  8
0
 10
9.85533
 20
4.30219
 11
9.93553
 21
4.47263
  0
LINE
  8
0
 10
9.93553
 20
4.47263
 11
10.0365
 21
4.63167
  0
LINE
  8
0
 10
10.0365
 20
4.63167
 11
10.1565
 21
4.77681
  0
LINE
  8
0
 10
10.1565
 20
4.77681
 11
10.2939
 21
4.90576
  0
LINE
  8
0
 10
10.2939
 20
4.90576
 11
10.4463
 21
5.01648
  0
LINE
  8
0
 10
10.4463
 20
5.01648
 11
10.6113
 21
5.10724
  0
LINE
  8
0
 10
10.6113
 20
5.10724
 11
10.7865
 21
5.17657
  0
LINE
  8
0
 10
10.7865
 20
5.17657
 11
10.9689
 21
5.22342
  0
LINE
  8
0
 10
10.9689
 20
5.22342
 11
11.1558
 21
5.24704
  0
LINE
  8
0
 10
11.1558
 20
5.24704
 11
11.3442
 21
5.24704
  0
LINE
  8
0
 10
11.3442
 20
5.24704
 11
11.5311
 21
5.22342
  0
LINE
  8
0
 10
11.5311
 20
5.22342
 11
11.7135
 21
5.17657
  0
LINE
  8
0
 10
11.7135
 20
5.17657
 11
11.8887
 21
5.10724
  0
LINE
  8
0
 10
11.8887
 20
5.10724
 11
12.0537
 21
5.01648
  0
LINE
  8
0
 10
12.0537
 20
5.01648
 11
12.2061
 21
4.90576
  0
LINE
  8
0
 10
12.2061
 20
4.90576
 11
12.3434
 21
4.77681
  0
LINE
  8
0
 10
12.3434
 20
4.77681
 11
12.4635
 21
4.63167
  0
LINE
  8
0
 10
12.4635
 20
4.63167
 11
12.5645
 21
4.47263
  0
LINE
  8
0
 10
12.5645
 20
4.47263
 11
12.6447
 21
4.30219
  0
LINE
  8
0
 10
12.6447
 20
4.30219
 11
12.7029
 21
4.12303
  0
LINE
  8
0
 10
12.7029
 20
4.12303
 11
12.7382
 21
3.93799
  0
LINE
  8
0
 10
12.7382
 20
3.93799
 11
12.75
 21
3.75
  0
LINE
  8
0
 10
12.75
 20
3.75
 11
12.7382
 21
3.562
  0
LINE
  8
0
 10
12.7382
 20
3.562
 11
12.7029
 21
3.37695
  0
LINE
  8
0
 10
12.7029
 20
3.37695
 11
12.6447
 21
3.1978
  0
LINE
  8
0
 10
12.6447
 20
3.1978
 11
12.5645
 21
3.02736
  0
LINE
  8
0
 10
12.5645
 20
3.02736
 11
12.4635
 21
2.86832
  0
LINE
  8
0
 10
12.4635
 20
2.86832
 11
12.3434
 21
2.72318
  0
LINE
  8
0
 10
12.3434
 20
2.72318
 11
12.2061
 21
2.59422
  0
LINE
  8
0
 10
12.2061
 20
2.59422
 11
12.0537
 21
2.48351
  0
LINE
  8
0
 10
12.0537
 20
2.48351
 11
11.8887
 21
2.39275
  0
LINE
  8
0
 10
11.8887
 20
2.39275
 11
11.7135
 21
2.32341
  0
LINE
  8
0
 10
11.7135
 20
2.32341
 11
11.5311
 21
2.27657
  0
LINE
  8
0
 10
11.5311
 20
2.27657
 11
11.3442
 21
2.25294
  0
LINE
  8
0
 10
11.3442
 20
2.25294
 11
11.1558
 21
2.25294
  0
LINE
  8
0
 10
11.1558
 20
-5.24704
 11
10.9689
 21
-5.22342
  0
LINE
  8
0
 10
10.9689
 20
-5.22342
 11
10.7865
 21
-5.17657
  0
LINE
  8
0
 10
10.7865
 20
-5.17657
 11
10.6113
 21
-5.10724
  0
LINE
  8
0
 10
10.6113
 20
-5.10724
 11
10.4463
 21
-5.01648
  0
LINE
  8
0
 10
10.4463
 20
-5.01648
 11
10.2939
 21
-4.90576
  0
LINE
  8
0
 10
10.2939
 20
-4.90576
 11
10.1565
 21
-4.77681
  0
LINE
  8
0
 10
10.1565
 20
-4.77681
 11
10.0365
 21
-4.63167
  0
LINE
  8
0
 10
10.0365
 20
-4.63167
 11
9.93553
 21
-4.47263
  0
LINE
  8
0
 10
9.93553
 20
-4.47263
 11
9.85533
 21
-4.30219
  0
LINE
  8
0
 10
9.85533
 20
-4.30219
 11
9.79712
 21
-4.12303
  0
LINE
  8
0
 10
9.79712
 20
-4.12303
 11
9.76183
 21
-3.93799
  0
LINE
  8
0
 10
9.76183
 20
-3.93799
 11
9.75
 21
-3.75
  0
LINE
  8
0
 10
9.75
 20
-3.75
 11
9.76183
 21
-3.562
  0
LINE
  8
0
 10
9.76183
 20
-3.562
 11
9.79712
 21
-3.37695
  0
LINE
  8
0
 10
9.79712
 20
-3.37695
 11
9.85533
 21
-3.1978
  0
LINE
  8
0
 10
9.85533
 20
-3.1978
 11
9.93553
 21
-3.02736
  0
LINE
  8
0
 10
9.93553
 20
-3.02736
 11
10.0365
 21
-2.86832
  0
LINE
  8
0
 10
10.0365
 20
-2.86832
 11
10.1565
 21
-2.72318
  0
LINE
  8
0
 10
10.1565
 20
-2.72318
 11
10.2939
 21
-2.59422
  0
LINE
  8
0
 10
10.2939
 20
-2.59422
 11
10.4463
 21
-2.48351
  0
LINE
  8
0
 10
10.4463
 20
-2.48351
 11
10.6113
 21
-2.39275
  0
LINE
  8
0
 10
10.6113
 20
-2.39275
 11
10.7865
 21
-2.32341
  0
LINE
  8
0
 10
10.7865
 20
-2.32341
 11
10.9689
 21
-2.27657
  0
LINE
  8
0
 10
10.9689
 20
-2.27657
 11
11.1558
 21
-2.25294
  0
LINE
  8
0
 10
11.1558
 20
-2.25294
 11
11.3442
 21
-2.25294
  0
LINE
  8
0
 10
11.3442
 20
-2.25294
 11
11.5311
 21
-2.27657
  0
LINE
  8
0
 10
11.5311
 20
-2.27657
 11
11.7135
 21
-2.32341
  0
LINE
  8
0
 10
11.7135
 20
-2.32341
 11
11.8887
 21
-2.39275
  0
LINE
  8
0
 10
11.8887
 20
-2.39275
 11
12.0537
 21
-2.48351
  0
LINE
  8
0
 10
12.0537
 20
-2.48351
 11
12.2061
 21
-2.59422
  0
LINE
  8
0
 10
12.2061
 20
-2.59422
 11
12.3434
 21
-2.72318
  0
LINE
  8
0
 10
12.3434
 20
-2.72318
 11
12.4635
 21
-2.86832
  0
LINE
  8
0
 10
12.4635
 20
-2.86832
 11
12.5645
 21
-3.02736
  0
LINE
  8
0
 10
12.5645
 20
-3.02736
 11
12.6447
 21
-3.1978
  0
LINE
  8
0
 10
12.6447
 20
-3.1978
 11
12.7029
 21
-3.37695
  0
LINE
  8
0
 10
12.7029
 20
-3.37695
 11
12.7382
 21
-3.562
  0
LINE
  8
0
 10
12.7382
 20
-3.562
 11
12.75
 21
-3.75
  0
LINE
  8
0
 10
12.75
 20
-3.75
 11
12.7382
 21
-3.93799
  0
LINE
  8
0
 10
12.7382
 20
-3.93799
 11
12.7029
 21
-4.12303
  0
LINE
  8
0
 10
12.7029
 20
-4.12303
 11
12.6447
 21
-4.30219
  0
LINE
  8
0
 10
12.6447
 20
-4.30219
 11
12.5645
 21
-4.47263
  0
LINE
  8
0
 10
12.5645
 20
-4.47263
 11
12.4635
 21
-4.63167
  0
LINE
  8
0
 10
12.4635
 20
-4.63167
 11
12.3434
 21
-4.77681
  0
LINE
  8
0
 10
12.3434
 20
-4.77681
 11
12.2061
 21
-4.90576
  0
LINE
  8
0
 10
12.2061
 20
-4.90576
 11
12.0537
 21
-5.01648
  0
LINE
  8
0
 10
12.0537
 20
-5.01648
 11
11.8887
 21
-5.10724
  0
LINE
  8
0
 10
11.8887
 20
-5.10724
 11
11.7135
 21
-5.17657
  0
LINE
  8
0
 10
11.7135
 20
-5.17657
 11
11.5311
 21
-5.22342
  0
LINE
  8
0
 10
11.5311
 20
-5.22342
 11
11.3442
 21
-5.24704
  0
LINE
  8
0
 10
11.3442
 20
-5.24704
 11
11.1558
 21
-5.24704
  0
LINE
  8
0
 10
3.65581
 20
-5.24704
 11
3.46892
 21
-5.22342
  0
LINE
  8
0
 10
3.46892
 20
-5.22342
 11
3.28647
 21
-5.17657
  0
LINE
  8
0
 10
3.28647
 20
-5.17657
 11
3.11133
 21
-5.10724
  0
LINE
  8
0
 10
3.11133
 20
-5.10724
 11
2.94626
 21
-5.01648
  0
LINE
  8
0
 10
2.94626
 20
-5.01648
 11
2.79385
 21
-4.90576
  0
LINE
  8
0
 10
2.79385
 20
-4.90576
 11
2.65654
 21
-4.77681
  0
LINE
  8
0
 10
2.65654
 20
-4.77681
 11
2.53647
 21
-4.63167
  0
LINE
  8
0
 10
2.53647
 20
-4.63167
 11
2.43553
 21
-4.47263
  0
LINE
  8
0
 10
2.43553
 20
-4.47263
 11
2.35533
 21
-4.30219
  0
LINE
  8
0
 10
2.35533
 20
-4.30219
 11
2.29712
 21
-4.12303
  0
LINE
  8
0
 10
2.29712
 20
-4.12303
 11
2.26183
 21
-3.93799
  0
LINE
  8
0
 10
2.26183
 20
-3.93799
 11
2.25
 21
-3.75
  0
LINE
  8
0
 10
2.25
 20
-3.75
 11
2.26183
 21
-3.562
  0
LINE
  8
0
 10
2.26183
 20
-3.562
 11
2.29712
 21
-3.37695
  0
LINE
  8
0
 10
2.29712
 20
-3.37695
 11
2.35533
 21
-3.1978
  0
LINE
  8
0
 10
2.35533
 20
-3.1978
 11
2.43553
 21
-3.02736
  0
LINE
  8
0
 10
2.43553
 20
-3.02736
 11
2.53647
 21
-2.86832
  0
LINE
  8
0
 10
2.53647
 20
-2.86832
 11
2.65654
 21
-2.72318
  0
LINE
  8
0
 10
2.65654
 20
-2.72318
 11
2.79385
 21
-2.59422
  0
LINE
  8
0
 10
2.79385
 20
-2.59422
 11
2.94626
 21
-2.48351
  0
LINE
  8
0
 10
2.94626
 20
-2.48351
 11
3.11133
 21
-2.39275
  0
LINE
  8
0
 10
3.11133
 20
-2.39275
 11
3.28647
 21
-2.32341
  0
LINE
  8
0
 10
3.28647
 20
-2.32341
 11
3.46892
 21
-2.27657
  0
LINE
  8
0
 10
3.46892
 20
-2.27657
 11
3.65581
 21
-2.25294
  0
LINE
  8
0
 10
3.65581
 20
-2.25294
 11
3.84418
 21
-2.25294
  0
LINE
  8
0
 10
3.84418
 20
-2.25294
 11
4.03107
 21
-2.27657
  0
LINE
  8
0
 10
4.03107
 20
-2.27657
 11
4.21352
 21
-2.32341
  0
LINE
  8
0
 10
4.21352
 20
-2.32341
 11
4.38866
 21
-2.39275
  0
LINE
  8
0
 10
4.38866
 20
-2.39275
 11
4.55373
 21
-2.48351
  0
LINE
  8
0
 10
4.55373
 20
-2.48351
 11
4.70613
 21
-2.59422
  0
LINE
  8
0
 10
4.70613
 20
-2.59422
 11
4.84344
 21
-2.72318
  0
LINE
  8
0
 10
4.84344
 20
-2.72318
 11
4.96352
 21
-2.86832
  0
LINE
  8
0
 10
4.96352
 20
-2.86832
 11
5.06445
 21
-3.02736
  0
LINE
  8
0
 10
5.06445
 20
-3.02736
 11
5.14465
 21
-3.1978
  0
LINE
  8
0
 10
5.14465
 20
-3.1978
 11
5.20287
 21
-3.37695
  0
LINE
  8
0
 10
5.20287
 20
-3.37695
 11
5.23816
 21
-3.562
  0
LINE
  8
0
 10
5.23816
 20
-3.562
 11
5.25
 21
-3.75
  0
LINE
  8
0
 10
5.25
 20
-3.75
 11
5.23816
 21
-3.93799
  0
LINE
  8
0
 10
5.23816
 20
-3.93799
 11
5.20287
 21
-4.12303
  0
LINE
  8
0
 10
5.20287
 20
-4.12303
 11
5.14465
 21
-4.30219
  0
LINE
  8
0
 10
5.14465
 20
-4.30219
 11
5.06445
 21
-4.47263
  0
LINE
  8
0
 10
5.06445
 20
-4.47263
 11
4.96352
 21
-4.63167
  0
LINE
  8
0
 10
4.96352
 20
-4.63167
 11
4.84344
 21
-4.77681
  0
LINE
  8
0
 10
4.84344
 20
-4.77681
 11
4.70613
 21
-4.90576
  0
LINE
  8
0
 10
4.70613
 20
-4.90576
 11
4.55373
 21
-5.01648
  0
LINE
  8
0
 10
4.55373
 20
-5.01648
 11
4.38866
 21
-5.10724
  0
LINE
  8
0
 10
4.38866
 20
-5.10724
 11
4.21352
 21
-5.17657
  0
LINE
  8
0
 10
4.21352
 20
-5.17657
 11
4.03107
 21
-5.22342
  0
LINE
  8
0
 10
4.03107
 20
-5.22342
 11
3.84418
 21
-5.24704
  0
LINE
  8
0
 10
3.84418
 20
-5.24704
 11
3.65581
 21
-5.24704
  0
LINE
  8
0
 10
18.6558
 20
-5.24704
 11
18.4689
 21
-5.22342
  0
LINE
  8
0
 10
18.4689
 20
-5.22342
 11
18.2865
 21
-5.17657
  0
LINE
  8
0
 10
18.2865
 20
-5.17657
 11
18.1113
 21
-5.10724
  0
LINE
  8
0
 10
18.1113
 20
-5.10724
 11
17.9463
 21
-5.01648
  0
LINE
  8
0
 10
17.9463
 20
-5.01648
 11
17.7939
 21
-4.90576
  0
LINE
  8
0
 10
17.7939
 20
-4.90576
 11
17.6565
 21
-4.77681
  0
LINE
  8
0
 10
17.6565
 20
-4.77681
 11
17.5365
 21
-4.63167
  0
LINE
  8
0
 10
17.5365
 20
-4.63167
 11
17.4355
 21
-4.47263
  0
LINE
  8
0
 10
17.4355
 20
-4.47263
 11
17.3553
 21
-4.30219
  0
LINE
  8
0
 10
17.3553
 20
-4.30219
 11
17.2971
 21
-4.12303
  0
LINE
  8
0
 10
17.2971
 20
-4.12303
 11
17.2618
 21
-3.93799
  0
LINE
  8
0
 10
17.2618
 20
-3.93799
 11
17.25
 21
-3.75
  0
LINE
  8
0
 10
17.25
 20
-3.75
 11
17.2618
 21
-3.562
  0
LINE
  8
0
 10
17.2618
 20
-3.562
 11
17.2971
 21
-3.37695
  0
LINE
  8
0
 10
17.2971
 20
-3.37695
 11
17.3553
 21
-3.1978
  0
LINE
  8
0
 10
17.3553
 20
-3.1978
 11
17.4355
 21
-3.02736
  0
LINE
  8
0
 10
17.4355
 20
-3.02736
 11
17.5365
 21
-2.86832
  0
LINE
  8
0
 10
17.5365
 20
-2.86832
 11
17.6565
 21
-2.72318
  0
LINE
  8
0
 10
17.6565
 20
-2.72318
 11
17.7939
 21
-2.59422
  0
LINE
  8
0
 10
17.7939
 20
-2.59422
 11
17.9463
 21
-2.48351
  0
LINE
  8
0
 10
17.9463
 20
-2.48351
 11
18.1113
 21
-2.39275
  0
LINE
  8
0
 10
18.1113
 20
-2.39275
 11
18.2865
 21
-2.32341
  0
LINE
  8
0
 10
18.2865
 20
-2.32341
 11
18.4689
 21
-2.27657
  0
LINE
  8
0
 10
18.4689
 20
-2.27657
 11
18.6558
 21
-2.25294
  0
LINE
  8
0
 10
18.6558
 20
-2.25294
 11
18.8442
 21
-2.25294
  0
LINE
  8
0
 10
18.8442
 20
-2.25294
 11
19.0311
 21
-2.27657
  0
LINE
  8
0
 10
19.0311
 20
-2.27657
 11
19.2135
 21
-2.32341
  0
LINE
  8
0
 10
19.2135
 20
-2.32341
 11
19.3887
 21
-2.39275
  0
LINE
  8
0
 10
19.3887
 20
-2.39275
 11
19.5537
 21
-2.48351
  0
LINE
  8
0
 10
19.5537
 20
-2.48351
 11
19.7061
 21
-2.59422
  0
LINE
  8
0
 10
19.7061
 20
-2.59422
 11
19.8434
 21
-2.72318
  0
LINE
  8
0
 10
19.8434
 20
-2.72318
 11
19.9635
 21
-2.86832
  0
LINE
  8
0
 10
19.9635
 20
-2.86832
 11
20.0645
 21
-3.02736
  0
LINE
  8
0
 10
20.0645
 20
-3.02736
 11
20.1447
 21
-3.1978
  0
LINE
  8
0
 10
20.1447
 20
-3.1978
 11
20.2029
 21
-3.37695
  0
LINE
  8
0
 10
20.2029
 20
-3.37695
 11
20.2382
 21
-3.562
  0
LINE
  8
0
 10
20.2382
 20
-3.562
 11
20.25
 21
-3.75
  0
LINE
  8
0
 10
20.25
 20
-3.75
 11
20.2382
 21
-3.93799
  0
LINE
  8
0
 10
20.2382
 20
-3.93799
 11
20.2029
 21
-4.12303
  0
LINE
  8
0
 10
20.2029
 20
-4.12303
 11
20.1447
 21
-4.30219
  0
LINE
  8
0
 10
20.1447
 20
-4.30219
 11
20.0645
 21
-4.47263
  0
LINE
  8
0
 10
20.0645
 20
-4.47263
 11
19.9635
 21
-4.63167
  0
LINE
  8
0
 10
19.9635
 20
-4.63167
 11
19.8434
 21
-4.77681
  0
LINE
  8
0
 10
19.8434
 20
-4.77681
 11
19.7061
 21
-4.90576
  0
LINE
  8
0
 10
19.7061
 20
-4.90576
 11
19.5537
 21
-5.01648
  0
LINE
  8
0
 10
19.5537
 20
-5.01648
 11
19.3887
 21
-5.10724
  0
LINE
  8
0
 10
19.3887
 20
-5.10724
 11
19.2135
 21
-5.17657
  0
LINE
  8
0
 10
19.2135
 20
-5.17657
 11
19.0311
 21
-5.22342
  0
LINE
  8
0
 10
19.0311
 20
-5.22342
 11
18.8442
 21
-5.24704
  0
LINE
  8
0
 10
18.8442
 20
-5.24704
 11
18.6558
 21
-5.24704
  0
LINE
  8
0
 10
-3.84418
 20
-5.24704
 11
-4.03107
 21
-5.22342
  0
LINE
  8
0
 10
-4.03107
 20
-5.22342
 11
-4.21352
 21
-5.17657
  0
LINE
  8
0
 10
-4.21352
 20
-5.17657
 11
-4.38866
 21
-5.10724
  0
LINE
  8
0
 10
-4.38866
 20
-5.10724
 11
-4.55373
 21
-5.01648
  0
LINE
  8
0
 10
-4.55373
 20
-5.01648
 11
-4.70613
 21
-4.90576
  0
LINE
  8
0
 10
-4.70613
 20
-4.90576
 11
-4.84344
 21
-4.77681
  0
LINE
  8
0
 10
-4.84344
 20
-4.77681
 11
-4.96352
 21
-4.63167
  0
LINE
  8
0
 10
-4.96352
 20
-4.63167
 11
-5.06445
 21
-4.47263
  0
LINE
  8
0
 10
-5.06445
 20
-4.47263
 11
-5.14465
 21
-4.30219
  0
LINE
  8
0
 10
-5.14465
 20
-4.30219
 11
-5.20287
 21
-4.12303
  0
LINE
  8
0
 10
-5.20287
 20
-4.12303
 11
-5.23816
 21
-3.93799
  0
LINE
  8
0
 10
-5.23816
 20
-3.93799
 11
-5.25
 21
-3.75
  0
LINE
  8
0
 10
-5.25
 20
-3.75
 11
-5.23816
 21
-3.562
  0
LINE
  8
0
 10
-5.23816
 20
-3.562
 11
-5.20287
 21
-3.37695
  0
LINE
  8
0
 10
-5.20287
 20
-3.37695
 11
-5.14465
 21
-3.1978
  0
LINE
  8
0
 10
-5.14465
 20
-3.1978
 11
-5.06445
 21
-3.02736
  0
LINE
  8
0
 10
-5.06445
 20
-3.02736
 11
-4.96352
 21
-2.86832
  0
LINE
  8
0
 10
-4.96352
 20
-2.86832
 11
-4.84344
 21
-2.72318
  0
LINE
  8
0
 10
-4.84344
 20
-2.72318
 11
-4.70613
 21
-2.59422
  0
LINE
  8
0
 10
-4.70613
 20
-2.59422
 11
-4.55373
 21
-2.48351
  0
LINE
  8
0
 10
-4.55373
 20
-2.48351
 11
-4.38866
 21
-2.39275
  0
LINE
  8
0
 10
-4.38866
 20
-2.39275
 11
-4.21352
 21
-2.32341
  0
LINE
  8
0
 10
-4.21352
 20
-2.32341
 11
-4.03107
 21
-2.27657
  0
LINE
  8
0
 10
-4.03107
 20
-2.27657
 11
-3.84418
 21
-2.25294
  0
LINE
  8
0
 10
-3.84418
 20
-2.25294
 11
-3.65581
 21
-2.25294
  0
LINE
  8
0
 10
-3.65581
 20
-2.25294
 11
-3.46892
 21
-2.27657
  0
LINE
  8
0
 10
-3.46892
 20
-2.27657
 11
-3.28647
 21
-2.32341
  0
LINE
  8
0
 10
-3.28647
 20
-2.32341
 11
-3.11133
 21
-2.39275
  0
LINE
  8
0
 10
-3.11133
 20
-2.39275
 11
-2.94626
 21
-2.48351
  0
LINE
  8
0
 10
-2.94626
 20
-2.48351
 11
-2.79385
 21
-2.59422
  0
LINE
  8
0
 10
-2.79385
 20
-2.59422
 11
-2.65654
 21
-2.72318
  0
LINE
  8
0
 10
-2.65654
 20
-2.72318
 11
-2.53647
 21
-2.86832
  0
LINE
  8
0
 10
-2.53647
 20
-2.86832
 11
-2.43553
 21
-3.02736
  0
LINE
  8
0
 10
-2.43553
 20
-3.02736
 11
-2.35533
 21
-3.1978
  0
LINE
  8
0
 10
-2.35533
 20
-3.1978
 11
-2.29712
 21
-3.37695
  0
LINE
  8
0
 10
-2.29712
 20
-3.37695
 11
-2.26183
 21
-3.562
  0
LINE
  8
0
 10
-2.26183
 20
-3.562
 11
-2.25
 21
-3.75
  0
LINE
  8
0
 10
-2.25
 20
-3.75
 11
-2.26183
 21
-3.93799
  0
LINE
  8
0
 10
-2.26183
 20
-3.93799
 11
-2.29712
 21
-4.12303
  0
LINE
  8
0
 10
-2.29712
 20
-4.12303
 11
-2.35533
 21
-4.30219
  0
LINE
  8
0
 10
-2.35533
 20
-4.30219
 11
-2.43553
 21
-4.47263
  0
LINE
  8
0
 10
-2.43553
 20
-4.47263
 11
-2.53647
 21
-4.63167
  0
LINE
  8
0
 10
-2.53647
 20
-4.63167
 11
-2.65654
 21
-4.77681
  0
LINE
  8
0
 10
-2.65654
 20
-4.77681
 11
-2.79385
 21
-4.90576
  0
LINE
  8
0
 10
-2.79385
 20
-4.90576
 11
-2.94626
 21
-5.01648
  0
LINE
  8
0
 10
-2.94626
 20
-5.01648
 11
-3.11133
 21
-5.10724
  0
LINE
  8
0
 10
-3.11133
 20
-5.10724
 11
-3.28647
 21
-5.17657
  0
LINE
  8
0
 10
-3.28647
 20
-5.17657
 11
-3.46892
 21
-5.22342
  0
LINE
  8
0
 10
-3.46892
 20
-5.22342
 11
-3.65581
 21
-5.24704
  0
LINE
  8
0
 10
-3.65581
 20
-5.24704
 11
-3.84418
 21
-5.24704
  0
LINE
  8
0
 10
-11.3442
 20
-5.24704
 11
-11.5311
 21
-5.22342
  0
LINE
  8
0
 10
-11.5311
 20
-5.22342
 11
-11.7135
 21
-5.17657
  0
LINE
  8
0
 10
-11.7135
 20
-5.17657
 11
-11.8887
 21
-5.10724
  0
LINE
  8
0
 10
-11.8887
 20
-5.10724
 11
-12.0537
 21
-5.01648
  0
LINE
  8
0
 10
-12.0537
 20
-5.01648
 11
-12.2061
 21
-4.90576
  0
LINE
  8
0
 10
-12.2061
 20
-4.90576
 11
-12.3434
 21
-4.77681
  0
LINE
  8
0
 10
-12.3434
 20
-4.77681
 11
-12.4635
 21
-4.63167
  0
LINE
  8
0
 10
-12.4635
 20
-4.63167
 11
-12.5645
 21
-4.47263
  0
LINE
  8
0
 10
-12.5645
 20
-4.47263
 11
-12.6447
 21
-4.30219
  0
LINE
  8
0
 10
-12.6447
 20
-4.30219
 11
-12.7029
 21
-4.12303
  0
LINE
  8
0
 10
-12.7029
 20
-4.12303
 11
-12.7382
 21
-3.93799
  0
LINE
  8
0
 10
-12.7382
 20
-3.93799
 11
-12.75
 21
-3.75
  0
LINE
  8
0
 10
-12.75
 20
-3.75
 11
-12.7382
 21
-3.562
  0
LINE
  8
0
 10
-12.7382
 20
-3.562
 11
-12.7029
 21
-3.37695
  0
LINE
  8
0
 10
-12.7029
 20
-3.37695
 11
-12.6447
 21
-3.1978
  0
LINE
  8
0
 10
-12.6447
 20
-3.1978
 11
-12.5645
 21
-3.02736
  0
LINE
  8
0
 10
-12.5645
 20
-3.02736
 11
-12.4635
 21
-2.86832
  0
LINE
  8
0
 10
-12.4635
 20
-2.86832
 11
-12.3434
 21
-2.72318
  0
LINE
  8
0
 10
-12.3434
 20
-2.72318
 11
-12.2061
 21
-2.59422
  0
LINE
  8
0
 10
-12.2061
 20
-2.59422
 11
-12.0537
 21
-2.48351
  0
LINE
  8
0
 10
-12.0537
 20
-2.48351
 11
-11.8887
 21
-2.39275
  0
LINE
  8
0
 10
-11.8887
 20
-2.39275
 11
-11.7135
 21
-2.32341
  0
LINE
  8
0
 10
-11.7135
 20
-2.32341
 11
-11.5311
 21
-2.27657
  0
LINE
  8
0
 10
-11.5311
 20
-2.27657
 11
-11.3442
 21
-2.25294
  0
LINE
  8
0
 10
-11.3442
 20
-2.25294
 11
-11.1558
 21
-2.25294
  0
LINE
  8
0
 10
-11.1558
 20
-2.25294
 11
-10.9689
 21
-2.27657
  0
LINE
  8
0
 10
-10.9689
 20
-2.27657
 11
-10.7865
 21
-2.32341
  0
LINE
  8
0
 10
-10.7865
 20
-2.32341
 11
-10.6113
 21
-2.39275
  0
LINE
  8
0
 10
-10.6113
 20
-2.39275
 11
-10.4463
 21
-2.48351
  0
LINE
  8
0
 10
-10.4463
 20
-2.48351
 11
-10.2939
 21
-2.59422
  0
LINE
  8
0
 10
-10.2939
 20
-2.59422
 11
-10.1565
 21
-2.72318
  0
LINE
  8
0
 10
-10.1565
 20
-2.72318
 11
-10.0365
 21
-2.86832
  0
LINE
  8
0
 10
-10.0365
 20
-2.86832
 11
-9.93553
 21
-3.02736
  0
LINE
  8
0
 10
-9.93553
 20
-3.02736
 11
-9.85533
 21
-3.1978
  0
LINE
  8
0
 10
-9.85533
 20
-3.1978
 11
-9.79712
 21
-3.37695
  0
LINE
  8
0
 10
-9.79712
 20
-3.37695
 11
-9.76183
 21
-3.562
  0
LINE
  8
0
 10
-9.76183
 20
-3.562
 11
-9.75
 21
-3.75
  0
LINE
  8
0
 10
-9.75
 20
-3.75
 11
-9.76183
 21
-3.93799
  0
LINE
  8
0
 10
-9.76183
 20
-3.93799
 11
-9.79712
 21
-4.12303
  0
LINE
  8
0
 10
-9.79712
 20
-4.12303
 11
-9.85533
 21
-4.30219
  0
LINE
  8
0
 10
-9.85533
 20
-4.30219
 11
-9.93553
 21
-4.47263
  0
LINE
  8
0
 10
-9.93553
 20
-4.47263
 11
-10.0365
 21
-4.63167
  0
LINE
  8
0
 10
-10.0365
 20
-4.63167
 11
-10.1565
 21
-4.77681
  0
LINE
  8
0
 10
-10.1565
 20
-4.77681
 11
-10.2939
 21
-4.90576
  0
LINE
  8
0
 10
-10.2939
 20
-4.90576
 11
-10.4463
 21
-5.01648
  0
LINE
  8
0
 10
-10.4463
 20
-5.01648
 11
-10.6113
 21
-5.10724
  0
LINE
  8
0
 10
-10.6113
 20
-5.10724
 11
-10.7865
 21
-5.17657
  0
LINE
  8
0
 10
-10.7865
 20
-5.17657
 11
-10.9689
 21
-5.22342
  0
LINE
  8
0
 10
-10.9689
 20
-5.22342
 11
-11.1558
 21
-5.24704
  0
LINE
  8
0
 10
-11.1558
 20
-5.24704
 11
-11.3442
 21
-5.24704
  0
LINE
  8
0
 10
-18.8442
 20
-5.24704
 11
-19.0311
 21
-5.22342
  0
LINE
  8
0
 10
-19.0311
 20
-5.22342
 11
-19.2135
 21
-5.17657
  0
LINE
  8
0
 10
-19.2135
 20
-5.17657
 11
-19.3887
 21
-5.10724
  0
LINE
  8
0
 10
-19.3887
 20
-5.10724
 11
-19.5537
 21
-5.01648
  0
LINE
  8
0
 10
-19.5537
 20
-5.01648
 11
-19.7061
 21
-4.90576
  0
LINE
  8
0
 10
-19.7061
 20
-4.90576
 11
-19.8434
 21
-4.77681
  0
LINE
  8
0
 10
-19.8434
 20
-4.77681
 11
-19.9635
 21
-4.63167
  0
LINE
  8
0
 10
-19.9635
 20
-4.63167
 11
-20.0645
 21
-4.47263
  0
LINE
  8
0
 10
-20.0645
 20
-4.47263
 11
-20.1447
 21
-4.30219
  0
LINE
  8
0
 10
-20.1447
 20
-4.30219
 11
-20.2029
 21
-4.12303
  0
LINE
  8
0
 10
-20.2029
 20
-4.12303
 11
-20.2382
 21
-3.93799
  0
LINE
  8
0
 10
-20.2382
 20
-3.93799
 11
-20.25
 21
-3.75
  0
LINE
  8
0
 10
-20.25
 20
-3.75
 11
-20.2382
 21
-3.562
  0
LINE
  8
0
 10
-20.2382
 20
-3.562
 11
-20.2029
 21
-3.37695
  0
LINE
  8
0
 10
-20.2029
 20
-3.37695
 11
-20.1447
 21
-3.1978
  0
LINE
  8
0
 10
-20.1447
 20
-3.1978
 11
-20.0645
 21
-3.02736
  0
LINE
  8
0
 10
-20.0645
 20
-3.02736
 11
-19.9635
 21
-2.86832
  0
LINE
  8
0
 10
-19.9635
 20
-2.86832
 11
-19.8434
 21
-2.72318
  0
LINE
  8
0
 10
-19.8434
 20
-2.72318
 11
-19.7061
 21
-2.59422
  0
LINE
  8
0
 10
-19.7061
 20
-2.59422
 11
-19.5537
 21
-2.48351
  0
LINE
  8
0
 10
-19.5537
 20
-2.48351
 11
-19.3887
 21
-2.39275
  0
LINE
  8
0
 10
-19.3887
 20
-2.39275
 11
-19.2135
 21
-2.32341
  0
LINE
  8
0
 10
-19.2135
 20
-2.32341
 11
-19.0311
 21
-2.27657
  0
LINE
  8
0
 10
-19.0311
 20
-2.27657
 11
-18.8442
 21
-2.25294
  0
LINE
  8
0
 10
-18.8442
 20
-2.25294
 11
-18.6558
 21
-2.25294
  0
LINE
  8
0
 10
-18.6558
 20
-2.25294
 11
-18.4689
 21
-2.27657
  0
LINE
  8
0
 10
-18.4689
 20
-2.27657
 11
-18.2865
 21
-2.32341
  0
LINE
  8
0
 10
-18.2865
 20
-2.32341
 11
-18.1113
 21
-2.39275
  0
LINE
  8
0
 10
-18.1113
 20
-2.39275
 11
-17.9463
 21
-2.48351
  0
LINE
  8
0
 10
-17.9463
 20
-2.48351
 11
-17.7939
 21
-2.59422
  0
LINE
  8
0
 10
-17.7939
 20
-2.59422
 11
-17.6565
 21
-2.72318
  0
LINE
  8
0
 10
-17.6565
 20
-2.72318
 11
-17.5365
 21
-2.86832
  0
LINE
  8
0
 10
-17.5365
 20
-2.86832
 11
-17.4355
 21
-3.02736
  0
LINE
  8
0
 10
-17.4355
 20
-3.02736
 11
-17.3553
 21
-3.1978
  0
LINE
  8
0
 10
-17.3553
 20
-3.1978
 11
-17.2971
 21
-3.37695
  0
LINE
  8
0
 10
-17.2971
 20
-3.37695
 11
-17.2618
 21
-3.562
  0
LINE
  8
0
 10
-17.2618
 20
-3.562
 11
-17.25
 21
-3.75
  0
LINE
  8
0
 10
-17.25
 20
-3.75
 11
-17.2618
 21
-3.93799
  0
LINE
  8
0
 10
-17.2618
 20
-3.93799
 11
-17.2971
 21
-4.12303
  0
LINE
  8
0
 10
-17.2971
 20
-4.12303
 11
-17.3553
 21
-4.30219
  0
LINE
  8
0
 10
-17.3553
 20
-4.30219
 11
-17.4355
 21
-4.47263
  0
LINE
  8
0
 10
-17.4355
 20
-4.47263
 11
-17.5365
 21
-4.63167
  0
LINE
  8
0
 10
-17.5365
 20
-4.63167
 11
-17.6565
 21
-4.77681
  0
LINE
  8
0
 10
-17.6565
 20
-4.77681
 11
-17.7939
 21
-4.90576
  0
LINE
  8
0
 10
-17.7939
 20
-4.90576
 11
-17.9463
 21
-5.01648
  0
LINE
  8
0
 10
-17.9463
 20
-5.01648
 11
-18.1113
 21
-5.10724
  0
LINE
  8
0
 10
-18.1113
 20
-5.10724
 11
-18.2865
 21
-5.17657
  0
LINE
  8
0
 10
-18.2865
 20
-5.17657
 11
-18.4689
 21
-5.22342
  0
LINE
  8
0
 10
-18.4689
 20
-5.22342
 11
-18.6558
 21
-5.24704
  0
LINE
  8
0
 10
-18.6558
 20
-5.24704
 11
-18.8442
 21
-5.24704
  0
ENDSEC
  0
SECTION
  2
OBJECTS
  0
DICTIONARY
  0
ENDSEC
  0
EOF
