  0
SECTION
  2
BLOCKS
  0
ENDSEC
  0
SECTION
  2
ENTITIES
  0
LINE
  8
0
 10
10.4369
 20
89.0886
 11
11.0451
 21
89.2447
  0
LINE
  8
0
 10
11.0451
 20
89.2447
 11
11.6289
 21
89.4759
  0
LINE
  8
0
 10
11.6289
 20
89.4759
 11
12.1791
 21
89.7784
  0
LINE
  8
0
 10
12.1791
 20
89.7784
 11
12.6871
 21
90.1474
  0
LINE
  8
0
 10
12.6871
 20
90.1474
 11
13.1448
 21
90.5773
  0
LINE
  8
0
 10
13.1448
 20
90.5773
 11
13.5451
 21
91.0611
  0
LINE
  8
0
 10
13.5451
 20
91.0611
 11
13.8815
 21
91.5912
  0
LINE
  8
0
 10
13.8815
 20
91.5912
 11
14.1489
 21
92.1594
  0
LINE
  8
0
 10
14.1489
 20
92.1594
 11
14.3429
 21
92.7566
  0
LINE
  8
0
 10
14.3429
 20
92.7566
 11
14.4606
 21
93.3733
  0
LINE
  8
0
 10
14.4606
 20
93.3733
 11
14.5
 21
94
  0
LINE
  8
0
 10
14.5
 20
94
 11
14.5
 21
98
  0
LINE
  8
0
 10
14.5
 20
98
 11
14.4606
 21
98.6267
  0
LINE
  8
0
 10
14.4606
 20
98.6267
 11
14.3429
 21
99.2434
  0
LINE
  8
0
 10
14.3429
 20
99.2434
 11
14.1489
 21
99.8406
  0
LINE
  8
0
 10
14.1489
 20
99.8406
 11
13.8815
 21
100.409
  0
LINE
  8
0
 10
13.8815
 20
100.409
 11
13.5451
 21
100.939
  0
LINE
  8
0
 10
13.5451
 20
100.939
 11
13.1448
 21
101.423
  0
LINE
  8
0
 10
13.1448
 20
101.423
 11
12.6871
 21
101.853
  0
LINE
  8
0
 10
12.6871
 20
101.853
 11
12.1791
 21
102.222
  0
LINE
  8
0
 10
12.1791
 20
102.222
 11
11.6289
 21
102.524
  0
LINE
  8
0
 10
11.6289
 20
102.524
 11
11.0451
 21
102.755
  0
LINE
  8
0
 10
11.0451
 20
102.755
 11
10.4369
 21
102.911
  0
LINE
  8
0
 10
10.4369
 20
102.911
 11
9.81395
 21
102.99
  0
LINE
  8
0
 10
9.81395
 20
102.99
 11
-9.81395
 21
102.99
  0
LINE
  8
0
 10
-9.81395
 20
102.99
 11
-10.4369
 21
102.911
  0
LINE
  8
0
 10
-10.4369
 20
102.911
 11
-11.0451
 21
102.755
  0
LINE
  8
0
 10
-11.0451
 20
102.755
 11
-11.6289
 21
102.524
  0
LINE
  8
0
 10
-11.6289
 20
102.524
 11
-12.1791
 21
102.222
  0
LINE
  8
0
 10
-12.1791
 20
102.222
 11
-12.6871
 21
101.853
  0
LINE
  8
0
 10
-12.6871
 20
101.853
 11
-13.1448
 21
101.423
  0
LINE
  8
0
 10
-13.1448
 20
101.423
 11
-13.5451
 21
100.939
  0
LINE
  8
0
 10
-13.5451
 20
100.939
 11
-13.8815
 21
100.409
  0
LINE
  8
0
 10
-13.8815
 20
100.409
 11
-14.1489
 21
99.8406
  0
LINE
  8
0
 10
-14.1489
 20
99.8406
 11
-14.3429
 21
99.2434
  0
LINE
  8
0
 10
-14.3429
 20
99.2434
 11
-14.4606
 21
98.6267
  0
LINE
  8
0
 10
-14.4606
 20
98.6267
 11
-14.5
 21
98
  0
LINE
  8
0
 10
-14.5
 20
98
 11
-14.5
 21
94
  0
LINE
  8
0
 10
-14.5
 20
94
 11
-14.4606
 21
93.3733
  0
LINE
  8
0
 10
-14.4606
 20
93.3733
 11
-14.3429
 21
92.7566
  0
LINE
  8
0
 10
-14.3429
 20
92.7566
 11
-14.1489
 21
92.1594
  0
LINE
  8
0
 10
-14.1489
 20
92.1594
 11
-13.8815
 21
91.5912
  0
LINE
  8
0
 10
-13.8815
 20
91.5912
 11
-13.5451
 21
91.0611
  0
LINE
  8
0
 10
-13.5451
 20
91.0611
 11
-13.1448
 21
90.5773
  0
LINE
  8
0
 10
-13.1448
 20
90.5773
 11
-12.6871
 21
90.1474
  0
LINE
  8
0
 10
-12.6871
 20
90.1474
 11
-12.1791
 21
89.7784
  0
LINE
  8
0
 10
-12.1791
 20
89.7784
 11
-11.6289
 21
89.4759
  0
LINE
  8
0
 10
-11.6289
 20
89.4759
 11
-11.0451
 21
89.2447
  0
LINE
  8
0
 10
-11.0451
 20
89.2447
 11
-10.4369
 21
89.0886
  0
LINE
  8
0
 10
-10.4369
 20
89.0886
 11
-9.81395
 21
89.0099
  0
LINE
  8
0
 10
-9.81395
 20
89.0099
 11
9.81395
 21
89.0099
  0
LINE
  8
0
 10
9.81395
 20
89.0099
 11
10.4369
 21
89.0886
  0
LINE
  8
0
 10
-9.74316
 20
90.135
 11
-10.2256
 21
90.196
  0
LINE
  8
0
 10
-10.2256
 20
90.196
 11
-10.6967
 21
90.3169
  0
LINE
  8
0
 10
-10.6967
 20
90.3169
 11
-11.1489
 21
90.4959
  0
LINE
  8
0
 10
-11.1489
 20
90.4959
 11
-11.5751
 21
90.7302
  0
LINE
  8
0
 10
-11.5751
 20
90.7302
 11
-11.9685
 21
91.0161
  0
LINE
  8
0
 10
-11.9685
 20
91.0161
 11
-12.323
 21
91.349
  0
LINE
  8
0
 10
-12.323
 20
91.349
 11
-12.633
 21
91.7237
  0
LINE
  8
0
 10
-12.633
 20
91.7237
 11
-12.8936
 21
92.1344
  0
LINE
  8
0
 10
-12.8936
 20
92.1344
 11
-13.1007
 21
92.5744
  0
LINE
  8
0
 10
-13.1007
 20
92.5744
 11
-13.251
 21
93.0369
  0
LINE
  8
0
 10
-13.251
 20
93.0369
 11
-13.3421
 21
93.5146
  0
LINE
  8
0
 10
-13.3421
 20
93.5146
 11
-13.3726
 21
94
  0
LINE
  8
0
 10
-13.3726
 20
94
 11
-13.3726
 21
98
  0
LINE
  8
0
 10
-13.3726
 20
98
 11
-13.3421
 21
98.4854
  0
LINE
  8
0
 10
-13.3421
 20
98.4854
 11
-13.251
 21
98.9631
  0
LINE
  8
0
 10
-13.251
 20
98.9631
 11
-13.1007
 21
99.4256
  0
LINE
  8
0
 10
-13.1007
 20
99.4256
 11
-12.8936
 21
99.8656
  0
LINE
  8
0
 10
-12.8936
 20
99.8656
 11
-12.633
 21
100.276
  0
LINE
  8
0
 10
-12.633
 20
100.276
 11
-12.323
 21
100.651
  0
LINE
  8
0
 10
-12.323
 20
100.651
 11
-11.9685
 21
100.984
  0
LINE
  8
0
 10
-11.9685
 20
100.984
 11
-11.5751
 21
101.27
  0
LINE
  8
0
 10
-11.5751
 20
101.27
 11
-11.1489
 21
101.504
  0
LINE
  8
0
 10
-11.1489
 20
101.504
 11
-10.6967
 21
101.683
  0
LINE
  8
0
 10
-10.6967
 20
101.683
 11
-10.2256
 21
101.804
  0
LINE
  8
0
 10
-10.2256
 20
101.804
 11
-9.74316
 21
101.865
  0
LINE
  8
0
 10
-9.74316
 20
101.865
 11
9.74316
 21
101.865
  0
LINE
  8
0
 10
9.74316
 20
101.865
 11
10.2256
 21
101.804
  0
LINE
  8
0
 10
10.2256
 20
101.804
 11
10.6967
 21
101.683
  0
LINE
  8
0
 10
10.6967
 20
101.683
 11
11.1489
 21
101.504
  0
LINE
  8
0
 10
11.1489
 20
101.504
 11
11.5751
 21
101.27
  0
LINE
  8
0
 10
11.5751
 20
101.27
 11
11.9685
 21
100.984
  0
LINE
  8
0
 10
11.9685
 20
100.984
 11
12.323
 21
100.651
  0
LINE
  8
0
 10
12.323
 20
100.651
 11
12.633
 21
100.276
  0
LINE
  8
0
 10
12.633
 20
100.276
 11
12.8936
 21
99.8656
  0
LINE
  8
0
 10
12.8936
 20
99.8656
 11
13.1007
 21
99.4256
  0
LINE
  8
0
 10
13.1007
 20
99.4256
 11
13.251
 21
98.9631
  0
LINE
  8
0
 10
13.251
 20
98.9631
 11
13.3421
 21
98.4854
  0
LINE
  8
0
 10
13.3421
 20
98.4854
 11
13.3726
 21
98
  0
LINE
  8
0
 10
13.3726
 20
98
 11
13.3726
 21
94
  0
LINE
  8
0
 10
13.3726
 20
94
 11
13.3421
 21
93.5146
  0
LINE
  8
0
 10
13.3421
 20
93.5146
 11
13.251
 21
93.0369
  0
LINE
  8
0
 10
13.251
 20
93.0369
 11
13.1007
 21
92.5744
  0
LINE
  8
0
 10
13.1007
 20
92.5744
 11
12.8936
 21
92.1344
  0
LINE
  8
0
 10
12.8936
 20
92.1344
 11
12.633
 21
91.7237
  0
LINE
  8
0
 10
12.633
 20
91.7237
 11
12.323
 21
91.349
  0
LINE
  8
0
 10
12.323
 20
91.349
 11
11.9685
 21
91.0161
  0
LINE
  8
0
 10
11.9685
 20
91.0161
 11
11.5751
 21
90.7302
  0
LINE
  8
0
 10
11.5751
 20
90.7302
 11
11.1489
 21
90.4959
  0
LINE
  8
0
 10
11.1489
 20
90.4959
 11
10.6967
 21
90.3169
  0
LINE
  8
0
 10
10.6967
 20
90.3169
 11
10.2256
 21
90.196
  0
LINE
  8
0
 10
10.2256
 20
90.196
 11
9.74316
 21
90.135
  0
LINE
  8
0
 10
9.74316
 20
90.135
 11
-9.74316
 21
90.135
  0
LINE
  8
0
 10
10.4369
 20
65.0886
 11
11.0451
 21
65.2447
  0
LINE
  8
0
 10
11.0451
 20
65.2447
 11
11.6289
 21
65.4759
  0
LINE
  8
0
 10
11.6289
 20
65.4759
 11
12.1791
 21
65.7784
  0
LINE
  8
0
 10
12.1791
 20
65.7784
 11
12.6871
 21
66.1474
  0
LINE
  8
0
 10
12.6871
 20
66.1474
 11
13.1448
 21
66.5773
  0
LINE
  8
0
 10
13.1448
 20
66.5773
 11
13.5451
 21
67.0611
  0
LINE
  8
0
 10
13.5451
 20
67.0611
 11
13.8815
 21
67.5912
  0
LINE
  8
0
 10
13.8815
 20
67.5912
 11
14.1489
 21
68.1594
  0
LINE
  8
0
 10
14.1489
 20
68.1594
 11
14.3429
 21
68.7566
  0
LINE
  8
0
 10
14.3429
 20
68.7566
 11
14.4606
 21
69.3733
  0
LINE
  8
0
 10
14.4606
 20
69.3733
 11
14.5
 21
70
  0
LINE
  8
0
 10
14.5
 20
70
 11
14.5
 21
74
  0
LINE
  8
0
 10
14.5
 20
74
 11
14.4606
 21
74.6267
  0
LINE
  8
0
 10
14.4606
 20
74.6267
 11
14.3429
 21
75.2434
  0
LINE
  8
0
 10
14.3429
 20
75.2434
 11
14.1489
 21
75.8406
  0
LINE
  8
0
 10
14.1489
 20
75.8406
 11
13.8815
 21
76.4088
  0
LINE
  8
0
 10
13.8815
 20
76.4088
 11
13.5451
 21
76.9389
  0
LINE
  8
0
 10
13.5451
 20
76.9389
 11
13.1448
 21
77.4227
  0
LINE
  8
0
 10
13.1448
 20
77.4227
 11
12.6871
 21
77.8526
  0
LINE
  8
0
 10
12.6871
 20
77.8526
 11
12.1791
 21
78.2216
  0
LINE
  8
0
 10
12.1791
 20
78.2216
 11
11.6289
 21
78.5241
  0
LINE
  8
0
 10
11.6289
 20
78.5241
 11
11.0451
 21
78.7553
  0
LINE
  8
0
 10
11.0451
 20
78.7553
 11
10.4369
 21
78.9114
  0
LINE
  8
0
 10
10.4369
 20
78.9114
 11
9.81395
 21
78.9901
  0
LINE
  8
0
 10
9.81395
 20
78.9901
 11
-9.81395
 21
78.9901
  0
LINE
  8
0
 10
-9.81395
 20
78.9901
 11
-10.4369
 21
78.9114
  0
LINE
  8
0
 10
-10.4369
 20
78.9114
 11
-11.0451
 21
78.7553
  0
LINE
  8
0
 10
-11.0451
 20
78.7553
 11
-11.6289
 21
78.5241
  0
LINE
  8
0
 10
-11.6289
 20
78.5241
 11
-12.1791
 21
78.2216
  0
LINE
  8
0
 10
-12.1791
 20
78.2216
 11
-12.6871
 21
77.8526
  0
LINE
  8
0
 10
-12.6871
 20
77.8526
 11
-13.1448
 21
77.4227
  0
LINE
  8
0
 10
-13.1448
 20
77.4227
 11
-13.5451
 21
76.9389
  0
LINE
  8
0
 10
-13.5451
 20
76.9389
 11
-13.8815
 21
76.4088
  0
LINE
  8
0
 10
-13.8815
 20
76.4088
 11
-14.1489
 21
75.8406
  0
LINE
  8
0
 10
-14.1489
 20
75.8406
 11
-14.3429
 21
75.2434
  0
LINE
  8
0
 10
-14.3429
 20
75.2434
 11
-14.4606
 21
74.6267
  0
LINE
  8
0
 10
-14.4606
 20
74.6267
 11
-14.5
 21
74
  0
LINE
  8
0
 10
-14.5
 20
74
 11
-14.5
 21
70
  0
LINE
  8
0
 10
-14.5
 20
70
 11
-14.4606
 21
69.3733
  0
LINE
  8
0
 10
-14.4606
 20
69.3733
 11
-14.3429
 21
68.7566
  0
LINE
  8
0
 10
-14.3429
 20
68.7566
 11
-14.1489
 21
68.1594
  0
LINE
  8
0
 10
-14.1489
 20
68.1594
 11
-13.8815
 21
67.5912
  0
LINE
  8
0
 10
-13.8815
 20
67.5912
 11
-13.5451
 21
67.0611
  0
LINE
  8
0
 10
-13.5451
 20
67.0611
 11
-13.1448
 21
66.5773
  0
LINE
  8
0
 10
-13.1448
 20
66.5773
 11
-12.6871
 21
66.1474
  0
LINE
  8
0
 10
-12.6871
 20
66.1474
 11
-12.1791
 21
65.7784
  0
LINE
  8
0
 10
-12.1791
 20
65.7784
 11
-11.6289
 21
65.4759
  0
LINE
  8
0
 10
-11.6289
 20
65.4759
 11
-11.0451
 21
65.2447
  0
LINE
  8
0
 10
-11.0451
 20
65.2447
 11
-10.4369
 21
65.0886
  0
LINE
  8
0
 10
-10.4369
 20
65.0886
 11
-9.81395
 21
65.0099
  0
LINE
  8
0
 10
-9.81395
 20
65.0099
 11
9.81395
 21
65.0099
  0
LINE
  8
0
 10
9.81395
 20
65.0099
 11
10.4369
 21
65.0886
  0
LINE
  8
0
 10
10.4369
 20
41.0886
 11
11.0451
 21
41.2447
  0
LINE
  8
0
 10
11.0451
 20
41.2447
 11
11.6289
 21
41.4759
  0
LINE
  8
0
 10
11.6289
 20
41.4759
 11
12.1791
 21
41.7784
  0
LINE
  8
0
 10
12.1791
 20
41.7784
 11
12.6871
 21
42.1474
  0
LINE
  8
0
 10
12.6871
 20
42.1474
 11
13.1448
 21
42.5773
  0
LINE
  8
0
 10
13.1448
 20
42.5773
 11
13.5451
 21
43.0611
  0
LINE
  8
0
 10
13.5451
 20
43.0611
 11
13.8815
 21
43.5912
  0
LINE
  8
0
 10
13.8815
 20
43.5912
 11
14.1489
 21
44.1594
  0
LINE
  8
0
 10
14.1489
 20
44.1594
 11
14.3429
 21
44.7566
  0
LINE
  8
0
 10
14.3429
 20
44.7566
 11
14.4606
 21
45.3733
  0
LINE
  8
0
 10
14.4606
 20
45.3733
 11
14.5
 21
46
  0
LINE
  8
0
 10
14.5
 20
46
 11
14.5
 21
50
  0
LINE
  8
0
 10
14.5
 20
50
 11
14.4606
 21
50.6267
  0
LINE
  8
0
 10
14.4606
 20
50.6267
 11
14.3429
 21
51.2434
  0
LINE
  8
0
 10
14.3429
 20
51.2434
 11
14.1489
 21
51.8406
  0
LINE
  8
0
 10
14.1489
 20
51.8406
 11
13.8815
 21
52.4088
  0
LINE
  8
0
 10
13.8815
 20
52.4088
 11
13.5451
 21
52.9389
  0
LINE
  8
0
 10
13.5451
 20
52.9389
 11
13.1448
 21
53.4227
  0
LINE
  8
0
 10
13.1448
 20
53.4227
 11
12.6871
 21
53.8526
  0
LINE
  8
0
 10
12.6871
 20
53.8526
 11
12.1791
 21
54.2216
  0
LINE
  8
0
 10
12.1791
 20
54.2216
 11
11.6289
 21
54.5241
  0
LINE
  8
0
 10
11.6289
 20
54.5241
 11
11.0451
 21
54.7553
  0
LINE
  8
0
 10
11.0451
 20
54.7553
 11
10.4369
 21
54.9114
  0
LINE
  8
0
 10
10.4369
 20
54.9114
 11
9.81395
 21
54.9901
  0
LINE
  8
0
 10
9.81395
 20
54.9901
 11
-9.81395
 21
54.9901
  0
LINE
  8
0
 10
-9.81395
 20
54.9901
 11
-10.4369
 21
54.9114
  0
LINE
  8
0
 10
-10.4369
 20
54.9114
 11
-11.0451
 21
54.7553
  0
LINE
  8
0
 10
-11.0451
 20
54.7553
 11
-11.6289
 21
54.5241
  0
LINE
  8
0
 10
-11.6289
 20
54.5241
 11
-12.1791
 21
54.2216
  0
LINE
  8
0
 10
-12.1791
 20
54.2216
 11
-12.6871
 21
53.8526
  0
LINE
  8
0
 10
-12.6871
 20
53.8526
 11
-13.1448
 21
53.4227
  0
LINE
  8
0
 10
-13.1448
 20
53.4227
 11
-13.5451
 21
52.9389
  0
LINE
  8
0
 10
-13.5451
 20
52.9389
 11
-13.8815
 21
52.4088
  0
LINE
  8
0
 10
-13.8815
 20
52.4088
 11
-14.1489
 21
51.8406
  0
LINE
  8
0
 10
-14.1489
 20
51.8406
 11
-14.3429
 21
51.2434
  0
LINE
  8
0
 10
-14.3429
 20
51.2434
 11
-14.4606
 21
50.6267
  0
LINE
  8
0
 10
-14.4606
 20
50.6267
 11
-14.5
 21
50
  0
LINE
  8
0
 10
-14.5
 20
50
 11
-14.5
 21
46
  0
LINE
  8
0
 10
-14.5
 20
46
 11
-14.4606
 21
45.3733
  0
LINE
  8
0
 10
-14.4606
 20
45.3733
 11
-14.3429
 21
44.7566
  0
LINE
  8
0
 10
-14.3429
 20
44.7566
 11
-14.1489
 21
44.1594
  0
LINE
  8
0
 10
-14.1489
 20
44.1594
 11
-13.8815
 21
43.5912
  0
LINE
  8
0
 10
-13.8815
 20
43.5912
 11
-13.5451
 21
43.0611
  0
LINE
  8
0
 10
-13.5451
 20
43.0611
 11
-13.1448
 21
42.5773
  0
LINE
  8
0
 10
-13.1448
 20
42.5773
 11
-12.6871
 21
42.1474
  0
LINE
  8
0
 10
-12.6871
 20
42.1474
 11
-12.1791
 21
41.7784
  0
LINE
  8
0
 10
-12.1791
 20
41.7784
 11
-11.6289
 21
41.4759
  0
LINE
  8
0
 10
-11.6289
 20
41.4759
 11
-11.0451
 21
41.2447
  0
LINE
  8
0
 10
-11.0451
 20
41.2447
 11
-10.4369
 21
41.0886
  0
LINE
  8
0
 10
-10.4369
 20
41.0886
 11
-9.81395
 21
41.0099
  0
LINE
  8
0
 10
-9.81395
 20
41.0099
 11
9.81395
 21
41.0099
  0
LINE
  8
0
 10
9.81395
 20
41.0099
 11
10.4369
 21
41.0886
  0
LINE
  8
0
 10
7.34929
 20
45.6047
 11
7.05028
 21
45.6425
  0
LINE
  8
0
 10
7.05028
 20
45.6425
 11
6.75835
 21
45.7175
  0
LINE
  8
0
 10
6.75835
 20
45.7175
 11
6.47812
 21
45.8284
  0
LINE
  8
0
 10
6.47812
 20
45.8284
 11
6.214
 21
45.9736
  0
LINE
  8
0
 10
6.214
 20
45.9736
 11
5.97017
 21
46.1508
  0
LINE
  8
0
 10
5.97017
 20
46.1508
 11
5.75047
 21
46.3571
  0
LINE
  8
0
 10
5.75047
 20
46.3571
 11
5.55835
 21
46.5893
  0
LINE
  8
0
 10
5.55835
 20
46.5893
 11
5.39685
 21
46.8438
  0
LINE
  8
0
 10
5.39685
 20
46.8438
 11
5.26852
 21
47.1165
  0
LINE
  8
0
 10
5.26852
 20
47.1165
 11
5.1754
 21
47.4032
  0
LINE
  8
0
 10
5.1754
 20
47.4032
 11
5.11891
 21
47.6992
  0
LINE
  8
0
 10
5.11891
 20
47.6992
 11
5.09999
 21
48
  0
LINE
  8
0
 10
5.09999
 20
48
 11
5.11891
 21
48.3008
  0
LINE
  8
0
 10
5.11891
 20
48.3008
 11
5.1754
 21
48.5968
  0
LINE
  8
0
 10
5.1754
 20
48.5968
 11
5.26852
 21
48.8835
  0
LINE
  8
0
 10
5.26852
 20
48.8835
 11
5.39685
 21
49.1562
  0
LINE
  8
0
 10
5.39685
 20
49.1562
 11
5.55835
 21
49.4107
  0
LINE
  8
0
 10
5.55835
 20
49.4107
 11
5.75047
 21
49.6429
  0
LINE
  8
0
 10
5.75047
 20
49.6429
 11
5.97017
 21
49.8492
  0
LINE
  8
0
 10
5.97017
 20
49.8492
 11
6.214
 21
50.0264
  0
LINE
  8
0
 10
6.214
 20
50.0264
 11
6.47812
 21
50.1716
  0
LINE
  8
0
 10
6.47812
 20
50.1716
 11
6.75835
 21
50.2825
  0
LINE
  8
0
 10
6.75835
 20
50.2825
 11
7.05028
 21
50.3575
  0
LINE
  8
0
 10
7.05028
 20
50.3575
 11
7.34929
 21
50.3953
  0
LINE
  8
0
 10
7.34929
 20
50.3953
 11
7.6507
 21
50.3953
  0
LINE
  8
0
 10
7.6507
 20
50.3953
 11
7.94971
 21
50.3575
  0
LINE
  8
0
 10
7.94971
 20
50.3575
 11
8.24164
 21
50.2825
  0
LINE
  8
0
 10
8.24164
 20
50.2825
 11
8.52187
 21
50.1716
  0
LINE
  8
0
 10
8.52187
 20
50.1716
 11
8.78598
 21
50.0264
  0
LINE
  8
0
 10
8.78598
 20
50.0264
 11
9.02982
 21
49.8492
  0
LINE
  8
0
 10
9.02982
 20
49.8492
 11
9.24951
 21
49.6429
  0
LINE
  8
0
 10
9.24951
 20
49.6429
 11
9.44164
 21
49.4107
  0
LINE
  8
0
 10
9.44164
 20
49.4107
 11
9.60313
 21
49.1562
  0
LINE
  8
0
 10
9.60313
 20
49.1562
 11
9.73146
 21
48.8835
  0
LINE
  8
0
 10
9.73146
 20
48.8835
 11
9.82458
 21
48.5968
  0
LINE
  8
0
 10
9.82458
 20
48.5968
 11
9.88107
 21
48.3008
  0
LINE
  8
0
 10
9.88107
 20
48.3008
 11
9.89999
 21
48
  0
LINE
  8
0
 10
9.89999
 20
48
 11
9.88107
 21
47.6992
  0
LINE
  8
0
 10
9.88107
 20
47.6992
 11
9.82458
 21
47.4032
  0
LINE
  8
0
 10
9.82458
 20
47.4032
 11
9.73146
 21
47.1165
  0
LINE
  8
0
 10
9.73146
 20
47.1165
 11
9.60313
 21
46.8438
  0
LINE
  8
0
 10
9.60313
 20
46.8438
 11
9.44164
 21
46.5893
  0
LINE
  8
0
 10
9.44164
 20
46.5893
 11
9.24951
 21
46.3571
  0
LINE
  8
0
 10
9.24951
 20
46.3571
 11
9.02982
 21
46.1508
  0
LINE
  8
0
 10
9.02982
 20
46.1508
 11
8.78598
 21
45.9736
  0
LINE
  8
0
 10
8.78598
 20
45.9736
 11
8.52187
 21
45.8284
  0
LINE
  8
0
 10
8.52187
 20
45.8284
 11
8.24164
 21
45.7175
  0
LINE
  8
0
 10
8.24164
 20
45.7175
 11
7.94971
 21
45.6425
  0
LINE
  8
0
 10
7.94971
 20
45.6425
 11
7.6507
 21
45.6047
  0
LINE
  8
0
 10
7.6507
 20
45.6047
 11
7.34929
 21
45.6047
  0
LINE
  8
0
 10
-7.6507
 20
45.6047
 11
-7.94971
 21
45.6425
  0
LINE
  8
0
 10
-7.94971
 20
45.6425
 11
-8.24164
 21
45.7175
  0
LINE
  8
0
 10
-8.24164
 20
45.7175
 11
-8.52187
 21
45.8284
  0
LINE
  8
0
 10
-8.52187
 20
45.8284
 11
-8.78598
 21
45.9736
  0
LINE
  8
0
 10
-8.78598
 20
45.9736
 11
-9.02982
 21
46.1508
  0
LINE
  8
0
 10
-9.02982
 20
46.1508
 11
-9.24951
 21
46.3571
  0
LINE
  8
0
 10
-9.24951
 20
46.3571
 11
-9.44164
 21
46.5893
  0
LINE
  8
0
 10
-9.44164
 20
46.5893
 11
-9.60313
 21
46.8438
  0
LINE
  8
0
 10
-9.60313
 20
46.8438
 11
-9.73146
 21
47.1165
  0
LINE
  8
0
 10
-9.73146
 20
47.1165
 11
-9.82458
 21
47.4032
  0
LINE
  8
0
 10
-9.82458
 20
47.4032
 11
-9.88107
 21
47.6992
  0
LINE
  8
0
 10
-9.88107
 20
47.6992
 11
-9.89999
 21
48
  0
LINE
  8
0
 10
-9.89999
 20
48
 11
-9.88107
 21
48.3008
  0
LINE
  8
0
 10
-9.88107
 20
48.3008
 11
-9.82458
 21
48.5968
  0
LINE
  8
0
 10
-9.82458
 20
48.5968
 11
-9.73146
 21
48.8835
  0
LINE
  8
0
 10
-9.73146
 20
48.8835
 11
-9.60313
 21
49.1562
  0
LINE
  8
0
 10
-9.60313
 20
49.1562
 11
-9.44164
 21
49.4107
  0
LINE
  8
0
 10
-9.44164
 20
49.4107
 11
-9.24951
 21
49.6429
  0
LINE
  8
0
 10
-9.24951
 20
49.6429
 11
-9.02982
 21
49.8492
  0
LINE
  8
0
 10
-9.02982
 20
49.8492
 11
-8.78598
 21
50.0264
  0
LINE
  8
0
 10
-8.78598
 20
50.0264
 11
-8.52187
 21
50.1716
  0
LINE
  8
0
 10
-8.52187
 20
50.1716
 11
-8.24164
 21
50.2825
  0
LINE
  8
0
 10
-8.24164
 20
50.2825
 11
-7.94971
 21
50.3575
  0
LINE
  8
0
 10
-7.94971
 20
50.3575
 11
-7.6507
 21
50.3953
  0
LINE
  8
0
 10
-7.6507
 20
50.3953
 11
-7.34929
 21
50.3953
  0
LINE
  8
0
 10
-7.34929
 20
50.3953
 11
-7.05028
 21
50.3575
  0
LINE
  8
0
 10
-7.05028
 20
50.3575
 11
-6.75835
 21
50.2825
  0
LINE
  8
0
 10
-6.75835
 20
50.2825
 11
-6.47812
 21
50.1716
  0
LINE
  8
0
 10
-6.47812
 20
50.1716
 11
-6.214
 21
50.0264
  0
LINE
  8
0
 10
-6.214
 20
50.0264
 11
-5.97017
 21
49.8492
  0
LINE
  8
0
 10
-5.97017
 20
49.8492
 11
-5.75047
 21
49.6429
  0
LINE
  8
0
 10
-5.75047
 20
49.6429
 11
-5.55835
 21
49.4107
  0
LINE
  8
0
 10
-5.55835
 20
49.4107
 11
-5.39685
 21
49.1562
  0
LINE
  8
0
 10
-5.39685
 20
49.1562
 11
-5.26852
 21
48.8835
  0
LINE
  8
0
 10
-5.26852
 20
48.8835
 11
-5.1754
 21
48.5968
  0
LINE
  8
0
 10
-5.1754
 20
48.5968
 11
-5.11891
 21
48.3008
  0
LINE
  8
0
 10
-5.11891
 20
48.3008
 11
-5.09999
 21
48
  0
LINE
  8
0
 10
-5.09999
 20
48
 11
-5.11891
 21
47.6992
  0
LINE
  8
0
 10
-5.11891
 20
47.6992
 11
-5.1754
 21
47.4032
  0
LINE
  8
0
 10
-5.1754
 20
47.4032
 11
-5.26852
 21
47.1165
  0
LINE
  8
0
 10
-5.26852
 20
47.1165
 11
-5.39685
 21
46.8438
  0
LINE
  8
0
 10
-5.39685
 20
46.8438
 11
-5.55835
 21
46.5893
  0
LINE
  8
0
 10
-5.55835
 20
46.5893
 11
-5.75047
 21
46.3571
  0
LINE
  8
0
 10
-5.75047
 20
46.3571
 11
-5.97017
 21
46.1508
  0
LINE
  8
0
 10
-5.97017
 20
46.1508
 11
-6.214
 21
45.9736
  0
LINE
  8
0
 10
-6.214
 20
45.9736
 11
-6.47812
 21
45.8284
  0
LINE
  8
0
 10
-6.47812
 20
45.8284
 11
-6.75835
 21
45.7175
  0
LINE
  8
0
 10
-6.75835
 20
45.7175
 11
-7.05028
 21
45.6425
  0
LINE
  8
0
 10
-7.05028
 20
45.6425
 11
-7.34929
 21
45.6047
  0
LINE
  8
0
 10
-7.34929
 20
45.6047
 11
-7.6507
 21
45.6047
  0
ENDSEC
  0
SECTION
  2
OBJECTS
  0
DICTIONARY
  0
ENDSEC
  0
EOF
