  0
SECTION
  2
BLOCKS
  0
ENDSEC
  0
SECTION
  2
ENTITIES
  0
LINE
  8
0
 10
32.9369
 20
-21.9114
 11
33.5451
 21
-21.7553
  0
LINE
  8
0
 10
33.5451
 20
-21.7553
 11
34.1289
 21
-21.5241
  0
LINE
  8
0
 10
34.1289
 20
-21.5241
 11
34.6791
 21
-21.2216
  0
LINE
  8
0
 10
34.6791
 20
-21.2216
 11
35.1871
 21
-20.8526
  0
LINE
  8
0
 10
35.1871
 20
-20.8526
 11
35.6448
 21
-20.4227
  0
LINE
  8
0
 10
35.6448
 20
-20.4227
 11
36.0451
 21
-19.9389
  0
LINE
  8
0
 10
36.0451
 20
-19.9389
 11
36.3815
 21
-19.4088
  0
LINE
  8
0
 10
36.3815
 20
-19.4088
 11
36.6489
 21
-18.8406
  0
LINE
  8
0
 10
36.6489
 20
-18.8406
 11
36.8429
 21
-18.2434
  0
LINE
  8
0
 10
36.8429
 20
-18.2434
 11
36.9606
 21
-17.6267
  0
LINE
  8
0
 10
36.9606
 20
-17.6267
 11
37
 21
-17
  0
LINE
  8
0
 10
37
 20
-17
 11
37
 21
17
  0
LINE
  8
0
 10
37
 20
17
 11
36.9606
 21
17.6267
  0
LINE
  8
0
 10
36.9606
 20
17.6267
 11
36.8429
 21
18.2434
  0
LINE
  8
0
 10
36.8429
 20
18.2434
 11
36.6489
 21
18.8406
  0
LINE
  8
0
 10
36.6489
 20
18.8406
 11
36.3815
 21
19.4088
  0
LINE
  8
0
 10
36.3815
 20
19.4088
 11
36.0451
 21
19.9389
  0
LINE
  8
0
 10
36.0451
 20
19.9389
 11
35.6448
 21
20.4227
  0
LINE
  8
0
 10
35.6448
 20
20.4227
 11
35.1871
 21
20.8526
  0
LINE
  8
0
 10
35.1871
 20
20.8526
 11
34.6791
 21
21.2216
  0
LINE
  8
0
 10
34.6791
 20
21.2216
 11
34.1289
 21
21.5241
  0
LINE
  8
0
 10
34.1289
 20
21.5241
 11
33.5451
 21
21.7553
  0
LINE
  8
0
 10
33.5451
 20
21.7553
 11
32.9369
 21
21.9114
  0
LINE
  8
0
 10
32.9369
 20
21.9114
 11
32.3139
 21
21.9901
  0
LINE
  8
0
 10
32.3139
 20
21.9901
 11
-32.3139
 21
21.9901
  0
LINE
  8
0
 10
-32.3139
 20
21.9901
 11
-32.9369
 21
21.9114
  0
LINE
  8
0
 10
-32.9369
 20
21.9114
 11
-33.5451
 21
21.7553
  0
LINE
  8
0
 10
-33.5451
 20
21.7553
 11
-34.1289
 21
21.5241
  0
LINE
  8
0
 10
-34.1289
 20
21.5241
 11
-34.6791
 21
21.2216
  0
LINE
  8
0
 10
-34.6791
 20
21.2216
 11
-35.1871
 21
20.8526
  0
LINE
  8
0
 10
-35.1871
 20
20.8526
 11
-35.6448
 21
20.4227
  0
LINE
  8
0
 10
-35.6448
 20
20.4227
 11
-36.0451
 21
19.9389
  0
LINE
  8
0
 10
-36.0451
 20
19.9389
 11
-36.3815
 21
19.4088
  0
LINE
  8
0
 10
-36.3815
 20
19.4088
 11
-36.6489
 21
18.8406
  0
LINE
  8
0
 10
-36.6489
 20
18.8406
 11
-36.8429
 21
18.2434
  0
LINE
  8
0
 10
-36.8429
 20
18.2434
 11
-36.9606
 21
17.6267
  0
LINE
  8
0
 10
-36.9606
 20
17.6267
 11
-37
 21
17
  0
LINE
  8
0
 10
-37
 20
17
 11
-37
 21
-17
  0
LINE
  8
0
 10
-37
 20
-17
 11
-36.9606
 21
-17.6267
  0
LINE
  8
0
 10
-36.9606
 20
-17.6267
 11
-36.8429
 21
-18.2434
  0
LINE
  8
0
 10
-36.8429
 20
-18.2434
 11
-36.6489
 21
-18.8406
  0
LINE
  8
0
 10
-36.6489
 20
-18.8406
 11
-36.3815
 21
-19.4088
  0
LINE
  8
0
 10
-36.3815
 20
-19.4088
 11
-36.0451
 21
-19.9389
  0
LINE
  8
0
 10
-36.0451
 20
-19.9389
 11
-35.6448
 21
-20.4227
  0
LINE
  8
0
 10
-35.6448
 20
-20.4227
 11
-35.1871
 21
-20.8526
  0
LINE
  8
0
 10
-35.1871
 20
-20.8526
 11
-34.6791
 21
-21.2216
  0
LINE
  8
0
 10
-34.6791
 20
-21.2216
 11
-34.1289
 21
-21.5241
  0
LINE
  8
0
 10
-34.1289
 20
-21.5241
 11
-33.5451
 21
-21.7553
  0
LINE
  8
0
 10
-33.5451
 20
-21.7553
 11
-32.9369
 21
-21.9114
  0
LINE
  8
0
 10
-32.9369
 20
-21.9114
 11
-32.3139
 21
-21.9901
  0
LINE
  8
0
 10
-32.3139
 20
-21.9901
 11
32.3139
 21
-21.9901
  0
LINE
  8
0
 10
32.3139
 20
-21.9901
 11
32.9369
 21
-21.9114
  0
LINE
  8
0
 10
-30.1256
 20
13.0039
 11
-30.3748
 21
13.0354
  0
LINE
  8
0
 10
-30.3748
 20
13.0354
 11
-30.618
 21
13.0979
  0
LINE
  8
0
 10
-30.618
 20
13.0979
 11
-30.8515
 21
13.1903
  0
LINE
  8
0
 10
-30.8515
 20
13.1903
 11
-31.0716
 21
13.3113
  0
LINE
  8
0
 10
-31.0716
 20
13.3113
 11
-31.2748
 21
13.459
  0
LINE
  8
0
 10
-31.2748
 20
13.459
 11
-31.4579
 21
13.6309
  0
LINE
  8
0
 10
-31.4579
 20
13.6309
 11
-31.618
 21
13.8244
  0
LINE
  8
0
 10
-31.618
 20
13.8244
 11
-31.7526
 21
14.0365
  0
LINE
  8
0
 10
-31.7526
 20
14.0365
 11
-31.8595
 21
14.2637
  0
LINE
  8
0
 10
-31.8595
 20
14.2637
 11
-31.9372
 21
14.5026
  0
LINE
  8
0
 10
-31.9372
 20
14.5026
 11
-31.9842
 21
14.7493
  0
LINE
  8
0
 10
-31.9842
 20
14.7493
 11
-32
 21
15
  0
LINE
  8
0
 10
-32
 20
15
 11
-31.9842
 21
15.2507
  0
LINE
  8
0
 10
-31.9842
 20
15.2507
 11
-31.9372
 21
15.4974
  0
LINE
  8
0
 10
-31.9372
 20
15.4974
 11
-31.8595
 21
15.7362
  0
LINE
  8
0
 10
-31.8595
 20
15.7362
 11
-31.7526
 21
15.9635
  0
LINE
  8
0
 10
-31.7526
 20
15.9635
 11
-31.618
 21
16.1756
  0
LINE
  8
0
 10
-31.618
 20
16.1756
 11
-31.4579
 21
16.3691
  0
LINE
  8
0
 10
-31.4579
 20
16.3691
 11
-31.2748
 21
16.541
  0
LINE
  8
0
 10
-31.2748
 20
16.541
 11
-31.0716
 21
16.6886
  0
LINE
  8
0
 10
-31.0716
 20
16.6886
 11
-30.8515
 21
16.8096
  0
LINE
  8
0
 10
-30.8515
 20
16.8096
 11
-30.618
 21
16.9021
  0
LINE
  8
0
 10
-30.618
 20
16.9021
 11
-30.3748
 21
16.9646
  0
LINE
  8
0
 10
-30.3748
 20
16.9646
 11
-30.1256
 21
16.996
  0
LINE
  8
0
 10
-30.1256
 20
16.996
 11
-29.8744
 21
16.996
  0
LINE
  8
0
 10
-29.8744
 20
16.996
 11
-29.6252
 21
16.9646
  0
LINE
  8
0
 10
-29.6252
 20
16.9646
 11
-29.382
 21
16.9021
  0
LINE
  8
0
 10
-29.382
 20
16.9021
 11
-29.1484
 21
16.8096
  0
LINE
  8
0
 10
-29.1484
 20
16.8096
 11
-28.9283
 21
16.6886
  0
LINE
  8
0
 10
-28.9283
 20
16.6886
 11
-28.7251
 21
16.541
  0
LINE
  8
0
 10
-28.7251
 20
16.541
 11
-28.5421
 21
16.3691
  0
LINE
  8
0
 10
-28.5421
 20
16.3691
 11
-28.382
 21
16.1756
  0
LINE
  8
0
 10
-28.382
 20
16.1756
 11
-28.2474
 21
15.9635
  0
LINE
  8
0
 10
-28.2474
 20
15.9635
 11
-28.1404
 21
15.7362
  0
LINE
  8
0
 10
-28.1404
 20
15.7362
 11
-28.0628
 21
15.4974
  0
LINE
  8
0
 10
-28.0628
 20
15.4974
 11
-28.0158
 21
15.2507
  0
LINE
  8
0
 10
-28.0158
 20
15.2507
 11
-28
 21
15
  0
LINE
  8
0
 10
-28
 20
15
 11
-28.0158
 21
14.7493
  0
LINE
  8
0
 10
-28.0158
 20
14.7493
 11
-28.0628
 21
14.5026
  0
LINE
  8
0
 10
-28.0628
 20
14.5026
 11
-28.1404
 21
14.2637
  0
LINE
  8
0
 10
-28.1404
 20
14.2637
 11
-28.2474
 21
14.0365
  0
LINE
  8
0
 10
-28.2474
 20
14.0365
 11
-28.382
 21
13.8244
  0
LINE
  8
0
 10
-28.382
 20
13.8244
 11
-28.5421
 21
13.6309
  0
LINE
  8
0
 10
-28.5421
 20
13.6309
 11
-28.7251
 21
13.459
  0
LINE
  8
0
 10
-28.7251
 20
13.459
 11
-28.9283
 21
13.3113
  0
LINE
  8
0
 10
-28.9283
 20
13.3113
 11
-29.1484
 21
13.1903
  0
LINE
  8
0
 10
-29.1484
 20
13.1903
 11
-29.382
 21
13.0979
  0
LINE
  8
0
 10
-29.382
 20
13.0979
 11
-29.6252
 21
13.0354
  0
LINE
  8
0
 10
-29.6252
 20
13.0354
 11
-29.8744
 21
13.0039
  0
LINE
  8
0
 10
-29.8744
 20
13.0039
 11
-30.1256
 21
13.0039
  0
LINE
  8
0
 10
34.3744
 20
5.50394
 11
34.1252
 21
5.53542
  0
LINE
  8
0
 10
34.1252
 20
5.53542
 11
33.882
 21
5.59789
  0
LINE
  8
0
 10
33.882
 20
5.59789
 11
33.6484
 21
5.69034
  0
LINE
  8
0
 10
33.6484
 20
5.69034
 11
33.4283
 21
5.81134
  0
LINE
  8
0
 10
33.4283
 20
5.81134
 11
33.2251
 21
5.95897
  0
LINE
  8
0
 10
33.2251
 20
5.95897
 11
33.0421
 21
6.13091
  0
LINE
  8
0
 10
33.0421
 20
6.13091
 11
32.882
 21
6.32442
  0
LINE
  8
0
 10
32.882
 20
6.32442
 11
32.7474
 21
6.53648
  0
LINE
  8
0
 10
32.7474
 20
6.53648
 11
32.6404
 21
6.76375
  0
LINE
  8
0
 10
32.6404
 20
6.76375
 11
32.5628
 21
7.00261
  0
LINE
  8
0
 10
32.5628
 20
7.00261
 11
32.5158
 21
7.24933
  0
LINE
  8
0
 10
32.5158
 20
7.24933
 11
32.5
 21
7.5
  0
LINE
  8
0
 10
32.5
 20
7.5
 11
32.5158
 21
7.75066
  0
LINE
  8
0
 10
32.5158
 20
7.75066
 11
32.5628
 21
7.99738
  0
LINE
  8
0
 10
32.5628
 20
7.99738
 11
32.6404
 21
8.23624
  0
LINE
  8
0
 10
32.6404
 20
8.23624
 11
32.7474
 21
8.4635
  0
LINE
  8
0
 10
32.7474
 20
8.4635
 11
32.882
 21
8.67557
  0
LINE
  8
0
 10
32.882
 20
8.67557
 11
33.0421
 21
8.86908
  0
LINE
  8
0
 10
33.0421
 20
8.86908
 11
33.2251
 21
9.04102
  0
LINE
  8
0
 10
33.2251
 20
9.04102
 11
33.4283
 21
9.18864
  0
LINE
  8
0
 10
33.4283
 20
9.18864
 11
33.6484
 21
9.30965
  0
LINE
  8
0
 10
33.6484
 20
9.30965
 11
33.882
 21
9.4021
  0
LINE
  8
0
 10
33.882
 20
9.4021
 11
34.1252
 21
9.46457
  0
LINE
  8
0
 10
34.1252
 20
9.46457
 11
34.3744
 21
9.49605
  0
LINE
  8
0
 10
34.3744
 20
9.49605
 11
34.6256
 21
9.49605
  0
LINE
  8
0
 10
34.6256
 20
9.49605
 11
34.8748
 21
9.46457
  0
LINE
  8
0
 10
34.8748
 20
9.46457
 11
35.118
 21
9.4021
  0
LINE
  8
0
 10
35.118
 20
9.4021
 11
35.3515
 21
9.30965
  0
LINE
  8
0
 10
35.3515
 20
9.30965
 11
35.5717
 21
9.18864
  0
LINE
  8
0
 10
35.5717
 20
9.18864
 11
35.7748
 21
9.04102
  0
LINE
  8
0
 10
35.7748
 20
9.04102
 11
35.9579
 21
8.86908
  0
LINE
  8
0
 10
35.9579
 20
8.86908
 11
36.118
 21
8.67557
  0
LINE
  8
0
 10
36.118
 20
8.67557
 11
36.2526
 21
8.4635
  0
LINE
  8
0
 10
36.2526
 20
8.4635
 11
36.3595
 21
8.23624
  0
LINE
  8
0
 10
36.3595
 20
8.23624
 11
36.4372
 21
7.99738
  0
LINE
  8
0
 10
36.4372
 20
7.99738
 11
36.4842
 21
7.75066
  0
LINE
  8
0
 10
36.4842
 20
7.75066
 11
36.5
 21
7.5
  0
LINE
  8
0
 10
36.5
 20
7.5
 11
36.4842
 21
7.24933
  0
LINE
  8
0
 10
36.4842
 20
7.24933
 11
36.4372
 21
7.00261
  0
LINE
  8
0
 10
36.4372
 20
7.00261
 11
36.3595
 21
6.76375
  0
LINE
  8
0
 10
36.3595
 20
6.76375
 11
36.2526
 21
6.53648
  0
LINE
  8
0
 10
36.2526
 20
6.53648
 11
36.118
 21
6.32442
  0
LINE
  8
0
 10
36.118
 20
6.32442
 11
35.9579
 21
6.13091
  0
LINE
  8
0
 10
35.9579
 20
6.13091
 11
35.7748
 21
5.95897
  0
LINE
  8
0
 10
35.7748
 20
5.95897
 11
35.5717
 21
5.81134
  0
LINE
  8
0
 10
35.5717
 20
5.81134
 11
35.3515
 21
5.69034
  0
LINE
  8
0
 10
35.3515
 20
5.69034
 11
35.118
 21
5.59789
  0
LINE
  8
0
 10
35.118
 20
5.59789
 11
34.8748
 21
5.53542
  0
LINE
  8
0
 10
34.8748
 20
5.53542
 11
34.6256
 21
5.50394
  0
LINE
  8
0
 10
34.6256
 20
5.50394
 11
34.3744
 21
5.50394
  0
LINE
  8
0
 10
-19.6256
 20
5.50394
 11
-19.8748
 21
5.53542
  0
LINE
  8
0
 10
-19.8748
 20
5.53542
 11
-20.118
 21
5.59789
  0
LINE
  8
0
 10
-20.118
 20
5.59789
 11
-20.3515
 21
5.69034
  0
LINE
  8
0
 10
-20.3515
 20
5.69034
 11
-20.5716
 21
5.81134
  0
LINE
  8
0
 10
-20.5716
 20
5.81134
 11
-20.7748
 21
5.95897
  0
LINE
  8
0
 10
-20.7748
 20
5.95897
 11
-20.9579
 21
6.13091
  0
LINE
  8
0
 10
-20.9579
 20
6.13091
 11
-21.118
 21
6.32442
  0
LINE
  8
0
 10
-21.118
 20
6.32442
 11
-21.2526
 21
6.53648
  0
LINE
  8
0
 10
-21.2526
 20
6.53648
 11
-21.3595
 21
6.76375
  0
LINE
  8
0
 10
-21.3595
 20
6.76375
 11
-21.4372
 21
7.00261
  0
LINE
  8
0
 10
-21.4372
 20
7.00261
 11
-21.4842
 21
7.24933
  0
LINE
  8
0
 10
-21.4842
 20
7.24933
 11
-21.5
 21
7.5
  0
LINE
  8
0
 10
-21.5
 20
7.5
 11
-21.4842
 21
7.75066
  0
LINE
  8
0
 10
-21.4842
 20
7.75066
 11
-21.4372
 21
7.99738
  0
LINE
  8
0
 10
-21.4372
 20
7.99738
 11
-21.3595
 21
8.23624
  0
LINE
  8
0
 10
-21.3595
 20
8.23624
 11
-21.2526
 21
8.4635
  0
LINE
  8
0
 10
-21.2526
 20
8.4635
 11
-21.118
 21
8.67557
  0
LINE
  8
0
 10
-21.118
 20
8.67557
 11
-20.9579
 21
8.86908
  0
LINE
  8
0
 10
-20.9579
 20
8.86908
 11
-20.7748
 21
9.04102
  0
LINE
  8
0
 10
-20.7748
 20
9.04102
 11
-20.5716
 21
9.18864
  0
LINE
  8
0
 10
-20.5716
 20
9.18864
 11
-20.3515
 21
9.30965
  0
LINE
  8
0
 10
-20.3515
 20
9.30965
 11
-20.118
 21
9.4021
  0
LINE
  8
0
 10
-20.118
 20
9.4021
 11
-19.8748
 21
9.46457
  0
LINE
  8
0
 10
-19.8748
 20
9.46457
 11
-19.6256
 21
9.49605
  0
LINE
  8
0
 10
-19.6256
 20
9.49605
 11
-19.3744
 21
9.49605
  0
LINE
  8
0
 10
-19.3744
 20
9.49605
 11
-19.1252
 21
9.46457
  0
LINE
  8
0
 10
-19.1252
 20
9.46457
 11
-18.882
 21
9.4021
  0
LINE
  8
0
 10
-18.882
 20
9.4021
 11
-18.6484
 21
9.30965
  0
LINE
  8
0
 10
-18.6484
 20
9.30965
 11
-18.4283
 21
9.18864
  0
LINE
  8
0
 10
-18.4283
 20
9.18864
 11
-18.2251
 21
9.04102
  0
LINE
  8
0
 10
-18.2251
 20
9.04102
 11
-18.0421
 21
8.86908
  0
LINE
  8
0
 10
-18.0421
 20
8.86908
 11
-17.882
 21
8.67557
  0
LINE
  8
0
 10
-17.882
 20
8.67557
 11
-17.7474
 21
8.4635
  0
LINE
  8
0
 10
-17.7474
 20
8.4635
 11
-17.6404
 21
8.23624
  0
LINE
  8
0
 10
-17.6404
 20
8.23624
 11
-17.5628
 21
7.99738
  0
LINE
  8
0
 10
-17.5628
 20
7.99738
 11
-17.5158
 21
7.75066
  0
LINE
  8
0
 10
-17.5158
 20
7.75066
 11
-17.5
 21
7.5
  0
LINE
  8
0
 10
-17.5
 20
7.5
 11
-17.5158
 21
7.24933
  0
LINE
  8
0
 10
-17.5158
 20
7.24933
 11
-17.5628
 21
7.00261
  0
LINE
  8
0
 10
-17.5628
 20
7.00261
 11
-17.6404
 21
6.76375
  0
LINE
  8
0
 10
-17.6404
 20
6.76375
 11
-17.7474
 21
6.53648
  0
LINE
  8
0
 10
-17.7474
 20
6.53648
 11
-17.882
 21
6.32442
  0
LINE
  8
0
 10
-17.882
 20
6.32442
 11
-18.0421
 21
6.13091
  0
LINE
  8
0
 10
-18.0421
 20
6.13091
 11
-18.2251
 21
5.95897
  0
LINE
  8
0
 10
-18.2251
 20
5.95897
 11
-18.4283
 21
5.81134
  0
LINE
  8
0
 10
-18.4283
 20
5.81134
 11
-18.6484
 21
5.69034
  0
LINE
  8
0
 10
-18.6484
 20
5.69034
 11
-18.882
 21
5.59789
  0
LINE
  8
0
 10
-18.882
 20
5.59789
 11
-19.1252
 21
5.53542
  0
LINE
  8
0
 10
-19.1252
 20
5.53542
 11
-19.3744
 21
5.50394
  0
LINE
  8
0
 10
-19.3744
 20
5.50394
 11
-19.6256
 21
5.50394
  0
LINE
  8
0
 10
-30.1256
 20
-1.99605
 11
-30.3748
 21
-1.96457
  0
LINE
  8
0
 10
-30.3748
 20
-1.96457
 11
-30.618
 21
-1.9021
  0
LINE
  8
0
 10
-30.618
 20
-1.9021
 11
-30.8515
 21
-1.80965
  0
LINE
  8
0
 10
-30.8515
 20
-1.80965
 11
-31.0716
 21
-1.68864
  0
LINE
  8
0
 10
-31.0716
 20
-1.68864
 11
-31.2748
 21
-1.54102
  0
LINE
  8
0
 10
-31.2748
 20
-1.54102
 11
-31.4579
 21
-1.36908
  0
LINE
  8
0
 10
-31.4579
 20
-1.36908
 11
-31.618
 21
-1.17557
  0
LINE
  8
0
 10
-31.618
 20
-1.17557
 11
-31.7526
 21
-0.963501
  0
LINE
  8
0
 10
-31.7526
 20
-0.963501
 11
-31.8595
 21
-0.736237
  0
LINE
  8
0
 10
-31.8595
 20
-0.736237
 11
-31.9372
 21
-0.497375
  0
LINE
  8
0
 10
-31.9372
 20
-0.497375
 11
-31.9842
 21
-0.250656
  0
LINE
  8
0
 10
-31.9842
 20
-0.250656
 11
-32
 21
0
  0
LINE
  8
0
 10
-32
 20
0
 11
-31.9842
 21
0.250656
  0
LINE
  8
0
 10
-31.9842
 20
0.250656
 11
-31.9372
 21
0.497375
  0
LINE
  8
0
 10
-31.9372
 20
0.497375
 11
-31.8595
 21
0.736237
  0
LINE
  8
0
 10
-31.8595
 20
0.736237
 11
-31.7526
 21
0.963501
  0
LINE
  8
0
 10
-31.7526
 20
0.963501
 11
-31.618
 21
1.17557
  0
LINE
  8
0
 10
-31.618
 20
1.17557
 11
-31.4579
 21
1.36908
  0
LINE
  8
0
 10
-31.4579
 20
1.36908
 11
-31.2748
 21
1.54102
  0
LINE
  8
0
 10
-31.2748
 20
1.54102
 11
-31.0716
 21
1.68864
  0
LINE
  8
0
 10
-31.0716
 20
1.68864
 11
-30.8515
 21
1.80965
  0
LINE
  8
0
 10
-30.8515
 20
1.80965
 11
-30.618
 21
1.9021
  0
LINE
  8
0
 10
-30.618
 20
1.9021
 11
-30.3748
 21
1.96457
  0
LINE
  8
0
 10
-30.3748
 20
1.96457
 11
-30.1256
 21
1.99605
  0
LINE
  8
0
 10
-30.1256
 20
1.99605
 11
-29.8744
 21
1.99605
  0
LINE
  8
0
 10
-29.8744
 20
1.99605
 11
-29.6252
 21
1.96457
  0
LINE
  8
0
 10
-29.6252
 20
1.96457
 11
-29.382
 21
1.9021
  0
LINE
  8
0
 10
-29.382
 20
1.9021
 11
-29.1484
 21
1.80965
  0
LINE
  8
0
 10
-29.1484
 20
1.80965
 11
-28.9283
 21
1.68864
  0
LINE
  8
0
 10
-28.9283
 20
1.68864
 11
-28.7251
 21
1.54102
  0
LINE
  8
0
 10
-28.7251
 20
1.54102
 11
-28.5421
 21
1.36908
  0
LINE
  8
0
 10
-28.5421
 20
1.36908
 11
-28.382
 21
1.17557
  0
LINE
  8
0
 10
-28.382
 20
1.17557
 11
-28.2474
 21
0.963501
  0
LINE
  8
0
 10
-28.2474
 20
0.963501
 11
-28.1404
 21
0.736237
  0
LINE
  8
0
 10
-28.1404
 20
0.736237
 11
-28.0628
 21
0.497375
  0
LINE
  8
0
 10
-28.0628
 20
0.497375
 11
-28.0158
 21
0.250656
  0
LINE
  8
0
 10
-28.0158
 20
0.250656
 11
-28
 21
0
  0
LINE
  8
0
 10
-28
 20
0
 11
-28.0158
 21
-0.250656
  0
LINE
  8
0
 10
-28.0158
 20
-0.250656
 11
-28.0628
 21
-0.497375
  0
LINE
  8
0
 10
-28.0628
 20
-0.497375
 11
-28.1404
 21
-0.736237
  0
LINE
  8
0
 10
-28.1404
 20
-0.736237
 11
-28.2474
 21
-0.963501
  0
LINE
  8
0
 10
-28.2474
 20
-0.963501
 11
-28.382
 21
-1.17557
  0
LINE
  8
0
 10
-28.382
 20
-1.17557
 11
-28.5421
 21
-1.36908
  0
LINE
  8
0
 10
-28.5421
 20
-1.36908
 11
-28.7251
 21
-1.54102
  0
LINE
  8
0
 10
-28.7251
 20
-1.54102
 11
-28.9283
 21
-1.68864
  0
LINE
  8
0
 10
-28.9283
 20
-1.68864
 11
-29.1484
 21
-1.80965
  0
LINE
  8
0
 10
-29.1484
 20
-1.80965
 11
-29.382
 21
-1.9021
  0
LINE
  8
0
 10
-29.382
 20
-1.9021
 11
-29.6252
 21
-1.96457
  0
LINE
  8
0
 10
-29.6252
 20
-1.96457
 11
-29.8744
 21
-1.99605
  0
LINE
  8
0
 10
-29.8744
 20
-1.99605
 11
-30.1256
 21
-1.99605
  0
LINE
  8
0
 10
34.3744
 20
-9.49605
 11
34.1252
 21
-9.46457
  0
LINE
  8
0
 10
34.1252
 20
-9.46457
 11
33.882
 21
-9.4021
  0
LINE
  8
0
 10
33.882
 20
-9.4021
 11
33.6484
 21
-9.30965
  0
LINE
  8
0
 10
33.6484
 20
-9.30965
 11
33.4283
 21
-9.18864
  0
LINE
  8
0
 10
33.4283
 20
-9.18864
 11
33.2251
 21
-9.04102
  0
LINE
  8
0
 10
33.2251
 20
-9.04102
 11
33.0421
 21
-8.86908
  0
LINE
  8
0
 10
33.0421
 20
-8.86908
 11
32.882
 21
-8.67557
  0
LINE
  8
0
 10
32.882
 20
-8.67557
 11
32.7474
 21
-8.4635
  0
LINE
  8
0
 10
32.7474
 20
-8.4635
 11
32.6404
 21
-8.23624
  0
LINE
  8
0
 10
32.6404
 20
-8.23624
 11
32.5628
 21
-7.99738
  0
LINE
  8
0
 10
32.5628
 20
-7.99738
 11
32.5158
 21
-7.75066
  0
LINE
  8
0
 10
32.5158
 20
-7.75066
 11
32.5
 21
-7.5
  0
LINE
  8
0
 10
32.5
 20
-7.5
 11
32.5158
 21
-7.24933
  0
LINE
  8
0
 10
32.5158
 20
-7.24933
 11
32.5628
 21
-7.00261
  0
LINE
  8
0
 10
32.5628
 20
-7.00261
 11
32.6404
 21
-6.76375
  0
LINE
  8
0
 10
32.6404
 20
-6.76375
 11
32.7474
 21
-6.53648
  0
LINE
  8
0
 10
32.7474
 20
-6.53648
 11
32.882
 21
-6.32442
  0
LINE
  8
0
 10
32.882
 20
-6.32442
 11
33.0421
 21
-6.13091
  0
LINE
  8
0
 10
33.0421
 20
-6.13091
 11
33.2251
 21
-5.95897
  0
LINE
  8
0
 10
33.2251
 20
-5.95897
 11
33.4283
 21
-5.81134
  0
LINE
  8
0
 10
33.4283
 20
-5.81134
 11
33.6484
 21
-5.69034
  0
LINE
  8
0
 10
33.6484
 20
-5.69034
 11
33.882
 21
-5.59789
  0
LINE
  8
0
 10
33.882
 20
-5.59789
 11
34.1252
 21
-5.53542
  0
LINE
  8
0
 10
34.1252
 20
-5.53542
 11
34.3744
 21
-5.50394
  0
LINE
  8
0
 10
34.3744
 20
-5.50394
 11
34.6256
 21
-5.50394
  0
LINE
  8
0
 10
34.6256
 20
-5.50394
 11
34.8748
 21
-5.53542
  0
LINE
  8
0
 10
34.8748
 20
-5.53542
 11
35.118
 21
-5.59789
  0
LINE
  8
0
 10
35.118
 20
-5.59789
 11
35.3515
 21
-5.69034
  0
LINE
  8
0
 10
35.3515
 20
-5.69034
 11
35.5717
 21
-5.81134
  0
LINE
  8
0
 10
35.5717
 20
-5.81134
 11
35.7748
 21
-5.95897
  0
LINE
  8
0
 10
35.7748
 20
-5.95897
 11
35.9579
 21
-6.13091
  0
LINE
  8
0
 10
35.9579
 20
-6.13091
 11
36.118
 21
-6.32442
  0
LINE
  8
0
 10
36.118
 20
-6.32442
 11
36.2526
 21
-6.53648
  0
LINE
  8
0
 10
36.2526
 20
-6.53648
 11
36.3595
 21
-6.76375
  0
LINE
  8
0
 10
36.3595
 20
-6.76375
 11
36.4372
 21
-7.00261
  0
LINE
  8
0
 10
36.4372
 20
-7.00261
 11
36.4842
 21
-7.24933
  0
LINE
  8
0
 10
36.4842
 20
-7.24933
 11
36.5
 21
-7.5
  0
LINE
  8
0
 10
36.5
 20
-7.5
 11
36.4842
 21
-7.75066
  0
LINE
  8
0
 10
36.4842
 20
-7.75066
 11
36.4372
 21
-7.99738
  0
LINE
  8
0
 10
36.4372
 20
-7.99738
 11
36.3595
 21
-8.23624
  0
LINE
  8
0
 10
36.3595
 20
-8.23624
 11
36.2526
 21
-8.4635
  0
LINE
  8
0
 10
36.2526
 20
-8.4635
 11
36.118
 21
-8.67557
  0
LINE
  8
0
 10
36.118
 20
-8.67557
 11
35.9579
 21
-8.86908
  0
LINE
  8
0
 10
35.9579
 20
-8.86908
 11
35.7748
 21
-9.04102
  0
LINE
  8
0
 10
35.7748
 20
-9.04102
 11
35.5717
 21
-9.18864
  0
LINE
  8
0
 10
35.5717
 20
-9.18864
 11
35.3515
 21
-9.30965
  0
LINE
  8
0
 10
35.3515
 20
-9.30965
 11
35.118
 21
-9.4021
  0
LINE
  8
0
 10
35.118
 20
-9.4021
 11
34.8748
 21
-9.46457
  0
LINE
  8
0
 10
34.8748
 20
-9.46457
 11
34.6256
 21
-9.49605
  0
LINE
  8
0
 10
34.6256
 20
-9.49605
 11
34.3744
 21
-9.49605
  0
LINE
  8
0
 10
-19.6256
 20
-9.49605
 11
-19.8748
 21
-9.46457
  0
LINE
  8
0
 10
-19.8748
 20
-9.46457
 11
-20.118
 21
-9.4021
  0
LINE
  8
0
 10
-20.118
 20
-9.4021
 11
-20.3515
 21
-9.30965
  0
LINE
  8
0
 10
-20.3515
 20
-9.30965
 11
-20.5716
 21
-9.18864
  0
LINE
  8
0
 10
-20.5716
 20
-9.18864
 11
-20.7748
 21
-9.04102
  0
LINE
  8
0
 10
-20.7748
 20
-9.04102
 11
-20.9579
 21
-8.86908
  0
LINE
  8
0
 10
-20.9579
 20
-8.86908
 11
-21.118
 21
-8.67557
  0
LINE
  8
0
 10
-21.118
 20
-8.67557
 11
-21.2526
 21
-8.4635
  0
LINE
  8
0
 10
-21.2526
 20
-8.4635
 11
-21.3595
 21
-8.23624
  0
LINE
  8
0
 10
-21.3595
 20
-8.23624
 11
-21.4372
 21
-7.99738
  0
LINE
  8
0
 10
-21.4372
 20
-7.99738
 11
-21.4842
 21
-7.75066
  0
LINE
  8
0
 10
-21.4842
 20
-7.75066
 11
-21.5
 21
-7.5
  0
LINE
  8
0
 10
-21.5
 20
-7.5
 11
-21.4842
 21
-7.24933
  0
LINE
  8
0
 10
-21.4842
 20
-7.24933
 11
-21.4372
 21
-7.00261
  0
LINE
  8
0
 10
-21.4372
 20
-7.00261
 11
-21.3595
 21
-6.76375
  0
LINE
  8
0
 10
-21.3595
 20
-6.76375
 11
-21.2526
 21
-6.53648
  0
LINE
  8
0
 10
-21.2526
 20
-6.53648
 11
-21.118
 21
-6.32442
  0
LINE
  8
0
 10
-21.118
 20
-6.32442
 11
-20.9579
 21
-6.13091
  0
LINE
  8
0
 10
-20.9579
 20
-6.13091
 11
-20.7748
 21
-5.95897
  0
LINE
  8
0
 10
-20.7748
 20
-5.95897
 11
-20.5716
 21
-5.81134
  0
LINE
  8
0
 10
-20.5716
 20
-5.81134
 11
-20.3515
 21
-5.69034
  0
LINE
  8
0
 10
-20.3515
 20
-5.69034
 11
-20.118
 21
-5.59789
  0
LINE
  8
0
 10
-20.118
 20
-5.59789
 11
-19.8748
 21
-5.53542
  0
LINE
  8
0
 10
-19.8748
 20
-5.53542
 11
-19.6256
 21
-5.50394
  0
LINE
  8
0
 10
-19.6256
 20
-5.50394
 11
-19.3744
 21
-5.50394
  0
LINE
  8
0
 10
-19.3744
 20
-5.50394
 11
-19.1252
 21
-5.53542
  0
LINE
  8
0
 10
-19.1252
 20
-5.53542
 11
-18.882
 21
-5.59789
  0
LINE
  8
0
 10
-18.882
 20
-5.59789
 11
-18.6484
 21
-5.69034
  0
LINE
  8
0
 10
-18.6484
 20
-5.69034
 11
-18.4283
 21
-5.81134
  0
LINE
  8
0
 10
-18.4283
 20
-5.81134
 11
-18.2251
 21
-5.95897
  0
LINE
  8
0
 10
-18.2251
 20
-5.95897
 11
-18.0421
 21
-6.13091
  0
LINE
  8
0
 10
-18.0421
 20
-6.13091
 11
-17.882
 21
-6.32442
  0
LINE
  8
0
 10
-17.882
 20
-6.32442
 11
-17.7474
 21
-6.53648
  0
LINE
  8
0
 10
-17.7474
 20
-6.53648
 11
-17.6404
 21
-6.76375
  0
LINE
  8
0
 10
-17.6404
 20
-6.76375
 11
-17.5628
 21
-7.00261
  0
LINE
  8
0
 10
-17.5628
 20
-7.00261
 11
-17.5158
 21
-7.24933
  0
LINE
  8
0
 10
-17.5158
 20
-7.24933
 11
-17.5
 21
-7.5
  0
LINE
  8
0
 10
-17.5
 20
-7.5
 11
-17.5158
 21
-7.75066
  0
LINE
  8
0
 10
-17.5158
 20
-7.75066
 11
-17.5628
 21
-7.99738
  0
LINE
  8
0
 10
-17.5628
 20
-7.99738
 11
-17.6404
 21
-8.23624
  0
LINE
  8
0
 10
-17.6404
 20
-8.23624
 11
-17.7474
 21
-8.4635
  0
LINE
  8
0
 10
-17.7474
 20
-8.4635
 11
-17.882
 21
-8.67557
  0
LINE
  8
0
 10
-17.882
 20
-8.67557
 11
-18.0421
 21
-8.86908
  0
LINE
  8
0
 10
-18.0421
 20
-8.86908
 11
-18.2251
 21
-9.04102
  0
LINE
  8
0
 10
-18.2251
 20
-9.04102
 11
-18.4283
 21
-9.18864
  0
LINE
  8
0
 10
-18.4283
 20
-9.18864
 11
-18.6484
 21
-9.30965
  0
LINE
  8
0
 10
-18.6484
 20
-9.30965
 11
-18.882
 21
-9.4021
  0
LINE
  8
0
 10
-18.882
 20
-9.4021
 11
-19.1252
 21
-9.46457
  0
LINE
  8
0
 10
-19.1252
 20
-9.46457
 11
-19.3744
 21
-9.49605
  0
LINE
  8
0
 10
-19.3744
 20
-9.49605
 11
-19.6256
 21
-9.49605
  0
LINE
  8
0
 10
-30.1256
 20
-16.996
 11
-30.3748
 21
-16.9646
  0
LINE
  8
0
 10
-30.3748
 20
-16.9646
 11
-30.618
 21
-16.9021
  0
LINE
  8
0
 10
-30.618
 20
-16.9021
 11
-30.8515
 21
-16.8096
  0
LINE
  8
0
 10
-30.8515
 20
-16.8096
 11
-31.0716
 21
-16.6886
  0
LINE
  8
0
 10
-31.0716
 20
-16.6886
 11
-31.2748
 21
-16.541
  0
LINE
  8
0
 10
-31.2748
 20
-16.541
 11
-31.4579
 21
-16.3691
  0
LINE
  8
0
 10
-31.4579
 20
-16.3691
 11
-31.618
 21
-16.1756
  0
LINE
  8
0
 10
-31.618
 20
-16.1756
 11
-31.7526
 21
-15.9635
  0
LINE
  8
0
 10
-31.7526
 20
-15.9635
 11
-31.8595
 21
-15.7362
  0
LINE
  8
0
 10
-31.8595
 20
-15.7362
 11
-31.9372
 21
-15.4974
  0
LINE
  8
0
 10
-31.9372
 20
-15.4974
 11
-31.9842
 21
-15.2507
  0
LINE
  8
0
 10
-31.9842
 20
-15.2507
 11
-32
 21
-15
  0
LINE
  8
0
 10
-32
 20
-15
 11
-31.9842
 21
-14.7493
  0
LINE
  8
0
 10
-31.9842
 20
-14.7493
 11
-31.9372
 21
-14.5026
  0
LINE
  8
0
 10
-31.9372
 20
-14.5026
 11
-31.8595
 21
-14.2637
  0
LINE
  8
0
 10
-31.8595
 20
-14.2637
 11
-31.7526
 21
-14.0365
  0
LINE
  8
0
 10
-31.7526
 20
-14.0365
 11
-31.618
 21
-13.8244
  0
LINE
  8
0
 10
-31.618
 20
-13.8244
 11
-31.4579
 21
-13.6309
  0
LINE
  8
0
 10
-31.4579
 20
-13.6309
 11
-31.2748
 21
-13.459
  0
LINE
  8
0
 10
-31.2748
 20
-13.459
 11
-31.0716
 21
-13.3113
  0
LINE
  8
0
 10
-31.0716
 20
-13.3113
 11
-30.8515
 21
-13.1903
  0
LINE
  8
0
 10
-30.8515
 20
-13.1903
 11
-30.618
 21
-13.0979
  0
LINE
  8
0
 10
-30.618
 20
-13.0979
 11
-30.3748
 21
-13.0354
  0
LINE
  8
0
 10
-30.3748
 20
-13.0354
 11
-30.1256
 21
-13.0039
  0
LINE
  8
0
 10
-30.1256
 20
-13.0039
 11
-29.8744
 21
-13.0039
  0
LINE
  8
0
 10
-29.8744
 20
-13.0039
 11
-29.6252
 21
-13.0354
  0
LINE
  8
0
 10
-29.6252
 20
-13.0354
 11
-29.382
 21
-13.0979
  0
LINE
  8
0
 10
-29.382
 20
-13.0979
 11
-29.1484
 21
-13.1903
  0
LINE
  8
0
 10
-29.1484
 20
-13.1903
 11
-28.9283
 21
-13.3113
  0
LINE
  8
0
 10
-28.9283
 20
-13.3113
 11
-28.7251
 21
-13.459
  0
LINE
  8
0
 10
-28.7251
 20
-13.459
 11
-28.5421
 21
-13.6309
  0
LINE
  8
0
 10
-28.5421
 20
-13.6309
 11
-28.382
 21
-13.8244
  0
LINE
  8
0
 10
-28.382
 20
-13.8244
 11
-28.2474
 21
-14.0365
  0
LINE
  8
0
 10
-28.2474
 20
-14.0365
 11
-28.1404
 21
-14.2637
  0
LINE
  8
0
 10
-28.1404
 20
-14.2637
 11
-28.0628
 21
-14.5026
  0
LINE
  8
0
 10
-28.0628
 20
-14.5026
 11
-28.0158
 21
-14.7493
  0
LINE
  8
0
 10
-28.0158
 20
-14.7493
 11
-28
 21
-15
  0
LINE
  8
0
 10
-28
 20
-15
 11
-28.0158
 21
-15.2507
  0
LINE
  8
0
 10
-28.0158
 20
-15.2507
 11
-28.0628
 21
-15.4974
  0
LINE
  8
0
 10
-28.0628
 20
-15.4974
 11
-28.1404
 21
-15.7362
  0
LINE
  8
0
 10
-28.1404
 20
-15.7362
 11
-28.2474
 21
-15.9635
  0
LINE
  8
0
 10
-28.2474
 20
-15.9635
 11
-28.382
 21
-16.1756
  0
LINE
  8
0
 10
-28.382
 20
-16.1756
 11
-28.5421
 21
-16.3691
  0
LINE
  8
0
 10
-28.5421
 20
-16.3691
 11
-28.7251
 21
-16.541
  0
LINE
  8
0
 10
-28.7251
 20
-16.541
 11
-28.9283
 21
-16.6886
  0
LINE
  8
0
 10
-28.9283
 20
-16.6886
 11
-29.1484
 21
-16.8096
  0
LINE
  8
0
 10
-29.1484
 20
-16.8096
 11
-29.382
 21
-16.9021
  0
LINE
  8
0
 10
-29.382
 20
-16.9021
 11
-29.6252
 21
-16.9646
  0
LINE
  8
0
 10
-29.6252
 20
-16.9646
 11
-29.8744
 21
-16.996
  0
LINE
  8
0
 10
-29.8744
 20
-16.996
 11
-30.1256
 21
-16.996
  0
ENDSEC
  0
SECTION
  2
OBJECTS
  0
DICTIONARY
  0
ENDSEC
  0
EOF
