<?xml version="1.0" standalone="no"?>
<!DOCTYPE svg PUBLIC "-//W3C//DTD SVG 1.1//EN" "http://www.w3.org/Graphics/SVG/1.1/DTD/svg11.dtd">
<svg width="74mm" height="326mm" viewBox="-37 -289 74 326" xmlns="http://www.w3.org/2000/svg" version="1.1">
<title>OpenSCAD Model</title>
<path d="
M 32.9369,-215.089 L 33.5451,-215.245 L 34.1289,-215.476 L 34.6791,-215.778 L 35.1871,-216.147 L 35.6448,-216.577
 L 36.0451,-217.061 L 36.3815,-217.591 L 36.6489,-218.159 L 36.8429,-218.757 L 36.9606,-219.373 L 37,-220
 L 37,-284 L 36.9606,-284.627 L 36.8429,-285.243 L 36.6489,-285.841 L 36.3815,-286.409 L 36.0451,-286.939
 L 35.6448,-287.423 L 35.1871,-287.853 L 34.6791,-288.222 L 34.1289,-288.524 L 33.5451,-288.755 L 32.9369,-288.911
 L 32.3139,-288.99 L -32.3139,-288.99 L -32.9369,-288.911 L -33.5451,-288.755 L -34.1289,-288.524 L -34.6791,-288.222
 L -35.1871,-287.853 L -35.6448,-287.423 L -36.0451,-286.939 L -36.3815,-286.409 L -36.6489,-285.841 L -36.8429,-285.243
 L -36.9606,-284.627 L -37,-284 L -37,-220 L -36.9606,-219.373 L -36.8429,-218.757 L -36.6489,-218.159
 L -36.3815,-217.591 L -36.0451,-217.061 L -35.6448,-216.577 L -35.1871,-216.147 L -34.6791,-215.778 L -34.1289,-215.476
 L -33.5451,-215.245 L -32.9369,-215.089 L -32.3139,-215.01 L 32.3139,-215.01 z
M 14.8116,-279.006 L 14.4379,-279.053 L 14.0729,-279.147 L 13.7227,-279.286 L 13.3925,-279.467 L 13.0877,-279.688
 L 12.8131,-279.946 L 12.5729,-280.237 L 12.3711,-280.555 L 12.2107,-280.896 L 12.0942,-281.254 L 12.0237,-281.624
 L 12,-282 L 12.0237,-282.376 L 12.0942,-282.746 L 12.2107,-283.104 L 12.3711,-283.445 L 12.5729,-283.763
 L 12.8131,-284.054 L 13.0877,-284.312 L 13.3925,-284.533 L 13.7227,-284.714 L 14.0729,-284.853 L 14.4379,-284.947
 L 14.8116,-284.994 L 15.1884,-284.994 L 15.5621,-284.947 L 15.927,-284.853 L 16.2773,-284.714 L 16.6075,-284.533
 L 16.9123,-284.312 L 17.1869,-284.054 L 17.427,-283.763 L 17.6289,-283.445 L 17.7893,-283.104 L 17.9057,-282.746
 L 17.9763,-282.376 L 18,-282 L 17.9763,-281.624 L 17.9057,-281.254 L 17.7893,-280.896 L 17.6289,-280.555
 L 17.427,-280.237 L 17.1869,-279.946 L 16.9123,-279.688 L 16.6075,-279.467 L 16.2773,-279.286 L 15.927,-279.147
 L 15.5621,-279.053 L 15.1884,-279.006 z
M -15.1884,-279.006 L -15.5621,-279.053 L -15.927,-279.147 L -16.2773,-279.286 L -16.6075,-279.467 L -16.9123,-279.688
 L -17.1869,-279.946 L -17.427,-280.237 L -17.6289,-280.555 L -17.7893,-280.896 L -17.9057,-281.254 L -17.9763,-281.624
 L -18,-282 L -17.9763,-282.376 L -17.9057,-282.746 L -17.7893,-283.104 L -17.6289,-283.445 L -17.427,-283.763
 L -17.1869,-284.054 L -16.9123,-284.312 L -16.6075,-284.533 L -16.2773,-284.714 L -15.927,-284.853 L -15.5621,-284.947
 L -15.1884,-284.994 L -14.8116,-284.994 L -14.4379,-284.947 L -14.0729,-284.853 L -13.7227,-284.714 L -13.3925,-284.533
 L -13.0877,-284.312 L -12.8131,-284.054 L -12.5729,-283.763 L -12.3711,-283.445 L -12.2107,-283.104 L -12.0942,-282.746
 L -12.0237,-282.376 L -12,-282 L -12.0237,-281.624 L -12.0942,-281.254 L -12.2107,-280.896 L -12.3711,-280.555
 L -12.5729,-280.237 L -12.8131,-279.946 L -13.0877,-279.688 L -13.3925,-279.467 L -13.7227,-279.286 L -14.0729,-279.147
 L -14.4379,-279.053 L -14.8116,-279.006 z
M 29.8116,-279.006 L 29.4379,-279.053 L 29.0729,-279.147 L 28.7227,-279.286 L 28.3925,-279.467 L 28.0877,-279.688
 L 27.8131,-279.946 L 27.5729,-280.237 L 27.3711,-280.555 L 27.2107,-280.896 L 27.0942,-281.254 L 27.0237,-281.624
 L 27,-282 L 27.0237,-282.376 L 27.0942,-282.746 L 27.2107,-283.104 L 27.3711,-283.445 L 27.5729,-283.763
 L 27.8131,-284.054 L 28.0877,-284.312 L 28.3925,-284.533 L 28.7227,-284.714 L 29.0729,-284.853 L 29.4379,-284.947
 L 29.8116,-284.994 L 30.1884,-284.994 L 30.5621,-284.947 L 30.927,-284.853 L 31.2773,-284.714 L 31.6075,-284.533
 L 31.9123,-284.312 L 32.1869,-284.054 L 32.427,-283.763 L 32.6289,-283.445 L 32.7893,-283.104 L 32.9057,-282.746
 L 32.9763,-282.376 L 33,-282 L 32.9763,-281.624 L 32.9057,-281.254 L 32.7893,-280.896 L 32.6289,-280.555
 L 32.427,-280.237 L 32.1869,-279.946 L 31.9123,-279.688 L 31.6075,-279.467 L 31.2773,-279.286 L 30.927,-279.147
 L 30.5621,-279.053 L 30.1884,-279.006 z
M -30.1884,-279.006 L -30.5621,-279.053 L -30.927,-279.147 L -31.2773,-279.286 L -31.6075,-279.467 L -31.9123,-279.688
 L -32.1869,-279.946 L -32.427,-280.237 L -32.6289,-280.555 L -32.7893,-280.896 L -32.9057,-281.254 L -32.9763,-281.624
 L -33,-282 L -32.9763,-282.376 L -32.9057,-282.746 L -32.7893,-283.104 L -32.6289,-283.445 L -32.427,-283.763
 L -32.1869,-284.054 L -31.9123,-284.312 L -31.6075,-284.533 L -31.2773,-284.714 L -30.927,-284.853 L -30.5621,-284.947
 L -30.1884,-284.994 L -29.8116,-284.994 L -29.4379,-284.947 L -29.0729,-284.853 L -28.7227,-284.714 L -28.3925,-284.533
 L -28.0877,-284.312 L -27.8131,-284.054 L -27.5729,-283.763 L -27.3711,-283.445 L -27.2107,-283.104 L -27.0942,-282.746
 L -27.0237,-282.376 L -27,-282 L -27.0237,-281.624 L -27.0942,-281.254 L -27.2107,-280.896 L -27.3711,-280.555
 L -27.5729,-280.237 L -27.8131,-279.946 L -28.0877,-279.688 L -28.3925,-279.467 L -28.7227,-279.286 L -29.0729,-279.147
 L -29.4379,-279.053 L -29.8116,-279.006 z
M -1.58675,-279.252 L -3.17349,-282 L -1.58675,-284.748 L 1.58675,-284.748 L 3.17349,-282 L 1.58675,-279.252
 z
M -1.47557,-228.546 L -4.40346,-228.916 L -7.26189,-229.65 L -10.0058,-230.737 L -12.5919,-232.158 L -14.9795,-233.893
 L -17.1308,-235.913 L -19.0119,-238.187 L -20.5932,-240.679 L -21.8497,-243.349 L -22.7617,-246.156 L -23.3147,-249.055
 L -23.5,-252 L -23.3147,-254.945 L -22.7617,-257.844 L -21.8497,-260.651 L -20.5932,-263.321 L -19.0119,-265.813
 L -17.1308,-268.087 L -14.9795,-270.107 L -12.5919,-271.842 L -10.0058,-273.263 L -7.26189,-274.35 L -4.40346,-275.084
 L -1.47557,-275.454 L 1.47557,-275.454 L 4.40346,-275.084 L 7.26189,-274.35 L 10.0058,-273.263 L 12.5919,-271.842
 L 14.9795,-270.107 L 17.1308,-268.087 L 19.0119,-265.813 L 20.5932,-263.321 L 21.8497,-260.651 L 22.7617,-257.844
 L 23.3147,-254.945 L 23.5,-252 L 23.3147,-249.055 L 22.7617,-246.156 L 21.8497,-243.349 L 20.5932,-240.679
 L 19.0119,-238.187 L 17.1308,-235.913 L 14.9795,-233.893 L 12.5919,-232.158 L 10.0058,-230.737 L 7.26189,-229.65
 L 4.40346,-228.916 L 1.47557,-228.546 z
M 4.21606,-229.899 L 6.95288,-230.601 L 9.58003,-231.641 L 12.0561,-233.003 L 14.342,-234.663 L 16.4018,-236.598
 L 18.2029,-238.775 L 19.7169,-241.161 L 20.92,-243.717 L 21.7931,-246.404 L 22.3226,-249.18 L 22.5,-252
 L 22.3226,-254.82 L 21.7931,-257.596 L 20.92,-260.283 L 19.7169,-262.839 L 18.2029,-265.225 L 16.4018,-267.402
 L 14.342,-269.337 L 12.0561,-270.997 L 9.58003,-272.359 L 6.95288,-273.399 L 4.21606,-274.101 L 1.41278,-274.456
 L -1.41278,-274.456 L -4.21606,-274.101 L -6.95288,-273.399 L -9.58003,-272.359 L -12.0561,-270.997 L -14.342,-269.337
 L -16.4018,-267.402 L -18.2029,-265.225 L -19.7169,-262.839 L -20.92,-260.283 L -21.7931,-257.596 L -22.3226,-254.82
 L -22.5,-252 L -22.3226,-249.18 L -21.7931,-246.404 L -20.92,-243.717 L -19.7169,-241.161 L -18.2029,-238.775
 L -16.4018,-236.598 L -14.342,-234.663 L -12.0561,-233.003 L -9.58003,-231.641 L -6.95288,-230.601 L -4.21606,-229.899
 L -1.41278,-229.544 L 1.41278,-229.544 z
M -0.18837,-264.006 L -0.562134,-264.053 L -0.927048,-264.147 L -1.27733,-264.286 L -1.60747,-264.467 L -1.91226,-264.688
 L -2.1869,-264.946 L -2.42705,-265.237 L -2.62891,-265.555 L -2.78932,-265.896 L -2.90575,-266.254 L -2.97633,-266.624
 L -3,-267 L -2.97633,-267.376 L -2.90575,-267.746 L -2.78932,-268.104 L -2.62891,-268.445 L -2.42705,-268.763
 L -2.1869,-269.054 L -1.91226,-269.312 L -1.60747,-269.533 L -1.27733,-269.714 L -0.927048,-269.853 L -0.562134,-269.947
 L -0.18837,-269.994 L 0.18837,-269.994 L 0.562134,-269.947 L 0.927048,-269.853 L 1.27733,-269.714 L 1.60747,-269.533
 L 1.91226,-269.312 L 2.1869,-269.054 L 2.42705,-268.763 L 2.62891,-268.445 L 2.78932,-268.104 L 2.90575,-267.746
 L 2.97633,-267.376 L 3,-267 L 2.97633,-266.624 L 2.90575,-266.254 L 2.78932,-265.896 L 2.62891,-265.555
 L 2.42705,-265.237 L 2.1869,-264.946 L 1.91226,-264.688 L 1.60747,-264.467 L 1.27733,-264.286 L 0.927048,-264.147
 L 0.562134,-264.053 L 0.18837,-264.006 z
M -0.144409,-257.205 L -0.430969,-257.241 L -0.710724,-257.313 L -0.979279,-257.419 L -1.23239,-257.558 L -1.46606,-257.728
 L -1.67662,-257.926 L -1.86073,-258.148 L -2.0155,-258.392 L -2.13847,-258.653 L -2.22774,-258.928 L -2.28186,-259.212
 L -2.29999,-259.5 L -2.28186,-259.788 L -2.22774,-260.072 L -2.13847,-260.347 L -2.0155,-260.608 L -1.86073,-260.852
 L -1.67662,-261.074 L -1.46606,-261.272 L -1.23239,-261.442 L -0.979279,-261.581 L -0.710724,-261.687 L -0.430969,-261.759
 L -0.144409,-261.795 L 0.144409,-261.795 L 0.430969,-261.759 L 0.710724,-261.687 L 0.979279,-261.581 L 1.23239,-261.442
 L 1.46606,-261.272 L 1.67662,-261.074 L 1.86073,-260.852 L 2.0155,-260.608 L 2.13847,-260.347 L 2.22774,-260.072
 L 2.28186,-259.788 L 2.29999,-259.5 L 2.28186,-259.212 L 2.22774,-258.928 L 2.13847,-258.653 L 2.0155,-258.392
 L 1.86073,-258.148 L 1.67662,-257.926 L 1.46606,-257.728 L 1.23239,-257.558 L 0.979279,-257.419 L 0.710724,-257.313
 L 0.430969,-257.241 L 0.144409,-257.205 z
M -15.1884,-249.006 L -15.5621,-249.053 L -15.927,-249.147 L -16.2773,-249.286 L -16.6075,-249.467 L -16.9123,-249.688
 L -17.1869,-249.946 L -17.427,-250.237 L -17.6289,-250.555 L -17.7893,-250.896 L -17.9057,-251.254 L -17.9763,-251.624
 L -18,-252 L -17.9763,-252.376 L -17.9057,-252.746 L -17.7893,-253.104 L -17.6289,-253.445 L -17.427,-253.763
 L -17.1869,-254.054 L -16.9123,-254.312 L -16.6075,-254.533 L -16.2773,-254.714 L -15.927,-254.853 L -15.5621,-254.947
 L -15.1884,-254.994 L -14.8116,-254.994 L -14.4379,-254.947 L -14.0729,-254.853 L -13.7227,-254.714 L -13.3925,-254.533
 L -13.0877,-254.312 L -12.8131,-254.054 L -12.5729,-253.763 L -12.3711,-253.445 L -12.2107,-253.104 L -12.0942,-252.746
 L -12.0237,-252.376 L -12,-252 L -12.0237,-251.624 L -12.0942,-251.254 L -12.2107,-250.896 L -12.3711,-250.555
 L -12.5729,-250.237 L -12.8131,-249.946 L -13.0877,-249.688 L -13.3925,-249.467 L -13.7227,-249.286 L -14.0729,-249.147
 L -14.4379,-249.053 L -14.8116,-249.006 z
M -0.18837,-249.006 L -0.562134,-249.053 L -0.927048,-249.147 L -1.27733,-249.286 L -1.60747,-249.467 L -1.91226,-249.688
 L -2.1869,-249.946 L -2.42705,-250.237 L -2.62891,-250.555 L -2.78932,-250.896 L -2.90575,-251.254 L -2.97633,-251.624
 L -3,-252 L -2.97633,-252.376 L -2.90575,-252.746 L -2.78932,-253.104 L -2.62891,-253.445 L -2.42705,-253.763
 L -2.1869,-254.054 L -1.91226,-254.312 L -1.60747,-254.533 L -1.27733,-254.714 L -0.927048,-254.853 L -0.562134,-254.947
 L -0.18837,-254.994 L 0.18837,-254.994 L 0.562134,-254.947 L 0.927048,-254.853 L 1.27733,-254.714 L 1.60747,-254.533
 L 1.91226,-254.312 L 2.1869,-254.054 L 2.42705,-253.763 L 2.62891,-253.445 L 2.78932,-253.104 L 2.90575,-252.746
 L 2.97633,-252.376 L 3,-252 L 2.97633,-251.624 L 2.90575,-251.254 L 2.78932,-250.896 L 2.62891,-250.555
 L 2.42705,-250.237 L 2.1869,-249.946 L 1.91226,-249.688 L 1.60747,-249.467 L 1.27733,-249.286 L 0.927048,-249.147
 L 0.562134,-249.053 L 0.18837,-249.006 z
M 14.8116,-249.006 L 14.4379,-249.053 L 14.0729,-249.147 L 13.7227,-249.286 L 13.3925,-249.467 L 13.0877,-249.688
 L 12.8131,-249.946 L 12.5729,-250.237 L 12.3711,-250.555 L 12.2107,-250.896 L 12.0942,-251.254 L 12.0237,-251.624
 L 12,-252 L 12.0237,-252.376 L 12.0942,-252.746 L 12.2107,-253.104 L 12.3711,-253.445 L 12.5729,-253.763
 L 12.8131,-254.054 L 13.0877,-254.312 L 13.3925,-254.533 L 13.7227,-254.714 L 14.0729,-254.853 L 14.4379,-254.947
 L 14.8116,-254.994 L 15.1884,-254.994 L 15.5621,-254.947 L 15.927,-254.853 L 16.2773,-254.714 L 16.6075,-254.533
 L 16.9123,-254.312 L 17.1869,-254.054 L 17.427,-253.763 L 17.6289,-253.445 L 17.7893,-253.104 L 17.9057,-252.746
 L 17.9763,-252.376 L 18,-252 L 17.9763,-251.624 L 17.9057,-251.254 L 17.7893,-250.896 L 17.6289,-250.555
 L 17.427,-250.237 L 17.1869,-249.946 L 16.9123,-249.688 L 16.6075,-249.467 L 16.2773,-249.286 L 15.927,-249.147
 L 15.5621,-249.053 L 15.1884,-249.006 z
M 7.40581,-250.503 L 7.21892,-250.527 L 7.03647,-250.573 L 6.86133,-250.643 L 6.69626,-250.734 L 6.54385,-250.844
 L 6.40654,-250.973 L 6.28647,-251.118 L 6.18553,-251.277 L 6.10533,-251.448 L 6.04712,-251.627 L 6.01183,-251.812
 L 6,-252 L 6.01183,-252.188 L 6.04712,-252.373 L 6.10533,-252.552 L 6.18553,-252.723 L 6.28647,-252.882
 L 6.40654,-253.027 L 6.54385,-253.156 L 6.69626,-253.266 L 6.86133,-253.357 L 7.03647,-253.427 L 7.21892,-253.473
 L 7.40581,-253.497 L 7.59418,-253.497 L 7.78107,-253.473 L 7.96352,-253.427 L 8.13866,-253.357 L 8.30373,-253.266
 L 8.45613,-253.156 L 8.59344,-253.027 L 8.71352,-252.882 L 8.81445,-252.723 L 8.89465,-252.552 L 8.95287,-252.373
 L 8.98816,-252.188 L 9,-252 L 8.98816,-251.812 L 8.95287,-251.627 L 8.89465,-251.448 L 8.81445,-251.277
 L 8.71352,-251.118 L 8.59344,-250.973 L 8.45613,-250.844 L 8.30373,-250.734 L 8.13866,-250.643 L 7.96352,-250.573
 L 7.78107,-250.527 L 7.59418,-250.503 z
M -7.59418,-250.503 L -7.78107,-250.527 L -7.96352,-250.573 L -8.13866,-250.643 L -8.30373,-250.734 L -8.45613,-250.844
 L -8.59344,-250.973 L -8.71352,-251.118 L -8.81445,-251.277 L -8.89465,-251.448 L -8.95287,-251.627 L -8.98816,-251.812
 L -9,-252 L -8.98816,-252.188 L -8.95287,-252.373 L -8.89465,-252.552 L -8.81445,-252.723 L -8.71352,-252.882
 L -8.59344,-253.027 L -8.45613,-253.156 L -8.30373,-253.266 L -8.13866,-253.357 L -7.96352,-253.427 L -7.78107,-253.473
 L -7.59418,-253.497 L -7.40581,-253.497 L -7.21892,-253.473 L -7.03647,-253.427 L -6.86133,-253.357 L -6.69626,-253.266
 L -6.54385,-253.156 L -6.40654,-253.027 L -6.28647,-252.882 L -6.18553,-252.723 L -6.10533,-252.552 L -6.04712,-252.373
 L -6.01183,-252.188 L -6,-252 L -6.01183,-251.812 L -6.04712,-251.627 L -6.10533,-251.448 L -6.18553,-251.277
 L -6.28647,-251.118 L -6.40654,-250.973 L -6.54385,-250.844 L -6.69626,-250.734 L -6.86133,-250.643 L -7.03647,-250.573
 L -7.21892,-250.527 L -7.40581,-250.503 z
M -1.58675,-241.752 L -3.17349,-244.5 L -1.58675,-247.248 L 1.58675,-247.248 L 3.17349,-244.5 L 1.58675,-241.752
 z
M -0.18837,-234.006 L -0.562134,-234.053 L -0.927048,-234.147 L -1.27733,-234.286 L -1.60747,-234.467 L -1.91226,-234.688
 L -2.1869,-234.946 L -2.42705,-235.237 L -2.62891,-235.555 L -2.78932,-235.896 L -2.90575,-236.254 L -2.97633,-236.624
 L -3,-237 L -2.97633,-237.376 L -2.90575,-237.746 L -2.78932,-238.104 L -2.62891,-238.445 L -2.42705,-238.763
 L -2.1869,-239.054 L -1.91226,-239.312 L -1.60747,-239.533 L -1.27733,-239.714 L -0.927048,-239.853 L -0.562134,-239.947
 L -0.18837,-239.994 L 0.18837,-239.994 L 0.562134,-239.947 L 0.927048,-239.853 L 1.27733,-239.714 L 1.60747,-239.533
 L 1.91226,-239.312 L 2.1869,-239.054 L 2.42705,-238.763 L 2.62891,-238.445 L 2.78932,-238.104 L 2.90575,-237.746
 L 2.97633,-237.376 L 3,-237 L 2.97633,-236.624 L 2.90575,-236.254 L 2.78932,-235.896 L 2.62891,-235.555
 L 2.42705,-235.237 L 2.1869,-234.946 L 1.91226,-234.688 L 1.60747,-234.467 L 1.27733,-234.286 L 0.927048,-234.147
 L 0.562134,-234.053 L 0.18837,-234.006 z
M -30.1884,-264.006 L -30.5621,-264.053 L -30.927,-264.147 L -31.2773,-264.286 L -31.6075,-264.467 L -31.9123,-264.688
 L -32.1869,-264.946 L -32.427,-265.237 L -32.6289,-265.555 L -32.7893,-265.896 L -32.9057,-266.254 L -32.9763,-266.624
 L -33,-267 L -32.9763,-267.376 L -32.9057,-267.746 L -32.7893,-268.104 L -32.6289,-268.445 L -32.427,-268.763
 L -32.1869,-269.054 L -31.9123,-269.312 L -31.6075,-269.533 L -31.2773,-269.714 L -30.927,-269.853 L -30.5621,-269.947
 L -30.1884,-269.994 L -29.8116,-269.994 L -29.4379,-269.947 L -29.0729,-269.853 L -28.7227,-269.714 L -28.3925,-269.533
 L -28.0877,-269.312 L -27.8131,-269.054 L -27.5729,-268.763 L -27.3711,-268.445 L -27.2107,-268.104 L -27.0942,-267.746
 L -27.0237,-267.376 L -27,-267 L -27.0237,-266.624 L -27.0942,-266.254 L -27.2107,-265.896 L -27.3711,-265.555
 L -27.5729,-265.237 L -27.8131,-264.946 L -28.0877,-264.688 L -28.3925,-264.467 L -28.7227,-264.286 L -29.0729,-264.147
 L -29.4379,-264.053 L -29.8116,-264.006 z
M 29.8116,-264.006 L 29.4379,-264.053 L 29.0729,-264.147 L 28.7227,-264.286 L 28.3925,-264.467 L 28.0877,-264.688
 L 27.8131,-264.946 L 27.5729,-265.237 L 27.3711,-265.555 L 27.2107,-265.896 L 27.0942,-266.254 L 27.0237,-266.624
 L 27,-267 L 27.0237,-267.376 L 27.0942,-267.746 L 27.2107,-268.104 L 27.3711,-268.445 L 27.5729,-268.763
 L 27.8131,-269.054 L 28.0877,-269.312 L 28.3925,-269.533 L 28.7227,-269.714 L 29.0729,-269.853 L 29.4379,-269.947
 L 29.8116,-269.994 L 30.1884,-269.994 L 30.5621,-269.947 L 30.927,-269.853 L 31.2773,-269.714 L 31.6075,-269.533
 L 31.9123,-269.312 L 32.1869,-269.054 L 32.427,-268.763 L 32.6289,-268.445 L 32.7893,-268.104 L 32.9057,-267.746
 L 32.9763,-267.376 L 33,-267 L 32.9763,-266.624 L 32.9057,-266.254 L 32.7893,-265.896 L 32.6289,-265.555
 L 32.427,-265.237 L 32.1869,-264.946 L 31.9123,-264.688 L 31.6075,-264.467 L 31.2773,-264.286 L 30.927,-264.147
 L 30.5621,-264.053 L 30.1884,-264.006 z
M 27.2517,-250.413 L 27.2517,-253.587 L 30,-255.173 L 32.7483,-253.587 L 32.7483,-250.413 L 30,-248.827
 z
M -30.3836,-249.732 L -30.6648,-249.798 L -30.9355,-249.899 L -31.1915,-250.033 L -31.4286,-250.198 L -31.6433,-250.391
 L -31.832,-250.609 L -31.9919,-250.85 L -32.1203,-251.109 L -32.2153,-251.381 L -32.2753,-251.664 L -32.2995,-251.952
 L -32.2874,-252.24 L -32.2392,-252.525 L -32.1557,-252.802 L -32.0383,-253.066 L -31.8886,-253.313 L -31.7092,-253.539
 L -31.5029,-253.741 L -31.2728,-253.916 L -31.0227,-254.06 L -30.7564,-254.172 L -30.4782,-254.25 L -30.1925,-254.292
 L -29.9037,-254.298 L -29.6164,-254.268 L -29.3352,-254.202 L -29.0645,-254.101 L -28.8085,-253.967 L -28.5714,-253.802
 L -28.3567,-253.609 L -28.168,-253.391 L -28.0081,-253.15 L -27.8797,-252.891 L -27.7847,-252.619 L -27.7247,-252.336
 L -27.7005,-252.048 L -27.7126,-251.76 L -27.7608,-251.475 L -27.8442,-251.198 L -27.9617,-250.934 L -28.1113,-250.687
 L -28.2908,-250.461 L -28.4971,-250.259 L -28.7272,-250.084 L -28.9773,-249.94 L -29.2436,-249.828 L -29.5218,-249.75
 L -29.8075,-249.708 L -30.0963,-249.702 z
M -30.1884,-234.006 L -30.5621,-234.053 L -30.927,-234.147 L -31.2773,-234.286 L -31.6075,-234.467 L -31.9123,-234.688
 L -32.1869,-234.946 L -32.427,-235.237 L -32.6289,-235.555 L -32.7893,-235.896 L -32.9057,-236.254 L -32.9763,-236.624
 L -33,-237 L -32.9763,-237.376 L -32.9057,-237.746 L -32.7893,-238.104 L -32.6289,-238.445 L -32.427,-238.763
 L -32.1869,-239.054 L -31.9123,-239.312 L -31.6075,-239.533 L -31.2773,-239.714 L -30.927,-239.853 L -30.5621,-239.947
 L -30.1884,-239.994 L -29.8116,-239.994 L -29.4379,-239.947 L -29.0729,-239.853 L -28.7227,-239.714 L -28.3925,-239.533
 L -28.0877,-239.312 L -27.8131,-239.054 L -27.5729,-238.763 L -27.3711,-238.445 L -27.2107,-238.104 L -27.0942,-237.746
 L -27.0237,-237.376 L -27,-237 L -27.0237,-236.624 L -27.0942,-236.254 L -27.2107,-235.896 L -27.3711,-235.555
 L -27.5729,-235.237 L -27.8131,-234.946 L -28.0877,-234.688 L -28.3925,-234.467 L -28.7227,-234.286 L -29.0729,-234.147
 L -29.4379,-234.053 L -29.8116,-234.006 z
M 29.8116,-234.006 L 29.4379,-234.053 L 29.0729,-234.147 L 28.7227,-234.286 L 28.3925,-234.467 L 28.0877,-234.688
 L 27.8131,-234.946 L 27.5729,-235.237 L 27.3711,-235.555 L 27.2107,-235.896 L 27.0942,-236.254 L 27.0237,-236.624
 L 27,-237 L 27.0237,-237.376 L 27.0942,-237.746 L 27.2107,-238.104 L 27.3711,-238.445 L 27.5729,-238.763
 L 27.8131,-239.054 L 28.0877,-239.312 L 28.3925,-239.533 L 28.7227,-239.714 L 29.0729,-239.853 L 29.4379,-239.947
 L 29.8116,-239.994 L 30.1884,-239.994 L 30.5621,-239.947 L 30.927,-239.853 L 31.2773,-239.714 L 31.6075,-239.533
 L 31.9123,-239.312 L 32.1869,-239.054 L 32.427,-238.763 L 32.6289,-238.445 L 32.7893,-238.104 L 32.9057,-237.746
 L 32.9763,-237.376 L 33,-237 L 32.9763,-236.624 L 32.9057,-236.254 L 32.7893,-235.896 L 32.6289,-235.555
 L 32.427,-235.237 L 32.1869,-234.946 L 31.9123,-234.688 L 31.6075,-234.467 L 31.2773,-234.286 L 30.927,-234.147
 L 30.5621,-234.053 L 30.1884,-234.006 z
M 14.8116,-219.006 L 14.4379,-219.053 L 14.0729,-219.147 L 13.7227,-219.286 L 13.3925,-219.467 L 13.0877,-219.688
 L 12.8131,-219.946 L 12.5729,-220.237 L 12.3711,-220.555 L 12.2107,-220.896 L 12.0942,-221.254 L 12.0237,-221.624
 L 12,-222 L 12.0237,-222.376 L 12.0942,-222.746 L 12.2107,-223.104 L 12.3711,-223.445 L 12.5729,-223.763
 L 12.8131,-224.054 L 13.0877,-224.312 L 13.3925,-224.533 L 13.7227,-224.714 L 14.0729,-224.853 L 14.4379,-224.947
 L 14.8116,-224.994 L 15.1884,-224.994 L 15.5621,-224.947 L 15.927,-224.853 L 16.2773,-224.714 L 16.6075,-224.533
 L 16.9123,-224.312 L 17.1869,-224.054 L 17.427,-223.763 L 17.6289,-223.445 L 17.7893,-223.104 L 17.9057,-222.746
 L 17.9763,-222.376 L 18,-222 L 17.9763,-221.624 L 17.9057,-221.254 L 17.7893,-220.896 L 17.6289,-220.555
 L 17.427,-220.237 L 17.1869,-219.946 L 16.9123,-219.688 L 16.6075,-219.467 L 16.2773,-219.286 L 15.927,-219.147
 L 15.5621,-219.053 L 15.1884,-219.006 z
M -30.1884,-219.006 L -30.5621,-219.053 L -30.927,-219.147 L -31.2773,-219.286 L -31.6075,-219.467 L -31.9123,-219.688
 L -32.1869,-219.946 L -32.427,-220.237 L -32.6289,-220.555 L -32.7893,-220.896 L -32.9057,-221.254 L -32.9763,-221.624
 L -33,-222 L -32.9763,-222.376 L -32.9057,-222.746 L -32.7893,-223.104 L -32.6289,-223.445 L -32.427,-223.763
 L -32.1869,-224.054 L -31.9123,-224.312 L -31.6075,-224.533 L -31.2773,-224.714 L -30.927,-224.853 L -30.5621,-224.947
 L -30.1884,-224.994 L -29.8116,-224.994 L -29.4379,-224.947 L -29.0729,-224.853 L -28.7227,-224.714 L -28.3925,-224.533
 L -28.0877,-224.312 L -27.8131,-224.054 L -27.5729,-223.763 L -27.3711,-223.445 L -27.2107,-223.104 L -27.0942,-222.746
 L -27.0237,-222.376 L -27,-222 L -27.0237,-221.624 L -27.0942,-221.254 L -27.2107,-220.896 L -27.3711,-220.555
 L -27.5729,-220.237 L -27.8131,-219.946 L -28.0877,-219.688 L -28.3925,-219.467 L -28.7227,-219.286 L -29.0729,-219.147
 L -29.4379,-219.053 L -29.8116,-219.006 z
M -15.1884,-219.006 L -15.5621,-219.053 L -15.927,-219.147 L -16.2773,-219.286 L -16.6075,-219.467 L -16.9123,-219.688
 L -17.1869,-219.946 L -17.427,-220.237 L -17.6289,-220.555 L -17.7893,-220.896 L -17.9057,-221.254 L -17.9763,-221.624
 L -18,-222 L -17.9763,-222.376 L -17.9057,-222.746 L -17.7893,-223.104 L -17.6289,-223.445 L -17.427,-223.763
 L -17.1869,-224.054 L -16.9123,-224.312 L -16.6075,-224.533 L -16.2773,-224.714 L -15.927,-224.853 L -15.5621,-224.947
 L -15.1884,-224.994 L -14.8116,-224.994 L -14.4379,-224.947 L -14.0729,-224.853 L -13.7227,-224.714 L -13.3925,-224.533
 L -13.0877,-224.312 L -12.8131,-224.054 L -12.5729,-223.763 L -12.3711,-223.445 L -12.2107,-223.104 L -12.0942,-222.746
 L -12.0237,-222.376 L -12,-222 L -12.0237,-221.624 L -12.0942,-221.254 L -12.2107,-220.896 L -12.3711,-220.555
 L -12.5729,-220.237 L -12.8131,-219.946 L -13.0877,-219.688 L -13.3925,-219.467 L -13.7227,-219.286 L -14.0729,-219.147
 L -14.4379,-219.053 L -14.8116,-219.006 z
M 29.8116,-219.006 L 29.4379,-219.053 L 29.0729,-219.147 L 28.7227,-219.286 L 28.3925,-219.467 L 28.0877,-219.688
 L 27.8131,-219.946 L 27.5729,-220.237 L 27.3711,-220.555 L 27.2107,-220.896 L 27.0942,-221.254 L 27.0237,-221.624
 L 27,-222 L 27.0237,-222.376 L 27.0942,-222.746 L 27.2107,-223.104 L 27.3711,-223.445 L 27.5729,-223.763
 L 27.8131,-224.054 L 28.0877,-224.312 L 28.3925,-224.533 L 28.7227,-224.714 L 29.0729,-224.853 L 29.4379,-224.947
 L 29.8116,-224.994 L 30.1884,-224.994 L 30.5621,-224.947 L 30.927,-224.853 L 31.2773,-224.714 L 31.6075,-224.533
 L 31.9123,-224.312 L 32.1869,-224.054 L 32.427,-223.763 L 32.6289,-223.445 L 32.7893,-223.104 L 32.9057,-222.746
 L 32.9763,-222.376 L 33,-222 L 32.9763,-221.624 L 32.9057,-221.254 L 32.7893,-220.896 L 32.6289,-220.555
 L 32.427,-220.237 L 32.1869,-219.946 L 31.9123,-219.688 L 31.6075,-219.467 L 31.2773,-219.286 L 30.927,-219.147
 L 30.5621,-219.053 L 30.1884,-219.006 z
M -0.144409,-219.705 L -0.430969,-219.741 L -0.710724,-219.813 L -0.979279,-219.919 L -1.23239,-220.058 L -1.46606,-220.228
 L -1.67662,-220.426 L -1.86073,-220.648 L -2.0155,-220.892 L -2.13847,-221.153 L -2.22774,-221.428 L -2.28186,-221.712
 L -2.29999,-222 L -2.28186,-222.288 L -2.22774,-222.572 L -2.13847,-222.847 L -2.0155,-223.108 L -1.86073,-223.352
 L -1.67662,-223.574 L -1.46606,-223.772 L -1.23239,-223.942 L -0.979279,-224.081 L -0.710724,-224.187 L -0.430969,-224.259
 L -0.144409,-224.295 L 0.144409,-224.295 L 0.430969,-224.259 L 0.710724,-224.187 L 0.979279,-224.081 L 1.23239,-223.942
 L 1.46606,-223.772 L 1.67662,-223.574 L 1.86073,-223.352 L 2.0155,-223.108 L 2.13847,-222.847 L 2.22774,-222.572
 L 2.28186,-222.288 L 2.29999,-222 L 2.28186,-221.712 L 2.22774,-221.428 L 2.13847,-221.153 L 2.0155,-220.892
 L 1.86073,-220.648 L 1.67662,-220.426 L 1.46606,-220.228 L 1.23239,-220.058 L 0.979279,-219.919 L 0.710724,-219.813
 L 0.430969,-219.741 L 0.144409,-219.705 z
M 32.9369,-131.089 L 33.5451,-131.245 L 34.1289,-131.476 L 34.6791,-131.778 L 35.1871,-132.147 L 35.6448,-132.577
 L 36.0451,-133.061 L 36.3815,-133.591 L 36.6489,-134.159 L 36.8429,-134.757 L 36.9606,-135.373 L 37,-136
 L 37,-200 L 36.9606,-200.627 L 36.8429,-201.243 L 36.6489,-201.841 L 36.3815,-202.409 L 36.0451,-202.939
 L 35.6448,-203.423 L 35.1871,-203.853 L 34.6791,-204.222 L 34.1289,-204.524 L 33.5451,-204.755 L 32.9369,-204.911
 L 32.3139,-204.99 L -32.3139,-204.99 L -32.9369,-204.911 L -33.5451,-204.755 L -34.1289,-204.524 L -34.6791,-204.222
 L -35.1871,-203.853 L -35.6448,-203.423 L -36.0451,-202.939 L -36.3815,-202.409 L -36.6489,-201.841 L -36.8429,-201.243
 L -36.9606,-200.627 L -37,-200 L -37,-136 L -36.9606,-135.373 L -36.8429,-134.757 L -36.6489,-134.159
 L -36.3815,-133.591 L -36.0451,-133.061 L -35.6448,-132.577 L -35.1871,-132.147 L -34.6791,-131.778 L -34.1289,-131.476
 L -33.5451,-131.245 L -32.9369,-131.089 L -32.3139,-131.01 L 32.3139,-131.01 z
M -30.1884,-195.006 L -30.5621,-195.053 L -30.927,-195.147 L -31.2773,-195.286 L -31.6075,-195.467 L -31.9123,-195.688
 L -32.1869,-195.946 L -32.427,-196.237 L -32.6289,-196.555 L -32.7893,-196.896 L -32.9057,-197.254 L -32.9763,-197.624
 L -33,-198 L -32.9763,-198.376 L -32.9057,-198.746 L -32.7893,-199.104 L -32.6289,-199.445 L -32.427,-199.763
 L -32.1869,-200.054 L -31.9123,-200.312 L -31.6075,-200.533 L -31.2773,-200.714 L -30.927,-200.853 L -30.5621,-200.947
 L -30.1884,-200.994 L -29.8116,-200.994 L -29.4379,-200.947 L -29.0729,-200.853 L -28.7227,-200.714 L -28.3925,-200.533
 L -28.0877,-200.312 L -27.8131,-200.054 L -27.5729,-199.763 L -27.3711,-199.445 L -27.2107,-199.104 L -27.0942,-198.746
 L -27.0237,-198.376 L -27,-198 L -27.0237,-197.624 L -27.0942,-197.254 L -27.2107,-196.896 L -27.3711,-196.555
 L -27.5729,-196.237 L -27.8131,-195.946 L -28.0877,-195.688 L -28.3925,-195.467 L -28.7227,-195.286 L -29.0729,-195.147
 L -29.4379,-195.053 L -29.8116,-195.006 z
M 14.8116,-195.006 L 14.4379,-195.053 L 14.0729,-195.147 L 13.7227,-195.286 L 13.3925,-195.467 L 13.0877,-195.688
 L 12.8131,-195.946 L 12.5729,-196.237 L 12.3711,-196.555 L 12.2107,-196.896 L 12.0942,-197.254 L 12.0237,-197.624
 L 12,-198 L 12.0237,-198.376 L 12.0942,-198.746 L 12.2107,-199.104 L 12.3711,-199.445 L 12.5729,-199.763
 L 12.8131,-200.054 L 13.0877,-200.312 L 13.3925,-200.533 L 13.7227,-200.714 L 14.0729,-200.853 L 14.4379,-200.947
 L 14.8116,-200.994 L 15.1884,-200.994 L 15.5621,-200.947 L 15.927,-200.853 L 16.2773,-200.714 L 16.6075,-200.533
 L 16.9123,-200.312 L 17.1869,-200.054 L 17.427,-199.763 L 17.6289,-199.445 L 17.7893,-199.104 L 17.9057,-198.746
 L 17.9763,-198.376 L 18,-198 L 17.9763,-197.624 L 17.9057,-197.254 L 17.7893,-196.896 L 17.6289,-196.555
 L 17.427,-196.237 L 17.1869,-195.946 L 16.9123,-195.688 L 16.6075,-195.467 L 16.2773,-195.286 L 15.927,-195.147
 L 15.5621,-195.053 L 15.1884,-195.006 z
M 29.8116,-195.006 L 29.4379,-195.053 L 29.0729,-195.147 L 28.7227,-195.286 L 28.3925,-195.467 L 28.0877,-195.688
 L 27.8131,-195.946 L 27.5729,-196.237 L 27.3711,-196.555 L 27.2107,-196.896 L 27.0942,-197.254 L 27.0237,-197.624
 L 27,-198 L 27.0237,-198.376 L 27.0942,-198.746 L 27.2107,-199.104 L 27.3711,-199.445 L 27.5729,-199.763
 L 27.8131,-200.054 L 28.0877,-200.312 L 28.3925,-200.533 L 28.7227,-200.714 L 29.0729,-200.853 L 29.4379,-200.947
 L 29.8116,-200.994 L 30.1884,-200.994 L 30.5621,-200.947 L 30.927,-200.853 L 31.2773,-200.714 L 31.6075,-200.533
 L 31.9123,-200.312 L 32.1869,-200.054 L 32.427,-199.763 L 32.6289,-199.445 L 32.7893,-199.104 L 32.9057,-198.746
 L 32.9763,-198.376 L 33,-198 L 32.9763,-197.624 L 32.9057,-197.254 L 32.7893,-196.896 L 32.6289,-196.555
 L 32.427,-196.237 L 32.1869,-195.946 L 31.9123,-195.688 L 31.6075,-195.467 L 31.2773,-195.286 L 30.927,-195.147
 L 30.5621,-195.053 L 30.1884,-195.006 z
M -15.1884,-195.006 L -15.5621,-195.053 L -15.927,-195.147 L -16.2773,-195.286 L -16.6075,-195.467 L -16.9123,-195.688
 L -17.1869,-195.946 L -17.427,-196.237 L -17.6289,-196.555 L -17.7893,-196.896 L -17.9057,-197.254 L -17.9763,-197.624
 L -18,-198 L -17.9763,-198.376 L -17.9057,-198.746 L -17.7893,-199.104 L -17.6289,-199.445 L -17.427,-199.763
 L -17.1869,-200.054 L -16.9123,-200.312 L -16.6075,-200.533 L -16.2773,-200.714 L -15.927,-200.853 L -15.5621,-200.947
 L -15.1884,-200.994 L -14.8116,-200.994 L -14.4379,-200.947 L -14.0729,-200.853 L -13.7227,-200.714 L -13.3925,-200.533
 L -13.0877,-200.312 L -12.8131,-200.054 L -12.5729,-199.763 L -12.3711,-199.445 L -12.2107,-199.104 L -12.0942,-198.746
 L -12.0237,-198.376 L -12,-198 L -12.0237,-197.624 L -12.0942,-197.254 L -12.2107,-196.896 L -12.3711,-196.555
 L -12.5729,-196.237 L -12.8131,-195.946 L -13.0877,-195.688 L -13.3925,-195.467 L -13.7227,-195.286 L -14.0729,-195.147
 L -14.4379,-195.053 L -14.8116,-195.006 z
M -1.58675,-195.252 L -3.17349,-198 L -1.58675,-200.748 L 1.58675,-200.748 L 3.17349,-198 L 1.58675,-195.252
 z
M -1.63255,-142.051 L -4.8719,-142.461 L -8.03444,-143.273 L -11.0703,-144.475 L -13.9315,-146.047 L -16.573,-147.967
 L -18.9532,-150.202 L -21.0344,-152.718 L -22.784,-155.474 L -24.1742,-158.429 L -25.1832,-161.534 L -25.795,-164.741
 L -26,-168 L -25.795,-171.259 L -25.1832,-174.466 L -24.1742,-177.571 L -22.784,-180.526 L -21.0344,-183.282
 L -18.9532,-185.798 L -16.573,-188.033 L -13.9315,-189.953 L -11.0703,-191.525 L -8.03444,-192.727 L -4.8719,-193.539
 L -1.63255,-193.949 L 1.63255,-193.949 L 4.8719,-193.539 L 8.03444,-192.727 L 11.0703,-191.525 L 13.9315,-189.953
 L 16.573,-188.033 L 18.9532,-185.798 L 21.0344,-183.282 L 22.784,-180.526 L 24.1742,-177.571 L 25.1832,-174.466
 L 25.795,-171.259 L 26,-168 L 25.795,-164.741 L 25.1832,-161.534 L 24.1742,-158.429 L 22.784,-155.474
 L 21.0344,-152.718 L 18.9532,-150.202 L 16.573,-147.967 L 13.9315,-146.047 L 11.0703,-144.475 L 8.03444,-143.273
 L 4.8719,-142.461 L 1.63255,-142.051 z
M 3.74762,-148.354 L 6.18033,-148.979 L 8.51558,-149.903 L 10.7165,-151.113 L 12.7485,-152.59 L 14.5794,-154.309
 L 16.1803,-156.244 L 17.5261,-158.365 L 18.5955,-160.638 L 19.3717,-163.026 L 19.8423,-165.493 L 20,-168
 L 19.8423,-170.507 L 19.3717,-172.974 L 18.5955,-175.362 L 17.5261,-177.635 L 16.1803,-179.756 L 14.5794,-181.691
 L 12.7485,-183.41 L 10.7165,-184.887 L 8.51558,-186.097 L 6.18033,-187.021 L 3.74762,-187.646 L 1.2558,-187.961
 L -1.2558,-187.961 L -3.74762,-187.646 L -6.18033,-187.021 L -8.51558,-186.097 L -10.7165,-184.887 L -12.7485,-183.41
 L -14.5794,-181.691 L -16.1803,-179.756 L -17.5261,-177.635 L -18.5955,-175.362 L -19.3717,-172.974 L -19.8423,-170.507
 L -20,-168 L -19.8423,-165.493 L -19.3717,-163.026 L -18.5955,-160.638 L -17.5261,-158.365 L -16.1803,-156.244
 L -14.5794,-154.309 L -12.7485,-152.59 L -10.7165,-151.113 L -8.51558,-149.903 L -6.18033,-148.979 L -3.74762,-148.354
 L -1.2558,-148.039 L 1.2558,-148.039 z
M -0.18837,-180.006 L -0.562134,-180.053 L -0.927048,-180.147 L -1.27733,-180.286 L -1.60747,-180.467 L -1.91226,-180.688
 L -2.1869,-180.946 L -2.42705,-181.237 L -2.62891,-181.555 L -2.78932,-181.896 L -2.90575,-182.254 L -2.97633,-182.624
 L -3,-183 L -2.97633,-183.376 L -2.90575,-183.746 L -2.78932,-184.104 L -2.62891,-184.445 L -2.42705,-184.763
 L -2.1869,-185.054 L -1.91226,-185.312 L -1.60747,-185.533 L -1.27733,-185.714 L -0.927048,-185.853 L -0.562134,-185.947
 L -0.18837,-185.994 L 0.18837,-185.994 L 0.562134,-185.947 L 0.927048,-185.853 L 1.27733,-185.714 L 1.60747,-185.533
 L 1.91226,-185.312 L 2.1869,-185.054 L 2.42705,-184.763 L 2.62891,-184.445 L 2.78932,-184.104 L 2.90575,-183.746
 L 2.97633,-183.376 L 3,-183 L 2.97633,-182.624 L 2.90575,-182.254 L 2.78932,-181.896 L 2.62891,-181.555
 L 2.42705,-181.237 L 2.1869,-180.946 L 1.91226,-180.688 L 1.60747,-180.467 L 1.27733,-180.286 L 0.927048,-180.147
 L 0.562134,-180.053 L 0.18837,-180.006 z
M -1.58675,-172.752 L -3.17349,-175.5 L -1.58675,-178.248 L 1.58675,-178.248 L 3.17349,-175.5 L 1.58675,-172.752
 z
M -15.1884,-165.006 L -15.5621,-165.053 L -15.927,-165.147 L -16.2773,-165.286 L -16.6075,-165.467 L -16.9123,-165.688
 L -17.1869,-165.946 L -17.427,-166.237 L -17.6289,-166.555 L -17.7893,-166.896 L -17.9057,-167.254 L -17.9763,-167.624
 L -18,-168 L -17.9763,-168.376 L -17.9057,-168.746 L -17.7893,-169.104 L -17.6289,-169.445 L -17.427,-169.763
 L -17.1869,-170.054 L -16.9123,-170.312 L -16.6075,-170.533 L -16.2773,-170.714 L -15.927,-170.853 L -15.5621,-170.947
 L -15.1884,-170.994 L -14.8116,-170.994 L -14.4379,-170.947 L -14.0729,-170.853 L -13.7227,-170.714 L -13.3925,-170.533
 L -13.0877,-170.312 L -12.8131,-170.054 L -12.5729,-169.763 L -12.3711,-169.445 L -12.2107,-169.104 L -12.0942,-168.746
 L -12.0237,-168.376 L -12,-168 L -12.0237,-167.624 L -12.0942,-167.254 L -12.2107,-166.896 L -12.3711,-166.555
 L -12.5729,-166.237 L -12.8131,-165.946 L -13.0877,-165.688 L -13.3925,-165.467 L -13.7227,-165.286 L -14.0729,-165.147
 L -14.4379,-165.053 L -14.8116,-165.006 z
M 14.8116,-165.006 L 14.4379,-165.053 L 14.0729,-165.147 L 13.7227,-165.286 L 13.3925,-165.467 L 13.0877,-165.688
 L 12.8131,-165.946 L 12.5729,-166.237 L 12.3711,-166.555 L 12.2107,-166.896 L 12.0942,-167.254 L 12.0237,-167.624
 L 12,-168 L 12.0237,-168.376 L 12.0942,-168.746 L 12.2107,-169.104 L 12.3711,-169.445 L 12.5729,-169.763
 L 12.8131,-170.054 L 13.0877,-170.312 L 13.3925,-170.533 L 13.7227,-170.714 L 14.0729,-170.853 L 14.4379,-170.947
 L 14.8116,-170.994 L 15.1884,-170.994 L 15.5621,-170.947 L 15.927,-170.853 L 16.2773,-170.714 L 16.6075,-170.533
 L 16.9123,-170.312 L 17.1869,-170.054 L 17.427,-169.763 L 17.6289,-169.445 L 17.7893,-169.104 L 17.9057,-168.746
 L 17.9763,-168.376 L 18,-168 L 17.9763,-167.624 L 17.9057,-167.254 L 17.7893,-166.896 L 17.6289,-166.555
 L 17.427,-166.237 L 17.1869,-165.946 L 16.9123,-165.688 L 16.6075,-165.467 L 16.2773,-165.286 L 15.927,-165.147
 L 15.5621,-165.053 L 15.1884,-165.006 z
M -0.18837,-165.006 L -0.562134,-165.053 L -0.927048,-165.147 L -1.27733,-165.286 L -1.60747,-165.467 L -1.91226,-165.688
 L -2.1869,-165.946 L -2.42705,-166.237 L -2.62891,-166.555 L -2.78932,-166.896 L -2.90575,-167.254 L -2.97633,-167.624
 L -3,-168 L -2.97633,-168.376 L -2.90575,-168.746 L -2.78932,-169.104 L -2.62891,-169.445 L -2.42705,-169.763
 L -2.1869,-170.054 L -1.91226,-170.312 L -1.60747,-170.533 L -1.27733,-170.714 L -0.927048,-170.853 L -0.562134,-170.947
 L -0.18837,-170.994 L 0.18837,-170.994 L 0.562134,-170.947 L 0.927048,-170.853 L 1.27733,-170.714 L 1.60747,-170.533
 L 1.91226,-170.312 L 2.1869,-170.054 L 2.42705,-169.763 L 2.62891,-169.445 L 2.78932,-169.104 L 2.90575,-168.746
 L 2.97633,-168.376 L 3,-168 L 2.97633,-167.624 L 2.90575,-167.254 L 2.78932,-166.896 L 2.62891,-166.555
 L 2.42705,-166.237 L 2.1869,-165.946 L 1.91226,-165.688 L 1.60747,-165.467 L 1.27733,-165.286 L 0.927048,-165.147
 L 0.562134,-165.053 L 0.18837,-165.006 z
M 7.40581,-166.503 L 7.21892,-166.527 L 7.03647,-166.573 L 6.86133,-166.643 L 6.69626,-166.734 L 6.54385,-166.844
 L 6.40654,-166.973 L 6.28647,-167.118 L 6.18553,-167.277 L 6.10533,-167.448 L 6.04712,-167.627 L 6.01183,-167.812
 L 6,-168 L 6.01183,-168.188 L 6.04712,-168.373 L 6.10533,-168.552 L 6.18553,-168.723 L 6.28647,-168.882
 L 6.40654,-169.027 L 6.54385,-169.156 L 6.69626,-169.266 L 6.86133,-169.357 L 7.03647,-169.427 L 7.21892,-169.473
 L 7.40581,-169.497 L 7.59418,-169.497 L 7.78107,-169.473 L 7.96352,-169.427 L 8.13866,-169.357 L 8.30373,-169.266
 L 8.45613,-169.156 L 8.59344,-169.027 L 8.71352,-168.882 L 8.81445,-168.723 L 8.89465,-168.552 L 8.95287,-168.373
 L 8.98816,-168.188 L 9,-168 L 8.98816,-167.812 L 8.95287,-167.627 L 8.89465,-167.448 L 8.81445,-167.277
 L 8.71352,-167.118 L 8.59344,-166.973 L 8.45613,-166.844 L 8.30373,-166.734 L 8.13866,-166.643 L 7.96352,-166.573
 L 7.78107,-166.527 L 7.59418,-166.503 z
M -7.59418,-166.503 L -7.78107,-166.527 L -7.96352,-166.573 L -8.13866,-166.643 L -8.30373,-166.734 L -8.45613,-166.844
 L -8.59344,-166.973 L -8.71352,-167.118 L -8.81445,-167.277 L -8.89465,-167.448 L -8.95287,-167.627 L -8.98816,-167.812
 L -9,-168 L -8.98816,-168.188 L -8.95287,-168.373 L -8.89465,-168.552 L -8.81445,-168.723 L -8.71352,-168.882
 L -8.59344,-169.027 L -8.45613,-169.156 L -8.30373,-169.266 L -8.13866,-169.357 L -7.96352,-169.427 L -7.78107,-169.473
 L -7.59418,-169.497 L -7.40581,-169.497 L -7.21892,-169.473 L -7.03647,-169.427 L -6.86133,-169.357 L -6.69626,-169.266
 L -6.54385,-169.156 L -6.40654,-169.027 L -6.28647,-168.882 L -6.18553,-168.723 L -6.10533,-168.552 L -6.04712,-168.373
 L -6.01183,-168.188 L -6,-168 L -6.01183,-167.812 L -6.04712,-167.627 L -6.10533,-167.448 L -6.18553,-167.277
 L -6.28647,-167.118 L -6.40654,-166.973 L -6.54385,-166.844 L -6.69626,-166.734 L -6.86133,-166.643 L -7.03647,-166.573
 L -7.21892,-166.527 L -7.40581,-166.503 z
M -1.58675,-157.752 L -3.17349,-160.5 L -1.58675,-163.248 L 1.58675,-163.248 L 3.17349,-160.5 L 1.58675,-157.752
 z
M -0.18837,-150.006 L -0.562134,-150.053 L -0.927048,-150.147 L -1.27733,-150.286 L -1.60747,-150.467 L -1.91226,-150.688
 L -2.1869,-150.946 L -2.42705,-151.237 L -2.62891,-151.555 L -2.78932,-151.896 L -2.90575,-152.254 L -2.97633,-152.624
 L -3,-153 L -2.97633,-153.376 L -2.90575,-153.746 L -2.78932,-154.104 L -2.62891,-154.445 L -2.42705,-154.763
 L -2.1869,-155.054 L -1.91226,-155.312 L -1.60747,-155.533 L -1.27733,-155.714 L -0.927048,-155.853 L -0.562134,-155.947
 L -0.18837,-155.994 L 0.18837,-155.994 L 0.562134,-155.947 L 0.927048,-155.853 L 1.27733,-155.714 L 1.60747,-155.533
 L 1.91226,-155.312 L 2.1869,-155.054 L 2.42705,-154.763 L 2.62891,-154.445 L 2.78932,-154.104 L 2.90575,-153.746
 L 2.97633,-153.376 L 3,-153 L 2.97633,-152.624 L 2.90575,-152.254 L 2.78932,-151.896 L 2.62891,-151.555
 L 2.42705,-151.237 L 2.1869,-150.946 L 1.91226,-150.688 L 1.60747,-150.467 L 1.27733,-150.286 L 0.927048,-150.147
 L 0.562134,-150.053 L 0.18837,-150.006 z
M 29.8116,-180.006 L 29.4379,-180.053 L 29.0729,-180.147 L 28.7227,-180.286 L 28.3925,-180.467 L 28.0877,-180.688
 L 27.8131,-180.946 L 27.5729,-181.237 L 27.3711,-181.555 L 27.2107,-181.896 L 27.0942,-182.254 L 27.0237,-182.624
 L 27,-183 L 27.0237,-183.376 L 27.0942,-183.746 L 27.2107,-184.104 L 27.3711,-184.445 L 27.5729,-184.763
 L 27.8131,-185.054 L 28.0877,-185.312 L 28.3925,-185.533 L 28.7227,-185.714 L 29.0729,-185.853 L 29.4379,-185.947
 L 29.8116,-185.994 L 30.1884,-185.994 L 30.5621,-185.947 L 30.927,-185.853 L 31.2773,-185.714 L 31.6075,-185.533
 L 31.9123,-185.312 L 32.1869,-185.054 L 32.427,-184.763 L 32.6289,-184.445 L 32.7893,-184.104 L 32.9057,-183.746
 L 32.9763,-183.376 L 33,-183 L 32.9763,-182.624 L 32.9057,-182.254 L 32.7893,-181.896 L 32.6289,-181.555
 L 32.427,-181.237 L 32.1869,-180.946 L 31.9123,-180.688 L 31.6075,-180.467 L 31.2773,-180.286 L 30.927,-180.147
 L 30.5621,-180.053 L 30.1884,-180.006 z
M -30.1884,-180.006 L -30.5621,-180.053 L -30.927,-180.147 L -31.2773,-180.286 L -31.6075,-180.467 L -31.9123,-180.688
 L -32.1869,-180.946 L -32.427,-181.237 L -32.6289,-181.555 L -32.7893,-181.896 L -32.9057,-182.254 L -32.9763,-182.624
 L -33,-183 L -32.9763,-183.376 L -32.9057,-183.746 L -32.7893,-184.104 L -32.6289,-184.445 L -32.427,-184.763
 L -32.1869,-185.054 L -31.9123,-185.312 L -31.6075,-185.533 L -31.2773,-185.714 L -30.927,-185.853 L -30.5621,-185.947
 L -30.1884,-185.994 L -29.8116,-185.994 L -29.4379,-185.947 L -29.0729,-185.853 L -28.7227,-185.714 L -28.3925,-185.533
 L -28.0877,-185.312 L -27.8131,-185.054 L -27.5729,-184.763 L -27.3711,-184.445 L -27.2107,-184.104 L -27.0942,-183.746
 L -27.0237,-183.376 L -27,-183 L -27.0237,-182.624 L -27.0942,-182.254 L -27.2107,-181.896 L -27.3711,-181.555
 L -27.5729,-181.237 L -27.8131,-180.946 L -28.0877,-180.688 L -28.3925,-180.467 L -28.7227,-180.286 L -29.0729,-180.147
 L -29.4379,-180.053 L -29.8116,-180.006 z
M -32.7483,-166.413 L -32.7483,-169.587 L -30,-171.173 L -27.2517,-169.587 L -27.2517,-166.413 L -30,-164.827
 z
M 27.2517,-166.413 L 27.2517,-169.587 L 30,-171.173 L 32.7483,-169.587 L 32.7483,-166.413 L 30,-164.827
 z
M -30.1884,-150.006 L -30.5621,-150.053 L -30.927,-150.147 L -31.2773,-150.286 L -31.6075,-150.467 L -31.9123,-150.688
 L -32.1869,-150.946 L -32.427,-151.237 L -32.6289,-151.555 L -32.7893,-151.896 L -32.9057,-152.254 L -32.9763,-152.624
 L -33,-153 L -32.9763,-153.376 L -32.9057,-153.746 L -32.7893,-154.104 L -32.6289,-154.445 L -32.427,-154.763
 L -32.1869,-155.054 L -31.9123,-155.312 L -31.6075,-155.533 L -31.2773,-155.714 L -30.927,-155.853 L -30.5621,-155.947
 L -30.1884,-155.994 L -29.8116,-155.994 L -29.4379,-155.947 L -29.0729,-155.853 L -28.7227,-155.714 L -28.3925,-155.533
 L -28.0877,-155.312 L -27.8131,-155.054 L -27.5729,-154.763 L -27.3711,-154.445 L -27.2107,-154.104 L -27.0942,-153.746
 L -27.0237,-153.376 L -27,-153 L -27.0237,-152.624 L -27.0942,-152.254 L -27.2107,-151.896 L -27.3711,-151.555
 L -27.5729,-151.237 L -27.8131,-150.946 L -28.0877,-150.688 L -28.3925,-150.467 L -28.7227,-150.286 L -29.0729,-150.147
 L -29.4379,-150.053 L -29.8116,-150.006 z
M 29.8116,-150.006 L 29.4379,-150.053 L 29.0729,-150.147 L 28.7227,-150.286 L 28.3925,-150.467 L 28.0877,-150.688
 L 27.8131,-150.946 L 27.5729,-151.237 L 27.3711,-151.555 L 27.2107,-151.896 L 27.0942,-152.254 L 27.0237,-152.624
 L 27,-153 L 27.0237,-153.376 L 27.0942,-153.746 L 27.2107,-154.104 L 27.3711,-154.445 L 27.5729,-154.763
 L 27.8131,-155.054 L 28.0877,-155.312 L 28.3925,-155.533 L 28.7227,-155.714 L 29.0729,-155.853 L 29.4379,-155.947
 L 29.8116,-155.994 L 30.1884,-155.994 L 30.5621,-155.947 L 30.927,-155.853 L 31.2773,-155.714 L 31.6075,-155.533
 L 31.9123,-155.312 L 32.1869,-155.054 L 32.427,-154.763 L 32.6289,-154.445 L 32.7893,-154.104 L 32.9057,-153.746
 L 32.9763,-153.376 L 33,-153 L 32.9763,-152.624 L 32.9057,-152.254 L 32.7893,-151.896 L 32.6289,-151.555
 L 32.427,-151.237 L 32.1869,-150.946 L 31.9123,-150.688 L 31.6075,-150.467 L 31.2773,-150.286 L 30.927,-150.147
 L 30.5621,-150.053 L 30.1884,-150.006 z
M 29.8116,-135.006 L 29.4379,-135.053 L 29.0729,-135.147 L 28.7227,-135.286 L 28.3925,-135.467 L 28.0877,-135.688
 L 27.8131,-135.946 L 27.5729,-136.237 L 27.3711,-136.555 L 27.2107,-136.896 L 27.0942,-137.254 L 27.0237,-137.624
 L 27,-138 L 27.0237,-138.376 L 27.0942,-138.746 L 27.2107,-139.104 L 27.3711,-139.445 L 27.5729,-139.763
 L 27.8131,-140.054 L 28.0877,-140.312 L 28.3925,-140.533 L 28.7227,-140.714 L 29.0729,-140.853 L 29.4379,-140.947
 L 29.8116,-140.994 L 30.1884,-140.994 L 30.5621,-140.947 L 30.927,-140.853 L 31.2773,-140.714 L 31.6075,-140.533
 L 31.9123,-140.312 L 32.1869,-140.054 L 32.427,-139.763 L 32.6289,-139.445 L 32.7893,-139.104 L 32.9057,-138.746
 L 32.9763,-138.376 L 33,-138 L 32.9763,-137.624 L 32.9057,-137.254 L 32.7893,-136.896 L 32.6289,-136.555
 L 32.427,-136.237 L 32.1869,-135.946 L 31.9123,-135.688 L 31.6075,-135.467 L 31.2773,-135.286 L 30.927,-135.147
 L 30.5621,-135.053 L 30.1884,-135.006 z
M -15.1884,-135.006 L -15.5621,-135.053 L -15.927,-135.147 L -16.2773,-135.286 L -16.6075,-135.467 L -16.9123,-135.688
 L -17.1869,-135.946 L -17.427,-136.237 L -17.6289,-136.555 L -17.7893,-136.896 L -17.9057,-137.254 L -17.9763,-137.624
 L -18,-138 L -17.9763,-138.376 L -17.9057,-138.746 L -17.7893,-139.104 L -17.6289,-139.445 L -17.427,-139.763
 L -17.1869,-140.054 L -16.9123,-140.312 L -16.6075,-140.533 L -16.2773,-140.714 L -15.927,-140.853 L -15.5621,-140.947
 L -15.1884,-140.994 L -14.8116,-140.994 L -14.4379,-140.947 L -14.0729,-140.853 L -13.7227,-140.714 L -13.3925,-140.533
 L -13.0877,-140.312 L -12.8131,-140.054 L -12.5729,-139.763 L -12.3711,-139.445 L -12.2107,-139.104 L -12.0942,-138.746
 L -12.0237,-138.376 L -12,-138 L -12.0237,-137.624 L -12.0942,-137.254 L -12.2107,-136.896 L -12.3711,-136.555
 L -12.5729,-136.237 L -12.8131,-135.946 L -13.0877,-135.688 L -13.3925,-135.467 L -13.7227,-135.286 L -14.0729,-135.147
 L -14.4379,-135.053 L -14.8116,-135.006 z
M 14.8116,-135.006 L 14.4379,-135.053 L 14.0729,-135.147 L 13.7227,-135.286 L 13.3925,-135.467 L 13.0877,-135.688
 L 12.8131,-135.946 L 12.5729,-136.237 L 12.3711,-136.555 L 12.2107,-136.896 L 12.0942,-137.254 L 12.0237,-137.624
 L 12,-138 L 12.0237,-138.376 L 12.0942,-138.746 L 12.2107,-139.104 L 12.3711,-139.445 L 12.5729,-139.763
 L 12.8131,-140.054 L 13.0877,-140.312 L 13.3925,-140.533 L 13.7227,-140.714 L 14.0729,-140.853 L 14.4379,-140.947
 L 14.8116,-140.994 L 15.1884,-140.994 L 15.5621,-140.947 L 15.927,-140.853 L 16.2773,-140.714 L 16.6075,-140.533
 L 16.9123,-140.312 L 17.1869,-140.054 L 17.427,-139.763 L 17.6289,-139.445 L 17.7893,-139.104 L 17.9057,-138.746
 L 17.9763,-138.376 L 18,-138 L 17.9763,-137.624 L 17.9057,-137.254 L 17.7893,-136.896 L 17.6289,-136.555
 L 17.427,-136.237 L 17.1869,-135.946 L 16.9123,-135.688 L 16.6075,-135.467 L 16.2773,-135.286 L 15.927,-135.147
 L 15.5621,-135.053 L 15.1884,-135.006 z
M -30.1884,-135.006 L -30.5621,-135.053 L -30.927,-135.147 L -31.2773,-135.286 L -31.6075,-135.467 L -31.9123,-135.688
 L -32.1869,-135.946 L -32.427,-136.237 L -32.6289,-136.555 L -32.7893,-136.896 L -32.9057,-137.254 L -32.9763,-137.624
 L -33,-138 L -32.9763,-138.376 L -32.9057,-138.746 L -32.7893,-139.104 L -32.6289,-139.445 L -32.427,-139.763
 L -32.1869,-140.054 L -31.9123,-140.312 L -31.6075,-140.533 L -31.2773,-140.714 L -30.927,-140.853 L -30.5621,-140.947
 L -30.1884,-140.994 L -29.8116,-140.994 L -29.4379,-140.947 L -29.0729,-140.853 L -28.7227,-140.714 L -28.3925,-140.533
 L -28.0877,-140.312 L -27.8131,-140.054 L -27.5729,-139.763 L -27.3711,-139.445 L -27.2107,-139.104 L -27.0942,-138.746
 L -27.0237,-138.376 L -27,-138 L -27.0237,-137.624 L -27.0942,-137.254 L -27.2107,-136.896 L -27.3711,-136.555
 L -27.5729,-136.237 L -27.8131,-135.946 L -28.0877,-135.688 L -28.3925,-135.467 L -28.7227,-135.286 L -29.0729,-135.147
 L -29.4379,-135.053 L -29.8116,-135.006 z
M -1.58675,-135.252 L -3.17349,-138 L -1.58675,-140.748 L 1.58675,-140.748 L 3.17349,-138 L 1.58675,-135.252
 z
M 32.9369,-47.0886 L 33.5451,-47.2447 L 34.1289,-47.4759 L 34.6791,-47.7784 L 35.1871,-48.1474 L 35.6448,-48.5773
 L 36.0451,-49.0611 L 36.3815,-49.5912 L 36.6489,-50.1594 L 36.8429,-50.7566 L 36.9606,-51.3733 L 37,-52
 L 37,-116 L 36.9606,-116.627 L 36.8429,-117.243 L 36.6489,-117.841 L 36.3815,-118.409 L 36.0451,-118.939
 L 35.6448,-119.423 L 35.1871,-119.853 L 34.6791,-120.222 L 34.1289,-120.524 L 33.5451,-120.755 L 32.9369,-120.911
 L 32.3139,-120.99 L -32.3139,-120.99 L -32.9369,-120.911 L -33.5451,-120.755 L -34.1289,-120.524 L -34.6791,-120.222
 L -35.1871,-119.853 L -35.6448,-119.423 L -36.0451,-118.939 L -36.3815,-118.409 L -36.6489,-117.841 L -36.8429,-117.243
 L -36.9606,-116.627 L -37,-116 L -37,-52 L -36.9606,-51.3733 L -36.8429,-50.7566 L -36.6489,-50.1594
 L -36.3815,-49.5912 L -36.0451,-49.0611 L -35.6448,-48.5773 L -35.1871,-48.1474 L -34.6791,-47.7784 L -34.1289,-47.4759
 L -33.5451,-47.2447 L -32.9369,-47.0886 L -32.3139,-47.0099 L 32.3139,-47.0099 z
M 14.8116,-111.006 L 14.4379,-111.053 L 14.0729,-111.147 L 13.7227,-111.286 L 13.3925,-111.467 L 13.0877,-111.688
 L 12.8131,-111.946 L 12.5729,-112.237 L 12.3711,-112.555 L 12.2107,-112.896 L 12.0942,-113.254 L 12.0237,-113.624
 L 12,-114 L 12.0237,-114.376 L 12.0942,-114.746 L 12.2107,-115.104 L 12.3711,-115.445 L 12.5729,-115.763
 L 12.8131,-116.054 L 13.0877,-116.312 L 13.3925,-116.533 L 13.7227,-116.714 L 14.0729,-116.853 L 14.4379,-116.947
 L 14.8116,-116.994 L 15.1884,-116.994 L 15.5621,-116.947 L 15.927,-116.853 L 16.2773,-116.714 L 16.6075,-116.533
 L 16.9123,-116.312 L 17.1869,-116.054 L 17.427,-115.763 L 17.6289,-115.445 L 17.7893,-115.104 L 17.9057,-114.746
 L 17.9763,-114.376 L 18,-114 L 17.9763,-113.624 L 17.9057,-113.254 L 17.7893,-112.896 L 17.6289,-112.555
 L 17.427,-112.237 L 17.1869,-111.946 L 16.9123,-111.688 L 16.6075,-111.467 L 16.2773,-111.286 L 15.927,-111.147
 L 15.5621,-111.053 L 15.1884,-111.006 z
M -30.1884,-111.006 L -30.5621,-111.053 L -30.927,-111.147 L -31.2773,-111.286 L -31.6075,-111.467 L -31.9123,-111.688
 L -32.1869,-111.946 L -32.427,-112.237 L -32.6289,-112.555 L -32.7893,-112.896 L -32.9057,-113.254 L -32.9763,-113.624
 L -33,-114 L -32.9763,-114.376 L -32.9057,-114.746 L -32.7893,-115.104 L -32.6289,-115.445 L -32.427,-115.763
 L -32.1869,-116.054 L -31.9123,-116.312 L -31.6075,-116.533 L -31.2773,-116.714 L -30.927,-116.853 L -30.5621,-116.947
 L -30.1884,-116.994 L -29.8116,-116.994 L -29.4379,-116.947 L -29.0729,-116.853 L -28.7227,-116.714 L -28.3925,-116.533
 L -28.0877,-116.312 L -27.8131,-116.054 L -27.5729,-115.763 L -27.3711,-115.445 L -27.2107,-115.104 L -27.0942,-114.746
 L -27.0237,-114.376 L -27,-114 L -27.0237,-113.624 L -27.0942,-113.254 L -27.2107,-112.896 L -27.3711,-112.555
 L -27.5729,-112.237 L -27.8131,-111.946 L -28.0877,-111.688 L -28.3925,-111.467 L -28.7227,-111.286 L -29.0729,-111.147
 L -29.4379,-111.053 L -29.8116,-111.006 z
M 29.8116,-111.006 L 29.4379,-111.053 L 29.0729,-111.147 L 28.7227,-111.286 L 28.3925,-111.467 L 28.0877,-111.688
 L 27.8131,-111.946 L 27.5729,-112.237 L 27.3711,-112.555 L 27.2107,-112.896 L 27.0942,-113.254 L 27.0237,-113.624
 L 27,-114 L 27.0237,-114.376 L 27.0942,-114.746 L 27.2107,-115.104 L 27.3711,-115.445 L 27.5729,-115.763
 L 27.8131,-116.054 L 28.0877,-116.312 L 28.3925,-116.533 L 28.7227,-116.714 L 29.0729,-116.853 L 29.4379,-116.947
 L 29.8116,-116.994 L 30.1884,-116.994 L 30.5621,-116.947 L 30.927,-116.853 L 31.2773,-116.714 L 31.6075,-116.533
 L 31.9123,-116.312 L 32.1869,-116.054 L 32.427,-115.763 L 32.6289,-115.445 L 32.7893,-115.104 L 32.9057,-114.746
 L 32.9763,-114.376 L 33,-114 L 32.9763,-113.624 L 32.9057,-113.254 L 32.7893,-112.896 L 32.6289,-112.555
 L 32.427,-112.237 L 32.1869,-111.946 L 31.9123,-111.688 L 31.6075,-111.467 L 31.2773,-111.286 L 30.927,-111.147
 L 30.5621,-111.053 L 30.1884,-111.006 z
M -15.1884,-111.006 L -15.5621,-111.053 L -15.927,-111.147 L -16.2773,-111.286 L -16.6075,-111.467 L -16.9123,-111.688
 L -17.1869,-111.946 L -17.427,-112.237 L -17.6289,-112.555 L -17.7893,-112.896 L -17.9057,-113.254 L -17.9763,-113.624
 L -18,-114 L -17.9763,-114.376 L -17.9057,-114.746 L -17.7893,-115.104 L -17.6289,-115.445 L -17.427,-115.763
 L -17.1869,-116.054 L -16.9123,-116.312 L -16.6075,-116.533 L -16.2773,-116.714 L -15.927,-116.853 L -15.5621,-116.947
 L -15.1884,-116.994 L -14.8116,-116.994 L -14.4379,-116.947 L -14.0729,-116.853 L -13.7227,-116.714 L -13.3925,-116.533
 L -13.0877,-116.312 L -12.8131,-116.054 L -12.5729,-115.763 L -12.3711,-115.445 L -12.2107,-115.104 L -12.0942,-114.746
 L -12.0237,-114.376 L -12,-114 L -12.0237,-113.624 L -12.0942,-113.254 L -12.2107,-112.896 L -12.3711,-112.555
 L -12.5729,-112.237 L -12.8131,-111.946 L -13.0877,-111.688 L -13.3925,-111.467 L -13.7227,-111.286 L -14.0729,-111.147
 L -14.4379,-111.053 L -14.8116,-111.006 z
M -1.58675,-111.252 L -3.17349,-114 L -1.58675,-116.748 L 1.58675,-116.748 L 3.17349,-114 L 1.58675,-111.252
 z
M -1.63255,-58.0513 L -4.8719,-58.4605 L -8.03444,-59.2725 L -11.0703,-60.4745 L -13.9315,-62.0475 L -16.573,-63.9667
 L -18.9532,-66.2018 L -21.0344,-68.7176 L -22.784,-71.4744 L -24.1742,-74.4288 L -25.1832,-77.5341 L -25.795,-80.7413
 L -26,-84 L -25.795,-87.2587 L -25.1832,-90.4659 L -24.1742,-93.5712 L -22.784,-96.5256 L -21.0344,-99.2824
 L -18.9532,-101.798 L -16.573,-104.033 L -13.9315,-105.953 L -11.0703,-107.525 L -8.03444,-108.727 L -4.8719,-109.539
 L -1.63255,-109.949 L 1.63255,-109.949 L 4.8719,-109.539 L 8.03444,-108.727 L 11.0703,-107.525 L 13.9315,-105.953
 L 16.573,-104.033 L 18.9532,-101.798 L 21.0344,-99.2824 L 22.784,-96.5256 L 24.1742,-93.5712 L 25.1832,-90.4659
 L 25.795,-87.2587 L 26,-84 L 25.795,-80.7413 L 25.1832,-77.5341 L 24.1742,-74.4288 L 22.784,-71.4744
 L 21.0344,-68.7176 L 18.9532,-66.2018 L 16.573,-63.9667 L 13.9315,-62.0475 L 11.0703,-60.4745 L 8.03444,-59.2725
 L 4.8719,-58.4605 L 1.63255,-58.0513 z
M 3.74762,-64.3543 L 6.18033,-64.9789 L 8.51558,-65.9035 L 10.7165,-67.1134 L 12.7485,-68.5897 L 14.5794,-70.3091
 L 16.1803,-72.2443 L 17.5261,-74.3649 L 18.5955,-76.6375 L 19.3717,-79.0262 L 19.8423,-81.4933 L 20,-84
 L 19.8423,-86.5067 L 19.3717,-88.9738 L 18.5955,-91.3625 L 17.5261,-93.6351 L 16.1803,-95.7557 L 14.5794,-97.6909
 L 12.7485,-99.4103 L 10.7165,-100.887 L 8.51558,-102.097 L 6.18033,-103.021 L 3.74762,-103.646 L 1.2558,-103.961
 L -1.2558,-103.961 L -3.74762,-103.646 L -6.18033,-103.021 L -8.51558,-102.097 L -10.7165,-100.887 L -12.7485,-99.4103
 L -14.5794,-97.6909 L -16.1803,-95.7557 L -17.5261,-93.6351 L -18.5955,-91.3625 L -19.3717,-88.9738 L -19.8423,-86.5067
 L -20,-84 L -19.8423,-81.4933 L -19.3717,-79.0262 L -18.5955,-76.6375 L -17.5261,-74.3649 L -16.1803,-72.2443
 L -14.5794,-70.3091 L -12.7485,-68.5897 L -10.7165,-67.1134 L -8.51558,-65.9035 L -6.18033,-64.9789 L -3.74762,-64.3543
 L -1.2558,-64.0395 L 1.2558,-64.0395 z
M -0.18837,-96.0059 L -0.562134,-96.0531 L -0.927048,-96.1468 L -1.27733,-96.2855 L -1.60747,-96.467 L -1.91226,-96.6884
 L -2.1869,-96.9464 L -2.42705,-97.2366 L -2.62891,-97.5547 L -2.78932,-97.8956 L -2.90575,-98.2539 L -2.97633,-98.624
 L -3,-99 L -2.97633,-99.376 L -2.90575,-99.7461 L -2.78932,-100.104 L -2.62891,-100.445 L -2.42705,-100.763
 L -2.1869,-101.054 L -1.91226,-101.312 L -1.60747,-101.533 L -1.27733,-101.714 L -0.927048,-101.853 L -0.562134,-101.947
 L -0.18837,-101.994 L 0.18837,-101.994 L 0.562134,-101.947 L 0.927048,-101.853 L 1.27733,-101.714 L 1.60747,-101.533
 L 1.91226,-101.312 L 2.1869,-101.054 L 2.42705,-100.763 L 2.62891,-100.445 L 2.78932,-100.104 L 2.90575,-99.7461
 L 2.97633,-99.376 L 3,-99 L 2.97633,-98.624 L 2.90575,-98.2539 L 2.78932,-97.8956 L 2.62891,-97.5547
 L 2.42705,-97.2366 L 2.1869,-96.9464 L 1.91226,-96.6884 L 1.60747,-96.467 L 1.27733,-96.2855 L 0.927048,-96.1468
 L 0.562134,-96.0531 L 0.18837,-96.0059 z
M -1.58675,-88.7517 L -3.17349,-91.5 L -1.58675,-94.2483 L 1.58675,-94.2483 L 3.17349,-91.5 L 1.58675,-88.7517
 z
M -15.1884,-81.0059 L -15.5621,-81.0531 L -15.927,-81.1468 L -16.2773,-81.2855 L -16.6075,-81.467 L -16.9123,-81.6885
 L -17.1869,-81.9464 L -17.427,-82.2366 L -17.6289,-82.5547 L -17.7893,-82.8956 L -17.9057,-83.2539 L -17.9763,-83.624
 L -18,-84 L -17.9763,-84.376 L -17.9057,-84.7461 L -17.7893,-85.1044 L -17.6289,-85.4453 L -17.427,-85.7634
 L -17.1869,-86.0536 L -16.9123,-86.3115 L -16.6075,-86.533 L -16.2773,-86.7145 L -15.927,-86.8532 L -15.5621,-86.9469
 L -15.1884,-86.9941 L -14.8116,-86.9941 L -14.4379,-86.9469 L -14.0729,-86.8532 L -13.7227,-86.7145 L -13.3925,-86.533
 L -13.0877,-86.3115 L -12.8131,-86.0536 L -12.5729,-85.7634 L -12.3711,-85.4453 L -12.2107,-85.1044 L -12.0942,-84.7461
 L -12.0237,-84.376 L -12,-84 L -12.0237,-83.624 L -12.0942,-83.2539 L -12.2107,-82.8956 L -12.3711,-82.5547
 L -12.5729,-82.2366 L -12.8131,-81.9464 L -13.0877,-81.6885 L -13.3925,-81.467 L -13.7227,-81.2855 L -14.0729,-81.1468
 L -14.4379,-81.0531 L -14.8116,-81.0059 z
M 14.8116,-81.0059 L 14.4379,-81.0531 L 14.0729,-81.1468 L 13.7227,-81.2855 L 13.3925,-81.467 L 13.0877,-81.6885
 L 12.8131,-81.9464 L 12.5729,-82.2366 L 12.3711,-82.5547 L 12.2107,-82.8956 L 12.0942,-83.2539 L 12.0237,-83.624
 L 12,-84 L 12.0237,-84.376 L 12.0942,-84.7461 L 12.2107,-85.1044 L 12.3711,-85.4453 L 12.5729,-85.7634
 L 12.8131,-86.0536 L 13.0877,-86.3115 L 13.3925,-86.533 L 13.7227,-86.7145 L 14.0729,-86.8532 L 14.4379,-86.9469
 L 14.8116,-86.9941 L 15.1884,-86.9941 L 15.5621,-86.9469 L 15.927,-86.8532 L 16.2773,-86.7145 L 16.6075,-86.533
 L 16.9123,-86.3115 L 17.1869,-86.0536 L 17.427,-85.7634 L 17.6289,-85.4453 L 17.7893,-85.1044 L 17.9057,-84.7461
 L 17.9763,-84.376 L 18,-84 L 17.9763,-83.624 L 17.9057,-83.2539 L 17.7893,-82.8956 L 17.6289,-82.5547
 L 17.427,-82.2366 L 17.1869,-81.9464 L 16.9123,-81.6885 L 16.6075,-81.467 L 16.2773,-81.2855 L 15.927,-81.1468
 L 15.5621,-81.0531 L 15.1884,-81.0059 z
M -0.18837,-81.0059 L -0.562134,-81.0531 L -0.927048,-81.1468 L -1.27733,-81.2855 L -1.60747,-81.467 L -1.91226,-81.6885
 L -2.1869,-81.9464 L -2.42705,-82.2366 L -2.62891,-82.5547 L -2.78932,-82.8956 L -2.90575,-83.2539 L -2.97633,-83.624
 L -3,-84 L -2.97633,-84.376 L -2.90575,-84.7461 L -2.78932,-85.1044 L -2.62891,-85.4453 L -2.42705,-85.7634
 L -2.1869,-86.0536 L -1.91226,-86.3115 L -1.60747,-86.533 L -1.27733,-86.7145 L -0.927048,-86.8532 L -0.562134,-86.9469
 L -0.18837,-86.9941 L 0.18837,-86.9941 L 0.562134,-86.9469 L 0.927048,-86.8532 L 1.27733,-86.7145 L 1.60747,-86.533
 L 1.91226,-86.3115 L 2.1869,-86.0536 L 2.42705,-85.7634 L 2.62891,-85.4453 L 2.78932,-85.1044 L 2.90575,-84.7461
 L 2.97633,-84.376 L 3,-84 L 2.97633,-83.624 L 2.90575,-83.2539 L 2.78932,-82.8956 L 2.62891,-82.5547
 L 2.42705,-82.2366 L 2.1869,-81.9464 L 1.91226,-81.6885 L 1.60747,-81.467 L 1.27733,-81.2855 L 0.927048,-81.1468
 L 0.562134,-81.0531 L 0.18837,-81.0059 z
M 7.40581,-82.503 L 7.21892,-82.5266 L 7.03647,-82.5734 L 6.86133,-82.6428 L 6.69626,-82.7335 L 6.54385,-82.8442
 L 6.40654,-82.9732 L 6.28647,-83.1183 L 6.18553,-83.2774 L 6.10533,-83.4478 L 6.04712,-83.627 L 6.01183,-83.812
 L 6,-84 L 6.01183,-84.188 L 6.04712,-84.373 L 6.10533,-84.5522 L 6.18553,-84.7226 L 6.28647,-84.8817
 L 6.40654,-85.0268 L 6.54385,-85.1558 L 6.69626,-85.2665 L 6.86133,-85.3572 L 7.03647,-85.4266 L 7.21892,-85.4734
 L 7.40581,-85.497 L 7.59418,-85.497 L 7.78107,-85.4734 L 7.96352,-85.4266 L 8.13866,-85.3572 L 8.30373,-85.2665
 L 8.45613,-85.1558 L 8.59344,-85.0268 L 8.71352,-84.8817 L 8.81445,-84.7226 L 8.89465,-84.5522 L 8.95287,-84.373
 L 8.98816,-84.188 L 9,-84 L 8.98816,-83.812 L 8.95287,-83.627 L 8.89465,-83.4478 L 8.81445,-83.2774
 L 8.71352,-83.1183 L 8.59344,-82.9732 L 8.45613,-82.8442 L 8.30373,-82.7335 L 8.13866,-82.6428 L 7.96352,-82.5734
 L 7.78107,-82.5266 L 7.59418,-82.503 z
M -7.59418,-82.503 L -7.78107,-82.5266 L -7.96352,-82.5734 L -8.13866,-82.6428 L -8.30373,-82.7335 L -8.45613,-82.8442
 L -8.59344,-82.9732 L -8.71352,-83.1183 L -8.81445,-83.2774 L -8.89465,-83.4478 L -8.95287,-83.627 L -8.98816,-83.812
 L -9,-84 L -8.98816,-84.188 L -8.95287,-84.373 L -8.89465,-84.5522 L -8.81445,-84.7226 L -8.71352,-84.8817
 L -8.59344,-85.0268 L -8.45613,-85.1558 L -8.30373,-85.2665 L -8.13866,-85.3572 L -7.96352,-85.4266 L -7.78107,-85.4734
 L -7.59418,-85.497 L -7.40581,-85.497 L -7.21892,-85.4734 L -7.03647,-85.4266 L -6.86133,-85.3572 L -6.69626,-85.2665
 L -6.54385,-85.1558 L -6.40654,-85.0268 L -6.28647,-84.8817 L -6.18553,-84.7226 L -6.10533,-84.5522 L -6.04712,-84.373
 L -6.01183,-84.188 L -6,-84 L -6.01183,-83.812 L -6.04712,-83.627 L -6.10533,-83.4478 L -6.18553,-83.2774
 L -6.28647,-83.1183 L -6.40654,-82.9732 L -6.54385,-82.8442 L -6.69626,-82.7335 L -6.86133,-82.6428 L -7.03647,-82.5734
 L -7.21892,-82.5266 L -7.40581,-82.503 z
M -1.58675,-73.7517 L -3.17349,-76.5 L -1.58675,-79.2483 L 1.58675,-79.2483 L 3.17349,-76.5 L 1.58675,-73.7517
 z
M -0.18837,-66.0059 L -0.562134,-66.0531 L -0.927048,-66.1468 L -1.27733,-66.2855 L -1.60747,-66.467 L -1.91226,-66.6885
 L -2.1869,-66.9464 L -2.42705,-67.2366 L -2.62891,-67.5547 L -2.78932,-67.8956 L -2.90575,-68.2539 L -2.97633,-68.624
 L -3,-69 L -2.97633,-69.376 L -2.90575,-69.7461 L -2.78932,-70.1044 L -2.62891,-70.4453 L -2.42705,-70.7634
 L -2.1869,-71.0536 L -1.91226,-71.3116 L -1.60747,-71.533 L -1.27733,-71.7145 L -0.927048,-71.8532 L -0.562134,-71.9469
 L -0.18837,-71.9941 L 0.18837,-71.9941 L 0.562134,-71.9469 L 0.927048,-71.8532 L 1.27733,-71.7145 L 1.60747,-71.533
 L 1.91226,-71.3116 L 2.1869,-71.0536 L 2.42705,-70.7634 L 2.62891,-70.4453 L 2.78932,-70.1044 L 2.90575,-69.7461
 L 2.97633,-69.376 L 3,-69 L 2.97633,-68.624 L 2.90575,-68.2539 L 2.78932,-67.8956 L 2.62891,-67.5547
 L 2.42705,-67.2366 L 2.1869,-66.9464 L 1.91226,-66.6885 L 1.60747,-66.467 L 1.27733,-66.2855 L 0.927048,-66.1468
 L 0.562134,-66.0531 L 0.18837,-66.0059 z
M -30.1884,-96.0059 L -30.5621,-96.0531 L -30.927,-96.1468 L -31.2773,-96.2855 L -31.6075,-96.467 L -31.9123,-96.6884
 L -32.1869,-96.9464 L -32.427,-97.2366 L -32.6289,-97.5547 L -32.7893,-97.8956 L -32.9057,-98.2539 L -32.9763,-98.624
 L -33,-99 L -32.9763,-99.376 L -32.9057,-99.7461 L -32.7893,-100.104 L -32.6289,-100.445 L -32.427,-100.763
 L -32.1869,-101.054 L -31.9123,-101.312 L -31.6075,-101.533 L -31.2773,-101.714 L -30.927,-101.853 L -30.5621,-101.947
 L -30.1884,-101.994 L -29.8116,-101.994 L -29.4379,-101.947 L -29.0729,-101.853 L -28.7227,-101.714 L -28.3925,-101.533
 L -28.0877,-101.312 L -27.8131,-101.054 L -27.5729,-100.763 L -27.3711,-100.445 L -27.2107,-100.104 L -27.0942,-99.7461
 L -27.0237,-99.376 L -27,-99 L -27.0237,-98.624 L -27.0942,-98.2539 L -27.2107,-97.8956 L -27.3711,-97.5547
 L -27.5729,-97.2366 L -27.8131,-96.9464 L -28.0877,-96.6884 L -28.3925,-96.467 L -28.7227,-96.2855 L -29.0729,-96.1468
 L -29.4379,-96.0531 L -29.8116,-96.0059 z
M 29.8116,-96.0059 L 29.4379,-96.0531 L 29.0729,-96.1468 L 28.7227,-96.2855 L 28.3925,-96.467 L 28.0877,-96.6884
 L 27.8131,-96.9464 L 27.5729,-97.2366 L 27.3711,-97.5547 L 27.2107,-97.8956 L 27.0942,-98.2539 L 27.0237,-98.624
 L 27,-99 L 27.0237,-99.376 L 27.0942,-99.7461 L 27.2107,-100.104 L 27.3711,-100.445 L 27.5729,-100.763
 L 27.8131,-101.054 L 28.0877,-101.312 L 28.3925,-101.533 L 28.7227,-101.714 L 29.0729,-101.853 L 29.4379,-101.947
 L 29.8116,-101.994 L 30.1884,-101.994 L 30.5621,-101.947 L 30.927,-101.853 L 31.2773,-101.714 L 31.6075,-101.533
 L 31.9123,-101.312 L 32.1869,-101.054 L 32.427,-100.763 L 32.6289,-100.445 L 32.7893,-100.104 L 32.9057,-99.7461
 L 32.9763,-99.376 L 33,-99 L 32.9763,-98.624 L 32.9057,-98.2539 L 32.7893,-97.8956 L 32.6289,-97.5547
 L 32.427,-97.2366 L 32.1869,-96.9464 L 31.9123,-96.6884 L 31.6075,-96.467 L 31.2773,-96.2855 L 30.927,-96.1468
 L 30.5621,-96.0531 L 30.1884,-96.0059 z
M -32.7483,-82.4133 L -32.7483,-85.5867 L -30,-87.1735 L -27.2517,-85.5867 L -27.2517,-82.4133 L -30,-80.8265
 z
M 27.2517,-82.4133 L 27.2517,-85.5867 L 30,-87.1735 L 32.7483,-85.5867 L 32.7483,-82.4133 L 30,-80.8265
 z
M -30.1884,-66.0059 L -30.5621,-66.0531 L -30.927,-66.1468 L -31.2773,-66.2855 L -31.6075,-66.467 L -31.9123,-66.6885
 L -32.1869,-66.9464 L -32.427,-67.2366 L -32.6289,-67.5547 L -32.7893,-67.8956 L -32.9057,-68.2539 L -32.9763,-68.624
 L -33,-69 L -32.9763,-69.376 L -32.9057,-69.7461 L -32.7893,-70.1044 L -32.6289,-70.4453 L -32.427,-70.7634
 L -32.1869,-71.0536 L -31.9123,-71.3116 L -31.6075,-71.533 L -31.2773,-71.7145 L -30.927,-71.8532 L -30.5621,-71.9469
 L -30.1884,-71.9941 L -29.8116,-71.9941 L -29.4379,-71.9469 L -29.0729,-71.8532 L -28.7227,-71.7145 L -28.3925,-71.533
 L -28.0877,-71.3116 L -27.8131,-71.0536 L -27.5729,-70.7634 L -27.3711,-70.4453 L -27.2107,-70.1044 L -27.0942,-69.7461
 L -27.0237,-69.376 L -27,-69 L -27.0237,-68.624 L -27.0942,-68.2539 L -27.2107,-67.8956 L -27.3711,-67.5547
 L -27.5729,-67.2366 L -27.8131,-66.9464 L -28.0877,-66.6885 L -28.3925,-66.467 L -28.7227,-66.2855 L -29.0729,-66.1468
 L -29.4379,-66.0531 L -29.8116,-66.0059 z
M 29.8116,-66.0059 L 29.4379,-66.0531 L 29.0729,-66.1468 L 28.7227,-66.2855 L 28.3925,-66.467 L 28.0877,-66.6885
 L 27.8131,-66.9464 L 27.5729,-67.2366 L 27.3711,-67.5547 L 27.2107,-67.8956 L 27.0942,-68.2539 L 27.0237,-68.624
 L 27,-69 L 27.0237,-69.376 L 27.0942,-69.7461 L 27.2107,-70.1044 L 27.3711,-70.4453 L 27.5729,-70.7634
 L 27.8131,-71.0536 L 28.0877,-71.3116 L 28.3925,-71.533 L 28.7227,-71.7145 L 29.0729,-71.8532 L 29.4379,-71.9469
 L 29.8116,-71.9941 L 30.1884,-71.9941 L 30.5621,-71.9469 L 30.927,-71.8532 L 31.2773,-71.7145 L 31.6075,-71.533
 L 31.9123,-71.3116 L 32.1869,-71.0536 L 32.427,-70.7634 L 32.6289,-70.4453 L 32.7893,-70.1044 L 32.9057,-69.7461
 L 32.9763,-69.376 L 33,-69 L 32.9763,-68.624 L 32.9057,-68.2539 L 32.7893,-67.8956 L 32.6289,-67.5547
 L 32.427,-67.2366 L 32.1869,-66.9464 L 31.9123,-66.6885 L 31.6075,-66.467 L 31.2773,-66.2855 L 30.927,-66.1468
 L 30.5621,-66.0531 L 30.1884,-66.0059 z
M -15.1884,-51.0059 L -15.5621,-51.0531 L -15.927,-51.1468 L -16.2773,-51.2855 L -16.6075,-51.467 L -16.9123,-51.6885
 L -17.1869,-51.9464 L -17.427,-52.2366 L -17.6289,-52.5547 L -17.7893,-52.8956 L -17.9057,-53.2539 L -17.9763,-53.624
 L -18,-54 L -17.9763,-54.376 L -17.9057,-54.7461 L -17.7893,-55.1044 L -17.6289,-55.4453 L -17.427,-55.7634
 L -17.1869,-56.0536 L -16.9123,-56.3116 L -16.6075,-56.533 L -16.2773,-56.7145 L -15.927,-56.8532 L -15.5621,-56.9469
 L -15.1884,-56.9941 L -14.8116,-56.9941 L -14.4379,-56.9469 L -14.0729,-56.8532 L -13.7227,-56.7145 L -13.3925,-56.533
 L -13.0877,-56.3116 L -12.8131,-56.0536 L -12.5729,-55.7634 L -12.3711,-55.4453 L -12.2107,-55.1044 L -12.0942,-54.7461
 L -12.0237,-54.376 L -12,-54 L -12.0237,-53.624 L -12.0942,-53.2539 L -12.2107,-52.8956 L -12.3711,-52.5547
 L -12.5729,-52.2366 L -12.8131,-51.9464 L -13.0877,-51.6885 L -13.3925,-51.467 L -13.7227,-51.2855 L -14.0729,-51.1468
 L -14.4379,-51.0531 L -14.8116,-51.0059 z
M -30.1884,-51.0059 L -30.5621,-51.0531 L -30.927,-51.1468 L -31.2773,-51.2855 L -31.6075,-51.467 L -31.9123,-51.6885
 L -32.1869,-51.9464 L -32.427,-52.2366 L -32.6289,-52.5547 L -32.7893,-52.8956 L -32.9057,-53.2539 L -32.9763,-53.624
 L -33,-54 L -32.9763,-54.376 L -32.9057,-54.7461 L -32.7893,-55.1044 L -32.6289,-55.4453 L -32.427,-55.7634
 L -32.1869,-56.0536 L -31.9123,-56.3116 L -31.6075,-56.533 L -31.2773,-56.7145 L -30.927,-56.8532 L -30.5621,-56.9469
 L -30.1884,-56.9941 L -29.8116,-56.9941 L -29.4379,-56.9469 L -29.0729,-56.8532 L -28.7227,-56.7145 L -28.3925,-56.533
 L -28.0877,-56.3116 L -27.8131,-56.0536 L -27.5729,-55.7634 L -27.3711,-55.4453 L -27.2107,-55.1044 L -27.0942,-54.7461
 L -27.0237,-54.376 L -27,-54 L -27.0237,-53.624 L -27.0942,-53.2539 L -27.2107,-52.8956 L -27.3711,-52.5547
 L -27.5729,-52.2366 L -27.8131,-51.9464 L -28.0877,-51.6885 L -28.3925,-51.467 L -28.7227,-51.2855 L -29.0729,-51.1468
 L -29.4379,-51.0531 L -29.8116,-51.0059 z
M 29.8116,-51.0059 L 29.4379,-51.0531 L 29.0729,-51.1468 L 28.7227,-51.2855 L 28.3925,-51.467 L 28.0877,-51.6885
 L 27.8131,-51.9464 L 27.5729,-52.2366 L 27.3711,-52.5547 L 27.2107,-52.8956 L 27.0942,-53.2539 L 27.0237,-53.624
 L 27,-54 L 27.0237,-54.376 L 27.0942,-54.7461 L 27.2107,-55.1044 L 27.3711,-55.4453 L 27.5729,-55.7634
 L 27.8131,-56.0536 L 28.0877,-56.3116 L 28.3925,-56.533 L 28.7227,-56.7145 L 29.0729,-56.8532 L 29.4379,-56.9469
 L 29.8116,-56.9941 L 30.1884,-56.9941 L 30.5621,-56.9469 L 30.927,-56.8532 L 31.2773,-56.7145 L 31.6075,-56.533
 L 31.9123,-56.3116 L 32.1869,-56.0536 L 32.427,-55.7634 L 32.6289,-55.4453 L 32.7893,-55.1044 L 32.9057,-54.7461
 L 32.9763,-54.376 L 33,-54 L 32.9763,-53.624 L 32.9057,-53.2539 L 32.7893,-52.8956 L 32.6289,-52.5547
 L 32.427,-52.2366 L 32.1869,-51.9464 L 31.9123,-51.6885 L 31.6075,-51.467 L 31.2773,-51.2855 L 30.927,-51.1468
 L 30.5621,-51.0531 L 30.1884,-51.0059 z
M 14.8116,-51.0059 L 14.4379,-51.0531 L 14.0729,-51.1468 L 13.7227,-51.2855 L 13.3925,-51.467 L 13.0877,-51.6885
 L 12.8131,-51.9464 L 12.5729,-52.2366 L 12.3711,-52.5547 L 12.2107,-52.8956 L 12.0942,-53.2539 L 12.0237,-53.624
 L 12,-54 L 12.0237,-54.376 L 12.0942,-54.7461 L 12.2107,-55.1044 L 12.3711,-55.4453 L 12.5729,-55.7634
 L 12.8131,-56.0536 L 13.0877,-56.3116 L 13.3925,-56.533 L 13.7227,-56.7145 L 14.0729,-56.8532 L 14.4379,-56.9469
 L 14.8116,-56.9941 L 15.1884,-56.9941 L 15.5621,-56.9469 L 15.927,-56.8532 L 16.2773,-56.7145 L 16.6075,-56.533
 L 16.9123,-56.3116 L 17.1869,-56.0536 L 17.427,-55.7634 L 17.6289,-55.4453 L 17.7893,-55.1044 L 17.9057,-54.7461
 L 17.9763,-54.376 L 18,-54 L 17.9763,-53.624 L 17.9057,-53.2539 L 17.7893,-52.8956 L 17.6289,-52.5547
 L 17.427,-52.2366 L 17.1869,-51.9464 L 16.9123,-51.6885 L 16.6075,-51.467 L 16.2773,-51.2855 L 15.927,-51.1468
 L 15.5621,-51.0531 L 15.1884,-51.0059 z
M -1.58675,-51.2517 L -3.17349,-54 L -1.58675,-56.7483 L 1.58675,-56.7483 L 3.17349,-54 L 1.58675,-51.2517
 z
M 32.9369,36.9114 L 33.5451,36.7553 L 34.1289,36.5241 L 34.6791,36.2216 L 35.1871,35.8526 L 35.6448,35.4227
 L 36.0451,34.9389 L 36.3815,34.4088 L 36.6489,33.8406 L 36.8429,33.2434 L 36.9606,32.6267 L 37,32
 L 37,-32 L 36.9606,-32.6267 L 36.8429,-33.2434 L 36.6489,-33.8406 L 36.3815,-34.4088 L 36.0451,-34.9389
 L 35.6448,-35.4227 L 35.1871,-35.8526 L 34.6791,-36.2216 L 34.1289,-36.5241 L 33.5451,-36.7553 L 32.9369,-36.9114
 L 32.3139,-36.9901 L -32.3139,-36.9901 L -32.9369,-36.9114 L -33.5451,-36.7553 L -34.1289,-36.5241 L -34.6791,-36.2216
 L -35.1871,-35.8526 L -35.6448,-35.4227 L -36.0451,-34.9389 L -36.3815,-34.4088 L -36.6489,-33.8406 L -36.8429,-33.2434
 L -36.9606,-32.6267 L -37,-32 L -37,32 L -36.9606,32.6267 L -36.8429,33.2434 L -36.6489,33.8406
 L -36.3815,34.4088 L -36.0451,34.9389 L -35.6448,35.4227 L -35.1871,35.8526 L -34.6791,36.2216 L -34.1289,36.5241
 L -33.5451,36.7553 L -32.9369,36.9114 L -32.3139,36.9901 L 32.3139,36.9901 z
M 29.8116,-27.0059 L 29.4379,-27.0531 L 29.0729,-27.1468 L 28.7227,-27.2855 L 28.3925,-27.467 L 28.0877,-27.6884
 L 27.8131,-27.9464 L 27.5729,-28.2366 L 27.3711,-28.5547 L 27.2107,-28.8956 L 27.0942,-29.2539 L 27.0237,-29.624
 L 27,-30 L 27.0237,-30.376 L 27.0942,-30.7461 L 27.2107,-31.1044 L 27.3711,-31.4453 L 27.5729,-31.7634
 L 27.8131,-32.0536 L 28.0877,-32.3115 L 28.3925,-32.533 L 28.7227,-32.7145 L 29.0729,-32.8532 L 29.4379,-32.9469
 L 29.8116,-32.9941 L 30.1884,-32.9941 L 30.5621,-32.9469 L 30.927,-32.8532 L 31.2773,-32.7145 L 31.6075,-32.533
 L 31.9123,-32.3115 L 32.1869,-32.0536 L 32.427,-31.7634 L 32.6289,-31.4453 L 32.7893,-31.1044 L 32.9057,-30.7461
 L 32.9763,-30.376 L 33,-30 L 32.9763,-29.624 L 32.9057,-29.2539 L 32.7893,-28.8956 L 32.6289,-28.5547
 L 32.427,-28.2366 L 32.1869,-27.9464 L 31.9123,-27.6884 L 31.6075,-27.467 L 31.2773,-27.2855 L 30.927,-27.1468
 L 30.5621,-27.0531 L 30.1884,-27.0059 z
M -15.1884,-27.0059 L -15.5621,-27.0531 L -15.927,-27.1468 L -16.2773,-27.2855 L -16.6075,-27.467 L -16.9123,-27.6884
 L -17.1869,-27.9464 L -17.427,-28.2366 L -17.6289,-28.5547 L -17.7893,-28.8956 L -17.9057,-29.2539 L -17.9763,-29.624
 L -18,-30 L -17.9763,-30.376 L -17.9057,-30.7461 L -17.7893,-31.1044 L -17.6289,-31.4453 L -17.427,-31.7634
 L -17.1869,-32.0536 L -16.9123,-32.3115 L -16.6075,-32.533 L -16.2773,-32.7145 L -15.927,-32.8532 L -15.5621,-32.9469
 L -15.1884,-32.9941 L -14.8116,-32.9941 L -14.4379,-32.9469 L -14.0729,-32.8532 L -13.7227,-32.7145 L -13.3925,-32.533
 L -13.0877,-32.3115 L -12.8131,-32.0536 L -12.5729,-31.7634 L -12.3711,-31.4453 L -12.2107,-31.1044 L -12.0942,-30.7461
 L -12.0237,-30.376 L -12,-30 L -12.0237,-29.624 L -12.0942,-29.2539 L -12.2107,-28.8956 L -12.3711,-28.5547
 L -12.5729,-28.2366 L -12.8131,-27.9464 L -13.0877,-27.6884 L -13.3925,-27.467 L -13.7227,-27.2855 L -14.0729,-27.1468
 L -14.4379,-27.0531 L -14.8116,-27.0059 z
M -30.1884,-27.0059 L -30.5621,-27.0531 L -30.927,-27.1468 L -31.2773,-27.2855 L -31.6075,-27.467 L -31.9123,-27.6884
 L -32.1869,-27.9464 L -32.427,-28.2366 L -32.6289,-28.5547 L -32.7893,-28.8956 L -32.9057,-29.2539 L -32.9763,-29.624
 L -33,-30 L -32.9763,-30.376 L -32.9057,-30.7461 L -32.7893,-31.1044 L -32.6289,-31.4453 L -32.427,-31.7634
 L -32.1869,-32.0536 L -31.9123,-32.3115 L -31.6075,-32.533 L -31.2773,-32.7145 L -30.927,-32.8532 L -30.5621,-32.9469
 L -30.1884,-32.9941 L -29.8116,-32.9941 L -29.4379,-32.9469 L -29.0729,-32.8532 L -28.7227,-32.7145 L -28.3925,-32.533
 L -28.0877,-32.3115 L -27.8131,-32.0536 L -27.5729,-31.7634 L -27.3711,-31.4453 L -27.2107,-31.1044 L -27.0942,-30.7461
 L -27.0237,-30.376 L -27,-30 L -27.0237,-29.624 L -27.0942,-29.2539 L -27.2107,-28.8956 L -27.3711,-28.5547
 L -27.5729,-28.2366 L -27.8131,-27.9464 L -28.0877,-27.6884 L -28.3925,-27.467 L -28.7227,-27.2855 L -29.0729,-27.1468
 L -29.4379,-27.0531 L -29.8116,-27.0059 z
M 14.8116,-27.0059 L 14.4379,-27.0531 L 14.0729,-27.1468 L 13.7227,-27.2855 L 13.3925,-27.467 L 13.0877,-27.6884
 L 12.8131,-27.9464 L 12.5729,-28.2366 L 12.3711,-28.5547 L 12.2107,-28.8956 L 12.0942,-29.2539 L 12.0237,-29.624
 L 12,-30 L 12.0237,-30.376 L 12.0942,-30.7461 L 12.2107,-31.1044 L 12.3711,-31.4453 L 12.5729,-31.7634
 L 12.8131,-32.0536 L 13.0877,-32.3115 L 13.3925,-32.533 L 13.7227,-32.7145 L 14.0729,-32.8532 L 14.4379,-32.9469
 L 14.8116,-32.9941 L 15.1884,-32.9941 L 15.5621,-32.9469 L 15.927,-32.8532 L 16.2773,-32.7145 L 16.6075,-32.533
 L 16.9123,-32.3115 L 17.1869,-32.0536 L 17.427,-31.7634 L 17.6289,-31.4453 L 17.7893,-31.1044 L 17.9057,-30.7461
 L 17.9763,-30.376 L 18,-30 L 17.9763,-29.624 L 17.9057,-29.2539 L 17.7893,-28.8956 L 17.6289,-28.5547
 L 17.427,-28.2366 L 17.1869,-27.9464 L 16.9123,-27.6884 L 16.6075,-27.467 L 16.2773,-27.2855 L 15.927,-27.1468
 L 15.5621,-27.0531 L 15.1884,-27.0059 z
M -0.144409,-27.7045 L -0.430969,-27.7407 L -0.710724,-27.8126 L -0.979279,-27.9189 L -1.23239,-28.058 L -1.46606,-28.2278
 L -1.67662,-28.4255 L -1.86073,-28.6481 L -2.0155,-28.892 L -2.13847,-29.1533 L -2.22774,-29.428 L -2.28186,-29.7117
 L -2.29999,-30 L -2.28186,-30.2883 L -2.22774,-30.572 L -2.13847,-30.8467 L -2.0155,-31.108 L -1.86073,-31.3519
 L -1.67662,-31.5744 L -1.46606,-31.7722 L -1.23239,-31.9419 L -0.979279,-32.0811 L -0.710724,-32.1874 L -0.430969,-32.2593
 L -0.144409,-32.2955 L 0.144409,-32.2955 L 0.430969,-32.2593 L 0.710724,-32.1874 L 0.979279,-32.0811 L 1.23239,-31.9419
 L 1.46606,-31.7722 L 1.67662,-31.5744 L 1.86073,-31.3519 L 2.0155,-31.108 L 2.13847,-30.8467 L 2.22774,-30.572
 L 2.28186,-30.2883 L 2.29999,-30 L 2.28186,-29.7117 L 2.22774,-29.428 L 2.13847,-29.1533 L 2.0155,-28.892
 L 1.86073,-28.6481 L 1.67662,-28.4255 L 1.46606,-28.2278 L 1.23239,-28.058 L 0.979279,-27.9189 L 0.710724,-27.8126
 L 0.430969,-27.7407 L 0.144409,-27.7045 z
M -1.47557,23.4536 L -4.40346,23.0837 L -7.26189,22.3498 L -10.0058,21.2634 L -12.5919,19.8417 L -14.9795,18.1071
 L -17.1308,16.0869 L -19.0119,13.8129 L -20.5932,11.3212 L -21.8497,8.65092 L -22.7617,5.84421 L -23.3147,2.94533
 L -23.5,-0 L -23.3147,-2.94533 L -22.7617,-5.84421 L -21.8497,-8.65092 L -20.5932,-11.3212 L -19.0119,-13.8129
 L -17.1308,-16.0869 L -14.9795,-18.1071 L -12.5919,-19.8417 L -10.0058,-21.2634 L -7.26189,-22.3498 L -4.40346,-23.0837
 L -1.47557,-23.4536 L 1.47557,-23.4536 L 4.40346,-23.0837 L 7.26189,-22.3498 L 10.0058,-21.2634 L 12.5919,-19.8417
 L 14.9795,-18.1071 L 17.1308,-16.0869 L 19.0119,-13.8129 L 20.5932,-11.3212 L 21.8497,-8.65092 L 22.7617,-5.84421
 L 23.3147,-2.94533 L 23.5,-0 L 23.3147,2.94533 L 22.7617,5.84421 L 21.8497,8.65092 L 20.5932,11.3212
 L 19.0119,13.8129 L 17.1308,16.0869 L 14.9795,18.1071 L 12.5919,19.8417 L 10.0058,21.2634 L 7.26189,22.3498
 L 4.40346,23.0837 L 1.47557,23.4536 z
M 4.21606,22.1015 L 6.95288,21.3988 L 9.58003,20.3586 L 12.0561,18.9974 L 14.342,17.3365 L 16.4018,15.4023
 L 18.2029,13.2252 L 19.7169,10.8394 L 20.92,8.28279 L 21.7931,5.59552 L 22.3226,2.81999 L 22.5,-0
 L 22.3226,-2.81999 L 21.7931,-5.59552 L 20.92,-8.28279 L 19.7169,-10.8394 L 18.2029,-13.2252 L 16.4018,-15.4023
 L 14.342,-17.3365 L 12.0561,-18.9974 L 9.58003,-20.3586 L 6.95288,-21.3988 L 4.21606,-22.1015 L 1.41278,-22.4556
 L -1.41278,-22.4556 L -4.21606,-22.1015 L -6.95288,-21.3988 L -9.58003,-20.3586 L -12.0561,-18.9974 L -14.342,-17.3365
 L -16.4018,-15.4023 L -18.2029,-13.2252 L -19.7169,-10.8394 L -20.92,-8.28279 L -21.7931,-5.59552 L -22.3226,-2.81999
 L -22.5,-0 L -22.3226,2.81999 L -21.7931,5.59552 L -20.92,8.28279 L -19.7169,10.8394 L -18.2029,13.2252
 L -16.4018,15.4023 L -14.342,17.3365 L -12.0561,18.9974 L -9.58003,20.3586 L -6.95288,21.3988 L -4.21606,22.1015
 L -1.41278,22.4556 L 1.41278,22.4556 z
M -0.18837,-12.0059 L -0.562134,-12.0531 L -0.927048,-12.1468 L -1.27733,-12.2855 L -1.60747,-12.467 L -1.91226,-12.6884
 L -2.1869,-12.9464 L -2.42705,-13.2366 L -2.62891,-13.5547 L -2.78932,-13.8956 L -2.90575,-14.2539 L -2.97633,-14.624
 L -3,-15 L -2.97633,-15.376 L -2.90575,-15.7461 L -2.78932,-16.1044 L -2.62891,-16.4453 L -2.42705,-16.7634
 L -2.1869,-17.0536 L -1.91226,-17.3115 L -1.60747,-17.533 L -1.27733,-17.7145 L -0.927048,-17.8532 L -0.562134,-17.9469
 L -0.18837,-17.9941 L 0.18837,-17.9941 L 0.562134,-17.9469 L 0.927048,-17.8532 L 1.27733,-17.7145 L 1.60747,-17.533
 L 1.91226,-17.3115 L 2.1869,-17.0536 L 2.42705,-16.7634 L 2.62891,-16.4453 L 2.78932,-16.1044 L 2.90575,-15.7461
 L 2.97633,-15.376 L 3,-15 L 2.97633,-14.624 L 2.90575,-14.2539 L 2.78932,-13.8956 L 2.62891,-13.5547
 L 2.42705,-13.2366 L 2.1869,-12.9464 L 1.91226,-12.6884 L 1.60747,-12.467 L 1.27733,-12.2855 L 0.927048,-12.1468
 L 0.562134,-12.0531 L 0.18837,-12.0059 z
M -1.58675,-4.75168 L -3.17349,-7.5 L -1.58675,-10.2483 L 1.58675,-10.2483 L 3.17349,-7.5 L 1.58675,-4.75168
 z
M -15.1884,2.99408 L -15.5621,2.94685 L -15.927,2.85316 L -16.2773,2.71448 L -16.6075,2.53297 L -16.9123,2.31154
 L -17.1869,2.05363 L -17.427,1.76335 L -17.6289,1.44525 L -17.7893,1.10437 L -17.9057,0.746063 L -17.9763,0.375992
 L -18,-0 L -17.9763,-0.375992 L -17.9057,-0.746063 L -17.7893,-1.10437 L -17.6289,-1.44525 L -17.427,-1.76335
 L -17.1869,-2.05363 L -16.9123,-2.31154 L -16.6075,-2.53297 L -16.2773,-2.71448 L -15.927,-2.85316 L -15.5621,-2.94685
 L -15.1884,-2.99408 L -14.8116,-2.99408 L -14.4379,-2.94685 L -14.0729,-2.85316 L -13.7227,-2.71448 L -13.3925,-2.53297
 L -13.0877,-2.31154 L -12.8131,-2.05363 L -12.5729,-1.76335 L -12.3711,-1.44525 L -12.2107,-1.10437 L -12.0942,-0.746063
 L -12.0237,-0.375992 L -12,-0 L -12.0237,0.375992 L -12.0942,0.746063 L -12.2107,1.10437 L -12.3711,1.44525
 L -12.5729,1.76335 L -12.8131,2.05363 L -13.0877,2.31154 L -13.3925,2.53297 L -13.7227,2.71448 L -14.0729,2.85316
 L -14.4379,2.94685 L -14.8116,2.99408 z
M -0.18837,2.99408 L -0.562134,2.94685 L -0.927048,2.85316 L -1.27733,2.71448 L -1.60747,2.53297 L -1.91226,2.31154
 L -2.1869,2.05363 L -2.42705,1.76335 L -2.62891,1.44525 L -2.78932,1.10437 L -2.90575,0.746063 L -2.97633,0.375992
 L -3,-0 L -2.97633,-0.375992 L -2.90575,-0.746063 L -2.78932,-1.10437 L -2.62891,-1.44525 L -2.42705,-1.76335
 L -2.1869,-2.05363 L -1.91226,-2.31154 L -1.60747,-2.53297 L -1.27733,-2.71448 L -0.927048,-2.85316 L -0.562134,-2.94685
 L -0.18837,-2.99408 L 0.18837,-2.99408 L 0.562134,-2.94685 L 0.927048,-2.85316 L 1.27733,-2.71448 L 1.60747,-2.53297
 L 1.91226,-2.31154 L 2.1869,-2.05363 L 2.42705,-1.76335 L 2.62891,-1.44525 L 2.78932,-1.10437 L 2.90575,-0.746063
 L 2.97633,-0.375992 L 3,-0 L 2.97633,0.375992 L 2.90575,0.746063 L 2.78932,1.10437 L 2.62891,1.44525
 L 2.42705,1.76335 L 2.1869,2.05363 L 1.91226,2.31154 L 1.60747,2.53297 L 1.27733,2.71448 L 0.927048,2.85316
 L 0.562134,2.94685 L 0.18837,2.99408 z
M 14.8116,2.99408 L 14.4379,2.94685 L 14.0729,2.85316 L 13.7227,2.71448 L 13.3925,2.53297 L 13.0877,2.31154
 L 12.8131,2.05363 L 12.5729,1.76335 L 12.3711,1.44525 L 12.2107,1.10437 L 12.0942,0.746063 L 12.0237,0.375992
 L 12,-0 L 12.0237,-0.375992 L 12.0942,-0.746063 L 12.2107,-1.10437 L 12.3711,-1.44525 L 12.5729,-1.76335
 L 12.8131,-2.05363 L 13.0877,-2.31154 L 13.3925,-2.53297 L 13.7227,-2.71448 L 14.0729,-2.85316 L 14.4379,-2.94685
 L 14.8116,-2.99408 L 15.1884,-2.99408 L 15.5621,-2.94685 L 15.927,-2.85316 L 16.2773,-2.71448 L 16.6075,-2.53297
 L 16.9123,-2.31154 L 17.1869,-2.05363 L 17.427,-1.76335 L 17.6289,-1.44525 L 17.7893,-1.10437 L 17.9057,-0.746063
 L 17.9763,-0.375992 L 18,-0 L 17.9763,0.375992 L 17.9057,0.746063 L 17.7893,1.10437 L 17.6289,1.44525
 L 17.427,1.76335 L 17.1869,2.05363 L 16.9123,2.31154 L 16.6075,2.53297 L 16.2773,2.71448 L 15.927,2.85316
 L 15.5621,2.94685 L 15.1884,2.99408 z
M 7.40581,1.49704 L 7.21892,1.47342 L 7.03647,1.42657 L 6.86133,1.35724 L 6.69626,1.26648 L 6.54385,1.15576
 L 6.40654,1.02681 L 6.28647,0.881668 L 6.18553,0.722626 L 6.10533,0.552185 L 6.04712,0.373032 L 6.01183,0.187988
 L 6,-0 L 6.01183,-0.187988 L 6.04712,-0.373032 L 6.10533,-0.552185 L 6.18553,-0.722626 L 6.28647,-0.881668
 L 6.40654,-1.02681 L 6.54385,-1.15576 L 6.69626,-1.26648 L 6.86133,-1.35724 L 7.03647,-1.42657 L 7.21892,-1.47342
 L 7.40581,-1.49704 L 7.59418,-1.49704 L 7.78107,-1.47342 L 7.96352,-1.42657 L 8.13866,-1.35724 L 8.30373,-1.26648
 L 8.45613,-1.15576 L 8.59344,-1.02681 L 8.71352,-0.881668 L 8.81445,-0.722626 L 8.89465,-0.552185 L 8.95287,-0.373032
 L 8.98816,-0.187988 L 9,-0 L 8.98816,0.187988 L 8.95287,0.373032 L 8.89465,0.552185 L 8.81445,0.722626
 L 8.71352,0.881668 L 8.59344,1.02681 L 8.45613,1.15576 L 8.30373,1.26648 L 8.13866,1.35724 L 7.96352,1.42657
 L 7.78107,1.47342 L 7.59418,1.49704 z
M -7.59418,1.49704 L -7.78107,1.47342 L -7.96352,1.42657 L -8.13866,1.35724 L -8.30373,1.26648 L -8.45613,1.15576
 L -8.59344,1.02681 L -8.71352,0.881668 L -8.81445,0.722626 L -8.89465,0.552185 L -8.95287,0.373032 L -8.98816,0.187988
 L -9,-0 L -8.98816,-0.187988 L -8.95287,-0.373032 L -8.89465,-0.552185 L -8.81445,-0.722626 L -8.71352,-0.881668
 L -8.59344,-1.02681 L -8.45613,-1.15576 L -8.30373,-1.26648 L -8.13866,-1.35724 L -7.96352,-1.42657 L -7.78107,-1.47342
 L -7.59418,-1.49704 L -7.40581,-1.49704 L -7.21892,-1.47342 L -7.03647,-1.42657 L -6.86133,-1.35724 L -6.69626,-1.26648
 L -6.54385,-1.15576 L -6.40654,-1.02681 L -6.28647,-0.881668 L -6.18553,-0.722626 L -6.10533,-0.552185 L -6.04712,-0.373032
 L -6.01183,-0.187988 L -6,-0 L -6.01183,0.187988 L -6.04712,0.373032 L -6.10533,0.552185 L -6.18553,0.722626
 L -6.28647,0.881668 L -6.40654,1.02681 L -6.54385,1.15576 L -6.69626,1.26648 L -6.86133,1.35724 L -7.03647,1.42657
 L -7.21892,1.47342 L -7.40581,1.49704 z
M -0.144409,9.79546 L -0.430969,9.75925 L -0.710724,9.68742 L -0.979279,9.5811 L -1.23239,9.44194 L -1.46606,9.27217
 L -1.67662,9.07445 L -1.86073,8.8519 L -2.0155,8.60803 L -2.13847,8.34668 L -2.22774,8.07198 L -2.28186,7.78825
 L -2.29999,7.5 L -2.28186,7.21173 L -2.22774,6.92801 L -2.13847,6.65331 L -2.0155,6.39195 L -1.86073,6.14809
 L -1.67662,5.92554 L -1.46606,5.72781 L -1.23239,5.55804 L -0.979279,5.41888 L -0.710724,5.31256 L -0.430969,5.24074
 L -0.144409,5.20453 L 0.144409,5.20453 L 0.430969,5.24074 L 0.710724,5.31256 L 0.979279,5.41888 L 1.23239,5.55804
 L 1.46606,5.72781 L 1.67662,5.92554 L 1.86073,6.14809 L 2.0155,6.39195 L 2.13847,6.65331 L 2.22774,6.92801
 L 2.28186,7.21173 L 2.29999,7.5 L 2.28186,7.78825 L 2.22774,8.07198 L 2.13847,8.34668 L 2.0155,8.60803
 L 1.86073,8.8519 L 1.67662,9.07445 L 1.46606,9.27217 L 1.23239,9.44194 L 0.979279,9.5811 L 0.710724,9.68742
 L 0.430969,9.75925 L 0.144409,9.79546 z
M -0.18837,17.9941 L -0.562134,17.9469 L -0.927048,17.8532 L -1.27733,17.7145 L -1.60747,17.533 L -1.91226,17.3115
 L -2.1869,17.0536 L -2.42705,16.7634 L -2.62891,16.4453 L -2.78932,16.1044 L -2.90575,15.7461 L -2.97633,15.376
 L -3,15 L -2.97633,14.624 L -2.90575,14.2539 L -2.78932,13.8956 L -2.62891,13.5547 L -2.42705,13.2366
 L -2.1869,12.9464 L -1.91226,12.6884 L -1.60747,12.467 L -1.27733,12.2855 L -0.927048,12.1468 L -0.562134,12.0531
 L -0.18837,12.0059 L 0.18837,12.0059 L 0.562134,12.0531 L 0.927048,12.1468 L 1.27733,12.2855 L 1.60747,12.467
 L 1.91226,12.6884 L 2.1869,12.9464 L 2.42705,13.2366 L 2.62891,13.5547 L 2.78932,13.8956 L 2.90575,14.2539
 L 2.97633,14.624 L 3,15 L 2.97633,15.376 L 2.90575,15.7461 L 2.78932,16.1044 L 2.62891,16.4453
 L 2.42705,16.7634 L 2.1869,17.0536 L 1.91226,17.3115 L 1.60747,17.533 L 1.27733,17.7145 L 0.927048,17.8532
 L 0.562134,17.9469 L 0.18837,17.9941 z
M 29.8116,-12.0059 L 29.4379,-12.0531 L 29.0729,-12.1468 L 28.7227,-12.2855 L 28.3925,-12.467 L 28.0877,-12.6884
 L 27.8131,-12.9464 L 27.5729,-13.2366 L 27.3711,-13.5547 L 27.2107,-13.8956 L 27.0942,-14.2539 L 27.0237,-14.624
 L 27,-15 L 27.0237,-15.376 L 27.0942,-15.7461 L 27.2107,-16.1044 L 27.3711,-16.4453 L 27.5729,-16.7634
 L 27.8131,-17.0536 L 28.0877,-17.3115 L 28.3925,-17.533 L 28.7227,-17.7145 L 29.0729,-17.8532 L 29.4379,-17.9469
 L 29.8116,-17.9941 L 30.1884,-17.9941 L 30.5621,-17.9469 L 30.927,-17.8532 L 31.2773,-17.7145 L 31.6075,-17.533
 L 31.9123,-17.3115 L 32.1869,-17.0536 L 32.427,-16.7634 L 32.6289,-16.4453 L 32.7893,-16.1044 L 32.9057,-15.7461
 L 32.9763,-15.376 L 33,-15 L 32.9763,-14.624 L 32.9057,-14.2539 L 32.7893,-13.8956 L 32.6289,-13.5547
 L 32.427,-13.2366 L 32.1869,-12.9464 L 31.9123,-12.6884 L 31.6075,-12.467 L 31.2773,-12.2855 L 30.927,-12.1468
 L 30.5621,-12.0531 L 30.1884,-12.0059 z
M -30.1884,-12.0059 L -30.5621,-12.0531 L -30.927,-12.1468 L -31.2773,-12.2855 L -31.6075,-12.467 L -31.9123,-12.6884
 L -32.1869,-12.9464 L -32.427,-13.2366 L -32.6289,-13.5547 L -32.7893,-13.8956 L -32.9057,-14.2539 L -32.9763,-14.624
 L -33,-15 L -32.9763,-15.376 L -32.9057,-15.7461 L -32.7893,-16.1044 L -32.6289,-16.4453 L -32.427,-16.7634
 L -32.1869,-17.0536 L -31.9123,-17.3115 L -31.6075,-17.533 L -31.2773,-17.7145 L -30.927,-17.8532 L -30.5621,-17.9469
 L -30.1884,-17.9941 L -29.8116,-17.9941 L -29.4379,-17.9469 L -29.0729,-17.8532 L -28.7227,-17.7145 L -28.3925,-17.533
 L -28.0877,-17.3115 L -27.8131,-17.0536 L -27.5729,-16.7634 L -27.3711,-16.4453 L -27.2107,-16.1044 L -27.0942,-15.7461
 L -27.0237,-15.376 L -27,-15 L -27.0237,-14.624 L -27.0942,-14.2539 L -27.2107,-13.8956 L -27.3711,-13.5547
 L -27.5729,-13.2366 L -27.8131,-12.9464 L -28.0877,-12.6884 L -28.3925,-12.467 L -28.7227,-12.2855 L -29.0729,-12.1468
 L -29.4379,-12.0531 L -29.8116,-12.0059 z
M -32.7483,1.58675 L -32.7483,-1.58673 L -30,-3.17348 L -27.2517,-1.58675 L -27.2517,1.58673 L -30,3.17348
 z
M 29.6164,2.26778 L 29.3352,2.20183 L 29.0645,2.10115 L 28.8085,1.96733 L 28.5714,1.80249 L 28.3567,1.60922
 L 28.168,1.39056 L 28.0081,1.14999 L 27.8797,0.891281 L 27.7847,0.618515 L 27.7247,0.335983 L 27.7005,0.0481567
 L 27.7126,-0.240402 L 27.7608,-0.525192 L 27.8442,-0.801712 L 27.9617,-1.06557 L 28.1113,-1.31264 L 28.2908,-1.53899
 L 28.4971,-1.74107 L 28.7272,-1.91571 L 28.9773,-2.06013 L 29.2436,-2.17206 L 29.5218,-2.24973 L 29.8075,-2.29193
 L 30.0963,-2.29797 L 30.3836,-2.26778 L 30.6648,-2.20183 L 30.9355,-2.10115 L 31.1915,-1.96733 L 31.4286,-1.80249
 L 31.6433,-1.60922 L 31.832,-1.39056 L 31.9919,-1.14999 L 32.1203,-0.891281 L 32.2153,-0.618515 L 32.2753,-0.335983
 L 32.2995,-0.0481567 L 32.2874,0.240402 L 32.2392,0.525192 L 32.1557,0.801712 L 32.0383,1.06557 L 31.8886,1.31264
 L 31.7092,1.53899 L 31.5029,1.74107 L 31.2728,1.91571 L 31.0227,2.06013 L 30.7564,2.17206 L 30.4782,2.24973
 L 30.1925,2.29193 L 29.9037,2.29797 z
M 29.8116,17.9941 L 29.4379,17.9469 L 29.0729,17.8532 L 28.7227,17.7145 L 28.3925,17.533 L 28.0877,17.3115
 L 27.8131,17.0536 L 27.5729,16.7634 L 27.3711,16.4453 L 27.2107,16.1044 L 27.0942,15.7461 L 27.0237,15.376
 L 27,15 L 27.0237,14.624 L 27.0942,14.2539 L 27.2107,13.8956 L 27.3711,13.5547 L 27.5729,13.2366
 L 27.8131,12.9464 L 28.0877,12.6884 L 28.3925,12.467 L 28.7227,12.2855 L 29.0729,12.1468 L 29.4379,12.0531
 L 29.8116,12.0059 L 30.1884,12.0059 L 30.5621,12.0531 L 30.927,12.1468 L 31.2773,12.2855 L 31.6075,12.467
 L 31.9123,12.6884 L 32.1869,12.9464 L 32.427,13.2366 L 32.6289,13.5547 L 32.7893,13.8956 L 32.9057,14.2539
 L 32.9763,14.624 L 33,15 L 32.9763,15.376 L 32.9057,15.7461 L 32.7893,16.1044 L 32.6289,16.4453
 L 32.427,16.7634 L 32.1869,17.0536 L 31.9123,17.3115 L 31.6075,17.533 L 31.2773,17.7145 L 30.927,17.8532
 L 30.5621,17.9469 L 30.1884,17.9941 z
M -30.1884,17.9941 L -30.5621,17.9469 L -30.927,17.8532 L -31.2773,17.7145 L -31.6075,17.533 L -31.9123,17.3115
 L -32.1869,17.0536 L -32.427,16.7634 L -32.6289,16.4453 L -32.7893,16.1044 L -32.9057,15.7461 L -32.9763,15.376
 L -33,15 L -32.9763,14.624 L -32.9057,14.2539 L -32.7893,13.8956 L -32.6289,13.5547 L -32.427,13.2366
 L -32.1869,12.9464 L -31.9123,12.6884 L -31.6075,12.467 L -31.2773,12.2855 L -30.927,12.1468 L -30.5621,12.0531
 L -30.1884,12.0059 L -29.8116,12.0059 L -29.4379,12.0531 L -29.0729,12.1468 L -28.7227,12.2855 L -28.3925,12.467
 L -28.0877,12.6884 L -27.8131,12.9464 L -27.5729,13.2366 L -27.3711,13.5547 L -27.2107,13.8956 L -27.0942,14.2539
 L -27.0237,14.624 L -27,15 L -27.0237,15.376 L -27.0942,15.7461 L -27.2107,16.1044 L -27.3711,16.4453
 L -27.5729,16.7634 L -27.8131,17.0536 L -28.0877,17.3115 L -28.3925,17.533 L -28.7227,17.7145 L -29.0729,17.8532
 L -29.4379,17.9469 L -29.8116,17.9941 z
M 14.8116,32.9941 L 14.4379,32.9469 L 14.0729,32.8532 L 13.7227,32.7145 L 13.3925,32.533 L 13.0877,32.3115
 L 12.8131,32.0536 L 12.5729,31.7634 L 12.3711,31.4453 L 12.2107,31.1044 L 12.0942,30.7461 L 12.0237,30.376
 L 12,30 L 12.0237,29.624 L 12.0942,29.2539 L 12.2107,28.8956 L 12.3711,28.5547 L 12.5729,28.2366
 L 12.8131,27.9464 L 13.0877,27.6884 L 13.3925,27.467 L 13.7227,27.2855 L 14.0729,27.1468 L 14.4379,27.0531
 L 14.8116,27.0059 L 15.1884,27.0059 L 15.5621,27.0531 L 15.927,27.1468 L 16.2773,27.2855 L 16.6075,27.467
 L 16.9123,27.6884 L 17.1869,27.9464 L 17.427,28.2366 L 17.6289,28.5547 L 17.7893,28.8956 L 17.9057,29.2539
 L 17.9763,29.624 L 18,30 L 17.9763,30.376 L 17.9057,30.7461 L 17.7893,31.1044 L 17.6289,31.4453
 L 17.427,31.7634 L 17.1869,32.0536 L 16.9123,32.3115 L 16.6075,32.533 L 16.2773,32.7145 L 15.927,32.8532
 L 15.5621,32.9469 L 15.1884,32.9941 z
M 29.8116,32.9941 L 29.4379,32.9469 L 29.0729,32.8532 L 28.7227,32.7145 L 28.3925,32.533 L 28.0877,32.3115
 L 27.8131,32.0536 L 27.5729,31.7634 L 27.3711,31.4453 L 27.2107,31.1044 L 27.0942,30.7461 L 27.0237,30.376
 L 27,30 L 27.0237,29.624 L 27.0942,29.2539 L 27.2107,28.8956 L 27.3711,28.5547 L 27.5729,28.2366
 L 27.8131,27.9464 L 28.0877,27.6884 L 28.3925,27.467 L 28.7227,27.2855 L 29.0729,27.1468 L 29.4379,27.0531
 L 29.8116,27.0059 L 30.1884,27.0059 L 30.5621,27.0531 L 30.927,27.1468 L 31.2773,27.2855 L 31.6075,27.467
 L 31.9123,27.6884 L 32.1869,27.9464 L 32.427,28.2366 L 32.6289,28.5547 L 32.7893,28.8956 L 32.9057,29.2539
 L 32.9763,29.624 L 33,30 L 32.9763,30.376 L 32.9057,30.7461 L 32.7893,31.1044 L 32.6289,31.4453
 L 32.427,31.7634 L 32.1869,32.0536 L 31.9123,32.3115 L 31.6075,32.533 L 31.2773,32.7145 L 30.927,32.8532
 L 30.5621,32.9469 L 30.1884,32.9941 z
M -30.1884,32.9941 L -30.5621,32.9469 L -30.927,32.8532 L -31.2773,32.7145 L -31.6075,32.533 L -31.9123,32.3115
 L -32.1869,32.0536 L -32.427,31.7634 L -32.6289,31.4453 L -32.7893,31.1044 L -32.9057,30.7461 L -32.9763,30.376
 L -33,30 L -32.9763,29.624 L -32.9057,29.2539 L -32.7893,28.8956 L -32.6289,28.5547 L -32.427,28.2366
 L -32.1869,27.9464 L -31.9123,27.6884 L -31.6075,27.467 L -31.2773,27.2855 L -30.927,27.1468 L -30.5621,27.0531
 L -30.1884,27.0059 L -29.8116,27.0059 L -29.4379,27.0531 L -29.0729,27.1468 L -28.7227,27.2855 L -28.3925,27.467
 L -28.0877,27.6884 L -27.8131,27.9464 L -27.5729,28.2366 L -27.3711,28.5547 L -27.2107,28.8956 L -27.0942,29.2539
 L -27.0237,29.624 L -27,30 L -27.0237,30.376 L -27.0942,30.7461 L -27.2107,31.1044 L -27.3711,31.4453
 L -27.5729,31.7634 L -27.8131,32.0536 L -28.0877,32.3115 L -28.3925,32.533 L -28.7227,32.7145 L -29.0729,32.8532
 L -29.4379,32.9469 L -29.8116,32.9941 z
M -15.1884,32.9941 L -15.5621,32.9469 L -15.927,32.8532 L -16.2773,32.7145 L -16.6075,32.533 L -16.9123,32.3115
 L -17.1869,32.0536 L -17.427,31.7634 L -17.6289,31.4453 L -17.7893,31.1044 L -17.9057,30.7461 L -17.9763,30.376
 L -18,30 L -17.9763,29.624 L -17.9057,29.2539 L -17.7893,28.8956 L -17.6289,28.5547 L -17.427,28.2366
 L -17.1869,27.9464 L -16.9123,27.6884 L -16.6075,27.467 L -16.2773,27.2855 L -15.927,27.1468 L -15.5621,27.0531
 L -15.1884,27.0059 L -14.8116,27.0059 L -14.4379,27.0531 L -14.0729,27.1468 L -13.7227,27.2855 L -13.3925,27.467
 L -13.0877,27.6884 L -12.8131,27.9464 L -12.5729,28.2366 L -12.3711,28.5547 L -12.2107,28.8956 L -12.0942,29.2539
 L -12.0237,29.624 L -12,30 L -12.0237,30.376 L -12.0942,30.7461 L -12.2107,31.1044 L -12.3711,31.4453
 L -12.5729,31.7634 L -12.8131,32.0536 L -13.0877,32.3115 L -13.3925,32.533 L -13.7227,32.7145 L -14.0729,32.8532
 L -14.4379,32.9469 L -14.8116,32.9941 z
M -1.58675,32.7483 L -3.17349,30 L -1.58675,27.2517 L 1.58675,27.2517 L 3.17349,30 L 1.58675,32.7483
 z
" stroke="black" fill="lightgray" stroke-width="0.5"/>
</svg>
