  0
SECTION
  2
BLOCKS
  0
ENDSEC
  0
SECTION
  2
ENTITIES
  0
LINE
  8
0
 10
32.9369
 20
-36.9114
 11
33.5451
 21
-36.7553
  0
LINE
  8
0
 10
33.5451
 20
-36.7553
 11
34.1289
 21
-36.5241
  0
LINE
  8
0
 10
34.1289
 20
-36.5241
 11
34.6791
 21
-36.2216
  0
LINE
  8
0
 10
34.6791
 20
-36.2216
 11
35.1871
 21
-35.8526
  0
LINE
  8
0
 10
35.1871
 20
-35.8526
 11
35.6448
 21
-35.4227
  0
LINE
  8
0
 10
35.6448
 20
-35.4227
 11
36.0451
 21
-34.9389
  0
LINE
  8
0
 10
36.0451
 20
-34.9389
 11
36.3815
 21
-34.4088
  0
LINE
  8
0
 10
36.3815
 20
-34.4088
 11
36.6489
 21
-33.8406
  0
LINE
  8
0
 10
36.6489
 20
-33.8406
 11
36.8429
 21
-33.2434
  0
LINE
  8
0
 10
36.8429
 20
-33.2434
 11
36.9606
 21
-32.6267
  0
LINE
  8
0
 10
36.9606
 20
-32.6267
 11
37
 21
-32
  0
LINE
  8
0
 10
37
 20
-32
 11
37
 21
32
  0
LINE
  8
0
 10
37
 20
32
 11
36.9606
 21
32.6267
  0
LINE
  8
0
 10
36.9606
 20
32.6267
 11
36.8429
 21
33.2434
  0
LINE
  8
0
 10
36.8429
 20
33.2434
 11
36.6489
 21
33.8406
  0
LINE
  8
0
 10
36.6489
 20
33.8406
 11
36.3815
 21
34.4088
  0
LINE
  8
0
 10
36.3815
 20
34.4088
 11
36.0451
 21
34.9389
  0
LINE
  8
0
 10
36.0451
 20
34.9389
 11
35.6448
 21
35.4227
  0
LINE
  8
0
 10
35.6448
 20
35.4227
 11
35.1871
 21
35.8526
  0
LINE
  8
0
 10
35.1871
 20
35.8526
 11
34.6791
 21
36.2216
  0
LINE
  8
0
 10
34.6791
 20
36.2216
 11
34.1289
 21
36.5241
  0
LINE
  8
0
 10
34.1289
 20
36.5241
 11
33.5451
 21
36.7553
  0
LINE
  8
0
 10
33.5451
 20
36.7553
 11
32.9369
 21
36.9114
  0
LINE
  8
0
 10
32.9369
 20
36.9114
 11
32.3139
 21
36.9901
  0
LINE
  8
0
 10
32.3139
 20
36.9901
 11
-32.3139
 21
36.9901
  0
LINE
  8
0
 10
-32.3139
 20
36.9901
 11
-32.9369
 21
36.9114
  0
LINE
  8
0
 10
-32.9369
 20
36.9114
 11
-33.5451
 21
36.7553
  0
LINE
  8
0
 10
-33.5451
 20
36.7553
 11
-34.1289
 21
36.5241
  0
LINE
  8
0
 10
-34.1289
 20
36.5241
 11
-34.6791
 21
36.2216
  0
LINE
  8
0
 10
-34.6791
 20
36.2216
 11
-35.1871
 21
35.8526
  0
LINE
  8
0
 10
-35.1871
 20
35.8526
 11
-35.6448
 21
35.4227
  0
LINE
  8
0
 10
-35.6448
 20
35.4227
 11
-36.0451
 21
34.9389
  0
LINE
  8
0
 10
-36.0451
 20
34.9389
 11
-36.3815
 21
34.4088
  0
LINE
  8
0
 10
-36.3815
 20
34.4088
 11
-36.6489
 21
33.8406
  0
LINE
  8
0
 10
-36.6489
 20
33.8406
 11
-36.8429
 21
33.2434
  0
LINE
  8
0
 10
-36.8429
 20
33.2434
 11
-36.9606
 21
32.6267
  0
LINE
  8
0
 10
-36.9606
 20
32.6267
 11
-37
 21
32
  0
LINE
  8
0
 10
-37
 20
32
 11
-37
 21
-32
  0
LINE
  8
0
 10
-37
 20
-32
 11
-36.9606
 21
-32.6267
  0
LINE
  8
0
 10
-36.9606
 20
-32.6267
 11
-36.8429
 21
-33.2434
  0
LINE
  8
0
 10
-36.8429
 20
-33.2434
 11
-36.6489
 21
-33.8406
  0
LINE
  8
0
 10
-36.6489
 20
-33.8406
 11
-36.3815
 21
-34.4088
  0
LINE
  8
0
 10
-36.3815
 20
-34.4088
 11
-36.0451
 21
-34.9389
  0
LINE
  8
0
 10
-36.0451
 20
-34.9389
 11
-35.6448
 21
-35.4227
  0
LINE
  8
0
 10
-35.6448
 20
-35.4227
 11
-35.1871
 21
-35.8526
  0
LINE
  8
0
 10
-35.1871
 20
-35.8526
 11
-34.6791
 21
-36.2216
  0
LINE
  8
0
 10
-34.6791
 20
-36.2216
 11
-34.1289
 21
-36.5241
  0
LINE
  8
0
 10
-34.1289
 20
-36.5241
 11
-33.5451
 21
-36.7553
  0
LINE
  8
0
 10
-33.5451
 20
-36.7553
 11
-32.9369
 21
-36.9114
  0
LINE
  8
0
 10
-32.9369
 20
-36.9114
 11
-32.3139
 21
-36.9901
  0
LINE
  8
0
 10
-32.3139
 20
-36.9901
 11
32.3139
 21
-36.9901
  0
LINE
  8
0
 10
32.3139
 20
-36.9901
 11
32.9369
 21
-36.9114
  0
LINE
  8
0
 10
-30.1884
 20
27.0059
 11
-30.5621
 21
27.0531
  0
LINE
  8
0
 10
-30.5621
 20
27.0531
 11
-30.927
 21
27.1468
  0
LINE
  8
0
 10
-30.927
 20
27.1468
 11
-31.2773
 21
27.2855
  0
LINE
  8
0
 10
-31.2773
 20
27.2855
 11
-31.6075
 21
27.467
  0
LINE
  8
0
 10
-31.6075
 20
27.467
 11
-31.9123
 21
27.6884
  0
LINE
  8
0
 10
-31.9123
 20
27.6884
 11
-32.1869
 21
27.9464
  0
LINE
  8
0
 10
-32.1869
 20
27.9464
 11
-32.427
 21
28.2366
  0
LINE
  8
0
 10
-32.427
 20
28.2366
 11
-32.6289
 21
28.5547
  0
LINE
  8
0
 10
-32.6289
 20
28.5547
 11
-32.7893
 21
28.8956
  0
LINE
  8
0
 10
-32.7893
 20
28.8956
 11
-32.9057
 21
29.2539
  0
LINE
  8
0
 10
-32.9057
 20
29.2539
 11
-32.9763
 21
29.624
  0
LINE
  8
0
 10
-32.9763
 20
29.624
 11
-33
 21
30
  0
LINE
  8
0
 10
-33
 20
30
 11
-32.9763
 21
30.376
  0
LINE
  8
0
 10
-32.9763
 20
30.376
 11
-32.9057
 21
30.7461
  0
LINE
  8
0
 10
-32.9057
 20
30.7461
 11
-32.7893
 21
31.1044
  0
LINE
  8
0
 10
-32.7893
 20
31.1044
 11
-32.6289
 21
31.4453
  0
LINE
  8
0
 10
-32.6289
 20
31.4453
 11
-32.427
 21
31.7634
  0
LINE
  8
0
 10
-32.427
 20
31.7634
 11
-32.1869
 21
32.0536
  0
LINE
  8
0
 10
-32.1869
 20
32.0536
 11
-31.9123
 21
32.3115
  0
LINE
  8
0
 10
-31.9123
 20
32.3115
 11
-31.6075
 21
32.533
  0
LINE
  8
0
 10
-31.6075
 20
32.533
 11
-31.2773
 21
32.7145
  0
LINE
  8
0
 10
-31.2773
 20
32.7145
 11
-30.927
 21
32.8532
  0
LINE
  8
0
 10
-30.927
 20
32.8532
 11
-30.5621
 21
32.9469
  0
LINE
  8
0
 10
-30.5621
 20
32.9469
 11
-30.1884
 21
32.9941
  0
LINE
  8
0
 10
-30.1884
 20
32.9941
 11
-29.8116
 21
32.9941
  0
LINE
  8
0
 10
-29.8116
 20
32.9941
 11
-29.4379
 21
32.9469
  0
LINE
  8
0
 10
-29.4379
 20
32.9469
 11
-29.0729
 21
32.8532
  0
LINE
  8
0
 10
-29.0729
 20
32.8532
 11
-28.7227
 21
32.7145
  0
LINE
  8
0
 10
-28.7227
 20
32.7145
 11
-28.3925
 21
32.533
  0
LINE
  8
0
 10
-28.3925
 20
32.533
 11
-28.0877
 21
32.3115
  0
LINE
  8
0
 10
-28.0877
 20
32.3115
 11
-27.8131
 21
32.0536
  0
LINE
  8
0
 10
-27.8131
 20
32.0536
 11
-27.5729
 21
31.7634
  0
LINE
  8
0
 10
-27.5729
 20
31.7634
 11
-27.3711
 21
31.4453
  0
LINE
  8
0
 10
-27.3711
 20
31.4453
 11
-27.2107
 21
31.1044
  0
LINE
  8
0
 10
-27.2107
 20
31.1044
 11
-27.0942
 21
30.7461
  0
LINE
  8
0
 10
-27.0942
 20
30.7461
 11
-27.0237
 21
30.376
  0
LINE
  8
0
 10
-27.0237
 20
30.376
 11
-27
 21
30
  0
LINE
  8
0
 10
-27
 20
30
 11
-27.0237
 21
29.624
  0
LINE
  8
0
 10
-27.0237
 20
29.624
 11
-27.0942
 21
29.2539
  0
LINE
  8
0
 10
-27.0942
 20
29.2539
 11
-27.2107
 21
28.8956
  0
LINE
  8
0
 10
-27.2107
 20
28.8956
 11
-27.3711
 21
28.5547
  0
LINE
  8
0
 10
-27.3711
 20
28.5547
 11
-27.5729
 21
28.2366
  0
LINE
  8
0
 10
-27.5729
 20
28.2366
 11
-27.8131
 21
27.9464
  0
LINE
  8
0
 10
-27.8131
 20
27.9464
 11
-28.0877
 21
27.6884
  0
LINE
  8
0
 10
-28.0877
 20
27.6884
 11
-28.3925
 21
27.467
  0
LINE
  8
0
 10
-28.3925
 20
27.467
 11
-28.7227
 21
27.2855
  0
LINE
  8
0
 10
-28.7227
 20
27.2855
 11
-29.0729
 21
27.1468
  0
LINE
  8
0
 10
-29.0729
 20
27.1468
 11
-29.4379
 21
27.0531
  0
LINE
  8
0
 10
-29.4379
 20
27.0531
 11
-29.8116
 21
27.0059
  0
LINE
  8
0
 10
-29.8116
 20
27.0059
 11
-30.1884
 21
27.0059
  0
LINE
  8
0
 10
14.8116
 20
27.0059
 11
14.4379
 21
27.0531
  0
LINE
  8
0
 10
14.4379
 20
27.0531
 11
14.0729
 21
27.1468
  0
LINE
  8
0
 10
14.0729
 20
27.1468
 11
13.7227
 21
27.2855
  0
LINE
  8
0
 10
13.7227
 20
27.2855
 11
13.3925
 21
27.467
  0
LINE
  8
0
 10
13.3925
 20
27.467
 11
13.0877
 21
27.6884
  0
LINE
  8
0
 10
13.0877
 20
27.6884
 11
12.8131
 21
27.9464
  0
LINE
  8
0
 10
12.8131
 20
27.9464
 11
12.5729
 21
28.2366
  0
LINE
  8
0
 10
12.5729
 20
28.2366
 11
12.3711
 21
28.5547
  0
LINE
  8
0
 10
12.3711
 20
28.5547
 11
12.2107
 21
28.8956
  0
LINE
  8
0
 10
12.2107
 20
28.8956
 11
12.0942
 21
29.2539
  0
LINE
  8
0
 10
12.0942
 20
29.2539
 11
12.0237
 21
29.624
  0
LINE
  8
0
 10
12.0237
 20
29.624
 11
12
 21
30
  0
LINE
  8
0
 10
12
 20
30
 11
12.0237
 21
30.376
  0
LINE
  8
0
 10
12.0237
 20
30.376
 11
12.0942
 21
30.7461
  0
LINE
  8
0
 10
12.0942
 20
30.7461
 11
12.2107
 21
31.1044
  0
LINE
  8
0
 10
12.2107
 20
31.1044
 11
12.3711
 21
31.4453
  0
LINE
  8
0
 10
12.3711
 20
31.4453
 11
12.5729
 21
31.7634
  0
LINE
  8
0
 10
12.5729
 20
31.7634
 11
12.8131
 21
32.0536
  0
LINE
  8
0
 10
12.8131
 20
32.0536
 11
13.0877
 21
32.3115
  0
LINE
  8
0
 10
13.0877
 20
32.3115
 11
13.3925
 21
32.533
  0
LINE
  8
0
 10
13.3925
 20
32.533
 11
13.7227
 21
32.7145
  0
LINE
  8
0
 10
13.7227
 20
32.7145
 11
14.0729
 21
32.8532
  0
LINE
  8
0
 10
14.0729
 20
32.8532
 11
14.4379
 21
32.9469
  0
LINE
  8
0
 10
14.4379
 20
32.9469
 11
14.8116
 21
32.9941
  0
LINE
  8
0
 10
14.8116
 20
32.9941
 11
15.1884
 21
32.9941
  0
LINE
  8
0
 10
15.1884
 20
32.9941
 11
15.5621
 21
32.9469
  0
LINE
  8
0
 10
15.5621
 20
32.9469
 11
15.927
 21
32.8532
  0
LINE
  8
0
 10
15.927
 20
32.8532
 11
16.2773
 21
32.7145
  0
LINE
  8
0
 10
16.2773
 20
32.7145
 11
16.6075
 21
32.533
  0
LINE
  8
0
 10
16.6075
 20
32.533
 11
16.9123
 21
32.3115
  0
LINE
  8
0
 10
16.9123
 20
32.3115
 11
17.1869
 21
32.0536
  0
LINE
  8
0
 10
17.1869
 20
32.0536
 11
17.427
 21
31.7634
  0
LINE
  8
0
 10
17.427
 20
31.7634
 11
17.6289
 21
31.4453
  0
LINE
  8
0
 10
17.6289
 20
31.4453
 11
17.7893
 21
31.1044
  0
LINE
  8
0
 10
17.7893
 20
31.1044
 11
17.9057
 21
30.7461
  0
LINE
  8
0
 10
17.9057
 20
30.7461
 11
17.9763
 21
30.376
  0
LINE
  8
0
 10
17.9763
 20
30.376
 11
18
 21
30
  0
LINE
  8
0
 10
18
 20
30
 11
17.9763
 21
29.624
  0
LINE
  8
0
 10
17.9763
 20
29.624
 11
17.9057
 21
29.2539
  0
LINE
  8
0
 10
17.9057
 20
29.2539
 11
17.7893
 21
28.8956
  0
LINE
  8
0
 10
17.7893
 20
28.8956
 11
17.6289
 21
28.5547
  0
LINE
  8
0
 10
17.6289
 20
28.5547
 11
17.427
 21
28.2366
  0
LINE
  8
0
 10
17.427
 20
28.2366
 11
17.1869
 21
27.9464
  0
LINE
  8
0
 10
17.1869
 20
27.9464
 11
16.9123
 21
27.6884
  0
LINE
  8
0
 10
16.9123
 20
27.6884
 11
16.6075
 21
27.467
  0
LINE
  8
0
 10
16.6075
 20
27.467
 11
16.2773
 21
27.2855
  0
LINE
  8
0
 10
16.2773
 20
27.2855
 11
15.927
 21
27.1468
  0
LINE
  8
0
 10
15.927
 20
27.1468
 11
15.5621
 21
27.0531
  0
LINE
  8
0
 10
15.5621
 20
27.0531
 11
15.1884
 21
27.0059
  0
LINE
  8
0
 10
15.1884
 20
27.0059
 11
14.8116
 21
27.0059
  0
LINE
  8
0
 10
29.8116
 20
27.0059
 11
29.4379
 21
27.0531
  0
LINE
  8
0
 10
29.4379
 20
27.0531
 11
29.0729
 21
27.1468
  0
LINE
  8
0
 10
29.0729
 20
27.1468
 11
28.7227
 21
27.2855
  0
LINE
  8
0
 10
28.7227
 20
27.2855
 11
28.3925
 21
27.467
  0
LINE
  8
0
 10
28.3925
 20
27.467
 11
28.0877
 21
27.6884
  0
LINE
  8
0
 10
28.0877
 20
27.6884
 11
27.8131
 21
27.9464
  0
LINE
  8
0
 10
27.8131
 20
27.9464
 11
27.5729
 21
28.2366
  0
LINE
  8
0
 10
27.5729
 20
28.2366
 11
27.3711
 21
28.5547
  0
LINE
  8
0
 10
27.3711
 20
28.5547
 11
27.2107
 21
28.8956
  0
LINE
  8
0
 10
27.2107
 20
28.8956
 11
27.0942
 21
29.2539
  0
LINE
  8
0
 10
27.0942
 20
29.2539
 11
27.0237
 21
29.624
  0
LINE
  8
0
 10
27.0237
 20
29.624
 11
27
 21
30
  0
LINE
  8
0
 10
27
 20
30
 11
27.0237
 21
30.376
  0
LINE
  8
0
 10
27.0237
 20
30.376
 11
27.0942
 21
30.7461
  0
LINE
  8
0
 10
27.0942
 20
30.7461
 11
27.2107
 21
31.1044
  0
LINE
  8
0
 10
27.2107
 20
31.1044
 11
27.3711
 21
31.4453
  0
LINE
  8
0
 10
27.3711
 20
31.4453
 11
27.5729
 21
31.7634
  0
LINE
  8
0
 10
27.5729
 20
31.7634
 11
27.8131
 21
32.0536
  0
LINE
  8
0
 10
27.8131
 20
32.0536
 11
28.0877
 21
32.3115
  0
LINE
  8
0
 10
28.0877
 20
32.3115
 11
28.3925
 21
32.533
  0
LINE
  8
0
 10
28.3925
 20
32.533
 11
28.7227
 21
32.7145
  0
LINE
  8
0
 10
28.7227
 20
32.7145
 11
29.0729
 21
32.8532
  0
LINE
  8
0
 10
29.0729
 20
32.8532
 11
29.4379
 21
32.9469
  0
LINE
  8
0
 10
29.4379
 20
32.9469
 11
29.8116
 21
32.9941
  0
LINE
  8
0
 10
29.8116
 20
32.9941
 11
30.1884
 21
32.9941
  0
LINE
  8
0
 10
30.1884
 20
32.9941
 11
30.5621
 21
32.9469
  0
LINE
  8
0
 10
30.5621
 20
32.9469
 11
30.927
 21
32.8532
  0
LINE
  8
0
 10
30.927
 20
32.8532
 11
31.2773
 21
32.7145
  0
LINE
  8
0
 10
31.2773
 20
32.7145
 11
31.6075
 21
32.533
  0
LINE
  8
0
 10
31.6075
 20
32.533
 11
31.9123
 21
32.3115
  0
LINE
  8
0
 10
31.9123
 20
32.3115
 11
32.1869
 21
32.0536
  0
LINE
  8
0
 10
32.1869
 20
32.0536
 11
32.427
 21
31.7634
  0
LINE
  8
0
 10
32.427
 20
31.7634
 11
32.6289
 21
31.4453
  0
LINE
  8
0
 10
32.6289
 20
31.4453
 11
32.7893
 21
31.1044
  0
LINE
  8
0
 10
32.7893
 20
31.1044
 11
32.9057
 21
30.7461
  0
LINE
  8
0
 10
32.9057
 20
30.7461
 11
32.9763
 21
30.376
  0
LINE
  8
0
 10
32.9763
 20
30.376
 11
33
 21
30
  0
LINE
  8
0
 10
33
 20
30
 11
32.9763
 21
29.624
  0
LINE
  8
0
 10
32.9763
 20
29.624
 11
32.9057
 21
29.2539
  0
LINE
  8
0
 10
32.9057
 20
29.2539
 11
32.7893
 21
28.8956
  0
LINE
  8
0
 10
32.7893
 20
28.8956
 11
32.6289
 21
28.5547
  0
LINE
  8
0
 10
32.6289
 20
28.5547
 11
32.427
 21
28.2366
  0
LINE
  8
0
 10
32.427
 20
28.2366
 11
32.1869
 21
27.9464
  0
LINE
  8
0
 10
32.1869
 20
27.9464
 11
31.9123
 21
27.6884
  0
LINE
  8
0
 10
31.9123
 20
27.6884
 11
31.6075
 21
27.467
  0
LINE
  8
0
 10
31.6075
 20
27.467
 11
31.2773
 21
27.2855
  0
LINE
  8
0
 10
31.2773
 20
27.2855
 11
30.927
 21
27.1468
  0
LINE
  8
0
 10
30.927
 20
27.1468
 11
30.5621
 21
27.0531
  0
LINE
  8
0
 10
30.5621
 20
27.0531
 11
30.1884
 21
27.0059
  0
LINE
  8
0
 10
30.1884
 20
27.0059
 11
29.8116
 21
27.0059
  0
LINE
  8
0
 10
-15.1884
 20
27.0059
 11
-15.5621
 21
27.0531
  0
LINE
  8
0
 10
-15.5621
 20
27.0531
 11
-15.927
 21
27.1468
  0
LINE
  8
0
 10
-15.927
 20
27.1468
 11
-16.2773
 21
27.2855
  0
LINE
  8
0
 10
-16.2773
 20
27.2855
 11
-16.6075
 21
27.467
  0
LINE
  8
0
 10
-16.6075
 20
27.467
 11
-16.9123
 21
27.6884
  0
LINE
  8
0
 10
-16.9123
 20
27.6884
 11
-17.1869
 21
27.9464
  0
LINE
  8
0
 10
-17.1869
 20
27.9464
 11
-17.427
 21
28.2366
  0
LINE
  8
0
 10
-17.427
 20
28.2366
 11
-17.6289
 21
28.5547
  0
LINE
  8
0
 10
-17.6289
 20
28.5547
 11
-17.7893
 21
28.8956
  0
LINE
  8
0
 10
-17.7893
 20
28.8956
 11
-17.9057
 21
29.2539
  0
LINE
  8
0
 10
-17.9057
 20
29.2539
 11
-17.9763
 21
29.624
  0
LINE
  8
0
 10
-17.9763
 20
29.624
 11
-18
 21
30
  0
LINE
  8
0
 10
-18
 20
30
 11
-17.9763
 21
30.376
  0
LINE
  8
0
 10
-17.9763
 20
30.376
 11
-17.9057
 21
30.7461
  0
LINE
  8
0
 10
-17.9057
 20
30.7461
 11
-17.7893
 21
31.1044
  0
LINE
  8
0
 10
-17.7893
 20
31.1044
 11
-17.6289
 21
31.4453
  0
LINE
  8
0
 10
-17.6289
 20
31.4453
 11
-17.427
 21
31.7634
  0
LINE
  8
0
 10
-17.427
 20
31.7634
 11
-17.1869
 21
32.0536
  0
LINE
  8
0
 10
-17.1869
 20
32.0536
 11
-16.9123
 21
32.3115
  0
LINE
  8
0
 10
-16.9123
 20
32.3115
 11
-16.6075
 21
32.533
  0
LINE
  8
0
 10
-16.6075
 20
32.533
 11
-16.2773
 21
32.7145
  0
LINE
  8
0
 10
-16.2773
 20
32.7145
 11
-15.927
 21
32.8532
  0
LINE
  8
0
 10
-15.927
 20
32.8532
 11
-15.5621
 21
32.9469
  0
LINE
  8
0
 10
-15.5621
 20
32.9469
 11
-15.1884
 21
32.9941
  0
LINE
  8
0
 10
-15.1884
 20
32.9941
 11
-14.8116
 21
32.9941
  0
LINE
  8
0
 10
-14.8116
 20
32.9941
 11
-14.4379
 21
32.9469
  0
LINE
  8
0
 10
-14.4379
 20
32.9469
 11
-14.0729
 21
32.8532
  0
LINE
  8
0
 10
-14.0729
 20
32.8532
 11
-13.7227
 21
32.7145
  0
LINE
  8
0
 10
-13.7227
 20
32.7145
 11
-13.3925
 21
32.533
  0
LINE
  8
0
 10
-13.3925
 20
32.533
 11
-13.0877
 21
32.3115
  0
LINE
  8
0
 10
-13.0877
 20
32.3115
 11
-12.8131
 21
32.0536
  0
LINE
  8
0
 10
-12.8131
 20
32.0536
 11
-12.5729
 21
31.7634
  0
LINE
  8
0
 10
-12.5729
 20
31.7634
 11
-12.3711
 21
31.4453
  0
LINE
  8
0
 10
-12.3711
 20
31.4453
 11
-12.2107
 21
31.1044
  0
LINE
  8
0
 10
-12.2107
 20
31.1044
 11
-12.0942
 21
30.7461
  0
LINE
  8
0
 10
-12.0942
 20
30.7461
 11
-12.0237
 21
30.376
  0
LINE
  8
0
 10
-12.0237
 20
30.376
 11
-12
 21
30
  0
LINE
  8
0
 10
-12
 20
30
 11
-12.0237
 21
29.624
  0
LINE
  8
0
 10
-12.0237
 20
29.624
 11
-12.0942
 21
29.2539
  0
LINE
  8
0
 10
-12.0942
 20
29.2539
 11
-12.2107
 21
28.8956
  0
LINE
  8
0
 10
-12.2107
 20
28.8956
 11
-12.3711
 21
28.5547
  0
LINE
  8
0
 10
-12.3711
 20
28.5547
 11
-12.5729
 21
28.2366
  0
LINE
  8
0
 10
-12.5729
 20
28.2366
 11
-12.8131
 21
27.9464
  0
LINE
  8
0
 10
-12.8131
 20
27.9464
 11
-13.0877
 21
27.6884
  0
LINE
  8
0
 10
-13.0877
 20
27.6884
 11
-13.3925
 21
27.467
  0
LINE
  8
0
 10
-13.3925
 20
27.467
 11
-13.7227
 21
27.2855
  0
LINE
  8
0
 10
-13.7227
 20
27.2855
 11
-14.0729
 21
27.1468
  0
LINE
  8
0
 10
-14.0729
 20
27.1468
 11
-14.4379
 21
27.0531
  0
LINE
  8
0
 10
-14.4379
 20
27.0531
 11
-14.8116
 21
27.0059
  0
LINE
  8
0
 10
-14.8116
 20
27.0059
 11
-15.1884
 21
27.0059
  0
LINE
  8
0
 10
-0.0941772
 20
28.503
 11
-0.281067
 21
28.5266
  0
LINE
  8
0
 10
-0.281067
 20
28.5266
 11
-0.463516
 21
28.5734
  0
LINE
  8
0
 10
-0.463516
 20
28.5734
 11
-0.638657
 21
28.6427
  0
LINE
  8
0
 10
-0.638657
 20
28.6427
 11
-0.803726
 21
28.7335
  0
LINE
  8
0
 10
-0.803726
 20
28.7335
 11
-0.956131
 21
28.8442
  0
LINE
  8
0
 10
-0.956131
 20
28.8442
 11
-1.09344
 21
28.9732
  0
LINE
  8
0
 10
-1.09344
 20
28.9732
 11
-1.21352
 21
29.1183
  0
LINE
  8
0
 10
-1.21352
 20
29.1183
 11
-1.31445
 21
29.2774
  0
LINE
  8
0
 10
-1.31445
 20
29.2774
 11
-1.39465
 21
29.4478
  0
LINE
  8
0
 10
-1.39465
 20
29.4478
 11
-1.45287
 21
29.627
  0
LINE
  8
0
 10
-1.45287
 20
29.627
 11
-1.48816
 21
29.812
  0
LINE
  8
0
 10
-1.48816
 20
29.812
 11
-1.5
 21
30
  0
LINE
  8
0
 10
-1.5
 20
30
 11
-1.48816
 21
30.188
  0
LINE
  8
0
 10
-1.48816
 20
30.188
 11
-1.45287
 21
30.373
  0
LINE
  8
0
 10
-1.45287
 20
30.373
 11
-1.39465
 21
30.5522
  0
LINE
  8
0
 10
-1.39465
 20
30.5522
 11
-1.31445
 21
30.7226
  0
LINE
  8
0
 10
-1.31445
 20
30.7226
 11
-1.21352
 21
30.8817
  0
LINE
  8
0
 10
-1.21352
 20
30.8817
 11
-1.09344
 21
31.0268
  0
LINE
  8
0
 10
-1.09344
 20
31.0268
 11
-0.956131
 21
31.1558
  0
LINE
  8
0
 10
-0.956131
 20
31.1558
 11
-0.803726
 21
31.2665
  0
LINE
  8
0
 10
-0.803726
 20
31.2665
 11
-0.638657
 21
31.3572
  0
LINE
  8
0
 10
-0.638657
 20
31.3572
 11
-0.463516
 21
31.4266
  0
LINE
  8
0
 10
-0.463516
 20
31.4266
 11
-0.281067
 21
31.4734
  0
LINE
  8
0
 10
-0.281067
 20
31.4734
 11
-0.0941772
 21
31.497
  0
LINE
  8
0
 10
-0.0941772
 20
31.497
 11
0.0941772
 21
31.497
  0
LINE
  8
0
 10
0.0941772
 20
31.497
 11
0.281067
 21
31.4734
  0
LINE
  8
0
 10
0.281067
 20
31.4734
 11
0.463516
 21
31.4266
  0
LINE
  8
0
 10
0.463516
 20
31.4266
 11
0.638657
 21
31.3572
  0
LINE
  8
0
 10
0.638657
 20
31.3572
 11
0.803726
 21
31.2665
  0
LINE
  8
0
 10
0.803726
 20
31.2665
 11
0.956131
 21
31.1558
  0
LINE
  8
0
 10
0.956131
 20
31.1558
 11
1.09344
 21
31.0268
  0
LINE
  8
0
 10
1.09344
 20
31.0268
 11
1.21352
 21
30.8817
  0
LINE
  8
0
 10
1.21352
 20
30.8817
 11
1.31445
 21
30.7226
  0
LINE
  8
0
 10
1.31445
 20
30.7226
 11
1.39465
 21
30.5522
  0
LINE
  8
0
 10
1.39465
 20
30.5522
 11
1.45287
 21
30.373
  0
LINE
  8
0
 10
1.45287
 20
30.373
 11
1.48816
 21
30.188
  0
LINE
  8
0
 10
1.48816
 20
30.188
 11
1.5
 21
30
  0
LINE
  8
0
 10
1.5
 20
30
 11
1.48816
 21
29.812
  0
LINE
  8
0
 10
1.48816
 20
29.812
 11
1.45287
 21
29.627
  0
LINE
  8
0
 10
1.45287
 20
29.627
 11
1.39465
 21
29.4478
  0
LINE
  8
0
 10
1.39465
 20
29.4478
 11
1.31445
 21
29.2774
  0
LINE
  8
0
 10
1.31445
 20
29.2774
 11
1.21352
 21
29.1183
  0
LINE
  8
0
 10
1.21352
 20
29.1183
 11
1.09344
 21
28.9732
  0
LINE
  8
0
 10
1.09344
 20
28.9732
 11
0.956131
 21
28.8442
  0
LINE
  8
0
 10
0.956131
 20
28.8442
 11
0.803726
 21
28.7335
  0
LINE
  8
0
 10
0.803726
 20
28.7335
 11
0.638657
 21
28.6427
  0
LINE
  8
0
 10
0.638657
 20
28.6427
 11
0.463516
 21
28.5734
  0
LINE
  8
0
 10
0.463516
 20
28.5734
 11
0.281067
 21
28.5266
  0
LINE
  8
0
 10
0.281067
 20
28.5266
 11
0.0941772
 21
28.503
  0
LINE
  8
0
 10
0.0941772
 20
28.503
 11
-0.0941772
 21
28.503
  0
LINE
  8
0
 10
-1.63255
 20
-25.9487
 11
-4.8719
 21
-25.5395
  0
LINE
  8
0
 10
-4.8719
 20
-25.5395
 11
-8.03444
 21
-24.7275
  0
LINE
  8
0
 10
-8.03444
 20
-24.7275
 11
-11.0703
 21
-23.5255
  0
LINE
  8
0
 10
-11.0703
 20
-23.5255
 11
-13.9315
 21
-21.9525
  0
LINE
  8
0
 10
-13.9315
 20
-21.9525
 11
-16.573
 21
-20.0333
  0
LINE
  8
0
 10
-16.573
 20
-20.0333
 11
-18.9532
 21
-17.7982
  0
LINE
  8
0
 10
-18.9532
 20
-17.7982
 11
-21.0344
 21
-15.2824
  0
LINE
  8
0
 10
-21.0344
 20
-15.2824
 11
-22.784
 21
-12.5256
  0
LINE
  8
0
 10
-22.784
 20
-12.5256
 11
-24.1742
 21
-9.57123
  0
LINE
  8
0
 10
-24.1742
 20
-9.57123
 11
-25.1832
 21
-6.46593
  0
LINE
  8
0
 10
-25.1832
 20
-6.46593
 11
-25.795
 21
-3.25865
  0
LINE
  8
0
 10
-25.795
 20
-3.25865
 11
-26
 21
0
  0
LINE
  8
0
 10
-26
 20
0
 11
-25.795
 21
3.25865
  0
LINE
  8
0
 10
-25.795
 20
3.25865
 11
-25.1832
 21
6.46593
  0
LINE
  8
0
 10
-25.1832
 20
6.46593
 11
-24.1742
 21
9.57123
  0
LINE
  8
0
 10
-24.1742
 20
9.57123
 11
-22.784
 21
12.5256
  0
LINE
  8
0
 10
-22.784
 20
12.5256
 11
-21.0344
 21
15.2824
  0
LINE
  8
0
 10
-21.0344
 20
15.2824
 11
-18.9532
 21
17.7982
  0
LINE
  8
0
 10
-18.9532
 20
17.7982
 11
-16.573
 21
20.0333
  0
LINE
  8
0
 10
-16.573
 20
20.0333
 11
-13.9315
 21
21.9525
  0
LINE
  8
0
 10
-13.9315
 20
21.9525
 11
-11.0703
 21
23.5255
  0
LINE
  8
0
 10
-11.0703
 20
23.5255
 11
-8.03444
 21
24.7275
  0
LINE
  8
0
 10
-8.03444
 20
24.7275
 11
-4.8719
 21
25.5395
  0
LINE
  8
0
 10
-4.8719
 20
25.5395
 11
-1.63255
 21
25.9487
  0
LINE
  8
0
 10
-1.63255
 20
25.9487
 11
1.63255
 21
25.9487
  0
LINE
  8
0
 10
1.63255
 20
25.9487
 11
4.8719
 21
25.5395
  0
LINE
  8
0
 10
4.8719
 20
25.5395
 11
8.03444
 21
24.7275
  0
LINE
  8
0
 10
8.03444
 20
24.7275
 11
11.0703
 21
23.5255
  0
LINE
  8
0
 10
11.0703
 20
23.5255
 11
13.9315
 21
21.9525
  0
LINE
  8
0
 10
13.9315
 20
21.9525
 11
16.573
 21
20.0333
  0
LINE
  8
0
 10
16.573
 20
20.0333
 11
18.9532
 21
17.7982
  0
LINE
  8
0
 10
18.9532
 20
17.7982
 11
21.0344
 21
15.2824
  0
LINE
  8
0
 10
21.0344
 20
15.2824
 11
22.784
 21
12.5256
  0
LINE
  8
0
 10
22.784
 20
12.5256
 11
24.1742
 21
9.57123
  0
LINE
  8
0
 10
24.1742
 20
9.57123
 11
25.1832
 21
6.46593
  0
LINE
  8
0
 10
25.1832
 20
6.46593
 11
25.795
 21
3.25865
  0
LINE
  8
0
 10
25.795
 20
3.25865
 11
26
 21
0
  0
LINE
  8
0
 10
26
 20
0
 11
25.795
 21
-3.25865
  0
LINE
  8
0
 10
25.795
 20
-3.25865
 11
25.1832
 21
-6.46593
  0
LINE
  8
0
 10
25.1832
 20
-6.46593
 11
24.1742
 21
-9.57123
  0
LINE
  8
0
 10
24.1742
 20
-9.57123
 11
22.784
 21
-12.5256
  0
LINE
  8
0
 10
22.784
 20
-12.5256
 11
21.0344
 21
-15.2824
  0
LINE
  8
0
 10
21.0344
 20
-15.2824
 11
18.9532
 21
-17.7982
  0
LINE
  8
0
 10
18.9532
 20
-17.7982
 11
16.573
 21
-20.0333
  0
LINE
  8
0
 10
16.573
 20
-20.0333
 11
13.9315
 21
-21.9525
  0
LINE
  8
0
 10
13.9315
 20
-21.9525
 11
11.0703
 21
-23.5255
  0
LINE
  8
0
 10
11.0703
 20
-23.5255
 11
8.03444
 21
-24.7275
  0
LINE
  8
0
 10
8.03444
 20
-24.7275
 11
4.8719
 21
-25.5395
  0
LINE
  8
0
 10
4.8719
 20
-25.5395
 11
1.63255
 21
-25.9487
  0
LINE
  8
0
 10
1.63255
 20
-25.9487
 11
-1.63255
 21
-25.9487
  0
LINE
  8
0
 10
3.74762
 20
-19.6457
 11
6.18033
 21
-19.0211
  0
LINE
  8
0
 10
6.18033
 20
-19.0211
 11
8.51558
 21
-18.0965
  0
LINE
  8
0
 10
8.51558
 20
-18.0965
 11
10.7165
 21
-16.8866
  0
LINE
  8
0
 10
10.7165
 20
-16.8866
 11
12.7485
 21
-15.4103
  0
LINE
  8
0
 10
12.7485
 20
-15.4103
 11
14.5794
 21
-13.6909
  0
LINE
  8
0
 10
14.5794
 20
-13.6909
 11
16.1803
 21
-11.7557
  0
LINE
  8
0
 10
16.1803
 20
-11.7557
 11
17.5261
 21
-9.63507
  0
LINE
  8
0
 10
17.5261
 20
-9.63507
 11
18.5955
 21
-7.36249
  0
LINE
  8
0
 10
18.5955
 20
-7.36249
 11
19.3717
 21
-4.97379
  0
LINE
  8
0
 10
19.3717
 20
-4.97379
 11
19.8423
 21
-2.50665
  0
LINE
  8
0
 10
19.8423
 20
-2.50665
 11
20
 21
0
  0
LINE
  8
0
 10
20
 20
0
 11
19.8423
 21
2.50665
  0
LINE
  8
0
 10
19.8423
 20
2.50665
 11
19.3717
 21
4.97379
  0
LINE
  8
0
 10
19.3717
 20
4.97379
 11
18.5955
 21
7.36249
  0
LINE
  8
0
 10
18.5955
 20
7.36249
 11
17.5261
 21
9.63507
  0
LINE
  8
0
 10
17.5261
 20
9.63507
 11
16.1803
 21
11.7557
  0
LINE
  8
0
 10
16.1803
 20
11.7557
 11
14.5794
 21
13.6909
  0
LINE
  8
0
 10
14.5794
 20
13.6909
 11
12.7485
 21
15.4103
  0
LINE
  8
0
 10
12.7485
 20
15.4103
 11
10.7165
 21
16.8866
  0
LINE
  8
0
 10
10.7165
 20
16.8866
 11
8.51558
 21
18.0965
  0
LINE
  8
0
 10
8.51558
 20
18.0965
 11
6.18033
 21
19.0211
  0
LINE
  8
0
 10
6.18033
 20
19.0211
 11
3.74762
 21
19.6457
  0
LINE
  8
0
 10
3.74762
 20
19.6457
 11
1.2558
 21
19.9605
  0
LINE
  8
0
 10
1.2558
 20
19.9605
 11
-1.2558
 21
19.9605
  0
LINE
  8
0
 10
-1.2558
 20
19.9605
 11
-3.74762
 21
19.6457
  0
LINE
  8
0
 10
-3.74762
 20
19.6457
 11
-6.18033
 21
19.0211
  0
LINE
  8
0
 10
-6.18033
 20
19.0211
 11
-8.51558
 21
18.0965
  0
LINE
  8
0
 10
-8.51558
 20
18.0965
 11
-10.7165
 21
16.8866
  0
LINE
  8
0
 10
-10.7165
 20
16.8866
 11
-12.7485
 21
15.4103
  0
LINE
  8
0
 10
-12.7485
 20
15.4103
 11
-14.5794
 21
13.6909
  0
LINE
  8
0
 10
-14.5794
 20
13.6909
 11
-16.1803
 21
11.7557
  0
LINE
  8
0
 10
-16.1803
 20
11.7557
 11
-17.5261
 21
9.63507
  0
LINE
  8
0
 10
-17.5261
 20
9.63507
 11
-18.5955
 21
7.36249
  0
LINE
  8
0
 10
-18.5955
 20
7.36249
 11
-19.3717
 21
4.97379
  0
LINE
  8
0
 10
-19.3717
 20
4.97379
 11
-19.8423
 21
2.50665
  0
LINE
  8
0
 10
-19.8423
 20
2.50665
 11
-20
 21
0
  0
LINE
  8
0
 10
-20
 20
0
 11
-19.8423
 21
-2.50665
  0
LINE
  8
0
 10
-19.8423
 20
-2.50665
 11
-19.3717
 21
-4.97379
  0
LINE
  8
0
 10
-19.3717
 20
-4.97379
 11
-18.5955
 21
-7.36249
  0
LINE
  8
0
 10
-18.5955
 20
-7.36249
 11
-17.5261
 21
-9.63507
  0
LINE
  8
0
 10
-17.5261
 20
-9.63507
 11
-16.1803
 21
-11.7557
  0
LINE
  8
0
 10
-16.1803
 20
-11.7557
 11
-14.5794
 21
-13.6909
  0
LINE
  8
0
 10
-14.5794
 20
-13.6909
 11
-12.7485
 21
-15.4103
  0
LINE
  8
0
 10
-12.7485
 20
-15.4103
 11
-10.7165
 21
-16.8866
  0
LINE
  8
0
 10
-10.7165
 20
-16.8866
 11
-8.51558
 21
-18.0965
  0
LINE
  8
0
 10
-8.51558
 20
-18.0965
 11
-6.18033
 21
-19.0211
  0
LINE
  8
0
 10
-6.18033
 20
-19.0211
 11
-3.74762
 21
-19.6457
  0
LINE
  8
0
 10
-3.74762
 20
-19.6457
 11
-1.2558
 21
-19.9605
  0
LINE
  8
0
 10
-1.2558
 20
-19.9605
 11
1.2558
 21
-19.9605
  0
LINE
  8
0
 10
1.2558
 20
-19.9605
 11
3.74762
 21
-19.6457
  0
LINE
  8
0
 10
-0.18837
 20
12.0059
 11
-0.562134
 21
12.0531
  0
LINE
  8
0
 10
-0.562134
 20
12.0531
 11
-0.927048
 21
12.1468
  0
LINE
  8
0
 10
-0.927048
 20
12.1468
 11
-1.27733
 21
12.2855
  0
LINE
  8
0
 10
-1.27733
 20
12.2855
 11
-1.60747
 21
12.467
  0
LINE
  8
0
 10
-1.60747
 20
12.467
 11
-1.91226
 21
12.6884
  0
LINE
  8
0
 10
-1.91226
 20
12.6884
 11
-2.1869
 21
12.9464
  0
LINE
  8
0
 10
-2.1869
 20
12.9464
 11
-2.42705
 21
13.2366
  0
LINE
  8
0
 10
-2.42705
 20
13.2366
 11
-2.62891
 21
13.5547
  0
LINE
  8
0
 10
-2.62891
 20
13.5547
 11
-2.78932
 21
13.8956
  0
LINE
  8
0
 10
-2.78932
 20
13.8956
 11
-2.90575
 21
14.2539
  0
LINE
  8
0
 10
-2.90575
 20
14.2539
 11
-2.97633
 21
14.624
  0
LINE
  8
0
 10
-2.97633
 20
14.624
 11
-3
 21
15
  0
LINE
  8
0
 10
-3
 20
15
 11
-2.97633
 21
15.376
  0
LINE
  8
0
 10
-2.97633
 20
15.376
 11
-2.90575
 21
15.7461
  0
LINE
  8
0
 10
-2.90575
 20
15.7461
 11
-2.78932
 21
16.1044
  0
LINE
  8
0
 10
-2.78932
 20
16.1044
 11
-2.62891
 21
16.4453
  0
LINE
  8
0
 10
-2.62891
 20
16.4453
 11
-2.42705
 21
16.7634
  0
LINE
  8
0
 10
-2.42705
 20
16.7634
 11
-2.1869
 21
17.0536
  0
LINE
  8
0
 10
-2.1869
 20
17.0536
 11
-1.91226
 21
17.3115
  0
LINE
  8
0
 10
-1.91226
 20
17.3115
 11
-1.60747
 21
17.533
  0
LINE
  8
0
 10
-1.60747
 20
17.533
 11
-1.27733
 21
17.7145
  0
LINE
  8
0
 10
-1.27733
 20
17.7145
 11
-0.927048
 21
17.8532
  0
LINE
  8
0
 10
-0.927048
 20
17.8532
 11
-0.562134
 21
17.9469
  0
LINE
  8
0
 10
-0.562134
 20
17.9469
 11
-0.18837
 21
17.9941
  0
LINE
  8
0
 10
-0.18837
 20
17.9941
 11
0.18837
 21
17.9941
  0
LINE
  8
0
 10
0.18837
 20
17.9941
 11
0.562134
 21
17.9469
  0
LINE
  8
0
 10
0.562134
 20
17.9469
 11
0.927048
 21
17.8532
  0
LINE
  8
0
 10
0.927048
 20
17.8532
 11
1.27733
 21
17.7145
  0
LINE
  8
0
 10
1.27733
 20
17.7145
 11
1.60747
 21
17.533
  0
LINE
  8
0
 10
1.60747
 20
17.533
 11
1.91226
 21
17.3115
  0
LINE
  8
0
 10
1.91226
 20
17.3115
 11
2.1869
 21
17.0536
  0
LINE
  8
0
 10
2.1869
 20
17.0536
 11
2.42705
 21
16.7634
  0
LINE
  8
0
 10
2.42705
 20
16.7634
 11
2.62891
 21
16.4453
  0
LINE
  8
0
 10
2.62891
 20
16.4453
 11
2.78932
 21
16.1044
  0
LINE
  8
0
 10
2.78932
 20
16.1044
 11
2.90575
 21
15.7461
  0
LINE
  8
0
 10
2.90575
 20
15.7461
 11
2.97633
 21
15.376
  0
LINE
  8
0
 10
2.97633
 20
15.376
 11
3
 21
15
  0
LINE
  8
0
 10
3
 20
15
 11
2.97633
 21
14.624
  0
LINE
  8
0
 10
2.97633
 20
14.624
 11
2.90575
 21
14.2539
  0
LINE
  8
0
 10
2.90575
 20
14.2539
 11
2.78932
 21
13.8956
  0
LINE
  8
0
 10
2.78932
 20
13.8956
 11
2.62891
 21
13.5547
  0
LINE
  8
0
 10
2.62891
 20
13.5547
 11
2.42705
 21
13.2366
  0
LINE
  8
0
 10
2.42705
 20
13.2366
 11
2.1869
 21
12.9464
  0
LINE
  8
0
 10
2.1869
 20
12.9464
 11
1.91226
 21
12.6884
  0
LINE
  8
0
 10
1.91226
 20
12.6884
 11
1.60747
 21
12.467
  0
LINE
  8
0
 10
1.60747
 20
12.467
 11
1.27733
 21
12.2855
  0
LINE
  8
0
 10
1.27733
 20
12.2855
 11
0.927048
 21
12.1468
  0
LINE
  8
0
 10
0.927048
 20
12.1468
 11
0.562134
 21
12.0531
  0
LINE
  8
0
 10
0.562134
 20
12.0531
 11
0.18837
 21
12.0059
  0
LINE
  8
0
 10
0.18837
 20
12.0059
 11
-0.18837
 21
12.0059
  0
LINE
  8
0
 10
-0.0941772
 20
6.00294
 11
-0.281067
 21
6.02657
  0
LINE
  8
0
 10
-0.281067
 20
6.02657
 11
-0.463516
 21
6.07341
  0
LINE
  8
0
 10
-0.463516
 20
6.07341
 11
-0.638657
 21
6.14275
  0
LINE
  8
0
 10
-0.638657
 20
6.14275
 11
-0.803726
 21
6.23351
  0
LINE
  8
0
 10
-0.803726
 20
6.23351
 11
-0.956131
 21
6.34422
  0
LINE
  8
0
 10
-0.956131
 20
6.34422
 11
-1.09344
 21
6.47318
  0
LINE
  8
0
 10
-1.09344
 20
6.47318
 11
-1.21352
 21
6.61832
  0
LINE
  8
0
 10
-1.21352
 20
6.61832
 11
-1.31445
 21
6.77736
  0
LINE
  8
0
 10
-1.31445
 20
6.77736
 11
-1.39465
 21
6.9478
  0
LINE
  8
0
 10
-1.39465
 20
6.9478
 11
-1.45287
 21
7.12695
  0
LINE
  8
0
 10
-1.45287
 20
7.12695
 11
-1.48816
 21
7.312
  0
LINE
  8
0
 10
-1.48816
 20
7.312
 11
-1.5
 21
7.5
  0
LINE
  8
0
 10
-1.5
 20
7.5
 11
-1.48816
 21
7.68799
  0
LINE
  8
0
 10
-1.48816
 20
7.68799
 11
-1.45287
 21
7.87303
  0
LINE
  8
0
 10
-1.45287
 20
7.87303
 11
-1.39465
 21
8.05219
  0
LINE
  8
0
 10
-1.39465
 20
8.05219
 11
-1.31445
 21
8.22263
  0
LINE
  8
0
 10
-1.31445
 20
8.22263
 11
-1.21352
 21
8.38167
  0
LINE
  8
0
 10
-1.21352
 20
8.38167
 11
-1.09344
 21
8.52681
  0
LINE
  8
0
 10
-1.09344
 20
8.52681
 11
-0.956131
 21
8.65576
  0
LINE
  8
0
 10
-0.956131
 20
8.65576
 11
-0.803726
 21
8.76648
  0
LINE
  8
0
 10
-0.803726
 20
8.76648
 11
-0.638657
 21
8.85724
  0
LINE
  8
0
 10
-0.638657
 20
8.85724
 11
-0.463516
 21
8.92657
  0
LINE
  8
0
 10
-0.463516
 20
8.92657
 11
-0.281067
 21
8.97342
  0
LINE
  8
0
 10
-0.281067
 20
8.97342
 11
-0.0941772
 21
8.99704
  0
LINE
  8
0
 10
-0.0941772
 20
8.99704
 11
0.0941772
 21
8.99704
  0
LINE
  8
0
 10
0.0941772
 20
8.99704
 11
0.281067
 21
8.97342
  0
LINE
  8
0
 10
0.281067
 20
8.97342
 11
0.463516
 21
8.92657
  0
LINE
  8
0
 10
0.463516
 20
8.92657
 11
0.638657
 21
8.85724
  0
LINE
  8
0
 10
0.638657
 20
8.85724
 11
0.803726
 21
8.76648
  0
LINE
  8
0
 10
0.803726
 20
8.76648
 11
0.956131
 21
8.65576
  0
LINE
  8
0
 10
0.956131
 20
8.65576
 11
1.09344
 21
8.52681
  0
LINE
  8
0
 10
1.09344
 20
8.52681
 11
1.21352
 21
8.38167
  0
LINE
  8
0
 10
1.21352
 20
8.38167
 11
1.31445
 21
8.22263
  0
LINE
  8
0
 10
1.31445
 20
8.22263
 11
1.39465
 21
8.05219
  0
LINE
  8
0
 10
1.39465
 20
8.05219
 11
1.45287
 21
7.87303
  0
LINE
  8
0
 10
1.45287
 20
7.87303
 11
1.48816
 21
7.68799
  0
LINE
  8
0
 10
1.48816
 20
7.68799
 11
1.5
 21
7.5
  0
LINE
  8
0
 10
1.5
 20
7.5
 11
1.48816
 21
7.312
  0
LINE
  8
0
 10
1.48816
 20
7.312
 11
1.45287
 21
7.12695
  0
LINE
  8
0
 10
1.45287
 20
7.12695
 11
1.39465
 21
6.9478
  0
LINE
  8
0
 10
1.39465
 20
6.9478
 11
1.31445
 21
6.77736
  0
LINE
  8
0
 10
1.31445
 20
6.77736
 11
1.21352
 21
6.61832
  0
LINE
  8
0
 10
1.21352
 20
6.61832
 11
1.09344
 21
6.47318
  0
LINE
  8
0
 10
1.09344
 20
6.47318
 11
0.956131
 21
6.34422
  0
LINE
  8
0
 10
0.956131
 20
6.34422
 11
0.803726
 21
6.23351
  0
LINE
  8
0
 10
0.803726
 20
6.23351
 11
0.638657
 21
6.14275
  0
LINE
  8
0
 10
0.638657
 20
6.14275
 11
0.463516
 21
6.07341
  0
LINE
  8
0
 10
0.463516
 20
6.07341
 11
0.281067
 21
6.02657
  0
LINE
  8
0
 10
0.281067
 20
6.02657
 11
0.0941772
 21
6.00294
  0
LINE
  8
0
 10
0.0941772
 20
6.00294
 11
-0.0941772
 21
6.00294
  0
LINE
  8
0
 10
14.8116
 20
-2.99408
 11
14.4379
 21
-2.94685
  0
LINE
  8
0
 10
14.4379
 20
-2.94685
 11
14.0729
 21
-2.85316
  0
LINE
  8
0
 10
14.0729
 20
-2.85316
 11
13.7227
 21
-2.71448
  0
LINE
  8
0
 10
13.7227
 20
-2.71448
 11
13.3925
 21
-2.53297
  0
LINE
  8
0
 10
13.3925
 20
-2.53297
 11
13.0877
 21
-2.31154
  0
LINE
  8
0
 10
13.0877
 20
-2.31154
 11
12.8131
 21
-2.05363
  0
LINE
  8
0
 10
12.8131
 20
-2.05363
 11
12.5729
 21
-1.76335
  0
LINE
  8
0
 10
12.5729
 20
-1.76335
 11
12.3711
 21
-1.44525
  0
LINE
  8
0
 10
12.3711
 20
-1.44525
 11
12.2107
 21
-1.10437
  0
LINE
  8
0
 10
12.2107
 20
-1.10437
 11
12.0942
 21
-0.746063
  0
LINE
  8
0
 10
12.0942
 20
-0.746063
 11
12.0237
 21
-0.375992
  0
LINE
  8
0
 10
12.0237
 20
-0.375992
 11
12
 21
0
  0
LINE
  8
0
 10
12
 20
0
 11
12.0237
 21
0.375992
  0
LINE
  8
0
 10
12.0237
 20
0.375992
 11
12.0942
 21
0.746063
  0
LINE
  8
0
 10
12.0942
 20
0.746063
 11
12.2107
 21
1.10437
  0
LINE
  8
0
 10
12.2107
 20
1.10437
 11
12.3711
 21
1.44525
  0
LINE
  8
0
 10
12.3711
 20
1.44525
 11
12.5729
 21
1.76335
  0
LINE
  8
0
 10
12.5729
 20
1.76335
 11
12.8131
 21
2.05363
  0
LINE
  8
0
 10
12.8131
 20
2.05363
 11
13.0877
 21
2.31154
  0
LINE
  8
0
 10
13.0877
 20
2.31154
 11
13.3925
 21
2.53297
  0
LINE
  8
0
 10
13.3925
 20
2.53297
 11
13.7227
 21
2.71448
  0
LINE
  8
0
 10
13.7227
 20
2.71448
 11
14.0729
 21
2.85316
  0
LINE
  8
0
 10
14.0729
 20
2.85316
 11
14.4379
 21
2.94685
  0
LINE
  8
0
 10
14.4379
 20
2.94685
 11
14.8116
 21
2.99408
  0
LINE
  8
0
 10
14.8116
 20
2.99408
 11
15.1884
 21
2.99408
  0
LINE
  8
0
 10
15.1884
 20
2.99408
 11
15.5621
 21
2.94685
  0
LINE
  8
0
 10
15.5621
 20
2.94685
 11
15.927
 21
2.85316
  0
LINE
  8
0
 10
15.927
 20
2.85316
 11
16.2773
 21
2.71448
  0
LINE
  8
0
 10
16.2773
 20
2.71448
 11
16.6075
 21
2.53297
  0
LINE
  8
0
 10
16.6075
 20
2.53297
 11
16.9123
 21
2.31154
  0
LINE
  8
0
 10
16.9123
 20
2.31154
 11
17.1869
 21
2.05363
  0
LINE
  8
0
 10
17.1869
 20
2.05363
 11
17.427
 21
1.76335
  0
LINE
  8
0
 10
17.427
 20
1.76335
 11
17.6289
 21
1.44525
  0
LINE
  8
0
 10
17.6289
 20
1.44525
 11
17.7893
 21
1.10437
  0
LINE
  8
0
 10
17.7893
 20
1.10437
 11
17.9057
 21
0.746063
  0
LINE
  8
0
 10
17.9057
 20
0.746063
 11
17.9763
 21
0.375992
  0
LINE
  8
0
 10
17.9763
 20
0.375992
 11
18
 21
0
  0
LINE
  8
0
 10
18
 20
0
 11
17.9763
 21
-0.375992
  0
LINE
  8
0
 10
17.9763
 20
-0.375992
 11
17.9057
 21
-0.746063
  0
LINE
  8
0
 10
17.9057
 20
-0.746063
 11
17.7893
 21
-1.10437
  0
LINE
  8
0
 10
17.7893
 20
-1.10437
 11
17.6289
 21
-1.44525
  0
LINE
  8
0
 10
17.6289
 20
-1.44525
 11
17.427
 21
-1.76335
  0
LINE
  8
0
 10
17.427
 20
-1.76335
 11
17.1869
 21
-2.05363
  0
LINE
  8
0
 10
17.1869
 20
-2.05363
 11
16.9123
 21
-2.31154
  0
LINE
  8
0
 10
16.9123
 20
-2.31154
 11
16.6075
 21
-2.53297
  0
LINE
  8
0
 10
16.6075
 20
-2.53297
 11
16.2773
 21
-2.71448
  0
LINE
  8
0
 10
16.2773
 20
-2.71448
 11
15.927
 21
-2.85316
  0
LINE
  8
0
 10
15.927
 20
-2.85316
 11
15.5621
 21
-2.94685
  0
LINE
  8
0
 10
15.5621
 20
-2.94685
 11
15.1884
 21
-2.99408
  0
LINE
  8
0
 10
15.1884
 20
-2.99408
 11
14.8116
 21
-2.99408
  0
LINE
  8
0
 10
-0.18837
 20
-2.99408
 11
-0.562134
 21
-2.94685
  0
LINE
  8
0
 10
-0.562134
 20
-2.94685
 11
-0.927048
 21
-2.85316
  0
LINE
  8
0
 10
-0.927048
 20
-2.85316
 11
-1.27733
 21
-2.71448
  0
LINE
  8
0
 10
-1.27733
 20
-2.71448
 11
-1.60747
 21
-2.53297
  0
LINE
  8
0
 10
-1.60747
 20
-2.53297
 11
-1.91226
 21
-2.31154
  0
LINE
  8
0
 10
-1.91226
 20
-2.31154
 11
-2.1869
 21
-2.05363
  0
LINE
  8
0
 10
-2.1869
 20
-2.05363
 11
-2.42705
 21
-1.76335
  0
LINE
  8
0
 10
-2.42705
 20
-1.76335
 11
-2.62891
 21
-1.44525
  0
LINE
  8
0
 10
-2.62891
 20
-1.44525
 11
-2.78932
 21
-1.10437
  0
LINE
  8
0
 10
-2.78932
 20
-1.10437
 11
-2.90575
 21
-0.746063
  0
LINE
  8
0
 10
-2.90575
 20
-0.746063
 11
-2.97633
 21
-0.375992
  0
LINE
  8
0
 10
-2.97633
 20
-0.375992
 11
-3
 21
0
  0
LINE
  8
0
 10
-3
 20
0
 11
-2.97633
 21
0.375992
  0
LINE
  8
0
 10
-2.97633
 20
0.375992
 11
-2.90575
 21
0.746063
  0
LINE
  8
0
 10
-2.90575
 20
0.746063
 11
-2.78932
 21
1.10437
  0
LINE
  8
0
 10
-2.78932
 20
1.10437
 11
-2.62891
 21
1.44525
  0
LINE
  8
0
 10
-2.62891
 20
1.44525
 11
-2.42705
 21
1.76335
  0
LINE
  8
0
 10
-2.42705
 20
1.76335
 11
-2.1869
 21
2.05363
  0
LINE
  8
0
 10
-2.1869
 20
2.05363
 11
-1.91226
 21
2.31154
  0
LINE
  8
0
 10
-1.91226
 20
2.31154
 11
-1.60747
 21
2.53297
  0
LINE
  8
0
 10
-1.60747
 20
2.53297
 11
-1.27733
 21
2.71448
  0
LINE
  8
0
 10
-1.27733
 20
2.71448
 11
-0.927048
 21
2.85316
  0
LINE
  8
0
 10
-0.927048
 20
2.85316
 11
-0.562134
 21
2.94685
  0
LINE
  8
0
 10
-0.562134
 20
2.94685
 11
-0.18837
 21
2.99408
  0
LINE
  8
0
 10
-0.18837
 20
2.99408
 11
0.18837
 21
2.99408
  0
LINE
  8
0
 10
0.18837
 20
2.99408
 11
0.562134
 21
2.94685
  0
LINE
  8
0
 10
0.562134
 20
2.94685
 11
0.927048
 21
2.85316
  0
LINE
  8
0
 10
0.927048
 20
2.85316
 11
1.27733
 21
2.71448
  0
LINE
  8
0
 10
1.27733
 20
2.71448
 11
1.60747
 21
2.53297
  0
LINE
  8
0
 10
1.60747
 20
2.53297
 11
1.91226
 21
2.31154
  0
LINE
  8
0
 10
1.91226
 20
2.31154
 11
2.1869
 21
2.05363
  0
LINE
  8
0
 10
2.1869
 20
2.05363
 11
2.42705
 21
1.76335
  0
LINE
  8
0
 10
2.42705
 20
1.76335
 11
2.62891
 21
1.44525
  0
LINE
  8
0
 10
2.62891
 20
1.44525
 11
2.78932
 21
1.10437
  0
LINE
  8
0
 10
2.78932
 20
1.10437
 11
2.90575
 21
0.746063
  0
LINE
  8
0
 10
2.90575
 20
0.746063
 11
2.97633
 21
0.375992
  0
LINE
  8
0
 10
2.97633
 20
0.375992
 11
3
 21
0
  0
LINE
  8
0
 10
3
 20
0
 11
2.97633
 21
-0.375992
  0
LINE
  8
0
 10
2.97633
 20
-0.375992
 11
2.90575
 21
-0.746063
  0
LINE
  8
0
 10
2.90575
 20
-0.746063
 11
2.78932
 21
-1.10437
  0
LINE
  8
0
 10
2.78932
 20
-1.10437
 11
2.62891
 21
-1.44525
  0
LINE
  8
0
 10
2.62891
 20
-1.44525
 11
2.42705
 21
-1.76335
  0
LINE
  8
0
 10
2.42705
 20
-1.76335
 11
2.1869
 21
-2.05363
  0
LINE
  8
0
 10
2.1869
 20
-2.05363
 11
1.91226
 21
-2.31154
  0
LINE
  8
0
 10
1.91226
 20
-2.31154
 11
1.60747
 21
-2.53297
  0
LINE
  8
0
 10
1.60747
 20
-2.53297
 11
1.27733
 21
-2.71448
  0
LINE
  8
0
 10
1.27733
 20
-2.71448
 11
0.927048
 21
-2.85316
  0
LINE
  8
0
 10
0.927048
 20
-2.85316
 11
0.562134
 21
-2.94685
  0
LINE
  8
0
 10
0.562134
 20
-2.94685
 11
0.18837
 21
-2.99408
  0
LINE
  8
0
 10
0.18837
 20
-2.99408
 11
-0.18837
 21
-2.99408
  0
LINE
  8
0
 10
-15.1884
 20
-2.99408
 11
-15.5621
 21
-2.94685
  0
LINE
  8
0
 10
-15.5621
 20
-2.94685
 11
-15.927
 21
-2.85316
  0
LINE
  8
0
 10
-15.927
 20
-2.85316
 11
-16.2773
 21
-2.71448
  0
LINE
  8
0
 10
-16.2773
 20
-2.71448
 11
-16.6075
 21
-2.53297
  0
LINE
  8
0
 10
-16.6075
 20
-2.53297
 11
-16.9123
 21
-2.31154
  0
LINE
  8
0
 10
-16.9123
 20
-2.31154
 11
-17.1869
 21
-2.05363
  0
LINE
  8
0
 10
-17.1869
 20
-2.05363
 11
-17.427
 21
-1.76335
  0
LINE
  8
0
 10
-17.427
 20
-1.76335
 11
-17.6289
 21
-1.44525
  0
LINE
  8
0
 10
-17.6289
 20
-1.44525
 11
-17.7893
 21
-1.10437
  0
LINE
  8
0
 10
-17.7893
 20
-1.10437
 11
-17.9057
 21
-0.746063
  0
LINE
  8
0
 10
-17.9057
 20
-0.746063
 11
-17.9763
 21
-0.375992
  0
LINE
  8
0
 10
-17.9763
 20
-0.375992
 11
-18
 21
0
  0
LINE
  8
0
 10
-18
 20
0
 11
-17.9763
 21
0.375992
  0
LINE
  8
0
 10
-17.9763
 20
0.375992
 11
-17.9057
 21
0.746063
  0
LINE
  8
0
 10
-17.9057
 20
0.746063
 11
-17.7893
 21
1.10437
  0
LINE
  8
0
 10
-17.7893
 20
1.10437
 11
-17.6289
 21
1.44525
  0
LINE
  8
0
 10
-17.6289
 20
1.44525
 11
-17.427
 21
1.76335
  0
LINE
  8
0
 10
-17.427
 20
1.76335
 11
-17.1869
 21
2.05363
  0
LINE
  8
0
 10
-17.1869
 20
2.05363
 11
-16.9123
 21
2.31154
  0
LINE
  8
0
 10
-16.9123
 20
2.31154
 11
-16.6075
 21
2.53297
  0
LINE
  8
0
 10
-16.6075
 20
2.53297
 11
-16.2773
 21
2.71448
  0
LINE
  8
0
 10
-16.2773
 20
2.71448
 11
-15.927
 21
2.85316
  0
LINE
  8
0
 10
-15.927
 20
2.85316
 11
-15.5621
 21
2.94685
  0
LINE
  8
0
 10
-15.5621
 20
2.94685
 11
-15.1884
 21
2.99408
  0
LINE
  8
0
 10
-15.1884
 20
2.99408
 11
-14.8116
 21
2.99408
  0
LINE
  8
0
 10
-14.8116
 20
2.99408
 11
-14.4379
 21
2.94685
  0
LINE
  8
0
 10
-14.4379
 20
2.94685
 11
-14.0729
 21
2.85316
  0
LINE
  8
0
 10
-14.0729
 20
2.85316
 11
-13.7227
 21
2.71448
  0
LINE
  8
0
 10
-13.7227
 20
2.71448
 11
-13.3925
 21
2.53297
  0
LINE
  8
0
 10
-13.3925
 20
2.53297
 11
-13.0877
 21
2.31154
  0
LINE
  8
0
 10
-13.0877
 20
2.31154
 11
-12.8131
 21
2.05363
  0
LINE
  8
0
 10
-12.8131
 20
2.05363
 11
-12.5729
 21
1.76335
  0
LINE
  8
0
 10
-12.5729
 20
1.76335
 11
-12.3711
 21
1.44525
  0
LINE
  8
0
 10
-12.3711
 20
1.44525
 11
-12.2107
 21
1.10437
  0
LINE
  8
0
 10
-12.2107
 20
1.10437
 11
-12.0942
 21
0.746063
  0
LINE
  8
0
 10
-12.0942
 20
0.746063
 11
-12.0237
 21
0.375992
  0
LINE
  8
0
 10
-12.0237
 20
0.375992
 11
-12
 21
0
  0
LINE
  8
0
 10
-12
 20
0
 11
-12.0237
 21
-0.375992
  0
LINE
  8
0
 10
-12.0237
 20
-0.375992
 11
-12.0942
 21
-0.746063
  0
LINE
  8
0
 10
-12.0942
 20
-0.746063
 11
-12.2107
 21
-1.10437
  0
LINE
  8
0
 10
-12.2107
 20
-1.10437
 11
-12.3711
 21
-1.44525
  0
LINE
  8
0
 10
-12.3711
 20
-1.44525
 11
-12.5729
 21
-1.76335
  0
LINE
  8
0
 10
-12.5729
 20
-1.76335
 11
-12.8131
 21
-2.05363
  0
LINE
  8
0
 10
-12.8131
 20
-2.05363
 11
-13.0877
 21
-2.31154
  0
LINE
  8
0
 10
-13.0877
 20
-2.31154
 11
-13.3925
 21
-2.53297
  0
LINE
  8
0
 10
-13.3925
 20
-2.53297
 11
-13.7227
 21
-2.71448
  0
LINE
  8
0
 10
-13.7227
 20
-2.71448
 11
-14.0729
 21
-2.85316
  0
LINE
  8
0
 10
-14.0729
 20
-2.85316
 11
-14.4379
 21
-2.94685
  0
LINE
  8
0
 10
-14.4379
 20
-2.94685
 11
-14.8116
 21
-2.99408
  0
LINE
  8
0
 10
-14.8116
 20
-2.99408
 11
-15.1884
 21
-2.99408
  0
LINE
  8
0
 10
-7.59418
 20
-1.49704
 11
-7.78107
 21
-1.47342
  0
LINE
  8
0
 10
-7.78107
 20
-1.47342
 11
-7.96352
 21
-1.42657
  0
LINE
  8
0
 10
-7.96352
 20
-1.42657
 11
-8.13866
 21
-1.35724
  0
LINE
  8
0
 10
-8.13866
 20
-1.35724
 11
-8.30373
 21
-1.26648
  0
LINE
  8
0
 10
-8.30373
 20
-1.26648
 11
-8.45613
 21
-1.15576
  0
LINE
  8
0
 10
-8.45613
 20
-1.15576
 11
-8.59344
 21
-1.02681
  0
LINE
  8
0
 10
-8.59344
 20
-1.02681
 11
-8.71352
 21
-0.881668
  0
LINE
  8
0
 10
-8.71352
 20
-0.881668
 11
-8.81445
 21
-0.722626
  0
LINE
  8
0
 10
-8.81445
 20
-0.722626
 11
-8.89465
 21
-0.552185
  0
LINE
  8
0
 10
-8.89465
 20
-0.552185
 11
-8.95287
 21
-0.373032
  0
LINE
  8
0
 10
-8.95287
 20
-0.373032
 11
-8.98816
 21
-0.187988
  0
LINE
  8
0
 10
-8.98816
 20
-0.187988
 11
-9
 21
0
  0
LINE
  8
0
 10
-9
 20
0
 11
-8.98816
 21
0.187988
  0
LINE
  8
0
 10
-8.98816
 20
0.187988
 11
-8.95287
 21
0.373032
  0
LINE
  8
0
 10
-8.95287
 20
0.373032
 11
-8.89465
 21
0.552185
  0
LINE
  8
0
 10
-8.89465
 20
0.552185
 11
-8.81445
 21
0.722626
  0
LINE
  8
0
 10
-8.81445
 20
0.722626
 11
-8.71352
 21
0.881668
  0
LINE
  8
0
 10
-8.71352
 20
0.881668
 11
-8.59344
 21
1.02681
  0
LINE
  8
0
 10
-8.59344
 20
1.02681
 11
-8.45613
 21
1.15576
  0
LINE
  8
0
 10
-8.45613
 20
1.15576
 11
-8.30373
 21
1.26648
  0
LINE
  8
0
 10
-8.30373
 20
1.26648
 11
-8.13866
 21
1.35724
  0
LINE
  8
0
 10
-8.13866
 20
1.35724
 11
-7.96352
 21
1.42657
  0
LINE
  8
0
 10
-7.96352
 20
1.42657
 11
-7.78107
 21
1.47342
  0
LINE
  8
0
 10
-7.78107
 20
1.47342
 11
-7.59418
 21
1.49704
  0
LINE
  8
0
 10
-7.59418
 20
1.49704
 11
-7.40581
 21
1.49704
  0
LINE
  8
0
 10
-7.40581
 20
1.49704
 11
-7.21892
 21
1.47342
  0
LINE
  8
0
 10
-7.21892
 20
1.47342
 11
-7.03647
 21
1.42657
  0
LINE
  8
0
 10
-7.03647
 20
1.42657
 11
-6.86133
 21
1.35724
  0
LINE
  8
0
 10
-6.86133
 20
1.35724
 11
-6.69626
 21
1.26648
  0
LINE
  8
0
 10
-6.69626
 20
1.26648
 11
-6.54385
 21
1.15576
  0
LINE
  8
0
 10
-6.54385
 20
1.15576
 11
-6.40654
 21
1.02681
  0
LINE
  8
0
 10
-6.40654
 20
1.02681
 11
-6.28647
 21
0.881668
  0
LINE
  8
0
 10
-6.28647
 20
0.881668
 11
-6.18553
 21
0.722626
  0
LINE
  8
0
 10
-6.18553
 20
0.722626
 11
-6.10533
 21
0.552185
  0
LINE
  8
0
 10
-6.10533
 20
0.552185
 11
-6.04712
 21
0.373032
  0
LINE
  8
0
 10
-6.04712
 20
0.373032
 11
-6.01183
 21
0.187988
  0
LINE
  8
0
 10
-6.01183
 20
0.187988
 11
-6
 21
0
  0
LINE
  8
0
 10
-6
 20
0
 11
-6.01183
 21
-0.187988
  0
LINE
  8
0
 10
-6.01183
 20
-0.187988
 11
-6.04712
 21
-0.373032
  0
LINE
  8
0
 10
-6.04712
 20
-0.373032
 11
-6.10533
 21
-0.552185
  0
LINE
  8
0
 10
-6.10533
 20
-0.552185
 11
-6.18553
 21
-0.722626
  0
LINE
  8
0
 10
-6.18553
 20
-0.722626
 11
-6.28647
 21
-0.881668
  0
LINE
  8
0
 10
-6.28647
 20
-0.881668
 11
-6.40654
 21
-1.02681
  0
LINE
  8
0
 10
-6.40654
 20
-1.02681
 11
-6.54385
 21
-1.15576
  0
LINE
  8
0
 10
-6.54385
 20
-1.15576
 11
-6.69626
 21
-1.26648
  0
LINE
  8
0
 10
-6.69626
 20
-1.26648
 11
-6.86133
 21
-1.35724
  0
LINE
  8
0
 10
-6.86133
 20
-1.35724
 11
-7.03647
 21
-1.42657
  0
LINE
  8
0
 10
-7.03647
 20
-1.42657
 11
-7.21892
 21
-1.47342
  0
LINE
  8
0
 10
-7.21892
 20
-1.47342
 11
-7.40581
 21
-1.49704
  0
LINE
  8
0
 10
-7.40581
 20
-1.49704
 11
-7.59418
 21
-1.49704
  0
LINE
  8
0
 10
7.40581
 20
-1.49704
 11
7.21892
 21
-1.47342
  0
LINE
  8
0
 10
7.21892
 20
-1.47342
 11
7.03647
 21
-1.42657
  0
LINE
  8
0
 10
7.03647
 20
-1.42657
 11
6.86133
 21
-1.35724
  0
LINE
  8
0
 10
6.86133
 20
-1.35724
 11
6.69626
 21
-1.26648
  0
LINE
  8
0
 10
6.69626
 20
-1.26648
 11
6.54385
 21
-1.15576
  0
LINE
  8
0
 10
6.54385
 20
-1.15576
 11
6.40654
 21
-1.02681
  0
LINE
  8
0
 10
6.40654
 20
-1.02681
 11
6.28647
 21
-0.881668
  0
LINE
  8
0
 10
6.28647
 20
-0.881668
 11
6.18553
 21
-0.722626
  0
LINE
  8
0
 10
6.18553
 20
-0.722626
 11
6.10533
 21
-0.552185
  0
LINE
  8
0
 10
6.10533
 20
-0.552185
 11
6.04712
 21
-0.373032
  0
LINE
  8
0
 10
6.04712
 20
-0.373032
 11
6.01183
 21
-0.187988
  0
LINE
  8
0
 10
6.01183
 20
-0.187988
 11
6
 21
0
  0
LINE
  8
0
 10
6
 20
0
 11
6.01183
 21
0.187988
  0
LINE
  8
0
 10
6.01183
 20
0.187988
 11
6.04712
 21
0.373032
  0
LINE
  8
0
 10
6.04712
 20
0.373032
 11
6.10533
 21
0.552185
  0
LINE
  8
0
 10
6.10533
 20
0.552185
 11
6.18553
 21
0.722626
  0
LINE
  8
0
 10
6.18553
 20
0.722626
 11
6.28647
 21
0.881668
  0
LINE
  8
0
 10
6.28647
 20
0.881668
 11
6.40654
 21
1.02681
  0
LINE
  8
0
 10
6.40654
 20
1.02681
 11
6.54385
 21
1.15576
  0
LINE
  8
0
 10
6.54385
 20
1.15576
 11
6.69626
 21
1.26648
  0
LINE
  8
0
 10
6.69626
 20
1.26648
 11
6.86133
 21
1.35724
  0
LINE
  8
0
 10
6.86133
 20
1.35724
 11
7.03647
 21
1.42657
  0
LINE
  8
0
 10
7.03647
 20
1.42657
 11
7.21892
 21
1.47342
  0
LINE
  8
0
 10
7.21892
 20
1.47342
 11
7.40581
 21
1.49704
  0
LINE
  8
0
 10
7.40581
 20
1.49704
 11
7.59418
 21
1.49704
  0
LINE
  8
0
 10
7.59418
 20
1.49704
 11
7.78107
 21
1.47342
  0
LINE
  8
0
 10
7.78107
 20
1.47342
 11
7.96352
 21
1.42657
  0
LINE
  8
0
 10
7.96352
 20
1.42657
 11
8.13866
 21
1.35724
  0
LINE
  8
0
 10
8.13866
 20
1.35724
 11
8.30373
 21
1.26648
  0
LINE
  8
0
 10
8.30373
 20
1.26648
 11
8.45613
 21
1.15576
  0
LINE
  8
0
 10
8.45613
 20
1.15576
 11
8.59344
 21
1.02681
  0
LINE
  8
0
 10
8.59344
 20
1.02681
 11
8.71352
 21
0.881668
  0
LINE
  8
0
 10
8.71352
 20
0.881668
 11
8.81445
 21
0.722626
  0
LINE
  8
0
 10
8.81445
 20
0.722626
 11
8.89465
 21
0.552185
  0
LINE
  8
0
 10
8.89465
 20
0.552185
 11
8.95287
 21
0.373032
  0
LINE
  8
0
 10
8.95287
 20
0.373032
 11
8.98816
 21
0.187988
  0
LINE
  8
0
 10
8.98816
 20
0.187988
 11
9
 21
0
  0
LINE
  8
0
 10
9
 20
0
 11
8.98816
 21
-0.187988
  0
LINE
  8
0
 10
8.98816
 20
-0.187988
 11
8.95287
 21
-0.373032
  0
LINE
  8
0
 10
8.95287
 20
-0.373032
 11
8.89465
 21
-0.552185
  0
LINE
  8
0
 10
8.89465
 20
-0.552185
 11
8.81445
 21
-0.722626
  0
LINE
  8
0
 10
8.81445
 20
-0.722626
 11
8.71352
 21
-0.881668
  0
LINE
  8
0
 10
8.71352
 20
-0.881668
 11
8.59344
 21
-1.02681
  0
LINE
  8
0
 10
8.59344
 20
-1.02681
 11
8.45613
 21
-1.15576
  0
LINE
  8
0
 10
8.45613
 20
-1.15576
 11
8.30373
 21
-1.26648
  0
LINE
  8
0
 10
8.30373
 20
-1.26648
 11
8.13866
 21
-1.35724
  0
LINE
  8
0
 10
8.13866
 20
-1.35724
 11
7.96352
 21
-1.42657
  0
LINE
  8
0
 10
7.96352
 20
-1.42657
 11
7.78107
 21
-1.47342
  0
LINE
  8
0
 10
7.78107
 20
-1.47342
 11
7.59418
 21
-1.49704
  0
LINE
  8
0
 10
7.59418
 20
-1.49704
 11
7.40581
 21
-1.49704
  0
LINE
  8
0
 10
-0.0941772
 20
-8.99704
 11
-0.281067
 21
-8.97342
  0
LINE
  8
0
 10
-0.281067
 20
-8.97342
 11
-0.463516
 21
-8.92657
  0
LINE
  8
0
 10
-0.463516
 20
-8.92657
 11
-0.638657
 21
-8.85724
  0
LINE
  8
0
 10
-0.638657
 20
-8.85724
 11
-0.803726
 21
-8.76648
  0
LINE
  8
0
 10
-0.803726
 20
-8.76648
 11
-0.956131
 21
-8.65576
  0
LINE
  8
0
 10
-0.956131
 20
-8.65576
 11
-1.09344
 21
-8.52681
  0
LINE
  8
0
 10
-1.09344
 20
-8.52681
 11
-1.21352
 21
-8.38167
  0
LINE
  8
0
 10
-1.21352
 20
-8.38167
 11
-1.31445
 21
-8.22263
  0
LINE
  8
0
 10
-1.31445
 20
-8.22263
 11
-1.39465
 21
-8.05219
  0
LINE
  8
0
 10
-1.39465
 20
-8.05219
 11
-1.45287
 21
-7.87303
  0
LINE
  8
0
 10
-1.45287
 20
-7.87303
 11
-1.48816
 21
-7.68799
  0
LINE
  8
0
 10
-1.48816
 20
-7.68799
 11
-1.5
 21
-7.5
  0
LINE
  8
0
 10
-1.5
 20
-7.5
 11
-1.48816
 21
-7.312
  0
LINE
  8
0
 10
-1.48816
 20
-7.312
 11
-1.45287
 21
-7.12695
  0
LINE
  8
0
 10
-1.45287
 20
-7.12695
 11
-1.39465
 21
-6.9478
  0
LINE
  8
0
 10
-1.39465
 20
-6.9478
 11
-1.31445
 21
-6.77736
  0
LINE
  8
0
 10
-1.31445
 20
-6.77736
 11
-1.21352
 21
-6.61832
  0
LINE
  8
0
 10
-1.21352
 20
-6.61832
 11
-1.09344
 21
-6.47318
  0
LINE
  8
0
 10
-1.09344
 20
-6.47318
 11
-0.956131
 21
-6.34422
  0
LINE
  8
0
 10
-0.956131
 20
-6.34422
 11
-0.803726
 21
-6.23351
  0
LINE
  8
0
 10
-0.803726
 20
-6.23351
 11
-0.638657
 21
-6.14275
  0
LINE
  8
0
 10
-0.638657
 20
-6.14275
 11
-0.463516
 21
-6.07341
  0
LINE
  8
0
 10
-0.463516
 20
-6.07341
 11
-0.281067
 21
-6.02657
  0
LINE
  8
0
 10
-0.281067
 20
-6.02657
 11
-0.0941772
 21
-6.00294
  0
LINE
  8
0
 10
-0.0941772
 20
-6.00294
 11
0.0941772
 21
-6.00294
  0
LINE
  8
0
 10
0.0941772
 20
-6.00294
 11
0.281067
 21
-6.02657
  0
LINE
  8
0
 10
0.281067
 20
-6.02657
 11
0.463516
 21
-6.07341
  0
LINE
  8
0
 10
0.463516
 20
-6.07341
 11
0.638657
 21
-6.14275
  0
LINE
  8
0
 10
0.638657
 20
-6.14275
 11
0.803726
 21
-6.23351
  0
LINE
  8
0
 10
0.803726
 20
-6.23351
 11
0.956131
 21
-6.34422
  0
LINE
  8
0
 10
0.956131
 20
-6.34422
 11
1.09344
 21
-6.47318
  0
LINE
  8
0
 10
1.09344
 20
-6.47318
 11
1.21352
 21
-6.61832
  0
LINE
  8
0
 10
1.21352
 20
-6.61832
 11
1.31445
 21
-6.77736
  0
LINE
  8
0
 10
1.31445
 20
-6.77736
 11
1.39465
 21
-6.9478
  0
LINE
  8
0
 10
1.39465
 20
-6.9478
 11
1.45287
 21
-7.12695
  0
LINE
  8
0
 10
1.45287
 20
-7.12695
 11
1.48816
 21
-7.312
  0
LINE
  8
0
 10
1.48816
 20
-7.312
 11
1.5
 21
-7.5
  0
LINE
  8
0
 10
1.5
 20
-7.5
 11
1.48816
 21
-7.68799
  0
LINE
  8
0
 10
1.48816
 20
-7.68799
 11
1.45287
 21
-7.87303
  0
LINE
  8
0
 10
1.45287
 20
-7.87303
 11
1.39465
 21
-8.05219
  0
LINE
  8
0
 10
1.39465
 20
-8.05219
 11
1.31445
 21
-8.22263
  0
LINE
  8
0
 10
1.31445
 20
-8.22263
 11
1.21352
 21
-8.38167
  0
LINE
  8
0
 10
1.21352
 20
-8.38167
 11
1.09344
 21
-8.52681
  0
LINE
  8
0
 10
1.09344
 20
-8.52681
 11
0.956131
 21
-8.65576
  0
LINE
  8
0
 10
0.956131
 20
-8.65576
 11
0.803726
 21
-8.76648
  0
LINE
  8
0
 10
0.803726
 20
-8.76648
 11
0.638657
 21
-8.85724
  0
LINE
  8
0
 10
0.638657
 20
-8.85724
 11
0.463516
 21
-8.92657
  0
LINE
  8
0
 10
0.463516
 20
-8.92657
 11
0.281067
 21
-8.97342
  0
LINE
  8
0
 10
0.281067
 20
-8.97342
 11
0.0941772
 21
-8.99704
  0
LINE
  8
0
 10
0.0941772
 20
-8.99704
 11
-0.0941772
 21
-8.99704
  0
LINE
  8
0
 10
-0.18837
 20
-17.9941
 11
-0.562134
 21
-17.9469
  0
LINE
  8
0
 10
-0.562134
 20
-17.9469
 11
-0.927048
 21
-17.8532
  0
LINE
  8
0
 10
-0.927048
 20
-17.8532
 11
-1.27733
 21
-17.7145
  0
LINE
  8
0
 10
-1.27733
 20
-17.7145
 11
-1.60747
 21
-17.533
  0
LINE
  8
0
 10
-1.60747
 20
-17.533
 11
-1.91226
 21
-17.3115
  0
LINE
  8
0
 10
-1.91226
 20
-17.3115
 11
-2.1869
 21
-17.0536
  0
LINE
  8
0
 10
-2.1869
 20
-17.0536
 11
-2.42705
 21
-16.7634
  0
LINE
  8
0
 10
-2.42705
 20
-16.7634
 11
-2.62891
 21
-16.4453
  0
LINE
  8
0
 10
-2.62891
 20
-16.4453
 11
-2.78932
 21
-16.1044
  0
LINE
  8
0
 10
-2.78932
 20
-16.1044
 11
-2.90575
 21
-15.7461
  0
LINE
  8
0
 10
-2.90575
 20
-15.7461
 11
-2.97633
 21
-15.376
  0
LINE
  8
0
 10
-2.97633
 20
-15.376
 11
-3
 21
-15
  0
LINE
  8
0
 10
-3
 20
-15
 11
-2.97633
 21
-14.624
  0
LINE
  8
0
 10
-2.97633
 20
-14.624
 11
-2.90575
 21
-14.2539
  0
LINE
  8
0
 10
-2.90575
 20
-14.2539
 11
-2.78932
 21
-13.8956
  0
LINE
  8
0
 10
-2.78932
 20
-13.8956
 11
-2.62891
 21
-13.5547
  0
LINE
  8
0
 10
-2.62891
 20
-13.5547
 11
-2.42705
 21
-13.2366
  0
LINE
  8
0
 10
-2.42705
 20
-13.2366
 11
-2.1869
 21
-12.9464
  0
LINE
  8
0
 10
-2.1869
 20
-12.9464
 11
-1.91226
 21
-12.6884
  0
LINE
  8
0
 10
-1.91226
 20
-12.6884
 11
-1.60747
 21
-12.467
  0
LINE
  8
0
 10
-1.60747
 20
-12.467
 11
-1.27733
 21
-12.2855
  0
LINE
  8
0
 10
-1.27733
 20
-12.2855
 11
-0.927048
 21
-12.1468
  0
LINE
  8
0
 10
-0.927048
 20
-12.1468
 11
-0.562134
 21
-12.0531
  0
LINE
  8
0
 10
-0.562134
 20
-12.0531
 11
-0.18837
 21
-12.0059
  0
LINE
  8
0
 10
-0.18837
 20
-12.0059
 11
0.18837
 21
-12.0059
  0
LINE
  8
0
 10
0.18837
 20
-12.0059
 11
0.562134
 21
-12.0531
  0
LINE
  8
0
 10
0.562134
 20
-12.0531
 11
0.927048
 21
-12.1468
  0
LINE
  8
0
 10
0.927048
 20
-12.1468
 11
1.27733
 21
-12.2855
  0
LINE
  8
0
 10
1.27733
 20
-12.2855
 11
1.60747
 21
-12.467
  0
LINE
  8
0
 10
1.60747
 20
-12.467
 11
1.91226
 21
-12.6884
  0
LINE
  8
0
 10
1.91226
 20
-12.6884
 11
2.1869
 21
-12.9464
  0
LINE
  8
0
 10
2.1869
 20
-12.9464
 11
2.42705
 21
-13.2366
  0
LINE
  8
0
 10
2.42705
 20
-13.2366
 11
2.62891
 21
-13.5547
  0
LINE
  8
0
 10
2.62891
 20
-13.5547
 11
2.78932
 21
-13.8956
  0
LINE
  8
0
 10
2.78932
 20
-13.8956
 11
2.90575
 21
-14.2539
  0
LINE
  8
0
 10
2.90575
 20
-14.2539
 11
2.97633
 21
-14.624
  0
LINE
  8
0
 10
2.97633
 20
-14.624
 11
3
 21
-15
  0
LINE
  8
0
 10
3
 20
-15
 11
2.97633
 21
-15.376
  0
LINE
  8
0
 10
2.97633
 20
-15.376
 11
2.90575
 21
-15.7461
  0
LINE
  8
0
 10
2.90575
 20
-15.7461
 11
2.78932
 21
-16.1044
  0
LINE
  8
0
 10
2.78932
 20
-16.1044
 11
2.62891
 21
-16.4453
  0
LINE
  8
0
 10
2.62891
 20
-16.4453
 11
2.42705
 21
-16.7634
  0
LINE
  8
0
 10
2.42705
 20
-16.7634
 11
2.1869
 21
-17.0536
  0
LINE
  8
0
 10
2.1869
 20
-17.0536
 11
1.91226
 21
-17.3115
  0
LINE
  8
0
 10
1.91226
 20
-17.3115
 11
1.60747
 21
-17.533
  0
LINE
  8
0
 10
1.60747
 20
-17.533
 11
1.27733
 21
-17.7145
  0
LINE
  8
0
 10
1.27733
 20
-17.7145
 11
0.927048
 21
-17.8532
  0
LINE
  8
0
 10
0.927048
 20
-17.8532
 11
0.562134
 21
-17.9469
  0
LINE
  8
0
 10
0.562134
 20
-17.9469
 11
0.18837
 21
-17.9941
  0
LINE
  8
0
 10
0.18837
 20
-17.9941
 11
-0.18837
 21
-17.9941
  0
LINE
  8
0
 10
29.8116
 20
12.0059
 11
29.4379
 21
12.0531
  0
LINE
  8
0
 10
29.4379
 20
12.0531
 11
29.0729
 21
12.1468
  0
LINE
  8
0
 10
29.0729
 20
12.1468
 11
28.7227
 21
12.2855
  0
LINE
  8
0
 10
28.7227
 20
12.2855
 11
28.3925
 21
12.467
  0
LINE
  8
0
 10
28.3925
 20
12.467
 11
28.0877
 21
12.6884
  0
LINE
  8
0
 10
28.0877
 20
12.6884
 11
27.8131
 21
12.9464
  0
LINE
  8
0
 10
27.8131
 20
12.9464
 11
27.5729
 21
13.2366
  0
LINE
  8
0
 10
27.5729
 20
13.2366
 11
27.3711
 21
13.5547
  0
LINE
  8
0
 10
27.3711
 20
13.5547
 11
27.2107
 21
13.8956
  0
LINE
  8
0
 10
27.2107
 20
13.8956
 11
27.0942
 21
14.2539
  0
LINE
  8
0
 10
27.0942
 20
14.2539
 11
27.0237
 21
14.624
  0
LINE
  8
0
 10
27.0237
 20
14.624
 11
27
 21
15
  0
LINE
  8
0
 10
27
 20
15
 11
27.0237
 21
15.376
  0
LINE
  8
0
 10
27.0237
 20
15.376
 11
27.0942
 21
15.7461
  0
LINE
  8
0
 10
27.0942
 20
15.7461
 11
27.2107
 21
16.1044
  0
LINE
  8
0
 10
27.2107
 20
16.1044
 11
27.3711
 21
16.4453
  0
LINE
  8
0
 10
27.3711
 20
16.4453
 11
27.5729
 21
16.7634
  0
LINE
  8
0
 10
27.5729
 20
16.7634
 11
27.8131
 21
17.0536
  0
LINE
  8
0
 10
27.8131
 20
17.0536
 11
28.0877
 21
17.3115
  0
LINE
  8
0
 10
28.0877
 20
17.3115
 11
28.3925
 21
17.533
  0
LINE
  8
0
 10
28.3925
 20
17.533
 11
28.7227
 21
17.7145
  0
LINE
  8
0
 10
28.7227
 20
17.7145
 11
29.0729
 21
17.8532
  0
LINE
  8
0
 10
29.0729
 20
17.8532
 11
29.4379
 21
17.9469
  0
LINE
  8
0
 10
29.4379
 20
17.9469
 11
29.8116
 21
17.9941
  0
LINE
  8
0
 10
29.8116
 20
17.9941
 11
30.1884
 21
17.9941
  0
LINE
  8
0
 10
30.1884
 20
17.9941
 11
30.5621
 21
17.9469
  0
LINE
  8
0
 10
30.5621
 20
17.9469
 11
30.927
 21
17.8532
  0
LINE
  8
0
 10
30.927
 20
17.8532
 11
31.2773
 21
17.7145
  0
LINE
  8
0
 10
31.2773
 20
17.7145
 11
31.6075
 21
17.533
  0
LINE
  8
0
 10
31.6075
 20
17.533
 11
31.9123
 21
17.3115
  0
LINE
  8
0
 10
31.9123
 20
17.3115
 11
32.1869
 21
17.0536
  0
LINE
  8
0
 10
32.1869
 20
17.0536
 11
32.427
 21
16.7634
  0
LINE
  8
0
 10
32.427
 20
16.7634
 11
32.6289
 21
16.4453
  0
LINE
  8
0
 10
32.6289
 20
16.4453
 11
32.7893
 21
16.1044
  0
LINE
  8
0
 10
32.7893
 20
16.1044
 11
32.9057
 21
15.7461
  0
LINE
  8
0
 10
32.9057
 20
15.7461
 11
32.9763
 21
15.376
  0
LINE
  8
0
 10
32.9763
 20
15.376
 11
33
 21
15
  0
LINE
  8
0
 10
33
 20
15
 11
32.9763
 21
14.624
  0
LINE
  8
0
 10
32.9763
 20
14.624
 11
32.9057
 21
14.2539
  0
LINE
  8
0
 10
32.9057
 20
14.2539
 11
32.7893
 21
13.8956
  0
LINE
  8
0
 10
32.7893
 20
13.8956
 11
32.6289
 21
13.5547
  0
LINE
  8
0
 10
32.6289
 20
13.5547
 11
32.427
 21
13.2366
  0
LINE
  8
0
 10
32.427
 20
13.2366
 11
32.1869
 21
12.9464
  0
LINE
  8
0
 10
32.1869
 20
12.9464
 11
31.9123
 21
12.6884
  0
LINE
  8
0
 10
31.9123
 20
12.6884
 11
31.6075
 21
12.467
  0
LINE
  8
0
 10
31.6075
 20
12.467
 11
31.2773
 21
12.2855
  0
LINE
  8
0
 10
31.2773
 20
12.2855
 11
30.927
 21
12.1468
  0
LINE
  8
0
 10
30.927
 20
12.1468
 11
30.5621
 21
12.0531
  0
LINE
  8
0
 10
30.5621
 20
12.0531
 11
30.1884
 21
12.0059
  0
LINE
  8
0
 10
30.1884
 20
12.0059
 11
29.8116
 21
12.0059
  0
LINE
  8
0
 10
-30.1884
 20
12.0059
 11
-30.5621
 21
12.0531
  0
LINE
  8
0
 10
-30.5621
 20
12.0531
 11
-30.927
 21
12.1468
  0
LINE
  8
0
 10
-30.927
 20
12.1468
 11
-31.2773
 21
12.2855
  0
LINE
  8
0
 10
-31.2773
 20
12.2855
 11
-31.6075
 21
12.467
  0
LINE
  8
0
 10
-31.6075
 20
12.467
 11
-31.9123
 21
12.6884
  0
LINE
  8
0
 10
-31.9123
 20
12.6884
 11
-32.1869
 21
12.9464
  0
LINE
  8
0
 10
-32.1869
 20
12.9464
 11
-32.427
 21
13.2366
  0
LINE
  8
0
 10
-32.427
 20
13.2366
 11
-32.6289
 21
13.5547
  0
LINE
  8
0
 10
-32.6289
 20
13.5547
 11
-32.7893
 21
13.8956
  0
LINE
  8
0
 10
-32.7893
 20
13.8956
 11
-32.9057
 21
14.2539
  0
LINE
  8
0
 10
-32.9057
 20
14.2539
 11
-32.9763
 21
14.624
  0
LINE
  8
0
 10
-32.9763
 20
14.624
 11
-33
 21
15
  0
LINE
  8
0
 10
-33
 20
15
 11
-32.9763
 21
15.376
  0
LINE
  8
0
 10
-32.9763
 20
15.376
 11
-32.9057
 21
15.7461
  0
LINE
  8
0
 10
-32.9057
 20
15.7461
 11
-32.7893
 21
16.1044
  0
LINE
  8
0
 10
-32.7893
 20
16.1044
 11
-32.6289
 21
16.4453
  0
LINE
  8
0
 10
-32.6289
 20
16.4453
 11
-32.427
 21
16.7634
  0
LINE
  8
0
 10
-32.427
 20
16.7634
 11
-32.1869
 21
17.0536
  0
LINE
  8
0
 10
-32.1869
 20
17.0536
 11
-31.9123
 21
17.3115
  0
LINE
  8
0
 10
-31.9123
 20
17.3115
 11
-31.6075
 21
17.533
  0
LINE
  8
0
 10
-31.6075
 20
17.533
 11
-31.2773
 21
17.7145
  0
LINE
  8
0
 10
-31.2773
 20
17.7145
 11
-30.927
 21
17.8532
  0
LINE
  8
0
 10
-30.927
 20
17.8532
 11
-30.5621
 21
17.9469
  0
LINE
  8
0
 10
-30.5621
 20
17.9469
 11
-30.1884
 21
17.9941
  0
LINE
  8
0
 10
-30.1884
 20
17.9941
 11
-29.8116
 21
17.9941
  0
LINE
  8
0
 10
-29.8116
 20
17.9941
 11
-29.4379
 21
17.9469
  0
LINE
  8
0
 10
-29.4379
 20
17.9469
 11
-29.0729
 21
17.8532
  0
LINE
  8
0
 10
-29.0729
 20
17.8532
 11
-28.7227
 21
17.7145
  0
LINE
  8
0
 10
-28.7227
 20
17.7145
 11
-28.3925
 21
17.533
  0
LINE
  8
0
 10
-28.3925
 20
17.533
 11
-28.0877
 21
17.3115
  0
LINE
  8
0
 10
-28.0877
 20
17.3115
 11
-27.8131
 21
17.0536
  0
LINE
  8
0
 10
-27.8131
 20
17.0536
 11
-27.5729
 21
16.7634
  0
LINE
  8
0
 10
-27.5729
 20
16.7634
 11
-27.3711
 21
16.4453
  0
LINE
  8
0
 10
-27.3711
 20
16.4453
 11
-27.2107
 21
16.1044
  0
LINE
  8
0
 10
-27.2107
 20
16.1044
 11
-27.0942
 21
15.7461
  0
LINE
  8
0
 10
-27.0942
 20
15.7461
 11
-27.0237
 21
15.376
  0
LINE
  8
0
 10
-27.0237
 20
15.376
 11
-27
 21
15
  0
LINE
  8
0
 10
-27
 20
15
 11
-27.0237
 21
14.624
  0
LINE
  8
0
 10
-27.0237
 20
14.624
 11
-27.0942
 21
14.2539
  0
LINE
  8
0
 10
-27.0942
 20
14.2539
 11
-27.2107
 21
13.8956
  0
LINE
  8
0
 10
-27.2107
 20
13.8956
 11
-27.3711
 21
13.5547
  0
LINE
  8
0
 10
-27.3711
 20
13.5547
 11
-27.5729
 21
13.2366
  0
LINE
  8
0
 10
-27.5729
 20
13.2366
 11
-27.8131
 21
12.9464
  0
LINE
  8
0
 10
-27.8131
 20
12.9464
 11
-28.0877
 21
12.6884
  0
LINE
  8
0
 10
-28.0877
 20
12.6884
 11
-28.3925
 21
12.467
  0
LINE
  8
0
 10
-28.3925
 20
12.467
 11
-28.7227
 21
12.2855
  0
LINE
  8
0
 10
-28.7227
 20
12.2855
 11
-29.0729
 21
12.1468
  0
LINE
  8
0
 10
-29.0729
 20
12.1468
 11
-29.4379
 21
12.0531
  0
LINE
  8
0
 10
-29.4379
 20
12.0531
 11
-29.8116
 21
12.0059
  0
LINE
  8
0
 10
-29.8116
 20
12.0059
 11
-30.1884
 21
12.0059
  0
LINE
  8
0
 10
-30.2502
 20
-1.47899
 11
-30.4335
 21
-1.43597
  0
LINE
  8
0
 10
-30.4335
 20
-1.43597
 11
-30.6101
 21
-1.37032
  0
LINE
  8
0
 10
-30.6101
 20
-1.37032
 11
-30.777
 21
-1.28304
  0
LINE
  8
0
 10
-30.777
 20
-1.28304
 11
-30.9317
 21
-1.17554
  0
LINE
  8
0
 10
-30.9317
 20
-1.17554
 11
-31.0717
 21
-1.04948
  0
LINE
  8
0
 10
-31.0717
 20
-1.04948
 11
-31.1948
 21
-0.906891
  0
LINE
  8
0
 10
-31.1948
 20
-0.906891
 11
-31.299
 21
-0.75
  0
LINE
  8
0
 10
-31.299
 20
-0.75
 11
-31.3828
 21
-0.581268
  0
LINE
  8
0
 10
-31.3828
 20
-0.581268
 11
-31.4447
 21
-0.403366
  0
LINE
  8
0
 10
-31.4447
 20
-0.403366
 11
-31.4839
 21
-0.219116
  0
LINE
  8
0
 10
-31.4839
 20
-0.219116
 11
-31.4997
 21
-0.0314026
  0
LINE
  8
0
 10
-31.4997
 20
-0.0314026
 11
-31.4918
 21
0.156784
  0
LINE
  8
0
 10
-31.4918
 20
0.156784
 11
-31.4604
 21
0.342514
  0
LINE
  8
0
 10
-31.4604
 20
0.342514
 11
-31.4059
 21
0.522858
  0
LINE
  8
0
 10
-31.4059
 20
0.522858
 11
-31.3293
 21
0.694931
  0
LINE
  8
0
 10
-31.3293
 20
0.694931
 11
-31.2317
 21
0.856064
  0
LINE
  8
0
 10
-31.2317
 20
0.856064
 11
-31.1147
 21
1.00369
  0
LINE
  8
0
 10
-31.1147
 20
1.00369
 11
-30.9801
 21
1.13548
  0
LINE
  8
0
 10
-30.9801
 20
1.13548
 11
-30.8301
 21
1.24937
  0
LINE
  8
0
 10
-30.8301
 20
1.24937
 11
-30.6669
 21
1.34357
  0
LINE
  8
0
 10
-30.6669
 20
1.34357
 11
-30.4933
 21
1.41655
  0
LINE
  8
0
 10
-30.4933
 20
1.41655
 11
-30.3119
 21
1.46721
  0
LINE
  8
0
 10
-30.3119
 20
1.46721
 11
-30.1255
 21
1.49474
  0
LINE
  8
0
 10
-30.1255
 20
1.49474
 11
-29.9372
 21
1.49867
  0
LINE
  8
0
 10
-29.9372
 20
1.49867
 11
-29.7498
 21
1.47899
  0
LINE
  8
0
 10
-29.7498
 20
1.47899
 11
-29.5665
 21
1.43597
  0
LINE
  8
0
 10
-29.5665
 20
1.43597
 11
-29.3899
 21
1.37032
  0
LINE
  8
0
 10
-29.3899
 20
1.37032
 11
-29.2229
 21
1.28304
  0
LINE
  8
0
 10
-29.2229
 20
1.28304
 11
-29.0683
 21
1.17554
  0
LINE
  8
0
 10
-29.0683
 20
1.17554
 11
-28.9283
 21
1.04948
  0
LINE
  8
0
 10
-28.9283
 20
1.04948
 11
-28.8052
 21
0.906891
  0
LINE
  8
0
 10
-28.8052
 20
0.906891
 11
-28.701
 21
0.75
  0
LINE
  8
0
 10
-28.701
 20
0.75
 11
-28.6172
 21
0.581268
  0
LINE
  8
0
 10
-28.6172
 20
0.581268
 11
-28.5553
 21
0.403366
  0
LINE
  8
0
 10
-28.5553
 20
0.403366
 11
-28.5161
 21
0.219116
  0
LINE
  8
0
 10
-28.5161
 20
0.219116
 11
-28.5003
 21
0.0314026
  0
LINE
  8
0
 10
-28.5003
 20
0.0314026
 11
-28.5082
 21
-0.156784
  0
LINE
  8
0
 10
-28.5082
 20
-0.156784
 11
-28.5396
 21
-0.342514
  0
LINE
  8
0
 10
-28.5396
 20
-0.342514
 11
-28.5941
 21
-0.522858
  0
LINE
  8
0
 10
-28.5941
 20
-0.522858
 11
-28.6707
 21
-0.694931
  0
LINE
  8
0
 10
-28.6707
 20
-0.694931
 11
-28.7683
 21
-0.856064
  0
LINE
  8
0
 10
-28.7683
 20
-0.856064
 11
-28.8853
 21
-1.00369
  0
LINE
  8
0
 10
-28.8853
 20
-1.00369
 11
-29.0199
 21
-1.13548
  0
LINE
  8
0
 10
-29.0199
 20
-1.13548
 11
-29.1699
 21
-1.24937
  0
LINE
  8
0
 10
-29.1699
 20
-1.24937
 11
-29.333
 21
-1.34357
  0
LINE
  8
0
 10
-29.333
 20
-1.34357
 11
-29.5067
 21
-1.41655
  0
LINE
  8
0
 10
-29.5067
 20
-1.41655
 11
-29.6881
 21
-1.46721
  0
LINE
  8
0
 10
-29.6881
 20
-1.46721
 11
-29.8745
 21
-1.49474
  0
LINE
  8
0
 10
-29.8745
 20
-1.49474
 11
-30.0628
 21
-1.49867
  0
LINE
  8
0
 10
-30.0628
 20
-1.49867
 11
-30.2502
 21
-1.47899
  0
LINE
  8
0
 10
29.7498
 20
-1.47899
 11
29.5665
 21
-1.43597
  0
LINE
  8
0
 10
29.5665
 20
-1.43597
 11
29.3899
 21
-1.37032
  0
LINE
  8
0
 10
29.3899
 20
-1.37032
 11
29.2229
 21
-1.28304
  0
LINE
  8
0
 10
29.2229
 20
-1.28304
 11
29.0683
 21
-1.17554
  0
LINE
  8
0
 10
29.0683
 20
-1.17554
 11
28.9283
 21
-1.04948
  0
LINE
  8
0
 10
28.9283
 20
-1.04948
 11
28.8052
 21
-0.906891
  0
LINE
  8
0
 10
28.8052
 20
-0.906891
 11
28.701
 21
-0.75
  0
LINE
  8
0
 10
28.701
 20
-0.75
 11
28.6172
 21
-0.581268
  0
LINE
  8
0
 10
28.6172
 20
-0.581268
 11
28.5553
 21
-0.403366
  0
LINE
  8
0
 10
28.5553
 20
-0.403366
 11
28.5161
 21
-0.219116
  0
LINE
  8
0
 10
28.5161
 20
-0.219116
 11
28.5003
 21
-0.0314026
  0
LINE
  8
0
 10
28.5003
 20
-0.0314026
 11
28.5082
 21
0.156784
  0
LINE
  8
0
 10
28.5082
 20
0.156784
 11
28.5396
 21
0.342514
  0
LINE
  8
0
 10
28.5396
 20
0.342514
 11
28.5941
 21
0.522858
  0
LINE
  8
0
 10
28.5941
 20
0.522858
 11
28.6707
 21
0.694931
  0
LINE
  8
0
 10
28.6707
 20
0.694931
 11
28.7683
 21
0.856064
  0
LINE
  8
0
 10
28.7683
 20
0.856064
 11
28.8853
 21
1.00369
  0
LINE
  8
0
 10
28.8853
 20
1.00369
 11
29.0199
 21
1.13548
  0
LINE
  8
0
 10
29.0199
 20
1.13548
 11
29.1699
 21
1.24937
  0
LINE
  8
0
 10
29.1699
 20
1.24937
 11
29.333
 21
1.34357
  0
LINE
  8
0
 10
29.333
 20
1.34357
 11
29.5067
 21
1.41655
  0
LINE
  8
0
 10
29.5067
 20
1.41655
 11
29.6881
 21
1.46721
  0
LINE
  8
0
 10
29.6881
 20
1.46721
 11
29.8745
 21
1.49474
  0
LINE
  8
0
 10
29.8745
 20
1.49474
 11
30.0628
 21
1.49867
  0
LINE
  8
0
 10
30.0628
 20
1.49867
 11
30.2502
 21
1.47899
  0
LINE
  8
0
 10
30.2502
 20
1.47899
 11
30.4335
 21
1.43597
  0
LINE
  8
0
 10
30.4335
 20
1.43597
 11
30.6101
 21
1.37032
  0
LINE
  8
0
 10
30.6101
 20
1.37032
 11
30.777
 21
1.28304
  0
LINE
  8
0
 10
30.777
 20
1.28304
 11
30.9317
 21
1.17554
  0
LINE
  8
0
 10
30.9317
 20
1.17554
 11
31.0717
 21
1.04948
  0
LINE
  8
0
 10
31.0717
 20
1.04948
 11
31.1948
 21
0.906891
  0
LINE
  8
0
 10
31.1948
 20
0.906891
 11
31.299
 21
0.75
  0
LINE
  8
0
 10
31.299
 20
0.75
 11
31.3828
 21
0.581268
  0
LINE
  8
0
 10
31.3828
 20
0.581268
 11
31.4447
 21
0.403366
  0
LINE
  8
0
 10
31.4447
 20
0.403366
 11
31.4839
 21
0.219116
  0
LINE
  8
0
 10
31.4839
 20
0.219116
 11
31.4997
 21
0.0314026
  0
LINE
  8
0
 10
31.4997
 20
0.0314026
 11
31.4918
 21
-0.156784
  0
LINE
  8
0
 10
31.4918
 20
-0.156784
 11
31.4604
 21
-0.342514
  0
LINE
  8
0
 10
31.4604
 20
-0.342514
 11
31.4059
 21
-0.522858
  0
LINE
  8
0
 10
31.4059
 20
-0.522858
 11
31.3293
 21
-0.694931
  0
LINE
  8
0
 10
31.3293
 20
-0.694931
 11
31.2317
 21
-0.856064
  0
LINE
  8
0
 10
31.2317
 20
-0.856064
 11
31.1147
 21
-1.00369
  0
LINE
  8
0
 10
31.1147
 20
-1.00369
 11
30.9801
 21
-1.13548
  0
LINE
  8
0
 10
30.9801
 20
-1.13548
 11
30.8301
 21
-1.24937
  0
LINE
  8
0
 10
30.8301
 20
-1.24937
 11
30.6669
 21
-1.34357
  0
LINE
  8
0
 10
30.6669
 20
-1.34357
 11
30.4933
 21
-1.41655
  0
LINE
  8
0
 10
30.4933
 20
-1.41655
 11
30.3119
 21
-1.46721
  0
LINE
  8
0
 10
30.3119
 20
-1.46721
 11
30.1255
 21
-1.49474
  0
LINE
  8
0
 10
30.1255
 20
-1.49474
 11
29.9372
 21
-1.49867
  0
LINE
  8
0
 10
29.9372
 20
-1.49867
 11
29.7498
 21
-1.47899
  0
LINE
  8
0
 10
-30.1884
 20
-17.9941
 11
-30.5621
 21
-17.9469
  0
LINE
  8
0
 10
-30.5621
 20
-17.9469
 11
-30.927
 21
-17.8532
  0
LINE
  8
0
 10
-30.927
 20
-17.8532
 11
-31.2773
 21
-17.7145
  0
LINE
  8
0
 10
-31.2773
 20
-17.7145
 11
-31.6075
 21
-17.533
  0
LINE
  8
0
 10
-31.6075
 20
-17.533
 11
-31.9123
 21
-17.3115
  0
LINE
  8
0
 10
-31.9123
 20
-17.3115
 11
-32.1869
 21
-17.0536
  0
LINE
  8
0
 10
-32.1869
 20
-17.0536
 11
-32.427
 21
-16.7634
  0
LINE
  8
0
 10
-32.427
 20
-16.7634
 11
-32.6289
 21
-16.4453
  0
LINE
  8
0
 10
-32.6289
 20
-16.4453
 11
-32.7893
 21
-16.1044
  0
LINE
  8
0
 10
-32.7893
 20
-16.1044
 11
-32.9057
 21
-15.7461
  0
LINE
  8
0
 10
-32.9057
 20
-15.7461
 11
-32.9763
 21
-15.376
  0
LINE
  8
0
 10
-32.9763
 20
-15.376
 11
-33
 21
-15
  0
LINE
  8
0
 10
-33
 20
-15
 11
-32.9763
 21
-14.624
  0
LINE
  8
0
 10
-32.9763
 20
-14.624
 11
-32.9057
 21
-14.2539
  0
LINE
  8
0
 10
-32.9057
 20
-14.2539
 11
-32.7893
 21
-13.8956
  0
LINE
  8
0
 10
-32.7893
 20
-13.8956
 11
-32.6289
 21
-13.5547
  0
LINE
  8
0
 10
-32.6289
 20
-13.5547
 11
-32.427
 21
-13.2366
  0
LINE
  8
0
 10
-32.427
 20
-13.2366
 11
-32.1869
 21
-12.9464
  0
LINE
  8
0
 10
-32.1869
 20
-12.9464
 11
-31.9123
 21
-12.6884
  0
LINE
  8
0
 10
-31.9123
 20
-12.6884
 11
-31.6075
 21
-12.467
  0
LINE
  8
0
 10
-31.6075
 20
-12.467
 11
-31.2773
 21
-12.2855
  0
LINE
  8
0
 10
-31.2773
 20
-12.2855
 11
-30.927
 21
-12.1468
  0
LINE
  8
0
 10
-30.927
 20
-12.1468
 11
-30.5621
 21
-12.0531
  0
LINE
  8
0
 10
-30.5621
 20
-12.0531
 11
-30.1884
 21
-12.0059
  0
LINE
  8
0
 10
-30.1884
 20
-12.0059
 11
-29.8116
 21
-12.0059
  0
LINE
  8
0
 10
-29.8116
 20
-12.0059
 11
-29.4379
 21
-12.0531
  0
LINE
  8
0
 10
-29.4379
 20
-12.0531
 11
-29.0729
 21
-12.1468
  0
LINE
  8
0
 10
-29.0729
 20
-12.1468
 11
-28.7227
 21
-12.2855
  0
LINE
  8
0
 10
-28.7227
 20
-12.2855
 11
-28.3925
 21
-12.467
  0
LINE
  8
0
 10
-28.3925
 20
-12.467
 11
-28.0877
 21
-12.6884
  0
LINE
  8
0
 10
-28.0877
 20
-12.6884
 11
-27.8131
 21
-12.9464
  0
LINE
  8
0
 10
-27.8131
 20
-12.9464
 11
-27.5729
 21
-13.2366
  0
LINE
  8
0
 10
-27.5729
 20
-13.2366
 11
-27.3711
 21
-13.5547
  0
LINE
  8
0
 10
-27.3711
 20
-13.5547
 11
-27.2107
 21
-13.8956
  0
LINE
  8
0
 10
-27.2107
 20
-13.8956
 11
-27.0942
 21
-14.2539
  0
LINE
  8
0
 10
-27.0942
 20
-14.2539
 11
-27.0237
 21
-14.624
  0
LINE
  8
0
 10
-27.0237
 20
-14.624
 11
-27
 21
-15
  0
LINE
  8
0
 10
-27
 20
-15
 11
-27.0237
 21
-15.376
  0
LINE
  8
0
 10
-27.0237
 20
-15.376
 11
-27.0942
 21
-15.7461
  0
LINE
  8
0
 10
-27.0942
 20
-15.7461
 11
-27.2107
 21
-16.1044
  0
LINE
  8
0
 10
-27.2107
 20
-16.1044
 11
-27.3711
 21
-16.4453
  0
LINE
  8
0
 10
-27.3711
 20
-16.4453
 11
-27.5729
 21
-16.7634
  0
LINE
  8
0
 10
-27.5729
 20
-16.7634
 11
-27.8131
 21
-17.0536
  0
LINE
  8
0
 10
-27.8131
 20
-17.0536
 11
-28.0877
 21
-17.3115
  0
LINE
  8
0
 10
-28.0877
 20
-17.3115
 11
-28.3925
 21
-17.533
  0
LINE
  8
0
 10
-28.3925
 20
-17.533
 11
-28.7227
 21
-17.7145
  0
LINE
  8
0
 10
-28.7227
 20
-17.7145
 11
-29.0729
 21
-17.8532
  0
LINE
  8
0
 10
-29.0729
 20
-17.8532
 11
-29.4379
 21
-17.9469
  0
LINE
  8
0
 10
-29.4379
 20
-17.9469
 11
-29.8116
 21
-17.9941
  0
LINE
  8
0
 10
-29.8116
 20
-17.9941
 11
-30.1884
 21
-17.9941
  0
LINE
  8
0
 10
29.8116
 20
-17.9941
 11
29.4379
 21
-17.9469
  0
LINE
  8
0
 10
29.4379
 20
-17.9469
 11
29.0729
 21
-17.8532
  0
LINE
  8
0
 10
29.0729
 20
-17.8532
 11
28.7227
 21
-17.7145
  0
LINE
  8
0
 10
28.7227
 20
-17.7145
 11
28.3925
 21
-17.533
  0
LINE
  8
0
 10
28.3925
 20
-17.533
 11
28.0877
 21
-17.3115
  0
LINE
  8
0
 10
28.0877
 20
-17.3115
 11
27.8131
 21
-17.0536
  0
LINE
  8
0
 10
27.8131
 20
-17.0536
 11
27.5729
 21
-16.7634
  0
LINE
  8
0
 10
27.5729
 20
-16.7634
 11
27.3711
 21
-16.4453
  0
LINE
  8
0
 10
27.3711
 20
-16.4453
 11
27.2107
 21
-16.1044
  0
LINE
  8
0
 10
27.2107
 20
-16.1044
 11
27.0942
 21
-15.7461
  0
LINE
  8
0
 10
27.0942
 20
-15.7461
 11
27.0237
 21
-15.376
  0
LINE
  8
0
 10
27.0237
 20
-15.376
 11
27
 21
-15
  0
LINE
  8
0
 10
27
 20
-15
 11
27.0237
 21
-14.624
  0
LINE
  8
0
 10
27.0237
 20
-14.624
 11
27.0942
 21
-14.2539
  0
LINE
  8
0
 10
27.0942
 20
-14.2539
 11
27.2107
 21
-13.8956
  0
LINE
  8
0
 10
27.2107
 20
-13.8956
 11
27.3711
 21
-13.5547
  0
LINE
  8
0
 10
27.3711
 20
-13.5547
 11
27.5729
 21
-13.2366
  0
LINE
  8
0
 10
27.5729
 20
-13.2366
 11
27.8131
 21
-12.9464
  0
LINE
  8
0
 10
27.8131
 20
-12.9464
 11
28.0877
 21
-12.6884
  0
LINE
  8
0
 10
28.0877
 20
-12.6884
 11
28.3925
 21
-12.467
  0
LINE
  8
0
 10
28.3925
 20
-12.467
 11
28.7227
 21
-12.2855
  0
LINE
  8
0
 10
28.7227
 20
-12.2855
 11
29.0729
 21
-12.1468
  0
LINE
  8
0
 10
29.0729
 20
-12.1468
 11
29.4379
 21
-12.0531
  0
LINE
  8
0
 10
29.4379
 20
-12.0531
 11
29.8116
 21
-12.0059
  0
LINE
  8
0
 10
29.8116
 20
-12.0059
 11
30.1884
 21
-12.0059
  0
LINE
  8
0
 10
30.1884
 20
-12.0059
 11
30.5621
 21
-12.0531
  0
LINE
  8
0
 10
30.5621
 20
-12.0531
 11
30.927
 21
-12.1468
  0
LINE
  8
0
 10
30.927
 20
-12.1468
 11
31.2773
 21
-12.2855
  0
LINE
  8
0
 10
31.2773
 20
-12.2855
 11
31.6075
 21
-12.467
  0
LINE
  8
0
 10
31.6075
 20
-12.467
 11
31.9123
 21
-12.6884
  0
LINE
  8
0
 10
31.9123
 20
-12.6884
 11
32.1869
 21
-12.9464
  0
LINE
  8
0
 10
32.1869
 20
-12.9464
 11
32.427
 21
-13.2366
  0
LINE
  8
0
 10
32.427
 20
-13.2366
 11
32.6289
 21
-13.5547
  0
LINE
  8
0
 10
32.6289
 20
-13.5547
 11
32.7893
 21
-13.8956
  0
LINE
  8
0
 10
32.7893
 20
-13.8956
 11
32.9057
 21
-14.2539
  0
LINE
  8
0
 10
32.9057
 20
-14.2539
 11
32.9763
 21
-14.624
  0
LINE
  8
0
 10
32.9763
 20
-14.624
 11
33
 21
-15
  0
LINE
  8
0
 10
33
 20
-15
 11
32.9763
 21
-15.376
  0
LINE
  8
0
 10
32.9763
 20
-15.376
 11
32.9057
 21
-15.7461
  0
LINE
  8
0
 10
32.9057
 20
-15.7461
 11
32.7893
 21
-16.1044
  0
LINE
  8
0
 10
32.7893
 20
-16.1044
 11
32.6289
 21
-16.4453
  0
LINE
  8
0
 10
32.6289
 20
-16.4453
 11
32.427
 21
-16.7634
  0
LINE
  8
0
 10
32.427
 20
-16.7634
 11
32.1869
 21
-17.0536
  0
LINE
  8
0
 10
32.1869
 20
-17.0536
 11
31.9123
 21
-17.3115
  0
LINE
  8
0
 10
31.9123
 20
-17.3115
 11
31.6075
 21
-17.533
  0
LINE
  8
0
 10
31.6075
 20
-17.533
 11
31.2773
 21
-17.7145
  0
LINE
  8
0
 10
31.2773
 20
-17.7145
 11
30.927
 21
-17.8532
  0
LINE
  8
0
 10
30.927
 20
-17.8532
 11
30.5621
 21
-17.9469
  0
LINE
  8
0
 10
30.5621
 20
-17.9469
 11
30.1884
 21
-17.9941
  0
LINE
  8
0
 10
30.1884
 20
-17.9941
 11
29.8116
 21
-17.9941
  0
LINE
  8
0
 10
-15.1884
 20
-32.9941
 11
-15.5621
 21
-32.9469
  0
LINE
  8
0
 10
-15.5621
 20
-32.9469
 11
-15.927
 21
-32.8532
  0
LINE
  8
0
 10
-15.927
 20
-32.8532
 11
-16.2773
 21
-32.7145
  0
LINE
  8
0
 10
-16.2773
 20
-32.7145
 11
-16.6075
 21
-32.533
  0
LINE
  8
0
 10
-16.6075
 20
-32.533
 11
-16.9123
 21
-32.3115
  0
LINE
  8
0
 10
-16.9123
 20
-32.3115
 11
-17.1869
 21
-32.0536
  0
LINE
  8
0
 10
-17.1869
 20
-32.0536
 11
-17.427
 21
-31.7634
  0
LINE
  8
0
 10
-17.427
 20
-31.7634
 11
-17.6289
 21
-31.4453
  0
LINE
  8
0
 10
-17.6289
 20
-31.4453
 11
-17.7893
 21
-31.1044
  0
LINE
  8
0
 10
-17.7893
 20
-31.1044
 11
-17.9057
 21
-30.7461
  0
LINE
  8
0
 10
-17.9057
 20
-30.7461
 11
-17.9763
 21
-30.376
  0
LINE
  8
0
 10
-17.9763
 20
-30.376
 11
-18
 21
-30
  0
LINE
  8
0
 10
-18
 20
-30
 11
-17.9763
 21
-29.624
  0
LINE
  8
0
 10
-17.9763
 20
-29.624
 11
-17.9057
 21
-29.2539
  0
LINE
  8
0
 10
-17.9057
 20
-29.2539
 11
-17.7893
 21
-28.8956
  0
LINE
  8
0
 10
-17.7893
 20
-28.8956
 11
-17.6289
 21
-28.5547
  0
LINE
  8
0
 10
-17.6289
 20
-28.5547
 11
-17.427
 21
-28.2366
  0
LINE
  8
0
 10
-17.427
 20
-28.2366
 11
-17.1869
 21
-27.9464
  0
LINE
  8
0
 10
-17.1869
 20
-27.9464
 11
-16.9123
 21
-27.6884
  0
LINE
  8
0
 10
-16.9123
 20
-27.6884
 11
-16.6075
 21
-27.467
  0
LINE
  8
0
 10
-16.6075
 20
-27.467
 11
-16.2773
 21
-27.2855
  0
LINE
  8
0
 10
-16.2773
 20
-27.2855
 11
-15.927
 21
-27.1468
  0
LINE
  8
0
 10
-15.927
 20
-27.1468
 11
-15.5621
 21
-27.0531
  0
LINE
  8
0
 10
-15.5621
 20
-27.0531
 11
-15.1884
 21
-27.0059
  0
LINE
  8
0
 10
-15.1884
 20
-27.0059
 11
-14.8116
 21
-27.0059
  0
LINE
  8
0
 10
-14.8116
 20
-27.0059
 11
-14.4379
 21
-27.0531
  0
LINE
  8
0
 10
-14.4379
 20
-27.0531
 11
-14.0729
 21
-27.1468
  0
LINE
  8
0
 10
-14.0729
 20
-27.1468
 11
-13.7227
 21
-27.2855
  0
LINE
  8
0
 10
-13.7227
 20
-27.2855
 11
-13.3925
 21
-27.467
  0
LINE
  8
0
 10
-13.3925
 20
-27.467
 11
-13.0877
 21
-27.6884
  0
LINE
  8
0
 10
-13.0877
 20
-27.6884
 11
-12.8131
 21
-27.9464
  0
LINE
  8
0
 10
-12.8131
 20
-27.9464
 11
-12.5729
 21
-28.2366
  0
LINE
  8
0
 10
-12.5729
 20
-28.2366
 11
-12.3711
 21
-28.5547
  0
LINE
  8
0
 10
-12.3711
 20
-28.5547
 11
-12.2107
 21
-28.8956
  0
LINE
  8
0
 10
-12.2107
 20
-28.8956
 11
-12.0942
 21
-29.2539
  0
LINE
  8
0
 10
-12.0942
 20
-29.2539
 11
-12.0237
 21
-29.624
  0
LINE
  8
0
 10
-12.0237
 20
-29.624
 11
-12
 21
-30
  0
LINE
  8
0
 10
-12
 20
-30
 11
-12.0237
 21
-30.376
  0
LINE
  8
0
 10
-12.0237
 20
-30.376
 11
-12.0942
 21
-30.7461
  0
LINE
  8
0
 10
-12.0942
 20
-30.7461
 11
-12.2107
 21
-31.1044
  0
LINE
  8
0
 10
-12.2107
 20
-31.1044
 11
-12.3711
 21
-31.4453
  0
LINE
  8
0
 10
-12.3711
 20
-31.4453
 11
-12.5729
 21
-31.7634
  0
LINE
  8
0
 10
-12.5729
 20
-31.7634
 11
-12.8131
 21
-32.0536
  0
LINE
  8
0
 10
-12.8131
 20
-32.0536
 11
-13.0877
 21
-32.3115
  0
LINE
  8
0
 10
-13.0877
 20
-32.3115
 11
-13.3925
 21
-32.533
  0
LINE
  8
0
 10
-13.3925
 20
-32.533
 11
-13.7227
 21
-32.7145
  0
LINE
  8
0
 10
-13.7227
 20
-32.7145
 11
-14.0729
 21
-32.8532
  0
LINE
  8
0
 10
-14.0729
 20
-32.8532
 11
-14.4379
 21
-32.9469
  0
LINE
  8
0
 10
-14.4379
 20
-32.9469
 11
-14.8116
 21
-32.9941
  0
LINE
  8
0
 10
-14.8116
 20
-32.9941
 11
-15.1884
 21
-32.9941
  0
LINE
  8
0
 10
29.8116
 20
-32.9941
 11
29.4379
 21
-32.9469
  0
LINE
  8
0
 10
29.4379
 20
-32.9469
 11
29.0729
 21
-32.8532
  0
LINE
  8
0
 10
29.0729
 20
-32.8532
 11
28.7227
 21
-32.7145
  0
LINE
  8
0
 10
28.7227
 20
-32.7145
 11
28.3925
 21
-32.533
  0
LINE
  8
0
 10
28.3925
 20
-32.533
 11
28.0877
 21
-32.3115
  0
LINE
  8
0
 10
28.0877
 20
-32.3115
 11
27.8131
 21
-32.0536
  0
LINE
  8
0
 10
27.8131
 20
-32.0536
 11
27.5729
 21
-31.7634
  0
LINE
  8
0
 10
27.5729
 20
-31.7634
 11
27.3711
 21
-31.4453
  0
LINE
  8
0
 10
27.3711
 20
-31.4453
 11
27.2107
 21
-31.1044
  0
LINE
  8
0
 10
27.2107
 20
-31.1044
 11
27.0942
 21
-30.7461
  0
LINE
  8
0
 10
27.0942
 20
-30.7461
 11
27.0237
 21
-30.376
  0
LINE
  8
0
 10
27.0237
 20
-30.376
 11
27
 21
-30
  0
LINE
  8
0
 10
27
 20
-30
 11
27.0237
 21
-29.624
  0
LINE
  8
0
 10
27.0237
 20
-29.624
 11
27.0942
 21
-29.2539
  0
LINE
  8
0
 10
27.0942
 20
-29.2539
 11
27.2107
 21
-28.8956
  0
LINE
  8
0
 10
27.2107
 20
-28.8956
 11
27.3711
 21
-28.5547
  0
LINE
  8
0
 10
27.3711
 20
-28.5547
 11
27.5729
 21
-28.2366
  0
LINE
  8
0
 10
27.5729
 20
-28.2366
 11
27.8131
 21
-27.9464
  0
LINE
  8
0
 10
27.8131
 20
-27.9464
 11
28.0877
 21
-27.6884
  0
LINE
  8
0
 10
28.0877
 20
-27.6884
 11
28.3925
 21
-27.467
  0
LINE
  8
0
 10
28.3925
 20
-27.467
 11
28.7227
 21
-27.2855
  0
LINE
  8
0
 10
28.7227
 20
-27.2855
 11
29.0729
 21
-27.1468
  0
LINE
  8
0
 10
29.0729
 20
-27.1468
 11
29.4379
 21
-27.0531
  0
LINE
  8
0
 10
29.4379
 20
-27.0531
 11
29.8116
 21
-27.0059
  0
LINE
  8
0
 10
29.8116
 20
-27.0059
 11
30.1884
 21
-27.0059
  0
LINE
  8
0
 10
30.1884
 20
-27.0059
 11
30.5621
 21
-27.0531
  0
LINE
  8
0
 10
30.5621
 20
-27.0531
 11
30.927
 21
-27.1468
  0
LINE
  8
0
 10
30.927
 20
-27.1468
 11
31.2773
 21
-27.2855
  0
LINE
  8
0
 10
31.2773
 20
-27.2855
 11
31.6075
 21
-27.467
  0
LINE
  8
0
 10
31.6075
 20
-27.467
 11
31.9123
 21
-27.6884
  0
LINE
  8
0
 10
31.9123
 20
-27.6884
 11
32.1869
 21
-27.9464
  0
LINE
  8
0
 10
32.1869
 20
-27.9464
 11
32.427
 21
-28.2366
  0
LINE
  8
0
 10
32.427
 20
-28.2366
 11
32.6289
 21
-28.5547
  0
LINE
  8
0
 10
32.6289
 20
-28.5547
 11
32.7893
 21
-28.8956
  0
LINE
  8
0
 10
32.7893
 20
-28.8956
 11
32.9057
 21
-29.2539
  0
LINE
  8
0
 10
32.9057
 20
-29.2539
 11
32.9763
 21
-29.624
  0
LINE
  8
0
 10
32.9763
 20
-29.624
 11
33
 21
-30
  0
LINE
  8
0
 10
33
 20
-30
 11
32.9763
 21
-30.376
  0
LINE
  8
0
 10
32.9763
 20
-30.376
 11
32.9057
 21
-30.7461
  0
LINE
  8
0
 10
32.9057
 20
-30.7461
 11
32.7893
 21
-31.1044
  0
LINE
  8
0
 10
32.7893
 20
-31.1044
 11
32.6289
 21
-31.4453
  0
LINE
  8
0
 10
32.6289
 20
-31.4453
 11
32.427
 21
-31.7634
  0
LINE
  8
0
 10
32.427
 20
-31.7634
 11
32.1869
 21
-32.0536
  0
LINE
  8
0
 10
32.1869
 20
-32.0536
 11
31.9123
 21
-32.3115
  0
LINE
  8
0
 10
31.9123
 20
-32.3115
 11
31.6075
 21
-32.533
  0
LINE
  8
0
 10
31.6075
 20
-32.533
 11
31.2773
 21
-32.7145
  0
LINE
  8
0
 10
31.2773
 20
-32.7145
 11
30.927
 21
-32.8532
  0
LINE
  8
0
 10
30.927
 20
-32.8532
 11
30.5621
 21
-32.9469
  0
LINE
  8
0
 10
30.5621
 20
-32.9469
 11
30.1884
 21
-32.9941
  0
LINE
  8
0
 10
30.1884
 20
-32.9941
 11
29.8116
 21
-32.9941
  0
LINE
  8
0
 10
14.8116
 20
-32.9941
 11
14.4379
 21
-32.9469
  0
LINE
  8
0
 10
14.4379
 20
-32.9469
 11
14.0729
 21
-32.8532
  0
LINE
  8
0
 10
14.0729
 20
-32.8532
 11
13.7227
 21
-32.7145
  0
LINE
  8
0
 10
13.7227
 20
-32.7145
 11
13.3925
 21
-32.533
  0
LINE
  8
0
 10
13.3925
 20
-32.533
 11
13.0877
 21
-32.3115
  0
LINE
  8
0
 10
13.0877
 20
-32.3115
 11
12.8131
 21
-32.0536
  0
LINE
  8
0
 10
12.8131
 20
-32.0536
 11
12.5729
 21
-31.7634
  0
LINE
  8
0
 10
12.5729
 20
-31.7634
 11
12.3711
 21
-31.4453
  0
LINE
  8
0
 10
12.3711
 20
-31.4453
 11
12.2107
 21
-31.1044
  0
LINE
  8
0
 10
12.2107
 20
-31.1044
 11
12.0942
 21
-30.7461
  0
LINE
  8
0
 10
12.0942
 20
-30.7461
 11
12.0237
 21
-30.376
  0
LINE
  8
0
 10
12.0237
 20
-30.376
 11
12
 21
-30
  0
LINE
  8
0
 10
12
 20
-30
 11
12.0237
 21
-29.624
  0
LINE
  8
0
 10
12.0237
 20
-29.624
 11
12.0942
 21
-29.2539
  0
LINE
  8
0
 10
12.0942
 20
-29.2539
 11
12.2107
 21
-28.8956
  0
LINE
  8
0
 10
12.2107
 20
-28.8956
 11
12.3711
 21
-28.5547
  0
LINE
  8
0
 10
12.3711
 20
-28.5547
 11
12.5729
 21
-28.2366
  0
LINE
  8
0
 10
12.5729
 20
-28.2366
 11
12.8131
 21
-27.9464
  0
LINE
  8
0
 10
12.8131
 20
-27.9464
 11
13.0877
 21
-27.6884
  0
LINE
  8
0
 10
13.0877
 20
-27.6884
 11
13.3925
 21
-27.467
  0
LINE
  8
0
 10
13.3925
 20
-27.467
 11
13.7227
 21
-27.2855
  0
LINE
  8
0
 10
13.7227
 20
-27.2855
 11
14.0729
 21
-27.1468
  0
LINE
  8
0
 10
14.0729
 20
-27.1468
 11
14.4379
 21
-27.0531
  0
LINE
  8
0
 10
14.4379
 20
-27.0531
 11
14.8116
 21
-27.0059
  0
LINE
  8
0
 10
14.8116
 20
-27.0059
 11
15.1884
 21
-27.0059
  0
LINE
  8
0
 10
15.1884
 20
-27.0059
 11
15.5621
 21
-27.0531
  0
LINE
  8
0
 10
15.5621
 20
-27.0531
 11
15.927
 21
-27.1468
  0
LINE
  8
0
 10
15.927
 20
-27.1468
 11
16.2773
 21
-27.2855
  0
LINE
  8
0
 10
16.2773
 20
-27.2855
 11
16.6075
 21
-27.467
  0
LINE
  8
0
 10
16.6075
 20
-27.467
 11
16.9123
 21
-27.6884
  0
LINE
  8
0
 10
16.9123
 20
-27.6884
 11
17.1869
 21
-27.9464
  0
LINE
  8
0
 10
17.1869
 20
-27.9464
 11
17.427
 21
-28.2366
  0
LINE
  8
0
 10
17.427
 20
-28.2366
 11
17.6289
 21
-28.5547
  0
LINE
  8
0
 10
17.6289
 20
-28.5547
 11
17.7893
 21
-28.8956
  0
LINE
  8
0
 10
17.7893
 20
-28.8956
 11
17.9057
 21
-29.2539
  0
LINE
  8
0
 10
17.9057
 20
-29.2539
 11
17.9763
 21
-29.624
  0
LINE
  8
0
 10
17.9763
 20
-29.624
 11
18
 21
-30
  0
LINE
  8
0
 10
18
 20
-30
 11
17.9763
 21
-30.376
  0
LINE
  8
0
 10
17.9763
 20
-30.376
 11
17.9057
 21
-30.7461
  0
LINE
  8
0
 10
17.9057
 20
-30.7461
 11
17.7893
 21
-31.1044
  0
LINE
  8
0
 10
17.7893
 20
-31.1044
 11
17.6289
 21
-31.4453
  0
LINE
  8
0
 10
17.6289
 20
-31.4453
 11
17.427
 21
-31.7634
  0
LINE
  8
0
 10
17.427
 20
-31.7634
 11
17.1869
 21
-32.0536
  0
LINE
  8
0
 10
17.1869
 20
-32.0536
 11
16.9123
 21
-32.3115
  0
LINE
  8
0
 10
16.9123
 20
-32.3115
 11
16.6075
 21
-32.533
  0
LINE
  8
0
 10
16.6075
 20
-32.533
 11
16.2773
 21
-32.7145
  0
LINE
  8
0
 10
16.2773
 20
-32.7145
 11
15.927
 21
-32.8532
  0
LINE
  8
0
 10
15.927
 20
-32.8532
 11
15.5621
 21
-32.9469
  0
LINE
  8
0
 10
15.5621
 20
-32.9469
 11
15.1884
 21
-32.9941
  0
LINE
  8
0
 10
15.1884
 20
-32.9941
 11
14.8116
 21
-32.9941
  0
LINE
  8
0
 10
-30.1884
 20
-32.9941
 11
-30.5621
 21
-32.9469
  0
LINE
  8
0
 10
-30.5621
 20
-32.9469
 11
-30.927
 21
-32.8532
  0
LINE
  8
0
 10
-30.927
 20
-32.8532
 11
-31.2773
 21
-32.7145
  0
LINE
  8
0
 10
-31.2773
 20
-32.7145
 11
-31.6075
 21
-32.533
  0
LINE
  8
0
 10
-31.6075
 20
-32.533
 11
-31.9123
 21
-32.3115
  0
LINE
  8
0
 10
-31.9123
 20
-32.3115
 11
-32.1869
 21
-32.0536
  0
LINE
  8
0
 10
-32.1869
 20
-32.0536
 11
-32.427
 21
-31.7634
  0
LINE
  8
0
 10
-32.427
 20
-31.7634
 11
-32.6289
 21
-31.4453
  0
LINE
  8
0
 10
-32.6289
 20
-31.4453
 11
-32.7893
 21
-31.1044
  0
LINE
  8
0
 10
-32.7893
 20
-31.1044
 11
-32.9057
 21
-30.7461
  0
LINE
  8
0
 10
-32.9057
 20
-30.7461
 11
-32.9763
 21
-30.376
  0
LINE
  8
0
 10
-32.9763
 20
-30.376
 11
-33
 21
-30
  0
LINE
  8
0
 10
-33
 20
-30
 11
-32.9763
 21
-29.624
  0
LINE
  8
0
 10
-32.9763
 20
-29.624
 11
-32.9057
 21
-29.2539
  0
LINE
  8
0
 10
-32.9057
 20
-29.2539
 11
-32.7893
 21
-28.8956
  0
LINE
  8
0
 10
-32.7893
 20
-28.8956
 11
-32.6289
 21
-28.5547
  0
LINE
  8
0
 10
-32.6289
 20
-28.5547
 11
-32.427
 21
-28.2366
  0
LINE
  8
0
 10
-32.427
 20
-28.2366
 11
-32.1869
 21
-27.9464
  0
LINE
  8
0
 10
-32.1869
 20
-27.9464
 11
-31.9123
 21
-27.6884
  0
LINE
  8
0
 10
-31.9123
 20
-27.6884
 11
-31.6075
 21
-27.467
  0
LINE
  8
0
 10
-31.6075
 20
-27.467
 11
-31.2773
 21
-27.2855
  0
LINE
  8
0
 10
-31.2773
 20
-27.2855
 11
-30.927
 21
-27.1468
  0
LINE
  8
0
 10
-30.927
 20
-27.1468
 11
-30.5621
 21
-27.0531
  0
LINE
  8
0
 10
-30.5621
 20
-27.0531
 11
-30.1884
 21
-27.0059
  0
LINE
  8
0
 10
-30.1884
 20
-27.0059
 11
-29.8116
 21
-27.0059
  0
LINE
  8
0
 10
-29.8116
 20
-27.0059
 11
-29.4379
 21
-27.0531
  0
LINE
  8
0
 10
-29.4379
 20
-27.0531
 11
-29.0729
 21
-27.1468
  0
LINE
  8
0
 10
-29.0729
 20
-27.1468
 11
-28.7227
 21
-27.2855
  0
LINE
  8
0
 10
-28.7227
 20
-27.2855
 11
-28.3925
 21
-27.467
  0
LINE
  8
0
 10
-28.3925
 20
-27.467
 11
-28.0877
 21
-27.6884
  0
LINE
  8
0
 10
-28.0877
 20
-27.6884
 11
-27.8131
 21
-27.9464
  0
LINE
  8
0
 10
-27.8131
 20
-27.9464
 11
-27.5729
 21
-28.2366
  0
LINE
  8
0
 10
-27.5729
 20
-28.2366
 11
-27.3711
 21
-28.5547
  0
LINE
  8
0
 10
-27.3711
 20
-28.5547
 11
-27.2107
 21
-28.8956
  0
LINE
  8
0
 10
-27.2107
 20
-28.8956
 11
-27.0942
 21
-29.2539
  0
LINE
  8
0
 10
-27.0942
 20
-29.2539
 11
-27.0237
 21
-29.624
  0
LINE
  8
0
 10
-27.0237
 20
-29.624
 11
-27
 21
-30
  0
LINE
  8
0
 10
-27
 20
-30
 11
-27.0237
 21
-30.376
  0
LINE
  8
0
 10
-27.0237
 20
-30.376
 11
-27.0942
 21
-30.7461
  0
LINE
  8
0
 10
-27.0942
 20
-30.7461
 11
-27.2107
 21
-31.1044
  0
LINE
  8
0
 10
-27.2107
 20
-31.1044
 11
-27.3711
 21
-31.4453
  0
LINE
  8
0
 10
-27.3711
 20
-31.4453
 11
-27.5729
 21
-31.7634
  0
LINE
  8
0
 10
-27.5729
 20
-31.7634
 11
-27.8131
 21
-32.0536
  0
LINE
  8
0
 10
-27.8131
 20
-32.0536
 11
-28.0877
 21
-32.3115
  0
LINE
  8
0
 10
-28.0877
 20
-32.3115
 11
-28.3925
 21
-32.533
  0
LINE
  8
0
 10
-28.3925
 20
-32.533
 11
-28.7227
 21
-32.7145
  0
LINE
  8
0
 10
-28.7227
 20
-32.7145
 11
-29.0729
 21
-32.8532
  0
LINE
  8
0
 10
-29.0729
 20
-32.8532
 11
-29.4379
 21
-32.9469
  0
LINE
  8
0
 10
-29.4379
 20
-32.9469
 11
-29.8116
 21
-32.9941
  0
LINE
  8
0
 10
-29.8116
 20
-32.9941
 11
-30.1884
 21
-32.9941
  0
LINE
  8
0
 10
-0.0941772
 20
-31.497
 11
-0.281067
 21
-31.4734
  0
LINE
  8
0
 10
-0.281067
 20
-31.4734
 11
-0.463516
 21
-31.4266
  0
LINE
  8
0
 10
-0.463516
 20
-31.4266
 11
-0.638657
 21
-31.3572
  0
LINE
  8
0
 10
-0.638657
 20
-31.3572
 11
-0.803726
 21
-31.2665
  0
LINE
  8
0
 10
-0.803726
 20
-31.2665
 11
-0.956131
 21
-31.1558
  0
LINE
  8
0
 10
-0.956131
 20
-31.1558
 11
-1.09344
 21
-31.0268
  0
LINE
  8
0
 10
-1.09344
 20
-31.0268
 11
-1.21352
 21
-30.8817
  0
LINE
  8
0
 10
-1.21352
 20
-30.8817
 11
-1.31445
 21
-30.7226
  0
LINE
  8
0
 10
-1.31445
 20
-30.7226
 11
-1.39465
 21
-30.5522
  0
LINE
  8
0
 10
-1.39465
 20
-30.5522
 11
-1.45287
 21
-30.373
  0
LINE
  8
0
 10
-1.45287
 20
-30.373
 11
-1.48816
 21
-30.188
  0
LINE
  8
0
 10
-1.48816
 20
-30.188
 11
-1.5
 21
-30
  0
LINE
  8
0
 10
-1.5
 20
-30
 11
-1.48816
 21
-29.812
  0
LINE
  8
0
 10
-1.48816
 20
-29.812
 11
-1.45287
 21
-29.627
  0
LINE
  8
0
 10
-1.45287
 20
-29.627
 11
-1.39465
 21
-29.4478
  0
LINE
  8
0
 10
-1.39465
 20
-29.4478
 11
-1.31445
 21
-29.2774
  0
LINE
  8
0
 10
-1.31445
 20
-29.2774
 11
-1.21352
 21
-29.1183
  0
LINE
  8
0
 10
-1.21352
 20
-29.1183
 11
-1.09344
 21
-28.9732
  0
LINE
  8
0
 10
-1.09344
 20
-28.9732
 11
-0.956131
 21
-28.8442
  0
LINE
  8
0
 10
-0.956131
 20
-28.8442
 11
-0.803726
 21
-28.7335
  0
LINE
  8
0
 10
-0.803726
 20
-28.7335
 11
-0.638657
 21
-28.6427
  0
LINE
  8
0
 10
-0.638657
 20
-28.6427
 11
-0.463516
 21
-28.5734
  0
LINE
  8
0
 10
-0.463516
 20
-28.5734
 11
-0.281067
 21
-28.5266
  0
LINE
  8
0
 10
-0.281067
 20
-28.5266
 11
-0.0941772
 21
-28.503
  0
LINE
  8
0
 10
-0.0941772
 20
-28.503
 11
0.0941772
 21
-28.503
  0
LINE
  8
0
 10
0.0941772
 20
-28.503
 11
0.281067
 21
-28.5266
  0
LINE
  8
0
 10
0.281067
 20
-28.5266
 11
0.463516
 21
-28.5734
  0
LINE
  8
0
 10
0.463516
 20
-28.5734
 11
0.638657
 21
-28.6427
  0
LINE
  8
0
 10
0.638657
 20
-28.6427
 11
0.803726
 21
-28.7335
  0
LINE
  8
0
 10
0.803726
 20
-28.7335
 11
0.956131
 21
-28.8442
  0
LINE
  8
0
 10
0.956131
 20
-28.8442
 11
1.09344
 21
-28.9732
  0
LINE
  8
0
 10
1.09344
 20
-28.9732
 11
1.21352
 21
-29.1183
  0
LINE
  8
0
 10
1.21352
 20
-29.1183
 11
1.31445
 21
-29.2774
  0
LINE
  8
0
 10
1.31445
 20
-29.2774
 11
1.39465
 21
-29.4478
  0
LINE
  8
0
 10
1.39465
 20
-29.4478
 11
1.45287
 21
-29.627
  0
LINE
  8
0
 10
1.45287
 20
-29.627
 11
1.48816
 21
-29.812
  0
LINE
  8
0
 10
1.48816
 20
-29.812
 11
1.5
 21
-30
  0
LINE
  8
0
 10
1.5
 20
-30
 11
1.48816
 21
-30.188
  0
LINE
  8
0
 10
1.48816
 20
-30.188
 11
1.45287
 21
-30.373
  0
LINE
  8
0
 10
1.45287
 20
-30.373
 11
1.39465
 21
-30.5522
  0
LINE
  8
0
 10
1.39465
 20
-30.5522
 11
1.31445
 21
-30.7226
  0
LINE
  8
0
 10
1.31445
 20
-30.7226
 11
1.21352
 21
-30.8817
  0
LINE
  8
0
 10
1.21352
 20
-30.8817
 11
1.09344
 21
-31.0268
  0
LINE
  8
0
 10
1.09344
 20
-31.0268
 11
0.956131
 21
-31.1558
  0
LINE
  8
0
 10
0.956131
 20
-31.1558
 11
0.803726
 21
-31.2665
  0
LINE
  8
0
 10
0.803726
 20
-31.2665
 11
0.638657
 21
-31.3572
  0
LINE
  8
0
 10
0.638657
 20
-31.3572
 11
0.463516
 21
-31.4266
  0
LINE
  8
0
 10
0.463516
 20
-31.4266
 11
0.281067
 21
-31.4734
  0
LINE
  8
0
 10
0.281067
 20
-31.4734
 11
0.0941772
 21
-31.497
  0
LINE
  8
0
 10
0.0941772
 20
-31.497
 11
-0.0941772
 21
-31.497
  0
ENDSEC
  0
SECTION
  2
OBJECTS
  0
DICTIONARY
  0
ENDSEC
  0
EOF
