<?xml version="1.0" standalone="no"?>
<!DOCTYPE svg PUBLIC "-//W3C//DTD SVG 1.1//EN" "http://www.w3.org/Graphics/SVG/1.1/DTD/svg11.dtd">
<svg width="74mm" height="326mm" viewBox="-37 -289 74 326" xmlns="http://www.w3.org/2000/svg" version="1.1">
<title>OpenSCAD Model</title>
<path d="
M 32.9369,-215.089 L 33.5451,-215.245 L 34.1289,-215.476 L 34.6791,-215.778 L 35.1871,-216.147 L 35.6448,-216.577
 L 36.0451,-217.061 L 36.3815,-217.591 L 36.6489,-218.159 L 36.8429,-218.757 L 36.9606,-219.373 L 37,-220
 L 37,-284 L 36.9606,-284.627 L 36.8429,-285.243 L 36.6489,-285.841 L 36.3815,-286.409 L 36.0451,-286.939
 L 35.6448,-287.423 L 35.1871,-287.853 L 34.6791,-288.222 L 34.1289,-288.524 L 33.5451,-288.755 L 32.9369,-288.911
 L 32.3139,-288.99 L -32.3139,-288.99 L -32.9369,-288.911 L -33.5451,-288.755 L -34.1289,-288.524 L -34.6791,-288.222
 L -35.1871,-287.853 L -35.6448,-287.423 L -36.0451,-286.939 L -36.3815,-286.409 L -36.6489,-285.841 L -36.8429,-285.243
 L -36.9606,-284.627 L -37,-284 L -37,-220 L -36.9606,-219.373 L -36.8429,-218.757 L -36.6489,-218.159
 L -36.3815,-217.591 L -36.0451,-217.061 L -35.6448,-216.577 L -35.1871,-216.147 L -34.6791,-215.778 L -34.1289,-215.476
 L -33.5451,-215.245 L -32.9369,-215.089 L -32.3139,-215.01 L 32.3139,-215.01 z
M -30.1884,-279.006 L -30.5621,-279.053 L -30.927,-279.147 L -31.2773,-279.286 L -31.6075,-279.467 L -31.9123,-279.688
 L -32.1869,-279.946 L -32.427,-280.237 L -32.6289,-280.555 L -32.7893,-280.896 L -32.9057,-281.254 L -32.9763,-281.624
 L -33,-282 L -32.9763,-282.376 L -32.9057,-282.746 L -32.7893,-283.104 L -32.6289,-283.445 L -32.427,-283.763
 L -32.1869,-284.054 L -31.9123,-284.312 L -31.6075,-284.533 L -31.2773,-284.714 L -30.927,-284.853 L -30.5621,-284.947
 L -30.1884,-284.994 L -29.8116,-284.994 L -29.4379,-284.947 L -29.0729,-284.853 L -28.7227,-284.714 L -28.3925,-284.533
 L -28.0877,-284.312 L -27.8131,-284.054 L -27.5729,-283.763 L -27.3711,-283.445 L -27.2107,-283.104 L -27.0942,-282.746
 L -27.0237,-282.376 L -27,-282 L -27.0237,-281.624 L -27.0942,-281.254 L -27.2107,-280.896 L -27.3711,-280.555
 L -27.5729,-280.237 L -27.8131,-279.946 L -28.0877,-279.688 L -28.3925,-279.467 L -28.7227,-279.286 L -29.0729,-279.147
 L -29.4379,-279.053 L -29.8116,-279.006 z
M 29.8116,-279.006 L 29.4379,-279.053 L 29.0729,-279.147 L 28.7227,-279.286 L 28.3925,-279.467 L 28.0877,-279.688
 L 27.8131,-279.946 L 27.5729,-280.237 L 27.3711,-280.555 L 27.2107,-280.896 L 27.0942,-281.254 L 27.0237,-281.624
 L 27,-282 L 27.0237,-282.376 L 27.0942,-282.746 L 27.2107,-283.104 L 27.3711,-283.445 L 27.5729,-283.763
 L 27.8131,-284.054 L 28.0877,-284.312 L 28.3925,-284.533 L 28.7227,-284.714 L 29.0729,-284.853 L 29.4379,-284.947
 L 29.8116,-284.994 L 30.1884,-284.994 L 30.5621,-284.947 L 30.927,-284.853 L 31.2773,-284.714 L 31.6075,-284.533
 L 31.9123,-284.312 L 32.1869,-284.054 L 32.427,-283.763 L 32.6289,-283.445 L 32.7893,-283.104 L 32.9057,-282.746
 L 32.9763,-282.376 L 33,-282 L 32.9763,-281.624 L 32.9057,-281.254 L 32.7893,-280.896 L 32.6289,-280.555
 L 32.427,-280.237 L 32.1869,-279.946 L 31.9123,-279.688 L 31.6075,-279.467 L 31.2773,-279.286 L 30.927,-279.147
 L 30.5621,-279.053 L 30.1884,-279.006 z
M 14.8116,-279.006 L 14.4379,-279.053 L 14.0729,-279.147 L 13.7227,-279.286 L 13.3925,-279.467 L 13.0877,-279.688
 L 12.8131,-279.946 L 12.5729,-280.237 L 12.3711,-280.555 L 12.2107,-280.896 L 12.0942,-281.254 L 12.0237,-281.624
 L 12,-282 L 12.0237,-282.376 L 12.0942,-282.746 L 12.2107,-283.104 L 12.3711,-283.445 L 12.5729,-283.763
 L 12.8131,-284.054 L 13.0877,-284.312 L 13.3925,-284.533 L 13.7227,-284.714 L 14.0729,-284.853 L 14.4379,-284.947
 L 14.8116,-284.994 L 15.1884,-284.994 L 15.5621,-284.947 L 15.927,-284.853 L 16.2773,-284.714 L 16.6075,-284.533
 L 16.9123,-284.312 L 17.1869,-284.054 L 17.427,-283.763 L 17.6289,-283.445 L 17.7893,-283.104 L 17.9057,-282.746
 L 17.9763,-282.376 L 18,-282 L 17.9763,-281.624 L 17.9057,-281.254 L 17.7893,-280.896 L 17.6289,-280.555
 L 17.427,-280.237 L 17.1869,-279.946 L 16.9123,-279.688 L 16.6075,-279.467 L 16.2773,-279.286 L 15.927,-279.147
 L 15.5621,-279.053 L 15.1884,-279.006 z
M -15.1884,-279.006 L -15.5621,-279.053 L -15.927,-279.147 L -16.2773,-279.286 L -16.6075,-279.467 L -16.9123,-279.688
 L -17.1869,-279.946 L -17.427,-280.237 L -17.6289,-280.555 L -17.7893,-280.896 L -17.9057,-281.254 L -17.9763,-281.624
 L -18,-282 L -17.9763,-282.376 L -17.9057,-282.746 L -17.7893,-283.104 L -17.6289,-283.445 L -17.427,-283.763
 L -17.1869,-284.054 L -16.9123,-284.312 L -16.6075,-284.533 L -16.2773,-284.714 L -15.927,-284.853 L -15.5621,-284.947
 L -15.1884,-284.994 L -14.8116,-284.994 L -14.4379,-284.947 L -14.0729,-284.853 L -13.7227,-284.714 L -13.3925,-284.533
 L -13.0877,-284.312 L -12.8131,-284.054 L -12.5729,-283.763 L -12.3711,-283.445 L -12.2107,-283.104 L -12.0942,-282.746
 L -12.0237,-282.376 L -12,-282 L -12.0237,-281.624 L -12.0942,-281.254 L -12.2107,-280.896 L -12.3711,-280.555
 L -12.5729,-280.237 L -12.8131,-279.946 L -13.0877,-279.688 L -13.3925,-279.467 L -13.7227,-279.286 L -14.0729,-279.147
 L -14.4379,-279.053 L -14.8116,-279.006 z
M -0.150696,-279.605 L -0.449707,-279.643 L -0.741638,-279.717 L -1.02187,-279.828 L -1.28598,-279.974 L -1.52982,-280.151
 L -1.74951,-280.357 L -1.94164,-280.589 L -2.10313,-280.844 L -2.23146,-281.117 L -2.32458,-281.403 L -2.38107,-281.699
 L -2.39999,-282 L -2.38107,-282.301 L -2.32458,-282.597 L -2.23146,-282.883 L -2.10313,-283.156 L -1.94164,-283.411
 L -1.74951,-283.643 L -1.52982,-283.849 L -1.28598,-284.026 L -1.02187,-284.172 L -0.741638,-284.283 L -0.449707,-284.357
 L -0.150696,-284.395 L 0.150696,-284.395 L 0.449707,-284.357 L 0.741638,-284.283 L 1.02187,-284.172 L 1.28598,-284.026
 L 1.52982,-283.849 L 1.74951,-283.643 L 1.94164,-283.411 L 2.10313,-283.156 L 2.23146,-282.883 L 2.32458,-282.597
 L 2.38107,-282.301 L 2.39999,-282 L 2.38107,-281.699 L 2.32458,-281.403 L 2.23146,-281.117 L 2.10313,-280.844
 L 1.94164,-280.589 L 1.74951,-280.357 L 1.52982,-280.151 L 1.28598,-279.974 L 1.02187,-279.828 L 0.741638,-279.717
 L 0.449707,-279.643 L 0.150696,-279.605 z
M -1.47557,-228.546 L -4.40346,-228.916 L -7.26189,-229.65 L -10.0058,-230.737 L -12.5919,-232.158 L -14.9795,-233.893
 L -17.1308,-235.913 L -19.0119,-238.187 L -20.5932,-240.679 L -21.8497,-243.349 L -22.7617,-246.156 L -23.3147,-249.055
 L -23.5,-252 L -23.3147,-254.945 L -22.7617,-257.844 L -21.8497,-260.651 L -20.5932,-263.321 L -19.0119,-265.813
 L -17.1308,-268.087 L -14.9795,-270.107 L -12.5919,-271.842 L -10.0058,-273.263 L -7.26189,-274.35 L -4.40346,-275.084
 L -1.47557,-275.454 L 1.47557,-275.454 L 4.40346,-275.084 L 7.26189,-274.35 L 10.0058,-273.263 L 12.5919,-271.842
 L 14.9795,-270.107 L 17.1308,-268.087 L 19.0119,-265.813 L 20.5932,-263.321 L 21.8497,-260.651 L 22.7617,-257.844
 L 23.3147,-254.945 L 23.5,-252 L 23.3147,-249.055 L 22.7617,-246.156 L 21.8497,-243.349 L 20.5932,-240.679
 L 19.0119,-238.187 L 17.1308,-235.913 L 14.9795,-233.893 L 12.5919,-232.158 L 10.0058,-230.737 L 7.26189,-229.65
 L 4.40346,-228.916 L 1.47557,-228.546 z
M 4.21606,-229.899 L 6.95288,-230.601 L 9.58003,-231.641 L 12.0561,-233.003 L 14.342,-234.663 L 16.4018,-236.598
 L 18.2029,-238.775 L 19.7169,-241.161 L 20.92,-243.717 L 21.7931,-246.404 L 22.3226,-249.18 L 22.5,-252
 L 22.3226,-254.82 L 21.7931,-257.596 L 20.92,-260.283 L 19.7169,-262.839 L 18.2029,-265.225 L 16.4018,-267.402
 L 14.342,-269.337 L 12.0561,-270.997 L 9.58003,-272.359 L 6.95288,-273.399 L 4.21606,-274.101 L 1.41278,-274.456
 L -1.41278,-274.456 L -4.21606,-274.101 L -6.95288,-273.399 L -9.58003,-272.359 L -12.0561,-270.997 L -14.342,-269.337
 L -16.4018,-267.402 L -18.2029,-265.225 L -19.7169,-262.839 L -20.92,-260.283 L -21.7931,-257.596 L -22.3226,-254.82
 L -22.5,-252 L -22.3226,-249.18 L -21.7931,-246.404 L -20.92,-243.717 L -19.7169,-241.161 L -18.2029,-238.775
 L -16.4018,-236.598 L -14.342,-234.663 L -12.0561,-233.003 L -9.58003,-231.641 L -6.95288,-230.601 L -4.21606,-229.899
 L -1.41278,-229.544 L 1.41278,-229.544 z
M -0.18837,-264.006 L -0.562134,-264.053 L -0.927048,-264.147 L -1.27733,-264.286 L -1.60747,-264.467 L -1.91226,-264.688
 L -2.1869,-264.946 L -2.42705,-265.237 L -2.62891,-265.555 L -2.78932,-265.896 L -2.90575,-266.254 L -2.97633,-266.624
 L -3,-267 L -2.97633,-267.376 L -2.90575,-267.746 L -2.78932,-268.104 L -2.62891,-268.445 L -2.42705,-268.763
 L -2.1869,-269.054 L -1.91226,-269.312 L -1.60747,-269.533 L -1.27733,-269.714 L -0.927048,-269.853 L -0.562134,-269.947
 L -0.18837,-269.994 L 0.18837,-269.994 L 0.562134,-269.947 L 0.927048,-269.853 L 1.27733,-269.714 L 1.60747,-269.533
 L 1.91226,-269.312 L 2.1869,-269.054 L 2.42705,-268.763 L 2.62891,-268.445 L 2.78932,-268.104 L 2.90575,-267.746
 L 2.97633,-267.376 L 3,-267 L 2.97633,-266.624 L 2.90575,-266.254 L 2.78932,-265.896 L 2.62891,-265.555
 L 2.42705,-265.237 L 2.1869,-264.946 L 1.91226,-264.688 L 1.60747,-264.467 L 1.27733,-264.286 L 0.927048,-264.147
 L 0.562134,-264.053 L 0.18837,-264.006 z
M 14.8116,-249.006 L 14.4379,-249.053 L 14.0729,-249.147 L 13.7227,-249.286 L 13.3925,-249.467 L 13.0877,-249.688
 L 12.8131,-249.946 L 12.5729,-250.237 L 12.3711,-250.555 L 12.2107,-250.896 L 12.0942,-251.254 L 12.0237,-251.624
 L 12,-252 L 12.0237,-252.376 L 12.0942,-252.746 L 12.2107,-253.104 L 12.3711,-253.445 L 12.5729,-253.763
 L 12.8131,-254.054 L 13.0877,-254.312 L 13.3925,-254.533 L 13.7227,-254.714 L 14.0729,-254.853 L 14.4379,-254.947
 L 14.8116,-254.994 L 15.1884,-254.994 L 15.5621,-254.947 L 15.927,-254.853 L 16.2773,-254.714 L 16.6075,-254.533
 L 16.9123,-254.312 L 17.1869,-254.054 L 17.427,-253.763 L 17.6289,-253.445 L 17.7893,-253.104 L 17.9057,-252.746
 L 17.9763,-252.376 L 18,-252 L 17.9763,-251.624 L 17.9057,-251.254 L 17.7893,-250.896 L 17.6289,-250.555
 L 17.427,-250.237 L 17.1869,-249.946 L 16.9123,-249.688 L 16.6075,-249.467 L 16.2773,-249.286 L 15.927,-249.147
 L 15.5621,-249.053 L 15.1884,-249.006 z
M -15.1884,-249.006 L -15.5621,-249.053 L -15.927,-249.147 L -16.2773,-249.286 L -16.6075,-249.467 L -16.9123,-249.688
 L -17.1869,-249.946 L -17.427,-250.237 L -17.6289,-250.555 L -17.7893,-250.896 L -17.9057,-251.254 L -17.9763,-251.624
 L -18,-252 L -17.9763,-252.376 L -17.9057,-252.746 L -17.7893,-253.104 L -17.6289,-253.445 L -17.427,-253.763
 L -17.1869,-254.054 L -16.9123,-254.312 L -16.6075,-254.533 L -16.2773,-254.714 L -15.927,-254.853 L -15.5621,-254.947
 L -15.1884,-254.994 L -14.8116,-254.994 L -14.4379,-254.947 L -14.0729,-254.853 L -13.7227,-254.714 L -13.3925,-254.533
 L -13.0877,-254.312 L -12.8131,-254.054 L -12.5729,-253.763 L -12.3711,-253.445 L -12.2107,-253.104 L -12.0942,-252.746
 L -12.0237,-252.376 L -12,-252 L -12.0237,-251.624 L -12.0942,-251.254 L -12.2107,-250.896 L -12.3711,-250.555
 L -12.5729,-250.237 L -12.8131,-249.946 L -13.0877,-249.688 L -13.3925,-249.467 L -13.7227,-249.286 L -14.0729,-249.147
 L -14.4379,-249.053 L -14.8116,-249.006 z
M -0.18837,-249.006 L -0.562134,-249.053 L -0.927048,-249.147 L -1.27733,-249.286 L -1.60747,-249.467 L -1.91226,-249.688
 L -2.1869,-249.946 L -2.42705,-250.237 L -2.62891,-250.555 L -2.78932,-250.896 L -2.90575,-251.254 L -2.97633,-251.624
 L -3,-252 L -2.97633,-252.376 L -2.90575,-252.746 L -2.78932,-253.104 L -2.62891,-253.445 L -2.42705,-253.763
 L -2.1869,-254.054 L -1.91226,-254.312 L -1.60747,-254.533 L -1.27733,-254.714 L -0.927048,-254.853 L -0.562134,-254.947
 L -0.18837,-254.994 L 0.18837,-254.994 L 0.562134,-254.947 L 0.927048,-254.853 L 1.27733,-254.714 L 1.60747,-254.533
 L 1.91226,-254.312 L 2.1869,-254.054 L 2.42705,-253.763 L 2.62891,-253.445 L 2.78932,-253.104 L 2.90575,-252.746
 L 2.97633,-252.376 L 3,-252 L 2.97633,-251.624 L 2.90575,-251.254 L 2.78932,-250.896 L 2.62891,-250.555
 L 2.42705,-250.237 L 2.1869,-249.946 L 1.91226,-249.688 L 1.60747,-249.467 L 1.27733,-249.286 L 0.927048,-249.147
 L 0.562134,-249.053 L 0.18837,-249.006 z
M -8.09418,-250.503 L -8.28107,-250.527 L -8.46352,-250.573 L -8.63866,-250.643 L -8.80373,-250.734 L -8.95613,-250.844
 L -9.09344,-250.973 L -9.21352,-251.118 L -9.31445,-251.277 L -9.39465,-251.448 L -9.45287,-251.627 L -9.48816,-251.812
 L -9.5,-252 L -9.48816,-252.188 L -9.45287,-252.373 L -9.39465,-252.552 L -9.31445,-252.723 L -9.21352,-252.882
 L -9.09344,-253.027 L -8.95613,-253.156 L -8.80373,-253.266 L -8.63866,-253.357 L -8.46352,-253.427 L -8.28107,-253.473
 L -8.09418,-253.497 L -7.40581,-253.497 L -7.21892,-253.473 L -7.03647,-253.427 L -6.86133,-253.357 L -6.69626,-253.266
 L -6.54385,-253.156 L -6.40654,-253.027 L -6.28647,-252.882 L -6.18553,-252.723 L -6.10533,-252.552 L -6.04712,-252.373
 L -6.01183,-252.188 L -6,-252 L -6.01183,-251.812 L -6.04712,-251.627 L -6.10533,-251.448 L -6.18553,-251.277
 L -6.28647,-251.118 L -6.40654,-250.973 L -6.54385,-250.844 L -6.69626,-250.734 L -6.86133,-250.643 L -7.03647,-250.573
 L -7.21892,-250.527 L -7.40581,-250.503 z
M 7.40581,-250.503 L 7.21892,-250.527 L 7.03647,-250.573 L 6.86133,-250.643 L 6.69626,-250.734 L 6.54385,-250.844
 L 6.40654,-250.973 L 6.28647,-251.118 L 6.18553,-251.277 L 6.10533,-251.448 L 6.04712,-251.627 L 6.01183,-251.812
 L 6,-252 L 6.01183,-252.188 L 6.04712,-252.373 L 6.10533,-252.552 L 6.18553,-252.723 L 6.28647,-252.882
 L 6.40654,-253.027 L 6.54385,-253.156 L 6.69626,-253.266 L 6.86133,-253.357 L 7.03647,-253.427 L 7.21892,-253.473
 L 7.40581,-253.497 L 8.09418,-253.497 L 8.28107,-253.473 L 8.46352,-253.427 L 8.63866,-253.357 L 8.80373,-253.266
 L 8.95613,-253.156 L 9.09344,-253.027 L 9.21352,-252.882 L 9.31445,-252.723 L 9.39465,-252.552 L 9.45287,-252.373
 L 9.48816,-252.188 L 9.5,-252 L 9.48816,-251.812 L 9.45287,-251.627 L 9.39465,-251.448 L 9.31445,-251.277
 L 9.21352,-251.118 L 9.09344,-250.973 L 8.95613,-250.844 L 8.80373,-250.734 L 8.63866,-250.643 L 8.46352,-250.573
 L 8.28107,-250.527 L 8.09418,-250.503 z
M -0.18837,-234.006 L -0.562134,-234.053 L -0.927048,-234.147 L -1.27733,-234.286 L -1.60747,-234.467 L -1.91226,-234.688
 L -2.1869,-234.946 L -2.42705,-235.237 L -2.62891,-235.555 L -2.78932,-235.896 L -2.90575,-236.254 L -2.97633,-236.624
 L -3,-237 L -2.97633,-237.376 L -2.90575,-237.746 L -2.78932,-238.104 L -2.62891,-238.445 L -2.42705,-238.763
 L -2.1869,-239.054 L -1.91226,-239.312 L -1.60747,-239.533 L -1.27733,-239.714 L -0.927048,-239.853 L -0.562134,-239.947
 L -0.18837,-239.994 L 0.18837,-239.994 L 0.562134,-239.947 L 0.927048,-239.853 L 1.27733,-239.714 L 1.60747,-239.533
 L 1.91226,-239.312 L 2.1869,-239.054 L 2.42705,-238.763 L 2.62891,-238.445 L 2.78932,-238.104 L 2.90575,-237.746
 L 2.97633,-237.376 L 3,-237 L 2.97633,-236.624 L 2.90575,-236.254 L 2.78932,-235.896 L 2.62891,-235.555
 L 2.42705,-235.237 L 2.1869,-234.946 L 1.91226,-234.688 L 1.60747,-234.467 L 1.27733,-234.286 L 0.927048,-234.147
 L 0.562134,-234.053 L 0.18837,-234.006 z
M -30.1884,-264.006 L -30.5621,-264.053 L -30.927,-264.147 L -31.2773,-264.286 L -31.6075,-264.467 L -31.9123,-264.688
 L -32.1869,-264.946 L -32.427,-265.237 L -32.6289,-265.555 L -32.7893,-265.896 L -32.9057,-266.254 L -32.9763,-266.624
 L -33,-267 L -32.9763,-267.376 L -32.9057,-267.746 L -32.7893,-268.104 L -32.6289,-268.445 L -32.427,-268.763
 L -32.1869,-269.054 L -31.9123,-269.312 L -31.6075,-269.533 L -31.2773,-269.714 L -30.927,-269.853 L -30.5621,-269.947
 L -30.1884,-269.994 L -29.8116,-269.994 L -29.4379,-269.947 L -29.0729,-269.853 L -28.7227,-269.714 L -28.3925,-269.533
 L -28.0877,-269.312 L -27.8131,-269.054 L -27.5729,-268.763 L -27.3711,-268.445 L -27.2107,-268.104 L -27.0942,-267.746
 L -27.0237,-267.376 L -27,-267 L -27.0237,-266.624 L -27.0942,-266.254 L -27.2107,-265.896 L -27.3711,-265.555
 L -27.5729,-265.237 L -27.8131,-264.946 L -28.0877,-264.688 L -28.3925,-264.467 L -28.7227,-264.286 L -29.0729,-264.147
 L -29.4379,-264.053 L -29.8116,-264.006 z
M 29.8116,-264.006 L 29.4379,-264.053 L 29.0729,-264.147 L 28.7227,-264.286 L 28.3925,-264.467 L 28.0877,-264.688
 L 27.8131,-264.946 L 27.5729,-265.237 L 27.3711,-265.555 L 27.2107,-265.896 L 27.0942,-266.254 L 27.0237,-266.624
 L 27,-267 L 27.0237,-267.376 L 27.0942,-267.746 L 27.2107,-268.104 L 27.3711,-268.445 L 27.5729,-268.763
 L 27.8131,-269.054 L 28.0877,-269.312 L 28.3925,-269.533 L 28.7227,-269.714 L 29.0729,-269.853 L 29.4379,-269.947
 L 29.8116,-269.994 L 30.1884,-269.994 L 30.5621,-269.947 L 30.927,-269.853 L 31.2773,-269.714 L 31.6075,-269.533
 L 31.9123,-269.312 L 32.1869,-269.054 L 32.427,-268.763 L 32.6289,-268.445 L 32.7893,-268.104 L 32.9057,-267.746
 L 32.9763,-267.376 L 33,-267 L 32.9763,-266.624 L 32.9057,-266.254 L 32.7893,-265.896 L 32.6289,-265.555
 L 32.427,-265.237 L 32.1869,-264.946 L 31.9123,-264.688 L 31.6075,-264.467 L 31.2773,-264.286 L 30.927,-264.147
 L 30.5621,-264.053 L 30.1884,-264.006 z
M 29.5997,-249.634 L 29.3063,-249.702 L 29.0238,-249.807 L 28.7567,-249.947 L 28.5092,-250.119 L 28.2853,-250.321
 L 28.0883,-250.549 L 27.9215,-250.8 L 27.7875,-251.07 L 27.6884,-251.355 L 27.6257,-251.649 L 27.6005,-251.95
 L 27.6131,-252.251 L 27.6634,-252.548 L 27.7505,-252.837 L 27.8731,-253.112 L 28.0292,-253.37 L 28.2164,-253.606
 L 28.4318,-253.817 L 28.6719,-253.999 L 28.9329,-254.15 L 29.2107,-254.266 L 29.501,-254.348 L 29.7992,-254.392
 L 30.1005,-254.398 L 30.4002,-254.366 L 30.6937,-254.298 L 30.9762,-254.193 L 31.2433,-254.053 L 31.4908,-253.881
 L 31.7147,-253.679 L 31.9117,-253.451 L 32.0785,-253.2 L 32.2125,-252.93 L 32.3116,-252.645 L 32.3743,-252.351
 L 32.3995,-252.05 L 32.3868,-251.749 L 32.3366,-251.452 L 32.2495,-251.163 L 32.1269,-250.888 L 31.9707,-250.63
 L 31.7835,-250.394 L 31.5682,-250.183 L 31.3281,-250.001 L 31.0671,-249.85 L 30.7893,-249.734 L 30.499,-249.652
 L 30.2008,-249.608 L 29.8995,-249.602 z
M -30.1507,-249.605 L -30.4497,-249.643 L -30.7416,-249.717 L -31.0219,-249.828 L -31.286,-249.974 L -31.5298,-250.151
 L -31.7495,-250.357 L -31.9416,-250.589 L -32.1031,-250.844 L -32.2315,-251.117 L -32.3246,-251.403 L -32.3811,-251.699
 L -32.4,-252 L -32.3811,-252.301 L -32.3246,-252.597 L -32.2315,-252.883 L -32.1031,-253.156 L -31.9416,-253.411
 L -31.7495,-253.643 L -31.5298,-253.849 L -31.286,-254.026 L -31.0219,-254.172 L -30.7416,-254.283 L -30.4497,-254.357
 L -30.1507,-254.395 L -29.8493,-254.395 L -29.5503,-254.357 L -29.2583,-254.283 L -28.9781,-254.172 L -28.714,-254.026
 L -28.4702,-253.849 L -28.2505,-253.643 L -28.0583,-253.411 L -27.8969,-253.156 L -27.7685,-252.883 L -27.6754,-252.597
 L -27.6189,-252.301 L -27.6,-252 L -27.6189,-251.699 L -27.6754,-251.403 L -27.7685,-251.117 L -27.8969,-250.844
 L -28.0583,-250.589 L -28.2505,-250.357 L -28.4702,-250.151 L -28.714,-249.974 L -28.9781,-249.828 L -29.2583,-249.717
 L -29.5503,-249.643 L -29.8493,-249.605 z
M -30.1884,-234.006 L -30.5621,-234.053 L -30.927,-234.147 L -31.2773,-234.286 L -31.6075,-234.467 L -31.9123,-234.688
 L -32.1869,-234.946 L -32.427,-235.237 L -32.6289,-235.555 L -32.7893,-235.896 L -32.9057,-236.254 L -32.9763,-236.624
 L -33,-237 L -32.9763,-237.376 L -32.9057,-237.746 L -32.7893,-238.104 L -32.6289,-238.445 L -32.427,-238.763
 L -32.1869,-239.054 L -31.9123,-239.312 L -31.6075,-239.533 L -31.2773,-239.714 L -30.927,-239.853 L -30.5621,-239.947
 L -30.1884,-239.994 L -29.8116,-239.994 L -29.4379,-239.947 L -29.0729,-239.853 L -28.7227,-239.714 L -28.3925,-239.533
 L -28.0877,-239.312 L -27.8131,-239.054 L -27.5729,-238.763 L -27.3711,-238.445 L -27.2107,-238.104 L -27.0942,-237.746
 L -27.0237,-237.376 L -27,-237 L -27.0237,-236.624 L -27.0942,-236.254 L -27.2107,-235.896 L -27.3711,-235.555
 L -27.5729,-235.237 L -27.8131,-234.946 L -28.0877,-234.688 L -28.3925,-234.467 L -28.7227,-234.286 L -29.0729,-234.147
 L -29.4379,-234.053 L -29.8116,-234.006 z
M 29.8116,-234.006 L 29.4379,-234.053 L 29.0729,-234.147 L 28.7227,-234.286 L 28.3925,-234.467 L 28.0877,-234.688
 L 27.8131,-234.946 L 27.5729,-235.237 L 27.3711,-235.555 L 27.2107,-235.896 L 27.0942,-236.254 L 27.0237,-236.624
 L 27,-237 L 27.0237,-237.376 L 27.0942,-237.746 L 27.2107,-238.104 L 27.3711,-238.445 L 27.5729,-238.763
 L 27.8131,-239.054 L 28.0877,-239.312 L 28.3925,-239.533 L 28.7227,-239.714 L 29.0729,-239.853 L 29.4379,-239.947
 L 29.8116,-239.994 L 30.1884,-239.994 L 30.5621,-239.947 L 30.927,-239.853 L 31.2773,-239.714 L 31.6075,-239.533
 L 31.9123,-239.312 L 32.1869,-239.054 L 32.427,-238.763 L 32.6289,-238.445 L 32.7893,-238.104 L 32.9057,-237.746
 L 32.9763,-237.376 L 33,-237 L 32.9763,-236.624 L 32.9057,-236.254 L 32.7893,-235.896 L 32.6289,-235.555
 L 32.427,-235.237 L 32.1869,-234.946 L 31.9123,-234.688 L 31.6075,-234.467 L 31.2773,-234.286 L 30.927,-234.147
 L 30.5621,-234.053 L 30.1884,-234.006 z
M -30.1884,-219.006 L -30.5621,-219.053 L -30.927,-219.147 L -31.2773,-219.286 L -31.6075,-219.467 L -31.9123,-219.688
 L -32.1869,-219.946 L -32.427,-220.237 L -32.6289,-220.555 L -32.7893,-220.896 L -32.9057,-221.254 L -32.9763,-221.624
 L -33,-222 L -32.9763,-222.376 L -32.9057,-222.746 L -32.7893,-223.104 L -32.6289,-223.445 L -32.427,-223.763
 L -32.1869,-224.054 L -31.9123,-224.312 L -31.6075,-224.533 L -31.2773,-224.714 L -30.927,-224.853 L -30.5621,-224.947
 L -30.1884,-224.994 L -29.8116,-224.994 L -29.4379,-224.947 L -29.0729,-224.853 L -28.7227,-224.714 L -28.3925,-224.533
 L -28.0877,-224.312 L -27.8131,-224.054 L -27.5729,-223.763 L -27.3711,-223.445 L -27.2107,-223.104 L -27.0942,-222.746
 L -27.0237,-222.376 L -27,-222 L -27.0237,-221.624 L -27.0942,-221.254 L -27.2107,-220.896 L -27.3711,-220.555
 L -27.5729,-220.237 L -27.8131,-219.946 L -28.0877,-219.688 L -28.3925,-219.467 L -28.7227,-219.286 L -29.0729,-219.147
 L -29.4379,-219.053 L -29.8116,-219.006 z
M 29.8116,-219.006 L 29.4379,-219.053 L 29.0729,-219.147 L 28.7227,-219.286 L 28.3925,-219.467 L 28.0877,-219.688
 L 27.8131,-219.946 L 27.5729,-220.237 L 27.3711,-220.555 L 27.2107,-220.896 L 27.0942,-221.254 L 27.0237,-221.624
 L 27,-222 L 27.0237,-222.376 L 27.0942,-222.746 L 27.2107,-223.104 L 27.3711,-223.445 L 27.5729,-223.763
 L 27.8131,-224.054 L 28.0877,-224.312 L 28.3925,-224.533 L 28.7227,-224.714 L 29.0729,-224.853 L 29.4379,-224.947
 L 29.8116,-224.994 L 30.1884,-224.994 L 30.5621,-224.947 L 30.927,-224.853 L 31.2773,-224.714 L 31.6075,-224.533
 L 31.9123,-224.312 L 32.1869,-224.054 L 32.427,-223.763 L 32.6289,-223.445 L 32.7893,-223.104 L 32.9057,-222.746
 L 32.9763,-222.376 L 33,-222 L 32.9763,-221.624 L 32.9057,-221.254 L 32.7893,-220.896 L 32.6289,-220.555
 L 32.427,-220.237 L 32.1869,-219.946 L 31.9123,-219.688 L 31.6075,-219.467 L 31.2773,-219.286 L 30.927,-219.147
 L 30.5621,-219.053 L 30.1884,-219.006 z
M 14.8116,-219.006 L 14.4379,-219.053 L 14.0729,-219.147 L 13.7227,-219.286 L 13.3925,-219.467 L 13.0877,-219.688
 L 12.8131,-219.946 L 12.5729,-220.237 L 12.3711,-220.555 L 12.2107,-220.896 L 12.0942,-221.254 L 12.0237,-221.624
 L 12,-222 L 12.0237,-222.376 L 12.0942,-222.746 L 12.2107,-223.104 L 12.3711,-223.445 L 12.5729,-223.763
 L 12.8131,-224.054 L 13.0877,-224.312 L 13.3925,-224.533 L 13.7227,-224.714 L 14.0729,-224.853 L 14.4379,-224.947
 L 14.8116,-224.994 L 15.1884,-224.994 L 15.5621,-224.947 L 15.927,-224.853 L 16.2773,-224.714 L 16.6075,-224.533
 L 16.9123,-224.312 L 17.1869,-224.054 L 17.427,-223.763 L 17.6289,-223.445 L 17.7893,-223.104 L 17.9057,-222.746
 L 17.9763,-222.376 L 18,-222 L 17.9763,-221.624 L 17.9057,-221.254 L 17.7893,-220.896 L 17.6289,-220.555
 L 17.427,-220.237 L 17.1869,-219.946 L 16.9123,-219.688 L 16.6075,-219.467 L 16.2773,-219.286 L 15.927,-219.147
 L 15.5621,-219.053 L 15.1884,-219.006 z
M -15.1884,-219.006 L -15.5621,-219.053 L -15.927,-219.147 L -16.2773,-219.286 L -16.6075,-219.467 L -16.9123,-219.688
 L -17.1869,-219.946 L -17.427,-220.237 L -17.6289,-220.555 L -17.7893,-220.896 L -17.9057,-221.254 L -17.9763,-221.624
 L -18,-222 L -17.9763,-222.376 L -17.9057,-222.746 L -17.7893,-223.104 L -17.6289,-223.445 L -17.427,-223.763
 L -17.1869,-224.054 L -16.9123,-224.312 L -16.6075,-224.533 L -16.2773,-224.714 L -15.927,-224.853 L -15.5621,-224.947
 L -15.1884,-224.994 L -14.8116,-224.994 L -14.4379,-224.947 L -14.0729,-224.853 L -13.7227,-224.714 L -13.3925,-224.533
 L -13.0877,-224.312 L -12.8131,-224.054 L -12.5729,-223.763 L -12.3711,-223.445 L -12.2107,-223.104 L -12.0942,-222.746
 L -12.0237,-222.376 L -12,-222 L -12.0237,-221.624 L -12.0942,-221.254 L -12.2107,-220.896 L -12.3711,-220.555
 L -12.5729,-220.237 L -12.8131,-219.946 L -13.0877,-219.688 L -13.3925,-219.467 L -13.7227,-219.286 L -14.0729,-219.147
 L -14.4379,-219.053 L -14.8116,-219.006 z
M -0.400238,-219.634 L -0.693665,-219.702 L -0.976166,-219.807 L -1.24326,-219.947 L -1.49075,-220.119 L -1.71472,-220.321
 L -1.91167,-220.549 L -2.07846,-220.8 L -2.21246,-221.07 L -2.31158,-221.355 L -2.37425,-221.649 L -2.39946,-221.95
 L -2.38684,-222.251 L -2.33658,-222.548 L -2.24947,-222.837 L -2.12688,-223.112 L -1.97075,-223.37 L -1.78354,-223.606
 L -1.56821,-223.817 L -1.32812,-223.999 L -1.06712,-224.15 L -0.789276,-224.267 L -0.498978,-224.348 L -0.200821,-224.392
 L 0.100494,-224.398 L 0.400238,-224.366 L 0.693665,-224.298 L 0.976166,-224.193 L 1.24326,-224.053 L 1.49075,-223.881
 L 1.71472,-223.679 L 1.91167,-223.451 L 2.07846,-223.2 L 2.21246,-222.93 L 2.31158,-222.645 L 2.37425,-222.351
 L 2.39946,-222.05 L 2.38684,-221.749 L 2.33658,-221.452 L 2.24947,-221.163 L 2.12688,-220.888 L 1.97075,-220.63
 L 1.78354,-220.394 L 1.56821,-220.183 L 1.32812,-220.001 L 1.06712,-219.85 L 0.789276,-219.734 L 0.498978,-219.652
 L 0.200821,-219.608 L -0.100494,-219.602 z
M 32.9369,-131.089 L 33.5451,-131.245 L 34.1289,-131.476 L 34.6791,-131.778 L 35.1871,-132.147 L 35.6448,-132.577
 L 36.0451,-133.061 L 36.3815,-133.591 L 36.6489,-134.159 L 36.8429,-134.757 L 36.9606,-135.373 L 37,-136
 L 37,-200 L 36.9606,-200.627 L 36.8429,-201.243 L 36.6489,-201.841 L 36.3815,-202.409 L 36.0451,-202.939
 L 35.6448,-203.423 L 35.1871,-203.853 L 34.6791,-204.222 L 34.1289,-204.524 L 33.5451,-204.755 L 32.9369,-204.911
 L 32.3139,-204.99 L -32.3139,-204.99 L -32.9369,-204.911 L -33.5451,-204.755 L -34.1289,-204.524 L -34.6791,-204.222
 L -35.1871,-203.853 L -35.6448,-203.423 L -36.0451,-202.939 L -36.3815,-202.409 L -36.6489,-201.841 L -36.8429,-201.243
 L -36.9606,-200.627 L -37,-200 L -37,-136 L -36.9606,-135.373 L -36.8429,-134.757 L -36.6489,-134.159
 L -36.3815,-133.591 L -36.0451,-133.061 L -35.6448,-132.577 L -35.1871,-132.147 L -34.6791,-131.778 L -34.1289,-131.476
 L -33.5451,-131.245 L -32.9369,-131.089 L -32.3139,-131.01 L 32.3139,-131.01 z
M -30.1884,-195.006 L -30.5621,-195.053 L -30.927,-195.147 L -31.2773,-195.286 L -31.6075,-195.467 L -31.9123,-195.688
 L -32.1869,-195.946 L -32.427,-196.237 L -32.6289,-196.555 L -32.7893,-196.896 L -32.9057,-197.254 L -32.9763,-197.624
 L -33,-198 L -32.9763,-198.376 L -32.9057,-198.746 L -32.7893,-199.104 L -32.6289,-199.445 L -32.427,-199.763
 L -32.1869,-200.054 L -31.9123,-200.312 L -31.6075,-200.533 L -31.2773,-200.714 L -30.927,-200.853 L -30.5621,-200.947
 L -30.1884,-200.994 L -29.8116,-200.994 L -29.4379,-200.947 L -29.0729,-200.853 L -28.7227,-200.714 L -28.3925,-200.533
 L -28.0877,-200.312 L -27.8131,-200.054 L -27.5729,-199.763 L -27.3711,-199.445 L -27.2107,-199.104 L -27.0942,-198.746
 L -27.0237,-198.376 L -27,-198 L -27.0237,-197.624 L -27.0942,-197.254 L -27.2107,-196.896 L -27.3711,-196.555
 L -27.5729,-196.237 L -27.8131,-195.946 L -28.0877,-195.688 L -28.3925,-195.467 L -28.7227,-195.286 L -29.0729,-195.147
 L -29.4379,-195.053 L -29.8116,-195.006 z
M -15.1884,-195.006 L -15.5621,-195.053 L -15.927,-195.147 L -16.2773,-195.286 L -16.6075,-195.467 L -16.9123,-195.688
 L -17.1869,-195.946 L -17.427,-196.237 L -17.6289,-196.555 L -17.7893,-196.896 L -17.9057,-197.254 L -17.9763,-197.624
 L -18,-198 L -17.9763,-198.376 L -17.9057,-198.746 L -17.7893,-199.104 L -17.6289,-199.445 L -17.427,-199.763
 L -17.1869,-200.054 L -16.9123,-200.312 L -16.6075,-200.533 L -16.2773,-200.714 L -15.927,-200.853 L -15.5621,-200.947
 L -15.1884,-200.994 L -14.8116,-200.994 L -14.4379,-200.947 L -14.0729,-200.853 L -13.7227,-200.714 L -13.3925,-200.533
 L -13.0877,-200.312 L -12.8131,-200.054 L -12.5729,-199.763 L -12.3711,-199.445 L -12.2107,-199.104 L -12.0942,-198.746
 L -12.0237,-198.376 L -12,-198 L -12.0237,-197.624 L -12.0942,-197.254 L -12.2107,-196.896 L -12.3711,-196.555
 L -12.5729,-196.237 L -12.8131,-195.946 L -13.0877,-195.688 L -13.3925,-195.467 L -13.7227,-195.286 L -14.0729,-195.147
 L -14.4379,-195.053 L -14.8116,-195.006 z
M 14.8116,-195.006 L 14.4379,-195.053 L 14.0729,-195.147 L 13.7227,-195.286 L 13.3925,-195.467 L 13.0877,-195.688
 L 12.8131,-195.946 L 12.5729,-196.237 L 12.3711,-196.555 L 12.2107,-196.896 L 12.0942,-197.254 L 12.0237,-197.624
 L 12,-198 L 12.0237,-198.376 L 12.0942,-198.746 L 12.2107,-199.104 L 12.3711,-199.445 L 12.5729,-199.763
 L 12.8131,-200.054 L 13.0877,-200.312 L 13.3925,-200.533 L 13.7227,-200.714 L 14.0729,-200.853 L 14.4379,-200.947
 L 14.8116,-200.994 L 15.1884,-200.994 L 15.5621,-200.947 L 15.927,-200.853 L 16.2773,-200.714 L 16.6075,-200.533
 L 16.9123,-200.312 L 17.1869,-200.054 L 17.427,-199.763 L 17.6289,-199.445 L 17.7893,-199.104 L 17.9057,-198.746
 L 17.9763,-198.376 L 18,-198 L 17.9763,-197.624 L 17.9057,-197.254 L 17.7893,-196.896 L 17.6289,-196.555
 L 17.427,-196.237 L 17.1869,-195.946 L 16.9123,-195.688 L 16.6075,-195.467 L 16.2773,-195.286 L 15.927,-195.147
 L 15.5621,-195.053 L 15.1884,-195.006 z
M 29.8116,-195.006 L 29.4379,-195.053 L 29.0729,-195.147 L 28.7227,-195.286 L 28.3925,-195.467 L 28.0877,-195.688
 L 27.8131,-195.946 L 27.5729,-196.237 L 27.3711,-196.555 L 27.2107,-196.896 L 27.0942,-197.254 L 27.0237,-197.624
 L 27,-198 L 27.0237,-198.376 L 27.0942,-198.746 L 27.2107,-199.104 L 27.3711,-199.445 L 27.5729,-199.763
 L 27.8131,-200.054 L 28.0877,-200.312 L 28.3925,-200.533 L 28.7227,-200.714 L 29.0729,-200.853 L 29.4379,-200.947
 L 29.8116,-200.994 L 30.1884,-200.994 L 30.5621,-200.947 L 30.927,-200.853 L 31.2773,-200.714 L 31.6075,-200.533
 L 31.9123,-200.312 L 32.1869,-200.054 L 32.427,-199.763 L 32.6289,-199.445 L 32.7893,-199.104 L 32.9057,-198.746
 L 32.9763,-198.376 L 33,-198 L 32.9763,-197.624 L 32.9057,-197.254 L 32.7893,-196.896 L 32.6289,-196.555
 L 32.427,-196.237 L 32.1869,-195.946 L 31.9123,-195.688 L 31.6075,-195.467 L 31.2773,-195.286 L 30.927,-195.147
 L 30.5621,-195.053 L 30.1884,-195.006 z
M -0.0941772,-196.503 L -0.281067,-196.527 L -0.463516,-196.573 L -0.638657,-196.643 L -0.803726,-196.734 L -0.956131,-196.844
 L -1.09344,-196.973 L -1.21352,-197.118 L -1.31445,-197.277 L -1.39465,-197.448 L -1.45287,-197.627 L -1.48816,-197.812
 L -1.5,-198 L -1.48816,-198.188 L -1.45287,-198.373 L -1.39465,-198.552 L -1.31445,-198.723 L -1.21352,-198.882
 L -1.09344,-199.027 L -0.956131,-199.156 L -0.803726,-199.266 L -0.638657,-199.357 L -0.463516,-199.427 L -0.281067,-199.473
 L -0.0941772,-199.497 L 0.0941772,-199.497 L 0.281067,-199.473 L 0.463516,-199.427 L 0.638657,-199.357 L 0.803726,-199.266
 L 0.956131,-199.156 L 1.09344,-199.027 L 1.21352,-198.882 L 1.31445,-198.723 L 1.39465,-198.552 L 1.45287,-198.373
 L 1.48816,-198.188 L 1.5,-198 L 1.48816,-197.812 L 1.45287,-197.627 L 1.39465,-197.448 L 1.31445,-197.277
 L 1.21352,-197.118 L 1.09344,-196.973 L 0.956131,-196.844 L 0.803726,-196.734 L 0.638657,-196.643 L 0.463516,-196.573
 L 0.281067,-196.527 L 0.0941772,-196.503 z
M -1.63255,-142.051 L -4.8719,-142.461 L -8.03444,-143.273 L -11.0703,-144.475 L -13.9315,-146.047 L -16.573,-147.967
 L -18.9532,-150.202 L -21.0344,-152.718 L -22.784,-155.474 L -24.1742,-158.429 L -25.1832,-161.534 L -25.795,-164.741
 L -26,-168 L -25.795,-171.259 L -25.1832,-174.466 L -24.1742,-177.571 L -22.784,-180.526 L -21.0344,-183.282
 L -18.9532,-185.798 L -16.573,-188.033 L -13.9315,-189.953 L -11.0703,-191.525 L -8.03444,-192.727 L -4.8719,-193.539
 L -1.63255,-193.949 L 1.63255,-193.949 L 4.8719,-193.539 L 8.03444,-192.727 L 11.0703,-191.525 L 13.9315,-189.953
 L 16.573,-188.033 L 18.9532,-185.798 L 21.0344,-183.282 L 22.784,-180.526 L 24.1742,-177.571 L 25.1832,-174.466
 L 25.795,-171.259 L 26,-168 L 25.795,-164.741 L 25.1832,-161.534 L 24.1742,-158.429 L 22.784,-155.474
 L 21.0344,-152.718 L 18.9532,-150.202 L 16.573,-147.967 L 13.9315,-146.047 L 11.0703,-144.475 L 8.03444,-143.273
 L 4.8719,-142.461 L 1.63255,-142.051 z
M 3.74762,-148.354 L 6.18033,-148.979 L 8.51558,-149.903 L 10.7165,-151.113 L 12.7485,-152.59 L 14.5794,-154.309
 L 16.1803,-156.244 L 17.5261,-158.365 L 18.5955,-160.638 L 19.3717,-163.026 L 19.8423,-165.493 L 20,-168
 L 19.8423,-170.507 L 19.3717,-172.974 L 18.5955,-175.362 L 17.5261,-177.635 L 16.1803,-179.756 L 14.5794,-181.691
 L 12.7485,-183.41 L 10.7165,-184.887 L 8.51558,-186.097 L 6.18033,-187.021 L 3.74762,-187.646 L 1.2558,-187.961
 L -1.2558,-187.961 L -3.74762,-187.646 L -6.18033,-187.021 L -8.51558,-186.097 L -10.7165,-184.887 L -12.7485,-183.41
 L -14.5794,-181.691 L -16.1803,-179.756 L -17.5261,-177.635 L -18.5955,-175.362 L -19.3717,-172.974 L -19.8423,-170.507
 L -20,-168 L -19.8423,-165.493 L -19.3717,-163.026 L -18.5955,-160.638 L -17.5261,-158.365 L -16.1803,-156.244
 L -14.5794,-154.309 L -12.7485,-152.59 L -10.7165,-151.113 L -8.51558,-149.903 L -6.18033,-148.979 L -3.74762,-148.354
 L -1.2558,-148.039 L 1.2558,-148.039 z
M -0.18837,-180.006 L -0.562134,-180.053 L -0.927048,-180.147 L -1.27733,-180.286 L -1.60747,-180.467 L -1.91226,-180.688
 L -2.1869,-180.946 L -2.42705,-181.237 L -2.62891,-181.555 L -2.78932,-181.896 L -2.90575,-182.254 L -2.97633,-182.624
 L -3,-183 L -2.97633,-183.376 L -2.90575,-183.746 L -2.78932,-184.104 L -2.62891,-184.445 L -2.42705,-184.763
 L -2.1869,-185.054 L -1.91226,-185.312 L -1.60747,-185.533 L -1.27733,-185.714 L -0.927048,-185.853 L -0.562134,-185.947
 L -0.18837,-185.994 L 0.18837,-185.994 L 0.562134,-185.947 L 0.927048,-185.853 L 1.27733,-185.714 L 1.60747,-185.533
 L 1.91226,-185.312 L 2.1869,-185.054 L 2.42705,-184.763 L 2.62891,-184.445 L 2.78932,-184.104 L 2.90575,-183.746
 L 2.97633,-183.376 L 3,-183 L 2.97633,-182.624 L 2.90575,-182.254 L 2.78932,-181.896 L 2.62891,-181.555
 L 2.42705,-181.237 L 2.1869,-180.946 L 1.91226,-180.688 L 1.60747,-180.467 L 1.27733,-180.286 L 0.927048,-180.147
 L 0.562134,-180.053 L 0.18837,-180.006 z
M 14.8116,-165.006 L 14.4379,-165.053 L 14.0729,-165.147 L 13.7227,-165.286 L 13.3925,-165.467 L 13.0877,-165.688
 L 12.8131,-165.946 L 12.5729,-166.237 L 12.3711,-166.555 L 12.2107,-166.896 L 12.0942,-167.254 L 12.0237,-167.624
 L 12,-168 L 12.0237,-168.376 L 12.0942,-168.746 L 12.2107,-169.104 L 12.3711,-169.445 L 12.5729,-169.763
 L 12.8131,-170.054 L 13.0877,-170.312 L 13.3925,-170.533 L 13.7227,-170.714 L 14.0729,-170.853 L 14.4379,-170.947
 L 14.8116,-170.994 L 15.1884,-170.994 L 15.5621,-170.947 L 15.927,-170.853 L 16.2773,-170.714 L 16.6075,-170.533
 L 16.9123,-170.312 L 17.1869,-170.054 L 17.427,-169.763 L 17.6289,-169.445 L 17.7893,-169.104 L 17.9057,-168.746
 L 17.9763,-168.376 L 18,-168 L 17.9763,-167.624 L 17.9057,-167.254 L 17.7893,-166.896 L 17.6289,-166.555
 L 17.427,-166.237 L 17.1869,-165.946 L 16.9123,-165.688 L 16.6075,-165.467 L 16.2773,-165.286 L 15.927,-165.147
 L 15.5621,-165.053 L 15.1884,-165.006 z
M -15.1884,-165.006 L -15.5621,-165.053 L -15.927,-165.147 L -16.2773,-165.286 L -16.6075,-165.467 L -16.9123,-165.688
 L -17.1869,-165.946 L -17.427,-166.237 L -17.6289,-166.555 L -17.7893,-166.896 L -17.9057,-167.254 L -17.9763,-167.624
 L -18,-168 L -17.9763,-168.376 L -17.9057,-168.746 L -17.7893,-169.104 L -17.6289,-169.445 L -17.427,-169.763
 L -17.1869,-170.054 L -16.9123,-170.312 L -16.6075,-170.533 L -16.2773,-170.714 L -15.927,-170.853 L -15.5621,-170.947
 L -15.1884,-170.994 L -14.8116,-170.994 L -14.4379,-170.947 L -14.0729,-170.853 L -13.7227,-170.714 L -13.3925,-170.533
 L -13.0877,-170.312 L -12.8131,-170.054 L -12.5729,-169.763 L -12.3711,-169.445 L -12.2107,-169.104 L -12.0942,-168.746
 L -12.0237,-168.376 L -12,-168 L -12.0237,-167.624 L -12.0942,-167.254 L -12.2107,-166.896 L -12.3711,-166.555
 L -12.5729,-166.237 L -12.8131,-165.946 L -13.0877,-165.688 L -13.3925,-165.467 L -13.7227,-165.286 L -14.0729,-165.147
 L -14.4379,-165.053 L -14.8116,-165.006 z
M -0.18837,-165.006 L -0.562134,-165.053 L -0.927048,-165.147 L -1.27733,-165.286 L -1.60747,-165.467 L -1.91226,-165.688
 L -2.1869,-165.946 L -2.42705,-166.237 L -2.62891,-166.555 L -2.78932,-166.896 L -2.90575,-167.254 L -2.97633,-167.624
 L -3,-168 L -2.97633,-168.376 L -2.90575,-168.746 L -2.78932,-169.104 L -2.62891,-169.445 L -2.42705,-169.763
 L -2.1869,-170.054 L -1.91226,-170.312 L -1.60747,-170.533 L -1.27733,-170.714 L -0.927048,-170.853 L -0.562134,-170.947
 L -0.18837,-170.994 L 0.18837,-170.994 L 0.562134,-170.947 L 0.927048,-170.853 L 1.27733,-170.714 L 1.60747,-170.533
 L 1.91226,-170.312 L 2.1869,-170.054 L 2.42705,-169.763 L 2.62891,-169.445 L 2.78932,-169.104 L 2.90575,-168.746
 L 2.97633,-168.376 L 3,-168 L 2.97633,-167.624 L 2.90575,-167.254 L 2.78932,-166.896 L 2.62891,-166.555
 L 2.42705,-166.237 L 2.1869,-165.946 L 1.91226,-165.688 L 1.60747,-165.467 L 1.27733,-165.286 L 0.927048,-165.147
 L 0.562134,-165.053 L 0.18837,-165.006 z
M -8.09418,-166.503 L -8.28107,-166.527 L -8.46352,-166.573 L -8.63866,-166.643 L -8.80373,-166.734 L -8.95613,-166.844
 L -9.09344,-166.973 L -9.21352,-167.118 L -9.31445,-167.277 L -9.39465,-167.448 L -9.45287,-167.627 L -9.48816,-167.812
 L -9.5,-168 L -9.48816,-168.188 L -9.45287,-168.373 L -9.39465,-168.552 L -9.31445,-168.723 L -9.21352,-168.882
 L -9.09344,-169.027 L -8.95613,-169.156 L -8.80373,-169.266 L -8.63866,-169.357 L -8.46352,-169.427 L -8.28107,-169.473
 L -8.09418,-169.497 L -7.40581,-169.497 L -7.21892,-169.473 L -7.03647,-169.427 L -6.86133,-169.357 L -6.69626,-169.266
 L -6.54385,-169.156 L -6.40654,-169.027 L -6.28647,-168.882 L -6.18553,-168.723 L -6.10533,-168.552 L -6.04712,-168.373
 L -6.01183,-168.188 L -6,-168 L -6.01183,-167.812 L -6.04712,-167.627 L -6.10533,-167.448 L -6.18553,-167.277
 L -6.28647,-167.118 L -6.40654,-166.973 L -6.54385,-166.844 L -6.69626,-166.734 L -6.86133,-166.643 L -7.03647,-166.573
 L -7.21892,-166.527 L -7.40581,-166.503 z
M 7.40581,-166.503 L 7.21892,-166.527 L 7.03647,-166.573 L 6.86133,-166.643 L 6.69626,-166.734 L 6.54385,-166.844
 L 6.40654,-166.973 L 6.28647,-167.118 L 6.18553,-167.277 L 6.10533,-167.448 L 6.04712,-167.627 L 6.01183,-167.812
 L 6,-168 L 6.01183,-168.188 L 6.04712,-168.373 L 6.10533,-168.552 L 6.18553,-168.723 L 6.28647,-168.882
 L 6.40654,-169.027 L 6.54385,-169.156 L 6.69626,-169.266 L 6.86133,-169.357 L 7.03647,-169.427 L 7.21892,-169.473
 L 7.40581,-169.497 L 8.09418,-169.497 L 8.28107,-169.473 L 8.46352,-169.427 L 8.63866,-169.357 L 8.80373,-169.266
 L 8.95613,-169.156 L 9.09344,-169.027 L 9.21352,-168.882 L 9.31445,-168.723 L 9.39465,-168.552 L 9.45287,-168.373
 L 9.48816,-168.188 L 9.5,-168 L 9.48816,-167.812 L 9.45287,-167.627 L 9.39465,-167.448 L 9.31445,-167.277
 L 9.21352,-167.118 L 9.09344,-166.973 L 8.95613,-166.844 L 8.80373,-166.734 L 8.63866,-166.643 L 8.46352,-166.573
 L 8.28107,-166.527 L 8.09418,-166.503 z
M -0.18837,-150.006 L -0.562134,-150.053 L -0.927048,-150.147 L -1.27733,-150.286 L -1.60747,-150.467 L -1.91226,-150.688
 L -2.1869,-150.946 L -2.42705,-151.237 L -2.62891,-151.555 L -2.78932,-151.896 L -2.90575,-152.254 L -2.97633,-152.624
 L -3,-153 L -2.97633,-153.376 L -2.90575,-153.746 L -2.78932,-154.104 L -2.62891,-154.445 L -2.42705,-154.763
 L -2.1869,-155.054 L -1.91226,-155.312 L -1.60747,-155.533 L -1.27733,-155.714 L -0.927048,-155.853 L -0.562134,-155.947
 L -0.18837,-155.994 L 0.18837,-155.994 L 0.562134,-155.947 L 0.927048,-155.853 L 1.27733,-155.714 L 1.60747,-155.533
 L 1.91226,-155.312 L 2.1869,-155.054 L 2.42705,-154.763 L 2.62891,-154.445 L 2.78932,-154.104 L 2.90575,-153.746
 L 2.97633,-153.376 L 3,-153 L 2.97633,-152.624 L 2.90575,-152.254 L 2.78932,-151.896 L 2.62891,-151.555
 L 2.42705,-151.237 L 2.1869,-150.946 L 1.91226,-150.688 L 1.60747,-150.467 L 1.27733,-150.286 L 0.927048,-150.147
 L 0.562134,-150.053 L 0.18837,-150.006 z
M -30.1884,-180.006 L -30.5621,-180.053 L -30.927,-180.147 L -31.2773,-180.286 L -31.6075,-180.467 L -31.9123,-180.688
 L -32.1869,-180.946 L -32.427,-181.237 L -32.6289,-181.555 L -32.7893,-181.896 L -32.9057,-182.254 L -32.9763,-182.624
 L -33,-183 L -32.9763,-183.376 L -32.9057,-183.746 L -32.7893,-184.104 L -32.6289,-184.445 L -32.427,-184.763
 L -32.1869,-185.054 L -31.9123,-185.312 L -31.6075,-185.533 L -31.2773,-185.714 L -30.927,-185.853 L -30.5621,-185.947
 L -30.1884,-185.994 L -29.8116,-185.994 L -29.4379,-185.947 L -29.0729,-185.853 L -28.7227,-185.714 L -28.3925,-185.533
 L -28.0877,-185.312 L -27.8131,-185.054 L -27.5729,-184.763 L -27.3711,-184.445 L -27.2107,-184.104 L -27.0942,-183.746
 L -27.0237,-183.376 L -27,-183 L -27.0237,-182.624 L -27.0942,-182.254 L -27.2107,-181.896 L -27.3711,-181.555
 L -27.5729,-181.237 L -27.8131,-180.946 L -28.0877,-180.688 L -28.3925,-180.467 L -28.7227,-180.286 L -29.0729,-180.147
 L -29.4379,-180.053 L -29.8116,-180.006 z
M 29.8116,-180.006 L 29.4379,-180.053 L 29.0729,-180.147 L 28.7227,-180.286 L 28.3925,-180.467 L 28.0877,-180.688
 L 27.8131,-180.946 L 27.5729,-181.237 L 27.3711,-181.555 L 27.2107,-181.896 L 27.0942,-182.254 L 27.0237,-182.624
 L 27,-183 L 27.0237,-183.376 L 27.0942,-183.746 L 27.2107,-184.104 L 27.3711,-184.445 L 27.5729,-184.763
 L 27.8131,-185.054 L 28.0877,-185.312 L 28.3925,-185.533 L 28.7227,-185.714 L 29.0729,-185.853 L 29.4379,-185.947
 L 29.8116,-185.994 L 30.1884,-185.994 L 30.5621,-185.947 L 30.927,-185.853 L 31.2773,-185.714 L 31.6075,-185.533
 L 31.9123,-185.312 L 32.1869,-185.054 L 32.427,-184.763 L 32.6289,-184.445 L 32.7893,-184.104 L 32.9057,-183.746
 L 32.9763,-183.376 L 33,-183 L 32.9763,-182.624 L 32.9057,-182.254 L 32.7893,-181.896 L 32.6289,-181.555
 L 32.427,-181.237 L 32.1869,-180.946 L 31.9123,-180.688 L 31.6075,-180.467 L 31.2773,-180.286 L 30.927,-180.147
 L 30.5621,-180.053 L 30.1884,-180.006 z
M -31.6733,-165.102 L -33.3466,-168 L -31.6733,-170.898 L -28.3267,-170.898 L -26.6534,-168 L -28.3267,-165.102
 z
M 28.3267,-165.102 L 26.6534,-168 L 28.3267,-170.898 L 31.6733,-170.898 L 33.3466,-168 L 31.6733,-165.102
 z
M 29.8116,-150.006 L 29.4379,-150.053 L 29.0729,-150.147 L 28.7227,-150.286 L 28.3925,-150.467 L 28.0877,-150.688
 L 27.8131,-150.946 L 27.5729,-151.237 L 27.3711,-151.555 L 27.2107,-151.896 L 27.0942,-152.254 L 27.0237,-152.624
 L 27,-153 L 27.0237,-153.376 L 27.0942,-153.746 L 27.2107,-154.104 L 27.3711,-154.445 L 27.5729,-154.763
 L 27.8131,-155.054 L 28.0877,-155.312 L 28.3925,-155.533 L 28.7227,-155.714 L 29.0729,-155.853 L 29.4379,-155.947
 L 29.8116,-155.994 L 30.1884,-155.994 L 30.5621,-155.947 L 30.927,-155.853 L 31.2773,-155.714 L 31.6075,-155.533
 L 31.9123,-155.312 L 32.1869,-155.054 L 32.427,-154.763 L 32.6289,-154.445 L 32.7893,-154.104 L 32.9057,-153.746
 L 32.9763,-153.376 L 33,-153 L 32.9763,-152.624 L 32.9057,-152.254 L 32.7893,-151.896 L 32.6289,-151.555
 L 32.427,-151.237 L 32.1869,-150.946 L 31.9123,-150.688 L 31.6075,-150.467 L 31.2773,-150.286 L 30.927,-150.147
 L 30.5621,-150.053 L 30.1884,-150.006 z
M -30.1884,-150.006 L -30.5621,-150.053 L -30.927,-150.147 L -31.2773,-150.286 L -31.6075,-150.467 L -31.9123,-150.688
 L -32.1869,-150.946 L -32.427,-151.237 L -32.6289,-151.555 L -32.7893,-151.896 L -32.9057,-152.254 L -32.9763,-152.624
 L -33,-153 L -32.9763,-153.376 L -32.9057,-153.746 L -32.7893,-154.104 L -32.6289,-154.445 L -32.427,-154.763
 L -32.1869,-155.054 L -31.9123,-155.312 L -31.6075,-155.533 L -31.2773,-155.714 L -30.927,-155.853 L -30.5621,-155.947
 L -30.1884,-155.994 L -29.8116,-155.994 L -29.4379,-155.947 L -29.0729,-155.853 L -28.7227,-155.714 L -28.3925,-155.533
 L -28.0877,-155.312 L -27.8131,-155.054 L -27.5729,-154.763 L -27.3711,-154.445 L -27.2107,-154.104 L -27.0942,-153.746
 L -27.0237,-153.376 L -27,-153 L -27.0237,-152.624 L -27.0942,-152.254 L -27.2107,-151.896 L -27.3711,-151.555
 L -27.5729,-151.237 L -27.8131,-150.946 L -28.0877,-150.688 L -28.3925,-150.467 L -28.7227,-150.286 L -29.0729,-150.147
 L -29.4379,-150.053 L -29.8116,-150.006 z
M 29.8116,-135.006 L 29.4379,-135.053 L 29.0729,-135.147 L 28.7227,-135.286 L 28.3925,-135.467 L 28.0877,-135.688
 L 27.8131,-135.946 L 27.5729,-136.237 L 27.3711,-136.555 L 27.2107,-136.896 L 27.0942,-137.254 L 27.0237,-137.624
 L 27,-138 L 27.0237,-138.376 L 27.0942,-138.746 L 27.2107,-139.104 L 27.3711,-139.445 L 27.5729,-139.763
 L 27.8131,-140.054 L 28.0877,-140.312 L 28.3925,-140.533 L 28.7227,-140.714 L 29.0729,-140.853 L 29.4379,-140.947
 L 29.8116,-140.994 L 30.1884,-140.994 L 30.5621,-140.947 L 30.927,-140.853 L 31.2773,-140.714 L 31.6075,-140.533
 L 31.9123,-140.312 L 32.1869,-140.054 L 32.427,-139.763 L 32.6289,-139.445 L 32.7893,-139.104 L 32.9057,-138.746
 L 32.9763,-138.376 L 33,-138 L 32.9763,-137.624 L 32.9057,-137.254 L 32.7893,-136.896 L 32.6289,-136.555
 L 32.427,-136.237 L 32.1869,-135.946 L 31.9123,-135.688 L 31.6075,-135.467 L 31.2773,-135.286 L 30.927,-135.147
 L 30.5621,-135.053 L 30.1884,-135.006 z
M 14.8116,-135.006 L 14.4379,-135.053 L 14.0729,-135.147 L 13.7227,-135.286 L 13.3925,-135.467 L 13.0877,-135.688
 L 12.8131,-135.946 L 12.5729,-136.237 L 12.3711,-136.555 L 12.2107,-136.896 L 12.0942,-137.254 L 12.0237,-137.624
 L 12,-138 L 12.0237,-138.376 L 12.0942,-138.746 L 12.2107,-139.104 L 12.3711,-139.445 L 12.5729,-139.763
 L 12.8131,-140.054 L 13.0877,-140.312 L 13.3925,-140.533 L 13.7227,-140.714 L 14.0729,-140.853 L 14.4379,-140.947
 L 14.8116,-140.994 L 15.1884,-140.994 L 15.5621,-140.947 L 15.927,-140.853 L 16.2773,-140.714 L 16.6075,-140.533
 L 16.9123,-140.312 L 17.1869,-140.054 L 17.427,-139.763 L 17.6289,-139.445 L 17.7893,-139.104 L 17.9057,-138.746
 L 17.9763,-138.376 L 18,-138 L 17.9763,-137.624 L 17.9057,-137.254 L 17.7893,-136.896 L 17.6289,-136.555
 L 17.427,-136.237 L 17.1869,-135.946 L 16.9123,-135.688 L 16.6075,-135.467 L 16.2773,-135.286 L 15.927,-135.147
 L 15.5621,-135.053 L 15.1884,-135.006 z
M -15.1884,-135.006 L -15.5621,-135.053 L -15.927,-135.147 L -16.2773,-135.286 L -16.6075,-135.467 L -16.9123,-135.688
 L -17.1869,-135.946 L -17.427,-136.237 L -17.6289,-136.555 L -17.7893,-136.896 L -17.9057,-137.254 L -17.9763,-137.624
 L -18,-138 L -17.9763,-138.376 L -17.9057,-138.746 L -17.7893,-139.104 L -17.6289,-139.445 L -17.427,-139.763
 L -17.1869,-140.054 L -16.9123,-140.312 L -16.6075,-140.533 L -16.2773,-140.714 L -15.927,-140.853 L -15.5621,-140.947
 L -15.1884,-140.994 L -14.8116,-140.994 L -14.4379,-140.947 L -14.0729,-140.853 L -13.7227,-140.714 L -13.3925,-140.533
 L -13.0877,-140.312 L -12.8131,-140.054 L -12.5729,-139.763 L -12.3711,-139.445 L -12.2107,-139.104 L -12.0942,-138.746
 L -12.0237,-138.376 L -12,-138 L -12.0237,-137.624 L -12.0942,-137.254 L -12.2107,-136.896 L -12.3711,-136.555
 L -12.5729,-136.237 L -12.8131,-135.946 L -13.0877,-135.688 L -13.3925,-135.467 L -13.7227,-135.286 L -14.0729,-135.147
 L -14.4379,-135.053 L -14.8116,-135.006 z
M -30.1884,-135.006 L -30.5621,-135.053 L -30.927,-135.147 L -31.2773,-135.286 L -31.6075,-135.467 L -31.9123,-135.688
 L -32.1869,-135.946 L -32.427,-136.237 L -32.6289,-136.555 L -32.7893,-136.896 L -32.9057,-137.254 L -32.9763,-137.624
 L -33,-138 L -32.9763,-138.376 L -32.9057,-138.746 L -32.7893,-139.104 L -32.6289,-139.445 L -32.427,-139.763
 L -32.1869,-140.054 L -31.9123,-140.312 L -31.6075,-140.533 L -31.2773,-140.714 L -30.927,-140.853 L -30.5621,-140.947
 L -30.1884,-140.994 L -29.8116,-140.994 L -29.4379,-140.947 L -29.0729,-140.853 L -28.7227,-140.714 L -28.3925,-140.533
 L -28.0877,-140.312 L -27.8131,-140.054 L -27.5729,-139.763 L -27.3711,-139.445 L -27.2107,-139.104 L -27.0942,-138.746
 L -27.0237,-138.376 L -27,-138 L -27.0237,-137.624 L -27.0942,-137.254 L -27.2107,-136.896 L -27.3711,-136.555
 L -27.5729,-136.237 L -27.8131,-135.946 L -28.0877,-135.688 L -28.3925,-135.467 L -28.7227,-135.286 L -29.0729,-135.147
 L -29.4379,-135.053 L -29.8116,-135.006 z
M -0.250153,-136.521 L -0.433533,-136.564 L -0.610092,-136.63 L -0.777039,-136.717 L -0.931717,-136.824 L -1.0717,-136.951
 L -1.19479,-137.093 L -1.29903,-137.25 L -1.38278,-137.419 L -1.44473,-137.597 L -1.4839,-137.781 L -1.49966,-137.969
 L -1.49178,-138.157 L -1.46036,-138.343 L -1.40591,-138.523 L -1.3293,-138.695 L -1.23172,-138.856 L -1.11472,-139.004
 L -0.980118,-139.135 L -0.830078,-139.249 L -0.666946,-139.344 L -0.493286,-139.417 L -0.311859,-139.467 L -0.125504,-139.495
 L 0.0628052,-139.499 L 0.250153,-139.479 L 0.433533,-139.436 L 0.610092,-139.37 L 0.777039,-139.283 L 0.931717,-139.176
 L 1.0717,-139.049 L 1.19479,-138.907 L 1.29903,-138.75 L 1.38278,-138.581 L 1.44473,-138.403 L 1.4839,-138.219
 L 1.49966,-138.031 L 1.49178,-137.843 L 1.46036,-137.657 L 1.40591,-137.477 L 1.3293,-137.305 L 1.23172,-137.144
 L 1.11472,-136.996 L 0.980118,-136.865 L 0.830078,-136.751 L 0.666946,-136.656 L 0.493286,-136.583 L 0.311859,-136.533
 L 0.125504,-136.505 L -0.0628052,-136.501 z
M 32.9369,-47.0886 L 33.5451,-47.2447 L 34.1289,-47.4759 L 34.6791,-47.7784 L 35.1871,-48.1474 L 35.6448,-48.5773
 L 36.0451,-49.0611 L 36.3815,-49.5912 L 36.6489,-50.1594 L 36.8429,-50.7566 L 36.9606,-51.3733 L 37,-52
 L 37,-116 L 36.9606,-116.627 L 36.8429,-117.243 L 36.6489,-117.841 L 36.3815,-118.409 L 36.0451,-118.939
 L 35.6448,-119.423 L 35.1871,-119.853 L 34.6791,-120.222 L 34.1289,-120.524 L 33.5451,-120.755 L 32.9369,-120.911
 L 32.3139,-120.99 L -32.3139,-120.99 L -32.9369,-120.911 L -33.5451,-120.755 L -34.1289,-120.524 L -34.6791,-120.222
 L -35.1871,-119.853 L -35.6448,-119.423 L -36.0451,-118.939 L -36.3815,-118.409 L -36.6489,-117.841 L -36.8429,-117.243
 L -36.9606,-116.627 L -37,-116 L -37,-52 L -36.9606,-51.3733 L -36.8429,-50.7566 L -36.6489,-50.1594
 L -36.3815,-49.5912 L -36.0451,-49.0611 L -35.6448,-48.5773 L -35.1871,-48.1474 L -34.6791,-47.7784 L -34.1289,-47.4759
 L -33.5451,-47.2447 L -32.9369,-47.0886 L -32.3139,-47.0099 L 32.3139,-47.0099 z
M -15.1884,-111.006 L -15.5621,-111.053 L -15.927,-111.147 L -16.2773,-111.286 L -16.6075,-111.467 L -16.9123,-111.688
 L -17.1869,-111.946 L -17.427,-112.237 L -17.6289,-112.555 L -17.7893,-112.896 L -17.9057,-113.254 L -17.9763,-113.624
 L -18,-114 L -17.9763,-114.376 L -17.9057,-114.746 L -17.7893,-115.104 L -17.6289,-115.445 L -17.427,-115.763
 L -17.1869,-116.054 L -16.9123,-116.312 L -16.6075,-116.533 L -16.2773,-116.714 L -15.927,-116.853 L -15.5621,-116.947
 L -15.1884,-116.994 L -14.8116,-116.994 L -14.4379,-116.947 L -14.0729,-116.853 L -13.7227,-116.714 L -13.3925,-116.533
 L -13.0877,-116.312 L -12.8131,-116.054 L -12.5729,-115.763 L -12.3711,-115.445 L -12.2107,-115.104 L -12.0942,-114.746
 L -12.0237,-114.376 L -12,-114 L -12.0237,-113.624 L -12.0942,-113.254 L -12.2107,-112.896 L -12.3711,-112.555
 L -12.5729,-112.237 L -12.8131,-111.946 L -13.0877,-111.688 L -13.3925,-111.467 L -13.7227,-111.286 L -14.0729,-111.147
 L -14.4379,-111.053 L -14.8116,-111.006 z
M -30.1884,-111.006 L -30.5621,-111.053 L -30.927,-111.147 L -31.2773,-111.286 L -31.6075,-111.467 L -31.9123,-111.688
 L -32.1869,-111.946 L -32.427,-112.237 L -32.6289,-112.555 L -32.7893,-112.896 L -32.9057,-113.254 L -32.9763,-113.624
 L -33,-114 L -32.9763,-114.376 L -32.9057,-114.746 L -32.7893,-115.104 L -32.6289,-115.445 L -32.427,-115.763
 L -32.1869,-116.054 L -31.9123,-116.312 L -31.6075,-116.533 L -31.2773,-116.714 L -30.927,-116.853 L -30.5621,-116.947
 L -30.1884,-116.994 L -29.8116,-116.994 L -29.4379,-116.947 L -29.0729,-116.853 L -28.7227,-116.714 L -28.3925,-116.533
 L -28.0877,-116.312 L -27.8131,-116.054 L -27.5729,-115.763 L -27.3711,-115.445 L -27.2107,-115.104 L -27.0942,-114.746
 L -27.0237,-114.376 L -27,-114 L -27.0237,-113.624 L -27.0942,-113.254 L -27.2107,-112.896 L -27.3711,-112.555
 L -27.5729,-112.237 L -27.8131,-111.946 L -28.0877,-111.688 L -28.3925,-111.467 L -28.7227,-111.286 L -29.0729,-111.147
 L -29.4379,-111.053 L -29.8116,-111.006 z
M 14.8116,-111.006 L 14.4379,-111.053 L 14.0729,-111.147 L 13.7227,-111.286 L 13.3925,-111.467 L 13.0877,-111.688
 L 12.8131,-111.946 L 12.5729,-112.237 L 12.3711,-112.555 L 12.2107,-112.896 L 12.0942,-113.254 L 12.0237,-113.624
 L 12,-114 L 12.0237,-114.376 L 12.0942,-114.746 L 12.2107,-115.104 L 12.3711,-115.445 L 12.5729,-115.763
 L 12.8131,-116.054 L 13.0877,-116.312 L 13.3925,-116.533 L 13.7227,-116.714 L 14.0729,-116.853 L 14.4379,-116.947
 L 14.8116,-116.994 L 15.1884,-116.994 L 15.5621,-116.947 L 15.927,-116.853 L 16.2773,-116.714 L 16.6075,-116.533
 L 16.9123,-116.312 L 17.1869,-116.054 L 17.427,-115.763 L 17.6289,-115.445 L 17.7893,-115.104 L 17.9057,-114.746
 L 17.9763,-114.376 L 18,-114 L 17.9763,-113.624 L 17.9057,-113.254 L 17.7893,-112.896 L 17.6289,-112.555
 L 17.427,-112.237 L 17.1869,-111.946 L 16.9123,-111.688 L 16.6075,-111.467 L 16.2773,-111.286 L 15.927,-111.147
 L 15.5621,-111.053 L 15.1884,-111.006 z
M 29.8116,-111.006 L 29.4379,-111.053 L 29.0729,-111.147 L 28.7227,-111.286 L 28.3925,-111.467 L 28.0877,-111.688
 L 27.8131,-111.946 L 27.5729,-112.237 L 27.3711,-112.555 L 27.2107,-112.896 L 27.0942,-113.254 L 27.0237,-113.624
 L 27,-114 L 27.0237,-114.376 L 27.0942,-114.746 L 27.2107,-115.104 L 27.3711,-115.445 L 27.5729,-115.763
 L 27.8131,-116.054 L 28.0877,-116.312 L 28.3925,-116.533 L 28.7227,-116.714 L 29.0729,-116.853 L 29.4379,-116.947
 L 29.8116,-116.994 L 30.1884,-116.994 L 30.5621,-116.947 L 30.927,-116.853 L 31.2773,-116.714 L 31.6075,-116.533
 L 31.9123,-116.312 L 32.1869,-116.054 L 32.427,-115.763 L 32.6289,-115.445 L 32.7893,-115.104 L 32.9057,-114.746
 L 32.9763,-114.376 L 33,-114 L 32.9763,-113.624 L 32.9057,-113.254 L 32.7893,-112.896 L 32.6289,-112.555
 L 32.427,-112.237 L 32.1869,-111.946 L 31.9123,-111.688 L 31.6075,-111.467 L 31.2773,-111.286 L 30.927,-111.147
 L 30.5621,-111.053 L 30.1884,-111.006 z
M -0.0941772,-112.503 L -0.281067,-112.527 L -0.463516,-112.573 L -0.638657,-112.643 L -0.803726,-112.734 L -0.956131,-112.844
 L -1.09344,-112.973 L -1.21352,-113.118 L -1.31445,-113.277 L -1.39465,-113.448 L -1.45287,-113.627 L -1.48816,-113.812
 L -1.5,-114 L -1.48816,-114.188 L -1.45287,-114.373 L -1.39465,-114.552 L -1.31445,-114.723 L -1.21352,-114.882
 L -1.09344,-115.027 L -0.956131,-115.156 L -0.803726,-115.266 L -0.638657,-115.357 L -0.463516,-115.427 L -0.281067,-115.473
 L -0.0941772,-115.497 L 0.0941772,-115.497 L 0.281067,-115.473 L 0.463516,-115.427 L 0.638657,-115.357 L 0.803726,-115.266
 L 0.956131,-115.156 L 1.09344,-115.027 L 1.21352,-114.882 L 1.31445,-114.723 L 1.39465,-114.552 L 1.45287,-114.373
 L 1.48816,-114.188 L 1.5,-114 L 1.48816,-113.812 L 1.45287,-113.627 L 1.39465,-113.448 L 1.31445,-113.277
 L 1.21352,-113.118 L 1.09344,-112.973 L 0.956131,-112.844 L 0.803726,-112.734 L 0.638657,-112.643 L 0.463516,-112.573
 L 0.281067,-112.527 L 0.0941772,-112.503 z
M -1.63255,-58.0513 L -4.8719,-58.4605 L -8.03444,-59.2725 L -11.0703,-60.4745 L -13.9315,-62.0475 L -16.573,-63.9667
 L -18.9532,-66.2018 L -21.0344,-68.7176 L -22.784,-71.4744 L -24.1742,-74.4288 L -25.1832,-77.5341 L -25.795,-80.7413
 L -26,-84 L -25.795,-87.2587 L -25.1832,-90.4659 L -24.1742,-93.5712 L -22.784,-96.5256 L -21.0344,-99.2824
 L -18.9532,-101.798 L -16.573,-104.033 L -13.9315,-105.953 L -11.0703,-107.525 L -8.03444,-108.727 L -4.8719,-109.539
 L -1.63255,-109.949 L 1.63255,-109.949 L 4.8719,-109.539 L 8.03444,-108.727 L 11.0703,-107.525 L 13.9315,-105.953
 L 16.573,-104.033 L 18.9532,-101.798 L 21.0344,-99.2824 L 22.784,-96.5256 L 24.1742,-93.5712 L 25.1832,-90.4659
 L 25.795,-87.2587 L 26,-84 L 25.795,-80.7413 L 25.1832,-77.5341 L 24.1742,-74.4288 L 22.784,-71.4744
 L 21.0344,-68.7176 L 18.9532,-66.2018 L 16.573,-63.9667 L 13.9315,-62.0475 L 11.0703,-60.4745 L 8.03444,-59.2725
 L 4.8719,-58.4605 L 1.63255,-58.0513 z
M 3.74762,-64.3543 L 6.18033,-64.9789 L 8.51558,-65.9035 L 10.7165,-67.1134 L 12.7485,-68.5897 L 14.5794,-70.3091
 L 16.1803,-72.2443 L 17.5261,-74.3649 L 18.5955,-76.6375 L 19.3717,-79.0262 L 19.8423,-81.4933 L 20,-84
 L 19.8423,-86.5067 L 19.3717,-88.9738 L 18.5955,-91.3625 L 17.5261,-93.6351 L 16.1803,-95.7557 L 14.5794,-97.6909
 L 12.7485,-99.4103 L 10.7165,-100.887 L 8.51558,-102.097 L 6.18033,-103.021 L 3.74762,-103.646 L 1.2558,-103.961
 L -1.2558,-103.961 L -3.74762,-103.646 L -6.18033,-103.021 L -8.51558,-102.097 L -10.7165,-100.887 L -12.7485,-99.4103
 L -14.5794,-97.6909 L -16.1803,-95.7557 L -17.5261,-93.6351 L -18.5955,-91.3625 L -19.3717,-88.9738 L -19.8423,-86.5067
 L -20,-84 L -19.8423,-81.4933 L -19.3717,-79.0262 L -18.5955,-76.6375 L -17.5261,-74.3649 L -16.1803,-72.2443
 L -14.5794,-70.3091 L -12.7485,-68.5897 L -10.7165,-67.1134 L -8.51558,-65.9035 L -6.18033,-64.9789 L -3.74762,-64.3543
 L -1.2558,-64.0395 L 1.2558,-64.0395 z
M -0.18837,-96.0059 L -0.562134,-96.0531 L -0.927048,-96.1468 L -1.27733,-96.2855 L -1.60747,-96.467 L -1.91226,-96.6884
 L -2.1869,-96.9464 L -2.42705,-97.2366 L -2.62891,-97.5547 L -2.78932,-97.8956 L -2.90575,-98.2539 L -2.97633,-98.624
 L -3,-99 L -2.97633,-99.376 L -2.90575,-99.7461 L -2.78932,-100.104 L -2.62891,-100.445 L -2.42705,-100.763
 L -2.1869,-101.054 L -1.91226,-101.312 L -1.60747,-101.533 L -1.27733,-101.714 L -0.927048,-101.853 L -0.562134,-101.947
 L -0.18837,-101.994 L 0.18837,-101.994 L 0.562134,-101.947 L 0.927048,-101.853 L 1.27733,-101.714 L 1.60747,-101.533
 L 1.91226,-101.312 L 2.1869,-101.054 L 2.42705,-100.763 L 2.62891,-100.445 L 2.78932,-100.104 L 2.90575,-99.7461
 L 2.97633,-99.376 L 3,-99 L 2.97633,-98.624 L 2.90575,-98.2539 L 2.78932,-97.8956 L 2.62891,-97.5547
 L 2.42705,-97.2366 L 2.1869,-96.9464 L 1.91226,-96.6884 L 1.60747,-96.467 L 1.27733,-96.2855 L 0.927048,-96.1468
 L 0.562134,-96.0531 L 0.18837,-96.0059 z
M -0.18837,-81.0059 L -0.562134,-81.0531 L -0.927048,-81.1468 L -1.27733,-81.2855 L -1.60747,-81.467 L -1.91226,-81.6885
 L -2.1869,-81.9464 L -2.42705,-82.2366 L -2.62891,-82.5547 L -2.78932,-82.8956 L -2.90575,-83.2539 L -2.97633,-83.624
 L -3,-84 L -2.97633,-84.376 L -2.90575,-84.7461 L -2.78932,-85.1044 L -2.62891,-85.4453 L -2.42705,-85.7634
 L -2.1869,-86.0536 L -1.91226,-86.3115 L -1.60747,-86.533 L -1.27733,-86.7145 L -0.927048,-86.8532 L -0.562134,-86.9469
 L -0.18837,-86.9941 L 0.18837,-86.9941 L 0.562134,-86.9469 L 0.927048,-86.8532 L 1.27733,-86.7145 L 1.60747,-86.533
 L 1.91226,-86.3115 L 2.1869,-86.0536 L 2.42705,-85.7634 L 2.62891,-85.4453 L 2.78932,-85.1044 L 2.90575,-84.7461
 L 2.97633,-84.376 L 3,-84 L 2.97633,-83.624 L 2.90575,-83.2539 L 2.78932,-82.8956 L 2.62891,-82.5547
 L 2.42705,-82.2366 L 2.1869,-81.9464 L 1.91226,-81.6885 L 1.60747,-81.467 L 1.27733,-81.2855 L 0.927048,-81.1468
 L 0.562134,-81.0531 L 0.18837,-81.0059 z
M -15.1884,-81.0059 L -15.5621,-81.0531 L -15.927,-81.1468 L -16.2773,-81.2855 L -16.6075,-81.467 L -16.9123,-81.6885
 L -17.1869,-81.9464 L -17.427,-82.2366 L -17.6289,-82.5547 L -17.7893,-82.8956 L -17.9057,-83.2539 L -17.9763,-83.624
 L -18,-84 L -17.9763,-84.376 L -17.9057,-84.7461 L -17.7893,-85.1044 L -17.6289,-85.4453 L -17.427,-85.7634
 L -17.1869,-86.0536 L -16.9123,-86.3115 L -16.6075,-86.533 L -16.2773,-86.7145 L -15.927,-86.8532 L -15.5621,-86.9469
 L -15.1884,-86.9941 L -14.8116,-86.9941 L -14.4379,-86.9469 L -14.0729,-86.8532 L -13.7227,-86.7145 L -13.3925,-86.533
 L -13.0877,-86.3115 L -12.8131,-86.0536 L -12.5729,-85.7634 L -12.3711,-85.4453 L -12.2107,-85.1044 L -12.0942,-84.7461
 L -12.0237,-84.376 L -12,-84 L -12.0237,-83.624 L -12.0942,-83.2539 L -12.2107,-82.8956 L -12.3711,-82.5547
 L -12.5729,-82.2366 L -12.8131,-81.9464 L -13.0877,-81.6885 L -13.3925,-81.467 L -13.7227,-81.2855 L -14.0729,-81.1468
 L -14.4379,-81.0531 L -14.8116,-81.0059 z
M 14.8116,-81.0059 L 14.4379,-81.0531 L 14.0729,-81.1468 L 13.7227,-81.2855 L 13.3925,-81.467 L 13.0877,-81.6885
 L 12.8131,-81.9464 L 12.5729,-82.2366 L 12.3711,-82.5547 L 12.2107,-82.8956 L 12.0942,-83.2539 L 12.0237,-83.624
 L 12,-84 L 12.0237,-84.376 L 12.0942,-84.7461 L 12.2107,-85.1044 L 12.3711,-85.4453 L 12.5729,-85.7634
 L 12.8131,-86.0536 L 13.0877,-86.3115 L 13.3925,-86.533 L 13.7227,-86.7145 L 14.0729,-86.8532 L 14.4379,-86.9469
 L 14.8116,-86.9941 L 15.1884,-86.9941 L 15.5621,-86.9469 L 15.927,-86.8532 L 16.2773,-86.7145 L 16.6075,-86.533
 L 16.9123,-86.3115 L 17.1869,-86.0536 L 17.427,-85.7634 L 17.6289,-85.4453 L 17.7893,-85.1044 L 17.9057,-84.7461
 L 17.9763,-84.376 L 18,-84 L 17.9763,-83.624 L 17.9057,-83.2539 L 17.7893,-82.8956 L 17.6289,-82.5547
 L 17.427,-82.2366 L 17.1869,-81.9464 L 16.9123,-81.6885 L 16.6075,-81.467 L 16.2773,-81.2855 L 15.927,-81.1468
 L 15.5621,-81.0531 L 15.1884,-81.0059 z
M -8.09418,-82.503 L -8.28107,-82.5266 L -8.46352,-82.5734 L -8.63866,-82.6428 L -8.80373,-82.7335 L -8.95613,-82.8442
 L -9.09344,-82.9732 L -9.21352,-83.1183 L -9.31445,-83.2774 L -9.39465,-83.4478 L -9.45287,-83.627 L -9.48816,-83.812
 L -9.5,-84 L -9.48816,-84.188 L -9.45287,-84.373 L -9.39465,-84.5522 L -9.31445,-84.7226 L -9.21352,-84.8817
 L -9.09344,-85.0268 L -8.95613,-85.1558 L -8.80373,-85.2665 L -8.63866,-85.3572 L -8.46352,-85.4266 L -8.28107,-85.4734
 L -8.09418,-85.497 L -7.40581,-85.497 L -7.21892,-85.4734 L -7.03647,-85.4266 L -6.86133,-85.3572 L -6.69626,-85.2665
 L -6.54385,-85.1558 L -6.40654,-85.0268 L -6.28647,-84.8817 L -6.18553,-84.7226 L -6.10533,-84.5522 L -6.04712,-84.373
 L -6.01183,-84.188 L -6,-84 L -6.01183,-83.812 L -6.04712,-83.627 L -6.10533,-83.4478 L -6.18553,-83.2774
 L -6.28647,-83.1183 L -6.40654,-82.9732 L -6.54385,-82.8442 L -6.69626,-82.7335 L -6.86133,-82.6428 L -7.03647,-82.5734
 L -7.21892,-82.5266 L -7.40581,-82.503 z
M 7.40581,-82.503 L 7.21892,-82.5266 L 7.03647,-82.5734 L 6.86133,-82.6428 L 6.69626,-82.7335 L 6.54385,-82.8442
 L 6.40654,-82.9732 L 6.28647,-83.1183 L 6.18553,-83.2774 L 6.10533,-83.4478 L 6.04712,-83.627 L 6.01183,-83.812
 L 6,-84 L 6.01183,-84.188 L 6.04712,-84.373 L 6.10533,-84.5522 L 6.18553,-84.7226 L 6.28647,-84.8817
 L 6.40654,-85.0268 L 6.54385,-85.1558 L 6.69626,-85.2665 L 6.86133,-85.3572 L 7.03647,-85.4266 L 7.21892,-85.4734
 L 7.40581,-85.497 L 8.09418,-85.497 L 8.28107,-85.4734 L 8.46352,-85.4266 L 8.63866,-85.3572 L 8.80373,-85.2665
 L 8.95613,-85.1558 L 9.09344,-85.0268 L 9.21352,-84.8817 L 9.31445,-84.7226 L 9.39465,-84.5522 L 9.45287,-84.373
 L 9.48816,-84.188 L 9.5,-84 L 9.48816,-83.812 L 9.45287,-83.627 L 9.39465,-83.4478 L 9.31445,-83.2774
 L 9.21352,-83.1183 L 9.09344,-82.9732 L 8.95613,-82.8442 L 8.80373,-82.7335 L 8.63866,-82.6428 L 8.46352,-82.5734
 L 8.28107,-82.5266 L 8.09418,-82.503 z
M -0.18837,-66.0059 L -0.562134,-66.0531 L -0.927048,-66.1468 L -1.27733,-66.2855 L -1.60747,-66.467 L -1.91226,-66.6885
 L -2.1869,-66.9464 L -2.42705,-67.2366 L -2.62891,-67.5547 L -2.78932,-67.8956 L -2.90575,-68.2539 L -2.97633,-68.624
 L -3,-69 L -2.97633,-69.376 L -2.90575,-69.7461 L -2.78932,-70.1044 L -2.62891,-70.4453 L -2.42705,-70.7634
 L -2.1869,-71.0536 L -1.91226,-71.3116 L -1.60747,-71.533 L -1.27733,-71.7145 L -0.927048,-71.8532 L -0.562134,-71.9469
 L -0.18837,-71.9941 L 0.18837,-71.9941 L 0.562134,-71.9469 L 0.927048,-71.8532 L 1.27733,-71.7145 L 1.60747,-71.533
 L 1.91226,-71.3116 L 2.1869,-71.0536 L 2.42705,-70.7634 L 2.62891,-70.4453 L 2.78932,-70.1044 L 2.90575,-69.7461
 L 2.97633,-69.376 L 3,-69 L 2.97633,-68.624 L 2.90575,-68.2539 L 2.78932,-67.8956 L 2.62891,-67.5547
 L 2.42705,-67.2366 L 2.1869,-66.9464 L 1.91226,-66.6885 L 1.60747,-66.467 L 1.27733,-66.2855 L 0.927048,-66.1468
 L 0.562134,-66.0531 L 0.18837,-66.0059 z
M -30.1884,-96.0059 L -30.5621,-96.0531 L -30.927,-96.1468 L -31.2773,-96.2855 L -31.6075,-96.467 L -31.9123,-96.6884
 L -32.1869,-96.9464 L -32.427,-97.2366 L -32.6289,-97.5547 L -32.7893,-97.8956 L -32.9057,-98.2539 L -32.9763,-98.624
 L -33,-99 L -32.9763,-99.376 L -32.9057,-99.7461 L -32.7893,-100.104 L -32.6289,-100.445 L -32.427,-100.763
 L -32.1869,-101.054 L -31.9123,-101.312 L -31.6075,-101.533 L -31.2773,-101.714 L -30.927,-101.853 L -30.5621,-101.947
 L -30.1884,-101.994 L -29.8116,-101.994 L -29.4379,-101.947 L -29.0729,-101.853 L -28.7227,-101.714 L -28.3925,-101.533
 L -28.0877,-101.312 L -27.8131,-101.054 L -27.5729,-100.763 L -27.3711,-100.445 L -27.2107,-100.104 L -27.0942,-99.7461
 L -27.0237,-99.376 L -27,-99 L -27.0237,-98.624 L -27.0942,-98.2539 L -27.2107,-97.8956 L -27.3711,-97.5547
 L -27.5729,-97.2366 L -27.8131,-96.9464 L -28.0877,-96.6884 L -28.3925,-96.467 L -28.7227,-96.2855 L -29.0729,-96.1468
 L -29.4379,-96.0531 L -29.8116,-96.0059 z
M 29.8116,-96.0059 L 29.4379,-96.0531 L 29.0729,-96.1468 L 28.7227,-96.2855 L 28.3925,-96.467 L 28.0877,-96.6884
 L 27.8131,-96.9464 L 27.5729,-97.2366 L 27.3711,-97.5547 L 27.2107,-97.8956 L 27.0942,-98.2539 L 27.0237,-98.624
 L 27,-99 L 27.0237,-99.376 L 27.0942,-99.7461 L 27.2107,-100.104 L 27.3711,-100.445 L 27.5729,-100.763
 L 27.8131,-101.054 L 28.0877,-101.312 L 28.3925,-101.533 L 28.7227,-101.714 L 29.0729,-101.853 L 29.4379,-101.947
 L 29.8116,-101.994 L 30.1884,-101.994 L 30.5621,-101.947 L 30.927,-101.853 L 31.2773,-101.714 L 31.6075,-101.533
 L 31.9123,-101.312 L 32.1869,-101.054 L 32.427,-100.763 L 32.6289,-100.445 L 32.7893,-100.104 L 32.9057,-99.7461
 L 32.9763,-99.376 L 33,-99 L 32.9763,-98.624 L 32.9057,-98.2539 L 32.7893,-97.8956 L 32.6289,-97.5547
 L 32.427,-97.2366 L 32.1869,-96.9464 L 31.9123,-96.6884 L 31.6075,-96.467 L 31.2773,-96.2855 L 30.927,-96.1468
 L 30.5621,-96.0531 L 30.1884,-96.0059 z
M -31.6733,-81.1018 L -33.3466,-84 L -31.6733,-86.8982 L -28.3267,-86.8982 L -26.6534,-84 L -28.3267,-81.1018
 z
M 28.3267,-81.1018 L 26.6534,-84 L 28.3267,-86.8982 L 31.6733,-86.8982 L 33.3466,-84 L 31.6733,-81.1018
 z
M 29.8116,-66.0059 L 29.4379,-66.0531 L 29.0729,-66.1468 L 28.7227,-66.2855 L 28.3925,-66.467 L 28.0877,-66.6885
 L 27.8131,-66.9464 L 27.5729,-67.2366 L 27.3711,-67.5547 L 27.2107,-67.8956 L 27.0942,-68.2539 L 27.0237,-68.624
 L 27,-69 L 27.0237,-69.376 L 27.0942,-69.7461 L 27.2107,-70.1044 L 27.3711,-70.4453 L 27.5729,-70.7634
 L 27.8131,-71.0536 L 28.0877,-71.3116 L 28.3925,-71.533 L 28.7227,-71.7145 L 29.0729,-71.8532 L 29.4379,-71.9469
 L 29.8116,-71.9941 L 30.1884,-71.9941 L 30.5621,-71.9469 L 30.927,-71.8532 L 31.2773,-71.7145 L 31.6075,-71.533
 L 31.9123,-71.3116 L 32.1869,-71.0536 L 32.427,-70.7634 L 32.6289,-70.4453 L 32.7893,-70.1044 L 32.9057,-69.7461
 L 32.9763,-69.376 L 33,-69 L 32.9763,-68.624 L 32.9057,-68.2539 L 32.7893,-67.8956 L 32.6289,-67.5547
 L 32.427,-67.2366 L 32.1869,-66.9464 L 31.9123,-66.6885 L 31.6075,-66.467 L 31.2773,-66.2855 L 30.927,-66.1468
 L 30.5621,-66.0531 L 30.1884,-66.0059 z
M -30.1884,-66.0059 L -30.5621,-66.0531 L -30.927,-66.1468 L -31.2773,-66.2855 L -31.6075,-66.467 L -31.9123,-66.6885
 L -32.1869,-66.9464 L -32.427,-67.2366 L -32.6289,-67.5547 L -32.7893,-67.8956 L -32.9057,-68.2539 L -32.9763,-68.624
 L -33,-69 L -32.9763,-69.376 L -32.9057,-69.7461 L -32.7893,-70.1044 L -32.6289,-70.4453 L -32.427,-70.7634
 L -32.1869,-71.0536 L -31.9123,-71.3116 L -31.6075,-71.533 L -31.2773,-71.7145 L -30.927,-71.8532 L -30.5621,-71.9469
 L -30.1884,-71.9941 L -29.8116,-71.9941 L -29.4379,-71.9469 L -29.0729,-71.8532 L -28.7227,-71.7145 L -28.3925,-71.533
 L -28.0877,-71.3116 L -27.8131,-71.0536 L -27.5729,-70.7634 L -27.3711,-70.4453 L -27.2107,-70.1044 L -27.0942,-69.7461
 L -27.0237,-69.376 L -27,-69 L -27.0237,-68.624 L -27.0942,-68.2539 L -27.2107,-67.8956 L -27.3711,-67.5547
 L -27.5729,-67.2366 L -27.8131,-66.9464 L -28.0877,-66.6885 L -28.3925,-66.467 L -28.7227,-66.2855 L -29.0729,-66.1468
 L -29.4379,-66.0531 L -29.8116,-66.0059 z
M 14.8116,-51.0059 L 14.4379,-51.0531 L 14.0729,-51.1468 L 13.7227,-51.2855 L 13.3925,-51.467 L 13.0877,-51.6885
 L 12.8131,-51.9464 L 12.5729,-52.2366 L 12.3711,-52.5547 L 12.2107,-52.8956 L 12.0942,-53.2539 L 12.0237,-53.624
 L 12,-54 L 12.0237,-54.376 L 12.0942,-54.7461 L 12.2107,-55.1044 L 12.3711,-55.4453 L 12.5729,-55.7634
 L 12.8131,-56.0536 L 13.0877,-56.3116 L 13.3925,-56.533 L 13.7227,-56.7145 L 14.0729,-56.8532 L 14.4379,-56.9469
 L 14.8116,-56.9941 L 15.1884,-56.9941 L 15.5621,-56.9469 L 15.927,-56.8532 L 16.2773,-56.7145 L 16.6075,-56.533
 L 16.9123,-56.3116 L 17.1869,-56.0536 L 17.427,-55.7634 L 17.6289,-55.4453 L 17.7893,-55.1044 L 17.9057,-54.7461
 L 17.9763,-54.376 L 18,-54 L 17.9763,-53.624 L 17.9057,-53.2539 L 17.7893,-52.8956 L 17.6289,-52.5547
 L 17.427,-52.2366 L 17.1869,-51.9464 L 16.9123,-51.6885 L 16.6075,-51.467 L 16.2773,-51.2855 L 15.927,-51.1468
 L 15.5621,-51.0531 L 15.1884,-51.0059 z
M -30.1884,-51.0059 L -30.5621,-51.0531 L -30.927,-51.1468 L -31.2773,-51.2855 L -31.6075,-51.467 L -31.9123,-51.6885
 L -32.1869,-51.9464 L -32.427,-52.2366 L -32.6289,-52.5547 L -32.7893,-52.8956 L -32.9057,-53.2539 L -32.9763,-53.624
 L -33,-54 L -32.9763,-54.376 L -32.9057,-54.7461 L -32.7893,-55.1044 L -32.6289,-55.4453 L -32.427,-55.7634
 L -32.1869,-56.0536 L -31.9123,-56.3116 L -31.6075,-56.533 L -31.2773,-56.7145 L -30.927,-56.8532 L -30.5621,-56.9469
 L -30.1884,-56.9941 L -29.8116,-56.9941 L -29.4379,-56.9469 L -29.0729,-56.8532 L -28.7227,-56.7145 L -28.3925,-56.533
 L -28.0877,-56.3116 L -27.8131,-56.0536 L -27.5729,-55.7634 L -27.3711,-55.4453 L -27.2107,-55.1044 L -27.0942,-54.7461
 L -27.0237,-54.376 L -27,-54 L -27.0237,-53.624 L -27.0942,-53.2539 L -27.2107,-52.8956 L -27.3711,-52.5547
 L -27.5729,-52.2366 L -27.8131,-51.9464 L -28.0877,-51.6885 L -28.3925,-51.467 L -28.7227,-51.2855 L -29.0729,-51.1468
 L -29.4379,-51.0531 L -29.8116,-51.0059 z
M 29.8116,-51.0059 L 29.4379,-51.0531 L 29.0729,-51.1468 L 28.7227,-51.2855 L 28.3925,-51.467 L 28.0877,-51.6885
 L 27.8131,-51.9464 L 27.5729,-52.2366 L 27.3711,-52.5547 L 27.2107,-52.8956 L 27.0942,-53.2539 L 27.0237,-53.624
 L 27,-54 L 27.0237,-54.376 L 27.0942,-54.7461 L 27.2107,-55.1044 L 27.3711,-55.4453 L 27.5729,-55.7634
 L 27.8131,-56.0536 L 28.0877,-56.3116 L 28.3925,-56.533 L 28.7227,-56.7145 L 29.0729,-56.8532 L 29.4379,-56.9469
 L 29.8116,-56.9941 L 30.1884,-56.9941 L 30.5621,-56.9469 L 30.927,-56.8532 L 31.2773,-56.7145 L 31.6075,-56.533
 L 31.9123,-56.3116 L 32.1869,-56.0536 L 32.427,-55.7634 L 32.6289,-55.4453 L 32.7893,-55.1044 L 32.9057,-54.7461
 L 32.9763,-54.376 L 33,-54 L 32.9763,-53.624 L 32.9057,-53.2539 L 32.7893,-52.8956 L 32.6289,-52.5547
 L 32.427,-52.2366 L 32.1869,-51.9464 L 31.9123,-51.6885 L 31.6075,-51.467 L 31.2773,-51.2855 L 30.927,-51.1468
 L 30.5621,-51.0531 L 30.1884,-51.0059 z
M -15.1884,-51.0059 L -15.5621,-51.0531 L -15.927,-51.1468 L -16.2773,-51.2855 L -16.6075,-51.467 L -16.9123,-51.6885
 L -17.1869,-51.9464 L -17.427,-52.2366 L -17.6289,-52.5547 L -17.7893,-52.8956 L -17.9057,-53.2539 L -17.9763,-53.624
 L -18,-54 L -17.9763,-54.376 L -17.9057,-54.7461 L -17.7893,-55.1044 L -17.6289,-55.4453 L -17.427,-55.7634
 L -17.1869,-56.0536 L -16.9123,-56.3116 L -16.6075,-56.533 L -16.2773,-56.7145 L -15.927,-56.8532 L -15.5621,-56.9469
 L -15.1884,-56.9941 L -14.8116,-56.9941 L -14.4379,-56.9469 L -14.0729,-56.8532 L -13.7227,-56.7145 L -13.3925,-56.533
 L -13.0877,-56.3116 L -12.8131,-56.0536 L -12.5729,-55.7634 L -12.3711,-55.4453 L -12.2107,-55.1044 L -12.0942,-54.7461
 L -12.0237,-54.376 L -12,-54 L -12.0237,-53.624 L -12.0942,-53.2539 L -12.2107,-52.8956 L -12.3711,-52.5547
 L -12.5729,-52.2366 L -12.8131,-51.9464 L -13.0877,-51.6885 L -13.3925,-51.467 L -13.7227,-51.2855 L -14.0729,-51.1468
 L -14.4379,-51.0531 L -14.8116,-51.0059 z
M -0.250153,-52.521 L -0.433533,-52.564 L -0.610092,-52.6297 L -0.777039,-52.717 L -0.931717,-52.8245 L -1.0717,-52.9505
 L -1.19479,-53.0931 L -1.29903,-53.25 L -1.38278,-53.4187 L -1.44473,-53.5966 L -1.4839,-53.7809 L -1.49966,-53.9686
 L -1.49178,-54.1568 L -1.46036,-54.3425 L -1.40591,-54.5229 L -1.3293,-54.6949 L -1.23172,-54.8561 L -1.11472,-55.0037
 L -0.980118,-55.1355 L -0.830078,-55.2494 L -0.666946,-55.3436 L -0.493286,-55.4166 L -0.311859,-55.4672 L -0.125504,-55.4948
 L 0.0628052,-55.4987 L 0.250153,-55.479 L 0.433533,-55.436 L 0.610092,-55.3703 L 0.777039,-55.2831 L 0.931717,-55.1756
 L 1.0717,-55.0495 L 1.19479,-54.9069 L 1.29903,-54.75 L 1.38278,-54.5813 L 1.44473,-54.4034 L 1.4839,-54.2191
 L 1.49966,-54.0314 L 1.49178,-53.8432 L 1.46036,-53.6575 L 1.40591,-53.4771 L 1.3293,-53.3051 L 1.23172,-53.1439
 L 1.11472,-52.9963 L 0.980118,-52.8645 L 0.830078,-52.7506 L 0.666946,-52.6564 L 0.493286,-52.5834 L 0.311859,-52.5328
 L 0.125504,-52.5053 L -0.0628052,-52.5013 z
M 32.9369,36.9114 L 33.5451,36.7553 L 34.1289,36.5241 L 34.6791,36.2216 L 35.1871,35.8526 L 35.6448,35.4227
 L 36.0451,34.9389 L 36.3815,34.4088 L 36.6489,33.8406 L 36.8429,33.2434 L 36.9606,32.6267 L 37,32
 L 37,-32 L 36.9606,-32.6267 L 36.8429,-33.2434 L 36.6489,-33.8406 L 36.3815,-34.4088 L 36.0451,-34.9389
 L 35.6448,-35.4227 L 35.1871,-35.8526 L 34.6791,-36.2216 L 34.1289,-36.5241 L 33.5451,-36.7553 L 32.9369,-36.9114
 L 32.3139,-36.9901 L -32.3139,-36.9901 L -32.9369,-36.9114 L -33.5451,-36.7553 L -34.1289,-36.5241 L -34.6791,-36.2216
 L -35.1871,-35.8526 L -35.6448,-35.4227 L -36.0451,-34.9389 L -36.3815,-34.4088 L -36.6489,-33.8406 L -36.8429,-33.2434
 L -36.9606,-32.6267 L -37,-32 L -37,32 L -36.9606,32.6267 L -36.8429,33.2434 L -36.6489,33.8406
 L -36.3815,34.4088 L -36.0451,34.9389 L -35.6448,35.4227 L -35.1871,35.8526 L -34.6791,36.2216 L -34.1289,36.5241
 L -33.5451,36.7553 L -32.9369,36.9114 L -32.3139,36.9901 L 32.3139,36.9901 z
M -30.1884,-27.0059 L -30.5621,-27.0531 L -30.927,-27.1468 L -31.2773,-27.2855 L -31.6075,-27.467 L -31.9123,-27.6884
 L -32.1869,-27.9464 L -32.427,-28.2366 L -32.6289,-28.5547 L -32.7893,-28.8956 L -32.9057,-29.2539 L -32.9763,-29.624
 L -33,-30 L -32.9763,-30.376 L -32.9057,-30.7461 L -32.7893,-31.1044 L -32.6289,-31.4453 L -32.427,-31.7634
 L -32.1869,-32.0536 L -31.9123,-32.3115 L -31.6075,-32.533 L -31.2773,-32.7145 L -30.927,-32.8532 L -30.5621,-32.9469
 L -30.1884,-32.9941 L -29.8116,-32.9941 L -29.4379,-32.9469 L -29.0729,-32.8532 L -28.7227,-32.7145 L -28.3925,-32.533
 L -28.0877,-32.3115 L -27.8131,-32.0536 L -27.5729,-31.7634 L -27.3711,-31.4453 L -27.2107,-31.1044 L -27.0942,-30.7461
 L -27.0237,-30.376 L -27,-30 L -27.0237,-29.624 L -27.0942,-29.2539 L -27.2107,-28.8956 L -27.3711,-28.5547
 L -27.5729,-28.2366 L -27.8131,-27.9464 L -28.0877,-27.6884 L -28.3925,-27.467 L -28.7227,-27.2855 L -29.0729,-27.1468
 L -29.4379,-27.0531 L -29.8116,-27.0059 z
M 29.8116,-27.0059 L 29.4379,-27.0531 L 29.0729,-27.1468 L 28.7227,-27.2855 L 28.3925,-27.467 L 28.0877,-27.6884
 L 27.8131,-27.9464 L 27.5729,-28.2366 L 27.3711,-28.5547 L 27.2107,-28.8956 L 27.0942,-29.2539 L 27.0237,-29.624
 L 27,-30 L 27.0237,-30.376 L 27.0942,-30.7461 L 27.2107,-31.1044 L 27.3711,-31.4453 L 27.5729,-31.7634
 L 27.8131,-32.0536 L 28.0877,-32.3115 L 28.3925,-32.533 L 28.7227,-32.7145 L 29.0729,-32.8532 L 29.4379,-32.9469
 L 29.8116,-32.9941 L 30.1884,-32.9941 L 30.5621,-32.9469 L 30.927,-32.8532 L 31.2773,-32.7145 L 31.6075,-32.533
 L 31.9123,-32.3115 L 32.1869,-32.0536 L 32.427,-31.7634 L 32.6289,-31.4453 L 32.7893,-31.1044 L 32.9057,-30.7461
 L 32.9763,-30.376 L 33,-30 L 32.9763,-29.624 L 32.9057,-29.2539 L 32.7893,-28.8956 L 32.6289,-28.5547
 L 32.427,-28.2366 L 32.1869,-27.9464 L 31.9123,-27.6884 L 31.6075,-27.467 L 31.2773,-27.2855 L 30.927,-27.1468
 L 30.5621,-27.0531 L 30.1884,-27.0059 z
M 14.8116,-27.0059 L 14.4379,-27.0531 L 14.0729,-27.1468 L 13.7227,-27.2855 L 13.3925,-27.467 L 13.0877,-27.6884
 L 12.8131,-27.9464 L 12.5729,-28.2366 L 12.3711,-28.5547 L 12.2107,-28.8956 L 12.0942,-29.2539 L 12.0237,-29.624
 L 12,-30 L 12.0237,-30.376 L 12.0942,-30.7461 L 12.2107,-31.1044 L 12.3711,-31.4453 L 12.5729,-31.7634
 L 12.8131,-32.0536 L 13.0877,-32.3115 L 13.3925,-32.533 L 13.7227,-32.7145 L 14.0729,-32.8532 L 14.4379,-32.9469
 L 14.8116,-32.9941 L 15.1884,-32.9941 L 15.5621,-32.9469 L 15.927,-32.8532 L 16.2773,-32.7145 L 16.6075,-32.533
 L 16.9123,-32.3115 L 17.1869,-32.0536 L 17.427,-31.7634 L 17.6289,-31.4453 L 17.7893,-31.1044 L 17.9057,-30.7461
 L 17.9763,-30.376 L 18,-30 L 17.9763,-29.624 L 17.9057,-29.2539 L 17.7893,-28.8956 L 17.6289,-28.5547
 L 17.427,-28.2366 L 17.1869,-27.9464 L 16.9123,-27.6884 L 16.6075,-27.467 L 16.2773,-27.2855 L 15.927,-27.1468
 L 15.5621,-27.0531 L 15.1884,-27.0059 z
M -15.1884,-27.0059 L -15.5621,-27.0531 L -15.927,-27.1468 L -16.2773,-27.2855 L -16.6075,-27.467 L -16.9123,-27.6884
 L -17.1869,-27.9464 L -17.427,-28.2366 L -17.6289,-28.5547 L -17.7893,-28.8956 L -17.9057,-29.2539 L -17.9763,-29.624
 L -18,-30 L -17.9763,-30.376 L -17.9057,-30.7461 L -17.7893,-31.1044 L -17.6289,-31.4453 L -17.427,-31.7634
 L -17.1869,-32.0536 L -16.9123,-32.3115 L -16.6075,-32.533 L -16.2773,-32.7145 L -15.927,-32.8532 L -15.5621,-32.9469
 L -15.1884,-32.9941 L -14.8116,-32.9941 L -14.4379,-32.9469 L -14.0729,-32.8532 L -13.7227,-32.7145 L -13.3925,-32.533
 L -13.0877,-32.3115 L -12.8131,-32.0536 L -12.5729,-31.7634 L -12.3711,-31.4453 L -12.2107,-31.1044 L -12.0942,-30.7461
 L -12.0237,-30.376 L -12,-30 L -12.0237,-29.624 L -12.0942,-29.2539 L -12.2107,-28.8956 L -12.3711,-28.5547
 L -12.5729,-28.2366 L -12.8131,-27.9464 L -13.0877,-27.6884 L -13.3925,-27.467 L -13.7227,-27.2855 L -14.0729,-27.1468
 L -14.4379,-27.0531 L -14.8116,-27.0059 z
M -0.150696,-27.6047 L -0.449707,-27.6425 L -0.741638,-27.7175 L -1.02187,-27.8284 L -1.28598,-27.9736 L -1.52982,-28.1508
 L -1.74951,-28.3571 L -1.94164,-28.5893 L -2.10313,-28.8438 L -2.23146,-29.1165 L -2.32458,-29.4031 L -2.38107,-29.6992
 L -2.39999,-30 L -2.38107,-30.3008 L -2.32458,-30.5968 L -2.23146,-30.8835 L -2.10313,-31.1562 L -1.94164,-31.4107
 L -1.74951,-31.6429 L -1.52982,-31.8492 L -1.28598,-32.0264 L -1.02187,-32.1716 L -0.741638,-32.2825 L -0.449707,-32.3575
 L -0.150696,-32.3953 L 0.150696,-32.3953 L 0.449707,-32.3575 L 0.741638,-32.2825 L 1.02187,-32.1716 L 1.28598,-32.0264
 L 1.52982,-31.8492 L 1.74951,-31.6429 L 1.94164,-31.4107 L 2.10313,-31.1562 L 2.23146,-30.8835 L 2.32458,-30.5968
 L 2.38107,-30.3008 L 2.39999,-30 L 2.38107,-29.6992 L 2.32458,-29.4031 L 2.23146,-29.1165 L 2.10313,-28.8438
 L 1.94164,-28.5893 L 1.74951,-28.3571 L 1.52982,-28.1508 L 1.28598,-27.9736 L 1.02187,-27.8284 L 0.741638,-27.7175
 L 0.449707,-27.6425 L 0.150696,-27.6047 z
M -1.47557,23.4536 L -4.40346,23.0837 L -7.26189,22.3498 L -10.0058,21.2634 L -12.5919,19.8417 L -14.9795,18.1071
 L -17.1308,16.0869 L -19.0119,13.8129 L -20.5932,11.3212 L -21.8497,8.65092 L -22.7617,5.84421 L -23.3147,2.94533
 L -23.5,-0 L -23.3147,-2.94533 L -22.7617,-5.84421 L -21.8497,-8.65092 L -20.5932,-11.3212 L -19.0119,-13.8129
 L -17.1308,-16.0869 L -14.9795,-18.1071 L -12.5919,-19.8417 L -10.0058,-21.2634 L -7.26189,-22.3498 L -4.40346,-23.0837
 L -1.47557,-23.4536 L 1.47557,-23.4536 L 4.40346,-23.0837 L 7.26189,-22.3498 L 10.0058,-21.2634 L 12.5919,-19.8417
 L 14.9795,-18.1071 L 17.1308,-16.0869 L 19.0119,-13.8129 L 20.5932,-11.3212 L 21.8497,-8.65092 L 22.7617,-5.84421
 L 23.3147,-2.94533 L 23.5,-0 L 23.3147,2.94533 L 22.7617,5.84421 L 21.8497,8.65092 L 20.5932,11.3212
 L 19.0119,13.8129 L 17.1308,16.0869 L 14.9795,18.1071 L 12.5919,19.8417 L 10.0058,21.2634 L 7.26189,22.3498
 L 4.40346,23.0837 L 1.47557,23.4536 z
M 4.21606,22.1015 L 6.95288,21.3988 L 9.58003,20.3586 L 12.0561,18.9974 L 14.342,17.3365 L 16.4018,15.4023
 L 18.2029,13.2252 L 19.7169,10.8394 L 20.92,8.28279 L 21.7931,5.59552 L 22.3226,2.81999 L 22.5,-0
 L 22.3226,-2.81999 L 21.7931,-5.59552 L 20.92,-8.28279 L 19.7169,-10.8394 L 18.2029,-13.2252 L 16.4018,-15.4023
 L 14.342,-17.3365 L 12.0561,-18.9974 L 9.58003,-20.3586 L 6.95288,-21.3988 L 4.21606,-22.1015 L 1.41278,-22.4556
 L -1.41278,-22.4556 L -4.21606,-22.1015 L -6.95288,-21.3988 L -9.58003,-20.3586 L -12.0561,-18.9974 L -14.342,-17.3365
 L -16.4018,-15.4023 L -18.2029,-13.2252 L -19.7169,-10.8394 L -20.92,-8.28279 L -21.7931,-5.59552 L -22.3226,-2.81999
 L -22.5,-0 L -22.3226,2.81999 L -21.7931,5.59552 L -20.92,8.28279 L -19.7169,10.8394 L -18.2029,13.2252
 L -16.4018,15.4023 L -14.342,17.3365 L -12.0561,18.9974 L -9.58003,20.3586 L -6.95288,21.3988 L -4.21606,22.1015
 L -1.41278,22.4556 L 1.41278,22.4556 z
M -0.18837,-12.0059 L -0.562134,-12.0531 L -0.927048,-12.1468 L -1.27733,-12.2855 L -1.60747,-12.467 L -1.91226,-12.6884
 L -2.1869,-12.9464 L -2.42705,-13.2366 L -2.62891,-13.5547 L -2.78932,-13.8956 L -2.90575,-14.2539 L -2.97633,-14.624
 L -3,-15 L -2.97633,-15.376 L -2.90575,-15.7461 L -2.78932,-16.1044 L -2.62891,-16.4453 L -2.42705,-16.7634
 L -2.1869,-17.0536 L -1.91226,-17.3115 L -1.60747,-17.533 L -1.27733,-17.7145 L -0.927048,-17.8532 L -0.562134,-17.9469
 L -0.18837,-17.9941 L 0.18837,-17.9941 L 0.562134,-17.9469 L 0.927048,-17.8532 L 1.27733,-17.7145 L 1.60747,-17.533
 L 1.91226,-17.3115 L 2.1869,-17.0536 L 2.42705,-16.7634 L 2.62891,-16.4453 L 2.78932,-16.1044 L 2.90575,-15.7461
 L 2.97633,-15.376 L 3,-15 L 2.97633,-14.624 L 2.90575,-14.2539 L 2.78932,-13.8956 L 2.62891,-13.5547
 L 2.42705,-13.2366 L 2.1869,-12.9464 L 1.91226,-12.6884 L 1.60747,-12.467 L 1.27733,-12.2855 L 0.927048,-12.1468
 L 0.562134,-12.0531 L 0.18837,-12.0059 z
M -15.1884,2.99408 L -15.5621,2.94685 L -15.927,2.85316 L -16.2773,2.71448 L -16.6075,2.53297 L -16.9123,2.31154
 L -17.1869,2.05363 L -17.427,1.76335 L -17.6289,1.44525 L -17.7893,1.10437 L -17.9057,0.746063 L -17.9763,0.375992
 L -18,-0 L -17.9763,-0.375992 L -17.9057,-0.746063 L -17.7893,-1.10437 L -17.6289,-1.44525 L -17.427,-1.76335
 L -17.1869,-2.05363 L -16.9123,-2.31154 L -16.6075,-2.53297 L -16.2773,-2.71448 L -15.927,-2.85316 L -15.5621,-2.94685
 L -15.1884,-2.99408 L -14.8116,-2.99408 L -14.4379,-2.94685 L -14.0729,-2.85316 L -13.7227,-2.71448 L -13.3925,-2.53297
 L -13.0877,-2.31154 L -12.8131,-2.05363 L -12.5729,-1.76335 L -12.3711,-1.44525 L -12.2107,-1.10437 L -12.0942,-0.746063
 L -12.0237,-0.375992 L -12,-0 L -12.0237,0.375992 L -12.0942,0.746063 L -12.2107,1.10437 L -12.3711,1.44525
 L -12.5729,1.76335 L -12.8131,2.05363 L -13.0877,2.31154 L -13.3925,2.53297 L -13.7227,2.71448 L -14.0729,2.85316
 L -14.4379,2.94685 L -14.8116,2.99408 z
M 14.8116,2.99408 L 14.4379,2.94685 L 14.0729,2.85316 L 13.7227,2.71448 L 13.3925,2.53297 L 13.0877,2.31154
 L 12.8131,2.05363 L 12.5729,1.76335 L 12.3711,1.44525 L 12.2107,1.10437 L 12.0942,0.746063 L 12.0237,0.375992
 L 12,-0 L 12.0237,-0.375992 L 12.0942,-0.746063 L 12.2107,-1.10437 L 12.3711,-1.44525 L 12.5729,-1.76335
 L 12.8131,-2.05363 L 13.0877,-2.31154 L 13.3925,-2.53297 L 13.7227,-2.71448 L 14.0729,-2.85316 L 14.4379,-2.94685
 L 14.8116,-2.99408 L 15.1884,-2.99408 L 15.5621,-2.94685 L 15.927,-2.85316 L 16.2773,-2.71448 L 16.6075,-2.53297
 L 16.9123,-2.31154 L 17.1869,-2.05363 L 17.427,-1.76335 L 17.6289,-1.44525 L 17.7893,-1.10437 L 17.9057,-0.746063
 L 17.9763,-0.375992 L 18,-0 L 17.9763,0.375992 L 17.9057,0.746063 L 17.7893,1.10437 L 17.6289,1.44525
 L 17.427,1.76335 L 17.1869,2.05363 L 16.9123,2.31154 L 16.6075,2.53297 L 16.2773,2.71448 L 15.927,2.85316
 L 15.5621,2.94685 L 15.1884,2.99408 z
M -0.18837,2.99408 L -0.562134,2.94685 L -0.927048,2.85316 L -1.27733,2.71448 L -1.60747,2.53297 L -1.91226,2.31154
 L -2.1869,2.05363 L -2.42705,1.76335 L -2.62891,1.44525 L -2.78932,1.10437 L -2.90575,0.746063 L -2.97633,0.375992
 L -3,-0 L -2.97633,-0.375992 L -2.90575,-0.746063 L -2.78932,-1.10437 L -2.62891,-1.44525 L -2.42705,-1.76335
 L -2.1869,-2.05363 L -1.91226,-2.31154 L -1.60747,-2.53297 L -1.27733,-2.71448 L -0.927048,-2.85316 L -0.562134,-2.94685
 L -0.18837,-2.99408 L 0.18837,-2.99408 L 0.562134,-2.94685 L 0.927048,-2.85316 L 1.27733,-2.71448 L 1.60747,-2.53297
 L 1.91226,-2.31154 L 2.1869,-2.05363 L 2.42705,-1.76335 L 2.62891,-1.44525 L 2.78932,-1.10437 L 2.90575,-0.746063
 L 2.97633,-0.375992 L 3,-0 L 2.97633,0.375992 L 2.90575,0.746063 L 2.78932,1.10437 L 2.62891,1.44525
 L 2.42705,1.76335 L 2.1869,2.05363 L 1.91226,2.31154 L 1.60747,2.53297 L 1.27733,2.71448 L 0.927048,2.85316
 L 0.562134,2.94685 L 0.18837,2.99408 z
M -8.09418,1.49704 L -8.28107,1.47342 L -8.46352,1.42657 L -8.63866,1.35724 L -8.80373,1.26648 L -8.95613,1.15576
 L -9.09344,1.02681 L -9.21352,0.881668 L -9.31445,0.722626 L -9.39465,0.552185 L -9.45287,0.373032 L -9.48816,0.187988
 L -9.5,-0 L -9.48816,-0.187988 L -9.45287,-0.373032 L -9.39465,-0.552185 L -9.31445,-0.722626 L -9.21352,-0.881668
 L -9.09344,-1.02681 L -8.95613,-1.15576 L -8.80373,-1.26648 L -8.63866,-1.35724 L -8.46352,-1.42657 L -8.28107,-1.47342
 L -8.09418,-1.49704 L -7.40581,-1.49704 L -7.21892,-1.47342 L -7.03647,-1.42657 L -6.86133,-1.35724 L -6.69626,-1.26648
 L -6.54385,-1.15576 L -6.40654,-1.02681 L -6.28647,-0.881668 L -6.18553,-0.722626 L -6.10533,-0.552185 L -6.04712,-0.373032
 L -6.01183,-0.187988 L -6,-0 L -6.01183,0.187988 L -6.04712,0.373032 L -6.10533,0.552185 L -6.18553,0.722626
 L -6.28647,0.881668 L -6.40654,1.02681 L -6.54385,1.15576 L -6.69626,1.26648 L -6.86133,1.35724 L -7.03647,1.42657
 L -7.21892,1.47342 L -7.40581,1.49704 z
M 7.40581,1.49704 L 7.21892,1.47342 L 7.03647,1.42657 L 6.86133,1.35724 L 6.69626,1.26648 L 6.54385,1.15576
 L 6.40654,1.02681 L 6.28647,0.881668 L 6.18553,0.722626 L 6.10533,0.552185 L 6.04712,0.373032 L 6.01183,0.187988
 L 6,-0 L 6.01183,-0.187988 L 6.04712,-0.373032 L 6.10533,-0.552185 L 6.18553,-0.722626 L 6.28647,-0.881668
 L 6.40654,-1.02681 L 6.54385,-1.15576 L 6.69626,-1.26648 L 6.86133,-1.35724 L 7.03647,-1.42657 L 7.21892,-1.47342
 L 7.40581,-1.49704 L 8.09418,-1.49704 L 8.28107,-1.47342 L 8.46352,-1.42657 L 8.63866,-1.35724 L 8.80373,-1.26648
 L 8.95613,-1.15576 L 9.09344,-1.02681 L 9.21352,-0.881668 L 9.31445,-0.722626 L 9.39465,-0.552185 L 9.45287,-0.373032
 L 9.48816,-0.187988 L 9.5,-0 L 9.48816,0.187988 L 9.45287,0.373032 L 9.39465,0.552185 L 9.31445,0.722626
 L 9.21352,0.881668 L 9.09344,1.02681 L 8.95613,1.15576 L 8.80373,1.26648 L 8.63866,1.35724 L 8.46352,1.42657
 L 8.28107,1.47342 L 8.09418,1.49704 z
M -0.18837,17.9941 L -0.562134,17.9469 L -0.927048,17.8532 L -1.27733,17.7145 L -1.60747,17.533 L -1.91226,17.3115
 L -2.1869,17.0536 L -2.42705,16.7634 L -2.62891,16.4453 L -2.78932,16.1044 L -2.90575,15.7461 L -2.97633,15.376
 L -3,15 L -2.97633,14.624 L -2.90575,14.2539 L -2.78932,13.8956 L -2.62891,13.5547 L -2.42705,13.2366
 L -2.1869,12.9464 L -1.91226,12.6884 L -1.60747,12.467 L -1.27733,12.2855 L -0.927048,12.1468 L -0.562134,12.0531
 L -0.18837,12.0059 L 0.18837,12.0059 L 0.562134,12.0531 L 0.927048,12.1468 L 1.27733,12.2855 L 1.60747,12.467
 L 1.91226,12.6884 L 2.1869,12.9464 L 2.42705,13.2366 L 2.62891,13.5547 L 2.78932,13.8956 L 2.90575,14.2539
 L 2.97633,14.624 L 3,15 L 2.97633,15.376 L 2.90575,15.7461 L 2.78932,16.1044 L 2.62891,16.4453
 L 2.42705,16.7634 L 2.1869,17.0536 L 1.91226,17.3115 L 1.60747,17.533 L 1.27733,17.7145 L 0.927048,17.8532
 L 0.562134,17.9469 L 0.18837,17.9941 z
M -30.1884,-12.0059 L -30.5621,-12.0531 L -30.927,-12.1468 L -31.2773,-12.2855 L -31.6075,-12.467 L -31.9123,-12.6884
 L -32.1869,-12.9464 L -32.427,-13.2366 L -32.6289,-13.5547 L -32.7893,-13.8956 L -32.9057,-14.2539 L -32.9763,-14.624
 L -33,-15 L -32.9763,-15.376 L -32.9057,-15.7461 L -32.7893,-16.1044 L -32.6289,-16.4453 L -32.427,-16.7634
 L -32.1869,-17.0536 L -31.9123,-17.3115 L -31.6075,-17.533 L -31.2773,-17.7145 L -30.927,-17.8532 L -30.5621,-17.9469
 L -30.1884,-17.9941 L -29.8116,-17.9941 L -29.4379,-17.9469 L -29.0729,-17.8532 L -28.7227,-17.7145 L -28.3925,-17.533
 L -28.0877,-17.3115 L -27.8131,-17.0536 L -27.5729,-16.7634 L -27.3711,-16.4453 L -27.2107,-16.1044 L -27.0942,-15.7461
 L -27.0237,-15.376 L -27,-15 L -27.0237,-14.624 L -27.0942,-14.2539 L -27.2107,-13.8956 L -27.3711,-13.5547
 L -27.5729,-13.2366 L -27.8131,-12.9464 L -28.0877,-12.6884 L -28.3925,-12.467 L -28.7227,-12.2855 L -29.0729,-12.1468
 L -29.4379,-12.0531 L -29.8116,-12.0059 z
M 29.8116,-12.0059 L 29.4379,-12.0531 L 29.0729,-12.1468 L 28.7227,-12.2855 L 28.3925,-12.467 L 28.0877,-12.6884
 L 27.8131,-12.9464 L 27.5729,-13.2366 L 27.3711,-13.5547 L 27.2107,-13.8956 L 27.0942,-14.2539 L 27.0237,-14.624
 L 27,-15 L 27.0237,-15.376 L 27.0942,-15.7461 L 27.2107,-16.1044 L 27.3711,-16.4453 L 27.5729,-16.7634
 L 27.8131,-17.0536 L 28.0877,-17.3115 L 28.3925,-17.533 L 28.7227,-17.7145 L 29.0729,-17.8532 L 29.4379,-17.9469
 L 29.8116,-17.9941 L 30.1884,-17.9941 L 30.5621,-17.9469 L 30.927,-17.8532 L 31.2773,-17.7145 L 31.6075,-17.533
 L 31.9123,-17.3115 L 32.1869,-17.0536 L 32.427,-16.7634 L 32.6289,-16.4453 L 32.7893,-16.1044 L 32.9057,-15.7461
 L 32.9763,-15.376 L 33,-15 L 32.9763,-14.624 L 32.9057,-14.2539 L 32.7893,-13.8956 L 32.6289,-13.5547
 L 32.427,-13.2366 L 32.1869,-12.9464 L 31.9123,-12.6884 L 31.6075,-12.467 L 31.2773,-12.2855 L 30.927,-12.1468
 L 30.5621,-12.0531 L 30.1884,-12.0059 z
M 29.5997,2.36638 L 29.3063,2.29756 L 29.0238,2.1925 L 28.7567,2.05287 L 28.5092,1.88086 L 28.2853,1.67918
 L 28.0883,1.45103 L 27.9215,1.2 L 27.7875,0.930023 L 27.6884,0.645401 L 27.6257,0.350586 L 27.6005,0.0502472
 L 27.6131,-0.250854 L 27.6634,-0.548035 L 27.7505,-0.836563 L 27.8731,-1.11191 L 28.0292,-1.36971 L 28.2164,-1.60591
 L 28.4318,-1.81679 L 28.6719,-1.99901 L 28.9329,-2.1497 L 29.2107,-2.26649 L 29.501,-2.34755 L 29.7992,-2.39157
 L 30.1005,-2.39789 L 30.4002,-2.36638 L 30.6937,-2.29756 L 30.9762,-2.1925 L 31.2433,-2.05287 L 31.4908,-1.88086
 L 31.7147,-1.67918 L 31.9117,-1.45103 L 32.0785,-1.2 L 32.2125,-0.930023 L 32.3116,-0.645401 L 32.3743,-0.350586
 L 32.3995,-0.0502472 L 32.3868,0.250854 L 32.3366,0.548035 L 32.2495,0.836563 L 32.1269,1.11191 L 31.9707,1.36971
 L 31.7835,1.60591 L 31.5682,1.81679 L 31.3281,1.99901 L 31.0671,2.1497 L 30.7893,2.26649 L 30.499,2.34755
 L 30.2008,2.39157 L 29.8995,2.39789 z
M -30.1507,2.39526 L -30.4497,2.35748 L -30.7416,2.28253 L -31.0219,2.17157 L -31.286,2.02638 L -31.5298,1.84923
 L -31.7495,1.6429 L -31.9416,1.41068 L -32.1031,1.1562 L -32.2315,0.883484 L -32.3246,0.596848 L -32.3811,0.300797
 L -32.4,-0 L -32.3811,-0.300797 L -32.3246,-0.596848 L -32.2315,-0.883484 L -32.1031,-1.1562 L -31.9416,-1.41068
 L -31.7495,-1.6429 L -31.5298,-1.84923 L -31.286,-2.02638 L -31.0219,-2.17157 L -30.7416,-2.28253 L -30.4497,-2.35748
 L -30.1507,-2.39526 L -29.8493,-2.39526 L -29.5503,-2.35748 L -29.2583,-2.28253 L -28.9781,-2.17157 L -28.714,-2.02638
 L -28.4702,-1.84923 L -28.2505,-1.6429 L -28.0583,-1.41068 L -27.8969,-1.1562 L -27.7685,-0.883484 L -27.6754,-0.596848
 L -27.6189,-0.300797 L -27.6,-0 L -27.6189,0.300797 L -27.6754,0.596848 L -27.7685,0.883484 L -27.8969,1.1562
 L -28.0583,1.41068 L -28.2505,1.6429 L -28.4702,1.84923 L -28.714,2.02638 L -28.9781,2.17157 L -29.2583,2.28253
 L -29.5503,2.35748 L -29.8493,2.39526 z
M 29.8116,17.9941 L 29.4379,17.9469 L 29.0729,17.8532 L 28.7227,17.7145 L 28.3925,17.533 L 28.0877,17.3115
 L 27.8131,17.0536 L 27.5729,16.7634 L 27.3711,16.4453 L 27.2107,16.1044 L 27.0942,15.7461 L 27.0237,15.376
 L 27,15 L 27.0237,14.624 L 27.0942,14.2539 L 27.2107,13.8956 L 27.3711,13.5547 L 27.5729,13.2366
 L 27.8131,12.9464 L 28.0877,12.6884 L 28.3925,12.467 L 28.7227,12.2855 L 29.0729,12.1468 L 29.4379,12.0531
 L 29.8116,12.0059 L 30.1884,12.0059 L 30.5621,12.0531 L 30.927,12.1468 L 31.2773,12.2855 L 31.6075,12.467
 L 31.9123,12.6884 L 32.1869,12.9464 L 32.427,13.2366 L 32.6289,13.5547 L 32.7893,13.8956 L 32.9057,14.2539
 L 32.9763,14.624 L 33,15 L 32.9763,15.376 L 32.9057,15.7461 L 32.7893,16.1044 L 32.6289,16.4453
 L 32.427,16.7634 L 32.1869,17.0536 L 31.9123,17.3115 L 31.6075,17.533 L 31.2773,17.7145 L 30.927,17.8532
 L 30.5621,17.9469 L 30.1884,17.9941 z
M -30.1884,17.9941 L -30.5621,17.9469 L -30.927,17.8532 L -31.2773,17.7145 L -31.6075,17.533 L -31.9123,17.3115
 L -32.1869,17.0536 L -32.427,16.7634 L -32.6289,16.4453 L -32.7893,16.1044 L -32.9057,15.7461 L -32.9763,15.376
 L -33,15 L -32.9763,14.624 L -32.9057,14.2539 L -32.7893,13.8956 L -32.6289,13.5547 L -32.427,13.2366
 L -32.1869,12.9464 L -31.9123,12.6884 L -31.6075,12.467 L -31.2773,12.2855 L -30.927,12.1468 L -30.5621,12.0531
 L -30.1884,12.0059 L -29.8116,12.0059 L -29.4379,12.0531 L -29.0729,12.1468 L -28.7227,12.2855 L -28.3925,12.467
 L -28.0877,12.6884 L -27.8131,12.9464 L -27.5729,13.2366 L -27.3711,13.5547 L -27.2107,13.8956 L -27.0942,14.2539
 L -27.0237,14.624 L -27,15 L -27.0237,15.376 L -27.0942,15.7461 L -27.2107,16.1044 L -27.3711,16.4453
 L -27.5729,16.7634 L -27.8131,17.0536 L -28.0877,17.3115 L -28.3925,17.533 L -28.7227,17.7145 L -29.0729,17.8532
 L -29.4379,17.9469 L -29.8116,17.9941 z
M -30.1884,32.9941 L -30.5621,32.9469 L -30.927,32.8532 L -31.2773,32.7145 L -31.6075,32.533 L -31.9123,32.3115
 L -32.1869,32.0536 L -32.427,31.7634 L -32.6289,31.4453 L -32.7893,31.1044 L -32.9057,30.7461 L -32.9763,30.376
 L -33,30 L -32.9763,29.624 L -32.9057,29.2539 L -32.7893,28.8956 L -32.6289,28.5547 L -32.427,28.2366
 L -32.1869,27.9464 L -31.9123,27.6884 L -31.6075,27.467 L -31.2773,27.2855 L -30.927,27.1468 L -30.5621,27.0531
 L -30.1884,27.0059 L -29.8116,27.0059 L -29.4379,27.0531 L -29.0729,27.1468 L -28.7227,27.2855 L -28.3925,27.467
 L -28.0877,27.6884 L -27.8131,27.9464 L -27.5729,28.2366 L -27.3711,28.5547 L -27.2107,28.8956 L -27.0942,29.2539
 L -27.0237,29.624 L -27,30 L -27.0237,30.376 L -27.0942,30.7461 L -27.2107,31.1044 L -27.3711,31.4453
 L -27.5729,31.7634 L -27.8131,32.0536 L -28.0877,32.3115 L -28.3925,32.533 L -28.7227,32.7145 L -29.0729,32.8532
 L -29.4379,32.9469 L -29.8116,32.9941 z
M 29.8116,32.9941 L 29.4379,32.9469 L 29.0729,32.8532 L 28.7227,32.7145 L 28.3925,32.533 L 28.0877,32.3115
 L 27.8131,32.0536 L 27.5729,31.7634 L 27.3711,31.4453 L 27.2107,31.1044 L 27.0942,30.7461 L 27.0237,30.376
 L 27,30 L 27.0237,29.624 L 27.0942,29.2539 L 27.2107,28.8956 L 27.3711,28.5547 L 27.5729,28.2366
 L 27.8131,27.9464 L 28.0877,27.6884 L 28.3925,27.467 L 28.7227,27.2855 L 29.0729,27.1468 L 29.4379,27.0531
 L 29.8116,27.0059 L 30.1884,27.0059 L 30.5621,27.0531 L 30.927,27.1468 L 31.2773,27.2855 L 31.6075,27.467
 L 31.9123,27.6884 L 32.1869,27.9464 L 32.427,28.2366 L 32.6289,28.5547 L 32.7893,28.8956 L 32.9057,29.2539
 L 32.9763,29.624 L 33,30 L 32.9763,30.376 L 32.9057,30.7461 L 32.7893,31.1044 L 32.6289,31.4453
 L 32.427,31.7634 L 32.1869,32.0536 L 31.9123,32.3115 L 31.6075,32.533 L 31.2773,32.7145 L 30.927,32.8532
 L 30.5621,32.9469 L 30.1884,32.9941 z
M 14.8116,32.9941 L 14.4379,32.9469 L 14.0729,32.8532 L 13.7227,32.7145 L 13.3925,32.533 L 13.0877,32.3115
 L 12.8131,32.0536 L 12.5729,31.7634 L 12.3711,31.4453 L 12.2107,31.1044 L 12.0942,30.7461 L 12.0237,30.376
 L 12,30 L 12.0237,29.624 L 12.0942,29.2539 L 12.2107,28.8956 L 12.3711,28.5547 L 12.5729,28.2366
 L 12.8131,27.9464 L 13.0877,27.6884 L 13.3925,27.467 L 13.7227,27.2855 L 14.0729,27.1468 L 14.4379,27.0531
 L 14.8116,27.0059 L 15.1884,27.0059 L 15.5621,27.0531 L 15.927,27.1468 L 16.2773,27.2855 L 16.6075,27.467
 L 16.9123,27.6884 L 17.1869,27.9464 L 17.427,28.2366 L 17.6289,28.5547 L 17.7893,28.8956 L 17.9057,29.2539
 L 17.9763,29.624 L 18,30 L 17.9763,30.376 L 17.9057,30.7461 L 17.7893,31.1044 L 17.6289,31.4453
 L 17.427,31.7634 L 17.1869,32.0536 L 16.9123,32.3115 L 16.6075,32.533 L 16.2773,32.7145 L 15.927,32.8532
 L 15.5621,32.9469 L 15.1884,32.9941 z
M -15.1884,32.9941 L -15.5621,32.9469 L -15.927,32.8532 L -16.2773,32.7145 L -16.6075,32.533 L -16.9123,32.3115
 L -17.1869,32.0536 L -17.427,31.7634 L -17.6289,31.4453 L -17.7893,31.1044 L -17.9057,30.7461 L -17.9763,30.376
 L -18,30 L -17.9763,29.624 L -17.9057,29.2539 L -17.7893,28.8956 L -17.6289,28.5547 L -17.427,28.2366
 L -17.1869,27.9464 L -16.9123,27.6884 L -16.6075,27.467 L -16.2773,27.2855 L -15.927,27.1468 L -15.5621,27.0531
 L -15.1884,27.0059 L -14.8116,27.0059 L -14.4379,27.0531 L -14.0729,27.1468 L -13.7227,27.2855 L -13.3925,27.467
 L -13.0877,27.6884 L -12.8131,27.9464 L -12.5729,28.2366 L -12.3711,28.5547 L -12.2107,28.8956 L -12.0942,29.2539
 L -12.0237,29.624 L -12,30 L -12.0237,30.376 L -12.0942,30.7461 L -12.2107,31.1044 L -12.3711,31.4453
 L -12.5729,31.7634 L -12.8131,32.0536 L -13.0877,32.3115 L -13.3925,32.533 L -13.7227,32.7145 L -14.0729,32.8532
 L -14.4379,32.9469 L -14.8116,32.9941 z
M -0.400238,32.3664 L -0.693665,32.2976 L -0.976166,32.1925 L -1.24326,32.0529 L -1.49075,31.8809 L -1.71472,31.6792
 L -1.91167,31.451 L -2.07846,31.2 L -2.21246,30.93 L -2.31158,30.6454 L -2.37425,30.3506 L -2.39946,30.0503
 L -2.38684,29.7491 L -2.33658,29.452 L -2.24947,29.1634 L -2.12688,28.8881 L -1.97075,28.6303 L -1.78354,28.3941
 L -1.56821,28.1832 L -1.32812,28.001 L -1.06712,27.8503 L -0.789276,27.7335 L -0.498978,27.6524 L -0.200821,27.6084
 L 0.100494,27.6021 L 0.400238,27.6336 L 0.693665,27.7024 L 0.976166,27.8075 L 1.24326,27.9471 L 1.49075,28.1191
 L 1.71472,28.3208 L 1.91167,28.549 L 2.07846,28.8 L 2.21246,29.07 L 2.31158,29.3546 L 2.37425,29.6494
 L 2.39946,29.9497 L 2.38684,30.2509 L 2.33658,30.548 L 2.24947,30.8366 L 2.12688,31.1119 L 1.97075,31.3697
 L 1.78354,31.6059 L 1.56821,31.8168 L 1.32812,31.999 L 1.06712,32.1497 L 0.789276,32.2665 L 0.498978,32.3475
 L 0.200821,32.3916 L -0.100494,32.3979 z
" stroke="black" fill="lightgray" stroke-width="0.5"/>
</svg>
