<?xml version="1.0" standalone="no"?>
<!DOCTYPE svg PUBLIC "-//W3C//DTD SVG 1.1//EN" "http://www.w3.org/Graphics/SVG/1.1/DTD/svg11.dtd">
<svg width="6mm" height="115mm" viewBox="-3 -113 6 115" xmlns="http://www.w3.org/2000/svg" version="1.1">
<title>OpenSCAD Model</title>
<path d="
M 0.430969,-107.741 L 0.710724,-107.813 L 0.979279,-107.919 L 1.23239,-108.058 L 1.46606,-108.228 L 1.67662,-108.426
 L 1.86073,-108.648 L 2.0155,-108.892 L 2.13847,-109.153 L 2.22774,-109.428 L 2.28186,-109.712 L 2.29999,-110
 L 2.28186,-110.288 L 2.22774,-110.572 L 2.13847,-110.847 L 2.0155,-111.108 L 1.86073,-111.352 L 1.67662,-111.574
 L 1.46606,-111.772 L 1.23239,-111.942 L 0.979279,-112.081 L 0.710724,-112.187 L 0.430969,-112.259 L 0.144409,-112.295
 L -0.144409,-112.295 L -0.430969,-112.259 L -0.710724,-112.187 L -0.979279,-112.081 L -1.23239,-111.942 L -1.46606,-111.772
 L -1.67662,-111.574 L -1.86073,-111.352 L -2.0155,-111.108 L -2.13847,-110.847 L -2.22774,-110.572 L -2.28186,-110.288
 L -2.29999,-110 L -2.28186,-109.712 L -2.22774,-109.428 L -2.13847,-109.153 L -2.0155,-108.892 L -1.86073,-108.648
 L -1.67662,-108.426 L -1.46606,-108.228 L -1.23239,-108.058 L -0.979279,-107.919 L -0.710724,-107.813 L -0.430969,-107.741
 L -0.144409,-107.705 L 0.144409,-107.705 z
M 0.281067,1.47342 L 0.463516,1.42657 L 0.638657,1.35724 L 0.803726,1.26648 L 0.956131,1.15576 L 1.09344,1.02681
 L 1.21352,0.881668 L 1.31445,0.722626 L 1.39465,0.552185 L 1.45287,0.373032 L 1.48816,0.187988 L 1.5,-0
 L 1.48816,-0.187988 L 1.45287,-0.373032 L 1.39465,-0.552185 L 1.31445,-0.722626 L 1.21352,-0.881668 L 1.09344,-1.02681
 L 0.956131,-1.15576 L 0.803726,-1.26648 L 0.638657,-1.35724 L 0.463516,-1.42657 L 0.281067,-1.47342 L 0.0941772,-1.49704
 L -0.0941772,-1.49704 L -0.281067,-1.47342 L -0.463516,-1.42657 L -0.638657,-1.35724 L -0.803726,-1.26648 L -0.956131,-1.15576
 L -1.09344,-1.02681 L -1.21352,-0.881668 L -1.31445,-0.722626 L -1.39465,-0.552185 L -1.45287,-0.373032 L -1.48816,-0.187988
 L -1.5,-0 L -1.48816,0.187988 L -1.45287,0.373032 L -1.39465,0.552185 L -1.31445,0.722626 L -1.21352,0.881668
 L -1.09344,1.02681 L -0.956131,1.15576 L -0.803726,1.26648 L -0.638657,1.35724 L -0.463516,1.42657 L -0.281067,1.47342
 L -0.0941772,1.49704 L 0.0941772,1.49704 z
" stroke="black" fill="lightgray" stroke-width="0.5"/>
</svg>
