<?xml version="1.0" standalone="no"?>
<!DOCTYPE svg PUBLIC "-//W3C//DTD SVG 1.1//EN" "http://www.w3.org/Graphics/SVG/1.1/DTD/svg11.dtd">
<svg width="74mm" height="152mm" viewBox="-37 -292 74 152" xmlns="http://www.w3.org/2000/svg" version="1.1">
<title>OpenSCAD Model</title>
<path d="
M 32.9369,-248.089 L 33.5451,-248.245 L 34.1289,-248.476 L 34.6791,-248.778 L 35.1871,-249.147 L 35.6448,-249.577
 L 36.0451,-250.061 L 36.3815,-250.591 L 36.6489,-251.159 L 36.8429,-251.757 L 36.9606,-252.373 L 37,-253
 L 37,-287 L 36.9606,-287.627 L 36.8429,-288.243 L 36.6489,-288.841 L 36.3815,-289.409 L 36.0451,-289.939
 L 35.6448,-290.423 L 35.1871,-290.853 L 34.6791,-291.222 L 34.1289,-291.524 L 33.5451,-291.755 L 32.9369,-291.911
 L 32.3139,-291.99 L -32.3139,-291.99 L -32.9369,-291.911 L -33.5451,-291.755 L -34.1289,-291.524 L -34.6791,-291.222
 L -35.1871,-290.853 L -35.6448,-290.423 L -36.0451,-289.939 L -36.3815,-289.409 L -36.6489,-288.841 L -36.8429,-288.243
 L -36.9606,-287.627 L -37,-287 L -37,-253 L -36.9606,-252.373 L -36.8429,-251.757 L -36.6489,-251.159
 L -36.3815,-250.591 L -36.0451,-250.061 L -35.6448,-249.577 L -35.1871,-249.147 L -34.6791,-248.778 L -34.1289,-248.476
 L -33.5451,-248.245 L -32.9369,-248.089 L -32.3139,-248.01 L 32.3139,-248.01 z
M -32.2512,-249.008 L -32.7495,-249.071 L -33.2361,-249.196 L -33.7031,-249.381 L -34.1433,-249.623 L -34.5497,-249.918
 L -34.9159,-250.262 L -35.2361,-250.649 L -35.5052,-251.073 L -35.7191,-251.528 L -35.8743,-252.005 L -35.9685,-252.499
 L -36,-253 L -36,-287 L -35.9685,-287.501 L -35.8743,-287.995 L -35.7191,-288.472 L -35.5052,-288.927
 L -35.2361,-289.351 L -34.9159,-289.738 L -34.5497,-290.082 L -34.1433,-290.377 L -33.7031,-290.619 L -33.2361,-290.804
 L -32.7495,-290.929 L -32.2512,-290.992 L 32.2512,-290.992 L 32.7495,-290.929 L 33.2361,-290.804 L 33.7031,-290.619
 L 34.1433,-290.377 L 34.5497,-290.082 L 34.9159,-289.738 L 35.2361,-289.351 L 35.5052,-288.927 L 35.7191,-288.472
 L 35.8743,-287.995 L 35.9685,-287.501 L 36,-287 L 36,-253 L 35.9685,-252.499 L 35.8743,-252.005
 L 35.7191,-251.528 L 35.5052,-251.073 L 35.2361,-250.649 L 34.9159,-250.262 L 34.5497,-249.918 L 34.1433,-249.623
 L 33.7031,-249.381 L 33.2361,-249.196 L 32.7495,-249.071 L 32.2512,-249.008 z
M 32.9369,-194.089 L 33.5451,-194.245 L 34.1289,-194.476 L 34.6791,-194.778 L 35.1871,-195.147 L 35.6448,-195.577
 L 36.0451,-196.061 L 36.3815,-196.591 L 36.6489,-197.159 L 36.8429,-197.757 L 36.9606,-198.373 L 37,-199
 L 37,-233 L 36.9606,-233.627 L 36.8429,-234.243 L 36.6489,-234.841 L 36.3815,-235.409 L 36.0451,-235.939
 L 35.6448,-236.423 L 35.1871,-236.853 L 34.6791,-237.222 L 34.1289,-237.524 L 33.5451,-237.755 L 32.9369,-237.911
 L 32.3139,-237.99 L -32.3139,-237.99 L -32.9369,-237.911 L -33.5451,-237.755 L -34.1289,-237.524 L -34.6791,-237.222
 L -35.1871,-236.853 L -35.6448,-236.423 L -36.0451,-235.939 L -36.3815,-235.409 L -36.6489,-234.841 L -36.8429,-234.243
 L -36.9606,-233.627 L -37,-233 L -37,-199 L -36.9606,-198.373 L -36.8429,-197.757 L -36.6489,-197.159
 L -36.3815,-196.591 L -36.0451,-196.061 L -35.6448,-195.577 L -35.1871,-195.147 L -34.6791,-194.778 L -34.1289,-194.476
 L -33.5451,-194.245 L -32.9369,-194.089 L -32.3139,-194.01 L 32.3139,-194.01 z
M -32.1954,-195.893 L -32.5833,-195.942 L -32.9619,-196.039 L -33.3254,-196.183 L -33.668,-196.372 L -33.9842,-196.601
 L -34.2692,-196.869 L -34.5184,-197.17 L -34.7279,-197.5 L -34.8943,-197.854 L -35.0151,-198.226 L -35.0884,-198.61
 L -35.1129,-199 L -35.1129,-233 L -35.0884,-233.39 L -35.0151,-233.774 L -34.8943,-234.146 L -34.7279,-234.5
 L -34.5184,-234.83 L -34.2692,-235.131 L -33.9842,-235.399 L -33.668,-235.628 L -33.3254,-235.817 L -32.9619,-235.961
 L -32.5833,-236.058 L -32.1954,-236.107 L 32.1954,-236.107 L 32.5833,-236.058 L 32.9619,-235.961 L 33.3254,-235.817
 L 33.668,-235.628 L 33.9842,-235.399 L 34.2692,-235.131 L 34.5184,-234.83 L 34.7279,-234.5 L 34.8943,-234.146
 L 35.0151,-233.774 L 35.0884,-233.39 L 35.1129,-233 L 35.1129,-199 L 35.0884,-198.61 L 35.0151,-198.226
 L 34.8943,-197.854 L 34.7279,-197.5 L 34.5184,-197.17 L 34.2692,-196.869 L 33.9842,-196.601 L 33.668,-196.372
 L 33.3254,-196.183 L 32.9619,-196.039 L 32.5833,-195.942 L 32.1954,-195.893 z
M 32.9369,-140.089 L 33.5451,-140.245 L 34.1289,-140.476 L 34.6791,-140.778 L 35.1871,-141.147 L 35.6448,-141.577
 L 36.0451,-142.061 L 36.3815,-142.591 L 36.6489,-143.159 L 36.8429,-143.757 L 36.9606,-144.373 L 37,-145
 L 37,-179 L 36.9606,-179.627 L 36.8429,-180.243 L 36.6489,-180.841 L 36.3815,-181.409 L 36.0451,-181.939
 L 35.6448,-182.423 L 35.1871,-182.853 L 34.6791,-183.222 L 34.1289,-183.524 L 33.5451,-183.755 L 32.9369,-183.911
 L 32.3139,-183.99 L -32.3139,-183.99 L -32.9369,-183.911 L -33.5451,-183.755 L -34.1289,-183.524 L -34.6791,-183.222
 L -35.1871,-182.853 L -35.6448,-182.423 L -36.0451,-181.939 L -36.3815,-181.409 L -36.6489,-180.841 L -36.8429,-180.243
 L -36.9606,-179.627 L -37,-179 L -37,-145 L -36.9606,-144.373 L -36.8429,-143.757 L -36.6489,-143.159
 L -36.3815,-142.591 L -36.0451,-142.061 L -35.6448,-141.577 L -35.1871,-141.147 L -34.6791,-140.778 L -34.1289,-140.476
 L -33.5451,-140.245 L -32.9369,-140.089 L -32.3139,-140.01 L 32.3139,-140.01 z
M -30.1507,-174.605 L -30.4497,-174.643 L -30.7416,-174.717 L -31.0219,-174.828 L -31.286,-174.974 L -31.5298,-175.151
 L -31.7495,-175.357 L -31.9416,-175.589 L -32.1031,-175.844 L -32.2315,-176.117 L -32.3246,-176.403 L -32.3811,-176.699
 L -32.4,-177 L -32.3811,-177.301 L -32.3246,-177.597 L -32.2315,-177.883 L -32.1031,-178.156 L -31.9416,-178.411
 L -31.7495,-178.643 L -31.5298,-178.849 L -31.286,-179.026 L -31.0219,-179.172 L -30.7416,-179.283 L -30.4497,-179.357
 L -30.1507,-179.395 L -29.8493,-179.395 L -29.5503,-179.357 L -29.2583,-179.283 L -28.9781,-179.172 L -28.714,-179.026
 L -28.4702,-178.849 L -28.2505,-178.643 L -28.0583,-178.411 L -27.8969,-178.156 L -27.7685,-177.883 L -27.6754,-177.597
 L -27.6189,-177.301 L -27.6,-177 L -27.6189,-176.699 L -27.6754,-176.403 L -27.7685,-176.117 L -27.8969,-175.844
 L -28.0583,-175.589 L -28.2505,-175.357 L -28.4702,-175.151 L -28.714,-174.974 L -28.9781,-174.828 L -29.2583,-174.717
 L -29.5503,-174.643 L -29.8493,-174.605 z
M 29.8493,-174.605 L 29.5503,-174.643 L 29.2583,-174.717 L 28.9781,-174.828 L 28.714,-174.974 L 28.4702,-175.151
 L 28.2505,-175.357 L 28.0583,-175.589 L 27.8969,-175.844 L 27.7685,-176.117 L 27.6754,-176.403 L 27.6189,-176.699
 L 27.6,-177 L 27.6189,-177.301 L 27.6754,-177.597 L 27.7685,-177.883 L 27.8969,-178.156 L 28.0583,-178.411
 L 28.2505,-178.643 L 28.4702,-178.849 L 28.714,-179.026 L 28.9781,-179.172 L 29.2583,-179.283 L 29.5503,-179.357
 L 29.8493,-179.395 L 30.1507,-179.395 L 30.4497,-179.357 L 30.7416,-179.283 L 31.0219,-179.172 L 31.286,-179.026
 L 31.5298,-178.849 L 31.7495,-178.643 L 31.9416,-178.411 L 32.1031,-178.156 L 32.2315,-177.883 L 32.3246,-177.597
 L 32.3811,-177.301 L 32.4,-177 L 32.3811,-176.699 L 32.3246,-176.403 L 32.2315,-176.117 L 32.1031,-175.844
 L 31.9416,-175.589 L 31.7495,-175.357 L 31.5298,-175.151 L 31.286,-174.974 L 31.0219,-174.828 L 30.7416,-174.717
 L 30.4497,-174.643 L 30.1507,-174.605 z
M -30.1507,-144.605 L -30.4497,-144.643 L -30.7416,-144.717 L -31.0219,-144.828 L -31.286,-144.974 L -31.5298,-145.151
 L -31.7495,-145.357 L -31.9416,-145.589 L -32.1031,-145.844 L -32.2315,-146.117 L -32.3246,-146.403 L -32.3811,-146.699
 L -32.4,-147 L -32.3811,-147.301 L -32.3246,-147.597 L -32.2315,-147.883 L -32.1031,-148.156 L -31.9416,-148.411
 L -31.7495,-148.643 L -31.5298,-148.849 L -31.286,-149.026 L -31.0219,-149.172 L -30.7416,-149.283 L -30.4497,-149.357
 L -30.1507,-149.395 L -29.8493,-149.395 L -29.5503,-149.357 L -29.2583,-149.283 L -28.9781,-149.172 L -28.714,-149.026
 L -28.4702,-148.849 L -28.2505,-148.643 L -28.0583,-148.411 L -27.8969,-148.156 L -27.7685,-147.883 L -27.6754,-147.597
 L -27.6189,-147.301 L -27.6,-147 L -27.6189,-146.699 L -27.6754,-146.403 L -27.7685,-146.117 L -27.8969,-145.844
 L -28.0583,-145.589 L -28.2505,-145.357 L -28.4702,-145.151 L -28.714,-144.974 L -28.9781,-144.828 L -29.2583,-144.717
 L -29.5503,-144.643 L -29.8493,-144.605 z
M 29.8493,-144.605 L 29.5503,-144.643 L 29.2583,-144.717 L 28.9781,-144.828 L 28.714,-144.974 L 28.4702,-145.151
 L 28.2505,-145.357 L 28.0583,-145.589 L 27.8969,-145.844 L 27.7685,-146.117 L 27.6754,-146.403 L 27.6189,-146.699
 L 27.6,-147 L 27.6189,-147.301 L 27.6754,-147.597 L 27.7685,-147.883 L 27.8969,-148.156 L 28.0583,-148.411
 L 28.2505,-148.643 L 28.4702,-148.849 L 28.714,-149.026 L 28.9781,-149.172 L 29.2583,-149.283 L 29.5503,-149.357
 L 29.8493,-149.395 L 30.1507,-149.395 L 30.4497,-149.357 L 30.7416,-149.283 L 31.0219,-149.172 L 31.286,-149.026
 L 31.5298,-148.849 L 31.7495,-148.643 L 31.9416,-148.411 L 32.1031,-148.156 L 32.2315,-147.883 L 32.3246,-147.597
 L 32.3811,-147.301 L 32.4,-147 L 32.3811,-146.699 L 32.3246,-146.403 L 32.2315,-146.117 L 32.1031,-145.844
 L 31.9416,-145.589 L 31.7495,-145.357 L 31.5298,-145.151 L 31.286,-144.974 L 31.0219,-144.828 L 30.7416,-144.717
 L 30.4497,-144.643 L 30.1507,-144.605 z
" stroke="black" fill="lightgray" stroke-width="0.5"/>
</svg>
