<?xml version="1.0" standalone="no"?>
<!DOCTYPE svg PUBLIC "-//W3C//DTD SVG 1.1//EN" "http://www.w3.org/Graphics/SVG/1.1/DTD/svg11.dtd">
<svg width="30mm" height="110mm" viewBox="-15 -199 30 110" xmlns="http://www.w3.org/2000/svg" version="1.1">
<title>OpenSCAD Model</title>
<path d="
M 10.4369,-185.089 L 11.0451,-185.245 L 11.6289,-185.476 L 12.1791,-185.778 L 12.6871,-186.147 L 13.1448,-186.577
 L 13.5451,-187.061 L 13.8815,-187.591 L 14.1489,-188.159 L 14.3429,-188.757 L 14.4606,-189.373 L 14.5,-190
 L 14.5,-194 L 14.4606,-194.627 L 14.3429,-195.243 L 14.1489,-195.841 L 13.8815,-196.409 L 13.5451,-196.939
 L 13.1448,-197.423 L 12.6871,-197.853 L 12.1791,-198.222 L 11.6289,-198.524 L 11.0451,-198.755 L 10.4369,-198.911
 L 9.81395,-198.99 L -9.81395,-198.99 L -10.4369,-198.911 L -11.0451,-198.755 L -11.6289,-198.524 L -12.1791,-198.222
 L -12.6871,-197.853 L -13.1448,-197.423 L -13.5451,-196.939 L -13.8815,-196.409 L -14.1489,-195.841 L -14.3429,-195.243
 L -14.4606,-194.627 L -14.5,-194 L -14.5,-190 L -14.4606,-189.373 L -14.3429,-188.757 L -14.1489,-188.159
 L -13.8815,-187.591 L -13.5451,-187.061 L -13.1448,-186.577 L -12.6871,-186.147 L -12.1791,-185.778 L -11.6289,-185.476
 L -11.0451,-185.245 L -10.4369,-185.089 L -9.81395,-185.01 L 9.81395,-185.01 z
M -9.75116,-186.008 L -10.2495,-186.071 L -10.7361,-186.196 L -11.2031,-186.381 L -11.6433,-186.623 L -12.0497,-186.918
 L -12.4159,-187.262 L -12.7361,-187.649 L -13.0052,-188.073 L -13.2191,-188.528 L -13.3743,-189.005 L -13.4684,-189.499
 L -13.5,-190 L -13.5,-194 L -13.4684,-194.501 L -13.3743,-194.995 L -13.2191,-195.472 L -13.0052,-195.927
 L -12.7361,-196.351 L -12.4159,-196.738 L -12.0497,-197.082 L -11.6433,-197.377 L -11.2031,-197.619 L -10.7361,-197.804
 L -10.2495,-197.929 L -9.75116,-197.992 L 9.75116,-197.992 L 10.2495,-197.929 L 10.7361,-197.804 L 11.2031,-197.619
 L 11.6433,-197.377 L 12.0497,-197.082 L 12.4159,-196.738 L 12.7361,-196.351 L 13.0052,-195.927 L 13.2191,-195.472
 L 13.3743,-194.995 L 13.4684,-194.501 L 13.5,-194 L 13.5,-190 L 13.4684,-189.499 L 13.3743,-189.005
 L 13.2191,-188.528 L 13.0052,-188.073 L 12.7361,-187.649 L 12.4159,-187.262 L 12.0497,-186.918 L 11.6433,-186.623
 L 11.2031,-186.381 L 10.7361,-186.196 L 10.2495,-186.071 L 9.75116,-186.008 z
M 10.4369,-161.089 L 11.0451,-161.245 L 11.6289,-161.476 L 12.1791,-161.778 L 12.6871,-162.147 L 13.1448,-162.577
 L 13.5451,-163.061 L 13.8815,-163.591 L 14.1489,-164.159 L 14.3429,-164.757 L 14.4606,-165.373 L 14.5,-166
 L 14.5,-170 L 14.4606,-170.627 L 14.3429,-171.243 L 14.1489,-171.841 L 13.8815,-172.409 L 13.5451,-172.939
 L 13.1448,-173.423 L 12.6871,-173.853 L 12.1791,-174.222 L 11.6289,-174.524 L 11.0451,-174.755 L 10.4369,-174.911
 L 9.81395,-174.99 L -9.81395,-174.99 L -10.4369,-174.911 L -11.0451,-174.755 L -11.6289,-174.524 L -12.1791,-174.222
 L -12.6871,-173.853 L -13.1448,-173.423 L -13.5451,-172.939 L -13.8815,-172.409 L -14.1489,-171.841 L -14.3429,-171.243
 L -14.4606,-170.627 L -14.5,-170 L -14.5,-166 L -14.4606,-165.373 L -14.3429,-164.757 L -14.1489,-164.159
 L -13.8815,-163.591 L -13.5451,-163.061 L -13.1448,-162.577 L -12.6871,-162.147 L -12.1791,-161.778 L -11.6289,-161.476
 L -11.0451,-161.245 L -10.4369,-161.089 L -9.81395,-161.01 L 9.81395,-161.01 z
M -9.75116,-162.008 L -10.2495,-162.071 L -10.7361,-162.196 L -11.2031,-162.381 L -11.6433,-162.623 L -12.0497,-162.918
 L -12.4159,-163.262 L -12.7361,-163.649 L -13.0052,-164.073 L -13.2191,-164.528 L -13.3743,-165.005 L -13.4684,-165.499
 L -13.5,-166 L -13.5,-170 L -13.4684,-170.501 L -13.3743,-170.995 L -13.2191,-171.472 L -13.0052,-171.927
 L -12.7361,-172.351 L -12.4159,-172.738 L -12.0497,-173.082 L -11.6433,-173.377 L -11.2031,-173.619 L -10.7361,-173.804
 L -10.2495,-173.929 L -9.75116,-173.992 L 9.75116,-173.992 L 10.2495,-173.929 L 10.7361,-173.804 L 11.2031,-173.619
 L 11.6433,-173.377 L 12.0497,-173.082 L 12.4159,-172.738 L 12.7361,-172.351 L 13.0052,-171.927 L 13.2191,-171.472
 L 13.3743,-170.995 L 13.4684,-170.501 L 13.5,-170 L 13.5,-166 L 13.4684,-165.499 L 13.3743,-165.005
 L 13.2191,-164.528 L 13.0052,-164.073 L 12.7361,-163.649 L 12.4159,-163.262 L 12.0497,-162.918 L 11.6433,-162.623
 L 11.2031,-162.381 L 10.7361,-162.196 L 10.2495,-162.071 L 9.75116,-162.008 z
M 10.4369,-137.089 L 11.0451,-137.245 L 11.6289,-137.476 L 12.1791,-137.778 L 12.6871,-138.147 L 13.1448,-138.577
 L 13.5451,-139.061 L 13.8815,-139.591 L 14.1489,-140.159 L 14.3429,-140.757 L 14.4606,-141.373 L 14.5,-142
 L 14.5,-146 L 14.4606,-146.627 L 14.3429,-147.243 L 14.1489,-147.841 L 13.8815,-148.409 L 13.5451,-148.939
 L 13.1448,-149.423 L 12.6871,-149.853 L 12.1791,-150.222 L 11.6289,-150.524 L 11.0451,-150.755 L 10.4369,-150.911
 L 9.81395,-150.99 L -9.81395,-150.99 L -10.4369,-150.911 L -11.0451,-150.755 L -11.6289,-150.524 L -12.1791,-150.222
 L -12.6871,-149.853 L -13.1448,-149.423 L -13.5451,-148.939 L -13.8815,-148.409 L -14.1489,-147.841 L -14.3429,-147.243
 L -14.4606,-146.627 L -14.5,-146 L -14.5,-142 L -14.4606,-141.373 L -14.3429,-140.757 L -14.1489,-140.159
 L -13.8815,-139.591 L -13.5451,-139.061 L -13.1448,-138.577 L -12.6871,-138.147 L -12.1791,-137.778 L -11.6289,-137.476
 L -11.0451,-137.245 L -10.4369,-137.089 L -9.81395,-137.01 L 9.81395,-137.01 z
M -9.74316,-138.135 L -10.2256,-138.196 L -10.6967,-138.317 L -11.1489,-138.496 L -11.5751,-138.73 L -11.9685,-139.016
 L -12.323,-139.349 L -12.633,-139.724 L -12.8936,-140.134 L -13.1007,-140.574 L -13.251,-141.037 L -13.3421,-141.515
 L -13.3726,-142 L -13.3726,-146 L -13.3421,-146.485 L -13.251,-146.963 L -13.1007,-147.426 L -12.8936,-147.866
 L -12.633,-148.276 L -12.323,-148.651 L -11.9685,-148.984 L -11.5751,-149.27 L -11.1489,-149.504 L -10.6967,-149.683
 L -10.2256,-149.804 L -9.74316,-149.865 L 9.74316,-149.865 L 10.2256,-149.804 L 10.6967,-149.683 L 11.1489,-149.504
 L 11.5751,-149.27 L 11.9685,-148.984 L 12.323,-148.651 L 12.633,-148.276 L 12.8936,-147.866 L 13.1007,-147.426
 L 13.251,-146.963 L 13.3421,-146.485 L 13.3726,-146 L 13.3726,-142 L 13.3421,-141.515 L 13.251,-141.037
 L 13.1007,-140.574 L 12.8936,-140.134 L 12.633,-139.724 L 12.323,-139.349 L 11.9685,-139.016 L 11.5751,-138.73
 L 11.1489,-138.496 L 10.6967,-138.317 L 10.2256,-138.196 L 9.74316,-138.135 z
M 10.4369,-113.089 L 11.0451,-113.245 L 11.6289,-113.476 L 12.1791,-113.778 L 12.6871,-114.147 L 13.1448,-114.577
 L 13.5451,-115.061 L 13.8815,-115.591 L 14.1489,-116.159 L 14.3429,-116.757 L 14.4606,-117.373 L 14.5,-118
 L 14.5,-122 L 14.4606,-122.627 L 14.3429,-123.243 L 14.1489,-123.841 L 13.8815,-124.409 L 13.5451,-124.939
 L 13.1448,-125.423 L 12.6871,-125.853 L 12.1791,-126.222 L 11.6289,-126.524 L 11.0451,-126.755 L 10.4369,-126.911
 L 9.81395,-126.99 L -9.81395,-126.99 L -10.4369,-126.911 L -11.0451,-126.755 L -11.6289,-126.524 L -12.1791,-126.222
 L -12.6871,-125.853 L -13.1448,-125.423 L -13.5451,-124.939 L -13.8815,-124.409 L -14.1489,-123.841 L -14.3429,-123.243
 L -14.4606,-122.627 L -14.5,-122 L -14.5,-118 L -14.4606,-117.373 L -14.3429,-116.757 L -14.1489,-116.159
 L -13.8815,-115.591 L -13.5451,-115.061 L -13.1448,-114.577 L -12.6871,-114.147 L -12.1791,-113.778 L -11.6289,-113.476
 L -11.0451,-113.245 L -10.4369,-113.089 L -9.81395,-113.01 L 9.81395,-113.01 z
M 10.4369,-89.0886 L 11.0451,-89.2447 L 11.6289,-89.4759 L 12.1791,-89.7784 L 12.6871,-90.1474 L 13.1448,-90.5773
 L 13.5451,-91.0611 L 13.8815,-91.5912 L 14.1489,-92.1594 L 14.3429,-92.7566 L 14.4606,-93.3733 L 14.5,-94
 L 14.5,-98 L 14.4606,-98.6267 L 14.3429,-99.2434 L 14.1489,-99.8406 L 13.8815,-100.409 L 13.5451,-100.939
 L 13.1448,-101.423 L 12.6871,-101.853 L 12.1791,-102.222 L 11.6289,-102.524 L 11.0451,-102.755 L 10.4369,-102.911
 L 9.81395,-102.99 L -9.81395,-102.99 L -10.4369,-102.911 L -11.0451,-102.755 L -11.6289,-102.524 L -12.1791,-102.222
 L -12.6871,-101.853 L -13.1448,-101.423 L -13.5451,-100.939 L -13.8815,-100.409 L -14.1489,-99.8406 L -14.3429,-99.2434
 L -14.4606,-98.6267 L -14.5,-98 L -14.5,-94 L -14.4606,-93.3733 L -14.3429,-92.7566 L -14.1489,-92.1594
 L -13.8815,-91.5912 L -13.5451,-91.0611 L -13.1448,-90.5773 L -12.6871,-90.1474 L -12.1791,-89.7784 L -11.6289,-89.4759
 L -11.0451,-89.2447 L -10.4369,-89.0886 L -9.81395,-89.0099 L 9.81395,-89.0099 z
M 7.34929,-93.6047 L 7.05028,-93.6425 L 6.75835,-93.7175 L 6.47812,-93.8284 L 6.214,-93.9736 L 5.97017,-94.1508
 L 5.75047,-94.3571 L 5.55835,-94.5893 L 5.39685,-94.8438 L 5.26852,-95.1165 L 5.1754,-95.4032 L 5.11891,-95.6992
 L 5.09999,-96 L 5.11891,-96.3008 L 5.1754,-96.5968 L 5.26852,-96.8835 L 5.39685,-97.1562 L 5.55835,-97.4107
 L 5.75047,-97.6429 L 5.97017,-97.8492 L 6.214,-98.0264 L 6.47812,-98.1716 L 6.75835,-98.2825 L 7.05028,-98.3575
 L 7.34929,-98.3953 L 7.6507,-98.3953 L 7.94971,-98.3575 L 8.24164,-98.2825 L 8.52187,-98.1716 L 8.78598,-98.0264
 L 9.02982,-97.8492 L 9.24951,-97.6429 L 9.44164,-97.4107 L 9.60313,-97.1562 L 9.73146,-96.8835 L 9.82458,-96.5968
 L 9.88107,-96.3008 L 9.89999,-96 L 9.88107,-95.6992 L 9.82458,-95.4032 L 9.73146,-95.1165 L 9.60313,-94.8438
 L 9.44164,-94.5893 L 9.24951,-94.3571 L 9.02982,-94.1508 L 8.78598,-93.9736 L 8.52187,-93.8284 L 8.24164,-93.7175
 L 7.94971,-93.6425 L 7.6507,-93.6047 z
M -7.6507,-93.6047 L -7.94971,-93.6425 L -8.24164,-93.7175 L -8.52187,-93.8284 L -8.78598,-93.9736 L -9.02982,-94.1508
 L -9.24951,-94.3571 L -9.44164,-94.5893 L -9.60313,-94.8438 L -9.73146,-95.1165 L -9.82458,-95.4032 L -9.88107,-95.6992
 L -9.89999,-96 L -9.88107,-96.3008 L -9.82458,-96.5968 L -9.73146,-96.8835 L -9.60313,-97.1562 L -9.44164,-97.4107
 L -9.24951,-97.6429 L -9.02982,-97.8492 L -8.78598,-98.0264 L -8.52187,-98.1716 L -8.24164,-98.2825 L -7.94971,-98.3575
 L -7.6507,-98.3953 L -7.34929,-98.3953 L -7.05028,-98.3575 L -6.75835,-98.2825 L -6.47812,-98.1716 L -6.214,-98.0264
 L -5.97017,-97.8492 L -5.75047,-97.6429 L -5.55835,-97.4107 L -5.39685,-97.1562 L -5.26852,-96.8835 L -5.1754,-96.5968
 L -5.11891,-96.3008 L -5.09999,-96 L -5.11891,-95.6992 L -5.1754,-95.4032 L -5.26852,-95.1165 L -5.39685,-94.8438
 L -5.55835,-94.5893 L -5.75047,-94.3571 L -5.97017,-94.1508 L -6.214,-93.9736 L -6.47812,-93.8284 L -6.75835,-93.7175
 L -7.05028,-93.6425 L -7.34929,-93.6047 z
" stroke="black" fill="lightgray" stroke-width="0.5"/>
</svg>
