  0
SECTION
  2
BLOCKS
  0
ENDSEC
  0
SECTION
  2
ENTITIES
  0
LINE
  8
0
 10
17.9369
 20
248.089
 11
18.5451
 21
248.245
  0
LINE
  8
0
 10
18.5451
 20
248.245
 11
19.1289
 21
248.476
  0
LINE
  8
0
 10
19.1289
 20
248.476
 11
19.6791
 21
248.778
  0
LINE
  8
0
 10
19.6791
 20
248.778
 11
20.1871
 21
249.147
  0
LINE
  8
0
 10
20.1871
 20
249.147
 11
20.6448
 21
249.577
  0
LINE
  8
0
 10
20.6448
 20
249.577
 11
21.0451
 21
250.061
  0
LINE
  8
0
 10
21.0451
 20
250.061
 11
21.3815
 21
250.591
  0
LINE
  8
0
 10
21.3815
 20
250.591
 11
21.6489
 21
251.159
  0
LINE
  8
0
 10
21.6489
 20
251.159
 11
21.8429
 21
251.757
  0
LINE
  8
0
 10
21.8429
 20
251.757
 11
21.9606
 21
252.373
  0
LINE
  8
0
 10
21.9606
 20
252.373
 11
22
 21
253
  0
LINE
  8
0
 10
22
 20
253
 11
22
 21
287
  0
LINE
  8
0
 10
22
 20
287
 11
21.9606
 21
287.627
  0
LINE
  8
0
 10
21.9606
 20
287.627
 11
21.8429
 21
288.243
  0
LINE
  8
0
 10
21.8429
 20
288.243
 11
21.6489
 21
288.841
  0
LINE
  8
0
 10
21.6489
 20
288.841
 11
21.3815
 21
289.409
  0
LINE
  8
0
 10
21.3815
 20
289.409
 11
21.0451
 21
289.939
  0
LINE
  8
0
 10
21.0451
 20
289.939
 11
20.6448
 21
290.423
  0
LINE
  8
0
 10
20.6448
 20
290.423
 11
20.1871
 21
290.853
  0
LINE
  8
0
 10
20.1871
 20
290.853
 11
19.6791
 21
291.222
  0
LINE
  8
0
 10
19.6791
 20
291.222
 11
19.1289
 21
291.524
  0
LINE
  8
0
 10
19.1289
 20
291.524
 11
18.5451
 21
291.755
  0
LINE
  8
0
 10
18.5451
 20
291.755
 11
17.9369
 21
291.911
  0
LINE
  8
0
 10
17.9369
 20
291.911
 11
17.3139
 21
291.99
  0
LINE
  8
0
 10
17.3139
 20
291.99
 11
-17.3139
 21
291.99
  0
LINE
  8
0
 10
-17.3139
 20
291.99
 11
-17.9369
 21
291.911
  0
LINE
  8
0
 10
-17.9369
 20
291.911
 11
-18.5451
 21
291.755
  0
LINE
  8
0
 10
-18.5451
 20
291.755
 11
-19.1289
 21
291.524
  0
LINE
  8
0
 10
-19.1289
 20
291.524
 11
-19.6791
 21
291.222
  0
LINE
  8
0
 10
-19.6791
 20
291.222
 11
-20.1871
 21
290.853
  0
LINE
  8
0
 10
-20.1871
 20
290.853
 11
-20.6448
 21
290.423
  0
LINE
  8
0
 10
-20.6448
 20
290.423
 11
-21.0451
 21
289.939
  0
LINE
  8
0
 10
-21.0451
 20
289.939
 11
-21.3815
 21
289.409
  0
LINE
  8
0
 10
-21.3815
 20
289.409
 11
-21.6489
 21
288.841
  0
LINE
  8
0
 10
-21.6489
 20
288.841
 11
-21.8429
 21
288.243
  0
LINE
  8
0
 10
-21.8429
 20
288.243
 11
-21.9606
 21
287.627
  0
LINE
  8
0
 10
-21.9606
 20
287.627
 11
-22
 21
287
  0
LINE
  8
0
 10
-22
 20
287
 11
-22
 21
253
  0
LINE
  8
0
 10
-22
 20
253
 11
-21.9606
 21
252.373
  0
LINE
  8
0
 10
-21.9606
 20
252.373
 11
-21.8429
 21
251.757
  0
LINE
  8
0
 10
-21.8429
 20
251.757
 11
-21.6489
 21
251.159
  0
LINE
  8
0
 10
-21.6489
 20
251.159
 11
-21.3815
 21
250.591
  0
LINE
  8
0
 10
-21.3815
 20
250.591
 11
-21.0451
 21
250.061
  0
LINE
  8
0
 10
-21.0451
 20
250.061
 11
-20.6448
 21
249.577
  0
LINE
  8
0
 10
-20.6448
 20
249.577
 11
-20.1871
 21
249.147
  0
LINE
  8
0
 10
-20.1871
 20
249.147
 11
-19.6791
 21
248.778
  0
LINE
  8
0
 10
-19.6791
 20
248.778
 11
-19.1289
 21
248.476
  0
LINE
  8
0
 10
-19.1289
 20
248.476
 11
-18.5451
 21
248.245
  0
LINE
  8
0
 10
-18.5451
 20
248.245
 11
-17.9369
 21
248.089
  0
LINE
  8
0
 10
-17.9369
 20
248.089
 11
-17.3139
 21
248.01
  0
LINE
  8
0
 10
-17.3139
 20
248.01
 11
17.3139
 21
248.01
  0
LINE
  8
0
 10
17.3139
 20
248.01
 11
17.9369
 21
248.089
  0
LINE
  8
0
 10
-17.2512
 20
249.008
 11
-17.7495
 21
249.071
  0
LINE
  8
0
 10
-17.7495
 20
249.071
 11
-18.2361
 21
249.196
  0
LINE
  8
0
 10
-18.2361
 20
249.196
 11
-18.7031
 21
249.381
  0
LINE
  8
0
 10
-18.7031
 20
249.381
 11
-19.1433
 21
249.623
  0
LINE
  8
0
 10
-19.1433
 20
249.623
 11
-19.5497
 21
249.918
  0
LINE
  8
0
 10
-19.5497
 20
249.918
 11
-19.9159
 21
250.262
  0
LINE
  8
0
 10
-19.9159
 20
250.262
 11
-20.2361
 21
250.649
  0
LINE
  8
0
 10
-20.2361
 20
250.649
 11
-20.5052
 21
251.073
  0
LINE
  8
0
 10
-20.5052
 20
251.073
 11
-20.7191
 21
251.528
  0
LINE
  8
0
 10
-20.7191
 20
251.528
 11
-20.8743
 21
252.005
  0
LINE
  8
0
 10
-20.8743
 20
252.005
 11
-20.9684
 21
252.499
  0
LINE
  8
0
 10
-20.9684
 20
252.499
 11
-21
 21
253
  0
LINE
  8
0
 10
-21
 20
253
 11
-21
 21
287
  0
LINE
  8
0
 10
-21
 20
287
 11
-20.9684
 21
287.501
  0
LINE
  8
0
 10
-20.9684
 20
287.501
 11
-20.8743
 21
287.995
  0
LINE
  8
0
 10
-20.8743
 20
287.995
 11
-20.7191
 21
288.472
  0
LINE
  8
0
 10
-20.7191
 20
288.472
 11
-20.5052
 21
288.927
  0
LINE
  8
0
 10
-20.5052
 20
288.927
 11
-20.2361
 21
289.351
  0
LINE
  8
0
 10
-20.2361
 20
289.351
 11
-19.9159
 21
289.738
  0
LINE
  8
0
 10
-19.9159
 20
289.738
 11
-19.5497
 21
290.082
  0
LINE
  8
0
 10
-19.5497
 20
290.082
 11
-19.1433
 21
290.377
  0
LINE
  8
0
 10
-19.1433
 20
290.377
 11
-18.7031
 21
290.619
  0
LINE
  8
0
 10
-18.7031
 20
290.619
 11
-18.2361
 21
290.804
  0
LINE
  8
0
 10
-18.2361
 20
290.804
 11
-17.7495
 21
290.929
  0
LINE
  8
0
 10
-17.7495
 20
290.929
 11
-17.2512
 21
290.992
  0
LINE
  8
0
 10
-17.2512
 20
290.992
 11
17.2512
 21
290.992
  0
LINE
  8
0
 10
17.2512
 20
290.992
 11
17.7495
 21
290.929
  0
LINE
  8
0
 10
17.7495
 20
290.929
 11
18.2361
 21
290.804
  0
LINE
  8
0
 10
18.2361
 20
290.804
 11
18.7031
 21
290.619
  0
LINE
  8
0
 10
18.7031
 20
290.619
 11
19.1433
 21
290.377
  0
LINE
  8
0
 10
19.1433
 20
290.377
 11
19.5497
 21
290.082
  0
LINE
  8
0
 10
19.5497
 20
290.082
 11
19.9159
 21
289.738
  0
LINE
  8
0
 10
19.9159
 20
289.738
 11
20.2361
 21
289.351
  0
LINE
  8
0
 10
20.2361
 20
289.351
 11
20.5052
 21
288.927
  0
LINE
  8
0
 10
20.5052
 20
288.927
 11
20.7191
 21
288.472
  0
LINE
  8
0
 10
20.7191
 20
288.472
 11
20.8743
 21
287.995
  0
LINE
  8
0
 10
20.8743
 20
287.995
 11
20.9684
 21
287.501
  0
LINE
  8
0
 10
20.9684
 20
287.501
 11
21
 21
287
  0
LINE
  8
0
 10
21
 20
287
 11
21
 21
253
  0
LINE
  8
0
 10
21
 20
253
 11
20.9684
 21
252.499
  0
LINE
  8
0
 10
20.9684
 20
252.499
 11
20.8743
 21
252.005
  0
LINE
  8
0
 10
20.8743
 20
252.005
 11
20.7191
 21
251.528
  0
LINE
  8
0
 10
20.7191
 20
251.528
 11
20.5052
 21
251.073
  0
LINE
  8
0
 10
20.5052
 20
251.073
 11
20.2361
 21
250.649
  0
LINE
  8
0
 10
20.2361
 20
250.649
 11
19.9159
 21
250.262
  0
LINE
  8
0
 10
19.9159
 20
250.262
 11
19.5497
 21
249.918
  0
LINE
  8
0
 10
19.5497
 20
249.918
 11
19.1433
 21
249.623
  0
LINE
  8
0
 10
19.1433
 20
249.623
 11
18.7031
 21
249.381
  0
LINE
  8
0
 10
18.7031
 20
249.381
 11
18.2361
 21
249.196
  0
LINE
  8
0
 10
18.2361
 20
249.196
 11
17.7495
 21
249.071
  0
LINE
  8
0
 10
17.7495
 20
249.071
 11
17.2512
 21
249.008
  0
LINE
  8
0
 10
17.2512
 20
249.008
 11
-17.2512
 21
249.008
  0
LINE
  8
0
 10
17.9369
 20
140.089
 11
18.5451
 21
140.245
  0
LINE
  8
0
 10
18.5451
 20
140.245
 11
19.1289
 21
140.476
  0
LINE
  8
0
 10
19.1289
 20
140.476
 11
19.6791
 21
140.778
  0
LINE
  8
0
 10
19.6791
 20
140.778
 11
20.1871
 21
141.147
  0
LINE
  8
0
 10
20.1871
 20
141.147
 11
20.6448
 21
141.577
  0
LINE
  8
0
 10
20.6448
 20
141.577
 11
21.0451
 21
142.061
  0
LINE
  8
0
 10
21.0451
 20
142.061
 11
21.3815
 21
142.591
  0
LINE
  8
0
 10
21.3815
 20
142.591
 11
21.6489
 21
143.159
  0
LINE
  8
0
 10
21.6489
 20
143.159
 11
21.8429
 21
143.757
  0
LINE
  8
0
 10
21.8429
 20
143.757
 11
21.9606
 21
144.373
  0
LINE
  8
0
 10
21.9606
 20
144.373
 11
22
 21
145
  0
LINE
  8
0
 10
22
 20
145
 11
22
 21
179
  0
LINE
  8
0
 10
22
 20
179
 11
21.9606
 21
179.627
  0
LINE
  8
0
 10
21.9606
 20
179.627
 11
21.8429
 21
180.243
  0
LINE
  8
0
 10
21.8429
 20
180.243
 11
21.6489
 21
180.841
  0
LINE
  8
0
 10
21.6489
 20
180.841
 11
21.3815
 21
181.409
  0
LINE
  8
0
 10
21.3815
 20
181.409
 11
21.0451
 21
181.939
  0
LINE
  8
0
 10
21.0451
 20
181.939
 11
20.6448
 21
182.423
  0
LINE
  8
0
 10
20.6448
 20
182.423
 11
20.1871
 21
182.853
  0
LINE
  8
0
 10
20.1871
 20
182.853
 11
19.6791
 21
183.222
  0
LINE
  8
0
 10
19.6791
 20
183.222
 11
19.1289
 21
183.524
  0
LINE
  8
0
 10
19.1289
 20
183.524
 11
18.5451
 21
183.755
  0
LINE
  8
0
 10
18.5451
 20
183.755
 11
17.9369
 21
183.911
  0
LINE
  8
0
 10
17.9369
 20
183.911
 11
17.3139
 21
183.99
  0
LINE
  8
0
 10
17.3139
 20
183.99
 11
-17.3139
 21
183.99
  0
LINE
  8
0
 10
-17.3139
 20
183.99
 11
-17.9369
 21
183.911
  0
LINE
  8
0
 10
-17.9369
 20
183.911
 11
-18.5451
 21
183.755
  0
LINE
  8
0
 10
-18.5451
 20
183.755
 11
-19.1289
 21
183.524
  0
LINE
  8
0
 10
-19.1289
 20
183.524
 11
-19.6791
 21
183.222
  0
LINE
  8
0
 10
-19.6791
 20
183.222
 11
-20.1871
 21
182.853
  0
LINE
  8
0
 10
-20.1871
 20
182.853
 11
-20.6448
 21
182.423
  0
LINE
  8
0
 10
-20.6448
 20
182.423
 11
-21.0451
 21
181.939
  0
LINE
  8
0
 10
-21.0451
 20
181.939
 11
-21.3815
 21
181.409
  0
LINE
  8
0
 10
-21.3815
 20
181.409
 11
-21.6489
 21
180.841
  0
LINE
  8
0
 10
-21.6489
 20
180.841
 11
-21.8429
 21
180.243
  0
LINE
  8
0
 10
-21.8429
 20
180.243
 11
-21.9606
 21
179.627
  0
LINE
  8
0
 10
-21.9606
 20
179.627
 11
-22
 21
179
  0
LINE
  8
0
 10
-22
 20
179
 11
-22
 21
145
  0
LINE
  8
0
 10
-22
 20
145
 11
-21.9606
 21
144.373
  0
LINE
  8
0
 10
-21.9606
 20
144.373
 11
-21.8429
 21
143.757
  0
LINE
  8
0
 10
-21.8429
 20
143.757
 11
-21.6489
 21
143.159
  0
LINE
  8
0
 10
-21.6489
 20
143.159
 11
-21.3815
 21
142.591
  0
LINE
  8
0
 10
-21.3815
 20
142.591
 11
-21.0451
 21
142.061
  0
LINE
  8
0
 10
-21.0451
 20
142.061
 11
-20.6448
 21
141.577
  0
LINE
  8
0
 10
-20.6448
 20
141.577
 11
-20.1871
 21
141.147
  0
LINE
  8
0
 10
-20.1871
 20
141.147
 11
-19.6791
 21
140.778
  0
LINE
  8
0
 10
-19.6791
 20
140.778
 11
-19.1289
 21
140.476
  0
LINE
  8
0
 10
-19.1289
 20
140.476
 11
-18.5451
 21
140.245
  0
LINE
  8
0
 10
-18.5451
 20
140.245
 11
-17.9369
 21
140.089
  0
LINE
  8
0
 10
-17.9369
 20
140.089
 11
-17.3139
 21
140.01
  0
LINE
  8
0
 10
-17.3139
 20
140.01
 11
17.3139
 21
140.01
  0
LINE
  8
0
 10
17.3139
 20
140.01
 11
17.9369
 21
140.089
  0
LINE
  8
0
 10
14.8493
 20
174.605
 11
14.5503
 21
174.643
  0
LINE
  8
0
 10
14.5503
 20
174.643
 11
14.2583
 21
174.717
  0
LINE
  8
0
 10
14.2583
 20
174.717
 11
13.9781
 21
174.828
  0
LINE
  8
0
 10
13.9781
 20
174.828
 11
13.714
 21
174.974
  0
LINE
  8
0
 10
13.714
 20
174.974
 11
13.4702
 21
175.151
  0
LINE
  8
0
 10
13.4702
 20
175.151
 11
13.2505
 21
175.357
  0
LINE
  8
0
 10
13.2505
 20
175.357
 11
13.0583
 21
175.589
  0
LINE
  8
0
 10
13.0583
 20
175.589
 11
12.8969
 21
175.844
  0
LINE
  8
0
 10
12.8969
 20
175.844
 11
12.7685
 21
176.117
  0
LINE
  8
0
 10
12.7685
 20
176.117
 11
12.6754
 21
176.403
  0
LINE
  8
0
 10
12.6754
 20
176.403
 11
12.6189
 21
176.699
  0
LINE
  8
0
 10
12.6189
 20
176.699
 11
12.6
 21
177
  0
LINE
  8
0
 10
12.6
 20
177
 11
12.6189
 21
177.301
  0
LINE
  8
0
 10
12.6189
 20
177.301
 11
12.6754
 21
177.597
  0
LINE
  8
0
 10
12.6754
 20
177.597
 11
12.7685
 21
177.883
  0
LINE
  8
0
 10
12.7685
 20
177.883
 11
12.8969
 21
178.156
  0
LINE
  8
0
 10
12.8969
 20
178.156
 11
13.0583
 21
178.411
  0
LINE
  8
0
 10
13.0583
 20
178.411
 11
13.2505
 21
178.643
  0
LINE
  8
0
 10
13.2505
 20
178.643
 11
13.4702
 21
178.849
  0
LINE
  8
0
 10
13.4702
 20
178.849
 11
13.714
 21
179.026
  0
LINE
  8
0
 10
13.714
 20
179.026
 11
13.9781
 21
179.172
  0
LINE
  8
0
 10
13.9781
 20
179.172
 11
14.2583
 21
179.283
  0
LINE
  8
0
 10
14.2583
 20
179.283
 11
14.5503
 21
179.357
  0
LINE
  8
0
 10
14.5503
 20
179.357
 11
14.8493
 21
179.395
  0
LINE
  8
0
 10
14.8493
 20
179.395
 11
15.1507
 21
179.395
  0
LINE
  8
0
 10
15.1507
 20
179.395
 11
15.4497
 21
179.357
  0
LINE
  8
0
 10
15.4497
 20
179.357
 11
15.7416
 21
179.283
  0
LINE
  8
0
 10
15.7416
 20
179.283
 11
16.0219
 21
179.172
  0
LINE
  8
0
 10
16.0219
 20
179.172
 11
16.286
 21
179.026
  0
LINE
  8
0
 10
16.286
 20
179.026
 11
16.5298
 21
178.849
  0
LINE
  8
0
 10
16.5298
 20
178.849
 11
16.7495
 21
178.643
  0
LINE
  8
0
 10
16.7495
 20
178.643
 11
16.9416
 21
178.411
  0
LINE
  8
0
 10
16.9416
 20
178.411
 11
17.1031
 21
178.156
  0
LINE
  8
0
 10
17.1031
 20
178.156
 11
17.2315
 21
177.883
  0
LINE
  8
0
 10
17.2315
 20
177.883
 11
17.3246
 21
177.597
  0
LINE
  8
0
 10
17.3246
 20
177.597
 11
17.3811
 21
177.301
  0
LINE
  8
0
 10
17.3811
 20
177.301
 11
17.4
 21
177
  0
LINE
  8
0
 10
17.4
 20
177
 11
17.3811
 21
176.699
  0
LINE
  8
0
 10
17.3811
 20
176.699
 11
17.3246
 21
176.403
  0
LINE
  8
0
 10
17.3246
 20
176.403
 11
17.2315
 21
176.117
  0
LINE
  8
0
 10
17.2315
 20
176.117
 11
17.1031
 21
175.844
  0
LINE
  8
0
 10
17.1031
 20
175.844
 11
16.9416
 21
175.589
  0
LINE
  8
0
 10
16.9416
 20
175.589
 11
16.7495
 21
175.357
  0
LINE
  8
0
 10
16.7495
 20
175.357
 11
16.5298
 21
175.151
  0
LINE
  8
0
 10
16.5298
 20
175.151
 11
16.286
 21
174.974
  0
LINE
  8
0
 10
16.286
 20
174.974
 11
16.0219
 21
174.828
  0
LINE
  8
0
 10
16.0219
 20
174.828
 11
15.7416
 21
174.717
  0
LINE
  8
0
 10
15.7416
 20
174.717
 11
15.4497
 21
174.643
  0
LINE
  8
0
 10
15.4497
 20
174.643
 11
15.1507
 21
174.605
  0
LINE
  8
0
 10
15.1507
 20
174.605
 11
14.8493
 21
174.605
  0
LINE
  8
0
 10
-15.1507
 20
174.605
 11
-15.4497
 21
174.643
  0
LINE
  8
0
 10
-15.4497
 20
174.643
 11
-15.7416
 21
174.717
  0
LINE
  8
0
 10
-15.7416
 20
174.717
 11
-16.0219
 21
174.828
  0
LINE
  8
0
 10
-16.0219
 20
174.828
 11
-16.286
 21
174.974
  0
LINE
  8
0
 10
-16.286
 20
174.974
 11
-16.5298
 21
175.151
  0
LINE
  8
0
 10
-16.5298
 20
175.151
 11
-16.7495
 21
175.357
  0
LINE
  8
0
 10
-16.7495
 20
175.357
 11
-16.9416
 21
175.589
  0
LINE
  8
0
 10
-16.9416
 20
175.589
 11
-17.1031
 21
175.844
  0
LINE
  8
0
 10
-17.1031
 20
175.844
 11
-17.2315
 21
176.117
  0
LINE
  8
0
 10
-17.2315
 20
176.117
 11
-17.3246
 21
176.403
  0
LINE
  8
0
 10
-17.3246
 20
176.403
 11
-17.3811
 21
176.699
  0
LINE
  8
0
 10
-17.3811
 20
176.699
 11
-17.4
 21
177
  0
LINE
  8
0
 10
-17.4
 20
177
 11
-17.3811
 21
177.301
  0
LINE
  8
0
 10
-17.3811
 20
177.301
 11
-17.3246
 21
177.597
  0
LINE
  8
0
 10
-17.3246
 20
177.597
 11
-17.2315
 21
177.883
  0
LINE
  8
0
 10
-17.2315
 20
177.883
 11
-17.1031
 21
178.156
  0
LINE
  8
0
 10
-17.1031
 20
178.156
 11
-16.9416
 21
178.411
  0
LINE
  8
0
 10
-16.9416
 20
178.411
 11
-16.7495
 21
178.643
  0
LINE
  8
0
 10
-16.7495
 20
178.643
 11
-16.5298
 21
178.849
  0
LINE
  8
0
 10
-16.5298
 20
178.849
 11
-16.286
 21
179.026
  0
LINE
  8
0
 10
-16.286
 20
179.026
 11
-16.0219
 21
179.172
  0
LINE
  8
0
 10
-16.0219
 20
179.172
 11
-15.7416
 21
179.283
  0
LINE
  8
0
 10
-15.7416
 20
179.283
 11
-15.4497
 21
179.357
  0
LINE
  8
0
 10
-15.4497
 20
179.357
 11
-15.1507
 21
179.395
  0
LINE
  8
0
 10
-15.1507
 20
179.395
 11
-14.8493
 21
179.395
  0
LINE
  8
0
 10
-14.8493
 20
179.395
 11
-14.5503
 21
179.357
  0
LINE
  8
0
 10
-14.5503
 20
179.357
 11
-14.2583
 21
179.283
  0
LINE
  8
0
 10
-14.2583
 20
179.283
 11
-13.9781
 21
179.172
  0
LINE
  8
0
 10
-13.9781
 20
179.172
 11
-13.714
 21
179.026
  0
LINE
  8
0
 10
-13.714
 20
179.026
 11
-13.4702
 21
178.849
  0
LINE
  8
0
 10
-13.4702
 20
178.849
 11
-13.2505
 21
178.643
  0
LINE
  8
0
 10
-13.2505
 20
178.643
 11
-13.0583
 21
178.411
  0
LINE
  8
0
 10
-13.0583
 20
178.411
 11
-12.8969
 21
178.156
  0
LINE
  8
0
 10
-12.8969
 20
178.156
 11
-12.7685
 21
177.883
  0
LINE
  8
0
 10
-12.7685
 20
177.883
 11
-12.6754
 21
177.597
  0
LINE
  8
0
 10
-12.6754
 20
177.597
 11
-12.6189
 21
177.301
  0
LINE
  8
0
 10
-12.6189
 20
177.301
 11
-12.6
 21
177
  0
LINE
  8
0
 10
-12.6
 20
177
 11
-12.6189
 21
176.699
  0
LINE
  8
0
 10
-12.6189
 20
176.699
 11
-12.6754
 21
176.403
  0
LINE
  8
0
 10
-12.6754
 20
176.403
 11
-12.7685
 21
176.117
  0
LINE
  8
0
 10
-12.7685
 20
176.117
 11
-12.8969
 21
175.844
  0
LINE
  8
0
 10
-12.8969
 20
175.844
 11
-13.0583
 21
175.589
  0
LINE
  8
0
 10
-13.0583
 20
175.589
 11
-13.2505
 21
175.357
  0
LINE
  8
0
 10
-13.2505
 20
175.357
 11
-13.4702
 21
175.151
  0
LINE
  8
0
 10
-13.4702
 20
175.151
 11
-13.714
 21
174.974
  0
LINE
  8
0
 10
-13.714
 20
174.974
 11
-13.9781
 21
174.828
  0
LINE
  8
0
 10
-13.9781
 20
174.828
 11
-14.2583
 21
174.717
  0
LINE
  8
0
 10
-14.2583
 20
174.717
 11
-14.5503
 21
174.643
  0
LINE
  8
0
 10
-14.5503
 20
174.643
 11
-14.8493
 21
174.605
  0
LINE
  8
0
 10
-14.8493
 20
174.605
 11
-15.1507
 21
174.605
  0
LINE
  8
0
 10
-15.1507
 20
144.605
 11
-15.4497
 21
144.643
  0
LINE
  8
0
 10
-15.4497
 20
144.643
 11
-15.7416
 21
144.717
  0
LINE
  8
0
 10
-15.7416
 20
144.717
 11
-16.0219
 21
144.828
  0
LINE
  8
0
 10
-16.0219
 20
144.828
 11
-16.286
 21
144.974
  0
LINE
  8
0
 10
-16.286
 20
144.974
 11
-16.5298
 21
145.151
  0
LINE
  8
0
 10
-16.5298
 20
145.151
 11
-16.7495
 21
145.357
  0
LINE
  8
0
 10
-16.7495
 20
145.357
 11
-16.9416
 21
145.589
  0
LINE
  8
0
 10
-16.9416
 20
145.589
 11
-17.1031
 21
145.844
  0
LINE
  8
0
 10
-17.1031
 20
145.844
 11
-17.2315
 21
146.117
  0
LINE
  8
0
 10
-17.2315
 20
146.117
 11
-17.3246
 21
146.403
  0
LINE
  8
0
 10
-17.3246
 20
146.403
 11
-17.3811
 21
146.699
  0
LINE
  8
0
 10
-17.3811
 20
146.699
 11
-17.4
 21
147
  0
LINE
  8
0
 10
-17.4
 20
147
 11
-17.3811
 21
147.301
  0
LINE
  8
0
 10
-17.3811
 20
147.301
 11
-17.3246
 21
147.597
  0
LINE
  8
0
 10
-17.3246
 20
147.597
 11
-17.2315
 21
147.883
  0
LINE
  8
0
 10
-17.2315
 20
147.883
 11
-17.1031
 21
148.156
  0
LINE
  8
0
 10
-17.1031
 20
148.156
 11
-16.9416
 21
148.411
  0
LINE
  8
0
 10
-16.9416
 20
148.411
 11
-16.7495
 21
148.643
  0
LINE
  8
0
 10
-16.7495
 20
148.643
 11
-16.5298
 21
148.849
  0
LINE
  8
0
 10
-16.5298
 20
148.849
 11
-16.286
 21
149.026
  0
LINE
  8
0
 10
-16.286
 20
149.026
 11
-16.0219
 21
149.172
  0
LINE
  8
0
 10
-16.0219
 20
149.172
 11
-15.7416
 21
149.283
  0
LINE
  8
0
 10
-15.7416
 20
149.283
 11
-15.4497
 21
149.357
  0
LINE
  8
0
 10
-15.4497
 20
149.357
 11
-15.1507
 21
149.395
  0
LINE
  8
0
 10
-15.1507
 20
149.395
 11
-14.8493
 21
149.395
  0
LINE
  8
0
 10
-14.8493
 20
149.395
 11
-14.5503
 21
149.357
  0
LINE
  8
0
 10
-14.5503
 20
149.357
 11
-14.2583
 21
149.283
  0
LINE
  8
0
 10
-14.2583
 20
149.283
 11
-13.9781
 21
149.172
  0
LINE
  8
0
 10
-13.9781
 20
149.172
 11
-13.714
 21
149.026
  0
LINE
  8
0
 10
-13.714
 20
149.026
 11
-13.4702
 21
148.849
  0
LINE
  8
0
 10
-13.4702
 20
148.849
 11
-13.2505
 21
148.643
  0
LINE
  8
0
 10
-13.2505
 20
148.643
 11
-13.0583
 21
148.411
  0
LINE
  8
0
 10
-13.0583
 20
148.411
 11
-12.8969
 21
148.156
  0
LINE
  8
0
 10
-12.8969
 20
148.156
 11
-12.7685
 21
147.883
  0
LINE
  8
0
 10
-12.7685
 20
147.883
 11
-12.6754
 21
147.597
  0
LINE
  8
0
 10
-12.6754
 20
147.597
 11
-12.6189
 21
147.301
  0
LINE
  8
0
 10
-12.6189
 20
147.301
 11
-12.6
 21
147
  0
LINE
  8
0
 10
-12.6
 20
147
 11
-12.6189
 21
146.699
  0
LINE
  8
0
 10
-12.6189
 20
146.699
 11
-12.6754
 21
146.403
  0
LINE
  8
0
 10
-12.6754
 20
146.403
 11
-12.7685
 21
146.117
  0
LINE
  8
0
 10
-12.7685
 20
146.117
 11
-12.8969
 21
145.844
  0
LINE
  8
0
 10
-12.8969
 20
145.844
 11
-13.0583
 21
145.589
  0
LINE
  8
0
 10
-13.0583
 20
145.589
 11
-13.2505
 21
145.357
  0
LINE
  8
0
 10
-13.2505
 20
145.357
 11
-13.4702
 21
145.151
  0
LINE
  8
0
 10
-13.4702
 20
145.151
 11
-13.714
 21
144.974
  0
LINE
  8
0
 10
-13.714
 20
144.974
 11
-13.9781
 21
144.828
  0
LINE
  8
0
 10
-13.9781
 20
144.828
 11
-14.2583
 21
144.717
  0
LINE
  8
0
 10
-14.2583
 20
144.717
 11
-14.5503
 21
144.643
  0
LINE
  8
0
 10
-14.5503
 20
144.643
 11
-14.8493
 21
144.605
  0
LINE
  8
0
 10
-14.8493
 20
144.605
 11
-15.1507
 21
144.605
  0
LINE
  8
0
 10
14.8493
 20
144.605
 11
14.5503
 21
144.643
  0
LINE
  8
0
 10
14.5503
 20
144.643
 11
14.2583
 21
144.717
  0
LINE
  8
0
 10
14.2583
 20
144.717
 11
13.9781
 21
144.828
  0
LINE
  8
0
 10
13.9781
 20
144.828
 11
13.714
 21
144.974
  0
LINE
  8
0
 10
13.714
 20
144.974
 11
13.4702
 21
145.151
  0
LINE
  8
0
 10
13.4702
 20
145.151
 11
13.2505
 21
145.357
  0
LINE
  8
0
 10
13.2505
 20
145.357
 11
13.0583
 21
145.589
  0
LINE
  8
0
 10
13.0583
 20
145.589
 11
12.8969
 21
145.844
  0
LINE
  8
0
 10
12.8969
 20
145.844
 11
12.7685
 21
146.117
  0
LINE
  8
0
 10
12.7685
 20
146.117
 11
12.6754
 21
146.403
  0
LINE
  8
0
 10
12.6754
 20
146.403
 11
12.6189
 21
146.699
  0
LINE
  8
0
 10
12.6189
 20
146.699
 11
12.6
 21
147
  0
LINE
  8
0
 10
12.6
 20
147
 11
12.6189
 21
147.301
  0
LINE
  8
0
 10
12.6189
 20
147.301
 11
12.6754
 21
147.597
  0
LINE
  8
0
 10
12.6754
 20
147.597
 11
12.7685
 21
147.883
  0
LINE
  8
0
 10
12.7685
 20
147.883
 11
12.8969
 21
148.156
  0
LINE
  8
0
 10
12.8969
 20
148.156
 11
13.0583
 21
148.411
  0
LINE
  8
0
 10
13.0583
 20
148.411
 11
13.2505
 21
148.643
  0
LINE
  8
0
 10
13.2505
 20
148.643
 11
13.4702
 21
148.849
  0
LINE
  8
0
 10
13.4702
 20
148.849
 11
13.714
 21
149.026
  0
LINE
  8
0
 10
13.714
 20
149.026
 11
13.9781
 21
149.172
  0
LINE
  8
0
 10
13.9781
 20
149.172
 11
14.2583
 21
149.283
  0
LINE
  8
0
 10
14.2583
 20
149.283
 11
14.5503
 21
149.357
  0
LINE
  8
0
 10
14.5503
 20
149.357
 11
14.8493
 21
149.395
  0
LINE
  8
0
 10
14.8493
 20
149.395
 11
15.1507
 21
149.395
  0
LINE
  8
0
 10
15.1507
 20
149.395
 11
15.4497
 21
149.357
  0
LINE
  8
0
 10
15.4497
 20
149.357
 11
15.7416
 21
149.283
  0
LINE
  8
0
 10
15.7416
 20
149.283
 11
16.0219
 21
149.172
  0
LINE
  8
0
 10
16.0219
 20
149.172
 11
16.286
 21
149.026
  0
LINE
  8
0
 10
16.286
 20
149.026
 11
16.5298
 21
148.849
  0
LINE
  8
0
 10
16.5298
 20
148.849
 11
16.7495
 21
148.643
  0
LINE
  8
0
 10
16.7495
 20
148.643
 11
16.9416
 21
148.411
  0
LINE
  8
0
 10
16.9416
 20
148.411
 11
17.1031
 21
148.156
  0
LINE
  8
0
 10
17.1031
 20
148.156
 11
17.2315
 21
147.883
  0
LINE
  8
0
 10
17.2315
 20
147.883
 11
17.3246
 21
147.597
  0
LINE
  8
0
 10
17.3246
 20
147.597
 11
17.3811
 21
147.301
  0
LINE
  8
0
 10
17.3811
 20
147.301
 11
17.4
 21
147
  0
LINE
  8
0
 10
17.4
 20
147
 11
17.3811
 21
146.699
  0
LINE
  8
0
 10
17.3811
 20
146.699
 11
17.3246
 21
146.403
  0
LINE
  8
0
 10
17.3246
 20
146.403
 11
17.2315
 21
146.117
  0
LINE
  8
0
 10
17.2315
 20
146.117
 11
17.1031
 21
145.844
  0
LINE
  8
0
 10
17.1031
 20
145.844
 11
16.9416
 21
145.589
  0
LINE
  8
0
 10
16.9416
 20
145.589
 11
16.7495
 21
145.357
  0
LINE
  8
0
 10
16.7495
 20
145.357
 11
16.5298
 21
145.151
  0
LINE
  8
0
 10
16.5298
 20
145.151
 11
16.286
 21
144.974
  0
LINE
  8
0
 10
16.286
 20
144.974
 11
16.0219
 21
144.828
  0
LINE
  8
0
 10
16.0219
 20
144.828
 11
15.7416
 21
144.717
  0
LINE
  8
0
 10
15.7416
 20
144.717
 11
15.4497
 21
144.643
  0
LINE
  8
0
 10
15.4497
 20
144.643
 11
15.1507
 21
144.605
  0
LINE
  8
0
 10
15.1507
 20
144.605
 11
14.8493
 21
144.605
  0
LINE
  8
0
 10
-21.0451
 20
196.061
 11
-20.6448
 21
195.577
  0
LINE
  8
0
 10
-20.6448
 20
195.577
 11
-20.1871
 21
195.147
  0
LINE
  8
0
 10
-20.1871
 20
195.147
 11
-19.6791
 21
194.778
  0
LINE
  8
0
 10
-19.6791
 20
194.778
 11
-19.1289
 21
194.476
  0
LINE
  8
0
 10
-19.1289
 20
194.476
 11
-18.5451
 21
194.245
  0
LINE
  8
0
 10
-18.5451
 20
194.245
 11
-17.9369
 21
194.089
  0
LINE
  8
0
 10
-17.9369
 20
194.089
 11
-17.3139
 21
194.01
  0
LINE
  8
0
 10
-17.3139
 20
194.01
 11
17.3139
 21
194.01
  0
LINE
  8
0
 10
17.3139
 20
194.01
 11
17.9369
 21
194.089
  0
LINE
  8
0
 10
17.9369
 20
194.089
 11
18.5451
 21
194.245
  0
LINE
  8
0
 10
18.5451
 20
194.245
 11
19.1289
 21
194.476
  0
LINE
  8
0
 10
19.1289
 20
194.476
 11
19.6791
 21
194.778
  0
LINE
  8
0
 10
19.6791
 20
194.778
 11
20.1871
 21
195.147
  0
LINE
  8
0
 10
20.1871
 20
195.147
 11
20.6448
 21
195.577
  0
LINE
  8
0
 10
20.6448
 20
195.577
 11
21.0451
 21
196.061
  0
LINE
  8
0
 10
21.0451
 20
196.061
 11
21.3815
 21
196.591
  0
LINE
  8
0
 10
21.3815
 20
196.591
 11
21.6489
 21
197.159
  0
LINE
  8
0
 10
21.6489
 20
197.159
 11
21.8429
 21
197.757
  0
LINE
  8
0
 10
21.8429
 20
197.757
 11
21.9606
 21
198.373
  0
LINE
  8
0
 10
21.9606
 20
198.373
 11
22
 21
199
  0
LINE
  8
0
 10
22
 20
199
 11
22
 21
233
  0
LINE
  8
0
 10
22
 20
233
 11
21.9606
 21
233.627
  0
LINE
  8
0
 10
21.9606
 20
233.627
 11
21.8429
 21
234.243
  0
LINE
  8
0
 10
21.8429
 20
234.243
 11
21.6489
 21
234.841
  0
LINE
  8
0
 10
21.6489
 20
234.841
 11
21.3815
 21
235.409
  0
LINE
  8
0
 10
21.3815
 20
235.409
 11
21.0451
 21
235.939
  0
LINE
  8
0
 10
21.0451
 20
235.939
 11
20.6448
 21
236.423
  0
LINE
  8
0
 10
20.6448
 20
236.423
 11
20.1871
 21
236.853
  0
LINE
  8
0
 10
20.1871
 20
236.853
 11
19.6791
 21
237.222
  0
LINE
  8
0
 10
19.6791
 20
237.222
 11
19.1289
 21
237.524
  0
LINE
  8
0
 10
19.1289
 20
237.524
 11
18.5451
 21
237.755
  0
LINE
  8
0
 10
18.5451
 20
237.755
 11
17.9369
 21
237.911
  0
LINE
  8
0
 10
17.9369
 20
237.911
 11
17.3139
 21
237.99
  0
LINE
  8
0
 10
17.3139
 20
237.99
 11
-17.3139
 21
237.99
  0
LINE
  8
0
 10
-17.3139
 20
237.99
 11
-17.9369
 21
237.911
  0
LINE
  8
0
 10
-17.9369
 20
237.911
 11
-18.5451
 21
237.755
  0
LINE
  8
0
 10
-18.5451
 20
237.755
 11
-19.1289
 21
237.524
  0
LINE
  8
0
 10
-19.1289
 20
237.524
 11
-19.6791
 21
237.222
  0
LINE
  8
0
 10
-19.6791
 20
237.222
 11
-20.1871
 21
236.853
  0
LINE
  8
0
 10
-20.1871
 20
236.853
 11
-20.6448
 21
236.423
  0
LINE
  8
0
 10
-20.6448
 20
236.423
 11
-21.0451
 21
235.939
  0
LINE
  8
0
 10
-21.0451
 20
235.939
 11
-21.3815
 21
235.409
  0
LINE
  8
0
 10
-21.3815
 20
235.409
 11
-21.6489
 21
234.841
  0
LINE
  8
0
 10
-21.6489
 20
234.841
 11
-21.8429
 21
234.243
  0
LINE
  8
0
 10
-21.8429
 20
234.243
 11
-21.9606
 21
233.627
  0
LINE
  8
0
 10
-21.9606
 20
233.627
 11
-22
 21
233
  0
LINE
  8
0
 10
-22
 20
233
 11
-22
 21
199
  0
LINE
  8
0
 10
-22
 20
199
 11
-21.9606
 21
198.373
  0
LINE
  8
0
 10
-21.9606
 20
198.373
 11
-21.8429
 21
197.757
  0
LINE
  8
0
 10
-21.8429
 20
197.757
 11
-21.6489
 21
197.159
  0
LINE
  8
0
 10
-21.6489
 20
197.159
 11
-21.3815
 21
196.591
  0
LINE
  8
0
 10
-21.3815
 20
196.591
 11
-21.0451
 21
196.061
  0
LINE
  8
0
 10
-20.0884
 20
198.61
 11
-20.1129
 21
199
  0
LINE
  8
0
 10
-20.1129
 20
199
 11
-20.1129
 21
233
  0
LINE
  8
0
 10
-20.1129
 20
233
 11
-20.0884
 21
233.39
  0
LINE
  8
0
 10
-20.0884
 20
233.39
 11
-20.0151
 21
233.774
  0
LINE
  8
0
 10
-20.0151
 20
233.774
 11
-19.8943
 21
234.146
  0
LINE
  8
0
 10
-19.8943
 20
234.146
 11
-19.7279
 21
234.5
  0
LINE
  8
0
 10
-19.7279
 20
234.5
 11
-19.5184
 21
234.83
  0
LINE
  8
0
 10
-19.5184
 20
234.83
 11
-19.2692
 21
235.131
  0
LINE
  8
0
 10
-19.2692
 20
235.131
 11
-18.9842
 21
235.399
  0
LINE
  8
0
 10
-18.9842
 20
235.399
 11
-18.668
 21
235.628
  0
LINE
  8
0
 10
-18.668
 20
235.628
 11
-18.3254
 21
235.817
  0
LINE
  8
0
 10
-18.3254
 20
235.817
 11
-17.9619
 21
235.961
  0
LINE
  8
0
 10
-17.9619
 20
235.961
 11
-17.5833
 21
236.058
  0
LINE
  8
0
 10
-17.5833
 20
236.058
 11
-17.1954
 21
236.107
  0
LINE
  8
0
 10
-17.1954
 20
236.107
 11
17.1954
 21
236.107
  0
LINE
  8
0
 10
17.1954
 20
236.107
 11
17.5833
 21
236.058
  0
LINE
  8
0
 10
17.5833
 20
236.058
 11
17.9619
 21
235.961
  0
LINE
  8
0
 10
17.9619
 20
235.961
 11
18.3254
 21
235.817
  0
LINE
  8
0
 10
18.3254
 20
235.817
 11
18.668
 21
235.628
  0
LINE
  8
0
 10
18.668
 20
235.628
 11
18.9842
 21
235.399
  0
LINE
  8
0
 10
18.9842
 20
235.399
 11
19.2692
 21
235.131
  0
LINE
  8
0
 10
19.2692
 20
235.131
 11
19.5184
 21
234.83
  0
LINE
  8
0
 10
19.5184
 20
234.83
 11
19.7279
 21
234.5
  0
LINE
  8
0
 10
19.7279
 20
234.5
 11
19.8943
 21
234.146
  0
LINE
  8
0
 10
19.8943
 20
234.146
 11
20.0151
 21
233.774
  0
LINE
  8
0
 10
20.0151
 20
233.774
 11
20.0884
 21
233.39
  0
LINE
  8
0
 10
20.0884
 20
233.39
 11
20.1129
 21
233
  0
LINE
  8
0
 10
20.1129
 20
233
 11
20.1129
 21
199
  0
LINE
  8
0
 10
20.1129
 20
199
 11
20.0884
 21
198.61
  0
LINE
  8
0
 10
20.0884
 20
198.61
 11
20.0151
 21
198.226
  0
LINE
  8
0
 10
20.0151
 20
198.226
 11
19.8943
 21
197.854
  0
LINE
  8
0
 10
19.8943
 20
197.854
 11
19.7279
 21
197.5
  0
LINE
  8
0
 10
19.7279
 20
197.5
 11
19.5184
 21
197.17
  0
LINE
  8
0
 10
19.5184
 20
197.17
 11
19.2692
 21
196.869
  0
LINE
  8
0
 10
19.2692
 20
196.869
 11
18.9842
 21
196.601
  0
LINE
  8
0
 10
18.9842
 20
196.601
 11
18.668
 21
196.372
  0
LINE
  8
0
 10
18.668
 20
196.372
 11
18.3254
 21
196.183
  0
LINE
  8
0
 10
18.3254
 20
196.183
 11
17.9619
 21
196.039
  0
LINE
  8
0
 10
17.9619
 20
196.039
 11
17.5833
 21
195.942
  0
LINE
  8
0
 10
17.5833
 20
195.942
 11
17.1954
 21
195.893
  0
LINE
  8
0
 10
17.1954
 20
195.893
 11
-17.1954
 21
195.893
  0
LINE
  8
0
 10
-17.1954
 20
195.893
 11
-17.5833
 21
195.942
  0
LINE
  8
0
 10
-17.5833
 20
195.942
 11
-17.9619
 21
196.039
  0
LINE
  8
0
 10
-17.9619
 20
196.039
 11
-18.3254
 21
196.183
  0
LINE
  8
0
 10
-18.3254
 20
196.183
 11
-18.668
 21
196.372
  0
LINE
  8
0
 10
-18.668
 20
196.372
 11
-18.9842
 21
196.601
  0
LINE
  8
0
 10
-18.9842
 20
196.601
 11
-19.2692
 21
196.869
  0
LINE
  8
0
 10
-19.2692
 20
196.869
 11
-19.5184
 21
197.17
  0
LINE
  8
0
 10
-19.5184
 20
197.17
 11
-19.7279
 21
197.5
  0
LINE
  8
0
 10
-19.7279
 20
197.5
 11
-19.8943
 21
197.854
  0
LINE
  8
0
 10
-19.8943
 20
197.854
 11
-20.0151
 21
198.226
  0
LINE
  8
0
 10
-20.0151
 20
198.226
 11
-20.0884
 21
198.61
  0
ENDSEC
  0
SECTION
  2
OBJECTS
  0
DICTIONARY
  0
ENDSEC
  0
EOF
