<?xml version="1.0" standalone="no"?>
<!DOCTYPE svg PUBLIC "-//W3C//DTD SVG 1.1//EN" "http://www.w3.org/Graphics/SVG/1.1/DTD/svg11.dtd">
<svg width="44mm" height="152mm" viewBox="-22 -292 44 152" xmlns="http://www.w3.org/2000/svg" version="1.1">
<title>OpenSCAD Model</title>
<path d="
M 17.9369,-248.089 L 18.5451,-248.245 L 19.1289,-248.476 L 19.6791,-248.778 L 20.1871,-249.147 L 20.6448,-249.577
 L 21.0451,-250.061 L 21.3815,-250.591 L 21.6489,-251.159 L 21.8429,-251.757 L 21.9606,-252.373 L 22,-253
 L 22,-287 L 21.9606,-287.627 L 21.8429,-288.243 L 21.6489,-288.841 L 21.3815,-289.409 L 21.0451,-289.939
 L 20.6448,-290.423 L 20.1871,-290.853 L 19.6791,-291.222 L 19.1289,-291.524 L 18.5451,-291.755 L 17.9369,-291.911
 L 17.3139,-291.99 L -17.3139,-291.99 L -17.9369,-291.911 L -18.5451,-291.755 L -19.1289,-291.524 L -19.6791,-291.222
 L -20.1871,-290.853 L -20.6448,-290.423 L -21.0451,-289.939 L -21.3815,-289.409 L -21.6489,-288.841 L -21.8429,-288.243
 L -21.9606,-287.627 L -22,-287 L -22,-253 L -21.9606,-252.373 L -21.8429,-251.757 L -21.6489,-251.159
 L -21.3815,-250.591 L -21.0451,-250.061 L -20.6448,-249.577 L -20.1871,-249.147 L -19.6791,-248.778 L -19.1289,-248.476
 L -18.5451,-248.245 L -17.9369,-248.089 L -17.3139,-248.01 L 17.3139,-248.01 z
M -15.3647,-249.203 L -16.0885,-249.294 L -16.7951,-249.475 L -17.4733,-249.744 L -18.1126,-250.095 L -18.7028,-250.524
 L -19.2345,-251.024 L -19.6995,-251.586 L -20.0904,-252.202 L -20.401,-252.862 L -20.6264,-253.555 L -20.7631,-254.272
 L -20.8089,-255 L -20.8089,-285 L -20.7631,-285.728 L -20.6264,-286.445 L -20.401,-287.138 L -20.0904,-287.798
 L -19.6995,-288.414 L -19.2345,-288.976 L -18.7028,-289.476 L -18.1126,-289.905 L -17.4733,-290.256 L -16.7951,-290.525
 L -16.0885,-290.706 L -15.3647,-290.797 L 15.3647,-290.797 L 16.0885,-290.706 L 16.7951,-290.525 L 17.4733,-290.256
 L 18.1126,-289.905 L 18.7028,-289.476 L 19.2345,-288.976 L 19.6995,-288.414 L 20.0904,-287.798 L 20.401,-287.138
 L 20.6264,-286.445 L 20.7631,-285.728 L 20.8089,-285 L 20.8089,-255 L 20.7631,-254.272 L 20.6264,-253.555
 L 20.401,-252.862 L 20.0904,-252.202 L 19.6995,-251.586 L 19.2345,-251.024 L 18.7028,-250.524 L 18.1126,-250.095
 L 17.4733,-249.744 L 16.7951,-249.475 L 16.0885,-249.294 L 15.3647,-249.203 z
M 17.9369,-194.089 L 18.5451,-194.245 L 19.1289,-194.476 L 19.6791,-194.778 L 20.1871,-195.147 L 20.6448,-195.577
 L 21.0451,-196.061 L 21.3815,-196.591 L 21.6489,-197.159 L 21.8429,-197.757 L 21.9606,-198.373 L 22,-199
 L 22,-233 L 21.9606,-233.627 L 21.8429,-234.243 L 21.6489,-234.841 L 21.3815,-235.409 L 21.0451,-235.939
 L 20.6448,-236.423 L 20.1871,-236.853 L 19.6791,-237.222 L 19.1289,-237.524 L 18.5451,-237.755 L 17.9369,-237.911
 L 17.3139,-237.99 L -17.3139,-237.99 L -17.9369,-237.911 L -18.5451,-237.755 L -19.1289,-237.524 L -19.6791,-237.222
 L -20.1871,-236.853 L -20.6448,-236.423 L -21.0451,-235.939 L -21.3815,-235.409 L -21.6489,-234.841 L -21.8429,-234.243
 L -21.9606,-233.627 L -22,-233 L -22,-199 L -21.9606,-198.373 L -21.8429,-197.757 L -21.6489,-197.159
 L -21.3815,-196.591 L -21.0451,-196.061 L -20.6448,-195.577 L -20.1871,-195.147 L -19.6791,-194.778 L -19.1289,-194.476
 L -18.5451,-194.245 L -17.9369,-194.089 L -17.3139,-194.01 L 17.3139,-194.01 z
M -15.2484,-197.052 L -15.7412,-197.114 L -16.2224,-197.238 L -16.6842,-197.421 L -17.1195,-197.66 L -17.5214,-197.952
 L -17.8835,-198.292 L -18.2001,-198.675 L -18.4663,-199.094 L -18.6778,-199.544 L -18.8313,-200.016 L -18.9244,-200.504
 L -18.9556,-201 L -18.9556,-231 L -18.9244,-231.496 L -18.8313,-231.984 L -18.6778,-232.456 L -18.4663,-232.906
 L -18.2001,-233.325 L -17.8835,-233.708 L -17.5214,-234.048 L -17.1195,-234.34 L -16.6842,-234.579 L -16.2224,-234.762
 L -15.7412,-234.886 L -15.2484,-234.948 L 15.2484,-234.948 L 15.7412,-234.886 L 16.2224,-234.762 L 16.6842,-234.579
 L 17.1195,-234.34 L 17.5214,-234.048 L 17.8835,-233.708 L 18.2001,-233.325 L 18.4663,-232.906 L 18.6778,-232.456
 L 18.8313,-231.984 L 18.9244,-231.496 L 18.9556,-231 L 18.9556,-201 L 18.9244,-200.504 L 18.8313,-200.016
 L 18.6778,-199.544 L 18.4663,-199.094 L 18.2001,-198.675 L 17.8835,-198.292 L 17.5214,-197.952 L 17.1195,-197.66
 L 16.6842,-197.421 L 16.2224,-197.238 L 15.7412,-197.114 L 15.2484,-197.052 z
M 17.9369,-140.089 L 18.5451,-140.245 L 19.1289,-140.476 L 19.6791,-140.778 L 20.1871,-141.147 L 20.6448,-141.577
 L 21.0451,-142.061 L 21.3815,-142.591 L 21.6489,-143.159 L 21.8429,-143.757 L 21.9606,-144.373 L 22,-145
 L 22,-179 L 21.9606,-179.627 L 21.8429,-180.243 L 21.6489,-180.841 L 21.3815,-181.409 L 21.0451,-181.939
 L 20.6448,-182.423 L 20.1871,-182.853 L 19.6791,-183.222 L 19.1289,-183.524 L 18.5451,-183.755 L 17.9369,-183.911
 L 17.3139,-183.99 L -17.3139,-183.99 L -17.9369,-183.911 L -18.5451,-183.755 L -19.1289,-183.524 L -19.6791,-183.222
 L -20.1871,-182.853 L -20.6448,-182.423 L -21.0451,-181.939 L -21.3815,-181.409 L -21.6489,-180.841 L -21.8429,-180.243
 L -21.9606,-179.627 L -22,-179 L -22,-145 L -21.9606,-144.373 L -21.8429,-143.757 L -21.6489,-143.159
 L -21.3815,-142.591 L -21.0451,-142.061 L -20.6448,-141.577 L -20.1871,-141.147 L -19.6791,-140.778 L -19.1289,-140.476
 L -18.5451,-140.245 L -17.9369,-140.089 L -17.3139,-140.01 L 17.3139,-140.01 z
M 14.8493,-174.605 L 14.5503,-174.643 L 14.2583,-174.717 L 13.9781,-174.828 L 13.714,-174.974 L 13.4702,-175.151
 L 13.2505,-175.357 L 13.0583,-175.589 L 12.8969,-175.844 L 12.7685,-176.117 L 12.6754,-176.403 L 12.6189,-176.699
 L 12.6,-177 L 12.6189,-177.301 L 12.6754,-177.597 L 12.7685,-177.883 L 12.8969,-178.156 L 13.0583,-178.411
 L 13.2505,-178.643 L 13.4702,-178.849 L 13.714,-179.026 L 13.9781,-179.172 L 14.2583,-179.283 L 14.5503,-179.357
 L 14.8493,-179.395 L 15.1507,-179.395 L 15.4497,-179.357 L 15.7416,-179.283 L 16.0219,-179.172 L 16.286,-179.026
 L 16.5298,-178.849 L 16.7495,-178.643 L 16.9416,-178.411 L 17.1031,-178.156 L 17.2315,-177.883 L 17.3246,-177.597
 L 17.3811,-177.301 L 17.4,-177 L 17.3811,-176.699 L 17.3246,-176.403 L 17.2315,-176.117 L 17.1031,-175.844
 L 16.9416,-175.589 L 16.7495,-175.357 L 16.5298,-175.151 L 16.286,-174.974 L 16.0219,-174.828 L 15.7416,-174.717
 L 15.4497,-174.643 L 15.1507,-174.605 z
M -15.1507,-174.605 L -15.4497,-174.643 L -15.7416,-174.717 L -16.0219,-174.828 L -16.286,-174.974 L -16.5298,-175.151
 L -16.7495,-175.357 L -16.9416,-175.589 L -17.1031,-175.844 L -17.2315,-176.117 L -17.3246,-176.403 L -17.3811,-176.699
 L -17.4,-177 L -17.3811,-177.301 L -17.3246,-177.597 L -17.2315,-177.883 L -17.1031,-178.156 L -16.9416,-178.411
 L -16.7495,-178.643 L -16.5298,-178.849 L -16.286,-179.026 L -16.0219,-179.172 L -15.7416,-179.283 L -15.4497,-179.357
 L -15.1507,-179.395 L -14.8493,-179.395 L -14.5503,-179.357 L -14.2583,-179.283 L -13.9781,-179.172 L -13.714,-179.026
 L -13.4702,-178.849 L -13.2505,-178.643 L -13.0583,-178.411 L -12.8969,-178.156 L -12.7685,-177.883 L -12.6754,-177.597
 L -12.6189,-177.301 L -12.6,-177 L -12.6189,-176.699 L -12.6754,-176.403 L -12.7685,-176.117 L -12.8969,-175.844
 L -13.0583,-175.589 L -13.2505,-175.357 L -13.4702,-175.151 L -13.714,-174.974 L -13.9781,-174.828 L -14.2583,-174.717
 L -14.5503,-174.643 L -14.8493,-174.605 z
M -15.1507,-144.605 L -15.4497,-144.643 L -15.7416,-144.717 L -16.0219,-144.828 L -16.286,-144.974 L -16.5298,-145.151
 L -16.7495,-145.357 L -16.9416,-145.589 L -17.1031,-145.844 L -17.2315,-146.117 L -17.3246,-146.403 L -17.3811,-146.699
 L -17.4,-147 L -17.3811,-147.301 L -17.3246,-147.597 L -17.2315,-147.883 L -17.1031,-148.156 L -16.9416,-148.411
 L -16.7495,-148.643 L -16.5298,-148.849 L -16.286,-149.026 L -16.0219,-149.172 L -15.7416,-149.283 L -15.4497,-149.357
 L -15.1507,-149.395 L -14.8493,-149.395 L -14.5503,-149.357 L -14.2583,-149.283 L -13.9781,-149.172 L -13.714,-149.026
 L -13.4702,-148.849 L -13.2505,-148.643 L -13.0583,-148.411 L -12.8969,-148.156 L -12.7685,-147.883 L -12.6754,-147.597
 L -12.6189,-147.301 L -12.6,-147 L -12.6189,-146.699 L -12.6754,-146.403 L -12.7685,-146.117 L -12.8969,-145.844
 L -13.0583,-145.589 L -13.2505,-145.357 L -13.4702,-145.151 L -13.714,-144.974 L -13.9781,-144.828 L -14.2583,-144.717
 L -14.5503,-144.643 L -14.8493,-144.605 z
M 14.8493,-144.605 L 14.5503,-144.643 L 14.2583,-144.717 L 13.9781,-144.828 L 13.714,-144.974 L 13.4702,-145.151
 L 13.2505,-145.357 L 13.0583,-145.589 L 12.8969,-145.844 L 12.7685,-146.117 L 12.6754,-146.403 L 12.6189,-146.699
 L 12.6,-147 L 12.6189,-147.301 L 12.6754,-147.597 L 12.7685,-147.883 L 12.8969,-148.156 L 13.0583,-148.411
 L 13.2505,-148.643 L 13.4702,-148.849 L 13.714,-149.026 L 13.9781,-149.172 L 14.2583,-149.283 L 14.5503,-149.357
 L 14.8493,-149.395 L 15.1507,-149.395 L 15.4497,-149.357 L 15.7416,-149.283 L 16.0219,-149.172 L 16.286,-149.026
 L 16.5298,-148.849 L 16.7495,-148.643 L 16.9416,-148.411 L 17.1031,-148.156 L 17.2315,-147.883 L 17.3246,-147.597
 L 17.3811,-147.301 L 17.4,-147 L 17.3811,-146.699 L 17.3246,-146.403 L 17.2315,-146.117 L 17.1031,-145.844
 L 16.9416,-145.589 L 16.7495,-145.357 L 16.5298,-145.151 L 16.286,-144.974 L 16.0219,-144.828 L 15.7416,-144.717
 L 15.4497,-144.643 L 15.1507,-144.605 z
" stroke="black" fill="lightgray" stroke-width="0.5"/>
</svg>
