<?xml version="1.0" standalone="no"?>
<!DOCTYPE svg PUBLIC "-//W3C//DTD SVG 1.1//EN" "http://www.w3.org/Graphics/SVG/1.1/DTD/svg11.dtd">
<svg width="16mm" height="207mm" viewBox="-9 -401 16 207" xmlns="http://www.w3.org/2000/svg" version="1.1">
<title>OpenSCAD Model</title>
<path d="
M -6,-358.007 L -5.64484,-357.577 L -5.18712,-357.147 L -4.67912,-356.778 L -4.12889,-356.476 L -3.54507,-356.245
 L -2.9369,-356.089 L -2.31395,-356.01 L 2.31395,-356.01 L 2.9369,-356.089 L 3.54507,-356.245 L 4.12889,-356.476
 L 4.67912,-356.778 L 5.18712,-357.147 L 5.64484,-357.577 L 6.04507,-358.061 L 6.38153,-358.591 L 6.64888,-359.159
 L 6.84291,-359.757 L 6.96057,-360.373 L 7,-361 L 7,-395 L 6.96057,-395.627 L 6.84291,-396.243
 L 6.64888,-396.841 L 6.38153,-397.409 L 6.04507,-397.939 L 5.64484,-398.423 L 5.18712,-398.853 L 4.67912,-399.222
 L 4.12889,-399.524 L 3.54507,-399.755 L 2.9369,-399.911 L 2.31395,-399.99 L -2.31395,-399.99 L -2.9369,-399.911
 L -3.54507,-399.755 L -4.12889,-399.524 L -4.67912,-399.222 L -5.18712,-398.853 L -5.64484,-398.423 L -6,-397.993
 L -6,-400.49 L -9,-400.49 L -9,-355.51 L -6,-355.51 z
M -2.25116,-357.008 L -2.74951,-357.071 L -3.23605,-357.196 L -3.70311,-357.381 L -4.1433,-357.623 L -4.54968,-357.918
 L -4.91586,-358.262 L -5.23605,-358.649 L -5.50522,-359.073 L -5.7191,-359.528 L -5.87433,-360.005 L -5.96844,-360.499
 L -6,-361 L -6,-395 L -5.96844,-395.501 L -5.87433,-395.995 L -5.7191,-396.472 L -5.50522,-396.927
 L -5.23605,-397.351 L -4.91586,-397.738 L -4.54968,-398.082 L -4.1433,-398.377 L -3.70311,-398.619 L -3.23605,-398.804
 L -2.74951,-398.929 L -2.25116,-398.992 L 2.25116,-398.992 L 2.74951,-398.929 L 3.23605,-398.804 L 3.70311,-398.619
 L 4.1433,-398.377 L 4.54968,-398.082 L 4.91586,-397.738 L 5.23605,-397.351 L 5.50522,-396.927 L 5.7191,-396.472
 L 5.87433,-395.995 L 5.96844,-395.501 L 6,-395 L 6,-361 L 5.96844,-360.499 L 5.87433,-360.005
 L 5.7191,-359.528 L 5.50522,-359.073 L 5.23605,-358.649 L 4.91586,-358.262 L 4.54968,-357.918 L 4.1433,-357.623
 L 3.70311,-357.381 L 3.23605,-357.196 L 2.74951,-357.071 L 2.25116,-357.008 z
M -6,-304.007 L -5.64484,-303.577 L -5.18712,-303.147 L -4.67912,-302.778 L -4.12889,-302.476 L -3.54507,-302.245
 L -2.9369,-302.089 L -2.31395,-302.01 L 2.31395,-302.01 L 2.9369,-302.089 L 3.54507,-302.245 L 4.12889,-302.476
 L 4.67912,-302.778 L 5.18712,-303.147 L 5.64484,-303.577 L 6.04507,-304.061 L 6.38153,-304.591 L 6.64888,-305.159
 L 6.84291,-305.757 L 6.96057,-306.373 L 7,-307 L 7,-341 L 6.96057,-341.627 L 6.84291,-342.243
 L 6.64888,-342.841 L 6.38153,-343.409 L 6.04507,-343.939 L 5.64484,-344.423 L 5.18712,-344.853 L 4.67912,-345.222
 L 4.12889,-345.524 L 3.54507,-345.755 L 2.9369,-345.911 L 2.31395,-345.99 L -2.31395,-345.99 L -2.9369,-345.911
 L -3.54507,-345.755 L -4.12889,-345.524 L -4.67912,-345.222 L -5.18712,-344.853 L -5.64484,-344.423 L -6,-343.993
 L -6,-346.49 L -9,-346.49 L -9,-301.51 L -6,-301.51 z
M -2.25116,-303.008 L -2.74951,-303.071 L -3.23605,-303.196 L -3.70311,-303.381 L -4.1433,-303.623 L -4.54968,-303.918
 L -4.91586,-304.262 L -5.23605,-304.649 L -5.50522,-305.073 L -5.7191,-305.528 L -5.87433,-306.005 L -5.96844,-306.499
 L -6,-307 L -6,-341 L -5.96844,-341.501 L -5.87433,-341.995 L -5.7191,-342.472 L -5.50522,-342.927
 L -5.23605,-343.351 L -4.91586,-343.738 L -4.54968,-344.082 L -4.1433,-344.377 L -3.70311,-344.619 L -3.23605,-344.804
 L -2.74951,-344.929 L -2.25116,-344.992 L 2.25116,-344.992 L 2.74951,-344.929 L 3.23605,-344.804 L 3.70311,-344.619
 L 4.1433,-344.377 L 4.54968,-344.082 L 4.91586,-343.738 L 5.23605,-343.351 L 5.50522,-342.927 L 5.7191,-342.472
 L 5.87433,-341.995 L 5.96844,-341.501 L 6,-341 L 6,-307 L 5.96844,-306.499 L 5.87433,-306.005
 L 5.7191,-305.528 L 5.50522,-305.073 L 5.23605,-304.649 L 4.91586,-304.262 L 4.54968,-303.918 L 4.1433,-303.623
 L 3.70311,-303.381 L 3.23605,-303.196 L 2.74951,-303.071 L 2.25116,-303.008 z
M -6,-250.007 L -5.64484,-249.577 L -5.18712,-249.147 L -4.67912,-248.778 L -4.12889,-248.476 L -3.54507,-248.245
 L -2.9369,-248.089 L -2.31395,-248.01 L 2.31395,-248.01 L 2.9369,-248.089 L 3.54507,-248.245 L 4.12889,-248.476
 L 4.67912,-248.778 L 5.18712,-249.147 L 5.64484,-249.577 L 6.04507,-250.061 L 6.38153,-250.591 L 6.64888,-251.159
 L 6.84291,-251.757 L 6.96057,-252.373 L 7,-253 L 7,-287 L 6.96057,-287.627 L 6.84291,-288.243
 L 6.64888,-288.841 L 6.38153,-289.409 L 6.04507,-289.939 L 5.64484,-290.423 L 5.18712,-290.853 L 4.67912,-291.222
 L 4.12889,-291.524 L 3.54507,-291.755 L 2.9369,-291.911 L 2.31395,-291.99 L -2.31395,-291.99 L -2.9369,-291.911
 L -3.54507,-291.755 L -4.12889,-291.524 L -4.67912,-291.222 L -5.18712,-290.853 L -5.64484,-290.423 L -6,-289.993
 L -6,-292.479 L -9,-292.479 L -9,-247.521 L -6,-247.521 z
M -2.19545,-249.893 L -2.5833,-249.942 L -2.96194,-250.039 L -3.32541,-250.183 L -3.66798,-250.372 L -3.98424,-250.601
 L -4.26921,-250.869 L -4.5184,-251.17 L -4.72786,-251.5 L -4.89432,-251.854 L -5.01512,-252.226 L -5.08836,-252.61
 L -5.11292,-253 L -5.11292,-287 L -5.08836,-287.39 L -5.01512,-287.774 L -4.89432,-288.146 L -4.72786,-288.5
 L -4.5184,-288.83 L -4.26921,-289.131 L -3.98424,-289.399 L -3.66798,-289.628 L -3.32541,-289.817 L -2.96194,-289.961
 L -2.5833,-290.058 L -2.19545,-290.107 L 2.19545,-290.107 L 2.5833,-290.058 L 2.96194,-289.961 L 3.32541,-289.817
 L 3.66798,-289.628 L 3.98424,-289.399 L 4.26921,-289.131 L 4.5184,-288.83 L 4.72786,-288.5 L 4.89432,-288.146
 L 5.01512,-287.774 L 5.08836,-287.39 L 5.11292,-287 L 5.11292,-253 L 5.08836,-252.61 L 5.01512,-252.226
 L 4.89432,-251.854 L 4.72786,-251.5 L 4.5184,-251.17 L 4.26921,-250.869 L 3.98424,-250.601 L 3.66798,-250.372
 L 3.32541,-250.183 L 2.96194,-250.039 L 2.5833,-249.942 L 2.19545,-249.893 z
M 2.9369,-194.089 L 3.54507,-194.245 L 4.12889,-194.476 L 4.67912,-194.778 L 5.18712,-195.147 L 5.64484,-195.577
 L 6.04507,-196.061 L 6.38153,-196.591 L 6.64888,-197.159 L 6.84291,-197.757 L 6.96057,-198.373 L 7,-199
 L 7,-233 L 6.96057,-233.627 L 6.84291,-234.243 L 6.64888,-234.841 L 6.38153,-235.409 L 6.04507,-235.939
 L 5.64484,-236.423 L 5.18712,-236.853 L 4.67912,-237.222 L 4.12889,-237.524 L 3.54507,-237.755 L 2.9369,-237.911
 L 2.31395,-237.99 L -2.31395,-237.99 L -2.9369,-237.911 L -3.54507,-237.755 L -4.12889,-237.524 L -4.67912,-237.222
 L -5.18712,-236.853 L -5.64484,-236.423 L -6,-235.993 L -6,-237.153 L -9,-237.153 L -9,-194.847
 L -6,-194.847 L -6,-196.007 L -5.64484,-195.577 L -5.18712,-195.147 L -4.67912,-194.778 L -4.12889,-194.476
 L -3.54507,-194.245 L -2.9369,-194.089 L -2.31395,-194.01 L 2.31395,-194.01 z
M -0.150696,-228.605 L -0.449707,-228.643 L -0.741638,-228.717 L -1.02187,-228.828 L -1.28598,-228.974 L -1.52982,-229.151
 L -1.74951,-229.357 L -1.94164,-229.589 L -2.10313,-229.844 L -2.23146,-230.117 L -2.32458,-230.403 L -2.38107,-230.699
 L -2.39999,-231 L -2.38107,-231.301 L -2.32458,-231.597 L -2.23146,-231.883 L -2.10313,-232.156 L -1.94164,-232.411
 L -1.74951,-232.643 L -1.52982,-232.849 L -1.28598,-233.026 L -1.02187,-233.172 L -0.741638,-233.283 L -0.449707,-233.357
 L -0.150696,-233.395 L 0.150696,-233.395 L 0.449707,-233.357 L 0.741638,-233.283 L 1.02187,-233.172 L 1.28598,-233.026
 L 1.52982,-232.849 L 1.74951,-232.643 L 1.94164,-232.411 L 2.10313,-232.156 L 2.23146,-231.883 L 2.32458,-231.597
 L 2.38107,-231.301 L 2.39999,-231 L 2.38107,-230.699 L 2.32458,-230.403 L 2.23146,-230.117 L 2.10313,-229.844
 L 1.94164,-229.589 L 1.74951,-229.357 L 1.52982,-229.151 L 1.28598,-228.974 L 1.02187,-228.828 L 0.741638,-228.717
 L 0.449707,-228.643 L 0.150696,-228.605 z
M -0.150696,-198.605 L -0.449707,-198.643 L -0.741638,-198.717 L -1.02187,-198.828 L -1.28598,-198.974 L -1.52982,-199.151
 L -1.74951,-199.357 L -1.94164,-199.589 L -2.10313,-199.844 L -2.23146,-200.117 L -2.32458,-200.403 L -2.38107,-200.699
 L -2.39999,-201 L -2.38107,-201.301 L -2.32458,-201.597 L -2.23146,-201.883 L -2.10313,-202.156 L -1.94164,-202.411
 L -1.74951,-202.643 L -1.52982,-202.849 L -1.28598,-203.026 L -1.02187,-203.172 L -0.741638,-203.283 L -0.449707,-203.357
 L -0.150696,-203.395 L 0.150696,-203.395 L 0.449707,-203.357 L 0.741638,-203.283 L 1.02187,-203.172 L 1.28598,-203.026
 L 1.52982,-202.849 L 1.74951,-202.643 L 1.94164,-202.411 L 2.10313,-202.156 L 2.23146,-201.883 L 2.32458,-201.597
 L 2.38107,-201.301 L 2.39999,-201 L 2.38107,-200.699 L 2.32458,-200.403 L 2.23146,-200.117 L 2.10313,-199.844
 L 1.94164,-199.589 L 1.74951,-199.357 L 1.52982,-199.151 L 1.28598,-198.974 L 1.02187,-198.828 L 0.741638,-198.717
 L 0.449707,-198.643 L 0.150696,-198.605 z
" stroke="black" fill="lightgray" stroke-width="0.5"/>
</svg>
