<?xml version="1.0" standalone="no"?>
<!DOCTYPE svg PUBLIC "-//W3C//DTD SVG 1.1//EN" "http://www.w3.org/Graphics/SVG/1.1/DTD/svg11.dtd">
<svg width="38mm" height="198mm" viewBox="-19 -306 38 198" xmlns="http://www.w3.org/2000/svg" version="1.1">
<title>OpenSCAD Model</title>
<path d="
M 14.6869,-246.089 L 15.2951,-246.245 L 15.8789,-246.476 L 16.4291,-246.778 L 16.9371,-247.147 L 17.3948,-247.577
 L 17.7951,-248.061 L 18.1315,-248.591 L 18.3989,-249.159 L 18.5929,-249.757 L 18.7106,-250.373 L 18.75,-251
 L 18.75,-301 L 18.7106,-301.627 L 18.5929,-302.243 L 18.3989,-302.841 L 18.1315,-303.409 L 17.7951,-303.939
 L 17.3948,-304.423 L 16.9371,-304.853 L 16.4291,-305.222 L 15.8789,-305.524 L 15.2951,-305.755 L 14.6869,-305.911
 L 14.0639,-305.99 L -14.0639,-305.99 L -14.6869,-305.911 L -15.2951,-305.755 L -15.8789,-305.524 L -16.4291,-305.222
 L -16.9371,-304.853 L -17.3948,-304.423 L -17.7951,-303.939 L -18.1315,-303.409 L -18.3989,-302.841 L -18.5929,-302.243
 L -18.7106,-301.627 L -18.75,-301 L -18.75,-251 L -18.7106,-250.373 L -18.5929,-249.757 L -18.3989,-249.159
 L -18.1315,-248.591 L -17.7951,-248.061 L -17.3948,-247.577 L -16.9371,-247.147 L -16.4291,-246.778 L -15.8789,-246.476
 L -15.2951,-246.245 L -14.6869,-246.089 L -14.0639,-246.01 L 14.0639,-246.01 z
M -13.7982,-246.509 L -14.3901,-246.584 L -14.9678,-246.732 L -15.5224,-246.952 L -16.0452,-247.239 L -16.5278,-247.59
 L -16.9626,-247.998 L -17.3428,-248.458 L -17.6624,-248.962 L -17.9164,-249.501 L -18.1008,-250.069 L -18.2125,-250.655
 L -18.25,-251.25 L -18.25,-300.75 L -18.2125,-301.345 L -18.1008,-301.931 L -17.9164,-302.499 L -17.6624,-303.038
 L -17.3428,-303.542 L -16.9626,-304.002 L -16.5278,-304.41 L -16.0452,-304.761 L -15.5224,-305.048 L -14.9678,-305.268
 L -14.3901,-305.416 L -13.7982,-305.491 L 13.7982,-305.491 L 14.3901,-305.416 L 14.9678,-305.268 L 15.5224,-305.048
 L 16.0452,-304.761 L 16.5278,-304.41 L 16.9626,-304.002 L 17.3428,-303.542 L 17.6624,-303.038 L 17.9164,-302.499
 L 18.1008,-301.931 L 18.2125,-301.345 L 18.25,-300.75 L 18.25,-251.25 L 18.2125,-250.655 L 18.1008,-250.069
 L 17.9164,-249.501 L 17.6624,-248.962 L 17.3428,-248.458 L 16.9626,-247.998 L 16.5278,-247.59 L 16.0452,-247.239
 L 15.5224,-246.952 L 14.9678,-246.732 L 14.3901,-246.584 L 13.7982,-246.509 z
M 14.6869,-177.089 L 15.2951,-177.245 L 15.8789,-177.476 L 16.4291,-177.778 L 16.9371,-178.147 L 17.3948,-178.577
 L 17.7951,-179.061 L 18.1315,-179.591 L 18.3989,-180.159 L 18.5929,-180.757 L 18.7106,-181.373 L 18.75,-182
 L 18.75,-232 L 18.7106,-232.627 L 18.5929,-233.243 L 18.3989,-233.841 L 18.1315,-234.409 L 17.7951,-234.939
 L 17.3948,-235.423 L 16.9371,-235.853 L 16.4291,-236.222 L 15.8789,-236.524 L 15.2951,-236.755 L 14.6869,-236.911
 L 14.0639,-236.99 L -14.0639,-236.99 L -14.6869,-236.911 L -15.2951,-236.755 L -15.8789,-236.524 L -16.4291,-236.222
 L -16.9371,-235.853 L -17.3948,-235.423 L -17.7951,-234.939 L -18.1315,-234.409 L -18.3989,-233.841 L -18.5929,-233.243
 L -18.7106,-232.627 L -18.75,-232 L -18.75,-182 L -18.7106,-181.373 L -18.5929,-180.757 L -18.3989,-180.159
 L -18.1315,-179.591 L -17.7951,-179.061 L -17.3948,-178.577 L -16.9371,-178.147 L -16.4291,-177.778 L -15.8789,-177.476
 L -15.2951,-177.245 L -14.6869,-177.089 L -14.0639,-177.01 L 14.0639,-177.01 z
M -13.743,-178.388 L -14.2251,-178.449 L -14.6957,-178.57 L -15.1475,-178.749 L -15.5734,-178.983 L -15.9665,-179.269
 L -16.3207,-179.601 L -16.6305,-179.976 L -16.8908,-180.386 L -17.0977,-180.826 L -17.2479,-181.288 L -17.339,-181.765
 L -17.3695,-182.25 L -17.3695,-231.75 L -17.339,-232.235 L -17.2479,-232.712 L -17.0977,-233.174 L -16.8908,-233.614
 L -16.6305,-234.024 L -16.3207,-234.399 L -15.9665,-234.731 L -15.5734,-235.017 L -15.1475,-235.251 L -14.6957,-235.43
 L -14.2251,-235.551 L -13.743,-235.612 L 13.743,-235.612 L 14.2251,-235.551 L 14.6957,-235.43 L 15.1475,-235.251
 L 15.5734,-235.017 L 15.9665,-234.731 L 16.3207,-234.399 L 16.6305,-234.024 L 16.8908,-233.614 L 17.0977,-233.174
 L 17.2479,-232.712 L 17.339,-232.235 L 17.3695,-231.75 L 17.3695,-182.25 L 17.339,-181.765 L 17.2479,-181.288
 L 17.0977,-180.826 L 16.8908,-180.386 L 16.6305,-179.976 L 16.3207,-179.601 L 15.9665,-179.269 L 15.5734,-178.983
 L 15.1475,-178.749 L 14.6957,-178.57 L 14.2251,-178.449 L 13.743,-178.388 z
M 14.6869,-108.089 L 15.2951,-108.245 L 15.8789,-108.476 L 16.4291,-108.778 L 16.9371,-109.147 L 17.3948,-109.577
 L 17.7951,-110.061 L 18.1315,-110.591 L 18.3989,-111.159 L 18.5929,-111.757 L 18.7106,-112.373 L 18.75,-113
 L 18.75,-163 L 18.7106,-163.627 L 18.5929,-164.243 L 18.3989,-164.841 L 18.1315,-165.409 L 17.7951,-165.939
 L 17.3948,-166.423 L 16.9371,-166.853 L 16.4291,-167.222 L 15.8789,-167.524 L 15.2951,-167.755 L 14.6869,-167.911
 L 14.0639,-167.99 L -14.0639,-167.99 L -14.6869,-167.911 L -15.2951,-167.755 L -15.8789,-167.524 L -16.4291,-167.222
 L -16.9371,-166.853 L -17.3948,-166.423 L -17.7951,-165.939 L -18.1315,-165.409 L -18.3989,-164.841 L -18.5929,-164.243
 L -18.7106,-163.627 L -18.75,-163 L -18.75,-113 L -18.7106,-112.373 L -18.5929,-111.757 L -18.3989,-111.159
 L -18.1315,-110.591 L -17.7951,-110.061 L -17.3948,-109.577 L -16.9371,-109.147 L -16.4291,-108.778 L -15.8789,-108.476
 L -15.2951,-108.245 L -14.6869,-108.089 L -14.0639,-108.01 L 14.0639,-108.01 z
M 11.1558,-159.003 L 10.9689,-159.027 L 10.7865,-159.073 L 10.6113,-159.143 L 10.4463,-159.234 L 10.2939,-159.344
 L 10.1565,-159.473 L 10.0365,-159.618 L 9.93553,-159.777 L 9.85533,-159.948 L 9.79712,-160.127 L 9.76183,-160.312
 L 9.75,-160.5 L 9.76183,-160.688 L 9.79712,-160.873 L 9.85533,-161.052 L 9.93553,-161.223 L 10.0365,-161.382
 L 10.1565,-161.527 L 10.2939,-161.656 L 10.4463,-161.766 L 10.6113,-161.857 L 10.7865,-161.927 L 10.9689,-161.973
 L 11.1558,-161.997 L 11.3442,-161.997 L 11.5311,-161.973 L 11.7135,-161.927 L 11.8887,-161.857 L 12.0537,-161.766
 L 12.2061,-161.656 L 12.3434,-161.527 L 12.4635,-161.382 L 12.5645,-161.223 L 12.6447,-161.052 L 12.7029,-160.873
 L 12.7382,-160.688 L 12.75,-160.5 L 12.7382,-160.312 L 12.7029,-160.127 L 12.6447,-159.948 L 12.5645,-159.777
 L 12.4635,-159.618 L 12.3434,-159.473 L 12.2061,-159.344 L 12.0537,-159.234 L 11.8887,-159.143 L 11.7135,-159.073
 L 11.5311,-159.027 L 11.3442,-159.003 z
M -11.3442,-159.003 L -11.5311,-159.027 L -11.7135,-159.073 L -11.8887,-159.143 L -12.0537,-159.234 L -12.2061,-159.344
 L -12.3434,-159.473 L -12.4635,-159.618 L -12.5645,-159.777 L -12.6447,-159.948 L -12.7029,-160.127 L -12.7382,-160.312
 L -12.75,-160.5 L -12.7382,-160.688 L -12.7029,-160.873 L -12.6447,-161.052 L -12.5645,-161.223 L -12.4635,-161.382
 L -12.3434,-161.527 L -12.2061,-161.656 L -12.0537,-161.766 L -11.8887,-161.857 L -11.7135,-161.927 L -11.5311,-161.973
 L -11.3442,-161.997 L -11.1558,-161.997 L -10.9689,-161.973 L -10.7865,-161.927 L -10.6113,-161.857 L -10.4463,-161.766
 L -10.2939,-161.656 L -10.1565,-161.527 L -10.0365,-161.382 L -9.93553,-161.223 L -9.85533,-161.052 L -9.79712,-160.873
 L -9.76183,-160.688 L -9.75,-160.5 L -9.76183,-160.312 L -9.79712,-160.127 L -9.85533,-159.948 L -9.93553,-159.777
 L -10.0365,-159.618 L -10.1565,-159.473 L -10.2939,-159.344 L -10.4463,-159.234 L -10.6113,-159.143 L -10.7865,-159.073
 L -10.9689,-159.027 L -11.1558,-159.003 z
M 11.1558,-114.003 L 10.9689,-114.027 L 10.7865,-114.073 L 10.6113,-114.143 L 10.4463,-114.234 L 10.2939,-114.344
 L 10.1565,-114.473 L 10.0365,-114.618 L 9.93553,-114.777 L 9.85533,-114.948 L 9.79712,-115.127 L 9.76183,-115.312
 L 9.75,-115.5 L 9.76183,-115.688 L 9.79712,-115.873 L 9.85533,-116.052 L 9.93553,-116.223 L 10.0365,-116.382
 L 10.1565,-116.527 L 10.2939,-116.656 L 10.4463,-116.766 L 10.6113,-116.857 L 10.7865,-116.927 L 10.9689,-116.973
 L 11.1558,-116.997 L 11.3442,-116.997 L 11.5311,-116.973 L 11.7135,-116.927 L 11.8887,-116.857 L 12.0537,-116.766
 L 12.2061,-116.656 L 12.3434,-116.527 L 12.4635,-116.382 L 12.5645,-116.223 L 12.6447,-116.052 L 12.7029,-115.873
 L 12.7382,-115.688 L 12.75,-115.5 L 12.7382,-115.312 L 12.7029,-115.127 L 12.6447,-114.948 L 12.5645,-114.777
 L 12.4635,-114.618 L 12.3434,-114.473 L 12.2061,-114.344 L 12.0537,-114.234 L 11.8887,-114.143 L 11.7135,-114.073
 L 11.5311,-114.027 L 11.3442,-114.003 z
M -11.3442,-114.003 L -11.5311,-114.027 L -11.7135,-114.073 L -11.8887,-114.143 L -12.0537,-114.234 L -12.2061,-114.344
 L -12.3434,-114.473 L -12.4635,-114.618 L -12.5645,-114.777 L -12.6447,-114.948 L -12.7029,-115.127 L -12.7382,-115.312
 L -12.75,-115.5 L -12.7382,-115.688 L -12.7029,-115.873 L -12.6447,-116.052 L -12.5645,-116.223 L -12.4635,-116.382
 L -12.3434,-116.527 L -12.2061,-116.656 L -12.0537,-116.766 L -11.8887,-116.857 L -11.7135,-116.927 L -11.5311,-116.973
 L -11.3442,-116.997 L -11.1558,-116.997 L -10.9689,-116.973 L -10.7865,-116.927 L -10.6113,-116.857 L -10.4463,-116.766
 L -10.2939,-116.656 L -10.1565,-116.527 L -10.0365,-116.382 L -9.93553,-116.223 L -9.85533,-116.052 L -9.79712,-115.873
 L -9.76183,-115.688 L -9.75,-115.5 L -9.76183,-115.312 L -9.79712,-115.127 L -9.85533,-114.948 L -9.93553,-114.777
 L -10.0365,-114.618 L -10.1565,-114.473 L -10.2939,-114.344 L -10.4463,-114.234 L -10.6113,-114.143 L -10.7865,-114.073
 L -10.9689,-114.027 L -11.1558,-114.003 z
" stroke="black" fill="lightgray" stroke-width="0.5"/>
</svg>
