<?xml version="1.0" standalone="no"?>
<!DOCTYPE svg PUBLIC "-//W3C//DTD SVG 1.1//EN" "http://www.w3.org/Graphics/SVG/1.1/DTD/svg11.dtd">
<svg width="46mm" height="261mm" viewBox="-24 -455 46 261" xmlns="http://www.w3.org/2000/svg" version="1.1">
<title>OpenSCAD Model</title>
<path d="
M -21,-412.007 L -20.6448,-411.577 L -20.1871,-411.147 L -19.6791,-410.778 L -19.1289,-410.476 L -18.5451,-410.245
 L -17.9369,-410.089 L -17.3139,-410.01 L 17.3139,-410.01 L 17.9369,-410.089 L 18.5451,-410.245 L 19.1289,-410.476
 L 19.6791,-410.778 L 20.1871,-411.147 L 20.6448,-411.577 L 21.0451,-412.061 L 21.3815,-412.591 L 21.6489,-413.159
 L 21.8429,-413.757 L 21.9606,-414.373 L 22,-415 L 22,-449 L 21.9606,-449.627 L 21.8429,-450.243
 L 21.6489,-450.841 L 21.3815,-451.409 L 21.0451,-451.939 L 20.6448,-452.423 L 20.1871,-452.853 L 19.6791,-453.222
 L 19.1289,-453.524 L 18.5451,-453.755 L 17.9369,-453.911 L 17.3139,-453.99 L -17.3139,-453.99 L -17.9369,-453.911
 L -18.5451,-453.755 L -19.1289,-453.524 L -19.6791,-453.222 L -20.1871,-452.853 L -20.6448,-452.423 L -21,-451.993
 L -21,-454.49 L -24,-454.49 L -24,-409.51 L -21,-409.51 z
M -17.2512,-411.008 L -17.7495,-411.071 L -18.2361,-411.196 L -18.7031,-411.381 L -19.1433,-411.623 L -19.5497,-411.918
 L -19.9159,-412.262 L -20.2361,-412.649 L -20.5052,-413.073 L -20.7191,-413.528 L -20.8743,-414.005 L -20.9684,-414.499
 L -21,-415 L -21,-449 L -20.9684,-449.501 L -20.8743,-449.995 L -20.7191,-450.472 L -20.5052,-450.927
 L -20.2361,-451.351 L -19.9159,-451.738 L -19.5497,-452.082 L -19.1433,-452.377 L -18.7031,-452.619 L -18.2361,-452.804
 L -17.7495,-452.929 L -17.2512,-452.992 L 17.2512,-452.992 L 17.7495,-452.929 L 18.2361,-452.804 L 18.7031,-452.619
 L 19.1433,-452.377 L 19.5497,-452.082 L 19.9159,-451.738 L 20.2361,-451.351 L 20.5052,-450.927 L 20.7191,-450.472
 L 20.8743,-449.995 L 20.9684,-449.501 L 21,-449 L 21,-415 L 20.9684,-414.499 L 20.8743,-414.005
 L 20.7191,-413.528 L 20.5052,-413.073 L 20.2361,-412.649 L 19.9159,-412.262 L 19.5497,-411.918 L 19.1433,-411.623
 L 18.7031,-411.381 L 18.2361,-411.196 L 17.7495,-411.071 L 17.2512,-411.008 z
M -21,-358.007 L -20.6448,-357.577 L -20.1871,-357.147 L -19.6791,-356.778 L -19.1289,-356.476 L -18.5451,-356.245
 L -17.9369,-356.089 L -17.3139,-356.01 L 17.3139,-356.01 L 17.9369,-356.089 L 18.5451,-356.245 L 19.1289,-356.476
 L 19.6791,-356.778 L 20.1871,-357.147 L 20.6448,-357.577 L 21.0451,-358.061 L 21.3815,-358.591 L 21.6489,-359.159
 L 21.8429,-359.757 L 21.9606,-360.373 L 22,-361 L 22,-395 L 21.9606,-395.627 L 21.8429,-396.243
 L 21.6489,-396.841 L 21.3815,-397.409 L 21.0451,-397.939 L 20.6448,-398.423 L 20.1871,-398.853 L 19.6791,-399.222
 L 19.1289,-399.524 L 18.5451,-399.755 L 17.9369,-399.911 L 17.3139,-399.99 L -17.3139,-399.99 L -17.9369,-399.911
 L -18.5451,-399.755 L -19.1289,-399.524 L -19.6791,-399.222 L -20.1871,-398.853 L -20.6448,-398.423 L -21,-397.993
 L -21,-400.49 L -24,-400.49 L -24,-355.51 L -21,-355.51 z
M -17.2512,-357.008 L -17.7495,-357.071 L -18.2361,-357.196 L -18.7031,-357.381 L -19.1433,-357.623 L -19.5497,-357.918
 L -19.9159,-358.262 L -20.2361,-358.649 L -20.5052,-359.073 L -20.7191,-359.528 L -20.8743,-360.005 L -20.9684,-360.499
 L -21,-361 L -21,-395 L -20.9684,-395.501 L -20.8743,-395.995 L -20.7191,-396.472 L -20.5052,-396.927
 L -20.2361,-397.351 L -19.9159,-397.738 L -19.5497,-398.082 L -19.1433,-398.377 L -18.7031,-398.619 L -18.2361,-398.804
 L -17.7495,-398.929 L -17.2512,-398.992 L 17.2512,-398.992 L 17.7495,-398.929 L 18.2361,-398.804 L 18.7031,-398.619
 L 19.1433,-398.377 L 19.5497,-398.082 L 19.9159,-397.738 L 20.2361,-397.351 L 20.5052,-396.927 L 20.7191,-396.472
 L 20.8743,-395.995 L 20.9684,-395.501 L 21,-395 L 21,-361 L 20.9684,-360.499 L 20.8743,-360.005
 L 20.7191,-359.528 L 20.5052,-359.073 L 20.2361,-358.649 L 19.9159,-358.262 L 19.5497,-357.918 L 19.1433,-357.623
 L 18.7031,-357.381 L 18.2361,-357.196 L 17.7495,-357.071 L 17.2512,-357.008 z
M -21,-304.007 L -20.6448,-303.577 L -20.1871,-303.147 L -19.6791,-302.778 L -19.1289,-302.476 L -18.5451,-302.245
 L -17.9369,-302.089 L -17.3139,-302.01 L 17.3139,-302.01 L 17.9369,-302.089 L 18.5451,-302.245 L 19.1289,-302.476
 L 19.6791,-302.778 L 20.1871,-303.147 L 20.6448,-303.577 L 21.0451,-304.061 L 21.3815,-304.591 L 21.6489,-305.159
 L 21.8429,-305.757 L 21.9606,-306.373 L 22,-307 L 22,-341 L 21.9606,-341.627 L 21.8429,-342.243
 L 21.6489,-342.841 L 21.3815,-343.409 L 21.0451,-343.939 L 20.6448,-344.423 L 20.1871,-344.853 L 19.6791,-345.222
 L 19.1289,-345.524 L 18.5451,-345.755 L 17.9369,-345.911 L 17.3139,-345.99 L -17.3139,-345.99 L -17.9369,-345.911
 L -18.5451,-345.755 L -19.1289,-345.524 L -19.6791,-345.222 L -20.1871,-344.853 L -20.6448,-344.423 L -21,-343.993
 L -21,-346.49 L -24,-346.49 L -24,-301.51 L -21,-301.51 z
M -17.2432,-303.135 L -17.7256,-303.196 L -18.1967,-303.317 L -18.6489,-303.496 L -19.0751,-303.73 L -19.4685,-304.016
 L -19.823,-304.349 L -20.133,-304.724 L -20.3936,-305.134 L -20.6007,-305.574 L -20.751,-306.037 L -20.8421,-306.515
 L -20.8726,-307 L -20.8726,-341 L -20.8421,-341.485 L -20.751,-341.963 L -20.6007,-342.426 L -20.3936,-342.866
 L -20.133,-343.276 L -19.823,-343.651 L -19.4685,-343.984 L -19.0751,-344.27 L -18.6489,-344.504 L -18.1967,-344.683
 L -17.7256,-344.804 L -17.2432,-344.865 L 17.2432,-344.865 L 17.7256,-344.804 L 18.1967,-344.683 L 18.6489,-344.504
 L 19.0751,-344.27 L 19.4685,-343.984 L 19.823,-343.651 L 20.133,-343.276 L 20.3936,-342.866 L 20.6007,-342.426
 L 20.751,-341.963 L 20.8421,-341.485 L 20.8726,-341 L 20.8726,-307 L 20.8421,-306.515 L 20.751,-306.037
 L 20.6007,-305.574 L 20.3936,-305.134 L 20.133,-304.724 L 19.823,-304.349 L 19.4685,-304.016 L 19.0751,-303.73
 L 18.6489,-303.496 L 18.1967,-303.317 L 17.7256,-303.196 L 17.2432,-303.135 z
M -21,-250.007 L -20.6448,-249.577 L -20.1871,-249.147 L -19.6791,-248.778 L -19.1289,-248.476 L -18.5451,-248.245
 L -17.9369,-248.089 L -17.3139,-248.01 L 17.3139,-248.01 L 17.9369,-248.089 L 18.5451,-248.245 L 19.1289,-248.476
 L 19.6791,-248.778 L 20.1871,-249.147 L 20.6448,-249.577 L 21.0451,-250.061 L 21.3815,-250.591 L 21.6489,-251.159
 L 21.8429,-251.757 L 21.9606,-252.373 L 22,-253 L 22,-287 L 21.9606,-287.627 L 21.8429,-288.243
 L 21.6489,-288.841 L 21.3815,-289.409 L 21.0451,-289.939 L 20.6448,-290.423 L 20.1871,-290.853 L 19.6791,-291.222
 L 19.1289,-291.524 L 18.5451,-291.755 L 17.9369,-291.911 L 17.3139,-291.99 L -17.3139,-291.99 L -17.9369,-291.911
 L -18.5451,-291.755 L -19.1289,-291.524 L -19.6791,-291.222 L -20.1871,-290.853 L -20.6448,-290.423 L -21,-289.993
 L -21,-292.115 L -24,-292.115 L -24,-247.885 L -21,-247.885 z
M 17.9369,-194.089 L 18.5451,-194.245 L 19.1289,-194.476 L 19.6791,-194.778 L 20.1871,-195.147 L 20.6448,-195.577
 L 21.0451,-196.061 L 21.3815,-196.591 L 21.6489,-197.159 L 21.8429,-197.757 L 21.9606,-198.373 L 22,-199
 L 22,-233 L 21.9606,-233.627 L 21.8429,-234.243 L 21.6489,-234.841 L 21.3815,-235.409 L 21.0451,-235.939
 L 20.6448,-236.423 L 20.1871,-236.853 L 19.6791,-237.222 L 19.1289,-237.524 L 18.5451,-237.755 L 17.9369,-237.911
 L 17.3139,-237.99 L -17.3139,-237.99 L -17.9369,-237.911 L -18.5451,-237.755 L -19.1289,-237.524 L -19.6791,-237.222
 L -20.1871,-236.853 L -20.6448,-236.423 L -21.0451,-235.939 L -21.3815,-235.409 L -21.6489,-234.841 L -21.7777,-234.444
 L -24,-234.444 L -24,-197.556 L -21.7777,-197.556 L -21.6489,-197.159 L -21.3815,-196.591 L -21.0451,-196.061
 L -20.6448,-195.577 L -20.1871,-195.147 L -19.6791,-194.778 L -19.1289,-194.476 L -18.5451,-194.245 L -17.9369,-194.089
 L -17.3139,-194.01 L 17.3139,-194.01 z
M -15.1507,-228.605 L -15.4497,-228.643 L -15.7416,-228.717 L -16.0219,-228.828 L -16.286,-228.974 L -16.5298,-229.151
 L -16.7495,-229.357 L -16.9416,-229.589 L -17.1031,-229.844 L -17.2315,-230.117 L -17.3246,-230.403 L -17.3811,-230.699
 L -17.4,-231 L -17.3811,-231.301 L -17.3246,-231.597 L -17.2315,-231.883 L -17.1031,-232.156 L -16.9416,-232.411
 L -16.7495,-232.643 L -16.5298,-232.849 L -16.286,-233.026 L -16.0219,-233.172 L -15.7416,-233.283 L -15.4497,-233.357
 L -15.1507,-233.395 L -14.8493,-233.395 L -14.5503,-233.357 L -14.2583,-233.283 L -13.9781,-233.172 L -13.714,-233.026
 L -13.4702,-232.849 L -13.2505,-232.643 L -13.0583,-232.411 L -12.8969,-232.156 L -12.7685,-231.883 L -12.6754,-231.597
 L -12.6189,-231.301 L -12.6,-231 L -12.6189,-230.699 L -12.6754,-230.403 L -12.7685,-230.117 L -12.8969,-229.844
 L -13.0583,-229.589 L -13.2505,-229.357 L -13.4702,-229.151 L -13.714,-228.974 L -13.9781,-228.828 L -14.2583,-228.717
 L -14.5503,-228.643 L -14.8493,-228.605 z
M 14.8493,-228.605 L 14.5503,-228.643 L 14.2583,-228.717 L 13.9781,-228.828 L 13.714,-228.974 L 13.4702,-229.151
 L 13.2505,-229.357 L 13.0583,-229.589 L 12.8969,-229.844 L 12.7685,-230.117 L 12.6754,-230.403 L 12.6189,-230.699
 L 12.6,-231 L 12.6189,-231.301 L 12.6754,-231.597 L 12.7685,-231.883 L 12.8969,-232.156 L 13.0583,-232.411
 L 13.2505,-232.643 L 13.4702,-232.849 L 13.714,-233.026 L 13.9781,-233.172 L 14.2583,-233.283 L 14.5503,-233.357
 L 14.8493,-233.395 L 15.1507,-233.395 L 15.4497,-233.357 L 15.7416,-233.283 L 16.0219,-233.172 L 16.286,-233.026
 L 16.5298,-232.849 L 16.7495,-232.643 L 16.9416,-232.411 L 17.1031,-232.156 L 17.2315,-231.883 L 17.3246,-231.597
 L 17.3811,-231.301 L 17.4,-231 L 17.3811,-230.699 L 17.3246,-230.403 L 17.2315,-230.117 L 17.1031,-229.844
 L 16.9416,-229.589 L 16.7495,-229.357 L 16.5298,-229.151 L 16.286,-228.974 L 16.0219,-228.828 L 15.7416,-228.717
 L 15.4497,-228.643 L 15.1507,-228.605 z
M 14.8493,-198.605 L 14.5503,-198.643 L 14.2583,-198.717 L 13.9781,-198.828 L 13.714,-198.974 L 13.4702,-199.151
 L 13.2505,-199.357 L 13.0583,-199.589 L 12.8969,-199.844 L 12.7685,-200.117 L 12.6754,-200.403 L 12.6189,-200.699
 L 12.6,-201 L 12.6189,-201.301 L 12.6754,-201.597 L 12.7685,-201.883 L 12.8969,-202.156 L 13.0583,-202.411
 L 13.2505,-202.643 L 13.4702,-202.849 L 13.714,-203.026 L 13.9781,-203.172 L 14.2583,-203.283 L 14.5503,-203.357
 L 14.8493,-203.395 L 15.1507,-203.395 L 15.4497,-203.357 L 15.7416,-203.283 L 16.0219,-203.172 L 16.286,-203.026
 L 16.5298,-202.849 L 16.7495,-202.643 L 16.9416,-202.411 L 17.1031,-202.156 L 17.2315,-201.883 L 17.3246,-201.597
 L 17.3811,-201.301 L 17.4,-201 L 17.3811,-200.699 L 17.3246,-200.403 L 17.2315,-200.117 L 17.1031,-199.844
 L 16.9416,-199.589 L 16.7495,-199.357 L 16.5298,-199.151 L 16.286,-198.974 L 16.0219,-198.828 L 15.7416,-198.717
 L 15.4497,-198.643 L 15.1507,-198.605 z
M -15.1507,-198.605 L -15.4497,-198.643 L -15.7416,-198.717 L -16.0219,-198.828 L -16.286,-198.974 L -16.5298,-199.151
 L -16.7495,-199.357 L -16.9416,-199.589 L -17.1031,-199.844 L -17.2315,-200.117 L -17.3246,-200.403 L -17.3811,-200.699
 L -17.4,-201 L -17.3811,-201.301 L -17.3246,-201.597 L -17.2315,-201.883 L -17.1031,-202.156 L -16.9416,-202.411
 L -16.7495,-202.643 L -16.5298,-202.849 L -16.286,-203.026 L -16.0219,-203.172 L -15.7416,-203.283 L -15.4497,-203.357
 L -15.1507,-203.395 L -14.8493,-203.395 L -14.5503,-203.357 L -14.2583,-203.283 L -13.9781,-203.172 L -13.714,-203.026
 L -13.4702,-202.849 L -13.2505,-202.643 L -13.0583,-202.411 L -12.8969,-202.156 L -12.7685,-201.883 L -12.6754,-201.597
 L -12.6189,-201.301 L -12.6,-201 L -12.6189,-200.699 L -12.6754,-200.403 L -12.7685,-200.117 L -12.8969,-199.844
 L -13.0583,-199.589 L -13.2505,-199.357 L -13.4702,-199.151 L -13.714,-198.974 L -13.9781,-198.828 L -14.2583,-198.717
 L -14.5503,-198.643 L -14.8493,-198.605 z
" stroke="black" fill="lightgray" stroke-width="0.5"/>
</svg>
