<?xml version="1.0" standalone="no"?>
<!DOCTYPE svg PUBLIC "-//W3C//DTD SVG 1.1//EN" "http://www.w3.org/Graphics/SVG/1.1/DTD/svg11.dtd">
<svg width="46mm" height="412mm" viewBox="-23 -710 46 412" xmlns="http://www.w3.org/2000/svg" version="1.1">
<title>OpenSCAD Model</title>
<path d="
M 18.4369,-634.589 L 19.0451,-634.745 L 19.6289,-634.976 L 20.1791,-635.278 L 20.6871,-635.647 L 21.1448,-636.077
 L 21.5451,-636.561 L 21.8815,-637.091 L 22.1489,-637.659 L 22.3429,-638.257 L 22.4606,-638.873 L 22.5,-639.5
 L 22.5,-704.5 L 22.4606,-705.127 L 22.3429,-705.743 L 22.1489,-706.341 L 21.8815,-706.909 L 21.5451,-707.439
 L 21.1448,-707.923 L 20.6871,-708.353 L 20.1791,-708.722 L 19.6289,-709.024 L 19.0451,-709.255 L 18.4369,-709.411
 L 17.8139,-709.49 L -17.8139,-709.49 L -18.4369,-709.411 L -19.0451,-709.255 L -19.6289,-709.024 L -20.1791,-708.722
 L -20.6871,-708.353 L -21.1448,-707.923 L -21.5451,-707.439 L -21.8815,-706.909 L -22.1489,-706.341 L -22.3429,-705.743
 L -22.4606,-705.127 L -22.5,-704.5 L -22.5,-639.5 L -22.4606,-638.873 L -22.3429,-638.257 L -22.1489,-637.659
 L -21.8815,-637.091 L -21.5451,-636.561 L -21.1448,-636.077 L -20.6871,-635.647 L -20.1791,-635.278 L -19.6289,-634.976
 L -19.0451,-634.745 L -18.4369,-634.589 L -17.8139,-634.51 L 17.8139,-634.51 z
M -17.5482,-635.009 L -18.1401,-635.084 L -18.7178,-635.232 L -19.2724,-635.452 L -19.7952,-635.739 L -20.2778,-636.09
 L -20.7126,-636.498 L -21.0928,-636.958 L -21.4124,-637.462 L -21.6664,-638.001 L -21.8508,-638.569 L -21.9625,-639.155
 L -22,-639.75 L -22,-704.25 L -21.9625,-704.845 L -21.8508,-705.431 L -21.6664,-705.999 L -21.4124,-706.538
 L -21.0928,-707.042 L -20.7126,-707.502 L -20.2778,-707.91 L -19.7952,-708.261 L -19.2724,-708.548 L -18.7178,-708.768
 L -18.1401,-708.916 L -17.5482,-708.991 L 17.5482,-708.991 L 18.1401,-708.916 L 18.7178,-708.768 L 19.2724,-708.548
 L 19.7952,-708.261 L 20.2778,-707.91 L 20.7126,-707.502 L 21.0928,-707.042 L 21.4124,-706.538 L 21.6664,-705.999
 L 21.8508,-705.431 L 21.9625,-704.845 L 22,-704.25 L 22,-639.75 L 21.9625,-639.155 L 21.8508,-638.569
 L 21.6664,-638.001 L 21.4124,-637.462 L 21.0928,-636.958 L 20.7126,-636.498 L 20.2778,-636.09 L 19.7952,-635.739
 L 19.2724,-635.452 L 18.7178,-635.232 L 18.1401,-635.084 L 17.5482,-635.009 z
M 18.4369,-550.589 L 19.0451,-550.745 L 19.6289,-550.976 L 20.1791,-551.278 L 20.6871,-551.647 L 21.1448,-552.077
 L 21.5451,-552.561 L 21.8815,-553.091 L 22.1489,-553.659 L 22.3429,-554.257 L 22.4606,-554.873 L 22.5,-555.5
 L 22.5,-620.5 L 22.4606,-621.127 L 22.3429,-621.743 L 22.1489,-622.341 L 21.8815,-622.909 L 21.5451,-623.439
 L 21.1448,-623.923 L 20.6871,-624.353 L 20.1791,-624.722 L 19.6289,-625.024 L 19.0451,-625.255 L 18.4369,-625.411
 L 17.8139,-625.49 L -17.8139,-625.49 L -18.4369,-625.411 L -19.0451,-625.255 L -19.6289,-625.024 L -20.1791,-624.722
 L -20.6871,-624.353 L -21.1448,-623.923 L -21.5451,-623.439 L -21.8815,-622.909 L -22.1489,-622.341 L -22.3429,-621.743
 L -22.4606,-621.127 L -22.5,-620.5 L -22.5,-555.5 L -22.4606,-554.873 L -22.3429,-554.257 L -22.1489,-553.659
 L -21.8815,-553.091 L -21.5451,-552.561 L -21.1448,-552.077 L -20.6871,-551.647 L -20.1791,-551.278 L -19.6289,-550.976
 L -19.0451,-550.745 L -18.4369,-550.589 L -17.8139,-550.51 L 17.8139,-550.51 z
M -17.5482,-551.009 L -18.1401,-551.084 L -18.7178,-551.232 L -19.2724,-551.452 L -19.7952,-551.739 L -20.2778,-552.09
 L -20.7126,-552.498 L -21.0928,-552.958 L -21.4124,-553.462 L -21.6664,-554.001 L -21.8508,-554.569 L -21.9625,-555.155
 L -22,-555.75 L -22,-620.25 L -21.9625,-620.845 L -21.8508,-621.431 L -21.6664,-621.999 L -21.4124,-622.538
 L -21.0928,-623.042 L -20.7126,-623.502 L -20.2778,-623.91 L -19.7952,-624.261 L -19.2724,-624.548 L -18.7178,-624.768
 L -18.1401,-624.916 L -17.5482,-624.991 L 17.5482,-624.991 L 18.1401,-624.916 L 18.7178,-624.768 L 19.2724,-624.548
 L 19.7952,-624.261 L 20.2778,-623.91 L 20.7126,-623.502 L 21.0928,-623.042 L 21.4124,-622.538 L 21.6664,-621.999
 L 21.8508,-621.431 L 21.9625,-620.845 L 22,-620.25 L 22,-555.75 L 21.9625,-555.155 L 21.8508,-554.569
 L 21.6664,-554.001 L 21.4124,-553.462 L 21.0928,-552.958 L 20.7126,-552.498 L 20.2778,-552.09 L 19.7952,-551.739
 L 19.2724,-551.452 L 18.7178,-551.232 L 18.1401,-551.084 L 17.5482,-551.009 z
M 18.4369,-466.589 L 19.0451,-466.745 L 19.6289,-466.976 L 20.1791,-467.278 L 20.6871,-467.647 L 21.1448,-468.077
 L 21.5451,-468.561 L 21.8815,-469.091 L 22.1489,-469.659 L 22.3429,-470.257 L 22.4606,-470.873 L 22.5,-471.5
 L 22.5,-536.5 L 22.4606,-537.127 L 22.3429,-537.743 L 22.1489,-538.341 L 21.8815,-538.909 L 21.5451,-539.439
 L 21.1448,-539.923 L 20.6871,-540.353 L 20.1791,-540.722 L 19.6289,-541.024 L 19.0451,-541.255 L 18.4369,-541.411
 L 17.8139,-541.49 L -17.8139,-541.49 L -18.4369,-541.411 L -19.0451,-541.255 L -19.6289,-541.024 L -20.1791,-540.722
 L -20.6871,-540.353 L -21.1448,-539.923 L -21.5451,-539.439 L -21.8815,-538.909 L -22.1489,-538.341 L -22.3429,-537.743
 L -22.4606,-537.127 L -22.5,-536.5 L -22.5,-471.5 L -22.4606,-470.873 L -22.3429,-470.257 L -22.1489,-469.659
 L -21.8815,-469.091 L -21.5451,-468.561 L -21.1448,-468.077 L -20.6871,-467.647 L -20.1791,-467.278 L -19.6289,-466.976
 L -19.0451,-466.745 L -18.4369,-466.589 L -17.8139,-466.51 L 17.8139,-466.51 z
M -17.5482,-467.009 L -18.1401,-467.084 L -18.7178,-467.232 L -19.2724,-467.452 L -19.7952,-467.739 L -20.2778,-468.09
 L -20.7126,-468.498 L -21.0928,-468.958 L -21.4124,-469.462 L -21.6664,-470.001 L -21.8508,-470.569 L -21.9625,-471.155
 L -22,-471.75 L -22,-536.25 L -21.9625,-536.845 L -21.8508,-537.431 L -21.6664,-537.999 L -21.4124,-538.538
 L -21.0928,-539.042 L -20.7126,-539.502 L -20.2778,-539.91 L -19.7952,-540.261 L -19.2724,-540.548 L -18.7178,-540.768
 L -18.1401,-540.916 L -17.5482,-540.991 L 17.5482,-540.991 L 18.1401,-540.916 L 18.7178,-540.768 L 19.2724,-540.548
 L 19.7952,-540.261 L 20.2778,-539.91 L 20.7126,-539.502 L 21.0928,-539.042 L 21.4124,-538.538 L 21.6664,-537.999
 L 21.8508,-537.431 L 21.9625,-536.845 L 22,-536.25 L 22,-471.75 L 21.9625,-471.155 L 21.8508,-470.569
 L 21.6664,-470.001 L 21.4124,-469.462 L 21.0928,-468.958 L 20.7126,-468.498 L 20.2778,-468.09 L 19.7952,-467.739
 L 19.2724,-467.452 L 18.7178,-467.232 L 18.1401,-467.084 L 17.5482,-467.009 z
M 18.4369,-382.589 L 19.0451,-382.745 L 19.6289,-382.976 L 20.1791,-383.278 L 20.6871,-383.647 L 21.1448,-384.077
 L 21.5451,-384.561 L 21.8815,-385.091 L 22.1489,-385.659 L 22.3429,-386.257 L 22.4606,-386.873 L 22.5,-387.5
 L 22.5,-452.5 L 22.4606,-453.127 L 22.3429,-453.743 L 22.1489,-454.341 L 21.8815,-454.909 L 21.5451,-455.439
 L 21.1448,-455.923 L 20.6871,-456.353 L 20.1791,-456.722 L 19.6289,-457.024 L 19.0451,-457.255 L 18.4369,-457.411
 L 17.8139,-457.49 L -17.8139,-457.49 L -18.4369,-457.411 L -19.0451,-457.255 L -19.6289,-457.024 L -20.1791,-456.722
 L -20.6871,-456.353 L -21.1448,-455.923 L -21.5451,-455.439 L -21.8815,-454.909 L -22.1489,-454.341 L -22.3429,-453.743
 L -22.4606,-453.127 L -22.5,-452.5 L -22.5,-387.5 L -22.4606,-386.873 L -22.3429,-386.257 L -22.1489,-385.659
 L -21.8815,-385.091 L -21.5451,-384.561 L -21.1448,-384.077 L -20.6871,-383.647 L -20.1791,-383.278 L -19.6289,-382.976
 L -19.0451,-382.745 L -18.4369,-382.589 L -17.8139,-382.51 L 17.8139,-382.51 z
M -17.493,-383.888 L -17.9751,-383.949 L -18.4457,-384.07 L -18.8975,-384.249 L -19.3234,-384.483 L -19.7165,-384.769
 L -20.0707,-385.101 L -20.3805,-385.476 L -20.6408,-385.886 L -20.8477,-386.326 L -20.9979,-386.788 L -21.089,-387.265
 L -21.1195,-387.75 L -21.1195,-452.25 L -21.089,-452.735 L -20.9979,-453.212 L -20.8477,-453.674 L -20.6408,-454.114
 L -20.3805,-454.524 L -20.0707,-454.899 L -19.7165,-455.231 L -19.3234,-455.517 L -18.8975,-455.751 L -18.4457,-455.93
 L -17.9751,-456.051 L -17.493,-456.112 L 17.493,-456.112 L 17.9751,-456.051 L 18.4457,-455.93 L 18.8975,-455.751
 L 19.3234,-455.517 L 19.7165,-455.231 L 20.0707,-454.899 L 20.3805,-454.524 L 20.6408,-454.114 L 20.8477,-453.674
 L 20.9979,-453.212 L 21.089,-452.735 L 21.1195,-452.25 L 21.1195,-387.75 L 21.089,-387.265 L 20.9979,-386.788
 L 20.8477,-386.326 L 20.6408,-385.886 L 20.3805,-385.476 L 20.0707,-385.101 L 19.7165,-384.769 L 19.3234,-384.483
 L 18.8975,-384.249 L 18.4457,-384.07 L 17.9751,-383.949 L 17.493,-383.888 z
M 18.4369,-298.589 L 19.0451,-298.745 L 19.6289,-298.976 L 20.1791,-299.278 L 20.6871,-299.647 L 21.1448,-300.077
 L 21.5451,-300.561 L 21.8815,-301.091 L 22.1489,-301.659 L 22.3429,-302.257 L 22.4606,-302.873 L 22.5,-303.5
 L 22.5,-368.5 L 22.4606,-369.127 L 22.3429,-369.743 L 22.1489,-370.341 L 21.8815,-370.909 L 21.5451,-371.439
 L 21.1448,-371.923 L 20.6871,-372.353 L 20.1791,-372.722 L 19.6289,-373.024 L 19.0451,-373.255 L 18.4369,-373.411
 L 17.8139,-373.49 L -17.8139,-373.49 L -18.4369,-373.411 L -19.0451,-373.255 L -19.6289,-373.024 L -20.1791,-372.722
 L -20.6871,-372.353 L -21.1448,-371.923 L -21.5451,-371.439 L -21.8815,-370.909 L -22.1489,-370.341 L -22.3429,-369.743
 L -22.4606,-369.127 L -22.5,-368.5 L -22.5,-303.5 L -22.4606,-302.873 L -22.3429,-302.257 L -22.1489,-301.659
 L -21.8815,-301.091 L -21.5451,-300.561 L -21.1448,-300.077 L -20.6871,-299.647 L -20.1791,-299.278 L -19.6289,-298.976
 L -19.0451,-298.745 L -18.4369,-298.589 L -17.8139,-298.51 L 17.8139,-298.51 z
M 14.9058,-364.503 L 14.7189,-364.527 L 14.5365,-364.573 L 14.3613,-364.643 L 14.1963,-364.734 L 14.0439,-364.844
 L 13.9065,-364.973 L 13.7865,-365.118 L 13.6855,-365.277 L 13.6053,-365.448 L 13.5471,-365.627 L 13.5118,-365.812
 L 13.5,-366 L 13.5118,-366.188 L 13.5471,-366.373 L 13.6053,-366.552 L 13.6855,-366.723 L 13.7865,-366.882
 L 13.9065,-367.027 L 14.0439,-367.156 L 14.1963,-367.266 L 14.3613,-367.357 L 14.5365,-367.427 L 14.7189,-367.473
 L 14.9058,-367.497 L 15.0942,-367.497 L 15.2811,-367.473 L 15.4635,-367.427 L 15.6387,-367.357 L 15.8037,-367.266
 L 15.9561,-367.156 L 16.0934,-367.027 L 16.2135,-366.882 L 16.3145,-366.723 L 16.3947,-366.552 L 16.4529,-366.373
 L 16.4882,-366.188 L 16.5,-366 L 16.4882,-365.812 L 16.4529,-365.627 L 16.3947,-365.448 L 16.3145,-365.277
 L 16.2135,-365.118 L 16.0934,-364.973 L 15.9561,-364.844 L 15.8037,-364.734 L 15.6387,-364.643 L 15.4635,-364.573
 L 15.2811,-364.527 L 15.0942,-364.503 z
M -15.0942,-364.503 L -15.2811,-364.527 L -15.4635,-364.573 L -15.6387,-364.643 L -15.8037,-364.734 L -15.9561,-364.844
 L -16.0934,-364.973 L -16.2135,-365.118 L -16.3145,-365.277 L -16.3947,-365.448 L -16.4529,-365.627 L -16.4882,-365.812
 L -16.5,-366 L -16.4882,-366.188 L -16.4529,-366.373 L -16.3947,-366.552 L -16.3145,-366.723 L -16.2135,-366.882
 L -16.0934,-367.027 L -15.9561,-367.156 L -15.8037,-367.266 L -15.6387,-367.357 L -15.4635,-367.427 L -15.2811,-367.473
 L -15.0942,-367.497 L -14.9058,-367.497 L -14.7189,-367.473 L -14.5365,-367.427 L -14.3613,-367.357 L -14.1963,-367.266
 L -14.0439,-367.156 L -13.9065,-367.027 L -13.7865,-366.882 L -13.6855,-366.723 L -13.6053,-366.552 L -13.5471,-366.373
 L -13.5118,-366.188 L -13.5,-366 L -13.5118,-365.812 L -13.5471,-365.627 L -13.6053,-365.448 L -13.6855,-365.277
 L -13.7865,-365.118 L -13.9065,-364.973 L -14.0439,-364.844 L -14.1963,-364.734 L -14.3613,-364.643 L -14.5365,-364.573
 L -14.7189,-364.527 L -14.9058,-364.503 z
M 14.9058,-304.503 L 14.7189,-304.527 L 14.5365,-304.573 L 14.3613,-304.643 L 14.1963,-304.734 L 14.0439,-304.844
 L 13.9065,-304.973 L 13.7865,-305.118 L 13.6855,-305.277 L 13.6053,-305.448 L 13.5471,-305.627 L 13.5118,-305.812
 L 13.5,-306 L 13.5118,-306.188 L 13.5471,-306.373 L 13.6053,-306.552 L 13.6855,-306.723 L 13.7865,-306.882
 L 13.9065,-307.027 L 14.0439,-307.156 L 14.1963,-307.266 L 14.3613,-307.357 L 14.5365,-307.427 L 14.7189,-307.473
 L 14.9058,-307.497 L 15.0942,-307.497 L 15.2811,-307.473 L 15.4635,-307.427 L 15.6387,-307.357 L 15.8037,-307.266
 L 15.9561,-307.156 L 16.0934,-307.027 L 16.2135,-306.882 L 16.3145,-306.723 L 16.3947,-306.552 L 16.4529,-306.373
 L 16.4882,-306.188 L 16.5,-306 L 16.4882,-305.812 L 16.4529,-305.627 L 16.3947,-305.448 L 16.3145,-305.277
 L 16.2135,-305.118 L 16.0934,-304.973 L 15.9561,-304.844 L 15.8037,-304.734 L 15.6387,-304.643 L 15.4635,-304.573
 L 15.2811,-304.527 L 15.0942,-304.503 z
M -15.0942,-304.503 L -15.2811,-304.527 L -15.4635,-304.573 L -15.6387,-304.643 L -15.8037,-304.734 L -15.9561,-304.844
 L -16.0934,-304.973 L -16.2135,-305.118 L -16.3145,-305.277 L -16.3947,-305.448 L -16.4529,-305.627 L -16.4882,-305.812
 L -16.5,-306 L -16.4882,-306.188 L -16.4529,-306.373 L -16.3947,-306.552 L -16.3145,-306.723 L -16.2135,-306.882
 L -16.0934,-307.027 L -15.9561,-307.156 L -15.8037,-307.266 L -15.6387,-307.357 L -15.4635,-307.427 L -15.2811,-307.473
 L -15.0942,-307.497 L -14.9058,-307.497 L -14.7189,-307.473 L -14.5365,-307.427 L -14.3613,-307.357 L -14.1963,-307.266
 L -14.0439,-307.156 L -13.9065,-307.027 L -13.7865,-306.882 L -13.6855,-306.723 L -13.6053,-306.552 L -13.5471,-306.373
 L -13.5118,-306.188 L -13.5,-306 L -13.5118,-305.812 L -13.5471,-305.627 L -13.6053,-305.448 L -13.6855,-305.277
 L -13.7865,-305.118 L -13.9065,-304.973 L -14.0439,-304.844 L -14.1963,-304.734 L -14.3613,-304.643 L -14.5365,-304.573
 L -14.7189,-304.527 L -14.9058,-304.503 z
" stroke="black" fill="lightgray" stroke-width="0.5"/>
</svg>
