<?xml version="1.0" standalone="no"?>
<!DOCTYPE svg PUBLIC "-//W3C//DTD SVG 1.1//EN" "http://www.w3.org/Graphics/SVG/1.1/DTD/svg11.dtd">
<svg width="8mm" height="29mm" viewBox="-4 -55 8 29" xmlns="http://www.w3.org/2000/svg" version="1.1">
<title>OpenSCAD Model</title>
<path d="
M 3.17349,-51.75 L 1.58675,-54.4983 L -1.58675,-54.4983 L -3.17349,-51.75 L -1.58675,-49.0017 L 1.58675,-49.0017
 z
M -0.0941772,-50.253 L -0.281067,-50.2766 L -0.463516,-50.3234 L -0.638657,-50.3928 L -0.803726,-50.4835 L -0.956131,-50.5942
 L -1.09344,-50.7232 L -1.21352,-50.8683 L -1.31445,-51.0274 L -1.39465,-51.1978 L -1.45287,-51.377 L -1.48816,-51.562
 L -1.5,-51.75 L -1.48816,-51.938 L -1.45287,-52.123 L -1.39465,-52.3022 L -1.31445,-52.4726 L -1.21352,-52.6317
 L -1.09344,-52.7768 L -0.956131,-52.9058 L -0.803726,-53.0165 L -0.638657,-53.1072 L -0.463516,-53.1766 L -0.281067,-53.2234
 L -0.0941772,-53.247 L 0.0941772,-53.247 L 0.281067,-53.2234 L 0.463516,-53.1766 L 0.638657,-53.1072 L 0.803726,-53.0165
 L 0.956131,-52.9058 L 1.09344,-52.7768 L 1.21352,-52.6317 L 1.31445,-52.4726 L 1.39465,-52.3022 L 1.45287,-52.123
 L 1.48816,-51.938 L 1.5,-51.75 L 1.48816,-51.562 L 1.45287,-51.377 L 1.39465,-51.1978 L 1.31445,-51.0274
 L 1.21352,-50.8683 L 1.09344,-50.7232 L 0.956131,-50.5942 L 0.803726,-50.4835 L 0.638657,-50.3928 L 0.463516,-50.3234
 L 0.281067,-50.2766 L 0.0941772,-50.253 z
M 3.17349,-46 L 1.58675,-48.7483 L -1.58675,-48.7483 L -3.17349,-46 L -1.58675,-43.2517 L 1.58675,-43.2517
 z
M -0.0941772,-44.503 L -0.281067,-44.5266 L -0.463516,-44.5734 L -0.638657,-44.6428 L -0.803726,-44.7335 L -0.956131,-44.8442
 L -1.09344,-44.9732 L -1.21352,-45.1183 L -1.31445,-45.2774 L -1.39465,-45.4478 L -1.45287,-45.627 L -1.48816,-45.812
 L -1.5,-46 L -1.48816,-46.188 L -1.45287,-46.373 L -1.39465,-46.5522 L -1.31445,-46.7226 L -1.21352,-46.8817
 L -1.09344,-47.0268 L -0.956131,-47.1558 L -0.803726,-47.2665 L -0.638657,-47.3572 L -0.463516,-47.4266 L -0.281067,-47.4734
 L -0.0941772,-47.497 L 0.0941772,-47.497 L 0.281067,-47.4734 L 0.463516,-47.4266 L 0.638657,-47.3572 L 0.803726,-47.2665
 L 0.956131,-47.1558 L 1.09344,-47.0268 L 1.21352,-46.8817 L 1.31445,-46.7226 L 1.39465,-46.5522 L 1.45287,-46.373
 L 1.48816,-46.188 L 1.5,-46 L 1.48816,-45.812 L 1.45287,-45.627 L 1.39465,-45.4478 L 1.31445,-45.2774
 L 1.21352,-45.1183 L 1.09344,-44.9732 L 0.956131,-44.8442 L 0.803726,-44.7335 L 0.638657,-44.6428 L 0.463516,-44.5734
 L 0.281067,-44.5266 L 0.0941772,-44.503 z
M 3.17349,-40.25 L 1.58675,-42.9983 L -1.58675,-42.9983 L -3.17349,-40.25 L -1.58675,-37.5017 L 1.58675,-37.5017
 z
M -0.0941772,-38.753 L -0.281067,-38.7766 L -0.463516,-38.8234 L -0.638657,-38.8928 L -0.803726,-38.9835 L -0.956131,-39.0942
 L -1.09344,-39.2232 L -1.21352,-39.3683 L -1.31445,-39.5274 L -1.39465,-39.6978 L -1.45287,-39.877 L -1.48816,-40.062
 L -1.5,-40.25 L -1.48816,-40.438 L -1.45287,-40.623 L -1.39465,-40.8022 L -1.31445,-40.9726 L -1.21352,-41.1317
 L -1.09344,-41.2768 L -0.956131,-41.4058 L -0.803726,-41.5165 L -0.638657,-41.6072 L -0.463516,-41.6766 L -0.281067,-41.7234
 L -0.0941772,-41.747 L 0.0941772,-41.747 L 0.281067,-41.7234 L 0.463516,-41.6766 L 0.638657,-41.6072 L 0.803726,-41.5165
 L 0.956131,-41.4058 L 1.09344,-41.2768 L 1.21352,-41.1317 L 1.31445,-40.9726 L 1.39465,-40.8022 L 1.45287,-40.623
 L 1.48816,-40.438 L 1.5,-40.25 L 1.48816,-40.062 L 1.45287,-39.877 L 1.39465,-39.6978 L 1.31445,-39.5274
 L 1.21352,-39.3683 L 1.09344,-39.2232 L 0.956131,-39.0942 L 0.803726,-38.9835 L 0.638657,-38.8928 L 0.463516,-38.8234
 L 0.281067,-38.7766 L 0.0941772,-38.753 z
M 3.17349,-34.5 L 1.58675,-37.2483 L -1.58675,-37.2483 L -3.17349,-34.5 L -1.58675,-31.7517 L 1.58675,-31.7517
 z
M -0.0941772,-33.003 L -0.281067,-33.0266 L -0.463516,-33.0734 L -0.638657,-33.1428 L -0.803726,-33.2335 L -0.956131,-33.3442
 L -1.09344,-33.4732 L -1.21352,-33.6183 L -1.31445,-33.7774 L -1.39465,-33.9478 L -1.45287,-34.127 L -1.48816,-34.312
 L -1.5,-34.5 L -1.48816,-34.688 L -1.45287,-34.873 L -1.39465,-35.0522 L -1.31445,-35.2226 L -1.21352,-35.3817
 L -1.09344,-35.5268 L -0.956131,-35.6558 L -0.803726,-35.7665 L -0.638657,-35.8572 L -0.463516,-35.9266 L -0.281067,-35.9734
 L -0.0941772,-35.997 L 0.0941772,-35.997 L 0.281067,-35.9734 L 0.463516,-35.9266 L 0.638657,-35.8572 L 0.803726,-35.7665
 L 0.956131,-35.6558 L 1.09344,-35.5268 L 1.21352,-35.3817 L 1.31445,-35.2226 L 1.39465,-35.0522 L 1.45287,-34.873
 L 1.48816,-34.688 L 1.5,-34.5 L 1.48816,-34.312 L 1.45287,-34.127 L 1.39465,-33.9478 L 1.31445,-33.7774
 L 1.21352,-33.6183 L 1.09344,-33.4732 L 0.956131,-33.3442 L 0.803726,-33.2335 L 0.638657,-33.1428 L 0.463516,-33.0734
 L 0.281067,-33.0266 L 0.0941772,-33.003 z
M 3.17349,-28.75 L 1.58675,-31.4983 L -1.58675,-31.4983 L -3.17349,-28.75 L -1.58675,-26.0017 L 1.58675,-26.0017
 z
M -0.0941772,-27.253 L -0.281067,-27.2766 L -0.463516,-27.3234 L -0.638657,-27.3928 L -0.803726,-27.4835 L -0.956131,-27.5942
 L -1.09344,-27.7232 L -1.21352,-27.8683 L -1.31445,-28.0274 L -1.39465,-28.1978 L -1.45287,-28.377 L -1.48816,-28.562
 L -1.5,-28.75 L -1.48816,-28.938 L -1.45287,-29.123 L -1.39465,-29.3022 L -1.31445,-29.4726 L -1.21352,-29.6317
 L -1.09344,-29.7768 L -0.956131,-29.9058 L -0.803726,-30.0165 L -0.638657,-30.1072 L -0.463516,-30.1766 L -0.281067,-30.2234
 L -0.0941772,-30.247 L 0.0941772,-30.247 L 0.281067,-30.2234 L 0.463516,-30.1766 L 0.638657,-30.1072 L 0.803726,-30.0165
 L 0.956131,-29.9058 L 1.09344,-29.7768 L 1.21352,-29.6317 L 1.31445,-29.4726 L 1.39465,-29.3022 L 1.45287,-29.123
 L 1.48816,-28.938 L 1.5,-28.75 L 1.48816,-28.562 L 1.45287,-28.377 L 1.39465,-28.1978 L 1.31445,-28.0274
 L 1.21352,-27.8683 L 1.09344,-27.7232 L 0.956131,-27.5942 L 0.803726,-27.4835 L 0.638657,-27.3928 L 0.463516,-27.3234
 L 0.281067,-27.2766 L 0.0941772,-27.253 z
" stroke="black" fill="lightgray" stroke-width="0.5"/>
</svg>
