  0
SECTION
  2
BLOCKS
  0
ENDSEC
  0
SECTION
  2
ENTITIES
  0
LINE
  8
0
 10
40.4369
 20
86.0886
 11
41.0451
 21
86.2447
  0
LINE
  8
0
 10
41.0451
 20
86.2447
 11
41.6289
 21
86.4759
  0
LINE
  8
0
 10
41.6289
 20
86.4759
 11
42.1791
 21
86.7784
  0
LINE
  8
0
 10
42.1791
 20
86.7784
 11
42.6871
 21
87.1474
  0
LINE
  8
0
 10
42.6871
 20
87.1474
 11
43.1448
 21
87.5773
  0
LINE
  8
0
 10
43.1448
 20
87.5773
 11
43.5451
 21
88.0611
  0
LINE
  8
0
 10
43.5451
 20
88.0611
 11
43.8815
 21
88.5912
  0
LINE
  8
0
 10
43.8815
 20
88.5912
 11
44.1489
 21
89.1594
  0
LINE
  8
0
 10
44.1489
 20
89.1594
 11
44.3429
 21
89.7566
  0
LINE
  8
0
 10
44.3429
 20
89.7566
 11
44.4606
 21
90.3733
  0
LINE
  8
0
 10
44.4606
 20
90.3733
 11
44.5
 21
91
  0
LINE
  8
0
 10
44.5
 20
91
 11
44.5
 21
125
  0
LINE
  8
0
 10
44.5
 20
125
 11
44.4606
 21
125.627
  0
LINE
  8
0
 10
44.4606
 20
125.627
 11
44.3429
 21
126.243
  0
LINE
  8
0
 10
44.3429
 20
126.243
 11
44.1489
 21
126.841
  0
LINE
  8
0
 10
44.1489
 20
126.841
 11
43.8815
 21
127.409
  0
LINE
  8
0
 10
43.8815
 20
127.409
 11
43.5451
 21
127.939
  0
LINE
  8
0
 10
43.5451
 20
127.939
 11
43.1448
 21
128.423
  0
LINE
  8
0
 10
43.1448
 20
128.423
 11
42.6871
 21
128.853
  0
LINE
  8
0
 10
42.6871
 20
128.853
 11
42.1791
 21
129.222
  0
LINE
  8
0
 10
42.1791
 20
129.222
 11
41.6289
 21
129.524
  0
LINE
  8
0
 10
41.6289
 20
129.524
 11
41.0451
 21
129.755
  0
LINE
  8
0
 10
41.0451
 20
129.755
 11
40.4369
 21
129.911
  0
LINE
  8
0
 10
40.4369
 20
129.911
 11
39.8139
 21
129.99
  0
LINE
  8
0
 10
39.8139
 20
129.99
 11
5.18604
 21
129.99
  0
LINE
  8
0
 10
5.18604
 20
129.99
 11
4.56308
 21
129.911
  0
LINE
  8
0
 10
4.56308
 20
129.911
 11
3.95491
 21
129.755
  0
LINE
  8
0
 10
3.95491
 20
129.755
 11
3.37109
 21
129.524
  0
LINE
  8
0
 10
3.37109
 20
129.524
 11
2.82086
 21
129.222
  0
LINE
  8
0
 10
2.82086
 20
129.222
 11
2.31287
 21
128.853
  0
LINE
  8
0
 10
2.31287
 20
128.853
 11
1.85515
 21
128.423
  0
LINE
  8
0
 10
1.85515
 20
128.423
 11
1.45491
 21
127.939
  0
LINE
  8
0
 10
1.45491
 20
127.939
 11
1.11845
 21
127.409
  0
LINE
  8
0
 10
1.11845
 20
127.409
 11
0.851105
 21
126.841
  0
LINE
  8
0
 10
0.851105
 20
126.841
 11
0.657074
 21
126.243
  0
LINE
  8
0
 10
0.657074
 20
126.243
 11
0.539413
 21
125.627
  0
LINE
  8
0
 10
0.539413
 20
125.627
 11
0.5
 21
125
  0
LINE
  8
0
 10
0.5
 20
125
 11
0.5
 21
91
  0
LINE
  8
0
 10
0.5
 20
91
 11
0.539413
 21
90.3733
  0
LINE
  8
0
 10
0.539413
 20
90.3733
 11
0.657074
 21
89.7566
  0
LINE
  8
0
 10
0.657074
 20
89.7566
 11
0.851105
 21
89.1594
  0
LINE
  8
0
 10
0.851105
 20
89.1594
 11
1.11845
 21
88.5912
  0
LINE
  8
0
 10
1.11845
 20
88.5912
 11
1.45491
 21
88.0611
  0
LINE
  8
0
 10
1.45491
 20
88.0611
 11
1.85515
 21
87.5773
  0
LINE
  8
0
 10
1.85515
 20
87.5773
 11
2.31287
 21
87.1474
  0
LINE
  8
0
 10
2.31287
 20
87.1474
 11
2.82086
 21
86.7784
  0
LINE
  8
0
 10
2.82086
 20
86.7784
 11
3.37109
 21
86.4759
  0
LINE
  8
0
 10
3.37109
 20
86.4759
 11
3.95491
 21
86.2447
  0
LINE
  8
0
 10
3.95491
 20
86.2447
 11
4.56308
 21
86.0886
  0
LINE
  8
0
 10
4.56308
 20
86.0886
 11
5.18604
 21
86.0099
  0
LINE
  8
0
 10
5.18604
 20
86.0099
 11
39.8139
 21
86.0099
  0
LINE
  8
0
 10
39.8139
 20
86.0099
 11
40.4369
 21
86.0886
  0
LINE
  8
0
 10
37.3116
 20
120.006
 11
36.9379
 21
120.053
  0
LINE
  8
0
 10
36.9379
 20
120.053
 11
36.5729
 21
120.147
  0
LINE
  8
0
 10
36.5729
 20
120.147
 11
36.2227
 21
120.286
  0
LINE
  8
0
 10
36.2227
 20
120.286
 11
35.8925
 21
120.467
  0
LINE
  8
0
 10
35.8925
 20
120.467
 11
35.5877
 21
120.688
  0
LINE
  8
0
 10
35.5877
 20
120.688
 11
35.3131
 21
120.946
  0
LINE
  8
0
 10
35.3131
 20
120.946
 11
35.0729
 21
121.237
  0
LINE
  8
0
 10
35.0729
 20
121.237
 11
34.8711
 21
121.555
  0
LINE
  8
0
 10
34.8711
 20
121.555
 11
34.7107
 21
121.896
  0
LINE
  8
0
 10
34.7107
 20
121.896
 11
34.5942
 21
122.254
  0
LINE
  8
0
 10
34.5942
 20
122.254
 11
34.5237
 21
122.624
  0
LINE
  8
0
 10
34.5237
 20
122.624
 11
34.5
 21
123
  0
LINE
  8
0
 10
34.5
 20
123
 11
34.5237
 21
123.376
  0
LINE
  8
0
 10
34.5237
 20
123.376
 11
34.5942
 21
123.746
  0
LINE
  8
0
 10
34.5942
 20
123.746
 11
34.7107
 21
124.104
  0
LINE
  8
0
 10
34.7107
 20
124.104
 11
34.8711
 21
124.445
  0
LINE
  8
0
 10
34.8711
 20
124.445
 11
35.0729
 21
124.763
  0
LINE
  8
0
 10
35.0729
 20
124.763
 11
35.3131
 21
125.054
  0
LINE
  8
0
 10
35.3131
 20
125.054
 11
35.5877
 21
125.312
  0
LINE
  8
0
 10
35.5877
 20
125.312
 11
35.8925
 21
125.533
  0
LINE
  8
0
 10
35.8925
 20
125.533
 11
36.2227
 21
125.714
  0
LINE
  8
0
 10
36.2227
 20
125.714
 11
36.5729
 21
125.853
  0
LINE
  8
0
 10
36.5729
 20
125.853
 11
36.9379
 21
125.947
  0
LINE
  8
0
 10
36.9379
 20
125.947
 11
37.3116
 21
125.994
  0
LINE
  8
0
 10
37.3116
 20
125.994
 11
37.6884
 21
125.994
  0
LINE
  8
0
 10
37.6884
 20
125.994
 11
38.0621
 21
125.947
  0
LINE
  8
0
 10
38.0621
 20
125.947
 11
38.427
 21
125.853
  0
LINE
  8
0
 10
38.427
 20
125.853
 11
38.7773
 21
125.714
  0
LINE
  8
0
 10
38.7773
 20
125.714
 11
39.1075
 21
125.533
  0
LINE
  8
0
 10
39.1075
 20
125.533
 11
39.4123
 21
125.312
  0
LINE
  8
0
 10
39.4123
 20
125.312
 11
39.6869
 21
125.054
  0
LINE
  8
0
 10
39.6869
 20
125.054
 11
39.927
 21
124.763
  0
LINE
  8
0
 10
39.927
 20
124.763
 11
40.1289
 21
124.445
  0
LINE
  8
0
 10
40.1289
 20
124.445
 11
40.2893
 21
124.104
  0
LINE
  8
0
 10
40.2893
 20
124.104
 11
40.4057
 21
123.746
  0
LINE
  8
0
 10
40.4057
 20
123.746
 11
40.4763
 21
123.376
  0
LINE
  8
0
 10
40.4763
 20
123.376
 11
40.5
 21
123
  0
LINE
  8
0
 10
40.5
 20
123
 11
40.4763
 21
122.624
  0
LINE
  8
0
 10
40.4763
 20
122.624
 11
40.4057
 21
122.254
  0
LINE
  8
0
 10
40.4057
 20
122.254
 11
40.2893
 21
121.896
  0
LINE
  8
0
 10
40.2893
 20
121.896
 11
40.1289
 21
121.555
  0
LINE
  8
0
 10
40.1289
 20
121.555
 11
39.927
 21
121.237
  0
LINE
  8
0
 10
39.927
 20
121.237
 11
39.6869
 21
120.946
  0
LINE
  8
0
 10
39.6869
 20
120.946
 11
39.4123
 21
120.688
  0
LINE
  8
0
 10
39.4123
 20
120.688
 11
39.1075
 21
120.467
  0
LINE
  8
0
 10
39.1075
 20
120.467
 11
38.7773
 21
120.286
  0
LINE
  8
0
 10
38.7773
 20
120.286
 11
38.427
 21
120.147
  0
LINE
  8
0
 10
38.427
 20
120.147
 11
38.0621
 21
120.053
  0
LINE
  8
0
 10
38.0621
 20
120.053
 11
37.6884
 21
120.006
  0
LINE
  8
0
 10
37.6884
 20
120.006
 11
37.3116
 21
120.006
  0
LINE
  8
0
 10
7.31161
 20
120.006
 11
6.93785
 21
120.053
  0
LINE
  8
0
 10
6.93785
 20
120.053
 11
6.57294
 21
120.147
  0
LINE
  8
0
 10
6.57294
 20
120.147
 11
6.22266
 21
120.286
  0
LINE
  8
0
 10
6.22266
 20
120.286
 11
5.89252
 21
120.467
  0
LINE
  8
0
 10
5.89252
 20
120.467
 11
5.58772
 21
120.688
  0
LINE
  8
0
 10
5.58772
 20
120.688
 11
5.31308
 21
120.946
  0
LINE
  8
0
 10
5.31308
 20
120.946
 11
5.07294
 21
121.237
  0
LINE
  8
0
 10
5.07294
 20
121.237
 11
4.87108
 21
121.555
  0
LINE
  8
0
 10
4.87108
 20
121.555
 11
4.71066
 21
121.896
  0
LINE
  8
0
 10
4.71066
 20
121.896
 11
4.59424
 21
122.254
  0
LINE
  8
0
 10
4.59424
 20
122.254
 11
4.52365
 21
122.624
  0
LINE
  8
0
 10
4.52365
 20
122.624
 11
4.5
 21
123
  0
LINE
  8
0
 10
4.5
 20
123
 11
4.52365
 21
123.376
  0
LINE
  8
0
 10
4.52365
 20
123.376
 11
4.59424
 21
123.746
  0
LINE
  8
0
 10
4.59424
 20
123.746
 11
4.71066
 21
124.104
  0
LINE
  8
0
 10
4.71066
 20
124.104
 11
4.87108
 21
124.445
  0
LINE
  8
0
 10
4.87108
 20
124.445
 11
5.07294
 21
124.763
  0
LINE
  8
0
 10
5.07294
 20
124.763
 11
5.31308
 21
125.054
  0
LINE
  8
0
 10
5.31308
 20
125.054
 11
5.58772
 21
125.312
  0
LINE
  8
0
 10
5.58772
 20
125.312
 11
5.89252
 21
125.533
  0
LINE
  8
0
 10
5.89252
 20
125.533
 11
6.22266
 21
125.714
  0
LINE
  8
0
 10
6.22266
 20
125.714
 11
6.57294
 21
125.853
  0
LINE
  8
0
 10
6.57294
 20
125.853
 11
6.93785
 21
125.947
  0
LINE
  8
0
 10
6.93785
 20
125.947
 11
7.31161
 21
125.994
  0
LINE
  8
0
 10
7.31161
 20
125.994
 11
7.68837
 21
125.994
  0
LINE
  8
0
 10
7.68837
 20
125.994
 11
8.06213
 21
125.947
  0
LINE
  8
0
 10
8.06213
 20
125.947
 11
8.42705
 21
125.853
  0
LINE
  8
0
 10
8.42705
 20
125.853
 11
8.77733
 21
125.714
  0
LINE
  8
0
 10
8.77733
 20
125.714
 11
9.10747
 21
125.533
  0
LINE
  8
0
 10
9.10747
 20
125.533
 11
9.41226
 21
125.312
  0
LINE
  8
0
 10
9.41226
 20
125.312
 11
9.6869
 21
125.054
  0
LINE
  8
0
 10
9.6869
 20
125.054
 11
9.92705
 21
124.763
  0
LINE
  8
0
 10
9.92705
 20
124.763
 11
10.1289
 21
124.445
  0
LINE
  8
0
 10
10.1289
 20
124.445
 11
10.2893
 21
124.104
  0
LINE
  8
0
 10
10.2893
 20
124.104
 11
10.4057
 21
123.746
  0
LINE
  8
0
 10
10.4057
 20
123.746
 11
10.4763
 21
123.376
  0
LINE
  8
0
 10
10.4763
 20
123.376
 11
10.5
 21
123
  0
LINE
  8
0
 10
10.5
 20
123
 11
10.4763
 21
122.624
  0
LINE
  8
0
 10
10.4763
 20
122.624
 11
10.4057
 21
122.254
  0
LINE
  8
0
 10
10.4057
 20
122.254
 11
10.2893
 21
121.896
  0
LINE
  8
0
 10
10.2893
 20
121.896
 11
10.1289
 21
121.555
  0
LINE
  8
0
 10
10.1289
 20
121.555
 11
9.92705
 21
121.237
  0
LINE
  8
0
 10
9.92705
 20
121.237
 11
9.6869
 21
120.946
  0
LINE
  8
0
 10
9.6869
 20
120.946
 11
9.41226
 21
120.688
  0
LINE
  8
0
 10
9.41226
 20
120.688
 11
9.10747
 21
120.467
  0
LINE
  8
0
 10
9.10747
 20
120.467
 11
8.77733
 21
120.286
  0
LINE
  8
0
 10
8.77733
 20
120.286
 11
8.42705
 21
120.147
  0
LINE
  8
0
 10
8.42705
 20
120.147
 11
8.06213
 21
120.053
  0
LINE
  8
0
 10
8.06213
 20
120.053
 11
7.68837
 21
120.006
  0
LINE
  8
0
 10
7.68837
 20
120.006
 11
7.31161
 21
120.006
  0
LINE
  8
0
 10
20.8267
 20
120.102
 11
19.1534
 21
123
  0
LINE
  8
0
 10
19.1534
 20
123
 11
20.8267
 21
125.898
  0
LINE
  8
0
 10
20.8267
 20
125.898
 11
24.1733
 21
125.898
  0
LINE
  8
0
 10
24.1733
 20
125.898
 11
25.8466
 21
123
  0
LINE
  8
0
 10
25.8466
 20
123
 11
24.1733
 21
120.102
  0
LINE
  8
0
 10
24.1733
 20
120.102
 11
20.8267
 21
120.102
  0
LINE
  8
0
 10
29.9058
 20
121.503
 11
29.7189
 21
121.527
  0
LINE
  8
0
 10
29.7189
 20
121.527
 11
29.5365
 21
121.573
  0
LINE
  8
0
 10
29.5365
 20
121.573
 11
29.3613
 21
121.643
  0
LINE
  8
0
 10
29.3613
 20
121.643
 11
29.1963
 21
121.734
  0
LINE
  8
0
 10
29.1963
 20
121.734
 11
29.0439
 21
121.844
  0
LINE
  8
0
 10
29.0439
 20
121.844
 11
28.9065
 21
121.973
  0
LINE
  8
0
 10
28.9065
 20
121.973
 11
28.7865
 21
122.118
  0
LINE
  8
0
 10
28.7865
 20
122.118
 11
28.6855
 21
122.277
  0
LINE
  8
0
 10
28.6855
 20
122.277
 11
28.6053
 21
122.448
  0
LINE
  8
0
 10
28.6053
 20
122.448
 11
28.5471
 21
122.627
  0
LINE
  8
0
 10
28.5471
 20
122.627
 11
28.5118
 21
122.812
  0
LINE
  8
0
 10
28.5118
 20
122.812
 11
28.5
 21
123
  0
LINE
  8
0
 10
28.5
 20
123
 11
28.5118
 21
123.188
  0
LINE
  8
0
 10
28.5118
 20
123.188
 11
28.5471
 21
123.373
  0
LINE
  8
0
 10
28.5471
 20
123.373
 11
28.6053
 21
123.552
  0
LINE
  8
0
 10
28.6053
 20
123.552
 11
28.6855
 21
123.723
  0
LINE
  8
0
 10
28.6855
 20
123.723
 11
28.7865
 21
123.882
  0
LINE
  8
0
 10
28.7865
 20
123.882
 11
28.9065
 21
124.027
  0
LINE
  8
0
 10
28.9065
 20
124.027
 11
29.0439
 21
124.156
  0
LINE
  8
0
 10
29.0439
 20
124.156
 11
29.1963
 21
124.266
  0
LINE
  8
0
 10
29.1963
 20
124.266
 11
29.3613
 21
124.357
  0
LINE
  8
0
 10
29.3613
 20
124.357
 11
29.5365
 21
124.427
  0
LINE
  8
0
 10
29.5365
 20
124.427
 11
29.7189
 21
124.473
  0
LINE
  8
0
 10
29.7189
 20
124.473
 11
29.9058
 21
124.497
  0
LINE
  8
0
 10
29.9058
 20
124.497
 11
30.0942
 21
124.497
  0
LINE
  8
0
 10
30.0942
 20
124.497
 11
30.2811
 21
124.473
  0
LINE
  8
0
 10
30.2811
 20
124.473
 11
30.4635
 21
124.427
  0
LINE
  8
0
 10
30.4635
 20
124.427
 11
30.6387
 21
124.357
  0
LINE
  8
0
 10
30.6387
 20
124.357
 11
30.8037
 21
124.266
  0
LINE
  8
0
 10
30.8037
 20
124.266
 11
30.9561
 21
124.156
  0
LINE
  8
0
 10
30.9561
 20
124.156
 11
31.0934
 21
124.027
  0
LINE
  8
0
 10
31.0934
 20
124.027
 11
31.2135
 21
123.882
  0
LINE
  8
0
 10
31.2135
 20
123.882
 11
31.3145
 21
123.723
  0
LINE
  8
0
 10
31.3145
 20
123.723
 11
31.3947
 21
123.552
  0
LINE
  8
0
 10
31.3947
 20
123.552
 11
31.4529
 21
123.373
  0
LINE
  8
0
 10
31.4529
 20
123.373
 11
31.4882
 21
123.188
  0
LINE
  8
0
 10
31.4882
 20
123.188
 11
31.5
 21
123
  0
LINE
  8
0
 10
31.5
 20
123
 11
31.4882
 21
122.812
  0
LINE
  8
0
 10
31.4882
 20
122.812
 11
31.4529
 21
122.627
  0
LINE
  8
0
 10
31.4529
 20
122.627
 11
31.3947
 21
122.448
  0
LINE
  8
0
 10
31.3947
 20
122.448
 11
31.3145
 21
122.277
  0
LINE
  8
0
 10
31.3145
 20
122.277
 11
31.2135
 21
122.118
  0
LINE
  8
0
 10
31.2135
 20
122.118
 11
31.0934
 21
121.973
  0
LINE
  8
0
 10
31.0934
 20
121.973
 11
30.9561
 21
121.844
  0
LINE
  8
0
 10
30.9561
 20
121.844
 11
30.8037
 21
121.734
  0
LINE
  8
0
 10
30.8037
 20
121.734
 11
30.6387
 21
121.643
  0
LINE
  8
0
 10
30.6387
 20
121.643
 11
30.4635
 21
121.573
  0
LINE
  8
0
 10
30.4635
 20
121.573
 11
30.2811
 21
121.527
  0
LINE
  8
0
 10
30.2811
 20
121.527
 11
30.0942
 21
121.503
  0
LINE
  8
0
 10
30.0942
 20
121.503
 11
29.9058
 21
121.503
  0
LINE
  8
0
 10
14.9058
 20
121.503
 11
14.7189
 21
121.527
  0
LINE
  8
0
 10
14.7189
 20
121.527
 11
14.5365
 21
121.573
  0
LINE
  8
0
 10
14.5365
 20
121.573
 11
14.3613
 21
121.643
  0
LINE
  8
0
 10
14.3613
 20
121.643
 11
14.1963
 21
121.734
  0
LINE
  8
0
 10
14.1963
 20
121.734
 11
14.0439
 21
121.844
  0
LINE
  8
0
 10
14.0439
 20
121.844
 11
13.9065
 21
121.973
  0
LINE
  8
0
 10
13.9065
 20
121.973
 11
13.7865
 21
122.118
  0
LINE
  8
0
 10
13.7865
 20
122.118
 11
13.6855
 21
122.277
  0
LINE
  8
0
 10
13.6855
 20
122.277
 11
13.6053
 21
122.448
  0
LINE
  8
0
 10
13.6053
 20
122.448
 11
13.5471
 21
122.627
  0
LINE
  8
0
 10
13.5471
 20
122.627
 11
13.5118
 21
122.812
  0
LINE
  8
0
 10
13.5118
 20
122.812
 11
13.5
 21
123
  0
LINE
  8
0
 10
13.5
 20
123
 11
13.5118
 21
123.188
  0
LINE
  8
0
 10
13.5118
 20
123.188
 11
13.5471
 21
123.373
  0
LINE
  8
0
 10
13.5471
 20
123.373
 11
13.6053
 21
123.552
  0
LINE
  8
0
 10
13.6053
 20
123.552
 11
13.6855
 21
123.723
  0
LINE
  8
0
 10
13.6855
 20
123.723
 11
13.7865
 21
123.882
  0
LINE
  8
0
 10
13.7865
 20
123.882
 11
13.9065
 21
124.027
  0
LINE
  8
0
 10
13.9065
 20
124.027
 11
14.0439
 21
124.156
  0
LINE
  8
0
 10
14.0439
 20
124.156
 11
14.1963
 21
124.266
  0
LINE
  8
0
 10
14.1963
 20
124.266
 11
14.3613
 21
124.357
  0
LINE
  8
0
 10
14.3613
 20
124.357
 11
14.5365
 21
124.427
  0
LINE
  8
0
 10
14.5365
 20
124.427
 11
14.7189
 21
124.473
  0
LINE
  8
0
 10
14.7189
 20
124.473
 11
14.9058
 21
124.497
  0
LINE
  8
0
 10
14.9058
 20
124.497
 11
15.0942
 21
124.497
  0
LINE
  8
0
 10
15.0942
 20
124.497
 11
15.2811
 21
124.473
  0
LINE
  8
0
 10
15.2811
 20
124.473
 11
15.4635
 21
124.427
  0
LINE
  8
0
 10
15.4635
 20
124.427
 11
15.6387
 21
124.357
  0
LINE
  8
0
 10
15.6387
 20
124.357
 11
15.8037
 21
124.266
  0
LINE
  8
0
 10
15.8037
 20
124.266
 11
15.9561
 21
124.156
  0
LINE
  8
0
 10
15.9561
 20
124.156
 11
16.0934
 21
124.027
  0
LINE
  8
0
 10
16.0934
 20
124.027
 11
16.2135
 21
123.882
  0
LINE
  8
0
 10
16.2135
 20
123.882
 11
16.3145
 21
123.723
  0
LINE
  8
0
 10
16.3145
 20
123.723
 11
16.3947
 21
123.552
  0
LINE
  8
0
 10
16.3947
 20
123.552
 11
16.4529
 21
123.373
  0
LINE
  8
0
 10
16.4529
 20
123.373
 11
16.4882
 21
123.188
  0
LINE
  8
0
 10
16.4882
 20
123.188
 11
16.5
 21
123
  0
LINE
  8
0
 10
16.5
 20
123
 11
16.4882
 21
122.812
  0
LINE
  8
0
 10
16.4882
 20
122.812
 11
16.4529
 21
122.627
  0
LINE
  8
0
 10
16.4529
 20
122.627
 11
16.3947
 21
122.448
  0
LINE
  8
0
 10
16.3947
 20
122.448
 11
16.3145
 21
122.277
  0
LINE
  8
0
 10
16.3145
 20
122.277
 11
16.2135
 21
122.118
  0
LINE
  8
0
 10
16.2135
 20
122.118
 11
16.0934
 21
121.973
  0
LINE
  8
0
 10
16.0934
 20
121.973
 11
15.9561
 21
121.844
  0
LINE
  8
0
 10
15.9561
 20
121.844
 11
15.8037
 21
121.734
  0
LINE
  8
0
 10
15.8037
 20
121.734
 11
15.6387
 21
121.643
  0
LINE
  8
0
 10
15.6387
 20
121.643
 11
15.4635
 21
121.573
  0
LINE
  8
0
 10
15.4635
 20
121.573
 11
15.2811
 21
121.527
  0
LINE
  8
0
 10
15.2811
 20
121.527
 11
15.0942
 21
121.503
  0
LINE
  8
0
 10
15.0942
 20
121.503
 11
14.9058
 21
121.503
  0
LINE
  8
0
 10
13.4133
 20
112.752
 11
11.8265
 21
115.5
  0
LINE
  8
0
 10
11.8265
 20
115.5
 11
13.4133
 21
118.248
  0
LINE
  8
0
 10
13.4133
 20
118.248
 11
16.5867
 21
118.248
  0
LINE
  8
0
 10
16.5867
 20
118.248
 11
18.1735
 21
115.5
  0
LINE
  8
0
 10
18.1735
 20
115.5
 11
16.5867
 21
112.752
  0
LINE
  8
0
 10
16.5867
 20
112.752
 11
13.4133
 21
112.752
  0
LINE
  8
0
 10
37.4058
 20
114.003
 11
37.2189
 21
114.027
  0
LINE
  8
0
 10
37.2189
 20
114.027
 11
37.0365
 21
114.073
  0
LINE
  8
0
 10
37.0365
 20
114.073
 11
36.8613
 21
114.143
  0
LINE
  8
0
 10
36.8613
 20
114.143
 11
36.6963
 21
114.234
  0
LINE
  8
0
 10
36.6963
 20
114.234
 11
36.5439
 21
114.344
  0
LINE
  8
0
 10
36.5439
 20
114.344
 11
36.4065
 21
114.473
  0
LINE
  8
0
 10
36.4065
 20
114.473
 11
36.2865
 21
114.618
  0
LINE
  8
0
 10
36.2865
 20
114.618
 11
36.1855
 21
114.777
  0
LINE
  8
0
 10
36.1855
 20
114.777
 11
36.1053
 21
114.948
  0
LINE
  8
0
 10
36.1053
 20
114.948
 11
36.0471
 21
115.127
  0
LINE
  8
0
 10
36.0471
 20
115.127
 11
36.0118
 21
115.312
  0
LINE
  8
0
 10
36.0118
 20
115.312
 11
36
 21
115.5
  0
LINE
  8
0
 10
36
 20
115.5
 11
36.0118
 21
115.688
  0
LINE
  8
0
 10
36.0118
 20
115.688
 11
36.0471
 21
115.873
  0
LINE
  8
0
 10
36.0471
 20
115.873
 11
36.1053
 21
116.052
  0
LINE
  8
0
 10
36.1053
 20
116.052
 11
36.1855
 21
116.223
  0
LINE
  8
0
 10
36.1855
 20
116.223
 11
36.2865
 21
116.382
  0
LINE
  8
0
 10
36.2865
 20
116.382
 11
36.4065
 21
116.527
  0
LINE
  8
0
 10
36.4065
 20
116.527
 11
36.5439
 21
116.656
  0
LINE
  8
0
 10
36.5439
 20
116.656
 11
36.6963
 21
116.766
  0
LINE
  8
0
 10
36.6963
 20
116.766
 11
36.8613
 21
116.857
  0
LINE
  8
0
 10
36.8613
 20
116.857
 11
37.0365
 21
116.927
  0
LINE
  8
0
 10
37.0365
 20
116.927
 11
37.2189
 21
116.973
  0
LINE
  8
0
 10
37.2189
 20
116.973
 11
37.4058
 21
116.997
  0
LINE
  8
0
 10
37.4058
 20
116.997
 11
37.5942
 21
116.997
  0
LINE
  8
0
 10
37.5942
 20
116.997
 11
37.7811
 21
116.973
  0
LINE
  8
0
 10
37.7811
 20
116.973
 11
37.9635
 21
116.927
  0
LINE
  8
0
 10
37.9635
 20
116.927
 11
38.1387
 21
116.857
  0
LINE
  8
0
 10
38.1387
 20
116.857
 11
38.3037
 21
116.766
  0
LINE
  8
0
 10
38.3037
 20
116.766
 11
38.4561
 21
116.656
  0
LINE
  8
0
 10
38.4561
 20
116.656
 11
38.5934
 21
116.527
  0
LINE
  8
0
 10
38.5934
 20
116.527
 11
38.7135
 21
116.382
  0
LINE
  8
0
 10
38.7135
 20
116.382
 11
38.8145
 21
116.223
  0
LINE
  8
0
 10
38.8145
 20
116.223
 11
38.8947
 21
116.052
  0
LINE
  8
0
 10
38.8947
 20
116.052
 11
38.9529
 21
115.873
  0
LINE
  8
0
 10
38.9529
 20
115.873
 11
38.9882
 21
115.688
  0
LINE
  8
0
 10
38.9882
 20
115.688
 11
39
 21
115.5
  0
LINE
  8
0
 10
39
 20
115.5
 11
38.9882
 21
115.312
  0
LINE
  8
0
 10
38.9882
 20
115.312
 11
38.9529
 21
115.127
  0
LINE
  8
0
 10
38.9529
 20
115.127
 11
38.8947
 21
114.948
  0
LINE
  8
0
 10
38.8947
 20
114.948
 11
38.8145
 21
114.777
  0
LINE
  8
0
 10
38.8145
 20
114.777
 11
38.7135
 21
114.618
  0
LINE
  8
0
 10
38.7135
 20
114.618
 11
38.5934
 21
114.473
  0
LINE
  8
0
 10
38.5934
 20
114.473
 11
38.4561
 21
114.344
  0
LINE
  8
0
 10
38.4561
 20
114.344
 11
38.3037
 21
114.234
  0
LINE
  8
0
 10
38.3037
 20
114.234
 11
38.1387
 21
114.143
  0
LINE
  8
0
 10
38.1387
 20
114.143
 11
37.9635
 21
114.073
  0
LINE
  8
0
 10
37.9635
 20
114.073
 11
37.7811
 21
114.027
  0
LINE
  8
0
 10
37.7811
 20
114.027
 11
37.5942
 21
114.003
  0
LINE
  8
0
 10
37.5942
 20
114.003
 11
37.4058
 21
114.003
  0
LINE
  8
0
 10
25.044
 20
103
 11
25.044
 21
113
  0
LINE
  8
0
 10
25.044
 20
113
 11
32.044
 21
113
  0
LINE
  8
0
 10
32.044
 20
113
 11
32.044
 21
103
  0
LINE
  8
0
 10
32.044
 20
103
 11
25.044
 21
103
  0
LINE
  8
0
 10
37.3116
 20
105.006
 11
36.9379
 21
105.053
  0
LINE
  8
0
 10
36.9379
 20
105.053
 11
36.5729
 21
105.147
  0
LINE
  8
0
 10
36.5729
 20
105.147
 11
36.2227
 21
105.286
  0
LINE
  8
0
 10
36.2227
 20
105.286
 11
35.8925
 21
105.467
  0
LINE
  8
0
 10
35.8925
 20
105.467
 11
35.5877
 21
105.688
  0
LINE
  8
0
 10
35.5877
 20
105.688
 11
35.3131
 21
105.946
  0
LINE
  8
0
 10
35.3131
 20
105.946
 11
35.0729
 21
106.237
  0
LINE
  8
0
 10
35.0729
 20
106.237
 11
34.8711
 21
106.555
  0
LINE
  8
0
 10
34.8711
 20
106.555
 11
34.7107
 21
106.896
  0
LINE
  8
0
 10
34.7107
 20
106.896
 11
34.5942
 21
107.254
  0
LINE
  8
0
 10
34.5942
 20
107.254
 11
34.5237
 21
107.624
  0
LINE
  8
0
 10
34.5237
 20
107.624
 11
34.5
 21
108
  0
LINE
  8
0
 10
34.5
 20
108
 11
34.5237
 21
108.376
  0
LINE
  8
0
 10
34.5237
 20
108.376
 11
34.5942
 21
108.746
  0
LINE
  8
0
 10
34.5942
 20
108.746
 11
34.7107
 21
109.104
  0
LINE
  8
0
 10
34.7107
 20
109.104
 11
34.8711
 21
109.445
  0
LINE
  8
0
 10
34.8711
 20
109.445
 11
35.0729
 21
109.763
  0
LINE
  8
0
 10
35.0729
 20
109.763
 11
35.3131
 21
110.054
  0
LINE
  8
0
 10
35.3131
 20
110.054
 11
35.5877
 21
110.312
  0
LINE
  8
0
 10
35.5877
 20
110.312
 11
35.8925
 21
110.533
  0
LINE
  8
0
 10
35.8925
 20
110.533
 11
36.2227
 21
110.714
  0
LINE
  8
0
 10
36.2227
 20
110.714
 11
36.5729
 21
110.853
  0
LINE
  8
0
 10
36.5729
 20
110.853
 11
36.9379
 21
110.947
  0
LINE
  8
0
 10
36.9379
 20
110.947
 11
37.3116
 21
110.994
  0
LINE
  8
0
 10
37.3116
 20
110.994
 11
37.6884
 21
110.994
  0
LINE
  8
0
 10
37.6884
 20
110.994
 11
38.0621
 21
110.947
  0
LINE
  8
0
 10
38.0621
 20
110.947
 11
38.427
 21
110.853
  0
LINE
  8
0
 10
38.427
 20
110.853
 11
38.7773
 21
110.714
  0
LINE
  8
0
 10
38.7773
 20
110.714
 11
39.1075
 21
110.533
  0
LINE
  8
0
 10
39.1075
 20
110.533
 11
39.4123
 21
110.312
  0
LINE
  8
0
 10
39.4123
 20
110.312
 11
39.6869
 21
110.054
  0
LINE
  8
0
 10
39.6869
 20
110.054
 11
39.927
 21
109.763
  0
LINE
  8
0
 10
39.927
 20
109.763
 11
40.1289
 21
109.445
  0
LINE
  8
0
 10
40.1289
 20
109.445
 11
40.2893
 21
109.104
  0
LINE
  8
0
 10
40.2893
 20
109.104
 11
40.4057
 21
108.746
  0
LINE
  8
0
 10
40.4057
 20
108.746
 11
40.4763
 21
108.376
  0
LINE
  8
0
 10
40.4763
 20
108.376
 11
40.5
 21
108
  0
LINE
  8
0
 10
40.5
 20
108
 11
40.4763
 21
107.624
  0
LINE
  8
0
 10
40.4763
 20
107.624
 11
40.4057
 21
107.254
  0
LINE
  8
0
 10
40.4057
 20
107.254
 11
40.2893
 21
106.896
  0
LINE
  8
0
 10
40.2893
 20
106.896
 11
40.1289
 21
106.555
  0
LINE
  8
0
 10
40.1289
 20
106.555
 11
39.927
 21
106.237
  0
LINE
  8
0
 10
39.927
 20
106.237
 11
39.6869
 21
105.946
  0
LINE
  8
0
 10
39.6869
 20
105.946
 11
39.4123
 21
105.688
  0
LINE
  8
0
 10
39.4123
 20
105.688
 11
39.1075
 21
105.467
  0
LINE
  8
0
 10
39.1075
 20
105.467
 11
38.7773
 21
105.286
  0
LINE
  8
0
 10
38.7773
 20
105.286
 11
38.427
 21
105.147
  0
LINE
  8
0
 10
38.427
 20
105.147
 11
38.0621
 21
105.053
  0
LINE
  8
0
 10
38.0621
 20
105.053
 11
37.6884
 21
105.006
  0
LINE
  8
0
 10
37.6884
 20
105.006
 11
37.3116
 21
105.006
  0
LINE
  8
0
 10
13.4133
 20
97.7517
 11
11.8265
 21
100.5
  0
LINE
  8
0
 10
11.8265
 20
100.5
 11
13.4133
 21
103.248
  0
LINE
  8
0
 10
13.4133
 20
103.248
 11
16.5867
 21
103.248
  0
LINE
  8
0
 10
16.5867
 20
103.248
 11
18.1735
 21
100.5
  0
LINE
  8
0
 10
18.1735
 20
100.5
 11
16.5867
 21
97.7517
  0
LINE
  8
0
 10
16.5867
 20
97.7517
 11
13.4133
 21
97.7517
  0
LINE
  8
0
 10
37.4058
 20
99.003
 11
37.2189
 21
99.0266
  0
LINE
  8
0
 10
37.2189
 20
99.0266
 11
37.0365
 21
99.0734
  0
LINE
  8
0
 10
37.0365
 20
99.0734
 11
36.8613
 21
99.1428
  0
LINE
  8
0
 10
36.8613
 20
99.1428
 11
36.6963
 21
99.2335
  0
LINE
  8
0
 10
36.6963
 20
99.2335
 11
36.5439
 21
99.3442
  0
LINE
  8
0
 10
36.5439
 20
99.3442
 11
36.4065
 21
99.4732
  0
LINE
  8
0
 10
36.4065
 20
99.4732
 11
36.2865
 21
99.6183
  0
LINE
  8
0
 10
36.2865
 20
99.6183
 11
36.1855
 21
99.7774
  0
LINE
  8
0
 10
36.1855
 20
99.7774
 11
36.1053
 21
99.9478
  0
LINE
  8
0
 10
36.1053
 20
99.9478
 11
36.0471
 21
100.127
  0
LINE
  8
0
 10
36.0471
 20
100.127
 11
36.0118
 21
100.312
  0
LINE
  8
0
 10
36.0118
 20
100.312
 11
36
 21
100.5
  0
LINE
  8
0
 10
36
 20
100.5
 11
36.0118
 21
100.688
  0
LINE
  8
0
 10
36.0118
 20
100.688
 11
36.0471
 21
100.873
  0
LINE
  8
0
 10
36.0471
 20
100.873
 11
36.1053
 21
101.052
  0
LINE
  8
0
 10
36.1053
 20
101.052
 11
36.1855
 21
101.223
  0
LINE
  8
0
 10
36.1855
 20
101.223
 11
36.2865
 21
101.382
  0
LINE
  8
0
 10
36.2865
 20
101.382
 11
36.4065
 21
101.527
  0
LINE
  8
0
 10
36.4065
 20
101.527
 11
36.5439
 21
101.656
  0
LINE
  8
0
 10
36.5439
 20
101.656
 11
36.6963
 21
101.766
  0
LINE
  8
0
 10
36.6963
 20
101.766
 11
36.8613
 21
101.857
  0
LINE
  8
0
 10
36.8613
 20
101.857
 11
37.0365
 21
101.927
  0
LINE
  8
0
 10
37.0365
 20
101.927
 11
37.2189
 21
101.973
  0
LINE
  8
0
 10
37.2189
 20
101.973
 11
37.4058
 21
101.997
  0
LINE
  8
0
 10
37.4058
 20
101.997
 11
37.5942
 21
101.997
  0
LINE
  8
0
 10
37.5942
 20
101.997
 11
37.7811
 21
101.973
  0
LINE
  8
0
 10
37.7811
 20
101.973
 11
37.9635
 21
101.927
  0
LINE
  8
0
 10
37.9635
 20
101.927
 11
38.1387
 21
101.857
  0
LINE
  8
0
 10
38.1387
 20
101.857
 11
38.3037
 21
101.766
  0
LINE
  8
0
 10
38.3037
 20
101.766
 11
38.4561
 21
101.656
  0
LINE
  8
0
 10
38.4561
 20
101.656
 11
38.5934
 21
101.527
  0
LINE
  8
0
 10
38.5934
 20
101.527
 11
38.7135
 21
101.382
  0
LINE
  8
0
 10
38.7135
 20
101.382
 11
38.8145
 21
101.223
  0
LINE
  8
0
 10
38.8145
 20
101.223
 11
38.8947
 21
101.052
  0
LINE
  8
0
 10
38.8947
 20
101.052
 11
38.9529
 21
100.873
  0
LINE
  8
0
 10
38.9529
 20
100.873
 11
38.9882
 21
100.688
  0
LINE
  8
0
 10
38.9882
 20
100.688
 11
39
 21
100.5
  0
LINE
  8
0
 10
39
 20
100.5
 11
38.9882
 21
100.312
  0
LINE
  8
0
 10
38.9882
 20
100.312
 11
38.9529
 21
100.127
  0
LINE
  8
0
 10
38.9529
 20
100.127
 11
38.8947
 21
99.9478
  0
LINE
  8
0
 10
38.8947
 20
99.9478
 11
38.8145
 21
99.7774
  0
LINE
  8
0
 10
38.8145
 20
99.7774
 11
38.7135
 21
99.6183
  0
LINE
  8
0
 10
38.7135
 20
99.6183
 11
38.5934
 21
99.4732
  0
LINE
  8
0
 10
38.5934
 20
99.4732
 11
38.4561
 21
99.3442
  0
LINE
  8
0
 10
38.4561
 20
99.3442
 11
38.3037
 21
99.2335
  0
LINE
  8
0
 10
38.3037
 20
99.2335
 11
38.1387
 21
99.1428
  0
LINE
  8
0
 10
38.1387
 20
99.1428
 11
37.9635
 21
99.0734
  0
LINE
  8
0
 10
37.9635
 20
99.0734
 11
37.7811
 21
99.0266
  0
LINE
  8
0
 10
37.7811
 20
99.0266
 11
37.5942
 21
99.003
  0
LINE
  8
0
 10
37.5942
 20
99.003
 11
37.4058
 21
99.003
  0
LINE
  8
0
 10
37.3116
 20
90.0059
 11
36.9379
 21
90.0531
  0
LINE
  8
0
 10
36.9379
 20
90.0531
 11
36.5729
 21
90.1468
  0
LINE
  8
0
 10
36.5729
 20
90.1468
 11
36.2227
 21
90.2855
  0
LINE
  8
0
 10
36.2227
 20
90.2855
 11
35.8925
 21
90.467
  0
LINE
  8
0
 10
35.8925
 20
90.467
 11
35.5877
 21
90.6885
  0
LINE
  8
0
 10
35.5877
 20
90.6885
 11
35.3131
 21
90.9464
  0
LINE
  8
0
 10
35.3131
 20
90.9464
 11
35.0729
 21
91.2366
  0
LINE
  8
0
 10
35.0729
 20
91.2366
 11
34.8711
 21
91.5547
  0
LINE
  8
0
 10
34.8711
 20
91.5547
 11
34.7107
 21
91.8956
  0
LINE
  8
0
 10
34.7107
 20
91.8956
 11
34.5942
 21
92.2539
  0
LINE
  8
0
 10
34.5942
 20
92.2539
 11
34.5237
 21
92.624
  0
LINE
  8
0
 10
34.5237
 20
92.624
 11
34.5
 21
93
  0
LINE
  8
0
 10
34.5
 20
93
 11
34.5237
 21
93.376
  0
LINE
  8
0
 10
34.5237
 20
93.376
 11
34.5942
 21
93.7461
  0
LINE
  8
0
 10
34.5942
 20
93.7461
 11
34.7107
 21
94.1044
  0
LINE
  8
0
 10
34.7107
 20
94.1044
 11
34.8711
 21
94.4453
  0
LINE
  8
0
 10
34.8711
 20
94.4453
 11
35.0729
 21
94.7634
  0
LINE
  8
0
 10
35.0729
 20
94.7634
 11
35.3131
 21
95.0536
  0
LINE
  8
0
 10
35.3131
 20
95.0536
 11
35.5877
 21
95.3116
  0
LINE
  8
0
 10
35.5877
 20
95.3116
 11
35.8925
 21
95.533
  0
LINE
  8
0
 10
35.8925
 20
95.533
 11
36.2227
 21
95.7145
  0
LINE
  8
0
 10
36.2227
 20
95.7145
 11
36.5729
 21
95.8532
  0
LINE
  8
0
 10
36.5729
 20
95.8532
 11
36.9379
 21
95.9469
  0
LINE
  8
0
 10
36.9379
 20
95.9469
 11
37.3116
 21
95.9941
  0
LINE
  8
0
 10
37.3116
 20
95.9941
 11
37.6884
 21
95.9941
  0
LINE
  8
0
 10
37.6884
 20
95.9941
 11
38.0621
 21
95.9469
  0
LINE
  8
0
 10
38.0621
 20
95.9469
 11
38.427
 21
95.8532
  0
LINE
  8
0
 10
38.427
 20
95.8532
 11
38.7773
 21
95.7145
  0
LINE
  8
0
 10
38.7773
 20
95.7145
 11
39.1075
 21
95.533
  0
LINE
  8
0
 10
39.1075
 20
95.533
 11
39.4123
 21
95.3116
  0
LINE
  8
0
 10
39.4123
 20
95.3116
 11
39.6869
 21
95.0536
  0
LINE
  8
0
 10
39.6869
 20
95.0536
 11
39.927
 21
94.7634
  0
LINE
  8
0
 10
39.927
 20
94.7634
 11
40.1289
 21
94.4453
  0
LINE
  8
0
 10
40.1289
 20
94.4453
 11
40.2893
 21
94.1044
  0
LINE
  8
0
 10
40.2893
 20
94.1044
 11
40.4057
 21
93.7461
  0
LINE
  8
0
 10
40.4057
 20
93.7461
 11
40.4763
 21
93.376
  0
LINE
  8
0
 10
40.4763
 20
93.376
 11
40.5
 21
93
  0
LINE
  8
0
 10
40.5
 20
93
 11
40.4763
 21
92.624
  0
LINE
  8
0
 10
40.4763
 20
92.624
 11
40.4057
 21
92.2539
  0
LINE
  8
0
 10
40.4057
 20
92.2539
 11
40.2893
 21
91.8956
  0
LINE
  8
0
 10
40.2893
 20
91.8956
 11
40.1289
 21
91.5547
  0
LINE
  8
0
 10
40.1289
 20
91.5547
 11
39.927
 21
91.2366
  0
LINE
  8
0
 10
39.927
 20
91.2366
 11
39.6869
 21
90.9464
  0
LINE
  8
0
 10
39.6869
 20
90.9464
 11
39.4123
 21
90.6885
  0
LINE
  8
0
 10
39.4123
 20
90.6885
 11
39.1075
 21
90.467
  0
LINE
  8
0
 10
39.1075
 20
90.467
 11
38.7773
 21
90.2855
  0
LINE
  8
0
 10
38.7773
 20
90.2855
 11
38.427
 21
90.1468
  0
LINE
  8
0
 10
38.427
 20
90.1468
 11
38.0621
 21
90.0531
  0
LINE
  8
0
 10
38.0621
 20
90.0531
 11
37.6884
 21
90.0059
  0
LINE
  8
0
 10
37.6884
 20
90.0059
 11
37.3116
 21
90.0059
  0
LINE
  8
0
 10
7.31161
 20
90.0059
 11
6.93785
 21
90.0531
  0
LINE
  8
0
 10
6.93785
 20
90.0531
 11
6.57294
 21
90.1468
  0
LINE
  8
0
 10
6.57294
 20
90.1468
 11
6.22266
 21
90.2855
  0
LINE
  8
0
 10
6.22266
 20
90.2855
 11
5.89252
 21
90.467
  0
LINE
  8
0
 10
5.89252
 20
90.467
 11
5.58772
 21
90.6885
  0
LINE
  8
0
 10
5.58772
 20
90.6885
 11
5.31308
 21
90.9464
  0
LINE
  8
0
 10
5.31308
 20
90.9464
 11
5.07294
 21
91.2366
  0
LINE
  8
0
 10
5.07294
 20
91.2366
 11
4.87108
 21
91.5547
  0
LINE
  8
0
 10
4.87108
 20
91.5547
 11
4.71066
 21
91.8956
  0
LINE
  8
0
 10
4.71066
 20
91.8956
 11
4.59424
 21
92.2539
  0
LINE
  8
0
 10
4.59424
 20
92.2539
 11
4.52365
 21
92.624
  0
LINE
  8
0
 10
4.52365
 20
92.624
 11
4.5
 21
93
  0
LINE
  8
0
 10
4.5
 20
93
 11
4.52365
 21
93.376
  0
LINE
  8
0
 10
4.52365
 20
93.376
 11
4.59424
 21
93.7461
  0
LINE
  8
0
 10
4.59424
 20
93.7461
 11
4.71066
 21
94.1044
  0
LINE
  8
0
 10
4.71066
 20
94.1044
 11
4.87108
 21
94.4453
  0
LINE
  8
0
 10
4.87108
 20
94.4453
 11
5.07294
 21
94.7634
  0
LINE
  8
0
 10
5.07294
 20
94.7634
 11
5.31308
 21
95.0536
  0
LINE
  8
0
 10
5.31308
 20
95.0536
 11
5.58772
 21
95.3116
  0
LINE
  8
0
 10
5.58772
 20
95.3116
 11
5.89252
 21
95.533
  0
LINE
  8
0
 10
5.89252
 20
95.533
 11
6.22266
 21
95.7145
  0
LINE
  8
0
 10
6.22266
 20
95.7145
 11
6.57294
 21
95.8532
  0
LINE
  8
0
 10
6.57294
 20
95.8532
 11
6.93785
 21
95.9469
  0
LINE
  8
0
 10
6.93785
 20
95.9469
 11
7.31161
 21
95.9941
  0
LINE
  8
0
 10
7.31161
 20
95.9941
 11
7.68837
 21
95.9941
  0
LINE
  8
0
 10
7.68837
 20
95.9941
 11
8.06213
 21
95.9469
  0
LINE
  8
0
 10
8.06213
 20
95.9469
 11
8.42705
 21
95.8532
  0
LINE
  8
0
 10
8.42705
 20
95.8532
 11
8.77733
 21
95.7145
  0
LINE
  8
0
 10
8.77733
 20
95.7145
 11
9.10747
 21
95.533
  0
LINE
  8
0
 10
9.10747
 20
95.533
 11
9.41226
 21
95.3116
  0
LINE
  8
0
 10
9.41226
 20
95.3116
 11
9.6869
 21
95.0536
  0
LINE
  8
0
 10
9.6869
 20
95.0536
 11
9.92705
 21
94.7634
  0
LINE
  8
0
 10
9.92705
 20
94.7634
 11
10.1289
 21
94.4453
  0
LINE
  8
0
 10
10.1289
 20
94.4453
 11
10.2893
 21
94.1044
  0
LINE
  8
0
 10
10.2893
 20
94.1044
 11
10.4057
 21
93.7461
  0
LINE
  8
0
 10
10.4057
 20
93.7461
 11
10.4763
 21
93.376
  0
LINE
  8
0
 10
10.4763
 20
93.376
 11
10.5
 21
93
  0
LINE
  8
0
 10
10.5
 20
93
 11
10.4763
 21
92.624
  0
LINE
  8
0
 10
10.4763
 20
92.624
 11
10.4057
 21
92.2539
  0
LINE
  8
0
 10
10.4057
 20
92.2539
 11
10.2893
 21
91.8956
  0
LINE
  8
0
 10
10.2893
 20
91.8956
 11
10.1289
 21
91.5547
  0
LINE
  8
0
 10
10.1289
 20
91.5547
 11
9.92705
 21
91.2366
  0
LINE
  8
0
 10
9.92705
 20
91.2366
 11
9.6869
 21
90.9464
  0
LINE
  8
0
 10
9.6869
 20
90.9464
 11
9.41226
 21
90.6885
  0
LINE
  8
0
 10
9.41226
 20
90.6885
 11
9.10747
 21
90.467
  0
LINE
  8
0
 10
9.10747
 20
90.467
 11
8.77733
 21
90.2855
  0
LINE
  8
0
 10
8.77733
 20
90.2855
 11
8.42705
 21
90.1468
  0
LINE
  8
0
 10
8.42705
 20
90.1468
 11
8.06213
 21
90.0531
  0
LINE
  8
0
 10
8.06213
 20
90.0531
 11
7.68837
 21
90.0059
  0
LINE
  8
0
 10
7.68837
 20
90.0059
 11
7.31161
 21
90.0059
  0
LINE
  8
0
 10
20.8267
 20
90.1018
 11
19.1534
 21
93
  0
LINE
  8
0
 10
19.1534
 20
93
 11
20.8267
 21
95.8982
  0
LINE
  8
0
 10
20.8267
 20
95.8982
 11
24.1733
 21
95.8982
  0
LINE
  8
0
 10
24.1733
 20
95.8982
 11
25.8466
 21
93
  0
LINE
  8
0
 10
25.8466
 20
93
 11
24.1733
 21
90.1018
  0
LINE
  8
0
 10
24.1733
 20
90.1018
 11
20.8267
 21
90.1018
  0
LINE
  8
0
 10
29.9058
 20
91.503
 11
29.7189
 21
91.5266
  0
LINE
  8
0
 10
29.7189
 20
91.5266
 11
29.5365
 21
91.5734
  0
LINE
  8
0
 10
29.5365
 20
91.5734
 11
29.3613
 21
91.6428
  0
LINE
  8
0
 10
29.3613
 20
91.6428
 11
29.1963
 21
91.7335
  0
LINE
  8
0
 10
29.1963
 20
91.7335
 11
29.0439
 21
91.8442
  0
LINE
  8
0
 10
29.0439
 20
91.8442
 11
28.9065
 21
91.9732
  0
LINE
  8
0
 10
28.9065
 20
91.9732
 11
28.7865
 21
92.1183
  0
LINE
  8
0
 10
28.7865
 20
92.1183
 11
28.6855
 21
92.2774
  0
LINE
  8
0
 10
28.6855
 20
92.2774
 11
28.6053
 21
92.4478
  0
LINE
  8
0
 10
28.6053
 20
92.4478
 11
28.5471
 21
92.627
  0
LINE
  8
0
 10
28.5471
 20
92.627
 11
28.5118
 21
92.812
  0
LINE
  8
0
 10
28.5118
 20
92.812
 11
28.5
 21
93
  0
LINE
  8
0
 10
28.5
 20
93
 11
28.5118
 21
93.188
  0
LINE
  8
0
 10
28.5118
 20
93.188
 11
28.5471
 21
93.373
  0
LINE
  8
0
 10
28.5471
 20
93.373
 11
28.6053
 21
93.5522
  0
LINE
  8
0
 10
28.6053
 20
93.5522
 11
28.6855
 21
93.7226
  0
LINE
  8
0
 10
28.6855
 20
93.7226
 11
28.7865
 21
93.8817
  0
LINE
  8
0
 10
28.7865
 20
93.8817
 11
28.9065
 21
94.0268
  0
LINE
  8
0
 10
28.9065
 20
94.0268
 11
29.0439
 21
94.1558
  0
LINE
  8
0
 10
29.0439
 20
94.1558
 11
29.1963
 21
94.2665
  0
LINE
  8
0
 10
29.1963
 20
94.2665
 11
29.3613
 21
94.3573
  0
LINE
  8
0
 10
29.3613
 20
94.3573
 11
29.5365
 21
94.4266
  0
LINE
  8
0
 10
29.5365
 20
94.4266
 11
29.7189
 21
94.4734
  0
LINE
  8
0
 10
29.7189
 20
94.4734
 11
29.9058
 21
94.4971
  0
LINE
  8
0
 10
29.9058
 20
94.4971
 11
30.0942
 21
94.4971
  0
LINE
  8
0
 10
30.0942
 20
94.4971
 11
30.2811
 21
94.4734
  0
LINE
  8
0
 10
30.2811
 20
94.4734
 11
30.4635
 21
94.4266
  0
LINE
  8
0
 10
30.4635
 20
94.4266
 11
30.6387
 21
94.3573
  0
LINE
  8
0
 10
30.6387
 20
94.3573
 11
30.8037
 21
94.2665
  0
LINE
  8
0
 10
30.8037
 20
94.2665
 11
30.9561
 21
94.1558
  0
LINE
  8
0
 10
30.9561
 20
94.1558
 11
31.0934
 21
94.0268
  0
LINE
  8
0
 10
31.0934
 20
94.0268
 11
31.2135
 21
93.8817
  0
LINE
  8
0
 10
31.2135
 20
93.8817
 11
31.3145
 21
93.7226
  0
LINE
  8
0
 10
31.3145
 20
93.7226
 11
31.3947
 21
93.5522
  0
LINE
  8
0
 10
31.3947
 20
93.5522
 11
31.4529
 21
93.373
  0
LINE
  8
0
 10
31.4529
 20
93.373
 11
31.4882
 21
93.188
  0
LINE
  8
0
 10
31.4882
 20
93.188
 11
31.5
 21
93
  0
LINE
  8
0
 10
31.5
 20
93
 11
31.4882
 21
92.812
  0
LINE
  8
0
 10
31.4882
 20
92.812
 11
31.4529
 21
92.627
  0
LINE
  8
0
 10
31.4529
 20
92.627
 11
31.3947
 21
92.4478
  0
LINE
  8
0
 10
31.3947
 20
92.4478
 11
31.3145
 21
92.2774
  0
LINE
  8
0
 10
31.3145
 20
92.2774
 11
31.2135
 21
92.1183
  0
LINE
  8
0
 10
31.2135
 20
92.1183
 11
31.0934
 21
91.9732
  0
LINE
  8
0
 10
31.0934
 20
91.9732
 11
30.9561
 21
91.8442
  0
LINE
  8
0
 10
30.9561
 20
91.8442
 11
30.8037
 21
91.7335
  0
LINE
  8
0
 10
30.8037
 20
91.7335
 11
30.6387
 21
91.6428
  0
LINE
  8
0
 10
30.6387
 20
91.6428
 11
30.4635
 21
91.5734
  0
LINE
  8
0
 10
30.4635
 20
91.5734
 11
30.2811
 21
91.5266
  0
LINE
  8
0
 10
30.2811
 20
91.5266
 11
30.0942
 21
91.503
  0
LINE
  8
0
 10
30.0942
 20
91.503
 11
29.9058
 21
91.503
  0
LINE
  8
0
 10
14.9058
 20
91.503
 11
14.7189
 21
91.5266
  0
LINE
  8
0
 10
14.7189
 20
91.5266
 11
14.5365
 21
91.5734
  0
LINE
  8
0
 10
14.5365
 20
91.5734
 11
14.3613
 21
91.6428
  0
LINE
  8
0
 10
14.3613
 20
91.6428
 11
14.1963
 21
91.7335
  0
LINE
  8
0
 10
14.1963
 20
91.7335
 11
14.0439
 21
91.8442
  0
LINE
  8
0
 10
14.0439
 20
91.8442
 11
13.9065
 21
91.9732
  0
LINE
  8
0
 10
13.9065
 20
91.9732
 11
13.7865
 21
92.1183
  0
LINE
  8
0
 10
13.7865
 20
92.1183
 11
13.6855
 21
92.2774
  0
LINE
  8
0
 10
13.6855
 20
92.2774
 11
13.6053
 21
92.4478
  0
LINE
  8
0
 10
13.6053
 20
92.4478
 11
13.5471
 21
92.627
  0
LINE
  8
0
 10
13.5471
 20
92.627
 11
13.5118
 21
92.812
  0
LINE
  8
0
 10
13.5118
 20
92.812
 11
13.5
 21
93
  0
LINE
  8
0
 10
13.5
 20
93
 11
13.5118
 21
93.188
  0
LINE
  8
0
 10
13.5118
 20
93.188
 11
13.5471
 21
93.373
  0
LINE
  8
0
 10
13.5471
 20
93.373
 11
13.6053
 21
93.5522
  0
LINE
  8
0
 10
13.6053
 20
93.5522
 11
13.6855
 21
93.7226
  0
LINE
  8
0
 10
13.6855
 20
93.7226
 11
13.7865
 21
93.8817
  0
LINE
  8
0
 10
13.7865
 20
93.8817
 11
13.9065
 21
94.0268
  0
LINE
  8
0
 10
13.9065
 20
94.0268
 11
14.0439
 21
94.1558
  0
LINE
  8
0
 10
14.0439
 20
94.1558
 11
14.1963
 21
94.2665
  0
LINE
  8
0
 10
14.1963
 20
94.2665
 11
14.3613
 21
94.3573
  0
LINE
  8
0
 10
14.3613
 20
94.3573
 11
14.5365
 21
94.4266
  0
LINE
  8
0
 10
14.5365
 20
94.4266
 11
14.7189
 21
94.4734
  0
LINE
  8
0
 10
14.7189
 20
94.4734
 11
14.9058
 21
94.4971
  0
LINE
  8
0
 10
14.9058
 20
94.4971
 11
15.0942
 21
94.4971
  0
LINE
  8
0
 10
15.0942
 20
94.4971
 11
15.2811
 21
94.4734
  0
LINE
  8
0
 10
15.2811
 20
94.4734
 11
15.4635
 21
94.4266
  0
LINE
  8
0
 10
15.4635
 20
94.4266
 11
15.6387
 21
94.3573
  0
LINE
  8
0
 10
15.6387
 20
94.3573
 11
15.8037
 21
94.2665
  0
LINE
  8
0
 10
15.8037
 20
94.2665
 11
15.9561
 21
94.1558
  0
LINE
  8
0
 10
15.9561
 20
94.1558
 11
16.0934
 21
94.0268
  0
LINE
  8
0
 10
16.0934
 20
94.0268
 11
16.2135
 21
93.8817
  0
LINE
  8
0
 10
16.2135
 20
93.8817
 11
16.3145
 21
93.7226
  0
LINE
  8
0
 10
16.3145
 20
93.7226
 11
16.3947
 21
93.5522
  0
LINE
  8
0
 10
16.3947
 20
93.5522
 11
16.4529
 21
93.373
  0
LINE
  8
0
 10
16.4529
 20
93.373
 11
16.4882
 21
93.188
  0
LINE
  8
0
 10
16.4882
 20
93.188
 11
16.5
 21
93
  0
LINE
  8
0
 10
16.5
 20
93
 11
16.4882
 21
92.812
  0
LINE
  8
0
 10
16.4882
 20
92.812
 11
16.4529
 21
92.627
  0
LINE
  8
0
 10
16.4529
 20
92.627
 11
16.3947
 21
92.4478
  0
LINE
  8
0
 10
16.3947
 20
92.4478
 11
16.3145
 21
92.2774
  0
LINE
  8
0
 10
16.3145
 20
92.2774
 11
16.2135
 21
92.1183
  0
LINE
  8
0
 10
16.2135
 20
92.1183
 11
16.0934
 21
91.9732
  0
LINE
  8
0
 10
16.0934
 20
91.9732
 11
15.9561
 21
91.8442
  0
LINE
  8
0
 10
15.9561
 20
91.8442
 11
15.8037
 21
91.7335
  0
LINE
  8
0
 10
15.8037
 20
91.7335
 11
15.6387
 21
91.6428
  0
LINE
  8
0
 10
15.6387
 20
91.6428
 11
15.4635
 21
91.5734
  0
LINE
  8
0
 10
15.4635
 20
91.5734
 11
15.2811
 21
91.5266
  0
LINE
  8
0
 10
15.2811
 20
91.5266
 11
15.0942
 21
91.503
  0
LINE
  8
0
 10
15.0942
 20
91.503
 11
14.9058
 21
91.503
  0
LINE
  8
0
 10
40.4369
 20
32.0886
 11
41.0451
 21
32.2447
  0
LINE
  8
0
 10
41.0451
 20
32.2447
 11
41.6289
 21
32.4759
  0
LINE
  8
0
 10
41.6289
 20
32.4759
 11
42.1791
 21
32.7784
  0
LINE
  8
0
 10
42.1791
 20
32.7784
 11
42.6871
 21
33.1474
  0
LINE
  8
0
 10
42.6871
 20
33.1474
 11
43.1448
 21
33.5773
  0
LINE
  8
0
 10
43.1448
 20
33.5773
 11
43.5451
 21
34.0611
  0
LINE
  8
0
 10
43.5451
 20
34.0611
 11
43.8815
 21
34.5912
  0
LINE
  8
0
 10
43.8815
 20
34.5912
 11
44.1489
 21
35.1594
  0
LINE
  8
0
 10
44.1489
 20
35.1594
 11
44.3429
 21
35.7566
  0
LINE
  8
0
 10
44.3429
 20
35.7566
 11
44.4606
 21
36.3733
  0
LINE
  8
0
 10
44.4606
 20
36.3733
 11
44.5
 21
37
  0
LINE
  8
0
 10
44.5
 20
37
 11
44.5
 21
71
  0
LINE
  8
0
 10
44.5
 20
71
 11
44.4606
 21
71.6267
  0
LINE
  8
0
 10
44.4606
 20
71.6267
 11
44.3429
 21
72.2434
  0
LINE
  8
0
 10
44.3429
 20
72.2434
 11
44.1489
 21
72.8406
  0
LINE
  8
0
 10
44.1489
 20
72.8406
 11
43.8815
 21
73.4088
  0
LINE
  8
0
 10
43.8815
 20
73.4088
 11
43.5451
 21
73.9389
  0
LINE
  8
0
 10
43.5451
 20
73.9389
 11
43.1448
 21
74.4227
  0
LINE
  8
0
 10
43.1448
 20
74.4227
 11
42.6871
 21
74.8526
  0
LINE
  8
0
 10
42.6871
 20
74.8526
 11
42.1791
 21
75.2216
  0
LINE
  8
0
 10
42.1791
 20
75.2216
 11
41.6289
 21
75.5241
  0
LINE
  8
0
 10
41.6289
 20
75.5241
 11
41.0451
 21
75.7553
  0
LINE
  8
0
 10
41.0451
 20
75.7553
 11
40.4369
 21
75.9114
  0
LINE
  8
0
 10
40.4369
 20
75.9114
 11
39.8139
 21
75.9901
  0
LINE
  8
0
 10
39.8139
 20
75.9901
 11
5.18604
 21
75.9901
  0
LINE
  8
0
 10
5.18604
 20
75.9901
 11
4.56308
 21
75.9114
  0
LINE
  8
0
 10
4.56308
 20
75.9114
 11
3.95491
 21
75.7553
  0
LINE
  8
0
 10
3.95491
 20
75.7553
 11
3.37109
 21
75.5241
  0
LINE
  8
0
 10
3.37109
 20
75.5241
 11
2.82086
 21
75.2216
  0
LINE
  8
0
 10
2.82086
 20
75.2216
 11
2.31287
 21
74.8526
  0
LINE
  8
0
 10
2.31287
 20
74.8526
 11
1.85515
 21
74.4227
  0
LINE
  8
0
 10
1.85515
 20
74.4227
 11
1.45491
 21
73.9389
  0
LINE
  8
0
 10
1.45491
 20
73.9389
 11
1.11845
 21
73.4088
  0
LINE
  8
0
 10
1.11845
 20
73.4088
 11
0.851105
 21
72.8406
  0
LINE
  8
0
 10
0.851105
 20
72.8406
 11
0.657074
 21
72.2434
  0
LINE
  8
0
 10
0.657074
 20
72.2434
 11
0.539413
 21
71.6267
  0
LINE
  8
0
 10
0.539413
 20
71.6267
 11
0.5
 21
71
  0
LINE
  8
0
 10
0.5
 20
71
 11
0.5
 21
37
  0
LINE
  8
0
 10
0.5
 20
37
 11
0.539413
 21
36.3733
  0
LINE
  8
0
 10
0.539413
 20
36.3733
 11
0.657074
 21
35.7566
  0
LINE
  8
0
 10
0.657074
 20
35.7566
 11
0.851105
 21
35.1594
  0
LINE
  8
0
 10
0.851105
 20
35.1594
 11
1.11845
 21
34.5912
  0
LINE
  8
0
 10
1.11845
 20
34.5912
 11
1.45491
 21
34.0611
  0
LINE
  8
0
 10
1.45491
 20
34.0611
 11
1.85515
 21
33.5773
  0
LINE
  8
0
 10
1.85515
 20
33.5773
 11
2.31287
 21
33.1474
  0
LINE
  8
0
 10
2.31287
 20
33.1474
 11
2.82086
 21
32.7784
  0
LINE
  8
0
 10
2.82086
 20
32.7784
 11
3.37109
 21
32.4759
  0
LINE
  8
0
 10
3.37109
 20
32.4759
 11
3.95491
 21
32.2447
  0
LINE
  8
0
 10
3.95491
 20
32.2447
 11
4.56308
 21
32.0886
  0
LINE
  8
0
 10
4.56308
 20
32.0886
 11
5.18604
 21
32.0099
  0
LINE
  8
0
 10
5.18604
 20
32.0099
 11
39.8139
 21
32.0099
  0
LINE
  8
0
 10
39.8139
 20
32.0099
 11
40.4369
 21
32.0886
  0
LINE
  8
0
 10
37.3116
 20
66.0059
 11
36.9379
 21
66.0531
  0
LINE
  8
0
 10
36.9379
 20
66.0531
 11
36.5729
 21
66.1468
  0
LINE
  8
0
 10
36.5729
 20
66.1468
 11
36.2227
 21
66.2855
  0
LINE
  8
0
 10
36.2227
 20
66.2855
 11
35.8925
 21
66.467
  0
LINE
  8
0
 10
35.8925
 20
66.467
 11
35.5877
 21
66.6884
  0
LINE
  8
0
 10
35.5877
 20
66.6884
 11
35.3131
 21
66.9464
  0
LINE
  8
0
 10
35.3131
 20
66.9464
 11
35.0729
 21
67.2366
  0
LINE
  8
0
 10
35.0729
 20
67.2366
 11
34.8711
 21
67.5547
  0
LINE
  8
0
 10
34.8711
 20
67.5547
 11
34.7107
 21
67.8956
  0
LINE
  8
0
 10
34.7107
 20
67.8956
 11
34.5942
 21
68.2539
  0
LINE
  8
0
 10
34.5942
 20
68.2539
 11
34.5237
 21
68.624
  0
LINE
  8
0
 10
34.5237
 20
68.624
 11
34.5
 21
69
  0
LINE
  8
0
 10
34.5
 20
69
 11
34.5237
 21
69.376
  0
LINE
  8
0
 10
34.5237
 20
69.376
 11
34.5942
 21
69.7461
  0
LINE
  8
0
 10
34.5942
 20
69.7461
 11
34.7107
 21
70.1044
  0
LINE
  8
0
 10
34.7107
 20
70.1044
 11
34.8711
 21
70.4453
  0
LINE
  8
0
 10
34.8711
 20
70.4453
 11
35.0729
 21
70.7634
  0
LINE
  8
0
 10
35.0729
 20
70.7634
 11
35.3131
 21
71.0536
  0
LINE
  8
0
 10
35.3131
 20
71.0536
 11
35.5877
 21
71.3115
  0
LINE
  8
0
 10
35.5877
 20
71.3115
 11
35.8925
 21
71.533
  0
LINE
  8
0
 10
35.8925
 20
71.533
 11
36.2227
 21
71.7145
  0
LINE
  8
0
 10
36.2227
 20
71.7145
 11
36.5729
 21
71.8532
  0
LINE
  8
0
 10
36.5729
 20
71.8532
 11
36.9379
 21
71.9469
  0
LINE
  8
0
 10
36.9379
 20
71.9469
 11
37.3116
 21
71.9941
  0
LINE
  8
0
 10
37.3116
 20
71.9941
 11
37.6884
 21
71.9941
  0
LINE
  8
0
 10
37.6884
 20
71.9941
 11
38.0621
 21
71.9469
  0
LINE
  8
0
 10
38.0621
 20
71.9469
 11
38.427
 21
71.8532
  0
LINE
  8
0
 10
38.427
 20
71.8532
 11
38.7773
 21
71.7145
  0
LINE
  8
0
 10
38.7773
 20
71.7145
 11
39.1075
 21
71.533
  0
LINE
  8
0
 10
39.1075
 20
71.533
 11
39.4123
 21
71.3115
  0
LINE
  8
0
 10
39.4123
 20
71.3115
 11
39.6869
 21
71.0536
  0
LINE
  8
0
 10
39.6869
 20
71.0536
 11
39.927
 21
70.7634
  0
LINE
  8
0
 10
39.927
 20
70.7634
 11
40.1289
 21
70.4453
  0
LINE
  8
0
 10
40.1289
 20
70.4453
 11
40.2893
 21
70.1044
  0
LINE
  8
0
 10
40.2893
 20
70.1044
 11
40.4057
 21
69.7461
  0
LINE
  8
0
 10
40.4057
 20
69.7461
 11
40.4763
 21
69.376
  0
LINE
  8
0
 10
40.4763
 20
69.376
 11
40.5
 21
69
  0
LINE
  8
0
 10
40.5
 20
69
 11
40.4763
 21
68.624
  0
LINE
  8
0
 10
40.4763
 20
68.624
 11
40.4057
 21
68.2539
  0
LINE
  8
0
 10
40.4057
 20
68.2539
 11
40.2893
 21
67.8956
  0
LINE
  8
0
 10
40.2893
 20
67.8956
 11
40.1289
 21
67.5547
  0
LINE
  8
0
 10
40.1289
 20
67.5547
 11
39.927
 21
67.2366
  0
LINE
  8
0
 10
39.927
 20
67.2366
 11
39.6869
 21
66.9464
  0
LINE
  8
0
 10
39.6869
 20
66.9464
 11
39.4123
 21
66.6884
  0
LINE
  8
0
 10
39.4123
 20
66.6884
 11
39.1075
 21
66.467
  0
LINE
  8
0
 10
39.1075
 20
66.467
 11
38.7773
 21
66.2855
  0
LINE
  8
0
 10
38.7773
 20
66.2855
 11
38.427
 21
66.1468
  0
LINE
  8
0
 10
38.427
 20
66.1468
 11
38.0621
 21
66.0531
  0
LINE
  8
0
 10
38.0621
 20
66.0531
 11
37.6884
 21
66.0059
  0
LINE
  8
0
 10
37.6884
 20
66.0059
 11
37.3116
 21
66.0059
  0
LINE
  8
0
 10
7.31161
 20
66.0059
 11
6.93785
 21
66.0531
  0
LINE
  8
0
 10
6.93785
 20
66.0531
 11
6.57294
 21
66.1468
  0
LINE
  8
0
 10
6.57294
 20
66.1468
 11
6.22266
 21
66.2855
  0
LINE
  8
0
 10
6.22266
 20
66.2855
 11
5.89252
 21
66.467
  0
LINE
  8
0
 10
5.89252
 20
66.467
 11
5.58772
 21
66.6884
  0
LINE
  8
0
 10
5.58772
 20
66.6884
 11
5.31308
 21
66.9464
  0
LINE
  8
0
 10
5.31308
 20
66.9464
 11
5.07294
 21
67.2366
  0
LINE
  8
0
 10
5.07294
 20
67.2366
 11
4.87108
 21
67.5547
  0
LINE
  8
0
 10
4.87108
 20
67.5547
 11
4.71066
 21
67.8956
  0
LINE
  8
0
 10
4.71066
 20
67.8956
 11
4.59424
 21
68.2539
  0
LINE
  8
0
 10
4.59424
 20
68.2539
 11
4.52365
 21
68.624
  0
LINE
  8
0
 10
4.52365
 20
68.624
 11
4.5
 21
69
  0
LINE
  8
0
 10
4.5
 20
69
 11
4.52365
 21
69.376
  0
LINE
  8
0
 10
4.52365
 20
69.376
 11
4.59424
 21
69.7461
  0
LINE
  8
0
 10
4.59424
 20
69.7461
 11
4.71066
 21
70.1044
  0
LINE
  8
0
 10
4.71066
 20
70.1044
 11
4.87108
 21
70.4453
  0
LINE
  8
0
 10
4.87108
 20
70.4453
 11
5.07294
 21
70.7634
  0
LINE
  8
0
 10
5.07294
 20
70.7634
 11
5.31308
 21
71.0536
  0
LINE
  8
0
 10
5.31308
 20
71.0536
 11
5.58772
 21
71.3115
  0
LINE
  8
0
 10
5.58772
 20
71.3115
 11
5.89252
 21
71.533
  0
LINE
  8
0
 10
5.89252
 20
71.533
 11
6.22266
 21
71.7145
  0
LINE
  8
0
 10
6.22266
 20
71.7145
 11
6.57294
 21
71.8532
  0
LINE
  8
0
 10
6.57294
 20
71.8532
 11
6.93785
 21
71.9469
  0
LINE
  8
0
 10
6.93785
 20
71.9469
 11
7.31161
 21
71.9941
  0
LINE
  8
0
 10
7.31161
 20
71.9941
 11
7.68837
 21
71.9941
  0
LINE
  8
0
 10
7.68837
 20
71.9941
 11
8.06213
 21
71.9469
  0
LINE
  8
0
 10
8.06213
 20
71.9469
 11
8.42705
 21
71.8532
  0
LINE
  8
0
 10
8.42705
 20
71.8532
 11
8.77733
 21
71.7145
  0
LINE
  8
0
 10
8.77733
 20
71.7145
 11
9.10747
 21
71.533
  0
LINE
  8
0
 10
9.10747
 20
71.533
 11
9.41226
 21
71.3115
  0
LINE
  8
0
 10
9.41226
 20
71.3115
 11
9.6869
 21
71.0536
  0
LINE
  8
0
 10
9.6869
 20
71.0536
 11
9.92705
 21
70.7634
  0
LINE
  8
0
 10
9.92705
 20
70.7634
 11
10.1289
 21
70.4453
  0
LINE
  8
0
 10
10.1289
 20
70.4453
 11
10.2893
 21
70.1044
  0
LINE
  8
0
 10
10.2893
 20
70.1044
 11
10.4057
 21
69.7461
  0
LINE
  8
0
 10
10.4057
 20
69.7461
 11
10.4763
 21
69.376
  0
LINE
  8
0
 10
10.4763
 20
69.376
 11
10.5
 21
69
  0
LINE
  8
0
 10
10.5
 20
69
 11
10.4763
 21
68.624
  0
LINE
  8
0
 10
10.4763
 20
68.624
 11
10.4057
 21
68.2539
  0
LINE
  8
0
 10
10.4057
 20
68.2539
 11
10.2893
 21
67.8956
  0
LINE
  8
0
 10
10.2893
 20
67.8956
 11
10.1289
 21
67.5547
  0
LINE
  8
0
 10
10.1289
 20
67.5547
 11
9.92705
 21
67.2366
  0
LINE
  8
0
 10
9.92705
 20
67.2366
 11
9.6869
 21
66.9464
  0
LINE
  8
0
 10
9.6869
 20
66.9464
 11
9.41226
 21
66.6884
  0
LINE
  8
0
 10
9.41226
 20
66.6884
 11
9.10747
 21
66.467
  0
LINE
  8
0
 10
9.10747
 20
66.467
 11
8.77733
 21
66.2855
  0
LINE
  8
0
 10
8.77733
 20
66.2855
 11
8.42705
 21
66.1468
  0
LINE
  8
0
 10
8.42705
 20
66.1468
 11
8.06213
 21
66.0531
  0
LINE
  8
0
 10
8.06213
 20
66.0531
 11
7.68837
 21
66.0059
  0
LINE
  8
0
 10
7.68837
 20
66.0059
 11
7.31161
 21
66.0059
  0
LINE
  8
0
 10
20.8267
 20
66.1018
 11
19.1534
 21
69
  0
LINE
  8
0
 10
19.1534
 20
69
 11
20.8267
 21
71.8982
  0
LINE
  8
0
 10
20.8267
 20
71.8982
 11
24.1733
 21
71.8982
  0
LINE
  8
0
 10
24.1733
 20
71.8982
 11
25.8466
 21
69
  0
LINE
  8
0
 10
25.8466
 20
69
 11
24.1733
 21
66.1018
  0
LINE
  8
0
 10
24.1733
 20
66.1018
 11
20.8267
 21
66.1018
  0
LINE
  8
0
 10
14.9058
 20
67.5029
 11
14.7189
 21
67.5266
  0
LINE
  8
0
 10
14.7189
 20
67.5266
 11
14.5365
 21
67.5734
  0
LINE
  8
0
 10
14.5365
 20
67.5734
 11
14.3613
 21
67.6427
  0
LINE
  8
0
 10
14.3613
 20
67.6427
 11
14.1963
 21
67.7335
  0
LINE
  8
0
 10
14.1963
 20
67.7335
 11
14.0439
 21
67.8442
  0
LINE
  8
0
 10
14.0439
 20
67.8442
 11
13.9065
 21
67.9732
  0
LINE
  8
0
 10
13.9065
 20
67.9732
 11
13.7865
 21
68.1183
  0
LINE
  8
0
 10
13.7865
 20
68.1183
 11
13.6855
 21
68.2774
  0
LINE
  8
0
 10
13.6855
 20
68.2774
 11
13.6053
 21
68.4478
  0
LINE
  8
0
 10
13.6053
 20
68.4478
 11
13.5471
 21
68.627
  0
LINE
  8
0
 10
13.5471
 20
68.627
 11
13.5118
 21
68.812
  0
LINE
  8
0
 10
13.5118
 20
68.812
 11
13.5
 21
69
  0
LINE
  8
0
 10
13.5
 20
69
 11
13.5118
 21
69.188
  0
LINE
  8
0
 10
13.5118
 20
69.188
 11
13.5471
 21
69.373
  0
LINE
  8
0
 10
13.5471
 20
69.373
 11
13.6053
 21
69.5522
  0
LINE
  8
0
 10
13.6053
 20
69.5522
 11
13.6855
 21
69.7226
  0
LINE
  8
0
 10
13.6855
 20
69.7226
 11
13.7865
 21
69.8817
  0
LINE
  8
0
 10
13.7865
 20
69.8817
 11
13.9065
 21
70.0268
  0
LINE
  8
0
 10
13.9065
 20
70.0268
 11
14.0439
 21
70.1558
  0
LINE
  8
0
 10
14.0439
 20
70.1558
 11
14.1963
 21
70.2665
  0
LINE
  8
0
 10
14.1963
 20
70.2665
 11
14.3613
 21
70.3572
  0
LINE
  8
0
 10
14.3613
 20
70.3572
 11
14.5365
 21
70.4266
  0
LINE
  8
0
 10
14.5365
 20
70.4266
 11
14.7189
 21
70.4734
  0
LINE
  8
0
 10
14.7189
 20
70.4734
 11
14.9058
 21
70.497
  0
LINE
  8
0
 10
14.9058
 20
70.497
 11
15.0942
 21
70.497
  0
LINE
  8
0
 10
15.0942
 20
70.497
 11
15.2811
 21
70.4734
  0
LINE
  8
0
 10
15.2811
 20
70.4734
 11
15.4635
 21
70.4266
  0
LINE
  8
0
 10
15.4635
 20
70.4266
 11
15.6387
 21
70.3572
  0
LINE
  8
0
 10
15.6387
 20
70.3572
 11
15.8037
 21
70.2665
  0
LINE
  8
0
 10
15.8037
 20
70.2665
 11
15.9561
 21
70.1558
  0
LINE
  8
0
 10
15.9561
 20
70.1558
 11
16.0934
 21
70.0268
  0
LINE
  8
0
 10
16.0934
 20
70.0268
 11
16.2135
 21
69.8817
  0
LINE
  8
0
 10
16.2135
 20
69.8817
 11
16.3145
 21
69.7226
  0
LINE
  8
0
 10
16.3145
 20
69.7226
 11
16.3947
 21
69.5522
  0
LINE
  8
0
 10
16.3947
 20
69.5522
 11
16.4529
 21
69.373
  0
LINE
  8
0
 10
16.4529
 20
69.373
 11
16.4882
 21
69.188
  0
LINE
  8
0
 10
16.4882
 20
69.188
 11
16.5
 21
69
  0
LINE
  8
0
 10
16.5
 20
69
 11
16.4882
 21
68.812
  0
LINE
  8
0
 10
16.4882
 20
68.812
 11
16.4529
 21
68.627
  0
LINE
  8
0
 10
16.4529
 20
68.627
 11
16.3947
 21
68.4478
  0
LINE
  8
0
 10
16.3947
 20
68.4478
 11
16.3145
 21
68.2774
  0
LINE
  8
0
 10
16.3145
 20
68.2774
 11
16.2135
 21
68.1183
  0
LINE
  8
0
 10
16.2135
 20
68.1183
 11
16.0934
 21
67.9732
  0
LINE
  8
0
 10
16.0934
 20
67.9732
 11
15.9561
 21
67.8442
  0
LINE
  8
0
 10
15.9561
 20
67.8442
 11
15.8037
 21
67.7335
  0
LINE
  8
0
 10
15.8037
 20
67.7335
 11
15.6387
 21
67.6427
  0
LINE
  8
0
 10
15.6387
 20
67.6427
 11
15.4635
 21
67.5734
  0
LINE
  8
0
 10
15.4635
 20
67.5734
 11
15.2811
 21
67.5266
  0
LINE
  8
0
 10
15.2811
 20
67.5266
 11
15.0942
 21
67.5029
  0
LINE
  8
0
 10
15.0942
 20
67.5029
 11
14.9058
 21
67.5029
  0
LINE
  8
0
 10
29.9058
 20
67.5029
 11
29.7189
 21
67.5266
  0
LINE
  8
0
 10
29.7189
 20
67.5266
 11
29.5365
 21
67.5734
  0
LINE
  8
0
 10
29.5365
 20
67.5734
 11
29.3613
 21
67.6427
  0
LINE
  8
0
 10
29.3613
 20
67.6427
 11
29.1963
 21
67.7335
  0
LINE
  8
0
 10
29.1963
 20
67.7335
 11
29.0439
 21
67.8442
  0
LINE
  8
0
 10
29.0439
 20
67.8442
 11
28.9065
 21
67.9732
  0
LINE
  8
0
 10
28.9065
 20
67.9732
 11
28.7865
 21
68.1183
  0
LINE
  8
0
 10
28.7865
 20
68.1183
 11
28.6855
 21
68.2774
  0
LINE
  8
0
 10
28.6855
 20
68.2774
 11
28.6053
 21
68.4478
  0
LINE
  8
0
 10
28.6053
 20
68.4478
 11
28.5471
 21
68.627
  0
LINE
  8
0
 10
28.5471
 20
68.627
 11
28.5118
 21
68.812
  0
LINE
  8
0
 10
28.5118
 20
68.812
 11
28.5
 21
69
  0
LINE
  8
0
 10
28.5
 20
69
 11
28.5118
 21
69.188
  0
LINE
  8
0
 10
28.5118
 20
69.188
 11
28.5471
 21
69.373
  0
LINE
  8
0
 10
28.5471
 20
69.373
 11
28.6053
 21
69.5522
  0
LINE
  8
0
 10
28.6053
 20
69.5522
 11
28.6855
 21
69.7226
  0
LINE
  8
0
 10
28.6855
 20
69.7226
 11
28.7865
 21
69.8817
  0
LINE
  8
0
 10
28.7865
 20
69.8817
 11
28.9065
 21
70.0268
  0
LINE
  8
0
 10
28.9065
 20
70.0268
 11
29.0439
 21
70.1558
  0
LINE
  8
0
 10
29.0439
 20
70.1558
 11
29.1963
 21
70.2665
  0
LINE
  8
0
 10
29.1963
 20
70.2665
 11
29.3613
 21
70.3572
  0
LINE
  8
0
 10
29.3613
 20
70.3572
 11
29.5365
 21
70.4266
  0
LINE
  8
0
 10
29.5365
 20
70.4266
 11
29.7189
 21
70.4734
  0
LINE
  8
0
 10
29.7189
 20
70.4734
 11
29.9058
 21
70.497
  0
LINE
  8
0
 10
29.9058
 20
70.497
 11
30.0942
 21
70.497
  0
LINE
  8
0
 10
30.0942
 20
70.497
 11
30.2811
 21
70.4734
  0
LINE
  8
0
 10
30.2811
 20
70.4734
 11
30.4635
 21
70.4266
  0
LINE
  8
0
 10
30.4635
 20
70.4266
 11
30.6387
 21
70.3572
  0
LINE
  8
0
 10
30.6387
 20
70.3572
 11
30.8037
 21
70.2665
  0
LINE
  8
0
 10
30.8037
 20
70.2665
 11
30.9561
 21
70.1558
  0
LINE
  8
0
 10
30.9561
 20
70.1558
 11
31.0934
 21
70.0268
  0
LINE
  8
0
 10
31.0934
 20
70.0268
 11
31.2135
 21
69.8817
  0
LINE
  8
0
 10
31.2135
 20
69.8817
 11
31.3145
 21
69.7226
  0
LINE
  8
0
 10
31.3145
 20
69.7226
 11
31.3947
 21
69.5522
  0
LINE
  8
0
 10
31.3947
 20
69.5522
 11
31.4529
 21
69.373
  0
LINE
  8
0
 10
31.4529
 20
69.373
 11
31.4882
 21
69.188
  0
LINE
  8
0
 10
31.4882
 20
69.188
 11
31.5
 21
69
  0
LINE
  8
0
 10
31.5
 20
69
 11
31.4882
 21
68.812
  0
LINE
  8
0
 10
31.4882
 20
68.812
 11
31.4529
 21
68.627
  0
LINE
  8
0
 10
31.4529
 20
68.627
 11
31.3947
 21
68.4478
  0
LINE
  8
0
 10
31.3947
 20
68.4478
 11
31.3145
 21
68.2774
  0
LINE
  8
0
 10
31.3145
 20
68.2774
 11
31.2135
 21
68.1183
  0
LINE
  8
0
 10
31.2135
 20
68.1183
 11
31.0934
 21
67.9732
  0
LINE
  8
0
 10
31.0934
 20
67.9732
 11
30.9561
 21
67.8442
  0
LINE
  8
0
 10
30.9561
 20
67.8442
 11
30.8037
 21
67.7335
  0
LINE
  8
0
 10
30.8037
 20
67.7335
 11
30.6387
 21
67.6427
  0
LINE
  8
0
 10
30.6387
 20
67.6427
 11
30.4635
 21
67.5734
  0
LINE
  8
0
 10
30.4635
 20
67.5734
 11
30.2811
 21
67.5266
  0
LINE
  8
0
 10
30.2811
 20
67.5266
 11
30.0942
 21
67.5029
  0
LINE
  8
0
 10
30.0942
 20
67.5029
 11
29.9058
 21
67.5029
  0
LINE
  8
0
 10
14.186
 20
42.0099
 11
13.5631
 21
42.0886
  0
LINE
  8
0
 10
13.5631
 20
42.0886
 11
12.9549
 21
42.2447
  0
LINE
  8
0
 10
12.9549
 20
42.2447
 11
12.3711
 21
42.4759
  0
LINE
  8
0
 10
12.3711
 20
42.4759
 11
11.8209
 21
42.7784
  0
LINE
  8
0
 10
11.8209
 20
42.7784
 11
11.3129
 21
43.1474
  0
LINE
  8
0
 10
11.3129
 20
43.1474
 11
10.8551
 21
43.5773
  0
LINE
  8
0
 10
10.8551
 20
43.5773
 11
10.4549
 21
44.0611
  0
LINE
  8
0
 10
10.4549
 20
44.0611
 11
10.1185
 21
44.5912
  0
LINE
  8
0
 10
10.1185
 20
44.5912
 11
9.8511
 21
45.1594
  0
LINE
  8
0
 10
9.8511
 20
45.1594
 11
9.65707
 21
45.7566
  0
LINE
  8
0
 10
9.65707
 20
45.7566
 11
9.53941
 21
46.3733
  0
LINE
  8
0
 10
9.53941
 20
46.3733
 11
9.5
 21
47
  0
LINE
  8
0
 10
9.5
 20
47
 11
9.5
 21
61
  0
LINE
  8
0
 10
9.5
 20
61
 11
9.53941
 21
61.6267
  0
LINE
  8
0
 10
9.53941
 20
61.6267
 11
9.65707
 21
62.2434
  0
LINE
  8
0
 10
9.65707
 20
62.2434
 11
9.8511
 21
62.8406
  0
LINE
  8
0
 10
9.8511
 20
62.8406
 11
10.1185
 21
63.4088
  0
LINE
  8
0
 10
10.1185
 20
63.4088
 11
10.4549
 21
63.9389
  0
LINE
  8
0
 10
10.4549
 20
63.9389
 11
10.8551
 21
64.4227
  0
LINE
  8
0
 10
10.8551
 20
64.4227
 11
11.3129
 21
64.8526
  0
LINE
  8
0
 10
11.3129
 20
64.8526
 11
11.8209
 21
65.2216
  0
LINE
  8
0
 10
11.8209
 20
65.2216
 11
12.3711
 21
65.5241
  0
LINE
  8
0
 10
12.3711
 20
65.5241
 11
12.9549
 21
65.7553
  0
LINE
  8
0
 10
12.9549
 20
65.7553
 11
13.5631
 21
65.9114
  0
LINE
  8
0
 10
13.5631
 20
65.9114
 11
14.186
 21
65.9901
  0
LINE
  8
0
 10
14.186
 20
65.9901
 11
28.8139
 21
65.9901
  0
LINE
  8
0
 10
28.8139
 20
65.9901
 11
29.4369
 21
65.9114
  0
LINE
  8
0
 10
29.4369
 20
65.9114
 11
30.0451
 21
65.7553
  0
LINE
  8
0
 10
30.0451
 20
65.7553
 11
30.6289
 21
65.5241
  0
LINE
  8
0
 10
30.6289
 20
65.5241
 11
31.1791
 21
65.2216
  0
LINE
  8
0
 10
31.1791
 20
65.2216
 11
31.6871
 21
64.8526
  0
LINE
  8
0
 10
31.6871
 20
64.8526
 11
32.1448
 21
64.4227
  0
LINE
  8
0
 10
32.1448
 20
64.4227
 11
32.5451
 21
63.9389
  0
LINE
  8
0
 10
32.5451
 20
63.9389
 11
32.8815
 21
63.4088
  0
LINE
  8
0
 10
32.8815
 20
63.4088
 11
33.1489
 21
62.8406
  0
LINE
  8
0
 10
33.1489
 20
62.8406
 11
33.3429
 21
62.2434
  0
LINE
  8
0
 10
33.3429
 20
62.2434
 11
33.4606
 21
61.6267
  0
LINE
  8
0
 10
33.4606
 20
61.6267
 11
33.5
 21
61
  0
LINE
  8
0
 10
33.5
 20
61
 11
33.5
 21
47
  0
LINE
  8
0
 10
33.5
 20
47
 11
33.4606
 21
46.3733
  0
LINE
  8
0
 10
33.4606
 20
46.3733
 11
33.3429
 21
45.7566
  0
LINE
  8
0
 10
33.3429
 20
45.7566
 11
33.1489
 21
45.1594
  0
LINE
  8
0
 10
33.1489
 20
45.1594
 11
32.8815
 21
44.5912
  0
LINE
  8
0
 10
32.8815
 20
44.5912
 11
32.5451
 21
44.0611
  0
LINE
  8
0
 10
32.5451
 20
44.0611
 11
32.1448
 21
43.5773
  0
LINE
  8
0
 10
32.1448
 20
43.5773
 11
31.6871
 21
43.1474
  0
LINE
  8
0
 10
31.6871
 20
43.1474
 11
31.1791
 21
42.7784
  0
LINE
  8
0
 10
31.1791
 20
42.7784
 11
30.6289
 21
42.4759
  0
LINE
  8
0
 10
30.6289
 20
42.4759
 11
30.0451
 21
42.2447
  0
LINE
  8
0
 10
30.0451
 20
42.2447
 11
29.4369
 21
42.0886
  0
LINE
  8
0
 10
29.4369
 20
42.0886
 11
28.8139
 21
42.0099
  0
LINE
  8
0
 10
28.8139
 20
42.0099
 11
14.186
 21
42.0099
  0
LINE
  8
0
 10
37.4058
 20
60.0029
 11
37.2189
 21
60.0266
  0
LINE
  8
0
 10
37.2189
 20
60.0266
 11
37.0365
 21
60.0734
  0
LINE
  8
0
 10
37.0365
 20
60.0734
 11
36.8613
 21
60.1427
  0
LINE
  8
0
 10
36.8613
 20
60.1427
 11
36.6963
 21
60.2335
  0
LINE
  8
0
 10
36.6963
 20
60.2335
 11
36.5439
 21
60.3442
  0
LINE
  8
0
 10
36.5439
 20
60.3442
 11
36.4065
 21
60.4732
  0
LINE
  8
0
 10
36.4065
 20
60.4732
 11
36.2865
 21
60.6183
  0
LINE
  8
0
 10
36.2865
 20
60.6183
 11
36.1855
 21
60.7774
  0
LINE
  8
0
 10
36.1855
 20
60.7774
 11
36.1053
 21
60.9478
  0
LINE
  8
0
 10
36.1053
 20
60.9478
 11
36.0471
 21
61.127
  0
LINE
  8
0
 10
36.0471
 20
61.127
 11
36.0118
 21
61.312
  0
LINE
  8
0
 10
36.0118
 20
61.312
 11
36
 21
61.5
  0
LINE
  8
0
 10
36
 20
61.5
 11
36.0118
 21
61.688
  0
LINE
  8
0
 10
36.0118
 20
61.688
 11
36.0471
 21
61.873
  0
LINE
  8
0
 10
36.0471
 20
61.873
 11
36.1053
 21
62.0522
  0
LINE
  8
0
 10
36.1053
 20
62.0522
 11
36.1855
 21
62.2226
  0
LINE
  8
0
 10
36.1855
 20
62.2226
 11
36.2865
 21
62.3817
  0
LINE
  8
0
 10
36.2865
 20
62.3817
 11
36.4065
 21
62.5268
  0
LINE
  8
0
 10
36.4065
 20
62.5268
 11
36.5439
 21
62.6558
  0
LINE
  8
0
 10
36.5439
 20
62.6558
 11
36.6963
 21
62.7665
  0
LINE
  8
0
 10
36.6963
 20
62.7665
 11
36.8613
 21
62.8572
  0
LINE
  8
0
 10
36.8613
 20
62.8572
 11
37.0365
 21
62.9266
  0
LINE
  8
0
 10
37.0365
 20
62.9266
 11
37.2189
 21
62.9734
  0
LINE
  8
0
 10
37.2189
 20
62.9734
 11
37.4058
 21
62.997
  0
LINE
  8
0
 10
37.4058
 20
62.997
 11
37.5942
 21
62.997
  0
LINE
  8
0
 10
37.5942
 20
62.997
 11
37.7811
 21
62.9734
  0
LINE
  8
0
 10
37.7811
 20
62.9734
 11
37.9635
 21
62.9266
  0
LINE
  8
0
 10
37.9635
 20
62.9266
 11
38.1387
 21
62.8572
  0
LINE
  8
0
 10
38.1387
 20
62.8572
 11
38.3037
 21
62.7665
  0
LINE
  8
0
 10
38.3037
 20
62.7665
 11
38.4561
 21
62.6558
  0
LINE
  8
0
 10
38.4561
 20
62.6558
 11
38.5934
 21
62.5268
  0
LINE
  8
0
 10
38.5934
 20
62.5268
 11
38.7135
 21
62.3817
  0
LINE
  8
0
 10
38.7135
 20
62.3817
 11
38.8145
 21
62.2226
  0
LINE
  8
0
 10
38.8145
 20
62.2226
 11
38.8947
 21
62.0522
  0
LINE
  8
0
 10
38.8947
 20
62.0522
 11
38.9529
 21
61.873
  0
LINE
  8
0
 10
38.9529
 20
61.873
 11
38.9882
 21
61.688
  0
LINE
  8
0
 10
38.9882
 20
61.688
 11
39
 21
61.5
  0
LINE
  8
0
 10
39
 20
61.5
 11
38.9882
 21
61.312
  0
LINE
  8
0
 10
38.9882
 20
61.312
 11
38.9529
 21
61.127
  0
LINE
  8
0
 10
38.9529
 20
61.127
 11
38.8947
 21
60.9478
  0
LINE
  8
0
 10
38.8947
 20
60.9478
 11
38.8145
 21
60.7774
  0
LINE
  8
0
 10
38.8145
 20
60.7774
 11
38.7135
 21
60.6183
  0
LINE
  8
0
 10
38.7135
 20
60.6183
 11
38.5934
 21
60.4732
  0
LINE
  8
0
 10
38.5934
 20
60.4732
 11
38.4561
 21
60.3442
  0
LINE
  8
0
 10
38.4561
 20
60.3442
 11
38.3037
 21
60.2335
  0
LINE
  8
0
 10
38.3037
 20
60.2335
 11
38.1387
 21
60.1427
  0
LINE
  8
0
 10
38.1387
 20
60.1427
 11
37.9635
 21
60.0734
  0
LINE
  8
0
 10
37.9635
 20
60.0734
 11
37.7811
 21
60.0266
  0
LINE
  8
0
 10
37.7811
 20
60.0266
 11
37.5942
 21
60.0029
  0
LINE
  8
0
 10
37.5942
 20
60.0029
 11
37.4058
 21
60.0029
  0
LINE
  8
0
 10
37.3116
 20
51.0059
 11
36.9379
 21
51.0531
  0
LINE
  8
0
 10
36.9379
 20
51.0531
 11
36.5729
 21
51.1468
  0
LINE
  8
0
 10
36.5729
 20
51.1468
 11
36.2227
 21
51.2855
  0
LINE
  8
0
 10
36.2227
 20
51.2855
 11
35.8925
 21
51.467
  0
LINE
  8
0
 10
35.8925
 20
51.467
 11
35.5877
 21
51.6885
  0
LINE
  8
0
 10
35.5877
 20
51.6885
 11
35.3131
 21
51.9464
  0
LINE
  8
0
 10
35.3131
 20
51.9464
 11
35.0729
 21
52.2366
  0
LINE
  8
0
 10
35.0729
 20
52.2366
 11
34.8711
 21
52.5547
  0
LINE
  8
0
 10
34.8711
 20
52.5547
 11
34.7107
 21
52.8956
  0
LINE
  8
0
 10
34.7107
 20
52.8956
 11
34.5942
 21
53.2539
  0
LINE
  8
0
 10
34.5942
 20
53.2539
 11
34.5237
 21
53.624
  0
LINE
  8
0
 10
34.5237
 20
53.624
 11
34.5
 21
54
  0
LINE
  8
0
 10
34.5
 20
54
 11
34.5237
 21
54.376
  0
LINE
  8
0
 10
34.5237
 20
54.376
 11
34.5942
 21
54.7461
  0
LINE
  8
0
 10
34.5942
 20
54.7461
 11
34.7107
 21
55.1044
  0
LINE
  8
0
 10
34.7107
 20
55.1044
 11
34.8711
 21
55.4453
  0
LINE
  8
0
 10
34.8711
 20
55.4453
 11
35.0729
 21
55.7634
  0
LINE
  8
0
 10
35.0729
 20
55.7634
 11
35.3131
 21
56.0536
  0
LINE
  8
0
 10
35.3131
 20
56.0536
 11
35.5877
 21
56.3115
  0
LINE
  8
0
 10
35.5877
 20
56.3115
 11
35.8925
 21
56.533
  0
LINE
  8
0
 10
35.8925
 20
56.533
 11
36.2227
 21
56.7145
  0
LINE
  8
0
 10
36.2227
 20
56.7145
 11
36.5729
 21
56.8532
  0
LINE
  8
0
 10
36.5729
 20
56.8532
 11
36.9379
 21
56.9469
  0
LINE
  8
0
 10
36.9379
 20
56.9469
 11
37.3116
 21
56.9941
  0
LINE
  8
0
 10
37.3116
 20
56.9941
 11
37.6884
 21
56.9941
  0
LINE
  8
0
 10
37.6884
 20
56.9941
 11
38.0621
 21
56.9469
  0
LINE
  8
0
 10
38.0621
 20
56.9469
 11
38.427
 21
56.8532
  0
LINE
  8
0
 10
38.427
 20
56.8532
 11
38.7773
 21
56.7145
  0
LINE
  8
0
 10
38.7773
 20
56.7145
 11
39.1075
 21
56.533
  0
LINE
  8
0
 10
39.1075
 20
56.533
 11
39.4123
 21
56.3115
  0
LINE
  8
0
 10
39.4123
 20
56.3115
 11
39.6869
 21
56.0536
  0
LINE
  8
0
 10
39.6869
 20
56.0536
 11
39.927
 21
55.7634
  0
LINE
  8
0
 10
39.927
 20
55.7634
 11
40.1289
 21
55.4453
  0
LINE
  8
0
 10
40.1289
 20
55.4453
 11
40.2893
 21
55.1044
  0
LINE
  8
0
 10
40.2893
 20
55.1044
 11
40.4057
 21
54.7461
  0
LINE
  8
0
 10
40.4057
 20
54.7461
 11
40.4763
 21
54.376
  0
LINE
  8
0
 10
40.4763
 20
54.376
 11
40.5
 21
54
  0
LINE
  8
0
 10
40.5
 20
54
 11
40.4763
 21
53.624
  0
LINE
  8
0
 10
40.4763
 20
53.624
 11
40.4057
 21
53.2539
  0
LINE
  8
0
 10
40.4057
 20
53.2539
 11
40.2893
 21
52.8956
  0
LINE
  8
0
 10
40.2893
 20
52.8956
 11
40.1289
 21
52.5547
  0
LINE
  8
0
 10
40.1289
 20
52.5547
 11
39.927
 21
52.2366
  0
LINE
  8
0
 10
39.927
 20
52.2366
 11
39.6869
 21
51.9464
  0
LINE
  8
0
 10
39.6869
 20
51.9464
 11
39.4123
 21
51.6885
  0
LINE
  8
0
 10
39.4123
 20
51.6885
 11
39.1075
 21
51.467
  0
LINE
  8
0
 10
39.1075
 20
51.467
 11
38.7773
 21
51.2855
  0
LINE
  8
0
 10
38.7773
 20
51.2855
 11
38.427
 21
51.1468
  0
LINE
  8
0
 10
38.427
 20
51.1468
 11
38.0621
 21
51.0531
  0
LINE
  8
0
 10
38.0621
 20
51.0531
 11
37.6884
 21
51.0059
  0
LINE
  8
0
 10
37.6884
 20
51.0059
 11
37.3116
 21
51.0059
  0
LINE
  8
0
 10
37.4058
 20
45.003
 11
37.2189
 21
45.0266
  0
LINE
  8
0
 10
37.2189
 20
45.0266
 11
37.0365
 21
45.0734
  0
LINE
  8
0
 10
37.0365
 20
45.0734
 11
36.8613
 21
45.1428
  0
LINE
  8
0
 10
36.8613
 20
45.1428
 11
36.6963
 21
45.2335
  0
LINE
  8
0
 10
36.6963
 20
45.2335
 11
36.5439
 21
45.3442
  0
LINE
  8
0
 10
36.5439
 20
45.3442
 11
36.4065
 21
45.4732
  0
LINE
  8
0
 10
36.4065
 20
45.4732
 11
36.2865
 21
45.6183
  0
LINE
  8
0
 10
36.2865
 20
45.6183
 11
36.1855
 21
45.7774
  0
LINE
  8
0
 10
36.1855
 20
45.7774
 11
36.1053
 21
45.9478
  0
LINE
  8
0
 10
36.1053
 20
45.9478
 11
36.0471
 21
46.127
  0
LINE
  8
0
 10
36.0471
 20
46.127
 11
36.0118
 21
46.312
  0
LINE
  8
0
 10
36.0118
 20
46.312
 11
36
 21
46.5
  0
LINE
  8
0
 10
36
 20
46.5
 11
36.0118
 21
46.688
  0
LINE
  8
0
 10
36.0118
 20
46.688
 11
36.0471
 21
46.873
  0
LINE
  8
0
 10
36.0471
 20
46.873
 11
36.1053
 21
47.0522
  0
LINE
  8
0
 10
36.1053
 20
47.0522
 11
36.1855
 21
47.2226
  0
LINE
  8
0
 10
36.1855
 20
47.2226
 11
36.2865
 21
47.3817
  0
LINE
  8
0
 10
36.2865
 20
47.3817
 11
36.4065
 21
47.5268
  0
LINE
  8
0
 10
36.4065
 20
47.5268
 11
36.5439
 21
47.6558
  0
LINE
  8
0
 10
36.5439
 20
47.6558
 11
36.6963
 21
47.7665
  0
LINE
  8
0
 10
36.6963
 20
47.7665
 11
36.8613
 21
47.8573
  0
LINE
  8
0
 10
36.8613
 20
47.8573
 11
37.0365
 21
47.9266
  0
LINE
  8
0
 10
37.0365
 20
47.9266
 11
37.2189
 21
47.9734
  0
LINE
  8
0
 10
37.2189
 20
47.9734
 11
37.4058
 21
47.9971
  0
LINE
  8
0
 10
37.4058
 20
47.9971
 11
37.5942
 21
47.9971
  0
LINE
  8
0
 10
37.5942
 20
47.9971
 11
37.7811
 21
47.9734
  0
LINE
  8
0
 10
37.7811
 20
47.9734
 11
37.9635
 21
47.9266
  0
LINE
  8
0
 10
37.9635
 20
47.9266
 11
38.1387
 21
47.8573
  0
LINE
  8
0
 10
38.1387
 20
47.8573
 11
38.3037
 21
47.7665
  0
LINE
  8
0
 10
38.3037
 20
47.7665
 11
38.4561
 21
47.6558
  0
LINE
  8
0
 10
38.4561
 20
47.6558
 11
38.5934
 21
47.5268
  0
LINE
  8
0
 10
38.5934
 20
47.5268
 11
38.7135
 21
47.3817
  0
LINE
  8
0
 10
38.7135
 20
47.3817
 11
38.8145
 21
47.2226
  0
LINE
  8
0
 10
38.8145
 20
47.2226
 11
38.8947
 21
47.0522
  0
LINE
  8
0
 10
38.8947
 20
47.0522
 11
38.9529
 21
46.873
  0
LINE
  8
0
 10
38.9529
 20
46.873
 11
38.9882
 21
46.688
  0
LINE
  8
0
 10
38.9882
 20
46.688
 11
39
 21
46.5
  0
LINE
  8
0
 10
39
 20
46.5
 11
38.9882
 21
46.312
  0
LINE
  8
0
 10
38.9882
 20
46.312
 11
38.9529
 21
46.127
  0
LINE
  8
0
 10
38.9529
 20
46.127
 11
38.8947
 21
45.9478
  0
LINE
  8
0
 10
38.8947
 20
45.9478
 11
38.8145
 21
45.7774
  0
LINE
  8
0
 10
38.8145
 20
45.7774
 11
38.7135
 21
45.6183
  0
LINE
  8
0
 10
38.7135
 20
45.6183
 11
38.5934
 21
45.4732
  0
LINE
  8
0
 10
38.5934
 20
45.4732
 11
38.4561
 21
45.3442
  0
LINE
  8
0
 10
38.4561
 20
45.3442
 11
38.3037
 21
45.2335
  0
LINE
  8
0
 10
38.3037
 20
45.2335
 11
38.1387
 21
45.1428
  0
LINE
  8
0
 10
38.1387
 20
45.1428
 11
37.9635
 21
45.0734
  0
LINE
  8
0
 10
37.9635
 20
45.0734
 11
37.7811
 21
45.0266
  0
LINE
  8
0
 10
37.7811
 20
45.0266
 11
37.5942
 21
45.003
  0
LINE
  8
0
 10
37.5942
 20
45.003
 11
37.4058
 21
45.003
  0
LINE
  8
0
 10
37.3116
 20
36.0059
 11
36.9379
 21
36.0531
  0
LINE
  8
0
 10
36.9379
 20
36.0531
 11
36.5729
 21
36.1468
  0
LINE
  8
0
 10
36.5729
 20
36.1468
 11
36.2227
 21
36.2855
  0
LINE
  8
0
 10
36.2227
 20
36.2855
 11
35.8925
 21
36.467
  0
LINE
  8
0
 10
35.8925
 20
36.467
 11
35.5877
 21
36.6885
  0
LINE
  8
0
 10
35.5877
 20
36.6885
 11
35.3131
 21
36.9464
  0
LINE
  8
0
 10
35.3131
 20
36.9464
 11
35.0729
 21
37.2366
  0
LINE
  8
0
 10
35.0729
 20
37.2366
 11
34.8711
 21
37.5547
  0
LINE
  8
0
 10
34.8711
 20
37.5547
 11
34.7107
 21
37.8956
  0
LINE
  8
0
 10
34.7107
 20
37.8956
 11
34.5942
 21
38.2539
  0
LINE
  8
0
 10
34.5942
 20
38.2539
 11
34.5237
 21
38.624
  0
LINE
  8
0
 10
34.5237
 20
38.624
 11
34.5
 21
39
  0
LINE
  8
0
 10
34.5
 20
39
 11
34.5237
 21
39.376
  0
LINE
  8
0
 10
34.5237
 20
39.376
 11
34.5942
 21
39.7461
  0
LINE
  8
0
 10
34.5942
 20
39.7461
 11
34.7107
 21
40.1044
  0
LINE
  8
0
 10
34.7107
 20
40.1044
 11
34.8711
 21
40.4453
  0
LINE
  8
0
 10
34.8711
 20
40.4453
 11
35.0729
 21
40.7634
  0
LINE
  8
0
 10
35.0729
 20
40.7634
 11
35.3131
 21
41.0536
  0
LINE
  8
0
 10
35.3131
 20
41.0536
 11
35.5877
 21
41.3116
  0
LINE
  8
0
 10
35.5877
 20
41.3116
 11
35.8925
 21
41.533
  0
LINE
  8
0
 10
35.8925
 20
41.533
 11
36.2227
 21
41.7145
  0
LINE
  8
0
 10
36.2227
 20
41.7145
 11
36.5729
 21
41.8532
  0
LINE
  8
0
 10
36.5729
 20
41.8532
 11
36.9379
 21
41.9469
  0
LINE
  8
0
 10
36.9379
 20
41.9469
 11
37.3116
 21
41.9941
  0
LINE
  8
0
 10
37.3116
 20
41.9941
 11
37.6884
 21
41.9941
  0
LINE
  8
0
 10
37.6884
 20
41.9941
 11
38.0621
 21
41.9469
  0
LINE
  8
0
 10
38.0621
 20
41.9469
 11
38.427
 21
41.8532
  0
LINE
  8
0
 10
38.427
 20
41.8532
 11
38.7773
 21
41.7145
  0
LINE
  8
0
 10
38.7773
 20
41.7145
 11
39.1075
 21
41.533
  0
LINE
  8
0
 10
39.1075
 20
41.533
 11
39.4123
 21
41.3116
  0
LINE
  8
0
 10
39.4123
 20
41.3116
 11
39.6869
 21
41.0536
  0
LINE
  8
0
 10
39.6869
 20
41.0536
 11
39.927
 21
40.7634
  0
LINE
  8
0
 10
39.927
 20
40.7634
 11
40.1289
 21
40.4453
  0
LINE
  8
0
 10
40.1289
 20
40.4453
 11
40.2893
 21
40.1044
  0
LINE
  8
0
 10
40.2893
 20
40.1044
 11
40.4057
 21
39.7461
  0
LINE
  8
0
 10
40.4057
 20
39.7461
 11
40.4763
 21
39.376
  0
LINE
  8
0
 10
40.4763
 20
39.376
 11
40.5
 21
39
  0
LINE
  8
0
 10
40.5
 20
39
 11
40.4763
 21
38.624
  0
LINE
  8
0
 10
40.4763
 20
38.624
 11
40.4057
 21
38.2539
  0
LINE
  8
0
 10
40.4057
 20
38.2539
 11
40.2893
 21
37.8956
  0
LINE
  8
0
 10
40.2893
 20
37.8956
 11
40.1289
 21
37.5547
  0
LINE
  8
0
 10
40.1289
 20
37.5547
 11
39.927
 21
37.2366
  0
LINE
  8
0
 10
39.927
 20
37.2366
 11
39.6869
 21
36.9464
  0
LINE
  8
0
 10
39.6869
 20
36.9464
 11
39.4123
 21
36.6885
  0
LINE
  8
0
 10
39.4123
 20
36.6885
 11
39.1075
 21
36.467
  0
LINE
  8
0
 10
39.1075
 20
36.467
 11
38.7773
 21
36.2855
  0
LINE
  8
0
 10
38.7773
 20
36.2855
 11
38.427
 21
36.1468
  0
LINE
  8
0
 10
38.427
 20
36.1468
 11
38.0621
 21
36.0531
  0
LINE
  8
0
 10
38.0621
 20
36.0531
 11
37.6884
 21
36.0059
  0
LINE
  8
0
 10
37.6884
 20
36.0059
 11
37.3116
 21
36.0059
  0
LINE
  8
0
 10
7.31161
 20
36.0059
 11
6.93785
 21
36.0531
  0
LINE
  8
0
 10
6.93785
 20
36.0531
 11
6.57294
 21
36.1468
  0
LINE
  8
0
 10
6.57294
 20
36.1468
 11
6.22266
 21
36.2855
  0
LINE
  8
0
 10
6.22266
 20
36.2855
 11
5.89252
 21
36.467
  0
LINE
  8
0
 10
5.89252
 20
36.467
 11
5.58772
 21
36.6885
  0
LINE
  8
0
 10
5.58772
 20
36.6885
 11
5.31308
 21
36.9464
  0
LINE
  8
0
 10
5.31308
 20
36.9464
 11
5.07294
 21
37.2366
  0
LINE
  8
0
 10
5.07294
 20
37.2366
 11
4.87108
 21
37.5547
  0
LINE
  8
0
 10
4.87108
 20
37.5547
 11
4.71066
 21
37.8956
  0
LINE
  8
0
 10
4.71066
 20
37.8956
 11
4.59424
 21
38.2539
  0
LINE
  8
0
 10
4.59424
 20
38.2539
 11
4.52365
 21
38.624
  0
LINE
  8
0
 10
4.52365
 20
38.624
 11
4.5
 21
39
  0
LINE
  8
0
 10
4.5
 20
39
 11
4.52365
 21
39.376
  0
LINE
  8
0
 10
4.52365
 20
39.376
 11
4.59424
 21
39.7461
  0
LINE
  8
0
 10
4.59424
 20
39.7461
 11
4.71066
 21
40.1044
  0
LINE
  8
0
 10
4.71066
 20
40.1044
 11
4.87108
 21
40.4453
  0
LINE
  8
0
 10
4.87108
 20
40.4453
 11
5.07294
 21
40.7634
  0
LINE
  8
0
 10
5.07294
 20
40.7634
 11
5.31308
 21
41.0536
  0
LINE
  8
0
 10
5.31308
 20
41.0536
 11
5.58772
 21
41.3116
  0
LINE
  8
0
 10
5.58772
 20
41.3116
 11
5.89252
 21
41.533
  0
LINE
  8
0
 10
5.89252
 20
41.533
 11
6.22266
 21
41.7145
  0
LINE
  8
0
 10
6.22266
 20
41.7145
 11
6.57294
 21
41.8532
  0
LINE
  8
0
 10
6.57294
 20
41.8532
 11
6.93785
 21
41.9469
  0
LINE
  8
0
 10
6.93785
 20
41.9469
 11
7.31161
 21
41.9941
  0
LINE
  8
0
 10
7.31161
 20
41.9941
 11
7.68837
 21
41.9941
  0
LINE
  8
0
 10
7.68837
 20
41.9941
 11
8.06213
 21
41.9469
  0
LINE
  8
0
 10
8.06213
 20
41.9469
 11
8.42705
 21
41.8532
  0
LINE
  8
0
 10
8.42705
 20
41.8532
 11
8.77733
 21
41.7145
  0
LINE
  8
0
 10
8.77733
 20
41.7145
 11
9.10747
 21
41.533
  0
LINE
  8
0
 10
9.10747
 20
41.533
 11
9.41226
 21
41.3116
  0
LINE
  8
0
 10
9.41226
 20
41.3116
 11
9.6869
 21
41.0536
  0
LINE
  8
0
 10
9.6869
 20
41.0536
 11
9.92705
 21
40.7634
  0
LINE
  8
0
 10
9.92705
 20
40.7634
 11
10.1289
 21
40.4453
  0
LINE
  8
0
 10
10.1289
 20
40.4453
 11
10.2893
 21
40.1044
  0
LINE
  8
0
 10
10.2893
 20
40.1044
 11
10.4057
 21
39.7461
  0
LINE
  8
0
 10
10.4057
 20
39.7461
 11
10.4763
 21
39.376
  0
LINE
  8
0
 10
10.4763
 20
39.376
 11
10.5
 21
39
  0
LINE
  8
0
 10
10.5
 20
39
 11
10.4763
 21
38.624
  0
LINE
  8
0
 10
10.4763
 20
38.624
 11
10.4057
 21
38.2539
  0
LINE
  8
0
 10
10.4057
 20
38.2539
 11
10.2893
 21
37.8956
  0
LINE
  8
0
 10
10.2893
 20
37.8956
 11
10.1289
 21
37.5547
  0
LINE
  8
0
 10
10.1289
 20
37.5547
 11
9.92705
 21
37.2366
  0
LINE
  8
0
 10
9.92705
 20
37.2366
 11
9.6869
 21
36.9464
  0
LINE
  8
0
 10
9.6869
 20
36.9464
 11
9.41226
 21
36.6885
  0
LINE
  8
0
 10
9.41226
 20
36.6885
 11
9.10747
 21
36.467
  0
LINE
  8
0
 10
9.10747
 20
36.467
 11
8.77733
 21
36.2855
  0
LINE
  8
0
 10
8.77733
 20
36.2855
 11
8.42705
 21
36.1468
  0
LINE
  8
0
 10
8.42705
 20
36.1468
 11
8.06213
 21
36.0531
  0
LINE
  8
0
 10
8.06213
 20
36.0531
 11
7.68837
 21
36.0059
  0
LINE
  8
0
 10
7.68837
 20
36.0059
 11
7.31161
 21
36.0059
  0
LINE
  8
0
 10
20.8267
 20
36.1018
 11
19.1534
 21
39
  0
LINE
  8
0
 10
19.1534
 20
39
 11
20.8267
 21
41.8982
  0
LINE
  8
0
 10
20.8267
 20
41.8982
 11
24.1733
 21
41.8982
  0
LINE
  8
0
 10
24.1733
 20
41.8982
 11
25.8466
 21
39
  0
LINE
  8
0
 10
25.8466
 20
39
 11
24.1733
 21
36.1018
  0
LINE
  8
0
 10
24.1733
 20
36.1018
 11
20.8267
 21
36.1018
  0
LINE
  8
0
 10
14.9058
 20
37.503
 11
14.7189
 21
37.5266
  0
LINE
  8
0
 10
14.7189
 20
37.5266
 11
14.5365
 21
37.5734
  0
LINE
  8
0
 10
14.5365
 20
37.5734
 11
14.3613
 21
37.6428
  0
LINE
  8
0
 10
14.3613
 20
37.6428
 11
14.1963
 21
37.7335
  0
LINE
  8
0
 10
14.1963
 20
37.7335
 11
14.0439
 21
37.8442
  0
LINE
  8
0
 10
14.0439
 20
37.8442
 11
13.9065
 21
37.9732
  0
LINE
  8
0
 10
13.9065
 20
37.9732
 11
13.7865
 21
38.1183
  0
LINE
  8
0
 10
13.7865
 20
38.1183
 11
13.6855
 21
38.2774
  0
LINE
  8
0
 10
13.6855
 20
38.2774
 11
13.6053
 21
38.4478
  0
LINE
  8
0
 10
13.6053
 20
38.4478
 11
13.5471
 21
38.627
  0
LINE
  8
0
 10
13.5471
 20
38.627
 11
13.5118
 21
38.812
  0
LINE
  8
0
 10
13.5118
 20
38.812
 11
13.5
 21
39
  0
LINE
  8
0
 10
13.5
 20
39
 11
13.5118
 21
39.188
  0
LINE
  8
0
 10
13.5118
 20
39.188
 11
13.5471
 21
39.373
  0
LINE
  8
0
 10
13.5471
 20
39.373
 11
13.6053
 21
39.5522
  0
LINE
  8
0
 10
13.6053
 20
39.5522
 11
13.6855
 21
39.7226
  0
LINE
  8
0
 10
13.6855
 20
39.7226
 11
13.7865
 21
39.8817
  0
LINE
  8
0
 10
13.7865
 20
39.8817
 11
13.9065
 21
40.0268
  0
LINE
  8
0
 10
13.9065
 20
40.0268
 11
14.0439
 21
40.1558
  0
LINE
  8
0
 10
14.0439
 20
40.1558
 11
14.1963
 21
40.2665
  0
LINE
  8
0
 10
14.1963
 20
40.2665
 11
14.3613
 21
40.3573
  0
LINE
  8
0
 10
14.3613
 20
40.3573
 11
14.5365
 21
40.4266
  0
LINE
  8
0
 10
14.5365
 20
40.4266
 11
14.7189
 21
40.4734
  0
LINE
  8
0
 10
14.7189
 20
40.4734
 11
14.9058
 21
40.4971
  0
LINE
  8
0
 10
14.9058
 20
40.4971
 11
15.0942
 21
40.4971
  0
LINE
  8
0
 10
15.0942
 20
40.4971
 11
15.2811
 21
40.4734
  0
LINE
  8
0
 10
15.2811
 20
40.4734
 11
15.4635
 21
40.4266
  0
LINE
  8
0
 10
15.4635
 20
40.4266
 11
15.6387
 21
40.3573
  0
LINE
  8
0
 10
15.6387
 20
40.3573
 11
15.8037
 21
40.2665
  0
LINE
  8
0
 10
15.8037
 20
40.2665
 11
15.9561
 21
40.1558
  0
LINE
  8
0
 10
15.9561
 20
40.1558
 11
16.0934
 21
40.0268
  0
LINE
  8
0
 10
16.0934
 20
40.0268
 11
16.2135
 21
39.8817
  0
LINE
  8
0
 10
16.2135
 20
39.8817
 11
16.3145
 21
39.7226
  0
LINE
  8
0
 10
16.3145
 20
39.7226
 11
16.3947
 21
39.5522
  0
LINE
  8
0
 10
16.3947
 20
39.5522
 11
16.4529
 21
39.373
  0
LINE
  8
0
 10
16.4529
 20
39.373
 11
16.4882
 21
39.188
  0
LINE
  8
0
 10
16.4882
 20
39.188
 11
16.5
 21
39
  0
LINE
  8
0
 10
16.5
 20
39
 11
16.4882
 21
38.812
  0
LINE
  8
0
 10
16.4882
 20
38.812
 11
16.4529
 21
38.627
  0
LINE
  8
0
 10
16.4529
 20
38.627
 11
16.3947
 21
38.4478
  0
LINE
  8
0
 10
16.3947
 20
38.4478
 11
16.3145
 21
38.2774
  0
LINE
  8
0
 10
16.3145
 20
38.2774
 11
16.2135
 21
38.1183
  0
LINE
  8
0
 10
16.2135
 20
38.1183
 11
16.0934
 21
37.9732
  0
LINE
  8
0
 10
16.0934
 20
37.9732
 11
15.9561
 21
37.8442
  0
LINE
  8
0
 10
15.9561
 20
37.8442
 11
15.8037
 21
37.7335
  0
LINE
  8
0
 10
15.8037
 20
37.7335
 11
15.6387
 21
37.6428
  0
LINE
  8
0
 10
15.6387
 20
37.6428
 11
15.4635
 21
37.5734
  0
LINE
  8
0
 10
15.4635
 20
37.5734
 11
15.2811
 21
37.5266
  0
LINE
  8
0
 10
15.2811
 20
37.5266
 11
15.0942
 21
37.503
  0
LINE
  8
0
 10
15.0942
 20
37.503
 11
14.9058
 21
37.503
  0
LINE
  8
0
 10
29.9058
 20
37.503
 11
29.7189
 21
37.5266
  0
LINE
  8
0
 10
29.7189
 20
37.5266
 11
29.5365
 21
37.5734
  0
LINE
  8
0
 10
29.5365
 20
37.5734
 11
29.3613
 21
37.6428
  0
LINE
  8
0
 10
29.3613
 20
37.6428
 11
29.1963
 21
37.7335
  0
LINE
  8
0
 10
29.1963
 20
37.7335
 11
29.0439
 21
37.8442
  0
LINE
  8
0
 10
29.0439
 20
37.8442
 11
28.9065
 21
37.9732
  0
LINE
  8
0
 10
28.9065
 20
37.9732
 11
28.7865
 21
38.1183
  0
LINE
  8
0
 10
28.7865
 20
38.1183
 11
28.6855
 21
38.2774
  0
LINE
  8
0
 10
28.6855
 20
38.2774
 11
28.6053
 21
38.4478
  0
LINE
  8
0
 10
28.6053
 20
38.4478
 11
28.5471
 21
38.627
  0
LINE
  8
0
 10
28.5471
 20
38.627
 11
28.5118
 21
38.812
  0
LINE
  8
0
 10
28.5118
 20
38.812
 11
28.5
 21
39
  0
LINE
  8
0
 10
28.5
 20
39
 11
28.5118
 21
39.188
  0
LINE
  8
0
 10
28.5118
 20
39.188
 11
28.5471
 21
39.373
  0
LINE
  8
0
 10
28.5471
 20
39.373
 11
28.6053
 21
39.5522
  0
LINE
  8
0
 10
28.6053
 20
39.5522
 11
28.6855
 21
39.7226
  0
LINE
  8
0
 10
28.6855
 20
39.7226
 11
28.7865
 21
39.8817
  0
LINE
  8
0
 10
28.7865
 20
39.8817
 11
28.9065
 21
40.0268
  0
LINE
  8
0
 10
28.9065
 20
40.0268
 11
29.0439
 21
40.1558
  0
LINE
  8
0
 10
29.0439
 20
40.1558
 11
29.1963
 21
40.2665
  0
LINE
  8
0
 10
29.1963
 20
40.2665
 11
29.3613
 21
40.3573
  0
LINE
  8
0
 10
29.3613
 20
40.3573
 11
29.5365
 21
40.4266
  0
LINE
  8
0
 10
29.5365
 20
40.4266
 11
29.7189
 21
40.4734
  0
LINE
  8
0
 10
29.7189
 20
40.4734
 11
29.9058
 21
40.4971
  0
LINE
  8
0
 10
29.9058
 20
40.4971
 11
30.0942
 21
40.4971
  0
LINE
  8
0
 10
30.0942
 20
40.4971
 11
30.2811
 21
40.4734
  0
LINE
  8
0
 10
30.2811
 20
40.4734
 11
30.4635
 21
40.4266
  0
LINE
  8
0
 10
30.4635
 20
40.4266
 11
30.6387
 21
40.3573
  0
LINE
  8
0
 10
30.6387
 20
40.3573
 11
30.8037
 21
40.2665
  0
LINE
  8
0
 10
30.8037
 20
40.2665
 11
30.9561
 21
40.1558
  0
LINE
  8
0
 10
30.9561
 20
40.1558
 11
31.0934
 21
40.0268
  0
LINE
  8
0
 10
31.0934
 20
40.0268
 11
31.2135
 21
39.8817
  0
LINE
  8
0
 10
31.2135
 20
39.8817
 11
31.3145
 21
39.7226
  0
LINE
  8
0
 10
31.3145
 20
39.7226
 11
31.3947
 21
39.5522
  0
LINE
  8
0
 10
31.3947
 20
39.5522
 11
31.4529
 21
39.373
  0
LINE
  8
0
 10
31.4529
 20
39.373
 11
31.4882
 21
39.188
  0
LINE
  8
0
 10
31.4882
 20
39.188
 11
31.5
 21
39
  0
LINE
  8
0
 10
31.5
 20
39
 11
31.4882
 21
38.812
  0
LINE
  8
0
 10
31.4882
 20
38.812
 11
31.4529
 21
38.627
  0
LINE
  8
0
 10
31.4529
 20
38.627
 11
31.3947
 21
38.4478
  0
LINE
  8
0
 10
31.3947
 20
38.4478
 11
31.3145
 21
38.2774
  0
LINE
  8
0
 10
31.3145
 20
38.2774
 11
31.2135
 21
38.1183
  0
LINE
  8
0
 10
31.2135
 20
38.1183
 11
31.0934
 21
37.9732
  0
LINE
  8
0
 10
31.0934
 20
37.9732
 11
30.9561
 21
37.8442
  0
LINE
  8
0
 10
30.9561
 20
37.8442
 11
30.8037
 21
37.7335
  0
LINE
  8
0
 10
30.8037
 20
37.7335
 11
30.6387
 21
37.6428
  0
LINE
  8
0
 10
30.6387
 20
37.6428
 11
30.4635
 21
37.5734
  0
LINE
  8
0
 10
30.4635
 20
37.5734
 11
30.2811
 21
37.5266
  0
LINE
  8
0
 10
30.2811
 20
37.5266
 11
30.0942
 21
37.503
  0
LINE
  8
0
 10
30.0942
 20
37.503
 11
29.9058
 21
37.503
  0
ENDSEC
  0
SECTION
  2
OBJECTS
  0
DICTIONARY
  0
ENDSEC
  0
EOF
