<?xml version="1.0" standalone="no"?>
<!DOCTYPE svg PUBLIC "-//W3C//DTD SVG 1.1//EN" "http://www.w3.org/Graphics/SVG/1.1/DTD/svg11.dtd">
<svg width="27mm" height="14mm" viewBox="-13 -7 27 14" xmlns="http://www.w3.org/2000/svg" version="1.1">
<title>OpenSCAD Model</title>
<path d="
M 10.712,6.23268 L 11.1743,6.11401 L 11.618,5.93834 L 12.0361,5.70844 L 12.4222,5.42795 L 12.7701,5.10127
 L 13.0743,4.73358 L 13.33,4.33066 L 13.5331,3.89886 L 13.6806,3.44501 L 13.77,2.97626 L 13.8,2.5
 L 13.8,-2.5 L 13.77,-2.97626 L 13.6806,-3.44501 L 13.5331,-3.89886 L 13.33,-4.33066 L 13.0743,-4.73358
 L 12.7701,-5.10127 L 12.4222,-5.42795 L 12.0361,-5.70844 L 11.618,-5.93834 L 11.1743,-6.11401 L 10.712,-6.23268
 L 10.2386,-6.2925 L 4.76138,-6.2925 L 4.28795,-6.23268 L 3.82573,-6.11401 L 3.38203,-5.93834 L 2.96385,-5.70844
 L 2.57777,-5.42795 L 2.2299,-5.10127 L 1.92572,-4.73358 L 1.67003,-4.33066 L 1.46684,-3.89886 L 1.31938,-3.44501
 L 1.22995,-2.97626 L 1.2,-2.5 L 1.2,2.5 L 1.22995,2.97626 L 1.31938,3.44501 L 1.46684,3.89886
 L 1.67003,4.33066 L 1.92572,4.73358 L 2.2299,5.10127 L 2.57777,5.42795 L 2.96385,5.70844 L 3.38203,5.93834
 L 3.82573,6.11401 L 4.28795,6.23268 L 4.76138,6.2925 L 10.2386,6.2925 z
M 6.81161,3.49408 L 6.43785,3.44685 L 6.07294,3.35316 L 5.72266,3.21448 L 5.39252,3.03297 L 5.08772,2.81154
 L 4.81308,2.55363 L 4.57294,2.26335 L 4.37108,1.94525 L 4.21066,1.60437 L 4.09424,1.24606 L 4.02365,0.875992
 L 4,0.5 L 4,-0.5 L 4.02365,-0.875992 L 4.09424,-1.24606 L 4.21066,-1.60437 L 4.37108,-1.94525
 L 4.57294,-2.26335 L 4.81308,-2.55363 L 5.08772,-2.81154 L 5.39252,-3.03297 L 5.72266,-3.21448 L 6.07294,-3.35316
 L 6.43785,-3.44685 L 6.81161,-3.49408 L 8.18837,-3.49408 L 8.56213,-3.44685 L 8.92705,-3.35316 L 9.27733,-3.21448
 L 9.60747,-3.03297 L 9.91226,-2.81154 L 10.1869,-2.55363 L 10.427,-2.26335 L 10.6289,-1.94525 L 10.7893,-1.60437
 L 10.9057,-1.24606 L 10.9763,-0.875992 L 11,-0.5 L 11,0.5 L 10.9763,0.875992 L 10.9057,1.24606
 L 10.7893,1.60437 L 10.6289,1.94525 L 10.427,2.26335 L 10.1869,2.55363 L 9.91226,2.81154 L 9.60747,3.03297
 L 9.27733,3.21448 L 8.92705,3.35316 L 8.56213,3.44685 L 8.18837,3.49408 z
M -6.56308,4.91142 L -5.95491,4.75528 L -5.37109,4.52412 L -4.82086,4.22163 L -4.31287,3.85255 L -3.85515,3.42273
 L -3.45491,2.93892 L -3.11845,2.40877 L -2.8511,1.84062 L -2.65707,1.24344 L -2.53941,0.626663 L -2.5,-0
 L -2.53941,-0.626663 L -2.65707,-1.24344 L -2.8511,-1.84062 L -3.11845,-2.40877 L -3.45491,-2.93892 L -3.85515,-3.42273
 L -4.31287,-3.85255 L -4.82086,-4.22163 L -5.37109,-4.52412 L -5.95491,-4.75528 L -6.56308,-4.91142 L -7.18604,-4.99013
 L -7.81395,-4.99013 L -8.4369,-4.91142 L -9.04507,-4.75528 L -9.62889,-4.52412 L -10.1791,-4.22163 L -10.6871,-3.85255
 L -11.1448,-3.42273 L -11.5451,-2.93892 L -11.8815,-2.40877 L -12.1489,-1.84062 L -12.3429,-1.24344 L -12.4606,-0.626663
 L -12.5,-0 L -12.4606,0.626663 L -12.3429,1.24344 L -12.1489,1.84062 L -11.8815,2.40877 L -11.5451,2.93892
 L -11.1448,3.42273 L -10.6871,3.85255 L -10.1791,4.22163 L -9.62889,4.52412 L -9.04507,4.75528 L -8.4369,4.91142
 L -7.81395,4.99013 L -7.18604,4.99013 z
M -7.59418,1.49704 L -7.78107,1.47342 L -7.96352,1.42657 L -8.13866,1.35724 L -8.30373,1.26648 L -8.45613,1.15576
 L -8.59344,1.02681 L -8.71352,0.881668 L -8.81445,0.722626 L -8.89465,0.552185 L -8.95287,0.373032 L -8.98816,0.187988
 L -9,-0 L -8.98816,-0.187988 L -8.95287,-0.373032 L -8.89465,-0.552185 L -8.81445,-0.722626 L -8.71352,-0.881668
 L -8.59344,-1.02681 L -8.45613,-1.15576 L -8.30373,-1.26648 L -8.13866,-1.35724 L -7.96352,-1.42657 L -7.78107,-1.47342
 L -7.59418,-1.49704 L -7.40581,-1.49704 L -7.21892,-1.47342 L -7.03647,-1.42657 L -6.86133,-1.35724 L -6.69626,-1.26648
 L -6.54385,-1.15576 L -6.40654,-1.02681 L -6.28647,-0.881668 L -6.18553,-0.722626 L -6.10533,-0.552185 L -6.04712,-0.373032
 L -6.01183,-0.187988 L -6,-0 L -6.01183,0.187988 L -6.04712,0.373032 L -6.10533,0.552185 L -6.18553,0.722626
 L -6.28647,0.881668 L -6.40654,1.02681 L -6.54385,1.15576 L -6.69626,1.26648 L -6.86133,1.35724 L -7.03647,1.42657
 L -7.21892,1.47342 L -7.40581,1.49704 z
" stroke="black" fill="lightgray" stroke-width="0.5"/>
</svg>
