<?xml version="1.0" standalone="no"?>
<!DOCTYPE svg PUBLIC "-//W3C//DTD SVG 1.1//EN" "http://www.w3.org/Graphics/SVG/1.1/DTD/svg11.dtd">
<svg width="16mm" height="99mm" viewBox="-9 -185 16 99" xmlns="http://www.w3.org/2000/svg" version="1.1">
<title>OpenSCAD Model</title>
<path d="
M -6,-142.007 L -5.64484,-141.577 L -5.18712,-141.147 L -4.67912,-140.778 L -4.12889,-140.476 L -3.54507,-140.245
 L -2.9369,-140.089 L -2.31395,-140.01 L 2.31395,-140.01 L 2.9369,-140.089 L 3.54507,-140.245 L 4.12889,-140.476
 L 4.67912,-140.778 L 5.18712,-141.147 L 5.64484,-141.577 L 6.04507,-142.061 L 6.38153,-142.591 L 6.64888,-143.159
 L 6.84291,-143.757 L 6.96057,-144.373 L 7,-145 L 7,-179 L 6.96057,-179.627 L 6.84291,-180.243
 L 6.64888,-180.841 L 6.38153,-181.409 L 6.04507,-181.939 L 5.64484,-182.423 L 5.18712,-182.853 L 4.67912,-183.222
 L 4.12889,-183.524 L 3.54507,-183.755 L 2.9369,-183.911 L 2.31395,-183.99 L -2.31395,-183.99 L -2.9369,-183.911
 L -3.54507,-183.755 L -4.12889,-183.524 L -4.67912,-183.222 L -5.18712,-182.853 L -5.64484,-182.423 L -6,-181.993
 L -6,-184.479 L -9,-184.479 L -9,-139.521 L -6,-139.521 z
M -2.19545,-141.893 L -2.5833,-141.942 L -2.96194,-142.039 L -3.32541,-142.183 L -3.66798,-142.372 L -3.98424,-142.601
 L -4.26921,-142.869 L -4.5184,-143.17 L -4.72786,-143.5 L -4.89432,-143.854 L -5.01512,-144.226 L -5.08836,-144.61
 L -5.11292,-145 L -5.11292,-179 L -5.08836,-179.39 L -5.01512,-179.774 L -4.89432,-180.146 L -4.72786,-180.5
 L -4.5184,-180.83 L -4.26921,-181.131 L -3.98424,-181.399 L -3.66798,-181.628 L -3.32541,-181.817 L -2.96194,-181.961
 L -2.5833,-182.058 L -2.19545,-182.107 L 2.19545,-182.107 L 2.5833,-182.058 L 2.96194,-181.961 L 3.32541,-181.817
 L 3.66798,-181.628 L 3.98424,-181.399 L 4.26921,-181.131 L 4.5184,-180.83 L 4.72786,-180.5 L 4.89432,-180.146
 L 5.01512,-179.774 L 5.08836,-179.39 L 5.11292,-179 L 5.11292,-145 L 5.08836,-144.61 L 5.01512,-144.226
 L 4.89432,-143.854 L 4.72786,-143.5 L 4.5184,-143.17 L 4.26921,-142.869 L 3.98424,-142.601 L 3.66798,-142.372
 L 3.32541,-142.183 L 2.96194,-142.039 L 2.5833,-141.942 L 2.19545,-141.893 z
M 2.9369,-86.0886 L 3.54507,-86.2447 L 4.12889,-86.4759 L 4.67912,-86.7784 L 5.18712,-87.1474 L 5.64484,-87.5773
 L 6.04507,-88.0611 L 6.38153,-88.5912 L 6.64888,-89.1594 L 6.84291,-89.7566 L 6.96057,-90.3733 L 7,-91
 L 7,-125 L 6.96057,-125.627 L 6.84291,-126.243 L 6.64888,-126.841 L 6.38153,-127.409 L 6.04507,-127.939
 L 5.64484,-128.423 L 5.18712,-128.853 L 4.67912,-129.222 L 4.12889,-129.524 L 3.54507,-129.755 L 2.9369,-129.911
 L 2.31395,-129.99 L -2.31395,-129.99 L -2.9369,-129.911 L -3.54507,-129.755 L -4.12889,-129.524 L -4.67912,-129.222
 L -5.18712,-128.853 L -5.64484,-128.423 L -6,-127.993 L -6,-129.153 L -9,-129.153 L -9,-86.8474
 L -6,-86.8474 L -6,-88.0066 L -5.64484,-87.5773 L -5.18712,-87.1474 L -4.67912,-86.7784 L -4.12889,-86.4759
 L -3.54507,-86.2447 L -2.9369,-86.0886 L -2.31395,-86.0099 L 2.31395,-86.0099 z
M -0.150696,-120.605 L -0.449707,-120.643 L -0.741638,-120.717 L -1.02187,-120.828 L -1.28598,-120.974 L -1.52982,-121.151
 L -1.74951,-121.357 L -1.94164,-121.589 L -2.10313,-121.844 L -2.23146,-122.117 L -2.32458,-122.403 L -2.38107,-122.699
 L -2.39999,-123 L -2.38107,-123.301 L -2.32458,-123.597 L -2.23146,-123.883 L -2.10313,-124.156 L -1.94164,-124.411
 L -1.74951,-124.643 L -1.52982,-124.849 L -1.28598,-125.026 L -1.02187,-125.172 L -0.741638,-125.283 L -0.449707,-125.357
 L -0.150696,-125.395 L 0.150696,-125.395 L 0.449707,-125.357 L 0.741638,-125.283 L 1.02187,-125.172 L 1.28598,-125.026
 L 1.52982,-124.849 L 1.74951,-124.643 L 1.94164,-124.411 L 2.10313,-124.156 L 2.23146,-123.883 L 2.32458,-123.597
 L 2.38107,-123.301 L 2.39999,-123 L 2.38107,-122.699 L 2.32458,-122.403 L 2.23146,-122.117 L 2.10313,-121.844
 L 1.94164,-121.589 L 1.74951,-121.357 L 1.52982,-121.151 L 1.28598,-120.974 L 1.02187,-120.828 L 0.741638,-120.717
 L 0.449707,-120.643 L 0.150696,-120.605 z
M -0.150696,-90.6047 L -0.449707,-90.6425 L -0.741638,-90.7175 L -1.02187,-90.8284 L -1.28598,-90.9736 L -1.52982,-91.1508
 L -1.74951,-91.3571 L -1.94164,-91.5893 L -2.10313,-91.8438 L -2.23146,-92.1165 L -2.32458,-92.4032 L -2.38107,-92.6992
 L -2.39999,-93 L -2.38107,-93.3008 L -2.32458,-93.5969 L -2.23146,-93.8835 L -2.10313,-94.1562 L -1.94164,-94.4107
 L -1.74951,-94.6429 L -1.52982,-94.8492 L -1.28598,-95.0264 L -1.02187,-95.1716 L -0.741638,-95.2825 L -0.449707,-95.3575
 L -0.150696,-95.3953 L 0.150696,-95.3953 L 0.449707,-95.3575 L 0.741638,-95.2825 L 1.02187,-95.1716 L 1.28598,-95.0264
 L 1.52982,-94.8492 L 1.74951,-94.6429 L 1.94164,-94.4107 L 2.10313,-94.1562 L 2.23146,-93.8835 L 2.32458,-93.5969
 L 2.38107,-93.3008 L 2.39999,-93 L 2.38107,-92.6992 L 2.32458,-92.4032 L 2.23146,-92.1165 L 2.10313,-91.8438
 L 1.94164,-91.5893 L 1.74951,-91.3571 L 1.52982,-91.1508 L 1.28598,-90.9736 L 1.02187,-90.8284 L 0.741638,-90.7175
 L 0.449707,-90.6425 L 0.150696,-90.6047 z
" stroke="black" fill="lightgray" stroke-width="0.5"/>
</svg>
