<?xml version="1.0" standalone="no"?>
<!DOCTYPE svg PUBLIC "-//W3C//DTD SVG 1.1//EN" "http://www.w3.org/Graphics/SVG/1.1/DTD/svg11.dtd">
<svg width="6mm" height="108mm" viewBox="-3 -106 6 108" xmlns="http://www.w3.org/2000/svg" version="1.1">
<title>OpenSCAD Model</title>
<path d="
M 0.543396,-100.151 L 0.896149,-100.242 L 1.23476,-100.376 L 1.55389,-100.551 L 1.84853,-100.766 L 2.114,-101.015
 L 2.34615,-101.295 L 2.54128,-101.603 L 2.69635,-101.932 L 2.80888,-102.279 L 2.87712,-102.637 L 2.89999,-103
 L 2.87712,-103.363 L 2.80888,-103.721 L 2.69635,-104.068 L 2.54128,-104.397 L 2.34615,-104.705 L 2.114,-104.985
 L 1.84853,-105.234 L 1.55389,-105.449 L 1.23476,-105.624 L 0.896149,-105.758 L 0.543396,-105.849 L 0.182083,-105.894
 L -0.182083,-105.894 L -0.543396,-105.849 L -0.896149,-105.758 L -1.23476,-105.624 L -1.55389,-105.449 L -1.84853,-105.234
 L -2.114,-104.985 L -2.34615,-104.705 L -2.54128,-104.397 L -2.69635,-104.068 L -2.80888,-103.721 L -2.87712,-103.363
 L -2.89999,-103 L -2.87712,-102.637 L -2.80888,-102.279 L -2.69635,-101.932 L -2.54128,-101.603 L -2.34615,-101.295
 L -2.114,-101.015 L -1.84853,-100.766 L -1.55389,-100.551 L -1.23476,-100.376 L -0.896149,-100.242 L -0.543396,-100.151
 L -0.182083,-100.106 L 0.182083,-100.106 z
M 0.281067,1.47342 L 0.463516,1.42657 L 0.638657,1.35724 L 0.803726,1.26648 L 0.956131,1.15576 L 1.09344,1.02681
 L 1.21352,0.881668 L 1.31445,0.722626 L 1.39465,0.552185 L 1.45287,0.373032 L 1.48816,0.187988 L 1.5,-0
 L 1.48816,-0.187988 L 1.45287,-0.373032 L 1.39465,-0.552185 L 1.31445,-0.722626 L 1.21352,-0.881668 L 1.09344,-1.02681
 L 0.956131,-1.15576 L 0.803726,-1.26648 L 0.638657,-1.35724 L 0.463516,-1.42657 L 0.281067,-1.47342 L 0.0941772,-1.49704
 L -0.0941772,-1.49704 L -0.281067,-1.47342 L -0.463516,-1.42657 L -0.638657,-1.35724 L -0.803726,-1.26648 L -0.956131,-1.15576
 L -1.09344,-1.02681 L -1.21352,-0.881668 L -1.31445,-0.722626 L -1.39465,-0.552185 L -1.45287,-0.373032 L -1.48816,-0.187988
 L -1.5,-0 L -1.48816,0.187988 L -1.45287,0.373032 L -1.39465,0.552185 L -1.31445,0.722626 L -1.21352,0.881668
 L -1.09344,1.02681 L -0.956131,1.15576 L -0.803726,1.26648 L -0.638657,1.35724 L -0.463516,1.42657 L -0.281067,1.47342
 L -0.0941772,1.49704 L 0.0941772,1.49704 z
" stroke="black" fill="lightgray" stroke-width="0.5"/>
</svg>
