<?xml version="1.0" standalone="no"?>
<!DOCTYPE svg PUBLIC "-//W3C//DTD SVG 1.1//EN" "http://www.w3.org/Graphics/SVG/1.1/DTD/svg11.dtd">
<svg width="6mm" height="115mm" viewBox="-3 -113 6 115" xmlns="http://www.w3.org/2000/svg" version="1.1">
<title>OpenSCAD Model</title>
<path d="
M 0.543396,-107.151 L 0.896149,-107.242 L 1.23476,-107.376 L 1.55389,-107.551 L 1.84853,-107.766 L 2.114,-108.015
 L 2.34615,-108.295 L 2.54128,-108.603 L 2.69635,-108.932 L 2.80888,-109.279 L 2.87712,-109.637 L 2.89999,-110
 L 2.87712,-110.363 L 2.80888,-110.721 L 2.69635,-111.068 L 2.54128,-111.397 L 2.34615,-111.705 L 2.114,-111.985
 L 1.84853,-112.234 L 1.55389,-112.449 L 1.23476,-112.624 L 0.896149,-112.758 L 0.543396,-112.849 L 0.182083,-112.894
 L -0.182083,-112.894 L -0.543396,-112.849 L -0.896149,-112.758 L -1.23476,-112.624 L -1.55389,-112.449 L -1.84853,-112.234
 L -2.114,-111.985 L -2.34615,-111.705 L -2.54128,-111.397 L -2.69635,-111.068 L -2.80888,-110.721 L -2.87712,-110.363
 L -2.89999,-110 L -2.87712,-109.637 L -2.80888,-109.279 L -2.69635,-108.932 L -2.54128,-108.603 L -2.34615,-108.295
 L -2.114,-108.015 L -1.84853,-107.766 L -1.55389,-107.551 L -1.23476,-107.376 L -0.896149,-107.242 L -0.543396,-107.151
 L -0.182083,-107.106 L 0.182083,-107.106 z
M 0.281067,1.47342 L 0.463516,1.42657 L 0.638657,1.35724 L 0.803726,1.26648 L 0.956131,1.15576 L 1.09344,1.02681
 L 1.21352,0.881668 L 1.31445,0.722626 L 1.39465,0.552185 L 1.45287,0.373032 L 1.48816,0.187988 L 1.5,-0
 L 1.48816,-0.187988 L 1.45287,-0.373032 L 1.39465,-0.552185 L 1.31445,-0.722626 L 1.21352,-0.881668 L 1.09344,-1.02681
 L 0.956131,-1.15576 L 0.803726,-1.26648 L 0.638657,-1.35724 L 0.463516,-1.42657 L 0.281067,-1.47342 L 0.0941772,-1.49704
 L -0.0941772,-1.49704 L -0.281067,-1.47342 L -0.463516,-1.42657 L -0.638657,-1.35724 L -0.803726,-1.26648 L -0.956131,-1.15576
 L -1.09344,-1.02681 L -1.21352,-0.881668 L -1.31445,-0.722626 L -1.39465,-0.552185 L -1.45287,-0.373032 L -1.48816,-0.187988
 L -1.5,-0 L -1.48816,0.187988 L -1.45287,0.373032 L -1.39465,0.552185 L -1.31445,0.722626 L -1.21352,0.881668
 L -1.09344,1.02681 L -0.956131,1.15576 L -0.803726,1.26648 L -0.638657,1.35724 L -0.463516,1.42657 L -0.281067,1.47342
 L -0.0941772,1.49704 L 0.0941772,1.49704 z
" stroke="black" fill="lightgray" stroke-width="0.5"/>
</svg>
