<?xml version="1.0" standalone="no"?>
<!DOCTYPE svg PUBLIC "-//W3C//DTD SVG 1.1//EN" "http://www.w3.org/Graphics/SVG/1.1/DTD/svg11.dtd">
<svg width="44mm" height="84mm" viewBox="-22 -158 44 84" xmlns="http://www.w3.org/2000/svg" version="1.1">
<title>OpenSCAD Model</title>
<path d="
M 17.9369,-121.339 L 18.5451,-121.495 L 19.1289,-121.726 L 19.6791,-122.028 L 20.1871,-122.397 L 20.6448,-122.827
 L 21.0451,-123.311 L 21.3815,-123.841 L 21.6489,-124.409 L 21.8429,-125.007 L 21.9606,-125.623 L 22,-126.25
 L 22,-152.75 L 21.9606,-153.377 L 21.8429,-153.993 L 21.6489,-154.591 L 21.3815,-155.159 L 21.0451,-155.689
 L 20.6448,-156.173 L 20.1871,-156.603 L 19.6791,-156.972 L 19.1289,-157.274 L 18.5451,-157.505 L 17.9369,-157.661
 L 17.3139,-157.74 L -17.3139,-157.74 L -17.9369,-157.661 L -18.5451,-157.505 L -19.1289,-157.274 L -19.6791,-156.972
 L -20.1871,-156.603 L -20.6448,-156.173 L -21.0451,-155.689 L -21.3815,-155.159 L -21.6489,-154.591 L -21.8429,-153.993
 L -21.9606,-153.377 L -22,-152.75 L -22,-126.25 L -21.9606,-125.623 L -21.8429,-125.007 L -21.6489,-124.409
 L -21.3815,-123.841 L -21.0451,-123.311 L -20.6448,-122.827 L -20.1871,-122.397 L -19.6791,-122.028 L -19.1289,-121.726
 L -18.5451,-121.495 L -17.9369,-121.339 L -17.3139,-121.26 L 17.3139,-121.26 z
M -17.1954,-123.143 L -17.5833,-123.192 L -17.9619,-123.289 L -18.3254,-123.433 L -18.668,-123.622 L -18.9842,-123.851
 L -19.2692,-124.119 L -19.5184,-124.42 L -19.7279,-124.75 L -19.8943,-125.104 L -20.0151,-125.476 L -20.0884,-125.86
 L -20.1129,-126.25 L -20.1129,-152.75 L -20.0884,-153.14 L -20.0151,-153.524 L -19.8943,-153.896 L -19.7279,-154.25
 L -19.5184,-154.58 L -19.2692,-154.881 L -18.9842,-155.149 L -18.668,-155.378 L -18.3254,-155.567 L -17.9619,-155.711
 L -17.5833,-155.808 L -17.1954,-155.857 L 17.1954,-155.857 L 17.5833,-155.808 L 17.9619,-155.711 L 18.3254,-155.567
 L 18.668,-155.378 L 18.9842,-155.149 L 19.2692,-154.881 L 19.5184,-154.58 L 19.7279,-154.25 L 19.8943,-153.896
 L 20.0151,-153.524 L 20.0884,-153.14 L 20.1129,-152.75 L 20.1129,-126.25 L 20.0884,-125.86 L 20.0151,-125.476
 L 19.8943,-125.104 L 19.7279,-124.75 L 19.5184,-124.42 L 19.2692,-124.119 L 18.9842,-123.851 L 18.668,-123.622
 L 18.3254,-123.433 L 17.9619,-123.289 L 17.5833,-123.192 L 17.1954,-123.143 z
M 17.9369,-74.8386 L 18.5451,-74.9947 L 19.1289,-75.2259 L 19.6791,-75.5284 L 20.1871,-75.8974 L 20.6448,-76.3273
 L 21.0451,-76.8111 L 21.3815,-77.3412 L 21.6489,-77.9094 L 21.8429,-78.5066 L 21.9606,-79.1233 L 22,-79.75
 L 22,-106.25 L 21.9606,-106.877 L 21.8429,-107.493 L 21.6489,-108.091 L 21.3815,-108.659 L 21.0451,-109.189
 L 20.6448,-109.673 L 20.1871,-110.103 L 19.6791,-110.472 L 19.1289,-110.774 L 18.5451,-111.005 L 17.9369,-111.161
 L 17.3139,-111.24 L -17.3139,-111.24 L -17.9369,-111.161 L -18.5451,-111.005 L -19.1289,-110.774 L -19.6791,-110.472
 L -20.1871,-110.103 L -20.6448,-109.673 L -21.0451,-109.189 L -21.3815,-108.659 L -21.6489,-108.091 L -21.8429,-107.493
 L -21.9606,-106.877 L -22,-106.25 L -22,-79.75 L -21.9606,-79.1233 L -21.8429,-78.5066 L -21.6489,-77.9094
 L -21.3815,-77.3412 L -21.0451,-76.8111 L -20.6448,-76.3273 L -20.1871,-75.8974 L -19.6791,-75.5284 L -19.1289,-75.2259
 L -18.5451,-74.9947 L -17.9369,-74.8386 L -17.3139,-74.7599 L 17.3139,-74.7599 z
M -15.1507,-101.855 L -15.4497,-101.893 L -15.7416,-101.967 L -16.0219,-102.078 L -16.286,-102.224 L -16.5298,-102.401
 L -16.7495,-102.607 L -16.9416,-102.839 L -17.1031,-103.094 L -17.2315,-103.367 L -17.3246,-103.653 L -17.3811,-103.949
 L -17.4,-104.25 L -17.3811,-104.551 L -17.3246,-104.847 L -17.2315,-105.133 L -17.1031,-105.406 L -16.9416,-105.661
 L -16.7495,-105.893 L -16.5298,-106.099 L -16.286,-106.276 L -16.0219,-106.422 L -15.7416,-106.533 L -15.4497,-106.607
 L -15.1507,-106.645 L -14.8493,-106.645 L -14.5503,-106.607 L -14.2583,-106.533 L -13.9781,-106.422 L -13.714,-106.276
 L -13.4702,-106.099 L -13.2505,-105.893 L -13.0583,-105.661 L -12.8969,-105.406 L -12.7685,-105.133 L -12.6754,-104.847
 L -12.6189,-104.551 L -12.6,-104.25 L -12.6189,-103.949 L -12.6754,-103.653 L -12.7685,-103.367 L -12.8969,-103.094
 L -13.0583,-102.839 L -13.2505,-102.607 L -13.4702,-102.401 L -13.714,-102.224 L -13.9781,-102.078 L -14.2583,-101.967
 L -14.5503,-101.893 L -14.8493,-101.855 z
M 14.8493,-101.855 L 14.5503,-101.893 L 14.2583,-101.967 L 13.9781,-102.078 L 13.714,-102.224 L 13.4702,-102.401
 L 13.2505,-102.607 L 13.0583,-102.839 L 12.8969,-103.094 L 12.7685,-103.367 L 12.6754,-103.653 L 12.6189,-103.949
 L 12.6,-104.25 L 12.6189,-104.551 L 12.6754,-104.847 L 12.7685,-105.133 L 12.8969,-105.406 L 13.0583,-105.661
 L 13.2505,-105.893 L 13.4702,-106.099 L 13.714,-106.276 L 13.9781,-106.422 L 14.2583,-106.533 L 14.5503,-106.607
 L 14.8493,-106.645 L 15.1507,-106.645 L 15.4497,-106.607 L 15.7416,-106.533 L 16.0219,-106.422 L 16.286,-106.276
 L 16.5298,-106.099 L 16.7495,-105.893 L 16.9416,-105.661 L 17.1031,-105.406 L 17.2315,-105.133 L 17.3246,-104.847
 L 17.3811,-104.551 L 17.4,-104.25 L 17.3811,-103.949 L 17.3246,-103.653 L 17.2315,-103.367 L 17.1031,-103.094
 L 16.9416,-102.839 L 16.7495,-102.607 L 16.5298,-102.401 L 16.286,-102.224 L 16.0219,-102.078 L 15.7416,-101.967
 L 15.4497,-101.893 L 15.1507,-101.855 z
M -15.1507,-79.3547 L -15.4497,-79.3925 L -15.7416,-79.4675 L -16.0219,-79.5784 L -16.286,-79.7236 L -16.5298,-79.9008
 L -16.7495,-80.1071 L -16.9416,-80.3393 L -17.1031,-80.5938 L -17.2315,-80.8665 L -17.3246,-81.1532 L -17.3811,-81.4492
 L -17.4,-81.75 L -17.3811,-82.0508 L -17.3246,-82.3469 L -17.2315,-82.6335 L -17.1031,-82.9062 L -16.9416,-83.1607
 L -16.7495,-83.3929 L -16.5298,-83.5992 L -16.286,-83.7764 L -16.0219,-83.9216 L -15.7416,-84.0325 L -15.4497,-84.1075
 L -15.1507,-84.1453 L -14.8493,-84.1453 L -14.5503,-84.1075 L -14.2583,-84.0325 L -13.9781,-83.9216 L -13.714,-83.7764
 L -13.4702,-83.5992 L -13.2505,-83.3929 L -13.0583,-83.1607 L -12.8969,-82.9062 L -12.7685,-82.6335 L -12.6754,-82.3469
 L -12.6189,-82.0508 L -12.6,-81.75 L -12.6189,-81.4492 L -12.6754,-81.1532 L -12.7685,-80.8665 L -12.8969,-80.5938
 L -13.0583,-80.3393 L -13.2505,-80.1071 L -13.4702,-79.9008 L -13.714,-79.7236 L -13.9781,-79.5784 L -14.2583,-79.4675
 L -14.5503,-79.3925 L -14.8493,-79.3547 z
M 14.8493,-79.3547 L 14.5503,-79.3925 L 14.2583,-79.4675 L 13.9781,-79.5784 L 13.714,-79.7236 L 13.4702,-79.9008
 L 13.2505,-80.1071 L 13.0583,-80.3393 L 12.8969,-80.5938 L 12.7685,-80.8665 L 12.6754,-81.1532 L 12.6189,-81.4492
 L 12.6,-81.75 L 12.6189,-82.0508 L 12.6754,-82.3469 L 12.7685,-82.6335 L 12.8969,-82.9062 L 13.0583,-83.1607
 L 13.2505,-83.3929 L 13.4702,-83.5992 L 13.714,-83.7764 L 13.9781,-83.9216 L 14.2583,-84.0325 L 14.5503,-84.1075
 L 14.8493,-84.1453 L 15.1507,-84.1453 L 15.4497,-84.1075 L 15.7416,-84.0325 L 16.0219,-83.9216 L 16.286,-83.7764
 L 16.5298,-83.5992 L 16.7495,-83.3929 L 16.9416,-83.1607 L 17.1031,-82.9062 L 17.2315,-82.6335 L 17.3246,-82.3469
 L 17.3811,-82.0508 L 17.4,-81.75 L 17.3811,-81.4492 L 17.3246,-81.1532 L 17.2315,-80.8665 L 17.1031,-80.5938
 L 16.9416,-80.3393 L 16.7495,-80.1071 L 16.5298,-79.9008 L 16.286,-79.7236 L 16.0219,-79.5784 L 15.7416,-79.4675
 L 15.4497,-79.3925 L 15.1507,-79.3547 z
" stroke="black" fill="lightgray" stroke-width="0.5"/>
</svg>
