<?xml version="1.0" standalone="no"?>
<!DOCTYPE svg PUBLIC "-//W3C//DTD SVG 1.1//EN" "http://www.w3.org/Graphics/SVG/1.1/DTD/svg11.dtd">
<svg width="24mm" height="261mm" viewBox="-13 -509 24 261" xmlns="http://www.w3.org/2000/svg" version="1.1">
<title>OpenSCAD Model</title>
<path d="
M -9.75,-466.007 L -9.39484,-465.577 L -8.93712,-465.147 L -8.42912,-464.778 L -7.87889,-464.476 L -7.29507,-464.245
 L -6.6869,-464.089 L -6.06395,-464.01 L 6.06395,-464.01 L 6.6869,-464.089 L 7.29507,-464.245 L 7.87889,-464.476
 L 8.42912,-464.778 L 8.93712,-465.147 L 9.39484,-465.577 L 9.79507,-466.061 L 10.1315,-466.591 L 10.3989,-467.159
 L 10.5929,-467.757 L 10.7106,-468.373 L 10.75,-469 L 10.75,-503 L 10.7106,-503.627 L 10.5929,-504.243
 L 10.3989,-504.841 L 10.1315,-505.409 L 9.79507,-505.939 L 9.39484,-506.423 L 8.93712,-506.853 L 8.42912,-507.222
 L 7.87889,-507.524 L 7.29507,-507.755 L 6.6869,-507.911 L 6.06395,-507.99 L -6.06395,-507.99 L -6.6869,-507.911
 L -7.29507,-507.755 L -7.87889,-507.524 L -8.42912,-507.222 L -8.93712,-506.853 L -9.39484,-506.423 L -9.75,-505.993
 L -9.75,-508.49 L -12.75,-508.49 L -12.75,-463.51 L -9.75,-463.51 z
M -6.00116,-465.008 L -6.49951,-465.071 L -6.98605,-465.196 L -7.45311,-465.381 L -7.8933,-465.623 L -8.29968,-465.918
 L -8.66586,-466.262 L -8.98605,-466.649 L -9.25522,-467.073 L -9.4691,-467.528 L -9.62433,-468.005 L -9.71844,-468.499
 L -9.75,-469 L -9.75,-503 L -9.71844,-503.501 L -9.62433,-503.995 L -9.4691,-504.472 L -9.25522,-504.927
 L -8.98605,-505.351 L -8.66586,-505.738 L -8.29968,-506.082 L -7.8933,-506.377 L -7.45311,-506.619 L -6.98605,-506.804
 L -6.49951,-506.929 L -6.00116,-506.992 L 6.00116,-506.992 L 6.49951,-506.929 L 6.98605,-506.804 L 7.45311,-506.619
 L 7.8933,-506.377 L 8.29968,-506.082 L 8.66586,-505.738 L 8.98605,-505.351 L 9.25522,-504.927 L 9.4691,-504.472
 L 9.62433,-503.995 L 9.71844,-503.501 L 9.75,-503 L 9.75,-469 L 9.71844,-468.499 L 9.62433,-468.005
 L 9.4691,-467.528 L 9.25522,-467.073 L 8.98605,-466.649 L 8.66586,-466.262 L 8.29968,-465.918 L 7.8933,-465.623
 L 7.45311,-465.381 L 6.98605,-465.196 L 6.49951,-465.071 L 6.00116,-465.008 z
M -9.75,-412.007 L -9.39484,-411.577 L -8.93712,-411.147 L -8.42912,-410.778 L -7.87889,-410.476 L -7.29507,-410.245
 L -6.6869,-410.089 L -6.06395,-410.01 L 6.06395,-410.01 L 6.6869,-410.089 L 7.29507,-410.245 L 7.87889,-410.476
 L 8.42912,-410.778 L 8.93712,-411.147 L 9.39484,-411.577 L 9.79507,-412.061 L 10.1315,-412.591 L 10.3989,-413.159
 L 10.5929,-413.757 L 10.7106,-414.373 L 10.75,-415 L 10.75,-449 L 10.7106,-449.627 L 10.5929,-450.243
 L 10.3989,-450.841 L 10.1315,-451.409 L 9.79507,-451.939 L 9.39484,-452.423 L 8.93712,-452.853 L 8.42912,-453.222
 L 7.87889,-453.524 L 7.29507,-453.755 L 6.6869,-453.911 L 6.06395,-453.99 L -6.06395,-453.99 L -6.6869,-453.911
 L -7.29507,-453.755 L -7.87889,-453.524 L -8.42912,-453.222 L -8.93712,-452.853 L -9.39484,-452.423 L -9.75,-451.993
 L -9.75,-454.49 L -12.75,-454.49 L -12.75,-409.51 L -9.75,-409.51 z
M -6.00116,-411.008 L -6.49951,-411.071 L -6.98605,-411.196 L -7.45311,-411.381 L -7.8933,-411.623 L -8.29968,-411.918
 L -8.66586,-412.262 L -8.98605,-412.649 L -9.25522,-413.073 L -9.4691,-413.528 L -9.62433,-414.005 L -9.71844,-414.499
 L -9.75,-415 L -9.75,-449 L -9.71844,-449.501 L -9.62433,-449.995 L -9.4691,-450.472 L -9.25522,-450.927
 L -8.98605,-451.351 L -8.66586,-451.738 L -8.29968,-452.082 L -7.8933,-452.377 L -7.45311,-452.619 L -6.98605,-452.804
 L -6.49951,-452.929 L -6.00116,-452.992 L 6.00116,-452.992 L 6.49951,-452.929 L 6.98605,-452.804 L 7.45311,-452.619
 L 7.8933,-452.377 L 8.29968,-452.082 L 8.66586,-451.738 L 8.98605,-451.351 L 9.25522,-450.927 L 9.4691,-450.472
 L 9.62433,-449.995 L 9.71844,-449.501 L 9.75,-449 L 9.75,-415 L 9.71844,-414.499 L 9.62433,-414.005
 L 9.4691,-413.528 L 9.25522,-413.073 L 8.98605,-412.649 L 8.66586,-412.262 L 8.29968,-411.918 L 7.8933,-411.623
 L 7.45311,-411.381 L 6.98605,-411.196 L 6.49951,-411.071 L 6.00116,-411.008 z
M -9.75,-358.007 L -9.39484,-357.577 L -8.93712,-357.147 L -8.42912,-356.778 L -7.87889,-356.476 L -7.29507,-356.245
 L -6.6869,-356.089 L -6.06395,-356.01 L 6.06395,-356.01 L 6.6869,-356.089 L 7.29507,-356.245 L 7.87889,-356.476
 L 8.42912,-356.778 L 8.93712,-357.147 L 9.39484,-357.577 L 9.79507,-358.061 L 10.1315,-358.591 L 10.3989,-359.159
 L 10.5929,-359.757 L 10.7106,-360.373 L 10.75,-361 L 10.75,-395 L 10.7106,-395.627 L 10.5929,-396.243
 L 10.3989,-396.841 L 10.1315,-397.409 L 9.79507,-397.939 L 9.39484,-398.423 L 8.93712,-398.853 L 8.42912,-399.222
 L 7.87889,-399.524 L 7.29507,-399.755 L 6.6869,-399.911 L 6.06395,-399.99 L -6.06395,-399.99 L -6.6869,-399.911
 L -7.29507,-399.755 L -7.87889,-399.524 L -8.42912,-399.222 L -8.93712,-398.853 L -9.39484,-398.423 L -9.75,-397.993
 L -9.75,-400.49 L -12.75,-400.49 L -12.75,-355.51 L -9.75,-355.51 z
M -6.00116,-357.008 L -6.49951,-357.071 L -6.98605,-357.196 L -7.45311,-357.381 L -7.8933,-357.623 L -8.29968,-357.918
 L -8.66586,-358.262 L -8.98605,-358.649 L -9.25522,-359.073 L -9.4691,-359.528 L -9.62433,-360.005 L -9.71844,-360.499
 L -9.75,-361 L -9.75,-395 L -9.71844,-395.501 L -9.62433,-395.995 L -9.4691,-396.472 L -9.25522,-396.927
 L -8.98605,-397.351 L -8.66586,-397.738 L -8.29968,-398.082 L -7.8933,-398.377 L -7.45311,-398.619 L -6.98605,-398.804
 L -6.49951,-398.929 L -6.00116,-398.992 L 6.00116,-398.992 L 6.49951,-398.929 L 6.98605,-398.804 L 7.45311,-398.619
 L 7.8933,-398.377 L 8.29968,-398.082 L 8.66586,-397.738 L 8.98605,-397.351 L 9.25522,-396.927 L 9.4691,-396.472
 L 9.62433,-395.995 L 9.71844,-395.501 L 9.75,-395 L 9.75,-361 L 9.71844,-360.499 L 9.62433,-360.005
 L 9.4691,-359.528 L 9.25522,-359.073 L 8.98605,-358.649 L 8.66586,-358.262 L 8.29968,-357.918 L 7.8933,-357.623
 L 7.45311,-357.381 L 6.98605,-357.196 L 6.49951,-357.071 L 6.00116,-357.008 z
M -9.75,-304.007 L -9.39484,-303.577 L -8.93712,-303.147 L -8.42912,-302.778 L -7.87889,-302.476 L -7.29507,-302.245
 L -6.6869,-302.089 L -6.06395,-302.01 L 6.06395,-302.01 L 6.6869,-302.089 L 7.29507,-302.245 L 7.87889,-302.476
 L 8.42912,-302.778 L 8.93712,-303.147 L 9.39484,-303.577 L 9.79507,-304.061 L 10.1315,-304.591 L 10.3989,-305.159
 L 10.5929,-305.757 L 10.7106,-306.373 L 10.75,-307 L 10.75,-341 L 10.7106,-341.627 L 10.5929,-342.243
 L 10.3989,-342.841 L 10.1315,-343.409 L 9.79507,-343.939 L 9.39484,-344.423 L 8.93712,-344.853 L 8.42912,-345.222
 L 7.87889,-345.524 L 7.29507,-345.755 L 6.6869,-345.911 L 6.06395,-345.99 L -6.06395,-345.99 L -6.6869,-345.911
 L -7.29507,-345.755 L -7.87889,-345.524 L -8.42912,-345.222 L -8.93712,-344.853 L -9.39484,-344.423 L -9.75,-343.993
 L -9.75,-346.479 L -12.75,-346.479 L -12.75,-301.521 L -9.75,-301.521 z
M -5.94545,-303.893 L -6.3333,-303.942 L -6.71194,-304.039 L -7.07541,-304.183 L -7.41798,-304.372 L -7.73424,-304.601
 L -8.01921,-304.869 L -8.2684,-305.17 L -8.47786,-305.5 L -8.64432,-305.854 L -8.76512,-306.226 L -8.83836,-306.61
 L -8.86292,-307 L -8.86292,-341 L -8.83836,-341.39 L -8.76512,-341.774 L -8.64432,-342.146 L -8.47786,-342.5
 L -8.2684,-342.83 L -8.01921,-343.131 L -7.73424,-343.399 L -7.41798,-343.628 L -7.07541,-343.817 L -6.71194,-343.961
 L -6.3333,-344.058 L -5.94545,-344.107 L 5.94545,-344.107 L 6.3333,-344.058 L 6.71194,-343.961 L 7.07541,-343.817
 L 7.41798,-343.628 L 7.73424,-343.399 L 8.01921,-343.131 L 8.2684,-342.83 L 8.47786,-342.5 L 8.64432,-342.146
 L 8.76512,-341.774 L 8.83836,-341.39 L 8.86292,-341 L 8.86292,-307 L 8.83836,-306.61 L 8.76512,-306.226
 L 8.64432,-305.854 L 8.47786,-305.5 L 8.2684,-305.17 L 8.01921,-304.869 L 7.73424,-304.601 L 7.41798,-304.372
 L 7.07541,-304.183 L 6.71194,-304.039 L 6.3333,-303.942 L 5.94545,-303.893 z
M 6.6869,-248.089 L 7.29507,-248.245 L 7.87889,-248.476 L 8.42912,-248.778 L 8.93712,-249.147 L 9.39484,-249.577
 L 9.79507,-250.061 L 10.1315,-250.591 L 10.3989,-251.159 L 10.5929,-251.757 L 10.7106,-252.373 L 10.75,-253
 L 10.75,-287 L 10.7106,-287.627 L 10.5929,-288.243 L 10.3989,-288.841 L 10.1315,-289.409 L 9.79507,-289.939
 L 9.39484,-290.423 L 8.93712,-290.853 L 8.42912,-291.222 L 7.87889,-291.524 L 7.29507,-291.755 L 6.6869,-291.911
 L 6.06395,-291.99 L -6.06395,-291.99 L -6.6869,-291.911 L -7.29507,-291.755 L -7.87889,-291.524 L -8.42912,-291.222
 L -8.93712,-290.853 L -9.39484,-290.423 L -9.75,-289.993 L -9.75,-291.153 L -12.75,-291.153 L -12.75,-248.847
 L -9.75,-248.847 L -9.75,-250.007 L -9.39484,-249.577 L -8.93712,-249.147 L -8.42912,-248.778 L -7.87889,-248.476
 L -7.29507,-248.245 L -6.6869,-248.089 L -6.06395,-248.01 L 6.06395,-248.01 z
M 3.59929,-282.605 L 3.30028,-282.643 L 3.00835,-282.717 L 2.72812,-282.828 L 2.464,-282.974 L 2.22017,-283.151
 L 2.00047,-283.357 L 1.80835,-283.589 L 1.64685,-283.844 L 1.51852,-284.117 L 1.4254,-284.403 L 1.36891,-284.699
 L 1.34999,-285 L 1.36891,-285.301 L 1.4254,-285.597 L 1.51852,-285.883 L 1.64685,-286.156 L 1.80835,-286.411
 L 2.00047,-286.643 L 2.22017,-286.849 L 2.464,-287.026 L 2.72812,-287.172 L 3.00835,-287.283 L 3.30028,-287.357
 L 3.59929,-287.395 L 3.9007,-287.395 L 4.19971,-287.357 L 4.49164,-287.283 L 4.77187,-287.172 L 5.03598,-287.026
 L 5.27982,-286.849 L 5.49951,-286.643 L 5.69164,-286.411 L 5.85313,-286.156 L 5.98146,-285.883 L 6.07458,-285.597
 L 6.13107,-285.301 L 6.14999,-285 L 6.13107,-284.699 L 6.07458,-284.403 L 5.98146,-284.117 L 5.85313,-283.844
 L 5.69164,-283.589 L 5.49951,-283.357 L 5.27982,-283.151 L 5.03598,-282.974 L 4.77187,-282.828 L 4.49164,-282.717
 L 4.19971,-282.643 L 3.9007,-282.605 z
M -3.9007,-282.605 L -4.19971,-282.643 L -4.49164,-282.717 L -4.77187,-282.828 L -5.03598,-282.974 L -5.27982,-283.151
 L -5.49951,-283.357 L -5.69164,-283.589 L -5.85313,-283.844 L -5.98146,-284.117 L -6.07458,-284.403 L -6.13107,-284.699
 L -6.14999,-285 L -6.13107,-285.301 L -6.07458,-285.597 L -5.98146,-285.883 L -5.85313,-286.156 L -5.69164,-286.411
 L -5.49951,-286.643 L -5.27982,-286.849 L -5.03598,-287.026 L -4.77187,-287.172 L -4.49164,-287.283 L -4.19971,-287.357
 L -3.9007,-287.395 L -3.59929,-287.395 L -3.30028,-287.357 L -3.00835,-287.283 L -2.72812,-287.172 L -2.464,-287.026
 L -2.22017,-286.849 L -2.00047,-286.643 L -1.80835,-286.411 L -1.64685,-286.156 L -1.51852,-285.883 L -1.4254,-285.597
 L -1.36891,-285.301 L -1.34999,-285 L -1.36891,-284.699 L -1.4254,-284.403 L -1.51852,-284.117 L -1.64685,-283.844
 L -1.80835,-283.589 L -2.00047,-283.357 L -2.22017,-283.151 L -2.464,-282.974 L -2.72812,-282.828 L -3.00835,-282.717
 L -3.30028,-282.643 L -3.59929,-282.605 z
M -3.9007,-252.605 L -4.19971,-252.643 L -4.49164,-252.717 L -4.77187,-252.828 L -5.03598,-252.974 L -5.27982,-253.151
 L -5.49951,-253.357 L -5.69164,-253.589 L -5.85313,-253.844 L -5.98146,-254.117 L -6.07458,-254.403 L -6.13107,-254.699
 L -6.14999,-255 L -6.13107,-255.301 L -6.07458,-255.597 L -5.98146,-255.883 L -5.85313,-256.156 L -5.69164,-256.411
 L -5.49951,-256.643 L -5.27982,-256.849 L -5.03598,-257.026 L -4.77187,-257.172 L -4.49164,-257.283 L -4.19971,-257.357
 L -3.9007,-257.395 L -3.59929,-257.395 L -3.30028,-257.357 L -3.00835,-257.283 L -2.72812,-257.172 L -2.464,-257.026
 L -2.22017,-256.849 L -2.00047,-256.643 L -1.80835,-256.411 L -1.64685,-256.156 L -1.51852,-255.883 L -1.4254,-255.597
 L -1.36891,-255.301 L -1.34999,-255 L -1.36891,-254.699 L -1.4254,-254.403 L -1.51852,-254.117 L -1.64685,-253.844
 L -1.80835,-253.589 L -2.00047,-253.357 L -2.22017,-253.151 L -2.464,-252.974 L -2.72812,-252.828 L -3.00835,-252.717
 L -3.30028,-252.643 L -3.59929,-252.605 z
M 3.59929,-252.605 L 3.30028,-252.643 L 3.00835,-252.717 L 2.72812,-252.828 L 2.464,-252.974 L 2.22017,-253.151
 L 2.00047,-253.357 L 1.80835,-253.589 L 1.64685,-253.844 L 1.51852,-254.117 L 1.4254,-254.403 L 1.36891,-254.699
 L 1.34999,-255 L 1.36891,-255.301 L 1.4254,-255.597 L 1.51852,-255.883 L 1.64685,-256.156 L 1.80835,-256.411
 L 2.00047,-256.643 L 2.22017,-256.849 L 2.464,-257.026 L 2.72812,-257.172 L 3.00835,-257.283 L 3.30028,-257.357
 L 3.59929,-257.395 L 3.9007,-257.395 L 4.19971,-257.357 L 4.49164,-257.283 L 4.77187,-257.172 L 5.03598,-257.026
 L 5.27982,-256.849 L 5.49951,-256.643 L 5.69164,-256.411 L 5.85313,-256.156 L 5.98146,-255.883 L 6.07458,-255.597
 L 6.13107,-255.301 L 6.14999,-255 L 6.13107,-254.699 L 6.07458,-254.403 L 5.98146,-254.117 L 5.85313,-253.844
 L 5.69164,-253.589 L 5.49951,-253.357 L 5.27982,-253.151 L 5.03598,-252.974 L 4.77187,-252.828 L 4.49164,-252.717
 L 4.19971,-252.643 L 3.9007,-252.605 z
" stroke="black" fill="lightgray" stroke-width="0.5"/>
</svg>
