<?xml version="1.0" standalone="no"?>
<!DOCTYPE svg PUBLIC "-//W3C//DTD SVG 1.1//EN" "http://www.w3.org/Graphics/SVG/1.1/DTD/svg11.dtd">
<svg width="46mm" height="244mm" viewBox="-23 -374 46 244" xmlns="http://www.w3.org/2000/svg" version="1.1">
<title>OpenSCAD Model</title>
<path d="
M 18.4369,-298.589 L 19.0451,-298.745 L 19.6289,-298.976 L 20.1791,-299.278 L 20.6871,-299.647 L 21.1448,-300.077
 L 21.5451,-300.561 L 21.8815,-301.091 L 22.1489,-301.659 L 22.3429,-302.257 L 22.4606,-302.873 L 22.5,-303.5
 L 22.5,-368.5 L 22.4606,-369.127 L 22.3429,-369.743 L 22.1489,-370.341 L 21.8815,-370.909 L 21.5451,-371.439
 L 21.1448,-371.923 L 20.6871,-372.353 L 20.1791,-372.722 L 19.6289,-373.024 L 19.0451,-373.255 L 18.4369,-373.411
 L 17.8139,-373.49 L -17.8139,-373.49 L -18.4369,-373.411 L -19.0451,-373.255 L -19.6289,-373.024 L -20.1791,-372.722
 L -20.6871,-372.353 L -21.1448,-371.923 L -21.5451,-371.439 L -21.8815,-370.909 L -22.1489,-370.341 L -22.3429,-369.743
 L -22.4606,-369.127 L -22.5,-368.5 L -22.5,-303.5 L -22.4606,-302.873 L -22.3429,-302.257 L -22.1489,-301.659
 L -21.8815,-301.091 L -21.5451,-300.561 L -21.1448,-300.077 L -20.6871,-299.647 L -20.1791,-299.278 L -19.6289,-298.976
 L -19.0451,-298.745 L -18.4369,-298.589 L -17.8139,-298.51 L 17.8139,-298.51 z
M -17.5482,-299.009 L -18.1401,-299.084 L -18.7178,-299.232 L -19.2724,-299.452 L -19.7952,-299.739 L -20.2778,-300.09
 L -20.7126,-300.498 L -21.0928,-300.958 L -21.4124,-301.462 L -21.6664,-302.001 L -21.8508,-302.569 L -21.9625,-303.155
 L -22,-303.75 L -22,-368.25 L -21.9625,-368.845 L -21.8508,-369.431 L -21.6664,-369.999 L -21.4124,-370.538
 L -21.0928,-371.042 L -20.7126,-371.502 L -20.2778,-371.91 L -19.7952,-372.261 L -19.2724,-372.548 L -18.7178,-372.768
 L -18.1401,-372.916 L -17.5482,-372.991 L 17.5482,-372.991 L 18.1401,-372.916 L 18.7178,-372.768 L 19.2724,-372.548
 L 19.7952,-372.261 L 20.2778,-371.91 L 20.7126,-371.502 L 21.0928,-371.042 L 21.4124,-370.538 L 21.6664,-369.999
 L 21.8508,-369.431 L 21.9625,-368.845 L 22,-368.25 L 22,-303.75 L 21.9625,-303.155 L 21.8508,-302.569
 L 21.6664,-302.001 L 21.4124,-301.462 L 21.0928,-300.958 L 20.7126,-300.498 L 20.2778,-300.09 L 19.7952,-299.739
 L 19.2724,-299.452 L 18.7178,-299.232 L 18.1401,-299.084 L 17.5482,-299.009 z
M 18.4369,-214.589 L 19.0451,-214.745 L 19.6289,-214.976 L 20.1791,-215.278 L 20.6871,-215.647 L 21.1448,-216.077
 L 21.5451,-216.561 L 21.8815,-217.091 L 22.1489,-217.659 L 22.3429,-218.257 L 22.4606,-218.873 L 22.5,-219.5
 L 22.5,-284.5 L 22.4606,-285.127 L 22.3429,-285.743 L 22.1489,-286.341 L 21.8815,-286.909 L 21.5451,-287.439
 L 21.1448,-287.923 L 20.6871,-288.353 L 20.1791,-288.722 L 19.6289,-289.024 L 19.0451,-289.255 L 18.4369,-289.411
 L 17.8139,-289.49 L -17.8139,-289.49 L -18.4369,-289.411 L -19.0451,-289.255 L -19.6289,-289.024 L -20.1791,-288.722
 L -20.6871,-288.353 L -21.1448,-287.923 L -21.5451,-287.439 L -21.8815,-286.909 L -22.1489,-286.341 L -22.3429,-285.743
 L -22.4606,-285.127 L -22.5,-284.5 L -22.5,-219.5 L -22.4606,-218.873 L -22.3429,-218.257 L -22.1489,-217.659
 L -21.8815,-217.091 L -21.5451,-216.561 L -21.1448,-216.077 L -20.6871,-215.647 L -20.1791,-215.278 L -19.6289,-214.976
 L -19.0451,-214.745 L -18.4369,-214.589 L -17.8139,-214.51 L 17.8139,-214.51 z
M -17.493,-215.888 L -17.9751,-215.949 L -18.4457,-216.07 L -18.8975,-216.249 L -19.3234,-216.483 L -19.7165,-216.769
 L -20.0707,-217.101 L -20.3805,-217.476 L -20.6408,-217.886 L -20.8477,-218.326 L -20.9979,-218.788 L -21.089,-219.265
 L -21.1195,-219.75 L -21.1195,-284.25 L -21.089,-284.735 L -20.9979,-285.212 L -20.8477,-285.674 L -20.6408,-286.114
 L -20.3805,-286.524 L -20.0707,-286.899 L -19.7165,-287.231 L -19.3234,-287.517 L -18.8975,-287.751 L -18.4457,-287.93
 L -17.9751,-288.051 L -17.493,-288.112 L 17.493,-288.112 L 17.9751,-288.051 L 18.4457,-287.93 L 18.8975,-287.751
 L 19.3234,-287.517 L 19.7165,-287.231 L 20.0707,-286.899 L 20.3805,-286.524 L 20.6408,-286.114 L 20.8477,-285.674
 L 20.9979,-285.212 L 21.089,-284.735 L 21.1195,-284.25 L 21.1195,-219.75 L 21.089,-219.265 L 20.9979,-218.788
 L 20.8477,-218.326 L 20.6408,-217.886 L 20.3805,-217.476 L 20.0707,-217.101 L 19.7165,-216.769 L 19.3234,-216.483
 L 18.8975,-216.249 L 18.4457,-216.07 L 17.9751,-215.949 L 17.493,-215.888 z
M 18.4369,-130.589 L 19.0451,-130.745 L 19.6289,-130.976 L 20.1791,-131.278 L 20.6871,-131.647 L 21.1448,-132.077
 L 21.5451,-132.561 L 21.8815,-133.091 L 22.1489,-133.659 L 22.3429,-134.257 L 22.4606,-134.873 L 22.5,-135.5
 L 22.5,-200.5 L 22.4606,-201.127 L 22.3429,-201.743 L 22.1489,-202.341 L 21.8815,-202.909 L 21.5451,-203.439
 L 21.1448,-203.923 L 20.6871,-204.353 L 20.1791,-204.722 L 19.6289,-205.024 L 19.0451,-205.255 L 18.4369,-205.411
 L 17.8139,-205.49 L -17.8139,-205.49 L -18.4369,-205.411 L -19.0451,-205.255 L -19.6289,-205.024 L -20.1791,-204.722
 L -20.6871,-204.353 L -21.1448,-203.923 L -21.5451,-203.439 L -21.8815,-202.909 L -22.1489,-202.341 L -22.3429,-201.743
 L -22.4606,-201.127 L -22.5,-200.5 L -22.5,-135.5 L -22.4606,-134.873 L -22.3429,-134.257 L -22.1489,-133.659
 L -21.8815,-133.091 L -21.5451,-132.561 L -21.1448,-132.077 L -20.6871,-131.647 L -20.1791,-131.278 L -19.6289,-130.976
 L -19.0451,-130.745 L -18.4369,-130.589 L -17.8139,-130.51 L 17.8139,-130.51 z
M 14.9058,-196.503 L 14.7189,-196.527 L 14.5365,-196.573 L 14.3613,-196.643 L 14.1963,-196.734 L 14.0439,-196.844
 L 13.9065,-196.973 L 13.7865,-197.118 L 13.6855,-197.277 L 13.6053,-197.448 L 13.5471,-197.627 L 13.5118,-197.812
 L 13.5,-198 L 13.5118,-198.188 L 13.5471,-198.373 L 13.6053,-198.552 L 13.6855,-198.723 L 13.7865,-198.882
 L 13.9065,-199.027 L 14.0439,-199.156 L 14.1963,-199.266 L 14.3613,-199.357 L 14.5365,-199.427 L 14.7189,-199.473
 L 14.9058,-199.497 L 15.0942,-199.497 L 15.2811,-199.473 L 15.4635,-199.427 L 15.6387,-199.357 L 15.8037,-199.266
 L 15.9561,-199.156 L 16.0934,-199.027 L 16.2135,-198.882 L 16.3145,-198.723 L 16.3947,-198.552 L 16.4529,-198.373
 L 16.4882,-198.188 L 16.5,-198 L 16.4882,-197.812 L 16.4529,-197.627 L 16.3947,-197.448 L 16.3145,-197.277
 L 16.2135,-197.118 L 16.0934,-196.973 L 15.9561,-196.844 L 15.8037,-196.734 L 15.6387,-196.643 L 15.4635,-196.573
 L 15.2811,-196.527 L 15.0942,-196.503 z
M -15.0942,-196.503 L -15.2811,-196.527 L -15.4635,-196.573 L -15.6387,-196.643 L -15.8037,-196.734 L -15.9561,-196.844
 L -16.0934,-196.973 L -16.2135,-197.118 L -16.3145,-197.277 L -16.3947,-197.448 L -16.4529,-197.627 L -16.4882,-197.812
 L -16.5,-198 L -16.4882,-198.188 L -16.4529,-198.373 L -16.3947,-198.552 L -16.3145,-198.723 L -16.2135,-198.882
 L -16.0934,-199.027 L -15.9561,-199.156 L -15.8037,-199.266 L -15.6387,-199.357 L -15.4635,-199.427 L -15.2811,-199.473
 L -15.0942,-199.497 L -14.9058,-199.497 L -14.7189,-199.473 L -14.5365,-199.427 L -14.3613,-199.357 L -14.1963,-199.266
 L -14.0439,-199.156 L -13.9065,-199.027 L -13.7865,-198.882 L -13.6855,-198.723 L -13.6053,-198.552 L -13.5471,-198.373
 L -13.5118,-198.188 L -13.5,-198 L -13.5118,-197.812 L -13.5471,-197.627 L -13.6053,-197.448 L -13.6855,-197.277
 L -13.7865,-197.118 L -13.9065,-196.973 L -14.0439,-196.844 L -14.1963,-196.734 L -14.3613,-196.643 L -14.5365,-196.573
 L -14.7189,-196.527 L -14.9058,-196.503 z
M 14.9058,-136.503 L 14.7189,-136.527 L 14.5365,-136.573 L 14.3613,-136.643 L 14.1963,-136.734 L 14.0439,-136.844
 L 13.9065,-136.973 L 13.7865,-137.118 L 13.6855,-137.277 L 13.6053,-137.448 L 13.5471,-137.627 L 13.5118,-137.812
 L 13.5,-138 L 13.5118,-138.188 L 13.5471,-138.373 L 13.6053,-138.552 L 13.6855,-138.723 L 13.7865,-138.882
 L 13.9065,-139.027 L 14.0439,-139.156 L 14.1963,-139.266 L 14.3613,-139.357 L 14.5365,-139.427 L 14.7189,-139.473
 L 14.9058,-139.497 L 15.0942,-139.497 L 15.2811,-139.473 L 15.4635,-139.427 L 15.6387,-139.357 L 15.8037,-139.266
 L 15.9561,-139.156 L 16.0934,-139.027 L 16.2135,-138.882 L 16.3145,-138.723 L 16.3947,-138.552 L 16.4529,-138.373
 L 16.4882,-138.188 L 16.5,-138 L 16.4882,-137.812 L 16.4529,-137.627 L 16.3947,-137.448 L 16.3145,-137.277
 L 16.2135,-137.118 L 16.0934,-136.973 L 15.9561,-136.844 L 15.8037,-136.734 L 15.6387,-136.643 L 15.4635,-136.573
 L 15.2811,-136.527 L 15.0942,-136.503 z
M -15.0942,-136.503 L -15.2811,-136.527 L -15.4635,-136.573 L -15.6387,-136.643 L -15.8037,-136.734 L -15.9561,-136.844
 L -16.0934,-136.973 L -16.2135,-137.118 L -16.3145,-137.277 L -16.3947,-137.448 L -16.4529,-137.627 L -16.4882,-137.812
 L -16.5,-138 L -16.4882,-138.188 L -16.4529,-138.373 L -16.3947,-138.552 L -16.3145,-138.723 L -16.2135,-138.882
 L -16.0934,-139.027 L -15.9561,-139.156 L -15.8037,-139.266 L -15.6387,-139.357 L -15.4635,-139.427 L -15.2811,-139.473
 L -15.0942,-139.497 L -14.9058,-139.497 L -14.7189,-139.473 L -14.5365,-139.427 L -14.3613,-139.357 L -14.1963,-139.266
 L -14.0439,-139.156 L -13.9065,-139.027 L -13.7865,-138.882 L -13.6855,-138.723 L -13.6053,-138.552 L -13.5471,-138.373
 L -13.5118,-138.188 L -13.5,-138 L -13.5118,-137.812 L -13.5471,-137.627 L -13.6053,-137.448 L -13.6855,-137.277
 L -13.7865,-137.118 L -13.9065,-136.973 L -14.0439,-136.844 L -14.1963,-136.734 L -14.3613,-136.643 L -14.5365,-136.573
 L -14.7189,-136.527 L -14.9058,-136.503 z
" stroke="black" fill="lightgray" stroke-width="0.5"/>
</svg>
