  0
SECTION
  2
BLOCKS
  0
ENDSEC
  0
SECTION
  2
ENTITIES
  0
LINE
  8
0
 10
18.4369
 20
298.589
 11
19.0451
 21
298.745
  0
LINE
  8
0
 10
19.0451
 20
298.745
 11
19.6289
 21
298.976
  0
LINE
  8
0
 10
19.6289
 20
298.976
 11
20.1791
 21
299.278
  0
LINE
  8
0
 10
20.1791
 20
299.278
 11
20.6871
 21
299.647
  0
LINE
  8
0
 10
20.6871
 20
299.647
 11
21.1448
 21
300.077
  0
LINE
  8
0
 10
21.1448
 20
300.077
 11
21.5451
 21
300.561
  0
LINE
  8
0
 10
21.5451
 20
300.561
 11
21.8815
 21
301.091
  0
LINE
  8
0
 10
21.8815
 20
301.091
 11
22.1489
 21
301.659
  0
LINE
  8
0
 10
22.1489
 20
301.659
 11
22.3429
 21
302.257
  0
LINE
  8
0
 10
22.3429
 20
302.257
 11
22.4606
 21
302.873
  0
LINE
  8
0
 10
22.4606
 20
302.873
 11
22.5
 21
303.5
  0
LINE
  8
0
 10
22.5
 20
303.5
 11
22.5
 21
368.5
  0
LINE
  8
0
 10
22.5
 20
368.5
 11
22.4606
 21
369.127
  0
LINE
  8
0
 10
22.4606
 20
369.127
 11
22.3429
 21
369.743
  0
LINE
  8
0
 10
22.3429
 20
369.743
 11
22.1489
 21
370.341
  0
LINE
  8
0
 10
22.1489
 20
370.341
 11
21.8815
 21
370.909
  0
LINE
  8
0
 10
21.8815
 20
370.909
 11
21.5451
 21
371.439
  0
LINE
  8
0
 10
21.5451
 20
371.439
 11
21.1448
 21
371.923
  0
LINE
  8
0
 10
21.1448
 20
371.923
 11
20.6871
 21
372.353
  0
LINE
  8
0
 10
20.6871
 20
372.353
 11
20.1791
 21
372.722
  0
LINE
  8
0
 10
20.1791
 20
372.722
 11
19.6289
 21
373.024
  0
LINE
  8
0
 10
19.6289
 20
373.024
 11
19.0451
 21
373.255
  0
LINE
  8
0
 10
19.0451
 20
373.255
 11
18.4369
 21
373.411
  0
LINE
  8
0
 10
18.4369
 20
373.411
 11
17.8139
 21
373.49
  0
LINE
  8
0
 10
17.8139
 20
373.49
 11
-17.8139
 21
373.49
  0
LINE
  8
0
 10
-17.8139
 20
373.49
 11
-18.4369
 21
373.411
  0
LINE
  8
0
 10
-18.4369
 20
373.411
 11
-19.0451
 21
373.255
  0
LINE
  8
0
 10
-19.0451
 20
373.255
 11
-19.6289
 21
373.024
  0
LINE
  8
0
 10
-19.6289
 20
373.024
 11
-20.1791
 21
372.722
  0
LINE
  8
0
 10
-20.1791
 20
372.722
 11
-20.6871
 21
372.353
  0
LINE
  8
0
 10
-20.6871
 20
372.353
 11
-21.1448
 21
371.923
  0
LINE
  8
0
 10
-21.1448
 20
371.923
 11
-21.5451
 21
371.439
  0
LINE
  8
0
 10
-21.5451
 20
371.439
 11
-21.8815
 21
370.909
  0
LINE
  8
0
 10
-21.8815
 20
370.909
 11
-22.1489
 21
370.341
  0
LINE
  8
0
 10
-22.1489
 20
370.341
 11
-22.3429
 21
369.743
  0
LINE
  8
0
 10
-22.3429
 20
369.743
 11
-22.4606
 21
369.127
  0
LINE
  8
0
 10
-22.4606
 20
369.127
 11
-22.5
 21
368.5
  0
LINE
  8
0
 10
-22.5
 20
368.5
 11
-22.5
 21
303.5
  0
LINE
  8
0
 10
-22.5
 20
303.5
 11
-22.4606
 21
302.873
  0
LINE
  8
0
 10
-22.4606
 20
302.873
 11
-22.3429
 21
302.257
  0
LINE
  8
0
 10
-22.3429
 20
302.257
 11
-22.1489
 21
301.659
  0
LINE
  8
0
 10
-22.1489
 20
301.659
 11
-21.8815
 21
301.091
  0
LINE
  8
0
 10
-21.8815
 20
301.091
 11
-21.5451
 21
300.561
  0
LINE
  8
0
 10
-21.5451
 20
300.561
 11
-21.1448
 21
300.077
  0
LINE
  8
0
 10
-21.1448
 20
300.077
 11
-20.6871
 21
299.647
  0
LINE
  8
0
 10
-20.6871
 20
299.647
 11
-20.1791
 21
299.278
  0
LINE
  8
0
 10
-20.1791
 20
299.278
 11
-19.6289
 21
298.976
  0
LINE
  8
0
 10
-19.6289
 20
298.976
 11
-19.0451
 21
298.745
  0
LINE
  8
0
 10
-19.0451
 20
298.745
 11
-18.4369
 21
298.589
  0
LINE
  8
0
 10
-18.4369
 20
298.589
 11
-17.8139
 21
298.51
  0
LINE
  8
0
 10
-17.8139
 20
298.51
 11
17.8139
 21
298.51
  0
LINE
  8
0
 10
17.8139
 20
298.51
 11
18.4369
 21
298.589
  0
LINE
  8
0
 10
-17.5482
 20
299.009
 11
-18.1401
 21
299.084
  0
LINE
  8
0
 10
-18.1401
 20
299.084
 11
-18.7178
 21
299.232
  0
LINE
  8
0
 10
-18.7178
 20
299.232
 11
-19.2724
 21
299.452
  0
LINE
  8
0
 10
-19.2724
 20
299.452
 11
-19.7952
 21
299.739
  0
LINE
  8
0
 10
-19.7952
 20
299.739
 11
-20.2778
 21
300.09
  0
LINE
  8
0
 10
-20.2778
 20
300.09
 11
-20.7126
 21
300.498
  0
LINE
  8
0
 10
-20.7126
 20
300.498
 11
-21.0928
 21
300.958
  0
LINE
  8
0
 10
-21.0928
 20
300.958
 11
-21.4124
 21
301.462
  0
LINE
  8
0
 10
-21.4124
 20
301.462
 11
-21.6664
 21
302.001
  0
LINE
  8
0
 10
-21.6664
 20
302.001
 11
-21.8508
 21
302.569
  0
LINE
  8
0
 10
-21.8508
 20
302.569
 11
-21.9625
 21
303.155
  0
LINE
  8
0
 10
-21.9625
 20
303.155
 11
-22
 21
303.75
  0
LINE
  8
0
 10
-22
 20
303.75
 11
-22
 21
368.25
  0
LINE
  8
0
 10
-22
 20
368.25
 11
-21.9625
 21
368.845
  0
LINE
  8
0
 10
-21.9625
 20
368.845
 11
-21.8508
 21
369.431
  0
LINE
  8
0
 10
-21.8508
 20
369.431
 11
-21.6664
 21
369.999
  0
LINE
  8
0
 10
-21.6664
 20
369.999
 11
-21.4124
 21
370.538
  0
LINE
  8
0
 10
-21.4124
 20
370.538
 11
-21.0928
 21
371.042
  0
LINE
  8
0
 10
-21.0928
 20
371.042
 11
-20.7126
 21
371.502
  0
LINE
  8
0
 10
-20.7126
 20
371.502
 11
-20.2778
 21
371.91
  0
LINE
  8
0
 10
-20.2778
 20
371.91
 11
-19.7952
 21
372.261
  0
LINE
  8
0
 10
-19.7952
 20
372.261
 11
-19.2724
 21
372.548
  0
LINE
  8
0
 10
-19.2724
 20
372.548
 11
-18.7178
 21
372.768
  0
LINE
  8
0
 10
-18.7178
 20
372.768
 11
-18.1401
 21
372.916
  0
LINE
  8
0
 10
-18.1401
 20
372.916
 11
-17.5482
 21
372.991
  0
LINE
  8
0
 10
-17.5482
 20
372.991
 11
17.5482
 21
372.991
  0
LINE
  8
0
 10
17.5482
 20
372.991
 11
18.1401
 21
372.916
  0
LINE
  8
0
 10
18.1401
 20
372.916
 11
18.7178
 21
372.768
  0
LINE
  8
0
 10
18.7178
 20
372.768
 11
19.2724
 21
372.548
  0
LINE
  8
0
 10
19.2724
 20
372.548
 11
19.7952
 21
372.261
  0
LINE
  8
0
 10
19.7952
 20
372.261
 11
20.2778
 21
371.91
  0
LINE
  8
0
 10
20.2778
 20
371.91
 11
20.7126
 21
371.502
  0
LINE
  8
0
 10
20.7126
 20
371.502
 11
21.0928
 21
371.042
  0
LINE
  8
0
 10
21.0928
 20
371.042
 11
21.4124
 21
370.538
  0
LINE
  8
0
 10
21.4124
 20
370.538
 11
21.6664
 21
369.999
  0
LINE
  8
0
 10
21.6664
 20
369.999
 11
21.8508
 21
369.431
  0
LINE
  8
0
 10
21.8508
 20
369.431
 11
21.9625
 21
368.845
  0
LINE
  8
0
 10
21.9625
 20
368.845
 11
22
 21
368.25
  0
LINE
  8
0
 10
22
 20
368.25
 11
22
 21
303.75
  0
LINE
  8
0
 10
22
 20
303.75
 11
21.9625
 21
303.155
  0
LINE
  8
0
 10
21.9625
 20
303.155
 11
21.8508
 21
302.569
  0
LINE
  8
0
 10
21.8508
 20
302.569
 11
21.6664
 21
302.001
  0
LINE
  8
0
 10
21.6664
 20
302.001
 11
21.4124
 21
301.462
  0
LINE
  8
0
 10
21.4124
 20
301.462
 11
21.0928
 21
300.958
  0
LINE
  8
0
 10
21.0928
 20
300.958
 11
20.7126
 21
300.498
  0
LINE
  8
0
 10
20.7126
 20
300.498
 11
20.2778
 21
300.09
  0
LINE
  8
0
 10
20.2778
 20
300.09
 11
19.7952
 21
299.739
  0
LINE
  8
0
 10
19.7952
 20
299.739
 11
19.2724
 21
299.452
  0
LINE
  8
0
 10
19.2724
 20
299.452
 11
18.7178
 21
299.232
  0
LINE
  8
0
 10
18.7178
 20
299.232
 11
18.1401
 21
299.084
  0
LINE
  8
0
 10
18.1401
 20
299.084
 11
17.5482
 21
299.009
  0
LINE
  8
0
 10
17.5482
 20
299.009
 11
-17.5482
 21
299.009
  0
LINE
  8
0
 10
18.4369
 20
214.589
 11
19.0451
 21
214.745
  0
LINE
  8
0
 10
19.0451
 20
214.745
 11
19.6289
 21
214.976
  0
LINE
  8
0
 10
19.6289
 20
214.976
 11
20.1791
 21
215.278
  0
LINE
  8
0
 10
20.1791
 20
215.278
 11
20.6871
 21
215.647
  0
LINE
  8
0
 10
20.6871
 20
215.647
 11
21.1448
 21
216.077
  0
LINE
  8
0
 10
21.1448
 20
216.077
 11
21.5451
 21
216.561
  0
LINE
  8
0
 10
21.5451
 20
216.561
 11
21.8815
 21
217.091
  0
LINE
  8
0
 10
21.8815
 20
217.091
 11
22.1489
 21
217.659
  0
LINE
  8
0
 10
22.1489
 20
217.659
 11
22.3429
 21
218.257
  0
LINE
  8
0
 10
22.3429
 20
218.257
 11
22.4606
 21
218.873
  0
LINE
  8
0
 10
22.4606
 20
218.873
 11
22.5
 21
219.5
  0
LINE
  8
0
 10
22.5
 20
219.5
 11
22.5
 21
284.5
  0
LINE
  8
0
 10
22.5
 20
284.5
 11
22.4606
 21
285.127
  0
LINE
  8
0
 10
22.4606
 20
285.127
 11
22.3429
 21
285.743
  0
LINE
  8
0
 10
22.3429
 20
285.743
 11
22.1489
 21
286.341
  0
LINE
  8
0
 10
22.1489
 20
286.341
 11
21.8815
 21
286.909
  0
LINE
  8
0
 10
21.8815
 20
286.909
 11
21.5451
 21
287.439
  0
LINE
  8
0
 10
21.5451
 20
287.439
 11
21.1448
 21
287.923
  0
LINE
  8
0
 10
21.1448
 20
287.923
 11
20.6871
 21
288.353
  0
LINE
  8
0
 10
20.6871
 20
288.353
 11
20.1791
 21
288.722
  0
LINE
  8
0
 10
20.1791
 20
288.722
 11
19.6289
 21
289.024
  0
LINE
  8
0
 10
19.6289
 20
289.024
 11
19.0451
 21
289.255
  0
LINE
  8
0
 10
19.0451
 20
289.255
 11
18.4369
 21
289.411
  0
LINE
  8
0
 10
18.4369
 20
289.411
 11
17.8139
 21
289.49
  0
LINE
  8
0
 10
17.8139
 20
289.49
 11
-17.8139
 21
289.49
  0
LINE
  8
0
 10
-17.8139
 20
289.49
 11
-18.4369
 21
289.411
  0
LINE
  8
0
 10
-18.4369
 20
289.411
 11
-19.0451
 21
289.255
  0
LINE
  8
0
 10
-19.0451
 20
289.255
 11
-19.6289
 21
289.024
  0
LINE
  8
0
 10
-19.6289
 20
289.024
 11
-20.1791
 21
288.722
  0
LINE
  8
0
 10
-20.1791
 20
288.722
 11
-20.6871
 21
288.353
  0
LINE
  8
0
 10
-20.6871
 20
288.353
 11
-21.1448
 21
287.923
  0
LINE
  8
0
 10
-21.1448
 20
287.923
 11
-21.5451
 21
287.439
  0
LINE
  8
0
 10
-21.5451
 20
287.439
 11
-21.8815
 21
286.909
  0
LINE
  8
0
 10
-21.8815
 20
286.909
 11
-22.1489
 21
286.341
  0
LINE
  8
0
 10
-22.1489
 20
286.341
 11
-22.3429
 21
285.743
  0
LINE
  8
0
 10
-22.3429
 20
285.743
 11
-22.4606
 21
285.127
  0
LINE
  8
0
 10
-22.4606
 20
285.127
 11
-22.5
 21
284.5
  0
LINE
  8
0
 10
-22.5
 20
284.5
 11
-22.5
 21
219.5
  0
LINE
  8
0
 10
-22.5
 20
219.5
 11
-22.4606
 21
218.873
  0
LINE
  8
0
 10
-22.4606
 20
218.873
 11
-22.3429
 21
218.257
  0
LINE
  8
0
 10
-22.3429
 20
218.257
 11
-22.1489
 21
217.659
  0
LINE
  8
0
 10
-22.1489
 20
217.659
 11
-21.8815
 21
217.091
  0
LINE
  8
0
 10
-21.8815
 20
217.091
 11
-21.5451
 21
216.561
  0
LINE
  8
0
 10
-21.5451
 20
216.561
 11
-21.1448
 21
216.077
  0
LINE
  8
0
 10
-21.1448
 20
216.077
 11
-20.6871
 21
215.647
  0
LINE
  8
0
 10
-20.6871
 20
215.647
 11
-20.1791
 21
215.278
  0
LINE
  8
0
 10
-20.1791
 20
215.278
 11
-19.6289
 21
214.976
  0
LINE
  8
0
 10
-19.6289
 20
214.976
 11
-19.0451
 21
214.745
  0
LINE
  8
0
 10
-19.0451
 20
214.745
 11
-18.4369
 21
214.589
  0
LINE
  8
0
 10
-18.4369
 20
214.589
 11
-17.8139
 21
214.51
  0
LINE
  8
0
 10
-17.8139
 20
214.51
 11
17.8139
 21
214.51
  0
LINE
  8
0
 10
17.8139
 20
214.51
 11
18.4369
 21
214.589
  0
LINE
  8
0
 10
-17.493
 20
215.888
 11
-17.9751
 21
215.949
  0
LINE
  8
0
 10
-17.9751
 20
215.949
 11
-18.4457
 21
216.07
  0
LINE
  8
0
 10
-18.4457
 20
216.07
 11
-18.8975
 21
216.249
  0
LINE
  8
0
 10
-18.8975
 20
216.249
 11
-19.3234
 21
216.483
  0
LINE
  8
0
 10
-19.3234
 20
216.483
 11
-19.7165
 21
216.769
  0
LINE
  8
0
 10
-19.7165
 20
216.769
 11
-20.0707
 21
217.101
  0
LINE
  8
0
 10
-20.0707
 20
217.101
 11
-20.3805
 21
217.476
  0
LINE
  8
0
 10
-20.3805
 20
217.476
 11
-20.6408
 21
217.886
  0
LINE
  8
0
 10
-20.6408
 20
217.886
 11
-20.8477
 21
218.326
  0
LINE
  8
0
 10
-20.8477
 20
218.326
 11
-20.9979
 21
218.788
  0
LINE
  8
0
 10
-20.9979
 20
218.788
 11
-21.089
 21
219.265
  0
LINE
  8
0
 10
-21.089
 20
219.265
 11
-21.1195
 21
219.75
  0
LINE
  8
0
 10
-21.1195
 20
219.75
 11
-21.1195
 21
284.25
  0
LINE
  8
0
 10
-21.1195
 20
284.25
 11
-21.089
 21
284.735
  0
LINE
  8
0
 10
-21.089
 20
284.735
 11
-20.9979
 21
285.212
  0
LINE
  8
0
 10
-20.9979
 20
285.212
 11
-20.8477
 21
285.674
  0
LINE
  8
0
 10
-20.8477
 20
285.674
 11
-20.6408
 21
286.114
  0
LINE
  8
0
 10
-20.6408
 20
286.114
 11
-20.3805
 21
286.524
  0
LINE
  8
0
 10
-20.3805
 20
286.524
 11
-20.0707
 21
286.899
  0
LINE
  8
0
 10
-20.0707
 20
286.899
 11
-19.7165
 21
287.231
  0
LINE
  8
0
 10
-19.7165
 20
287.231
 11
-19.3234
 21
287.517
  0
LINE
  8
0
 10
-19.3234
 20
287.517
 11
-18.8975
 21
287.751
  0
LINE
  8
0
 10
-18.8975
 20
287.751
 11
-18.4457
 21
287.93
  0
LINE
  8
0
 10
-18.4457
 20
287.93
 11
-17.9751
 21
288.051
  0
LINE
  8
0
 10
-17.9751
 20
288.051
 11
-17.493
 21
288.112
  0
LINE
  8
0
 10
-17.493
 20
288.112
 11
17.493
 21
288.112
  0
LINE
  8
0
 10
17.493
 20
288.112
 11
17.9751
 21
288.051
  0
LINE
  8
0
 10
17.9751
 20
288.051
 11
18.4457
 21
287.93
  0
LINE
  8
0
 10
18.4457
 20
287.93
 11
18.8975
 21
287.751
  0
LINE
  8
0
 10
18.8975
 20
287.751
 11
19.3234
 21
287.517
  0
LINE
  8
0
 10
19.3234
 20
287.517
 11
19.7165
 21
287.231
  0
LINE
  8
0
 10
19.7165
 20
287.231
 11
20.0707
 21
286.899
  0
LINE
  8
0
 10
20.0707
 20
286.899
 11
20.3805
 21
286.524
  0
LINE
  8
0
 10
20.3805
 20
286.524
 11
20.6408
 21
286.114
  0
LINE
  8
0
 10
20.6408
 20
286.114
 11
20.8477
 21
285.674
  0
LINE
  8
0
 10
20.8477
 20
285.674
 11
20.9979
 21
285.212
  0
LINE
  8
0
 10
20.9979
 20
285.212
 11
21.089
 21
284.735
  0
LINE
  8
0
 10
21.089
 20
284.735
 11
21.1195
 21
284.25
  0
LINE
  8
0
 10
21.1195
 20
284.25
 11
21.1195
 21
219.75
  0
LINE
  8
0
 10
21.1195
 20
219.75
 11
21.089
 21
219.265
  0
LINE
  8
0
 10
21.089
 20
219.265
 11
20.9979
 21
218.788
  0
LINE
  8
0
 10
20.9979
 20
218.788
 11
20.8477
 21
218.326
  0
LINE
  8
0
 10
20.8477
 20
218.326
 11
20.6408
 21
217.886
  0
LINE
  8
0
 10
20.6408
 20
217.886
 11
20.3805
 21
217.476
  0
LINE
  8
0
 10
20.3805
 20
217.476
 11
20.0707
 21
217.101
  0
LINE
  8
0
 10
20.0707
 20
217.101
 11
19.7165
 21
216.769
  0
LINE
  8
0
 10
19.7165
 20
216.769
 11
19.3234
 21
216.483
  0
LINE
  8
0
 10
19.3234
 20
216.483
 11
18.8975
 21
216.249
  0
LINE
  8
0
 10
18.8975
 20
216.249
 11
18.4457
 21
216.07
  0
LINE
  8
0
 10
18.4457
 20
216.07
 11
17.9751
 21
215.949
  0
LINE
  8
0
 10
17.9751
 20
215.949
 11
17.493
 21
215.888
  0
LINE
  8
0
 10
17.493
 20
215.888
 11
-17.493
 21
215.888
  0
LINE
  8
0
 10
18.4369
 20
130.589
 11
19.0451
 21
130.745
  0
LINE
  8
0
 10
19.0451
 20
130.745
 11
19.6289
 21
130.976
  0
LINE
  8
0
 10
19.6289
 20
130.976
 11
20.1791
 21
131.278
  0
LINE
  8
0
 10
20.1791
 20
131.278
 11
20.6871
 21
131.647
  0
LINE
  8
0
 10
20.6871
 20
131.647
 11
21.1448
 21
132.077
  0
LINE
  8
0
 10
21.1448
 20
132.077
 11
21.5451
 21
132.561
  0
LINE
  8
0
 10
21.5451
 20
132.561
 11
21.8815
 21
133.091
  0
LINE
  8
0
 10
21.8815
 20
133.091
 11
22.1489
 21
133.659
  0
LINE
  8
0
 10
22.1489
 20
133.659
 11
22.3429
 21
134.257
  0
LINE
  8
0
 10
22.3429
 20
134.257
 11
22.4606
 21
134.873
  0
LINE
  8
0
 10
22.4606
 20
134.873
 11
22.5
 21
135.5
  0
LINE
  8
0
 10
22.5
 20
135.5
 11
22.5
 21
200.5
  0
LINE
  8
0
 10
22.5
 20
200.5
 11
22.4606
 21
201.127
  0
LINE
  8
0
 10
22.4606
 20
201.127
 11
22.3429
 21
201.743
  0
LINE
  8
0
 10
22.3429
 20
201.743
 11
22.1489
 21
202.341
  0
LINE
  8
0
 10
22.1489
 20
202.341
 11
21.8815
 21
202.909
  0
LINE
  8
0
 10
21.8815
 20
202.909
 11
21.5451
 21
203.439
  0
LINE
  8
0
 10
21.5451
 20
203.439
 11
21.1448
 21
203.923
  0
LINE
  8
0
 10
21.1448
 20
203.923
 11
20.6871
 21
204.353
  0
LINE
  8
0
 10
20.6871
 20
204.353
 11
20.1791
 21
204.722
  0
LINE
  8
0
 10
20.1791
 20
204.722
 11
19.6289
 21
205.024
  0
LINE
  8
0
 10
19.6289
 20
205.024
 11
19.0451
 21
205.255
  0
LINE
  8
0
 10
19.0451
 20
205.255
 11
18.4369
 21
205.411
  0
LINE
  8
0
 10
18.4369
 20
205.411
 11
17.8139
 21
205.49
  0
LINE
  8
0
 10
17.8139
 20
205.49
 11
-17.8139
 21
205.49
  0
LINE
  8
0
 10
-17.8139
 20
205.49
 11
-18.4369
 21
205.411
  0
LINE
  8
0
 10
-18.4369
 20
205.411
 11
-19.0451
 21
205.255
  0
LINE
  8
0
 10
-19.0451
 20
205.255
 11
-19.6289
 21
205.024
  0
LINE
  8
0
 10
-19.6289
 20
205.024
 11
-20.1791
 21
204.722
  0
LINE
  8
0
 10
-20.1791
 20
204.722
 11
-20.6871
 21
204.353
  0
LINE
  8
0
 10
-20.6871
 20
204.353
 11
-21.1448
 21
203.923
  0
LINE
  8
0
 10
-21.1448
 20
203.923
 11
-21.5451
 21
203.439
  0
LINE
  8
0
 10
-21.5451
 20
203.439
 11
-21.8815
 21
202.909
  0
LINE
  8
0
 10
-21.8815
 20
202.909
 11
-22.1489
 21
202.341
  0
LINE
  8
0
 10
-22.1489
 20
202.341
 11
-22.3429
 21
201.743
  0
LINE
  8
0
 10
-22.3429
 20
201.743
 11
-22.4606
 21
201.127
  0
LINE
  8
0
 10
-22.4606
 20
201.127
 11
-22.5
 21
200.5
  0
LINE
  8
0
 10
-22.5
 20
200.5
 11
-22.5
 21
135.5
  0
LINE
  8
0
 10
-22.5
 20
135.5
 11
-22.4606
 21
134.873
  0
LINE
  8
0
 10
-22.4606
 20
134.873
 11
-22.3429
 21
134.257
  0
LINE
  8
0
 10
-22.3429
 20
134.257
 11
-22.1489
 21
133.659
  0
LINE
  8
0
 10
-22.1489
 20
133.659
 11
-21.8815
 21
133.091
  0
LINE
  8
0
 10
-21.8815
 20
133.091
 11
-21.5451
 21
132.561
  0
LINE
  8
0
 10
-21.5451
 20
132.561
 11
-21.1448
 21
132.077
  0
LINE
  8
0
 10
-21.1448
 20
132.077
 11
-20.6871
 21
131.647
  0
LINE
  8
0
 10
-20.6871
 20
131.647
 11
-20.1791
 21
131.278
  0
LINE
  8
0
 10
-20.1791
 20
131.278
 11
-19.6289
 21
130.976
  0
LINE
  8
0
 10
-19.6289
 20
130.976
 11
-19.0451
 21
130.745
  0
LINE
  8
0
 10
-19.0451
 20
130.745
 11
-18.4369
 21
130.589
  0
LINE
  8
0
 10
-18.4369
 20
130.589
 11
-17.8139
 21
130.51
  0
LINE
  8
0
 10
-17.8139
 20
130.51
 11
17.8139
 21
130.51
  0
LINE
  8
0
 10
17.8139
 20
130.51
 11
18.4369
 21
130.589
  0
LINE
  8
0
 10
14.9058
 20
196.503
 11
14.7189
 21
196.527
  0
LINE
  8
0
 10
14.7189
 20
196.527
 11
14.5365
 21
196.573
  0
LINE
  8
0
 10
14.5365
 20
196.573
 11
14.3613
 21
196.643
  0
LINE
  8
0
 10
14.3613
 20
196.643
 11
14.1963
 21
196.734
  0
LINE
  8
0
 10
14.1963
 20
196.734
 11
14.0439
 21
196.844
  0
LINE
  8
0
 10
14.0439
 20
196.844
 11
13.9065
 21
196.973
  0
LINE
  8
0
 10
13.9065
 20
196.973
 11
13.7865
 21
197.118
  0
LINE
  8
0
 10
13.7865
 20
197.118
 11
13.6855
 21
197.277
  0
LINE
  8
0
 10
13.6855
 20
197.277
 11
13.6053
 21
197.448
  0
LINE
  8
0
 10
13.6053
 20
197.448
 11
13.5471
 21
197.627
  0
LINE
  8
0
 10
13.5471
 20
197.627
 11
13.5118
 21
197.812
  0
LINE
  8
0
 10
13.5118
 20
197.812
 11
13.5
 21
198
  0
LINE
  8
0
 10
13.5
 20
198
 11
13.5118
 21
198.188
  0
LINE
  8
0
 10
13.5118
 20
198.188
 11
13.5471
 21
198.373
  0
LINE
  8
0
 10
13.5471
 20
198.373
 11
13.6053
 21
198.552
  0
LINE
  8
0
 10
13.6053
 20
198.552
 11
13.6855
 21
198.723
  0
LINE
  8
0
 10
13.6855
 20
198.723
 11
13.7865
 21
198.882
  0
LINE
  8
0
 10
13.7865
 20
198.882
 11
13.9065
 21
199.027
  0
LINE
  8
0
 10
13.9065
 20
199.027
 11
14.0439
 21
199.156
  0
LINE
  8
0
 10
14.0439
 20
199.156
 11
14.1963
 21
199.266
  0
LINE
  8
0
 10
14.1963
 20
199.266
 11
14.3613
 21
199.357
  0
LINE
  8
0
 10
14.3613
 20
199.357
 11
14.5365
 21
199.427
  0
LINE
  8
0
 10
14.5365
 20
199.427
 11
14.7189
 21
199.473
  0
LINE
  8
0
 10
14.7189
 20
199.473
 11
14.9058
 21
199.497
  0
LINE
  8
0
 10
14.9058
 20
199.497
 11
15.0942
 21
199.497
  0
LINE
  8
0
 10
15.0942
 20
199.497
 11
15.2811
 21
199.473
  0
LINE
  8
0
 10
15.2811
 20
199.473
 11
15.4635
 21
199.427
  0
LINE
  8
0
 10
15.4635
 20
199.427
 11
15.6387
 21
199.357
  0
LINE
  8
0
 10
15.6387
 20
199.357
 11
15.8037
 21
199.266
  0
LINE
  8
0
 10
15.8037
 20
199.266
 11
15.9561
 21
199.156
  0
LINE
  8
0
 10
15.9561
 20
199.156
 11
16.0934
 21
199.027
  0
LINE
  8
0
 10
16.0934
 20
199.027
 11
16.2135
 21
198.882
  0
LINE
  8
0
 10
16.2135
 20
198.882
 11
16.3145
 21
198.723
  0
LINE
  8
0
 10
16.3145
 20
198.723
 11
16.3947
 21
198.552
  0
LINE
  8
0
 10
16.3947
 20
198.552
 11
16.4529
 21
198.373
  0
LINE
  8
0
 10
16.4529
 20
198.373
 11
16.4882
 21
198.188
  0
LINE
  8
0
 10
16.4882
 20
198.188
 11
16.5
 21
198
  0
LINE
  8
0
 10
16.5
 20
198
 11
16.4882
 21
197.812
  0
LINE
  8
0
 10
16.4882
 20
197.812
 11
16.4529
 21
197.627
  0
LINE
  8
0
 10
16.4529
 20
197.627
 11
16.3947
 21
197.448
  0
LINE
  8
0
 10
16.3947
 20
197.448
 11
16.3145
 21
197.277
  0
LINE
  8
0
 10
16.3145
 20
197.277
 11
16.2135
 21
197.118
  0
LINE
  8
0
 10
16.2135
 20
197.118
 11
16.0934
 21
196.973
  0
LINE
  8
0
 10
16.0934
 20
196.973
 11
15.9561
 21
196.844
  0
LINE
  8
0
 10
15.9561
 20
196.844
 11
15.8037
 21
196.734
  0
LINE
  8
0
 10
15.8037
 20
196.734
 11
15.6387
 21
196.643
  0
LINE
  8
0
 10
15.6387
 20
196.643
 11
15.4635
 21
196.573
  0
LINE
  8
0
 10
15.4635
 20
196.573
 11
15.2811
 21
196.527
  0
LINE
  8
0
 10
15.2811
 20
196.527
 11
15.0942
 21
196.503
  0
LINE
  8
0
 10
15.0942
 20
196.503
 11
14.9058
 21
196.503
  0
LINE
  8
0
 10
-15.0942
 20
196.503
 11
-15.2811
 21
196.527
  0
LINE
  8
0
 10
-15.2811
 20
196.527
 11
-15.4635
 21
196.573
  0
LINE
  8
0
 10
-15.4635
 20
196.573
 11
-15.6387
 21
196.643
  0
LINE
  8
0
 10
-15.6387
 20
196.643
 11
-15.8037
 21
196.734
  0
LINE
  8
0
 10
-15.8037
 20
196.734
 11
-15.9561
 21
196.844
  0
LINE
  8
0
 10
-15.9561
 20
196.844
 11
-16.0934
 21
196.973
  0
LINE
  8
0
 10
-16.0934
 20
196.973
 11
-16.2135
 21
197.118
  0
LINE
  8
0
 10
-16.2135
 20
197.118
 11
-16.3145
 21
197.277
  0
LINE
  8
0
 10
-16.3145
 20
197.277
 11
-16.3947
 21
197.448
  0
LINE
  8
0
 10
-16.3947
 20
197.448
 11
-16.4529
 21
197.627
  0
LINE
  8
0
 10
-16.4529
 20
197.627
 11
-16.4882
 21
197.812
  0
LINE
  8
0
 10
-16.4882
 20
197.812
 11
-16.5
 21
198
  0
LINE
  8
0
 10
-16.5
 20
198
 11
-16.4882
 21
198.188
  0
LINE
  8
0
 10
-16.4882
 20
198.188
 11
-16.4529
 21
198.373
  0
LINE
  8
0
 10
-16.4529
 20
198.373
 11
-16.3947
 21
198.552
  0
LINE
  8
0
 10
-16.3947
 20
198.552
 11
-16.3145
 21
198.723
  0
LINE
  8
0
 10
-16.3145
 20
198.723
 11
-16.2135
 21
198.882
  0
LINE
  8
0
 10
-16.2135
 20
198.882
 11
-16.0934
 21
199.027
  0
LINE
  8
0
 10
-16.0934
 20
199.027
 11
-15.9561
 21
199.156
  0
LINE
  8
0
 10
-15.9561
 20
199.156
 11
-15.8037
 21
199.266
  0
LINE
  8
0
 10
-15.8037
 20
199.266
 11
-15.6387
 21
199.357
  0
LINE
  8
0
 10
-15.6387
 20
199.357
 11
-15.4635
 21
199.427
  0
LINE
  8
0
 10
-15.4635
 20
199.427
 11
-15.2811
 21
199.473
  0
LINE
  8
0
 10
-15.2811
 20
199.473
 11
-15.0942
 21
199.497
  0
LINE
  8
0
 10
-15.0942
 20
199.497
 11
-14.9058
 21
199.497
  0
LINE
  8
0
 10
-14.9058
 20
199.497
 11
-14.7189
 21
199.473
  0
LINE
  8
0
 10
-14.7189
 20
199.473
 11
-14.5365
 21
199.427
  0
LINE
  8
0
 10
-14.5365
 20
199.427
 11
-14.3613
 21
199.357
  0
LINE
  8
0
 10
-14.3613
 20
199.357
 11
-14.1963
 21
199.266
  0
LINE
  8
0
 10
-14.1963
 20
199.266
 11
-14.0439
 21
199.156
  0
LINE
  8
0
 10
-14.0439
 20
199.156
 11
-13.9065
 21
199.027
  0
LINE
  8
0
 10
-13.9065
 20
199.027
 11
-13.7865
 21
198.882
  0
LINE
  8
0
 10
-13.7865
 20
198.882
 11
-13.6855
 21
198.723
  0
LINE
  8
0
 10
-13.6855
 20
198.723
 11
-13.6053
 21
198.552
  0
LINE
  8
0
 10
-13.6053
 20
198.552
 11
-13.5471
 21
198.373
  0
LINE
  8
0
 10
-13.5471
 20
198.373
 11
-13.5118
 21
198.188
  0
LINE
  8
0
 10
-13.5118
 20
198.188
 11
-13.5
 21
198
  0
LINE
  8
0
 10
-13.5
 20
198
 11
-13.5118
 21
197.812
  0
LINE
  8
0
 10
-13.5118
 20
197.812
 11
-13.5471
 21
197.627
  0
LINE
  8
0
 10
-13.5471
 20
197.627
 11
-13.6053
 21
197.448
  0
LINE
  8
0
 10
-13.6053
 20
197.448
 11
-13.6855
 21
197.277
  0
LINE
  8
0
 10
-13.6855
 20
197.277
 11
-13.7865
 21
197.118
  0
LINE
  8
0
 10
-13.7865
 20
197.118
 11
-13.9065
 21
196.973
  0
LINE
  8
0
 10
-13.9065
 20
196.973
 11
-14.0439
 21
196.844
  0
LINE
  8
0
 10
-14.0439
 20
196.844
 11
-14.1963
 21
196.734
  0
LINE
  8
0
 10
-14.1963
 20
196.734
 11
-14.3613
 21
196.643
  0
LINE
  8
0
 10
-14.3613
 20
196.643
 11
-14.5365
 21
196.573
  0
LINE
  8
0
 10
-14.5365
 20
196.573
 11
-14.7189
 21
196.527
  0
LINE
  8
0
 10
-14.7189
 20
196.527
 11
-14.9058
 21
196.503
  0
LINE
  8
0
 10
-14.9058
 20
196.503
 11
-15.0942
 21
196.503
  0
LINE
  8
0
 10
14.9058
 20
136.503
 11
14.7189
 21
136.527
  0
LINE
  8
0
 10
14.7189
 20
136.527
 11
14.5365
 21
136.573
  0
LINE
  8
0
 10
14.5365
 20
136.573
 11
14.3613
 21
136.643
  0
LINE
  8
0
 10
14.3613
 20
136.643
 11
14.1963
 21
136.734
  0
LINE
  8
0
 10
14.1963
 20
136.734
 11
14.0439
 21
136.844
  0
LINE
  8
0
 10
14.0439
 20
136.844
 11
13.9065
 21
136.973
  0
LINE
  8
0
 10
13.9065
 20
136.973
 11
13.7865
 21
137.118
  0
LINE
  8
0
 10
13.7865
 20
137.118
 11
13.6855
 21
137.277
  0
LINE
  8
0
 10
13.6855
 20
137.277
 11
13.6053
 21
137.448
  0
LINE
  8
0
 10
13.6053
 20
137.448
 11
13.5471
 21
137.627
  0
LINE
  8
0
 10
13.5471
 20
137.627
 11
13.5118
 21
137.812
  0
LINE
  8
0
 10
13.5118
 20
137.812
 11
13.5
 21
138
  0
LINE
  8
0
 10
13.5
 20
138
 11
13.5118
 21
138.188
  0
LINE
  8
0
 10
13.5118
 20
138.188
 11
13.5471
 21
138.373
  0
LINE
  8
0
 10
13.5471
 20
138.373
 11
13.6053
 21
138.552
  0
LINE
  8
0
 10
13.6053
 20
138.552
 11
13.6855
 21
138.723
  0
LINE
  8
0
 10
13.6855
 20
138.723
 11
13.7865
 21
138.882
  0
LINE
  8
0
 10
13.7865
 20
138.882
 11
13.9065
 21
139.027
  0
LINE
  8
0
 10
13.9065
 20
139.027
 11
14.0439
 21
139.156
  0
LINE
  8
0
 10
14.0439
 20
139.156
 11
14.1963
 21
139.266
  0
LINE
  8
0
 10
14.1963
 20
139.266
 11
14.3613
 21
139.357
  0
LINE
  8
0
 10
14.3613
 20
139.357
 11
14.5365
 21
139.427
  0
LINE
  8
0
 10
14.5365
 20
139.427
 11
14.7189
 21
139.473
  0
LINE
  8
0
 10
14.7189
 20
139.473
 11
14.9058
 21
139.497
  0
LINE
  8
0
 10
14.9058
 20
139.497
 11
15.0942
 21
139.497
  0
LINE
  8
0
 10
15.0942
 20
139.497
 11
15.2811
 21
139.473
  0
LINE
  8
0
 10
15.2811
 20
139.473
 11
15.4635
 21
139.427
  0
LINE
  8
0
 10
15.4635
 20
139.427
 11
15.6387
 21
139.357
  0
LINE
  8
0
 10
15.6387
 20
139.357
 11
15.8037
 21
139.266
  0
LINE
  8
0
 10
15.8037
 20
139.266
 11
15.9561
 21
139.156
  0
LINE
  8
0
 10
15.9561
 20
139.156
 11
16.0934
 21
139.027
  0
LINE
  8
0
 10
16.0934
 20
139.027
 11
16.2135
 21
138.882
  0
LINE
  8
0
 10
16.2135
 20
138.882
 11
16.3145
 21
138.723
  0
LINE
  8
0
 10
16.3145
 20
138.723
 11
16.3947
 21
138.552
  0
LINE
  8
0
 10
16.3947
 20
138.552
 11
16.4529
 21
138.373
  0
LINE
  8
0
 10
16.4529
 20
138.373
 11
16.4882
 21
138.188
  0
LINE
  8
0
 10
16.4882
 20
138.188
 11
16.5
 21
138
  0
LINE
  8
0
 10
16.5
 20
138
 11
16.4882
 21
137.812
  0
LINE
  8
0
 10
16.4882
 20
137.812
 11
16.4529
 21
137.627
  0
LINE
  8
0
 10
16.4529
 20
137.627
 11
16.3947
 21
137.448
  0
LINE
  8
0
 10
16.3947
 20
137.448
 11
16.3145
 21
137.277
  0
LINE
  8
0
 10
16.3145
 20
137.277
 11
16.2135
 21
137.118
  0
LINE
  8
0
 10
16.2135
 20
137.118
 11
16.0934
 21
136.973
  0
LINE
  8
0
 10
16.0934
 20
136.973
 11
15.9561
 21
136.844
  0
LINE
  8
0
 10
15.9561
 20
136.844
 11
15.8037
 21
136.734
  0
LINE
  8
0
 10
15.8037
 20
136.734
 11
15.6387
 21
136.643
  0
LINE
  8
0
 10
15.6387
 20
136.643
 11
15.4635
 21
136.573
  0
LINE
  8
0
 10
15.4635
 20
136.573
 11
15.2811
 21
136.527
  0
LINE
  8
0
 10
15.2811
 20
136.527
 11
15.0942
 21
136.503
  0
LINE
  8
0
 10
15.0942
 20
136.503
 11
14.9058
 21
136.503
  0
LINE
  8
0
 10
-15.0942
 20
136.503
 11
-15.2811
 21
136.527
  0
LINE
  8
0
 10
-15.2811
 20
136.527
 11
-15.4635
 21
136.573
  0
LINE
  8
0
 10
-15.4635
 20
136.573
 11
-15.6387
 21
136.643
  0
LINE
  8
0
 10
-15.6387
 20
136.643
 11
-15.8037
 21
136.734
  0
LINE
  8
0
 10
-15.8037
 20
136.734
 11
-15.9561
 21
136.844
  0
LINE
  8
0
 10
-15.9561
 20
136.844
 11
-16.0934
 21
136.973
  0
LINE
  8
0
 10
-16.0934
 20
136.973
 11
-16.2135
 21
137.118
  0
LINE
  8
0
 10
-16.2135
 20
137.118
 11
-16.3145
 21
137.277
  0
LINE
  8
0
 10
-16.3145
 20
137.277
 11
-16.3947
 21
137.448
  0
LINE
  8
0
 10
-16.3947
 20
137.448
 11
-16.4529
 21
137.627
  0
LINE
  8
0
 10
-16.4529
 20
137.627
 11
-16.4882
 21
137.812
  0
LINE
  8
0
 10
-16.4882
 20
137.812
 11
-16.5
 21
138
  0
LINE
  8
0
 10
-16.5
 20
138
 11
-16.4882
 21
138.188
  0
LINE
  8
0
 10
-16.4882
 20
138.188
 11
-16.4529
 21
138.373
  0
LINE
  8
0
 10
-16.4529
 20
138.373
 11
-16.3947
 21
138.552
  0
LINE
  8
0
 10
-16.3947
 20
138.552
 11
-16.3145
 21
138.723
  0
LINE
  8
0
 10
-16.3145
 20
138.723
 11
-16.2135
 21
138.882
  0
LINE
  8
0
 10
-16.2135
 20
138.882
 11
-16.0934
 21
139.027
  0
LINE
  8
0
 10
-16.0934
 20
139.027
 11
-15.9561
 21
139.156
  0
LINE
  8
0
 10
-15.9561
 20
139.156
 11
-15.8037
 21
139.266
  0
LINE
  8
0
 10
-15.8037
 20
139.266
 11
-15.6387
 21
139.357
  0
LINE
  8
0
 10
-15.6387
 20
139.357
 11
-15.4635
 21
139.427
  0
LINE
  8
0
 10
-15.4635
 20
139.427
 11
-15.2811
 21
139.473
  0
LINE
  8
0
 10
-15.2811
 20
139.473
 11
-15.0942
 21
139.497
  0
LINE
  8
0
 10
-15.0942
 20
139.497
 11
-14.9058
 21
139.497
  0
LINE
  8
0
 10
-14.9058
 20
139.497
 11
-14.7189
 21
139.473
  0
LINE
  8
0
 10
-14.7189
 20
139.473
 11
-14.5365
 21
139.427
  0
LINE
  8
0
 10
-14.5365
 20
139.427
 11
-14.3613
 21
139.357
  0
LINE
  8
0
 10
-14.3613
 20
139.357
 11
-14.1963
 21
139.266
  0
LINE
  8
0
 10
-14.1963
 20
139.266
 11
-14.0439
 21
139.156
  0
LINE
  8
0
 10
-14.0439
 20
139.156
 11
-13.9065
 21
139.027
  0
LINE
  8
0
 10
-13.9065
 20
139.027
 11
-13.7865
 21
138.882
  0
LINE
  8
0
 10
-13.7865
 20
138.882
 11
-13.6855
 21
138.723
  0
LINE
  8
0
 10
-13.6855
 20
138.723
 11
-13.6053
 21
138.552
  0
LINE
  8
0
 10
-13.6053
 20
138.552
 11
-13.5471
 21
138.373
  0
LINE
  8
0
 10
-13.5471
 20
138.373
 11
-13.5118
 21
138.188
  0
LINE
  8
0
 10
-13.5118
 20
138.188
 11
-13.5
 21
138
  0
LINE
  8
0
 10
-13.5
 20
138
 11
-13.5118
 21
137.812
  0
LINE
  8
0
 10
-13.5118
 20
137.812
 11
-13.5471
 21
137.627
  0
LINE
  8
0
 10
-13.5471
 20
137.627
 11
-13.6053
 21
137.448
  0
LINE
  8
0
 10
-13.6053
 20
137.448
 11
-13.6855
 21
137.277
  0
LINE
  8
0
 10
-13.6855
 20
137.277
 11
-13.7865
 21
137.118
  0
LINE
  8
0
 10
-13.7865
 20
137.118
 11
-13.9065
 21
136.973
  0
LINE
  8
0
 10
-13.9065
 20
136.973
 11
-14.0439
 21
136.844
  0
LINE
  8
0
 10
-14.0439
 20
136.844
 11
-14.1963
 21
136.734
  0
LINE
  8
0
 10
-14.1963
 20
136.734
 11
-14.3613
 21
136.643
  0
LINE
  8
0
 10
-14.3613
 20
136.643
 11
-14.5365
 21
136.573
  0
LINE
  8
0
 10
-14.5365
 20
136.573
 11
-14.7189
 21
136.527
  0
LINE
  8
0
 10
-14.7189
 20
136.527
 11
-14.9058
 21
136.503
  0
LINE
  8
0
 10
-14.9058
 20
136.503
 11
-15.0942
 21
136.503
  0
ENDSEC
  0
SECTION
  2
OBJECTS
  0
DICTIONARY
  0
ENDSEC
  0
EOF
