  0
SECTION
  2
BLOCKS
  0
ENDSEC
  0
SECTION
  2
ENTITIES
  0
LINE
  8
0
 10
17.9369
 20
400.339
 11
18.5451
 21
400.495
  0
LINE
  8
0
 10
18.5451
 20
400.495
 11
19.1289
 21
400.726
  0
LINE
  8
0
 10
19.1289
 20
400.726
 11
19.6791
 21
401.028
  0
LINE
  8
0
 10
19.6791
 20
401.028
 11
20.1871
 21
401.397
  0
LINE
  8
0
 10
20.1871
 20
401.397
 11
20.6448
 21
401.827
  0
LINE
  8
0
 10
20.6448
 20
401.827
 11
21.0451
 21
402.311
  0
LINE
  8
0
 10
21.0451
 20
402.311
 11
21.3815
 21
402.841
  0
LINE
  8
0
 10
21.3815
 20
402.841
 11
21.6489
 21
403.409
  0
LINE
  8
0
 10
21.6489
 20
403.409
 11
21.8429
 21
404.007
  0
LINE
  8
0
 10
21.8429
 20
404.007
 11
21.9606
 21
404.623
  0
LINE
  8
0
 10
21.9606
 20
404.623
 11
22
 21
405.25
  0
LINE
  8
0
 10
22
 20
405.25
 11
22
 21
431.75
  0
LINE
  8
0
 10
22
 20
431.75
 11
21.9606
 21
432.377
  0
LINE
  8
0
 10
21.9606
 20
432.377
 11
21.8429
 21
432.993
  0
LINE
  8
0
 10
21.8429
 20
432.993
 11
21.6489
 21
433.591
  0
LINE
  8
0
 10
21.6489
 20
433.591
 11
21.3815
 21
434.159
  0
LINE
  8
0
 10
21.3815
 20
434.159
 11
21.0451
 21
434.689
  0
LINE
  8
0
 10
21.0451
 20
434.689
 11
20.6448
 21
435.173
  0
LINE
  8
0
 10
20.6448
 20
435.173
 11
20.1871
 21
435.603
  0
LINE
  8
0
 10
20.1871
 20
435.603
 11
19.6791
 21
435.972
  0
LINE
  8
0
 10
19.6791
 20
435.972
 11
19.1289
 21
436.274
  0
LINE
  8
0
 10
19.1289
 20
436.274
 11
18.5451
 21
436.505
  0
LINE
  8
0
 10
18.5451
 20
436.505
 11
17.9369
 21
436.661
  0
LINE
  8
0
 10
17.9369
 20
436.661
 11
17.3139
 21
436.74
  0
LINE
  8
0
 10
17.3139
 20
436.74
 11
-17.3139
 21
436.74
  0
LINE
  8
0
 10
-17.3139
 20
436.74
 11
-17.9369
 21
436.661
  0
LINE
  8
0
 10
-17.9369
 20
436.661
 11
-18.5451
 21
436.505
  0
LINE
  8
0
 10
-18.5451
 20
436.505
 11
-19.1289
 21
436.274
  0
LINE
  8
0
 10
-19.1289
 20
436.274
 11
-19.6791
 21
435.972
  0
LINE
  8
0
 10
-19.6791
 20
435.972
 11
-20.1871
 21
435.603
  0
LINE
  8
0
 10
-20.1871
 20
435.603
 11
-20.6448
 21
435.173
  0
LINE
  8
0
 10
-20.6448
 20
435.173
 11
-21.0451
 21
434.689
  0
LINE
  8
0
 10
-21.0451
 20
434.689
 11
-21.3815
 21
434.159
  0
LINE
  8
0
 10
-21.3815
 20
434.159
 11
-21.6489
 21
433.591
  0
LINE
  8
0
 10
-21.6489
 20
433.591
 11
-21.8429
 21
432.993
  0
LINE
  8
0
 10
-21.8429
 20
432.993
 11
-21.9606
 21
432.377
  0
LINE
  8
0
 10
-21.9606
 20
432.377
 11
-22
 21
431.75
  0
LINE
  8
0
 10
-22
 20
431.75
 11
-22
 21
405.25
  0
LINE
  8
0
 10
-22
 20
405.25
 11
-21.9606
 21
404.623
  0
LINE
  8
0
 10
-21.9606
 20
404.623
 11
-21.8429
 21
404.007
  0
LINE
  8
0
 10
-21.8429
 20
404.007
 11
-21.6489
 21
403.409
  0
LINE
  8
0
 10
-21.6489
 20
403.409
 11
-21.3815
 21
402.841
  0
LINE
  8
0
 10
-21.3815
 20
402.841
 11
-21.0451
 21
402.311
  0
LINE
  8
0
 10
-21.0451
 20
402.311
 11
-20.6448
 21
401.827
  0
LINE
  8
0
 10
-20.6448
 20
401.827
 11
-20.1871
 21
401.397
  0
LINE
  8
0
 10
-20.1871
 20
401.397
 11
-19.6791
 21
401.028
  0
LINE
  8
0
 10
-19.6791
 20
401.028
 11
-19.1289
 21
400.726
  0
LINE
  8
0
 10
-19.1289
 20
400.726
 11
-18.5451
 21
400.495
  0
LINE
  8
0
 10
-18.5451
 20
400.495
 11
-17.9369
 21
400.339
  0
LINE
  8
0
 10
-17.9369
 20
400.339
 11
-17.3139
 21
400.26
  0
LINE
  8
0
 10
-17.3139
 20
400.26
 11
17.3139
 21
400.26
  0
LINE
  8
0
 10
17.3139
 20
400.26
 11
17.9369
 21
400.339
  0
LINE
  8
0
 10
-17.2512
 20
401.258
 11
-17.7495
 21
401.321
  0
LINE
  8
0
 10
-17.7495
 20
401.321
 11
-18.2361
 21
401.446
  0
LINE
  8
0
 10
-18.2361
 20
401.446
 11
-18.7031
 21
401.631
  0
LINE
  8
0
 10
-18.7031
 20
401.631
 11
-19.1433
 21
401.873
  0
LINE
  8
0
 10
-19.1433
 20
401.873
 11
-19.5497
 21
402.168
  0
LINE
  8
0
 10
-19.5497
 20
402.168
 11
-19.9159
 21
402.512
  0
LINE
  8
0
 10
-19.9159
 20
402.512
 11
-20.2361
 21
402.899
  0
LINE
  8
0
 10
-20.2361
 20
402.899
 11
-20.5052
 21
403.323
  0
LINE
  8
0
 10
-20.5052
 20
403.323
 11
-20.7191
 21
403.778
  0
LINE
  8
0
 10
-20.7191
 20
403.778
 11
-20.8743
 21
404.255
  0
LINE
  8
0
 10
-20.8743
 20
404.255
 11
-20.9684
 21
404.749
  0
LINE
  8
0
 10
-20.9684
 20
404.749
 11
-21
 21
405.25
  0
LINE
  8
0
 10
-21
 20
405.25
 11
-21
 21
431.75
  0
LINE
  8
0
 10
-21
 20
431.75
 11
-20.9684
 21
432.251
  0
LINE
  8
0
 10
-20.9684
 20
432.251
 11
-20.8743
 21
432.745
  0
LINE
  8
0
 10
-20.8743
 20
432.745
 11
-20.7191
 21
433.222
  0
LINE
  8
0
 10
-20.7191
 20
433.222
 11
-20.5052
 21
433.677
  0
LINE
  8
0
 10
-20.5052
 20
433.677
 11
-20.2361
 21
434.101
  0
LINE
  8
0
 10
-20.2361
 20
434.101
 11
-19.9159
 21
434.488
  0
LINE
  8
0
 10
-19.9159
 20
434.488
 11
-19.5497
 21
434.832
  0
LINE
  8
0
 10
-19.5497
 20
434.832
 11
-19.1433
 21
435.127
  0
LINE
  8
0
 10
-19.1433
 20
435.127
 11
-18.7031
 21
435.369
  0
LINE
  8
0
 10
-18.7031
 20
435.369
 11
-18.2361
 21
435.554
  0
LINE
  8
0
 10
-18.2361
 20
435.554
 11
-17.7495
 21
435.679
  0
LINE
  8
0
 10
-17.7495
 20
435.679
 11
-17.2512
 21
435.742
  0
LINE
  8
0
 10
-17.2512
 20
435.742
 11
17.2512
 21
435.742
  0
LINE
  8
0
 10
17.2512
 20
435.742
 11
17.7495
 21
435.679
  0
LINE
  8
0
 10
17.7495
 20
435.679
 11
18.2361
 21
435.554
  0
LINE
  8
0
 10
18.2361
 20
435.554
 11
18.7031
 21
435.369
  0
LINE
  8
0
 10
18.7031
 20
435.369
 11
19.1433
 21
435.127
  0
LINE
  8
0
 10
19.1433
 20
435.127
 11
19.5497
 21
434.832
  0
LINE
  8
0
 10
19.5497
 20
434.832
 11
19.9159
 21
434.488
  0
LINE
  8
0
 10
19.9159
 20
434.488
 11
20.2361
 21
434.101
  0
LINE
  8
0
 10
20.2361
 20
434.101
 11
20.5052
 21
433.677
  0
LINE
  8
0
 10
20.5052
 20
433.677
 11
20.7191
 21
433.222
  0
LINE
  8
0
 10
20.7191
 20
433.222
 11
20.8743
 21
432.745
  0
LINE
  8
0
 10
20.8743
 20
432.745
 11
20.9684
 21
432.251
  0
LINE
  8
0
 10
20.9684
 20
432.251
 11
21
 21
431.75
  0
LINE
  8
0
 10
21
 20
431.75
 11
21
 21
405.25
  0
LINE
  8
0
 10
21
 20
405.25
 11
20.9684
 21
404.749
  0
LINE
  8
0
 10
20.9684
 20
404.749
 11
20.8743
 21
404.255
  0
LINE
  8
0
 10
20.8743
 20
404.255
 11
20.7191
 21
403.778
  0
LINE
  8
0
 10
20.7191
 20
403.778
 11
20.5052
 21
403.323
  0
LINE
  8
0
 10
20.5052
 20
403.323
 11
20.2361
 21
402.899
  0
LINE
  8
0
 10
20.2361
 20
402.899
 11
19.9159
 21
402.512
  0
LINE
  8
0
 10
19.9159
 20
402.512
 11
19.5497
 21
402.168
  0
LINE
  8
0
 10
19.5497
 20
402.168
 11
19.1433
 21
401.873
  0
LINE
  8
0
 10
19.1433
 20
401.873
 11
18.7031
 21
401.631
  0
LINE
  8
0
 10
18.7031
 20
401.631
 11
18.2361
 21
401.446
  0
LINE
  8
0
 10
18.2361
 20
401.446
 11
17.7495
 21
401.321
  0
LINE
  8
0
 10
17.7495
 20
401.321
 11
17.2512
 21
401.258
  0
LINE
  8
0
 10
17.2512
 20
401.258
 11
-17.2512
 21
401.258
  0
LINE
  8
0
 10
17.9369
 20
353.839
 11
18.5451
 21
353.995
  0
LINE
  8
0
 10
18.5451
 20
353.995
 11
19.1289
 21
354.226
  0
LINE
  8
0
 10
19.1289
 20
354.226
 11
19.6791
 21
354.528
  0
LINE
  8
0
 10
19.6791
 20
354.528
 11
20.1871
 21
354.897
  0
LINE
  8
0
 10
20.1871
 20
354.897
 11
20.6448
 21
355.327
  0
LINE
  8
0
 10
20.6448
 20
355.327
 11
21.0451
 21
355.811
  0
LINE
  8
0
 10
21.0451
 20
355.811
 11
21.3815
 21
356.341
  0
LINE
  8
0
 10
21.3815
 20
356.341
 11
21.6489
 21
356.909
  0
LINE
  8
0
 10
21.6489
 20
356.909
 11
21.8429
 21
357.507
  0
LINE
  8
0
 10
21.8429
 20
357.507
 11
21.9606
 21
358.123
  0
LINE
  8
0
 10
21.9606
 20
358.123
 11
22
 21
358.75
  0
LINE
  8
0
 10
22
 20
358.75
 11
22
 21
385.25
  0
LINE
  8
0
 10
22
 20
385.25
 11
21.9606
 21
385.877
  0
LINE
  8
0
 10
21.9606
 20
385.877
 11
21.8429
 21
386.493
  0
LINE
  8
0
 10
21.8429
 20
386.493
 11
21.6489
 21
387.091
  0
LINE
  8
0
 10
21.6489
 20
387.091
 11
21.3815
 21
387.659
  0
LINE
  8
0
 10
21.3815
 20
387.659
 11
21.0451
 21
388.189
  0
LINE
  8
0
 10
21.0451
 20
388.189
 11
20.6448
 21
388.673
  0
LINE
  8
0
 10
20.6448
 20
388.673
 11
20.1871
 21
389.103
  0
LINE
  8
0
 10
20.1871
 20
389.103
 11
19.6791
 21
389.472
  0
LINE
  8
0
 10
19.6791
 20
389.472
 11
19.1289
 21
389.774
  0
LINE
  8
0
 10
19.1289
 20
389.774
 11
18.5451
 21
390.005
  0
LINE
  8
0
 10
18.5451
 20
390.005
 11
17.9369
 21
390.161
  0
LINE
  8
0
 10
17.9369
 20
390.161
 11
17.3139
 21
390.24
  0
LINE
  8
0
 10
17.3139
 20
390.24
 11
-17.3139
 21
390.24
  0
LINE
  8
0
 10
-17.3139
 20
390.24
 11
-17.9369
 21
390.161
  0
LINE
  8
0
 10
-17.9369
 20
390.161
 11
-18.5451
 21
390.005
  0
LINE
  8
0
 10
-18.5451
 20
390.005
 11
-19.1289
 21
389.774
  0
LINE
  8
0
 10
-19.1289
 20
389.774
 11
-19.6791
 21
389.472
  0
LINE
  8
0
 10
-19.6791
 20
389.472
 11
-20.1871
 21
389.103
  0
LINE
  8
0
 10
-20.1871
 20
389.103
 11
-20.6448
 21
388.673
  0
LINE
  8
0
 10
-20.6448
 20
388.673
 11
-21.0451
 21
388.189
  0
LINE
  8
0
 10
-21.0451
 20
388.189
 11
-21.3815
 21
387.659
  0
LINE
  8
0
 10
-21.3815
 20
387.659
 11
-21.6489
 21
387.091
  0
LINE
  8
0
 10
-21.6489
 20
387.091
 11
-21.8429
 21
386.493
  0
LINE
  8
0
 10
-21.8429
 20
386.493
 11
-21.9606
 21
385.877
  0
LINE
  8
0
 10
-21.9606
 20
385.877
 11
-22
 21
385.25
  0
LINE
  8
0
 10
-22
 20
385.25
 11
-22
 21
358.75
  0
LINE
  8
0
 10
-22
 20
358.75
 11
-21.9606
 21
358.123
  0
LINE
  8
0
 10
-21.9606
 20
358.123
 11
-21.8429
 21
357.507
  0
LINE
  8
0
 10
-21.8429
 20
357.507
 11
-21.6489
 21
356.909
  0
LINE
  8
0
 10
-21.6489
 20
356.909
 11
-21.3815
 21
356.341
  0
LINE
  8
0
 10
-21.3815
 20
356.341
 11
-21.0451
 21
355.811
  0
LINE
  8
0
 10
-21.0451
 20
355.811
 11
-20.6448
 21
355.327
  0
LINE
  8
0
 10
-20.6448
 20
355.327
 11
-20.1871
 21
354.897
  0
LINE
  8
0
 10
-20.1871
 20
354.897
 11
-19.6791
 21
354.528
  0
LINE
  8
0
 10
-19.6791
 20
354.528
 11
-19.1289
 21
354.226
  0
LINE
  8
0
 10
-19.1289
 20
354.226
 11
-18.5451
 21
353.995
  0
LINE
  8
0
 10
-18.5451
 20
353.995
 11
-17.9369
 21
353.839
  0
LINE
  8
0
 10
-17.9369
 20
353.839
 11
-17.3139
 21
353.76
  0
LINE
  8
0
 10
-17.3139
 20
353.76
 11
17.3139
 21
353.76
  0
LINE
  8
0
 10
17.3139
 20
353.76
 11
17.9369
 21
353.839
  0
LINE
  8
0
 10
-17.2512
 20
354.758
 11
-17.7495
 21
354.821
  0
LINE
  8
0
 10
-17.7495
 20
354.821
 11
-18.2361
 21
354.946
  0
LINE
  8
0
 10
-18.2361
 20
354.946
 11
-18.7031
 21
355.131
  0
LINE
  8
0
 10
-18.7031
 20
355.131
 11
-19.1433
 21
355.373
  0
LINE
  8
0
 10
-19.1433
 20
355.373
 11
-19.5497
 21
355.668
  0
LINE
  8
0
 10
-19.5497
 20
355.668
 11
-19.9159
 21
356.012
  0
LINE
  8
0
 10
-19.9159
 20
356.012
 11
-20.2361
 21
356.399
  0
LINE
  8
0
 10
-20.2361
 20
356.399
 11
-20.5052
 21
356.823
  0
LINE
  8
0
 10
-20.5052
 20
356.823
 11
-20.7191
 21
357.278
  0
LINE
  8
0
 10
-20.7191
 20
357.278
 11
-20.8743
 21
357.755
  0
LINE
  8
0
 10
-20.8743
 20
357.755
 11
-20.9684
 21
358.249
  0
LINE
  8
0
 10
-20.9684
 20
358.249
 11
-21
 21
358.75
  0
LINE
  8
0
 10
-21
 20
358.75
 11
-21
 21
385.25
  0
LINE
  8
0
 10
-21
 20
385.25
 11
-20.9684
 21
385.751
  0
LINE
  8
0
 10
-20.9684
 20
385.751
 11
-20.8743
 21
386.245
  0
LINE
  8
0
 10
-20.8743
 20
386.245
 11
-20.7191
 21
386.722
  0
LINE
  8
0
 10
-20.7191
 20
386.722
 11
-20.5052
 21
387.177
  0
LINE
  8
0
 10
-20.5052
 20
387.177
 11
-20.2361
 21
387.601
  0
LINE
  8
0
 10
-20.2361
 20
387.601
 11
-19.9159
 21
387.988
  0
LINE
  8
0
 10
-19.9159
 20
387.988
 11
-19.5497
 21
388.332
  0
LINE
  8
0
 10
-19.5497
 20
388.332
 11
-19.1433
 21
388.627
  0
LINE
  8
0
 10
-19.1433
 20
388.627
 11
-18.7031
 21
388.869
  0
LINE
  8
0
 10
-18.7031
 20
388.869
 11
-18.2361
 21
389.054
  0
LINE
  8
0
 10
-18.2361
 20
389.054
 11
-17.7495
 21
389.179
  0
LINE
  8
0
 10
-17.7495
 20
389.179
 11
-17.2512
 21
389.242
  0
LINE
  8
0
 10
-17.2512
 20
389.242
 11
17.2512
 21
389.242
  0
LINE
  8
0
 10
17.2512
 20
389.242
 11
17.7495
 21
389.179
  0
LINE
  8
0
 10
17.7495
 20
389.179
 11
18.2361
 21
389.054
  0
LINE
  8
0
 10
18.2361
 20
389.054
 11
18.7031
 21
388.869
  0
LINE
  8
0
 10
18.7031
 20
388.869
 11
19.1433
 21
388.627
  0
LINE
  8
0
 10
19.1433
 20
388.627
 11
19.5497
 21
388.332
  0
LINE
  8
0
 10
19.5497
 20
388.332
 11
19.9159
 21
387.988
  0
LINE
  8
0
 10
19.9159
 20
387.988
 11
20.2361
 21
387.601
  0
LINE
  8
0
 10
20.2361
 20
387.601
 11
20.5052
 21
387.177
  0
LINE
  8
0
 10
20.5052
 20
387.177
 11
20.7191
 21
386.722
  0
LINE
  8
0
 10
20.7191
 20
386.722
 11
20.8743
 21
386.245
  0
LINE
  8
0
 10
20.8743
 20
386.245
 11
20.9684
 21
385.751
  0
LINE
  8
0
 10
20.9684
 20
385.751
 11
21
 21
385.25
  0
LINE
  8
0
 10
21
 20
385.25
 11
21
 21
358.75
  0
LINE
  8
0
 10
21
 20
358.75
 11
20.9684
 21
358.249
  0
LINE
  8
0
 10
20.9684
 20
358.249
 11
20.8743
 21
357.755
  0
LINE
  8
0
 10
20.8743
 20
357.755
 11
20.7191
 21
357.278
  0
LINE
  8
0
 10
20.7191
 20
357.278
 11
20.5052
 21
356.823
  0
LINE
  8
0
 10
20.5052
 20
356.823
 11
20.2361
 21
356.399
  0
LINE
  8
0
 10
20.2361
 20
356.399
 11
19.9159
 21
356.012
  0
LINE
  8
0
 10
19.9159
 20
356.012
 11
19.5497
 21
355.668
  0
LINE
  8
0
 10
19.5497
 20
355.668
 11
19.1433
 21
355.373
  0
LINE
  8
0
 10
19.1433
 20
355.373
 11
18.7031
 21
355.131
  0
LINE
  8
0
 10
18.7031
 20
355.131
 11
18.2361
 21
354.946
  0
LINE
  8
0
 10
18.2361
 20
354.946
 11
17.7495
 21
354.821
  0
LINE
  8
0
 10
17.7495
 20
354.821
 11
17.2512
 21
354.758
  0
LINE
  8
0
 10
17.2512
 20
354.758
 11
-17.2512
 21
354.758
  0
LINE
  8
0
 10
17.9369
 20
307.339
 11
18.5451
 21
307.495
  0
LINE
  8
0
 10
18.5451
 20
307.495
 11
19.1289
 21
307.726
  0
LINE
  8
0
 10
19.1289
 20
307.726
 11
19.6791
 21
308.028
  0
LINE
  8
0
 10
19.6791
 20
308.028
 11
20.1871
 21
308.397
  0
LINE
  8
0
 10
20.1871
 20
308.397
 11
20.6448
 21
308.827
  0
LINE
  8
0
 10
20.6448
 20
308.827
 11
21.0451
 21
309.311
  0
LINE
  8
0
 10
21.0451
 20
309.311
 11
21.3815
 21
309.841
  0
LINE
  8
0
 10
21.3815
 20
309.841
 11
21.6489
 21
310.409
  0
LINE
  8
0
 10
21.6489
 20
310.409
 11
21.8429
 21
311.007
  0
LINE
  8
0
 10
21.8429
 20
311.007
 11
21.9606
 21
311.623
  0
LINE
  8
0
 10
21.9606
 20
311.623
 11
22
 21
312.25
  0
LINE
  8
0
 10
22
 20
312.25
 11
22
 21
338.75
  0
LINE
  8
0
 10
22
 20
338.75
 11
21.9606
 21
339.377
  0
LINE
  8
0
 10
21.9606
 20
339.377
 11
21.8429
 21
339.993
  0
LINE
  8
0
 10
21.8429
 20
339.993
 11
21.6489
 21
340.591
  0
LINE
  8
0
 10
21.6489
 20
340.591
 11
21.3815
 21
341.159
  0
LINE
  8
0
 10
21.3815
 20
341.159
 11
21.0451
 21
341.689
  0
LINE
  8
0
 10
21.0451
 20
341.689
 11
20.6448
 21
342.173
  0
LINE
  8
0
 10
20.6448
 20
342.173
 11
20.1871
 21
342.603
  0
LINE
  8
0
 10
20.1871
 20
342.603
 11
19.6791
 21
342.972
  0
LINE
  8
0
 10
19.6791
 20
342.972
 11
19.1289
 21
343.274
  0
LINE
  8
0
 10
19.1289
 20
343.274
 11
18.5451
 21
343.505
  0
LINE
  8
0
 10
18.5451
 20
343.505
 11
17.9369
 21
343.661
  0
LINE
  8
0
 10
17.9369
 20
343.661
 11
17.3139
 21
343.74
  0
LINE
  8
0
 10
17.3139
 20
343.74
 11
-17.3139
 21
343.74
  0
LINE
  8
0
 10
-17.3139
 20
343.74
 11
-17.9369
 21
343.661
  0
LINE
  8
0
 10
-17.9369
 20
343.661
 11
-18.5451
 21
343.505
  0
LINE
  8
0
 10
-18.5451
 20
343.505
 11
-19.1289
 21
343.274
  0
LINE
  8
0
 10
-19.1289
 20
343.274
 11
-19.6791
 21
342.972
  0
LINE
  8
0
 10
-19.6791
 20
342.972
 11
-20.1871
 21
342.603
  0
LINE
  8
0
 10
-20.1871
 20
342.603
 11
-20.6448
 21
342.173
  0
LINE
  8
0
 10
-20.6448
 20
342.173
 11
-21.0451
 21
341.689
  0
LINE
  8
0
 10
-21.0451
 20
341.689
 11
-21.3815
 21
341.159
  0
LINE
  8
0
 10
-21.3815
 20
341.159
 11
-21.6489
 21
340.591
  0
LINE
  8
0
 10
-21.6489
 20
340.591
 11
-21.8429
 21
339.993
  0
LINE
  8
0
 10
-21.8429
 20
339.993
 11
-21.9606
 21
339.377
  0
LINE
  8
0
 10
-21.9606
 20
339.377
 11
-22
 21
338.75
  0
LINE
  8
0
 10
-22
 20
338.75
 11
-22
 21
312.25
  0
LINE
  8
0
 10
-22
 20
312.25
 11
-21.9606
 21
311.623
  0
LINE
  8
0
 10
-21.9606
 20
311.623
 11
-21.8429
 21
311.007
  0
LINE
  8
0
 10
-21.8429
 20
311.007
 11
-21.6489
 21
310.409
  0
LINE
  8
0
 10
-21.6489
 20
310.409
 11
-21.3815
 21
309.841
  0
LINE
  8
0
 10
-21.3815
 20
309.841
 11
-21.0451
 21
309.311
  0
LINE
  8
0
 10
-21.0451
 20
309.311
 11
-20.6448
 21
308.827
  0
LINE
  8
0
 10
-20.6448
 20
308.827
 11
-20.1871
 21
308.397
  0
LINE
  8
0
 10
-20.1871
 20
308.397
 11
-19.6791
 21
308.028
  0
LINE
  8
0
 10
-19.6791
 20
308.028
 11
-19.1289
 21
307.726
  0
LINE
  8
0
 10
-19.1289
 20
307.726
 11
-18.5451
 21
307.495
  0
LINE
  8
0
 10
-18.5451
 20
307.495
 11
-17.9369
 21
307.339
  0
LINE
  8
0
 10
-17.9369
 20
307.339
 11
-17.3139
 21
307.26
  0
LINE
  8
0
 10
-17.3139
 20
307.26
 11
17.3139
 21
307.26
  0
LINE
  8
0
 10
17.3139
 20
307.26
 11
17.9369
 21
307.339
  0
LINE
  8
0
 10
-17.2512
 20
308.258
 11
-17.7495
 21
308.321
  0
LINE
  8
0
 10
-17.7495
 20
308.321
 11
-18.2361
 21
308.446
  0
LINE
  8
0
 10
-18.2361
 20
308.446
 11
-18.7031
 21
308.631
  0
LINE
  8
0
 10
-18.7031
 20
308.631
 11
-19.1433
 21
308.873
  0
LINE
  8
0
 10
-19.1433
 20
308.873
 11
-19.5497
 21
309.168
  0
LINE
  8
0
 10
-19.5497
 20
309.168
 11
-19.9159
 21
309.512
  0
LINE
  8
0
 10
-19.9159
 20
309.512
 11
-20.2361
 21
309.899
  0
LINE
  8
0
 10
-20.2361
 20
309.899
 11
-20.5052
 21
310.323
  0
LINE
  8
0
 10
-20.5052
 20
310.323
 11
-20.7191
 21
310.778
  0
LINE
  8
0
 10
-20.7191
 20
310.778
 11
-20.8743
 21
311.255
  0
LINE
  8
0
 10
-20.8743
 20
311.255
 11
-20.9684
 21
311.749
  0
LINE
  8
0
 10
-20.9684
 20
311.749
 11
-21
 21
312.25
  0
LINE
  8
0
 10
-21
 20
312.25
 11
-21
 21
338.75
  0
LINE
  8
0
 10
-21
 20
338.75
 11
-20.9684
 21
339.251
  0
LINE
  8
0
 10
-20.9684
 20
339.251
 11
-20.8743
 21
339.745
  0
LINE
  8
0
 10
-20.8743
 20
339.745
 11
-20.7191
 21
340.222
  0
LINE
  8
0
 10
-20.7191
 20
340.222
 11
-20.5052
 21
340.677
  0
LINE
  8
0
 10
-20.5052
 20
340.677
 11
-20.2361
 21
341.101
  0
LINE
  8
0
 10
-20.2361
 20
341.101
 11
-19.9159
 21
341.488
  0
LINE
  8
0
 10
-19.9159
 20
341.488
 11
-19.5497
 21
341.832
  0
LINE
  8
0
 10
-19.5497
 20
341.832
 11
-19.1433
 21
342.127
  0
LINE
  8
0
 10
-19.1433
 20
342.127
 11
-18.7031
 21
342.369
  0
LINE
  8
0
 10
-18.7031
 20
342.369
 11
-18.2361
 21
342.554
  0
LINE
  8
0
 10
-18.2361
 20
342.554
 11
-17.7495
 21
342.679
  0
LINE
  8
0
 10
-17.7495
 20
342.679
 11
-17.2512
 21
342.742
  0
LINE
  8
0
 10
-17.2512
 20
342.742
 11
17.2512
 21
342.742
  0
LINE
  8
0
 10
17.2512
 20
342.742
 11
17.7495
 21
342.679
  0
LINE
  8
0
 10
17.7495
 20
342.679
 11
18.2361
 21
342.554
  0
LINE
  8
0
 10
18.2361
 20
342.554
 11
18.7031
 21
342.369
  0
LINE
  8
0
 10
18.7031
 20
342.369
 11
19.1433
 21
342.127
  0
LINE
  8
0
 10
19.1433
 20
342.127
 11
19.5497
 21
341.832
  0
LINE
  8
0
 10
19.5497
 20
341.832
 11
19.9159
 21
341.488
  0
LINE
  8
0
 10
19.9159
 20
341.488
 11
20.2361
 21
341.101
  0
LINE
  8
0
 10
20.2361
 20
341.101
 11
20.5052
 21
340.677
  0
LINE
  8
0
 10
20.5052
 20
340.677
 11
20.7191
 21
340.222
  0
LINE
  8
0
 10
20.7191
 20
340.222
 11
20.8743
 21
339.745
  0
LINE
  8
0
 10
20.8743
 20
339.745
 11
20.9684
 21
339.251
  0
LINE
  8
0
 10
20.9684
 20
339.251
 11
21
 21
338.75
  0
LINE
  8
0
 10
21
 20
338.75
 11
21
 21
312.25
  0
LINE
  8
0
 10
21
 20
312.25
 11
20.9684
 21
311.749
  0
LINE
  8
0
 10
20.9684
 20
311.749
 11
20.8743
 21
311.255
  0
LINE
  8
0
 10
20.8743
 20
311.255
 11
20.7191
 21
310.778
  0
LINE
  8
0
 10
20.7191
 20
310.778
 11
20.5052
 21
310.323
  0
LINE
  8
0
 10
20.5052
 20
310.323
 11
20.2361
 21
309.899
  0
LINE
  8
0
 10
20.2361
 20
309.899
 11
19.9159
 21
309.512
  0
LINE
  8
0
 10
19.9159
 20
309.512
 11
19.5497
 21
309.168
  0
LINE
  8
0
 10
19.5497
 20
309.168
 11
19.1433
 21
308.873
  0
LINE
  8
0
 10
19.1433
 20
308.873
 11
18.7031
 21
308.631
  0
LINE
  8
0
 10
18.7031
 20
308.631
 11
18.2361
 21
308.446
  0
LINE
  8
0
 10
18.2361
 20
308.446
 11
17.7495
 21
308.321
  0
LINE
  8
0
 10
17.7495
 20
308.321
 11
17.2512
 21
308.258
  0
LINE
  8
0
 10
17.2512
 20
308.258
 11
-17.2512
 21
308.258
  0
LINE
  8
0
 10
17.9369
 20
260.839
 11
18.5451
 21
260.995
  0
LINE
  8
0
 10
18.5451
 20
260.995
 11
19.1289
 21
261.226
  0
LINE
  8
0
 10
19.1289
 20
261.226
 11
19.6791
 21
261.528
  0
LINE
  8
0
 10
19.6791
 20
261.528
 11
20.1871
 21
261.897
  0
LINE
  8
0
 10
20.1871
 20
261.897
 11
20.6448
 21
262.327
  0
LINE
  8
0
 10
20.6448
 20
262.327
 11
21.0451
 21
262.811
  0
LINE
  8
0
 10
21.0451
 20
262.811
 11
21.3815
 21
263.341
  0
LINE
  8
0
 10
21.3815
 20
263.341
 11
21.6489
 21
263.909
  0
LINE
  8
0
 10
21.6489
 20
263.909
 11
21.8429
 21
264.507
  0
LINE
  8
0
 10
21.8429
 20
264.507
 11
21.9606
 21
265.123
  0
LINE
  8
0
 10
21.9606
 20
265.123
 11
22
 21
265.75
  0
LINE
  8
0
 10
22
 20
265.75
 11
22
 21
292.25
  0
LINE
  8
0
 10
22
 20
292.25
 11
21.9606
 21
292.877
  0
LINE
  8
0
 10
21.9606
 20
292.877
 11
21.8429
 21
293.493
  0
LINE
  8
0
 10
21.8429
 20
293.493
 11
21.6489
 21
294.091
  0
LINE
  8
0
 10
21.6489
 20
294.091
 11
21.3815
 21
294.659
  0
LINE
  8
0
 10
21.3815
 20
294.659
 11
21.0451
 21
295.189
  0
LINE
  8
0
 10
21.0451
 20
295.189
 11
20.6448
 21
295.673
  0
LINE
  8
0
 10
20.6448
 20
295.673
 11
20.1871
 21
296.103
  0
LINE
  8
0
 10
20.1871
 20
296.103
 11
19.6791
 21
296.472
  0
LINE
  8
0
 10
19.6791
 20
296.472
 11
19.1289
 21
296.774
  0
LINE
  8
0
 10
19.1289
 20
296.774
 11
18.5451
 21
297.005
  0
LINE
  8
0
 10
18.5451
 20
297.005
 11
17.9369
 21
297.161
  0
LINE
  8
0
 10
17.9369
 20
297.161
 11
17.3139
 21
297.24
  0
LINE
  8
0
 10
17.3139
 20
297.24
 11
-17.3139
 21
297.24
  0
LINE
  8
0
 10
-17.3139
 20
297.24
 11
-17.9369
 21
297.161
  0
LINE
  8
0
 10
-17.9369
 20
297.161
 11
-18.5451
 21
297.005
  0
LINE
  8
0
 10
-18.5451
 20
297.005
 11
-19.1289
 21
296.774
  0
LINE
  8
0
 10
-19.1289
 20
296.774
 11
-19.6791
 21
296.472
  0
LINE
  8
0
 10
-19.6791
 20
296.472
 11
-20.1871
 21
296.103
  0
LINE
  8
0
 10
-20.1871
 20
296.103
 11
-20.6448
 21
295.673
  0
LINE
  8
0
 10
-20.6448
 20
295.673
 11
-21.0451
 21
295.189
  0
LINE
  8
0
 10
-21.0451
 20
295.189
 11
-21.3815
 21
294.659
  0
LINE
  8
0
 10
-21.3815
 20
294.659
 11
-21.6489
 21
294.091
  0
LINE
  8
0
 10
-21.6489
 20
294.091
 11
-21.8429
 21
293.493
  0
LINE
  8
0
 10
-21.8429
 20
293.493
 11
-21.9606
 21
292.877
  0
LINE
  8
0
 10
-21.9606
 20
292.877
 11
-22
 21
292.25
  0
LINE
  8
0
 10
-22
 20
292.25
 11
-22
 21
265.75
  0
LINE
  8
0
 10
-22
 20
265.75
 11
-21.9606
 21
265.123
  0
LINE
  8
0
 10
-21.9606
 20
265.123
 11
-21.8429
 21
264.507
  0
LINE
  8
0
 10
-21.8429
 20
264.507
 11
-21.6489
 21
263.909
  0
LINE
  8
0
 10
-21.6489
 20
263.909
 11
-21.3815
 21
263.341
  0
LINE
  8
0
 10
-21.3815
 20
263.341
 11
-21.0451
 21
262.811
  0
LINE
  8
0
 10
-21.0451
 20
262.811
 11
-20.6448
 21
262.327
  0
LINE
  8
0
 10
-20.6448
 20
262.327
 11
-20.1871
 21
261.897
  0
LINE
  8
0
 10
-20.1871
 20
261.897
 11
-19.6791
 21
261.528
  0
LINE
  8
0
 10
-19.6791
 20
261.528
 11
-19.1289
 21
261.226
  0
LINE
  8
0
 10
-19.1289
 20
261.226
 11
-18.5451
 21
260.995
  0
LINE
  8
0
 10
-18.5451
 20
260.995
 11
-17.9369
 21
260.839
  0
LINE
  8
0
 10
-17.9369
 20
260.839
 11
-17.3139
 21
260.76
  0
LINE
  8
0
 10
-17.3139
 20
260.76
 11
17.3139
 21
260.76
  0
LINE
  8
0
 10
17.3139
 20
260.76
 11
17.9369
 21
260.839
  0
LINE
  8
0
 10
-17.1954
 20
262.643
 11
-17.5833
 21
262.692
  0
LINE
  8
0
 10
-17.5833
 20
262.692
 11
-17.9619
 21
262.789
  0
LINE
  8
0
 10
-17.9619
 20
262.789
 11
-18.3254
 21
262.933
  0
LINE
  8
0
 10
-18.3254
 20
262.933
 11
-18.668
 21
263.122
  0
LINE
  8
0
 10
-18.668
 20
263.122
 11
-18.9842
 21
263.351
  0
LINE
  8
0
 10
-18.9842
 20
263.351
 11
-19.2692
 21
263.619
  0
LINE
  8
0
 10
-19.2692
 20
263.619
 11
-19.5184
 21
263.92
  0
LINE
  8
0
 10
-19.5184
 20
263.92
 11
-19.7279
 21
264.25
  0
LINE
  8
0
 10
-19.7279
 20
264.25
 11
-19.8943
 21
264.604
  0
LINE
  8
0
 10
-19.8943
 20
264.604
 11
-20.0151
 21
264.976
  0
LINE
  8
0
 10
-20.0151
 20
264.976
 11
-20.0884
 21
265.36
  0
LINE
  8
0
 10
-20.0884
 20
265.36
 11
-20.1129
 21
265.75
  0
LINE
  8
0
 10
-20.1129
 20
265.75
 11
-20.1129
 21
292.25
  0
LINE
  8
0
 10
-20.1129
 20
292.25
 11
-20.0884
 21
292.64
  0
LINE
  8
0
 10
-20.0884
 20
292.64
 11
-20.0151
 21
293.024
  0
LINE
  8
0
 10
-20.0151
 20
293.024
 11
-19.8943
 21
293.396
  0
LINE
  8
0
 10
-19.8943
 20
293.396
 11
-19.7279
 21
293.75
  0
LINE
  8
0
 10
-19.7279
 20
293.75
 11
-19.5184
 21
294.08
  0
LINE
  8
0
 10
-19.5184
 20
294.08
 11
-19.2692
 21
294.381
  0
LINE
  8
0
 10
-19.2692
 20
294.381
 11
-18.9842
 21
294.649
  0
LINE
  8
0
 10
-18.9842
 20
294.649
 11
-18.668
 21
294.878
  0
LINE
  8
0
 10
-18.668
 20
294.878
 11
-18.3254
 21
295.067
  0
LINE
  8
0
 10
-18.3254
 20
295.067
 11
-17.9619
 21
295.211
  0
LINE
  8
0
 10
-17.9619
 20
295.211
 11
-17.5833
 21
295.308
  0
LINE
  8
0
 10
-17.5833
 20
295.308
 11
-17.1954
 21
295.357
  0
LINE
  8
0
 10
-17.1954
 20
295.357
 11
17.1954
 21
295.357
  0
LINE
  8
0
 10
17.1954
 20
295.357
 11
17.5833
 21
295.308
  0
LINE
  8
0
 10
17.5833
 20
295.308
 11
17.9619
 21
295.211
  0
LINE
  8
0
 10
17.9619
 20
295.211
 11
18.3254
 21
295.067
  0
LINE
  8
0
 10
18.3254
 20
295.067
 11
18.668
 21
294.878
  0
LINE
  8
0
 10
18.668
 20
294.878
 11
18.9842
 21
294.649
  0
LINE
  8
0
 10
18.9842
 20
294.649
 11
19.2692
 21
294.381
  0
LINE
  8
0
 10
19.2692
 20
294.381
 11
19.5184
 21
294.08
  0
LINE
  8
0
 10
19.5184
 20
294.08
 11
19.7279
 21
293.75
  0
LINE
  8
0
 10
19.7279
 20
293.75
 11
19.8943
 21
293.396
  0
LINE
  8
0
 10
19.8943
 20
293.396
 11
20.0151
 21
293.024
  0
LINE
  8
0
 10
20.0151
 20
293.024
 11
20.0884
 21
292.64
  0
LINE
  8
0
 10
20.0884
 20
292.64
 11
20.1129
 21
292.25
  0
LINE
  8
0
 10
20.1129
 20
292.25
 11
20.1129
 21
265.75
  0
LINE
  8
0
 10
20.1129
 20
265.75
 11
20.0884
 21
265.36
  0
LINE
  8
0
 10
20.0884
 20
265.36
 11
20.0151
 21
264.976
  0
LINE
  8
0
 10
20.0151
 20
264.976
 11
19.8943
 21
264.604
  0
LINE
  8
0
 10
19.8943
 20
264.604
 11
19.7279
 21
264.25
  0
LINE
  8
0
 10
19.7279
 20
264.25
 11
19.5184
 21
263.92
  0
LINE
  8
0
 10
19.5184
 20
263.92
 11
19.2692
 21
263.619
  0
LINE
  8
0
 10
19.2692
 20
263.619
 11
18.9842
 21
263.351
  0
LINE
  8
0
 10
18.9842
 20
263.351
 11
18.668
 21
263.122
  0
LINE
  8
0
 10
18.668
 20
263.122
 11
18.3254
 21
262.933
  0
LINE
  8
0
 10
18.3254
 20
262.933
 11
17.9619
 21
262.789
  0
LINE
  8
0
 10
17.9619
 20
262.789
 11
17.5833
 21
262.692
  0
LINE
  8
0
 10
17.5833
 20
262.692
 11
17.1954
 21
262.643
  0
LINE
  8
0
 10
17.1954
 20
262.643
 11
-17.1954
 21
262.643
  0
LINE
  8
0
 10
17.9369
 20
214.339
 11
18.5451
 21
214.495
  0
LINE
  8
0
 10
18.5451
 20
214.495
 11
19.1289
 21
214.726
  0
LINE
  8
0
 10
19.1289
 20
214.726
 11
19.6791
 21
215.028
  0
LINE
  8
0
 10
19.6791
 20
215.028
 11
20.1871
 21
215.397
  0
LINE
  8
0
 10
20.1871
 20
215.397
 11
20.6448
 21
215.827
  0
LINE
  8
0
 10
20.6448
 20
215.827
 11
21.0451
 21
216.311
  0
LINE
  8
0
 10
21.0451
 20
216.311
 11
21.3815
 21
216.841
  0
LINE
  8
0
 10
21.3815
 20
216.841
 11
21.6489
 21
217.409
  0
LINE
  8
0
 10
21.6489
 20
217.409
 11
21.8429
 21
218.007
  0
LINE
  8
0
 10
21.8429
 20
218.007
 11
21.9606
 21
218.623
  0
LINE
  8
0
 10
21.9606
 20
218.623
 11
22
 21
219.25
  0
LINE
  8
0
 10
22
 20
219.25
 11
22
 21
245.75
  0
LINE
  8
0
 10
22
 20
245.75
 11
21.9606
 21
246.377
  0
LINE
  8
0
 10
21.9606
 20
246.377
 11
21.8429
 21
246.993
  0
LINE
  8
0
 10
21.8429
 20
246.993
 11
21.6489
 21
247.591
  0
LINE
  8
0
 10
21.6489
 20
247.591
 11
21.3815
 21
248.159
  0
LINE
  8
0
 10
21.3815
 20
248.159
 11
21.0451
 21
248.689
  0
LINE
  8
0
 10
21.0451
 20
248.689
 11
20.6448
 21
249.173
  0
LINE
  8
0
 10
20.6448
 20
249.173
 11
20.1871
 21
249.603
  0
LINE
  8
0
 10
20.1871
 20
249.603
 11
19.6791
 21
249.972
  0
LINE
  8
0
 10
19.6791
 20
249.972
 11
19.1289
 21
250.274
  0
LINE
  8
0
 10
19.1289
 20
250.274
 11
18.5451
 21
250.505
  0
LINE
  8
0
 10
18.5451
 20
250.505
 11
17.9369
 21
250.661
  0
LINE
  8
0
 10
17.9369
 20
250.661
 11
17.3139
 21
250.74
  0
LINE
  8
0
 10
17.3139
 20
250.74
 11
-17.3139
 21
250.74
  0
LINE
  8
0
 10
-17.3139
 20
250.74
 11
-17.9369
 21
250.661
  0
LINE
  8
0
 10
-17.9369
 20
250.661
 11
-18.5451
 21
250.505
  0
LINE
  8
0
 10
-18.5451
 20
250.505
 11
-19.1289
 21
250.274
  0
LINE
  8
0
 10
-19.1289
 20
250.274
 11
-19.6791
 21
249.972
  0
LINE
  8
0
 10
-19.6791
 20
249.972
 11
-20.1871
 21
249.603
  0
LINE
  8
0
 10
-20.1871
 20
249.603
 11
-20.6448
 21
249.173
  0
LINE
  8
0
 10
-20.6448
 20
249.173
 11
-21.0451
 21
248.689
  0
LINE
  8
0
 10
-21.0451
 20
248.689
 11
-21.3815
 21
248.159
  0
LINE
  8
0
 10
-21.3815
 20
248.159
 11
-21.6489
 21
247.591
  0
LINE
  8
0
 10
-21.6489
 20
247.591
 11
-21.8429
 21
246.993
  0
LINE
  8
0
 10
-21.8429
 20
246.993
 11
-21.9606
 21
246.377
  0
LINE
  8
0
 10
-21.9606
 20
246.377
 11
-22
 21
245.75
  0
LINE
  8
0
 10
-22
 20
245.75
 11
-22
 21
219.25
  0
LINE
  8
0
 10
-22
 20
219.25
 11
-21.9606
 21
218.623
  0
LINE
  8
0
 10
-21.9606
 20
218.623
 11
-21.8429
 21
218.007
  0
LINE
  8
0
 10
-21.8429
 20
218.007
 11
-21.6489
 21
217.409
  0
LINE
  8
0
 10
-21.6489
 20
217.409
 11
-21.3815
 21
216.841
  0
LINE
  8
0
 10
-21.3815
 20
216.841
 11
-21.0451
 21
216.311
  0
LINE
  8
0
 10
-21.0451
 20
216.311
 11
-20.6448
 21
215.827
  0
LINE
  8
0
 10
-20.6448
 20
215.827
 11
-20.1871
 21
215.397
  0
LINE
  8
0
 10
-20.1871
 20
215.397
 11
-19.6791
 21
215.028
  0
LINE
  8
0
 10
-19.6791
 20
215.028
 11
-19.1289
 21
214.726
  0
LINE
  8
0
 10
-19.1289
 20
214.726
 11
-18.5451
 21
214.495
  0
LINE
  8
0
 10
-18.5451
 20
214.495
 11
-17.9369
 21
214.339
  0
LINE
  8
0
 10
-17.9369
 20
214.339
 11
-17.3139
 21
214.26
  0
LINE
  8
0
 10
-17.3139
 20
214.26
 11
17.3139
 21
214.26
  0
LINE
  8
0
 10
17.3139
 20
214.26
 11
17.9369
 21
214.339
  0
LINE
  8
0
 10
-15.1507
 20
241.355
 11
-15.4497
 21
241.393
  0
LINE
  8
0
 10
-15.4497
 20
241.393
 11
-15.7416
 21
241.467
  0
LINE
  8
0
 10
-15.7416
 20
241.467
 11
-16.0219
 21
241.578
  0
LINE
  8
0
 10
-16.0219
 20
241.578
 11
-16.286
 21
241.724
  0
LINE
  8
0
 10
-16.286
 20
241.724
 11
-16.5298
 21
241.901
  0
LINE
  8
0
 10
-16.5298
 20
241.901
 11
-16.7495
 21
242.107
  0
LINE
  8
0
 10
-16.7495
 20
242.107
 11
-16.9416
 21
242.339
  0
LINE
  8
0
 10
-16.9416
 20
242.339
 11
-17.1031
 21
242.594
  0
LINE
  8
0
 10
-17.1031
 20
242.594
 11
-17.2315
 21
242.867
  0
LINE
  8
0
 10
-17.2315
 20
242.867
 11
-17.3246
 21
243.153
  0
LINE
  8
0
 10
-17.3246
 20
243.153
 11
-17.3811
 21
243.449
  0
LINE
  8
0
 10
-17.3811
 20
243.449
 11
-17.4
 21
243.75
  0
LINE
  8
0
 10
-17.4
 20
243.75
 11
-17.3811
 21
244.051
  0
LINE
  8
0
 10
-17.3811
 20
244.051
 11
-17.3246
 21
244.347
  0
LINE
  8
0
 10
-17.3246
 20
244.347
 11
-17.2315
 21
244.633
  0
LINE
  8
0
 10
-17.2315
 20
244.633
 11
-17.1031
 21
244.906
  0
LINE
  8
0
 10
-17.1031
 20
244.906
 11
-16.9416
 21
245.161
  0
LINE
  8
0
 10
-16.9416
 20
245.161
 11
-16.7495
 21
245.393
  0
LINE
  8
0
 10
-16.7495
 20
245.393
 11
-16.5298
 21
245.599
  0
LINE
  8
0
 10
-16.5298
 20
245.599
 11
-16.286
 21
245.776
  0
LINE
  8
0
 10
-16.286
 20
245.776
 11
-16.0219
 21
245.922
  0
LINE
  8
0
 10
-16.0219
 20
245.922
 11
-15.7416
 21
246.033
  0
LINE
  8
0
 10
-15.7416
 20
246.033
 11
-15.4497
 21
246.107
  0
LINE
  8
0
 10
-15.4497
 20
246.107
 11
-15.1507
 21
246.145
  0
LINE
  8
0
 10
-15.1507
 20
246.145
 11
-14.8493
 21
246.145
  0
LINE
  8
0
 10
-14.8493
 20
246.145
 11
-14.5503
 21
246.107
  0
LINE
  8
0
 10
-14.5503
 20
246.107
 11
-14.2583
 21
246.033
  0
LINE
  8
0
 10
-14.2583
 20
246.033
 11
-13.9781
 21
245.922
  0
LINE
  8
0
 10
-13.9781
 20
245.922
 11
-13.714
 21
245.776
  0
LINE
  8
0
 10
-13.714
 20
245.776
 11
-13.4702
 21
245.599
  0
LINE
  8
0
 10
-13.4702
 20
245.599
 11
-13.2505
 21
245.393
  0
LINE
  8
0
 10
-13.2505
 20
245.393
 11
-13.0583
 21
245.161
  0
LINE
  8
0
 10
-13.0583
 20
245.161
 11
-12.8969
 21
244.906
  0
LINE
  8
0
 10
-12.8969
 20
244.906
 11
-12.7685
 21
244.633
  0
LINE
  8
0
 10
-12.7685
 20
244.633
 11
-12.6754
 21
244.347
  0
LINE
  8
0
 10
-12.6754
 20
244.347
 11
-12.6189
 21
244.051
  0
LINE
  8
0
 10
-12.6189
 20
244.051
 11
-12.6
 21
243.75
  0
LINE
  8
0
 10
-12.6
 20
243.75
 11
-12.6189
 21
243.449
  0
LINE
  8
0
 10
-12.6189
 20
243.449
 11
-12.6754
 21
243.153
  0
LINE
  8
0
 10
-12.6754
 20
243.153
 11
-12.7685
 21
242.867
  0
LINE
  8
0
 10
-12.7685
 20
242.867
 11
-12.8969
 21
242.594
  0
LINE
  8
0
 10
-12.8969
 20
242.594
 11
-13.0583
 21
242.339
  0
LINE
  8
0
 10
-13.0583
 20
242.339
 11
-13.2505
 21
242.107
  0
LINE
  8
0
 10
-13.2505
 20
242.107
 11
-13.4702
 21
241.901
  0
LINE
  8
0
 10
-13.4702
 20
241.901
 11
-13.714
 21
241.724
  0
LINE
  8
0
 10
-13.714
 20
241.724
 11
-13.9781
 21
241.578
  0
LINE
  8
0
 10
-13.9781
 20
241.578
 11
-14.2583
 21
241.467
  0
LINE
  8
0
 10
-14.2583
 20
241.467
 11
-14.5503
 21
241.393
  0
LINE
  8
0
 10
-14.5503
 20
241.393
 11
-14.8493
 21
241.355
  0
LINE
  8
0
 10
-14.8493
 20
241.355
 11
-15.1507
 21
241.355
  0
LINE
  8
0
 10
14.8493
 20
241.355
 11
14.5503
 21
241.393
  0
LINE
  8
0
 10
14.5503
 20
241.393
 11
14.2583
 21
241.467
  0
LINE
  8
0
 10
14.2583
 20
241.467
 11
13.9781
 21
241.578
  0
LINE
  8
0
 10
13.9781
 20
241.578
 11
13.714
 21
241.724
  0
LINE
  8
0
 10
13.714
 20
241.724
 11
13.4702
 21
241.901
  0
LINE
  8
0
 10
13.4702
 20
241.901
 11
13.2505
 21
242.107
  0
LINE
  8
0
 10
13.2505
 20
242.107
 11
13.0583
 21
242.339
  0
LINE
  8
0
 10
13.0583
 20
242.339
 11
12.8969
 21
242.594
  0
LINE
  8
0
 10
12.8969
 20
242.594
 11
12.7685
 21
242.867
  0
LINE
  8
0
 10
12.7685
 20
242.867
 11
12.6754
 21
243.153
  0
LINE
  8
0
 10
12.6754
 20
243.153
 11
12.6189
 21
243.449
  0
LINE
  8
0
 10
12.6189
 20
243.449
 11
12.6
 21
243.75
  0
LINE
  8
0
 10
12.6
 20
243.75
 11
12.6189
 21
244.051
  0
LINE
  8
0
 10
12.6189
 20
244.051
 11
12.6754
 21
244.347
  0
LINE
  8
0
 10
12.6754
 20
244.347
 11
12.7685
 21
244.633
  0
LINE
  8
0
 10
12.7685
 20
244.633
 11
12.8969
 21
244.906
  0
LINE
  8
0
 10
12.8969
 20
244.906
 11
13.0583
 21
245.161
  0
LINE
  8
0
 10
13.0583
 20
245.161
 11
13.2505
 21
245.393
  0
LINE
  8
0
 10
13.2505
 20
245.393
 11
13.4702
 21
245.599
  0
LINE
  8
0
 10
13.4702
 20
245.599
 11
13.714
 21
245.776
  0
LINE
  8
0
 10
13.714
 20
245.776
 11
13.9781
 21
245.922
  0
LINE
  8
0
 10
13.9781
 20
245.922
 11
14.2583
 21
246.033
  0
LINE
  8
0
 10
14.2583
 20
246.033
 11
14.5503
 21
246.107
  0
LINE
  8
0
 10
14.5503
 20
246.107
 11
14.8493
 21
246.145
  0
LINE
  8
0
 10
14.8493
 20
246.145
 11
15.1507
 21
246.145
  0
LINE
  8
0
 10
15.1507
 20
246.145
 11
15.4497
 21
246.107
  0
LINE
  8
0
 10
15.4497
 20
246.107
 11
15.7416
 21
246.033
  0
LINE
  8
0
 10
15.7416
 20
246.033
 11
16.0219
 21
245.922
  0
LINE
  8
0
 10
16.0219
 20
245.922
 11
16.286
 21
245.776
  0
LINE
  8
0
 10
16.286
 20
245.776
 11
16.5298
 21
245.599
  0
LINE
  8
0
 10
16.5298
 20
245.599
 11
16.7495
 21
245.393
  0
LINE
  8
0
 10
16.7495
 20
245.393
 11
16.9416
 21
245.161
  0
LINE
  8
0
 10
16.9416
 20
245.161
 11
17.1031
 21
244.906
  0
LINE
  8
0
 10
17.1031
 20
244.906
 11
17.2315
 21
244.633
  0
LINE
  8
0
 10
17.2315
 20
244.633
 11
17.3246
 21
244.347
  0
LINE
  8
0
 10
17.3246
 20
244.347
 11
17.3811
 21
244.051
  0
LINE
  8
0
 10
17.3811
 20
244.051
 11
17.4
 21
243.75
  0
LINE
  8
0
 10
17.4
 20
243.75
 11
17.3811
 21
243.449
  0
LINE
  8
0
 10
17.3811
 20
243.449
 11
17.3246
 21
243.153
  0
LINE
  8
0
 10
17.3246
 20
243.153
 11
17.2315
 21
242.867
  0
LINE
  8
0
 10
17.2315
 20
242.867
 11
17.1031
 21
242.594
  0
LINE
  8
0
 10
17.1031
 20
242.594
 11
16.9416
 21
242.339
  0
LINE
  8
0
 10
16.9416
 20
242.339
 11
16.7495
 21
242.107
  0
LINE
  8
0
 10
16.7495
 20
242.107
 11
16.5298
 21
241.901
  0
LINE
  8
0
 10
16.5298
 20
241.901
 11
16.286
 21
241.724
  0
LINE
  8
0
 10
16.286
 20
241.724
 11
16.0219
 21
241.578
  0
LINE
  8
0
 10
16.0219
 20
241.578
 11
15.7416
 21
241.467
  0
LINE
  8
0
 10
15.7416
 20
241.467
 11
15.4497
 21
241.393
  0
LINE
  8
0
 10
15.4497
 20
241.393
 11
15.1507
 21
241.355
  0
LINE
  8
0
 10
15.1507
 20
241.355
 11
14.8493
 21
241.355
  0
LINE
  8
0
 10
-15.1507
 20
218.855
 11
-15.4497
 21
218.893
  0
LINE
  8
0
 10
-15.4497
 20
218.893
 11
-15.7416
 21
218.967
  0
LINE
  8
0
 10
-15.7416
 20
218.967
 11
-16.0219
 21
219.078
  0
LINE
  8
0
 10
-16.0219
 20
219.078
 11
-16.286
 21
219.224
  0
LINE
  8
0
 10
-16.286
 20
219.224
 11
-16.5298
 21
219.401
  0
LINE
  8
0
 10
-16.5298
 20
219.401
 11
-16.7495
 21
219.607
  0
LINE
  8
0
 10
-16.7495
 20
219.607
 11
-16.9416
 21
219.839
  0
LINE
  8
0
 10
-16.9416
 20
219.839
 11
-17.1031
 21
220.094
  0
LINE
  8
0
 10
-17.1031
 20
220.094
 11
-17.2315
 21
220.367
  0
LINE
  8
0
 10
-17.2315
 20
220.367
 11
-17.3246
 21
220.653
  0
LINE
  8
0
 10
-17.3246
 20
220.653
 11
-17.3811
 21
220.949
  0
LINE
  8
0
 10
-17.3811
 20
220.949
 11
-17.4
 21
221.25
  0
LINE
  8
0
 10
-17.4
 20
221.25
 11
-17.3811
 21
221.551
  0
LINE
  8
0
 10
-17.3811
 20
221.551
 11
-17.3246
 21
221.847
  0
LINE
  8
0
 10
-17.3246
 20
221.847
 11
-17.2315
 21
222.133
  0
LINE
  8
0
 10
-17.2315
 20
222.133
 11
-17.1031
 21
222.406
  0
LINE
  8
0
 10
-17.1031
 20
222.406
 11
-16.9416
 21
222.661
  0
LINE
  8
0
 10
-16.9416
 20
222.661
 11
-16.7495
 21
222.893
  0
LINE
  8
0
 10
-16.7495
 20
222.893
 11
-16.5298
 21
223.099
  0
LINE
  8
0
 10
-16.5298
 20
223.099
 11
-16.286
 21
223.276
  0
LINE
  8
0
 10
-16.286
 20
223.276
 11
-16.0219
 21
223.422
  0
LINE
  8
0
 10
-16.0219
 20
223.422
 11
-15.7416
 21
223.533
  0
LINE
  8
0
 10
-15.7416
 20
223.533
 11
-15.4497
 21
223.607
  0
LINE
  8
0
 10
-15.4497
 20
223.607
 11
-15.1507
 21
223.645
  0
LINE
  8
0
 10
-15.1507
 20
223.645
 11
-14.8493
 21
223.645
  0
LINE
  8
0
 10
-14.8493
 20
223.645
 11
-14.5503
 21
223.607
  0
LINE
  8
0
 10
-14.5503
 20
223.607
 11
-14.2583
 21
223.533
  0
LINE
  8
0
 10
-14.2583
 20
223.533
 11
-13.9781
 21
223.422
  0
LINE
  8
0
 10
-13.9781
 20
223.422
 11
-13.714
 21
223.276
  0
LINE
  8
0
 10
-13.714
 20
223.276
 11
-13.4702
 21
223.099
  0
LINE
  8
0
 10
-13.4702
 20
223.099
 11
-13.2505
 21
222.893
  0
LINE
  8
0
 10
-13.2505
 20
222.893
 11
-13.0583
 21
222.661
  0
LINE
  8
0
 10
-13.0583
 20
222.661
 11
-12.8969
 21
222.406
  0
LINE
  8
0
 10
-12.8969
 20
222.406
 11
-12.7685
 21
222.133
  0
LINE
  8
0
 10
-12.7685
 20
222.133
 11
-12.6754
 21
221.847
  0
LINE
  8
0
 10
-12.6754
 20
221.847
 11
-12.6189
 21
221.551
  0
LINE
  8
0
 10
-12.6189
 20
221.551
 11
-12.6
 21
221.25
  0
LINE
  8
0
 10
-12.6
 20
221.25
 11
-12.6189
 21
220.949
  0
LINE
  8
0
 10
-12.6189
 20
220.949
 11
-12.6754
 21
220.653
  0
LINE
  8
0
 10
-12.6754
 20
220.653
 11
-12.7685
 21
220.367
  0
LINE
  8
0
 10
-12.7685
 20
220.367
 11
-12.8969
 21
220.094
  0
LINE
  8
0
 10
-12.8969
 20
220.094
 11
-13.0583
 21
219.839
  0
LINE
  8
0
 10
-13.0583
 20
219.839
 11
-13.2505
 21
219.607
  0
LINE
  8
0
 10
-13.2505
 20
219.607
 11
-13.4702
 21
219.401
  0
LINE
  8
0
 10
-13.4702
 20
219.401
 11
-13.714
 21
219.224
  0
LINE
  8
0
 10
-13.714
 20
219.224
 11
-13.9781
 21
219.078
  0
LINE
  8
0
 10
-13.9781
 20
219.078
 11
-14.2583
 21
218.967
  0
LINE
  8
0
 10
-14.2583
 20
218.967
 11
-14.5503
 21
218.893
  0
LINE
  8
0
 10
-14.5503
 20
218.893
 11
-14.8493
 21
218.855
  0
LINE
  8
0
 10
-14.8493
 20
218.855
 11
-15.1507
 21
218.855
  0
LINE
  8
0
 10
14.8493
 20
218.855
 11
14.5503
 21
218.893
  0
LINE
  8
0
 10
14.5503
 20
218.893
 11
14.2583
 21
218.967
  0
LINE
  8
0
 10
14.2583
 20
218.967
 11
13.9781
 21
219.078
  0
LINE
  8
0
 10
13.9781
 20
219.078
 11
13.714
 21
219.224
  0
LINE
  8
0
 10
13.714
 20
219.224
 11
13.4702
 21
219.401
  0
LINE
  8
0
 10
13.4702
 20
219.401
 11
13.2505
 21
219.607
  0
LINE
  8
0
 10
13.2505
 20
219.607
 11
13.0583
 21
219.839
  0
LINE
  8
0
 10
13.0583
 20
219.839
 11
12.8969
 21
220.094
  0
LINE
  8
0
 10
12.8969
 20
220.094
 11
12.7685
 21
220.367
  0
LINE
  8
0
 10
12.7685
 20
220.367
 11
12.6754
 21
220.653
  0
LINE
  8
0
 10
12.6754
 20
220.653
 11
12.6189
 21
220.949
  0
LINE
  8
0
 10
12.6189
 20
220.949
 11
12.6
 21
221.25
  0
LINE
  8
0
 10
12.6
 20
221.25
 11
12.6189
 21
221.551
  0
LINE
  8
0
 10
12.6189
 20
221.551
 11
12.6754
 21
221.847
  0
LINE
  8
0
 10
12.6754
 20
221.847
 11
12.7685
 21
222.133
  0
LINE
  8
0
 10
12.7685
 20
222.133
 11
12.8969
 21
222.406
  0
LINE
  8
0
 10
12.8969
 20
222.406
 11
13.0583
 21
222.661
  0
LINE
  8
0
 10
13.0583
 20
222.661
 11
13.2505
 21
222.893
  0
LINE
  8
0
 10
13.2505
 20
222.893
 11
13.4702
 21
223.099
  0
LINE
  8
0
 10
13.4702
 20
223.099
 11
13.714
 21
223.276
  0
LINE
  8
0
 10
13.714
 20
223.276
 11
13.9781
 21
223.422
  0
LINE
  8
0
 10
13.9781
 20
223.422
 11
14.2583
 21
223.533
  0
LINE
  8
0
 10
14.2583
 20
223.533
 11
14.5503
 21
223.607
  0
LINE
  8
0
 10
14.5503
 20
223.607
 11
14.8493
 21
223.645
  0
LINE
  8
0
 10
14.8493
 20
223.645
 11
15.1507
 21
223.645
  0
LINE
  8
0
 10
15.1507
 20
223.645
 11
15.4497
 21
223.607
  0
LINE
  8
0
 10
15.4497
 20
223.607
 11
15.7416
 21
223.533
  0
LINE
  8
0
 10
15.7416
 20
223.533
 11
16.0219
 21
223.422
  0
LINE
  8
0
 10
16.0219
 20
223.422
 11
16.286
 21
223.276
  0
LINE
  8
0
 10
16.286
 20
223.276
 11
16.5298
 21
223.099
  0
LINE
  8
0
 10
16.5298
 20
223.099
 11
16.7495
 21
222.893
  0
LINE
  8
0
 10
16.7495
 20
222.893
 11
16.9416
 21
222.661
  0
LINE
  8
0
 10
16.9416
 20
222.661
 11
17.1031
 21
222.406
  0
LINE
  8
0
 10
17.1031
 20
222.406
 11
17.2315
 21
222.133
  0
LINE
  8
0
 10
17.2315
 20
222.133
 11
17.3246
 21
221.847
  0
LINE
  8
0
 10
17.3246
 20
221.847
 11
17.3811
 21
221.551
  0
LINE
  8
0
 10
17.3811
 20
221.551
 11
17.4
 21
221.25
  0
LINE
  8
0
 10
17.4
 20
221.25
 11
17.3811
 21
220.949
  0
LINE
  8
0
 10
17.3811
 20
220.949
 11
17.3246
 21
220.653
  0
LINE
  8
0
 10
17.3246
 20
220.653
 11
17.2315
 21
220.367
  0
LINE
  8
0
 10
17.2315
 20
220.367
 11
17.1031
 21
220.094
  0
LINE
  8
0
 10
17.1031
 20
220.094
 11
16.9416
 21
219.839
  0
LINE
  8
0
 10
16.9416
 20
219.839
 11
16.7495
 21
219.607
  0
LINE
  8
0
 10
16.7495
 20
219.607
 11
16.5298
 21
219.401
  0
LINE
  8
0
 10
16.5298
 20
219.401
 11
16.286
 21
219.224
  0
LINE
  8
0
 10
16.286
 20
219.224
 11
16.0219
 21
219.078
  0
LINE
  8
0
 10
16.0219
 20
219.078
 11
15.7416
 21
218.967
  0
LINE
  8
0
 10
15.7416
 20
218.967
 11
15.4497
 21
218.893
  0
LINE
  8
0
 10
15.4497
 20
218.893
 11
15.1507
 21
218.855
  0
LINE
  8
0
 10
15.1507
 20
218.855
 11
14.8493
 21
218.855
  0
ENDSEC
  0
SECTION
  2
OBJECTS
  0
DICTIONARY
  0
ENDSEC
  0
EOF
