<?xml version="1.0" standalone="no"?>
<!DOCTYPE svg PUBLIC "-//W3C//DTD SVG 1.1//EN" "http://www.w3.org/Graphics/SVG/1.1/DTD/svg11.dtd">
<svg width="46mm" height="412mm" viewBox="-23 -794 46 412" xmlns="http://www.w3.org/2000/svg" version="1.1">
<title>OpenSCAD Model</title>
<path d="
M 18.4369,-718.589 L 19.0451,-718.745 L 19.6289,-718.976 L 20.1791,-719.278 L 20.6871,-719.647 L 21.1448,-720.077
 L 21.5451,-720.561 L 21.8815,-721.091 L 22.1489,-721.659 L 22.3429,-722.257 L 22.4606,-722.873 L 22.5,-723.5
 L 22.5,-788.5 L 22.4606,-789.127 L 22.3429,-789.743 L 22.1489,-790.341 L 21.8815,-790.909 L 21.5451,-791.439
 L 21.1448,-791.923 L 20.6871,-792.353 L 20.1791,-792.722 L 19.6289,-793.024 L 19.0451,-793.255 L 18.4369,-793.411
 L 17.8139,-793.49 L -17.8139,-793.49 L -18.4369,-793.411 L -19.0451,-793.255 L -19.6289,-793.024 L -20.1791,-792.722
 L -20.6871,-792.353 L -21.1448,-791.923 L -21.5451,-791.439 L -21.8815,-790.909 L -22.1489,-790.341 L -22.3429,-789.743
 L -22.4606,-789.127 L -22.5,-788.5 L -22.5,-723.5 L -22.4606,-722.873 L -22.3429,-722.257 L -22.1489,-721.659
 L -21.8815,-721.091 L -21.5451,-720.561 L -21.1448,-720.077 L -20.6871,-719.647 L -20.1791,-719.278 L -19.6289,-718.976
 L -19.0451,-718.745 L -18.4369,-718.589 L -17.8139,-718.51 L 17.8139,-718.51 z
M -12.311,-719.009 L -11.8209,-719.278 L -11.3129,-719.647 L -10.8551,-720.077 L -10.4549,-720.561 L -10.1185,-721.091
 L -9.8511,-721.659 L -9.65707,-722.257 L -9.53941,-722.873 L -9.5,-723.5 L -9.5,-726.5 L -9.53941,-727.127
 L -9.65707,-727.743 L -9.8511,-728.341 L -10.1185,-728.909 L -10.4549,-729.439 L -10.8551,-729.923 L -11.3129,-730.353
 L -11.8209,-730.722 L -12.3711,-731.024 L -12.9549,-731.255 L -13.5631,-731.411 L -14.186,-731.49 L -17.8139,-731.49
 L -18.4369,-731.411 L -19.0451,-731.255 L -19.6289,-731.024 L -20.1791,-730.722 L -20.6871,-730.353 L -21.1448,-729.923
 L -21.5451,-729.439 L -21.8815,-728.909 L -22,-728.657 L -22,-788.5 L -21.9645,-789.064 L -21.8586,-789.619
 L -21.684,-790.157 L -21.4434,-790.668 L -21.1406,-791.145 L -20.7803,-791.58 L -20.3684,-791.967 L -19.9112,-792.299
 L -19.416,-792.572 L -18.8906,-792.78 L -18.3432,-792.92 L -17.7825,-792.991 L 17.7825,-792.991 L 18.3432,-792.92
 L 18.8906,-792.78 L 19.416,-792.572 L 19.9112,-792.299 L 20.3684,-791.967 L 20.7803,-791.58 L 21.1406,-791.145
 L 21.4434,-790.668 L 21.684,-790.157 L 21.8586,-789.619 L 21.9645,-789.064 L 22,-788.5 L 22,-723.5
 L 21.9645,-722.936 L 21.8586,-722.381 L 21.684,-721.843 L 21.4434,-721.332 L 21.1406,-720.855 L 20.7803,-720.42
 L 20.3684,-720.033 L 19.9112,-719.701 L 19.416,-719.428 L 18.8906,-719.22 L 18.3432,-719.08 L 17.7825,-719.009
 z
M 15.4684,-783.544 L 15.7725,-783.622 L 16.0644,-783.738 L 16.3396,-783.889 L 16.5936,-784.074 L 16.8224,-784.289
 L 17.0225,-784.531 L 17.1908,-784.796 L 17.3244,-785.08 L 17.4214,-785.378 L 17.4803,-785.687 L 17.5,-786
 L 17.4803,-786.313 L 17.4214,-786.622 L 17.3244,-786.92 L 17.1908,-787.204 L 17.0225,-787.469 L 16.8224,-787.711
 L 16.5936,-787.926 L 16.3396,-788.111 L 16.0644,-788.262 L 15.7725,-788.378 L 15.4684,-788.456 L 15.157,-788.495
 L 14.843,-788.495 L 14.5315,-788.456 L 14.2274,-788.378 L 13.9355,-788.262 L 13.6604,-788.111 L 13.4064,-787.926
 L 13.1776,-787.711 L 12.9774,-787.469 L 12.8092,-787.204 L 12.6756,-786.92 L 12.5785,-786.622 L 12.5197,-786.313
 L 12.5,-786 L 12.5197,-785.687 L 12.5785,-785.378 L 12.6756,-785.08 L 12.8092,-784.796 L 12.9774,-784.531
 L 13.1776,-784.289 L 13.4064,-784.074 L 13.6604,-783.889 L 13.9355,-783.738 L 14.2274,-783.622 L 14.5315,-783.544
 L 14.843,-783.505 L 15.157,-783.505 z
M 14.9058,-784.503 L 14.7189,-784.527 L 14.5365,-784.573 L 14.3613,-784.643 L 14.1963,-784.734 L 14.0439,-784.844
 L 13.9065,-784.973 L 13.7865,-785.118 L 13.6855,-785.277 L 13.6053,-785.448 L 13.5471,-785.627 L 13.5118,-785.812
 L 13.5,-786 L 13.5118,-786.188 L 13.5471,-786.373 L 13.6053,-786.552 L 13.6855,-786.723 L 13.7865,-786.882
 L 13.9065,-787.027 L 14.0439,-787.156 L 14.1963,-787.266 L 14.3613,-787.357 L 14.5365,-787.427 L 14.7189,-787.473
 L 14.9058,-787.497 L 15.0942,-787.497 L 15.2811,-787.473 L 15.4635,-787.427 L 15.6387,-787.357 L 15.8037,-787.266
 L 15.9561,-787.156 L 16.0934,-787.027 L 16.2135,-786.882 L 16.3145,-786.723 L 16.3947,-786.552 L 16.4529,-786.373
 L 16.4882,-786.188 L 16.5,-786 L 16.4882,-785.812 L 16.4529,-785.627 L 16.3947,-785.448 L 16.3145,-785.277
 L 16.2135,-785.118 L 16.0934,-784.973 L 15.9561,-784.844 L 15.8037,-784.734 L 15.6387,-784.643 L 15.4635,-784.573
 L 15.2811,-784.527 L 15.0942,-784.503 z
M -15.0942,-724.503 L -15.2811,-724.527 L -15.4635,-724.573 L -15.6387,-724.643 L -15.8037,-724.734 L -15.9561,-724.844
 L -16.0934,-724.973 L -16.2135,-725.118 L -16.3145,-725.277 L -16.3947,-725.448 L -16.4529,-725.627 L -16.4882,-725.812
 L -16.5,-726 L -16.4882,-726.188 L -16.4529,-726.373 L -16.3947,-726.552 L -16.3145,-726.723 L -16.2135,-726.882
 L -16.0934,-727.027 L -15.9561,-727.156 L -15.8037,-727.266 L -15.6387,-727.357 L -15.4635,-727.427 L -15.2811,-727.473
 L -15.0942,-727.497 L -14.9058,-727.497 L -14.7189,-727.473 L -14.5365,-727.427 L -14.3613,-727.357 L -14.1963,-727.266
 L -14.0439,-727.156 L -13.9065,-727.027 L -13.7865,-726.882 L -13.6855,-726.723 L -13.6053,-726.552 L -13.5471,-726.373
 L -13.5118,-726.188 L -13.5,-726 L -13.5118,-725.812 L -13.5471,-725.627 L -13.6053,-725.448 L -13.6855,-725.277
 L -13.7865,-725.118 L -13.9065,-724.973 L -14.0439,-724.844 L -14.1963,-724.734 L -14.3613,-724.643 L -14.5365,-724.573
 L -14.7189,-724.527 L -14.9058,-724.503 z
M 18.4369,-634.589 L 19.0451,-634.745 L 19.6289,-634.976 L 20.1791,-635.278 L 20.6871,-635.647 L 21.1448,-636.077
 L 21.5451,-636.561 L 21.8815,-637.091 L 22.1489,-637.659 L 22.3429,-638.257 L 22.4606,-638.873 L 22.5,-639.5
 L 22.5,-704.5 L 22.4606,-705.127 L 22.3429,-705.743 L 22.1489,-706.341 L 21.8815,-706.909 L 21.5451,-707.439
 L 21.1448,-707.923 L 20.6871,-708.353 L 20.1791,-708.722 L 19.6289,-709.024 L 19.0451,-709.255 L 18.4369,-709.411
 L 17.8139,-709.49 L -17.8139,-709.49 L -18.4369,-709.411 L -19.0451,-709.255 L -19.6289,-709.024 L -20.1791,-708.722
 L -20.6871,-708.353 L -21.1448,-707.923 L -21.5451,-707.439 L -21.8815,-706.909 L -22.1489,-706.341 L -22.3429,-705.743
 L -22.4606,-705.127 L -22.5,-704.5 L -22.5,-639.5 L -22.4606,-638.873 L -22.3429,-638.257 L -22.1489,-637.659
 L -21.8815,-637.091 L -21.5451,-636.561 L -21.1448,-636.077 L -20.6871,-635.647 L -20.1791,-635.278 L -19.6289,-634.976
 L -19.0451,-634.745 L -18.4369,-634.589 L -17.8139,-634.51 L 17.8139,-634.51 z
M -12.311,-635.009 L -11.8209,-635.278 L -11.3129,-635.647 L -10.8551,-636.077 L -10.4549,-636.561 L -10.1185,-637.091
 L -9.8511,-637.659 L -9.65707,-638.257 L -9.53941,-638.873 L -9.5,-639.5 L -9.5,-642.5 L -9.53941,-643.127
 L -9.65707,-643.743 L -9.8511,-644.341 L -10.1185,-644.909 L -10.4549,-645.439 L -10.8551,-645.923 L -11.3129,-646.353
 L -11.8209,-646.722 L -12.3711,-647.024 L -12.9549,-647.255 L -13.5631,-647.411 L -14.186,-647.49 L -17.8139,-647.49
 L -18.4369,-647.411 L -19.0451,-647.255 L -19.6289,-647.024 L -20.1791,-646.722 L -20.6871,-646.353 L -21.1448,-645.923
 L -21.5451,-645.439 L -21.8815,-644.909 L -22,-644.657 L -22,-704.5 L -21.9645,-705.064 L -21.8586,-705.619
 L -21.684,-706.157 L -21.4434,-706.668 L -21.1406,-707.145 L -20.7803,-707.58 L -20.3684,-707.967 L -19.9112,-708.299
 L -19.416,-708.572 L -18.8906,-708.78 L -18.3432,-708.92 L -17.7825,-708.991 L 17.7825,-708.991 L 18.3432,-708.92
 L 18.8906,-708.78 L 19.416,-708.572 L 19.9112,-708.299 L 20.3684,-707.967 L 20.7803,-707.58 L 21.1406,-707.145
 L 21.4434,-706.668 L 21.684,-706.157 L 21.8586,-705.619 L 21.9645,-705.064 L 22,-704.5 L 22,-639.5
 L 21.9645,-638.936 L 21.8586,-638.381 L 21.684,-637.843 L 21.4434,-637.332 L 21.1406,-636.855 L 20.7803,-636.42
 L 20.3684,-636.033 L 19.9112,-635.701 L 19.416,-635.428 L 18.8906,-635.22 L 18.3432,-635.08 L 17.7825,-635.009
 z
M 15.4684,-699.544 L 15.7725,-699.622 L 16.0644,-699.738 L 16.3396,-699.889 L 16.5936,-700.074 L 16.8224,-700.289
 L 17.0225,-700.531 L 17.1908,-700.796 L 17.3244,-701.08 L 17.4214,-701.378 L 17.4803,-701.687 L 17.5,-702
 L 17.4803,-702.313 L 17.4214,-702.622 L 17.3244,-702.92 L 17.1908,-703.204 L 17.0225,-703.469 L 16.8224,-703.711
 L 16.5936,-703.926 L 16.3396,-704.111 L 16.0644,-704.262 L 15.7725,-704.378 L 15.4684,-704.456 L 15.157,-704.495
 L 14.843,-704.495 L 14.5315,-704.456 L 14.2274,-704.378 L 13.9355,-704.262 L 13.6604,-704.111 L 13.4064,-703.926
 L 13.1776,-703.711 L 12.9774,-703.469 L 12.8092,-703.204 L 12.6756,-702.92 L 12.5785,-702.622 L 12.5197,-702.313
 L 12.5,-702 L 12.5197,-701.687 L 12.5785,-701.378 L 12.6756,-701.08 L 12.8092,-700.796 L 12.9774,-700.531
 L 13.1776,-700.289 L 13.4064,-700.074 L 13.6604,-699.889 L 13.9355,-699.738 L 14.2274,-699.622 L 14.5315,-699.544
 L 14.843,-699.505 L 15.157,-699.505 z
M 14.9058,-700.503 L 14.7189,-700.527 L 14.5365,-700.573 L 14.3613,-700.643 L 14.1963,-700.734 L 14.0439,-700.844
 L 13.9065,-700.973 L 13.7865,-701.118 L 13.6855,-701.277 L 13.6053,-701.448 L 13.5471,-701.627 L 13.5118,-701.812
 L 13.5,-702 L 13.5118,-702.188 L 13.5471,-702.373 L 13.6053,-702.552 L 13.6855,-702.723 L 13.7865,-702.882
 L 13.9065,-703.027 L 14.0439,-703.156 L 14.1963,-703.266 L 14.3613,-703.357 L 14.5365,-703.427 L 14.7189,-703.473
 L 14.9058,-703.497 L 15.0942,-703.497 L 15.2811,-703.473 L 15.4635,-703.427 L 15.6387,-703.357 L 15.8037,-703.266
 L 15.9561,-703.156 L 16.0934,-703.027 L 16.2135,-702.882 L 16.3145,-702.723 L 16.3947,-702.552 L 16.4529,-702.373
 L 16.4882,-702.188 L 16.5,-702 L 16.4882,-701.812 L 16.4529,-701.627 L 16.3947,-701.448 L 16.3145,-701.277
 L 16.2135,-701.118 L 16.0934,-700.973 L 15.9561,-700.844 L 15.8037,-700.734 L 15.6387,-700.643 L 15.4635,-700.573
 L 15.2811,-700.527 L 15.0942,-700.503 z
M -15.0942,-640.503 L -15.2811,-640.527 L -15.4635,-640.573 L -15.6387,-640.643 L -15.8037,-640.734 L -15.9561,-640.844
 L -16.0934,-640.973 L -16.2135,-641.118 L -16.3145,-641.277 L -16.3947,-641.448 L -16.4529,-641.627 L -16.4882,-641.812
 L -16.5,-642 L -16.4882,-642.188 L -16.4529,-642.373 L -16.3947,-642.552 L -16.3145,-642.723 L -16.2135,-642.882
 L -16.0934,-643.027 L -15.9561,-643.156 L -15.8037,-643.266 L -15.6387,-643.357 L -15.4635,-643.427 L -15.2811,-643.473
 L -15.0942,-643.497 L -14.9058,-643.497 L -14.7189,-643.473 L -14.5365,-643.427 L -14.3613,-643.357 L -14.1963,-643.266
 L -14.0439,-643.156 L -13.9065,-643.027 L -13.7865,-642.882 L -13.6855,-642.723 L -13.6053,-642.552 L -13.5471,-642.373
 L -13.5118,-642.188 L -13.5,-642 L -13.5118,-641.812 L -13.5471,-641.627 L -13.6053,-641.448 L -13.6855,-641.277
 L -13.7865,-641.118 L -13.9065,-640.973 L -14.0439,-640.844 L -14.1963,-640.734 L -14.3613,-640.643 L -14.5365,-640.573
 L -14.7189,-640.527 L -14.9058,-640.503 z
M 18.4369,-550.589 L 19.0451,-550.745 L 19.6289,-550.976 L 20.1791,-551.278 L 20.6871,-551.647 L 21.1448,-552.077
 L 21.5451,-552.561 L 21.8815,-553.091 L 22.1489,-553.659 L 22.3429,-554.257 L 22.4606,-554.873 L 22.5,-555.5
 L 22.5,-620.5 L 22.4606,-621.127 L 22.3429,-621.743 L 22.1489,-622.341 L 21.8815,-622.909 L 21.5451,-623.439
 L 21.1448,-623.923 L 20.6871,-624.353 L 20.1791,-624.722 L 19.6289,-625.024 L 19.0451,-625.255 L 18.4369,-625.411
 L 17.8139,-625.49 L -17.8139,-625.49 L -18.4369,-625.411 L -19.0451,-625.255 L -19.6289,-625.024 L -20.1791,-624.722
 L -20.6871,-624.353 L -21.1448,-623.923 L -21.5451,-623.439 L -21.8815,-622.909 L -22.1489,-622.341 L -22.3429,-621.743
 L -22.4606,-621.127 L -22.5,-620.5 L -22.5,-555.5 L -22.4606,-554.873 L -22.3429,-554.257 L -22.1489,-553.659
 L -21.8815,-553.091 L -21.5451,-552.561 L -21.1448,-552.077 L -20.6871,-551.647 L -20.1791,-551.278 L -19.6289,-550.976
 L -19.0451,-550.745 L -18.4369,-550.589 L -17.8139,-550.51 L 17.8139,-550.51 z
M -12.311,-551.009 L -11.8209,-551.278 L -11.3129,-551.647 L -10.8551,-552.077 L -10.4549,-552.561 L -10.1185,-553.091
 L -9.8511,-553.659 L -9.65707,-554.257 L -9.53941,-554.873 L -9.5,-555.5 L -9.5,-558.5 L -9.53941,-559.127
 L -9.65707,-559.743 L -9.8511,-560.341 L -10.1185,-560.909 L -10.4549,-561.439 L -10.8551,-561.923 L -11.3129,-562.353
 L -11.8209,-562.722 L -12.3711,-563.024 L -12.9549,-563.255 L -13.5631,-563.411 L -14.186,-563.49 L -17.8139,-563.49
 L -18.4369,-563.411 L -19.0451,-563.255 L -19.6289,-563.024 L -20.1791,-562.722 L -20.6871,-562.353 L -21.1448,-561.923
 L -21.5451,-561.439 L -21.8815,-560.909 L -22,-560.657 L -22,-620.5 L -21.9645,-621.064 L -21.8586,-621.619
 L -21.684,-622.157 L -21.4434,-622.668 L -21.1406,-623.145 L -20.7803,-623.58 L -20.3684,-623.967 L -19.9112,-624.299
 L -19.416,-624.572 L -18.8906,-624.78 L -18.3432,-624.92 L -17.7825,-624.991 L 17.7825,-624.991 L 18.3432,-624.92
 L 18.8906,-624.78 L 19.416,-624.572 L 19.9112,-624.299 L 20.3684,-623.967 L 20.7803,-623.58 L 21.1406,-623.145
 L 21.4434,-622.668 L 21.684,-622.157 L 21.8586,-621.619 L 21.9645,-621.064 L 22,-620.5 L 22,-555.5
 L 21.9645,-554.936 L 21.8586,-554.381 L 21.684,-553.843 L 21.4434,-553.332 L 21.1406,-552.855 L 20.7803,-552.42
 L 20.3684,-552.033 L 19.9112,-551.701 L 19.416,-551.428 L 18.8906,-551.22 L 18.3432,-551.08 L 17.7825,-551.009
 z
M 15.4684,-615.544 L 15.7725,-615.622 L 16.0644,-615.738 L 16.3396,-615.889 L 16.5936,-616.074 L 16.8224,-616.289
 L 17.0225,-616.531 L 17.1908,-616.796 L 17.3244,-617.08 L 17.4214,-617.378 L 17.4803,-617.687 L 17.5,-618
 L 17.4803,-618.313 L 17.4214,-618.622 L 17.3244,-618.92 L 17.1908,-619.204 L 17.0225,-619.469 L 16.8224,-619.711
 L 16.5936,-619.926 L 16.3396,-620.111 L 16.0644,-620.262 L 15.7725,-620.378 L 15.4684,-620.456 L 15.157,-620.495
 L 14.843,-620.495 L 14.5315,-620.456 L 14.2274,-620.378 L 13.9355,-620.262 L 13.6604,-620.111 L 13.4064,-619.926
 L 13.1776,-619.711 L 12.9774,-619.469 L 12.8092,-619.204 L 12.6756,-618.92 L 12.5785,-618.622 L 12.5197,-618.313
 L 12.5,-618 L 12.5197,-617.687 L 12.5785,-617.378 L 12.6756,-617.08 L 12.8092,-616.796 L 12.9774,-616.531
 L 13.1776,-616.289 L 13.4064,-616.074 L 13.6604,-615.889 L 13.9355,-615.738 L 14.2274,-615.622 L 14.5315,-615.544
 L 14.843,-615.505 L 15.157,-615.505 z
M 14.9058,-616.503 L 14.7189,-616.527 L 14.5365,-616.573 L 14.3613,-616.643 L 14.1963,-616.734 L 14.0439,-616.844
 L 13.9065,-616.973 L 13.7865,-617.118 L 13.6855,-617.277 L 13.6053,-617.448 L 13.5471,-617.627 L 13.5118,-617.812
 L 13.5,-618 L 13.5118,-618.188 L 13.5471,-618.373 L 13.6053,-618.552 L 13.6855,-618.723 L 13.7865,-618.882
 L 13.9065,-619.027 L 14.0439,-619.156 L 14.1963,-619.266 L 14.3613,-619.357 L 14.5365,-619.427 L 14.7189,-619.473
 L 14.9058,-619.497 L 15.0942,-619.497 L 15.2811,-619.473 L 15.4635,-619.427 L 15.6387,-619.357 L 15.8037,-619.266
 L 15.9561,-619.156 L 16.0934,-619.027 L 16.2135,-618.882 L 16.3145,-618.723 L 16.3947,-618.552 L 16.4529,-618.373
 L 16.4882,-618.188 L 16.5,-618 L 16.4882,-617.812 L 16.4529,-617.627 L 16.3947,-617.448 L 16.3145,-617.277
 L 16.2135,-617.118 L 16.0934,-616.973 L 15.9561,-616.844 L 15.8037,-616.734 L 15.6387,-616.643 L 15.4635,-616.573
 L 15.2811,-616.527 L 15.0942,-616.503 z
M -15.0942,-556.503 L -15.2811,-556.527 L -15.4635,-556.573 L -15.6387,-556.643 L -15.8037,-556.734 L -15.9561,-556.844
 L -16.0934,-556.973 L -16.2135,-557.118 L -16.3145,-557.277 L -16.3947,-557.448 L -16.4529,-557.627 L -16.4882,-557.812
 L -16.5,-558 L -16.4882,-558.188 L -16.4529,-558.373 L -16.3947,-558.552 L -16.3145,-558.723 L -16.2135,-558.882
 L -16.0934,-559.027 L -15.9561,-559.156 L -15.8037,-559.266 L -15.6387,-559.357 L -15.4635,-559.427 L -15.2811,-559.473
 L -15.0942,-559.497 L -14.9058,-559.497 L -14.7189,-559.473 L -14.5365,-559.427 L -14.3613,-559.357 L -14.1963,-559.266
 L -14.0439,-559.156 L -13.9065,-559.027 L -13.7865,-558.882 L -13.6855,-558.723 L -13.6053,-558.552 L -13.5471,-558.373
 L -13.5118,-558.188 L -13.5,-558 L -13.5118,-557.812 L -13.5471,-557.627 L -13.6053,-557.448 L -13.6855,-557.277
 L -13.7865,-557.118 L -13.9065,-556.973 L -14.0439,-556.844 L -14.1963,-556.734 L -14.3613,-556.643 L -14.5365,-556.573
 L -14.7189,-556.527 L -14.9058,-556.503 z
M 18.4369,-466.589 L 19.0451,-466.745 L 19.6289,-466.976 L 20.1791,-467.278 L 20.6871,-467.647 L 21.1448,-468.077
 L 21.5451,-468.561 L 21.8815,-469.091 L 22.1489,-469.659 L 22.3429,-470.257 L 22.4606,-470.873 L 22.5,-471.5
 L 22.5,-536.5 L 22.4606,-537.127 L 22.3429,-537.743 L 22.1489,-538.341 L 21.8815,-538.909 L 21.5451,-539.439
 L 21.1448,-539.923 L 20.6871,-540.353 L 20.1791,-540.722 L 19.6289,-541.024 L 19.0451,-541.255 L 18.4369,-541.411
 L 17.8139,-541.49 L -17.8139,-541.49 L -18.4369,-541.411 L -19.0451,-541.255 L -19.6289,-541.024 L -20.1791,-540.722
 L -20.6871,-540.353 L -21.1448,-539.923 L -21.5451,-539.439 L -21.8815,-538.909 L -22.1489,-538.341 L -22.3429,-537.743
 L -22.4606,-537.127 L -22.5,-536.5 L -22.5,-471.5 L -22.4606,-470.873 L -22.3429,-470.257 L -22.1489,-469.659
 L -21.8815,-469.091 L -21.5451,-468.561 L -21.1448,-468.077 L -20.6871,-467.647 L -20.1791,-467.278 L -19.6289,-466.976
 L -19.0451,-466.745 L -18.4369,-466.589 L -17.8139,-466.51 L 17.8139,-466.51 z
M -12.2539,-467.04 L -11.8209,-467.278 L -11.3129,-467.647 L -10.8551,-468.077 L -10.4549,-468.561 L -10.1185,-469.091
 L -9.8511,-469.659 L -9.65707,-470.257 L -9.53941,-470.873 L -9.5,-471.5 L -9.5,-474.5 L -9.53941,-475.127
 L -9.65707,-475.743 L -9.8511,-476.341 L -10.1185,-476.909 L -10.4549,-477.439 L -10.8551,-477.923 L -11.3129,-478.353
 L -11.8209,-478.722 L -12.3711,-479.024 L -12.9549,-479.255 L -13.5631,-479.411 L -14.186,-479.49 L -17.8139,-479.49
 L -18.4369,-479.411 L -19.0451,-479.255 L -19.6289,-479.024 L -20.1791,-478.722 L -20.6871,-478.353 L -21.1448,-477.923
 L -21.5451,-477.439 L -21.8815,-476.909 L -21.9685,-476.724 L -21.9685,-536.5 L -21.9333,-537.06 L -21.8282,-537.611
 L -21.6547,-538.145 L -21.4158,-538.653 L -21.1151,-539.127 L -20.7574,-539.559 L -20.3483,-539.943 L -19.8944,-540.273
 L -19.4026,-540.543 L -18.8808,-540.75 L -18.3373,-540.889 L -17.7806,-540.96 L 17.7806,-540.96 L 18.3373,-540.889
 L 18.8808,-540.75 L 19.4026,-540.543 L 19.8944,-540.273 L 20.3483,-539.943 L 20.7574,-539.559 L 21.1151,-539.127
 L 21.4158,-538.653 L 21.6547,-538.145 L 21.8282,-537.611 L 21.9333,-537.06 L 21.9685,-536.5 L 21.9685,-471.5
 L 21.9333,-470.94 L 21.8282,-470.389 L 21.6547,-469.855 L 21.4158,-469.347 L 21.1151,-468.873 L 20.7574,-468.441
 L 20.3483,-468.057 L 19.8944,-467.727 L 19.4026,-467.457 L 18.8808,-467.25 L 18.3373,-467.111 L 17.7806,-467.04
 z
M 15.4684,-531.544 L 15.7725,-531.622 L 16.0644,-531.738 L 16.3396,-531.889 L 16.5936,-532.074 L 16.8224,-532.289
 L 17.0225,-532.531 L 17.1908,-532.796 L 17.3244,-533.08 L 17.4214,-533.378 L 17.4803,-533.687 L 17.5,-534
 L 17.4803,-534.313 L 17.4214,-534.622 L 17.3244,-534.92 L 17.1908,-535.204 L 17.0225,-535.469 L 16.8224,-535.711
 L 16.5936,-535.926 L 16.3396,-536.111 L 16.0644,-536.262 L 15.7725,-536.378 L 15.4684,-536.456 L 15.157,-536.495
 L 14.843,-536.495 L 14.5315,-536.456 L 14.2274,-536.378 L 13.9355,-536.262 L 13.6604,-536.111 L 13.4064,-535.926
 L 13.1776,-535.711 L 12.9774,-535.469 L 12.8092,-535.204 L 12.6756,-534.92 L 12.5785,-534.622 L 12.5197,-534.313
 L 12.5,-534 L 12.5197,-533.687 L 12.5785,-533.378 L 12.6756,-533.08 L 12.8092,-532.796 L 12.9774,-532.531
 L 13.1776,-532.289 L 13.4064,-532.074 L 13.6604,-531.889 L 13.9355,-531.738 L 14.2274,-531.622 L 14.5315,-531.544
 L 14.843,-531.505 L 15.157,-531.505 z
M 14.9058,-532.503 L 14.7189,-532.527 L 14.5365,-532.573 L 14.3613,-532.643 L 14.1963,-532.734 L 14.0439,-532.844
 L 13.9065,-532.973 L 13.7865,-533.118 L 13.6855,-533.277 L 13.6053,-533.448 L 13.5471,-533.627 L 13.5118,-533.812
 L 13.5,-534 L 13.5118,-534.188 L 13.5471,-534.373 L 13.6053,-534.552 L 13.6855,-534.723 L 13.7865,-534.882
 L 13.9065,-535.027 L 14.0439,-535.156 L 14.1963,-535.266 L 14.3613,-535.357 L 14.5365,-535.427 L 14.7189,-535.473
 L 14.9058,-535.497 L 15.0942,-535.497 L 15.2811,-535.473 L 15.4635,-535.427 L 15.6387,-535.357 L 15.8037,-535.266
 L 15.9561,-535.156 L 16.0934,-535.027 L 16.2135,-534.882 L 16.3145,-534.723 L 16.3947,-534.552 L 16.4529,-534.373
 L 16.4882,-534.188 L 16.5,-534 L 16.4882,-533.812 L 16.4529,-533.627 L 16.3947,-533.448 L 16.3145,-533.277
 L 16.2135,-533.118 L 16.0934,-532.973 L 15.9561,-532.844 L 15.8037,-532.734 L 15.6387,-532.643 L 15.4635,-532.573
 L 15.2811,-532.527 L 15.0942,-532.503 z
M -15.0942,-472.503 L -15.2811,-472.527 L -15.4635,-472.573 L -15.6387,-472.643 L -15.8037,-472.734 L -15.9561,-472.844
 L -16.0934,-472.973 L -16.2135,-473.118 L -16.3145,-473.277 L -16.3947,-473.448 L -16.4529,-473.627 L -16.4882,-473.812
 L -16.5,-474 L -16.4882,-474.188 L -16.4529,-474.373 L -16.3947,-474.552 L -16.3145,-474.723 L -16.2135,-474.882
 L -16.0934,-475.027 L -15.9561,-475.156 L -15.8037,-475.266 L -15.6387,-475.357 L -15.4635,-475.427 L -15.2811,-475.473
 L -15.0942,-475.497 L -14.9058,-475.497 L -14.7189,-475.473 L -14.5365,-475.427 L -14.3613,-475.357 L -14.1963,-475.266
 L -14.0439,-475.156 L -13.9065,-475.027 L -13.7865,-474.882 L -13.6855,-474.723 L -13.6053,-474.552 L -13.5471,-474.373
 L -13.5118,-474.188 L -13.5,-474 L -13.5118,-473.812 L -13.5471,-473.627 L -13.6053,-473.448 L -13.6855,-473.277
 L -13.7865,-473.118 L -13.9065,-472.973 L -14.0439,-472.844 L -14.1963,-472.734 L -14.3613,-472.643 L -14.5365,-472.573
 L -14.7189,-472.527 L -14.9058,-472.503 z
M 18.4369,-382.589 L 19.0451,-382.745 L 19.6289,-382.976 L 20.1791,-383.278 L 20.6871,-383.647 L 21.1448,-384.077
 L 21.5451,-384.561 L 21.8815,-385.091 L 22.1489,-385.659 L 22.3429,-386.257 L 22.4606,-386.873 L 22.5,-387.5
 L 22.5,-452.5 L 22.4606,-453.127 L 22.3429,-453.743 L 22.1489,-454.341 L 21.8815,-454.909 L 21.5451,-455.439
 L 21.1448,-455.923 L 20.6871,-456.353 L 20.1791,-456.722 L 19.6289,-457.024 L 19.0451,-457.255 L 18.4369,-457.411
 L 17.8139,-457.49 L -17.8139,-457.49 L -18.4369,-457.411 L -19.0451,-457.255 L -19.6289,-457.024 L -20.1791,-456.722
 L -20.6871,-456.353 L -21.1448,-455.923 L -21.5451,-455.439 L -21.8815,-454.909 L -22.1489,-454.341 L -22.3429,-453.743
 L -22.4606,-453.127 L -22.5,-452.5 L -22.5,-387.5 L -22.4606,-386.873 L -22.3429,-386.257 L -22.1489,-385.659
 L -21.8815,-385.091 L -21.5451,-384.561 L -21.1448,-384.077 L -20.6871,-383.647 L -20.1791,-383.278 L -19.6289,-382.976
 L -19.0451,-382.745 L -18.4369,-382.589 L -17.8139,-382.51 L 17.8139,-382.51 z
M -10.3781,-384.682 L -10.1185,-385.091 L -9.8511,-385.659 L -9.65707,-386.257 L -9.53941,-386.873 L -9.5,-387.5
 L -9.5,-390.5 L -9.53941,-391.127 L -9.65707,-391.743 L -9.8511,-392.341 L -10.1185,-392.909 L -10.4549,-393.439
 L -10.8551,-393.923 L -11.3129,-394.353 L -11.8209,-394.722 L -12.3711,-395.024 L -12.9549,-395.255 L -13.5631,-395.411
 L -14.186,-395.49 L -17.8139,-395.49 L -18.4369,-395.411 L -19.0451,-395.255 L -19.6289,-395.024 L -20.1791,-394.722
 L -20.3234,-394.617 L -20.3234,-452.5 L -20.3011,-452.854 L -20.2347,-453.202 L -20.1251,-453.539 L -19.9742,-453.86
 L -19.7842,-454.16 L -19.5582,-454.433 L -19.2997,-454.675 L -19.0128,-454.884 L -18.7021,-455.055 L -18.3725,-455.185
 L -18.0291,-455.273 L -17.6773,-455.318 L 10.3781,-455.318 L 10.1185,-454.909 L 9.8511,-454.341 L 9.65707,-453.743
 L 9.53941,-453.127 L 9.5,-452.5 L 9.5,-449.5 L 9.53941,-448.873 L 9.65707,-448.257 L 9.8511,-447.659
 L 10.1185,-447.091 L 10.4549,-446.561 L 10.8551,-446.077 L 11.3129,-445.647 L 11.8209,-445.278 L 12.3711,-444.976
 L 12.9549,-444.745 L 13.5631,-444.589 L 14.186,-444.51 L 17.8139,-444.51 L 18.4369,-444.589 L 19.0451,-444.745
 L 19.6289,-444.976 L 20.1791,-445.278 L 20.3234,-445.383 L 20.3234,-387.5 L 20.3011,-387.146 L 20.2347,-386.798
 L 20.1251,-386.461 L 19.9742,-386.14 L 19.7842,-385.84 L 19.5582,-385.567 L 19.2997,-385.325 L 19.0128,-385.116
 L 18.7021,-384.945 L 18.3725,-384.815 L 18.0291,-384.727 L 17.6773,-384.682 z
M 14.8493,-447.605 L 14.5503,-447.643 L 14.2583,-447.717 L 13.9781,-447.828 L 13.714,-447.974 L 13.4702,-448.151
 L 13.2505,-448.357 L 13.0583,-448.589 L 12.8969,-448.844 L 12.7685,-449.117 L 12.6754,-449.403 L 12.6189,-449.699
 L 12.6,-450 L 12.6189,-450.301 L 12.6754,-450.597 L 12.7685,-450.883 L 12.8969,-451.156 L 13.0583,-451.411
 L 13.2505,-451.643 L 13.4702,-451.849 L 13.714,-452.026 L 13.9781,-452.172 L 14.2583,-452.283 L 14.5503,-452.357
 L 14.8493,-452.395 L 15.1507,-452.395 L 15.4497,-452.357 L 15.7416,-452.283 L 16.0219,-452.172 L 16.286,-452.026
 L 16.5298,-451.849 L 16.7495,-451.643 L 16.9416,-451.411 L 17.1031,-451.156 L 17.2315,-450.883 L 17.3246,-450.597
 L 17.3811,-450.301 L 17.4,-450 L 17.3811,-449.699 L 17.3246,-449.403 L 17.2315,-449.117 L 17.1031,-448.844
 L 16.9416,-448.589 L 16.7495,-448.357 L 16.5298,-448.151 L 16.286,-447.974 L 16.0219,-447.828 L 15.7416,-447.717
 L 15.4497,-447.643 L 15.1507,-447.605 z
M -15.1507,-387.605 L -15.4497,-387.643 L -15.7416,-387.717 L -16.0219,-387.828 L -16.286,-387.974 L -16.5298,-388.151
 L -16.7495,-388.357 L -16.9416,-388.589 L -17.1031,-388.844 L -17.2315,-389.117 L -17.3246,-389.403 L -17.3811,-389.699
 L -17.4,-390 L -17.3811,-390.301 L -17.3246,-390.597 L -17.2315,-390.883 L -17.1031,-391.156 L -16.9416,-391.411
 L -16.7495,-391.643 L -16.5298,-391.849 L -16.286,-392.026 L -16.0219,-392.172 L -15.7416,-392.283 L -15.4497,-392.357
 L -15.1507,-392.395 L -14.8493,-392.395 L -14.5503,-392.357 L -14.2583,-392.283 L -13.9781,-392.172 L -13.714,-392.026
 L -13.4702,-391.849 L -13.2505,-391.643 L -13.0583,-391.411 L -12.8969,-391.156 L -12.7685,-390.883 L -12.6754,-390.597
 L -12.6189,-390.301 L -12.6,-390 L -12.6189,-389.699 L -12.6754,-389.403 L -12.7685,-389.117 L -12.8969,-388.844
 L -13.0583,-388.589 L -13.2505,-388.357 L -13.4702,-388.151 L -13.714,-387.974 L -13.9781,-387.828 L -14.2583,-387.717
 L -14.5503,-387.643 L -14.8493,-387.605 z
" stroke="black" fill="lightgray" stroke-width="0.5"/>
</svg>
