<?xml version="1.0" standalone="no"?>
<!DOCTYPE svg PUBLIC "-//W3C//DTD SVG 1.1//EN" "http://www.w3.org/Graphics/SVG/1.1/DTD/svg11.dtd">
<svg width="40mm" height="153mm" viewBox="-21 -293 40 153" xmlns="http://www.w3.org/2000/svg" version="1.1">
<title>OpenSCAD Model</title>
<path d="
M -17.25,-250.007 L -16.8948,-249.577 L -16.4371,-249.147 L -15.9291,-248.778 L -15.3789,-248.476 L -14.7951,-248.245
 L -14.1869,-248.089 L -13.5639,-248.01 L 13.5639,-248.01 L 14.1869,-248.089 L 14.7951,-248.245 L 15.3789,-248.476
 L 15.9291,-248.778 L 16.4371,-249.147 L 16.8948,-249.577 L 17.2951,-250.061 L 17.6315,-250.591 L 17.8989,-251.159
 L 18.0929,-251.757 L 18.2106,-252.373 L 18.25,-253 L 18.25,-287 L 18.2106,-287.627 L 18.0929,-288.243
 L 17.8989,-288.841 L 17.6315,-289.409 L 17.2951,-289.939 L 16.8948,-290.423 L 16.4371,-290.853 L 15.9291,-291.222
 L 15.3789,-291.524 L 14.7951,-291.755 L 14.1869,-291.911 L 13.5639,-291.99 L -13.5639,-291.99 L -14.1869,-291.911
 L -14.7951,-291.755 L -15.3789,-291.524 L -15.9291,-291.222 L -16.4371,-290.853 L -16.8948,-290.423 L -17.25,-289.993
 L -17.25,-292.49 L -20.25,-292.49 L -20.25,-247.51 L -17.25,-247.51 z
M -13.5012,-249.008 L -13.9995,-249.071 L -14.4861,-249.196 L -14.9531,-249.381 L -15.3933,-249.623 L -15.7997,-249.918
 L -16.1659,-250.262 L -16.4861,-250.649 L -16.7552,-251.073 L -16.9691,-251.528 L -17.1243,-252.005 L -17.2184,-252.499
 L -17.25,-253 L -17.25,-287 L -17.2184,-287.501 L -17.1243,-287.995 L -16.9691,-288.472 L -16.7552,-288.927
 L -16.4861,-289.351 L -16.1659,-289.738 L -15.7997,-290.082 L -15.3933,-290.377 L -14.9531,-290.619 L -14.4861,-290.804
 L -13.9995,-290.929 L -13.5012,-290.992 L 13.5012,-290.992 L 13.9995,-290.929 L 14.4861,-290.804 L 14.9531,-290.619
 L 15.3933,-290.377 L 15.7997,-290.082 L 16.1659,-289.738 L 16.4861,-289.351 L 16.7552,-288.927 L 16.9691,-288.472
 L 17.1243,-287.995 L 17.2184,-287.501 L 17.25,-287 L 17.25,-253 L 17.2184,-252.499 L 17.1243,-252.005
 L 16.9691,-251.528 L 16.7552,-251.073 L 16.4861,-250.649 L 16.1659,-250.262 L 15.7997,-249.918 L 15.3933,-249.623
 L 14.9531,-249.381 L 14.4861,-249.196 L 13.9995,-249.071 L 13.5012,-249.008 z
M -17.25,-196.007 L -16.8948,-195.577 L -16.4371,-195.147 L -15.9291,-194.778 L -15.3789,-194.476 L -14.7951,-194.245
 L -14.1869,-194.089 L -13.5639,-194.01 L 13.5639,-194.01 L 14.1869,-194.089 L 14.7951,-194.245 L 15.3789,-194.476
 L 15.9291,-194.778 L 16.4371,-195.147 L 16.8948,-195.577 L 17.2951,-196.061 L 17.6315,-196.591 L 17.8989,-197.159
 L 18.0929,-197.757 L 18.2106,-198.373 L 18.25,-199 L 18.25,-233 L 18.2106,-233.627 L 18.0929,-234.243
 L 17.8989,-234.841 L 17.6315,-235.409 L 17.2951,-235.939 L 16.8948,-236.423 L 16.4371,-236.853 L 15.9291,-237.222
 L 15.3789,-237.524 L 14.7951,-237.755 L 14.1869,-237.911 L 13.5639,-237.99 L -13.5639,-237.99 L -14.1869,-237.911
 L -14.7951,-237.755 L -15.3789,-237.524 L -15.9291,-237.222 L -16.4371,-236.853 L -16.8948,-236.423 L -17.25,-235.993
 L -17.25,-238.479 L -20.25,-238.479 L -20.25,-193.521 L -17.25,-193.521 z
M -13.4454,-195.893 L -13.8333,-195.942 L -14.2119,-196.039 L -14.5754,-196.183 L -14.918,-196.372 L -15.2342,-196.601
 L -15.5192,-196.869 L -15.7684,-197.17 L -15.9779,-197.5 L -16.1443,-197.854 L -16.2651,-198.226 L -16.3384,-198.61
 L -16.3629,-199 L -16.3629,-233 L -16.3384,-233.39 L -16.2651,-233.774 L -16.1443,-234.146 L -15.9779,-234.5
 L -15.7684,-234.83 L -15.5192,-235.131 L -15.2342,-235.399 L -14.918,-235.628 L -14.5754,-235.817 L -14.2119,-235.961
 L -13.8333,-236.058 L -13.4454,-236.107 L 13.4454,-236.107 L 13.8333,-236.058 L 14.2119,-235.961 L 14.5754,-235.817
 L 14.918,-235.628 L 15.2342,-235.399 L 15.5192,-235.131 L 15.7684,-234.83 L 15.9779,-234.5 L 16.1443,-234.146
 L 16.2651,-233.774 L 16.3384,-233.39 L 16.3629,-233 L 16.3629,-199 L 16.3384,-198.61 L 16.2651,-198.226
 L 16.1443,-197.854 L 15.9779,-197.5 L 15.7684,-197.17 L 15.5192,-196.869 L 15.2342,-196.601 L 14.918,-196.372
 L 14.5754,-196.183 L 14.2119,-196.039 L 13.8333,-195.942 L 13.4454,-195.893 z
M 14.1869,-140.089 L 14.7951,-140.245 L 15.3789,-140.476 L 15.9291,-140.778 L 16.4371,-141.147 L 16.8948,-141.577
 L 17.2951,-142.061 L 17.6315,-142.591 L 17.8989,-143.159 L 18.0929,-143.757 L 18.2106,-144.373 L 18.25,-145
 L 18.25,-179 L 18.2106,-179.627 L 18.0929,-180.243 L 17.8989,-180.841 L 17.6315,-181.409 L 17.2951,-181.939
 L 16.8948,-182.423 L 16.4371,-182.853 L 15.9291,-183.222 L 15.3789,-183.524 L 14.7951,-183.755 L 14.1869,-183.911
 L 13.5639,-183.99 L -13.5639,-183.99 L -14.1869,-183.911 L -14.7951,-183.755 L -15.3789,-183.524 L -15.9291,-183.222
 L -16.4371,-182.853 L -16.8948,-182.423 L -17.25,-181.993 L -17.25,-183.153 L -20.25,-183.153 L -20.25,-140.847
 L -17.25,-140.847 L -17.25,-142.007 L -16.8948,-141.577 L -16.4371,-141.147 L -15.9291,-140.778 L -15.3789,-140.476
 L -14.7951,-140.245 L -14.1869,-140.089 L -13.5639,-140.01 L 13.5639,-140.01 z
M 11.0993,-174.605 L 10.8003,-174.643 L 10.5083,-174.717 L 10.2281,-174.828 L 9.964,-174.974 L 9.72017,-175.151
 L 9.50047,-175.357 L 9.30835,-175.589 L 9.14685,-175.844 L 9.01852,-176.117 L 8.9254,-176.403 L 8.86891,-176.699
 L 8.84999,-177 L 8.86891,-177.301 L 8.9254,-177.597 L 9.01852,-177.883 L 9.14685,-178.156 L 9.30835,-178.411
 L 9.50047,-178.643 L 9.72017,-178.849 L 9.964,-179.026 L 10.2281,-179.172 L 10.5083,-179.283 L 10.8003,-179.357
 L 11.0993,-179.395 L 11.4007,-179.395 L 11.6997,-179.357 L 11.9916,-179.283 L 12.2719,-179.172 L 12.536,-179.026
 L 12.7798,-178.849 L 12.9995,-178.643 L 13.1916,-178.411 L 13.3531,-178.156 L 13.4815,-177.883 L 13.5746,-177.597
 L 13.6311,-177.301 L 13.65,-177 L 13.6311,-176.699 L 13.5746,-176.403 L 13.4815,-176.117 L 13.3531,-175.844
 L 13.1916,-175.589 L 12.9995,-175.357 L 12.7798,-175.151 L 12.536,-174.974 L 12.2719,-174.828 L 11.9916,-174.717
 L 11.6997,-174.643 L 11.4007,-174.605 z
M -11.4007,-174.605 L -11.6997,-174.643 L -11.9916,-174.717 L -12.2719,-174.828 L -12.536,-174.974 L -12.7798,-175.151
 L -12.9995,-175.357 L -13.1916,-175.589 L -13.3531,-175.844 L -13.4815,-176.117 L -13.5746,-176.403 L -13.6311,-176.699
 L -13.65,-177 L -13.6311,-177.301 L -13.5746,-177.597 L -13.4815,-177.883 L -13.3531,-178.156 L -13.1916,-178.411
 L -12.9995,-178.643 L -12.7798,-178.849 L -12.536,-179.026 L -12.2719,-179.172 L -11.9916,-179.283 L -11.6997,-179.357
 L -11.4007,-179.395 L -11.0993,-179.395 L -10.8003,-179.357 L -10.5083,-179.283 L -10.2281,-179.172 L -9.964,-179.026
 L -9.72017,-178.849 L -9.50047,-178.643 L -9.30835,-178.411 L -9.14685,-178.156 L -9.01852,-177.883 L -8.9254,-177.597
 L -8.86891,-177.301 L -8.84999,-177 L -8.86891,-176.699 L -8.9254,-176.403 L -9.01852,-176.117 L -9.14685,-175.844
 L -9.30835,-175.589 L -9.50047,-175.357 L -9.72017,-175.151 L -9.964,-174.974 L -10.2281,-174.828 L -10.5083,-174.717
 L -10.8003,-174.643 L -11.0993,-174.605 z
M 11.0993,-144.605 L 10.8003,-144.643 L 10.5083,-144.717 L 10.2281,-144.828 L 9.964,-144.974 L 9.72017,-145.151
 L 9.50047,-145.357 L 9.30835,-145.589 L 9.14685,-145.844 L 9.01852,-146.117 L 8.9254,-146.403 L 8.86891,-146.699
 L 8.84999,-147 L 8.86891,-147.301 L 8.9254,-147.597 L 9.01852,-147.883 L 9.14685,-148.156 L 9.30835,-148.411
 L 9.50047,-148.643 L 9.72017,-148.849 L 9.964,-149.026 L 10.2281,-149.172 L 10.5083,-149.283 L 10.8003,-149.357
 L 11.0993,-149.395 L 11.4007,-149.395 L 11.6997,-149.357 L 11.9916,-149.283 L 12.2719,-149.172 L 12.536,-149.026
 L 12.7798,-148.849 L 12.9995,-148.643 L 13.1916,-148.411 L 13.3531,-148.156 L 13.4815,-147.883 L 13.5746,-147.597
 L 13.6311,-147.301 L 13.65,-147 L 13.6311,-146.699 L 13.5746,-146.403 L 13.4815,-146.117 L 13.3531,-145.844
 L 13.1916,-145.589 L 12.9995,-145.357 L 12.7798,-145.151 L 12.536,-144.974 L 12.2719,-144.828 L 11.9916,-144.717
 L 11.6997,-144.643 L 11.4007,-144.605 z
M -11.4007,-144.605 L -11.6997,-144.643 L -11.9916,-144.717 L -12.2719,-144.828 L -12.536,-144.974 L -12.7798,-145.151
 L -12.9995,-145.357 L -13.1916,-145.589 L -13.3531,-145.844 L -13.4815,-146.117 L -13.5746,-146.403 L -13.6311,-146.699
 L -13.65,-147 L -13.6311,-147.301 L -13.5746,-147.597 L -13.4815,-147.883 L -13.3531,-148.156 L -13.1916,-148.411
 L -12.9995,-148.643 L -12.7798,-148.849 L -12.536,-149.026 L -12.2719,-149.172 L -11.9916,-149.283 L -11.6997,-149.357
 L -11.4007,-149.395 L -11.0993,-149.395 L -10.8003,-149.357 L -10.5083,-149.283 L -10.2281,-149.172 L -9.964,-149.026
 L -9.72017,-148.849 L -9.50047,-148.643 L -9.30835,-148.411 L -9.14685,-148.156 L -9.01852,-147.883 L -8.9254,-147.597
 L -8.86891,-147.301 L -8.84999,-147 L -8.86891,-146.699 L -8.9254,-146.403 L -9.01852,-146.117 L -9.14685,-145.844
 L -9.30835,-145.589 L -9.50047,-145.357 L -9.72017,-145.151 L -9.964,-144.974 L -10.2281,-144.828 L -10.5083,-144.717
 L -10.8003,-144.643 L -11.0993,-144.605 z
" stroke="black" fill="lightgray" stroke-width="0.5"/>
</svg>
