<?xml version="1.0" standalone="no"?>
<!DOCTYPE svg PUBLIC "-//W3C//DTD SVG 1.1//EN" "http://www.w3.org/Graphics/SVG/1.1/DTD/svg11.dtd">
<svg width="14mm" height="38mm" viewBox="-7 -79 14 38" xmlns="http://www.w3.org/2000/svg" version="1.1">
<title>OpenSCAD Model</title>
<path d="
M 2.9369,-65.0886 L 3.54507,-65.2447 L 4.12889,-65.4759 L 4.67912,-65.7784 L 5.18712,-66.1474 L 5.64484,-66.5773
 L 6.04507,-67.0611 L 6.38153,-67.5912 L 6.64888,-68.1594 L 6.84291,-68.7566 L 6.96057,-69.3733 L 7,-70
 L 7,-74 L 6.96057,-74.6267 L 6.84291,-75.2434 L 6.64888,-75.8406 L 6.38153,-76.4088 L 6.04507,-76.9389
 L 5.64484,-77.4227 L 5.18712,-77.8526 L 4.67912,-78.2216 L 4.12889,-78.5241 L 3.54507,-78.7553 L 2.9369,-78.9114
 L 2.31395,-78.9901 L -2.31395,-78.9901 L -2.9369,-78.9114 L -3.54507,-78.7553 L -4.12889,-78.5241 L -4.67912,-78.2216
 L -5.18712,-77.8526 L -5.64484,-77.4227 L -6.04507,-76.9389 L -6.38153,-76.4088 L -6.64888,-75.8406 L -6.84291,-75.2434
 L -6.96057,-74.6267 L -7,-74 L -7,-70 L -6.96057,-69.3733 L -6.84291,-68.7566 L -6.64888,-68.1594
 L -6.38153,-67.5912 L -6.04507,-67.0611 L -5.64484,-66.5773 L -5.18712,-66.1474 L -4.67912,-65.7784 L -4.12889,-65.4759
 L -3.54507,-65.2447 L -2.9369,-65.0886 L -2.31395,-65.0099 L 2.31395,-65.0099 z
M -0.18837,-69.0059 L -0.562134,-69.0531 L -0.927048,-69.1468 L -1.27733,-69.2855 L -1.60747,-69.467 L -1.91226,-69.6885
 L -2.1869,-69.9464 L -2.42705,-70.2366 L -2.62891,-70.5547 L -2.78932,-70.8956 L -2.90575,-71.2539 L -2.97633,-71.624
 L -3,-72 L -2.97633,-72.376 L -2.90575,-72.7461 L -2.78932,-73.1044 L -2.62891,-73.4453 L -2.42705,-73.7634
 L -2.1869,-74.0536 L -1.91226,-74.3115 L -1.60747,-74.533 L -1.27733,-74.7145 L -0.927048,-74.8532 L -0.562134,-74.9469
 L -0.18837,-74.9941 L 0.18837,-74.9941 L 0.562134,-74.9469 L 0.927048,-74.8532 L 1.27733,-74.7145 L 1.60747,-74.533
 L 1.91226,-74.3115 L 2.1869,-74.0536 L 2.42705,-73.7634 L 2.62891,-73.4453 L 2.78932,-73.1044 L 2.90575,-72.7461
 L 2.97633,-72.376 L 3,-72 L 2.97633,-71.624 L 2.90575,-71.2539 L 2.78932,-70.8956 L 2.62891,-70.5547
 L 2.42705,-70.2366 L 2.1869,-69.9464 L 1.91226,-69.6885 L 1.60747,-69.467 L 1.27733,-69.2855 L 0.927048,-69.1468
 L 0.562134,-69.0531 L 0.18837,-69.0059 z
M 2.9369,-41.0886 L 3.54507,-41.2447 L 4.12889,-41.4759 L 4.67912,-41.7784 L 5.18712,-42.1474 L 5.64484,-42.5773
 L 6.04507,-43.0611 L 6.38153,-43.5912 L 6.64888,-44.1594 L 6.84291,-44.7566 L 6.96057,-45.3733 L 7,-46
 L 7,-50 L 6.96057,-50.6267 L 6.84291,-51.2434 L 6.64888,-51.8406 L 6.38153,-52.4088 L 6.04507,-52.9389
 L 5.64484,-53.4227 L 5.18712,-53.8526 L 4.67912,-54.2216 L 4.12889,-54.5241 L 3.54507,-54.7553 L 2.9369,-54.9114
 L 2.31395,-54.9901 L -2.31395,-54.9901 L -2.9369,-54.9114 L -3.54507,-54.7553 L -4.12889,-54.5241 L -4.67912,-54.2216
 L -5.18712,-53.8526 L -5.64484,-53.4227 L -6.04507,-52.9389 L -6.38153,-52.4088 L -6.64888,-51.8406 L -6.84291,-51.2434
 L -6.96057,-50.6267 L -7,-50 L -7,-46 L -6.96057,-45.3733 L -6.84291,-44.7566 L -6.64888,-44.1594
 L -6.38153,-43.5912 L -6.04507,-43.0611 L -5.64484,-42.5773 L -5.18712,-42.1474 L -4.67912,-41.7784 L -4.12889,-41.4759
 L -3.54507,-41.2447 L -2.9369,-41.0886 L -2.31395,-41.0099 L 2.31395,-41.0099 z
M -0.18837,-45.0059 L -0.562134,-45.0531 L -0.927048,-45.1468 L -1.27733,-45.2855 L -1.60747,-45.467 L -1.91226,-45.6885
 L -2.1869,-45.9464 L -2.42705,-46.2366 L -2.62891,-46.5547 L -2.78932,-46.8956 L -2.90575,-47.2539 L -2.97633,-47.624
 L -3,-48 L -2.97633,-48.376 L -2.90575,-48.7461 L -2.78932,-49.1044 L -2.62891,-49.4453 L -2.42705,-49.7634
 L -2.1869,-50.0536 L -1.91226,-50.3115 L -1.60747,-50.533 L -1.27733,-50.7145 L -0.927048,-50.8532 L -0.562134,-50.9469
 L -0.18837,-50.9941 L 0.18837,-50.9941 L 0.562134,-50.9469 L 0.927048,-50.8532 L 1.27733,-50.7145 L 1.60747,-50.533
 L 1.91226,-50.3115 L 2.1869,-50.0536 L 2.42705,-49.7634 L 2.62891,-49.4453 L 2.78932,-49.1044 L 2.90575,-48.7461
 L 2.97633,-48.376 L 3,-48 L 2.97633,-47.624 L 2.90575,-47.2539 L 2.78932,-46.8956 L 2.62891,-46.5547
 L 2.42705,-46.2366 L 2.1869,-45.9464 L 1.91226,-45.6885 L 1.60747,-45.467 L 1.27733,-45.2855 L 0.927048,-45.1468
 L 0.562134,-45.0531 L 0.18837,-45.0059 z
" stroke="black" fill="lightgray" stroke-width="0.5"/>
</svg>
