<?xml version="1.0" standalone="no"?>
<!DOCTYPE svg PUBLIC "-//W3C//DTD SVG 1.1//EN" "http://www.w3.org/Graphics/SVG/1.1/DTD/svg11.dtd">
<svg width="90mm" height="93mm" viewBox="-45 -93 90 93" xmlns="http://www.w3.org/2000/svg" version="1.1">
<title>OpenSCAD Model</title>
<path d="
M 44.5,-87.5 L 44.4606,-88.1267 L 44.3429,-88.7434 L 44.1489,-89.3406 L 43.8815,-89.9088 L 43.5451,-90.4389
 L 43.1448,-90.9227 L 42.6871,-91.3526 L 42.1791,-91.7216 L 41.6289,-92.0241 L 41.0451,-92.2553 L 40.4369,-92.4114
 L 39.8139,-92.4901 L -39.8139,-92.4901 L -40.4369,-92.4114 L -41.0451,-92.2553 L -41.6289,-92.0241 L -42.1791,-91.7216
 L -42.6871,-91.3526 L -43.1448,-90.9227 L -43.5451,-90.4389 L -43.8815,-89.9088 L -44.1489,-89.3406 L -44.3429,-88.7434
 L -44.4606,-88.1267 L -44.5,-87.5 L -44.5,-72 L 44.5,-72 z
M 7.31161,-82.5059 L 6.93785,-82.5531 L 6.57294,-82.6468 L 6.22266,-82.7855 L 5.89252,-82.967 L 5.58772,-83.1884
 L 5.31308,-83.4464 L 5.07294,-83.7366 L 4.87108,-84.0547 L 4.71066,-84.3956 L 4.59424,-84.7539 L 4.52365,-85.124
 L 4.5,-85.5 L 4.52365,-85.876 L 4.59424,-86.2461 L 4.71066,-86.6044 L 4.87108,-86.9453 L 5.07294,-87.2634
 L 5.31308,-87.5536 L 5.58772,-87.8115 L 5.89252,-88.033 L 6.22266,-88.2145 L 6.57294,-88.3532 L 6.93785,-88.4469
 L 7.31161,-88.4941 L 7.68837,-88.4941 L 8.06213,-88.4469 L 8.42705,-88.3532 L 8.77733,-88.2145 L 9.10747,-88.033
 L 9.41226,-87.8115 L 9.6869,-87.5536 L 9.92705,-87.2634 L 10.1289,-86.9453 L 10.2893,-86.6044 L 10.4057,-86.2461
 L 10.4763,-85.876 L 10.5,-85.5 L 10.4763,-85.124 L 10.4057,-84.7539 L 10.2893,-84.3956 L 10.1289,-84.0547
 L 9.92705,-83.7366 L 9.6869,-83.4464 L 9.41226,-83.1884 L 9.10747,-82.967 L 8.77733,-82.7855 L 8.42705,-82.6468
 L 8.06213,-82.5531 L 7.68837,-82.5059 z
M 22.3116,-82.5059 L 21.9379,-82.5531 L 21.5729,-82.6468 L 21.2227,-82.7855 L 20.8925,-82.967 L 20.5877,-83.1884
 L 20.3131,-83.4464 L 20.0729,-83.7366 L 19.8711,-84.0547 L 19.7107,-84.3956 L 19.5942,-84.7539 L 19.5237,-85.124
 L 19.5,-85.5 L 19.5237,-85.876 L 19.5942,-86.2461 L 19.7107,-86.6044 L 19.8711,-86.9453 L 20.0729,-87.2634
 L 20.3131,-87.5536 L 20.5877,-87.8115 L 20.8925,-88.033 L 21.2227,-88.2145 L 21.5729,-88.3532 L 21.9379,-88.4469
 L 22.3116,-88.4941 L 22.6884,-88.4941 L 23.0621,-88.4469 L 23.427,-88.3532 L 23.7773,-88.2145 L 24.1075,-88.033
 L 24.4123,-87.8115 L 24.6869,-87.5536 L 24.927,-87.2634 L 25.1289,-86.9453 L 25.2893,-86.6044 L 25.4057,-86.2461
 L 25.4763,-85.876 L 25.5,-85.5 L 25.4763,-85.124 L 25.4057,-84.7539 L 25.2893,-84.3956 L 25.1289,-84.0547
 L 24.927,-83.7366 L 24.6869,-83.4464 L 24.4123,-83.1884 L 24.1075,-82.967 L 23.7773,-82.7855 L 23.427,-82.6468
 L 23.0621,-82.5531 L 22.6884,-82.5059 z
M -7.68837,-82.5059 L -8.06213,-82.5531 L -8.42705,-82.6468 L -8.77733,-82.7855 L -9.10747,-82.967 L -9.41226,-83.1884
 L -9.6869,-83.4464 L -9.92705,-83.7366 L -10.1289,-84.0547 L -10.2893,-84.3956 L -10.4057,-84.7539 L -10.4763,-85.124
 L -10.5,-85.5 L -10.4763,-85.876 L -10.4057,-86.2461 L -10.2893,-86.6044 L -10.1289,-86.9453 L -9.92705,-87.2634
 L -9.6869,-87.5536 L -9.41226,-87.8115 L -9.10747,-88.033 L -8.77733,-88.2145 L -8.42705,-88.3532 L -8.06213,-88.4469
 L -7.68837,-88.4941 L -7.31161,-88.4941 L -6.93785,-88.4469 L -6.57294,-88.3532 L -6.22266,-88.2145 L -5.89252,-88.033
 L -5.58772,-87.8115 L -5.31308,-87.5536 L -5.07294,-87.2634 L -4.87108,-86.9453 L -4.71066,-86.6044 L -4.59424,-86.2461
 L -4.52365,-85.876 L -4.5,-85.5 L -4.52365,-85.124 L -4.59424,-84.7539 L -4.71066,-84.3956 L -4.87108,-84.0547
 L -5.07294,-83.7366 L -5.31308,-83.4464 L -5.58772,-83.1884 L -5.89252,-82.967 L -6.22266,-82.7855 L -6.57294,-82.6468
 L -6.93785,-82.5531 L -7.31161,-82.5059 z
M 37.3116,-82.5059 L 36.9379,-82.5531 L 36.5729,-82.6468 L 36.2227,-82.7855 L 35.8925,-82.967 L 35.5877,-83.1884
 L 35.3131,-83.4464 L 35.0729,-83.7366 L 34.8711,-84.0547 L 34.7107,-84.3956 L 34.5942,-84.7539 L 34.5237,-85.124
 L 34.5,-85.5 L 34.5237,-85.876 L 34.5942,-86.2461 L 34.7107,-86.6044 L 34.8711,-86.9453 L 35.0729,-87.2634
 L 35.3131,-87.5536 L 35.5877,-87.8115 L 35.8925,-88.033 L 36.2227,-88.2145 L 36.5729,-88.3532 L 36.9379,-88.4469
 L 37.3116,-88.4941 L 37.6884,-88.4941 L 38.0621,-88.4469 L 38.427,-88.3532 L 38.7773,-88.2145 L 39.1075,-88.033
 L 39.4123,-87.8115 L 39.6869,-87.5536 L 39.927,-87.2634 L 40.1289,-86.9453 L 40.2893,-86.6044 L 40.4057,-86.2461
 L 40.4763,-85.876 L 40.5,-85.5 L 40.4763,-85.124 L 40.4057,-84.7539 L 40.2893,-84.3956 L 40.1289,-84.0547
 L 39.927,-83.7366 L 39.6869,-83.4464 L 39.4123,-83.1884 L 39.1075,-82.967 L 38.7773,-82.7855 L 38.427,-82.6468
 L 38.0621,-82.5531 L 37.6884,-82.5059 z
M -37.6884,-82.5059 L -38.0621,-82.5531 L -38.427,-82.6468 L -38.7773,-82.7855 L -39.1075,-82.967 L -39.4123,-83.1884
 L -39.6869,-83.4464 L -39.927,-83.7366 L -40.1289,-84.0547 L -40.2893,-84.3956 L -40.4057,-84.7539 L -40.4763,-85.124
 L -40.5,-85.5 L -40.4763,-85.876 L -40.4057,-86.2461 L -40.2893,-86.6044 L -40.1289,-86.9453 L -39.927,-87.2634
 L -39.6869,-87.5536 L -39.4123,-87.8115 L -39.1075,-88.033 L -38.7773,-88.2145 L -38.427,-88.3532 L -38.0621,-88.4469
 L -37.6884,-88.4941 L -37.3116,-88.4941 L -36.9379,-88.4469 L -36.5729,-88.3532 L -36.2227,-88.2145 L -35.8925,-88.033
 L -35.5877,-87.8115 L -35.3131,-87.5536 L -35.0729,-87.2634 L -34.8711,-86.9453 L -34.7107,-86.6044 L -34.5942,-86.2461
 L -34.5237,-85.876 L -34.5,-85.5 L -34.5237,-85.124 L -34.5942,-84.7539 L -34.7107,-84.3956 L -34.8711,-84.0547
 L -35.0729,-83.7366 L -35.3131,-83.4464 L -35.5877,-83.1884 L -35.8925,-82.967 L -36.2227,-82.7855 L -36.5729,-82.6468
 L -36.9379,-82.5531 L -37.3116,-82.5059 z
M -22.6884,-82.5059 L -23.0621,-82.5531 L -23.427,-82.6468 L -23.7773,-82.7855 L -24.1075,-82.967 L -24.4123,-83.1884
 L -24.6869,-83.4464 L -24.927,-83.7366 L -25.1289,-84.0547 L -25.2893,-84.3956 L -25.4057,-84.7539 L -25.4763,-85.124
 L -25.5,-85.5 L -25.4763,-85.876 L -25.4057,-86.2461 L -25.2893,-86.6044 L -25.1289,-86.9453 L -24.927,-87.2634
 L -24.6869,-87.5536 L -24.4123,-87.8115 L -24.1075,-88.033 L -23.7773,-88.2145 L -23.427,-88.3532 L -23.0621,-88.4469
 L -22.6884,-88.4941 L -22.3116,-88.4941 L -21.9379,-88.4469 L -21.5729,-88.3532 L -21.2227,-88.2145 L -20.8925,-88.033
 L -20.5877,-87.8115 L -20.3131,-87.5536 L -20.0729,-87.2634 L -19.8711,-86.9453 L -19.7107,-86.6044 L -19.5942,-86.2461
 L -19.5237,-85.876 L -19.5,-85.5 L -19.5237,-85.124 L -19.5942,-84.7539 L -19.7107,-84.3956 L -19.8711,-84.0547
 L -20.0729,-83.7366 L -20.3131,-83.4464 L -20.5877,-83.1884 L -20.8925,-82.967 L -21.2227,-82.7855 L -21.5729,-82.6468
 L -21.9379,-82.5531 L -22.3116,-82.5059 z
M -0.38356,-83.2322 L -0.664764,-83.2982 L -0.935486,-83.3988 L -1.19145,-83.5327 L -1.42863,-83.6975 L -1.64328,-83.8908
 L -1.83202,-84.1094 L -1.99185,-84.35 L -2.12029,-84.6087 L -2.21527,-84.8815 L -2.27531,-85.164 L -2.29948,-85.4518
 L -2.2874,-85.7404 L -2.23923,-86.0252 L -2.15575,-86.3017 L -2.03825,-86.5656 L -1.88864,-86.8126 L -1.70923,-87.039
 L -1.50285,-87.2411 L -1.2728,-87.4157 L -1.02266,-87.5601 L -0.756378,-87.6721 L -0.478195,-87.7497 L -0.192444,-87.7919
 L 0.0963135,-87.798 L 0.38356,-87.7678 L 0.664764,-87.7018 L 0.935486,-87.6012 L 1.19145,-87.4673 L 1.42863,-87.3025
 L 1.64328,-87.1092 L 1.83202,-86.8906 L 1.99185,-86.65 L 2.12029,-86.3913 L 2.21527,-86.1185 L 2.27531,-85.836
 L 2.29948,-85.5482 L 2.2874,-85.2596 L 2.23923,-84.9748 L 2.15575,-84.6983 L 2.03825,-84.4344 L 1.88864,-84.1873
 L 1.70923,-83.961 L 1.50285,-83.7589 L 1.2728,-83.5843 L 1.02266,-83.4398 L 0.756378,-83.3279 L 0.478195,-83.2503
 L 0.192444,-83.2081 L -0.0963135,-83.202 z
M -30.3836,-83.2322 L -30.6648,-83.2982 L -30.9355,-83.3988 L -31.1915,-83.5327 L -31.4286,-83.6975 L -31.6433,-83.8908
 L -31.832,-84.1094 L -31.9919,-84.35 L -32.1203,-84.6087 L -32.2153,-84.8815 L -32.2753,-85.164 L -32.2995,-85.4518
 L -32.2874,-85.7404 L -32.2392,-86.0252 L -32.1557,-86.3017 L -32.0383,-86.5656 L -31.8886,-86.8126 L -31.7092,-87.039
 L -31.5029,-87.2411 L -31.2728,-87.4157 L -31.0227,-87.5601 L -30.7564,-87.6721 L -30.4782,-87.7497 L -30.1925,-87.7919
 L -29.9037,-87.798 L -29.6164,-87.7678 L -29.3352,-87.7018 L -29.0645,-87.6012 L -28.8085,-87.4673 L -28.5714,-87.3025
 L -28.3567,-87.1092 L -28.168,-86.8906 L -28.0081,-86.65 L -27.8797,-86.3913 L -27.7847,-86.1185 L -27.7247,-85.836
 L -27.7005,-85.5482 L -27.7126,-85.2596 L -27.7608,-84.9748 L -27.8442,-84.6983 L -27.9617,-84.4344 L -28.1113,-84.1873
 L -28.2908,-83.961 L -28.4971,-83.7589 L -28.7272,-83.5843 L -28.9773,-83.4398 L -29.2436,-83.3279 L -29.5218,-83.2503
 L -29.8075,-83.2081 L -30.0963,-83.202 z
M -15.3836,-83.2322 L -15.6648,-83.2982 L -15.9355,-83.3988 L -16.1915,-83.5327 L -16.4286,-83.6975 L -16.6433,-83.8908
 L -16.832,-84.1094 L -16.9919,-84.35 L -17.1203,-84.6087 L -17.2153,-84.8815 L -17.2753,-85.164 L -17.2995,-85.4518
 L -17.2874,-85.7404 L -17.2392,-86.0252 L -17.1557,-86.3017 L -17.0383,-86.5656 L -16.8886,-86.8126 L -16.7092,-87.039
 L -16.5029,-87.2411 L -16.2728,-87.4157 L -16.0227,-87.5601 L -15.7564,-87.6721 L -15.4782,-87.7497 L -15.1924,-87.7919
 L -14.9037,-87.798 L -14.6164,-87.7678 L -14.3352,-87.7018 L -14.0645,-87.6012 L -13.8085,-87.4673 L -13.5714,-87.3025
 L -13.3567,-87.1092 L -13.168,-86.8906 L -13.0081,-86.65 L -12.8797,-86.3913 L -12.7847,-86.1185 L -12.7247,-85.836
 L -12.7005,-85.5482 L -12.7126,-85.2596 L -12.7608,-84.9748 L -12.8442,-84.6983 L -12.9617,-84.4344 L -13.1113,-84.1873
 L -13.2908,-83.961 L -13.4971,-83.7589 L -13.7272,-83.5843 L -13.9773,-83.4398 L -14.2436,-83.3279 L -14.5218,-83.2503
 L -14.8075,-83.2081 L -15.0963,-83.202 z
M 29.6164,-83.2322 L 29.3352,-83.2982 L 29.0645,-83.3988 L 28.8085,-83.5327 L 28.5714,-83.6975 L 28.3567,-83.8908
 L 28.168,-84.1094 L 28.0081,-84.35 L 27.8797,-84.6087 L 27.7847,-84.8815 L 27.7247,-85.164 L 27.7005,-85.4518
 L 27.7126,-85.7404 L 27.7608,-86.0252 L 27.8442,-86.3017 L 27.9617,-86.5656 L 28.1113,-86.8126 L 28.2908,-87.039
 L 28.4971,-87.2411 L 28.7272,-87.4157 L 28.9773,-87.5601 L 29.2436,-87.6721 L 29.5218,-87.7497 L 29.8075,-87.7919
 L 30.0963,-87.798 L 30.3836,-87.7678 L 30.6648,-87.7018 L 30.9355,-87.6012 L 31.1915,-87.4673 L 31.4286,-87.3025
 L 31.6433,-87.1092 L 31.832,-86.8906 L 31.9919,-86.65 L 32.1203,-86.3913 L 32.2153,-86.1185 L 32.2753,-85.836
 L 32.2995,-85.5482 L 32.2874,-85.2596 L 32.2392,-84.9748 L 32.1557,-84.6983 L 32.0383,-84.4344 L 31.8886,-84.1873
 L 31.7092,-83.961 L 31.5029,-83.7589 L 31.2728,-83.5843 L 31.0227,-83.4398 L 30.7564,-83.3279 L 30.4782,-83.2503
 L 30.1925,-83.2081 L 29.9037,-83.202 z
M 2.82062,-74.83 L 2.82062,-81 L 12.1794,-81 L 12.1794,-74.83 z
M 32.8206,-74.83 L 32.8206,-81 L 42.1794,-81 L 42.1794,-74.83 z
M 17.8206,-74.83 L 17.8206,-81 L 27.1794,-81 L 27.1794,-74.83 z
M -42.1794,-74.83 L -42.1794,-81 L -32.8206,-81 L -32.8206,-74.83 z
M -12.1794,-74.83 L -12.1794,-81 L -2.82062,-81 L -2.82062,-74.83 z
M -27.1794,-74.83 L -27.1794,-81 L -17.8206,-81 L -17.8206,-74.83 z
M -40.0307,-50.83 L -42.1794,-50.83 L -42.1794,-57 L -40.0307,-57 L -40.0307,-59.9 L -40.1289,-60.0547
 L -40.2893,-60.3956 L -40.4057,-60.7539 L -40.4763,-61.124 L -40.5,-61.5 L -40.4763,-61.876 L -40.4057,-62.2461
 L -40.2893,-62.6044 L -40.1289,-62.9453 L -39.927,-63.2634 L -39.6869,-63.5536 L -39.4123,-63.8115 L -39.1075,-64.033
 L -38.7773,-64.2145 L -38.427,-64.3532 L -38.0621,-64.4469 L -37.6884,-64.4941 L -37.3116,-64.4941 L -36.9379,-64.4469
 L -36.5729,-64.3532 L -36.2227,-64.2145 L -35.8925,-64.033 L -35.5877,-63.8115 L -35.3131,-63.5536 L -35.0729,-63.2634
 L -34.8711,-62.9453 L -34.7107,-62.6044 L -34.5942,-62.2461 L -34.5237,-61.876 L -34.5,-61.5 L -34.5237,-61.124
 L -34.5942,-60.7539 L -34.7107,-60.3956 L -34.8711,-60.0547 L -34.9693,-59.9 L -34.9693,-57 L -32.8206,-57
 L -32.8206,-50.83 L -34.9693,-50.83 L -34.9693,-48 L -25.0307,-48 L -25.0307,-50.83 L -27.1794,-50.83
 L -27.1794,-57 L -25.0307,-57 L -25.0307,-59.9 L -25.1289,-60.0547 L -25.2893,-60.3956 L -25.4057,-60.7539
 L -25.4763,-61.124 L -25.5,-61.5 L -25.4763,-61.876 L -25.4057,-62.2461 L -25.2893,-62.6044 L -25.1289,-62.9453
 L -24.927,-63.2634 L -24.6869,-63.5536 L -24.4123,-63.8115 L -24.1075,-64.033 L -23.7773,-64.2145 L -23.427,-64.3532
 L -23.0621,-64.4469 L -22.6884,-64.4941 L -22.3116,-64.4941 L -21.9379,-64.4469 L -21.5729,-64.3532 L -21.2227,-64.2145
 L -20.8925,-64.033 L -20.5877,-63.8115 L -20.3131,-63.5536 L -20.0729,-63.2634 L -19.8711,-62.9453 L -19.7107,-62.6044
 L -19.5942,-62.2461 L -19.5237,-61.876 L -19.5,-61.5 L -19.5237,-61.124 L -19.5942,-60.7539 L -19.7107,-60.3956
 L -19.8711,-60.0547 L -19.9693,-59.9 L -19.9693,-57 L -17.8206,-57 L -17.8206,-50.83 L -19.9693,-50.83
 L -19.9693,-48 L -10.0307,-48 L -10.0307,-50.83 L -12.1794,-50.83 L -12.1794,-57 L -10.0307,-57
 L -10.0307,-59.9 L -10.1289,-60.0547 L -10.2893,-60.3956 L -10.4057,-60.7539 L -10.4763,-61.124 L -10.5,-61.5
 L -10.4763,-61.876 L -10.4057,-62.2461 L -10.2893,-62.6044 L -10.1289,-62.9453 L -9.92705,-63.2634 L -9.6869,-63.5536
 L -9.41226,-63.8115 L -9.10747,-64.033 L -8.77733,-64.2145 L -8.42705,-64.3532 L -8.06213,-64.4469 L -7.68837,-64.4941
 L -7.31161,-64.4941 L -6.93785,-64.4469 L -6.57294,-64.3532 L -6.22266,-64.2145 L -5.89252,-64.033 L -5.58772,-63.8115
 L -5.31308,-63.5536 L -5.07294,-63.2634 L -4.87108,-62.9453 L -4.71066,-62.6044 L -4.59424,-62.2461 L -4.52365,-61.876
 L -4.5,-61.5 L -4.52365,-61.124 L -4.59424,-60.7539 L -4.71066,-60.3956 L -4.87108,-60.0547 L -4.96927,-59.9
 L -4.96927,-57 L -2.82062,-57 L -2.82062,-50.83 L -4.96927,-50.83 L -4.96927,-48 L 4.96927,-48
 L 4.96927,-50.83 L 2.82062,-50.83 L 2.82062,-57 L 4.96927,-57 L 4.96927,-59.9 L 4.87108,-60.0547
 L 4.71066,-60.3956 L 4.59424,-60.7539 L 4.52365,-61.124 L 4.5,-61.5 L 4.52365,-61.876 L 4.59424,-62.2461
 L 4.71066,-62.6044 L 4.87108,-62.9453 L 5.07294,-63.2634 L 5.31308,-63.5536 L 5.58772,-63.8115 L 5.89252,-64.033
 L 6.22266,-64.2145 L 6.57294,-64.3532 L 6.93785,-64.4469 L 7.31161,-64.4941 L 7.68837,-64.4941 L 8.06213,-64.4469
 L 8.42705,-64.3532 L 8.77733,-64.2145 L 9.10747,-64.033 L 9.41226,-63.8115 L 9.6869,-63.5536 L 9.92705,-63.2634
 L 10.1289,-62.9453 L 10.2893,-62.6044 L 10.4057,-62.2461 L 10.4763,-61.876 L 10.5,-61.5 L 10.4763,-61.124
 L 10.4057,-60.7539 L 10.2893,-60.3956 L 10.1289,-60.0547 L 10.0307,-59.9 L 10.0307,-57 L 12.1794,-57
 L 12.1794,-50.83 L 10.0307,-50.83 L 10.0307,-48 L 19.9693,-48 L 19.9693,-50.83 L 17.8206,-50.83
 L 17.8206,-57 L 19.9693,-57 L 19.9693,-59.9 L 19.8711,-60.0547 L 19.7107,-60.3956 L 19.5942,-60.7539
 L 19.5237,-61.124 L 19.5,-61.5 L 19.5237,-61.876 L 19.5942,-62.2461 L 19.7107,-62.6044 L 19.8711,-62.9453
 L 20.0729,-63.2634 L 20.3131,-63.5536 L 20.5877,-63.8115 L 20.8925,-64.033 L 21.2227,-64.2145 L 21.5729,-64.3532
 L 21.9379,-64.4469 L 22.3116,-64.4941 L 22.6884,-64.4941 L 23.0621,-64.4469 L 23.427,-64.3532 L 23.7773,-64.2145
 L 24.1075,-64.033 L 24.4123,-63.8115 L 24.6869,-63.5536 L 24.927,-63.2634 L 25.1289,-62.9453 L 25.2893,-62.6044
 L 25.4057,-62.2461 L 25.4763,-61.876 L 25.5,-61.5 L 25.4763,-61.124 L 25.4057,-60.7539 L 25.2893,-60.3956
 L 25.1289,-60.0547 L 25.0307,-59.9 L 25.0307,-57 L 27.1794,-57 L 27.1794,-50.83 L 25.0307,-50.83
 L 25.0307,-48 L 34.9693,-48 L 34.9693,-50.83 L 32.8206,-50.83 L 32.8206,-57 L 34.9693,-57
 L 34.9693,-59.9 L 34.8711,-60.0547 L 34.7107,-60.3956 L 34.5942,-60.7539 L 34.5237,-61.124 L 34.5,-61.5
 L 34.5237,-61.876 L 34.5942,-62.2461 L 34.7107,-62.6044 L 34.8711,-62.9453 L 35.0729,-63.2634 L 35.3131,-63.5536
 L 35.5877,-63.8115 L 35.8925,-64.033 L 36.2227,-64.2145 L 36.5729,-64.3532 L 36.9379,-64.4469 L 37.3116,-64.4941
 L 37.6884,-64.4941 L 38.0621,-64.4469 L 38.427,-64.3532 L 38.7773,-64.2145 L 39.1075,-64.033 L 39.4123,-63.8115
 L 39.6869,-63.5536 L 39.927,-63.2634 L 40.1289,-62.9453 L 40.2893,-62.6044 L 40.4057,-62.2461 L 40.4763,-61.876
 L 40.5,-61.5 L 40.4763,-61.124 L 40.4057,-60.7539 L 40.2893,-60.3956 L 40.1289,-60.0547 L 40.0307,-59.9
 L 40.0307,-57 L 42.1794,-57 L 42.1794,-50.83 L 40.0307,-50.83 L 40.0307,-48 L 44.5,-48
 L 44.5,-63.5 L 44.4606,-64.1267 L 44.3429,-64.7434 L 44.1489,-65.3406 L 43.8815,-65.9088 L 43.5451,-66.4389
 L 43.1448,-66.9227 L 42.6871,-67.3526 L 42.1791,-67.7216 L 41.6289,-68.0241 L 41.0451,-68.2553 L 40.4369,-68.4114
 L 39.8139,-68.4901 L -39.8139,-68.4901 L -40.4369,-68.4114 L -41.0451,-68.2553 L -41.6289,-68.0241 L -42.1791,-67.7216
 L -42.6871,-67.3526 L -43.1448,-66.9227 L -43.5451,-66.4389 L -43.8815,-65.9088 L -44.1489,-65.3406 L -44.3429,-64.7434
 L -44.4606,-64.1267 L -44.5,-63.5 L -44.5,-48 L -40.0307,-48 z
M -2.74832,-59.9133 L -2.74832,-63.0867 L 0,-64.6735 L 2.74832,-63.0867 L 2.74832,-59.9133 L 0,-58.3265
 z
M -32.7483,-59.9133 L -32.7483,-63.0867 L -30,-64.6735 L -27.2517,-63.0867 L -27.2517,-59.9133 L -30,-58.3265
 z
M -17.7483,-59.9133 L -17.7483,-63.0867 L -15,-64.6735 L -12.2517,-63.0867 L -12.2517,-59.9133 L -15,-58.3265
 z
M 27.2517,-59.9133 L 27.2517,-63.0867 L 30,-64.6735 L 32.7483,-63.0867 L 32.7483,-59.9133 L 30,-58.3265
 z
M 14.6164,-59.2322 L 14.3352,-59.2982 L 14.0645,-59.3988 L 13.8085,-59.5327 L 13.5714,-59.6975 L 13.3567,-59.8908
 L 13.168,-60.1094 L 13.0081,-60.35 L 12.8797,-60.6087 L 12.7847,-60.8815 L 12.7247,-61.164 L 12.7005,-61.4518
 L 12.7126,-61.7404 L 12.7608,-62.0252 L 12.8442,-62.3017 L 12.9617,-62.5656 L 13.1113,-62.8126 L 13.2908,-63.039
 L 13.4971,-63.2411 L 13.7272,-63.4157 L 13.9773,-63.5601 L 14.2436,-63.6721 L 14.5218,-63.7497 L 14.8075,-63.7919
 L 15.0963,-63.798 L 15.3836,-63.7678 L 15.6648,-63.7018 L 15.9355,-63.6012 L 16.1915,-63.4673 L 16.4286,-63.3025
 L 16.6433,-63.1092 L 16.832,-62.8906 L 16.9919,-62.65 L 17.1203,-62.3913 L 17.2153,-62.1185 L 17.2753,-61.836
 L 17.2995,-61.5482 L 17.2874,-61.2596 L 17.2392,-60.9748 L 17.1557,-60.6983 L 17.0383,-60.4344 L 16.8886,-60.1873
 L 16.7092,-59.961 L 16.5029,-59.7589 L 16.2728,-59.5843 L 16.0227,-59.4398 L 15.7564,-59.3279 L 15.4782,-59.2503
 L 15.1924,-59.2081 L 14.9037,-59.202 z
M -40.0942,-26.83 L -42.1794,-26.83 L -42.1794,-33 L -40.0942,-33 L -40.0942,-36 L -40.1289,-36.0547
 L -40.2893,-36.3956 L -40.4057,-36.7539 L -40.4763,-37.124 L -40.5,-37.5 L -40.4763,-37.876 L -40.4057,-38.2461
 L -40.2893,-38.6044 L -40.1289,-38.9453 L -39.927,-39.2634 L -39.6869,-39.5536 L -39.4123,-39.8115 L -39.1075,-40.033
 L -38.7773,-40.2145 L -38.427,-40.3532 L -38.0621,-40.4469 L -37.6884,-40.4941 L -37.3116,-40.4941 L -36.9379,-40.4469
 L -36.5729,-40.3532 L -36.2227,-40.2145 L -35.8925,-40.033 L -35.5877,-39.8115 L -35.3131,-39.5536 L -35.0729,-39.2634
 L -34.8711,-38.9453 L -34.7107,-38.6044 L -34.5942,-38.2461 L -34.5237,-37.876 L -34.5,-37.5 L -34.5237,-37.124
 L -34.5942,-36.7539 L -34.7107,-36.3956 L -34.8711,-36.0547 L -34.9058,-36 L -34.9058,-33 L -32.8206,-33
 L -32.8206,-26.83 L -34.9058,-26.83 L -34.9058,-24 L -25.0942,-24 L -25.0942,-26.83 L -27.1794,-26.83
 L -27.1794,-33 L -25.0942,-33 L -25.0942,-36 L -25.1289,-36.0547 L -25.2893,-36.3956 L -25.4057,-36.7539
 L -25.4763,-37.124 L -25.5,-37.5 L -25.4763,-37.876 L -25.4057,-38.2461 L -25.2893,-38.6044 L -25.1289,-38.9453
 L -24.927,-39.2634 L -24.6869,-39.5536 L -24.4123,-39.8115 L -24.1075,-40.033 L -23.7773,-40.2145 L -23.427,-40.3532
 L -23.0621,-40.4469 L -22.6884,-40.4941 L -22.3116,-40.4941 L -21.9379,-40.4469 L -21.5729,-40.3532 L -21.2227,-40.2145
 L -20.8925,-40.033 L -20.5877,-39.8115 L -20.3131,-39.5536 L -20.0729,-39.2634 L -19.8711,-38.9453 L -19.7107,-38.6044
 L -19.5942,-38.2461 L -19.5237,-37.876 L -19.5,-37.5 L -19.5237,-37.124 L -19.5942,-36.7539 L -19.7107,-36.3956
 L -19.8711,-36.0547 L -19.9058,-36 L -19.9058,-33 L -17.8206,-33 L -17.8206,-26.83 L -19.9058,-26.83
 L -19.9058,-24 L -10.0942,-24 L -10.0942,-26.83 L -12.1794,-26.83 L -12.1794,-33 L -10.0942,-33
 L -10.0942,-36 L -10.1289,-36.0547 L -10.2893,-36.3956 L -10.4057,-36.7539 L -10.4763,-37.124 L -10.5,-37.5
 L -10.4763,-37.876 L -10.4057,-38.2461 L -10.2893,-38.6044 L -10.1289,-38.9453 L -9.92705,-39.2634 L -9.6869,-39.5536
 L -9.41226,-39.8115 L -9.10747,-40.033 L -8.77733,-40.2145 L -8.42705,-40.3532 L -8.06213,-40.4469 L -7.68837,-40.4941
 L -7.31161,-40.4941 L -6.93785,-40.4469 L -6.57294,-40.3532 L -6.22266,-40.2145 L -5.89252,-40.033 L -5.58772,-39.8115
 L -5.31308,-39.5536 L -5.07294,-39.2634 L -4.87108,-38.9453 L -4.71066,-38.6044 L -4.59424,-38.2461 L -4.52365,-37.876
 L -4.5,-37.5 L -4.52365,-37.124 L -4.59424,-36.7539 L -4.71066,-36.3956 L -4.87108,-36.0547 L -4.90581,-36
 L -4.90581,-33 L -2.82062,-33 L -2.82062,-26.83 L -4.90581,-26.83 L -4.90581,-24 L 4.90581,-24
 L 4.90581,-26.83 L 2.82062,-26.83 L 2.82062,-33 L 4.90581,-33 L 4.90581,-36 L 4.87108,-36.0547
 L 4.71066,-36.3956 L 4.59424,-36.7539 L 4.52365,-37.124 L 4.5,-37.5 L 4.52365,-37.876 L 4.59424,-38.2461
 L 4.71066,-38.6044 L 4.87108,-38.9453 L 5.07294,-39.2634 L 5.31308,-39.5536 L 5.58772,-39.8115 L 5.89252,-40.033
 L 6.22266,-40.2145 L 6.57294,-40.3532 L 6.93785,-40.4469 L 7.31161,-40.4941 L 7.68837,-40.4941 L 8.06213,-40.4469
 L 8.42705,-40.3532 L 8.77733,-40.2145 L 9.10747,-40.033 L 9.41226,-39.8115 L 9.6869,-39.5536 L 9.92705,-39.2634
 L 10.1289,-38.9453 L 10.2893,-38.6044 L 10.4057,-38.2461 L 10.4763,-37.876 L 10.5,-37.5 L 10.4763,-37.124
 L 10.4057,-36.7539 L 10.2893,-36.3956 L 10.1289,-36.0547 L 10.0942,-36 L 10.0942,-33 L 12.1794,-33
 L 12.1794,-26.83 L 10.0942,-26.83 L 10.0942,-24 L 19.9058,-24 L 19.9058,-26.83 L 17.8206,-26.83
 L 17.8206,-33 L 19.9058,-33 L 19.9058,-36 L 19.8711,-36.0547 L 19.7107,-36.3956 L 19.5942,-36.7539
 L 19.5237,-37.124 L 19.5,-37.5 L 19.5237,-37.876 L 19.5942,-38.2461 L 19.7107,-38.6044 L 19.8711,-38.9453
 L 20.0729,-39.2634 L 20.3131,-39.5536 L 20.5877,-39.8115 L 20.8925,-40.033 L 21.2227,-40.2145 L 21.5729,-40.3532
 L 21.9379,-40.4469 L 22.3116,-40.4941 L 22.6884,-40.4941 L 23.0621,-40.4469 L 23.427,-40.3532 L 23.7773,-40.2145
 L 24.1075,-40.033 L 24.4123,-39.8115 L 24.6869,-39.5536 L 24.927,-39.2634 L 25.1289,-38.9453 L 25.2893,-38.6044
 L 25.4057,-38.2461 L 25.4763,-37.876 L 25.5,-37.5 L 25.4763,-37.124 L 25.4057,-36.7539 L 25.2893,-36.3956
 L 25.1289,-36.0547 L 25.0942,-36 L 25.0942,-33 L 27.1794,-33 L 27.1794,-26.83 L 25.0942,-26.83
 L 25.0942,-24 L 34.9058,-24 L 34.9058,-26.83 L 32.8206,-26.83 L 32.8206,-33 L 34.9058,-33
 L 34.9058,-36 L 34.8711,-36.0547 L 34.7107,-36.3956 L 34.5942,-36.7539 L 34.5237,-37.124 L 34.5,-37.5
 L 34.5237,-37.876 L 34.5942,-38.2461 L 34.7107,-38.6044 L 34.8711,-38.9453 L 35.0729,-39.2634 L 35.3131,-39.5536
 L 35.5877,-39.8115 L 35.8925,-40.033 L 36.2227,-40.2145 L 36.5729,-40.3532 L 36.9379,-40.4469 L 37.3116,-40.4941
 L 37.6884,-40.4941 L 38.0621,-40.4469 L 38.427,-40.3532 L 38.7773,-40.2145 L 39.1075,-40.033 L 39.4123,-39.8115
 L 39.6869,-39.5536 L 39.927,-39.2634 L 40.1289,-38.9453 L 40.2893,-38.6044 L 40.4057,-38.2461 L 40.4763,-37.876
 L 40.5,-37.5 L 40.4763,-37.124 L 40.4057,-36.7539 L 40.2893,-36.3956 L 40.1289,-36.0547 L 40.0942,-36
 L 40.0942,-33 L 42.1794,-33 L 42.1794,-26.83 L 40.0942,-26.83 L 40.0942,-24 L 44.5,-24
 L 44.5,-39.5 L 44.4606,-40.1267 L 44.3429,-40.7434 L 44.1489,-41.3406 L 43.8815,-41.9088 L 43.5451,-42.4389
 L 43.1448,-42.9227 L 42.6871,-43.3526 L 42.1791,-43.7216 L 41.6289,-44.0241 L 41.0451,-44.2553 L 40.4369,-44.4114
 L 39.8139,-44.4901 L -39.8139,-44.4901 L -40.4369,-44.4114 L -41.0451,-44.2553 L -41.6289,-44.0241 L -42.1791,-43.7216
 L -42.6871,-43.3526 L -43.1448,-42.9227 L -43.5451,-42.4389 L -43.8815,-41.9088 L -44.1489,-41.3406 L -44.3429,-40.7434
 L -44.4606,-40.1267 L -44.5,-39.5 L -44.5,-24 L -40.0942,-24 z
M -32.7483,-35.9133 L -32.7483,-39.0867 L -30,-40.6735 L -27.2517,-39.0867 L -27.2517,-35.9133 L -30,-34.3265
 z
M -17.7483,-35.9133 L -17.7483,-39.0867 L -15,-40.6735 L -12.2517,-39.0867 L -12.2517,-35.9133 L -15,-34.3265
 z
M -2.74832,-35.9133 L -2.74832,-39.0867 L 0,-40.6735 L 2.74832,-39.0867 L 2.74832,-35.9133 L 0,-34.3265
 z
M 27.2517,-35.9133 L 27.2517,-39.0867 L 30,-40.6735 L 32.7483,-39.0867 L 32.7483,-35.9133 L 30,-34.3265
 z
M 44.5,-15.5 L 44.4606,-16.1267 L 44.3429,-16.7434 L 44.1489,-17.3406 L 43.8815,-17.9088 L 43.5451,-18.4389
 L 43.1448,-18.9227 L 42.6871,-19.3526 L 42.1791,-19.7216 L 41.6289,-20.0241 L 41.0451,-20.2553 L 40.4369,-20.4114
 L 39.8139,-20.4901 L -39.8139,-20.4901 L -40.4369,-20.4114 L -41.0451,-20.2553 L -41.6289,-20.0241 L -42.1791,-19.7216
 L -42.6871,-19.3526 L -43.1448,-18.9227 L -43.5451,-18.4389 L -43.8815,-17.9088 L -44.1489,-17.3406 L -44.3429,-16.7434
 L -44.4606,-16.1267 L -44.5,-15.5 L -44.5,-0 L 44.5,-0 z
M 12.2517,-11.9133 L 12.2517,-15.0867 L 15,-16.6735 L 17.7483,-15.0867 L 17.7483,-11.9133 L 15,-10.3265
 z
M 7.31161,-10.5059 L 6.93785,-10.5531 L 6.57294,-10.6468 L 6.22266,-10.7855 L 5.89252,-10.967 L 5.58772,-11.1884
 L 5.31308,-11.4464 L 5.07294,-11.7366 L 4.87108,-12.0547 L 4.71066,-12.3956 L 4.59424,-12.7539 L 4.52365,-13.124
 L 4.5,-13.5 L 4.52365,-13.876 L 4.59424,-14.2461 L 4.71066,-14.6044 L 4.87108,-14.9453 L 5.07294,-15.2634
 L 5.31308,-15.5536 L 5.58772,-15.8115 L 5.89252,-16.033 L 6.22266,-16.2145 L 6.57294,-16.3532 L 6.93785,-16.4469
 L 7.31161,-16.4941 L 7.68837,-16.4941 L 8.06213,-16.4469 L 8.42705,-16.3532 L 8.77733,-16.2145 L 9.10747,-16.033
 L 9.41226,-15.8115 L 9.6869,-15.5536 L 9.92705,-15.2634 L 10.1289,-14.9453 L 10.2893,-14.6044 L 10.4057,-14.2461
 L 10.4763,-13.876 L 10.5,-13.5 L 10.4763,-13.124 L 10.4057,-12.7539 L 10.2893,-12.3956 L 10.1289,-12.0547
 L 9.92705,-11.7366 L 9.6869,-11.4464 L 9.41226,-11.1884 L 9.10747,-10.967 L 8.77733,-10.7855 L 8.42705,-10.6468
 L 8.06213,-10.5531 L 7.68837,-10.5059 z
M 37.3116,-10.5059 L 36.9379,-10.5531 L 36.5729,-10.6468 L 36.2227,-10.7855 L 35.8925,-10.967 L 35.5877,-11.1884
 L 35.3131,-11.4464 L 35.0729,-11.7366 L 34.8711,-12.0547 L 34.7107,-12.3956 L 34.5942,-12.7539 L 34.5237,-13.124
 L 34.5,-13.5 L 34.5237,-13.876 L 34.5942,-14.2461 L 34.7107,-14.6044 L 34.8711,-14.9453 L 35.0729,-15.2634
 L 35.3131,-15.5536 L 35.5877,-15.8115 L 35.8925,-16.033 L 36.2227,-16.2145 L 36.5729,-16.3532 L 36.9379,-16.4469
 L 37.3116,-16.4941 L 37.6884,-16.4941 L 38.0621,-16.4469 L 38.427,-16.3532 L 38.7773,-16.2145 L 39.1075,-16.033
 L 39.4123,-15.8115 L 39.6869,-15.5536 L 39.927,-15.2634 L 40.1289,-14.9453 L 40.2893,-14.6044 L 40.4057,-14.2461
 L 40.4763,-13.876 L 40.5,-13.5 L 40.4763,-13.124 L 40.4057,-12.7539 L 40.2893,-12.3956 L 40.1289,-12.0547
 L 39.927,-11.7366 L 39.6869,-11.4464 L 39.4123,-11.1884 L 39.1075,-10.967 L 38.7773,-10.7855 L 38.427,-10.6468
 L 38.0621,-10.5531 L 37.6884,-10.5059 z
M -37.6884,-10.5059 L -38.0621,-10.5531 L -38.427,-10.6468 L -38.7773,-10.7855 L -39.1075,-10.967 L -39.4123,-11.1884
 L -39.6869,-11.4464 L -39.927,-11.7366 L -40.1289,-12.0547 L -40.2893,-12.3956 L -40.4057,-12.7539 L -40.4763,-13.124
 L -40.5,-13.5 L -40.4763,-13.876 L -40.4057,-14.2461 L -40.2893,-14.6044 L -40.1289,-14.9453 L -39.927,-15.2634
 L -39.6869,-15.5536 L -39.4123,-15.8115 L -39.1075,-16.033 L -38.7773,-16.2145 L -38.427,-16.3532 L -38.0621,-16.4469
 L -37.6884,-16.4941 L -37.3116,-16.4941 L -36.9379,-16.4469 L -36.5729,-16.3532 L -36.2227,-16.2145 L -35.8925,-16.033
 L -35.5877,-15.8115 L -35.3131,-15.5536 L -35.0729,-15.2634 L -34.8711,-14.9453 L -34.7107,-14.6044 L -34.5942,-14.2461
 L -34.5237,-13.876 L -34.5,-13.5 L -34.5237,-13.124 L -34.5942,-12.7539 L -34.7107,-12.3956 L -34.8711,-12.0547
 L -35.0729,-11.7366 L -35.3131,-11.4464 L -35.5877,-11.1884 L -35.8925,-10.967 L -36.2227,-10.7855 L -36.5729,-10.6468
 L -36.9379,-10.5531 L -37.3116,-10.5059 z
M -22.6884,-10.5059 L -23.0621,-10.5531 L -23.427,-10.6468 L -23.7773,-10.7855 L -24.1075,-10.967 L -24.4123,-11.1884
 L -24.6869,-11.4464 L -24.927,-11.7366 L -25.1289,-12.0547 L -25.2893,-12.3956 L -25.4057,-12.7539 L -25.4763,-13.124
 L -25.5,-13.5 L -25.4763,-13.876 L -25.4057,-14.2461 L -25.2893,-14.6044 L -25.1289,-14.9453 L -24.927,-15.2634
 L -24.6869,-15.5536 L -24.4123,-15.8115 L -24.1075,-16.033 L -23.7773,-16.2145 L -23.427,-16.3532 L -23.0621,-16.4469
 L -22.6884,-16.4941 L -22.3116,-16.4941 L -21.9379,-16.4469 L -21.5729,-16.3532 L -21.2227,-16.2145 L -20.8925,-16.033
 L -20.5877,-15.8115 L -20.3131,-15.5536 L -20.0729,-15.2634 L -19.8711,-14.9453 L -19.7107,-14.6044 L -19.5942,-14.2461
 L -19.5237,-13.876 L -19.5,-13.5 L -19.5237,-13.124 L -19.5942,-12.7539 L -19.7107,-12.3956 L -19.8711,-12.0547
 L -20.0729,-11.7366 L -20.3131,-11.4464 L -20.5877,-11.1884 L -20.8925,-10.967 L -21.2227,-10.7855 L -21.5729,-10.6468
 L -21.9379,-10.5531 L -22.3116,-10.5059 z
M -7.68837,-10.5059 L -8.06213,-10.5531 L -8.42705,-10.6468 L -8.77733,-10.7855 L -9.10747,-10.967 L -9.41226,-11.1884
 L -9.6869,-11.4464 L -9.92705,-11.7366 L -10.1289,-12.0547 L -10.2893,-12.3956 L -10.4057,-12.7539 L -10.4763,-13.124
 L -10.5,-13.5 L -10.4763,-13.876 L -10.4057,-14.2461 L -10.2893,-14.6044 L -10.1289,-14.9453 L -9.92705,-15.2634
 L -9.6869,-15.5536 L -9.41226,-15.8115 L -9.10747,-16.033 L -8.77733,-16.2145 L -8.42705,-16.3532 L -8.06213,-16.4469
 L -7.68837,-16.4941 L -7.31161,-16.4941 L -6.93785,-16.4469 L -6.57294,-16.3532 L -6.22266,-16.2145 L -5.89252,-16.033
 L -5.58772,-15.8115 L -5.31308,-15.5536 L -5.07294,-15.2634 L -4.87108,-14.9453 L -4.71066,-14.6044 L -4.59424,-14.2461
 L -4.52365,-13.876 L -4.5,-13.5 L -4.52365,-13.124 L -4.59424,-12.7539 L -4.71066,-12.3956 L -4.87108,-12.0547
 L -5.07294,-11.7366 L -5.31308,-11.4464 L -5.58772,-11.1884 L -5.89252,-10.967 L -6.22266,-10.7855 L -6.57294,-10.6468
 L -6.93785,-10.5531 L -7.31161,-10.5059 z
M 22.3116,-10.5059 L 21.9379,-10.5531 L 21.5729,-10.6468 L 21.2227,-10.7855 L 20.8925,-10.967 L 20.5877,-11.1884
 L 20.3131,-11.4464 L 20.0729,-11.7366 L 19.8711,-12.0547 L 19.7107,-12.3956 L 19.5942,-12.7539 L 19.5237,-13.124
 L 19.5,-13.5 L 19.5237,-13.876 L 19.5942,-14.2461 L 19.7107,-14.6044 L 19.8711,-14.9453 L 20.0729,-15.2634
 L 20.3131,-15.5536 L 20.5877,-15.8115 L 20.8925,-16.033 L 21.2227,-16.2145 L 21.5729,-16.3532 L 21.9379,-16.4469
 L 22.3116,-16.4941 L 22.6884,-16.4941 L 23.0621,-16.4469 L 23.427,-16.3532 L 23.7773,-16.2145 L 24.1075,-16.033
 L 24.4123,-15.8115 L 24.6869,-15.5536 L 24.927,-15.2634 L 25.1289,-14.9453 L 25.2893,-14.6044 L 25.4057,-14.2461
 L 25.4763,-13.876 L 25.5,-13.5 L 25.4763,-13.124 L 25.4057,-12.7539 L 25.2893,-12.3956 L 25.1289,-12.0547
 L 24.927,-11.7366 L 24.6869,-11.4464 L 24.4123,-11.1884 L 24.1075,-10.967 L 23.7773,-10.7855 L 23.427,-10.6468
 L 23.0621,-10.5531 L 22.6884,-10.5059 z
M -30.3836,-11.2322 L -30.6648,-11.2982 L -30.9355,-11.3988 L -31.1915,-11.5327 L -31.4286,-11.6975 L -31.6433,-11.8908
 L -31.832,-12.1094 L -31.9919,-12.35 L -32.1203,-12.6087 L -32.2153,-12.8815 L -32.2753,-13.164 L -32.2995,-13.4518
 L -32.2874,-13.7404 L -32.2392,-14.0252 L -32.1557,-14.3017 L -32.0383,-14.5656 L -31.8886,-14.8126 L -31.7092,-15.039
 L -31.5029,-15.2411 L -31.2728,-15.4157 L -31.0227,-15.5601 L -30.7564,-15.6721 L -30.4782,-15.7497 L -30.1925,-15.7919
 L -29.9037,-15.798 L -29.6164,-15.7678 L -29.3352,-15.7018 L -29.0645,-15.6012 L -28.8085,-15.4673 L -28.5714,-15.3025
 L -28.3567,-15.1092 L -28.168,-14.8906 L -28.0081,-14.65 L -27.8797,-14.3913 L -27.7847,-14.1185 L -27.7247,-13.836
 L -27.7005,-13.5482 L -27.7126,-13.2596 L -27.7608,-12.9748 L -27.8442,-12.6983 L -27.9617,-12.4344 L -28.1113,-12.1873
 L -28.2908,-11.961 L -28.4971,-11.7589 L -28.7272,-11.5843 L -28.9773,-11.4398 L -29.2436,-11.3279 L -29.5218,-11.2503
 L -29.8075,-11.2081 L -30.0963,-11.202 z
M -0.38356,-11.2322 L -0.664764,-11.2982 L -0.935486,-11.3988 L -1.19145,-11.5327 L -1.42863,-11.6975 L -1.64328,-11.8908
 L -1.83202,-12.1094 L -1.99185,-12.35 L -2.12029,-12.6087 L -2.21527,-12.8815 L -2.27531,-13.164 L -2.29948,-13.4518
 L -2.2874,-13.7404 L -2.23923,-14.0252 L -2.15575,-14.3017 L -2.03825,-14.5656 L -1.88864,-14.8126 L -1.70923,-15.039
 L -1.50285,-15.2411 L -1.2728,-15.4157 L -1.02266,-15.5601 L -0.756378,-15.6721 L -0.478195,-15.7497 L -0.192444,-15.7919
 L 0.0963135,-15.798 L 0.38356,-15.7678 L 0.664764,-15.7018 L 0.935486,-15.6012 L 1.19145,-15.4673 L 1.42863,-15.3025
 L 1.64328,-15.1092 L 1.83202,-14.8906 L 1.99185,-14.65 L 2.12029,-14.3913 L 2.21527,-14.1185 L 2.27531,-13.836
 L 2.29948,-13.5482 L 2.2874,-13.2596 L 2.23923,-12.9748 L 2.15575,-12.6983 L 2.03825,-12.4344 L 1.88864,-12.1873
 L 1.70923,-11.961 L 1.50285,-11.7589 L 1.2728,-11.5843 L 1.02266,-11.4398 L 0.756378,-11.3279 L 0.478195,-11.2503
 L 0.192444,-11.2081 L -0.0963135,-11.202 z
M 29.6164,-11.2322 L 29.3352,-11.2982 L 29.0645,-11.3988 L 28.8085,-11.5327 L 28.5714,-11.6975 L 28.3567,-11.8908
 L 28.168,-12.1094 L 28.0081,-12.35 L 27.8797,-12.6087 L 27.7847,-12.8815 L 27.7247,-13.164 L 27.7005,-13.4518
 L 27.7126,-13.7404 L 27.7608,-14.0252 L 27.8442,-14.3017 L 27.9617,-14.5656 L 28.1113,-14.8126 L 28.2908,-15.039
 L 28.4971,-15.2411 L 28.7272,-15.4157 L 28.9773,-15.5601 L 29.2436,-15.6721 L 29.5218,-15.7497 L 29.8075,-15.7919
 L 30.0963,-15.798 L 30.3836,-15.7678 L 30.6648,-15.7018 L 30.9355,-15.6012 L 31.1915,-15.4673 L 31.4286,-15.3025
 L 31.6433,-15.1092 L 31.832,-14.8906 L 31.9919,-14.65 L 32.1203,-14.3913 L 32.2153,-14.1185 L 32.2753,-13.836
 L 32.2995,-13.5482 L 32.2874,-13.2596 L 32.2392,-12.9748 L 32.1557,-12.6983 L 32.0383,-12.4344 L 31.8886,-12.1873
 L 31.7092,-11.961 L 31.5029,-11.7589 L 31.2728,-11.5843 L 31.0227,-11.4398 L 30.7564,-11.3279 L 30.4782,-11.2503
 L 30.1925,-11.2081 L 29.9037,-11.202 z
M -15.3836,-11.2322 L -15.6648,-11.2982 L -15.9355,-11.3988 L -16.1915,-11.5327 L -16.4286,-11.6975 L -16.6433,-11.8908
 L -16.832,-12.1094 L -16.9919,-12.35 L -17.1203,-12.6087 L -17.2153,-12.8815 L -17.2753,-13.164 L -17.2995,-13.4518
 L -17.2874,-13.7404 L -17.2392,-14.0252 L -17.1557,-14.3017 L -17.0383,-14.5656 L -16.8886,-14.8126 L -16.7092,-15.039
 L -16.5029,-15.2411 L -16.2728,-15.4157 L -16.0227,-15.5601 L -15.7564,-15.6721 L -15.4782,-15.7497 L -15.1924,-15.7919
 L -14.9037,-15.798 L -14.6164,-15.7678 L -14.3352,-15.7018 L -14.0645,-15.6012 L -13.8085,-15.4673 L -13.5714,-15.3025
 L -13.3567,-15.1092 L -13.168,-14.8906 L -13.0081,-14.65 L -12.8797,-14.3913 L -12.7847,-14.1185 L -12.7247,-13.836
 L -12.7005,-13.5482 L -12.7126,-13.2596 L -12.7608,-12.9748 L -12.8442,-12.6983 L -12.9617,-12.4344 L -13.1113,-12.1873
 L -13.2908,-11.961 L -13.4971,-11.7589 L -13.7272,-11.5843 L -13.9773,-11.4398 L -14.2436,-11.3279 L -14.5218,-11.2503
 L -14.8075,-11.2081 L -15.0963,-11.202 z
M 2.82062,-2.82999 L 2.82062,-9 L 12.1794,-9 L 12.1794,-2.82999 z
M -12.1794,-2.82999 L -12.1794,-9 L -2.82062,-9 L -2.82062,-2.82999 z
M -27.1794,-2.82999 L -27.1794,-9 L -17.8206,-9 L -17.8206,-2.82999 z
M -42.1794,-2.82999 L -42.1794,-9 L -32.8206,-9 L -32.8206,-2.82999 z
M 32.8206,-2.82999 L 32.8206,-9 L 42.1794,-9 L 42.1794,-2.82999 z
M 17.8206,-2.82999 L 17.8206,-9 L 27.1794,-9 L 27.1794,-2.82999 z
" stroke="black" fill="lightgray" stroke-width="0.5"/>
</svg>
