<?xml version="1.0" standalone="no"?>
<!DOCTYPE svg PUBLIC "-//W3C//DTD SVG 1.1//EN" "http://www.w3.org/Graphics/SVG/1.1/DTD/svg11.dtd">
<svg width="90mm" height="21mm" viewBox="-45 -21 90 21" xmlns="http://www.w3.org/2000/svg" version="1.1">
<title>OpenSCAD Model</title>
<path d="
M -40.0307,-11.9 L -40.1289,-12.0547 L -40.2893,-12.3956 L -40.4057,-12.7539 L -40.4763,-13.124 L -40.5,-13.5
 L -40.4763,-13.876 L -40.4057,-14.2461 L -40.2893,-14.6044 L -40.1289,-14.9453 L -39.927,-15.2634 L -39.6869,-15.5536
 L -39.4123,-15.8115 L -39.1075,-16.033 L -38.7773,-16.2145 L -38.427,-16.3532 L -38.0621,-16.4469 L -37.6884,-16.4941
 L -37.3116,-16.4941 L -36.9379,-16.4469 L -36.5729,-16.3532 L -36.2227,-16.2145 L -35.8925,-16.033 L -35.5877,-15.8115
 L -35.3131,-15.5536 L -35.0729,-15.2634 L -34.8711,-14.9453 L -34.7107,-14.6044 L -34.5942,-14.2461 L -34.5237,-13.876
 L -34.5,-13.5 L -34.5237,-13.124 L -34.5942,-12.7539 L -34.7107,-12.3956 L -34.8711,-12.0547 L -34.9693,-11.9
 L -34.9693,-9 L -30.4809,-9 L -30.4809,-2.82999 L -34.9693,-2.82999 L -34.9693,-0 L -25.0307,-0
 L -25.0307,-11.9 L -25.1289,-12.0547 L -25.2893,-12.3956 L -25.4057,-12.7539 L -25.4763,-13.124 L -25.5,-13.5
 L -25.4763,-13.876 L -25.4057,-14.2461 L -25.2893,-14.6044 L -25.1289,-14.9453 L -24.927,-15.2634 L -24.6869,-15.5536
 L -24.4123,-15.8115 L -24.1075,-16.033 L -23.7773,-16.2145 L -23.427,-16.3532 L -23.0621,-16.4469 L -22.6884,-16.4941
 L -22.3116,-16.4941 L -21.9379,-16.4469 L -21.5729,-16.3532 L -21.2227,-16.2145 L -20.8925,-16.033 L -20.5877,-15.8115
 L -20.3131,-15.5536 L -20.0729,-15.2634 L -19.8711,-14.9453 L -19.7107,-14.6044 L -19.5942,-14.2461 L -19.5237,-13.876
 L -19.5,-13.5 L -19.5237,-13.124 L -19.5942,-12.7539 L -19.7107,-12.3956 L -19.8711,-12.0547 L -19.9693,-11.9
 L -19.9693,-9 L -15.4809,-9 L -15.4809,-2.82999 L -19.9693,-2.82999 L -19.9693,-0 L -10.0307,-0
 L -10.0307,-11.9 L -10.1289,-12.0547 L -10.2893,-12.3956 L -10.4057,-12.7539 L -10.4763,-13.124 L -10.5,-13.5
 L -10.4763,-13.876 L -10.4057,-14.2461 L -10.2893,-14.6044 L -10.1289,-14.9453 L -9.92705,-15.2634 L -9.6869,-15.5536
 L -9.41226,-15.8115 L -9.10747,-16.033 L -8.77733,-16.2145 L -8.42705,-16.3532 L -8.06213,-16.4469 L -7.68837,-16.4941
 L -7.31161,-16.4941 L -6.93785,-16.4469 L -6.57294,-16.3532 L -6.22266,-16.2145 L -5.89252,-16.033 L -5.58772,-15.8115
 L -5.31308,-15.5536 L -5.07294,-15.2634 L -4.87108,-14.9453 L -4.71066,-14.6044 L -4.59424,-14.2461 L -4.52365,-13.876
 L -4.5,-13.5 L -4.52365,-13.124 L -4.59424,-12.7539 L -4.71066,-12.3956 L -4.87108,-12.0547 L -4.96927,-11.9
 L -4.96927,-9 L -0.480927,-9 L -0.480927,-2.82999 L -4.96927,-2.82999 L -4.96927,-0 L 4.96927,-0
 L 4.96927,-11.9 L 4.87108,-12.0547 L 4.71066,-12.3956 L 4.59424,-12.7539 L 4.52365,-13.124 L 4.5,-13.5
 L 4.52365,-13.876 L 4.59424,-14.2461 L 4.71066,-14.6044 L 4.87108,-14.9453 L 5.07294,-15.2634 L 5.31308,-15.5536
 L 5.58772,-15.8115 L 5.89252,-16.033 L 6.22266,-16.2145 L 6.57294,-16.3532 L 6.93785,-16.4469 L 7.31161,-16.4941
 L 7.68837,-16.4941 L 8.06213,-16.4469 L 8.42705,-16.3532 L 8.77733,-16.2145 L 9.10747,-16.033 L 9.41226,-15.8115
 L 9.6869,-15.5536 L 9.92705,-15.2634 L 10.1289,-14.9453 L 10.2893,-14.6044 L 10.4057,-14.2461 L 10.4763,-13.876
 L 10.5,-13.5 L 10.4763,-13.124 L 10.4057,-12.7539 L 10.2893,-12.3956 L 10.1289,-12.0547 L 10.0307,-11.9
 L 10.0307,-9 L 14.5191,-9 L 14.5191,-2.82999 L 10.0307,-2.82999 L 10.0307,-0 L 19.9693,-0
 L 19.9693,-11.9 L 19.8711,-12.0547 L 19.7107,-12.3956 L 19.5942,-12.7539 L 19.5237,-13.124 L 19.5,-13.5
 L 19.5237,-13.876 L 19.5942,-14.2461 L 19.7107,-14.6044 L 19.8711,-14.9453 L 20.0729,-15.2634 L 20.3131,-15.5536
 L 20.5877,-15.8115 L 20.8925,-16.033 L 21.2227,-16.2145 L 21.5729,-16.3532 L 21.9379,-16.4469 L 22.3116,-16.4941
 L 22.6884,-16.4941 L 23.0621,-16.4469 L 23.427,-16.3532 L 23.7773,-16.2145 L 24.1075,-16.033 L 24.4123,-15.8115
 L 24.6869,-15.5536 L 24.927,-15.2634 L 25.1289,-14.9453 L 25.2893,-14.6044 L 25.4057,-14.2461 L 25.4763,-13.876
 L 25.5,-13.5 L 25.4763,-13.124 L 25.4057,-12.7539 L 25.2893,-12.3956 L 25.1289,-12.0547 L 25.0307,-11.9
 L 25.0307,-9 L 29.5191,-9 L 29.5191,-2.82999 L 25.0307,-2.82999 L 25.0307,-0 L 34.9693,-0
 L 34.9693,-11.9 L 34.8711,-12.0547 L 34.7107,-12.3956 L 34.5942,-12.7539 L 34.5237,-13.124 L 34.5,-13.5
 L 34.5237,-13.876 L 34.5942,-14.2461 L 34.7107,-14.6044 L 34.8711,-14.9453 L 35.0729,-15.2634 L 35.3131,-15.5536
 L 35.5877,-15.8115 L 35.8925,-16.033 L 36.2227,-16.2145 L 36.5729,-16.3532 L 36.9379,-16.4469 L 37.3116,-16.4941
 L 37.6884,-16.4941 L 38.0621,-16.4469 L 38.427,-16.3532 L 38.7773,-16.2145 L 39.1075,-16.033 L 39.4123,-15.8115
 L 39.6869,-15.5536 L 39.927,-15.2634 L 40.1289,-14.9453 L 40.2893,-14.6044 L 40.4057,-14.2461 L 40.4763,-13.876
 L 40.5,-13.5 L 40.4763,-13.124 L 40.4057,-12.7539 L 40.2893,-12.3956 L 40.1289,-12.0547 L 40.0307,-11.9
 L 40.0307,-9 L 44.5,-9 L 44.5,-15.5 L 44.4606,-16.1267 L 44.3429,-16.7434 L 44.1489,-17.3406
 L 43.8815,-17.9088 L 43.5451,-18.4389 L 43.1448,-18.9227 L 42.6871,-19.3526 L 42.1791,-19.7216 L 41.6289,-20.0241
 L 41.0451,-20.2553 L 40.4369,-20.4114 L 39.8139,-20.4901 L -39.8139,-20.4901 L -40.4369,-20.4114 L -41.0451,-20.2553
 L -41.6289,-20.0241 L -42.1791,-19.7216 L -42.6871,-19.3526 L -43.1448,-18.9227 L -43.5451,-18.4389 L -43.8815,-17.9088
 L -44.1489,-17.3406 L -44.3429,-16.7434 L -44.4606,-16.1267 L -44.5,-15.5 L -44.5,-0 L -40.0307,-0
 z
M 44.5,-2.82999 L 40.0307,-2.82999 L 40.0307,-0 L 44.5,-0 z
" stroke="black" fill="lightgray" stroke-width="0.5"/>
</svg>
