  0
SECTION
  2
BLOCKS
  0
ENDSEC
  0
SECTION
  2
ENTITIES
  0
LINE
  8
0
 10
4.02869
 20
308.881
 11
6.64386
 21
309.552
  0
LINE
  8
0
 10
6.64386
 20
309.552
 11
9.15425
 21
310.546
  0
LINE
  8
0
 10
9.15425
 20
310.546
 11
11.5203
 21
311.847
  0
LINE
  8
0
 10
11.5203
 20
311.847
 11
13.7046
 21
313.434
  0
LINE
  8
0
 10
13.7046
 20
313.434
 11
15.6728
 21
315.282
  0
LINE
  8
0
 10
15.6728
 20
315.282
 11
17.3939
 21
317.363
  0
LINE
  8
0
 10
17.3939
 20
317.363
 11
18.8406
 21
319.642
  0
LINE
  8
0
 10
18.8406
 20
319.642
 11
19.9902
 21
322.085
  0
LINE
  8
0
 10
19.9902
 20
322.085
 11
20.8245
 21
324.653
  0
LINE
  8
0
 10
20.8245
 20
324.653
 11
21.3305
 21
327.305
  0
LINE
  8
0
 10
21.3305
 20
327.305
 11
21.5
 21
330
  0
LINE
  8
0
 10
21.5
 20
330
 11
21.3305
 21
332.695
  0
LINE
  8
0
 10
21.3305
 20
332.695
 11
20.8245
 21
335.347
  0
LINE
  8
0
 10
20.8245
 20
335.347
 11
19.9902
 21
337.915
  0
LINE
  8
0
 10
19.9902
 20
337.915
 11
18.8406
 21
340.358
  0
LINE
  8
0
 10
18.8406
 20
340.358
 11
17.3939
 21
342.637
  0
LINE
  8
0
 10
17.3939
 20
342.637
 11
15.6728
 21
344.718
  0
LINE
  8
0
 10
15.6728
 20
344.718
 11
13.7046
 21
346.566
  0
LINE
  8
0
 10
13.7046
 20
346.566
 11
11.5203
 21
348.153
  0
LINE
  8
0
 10
11.5203
 20
348.153
 11
9.15425
 21
349.454
  0
LINE
  8
0
 10
9.15425
 20
349.454
 11
6.64386
 21
350.448
  0
LINE
  8
0
 10
6.64386
 20
350.448
 11
4.02869
 21
351.119
  0
LINE
  8
0
 10
4.02869
 20
351.119
 11
1.34999
 21
351.458
  0
LINE
  8
0
 10
1.34999
 20
351.458
 11
-1.34999
 21
351.458
  0
LINE
  8
0
 10
-1.34999
 20
351.458
 11
-4.02869
 21
351.119
  0
LINE
  8
0
 10
-4.02869
 20
351.119
 11
-6.64386
 21
350.448
  0
LINE
  8
0
 10
-6.64386
 20
350.448
 11
-9.15425
 21
349.454
  0
LINE
  8
0
 10
-9.15425
 20
349.454
 11
-11.5203
 21
348.153
  0
LINE
  8
0
 10
-11.5203
 20
348.153
 11
-13.7046
 21
346.566
  0
LINE
  8
0
 10
-13.7046
 20
346.566
 11
-15.6728
 21
344.718
  0
LINE
  8
0
 10
-15.6728
 20
344.718
 11
-17.3939
 21
342.637
  0
LINE
  8
0
 10
-17.3939
 20
342.637
 11
-18.8406
 21
340.358
  0
LINE
  8
0
 10
-18.8406
 20
340.358
 11
-19.9902
 21
337.915
  0
LINE
  8
0
 10
-19.9902
 20
337.915
 11
-20.8245
 21
335.347
  0
LINE
  8
0
 10
-20.8245
 20
335.347
 11
-21.3305
 21
332.695
  0
LINE
  8
0
 10
-21.3305
 20
332.695
 11
-21.5
 21
330
  0
LINE
  8
0
 10
-21.5
 20
330
 11
-21.3305
 21
327.305
  0
LINE
  8
0
 10
-21.3305
 20
327.305
 11
-20.8245
 21
324.653
  0
LINE
  8
0
 10
-20.8245
 20
324.653
 11
-19.9902
 21
322.085
  0
LINE
  8
0
 10
-19.9902
 20
322.085
 11
-18.8406
 21
319.642
  0
LINE
  8
0
 10
-18.8406
 20
319.642
 11
-17.3939
 21
317.363
  0
LINE
  8
0
 10
-17.3939
 20
317.363
 11
-15.6728
 21
315.282
  0
LINE
  8
0
 10
-15.6728
 20
315.282
 11
-13.7046
 21
313.434
  0
LINE
  8
0
 10
-13.7046
 20
313.434
 11
-11.5203
 21
311.847
  0
LINE
  8
0
 10
-11.5203
 20
311.847
 11
-9.15425
 21
310.546
  0
LINE
  8
0
 10
-9.15425
 20
310.546
 11
-6.64386
 21
309.552
  0
LINE
  8
0
 10
-6.64386
 20
309.552
 11
-4.02869
 21
308.881
  0
LINE
  8
0
 10
-4.02869
 20
308.881
 11
-1.34999
 21
308.542
  0
LINE
  8
0
 10
-1.34999
 20
308.542
 11
1.34999
 21
308.542
  0
LINE
  8
0
 10
1.34999
 20
308.542
 11
4.02869
 21
308.881
  0
LINE
  8
0
 10
-0.18837
 20
342.006
 11
-0.562134
 21
342.053
  0
LINE
  8
0
 10
-0.562134
 20
342.053
 11
-0.927048
 21
342.147
  0
LINE
  8
0
 10
-0.927048
 20
342.147
 11
-1.27733
 21
342.286
  0
LINE
  8
0
 10
-1.27733
 20
342.286
 11
-1.60747
 21
342.467
  0
LINE
  8
0
 10
-1.60747
 20
342.467
 11
-1.91226
 21
342.688
  0
LINE
  8
0
 10
-1.91226
 20
342.688
 11
-2.1869
 21
342.946
  0
LINE
  8
0
 10
-2.1869
 20
342.946
 11
-2.42705
 21
343.237
  0
LINE
  8
0
 10
-2.42705
 20
343.237
 11
-2.62891
 21
343.555
  0
LINE
  8
0
 10
-2.62891
 20
343.555
 11
-2.78932
 21
343.896
  0
LINE
  8
0
 10
-2.78932
 20
343.896
 11
-2.90575
 21
344.254
  0
LINE
  8
0
 10
-2.90575
 20
344.254
 11
-2.97633
 21
344.624
  0
LINE
  8
0
 10
-2.97633
 20
344.624
 11
-3
 21
345
  0
LINE
  8
0
 10
-3
 20
345
 11
-2.97633
 21
345.376
  0
LINE
  8
0
 10
-2.97633
 20
345.376
 11
-2.90575
 21
345.746
  0
LINE
  8
0
 10
-2.90575
 20
345.746
 11
-2.78932
 21
346.104
  0
LINE
  8
0
 10
-2.78932
 20
346.104
 11
-2.62891
 21
346.445
  0
LINE
  8
0
 10
-2.62891
 20
346.445
 11
-2.42705
 21
346.763
  0
LINE
  8
0
 10
-2.42705
 20
346.763
 11
-2.1869
 21
347.054
  0
LINE
  8
0
 10
-2.1869
 20
347.054
 11
-1.91226
 21
347.312
  0
LINE
  8
0
 10
-1.91226
 20
347.312
 11
-1.60747
 21
347.533
  0
LINE
  8
0
 10
-1.60747
 20
347.533
 11
-1.27733
 21
347.714
  0
LINE
  8
0
 10
-1.27733
 20
347.714
 11
-0.927048
 21
347.853
  0
LINE
  8
0
 10
-0.927048
 20
347.853
 11
-0.562134
 21
347.947
  0
LINE
  8
0
 10
-0.562134
 20
347.947
 11
-0.18837
 21
347.994
  0
LINE
  8
0
 10
-0.18837
 20
347.994
 11
0.18837
 21
347.994
  0
LINE
  8
0
 10
0.18837
 20
347.994
 11
0.562134
 21
347.947
  0
LINE
  8
0
 10
0.562134
 20
347.947
 11
0.927048
 21
347.853
  0
LINE
  8
0
 10
0.927048
 20
347.853
 11
1.27733
 21
347.714
  0
LINE
  8
0
 10
1.27733
 20
347.714
 11
1.60747
 21
347.533
  0
LINE
  8
0
 10
1.60747
 20
347.533
 11
1.91226
 21
347.312
  0
LINE
  8
0
 10
1.91226
 20
347.312
 11
2.1869
 21
347.054
  0
LINE
  8
0
 10
2.1869
 20
347.054
 11
2.42705
 21
346.763
  0
LINE
  8
0
 10
2.42705
 20
346.763
 11
2.62891
 21
346.445
  0
LINE
  8
0
 10
2.62891
 20
346.445
 11
2.78932
 21
346.104
  0
LINE
  8
0
 10
2.78932
 20
346.104
 11
2.90575
 21
345.746
  0
LINE
  8
0
 10
2.90575
 20
345.746
 11
2.97633
 21
345.376
  0
LINE
  8
0
 10
2.97633
 20
345.376
 11
3
 21
345
  0
LINE
  8
0
 10
3
 20
345
 11
2.97633
 21
344.624
  0
LINE
  8
0
 10
2.97633
 20
344.624
 11
2.90575
 21
344.254
  0
LINE
  8
0
 10
2.90575
 20
344.254
 11
2.78932
 21
343.896
  0
LINE
  8
0
 10
2.78932
 20
343.896
 11
2.62891
 21
343.555
  0
LINE
  8
0
 10
2.62891
 20
343.555
 11
2.42705
 21
343.237
  0
LINE
  8
0
 10
2.42705
 20
343.237
 11
2.1869
 21
342.946
  0
LINE
  8
0
 10
2.1869
 20
342.946
 11
1.91226
 21
342.688
  0
LINE
  8
0
 10
1.91226
 20
342.688
 11
1.60747
 21
342.467
  0
LINE
  8
0
 10
1.60747
 20
342.467
 11
1.27733
 21
342.286
  0
LINE
  8
0
 10
1.27733
 20
342.286
 11
0.927048
 21
342.147
  0
LINE
  8
0
 10
0.927048
 20
342.147
 11
0.562134
 21
342.053
  0
LINE
  8
0
 10
0.562134
 20
342.053
 11
0.18837
 21
342.006
  0
LINE
  8
0
 10
0.18837
 20
342.006
 11
-0.18837
 21
342.006
  0
LINE
  8
0
 10
10.2067
 20
338.241
 11
9.91331
 21
338.309
  0
LINE
  8
0
 10
9.91331
 20
338.309
 11
9.63083
 21
338.414
  0
LINE
  8
0
 10
9.63083
 20
338.414
 11
9.36372
 21
338.554
  0
LINE
  8
0
 10
9.36372
 20
338.554
 11
9.11624
 21
338.726
  0
LINE
  8
0
 10
9.11624
 20
338.726
 11
8.89226
 21
338.928
  0
LINE
  8
0
 10
8.89226
 20
338.928
 11
8.69533
 21
339.156
  0
LINE
  8
0
 10
8.69533
 20
339.156
 11
8.52853
 21
339.407
  0
LINE
  8
0
 10
8.52853
 20
339.407
 11
8.39452
 21
339.677
  0
LINE
  8
0
 10
8.39452
 20
339.677
 11
8.29539
 21
339.962
  0
LINE
  8
0
 10
8.29539
 20
339.962
 11
8.23274
 21
340.256
  0
LINE
  8
0
 10
8.23274
 20
340.256
 11
8.20752
 21
340.557
  0
LINE
  8
0
 10
8.20752
 20
340.557
 11
8.22014
 21
340.858
  0
LINE
  8
0
 10
8.22014
 20
340.858
 11
8.2704
 21
341.155
  0
LINE
  8
0
 10
8.2704
 20
341.155
 11
8.35751
 21
341.444
  0
LINE
  8
0
 10
8.35751
 20
341.444
 11
8.4801
 21
341.719
  0
LINE
  8
0
 10
8.4801
 20
341.719
 11
8.63623
 21
341.977
  0
LINE
  8
0
 10
8.63623
 20
341.977
 11
8.82344
 21
342.213
  0
LINE
  8
0
 10
8.82344
 20
342.213
 11
9.03879
 21
342.424
  0
LINE
  8
0
 10
9.03879
 20
342.424
 11
9.27885
 21
342.606
  0
LINE
  8
0
 10
9.27885
 20
342.606
 11
9.53987
 21
342.757
  0
LINE
  8
0
 10
9.53987
 20
342.757
 11
9.81772
 21
342.873
  0
LINE
  8
0
 10
9.81772
 20
342.873
 11
10.108
 21
342.955
  0
LINE
  8
0
 10
10.108
 20
342.955
 11
10.4062
 21
342.999
  0
LINE
  8
0
 10
10.4062
 20
342.999
 11
10.7075
 21
343.005
  0
LINE
  8
0
 10
10.7075
 20
343.005
 11
11.0072
 21
342.973
  0
LINE
  8
0
 10
11.0072
 20
342.973
 11
11.3007
 21
342.905
  0
LINE
  8
0
 10
11.3007
 20
342.905
 11
11.5832
 21
342.799
  0
LINE
  8
0
 10
11.5832
 20
342.799
 11
11.8503
 21
342.66
  0
LINE
  8
0
 10
11.8503
 20
342.66
 11
12.0977
 21
342.488
  0
LINE
  8
0
 10
12.0977
 20
342.488
 11
12.3217
 21
342.286
  0
LINE
  8
0
 10
12.3217
 20
342.286
 11
12.5187
 21
342.058
  0
LINE
  8
0
 10
12.5187
 20
342.058
 11
12.6855
 21
341.807
  0
LINE
  8
0
 10
12.6855
 20
341.807
 11
12.8195
 21
341.537
  0
LINE
  8
0
 10
12.8195
 20
341.537
 11
12.9186
 21
341.252
  0
LINE
  8
0
 10
12.9186
 20
341.252
 11
12.9812
 21
340.958
  0
LINE
  8
0
 10
12.9812
 20
340.958
 11
13.0065
 21
340.657
  0
LINE
  8
0
 10
13.0065
 20
340.657
 11
12.9939
 21
340.356
  0
LINE
  8
0
 10
12.9939
 20
340.356
 11
12.9436
 21
340.059
  0
LINE
  8
0
 10
12.9436
 20
340.059
 11
12.8565
 21
339.77
  0
LINE
  8
0
 10
12.8565
 20
339.77
 11
12.7339
 21
339.495
  0
LINE
  8
0
 10
12.7339
 20
339.495
 11
12.5777
 21
339.237
  0
LINE
  8
0
 10
12.5777
 20
339.237
 11
12.3905
 21
339.001
  0
LINE
  8
0
 10
12.3905
 20
339.001
 11
12.1752
 21
338.79
  0
LINE
  8
0
 10
12.1752
 20
338.79
 11
11.9351
 21
338.608
  0
LINE
  8
0
 10
11.9351
 20
338.608
 11
11.6741
 21
338.457
  0
LINE
  8
0
 10
11.6741
 20
338.457
 11
11.3963
 21
338.34
  0
LINE
  8
0
 10
11.3963
 20
338.34
 11
11.106
 21
338.259
  0
LINE
  8
0
 10
11.106
 20
338.259
 11
10.8078
 21
338.215
  0
LINE
  8
0
 10
10.8078
 20
338.215
 11
10.5065
 21
338.209
  0
LINE
  8
0
 10
10.5065
 20
338.209
 11
10.2067
 21
338.241
  0
LINE
  8
0
 10
-11.0072
 20
338.241
 11
-11.3007
 21
338.309
  0
LINE
  8
0
 10
-11.3007
 20
338.309
 11
-11.5832
 21
338.414
  0
LINE
  8
0
 10
-11.5832
 20
338.414
 11
-11.8503
 21
338.554
  0
LINE
  8
0
 10
-11.8503
 20
338.554
 11
-12.0977
 21
338.726
  0
LINE
  8
0
 10
-12.0977
 20
338.726
 11
-12.3217
 21
338.928
  0
LINE
  8
0
 10
-12.3217
 20
338.928
 11
-12.5187
 21
339.156
  0
LINE
  8
0
 10
-12.5187
 20
339.156
 11
-12.6855
 21
339.407
  0
LINE
  8
0
 10
-12.6855
 20
339.407
 11
-12.8195
 21
339.677
  0
LINE
  8
0
 10
-12.8195
 20
339.677
 11
-12.9186
 21
339.962
  0
LINE
  8
0
 10
-12.9186
 20
339.962
 11
-12.9812
 21
340.256
  0
LINE
  8
0
 10
-12.9812
 20
340.256
 11
-13.0065
 21
340.557
  0
LINE
  8
0
 10
-13.0065
 20
340.557
 11
-12.9939
 21
340.858
  0
LINE
  8
0
 10
-12.9939
 20
340.858
 11
-12.9436
 21
341.155
  0
LINE
  8
0
 10
-12.9436
 20
341.155
 11
-12.8565
 21
341.444
  0
LINE
  8
0
 10
-12.8565
 20
341.444
 11
-12.7339
 21
341.719
  0
LINE
  8
0
 10
-12.7339
 20
341.719
 11
-12.5777
 21
341.977
  0
LINE
  8
0
 10
-12.5777
 20
341.977
 11
-12.3905
 21
342.213
  0
LINE
  8
0
 10
-12.3905
 20
342.213
 11
-12.1752
 21
342.424
  0
LINE
  8
0
 10
-12.1752
 20
342.424
 11
-11.9351
 21
342.606
  0
LINE
  8
0
 10
-11.9351
 20
342.606
 11
-11.6741
 21
342.757
  0
LINE
  8
0
 10
-11.6741
 20
342.757
 11
-11.3963
 21
342.873
  0
LINE
  8
0
 10
-11.3963
 20
342.873
 11
-11.106
 21
342.955
  0
LINE
  8
0
 10
-11.106
 20
342.955
 11
-10.8078
 21
342.999
  0
LINE
  8
0
 10
-10.8078
 20
342.999
 11
-10.5065
 21
343.005
  0
LINE
  8
0
 10
-10.5065
 20
343.005
 11
-10.2067
 21
342.973
  0
LINE
  8
0
 10
-10.2067
 20
342.973
 11
-9.91331
 21
342.905
  0
LINE
  8
0
 10
-9.91331
 20
342.905
 11
-9.63083
 21
342.799
  0
LINE
  8
0
 10
-9.63083
 20
342.799
 11
-9.36372
 21
342.66
  0
LINE
  8
0
 10
-9.36372
 20
342.66
 11
-9.11624
 21
342.488
  0
LINE
  8
0
 10
-9.11624
 20
342.488
 11
-8.89226
 21
342.286
  0
LINE
  8
0
 10
-8.89226
 20
342.286
 11
-8.69533
 21
342.058
  0
LINE
  8
0
 10
-8.69533
 20
342.058
 11
-8.52853
 21
341.807
  0
LINE
  8
0
 10
-8.52853
 20
341.807
 11
-8.39452
 21
341.537
  0
LINE
  8
0
 10
-8.39452
 20
341.537
 11
-8.29539
 21
341.252
  0
LINE
  8
0
 10
-8.29539
 20
341.252
 11
-8.23274
 21
340.958
  0
LINE
  8
0
 10
-8.23274
 20
340.958
 11
-8.20752
 21
340.657
  0
LINE
  8
0
 10
-8.20752
 20
340.657
 11
-8.22014
 21
340.356
  0
LINE
  8
0
 10
-8.22014
 20
340.356
 11
-8.2704
 21
340.059
  0
LINE
  8
0
 10
-8.2704
 20
340.059
 11
-8.35751
 21
339.77
  0
LINE
  8
0
 10
-8.35751
 20
339.77
 11
-8.4801
 21
339.495
  0
LINE
  8
0
 10
-8.4801
 20
339.495
 11
-8.63623
 21
339.237
  0
LINE
  8
0
 10
-8.63623
 20
339.237
 11
-8.82344
 21
339.001
  0
LINE
  8
0
 10
-8.82344
 20
339.001
 11
-9.03879
 21
338.79
  0
LINE
  8
0
 10
-9.03879
 20
338.79
 11
-9.27885
 21
338.608
  0
LINE
  8
0
 10
-9.27885
 20
338.608
 11
-9.53987
 21
338.457
  0
LINE
  8
0
 10
-9.53987
 20
338.457
 11
-9.81772
 21
338.34
  0
LINE
  8
0
 10
-9.81772
 20
338.34
 11
-10.108
 21
338.259
  0
LINE
  8
0
 10
-10.108
 20
338.259
 11
-10.4062
 21
338.215
  0
LINE
  8
0
 10
-10.4062
 20
338.215
 11
-10.7075
 21
338.209
  0
LINE
  8
0
 10
-10.7075
 20
338.209
 11
-11.0072
 21
338.241
  0
LINE
  8
0
 10
-0.392426
 20
323.762
 11
-1.17113
 21
323.861
  0
LINE
  8
0
 10
-1.17113
 20
323.861
 11
-1.93135
 21
324.056
  0
LINE
  8
0
 10
-1.93135
 20
324.056
 11
-2.66112
 21
324.345
  0
LINE
  8
0
 10
-2.66112
 20
324.345
 11
-3.34891
 21
324.723
  0
LINE
  8
0
 10
-3.34891
 20
324.723
 11
-3.98389
 21
325.184
  0
LINE
  8
0
 10
-3.98389
 20
325.184
 11
-4.55605
 21
325.722
  0
LINE
  8
0
 10
-4.55605
 20
325.722
 11
-5.05635
 21
326.326
  0
LINE
  8
0
 10
-5.05635
 20
326.326
 11
-5.47691
 21
326.989
  0
LINE
  8
0
 10
-5.47691
 20
326.989
 11
-5.8111
 21
327.699
  0
LINE
  8
0
 10
-5.8111
 20
327.699
 11
-6.05363
 21
328.446
  0
LINE
  8
0
 10
-6.05363
 20
328.446
 11
-6.20071
 21
329.217
  0
LINE
  8
0
 10
-6.20071
 20
329.217
 11
-6.25
 21
330
  0
LINE
  8
0
 10
-6.25
 20
330
 11
-6.20071
 21
330.783
  0
LINE
  8
0
 10
-6.20071
 20
330.783
 11
-6.05363
 21
331.554
  0
LINE
  8
0
 10
-6.05363
 20
331.554
 11
-5.8111
 21
332.301
  0
LINE
  8
0
 10
-5.8111
 20
332.301
 11
-5.47691
 21
333.011
  0
LINE
  8
0
 10
-5.47691
 20
333.011
 11
-5.05635
 21
333.674
  0
LINE
  8
0
 10
-5.05635
 20
333.674
 11
-4.55605
 21
334.278
  0
LINE
  8
0
 10
-4.55605
 20
334.278
 11
-3.98389
 21
334.816
  0
LINE
  8
0
 10
-3.98389
 20
334.816
 11
-3.34891
 21
335.277
  0
LINE
  8
0
 10
-3.34891
 20
335.277
 11
-2.66112
 21
335.655
  0
LINE
  8
0
 10
-2.66112
 20
335.655
 11
-1.93135
 21
335.944
  0
LINE
  8
0
 10
-1.93135
 20
335.944
 11
-1.17113
 21
336.139
  0
LINE
  8
0
 10
-1.17113
 20
336.139
 11
-0.392426
 21
336.238
  0
LINE
  8
0
 10
-0.392426
 20
336.238
 11
0.392426
 21
336.238
  0
LINE
  8
0
 10
0.392426
 20
336.238
 11
1.17113
 21
336.139
  0
LINE
  8
0
 10
1.17113
 20
336.139
 11
1.93135
 21
335.944
  0
LINE
  8
0
 10
1.93135
 20
335.944
 11
2.66112
 21
335.655
  0
LINE
  8
0
 10
2.66112
 20
335.655
 11
3.34891
 21
335.277
  0
LINE
  8
0
 10
3.34891
 20
335.277
 11
3.98389
 21
334.816
  0
LINE
  8
0
 10
3.98389
 20
334.816
 11
4.55605
 21
334.278
  0
LINE
  8
0
 10
4.55605
 20
334.278
 11
5.05635
 21
333.674
  0
LINE
  8
0
 10
5.05635
 20
333.674
 11
5.47691
 21
333.011
  0
LINE
  8
0
 10
5.47691
 20
333.011
 11
5.8111
 21
332.301
  0
LINE
  8
0
 10
5.8111
 20
332.301
 11
6.05363
 21
331.554
  0
LINE
  8
0
 10
6.05363
 20
331.554
 11
6.20071
 21
330.783
  0
LINE
  8
0
 10
6.20071
 20
330.783
 11
6.25
 21
330
  0
LINE
  8
0
 10
6.25
 20
330
 11
6.20071
 21
329.217
  0
LINE
  8
0
 10
6.20071
 20
329.217
 11
6.05363
 21
328.446
  0
LINE
  8
0
 10
6.05363
 20
328.446
 11
5.8111
 21
327.699
  0
LINE
  8
0
 10
5.8111
 20
327.699
 11
5.47691
 21
326.989
  0
LINE
  8
0
 10
5.47691
 20
326.989
 11
5.05635
 21
326.326
  0
LINE
  8
0
 10
5.05635
 20
326.326
 11
4.55605
 21
325.722
  0
LINE
  8
0
 10
4.55605
 20
325.722
 11
3.98389
 21
325.184
  0
LINE
  8
0
 10
3.98389
 20
325.184
 11
3.34891
 21
324.723
  0
LINE
  8
0
 10
3.34891
 20
324.723
 11
2.66112
 21
324.345
  0
LINE
  8
0
 10
2.66112
 20
324.345
 11
1.93135
 21
324.056
  0
LINE
  8
0
 10
1.93135
 20
324.056
 11
1.17113
 21
323.861
  0
LINE
  8
0
 10
1.17113
 20
323.861
 11
0.392426
 21
323.762
  0
LINE
  8
0
 10
0.392426
 20
323.762
 11
-0.392426
 21
323.762
  0
LINE
  8
0
 10
0.983749
 20
324.843
 11
1.62233
 21
325.007
  0
LINE
  8
0
 10
1.62233
 20
325.007
 11
2.23534
 21
325.25
  0
LINE
  8
0
 10
2.23534
 20
325.25
 11
2.81308
 21
325.567
  0
LINE
  8
0
 10
2.81308
 20
325.567
 11
3.34647
 21
325.955
  0
LINE
  8
0
 10
3.34647
 20
325.955
 11
3.82707
 21
326.406
  0
LINE
  8
0
 10
3.82707
 20
326.406
 11
4.24733
 21
326.914
  0
LINE
  8
0
 10
4.24733
 20
326.914
 11
4.6006
 21
327.471
  0
LINE
  8
0
 10
4.6006
 20
327.471
 11
4.88132
 21
328.067
  0
LINE
  8
0
 10
4.88132
 20
328.067
 11
5.08505
 21
328.694
  0
LINE
  8
0
 10
5.08505
 20
328.694
 11
5.20859
 21
329.342
  0
LINE
  8
0
 10
5.20859
 20
329.342
 11
5.25
 21
330
  0
LINE
  8
0
 10
5.25
 20
330
 11
5.20859
 21
330.658
  0
LINE
  8
0
 10
5.20859
 20
330.658
 11
5.08505
 21
331.306
  0
LINE
  8
0
 10
5.08505
 20
331.306
 11
4.88132
 21
331.933
  0
LINE
  8
0
 10
4.88132
 20
331.933
 11
4.6006
 21
332.529
  0
LINE
  8
0
 10
4.6006
 20
332.529
 11
4.24733
 21
333.086
  0
LINE
  8
0
 10
4.24733
 20
333.086
 11
3.82707
 21
333.594
  0
LINE
  8
0
 10
3.82707
 20
333.594
 11
3.34647
 21
334.045
  0
LINE
  8
0
 10
3.34647
 20
334.045
 11
2.81308
 21
334.433
  0
LINE
  8
0
 10
2.81308
 20
334.433
 11
2.23534
 21
334.75
  0
LINE
  8
0
 10
2.23534
 20
334.75
 11
1.62233
 21
334.993
  0
LINE
  8
0
 10
1.62233
 20
334.993
 11
0.983749
 21
335.157
  0
LINE
  8
0
 10
0.983749
 20
335.157
 11
0.329636
 21
335.24
  0
LINE
  8
0
 10
0.329636
 20
335.24
 11
-0.329636
 21
335.24
  0
LINE
  8
0
 10
-0.329636
 20
335.24
 11
-0.983749
 21
335.157
  0
LINE
  8
0
 10
-0.983749
 20
335.157
 11
-1.62233
 21
334.993
  0
LINE
  8
0
 10
-1.62233
 20
334.993
 11
-2.23534
 21
334.75
  0
LINE
  8
0
 10
-2.23534
 20
334.75
 11
-2.81308
 21
334.433
  0
LINE
  8
0
 10
-2.81308
 20
334.433
 11
-3.34647
 21
334.045
  0
LINE
  8
0
 10
-3.34647
 20
334.045
 11
-3.82707
 21
333.594
  0
LINE
  8
0
 10
-3.82707
 20
333.594
 11
-4.24733
 21
333.086
  0
LINE
  8
0
 10
-4.24733
 20
333.086
 11
-4.6006
 21
332.529
  0
LINE
  8
0
 10
-4.6006
 20
332.529
 11
-4.88132
 21
331.933
  0
LINE
  8
0
 10
-4.88132
 20
331.933
 11
-5.08505
 21
331.306
  0
LINE
  8
0
 10
-5.08505
 20
331.306
 11
-5.20859
 21
330.658
  0
LINE
  8
0
 10
-5.20859
 20
330.658
 11
-5.25
 21
330
  0
LINE
  8
0
 10
-5.25
 20
330
 11
-5.20859
 21
329.342
  0
LINE
  8
0
 10
-5.20859
 20
329.342
 11
-5.08505
 21
328.694
  0
LINE
  8
0
 10
-5.08505
 20
328.694
 11
-4.88132
 21
328.067
  0
LINE
  8
0
 10
-4.88132
 20
328.067
 11
-4.6006
 21
327.471
  0
LINE
  8
0
 10
-4.6006
 20
327.471
 11
-4.24733
 21
326.914
  0
LINE
  8
0
 10
-4.24733
 20
326.914
 11
-3.82707
 21
326.406
  0
LINE
  8
0
 10
-3.82707
 20
326.406
 11
-3.34647
 21
325.955
  0
LINE
  8
0
 10
-3.34647
 20
325.955
 11
-2.81308
 21
325.567
  0
LINE
  8
0
 10
-2.81308
 20
325.567
 11
-2.23534
 21
325.25
  0
LINE
  8
0
 10
-2.23534
 20
325.25
 11
-1.62233
 21
325.007
  0
LINE
  8
0
 10
-1.62233
 20
325.007
 11
-0.983749
 21
324.843
  0
LINE
  8
0
 10
-0.983749
 20
324.843
 11
-0.329636
 21
324.76
  0
LINE
  8
0
 10
-0.329636
 20
324.76
 11
0.329636
 21
324.76
  0
LINE
  8
0
 10
0.329636
 20
324.76
 11
0.983749
 21
324.843
  0
LINE
  8
0
 10
-0.18837
 20
327.006
 11
-0.562134
 21
327.053
  0
LINE
  8
0
 10
-0.562134
 20
327.053
 11
-0.927048
 21
327.147
  0
LINE
  8
0
 10
-0.927048
 20
327.147
 11
-1.27733
 21
327.286
  0
LINE
  8
0
 10
-1.27733
 20
327.286
 11
-1.60747
 21
327.467
  0
LINE
  8
0
 10
-1.60747
 20
327.467
 11
-1.91226
 21
327.688
  0
LINE
  8
0
 10
-1.91226
 20
327.688
 11
-2.1869
 21
327.946
  0
LINE
  8
0
 10
-2.1869
 20
327.946
 11
-2.42705
 21
328.237
  0
LINE
  8
0
 10
-2.42705
 20
328.237
 11
-2.62891
 21
328.555
  0
LINE
  8
0
 10
-2.62891
 20
328.555
 11
-2.78932
 21
328.896
  0
LINE
  8
0
 10
-2.78932
 20
328.896
 11
-2.90575
 21
329.254
  0
LINE
  8
0
 10
-2.90575
 20
329.254
 11
-2.97633
 21
329.624
  0
LINE
  8
0
 10
-2.97633
 20
329.624
 11
-3
 21
330
  0
LINE
  8
0
 10
-3
 20
330
 11
-2.97633
 21
330.376
  0
LINE
  8
0
 10
-2.97633
 20
330.376
 11
-2.90575
 21
330.746
  0
LINE
  8
0
 10
-2.90575
 20
330.746
 11
-2.78932
 21
331.104
  0
LINE
  8
0
 10
-2.78932
 20
331.104
 11
-2.62891
 21
331.445
  0
LINE
  8
0
 10
-2.62891
 20
331.445
 11
-2.42705
 21
331.763
  0
LINE
  8
0
 10
-2.42705
 20
331.763
 11
-2.1869
 21
332.054
  0
LINE
  8
0
 10
-2.1869
 20
332.054
 11
-1.91226
 21
332.312
  0
LINE
  8
0
 10
-1.91226
 20
332.312
 11
-1.60747
 21
332.533
  0
LINE
  8
0
 10
-1.60747
 20
332.533
 11
-1.27733
 21
332.714
  0
LINE
  8
0
 10
-1.27733
 20
332.714
 11
-0.927048
 21
332.853
  0
LINE
  8
0
 10
-0.927048
 20
332.853
 11
-0.562134
 21
332.947
  0
LINE
  8
0
 10
-0.562134
 20
332.947
 11
-0.18837
 21
332.994
  0
LINE
  8
0
 10
-0.18837
 20
332.994
 11
0.18837
 21
332.994
  0
LINE
  8
0
 10
0.18837
 20
332.994
 11
0.562134
 21
332.947
  0
LINE
  8
0
 10
0.562134
 20
332.947
 11
0.927048
 21
332.853
  0
LINE
  8
0
 10
0.927048
 20
332.853
 11
1.27733
 21
332.714
  0
LINE
  8
0
 10
1.27733
 20
332.714
 11
1.60747
 21
332.533
  0
LINE
  8
0
 10
1.60747
 20
332.533
 11
1.91226
 21
332.312
  0
LINE
  8
0
 10
1.91226
 20
332.312
 11
2.1869
 21
332.054
  0
LINE
  8
0
 10
2.1869
 20
332.054
 11
2.42705
 21
331.763
  0
LINE
  8
0
 10
2.42705
 20
331.763
 11
2.62891
 21
331.445
  0
LINE
  8
0
 10
2.62891
 20
331.445
 11
2.78932
 21
331.104
  0
LINE
  8
0
 10
2.78932
 20
331.104
 11
2.90575
 21
330.746
  0
LINE
  8
0
 10
2.90575
 20
330.746
 11
2.97633
 21
330.376
  0
LINE
  8
0
 10
2.97633
 20
330.376
 11
3
 21
330
  0
LINE
  8
0
 10
3
 20
330
 11
2.97633
 21
329.624
  0
LINE
  8
0
 10
2.97633
 20
329.624
 11
2.90575
 21
329.254
  0
LINE
  8
0
 10
2.90575
 20
329.254
 11
2.78932
 21
328.896
  0
LINE
  8
0
 10
2.78932
 20
328.896
 11
2.62891
 21
328.555
  0
LINE
  8
0
 10
2.62891
 20
328.555
 11
2.42705
 21
328.237
  0
LINE
  8
0
 10
2.42705
 20
328.237
 11
2.1869
 21
327.946
  0
LINE
  8
0
 10
2.1869
 20
327.946
 11
1.91226
 21
327.688
  0
LINE
  8
0
 10
1.91226
 20
327.688
 11
1.60747
 21
327.467
  0
LINE
  8
0
 10
1.60747
 20
327.467
 11
1.27733
 21
327.286
  0
LINE
  8
0
 10
1.27733
 20
327.286
 11
0.927048
 21
327.147
  0
LINE
  8
0
 10
0.927048
 20
327.147
 11
0.562134
 21
327.053
  0
LINE
  8
0
 10
0.562134
 20
327.053
 11
0.18837
 21
327.006
  0
LINE
  8
0
 10
0.18837
 20
327.006
 11
-0.18837
 21
327.006
  0
LINE
  8
0
 10
-15.1884
 20
327.006
 11
-15.5621
 21
327.053
  0
LINE
  8
0
 10
-15.5621
 20
327.053
 11
-15.927
 21
327.147
  0
LINE
  8
0
 10
-15.927
 20
327.147
 11
-16.2773
 21
327.286
  0
LINE
  8
0
 10
-16.2773
 20
327.286
 11
-16.6075
 21
327.467
  0
LINE
  8
0
 10
-16.6075
 20
327.467
 11
-16.9123
 21
327.688
  0
LINE
  8
0
 10
-16.9123
 20
327.688
 11
-17.1869
 21
327.946
  0
LINE
  8
0
 10
-17.1869
 20
327.946
 11
-17.427
 21
328.237
  0
LINE
  8
0
 10
-17.427
 20
328.237
 11
-17.6289
 21
328.555
  0
LINE
  8
0
 10
-17.6289
 20
328.555
 11
-17.7893
 21
328.896
  0
LINE
  8
0
 10
-17.7893
 20
328.896
 11
-17.9057
 21
329.254
  0
LINE
  8
0
 10
-17.9057
 20
329.254
 11
-17.9763
 21
329.624
  0
LINE
  8
0
 10
-17.9763
 20
329.624
 11
-18
 21
330
  0
LINE
  8
0
 10
-18
 20
330
 11
-17.9763
 21
330.376
  0
LINE
  8
0
 10
-17.9763
 20
330.376
 11
-17.9057
 21
330.746
  0
LINE
  8
0
 10
-17.9057
 20
330.746
 11
-17.7893
 21
331.104
  0
LINE
  8
0
 10
-17.7893
 20
331.104
 11
-17.6289
 21
331.445
  0
LINE
  8
0
 10
-17.6289
 20
331.445
 11
-17.427
 21
331.763
  0
LINE
  8
0
 10
-17.427
 20
331.763
 11
-17.1869
 21
332.054
  0
LINE
  8
0
 10
-17.1869
 20
332.054
 11
-16.9123
 21
332.312
  0
LINE
  8
0
 10
-16.9123
 20
332.312
 11
-16.6075
 21
332.533
  0
LINE
  8
0
 10
-16.6075
 20
332.533
 11
-16.2773
 21
332.714
  0
LINE
  8
0
 10
-16.2773
 20
332.714
 11
-15.927
 21
332.853
  0
LINE
  8
0
 10
-15.927
 20
332.853
 11
-15.5621
 21
332.947
  0
LINE
  8
0
 10
-15.5621
 20
332.947
 11
-15.1884
 21
332.994
  0
LINE
  8
0
 10
-15.1884
 20
332.994
 11
-14.8116
 21
332.994
  0
LINE
  8
0
 10
-14.8116
 20
332.994
 11
-14.4379
 21
332.947
  0
LINE
  8
0
 10
-14.4379
 20
332.947
 11
-14.0729
 21
332.853
  0
LINE
  8
0
 10
-14.0729
 20
332.853
 11
-13.7227
 21
332.714
  0
LINE
  8
0
 10
-13.7227
 20
332.714
 11
-13.3925
 21
332.533
  0
LINE
  8
0
 10
-13.3925
 20
332.533
 11
-13.0877
 21
332.312
  0
LINE
  8
0
 10
-13.0877
 20
332.312
 11
-12.8131
 21
332.054
  0
LINE
  8
0
 10
-12.8131
 20
332.054
 11
-12.5729
 21
331.763
  0
LINE
  8
0
 10
-12.5729
 20
331.763
 11
-12.3711
 21
331.445
  0
LINE
  8
0
 10
-12.3711
 20
331.445
 11
-12.2107
 21
331.104
  0
LINE
  8
0
 10
-12.2107
 20
331.104
 11
-12.0942
 21
330.746
  0
LINE
  8
0
 10
-12.0942
 20
330.746
 11
-12.0237
 21
330.376
  0
LINE
  8
0
 10
-12.0237
 20
330.376
 11
-12
 21
330
  0
LINE
  8
0
 10
-12
 20
330
 11
-12.0237
 21
329.624
  0
LINE
  8
0
 10
-12.0237
 20
329.624
 11
-12.0942
 21
329.254
  0
LINE
  8
0
 10
-12.0942
 20
329.254
 11
-12.2107
 21
328.896
  0
LINE
  8
0
 10
-12.2107
 20
328.896
 11
-12.3711
 21
328.555
  0
LINE
  8
0
 10
-12.3711
 20
328.555
 11
-12.5729
 21
328.237
  0
LINE
  8
0
 10
-12.5729
 20
328.237
 11
-12.8131
 21
327.946
  0
LINE
  8
0
 10
-12.8131
 20
327.946
 11
-13.0877
 21
327.688
  0
LINE
  8
0
 10
-13.0877
 20
327.688
 11
-13.3925
 21
327.467
  0
LINE
  8
0
 10
-13.3925
 20
327.467
 11
-13.7227
 21
327.286
  0
LINE
  8
0
 10
-13.7227
 20
327.286
 11
-14.0729
 21
327.147
  0
LINE
  8
0
 10
-14.0729
 20
327.147
 11
-14.4379
 21
327.053
  0
LINE
  8
0
 10
-14.4379
 20
327.053
 11
-14.8116
 21
327.006
  0
LINE
  8
0
 10
-14.8116
 20
327.006
 11
-15.1884
 21
327.006
  0
LINE
  8
0
 10
14.8116
 20
327.006
 11
14.4379
 21
327.053
  0
LINE
  8
0
 10
14.4379
 20
327.053
 11
14.0729
 21
327.147
  0
LINE
  8
0
 10
14.0729
 20
327.147
 11
13.7227
 21
327.286
  0
LINE
  8
0
 10
13.7227
 20
327.286
 11
13.3925
 21
327.467
  0
LINE
  8
0
 10
13.3925
 20
327.467
 11
13.0877
 21
327.688
  0
LINE
  8
0
 10
13.0877
 20
327.688
 11
12.8131
 21
327.946
  0
LINE
  8
0
 10
12.8131
 20
327.946
 11
12.5729
 21
328.237
  0
LINE
  8
0
 10
12.5729
 20
328.237
 11
12.3711
 21
328.555
  0
LINE
  8
0
 10
12.3711
 20
328.555
 11
12.2107
 21
328.896
  0
LINE
  8
0
 10
12.2107
 20
328.896
 11
12.0942
 21
329.254
  0
LINE
  8
0
 10
12.0942
 20
329.254
 11
12.0237
 21
329.624
  0
LINE
  8
0
 10
12.0237
 20
329.624
 11
12
 21
330
  0
LINE
  8
0
 10
12
 20
330
 11
12.0237
 21
330.376
  0
LINE
  8
0
 10
12.0237
 20
330.376
 11
12.0942
 21
330.746
  0
LINE
  8
0
 10
12.0942
 20
330.746
 11
12.2107
 21
331.104
  0
LINE
  8
0
 10
12.2107
 20
331.104
 11
12.3711
 21
331.445
  0
LINE
  8
0
 10
12.3711
 20
331.445
 11
12.5729
 21
331.763
  0
LINE
  8
0
 10
12.5729
 20
331.763
 11
12.8131
 21
332.054
  0
LINE
  8
0
 10
12.8131
 20
332.054
 11
13.0877
 21
332.312
  0
LINE
  8
0
 10
13.0877
 20
332.312
 11
13.3925
 21
332.533
  0
LINE
  8
0
 10
13.3925
 20
332.533
 11
13.7227
 21
332.714
  0
LINE
  8
0
 10
13.7227
 20
332.714
 11
14.0729
 21
332.853
  0
LINE
  8
0
 10
14.0729
 20
332.853
 11
14.4379
 21
332.947
  0
LINE
  8
0
 10
14.4379
 20
332.947
 11
14.8116
 21
332.994
  0
LINE
  8
0
 10
14.8116
 20
332.994
 11
15.1884
 21
332.994
  0
LINE
  8
0
 10
15.1884
 20
332.994
 11
15.5621
 21
332.947
  0
LINE
  8
0
 10
15.5621
 20
332.947
 11
15.927
 21
332.853
  0
LINE
  8
0
 10
15.927
 20
332.853
 11
16.2773
 21
332.714
  0
LINE
  8
0
 10
16.2773
 20
332.714
 11
16.6075
 21
332.533
  0
LINE
  8
0
 10
16.6075
 20
332.533
 11
16.9123
 21
332.312
  0
LINE
  8
0
 10
16.9123
 20
332.312
 11
17.1869
 21
332.054
  0
LINE
  8
0
 10
17.1869
 20
332.054
 11
17.427
 21
331.763
  0
LINE
  8
0
 10
17.427
 20
331.763
 11
17.6289
 21
331.445
  0
LINE
  8
0
 10
17.6289
 20
331.445
 11
17.7893
 21
331.104
  0
LINE
  8
0
 10
17.7893
 20
331.104
 11
17.9057
 21
330.746
  0
LINE
  8
0
 10
17.9057
 20
330.746
 11
17.9763
 21
330.376
  0
LINE
  8
0
 10
17.9763
 20
330.376
 11
18
 21
330
  0
LINE
  8
0
 10
18
 20
330
 11
17.9763
 21
329.624
  0
LINE
  8
0
 10
17.9763
 20
329.624
 11
17.9057
 21
329.254
  0
LINE
  8
0
 10
17.9057
 20
329.254
 11
17.7893
 21
328.896
  0
LINE
  8
0
 10
17.7893
 20
328.896
 11
17.6289
 21
328.555
  0
LINE
  8
0
 10
17.6289
 20
328.555
 11
17.427
 21
328.237
  0
LINE
  8
0
 10
17.427
 20
328.237
 11
17.1869
 21
327.946
  0
LINE
  8
0
 10
17.1869
 20
327.946
 11
16.9123
 21
327.688
  0
LINE
  8
0
 10
16.9123
 20
327.688
 11
16.6075
 21
327.467
  0
LINE
  8
0
 10
16.6075
 20
327.467
 11
16.2773
 21
327.286
  0
LINE
  8
0
 10
16.2773
 20
327.286
 11
15.927
 21
327.147
  0
LINE
  8
0
 10
15.927
 20
327.147
 11
15.5621
 21
327.053
  0
LINE
  8
0
 10
15.5621
 20
327.053
 11
15.1884
 21
327.006
  0
LINE
  8
0
 10
15.1884
 20
327.006
 11
14.8116
 21
327.006
  0
LINE
  8
0
 10
10.2067
 20
317.027
 11
9.91331
 21
317.095
  0
LINE
  8
0
 10
9.91331
 20
317.095
 11
9.63083
 21
317.201
  0
LINE
  8
0
 10
9.63083
 20
317.201
 11
9.36372
 21
317.34
  0
LINE
  8
0
 10
9.36372
 20
317.34
 11
9.11624
 21
317.512
  0
LINE
  8
0
 10
9.11624
 20
317.512
 11
8.89226
 21
317.714
  0
LINE
  8
0
 10
8.89226
 20
317.714
 11
8.69533
 21
317.942
  0
LINE
  8
0
 10
8.69533
 20
317.942
 11
8.52853
 21
318.193
  0
LINE
  8
0
 10
8.52853
 20
318.193
 11
8.39452
 21
318.463
  0
LINE
  8
0
 10
8.39452
 20
318.463
 11
8.29539
 21
318.748
  0
LINE
  8
0
 10
8.29539
 20
318.748
 11
8.23274
 21
319.042
  0
LINE
  8
0
 10
8.23274
 20
319.042
 11
8.20752
 21
319.343
  0
LINE
  8
0
 10
8.20752
 20
319.343
 11
8.22014
 21
319.644
  0
LINE
  8
0
 10
8.22014
 20
319.644
 11
8.2704
 21
319.941
  0
LINE
  8
0
 10
8.2704
 20
319.941
 11
8.35751
 21
320.23
  0
LINE
  8
0
 10
8.35751
 20
320.23
 11
8.4801
 21
320.505
  0
LINE
  8
0
 10
8.4801
 20
320.505
 11
8.63623
 21
320.763
  0
LINE
  8
0
 10
8.63623
 20
320.763
 11
8.82344
 21
320.999
  0
LINE
  8
0
 10
8.82344
 20
320.999
 11
9.03879
 21
321.21
  0
LINE
  8
0
 10
9.03879
 20
321.21
 11
9.27885
 21
321.392
  0
LINE
  8
0
 10
9.27885
 20
321.392
 11
9.53987
 21
321.543
  0
LINE
  8
0
 10
9.53987
 20
321.543
 11
9.81772
 21
321.66
  0
LINE
  8
0
 10
9.81772
 20
321.66
 11
10.108
 21
321.741
  0
LINE
  8
0
 10
10.108
 20
321.741
 11
10.4062
 21
321.785
  0
LINE
  8
0
 10
10.4062
 20
321.785
 11
10.7075
 21
321.791
  0
LINE
  8
0
 10
10.7075
 20
321.791
 11
11.0072
 21
321.759
  0
LINE
  8
0
 10
11.0072
 20
321.759
 11
11.3007
 21
321.691
  0
LINE
  8
0
 10
11.3007
 20
321.691
 11
11.5832
 21
321.586
  0
LINE
  8
0
 10
11.5832
 20
321.586
 11
11.8503
 21
321.446
  0
LINE
  8
0
 10
11.8503
 20
321.446
 11
12.0977
 21
321.274
  0
LINE
  8
0
 10
12.0977
 20
321.274
 11
12.3217
 21
321.072
  0
LINE
  8
0
 10
12.3217
 20
321.072
 11
12.5187
 21
320.844
  0
LINE
  8
0
 10
12.5187
 20
320.844
 11
12.6855
 21
320.593
  0
LINE
  8
0
 10
12.6855
 20
320.593
 11
12.8195
 21
320.323
  0
LINE
  8
0
 10
12.8195
 20
320.323
 11
12.9186
 21
320.038
  0
LINE
  8
0
 10
12.9186
 20
320.038
 11
12.9812
 21
319.744
  0
LINE
  8
0
 10
12.9812
 20
319.744
 11
13.0065
 21
319.443
  0
LINE
  8
0
 10
13.0065
 20
319.443
 11
12.9939
 21
319.142
  0
LINE
  8
0
 10
12.9939
 20
319.142
 11
12.9436
 21
318.845
  0
LINE
  8
0
 10
12.9436
 20
318.845
 11
12.8565
 21
318.556
  0
LINE
  8
0
 10
12.8565
 20
318.556
 11
12.7339
 21
318.281
  0
LINE
  8
0
 10
12.7339
 20
318.281
 11
12.5777
 21
318.023
  0
LINE
  8
0
 10
12.5777
 20
318.023
 11
12.3905
 21
317.787
  0
LINE
  8
0
 10
12.3905
 20
317.787
 11
12.1752
 21
317.576
  0
LINE
  8
0
 10
12.1752
 20
317.576
 11
11.9351
 21
317.394
  0
LINE
  8
0
 10
11.9351
 20
317.394
 11
11.6741
 21
317.243
  0
LINE
  8
0
 10
11.6741
 20
317.243
 11
11.3963
 21
317.127
  0
LINE
  8
0
 10
11.3963
 20
317.127
 11
11.106
 21
317.045
  0
LINE
  8
0
 10
11.106
 20
317.045
 11
10.8078
 21
317.001
  0
LINE
  8
0
 10
10.8078
 20
317.001
 11
10.5065
 21
316.995
  0
LINE
  8
0
 10
10.5065
 20
316.995
 11
10.2067
 21
317.027
  0
LINE
  8
0
 10
-11.0072
 20
317.027
 11
-11.3007
 21
317.095
  0
LINE
  8
0
 10
-11.3007
 20
317.095
 11
-11.5832
 21
317.201
  0
LINE
  8
0
 10
-11.5832
 20
317.201
 11
-11.8503
 21
317.34
  0
LINE
  8
0
 10
-11.8503
 20
317.34
 11
-12.0977
 21
317.512
  0
LINE
  8
0
 10
-12.0977
 20
317.512
 11
-12.3217
 21
317.714
  0
LINE
  8
0
 10
-12.3217
 20
317.714
 11
-12.5187
 21
317.942
  0
LINE
  8
0
 10
-12.5187
 20
317.942
 11
-12.6855
 21
318.193
  0
LINE
  8
0
 10
-12.6855
 20
318.193
 11
-12.8195
 21
318.463
  0
LINE
  8
0
 10
-12.8195
 20
318.463
 11
-12.9186
 21
318.748
  0
LINE
  8
0
 10
-12.9186
 20
318.748
 11
-12.9812
 21
319.042
  0
LINE
  8
0
 10
-12.9812
 20
319.042
 11
-13.0065
 21
319.343
  0
LINE
  8
0
 10
-13.0065
 20
319.343
 11
-12.9939
 21
319.644
  0
LINE
  8
0
 10
-12.9939
 20
319.644
 11
-12.9436
 21
319.941
  0
LINE
  8
0
 10
-12.9436
 20
319.941
 11
-12.8565
 21
320.23
  0
LINE
  8
0
 10
-12.8565
 20
320.23
 11
-12.7339
 21
320.505
  0
LINE
  8
0
 10
-12.7339
 20
320.505
 11
-12.5777
 21
320.763
  0
LINE
  8
0
 10
-12.5777
 20
320.763
 11
-12.3905
 21
320.999
  0
LINE
  8
0
 10
-12.3905
 20
320.999
 11
-12.1752
 21
321.21
  0
LINE
  8
0
 10
-12.1752
 20
321.21
 11
-11.9351
 21
321.392
  0
LINE
  8
0
 10
-11.9351
 20
321.392
 11
-11.6741
 21
321.543
  0
LINE
  8
0
 10
-11.6741
 20
321.543
 11
-11.3963
 21
321.66
  0
LINE
  8
0
 10
-11.3963
 20
321.66
 11
-11.106
 21
321.741
  0
LINE
  8
0
 10
-11.106
 20
321.741
 11
-10.8078
 21
321.785
  0
LINE
  8
0
 10
-10.8078
 20
321.785
 11
-10.5065
 21
321.791
  0
LINE
  8
0
 10
-10.5065
 20
321.791
 11
-10.2067
 21
321.759
  0
LINE
  8
0
 10
-10.2067
 20
321.759
 11
-9.91331
 21
321.691
  0
LINE
  8
0
 10
-9.91331
 20
321.691
 11
-9.63083
 21
321.586
  0
LINE
  8
0
 10
-9.63083
 20
321.586
 11
-9.36372
 21
321.446
  0
LINE
  8
0
 10
-9.36372
 20
321.446
 11
-9.11624
 21
321.274
  0
LINE
  8
0
 10
-9.11624
 20
321.274
 11
-8.89226
 21
321.072
  0
LINE
  8
0
 10
-8.89226
 20
321.072
 11
-8.69533
 21
320.844
  0
LINE
  8
0
 10
-8.69533
 20
320.844
 11
-8.52853
 21
320.593
  0
LINE
  8
0
 10
-8.52853
 20
320.593
 11
-8.39452
 21
320.323
  0
LINE
  8
0
 10
-8.39452
 20
320.323
 11
-8.29539
 21
320.038
  0
LINE
  8
0
 10
-8.29539
 20
320.038
 11
-8.23274
 21
319.744
  0
LINE
  8
0
 10
-8.23274
 20
319.744
 11
-8.20752
 21
319.443
  0
LINE
  8
0
 10
-8.20752
 20
319.443
 11
-8.22014
 21
319.142
  0
LINE
  8
0
 10
-8.22014
 20
319.142
 11
-8.2704
 21
318.845
  0
LINE
  8
0
 10
-8.2704
 20
318.845
 11
-8.35751
 21
318.556
  0
LINE
  8
0
 10
-8.35751
 20
318.556
 11
-8.4801
 21
318.281
  0
LINE
  8
0
 10
-8.4801
 20
318.281
 11
-8.63623
 21
318.023
  0
LINE
  8
0
 10
-8.63623
 20
318.023
 11
-8.82344
 21
317.787
  0
LINE
  8
0
 10
-8.82344
 20
317.787
 11
-9.03879
 21
317.576
  0
LINE
  8
0
 10
-9.03879
 20
317.576
 11
-9.27885
 21
317.394
  0
LINE
  8
0
 10
-9.27885
 20
317.394
 11
-9.53987
 21
317.243
  0
LINE
  8
0
 10
-9.53987
 20
317.243
 11
-9.81772
 21
317.127
  0
LINE
  8
0
 10
-9.81772
 20
317.127
 11
-10.108
 21
317.045
  0
LINE
  8
0
 10
-10.108
 20
317.045
 11
-10.4062
 21
317.001
  0
LINE
  8
0
 10
-10.4062
 20
317.001
 11
-10.7075
 21
316.995
  0
LINE
  8
0
 10
-10.7075
 20
316.995
 11
-11.0072
 21
317.027
  0
LINE
  8
0
 10
-0.18837
 20
312.006
 11
-0.562134
 21
312.053
  0
LINE
  8
0
 10
-0.562134
 20
312.053
 11
-0.927048
 21
312.147
  0
LINE
  8
0
 10
-0.927048
 20
312.147
 11
-1.27733
 21
312.286
  0
LINE
  8
0
 10
-1.27733
 20
312.286
 11
-1.60747
 21
312.467
  0
LINE
  8
0
 10
-1.60747
 20
312.467
 11
-1.91226
 21
312.688
  0
LINE
  8
0
 10
-1.91226
 20
312.688
 11
-2.1869
 21
312.946
  0
LINE
  8
0
 10
-2.1869
 20
312.946
 11
-2.42705
 21
313.237
  0
LINE
  8
0
 10
-2.42705
 20
313.237
 11
-2.62891
 21
313.555
  0
LINE
  8
0
 10
-2.62891
 20
313.555
 11
-2.78932
 21
313.896
  0
LINE
  8
0
 10
-2.78932
 20
313.896
 11
-2.90575
 21
314.254
  0
LINE
  8
0
 10
-2.90575
 20
314.254
 11
-2.97633
 21
314.624
  0
LINE
  8
0
 10
-2.97633
 20
314.624
 11
-3
 21
315
  0
LINE
  8
0
 10
-3
 20
315
 11
-2.97633
 21
315.376
  0
LINE
  8
0
 10
-2.97633
 20
315.376
 11
-2.90575
 21
315.746
  0
LINE
  8
0
 10
-2.90575
 20
315.746
 11
-2.78932
 21
316.104
  0
LINE
  8
0
 10
-2.78932
 20
316.104
 11
-2.62891
 21
316.445
  0
LINE
  8
0
 10
-2.62891
 20
316.445
 11
-2.42705
 21
316.763
  0
LINE
  8
0
 10
-2.42705
 20
316.763
 11
-2.1869
 21
317.054
  0
LINE
  8
0
 10
-2.1869
 20
317.054
 11
-1.91226
 21
317.312
  0
LINE
  8
0
 10
-1.91226
 20
317.312
 11
-1.60747
 21
317.533
  0
LINE
  8
0
 10
-1.60747
 20
317.533
 11
-1.27733
 21
317.714
  0
LINE
  8
0
 10
-1.27733
 20
317.714
 11
-0.927048
 21
317.853
  0
LINE
  8
0
 10
-0.927048
 20
317.853
 11
-0.562134
 21
317.947
  0
LINE
  8
0
 10
-0.562134
 20
317.947
 11
-0.18837
 21
317.994
  0
LINE
  8
0
 10
-0.18837
 20
317.994
 11
0.18837
 21
317.994
  0
LINE
  8
0
 10
0.18837
 20
317.994
 11
0.562134
 21
317.947
  0
LINE
  8
0
 10
0.562134
 20
317.947
 11
0.927048
 21
317.853
  0
LINE
  8
0
 10
0.927048
 20
317.853
 11
1.27733
 21
317.714
  0
LINE
  8
0
 10
1.27733
 20
317.714
 11
1.60747
 21
317.533
  0
LINE
  8
0
 10
1.60747
 20
317.533
 11
1.91226
 21
317.312
  0
LINE
  8
0
 10
1.91226
 20
317.312
 11
2.1869
 21
317.054
  0
LINE
  8
0
 10
2.1869
 20
317.054
 11
2.42705
 21
316.763
  0
LINE
  8
0
 10
2.42705
 20
316.763
 11
2.62891
 21
316.445
  0
LINE
  8
0
 10
2.62891
 20
316.445
 11
2.78932
 21
316.104
  0
LINE
  8
0
 10
2.78932
 20
316.104
 11
2.90575
 21
315.746
  0
LINE
  8
0
 10
2.90575
 20
315.746
 11
2.97633
 21
315.376
  0
LINE
  8
0
 10
2.97633
 20
315.376
 11
3
 21
315
  0
LINE
  8
0
 10
3
 20
315
 11
2.97633
 21
314.624
  0
LINE
  8
0
 10
2.97633
 20
314.624
 11
2.90575
 21
314.254
  0
LINE
  8
0
 10
2.90575
 20
314.254
 11
2.78932
 21
313.896
  0
LINE
  8
0
 10
2.78932
 20
313.896
 11
2.62891
 21
313.555
  0
LINE
  8
0
 10
2.62891
 20
313.555
 11
2.42705
 21
313.237
  0
LINE
  8
0
 10
2.42705
 20
313.237
 11
2.1869
 21
312.946
  0
LINE
  8
0
 10
2.1869
 20
312.946
 11
1.91226
 21
312.688
  0
LINE
  8
0
 10
1.91226
 20
312.688
 11
1.60747
 21
312.467
  0
LINE
  8
0
 10
1.60747
 20
312.467
 11
1.27733
 21
312.286
  0
LINE
  8
0
 10
1.27733
 20
312.286
 11
0.927048
 21
312.147
  0
LINE
  8
0
 10
0.927048
 20
312.147
 11
0.562134
 21
312.053
  0
LINE
  8
0
 10
0.562134
 20
312.053
 11
0.18837
 21
312.006
  0
LINE
  8
0
 10
0.18837
 20
312.006
 11
-0.18837
 21
312.006
  0
LINE
  8
0
 10
4.02869
 20
198.881
 11
6.64386
 21
199.552
  0
LINE
  8
0
 10
6.64386
 20
199.552
 11
9.15425
 21
200.546
  0
LINE
  8
0
 10
9.15425
 20
200.546
 11
11.5203
 21
201.847
  0
LINE
  8
0
 10
11.5203
 20
201.847
 11
13.7046
 21
203.434
  0
LINE
  8
0
 10
13.7046
 20
203.434
 11
15.6728
 21
205.282
  0
LINE
  8
0
 10
15.6728
 20
205.282
 11
17.3939
 21
207.363
  0
LINE
  8
0
 10
17.3939
 20
207.363
 11
18.8406
 21
209.642
  0
LINE
  8
0
 10
18.8406
 20
209.642
 11
19.9902
 21
212.085
  0
LINE
  8
0
 10
19.9902
 20
212.085
 11
20.8245
 21
214.653
  0
LINE
  8
0
 10
20.8245
 20
214.653
 11
21.3305
 21
217.305
  0
LINE
  8
0
 10
21.3305
 20
217.305
 11
21.5
 21
220
  0
LINE
  8
0
 10
21.5
 20
220
 11
21.3305
 21
222.695
  0
LINE
  8
0
 10
21.3305
 20
222.695
 11
20.8245
 21
225.347
  0
LINE
  8
0
 10
20.8245
 20
225.347
 11
19.9902
 21
227.915
  0
LINE
  8
0
 10
19.9902
 20
227.915
 11
18.8406
 21
230.358
  0
LINE
  8
0
 10
18.8406
 20
230.358
 11
17.3939
 21
232.637
  0
LINE
  8
0
 10
17.3939
 20
232.637
 11
15.6728
 21
234.718
  0
LINE
  8
0
 10
15.6728
 20
234.718
 11
13.7046
 21
236.566
  0
LINE
  8
0
 10
13.7046
 20
236.566
 11
11.5203
 21
238.153
  0
LINE
  8
0
 10
11.5203
 20
238.153
 11
9.15425
 21
239.454
  0
LINE
  8
0
 10
9.15425
 20
239.454
 11
6.64386
 21
240.448
  0
LINE
  8
0
 10
6.64386
 20
240.448
 11
4.02869
 21
241.119
  0
LINE
  8
0
 10
4.02869
 20
241.119
 11
1.34999
 21
241.458
  0
LINE
  8
0
 10
1.34999
 20
241.458
 11
-1.34999
 21
241.458
  0
LINE
  8
0
 10
-1.34999
 20
241.458
 11
-4.02869
 21
241.119
  0
LINE
  8
0
 10
-4.02869
 20
241.119
 11
-6.64386
 21
240.448
  0
LINE
  8
0
 10
-6.64386
 20
240.448
 11
-9.15425
 21
239.454
  0
LINE
  8
0
 10
-9.15425
 20
239.454
 11
-11.5203
 21
238.153
  0
LINE
  8
0
 10
-11.5203
 20
238.153
 11
-13.7046
 21
236.566
  0
LINE
  8
0
 10
-13.7046
 20
236.566
 11
-15.6728
 21
234.718
  0
LINE
  8
0
 10
-15.6728
 20
234.718
 11
-17.3939
 21
232.637
  0
LINE
  8
0
 10
-17.3939
 20
232.637
 11
-18.8406
 21
230.358
  0
LINE
  8
0
 10
-18.8406
 20
230.358
 11
-19.9902
 21
227.915
  0
LINE
  8
0
 10
-19.9902
 20
227.915
 11
-20.8245
 21
225.347
  0
LINE
  8
0
 10
-20.8245
 20
225.347
 11
-21.3305
 21
222.695
  0
LINE
  8
0
 10
-21.3305
 20
222.695
 11
-21.5
 21
220
  0
LINE
  8
0
 10
-21.5
 20
220
 11
-21.3305
 21
217.305
  0
LINE
  8
0
 10
-21.3305
 20
217.305
 11
-20.8245
 21
214.653
  0
LINE
  8
0
 10
-20.8245
 20
214.653
 11
-19.9902
 21
212.085
  0
LINE
  8
0
 10
-19.9902
 20
212.085
 11
-18.8406
 21
209.642
  0
LINE
  8
0
 10
-18.8406
 20
209.642
 11
-17.3939
 21
207.363
  0
LINE
  8
0
 10
-17.3939
 20
207.363
 11
-15.6728
 21
205.282
  0
LINE
  8
0
 10
-15.6728
 20
205.282
 11
-13.7046
 21
203.434
  0
LINE
  8
0
 10
-13.7046
 20
203.434
 11
-11.5203
 21
201.847
  0
LINE
  8
0
 10
-11.5203
 20
201.847
 11
-9.15425
 21
200.546
  0
LINE
  8
0
 10
-9.15425
 20
200.546
 11
-6.64386
 21
199.552
  0
LINE
  8
0
 10
-6.64386
 20
199.552
 11
-4.02869
 21
198.881
  0
LINE
  8
0
 10
-4.02869
 20
198.881
 11
-1.34999
 21
198.542
  0
LINE
  8
0
 10
-1.34999
 20
198.542
 11
1.34999
 21
198.542
  0
LINE
  8
0
 10
1.34999
 20
198.542
 11
4.02869
 21
198.881
  0
LINE
  8
0
 10
-0.18837
 20
232.006
 11
-0.562134
 21
232.053
  0
LINE
  8
0
 10
-0.562134
 20
232.053
 11
-0.927048
 21
232.147
  0
LINE
  8
0
 10
-0.927048
 20
232.147
 11
-1.27733
 21
232.286
  0
LINE
  8
0
 10
-1.27733
 20
232.286
 11
-1.60747
 21
232.467
  0
LINE
  8
0
 10
-1.60747
 20
232.467
 11
-1.91226
 21
232.688
  0
LINE
  8
0
 10
-1.91226
 20
232.688
 11
-2.1869
 21
232.946
  0
LINE
  8
0
 10
-2.1869
 20
232.946
 11
-2.42705
 21
233.237
  0
LINE
  8
0
 10
-2.42705
 20
233.237
 11
-2.62891
 21
233.555
  0
LINE
  8
0
 10
-2.62891
 20
233.555
 11
-2.78932
 21
233.896
  0
LINE
  8
0
 10
-2.78932
 20
233.896
 11
-2.90575
 21
234.254
  0
LINE
  8
0
 10
-2.90575
 20
234.254
 11
-2.97633
 21
234.624
  0
LINE
  8
0
 10
-2.97633
 20
234.624
 11
-3
 21
235
  0
LINE
  8
0
 10
-3
 20
235
 11
-2.97633
 21
235.376
  0
LINE
  8
0
 10
-2.97633
 20
235.376
 11
-2.90575
 21
235.746
  0
LINE
  8
0
 10
-2.90575
 20
235.746
 11
-2.78932
 21
236.104
  0
LINE
  8
0
 10
-2.78932
 20
236.104
 11
-2.62891
 21
236.445
  0
LINE
  8
0
 10
-2.62891
 20
236.445
 11
-2.42705
 21
236.763
  0
LINE
  8
0
 10
-2.42705
 20
236.763
 11
-2.1869
 21
237.054
  0
LINE
  8
0
 10
-2.1869
 20
237.054
 11
-1.91226
 21
237.312
  0
LINE
  8
0
 10
-1.91226
 20
237.312
 11
-1.60747
 21
237.533
  0
LINE
  8
0
 10
-1.60747
 20
237.533
 11
-1.27733
 21
237.714
  0
LINE
  8
0
 10
-1.27733
 20
237.714
 11
-0.927048
 21
237.853
  0
LINE
  8
0
 10
-0.927048
 20
237.853
 11
-0.562134
 21
237.947
  0
LINE
  8
0
 10
-0.562134
 20
237.947
 11
-0.18837
 21
237.994
  0
LINE
  8
0
 10
-0.18837
 20
237.994
 11
0.18837
 21
237.994
  0
LINE
  8
0
 10
0.18837
 20
237.994
 11
0.562134
 21
237.947
  0
LINE
  8
0
 10
0.562134
 20
237.947
 11
0.927048
 21
237.853
  0
LINE
  8
0
 10
0.927048
 20
237.853
 11
1.27733
 21
237.714
  0
LINE
  8
0
 10
1.27733
 20
237.714
 11
1.60747
 21
237.533
  0
LINE
  8
0
 10
1.60747
 20
237.533
 11
1.91226
 21
237.312
  0
LINE
  8
0
 10
1.91226
 20
237.312
 11
2.1869
 21
237.054
  0
LINE
  8
0
 10
2.1869
 20
237.054
 11
2.42705
 21
236.763
  0
LINE
  8
0
 10
2.42705
 20
236.763
 11
2.62891
 21
236.445
  0
LINE
  8
0
 10
2.62891
 20
236.445
 11
2.78932
 21
236.104
  0
LINE
  8
0
 10
2.78932
 20
236.104
 11
2.90575
 21
235.746
  0
LINE
  8
0
 10
2.90575
 20
235.746
 11
2.97633
 21
235.376
  0
LINE
  8
0
 10
2.97633
 20
235.376
 11
3
 21
235
  0
LINE
  8
0
 10
3
 20
235
 11
2.97633
 21
234.624
  0
LINE
  8
0
 10
2.97633
 20
234.624
 11
2.90575
 21
234.254
  0
LINE
  8
0
 10
2.90575
 20
234.254
 11
2.78932
 21
233.896
  0
LINE
  8
0
 10
2.78932
 20
233.896
 11
2.62891
 21
233.555
  0
LINE
  8
0
 10
2.62891
 20
233.555
 11
2.42705
 21
233.237
  0
LINE
  8
0
 10
2.42705
 20
233.237
 11
2.1869
 21
232.946
  0
LINE
  8
0
 10
2.1869
 20
232.946
 11
1.91226
 21
232.688
  0
LINE
  8
0
 10
1.91226
 20
232.688
 11
1.60747
 21
232.467
  0
LINE
  8
0
 10
1.60747
 20
232.467
 11
1.27733
 21
232.286
  0
LINE
  8
0
 10
1.27733
 20
232.286
 11
0.927048
 21
232.147
  0
LINE
  8
0
 10
0.927048
 20
232.147
 11
0.562134
 21
232.053
  0
LINE
  8
0
 10
0.562134
 20
232.053
 11
0.18837
 21
232.006
  0
LINE
  8
0
 10
0.18837
 20
232.006
 11
-0.18837
 21
232.006
  0
LINE
  8
0
 10
-13.5052
 20
228.934
 11
-13.5052
 21
232.28
  0
LINE
  8
0
 10
-13.5052
 20
232.28
 11
-10.607
 21
233.954
  0
LINE
  8
0
 10
-10.607
 20
233.954
 11
-7.70876
 21
232.28
  0
LINE
  8
0
 10
-7.70876
 20
232.28
 11
-7.70876
 21
228.934
  0
LINE
  8
0
 10
-7.70876
 20
228.934
 11
-10.607
 21
227.26
  0
LINE
  8
0
 10
-10.607
 20
227.26
 11
-13.5052
 21
228.934
  0
LINE
  8
0
 10
7.70876
 20
228.934
 11
7.70876
 21
232.28
  0
LINE
  8
0
 10
7.70876
 20
232.28
 11
10.607
 21
233.954
  0
LINE
  8
0
 10
10.607
 20
233.954
 11
13.5052
 21
232.28
  0
LINE
  8
0
 10
13.5052
 20
232.28
 11
13.5052
 21
228.934
  0
LINE
  8
0
 10
13.5052
 20
228.934
 11
10.607
 21
227.26
  0
LINE
  8
0
 10
10.607
 20
227.26
 11
7.70876
 21
228.934
  0
LINE
  8
0
 10
-0.533707
 20
211.517
 11
-1.59273
 21
211.651
  0
LINE
  8
0
 10
-1.59273
 20
211.651
 11
-2.62663
 21
211.916
  0
LINE
  8
0
 10
-2.62663
 20
211.916
 11
-3.61911
 21
212.309
  0
LINE
  8
0
 10
-3.61911
 20
212.309
 11
-4.55452
 21
212.823
  0
LINE
  8
0
 10
-4.55452
 20
212.823
 11
-5.41809
 21
213.451
  0
LINE
  8
0
 10
-5.41809
 20
213.451
 11
-6.19623
 21
214.181
  0
LINE
  8
0
 10
-6.19623
 20
214.181
 11
-6.87663
 21
215.004
  0
LINE
  8
0
 10
-6.87663
 20
215.004
 11
-7.44859
 21
215.905
  0
LINE
  8
0
 10
-7.44859
 20
215.905
 11
-7.90309
 21
216.871
  0
LINE
  8
0
 10
-7.90309
 20
216.871
 11
-8.23296
 21
217.886
  0
LINE
  8
0
 10
-8.23296
 20
217.886
 11
-8.43297
 21
218.935
  0
LINE
  8
0
 10
-8.43297
 20
218.935
 11
-8.5
 21
220
  0
LINE
  8
0
 10
-8.5
 20
220
 11
-8.43297
 21
221.065
  0
LINE
  8
0
 10
-8.43297
 20
221.065
 11
-8.23296
 21
222.114
  0
LINE
  8
0
 10
-8.23296
 20
222.114
 11
-7.90309
 21
223.129
  0
LINE
  8
0
 10
-7.90309
 20
223.129
 11
-7.44859
 21
224.095
  0
LINE
  8
0
 10
-7.44859
 20
224.095
 11
-6.87663
 21
224.996
  0
LINE
  8
0
 10
-6.87663
 20
224.996
 11
-6.19623
 21
225.819
  0
LINE
  8
0
 10
-6.19623
 20
225.819
 11
-5.41809
 21
226.549
  0
LINE
  8
0
 10
-5.41809
 20
226.549
 11
-4.55452
 21
227.177
  0
LINE
  8
0
 10
-4.55452
 20
227.177
 11
-3.61911
 21
227.691
  0
LINE
  8
0
 10
-3.61911
 20
227.691
 11
-2.62663
 21
228.084
  0
LINE
  8
0
 10
-2.62663
 20
228.084
 11
-1.59273
 21
228.349
  0
LINE
  8
0
 10
-1.59273
 20
228.349
 11
-0.533707
 21
228.483
  0
LINE
  8
0
 10
-0.533707
 20
228.483
 11
0.533707
 21
228.483
  0
LINE
  8
0
 10
0.533707
 20
228.483
 11
1.59273
 21
228.349
  0
LINE
  8
0
 10
1.59273
 20
228.349
 11
2.62663
 21
228.084
  0
LINE
  8
0
 10
2.62663
 20
228.084
 11
3.61911
 21
227.691
  0
LINE
  8
0
 10
3.61911
 20
227.691
 11
4.55452
 21
227.177
  0
LINE
  8
0
 10
4.55452
 20
227.177
 11
5.41809
 21
226.549
  0
LINE
  8
0
 10
5.41809
 20
226.549
 11
6.19623
 21
225.819
  0
LINE
  8
0
 10
6.19623
 20
225.819
 11
6.87663
 21
224.996
  0
LINE
  8
0
 10
6.87663
 20
224.996
 11
7.44859
 21
224.095
  0
LINE
  8
0
 10
7.44859
 20
224.095
 11
7.90309
 21
223.129
  0
LINE
  8
0
 10
7.90309
 20
223.129
 11
8.23296
 21
222.114
  0
LINE
  8
0
 10
8.23296
 20
222.114
 11
8.43297
 21
221.065
  0
LINE
  8
0
 10
8.43297
 20
221.065
 11
8.5
 21
220
  0
LINE
  8
0
 10
8.5
 20
220
 11
8.43297
 21
218.935
  0
LINE
  8
0
 10
8.43297
 20
218.935
 11
8.23296
 21
217.886
  0
LINE
  8
0
 10
8.23296
 20
217.886
 11
7.90309
 21
216.871
  0
LINE
  8
0
 10
7.90309
 20
216.871
 11
7.44859
 21
215.905
  0
LINE
  8
0
 10
7.44859
 20
215.905
 11
6.87663
 21
215.004
  0
LINE
  8
0
 10
6.87663
 20
215.004
 11
6.19623
 21
214.181
  0
LINE
  8
0
 10
6.19623
 20
214.181
 11
5.41809
 21
213.451
  0
LINE
  8
0
 10
5.41809
 20
213.451
 11
4.55452
 21
212.823
  0
LINE
  8
0
 10
4.55452
 20
212.823
 11
3.61911
 21
212.309
  0
LINE
  8
0
 10
3.61911
 20
212.309
 11
2.62663
 21
211.916
  0
LINE
  8
0
 10
2.62663
 20
211.916
 11
1.59273
 21
211.651
  0
LINE
  8
0
 10
1.59273
 20
211.651
 11
0.533707
 21
211.517
  0
LINE
  8
0
 10
0.533707
 20
211.517
 11
-0.533707
 21
211.517
  0
LINE
  8
0
 10
-15.1884
 20
217.006
 11
-15.5621
 21
217.053
  0
LINE
  8
0
 10
-15.5621
 20
217.053
 11
-15.927
 21
217.147
  0
LINE
  8
0
 10
-15.927
 20
217.147
 11
-16.2773
 21
217.286
  0
LINE
  8
0
 10
-16.2773
 20
217.286
 11
-16.6075
 21
217.467
  0
LINE
  8
0
 10
-16.6075
 20
217.467
 11
-16.9123
 21
217.688
  0
LINE
  8
0
 10
-16.9123
 20
217.688
 11
-17.1869
 21
217.946
  0
LINE
  8
0
 10
-17.1869
 20
217.946
 11
-17.427
 21
218.237
  0
LINE
  8
0
 10
-17.427
 20
218.237
 11
-17.6289
 21
218.555
  0
LINE
  8
0
 10
-17.6289
 20
218.555
 11
-17.7893
 21
218.896
  0
LINE
  8
0
 10
-17.7893
 20
218.896
 11
-17.9057
 21
219.254
  0
LINE
  8
0
 10
-17.9057
 20
219.254
 11
-17.9763
 21
219.624
  0
LINE
  8
0
 10
-17.9763
 20
219.624
 11
-18
 21
220
  0
LINE
  8
0
 10
-18
 20
220
 11
-17.9763
 21
220.376
  0
LINE
  8
0
 10
-17.9763
 20
220.376
 11
-17.9057
 21
220.746
  0
LINE
  8
0
 10
-17.9057
 20
220.746
 11
-17.7893
 21
221.104
  0
LINE
  8
0
 10
-17.7893
 20
221.104
 11
-17.6289
 21
221.445
  0
LINE
  8
0
 10
-17.6289
 20
221.445
 11
-17.427
 21
221.763
  0
LINE
  8
0
 10
-17.427
 20
221.763
 11
-17.1869
 21
222.054
  0
LINE
  8
0
 10
-17.1869
 20
222.054
 11
-16.9123
 21
222.312
  0
LINE
  8
0
 10
-16.9123
 20
222.312
 11
-16.6075
 21
222.533
  0
LINE
  8
0
 10
-16.6075
 20
222.533
 11
-16.2773
 21
222.714
  0
LINE
  8
0
 10
-16.2773
 20
222.714
 11
-15.927
 21
222.853
  0
LINE
  8
0
 10
-15.927
 20
222.853
 11
-15.5621
 21
222.947
  0
LINE
  8
0
 10
-15.5621
 20
222.947
 11
-15.1884
 21
222.994
  0
LINE
  8
0
 10
-15.1884
 20
222.994
 11
-14.8116
 21
222.994
  0
LINE
  8
0
 10
-14.8116
 20
222.994
 11
-14.4379
 21
222.947
  0
LINE
  8
0
 10
-14.4379
 20
222.947
 11
-14.0729
 21
222.853
  0
LINE
  8
0
 10
-14.0729
 20
222.853
 11
-13.7227
 21
222.714
  0
LINE
  8
0
 10
-13.7227
 20
222.714
 11
-13.3925
 21
222.533
  0
LINE
  8
0
 10
-13.3925
 20
222.533
 11
-13.0877
 21
222.312
  0
LINE
  8
0
 10
-13.0877
 20
222.312
 11
-12.8131
 21
222.054
  0
LINE
  8
0
 10
-12.8131
 20
222.054
 11
-12.5729
 21
221.763
  0
LINE
  8
0
 10
-12.5729
 20
221.763
 11
-12.3711
 21
221.445
  0
LINE
  8
0
 10
-12.3711
 20
221.445
 11
-12.2107
 21
221.104
  0
LINE
  8
0
 10
-12.2107
 20
221.104
 11
-12.0942
 21
220.746
  0
LINE
  8
0
 10
-12.0942
 20
220.746
 11
-12.0237
 21
220.376
  0
LINE
  8
0
 10
-12.0237
 20
220.376
 11
-12
 21
220
  0
LINE
  8
0
 10
-12
 20
220
 11
-12.0237
 21
219.624
  0
LINE
  8
0
 10
-12.0237
 20
219.624
 11
-12.0942
 21
219.254
  0
LINE
  8
0
 10
-12.0942
 20
219.254
 11
-12.2107
 21
218.896
  0
LINE
  8
0
 10
-12.2107
 20
218.896
 11
-12.3711
 21
218.555
  0
LINE
  8
0
 10
-12.3711
 20
218.555
 11
-12.5729
 21
218.237
  0
LINE
  8
0
 10
-12.5729
 20
218.237
 11
-12.8131
 21
217.946
  0
LINE
  8
0
 10
-12.8131
 20
217.946
 11
-13.0877
 21
217.688
  0
LINE
  8
0
 10
-13.0877
 20
217.688
 11
-13.3925
 21
217.467
  0
LINE
  8
0
 10
-13.3925
 20
217.467
 11
-13.7227
 21
217.286
  0
LINE
  8
0
 10
-13.7227
 20
217.286
 11
-14.0729
 21
217.147
  0
LINE
  8
0
 10
-14.0729
 20
217.147
 11
-14.4379
 21
217.053
  0
LINE
  8
0
 10
-14.4379
 20
217.053
 11
-14.8116
 21
217.006
  0
LINE
  8
0
 10
-14.8116
 20
217.006
 11
-15.1884
 21
217.006
  0
LINE
  8
0
 10
14.8116
 20
217.006
 11
14.4379
 21
217.053
  0
LINE
  8
0
 10
14.4379
 20
217.053
 11
14.0729
 21
217.147
  0
LINE
  8
0
 10
14.0729
 20
217.147
 11
13.7227
 21
217.286
  0
LINE
  8
0
 10
13.7227
 20
217.286
 11
13.3925
 21
217.467
  0
LINE
  8
0
 10
13.3925
 20
217.467
 11
13.0877
 21
217.688
  0
LINE
  8
0
 10
13.0877
 20
217.688
 11
12.8131
 21
217.946
  0
LINE
  8
0
 10
12.8131
 20
217.946
 11
12.5729
 21
218.237
  0
LINE
  8
0
 10
12.5729
 20
218.237
 11
12.3711
 21
218.555
  0
LINE
  8
0
 10
12.3711
 20
218.555
 11
12.2107
 21
218.896
  0
LINE
  8
0
 10
12.2107
 20
218.896
 11
12.0942
 21
219.254
  0
LINE
  8
0
 10
12.0942
 20
219.254
 11
12.0237
 21
219.624
  0
LINE
  8
0
 10
12.0237
 20
219.624
 11
12
 21
220
  0
LINE
  8
0
 10
12
 20
220
 11
12.0237
 21
220.376
  0
LINE
  8
0
 10
12.0237
 20
220.376
 11
12.0942
 21
220.746
  0
LINE
  8
0
 10
12.0942
 20
220.746
 11
12.2107
 21
221.104
  0
LINE
  8
0
 10
12.2107
 20
221.104
 11
12.3711
 21
221.445
  0
LINE
  8
0
 10
12.3711
 20
221.445
 11
12.5729
 21
221.763
  0
LINE
  8
0
 10
12.5729
 20
221.763
 11
12.8131
 21
222.054
  0
LINE
  8
0
 10
12.8131
 20
222.054
 11
13.0877
 21
222.312
  0
LINE
  8
0
 10
13.0877
 20
222.312
 11
13.3925
 21
222.533
  0
LINE
  8
0
 10
13.3925
 20
222.533
 11
13.7227
 21
222.714
  0
LINE
  8
0
 10
13.7227
 20
222.714
 11
14.0729
 21
222.853
  0
LINE
  8
0
 10
14.0729
 20
222.853
 11
14.4379
 21
222.947
  0
LINE
  8
0
 10
14.4379
 20
222.947
 11
14.8116
 21
222.994
  0
LINE
  8
0
 10
14.8116
 20
222.994
 11
15.1884
 21
222.994
  0
LINE
  8
0
 10
15.1884
 20
222.994
 11
15.5621
 21
222.947
  0
LINE
  8
0
 10
15.5621
 20
222.947
 11
15.927
 21
222.853
  0
LINE
  8
0
 10
15.927
 20
222.853
 11
16.2773
 21
222.714
  0
LINE
  8
0
 10
16.2773
 20
222.714
 11
16.6075
 21
222.533
  0
LINE
  8
0
 10
16.6075
 20
222.533
 11
16.9123
 21
222.312
  0
LINE
  8
0
 10
16.9123
 20
222.312
 11
17.1869
 21
222.054
  0
LINE
  8
0
 10
17.1869
 20
222.054
 11
17.427
 21
221.763
  0
LINE
  8
0
 10
17.427
 20
221.763
 11
17.6289
 21
221.445
  0
LINE
  8
0
 10
17.6289
 20
221.445
 11
17.7893
 21
221.104
  0
LINE
  8
0
 10
17.7893
 20
221.104
 11
17.9057
 21
220.746
  0
LINE
  8
0
 10
17.9057
 20
220.746
 11
17.9763
 21
220.376
  0
LINE
  8
0
 10
17.9763
 20
220.376
 11
18
 21
220
  0
LINE
  8
0
 10
18
 20
220
 11
17.9763
 21
219.624
  0
LINE
  8
0
 10
17.9763
 20
219.624
 11
17.9057
 21
219.254
  0
LINE
  8
0
 10
17.9057
 20
219.254
 11
17.7893
 21
218.896
  0
LINE
  8
0
 10
17.7893
 20
218.896
 11
17.6289
 21
218.555
  0
LINE
  8
0
 10
17.6289
 20
218.555
 11
17.427
 21
218.237
  0
LINE
  8
0
 10
17.427
 20
218.237
 11
17.1869
 21
217.946
  0
LINE
  8
0
 10
17.1869
 20
217.946
 11
16.9123
 21
217.688
  0
LINE
  8
0
 10
16.9123
 20
217.688
 11
16.6075
 21
217.467
  0
LINE
  8
0
 10
16.6075
 20
217.467
 11
16.2773
 21
217.286
  0
LINE
  8
0
 10
16.2773
 20
217.286
 11
15.927
 21
217.147
  0
LINE
  8
0
 10
15.927
 20
217.147
 11
15.5621
 21
217.053
  0
LINE
  8
0
 10
15.5621
 20
217.053
 11
15.1884
 21
217.006
  0
LINE
  8
0
 10
15.1884
 20
217.006
 11
14.8116
 21
217.006
  0
LINE
  8
0
 10
-13.5052
 20
207.72
 11
-13.5052
 21
211.066
  0
LINE
  8
0
 10
-13.5052
 20
211.066
 11
-10.607
 21
212.74
  0
LINE
  8
0
 10
-10.607
 20
212.74
 11
-7.70876
 21
211.066
  0
LINE
  8
0
 10
-7.70876
 20
211.066
 11
-7.70876
 21
207.72
  0
LINE
  8
0
 10
-7.70876
 20
207.72
 11
-10.607
 21
206.046
  0
LINE
  8
0
 10
-10.607
 20
206.046
 11
-13.5052
 21
207.72
  0
LINE
  8
0
 10
7.70876
 20
207.72
 11
7.70876
 21
211.066
  0
LINE
  8
0
 10
7.70876
 20
211.066
 11
10.607
 21
212.74
  0
LINE
  8
0
 10
10.607
 20
212.74
 11
13.5052
 21
211.066
  0
LINE
  8
0
 10
13.5052
 20
211.066
 11
13.5052
 21
207.72
  0
LINE
  8
0
 10
13.5052
 20
207.72
 11
10.607
 21
206.046
  0
LINE
  8
0
 10
10.607
 20
206.046
 11
7.70876
 21
207.72
  0
LINE
  8
0
 10
-0.18837
 20
202.006
 11
-0.562134
 21
202.053
  0
LINE
  8
0
 10
-0.562134
 20
202.053
 11
-0.927048
 21
202.147
  0
LINE
  8
0
 10
-0.927048
 20
202.147
 11
-1.27733
 21
202.286
  0
LINE
  8
0
 10
-1.27733
 20
202.286
 11
-1.60747
 21
202.467
  0
LINE
  8
0
 10
-1.60747
 20
202.467
 11
-1.91226
 21
202.688
  0
LINE
  8
0
 10
-1.91226
 20
202.688
 11
-2.1869
 21
202.946
  0
LINE
  8
0
 10
-2.1869
 20
202.946
 11
-2.42705
 21
203.237
  0
LINE
  8
0
 10
-2.42705
 20
203.237
 11
-2.62891
 21
203.555
  0
LINE
  8
0
 10
-2.62891
 20
203.555
 11
-2.78932
 21
203.896
  0
LINE
  8
0
 10
-2.78932
 20
203.896
 11
-2.90575
 21
204.254
  0
LINE
  8
0
 10
-2.90575
 20
204.254
 11
-2.97633
 21
204.624
  0
LINE
  8
0
 10
-2.97633
 20
204.624
 11
-3
 21
205
  0
LINE
  8
0
 10
-3
 20
205
 11
-2.97633
 21
205.376
  0
LINE
  8
0
 10
-2.97633
 20
205.376
 11
-2.90575
 21
205.746
  0
LINE
  8
0
 10
-2.90575
 20
205.746
 11
-2.78932
 21
206.104
  0
LINE
  8
0
 10
-2.78932
 20
206.104
 11
-2.62891
 21
206.445
  0
LINE
  8
0
 10
-2.62891
 20
206.445
 11
-2.42705
 21
206.763
  0
LINE
  8
0
 10
-2.42705
 20
206.763
 11
-2.1869
 21
207.054
  0
LINE
  8
0
 10
-2.1869
 20
207.054
 11
-1.91226
 21
207.312
  0
LINE
  8
0
 10
-1.91226
 20
207.312
 11
-1.60747
 21
207.533
  0
LINE
  8
0
 10
-1.60747
 20
207.533
 11
-1.27733
 21
207.714
  0
LINE
  8
0
 10
-1.27733
 20
207.714
 11
-0.927048
 21
207.853
  0
LINE
  8
0
 10
-0.927048
 20
207.853
 11
-0.562134
 21
207.947
  0
LINE
  8
0
 10
-0.562134
 20
207.947
 11
-0.18837
 21
207.994
  0
LINE
  8
0
 10
-0.18837
 20
207.994
 11
0.18837
 21
207.994
  0
LINE
  8
0
 10
0.18837
 20
207.994
 11
0.562134
 21
207.947
  0
LINE
  8
0
 10
0.562134
 20
207.947
 11
0.927048
 21
207.853
  0
LINE
  8
0
 10
0.927048
 20
207.853
 11
1.27733
 21
207.714
  0
LINE
  8
0
 10
1.27733
 20
207.714
 11
1.60747
 21
207.533
  0
LINE
  8
0
 10
1.60747
 20
207.533
 11
1.91226
 21
207.312
  0
LINE
  8
0
 10
1.91226
 20
207.312
 11
2.1869
 21
207.054
  0
LINE
  8
0
 10
2.1869
 20
207.054
 11
2.42705
 21
206.763
  0
LINE
  8
0
 10
2.42705
 20
206.763
 11
2.62891
 21
206.445
  0
LINE
  8
0
 10
2.62891
 20
206.445
 11
2.78932
 21
206.104
  0
LINE
  8
0
 10
2.78932
 20
206.104
 11
2.90575
 21
205.746
  0
LINE
  8
0
 10
2.90575
 20
205.746
 11
2.97633
 21
205.376
  0
LINE
  8
0
 10
2.97633
 20
205.376
 11
3
 21
205
  0
LINE
  8
0
 10
3
 20
205
 11
2.97633
 21
204.624
  0
LINE
  8
0
 10
2.97633
 20
204.624
 11
2.90575
 21
204.254
  0
LINE
  8
0
 10
2.90575
 20
204.254
 11
2.78932
 21
203.896
  0
LINE
  8
0
 10
2.78932
 20
203.896
 11
2.62891
 21
203.555
  0
LINE
  8
0
 10
2.62891
 20
203.555
 11
2.42705
 21
203.237
  0
LINE
  8
0
 10
2.42705
 20
203.237
 11
2.1869
 21
202.946
  0
LINE
  8
0
 10
2.1869
 20
202.946
 11
1.91226
 21
202.688
  0
LINE
  8
0
 10
1.91226
 20
202.688
 11
1.60747
 21
202.467
  0
LINE
  8
0
 10
1.60747
 20
202.467
 11
1.27733
 21
202.286
  0
LINE
  8
0
 10
1.27733
 20
202.286
 11
0.927048
 21
202.147
  0
LINE
  8
0
 10
0.927048
 20
202.147
 11
0.562134
 21
202.053
  0
LINE
  8
0
 10
0.562134
 20
202.053
 11
0.18837
 21
202.006
  0
LINE
  8
0
 10
0.18837
 20
202.006
 11
-0.18837
 21
202.006
  0
LINE
  8
0
 10
4.02869
 20
88.8808
 11
6.64386
 21
89.5523
  0
LINE
  8
0
 10
6.64386
 20
89.5523
 11
9.15425
 21
90.5462
  0
LINE
  8
0
 10
9.15425
 20
90.5462
 11
11.5203
 21
91.847
  0
LINE
  8
0
 10
11.5203
 20
91.847
 11
13.7046
 21
93.434
  0
LINE
  8
0
 10
13.7046
 20
93.434
 11
15.6728
 21
95.2822
  0
LINE
  8
0
 10
15.6728
 20
95.2822
 11
17.3939
 21
97.3626
  0
LINE
  8
0
 10
17.3939
 20
97.3626
 11
18.8406
 21
99.6423
  0
LINE
  8
0
 10
18.8406
 20
99.6423
 11
19.9902
 21
102.085
  0
LINE
  8
0
 10
19.9902
 20
102.085
 11
20.8245
 21
104.653
  0
LINE
  8
0
 10
20.8245
 20
104.653
 11
21.3305
 21
107.305
  0
LINE
  8
0
 10
21.3305
 20
107.305
 11
21.5
 21
110
  0
LINE
  8
0
 10
21.5
 20
110
 11
21.3305
 21
112.695
  0
LINE
  8
0
 10
21.3305
 20
112.695
 11
20.8245
 21
115.347
  0
LINE
  8
0
 10
20.8245
 20
115.347
 11
19.9902
 21
117.915
  0
LINE
  8
0
 10
19.9902
 20
117.915
 11
18.8406
 21
120.358
  0
LINE
  8
0
 10
18.8406
 20
120.358
 11
17.3939
 21
122.637
  0
LINE
  8
0
 10
17.3939
 20
122.637
 11
15.6728
 21
124.718
  0
LINE
  8
0
 10
15.6728
 20
124.718
 11
13.7046
 21
126.566
  0
LINE
  8
0
 10
13.7046
 20
126.566
 11
11.5203
 21
128.153
  0
LINE
  8
0
 10
11.5203
 20
128.153
 11
9.15425
 21
129.454
  0
LINE
  8
0
 10
9.15425
 20
129.454
 11
6.64386
 21
130.448
  0
LINE
  8
0
 10
6.64386
 20
130.448
 11
4.02869
 21
131.119
  0
LINE
  8
0
 10
4.02869
 20
131.119
 11
1.34999
 21
131.458
  0
LINE
  8
0
 10
1.34999
 20
131.458
 11
-1.34999
 21
131.458
  0
LINE
  8
0
 10
-1.34999
 20
131.458
 11
-4.02869
 21
131.119
  0
LINE
  8
0
 10
-4.02869
 20
131.119
 11
-6.64386
 21
130.448
  0
LINE
  8
0
 10
-6.64386
 20
130.448
 11
-9.15425
 21
129.454
  0
LINE
  8
0
 10
-9.15425
 20
129.454
 11
-11.5203
 21
128.153
  0
LINE
  8
0
 10
-11.5203
 20
128.153
 11
-13.7046
 21
126.566
  0
LINE
  8
0
 10
-13.7046
 20
126.566
 11
-15.6728
 21
124.718
  0
LINE
  8
0
 10
-15.6728
 20
124.718
 11
-17.3939
 21
122.637
  0
LINE
  8
0
 10
-17.3939
 20
122.637
 11
-18.8406
 21
120.358
  0
LINE
  8
0
 10
-18.8406
 20
120.358
 11
-19.9902
 21
117.915
  0
LINE
  8
0
 10
-19.9902
 20
117.915
 11
-20.8245
 21
115.347
  0
LINE
  8
0
 10
-20.8245
 20
115.347
 11
-21.3305
 21
112.695
  0
LINE
  8
0
 10
-21.3305
 20
112.695
 11
-21.5
 21
110
  0
LINE
  8
0
 10
-21.5
 20
110
 11
-21.3305
 21
107.305
  0
LINE
  8
0
 10
-21.3305
 20
107.305
 11
-20.8245
 21
104.653
  0
LINE
  8
0
 10
-20.8245
 20
104.653
 11
-19.9902
 21
102.085
  0
LINE
  8
0
 10
-19.9902
 20
102.085
 11
-18.8406
 21
99.6423
  0
LINE
  8
0
 10
-18.8406
 20
99.6423
 11
-17.3939
 21
97.3626
  0
LINE
  8
0
 10
-17.3939
 20
97.3626
 11
-15.6728
 21
95.2822
  0
LINE
  8
0
 10
-15.6728
 20
95.2822
 11
-13.7046
 21
93.434
  0
LINE
  8
0
 10
-13.7046
 20
93.434
 11
-11.5203
 21
91.847
  0
LINE
  8
0
 10
-11.5203
 20
91.847
 11
-9.15425
 21
90.5462
  0
LINE
  8
0
 10
-9.15425
 20
90.5462
 11
-6.64386
 21
89.5523
  0
LINE
  8
0
 10
-6.64386
 20
89.5523
 11
-4.02869
 21
88.8808
  0
LINE
  8
0
 10
-4.02869
 20
88.8808
 11
-1.34999
 21
88.5424
  0
LINE
  8
0
 10
-1.34999
 20
88.5424
 11
1.34999
 21
88.5424
  0
LINE
  8
0
 10
1.34999
 20
88.5424
 11
4.02869
 21
88.8808
  0
LINE
  8
0
 10
-0.18837
 20
122.006
 11
-0.562134
 21
122.053
  0
LINE
  8
0
 10
-0.562134
 20
122.053
 11
-0.927048
 21
122.147
  0
LINE
  8
0
 10
-0.927048
 20
122.147
 11
-1.27733
 21
122.286
  0
LINE
  8
0
 10
-1.27733
 20
122.286
 11
-1.60747
 21
122.467
  0
LINE
  8
0
 10
-1.60747
 20
122.467
 11
-1.91226
 21
122.688
  0
LINE
  8
0
 10
-1.91226
 20
122.688
 11
-2.1869
 21
122.946
  0
LINE
  8
0
 10
-2.1869
 20
122.946
 11
-2.42705
 21
123.237
  0
LINE
  8
0
 10
-2.42705
 20
123.237
 11
-2.62891
 21
123.555
  0
LINE
  8
0
 10
-2.62891
 20
123.555
 11
-2.78932
 21
123.896
  0
LINE
  8
0
 10
-2.78932
 20
123.896
 11
-2.90575
 21
124.254
  0
LINE
  8
0
 10
-2.90575
 20
124.254
 11
-2.97633
 21
124.624
  0
LINE
  8
0
 10
-2.97633
 20
124.624
 11
-3
 21
125
  0
LINE
  8
0
 10
-3
 20
125
 11
-2.97633
 21
125.376
  0
LINE
  8
0
 10
-2.97633
 20
125.376
 11
-2.90575
 21
125.746
  0
LINE
  8
0
 10
-2.90575
 20
125.746
 11
-2.78932
 21
126.104
  0
LINE
  8
0
 10
-2.78932
 20
126.104
 11
-2.62891
 21
126.445
  0
LINE
  8
0
 10
-2.62891
 20
126.445
 11
-2.42705
 21
126.763
  0
LINE
  8
0
 10
-2.42705
 20
126.763
 11
-2.1869
 21
127.054
  0
LINE
  8
0
 10
-2.1869
 20
127.054
 11
-1.91226
 21
127.312
  0
LINE
  8
0
 10
-1.91226
 20
127.312
 11
-1.60747
 21
127.533
  0
LINE
  8
0
 10
-1.60747
 20
127.533
 11
-1.27733
 21
127.714
  0
LINE
  8
0
 10
-1.27733
 20
127.714
 11
-0.927048
 21
127.853
  0
LINE
  8
0
 10
-0.927048
 20
127.853
 11
-0.562134
 21
127.947
  0
LINE
  8
0
 10
-0.562134
 20
127.947
 11
-0.18837
 21
127.994
  0
LINE
  8
0
 10
-0.18837
 20
127.994
 11
0.18837
 21
127.994
  0
LINE
  8
0
 10
0.18837
 20
127.994
 11
0.562134
 21
127.947
  0
LINE
  8
0
 10
0.562134
 20
127.947
 11
0.927048
 21
127.853
  0
LINE
  8
0
 10
0.927048
 20
127.853
 11
1.27733
 21
127.714
  0
LINE
  8
0
 10
1.27733
 20
127.714
 11
1.60747
 21
127.533
  0
LINE
  8
0
 10
1.60747
 20
127.533
 11
1.91226
 21
127.312
  0
LINE
  8
0
 10
1.91226
 20
127.312
 11
2.1869
 21
127.054
  0
LINE
  8
0
 10
2.1869
 20
127.054
 11
2.42705
 21
126.763
  0
LINE
  8
0
 10
2.42705
 20
126.763
 11
2.62891
 21
126.445
  0
LINE
  8
0
 10
2.62891
 20
126.445
 11
2.78932
 21
126.104
  0
LINE
  8
0
 10
2.78932
 20
126.104
 11
2.90575
 21
125.746
  0
LINE
  8
0
 10
2.90575
 20
125.746
 11
2.97633
 21
125.376
  0
LINE
  8
0
 10
2.97633
 20
125.376
 11
3
 21
125
  0
LINE
  8
0
 10
3
 20
125
 11
2.97633
 21
124.624
  0
LINE
  8
0
 10
2.97633
 20
124.624
 11
2.90575
 21
124.254
  0
LINE
  8
0
 10
2.90575
 20
124.254
 11
2.78932
 21
123.896
  0
LINE
  8
0
 10
2.78932
 20
123.896
 11
2.62891
 21
123.555
  0
LINE
  8
0
 10
2.62891
 20
123.555
 11
2.42705
 21
123.237
  0
LINE
  8
0
 10
2.42705
 20
123.237
 11
2.1869
 21
122.946
  0
LINE
  8
0
 10
2.1869
 20
122.946
 11
1.91226
 21
122.688
  0
LINE
  8
0
 10
1.91226
 20
122.688
 11
1.60747
 21
122.467
  0
LINE
  8
0
 10
1.60747
 20
122.467
 11
1.27733
 21
122.286
  0
LINE
  8
0
 10
1.27733
 20
122.286
 11
0.927048
 21
122.147
  0
LINE
  8
0
 10
0.927048
 20
122.147
 11
0.562134
 21
122.053
  0
LINE
  8
0
 10
0.562134
 20
122.053
 11
0.18837
 21
122.006
  0
LINE
  8
0
 10
0.18837
 20
122.006
 11
-0.18837
 21
122.006
  0
LINE
  8
0
 10
7.70876
 20
118.934
 11
7.70876
 21
122.28
  0
LINE
  8
0
 10
7.70876
 20
122.28
 11
10.607
 21
123.954
  0
LINE
  8
0
 10
10.607
 20
123.954
 11
13.5052
 21
122.28
  0
LINE
  8
0
 10
13.5052
 20
122.28
 11
13.5052
 21
118.934
  0
LINE
  8
0
 10
13.5052
 20
118.934
 11
10.607
 21
117.26
  0
LINE
  8
0
 10
10.607
 20
117.26
 11
7.70876
 21
118.934
  0
LINE
  8
0
 10
-13.5052
 20
118.934
 11
-13.5052
 21
122.28
  0
LINE
  8
0
 10
-13.5052
 20
122.28
 11
-10.607
 21
123.954
  0
LINE
  8
0
 10
-10.607
 20
123.954
 11
-7.70876
 21
122.28
  0
LINE
  8
0
 10
-7.70876
 20
122.28
 11
-7.70876
 21
118.934
  0
LINE
  8
0
 10
-7.70876
 20
118.934
 11
-10.607
 21
117.26
  0
LINE
  8
0
 10
-10.607
 20
117.26
 11
-13.5052
 21
118.934
  0
LINE
  8
0
 10
-0.533707
 20
101.517
 11
-1.59273
 21
101.651
  0
LINE
  8
0
 10
-1.59273
 20
101.651
 11
-2.62663
 21
101.916
  0
LINE
  8
0
 10
-2.62663
 20
101.916
 11
-3.61911
 21
102.309
  0
LINE
  8
0
 10
-3.61911
 20
102.309
 11
-4.55452
 21
102.823
  0
LINE
  8
0
 10
-4.55452
 20
102.823
 11
-5.41809
 21
103.451
  0
LINE
  8
0
 10
-5.41809
 20
103.451
 11
-6.19623
 21
104.181
  0
LINE
  8
0
 10
-6.19623
 20
104.181
 11
-6.87663
 21
105.004
  0
LINE
  8
0
 10
-6.87663
 20
105.004
 11
-7.44859
 21
105.905
  0
LINE
  8
0
 10
-7.44859
 20
105.905
 11
-7.90309
 21
106.871
  0
LINE
  8
0
 10
-7.90309
 20
106.871
 11
-8.23296
 21
107.886
  0
LINE
  8
0
 10
-8.23296
 20
107.886
 11
-8.43297
 21
108.935
  0
LINE
  8
0
 10
-8.43297
 20
108.935
 11
-8.5
 21
110
  0
LINE
  8
0
 10
-8.5
 20
110
 11
-8.43297
 21
111.065
  0
LINE
  8
0
 10
-8.43297
 20
111.065
 11
-8.23296
 21
112.114
  0
LINE
  8
0
 10
-8.23296
 20
112.114
 11
-7.90309
 21
113.129
  0
LINE
  8
0
 10
-7.90309
 20
113.129
 11
-7.44859
 21
114.095
  0
LINE
  8
0
 10
-7.44859
 20
114.095
 11
-6.87663
 21
114.996
  0
LINE
  8
0
 10
-6.87663
 20
114.996
 11
-6.19623
 21
115.819
  0
LINE
  8
0
 10
-6.19623
 20
115.819
 11
-5.41809
 21
116.549
  0
LINE
  8
0
 10
-5.41809
 20
116.549
 11
-4.55452
 21
117.177
  0
LINE
  8
0
 10
-4.55452
 20
117.177
 11
-3.61911
 21
117.691
  0
LINE
  8
0
 10
-3.61911
 20
117.691
 11
-2.62663
 21
118.084
  0
LINE
  8
0
 10
-2.62663
 20
118.084
 11
-1.59273
 21
118.349
  0
LINE
  8
0
 10
-1.59273
 20
118.349
 11
-0.533707
 21
118.483
  0
LINE
  8
0
 10
-0.533707
 20
118.483
 11
0.533707
 21
118.483
  0
LINE
  8
0
 10
0.533707
 20
118.483
 11
1.59273
 21
118.349
  0
LINE
  8
0
 10
1.59273
 20
118.349
 11
2.62663
 21
118.084
  0
LINE
  8
0
 10
2.62663
 20
118.084
 11
3.61911
 21
117.691
  0
LINE
  8
0
 10
3.61911
 20
117.691
 11
4.55452
 21
117.177
  0
LINE
  8
0
 10
4.55452
 20
117.177
 11
5.41809
 21
116.549
  0
LINE
  8
0
 10
5.41809
 20
116.549
 11
6.19623
 21
115.819
  0
LINE
  8
0
 10
6.19623
 20
115.819
 11
6.87663
 21
114.996
  0
LINE
  8
0
 10
6.87663
 20
114.996
 11
7.44859
 21
114.095
  0
LINE
  8
0
 10
7.44859
 20
114.095
 11
7.90309
 21
113.129
  0
LINE
  8
0
 10
7.90309
 20
113.129
 11
8.23296
 21
112.114
  0
LINE
  8
0
 10
8.23296
 20
112.114
 11
8.43297
 21
111.065
  0
LINE
  8
0
 10
8.43297
 20
111.065
 11
8.5
 21
110
  0
LINE
  8
0
 10
8.5
 20
110
 11
8.43297
 21
108.935
  0
LINE
  8
0
 10
8.43297
 20
108.935
 11
8.23296
 21
107.886
  0
LINE
  8
0
 10
8.23296
 20
107.886
 11
7.90309
 21
106.871
  0
LINE
  8
0
 10
7.90309
 20
106.871
 11
7.44859
 21
105.905
  0
LINE
  8
0
 10
7.44859
 20
105.905
 11
6.87663
 21
105.004
  0
LINE
  8
0
 10
6.87663
 20
105.004
 11
6.19623
 21
104.181
  0
LINE
  8
0
 10
6.19623
 20
104.181
 11
5.41809
 21
103.451
  0
LINE
  8
0
 10
5.41809
 20
103.451
 11
4.55452
 21
102.823
  0
LINE
  8
0
 10
4.55452
 20
102.823
 11
3.61911
 21
102.309
  0
LINE
  8
0
 10
3.61911
 20
102.309
 11
2.62663
 21
101.916
  0
LINE
  8
0
 10
2.62663
 20
101.916
 11
1.59273
 21
101.651
  0
LINE
  8
0
 10
1.59273
 20
101.651
 11
0.533707
 21
101.517
  0
LINE
  8
0
 10
0.533707
 20
101.517
 11
-0.533707
 21
101.517
  0
LINE
  8
0
 10
-15.1884
 20
107.006
 11
-15.5621
 21
107.053
  0
LINE
  8
0
 10
-15.5621
 20
107.053
 11
-15.927
 21
107.147
  0
LINE
  8
0
 10
-15.927
 20
107.147
 11
-16.2773
 21
107.286
  0
LINE
  8
0
 10
-16.2773
 20
107.286
 11
-16.6075
 21
107.467
  0
LINE
  8
0
 10
-16.6075
 20
107.467
 11
-16.9123
 21
107.688
  0
LINE
  8
0
 10
-16.9123
 20
107.688
 11
-17.1869
 21
107.946
  0
LINE
  8
0
 10
-17.1869
 20
107.946
 11
-17.427
 21
108.237
  0
LINE
  8
0
 10
-17.427
 20
108.237
 11
-17.6289
 21
108.555
  0
LINE
  8
0
 10
-17.6289
 20
108.555
 11
-17.7893
 21
108.896
  0
LINE
  8
0
 10
-17.7893
 20
108.896
 11
-17.9057
 21
109.254
  0
LINE
  8
0
 10
-17.9057
 20
109.254
 11
-17.9763
 21
109.624
  0
LINE
  8
0
 10
-17.9763
 20
109.624
 11
-18
 21
110
  0
LINE
  8
0
 10
-18
 20
110
 11
-17.9763
 21
110.376
  0
LINE
  8
0
 10
-17.9763
 20
110.376
 11
-17.9057
 21
110.746
  0
LINE
  8
0
 10
-17.9057
 20
110.746
 11
-17.7893
 21
111.104
  0
LINE
  8
0
 10
-17.7893
 20
111.104
 11
-17.6289
 21
111.445
  0
LINE
  8
0
 10
-17.6289
 20
111.445
 11
-17.427
 21
111.763
  0
LINE
  8
0
 10
-17.427
 20
111.763
 11
-17.1869
 21
112.054
  0
LINE
  8
0
 10
-17.1869
 20
112.054
 11
-16.9123
 21
112.312
  0
LINE
  8
0
 10
-16.9123
 20
112.312
 11
-16.6075
 21
112.533
  0
LINE
  8
0
 10
-16.6075
 20
112.533
 11
-16.2773
 21
112.714
  0
LINE
  8
0
 10
-16.2773
 20
112.714
 11
-15.927
 21
112.853
  0
LINE
  8
0
 10
-15.927
 20
112.853
 11
-15.5621
 21
112.947
  0
LINE
  8
0
 10
-15.5621
 20
112.947
 11
-15.1884
 21
112.994
  0
LINE
  8
0
 10
-15.1884
 20
112.994
 11
-14.8116
 21
112.994
  0
LINE
  8
0
 10
-14.8116
 20
112.994
 11
-14.4379
 21
112.947
  0
LINE
  8
0
 10
-14.4379
 20
112.947
 11
-14.0729
 21
112.853
  0
LINE
  8
0
 10
-14.0729
 20
112.853
 11
-13.7227
 21
112.714
  0
LINE
  8
0
 10
-13.7227
 20
112.714
 11
-13.3925
 21
112.533
  0
LINE
  8
0
 10
-13.3925
 20
112.533
 11
-13.0877
 21
112.312
  0
LINE
  8
0
 10
-13.0877
 20
112.312
 11
-12.8131
 21
112.054
  0
LINE
  8
0
 10
-12.8131
 20
112.054
 11
-12.5729
 21
111.763
  0
LINE
  8
0
 10
-12.5729
 20
111.763
 11
-12.3711
 21
111.445
  0
LINE
  8
0
 10
-12.3711
 20
111.445
 11
-12.2107
 21
111.104
  0
LINE
  8
0
 10
-12.2107
 20
111.104
 11
-12.0942
 21
110.746
  0
LINE
  8
0
 10
-12.0942
 20
110.746
 11
-12.0237
 21
110.376
  0
LINE
  8
0
 10
-12.0237
 20
110.376
 11
-12
 21
110
  0
LINE
  8
0
 10
-12
 20
110
 11
-12.0237
 21
109.624
  0
LINE
  8
0
 10
-12.0237
 20
109.624
 11
-12.0942
 21
109.254
  0
LINE
  8
0
 10
-12.0942
 20
109.254
 11
-12.2107
 21
108.896
  0
LINE
  8
0
 10
-12.2107
 20
108.896
 11
-12.3711
 21
108.555
  0
LINE
  8
0
 10
-12.3711
 20
108.555
 11
-12.5729
 21
108.237
  0
LINE
  8
0
 10
-12.5729
 20
108.237
 11
-12.8131
 21
107.946
  0
LINE
  8
0
 10
-12.8131
 20
107.946
 11
-13.0877
 21
107.688
  0
LINE
  8
0
 10
-13.0877
 20
107.688
 11
-13.3925
 21
107.467
  0
LINE
  8
0
 10
-13.3925
 20
107.467
 11
-13.7227
 21
107.286
  0
LINE
  8
0
 10
-13.7227
 20
107.286
 11
-14.0729
 21
107.147
  0
LINE
  8
0
 10
-14.0729
 20
107.147
 11
-14.4379
 21
107.053
  0
LINE
  8
0
 10
-14.4379
 20
107.053
 11
-14.8116
 21
107.006
  0
LINE
  8
0
 10
-14.8116
 20
107.006
 11
-15.1884
 21
107.006
  0
LINE
  8
0
 10
14.8116
 20
107.006
 11
14.4379
 21
107.053
  0
LINE
  8
0
 10
14.4379
 20
107.053
 11
14.0729
 21
107.147
  0
LINE
  8
0
 10
14.0729
 20
107.147
 11
13.7227
 21
107.286
  0
LINE
  8
0
 10
13.7227
 20
107.286
 11
13.3925
 21
107.467
  0
LINE
  8
0
 10
13.3925
 20
107.467
 11
13.0877
 21
107.688
  0
LINE
  8
0
 10
13.0877
 20
107.688
 11
12.8131
 21
107.946
  0
LINE
  8
0
 10
12.8131
 20
107.946
 11
12.5729
 21
108.237
  0
LINE
  8
0
 10
12.5729
 20
108.237
 11
12.3711
 21
108.555
  0
LINE
  8
0
 10
12.3711
 20
108.555
 11
12.2107
 21
108.896
  0
LINE
  8
0
 10
12.2107
 20
108.896
 11
12.0942
 21
109.254
  0
LINE
  8
0
 10
12.0942
 20
109.254
 11
12.0237
 21
109.624
  0
LINE
  8
0
 10
12.0237
 20
109.624
 11
12
 21
110
  0
LINE
  8
0
 10
12
 20
110
 11
12.0237
 21
110.376
  0
LINE
  8
0
 10
12.0237
 20
110.376
 11
12.0942
 21
110.746
  0
LINE
  8
0
 10
12.0942
 20
110.746
 11
12.2107
 21
111.104
  0
LINE
  8
0
 10
12.2107
 20
111.104
 11
12.3711
 21
111.445
  0
LINE
  8
0
 10
12.3711
 20
111.445
 11
12.5729
 21
111.763
  0
LINE
  8
0
 10
12.5729
 20
111.763
 11
12.8131
 21
112.054
  0
LINE
  8
0
 10
12.8131
 20
112.054
 11
13.0877
 21
112.312
  0
LINE
  8
0
 10
13.0877
 20
112.312
 11
13.3925
 21
112.533
  0
LINE
  8
0
 10
13.3925
 20
112.533
 11
13.7227
 21
112.714
  0
LINE
  8
0
 10
13.7227
 20
112.714
 11
14.0729
 21
112.853
  0
LINE
  8
0
 10
14.0729
 20
112.853
 11
14.4379
 21
112.947
  0
LINE
  8
0
 10
14.4379
 20
112.947
 11
14.8116
 21
112.994
  0
LINE
  8
0
 10
14.8116
 20
112.994
 11
15.1884
 21
112.994
  0
LINE
  8
0
 10
15.1884
 20
112.994
 11
15.5621
 21
112.947
  0
LINE
  8
0
 10
15.5621
 20
112.947
 11
15.927
 21
112.853
  0
LINE
  8
0
 10
15.927
 20
112.853
 11
16.2773
 21
112.714
  0
LINE
  8
0
 10
16.2773
 20
112.714
 11
16.6075
 21
112.533
  0
LINE
  8
0
 10
16.6075
 20
112.533
 11
16.9123
 21
112.312
  0
LINE
  8
0
 10
16.9123
 20
112.312
 11
17.1869
 21
112.054
  0
LINE
  8
0
 10
17.1869
 20
112.054
 11
17.427
 21
111.763
  0
LINE
  8
0
 10
17.427
 20
111.763
 11
17.6289
 21
111.445
  0
LINE
  8
0
 10
17.6289
 20
111.445
 11
17.7893
 21
111.104
  0
LINE
  8
0
 10
17.7893
 20
111.104
 11
17.9057
 21
110.746
  0
LINE
  8
0
 10
17.9057
 20
110.746
 11
17.9763
 21
110.376
  0
LINE
  8
0
 10
17.9763
 20
110.376
 11
18
 21
110
  0
LINE
  8
0
 10
18
 20
110
 11
17.9763
 21
109.624
  0
LINE
  8
0
 10
17.9763
 20
109.624
 11
17.9057
 21
109.254
  0
LINE
  8
0
 10
17.9057
 20
109.254
 11
17.7893
 21
108.896
  0
LINE
  8
0
 10
17.7893
 20
108.896
 11
17.6289
 21
108.555
  0
LINE
  8
0
 10
17.6289
 20
108.555
 11
17.427
 21
108.237
  0
LINE
  8
0
 10
17.427
 20
108.237
 11
17.1869
 21
107.946
  0
LINE
  8
0
 10
17.1869
 20
107.946
 11
16.9123
 21
107.688
  0
LINE
  8
0
 10
16.9123
 20
107.688
 11
16.6075
 21
107.467
  0
LINE
  8
0
 10
16.6075
 20
107.467
 11
16.2773
 21
107.286
  0
LINE
  8
0
 10
16.2773
 20
107.286
 11
15.927
 21
107.147
  0
LINE
  8
0
 10
15.927
 20
107.147
 11
15.5621
 21
107.053
  0
LINE
  8
0
 10
15.5621
 20
107.053
 11
15.1884
 21
107.006
  0
LINE
  8
0
 10
15.1884
 20
107.006
 11
14.8116
 21
107.006
  0
LINE
  8
0
 10
-13.5052
 20
97.7197
 11
-13.5052
 21
101.066
  0
LINE
  8
0
 10
-13.5052
 20
101.066
 11
-10.607
 21
102.74
  0
LINE
  8
0
 10
-10.607
 20
102.74
 11
-7.70876
 21
101.066
  0
LINE
  8
0
 10
-7.70876
 20
101.066
 11
-7.70876
 21
97.7197
  0
LINE
  8
0
 10
-7.70876
 20
97.7197
 11
-10.607
 21
96.0464
  0
LINE
  8
0
 10
-10.607
 20
96.0464
 11
-13.5052
 21
97.7197
  0
LINE
  8
0
 10
7.70876
 20
97.7197
 11
7.70876
 21
101.066
  0
LINE
  8
0
 10
7.70876
 20
101.066
 11
10.607
 21
102.74
  0
LINE
  8
0
 10
10.607
 20
102.74
 11
13.5052
 21
101.066
  0
LINE
  8
0
 10
13.5052
 20
101.066
 11
13.5052
 21
97.7197
  0
LINE
  8
0
 10
13.5052
 20
97.7197
 11
10.607
 21
96.0464
  0
LINE
  8
0
 10
10.607
 20
96.0464
 11
7.70876
 21
97.7197
  0
LINE
  8
0
 10
-0.18837
 20
92.0059
 11
-0.562134
 21
92.0531
  0
LINE
  8
0
 10
-0.562134
 20
92.0531
 11
-0.927048
 21
92.1468
  0
LINE
  8
0
 10
-0.927048
 20
92.1468
 11
-1.27733
 21
92.2855
  0
LINE
  8
0
 10
-1.27733
 20
92.2855
 11
-1.60747
 21
92.467
  0
LINE
  8
0
 10
-1.60747
 20
92.467
 11
-1.91226
 21
92.6885
  0
LINE
  8
0
 10
-1.91226
 20
92.6885
 11
-2.1869
 21
92.9464
  0
LINE
  8
0
 10
-2.1869
 20
92.9464
 11
-2.42705
 21
93.2366
  0
LINE
  8
0
 10
-2.42705
 20
93.2366
 11
-2.62891
 21
93.5547
  0
LINE
  8
0
 10
-2.62891
 20
93.5547
 11
-2.78932
 21
93.8956
  0
LINE
  8
0
 10
-2.78932
 20
93.8956
 11
-2.90575
 21
94.2539
  0
LINE
  8
0
 10
-2.90575
 20
94.2539
 11
-2.97633
 21
94.624
  0
LINE
  8
0
 10
-2.97633
 20
94.624
 11
-3
 21
95
  0
LINE
  8
0
 10
-3
 20
95
 11
-2.97633
 21
95.376
  0
LINE
  8
0
 10
-2.97633
 20
95.376
 11
-2.90575
 21
95.7461
  0
LINE
  8
0
 10
-2.90575
 20
95.7461
 11
-2.78932
 21
96.1044
  0
LINE
  8
0
 10
-2.78932
 20
96.1044
 11
-2.62891
 21
96.4453
  0
LINE
  8
0
 10
-2.62891
 20
96.4453
 11
-2.42705
 21
96.7634
  0
LINE
  8
0
 10
-2.42705
 20
96.7634
 11
-2.1869
 21
97.0536
  0
LINE
  8
0
 10
-2.1869
 20
97.0536
 11
-1.91226
 21
97.3116
  0
LINE
  8
0
 10
-1.91226
 20
97.3116
 11
-1.60747
 21
97.533
  0
LINE
  8
0
 10
-1.60747
 20
97.533
 11
-1.27733
 21
97.7145
  0
LINE
  8
0
 10
-1.27733
 20
97.7145
 11
-0.927048
 21
97.8532
  0
LINE
  8
0
 10
-0.927048
 20
97.8532
 11
-0.562134
 21
97.9469
  0
LINE
  8
0
 10
-0.562134
 20
97.9469
 11
-0.18837
 21
97.9941
  0
LINE
  8
0
 10
-0.18837
 20
97.9941
 11
0.18837
 21
97.9941
  0
LINE
  8
0
 10
0.18837
 20
97.9941
 11
0.562134
 21
97.9469
  0
LINE
  8
0
 10
0.562134
 20
97.9469
 11
0.927048
 21
97.8532
  0
LINE
  8
0
 10
0.927048
 20
97.8532
 11
1.27733
 21
97.7145
  0
LINE
  8
0
 10
1.27733
 20
97.7145
 11
1.60747
 21
97.533
  0
LINE
  8
0
 10
1.60747
 20
97.533
 11
1.91226
 21
97.3116
  0
LINE
  8
0
 10
1.91226
 20
97.3116
 11
2.1869
 21
97.0536
  0
LINE
  8
0
 10
2.1869
 20
97.0536
 11
2.42705
 21
96.7634
  0
LINE
  8
0
 10
2.42705
 20
96.7634
 11
2.62891
 21
96.4453
  0
LINE
  8
0
 10
2.62891
 20
96.4453
 11
2.78932
 21
96.1044
  0
LINE
  8
0
 10
2.78932
 20
96.1044
 11
2.90575
 21
95.7461
  0
LINE
  8
0
 10
2.90575
 20
95.7461
 11
2.97633
 21
95.376
  0
LINE
  8
0
 10
2.97633
 20
95.376
 11
3
 21
95
  0
LINE
  8
0
 10
3
 20
95
 11
2.97633
 21
94.624
  0
LINE
  8
0
 10
2.97633
 20
94.624
 11
2.90575
 21
94.2539
  0
LINE
  8
0
 10
2.90575
 20
94.2539
 11
2.78932
 21
93.8956
  0
LINE
  8
0
 10
2.78932
 20
93.8956
 11
2.62891
 21
93.5547
  0
LINE
  8
0
 10
2.62891
 20
93.5547
 11
2.42705
 21
93.2366
  0
LINE
  8
0
 10
2.42705
 20
93.2366
 11
2.1869
 21
92.9464
  0
LINE
  8
0
 10
2.1869
 20
92.9464
 11
1.91226
 21
92.6885
  0
LINE
  8
0
 10
1.91226
 20
92.6885
 11
1.60747
 21
92.467
  0
LINE
  8
0
 10
1.60747
 20
92.467
 11
1.27733
 21
92.2855
  0
LINE
  8
0
 10
1.27733
 20
92.2855
 11
0.927048
 21
92.1468
  0
LINE
  8
0
 10
0.927048
 20
92.1468
 11
0.562134
 21
92.0531
  0
LINE
  8
0
 10
0.562134
 20
92.0531
 11
0.18837
 21
92.0059
  0
LINE
  8
0
 10
0.18837
 20
92.0059
 11
-0.18837
 21
92.0059
  0
LINE
  8
0
 10
4.02869
 20
-21.1192
 11
6.64386
 21
-20.4477
  0
LINE
  8
0
 10
6.64386
 20
-20.4477
 11
9.15425
 21
-19.4538
  0
LINE
  8
0
 10
9.15425
 20
-19.4538
 11
11.5203
 21
-18.153
  0
LINE
  8
0
 10
11.5203
 20
-18.153
 11
13.7046
 21
-16.566
  0
LINE
  8
0
 10
13.7046
 20
-16.566
 11
15.6728
 21
-14.7178
  0
LINE
  8
0
 10
15.6728
 20
-14.7178
 11
17.3939
 21
-12.6374
  0
LINE
  8
0
 10
17.3939
 20
-12.6374
 11
18.8406
 21
-10.3577
  0
LINE
  8
0
 10
18.8406
 20
-10.3577
 11
19.9902
 21
-7.91467
  0
LINE
  8
0
 10
19.9902
 20
-7.91467
 11
20.8245
 21
-5.34683
  0
LINE
  8
0
 10
20.8245
 20
-5.34683
 11
21.3305
 21
-2.69466
  0
LINE
  8
0
 10
21.3305
 20
-2.69466
 11
21.5
 21
0
  0
LINE
  8
0
 10
21.5
 20
0
 11
21.3305
 21
2.69466
  0
LINE
  8
0
 10
21.3305
 20
2.69466
 11
20.8245
 21
5.34683
  0
LINE
  8
0
 10
20.8245
 20
5.34683
 11
19.9902
 21
7.91467
  0
LINE
  8
0
 10
19.9902
 20
7.91467
 11
18.8406
 21
10.3577
  0
LINE
  8
0
 10
18.8406
 20
10.3577
 11
17.3939
 21
12.6374
  0
LINE
  8
0
 10
17.3939
 20
12.6374
 11
15.6728
 21
14.7178
  0
LINE
  8
0
 10
15.6728
 20
14.7178
 11
13.7046
 21
16.566
  0
LINE
  8
0
 10
13.7046
 20
16.566
 11
11.5203
 21
18.153
  0
LINE
  8
0
 10
11.5203
 20
18.153
 11
9.15425
 21
19.4538
  0
LINE
  8
0
 10
9.15425
 20
19.4538
 11
6.64386
 21
20.4477
  0
LINE
  8
0
 10
6.64386
 20
20.4477
 11
4.02869
 21
21.1192
  0
LINE
  8
0
 10
4.02869
 20
21.1192
 11
1.34999
 21
21.4576
  0
LINE
  8
0
 10
1.34999
 20
21.4576
 11
-1.34999
 21
21.4576
  0
LINE
  8
0
 10
-1.34999
 20
21.4576
 11
-4.02869
 21
21.1192
  0
LINE
  8
0
 10
-4.02869
 20
21.1192
 11
-6.64386
 21
20.4477
  0
LINE
  8
0
 10
-6.64386
 20
20.4477
 11
-9.15425
 21
19.4538
  0
LINE
  8
0
 10
-9.15425
 20
19.4538
 11
-11.5203
 21
18.153
  0
LINE
  8
0
 10
-11.5203
 20
18.153
 11
-13.7046
 21
16.566
  0
LINE
  8
0
 10
-13.7046
 20
16.566
 11
-15.6728
 21
14.7178
  0
LINE
  8
0
 10
-15.6728
 20
14.7178
 11
-17.3939
 21
12.6374
  0
LINE
  8
0
 10
-17.3939
 20
12.6374
 11
-18.8406
 21
10.3577
  0
LINE
  8
0
 10
-18.8406
 20
10.3577
 11
-19.9902
 21
7.91467
  0
LINE
  8
0
 10
-19.9902
 20
7.91467
 11
-20.8245
 21
5.34683
  0
LINE
  8
0
 10
-20.8245
 20
5.34683
 11
-21.3305
 21
2.69466
  0
LINE
  8
0
 10
-21.3305
 20
2.69466
 11
-21.5
 21
0
  0
LINE
  8
0
 10
-21.5
 20
0
 11
-21.3305
 21
-2.69466
  0
LINE
  8
0
 10
-21.3305
 20
-2.69466
 11
-20.8245
 21
-5.34683
  0
LINE
  8
0
 10
-20.8245
 20
-5.34683
 11
-19.9902
 21
-7.91467
  0
LINE
  8
0
 10
-19.9902
 20
-7.91467
 11
-18.8406
 21
-10.3577
  0
LINE
  8
0
 10
-18.8406
 20
-10.3577
 11
-17.3939
 21
-12.6374
  0
LINE
  8
0
 10
-17.3939
 20
-12.6374
 11
-15.6728
 21
-14.7178
  0
LINE
  8
0
 10
-15.6728
 20
-14.7178
 11
-13.7046
 21
-16.566
  0
LINE
  8
0
 10
-13.7046
 20
-16.566
 11
-11.5203
 21
-18.153
  0
LINE
  8
0
 10
-11.5203
 20
-18.153
 11
-9.15425
 21
-19.4538
  0
LINE
  8
0
 10
-9.15425
 20
-19.4538
 11
-6.64386
 21
-20.4477
  0
LINE
  8
0
 10
-6.64386
 20
-20.4477
 11
-4.02869
 21
-21.1192
  0
LINE
  8
0
 10
-4.02869
 20
-21.1192
 11
-1.34999
 21
-21.4576
  0
LINE
  8
0
 10
-1.34999
 20
-21.4576
 11
1.34999
 21
-21.4576
  0
LINE
  8
0
 10
1.34999
 20
-21.4576
 11
4.02869
 21
-21.1192
  0
LINE
  8
0
 10
-0.18837
 20
12.0059
 11
-0.562134
 21
12.0531
  0
LINE
  8
0
 10
-0.562134
 20
12.0531
 11
-0.927048
 21
12.1468
  0
LINE
  8
0
 10
-0.927048
 20
12.1468
 11
-1.27733
 21
12.2855
  0
LINE
  8
0
 10
-1.27733
 20
12.2855
 11
-1.60747
 21
12.467
  0
LINE
  8
0
 10
-1.60747
 20
12.467
 11
-1.91226
 21
12.6884
  0
LINE
  8
0
 10
-1.91226
 20
12.6884
 11
-2.1869
 21
12.9464
  0
LINE
  8
0
 10
-2.1869
 20
12.9464
 11
-2.42705
 21
13.2366
  0
LINE
  8
0
 10
-2.42705
 20
13.2366
 11
-2.62891
 21
13.5547
  0
LINE
  8
0
 10
-2.62891
 20
13.5547
 11
-2.78932
 21
13.8956
  0
LINE
  8
0
 10
-2.78932
 20
13.8956
 11
-2.90575
 21
14.2539
  0
LINE
  8
0
 10
-2.90575
 20
14.2539
 11
-2.97633
 21
14.624
  0
LINE
  8
0
 10
-2.97633
 20
14.624
 11
-3
 21
15
  0
LINE
  8
0
 10
-3
 20
15
 11
-2.97633
 21
15.376
  0
LINE
  8
0
 10
-2.97633
 20
15.376
 11
-2.90575
 21
15.7461
  0
LINE
  8
0
 10
-2.90575
 20
15.7461
 11
-2.78932
 21
16.1044
  0
LINE
  8
0
 10
-2.78932
 20
16.1044
 11
-2.62891
 21
16.4453
  0
LINE
  8
0
 10
-2.62891
 20
16.4453
 11
-2.42705
 21
16.7634
  0
LINE
  8
0
 10
-2.42705
 20
16.7634
 11
-2.1869
 21
17.0536
  0
LINE
  8
0
 10
-2.1869
 20
17.0536
 11
-1.91226
 21
17.3115
  0
LINE
  8
0
 10
-1.91226
 20
17.3115
 11
-1.60747
 21
17.533
  0
LINE
  8
0
 10
-1.60747
 20
17.533
 11
-1.27733
 21
17.7145
  0
LINE
  8
0
 10
-1.27733
 20
17.7145
 11
-0.927048
 21
17.8532
  0
LINE
  8
0
 10
-0.927048
 20
17.8532
 11
-0.562134
 21
17.9469
  0
LINE
  8
0
 10
-0.562134
 20
17.9469
 11
-0.18837
 21
17.9941
  0
LINE
  8
0
 10
-0.18837
 20
17.9941
 11
0.18837
 21
17.9941
  0
LINE
  8
0
 10
0.18837
 20
17.9941
 11
0.562134
 21
17.9469
  0
LINE
  8
0
 10
0.562134
 20
17.9469
 11
0.927048
 21
17.8532
  0
LINE
  8
0
 10
0.927048
 20
17.8532
 11
1.27733
 21
17.7145
  0
LINE
  8
0
 10
1.27733
 20
17.7145
 11
1.60747
 21
17.533
  0
LINE
  8
0
 10
1.60747
 20
17.533
 11
1.91226
 21
17.3115
  0
LINE
  8
0
 10
1.91226
 20
17.3115
 11
2.1869
 21
17.0536
  0
LINE
  8
0
 10
2.1869
 20
17.0536
 11
2.42705
 21
16.7634
  0
LINE
  8
0
 10
2.42705
 20
16.7634
 11
2.62891
 21
16.4453
  0
LINE
  8
0
 10
2.62891
 20
16.4453
 11
2.78932
 21
16.1044
  0
LINE
  8
0
 10
2.78932
 20
16.1044
 11
2.90575
 21
15.7461
  0
LINE
  8
0
 10
2.90575
 20
15.7461
 11
2.97633
 21
15.376
  0
LINE
  8
0
 10
2.97633
 20
15.376
 11
3
 21
15
  0
LINE
  8
0
 10
3
 20
15
 11
2.97633
 21
14.624
  0
LINE
  8
0
 10
2.97633
 20
14.624
 11
2.90575
 21
14.2539
  0
LINE
  8
0
 10
2.90575
 20
14.2539
 11
2.78932
 21
13.8956
  0
LINE
  8
0
 10
2.78932
 20
13.8956
 11
2.62891
 21
13.5547
  0
LINE
  8
0
 10
2.62891
 20
13.5547
 11
2.42705
 21
13.2366
  0
LINE
  8
0
 10
2.42705
 20
13.2366
 11
2.1869
 21
12.9464
  0
LINE
  8
0
 10
2.1869
 20
12.9464
 11
1.91226
 21
12.6884
  0
LINE
  8
0
 10
1.91226
 20
12.6884
 11
1.60747
 21
12.467
  0
LINE
  8
0
 10
1.60747
 20
12.467
 11
1.27733
 21
12.2855
  0
LINE
  8
0
 10
1.27733
 20
12.2855
 11
0.927048
 21
12.1468
  0
LINE
  8
0
 10
0.927048
 20
12.1468
 11
0.562134
 21
12.0531
  0
LINE
  8
0
 10
0.562134
 20
12.0531
 11
0.18837
 21
12.0059
  0
LINE
  8
0
 10
0.18837
 20
12.0059
 11
-0.18837
 21
12.0059
  0
LINE
  8
0
 10
10.2067
 20
8.2406
 11
9.91331
 21
8.30943
  0
LINE
  8
0
 10
9.91331
 20
8.30943
 11
9.63083
 21
8.41449
  0
LINE
  8
0
 10
9.63083
 20
8.41449
 11
9.36372
 21
8.55412
  0
LINE
  8
0
 10
9.36372
 20
8.55412
 11
9.11624
 21
8.72614
  0
LINE
  8
0
 10
9.11624
 20
8.72614
 11
8.89226
 21
8.9278
  0
LINE
  8
0
 10
8.89226
 20
8.9278
 11
8.69533
 21
9.15596
  0
LINE
  8
0
 10
8.69533
 20
9.15596
 11
8.52853
 21
9.407
  0
LINE
  8
0
 10
8.52853
 20
9.407
 11
8.39452
 21
9.67696
  0
LINE
  8
0
 10
8.39452
 20
9.67696
 11
8.29539
 21
9.96158
  0
LINE
  8
0
 10
8.29539
 20
9.96158
 11
8.23274
 21
10.2564
  0
LINE
  8
0
 10
8.23274
 20
10.2564
 11
8.20752
 21
10.5567
  0
LINE
  8
0
 10
8.20752
 20
10.5567
 11
8.22014
 21
10.8579
  0
LINE
  8
0
 10
8.22014
 20
10.8579
 11
8.2704
 21
11.155
  0
LINE
  8
0
 10
8.2704
 20
11.155
 11
8.35751
 21
11.4436
  0
LINE
  8
0
 10
8.35751
 20
11.4436
 11
8.4801
 21
11.7189
  0
LINE
  8
0
 10
8.4801
 20
11.7189
 11
8.63623
 21
11.9767
  0
LINE
  8
0
 10
8.63623
 20
11.9767
 11
8.82344
 21
12.2129
  0
LINE
  8
0
 10
8.82344
 20
12.2129
 11
9.03879
 21
12.4238
  0
LINE
  8
0
 10
9.03879
 20
12.4238
 11
9.27885
 21
12.606
  0
LINE
  8
0
 10
9.27885
 20
12.606
 11
9.53987
 21
12.7567
  0
LINE
  8
0
 10
9.53987
 20
12.7567
 11
9.81772
 21
12.8735
  0
LINE
  8
0
 10
9.81772
 20
12.8735
 11
10.108
 21
12.9545
  0
LINE
  8
0
 10
10.108
 20
12.9545
 11
10.4062
 21
12.9986
  0
LINE
  8
0
 10
10.4062
 20
12.9986
 11
10.7075
 21
13.0049
  0
LINE
  8
0
 10
10.7075
 20
13.0049
 11
11.0072
 21
12.9734
  0
LINE
  8
0
 10
11.0072
 20
12.9734
 11
11.3007
 21
12.9046
  0
LINE
  8
0
 10
11.3007
 20
12.9046
 11
11.5832
 21
12.7995
  0
LINE
  8
0
 10
11.5832
 20
12.7995
 11
11.8503
 21
12.6599
  0
LINE
  8
0
 10
11.8503
 20
12.6599
 11
12.0977
 21
12.4879
  0
LINE
  8
0
 10
12.0977
 20
12.4879
 11
12.3217
 21
12.2862
  0
LINE
  8
0
 10
12.3217
 20
12.2862
 11
12.5187
 21
12.058
  0
LINE
  8
0
 10
12.5187
 20
12.058
 11
12.6855
 21
11.807
  0
LINE
  8
0
 10
12.6855
 20
11.807
 11
12.8195
 21
11.537
  0
LINE
  8
0
 10
12.8195
 20
11.537
 11
12.9186
 21
11.2524
  0
LINE
  8
0
 10
12.9186
 20
11.2524
 11
12.9812
 21
10.9576
  0
LINE
  8
0
 10
12.9812
 20
10.9576
 11
13.0065
 21
10.6573
  0
LINE
  8
0
 10
13.0065
 20
10.6573
 11
12.9939
 21
10.3561
  0
LINE
  8
0
 10
12.9939
 20
10.3561
 11
12.9436
 21
10.0589
  0
LINE
  8
0
 10
12.9436
 20
10.0589
 11
12.8565
 21
9.77042
  0
LINE
  8
0
 10
12.8565
 20
9.77042
 11
12.7339
 21
9.49509
  0
LINE
  8
0
 10
12.7339
 20
9.49509
 11
12.5777
 21
9.23727
  0
LINE
  8
0
 10
12.5777
 20
9.23727
 11
12.3905
 21
9.00108
  0
LINE
  8
0
 10
12.3905
 20
9.00108
 11
12.1752
 21
8.79021
  0
LINE
  8
0
 10
12.1752
 20
8.79021
 11
11.9351
 21
8.60799
  0
LINE
  8
0
 10
11.9351
 20
8.60799
 11
11.6741
 21
8.45729
  0
LINE
  8
0
 10
11.6741
 20
8.45729
 11
11.3963
 21
8.34048
  0
LINE
  8
0
 10
11.3963
 20
8.34048
 11
11.106
 21
8.25945
  0
LINE
  8
0
 10
11.106
 20
8.25945
 11
10.8078
 21
8.21541
  0
LINE
  8
0
 10
10.8078
 20
8.21541
 11
10.5065
 21
8.20909
  0
LINE
  8
0
 10
10.5065
 20
8.20909
 11
10.2067
 21
8.2406
  0
LINE
  8
0
 10
-11.0072
 20
8.2406
 11
-11.3007
 21
8.30943
  0
LINE
  8
0
 10
-11.3007
 20
8.30943
 11
-11.5832
 21
8.41449
  0
LINE
  8
0
 10
-11.5832
 20
8.41449
 11
-11.8503
 21
8.55412
  0
LINE
  8
0
 10
-11.8503
 20
8.55412
 11
-12.0977
 21
8.72614
  0
LINE
  8
0
 10
-12.0977
 20
8.72614
 11
-12.3217
 21
8.9278
  0
LINE
  8
0
 10
-12.3217
 20
8.9278
 11
-12.5187
 21
9.15596
  0
LINE
  8
0
 10
-12.5187
 20
9.15596
 11
-12.6855
 21
9.407
  0
LINE
  8
0
 10
-12.6855
 20
9.407
 11
-12.8195
 21
9.67696
  0
LINE
  8
0
 10
-12.8195
 20
9.67696
 11
-12.9186
 21
9.96158
  0
LINE
  8
0
 10
-12.9186
 20
9.96158
 11
-12.9812
 21
10.2564
  0
LINE
  8
0
 10
-12.9812
 20
10.2564
 11
-13.0065
 21
10.5567
  0
LINE
  8
0
 10
-13.0065
 20
10.5567
 11
-12.9939
 21
10.8579
  0
LINE
  8
0
 10
-12.9939
 20
10.8579
 11
-12.9436
 21
11.155
  0
LINE
  8
0
 10
-12.9436
 20
11.155
 11
-12.8565
 21
11.4436
  0
LINE
  8
0
 10
-12.8565
 20
11.4436
 11
-12.7339
 21
11.7189
  0
LINE
  8
0
 10
-12.7339
 20
11.7189
 11
-12.5777
 21
11.9767
  0
LINE
  8
0
 10
-12.5777
 20
11.9767
 11
-12.3905
 21
12.2129
  0
LINE
  8
0
 10
-12.3905
 20
12.2129
 11
-12.1752
 21
12.4238
  0
LINE
  8
0
 10
-12.1752
 20
12.4238
 11
-11.9351
 21
12.606
  0
LINE
  8
0
 10
-11.9351
 20
12.606
 11
-11.6741
 21
12.7567
  0
LINE
  8
0
 10
-11.6741
 20
12.7567
 11
-11.3963
 21
12.8735
  0
LINE
  8
0
 10
-11.3963
 20
12.8735
 11
-11.106
 21
12.9545
  0
LINE
  8
0
 10
-11.106
 20
12.9545
 11
-10.8078
 21
12.9986
  0
LINE
  8
0
 10
-10.8078
 20
12.9986
 11
-10.5065
 21
13.0049
  0
LINE
  8
0
 10
-10.5065
 20
13.0049
 11
-10.2067
 21
12.9734
  0
LINE
  8
0
 10
-10.2067
 20
12.9734
 11
-9.91331
 21
12.9046
  0
LINE
  8
0
 10
-9.91331
 20
12.9046
 11
-9.63083
 21
12.7995
  0
LINE
  8
0
 10
-9.63083
 20
12.7995
 11
-9.36372
 21
12.6599
  0
LINE
  8
0
 10
-9.36372
 20
12.6599
 11
-9.11624
 21
12.4879
  0
LINE
  8
0
 10
-9.11624
 20
12.4879
 11
-8.89226
 21
12.2862
  0
LINE
  8
0
 10
-8.89226
 20
12.2862
 11
-8.69533
 21
12.058
  0
LINE
  8
0
 10
-8.69533
 20
12.058
 11
-8.52853
 21
11.807
  0
LINE
  8
0
 10
-8.52853
 20
11.807
 11
-8.39452
 21
11.537
  0
LINE
  8
0
 10
-8.39452
 20
11.537
 11
-8.29539
 21
11.2524
  0
LINE
  8
0
 10
-8.29539
 20
11.2524
 11
-8.23274
 21
10.9576
  0
LINE
  8
0
 10
-8.23274
 20
10.9576
 11
-8.20752
 21
10.6573
  0
LINE
  8
0
 10
-8.20752
 20
10.6573
 11
-8.22014
 21
10.3561
  0
LINE
  8
0
 10
-8.22014
 20
10.3561
 11
-8.2704
 21
10.0589
  0
LINE
  8
0
 10
-8.2704
 20
10.0589
 11
-8.35751
 21
9.77042
  0
LINE
  8
0
 10
-8.35751
 20
9.77042
 11
-8.4801
 21
9.49509
  0
LINE
  8
0
 10
-8.4801
 20
9.49509
 11
-8.63623
 21
9.23727
  0
LINE
  8
0
 10
-8.63623
 20
9.23727
 11
-8.82344
 21
9.00108
  0
LINE
  8
0
 10
-8.82344
 20
9.00108
 11
-9.03879
 21
8.79021
  0
LINE
  8
0
 10
-9.03879
 20
8.79021
 11
-9.27885
 21
8.60799
  0
LINE
  8
0
 10
-9.27885
 20
8.60799
 11
-9.53987
 21
8.45729
  0
LINE
  8
0
 10
-9.53987
 20
8.45729
 11
-9.81772
 21
8.34048
  0
LINE
  8
0
 10
-9.81772
 20
8.34048
 11
-10.108
 21
8.25945
  0
LINE
  8
0
 10
-10.108
 20
8.25945
 11
-10.4062
 21
8.21541
  0
LINE
  8
0
 10
-10.4062
 20
8.21541
 11
-10.7075
 21
8.20909
  0
LINE
  8
0
 10
-10.7075
 20
8.20909
 11
-11.0072
 21
8.2406
  0
LINE
  8
0
 10
-0.392426
 20
-6.23766
 11
-1.17113
 21
-6.13928
  0
LINE
  8
0
 10
-1.17113
 20
-6.13928
 11
-1.93135
 21
-5.94409
  0
LINE
  8
0
 10
-1.93135
 20
-5.94409
 11
-2.66112
 21
-5.65517
  0
LINE
  8
0
 10
-2.66112
 20
-5.65517
 11
-3.34891
 21
-5.27704
  0
LINE
  8
0
 10
-3.34891
 20
-5.27704
 11
-3.98389
 21
-4.8157
  0
LINE
  8
0
 10
-3.98389
 20
-4.8157
 11
-4.55605
 21
-4.27841
  0
LINE
  8
0
 10
-4.55605
 20
-4.27841
 11
-5.05635
 21
-3.67365
  0
LINE
  8
0
 10
-5.05635
 20
-3.67365
 11
-5.47691
 21
-3.01096
  0
LINE
  8
0
 10
-5.47691
 20
-3.01096
 11
-5.8111
 21
-2.30077
  0
LINE
  8
0
 10
-5.8111
 20
-2.30077
 11
-6.05363
 21
-1.55431
  0
LINE
  8
0
 10
-6.05363
 20
-1.55431
 11
-6.20071
 21
-0.783325
  0
LINE
  8
0
 10
-6.20071
 20
-0.783325
 11
-6.25
 21
0
  0
LINE
  8
0
 10
-6.25
 20
0
 11
-6.20071
 21
0.783325
  0
LINE
  8
0
 10
-6.20071
 20
0.783325
 11
-6.05363
 21
1.55431
  0
LINE
  8
0
 10
-6.05363
 20
1.55431
 11
-5.8111
 21
2.30077
  0
LINE
  8
0
 10
-5.8111
 20
2.30077
 11
-5.47691
 21
3.01096
  0
LINE
  8
0
 10
-5.47691
 20
3.01096
 11
-5.05635
 21
3.67365
  0
LINE
  8
0
 10
-5.05635
 20
3.67365
 11
-4.55605
 21
4.27841
  0
LINE
  8
0
 10
-4.55605
 20
4.27841
 11
-3.98389
 21
4.8157
  0
LINE
  8
0
 10
-3.98389
 20
4.8157
 11
-3.34891
 21
5.27704
  0
LINE
  8
0
 10
-3.34891
 20
5.27704
 11
-2.66112
 21
5.65517
  0
LINE
  8
0
 10
-2.66112
 20
5.65517
 11
-1.93135
 21
5.94409
  0
LINE
  8
0
 10
-1.93135
 20
5.94409
 11
-1.17113
 21
6.13928
  0
LINE
  8
0
 10
-1.17113
 20
6.13928
 11
-0.392426
 21
6.23766
  0
LINE
  8
0
 10
-0.392426
 20
6.23766
 11
0.392426
 21
6.23766
  0
LINE
  8
0
 10
0.392426
 20
6.23766
 11
1.17113
 21
6.13928
  0
LINE
  8
0
 10
1.17113
 20
6.13928
 11
1.93135
 21
5.94409
  0
LINE
  8
0
 10
1.93135
 20
5.94409
 11
2.66112
 21
5.65517
  0
LINE
  8
0
 10
2.66112
 20
5.65517
 11
3.34891
 21
5.27704
  0
LINE
  8
0
 10
3.34891
 20
5.27704
 11
3.98389
 21
4.8157
  0
LINE
  8
0
 10
3.98389
 20
4.8157
 11
4.55605
 21
4.27841
  0
LINE
  8
0
 10
4.55605
 20
4.27841
 11
5.05635
 21
3.67365
  0
LINE
  8
0
 10
5.05635
 20
3.67365
 11
5.47691
 21
3.01096
  0
LINE
  8
0
 10
5.47691
 20
3.01096
 11
5.8111
 21
2.30077
  0
LINE
  8
0
 10
5.8111
 20
2.30077
 11
6.05363
 21
1.55431
  0
LINE
  8
0
 10
6.05363
 20
1.55431
 11
6.20071
 21
0.783325
  0
LINE
  8
0
 10
6.20071
 20
0.783325
 11
6.25
 21
0
  0
LINE
  8
0
 10
6.25
 20
0
 11
6.20071
 21
-0.783325
  0
LINE
  8
0
 10
6.20071
 20
-0.783325
 11
6.05363
 21
-1.55431
  0
LINE
  8
0
 10
6.05363
 20
-1.55431
 11
5.8111
 21
-2.30077
  0
LINE
  8
0
 10
5.8111
 20
-2.30077
 11
5.47691
 21
-3.01096
  0
LINE
  8
0
 10
5.47691
 20
-3.01096
 11
5.05635
 21
-3.67365
  0
LINE
  8
0
 10
5.05635
 20
-3.67365
 11
4.55605
 21
-4.27841
  0
LINE
  8
0
 10
4.55605
 20
-4.27841
 11
3.98389
 21
-4.8157
  0
LINE
  8
0
 10
3.98389
 20
-4.8157
 11
3.34891
 21
-5.27704
  0
LINE
  8
0
 10
3.34891
 20
-5.27704
 11
2.66112
 21
-5.65517
  0
LINE
  8
0
 10
2.66112
 20
-5.65517
 11
1.93135
 21
-5.94409
  0
LINE
  8
0
 10
1.93135
 20
-5.94409
 11
1.17113
 21
-6.13928
  0
LINE
  8
0
 10
1.17113
 20
-6.13928
 11
0.392426
 21
-6.23766
  0
LINE
  8
0
 10
0.392426
 20
-6.23766
 11
-0.392426
 21
-6.23766
  0
LINE
  8
0
 10
0.983749
 20
-5.157
 11
1.62233
 21
-4.99304
  0
LINE
  8
0
 10
1.62233
 20
-4.99304
 11
2.23534
 21
-4.75034
  0
LINE
  8
0
 10
2.23534
 20
-4.75034
 11
2.81308
 21
-4.43271
  0
LINE
  8
0
 10
2.81308
 20
-4.43271
 11
3.34647
 21
-4.04518
  0
LINE
  8
0
 10
3.34647
 20
-4.04518
 11
3.82707
 21
-3.59387
  0
LINE
  8
0
 10
3.82707
 20
-3.59387
 11
4.24733
 21
-3.08586
  0
LINE
  8
0
 10
4.24733
 20
-3.08586
 11
4.6006
 21
-2.52921
  0
LINE
  8
0
 10
4.6006
 20
-2.52921
 11
4.88132
 21
-1.93265
  0
LINE
  8
0
 10
4.88132
 20
-1.93265
 11
5.08505
 21
-1.30562
  0
LINE
  8
0
 10
5.08505
 20
-1.30562
 11
5.20859
 21
-0.65799
  0
LINE
  8
0
 10
5.20859
 20
-0.65799
 11
5.25
 21
0
  0
LINE
  8
0
 10
5.25
 20
0
 11
5.20859
 21
0.65799
  0
LINE
  8
0
 10
5.20859
 20
0.65799
 11
5.08505
 21
1.30562
  0
LINE
  8
0
 10
5.08505
 20
1.30562
 11
4.88132
 21
1.93265
  0
LINE
  8
0
 10
4.88132
 20
1.93265
 11
4.6006
 21
2.52921
  0
LINE
  8
0
 10
4.6006
 20
2.52921
 11
4.24733
 21
3.08586
  0
LINE
  8
0
 10
4.24733
 20
3.08586
 11
3.82707
 21
3.59387
  0
LINE
  8
0
 10
3.82707
 20
3.59387
 11
3.34647
 21
4.04518
  0
LINE
  8
0
 10
3.34647
 20
4.04518
 11
2.81308
 21
4.43271
  0
LINE
  8
0
 10
2.81308
 20
4.43271
 11
2.23534
 21
4.75034
  0
LINE
  8
0
 10
2.23534
 20
4.75034
 11
1.62233
 21
4.99304
  0
LINE
  8
0
 10
1.62233
 20
4.99304
 11
0.983749
 21
5.157
  0
LINE
  8
0
 10
0.983749
 20
5.157
 11
0.329636
 21
5.23964
  0
LINE
  8
0
 10
0.329636
 20
5.23964
 11
-0.329636
 21
5.23964
  0
LINE
  8
0
 10
-0.329636
 20
5.23964
 11
-0.983749
 21
5.157
  0
LINE
  8
0
 10
-0.983749
 20
5.157
 11
-1.62233
 21
4.99304
  0
LINE
  8
0
 10
-1.62233
 20
4.99304
 11
-2.23534
 21
4.75034
  0
LINE
  8
0
 10
-2.23534
 20
4.75034
 11
-2.81308
 21
4.43271
  0
LINE
  8
0
 10
-2.81308
 20
4.43271
 11
-3.34647
 21
4.04518
  0
LINE
  8
0
 10
-3.34647
 20
4.04518
 11
-3.82707
 21
3.59387
  0
LINE
  8
0
 10
-3.82707
 20
3.59387
 11
-4.24733
 21
3.08586
  0
LINE
  8
0
 10
-4.24733
 20
3.08586
 11
-4.6006
 21
2.52921
  0
LINE
  8
0
 10
-4.6006
 20
2.52921
 11
-4.88132
 21
1.93265
  0
LINE
  8
0
 10
-4.88132
 20
1.93265
 11
-5.08505
 21
1.30562
  0
LINE
  8
0
 10
-5.08505
 20
1.30562
 11
-5.20859
 21
0.65799
  0
LINE
  8
0
 10
-5.20859
 20
0.65799
 11
-5.25
 21
0
  0
LINE
  8
0
 10
-5.25
 20
0
 11
-5.20859
 21
-0.65799
  0
LINE
  8
0
 10
-5.20859
 20
-0.65799
 11
-5.08505
 21
-1.30562
  0
LINE
  8
0
 10
-5.08505
 20
-1.30562
 11
-4.88132
 21
-1.93265
  0
LINE
  8
0
 10
-4.88132
 20
-1.93265
 11
-4.6006
 21
-2.52921
  0
LINE
  8
0
 10
-4.6006
 20
-2.52921
 11
-4.24733
 21
-3.08586
  0
LINE
  8
0
 10
-4.24733
 20
-3.08586
 11
-3.82707
 21
-3.59387
  0
LINE
  8
0
 10
-3.82707
 20
-3.59387
 11
-3.34647
 21
-4.04518
  0
LINE
  8
0
 10
-3.34647
 20
-4.04518
 11
-2.81308
 21
-4.43271
  0
LINE
  8
0
 10
-2.81308
 20
-4.43271
 11
-2.23534
 21
-4.75034
  0
LINE
  8
0
 10
-2.23534
 20
-4.75034
 11
-1.62233
 21
-4.99304
  0
LINE
  8
0
 10
-1.62233
 20
-4.99304
 11
-0.983749
 21
-5.157
  0
LINE
  8
0
 10
-0.983749
 20
-5.157
 11
-0.329636
 21
-5.23964
  0
LINE
  8
0
 10
-0.329636
 20
-5.23964
 11
0.329636
 21
-5.23964
  0
LINE
  8
0
 10
0.329636
 20
-5.23964
 11
0.983749
 21
-5.157
  0
LINE
  8
0
 10
-0.18837
 20
-2.99408
 11
-0.562134
 21
-2.94685
  0
LINE
  8
0
 10
-0.562134
 20
-2.94685
 11
-0.927048
 21
-2.85316
  0
LINE
  8
0
 10
-0.927048
 20
-2.85316
 11
-1.27733
 21
-2.71448
  0
LINE
  8
0
 10
-1.27733
 20
-2.71448
 11
-1.60747
 21
-2.53297
  0
LINE
  8
0
 10
-1.60747
 20
-2.53297
 11
-1.91226
 21
-2.31154
  0
LINE
  8
0
 10
-1.91226
 20
-2.31154
 11
-2.1869
 21
-2.05363
  0
LINE
  8
0
 10
-2.1869
 20
-2.05363
 11
-2.42705
 21
-1.76335
  0
LINE
  8
0
 10
-2.42705
 20
-1.76335
 11
-2.62891
 21
-1.44525
  0
LINE
  8
0
 10
-2.62891
 20
-1.44525
 11
-2.78932
 21
-1.10437
  0
LINE
  8
0
 10
-2.78932
 20
-1.10437
 11
-2.90575
 21
-0.746063
  0
LINE
  8
0
 10
-2.90575
 20
-0.746063
 11
-2.97633
 21
-0.375992
  0
LINE
  8
0
 10
-2.97633
 20
-0.375992
 11
-3
 21
0
  0
LINE
  8
0
 10
-3
 20
0
 11
-2.97633
 21
0.375992
  0
LINE
  8
0
 10
-2.97633
 20
0.375992
 11
-2.90575
 21
0.746063
  0
LINE
  8
0
 10
-2.90575
 20
0.746063
 11
-2.78932
 21
1.10437
  0
LINE
  8
0
 10
-2.78932
 20
1.10437
 11
-2.62891
 21
1.44525
  0
LINE
  8
0
 10
-2.62891
 20
1.44525
 11
-2.42705
 21
1.76335
  0
LINE
  8
0
 10
-2.42705
 20
1.76335
 11
-2.1869
 21
2.05363
  0
LINE
  8
0
 10
-2.1869
 20
2.05363
 11
-1.91226
 21
2.31154
  0
LINE
  8
0
 10
-1.91226
 20
2.31154
 11
-1.60747
 21
2.53297
  0
LINE
  8
0
 10
-1.60747
 20
2.53297
 11
-1.27733
 21
2.71448
  0
LINE
  8
0
 10
-1.27733
 20
2.71448
 11
-0.927048
 21
2.85316
  0
LINE
  8
0
 10
-0.927048
 20
2.85316
 11
-0.562134
 21
2.94685
  0
LINE
  8
0
 10
-0.562134
 20
2.94685
 11
-0.18837
 21
2.99408
  0
LINE
  8
0
 10
-0.18837
 20
2.99408
 11
0.18837
 21
2.99408
  0
LINE
  8
0
 10
0.18837
 20
2.99408
 11
0.562134
 21
2.94685
  0
LINE
  8
0
 10
0.562134
 20
2.94685
 11
0.927048
 21
2.85316
  0
LINE
  8
0
 10
0.927048
 20
2.85316
 11
1.27733
 21
2.71448
  0
LINE
  8
0
 10
1.27733
 20
2.71448
 11
1.60747
 21
2.53297
  0
LINE
  8
0
 10
1.60747
 20
2.53297
 11
1.91226
 21
2.31154
  0
LINE
  8
0
 10
1.91226
 20
2.31154
 11
2.1869
 21
2.05363
  0
LINE
  8
0
 10
2.1869
 20
2.05363
 11
2.42705
 21
1.76335
  0
LINE
  8
0
 10
2.42705
 20
1.76335
 11
2.62891
 21
1.44525
  0
LINE
  8
0
 10
2.62891
 20
1.44525
 11
2.78932
 21
1.10437
  0
LINE
  8
0
 10
2.78932
 20
1.10437
 11
2.90575
 21
0.746063
  0
LINE
  8
0
 10
2.90575
 20
0.746063
 11
2.97633
 21
0.375992
  0
LINE
  8
0
 10
2.97633
 20
0.375992
 11
3
 21
0
  0
LINE
  8
0
 10
3
 20
0
 11
2.97633
 21
-0.375992
  0
LINE
  8
0
 10
2.97633
 20
-0.375992
 11
2.90575
 21
-0.746063
  0
LINE
  8
0
 10
2.90575
 20
-0.746063
 11
2.78932
 21
-1.10437
  0
LINE
  8
0
 10
2.78932
 20
-1.10437
 11
2.62891
 21
-1.44525
  0
LINE
  8
0
 10
2.62891
 20
-1.44525
 11
2.42705
 21
-1.76335
  0
LINE
  8
0
 10
2.42705
 20
-1.76335
 11
2.1869
 21
-2.05363
  0
LINE
  8
0
 10
2.1869
 20
-2.05363
 11
1.91226
 21
-2.31154
  0
LINE
  8
0
 10
1.91226
 20
-2.31154
 11
1.60747
 21
-2.53297
  0
LINE
  8
0
 10
1.60747
 20
-2.53297
 11
1.27733
 21
-2.71448
  0
LINE
  8
0
 10
1.27733
 20
-2.71448
 11
0.927048
 21
-2.85316
  0
LINE
  8
0
 10
0.927048
 20
-2.85316
 11
0.562134
 21
-2.94685
  0
LINE
  8
0
 10
0.562134
 20
-2.94685
 11
0.18837
 21
-2.99408
  0
LINE
  8
0
 10
0.18837
 20
-2.99408
 11
-0.18837
 21
-2.99408
  0
LINE
  8
0
 10
-15.1884
 20
-2.99408
 11
-15.5621
 21
-2.94685
  0
LINE
  8
0
 10
-15.5621
 20
-2.94685
 11
-15.927
 21
-2.85316
  0
LINE
  8
0
 10
-15.927
 20
-2.85316
 11
-16.2773
 21
-2.71448
  0
LINE
  8
0
 10
-16.2773
 20
-2.71448
 11
-16.6075
 21
-2.53297
  0
LINE
  8
0
 10
-16.6075
 20
-2.53297
 11
-16.9123
 21
-2.31154
  0
LINE
  8
0
 10
-16.9123
 20
-2.31154
 11
-17.1869
 21
-2.05363
  0
LINE
  8
0
 10
-17.1869
 20
-2.05363
 11
-17.427
 21
-1.76335
  0
LINE
  8
0
 10
-17.427
 20
-1.76335
 11
-17.6289
 21
-1.44525
  0
LINE
  8
0
 10
-17.6289
 20
-1.44525
 11
-17.7893
 21
-1.10437
  0
LINE
  8
0
 10
-17.7893
 20
-1.10437
 11
-17.9057
 21
-0.746063
  0
LINE
  8
0
 10
-17.9057
 20
-0.746063
 11
-17.9763
 21
-0.375992
  0
LINE
  8
0
 10
-17.9763
 20
-0.375992
 11
-18
 21
0
  0
LINE
  8
0
 10
-18
 20
0
 11
-17.9763
 21
0.375992
  0
LINE
  8
0
 10
-17.9763
 20
0.375992
 11
-17.9057
 21
0.746063
  0
LINE
  8
0
 10
-17.9057
 20
0.746063
 11
-17.7893
 21
1.10437
  0
LINE
  8
0
 10
-17.7893
 20
1.10437
 11
-17.6289
 21
1.44525
  0
LINE
  8
0
 10
-17.6289
 20
1.44525
 11
-17.427
 21
1.76335
  0
LINE
  8
0
 10
-17.427
 20
1.76335
 11
-17.1869
 21
2.05363
  0
LINE
  8
0
 10
-17.1869
 20
2.05363
 11
-16.9123
 21
2.31154
  0
LINE
  8
0
 10
-16.9123
 20
2.31154
 11
-16.6075
 21
2.53297
  0
LINE
  8
0
 10
-16.6075
 20
2.53297
 11
-16.2773
 21
2.71448
  0
LINE
  8
0
 10
-16.2773
 20
2.71448
 11
-15.927
 21
2.85316
  0
LINE
  8
0
 10
-15.927
 20
2.85316
 11
-15.5621
 21
2.94685
  0
LINE
  8
0
 10
-15.5621
 20
2.94685
 11
-15.1884
 21
2.99408
  0
LINE
  8
0
 10
-15.1884
 20
2.99408
 11
-14.8116
 21
2.99408
  0
LINE
  8
0
 10
-14.8116
 20
2.99408
 11
-14.4379
 21
2.94685
  0
LINE
  8
0
 10
-14.4379
 20
2.94685
 11
-14.0729
 21
2.85316
  0
LINE
  8
0
 10
-14.0729
 20
2.85316
 11
-13.7227
 21
2.71448
  0
LINE
  8
0
 10
-13.7227
 20
2.71448
 11
-13.3925
 21
2.53297
  0
LINE
  8
0
 10
-13.3925
 20
2.53297
 11
-13.0877
 21
2.31154
  0
LINE
  8
0
 10
-13.0877
 20
2.31154
 11
-12.8131
 21
2.05363
  0
LINE
  8
0
 10
-12.8131
 20
2.05363
 11
-12.5729
 21
1.76335
  0
LINE
  8
0
 10
-12.5729
 20
1.76335
 11
-12.3711
 21
1.44525
  0
LINE
  8
0
 10
-12.3711
 20
1.44525
 11
-12.2107
 21
1.10437
  0
LINE
  8
0
 10
-12.2107
 20
1.10437
 11
-12.0942
 21
0.746063
  0
LINE
  8
0
 10
-12.0942
 20
0.746063
 11
-12.0237
 21
0.375992
  0
LINE
  8
0
 10
-12.0237
 20
0.375992
 11
-12
 21
0
  0
LINE
  8
0
 10
-12
 20
0
 11
-12.0237
 21
-0.375992
  0
LINE
  8
0
 10
-12.0237
 20
-0.375992
 11
-12.0942
 21
-0.746063
  0
LINE
  8
0
 10
-12.0942
 20
-0.746063
 11
-12.2107
 21
-1.10437
  0
LINE
  8
0
 10
-12.2107
 20
-1.10437
 11
-12.3711
 21
-1.44525
  0
LINE
  8
0
 10
-12.3711
 20
-1.44525
 11
-12.5729
 21
-1.76335
  0
LINE
  8
0
 10
-12.5729
 20
-1.76335
 11
-12.8131
 21
-2.05363
  0
LINE
  8
0
 10
-12.8131
 20
-2.05363
 11
-13.0877
 21
-2.31154
  0
LINE
  8
0
 10
-13.0877
 20
-2.31154
 11
-13.3925
 21
-2.53297
  0
LINE
  8
0
 10
-13.3925
 20
-2.53297
 11
-13.7227
 21
-2.71448
  0
LINE
  8
0
 10
-13.7227
 20
-2.71448
 11
-14.0729
 21
-2.85316
  0
LINE
  8
0
 10
-14.0729
 20
-2.85316
 11
-14.4379
 21
-2.94685
  0
LINE
  8
0
 10
-14.4379
 20
-2.94685
 11
-14.8116
 21
-2.99408
  0
LINE
  8
0
 10
-14.8116
 20
-2.99408
 11
-15.1884
 21
-2.99408
  0
LINE
  8
0
 10
14.8116
 20
-2.99408
 11
14.4379
 21
-2.94685
  0
LINE
  8
0
 10
14.4379
 20
-2.94685
 11
14.0729
 21
-2.85316
  0
LINE
  8
0
 10
14.0729
 20
-2.85316
 11
13.7227
 21
-2.71448
  0
LINE
  8
0
 10
13.7227
 20
-2.71448
 11
13.3925
 21
-2.53297
  0
LINE
  8
0
 10
13.3925
 20
-2.53297
 11
13.0877
 21
-2.31154
  0
LINE
  8
0
 10
13.0877
 20
-2.31154
 11
12.8131
 21
-2.05363
  0
LINE
  8
0
 10
12.8131
 20
-2.05363
 11
12.5729
 21
-1.76335
  0
LINE
  8
0
 10
12.5729
 20
-1.76335
 11
12.3711
 21
-1.44525
  0
LINE
  8
0
 10
12.3711
 20
-1.44525
 11
12.2107
 21
-1.10437
  0
LINE
  8
0
 10
12.2107
 20
-1.10437
 11
12.0942
 21
-0.746063
  0
LINE
  8
0
 10
12.0942
 20
-0.746063
 11
12.0237
 21
-0.375992
  0
LINE
  8
0
 10
12.0237
 20
-0.375992
 11
12
 21
0
  0
LINE
  8
0
 10
12
 20
0
 11
12.0237
 21
0.375992
  0
LINE
  8
0
 10
12.0237
 20
0.375992
 11
12.0942
 21
0.746063
  0
LINE
  8
0
 10
12.0942
 20
0.746063
 11
12.2107
 21
1.10437
  0
LINE
  8
0
 10
12.2107
 20
1.10437
 11
12.3711
 21
1.44525
  0
LINE
  8
0
 10
12.3711
 20
1.44525
 11
12.5729
 21
1.76335
  0
LINE
  8
0
 10
12.5729
 20
1.76335
 11
12.8131
 21
2.05363
  0
LINE
  8
0
 10
12.8131
 20
2.05363
 11
13.0877
 21
2.31154
  0
LINE
  8
0
 10
13.0877
 20
2.31154
 11
13.3925
 21
2.53297
  0
LINE
  8
0
 10
13.3925
 20
2.53297
 11
13.7227
 21
2.71448
  0
LINE
  8
0
 10
13.7227
 20
2.71448
 11
14.0729
 21
2.85316
  0
LINE
  8
0
 10
14.0729
 20
2.85316
 11
14.4379
 21
2.94685
  0
LINE
  8
0
 10
14.4379
 20
2.94685
 11
14.8116
 21
2.99408
  0
LINE
  8
0
 10
14.8116
 20
2.99408
 11
15.1884
 21
2.99408
  0
LINE
  8
0
 10
15.1884
 20
2.99408
 11
15.5621
 21
2.94685
  0
LINE
  8
0
 10
15.5621
 20
2.94685
 11
15.927
 21
2.85316
  0
LINE
  8
0
 10
15.927
 20
2.85316
 11
16.2773
 21
2.71448
  0
LINE
  8
0
 10
16.2773
 20
2.71448
 11
16.6075
 21
2.53297
  0
LINE
  8
0
 10
16.6075
 20
2.53297
 11
16.9123
 21
2.31154
  0
LINE
  8
0
 10
16.9123
 20
2.31154
 11
17.1869
 21
2.05363
  0
LINE
  8
0
 10
17.1869
 20
2.05363
 11
17.427
 21
1.76335
  0
LINE
  8
0
 10
17.427
 20
1.76335
 11
17.6289
 21
1.44525
  0
LINE
  8
0
 10
17.6289
 20
1.44525
 11
17.7893
 21
1.10437
  0
LINE
  8
0
 10
17.7893
 20
1.10437
 11
17.9057
 21
0.746063
  0
LINE
  8
0
 10
17.9057
 20
0.746063
 11
17.9763
 21
0.375992
  0
LINE
  8
0
 10
17.9763
 20
0.375992
 11
18
 21
0
  0
LINE
  8
0
 10
18
 20
0
 11
17.9763
 21
-0.375992
  0
LINE
  8
0
 10
17.9763
 20
-0.375992
 11
17.9057
 21
-0.746063
  0
LINE
  8
0
 10
17.9057
 20
-0.746063
 11
17.7893
 21
-1.10437
  0
LINE
  8
0
 10
17.7893
 20
-1.10437
 11
17.6289
 21
-1.44525
  0
LINE
  8
0
 10
17.6289
 20
-1.44525
 11
17.427
 21
-1.76335
  0
LINE
  8
0
 10
17.427
 20
-1.76335
 11
17.1869
 21
-2.05363
  0
LINE
  8
0
 10
17.1869
 20
-2.05363
 11
16.9123
 21
-2.31154
  0
LINE
  8
0
 10
16.9123
 20
-2.31154
 11
16.6075
 21
-2.53297
  0
LINE
  8
0
 10
16.6075
 20
-2.53297
 11
16.2773
 21
-2.71448
  0
LINE
  8
0
 10
16.2773
 20
-2.71448
 11
15.927
 21
-2.85316
  0
LINE
  8
0
 10
15.927
 20
-2.85316
 11
15.5621
 21
-2.94685
  0
LINE
  8
0
 10
15.5621
 20
-2.94685
 11
15.1884
 21
-2.99408
  0
LINE
  8
0
 10
15.1884
 20
-2.99408
 11
14.8116
 21
-2.99408
  0
LINE
  8
0
 10
10.2067
 20
-12.9734
 11
9.91331
 21
-12.9046
  0
LINE
  8
0
 10
9.91331
 20
-12.9046
 11
9.63083
 21
-12.7995
  0
LINE
  8
0
 10
9.63083
 20
-12.7995
 11
9.36372
 21
-12.6599
  0
LINE
  8
0
 10
9.36372
 20
-12.6599
 11
9.11624
 21
-12.4879
  0
LINE
  8
0
 10
9.11624
 20
-12.4879
 11
8.89226
 21
-12.2862
  0
LINE
  8
0
 10
8.89226
 20
-12.2862
 11
8.69533
 21
-12.058
  0
LINE
  8
0
 10
8.69533
 20
-12.058
 11
8.52853
 21
-11.807
  0
LINE
  8
0
 10
8.52853
 20
-11.807
 11
8.39452
 21
-11.537
  0
LINE
  8
0
 10
8.39452
 20
-11.537
 11
8.29539
 21
-11.2524
  0
LINE
  8
0
 10
8.29539
 20
-11.2524
 11
8.23274
 21
-10.9576
  0
LINE
  8
0
 10
8.23274
 20
-10.9576
 11
8.20752
 21
-10.6573
  0
LINE
  8
0
 10
8.20752
 20
-10.6573
 11
8.22014
 21
-10.3561
  0
LINE
  8
0
 10
8.22014
 20
-10.3561
 11
8.2704
 21
-10.0589
  0
LINE
  8
0
 10
8.2704
 20
-10.0589
 11
8.35751
 21
-9.77042
  0
LINE
  8
0
 10
8.35751
 20
-9.77042
 11
8.4801
 21
-9.49509
  0
LINE
  8
0
 10
8.4801
 20
-9.49509
 11
8.63623
 21
-9.23727
  0
LINE
  8
0
 10
8.63623
 20
-9.23727
 11
8.82344
 21
-9.00108
  0
LINE
  8
0
 10
8.82344
 20
-9.00108
 11
9.03879
 21
-8.79021
  0
LINE
  8
0
 10
9.03879
 20
-8.79021
 11
9.27885
 21
-8.60799
  0
LINE
  8
0
 10
9.27885
 20
-8.60799
 11
9.53987
 21
-8.45729
  0
LINE
  8
0
 10
9.53987
 20
-8.45729
 11
9.81772
 21
-8.34048
  0
LINE
  8
0
 10
9.81772
 20
-8.34048
 11
10.108
 21
-8.25945
  0
LINE
  8
0
 10
10.108
 20
-8.25945
 11
10.4062
 21
-8.21541
  0
LINE
  8
0
 10
10.4062
 20
-8.21541
 11
10.7075
 21
-8.20909
  0
LINE
  8
0
 10
10.7075
 20
-8.20909
 11
11.0072
 21
-8.2406
  0
LINE
  8
0
 10
11.0072
 20
-8.2406
 11
11.3007
 21
-8.30943
  0
LINE
  8
0
 10
11.3007
 20
-8.30943
 11
11.5832
 21
-8.41449
  0
LINE
  8
0
 10
11.5832
 20
-8.41449
 11
11.8503
 21
-8.55412
  0
LINE
  8
0
 10
11.8503
 20
-8.55412
 11
12.0977
 21
-8.72614
  0
LINE
  8
0
 10
12.0977
 20
-8.72614
 11
12.3217
 21
-8.9278
  0
LINE
  8
0
 10
12.3217
 20
-8.9278
 11
12.5187
 21
-9.15596
  0
LINE
  8
0
 10
12.5187
 20
-9.15596
 11
12.6855
 21
-9.407
  0
LINE
  8
0
 10
12.6855
 20
-9.407
 11
12.8195
 21
-9.67696
  0
LINE
  8
0
 10
12.8195
 20
-9.67696
 11
12.9186
 21
-9.96158
  0
LINE
  8
0
 10
12.9186
 20
-9.96158
 11
12.9812
 21
-10.2564
  0
LINE
  8
0
 10
12.9812
 20
-10.2564
 11
13.0065
 21
-10.5567
  0
LINE
  8
0
 10
13.0065
 20
-10.5567
 11
12.9939
 21
-10.8579
  0
LINE
  8
0
 10
12.9939
 20
-10.8579
 11
12.9436
 21
-11.155
  0
LINE
  8
0
 10
12.9436
 20
-11.155
 11
12.8565
 21
-11.4436
  0
LINE
  8
0
 10
12.8565
 20
-11.4436
 11
12.7339
 21
-11.7189
  0
LINE
  8
0
 10
12.7339
 20
-11.7189
 11
12.5777
 21
-11.9767
  0
LINE
  8
0
 10
12.5777
 20
-11.9767
 11
12.3905
 21
-12.2129
  0
LINE
  8
0
 10
12.3905
 20
-12.2129
 11
12.1752
 21
-12.4238
  0
LINE
  8
0
 10
12.1752
 20
-12.4238
 11
11.9351
 21
-12.606
  0
LINE
  8
0
 10
11.9351
 20
-12.606
 11
11.6741
 21
-12.7567
  0
LINE
  8
0
 10
11.6741
 20
-12.7567
 11
11.3963
 21
-12.8735
  0
LINE
  8
0
 10
11.3963
 20
-12.8735
 11
11.106
 21
-12.9545
  0
LINE
  8
0
 10
11.106
 20
-12.9545
 11
10.8078
 21
-12.9986
  0
LINE
  8
0
 10
10.8078
 20
-12.9986
 11
10.5065
 21
-13.0049
  0
LINE
  8
0
 10
10.5065
 20
-13.0049
 11
10.2067
 21
-12.9734
  0
LINE
  8
0
 10
-11.0072
 20
-12.9734
 11
-11.3007
 21
-12.9046
  0
LINE
  8
0
 10
-11.3007
 20
-12.9046
 11
-11.5832
 21
-12.7995
  0
LINE
  8
0
 10
-11.5832
 20
-12.7995
 11
-11.8503
 21
-12.6599
  0
LINE
  8
0
 10
-11.8503
 20
-12.6599
 11
-12.0977
 21
-12.4879
  0
LINE
  8
0
 10
-12.0977
 20
-12.4879
 11
-12.3217
 21
-12.2862
  0
LINE
  8
0
 10
-12.3217
 20
-12.2862
 11
-12.5187
 21
-12.058
  0
LINE
  8
0
 10
-12.5187
 20
-12.058
 11
-12.6855
 21
-11.807
  0
LINE
  8
0
 10
-12.6855
 20
-11.807
 11
-12.8195
 21
-11.537
  0
LINE
  8
0
 10
-12.8195
 20
-11.537
 11
-12.9186
 21
-11.2524
  0
LINE
  8
0
 10
-12.9186
 20
-11.2524
 11
-12.9812
 21
-10.9576
  0
LINE
  8
0
 10
-12.9812
 20
-10.9576
 11
-13.0065
 21
-10.6573
  0
LINE
  8
0
 10
-13.0065
 20
-10.6573
 11
-12.9939
 21
-10.3561
  0
LINE
  8
0
 10
-12.9939
 20
-10.3561
 11
-12.9436
 21
-10.0589
  0
LINE
  8
0
 10
-12.9436
 20
-10.0589
 11
-12.8565
 21
-9.77042
  0
LINE
  8
0
 10
-12.8565
 20
-9.77042
 11
-12.7339
 21
-9.49509
  0
LINE
  8
0
 10
-12.7339
 20
-9.49509
 11
-12.5777
 21
-9.23727
  0
LINE
  8
0
 10
-12.5777
 20
-9.23727
 11
-12.3905
 21
-9.00108
  0
LINE
  8
0
 10
-12.3905
 20
-9.00108
 11
-12.1752
 21
-8.79021
  0
LINE
  8
0
 10
-12.1752
 20
-8.79021
 11
-11.9351
 21
-8.60799
  0
LINE
  8
0
 10
-11.9351
 20
-8.60799
 11
-11.6741
 21
-8.45729
  0
LINE
  8
0
 10
-11.6741
 20
-8.45729
 11
-11.3963
 21
-8.34048
  0
LINE
  8
0
 10
-11.3963
 20
-8.34048
 11
-11.106
 21
-8.25945
  0
LINE
  8
0
 10
-11.106
 20
-8.25945
 11
-10.8078
 21
-8.21541
  0
LINE
  8
0
 10
-10.8078
 20
-8.21541
 11
-10.5065
 21
-8.20909
  0
LINE
  8
0
 10
-10.5065
 20
-8.20909
 11
-10.2067
 21
-8.2406
  0
LINE
  8
0
 10
-10.2067
 20
-8.2406
 11
-9.91331
 21
-8.30943
  0
LINE
  8
0
 10
-9.91331
 20
-8.30943
 11
-9.63083
 21
-8.41449
  0
LINE
  8
0
 10
-9.63083
 20
-8.41449
 11
-9.36372
 21
-8.55412
  0
LINE
  8
0
 10
-9.36372
 20
-8.55412
 11
-9.11624
 21
-8.72614
  0
LINE
  8
0
 10
-9.11624
 20
-8.72614
 11
-8.89226
 21
-8.9278
  0
LINE
  8
0
 10
-8.89226
 20
-8.9278
 11
-8.69533
 21
-9.15596
  0
LINE
  8
0
 10
-8.69533
 20
-9.15596
 11
-8.52853
 21
-9.407
  0
LINE
  8
0
 10
-8.52853
 20
-9.407
 11
-8.39452
 21
-9.67696
  0
LINE
  8
0
 10
-8.39452
 20
-9.67696
 11
-8.29539
 21
-9.96158
  0
LINE
  8
0
 10
-8.29539
 20
-9.96158
 11
-8.23274
 21
-10.2564
  0
LINE
  8
0
 10
-8.23274
 20
-10.2564
 11
-8.20752
 21
-10.5567
  0
LINE
  8
0
 10
-8.20752
 20
-10.5567
 11
-8.22014
 21
-10.8579
  0
LINE
  8
0
 10
-8.22014
 20
-10.8579
 11
-8.2704
 21
-11.155
  0
LINE
  8
0
 10
-8.2704
 20
-11.155
 11
-8.35751
 21
-11.4436
  0
LINE
  8
0
 10
-8.35751
 20
-11.4436
 11
-8.4801
 21
-11.7189
  0
LINE
  8
0
 10
-8.4801
 20
-11.7189
 11
-8.63623
 21
-11.9767
  0
LINE
  8
0
 10
-8.63623
 20
-11.9767
 11
-8.82344
 21
-12.2129
  0
LINE
  8
0
 10
-8.82344
 20
-12.2129
 11
-9.03879
 21
-12.4238
  0
LINE
  8
0
 10
-9.03879
 20
-12.4238
 11
-9.27885
 21
-12.606
  0
LINE
  8
0
 10
-9.27885
 20
-12.606
 11
-9.53987
 21
-12.7567
  0
LINE
  8
0
 10
-9.53987
 20
-12.7567
 11
-9.81772
 21
-12.8735
  0
LINE
  8
0
 10
-9.81772
 20
-12.8735
 11
-10.108
 21
-12.9545
  0
LINE
  8
0
 10
-10.108
 20
-12.9545
 11
-10.4062
 21
-12.9986
  0
LINE
  8
0
 10
-10.4062
 20
-12.9986
 11
-10.7075
 21
-13.0049
  0
LINE
  8
0
 10
-10.7075
 20
-13.0049
 11
-11.0072
 21
-12.9734
  0
LINE
  8
0
 10
-0.18837
 20
-17.9941
 11
-0.562134
 21
-17.9469
  0
LINE
  8
0
 10
-0.562134
 20
-17.9469
 11
-0.927048
 21
-17.8532
  0
LINE
  8
0
 10
-0.927048
 20
-17.8532
 11
-1.27733
 21
-17.7145
  0
LINE
  8
0
 10
-1.27733
 20
-17.7145
 11
-1.60747
 21
-17.533
  0
LINE
  8
0
 10
-1.60747
 20
-17.533
 11
-1.91226
 21
-17.3115
  0
LINE
  8
0
 10
-1.91226
 20
-17.3115
 11
-2.1869
 21
-17.0536
  0
LINE
  8
0
 10
-2.1869
 20
-17.0536
 11
-2.42705
 21
-16.7634
  0
LINE
  8
0
 10
-2.42705
 20
-16.7634
 11
-2.62891
 21
-16.4453
  0
LINE
  8
0
 10
-2.62891
 20
-16.4453
 11
-2.78932
 21
-16.1044
  0
LINE
  8
0
 10
-2.78932
 20
-16.1044
 11
-2.90575
 21
-15.7461
  0
LINE
  8
0
 10
-2.90575
 20
-15.7461
 11
-2.97633
 21
-15.376
  0
LINE
  8
0
 10
-2.97633
 20
-15.376
 11
-3
 21
-15
  0
LINE
  8
0
 10
-3
 20
-15
 11
-2.97633
 21
-14.624
  0
LINE
  8
0
 10
-2.97633
 20
-14.624
 11
-2.90575
 21
-14.2539
  0
LINE
  8
0
 10
-2.90575
 20
-14.2539
 11
-2.78932
 21
-13.8956
  0
LINE
  8
0
 10
-2.78932
 20
-13.8956
 11
-2.62891
 21
-13.5547
  0
LINE
  8
0
 10
-2.62891
 20
-13.5547
 11
-2.42705
 21
-13.2366
  0
LINE
  8
0
 10
-2.42705
 20
-13.2366
 11
-2.1869
 21
-12.9464
  0
LINE
  8
0
 10
-2.1869
 20
-12.9464
 11
-1.91226
 21
-12.6884
  0
LINE
  8
0
 10
-1.91226
 20
-12.6884
 11
-1.60747
 21
-12.467
  0
LINE
  8
0
 10
-1.60747
 20
-12.467
 11
-1.27733
 21
-12.2855
  0
LINE
  8
0
 10
-1.27733
 20
-12.2855
 11
-0.927048
 21
-12.1468
  0
LINE
  8
0
 10
-0.927048
 20
-12.1468
 11
-0.562134
 21
-12.0531
  0
LINE
  8
0
 10
-0.562134
 20
-12.0531
 11
-0.18837
 21
-12.0059
  0
LINE
  8
0
 10
-0.18837
 20
-12.0059
 11
0.18837
 21
-12.0059
  0
LINE
  8
0
 10
0.18837
 20
-12.0059
 11
0.562134
 21
-12.0531
  0
LINE
  8
0
 10
0.562134
 20
-12.0531
 11
0.927048
 21
-12.1468
  0
LINE
  8
0
 10
0.927048
 20
-12.1468
 11
1.27733
 21
-12.2855
  0
LINE
  8
0
 10
1.27733
 20
-12.2855
 11
1.60747
 21
-12.467
  0
LINE
  8
0
 10
1.60747
 20
-12.467
 11
1.91226
 21
-12.6884
  0
LINE
  8
0
 10
1.91226
 20
-12.6884
 11
2.1869
 21
-12.9464
  0
LINE
  8
0
 10
2.1869
 20
-12.9464
 11
2.42705
 21
-13.2366
  0
LINE
  8
0
 10
2.42705
 20
-13.2366
 11
2.62891
 21
-13.5547
  0
LINE
  8
0
 10
2.62891
 20
-13.5547
 11
2.78932
 21
-13.8956
  0
LINE
  8
0
 10
2.78932
 20
-13.8956
 11
2.90575
 21
-14.2539
  0
LINE
  8
0
 10
2.90575
 20
-14.2539
 11
2.97633
 21
-14.624
  0
LINE
  8
0
 10
2.97633
 20
-14.624
 11
3
 21
-15
  0
LINE
  8
0
 10
3
 20
-15
 11
2.97633
 21
-15.376
  0
LINE
  8
0
 10
2.97633
 20
-15.376
 11
2.90575
 21
-15.7461
  0
LINE
  8
0
 10
2.90575
 20
-15.7461
 11
2.78932
 21
-16.1044
  0
LINE
  8
0
 10
2.78932
 20
-16.1044
 11
2.62891
 21
-16.4453
  0
LINE
  8
0
 10
2.62891
 20
-16.4453
 11
2.42705
 21
-16.7634
  0
LINE
  8
0
 10
2.42705
 20
-16.7634
 11
2.1869
 21
-17.0536
  0
LINE
  8
0
 10
2.1869
 20
-17.0536
 11
1.91226
 21
-17.3115
  0
LINE
  8
0
 10
1.91226
 20
-17.3115
 11
1.60747
 21
-17.533
  0
LINE
  8
0
 10
1.60747
 20
-17.533
 11
1.27733
 21
-17.7145
  0
LINE
  8
0
 10
1.27733
 20
-17.7145
 11
0.927048
 21
-17.8532
  0
LINE
  8
0
 10
0.927048
 20
-17.8532
 11
0.562134
 21
-17.9469
  0
LINE
  8
0
 10
0.562134
 20
-17.9469
 11
0.18837
 21
-17.9941
  0
LINE
  8
0
 10
0.18837
 20
-17.9941
 11
-0.18837
 21
-17.9941
  0
ENDSEC
  0
SECTION
  2
OBJECTS
  0
DICTIONARY
  0
ENDSEC
  0
EOF
