<?xml version="1.0" standalone="no"?>
<!DOCTYPE svg PUBLIC "-//W3C//DTD SVG 1.1//EN" "http://www.w3.org/Graphics/SVG/1.1/DTD/svg11.dtd">
<svg width="38mm" height="336mm" viewBox="-19 -582 38 336" xmlns="http://www.w3.org/2000/svg" version="1.1">
<title>OpenSCAD Model</title>
<path d="
M 14.6869,-522.089 L 15.2951,-522.245 L 15.8789,-522.476 L 16.4291,-522.778 L 16.9371,-523.147 L 17.3948,-523.577
 L 17.7951,-524.061 L 18.1315,-524.591 L 18.3989,-525.159 L 18.5929,-525.757 L 18.7106,-526.373 L 18.75,-527
 L 18.75,-577 L 18.7106,-577.627 L 18.5929,-578.243 L 18.3989,-578.841 L 18.1315,-579.409 L 17.7951,-579.939
 L 17.3948,-580.423 L 16.9371,-580.853 L 16.4291,-581.222 L 15.8789,-581.524 L 15.2951,-581.755 L 14.6869,-581.911
 L 14.0639,-581.99 L -14.0639,-581.99 L -14.6869,-581.911 L -15.2951,-581.755 L -15.8789,-581.524 L -16.4291,-581.222
 L -16.9371,-580.853 L -17.3948,-580.423 L -17.7951,-579.939 L -18.1315,-579.409 L -18.3989,-578.841 L -18.5929,-578.243
 L -18.7106,-577.627 L -18.75,-577 L -18.75,-527 L -18.7106,-526.373 L -18.5929,-525.757 L -18.3989,-525.159
 L -18.1315,-524.591 L -17.7951,-524.061 L -17.3948,-523.577 L -16.9371,-523.147 L -16.4291,-522.778 L -15.8789,-522.476
 L -15.2951,-522.245 L -14.6869,-522.089 L -14.0639,-522.01 L 14.0639,-522.01 z
M -8.56104,-522.509 L -8.07086,-522.778 L -7.56287,-523.147 L -7.10515,-523.577 L -6.70491,-524.061 L -6.36845,-524.591
 L -6.1011,-525.159 L -5.90707,-525.757 L -5.78941,-526.373 L -5.75,-527 L -5.75,-530 L -5.78941,-530.627
 L -5.90707,-531.243 L -6.1011,-531.841 L -6.36845,-532.409 L -6.70491,-532.939 L -7.10515,-533.423 L -7.56287,-533.853
 L -8.07086,-534.222 L -8.62109,-534.524 L -9.20491,-534.755 L -9.81308,-534.911 L -10.436,-534.99 L -14.0639,-534.99
 L -14.6869,-534.911 L -15.2951,-534.755 L -15.8789,-534.524 L -16.4291,-534.222 L -16.9371,-533.853 L -17.3948,-533.423
 L -17.7951,-532.939 L -18.1315,-532.409 L -18.25,-532.157 L -18.25,-577 L -18.2145,-577.564 L -18.1086,-578.119
 L -17.934,-578.657 L -17.6934,-579.168 L -17.3906,-579.645 L -17.0303,-580.08 L -16.6184,-580.467 L -16.1612,-580.799
 L -15.666,-581.072 L -15.1406,-581.28 L -14.5932,-581.42 L -14.0325,-581.491 L 14.0325,-581.491 L 14.5932,-581.42
 L 15.1406,-581.28 L 15.666,-581.072 L 16.1612,-580.799 L 16.6184,-580.467 L 17.0303,-580.08 L 17.3906,-579.645
 L 17.6934,-579.168 L 17.934,-578.657 L 18.1086,-578.119 L 18.2145,-577.564 L 18.25,-577 L 18.25,-527
 L 18.2145,-526.436 L 18.1086,-525.881 L 17.934,-525.343 L 17.6934,-524.832 L 17.3906,-524.355 L 17.0303,-523.92
 L 16.6184,-523.533 L 16.1612,-523.201 L 15.666,-522.928 L 15.1406,-522.72 L 14.5932,-522.58 L 14.0325,-522.509
 z
M 11.7184,-572.044 L 12.0225,-572.122 L 12.3144,-572.238 L 12.5896,-572.389 L 12.8436,-572.574 L 13.0724,-572.789
 L 13.2725,-573.031 L 13.4408,-573.296 L 13.5744,-573.58 L 13.6714,-573.878 L 13.7303,-574.187 L 13.75,-574.5
 L 13.7303,-574.813 L 13.6714,-575.122 L 13.5744,-575.42 L 13.4408,-575.704 L 13.2725,-575.969 L 13.0724,-576.211
 L 12.8436,-576.426 L 12.5896,-576.611 L 12.3144,-576.762 L 12.0225,-576.878 L 11.7184,-576.956 L 11.407,-576.995
 L 11.093,-576.995 L 10.7815,-576.956 L 10.4774,-576.878 L 10.1855,-576.762 L 9.91043,-576.611 L 9.65643,-576.426
 L 9.42757,-576.211 L 9.22745,-575.969 L 9.05922,-575.704 L 8.92555,-575.42 L 8.82854,-575.122 L 8.7697,-574.813
 L 8.75,-574.5 L 8.7697,-574.187 L 8.82854,-573.878 L 8.92555,-573.58 L 9.05922,-573.296 L 9.22745,-573.031
 L 9.42757,-572.789 L 9.65643,-572.574 L 9.91043,-572.389 L 10.1855,-572.238 L 10.4774,-572.122 L 10.7815,-572.044
 L 11.093,-572.005 L 11.407,-572.005 z
M 11.1558,-573.003 L 10.9689,-573.027 L 10.7865,-573.073 L 10.6113,-573.143 L 10.4463,-573.234 L 10.2939,-573.344
 L 10.1565,-573.473 L 10.0365,-573.618 L 9.93553,-573.777 L 9.85533,-573.948 L 9.79712,-574.127 L 9.76183,-574.312
 L 9.75,-574.5 L 9.76183,-574.688 L 9.79712,-574.873 L 9.85533,-575.052 L 9.93553,-575.223 L 10.0365,-575.382
 L 10.1565,-575.527 L 10.2939,-575.656 L 10.4463,-575.766 L 10.6113,-575.857 L 10.7865,-575.927 L 10.9689,-575.973
 L 11.1558,-575.997 L 11.3442,-575.997 L 11.5311,-575.973 L 11.7135,-575.927 L 11.8887,-575.857 L 12.0537,-575.766
 L 12.2061,-575.656 L 12.3434,-575.527 L 12.4635,-575.382 L 12.5645,-575.223 L 12.6447,-575.052 L 12.7029,-574.873
 L 12.7382,-574.688 L 12.75,-574.5 L 12.7382,-574.312 L 12.7029,-574.127 L 12.6447,-573.948 L 12.5645,-573.777
 L 12.4635,-573.618 L 12.3434,-573.473 L 12.2061,-573.344 L 12.0537,-573.234 L 11.8887,-573.143 L 11.7135,-573.073
 L 11.5311,-573.027 L 11.3442,-573.003 z
M -11.3442,-528.003 L -11.5311,-528.027 L -11.7135,-528.073 L -11.8887,-528.143 L -12.0537,-528.234 L -12.2061,-528.344
 L -12.3434,-528.473 L -12.4635,-528.618 L -12.5645,-528.777 L -12.6447,-528.948 L -12.7029,-529.127 L -12.7382,-529.312
 L -12.75,-529.5 L -12.7382,-529.688 L -12.7029,-529.873 L -12.6447,-530.052 L -12.5645,-530.223 L -12.4635,-530.382
 L -12.3434,-530.527 L -12.2061,-530.656 L -12.0537,-530.766 L -11.8887,-530.857 L -11.7135,-530.927 L -11.5311,-530.973
 L -11.3442,-530.997 L -11.1558,-530.997 L -10.9689,-530.973 L -10.7865,-530.927 L -10.6113,-530.857 L -10.4463,-530.766
 L -10.2939,-530.656 L -10.1565,-530.527 L -10.0365,-530.382 L -9.93553,-530.223 L -9.85533,-530.052 L -9.79712,-529.873
 L -9.76183,-529.688 L -9.75,-529.5 L -9.76183,-529.312 L -9.79712,-529.127 L -9.85533,-528.948 L -9.93553,-528.777
 L -10.0365,-528.618 L -10.1565,-528.473 L -10.2939,-528.344 L -10.4463,-528.234 L -10.6113,-528.143 L -10.7865,-528.073
 L -10.9689,-528.027 L -11.1558,-528.003 z
M 14.6869,-453.089 L 15.2951,-453.245 L 15.8789,-453.476 L 16.4291,-453.778 L 16.9371,-454.147 L 17.3948,-454.577
 L 17.7951,-455.061 L 18.1315,-455.591 L 18.3989,-456.159 L 18.5929,-456.757 L 18.7106,-457.373 L 18.75,-458
 L 18.75,-508 L 18.7106,-508.627 L 18.5929,-509.243 L 18.3989,-509.841 L 18.1315,-510.409 L 17.7951,-510.939
 L 17.3948,-511.423 L 16.9371,-511.853 L 16.4291,-512.222 L 15.8789,-512.524 L 15.2951,-512.755 L 14.6869,-512.911
 L 14.0639,-512.99 L -14.0639,-512.99 L -14.6869,-512.911 L -15.2951,-512.755 L -15.8789,-512.524 L -16.4291,-512.222
 L -16.9371,-511.853 L -17.3948,-511.423 L -17.7951,-510.939 L -18.1315,-510.409 L -18.3989,-509.841 L -18.5929,-509.243
 L -18.7106,-508.627 L -18.75,-508 L -18.75,-458 L -18.7106,-457.373 L -18.5929,-456.757 L -18.3989,-456.159
 L -18.1315,-455.591 L -17.7951,-455.061 L -17.3948,-454.577 L -16.9371,-454.147 L -16.4291,-453.778 L -15.8789,-453.476
 L -15.2951,-453.245 L -14.6869,-453.089 L -14.0639,-453.01 L 14.0639,-453.01 z
M -8.56104,-453.509 L -8.07086,-453.778 L -7.56287,-454.147 L -7.10515,-454.577 L -6.70491,-455.061 L -6.36845,-455.591
 L -6.1011,-456.159 L -5.90707,-456.757 L -5.78941,-457.373 L -5.75,-458 L -5.75,-461 L -5.78941,-461.627
 L -5.90707,-462.243 L -6.1011,-462.841 L -6.36845,-463.409 L -6.70491,-463.939 L -7.10515,-464.423 L -7.56287,-464.853
 L -8.07086,-465.222 L -8.62109,-465.524 L -9.20491,-465.755 L -9.81308,-465.911 L -10.436,-465.99 L -14.0639,-465.99
 L -14.6869,-465.911 L -15.2951,-465.755 L -15.8789,-465.524 L -16.4291,-465.222 L -16.9371,-464.853 L -17.3948,-464.423
 L -17.7951,-463.939 L -18.1315,-463.409 L -18.25,-463.157 L -18.25,-508 L -18.2145,-508.564 L -18.1086,-509.119
 L -17.934,-509.657 L -17.6934,-510.168 L -17.3906,-510.645 L -17.0303,-511.08 L -16.6184,-511.467 L -16.1612,-511.799
 L -15.666,-512.072 L -15.1406,-512.28 L -14.5932,-512.42 L -14.0325,-512.491 L 14.0325,-512.491 L 14.5932,-512.42
 L 15.1406,-512.28 L 15.666,-512.072 L 16.1612,-511.799 L 16.6184,-511.467 L 17.0303,-511.08 L 17.3906,-510.645
 L 17.6934,-510.168 L 17.934,-509.657 L 18.1086,-509.119 L 18.2145,-508.564 L 18.25,-508 L 18.25,-458
 L 18.2145,-457.436 L 18.1086,-456.881 L 17.934,-456.343 L 17.6934,-455.832 L 17.3906,-455.355 L 17.0303,-454.92
 L 16.6184,-454.533 L 16.1612,-454.201 L 15.666,-453.928 L 15.1406,-453.72 L 14.5932,-453.58 L 14.0325,-453.509
 z
M 11.7184,-503.044 L 12.0225,-503.122 L 12.3144,-503.238 L 12.5896,-503.389 L 12.8436,-503.574 L 13.0724,-503.789
 L 13.2725,-504.031 L 13.4408,-504.296 L 13.5744,-504.58 L 13.6714,-504.878 L 13.7303,-505.187 L 13.75,-505.5
 L 13.7303,-505.813 L 13.6714,-506.122 L 13.5744,-506.42 L 13.4408,-506.704 L 13.2725,-506.969 L 13.0724,-507.211
 L 12.8436,-507.426 L 12.5896,-507.611 L 12.3144,-507.762 L 12.0225,-507.878 L 11.7184,-507.956 L 11.407,-507.995
 L 11.093,-507.995 L 10.7815,-507.956 L 10.4774,-507.878 L 10.1855,-507.762 L 9.91043,-507.611 L 9.65643,-507.426
 L 9.42757,-507.211 L 9.22745,-506.969 L 9.05922,-506.704 L 8.92555,-506.42 L 8.82854,-506.122 L 8.7697,-505.813
 L 8.75,-505.5 L 8.7697,-505.187 L 8.82854,-504.878 L 8.92555,-504.58 L 9.05922,-504.296 L 9.22745,-504.031
 L 9.42757,-503.789 L 9.65643,-503.574 L 9.91043,-503.389 L 10.1855,-503.238 L 10.4774,-503.122 L 10.7815,-503.044
 L 11.093,-503.005 L 11.407,-503.005 z
M 11.1558,-504.003 L 10.9689,-504.027 L 10.7865,-504.073 L 10.6113,-504.143 L 10.4463,-504.234 L 10.2939,-504.344
 L 10.1565,-504.473 L 10.0365,-504.618 L 9.93553,-504.777 L 9.85533,-504.948 L 9.79712,-505.127 L 9.76183,-505.312
 L 9.75,-505.5 L 9.76183,-505.688 L 9.79712,-505.873 L 9.85533,-506.052 L 9.93553,-506.223 L 10.0365,-506.382
 L 10.1565,-506.527 L 10.2939,-506.656 L 10.4463,-506.766 L 10.6113,-506.857 L 10.7865,-506.927 L 10.9689,-506.973
 L 11.1558,-506.997 L 11.3442,-506.997 L 11.5311,-506.973 L 11.7135,-506.927 L 11.8887,-506.857 L 12.0537,-506.766
 L 12.2061,-506.656 L 12.3434,-506.527 L 12.4635,-506.382 L 12.5645,-506.223 L 12.6447,-506.052 L 12.7029,-505.873
 L 12.7382,-505.688 L 12.75,-505.5 L 12.7382,-505.312 L 12.7029,-505.127 L 12.6447,-504.948 L 12.5645,-504.777
 L 12.4635,-504.618 L 12.3434,-504.473 L 12.2061,-504.344 L 12.0537,-504.234 L 11.8887,-504.143 L 11.7135,-504.073
 L 11.5311,-504.027 L 11.3442,-504.003 z
M -11.3442,-459.003 L -11.5311,-459.027 L -11.7135,-459.073 L -11.8887,-459.143 L -12.0537,-459.234 L -12.2061,-459.344
 L -12.3434,-459.473 L -12.4635,-459.618 L -12.5645,-459.777 L -12.6447,-459.948 L -12.7029,-460.127 L -12.7382,-460.312
 L -12.75,-460.5 L -12.7382,-460.688 L -12.7029,-460.873 L -12.6447,-461.052 L -12.5645,-461.223 L -12.4635,-461.382
 L -12.3434,-461.527 L -12.2061,-461.656 L -12.0537,-461.766 L -11.8887,-461.857 L -11.7135,-461.927 L -11.5311,-461.973
 L -11.3442,-461.997 L -11.1558,-461.997 L -10.9689,-461.973 L -10.7865,-461.927 L -10.6113,-461.857 L -10.4463,-461.766
 L -10.2939,-461.656 L -10.1565,-461.527 L -10.0365,-461.382 L -9.93553,-461.223 L -9.85533,-461.052 L -9.79712,-460.873
 L -9.76183,-460.688 L -9.75,-460.5 L -9.76183,-460.312 L -9.79712,-460.127 L -9.85533,-459.948 L -9.93553,-459.777
 L -10.0365,-459.618 L -10.1565,-459.473 L -10.2939,-459.344 L -10.4463,-459.234 L -10.6113,-459.143 L -10.7865,-459.073
 L -10.9689,-459.027 L -11.1558,-459.003 z
M 14.6869,-384.089 L 15.2951,-384.245 L 15.8789,-384.476 L 16.4291,-384.778 L 16.9371,-385.147 L 17.3948,-385.577
 L 17.7951,-386.061 L 18.1315,-386.591 L 18.3989,-387.159 L 18.5929,-387.757 L 18.7106,-388.373 L 18.75,-389
 L 18.75,-439 L 18.7106,-439.627 L 18.5929,-440.243 L 18.3989,-440.841 L 18.1315,-441.409 L 17.7951,-441.939
 L 17.3948,-442.423 L 16.9371,-442.853 L 16.4291,-443.222 L 15.8789,-443.524 L 15.2951,-443.755 L 14.6869,-443.911
 L 14.0639,-443.99 L -14.0639,-443.99 L -14.6869,-443.911 L -15.2951,-443.755 L -15.8789,-443.524 L -16.4291,-443.222
 L -16.9371,-442.853 L -17.3948,-442.423 L -17.7951,-441.939 L -18.1315,-441.409 L -18.3989,-440.841 L -18.5929,-440.243
 L -18.7106,-439.627 L -18.75,-439 L -18.75,-389 L -18.7106,-388.373 L -18.5929,-387.757 L -18.3989,-387.159
 L -18.1315,-386.591 L -17.7951,-386.061 L -17.3948,-385.577 L -16.9371,-385.147 L -16.4291,-384.778 L -15.8789,-384.476
 L -15.2951,-384.245 L -14.6869,-384.089 L -14.0639,-384.01 L 14.0639,-384.01 z
M -8.56104,-384.509 L -8.07086,-384.778 L -7.56287,-385.147 L -7.10515,-385.577 L -6.70491,-386.061 L -6.36845,-386.591
 L -6.1011,-387.159 L -5.90707,-387.757 L -5.78941,-388.373 L -5.75,-389 L -5.75,-392 L -5.78941,-392.627
 L -5.90707,-393.243 L -6.1011,-393.841 L -6.36845,-394.409 L -6.70491,-394.939 L -7.10515,-395.423 L -7.56287,-395.853
 L -8.07086,-396.222 L -8.62109,-396.524 L -9.20491,-396.755 L -9.81308,-396.911 L -10.436,-396.99 L -14.0639,-396.99
 L -14.6869,-396.911 L -15.2951,-396.755 L -15.8789,-396.524 L -16.4291,-396.222 L -16.9371,-395.853 L -17.3948,-395.423
 L -17.7951,-394.939 L -18.1315,-394.409 L -18.25,-394.157 L -18.25,-439 L -18.2145,-439.564 L -18.1086,-440.119
 L -17.934,-440.657 L -17.6934,-441.168 L -17.3906,-441.645 L -17.0303,-442.08 L -16.6184,-442.467 L -16.1612,-442.799
 L -15.666,-443.072 L -15.1406,-443.28 L -14.5932,-443.42 L -14.0325,-443.491 L 14.0325,-443.491 L 14.5932,-443.42
 L 15.1406,-443.28 L 15.666,-443.072 L 16.1612,-442.799 L 16.6184,-442.467 L 17.0303,-442.08 L 17.3906,-441.645
 L 17.6934,-441.168 L 17.934,-440.657 L 18.1086,-440.119 L 18.2145,-439.564 L 18.25,-439 L 18.25,-389
 L 18.2145,-388.436 L 18.1086,-387.881 L 17.934,-387.343 L 17.6934,-386.832 L 17.3906,-386.355 L 17.0303,-385.92
 L 16.6184,-385.533 L 16.1612,-385.201 L 15.666,-384.928 L 15.1406,-384.72 L 14.5932,-384.58 L 14.0325,-384.509
 z
M 11.7184,-434.044 L 12.0225,-434.122 L 12.3144,-434.238 L 12.5896,-434.389 L 12.8436,-434.574 L 13.0724,-434.789
 L 13.2725,-435.031 L 13.4408,-435.296 L 13.5744,-435.58 L 13.6714,-435.878 L 13.7303,-436.187 L 13.75,-436.5
 L 13.7303,-436.813 L 13.6714,-437.122 L 13.5744,-437.42 L 13.4408,-437.704 L 13.2725,-437.969 L 13.0724,-438.211
 L 12.8436,-438.426 L 12.5896,-438.611 L 12.3144,-438.762 L 12.0225,-438.878 L 11.7184,-438.956 L 11.407,-438.995
 L 11.093,-438.995 L 10.7815,-438.956 L 10.4774,-438.878 L 10.1855,-438.762 L 9.91043,-438.611 L 9.65643,-438.426
 L 9.42757,-438.211 L 9.22745,-437.969 L 9.05922,-437.704 L 8.92555,-437.42 L 8.82854,-437.122 L 8.7697,-436.813
 L 8.75,-436.5 L 8.7697,-436.187 L 8.82854,-435.878 L 8.92555,-435.58 L 9.05922,-435.296 L 9.22745,-435.031
 L 9.42757,-434.789 L 9.65643,-434.574 L 9.91043,-434.389 L 10.1855,-434.238 L 10.4774,-434.122 L 10.7815,-434.044
 L 11.093,-434.005 L 11.407,-434.005 z
M 11.1558,-435.003 L 10.9689,-435.027 L 10.7865,-435.073 L 10.6113,-435.143 L 10.4463,-435.234 L 10.2939,-435.344
 L 10.1565,-435.473 L 10.0365,-435.618 L 9.93553,-435.777 L 9.85533,-435.948 L 9.79712,-436.127 L 9.76183,-436.312
 L 9.75,-436.5 L 9.76183,-436.688 L 9.79712,-436.873 L 9.85533,-437.052 L 9.93553,-437.223 L 10.0365,-437.382
 L 10.1565,-437.527 L 10.2939,-437.656 L 10.4463,-437.766 L 10.6113,-437.857 L 10.7865,-437.927 L 10.9689,-437.973
 L 11.1558,-437.997 L 11.3442,-437.997 L 11.5311,-437.973 L 11.7135,-437.927 L 11.8887,-437.857 L 12.0537,-437.766
 L 12.2061,-437.656 L 12.3434,-437.527 L 12.4635,-437.382 L 12.5645,-437.223 L 12.6447,-437.052 L 12.7029,-436.873
 L 12.7382,-436.688 L 12.75,-436.5 L 12.7382,-436.312 L 12.7029,-436.127 L 12.6447,-435.948 L 12.5645,-435.777
 L 12.4635,-435.618 L 12.3434,-435.473 L 12.2061,-435.344 L 12.0537,-435.234 L 11.8887,-435.143 L 11.7135,-435.073
 L 11.5311,-435.027 L 11.3442,-435.003 z
M -11.3442,-390.003 L -11.5311,-390.027 L -11.7135,-390.073 L -11.8887,-390.143 L -12.0537,-390.234 L -12.2061,-390.344
 L -12.3434,-390.473 L -12.4635,-390.618 L -12.5645,-390.777 L -12.6447,-390.948 L -12.7029,-391.127 L -12.7382,-391.312
 L -12.75,-391.5 L -12.7382,-391.688 L -12.7029,-391.873 L -12.6447,-392.052 L -12.5645,-392.223 L -12.4635,-392.382
 L -12.3434,-392.527 L -12.2061,-392.656 L -12.0537,-392.766 L -11.8887,-392.857 L -11.7135,-392.927 L -11.5311,-392.973
 L -11.3442,-392.997 L -11.1558,-392.997 L -10.9689,-392.973 L -10.7865,-392.927 L -10.6113,-392.857 L -10.4463,-392.766
 L -10.2939,-392.656 L -10.1565,-392.527 L -10.0365,-392.382 L -9.93553,-392.223 L -9.85533,-392.052 L -9.79712,-391.873
 L -9.76183,-391.688 L -9.75,-391.5 L -9.76183,-391.312 L -9.79712,-391.127 L -9.85533,-390.948 L -9.93553,-390.777
 L -10.0365,-390.618 L -10.1565,-390.473 L -10.2939,-390.344 L -10.4463,-390.234 L -10.6113,-390.143 L -10.7865,-390.073
 L -10.9689,-390.027 L -11.1558,-390.003 z
M 14.6869,-315.089 L 15.2951,-315.245 L 15.8789,-315.476 L 16.4291,-315.778 L 16.9371,-316.147 L 17.3948,-316.577
 L 17.7951,-317.061 L 18.1315,-317.591 L 18.3989,-318.159 L 18.5929,-318.757 L 18.7106,-319.373 L 18.75,-320
 L 18.75,-370 L 18.7106,-370.627 L 18.5929,-371.243 L 18.3989,-371.841 L 18.1315,-372.409 L 17.7951,-372.939
 L 17.3948,-373.423 L 16.9371,-373.853 L 16.4291,-374.222 L 15.8789,-374.524 L 15.2951,-374.755 L 14.6869,-374.911
 L 14.0639,-374.99 L -14.0639,-374.99 L -14.6869,-374.911 L -15.2951,-374.755 L -15.8789,-374.524 L -16.4291,-374.222
 L -16.9371,-373.853 L -17.3948,-373.423 L -17.7951,-372.939 L -18.1315,-372.409 L -18.3989,-371.841 L -18.5929,-371.243
 L -18.7106,-370.627 L -18.75,-370 L -18.75,-320 L -18.7106,-319.373 L -18.5929,-318.757 L -18.3989,-318.159
 L -18.1315,-317.591 L -17.7951,-317.061 L -17.3948,-316.577 L -16.9371,-316.147 L -16.4291,-315.778 L -15.8789,-315.476
 L -15.2951,-315.245 L -14.6869,-315.089 L -14.0639,-315.01 L 14.0639,-315.01 z
M -7.78568,-315.986 L -7.56287,-316.147 L -7.10515,-316.577 L -6.70491,-317.061 L -6.36845,-317.591 L -6.1011,-318.159
 L -5.90707,-318.757 L -5.78941,-319.373 L -5.75,-320 L -5.75,-323 L -5.78941,-323.627 L -5.90707,-324.243
 L -6.1011,-324.841 L -6.36845,-325.409 L -6.70491,-325.939 L -7.10515,-326.423 L -7.56287,-326.853 L -8.07086,-327.222
 L -8.62109,-327.524 L -9.20491,-327.755 L -9.81308,-327.911 L -10.436,-327.99 L -14.0639,-327.99 L -14.6869,-327.911
 L -15.2951,-327.755 L -15.8789,-327.524 L -16.4291,-327.222 L -16.9371,-326.853 L -17.3948,-326.423 L -17.7724,-325.966
 L -17.7724,-370 L -17.7407,-370.504 L -17.646,-371 L -17.4899,-371.481 L -17.2748,-371.938 L -17.0042,-372.364
 L -16.6822,-372.754 L -16.3139,-373.099 L -15.9053,-373.396 L -15.4626,-373.64 L -14.993,-373.826 L -14.5037,-373.951
 L -14.0026,-374.014 L 7.78568,-374.014 L 7.56287,-373.853 L 7.10515,-373.423 L 6.70491,-372.939 L 6.36845,-372.409
 L 6.1011,-371.841 L 5.90707,-371.243 L 5.78941,-370.627 L 5.75,-370 L 5.75,-367 L 5.78941,-366.373
 L 5.90707,-365.757 L 6.1011,-365.159 L 6.36845,-364.591 L 6.70491,-364.061 L 7.10515,-363.577 L 7.56287,-363.147
 L 8.07086,-362.778 L 8.62109,-362.476 L 9.20491,-362.245 L 9.81308,-362.089 L 10.436,-362.01 L 14.0639,-362.01
 L 14.6869,-362.089 L 15.2951,-362.245 L 15.8789,-362.476 L 16.4291,-362.778 L 16.9371,-363.147 L 17.3948,-363.577
 L 17.7724,-364.034 L 17.7724,-320 L 17.7407,-319.496 L 17.646,-319 L 17.4899,-318.519 L 17.2748,-318.062
 L 17.0042,-317.636 L 16.6822,-317.246 L 16.3139,-316.901 L 15.9053,-316.604 L 15.4626,-316.36 L 14.993,-316.174
 L 14.5037,-316.049 L 14.0026,-315.986 z
M 11.1558,-366.003 L 10.9689,-366.027 L 10.7865,-366.073 L 10.6113,-366.143 L 10.4463,-366.234 L 10.2939,-366.344
 L 10.1565,-366.473 L 10.0365,-366.618 L 9.93553,-366.777 L 9.85533,-366.948 L 9.79712,-367.127 L 9.76183,-367.312
 L 9.75,-367.5 L 9.76183,-367.688 L 9.79712,-367.873 L 9.85533,-368.052 L 9.93553,-368.223 L 10.0365,-368.382
 L 10.1565,-368.527 L 10.2939,-368.656 L 10.4463,-368.766 L 10.6113,-368.857 L 10.7865,-368.927 L 10.9689,-368.973
 L 11.1558,-368.997 L 11.3442,-368.997 L 11.5311,-368.973 L 11.7135,-368.927 L 11.8887,-368.857 L 12.0537,-368.766
 L 12.2061,-368.656 L 12.3434,-368.527 L 12.4635,-368.382 L 12.5645,-368.223 L 12.6447,-368.052 L 12.7029,-367.873
 L 12.7382,-367.688 L 12.75,-367.5 L 12.7382,-367.312 L 12.7029,-367.127 L 12.6447,-366.948 L 12.5645,-366.777
 L 12.4635,-366.618 L 12.3434,-366.473 L 12.2061,-366.344 L 12.0537,-366.234 L 11.8887,-366.143 L 11.7135,-366.073
 L 11.5311,-366.027 L 11.3442,-366.003 z
M -11.3442,-321.003 L -11.5311,-321.027 L -11.7135,-321.073 L -11.8887,-321.143 L -12.0537,-321.234 L -12.2061,-321.344
 L -12.3434,-321.473 L -12.4635,-321.618 L -12.5645,-321.777 L -12.6447,-321.948 L -12.7029,-322.127 L -12.7382,-322.312
 L -12.75,-322.5 L -12.7382,-322.688 L -12.7029,-322.873 L -12.6447,-323.052 L -12.5645,-323.223 L -12.4635,-323.382
 L -12.3434,-323.527 L -12.2061,-323.656 L -12.0537,-323.766 L -11.8887,-323.857 L -11.7135,-323.927 L -11.5311,-323.973
 L -11.3442,-323.997 L -11.1558,-323.997 L -10.9689,-323.973 L -10.7865,-323.927 L -10.6113,-323.857 L -10.4463,-323.766
 L -10.2939,-323.656 L -10.1565,-323.527 L -10.0365,-323.382 L -9.93553,-323.223 L -9.85533,-323.052 L -9.79712,-322.873
 L -9.76183,-322.688 L -9.75,-322.5 L -9.76183,-322.312 L -9.79712,-322.127 L -9.85533,-321.948 L -9.93553,-321.777
 L -10.0365,-321.618 L -10.1565,-321.473 L -10.2939,-321.344 L -10.4463,-321.234 L -10.6113,-321.143 L -10.7865,-321.073
 L -10.9689,-321.027 L -11.1558,-321.003 z
M 14.6869,-246.089 L 15.2951,-246.245 L 15.8789,-246.476 L 16.4291,-246.778 L 16.9371,-247.147 L 17.3948,-247.577
 L 17.7951,-248.061 L 18.1315,-248.591 L 18.3989,-249.159 L 18.5929,-249.757 L 18.7106,-250.373 L 18.75,-251
 L 18.75,-301 L 18.7106,-301.627 L 18.5929,-302.243 L 18.3989,-302.841 L 18.1315,-303.409 L 17.7951,-303.939
 L 17.3948,-304.423 L 16.9371,-304.853 L 16.4291,-305.222 L 15.8789,-305.524 L 15.2951,-305.755 L 14.6869,-305.911
 L 14.0639,-305.99 L -14.0639,-305.99 L -14.6869,-305.911 L -15.2951,-305.755 L -15.8789,-305.524 L -16.4291,-305.222
 L -16.9371,-304.853 L -17.3948,-304.423 L -17.7951,-303.939 L -18.1315,-303.409 L -18.3989,-302.841 L -18.5929,-302.243
 L -18.7106,-301.627 L -18.75,-301 L -18.75,-251 L -18.7106,-250.373 L -18.5929,-249.757 L -18.3989,-249.159
 L -18.1315,-248.591 L -17.7951,-248.061 L -17.3948,-247.577 L -16.9371,-247.147 L -16.4291,-246.778 L -15.8789,-246.476
 L -15.2951,-246.245 L -14.6869,-246.089 L -14.0639,-246.01 L 14.0639,-246.01 z
M 11.0993,-296.105 L 10.8003,-296.143 L 10.5083,-296.217 L 10.2281,-296.328 L 9.964,-296.474 L 9.72017,-296.651
 L 9.50047,-296.857 L 9.30835,-297.089 L 9.14685,-297.344 L 9.01852,-297.617 L 8.9254,-297.903 L 8.86891,-298.199
 L 8.84999,-298.5 L 8.86891,-298.801 L 8.9254,-299.097 L 9.01852,-299.383 L 9.14685,-299.656 L 9.30835,-299.911
 L 9.50047,-300.143 L 9.72017,-300.349 L 9.964,-300.526 L 10.2281,-300.672 L 10.5083,-300.783 L 10.8003,-300.857
 L 11.0993,-300.895 L 11.4007,-300.895 L 11.6997,-300.857 L 11.9916,-300.783 L 12.2719,-300.672 L 12.536,-300.526
 L 12.7798,-300.349 L 12.9995,-300.143 L 13.1916,-299.911 L 13.3531,-299.656 L 13.4815,-299.383 L 13.5746,-299.097
 L 13.6311,-298.801 L 13.65,-298.5 L 13.6311,-298.199 L 13.5746,-297.903 L 13.4815,-297.617 L 13.3531,-297.344
 L 13.1916,-297.089 L 12.9995,-296.857 L 12.7798,-296.651 L 12.536,-296.474 L 12.2719,-296.328 L 11.9916,-296.217
 L 11.6997,-296.143 L 11.4007,-296.105 z
M -11.3442,-297.003 L -11.5311,-297.027 L -11.7135,-297.073 L -11.8887,-297.143 L -12.0537,-297.234 L -12.2061,-297.344
 L -12.3434,-297.473 L -12.4635,-297.618 L -12.5645,-297.777 L -12.6447,-297.948 L -12.7029,-298.127 L -12.7382,-298.312
 L -12.75,-298.5 L -12.7382,-298.688 L -12.7029,-298.873 L -12.6447,-299.052 L -12.5645,-299.223 L -12.4635,-299.382
 L -12.3434,-299.527 L -12.2061,-299.656 L -12.0537,-299.766 L -11.8887,-299.857 L -11.7135,-299.927 L -11.5311,-299.973
 L -11.3442,-299.997 L -11.1558,-299.997 L -10.9689,-299.973 L -10.7865,-299.927 L -10.6113,-299.857 L -10.4463,-299.766
 L -10.2939,-299.656 L -10.1565,-299.527 L -10.0365,-299.382 L -9.93553,-299.223 L -9.85533,-299.052 L -9.79712,-298.873
 L -9.76183,-298.688 L -9.75,-298.5 L -9.76183,-298.312 L -9.79712,-298.127 L -9.85533,-297.948 L -9.93553,-297.777
 L -10.0365,-297.618 L -10.1565,-297.473 L -10.2939,-297.344 L -10.4463,-297.234 L -10.6113,-297.143 L -10.7865,-297.073
 L -10.9689,-297.027 L -11.1558,-297.003 z
M -11.4007,-251.105 L -11.6997,-251.143 L -11.9916,-251.217 L -12.2719,-251.328 L -12.536,-251.474 L -12.7798,-251.651
 L -12.9995,-251.857 L -13.1916,-252.089 L -13.3531,-252.344 L -13.4815,-252.617 L -13.5746,-252.903 L -13.6311,-253.199
 L -13.65,-253.5 L -13.6311,-253.801 L -13.5746,-254.097 L -13.4815,-254.383 L -13.3531,-254.656 L -13.1916,-254.911
 L -12.9995,-255.143 L -12.7798,-255.349 L -12.536,-255.526 L -12.2719,-255.672 L -11.9916,-255.783 L -11.6997,-255.857
 L -11.4007,-255.895 L -11.0993,-255.895 L -10.8003,-255.857 L -10.5083,-255.783 L -10.2281,-255.672 L -9.964,-255.526
 L -9.72017,-255.349 L -9.50047,-255.143 L -9.30835,-254.911 L -9.14685,-254.656 L -9.01852,-254.383 L -8.9254,-254.097
 L -8.86891,-253.801 L -8.84999,-253.5 L -8.86891,-253.199 L -8.9254,-252.903 L -9.01852,-252.617 L -9.14685,-252.344
 L -9.30835,-252.089 L -9.50047,-251.857 L -9.72017,-251.651 L -9.964,-251.474 L -10.2281,-251.328 L -10.5083,-251.217
 L -10.8003,-251.143 L -11.0993,-251.105 z
M 11.1558,-252.003 L 10.9689,-252.027 L 10.7865,-252.073 L 10.6113,-252.143 L 10.4463,-252.234 L 10.2939,-252.344
 L 10.1565,-252.473 L 10.0365,-252.618 L 9.93553,-252.777 L 9.85533,-252.948 L 9.79712,-253.127 L 9.76183,-253.312
 L 9.75,-253.5 L 9.76183,-253.688 L 9.79712,-253.873 L 9.85533,-254.052 L 9.93553,-254.223 L 10.0365,-254.382
 L 10.1565,-254.527 L 10.2939,-254.656 L 10.4463,-254.766 L 10.6113,-254.857 L 10.7865,-254.927 L 10.9689,-254.973
 L 11.1558,-254.997 L 11.3442,-254.997 L 11.5311,-254.973 L 11.7135,-254.927 L 11.8887,-254.857 L 12.0537,-254.766
 L 12.2061,-254.656 L 12.3434,-254.527 L 12.4635,-254.382 L 12.5645,-254.223 L 12.6447,-254.052 L 12.7029,-253.873
 L 12.7382,-253.688 L 12.75,-253.5 L 12.7382,-253.312 L 12.7029,-253.127 L 12.6447,-252.948 L 12.5645,-252.777
 L 12.4635,-252.618 L 12.3434,-252.473 L 12.2061,-252.344 L 12.0537,-252.234 L 11.8887,-252.143 L 11.7135,-252.073
 L 11.5311,-252.027 L 11.3442,-252.003 z
" stroke="black" fill="lightgray" stroke-width="0.5"/>
</svg>
