  0
SECTION
  2
BLOCKS
  0
ENDSEC
  0
SECTION
  2
ENTITIES
  0
LINE
  8
0
 10
-13.5
 20
142.007
 11
-13.1448
 21
141.577
  0
LINE
  8
0
 10
-13.1448
 20
141.577
 11
-12.6871
 21
141.147
  0
LINE
  8
0
 10
-12.6871
 20
141.147
 11
-12.1791
 21
140.778
  0
LINE
  8
0
 10
-12.1791
 20
140.778
 11
-11.6289
 21
140.476
  0
LINE
  8
0
 10
-11.6289
 20
140.476
 11
-11.0451
 21
140.245
  0
LINE
  8
0
 10
-11.0451
 20
140.245
 11
-10.4369
 21
140.089
  0
LINE
  8
0
 10
-10.4369
 20
140.089
 11
-9.81395
 21
140.01
  0
LINE
  8
0
 10
-9.81395
 20
140.01
 11
9.81395
 21
140.01
  0
LINE
  8
0
 10
9.81395
 20
140.01
 11
10.4369
 21
140.089
  0
LINE
  8
0
 10
10.4369
 20
140.089
 11
11.0451
 21
140.245
  0
LINE
  8
0
 10
11.0451
 20
140.245
 11
11.6289
 21
140.476
  0
LINE
  8
0
 10
11.6289
 20
140.476
 11
12.1791
 21
140.778
  0
LINE
  8
0
 10
12.1791
 20
140.778
 11
12.6871
 21
141.147
  0
LINE
  8
0
 10
12.6871
 20
141.147
 11
13.1448
 21
141.577
  0
LINE
  8
0
 10
13.1448
 20
141.577
 11
13.5451
 21
142.061
  0
LINE
  8
0
 10
13.5451
 20
142.061
 11
13.8815
 21
142.591
  0
LINE
  8
0
 10
13.8815
 20
142.591
 11
14.1489
 21
143.159
  0
LINE
  8
0
 10
14.1489
 20
143.159
 11
14.3429
 21
143.757
  0
LINE
  8
0
 10
14.3429
 20
143.757
 11
14.4606
 21
144.373
  0
LINE
  8
0
 10
14.4606
 20
144.373
 11
14.5
 21
145
  0
LINE
  8
0
 10
14.5
 20
145
 11
14.5
 21
179
  0
LINE
  8
0
 10
14.5
 20
179
 11
14.4606
 21
179.627
  0
LINE
  8
0
 10
14.4606
 20
179.627
 11
14.3429
 21
180.243
  0
LINE
  8
0
 10
14.3429
 20
180.243
 11
14.1489
 21
180.841
  0
LINE
  8
0
 10
14.1489
 20
180.841
 11
13.8815
 21
181.409
  0
LINE
  8
0
 10
13.8815
 20
181.409
 11
13.5451
 21
181.939
  0
LINE
  8
0
 10
13.5451
 20
181.939
 11
13.1448
 21
182.423
  0
LINE
  8
0
 10
13.1448
 20
182.423
 11
12.6871
 21
182.853
  0
LINE
  8
0
 10
12.6871
 20
182.853
 11
12.1791
 21
183.222
  0
LINE
  8
0
 10
12.1791
 20
183.222
 11
11.6289
 21
183.524
  0
LINE
  8
0
 10
11.6289
 20
183.524
 11
11.0451
 21
183.755
  0
LINE
  8
0
 10
11.0451
 20
183.755
 11
10.4369
 21
183.911
  0
LINE
  8
0
 10
10.4369
 20
183.911
 11
9.81395
 21
183.99
  0
LINE
  8
0
 10
9.81395
 20
183.99
 11
-9.81395
 21
183.99
  0
LINE
  8
0
 10
-9.81395
 20
183.99
 11
-10.4369
 21
183.911
  0
LINE
  8
0
 10
-10.4369
 20
183.911
 11
-11.0451
 21
183.755
  0
LINE
  8
0
 10
-11.0451
 20
183.755
 11
-11.6289
 21
183.524
  0
LINE
  8
0
 10
-11.6289
 20
183.524
 11
-12.1791
 21
183.222
  0
LINE
  8
0
 10
-12.1791
 20
183.222
 11
-12.6871
 21
182.853
  0
LINE
  8
0
 10
-12.6871
 20
182.853
 11
-13.1448
 21
182.423
  0
LINE
  8
0
 10
-13.1448
 20
182.423
 11
-13.5
 21
181.993
  0
LINE
  8
0
 10
-13.5
 20
181.993
 11
-13.5
 21
184.479
  0
LINE
  8
0
 10
-13.5
 20
184.479
 11
-16.5
 21
184.479
  0
LINE
  8
0
 10
-16.5
 20
184.479
 11
-16.5
 21
139.521
  0
LINE
  8
0
 10
-16.5
 20
139.521
 11
-13.5
 21
139.521
  0
LINE
  8
0
 10
-13.5
 20
139.521
 11
-13.5
 21
142.007
  0
LINE
  8
0
 10
-9.69545
 20
141.893
 11
-10.0833
 21
141.942
  0
LINE
  8
0
 10
-10.0833
 20
141.942
 11
-10.4619
 21
142.039
  0
LINE
  8
0
 10
-10.4619
 20
142.039
 11
-10.8254
 21
142.183
  0
LINE
  8
0
 10
-10.8254
 20
142.183
 11
-11.168
 21
142.372
  0
LINE
  8
0
 10
-11.168
 20
142.372
 11
-11.4842
 21
142.601
  0
LINE
  8
0
 10
-11.4842
 20
142.601
 11
-11.7692
 21
142.869
  0
LINE
  8
0
 10
-11.7692
 20
142.869
 11
-12.0184
 21
143.17
  0
LINE
  8
0
 10
-12.0184
 20
143.17
 11
-12.2279
 21
143.5
  0
LINE
  8
0
 10
-12.2279
 20
143.5
 11
-12.3943
 21
143.854
  0
LINE
  8
0
 10
-12.3943
 20
143.854
 11
-12.5151
 21
144.226
  0
LINE
  8
0
 10
-12.5151
 20
144.226
 11
-12.5884
 21
144.61
  0
LINE
  8
0
 10
-12.5884
 20
144.61
 11
-12.6129
 21
145
  0
LINE
  8
0
 10
-12.6129
 20
145
 11
-12.6129
 21
179
  0
LINE
  8
0
 10
-12.6129
 20
179
 11
-12.5884
 21
179.39
  0
LINE
  8
0
 10
-12.5884
 20
179.39
 11
-12.5151
 21
179.774
  0
LINE
  8
0
 10
-12.5151
 20
179.774
 11
-12.3943
 21
180.146
  0
LINE
  8
0
 10
-12.3943
 20
180.146
 11
-12.2279
 21
180.5
  0
LINE
  8
0
 10
-12.2279
 20
180.5
 11
-12.0184
 21
180.83
  0
LINE
  8
0
 10
-12.0184
 20
180.83
 11
-11.7692
 21
181.131
  0
LINE
  8
0
 10
-11.7692
 20
181.131
 11
-11.4842
 21
181.399
  0
LINE
  8
0
 10
-11.4842
 20
181.399
 11
-11.168
 21
181.628
  0
LINE
  8
0
 10
-11.168
 20
181.628
 11
-10.8254
 21
181.817
  0
LINE
  8
0
 10
-10.8254
 20
181.817
 11
-10.4619
 21
181.961
  0
LINE
  8
0
 10
-10.4619
 20
181.961
 11
-10.0833
 21
182.058
  0
LINE
  8
0
 10
-10.0833
 20
182.058
 11
-9.69545
 21
182.107
  0
LINE
  8
0
 10
-9.69545
 20
182.107
 11
9.69545
 21
182.107
  0
LINE
  8
0
 10
9.69545
 20
182.107
 11
10.0833
 21
182.058
  0
LINE
  8
0
 10
10.0833
 20
182.058
 11
10.4619
 21
181.961
  0
LINE
  8
0
 10
10.4619
 20
181.961
 11
10.8254
 21
181.817
  0
LINE
  8
0
 10
10.8254
 20
181.817
 11
11.168
 21
181.628
  0
LINE
  8
0
 10
11.168
 20
181.628
 11
11.4842
 21
181.399
  0
LINE
  8
0
 10
11.4842
 20
181.399
 11
11.7692
 21
181.131
  0
LINE
  8
0
 10
11.7692
 20
181.131
 11
12.0184
 21
180.83
  0
LINE
  8
0
 10
12.0184
 20
180.83
 11
12.2279
 21
180.5
  0
LINE
  8
0
 10
12.2279
 20
180.5
 11
12.3943
 21
180.146
  0
LINE
  8
0
 10
12.3943
 20
180.146
 11
12.5151
 21
179.774
  0
LINE
  8
0
 10
12.5151
 20
179.774
 11
12.5884
 21
179.39
  0
LINE
  8
0
 10
12.5884
 20
179.39
 11
12.6129
 21
179
  0
LINE
  8
0
 10
12.6129
 20
179
 11
12.6129
 21
145
  0
LINE
  8
0
 10
12.6129
 20
145
 11
12.5884
 21
144.61
  0
LINE
  8
0
 10
12.5884
 20
144.61
 11
12.5151
 21
144.226
  0
LINE
  8
0
 10
12.5151
 20
144.226
 11
12.3943
 21
143.854
  0
LINE
  8
0
 10
12.3943
 20
143.854
 11
12.2279
 21
143.5
  0
LINE
  8
0
 10
12.2279
 20
143.5
 11
12.0184
 21
143.17
  0
LINE
  8
0
 10
12.0184
 20
143.17
 11
11.7692
 21
142.869
  0
LINE
  8
0
 10
11.7692
 20
142.869
 11
11.4842
 21
142.601
  0
LINE
  8
0
 10
11.4842
 20
142.601
 11
11.168
 21
142.372
  0
LINE
  8
0
 10
11.168
 20
142.372
 11
10.8254
 21
142.183
  0
LINE
  8
0
 10
10.8254
 20
142.183
 11
10.4619
 21
142.039
  0
LINE
  8
0
 10
10.4619
 20
142.039
 11
10.0833
 21
141.942
  0
LINE
  8
0
 10
10.0833
 20
141.942
 11
9.69545
 21
141.893
  0
LINE
  8
0
 10
9.69545
 20
141.893
 11
-9.69545
 21
141.893
  0
LINE
  8
0
 10
10.4369
 20
86.0886
 11
11.0451
 21
86.2447
  0
LINE
  8
0
 10
11.0451
 20
86.2447
 11
11.6289
 21
86.4759
  0
LINE
  8
0
 10
11.6289
 20
86.4759
 11
12.1791
 21
86.7784
  0
LINE
  8
0
 10
12.1791
 20
86.7784
 11
12.6871
 21
87.1474
  0
LINE
  8
0
 10
12.6871
 20
87.1474
 11
13.1448
 21
87.5773
  0
LINE
  8
0
 10
13.1448
 20
87.5773
 11
13.5451
 21
88.0611
  0
LINE
  8
0
 10
13.5451
 20
88.0611
 11
13.8815
 21
88.5912
  0
LINE
  8
0
 10
13.8815
 20
88.5912
 11
14.1489
 21
89.1594
  0
LINE
  8
0
 10
14.1489
 20
89.1594
 11
14.3429
 21
89.7566
  0
LINE
  8
0
 10
14.3429
 20
89.7566
 11
14.4606
 21
90.3733
  0
LINE
  8
0
 10
14.4606
 20
90.3733
 11
14.5
 21
91
  0
LINE
  8
0
 10
14.5
 20
91
 11
14.5
 21
125
  0
LINE
  8
0
 10
14.5
 20
125
 11
14.4606
 21
125.627
  0
LINE
  8
0
 10
14.4606
 20
125.627
 11
14.3429
 21
126.243
  0
LINE
  8
0
 10
14.3429
 20
126.243
 11
14.1489
 21
126.841
  0
LINE
  8
0
 10
14.1489
 20
126.841
 11
13.8815
 21
127.409
  0
LINE
  8
0
 10
13.8815
 20
127.409
 11
13.5451
 21
127.939
  0
LINE
  8
0
 10
13.5451
 20
127.939
 11
13.1448
 21
128.423
  0
LINE
  8
0
 10
13.1448
 20
128.423
 11
12.6871
 21
128.853
  0
LINE
  8
0
 10
12.6871
 20
128.853
 11
12.1791
 21
129.222
  0
LINE
  8
0
 10
12.1791
 20
129.222
 11
11.6289
 21
129.524
  0
LINE
  8
0
 10
11.6289
 20
129.524
 11
11.0451
 21
129.755
  0
LINE
  8
0
 10
11.0451
 20
129.755
 11
10.4369
 21
129.911
  0
LINE
  8
0
 10
10.4369
 20
129.911
 11
9.81395
 21
129.99
  0
LINE
  8
0
 10
9.81395
 20
129.99
 11
-9.81395
 21
129.99
  0
LINE
  8
0
 10
-9.81395
 20
129.99
 11
-10.4369
 21
129.911
  0
LINE
  8
0
 10
-10.4369
 20
129.911
 11
-11.0451
 21
129.755
  0
LINE
  8
0
 10
-11.0451
 20
129.755
 11
-11.6289
 21
129.524
  0
LINE
  8
0
 10
-11.6289
 20
129.524
 11
-12.1791
 21
129.222
  0
LINE
  8
0
 10
-12.1791
 20
129.222
 11
-12.6871
 21
128.853
  0
LINE
  8
0
 10
-12.6871
 20
128.853
 11
-13.1448
 21
128.423
  0
LINE
  8
0
 10
-13.1448
 20
128.423
 11
-13.5
 21
127.993
  0
LINE
  8
0
 10
-13.5
 20
127.993
 11
-13.5
 21
129.153
  0
LINE
  8
0
 10
-13.5
 20
129.153
 11
-16.5
 21
129.153
  0
LINE
  8
0
 10
-16.5
 20
129.153
 11
-16.5
 21
86.8474
  0
LINE
  8
0
 10
-16.5
 20
86.8474
 11
-13.5
 21
86.8474
  0
LINE
  8
0
 10
-13.5
 20
86.8474
 11
-13.5
 21
88.0066
  0
LINE
  8
0
 10
-13.5
 20
88.0066
 11
-13.1448
 21
87.5773
  0
LINE
  8
0
 10
-13.1448
 20
87.5773
 11
-12.6871
 21
87.1474
  0
LINE
  8
0
 10
-12.6871
 20
87.1474
 11
-12.1791
 21
86.7784
  0
LINE
  8
0
 10
-12.1791
 20
86.7784
 11
-11.6289
 21
86.4759
  0
LINE
  8
0
 10
-11.6289
 20
86.4759
 11
-11.0451
 21
86.2447
  0
LINE
  8
0
 10
-11.0451
 20
86.2447
 11
-10.4369
 21
86.0886
  0
LINE
  8
0
 10
-10.4369
 20
86.0886
 11
-9.81395
 21
86.0099
  0
LINE
  8
0
 10
-9.81395
 20
86.0099
 11
9.81395
 21
86.0099
  0
LINE
  8
0
 10
9.81395
 20
86.0099
 11
10.4369
 21
86.0886
  0
LINE
  8
0
 10
-7.6507
 20
120.605
 11
-7.94971
 21
120.643
  0
LINE
  8
0
 10
-7.94971
 20
120.643
 11
-8.24164
 21
120.717
  0
LINE
  8
0
 10
-8.24164
 20
120.717
 11
-8.52187
 21
120.828
  0
LINE
  8
0
 10
-8.52187
 20
120.828
 11
-8.78598
 21
120.974
  0
LINE
  8
0
 10
-8.78598
 20
120.974
 11
-9.02982
 21
121.151
  0
LINE
  8
0
 10
-9.02982
 20
121.151
 11
-9.24951
 21
121.357
  0
LINE
  8
0
 10
-9.24951
 20
121.357
 11
-9.44164
 21
121.589
  0
LINE
  8
0
 10
-9.44164
 20
121.589
 11
-9.60313
 21
121.844
  0
LINE
  8
0
 10
-9.60313
 20
121.844
 11
-9.73146
 21
122.117
  0
LINE
  8
0
 10
-9.73146
 20
122.117
 11
-9.82458
 21
122.403
  0
LINE
  8
0
 10
-9.82458
 20
122.403
 11
-9.88107
 21
122.699
  0
LINE
  8
0
 10
-9.88107
 20
122.699
 11
-9.89999
 21
123
  0
LINE
  8
0
 10
-9.89999
 20
123
 11
-9.88107
 21
123.301
  0
LINE
  8
0
 10
-9.88107
 20
123.301
 11
-9.82458
 21
123.597
  0
LINE
  8
0
 10
-9.82458
 20
123.597
 11
-9.73146
 21
123.883
  0
LINE
  8
0
 10
-9.73146
 20
123.883
 11
-9.60313
 21
124.156
  0
LINE
  8
0
 10
-9.60313
 20
124.156
 11
-9.44164
 21
124.411
  0
LINE
  8
0
 10
-9.44164
 20
124.411
 11
-9.24951
 21
124.643
  0
LINE
  8
0
 10
-9.24951
 20
124.643
 11
-9.02982
 21
124.849
  0
LINE
  8
0
 10
-9.02982
 20
124.849
 11
-8.78598
 21
125.026
  0
LINE
  8
0
 10
-8.78598
 20
125.026
 11
-8.52187
 21
125.172
  0
LINE
  8
0
 10
-8.52187
 20
125.172
 11
-8.24164
 21
125.283
  0
LINE
  8
0
 10
-8.24164
 20
125.283
 11
-7.94971
 21
125.357
  0
LINE
  8
0
 10
-7.94971
 20
125.357
 11
-7.6507
 21
125.395
  0
LINE
  8
0
 10
-7.6507
 20
125.395
 11
-7.34929
 21
125.395
  0
LINE
  8
0
 10
-7.34929
 20
125.395
 11
-7.05028
 21
125.357
  0
LINE
  8
0
 10
-7.05028
 20
125.357
 11
-6.75835
 21
125.283
  0
LINE
  8
0
 10
-6.75835
 20
125.283
 11
-6.47812
 21
125.172
  0
LINE
  8
0
 10
-6.47812
 20
125.172
 11
-6.214
 21
125.026
  0
LINE
  8
0
 10
-6.214
 20
125.026
 11
-5.97017
 21
124.849
  0
LINE
  8
0
 10
-5.97017
 20
124.849
 11
-5.75047
 21
124.643
  0
LINE
  8
0
 10
-5.75047
 20
124.643
 11
-5.55835
 21
124.411
  0
LINE
  8
0
 10
-5.55835
 20
124.411
 11
-5.39685
 21
124.156
  0
LINE
  8
0
 10
-5.39685
 20
124.156
 11
-5.26852
 21
123.883
  0
LINE
  8
0
 10
-5.26852
 20
123.883
 11
-5.1754
 21
123.597
  0
LINE
  8
0
 10
-5.1754
 20
123.597
 11
-5.11891
 21
123.301
  0
LINE
  8
0
 10
-5.11891
 20
123.301
 11
-5.09999
 21
123
  0
LINE
  8
0
 10
-5.09999
 20
123
 11
-5.11891
 21
122.699
  0
LINE
  8
0
 10
-5.11891
 20
122.699
 11
-5.1754
 21
122.403
  0
LINE
  8
0
 10
-5.1754
 20
122.403
 11
-5.26852
 21
122.117
  0
LINE
  8
0
 10
-5.26852
 20
122.117
 11
-5.39685
 21
121.844
  0
LINE
  8
0
 10
-5.39685
 20
121.844
 11
-5.55835
 21
121.589
  0
LINE
  8
0
 10
-5.55835
 20
121.589
 11
-5.75047
 21
121.357
  0
LINE
  8
0
 10
-5.75047
 20
121.357
 11
-5.97017
 21
121.151
  0
LINE
  8
0
 10
-5.97017
 20
121.151
 11
-6.214
 21
120.974
  0
LINE
  8
0
 10
-6.214
 20
120.974
 11
-6.47812
 21
120.828
  0
LINE
  8
0
 10
-6.47812
 20
120.828
 11
-6.75835
 21
120.717
  0
LINE
  8
0
 10
-6.75835
 20
120.717
 11
-7.05028
 21
120.643
  0
LINE
  8
0
 10
-7.05028
 20
120.643
 11
-7.34929
 21
120.605
  0
LINE
  8
0
 10
-7.34929
 20
120.605
 11
-7.6507
 21
120.605
  0
LINE
  8
0
 10
7.34929
 20
120.605
 11
7.05028
 21
120.643
  0
LINE
  8
0
 10
7.05028
 20
120.643
 11
6.75835
 21
120.717
  0
LINE
  8
0
 10
6.75835
 20
120.717
 11
6.47812
 21
120.828
  0
LINE
  8
0
 10
6.47812
 20
120.828
 11
6.214
 21
120.974
  0
LINE
  8
0
 10
6.214
 20
120.974
 11
5.97017
 21
121.151
  0
LINE
  8
0
 10
5.97017
 20
121.151
 11
5.75047
 21
121.357
  0
LINE
  8
0
 10
5.75047
 20
121.357
 11
5.55835
 21
121.589
  0
LINE
  8
0
 10
5.55835
 20
121.589
 11
5.39685
 21
121.844
  0
LINE
  8
0
 10
5.39685
 20
121.844
 11
5.26852
 21
122.117
  0
LINE
  8
0
 10
5.26852
 20
122.117
 11
5.1754
 21
122.403
  0
LINE
  8
0
 10
5.1754
 20
122.403
 11
5.11891
 21
122.699
  0
LINE
  8
0
 10
5.11891
 20
122.699
 11
5.09999
 21
123
  0
LINE
  8
0
 10
5.09999
 20
123
 11
5.11891
 21
123.301
  0
LINE
  8
0
 10
5.11891
 20
123.301
 11
5.1754
 21
123.597
  0
LINE
  8
0
 10
5.1754
 20
123.597
 11
5.26852
 21
123.883
  0
LINE
  8
0
 10
5.26852
 20
123.883
 11
5.39685
 21
124.156
  0
LINE
  8
0
 10
5.39685
 20
124.156
 11
5.55835
 21
124.411
  0
LINE
  8
0
 10
5.55835
 20
124.411
 11
5.75047
 21
124.643
  0
LINE
  8
0
 10
5.75047
 20
124.643
 11
5.97017
 21
124.849
  0
LINE
  8
0
 10
5.97017
 20
124.849
 11
6.214
 21
125.026
  0
LINE
  8
0
 10
6.214
 20
125.026
 11
6.47812
 21
125.172
  0
LINE
  8
0
 10
6.47812
 20
125.172
 11
6.75835
 21
125.283
  0
LINE
  8
0
 10
6.75835
 20
125.283
 11
7.05028
 21
125.357
  0
LINE
  8
0
 10
7.05028
 20
125.357
 11
7.34929
 21
125.395
  0
LINE
  8
0
 10
7.34929
 20
125.395
 11
7.6507
 21
125.395
  0
LINE
  8
0
 10
7.6507
 20
125.395
 11
7.94971
 21
125.357
  0
LINE
  8
0
 10
7.94971
 20
125.357
 11
8.24164
 21
125.283
  0
LINE
  8
0
 10
8.24164
 20
125.283
 11
8.52187
 21
125.172
  0
LINE
  8
0
 10
8.52187
 20
125.172
 11
8.78598
 21
125.026
  0
LINE
  8
0
 10
8.78598
 20
125.026
 11
9.02982
 21
124.849
  0
LINE
  8
0
 10
9.02982
 20
124.849
 11
9.24951
 21
124.643
  0
LINE
  8
0
 10
9.24951
 20
124.643
 11
9.44164
 21
124.411
  0
LINE
  8
0
 10
9.44164
 20
124.411
 11
9.60313
 21
124.156
  0
LINE
  8
0
 10
9.60313
 20
124.156
 11
9.73146
 21
123.883
  0
LINE
  8
0
 10
9.73146
 20
123.883
 11
9.82458
 21
123.597
  0
LINE
  8
0
 10
9.82458
 20
123.597
 11
9.88107
 21
123.301
  0
LINE
  8
0
 10
9.88107
 20
123.301
 11
9.89999
 21
123
  0
LINE
  8
0
 10
9.89999
 20
123
 11
9.88107
 21
122.699
  0
LINE
  8
0
 10
9.88107
 20
122.699
 11
9.82458
 21
122.403
  0
LINE
  8
0
 10
9.82458
 20
122.403
 11
9.73146
 21
122.117
  0
LINE
  8
0
 10
9.73146
 20
122.117
 11
9.60313
 21
121.844
  0
LINE
  8
0
 10
9.60313
 20
121.844
 11
9.44164
 21
121.589
  0
LINE
  8
0
 10
9.44164
 20
121.589
 11
9.24951
 21
121.357
  0
LINE
  8
0
 10
9.24951
 20
121.357
 11
9.02982
 21
121.151
  0
LINE
  8
0
 10
9.02982
 20
121.151
 11
8.78598
 21
120.974
  0
LINE
  8
0
 10
8.78598
 20
120.974
 11
8.52187
 21
120.828
  0
LINE
  8
0
 10
8.52187
 20
120.828
 11
8.24164
 21
120.717
  0
LINE
  8
0
 10
8.24164
 20
120.717
 11
7.94971
 21
120.643
  0
LINE
  8
0
 10
7.94971
 20
120.643
 11
7.6507
 21
120.605
  0
LINE
  8
0
 10
7.6507
 20
120.605
 11
7.34929
 21
120.605
  0
LINE
  8
0
 10
7.34929
 20
90.6047
 11
7.05028
 21
90.6425
  0
LINE
  8
0
 10
7.05028
 20
90.6425
 11
6.75835
 21
90.7175
  0
LINE
  8
0
 10
6.75835
 20
90.7175
 11
6.47812
 21
90.8284
  0
LINE
  8
0
 10
6.47812
 20
90.8284
 11
6.214
 21
90.9736
  0
LINE
  8
0
 10
6.214
 20
90.9736
 11
5.97017
 21
91.1508
  0
LINE
  8
0
 10
5.97017
 20
91.1508
 11
5.75047
 21
91.3571
  0
LINE
  8
0
 10
5.75047
 20
91.3571
 11
5.55835
 21
91.5893
  0
LINE
  8
0
 10
5.55835
 20
91.5893
 11
5.39685
 21
91.8438
  0
LINE
  8
0
 10
5.39685
 20
91.8438
 11
5.26852
 21
92.1165
  0
LINE
  8
0
 10
5.26852
 20
92.1165
 11
5.1754
 21
92.4032
  0
LINE
  8
0
 10
5.1754
 20
92.4032
 11
5.11891
 21
92.6992
  0
LINE
  8
0
 10
5.11891
 20
92.6992
 11
5.09999
 21
93
  0
LINE
  8
0
 10
5.09999
 20
93
 11
5.11891
 21
93.3008
  0
LINE
  8
0
 10
5.11891
 20
93.3008
 11
5.1754
 21
93.5969
  0
LINE
  8
0
 10
5.1754
 20
93.5969
 11
5.26852
 21
93.8835
  0
LINE
  8
0
 10
5.26852
 20
93.8835
 11
5.39685
 21
94.1562
  0
LINE
  8
0
 10
5.39685
 20
94.1562
 11
5.55835
 21
94.4107
  0
LINE
  8
0
 10
5.55835
 20
94.4107
 11
5.75047
 21
94.6429
  0
LINE
  8
0
 10
5.75047
 20
94.6429
 11
5.97017
 21
94.8492
  0
LINE
  8
0
 10
5.97017
 20
94.8492
 11
6.214
 21
95.0264
  0
LINE
  8
0
 10
6.214
 20
95.0264
 11
6.47812
 21
95.1716
  0
LINE
  8
0
 10
6.47812
 20
95.1716
 11
6.75835
 21
95.2825
  0
LINE
  8
0
 10
6.75835
 20
95.2825
 11
7.05028
 21
95.3575
  0
LINE
  8
0
 10
7.05028
 20
95.3575
 11
7.34929
 21
95.3953
  0
LINE
  8
0
 10
7.34929
 20
95.3953
 11
7.6507
 21
95.3953
  0
LINE
  8
0
 10
7.6507
 20
95.3953
 11
7.94971
 21
95.3575
  0
LINE
  8
0
 10
7.94971
 20
95.3575
 11
8.24164
 21
95.2825
  0
LINE
  8
0
 10
8.24164
 20
95.2825
 11
8.52187
 21
95.1716
  0
LINE
  8
0
 10
8.52187
 20
95.1716
 11
8.78598
 21
95.0264
  0
LINE
  8
0
 10
8.78598
 20
95.0264
 11
9.02982
 21
94.8492
  0
LINE
  8
0
 10
9.02982
 20
94.8492
 11
9.24951
 21
94.6429
  0
LINE
  8
0
 10
9.24951
 20
94.6429
 11
9.44164
 21
94.4107
  0
LINE
  8
0
 10
9.44164
 20
94.4107
 11
9.60313
 21
94.1562
  0
LINE
  8
0
 10
9.60313
 20
94.1562
 11
9.73146
 21
93.8835
  0
LINE
  8
0
 10
9.73146
 20
93.8835
 11
9.82458
 21
93.5969
  0
LINE
  8
0
 10
9.82458
 20
93.5969
 11
9.88107
 21
93.3008
  0
LINE
  8
0
 10
9.88107
 20
93.3008
 11
9.89999
 21
93
  0
LINE
  8
0
 10
9.89999
 20
93
 11
9.88107
 21
92.6992
  0
LINE
  8
0
 10
9.88107
 20
92.6992
 11
9.82458
 21
92.4032
  0
LINE
  8
0
 10
9.82458
 20
92.4032
 11
9.73146
 21
92.1165
  0
LINE
  8
0
 10
9.73146
 20
92.1165
 11
9.60313
 21
91.8438
  0
LINE
  8
0
 10
9.60313
 20
91.8438
 11
9.44164
 21
91.5893
  0
LINE
  8
0
 10
9.44164
 20
91.5893
 11
9.24951
 21
91.3571
  0
LINE
  8
0
 10
9.24951
 20
91.3571
 11
9.02982
 21
91.1508
  0
LINE
  8
0
 10
9.02982
 20
91.1508
 11
8.78598
 21
90.9736
  0
LINE
  8
0
 10
8.78598
 20
90.9736
 11
8.52187
 21
90.8284
  0
LINE
  8
0
 10
8.52187
 20
90.8284
 11
8.24164
 21
90.7175
  0
LINE
  8
0
 10
8.24164
 20
90.7175
 11
7.94971
 21
90.6425
  0
LINE
  8
0
 10
7.94971
 20
90.6425
 11
7.6507
 21
90.6047
  0
LINE
  8
0
 10
7.6507
 20
90.6047
 11
7.34929
 21
90.6047
  0
LINE
  8
0
 10
-7.6507
 20
90.6047
 11
-7.94971
 21
90.6425
  0
LINE
  8
0
 10
-7.94971
 20
90.6425
 11
-8.24164
 21
90.7175
  0
LINE
  8
0
 10
-8.24164
 20
90.7175
 11
-8.52187
 21
90.8284
  0
LINE
  8
0
 10
-8.52187
 20
90.8284
 11
-8.78598
 21
90.9736
  0
LINE
  8
0
 10
-8.78598
 20
90.9736
 11
-9.02982
 21
91.1508
  0
LINE
  8
0
 10
-9.02982
 20
91.1508
 11
-9.24951
 21
91.3571
  0
LINE
  8
0
 10
-9.24951
 20
91.3571
 11
-9.44164
 21
91.5893
  0
LINE
  8
0
 10
-9.44164
 20
91.5893
 11
-9.60313
 21
91.8438
  0
LINE
  8
0
 10
-9.60313
 20
91.8438
 11
-9.73146
 21
92.1165
  0
LINE
  8
0
 10
-9.73146
 20
92.1165
 11
-9.82458
 21
92.4032
  0
LINE
  8
0
 10
-9.82458
 20
92.4032
 11
-9.88107
 21
92.6992
  0
LINE
  8
0
 10
-9.88107
 20
92.6992
 11
-9.89999
 21
93
  0
LINE
  8
0
 10
-9.89999
 20
93
 11
-9.88107
 21
93.3008
  0
LINE
  8
0
 10
-9.88107
 20
93.3008
 11
-9.82458
 21
93.5969
  0
LINE
  8
0
 10
-9.82458
 20
93.5969
 11
-9.73146
 21
93.8835
  0
LINE
  8
0
 10
-9.73146
 20
93.8835
 11
-9.60313
 21
94.1562
  0
LINE
  8
0
 10
-9.60313
 20
94.1562
 11
-9.44164
 21
94.4107
  0
LINE
  8
0
 10
-9.44164
 20
94.4107
 11
-9.24951
 21
94.6429
  0
LINE
  8
0
 10
-9.24951
 20
94.6429
 11
-9.02982
 21
94.8492
  0
LINE
  8
0
 10
-9.02982
 20
94.8492
 11
-8.78598
 21
95.0264
  0
LINE
  8
0
 10
-8.78598
 20
95.0264
 11
-8.52187
 21
95.1716
  0
LINE
  8
0
 10
-8.52187
 20
95.1716
 11
-8.24164
 21
95.2825
  0
LINE
  8
0
 10
-8.24164
 20
95.2825
 11
-7.94971
 21
95.3575
  0
LINE
  8
0
 10
-7.94971
 20
95.3575
 11
-7.6507
 21
95.3953
  0
LINE
  8
0
 10
-7.6507
 20
95.3953
 11
-7.34929
 21
95.3953
  0
LINE
  8
0
 10
-7.34929
 20
95.3953
 11
-7.05028
 21
95.3575
  0
LINE
  8
0
 10
-7.05028
 20
95.3575
 11
-6.75835
 21
95.2825
  0
LINE
  8
0
 10
-6.75835
 20
95.2825
 11
-6.47812
 21
95.1716
  0
LINE
  8
0
 10
-6.47812
 20
95.1716
 11
-6.214
 21
95.0264
  0
LINE
  8
0
 10
-6.214
 20
95.0264
 11
-5.97017
 21
94.8492
  0
LINE
  8
0
 10
-5.97017
 20
94.8492
 11
-5.75047
 21
94.6429
  0
LINE
  8
0
 10
-5.75047
 20
94.6429
 11
-5.55835
 21
94.4107
  0
LINE
  8
0
 10
-5.55835
 20
94.4107
 11
-5.39685
 21
94.1562
  0
LINE
  8
0
 10
-5.39685
 20
94.1562
 11
-5.26852
 21
93.8835
  0
LINE
  8
0
 10
-5.26852
 20
93.8835
 11
-5.1754
 21
93.5969
  0
LINE
  8
0
 10
-5.1754
 20
93.5969
 11
-5.11891
 21
93.3008
  0
LINE
  8
0
 10
-5.11891
 20
93.3008
 11
-5.09999
 21
93
  0
LINE
  8
0
 10
-5.09999
 20
93
 11
-5.11891
 21
92.6992
  0
LINE
  8
0
 10
-5.11891
 20
92.6992
 11
-5.1754
 21
92.4032
  0
LINE
  8
0
 10
-5.1754
 20
92.4032
 11
-5.26852
 21
92.1165
  0
LINE
  8
0
 10
-5.26852
 20
92.1165
 11
-5.39685
 21
91.8438
  0
LINE
  8
0
 10
-5.39685
 20
91.8438
 11
-5.55835
 21
91.5893
  0
LINE
  8
0
 10
-5.55835
 20
91.5893
 11
-5.75047
 21
91.3571
  0
LINE
  8
0
 10
-5.75047
 20
91.3571
 11
-5.97017
 21
91.1508
  0
LINE
  8
0
 10
-5.97017
 20
91.1508
 11
-6.214
 21
90.9736
  0
LINE
  8
0
 10
-6.214
 20
90.9736
 11
-6.47812
 21
90.8284
  0
LINE
  8
0
 10
-6.47812
 20
90.8284
 11
-6.75835
 21
90.7175
  0
LINE
  8
0
 10
-6.75835
 20
90.7175
 11
-7.05028
 21
90.6425
  0
LINE
  8
0
 10
-7.05028
 20
90.6425
 11
-7.34929
 21
90.6047
  0
LINE
  8
0
 10
-7.34929
 20
90.6047
 11
-7.6507
 21
90.6047
  0
ENDSEC
  0
SECTION
  2
OBJECTS
  0
DICTIONARY
  0
ENDSEC
  0
EOF
