<?xml version="1.0" standalone="no"?>
<!DOCTYPE svg PUBLIC "-//W3C//DTD SVG 1.1//EN" "http://www.w3.org/Graphics/SVG/1.1/DTD/svg11.dtd">
<svg width="112mm" height="30mm" viewBox="-56 -15 112 30" xmlns="http://www.w3.org/2000/svg" version="1.1">
<title>OpenSCAD Model</title>
<path d="
M 53.9684,14.7057 L 54.2725,14.6276 L 54.5644,14.5121 L 54.8396,14.3608 L 55.0936,14.1763 L 55.3224,13.9614
 L 55.5225,13.7195 L 55.6908,13.4544 L 55.8244,13.1703 L 55.9214,12.8717 L 55.9803,12.5633 L 56,12.25
 L 56,-12.25 L 55.9803,-12.5633 L 55.9214,-12.8717 L 55.8244,-13.1703 L 55.6908,-13.4544 L 55.5225,-13.7195
 L 55.3224,-13.9614 L 55.0936,-14.1763 L 54.8396,-14.3608 L 54.5644,-14.5121 L 54.2725,-14.6276 L 53.9684,-14.7057
 L 53.657,-14.7451 L -53.657,-14.7451 L -53.9684,-14.7057 L -54.2725,-14.6276 L -54.5644,-14.5121 L -54.8396,-14.3608
 L -55.0936,-14.1763 L -55.3224,-13.9614 L -55.5225,-13.7195 L -55.6908,-13.4544 L -55.8244,-13.1703 L -55.9214,-12.8717
 L -55.9803,-12.5633 L -56,-12.25 L -56,12.25 L -55.9803,12.5633 L -55.9214,12.8717 L -55.8244,13.1703
 L -55.6908,13.4544 L -55.5225,13.7195 L -55.3224,13.9614 L -55.0936,14.1763 L -54.8396,14.3608 L -54.5644,14.5121
 L -54.2725,14.6276 L -53.9684,14.7057 L -53.657,14.7451 L 53.657,14.7451 z
M 52.4058,-9.75294 L 52.2189,-9.77657 L 52.0365,-9.82341 L 51.8613,-9.89275 L 51.6963,-9.98351 L 51.5439,-10.0942
 L 51.4065,-10.2232 L 51.2865,-10.3683 L 51.1855,-10.5274 L 51.1053,-10.6978 L 51.0471,-10.877 L 51.0118,-11.062
 L 51,-11.25 L 51.0118,-11.438 L 51.0471,-11.623 L 51.1053,-11.8022 L 51.1855,-11.9726 L 51.2865,-12.1317
 L 51.4065,-12.2768 L 51.5439,-12.4058 L 51.6963,-12.5165 L 51.8613,-12.6072 L 52.0365,-12.6766 L 52.2189,-12.7234
 L 52.4058,-12.747 L 52.5942,-12.747 L 52.7811,-12.7234 L 52.9635,-12.6766 L 53.1387,-12.6072 L 53.3037,-12.5165
 L 53.4561,-12.4058 L 53.5934,-12.2768 L 53.7135,-12.1317 L 53.8145,-11.9726 L 53.8947,-11.8022 L 53.9529,-11.623
 L 53.9882,-11.438 L 54,-11.25 L 53.9882,-11.062 L 53.9529,-10.877 L 53.8947,-10.6978 L 53.8145,-10.5274
 L 53.7135,-10.3683 L 53.5934,-10.2232 L 53.4561,-10.0942 L 53.3037,-9.98351 L 53.1387,-9.89275 L 52.9635,-9.82341
 L 52.7811,-9.77657 L 52.5942,-9.75294 z
M 36.1855,-10.5274 L 36.1053,-10.6978 L 36.0471,-10.877 L 36.0118,-11.062 L 36,-11.25 L 36.0118,-11.438
 L 36.0471,-11.623 L 36.1053,-11.8022 L 36.1855,-11.9726 L 36.2865,-12.1317 L 36.4065,-12.2768 L 36.5439,-12.4058
 L 36.6963,-12.5165 L 36.8613,-12.6072 L 37.0365,-12.6766 L 37.2189,-12.7234 L 37.4058,-12.747 L 37.5942,-12.747
 L 37.7811,-12.7234 L 37.9635,-12.6766 L 38.1387,-12.6072 L 38.3037,-12.5165 L 38.4561,-12.4058 L 38.5934,-12.2768
 L 38.7135,-12.1317 L 38.8145,-11.9726 L 38.8947,-11.8022 L 38.9529,-11.623 L 38.9882,-11.438 L 39,-11.25
 L 38.9882,-11.062 L 38.9529,-10.877 L 38.8947,-10.6978 L 38.8145,-10.5274 L 38.7135,-10.3683 L 38.5934,-10.2232
 L 38.4561,-10.0942 L 38.3037,-9.98351 L 38.1387,-9.89275 L 37.9635,-9.82341 L 37.7811,-9.77657 L 37.5942,-9.75294
 L 37.4058,-9.75294 L 37.2189,-9.77657 L 37.0365,-9.82341 L 36.8613,-9.89275 L 36.6963,-9.98351 L 36.5439,-10.0942
 L 36.4065,-10.2232 L 36.2865,-10.3683 z
M 14.9058,-9.75294 L 14.7189,-9.77657 L 14.5365,-9.82341 L 14.3613,-9.89275 L 14.1963,-9.98351 L 14.0439,-10.0942
 L 13.9065,-10.2232 L 13.7865,-10.3683 L 13.6855,-10.5274 L 13.6053,-10.6978 L 13.5471,-10.877 L 13.5118,-11.062
 L 13.5,-11.25 L 13.5118,-11.438 L 13.5471,-11.623 L 13.6053,-11.8022 L 13.6855,-11.9726 L 13.7865,-12.1317
 L 13.9065,-12.2768 L 14.0439,-12.4058 L 14.1963,-12.5165 L 14.3613,-12.6072 L 14.5365,-12.6766 L 14.7189,-12.7234
 L 14.9058,-12.747 L 15.0942,-12.747 L 15.2811,-12.7234 L 15.4635,-12.6766 L 15.6387,-12.6072 L 15.8037,-12.5165
 L 15.9561,-12.4058 L 16.0934,-12.2768 L 16.2135,-12.1317 L 16.3145,-11.9726 L 16.3947,-11.8022 L 16.4529,-11.623
 L 16.4882,-11.438 L 16.5,-11.25 L 16.4882,-11.062 L 16.4529,-10.877 L 16.3947,-10.6978 L 16.3145,-10.5274
 L 16.2135,-10.3683 L 16.0934,-10.2232 L 15.9561,-10.0942 L 15.8037,-9.98351 L 15.6387,-9.89275 L 15.4635,-9.82341
 L 15.2811,-9.77657 L 15.0942,-9.75294 z
M 7.40581,-9.75294 L 7.21892,-9.77657 L 7.03647,-9.82341 L 6.86133,-9.89275 L 6.69626,-9.98351 L 6.54385,-10.0942
 L 6.40654,-10.2232 L 6.28647,-10.3683 L 6.18553,-10.5274 L 6.10533,-10.6978 L 6.04712,-10.877 L 6.01183,-11.062
 L 6,-11.25 L 6.01183,-11.438 L 6.04712,-11.623 L 6.10533,-11.8022 L 6.18553,-11.9726 L 6.28647,-12.1317
 L 6.40654,-12.2768 L 6.54385,-12.4058 L 6.69626,-12.5165 L 6.86133,-12.6072 L 7.03647,-12.6766 L 7.21892,-12.7234
 L 7.40581,-12.747 L 7.59418,-12.747 L 7.78107,-12.7234 L 7.96352,-12.6766 L 8.13866,-12.6072 L 8.30373,-12.5165
 L 8.45613,-12.4058 L 8.59344,-12.2768 L 8.71352,-12.1317 L 8.81445,-11.9726 L 8.89465,-11.8022 L 8.95287,-11.623
 L 8.98816,-11.438 L 9,-11.25 L 8.98816,-11.062 L 8.95287,-10.877 L 8.89465,-10.6978 L 8.81445,-10.5274
 L 8.71352,-10.3683 L 8.59344,-10.2232 L 8.45613,-10.0942 L 8.30373,-9.98351 L 8.13866,-9.89275 L 7.96352,-9.82341
 L 7.78107,-9.77657 L 7.59418,-9.75294 z
M -52.5942,-9.75294 L -52.7811,-9.77657 L -52.9635,-9.82341 L -53.1387,-9.89275 L -53.3037,-9.98351 L -53.4561,-10.0942
 L -53.5934,-10.2232 L -53.7135,-10.3683 L -53.8145,-10.5274 L -53.8947,-10.6978 L -53.9529,-10.877 L -53.9882,-11.062
 L -54,-11.25 L -53.9882,-11.438 L -53.9529,-11.623 L -53.8947,-11.8022 L -53.8145,-11.9726 L -53.7135,-12.1317
 L -53.5934,-12.2768 L -53.4561,-12.4058 L -53.3037,-12.5165 L -53.1387,-12.6072 L -52.9635,-12.6766 L -52.7811,-12.7234
 L -52.5942,-12.747 L -52.4058,-12.747 L -52.2189,-12.7234 L -52.0365,-12.6766 L -51.8613,-12.6072 L -51.6963,-12.5165
 L -51.5439,-12.4058 L -51.4065,-12.2768 L -51.2865,-12.1317 L -51.1855,-11.9726 L -51.1053,-11.8022 L -51.0471,-11.623
 L -51.0118,-11.438 L -51,-11.25 L -51.0118,-11.062 L -51.0471,-10.877 L -51.1053,-10.6978 L -51.1855,-10.5274
 L -51.2865,-10.3683 L -51.4065,-10.2232 L -51.5439,-10.0942 L -51.6963,-9.98351 L -51.8613,-9.89275 L -52.0365,-9.82341
 L -52.2189,-9.77657 L -52.4058,-9.75294 z
M -30.0942,-9.75294 L -30.2811,-9.77657 L -30.4635,-9.82341 L -30.6387,-9.89275 L -30.8037,-9.98351 L -30.9561,-10.0942
 L -31.0934,-10.2232 L -31.2135,-10.3683 L -31.3145,-10.5274 L -31.3947,-10.6978 L -31.4529,-10.877 L -31.4882,-11.062
 L -31.5,-11.25 L -31.4882,-11.438 L -31.4529,-11.623 L -31.3947,-11.8022 L -31.3145,-11.9726 L -31.2135,-12.1317
 L -31.0934,-12.2768 L -30.9561,-12.4058 L -30.8037,-12.5165 L -30.6387,-12.6072 L -30.4635,-12.6766 L -30.2811,-12.7234
 L -30.0942,-12.747 L -29.9058,-12.747 L -29.7189,-12.7234 L -29.5365,-12.6766 L -29.3613,-12.6072 L -29.1963,-12.5165
 L -29.0439,-12.4058 L -28.9065,-12.2768 L -28.7865,-12.1317 L -28.6855,-11.9726 L -28.6053,-11.8022 L -28.5471,-11.623
 L -28.5118,-11.438 L -28.5,-11.25 L -28.5118,-11.062 L -28.5471,-10.877 L -28.6053,-10.6978 L -28.6855,-10.5274
 L -28.7865,-10.3683 L -28.9065,-10.2232 L -29.0439,-10.0942 L -29.1963,-9.98351 L -29.3613,-9.89275 L -29.5365,-9.82341
 L -29.7189,-9.77657 L -29.9058,-9.75294 z
M -7.59418,-9.75294 L -7.78107,-9.77657 L -7.96352,-9.82341 L -8.13866,-9.89275 L -8.30373,-9.98351 L -8.45613,-10.0942
 L -8.59344,-10.2232 L -8.71352,-10.3683 L -8.81445,-10.5274 L -8.89465,-10.6978 L -8.95287,-10.877 L -8.98816,-11.062
 L -9,-11.25 L -8.98816,-11.438 L -8.95287,-11.623 L -8.89465,-11.8022 L -8.81445,-11.9726 L -8.71352,-12.1317
 L -8.59344,-12.2768 L -8.45613,-12.4058 L -8.30373,-12.5165 L -8.13866,-12.6072 L -7.96352,-12.6766 L -7.78107,-12.7234
 L -7.59418,-12.747 L -7.40581,-12.747 L -7.21892,-12.7234 L -7.03647,-12.6766 L -6.86133,-12.6072 L -6.69626,-12.5165
 L -6.54385,-12.4058 L -6.40654,-12.2768 L -6.28647,-12.1317 L -6.18553,-11.9726 L -6.10533,-11.8022 L -6.04712,-11.623
 L -6.01183,-11.438 L -6,-11.25 L -6.01183,-11.062 L -6.04712,-10.877 L -6.10533,-10.6978 L -6.18553,-10.5274
 L -6.28647,-10.3683 L -6.40654,-10.2232 L -6.54385,-10.0942 L -6.69626,-9.98351 L -6.86133,-9.89275 L -7.03647,-9.82341
 L -7.21892,-9.77657 L -7.40581,-9.75294 z
M -0.0941772,-9.75294 L -0.281067,-9.77657 L -0.463516,-9.82341 L -0.638657,-9.89275 L -0.803726,-9.98351 L -0.956131,-10.0942
 L -1.09344,-10.2232 L -1.21352,-10.3683 L -1.31445,-10.5274 L -1.39465,-10.6978 L -1.45287,-10.877 L -1.48816,-11.062
 L -1.5,-11.25 L -1.48816,-11.438 L -1.45287,-11.623 L -1.39465,-11.8022 L -1.31445,-11.9726 L -1.21352,-12.1317
 L -1.09344,-12.2768 L -0.956131,-12.4058 L -0.803726,-12.5165 L -0.638657,-12.6072 L -0.463516,-12.6766 L -0.281067,-12.7234
 L -0.0941772,-12.747 L 0.0941772,-12.747 L 0.281067,-12.7234 L 0.463516,-12.6766 L 0.638657,-12.6072 L 0.803726,-12.5165
 L 0.956131,-12.4058 L 1.09344,-12.2768 L 1.21352,-12.1317 L 1.31445,-11.9726 L 1.39465,-11.8022 L 1.45287,-11.623
 L 1.48816,-11.438 L 1.5,-11.25 L 1.48816,-11.062 L 1.45287,-10.877 L 1.39465,-10.6978 L 1.31445,-10.5274
 L 1.21352,-10.3683 L 1.09344,-10.2232 L 0.956131,-10.0942 L 0.803726,-9.98351 L 0.638657,-9.89275 L 0.463516,-9.82341
 L 0.281067,-9.77657 L 0.0941772,-9.75294 z
M 22.4058,-9.75294 L 22.2189,-9.77657 L 22.0365,-9.82341 L 21.8613,-9.89275 L 21.6963,-9.98351 L 21.5439,-10.0942
 L 21.4065,-10.2232 L 21.2865,-10.3683 L 21.1855,-10.5274 L 21.1053,-10.6978 L 21.0471,-10.877 L 21.0118,-11.062
 L 21,-11.25 L 21.0118,-11.438 L 21.0471,-11.623 L 21.1053,-11.8022 L 21.1855,-11.9726 L 21.2865,-12.1317
 L 21.4065,-12.2768 L 21.5439,-12.4058 L 21.6963,-12.5165 L 21.8613,-12.6072 L 22.0365,-12.6766 L 22.2189,-12.7234
 L 22.4058,-12.747 L 22.5942,-12.747 L 22.7811,-12.7234 L 22.9635,-12.6766 L 23.1387,-12.6072 L 23.3037,-12.5165
 L 23.4561,-12.4058 L 23.5934,-12.2768 L 23.7135,-12.1317 L 23.8145,-11.9726 L 23.8947,-11.8022 L 23.9529,-11.623
 L 23.9882,-11.438 L 24,-11.25 L 23.9882,-11.062 L 23.9529,-10.877 L 23.8947,-10.6978 L 23.8145,-10.5274
 L 23.7135,-10.3683 L 23.5934,-10.2232 L 23.4561,-10.0942 L 23.3037,-9.98351 L 23.1387,-9.89275 L 22.9635,-9.82341
 L 22.7811,-9.77657 L 22.5942,-9.75294 z
M -15.0942,-9.75294 L -15.2811,-9.77657 L -15.4635,-9.82341 L -15.6387,-9.89275 L -15.8037,-9.98351 L -15.9561,-10.0942
 L -16.0934,-10.2232 L -16.2135,-10.3683 L -16.3145,-10.5274 L -16.3947,-10.6978 L -16.4529,-10.877 L -16.4882,-11.062
 L -16.5,-11.25 L -16.4882,-11.438 L -16.4529,-11.623 L -16.3947,-11.8022 L -16.3145,-11.9726 L -16.2135,-12.1317
 L -16.0934,-12.2768 L -15.9561,-12.4058 L -15.8037,-12.5165 L -15.6387,-12.6072 L -15.4635,-12.6766 L -15.2811,-12.7234
 L -15.0942,-12.747 L -14.9058,-12.747 L -14.7189,-12.7234 L -14.5365,-12.6766 L -14.3613,-12.6072 L -14.1963,-12.5165
 L -14.0439,-12.4058 L -13.9065,-12.2768 L -13.7865,-12.1317 L -13.6855,-11.9726 L -13.6053,-11.8022 L -13.5471,-11.623
 L -13.5118,-11.438 L -13.5,-11.25 L -13.5118,-11.062 L -13.5471,-10.877 L -13.6053,-10.6978 L -13.6855,-10.5274
 L -13.7865,-10.3683 L -13.9065,-10.2232 L -14.0439,-10.0942 L -14.1963,-9.98351 L -14.3613,-9.89275 L -14.5365,-9.82341
 L -14.7189,-9.77657 L -14.9058,-9.75294 z
M 44.9058,-9.75294 L 44.7189,-9.77657 L 44.5365,-9.82341 L 44.3613,-9.89275 L 44.1963,-9.98351 L 44.0439,-10.0942
 L 43.9065,-10.2232 L 43.7865,-10.3683 L 43.6855,-10.5274 L 43.6053,-10.6978 L 43.5471,-10.877 L 43.5118,-11.062
 L 43.5,-11.25 L 43.5118,-11.438 L 43.5471,-11.623 L 43.6053,-11.8022 L 43.6855,-11.9726 L 43.7865,-12.1317
 L 43.9065,-12.2768 L 44.0439,-12.4058 L 44.1963,-12.5165 L 44.3613,-12.6072 L 44.5365,-12.6766 L 44.7189,-12.7234
 L 44.9058,-12.747 L 45.0942,-12.747 L 45.2811,-12.7234 L 45.4635,-12.6766 L 45.6387,-12.6072 L 45.8037,-12.5165
 L 45.9561,-12.4058 L 46.0934,-12.2768 L 46.2135,-12.1317 L 46.3145,-11.9726 L 46.3947,-11.8022 L 46.4529,-11.623
 L 46.4882,-11.438 L 46.5,-11.25 L 46.4882,-11.062 L 46.4529,-10.877 L 46.3947,-10.6978 L 46.3145,-10.5274
 L 46.2135,-10.3683 L 46.0934,-10.2232 L 45.9561,-10.0942 L 45.8037,-9.98351 L 45.6387,-9.89275 L 45.4635,-9.82341
 L 45.2811,-9.77657 L 45.0942,-9.75294 z
M -22.5942,-9.75294 L -22.7811,-9.77657 L -22.9635,-9.82341 L -23.1387,-9.89275 L -23.3037,-9.98351 L -23.4561,-10.0942
 L -23.5934,-10.2232 L -23.7135,-10.3683 L -23.8145,-10.5274 L -23.8947,-10.6978 L -23.9529,-10.877 L -23.9882,-11.062
 L -24,-11.25 L -23.9882,-11.438 L -23.9529,-11.623 L -23.8947,-11.8022 L -23.8145,-11.9726 L -23.7135,-12.1317
 L -23.5934,-12.2768 L -23.4561,-12.4058 L -23.3037,-12.5165 L -23.1387,-12.6072 L -22.9635,-12.6766 L -22.7811,-12.7234
 L -22.5942,-12.747 L -22.4058,-12.747 L -22.2189,-12.7234 L -22.0365,-12.6766 L -21.8613,-12.6072 L -21.6963,-12.5165
 L -21.5439,-12.4058 L -21.4065,-12.2768 L -21.2865,-12.1317 L -21.1855,-11.9726 L -21.1053,-11.8022 L -21.0471,-11.623
 L -21.0118,-11.438 L -21,-11.25 L -21.0118,-11.062 L -21.0471,-10.877 L -21.1053,-10.6978 L -21.1855,-10.5274
 L -21.2865,-10.3683 L -21.4065,-10.2232 L -21.5439,-10.0942 L -21.6963,-9.98351 L -21.8613,-9.89275 L -22.0365,-9.82341
 L -22.2189,-9.77657 L -22.4058,-9.75294 z
M -37.5942,-9.75294 L -37.7811,-9.77657 L -37.9635,-9.82341 L -38.1387,-9.89275 L -38.3037,-9.98351 L -38.4561,-10.0942
 L -38.5934,-10.2232 L -38.7135,-10.3683 L -38.8145,-10.5274 L -38.8947,-10.6978 L -38.9529,-10.877 L -38.9882,-11.062
 L -39,-11.25 L -38.9882,-11.438 L -38.9529,-11.623 L -38.8947,-11.8022 L -38.8145,-11.9726 L -38.7135,-12.1317
 L -38.5934,-12.2768 L -38.4561,-12.4058 L -38.3037,-12.5165 L -38.1387,-12.6072 L -37.9635,-12.6766 L -37.7811,-12.7234
 L -37.5942,-12.747 L -37.4058,-12.747 L -37.2189,-12.7234 L -37.0365,-12.6766 L -36.8613,-12.6072 L -36.6963,-12.5165
 L -36.5439,-12.4058 L -36.4065,-12.2768 L -36.2865,-12.1317 L -36.1855,-11.9726 L -36.1053,-11.8022 L -36.0471,-11.623
 L -36.0118,-11.438 L -36,-11.25 L -36.0118,-11.062 L -36.0471,-10.877 L -36.1053,-10.6978 L -36.1855,-10.5274
 L -36.2865,-10.3683 L -36.4065,-10.2232 L -36.5439,-10.0942 L -36.6963,-9.98351 L -36.8613,-9.89275 L -37.0365,-9.82341
 L -37.2189,-9.77657 L -37.4058,-9.75294 z
M -45.0942,-9.75294 L -45.2811,-9.77657 L -45.4635,-9.82341 L -45.6387,-9.89275 L -45.8037,-9.98351 L -45.9561,-10.0942
 L -46.0934,-10.2232 L -46.2135,-10.3683 L -46.3145,-10.5274 L -46.3947,-10.6978 L -46.4529,-10.877 L -46.4882,-11.062
 L -46.5,-11.25 L -46.4882,-11.438 L -46.4529,-11.623 L -46.3947,-11.8022 L -46.3145,-11.9726 L -46.2135,-12.1317
 L -46.0934,-12.2768 L -45.9561,-12.4058 L -45.8037,-12.5165 L -45.6387,-12.6072 L -45.4635,-12.6766 L -45.2811,-12.7234
 L -45.0942,-12.747 L -44.9058,-12.747 L -44.7189,-12.7234 L -44.5365,-12.6766 L -44.3613,-12.6072 L -44.1963,-12.5165
 L -44.0439,-12.4058 L -43.9065,-12.2768 L -43.7865,-12.1317 L -43.6855,-11.9726 L -43.6053,-11.8022 L -43.5471,-11.623
 L -43.5118,-11.438 L -43.5,-11.25 L -43.5118,-11.062 L -43.5471,-10.877 L -43.6053,-10.6978 L -43.6855,-10.5274
 L -43.7865,-10.3683 L -43.9065,-10.2232 L -44.0439,-10.0942 L -44.1963,-9.98351 L -44.3613,-9.89275 L -44.5365,-9.82341
 L -44.7189,-9.77657 L -44.9058,-9.75294 z
M 29.9058,-2.25294 L 29.7189,-2.27657 L 29.5365,-2.32341 L 29.3613,-2.39275 L 29.1963,-2.48351 L 29.0439,-2.59422
 L 28.9065,-2.72318 L 28.7865,-2.86832 L 28.6855,-3.02736 L 28.6053,-3.1978 L 28.5471,-3.37695 L 28.5118,-3.562
 L 28.5,-3.75 L 28.5118,-3.93799 L 28.5471,-4.12303 L 28.6053,-4.30219 L 28.6855,-4.47263 L 28.7865,-4.63167
 L 28.9065,-4.77681 L 29.0439,-4.90576 L 29.1963,-5.01648 L 29.3613,-5.10724 L 29.5365,-5.17657 L 29.7189,-5.22342
 L 29.9058,-5.24704 L 30.0942,-5.24704 L 30.2811,-5.22342 L 30.4635,-5.17657 L 30.6387,-5.10724 L 30.8037,-5.01648
 L 30.9561,-4.90576 L 31.0934,-4.77681 L 31.2135,-4.63167 L 31.3145,-4.47263 L 31.3947,-4.30219 L 31.4529,-4.12303
 L 31.4882,-3.93799 L 31.5,-3.75 L 31.4882,-3.562 L 31.4529,-3.37695 L 31.3947,-3.1978 L 31.3145,-3.02736
 L 31.2135,-2.86832 L 31.0934,-2.72318 L 30.9561,-2.59422 L 30.8037,-2.48351 L 30.6387,-2.39275 L 30.4635,-2.32341
 L 30.2811,-2.27657 L 30.0942,-2.25294 z
M -45.0942,-2.25294 L -45.2811,-2.27657 L -45.4635,-2.32341 L -45.6387,-2.39275 L -45.8037,-2.48351 L -45.9561,-2.59422
 L -46.0934,-2.72318 L -46.2135,-2.86832 L -46.3145,-3.02736 L -46.3947,-3.1978 L -46.4529,-3.37695 L -46.4882,-3.562
 L -46.5,-3.75 L -46.4882,-3.93799 L -46.4529,-4.12303 L -46.3947,-4.30219 L -46.3145,-4.47263 L -46.2135,-4.63167
 L -46.0934,-4.77681 L -45.9561,-4.90576 L -45.8037,-5.01648 L -45.6387,-5.10724 L -45.4635,-5.17657 L -45.2811,-5.22342
 L -45.0942,-5.24704 L -44.9058,-5.24704 L -44.7189,-5.22342 L -44.5365,-5.17657 L -44.3613,-5.10724 L -44.1963,-5.01648
 L -44.0439,-4.90576 L -43.9065,-4.77681 L -43.7865,-4.63167 L -43.6855,-4.47263 L -43.6053,-4.30219 L -43.5471,-4.12303
 L -43.5118,-3.93799 L -43.5,-3.75 L -43.5118,-3.562 L -43.5471,-3.37695 L -43.6053,-3.1978 L -43.6855,-3.02736
 L -43.7865,-2.86832 L -43.9065,-2.72318 L -44.0439,-2.59422 L -44.1963,-2.48351 L -44.3613,-2.39275 L -44.5365,-2.32341
 L -44.7189,-2.27657 L -44.9058,-2.25294 z
M -0.0941772,-2.25294 L -0.281067,-2.27657 L -0.463516,-2.32341 L -0.638657,-2.39275 L -0.803726,-2.48351 L -0.956131,-2.59422
 L -1.09344,-2.72318 L -1.21352,-2.86832 L -1.31445,-3.02736 L -1.39465,-3.1978 L -1.45287,-3.37695 L -1.48816,-3.562
 L -1.5,-3.75 L -1.48816,-3.93799 L -1.45287,-4.12303 L -1.39465,-4.30219 L -1.31445,-4.47263 L -1.21352,-4.63167
 L -1.09344,-4.77681 L -0.956131,-4.90576 L -0.803726,-5.01648 L -0.638657,-5.10724 L -0.463516,-5.17657 L -0.281067,-5.22342
 L -0.0941772,-5.24704 L 0.0941772,-5.24704 L 0.281067,-5.22342 L 0.463516,-5.17657 L 0.638657,-5.10724 L 0.803726,-5.01648
 L 0.956131,-4.90576 L 1.09344,-4.77681 L 1.21352,-4.63167 L 1.31445,-4.47263 L 1.39465,-4.30219 L 1.45287,-4.12303
 L 1.48816,-3.93799 L 1.5,-3.75 L 1.48816,-3.562 L 1.45287,-3.37695 L 1.39465,-3.1978 L 1.31445,-3.02736
 L 1.21352,-2.86832 L 1.09344,-2.72318 L 0.956131,-2.59422 L 0.803726,-2.48351 L 0.638657,-2.39275 L 0.463516,-2.32341
 L 0.281067,-2.27657 L 0.0941772,-2.25294 z
M 52.4058,-2.25294 L 52.2189,-2.27657 L 52.0365,-2.32341 L 51.8613,-2.39275 L 51.6963,-2.48351 L 51.5439,-2.59422
 L 51.4065,-2.72318 L 51.2865,-2.86832 L 51.1855,-3.02736 L 51.1053,-3.1978 L 51.0471,-3.37695 L 51.0118,-3.562
 L 51,-3.75 L 51.0118,-3.93799 L 51.0471,-4.12303 L 51.1053,-4.30219 L 51.1855,-4.47263 L 51.2865,-4.63167
 L 51.4065,-4.77681 L 51.5439,-4.90576 L 51.6963,-5.01648 L 51.8613,-5.10724 L 52.0365,-5.17657 L 52.2189,-5.22342
 L 52.4058,-5.24704 L 52.5942,-5.24704 L 52.7811,-5.22342 L 52.9635,-5.17657 L 53.1387,-5.10724 L 53.3037,-5.01648
 L 53.4561,-4.90576 L 53.5934,-4.77681 L 53.7135,-4.63167 L 53.8145,-4.47263 L 53.8947,-4.30219 L 53.9529,-4.12303
 L 53.9882,-3.93799 L 54,-3.75 L 53.9882,-3.562 L 53.9529,-3.37695 L 53.8947,-3.1978 L 53.8145,-3.02736
 L 53.7135,-2.86832 L 53.5934,-2.72318 L 53.4561,-2.59422 L 53.3037,-2.48351 L 53.1387,-2.39275 L 52.9635,-2.32341
 L 52.7811,-2.27657 L 52.5942,-2.25294 z
M -7.59418,-2.25294 L -7.78107,-2.27657 L -7.96352,-2.32341 L -8.13866,-2.39275 L -8.30373,-2.48351 L -8.45613,-2.59422
 L -8.59344,-2.72318 L -8.71352,-2.86832 L -8.81445,-3.02736 L -8.89465,-3.1978 L -8.95287,-3.37695 L -8.98816,-3.562
 L -9,-3.75 L -8.98816,-3.93799 L -8.95287,-4.12303 L -8.89465,-4.30219 L -8.81445,-4.47263 L -8.71352,-4.63167
 L -8.59344,-4.77681 L -8.45613,-4.90576 L -8.30373,-5.01648 L -8.13866,-5.10724 L -7.96352,-5.17657 L -7.78107,-5.22342
 L -7.59418,-5.24704 L -7.40581,-5.24704 L -7.21892,-5.22342 L -7.03647,-5.17657 L -6.86133,-5.10724 L -6.69626,-5.01648
 L -6.54385,-4.90576 L -6.40654,-4.77681 L -6.28647,-4.63167 L -6.18553,-4.47263 L -6.10533,-4.30219 L -6.04712,-4.12303
 L -6.01183,-3.93799 L -6,-3.75 L -6.01183,-3.562 L -6.04712,-3.37695 L -6.10533,-3.1978 L -6.18553,-3.02736
 L -6.28647,-2.86832 L -6.40654,-2.72318 L -6.54385,-2.59422 L -6.69626,-2.48351 L -6.86133,-2.39275 L -7.03647,-2.32341
 L -7.21892,-2.27657 L -7.40581,-2.25294 z
M 22.4058,-2.25294 L 22.2189,-2.27657 L 22.0365,-2.32341 L 21.8613,-2.39275 L 21.6963,-2.48351 L 21.5439,-2.59422
 L 21.4065,-2.72318 L 21.2865,-2.86832 L 21.1855,-3.02736 L 21.1053,-3.1978 L 21.0471,-3.37695 L 21.0118,-3.562
 L 21,-3.75 L 21.0118,-3.93799 L 21.0471,-4.12303 L 21.1053,-4.30219 L 21.1855,-4.47263 L 21.2865,-4.63167
 L 21.4065,-4.77681 L 21.5439,-4.90576 L 21.6963,-5.01648 L 21.8613,-5.10724 L 22.0365,-5.17657 L 22.2189,-5.22342
 L 22.4058,-5.24704 L 22.5942,-5.24704 L 22.7811,-5.22342 L 22.9635,-5.17657 L 23.1387,-5.10724 L 23.3037,-5.01648
 L 23.4561,-4.90576 L 23.5934,-4.77681 L 23.7135,-4.63167 L 23.8145,-4.47263 L 23.8947,-4.30219 L 23.9529,-4.12303
 L 23.9882,-3.93799 L 24,-3.75 L 23.9882,-3.562 L 23.9529,-3.37695 L 23.8947,-3.1978 L 23.8145,-3.02736
 L 23.7135,-2.86832 L 23.5934,-2.72318 L 23.4561,-2.59422 L 23.3037,-2.48351 L 23.1387,-2.39275 L 22.9635,-2.32341
 L 22.7811,-2.27657 L 22.5942,-2.25294 z
M -30.0942,-2.25294 L -30.2811,-2.27657 L -30.4635,-2.32341 L -30.6387,-2.39275 L -30.8037,-2.48351 L -30.9561,-2.59422
 L -31.0934,-2.72318 L -31.2135,-2.86832 L -31.3145,-3.02736 L -31.3947,-3.1978 L -31.4529,-3.37695 L -31.4882,-3.562
 L -31.5,-3.75 L -31.4882,-3.93799 L -31.4529,-4.12303 L -31.3947,-4.30219 L -31.3145,-4.47263 L -31.2135,-4.63167
 L -31.0934,-4.77681 L -30.9561,-4.90576 L -30.8037,-5.01648 L -30.6387,-5.10724 L -30.4635,-5.17657 L -30.2811,-5.22342
 L -30.0942,-5.24704 L -29.9058,-5.24704 L -29.7189,-5.22342 L -29.5365,-5.17657 L -29.3613,-5.10724 L -29.1963,-5.01648
 L -29.0439,-4.90576 L -28.9065,-4.77681 L -28.7865,-4.63167 L -28.6855,-4.47263 L -28.6053,-4.30219 L -28.5471,-4.12303
 L -28.5118,-3.93799 L -28.5,-3.75 L -28.5118,-3.562 L -28.5471,-3.37695 L -28.6053,-3.1978 L -28.6855,-3.02736
 L -28.7865,-2.86832 L -28.9065,-2.72318 L -29.0439,-2.59422 L -29.1963,-2.48351 L -29.3613,-2.39275 L -29.5365,-2.32341
 L -29.7189,-2.27657 L -29.9058,-2.25294 z
M -37.5942,-2.25294 L -37.7811,-2.27657 L -37.9635,-2.32341 L -38.1387,-2.39275 L -38.3037,-2.48351 L -38.4561,-2.59422
 L -38.5934,-2.72318 L -38.7135,-2.86832 L -38.8145,-3.02736 L -38.8947,-3.1978 L -38.9529,-3.37695 L -38.9882,-3.562
 L -39,-3.75 L -38.9882,-3.93799 L -38.9529,-4.12303 L -38.8947,-4.30219 L -38.8145,-4.47263 L -38.7135,-4.63167
 L -38.5934,-4.77681 L -38.4561,-4.90576 L -38.3037,-5.01648 L -38.1387,-5.10724 L -37.9635,-5.17657 L -37.7811,-5.22342
 L -37.5942,-5.24704 L -37.4058,-5.24704 L -37.2189,-5.22342 L -37.0365,-5.17657 L -36.8613,-5.10724 L -36.6963,-5.01648
 L -36.5439,-4.90576 L -36.4065,-4.77681 L -36.2865,-4.63167 L -36.1855,-4.47263 L -36.1053,-4.30219 L -36.0471,-4.12303
 L -36.0118,-3.93799 L -36,-3.75 L -36.0118,-3.562 L -36.0471,-3.37695 L -36.1053,-3.1978 L -36.1855,-3.02736
 L -36.2865,-2.86832 L -36.4065,-2.72318 L -36.5439,-2.59422 L -36.6963,-2.48351 L -36.8613,-2.39275 L -37.0365,-2.32341
 L -37.2189,-2.27657 L -37.4058,-2.25294 z
M 37.4058,-2.25294 L 37.2189,-2.27657 L 37.0365,-2.32341 L 36.8613,-2.39275 L 36.6963,-2.48351 L 36.5439,-2.59422
 L 36.4065,-2.72318 L 36.2865,-2.86832 L 36.1855,-3.02736 L 36.1053,-3.1978 L 36.0471,-3.37695 L 36.0118,-3.562
 L 36,-3.75 L 36.0118,-3.93799 L 36.0471,-4.12303 L 36.1053,-4.30219 L 36.1855,-4.47263 L 36.2865,-4.63167
 L 36.4065,-4.77681 L 36.5439,-4.90576 L 36.6963,-5.01648 L 36.8613,-5.10724 L 37.0365,-5.17657 L 37.2189,-5.22342
 L 37.4058,-5.24704 L 37.5942,-5.24704 L 37.7811,-5.22342 L 37.9635,-5.17657 L 38.1387,-5.10724 L 38.3037,-5.01648
 L 38.4561,-4.90576 L 38.5934,-4.77681 L 38.7135,-4.63167 L 38.8145,-4.47263 L 38.8947,-4.30219 L 38.9529,-4.12303
 L 38.9882,-3.93799 L 39,-3.75 L 38.9882,-3.562 L 38.9529,-3.37695 L 38.8947,-3.1978 L 38.8145,-3.02736
 L 38.7135,-2.86832 L 38.5934,-2.72318 L 38.4561,-2.59422 L 38.3037,-2.48351 L 38.1387,-2.39275 L 37.9635,-2.32341
 L 37.7811,-2.27657 L 37.5942,-2.25294 z
M -15.0942,-2.25294 L -15.2811,-2.27657 L -15.4635,-2.32341 L -15.6387,-2.39275 L -15.8037,-2.48351 L -15.9561,-2.59422
 L -16.0934,-2.72318 L -16.2135,-2.86832 L -16.3145,-3.02736 L -16.3947,-3.1978 L -16.4529,-3.37695 L -16.4882,-3.562
 L -16.5,-3.75 L -16.4882,-3.93799 L -16.4529,-4.12303 L -16.3947,-4.30219 L -16.3145,-4.47263 L -16.2135,-4.63167
 L -16.0934,-4.77681 L -15.9561,-4.90576 L -15.8037,-5.01648 L -15.6387,-5.10724 L -15.4635,-5.17657 L -15.2811,-5.22342
 L -15.0942,-5.24704 L -14.9058,-5.24704 L -14.7189,-5.22342 L -14.5365,-5.17657 L -14.3613,-5.10724 L -14.1963,-5.01648
 L -14.0439,-4.90576 L -13.9065,-4.77681 L -13.7865,-4.63167 L -13.6855,-4.47263 L -13.6053,-4.30219 L -13.5471,-4.12303
 L -13.5118,-3.93799 L -13.5,-3.75 L -13.5118,-3.562 L -13.5471,-3.37695 L -13.6053,-3.1978 L -13.6855,-3.02736
 L -13.7865,-2.86832 L -13.9065,-2.72318 L -14.0439,-2.59422 L -14.1963,-2.48351 L -14.3613,-2.39275 L -14.5365,-2.32341
 L -14.7189,-2.27657 L -14.9058,-2.25294 z
M 7.40581,-2.25294 L 7.21892,-2.27657 L 7.03647,-2.32341 L 6.86133,-2.39275 L 6.69626,-2.48351 L 6.54385,-2.59422
 L 6.40654,-2.72318 L 6.28647,-2.86832 L 6.18553,-3.02736 L 6.10533,-3.1978 L 6.04712,-3.37695 L 6.01183,-3.562
 L 6,-3.75 L 6.01183,-3.93799 L 6.04712,-4.12303 L 6.10533,-4.30219 L 6.18553,-4.47263 L 6.28647,-4.63167
 L 6.40654,-4.77681 L 6.54385,-4.90576 L 6.69626,-5.01648 L 6.86133,-5.10724 L 7.03647,-5.17657 L 7.21892,-5.22342
 L 7.40581,-5.24704 L 7.59418,-5.24704 L 7.78107,-5.22342 L 7.96352,-5.17657 L 8.13866,-5.10724 L 8.30373,-5.01648
 L 8.45613,-4.90576 L 8.59344,-4.77681 L 8.71352,-4.63167 L 8.81445,-4.47263 L 8.89465,-4.30219 L 8.95287,-4.12303
 L 8.98816,-3.93799 L 9,-3.75 L 8.98816,-3.562 L 8.95287,-3.37695 L 8.89465,-3.1978 L 8.81445,-3.02736
 L 8.71352,-2.86832 L 8.59344,-2.72318 L 8.45613,-2.59422 L 8.30373,-2.48351 L 8.13866,-2.39275 L 7.96352,-2.32341
 L 7.78107,-2.27657 L 7.59418,-2.25294 z
M -52.5942,-2.25294 L -52.7811,-2.27657 L -52.9635,-2.32341 L -53.1387,-2.39275 L -53.3037,-2.48351 L -53.4561,-2.59422
 L -53.5934,-2.72318 L -53.7135,-2.86832 L -53.8145,-3.02736 L -53.8947,-3.1978 L -53.9529,-3.37695 L -53.9882,-3.562
 L -54,-3.75 L -53.9882,-3.93799 L -53.9529,-4.12303 L -53.8947,-4.30219 L -53.8145,-4.47263 L -53.7135,-4.63167
 L -53.5934,-4.77681 L -53.4561,-4.90576 L -53.3037,-5.01648 L -53.1387,-5.10724 L -52.9635,-5.17657 L -52.7811,-5.22342
 L -52.5942,-5.24704 L -52.4058,-5.24704 L -52.2189,-5.22342 L -52.0365,-5.17657 L -51.8613,-5.10724 L -51.6963,-5.01648
 L -51.5439,-4.90576 L -51.4065,-4.77681 L -51.2865,-4.63167 L -51.1855,-4.47263 L -51.1053,-4.30219 L -51.0471,-4.12303
 L -51.0118,-3.93799 L -51,-3.75 L -51.0118,-3.562 L -51.0471,-3.37695 L -51.1053,-3.1978 L -51.1855,-3.02736
 L -51.2865,-2.86832 L -51.4065,-2.72318 L -51.5439,-2.59422 L -51.6963,-2.48351 L -51.8613,-2.39275 L -52.0365,-2.32341
 L -52.2189,-2.27657 L -52.4058,-2.25294 z
M -22.5942,-2.25294 L -22.7811,-2.27657 L -22.9635,-2.32341 L -23.1387,-2.39275 L -23.3037,-2.48351 L -23.4561,-2.59422
 L -23.5934,-2.72318 L -23.7135,-2.86832 L -23.8145,-3.02736 L -23.8947,-3.1978 L -23.9529,-3.37695 L -23.9882,-3.562
 L -24,-3.75 L -23.9882,-3.93799 L -23.9529,-4.12303 L -23.8947,-4.30219 L -23.8145,-4.47263 L -23.7135,-4.63167
 L -23.5934,-4.77681 L -23.4561,-4.90576 L -23.3037,-5.01648 L -23.1387,-5.10724 L -22.9635,-5.17657 L -22.7811,-5.22342
 L -22.5942,-5.24704 L -22.4058,-5.24704 L -22.2189,-5.22342 L -22.0365,-5.17657 L -21.8613,-5.10724 L -21.6963,-5.01648
 L -21.5439,-4.90576 L -21.4065,-4.77681 L -21.2865,-4.63167 L -21.1855,-4.47263 L -21.1053,-4.30219 L -21.0471,-4.12303
 L -21.0118,-3.93799 L -21,-3.75 L -21.0118,-3.562 L -21.0471,-3.37695 L -21.1053,-3.1978 L -21.1855,-3.02736
 L -21.2865,-2.86832 L -21.4065,-2.72318 L -21.5439,-2.59422 L -21.6963,-2.48351 L -21.8613,-2.39275 L -22.0365,-2.32341
 L -22.2189,-2.27657 L -22.4058,-2.25294 z
M 44.9058,-2.25294 L 44.7189,-2.27657 L 44.5365,-2.32341 L 44.3613,-2.39275 L 44.1963,-2.48351 L 44.0439,-2.59422
 L 43.9065,-2.72318 L 43.7865,-2.86832 L 43.6855,-3.02736 L 43.6053,-3.1978 L 43.5471,-3.37695 L 43.5118,-3.562
 L 43.5,-3.75 L 43.5118,-3.93799 L 43.5471,-4.12303 L 43.6053,-4.30219 L 43.6855,-4.47263 L 43.7865,-4.63167
 L 43.9065,-4.77681 L 44.0439,-4.90576 L 44.1963,-5.01648 L 44.3613,-5.10724 L 44.5365,-5.17657 L 44.7189,-5.22342
 L 44.9058,-5.24704 L 45.0942,-5.24704 L 45.2811,-5.22342 L 45.4635,-5.17657 L 45.6387,-5.10724 L 45.8037,-5.01648
 L 45.9561,-4.90576 L 46.0934,-4.77681 L 46.2135,-4.63167 L 46.3145,-4.47263 L 46.3947,-4.30219 L 46.4529,-4.12303
 L 46.4882,-3.93799 L 46.5,-3.75 L 46.4882,-3.562 L 46.4529,-3.37695 L 46.3947,-3.1978 L 46.3145,-3.02736
 L 46.2135,-2.86832 L 46.0934,-2.72318 L 45.9561,-2.59422 L 45.8037,-2.48351 L 45.6387,-2.39275 L 45.4635,-2.32341
 L 45.2811,-2.27657 L 45.0942,-2.25294 z
M 14.9058,-2.25294 L 14.7189,-2.27657 L 14.5365,-2.32341 L 14.3613,-2.39275 L 14.1963,-2.48351 L 14.0439,-2.59422
 L 13.9065,-2.72318 L 13.7865,-2.86832 L 13.6855,-3.02736 L 13.6053,-3.1978 L 13.5471,-3.37695 L 13.5118,-3.562
 L 13.5,-3.75 L 13.5118,-3.93799 L 13.5471,-4.12303 L 13.6053,-4.30219 L 13.6855,-4.47263 L 13.7865,-4.63167
 L 13.9065,-4.77681 L 14.0439,-4.90576 L 14.1963,-5.01648 L 14.3613,-5.10724 L 14.5365,-5.17657 L 14.7189,-5.22342
 L 14.9058,-5.24704 L 15.0942,-5.24704 L 15.2811,-5.22342 L 15.4635,-5.17657 L 15.6387,-5.10724 L 15.8037,-5.01648
 L 15.9561,-4.90576 L 16.0934,-4.77681 L 16.2135,-4.63167 L 16.3145,-4.47263 L 16.3947,-4.30219 L 16.4529,-4.12303
 L 16.4882,-3.93799 L 16.5,-3.75 L 16.4882,-3.562 L 16.4529,-3.37695 L 16.3947,-3.1978 L 16.3145,-3.02736
 L 16.2135,-2.86832 L 16.0934,-2.72318 L 15.9561,-2.59422 L 15.8037,-2.48351 L 15.6387,-2.39275 L 15.4635,-2.32341
 L 15.2811,-2.27657 L 15.0942,-2.25294 z
M 44.9058,5.24704 L 44.7189,5.22342 L 44.5365,5.17657 L 44.3613,5.10724 L 44.1963,5.01648 L 44.0439,4.90576
 L 43.9065,4.77681 L 43.7865,4.63167 L 43.6855,4.47263 L 43.6053,4.30219 L 43.5471,4.12303 L 43.5118,3.93799
 L 43.5,3.75 L 43.5118,3.562 L 43.5471,3.37695 L 43.6053,3.1978 L 43.6855,3.02736 L 43.7865,2.86832
 L 43.9065,2.72318 L 44.0439,2.59422 L 44.1963,2.48351 L 44.3613,2.39275 L 44.5365,2.32341 L 44.7189,2.27657
 L 44.9058,2.25294 L 45.0942,2.25294 L 45.2811,2.27657 L 45.4635,2.32341 L 45.6387,2.39275 L 45.8037,2.48351
 L 45.9561,2.59422 L 46.0934,2.72318 L 46.2135,2.86832 L 46.3145,3.02736 L 46.3947,3.1978 L 46.4529,3.37695
 L 46.4882,3.562 L 46.5,3.75 L 46.4882,3.93799 L 46.4529,4.12303 L 46.3947,4.30219 L 46.3145,4.47263
 L 46.2135,4.63167 L 46.0934,4.77681 L 45.9561,4.90576 L 45.8037,5.01648 L 45.6387,5.10724 L 45.4635,5.17657
 L 45.2811,5.22342 L 45.0942,5.24704 z
M -7.59418,5.24704 L -7.78107,5.22342 L -7.96352,5.17657 L -8.13866,5.10724 L -8.30373,5.01648 L -8.45613,4.90576
 L -8.59344,4.77681 L -8.71352,4.63167 L -8.81445,4.47263 L -8.89465,4.30219 L -8.95287,4.12303 L -8.98816,3.93799
 L -9,3.75 L -8.98816,3.562 L -8.95287,3.37695 L -8.89465,3.1978 L -8.81445,3.02736 L -8.71352,2.86832
 L -8.59344,2.72318 L -8.45613,2.59422 L -8.30373,2.48351 L -8.13866,2.39275 L -7.96352,2.32341 L -7.78107,2.27657
 L -7.59418,2.25294 L -7.40581,2.25294 L -7.21892,2.27657 L -7.03647,2.32341 L -6.86133,2.39275 L -6.69626,2.48351
 L -6.54385,2.59422 L -6.40654,2.72318 L -6.28647,2.86832 L -6.18553,3.02736 L -6.10533,3.1978 L -6.04712,3.37695
 L -6.01183,3.562 L -6,3.75 L -6.01183,3.93799 L -6.04712,4.12303 L -6.10533,4.30219 L -6.18553,4.47263
 L -6.28647,4.63167 L -6.40654,4.77681 L -6.54385,4.90576 L -6.69626,5.01648 L -6.86133,5.10724 L -7.03647,5.17657
 L -7.21892,5.22342 L -7.40581,5.24704 z
M 22.4058,5.24704 L 22.2189,5.22342 L 22.0365,5.17657 L 21.8613,5.10724 L 21.6963,5.01648 L 21.5439,4.90576
 L 21.4065,4.77681 L 21.2865,4.63167 L 21.1855,4.47263 L 21.1053,4.30219 L 21.0471,4.12303 L 21.0118,3.93799
 L 21,3.75 L 21.0118,3.562 L 21.0471,3.37695 L 21.1053,3.1978 L 21.1855,3.02736 L 21.2865,2.86832
 L 21.4065,2.72318 L 21.5439,2.59422 L 21.6963,2.48351 L 21.8613,2.39275 L 22.0365,2.32341 L 22.2189,2.27657
 L 22.4058,2.25294 L 22.5942,2.25294 L 22.7811,2.27657 L 22.9635,2.32341 L 23.1387,2.39275 L 23.3037,2.48351
 L 23.4561,2.59422 L 23.5934,2.72318 L 23.7135,2.86832 L 23.8145,3.02736 L 23.8947,3.1978 L 23.9529,3.37695
 L 23.9882,3.562 L 24,3.75 L 23.9882,3.93799 L 23.9529,4.12303 L 23.8947,4.30219 L 23.8145,4.47263
 L 23.7135,4.63167 L 23.5934,4.77681 L 23.4561,4.90576 L 23.3037,5.01648 L 23.1387,5.10724 L 22.9635,5.17657
 L 22.7811,5.22342 L 22.5942,5.24704 z
M -37.5942,5.24704 L -37.7811,5.22342 L -37.9635,5.17657 L -38.1387,5.10724 L -38.3037,5.01648 L -38.4561,4.90576
 L -38.5934,4.77681 L -38.7135,4.63167 L -38.8145,4.47263 L -38.8947,4.30219 L -38.9529,4.12303 L -38.9882,3.93799
 L -39,3.75 L -38.9882,3.562 L -38.9529,3.37695 L -38.8947,3.1978 L -38.8145,3.02736 L -38.7135,2.86832
 L -38.5934,2.72318 L -38.4561,2.59422 L -38.3037,2.48351 L -38.1387,2.39275 L -37.9635,2.32341 L -37.7811,2.27657
 L -37.5942,2.25294 L -37.4058,2.25294 L -37.2189,2.27657 L -37.0365,2.32341 L -36.8613,2.39275 L -36.6963,2.48351
 L -36.5439,2.59422 L -36.4065,2.72318 L -36.2865,2.86832 L -36.1855,3.02736 L -36.1053,3.1978 L -36.0471,3.37695
 L -36.0118,3.562 L -36,3.75 L -36.0118,3.93799 L -36.0471,4.12303 L -36.1053,4.30219 L -36.1855,4.47263
 L -36.2865,4.63167 L -36.4065,4.77681 L -36.5439,4.90576 L -36.6963,5.01648 L -36.8613,5.10724 L -37.0365,5.17657
 L -37.2189,5.22342 L -37.4058,5.24704 z
M -15.0942,5.24704 L -15.2811,5.22342 L -15.4635,5.17657 L -15.6387,5.10724 L -15.8037,5.01648 L -15.9561,4.90576
 L -16.0934,4.77681 L -16.2135,4.63167 L -16.3145,4.47263 L -16.3947,4.30219 L -16.4529,4.12303 L -16.4882,3.93799
 L -16.5,3.75 L -16.4882,3.562 L -16.4529,3.37695 L -16.3947,3.1978 L -16.3145,3.02736 L -16.2135,2.86832
 L -16.0934,2.72318 L -15.9561,2.59422 L -15.8037,2.48351 L -15.6387,2.39275 L -15.4635,2.32341 L -15.2811,2.27657
 L -15.0942,2.25294 L -14.9058,2.25294 L -14.7189,2.27657 L -14.5365,2.32341 L -14.3613,2.39275 L -14.1963,2.48351
 L -14.0439,2.59422 L -13.9065,2.72318 L -13.7865,2.86832 L -13.6855,3.02736 L -13.6053,3.1978 L -13.5471,3.37695
 L -13.5118,3.562 L -13.5,3.75 L -13.5118,3.93799 L -13.5471,4.12303 L -13.6053,4.30219 L -13.6855,4.47263
 L -13.7865,4.63167 L -13.9065,4.77681 L -14.0439,4.90576 L -14.1963,5.01648 L -14.3613,5.10724 L -14.5365,5.17657
 L -14.7189,5.22342 L -14.9058,5.24704 z
M 29.9058,5.24704 L 29.7189,5.22342 L 29.5365,5.17657 L 29.3613,5.10724 L 29.1963,5.01648 L 29.0439,4.90576
 L 28.9065,4.77681 L 28.7865,4.63167 L 28.6855,4.47263 L 28.6053,4.30219 L 28.5471,4.12303 L 28.5118,3.93799
 L 28.5,3.75 L 28.5118,3.562 L 28.5471,3.37695 L 28.6053,3.1978 L 28.6855,3.02736 L 28.7865,2.86832
 L 28.9065,2.72318 L 29.0439,2.59422 L 29.1963,2.48351 L 29.3613,2.39275 L 29.5365,2.32341 L 29.7189,2.27657
 L 29.9058,2.25294 L 30.0942,2.25294 L 30.2811,2.27657 L 30.4635,2.32341 L 30.6387,2.39275 L 30.8037,2.48351
 L 30.9561,2.59422 L 31.0934,2.72318 L 31.2135,2.86832 L 31.3145,3.02736 L 31.3947,3.1978 L 31.4529,3.37695
 L 31.4882,3.562 L 31.5,3.75 L 31.4882,3.93799 L 31.4529,4.12303 L 31.3947,4.30219 L 31.3145,4.47263
 L 31.2135,4.63167 L 31.0934,4.77681 L 30.9561,4.90576 L 30.8037,5.01648 L 30.6387,5.10724 L 30.4635,5.17657
 L 30.2811,5.22342 L 30.0942,5.24704 z
M 7.40581,5.24704 L 7.21892,5.22342 L 7.03647,5.17657 L 6.86133,5.10724 L 6.69626,5.01648 L 6.54385,4.90576
 L 6.40654,4.77681 L 6.28647,4.63167 L 6.18553,4.47263 L 6.10533,4.30219 L 6.04712,4.12303 L 6.01183,3.93799
 L 6,3.75 L 6.01183,3.562 L 6.04712,3.37695 L 6.10533,3.1978 L 6.18553,3.02736 L 6.28647,2.86832
 L 6.40654,2.72318 L 6.54385,2.59422 L 6.69626,2.48351 L 6.86133,2.39275 L 7.03647,2.32341 L 7.21892,2.27657
 L 7.40581,2.25294 L 7.59418,2.25294 L 7.78107,2.27657 L 7.96352,2.32341 L 8.13866,2.39275 L 8.30373,2.48351
 L 8.45613,2.59422 L 8.59344,2.72318 L 8.71352,2.86832 L 8.81445,3.02736 L 8.89465,3.1978 L 8.95287,3.37695
 L 8.98816,3.562 L 9,3.75 L 8.98816,3.93799 L 8.95287,4.12303 L 8.89465,4.30219 L 8.81445,4.47263
 L 8.71352,4.63167 L 8.59344,4.77681 L 8.45613,4.90576 L 8.30373,5.01648 L 8.13866,5.10724 L 7.96352,5.17657
 L 7.78107,5.22342 L 7.59418,5.24704 z
M -52.5942,5.24704 L -52.7811,5.22342 L -52.9635,5.17657 L -53.1387,5.10724 L -53.3037,5.01648 L -53.4561,4.90576
 L -53.5934,4.77681 L -53.7135,4.63167 L -53.8145,4.47263 L -53.8947,4.30219 L -53.9529,4.12303 L -53.9882,3.93799
 L -54,3.75 L -53.9882,3.562 L -53.9529,3.37695 L -53.8947,3.1978 L -53.8145,3.02736 L -53.7135,2.86832
 L -53.5934,2.72318 L -53.4561,2.59422 L -53.3037,2.48351 L -53.1387,2.39275 L -52.9635,2.32341 L -52.7811,2.27657
 L -52.5942,2.25294 L -52.4058,2.25294 L -52.2189,2.27657 L -52.0365,2.32341 L -51.8613,2.39275 L -51.6963,2.48351
 L -51.5439,2.59422 L -51.4065,2.72318 L -51.2865,2.86832 L -51.1855,3.02736 L -51.1053,3.1978 L -51.0471,3.37695
 L -51.0118,3.562 L -51,3.75 L -51.0118,3.93799 L -51.0471,4.12303 L -51.1053,4.30219 L -51.1855,4.47263
 L -51.2865,4.63167 L -51.4065,4.77681 L -51.5439,4.90576 L -51.6963,5.01648 L -51.8613,5.10724 L -52.0365,5.17657
 L -52.2189,5.22342 L -52.4058,5.24704 z
M -30.0942,5.24704 L -30.2811,5.22342 L -30.4635,5.17657 L -30.6387,5.10724 L -30.8037,5.01648 L -30.9561,4.90576
 L -31.0934,4.77681 L -31.2135,4.63167 L -31.3145,4.47263 L -31.3947,4.30219 L -31.4529,4.12303 L -31.4882,3.93799
 L -31.5,3.75 L -31.4882,3.562 L -31.4529,3.37695 L -31.3947,3.1978 L -31.3145,3.02736 L -31.2135,2.86832
 L -31.0934,2.72318 L -30.9561,2.59422 L -30.8037,2.48351 L -30.6387,2.39275 L -30.4635,2.32341 L -30.2811,2.27657
 L -30.0942,2.25294 L -29.9058,2.25294 L -29.7189,2.27657 L -29.5365,2.32341 L -29.3613,2.39275 L -29.1963,2.48351
 L -29.0439,2.59422 L -28.9065,2.72318 L -28.7865,2.86832 L -28.6855,3.02736 L -28.6053,3.1978 L -28.5471,3.37695
 L -28.5118,3.562 L -28.5,3.75 L -28.5118,3.93799 L -28.5471,4.12303 L -28.6053,4.30219 L -28.6855,4.47263
 L -28.7865,4.63167 L -28.9065,4.77681 L -29.0439,4.90576 L -29.1963,5.01648 L -29.3613,5.10724 L -29.5365,5.17657
 L -29.7189,5.22342 L -29.9058,5.24704 z
M -45.0942,5.24704 L -45.2811,5.22342 L -45.4635,5.17657 L -45.6387,5.10724 L -45.8037,5.01648 L -45.9561,4.90576
 L -46.0934,4.77681 L -46.2135,4.63167 L -46.3145,4.47263 L -46.3947,4.30219 L -46.4529,4.12303 L -46.4882,3.93799
 L -46.5,3.75 L -46.4882,3.562 L -46.4529,3.37695 L -46.3947,3.1978 L -46.3145,3.02736 L -46.2135,2.86832
 L -46.0934,2.72318 L -45.9561,2.59422 L -45.8037,2.48351 L -45.6387,2.39275 L -45.4635,2.32341 L -45.2811,2.27657
 L -45.0942,2.25294 L -44.9058,2.25294 L -44.7189,2.27657 L -44.5365,2.32341 L -44.3613,2.39275 L -44.1963,2.48351
 L -44.0439,2.59422 L -43.9065,2.72318 L -43.7865,2.86832 L -43.6855,3.02736 L -43.6053,3.1978 L -43.5471,3.37695
 L -43.5118,3.562 L -43.5,3.75 L -43.5118,3.93799 L -43.5471,4.12303 L -43.6053,4.30219 L -43.6855,4.47263
 L -43.7865,4.63167 L -43.9065,4.77681 L -44.0439,4.90576 L -44.1963,5.01648 L -44.3613,5.10724 L -44.5365,5.17657
 L -44.7189,5.22342 L -44.9058,5.24704 z
M 52.4058,5.24704 L 52.2189,5.22342 L 52.0365,5.17657 L 51.8613,5.10724 L 51.6963,5.01648 L 51.5439,4.90576
 L 51.4065,4.77681 L 51.2865,4.63167 L 51.1855,4.47263 L 51.1053,4.30219 L 51.0471,4.12303 L 51.0118,3.93799
 L 51,3.75 L 51.0118,3.562 L 51.0471,3.37695 L 51.1053,3.1978 L 51.1855,3.02736 L 51.2865,2.86832
 L 51.4065,2.72318 L 51.5439,2.59422 L 51.6963,2.48351 L 51.8613,2.39275 L 52.0365,2.32341 L 52.2189,2.27657
 L 52.4058,2.25294 L 52.5942,2.25294 L 52.7811,2.27657 L 52.9635,2.32341 L 53.1387,2.39275 L 53.3037,2.48351
 L 53.4561,2.59422 L 53.5934,2.72318 L 53.7135,2.86832 L 53.8145,3.02736 L 53.8947,3.1978 L 53.9529,3.37695
 L 53.9882,3.562 L 54,3.75 L 53.9882,3.93799 L 53.9529,4.12303 L 53.8947,4.30219 L 53.8145,4.47263
 L 53.7135,4.63167 L 53.5934,4.77681 L 53.4561,4.90576 L 53.3037,5.01648 L 53.1387,5.10724 L 52.9635,5.17657
 L 52.7811,5.22342 L 52.5942,5.24704 z
M 37.4058,5.24704 L 37.2189,5.22342 L 37.0365,5.17657 L 36.8613,5.10724 L 36.6963,5.01648 L 36.5439,4.90576
 L 36.4065,4.77681 L 36.2865,4.63167 L 36.1855,4.47263 L 36.1053,4.30219 L 36.0471,4.12303 L 36.0118,3.93799
 L 36,3.75 L 36.0118,3.562 L 36.0471,3.37695 L 36.1053,3.1978 L 36.1855,3.02736 L 36.2865,2.86832
 L 36.4065,2.72318 L 36.5439,2.59422 L 36.6963,2.48351 L 36.8613,2.39275 L 37.0365,2.32341 L 37.2189,2.27657
 L 37.4058,2.25294 L 37.5942,2.25294 L 37.7811,2.27657 L 37.9635,2.32341 L 38.1387,2.39275 L 38.3037,2.48351
 L 38.4561,2.59422 L 38.5934,2.72318 L 38.7135,2.86832 L 38.8145,3.02736 L 38.8947,3.1978 L 38.9529,3.37695
 L 38.9882,3.562 L 39,3.75 L 38.9882,3.93799 L 38.9529,4.12303 L 38.8947,4.30219 L 38.8145,4.47263
 L 38.7135,4.63167 L 38.5934,4.77681 L 38.4561,4.90576 L 38.3037,5.01648 L 38.1387,5.10724 L 37.9635,5.17657
 L 37.7811,5.22342 L 37.5942,5.24704 z
M -22.5942,5.24704 L -22.7811,5.22342 L -22.9635,5.17657 L -23.1387,5.10724 L -23.3037,5.01648 L -23.4561,4.90576
 L -23.5934,4.77681 L -23.7135,4.63167 L -23.8145,4.47263 L -23.8947,4.30219 L -23.9529,4.12303 L -23.9882,3.93799
 L -24,3.75 L -23.9882,3.562 L -23.9529,3.37695 L -23.8947,3.1978 L -23.8145,3.02736 L -23.7135,2.86832
 L -23.5934,2.72318 L -23.4561,2.59422 L -23.3037,2.48351 L -23.1387,2.39275 L -22.9635,2.32341 L -22.7811,2.27657
 L -22.5942,2.25294 L -22.4058,2.25294 L -22.2189,2.27657 L -22.0365,2.32341 L -21.8613,2.39275 L -21.6963,2.48351
 L -21.5439,2.59422 L -21.4065,2.72318 L -21.2865,2.86832 L -21.1855,3.02736 L -21.1053,3.1978 L -21.0471,3.37695
 L -21.0118,3.562 L -21,3.75 L -21.0118,3.93799 L -21.0471,4.12303 L -21.1053,4.30219 L -21.1855,4.47263
 L -21.2865,4.63167 L -21.4065,4.77681 L -21.5439,4.90576 L -21.6963,5.01648 L -21.8613,5.10724 L -22.0365,5.17657
 L -22.2189,5.22342 L -22.4058,5.24704 z
M -0.0941772,5.24704 L -0.281067,5.22342 L -0.463516,5.17657 L -0.638657,5.10724 L -0.803726,5.01648 L -0.956131,4.90576
 L -1.09344,4.77681 L -1.21352,4.63167 L -1.31445,4.47263 L -1.39465,4.30219 L -1.45287,4.12303 L -1.48816,3.93799
 L -1.5,3.75 L -1.48816,3.562 L -1.45287,3.37695 L -1.39465,3.1978 L -1.31445,3.02736 L -1.21352,2.86832
 L -1.09344,2.72318 L -0.956131,2.59422 L -0.803726,2.48351 L -0.638657,2.39275 L -0.463516,2.32341 L -0.281067,2.27657
 L -0.0941772,2.25294 L 0.0941772,2.25294 L 0.281067,2.27657 L 0.463516,2.32341 L 0.638657,2.39275 L 0.803726,2.48351
 L 0.956131,2.59422 L 1.09344,2.72318 L 1.21352,2.86832 L 1.31445,3.02736 L 1.39465,3.1978 L 1.45287,3.37695
 L 1.48816,3.562 L 1.5,3.75 L 1.48816,3.93799 L 1.45287,4.12303 L 1.39465,4.30219 L 1.31445,4.47263
 L 1.21352,4.63167 L 1.09344,4.77681 L 0.956131,4.90576 L 0.803726,5.01648 L 0.638657,5.10724 L 0.463516,5.17657
 L 0.281067,5.22342 L 0.0941772,5.24704 z
M 14.9058,5.24704 L 14.7189,5.22342 L 14.5365,5.17657 L 14.3613,5.10724 L 14.1963,5.01648 L 14.0439,4.90576
 L 13.9065,4.77681 L 13.7865,4.63167 L 13.6855,4.47263 L 13.6053,4.30219 L 13.5471,4.12303 L 13.5118,3.93799
 L 13.5,3.75 L 13.5118,3.562 L 13.5471,3.37695 L 13.6053,3.1978 L 13.6855,3.02736 L 13.7865,2.86832
 L 13.9065,2.72318 L 14.0439,2.59422 L 14.1963,2.48351 L 14.3613,2.39275 L 14.5365,2.32341 L 14.7189,2.27657
 L 14.9058,2.25294 L 15.0942,2.25294 L 15.2811,2.27657 L 15.4635,2.32341 L 15.6387,2.39275 L 15.8037,2.48351
 L 15.9561,2.59422 L 16.0934,2.72318 L 16.2135,2.86832 L 16.3145,3.02736 L 16.3947,3.1978 L 16.4529,3.37695
 L 16.4882,3.562 L 16.5,3.75 L 16.4882,3.93799 L 16.4529,4.12303 L 16.3947,4.30219 L 16.3145,4.47263
 L 16.2135,4.63167 L 16.0934,4.77681 L 15.9561,4.90576 L 15.8037,5.01648 L 15.6387,5.10724 L 15.4635,5.17657
 L 15.2811,5.22342 L 15.0942,5.24704 z
M 22.4058,12.747 L 22.2189,12.7234 L 22.0365,12.6766 L 21.8613,12.6072 L 21.6963,12.5165 L 21.5439,12.4058
 L 21.4065,12.2768 L 21.2865,12.1317 L 21.1855,11.9726 L 21.1053,11.8022 L 21.0471,11.623 L 21.0118,11.438
 L 21,11.25 L 21.0118,11.062 L 21.0471,10.877 L 21.1053,10.6978 L 21.1855,10.5274 L 21.2865,10.3683
 L 21.4065,10.2232 L 21.5439,10.0942 L 21.6963,9.98351 L 21.8613,9.89275 L 22.0365,9.82341 L 22.2189,9.77657
 L 22.4058,9.75294 L 22.5942,9.75294 L 22.7811,9.77657 L 22.9635,9.82341 L 23.1387,9.89275 L 23.3037,9.98351
 L 23.4561,10.0942 L 23.5934,10.2232 L 23.7135,10.3683 L 23.8145,10.5274 L 23.8947,10.6978 L 23.9529,10.877
 L 23.9882,11.062 L 24,11.25 L 23.9882,11.438 L 23.9529,11.623 L 23.8947,11.8022 L 23.8145,11.9726
 L 23.7135,12.1317 L 23.5934,12.2768 L 23.4561,12.4058 L 23.3037,12.5165 L 23.1387,12.6072 L 22.9635,12.6766
 L 22.7811,12.7234 L 22.5942,12.747 z
M -15.0942,12.747 L -15.2811,12.7234 L -15.4635,12.6766 L -15.6387,12.6072 L -15.8037,12.5165 L -15.9561,12.4058
 L -16.0934,12.2768 L -16.2135,12.1317 L -16.3145,11.9726 L -16.3947,11.8022 L -16.4529,11.623 L -16.4882,11.438
 L -16.5,11.25 L -16.4882,11.062 L -16.4529,10.877 L -16.3947,10.6978 L -16.3145,10.5274 L -16.2135,10.3683
 L -16.0934,10.2232 L -15.9561,10.0942 L -15.8037,9.98351 L -15.6387,9.89275 L -15.4635,9.82341 L -15.2811,9.77657
 L -15.0942,9.75294 L -14.9058,9.75294 L -14.7189,9.77657 L -14.5365,9.82341 L -14.3613,9.89275 L -14.1963,9.98351
 L -14.0439,10.0942 L -13.9065,10.2232 L -13.7865,10.3683 L -13.6855,10.5274 L -13.6053,10.6978 L -13.5471,10.877
 L -13.5118,11.062 L -13.5,11.25 L -13.5118,11.438 L -13.5471,11.623 L -13.6053,11.8022 L -13.6855,11.9726
 L -13.7865,12.1317 L -13.9065,12.2768 L -14.0439,12.4058 L -14.1963,12.5165 L -14.3613,12.6072 L -14.5365,12.6766
 L -14.7189,12.7234 L -14.9058,12.747 z
M -7.59418,12.747 L -7.78107,12.7234 L -7.96352,12.6766 L -8.13866,12.6072 L -8.30373,12.5165 L -8.45613,12.4058
 L -8.59344,12.2768 L -8.71352,12.1317 L -8.81445,11.9726 L -8.89465,11.8022 L -8.95287,11.623 L -8.98816,11.438
 L -9,11.25 L -8.98816,11.062 L -8.95287,10.877 L -8.89465,10.6978 L -8.81445,10.5274 L -8.71352,10.3683
 L -8.59344,10.2232 L -8.45613,10.0942 L -8.30373,9.98351 L -8.13866,9.89275 L -7.96352,9.82341 L -7.78107,9.77657
 L -7.59418,9.75294 L -7.40581,9.75294 L -7.21892,9.77657 L -7.03647,9.82341 L -6.86133,9.89275 L -6.69626,9.98351
 L -6.54385,10.0942 L -6.40654,10.2232 L -6.28647,10.3683 L -6.18553,10.5274 L -6.10533,10.6978 L -6.04712,10.877
 L -6.01183,11.062 L -6,11.25 L -6.01183,11.438 L -6.04712,11.623 L -6.10533,11.8022 L -6.18553,11.9726
 L -6.28647,12.1317 L -6.40654,12.2768 L -6.54385,12.4058 L -6.69626,12.5165 L -6.86133,12.6072 L -7.03647,12.6766
 L -7.21892,12.7234 L -7.40581,12.747 z
M -52.5942,12.747 L -52.7811,12.7234 L -52.9635,12.6766 L -53.1387,12.6072 L -53.3037,12.5165 L -53.4561,12.4058
 L -53.5934,12.2768 L -53.7135,12.1317 L -53.8145,11.9726 L -53.8947,11.8022 L -53.9529,11.623 L -53.9882,11.438
 L -54,11.25 L -53.9882,11.062 L -53.9529,10.877 L -53.8947,10.6978 L -53.8145,10.5274 L -53.7135,10.3683
 L -53.5934,10.2232 L -53.4561,10.0942 L -53.3037,9.98351 L -53.1387,9.89275 L -52.9635,9.82341 L -52.7811,9.77657
 L -52.5942,9.75294 L -52.4058,9.75294 L -52.2189,9.77657 L -52.0365,9.82341 L -51.8613,9.89275 L -51.6963,9.98351
 L -51.5439,10.0942 L -51.4065,10.2232 L -51.2865,10.3683 L -51.1855,10.5274 L -51.1053,10.6978 L -51.0471,10.877
 L -51.0118,11.062 L -51,11.25 L -51.0118,11.438 L -51.0471,11.623 L -51.1053,11.8022 L -51.1855,11.9726
 L -51.2865,12.1317 L -51.4065,12.2768 L -51.5439,12.4058 L -51.6963,12.5165 L -51.8613,12.6072 L -52.0365,12.6766
 L -52.2189,12.7234 L -52.4058,12.747 z
M -45.0942,12.747 L -45.2811,12.7234 L -45.4635,12.6766 L -45.6387,12.6072 L -45.8037,12.5165 L -45.9561,12.4058
 L -46.0934,12.2768 L -46.2135,12.1317 L -46.3145,11.9726 L -46.3947,11.8022 L -46.4529,11.623 L -46.4882,11.438
 L -46.5,11.25 L -46.4882,11.062 L -46.4529,10.877 L -46.3947,10.6978 L -46.3145,10.5274 L -46.2135,10.3683
 L -46.0934,10.2232 L -45.9561,10.0942 L -45.8037,9.98351 L -45.6387,9.89275 L -45.4635,9.82341 L -45.2811,9.77657
 L -45.0942,9.75294 L -44.9058,9.75294 L -44.7189,9.77657 L -44.5365,9.82341 L -44.3613,9.89275 L -44.1963,9.98351
 L -44.0439,10.0942 L -43.9065,10.2232 L -43.7865,10.3683 L -43.6855,10.5274 L -43.6053,10.6978 L -43.5471,10.877
 L -43.5118,11.062 L -43.5,11.25 L -43.5118,11.438 L -43.5471,11.623 L -43.6053,11.8022 L -43.6855,11.9726
 L -43.7865,12.1317 L -43.9065,12.2768 L -44.0439,12.4058 L -44.1963,12.5165 L -44.3613,12.6072 L -44.5365,12.6766
 L -44.7189,12.7234 L -44.9058,12.747 z
M -22.5942,12.747 L -22.7811,12.7234 L -22.9635,12.6766 L -23.1387,12.6072 L -23.3037,12.5165 L -23.4561,12.4058
 L -23.5934,12.2768 L -23.7135,12.1317 L -23.8145,11.9726 L -23.8947,11.8022 L -23.9529,11.623 L -23.9882,11.438
 L -24,11.25 L -23.9882,11.062 L -23.9529,10.877 L -23.8947,10.6978 L -23.8145,10.5274 L -23.7135,10.3683
 L -23.5934,10.2232 L -23.4561,10.0942 L -23.3037,9.98351 L -23.1387,9.89275 L -22.9635,9.82341 L -22.7811,9.77657
 L -22.5942,9.75294 L -22.4058,9.75294 L -22.2189,9.77657 L -22.0365,9.82341 L -21.8613,9.89275 L -21.6963,9.98351
 L -21.5439,10.0942 L -21.4065,10.2232 L -21.2865,10.3683 L -21.1855,10.5274 L -21.1053,10.6978 L -21.0471,10.877
 L -21.0118,11.062 L -21,11.25 L -21.0118,11.438 L -21.0471,11.623 L -21.1053,11.8022 L -21.1855,11.9726
 L -21.2865,12.1317 L -21.4065,12.2768 L -21.5439,12.4058 L -21.6963,12.5165 L -21.8613,12.6072 L -22.0365,12.6766
 L -22.2189,12.7234 L -22.4058,12.747 z
M 7.40581,12.747 L 7.21892,12.7234 L 7.03647,12.6766 L 6.86133,12.6072 L 6.69626,12.5165 L 6.54385,12.4058
 L 6.40654,12.2768 L 6.28647,12.1317 L 6.18553,11.9726 L 6.10533,11.8022 L 6.04712,11.623 L 6.01183,11.438
 L 6,11.25 L 6.01183,11.062 L 6.04712,10.877 L 6.10533,10.6978 L 6.18553,10.5274 L 6.28647,10.3683
 L 6.40654,10.2232 L 6.54385,10.0942 L 6.69626,9.98351 L 6.86133,9.89275 L 7.03647,9.82341 L 7.21892,9.77657
 L 7.40581,9.75294 L 7.59418,9.75294 L 7.78107,9.77657 L 7.96352,9.82341 L 8.13866,9.89275 L 8.30373,9.98351
 L 8.45613,10.0942 L 8.59344,10.2232 L 8.71352,10.3683 L 8.81445,10.5274 L 8.89465,10.6978 L 8.95287,10.877
 L 8.98816,11.062 L 9,11.25 L 8.98816,11.438 L 8.95287,11.623 L 8.89465,11.8022 L 8.81445,11.9726
 L 8.71352,12.1317 L 8.59344,12.2768 L 8.45613,12.4058 L 8.30373,12.5165 L 8.13866,12.6072 L 7.96352,12.6766
 L 7.78107,12.7234 L 7.59418,12.747 z
M -37.5942,12.747 L -37.7811,12.7234 L -37.9635,12.6766 L -38.1387,12.6072 L -38.3037,12.5165 L -38.4561,12.4058
 L -38.5934,12.2768 L -38.7135,12.1317 L -38.8145,11.9726 L -38.8947,11.8022 L -38.9529,11.623 L -38.9882,11.438
 L -39,11.25 L -38.9882,11.062 L -38.9529,10.877 L -38.8947,10.6978 L -38.8145,10.5274 L -38.7135,10.3683
 L -38.5934,10.2232 L -38.4561,10.0942 L -38.3037,9.98351 L -38.1387,9.89275 L -37.9635,9.82341 L -37.7811,9.77657
 L -37.5942,9.75294 L -37.4058,9.75294 L -37.2189,9.77657 L -37.0365,9.82341 L -36.8613,9.89275 L -36.6963,9.98351
 L -36.5439,10.0942 L -36.4065,10.2232 L -36.2865,10.3683 L -36.1855,10.5274 L -36.1053,10.6978 L -36.0471,10.877
 L -36.0118,11.062 L -36,11.25 L -36.0118,11.438 L -36.0471,11.623 L -36.1053,11.8022 L -36.1855,11.9726
 L -36.2865,12.1317 L -36.4065,12.2768 L -36.5439,12.4058 L -36.6963,12.5165 L -36.8613,12.6072 L -37.0365,12.6766
 L -37.2189,12.7234 L -37.4058,12.747 z
M -30.0942,12.747 L -30.2811,12.7234 L -30.4635,12.6766 L -30.6387,12.6072 L -30.8037,12.5165 L -30.9561,12.4058
 L -31.0934,12.2768 L -31.2135,12.1317 L -31.3145,11.9726 L -31.3947,11.8022 L -31.4529,11.623 L -31.4882,11.438
 L -31.5,11.25 L -31.4882,11.062 L -31.4529,10.877 L -31.3947,10.6978 L -31.3145,10.5274 L -31.2135,10.3683
 L -31.0934,10.2232 L -30.9561,10.0942 L -30.8037,9.98351 L -30.6387,9.89275 L -30.4635,9.82341 L -30.2811,9.77657
 L -30.0942,9.75294 L -29.9058,9.75294 L -29.7189,9.77657 L -29.5365,9.82341 L -29.3613,9.89275 L -29.1963,9.98351
 L -29.0439,10.0942 L -28.9065,10.2232 L -28.7865,10.3683 L -28.6855,10.5274 L -28.6053,10.6978 L -28.5471,10.877
 L -28.5118,11.062 L -28.5,11.25 L -28.5118,11.438 L -28.5471,11.623 L -28.6053,11.8022 L -28.6855,11.9726
 L -28.7865,12.1317 L -28.9065,12.2768 L -29.0439,12.4058 L -29.1963,12.5165 L -29.3613,12.6072 L -29.5365,12.6766
 L -29.7189,12.7234 L -29.9058,12.747 z
M 14.9058,12.747 L 14.7189,12.7234 L 14.5365,12.6766 L 14.3613,12.6072 L 14.1963,12.5165 L 14.0439,12.4058
 L 13.9065,12.2768 L 13.7865,12.1317 L 13.6855,11.9726 L 13.6053,11.8022 L 13.5471,11.623 L 13.5118,11.438
 L 13.5,11.25 L 13.5118,11.062 L 13.5471,10.877 L 13.6053,10.6978 L 13.6855,10.5274 L 13.7865,10.3683
 L 13.9065,10.2232 L 14.0439,10.0942 L 14.1963,9.98351 L 14.3613,9.89275 L 14.5365,9.82341 L 14.7189,9.77657
 L 14.9058,9.75294 L 15.0942,9.75294 L 15.2811,9.77657 L 15.4635,9.82341 L 15.6387,9.89275 L 15.8037,9.98351
 L 15.9561,10.0942 L 16.0934,10.2232 L 16.2135,10.3683 L 16.3145,10.5274 L 16.3947,10.6978 L 16.4529,10.877
 L 16.4882,11.062 L 16.5,11.25 L 16.4882,11.438 L 16.4529,11.623 L 16.3947,11.8022 L 16.3145,11.9726
 L 16.2135,12.1317 L 16.0934,12.2768 L 15.9561,12.4058 L 15.8037,12.5165 L 15.6387,12.6072 L 15.4635,12.6766
 L 15.2811,12.7234 L 15.0942,12.747 z
M 37.4058,12.747 L 37.2189,12.7234 L 37.0365,12.6766 L 36.8613,12.6072 L 36.6963,12.5165 L 36.5439,12.4058
 L 36.4065,12.2768 L 36.2865,12.1317 L 36.1855,11.9726 L 36.1053,11.8022 L 36.0471,11.623 L 36.0118,11.438
 L 36,11.25 L 36.0118,11.062 L 36.0471,10.877 L 36.1053,10.6978 L 36.1855,10.5274 L 36.2865,10.3683
 L 36.4065,10.2232 L 36.5439,10.0942 L 36.6963,9.98351 L 36.8613,9.89275 L 37.0365,9.82341 L 37.2189,9.77657
 L 37.4058,9.75294 L 37.5942,9.75294 L 37.7811,9.77657 L 37.9635,9.82341 L 38.1387,9.89275 L 38.3037,9.98351
 L 38.4561,10.0942 L 38.5934,10.2232 L 38.7135,10.3683 L 38.8145,10.5274 L 38.8947,10.6978 L 38.9529,10.877
 L 38.9882,11.062 L 39,11.25 L 38.9882,11.438 L 38.9529,11.623 L 38.8947,11.8022 L 38.8145,11.9726
 L 38.7135,12.1317 L 38.5934,12.2768 L 38.4561,12.4058 L 38.3037,12.5165 L 38.1387,12.6072 L 37.9635,12.6766
 L 37.7811,12.7234 L 37.5942,12.747 z
M 29.9058,12.747 L 29.7189,12.7234 L 29.5365,12.6766 L 29.3613,12.6072 L 29.1963,12.5165 L 29.0439,12.4058
 L 28.9065,12.2768 L 28.7865,12.1317 L 28.6855,11.9726 L 28.6053,11.8022 L 28.5471,11.623 L 28.5118,11.438
 L 28.5,11.25 L 28.5118,11.062 L 28.5471,10.877 L 28.6053,10.6978 L 28.6855,10.5274 L 28.7865,10.3683
 L 28.9065,10.2232 L 29.0439,10.0942 L 29.1963,9.98351 L 29.3613,9.89275 L 29.5365,9.82341 L 29.7189,9.77657
 L 29.9058,9.75294 L 30.0942,9.75294 L 30.2811,9.77657 L 30.4635,9.82341 L 30.6387,9.89275 L 30.8037,9.98351
 L 30.9561,10.0942 L 31.0934,10.2232 L 31.2135,10.3683 L 31.3145,10.5274 L 31.3947,10.6978 L 31.4529,10.877
 L 31.4882,11.062 L 31.5,11.25 L 31.4882,11.438 L 31.4529,11.623 L 31.3947,11.8022 L 31.3145,11.9726
 L 31.2135,12.1317 L 31.0934,12.2768 L 30.9561,12.4058 L 30.8037,12.5165 L 30.6387,12.6072 L 30.4635,12.6766
 L 30.2811,12.7234 L 30.0942,12.747 z
M -0.0941772,12.747 L -0.281067,12.7234 L -0.463516,12.6766 L -0.638657,12.6072 L -0.803726,12.5165 L -0.956131,12.4058
 L -1.09344,12.2768 L -1.21352,12.1317 L -1.31445,11.9726 L -1.39465,11.8022 L -1.45287,11.623 L -1.48816,11.438
 L -1.5,11.25 L -1.48816,11.062 L -1.45287,10.877 L -1.39465,10.6978 L -1.31445,10.5274 L -1.21352,10.3683
 L -1.09344,10.2232 L -0.956131,10.0942 L -0.803726,9.98351 L -0.638657,9.89275 L -0.463516,9.82341 L -0.281067,9.77657
 L -0.0941772,9.75294 L 0.0941772,9.75294 L 0.281067,9.77657 L 0.463516,9.82341 L 0.638657,9.89275 L 0.803726,9.98351
 L 0.956131,10.0942 L 1.09344,10.2232 L 1.21352,10.3683 L 1.31445,10.5274 L 1.39465,10.6978 L 1.45287,10.877
 L 1.48816,11.062 L 1.5,11.25 L 1.48816,11.438 L 1.45287,11.623 L 1.39465,11.8022 L 1.31445,11.9726
 L 1.21352,12.1317 L 1.09344,12.2768 L 0.956131,12.4058 L 0.803726,12.5165 L 0.638657,12.6072 L 0.463516,12.6766
 L 0.281067,12.7234 L 0.0941772,12.747 z
M 44.9058,12.747 L 44.7189,12.7234 L 44.5365,12.6766 L 44.3613,12.6072 L 44.1963,12.5165 L 44.0439,12.4058
 L 43.9065,12.2768 L 43.7865,12.1317 L 43.6855,11.9726 L 43.6053,11.8022 L 43.5471,11.623 L 43.5118,11.438
 L 43.5,11.25 L 43.5118,11.062 L 43.5471,10.877 L 43.6053,10.6978 L 43.6855,10.5274 L 43.7865,10.3683
 L 43.9065,10.2232 L 44.0439,10.0942 L 44.1963,9.98351 L 44.3613,9.89275 L 44.5365,9.82341 L 44.7189,9.77657
 L 44.9058,9.75294 L 45.0942,9.75294 L 45.2811,9.77657 L 45.4635,9.82341 L 45.6387,9.89275 L 45.8037,9.98351
 L 45.9561,10.0942 L 46.0934,10.2232 L 46.2135,10.3683 L 46.3145,10.5274 L 46.3947,10.6978 L 46.4529,10.877
 L 46.4882,11.062 L 46.5,11.25 L 46.4882,11.438 L 46.4529,11.623 L 46.3947,11.8022 L 46.3145,11.9726
 L 46.2135,12.1317 L 46.0934,12.2768 L 45.9561,12.4058 L 45.8037,12.5165 L 45.6387,12.6072 L 45.4635,12.6766
 L 45.2811,12.7234 L 45.0942,12.747 z
M 52.4058,12.747 L 52.2189,12.7234 L 52.0365,12.6766 L 51.8613,12.6072 L 51.6963,12.5165 L 51.5439,12.4058
 L 51.4065,12.2768 L 51.2865,12.1317 L 51.1855,11.9726 L 51.1053,11.8022 L 51.0471,11.623 L 51.0118,11.438
 L 51,11.25 L 51.0118,11.062 L 51.0471,10.877 L 51.1053,10.6978 L 51.1855,10.5274 L 51.2865,10.3683
 L 51.4065,10.2232 L 51.5439,10.0942 L 51.6963,9.98351 L 51.8613,9.89275 L 52.0365,9.82341 L 52.2189,9.77657
 L 52.4058,9.75294 L 52.5942,9.75294 L 52.7811,9.77657 L 52.9635,9.82341 L 53.1387,9.89275 L 53.3037,9.98351
 L 53.4561,10.0942 L 53.5934,10.2232 L 53.7135,10.3683 L 53.8145,10.5274 L 53.8947,10.6978 L 53.9529,10.877
 L 53.9882,11.062 L 54,11.25 L 53.9882,11.438 L 53.9529,11.623 L 53.8947,11.8022 L 53.8145,11.9726
 L 53.7135,12.1317 L 53.5934,12.2768 L 53.4561,12.4058 L 53.3037,12.5165 L 53.1387,12.6072 L 52.9635,12.6766
 L 52.7811,12.7234 L 52.5942,12.747 z
M 30.8037,-9.98351 L 30.6387,-9.89275 L 30.4635,-9.82341 L 30.2811,-9.77657 L 30.0942,-9.75294 L 29.9058,-9.75294
 L 29.7189,-9.77657 L 29.5365,-9.82341 L 29.3613,-9.89275 L 29.1963,-9.98351 L 29.0439,-10.0942 L 28.9065,-10.2232
 L 28.7865,-10.3683 L 28.6855,-10.5274 L 28.6053,-10.6978 L 28.5471,-10.877 L 28.5118,-11.062 L 28.5,-11.25
 L 28.5118,-11.438 L 28.5471,-11.623 L 28.6053,-11.8022 L 28.6855,-11.9726 L 28.7865,-12.1317 L 28.9065,-12.2768
 L 29.0439,-12.4058 L 29.1963,-12.5165 L 29.3613,-12.6072 L 29.5365,-12.6766 L 29.7189,-12.7234 L 29.9058,-12.747
 L 30.0942,-12.747 L 30.2811,-12.7234 L 30.4635,-12.6766 L 30.6387,-12.6072 L 30.8037,-12.5165 L 30.9561,-12.4058
 L 31.0934,-12.2768 L 31.2135,-12.1317 L 31.3145,-11.9726 L 31.3947,-11.8022 L 31.4529,-11.623 L 31.4882,-11.438
 L 31.5,-11.25 L 31.4882,-11.062 L 31.4529,-10.877 L 31.3947,-10.6978 L 31.3145,-10.5274 L 31.2135,-10.3683
 L 31.0934,-10.2232 L 30.9561,-10.0942 z
" stroke="black" fill="lightgray" stroke-width="0.5"/>
</svg>
