<?xml version="1.0" standalone="no"?>
<!DOCTYPE svg PUBLIC "-//W3C//DTD SVG 1.1//EN" "http://www.w3.org/Graphics/SVG/1.1/DTD/svg11.dtd">
<svg width="30mm" height="186mm" viewBox="-15 -327 30 186" xmlns="http://www.w3.org/2000/svg" version="1.1">
<title>OpenSCAD Model</title>
<path d="
M 10.9369,-297.089 L 11.5451,-297.245 L 12.1289,-297.476 L 12.6791,-297.778 L 13.1871,-298.147 L 13.6448,-298.577
 L 14.0451,-299.061 L 14.3815,-299.591 L 14.6489,-300.159 L 14.8429,-300.757 L 14.9606,-301.373 L 15,-302
 L 15,-322 L 14.9606,-322.627 L 14.8429,-323.243 L 14.6489,-323.841 L 14.3815,-324.409 L 14.0451,-324.939
 L 13.6448,-325.423 L 13.1871,-325.853 L 12.6791,-326.222 L 12.1289,-326.524 L 11.5451,-326.755 L 10.9369,-326.911
 L 10.3139,-326.99 L -10.3139,-326.99 L -10.9369,-326.911 L -11.5451,-326.755 L -12.1289,-326.524 L -12.6791,-326.222
 L -13.1871,-325.853 L -13.6448,-325.423 L -14.0451,-324.939 L -14.3815,-324.409 L -14.6489,-323.841 L -14.8429,-323.243
 L -14.9606,-322.627 L -15,-322 L -15,-302 L -14.9606,-301.373 L -14.8429,-300.757 L -14.6489,-300.159
 L -14.3815,-299.591 L -14.0451,-299.061 L -13.6448,-298.577 L -13.1871,-298.147 L -12.6791,-297.778 L -12.1289,-297.476
 L -11.5451,-297.245 L -10.9369,-297.089 L -10.3139,-297.01 L 10.3139,-297.01 z
M -4.81104,-297.509 L -4.32086,-297.778 L -3.81287,-298.147 L -3.35515,-298.577 L -2.95491,-299.061 L -2.61845,-299.591
 L -2.3511,-300.159 L -2.15707,-300.757 L -2.03941,-301.373 L -2,-302 L -2,-305 L -2.03941,-305.627
 L -2.15707,-306.243 L -2.3511,-306.841 L -2.61845,-307.409 L -2.95491,-307.939 L -3.35515,-308.423 L -3.81287,-308.853
 L -4.32086,-309.222 L -4.87109,-309.524 L -5.45491,-309.755 L -6.06308,-309.911 L -6.68604,-309.99 L -10.3139,-309.99
 L -10.9369,-309.911 L -11.5451,-309.755 L -12.1289,-309.524 L -12.6791,-309.222 L -13.1871,-308.853 L -13.6448,-308.423
 L -14.0451,-307.939 L -14.3815,-307.409 L -14.5,-307.157 L -14.5,-322 L -14.4645,-322.564 L -14.3586,-323.119
 L -14.184,-323.657 L -13.9434,-324.168 L -13.6406,-324.645 L -13.2803,-325.08 L -12.8684,-325.467 L -12.4112,-325.799
 L -11.916,-326.072 L -11.3906,-326.28 L -10.8432,-326.42 L -10.2825,-326.491 L 10.2825,-326.491 L 10.8432,-326.42
 L 11.3906,-326.28 L 11.916,-326.072 L 12.4112,-325.799 L 12.8684,-325.467 L 13.2803,-325.08 L 13.6406,-324.645
 L 13.9434,-324.168 L 14.184,-323.657 L 14.3586,-323.119 L 14.4645,-322.564 L 14.5,-322 L 14.5,-302
 L 14.4645,-301.436 L 14.3586,-300.881 L 14.184,-300.343 L 13.9434,-299.832 L 13.6406,-299.355 L 13.2803,-298.92
 L 12.8684,-298.533 L 12.4112,-298.201 L 11.916,-297.928 L 11.3906,-297.72 L 10.8432,-297.58 L 10.2825,-297.509
 z
M 7.96844,-317.044 L 8.27254,-317.122 L 8.56444,-317.238 L 8.83955,-317.389 L 9.09355,-317.574 L 9.32242,-317.789
 L 9.52254,-318.031 L 9.69077,-318.296 L 9.82443,-318.58 L 9.92145,-318.878 L 9.98029,-319.187 L 10,-319.5
 L 9.98029,-319.813 L 9.92145,-320.122 L 9.82443,-320.42 L 9.69077,-320.704 L 9.52254,-320.969 L 9.32242,-321.211
 L 9.09355,-321.426 L 8.83955,-321.611 L 8.56444,-321.762 L 8.27254,-321.878 L 7.96844,-321.956 L 7.65697,-321.995
 L 7.34302,-321.995 L 7.03154,-321.956 L 6.72745,-321.878 L 6.43555,-321.762 L 6.16043,-321.611 L 5.90643,-321.426
 L 5.67757,-321.211 L 5.47745,-320.969 L 5.30922,-320.704 L 5.17555,-320.42 L 5.07854,-320.122 L 5.0197,-319.813
 L 5,-319.5 L 5.0197,-319.187 L 5.07854,-318.878 L 5.17555,-318.58 L 5.30922,-318.296 L 5.47745,-318.031
 L 5.67757,-317.789 L 5.90643,-317.574 L 6.16043,-317.389 L 6.43555,-317.238 L 6.72745,-317.122 L 7.03154,-317.044
 L 7.34302,-317.005 L 7.65697,-317.005 z
M 7.40581,-318.003 L 7.21892,-318.027 L 7.03647,-318.073 L 6.86133,-318.143 L 6.69626,-318.234 L 6.54385,-318.344
 L 6.40654,-318.473 L 6.28647,-318.618 L 6.18553,-318.777 L 6.10533,-318.948 L 6.04712,-319.127 L 6.01183,-319.312
 L 6,-319.5 L 6.01183,-319.688 L 6.04712,-319.873 L 6.10533,-320.052 L 6.18553,-320.223 L 6.28647,-320.382
 L 6.40654,-320.527 L 6.54385,-320.656 L 6.69626,-320.766 L 6.86133,-320.857 L 7.03647,-320.927 L 7.21892,-320.973
 L 7.40581,-320.997 L 7.59418,-320.997 L 7.78107,-320.973 L 7.96352,-320.927 L 8.13866,-320.857 L 8.30373,-320.766
 L 8.45613,-320.656 L 8.59344,-320.527 L 8.71352,-320.382 L 8.81445,-320.223 L 8.89465,-320.052 L 8.95287,-319.873
 L 8.98816,-319.688 L 9,-319.5 L 8.98816,-319.312 L 8.95287,-319.127 L 8.89465,-318.948 L 8.81445,-318.777
 L 8.71352,-318.618 L 8.59344,-318.473 L 8.45613,-318.344 L 8.30373,-318.234 L 8.13866,-318.143 L 7.96352,-318.073
 L 7.78107,-318.027 L 7.59418,-318.003 z
M -7.59418,-303.003 L -7.78107,-303.027 L -7.96352,-303.073 L -8.13866,-303.143 L -8.30373,-303.234 L -8.45613,-303.344
 L -8.59344,-303.473 L -8.71352,-303.618 L -8.81445,-303.777 L -8.89465,-303.948 L -8.95287,-304.127 L -8.98816,-304.312
 L -9,-304.5 L -8.98816,-304.688 L -8.95287,-304.873 L -8.89465,-305.052 L -8.81445,-305.223 L -8.71352,-305.382
 L -8.59344,-305.527 L -8.45613,-305.656 L -8.30373,-305.766 L -8.13866,-305.857 L -7.96352,-305.927 L -7.78107,-305.973
 L -7.59418,-305.997 L -7.40581,-305.997 L -7.21892,-305.973 L -7.03647,-305.927 L -6.86133,-305.857 L -6.69626,-305.766
 L -6.54385,-305.656 L -6.40654,-305.527 L -6.28647,-305.382 L -6.18553,-305.223 L -6.10533,-305.052 L -6.04712,-304.873
 L -6.01183,-304.688 L -6,-304.5 L -6.01183,-304.312 L -6.04712,-304.127 L -6.10533,-303.948 L -6.18553,-303.777
 L -6.28647,-303.618 L -6.40654,-303.473 L -6.54385,-303.344 L -6.69626,-303.234 L -6.86133,-303.143 L -7.03647,-303.073
 L -7.21892,-303.027 L -7.40581,-303.003 z
M 10.9369,-258.089 L 11.5451,-258.245 L 12.1289,-258.476 L 12.6791,-258.778 L 13.1871,-259.147 L 13.6448,-259.577
 L 14.0451,-260.061 L 14.3815,-260.591 L 14.6489,-261.159 L 14.8429,-261.757 L 14.9606,-262.373 L 15,-263
 L 15,-283 L 14.9606,-283.627 L 14.8429,-284.243 L 14.6489,-284.841 L 14.3815,-285.409 L 14.0451,-285.939
 L 13.6448,-286.423 L 13.1871,-286.853 L 12.6791,-287.222 L 12.1289,-287.524 L 11.5451,-287.755 L 10.9369,-287.911
 L 10.3139,-287.99 L -10.3139,-287.99 L -10.9369,-287.911 L -11.5451,-287.755 L -12.1289,-287.524 L -12.6791,-287.222
 L -13.1871,-286.853 L -13.6448,-286.423 L -14.0451,-285.939 L -14.3815,-285.409 L -14.6489,-284.841 L -14.8429,-284.243
 L -14.9606,-283.627 L -15,-283 L -15,-263 L -14.9606,-262.373 L -14.8429,-261.757 L -14.6489,-261.159
 L -14.3815,-260.591 L -14.0451,-260.061 L -13.6448,-259.577 L -13.1871,-259.147 L -12.6791,-258.778 L -12.1289,-258.476
 L -11.5451,-258.245 L -10.9369,-258.089 L -10.3139,-258.01 L 10.3139,-258.01 z
M -4.81104,-258.509 L -4.32086,-258.778 L -3.81287,-259.147 L -3.35515,-259.577 L -2.95491,-260.061 L -2.61845,-260.591
 L -2.3511,-261.159 L -2.15707,-261.757 L -2.03941,-262.373 L -2,-263 L -2,-266 L -2.03941,-266.627
 L -2.15707,-267.243 L -2.3511,-267.841 L -2.61845,-268.409 L -2.95491,-268.939 L -3.35515,-269.423 L -3.81287,-269.853
 L -4.32086,-270.222 L -4.87109,-270.524 L -5.45491,-270.755 L -6.06308,-270.911 L -6.68604,-270.99 L -10.3139,-270.99
 L -10.9369,-270.911 L -11.5451,-270.755 L -12.1289,-270.524 L -12.6791,-270.222 L -13.1871,-269.853 L -13.6448,-269.423
 L -14.0451,-268.939 L -14.3815,-268.409 L -14.5,-268.157 L -14.5,-283 L -14.4645,-283.564 L -14.3586,-284.119
 L -14.184,-284.657 L -13.9434,-285.168 L -13.6406,-285.645 L -13.2803,-286.08 L -12.8684,-286.467 L -12.4112,-286.799
 L -11.916,-287.072 L -11.3906,-287.28 L -10.8432,-287.42 L -10.2825,-287.491 L 10.2825,-287.491 L 10.8432,-287.42
 L 11.3906,-287.28 L 11.916,-287.072 L 12.4112,-286.799 L 12.8684,-286.467 L 13.2803,-286.08 L 13.6406,-285.645
 L 13.9434,-285.168 L 14.184,-284.657 L 14.3586,-284.119 L 14.4645,-283.564 L 14.5,-283 L 14.5,-263
 L 14.4645,-262.436 L 14.3586,-261.881 L 14.184,-261.343 L 13.9434,-260.832 L 13.6406,-260.355 L 13.2803,-259.92
 L 12.8684,-259.533 L 12.4112,-259.201 L 11.916,-258.928 L 11.3906,-258.72 L 10.8432,-258.58 L 10.2825,-258.509
 z
M 7.96844,-278.044 L 8.27254,-278.122 L 8.56444,-278.238 L 8.83955,-278.389 L 9.09355,-278.574 L 9.32242,-278.789
 L 9.52254,-279.031 L 9.69077,-279.296 L 9.82443,-279.58 L 9.92145,-279.878 L 9.98029,-280.187 L 10,-280.5
 L 9.98029,-280.813 L 9.92145,-281.122 L 9.82443,-281.42 L 9.69077,-281.704 L 9.52254,-281.969 L 9.32242,-282.211
 L 9.09355,-282.426 L 8.83955,-282.611 L 8.56444,-282.762 L 8.27254,-282.878 L 7.96844,-282.956 L 7.65697,-282.995
 L 7.34302,-282.995 L 7.03154,-282.956 L 6.72745,-282.878 L 6.43555,-282.762 L 6.16043,-282.611 L 5.90643,-282.426
 L 5.67757,-282.211 L 5.47745,-281.969 L 5.30922,-281.704 L 5.17555,-281.42 L 5.07854,-281.122 L 5.0197,-280.813
 L 5,-280.5 L 5.0197,-280.187 L 5.07854,-279.878 L 5.17555,-279.58 L 5.30922,-279.296 L 5.47745,-279.031
 L 5.67757,-278.789 L 5.90643,-278.574 L 6.16043,-278.389 L 6.43555,-278.238 L 6.72745,-278.122 L 7.03154,-278.044
 L 7.34302,-278.005 L 7.65697,-278.005 z
M 7.40581,-279.003 L 7.21892,-279.027 L 7.03647,-279.073 L 6.86133,-279.143 L 6.69626,-279.234 L 6.54385,-279.344
 L 6.40654,-279.473 L 6.28647,-279.618 L 6.18553,-279.777 L 6.10533,-279.948 L 6.04712,-280.127 L 6.01183,-280.312
 L 6,-280.5 L 6.01183,-280.688 L 6.04712,-280.873 L 6.10533,-281.052 L 6.18553,-281.223 L 6.28647,-281.382
 L 6.40654,-281.527 L 6.54385,-281.656 L 6.69626,-281.766 L 6.86133,-281.857 L 7.03647,-281.927 L 7.21892,-281.973
 L 7.40581,-281.997 L 7.59418,-281.997 L 7.78107,-281.973 L 7.96352,-281.927 L 8.13866,-281.857 L 8.30373,-281.766
 L 8.45613,-281.656 L 8.59344,-281.527 L 8.71352,-281.382 L 8.81445,-281.223 L 8.89465,-281.052 L 8.95287,-280.873
 L 8.98816,-280.688 L 9,-280.5 L 8.98816,-280.312 L 8.95287,-280.127 L 8.89465,-279.948 L 8.81445,-279.777
 L 8.71352,-279.618 L 8.59344,-279.473 L 8.45613,-279.344 L 8.30373,-279.234 L 8.13866,-279.143 L 7.96352,-279.073
 L 7.78107,-279.027 L 7.59418,-279.003 z
M -7.59418,-264.003 L -7.78107,-264.027 L -7.96352,-264.073 L -8.13866,-264.143 L -8.30373,-264.234 L -8.45613,-264.344
 L -8.59344,-264.473 L -8.71352,-264.618 L -8.81445,-264.777 L -8.89465,-264.948 L -8.95287,-265.127 L -8.98816,-265.312
 L -9,-265.5 L -8.98816,-265.688 L -8.95287,-265.873 L -8.89465,-266.052 L -8.81445,-266.223 L -8.71352,-266.382
 L -8.59344,-266.527 L -8.45613,-266.656 L -8.30373,-266.766 L -8.13866,-266.857 L -7.96352,-266.927 L -7.78107,-266.973
 L -7.59418,-266.997 L -7.40581,-266.997 L -7.21892,-266.973 L -7.03647,-266.927 L -6.86133,-266.857 L -6.69626,-266.766
 L -6.54385,-266.656 L -6.40654,-266.527 L -6.28647,-266.382 L -6.18553,-266.223 L -6.10533,-266.052 L -6.04712,-265.873
 L -6.01183,-265.688 L -6,-265.5 L -6.01183,-265.312 L -6.04712,-265.127 L -6.10533,-264.948 L -6.18553,-264.777
 L -6.28647,-264.618 L -6.40654,-264.473 L -6.54385,-264.344 L -6.69626,-264.234 L -6.86133,-264.143 L -7.03647,-264.073
 L -7.21892,-264.027 L -7.40581,-264.003 z
M 10.9369,-219.089 L 11.5451,-219.245 L 12.1289,-219.476 L 12.6791,-219.778 L 13.1871,-220.147 L 13.6448,-220.577
 L 14.0451,-221.061 L 14.3815,-221.591 L 14.6489,-222.159 L 14.8429,-222.757 L 14.9606,-223.373 L 15,-224
 L 15,-244 L 14.9606,-244.627 L 14.8429,-245.243 L 14.6489,-245.841 L 14.3815,-246.409 L 14.0451,-246.939
 L 13.6448,-247.423 L 13.1871,-247.853 L 12.6791,-248.222 L 12.1289,-248.524 L 11.5451,-248.755 L 10.9369,-248.911
 L 10.3139,-248.99 L -10.3139,-248.99 L -10.9369,-248.911 L -11.5451,-248.755 L -12.1289,-248.524 L -12.6791,-248.222
 L -13.1871,-247.853 L -13.6448,-247.423 L -14.0451,-246.939 L -14.3815,-246.409 L -14.6489,-245.841 L -14.8429,-245.243
 L -14.9606,-244.627 L -15,-244 L -15,-224 L -14.9606,-223.373 L -14.8429,-222.757 L -14.6489,-222.159
 L -14.3815,-221.591 L -14.0451,-221.061 L -13.6448,-220.577 L -13.1871,-220.147 L -12.6791,-219.778 L -12.1289,-219.476
 L -11.5451,-219.245 L -10.9369,-219.089 L -10.3139,-219.01 L 10.3139,-219.01 z
M -4.81104,-219.509 L -4.32086,-219.778 L -3.81287,-220.147 L -3.35515,-220.577 L -2.95491,-221.061 L -2.61845,-221.591
 L -2.3511,-222.159 L -2.15707,-222.757 L -2.03941,-223.373 L -2,-224 L -2,-227 L -2.03941,-227.627
 L -2.15707,-228.243 L -2.3511,-228.841 L -2.61845,-229.409 L -2.95491,-229.939 L -3.35515,-230.423 L -3.81287,-230.853
 L -4.32086,-231.222 L -4.87109,-231.524 L -5.45491,-231.755 L -6.06308,-231.911 L -6.68604,-231.99 L -10.3139,-231.99
 L -10.9369,-231.911 L -11.5451,-231.755 L -12.1289,-231.524 L -12.6791,-231.222 L -13.1871,-230.853 L -13.6448,-230.423
 L -14.0451,-229.939 L -14.3815,-229.409 L -14.5,-229.157 L -14.5,-244 L -14.4645,-244.564 L -14.3586,-245.119
 L -14.184,-245.657 L -13.9434,-246.168 L -13.6406,-246.645 L -13.2803,-247.08 L -12.8684,-247.467 L -12.4112,-247.799
 L -11.916,-248.072 L -11.3906,-248.28 L -10.8432,-248.42 L -10.2825,-248.491 L 10.2825,-248.491 L 10.8432,-248.42
 L 11.3906,-248.28 L 11.916,-248.072 L 12.4112,-247.799 L 12.8684,-247.467 L 13.2803,-247.08 L 13.6406,-246.645
 L 13.9434,-246.168 L 14.184,-245.657 L 14.3586,-245.119 L 14.4645,-244.564 L 14.5,-244 L 14.5,-224
 L 14.4645,-223.436 L 14.3586,-222.881 L 14.184,-222.343 L 13.9434,-221.832 L 13.6406,-221.355 L 13.2803,-220.92
 L 12.8684,-220.533 L 12.4112,-220.201 L 11.916,-219.928 L 11.3906,-219.72 L 10.8432,-219.58 L 10.2825,-219.509
 z
M 7.96844,-239.044 L 8.27254,-239.122 L 8.56444,-239.238 L 8.83955,-239.389 L 9.09355,-239.574 L 9.32242,-239.789
 L 9.52254,-240.031 L 9.69077,-240.296 L 9.82443,-240.58 L 9.92145,-240.878 L 9.98029,-241.187 L 10,-241.5
 L 9.98029,-241.813 L 9.92145,-242.122 L 9.82443,-242.42 L 9.69077,-242.704 L 9.52254,-242.969 L 9.32242,-243.211
 L 9.09355,-243.426 L 8.83955,-243.611 L 8.56444,-243.762 L 8.27254,-243.878 L 7.96844,-243.956 L 7.65697,-243.995
 L 7.34302,-243.995 L 7.03154,-243.956 L 6.72745,-243.878 L 6.43555,-243.762 L 6.16043,-243.611 L 5.90643,-243.426
 L 5.67757,-243.211 L 5.47745,-242.969 L 5.30922,-242.704 L 5.17555,-242.42 L 5.07854,-242.122 L 5.0197,-241.813
 L 5,-241.5 L 5.0197,-241.187 L 5.07854,-240.878 L 5.17555,-240.58 L 5.30922,-240.296 L 5.47745,-240.031
 L 5.67757,-239.789 L 5.90643,-239.574 L 6.16043,-239.389 L 6.43555,-239.238 L 6.72745,-239.122 L 7.03154,-239.044
 L 7.34302,-239.005 L 7.65697,-239.005 z
M 7.40581,-240.003 L 7.21892,-240.027 L 7.03647,-240.073 L 6.86133,-240.143 L 6.69626,-240.234 L 6.54385,-240.344
 L 6.40654,-240.473 L 6.28647,-240.618 L 6.18553,-240.777 L 6.10533,-240.948 L 6.04712,-241.127 L 6.01183,-241.312
 L 6,-241.5 L 6.01183,-241.688 L 6.04712,-241.873 L 6.10533,-242.052 L 6.18553,-242.223 L 6.28647,-242.382
 L 6.40654,-242.527 L 6.54385,-242.656 L 6.69626,-242.766 L 6.86133,-242.857 L 7.03647,-242.927 L 7.21892,-242.973
 L 7.40581,-242.997 L 7.59418,-242.997 L 7.78107,-242.973 L 7.96352,-242.927 L 8.13866,-242.857 L 8.30373,-242.766
 L 8.45613,-242.656 L 8.59344,-242.527 L 8.71352,-242.382 L 8.81445,-242.223 L 8.89465,-242.052 L 8.95287,-241.873
 L 8.98816,-241.688 L 9,-241.5 L 8.98816,-241.312 L 8.95287,-241.127 L 8.89465,-240.948 L 8.81445,-240.777
 L 8.71352,-240.618 L 8.59344,-240.473 L 8.45613,-240.344 L 8.30373,-240.234 L 8.13866,-240.143 L 7.96352,-240.073
 L 7.78107,-240.027 L 7.59418,-240.003 z
M -7.59418,-225.003 L -7.78107,-225.027 L -7.96352,-225.073 L -8.13866,-225.143 L -8.30373,-225.234 L -8.45613,-225.344
 L -8.59344,-225.473 L -8.71352,-225.618 L -8.81445,-225.777 L -8.89465,-225.948 L -8.95287,-226.127 L -8.98816,-226.312
 L -9,-226.5 L -8.98816,-226.688 L -8.95287,-226.873 L -8.89465,-227.052 L -8.81445,-227.223 L -8.71352,-227.382
 L -8.59344,-227.527 L -8.45613,-227.656 L -8.30373,-227.766 L -8.13866,-227.857 L -7.96352,-227.927 L -7.78107,-227.973
 L -7.59418,-227.997 L -7.40581,-227.997 L -7.21892,-227.973 L -7.03647,-227.927 L -6.86133,-227.857 L -6.69626,-227.766
 L -6.54385,-227.656 L -6.40654,-227.527 L -6.28647,-227.382 L -6.18553,-227.223 L -6.10533,-227.052 L -6.04712,-226.873
 L -6.01183,-226.688 L -6,-226.5 L -6.01183,-226.312 L -6.04712,-226.127 L -6.10533,-225.948 L -6.18553,-225.777
 L -6.28647,-225.618 L -6.40654,-225.473 L -6.54385,-225.344 L -6.69626,-225.234 L -6.86133,-225.143 L -7.03647,-225.073
 L -7.21892,-225.027 L -7.40581,-225.003 z
M 10.9369,-180.089 L 11.5451,-180.245 L 12.1289,-180.476 L 12.6791,-180.778 L 13.1871,-181.147 L 13.6448,-181.577
 L 14.0451,-182.061 L 14.3815,-182.591 L 14.6489,-183.159 L 14.8429,-183.757 L 14.9606,-184.373 L 15,-185
 L 15,-205 L 14.9606,-205.627 L 14.8429,-206.243 L 14.6489,-206.841 L 14.3815,-207.409 L 14.0451,-207.939
 L 13.6448,-208.423 L 13.1871,-208.853 L 12.6791,-209.222 L 12.1289,-209.524 L 11.5451,-209.755 L 10.9369,-209.911
 L 10.3139,-209.99 L -10.3139,-209.99 L -10.9369,-209.911 L -11.5451,-209.755 L -12.1289,-209.524 L -12.6791,-209.222
 L -13.1871,-208.853 L -13.6448,-208.423 L -14.0451,-207.939 L -14.3815,-207.409 L -14.6489,-206.841 L -14.8429,-206.243
 L -14.9606,-205.627 L -15,-205 L -15,-185 L -14.9606,-184.373 L -14.8429,-183.757 L -14.6489,-183.159
 L -14.3815,-182.591 L -14.0451,-182.061 L -13.6448,-181.577 L -13.1871,-181.147 L -12.6791,-180.778 L -12.1289,-180.476
 L -11.5451,-180.245 L -10.9369,-180.089 L -10.3139,-180.01 L 10.3139,-180.01 z
M -4.03568,-180.986 L -3.81287,-181.147 L -3.35515,-181.577 L -2.95491,-182.061 L -2.61845,-182.591 L -2.3511,-183.159
 L -2.15707,-183.757 L -2.03941,-184.373 L -2,-185 L -2,-188 L -2.03941,-188.627 L -2.15707,-189.243
 L -2.3511,-189.841 L -2.61845,-190.409 L -2.95491,-190.939 L -3.35515,-191.423 L -3.81287,-191.853 L -4.32086,-192.222
 L -4.87109,-192.524 L -5.45491,-192.755 L -6.06308,-192.911 L -6.68604,-192.99 L -10.3139,-192.99 L -10.9369,-192.911
 L -11.5451,-192.755 L -12.1289,-192.524 L -12.6791,-192.222 L -13.1871,-191.853 L -13.6448,-191.423 L -14.0224,-190.966
 L -14.0224,-205 L -13.9907,-205.504 L -13.896,-206 L -13.7399,-206.481 L -13.5248,-206.938 L -13.2542,-207.364
 L -12.9322,-207.754 L -12.5639,-208.099 L -12.1553,-208.396 L -11.7126,-208.64 L -11.243,-208.826 L -10.7537,-208.951
 L -10.2526,-209.014 L 4.03568,-209.014 L 3.81287,-208.853 L 3.35515,-208.423 L 2.95491,-207.939 L 2.61845,-207.409
 L 2.3511,-206.841 L 2.15707,-206.243 L 2.03941,-205.627 L 2,-205 L 2,-202 L 2.03941,-201.373
 L 2.15707,-200.757 L 2.3511,-200.159 L 2.61845,-199.591 L 2.95491,-199.061 L 3.35515,-198.577 L 3.81287,-198.147
 L 4.32086,-197.778 L 4.87109,-197.476 L 5.45491,-197.245 L 6.06308,-197.089 L 6.68604,-197.01 L 10.3139,-197.01
 L 10.9369,-197.089 L 11.5451,-197.245 L 12.1289,-197.476 L 12.6791,-197.778 L 13.1871,-198.147 L 13.6448,-198.577
 L 14.0224,-199.034 L 14.0224,-185 L 13.9907,-184.496 L 13.896,-184 L 13.7399,-183.519 L 13.5248,-183.062
 L 13.2542,-182.636 L 12.9322,-182.246 L 12.5639,-181.901 L 12.1553,-181.604 L 11.7126,-181.36 L 11.243,-181.174
 L 10.7537,-181.049 L 10.2526,-180.986 z
M 7.40581,-201.003 L 7.21892,-201.027 L 7.03647,-201.073 L 6.86133,-201.143 L 6.69626,-201.234 L 6.54385,-201.344
 L 6.40654,-201.473 L 6.28647,-201.618 L 6.18553,-201.777 L 6.10533,-201.948 L 6.04712,-202.127 L 6.01183,-202.312
 L 6,-202.5 L 6.01183,-202.688 L 6.04712,-202.873 L 6.10533,-203.052 L 6.18553,-203.223 L 6.28647,-203.382
 L 6.40654,-203.527 L 6.54385,-203.656 L 6.69626,-203.766 L 6.86133,-203.857 L 7.03647,-203.927 L 7.21892,-203.973
 L 7.40581,-203.997 L 7.59418,-203.997 L 7.78107,-203.973 L 7.96352,-203.927 L 8.13866,-203.857 L 8.30373,-203.766
 L 8.45613,-203.656 L 8.59344,-203.527 L 8.71352,-203.382 L 8.81445,-203.223 L 8.89465,-203.052 L 8.95287,-202.873
 L 8.98816,-202.688 L 9,-202.5 L 8.98816,-202.312 L 8.95287,-202.127 L 8.89465,-201.948 L 8.81445,-201.777
 L 8.71352,-201.618 L 8.59344,-201.473 L 8.45613,-201.344 L 8.30373,-201.234 L 8.13866,-201.143 L 7.96352,-201.073
 L 7.78107,-201.027 L 7.59418,-201.003 z
M -7.59418,-186.003 L -7.78107,-186.027 L -7.96352,-186.073 L -8.13866,-186.143 L -8.30373,-186.234 L -8.45613,-186.344
 L -8.59344,-186.473 L -8.71352,-186.618 L -8.81445,-186.777 L -8.89465,-186.948 L -8.95287,-187.127 L -8.98816,-187.312
 L -9,-187.5 L -8.98816,-187.688 L -8.95287,-187.873 L -8.89465,-188.052 L -8.81445,-188.223 L -8.71352,-188.382
 L -8.59344,-188.527 L -8.45613,-188.656 L -8.30373,-188.766 L -8.13866,-188.857 L -7.96352,-188.927 L -7.78107,-188.973
 L -7.59418,-188.997 L -7.40581,-188.997 L -7.21892,-188.973 L -7.03647,-188.927 L -6.86133,-188.857 L -6.69626,-188.766
 L -6.54385,-188.656 L -6.40654,-188.527 L -6.28647,-188.382 L -6.18553,-188.223 L -6.10533,-188.052 L -6.04712,-187.873
 L -6.01183,-187.688 L -6,-187.5 L -6.01183,-187.312 L -6.04712,-187.127 L -6.10533,-186.948 L -6.18553,-186.777
 L -6.28647,-186.618 L -6.40654,-186.473 L -6.54385,-186.344 L -6.69626,-186.234 L -6.86133,-186.143 L -7.03647,-186.073
 L -7.21892,-186.027 L -7.40581,-186.003 z
M 10.9369,-141.089 L 11.5451,-141.245 L 12.1289,-141.476 L 12.6791,-141.778 L 13.1871,-142.147 L 13.6448,-142.577
 L 14.0451,-143.061 L 14.3815,-143.591 L 14.6489,-144.159 L 14.8429,-144.757 L 14.9606,-145.373 L 15,-146
 L 15,-166 L 14.9606,-166.627 L 14.8429,-167.243 L 14.6489,-167.841 L 14.3815,-168.409 L 14.0451,-168.939
 L 13.6448,-169.423 L 13.1871,-169.853 L 12.6791,-170.222 L 12.1289,-170.524 L 11.5451,-170.755 L 10.9369,-170.911
 L 10.3139,-170.99 L -10.3139,-170.99 L -10.9369,-170.911 L -11.5451,-170.755 L -12.1289,-170.524 L -12.6791,-170.222
 L -13.1871,-169.853 L -13.6448,-169.423 L -14.0451,-168.939 L -14.3815,-168.409 L -14.6489,-167.841 L -14.8429,-167.243
 L -14.9606,-166.627 L -15,-166 L -15,-146 L -14.9606,-145.373 L -14.8429,-144.757 L -14.6489,-144.159
 L -14.3815,-143.591 L -14.0451,-143.061 L -13.6448,-142.577 L -13.1871,-142.147 L -12.6791,-141.778 L -12.1289,-141.476
 L -11.5451,-141.245 L -10.9369,-141.089 L -10.3139,-141.01 L 10.3139,-141.01 z
M 7.34929,-161.105 L 7.05028,-161.143 L 6.75835,-161.217 L 6.47812,-161.328 L 6.214,-161.474 L 5.97017,-161.651
 L 5.75047,-161.857 L 5.55835,-162.089 L 5.39685,-162.344 L 5.26852,-162.617 L 5.1754,-162.903 L 5.11891,-163.199
 L 5.09999,-163.5 L 5.11891,-163.801 L 5.1754,-164.097 L 5.26852,-164.383 L 5.39685,-164.656 L 5.55835,-164.911
 L 5.75047,-165.143 L 5.97017,-165.349 L 6.214,-165.526 L 6.47812,-165.672 L 6.75835,-165.783 L 7.05028,-165.857
 L 7.34929,-165.895 L 7.6507,-165.895 L 7.94971,-165.857 L 8.24164,-165.783 L 8.52187,-165.672 L 8.78598,-165.526
 L 9.02982,-165.349 L 9.24951,-165.143 L 9.44164,-164.911 L 9.60313,-164.656 L 9.73146,-164.383 L 9.82458,-164.097
 L 9.88107,-163.801 L 9.89999,-163.5 L 9.88107,-163.199 L 9.82458,-162.903 L 9.73146,-162.617 L 9.60313,-162.344
 L 9.44164,-162.089 L 9.24951,-161.857 L 9.02982,-161.651 L 8.78598,-161.474 L 8.52187,-161.328 L 8.24164,-161.217
 L 7.94971,-161.143 L 7.6507,-161.105 z
M -7.59418,-162.003 L -7.78107,-162.027 L -7.96352,-162.073 L -8.13866,-162.143 L -8.30373,-162.234 L -8.45613,-162.344
 L -8.59344,-162.473 L -8.71352,-162.618 L -8.81445,-162.777 L -8.89465,-162.948 L -8.95287,-163.127 L -8.98816,-163.312
 L -9,-163.5 L -8.98816,-163.688 L -8.95287,-163.873 L -8.89465,-164.052 L -8.81445,-164.223 L -8.71352,-164.382
 L -8.59344,-164.527 L -8.45613,-164.656 L -8.30373,-164.766 L -8.13866,-164.857 L -7.96352,-164.927 L -7.78107,-164.973
 L -7.59418,-164.997 L -7.40581,-164.997 L -7.21892,-164.973 L -7.03647,-164.927 L -6.86133,-164.857 L -6.69626,-164.766
 L -6.54385,-164.656 L -6.40654,-164.527 L -6.28647,-164.382 L -6.18553,-164.223 L -6.10533,-164.052 L -6.04712,-163.873
 L -6.01183,-163.688 L -6,-163.5 L -6.01183,-163.312 L -6.04712,-163.127 L -6.10533,-162.948 L -6.18553,-162.777
 L -6.28647,-162.618 L -6.40654,-162.473 L -6.54385,-162.344 L -6.69626,-162.234 L -6.86133,-162.143 L -7.03647,-162.073
 L -7.21892,-162.027 L -7.40581,-162.003 z
M -7.6507,-146.105 L -7.94971,-146.143 L -8.24164,-146.217 L -8.52187,-146.328 L -8.78598,-146.474 L -9.02982,-146.651
 L -9.24951,-146.857 L -9.44164,-147.089 L -9.60313,-147.344 L -9.73146,-147.617 L -9.82458,-147.903 L -9.88107,-148.199
 L -9.89999,-148.5 L -9.88107,-148.801 L -9.82458,-149.097 L -9.73146,-149.383 L -9.60313,-149.656 L -9.44164,-149.911
 L -9.24951,-150.143 L -9.02982,-150.349 L -8.78598,-150.526 L -8.52187,-150.672 L -8.24164,-150.783 L -7.94971,-150.857
 L -7.6507,-150.895 L -7.34929,-150.895 L -7.05028,-150.857 L -6.75835,-150.783 L -6.47812,-150.672 L -6.214,-150.526
 L -5.97017,-150.349 L -5.75047,-150.143 L -5.55835,-149.911 L -5.39685,-149.656 L -5.26852,-149.383 L -5.1754,-149.097
 L -5.11891,-148.801 L -5.09999,-148.5 L -5.11891,-148.199 L -5.1754,-147.903 L -5.26852,-147.617 L -5.39685,-147.344
 L -5.55835,-147.089 L -5.75047,-146.857 L -5.97017,-146.651 L -6.214,-146.474 L -6.47812,-146.328 L -6.75835,-146.217
 L -7.05028,-146.143 L -7.34929,-146.105 z
M 7.40581,-147.003 L 7.21892,-147.027 L 7.03647,-147.073 L 6.86133,-147.143 L 6.69626,-147.234 L 6.54385,-147.344
 L 6.40654,-147.473 L 6.28647,-147.618 L 6.18553,-147.777 L 6.10533,-147.948 L 6.04712,-148.127 L 6.01183,-148.312
 L 6,-148.5 L 6.01183,-148.688 L 6.04712,-148.873 L 6.10533,-149.052 L 6.18553,-149.223 L 6.28647,-149.382
 L 6.40654,-149.527 L 6.54385,-149.656 L 6.69626,-149.766 L 6.86133,-149.857 L 7.03647,-149.927 L 7.21892,-149.973
 L 7.40581,-149.997 L 7.59418,-149.997 L 7.78107,-149.973 L 7.96352,-149.927 L 8.13866,-149.857 L 8.30373,-149.766
 L 8.45613,-149.656 L 8.59344,-149.527 L 8.71352,-149.382 L 8.81445,-149.223 L 8.89465,-149.052 L 8.95287,-148.873
 L 8.98816,-148.688 L 9,-148.5 L 8.98816,-148.312 L 8.95287,-148.127 L 8.89465,-147.948 L 8.81445,-147.777
 L 8.71352,-147.618 L 8.59344,-147.473 L 8.45613,-147.344 L 8.30373,-147.234 L 8.13866,-147.143 L 7.96352,-147.073
 L 7.78107,-147.027 L 7.59418,-147.003 z
" stroke="black" fill="lightgray" stroke-width="0.5"/>
</svg>
