<?xml version="1.0" standalone="no"?>
<!DOCTYPE svg PUBLIC "-//W3C//DTD SVG 1.1//EN" "http://www.w3.org/Graphics/SVG/1.1/DTD/svg11.dtd">
<svg width="42mm" height="14mm" viewBox="-20 -7 42 14" xmlns="http://www.w3.org/2000/svg" version="1.1">
<title>OpenSCAD Model</title>
<path d="
M 18.212,6.23268 L 18.6743,6.11401 L 19.118,5.93834 L 19.5361,5.70844 L 19.9222,5.42795 L 20.2701,5.10127
 L 20.5743,4.73358 L 20.83,4.33066 L 21.0331,3.89886 L 21.1806,3.44501 L 21.27,2.97626 L 21.3,2.5
 L 21.3,-2.5 L 21.27,-2.97626 L 21.1806,-3.44501 L 21.0331,-3.89886 L 20.83,-4.33066 L 20.5743,-4.73358
 L 20.2701,-5.10127 L 19.9222,-5.42795 L 19.5361,-5.70844 L 19.118,-5.93834 L 18.6743,-6.11401 L 18.212,-6.23268
 L 17.7386,-6.2925 L 12.2614,-6.2925 L 11.7879,-6.23268 L 11.3257,-6.11401 L 10.882,-5.93834 L 10.4639,-5.70844
 L 10.0778,-5.42795 L 9.7299,-5.10127 L 9.42572,-4.73358 L 9.17003,-4.33066 L 8.96684,-3.89886 L 8.81938,-3.44501
 L 8.72995,-2.97626 L 8.7,-2.5 L 8.7,2.5 L 8.72995,2.97626 L 8.81938,3.44501 L 8.96684,3.89886
 L 9.17003,4.33066 L 9.42572,4.73358 L 9.7299,5.10127 L 10.0778,5.42795 L 10.4639,5.70844 L 10.882,5.93834
 L 11.3257,6.11401 L 11.7879,6.23268 L 12.2614,6.2925 L 17.7386,6.2925 z
M 14.3116,3.49408 L 13.9379,3.44685 L 13.5729,3.35316 L 13.2227,3.21448 L 12.8925,3.03297 L 12.5877,2.81154
 L 12.3131,2.55363 L 12.0729,2.26335 L 11.8711,1.94525 L 11.7107,1.60437 L 11.5942,1.24606 L 11.5237,0.875992
 L 11.5,0.5 L 11.5,-0.5 L 11.5237,-0.875992 L 11.5942,-1.24606 L 11.7107,-1.60437 L 11.8711,-1.94525
 L 12.0729,-2.26335 L 12.3131,-2.55363 L 12.5877,-2.81154 L 12.8925,-3.03297 L 13.2227,-3.21448 L 13.5729,-3.35316
 L 13.9379,-3.44685 L 14.3116,-3.49408 L 15.6884,-3.49408 L 16.0621,-3.44685 L 16.427,-3.35316 L 16.7773,-3.21448
 L 17.1075,-3.03297 L 17.4123,-2.81154 L 17.6869,-2.55363 L 17.927,-2.26335 L 18.1289,-1.94525 L 18.2893,-1.60437
 L 18.4057,-1.24606 L 18.4763,-0.875992 L 18.5,-0.5 L 18.5,0.5 L 18.4763,0.875992 L 18.4057,1.24606
 L 18.2893,1.60437 L 18.1289,1.94525 L 17.927,2.26335 L 17.6869,2.55363 L 17.4123,2.81154 L 17.1075,3.03297
 L 16.7773,3.21448 L 16.427,3.35316 L 16.0621,3.44685 L 15.6884,3.49408 z
M -14.0631,4.91142 L -13.4549,4.75528 L -12.8711,4.52412 L -12.3209,4.22163 L -11.8129,3.85255 L -11.3551,3.42273
 L -10.9549,2.93892 L -10.6185,2.40877 L -10.3511,1.84062 L -10.1571,1.24344 L -10.0394,0.626663 L -10,-0
 L -10.0394,-0.626663 L -10.1571,-1.24344 L -10.3511,-1.84062 L -10.6185,-2.40877 L -10.9549,-2.93892 L -11.3551,-3.42273
 L -11.8129,-3.85255 L -12.3209,-4.22163 L -12.8711,-4.52412 L -13.4549,-4.75528 L -14.0631,-4.91142 L -14.686,-4.99013
 L -15.3139,-4.99013 L -15.9369,-4.91142 L -16.5451,-4.75528 L -17.1289,-4.52412 L -17.6791,-4.22163 L -18.1871,-3.85255
 L -18.6448,-3.42273 L -19.0451,-2.93892 L -19.3815,-2.40877 L -19.6489,-1.84062 L -19.8429,-1.24344 L -19.9606,-0.626663
 L -20,-0 L -19.9606,0.626663 L -19.8429,1.24344 L -19.6489,1.84062 L -19.3815,2.40877 L -19.0451,2.93892
 L -18.6448,3.42273 L -18.1871,3.85255 L -17.6791,4.22163 L -17.1289,4.52412 L -16.5451,4.75528 L -15.9369,4.91142
 L -15.3139,4.99013 L -14.686,4.99013 z
M -15.0942,1.49704 L -15.2811,1.47342 L -15.4635,1.42657 L -15.6387,1.35724 L -15.8037,1.26648 L -15.9561,1.15576
 L -16.0934,1.02681 L -16.2135,0.881668 L -16.3145,0.722626 L -16.3947,0.552185 L -16.4529,0.373032 L -16.4882,0.187988
 L -16.5,-0 L -16.4882,-0.187988 L -16.4529,-0.373032 L -16.3947,-0.552185 L -16.3145,-0.722626 L -16.2135,-0.881668
 L -16.0934,-1.02681 L -15.9561,-1.15576 L -15.8037,-1.26648 L -15.6387,-1.35724 L -15.4635,-1.42657 L -15.2811,-1.47342
 L -15.0942,-1.49704 L -14.9058,-1.49704 L -14.7189,-1.47342 L -14.5365,-1.42657 L -14.3613,-1.35724 L -14.1963,-1.26648
 L -14.0439,-1.15576 L -13.9065,-1.02681 L -13.7865,-0.881668 L -13.6855,-0.722626 L -13.6053,-0.552185 L -13.5471,-0.373032
 L -13.5118,-0.187988 L -13.5,-0 L -13.5118,0.187988 L -13.5471,0.373032 L -13.6053,0.552185 L -13.6855,0.722626
 L -13.7865,0.881668 L -13.9065,1.02681 L -14.0439,1.15576 L -14.1963,1.26648 L -14.3613,1.35724 L -14.5365,1.42657
 L -14.7189,1.47342 L -14.9058,1.49704 z
" stroke="black" fill="lightgray" stroke-width="0.5"/>
</svg>
