<?xml version="1.0" standalone="no"?>
<!DOCTYPE svg PUBLIC "-//W3C//DTD SVG 1.1//EN" "http://www.w3.org/Graphics/SVG/1.1/DTD/svg11.dtd">
<svg width="14mm" height="14mm" viewBox="-7 -7 14 14" xmlns="http://www.w3.org/2000/svg" version="1.1">
<title>OpenSCAD Model</title>
<path d="
M 1.31166,6.87601 L 2.16312,6.65739 L 2.98045,6.33379 L 3.75078,5.91029 L 4.46196,5.39359 L 5.10277,4.79182
 L 5.66312,4.11449 L 6.13414,3.37227 L 6.50842,2.57686 L 6.78008,1.74081 L 6.94479,0.877319 L 7,-0
 L 6.94479,-0.877319 L 6.78008,-1.74081 L 6.50842,-2.57686 L 6.13414,-3.37227 L 5.66312,-4.11449 L 5.10277,-4.79182
 L 4.46196,-5.39359 L 3.75078,-5.91029 L 2.98045,-6.33379 L 2.16312,-6.65739 L 1.31166,-6.87601 L 0.439529,-6.98618
 L -0.439529,-6.98618 L -1.31166,-6.87601 L -2.16312,-6.65739 L -2.98045,-6.33379 L -3.75078,-5.91029 L -4.46196,-5.39359
 L -5.10277,-4.79182 L -5.66312,-4.11449 L -6.13414,-3.37227 L -6.50842,-2.57686 L -6.78008,-1.74081 L -6.94479,-0.877319
 L -7,-0 L -6.94479,0.877319 L -6.78008,1.74081 L -6.50842,2.57686 L -6.13414,3.37227 L -5.66312,4.11449
 L -5.10277,4.79182 L -4.46196,5.39359 L -3.75078,5.91029 L -2.98045,6.33379 L -2.16312,6.65739 L -1.31166,6.87601
 L -0.439529,6.98618 L 0.439529,6.98618 z
M -0.150696,2.39526 L -0.449707,2.35748 L -0.741638,2.28253 L -1.02187,2.17157 L -1.28598,2.02638 L -1.52982,1.84923
 L -1.74951,1.6429 L -1.94164,1.41068 L -2.10313,1.1562 L -2.23146,0.883484 L -2.32458,0.596848 L -2.38107,0.300797
 L -2.39999,-0 L -2.38107,-0.300797 L -2.32458,-0.596848 L -2.23146,-0.883484 L -2.10313,-1.1562 L -1.94164,-1.41068
 L -1.74951,-1.6429 L -1.52982,-1.84923 L -1.28598,-2.02638 L -1.02187,-2.17157 L -0.741638,-2.28253 L -0.449707,-2.35748
 L -0.150696,-2.39526 L 0.150696,-2.39526 L 0.449707,-2.35748 L 0.741638,-2.28253 L 1.02187,-2.17157 L 1.28598,-2.02638
 L 1.52982,-1.84923 L 1.74951,-1.6429 L 1.94164,-1.41068 L 2.10313,-1.1562 L 2.23146,-0.883484 L 2.32458,-0.596848
 L 2.38107,-0.300797 L 2.39999,-0 L 2.38107,0.300797 L 2.32458,0.596848 L 2.23146,0.883484 L 2.10313,1.1562
 L 1.94164,1.41068 L 1.74951,1.6429 L 1.52982,1.84923 L 1.28598,2.02638 L 1.02187,2.17157 L 0.741638,2.28253
 L 0.449707,2.35748 L 0.150696,2.39526 z
" stroke="black" fill="lightgray" stroke-width="0.5"/>
</svg>
