<?xml version="1.0" standalone="no"?>
<!DOCTYPE svg PUBLIC "-//W3C//DTD SVG 1.1//EN" "http://www.w3.org/Graphics/SVG/1.1/DTD/svg11.dtd">
<svg width="60mm" height="336mm" viewBox="-30 -582 60 336" xmlns="http://www.w3.org/2000/svg" version="1.1">
<title>OpenSCAD Model</title>
<path d="
M 25.9369,-522.089 L 26.5451,-522.245 L 27.1289,-522.476 L 27.6791,-522.778 L 28.1871,-523.147 L 28.6448,-523.577
 L 29.0451,-524.061 L 29.3815,-524.591 L 29.6489,-525.159 L 29.8429,-525.757 L 29.9606,-526.373 L 30,-527
 L 30,-577 L 29.9606,-577.627 L 29.8429,-578.243 L 29.6489,-578.841 L 29.3815,-579.409 L 29.0451,-579.939
 L 28.6448,-580.423 L 28.1871,-580.853 L 27.6791,-581.222 L 27.1289,-581.524 L 26.5451,-581.755 L 25.9369,-581.911
 L 25.3139,-581.99 L -25.3139,-581.99 L -25.9369,-581.911 L -26.5451,-581.755 L -27.1289,-581.524 L -27.6791,-581.222
 L -28.1871,-580.853 L -28.6448,-580.423 L -29.0451,-579.939 L -29.3815,-579.409 L -29.6489,-578.841 L -29.8429,-578.243
 L -29.9606,-577.627 L -30,-577 L -30,-527 L -29.9606,-526.373 L -29.8429,-525.757 L -29.6489,-525.159
 L -29.3815,-524.591 L -29.0451,-524.061 L -28.6448,-523.577 L -28.1871,-523.147 L -27.6791,-522.778 L -27.1289,-522.476
 L -26.5451,-522.245 L -25.9369,-522.089 L -25.3139,-522.01 L 25.3139,-522.01 z
M -25.0482,-522.509 L -25.6401,-522.584 L -26.2178,-522.732 L -26.7724,-522.952 L -27.2952,-523.239 L -27.7778,-523.59
 L -28.2126,-523.998 L -28.5928,-524.458 L -28.9124,-524.962 L -29.1664,-525.501 L -29.3508,-526.069 L -29.4625,-526.655
 L -29.5,-527.25 L -29.5,-576.75 L -29.4625,-577.345 L -29.3508,-577.931 L -29.1664,-578.499 L -28.9124,-579.038
 L -28.5928,-579.542 L -28.2126,-580.002 L -27.7778,-580.41 L -27.2952,-580.761 L -26.7724,-581.048 L -26.2178,-581.268
 L -25.6401,-581.416 L -25.0482,-581.491 L 25.0482,-581.491 L 25.6401,-581.416 L 26.2178,-581.268 L 26.7724,-581.048
 L 27.2952,-580.761 L 27.7778,-580.41 L 28.2126,-580.002 L 28.5928,-579.542 L 28.9124,-579.038 L 29.1664,-578.499
 L 29.3508,-577.931 L 29.4625,-577.345 L 29.5,-576.75 L 29.5,-527.25 L 29.4625,-526.655 L 29.3508,-526.069
 L 29.1664,-525.501 L 28.9124,-524.962 L 28.5928,-524.458 L 28.2126,-523.998 L 27.7778,-523.59 L 27.2952,-523.239
 L 26.7724,-522.952 L 26.2178,-522.732 L 25.6401,-522.584 L 25.0482,-522.509 z
M 25.9369,-453.089 L 26.5451,-453.245 L 27.1289,-453.476 L 27.6791,-453.778 L 28.1871,-454.147 L 28.6448,-454.577
 L 29.0451,-455.061 L 29.3815,-455.591 L 29.6489,-456.159 L 29.8429,-456.757 L 29.9606,-457.373 L 30,-458
 L 30,-508 L 29.9606,-508.627 L 29.8429,-509.243 L 29.6489,-509.841 L 29.3815,-510.409 L 29.0451,-510.939
 L 28.6448,-511.423 L 28.1871,-511.853 L 27.6791,-512.222 L 27.1289,-512.524 L 26.5451,-512.755 L 25.9369,-512.911
 L 25.3139,-512.99 L -25.3139,-512.99 L -25.9369,-512.911 L -26.5451,-512.755 L -27.1289,-512.524 L -27.6791,-512.222
 L -28.1871,-511.853 L -28.6448,-511.423 L -29.0451,-510.939 L -29.3815,-510.409 L -29.6489,-509.841 L -29.8429,-509.243
 L -29.9606,-508.627 L -30,-508 L -30,-458 L -29.9606,-457.373 L -29.8429,-456.757 L -29.6489,-456.159
 L -29.3815,-455.591 L -29.0451,-455.061 L -28.6448,-454.577 L -28.1871,-454.147 L -27.6791,-453.778 L -27.1289,-453.476
 L -26.5451,-453.245 L -25.9369,-453.089 L -25.3139,-453.01 L 25.3139,-453.01 z
M -25.0482,-453.509 L -25.6401,-453.584 L -26.2178,-453.732 L -26.7724,-453.952 L -27.2952,-454.239 L -27.7778,-454.59
 L -28.2126,-454.998 L -28.5928,-455.458 L -28.9124,-455.962 L -29.1664,-456.501 L -29.3508,-457.069 L -29.4625,-457.655
 L -29.5,-458.25 L -29.5,-507.75 L -29.4625,-508.345 L -29.3508,-508.931 L -29.1664,-509.499 L -28.9124,-510.038
 L -28.5928,-510.542 L -28.2126,-511.002 L -27.7778,-511.41 L -27.2952,-511.761 L -26.7724,-512.048 L -26.2178,-512.268
 L -25.6401,-512.416 L -25.0482,-512.491 L 25.0482,-512.491 L 25.6401,-512.416 L 26.2178,-512.268 L 26.7724,-512.048
 L 27.2952,-511.761 L 27.7778,-511.41 L 28.2126,-511.002 L 28.5928,-510.542 L 28.9124,-510.038 L 29.1664,-509.499
 L 29.3508,-508.931 L 29.4625,-508.345 L 29.5,-507.75 L 29.5,-458.25 L 29.4625,-457.655 L 29.3508,-457.069
 L 29.1664,-456.501 L 28.9124,-455.962 L 28.5928,-455.458 L 28.2126,-454.998 L 27.7778,-454.59 L 27.2952,-454.239
 L 26.7724,-453.952 L 26.2178,-453.732 L 25.6401,-453.584 L 25.0482,-453.509 z
M 25.9369,-384.089 L 26.5451,-384.245 L 27.1289,-384.476 L 27.6791,-384.778 L 28.1871,-385.147 L 28.6448,-385.577
 L 29.0451,-386.061 L 29.3815,-386.591 L 29.6489,-387.159 L 29.8429,-387.757 L 29.9606,-388.373 L 30,-389
 L 30,-439 L 29.9606,-439.627 L 29.8429,-440.243 L 29.6489,-440.841 L 29.3815,-441.409 L 29.0451,-441.939
 L 28.6448,-442.423 L 28.1871,-442.853 L 27.6791,-443.222 L 27.1289,-443.524 L 26.5451,-443.755 L 25.9369,-443.911
 L 25.3139,-443.99 L -25.3139,-443.99 L -25.9369,-443.911 L -26.5451,-443.755 L -27.1289,-443.524 L -27.6791,-443.222
 L -28.1871,-442.853 L -28.6448,-442.423 L -29.0451,-441.939 L -29.3815,-441.409 L -29.6489,-440.841 L -29.8429,-440.243
 L -29.9606,-439.627 L -30,-439 L -30,-389 L -29.9606,-388.373 L -29.8429,-387.757 L -29.6489,-387.159
 L -29.3815,-386.591 L -29.0451,-386.061 L -28.6448,-385.577 L -28.1871,-385.147 L -27.6791,-384.778 L -27.1289,-384.476
 L -26.5451,-384.245 L -25.9369,-384.089 L -25.3139,-384.01 L 25.3139,-384.01 z
M -25.0482,-384.509 L -25.6401,-384.584 L -26.2178,-384.732 L -26.7724,-384.952 L -27.2952,-385.239 L -27.7778,-385.59
 L -28.2126,-385.998 L -28.5928,-386.458 L -28.9124,-386.962 L -29.1664,-387.501 L -29.3508,-388.069 L -29.4625,-388.655
 L -29.5,-389.25 L -29.5,-438.75 L -29.4625,-439.345 L -29.3508,-439.931 L -29.1664,-440.499 L -28.9124,-441.038
 L -28.5928,-441.542 L -28.2126,-442.002 L -27.7778,-442.41 L -27.2952,-442.761 L -26.7724,-443.048 L -26.2178,-443.268
 L -25.6401,-443.416 L -25.0482,-443.491 L 25.0482,-443.491 L 25.6401,-443.416 L 26.2178,-443.268 L 26.7724,-443.048
 L 27.2952,-442.761 L 27.7778,-442.41 L 28.2126,-442.002 L 28.5928,-441.542 L 28.9124,-441.038 L 29.1664,-440.499
 L 29.3508,-439.931 L 29.4625,-439.345 L 29.5,-438.75 L 29.5,-389.25 L 29.4625,-388.655 L 29.3508,-388.069
 L 29.1664,-387.501 L 28.9124,-386.962 L 28.5928,-386.458 L 28.2126,-385.998 L 27.7778,-385.59 L 27.2952,-385.239
 L 26.7724,-384.952 L 26.2178,-384.732 L 25.6401,-384.584 L 25.0482,-384.509 z
M 25.9369,-315.089 L 26.5451,-315.245 L 27.1289,-315.476 L 27.6791,-315.778 L 28.1871,-316.147 L 28.6448,-316.577
 L 29.0451,-317.061 L 29.3815,-317.591 L 29.6489,-318.159 L 29.8429,-318.757 L 29.9606,-319.373 L 30,-320
 L 30,-370 L 29.9606,-370.627 L 29.8429,-371.243 L 29.6489,-371.841 L 29.3815,-372.409 L 29.0451,-372.939
 L 28.6448,-373.423 L 28.1871,-373.853 L 27.6791,-374.222 L 27.1289,-374.524 L 26.5451,-374.755 L 25.9369,-374.911
 L 25.3139,-374.99 L -25.3139,-374.99 L -25.9369,-374.911 L -26.5451,-374.755 L -27.1289,-374.524 L -27.6791,-374.222
 L -28.1871,-373.853 L -28.6448,-373.423 L -29.0451,-372.939 L -29.3815,-372.409 L -29.6489,-371.841 L -29.8429,-371.243
 L -29.9606,-370.627 L -30,-370 L -30,-320 L -29.9606,-319.373 L -29.8429,-318.757 L -29.6489,-318.159
 L -29.3815,-317.591 L -29.0451,-317.061 L -28.6448,-316.577 L -28.1871,-316.147 L -27.6791,-315.778 L -27.1289,-315.476
 L -26.5451,-315.245 L -25.9369,-315.089 L -25.3139,-315.01 L 25.3139,-315.01 z
M -24.993,-316.388 L -25.4751,-316.449 L -25.9457,-316.57 L -26.3975,-316.749 L -26.8234,-316.983 L -27.2165,-317.269
 L -27.5707,-317.601 L -27.8805,-317.976 L -28.1408,-318.386 L -28.3477,-318.826 L -28.4979,-319.288 L -28.589,-319.765
 L -28.6195,-320.25 L -28.6195,-369.75 L -28.589,-370.235 L -28.4979,-370.712 L -28.3477,-371.174 L -28.1408,-371.614
 L -27.8805,-372.024 L -27.5707,-372.399 L -27.2165,-372.731 L -26.8234,-373.017 L -26.3975,-373.251 L -25.9457,-373.43
 L -25.4751,-373.551 L -24.993,-373.612 L 24.993,-373.612 L 25.4751,-373.551 L 25.9457,-373.43 L 26.3975,-373.251
 L 26.8234,-373.017 L 27.2165,-372.731 L 27.5707,-372.399 L 27.8805,-372.024 L 28.1408,-371.614 L 28.3477,-371.174
 L 28.4979,-370.712 L 28.589,-370.235 L 28.6195,-369.75 L 28.6195,-320.25 L 28.589,-319.765 L 28.4979,-319.288
 L 28.3477,-318.826 L 28.1408,-318.386 L 27.8805,-317.976 L 27.5707,-317.601 L 27.2165,-317.269 L 26.8234,-316.983
 L 26.3975,-316.749 L 25.9457,-316.57 L 25.4751,-316.449 L 24.993,-316.388 z
M 25.9369,-246.089 L 26.5451,-246.245 L 27.1289,-246.476 L 27.6791,-246.778 L 28.1871,-247.147 L 28.6448,-247.577
 L 29.0451,-248.061 L 29.3815,-248.591 L 29.6489,-249.159 L 29.8429,-249.757 L 29.9606,-250.373 L 30,-251
 L 30,-301 L 29.9606,-301.627 L 29.8429,-302.243 L 29.6489,-302.841 L 29.3815,-303.409 L 29.0451,-303.939
 L 28.6448,-304.423 L 28.1871,-304.853 L 27.6791,-305.222 L 27.1289,-305.524 L 26.5451,-305.755 L 25.9369,-305.911
 L 25.3139,-305.99 L -25.3139,-305.99 L -25.9369,-305.911 L -26.5451,-305.755 L -27.1289,-305.524 L -27.6791,-305.222
 L -28.1871,-304.853 L -28.6448,-304.423 L -29.0451,-303.939 L -29.3815,-303.409 L -29.6489,-302.841 L -29.8429,-302.243
 L -29.9606,-301.627 L -30,-301 L -30,-251 L -29.9606,-250.373 L -29.8429,-249.757 L -29.6489,-249.159
 L -29.3815,-248.591 L -29.0451,-248.061 L -28.6448,-247.577 L -28.1871,-247.147 L -27.6791,-246.778 L -27.1289,-246.476
 L -26.5451,-246.245 L -25.9369,-246.089 L -25.3139,-246.01 L 25.3139,-246.01 z
M 22.4058,-297.003 L 22.2189,-297.027 L 22.0365,-297.073 L 21.8613,-297.143 L 21.6963,-297.234 L 21.5439,-297.344
 L 21.4065,-297.473 L 21.2865,-297.618 L 21.1855,-297.777 L 21.1053,-297.948 L 21.0471,-298.127 L 21.0118,-298.312
 L 21,-298.5 L 21.0118,-298.688 L 21.0471,-298.873 L 21.1053,-299.052 L 21.1855,-299.223 L 21.2865,-299.382
 L 21.4065,-299.527 L 21.5439,-299.656 L 21.6963,-299.766 L 21.8613,-299.857 L 22.0365,-299.927 L 22.2189,-299.973
 L 22.4058,-299.997 L 22.5942,-299.997 L 22.7811,-299.973 L 22.9635,-299.927 L 23.1387,-299.857 L 23.3037,-299.766
 L 23.4561,-299.656 L 23.5934,-299.527 L 23.7135,-299.382 L 23.8145,-299.223 L 23.8947,-299.052 L 23.9529,-298.873
 L 23.9882,-298.688 L 24,-298.5 L 23.9882,-298.312 L 23.9529,-298.127 L 23.8947,-297.948 L 23.8145,-297.777
 L 23.7135,-297.618 L 23.5934,-297.473 L 23.4561,-297.344 L 23.3037,-297.234 L 23.1387,-297.143 L 22.9635,-297.073
 L 22.7811,-297.027 L 22.5942,-297.003 z
M -22.5942,-297.003 L -22.7811,-297.027 L -22.9635,-297.073 L -23.1387,-297.143 L -23.3037,-297.234 L -23.4561,-297.344
 L -23.5934,-297.473 L -23.7135,-297.618 L -23.8145,-297.777 L -23.8947,-297.948 L -23.9529,-298.127 L -23.9882,-298.312
 L -24,-298.5 L -23.9882,-298.688 L -23.9529,-298.873 L -23.8947,-299.052 L -23.8145,-299.223 L -23.7135,-299.382
 L -23.5934,-299.527 L -23.4561,-299.656 L -23.3037,-299.766 L -23.1387,-299.857 L -22.9635,-299.927 L -22.7811,-299.973
 L -22.5942,-299.997 L -22.4058,-299.997 L -22.2189,-299.973 L -22.0365,-299.927 L -21.8613,-299.857 L -21.6963,-299.766
 L -21.5439,-299.656 L -21.4065,-299.527 L -21.2865,-299.382 L -21.1855,-299.223 L -21.1053,-299.052 L -21.0471,-298.873
 L -21.0118,-298.688 L -21,-298.5 L -21.0118,-298.312 L -21.0471,-298.127 L -21.1053,-297.948 L -21.1855,-297.777
 L -21.2865,-297.618 L -21.4065,-297.473 L -21.5439,-297.344 L -21.6963,-297.234 L -21.8613,-297.143 L -22.0365,-297.073
 L -22.2189,-297.027 L -22.4058,-297.003 z
M -22.5942,-252.003 L -22.7811,-252.027 L -22.9635,-252.073 L -23.1387,-252.143 L -23.3037,-252.234 L -23.4561,-252.344
 L -23.5934,-252.473 L -23.7135,-252.618 L -23.8145,-252.777 L -23.8947,-252.948 L -23.9529,-253.127 L -23.9882,-253.312
 L -24,-253.5 L -23.9882,-253.688 L -23.9529,-253.873 L -23.8947,-254.052 L -23.8145,-254.223 L -23.7135,-254.382
 L -23.5934,-254.527 L -23.4561,-254.656 L -23.3037,-254.766 L -23.1387,-254.857 L -22.9635,-254.927 L -22.7811,-254.973
 L -22.5942,-254.997 L -22.4058,-254.997 L -22.2189,-254.973 L -22.0365,-254.927 L -21.8613,-254.857 L -21.6963,-254.766
 L -21.5439,-254.656 L -21.4065,-254.527 L -21.2865,-254.382 L -21.1855,-254.223 L -21.1053,-254.052 L -21.0471,-253.873
 L -21.0118,-253.688 L -21,-253.5 L -21.0118,-253.312 L -21.0471,-253.127 L -21.1053,-252.948 L -21.1855,-252.777
 L -21.2865,-252.618 L -21.4065,-252.473 L -21.5439,-252.344 L -21.6963,-252.234 L -21.8613,-252.143 L -22.0365,-252.073
 L -22.2189,-252.027 L -22.4058,-252.003 z
M 22.4058,-252.003 L 22.2189,-252.027 L 22.0365,-252.073 L 21.8613,-252.143 L 21.6963,-252.234 L 21.5439,-252.344
 L 21.4065,-252.473 L 21.2865,-252.618 L 21.1855,-252.777 L 21.1053,-252.948 L 21.0471,-253.127 L 21.0118,-253.312
 L 21,-253.5 L 21.0118,-253.688 L 21.0471,-253.873 L 21.1053,-254.052 L 21.1855,-254.223 L 21.2865,-254.382
 L 21.4065,-254.527 L 21.5439,-254.656 L 21.6963,-254.766 L 21.8613,-254.857 L 22.0365,-254.927 L 22.2189,-254.973
 L 22.4058,-254.997 L 22.5942,-254.997 L 22.7811,-254.973 L 22.9635,-254.927 L 23.1387,-254.857 L 23.3037,-254.766
 L 23.4561,-254.656 L 23.5934,-254.527 L 23.7135,-254.382 L 23.8145,-254.223 L 23.8947,-254.052 L 23.9529,-253.873
 L 23.9882,-253.688 L 24,-253.5 L 23.9882,-253.312 L 23.9529,-253.127 L 23.8947,-252.948 L 23.8145,-252.777
 L 23.7135,-252.618 L 23.5934,-252.473 L 23.4561,-252.344 L 23.3037,-252.234 L 23.1387,-252.143 L 22.9635,-252.073
 L 22.7811,-252.027 L 22.5942,-252.003 z
" stroke="black" fill="lightgray" stroke-width="0.5"/>
</svg>
