<?xml version="1.0" standalone="no"?>
<!DOCTYPE svg PUBLIC "-//W3C//DTD SVG 1.1//EN" "http://www.w3.org/Graphics/SVG/1.1/DTD/svg11.dtd">
<svg width="60mm" height="93mm" viewBox="-30 -93 60 93" xmlns="http://www.w3.org/2000/svg" version="1.1">
<title>OpenSCAD Model</title>
<path d="
M 29.5,-87.5 L 29.4606,-88.1267 L 29.3429,-88.7434 L 29.1489,-89.3406 L 28.8815,-89.9088 L 28.5451,-90.4389
 L 28.1448,-90.9227 L 27.6871,-91.3526 L 27.1791,-91.7216 L 26.6289,-92.0241 L 26.0451,-92.2553 L 25.4369,-92.4114
 L 24.8139,-92.4901 L -24.8139,-92.4901 L -25.4369,-92.4114 L -26.0451,-92.2553 L -26.6289,-92.0241 L -27.1791,-91.7216
 L -27.6871,-91.3526 L -28.1448,-90.9227 L -28.5451,-90.4389 L -28.8815,-89.9088 L -29.1489,-89.3406 L -29.3429,-88.7434
 L -29.4606,-88.1267 L -29.5,-87.5 L -29.5,-72 L 29.5,-72 z
M -22.6884,-82.5059 L -23.0621,-82.5531 L -23.427,-82.6468 L -23.7773,-82.7855 L -24.1075,-82.967 L -24.4123,-83.1884
 L -24.6869,-83.4464 L -24.927,-83.7366 L -25.1289,-84.0547 L -25.2893,-84.3956 L -25.4057,-84.7539 L -25.4763,-85.124
 L -25.5,-85.5 L -25.4763,-85.876 L -25.4057,-86.2461 L -25.2893,-86.6044 L -25.1289,-86.9453 L -24.927,-87.2634
 L -24.6869,-87.5536 L -24.4123,-87.8115 L -24.1075,-88.033 L -23.7773,-88.2145 L -23.427,-88.3532 L -23.0621,-88.4469
 L -22.6884,-88.4941 L -22.3116,-88.4941 L -21.9379,-88.4469 L -21.5729,-88.3532 L -21.2227,-88.2145 L -20.8925,-88.033
 L -20.5877,-87.8115 L -20.3131,-87.5536 L -20.0729,-87.2634 L -19.8711,-86.9453 L -19.7107,-86.6044 L -19.5942,-86.2461
 L -19.5237,-85.876 L -19.5,-85.5 L -19.5237,-85.124 L -19.5942,-84.7539 L -19.7107,-84.3956 L -19.8711,-84.0547
 L -20.0729,-83.7366 L -20.3131,-83.4464 L -20.5877,-83.1884 L -20.8925,-82.967 L -21.2227,-82.7855 L -21.5729,-82.6468
 L -21.9379,-82.5531 L -22.3116,-82.5059 z
M 22.3116,-82.5059 L 21.9379,-82.5531 L 21.5729,-82.6468 L 21.2227,-82.7855 L 20.8925,-82.967 L 20.5877,-83.1884
 L 20.3131,-83.4464 L 20.0729,-83.7366 L 19.8711,-84.0547 L 19.7107,-84.3956 L 19.5942,-84.7539 L 19.5237,-85.124
 L 19.5,-85.5 L 19.5237,-85.876 L 19.5942,-86.2461 L 19.7107,-86.6044 L 19.8711,-86.9453 L 20.0729,-87.2634
 L 20.3131,-87.5536 L 20.5877,-87.8115 L 20.8925,-88.033 L 21.2227,-88.2145 L 21.5729,-88.3532 L 21.9379,-88.4469
 L 22.3116,-88.4941 L 22.6884,-88.4941 L 23.0621,-88.4469 L 23.427,-88.3532 L 23.7773,-88.2145 L 24.1075,-88.033
 L 24.4123,-87.8115 L 24.6869,-87.5536 L 24.927,-87.2634 L 25.1289,-86.9453 L 25.2893,-86.6044 L 25.4057,-86.2461
 L 25.4763,-85.876 L 25.5,-85.5 L 25.4763,-85.124 L 25.4057,-84.7539 L 25.2893,-84.3956 L 25.1289,-84.0547
 L 24.927,-83.7366 L 24.6869,-83.4464 L 24.4123,-83.1884 L 24.1075,-82.967 L 23.7773,-82.7855 L 23.427,-82.6468
 L 23.0621,-82.5531 L 22.6884,-82.5059 z
M 7.31161,-82.5059 L 6.93785,-82.5531 L 6.57294,-82.6468 L 6.22266,-82.7855 L 5.89252,-82.967 L 5.58772,-83.1884
 L 5.31308,-83.4464 L 5.07294,-83.7366 L 4.87108,-84.0547 L 4.71066,-84.3956 L 4.59424,-84.7539 L 4.52365,-85.124
 L 4.5,-85.5 L 4.52365,-85.876 L 4.59424,-86.2461 L 4.71066,-86.6044 L 4.87108,-86.9453 L 5.07294,-87.2634
 L 5.31308,-87.5536 L 5.58772,-87.8115 L 5.89252,-88.033 L 6.22266,-88.2145 L 6.57294,-88.3532 L 6.93785,-88.4469
 L 7.31161,-88.4941 L 7.68837,-88.4941 L 8.06213,-88.4469 L 8.42705,-88.3532 L 8.77733,-88.2145 L 9.10747,-88.033
 L 9.41226,-87.8115 L 9.6869,-87.5536 L 9.92705,-87.2634 L 10.1289,-86.9453 L 10.2893,-86.6044 L 10.4057,-86.2461
 L 10.4763,-85.876 L 10.5,-85.5 L 10.4763,-85.124 L 10.4057,-84.7539 L 10.2893,-84.3956 L 10.1289,-84.0547
 L 9.92705,-83.7366 L 9.6869,-83.4464 L 9.41226,-83.1884 L 9.10747,-82.967 L 8.77733,-82.7855 L 8.42705,-82.6468
 L 8.06213,-82.5531 L 7.68837,-82.5059 z
M -7.68837,-82.5059 L -8.06213,-82.5531 L -8.42705,-82.6468 L -8.77733,-82.7855 L -9.10747,-82.967 L -9.41226,-83.1884
 L -9.6869,-83.4464 L -9.92705,-83.7366 L -10.1289,-84.0547 L -10.2893,-84.3956 L -10.4057,-84.7539 L -10.4763,-85.124
 L -10.5,-85.5 L -10.4763,-85.876 L -10.4057,-86.2461 L -10.2893,-86.6044 L -10.1289,-86.9453 L -9.92705,-87.2634
 L -9.6869,-87.5536 L -9.41226,-87.8115 L -9.10747,-88.033 L -8.77733,-88.2145 L -8.42705,-88.3532 L -8.06213,-88.4469
 L -7.68837,-88.4941 L -7.31161,-88.4941 L -6.93785,-88.4469 L -6.57294,-88.3532 L -6.22266,-88.2145 L -5.89252,-88.033
 L -5.58772,-87.8115 L -5.31308,-87.5536 L -5.07294,-87.2634 L -4.87108,-86.9453 L -4.71066,-86.6044 L -4.59424,-86.2461
 L -4.52365,-85.876 L -4.5,-85.5 L -4.52365,-85.124 L -4.59424,-84.7539 L -4.71066,-84.3956 L -4.87108,-84.0547
 L -5.07294,-83.7366 L -5.31308,-83.4464 L -5.58772,-83.1884 L -5.89252,-82.967 L -6.22266,-82.7855 L -6.57294,-82.6468
 L -6.93785,-82.5531 L -7.31161,-82.5059 z
M 14.5997,-83.1336 L 14.3063,-83.2024 L 14.0238,-83.3075 L 13.7567,-83.4471 L 13.5092,-83.6191 L 13.2853,-83.8208
 L 13.0883,-84.049 L 12.9215,-84.3 L 12.7875,-84.57 L 12.6884,-84.8546 L 12.6257,-85.1494 L 12.6005,-85.4497
 L 12.6131,-85.7509 L 12.6634,-86.048 L 12.7505,-86.3366 L 12.8731,-86.6119 L 13.0292,-86.8697 L 13.2164,-87.1059
 L 13.4318,-87.3168 L 13.6719,-87.499 L 13.9329,-87.6497 L 14.2107,-87.7665 L 14.501,-87.8475 L 14.7992,-87.8916
 L 15.1005,-87.8979 L 15.4002,-87.8664 L 15.6937,-87.7976 L 15.9762,-87.6925 L 16.2433,-87.5529 L 16.4908,-87.3809
 L 16.7147,-87.1792 L 16.9117,-86.951 L 17.0785,-86.7 L 17.2125,-86.43 L 17.3116,-86.1454 L 17.3743,-85.8506
 L 17.3995,-85.5502 L 17.3868,-85.2491 L 17.3366,-84.952 L 17.2495,-84.6634 L 17.1269,-84.3881 L 16.9707,-84.1303
 L 16.7835,-83.8941 L 16.5682,-83.6832 L 16.3281,-83.501 L 16.0671,-83.3503 L 15.7893,-83.2335 L 15.499,-83.1524
 L 15.2008,-83.1084 L 14.8995,-83.1021 z
M -0.400238,-83.1336 L -0.693665,-83.2024 L -0.976166,-83.3075 L -1.24326,-83.4471 L -1.49075,-83.6191 L -1.71472,-83.8208
 L -1.91167,-84.049 L -2.07846,-84.3 L -2.21246,-84.57 L -2.31158,-84.8546 L -2.37425,-85.1494 L -2.39946,-85.4497
 L -2.38684,-85.7509 L -2.33658,-86.048 L -2.24947,-86.3366 L -2.12688,-86.6119 L -1.97075,-86.8697 L -1.78354,-87.1059
 L -1.56821,-87.3168 L -1.32812,-87.499 L -1.06712,-87.6497 L -0.789276,-87.7665 L -0.498978,-87.8475 L -0.200821,-87.8916
 L 0.100494,-87.8979 L 0.400238,-87.8664 L 0.693665,-87.7976 L 0.976166,-87.6925 L 1.24326,-87.5529 L 1.49075,-87.3809
 L 1.71472,-87.1792 L 1.91167,-86.951 L 2.07846,-86.7 L 2.21246,-86.43 L 2.31158,-86.1454 L 2.37425,-85.8506
 L 2.39946,-85.5502 L 2.38684,-85.2491 L 2.33658,-84.952 L 2.24947,-84.6634 L 2.12688,-84.3881 L 1.97075,-84.1303
 L 1.78354,-83.8941 L 1.56821,-83.6832 L 1.32812,-83.501 L 1.06712,-83.3503 L 0.789276,-83.2335 L 0.498978,-83.1524
 L 0.200821,-83.1084 L -0.100494,-83.1021 z
M -15.4002,-83.1336 L -15.6937,-83.2024 L -15.9762,-83.3075 L -16.2433,-83.4471 L -16.4908,-83.6191 L -16.7147,-83.8208
 L -16.9117,-84.049 L -17.0785,-84.3 L -17.2125,-84.57 L -17.3116,-84.8546 L -17.3743,-85.1494 L -17.3995,-85.4497
 L -17.3868,-85.7509 L -17.3366,-86.048 L -17.2495,-86.3366 L -17.1269,-86.6119 L -16.9707,-86.8697 L -16.7835,-87.1059
 L -16.5682,-87.3168 L -16.3281,-87.499 L -16.0671,-87.6497 L -15.7893,-87.7665 L -15.499,-87.8475 L -15.2008,-87.8916
 L -14.8995,-87.8979 L -14.5997,-87.8664 L -14.3063,-87.7976 L -14.0238,-87.6925 L -13.7567,-87.5529 L -13.5092,-87.3809
 L -13.2853,-87.1792 L -13.0883,-86.951 L -12.9215,-86.7 L -12.7875,-86.43 L -12.6884,-86.1454 L -12.6257,-85.8506
 L -12.6005,-85.5502 L -12.6131,-85.2491 L -12.6634,-84.952 L -12.7505,-84.6634 L -12.8731,-84.3881 L -13.0292,-84.1303
 L -13.2164,-83.8941 L -13.4318,-83.6832 L -13.6719,-83.501 L -13.9329,-83.3503 L -14.2107,-83.2335 L -14.501,-83.1524
 L -14.7992,-83.1084 L -15.1005,-83.1021 z
M 2.15337,-75.6 L 2.15337,-81 L 12.8466,-81 L 12.8466,-75.6 z
M 17.1534,-75.6 L 17.1534,-81 L 27.8466,-81 L 27.8466,-75.6 z
M -12.8466,-75.6 L -12.8466,-81 L -2.15337,-81 L -2.15337,-75.6 z
M -27.8466,-75.6 L -27.8466,-81 L -17.1534,-81 L -17.1534,-75.6 z
M -25.0307,-51.6 L -27.8466,-51.6 L -27.8466,-57 L -25.0307,-57 L -25.0307,-59.9 L -25.1289,-60.0547
 L -25.2893,-60.3956 L -25.4057,-60.7539 L -25.4763,-61.124 L -25.5,-61.5 L -25.4763,-61.876 L -25.4057,-62.2461
 L -25.2893,-62.6044 L -25.1289,-62.9453 L -24.927,-63.2634 L -24.6869,-63.5536 L -24.4123,-63.8115 L -24.1075,-64.033
 L -23.7773,-64.2145 L -23.427,-64.3532 L -23.0621,-64.4469 L -22.6884,-64.4941 L -22.3116,-64.4941 L -21.9379,-64.4469
 L -21.5729,-64.3532 L -21.2227,-64.2145 L -20.8925,-64.033 L -20.5877,-63.8115 L -20.3131,-63.5536 L -20.0729,-63.2634
 L -19.8711,-62.9453 L -19.7107,-62.6044 L -19.5942,-62.2461 L -19.5237,-61.876 L -19.5,-61.5 L -19.5237,-61.124
 L -19.5942,-60.7539 L -19.7107,-60.3956 L -19.8711,-60.0547 L -19.9693,-59.9 L -19.9693,-57 L -17.1534,-57
 L -17.1534,-51.6 L -19.9693,-51.6 L -19.9693,-48 L -10.0307,-48 L -10.0307,-51.6 L -12.8466,-51.6
 L -12.8466,-57 L -10.0307,-57 L -10.0307,-59.9 L -10.1289,-60.0547 L -10.2893,-60.3956 L -10.4057,-60.7539
 L -10.4763,-61.124 L -10.5,-61.5 L -10.4763,-61.876 L -10.4057,-62.2461 L -10.2893,-62.6044 L -10.1289,-62.9453
 L -9.92705,-63.2634 L -9.6869,-63.5536 L -9.41226,-63.8115 L -9.10747,-64.033 L -8.77733,-64.2145 L -8.42705,-64.3532
 L -8.06213,-64.4469 L -7.68837,-64.4941 L -7.31161,-64.4941 L -6.93785,-64.4469 L -6.57294,-64.3532 L -6.22266,-64.2145
 L -5.89252,-64.033 L -5.58772,-63.8115 L -5.31308,-63.5536 L -5.07294,-63.2634 L -4.87108,-62.9453 L -4.71066,-62.6044
 L -4.59424,-62.2461 L -4.52365,-61.876 L -4.5,-61.5 L -4.52365,-61.124 L -4.59424,-60.7539 L -4.71066,-60.3956
 L -4.87108,-60.0547 L -4.96927,-59.9 L -4.96927,-57 L -2.15337,-57 L -2.15337,-51.6 L -4.96927,-51.6
 L -4.96927,-48 L 4.96927,-48 L 4.96927,-51.6 L 2.15337,-51.6 L 2.15337,-57 L 4.96927,-57
 L 4.96927,-59.9 L 4.87108,-60.0547 L 4.71066,-60.3956 L 4.59424,-60.7539 L 4.52365,-61.124 L 4.5,-61.5
 L 4.52365,-61.876 L 4.59424,-62.2461 L 4.71066,-62.6044 L 4.87108,-62.9453 L 5.07294,-63.2634 L 5.31308,-63.5536
 L 5.58772,-63.8115 L 5.89252,-64.033 L 6.22266,-64.2145 L 6.57294,-64.3532 L 6.93785,-64.4469 L 7.31161,-64.4941
 L 7.68837,-64.4941 L 8.06213,-64.4469 L 8.42705,-64.3532 L 8.77733,-64.2145 L 9.10747,-64.033 L 9.41226,-63.8115
 L 9.6869,-63.5536 L 9.92705,-63.2634 L 10.1289,-62.9453 L 10.2893,-62.6044 L 10.4057,-62.2461 L 10.4763,-61.876
 L 10.5,-61.5 L 10.4763,-61.124 L 10.4057,-60.7539 L 10.2893,-60.3956 L 10.1289,-60.0547 L 10.0307,-59.9
 L 10.0307,-57 L 12.8466,-57 L 12.8466,-51.6 L 10.0307,-51.6 L 10.0307,-48 L 19.9693,-48
 L 19.9693,-51.6 L 17.1534,-51.6 L 17.1534,-57 L 19.9693,-57 L 19.9693,-59.9 L 19.8711,-60.0547
 L 19.7107,-60.3956 L 19.5942,-60.7539 L 19.5237,-61.124 L 19.5,-61.5 L 19.5237,-61.876 L 19.5942,-62.2461
 L 19.7107,-62.6044 L 19.8711,-62.9453 L 20.0729,-63.2634 L 20.3131,-63.5536 L 20.5877,-63.8115 L 20.8925,-64.033
 L 21.2227,-64.2145 L 21.5729,-64.3532 L 21.9379,-64.4469 L 22.3116,-64.4941 L 22.6884,-64.4941 L 23.0621,-64.4469
 L 23.427,-64.3532 L 23.7773,-64.2145 L 24.1075,-64.033 L 24.4123,-63.8115 L 24.6869,-63.5536 L 24.927,-63.2634
 L 25.1289,-62.9453 L 25.2893,-62.6044 L 25.4057,-62.2461 L 25.4763,-61.876 L 25.5,-61.5 L 25.4763,-61.124
 L 25.4057,-60.7539 L 25.2893,-60.3956 L 25.1289,-60.0547 L 25.0307,-59.9 L 25.0307,-57 L 27.8466,-57
 L 27.8466,-51.6 L 25.0307,-51.6 L 25.0307,-48 L 29.5,-48 L 29.5,-63.5 L 29.4606,-64.1267
 L 29.3429,-64.7434 L 29.1489,-65.3406 L 28.8815,-65.9088 L 28.5451,-66.4389 L 28.1448,-66.9227 L 27.6871,-67.3526
 L 27.1791,-67.7216 L 26.6289,-68.0241 L 26.0451,-68.2553 L 25.4369,-68.4114 L 24.8139,-68.4901 L -24.8139,-68.4901
 L -25.4369,-68.4114 L -26.0451,-68.2553 L -26.6289,-68.0241 L -27.1791,-67.7216 L -27.6871,-67.3526 L -28.1448,-66.9227
 L -28.5451,-66.4389 L -28.8815,-65.9088 L -29.1489,-65.3406 L -29.3429,-64.7434 L -29.4606,-64.1267 L -29.5,-63.5
 L -29.5,-48 L -25.0307,-48 z
M -16.6733,-58.6018 L -18.3466,-61.5 L -16.6733,-64.3982 L -13.3267,-64.3982 L -11.6534,-61.5 L -13.3267,-58.6018
 z
M 13.3267,-58.6018 L 11.6534,-61.5 L 13.3267,-64.3982 L 16.6733,-64.3982 L 18.3466,-61.5 L 16.6733,-58.6018
 z
M -0.0784454,-60.0029 L -0.0941772,-60.0029 L -0.172073,-60.0128 L -0.250153,-60.021 L -0.265457,-60.0246 L -0.281067,-60.0266
 L -0.357117,-60.0461 L -0.433533,-60.064 L -0.448288,-60.0695 L -0.463516,-60.0734 L -0.536499,-60.1023 L -0.610092,-60.1297
 L -0.624039,-60.137 L -0.638657,-60.1427 L -0.707443,-60.1806 L -0.777039,-60.2169 L -0.789948,-60.2259 L -0.803726,-60.2335
 L -0.867233,-60.2796 L -0.931717,-60.3244 L -0.943405,-60.335 L -0.956131,-60.3442 L -1.01335,-60.398 L -1.0717,-60.4505
 L -1.08199,-60.4624 L -1.09344,-60.4732 L -1.14348,-60.5336 L -1.19479,-60.5931 L -1.20349,-60.6062 L -1.21352,-60.6183
 L -1.25558,-60.6846 L -1.29903,-60.75 L -1.30602,-60.7641 L -1.31445,-60.7774 L -1.34787,-60.8484 L -1.38278,-60.9187
 L -1.38795,-60.9336 L -1.39465,-60.9478 L -1.41891,-61.0225 L -1.44473,-61.0966 L -1.44801,-61.112 L -1.45287,-61.127
 L -1.46758,-61.2041 L -1.4839,-61.2809 L -1.48521,-61.2965 L -1.48816,-61.312 L -1.49309,-61.3904 L -1.49966,-61.4686
 L -1.49901,-61.4843 L -1.5,-61.5 L -1.49506,-61.5784 L -1.49178,-61.6568 L -1.48915,-61.6723 L -1.48816,-61.688
 L -1.47345,-61.7651 L -1.46036,-61.8425 L -1.45581,-61.8576 L -1.45287,-61.873 L -1.42862,-61.9477 L -1.40591,-62.0229
 L -1.39952,-62.0372 L -1.39465,-62.0522 L -1.36124,-62.1232 L -1.3293,-62.1949 L -1.32115,-62.2084 L -1.31445,-62.2226
 L -1.27238,-62.2889 L -1.23172,-62.3561 L -1.22194,-62.3684 L -1.21352,-62.3817 L -1.16347,-62.4422 L -1.11472,-62.5037
 L -1.10347,-62.5147 L -1.09344,-62.5268 L -1.03621,-62.5806 L -0.980118,-62.6355 L -0.96759,-62.645 L -0.956131,-62.6558
 L -0.892609,-62.7019 L -0.830078,-62.7494 L -0.816452,-62.7572 L -0.803726,-62.7665 L -0.73494,-62.8043 L -0.666946,-62.8436
 L -0.652435,-62.8497 L -0.638657,-62.8572 L -0.565674,-62.8861 L -0.493286,-62.9165 L -0.478134,-62.9208 L -0.463516,-62.9266
 L -0.387482,-62.9461 L -0.311859,-62.9672 L -0.296295,-62.9695 L -0.281067,-62.9734 L -0.203171,-62.9833 L -0.125504,-62.9947
 L -0.109787,-62.9951 L -0.0941772,-62.997 L -0.0156555,-62.997 L 0.0628052,-62.9987 L 0.0784454,-62.997 L 0.0941772,-62.997
 L 0.172073,-62.9872 L 0.250153,-62.979 L 0.265457,-62.9754 L 0.281067,-62.9734 L 0.357117,-62.9539 L 0.433533,-62.936
 L 0.448288,-62.9305 L 0.463516,-62.9266 L 0.536499,-62.8977 L 0.610092,-62.8703 L 0.624039,-62.863 L 0.638657,-62.8572
 L 0.707443,-62.8194 L 0.777039,-62.783 L 0.789948,-62.7741 L 0.803726,-62.7665 L 0.867233,-62.7204 L 0.931717,-62.6755
 L 0.943405,-62.665 L 0.956131,-62.6558 L 1.01335,-62.602 L 1.0717,-62.5495 L 1.08199,-62.5376 L 1.09344,-62.5268
 L 1.14348,-62.4663 L 1.19479,-62.4069 L 1.20349,-62.3938 L 1.21352,-62.3817 L 1.25557,-62.3154 L 1.29903,-62.25
 L 1.30603,-62.2359 L 1.31445,-62.2226 L 1.34787,-62.1516 L 1.38278,-62.0813 L 1.38795,-62.0664 L 1.39465,-62.0522
 L 1.41891,-61.9775 L 1.44473,-61.9034 L 1.44801,-61.888 L 1.45287,-61.873 L 1.46758,-61.7959 L 1.4839,-61.7191
 L 1.48521,-61.7034 L 1.48816,-61.688 L 1.49309,-61.6096 L 1.49966,-61.5314 L 1.49901,-61.5157 L 1.5,-61.5
 L 1.49506,-61.4216 L 1.49178,-61.3432 L 1.48915,-61.3277 L 1.48816,-61.312 L 1.47345,-61.2349 L 1.46036,-61.1575
 L 1.45581,-61.1424 L 1.45287,-61.127 L 1.42862,-61.0523 L 1.40591,-60.9771 L 1.39952,-60.9628 L 1.39465,-60.9478
 L 1.36124,-60.8768 L 1.3293,-60.8051 L 1.32115,-60.7916 L 1.31445,-60.7774 L 1.27238,-60.7111 L 1.23172,-60.6439
 L 1.22194,-60.6316 L 1.21352,-60.6183 L 1.16347,-60.5578 L 1.11472,-60.4963 L 1.10347,-60.4853 L 1.09344,-60.4732
 L 1.03621,-60.4194 L 0.980118,-60.3645 L 0.96759,-60.355 L 0.956131,-60.3442 L 0.892609,-60.2981 L 0.830078,-60.2506
 L 0.816452,-60.2428 L 0.803726,-60.2335 L 0.73494,-60.1957 L 0.666946,-60.1564 L 0.652435,-60.1503 L 0.638657,-60.1427
 L 0.565674,-60.1139 L 0.493286,-60.0834 L 0.478134,-60.0792 L 0.463516,-60.0734 L 0.387482,-60.0539 L 0.311859,-60.0328
 L 0.296295,-60.0305 L 0.281067,-60.0266 L 0.203171,-60.0167 L 0.125504,-60.0052 L 0.109787,-60.0049 L 0.0941772,-60.0029
 L 0.0156555,-60.0029 L -0.0628052,-60.0013 z
M -25.0942,-27.6 L -27.8466,-27.6 L -27.8466,-33 L -25.0942,-33 L -25.0942,-36 L -25.1289,-36.0547
 L -25.2893,-36.3956 L -25.4057,-36.7539 L -25.4763,-37.124 L -25.5,-37.5 L -25.4763,-37.876 L -25.4057,-38.2461
 L -25.2893,-38.6044 L -25.1289,-38.9453 L -24.927,-39.2634 L -24.6869,-39.5536 L -24.4123,-39.8115 L -24.1075,-40.033
 L -23.7773,-40.2145 L -23.427,-40.3532 L -23.0621,-40.4469 L -22.6884,-40.4941 L -22.3116,-40.4941 L -21.9379,-40.4469
 L -21.5729,-40.3532 L -21.2227,-40.2145 L -20.8925,-40.033 L -20.5877,-39.8115 L -20.3131,-39.5536 L -20.0729,-39.2634
 L -19.8711,-38.9453 L -19.7107,-38.6044 L -19.5942,-38.2461 L -19.5237,-37.876 L -19.5,-37.5 L -19.5237,-37.124
 L -19.5942,-36.7539 L -19.7107,-36.3956 L -19.8711,-36.0547 L -19.9058,-36 L -19.9058,-33 L -17.1534,-33
 L -17.1534,-27.6 L -19.9058,-27.6 L -19.9058,-24 L -10.0942,-24 L -10.0942,-27.6 L -12.8466,-27.6
 L -12.8466,-33 L -10.0942,-33 L -10.0942,-36 L -10.1289,-36.0547 L -10.2893,-36.3956 L -10.4057,-36.7539
 L -10.4763,-37.124 L -10.5,-37.5 L -10.4763,-37.876 L -10.4057,-38.2461 L -10.2893,-38.6044 L -10.1289,-38.9453
 L -9.92705,-39.2634 L -9.6869,-39.5536 L -9.41226,-39.8115 L -9.10747,-40.033 L -8.77733,-40.2145 L -8.42705,-40.3532
 L -8.06213,-40.4469 L -7.68837,-40.4941 L -7.31161,-40.4941 L -6.93785,-40.4469 L -6.57294,-40.3532 L -6.22266,-40.2145
 L -5.89252,-40.033 L -5.58772,-39.8115 L -5.31308,-39.5536 L -5.07294,-39.2634 L -4.87108,-38.9453 L -4.71066,-38.6044
 L -4.59424,-38.2461 L -4.52365,-37.876 L -4.5,-37.5 L -4.52365,-37.124 L -4.59424,-36.7539 L -4.71066,-36.3956
 L -4.87108,-36.0547 L -4.90581,-36 L -4.90581,-33 L -2.15337,-33 L -2.15337,-27.6 L -4.90581,-27.6
 L -4.90581,-24 L 4.90581,-24 L 4.90581,-27.6 L 2.15337,-27.6 L 2.15337,-33 L 4.90581,-33
 L 4.90581,-36 L 4.87108,-36.0547 L 4.71066,-36.3956 L 4.59424,-36.7539 L 4.52365,-37.124 L 4.5,-37.5
 L 4.52365,-37.876 L 4.59424,-38.2461 L 4.71066,-38.6044 L 4.87108,-38.9453 L 5.07294,-39.2634 L 5.31308,-39.5536
 L 5.58772,-39.8115 L 5.89252,-40.033 L 6.22266,-40.2145 L 6.57294,-40.3532 L 6.93785,-40.4469 L 7.31161,-40.4941
 L 7.68837,-40.4941 L 8.06213,-40.4469 L 8.42705,-40.3532 L 8.77733,-40.2145 L 9.10747,-40.033 L 9.41226,-39.8115
 L 9.6869,-39.5536 L 9.92705,-39.2634 L 10.1289,-38.9453 L 10.2893,-38.6044 L 10.4057,-38.2461 L 10.4763,-37.876
 L 10.5,-37.5 L 10.4763,-37.124 L 10.4057,-36.7539 L 10.2893,-36.3956 L 10.1289,-36.0547 L 10.0942,-36
 L 10.0942,-33 L 12.8466,-33 L 12.8466,-27.6 L 10.0942,-27.6 L 10.0942,-24 L 19.9058,-24
 L 19.9058,-27.6 L 17.1534,-27.6 L 17.1534,-33 L 19.9058,-33 L 19.9058,-36 L 19.8711,-36.0547
 L 19.7107,-36.3956 L 19.5942,-36.7539 L 19.5237,-37.124 L 19.5,-37.5 L 19.5237,-37.876 L 19.5942,-38.2461
 L 19.7107,-38.6044 L 19.8711,-38.9453 L 20.0729,-39.2634 L 20.3131,-39.5536 L 20.5877,-39.8115 L 20.8925,-40.033
 L 21.2227,-40.2145 L 21.5729,-40.3532 L 21.9379,-40.4469 L 22.3116,-40.4941 L 22.6884,-40.4941 L 23.0621,-40.4469
 L 23.427,-40.3532 L 23.7773,-40.2145 L 24.1075,-40.033 L 24.4123,-39.8115 L 24.6869,-39.5536 L 24.927,-39.2634
 L 25.1289,-38.9453 L 25.2893,-38.6044 L 25.4057,-38.2461 L 25.4763,-37.876 L 25.5,-37.5 L 25.4763,-37.124
 L 25.4057,-36.7539 L 25.2893,-36.3956 L 25.1289,-36.0547 L 25.0942,-36 L 25.0942,-33 L 27.8466,-33
 L 27.8466,-27.6 L 25.0942,-27.6 L 25.0942,-24 L 29.5,-24 L 29.5,-39.5 L 29.4606,-40.1267
 L 29.3429,-40.7434 L 29.1489,-41.3406 L 28.8815,-41.9088 L 28.5451,-42.4389 L 28.1448,-42.9227 L 27.6871,-43.3526
 L 27.1791,-43.7216 L 26.6289,-44.0241 L 26.0451,-44.2553 L 25.4369,-44.4114 L 24.8139,-44.4901 L -24.8139,-44.4901
 L -25.4369,-44.4114 L -26.0451,-44.2553 L -26.6289,-44.0241 L -27.1791,-43.7216 L -27.6871,-43.3526 L -28.1448,-42.9227
 L -28.5451,-42.4389 L -28.8815,-41.9088 L -29.1489,-41.3406 L -29.3429,-40.7434 L -29.4606,-40.1267 L -29.5,-39.5
 L -29.5,-24 L -25.0942,-24 z
M 13.3267,-34.6018 L 11.6534,-37.5 L 13.3267,-40.3982 L 16.6733,-40.3982 L 18.3466,-37.5 L 16.6733,-34.6018
 z
M -16.6733,-34.6018 L -18.3466,-37.5 L -16.6733,-40.3982 L -13.3267,-40.3982 L -11.6534,-37.5 L -13.3267,-34.6018
 z
M -0.0784454,-36.0029 L -0.0941772,-36.0029 L -0.172073,-36.0128 L -0.250153,-36.021 L -0.265457,-36.0246 L -0.281067,-36.0266
 L -0.357117,-36.0461 L -0.433533,-36.064 L -0.448288,-36.0695 L -0.463516,-36.0734 L -0.536499,-36.1023 L -0.610092,-36.1297
 L -0.624039,-36.137 L -0.638657,-36.1427 L -0.707443,-36.1806 L -0.777039,-36.2169 L -0.789948,-36.2259 L -0.803726,-36.2335
 L -0.867233,-36.2796 L -0.931717,-36.3244 L -0.943405,-36.335 L -0.956131,-36.3442 L -1.01335,-36.398 L -1.0717,-36.4505
 L -1.08199,-36.4624 L -1.09344,-36.4732 L -1.14348,-36.5336 L -1.19479,-36.5931 L -1.20349,-36.6062 L -1.21352,-36.6183
 L -1.25558,-36.6846 L -1.29903,-36.75 L -1.30602,-36.7641 L -1.31445,-36.7774 L -1.34787,-36.8484 L -1.38278,-36.9187
 L -1.38795,-36.9336 L -1.39465,-36.9478 L -1.41891,-37.0225 L -1.44473,-37.0966 L -1.44801,-37.112 L -1.45287,-37.127
 L -1.46758,-37.2041 L -1.4839,-37.2809 L -1.48521,-37.2965 L -1.48816,-37.312 L -1.49309,-37.3904 L -1.49966,-37.4686
 L -1.49901,-37.4843 L -1.5,-37.5 L -1.49506,-37.5784 L -1.49178,-37.6568 L -1.48915,-37.6723 L -1.48816,-37.688
 L -1.47345,-37.7651 L -1.46036,-37.8425 L -1.45581,-37.8576 L -1.45287,-37.873 L -1.42862,-37.9477 L -1.40591,-38.0229
 L -1.39952,-38.0372 L -1.39465,-38.0522 L -1.36124,-38.1232 L -1.3293,-38.1949 L -1.32115,-38.2084 L -1.31445,-38.2226
 L -1.27238,-38.2889 L -1.23172,-38.3561 L -1.22194,-38.3684 L -1.21352,-38.3817 L -1.16347,-38.4422 L -1.11472,-38.5037
 L -1.10347,-38.5147 L -1.09344,-38.5268 L -1.03621,-38.5806 L -0.980118,-38.6355 L -0.96759,-38.645 L -0.956131,-38.6558
 L -0.892609,-38.7019 L -0.830078,-38.7494 L -0.816452,-38.7572 L -0.803726,-38.7665 L -0.73494,-38.8043 L -0.666946,-38.8436
 L -0.652435,-38.8497 L -0.638657,-38.8572 L -0.565674,-38.8861 L -0.493286,-38.9165 L -0.478134,-38.9208 L -0.463516,-38.9266
 L -0.387482,-38.9461 L -0.311859,-38.9672 L -0.296295,-38.9695 L -0.281067,-38.9734 L -0.203171,-38.9833 L -0.125504,-38.9947
 L -0.109787,-38.9951 L -0.0941772,-38.997 L -0.0156555,-38.997 L 0.0628052,-38.9987 L 0.0784454,-38.997 L 0.0941772,-38.997
 L 0.172073,-38.9872 L 0.250153,-38.979 L 0.265457,-38.9754 L 0.281067,-38.9734 L 0.357117,-38.9539 L 0.433533,-38.936
 L 0.448288,-38.9305 L 0.463516,-38.9266 L 0.536499,-38.8977 L 0.610092,-38.8703 L 0.624039,-38.863 L 0.638657,-38.8572
 L 0.707443,-38.8194 L 0.777039,-38.783 L 0.789948,-38.7741 L 0.803726,-38.7665 L 0.867233,-38.7204 L 0.931717,-38.6755
 L 0.943405,-38.665 L 0.956131,-38.6558 L 1.01335,-38.602 L 1.0717,-38.5495 L 1.08199,-38.5376 L 1.09344,-38.5268
 L 1.14348,-38.4663 L 1.19479,-38.4069 L 1.20349,-38.3938 L 1.21352,-38.3817 L 1.25557,-38.3154 L 1.29903,-38.25
 L 1.30603,-38.2359 L 1.31445,-38.2226 L 1.34787,-38.1516 L 1.38278,-38.0813 L 1.38795,-38.0664 L 1.39465,-38.0522
 L 1.41891,-37.9775 L 1.44473,-37.9034 L 1.44801,-37.888 L 1.45287,-37.873 L 1.46758,-37.7959 L 1.4839,-37.7191
 L 1.48521,-37.7034 L 1.48816,-37.688 L 1.49309,-37.6096 L 1.49966,-37.5314 L 1.49901,-37.5157 L 1.5,-37.5
 L 1.49506,-37.4216 L 1.49178,-37.3432 L 1.48915,-37.3277 L 1.48816,-37.312 L 1.47345,-37.2349 L 1.46036,-37.1575
 L 1.45581,-37.1424 L 1.45287,-37.127 L 1.42862,-37.0523 L 1.40591,-36.9771 L 1.39952,-36.9628 L 1.39465,-36.9478
 L 1.36124,-36.8768 L 1.3293,-36.8051 L 1.32115,-36.7916 L 1.31445,-36.7774 L 1.27238,-36.7111 L 1.23172,-36.6439
 L 1.22194,-36.6316 L 1.21352,-36.6183 L 1.16347,-36.5578 L 1.11472,-36.4963 L 1.10347,-36.4853 L 1.09344,-36.4732
 L 1.03621,-36.4194 L 0.980118,-36.3645 L 0.96759,-36.355 L 0.956131,-36.3442 L 0.892609,-36.2981 L 0.830078,-36.2506
 L 0.816452,-36.2428 L 0.803726,-36.2335 L 0.73494,-36.1957 L 0.666946,-36.1564 L 0.652435,-36.1503 L 0.638657,-36.1427
 L 0.565674,-36.1139 L 0.493286,-36.0834 L 0.478134,-36.0792 L 0.463516,-36.0734 L 0.387482,-36.0539 L 0.311859,-36.0328
 L 0.296295,-36.0305 L 0.281067,-36.0266 L 0.203171,-36.0167 L 0.125504,-36.0052 L 0.109787,-36.0049 L 0.0941772,-36.0029
 L 0.0156555,-36.0029 L -0.0628052,-36.0013 z
M 29.5,-15.5 L 29.4606,-16.1267 L 29.3429,-16.7434 L 29.1489,-17.3406 L 28.8815,-17.9088 L 28.5451,-18.4389
 L 28.1448,-18.9227 L 27.6871,-19.3526 L 27.1791,-19.7216 L 26.6289,-20.0241 L 26.0451,-20.2553 L 25.4369,-20.4114
 L 24.8139,-20.4901 L -24.8139,-20.4901 L -25.4369,-20.4114 L -26.0451,-20.2553 L -26.6289,-20.0241 L -27.1791,-19.7216
 L -27.6871,-19.3526 L -28.1448,-18.9227 L -28.5451,-18.4389 L -28.8815,-17.9088 L -29.1489,-17.3406 L -29.3429,-16.7434
 L -29.4606,-16.1267 L -29.5,-15.5 L -29.5,-0 L 29.5,-0 z
M -7.68837,-10.5059 L -8.06213,-10.5531 L -8.42705,-10.6468 L -8.77733,-10.7855 L -9.10747,-10.967 L -9.41226,-11.1884
 L -9.6869,-11.4464 L -9.92705,-11.7366 L -10.1289,-12.0547 L -10.2893,-12.3956 L -10.4057,-12.7539 L -10.4763,-13.124
 L -10.5,-13.5 L -10.4763,-13.876 L -10.4057,-14.2461 L -10.2893,-14.6044 L -10.1289,-14.9453 L -9.92705,-15.2634
 L -9.6869,-15.5536 L -9.41226,-15.8115 L -9.10747,-16.033 L -8.77733,-16.2145 L -8.42705,-16.3532 L -8.06213,-16.4469
 L -7.68837,-16.4941 L -7.31161,-16.4941 L -6.93785,-16.4469 L -6.57294,-16.3532 L -6.22266,-16.2145 L -5.89252,-16.033
 L -5.58772,-15.8115 L -5.31308,-15.5536 L -5.07294,-15.2634 L -4.87108,-14.9453 L -4.71066,-14.6044 L -4.59424,-14.2461
 L -4.52365,-13.876 L -4.5,-13.5 L -4.52365,-13.124 L -4.59424,-12.7539 L -4.71066,-12.3956 L -4.87108,-12.0547
 L -5.07294,-11.7366 L -5.31308,-11.4464 L -5.58772,-11.1884 L -5.89252,-10.967 L -6.22266,-10.7855 L -6.57294,-10.6468
 L -6.93785,-10.5531 L -7.31161,-10.5059 z
M 7.31161,-10.5059 L 6.93785,-10.5531 L 6.57294,-10.6468 L 6.22266,-10.7855 L 5.89252,-10.967 L 5.58772,-11.1884
 L 5.31308,-11.4464 L 5.07294,-11.7366 L 4.87108,-12.0547 L 4.71066,-12.3956 L 4.59424,-12.7539 L 4.52365,-13.124
 L 4.5,-13.5 L 4.52365,-13.876 L 4.59424,-14.2461 L 4.71066,-14.6044 L 4.87108,-14.9453 L 5.07294,-15.2634
 L 5.31308,-15.5536 L 5.58772,-15.8115 L 5.89252,-16.033 L 6.22266,-16.2145 L 6.57294,-16.3532 L 6.93785,-16.4469
 L 7.31161,-16.4941 L 7.68837,-16.4941 L 8.06213,-16.4469 L 8.42705,-16.3532 L 8.77733,-16.2145 L 9.10747,-16.033
 L 9.41226,-15.8115 L 9.6869,-15.5536 L 9.92705,-15.2634 L 10.1289,-14.9453 L 10.2893,-14.6044 L 10.4057,-14.2461
 L 10.4763,-13.876 L 10.5,-13.5 L 10.4763,-13.124 L 10.4057,-12.7539 L 10.2893,-12.3956 L 10.1289,-12.0547
 L 9.92705,-11.7366 L 9.6869,-11.4464 L 9.41226,-11.1884 L 9.10747,-10.967 L 8.77733,-10.7855 L 8.42705,-10.6468
 L 8.06213,-10.5531 L 7.68837,-10.5059 z
M 22.3116,-10.5059 L 21.9379,-10.5531 L 21.5729,-10.6468 L 21.2227,-10.7855 L 20.8925,-10.967 L 20.5877,-11.1884
 L 20.3131,-11.4464 L 20.0729,-11.7366 L 19.8711,-12.0547 L 19.7107,-12.3956 L 19.5942,-12.7539 L 19.5237,-13.124
 L 19.5,-13.5 L 19.5237,-13.876 L 19.5942,-14.2461 L 19.7107,-14.6044 L 19.8711,-14.9453 L 20.0729,-15.2634
 L 20.3131,-15.5536 L 20.5877,-15.8115 L 20.8925,-16.033 L 21.2227,-16.2145 L 21.5729,-16.3532 L 21.9379,-16.4469
 L 22.3116,-16.4941 L 22.6884,-16.4941 L 23.0621,-16.4469 L 23.427,-16.3532 L 23.7773,-16.2145 L 24.1075,-16.033
 L 24.4123,-15.8115 L 24.6869,-15.5536 L 24.927,-15.2634 L 25.1289,-14.9453 L 25.2893,-14.6044 L 25.4057,-14.2461
 L 25.4763,-13.876 L 25.5,-13.5 L 25.4763,-13.124 L 25.4057,-12.7539 L 25.2893,-12.3956 L 25.1289,-12.0547
 L 24.927,-11.7366 L 24.6869,-11.4464 L 24.4123,-11.1884 L 24.1075,-10.967 L 23.7773,-10.7855 L 23.427,-10.6468
 L 23.0621,-10.5531 L 22.6884,-10.5059 z
M -22.6884,-10.5059 L -23.0621,-10.5531 L -23.427,-10.6468 L -23.7773,-10.7855 L -24.1075,-10.967 L -24.4123,-11.1884
 L -24.6869,-11.4464 L -24.927,-11.7366 L -25.1289,-12.0547 L -25.2893,-12.3956 L -25.4057,-12.7539 L -25.4763,-13.124
 L -25.5,-13.5 L -25.4763,-13.876 L -25.4057,-14.2461 L -25.2893,-14.6044 L -25.1289,-14.9453 L -24.927,-15.2634
 L -24.6869,-15.5536 L -24.4123,-15.8115 L -24.1075,-16.033 L -23.7773,-16.2145 L -23.427,-16.3532 L -23.0621,-16.4469
 L -22.6884,-16.4941 L -22.3116,-16.4941 L -21.9379,-16.4469 L -21.5729,-16.3532 L -21.2227,-16.2145 L -20.8925,-16.033
 L -20.5877,-15.8115 L -20.3131,-15.5536 L -20.0729,-15.2634 L -19.8711,-14.9453 L -19.7107,-14.6044 L -19.5942,-14.2461
 L -19.5237,-13.876 L -19.5,-13.5 L -19.5237,-13.124 L -19.5942,-12.7539 L -19.7107,-12.3956 L -19.8711,-12.0547
 L -20.0729,-11.7366 L -20.3131,-11.4464 L -20.5877,-11.1884 L -20.8925,-10.967 L -21.2227,-10.7855 L -21.5729,-10.6468
 L -21.9379,-10.5531 L -22.3116,-10.5059 z
M 14.5997,-11.1336 L 14.3063,-11.2024 L 14.0238,-11.3075 L 13.7567,-11.4471 L 13.5092,-11.6191 L 13.2853,-11.8208
 L 13.0883,-12.049 L 12.9215,-12.3 L 12.7875,-12.57 L 12.6884,-12.8546 L 12.6257,-13.1494 L 12.6005,-13.4497
 L 12.6131,-13.7509 L 12.6634,-14.048 L 12.7505,-14.3366 L 12.8731,-14.6119 L 13.0292,-14.8697 L 13.2164,-15.1059
 L 13.4318,-15.3168 L 13.6719,-15.499 L 13.9329,-15.6497 L 14.2107,-15.7665 L 14.501,-15.8475 L 14.7992,-15.8916
 L 15.1005,-15.8979 L 15.4002,-15.8664 L 15.6937,-15.7976 L 15.9762,-15.6925 L 16.2433,-15.5529 L 16.4908,-15.3809
 L 16.7147,-15.1792 L 16.9117,-14.951 L 17.0785,-14.7 L 17.2125,-14.43 L 17.3116,-14.1454 L 17.3743,-13.8506
 L 17.3995,-13.5502 L 17.3868,-13.2491 L 17.3366,-12.952 L 17.2495,-12.6634 L 17.1269,-12.3881 L 16.9707,-12.1303
 L 16.7835,-11.8941 L 16.5682,-11.6832 L 16.3281,-11.501 L 16.0671,-11.3503 L 15.7893,-11.2335 L 15.499,-11.1524
 L 15.2008,-11.1084 L 14.8995,-11.1021 z
M -0.400238,-11.1336 L -0.693665,-11.2024 L -0.976166,-11.3075 L -1.24326,-11.4471 L -1.49075,-11.6191 L -1.71472,-11.8208
 L -1.91167,-12.049 L -2.07846,-12.3 L -2.21246,-12.57 L -2.31158,-12.8546 L -2.37425,-13.1494 L -2.39946,-13.4497
 L -2.38684,-13.7509 L -2.33658,-14.048 L -2.24947,-14.3366 L -2.12688,-14.6119 L -1.97075,-14.8697 L -1.78354,-15.1059
 L -1.56821,-15.3168 L -1.32812,-15.499 L -1.06712,-15.6497 L -0.789276,-15.7665 L -0.498978,-15.8475 L -0.200821,-15.8916
 L 0.100494,-15.8979 L 0.400238,-15.8664 L 0.693665,-15.7976 L 0.976166,-15.6925 L 1.24326,-15.5529 L 1.49075,-15.3809
 L 1.71472,-15.1792 L 1.91167,-14.951 L 2.07846,-14.7 L 2.21246,-14.43 L 2.31158,-14.1454 L 2.37425,-13.8506
 L 2.39946,-13.5502 L 2.38684,-13.2491 L 2.33658,-12.952 L 2.24947,-12.6634 L 2.12688,-12.3881 L 1.97075,-12.1303
 L 1.78354,-11.8941 L 1.56821,-11.6832 L 1.32812,-11.501 L 1.06712,-11.3503 L 0.789276,-11.2335 L 0.498978,-11.1524
 L 0.200821,-11.1084 L -0.100494,-11.1021 z
M -15.4002,-11.1336 L -15.6937,-11.2024 L -15.9762,-11.3075 L -16.2433,-11.4471 L -16.4908,-11.6191 L -16.7147,-11.8208
 L -16.9117,-12.049 L -17.0785,-12.3 L -17.2125,-12.57 L -17.3116,-12.8546 L -17.3743,-13.1494 L -17.3995,-13.4497
 L -17.3868,-13.7509 L -17.3366,-14.048 L -17.2495,-14.3366 L -17.1269,-14.6119 L -16.9707,-14.8697 L -16.7835,-15.1059
 L -16.5682,-15.3168 L -16.3281,-15.499 L -16.0671,-15.6497 L -15.7893,-15.7665 L -15.499,-15.8475 L -15.2008,-15.8916
 L -14.8995,-15.8979 L -14.5997,-15.8664 L -14.3063,-15.7976 L -14.0238,-15.6925 L -13.7567,-15.5529 L -13.5092,-15.3809
 L -13.2853,-15.1792 L -13.0883,-14.951 L -12.9215,-14.7 L -12.7875,-14.43 L -12.6884,-14.1454 L -12.6257,-13.8506
 L -12.6005,-13.5502 L -12.6131,-13.2491 L -12.6634,-12.952 L -12.7505,-12.6634 L -12.8731,-12.3881 L -13.0292,-12.1303
 L -13.2164,-11.8941 L -13.4318,-11.6832 L -13.6719,-11.501 L -13.9329,-11.3503 L -14.2107,-11.2335 L -14.501,-11.1524
 L -14.7992,-11.1084 L -15.1005,-11.1021 z
M 2.15337,-3.59999 L 2.15337,-9 L 12.8466,-9 L 12.8466,-3.59999 z
M -27.8466,-3.59999 L -27.8466,-9 L -17.1534,-9 L -17.1534,-3.59999 z
M -12.8466,-3.59999 L -12.8466,-9 L -2.15337,-9 L -2.15337,-3.59999 z
M 17.1534,-3.59999 L 17.1534,-9 L 27.8466,-9 L 27.8466,-3.59999 z
" stroke="black" fill="lightgray" stroke-width="0.5"/>
</svg>
