  0
SECTION
  2
BLOCKS
  0
ENDSEC
  0
SECTION
  2
ENTITIES
  0
LINE
  8
0
 10
18.4369
 20
382.589
 11
19.0451
 21
382.745
  0
LINE
  8
0
 10
19.0451
 20
382.745
 11
19.6289
 21
382.976
  0
LINE
  8
0
 10
19.6289
 20
382.976
 11
20.1791
 21
383.278
  0
LINE
  8
0
 10
20.1791
 20
383.278
 11
20.6871
 21
383.647
  0
LINE
  8
0
 10
20.6871
 20
383.647
 11
21.1448
 21
384.077
  0
LINE
  8
0
 10
21.1448
 20
384.077
 11
21.5451
 21
384.561
  0
LINE
  8
0
 10
21.5451
 20
384.561
 11
21.8815
 21
385.091
  0
LINE
  8
0
 10
21.8815
 20
385.091
 11
22.1489
 21
385.659
  0
LINE
  8
0
 10
22.1489
 20
385.659
 11
22.3429
 21
386.257
  0
LINE
  8
0
 10
22.3429
 20
386.257
 11
22.4606
 21
386.873
  0
LINE
  8
0
 10
22.4606
 20
386.873
 11
22.5
 21
387.5
  0
LINE
  8
0
 10
22.5
 20
387.5
 11
22.5
 21
452.5
  0
LINE
  8
0
 10
22.5
 20
452.5
 11
22.4606
 21
453.127
  0
LINE
  8
0
 10
22.4606
 20
453.127
 11
22.3429
 21
453.743
  0
LINE
  8
0
 10
22.3429
 20
453.743
 11
22.1489
 21
454.341
  0
LINE
  8
0
 10
22.1489
 20
454.341
 11
21.8815
 21
454.909
  0
LINE
  8
0
 10
21.8815
 20
454.909
 11
21.5451
 21
455.439
  0
LINE
  8
0
 10
21.5451
 20
455.439
 11
21.1448
 21
455.923
  0
LINE
  8
0
 10
21.1448
 20
455.923
 11
20.6871
 21
456.353
  0
LINE
  8
0
 10
20.6871
 20
456.353
 11
20.1791
 21
456.722
  0
LINE
  8
0
 10
20.1791
 20
456.722
 11
19.6289
 21
457.024
  0
LINE
  8
0
 10
19.6289
 20
457.024
 11
19.0451
 21
457.255
  0
LINE
  8
0
 10
19.0451
 20
457.255
 11
18.4369
 21
457.411
  0
LINE
  8
0
 10
18.4369
 20
457.411
 11
17.8139
 21
457.49
  0
LINE
  8
0
 10
17.8139
 20
457.49
 11
-17.8139
 21
457.49
  0
LINE
  8
0
 10
-17.8139
 20
457.49
 11
-18.4369
 21
457.411
  0
LINE
  8
0
 10
-18.4369
 20
457.411
 11
-19.0451
 21
457.255
  0
LINE
  8
0
 10
-19.0451
 20
457.255
 11
-19.6289
 21
457.024
  0
LINE
  8
0
 10
-19.6289
 20
457.024
 11
-20.1791
 21
456.722
  0
LINE
  8
0
 10
-20.1791
 20
456.722
 11
-20.6871
 21
456.353
  0
LINE
  8
0
 10
-20.6871
 20
456.353
 11
-21.1448
 21
455.923
  0
LINE
  8
0
 10
-21.1448
 20
455.923
 11
-21.5451
 21
455.439
  0
LINE
  8
0
 10
-21.5451
 20
455.439
 11
-21.8815
 21
454.909
  0
LINE
  8
0
 10
-21.8815
 20
454.909
 11
-22.1489
 21
454.341
  0
LINE
  8
0
 10
-22.1489
 20
454.341
 11
-22.3429
 21
453.743
  0
LINE
  8
0
 10
-22.3429
 20
453.743
 11
-22.4606
 21
453.127
  0
LINE
  8
0
 10
-22.4606
 20
453.127
 11
-22.5
 21
452.5
  0
LINE
  8
0
 10
-22.5
 20
452.5
 11
-22.5
 21
387.5
  0
LINE
  8
0
 10
-22.5
 20
387.5
 11
-22.4606
 21
386.873
  0
LINE
  8
0
 10
-22.4606
 20
386.873
 11
-22.3429
 21
386.257
  0
LINE
  8
0
 10
-22.3429
 20
386.257
 11
-22.1489
 21
385.659
  0
LINE
  8
0
 10
-22.1489
 20
385.659
 11
-21.8815
 21
385.091
  0
LINE
  8
0
 10
-21.8815
 20
385.091
 11
-21.5451
 21
384.561
  0
LINE
  8
0
 10
-21.5451
 20
384.561
 11
-21.1448
 21
384.077
  0
LINE
  8
0
 10
-21.1448
 20
384.077
 11
-20.6871
 21
383.647
  0
LINE
  8
0
 10
-20.6871
 20
383.647
 11
-20.1791
 21
383.278
  0
LINE
  8
0
 10
-20.1791
 20
383.278
 11
-19.6289
 21
382.976
  0
LINE
  8
0
 10
-19.6289
 20
382.976
 11
-19.0451
 21
382.745
  0
LINE
  8
0
 10
-19.0451
 20
382.745
 11
-18.4369
 21
382.589
  0
LINE
  8
0
 10
-18.4369
 20
382.589
 11
-17.8139
 21
382.51
  0
LINE
  8
0
 10
-17.8139
 20
382.51
 11
17.8139
 21
382.51
  0
LINE
  8
0
 10
17.8139
 20
382.51
 11
18.4369
 21
382.589
  0
LINE
  8
0
 10
-12.311
 20
383.009
 11
-11.8209
 21
383.278
  0
LINE
  8
0
 10
-11.8209
 20
383.278
 11
-11.3129
 21
383.647
  0
LINE
  8
0
 10
-11.3129
 20
383.647
 11
-10.8551
 21
384.077
  0
LINE
  8
0
 10
-10.8551
 20
384.077
 11
-10.4549
 21
384.561
  0
LINE
  8
0
 10
-10.4549
 20
384.561
 11
-10.1185
 21
385.091
  0
LINE
  8
0
 10
-10.1185
 20
385.091
 11
-9.8511
 21
385.659
  0
LINE
  8
0
 10
-9.8511
 20
385.659
 11
-9.65707
 21
386.257
  0
LINE
  8
0
 10
-9.65707
 20
386.257
 11
-9.53941
 21
386.873
  0
LINE
  8
0
 10
-9.53941
 20
386.873
 11
-9.5
 21
387.5
  0
LINE
  8
0
 10
-9.5
 20
387.5
 11
-9.5
 21
390.5
  0
LINE
  8
0
 10
-9.5
 20
390.5
 11
-9.53941
 21
391.127
  0
LINE
  8
0
 10
-9.53941
 20
391.127
 11
-9.65707
 21
391.743
  0
LINE
  8
0
 10
-9.65707
 20
391.743
 11
-9.8511
 21
392.341
  0
LINE
  8
0
 10
-9.8511
 20
392.341
 11
-10.1185
 21
392.909
  0
LINE
  8
0
 10
-10.1185
 20
392.909
 11
-10.4549
 21
393.439
  0
LINE
  8
0
 10
-10.4549
 20
393.439
 11
-10.8551
 21
393.923
  0
LINE
  8
0
 10
-10.8551
 20
393.923
 11
-11.3129
 21
394.353
  0
LINE
  8
0
 10
-11.3129
 20
394.353
 11
-11.8209
 21
394.722
  0
LINE
  8
0
 10
-11.8209
 20
394.722
 11
-12.3711
 21
395.024
  0
LINE
  8
0
 10
-12.3711
 20
395.024
 11
-12.9549
 21
395.255
  0
LINE
  8
0
 10
-12.9549
 20
395.255
 11
-13.5631
 21
395.411
  0
LINE
  8
0
 10
-13.5631
 20
395.411
 11
-14.186
 21
395.49
  0
LINE
  8
0
 10
-14.186
 20
395.49
 11
-17.8139
 21
395.49
  0
LINE
  8
0
 10
-17.8139
 20
395.49
 11
-18.4369
 21
395.411
  0
LINE
  8
0
 10
-18.4369
 20
395.411
 11
-19.0451
 21
395.255
  0
LINE
  8
0
 10
-19.0451
 20
395.255
 11
-19.6289
 21
395.024
  0
LINE
  8
0
 10
-19.6289
 20
395.024
 11
-20.1791
 21
394.722
  0
LINE
  8
0
 10
-20.1791
 20
394.722
 11
-20.6871
 21
394.353
  0
LINE
  8
0
 10
-20.6871
 20
394.353
 11
-21.1448
 21
393.923
  0
LINE
  8
0
 10
-21.1448
 20
393.923
 11
-21.5451
 21
393.439
  0
LINE
  8
0
 10
-21.5451
 20
393.439
 11
-21.8815
 21
392.909
  0
LINE
  8
0
 10
-21.8815
 20
392.909
 11
-22
 21
392.657
  0
LINE
  8
0
 10
-22
 20
392.657
 11
-22
 21
452.5
  0
LINE
  8
0
 10
-22
 20
452.5
 11
-21.9645
 21
453.064
  0
LINE
  8
0
 10
-21.9645
 20
453.064
 11
-21.8586
 21
453.619
  0
LINE
  8
0
 10
-21.8586
 20
453.619
 11
-21.684
 21
454.157
  0
LINE
  8
0
 10
-21.684
 20
454.157
 11
-21.4434
 21
454.668
  0
LINE
  8
0
 10
-21.4434
 20
454.668
 11
-21.1406
 21
455.145
  0
LINE
  8
0
 10
-21.1406
 20
455.145
 11
-20.7803
 21
455.58
  0
LINE
  8
0
 10
-20.7803
 20
455.58
 11
-20.3684
 21
455.967
  0
LINE
  8
0
 10
-20.3684
 20
455.967
 11
-19.9112
 21
456.299
  0
LINE
  8
0
 10
-19.9112
 20
456.299
 11
-19.416
 21
456.572
  0
LINE
  8
0
 10
-19.416
 20
456.572
 11
-18.8906
 21
456.78
  0
LINE
  8
0
 10
-18.8906
 20
456.78
 11
-18.3432
 21
456.92
  0
LINE
  8
0
 10
-18.3432
 20
456.92
 11
-17.7825
 21
456.991
  0
LINE
  8
0
 10
-17.7825
 20
456.991
 11
17.7825
 21
456.991
  0
LINE
  8
0
 10
17.7825
 20
456.991
 11
18.3432
 21
456.92
  0
LINE
  8
0
 10
18.3432
 20
456.92
 11
18.8906
 21
456.78
  0
LINE
  8
0
 10
18.8906
 20
456.78
 11
19.416
 21
456.572
  0
LINE
  8
0
 10
19.416
 20
456.572
 11
19.9112
 21
456.299
  0
LINE
  8
0
 10
19.9112
 20
456.299
 11
20.3684
 21
455.967
  0
LINE
  8
0
 10
20.3684
 20
455.967
 11
20.7803
 21
455.58
  0
LINE
  8
0
 10
20.7803
 20
455.58
 11
21.1406
 21
455.145
  0
LINE
  8
0
 10
21.1406
 20
455.145
 11
21.4434
 21
454.668
  0
LINE
  8
0
 10
21.4434
 20
454.668
 11
21.684
 21
454.157
  0
LINE
  8
0
 10
21.684
 20
454.157
 11
21.8586
 21
453.619
  0
LINE
  8
0
 10
21.8586
 20
453.619
 11
21.9645
 21
453.064
  0
LINE
  8
0
 10
21.9645
 20
453.064
 11
22
 21
452.5
  0
LINE
  8
0
 10
22
 20
452.5
 11
22
 21
387.5
  0
LINE
  8
0
 10
22
 20
387.5
 11
21.9645
 21
386.936
  0
LINE
  8
0
 10
21.9645
 20
386.936
 11
21.8586
 21
386.381
  0
LINE
  8
0
 10
21.8586
 20
386.381
 11
21.684
 21
385.843
  0
LINE
  8
0
 10
21.684
 20
385.843
 11
21.4434
 21
385.332
  0
LINE
  8
0
 10
21.4434
 20
385.332
 11
21.1406
 21
384.855
  0
LINE
  8
0
 10
21.1406
 20
384.855
 11
20.7803
 21
384.42
  0
LINE
  8
0
 10
20.7803
 20
384.42
 11
20.3684
 21
384.033
  0
LINE
  8
0
 10
20.3684
 20
384.033
 11
19.9112
 21
383.701
  0
LINE
  8
0
 10
19.9112
 20
383.701
 11
19.416
 21
383.428
  0
LINE
  8
0
 10
19.416
 20
383.428
 11
18.8906
 21
383.22
  0
LINE
  8
0
 10
18.8906
 20
383.22
 11
18.3432
 21
383.08
  0
LINE
  8
0
 10
18.3432
 20
383.08
 11
17.7825
 21
383.009
  0
LINE
  8
0
 10
17.7825
 20
383.009
 11
-12.311
 21
383.009
  0
LINE
  8
0
 10
15.4684
 20
447.544
 11
15.7725
 21
447.622
  0
LINE
  8
0
 10
15.7725
 20
447.622
 11
16.0644
 21
447.738
  0
LINE
  8
0
 10
16.0644
 20
447.738
 11
16.3396
 21
447.889
  0
LINE
  8
0
 10
16.3396
 20
447.889
 11
16.5936
 21
448.074
  0
LINE
  8
0
 10
16.5936
 20
448.074
 11
16.8224
 21
448.289
  0
LINE
  8
0
 10
16.8224
 20
448.289
 11
17.0225
 21
448.531
  0
LINE
  8
0
 10
17.0225
 20
448.531
 11
17.1908
 21
448.796
  0
LINE
  8
0
 10
17.1908
 20
448.796
 11
17.3244
 21
449.08
  0
LINE
  8
0
 10
17.3244
 20
449.08
 11
17.4214
 21
449.378
  0
LINE
  8
0
 10
17.4214
 20
449.378
 11
17.4803
 21
449.687
  0
LINE
  8
0
 10
17.4803
 20
449.687
 11
17.5
 21
450
  0
LINE
  8
0
 10
17.5
 20
450
 11
17.4803
 21
450.313
  0
LINE
  8
0
 10
17.4803
 20
450.313
 11
17.4214
 21
450.622
  0
LINE
  8
0
 10
17.4214
 20
450.622
 11
17.3244
 21
450.92
  0
LINE
  8
0
 10
17.3244
 20
450.92
 11
17.1908
 21
451.204
  0
LINE
  8
0
 10
17.1908
 20
451.204
 11
17.0225
 21
451.469
  0
LINE
  8
0
 10
17.0225
 20
451.469
 11
16.8224
 21
451.711
  0
LINE
  8
0
 10
16.8224
 20
451.711
 11
16.5936
 21
451.926
  0
LINE
  8
0
 10
16.5936
 20
451.926
 11
16.3396
 21
452.111
  0
LINE
  8
0
 10
16.3396
 20
452.111
 11
16.0644
 21
452.262
  0
LINE
  8
0
 10
16.0644
 20
452.262
 11
15.7725
 21
452.378
  0
LINE
  8
0
 10
15.7725
 20
452.378
 11
15.4684
 21
452.456
  0
LINE
  8
0
 10
15.4684
 20
452.456
 11
15.157
 21
452.495
  0
LINE
  8
0
 10
15.157
 20
452.495
 11
14.843
 21
452.495
  0
LINE
  8
0
 10
14.843
 20
452.495
 11
14.5315
 21
452.456
  0
LINE
  8
0
 10
14.5315
 20
452.456
 11
14.2274
 21
452.378
  0
LINE
  8
0
 10
14.2274
 20
452.378
 11
13.9355
 21
452.262
  0
LINE
  8
0
 10
13.9355
 20
452.262
 11
13.6604
 21
452.111
  0
LINE
  8
0
 10
13.6604
 20
452.111
 11
13.4064
 21
451.926
  0
LINE
  8
0
 10
13.4064
 20
451.926
 11
13.1776
 21
451.711
  0
LINE
  8
0
 10
13.1776
 20
451.711
 11
12.9774
 21
451.469
  0
LINE
  8
0
 10
12.9774
 20
451.469
 11
12.8092
 21
451.204
  0
LINE
  8
0
 10
12.8092
 20
451.204
 11
12.6756
 21
450.92
  0
LINE
  8
0
 10
12.6756
 20
450.92
 11
12.5785
 21
450.622
  0
LINE
  8
0
 10
12.5785
 20
450.622
 11
12.5197
 21
450.313
  0
LINE
  8
0
 10
12.5197
 20
450.313
 11
12.5
 21
450
  0
LINE
  8
0
 10
12.5
 20
450
 11
12.5197
 21
449.687
  0
LINE
  8
0
 10
12.5197
 20
449.687
 11
12.5785
 21
449.378
  0
LINE
  8
0
 10
12.5785
 20
449.378
 11
12.6756
 21
449.08
  0
LINE
  8
0
 10
12.6756
 20
449.08
 11
12.8092
 21
448.796
  0
LINE
  8
0
 10
12.8092
 20
448.796
 11
12.9774
 21
448.531
  0
LINE
  8
0
 10
12.9774
 20
448.531
 11
13.1776
 21
448.289
  0
LINE
  8
0
 10
13.1776
 20
448.289
 11
13.4064
 21
448.074
  0
LINE
  8
0
 10
13.4064
 20
448.074
 11
13.6604
 21
447.889
  0
LINE
  8
0
 10
13.6604
 20
447.889
 11
13.9355
 21
447.738
  0
LINE
  8
0
 10
13.9355
 20
447.738
 11
14.2274
 21
447.622
  0
LINE
  8
0
 10
14.2274
 20
447.622
 11
14.5315
 21
447.544
  0
LINE
  8
0
 10
14.5315
 20
447.544
 11
14.843
 21
447.505
  0
LINE
  8
0
 10
14.843
 20
447.505
 11
15.157
 21
447.505
  0
LINE
  8
0
 10
15.157
 20
447.505
 11
15.4684
 21
447.544
  0
LINE
  8
0
 10
14.9058
 20
448.503
 11
14.7189
 21
448.527
  0
LINE
  8
0
 10
14.7189
 20
448.527
 11
14.5365
 21
448.573
  0
LINE
  8
0
 10
14.5365
 20
448.573
 11
14.3613
 21
448.643
  0
LINE
  8
0
 10
14.3613
 20
448.643
 11
14.1963
 21
448.734
  0
LINE
  8
0
 10
14.1963
 20
448.734
 11
14.0439
 21
448.844
  0
LINE
  8
0
 10
14.0439
 20
448.844
 11
13.9065
 21
448.973
  0
LINE
  8
0
 10
13.9065
 20
448.973
 11
13.7865
 21
449.118
  0
LINE
  8
0
 10
13.7865
 20
449.118
 11
13.6855
 21
449.277
  0
LINE
  8
0
 10
13.6855
 20
449.277
 11
13.6053
 21
449.448
  0
LINE
  8
0
 10
13.6053
 20
449.448
 11
13.5471
 21
449.627
  0
LINE
  8
0
 10
13.5471
 20
449.627
 11
13.5118
 21
449.812
  0
LINE
  8
0
 10
13.5118
 20
449.812
 11
13.5
 21
450
  0
LINE
  8
0
 10
13.5
 20
450
 11
13.5118
 21
450.188
  0
LINE
  8
0
 10
13.5118
 20
450.188
 11
13.5471
 21
450.373
  0
LINE
  8
0
 10
13.5471
 20
450.373
 11
13.6053
 21
450.552
  0
LINE
  8
0
 10
13.6053
 20
450.552
 11
13.6855
 21
450.723
  0
LINE
  8
0
 10
13.6855
 20
450.723
 11
13.7865
 21
450.882
  0
LINE
  8
0
 10
13.7865
 20
450.882
 11
13.9065
 21
451.027
  0
LINE
  8
0
 10
13.9065
 20
451.027
 11
14.0439
 21
451.156
  0
LINE
  8
0
 10
14.0439
 20
451.156
 11
14.1963
 21
451.266
  0
LINE
  8
0
 10
14.1963
 20
451.266
 11
14.3613
 21
451.357
  0
LINE
  8
0
 10
14.3613
 20
451.357
 11
14.5365
 21
451.427
  0
LINE
  8
0
 10
14.5365
 20
451.427
 11
14.7189
 21
451.473
  0
LINE
  8
0
 10
14.7189
 20
451.473
 11
14.9058
 21
451.497
  0
LINE
  8
0
 10
14.9058
 20
451.497
 11
15.0942
 21
451.497
  0
LINE
  8
0
 10
15.0942
 20
451.497
 11
15.2811
 21
451.473
  0
LINE
  8
0
 10
15.2811
 20
451.473
 11
15.4635
 21
451.427
  0
LINE
  8
0
 10
15.4635
 20
451.427
 11
15.6387
 21
451.357
  0
LINE
  8
0
 10
15.6387
 20
451.357
 11
15.8037
 21
451.266
  0
LINE
  8
0
 10
15.8037
 20
451.266
 11
15.9561
 21
451.156
  0
LINE
  8
0
 10
15.9561
 20
451.156
 11
16.0934
 21
451.027
  0
LINE
  8
0
 10
16.0934
 20
451.027
 11
16.2135
 21
450.882
  0
LINE
  8
0
 10
16.2135
 20
450.882
 11
16.3145
 21
450.723
  0
LINE
  8
0
 10
16.3145
 20
450.723
 11
16.3947
 21
450.552
  0
LINE
  8
0
 10
16.3947
 20
450.552
 11
16.4529
 21
450.373
  0
LINE
  8
0
 10
16.4529
 20
450.373
 11
16.4882
 21
450.188
  0
LINE
  8
0
 10
16.4882
 20
450.188
 11
16.5
 21
450
  0
LINE
  8
0
 10
16.5
 20
450
 11
16.4882
 21
449.812
  0
LINE
  8
0
 10
16.4882
 20
449.812
 11
16.4529
 21
449.627
  0
LINE
  8
0
 10
16.4529
 20
449.627
 11
16.3947
 21
449.448
  0
LINE
  8
0
 10
16.3947
 20
449.448
 11
16.3145
 21
449.277
  0
LINE
  8
0
 10
16.3145
 20
449.277
 11
16.2135
 21
449.118
  0
LINE
  8
0
 10
16.2135
 20
449.118
 11
16.0934
 21
448.973
  0
LINE
  8
0
 10
16.0934
 20
448.973
 11
15.9561
 21
448.844
  0
LINE
  8
0
 10
15.9561
 20
448.844
 11
15.8037
 21
448.734
  0
LINE
  8
0
 10
15.8037
 20
448.734
 11
15.6387
 21
448.643
  0
LINE
  8
0
 10
15.6387
 20
448.643
 11
15.4635
 21
448.573
  0
LINE
  8
0
 10
15.4635
 20
448.573
 11
15.2811
 21
448.527
  0
LINE
  8
0
 10
15.2811
 20
448.527
 11
15.0942
 21
448.503
  0
LINE
  8
0
 10
15.0942
 20
448.503
 11
14.9058
 21
448.503
  0
LINE
  8
0
 10
-15.0942
 20
388.503
 11
-15.2811
 21
388.527
  0
LINE
  8
0
 10
-15.2811
 20
388.527
 11
-15.4635
 21
388.573
  0
LINE
  8
0
 10
-15.4635
 20
388.573
 11
-15.6387
 21
388.643
  0
LINE
  8
0
 10
-15.6387
 20
388.643
 11
-15.8037
 21
388.734
  0
LINE
  8
0
 10
-15.8037
 20
388.734
 11
-15.9561
 21
388.844
  0
LINE
  8
0
 10
-15.9561
 20
388.844
 11
-16.0934
 21
388.973
  0
LINE
  8
0
 10
-16.0934
 20
388.973
 11
-16.2135
 21
389.118
  0
LINE
  8
0
 10
-16.2135
 20
389.118
 11
-16.3145
 21
389.277
  0
LINE
  8
0
 10
-16.3145
 20
389.277
 11
-16.3947
 21
389.448
  0
LINE
  8
0
 10
-16.3947
 20
389.448
 11
-16.4529
 21
389.627
  0
LINE
  8
0
 10
-16.4529
 20
389.627
 11
-16.4882
 21
389.812
  0
LINE
  8
0
 10
-16.4882
 20
389.812
 11
-16.5
 21
390
  0
LINE
  8
0
 10
-16.5
 20
390
 11
-16.4882
 21
390.188
  0
LINE
  8
0
 10
-16.4882
 20
390.188
 11
-16.4529
 21
390.373
  0
LINE
  8
0
 10
-16.4529
 20
390.373
 11
-16.3947
 21
390.552
  0
LINE
  8
0
 10
-16.3947
 20
390.552
 11
-16.3145
 21
390.723
  0
LINE
  8
0
 10
-16.3145
 20
390.723
 11
-16.2135
 21
390.882
  0
LINE
  8
0
 10
-16.2135
 20
390.882
 11
-16.0934
 21
391.027
  0
LINE
  8
0
 10
-16.0934
 20
391.027
 11
-15.9561
 21
391.156
  0
LINE
  8
0
 10
-15.9561
 20
391.156
 11
-15.8037
 21
391.266
  0
LINE
  8
0
 10
-15.8037
 20
391.266
 11
-15.6387
 21
391.357
  0
LINE
  8
0
 10
-15.6387
 20
391.357
 11
-15.4635
 21
391.427
  0
LINE
  8
0
 10
-15.4635
 20
391.427
 11
-15.2811
 21
391.473
  0
LINE
  8
0
 10
-15.2811
 20
391.473
 11
-15.0942
 21
391.497
  0
LINE
  8
0
 10
-15.0942
 20
391.497
 11
-14.9058
 21
391.497
  0
LINE
  8
0
 10
-14.9058
 20
391.497
 11
-14.7189
 21
391.473
  0
LINE
  8
0
 10
-14.7189
 20
391.473
 11
-14.5365
 21
391.427
  0
LINE
  8
0
 10
-14.5365
 20
391.427
 11
-14.3613
 21
391.357
  0
LINE
  8
0
 10
-14.3613
 20
391.357
 11
-14.1963
 21
391.266
  0
LINE
  8
0
 10
-14.1963
 20
391.266
 11
-14.0439
 21
391.156
  0
LINE
  8
0
 10
-14.0439
 20
391.156
 11
-13.9065
 21
391.027
  0
LINE
  8
0
 10
-13.9065
 20
391.027
 11
-13.7865
 21
390.882
  0
LINE
  8
0
 10
-13.7865
 20
390.882
 11
-13.6855
 21
390.723
  0
LINE
  8
0
 10
-13.6855
 20
390.723
 11
-13.6053
 21
390.552
  0
LINE
  8
0
 10
-13.6053
 20
390.552
 11
-13.5471
 21
390.373
  0
LINE
  8
0
 10
-13.5471
 20
390.373
 11
-13.5118
 21
390.188
  0
LINE
  8
0
 10
-13.5118
 20
390.188
 11
-13.5
 21
390
  0
LINE
  8
0
 10
-13.5
 20
390
 11
-13.5118
 21
389.812
  0
LINE
  8
0
 10
-13.5118
 20
389.812
 11
-13.5471
 21
389.627
  0
LINE
  8
0
 10
-13.5471
 20
389.627
 11
-13.6053
 21
389.448
  0
LINE
  8
0
 10
-13.6053
 20
389.448
 11
-13.6855
 21
389.277
  0
LINE
  8
0
 10
-13.6855
 20
389.277
 11
-13.7865
 21
389.118
  0
LINE
  8
0
 10
-13.7865
 20
389.118
 11
-13.9065
 21
388.973
  0
LINE
  8
0
 10
-13.9065
 20
388.973
 11
-14.0439
 21
388.844
  0
LINE
  8
0
 10
-14.0439
 20
388.844
 11
-14.1963
 21
388.734
  0
LINE
  8
0
 10
-14.1963
 20
388.734
 11
-14.3613
 21
388.643
  0
LINE
  8
0
 10
-14.3613
 20
388.643
 11
-14.5365
 21
388.573
  0
LINE
  8
0
 10
-14.5365
 20
388.573
 11
-14.7189
 21
388.527
  0
LINE
  8
0
 10
-14.7189
 20
388.527
 11
-14.9058
 21
388.503
  0
LINE
  8
0
 10
-14.9058
 20
388.503
 11
-15.0942
 21
388.503
  0
LINE
  8
0
 10
18.4369
 20
298.589
 11
19.0451
 21
298.745
  0
LINE
  8
0
 10
19.0451
 20
298.745
 11
19.6289
 21
298.976
  0
LINE
  8
0
 10
19.6289
 20
298.976
 11
20.1791
 21
299.278
  0
LINE
  8
0
 10
20.1791
 20
299.278
 11
20.6871
 21
299.647
  0
LINE
  8
0
 10
20.6871
 20
299.647
 11
21.1448
 21
300.077
  0
LINE
  8
0
 10
21.1448
 20
300.077
 11
21.5451
 21
300.561
  0
LINE
  8
0
 10
21.5451
 20
300.561
 11
21.8815
 21
301.091
  0
LINE
  8
0
 10
21.8815
 20
301.091
 11
22.1489
 21
301.659
  0
LINE
  8
0
 10
22.1489
 20
301.659
 11
22.3429
 21
302.257
  0
LINE
  8
0
 10
22.3429
 20
302.257
 11
22.4606
 21
302.873
  0
LINE
  8
0
 10
22.4606
 20
302.873
 11
22.5
 21
303.5
  0
LINE
  8
0
 10
22.5
 20
303.5
 11
22.5
 21
368.5
  0
LINE
  8
0
 10
22.5
 20
368.5
 11
22.4606
 21
369.127
  0
LINE
  8
0
 10
22.4606
 20
369.127
 11
22.3429
 21
369.743
  0
LINE
  8
0
 10
22.3429
 20
369.743
 11
22.1489
 21
370.341
  0
LINE
  8
0
 10
22.1489
 20
370.341
 11
21.8815
 21
370.909
  0
LINE
  8
0
 10
21.8815
 20
370.909
 11
21.5451
 21
371.439
  0
LINE
  8
0
 10
21.5451
 20
371.439
 11
21.1448
 21
371.923
  0
LINE
  8
0
 10
21.1448
 20
371.923
 11
20.6871
 21
372.353
  0
LINE
  8
0
 10
20.6871
 20
372.353
 11
20.1791
 21
372.722
  0
LINE
  8
0
 10
20.1791
 20
372.722
 11
19.6289
 21
373.024
  0
LINE
  8
0
 10
19.6289
 20
373.024
 11
19.0451
 21
373.255
  0
LINE
  8
0
 10
19.0451
 20
373.255
 11
18.4369
 21
373.411
  0
LINE
  8
0
 10
18.4369
 20
373.411
 11
17.8139
 21
373.49
  0
LINE
  8
0
 10
17.8139
 20
373.49
 11
-17.8139
 21
373.49
  0
LINE
  8
0
 10
-17.8139
 20
373.49
 11
-18.4369
 21
373.411
  0
LINE
  8
0
 10
-18.4369
 20
373.411
 11
-19.0451
 21
373.255
  0
LINE
  8
0
 10
-19.0451
 20
373.255
 11
-19.6289
 21
373.024
  0
LINE
  8
0
 10
-19.6289
 20
373.024
 11
-20.1791
 21
372.722
  0
LINE
  8
0
 10
-20.1791
 20
372.722
 11
-20.6871
 21
372.353
  0
LINE
  8
0
 10
-20.6871
 20
372.353
 11
-21.1448
 21
371.923
  0
LINE
  8
0
 10
-21.1448
 20
371.923
 11
-21.5451
 21
371.439
  0
LINE
  8
0
 10
-21.5451
 20
371.439
 11
-21.8815
 21
370.909
  0
LINE
  8
0
 10
-21.8815
 20
370.909
 11
-22.1489
 21
370.341
  0
LINE
  8
0
 10
-22.1489
 20
370.341
 11
-22.3429
 21
369.743
  0
LINE
  8
0
 10
-22.3429
 20
369.743
 11
-22.4606
 21
369.127
  0
LINE
  8
0
 10
-22.4606
 20
369.127
 11
-22.5
 21
368.5
  0
LINE
  8
0
 10
-22.5
 20
368.5
 11
-22.5
 21
303.5
  0
LINE
  8
0
 10
-22.5
 20
303.5
 11
-22.4606
 21
302.873
  0
LINE
  8
0
 10
-22.4606
 20
302.873
 11
-22.3429
 21
302.257
  0
LINE
  8
0
 10
-22.3429
 20
302.257
 11
-22.1489
 21
301.659
  0
LINE
  8
0
 10
-22.1489
 20
301.659
 11
-21.8815
 21
301.091
  0
LINE
  8
0
 10
-21.8815
 20
301.091
 11
-21.5451
 21
300.561
  0
LINE
  8
0
 10
-21.5451
 20
300.561
 11
-21.1448
 21
300.077
  0
LINE
  8
0
 10
-21.1448
 20
300.077
 11
-20.6871
 21
299.647
  0
LINE
  8
0
 10
-20.6871
 20
299.647
 11
-20.1791
 21
299.278
  0
LINE
  8
0
 10
-20.1791
 20
299.278
 11
-19.6289
 21
298.976
  0
LINE
  8
0
 10
-19.6289
 20
298.976
 11
-19.0451
 21
298.745
  0
LINE
  8
0
 10
-19.0451
 20
298.745
 11
-18.4369
 21
298.589
  0
LINE
  8
0
 10
-18.4369
 20
298.589
 11
-17.8139
 21
298.51
  0
LINE
  8
0
 10
-17.8139
 20
298.51
 11
17.8139
 21
298.51
  0
LINE
  8
0
 10
17.8139
 20
298.51
 11
18.4369
 21
298.589
  0
LINE
  8
0
 10
-12.2539
 20
299.04
 11
-11.8209
 21
299.278
  0
LINE
  8
0
 10
-11.8209
 20
299.278
 11
-11.3129
 21
299.647
  0
LINE
  8
0
 10
-11.3129
 20
299.647
 11
-10.8551
 21
300.077
  0
LINE
  8
0
 10
-10.8551
 20
300.077
 11
-10.4549
 21
300.561
  0
LINE
  8
0
 10
-10.4549
 20
300.561
 11
-10.1185
 21
301.091
  0
LINE
  8
0
 10
-10.1185
 20
301.091
 11
-9.8511
 21
301.659
  0
LINE
  8
0
 10
-9.8511
 20
301.659
 11
-9.65707
 21
302.257
  0
LINE
  8
0
 10
-9.65707
 20
302.257
 11
-9.53941
 21
302.873
  0
LINE
  8
0
 10
-9.53941
 20
302.873
 11
-9.5
 21
303.5
  0
LINE
  8
0
 10
-9.5
 20
303.5
 11
-9.5
 21
306.5
  0
LINE
  8
0
 10
-9.5
 20
306.5
 11
-9.53941
 21
307.127
  0
LINE
  8
0
 10
-9.53941
 20
307.127
 11
-9.65707
 21
307.743
  0
LINE
  8
0
 10
-9.65707
 20
307.743
 11
-9.8511
 21
308.341
  0
LINE
  8
0
 10
-9.8511
 20
308.341
 11
-10.1185
 21
308.909
  0
LINE
  8
0
 10
-10.1185
 20
308.909
 11
-10.4549
 21
309.439
  0
LINE
  8
0
 10
-10.4549
 20
309.439
 11
-10.8551
 21
309.923
  0
LINE
  8
0
 10
-10.8551
 20
309.923
 11
-11.3129
 21
310.353
  0
LINE
  8
0
 10
-11.3129
 20
310.353
 11
-11.8209
 21
310.722
  0
LINE
  8
0
 10
-11.8209
 20
310.722
 11
-12.3711
 21
311.024
  0
LINE
  8
0
 10
-12.3711
 20
311.024
 11
-12.9549
 21
311.255
  0
LINE
  8
0
 10
-12.9549
 20
311.255
 11
-13.5631
 21
311.411
  0
LINE
  8
0
 10
-13.5631
 20
311.411
 11
-14.186
 21
311.49
  0
LINE
  8
0
 10
-14.186
 20
311.49
 11
-17.8139
 21
311.49
  0
LINE
  8
0
 10
-17.8139
 20
311.49
 11
-18.4369
 21
311.411
  0
LINE
  8
0
 10
-18.4369
 20
311.411
 11
-19.0451
 21
311.255
  0
LINE
  8
0
 10
-19.0451
 20
311.255
 11
-19.6289
 21
311.024
  0
LINE
  8
0
 10
-19.6289
 20
311.024
 11
-20.1791
 21
310.722
  0
LINE
  8
0
 10
-20.1791
 20
310.722
 11
-20.6871
 21
310.353
  0
LINE
  8
0
 10
-20.6871
 20
310.353
 11
-21.1448
 21
309.923
  0
LINE
  8
0
 10
-21.1448
 20
309.923
 11
-21.5451
 21
309.439
  0
LINE
  8
0
 10
-21.5451
 20
309.439
 11
-21.8815
 21
308.909
  0
LINE
  8
0
 10
-21.8815
 20
308.909
 11
-21.9685
 21
308.724
  0
LINE
  8
0
 10
-21.9685
 20
308.724
 11
-21.9685
 21
368.5
  0
LINE
  8
0
 10
-21.9685
 20
368.5
 11
-21.9333
 21
369.06
  0
LINE
  8
0
 10
-21.9333
 20
369.06
 11
-21.8282
 21
369.611
  0
LINE
  8
0
 10
-21.8282
 20
369.611
 11
-21.6547
 21
370.145
  0
LINE
  8
0
 10
-21.6547
 20
370.145
 11
-21.4158
 21
370.653
  0
LINE
  8
0
 10
-21.4158
 20
370.653
 11
-21.1151
 21
371.127
  0
LINE
  8
0
 10
-21.1151
 20
371.127
 11
-20.7574
 21
371.559
  0
LINE
  8
0
 10
-20.7574
 20
371.559
 11
-20.3483
 21
371.943
  0
LINE
  8
0
 10
-20.3483
 20
371.943
 11
-19.8944
 21
372.273
  0
LINE
  8
0
 10
-19.8944
 20
372.273
 11
-19.4026
 21
372.543
  0
LINE
  8
0
 10
-19.4026
 20
372.543
 11
-18.8808
 21
372.75
  0
LINE
  8
0
 10
-18.8808
 20
372.75
 11
-18.3373
 21
372.889
  0
LINE
  8
0
 10
-18.3373
 20
372.889
 11
-17.7806
 21
372.96
  0
LINE
  8
0
 10
-17.7806
 20
372.96
 11
17.7806
 21
372.96
  0
LINE
  8
0
 10
17.7806
 20
372.96
 11
18.3373
 21
372.889
  0
LINE
  8
0
 10
18.3373
 20
372.889
 11
18.8808
 21
372.75
  0
LINE
  8
0
 10
18.8808
 20
372.75
 11
19.4026
 21
372.543
  0
LINE
  8
0
 10
19.4026
 20
372.543
 11
19.8944
 21
372.273
  0
LINE
  8
0
 10
19.8944
 20
372.273
 11
20.3483
 21
371.943
  0
LINE
  8
0
 10
20.3483
 20
371.943
 11
20.7574
 21
371.559
  0
LINE
  8
0
 10
20.7574
 20
371.559
 11
21.1151
 21
371.127
  0
LINE
  8
0
 10
21.1151
 20
371.127
 11
21.4158
 21
370.653
  0
LINE
  8
0
 10
21.4158
 20
370.653
 11
21.6547
 21
370.145
  0
LINE
  8
0
 10
21.6547
 20
370.145
 11
21.8282
 21
369.611
  0
LINE
  8
0
 10
21.8282
 20
369.611
 11
21.9333
 21
369.06
  0
LINE
  8
0
 10
21.9333
 20
369.06
 11
21.9685
 21
368.5
  0
LINE
  8
0
 10
21.9685
 20
368.5
 11
21.9685
 21
303.5
  0
LINE
  8
0
 10
21.9685
 20
303.5
 11
21.9333
 21
302.94
  0
LINE
  8
0
 10
21.9333
 20
302.94
 11
21.8282
 21
302.389
  0
LINE
  8
0
 10
21.8282
 20
302.389
 11
21.6547
 21
301.855
  0
LINE
  8
0
 10
21.6547
 20
301.855
 11
21.4158
 21
301.347
  0
LINE
  8
0
 10
21.4158
 20
301.347
 11
21.1151
 21
300.873
  0
LINE
  8
0
 10
21.1151
 20
300.873
 11
20.7574
 21
300.441
  0
LINE
  8
0
 10
20.7574
 20
300.441
 11
20.3483
 21
300.057
  0
LINE
  8
0
 10
20.3483
 20
300.057
 11
19.8944
 21
299.727
  0
LINE
  8
0
 10
19.8944
 20
299.727
 11
19.4026
 21
299.457
  0
LINE
  8
0
 10
19.4026
 20
299.457
 11
18.8808
 21
299.25
  0
LINE
  8
0
 10
18.8808
 20
299.25
 11
18.3373
 21
299.111
  0
LINE
  8
0
 10
18.3373
 20
299.111
 11
17.7806
 21
299.04
  0
LINE
  8
0
 10
17.7806
 20
299.04
 11
-12.2539
 21
299.04
  0
LINE
  8
0
 10
15.4684
 20
363.544
 11
15.7725
 21
363.622
  0
LINE
  8
0
 10
15.7725
 20
363.622
 11
16.0644
 21
363.738
  0
LINE
  8
0
 10
16.0644
 20
363.738
 11
16.3396
 21
363.889
  0
LINE
  8
0
 10
16.3396
 20
363.889
 11
16.5936
 21
364.074
  0
LINE
  8
0
 10
16.5936
 20
364.074
 11
16.8224
 21
364.289
  0
LINE
  8
0
 10
16.8224
 20
364.289
 11
17.0225
 21
364.531
  0
LINE
  8
0
 10
17.0225
 20
364.531
 11
17.1908
 21
364.796
  0
LINE
  8
0
 10
17.1908
 20
364.796
 11
17.3244
 21
365.08
  0
LINE
  8
0
 10
17.3244
 20
365.08
 11
17.4214
 21
365.378
  0
LINE
  8
0
 10
17.4214
 20
365.378
 11
17.4803
 21
365.687
  0
LINE
  8
0
 10
17.4803
 20
365.687
 11
17.5
 21
366
  0
LINE
  8
0
 10
17.5
 20
366
 11
17.4803
 21
366.313
  0
LINE
  8
0
 10
17.4803
 20
366.313
 11
17.4214
 21
366.622
  0
LINE
  8
0
 10
17.4214
 20
366.622
 11
17.3244
 21
366.92
  0
LINE
  8
0
 10
17.3244
 20
366.92
 11
17.1908
 21
367.204
  0
LINE
  8
0
 10
17.1908
 20
367.204
 11
17.0225
 21
367.469
  0
LINE
  8
0
 10
17.0225
 20
367.469
 11
16.8224
 21
367.711
  0
LINE
  8
0
 10
16.8224
 20
367.711
 11
16.5936
 21
367.926
  0
LINE
  8
0
 10
16.5936
 20
367.926
 11
16.3396
 21
368.111
  0
LINE
  8
0
 10
16.3396
 20
368.111
 11
16.0644
 21
368.262
  0
LINE
  8
0
 10
16.0644
 20
368.262
 11
15.7725
 21
368.378
  0
LINE
  8
0
 10
15.7725
 20
368.378
 11
15.4684
 21
368.456
  0
LINE
  8
0
 10
15.4684
 20
368.456
 11
15.157
 21
368.495
  0
LINE
  8
0
 10
15.157
 20
368.495
 11
14.843
 21
368.495
  0
LINE
  8
0
 10
14.843
 20
368.495
 11
14.5315
 21
368.456
  0
LINE
  8
0
 10
14.5315
 20
368.456
 11
14.2274
 21
368.378
  0
LINE
  8
0
 10
14.2274
 20
368.378
 11
13.9355
 21
368.262
  0
LINE
  8
0
 10
13.9355
 20
368.262
 11
13.6604
 21
368.111
  0
LINE
  8
0
 10
13.6604
 20
368.111
 11
13.4064
 21
367.926
  0
LINE
  8
0
 10
13.4064
 20
367.926
 11
13.1776
 21
367.711
  0
LINE
  8
0
 10
13.1776
 20
367.711
 11
12.9774
 21
367.469
  0
LINE
  8
0
 10
12.9774
 20
367.469
 11
12.8092
 21
367.204
  0
LINE
  8
0
 10
12.8092
 20
367.204
 11
12.6756
 21
366.92
  0
LINE
  8
0
 10
12.6756
 20
366.92
 11
12.5785
 21
366.622
  0
LINE
  8
0
 10
12.5785
 20
366.622
 11
12.5197
 21
366.313
  0
LINE
  8
0
 10
12.5197
 20
366.313
 11
12.5
 21
366
  0
LINE
  8
0
 10
12.5
 20
366
 11
12.5197
 21
365.687
  0
LINE
  8
0
 10
12.5197
 20
365.687
 11
12.5785
 21
365.378
  0
LINE
  8
0
 10
12.5785
 20
365.378
 11
12.6756
 21
365.08
  0
LINE
  8
0
 10
12.6756
 20
365.08
 11
12.8092
 21
364.796
  0
LINE
  8
0
 10
12.8092
 20
364.796
 11
12.9774
 21
364.531
  0
LINE
  8
0
 10
12.9774
 20
364.531
 11
13.1776
 21
364.289
  0
LINE
  8
0
 10
13.1776
 20
364.289
 11
13.4064
 21
364.074
  0
LINE
  8
0
 10
13.4064
 20
364.074
 11
13.6604
 21
363.889
  0
LINE
  8
0
 10
13.6604
 20
363.889
 11
13.9355
 21
363.738
  0
LINE
  8
0
 10
13.9355
 20
363.738
 11
14.2274
 21
363.622
  0
LINE
  8
0
 10
14.2274
 20
363.622
 11
14.5315
 21
363.544
  0
LINE
  8
0
 10
14.5315
 20
363.544
 11
14.843
 21
363.505
  0
LINE
  8
0
 10
14.843
 20
363.505
 11
15.157
 21
363.505
  0
LINE
  8
0
 10
15.157
 20
363.505
 11
15.4684
 21
363.544
  0
LINE
  8
0
 10
14.9058
 20
364.503
 11
14.7189
 21
364.527
  0
LINE
  8
0
 10
14.7189
 20
364.527
 11
14.5365
 21
364.573
  0
LINE
  8
0
 10
14.5365
 20
364.573
 11
14.3613
 21
364.643
  0
LINE
  8
0
 10
14.3613
 20
364.643
 11
14.1963
 21
364.734
  0
LINE
  8
0
 10
14.1963
 20
364.734
 11
14.0439
 21
364.844
  0
LINE
  8
0
 10
14.0439
 20
364.844
 11
13.9065
 21
364.973
  0
LINE
  8
0
 10
13.9065
 20
364.973
 11
13.7865
 21
365.118
  0
LINE
  8
0
 10
13.7865
 20
365.118
 11
13.6855
 21
365.277
  0
LINE
  8
0
 10
13.6855
 20
365.277
 11
13.6053
 21
365.448
  0
LINE
  8
0
 10
13.6053
 20
365.448
 11
13.5471
 21
365.627
  0
LINE
  8
0
 10
13.5471
 20
365.627
 11
13.5118
 21
365.812
  0
LINE
  8
0
 10
13.5118
 20
365.812
 11
13.5
 21
366
  0
LINE
  8
0
 10
13.5
 20
366
 11
13.5118
 21
366.188
  0
LINE
  8
0
 10
13.5118
 20
366.188
 11
13.5471
 21
366.373
  0
LINE
  8
0
 10
13.5471
 20
366.373
 11
13.6053
 21
366.552
  0
LINE
  8
0
 10
13.6053
 20
366.552
 11
13.6855
 21
366.723
  0
LINE
  8
0
 10
13.6855
 20
366.723
 11
13.7865
 21
366.882
  0
LINE
  8
0
 10
13.7865
 20
366.882
 11
13.9065
 21
367.027
  0
LINE
  8
0
 10
13.9065
 20
367.027
 11
14.0439
 21
367.156
  0
LINE
  8
0
 10
14.0439
 20
367.156
 11
14.1963
 21
367.266
  0
LINE
  8
0
 10
14.1963
 20
367.266
 11
14.3613
 21
367.357
  0
LINE
  8
0
 10
14.3613
 20
367.357
 11
14.5365
 21
367.427
  0
LINE
  8
0
 10
14.5365
 20
367.427
 11
14.7189
 21
367.473
  0
LINE
  8
0
 10
14.7189
 20
367.473
 11
14.9058
 21
367.497
  0
LINE
  8
0
 10
14.9058
 20
367.497
 11
15.0942
 21
367.497
  0
LINE
  8
0
 10
15.0942
 20
367.497
 11
15.2811
 21
367.473
  0
LINE
  8
0
 10
15.2811
 20
367.473
 11
15.4635
 21
367.427
  0
LINE
  8
0
 10
15.4635
 20
367.427
 11
15.6387
 21
367.357
  0
LINE
  8
0
 10
15.6387
 20
367.357
 11
15.8037
 21
367.266
  0
LINE
  8
0
 10
15.8037
 20
367.266
 11
15.9561
 21
367.156
  0
LINE
  8
0
 10
15.9561
 20
367.156
 11
16.0934
 21
367.027
  0
LINE
  8
0
 10
16.0934
 20
367.027
 11
16.2135
 21
366.882
  0
LINE
  8
0
 10
16.2135
 20
366.882
 11
16.3145
 21
366.723
  0
LINE
  8
0
 10
16.3145
 20
366.723
 11
16.3947
 21
366.552
  0
LINE
  8
0
 10
16.3947
 20
366.552
 11
16.4529
 21
366.373
  0
LINE
  8
0
 10
16.4529
 20
366.373
 11
16.4882
 21
366.188
  0
LINE
  8
0
 10
16.4882
 20
366.188
 11
16.5
 21
366
  0
LINE
  8
0
 10
16.5
 20
366
 11
16.4882
 21
365.812
  0
LINE
  8
0
 10
16.4882
 20
365.812
 11
16.4529
 21
365.627
  0
LINE
  8
0
 10
16.4529
 20
365.627
 11
16.3947
 21
365.448
  0
LINE
  8
0
 10
16.3947
 20
365.448
 11
16.3145
 21
365.277
  0
LINE
  8
0
 10
16.3145
 20
365.277
 11
16.2135
 21
365.118
  0
LINE
  8
0
 10
16.2135
 20
365.118
 11
16.0934
 21
364.973
  0
LINE
  8
0
 10
16.0934
 20
364.973
 11
15.9561
 21
364.844
  0
LINE
  8
0
 10
15.9561
 20
364.844
 11
15.8037
 21
364.734
  0
LINE
  8
0
 10
15.8037
 20
364.734
 11
15.6387
 21
364.643
  0
LINE
  8
0
 10
15.6387
 20
364.643
 11
15.4635
 21
364.573
  0
LINE
  8
0
 10
15.4635
 20
364.573
 11
15.2811
 21
364.527
  0
LINE
  8
0
 10
15.2811
 20
364.527
 11
15.0942
 21
364.503
  0
LINE
  8
0
 10
15.0942
 20
364.503
 11
14.9058
 21
364.503
  0
LINE
  8
0
 10
-15.0942
 20
304.503
 11
-15.2811
 21
304.527
  0
LINE
  8
0
 10
-15.2811
 20
304.527
 11
-15.4635
 21
304.573
  0
LINE
  8
0
 10
-15.4635
 20
304.573
 11
-15.6387
 21
304.643
  0
LINE
  8
0
 10
-15.6387
 20
304.643
 11
-15.8037
 21
304.734
  0
LINE
  8
0
 10
-15.8037
 20
304.734
 11
-15.9561
 21
304.844
  0
LINE
  8
0
 10
-15.9561
 20
304.844
 11
-16.0934
 21
304.973
  0
LINE
  8
0
 10
-16.0934
 20
304.973
 11
-16.2135
 21
305.118
  0
LINE
  8
0
 10
-16.2135
 20
305.118
 11
-16.3145
 21
305.277
  0
LINE
  8
0
 10
-16.3145
 20
305.277
 11
-16.3947
 21
305.448
  0
LINE
  8
0
 10
-16.3947
 20
305.448
 11
-16.4529
 21
305.627
  0
LINE
  8
0
 10
-16.4529
 20
305.627
 11
-16.4882
 21
305.812
  0
LINE
  8
0
 10
-16.4882
 20
305.812
 11
-16.5
 21
306
  0
LINE
  8
0
 10
-16.5
 20
306
 11
-16.4882
 21
306.188
  0
LINE
  8
0
 10
-16.4882
 20
306.188
 11
-16.4529
 21
306.373
  0
LINE
  8
0
 10
-16.4529
 20
306.373
 11
-16.3947
 21
306.552
  0
LINE
  8
0
 10
-16.3947
 20
306.552
 11
-16.3145
 21
306.723
  0
LINE
  8
0
 10
-16.3145
 20
306.723
 11
-16.2135
 21
306.882
  0
LINE
  8
0
 10
-16.2135
 20
306.882
 11
-16.0934
 21
307.027
  0
LINE
  8
0
 10
-16.0934
 20
307.027
 11
-15.9561
 21
307.156
  0
LINE
  8
0
 10
-15.9561
 20
307.156
 11
-15.8037
 21
307.266
  0
LINE
  8
0
 10
-15.8037
 20
307.266
 11
-15.6387
 21
307.357
  0
LINE
  8
0
 10
-15.6387
 20
307.357
 11
-15.4635
 21
307.427
  0
LINE
  8
0
 10
-15.4635
 20
307.427
 11
-15.2811
 21
307.473
  0
LINE
  8
0
 10
-15.2811
 20
307.473
 11
-15.0942
 21
307.497
  0
LINE
  8
0
 10
-15.0942
 20
307.497
 11
-14.9058
 21
307.497
  0
LINE
  8
0
 10
-14.9058
 20
307.497
 11
-14.7189
 21
307.473
  0
LINE
  8
0
 10
-14.7189
 20
307.473
 11
-14.5365
 21
307.427
  0
LINE
  8
0
 10
-14.5365
 20
307.427
 11
-14.3613
 21
307.357
  0
LINE
  8
0
 10
-14.3613
 20
307.357
 11
-14.1963
 21
307.266
  0
LINE
  8
0
 10
-14.1963
 20
307.266
 11
-14.0439
 21
307.156
  0
LINE
  8
0
 10
-14.0439
 20
307.156
 11
-13.9065
 21
307.027
  0
LINE
  8
0
 10
-13.9065
 20
307.027
 11
-13.7865
 21
306.882
  0
LINE
  8
0
 10
-13.7865
 20
306.882
 11
-13.6855
 21
306.723
  0
LINE
  8
0
 10
-13.6855
 20
306.723
 11
-13.6053
 21
306.552
  0
LINE
  8
0
 10
-13.6053
 20
306.552
 11
-13.5471
 21
306.373
  0
LINE
  8
0
 10
-13.5471
 20
306.373
 11
-13.5118
 21
306.188
  0
LINE
  8
0
 10
-13.5118
 20
306.188
 11
-13.5
 21
306
  0
LINE
  8
0
 10
-13.5
 20
306
 11
-13.5118
 21
305.812
  0
LINE
  8
0
 10
-13.5118
 20
305.812
 11
-13.5471
 21
305.627
  0
LINE
  8
0
 10
-13.5471
 20
305.627
 11
-13.6053
 21
305.448
  0
LINE
  8
0
 10
-13.6053
 20
305.448
 11
-13.6855
 21
305.277
  0
LINE
  8
0
 10
-13.6855
 20
305.277
 11
-13.7865
 21
305.118
  0
LINE
  8
0
 10
-13.7865
 20
305.118
 11
-13.9065
 21
304.973
  0
LINE
  8
0
 10
-13.9065
 20
304.973
 11
-14.0439
 21
304.844
  0
LINE
  8
0
 10
-14.0439
 20
304.844
 11
-14.1963
 21
304.734
  0
LINE
  8
0
 10
-14.1963
 20
304.734
 11
-14.3613
 21
304.643
  0
LINE
  8
0
 10
-14.3613
 20
304.643
 11
-14.5365
 21
304.573
  0
LINE
  8
0
 10
-14.5365
 20
304.573
 11
-14.7189
 21
304.527
  0
LINE
  8
0
 10
-14.7189
 20
304.527
 11
-14.9058
 21
304.503
  0
LINE
  8
0
 10
-14.9058
 20
304.503
 11
-15.0942
 21
304.503
  0
LINE
  8
0
 10
18.4369
 20
214.589
 11
19.0451
 21
214.745
  0
LINE
  8
0
 10
19.0451
 20
214.745
 11
19.6289
 21
214.976
  0
LINE
  8
0
 10
19.6289
 20
214.976
 11
20.1791
 21
215.278
  0
LINE
  8
0
 10
20.1791
 20
215.278
 11
20.6871
 21
215.647
  0
LINE
  8
0
 10
20.6871
 20
215.647
 11
21.1448
 21
216.077
  0
LINE
  8
0
 10
21.1448
 20
216.077
 11
21.5451
 21
216.561
  0
LINE
  8
0
 10
21.5451
 20
216.561
 11
21.8815
 21
217.091
  0
LINE
  8
0
 10
21.8815
 20
217.091
 11
22.1489
 21
217.659
  0
LINE
  8
0
 10
22.1489
 20
217.659
 11
22.3429
 21
218.257
  0
LINE
  8
0
 10
22.3429
 20
218.257
 11
22.4606
 21
218.873
  0
LINE
  8
0
 10
22.4606
 20
218.873
 11
22.5
 21
219.5
  0
LINE
  8
0
 10
22.5
 20
219.5
 11
22.5
 21
284.5
  0
LINE
  8
0
 10
22.5
 20
284.5
 11
22.4606
 21
285.127
  0
LINE
  8
0
 10
22.4606
 20
285.127
 11
22.3429
 21
285.743
  0
LINE
  8
0
 10
22.3429
 20
285.743
 11
22.1489
 21
286.341
  0
LINE
  8
0
 10
22.1489
 20
286.341
 11
21.8815
 21
286.909
  0
LINE
  8
0
 10
21.8815
 20
286.909
 11
21.5451
 21
287.439
  0
LINE
  8
0
 10
21.5451
 20
287.439
 11
21.1448
 21
287.923
  0
LINE
  8
0
 10
21.1448
 20
287.923
 11
20.6871
 21
288.353
  0
LINE
  8
0
 10
20.6871
 20
288.353
 11
20.1791
 21
288.722
  0
LINE
  8
0
 10
20.1791
 20
288.722
 11
19.6289
 21
289.024
  0
LINE
  8
0
 10
19.6289
 20
289.024
 11
19.0451
 21
289.255
  0
LINE
  8
0
 10
19.0451
 20
289.255
 11
18.4369
 21
289.411
  0
LINE
  8
0
 10
18.4369
 20
289.411
 11
17.8139
 21
289.49
  0
LINE
  8
0
 10
17.8139
 20
289.49
 11
-17.8139
 21
289.49
  0
LINE
  8
0
 10
-17.8139
 20
289.49
 11
-18.4369
 21
289.411
  0
LINE
  8
0
 10
-18.4369
 20
289.411
 11
-19.0451
 21
289.255
  0
LINE
  8
0
 10
-19.0451
 20
289.255
 11
-19.6289
 21
289.024
  0
LINE
  8
0
 10
-19.6289
 20
289.024
 11
-20.1791
 21
288.722
  0
LINE
  8
0
 10
-20.1791
 20
288.722
 11
-20.6871
 21
288.353
  0
LINE
  8
0
 10
-20.6871
 20
288.353
 11
-21.1448
 21
287.923
  0
LINE
  8
0
 10
-21.1448
 20
287.923
 11
-21.5451
 21
287.439
  0
LINE
  8
0
 10
-21.5451
 20
287.439
 11
-21.8815
 21
286.909
  0
LINE
  8
0
 10
-21.8815
 20
286.909
 11
-22.1489
 21
286.341
  0
LINE
  8
0
 10
-22.1489
 20
286.341
 11
-22.3429
 21
285.743
  0
LINE
  8
0
 10
-22.3429
 20
285.743
 11
-22.4606
 21
285.127
  0
LINE
  8
0
 10
-22.4606
 20
285.127
 11
-22.5
 21
284.5
  0
LINE
  8
0
 10
-22.5
 20
284.5
 11
-22.5
 21
219.5
  0
LINE
  8
0
 10
-22.5
 20
219.5
 11
-22.4606
 21
218.873
  0
LINE
  8
0
 10
-22.4606
 20
218.873
 11
-22.3429
 21
218.257
  0
LINE
  8
0
 10
-22.3429
 20
218.257
 11
-22.1489
 21
217.659
  0
LINE
  8
0
 10
-22.1489
 20
217.659
 11
-21.8815
 21
217.091
  0
LINE
  8
0
 10
-21.8815
 20
217.091
 11
-21.5451
 21
216.561
  0
LINE
  8
0
 10
-21.5451
 20
216.561
 11
-21.1448
 21
216.077
  0
LINE
  8
0
 10
-21.1448
 20
216.077
 11
-20.6871
 21
215.647
  0
LINE
  8
0
 10
-20.6871
 20
215.647
 11
-20.1791
 21
215.278
  0
LINE
  8
0
 10
-20.1791
 20
215.278
 11
-19.6289
 21
214.976
  0
LINE
  8
0
 10
-19.6289
 20
214.976
 11
-19.0451
 21
214.745
  0
LINE
  8
0
 10
-19.0451
 20
214.745
 11
-18.4369
 21
214.589
  0
LINE
  8
0
 10
-18.4369
 20
214.589
 11
-17.8139
 21
214.51
  0
LINE
  8
0
 10
-17.8139
 20
214.51
 11
17.8139
 21
214.51
  0
LINE
  8
0
 10
17.8139
 20
214.51
 11
18.4369
 21
214.589
  0
LINE
  8
0
 10
-10.3781
 20
216.682
 11
-10.1185
 21
217.091
  0
LINE
  8
0
 10
-10.1185
 20
217.091
 11
-9.8511
 21
217.659
  0
LINE
  8
0
 10
-9.8511
 20
217.659
 11
-9.65707
 21
218.257
  0
LINE
  8
0
 10
-9.65707
 20
218.257
 11
-9.53941
 21
218.873
  0
LINE
  8
0
 10
-9.53941
 20
218.873
 11
-9.5
 21
219.5
  0
LINE
  8
0
 10
-9.5
 20
219.5
 11
-9.5
 21
222.5
  0
LINE
  8
0
 10
-9.5
 20
222.5
 11
-9.53941
 21
223.127
  0
LINE
  8
0
 10
-9.53941
 20
223.127
 11
-9.65707
 21
223.743
  0
LINE
  8
0
 10
-9.65707
 20
223.743
 11
-9.8511
 21
224.341
  0
LINE
  8
0
 10
-9.8511
 20
224.341
 11
-10.1185
 21
224.909
  0
LINE
  8
0
 10
-10.1185
 20
224.909
 11
-10.4549
 21
225.439
  0
LINE
  8
0
 10
-10.4549
 20
225.439
 11
-10.8551
 21
225.923
  0
LINE
  8
0
 10
-10.8551
 20
225.923
 11
-11.3129
 21
226.353
  0
LINE
  8
0
 10
-11.3129
 20
226.353
 11
-11.8209
 21
226.722
  0
LINE
  8
0
 10
-11.8209
 20
226.722
 11
-12.3711
 21
227.024
  0
LINE
  8
0
 10
-12.3711
 20
227.024
 11
-12.9549
 21
227.255
  0
LINE
  8
0
 10
-12.9549
 20
227.255
 11
-13.5631
 21
227.411
  0
LINE
  8
0
 10
-13.5631
 20
227.411
 11
-14.186
 21
227.49
  0
LINE
  8
0
 10
-14.186
 20
227.49
 11
-17.8139
 21
227.49
  0
LINE
  8
0
 10
-17.8139
 20
227.49
 11
-18.4369
 21
227.411
  0
LINE
  8
0
 10
-18.4369
 20
227.411
 11
-19.0451
 21
227.255
  0
LINE
  8
0
 10
-19.0451
 20
227.255
 11
-19.6289
 21
227.024
  0
LINE
  8
0
 10
-19.6289
 20
227.024
 11
-20.1791
 21
226.722
  0
LINE
  8
0
 10
-20.1791
 20
226.722
 11
-20.3234
 21
226.617
  0
LINE
  8
0
 10
-20.3234
 20
226.617
 11
-20.3234
 21
284.5
  0
LINE
  8
0
 10
-20.3234
 20
284.5
 11
-20.3011
 21
284.854
  0
LINE
  8
0
 10
-20.3011
 20
284.854
 11
-20.2347
 21
285.202
  0
LINE
  8
0
 10
-20.2347
 20
285.202
 11
-20.1251
 21
285.539
  0
LINE
  8
0
 10
-20.1251
 20
285.539
 11
-19.9742
 21
285.86
  0
LINE
  8
0
 10
-19.9742
 20
285.86
 11
-19.7842
 21
286.16
  0
LINE
  8
0
 10
-19.7842
 20
286.16
 11
-19.5582
 21
286.433
  0
LINE
  8
0
 10
-19.5582
 20
286.433
 11
-19.2997
 21
286.675
  0
LINE
  8
0
 10
-19.2997
 20
286.675
 11
-19.0128
 21
286.884
  0
LINE
  8
0
 10
-19.0128
 20
286.884
 11
-18.7021
 21
287.055
  0
LINE
  8
0
 10
-18.7021
 20
287.055
 11
-18.3725
 21
287.185
  0
LINE
  8
0
 10
-18.3725
 20
287.185
 11
-18.0291
 21
287.273
  0
LINE
  8
0
 10
-18.0291
 20
287.273
 11
-17.6773
 21
287.318
  0
LINE
  8
0
 10
-17.6773
 20
287.318
 11
10.3781
 21
287.318
  0
LINE
  8
0
 10
10.3781
 20
287.318
 11
10.1185
 21
286.909
  0
LINE
  8
0
 10
10.1185
 20
286.909
 11
9.8511
 21
286.341
  0
LINE
  8
0
 10
9.8511
 20
286.341
 11
9.65707
 21
285.743
  0
LINE
  8
0
 10
9.65707
 20
285.743
 11
9.53941
 21
285.127
  0
LINE
  8
0
 10
9.53941
 20
285.127
 11
9.5
 21
284.5
  0
LINE
  8
0
 10
9.5
 20
284.5
 11
9.5
 21
281.5
  0
LINE
  8
0
 10
9.5
 20
281.5
 11
9.53941
 21
280.873
  0
LINE
  8
0
 10
9.53941
 20
280.873
 11
9.65707
 21
280.257
  0
LINE
  8
0
 10
9.65707
 20
280.257
 11
9.8511
 21
279.659
  0
LINE
  8
0
 10
9.8511
 20
279.659
 11
10.1185
 21
279.091
  0
LINE
  8
0
 10
10.1185
 20
279.091
 11
10.4549
 21
278.561
  0
LINE
  8
0
 10
10.4549
 20
278.561
 11
10.8551
 21
278.077
  0
LINE
  8
0
 10
10.8551
 20
278.077
 11
11.3129
 21
277.647
  0
LINE
  8
0
 10
11.3129
 20
277.647
 11
11.8209
 21
277.278
  0
LINE
  8
0
 10
11.8209
 20
277.278
 11
12.3711
 21
276.976
  0
LINE
  8
0
 10
12.3711
 20
276.976
 11
12.9549
 21
276.745
  0
LINE
  8
0
 10
12.9549
 20
276.745
 11
13.5631
 21
276.589
  0
LINE
  8
0
 10
13.5631
 20
276.589
 11
14.186
 21
276.51
  0
LINE
  8
0
 10
14.186
 20
276.51
 11
17.8139
 21
276.51
  0
LINE
  8
0
 10
17.8139
 20
276.51
 11
18.4369
 21
276.589
  0
LINE
  8
0
 10
18.4369
 20
276.589
 11
19.0451
 21
276.745
  0
LINE
  8
0
 10
19.0451
 20
276.745
 11
19.6289
 21
276.976
  0
LINE
  8
0
 10
19.6289
 20
276.976
 11
20.1791
 21
277.278
  0
LINE
  8
0
 10
20.1791
 20
277.278
 11
20.3234
 21
277.383
  0
LINE
  8
0
 10
20.3234
 20
277.383
 11
20.3234
 21
219.5
  0
LINE
  8
0
 10
20.3234
 20
219.5
 11
20.3011
 21
219.146
  0
LINE
  8
0
 10
20.3011
 20
219.146
 11
20.2347
 21
218.798
  0
LINE
  8
0
 10
20.2347
 20
218.798
 11
20.1251
 21
218.461
  0
LINE
  8
0
 10
20.1251
 20
218.461
 11
19.9742
 21
218.14
  0
LINE
  8
0
 10
19.9742
 20
218.14
 11
19.7842
 21
217.84
  0
LINE
  8
0
 10
19.7842
 20
217.84
 11
19.5582
 21
217.567
  0
LINE
  8
0
 10
19.5582
 20
217.567
 11
19.2997
 21
217.325
  0
LINE
  8
0
 10
19.2997
 20
217.325
 11
19.0128
 21
217.116
  0
LINE
  8
0
 10
19.0128
 20
217.116
 11
18.7021
 21
216.945
  0
LINE
  8
0
 10
18.7021
 20
216.945
 11
18.3725
 21
216.815
  0
LINE
  8
0
 10
18.3725
 20
216.815
 11
18.0291
 21
216.727
  0
LINE
  8
0
 10
18.0291
 20
216.727
 11
17.6773
 21
216.682
  0
LINE
  8
0
 10
17.6773
 20
216.682
 11
-10.3781
 21
216.682
  0
LINE
  8
0
 10
14.8493
 20
279.605
 11
14.5503
 21
279.643
  0
LINE
  8
0
 10
14.5503
 20
279.643
 11
14.2583
 21
279.717
  0
LINE
  8
0
 10
14.2583
 20
279.717
 11
13.9781
 21
279.828
  0
LINE
  8
0
 10
13.9781
 20
279.828
 11
13.714
 21
279.974
  0
LINE
  8
0
 10
13.714
 20
279.974
 11
13.4702
 21
280.151
  0
LINE
  8
0
 10
13.4702
 20
280.151
 11
13.2505
 21
280.357
  0
LINE
  8
0
 10
13.2505
 20
280.357
 11
13.0583
 21
280.589
  0
LINE
  8
0
 10
13.0583
 20
280.589
 11
12.8969
 21
280.844
  0
LINE
  8
0
 10
12.8969
 20
280.844
 11
12.7685
 21
281.117
  0
LINE
  8
0
 10
12.7685
 20
281.117
 11
12.6754
 21
281.403
  0
LINE
  8
0
 10
12.6754
 20
281.403
 11
12.6189
 21
281.699
  0
LINE
  8
0
 10
12.6189
 20
281.699
 11
12.6
 21
282
  0
LINE
  8
0
 10
12.6
 20
282
 11
12.6189
 21
282.301
  0
LINE
  8
0
 10
12.6189
 20
282.301
 11
12.6754
 21
282.597
  0
LINE
  8
0
 10
12.6754
 20
282.597
 11
12.7685
 21
282.883
  0
LINE
  8
0
 10
12.7685
 20
282.883
 11
12.8969
 21
283.156
  0
LINE
  8
0
 10
12.8969
 20
283.156
 11
13.0583
 21
283.411
  0
LINE
  8
0
 10
13.0583
 20
283.411
 11
13.2505
 21
283.643
  0
LINE
  8
0
 10
13.2505
 20
283.643
 11
13.4702
 21
283.849
  0
LINE
  8
0
 10
13.4702
 20
283.849
 11
13.714
 21
284.026
  0
LINE
  8
0
 10
13.714
 20
284.026
 11
13.9781
 21
284.172
  0
LINE
  8
0
 10
13.9781
 20
284.172
 11
14.2583
 21
284.283
  0
LINE
  8
0
 10
14.2583
 20
284.283
 11
14.5503
 21
284.357
  0
LINE
  8
0
 10
14.5503
 20
284.357
 11
14.8493
 21
284.395
  0
LINE
  8
0
 10
14.8493
 20
284.395
 11
15.1507
 21
284.395
  0
LINE
  8
0
 10
15.1507
 20
284.395
 11
15.4497
 21
284.357
  0
LINE
  8
0
 10
15.4497
 20
284.357
 11
15.7416
 21
284.283
  0
LINE
  8
0
 10
15.7416
 20
284.283
 11
16.0219
 21
284.172
  0
LINE
  8
0
 10
16.0219
 20
284.172
 11
16.286
 21
284.026
  0
LINE
  8
0
 10
16.286
 20
284.026
 11
16.5298
 21
283.849
  0
LINE
  8
0
 10
16.5298
 20
283.849
 11
16.7495
 21
283.643
  0
LINE
  8
0
 10
16.7495
 20
283.643
 11
16.9416
 21
283.411
  0
LINE
  8
0
 10
16.9416
 20
283.411
 11
17.1031
 21
283.156
  0
LINE
  8
0
 10
17.1031
 20
283.156
 11
17.2315
 21
282.883
  0
LINE
  8
0
 10
17.2315
 20
282.883
 11
17.3246
 21
282.597
  0
LINE
  8
0
 10
17.3246
 20
282.597
 11
17.3811
 21
282.301
  0
LINE
  8
0
 10
17.3811
 20
282.301
 11
17.4
 21
282
  0
LINE
  8
0
 10
17.4
 20
282
 11
17.3811
 21
281.699
  0
LINE
  8
0
 10
17.3811
 20
281.699
 11
17.3246
 21
281.403
  0
LINE
  8
0
 10
17.3246
 20
281.403
 11
17.2315
 21
281.117
  0
LINE
  8
0
 10
17.2315
 20
281.117
 11
17.1031
 21
280.844
  0
LINE
  8
0
 10
17.1031
 20
280.844
 11
16.9416
 21
280.589
  0
LINE
  8
0
 10
16.9416
 20
280.589
 11
16.7495
 21
280.357
  0
LINE
  8
0
 10
16.7495
 20
280.357
 11
16.5298
 21
280.151
  0
LINE
  8
0
 10
16.5298
 20
280.151
 11
16.286
 21
279.974
  0
LINE
  8
0
 10
16.286
 20
279.974
 11
16.0219
 21
279.828
  0
LINE
  8
0
 10
16.0219
 20
279.828
 11
15.7416
 21
279.717
  0
LINE
  8
0
 10
15.7416
 20
279.717
 11
15.4497
 21
279.643
  0
LINE
  8
0
 10
15.4497
 20
279.643
 11
15.1507
 21
279.605
  0
LINE
  8
0
 10
15.1507
 20
279.605
 11
14.8493
 21
279.605
  0
LINE
  8
0
 10
-15.1507
 20
219.605
 11
-15.4497
 21
219.643
  0
LINE
  8
0
 10
-15.4497
 20
219.643
 11
-15.7416
 21
219.717
  0
LINE
  8
0
 10
-15.7416
 20
219.717
 11
-16.0219
 21
219.828
  0
LINE
  8
0
 10
-16.0219
 20
219.828
 11
-16.286
 21
219.974
  0
LINE
  8
0
 10
-16.286
 20
219.974
 11
-16.5298
 21
220.151
  0
LINE
  8
0
 10
-16.5298
 20
220.151
 11
-16.7495
 21
220.357
  0
LINE
  8
0
 10
-16.7495
 20
220.357
 11
-16.9416
 21
220.589
  0
LINE
  8
0
 10
-16.9416
 20
220.589
 11
-17.1031
 21
220.844
  0
LINE
  8
0
 10
-17.1031
 20
220.844
 11
-17.2315
 21
221.117
  0
LINE
  8
0
 10
-17.2315
 20
221.117
 11
-17.3246
 21
221.403
  0
LINE
  8
0
 10
-17.3246
 20
221.403
 11
-17.3811
 21
221.699
  0
LINE
  8
0
 10
-17.3811
 20
221.699
 11
-17.4
 21
222
  0
LINE
  8
0
 10
-17.4
 20
222
 11
-17.3811
 21
222.301
  0
LINE
  8
0
 10
-17.3811
 20
222.301
 11
-17.3246
 21
222.597
  0
LINE
  8
0
 10
-17.3246
 20
222.597
 11
-17.2315
 21
222.883
  0
LINE
  8
0
 10
-17.2315
 20
222.883
 11
-17.1031
 21
223.156
  0
LINE
  8
0
 10
-17.1031
 20
223.156
 11
-16.9416
 21
223.411
  0
LINE
  8
0
 10
-16.9416
 20
223.411
 11
-16.7495
 21
223.643
  0
LINE
  8
0
 10
-16.7495
 20
223.643
 11
-16.5298
 21
223.849
  0
LINE
  8
0
 10
-16.5298
 20
223.849
 11
-16.286
 21
224.026
  0
LINE
  8
0
 10
-16.286
 20
224.026
 11
-16.0219
 21
224.172
  0
LINE
  8
0
 10
-16.0219
 20
224.172
 11
-15.7416
 21
224.283
  0
LINE
  8
0
 10
-15.7416
 20
224.283
 11
-15.4497
 21
224.357
  0
LINE
  8
0
 10
-15.4497
 20
224.357
 11
-15.1507
 21
224.395
  0
LINE
  8
0
 10
-15.1507
 20
224.395
 11
-14.8493
 21
224.395
  0
LINE
  8
0
 10
-14.8493
 20
224.395
 11
-14.5503
 21
224.357
  0
LINE
  8
0
 10
-14.5503
 20
224.357
 11
-14.2583
 21
224.283
  0
LINE
  8
0
 10
-14.2583
 20
224.283
 11
-13.9781
 21
224.172
  0
LINE
  8
0
 10
-13.9781
 20
224.172
 11
-13.714
 21
224.026
  0
LINE
  8
0
 10
-13.714
 20
224.026
 11
-13.4702
 21
223.849
  0
LINE
  8
0
 10
-13.4702
 20
223.849
 11
-13.2505
 21
223.643
  0
LINE
  8
0
 10
-13.2505
 20
223.643
 11
-13.0583
 21
223.411
  0
LINE
  8
0
 10
-13.0583
 20
223.411
 11
-12.8969
 21
223.156
  0
LINE
  8
0
 10
-12.8969
 20
223.156
 11
-12.7685
 21
222.883
  0
LINE
  8
0
 10
-12.7685
 20
222.883
 11
-12.6754
 21
222.597
  0
LINE
  8
0
 10
-12.6754
 20
222.597
 11
-12.6189
 21
222.301
  0
LINE
  8
0
 10
-12.6189
 20
222.301
 11
-12.6
 21
222
  0
LINE
  8
0
 10
-12.6
 20
222
 11
-12.6189
 21
221.699
  0
LINE
  8
0
 10
-12.6189
 20
221.699
 11
-12.6754
 21
221.403
  0
LINE
  8
0
 10
-12.6754
 20
221.403
 11
-12.7685
 21
221.117
  0
LINE
  8
0
 10
-12.7685
 20
221.117
 11
-12.8969
 21
220.844
  0
LINE
  8
0
 10
-12.8969
 20
220.844
 11
-13.0583
 21
220.589
  0
LINE
  8
0
 10
-13.0583
 20
220.589
 11
-13.2505
 21
220.357
  0
LINE
  8
0
 10
-13.2505
 20
220.357
 11
-13.4702
 21
220.151
  0
LINE
  8
0
 10
-13.4702
 20
220.151
 11
-13.714
 21
219.974
  0
LINE
  8
0
 10
-13.714
 20
219.974
 11
-13.9781
 21
219.828
  0
LINE
  8
0
 10
-13.9781
 20
219.828
 11
-14.2583
 21
219.717
  0
LINE
  8
0
 10
-14.2583
 20
219.717
 11
-14.5503
 21
219.643
  0
LINE
  8
0
 10
-14.5503
 20
219.643
 11
-14.8493
 21
219.605
  0
LINE
  8
0
 10
-14.8493
 20
219.605
 11
-15.1507
 21
219.605
  0
ENDSEC
  0
SECTION
  2
OBJECTS
  0
DICTIONARY
  0
ENDSEC
  0
EOF
