  0
SECTION
  2
BLOCKS
  0
ENDSEC
  0
SECTION
  2
ENTITIES
  0
LINE
  8
0
 10
0.40451
 20
47.8794
 11
0.667099
 21
47.9468
  0
LINE
  8
0
 10
0.667099
 20
47.9468
 11
0.919174
 21
48.0466
  0
LINE
  8
0
 10
0.919174
 20
48.0466
 11
1.15675
 21
48.1772
  0
LINE
  8
0
 10
1.15675
 20
48.1772
 11
1.37608
 21
48.3366
  0
LINE
  8
0
 10
1.37608
 20
48.3366
 11
1.5737
 21
48.5222
  0
LINE
  8
0
 10
1.5737
 20
48.5222
 11
1.74652
 21
48.7311
  0
LINE
  8
0
 10
1.74652
 20
48.7311
 11
1.89178
 21
48.96
  0
LINE
  8
0
 10
1.89178
 20
48.96
 11
2.00722
 21
49.2053
  0
LINE
  8
0
 10
2.00722
 20
49.2053
 11
2.09099
 21
49.4631
  0
LINE
  8
0
 10
2.09099
 20
49.4631
 11
2.1418
 21
49.7294
  0
LINE
  8
0
 10
2.1418
 20
49.7294
 11
2.15881
 21
50
  0
LINE
  8
0
 10
2.15881
 20
50
 11
2.1418
 21
50.2706
  0
LINE
  8
0
 10
2.1418
 20
50.2706
 11
2.09099
 21
50.5369
  0
LINE
  8
0
 10
2.09099
 20
50.5369
 11
2.00722
 21
50.7947
  0
LINE
  8
0
 10
2.00722
 20
50.7947
 11
1.89178
 21
51.04
  0
LINE
  8
0
 10
1.89178
 20
51.04
 11
1.74652
 21
51.2689
  0
LINE
  8
0
 10
1.74652
 20
51.2689
 11
1.5737
 21
51.4778
  0
LINE
  8
0
 10
1.5737
 20
51.4778
 11
1.37608
 21
51.6634
  0
LINE
  8
0
 10
1.37608
 20
51.6634
 11
1.15675
 21
51.8228
  0
LINE
  8
0
 10
1.15675
 20
51.8228
 11
0.919174
 21
51.9534
  0
LINE
  8
0
 10
0.919174
 20
51.9534
 11
0.667099
 21
52.0532
  0
LINE
  8
0
 10
0.667099
 20
52.0532
 11
0.40451
 21
52.1206
  0
LINE
  8
0
 10
0.40451
 20
52.1206
 11
0.135544
 21
52.1546
  0
LINE
  8
0
 10
0.135544
 20
52.1546
 11
-0.135544
 21
52.1546
  0
LINE
  8
0
 10
-0.135544
 20
52.1546
 11
-0.40451
 21
52.1206
  0
LINE
  8
0
 10
-0.40451
 20
52.1206
 11
-0.667099
 21
52.0532
  0
LINE
  8
0
 10
-0.667099
 20
52.0532
 11
-0.919174
 21
51.9534
  0
LINE
  8
0
 10
-0.919174
 20
51.9534
 11
-1.15675
 21
51.8228
  0
LINE
  8
0
 10
-1.15675
 20
51.8228
 11
-1.37608
 21
51.6634
  0
LINE
  8
0
 10
-1.37608
 20
51.6634
 11
-1.5737
 21
51.4778
  0
LINE
  8
0
 10
-1.5737
 20
51.4778
 11
-1.74652
 21
51.2689
  0
LINE
  8
0
 10
-1.74652
 20
51.2689
 11
-1.89178
 21
51.04
  0
LINE
  8
0
 10
-1.89178
 20
51.04
 11
-2.00722
 21
50.7947
  0
LINE
  8
0
 10
-2.00722
 20
50.7947
 11
-2.09099
 21
50.5369
  0
LINE
  8
0
 10
-2.09099
 20
50.5369
 11
-2.1418
 21
50.2706
  0
LINE
  8
0
 10
-2.1418
 20
50.2706
 11
-2.15881
 21
50
  0
LINE
  8
0
 10
-2.15881
 20
50
 11
-2.1418
 21
49.7294
  0
LINE
  8
0
 10
-2.1418
 20
49.7294
 11
-2.09099
 21
49.4631
  0
LINE
  8
0
 10
-2.09099
 20
49.4631
 11
-2.00722
 21
49.2053
  0
LINE
  8
0
 10
-2.00722
 20
49.2053
 11
-1.89178
 21
48.96
  0
LINE
  8
0
 10
-1.89178
 20
48.96
 11
-1.74652
 21
48.7311
  0
LINE
  8
0
 10
-1.74652
 20
48.7311
 11
-1.5737
 21
48.5222
  0
LINE
  8
0
 10
-1.5737
 20
48.5222
 11
-1.37608
 21
48.3366
  0
LINE
  8
0
 10
-1.37608
 20
48.3366
 11
-1.15675
 21
48.1772
  0
LINE
  8
0
 10
-1.15675
 20
48.1772
 11
-0.919174
 21
48.0466
  0
LINE
  8
0
 10
-0.919174
 20
48.0466
 11
-0.667099
 21
47.9468
  0
LINE
  8
0
 10
-0.667099
 20
47.9468
 11
-0.40451
 21
47.8794
  0
LINE
  8
0
 10
-0.40451
 20
47.8794
 11
-0.135544
 21
47.8454
  0
LINE
  8
0
 10
-0.135544
 20
47.8454
 11
0.135544
 21
47.8454
  0
LINE
  8
0
 10
0.135544
 20
47.8454
 11
0.40451
 21
47.8794
  0
LINE
  8
0
 10
0.281067
 20
38.5266
 11
0.463516
 21
38.5734
  0
LINE
  8
0
 10
0.463516
 20
38.5734
 11
0.638657
 21
38.6428
  0
LINE
  8
0
 10
0.638657
 20
38.6428
 11
0.803726
 21
38.7335
  0
LINE
  8
0
 10
0.803726
 20
38.7335
 11
0.956131
 21
38.8442
  0
LINE
  8
0
 10
0.956131
 20
38.8442
 11
1.09344
 21
38.9732
  0
LINE
  8
0
 10
1.09344
 20
38.9732
 11
1.21352
 21
39.1183
  0
LINE
  8
0
 10
1.21352
 20
39.1183
 11
1.31445
 21
39.2774
  0
LINE
  8
0
 10
1.31445
 20
39.2774
 11
1.39465
 21
39.4478
  0
LINE
  8
0
 10
1.39465
 20
39.4478
 11
1.45287
 21
39.627
  0
LINE
  8
0
 10
1.45287
 20
39.627
 11
1.48816
 21
39.812
  0
LINE
  8
0
 10
1.48816
 20
39.812
 11
1.5
 21
40
  0
LINE
  8
0
 10
1.5
 20
40
 11
1.48816
 21
40.188
  0
LINE
  8
0
 10
1.48816
 20
40.188
 11
1.45287
 21
40.373
  0
LINE
  8
0
 10
1.45287
 20
40.373
 11
1.39465
 21
40.5522
  0
LINE
  8
0
 10
1.39465
 20
40.5522
 11
1.31445
 21
40.7226
  0
LINE
  8
0
 10
1.31445
 20
40.7226
 11
1.21352
 21
40.8817
  0
LINE
  8
0
 10
1.21352
 20
40.8817
 11
1.09344
 21
41.0268
  0
LINE
  8
0
 10
1.09344
 20
41.0268
 11
0.956131
 21
41.1558
  0
LINE
  8
0
 10
0.956131
 20
41.1558
 11
0.803726
 21
41.2665
  0
LINE
  8
0
 10
0.803726
 20
41.2665
 11
0.638657
 21
41.3572
  0
LINE
  8
0
 10
0.638657
 20
41.3572
 11
0.463516
 21
41.4266
  0
LINE
  8
0
 10
0.463516
 20
41.4266
 11
0.281067
 21
41.4734
  0
LINE
  8
0
 10
0.281067
 20
41.4734
 11
0.0941772
 21
41.497
  0
LINE
  8
0
 10
0.0941772
 20
41.497
 11
-0.0941772
 21
41.497
  0
LINE
  8
0
 10
-0.0941772
 20
41.497
 11
-0.281067
 21
41.4734
  0
LINE
  8
0
 10
-0.281067
 20
41.4734
 11
-0.463516
 21
41.4266
  0
LINE
  8
0
 10
-0.463516
 20
41.4266
 11
-0.638657
 21
41.3572
  0
LINE
  8
0
 10
-0.638657
 20
41.3572
 11
-0.803726
 21
41.2665
  0
LINE
  8
0
 10
-0.803726
 20
41.2665
 11
-0.956131
 21
41.1558
  0
LINE
  8
0
 10
-0.956131
 20
41.1558
 11
-1.09344
 21
41.0268
  0
LINE
  8
0
 10
-1.09344
 20
41.0268
 11
-1.21352
 21
40.8817
  0
LINE
  8
0
 10
-1.21352
 20
40.8817
 11
-1.31445
 21
40.7226
  0
LINE
  8
0
 10
-1.31445
 20
40.7226
 11
-1.39465
 21
40.5522
  0
LINE
  8
0
 10
-1.39465
 20
40.5522
 11
-1.45287
 21
40.373
  0
LINE
  8
0
 10
-1.45287
 20
40.373
 11
-1.48816
 21
40.188
  0
LINE
  8
0
 10
-1.48816
 20
40.188
 11
-1.5
 21
40
  0
LINE
  8
0
 10
-1.5
 20
40
 11
-1.48816
 21
39.812
  0
LINE
  8
0
 10
-1.48816
 20
39.812
 11
-1.45287
 21
39.627
  0
LINE
  8
0
 10
-1.45287
 20
39.627
 11
-1.39465
 21
39.4478
  0
LINE
  8
0
 10
-1.39465
 20
39.4478
 11
-1.31445
 21
39.2774
  0
LINE
  8
0
 10
-1.31445
 20
39.2774
 11
-1.21352
 21
39.1183
  0
LINE
  8
0
 10
-1.21352
 20
39.1183
 11
-1.09344
 21
38.9732
  0
LINE
  8
0
 10
-1.09344
 20
38.9732
 11
-0.956131
 21
38.8442
  0
LINE
  8
0
 10
-0.956131
 20
38.8442
 11
-0.803726
 21
38.7335
  0
LINE
  8
0
 10
-0.803726
 20
38.7335
 11
-0.638657
 21
38.6428
  0
LINE
  8
0
 10
-0.638657
 20
38.6428
 11
-0.463516
 21
38.5734
  0
LINE
  8
0
 10
-0.463516
 20
38.5734
 11
-0.281067
 21
38.5266
  0
LINE
  8
0
 10
-0.281067
 20
38.5266
 11
-0.0941772
 21
38.503
  0
LINE
  8
0
 10
-0.0941772
 20
38.503
 11
0.0941772
 21
38.503
  0
LINE
  8
0
 10
0.0941772
 20
38.503
 11
0.281067
 21
38.5266
  0
LINE
  8
0
 10
0.281067
 20
28.5266
 11
0.463516
 21
28.5734
  0
LINE
  8
0
 10
0.463516
 20
28.5734
 11
0.638657
 21
28.6428
  0
LINE
  8
0
 10
0.638657
 20
28.6428
 11
0.803726
 21
28.7335
  0
LINE
  8
0
 10
0.803726
 20
28.7335
 11
0.956131
 21
28.8442
  0
LINE
  8
0
 10
0.956131
 20
28.8442
 11
1.09344
 21
28.9732
  0
LINE
  8
0
 10
1.09344
 20
28.9732
 11
1.21352
 21
29.1183
  0
LINE
  8
0
 10
1.21352
 20
29.1183
 11
1.31445
 21
29.2774
  0
LINE
  8
0
 10
1.31445
 20
29.2774
 11
1.39465
 21
29.4478
  0
LINE
  8
0
 10
1.39465
 20
29.4478
 11
1.45287
 21
29.627
  0
LINE
  8
0
 10
1.45287
 20
29.627
 11
1.48816
 21
29.812
  0
LINE
  8
0
 10
1.48816
 20
29.812
 11
1.5
 21
30
  0
LINE
  8
0
 10
1.5
 20
30
 11
1.48816
 21
30.188
  0
LINE
  8
0
 10
1.48816
 20
30.188
 11
1.45287
 21
30.373
  0
LINE
  8
0
 10
1.45287
 20
30.373
 11
1.39465
 21
30.5522
  0
LINE
  8
0
 10
1.39465
 20
30.5522
 11
1.31445
 21
30.7226
  0
LINE
  8
0
 10
1.31445
 20
30.7226
 11
1.21352
 21
30.8817
  0
LINE
  8
0
 10
1.21352
 20
30.8817
 11
1.09344
 21
31.0268
  0
LINE
  8
0
 10
1.09344
 20
31.0268
 11
0.956131
 21
31.1558
  0
LINE
  8
0
 10
0.956131
 20
31.1558
 11
0.803726
 21
31.2665
  0
LINE
  8
0
 10
0.803726
 20
31.2665
 11
0.638657
 21
31.3572
  0
LINE
  8
0
 10
0.638657
 20
31.3572
 11
0.463516
 21
31.4266
  0
LINE
  8
0
 10
0.463516
 20
31.4266
 11
0.281067
 21
31.4734
  0
LINE
  8
0
 10
0.281067
 20
31.4734
 11
0.0941772
 21
31.497
  0
LINE
  8
0
 10
0.0941772
 20
31.497
 11
-0.0941772
 21
31.497
  0
LINE
  8
0
 10
-0.0941772
 20
31.497
 11
-0.281067
 21
31.4734
  0
LINE
  8
0
 10
-0.281067
 20
31.4734
 11
-0.463516
 21
31.4266
  0
LINE
  8
0
 10
-0.463516
 20
31.4266
 11
-0.638657
 21
31.3572
  0
LINE
  8
0
 10
-0.638657
 20
31.3572
 11
-0.803726
 21
31.2665
  0
LINE
  8
0
 10
-0.803726
 20
31.2665
 11
-0.956131
 21
31.1558
  0
LINE
  8
0
 10
-0.956131
 20
31.1558
 11
-1.09344
 21
31.0268
  0
LINE
  8
0
 10
-1.09344
 20
31.0268
 11
-1.21352
 21
30.8817
  0
LINE
  8
0
 10
-1.21352
 20
30.8817
 11
-1.31445
 21
30.7226
  0
LINE
  8
0
 10
-1.31445
 20
30.7226
 11
-1.39465
 21
30.5522
  0
LINE
  8
0
 10
-1.39465
 20
30.5522
 11
-1.45287
 21
30.373
  0
LINE
  8
0
 10
-1.45287
 20
30.373
 11
-1.48816
 21
30.188
  0
LINE
  8
0
 10
-1.48816
 20
30.188
 11
-1.5
 21
30
  0
LINE
  8
0
 10
-1.5
 20
30
 11
-1.48816
 21
29.812
  0
LINE
  8
0
 10
-1.48816
 20
29.812
 11
-1.45287
 21
29.627
  0
LINE
  8
0
 10
-1.45287
 20
29.627
 11
-1.39465
 21
29.4478
  0
LINE
  8
0
 10
-1.39465
 20
29.4478
 11
-1.31445
 21
29.2774
  0
LINE
  8
0
 10
-1.31445
 20
29.2774
 11
-1.21352
 21
29.1183
  0
LINE
  8
0
 10
-1.21352
 20
29.1183
 11
-1.09344
 21
28.9732
  0
LINE
  8
0
 10
-1.09344
 20
28.9732
 11
-0.956131
 21
28.8442
  0
LINE
  8
0
 10
-0.956131
 20
28.8442
 11
-0.803726
 21
28.7335
  0
LINE
  8
0
 10
-0.803726
 20
28.7335
 11
-0.638657
 21
28.6428
  0
LINE
  8
0
 10
-0.638657
 20
28.6428
 11
-0.463516
 21
28.5734
  0
LINE
  8
0
 10
-0.463516
 20
28.5734
 11
-0.281067
 21
28.5266
  0
LINE
  8
0
 10
-0.281067
 20
28.5266
 11
-0.0941772
 21
28.503
  0
LINE
  8
0
 10
-0.0941772
 20
28.503
 11
0.0941772
 21
28.503
  0
LINE
  8
0
 10
0.0941772
 20
28.503
 11
0.281067
 21
28.5266
  0
LINE
  8
0
 10
0.281067
 20
18.5266
 11
0.463516
 21
18.5734
  0
LINE
  8
0
 10
0.463516
 20
18.5734
 11
0.638657
 21
18.6428
  0
LINE
  8
0
 10
0.638657
 20
18.6428
 11
0.803726
 21
18.7335
  0
LINE
  8
0
 10
0.803726
 20
18.7335
 11
0.956131
 21
18.8442
  0
LINE
  8
0
 10
0.956131
 20
18.8442
 11
1.09344
 21
18.9732
  0
LINE
  8
0
 10
1.09344
 20
18.9732
 11
1.21352
 21
19.1183
  0
LINE
  8
0
 10
1.21352
 20
19.1183
 11
1.31445
 21
19.2774
  0
LINE
  8
0
 10
1.31445
 20
19.2774
 11
1.39465
 21
19.4478
  0
LINE
  8
0
 10
1.39465
 20
19.4478
 11
1.45287
 21
19.627
  0
LINE
  8
0
 10
1.45287
 20
19.627
 11
1.48816
 21
19.812
  0
LINE
  8
0
 10
1.48816
 20
19.812
 11
1.5
 21
20
  0
LINE
  8
0
 10
1.5
 20
20
 11
1.48816
 21
20.188
  0
LINE
  8
0
 10
1.48816
 20
20.188
 11
1.45287
 21
20.373
  0
LINE
  8
0
 10
1.45287
 20
20.373
 11
1.39465
 21
20.5522
  0
LINE
  8
0
 10
1.39465
 20
20.5522
 11
1.31445
 21
20.7226
  0
LINE
  8
0
 10
1.31445
 20
20.7226
 11
1.21352
 21
20.8817
  0
LINE
  8
0
 10
1.21352
 20
20.8817
 11
1.09344
 21
21.0268
  0
LINE
  8
0
 10
1.09344
 20
21.0268
 11
0.956131
 21
21.1558
  0
LINE
  8
0
 10
0.956131
 20
21.1558
 11
0.803726
 21
21.2665
  0
LINE
  8
0
 10
0.803726
 20
21.2665
 11
0.638657
 21
21.3572
  0
LINE
  8
0
 10
0.638657
 20
21.3572
 11
0.463516
 21
21.4266
  0
LINE
  8
0
 10
0.463516
 20
21.4266
 11
0.281067
 21
21.4734
  0
LINE
  8
0
 10
0.281067
 20
21.4734
 11
0.0941772
 21
21.497
  0
LINE
  8
0
 10
0.0941772
 20
21.497
 11
-0.0941772
 21
21.497
  0
LINE
  8
0
 10
-0.0941772
 20
21.497
 11
-0.281067
 21
21.4734
  0
LINE
  8
0
 10
-0.281067
 20
21.4734
 11
-0.463516
 21
21.4266
  0
LINE
  8
0
 10
-0.463516
 20
21.4266
 11
-0.638657
 21
21.3572
  0
LINE
  8
0
 10
-0.638657
 20
21.3572
 11
-0.803726
 21
21.2665
  0
LINE
  8
0
 10
-0.803726
 20
21.2665
 11
-0.956131
 21
21.1558
  0
LINE
  8
0
 10
-0.956131
 20
21.1558
 11
-1.09344
 21
21.0268
  0
LINE
  8
0
 10
-1.09344
 20
21.0268
 11
-1.21352
 21
20.8817
  0
LINE
  8
0
 10
-1.21352
 20
20.8817
 11
-1.31445
 21
20.7226
  0
LINE
  8
0
 10
-1.31445
 20
20.7226
 11
-1.39465
 21
20.5522
  0
LINE
  8
0
 10
-1.39465
 20
20.5522
 11
-1.45287
 21
20.373
  0
LINE
  8
0
 10
-1.45287
 20
20.373
 11
-1.48816
 21
20.188
  0
LINE
  8
0
 10
-1.48816
 20
20.188
 11
-1.5
 21
20
  0
LINE
  8
0
 10
-1.5
 20
20
 11
-1.48816
 21
19.812
  0
LINE
  8
0
 10
-1.48816
 20
19.812
 11
-1.45287
 21
19.627
  0
LINE
  8
0
 10
-1.45287
 20
19.627
 11
-1.39465
 21
19.4478
  0
LINE
  8
0
 10
-1.39465
 20
19.4478
 11
-1.31445
 21
19.2774
  0
LINE
  8
0
 10
-1.31445
 20
19.2774
 11
-1.21352
 21
19.1183
  0
LINE
  8
0
 10
-1.21352
 20
19.1183
 11
-1.09344
 21
18.9732
  0
LINE
  8
0
 10
-1.09344
 20
18.9732
 11
-0.956131
 21
18.8442
  0
LINE
  8
0
 10
-0.956131
 20
18.8442
 11
-0.803726
 21
18.7335
  0
LINE
  8
0
 10
-0.803726
 20
18.7335
 11
-0.638657
 21
18.6428
  0
LINE
  8
0
 10
-0.638657
 20
18.6428
 11
-0.463516
 21
18.5734
  0
LINE
  8
0
 10
-0.463516
 20
18.5734
 11
-0.281067
 21
18.5266
  0
LINE
  8
0
 10
-0.281067
 20
18.5266
 11
-0.0941772
 21
18.503
  0
LINE
  8
0
 10
-0.0941772
 20
18.503
 11
0.0941772
 21
18.503
  0
LINE
  8
0
 10
0.0941772
 20
18.503
 11
0.281067
 21
18.5266
  0
LINE
  8
0
 10
0.281067
 20
8.52658
 11
0.463516
 21
8.57343
  0
LINE
  8
0
 10
0.463516
 20
8.57343
 11
0.638657
 21
8.64276
  0
LINE
  8
0
 10
0.638657
 20
8.64276
 11
0.803726
 21
8.73352
  0
LINE
  8
0
 10
0.803726
 20
8.73352
 11
0.956131
 21
8.84424
  0
LINE
  8
0
 10
0.956131
 20
8.84424
 11
1.09344
 21
8.97319
  0
LINE
  8
0
 10
1.09344
 20
8.97319
 11
1.21352
 21
9.11833
  0
LINE
  8
0
 10
1.21352
 20
9.11833
 11
1.31445
 21
9.27737
  0
LINE
  8
0
 10
1.31445
 20
9.27737
 11
1.39465
 21
9.44781
  0
LINE
  8
0
 10
1.39465
 20
9.44781
 11
1.45287
 21
9.62697
  0
LINE
  8
0
 10
1.45287
 20
9.62697
 11
1.48816
 21
9.81201
  0
LINE
  8
0
 10
1.48816
 20
9.81201
 11
1.5
 21
10
  0
LINE
  8
0
 10
1.5
 20
10
 11
1.48816
 21
10.188
  0
LINE
  8
0
 10
1.48816
 20
10.188
 11
1.45287
 21
10.373
  0
LINE
  8
0
 10
1.45287
 20
10.373
 11
1.39465
 21
10.5522
  0
LINE
  8
0
 10
1.39465
 20
10.5522
 11
1.31445
 21
10.7226
  0
LINE
  8
0
 10
1.31445
 20
10.7226
 11
1.21352
 21
10.8817
  0
LINE
  8
0
 10
1.21352
 20
10.8817
 11
1.09344
 21
11.0268
  0
LINE
  8
0
 10
1.09344
 20
11.0268
 11
0.956131
 21
11.1558
  0
LINE
  8
0
 10
0.956131
 20
11.1558
 11
0.803726
 21
11.2665
  0
LINE
  8
0
 10
0.803726
 20
11.2665
 11
0.638657
 21
11.3572
  0
LINE
  8
0
 10
0.638657
 20
11.3572
 11
0.463516
 21
11.4266
  0
LINE
  8
0
 10
0.463516
 20
11.4266
 11
0.281067
 21
11.4734
  0
LINE
  8
0
 10
0.281067
 20
11.4734
 11
0.0941772
 21
11.497
  0
LINE
  8
0
 10
0.0941772
 20
11.497
 11
-0.0941772
 21
11.497
  0
LINE
  8
0
 10
-0.0941772
 20
11.497
 11
-0.281067
 21
11.4734
  0
LINE
  8
0
 10
-0.281067
 20
11.4734
 11
-0.463516
 21
11.4266
  0
LINE
  8
0
 10
-0.463516
 20
11.4266
 11
-0.638657
 21
11.3572
  0
LINE
  8
0
 10
-0.638657
 20
11.3572
 11
-0.803726
 21
11.2665
  0
LINE
  8
0
 10
-0.803726
 20
11.2665
 11
-0.956131
 21
11.1558
  0
LINE
  8
0
 10
-0.956131
 20
11.1558
 11
-1.09344
 21
11.0268
  0
LINE
  8
0
 10
-1.09344
 20
11.0268
 11
-1.21352
 21
10.8817
  0
LINE
  8
0
 10
-1.21352
 20
10.8817
 11
-1.31445
 21
10.7226
  0
LINE
  8
0
 10
-1.31445
 20
10.7226
 11
-1.39465
 21
10.5522
  0
LINE
  8
0
 10
-1.39465
 20
10.5522
 11
-1.45287
 21
10.373
  0
LINE
  8
0
 10
-1.45287
 20
10.373
 11
-1.48816
 21
10.188
  0
LINE
  8
0
 10
-1.48816
 20
10.188
 11
-1.5
 21
10
  0
LINE
  8
0
 10
-1.5
 20
10
 11
-1.48816
 21
9.81201
  0
LINE
  8
0
 10
-1.48816
 20
9.81201
 11
-1.45287
 21
9.62697
  0
LINE
  8
0
 10
-1.45287
 20
9.62697
 11
-1.39465
 21
9.44781
  0
LINE
  8
0
 10
-1.39465
 20
9.44781
 11
-1.31445
 21
9.27737
  0
LINE
  8
0
 10
-1.31445
 20
9.27737
 11
-1.21352
 21
9.11833
  0
LINE
  8
0
 10
-1.21352
 20
9.11833
 11
-1.09344
 21
8.97319
  0
LINE
  8
0
 10
-1.09344
 20
8.97319
 11
-0.956131
 21
8.84424
  0
LINE
  8
0
 10
-0.956131
 20
8.84424
 11
-0.803726
 21
8.73352
  0
LINE
  8
0
 10
-0.803726
 20
8.73352
 11
-0.638657
 21
8.64276
  0
LINE
  8
0
 10
-0.638657
 20
8.64276
 11
-0.463516
 21
8.57343
  0
LINE
  8
0
 10
-0.463516
 20
8.57343
 11
-0.281067
 21
8.52658
  0
LINE
  8
0
 10
-0.281067
 20
8.52658
 11
-0.0941772
 21
8.50296
  0
LINE
  8
0
 10
-0.0941772
 20
8.50296
 11
0.0941772
 21
8.50296
  0
LINE
  8
0
 10
0.0941772
 20
8.50296
 11
0.281067
 21
8.52658
  0
LINE
  8
0
 10
0.281067
 20
-1.47342
 11
0.463516
 21
-1.42657
  0
LINE
  8
0
 10
0.463516
 20
-1.42657
 11
0.638657
 21
-1.35724
  0
LINE
  8
0
 10
0.638657
 20
-1.35724
 11
0.803726
 21
-1.26648
  0
LINE
  8
0
 10
0.803726
 20
-1.26648
 11
0.956131
 21
-1.15576
  0
LINE
  8
0
 10
0.956131
 20
-1.15576
 11
1.09344
 21
-1.02681
  0
LINE
  8
0
 10
1.09344
 20
-1.02681
 11
1.21352
 21
-0.881668
  0
LINE
  8
0
 10
1.21352
 20
-0.881668
 11
1.31445
 21
-0.722626
  0
LINE
  8
0
 10
1.31445
 20
-0.722626
 11
1.39465
 21
-0.552185
  0
LINE
  8
0
 10
1.39465
 20
-0.552185
 11
1.45287
 21
-0.373032
  0
LINE
  8
0
 10
1.45287
 20
-0.373032
 11
1.48816
 21
-0.187988
  0
LINE
  8
0
 10
1.48816
 20
-0.187988
 11
1.5
 21
0
  0
LINE
  8
0
 10
1.5
 20
0
 11
1.48816
 21
0.187988
  0
LINE
  8
0
 10
1.48816
 20
0.187988
 11
1.45287
 21
0.373032
  0
LINE
  8
0
 10
1.45287
 20
0.373032
 11
1.39465
 21
0.552185
  0
LINE
  8
0
 10
1.39465
 20
0.552185
 11
1.31445
 21
0.722626
  0
LINE
  8
0
 10
1.31445
 20
0.722626
 11
1.21352
 21
0.881668
  0
LINE
  8
0
 10
1.21352
 20
0.881668
 11
1.09344
 21
1.02681
  0
LINE
  8
0
 10
1.09344
 20
1.02681
 11
0.956131
 21
1.15576
  0
LINE
  8
0
 10
0.956131
 20
1.15576
 11
0.803726
 21
1.26648
  0
LINE
  8
0
 10
0.803726
 20
1.26648
 11
0.638657
 21
1.35724
  0
LINE
  8
0
 10
0.638657
 20
1.35724
 11
0.463516
 21
1.42657
  0
LINE
  8
0
 10
0.463516
 20
1.42657
 11
0.281067
 21
1.47342
  0
LINE
  8
0
 10
0.281067
 20
1.47342
 11
0.0941772
 21
1.49704
  0
LINE
  8
0
 10
0.0941772
 20
1.49704
 11
-0.0941772
 21
1.49704
  0
LINE
  8
0
 10
-0.0941772
 20
1.49704
 11
-0.281067
 21
1.47342
  0
LINE
  8
0
 10
-0.281067
 20
1.47342
 11
-0.463516
 21
1.42657
  0
LINE
  8
0
 10
-0.463516
 20
1.42657
 11
-0.638657
 21
1.35724
  0
LINE
  8
0
 10
-0.638657
 20
1.35724
 11
-0.803726
 21
1.26648
  0
LINE
  8
0
 10
-0.803726
 20
1.26648
 11
-0.956131
 21
1.15576
  0
LINE
  8
0
 10
-0.956131
 20
1.15576
 11
-1.09344
 21
1.02681
  0
LINE
  8
0
 10
-1.09344
 20
1.02681
 11
-1.21352
 21
0.881668
  0
LINE
  8
0
 10
-1.21352
 20
0.881668
 11
-1.31445
 21
0.722626
  0
LINE
  8
0
 10
-1.31445
 20
0.722626
 11
-1.39465
 21
0.552185
  0
LINE
  8
0
 10
-1.39465
 20
0.552185
 11
-1.45287
 21
0.373032
  0
LINE
  8
0
 10
-1.45287
 20
0.373032
 11
-1.48816
 21
0.187988
  0
LINE
  8
0
 10
-1.48816
 20
0.187988
 11
-1.5
 21
0
  0
LINE
  8
0
 10
-1.5
 20
0
 11
-1.48816
 21
-0.187988
  0
LINE
  8
0
 10
-1.48816
 20
-0.187988
 11
-1.45287
 21
-0.373032
  0
LINE
  8
0
 10
-1.45287
 20
-0.373032
 11
-1.39465
 21
-0.552185
  0
LINE
  8
0
 10
-1.39465
 20
-0.552185
 11
-1.31445
 21
-0.722626
  0
LINE
  8
0
 10
-1.31445
 20
-0.722626
 11
-1.21352
 21
-0.881668
  0
LINE
  8
0
 10
-1.21352
 20
-0.881668
 11
-1.09344
 21
-1.02681
  0
LINE
  8
0
 10
-1.09344
 20
-1.02681
 11
-0.956131
 21
-1.15576
  0
LINE
  8
0
 10
-0.956131
 20
-1.15576
 11
-0.803726
 21
-1.26648
  0
LINE
  8
0
 10
-0.803726
 20
-1.26648
 11
-0.638657
 21
-1.35724
  0
LINE
  8
0
 10
-0.638657
 20
-1.35724
 11
-0.463516
 21
-1.42657
  0
LINE
  8
0
 10
-0.463516
 20
-1.42657
 11
-0.281067
 21
-1.47342
  0
LINE
  8
0
 10
-0.281067
 20
-1.47342
 11
-0.0941772
 21
-1.49704
  0
LINE
  8
0
 10
-0.0941772
 20
-1.49704
 11
0.0941772
 21
-1.49704
  0
LINE
  8
0
 10
0.0941772
 20
-1.49704
 11
0.281067
 21
-1.47342
  0
ENDSEC
  0
SECTION
  2
OBJECTS
  0
DICTIONARY
  0
ENDSEC
  0
EOF
