<?xml version="1.0" standalone="no"?>
<!DOCTYPE svg PUBLIC "-//W3C//DTD SVG 1.1//EN" "http://www.w3.org/Graphics/SVG/1.1/DTD/svg11.dtd">
<svg width="40mm" height="153mm" viewBox="-21 -239 40 153" xmlns="http://www.w3.org/2000/svg" version="1.1">
<title>OpenSCAD Model</title>
<path d="
M -17.25,-196.007 L -16.8948,-195.577 L -16.4371,-195.147 L -15.9291,-194.778 L -15.3789,-194.476 L -14.7951,-194.245
 L -14.1869,-194.089 L -13.5639,-194.01 L 13.5639,-194.01 L 14.1869,-194.089 L 14.7951,-194.245 L 15.3789,-194.476
 L 15.9291,-194.778 L 16.4371,-195.147 L 16.8948,-195.577 L 17.2951,-196.061 L 17.6315,-196.591 L 17.8989,-197.159
 L 18.0929,-197.757 L 18.2106,-198.373 L 18.25,-199 L 18.25,-233 L 18.2106,-233.627 L 18.0929,-234.243
 L 17.8989,-234.841 L 17.6315,-235.409 L 17.2951,-235.939 L 16.8948,-236.423 L 16.4371,-236.853 L 15.9291,-237.222
 L 15.3789,-237.524 L 14.7951,-237.755 L 14.1869,-237.911 L 13.5639,-237.99 L -13.5639,-237.99 L -14.1869,-237.911
 L -14.7951,-237.755 L -15.3789,-237.524 L -15.9291,-237.222 L -16.4371,-236.853 L -16.8948,-236.423 L -17.25,-235.993
 L -17.25,-238.49 L -20.25,-238.49 L -20.25,-193.51 L -17.25,-193.51 z
M -13.4932,-195.135 L -13.9756,-195.196 L -14.4467,-195.317 L -14.8989,-195.496 L -15.3251,-195.73 L -15.7185,-196.016
 L -16.073,-196.349 L -16.383,-196.724 L -16.6436,-197.134 L -16.8507,-197.574 L -17.001,-198.037 L -17.0921,-198.515
 L -17.1226,-199 L -17.1226,-233 L -17.0921,-233.485 L -17.001,-233.963 L -16.8507,-234.426 L -16.6436,-234.866
 L -16.383,-235.276 L -16.073,-235.651 L -15.7185,-235.984 L -15.3251,-236.27 L -14.8989,-236.504 L -14.4467,-236.683
 L -13.9756,-236.804 L -13.4932,-236.865 L 13.4932,-236.865 L 13.9756,-236.804 L 14.4467,-236.683 L 14.8989,-236.504
 L 15.3251,-236.27 L 15.7185,-235.984 L 16.073,-235.651 L 16.383,-235.276 L 16.6436,-234.866 L 16.8507,-234.426
 L 17.001,-233.963 L 17.0921,-233.485 L 17.1226,-233 L 17.1226,-199 L 17.0921,-198.515 L 17.001,-198.037
 L 16.8507,-197.574 L 16.6436,-197.134 L 16.383,-196.724 L 16.073,-196.349 L 15.7185,-196.016 L 15.3251,-195.73
 L 14.8989,-195.496 L 14.4467,-195.317 L 13.9756,-195.196 L 13.4932,-195.135 z
M -17.25,-142.007 L -16.8948,-141.577 L -16.4371,-141.147 L -15.9291,-140.778 L -15.3789,-140.476 L -14.7951,-140.245
 L -14.1869,-140.089 L -13.5639,-140.01 L 13.5639,-140.01 L 14.1869,-140.089 L 14.7951,-140.245 L 15.3789,-140.476
 L 15.9291,-140.778 L 16.4371,-141.147 L 16.8948,-141.577 L 17.2951,-142.061 L 17.6315,-142.591 L 17.8989,-143.159
 L 18.0929,-143.757 L 18.2106,-144.373 L 18.25,-145 L 18.25,-179 L 18.2106,-179.627 L 18.0929,-180.243
 L 17.8989,-180.841 L 17.6315,-181.409 L 17.2951,-181.939 L 16.8948,-182.423 L 16.4371,-182.853 L 15.9291,-183.222
 L 15.3789,-183.524 L 14.7951,-183.755 L 14.1869,-183.911 L 13.5639,-183.99 L -13.5639,-183.99 L -14.1869,-183.911
 L -14.7951,-183.755 L -15.3789,-183.524 L -15.9291,-183.222 L -16.4371,-182.853 L -16.8948,-182.423 L -17.25,-181.993
 L -17.25,-184.115 L -20.25,-184.115 L -20.25,-139.885 L -17.25,-139.885 z
M 14.1869,-86.0886 L 14.7951,-86.2447 L 15.3789,-86.4759 L 15.9291,-86.7784 L 16.4371,-87.1474 L 16.8948,-87.5773
 L 17.2951,-88.0611 L 17.6315,-88.5912 L 17.8989,-89.1594 L 18.0929,-89.7566 L 18.2106,-90.3733 L 18.25,-91
 L 18.25,-125 L 18.2106,-125.627 L 18.0929,-126.243 L 17.8989,-126.841 L 17.6315,-127.409 L 17.2951,-127.939
 L 16.8948,-128.423 L 16.4371,-128.853 L 15.9291,-129.222 L 15.3789,-129.524 L 14.7951,-129.755 L 14.1869,-129.911
 L 13.5639,-129.99 L -13.5639,-129.99 L -14.1869,-129.911 L -14.7951,-129.755 L -15.3789,-129.524 L -15.9291,-129.222
 L -16.4371,-128.853 L -16.8948,-128.423 L -17.2951,-127.939 L -17.6315,-127.409 L -17.8989,-126.841 L -18.0277,-126.444
 L -20.25,-126.444 L -20.25,-89.5558 L -18.0277,-89.5558 L -17.8989,-89.1594 L -17.6315,-88.5912 L -17.2951,-88.0611
 L -16.8948,-87.5773 L -16.4371,-87.1474 L -15.9291,-86.7784 L -15.3789,-86.4759 L -14.7951,-86.2447 L -14.1869,-86.0886
 L -13.5639,-86.0099 L 13.5639,-86.0099 z
M -11.4007,-120.605 L -11.6997,-120.643 L -11.9916,-120.717 L -12.2719,-120.828 L -12.536,-120.974 L -12.7798,-121.151
 L -12.9995,-121.357 L -13.1916,-121.589 L -13.3531,-121.844 L -13.4815,-122.117 L -13.5746,-122.403 L -13.6311,-122.699
 L -13.65,-123 L -13.6311,-123.301 L -13.5746,-123.597 L -13.4815,-123.883 L -13.3531,-124.156 L -13.1916,-124.411
 L -12.9995,-124.643 L -12.7798,-124.849 L -12.536,-125.026 L -12.2719,-125.172 L -11.9916,-125.283 L -11.6997,-125.357
 L -11.4007,-125.395 L -11.0993,-125.395 L -10.8003,-125.357 L -10.5083,-125.283 L -10.2281,-125.172 L -9.964,-125.026
 L -9.72017,-124.849 L -9.50047,-124.643 L -9.30835,-124.411 L -9.14685,-124.156 L -9.01852,-123.883 L -8.9254,-123.597
 L -8.86891,-123.301 L -8.84999,-123 L -8.86891,-122.699 L -8.9254,-122.403 L -9.01852,-122.117 L -9.14685,-121.844
 L -9.30835,-121.589 L -9.50047,-121.357 L -9.72017,-121.151 L -9.964,-120.974 L -10.2281,-120.828 L -10.5083,-120.717
 L -10.8003,-120.643 L -11.0993,-120.605 z
M 11.0993,-120.605 L 10.8003,-120.643 L 10.5083,-120.717 L 10.2281,-120.828 L 9.964,-120.974 L 9.72017,-121.151
 L 9.50047,-121.357 L 9.30835,-121.589 L 9.14685,-121.844 L 9.01852,-122.117 L 8.9254,-122.403 L 8.86891,-122.699
 L 8.84999,-123 L 8.86891,-123.301 L 8.9254,-123.597 L 9.01852,-123.883 L 9.14685,-124.156 L 9.30835,-124.411
 L 9.50047,-124.643 L 9.72017,-124.849 L 9.964,-125.026 L 10.2281,-125.172 L 10.5083,-125.283 L 10.8003,-125.357
 L 11.0993,-125.395 L 11.4007,-125.395 L 11.6997,-125.357 L 11.9916,-125.283 L 12.2719,-125.172 L 12.536,-125.026
 L 12.7798,-124.849 L 12.9995,-124.643 L 13.1916,-124.411 L 13.3531,-124.156 L 13.4815,-123.883 L 13.5746,-123.597
 L 13.6311,-123.301 L 13.65,-123 L 13.6311,-122.699 L 13.5746,-122.403 L 13.4815,-122.117 L 13.3531,-121.844
 L 13.1916,-121.589 L 12.9995,-121.357 L 12.7798,-121.151 L 12.536,-120.974 L 12.2719,-120.828 L 11.9916,-120.717
 L 11.6997,-120.643 L 11.4007,-120.605 z
M -11.4007,-90.6047 L -11.6997,-90.6425 L -11.9916,-90.7175 L -12.2719,-90.8284 L -12.536,-90.9736 L -12.7798,-91.1508
 L -12.9995,-91.3571 L -13.1916,-91.5893 L -13.3531,-91.8438 L -13.4815,-92.1165 L -13.5746,-92.4032 L -13.6311,-92.6992
 L -13.65,-93 L -13.6311,-93.3008 L -13.5746,-93.5969 L -13.4815,-93.8835 L -13.3531,-94.1562 L -13.1916,-94.4107
 L -12.9995,-94.6429 L -12.7798,-94.8492 L -12.536,-95.0264 L -12.2719,-95.1716 L -11.9916,-95.2825 L -11.6997,-95.3575
 L -11.4007,-95.3953 L -11.0993,-95.3953 L -10.8003,-95.3575 L -10.5083,-95.2825 L -10.2281,-95.1716 L -9.964,-95.0264
 L -9.72017,-94.8492 L -9.50047,-94.6429 L -9.30835,-94.4107 L -9.14685,-94.1562 L -9.01852,-93.8835 L -8.9254,-93.5969
 L -8.86891,-93.3008 L -8.84999,-93 L -8.86891,-92.6992 L -8.9254,-92.4032 L -9.01852,-92.1165 L -9.14685,-91.8438
 L -9.30835,-91.5893 L -9.50047,-91.3571 L -9.72017,-91.1508 L -9.964,-90.9736 L -10.2281,-90.8284 L -10.5083,-90.7175
 L -10.8003,-90.6425 L -11.0993,-90.6047 z
M 11.0993,-90.6047 L 10.8003,-90.6425 L 10.5083,-90.7175 L 10.2281,-90.8284 L 9.964,-90.9736 L 9.72017,-91.1508
 L 9.50047,-91.3571 L 9.30835,-91.5893 L 9.14685,-91.8438 L 9.01852,-92.1165 L 8.9254,-92.4032 L 8.86891,-92.6992
 L 8.84999,-93 L 8.86891,-93.3008 L 8.9254,-93.5969 L 9.01852,-93.8835 L 9.14685,-94.1562 L 9.30835,-94.4107
 L 9.50047,-94.6429 L 9.72017,-94.8492 L 9.964,-95.0264 L 10.2281,-95.1716 L 10.5083,-95.2825 L 10.8003,-95.3575
 L 11.0993,-95.3953 L 11.4007,-95.3953 L 11.6997,-95.3575 L 11.9916,-95.2825 L 12.2719,-95.1716 L 12.536,-95.0264
 L 12.7798,-94.8492 L 12.9995,-94.6429 L 13.1916,-94.4107 L 13.3531,-94.1562 L 13.4815,-93.8835 L 13.5746,-93.5969
 L 13.6311,-93.3008 L 13.65,-93 L 13.6311,-92.6992 L 13.5746,-92.4032 L 13.4815,-92.1165 L 13.3531,-91.8438
 L 13.1916,-91.5893 L 12.9995,-91.3571 L 12.7798,-91.1508 L 12.536,-90.9736 L 12.2719,-90.8284 L 11.9916,-90.7175
 L 11.6997,-90.6425 L 11.4007,-90.6047 z
" stroke="black" fill="lightgray" stroke-width="0.5"/>
</svg>
