<?xml version="1.0" standalone="no"?>
<!DOCTYPE svg PUBLIC "-//W3C//DTD SVG 1.1//EN" "http://www.w3.org/Graphics/SVG/1.1/DTD/svg11.dtd">
<svg width="46mm" height="129mm" viewBox="-23 -237 46 129" xmlns="http://www.w3.org/2000/svg" version="1.1">
<title>OpenSCAD Model</title>
<path d="
M 18.4369,-177.089 L 19.0451,-177.245 L 19.6289,-177.476 L 20.1791,-177.778 L 20.6871,-178.147 L 21.1448,-178.577
 L 21.5451,-179.061 L 21.8815,-179.591 L 22.1489,-180.159 L 22.3429,-180.757 L 22.4606,-181.373 L 22.5,-182
 L 22.5,-232 L 22.4606,-232.627 L 22.3429,-233.243 L 22.1489,-233.841 L 21.8815,-234.409 L 21.5451,-234.939
 L 21.1448,-235.423 L 20.6871,-235.853 L 20.1791,-236.222 L 19.6289,-236.524 L 19.0451,-236.755 L 18.4369,-236.911
 L 17.8139,-236.99 L -17.8139,-236.99 L -18.4369,-236.911 L -19.0451,-236.755 L -19.6289,-236.524 L -20.1791,-236.222
 L -20.6871,-235.853 L -21.1448,-235.423 L -21.5451,-234.939 L -21.8815,-234.409 L -22.1489,-233.841 L -22.3429,-233.243
 L -22.4606,-232.627 L -22.5,-232 L -22.5,-182 L -22.4606,-181.373 L -22.3429,-180.757 L -22.1489,-180.159
 L -21.8815,-179.591 L -21.5451,-179.061 L -21.1448,-178.577 L -20.6871,-178.147 L -20.1791,-177.778 L -19.6289,-177.476
 L -19.0451,-177.245 L -18.4369,-177.089 L -17.8139,-177.01 L 17.8139,-177.01 z
M -17.5375,-177.681 L -18.1079,-177.753 L -18.6648,-177.896 L -19.1994,-178.107 L -19.7032,-178.384 L -20.1684,-178.722
 L -20.5875,-179.116 L -20.954,-179.559 L -21.2621,-180.044 L -21.5069,-180.565 L -21.6846,-181.111 L -21.7923,-181.676
 L -21.8284,-182.25 L -21.8284,-231.75 L -21.7923,-232.324 L -21.6846,-232.889 L -21.5069,-233.435 L -21.2621,-233.956
 L -20.954,-234.441 L -20.5875,-234.884 L -20.1684,-235.278 L -19.7032,-235.616 L -19.1994,-235.893 L -18.6648,-236.104
 L -18.1079,-236.247 L -17.5375,-236.319 L 17.5375,-236.319 L 18.1079,-236.247 L 18.6648,-236.104 L 19.1994,-235.893
 L 19.7032,-235.616 L 20.1684,-235.278 L 20.5875,-234.884 L 20.954,-234.441 L 21.2621,-233.956 L 21.5069,-233.435
 L 21.6846,-232.889 L 21.7923,-232.324 L 21.8284,-231.75 L 21.8284,-182.25 L 21.7923,-181.676 L 21.6846,-181.111
 L 21.5069,-180.565 L 21.2621,-180.044 L 20.954,-179.559 L 20.5875,-179.116 L 20.1684,-178.722 L 19.7032,-178.384
 L 19.1994,-178.107 L 18.6648,-177.896 L 18.1079,-177.753 L 17.5375,-177.681 z
M 18.4369,-108.089 L 19.0451,-108.245 L 19.6289,-108.476 L 20.1791,-108.778 L 20.6871,-109.147 L 21.1448,-109.577
 L 21.5451,-110.061 L 21.8815,-110.591 L 22.1489,-111.159 L 22.3429,-111.757 L 22.4606,-112.373 L 22.5,-113
 L 22.5,-163 L 22.4606,-163.627 L 22.3429,-164.243 L 22.1489,-164.841 L 21.8815,-165.409 L 21.5451,-165.939
 L 21.1448,-166.423 L 20.6871,-166.853 L 20.1791,-167.222 L 19.6289,-167.524 L 19.0451,-167.755 L 18.4369,-167.911
 L 17.8139,-167.99 L -17.8139,-167.99 L -18.4369,-167.911 L -19.0451,-167.755 L -19.6289,-167.524 L -20.1791,-167.222
 L -20.6871,-166.853 L -21.1448,-166.423 L -21.5451,-165.939 L -21.8815,-165.409 L -22.1489,-164.841 L -22.3429,-164.243
 L -22.4606,-163.627 L -22.5,-163 L -22.5,-113 L -22.4606,-112.373 L -22.3429,-111.757 L -22.1489,-111.159
 L -21.8815,-110.591 L -21.5451,-110.061 L -21.1448,-109.577 L -20.6871,-109.147 L -20.1791,-108.778 L -19.6289,-108.476
 L -19.0451,-108.245 L -18.4369,-108.089 L -17.8139,-108.01 L 17.8139,-108.01 z
M -17.3825,-111.145 L -17.6453,-111.178 L -17.9019,-111.244 L -18.1482,-111.341 L -18.3804,-111.469 L -18.5947,-111.625
 L -18.7879,-111.806 L -18.9567,-112.01 L -19.0987,-112.234 L -19.2115,-112.473 L -19.2934,-112.725 L -19.343,-112.986
 L -19.3596,-113.25 L -19.3596,-162.75 L -19.343,-163.014 L -19.2934,-163.275 L -19.2115,-163.527 L -19.0987,-163.766
 L -18.9567,-163.99 L -18.7879,-164.194 L -18.5947,-164.375 L -18.3804,-164.531 L -18.1482,-164.659 L -17.9019,-164.756
 L -17.6453,-164.822 L -17.3825,-164.855 L 17.3825,-164.855 L 17.6453,-164.822 L 17.9019,-164.756 L 18.1482,-164.659
 L 18.3804,-164.531 L 18.5947,-164.375 L 18.7879,-164.194 L 18.9567,-163.99 L 19.0987,-163.766 L 19.2115,-163.527
 L 19.2934,-163.275 L 19.343,-163.014 L 19.3596,-162.75 L 19.3596,-113.25 L 19.343,-112.986 L 19.2934,-112.725
 L 19.2115,-112.473 L 19.0987,-112.234 L 18.9567,-112.01 L 18.7879,-111.806 L 18.5947,-111.625 L 18.3804,-111.469
 L 18.1482,-111.341 L 17.9019,-111.244 L 17.6453,-111.178 L 17.3825,-111.145 z
" stroke="black" fill="lightgray" stroke-width="0.5"/>
</svg>
