<?xml version="1.0" standalone="no"?>
<!DOCTYPE svg PUBLIC "-//W3C//DTD SVG 1.1//EN" "http://www.w3.org/Graphics/SVG/1.1/DTD/svg11.dtd">
<svg width="22mm" height="242mm" viewBox="-11 -231 22 242" xmlns="http://www.w3.org/2000/svg" version="1.1">
<title>OpenSCAD Model</title>
<path d="
M 2.03777,-209.318 L 3.36055,-209.657 L 4.63034,-210.16 L 5.8271,-210.818 L 6.14682,-211.05 L 6.12573,-211.149
 L 6.10052,-211.45 L 6.11314,-211.751 L 6.16341,-212.048 L 6.25052,-212.337 L 6.37311,-212.612 L 6.52924,-212.87
 L 6.71645,-213.106 L 6.93178,-213.317 L 7.17186,-213.499 L 7.43286,-213.65 L 7.71071,-213.767 L 8.00101,-213.848
 L 8.29916,-213.892 L 8.60049,-213.898 L 8.90024,-213.866 L 8.95412,-213.854 L 9.52983,-214.761 L 10.1113,-215.997
 L 10.5333,-217.296 L 10.7892,-218.637 L 10.875,-220 L 10.7892,-221.363 L 10.5333,-222.704 L 10.1113,-224.003
 L 9.52983,-225.239 L 8.95436,-226.146 L 8.70082,-226.108 L 8.39949,-226.102 L 8.09975,-226.134 L 7.80632,-226.202
 L 7.52382,-226.307 L 7.25673,-226.447 L 7.00923,-226.619 L 6.78526,-226.821 L 6.58832,-227.049 L 6.42152,-227.3
 L 6.28752,-227.57 L 6.1884,-227.855 L 6.12573,-228.149 L 6.10052,-228.45 L 6.11314,-228.751 L 6.14679,-228.95
 L 5.8271,-229.182 L 4.63034,-229.84 L 3.36055,-230.343 L 2.03777,-230.682 L 0.682846,-230.854 L -0.682846,-230.854
 L -2.03777,-230.682 L -3.36055,-230.343 L -4.63034,-229.84 L -5.8271,-229.182 L -6.14682,-228.95 L -6.12573,-228.851
 L -6.10052,-228.55 L -6.11314,-228.249 L -6.16341,-227.952 L -6.25052,-227.663 L -6.37311,-227.388 L -6.52924,-227.13
 L -6.71645,-226.894 L -6.93178,-226.683 L -7.17186,-226.501 L -7.43286,-226.35 L -7.71071,-226.233 L -8.00101,-226.152
 L -8.29916,-226.108 L -8.60049,-226.102 L -8.90024,-226.134 L -8.95412,-226.146 L -9.52983,-225.239 L -10.1113,-224.003
 L -10.5333,-222.704 L -10.7892,-221.363 L -10.875,-220 L -10.7892,-218.637 L -10.5333,-217.296 L -10.1113,-215.997
 L -9.52983,-214.761 L -8.95436,-213.854 L -8.70082,-213.892 L -8.39949,-213.898 L -8.09975,-213.866 L -7.80632,-213.798
 L -7.52382,-213.693 L -7.25673,-213.553 L -7.00923,-213.381 L -6.78526,-213.179 L -6.58832,-212.951 L -6.42152,-212.7
 L -6.28752,-212.43 L -6.1884,-212.145 L -6.12573,-211.851 L -6.10052,-211.55 L -6.11314,-211.249 L -6.14679,-211.05
 L -5.8271,-210.818 L -4.63034,-210.16 L -3.36055,-209.657 L -2.03777,-209.318 L -0.682846,-209.146 L 0.682846,-209.146
 z
M -0.470917,-212.515 L -1.40535,-212.633 L -2.31763,-212.867 L -3.19334,-213.214 L -4.01869,-213.668 L -4.78067,-214.221
 L -5.46725,-214.866 L -6.06763,-215.592 L -6.5723,-216.387 L -6.97331,-217.239 L -7.26436,-218.135 L -7.44086,-219.06
 L -7.5,-220 L -7.44086,-220.94 L -7.26436,-221.865 L -6.97331,-222.761 L -6.5723,-223.613 L -6.06763,-224.408
 L -5.46725,-225.134 L -4.78067,-225.779 L -4.01869,-226.332 L -3.19334,-226.786 L -2.31763,-227.133 L -1.40535,-227.367
 L -0.470917,-227.485 L 0.470917,-227.485 L 1.40535,-227.367 L 2.31763,-227.133 L 3.19334,-226.786 L 4.01869,-226.332
 L 4.78067,-225.779 L 5.46725,-225.134 L 6.06763,-224.408 L 6.5723,-223.613 L 6.97331,-222.761 L 7.26436,-221.865
 L 7.44086,-220.94 L 7.5,-220 L 7.44086,-219.06 L 7.26436,-218.135 L 6.97331,-217.239 L 6.5723,-216.387
 L 6.06763,-215.592 L 5.46725,-214.866 L 4.78067,-214.221 L 4.01869,-213.668 L 3.19334,-213.214 L 2.31763,-212.867
 L 1.40535,-212.633 L 0.470917,-212.515 z
M 0.749512,-216.071 L 1.23605,-216.196 L 1.70311,-216.381 L 2.1433,-216.623 L 2.54968,-216.918 L 2.91586,-217.262
 L 3.23605,-217.649 L 3.50522,-218.073 L 3.7191,-218.528 L 3.87433,-219.005 L 3.96844,-219.499 L 4,-220
 L 3.96844,-220.501 L 3.87433,-220.995 L 3.7191,-221.472 L 3.50522,-221.927 L 3.23605,-222.351 L 2.91586,-222.738
 L 2.54968,-223.082 L 2.1433,-223.377 L 1.70311,-223.619 L 1.23605,-223.804 L 0.749512,-223.929 L 0.25116,-223.992
 L -0.25116,-223.992 L -0.749512,-223.929 L -1.23605,-223.804 L -1.70311,-223.619 L -2.1433,-223.377 L -2.54968,-223.082
 L -2.91586,-222.738 L -3.23605,-222.351 L -3.50522,-221.927 L -3.7191,-221.472 L -3.87433,-220.995 L -3.96844,-220.501
 L -4,-220 L -3.96844,-219.499 L -3.87433,-219.005 L -3.7191,-218.528 L -3.50522,-218.073 L -3.23605,-217.649
 L -2.91586,-217.262 L -2.54968,-216.918 L -2.1433,-216.623 L -1.70311,-216.381 L -1.23605,-216.196 L -0.749512,-216.071
 L -0.25116,-216.008 L 0.25116,-216.008 z
M -0.18837,-217.006 L -0.562134,-217.053 L -0.927048,-217.147 L -1.27733,-217.286 L -1.60747,-217.467 L -1.91226,-217.688
 L -2.1869,-217.946 L -2.42705,-218.237 L -2.62891,-218.555 L -2.78932,-218.896 L -2.90575,-219.254 L -2.97633,-219.624
 L -3,-220 L -2.97633,-220.376 L -2.90575,-220.746 L -2.78932,-221.104 L -2.62891,-221.445 L -2.42705,-221.763
 L -2.1869,-222.054 L -1.91226,-222.312 L -1.60747,-222.533 L -1.27733,-222.714 L -0.927048,-222.853 L -0.562134,-222.947
 L -0.18837,-222.994 L 0.18837,-222.994 L 0.562134,-222.947 L 0.927048,-222.853 L 1.27733,-222.714 L 1.60747,-222.533
 L 1.91226,-222.312 L 2.1869,-222.054 L 2.42705,-221.763 L 2.62891,-221.445 L 2.78932,-221.104 L 2.90575,-220.746
 L 2.97633,-220.376 L 3,-220 L 2.97633,-219.624 L 2.90575,-219.254 L 2.78932,-218.896 L 2.62891,-218.555
 L 2.42705,-218.237 L 2.1869,-217.946 L 1.91226,-217.688 L 1.60747,-217.467 L 1.27733,-217.286 L 0.927048,-217.147
 L 0.562134,-217.053 L 0.18837,-217.006 z
M 1.91434,-99.9647 L 3.157,-100.284 L 4.34988,-100.756 L 5.47415,-101.374 L 5.60176,-101.467 L 5.60176,-103.173
 L 8.49998,-104.847 L 8.72363,-104.717 L 8.95259,-105.078 L 9.49886,-106.239 L 9.89532,-107.459 L 10.1357,-108.72
 L 10.2163,-110 L 10.1357,-111.28 L 9.89532,-112.541 L 9.49886,-113.761 L 8.95259,-114.922 L 8.26515,-116.005
 L 7.44734,-116.994 L 6.5121,-117.872 L 5.47415,-118.626 L 4.34988,-119.244 L 3.157,-119.716 L 1.91434,-120.035
 L 0.641479,-120.196 L -0.641479,-120.196 L -1.91434,-120.035 L -3.157,-119.716 L -4.34988,-119.244 L -5.47415,-118.626
 L -5.60176,-118.533 L -5.60176,-116.827 L -8.49998,-115.153 L -8.72363,-115.283 L -8.95259,-114.922 L -9.49886,-113.761
 L -9.89532,-112.541 L -10.1357,-111.28 L -10.2163,-110 L -10.1357,-108.72 L -9.89532,-107.459 L -9.49886,-106.239
 L -8.95259,-105.078 L -8.26515,-103.995 L -7.44734,-103.006 L -6.5121,-102.128 L -5.47415,-101.374 L -4.34988,-100.756
 L -3.157,-100.284 L -1.91434,-99.9647 L -0.641479,-99.8039 L 0.641479,-99.8039 z
M -0.533707,-101.517 L -1.59273,-101.651 L -2.62663,-101.916 L -3.61911,-102.309 L -4.55452,-102.823 L -5.41809,-103.451
 L -6.19623,-104.181 L -6.87663,-105.004 L -7.44859,-105.905 L -7.90309,-106.871 L -8.23296,-107.886 L -8.43297,-108.935
 L -8.5,-110 L -8.43297,-111.065 L -8.23296,-112.114 L -7.90309,-113.129 L -7.44859,-114.095 L -6.87663,-114.996
 L -6.19623,-115.819 L -5.41809,-116.549 L -4.55452,-117.177 L -3.61911,-117.691 L -2.62663,-118.084 L -1.59273,-118.349
 L -0.533707,-118.483 L 0.533707,-118.483 L 1.59273,-118.349 L 2.62663,-118.084 L 3.61911,-117.691 L 4.55452,-117.177
 L 5.41809,-116.549 L 6.19623,-115.819 L 6.87663,-114.996 L 7.44859,-114.095 L 7.90309,-113.129 L 8.23296,-112.114
 L 8.43297,-111.065 L 8.5,-110 L 8.43297,-108.935 L 8.23296,-107.886 L 7.90309,-106.871 L 7.44859,-105.905
 L 6.87663,-105.004 L 6.19623,-104.181 L 5.41809,-103.451 L 4.55452,-102.823 L 3.61911,-102.309 L 2.62663,-101.916
 L 1.59273,-101.651 L 0.533707,-101.517 z
M 2.03777,10.6824 L 3.36055,10.3427 L 4.63034,9.83998 L 5.8271,9.18205 L 6.14682,8.94977 L 6.12573,8.85059
 L 6.10052,8.55025 L 6.11314,8.24913 L 6.16341,7.95195 L 6.25052,7.66342 L 6.37311,7.38808 L 6.52924,7.13028
 L 6.71645,6.89407 L 6.93178,6.6832 L 7.17186,6.50098 L 7.43286,6.35028 L 7.71071,6.23349 L 8.00101,6.15244
 L 8.29916,6.10841 L 8.60049,6.1021 L 8.90024,6.13361 L 8.95412,6.14624 L 9.52983,5.23906 L 10.1113,4.00334
 L 10.5333,2.7045 L 10.7892,1.36299 L 10.875,-0 L 10.7892,-1.36299 L 10.5333,-2.7045 L 10.1113,-4.00334
 L 9.52983,-5.23906 L 9.29347,-5.61151 L 8.5,-5.1534 L 5.60176,-6.82671 L 5.60176,-9.30594 L 4.63034,-9.83998
 L 3.36055,-10.3427 L 2.03777,-10.6824 L 0.682846,-10.8535 L -0.682846,-10.8535 L -2.03777,-10.6824 L -3.36055,-10.3427
 L -4.63034,-9.83998 L -5.8271,-9.18205 L -6.14682,-8.94977 L -6.12573,-8.85059 L -6.10052,-8.55025 L -6.11314,-8.24913
 L -6.16341,-7.95195 L -6.25052,-7.66342 L -6.37311,-7.38808 L -6.52924,-7.13028 L -6.71645,-6.89407 L -6.93178,-6.6832
 L -7.17186,-6.50098 L -7.43286,-6.35028 L -7.71071,-6.23349 L -8.00101,-6.15244 L -8.29916,-6.10841 L -8.60049,-6.1021
 L -8.90024,-6.13361 L -8.95412,-6.14624 L -9.52983,-5.23906 L -10.1113,-4.00334 L -10.5333,-2.7045 L -10.7892,-1.36299
 L -10.875,-0 L -10.7892,1.36299 L -10.5333,2.7045 L -10.1113,4.00334 L -9.52983,5.23906 L -9.29347,5.61151
 L -8.5,5.1534 L -5.60176,6.82671 L -5.60176,9.30594 L -4.63034,9.83998 L -3.36055,10.3427 L -2.03777,10.6824
 L -0.682846,10.8535 L 0.682846,10.8535 z
M -0.533707,8.48322 L -1.59273,8.34944 L -2.62663,8.08397 L -3.61911,7.69102 L -4.55452,7.17677 L -5.41809,6.54936
 L -6.19623,5.81865 L -6.87663,4.99617 L -7.44859,4.09489 L -7.90309,3.12904 L -8.23296,2.11386 L -8.43297,1.06532
 L -8.5,-0 L -8.43297,-1.06532 L -8.23296,-2.11386 L -7.90309,-3.12904 L -7.44859,-4.09489 L -6.87663,-4.99617
 L -6.19623,-5.81865 L -5.41809,-6.54936 L -4.55452,-7.17677 L -3.61911,-7.69102 L -2.62663,-8.08397 L -1.59273,-8.34944
 L -0.533707,-8.48322 L 0.533707,-8.48322 L 1.59273,-8.34944 L 2.62663,-8.08397 L 3.61911,-7.69102 L 4.55452,-7.17677
 L 5.41809,-6.54936 L 6.19623,-5.81865 L 6.87663,-4.99617 L 7.44859,-4.09489 L 7.90309,-3.12904 L 8.23296,-2.11386
 L 8.43297,-1.06532 L 8.5,-0 L 8.43297,1.06532 L 8.23296,2.11386 L 7.90309,3.12904 L 7.44859,4.09489
 L 6.87663,4.99617 L 6.19623,5.81865 L 5.41809,6.54936 L 4.55452,7.17677 L 3.61911,7.69102 L 2.62663,8.08397
 L 1.59273,8.34944 L 0.533707,8.48322 z
" stroke="black" fill="lightgray" stroke-width="0.5"/>
</svg>
