<?xml version="1.0" standalone="no"?>
<!DOCTYPE svg PUBLIC "-//W3C//DTD SVG 1.1//EN" "http://www.w3.org/Graphics/SVG/1.1/DTD/svg11.dtd">
<svg width="32mm" height="153mm" viewBox="-17 -239 32 153" xmlns="http://www.w3.org/2000/svg" version="1.1">
<title>OpenSCAD Model</title>
<path d="
M -13.5,-196.007 L -13.1448,-195.577 L -12.6871,-195.147 L -12.1791,-194.778 L -11.6289,-194.476 L -11.0451,-194.245
 L -10.4369,-194.089 L -9.81395,-194.01 L 9.81395,-194.01 L 10.4369,-194.089 L 11.0451,-194.245 L 11.6289,-194.476
 L 12.1791,-194.778 L 12.6871,-195.147 L 13.1448,-195.577 L 13.5451,-196.061 L 13.8815,-196.591 L 14.1489,-197.159
 L 14.3429,-197.757 L 14.4606,-198.373 L 14.5,-199 L 14.5,-233 L 14.4606,-233.627 L 14.3429,-234.243
 L 14.1489,-234.841 L 13.8815,-235.409 L 13.5451,-235.939 L 13.1448,-236.423 L 12.6871,-236.853 L 12.1791,-237.222
 L 11.6289,-237.524 L 11.0451,-237.755 L 10.4369,-237.911 L 9.81395,-237.99 L -9.81395,-237.99 L -10.4369,-237.911
 L -11.0451,-237.755 L -11.6289,-237.524 L -12.1791,-237.222 L -12.6871,-236.853 L -13.1448,-236.423 L -13.5,-235.993
 L -13.5,-238.49 L -16.5,-238.49 L -16.5,-193.51 L -13.5,-193.51 z
M -9.74316,-195.135 L -10.2256,-195.196 L -10.6967,-195.317 L -11.1489,-195.496 L -11.5751,-195.73 L -11.9685,-196.016
 L -12.323,-196.349 L -12.633,-196.724 L -12.8936,-197.134 L -13.1007,-197.574 L -13.251,-198.037 L -13.3421,-198.515
 L -13.3726,-199 L -13.3726,-233 L -13.3421,-233.485 L -13.251,-233.963 L -13.1007,-234.426 L -12.8936,-234.866
 L -12.633,-235.276 L -12.323,-235.651 L -11.9685,-235.984 L -11.5751,-236.27 L -11.1489,-236.504 L -10.6967,-236.683
 L -10.2256,-236.804 L -9.74316,-236.865 L 9.74316,-236.865 L 10.2256,-236.804 L 10.6967,-236.683 L 11.1489,-236.504
 L 11.5751,-236.27 L 11.9685,-235.984 L 12.323,-235.651 L 12.633,-235.276 L 12.8936,-234.866 L 13.1007,-234.426
 L 13.251,-233.963 L 13.3421,-233.485 L 13.3726,-233 L 13.3726,-199 L 13.3421,-198.515 L 13.251,-198.037
 L 13.1007,-197.574 L 12.8936,-197.134 L 12.633,-196.724 L 12.323,-196.349 L 11.9685,-196.016 L 11.5751,-195.73
 L 11.1489,-195.496 L 10.6967,-195.317 L 10.2256,-195.196 L 9.74316,-195.135 z
M -13.5,-142.007 L -13.1448,-141.577 L -12.6871,-141.147 L -12.1791,-140.778 L -11.6289,-140.476 L -11.0451,-140.245
 L -10.4369,-140.089 L -9.81395,-140.01 L 9.81395,-140.01 L 10.4369,-140.089 L 11.0451,-140.245 L 11.6289,-140.476
 L 12.1791,-140.778 L 12.6871,-141.147 L 13.1448,-141.577 L 13.5451,-142.061 L 13.8815,-142.591 L 14.1489,-143.159
 L 14.3429,-143.757 L 14.4606,-144.373 L 14.5,-145 L 14.5,-179 L 14.4606,-179.627 L 14.3429,-180.243
 L 14.1489,-180.841 L 13.8815,-181.409 L 13.5451,-181.939 L 13.1448,-182.423 L 12.6871,-182.853 L 12.1791,-183.222
 L 11.6289,-183.524 L 11.0451,-183.755 L 10.4369,-183.911 L 9.81395,-183.99 L -9.81395,-183.99 L -10.4369,-183.911
 L -11.0451,-183.755 L -11.6289,-183.524 L -12.1791,-183.222 L -12.6871,-182.853 L -13.1448,-182.423 L -13.5,-181.993
 L -13.5,-184.115 L -16.5,-184.115 L -16.5,-139.885 L -13.5,-139.885 z
M 10.4369,-86.0886 L 11.0451,-86.2447 L 11.6289,-86.4759 L 12.1791,-86.7784 L 12.6871,-87.1474 L 13.1448,-87.5773
 L 13.5451,-88.0611 L 13.8815,-88.5912 L 14.1489,-89.1594 L 14.3429,-89.7566 L 14.4606,-90.3733 L 14.5,-91
 L 14.5,-125 L 14.4606,-125.627 L 14.3429,-126.243 L 14.1489,-126.841 L 13.8815,-127.409 L 13.5451,-127.939
 L 13.1448,-128.423 L 12.6871,-128.853 L 12.1791,-129.222 L 11.6289,-129.524 L 11.0451,-129.755 L 10.4369,-129.911
 L 9.81395,-129.99 L -9.81395,-129.99 L -10.4369,-129.911 L -11.0451,-129.755 L -11.6289,-129.524 L -12.1791,-129.222
 L -12.6871,-128.853 L -13.1448,-128.423 L -13.5451,-127.939 L -13.8815,-127.409 L -14.1489,-126.841 L -14.2777,-126.444
 L -16.5,-126.444 L -16.5,-89.5558 L -14.2777,-89.5558 L -14.1489,-89.1594 L -13.8815,-88.5912 L -13.5451,-88.0611
 L -13.1448,-87.5773 L -12.6871,-87.1474 L -12.1791,-86.7784 L -11.6289,-86.4759 L -11.0451,-86.2447 L -10.4369,-86.0886
 L -9.81395,-86.0099 L 9.81395,-86.0099 z
M -7.6507,-120.605 L -7.94971,-120.643 L -8.24164,-120.717 L -8.52187,-120.828 L -8.78598,-120.974 L -9.02982,-121.151
 L -9.24951,-121.357 L -9.44164,-121.589 L -9.60313,-121.844 L -9.73146,-122.117 L -9.82458,-122.403 L -9.88107,-122.699
 L -9.89999,-123 L -9.88107,-123.301 L -9.82458,-123.597 L -9.73146,-123.883 L -9.60313,-124.156 L -9.44164,-124.411
 L -9.24951,-124.643 L -9.02982,-124.849 L -8.78598,-125.026 L -8.52187,-125.172 L -8.24164,-125.283 L -7.94971,-125.357
 L -7.6507,-125.395 L -7.34929,-125.395 L -7.05028,-125.357 L -6.75835,-125.283 L -6.47812,-125.172 L -6.214,-125.026
 L -5.97017,-124.849 L -5.75047,-124.643 L -5.55835,-124.411 L -5.39685,-124.156 L -5.26852,-123.883 L -5.1754,-123.597
 L -5.11891,-123.301 L -5.09999,-123 L -5.11891,-122.699 L -5.1754,-122.403 L -5.26852,-122.117 L -5.39685,-121.844
 L -5.55835,-121.589 L -5.75047,-121.357 L -5.97017,-121.151 L -6.214,-120.974 L -6.47812,-120.828 L -6.75835,-120.717
 L -7.05028,-120.643 L -7.34929,-120.605 z
M 7.34929,-120.605 L 7.05028,-120.643 L 6.75835,-120.717 L 6.47812,-120.828 L 6.214,-120.974 L 5.97017,-121.151
 L 5.75047,-121.357 L 5.55835,-121.589 L 5.39685,-121.844 L 5.26852,-122.117 L 5.1754,-122.403 L 5.11891,-122.699
 L 5.09999,-123 L 5.11891,-123.301 L 5.1754,-123.597 L 5.26852,-123.883 L 5.39685,-124.156 L 5.55835,-124.411
 L 5.75047,-124.643 L 5.97017,-124.849 L 6.214,-125.026 L 6.47812,-125.172 L 6.75835,-125.283 L 7.05028,-125.357
 L 7.34929,-125.395 L 7.6507,-125.395 L 7.94971,-125.357 L 8.24164,-125.283 L 8.52187,-125.172 L 8.78598,-125.026
 L 9.02982,-124.849 L 9.24951,-124.643 L 9.44164,-124.411 L 9.60313,-124.156 L 9.73146,-123.883 L 9.82458,-123.597
 L 9.88107,-123.301 L 9.89999,-123 L 9.88107,-122.699 L 9.82458,-122.403 L 9.73146,-122.117 L 9.60313,-121.844
 L 9.44164,-121.589 L 9.24951,-121.357 L 9.02982,-121.151 L 8.78598,-120.974 L 8.52187,-120.828 L 8.24164,-120.717
 L 7.94971,-120.643 L 7.6507,-120.605 z
M -7.6507,-90.6047 L -7.94971,-90.6425 L -8.24164,-90.7175 L -8.52187,-90.8284 L -8.78598,-90.9736 L -9.02982,-91.1508
 L -9.24951,-91.3571 L -9.44164,-91.5893 L -9.60313,-91.8438 L -9.73146,-92.1165 L -9.82458,-92.4032 L -9.88107,-92.6992
 L -9.89999,-93 L -9.88107,-93.3008 L -9.82458,-93.5969 L -9.73146,-93.8835 L -9.60313,-94.1562 L -9.44164,-94.4107
 L -9.24951,-94.6429 L -9.02982,-94.8492 L -8.78598,-95.0264 L -8.52187,-95.1716 L -8.24164,-95.2825 L -7.94971,-95.3575
 L -7.6507,-95.3953 L -7.34929,-95.3953 L -7.05028,-95.3575 L -6.75835,-95.2825 L -6.47812,-95.1716 L -6.214,-95.0264
 L -5.97017,-94.8492 L -5.75047,-94.6429 L -5.55835,-94.4107 L -5.39685,-94.1562 L -5.26852,-93.8835 L -5.1754,-93.5969
 L -5.11891,-93.3008 L -5.09999,-93 L -5.11891,-92.6992 L -5.1754,-92.4032 L -5.26852,-92.1165 L -5.39685,-91.8438
 L -5.55835,-91.5893 L -5.75047,-91.3571 L -5.97017,-91.1508 L -6.214,-90.9736 L -6.47812,-90.8284 L -6.75835,-90.7175
 L -7.05028,-90.6425 L -7.34929,-90.6047 z
M 7.34929,-90.6047 L 7.05028,-90.6425 L 6.75835,-90.7175 L 6.47812,-90.8284 L 6.214,-90.9736 L 5.97017,-91.1508
 L 5.75047,-91.3571 L 5.55835,-91.5893 L 5.39685,-91.8438 L 5.26852,-92.1165 L 5.1754,-92.4032 L 5.11891,-92.6992
 L 5.09999,-93 L 5.11891,-93.3008 L 5.1754,-93.5969 L 5.26852,-93.8835 L 5.39685,-94.1562 L 5.55835,-94.4107
 L 5.75047,-94.6429 L 5.97017,-94.8492 L 6.214,-95.0264 L 6.47812,-95.1716 L 6.75835,-95.2825 L 7.05028,-95.3575
 L 7.34929,-95.3953 L 7.6507,-95.3953 L 7.94971,-95.3575 L 8.24164,-95.2825 L 8.52187,-95.1716 L 8.78598,-95.0264
 L 9.02982,-94.8492 L 9.24951,-94.6429 L 9.44164,-94.4107 L 9.60313,-94.1562 L 9.73146,-93.8835 L 9.82458,-93.5969
 L 9.88107,-93.3008 L 9.89999,-93 L 9.88107,-92.6992 L 9.82458,-92.4032 L 9.73146,-92.1165 L 9.60313,-91.8438
 L 9.44164,-91.5893 L 9.24951,-91.3571 L 9.02982,-91.1508 L 8.78598,-90.9736 L 8.52187,-90.8284 L 8.24164,-90.7175
 L 7.94971,-90.6425 L 7.6507,-90.6047 z
" stroke="black" fill="lightgray" stroke-width="0.5"/>
</svg>
