<?xml version="1.0" standalone="no"?>
<!DOCTYPE svg PUBLIC "-//W3C//DTD SVG 1.1//EN" "http://www.w3.org/Graphics/SVG/1.1/DTD/svg11.dtd">
<svg width="60mm" height="60mm" viewBox="-30 -30 60 60" xmlns="http://www.w3.org/2000/svg" version="1.1">
<title>OpenSCAD Model</title>
<path d="
M 25.4369,29.4114 L 26.0451,29.2553 L 26.6289,29.0241 L 27.1791,28.7216 L 27.6871,28.3526 L 28.1448,27.9227
 L 28.5451,27.4389 L 28.8815,26.9088 L 29.1489,26.3406 L 29.3429,25.7434 L 29.4606,25.1267 L 29.5,24.5
 L 29.5,-24.5 L 29.4606,-25.1267 L 29.3429,-25.7434 L 29.1489,-26.3406 L 28.8815,-26.9088 L 28.5451,-27.4389
 L 28.1448,-27.9227 L 27.6871,-28.3526 L 27.1791,-28.7216 L 26.6289,-29.0241 L 26.0451,-29.2553 L 25.4369,-29.4114
 L 24.8139,-29.4901 L -24.8139,-29.4901 L -25.4369,-29.4114 L -26.0451,-29.2553 L -26.6289,-29.0241 L -27.1791,-28.7216
 L -27.6871,-28.3526 L -28.1448,-27.9227 L -28.5451,-27.4389 L -28.8815,-26.9088 L -29.1489,-26.3406 L -29.3429,-25.7434
 L -29.4606,-25.1267 L -29.5,-24.5 L -29.5,24.5 L -29.4606,25.1267 L -29.3429,25.7434 L -29.1489,26.3406
 L -28.8815,26.9088 L -28.5451,27.4389 L -28.1448,27.9227 L -27.6871,28.3526 L -27.1791,28.7216 L -26.6289,29.0241
 L -26.0451,29.2553 L -25.4369,29.4114 L -24.8139,29.4901 L 24.8139,29.4901 z
M -22.6884,-19.5059 L -23.0621,-19.5531 L -23.427,-19.6468 L -23.7773,-19.7855 L -24.1075,-19.967 L -24.4123,-20.1884
 L -24.6869,-20.4464 L -24.927,-20.7366 L -25.1289,-21.0547 L -25.2893,-21.3956 L -25.4057,-21.7539 L -25.4763,-22.124
 L -25.5,-22.5 L -25.4763,-22.876 L -25.4057,-23.2461 L -25.2893,-23.6044 L -25.1289,-23.9453 L -24.927,-24.2634
 L -24.6869,-24.5536 L -24.4123,-24.8115 L -24.1075,-25.033 L -23.7773,-25.2145 L -23.427,-25.3532 L -23.0621,-25.4469
 L -22.6884,-25.4941 L -22.3116,-25.4941 L -21.9379,-25.4469 L -21.5729,-25.3532 L -21.2227,-25.2145 L -20.8925,-25.033
 L -20.5877,-24.8115 L -20.3131,-24.5536 L -20.0729,-24.2634 L -19.8711,-23.9453 L -19.7107,-23.6044 L -19.5942,-23.2461
 L -19.5237,-22.876 L -19.5,-22.5 L -19.5237,-22.124 L -19.5942,-21.7539 L -19.7107,-21.3956 L -19.8711,-21.0547
 L -20.0729,-20.7366 L -20.3131,-20.4464 L -20.5877,-20.1884 L -20.8925,-19.967 L -21.2227,-19.7855 L -21.5729,-19.6468
 L -21.9379,-19.5531 L -22.3116,-19.5059 z
M 22.3116,-19.5059 L 21.9379,-19.5531 L 21.5729,-19.6468 L 21.2227,-19.7855 L 20.8925,-19.967 L 20.5877,-20.1884
 L 20.3131,-20.4464 L 20.0729,-20.7366 L 19.8711,-21.0547 L 19.7107,-21.3956 L 19.5942,-21.7539 L 19.5237,-22.124
 L 19.5,-22.5 L 19.5237,-22.876 L 19.5942,-23.2461 L 19.7107,-23.6044 L 19.8711,-23.9453 L 20.0729,-24.2634
 L 20.3131,-24.5536 L 20.5877,-24.8115 L 20.8925,-25.033 L 21.2227,-25.2145 L 21.5729,-25.3532 L 21.9379,-25.4469
 L 22.3116,-25.4941 L 22.6884,-25.4941 L 23.0621,-25.4469 L 23.427,-25.3532 L 23.7773,-25.2145 L 24.1075,-25.033
 L 24.4123,-24.8115 L 24.6869,-24.5536 L 24.927,-24.2634 L 25.1289,-23.9453 L 25.2893,-23.6044 L 25.4057,-23.2461
 L 25.4763,-22.876 L 25.5,-22.5 L 25.4763,-22.124 L 25.4057,-21.7539 L 25.2893,-21.3956 L 25.1289,-21.0547
 L 24.927,-20.7366 L 24.6869,-20.4464 L 24.4123,-20.1884 L 24.1075,-19.967 L 23.7773,-19.7855 L 23.427,-19.6468
 L 23.0621,-19.5531 L 22.6884,-19.5059 z
M 12.9058,-19.003 L 12.7189,-19.0266 L 12.5365,-19.0734 L 12.3613,-19.1427 L 12.1963,-19.2335 L 12.0439,-19.3442
 L 11.9065,-19.4732 L 11.7865,-19.6183 L 11.6855,-19.7774 L 11.6053,-19.9478 L 11.5471,-20.127 L 11.5118,-20.312
 L 11.5,-20.5 L 11.5118,-20.688 L 11.5471,-20.873 L 11.6053,-21.0522 L 11.6855,-21.2226 L 11.7865,-21.3817
 L 11.9065,-21.5268 L 12.0439,-21.6558 L 12.1963,-21.7665 L 12.3613,-21.8572 L 12.5365,-21.9266 L 12.7189,-21.9734
 L 12.9058,-21.997 L 13.0942,-21.997 L 13.2811,-21.9734 L 13.4635,-21.9266 L 13.6387,-21.8572 L 13.8037,-21.7665
 L 13.9561,-21.6558 L 14.0934,-21.5268 L 14.2135,-21.3817 L 14.3145,-21.2226 L 14.3947,-21.0522 L 14.4529,-20.873
 L 14.4882,-20.688 L 14.5,-20.5 L 14.4882,-20.312 L 14.4529,-20.127 L 14.3947,-19.9478 L 14.3145,-19.7774
 L 14.2135,-19.6183 L 14.0934,-19.4732 L 13.9561,-19.3442 L 13.8037,-19.2335 L 13.6387,-19.1427 L 13.4635,-19.0734
 L 13.2811,-19.0266 L 13.0942,-19.003 z
M -13.0942,-19.003 L -13.2811,-19.0266 L -13.4635,-19.0734 L -13.6387,-19.1427 L -13.8037,-19.2335 L -13.9561,-19.3442
 L -14.0934,-19.4732 L -14.2135,-19.6183 L -14.3145,-19.7774 L -14.3947,-19.9478 L -14.4529,-20.127 L -14.4882,-20.312
 L -14.5,-20.5 L -14.4882,-20.688 L -14.4529,-20.873 L -14.3947,-21.0522 L -14.3145,-21.2226 L -14.2135,-21.3817
 L -14.0934,-21.5268 L -13.9561,-21.6558 L -13.8037,-21.7665 L -13.6387,-21.8572 L -13.4635,-21.9266 L -13.2811,-21.9734
 L -13.0942,-21.997 L -12.9058,-21.997 L -12.7189,-21.9734 L -12.5365,-21.9266 L -12.3613,-21.8572 L -12.1963,-21.7665
 L -12.0439,-21.6558 L -11.9065,-21.5268 L -11.7865,-21.3817 L -11.6855,-21.2226 L -11.6053,-21.0522 L -11.5471,-20.873
 L -11.5118,-20.688 L -11.5,-20.5 L -11.5118,-20.312 L -11.5471,-20.127 L -11.6053,-19.9478 L -11.6855,-19.7774
 L -11.7865,-19.6183 L -11.9065,-19.4732 L -12.0439,-19.3442 L -12.1963,-19.2335 L -12.3613,-19.1427 L -12.5365,-19.0734
 L -12.7189,-19.0266 L -12.9058,-19.003 z
M -22.6884,-4.50591 L -23.0621,-4.55313 L -23.427,-4.64682 L -23.7773,-4.78551 L -24.1075,-4.96701 L -24.4123,-5.18845
 L -24.6869,-5.44635 L -24.927,-5.73663 L -25.1289,-6.05473 L -25.2893,-6.39561 L -25.4057,-6.75392 L -25.4763,-7.12399
 L -25.5,-7.5 L -25.4763,-7.87599 L -25.4057,-8.24606 L -25.2893,-8.60437 L -25.1289,-8.94525 L -24.927,-9.26335
 L -24.6869,-9.55363 L -24.4123,-9.81154 L -24.1075,-10.033 L -23.7773,-10.2145 L -23.427,-10.3532 L -23.0621,-10.4469
 L -22.6884,-10.4941 L -22.3116,-10.4941 L -21.9379,-10.4469 L -21.5729,-10.3532 L -21.2227,-10.2145 L -20.8925,-10.033
 L -20.5877,-9.81154 L -20.3131,-9.55363 L -20.0729,-9.26335 L -19.8711,-8.94525 L -19.7107,-8.60437 L -19.5942,-8.24606
 L -19.5237,-7.87599 L -19.5,-7.5 L -19.5237,-7.12399 L -19.5942,-6.75392 L -19.7107,-6.39561 L -19.8711,-6.05473
 L -20.0729,-5.73663 L -20.3131,-5.44635 L -20.5877,-5.18845 L -20.8925,-4.96701 L -21.2227,-4.78551 L -21.5729,-4.64682
 L -21.9379,-4.55313 L -22.3116,-4.50591 z
M 22.3116,-4.50591 L 21.9379,-4.55313 L 21.5729,-4.64682 L 21.2227,-4.78551 L 20.8925,-4.96701 L 20.5877,-5.18845
 L 20.3131,-5.44635 L 20.0729,-5.73663 L 19.8711,-6.05473 L 19.7107,-6.39561 L 19.5942,-6.75392 L 19.5237,-7.12399
 L 19.5,-7.5 L 19.5237,-7.87599 L 19.5942,-8.24606 L 19.7107,-8.60437 L 19.8711,-8.94525 L 20.0729,-9.26335
 L 20.3131,-9.55363 L 20.5877,-9.81154 L 20.8925,-10.033 L 21.2227,-10.2145 L 21.5729,-10.3532 L 21.9379,-10.4469
 L 22.3116,-10.4941 L 22.6884,-10.4941 L 23.0621,-10.4469 L 23.427,-10.3532 L 23.7773,-10.2145 L 24.1075,-10.033
 L 24.4123,-9.81154 L 24.6869,-9.55363 L 24.927,-9.26335 L 25.1289,-8.94525 L 25.2893,-8.60437 L 25.4057,-8.24606
 L 25.4763,-7.87599 L 25.5,-7.5 L 25.4763,-7.12399 L 25.4057,-6.75392 L 25.2893,-6.39561 L 25.1289,-6.05473
 L 24.927,-5.73663 L 24.6869,-5.44635 L 24.4123,-5.18845 L 24.1075,-4.96701 L 23.7773,-4.78551 L 23.427,-4.64682
 L 23.0621,-4.55313 L 22.6884,-4.50591 z
M 12.9058,6.99704 L 12.7189,6.97342 L 12.5365,6.92657 L 12.3613,6.85724 L 12.1963,6.76648 L 12.0439,6.65576
 L 11.9065,6.52681 L 11.7865,6.38167 L 11.6855,6.22263 L 11.6053,6.05219 L 11.5471,5.87303 L 11.5118,5.68799
 L 11.5,5.5 L 11.5118,5.312 L 11.5471,5.12695 L 11.6053,4.9478 L 11.6855,4.77736 L 11.7865,4.61832
 L 11.9065,4.47318 L 12.0439,4.34422 L 12.1963,4.23351 L 12.3613,4.14275 L 12.5365,4.07341 L 12.7189,4.02657
 L 12.9058,4.00294 L 13.0942,4.00294 L 13.2811,4.02657 L 13.4635,4.07341 L 13.6387,4.14275 L 13.8037,4.23351
 L 13.9561,4.34422 L 14.0934,4.47318 L 14.2135,4.61832 L 14.3145,4.77736 L 14.3947,4.9478 L 14.4529,5.12695
 L 14.4882,5.312 L 14.5,5.5 L 14.4882,5.68799 L 14.4529,5.87303 L 14.3947,6.05219 L 14.3145,6.22263
 L 14.2135,6.38167 L 14.0934,6.52681 L 13.9561,6.65576 L 13.8037,6.76648 L 13.6387,6.85724 L 13.4635,6.92657
 L 13.2811,6.97342 L 13.0942,6.99704 z
M -13.0942,6.99704 L -13.2811,6.97342 L -13.4635,6.92657 L -13.6387,6.85724 L -13.8037,6.76648 L -13.9561,6.65576
 L -14.0934,6.52681 L -14.2135,6.38167 L -14.3145,6.22263 L -14.3947,6.05219 L -14.4529,5.87303 L -14.4882,5.68799
 L -14.5,5.5 L -14.4882,5.312 L -14.4529,5.12695 L -14.3947,4.9478 L -14.3145,4.77736 L -14.2135,4.61832
 L -14.0934,4.47318 L -13.9561,4.34422 L -13.8037,4.23351 L -13.6387,4.14275 L -13.4635,4.07341 L -13.2811,4.02657
 L -13.0942,4.00294 L -12.9058,4.00294 L -12.7189,4.02657 L -12.5365,4.07341 L -12.3613,4.14275 L -12.1963,4.23351
 L -12.0439,4.34422 L -11.9065,4.47318 L -11.7865,4.61832 L -11.6855,4.77736 L -11.6053,4.9478 L -11.5471,5.12695
 L -11.5118,5.312 L -11.5,5.5 L -11.5118,5.68799 L -11.5471,5.87303 L -11.6053,6.05219 L -11.6855,6.22263
 L -11.7865,6.38167 L -11.9065,6.52681 L -12.0439,6.65576 L -12.1963,6.76648 L -12.3613,6.85724 L -12.5365,6.92657
 L -12.7189,6.97342 L -12.9058,6.99704 z
M -22.6884,10.4941 L -23.0621,10.4469 L -23.427,10.3532 L -23.7773,10.2145 L -24.1075,10.033 L -24.4123,9.81154
 L -24.6869,9.55363 L -24.927,9.26335 L -25.1289,8.94525 L -25.2893,8.60437 L -25.4057,8.24606 L -25.4763,7.87599
 L -25.5,7.5 L -25.4763,7.12399 L -25.4057,6.75392 L -25.2893,6.39561 L -25.1289,6.05473 L -24.927,5.73663
 L -24.6869,5.44635 L -24.4123,5.18845 L -24.1075,4.96701 L -23.7773,4.78551 L -23.427,4.64682 L -23.0621,4.55313
 L -22.6884,4.50591 L -22.3116,4.50591 L -21.9379,4.55313 L -21.5729,4.64682 L -21.2227,4.78551 L -20.8925,4.96701
 L -20.5877,5.18845 L -20.3131,5.44635 L -20.0729,5.73663 L -19.8711,6.05473 L -19.7107,6.39561 L -19.5942,6.75392
 L -19.5237,7.12399 L -19.5,7.5 L -19.5237,7.87599 L -19.5942,8.24606 L -19.7107,8.60437 L -19.8711,8.94525
 L -20.0729,9.26335 L -20.3131,9.55363 L -20.5877,9.81154 L -20.8925,10.033 L -21.2227,10.2145 L -21.5729,10.3532
 L -21.9379,10.4469 L -22.3116,10.4941 z
M 22.3116,10.4941 L 21.9379,10.4469 L 21.5729,10.3532 L 21.2227,10.2145 L 20.8925,10.033 L 20.5877,9.81154
 L 20.3131,9.55363 L 20.0729,9.26335 L 19.8711,8.94525 L 19.7107,8.60437 L 19.5942,8.24606 L 19.5237,7.87599
 L 19.5,7.5 L 19.5237,7.12399 L 19.5942,6.75392 L 19.7107,6.39561 L 19.8711,6.05473 L 20.0729,5.73663
 L 20.3131,5.44635 L 20.5877,5.18845 L 20.8925,4.96701 L 21.2227,4.78551 L 21.5729,4.64682 L 21.9379,4.55313
 L 22.3116,4.50591 L 22.6884,4.50591 L 23.0621,4.55313 L 23.427,4.64682 L 23.7773,4.78551 L 24.1075,4.96701
 L 24.4123,5.18845 L 24.6869,5.44635 L 24.927,5.73663 L 25.1289,6.05473 L 25.2893,6.39561 L 25.4057,6.75392
 L 25.4763,7.12399 L 25.5,7.5 L 25.4763,7.87599 L 25.4057,8.24606 L 25.2893,8.60437 L 25.1289,8.94525
 L 24.927,9.26335 L 24.6869,9.55363 L 24.4123,9.81154 L 24.1075,10.033 L 23.7773,10.2145 L 23.427,10.3532
 L 23.0621,10.4469 L 22.6884,10.4941 z
M 7.31161,25.4941 L 6.93785,25.4469 L 6.57294,25.3532 L 6.22266,25.2145 L 5.89252,25.033 L 5.58772,24.8115
 L 5.31308,24.5536 L 5.07294,24.2634 L 4.87108,23.9453 L 4.71066,23.6044 L 4.59424,23.2461 L 4.52365,22.876
 L 4.5,22.5 L 4.52365,22.124 L 4.59424,21.7539 L 4.71066,21.3956 L 4.87108,21.0547 L 5.07294,20.7366
 L 5.31308,20.4464 L 5.58772,20.1884 L 5.89252,19.967 L 6.22266,19.7855 L 6.57294,19.6468 L 6.93785,19.5531
 L 7.31161,19.5059 L 7.68837,19.5059 L 8.06213,19.5531 L 8.42705,19.6468 L 8.77733,19.7855 L 9.10747,19.967
 L 9.41226,20.1884 L 9.6869,20.4464 L 9.92705,20.7366 L 10.1289,21.0547 L 10.2893,21.3956 L 10.4057,21.7539
 L 10.4763,22.124 L 10.5,22.5 L 10.4763,22.876 L 10.4057,23.2461 L 10.2893,23.6044 L 10.1289,23.9453
 L 9.92705,24.2634 L 9.6869,24.5536 L 9.41226,24.8115 L 9.10747,25.033 L 8.77733,25.2145 L 8.42705,25.3532
 L 8.06213,25.4469 L 7.68837,25.4941 z
M 22.3116,25.4941 L 21.9379,25.4469 L 21.5729,25.3532 L 21.2227,25.2145 L 20.8925,25.033 L 20.5877,24.8115
 L 20.3131,24.5536 L 20.0729,24.2634 L 19.8711,23.9453 L 19.7107,23.6044 L 19.5942,23.2461 L 19.5237,22.876
 L 19.5,22.5 L 19.5237,22.124 L 19.5942,21.7539 L 19.7107,21.3956 L 19.8711,21.0547 L 20.0729,20.7366
 L 20.3131,20.4464 L 20.5877,20.1884 L 20.8925,19.967 L 21.2227,19.7855 L 21.5729,19.6468 L 21.9379,19.5531
 L 22.3116,19.5059 L 22.6884,19.5059 L 23.0621,19.5531 L 23.427,19.6468 L 23.7773,19.7855 L 24.1075,19.967
 L 24.4123,20.1884 L 24.6869,20.4464 L 24.927,20.7366 L 25.1289,21.0547 L 25.2893,21.3956 L 25.4057,21.7539
 L 25.4763,22.124 L 25.5,22.5 L 25.4763,22.876 L 25.4057,23.2461 L 25.2893,23.6044 L 25.1289,23.9453
 L 24.927,24.2634 L 24.6869,24.5536 L 24.4123,24.8115 L 24.1075,25.033 L 23.7773,25.2145 L 23.427,25.3532
 L 23.0621,25.4469 L 22.6884,25.4941 z
M -22.6884,25.4941 L -23.0621,25.4469 L -23.427,25.3532 L -23.7773,25.2145 L -24.1075,25.033 L -24.4123,24.8115
 L -24.6869,24.5536 L -24.927,24.2634 L -25.1289,23.9453 L -25.2893,23.6044 L -25.4057,23.2461 L -25.4763,22.876
 L -25.5,22.5 L -25.4763,22.124 L -25.4057,21.7539 L -25.2893,21.3956 L -25.1289,21.0547 L -24.927,20.7366
 L -24.6869,20.4464 L -24.4123,20.1884 L -24.1075,19.967 L -23.7773,19.7855 L -23.427,19.6468 L -23.0621,19.5531
 L -22.6884,19.5059 L -22.3116,19.5059 L -21.9379,19.5531 L -21.5729,19.6468 L -21.2227,19.7855 L -20.8925,19.967
 L -20.5877,20.1884 L -20.3131,20.4464 L -20.0729,20.7366 L -19.8711,21.0547 L -19.7107,21.3956 L -19.5942,21.7539
 L -19.5237,22.124 L -19.5,22.5 L -19.5237,22.876 L -19.5942,23.2461 L -19.7107,23.6044 L -19.8711,23.9453
 L -20.0729,24.2634 L -20.3131,24.5536 L -20.5877,24.8115 L -20.8925,25.033 L -21.2227,25.2145 L -21.5729,25.3532
 L -21.9379,25.4469 L -22.3116,25.4941 z
M -7.68837,25.4941 L -8.06213,25.4469 L -8.42705,25.3532 L -8.77733,25.2145 L -9.10747,25.033 L -9.41226,24.8115
 L -9.6869,24.5536 L -9.92705,24.2634 L -10.1289,23.9453 L -10.2893,23.6044 L -10.4057,23.2461 L -10.4763,22.876
 L -10.5,22.5 L -10.4763,22.124 L -10.4057,21.7539 L -10.2893,21.3956 L -10.1289,21.0547 L -9.92705,20.7366
 L -9.6869,20.4464 L -9.41226,20.1884 L -9.10747,19.967 L -8.77733,19.7855 L -8.42705,19.6468 L -8.06213,19.5531
 L -7.68837,19.5059 L -7.31161,19.5059 L -6.93785,19.5531 L -6.57294,19.6468 L -6.22266,19.7855 L -5.89252,19.967
 L -5.58772,20.1884 L -5.31308,20.4464 L -5.07294,20.7366 L -4.87108,21.0547 L -4.71066,21.3956 L -4.59424,21.7539
 L -4.52365,22.124 L -4.5,22.5 L -4.52365,22.876 L -4.59424,23.2461 L -4.71066,23.6044 L -4.87108,23.9453
 L -5.07294,24.2634 L -5.31308,24.5536 L -5.58772,24.8115 L -5.89252,25.033 L -6.22266,25.2145 L -6.57294,25.3532
 L -6.93785,25.4469 L -7.31161,25.4941 z
" stroke="black" fill="lightgray" stroke-width="0.5"/>
</svg>
