  0
SECTION
  2
HEADER
  9
$ACADVER
  1
AC1021
  9
$ACADMAINTVER
 70
    25
  9
$DWGCODEPAGE
  3
ANSI_1252
  9
$INSBASE
 10
0.0
 20
0.0
 30
0.0
  9
$EXTMIN
 10
-10.52646
 20
-14.97646
 30
0.0
  9
$EXTMAX
 10
10.42646
 20
14.97646
 30
0.0
  9
$LIMMIN
 10
0.0
 20
0.0
  9
$LIMMAX
 10
12.0
 20
9.0
  9
$ORTHOMODE
 70
     0
  9
$REGENMODE
 70
     1
  9
$FILLMODE
 70
     1
  9
$QTEXTMODE
 70
     0
  9
$MIRRTEXT
 70
     1
  9
$LTSCALE
 40
1.0
  9
$ATTMODE
 70
     1
  9
$TEXTSIZE
 40
0.2
  9
$TRACEWID
 40
0.05
  9
$TEXTSTYLE
  7
Standard
  9
$CLAYER
  8
0
  9
$CELTYPE
  6
ByLayer
  9
$CECOLOR
 62
   256
  9
$CELTSCALE
 40
1.0
  9
$DISPSILH
 70
     0
  9
$DIMSCALE
 40
1.0
  9
$DIMASZ
 40
0.18
  9
$DIMEXO
 40
0.0625
  9
$DIMDLI
 40
0.38
  9
$DIMRND
 40
0.0
  9
$DIMDLE
 40
0.0
  9
$DIMEXE
 40
0.18
  9
$DIMTP
 40
0.0
  9
$DIMTM
 40
0.0
  9
$DIMTXT
 40
0.18
  9
$DIMCEN
 40
0.09
  9
$DIMTSZ
 40
0.0
  9
$DIMTOL
 70
     0
  9
$DIMLIM
 70
     0
  9
$DIMTIH
 70
     1
  9
$DIMTOH
 70
     1
  9
$DIMSE1
 70
     0
  9
$DIMSE2
 70
     0
  9
$DIMTAD
 70
     0
  9
$DIMZIN
 70
     0
  9
$DIMBLK
  1

  9
$DIMASO
 70
     1
  9
$DIMSHO
 70
     1
  9
$DIMPOST
  1

  9
$DIMAPOST
  1

  9
$DIMALT
 70
     0
  9
$DIMALTD
 70
     2
  9
$DIMALTF
 40
25.4
  9
$DIMLFAC
 40
1.0
  9
$DIMTOFL
 70
     0
  9
$DIMTVP
 40
0.0
  9
$DIMTIX
 70
     0
  9
$DIMSOXD
 70
     0
  9
$DIMSAH
 70
     0
  9
$DIMBLK1
  1

  9
$DIMBLK2
  1

  9
$DIMSTYLE
  2
Standard
  9
$DIMCLRD
 70
     0
  9
$DIMCLRE
 70
     0
  9
$DIMCLRT
 70
     0
  9
$DIMTFAC
 40
1.0
  9
$DIMGAP
 40
0.09
  9
$DIMJUST
 70
     0
  9
$DIMSD1
 70
     0
  9
$DIMSD2
 70
     0
  9
$DIMTOLJ
 70
     1
  9
$DIMTZIN
 70
     0
  9
$DIMALTZ
 70
     0
  9
$DIMALTTZ
 70
     0
  9
$DIMUPT
 70
     0
  9
$DIMDEC
 70
     4
  9
$DIMTDEC
 70
     4
  9
$DIMALTU
 70
     2
  9
$DIMALTTD
 70
     2
  9
$DIMTXSTY
  7
Standard
  9
$DIMAUNIT
 70
     0
  9
$DIMADEC
 70
     0
  9
$DIMALTRND
 40
0.0
  9
$DIMAZIN
 70
     0
  9
$DIMDSEP
 70
    46
  9
$DIMATFIT
 70
     3
  9
$DIMFRAC
 70
     0
  9
$DIMLDRBLK
  1

  9
$DIMLUNIT
 70
     2
  9
$DIMLWD
 70
    -2
  9
$DIMLWE
 70
    -2
  9
$DIMTMOVE
 70
     0
  9
$DIMFXL
 40
1.0
  9
$DIMFXLON
 70
     0
  9
$DIMJOGANG
 40
0.7853981633974483
  9
$DIMTFILL
 70
     0
  9
$DIMTFILLCLR
 70
     0
  9
$DIMARCSYM
 70
     0
  9
$DIMLTYPE
  6

  9
$DIMLTEX1
  6

  9
$DIMLTEX2
  6

  9
$LUNITS
 70
     2
  9
$LUPREC
 70
     4
  9
$SKETCHINC
 40
0.1
  9
$FILLETRAD
 40
0.5
  9
$AUNITS
 70
     0
  9
$AUPREC
 70
     0
  9
$MENU
  1
.
  9
$ELEVATION
 40
0.0
  9
$PELEVATION
 40
0.0
  9
$THICKNESS
 40
0.0
  9
$LIMCHECK
 70
     0
  9
$CHAMFERA
 40
0.5
  9
$CHAMFERB
 40
0.5
  9
$CHAMFERC
 40
1.0
  9
$CHAMFERD
 40
0.0
  9
$SKPOLY
 70
     0
  9
$TDCREATE
 40
2460163.620402697
  9
$TDUCREATE
 40
2460163.57873603
  9
$TDUPDATE
 40
2460163.620403183
  9
$TDUUPDATE
 40
2460163.578736516
  9
$TDINDWG
 40
0.0000000116
  9
$TDUSRTIMER
 40
0.0000000116
  9
$USRTIMER
 70
     1
  9
$ANGBASE
 50
0.0
  9
$ANGDIR
 70
     0
  9
$PDMODE
 70
     0
  9
$PDSIZE
 40
0.0
  9
$PLINEWID
 40
0.0
  9
$SPLFRAME
 70
     0
  9
$SPLINETYPE
 70
     6
  9
$SPLINESEGS
 70
     8
  9
$HANDSEED
  5
1E1
  9
$SURFTAB1
 70
     6
  9
$SURFTAB2
 70
     6
  9
$SURFTYPE
 70
     6
  9
$SURFU
 70
     6
  9
$SURFV
 70
     6
  9
$UCSBASE
  2

  9
$UCSNAME
  2

  9
$UCSORG
 10
0.0
 20
0.0
 30
0.0
  9
$UCSXDIR
 10
1.0
 20
0.0
 30
0.0
  9
$UCSYDIR
 10
0.0
 20
1.0
 30
0.0
  9
$UCSORTHOREF
  2

  9
$UCSORTHOVIEW
 70
     0
  9
$UCSORGTOP
 10
0.0
 20
0.0
 30
0.0
  9
$UCSORGBOTTOM
 10
0.0
 20
0.0
 30
0.0
  9
$UCSORGLEFT
 10
0.0
 20
0.0
 30
0.0
  9
$UCSORGRIGHT
 10
0.0
 20
0.0
 30
0.0
  9
$UCSORGFRONT
 10
0.0
 20
0.0
 30
0.0
  9
$UCSORGBACK
 10
0.0
 20
0.0
 30
0.0
  9
$PUCSBASE
  2

  9
$PUCSNAME
  2

  9
$PUCSORG
 10
0.0
 20
0.0
 30
0.0
  9
$PUCSXDIR
 10
1.0
 20
0.0
 30
0.0
  9
$PUCSYDIR
 10
0.0
 20
1.0
 30
0.0
  9
$PUCSORTHOREF
  2

  9
$PUCSORTHOVIEW
 70
     0
  9
$PUCSORGTOP
 10
0.0
 20
0.0
 30
0.0
  9
$PUCSORGBOTTOM
 10
0.0
 20
0.0
 30
0.0
  9
$PUCSORGLEFT
 10
0.0
 20
0.0
 30
0.0
  9
$PUCSORGRIGHT
 10
0.0
 20
0.0
 30
0.0
  9
$PUCSORGFRONT
 10
0.0
 20
0.0
 30
0.0
  9
$PUCSORGBACK
 10
0.0
 20
0.0
 30
0.0
  9
$USERI1
 70
     0
  9
$USERI2
 70
     0
  9
$USERI3
 70
     0
  9
$USERI4
 70
     0
  9
$USERI5
 70
     0
  9
$USERR1
 40
0.0
  9
$USERR2
 40
0.0
  9
$USERR3
 40
0.0
  9
$USERR4
 40
0.0
  9
$USERR5
 40
0.0
  9
$WORLDVIEW
 70
     1
  9
$SHADEDGE
 70
     3
  9
$SHADEDIF
 70
    70
  9
$TILEMODE
 70
     1
  9
$MAXACTVP
 70
    64
  9
$PINSBASE
 10
0.0
 20
0.0
 30
0.0
  9
$PLIMCHECK
 70
     0
  9
$PEXTMIN
 10
1.000000000000000E+20
 20
1.000000000000000E+20
 30
1.000000000000000E+20
  9
$PEXTMAX
 10
-1.000000000000000E+20
 20
-1.000000000000000E+20
 30
-1.000000000000000E+20
  9
$PLIMMIN
 10
0.0
 20
0.0
  9
$PLIMMAX
 10
12.0
 20
9.0
  9
$UNITMODE
 70
     0
  9
$VISRETAIN
 70
     1
  9
$PLINEGEN
 70
     0
  9
$PSLTSCALE
 70
     1
  9
$TREEDEPTH
 70
  3020
  9
$CMLSTYLE
  2
Standard
  9
$CMLJUST
 70
     0
  9
$CMLSCALE
 40
1.0
  9
$PROXYGRAPHICS
 70
     1
  9
$MEASUREMENT
 70
     0
  9
$CELWEIGHT
370
    -1
  9
$ENDCAPS
280
     0
  9
$JOINSTYLE
280
     0
  9
$LWDISPLAY
290
     0
  9
$INSUNITS
 70
     5
  9
$HYPERLINKBASE
  1

  9
$STYLESHEET
  1

  9
$XEDIT
290
     1
  9
$CEPSNTYPE
380
     0
  9
$PSTYLEMODE
290
     1
  9
$FINGERPRINTGUID
  2
{3C03641D-8846-41BB-81EF-7AF406F723B8}
  9
$VERSIONGUID
  2
{FAEB1C32-E019-11D5-929B-00C0DF256EC4}
  9
$EXTNAMES
290
     1
  9
$PSVPSCALE
 40
0.0
  9
$OLESTARTUP
290
     0
  9
$SORTENTS
280
   127
  9
$INDEXCTL
280
     0
  9
$HIDETEXT
280
     1
  9
$XCLIPFRAME
290
     0
  9
$HALOGAP
280
     0
  9
$OBSCOLOR
 70
   257
  9
$OBSLTYPE
280
     0
  9
$INTERSECTIONDISPLAY
280
     0
  9
$INTERSECTIONCOLOR
 70
   257
  9
$DIMASSOC
280
     2
  9
$PROJECTNAME
  1

  9
$CAMERADISPLAY
290
     0
  9
$LENSLENGTH
 40
50.0
  9
$CAMERAHEIGHT
 40
0.0
  9
$STEPSPERSEC
 40
2.0
  9
$STEPSIZE
 40
6.0
  9
$3DDWFPREC
 40
2.0
  9
$PSOLWIDTH
 40
0.25
  9
$PSOLHEIGHT
 40
4.0
  9
$LOFTANG1
 40
1.570796326794897
  9
$LOFTANG2
 40
1.570796326794897
  9
$LOFTMAG1
 40
0.0
  9
$LOFTMAG2
 40
0.0
  9
$LOFTPARAM
 70
     7
  9
$LOFTNORMALS
280
     1
  9
$LATITUDE
 40
37.795
  9
$LONGITUDE
 40
-122.394
  9
$NORTHDIRECTION
 40
0.0
  9
$TIMEZONE
 70
 -8000
  9
$LIGHTGLYPHDISPLAY
280
     1
  9
$TILEMODELIGHTSYNCH
280
     1
  9
$SOLIDHIST
280
     1
  9
$SHOWHIST
280
     1
  9
$DWFFRAME
280
     2
  9
$DGNFRAME
280
     2
  9
$REALWORLDSCALE
290
     1
  9
$INTERFERECOLOR
 62
   256
  9
$CSHADOW
280
     0
  9
$SHADOWPLANELOCATION
 40
0.0
  0
ENDSEC
  0
SECTION
  2
CLASSES
  0
CLASS
  1
ACDBDICTIONARYWDFLT
  2
AcDbDictionaryWithDefault
  3
ObjectDBX Classes
 90
        0
 91
        4
280
     0
281
     0
  0
CLASS
  1
VISUALSTYLE
  2
AcDbVisualStyle
  3
ObjectDBX Classes
 90
     4095
 91
        4
280
     0
281
     0
  0
CLASS
  1
MATERIAL
  2
AcDbMaterial
  3
ObjectDBX Classes
 90
     1153
 91
        4
280
     0
281
     0
  0
ENDSEC
  0
SECTION
  2
TABLES
  0
TABLE
  2
VPORT
  5
8
330
0
100
AcDbSymbolTable
 70
     1
  0
VPORT
  5
29
330
8
100
AcDbSymbolTableRecord
100
AcDbViewportTableRecord
  2
*Active
 70
     0
 10
0.0
 20
0.0
 11
1.0
 21
1.0
 12
10.42990654205607
 22
4.5
 13
0.0
 23
0.0
 14
0.5
 24
0.5
 15
0.5
 25
0.5
 16
0.0
 26
0.0
 36
1.0
 17
0.0
 27
0.0
 37
0.0
 40
9.0
 41
1.972972972850329
 42
50.0
 43
0.0
 44
0.0
 50
0.0
 51
0.0
 71
     0
 72
   100
 73
     1
 74
     3
 75
     0
 76
     0
 77
     0
 78
     0
281
     0
 65
     1
110
0.0
120
0.0
130
0.0
111
1.0
121
0.0
131
0.0
112
0.0
122
1.0
132
0.0
 79
     0
146
0.0
 60
     3
 61
     5
292
     1
282
     1
141
0.0
142
0.0
 63
   250
  0
ENDTAB
  0
TABLE
  2
LTYPE
  5
5
330
0
100
AcDbSymbolTable
 70
     1
  0
LTYPE
  5
14
330
5
100
AcDbSymbolTableRecord
100
AcDbLinetypeTableRecord
  2
ByBlock
 70
     0
  3

 72
    65
 73
     0
 40
0.0
  0
LTYPE
  5
15
330
5
100
AcDbSymbolTableRecord
100
AcDbLinetypeTableRecord
  2
ByLayer
 70
     0
  3

 72
    65
 73
     0
 40
0.0
  0
LTYPE
  5
16
330
5
100
AcDbSymbolTableRecord
100
AcDbLinetypeTableRecord
  2
Continuous
 70
     0
  3
Solid line
 72
    65
 73
     0
 40
0.0
  0
ENDTAB
  0
TABLE
  2
LAYER
  5
2
330
0
100
AcDbSymbolTable
 70
     2
  0
LAYER
  5
10
330
2
100
AcDbSymbolTableRecord
100
AcDbLayerTableRecord
  2
0
 70
     0
 62
     7
  6
Continuous
370
    -3
390
F
347
3E
  0
LAYER
  5
40
330
2
100
AcDbSymbolTableRecord
100
AcDbLayerTableRecord
  2
Layer 1
 70
     0
 62
     7
  6
Continuous
370
    -3
390
F
347
3E
  0
ENDTAB
  0
TABLE
  2
STYLE
  5
3
330
0
100
AcDbSymbolTable
 70
     1
  0
STYLE
  5
11
330
3
100
AcDbSymbolTableRecord
100
AcDbTextStyleTableRecord
  2
Standard
 70
     0
 40
0.0
 41
1.0
 50
0.0
 71
     0
 42
0.2
  3
txt
  4

  0
ENDTAB
  0
TABLE
  2
VIEW
  5
6
330
0
100
AcDbSymbolTable
 70
     0
  0
ENDTAB
  0
TABLE
  2
UCS
  5
7
330
0
100
AcDbSymbolTable
 70
     0
  0
ENDTAB
  0
TABLE
  2
APPID
  5
9
330
0
100
AcDbSymbolTable
 70
     2
  0
APPID
  5
12
330
9
100
AcDbSymbolTableRecord
100
AcDbRegAppTableRecord
  2
ACAD
 70
     0
  0
APPID
  5
3F
330
9
100
AcDbSymbolTableRecord
100
AcDbRegAppTableRecord
  2
ODA
 70
     0
  0
ENDTAB
  0
TABLE
  2
DIMSTYLE
  5
A
330
0
100
AcDbSymbolTable
 70
     1
100
AcDbDimStyleTable
  0
DIMSTYLE
105
27
330
A
100
AcDbSymbolTableRecord
100
AcDbDimStyleTableRecord
  2
Standard
 70
     0
178
     0
340
11
  0
ENDTAB
  0
TABLE
  2
BLOCK_RECORD
  5
1
330
0
100
AcDbSymbolTable
 70
     1
  0
BLOCK_RECORD
  5
1F
330
1
100
AcDbSymbolTableRecord
100
AcDbBlockTableRecord
  2
*Model_Space
340
22
 70
     0
280
     1
281
     0
  0
BLOCK_RECORD
  5
1B
330
1
100
AcDbSymbolTableRecord
100
AcDbBlockTableRecord
  2
*Paper_Space
340
1E
 70
     0
280
     1
281
     0
  0
BLOCK_RECORD
  5
23
330
1
100
AcDbSymbolTableRecord
100
AcDbBlockTableRecord
  2
*Paper_Space0
340
26
 70
     0
280
     1
281
     0
  0
ENDTAB
  0
ENDSEC
  0
SECTION
  2
BLOCKS
  0
BLOCK
  5
20
330
1F
100
AcDbEntity
  8
0
100
AcDbBlockBegin
  2
*Model_Space
 70
     0
 10
0.0
 20
0.0
 30
0.0
  3
*Model_Space
  1

  0
ENDBLK
  5
21
330
1F
100
AcDbEntity
  8
0
100
AcDbBlockEnd
  0
BLOCK
  5
1C
330
1B
100
AcDbEntity
 67
     1
  8
0
100
AcDbBlockBegin
  2
*Paper_Space
 70
     0
 10
0.0
 20
0.0
 30
0.0
  3
*Paper_Space
  1

  0
ENDBLK
  5
1D
330
1B
100
AcDbEntity
 67
     1
  8
0
100
AcDbBlockEnd
  0
BLOCK
  5
24
330
23
100
AcDbEntity
  8
0
100
AcDbBlockBegin
  2
*Paper_Space0
 70
     0
 10
0.0
 20
0.0
 30
0.0
  3
*Paper_Space0
  1

  0
ENDBLK
  5
25
330
23
100
AcDbEntity
  8
0
100
AcDbBlockEnd
  0
ENDSEC
  0
SECTION
  2
ENTITIES
  0
SPLINE
  5
41
330
1F
100
AcDbEntity
  8
Layer 1
 62
     1
370
    53
100
AcDbSpline
210
0.0
220
0.0
230
1.0
 70
    11
 71
     3
 72
    36
 73
    32
 74
     0
 42
0.0000000001
 43
0.0000000001
 12
1.0
 22
0.0
 32
0.0
 13
1.0
 23
0.0
 33
0.0
 40
0.0
 40
0.0
 40
0.0
 40
0.0
 40
0.1111111111111111
 40
0.1111111111111111
 40
0.1111111111111111
 40
0.1111111111111111
 40
0.2222222222222222
 40
0.2222222222222222
 40
0.2222222222222222
 40
0.2222222222222222
 40
0.3333333333333333
 40
0.3333333333333333
 40
0.3333333333333333
 40
0.3333333333333333
 40
0.4444444444444444
 40
0.4444444444444444
 40
0.4444444444444444
 40
0.4444444444444444
 40
0.5555555555555556
 40
0.5555555555555556
 40
0.5555555555555556
 40
0.5555555555555556
 40
0.6666666666666666
 40
0.6666666666666666
 40
0.6666666666666666
 40
0.6666666666666666
 40
0.7777777777777778
 40
0.7777777777777778
 40
0.7777777777777778
 40
0.7777777777777778
 40
1.0
 40
1.0
 40
1.0
 40
1.0
 10
-10.5
 20
-14.45
 30
0.0
 10
-10.5
 20
-14.45
 30
0.0
 10
-10.5
 20
14.45
 30
0.0
 10
-10.5
 20
14.45
 30
0.0
 10
-10.5
 20
14.45
 30
0.0
 10
-10.5
 20
14.72614
 30
0.0
 10
-10.27614
 20
14.95
 30
0.0
 10
-10.0
 20
14.95
 30
0.0
 10
-10.0
 20
14.95
 30
0.0
 10
-10.0
 20
14.95
 30
0.0
 10
9.9
 20
14.95
 30
0.0
 10
9.9
 20
14.95
 30
0.0
 10
9.9
 20
14.95
 30
0.0
 10
10.17614
 20
14.95
 30
0.0
 10
10.4
 20
14.72614
 30
0.0
 10
10.4
 20
14.45
 30
0.0
 10
10.4
 20
14.45
 30
0.0
 10
10.4
 20
14.45
 30
0.0
 10
10.4
 20
-14.45
 30
0.0
 10
10.4
 20
-14.45
 30
0.0
 10
10.4
 20
-14.45
 30
0.0
 10
10.4
 20
-14.72614
 30
0.0
 10
10.17614
 20
-14.95
 30
0.0
 10
9.9
 20
-14.95
 30
0.0
 10
9.9
 20
-14.95
 30
0.0
 10
9.9
 20
-14.95
 30
0.0
 10
-10.0
 20
-14.95
 30
0.0
 10
-10.0
 20
-14.95
 30
0.0
 10
-10.0
 20
-14.95
 30
0.0
 10
-10.27614
 20
-14.95
 30
0.0
 10
-10.5
 20
-14.72614
 30
0.0
 10
-10.5
 20
-14.45
 30
0.0
  0
ELLIPSE
  5
42
330
1F
100
AcDbEntity
  8
Layer 1
370
    53
100
AcDbEllipse
 10
-9.8
 20
-14.25
 30
0.0
 11
0.0
 21
0.3
 31
0.0
210
0.0
220
0.0
230
1.0
 40
1.0
 41
0.0
 42
6.283185307179586
  0
ELLIPSE
  5
43
330
1F
100
AcDbEntity
  8
Layer 1
370
    53
100
AcDbEllipse
 10
9.7
 20
-14.25
 30
0.0
 11
0.0
 21
0.3
 31
0.0
210
0.0
220
0.0
230
1.0
 40
1.0
 41
0.0
 42
6.283185307179586
  0
ELLIPSE
  5
44
330
1F
100
AcDbEntity
  8
Layer 1
370
    53
100
AcDbEllipse
 10
-9.8
 20
14.25
 30
0.0
 11
0.0
 21
0.3
 31
0.0
210
0.0
220
0.0
230
1.0
 40
1.0
 41
0.0
 42
6.283185307179586
  0
ELLIPSE
  5
45
330
1F
100
AcDbEntity
  8
Layer 1
370
    53
100
AcDbEllipse
 10
9.7
 20
14.25
 30
0.0
 11
0.0
 21
0.3
 31
0.0
210
0.0
220
0.0
230
1.0
 40
1.0
 41
0.0
 42
6.283185307179586
  0
SPLINE
  5
46
330
1F
100
AcDbEntity
  8
Layer 1
 62
     5
370
     9
100
AcDbSpline
210
0.0
220
0.0
230
1.0
 70
    11
 71
     3
 72
    76
 73
    72
 74
     0
 42
0.0000000001
 43
0.0000000001
 12
1.0
 22
0.0
 32
0.0
 13
1.0
 23
0.0
 33
0.0
 40
0.0
 40
0.0
 40
0.0
 40
0.0
 40
0.0526315789473684
 40
0.0526315789473684
 40
0.0526315789473684
 40
0.0526315789473684
 40
0.1052631578947368
 40
0.1052631578947368
 40
0.1052631578947368
 40
0.1052631578947368
 40
0.1578947368421053
 40
0.1578947368421053
 40
0.1578947368421053
 40
0.1578947368421053
 40
0.2105263157894737
 40
0.2105263157894737
 40
0.2105263157894737
 40
0.2105263157894737
 40
0.2631578947368421
 40
0.2631578947368421
 40
0.2631578947368421
 40
0.2631578947368421
 40
0.3157894736842105
 40
0.3157894736842105
 40
0.3157894736842105
 40
0.3157894736842105
 40
0.3684210526315789
 40
0.3684210526315789
 40
0.3684210526315789
 40
0.3684210526315789
 40
0.4210526315789473
 40
0.4210526315789473
 40
0.4210526315789473
 40
0.4210526315789473
 40
0.4736842105263158
 40
0.4736842105263158
 40
0.4736842105263158
 40
0.4736842105263158
 40
0.5263157894736842
 40
0.5263157894736842
 40
0.5263157894736842
 40
0.5263157894736842
 40
0.5789473684210527
 40
0.5789473684210527
 40
0.5789473684210527
 40
0.5789473684210527
 40
0.631578947368421
 40
0.631578947368421
 40
0.631578947368421
 40
0.631578947368421
 40
0.6842105263157895
 40
0.6842105263157895
 40
0.6842105263157895
 40
0.6842105263157895
 40
0.7368421052631579
 40
0.7368421052631579
 40
0.7368421052631579
 40
0.7368421052631579
 40
0.7894736842105263
 40
0.7894736842105263
 40
0.7894736842105263
 40
0.7894736842105263
 40
0.8421052631578947
 40
0.8421052631578947
 40
0.8421052631578947
 40
0.8421052631578947
 40
0.8947368421052632
 40
0.8947368421052632
 40
0.8947368421052632
 40
0.8947368421052632
 40
1.0
 40
1.0
 40
1.0
 40
1.0
 10
-2.73179
 20
-14.5548
 30
0.0
 10
-2.65728
 20
-14.5548
 30
0.0
 10
-2.57431
 20
-14.51586
 30
0.0
 10
-2.57431
 20
-14.42357
 30
0.0
 10
-2.57431
 20
-14.42357
 30
0.0
 10
-2.57431
 20
-14.33213
 30
0.0
 10
-2.64374
 20
-14.30758
 30
0.0
 10
-2.72756
 20
-14.27794
 30
0.0
 10
-2.72756
 20
-14.27794
 30
0.0
 10
-2.78513
 20
-14.25762
 30
0.0
 10
-2.85117
 20
-14.2373
 30
0.0
 10
-2.85117
 20
-14.1738
 30
0.0
 10
-2.85117
 20
-14.1738
 30
0.0
 10
-2.85117
 20
-14.1103
 30
0.0
 10
-2.7936
 20
-14.0849
 30
0.0
 10
-2.73602
 20
-14.0849
 30
0.0
 10
-2.73602
 20
-14.0849
 30
0.0
 10
-2.68184
 20
-14.0849
 30
0.0
 10
-2.64374
 20
-14.10945
 30
0.0
 10
-2.62511
 20
-14.15348
 30
0.0
 10
-2.62511
 20
-14.15348
 30
0.0
 10
-2.62172
 20
-14.15941
 30
0.0
 10
-2.6158
 20
-14.16364
 30
0.0
 10
-2.60902
 20
-14.16364
 30
0.0
 10
-2.60902
 20
-14.16364
 30
0.0
 10
-2.59971
 20
-14.16364
 30
0.0
 10
-2.59209
 20
-14.15602
 30
0.0
 10
-2.59209
 20
-14.14671
 30
0.0
 10
-2.59209
 20
-14.14671
 30
0.0
 10
-2.59209
 20
-14.14417
 30
0.0
 10
-2.59294
 20
-14.14163
 30
0.0
 10
-2.59378
 20
-14.13994
 30
0.0
 10
-2.59378
 20
-14.13994
 30
0.0
 10
-2.61749
 20
-14.08405
 30
0.0
 10
-2.66998
 20
-14.05103
 30
0.0
 10
-2.73602
 20
-14.05103
 30
0.0
 10
-2.73602
 20
-14.05103
 30
0.0
 10
-2.80206
 20
-14.05103
 30
0.0
 10
-2.88504
 20
-14.08659
 30
0.0
 10
-2.88504
 20
-14.1738
 30
0.0
 10
-2.88504
 20
-14.1738
 30
0.0
 10
-2.88504
 20
-14.25847
 30
0.0
 10
-2.81815
 20
-14.28218
 30
0.0
 10
-2.73856
 20
-14.31012
 30
0.0
 10
-2.73856
 20
-14.31012
 30
0.0
 10
-2.6793
 20
-14.33128
 30
0.0
 10
-2.60818
 20
-14.35245
 30
0.0
 10
-2.60818
 20
-14.42357
 30
0.0
 10
-2.60818
 20
-14.42357
 30
0.0
 10
-2.60818
 20
-14.49215
 30
0.0
 10
-2.66744
 20
-14.52094
 30
0.0
 10
-2.73179
 20
-14.52094
 30
0.0
 10
-2.73179
 20
-14.52094
 30
0.0
 10
-2.79868
 20
-14.52094
 30
0.0
 10
-2.84948
 20
-14.48961
 30
0.0
 10
-2.8681
 20
-14.43288
 30
0.0
 10
-2.8681
 20
-14.43288
 30
0.0
 10
-2.8698
 20
-14.42611
 30
0.0
 10
-2.87657
 20
-14.42103
 30
0.0
 10
-2.88419
 20
-14.42103
 30
0.0
 10
-2.88419
 20
-14.42103
 30
0.0
 10
-2.8935
 20
-14.42103
 30
0.0
 10
-2.90112
 20
-14.42865
 30
0.0
 10
-2.90112
 20
-14.43796
 30
0.0
 10
-2.90112
 20
-14.43796
 30
0.0
 10
-2.90112
 20
-14.43966
 30
0.0
 10
-2.90112
 20
-14.44135
 30
0.0
 10
-2.90028
 20
-14.44389
 30
0.0
 10
-2.90028
 20
-14.44389
 30
0.0
 10
-2.87742
 20
-14.51332
 30
0.0
 10
-2.80968
 20
-14.5548
 30
0.0
 10
-2.73179
 20
-14.5548
 30
0.0
  0
SPLINE
  5
47
330
1F
100
AcDbEntity
  8
Layer 1
 62
     5
370
     9
100
AcDbSpline
210
0.0
220
0.0
230
1.0
 70
    11
 71
     3
 72
    64
 73
    60
 74
     0
 42
0.0000000001
 43
0.0000000001
 12
1.0
 22
0.0
 32
0.0
 13
1.0
 23
0.0
 33
0.0
 40
0.0
 40
0.0
 40
0.0
 40
0.0
 40
0.0625
 40
0.0625
 40
0.0625
 40
0.0625
 40
0.125
 40
0.125
 40
0.125
 40
0.125
 40
0.1875
 40
0.1875
 40
0.1875
 40
0.1875
 40
0.25
 40
0.25
 40
0.25
 40
0.25
 40
0.3125
 40
0.3125
 40
0.3125
 40
0.3125
 40
0.375
 40
0.375
 40
0.375
 40
0.375
 40
0.4375
 40
0.4375
 40
0.4375
 40
0.4375
 40
0.5
 40
0.5
 40
0.5
 40
0.5
 40
0.5625
 40
0.5625
 40
0.5625
 40
0.5625
 40
0.625
 40
0.625
 40
0.625
 40
0.625
 40
0.6875
 40
0.6875
 40
0.6875
 40
0.6875
 40
0.75
 40
0.75
 40
0.75
 40
0.75
 40
0.8125
 40
0.8125
 40
0.8125
 40
0.8125
 40
0.875
 40
0.875
 40
0.875
 40
0.875
 40
1.0
 40
1.0
 40
1.0
 40
1.0
 10
-2.40074
 20
-14.5548
 30
0.0
 10
-2.39142
 20
-14.5548
 30
0.0
 10
-2.3838
 20
-14.54718
 30
0.0
 10
-2.3838
 20
-14.53787
 30
0.0
 10
-2.3838
 20
-14.53787
 30
0.0
 10
-2.3838
 20
-14.53787
 30
0.0
 10
-2.3838
 20
-14.19243
 30
0.0
 10
-2.3838
 20
-14.19243
 30
0.0
 10
-2.3838
 20
-14.19243
 30
0.0
 10
-2.33385
 20
-14.1357
 30
0.0
 10
-2.2839
 20
-14.0849
 30
0.0
 10
-2.21786
 20
-14.0849
 30
0.0
 10
-2.21786
 20
-14.0849
 30
0.0
 10
-2.16113
 20
-14.0849
 30
0.0
 10
-2.13573
 20
-14.11877
 30
0.0
 10
-2.13573
 20
-14.1865
 30
0.0
 10
-2.13573
 20
-14.1865
 30
0.0
 10
-2.13573
 20
-14.1865
 30
0.0
 10
-2.13573
 20
-14.53787
 30
0.0
 10
-2.13573
 20
-14.53787
 30
0.0
 10
-2.13573
 20
-14.53787
 30
0.0
 10
-2.13573
 20
-14.54718
 30
0.0
 10
-2.12811
 20
-14.5548
 30
0.0
 10
-2.1188
 20
-14.5548
 30
0.0
 10
-2.1188
 20
-14.5548
 30
0.0
 10
-2.10948
 20
-14.5548
 30
0.0
 10
-2.10186
 20
-14.54718
 30
0.0
 10
-2.10186
 20
-14.53787
 30
0.0
 10
-2.10186
 20
-14.53787
 30
0.0
 10
-2.10186
 20
-14.53787
 30
0.0
 10
-2.10186
 20
-14.1865
 30
0.0
 10
-2.10186
 20
-14.1865
 30
0.0
 10
-2.10186
 20
-14.1865
 30
0.0
 10
-2.10186
 20
-14.10522
 30
0.0
 10
-2.14166
 20
-14.05103
 30
0.0
 10
-2.21786
 20
-14.05103
 30
0.0
 10
-2.21786
 20
-14.05103
 30
0.0
 10
-2.28559
 20
-14.05103
 30
0.0
 10
-2.33808
 20
-14.09421
 30
0.0
 10
-2.3838
 20
-14.14248
 30
0.0
 10
-2.3838
 20
-14.14248
 30
0.0
 10
-2.3838
 20
-14.14248
 30
0.0
 10
-2.3838
 20
-13.9071
 30
0.0
 10
-2.3838
 20
-13.9071
 30
0.0
 10
-2.3838
 20
-13.9071
 30
0.0
 10
-2.3838
 20
-13.89779
 30
0.0
 10
-2.39142
 20
-13.89017
 30
0.0
 10
-2.40074
 20
-13.89017
 30
0.0
 10
-2.40074
 20
-13.89017
 30
0.0
 10
-2.41005
 20
-13.89017
 30
0.0
 10
-2.41767
 20
-13.89779
 30
0.0
 10
-2.41767
 20
-13.9071
 30
0.0
 10
-2.41767
 20
-13.9071
 30
0.0
 10
-2.41767
 20
-13.9071
 30
0.0
 10
-2.41767
 20
-14.53787
 30
0.0
 10
-2.41767
 20
-14.53787
 30
0.0
 10
-2.41767
 20
-14.53787
 30
0.0
 10
-2.41767
 20
-14.54718
 30
0.0
 10
-2.41005
 20
-14.5548
 30
0.0
 10
-2.40074
 20
-14.5548
 30
0.0
  0
SPLINE
  5
48
330
1F
100
AcDbEntity
  8
Layer 1
 62
     5
370
     9
100
AcDbSpline
210
0.0
220
0.0
230
1.0
 70
    11
 71
     3
 72
    52
 73
    48
 74
     0
 42
0.0000000001
 43
0.0000000001
 12
1.0
 22
0.0
 32
0.0
 13
1.0
 23
0.0
 33
0.0
 40
0.0
 40
0.0
 40
0.0
 40
0.0
 40
0.0769230769230769
 40
0.0769230769230769
 40
0.0769230769230769
 40
0.0769230769230769
 40
0.1538461538461539
 40
0.1538461538461539
 40
0.1538461538461539
 40
0.1538461538461539
 40
0.2307692307692308
 40
0.2307692307692308
 40
0.2307692307692308
 40
0.2307692307692308
 40
0.3076923076923077
 40
0.3076923076923077
 40
0.3076923076923077
 40
0.3076923076923077
 40
0.3846153846153846
 40
0.3846153846153846
 40
0.3846153846153846
 40
0.3846153846153846
 40
0.4615384615384616
 40
0.4615384615384616
 40
0.4615384615384616
 40
0.4615384615384616
 40
0.5384615384615384
 40
0.5384615384615384
 40
0.5384615384615384
 40
0.5384615384615384
 40
0.6153846153846154
 40
0.6153846153846154
 40
0.6153846153846154
 40
0.6153846153846154
 40
0.6923076923076923
 40
0.6923076923076923
 40
0.6923076923076923
 40
0.6923076923076923
 40
0.7692307692307693
 40
0.7692307692307693
 40
0.7692307692307693
 40
0.7692307692307693
 40
0.8461538461538461
 40
0.8461538461538461
 40
0.8461538461538461
 40
0.8461538461538461
 40
1.0
 40
1.0
 40
1.0
 40
1.0
 10
-1.75303
 20
-14.5548
 30
0.0
 10
-1.66498
 20
-14.5548
 30
0.0
 10
-1.61587
 20
-14.5057
 30
0.0
 10
-1.59301
 20
-14.45151
 30
0.0
 10
-1.59301
 20
-14.45151
 30
0.0
 10
-1.59216
 20
-14.44982
 30
0.0
 10
-1.59132
 20
-14.44728
 30
0.0
 10
-1.59132
 20
-14.44474
 30
0.0
 10
-1.59132
 20
-14.44474
 30
0.0
 10
-1.59132
 20
-14.43542
 30
0.0
 10
-1.59894
 20
-14.4278
 30
0.0
 10
-1.60825
 20
-14.4278
 30
0.0
 10
-1.60825
 20
-14.4278
 30
0.0
 10
-1.61502
 20
-14.4278
 30
0.0
 10
-1.6218
 20
-14.43204
 30
0.0
 10
-1.62349
 20
-14.43881
 30
0.0
 10
-1.62349
 20
-14.43881
 30
0.0
 10
-1.64381
 20
-14.48538
 30
0.0
 10
-1.68022
 20
-14.52094
 30
0.0
 10
-1.75303
 20
-14.52094
 30
0.0
 10
-1.75303
 20
-14.52094
 30
0.0
 10
-1.86394
 20
-14.52094
 30
0.0
 10
-1.91136
 20
-14.43542
 30
0.0
 10
-1.91136
 20
-14.30504
 30
0.0
 10
-1.91136
 20
-14.30504
 30
0.0
 10
-1.91136
 20
-14.30504
 30
0.0
 10
-1.91136
 20
-14.29657
 30
0.0
 10
-1.91136
 20
-14.29657
 30
0.0
 10
-1.91136
 20
-14.29657
 30
0.0
 10
-1.91136
 20
-14.29657
 30
0.0
 10
-1.60148
 20
-14.29657
 30
0.0
 10
-1.60148
 20
-14.29657
 30
0.0
 10
-1.60148
 20
-14.29657
 30
0.0
 10
-1.59047
 20
-14.29657
 30
0.0
 10
-1.58454
 20
-14.29064
 30
0.0
 10
-1.58454
 20
-14.27964
 30
0.0
 10
-1.58454
 20
-14.27964
 30
0.0
 10
-1.58454
 20
-14.18058
 30
0.0
 10
-1.61926
 20
-14.05103
 30
0.0
 10
-1.75557
 20
-14.05103
 30
0.0
 10
-1.75557
 20
-14.05103
 30
0.0
 10
-1.87241
 20
-14.05103
 30
0.0
 10
-1.94522
 20
-14.1484
 30
0.0
 10
-1.94522
 20
-14.30504
 30
0.0
 10
-1.94522
 20
-14.30504
 30
0.0
 10
-1.94522
 20
-14.44643
 30
0.0
 10
-1.88596
 20
-14.5548
 30
0.0
 10
-1.75303
 20
-14.5548
 30
0.0
  0
SPLINE
  5
49
330
1F
100
AcDbEntity
  8
Layer 1
 62
     5
370
     9
100
AcDbSpline
210
0.0
220
0.0
230
1.0
 70
    11
 71
     3
 72
    16
 73
    12
 74
     0
 42
0.0000000001
 43
0.0000000001
 12
1.0
 22
0.0
 32
0.0
 13
1.0
 23
0.0
 33
0.0
 40
0.0
 40
0.0
 40
0.0
 40
0.0
 40
0.25
 40
0.25
 40
0.25
 40
0.25
 40
0.5
 40
0.5
 40
0.5
 40
0.5
 40
1.0
 40
1.0
 40
1.0
 40
1.0
 10
-1.90966
 20
-14.2627
 30
0.0
 10
-1.89866
 20
-14.14671
 30
0.0
 10
-1.84278
 20
-14.0849
 30
0.0
 10
-1.75557
 20
-14.0849
 30
0.0
 10
-1.75557
 20
-14.0849
 30
0.0
 10
-1.65228
 20
-14.0849
 30
0.0
 10
-1.6218
 20
-14.1755
 30
0.0
 10
-1.61841
 20
-14.2627
 30
0.0
 10
-1.61841
 20
-14.2627
 30
0.0
 10
-1.61841
 20
-14.2627
 30
0.0
 10
-1.90966
 20
-14.2627
 30
0.0
 10
-1.90966
 20
-14.2627
 30
0.0
  0
SPLINE
  5
4A
330
1F
100
AcDbEntity
  8
Layer 1
 62
     5
370
     9
100
AcDbSpline
210
0.0
220
0.0
230
1.0
 70
    11
 71
     3
 72
    52
 73
    48
 74
     0
 42
0.0000000001
 43
0.0000000001
 12
1.0
 22
0.0
 32
0.0
 13
1.0
 23
0.0
 33
0.0
 40
0.0
 40
0.0
 40
0.0
 40
0.0
 40
0.0769230769230769
 40
0.0769230769230769
 40
0.0769230769230769
 40
0.0769230769230769
 40
0.1538461538461539
 40
0.1538461538461539
 40
0.1538461538461539
 40
0.1538461538461539
 40
0.2307692307692308
 40
0.2307692307692308
 40
0.2307692307692308
 40
0.2307692307692308
 40
0.3076923076923077
 40
0.3076923076923077
 40
0.3076923076923077
 40
0.3076923076923077
 40
0.3846153846153846
 40
0.3846153846153846
 40
0.3846153846153846
 40
0.3846153846153846
 40
0.4615384615384616
 40
0.4615384615384616
 40
0.4615384615384616
 40
0.4615384615384616
 40
0.5384615384615384
 40
0.5384615384615384
 40
0.5384615384615384
 40
0.5384615384615384
 40
0.6153846153846154
 40
0.6153846153846154
 40
0.6153846153846154
 40
0.6153846153846154
 40
0.6923076923076923
 40
0.6923076923076923
 40
0.6923076923076923
 40
0.6923076923076923
 40
0.7692307692307693
 40
0.7692307692307693
 40
0.7692307692307693
 40
0.7692307692307693
 40
0.8461538461538461
 40
0.8461538461538461
 40
0.8461538461538461
 40
0.8461538461538461
 40
1.0
 40
1.0
 40
1.0
 40
1.0
 10
-1.27805
 20
-14.5548
 30
0.0
 10
-1.19
 20
-14.5548
 30
0.0
 10
-1.14089
 20
-14.5057
 30
0.0
 10
-1.11803
 20
-14.45151
 30
0.0
 10
-1.11803
 20
-14.45151
 30
0.0
 10
-1.11718
 20
-14.44982
 30
0.0
 10
-1.11634
 20
-14.44728
 30
0.0
 10
-1.11634
 20
-14.44474
 30
0.0
 10
-1.11634
 20
-14.44474
 30
0.0
 10
-1.11634
 20
-14.43542
 30
0.0
 10
-1.12396
 20
-14.4278
 30
0.0
 10
-1.13327
 20
-14.4278
 30
0.0
 10
-1.13327
 20
-14.4278
 30
0.0
 10
-1.14004
 20
-14.4278
 30
0.0
 10
-1.14682
 20
-14.43204
 30
0.0
 10
-1.14851
 20
-14.43881
 30
0.0
 10
-1.14851
 20
-14.43881
 30
0.0
 10
-1.16883
 20
-14.48538
 30
0.0
 10
-1.20524
 20
-14.52094
 30
0.0
 10
-1.27805
 20
-14.52094
 30
0.0
 10
-1.27805
 20
-14.52094
 30
0.0
 10
-1.38896
 20
-14.52094
 30
0.0
 10
-1.43638
 20
-14.43542
 30
0.0
 10
-1.43638
 20
-14.30504
 30
0.0
 10
-1.43638
 20
-14.30504
 30
0.0
 10
-1.43638
 20
-14.30504
 30
0.0
 10
-1.43638
 20
-14.29657
 30
0.0
 10
-1.43638
 20
-14.29657
 30
0.0
 10
-1.43638
 20
-14.29657
 30
0.0
 10
-1.43638
 20
-14.29657
 30
0.0
 10
-1.1265
 20
-14.29657
 30
0.0
 10
-1.1265
 20
-14.29657
 30
0.0
 10
-1.1265
 20
-14.29657
 30
0.0
 10
-1.11549
 20
-14.29657
 30
0.0
 10
-1.10956
 20
-14.29064
 30
0.0
 10
-1.10956
 20
-14.27964
 30
0.0
 10
-1.10956
 20
-14.27964
 30
0.0
 10
-1.10956
 20
-14.18058
 30
0.0
 10
-1.14428
 20
-14.05103
 30
0.0
 10
-1.28059
 20
-14.05103
 30
0.0
 10
-1.28059
 20
-14.05103
 30
0.0
 10
-1.39743
 20
-14.05103
 30
0.0
 10
-1.47024
 20
-14.1484
 30
0.0
 10
-1.47024
 20
-14.30504
 30
0.0
 10
-1.47024
 20
-14.30504
 30
0.0
 10
-1.47024
 20
-14.44643
 30
0.0
 10
-1.41098
 20
-14.5548
 30
0.0
 10
-1.27805
 20
-14.5548
 30
0.0
  0
SPLINE
  5
4B
330
1F
100
AcDbEntity
  8
Layer 1
 62
     5
370
     9
100
AcDbSpline
210
0.0
220
0.0
230
1.0
 70
    11
 71
     3
 72
    16
 73
    12
 74
     0
 42
0.0000000001
 43
0.0000000001
 12
1.0
 22
0.0
 32
0.0
 13
1.0
 23
0.0
 33
0.0
 40
0.0
 40
0.0
 40
0.0
 40
0.0
 40
0.25
 40
0.25
 40
0.25
 40
0.25
 40
0.5
 40
0.5
 40
0.5
 40
0.5
 40
1.0
 40
1.0
 40
1.0
 40
1.0
 10
-1.43468
 20
-14.2627
 30
0.0
 10
-1.42368
 20
-14.14671
 30
0.0
 10
-1.3678
 20
-14.0849
 30
0.0
 10
-1.28059
 20
-14.0849
 30
0.0
 10
-1.28059
 20
-14.0849
 30
0.0
 10
-1.1773
 20
-14.0849
 30
0.0
 10
-1.14682
 20
-14.1755
 30
0.0
 10
-1.14343
 20
-14.2627
 30
0.0
 10
-1.14343
 20
-14.2627
 30
0.0
 10
-1.14343
 20
-14.2627
 30
0.0
 10
-1.43468
 20
-14.2627
 30
0.0
 10
-1.43468
 20
-14.2627
 30
0.0
  0
SPLINE
  5
4C
330
1F
100
AcDbEntity
  8
Layer 1
 62
     5
370
     9
100
AcDbSpline
210
0.0
220
0.0
230
1.0
 70
    11
 71
     3
 72
    88
 73
    84
 74
     0
 42
0.0000000001
 43
0.0000000001
 12
1.0
 22
0.0
 32
0.0
 13
1.0
 23
0.0
 33
0.0
 40
0.0
 40
0.0
 40
0.0
 40
0.0
 40
0.0454545454545455
 40
0.0454545454545455
 40
0.0454545454545455
 40
0.0454545454545455
 40
0.0909090909090909
 40
0.0909090909090909
 40
0.0909090909090909
 40
0.0909090909090909
 40
0.1363636363636364
 40
0.1363636363636364
 40
0.1363636363636364
 40
0.1363636363636364
 40
0.1818181818181818
 40
0.1818181818181818
 40
0.1818181818181818
 40
0.1818181818181818
 40
0.2272727272727273
 40
0.2272727272727273
 40
0.2272727272727273
 40
0.2272727272727273
 40
0.2727272727272727
 40
0.2727272727272727
 40
0.2727272727272727
 40
0.2727272727272727
 40
0.3181818181818182
 40
0.3181818181818182
 40
0.3181818181818182
 40
0.3181818181818182
 40
0.3636363636363636
 40
0.3636363636363636
 40
0.3636363636363636
 40
0.3636363636363636
 40
0.4090909090909091
 40
0.4090909090909091
 40
0.4090909090909091
 40
0.4090909090909091
 40
0.4545454545454545
 40
0.4545454545454545
 40
0.4545454545454545
 40
0.4545454545454545
 40
0.5
 40
0.5
 40
0.5
 40
0.5
 40
0.5454545454545454
 40
0.5454545454545454
 40
0.5454545454545454
 40
0.5454545454545454
 40
0.5909090909090909
 40
0.5909090909090909
 40
0.5909090909090909
 40
0.5909090909090909
 40
0.6363636363636364
 40
0.6363636363636364
 40
0.6363636363636364
 40
0.6363636363636364
 40
0.6818181818181818
 40
0.6818181818181818
 40
0.6818181818181818
 40
0.6818181818181818
 40
0.7272727272727273
 40
0.7272727272727273
 40
0.7272727272727273
 40
0.7272727272727273
 40
0.7727272727272727
 40
0.7727272727272727
 40
0.7727272727272727
 40
0.7727272727272727
 40
0.8181818181818182
 40
0.8181818181818182
 40
0.8181818181818182
 40
0.8181818181818182
 40
0.8636363636363636
 40
0.8636363636363636
 40
0.8636363636363636
 40
0.8636363636363636
 40
0.9090909090909091
 40
0.9090909090909091
 40
0.9090909090909091
 40
0.9090909090909091
 40
1.0
 40
1.0
 40
1.0
 40
1.0
 10
-0.8454
 20
-14.5548
 30
0.0
 10
-0.81238
 20
-14.5548
 30
0.0
 10
-0.78444
 20
-14.5438
 30
0.0
 10
-0.76666
 20
-14.52771
 30
0.0
 10
-0.76666
 20
-14.52771
 30
0.0
 10
-0.76328
 20
-14.52432
 30
0.0
 10
-0.76074
 20
-14.52009
 30
0.0
 10
-0.76074
 20
-14.51501
 30
0.0
 10
-0.76074
 20
-14.51501
 30
0.0
 10
-0.76074
 20
-14.5057
 30
0.0
 10
-0.76836
 20
-14.49808
 30
0.0
 10
-0.77767
 20
-14.49808
 30
0.0
 10
-0.77767
 20
-14.49808
 30
0.0
 10
-0.7819
 20
-14.49808
 30
0.0
 10
-0.78614
 20
-14.49977
 30
0.0
 10
-0.78868
 20
-14.50231
 30
0.0
 10
-0.78868
 20
-14.50231
 30
0.0
 10
-0.80222
 20
-14.51416
 30
0.0
 10
-0.82
 20
-14.52094
 30
0.0
 10
-0.8454
 20
-14.52094
 30
0.0
 10
-0.8454
 20
-14.52094
 30
0.0
 10
-0.89112
 20
-14.52094
 30
0.0
 10
-0.9106
 20
-14.50146
 30
0.0
 10
-0.9106
 20
-14.43881
 30
0.0
 10
-0.9106
 20
-14.43881
 30
0.0
 10
-0.9106
 20
-14.43881
 30
0.0
 10
-0.9106
 20
-14.13062
 30
0.0
 10
-0.9106
 20
-14.13062
 30
0.0
 10
-0.9106
 20
-14.13062
 30
0.0
 10
-0.9106
 20
-14.13062
 30
0.0
 10
-0.78952
 20
-14.13062
 30
0.0
 10
-0.78952
 20
-14.13062
 30
0.0
 10
-0.78952
 20
-14.13062
 30
0.0
 10
-0.78021
 20
-14.13062
 30
0.0
 10
-0.77259
 20
-14.123
 30
0.0
 10
-0.77259
 20
-14.11369
 30
0.0
 10
-0.77259
 20
-14.11369
 30
0.0
 10
-0.77259
 20
-14.10437
 30
0.0
 10
-0.78021
 20
-14.09675
 30
0.0
 10
-0.78952
 20
-14.09675
 30
0.0
 10
-0.78952
 20
-14.09675
 30
0.0
 10
-0.78952
 20
-14.09675
 30
0.0
 10
-0.9106
 20
-14.09675
 30
0.0
 10
-0.9106
 20
-14.09675
 30
0.0
 10
-0.9106
 20
-14.09675
 30
0.0
 10
-0.9106
 20
-14.09675
 30
0.0
 10
-0.9106
 20
-13.97907
 30
0.0
 10
-0.9106
 20
-13.97907
 30
0.0
 10
-0.9106
 20
-13.97907
 30
0.0
 10
-0.9106
 20
-13.96975
 30
0.0
 10
-0.91822
 20
-13.96213
 30
0.0
 10
-0.92753
 20
-13.96213
 30
0.0
 10
-0.92753
 20
-13.96213
 30
0.0
 10
-0.93684
 20
-13.96213
 30
0.0
 10
-0.94446
 20
-13.96975
 30
0.0
 10
-0.94446
 20
-13.97907
 30
0.0
 10
-0.94446
 20
-13.97907
 30
0.0
 10
-0.94446
 20
-13.97907
 30
0.0
 10
-0.94446
 20
-14.09675
 30
0.0
 10
-0.94446
 20
-14.09675
 30
0.0
 10
-0.94446
 20
-14.09675
 30
0.0
 10
-0.94446
 20
-14.09675
 30
0.0
 10
-1.0122
 20
-14.09675
 30
0.0
 10
-1.0122
 20
-14.09675
 30
0.0
 10
-1.0122
 20
-14.09675
 30
0.0
 10
-1.02151
 20
-14.09675
 30
0.0
 10
-1.02913
 20
-14.10437
 30
0.0
 10
-1.02913
 20
-14.11369
 30
0.0
 10
-1.02913
 20
-14.11369
 30
0.0
 10
-1.02913
 20
-14.123
 30
0.0
 10
-1.02151
 20
-14.13062
 30
0.0
 10
-1.0122
 20
-14.13062
 30
0.0
 10
-1.0122
 20
-14.13062
 30
0.0
 10
-1.0122
 20
-14.13062
 30
0.0
 10
-0.94446
 20
-14.13062
 30
0.0
 10
-0.94446
 20
-14.13062
 30
0.0
 10
-0.94446
 20
-14.13062
 30
0.0
 10
-0.94446
 20
-14.13062
 30
0.0
 10
-0.94446
 20
-14.43881
 30
0.0
 10
-0.94446
 20
-14.43881
 30
0.0
 10
-0.94446
 20
-14.43881
 30
0.0
 10
-0.94446
 20
-14.51755
 30
0.0
 10
-0.90721
 20
-14.5548
 30
0.0
 10
-0.8454
 20
-14.5548
 30
0.0
  0
SPLINE
  5
4D
330
1F
100
AcDbEntity
  8
Layer 1
 62
     5
370
     9
100
AcDbSpline
210
0.0
220
0.0
230
1.0
 70
    11
 71
     3
 72
    28
 73
    24
 74
     0
 42
0.0000000001
 43
0.0000000001
 12
1.0
 22
0.0
 32
0.0
 13
1.0
 23
0.0
 33
0.0
 40
0.0
 40
0.0
 40
0.0
 40
0.0
 40
0.1428571428571428
 40
0.1428571428571428
 40
0.1428571428571428
 40
0.1428571428571428
 40
0.2857142857142857
 40
0.2857142857142857
 40
0.2857142857142857
 40
0.2857142857142857
 40
0.4285714285714285
 40
0.4285714285714285
 40
0.4285714285714285
 40
0.4285714285714285
 40
0.5714285714285714
 40
0.5714285714285714
 40
0.5714285714285714
 40
0.5714285714285714
 40
0.7142857142857143
 40
0.7142857142857143
 40
0.7142857142857143
 40
0.7142857142857143
 40
1.0
 40
1.0
 40
1.0
 40
1.0
 10
-0.7184
 20
-14.68604
 30
0.0
 10
-0.7184
 20
-14.68604
 30
0.0
 10
-0.3882
 20
-14.68604
 30
0.0
 10
-0.3882
 20
-14.68604
 30
0.0
 10
-0.3882
 20
-14.68604
 30
0.0
 10
-0.37889
 20
-14.68604
 30
0.0
 10
-0.37127
 20
-14.67842
 30
0.0
 10
-0.37127
 20
-14.6691
 30
0.0
 10
-0.37127
 20
-14.6691
 30
0.0
 10
-0.37127
 20
-14.65979
 30
0.0
 10
-0.37889
 20
-14.65217
 30
0.0
 10
-0.3882
 20
-14.65217
 30
0.0
 10
-0.3882
 20
-14.65217
 30
0.0
 10
-0.3882
 20
-14.65217
 30
0.0
 10
-0.7184
 20
-14.65217
 30
0.0
 10
-0.7184
 20
-14.65217
 30
0.0
 10
-0.7184
 20
-14.65217
 30
0.0
 10
-0.72772
 20
-14.65217
 30
0.0
 10
-0.73534
 20
-14.65979
 30
0.0
 10
-0.73534
 20
-14.6691
 30
0.0
 10
-0.73534
 20
-14.6691
 30
0.0
 10
-0.73534
 20
-14.67842
 30
0.0
 10
-0.72772
 20
-14.68604
 30
0.0
 10
-0.7184
 20
-14.68604
 30
0.0
  0
SPLINE
  5
4E
330
1F
100
AcDbEntity
  8
Layer 1
 62
     5
370
     9
100
AcDbSpline
210
0.0
220
0.0
230
1.0
 70
    11
 71
     3
 72
    48
 73
    44
 74
     0
 42
0.0000000001
 43
0.0000000001
 12
1.0
 22
0.0
 32
0.0
 13
1.0
 23
0.0
 33
0.0
 40
0.0
 40
0.0
 40
0.0
 40
0.0
 40
0.0833333333333333
 40
0.0833333333333333
 40
0.0833333333333333
 40
0.0833333333333333
 40
0.1666666666666667
 40
0.1666666666666667
 40
0.1666666666666667
 40
0.1666666666666667
 40
0.25
 40
0.25
 40
0.25
 40
0.25
 40
0.3333333333333333
 40
0.3333333333333333
 40
0.3333333333333333
 40
0.3333333333333333
 40
0.4166666666666667
 40
0.4166666666666667
 40
0.4166666666666667
 40
0.4166666666666667
 40
0.5
 40
0.5
 40
0.5
 40
0.5
 40
0.5833333333333334
 40
0.5833333333333334
 40
0.5833333333333334
 40
0.5833333333333334
 40
0.6666666666666666
 40
0.6666666666666666
 40
0.6666666666666666
 40
0.6666666666666666
 40
0.75
 40
0.75
 40
0.75
 40
0.75
 40
0.8333333333333334
 40
0.8333333333333334
 40
0.8333333333333334
 40
0.8333333333333334
 40
1.0
 40
1.0
 40
1.0
 40
1.0
 10
-0.26121
 20
-14.71567
 30
0.0
 10
-0.25189
 20
-14.71567
 30
0.0
 10
-0.24427
 20
-14.70805
 30
0.0
 10
-0.24427
 20
-14.69874
 30
0.0
 10
-0.24427
 20
-14.69874
 30
0.0
 10
-0.24427
 20
-14.69874
 30
0.0
 10
-0.24427
 20
-14.4803
 30
0.0
 10
-0.24427
 20
-14.4803
 30
0.0
 10
-0.24427
 20
-14.4803
 30
0.0
 10
-0.20702
 20
-14.52686
 30
0.0
 10
-0.15791
 20
-14.5548
 30
0.0
 10
-0.0978
 20
-14.5548
 30
0.0
 10
-0.0978
 20
-14.5548
 30
0.0
 10
0.03005
 20
-14.5548
 30
0.0
 10
0.08
 20
-14.43119
 30
0.0
 10
0.08
 20
-14.30165
 30
0.0
 10
0.08
 20
-14.30165
 30
0.0
 10
0.08
 20
-14.15264
 30
0.0
 10
0.01819
 20
-14.05103
 30
0.0
 10
-0.09695
 20
-14.05103
 30
0.0
 10
-0.09695
 20
-14.05103
 30
0.0
 10
-0.15114
 20
-14.05103
 30
0.0
 10
-0.20109
 20
-14.07389
 30
0.0
 10
-0.24427
 20
-14.12639
 30
0.0
 10
-0.24427
 20
-14.12639
 30
0.0
 10
-0.24427
 20
-14.12639
 30
0.0
 10
-0.24427
 20
-14.06797
 30
0.0
 10
-0.24427
 20
-14.06797
 30
0.0
 10
-0.24427
 20
-14.06797
 30
0.0
 10
-0.24427
 20
-14.05865
 30
0.0
 10
-0.25189
 20
-14.05103
 30
0.0
 10
-0.26121
 20
-14.05103
 30
0.0
 10
-0.26121
 20
-14.05103
 30
0.0
 10
-0.27052
 20
-14.05103
 30
0.0
 10
-0.27814
 20
-14.05865
 30
0.0
 10
-0.27814
 20
-14.06797
 30
0.0
 10
-0.27814
 20
-14.06797
 30
0.0
 10
-0.27814
 20
-14.06797
 30
0.0
 10
-0.27814
 20
-14.69874
 30
0.0
 10
-0.27814
 20
-14.69874
 30
0.0
 10
-0.27814
 20
-14.69874
 30
0.0
 10
-0.27814
 20
-14.70805
 30
0.0
 10
-0.27052
 20
-14.71567
 30
0.0
 10
-0.26121
 20
-14.71567
 30
0.0
  0
SPLINE
  5
4F
330
1F
100
AcDbEntity
  8
Layer 1
 62
     5
370
     9
100
AcDbSpline
210
0.0
220
0.0
230
1.0
 70
    11
 71
     3
 72
    24
 73
    20
 74
     0
 42
0.0000000001
 43
0.0000000001
 12
1.0
 22
0.0
 32
0.0
 13
1.0
 23
0.0
 33
0.0
 40
0.0
 40
0.0
 40
0.0
 40
0.0
 40
0.1666666666666667
 40
0.1666666666666667
 40
0.1666666666666667
 40
0.1666666666666667
 40
0.3333333333333333
 40
0.3333333333333333
 40
0.3333333333333333
 40
0.3333333333333333
 40
0.5
 40
0.5
 40
0.5
 40
0.5
 40
0.6666666666666666
 40
0.6666666666666666
 40
0.6666666666666666
 40
0.6666666666666666
 40
1.0
 40
1.0
 40
1.0
 40
1.0
 10
-0.0978
 20
-14.52094
 30
0.0
 10
-0.16299
 20
-14.52094
 30
0.0
 10
-0.20956
 20
-14.48453
 30
0.0
 10
-0.24427
 20
-14.41764
 30
0.0
 10
-0.24427
 20
-14.41764
 30
0.0
 10
-0.24427
 20
-14.41764
 30
0.0
 10
-0.24427
 20
-14.18566
 30
0.0
 10
-0.24427
 20
-14.18566
 30
0.0
 10
-0.24427
 20
-14.18566
 30
0.0
 10
-0.20109
 20
-14.11115
 30
0.0
 10
-0.15283
 20
-14.0849
 30
0.0
 10
-0.09695
 20
-14.0849
 30
0.0
 10
-0.09695
 20
-14.0849
 30
0.0
 10
-0.00297
 20
-14.0849
 30
0.0
 10
0.04614
 20
-14.16449
 30
0.0
 10
0.04614
 20
-14.30165
 30
0.0
 10
0.04614
 20
-14.30165
 30
0.0
 10
0.04614
 20
-14.42272
 30
0.0
 10
0.00634
 20
-14.52094
 30
0.0
 10
-0.0978
 20
-14.52094
 30
0.0
  0
SPLINE
  5
50
330
1F
100
AcDbEntity
  8
Layer 1
 62
     5
370
     9
100
AcDbSpline
210
0.0
220
0.0
230
1.0
 70
    11
 71
     3
 72
    48
 73
    44
 74
     0
 42
0.0000000001
 43
0.0000000001
 12
1.0
 22
0.0
 32
0.0
 13
1.0
 23
0.0
 33
0.0
 40
0.0
 40
0.0
 40
0.0
 40
0.0
 40
0.0833333333333333
 40
0.0833333333333333
 40
0.0833333333333333
 40
0.0833333333333333
 40
0.1666666666666667
 40
0.1666666666666667
 40
0.1666666666666667
 40
0.1666666666666667
 40
0.25
 40
0.25
 40
0.25
 40
0.25
 40
0.3333333333333333
 40
0.3333333333333333
 40
0.3333333333333333
 40
0.3333333333333333
 40
0.4166666666666667
 40
0.4166666666666667
 40
0.4166666666666667
 40
0.4166666666666667
 40
0.5
 40
0.5
 40
0.5
 40
0.5
 40
0.5833333333333334
 40
0.5833333333333334
 40
0.5833333333333334
 40
0.5833333333333334
 40
0.6666666666666666
 40
0.6666666666666666
 40
0.6666666666666666
 40
0.6666666666666666
 40
0.75
 40
0.75
 40
0.75
 40
0.75
 40
0.8333333333333334
 40
0.8333333333333334
 40
0.8333333333333334
 40
0.8333333333333334
 40
1.0
 40
1.0
 40
1.0
 40
1.0
 10
0.32638
 20
-14.5548
 30
0.0
 10
0.33908
 20
-14.5548
 30
0.0
 10
0.35009
 20
-14.55311
 30
0.0
 10
0.35686
 20
-14.55057
 30
0.0
 10
0.35686
 20
-14.55057
 30
0.0
 10
0.36448
 20
-14.54888
 30
0.0
 10
0.36956
 20
-14.5421
 30
0.0
 10
0.36956
 20
-14.53448
 30
0.0
 10
0.36956
 20
-14.53448
 30
0.0
 10
0.36956
 20
-14.52517
 30
0.0
 10
0.36194
 20
-14.51755
 30
0.0
 10
0.35263
 20
-14.51755
 30
0.0
 10
0.35263
 20
-14.51755
 30
0.0
 10
0.35094
 20
-14.51755
 30
0.0
 10
0.34924
 20
-14.51755
 30
0.0
 10
0.34755
 20
-14.5184
 30
0.0
 10
0.34755
 20
-14.5184
 30
0.0
 10
0.34247
 20
-14.51924
 30
0.0
 10
0.3357
 20
-14.52094
 30
0.0
 10
0.32638
 20
-14.52094
 30
0.0
 10
0.32638
 20
-14.52094
 30
0.0
 10
0.28659
 20
-14.52094
 30
0.0
 10
0.2705
 20
-14.50231
 30
0.0
 10
0.2705
 20
-14.44728
 30
0.0
 10
0.2705
 20
-14.44728
 30
0.0
 10
0.2705
 20
-14.44728
 30
0.0
 10
0.2705
 20
-13.9071
 30
0.0
 10
0.2705
 20
-13.9071
 30
0.0
 10
0.2705
 20
-13.9071
 30
0.0
 10
0.2705
 20
-13.89779
 30
0.0
 10
0.26288
 20
-13.89017
 30
0.0
 10
0.25357
 20
-13.89017
 30
0.0
 10
0.25357
 20
-13.89017
 30
0.0
 10
0.24426
 20
-13.89017
 30
0.0
 10
0.23664
 20
-13.89779
 30
0.0
 10
0.23664
 20
-13.9071
 30
0.0
 10
0.23664
 20
-13.9071
 30
0.0
 10
0.23664
 20
-13.9071
 30
0.0
 10
0.23664
 20
-14.44728
 30
0.0
 10
0.23664
 20
-14.44728
 30
0.0
 10
0.23664
 20
-14.44728
 30
0.0
 10
0.23664
 20
-14.5167
 30
0.0
 10
0.26796
 20
-14.5548
 30
0.0
 10
0.32638
 20
-14.5548
 30
0.0
  0
SPLINE
  5
51
330
1F
100
AcDbEntity
  8
Layer 1
 62
     5
370
     9
100
AcDbSpline
210
0.0
220
0.0
230
1.0
 70
    11
 71
     3
 72
    28
 73
    24
 74
     0
 42
0.0000000001
 43
0.0000000001
 12
1.0
 22
0.0
 32
0.0
 13
1.0
 23
0.0
 33
0.0
 40
0.0
 40
0.0
 40
0.0
 40
0.0
 40
0.1428571428571428
 40
0.1428571428571428
 40
0.1428571428571428
 40
0.1428571428571428
 40
0.2857142857142857
 40
0.2857142857142857
 40
0.2857142857142857
 40
0.2857142857142857
 40
0.4285714285714285
 40
0.4285714285714285
 40
0.4285714285714285
 40
0.4285714285714285
 40
0.5714285714285714
 40
0.5714285714285714
 40
0.5714285714285714
 40
0.5714285714285714
 40
0.7142857142857143
 40
0.7142857142857143
 40
0.7142857142857143
 40
0.7142857142857143
 40
1.0
 40
1.0
 40
1.0
 40
1.0
 10
0.40767
 20
-14.68604
 30
0.0
 10
0.40767
 20
-14.68604
 30
0.0
 10
0.73787
 20
-14.68604
 30
0.0
 10
0.73787
 20
-14.68604
 30
0.0
 10
0.73787
 20
-14.68604
 30
0.0
 10
0.74718
 20
-14.68604
 30
0.0
 10
0.7548
 20
-14.67842
 30
0.0
 10
0.7548
 20
-14.6691
 30
0.0
 10
0.7548
 20
-14.6691
 30
0.0
 10
0.7548
 20
-14.65979
 30
0.0
 10
0.74718
 20
-14.65217
 30
0.0
 10
0.73787
 20
-14.65217
 30
0.0
 10
0.73787
 20
-14.65217
 30
0.0
 10
0.73787
 20
-14.65217
 30
0.0
 10
0.40767
 20
-14.65217
 30
0.0
 10
0.40767
 20
-14.65217
 30
0.0
 10
0.40767
 20
-14.65217
 30
0.0
 10
0.39835
 20
-14.65217
 30
0.0
 10
0.39073
 20
-14.65979
 30
0.0
 10
0.39073
 20
-14.6691
 30
0.0
 10
0.39073
 20
-14.6691
 30
0.0
 10
0.39073
 20
-14.67842
 30
0.0
 10
0.39835
 20
-14.68604
 30
0.0
 10
0.40767
 20
-14.68604
 30
0.0
  0
SPLINE
  5
52
330
1F
100
AcDbEntity
  8
Layer 1
 62
     5
370
     9
100
AcDbSpline
210
0.0
220
0.0
230
1.0
 70
    11
 71
     3
 72
    28
 73
    24
 74
     0
 42
0.0000000001
 43
0.0000000001
 12
1.0
 22
0.0
 32
0.0
 13
1.0
 23
0.0
 33
0.0
 40
0.0
 40
0.0
 40
0.0
 40
0.0
 40
0.1428571428571428
 40
0.1428571428571428
 40
0.1428571428571428
 40
0.1428571428571428
 40
0.2857142857142857
 40
0.2857142857142857
 40
0.2857142857142857
 40
0.2857142857142857
 40
0.4285714285714285
 40
0.4285714285714285
 40
0.4285714285714285
 40
0.4285714285714285
 40
0.5714285714285714
 40
0.5714285714285714
 40
0.5714285714285714
 40
0.5714285714285714
 40
0.7142857142857143
 40
0.7142857142857143
 40
0.7142857142857143
 40
0.7142857142857143
 40
1.0
 40
1.0
 40
1.0
 40
1.0
 10
1.00964
 20
-14.5548
 30
0.0
 10
1.1485
 20
-14.5548
 30
0.0
 10
1.21369
 20
-14.42103
 30
0.0
 10
1.21369
 20
-14.25254
 30
0.0
 10
1.21369
 20
-14.25254
 30
0.0
 10
1.21369
 20
-14.08575
 30
0.0
 10
1.1485
 20
-13.9452
 30
0.0
 10
1.01049
 20
-13.9452
 30
0.0
 10
1.01049
 20
-13.9452
 30
0.0
 10
1.01049
 20
-13.9452
 30
0.0
 10
1.00964
 20
-13.9452
 30
0.0
 10
1.00964
 20
-13.9452
 30
0.0
 10
1.00964
 20
-13.9452
 30
0.0
 10
1.00964
 20
-13.9452
 30
0.0
 10
1.0088
 20
-13.9452
 30
0.0
 10
1.0088
 20
-13.9452
 30
0.0
 10
1.0088
 20
-13.9452
 30
0.0
 10
0.87079
 20
-13.9452
 30
0.0
 10
0.8056
 20
-14.08575
 30
0.0
 10
0.8056
 20
-14.25254
 30
0.0
 10
0.8056
 20
-14.25254
 30
0.0
 10
0.8056
 20
-14.42103
 30
0.0
 10
0.87079
 20
-14.5548
 30
0.0
 10
1.00964
 20
-14.5548
 30
0.0
  0
SPLINE
  5
53
330
1F
100
AcDbEntity
  8
Layer 1
 62
     5
370
     9
100
AcDbSpline
210
0.0
220
0.0
230
1.0
 70
    11
 71
     3
 72
    28
 73
    24
 74
     0
 42
0.0000000001
 43
0.0000000001
 12
1.0
 22
0.0
 32
0.0
 13
1.0
 23
0.0
 33
0.0
 40
0.0
 40
0.0
 40
0.0
 40
0.0
 40
0.1428571428571428
 40
0.1428571428571428
 40
0.1428571428571428
 40
0.1428571428571428
 40
0.2857142857142857
 40
0.2857142857142857
 40
0.2857142857142857
 40
0.2857142857142857
 40
0.4285714285714285
 40
0.4285714285714285
 40
0.4285714285714285
 40
0.4285714285714285
 40
0.5714285714285714
 40
0.5714285714285714
 40
0.5714285714285714
 40
0.5714285714285714
 40
0.7142857142857143
 40
0.7142857142857143
 40
0.7142857142857143
 40
0.7142857142857143
 40
1.0
 40
1.0
 40
1.0
 40
1.0
 10
1.00964
 20
-14.52094
 30
0.0
 10
0.89365
 20
-14.52094
 30
0.0
 10
0.83946
 20
-14.41087
 30
0.0
 10
0.83946
 20
-14.25254
 30
0.0
 10
0.83946
 20
-14.25254
 30
0.0
 10
0.83946
 20
-14.09591
 30
0.0
 10
0.8945
 20
-13.97907
 30
0.0
 10
1.0088
 20
-13.97907
 30
0.0
 10
1.0088
 20
-13.97907
 30
0.0
 10
1.0088
 20
-13.97907
 30
0.0
 10
1.00964
 20
-13.97907
 30
0.0
 10
1.00964
 20
-13.97907
 30
0.0
 10
1.00964
 20
-13.97907
 30
0.0
 10
1.00964
 20
-13.97907
 30
0.0
 10
1.01049
 20
-13.97907
 30
0.0
 10
1.01049
 20
-13.97907
 30
0.0
 10
1.01049
 20
-13.97907
 30
0.0
 10
1.12479
 20
-13.97907
 30
0.0
 10
1.17983
 20
-14.09591
 30
0.0
 10
1.17983
 20
-14.25254
 30
0.0
 10
1.17983
 20
-14.25254
 30
0.0
 10
1.17983
 20
-14.41087
 30
0.0
 10
1.12564
 20
-14.52094
 30
0.0
 10
1.00964
 20
-14.52094
 30
0.0
  0
SPLINE
  5
54
330
1F
100
AcDbEntity
  8
Layer 1
 62
     5
370
     9
100
AcDbSpline
210
0.0
220
0.0
230
1.0
 70
    11
 71
     3
 72
    48
 73
    44
 74
     0
 42
0.0000000001
 43
0.0000000001
 12
1.0
 22
0.0
 32
0.0
 13
1.0
 23
0.0
 33
0.0
 40
0.0
 40
0.0
 40
0.0
 40
0.0
 40
0.0833333333333333
 40
0.0833333333333333
 40
0.0833333333333333
 40
0.0833333333333333
 40
0.1666666666666667
 40
0.1666666666666667
 40
0.1666666666666667
 40
0.1666666666666667
 40
0.25
 40
0.25
 40
0.25
 40
0.25
 40
0.3333333333333333
 40
0.3333333333333333
 40
0.3333333333333333
 40
0.3333333333333333
 40
0.4166666666666667
 40
0.4166666666666667
 40
0.4166666666666667
 40
0.4166666666666667
 40
0.5
 40
0.5
 40
0.5
 40
0.5
 40
0.5833333333333334
 40
0.5833333333333334
 40
0.5833333333333334
 40
0.5833333333333334
 40
0.6666666666666666
 40
0.6666666666666666
 40
0.6666666666666666
 40
0.6666666666666666
 40
0.75
 40
0.75
 40
0.75
 40
0.75
 40
0.8333333333333334
 40
0.8333333333333334
 40
0.8333333333333334
 40
0.8333333333333334
 40
1.0
 40
1.0
 40
1.0
 40
1.0
 10
1.49987
 20
-14.5548
 30
0.0
 10
1.50918
 20
-14.5548
 30
0.0
 10
1.5168
 20
-14.54718
 30
0.0
 10
1.5168
 20
-14.53787
 30
0.0
 10
1.5168
 20
-14.53787
 30
0.0
 10
1.5168
 20
-14.53787
 30
0.0
 10
1.5168
 20
-13.9706
 30
0.0
 10
1.5168
 20
-13.9706
 30
0.0
 10
1.5168
 20
-13.9706
 30
0.0
 10
1.5168
 20
-13.95959
 30
0.0
 10
1.51172
 20
-13.95367
 30
0.0
 10
1.50241
 20
-13.95367
 30
0.0
 10
1.50241
 20
-13.95367
 30
0.0
 10
1.49479
 20
-13.95367
 30
0.0
 10
1.48802
 20
-13.95536
 30
0.0
 10
1.48124
 20
-13.96044
 30
0.0
 10
1.48124
 20
-13.96044
 30
0.0
 10
1.48124
 20
-13.96044
 30
0.0
 10
1.30514
 20
-14.0849
 30
0.0
 10
1.30514
 20
-14.0849
 30
0.0
 10
1.30514
 20
-14.0849
 30
0.0
 10
1.3009
 20
-14.08744
 30
0.0
 10
1.29836
 20
-14.09252
 30
0.0
 10
1.29836
 20
-14.09845
 30
0.0
 10
1.29836
 20
-14.09845
 30
0.0
 10
1.29836
 20
-14.10776
 30
0.0
 10
1.30598
 20
-14.11538
 30
0.0
 10
1.3153
 20
-14.11538
 30
0.0
 10
1.3153
 20
-14.11538
 30
0.0
 10
1.31868
 20
-14.11538
 30
0.0
 10
1.32207
 20
-14.11453
 30
0.0
 10
1.32546
 20
-14.11199
 30
0.0
 10
1.32546
 20
-14.11199
 30
0.0
 10
1.32546
 20
-14.11199
 30
0.0
 10
1.48294
 20
-14.00108
 30
0.0
 10
1.48294
 20
-14.00108
 30
0.0
 10
1.48294
 20
-14.00108
 30
0.0
 10
1.48294
 20
-14.00108
 30
0.0
 10
1.48294
 20
-14.53787
 30
0.0
 10
1.48294
 20
-14.53787
 30
0.0
 10
1.48294
 20
-14.53787
 30
0.0
 10
1.48294
 20
-14.54718
 30
0.0
 10
1.49056
 20
-14.5548
 30
0.0
 10
1.49987
 20
-14.5548
 30
0.0
  0
SPLINE
  5
55
330
1F
100
AcDbEntity
  8
Layer 1
 62
     5
370
     9
100
AcDbSpline
210
0.0
220
0.0
230
1.0
 70
    11
 71
     3
 72
    28
 73
    24
 74
     0
 42
0.0000000001
 43
0.0000000001
 12
1.0
 22
0.0
 32
0.0
 13
1.0
 23
0.0
 33
0.0
 40
0.0
 40
0.0
 40
0.0
 40
0.0
 40
0.1428571428571428
 40
0.1428571428571428
 40
0.1428571428571428
 40
0.1428571428571428
 40
0.2857142857142857
 40
0.2857142857142857
 40
0.2857142857142857
 40
0.2857142857142857
 40
0.4285714285714285
 40
0.4285714285714285
 40
0.4285714285714285
 40
0.4285714285714285
 40
0.5714285714285714
 40
0.5714285714285714
 40
0.5714285714285714
 40
0.5714285714285714
 40
0.7142857142857143
 40
0.7142857142857143
 40
0.7142857142857143
 40
0.7142857142857143
 40
1.0
 40
1.0
 40
1.0
 40
1.0
 10
1.64381
 20
-14.68604
 30
0.0
 10
1.64381
 20
-14.68604
 30
0.0
 10
1.97401
 20
-14.68604
 30
0.0
 10
1.97401
 20
-14.68604
 30
0.0
 10
1.97401
 20
-14.68604
 30
0.0
 10
1.98332
 20
-14.68604
 30
0.0
 10
1.99094
 20
-14.67842
 30
0.0
 10
1.99094
 20
-14.6691
 30
0.0
 10
1.99094
 20
-14.6691
 30
0.0
 10
1.99094
 20
-14.65979
 30
0.0
 10
1.98332
 20
-14.65217
 30
0.0
 10
1.97401
 20
-14.65217
 30
0.0
 10
1.97401
 20
-14.65217
 30
0.0
 10
1.97401
 20
-14.65217
 30
0.0
 10
1.64381
 20
-14.65217
 30
0.0
 10
1.64381
 20
-14.65217
 30
0.0
 10
1.64381
 20
-14.65217
 30
0.0
 10
1.63449
 20
-14.65217
 30
0.0
 10
1.62687
 20
-14.65979
 30
0.0
 10
1.62687
 20
-14.6691
 30
0.0
 10
1.62687
 20
-14.6691
 30
0.0
 10
1.62687
 20
-14.67842
 30
0.0
 10
1.63449
 20
-14.68604
 30
0.0
 10
1.64381
 20
-14.68604
 30
0.0
  0
SPLINE
  5
56
330
1F
100
AcDbEntity
  8
Layer 1
 62
     5
370
     9
100
AcDbSpline
210
0.0
220
0.0
230
1.0
 70
    11
 71
     3
 72
    80
 73
    76
 74
     0
 42
0.0000000001
 43
0.0000000001
 12
1.0
 22
0.0
 32
0.0
 13
1.0
 23
0.0
 33
0.0
 40
0.0
 40
0.0
 40
0.0
 40
0.0
 40
0.05
 40
0.05
 40
0.05
 40
0.05
 40
0.1
 40
0.1
 40
0.1
 40
0.1
 40
0.15
 40
0.15
 40
0.15
 40
0.15
 40
0.2
 40
0.2
 40
0.2
 40
0.2
 40
0.25
 40
0.25
 40
0.25
 40
0.25
 40
0.3
 40
0.3
 40
0.3
 40
0.3
 40
0.35
 40
0.35
 40
0.35
 40
0.35
 40
0.4
 40
0.4
 40
0.4
 40
0.4
 40
0.45
 40
0.45
 40
0.45
 40
0.45
 40
0.5
 40
0.5
 40
0.5
 40
0.5
 40
0.55
 40
0.55
 40
0.55
 40
0.55
 40
0.6
 40
0.6
 40
0.6
 40
0.6
 40
0.65
 40
0.65
 40
0.65
 40
0.65
 40
0.7
 40
0.7
 40
0.7
 40
0.7
 40
0.75
 40
0.75
 40
0.75
 40
0.75
 40
0.8
 40
0.8
 40
0.8
 40
0.8
 40
0.85
 40
0.85
 40
0.85
 40
0.85
 40
0.9
 40
0.9
 40
0.9
 40
0.9
 40
1.0
 40
1.0
 40
1.0
 40
1.0
 10
2.17636
 20
-14.5548
 30
0.0
 10
2.2407
 20
-14.5548
 30
0.0
 10
2.2932
 20
-14.52094
 30
0.0
 10
2.33638
 20
-14.47352
 30
0.0
 10
2.33638
 20
-14.47352
 30
0.0
 10
2.33638
 20
-14.49723
 30
0.0
 10
2.33722
 20
-14.52094
 30
0.0
 10
2.33892
 20
-14.53872
 30
0.0
 10
2.33892
 20
-14.53872
 30
0.0
 10
2.33976
 20
-14.54803
 30
0.0
 10
2.34654
 20
-14.5548
 30
0.0
 10
2.35585
 20
-14.5548
 30
0.0
 10
2.35585
 20
-14.5548
 30
0.0
 10
2.36516
 20
-14.5548
 30
0.0
 10
2.37278
 20
-14.54718
 30
0.0
 10
2.37278
 20
-14.53787
 30
0.0
 10
2.37278
 20
-14.53787
 30
0.0
 10
2.37278
 20
-14.53787
 30
0.0
 10
2.37278
 20
-14.53702
 30
0.0
 10
2.37278
 20
-14.53618
 30
0.0
 10
2.37278
 20
-14.53618
 30
0.0
 10
2.37278
 20
-14.53618
 30
0.0
 10
2.37278
 20
-14.53618
 30
0.0
 10
2.37278
 20
-14.53618
 30
0.0
 10
2.37278
 20
-14.53618
 30
0.0
 10
2.37024
 20
-14.5057
 30
0.0
 10
2.3694
 20
-14.45574
 30
0.0
 10
2.3694
 20
-14.42103
 30
0.0
 10
2.3694
 20
-14.42103
 30
0.0
 10
2.3694
 20
-14.42103
 30
0.0
 10
2.3694
 20
-14.21783
 30
0.0
 10
2.3694
 20
-14.21783
 30
0.0
 10
2.3694
 20
-14.21783
 30
0.0
 10
2.3694
 20
-14.12978
 30
0.0
 10
2.33214
 20
-14.05103
 30
0.0
 10
2.22123
 20
-14.05103
 30
0.0
 10
2.22123
 20
-14.05103
 30
0.0
 10
2.14164
 20
-14.05103
 30
0.0
 10
2.09423
 20
-14.08829
 30
0.0
 10
2.06375
 20
-14.15856
 30
0.0
 10
2.06375
 20
-14.15856
 30
0.0
 10
2.0629
 20
-14.16026
 30
0.0
 10
2.06206
 20
-14.1628
 30
0.0
 10
2.06206
 20
-14.16534
 30
0.0
 10
2.06206
 20
-14.16534
 30
0.0
 10
2.06206
 20
-14.17465
 30
0.0
 10
2.06968
 20
-14.18227
 30
0.0
 10
2.07899
 20
-14.18227
 30
0.0
 10
2.07899
 20
-14.18227
 30
0.0
 10
2.08576
 20
-14.18227
 30
0.0
 10
2.09254
 20
-14.17804
 30
0.0
 10
2.09423
 20
-14.17211
 30
0.0
 10
2.09423
 20
-14.17211
 30
0.0
 10
2.12132
 20
-14.11115
 30
0.0
 10
2.15519
 20
-14.0849
 30
0.0
 10
2.22123
 20
-14.0849
 30
0.0
 10
2.22123
 20
-14.0849
 30
0.0
 10
2.30928
 20
-14.0849
 30
0.0
 10
2.33553
 20
-14.13994
 30
0.0
 10
2.33553
 20
-14.21783
 30
0.0
 10
2.33553
 20
-14.21783
 30
0.0
 10
2.33553
 20
-14.21783
 30
0.0
 10
2.33553
 20
-14.26016
 30
0.0
 10
2.33553
 20
-14.26016
 30
0.0
 10
2.33553
 20
-14.26016
 30
0.0
 10
2.33553
 20
-14.26016
 30
0.0
 10
2.30082
 20
-14.26016
 30
0.0
 10
2.30082
 20
-14.26016
 30
0.0
 10
2.30082
 20
-14.26016
 30
0.0
 10
2.12302
 20
-14.26016
 30
0.0
 10
2.04174
 20
-14.31012
 30
0.0
 10
2.04174
 20
-14.41849
 30
0.0
 10
2.04174
 20
-14.41849
 30
0.0
 10
2.04174
 20
-14.48707
 30
0.0
 10
2.08492
 20
-14.5548
 30
0.0
 10
2.17636
 20
-14.5548
 30
0.0
  0
SPLINE
  5
57
330
1F
100
AcDbEntity
  8
Layer 1
 62
     5
370
     9
100
AcDbSpline
210
0.0
220
0.0
230
1.0
 70
    11
 71
     3
 72
    24
 73
    20
 74
     0
 42
0.0000000001
 43
0.0000000001
 12
1.0
 22
0.0
 32
0.0
 13
1.0
 23
0.0
 33
0.0
 40
0.0
 40
0.0
 40
0.0
 40
0.0
 40
0.1666666666666667
 40
0.1666666666666667
 40
0.1666666666666667
 40
0.1666666666666667
 40
0.3333333333333333
 40
0.3333333333333333
 40
0.3333333333333333
 40
0.3333333333333333
 40
0.5
 40
0.5
 40
0.5
 40
0.5
 40
0.6666666666666666
 40
0.6666666666666666
 40
0.6666666666666666
 40
0.6666666666666666
 40
1.0
 40
1.0
 40
1.0
 40
1.0
 10
2.17636
 20
-14.52094
 30
0.0
 10
2.10524
 20
-14.52094
 30
0.0
 10
2.0756
 20
-14.47522
 30
0.0
 10
2.0756
 20
-14.41849
 30
0.0
 10
2.0756
 20
-14.41849
 30
0.0
 10
2.0756
 20
-14.33128
 30
0.0
 10
2.13487
 20
-14.29403
 30
0.0
 10
2.30082
 20
-14.29403
 30
0.0
 10
2.30082
 20
-14.29403
 30
0.0
 10
2.30082
 20
-14.29403
 30
0.0
 10
2.33553
 20
-14.29403
 30
0.0
 10
2.33553
 20
-14.29403
 30
0.0
 10
2.33553
 20
-14.29403
 30
0.0
 10
2.33553
 20
-14.29403
 30
0.0
 10
2.33553
 20
-14.42188
 30
0.0
 10
2.33553
 20
-14.42188
 30
0.0
 10
2.33553
 20
-14.42188
 30
0.0
 10
2.29066
 20
-14.4803
 30
0.0
 10
2.24155
 20
-14.52094
 30
0.0
 10
2.17636
 20
-14.52094
 30
0.0
  0
SPLINE
  5
58
330
1F
100
AcDbEntity
  8
Layer 1
 62
     5
370
     9
100
AcDbSpline
210
0.0
220
0.0
230
1.0
 70
    11
 71
     3
 72
    72
 73
    68
 74
     0
 42
0.0000000001
 43
0.0000000001
 12
1.0
 22
0.0
 32
0.0
 13
1.0
 23
0.0
 33
0.0
 40
0.0
 40
0.0
 40
0.0
 40
0.0
 40
0.0555555555555556
 40
0.0555555555555556
 40
0.0555555555555556
 40
0.0555555555555556
 40
0.1111111111111111
 40
0.1111111111111111
 40
0.1111111111111111
 40
0.1111111111111111
 40
0.1666666666666667
 40
0.1666666666666667
 40
0.1666666666666667
 40
0.1666666666666667
 40
0.2222222222222222
 40
0.2222222222222222
 40
0.2222222222222222
 40
0.2222222222222222
 40
0.2777777777777778
 40
0.2777777777777778
 40
0.2777777777777778
 40
0.2777777777777778
 40
0.3333333333333333
 40
0.3333333333333333
 40
0.3333333333333333
 40
0.3333333333333333
 40
0.3888888888888889
 40
0.3888888888888889
 40
0.3888888888888889
 40
0.3888888888888889
 40
0.4444444444444444
 40
0.4444444444444444
 40
0.4444444444444444
 40
0.4444444444444444
 40
0.5
 40
0.5
 40
0.5
 40
0.5
 40
0.5555555555555556
 40
0.5555555555555556
 40
0.5555555555555556
 40
0.5555555555555556
 40
0.6111111111111112
 40
0.6111111111111112
 40
0.6111111111111112
 40
0.6111111111111112
 40
0.6666666666666666
 40
0.6666666666666666
 40
0.6666666666666666
 40
0.6666666666666666
 40
0.7222222222222222
 40
0.7222222222222222
 40
0.7222222222222222
 40
0.7222222222222222
 40
0.7777777777777778
 40
0.7777777777777778
 40
0.7777777777777778
 40
0.7777777777777778
 40
0.8333333333333334
 40
0.8333333333333334
 40
0.8333333333333334
 40
0.8333333333333334
 40
0.8888888888888888
 40
0.8888888888888888
 40
0.8888888888888888
 40
0.8888888888888888
 40
1.0
 40
1.0
 40
1.0
 40
1.0
 10
2.78342
 20
-14.5548
 30
0.0
 10
2.79273
 20
-14.5548
 30
0.0
 10
2.80035
 20
-14.54718
 30
0.0
 10
2.80035
 20
-14.53787
 30
0.0
 10
2.80035
 20
-14.53787
 30
0.0
 10
2.80035
 20
-14.53787
 30
0.0
 10
2.80035
 20
-14.41934
 30
0.0
 10
2.80035
 20
-14.41934
 30
0.0
 10
2.80035
 20
-14.41934
 30
0.0
 10
2.80035
 20
-14.41934
 30
0.0
 10
2.88841
 20
-14.41934
 30
0.0
 10
2.88841
 20
-14.41934
 30
0.0
 10
2.88841
 20
-14.41934
 30
0.0
 10
2.89772
 20
-14.41934
 30
0.0
 10
2.90534
 20
-14.41172
 30
0.0
 10
2.90534
 20
-14.4024
 30
0.0
 10
2.90534
 20
-14.4024
 30
0.0
 10
2.90534
 20
-14.39309
 30
0.0
 10
2.89772
 20
-14.38547
 30
0.0
 10
2.88841
 20
-14.38547
 30
0.0
 10
2.88841
 20
-14.38547
 30
0.0
 10
2.88841
 20
-14.38547
 30
0.0
 10
2.80035
 20
-14.38547
 30
0.0
 10
2.80035
 20
-14.38547
 30
0.0
 10
2.80035
 20
-14.38547
 30
0.0
 10
2.80035
 20
-14.38547
 30
0.0
 10
2.80035
 20
-13.9706
 30
0.0
 10
2.80035
 20
-13.9706
 30
0.0
 10
2.80035
 20
-13.9706
 30
0.0
 10
2.80035
 20
-13.95959
 30
0.0
 10
2.79442
 20
-13.95367
 30
0.0
 10
2.78342
 20
-13.95367
 30
0.0
 10
2.78342
 20
-13.95367
 30
0.0
 10
2.78342
 20
-13.95367
 30
0.0
 10
2.77834
 20
-13.95367
 30
0.0
 10
2.77834
 20
-13.95367
 30
0.0
 10
2.77834
 20
-13.95367
 30
0.0
 10
2.76902
 20
-13.95367
 30
0.0
 10
2.7631
 20
-13.95705
 30
0.0
 10
2.75802
 20
-13.96552
 30
0.0
 10
2.75802
 20
-13.96552
 30
0.0
 10
2.75802
 20
-13.96552
 30
0.0
 10
2.50148
 20
-14.38462
 30
0.0
 10
2.50148
 20
-14.38462
 30
0.0
 10
2.50148
 20
-14.38462
 30
0.0
 10
2.49724
 20
-14.3914
 30
0.0
 10
2.49555
 20
-14.39732
 30
0.0
 10
2.49555
 20
-14.40579
 30
0.0
 10
2.49555
 20
-14.40579
 30
0.0
 10
2.49555
 20
-14.40579
 30
0.0
 10
2.49555
 20
-14.40664
 30
0.0
 10
2.49555
 20
-14.40664
 30
0.0
 10
2.49555
 20
-14.40664
 30
0.0
 10
2.49555
 20
-14.4151
 30
0.0
 10
2.50148
 20
-14.41934
 30
0.0
 10
2.51248
 20
-14.41934
 30
0.0
 10
2.51248
 20
-14.41934
 30
0.0
 10
2.51248
 20
-14.41934
 30
0.0
 10
2.76648
 20
-14.41934
 30
0.0
 10
2.76648
 20
-14.41934
 30
0.0
 10
2.76648
 20
-14.41934
 30
0.0
 10
2.76648
 20
-14.41934
 30
0.0
 10
2.76648
 20
-14.53787
 30
0.0
 10
2.76648
 20
-14.53787
 30
0.0
 10
2.76648
 20
-14.53787
 30
0.0
 10
2.76648
 20
-14.54718
 30
0.0
 10
2.7741
 20
-14.5548
 30
0.0
 10
2.78342
 20
-14.5548
 30
0.0
  0
SPLINE
  5
59
330
1F
100
AcDbEntity
  8
Layer 1
 62
     5
370
     9
100
AcDbSpline
210
0.0
220
0.0
230
1.0
 70
    11
 71
     3
 72
    16
 73
    12
 74
     0
 42
0.0000000001
 43
0.0000000001
 12
1.0
 22
0.0
 32
0.0
 13
1.0
 23
0.0
 33
0.0
 40
0.0
 40
0.0
 40
0.0
 40
0.0
 40
0.25
 40
0.25
 40
0.25
 40
0.25
 40
0.5
 40
0.5
 40
0.5
 40
0.5
 40
1.0
 40
1.0
 40
1.0
 40
1.0
 10
2.54042
 20
-14.38547
 30
0.0
 10
2.54042
 20
-14.38547
 30
0.0
 10
2.76648
 20
-14.01717
 30
0.0
 10
2.76648
 20
-14.01717
 30
0.0
 10
2.76648
 20
-14.01717
 30
0.0
 10
2.76648
 20
-14.01717
 30
0.0
 10
2.76648
 20
-14.38547
 30
0.0
 10
2.76648
 20
-14.38547
 30
0.0
 10
2.76648
 20
-14.38547
 30
0.0
 10
2.76648
 20
-14.38547
 30
0.0
 10
2.54042
 20
-14.38547
 30
0.0
 10
2.54042
 20
-14.38547
 30
0.0
  0
ELLIPSE
  5
5A
330
1F
100
AcDbEntity
  8
Layer 1
 62
     3
370
    20
100
AcDbEllipse
 10
-7.15
 20
13.9
 30
0.0
 11
0.0
 21
0.7
 31
0.0
210
0.0
220
0.0
230
1.0
 40
1.0
 41
0.0
 42
6.283185307179586
  0
ELLIPSE
  5
5B
330
1F
100
AcDbEntity
  8
Layer 1
370
    20
100
AcDbEllipse
 10
-7.15
 20
13.9
 30
0.0
 11
0.0
 21
0.3
 31
0.0
210
0.0
220
0.0
230
1.0
 40
1.0
 41
0.0
 42
6.283185307179586
  0
ELLIPSE
  5
5C
330
1F
100
AcDbEntity
  8
Layer 1
 62
     3
370
    20
100
AcDbEllipse
 10
-5.35
 20
13.9
 30
0.0
 11
0.0
 21
0.7
 31
0.0
210
0.0
220
0.0
230
1.0
 40
1.0
 41
0.0
 42
6.283185307179586
  0
ELLIPSE
  5
5D
330
1F
100
AcDbEntity
  8
Layer 1
370
    20
100
AcDbEllipse
 10
-5.35
 20
13.9
 30
0.0
 11
0.0
 21
0.3
 31
0.0
210
0.0
220
0.0
230
1.0
 40
1.0
 41
0.0
 42
6.283185307179586
  0
ELLIPSE
  5
5E
330
1F
100
AcDbEntity
  8
Layer 1
 62
     3
370
    20
100
AcDbEllipse
 10
-3.55
 20
13.9
 30
0.0
 11
0.0
 21
0.7
 31
0.0
210
0.0
220
0.0
230
1.0
 40
1.0
 41
0.0
 42
6.283185307179586
  0
ELLIPSE
  5
5F
330
1F
100
AcDbEntity
  8
Layer 1
370
    20
100
AcDbEllipse
 10
-3.55
 20
13.9
 30
0.0
 11
0.0
 21
0.3
 31
0.0
210
0.0
220
0.0
230
1.0
 40
1.0
 41
0.0
 42
6.283185307179586
  0
ELLIPSE
  5
60
330
1F
100
AcDbEntity
  8
Layer 1
 62
     3
370
    20
100
AcDbEllipse
 10
-1.75
 20
13.9
 30
0.0
 11
0.0
 21
0.7
 31
0.0
210
0.0
220
0.0
230
1.0
 40
1.0
 41
0.0
 42
6.283185307179586
  0
ELLIPSE
  5
61
330
1F
100
AcDbEntity
  8
Layer 1
370
    20
100
AcDbEllipse
 10
-1.75
 20
13.9
 30
0.0
 11
0.0
 21
0.3
 31
0.0
210
0.0
220
0.0
230
1.0
 40
1.0
 41
0.0
 42
6.283185307179586
  0
ELLIPSE
  5
62
330
1F
100
AcDbEntity
  8
Layer 1
 62
     3
370
    20
100
AcDbEllipse
 10
0.05
 20
13.9
 30
0.0
 11
0.0
 21
0.7
 31
0.0
210
0.0
220
0.0
230
1.0
 40
1.0
 41
0.0
 42
6.283185307179586
  0
ELLIPSE
  5
63
330
1F
100
AcDbEntity
  8
Layer 1
370
    20
100
AcDbEllipse
 10
0.05
 20
13.9
 30
0.0
 11
0.0
 21
0.3
 31
0.0
210
0.0
220
0.0
230
1.0
 40
1.0
 41
0.0
 42
6.283185307179586
  0
ELLIPSE
  5
64
330
1F
100
AcDbEntity
  8
Layer 1
 62
     3
370
    20
100
AcDbEllipse
 10
1.85
 20
13.9
 30
0.0
 11
0.0
 21
0.7
 31
0.0
210
0.0
220
0.0
230
1.0
 40
1.0
 41
0.0
 42
6.283185307179586
  0
ELLIPSE
  5
65
330
1F
100
AcDbEntity
  8
Layer 1
370
    20
100
AcDbEllipse
 10
1.85
 20
13.9
 30
0.0
 11
0.0
 21
0.3
 31
0.0
210
0.0
220
0.0
230
1.0
 40
1.0
 41
0.0
 42
6.283185307179586
  0
ELLIPSE
  5
66
330
1F
100
AcDbEntity
  8
Layer 1
 62
     3
370
    20
100
AcDbEllipse
 10
3.65
 20
13.9
 30
0.0
 11
0.0
 21
0.7
 31
0.0
210
0.0
220
0.0
230
1.0
 40
1.0
 41
0.0
 42
6.283185307179586
  0
ELLIPSE
  5
67
330
1F
100
AcDbEntity
  8
Layer 1
370
    20
100
AcDbEllipse
 10
3.65
 20
13.9
 30
0.0
 11
0.0
 21
0.3
 31
0.0
210
0.0
220
0.0
230
1.0
 40
1.0
 41
0.0
 42
6.283185307179586
  0
ELLIPSE
  5
68
330
1F
100
AcDbEntity
  8
Layer 1
 62
     3
370
    20
100
AcDbEllipse
 10
5.45
 20
13.9
 30
0.0
 11
0.0
 21
0.7
 31
0.0
210
0.0
220
0.0
230
1.0
 40
1.0
 41
0.0
 42
6.283185307179586
  0
ELLIPSE
  5
69
330
1F
100
AcDbEntity
  8
Layer 1
370
    20
100
AcDbEllipse
 10
5.45
 20
13.9
 30
0.0
 11
0.0
 21
0.3
 31
0.0
210
0.0
220
0.0
230
1.0
 40
1.0
 41
0.0
 42
6.283185307179586
  0
ELLIPSE
  5
6A
330
1F
100
AcDbEntity
  8
Layer 1
 62
     3
370
    20
100
AcDbEllipse
 10
7.25
 20
13.9
 30
0.0
 11
0.0
 21
0.7
 31
0.0
210
0.0
220
0.0
230
1.0
 40
1.0
 41
0.0
 42
6.283185307179586
  0
ELLIPSE
  5
6B
330
1F
100
AcDbEntity
  8
Layer 1
370
    20
100
AcDbEllipse
 10
7.25
 20
13.9
 30
0.0
 11
0.0
 21
0.3
 31
0.0
210
0.0
220
0.0
230
1.0
 40
1.0
 41
0.0
 42
6.283185307179586
  0
ELLIPSE
  5
6C
330
1F
100
AcDbEntity
  8
Layer 1
 62
     3
370
    20
100
AcDbEllipse
 10
-8.95
 20
12.1
 30
0.0
 11
0.0
 21
0.7
 31
0.0
210
0.0
220
0.0
230
1.0
 40
1.0
 41
0.0
 42
6.283185307179586
  0
ELLIPSE
  5
6D
330
1F
100
AcDbEntity
  8
Layer 1
370
    20
100
AcDbEllipse
 10
-8.95
 20
12.1
 30
0.0
 11
0.0
 21
0.3
 31
0.0
210
0.0
220
0.0
230
1.0
 40
1.0
 41
0.0
 42
6.283185307179586
  0
ELLIPSE
  5
6E
330
1F
100
AcDbEntity
  8
Layer 1
 62
     3
370
    20
100
AcDbEllipse
 10
-7.15
 20
12.1
 30
0.0
 11
0.0
 21
0.7
 31
0.0
210
0.0
220
0.0
230
1.0
 40
1.0
 41
0.0
 42
6.283185307179586
  0
ELLIPSE
  5
6F
330
1F
100
AcDbEntity
  8
Layer 1
370
    20
100
AcDbEllipse
 10
-7.15
 20
12.1
 30
0.0
 11
0.0
 21
0.3
 31
0.0
210
0.0
220
0.0
230
1.0
 40
1.0
 41
0.0
 42
6.283185307179586
  0
ELLIPSE
  5
70
330
1F
100
AcDbEntity
  8
Layer 1
 62
     3
370
    20
100
AcDbEllipse
 10
-5.35
 20
12.1
 30
0.0
 11
0.0
 21
0.7
 31
0.0
210
0.0
220
0.0
230
1.0
 40
1.0
 41
0.0
 42
6.283185307179586
  0
ELLIPSE
  5
71
330
1F
100
AcDbEntity
  8
Layer 1
370
    20
100
AcDbEllipse
 10
-5.35
 20
12.1
 30
0.0
 11
0.0
 21
0.3
 31
0.0
210
0.0
220
0.0
230
1.0
 40
1.0
 41
0.0
 42
6.283185307179586
  0
ELLIPSE
  5
72
330
1F
100
AcDbEntity
  8
Layer 1
 62
     3
370
    20
100
AcDbEllipse
 10
-3.55
 20
12.1
 30
0.0
 11
0.0
 21
0.7
 31
0.0
210
0.0
220
0.0
230
1.0
 40
1.0
 41
0.0
 42
6.283185307179586
  0
ELLIPSE
  5
73
330
1F
100
AcDbEntity
  8
Layer 1
370
    20
100
AcDbEllipse
 10
-3.55
 20
12.1
 30
0.0
 11
0.0
 21
0.3
 31
0.0
210
0.0
220
0.0
230
1.0
 40
1.0
 41
0.0
 42
6.283185307179586
  0
ELLIPSE
  5
74
330
1F
100
AcDbEntity
  8
Layer 1
 62
     3
370
    20
100
AcDbEllipse
 10
-1.75
 20
12.1
 30
0.0
 11
0.0
 21
0.7
 31
0.0
210
0.0
220
0.0
230
1.0
 40
1.0
 41
0.0
 42
6.283185307179586
  0
ELLIPSE
  5
75
330
1F
100
AcDbEntity
  8
Layer 1
370
    20
100
AcDbEllipse
 10
-1.75
 20
12.1
 30
0.0
 11
0.0
 21
0.3
 31
0.0
210
0.0
220
0.0
230
1.0
 40
1.0
 41
0.0
 42
6.283185307179586
  0
ELLIPSE
  5
76
330
1F
100
AcDbEntity
  8
Layer 1
 62
     3
370
    20
100
AcDbEllipse
 10
0.05
 20
12.1
 30
0.0
 11
0.0
 21
0.7
 31
0.0
210
0.0
220
0.0
230
1.0
 40
1.0
 41
0.0
 42
6.283185307179586
  0
ELLIPSE
  5
77
330
1F
100
AcDbEntity
  8
Layer 1
370
    20
100
AcDbEllipse
 10
0.05
 20
12.1
 30
0.0
 11
0.0
 21
0.3
 31
0.0
210
0.0
220
0.0
230
1.0
 40
1.0
 41
0.0
 42
6.283185307179586
  0
ELLIPSE
  5
78
330
1F
100
AcDbEntity
  8
Layer 1
 62
     3
370
    20
100
AcDbEllipse
 10
1.85
 20
12.1
 30
0.0
 11
0.0
 21
0.7
 31
0.0
210
0.0
220
0.0
230
1.0
 40
1.0
 41
0.0
 42
6.283185307179586
  0
ELLIPSE
  5
79
330
1F
100
AcDbEntity
  8
Layer 1
370
    20
100
AcDbEllipse
 10
1.85
 20
12.1
 30
0.0
 11
0.0
 21
0.3
 31
0.0
210
0.0
220
0.0
230
1.0
 40
1.0
 41
0.0
 42
6.283185307179586
  0
ELLIPSE
  5
7A
330
1F
100
AcDbEntity
  8
Layer 1
 62
     3
370
    20
100
AcDbEllipse
 10
3.65
 20
12.1
 30
0.0
 11
0.0
 21
0.7
 31
0.0
210
0.0
220
0.0
230
1.0
 40
1.0
 41
0.0
 42
6.283185307179586
  0
ELLIPSE
  5
7B
330
1F
100
AcDbEntity
  8
Layer 1
370
    20
100
AcDbEllipse
 10
3.65
 20
12.1
 30
0.0
 11
0.0
 21
0.3
 31
0.0
210
0.0
220
0.0
230
1.0
 40
1.0
 41
0.0
 42
6.283185307179586
  0
ELLIPSE
  5
7C
330
1F
100
AcDbEntity
  8
Layer 1
 62
     3
370
    20
100
AcDbEllipse
 10
5.45
 20
12.1
 30
0.0
 11
0.0
 21
0.7
 31
0.0
210
0.0
220
0.0
230
1.0
 40
1.0
 41
0.0
 42
6.283185307179586
  0
ELLIPSE
  5
7D
330
1F
100
AcDbEntity
  8
Layer 1
370
    20
100
AcDbEllipse
 10
5.45
 20
12.1
 30
0.0
 11
0.0
 21
0.3
 31
0.0
210
0.0
220
0.0
230
1.0
 40
1.0
 41
0.0
 42
6.283185307179586
  0
ELLIPSE
  5
7E
330
1F
100
AcDbEntity
  8
Layer 1
 62
     3
370
    20
100
AcDbEllipse
 10
7.25
 20
12.1
 30
0.0
 11
0.0
 21
0.7
 31
0.0
210
0.0
220
0.0
230
1.0
 40
1.0
 41
0.0
 42
6.283185307179586
  0
ELLIPSE
  5
7F
330
1F
100
AcDbEntity
  8
Layer 1
370
    20
100
AcDbEllipse
 10
7.25
 20
12.1
 30
0.0
 11
0.0
 21
0.3
 31
0.0
210
0.0
220
0.0
230
1.0
 40
1.0
 41
0.0
 42
6.283185307179586
  0
ELLIPSE
  5
80
330
1F
100
AcDbEntity
  8
Layer 1
 62
     3
370
    20
100
AcDbEllipse
 10
9.05
 20
12.1
 30
0.0
 11
0.0
 21
0.7
 31
0.0
210
0.0
220
0.0
230
1.0
 40
1.0
 41
0.0
 42
6.283185307179586
  0
ELLIPSE
  5
81
330
1F
100
AcDbEntity
  8
Layer 1
370
    20
100
AcDbEllipse
 10
9.05
 20
12.1
 30
0.0
 11
0.0
 21
0.3
 31
0.0
210
0.0
220
0.0
230
1.0
 40
1.0
 41
0.0
 42
6.283185307179586
  0
ELLIPSE
  5
82
330
1F
100
AcDbEntity
  8
Layer 1
 62
     3
370
    20
100
AcDbEllipse
 10
-8.95
 20
10.3
 30
0.0
 11
0.0
 21
0.7
 31
0.0
210
0.0
220
0.0
230
1.0
 40
1.0
 41
0.0
 42
6.283185307179586
  0
ELLIPSE
  5
83
330
1F
100
AcDbEntity
  8
Layer 1
370
    20
100
AcDbEllipse
 10
-8.95
 20
10.3
 30
0.0
 11
0.0
 21
0.3
 31
0.0
210
0.0
220
0.0
230
1.0
 40
1.0
 41
0.0
 42
6.283185307179586
  0
ELLIPSE
  5
84
330
1F
100
AcDbEntity
  8
Layer 1
 62
     3
370
    20
100
AcDbEllipse
 10
-7.15
 20
10.3
 30
0.0
 11
0.0
 21
0.7
 31
0.0
210
0.0
220
0.0
230
1.0
 40
1.0
 41
0.0
 42
6.283185307179586
  0
ELLIPSE
  5
85
330
1F
100
AcDbEntity
  8
Layer 1
370
    20
100
AcDbEllipse
 10
-7.15
 20
10.3
 30
0.0
 11
0.0
 21
0.3
 31
0.0
210
0.0
220
0.0
230
1.0
 40
1.0
 41
0.0
 42
6.283185307179586
  0
ELLIPSE
  5
86
330
1F
100
AcDbEntity
  8
Layer 1
 62
     3
370
    20
100
AcDbEllipse
 10
-5.35
 20
10.3
 30
0.0
 11
0.0
 21
0.7
 31
0.0
210
0.0
220
0.0
230
1.0
 40
1.0
 41
0.0
 42
6.283185307179586
  0
ELLIPSE
  5
87
330
1F
100
AcDbEntity
  8
Layer 1
370
    20
100
AcDbEllipse
 10
-5.35
 20
10.3
 30
0.0
 11
0.0
 21
0.3
 31
0.0
210
0.0
220
0.0
230
1.0
 40
1.0
 41
0.0
 42
6.283185307179586
  0
ELLIPSE
  5
88
330
1F
100
AcDbEntity
  8
Layer 1
 62
     3
370
    20
100
AcDbEllipse
 10
-3.55
 20
10.3
 30
0.0
 11
0.0
 21
0.7
 31
0.0
210
0.0
220
0.0
230
1.0
 40
1.0
 41
0.0
 42
6.283185307179586
  0
ELLIPSE
  5
89
330
1F
100
AcDbEntity
  8
Layer 1
370
    20
100
AcDbEllipse
 10
-3.55
 20
10.3
 30
0.0
 11
0.0
 21
0.3
 31
0.0
210
0.0
220
0.0
230
1.0
 40
1.0
 41
0.0
 42
6.283185307179586
  0
ELLIPSE
  5
8A
330
1F
100
AcDbEntity
  8
Layer 1
 62
     3
370
    20
100
AcDbEllipse
 10
-1.75
 20
10.3
 30
0.0
 11
0.0
 21
0.7
 31
0.0
210
0.0
220
0.0
230
1.0
 40
1.0
 41
0.0
 42
6.283185307179586
  0
ELLIPSE
  5
8B
330
1F
100
AcDbEntity
  8
Layer 1
370
    20
100
AcDbEllipse
 10
-1.75
 20
10.3
 30
0.0
 11
0.0
 21
0.3
 31
0.0
210
0.0
220
0.0
230
1.0
 40
1.0
 41
0.0
 42
6.283185307179586
  0
ELLIPSE
  5
8C
330
1F
100
AcDbEntity
  8
Layer 1
 62
     3
370
    20
100
AcDbEllipse
 10
0.05
 20
10.3
 30
0.0
 11
0.0
 21
0.7
 31
0.0
210
0.0
220
0.0
230
1.0
 40
1.0
 41
0.0
 42
6.283185307179586
  0
ELLIPSE
  5
8D
330
1F
100
AcDbEntity
  8
Layer 1
370
    20
100
AcDbEllipse
 10
0.05
 20
10.3
 30
0.0
 11
0.0
 21
0.3
 31
0.0
210
0.0
220
0.0
230
1.0
 40
1.0
 41
0.0
 42
6.283185307179586
  0
ELLIPSE
  5
8E
330
1F
100
AcDbEntity
  8
Layer 1
 62
     3
370
    20
100
AcDbEllipse
 10
1.85
 20
10.3
 30
0.0
 11
0.0
 21
0.7
 31
0.0
210
0.0
220
0.0
230
1.0
 40
1.0
 41
0.0
 42
6.283185307179586
  0
ELLIPSE
  5
8F
330
1F
100
AcDbEntity
  8
Layer 1
370
    20
100
AcDbEllipse
 10
1.85
 20
10.3
 30
0.0
 11
0.0
 21
0.3
 31
0.0
210
0.0
220
0.0
230
1.0
 40
1.0
 41
0.0
 42
6.283185307179586
  0
ELLIPSE
  5
90
330
1F
100
AcDbEntity
  8
Layer 1
 62
     3
370
    20
100
AcDbEllipse
 10
3.65
 20
10.3
 30
0.0
 11
0.0
 21
0.7
 31
0.0
210
0.0
220
0.0
230
1.0
 40
1.0
 41
0.0
 42
6.283185307179586
  0
ELLIPSE
  5
91
330
1F
100
AcDbEntity
  8
Layer 1
370
    20
100
AcDbEllipse
 10
3.65
 20
10.3
 30
0.0
 11
0.0
 21
0.3
 31
0.0
210
0.0
220
0.0
230
1.0
 40
1.0
 41
0.0
 42
6.283185307179586
  0
ELLIPSE
  5
92
330
1F
100
AcDbEntity
  8
Layer 1
 62
     3
370
    20
100
AcDbEllipse
 10
5.45
 20
10.3
 30
0.0
 11
0.0
 21
0.7
 31
0.0
210
0.0
220
0.0
230
1.0
 40
1.0
 41
0.0
 42
6.283185307179586
  0
ELLIPSE
  5
93
330
1F
100
AcDbEntity
  8
Layer 1
370
    20
100
AcDbEllipse
 10
5.45
 20
10.3
 30
0.0
 11
0.0
 21
0.3
 31
0.0
210
0.0
220
0.0
230
1.0
 40
1.0
 41
0.0
 42
6.283185307179586
  0
ELLIPSE
  5
94
330
1F
100
AcDbEntity
  8
Layer 1
 62
     3
370
    20
100
AcDbEllipse
 10
7.25
 20
10.3
 30
0.0
 11
0.0
 21
0.7
 31
0.0
210
0.0
220
0.0
230
1.0
 40
1.0
 41
0.0
 42
6.283185307179586
  0
ELLIPSE
  5
95
330
1F
100
AcDbEntity
  8
Layer 1
370
    20
100
AcDbEllipse
 10
7.25
 20
10.3
 30
0.0
 11
0.0
 21
0.3
 31
0.0
210
0.0
220
0.0
230
1.0
 40
1.0
 41
0.0
 42
6.283185307179586
  0
ELLIPSE
  5
96
330
1F
100
AcDbEntity
  8
Layer 1
 62
     3
370
    20
100
AcDbEllipse
 10
9.05
 20
10.3
 30
0.0
 11
0.0
 21
0.7
 31
0.0
210
0.0
220
0.0
230
1.0
 40
1.0
 41
0.0
 42
6.283185307179586
  0
ELLIPSE
  5
97
330
1F
100
AcDbEntity
  8
Layer 1
370
    20
100
AcDbEllipse
 10
9.05
 20
10.3
 30
0.0
 11
0.0
 21
0.3
 31
0.0
210
0.0
220
0.0
230
1.0
 40
1.0
 41
0.0
 42
6.283185307179586
  0
ELLIPSE
  5
98
330
1F
100
AcDbEntity
  8
Layer 1
 62
     3
370
    20
100
AcDbEllipse
 10
-8.95
 20
8.5
 30
0.0
 11
0.0
 21
0.7
 31
0.0
210
0.0
220
0.0
230
1.0
 40
1.0
 41
0.0
 42
6.283185307179586
  0
ELLIPSE
  5
99
330
1F
100
AcDbEntity
  8
Layer 1
370
    20
100
AcDbEllipse
 10
-8.95
 20
8.5
 30
0.0
 11
0.0
 21
0.3
 31
0.0
210
0.0
220
0.0
230
1.0
 40
1.0
 41
0.0
 42
6.283185307179586
  0
ELLIPSE
  5
9A
330
1F
100
AcDbEntity
  8
Layer 1
 62
     3
370
    20
100
AcDbEllipse
 10
-7.15
 20
8.5
 30
0.0
 11
0.0
 21
0.7
 31
0.0
210
0.0
220
0.0
230
1.0
 40
1.0
 41
0.0
 42
6.283185307179586
  0
ELLIPSE
  5
9B
330
1F
100
AcDbEntity
  8
Layer 1
370
    20
100
AcDbEllipse
 10
-7.15
 20
8.5
 30
0.0
 11
0.0
 21
0.3
 31
0.0
210
0.0
220
0.0
230
1.0
 40
1.0
 41
0.0
 42
6.283185307179586
  0
ELLIPSE
  5
9C
330
1F
100
AcDbEntity
  8
Layer 1
 62
     3
370
    20
100
AcDbEllipse
 10
-5.35
 20
8.5
 30
0.0
 11
0.0
 21
0.7
 31
0.0
210
0.0
220
0.0
230
1.0
 40
1.0
 41
0.0
 42
6.283185307179586
  0
ELLIPSE
  5
9D
330
1F
100
AcDbEntity
  8
Layer 1
370
    20
100
AcDbEllipse
 10
-5.35
 20
8.5
 30
0.0
 11
0.0
 21
0.3
 31
0.0
210
0.0
220
0.0
230
1.0
 40
1.0
 41
0.0
 42
6.283185307179586
  0
ELLIPSE
  5
9E
330
1F
100
AcDbEntity
  8
Layer 1
 62
     3
370
    20
100
AcDbEllipse
 10
-3.55
 20
8.5
 30
0.0
 11
0.0
 21
0.7
 31
0.0
210
0.0
220
0.0
230
1.0
 40
1.0
 41
0.0
 42
6.283185307179586
  0
ELLIPSE
  5
9F
330
1F
100
AcDbEntity
  8
Layer 1
370
    20
100
AcDbEllipse
 10
-3.55
 20
8.5
 30
0.0
 11
0.0
 21
0.3
 31
0.0
210
0.0
220
0.0
230
1.0
 40
1.0
 41
0.0
 42
6.283185307179586
  0
ELLIPSE
  5
A0
330
1F
100
AcDbEntity
  8
Layer 1
 62
     3
370
    20
100
AcDbEllipse
 10
-1.75
 20
8.5
 30
0.0
 11
0.0
 21
0.7
 31
0.0
210
0.0
220
0.0
230
1.0
 40
1.0
 41
0.0
 42
6.283185307179586
  0
ELLIPSE
  5
A1
330
1F
100
AcDbEntity
  8
Layer 1
370
    20
100
AcDbEllipse
 10
-1.75
 20
8.5
 30
0.0
 11
0.0
 21
0.3
 31
0.0
210
0.0
220
0.0
230
1.0
 40
1.0
 41
0.0
 42
6.283185307179586
  0
ELLIPSE
  5
A2
330
1F
100
AcDbEntity
  8
Layer 1
 62
     3
370
    20
100
AcDbEllipse
 10
0.05
 20
8.5
 30
0.0
 11
0.0
 21
0.7
 31
0.0
210
0.0
220
0.0
230
1.0
 40
1.0
 41
0.0
 42
6.283185307179586
  0
ELLIPSE
  5
A3
330
1F
100
AcDbEntity
  8
Layer 1
370
    20
100
AcDbEllipse
 10
0.05
 20
8.5
 30
0.0
 11
0.0
 21
0.3
 31
0.0
210
0.0
220
0.0
230
1.0
 40
1.0
 41
0.0
 42
6.283185307179586
  0
ELLIPSE
  5
A4
330
1F
100
AcDbEntity
  8
Layer 1
 62
     3
370
    20
100
AcDbEllipse
 10
1.85
 20
8.5
 30
0.0
 11
0.0
 21
0.7
 31
0.0
210
0.0
220
0.0
230
1.0
 40
1.0
 41
0.0
 42
6.283185307179586
  0
ELLIPSE
  5
A5
330
1F
100
AcDbEntity
  8
Layer 1
370
    20
100
AcDbEllipse
 10
1.85
 20
8.5
 30
0.0
 11
0.0
 21
0.3
 31
0.0
210
0.0
220
0.0
230
1.0
 40
1.0
 41
0.0
 42
6.283185307179586
  0
ELLIPSE
  5
A6
330
1F
100
AcDbEntity
  8
Layer 1
 62
     3
370
    20
100
AcDbEllipse
 10
3.65
 20
8.5
 30
0.0
 11
0.0
 21
0.7
 31
0.0
210
0.0
220
0.0
230
1.0
 40
1.0
 41
0.0
 42
6.283185307179586
  0
ELLIPSE
  5
A7
330
1F
100
AcDbEntity
  8
Layer 1
370
    20
100
AcDbEllipse
 10
3.65
 20
8.5
 30
0.0
 11
0.0
 21
0.3
 31
0.0
210
0.0
220
0.0
230
1.0
 40
1.0
 41
0.0
 42
6.283185307179586
  0
ELLIPSE
  5
A8
330
1F
100
AcDbEntity
  8
Layer 1
 62
     3
370
    20
100
AcDbEllipse
 10
5.45
 20
8.5
 30
0.0
 11
0.0
 21
0.7
 31
0.0
210
0.0
220
0.0
230
1.0
 40
1.0
 41
0.0
 42
6.283185307179586
  0
ELLIPSE
  5
A9
330
1F
100
AcDbEntity
  8
Layer 1
370
    20
100
AcDbEllipse
 10
5.45
 20
8.5
 30
0.0
 11
0.0
 21
0.3
 31
0.0
210
0.0
220
0.0
230
1.0
 40
1.0
 41
0.0
 42
6.283185307179586
  0
ELLIPSE
  5
AA
330
1F
100
AcDbEntity
  8
Layer 1
 62
     3
370
    20
100
AcDbEllipse
 10
7.25
 20
8.5
 30
0.0
 11
0.0
 21
0.7
 31
0.0
210
0.0
220
0.0
230
1.0
 40
1.0
 41
0.0
 42
6.283185307179586
  0
ELLIPSE
  5
AB
330
1F
100
AcDbEntity
  8
Layer 1
370
    20
100
AcDbEllipse
 10
7.25
 20
8.5
 30
0.0
 11
0.0
 21
0.3
 31
0.0
210
0.0
220
0.0
230
1.0
 40
1.0
 41
0.0
 42
6.283185307179586
  0
ELLIPSE
  5
AC
330
1F
100
AcDbEntity
  8
Layer 1
 62
     3
370
    20
100
AcDbEllipse
 10
9.05
 20
8.5
 30
0.0
 11
0.0
 21
0.7
 31
0.0
210
0.0
220
0.0
230
1.0
 40
1.0
 41
0.0
 42
6.283185307179586
  0
ELLIPSE
  5
AD
330
1F
100
AcDbEntity
  8
Layer 1
370
    20
100
AcDbEllipse
 10
9.05
 20
8.5
 30
0.0
 11
0.0
 21
0.3
 31
0.0
210
0.0
220
0.0
230
1.0
 40
1.0
 41
0.0
 42
6.283185307179586
  0
ELLIPSE
  5
AE
330
1F
100
AcDbEntity
  8
Layer 1
 62
     3
370
    20
100
AcDbEllipse
 10
-8.95
 20
6.7
 30
0.0
 11
0.0
 21
0.7
 31
0.0
210
0.0
220
0.0
230
1.0
 40
1.0
 41
0.0
 42
6.283185307179586
  0
ELLIPSE
  5
AF
330
1F
100
AcDbEntity
  8
Layer 1
370
    20
100
AcDbEllipse
 10
-8.95
 20
6.7
 30
0.0
 11
0.0
 21
0.3
 31
0.0
210
0.0
220
0.0
230
1.0
 40
1.0
 41
0.0
 42
6.283185307179586
  0
ELLIPSE
  5
B0
330
1F
100
AcDbEntity
  8
Layer 1
 62
     3
370
    20
100
AcDbEllipse
 10
-7.15
 20
6.7
 30
0.0
 11
0.0
 21
0.7
 31
0.0
210
0.0
220
0.0
230
1.0
 40
1.0
 41
0.0
 42
6.283185307179586
  0
ELLIPSE
  5
B1
330
1F
100
AcDbEntity
  8
Layer 1
370
    20
100
AcDbEllipse
 10
-7.15
 20
6.7
 30
0.0
 11
0.0
 21
0.3
 31
0.0
210
0.0
220
0.0
230
1.0
 40
1.0
 41
0.0
 42
6.283185307179586
  0
ELLIPSE
  5
B2
330
1F
100
AcDbEntity
  8
Layer 1
 62
     3
370
    20
100
AcDbEllipse
 10
-5.35
 20
6.7
 30
0.0
 11
0.0
 21
0.7
 31
0.0
210
0.0
220
0.0
230
1.0
 40
1.0
 41
0.0
 42
6.283185307179586
  0
ELLIPSE
  5
B3
330
1F
100
AcDbEntity
  8
Layer 1
370
    20
100
AcDbEllipse
 10
-5.35
 20
6.7
 30
0.0
 11
0.0
 21
0.3
 31
0.0
210
0.0
220
0.0
230
1.0
 40
1.0
 41
0.0
 42
6.283185307179586
  0
ELLIPSE
  5
B4
330
1F
100
AcDbEntity
  8
Layer 1
 62
     3
370
    20
100
AcDbEllipse
 10
-3.55
 20
6.7
 30
0.0
 11
0.0
 21
0.7
 31
0.0
210
0.0
220
0.0
230
1.0
 40
1.0
 41
0.0
 42
6.283185307179586
  0
ELLIPSE
  5
B5
330
1F
100
AcDbEntity
  8
Layer 1
370
    20
100
AcDbEllipse
 10
-3.55
 20
6.7
 30
0.0
 11
0.0
 21
0.3
 31
0.0
210
0.0
220
0.0
230
1.0
 40
1.0
 41
0.0
 42
6.283185307179586
  0
ELLIPSE
  5
B6
330
1F
100
AcDbEntity
  8
Layer 1
 62
     3
370
    20
100
AcDbEllipse
 10
-1.75
 20
6.7
 30
0.0
 11
0.0
 21
0.7
 31
0.0
210
0.0
220
0.0
230
1.0
 40
1.0
 41
0.0
 42
6.283185307179586
  0
ELLIPSE
  5
B7
330
1F
100
AcDbEntity
  8
Layer 1
370
    20
100
AcDbEllipse
 10
-1.75
 20
6.7
 30
0.0
 11
0.0
 21
0.3
 31
0.0
210
0.0
220
0.0
230
1.0
 40
1.0
 41
0.0
 42
6.283185307179586
  0
ELLIPSE
  5
B8
330
1F
100
AcDbEntity
  8
Layer 1
 62
     3
370
    20
100
AcDbEllipse
 10
0.05
 20
6.7
 30
0.0
 11
0.0
 21
0.7
 31
0.0
210
0.0
220
0.0
230
1.0
 40
1.0
 41
0.0
 42
6.283185307179586
  0
ELLIPSE
  5
B9
330
1F
100
AcDbEntity
  8
Layer 1
370
    20
100
AcDbEllipse
 10
0.05
 20
6.7
 30
0.0
 11
0.0
 21
0.3
 31
0.0
210
0.0
220
0.0
230
1.0
 40
1.0
 41
0.0
 42
6.283185307179586
  0
ELLIPSE
  5
BA
330
1F
100
AcDbEntity
  8
Layer 1
 62
     3
370
    20
100
AcDbEllipse
 10
1.85
 20
6.7
 30
0.0
 11
0.0
 21
0.7
 31
0.0
210
0.0
220
0.0
230
1.0
 40
1.0
 41
0.0
 42
6.283185307179586
  0
ELLIPSE
  5
BB
330
1F
100
AcDbEntity
  8
Layer 1
370
    20
100
AcDbEllipse
 10
1.85
 20
6.7
 30
0.0
 11
0.0
 21
0.3
 31
0.0
210
0.0
220
0.0
230
1.0
 40
1.0
 41
0.0
 42
6.283185307179586
  0
ELLIPSE
  5
BC
330
1F
100
AcDbEntity
  8
Layer 1
 62
     3
370
    20
100
AcDbEllipse
 10
3.65
 20
6.7
 30
0.0
 11
0.0
 21
0.7
 31
0.0
210
0.0
220
0.0
230
1.0
 40
1.0
 41
0.0
 42
6.283185307179586
  0
ELLIPSE
  5
BD
330
1F
100
AcDbEntity
  8
Layer 1
370
    20
100
AcDbEllipse
 10
3.65
 20
6.7
 30
0.0
 11
0.0
 21
0.3
 31
0.0
210
0.0
220
0.0
230
1.0
 40
1.0
 41
0.0
 42
6.283185307179586
  0
ELLIPSE
  5
BE
330
1F
100
AcDbEntity
  8
Layer 1
 62
     3
370
    20
100
AcDbEllipse
 10
5.45
 20
6.7
 30
0.0
 11
0.0
 21
0.7
 31
0.0
210
0.0
220
0.0
230
1.0
 40
1.0
 41
0.0
 42
6.283185307179586
  0
ELLIPSE
  5
BF
330
1F
100
AcDbEntity
  8
Layer 1
370
    20
100
AcDbEllipse
 10
5.45
 20
6.7
 30
0.0
 11
0.0
 21
0.3
 31
0.0
210
0.0
220
0.0
230
1.0
 40
1.0
 41
0.0
 42
6.283185307179586
  0
ELLIPSE
  5
C0
330
1F
100
AcDbEntity
  8
Layer 1
 62
     3
370
    20
100
AcDbEllipse
 10
7.25
 20
6.7
 30
0.0
 11
0.0
 21
0.7
 31
0.0
210
0.0
220
0.0
230
1.0
 40
1.0
 41
0.0
 42
6.283185307179586
  0
ELLIPSE
  5
C1
330
1F
100
AcDbEntity
  8
Layer 1
370
    20
100
AcDbEllipse
 10
7.25
 20
6.7
 30
0.0
 11
0.0
 21
0.3
 31
0.0
210
0.0
220
0.0
230
1.0
 40
1.0
 41
0.0
 42
6.283185307179586
  0
ELLIPSE
  5
C2
330
1F
100
AcDbEntity
  8
Layer 1
 62
     3
370
    20
100
AcDbEllipse
 10
9.05
 20
6.7
 30
0.0
 11
0.0
 21
0.7
 31
0.0
210
0.0
220
0.0
230
1.0
 40
1.0
 41
0.0
 42
6.283185307179586
  0
ELLIPSE
  5
C3
330
1F
100
AcDbEntity
  8
Layer 1
370
    20
100
AcDbEllipse
 10
9.05
 20
6.7
 30
0.0
 11
0.0
 21
0.3
 31
0.0
210
0.0
220
0.0
230
1.0
 40
1.0
 41
0.0
 42
6.283185307179586
  0
ELLIPSE
  5
C4
330
1F
100
AcDbEntity
  8
Layer 1
 62
     3
370
    20
100
AcDbEllipse
 10
-8.95
 20
4.9
 30
0.0
 11
0.0
 21
0.7
 31
0.0
210
0.0
220
0.0
230
1.0
 40
1.0
 41
0.0
 42
6.283185307179586
  0
ELLIPSE
  5
C5
330
1F
100
AcDbEntity
  8
Layer 1
370
    20
100
AcDbEllipse
 10
-8.95
 20
4.9
 30
0.0
 11
0.0
 21
0.3
 31
0.0
210
0.0
220
0.0
230
1.0
 40
1.0
 41
0.0
 42
6.283185307179586
  0
ELLIPSE
  5
C6
330
1F
100
AcDbEntity
  8
Layer 1
 62
     3
370
    20
100
AcDbEllipse
 10
-7.15
 20
4.9
 30
0.0
 11
0.0
 21
0.7
 31
0.0
210
0.0
220
0.0
230
1.0
 40
1.0
 41
0.0
 42
6.283185307179586
  0
ELLIPSE
  5
C7
330
1F
100
AcDbEntity
  8
Layer 1
370
    20
100
AcDbEllipse
 10
-7.15
 20
4.9
 30
0.0
 11
0.0
 21
0.3
 31
0.0
210
0.0
220
0.0
230
1.0
 40
1.0
 41
0.0
 42
6.283185307179586
  0
ELLIPSE
  5
C8
330
1F
100
AcDbEntity
  8
Layer 1
 62
     3
370
    20
100
AcDbEllipse
 10
-5.35
 20
4.9
 30
0.0
 11
0.0
 21
0.7
 31
0.0
210
0.0
220
0.0
230
1.0
 40
1.0
 41
0.0
 42
6.283185307179586
  0
ELLIPSE
  5
C9
330
1F
100
AcDbEntity
  8
Layer 1
370
    20
100
AcDbEllipse
 10
-5.35
 20
4.9
 30
0.0
 11
0.0
 21
0.3
 31
0.0
210
0.0
220
0.0
230
1.0
 40
1.0
 41
0.0
 42
6.283185307179586
  0
ELLIPSE
  5
CA
330
1F
100
AcDbEntity
  8
Layer 1
 62
     3
370
    20
100
AcDbEllipse
 10
-3.55
 20
4.9
 30
0.0
 11
0.0
 21
0.7
 31
0.0
210
0.0
220
0.0
230
1.0
 40
1.0
 41
0.0
 42
6.283185307179586
  0
ELLIPSE
  5
CB
330
1F
100
AcDbEntity
  8
Layer 1
370
    20
100
AcDbEllipse
 10
-3.55
 20
4.9
 30
0.0
 11
0.0
 21
0.3
 31
0.0
210
0.0
220
0.0
230
1.0
 40
1.0
 41
0.0
 42
6.283185307179586
  0
ELLIPSE
  5
CC
330
1F
100
AcDbEntity
  8
Layer 1
 62
     3
370
    20
100
AcDbEllipse
 10
-1.75
 20
4.9
 30
0.0
 11
0.0
 21
0.7
 31
0.0
210
0.0
220
0.0
230
1.0
 40
1.0
 41
0.0
 42
6.283185307179586
  0
ELLIPSE
  5
CD
330
1F
100
AcDbEntity
  8
Layer 1
370
    20
100
AcDbEllipse
 10
-1.75
 20
4.9
 30
0.0
 11
0.0
 21
0.3
 31
0.0
210
0.0
220
0.0
230
1.0
 40
1.0
 41
0.0
 42
6.283185307179586
  0
ELLIPSE
  5
CE
330
1F
100
AcDbEntity
  8
Layer 1
 62
     3
370
    20
100
AcDbEllipse
 10
0.05
 20
4.9
 30
0.0
 11
0.0
 21
0.7
 31
0.0
210
0.0
220
0.0
230
1.0
 40
1.0
 41
0.0
 42
6.283185307179586
  0
ELLIPSE
  5
CF
330
1F
100
AcDbEntity
  8
Layer 1
370
    20
100
AcDbEllipse
 10
0.05
 20
4.9
 30
0.0
 11
0.0
 21
0.3
 31
0.0
210
0.0
220
0.0
230
1.0
 40
1.0
 41
0.0
 42
6.283185307179586
  0
ELLIPSE
  5
D0
330
1F
100
AcDbEntity
  8
Layer 1
 62
     3
370
    20
100
AcDbEllipse
 10
1.85
 20
4.9
 30
0.0
 11
0.0
 21
0.7
 31
0.0
210
0.0
220
0.0
230
1.0
 40
1.0
 41
0.0
 42
6.283185307179586
  0
ELLIPSE
  5
D1
330
1F
100
AcDbEntity
  8
Layer 1
370
    20
100
AcDbEllipse
 10
1.85
 20
4.9
 30
0.0
 11
0.0
 21
0.3
 31
0.0
210
0.0
220
0.0
230
1.0
 40
1.0
 41
0.0
 42
6.283185307179586
  0
ELLIPSE
  5
D2
330
1F
100
AcDbEntity
  8
Layer 1
 62
     3
370
    20
100
AcDbEllipse
 10
3.65
 20
4.9
 30
0.0
 11
0.0
 21
0.7
 31
0.0
210
0.0
220
0.0
230
1.0
 40
1.0
 41
0.0
 42
6.283185307179586
  0
ELLIPSE
  5
D3
330
1F
100
AcDbEntity
  8
Layer 1
370
    20
100
AcDbEllipse
 10
3.65
 20
4.9
 30
0.0
 11
0.0
 21
0.3
 31
0.0
210
0.0
220
0.0
230
1.0
 40
1.0
 41
0.0
 42
6.283185307179586
  0
ELLIPSE
  5
D4
330
1F
100
AcDbEntity
  8
Layer 1
 62
     3
370
    20
100
AcDbEllipse
 10
5.45
 20
4.9
 30
0.0
 11
0.0
 21
0.7
 31
0.0
210
0.0
220
0.0
230
1.0
 40
1.0
 41
0.0
 42
6.283185307179586
  0
ELLIPSE
  5
D5
330
1F
100
AcDbEntity
  8
Layer 1
370
    20
100
AcDbEllipse
 10
5.45
 20
4.9
 30
0.0
 11
0.0
 21
0.3
 31
0.0
210
0.0
220
0.0
230
1.0
 40
1.0
 41
0.0
 42
6.283185307179586
  0
ELLIPSE
  5
D6
330
1F
100
AcDbEntity
  8
Layer 1
 62
     3
370
    20
100
AcDbEllipse
 10
7.25
 20
4.9
 30
0.0
 11
0.0
 21
0.7
 31
0.0
210
0.0
220
0.0
230
1.0
 40
1.0
 41
0.0
 42
6.283185307179586
  0
ELLIPSE
  5
D7
330
1F
100
AcDbEntity
  8
Layer 1
370
    20
100
AcDbEllipse
 10
7.25
 20
4.9
 30
0.0
 11
0.0
 21
0.3
 31
0.0
210
0.0
220
0.0
230
1.0
 40
1.0
 41
0.0
 42
6.283185307179586
  0
ELLIPSE
  5
D8
330
1F
100
AcDbEntity
  8
Layer 1
 62
     3
370
    20
100
AcDbEllipse
 10
9.05
 20
4.9
 30
0.0
 11
0.0
 21
0.7
 31
0.0
210
0.0
220
0.0
230
1.0
 40
1.0
 41
0.0
 42
6.283185307179586
  0
ELLIPSE
  5
D9
330
1F
100
AcDbEntity
  8
Layer 1
370
    20
100
AcDbEllipse
 10
9.05
 20
4.9
 30
0.0
 11
0.0
 21
0.3
 31
0.0
210
0.0
220
0.0
230
1.0
 40
1.0
 41
0.0
 42
6.283185307179586
  0
ELLIPSE
  5
DA
330
1F
100
AcDbEntity
  8
Layer 1
 62
     3
370
    20
100
AcDbEllipse
 10
-8.95
 20
3.1
 30
0.0
 11
0.0
 21
0.7
 31
0.0
210
0.0
220
0.0
230
1.0
 40
1.0
 41
0.0
 42
6.283185307179586
  0
ELLIPSE
  5
DB
330
1F
100
AcDbEntity
  8
Layer 1
370
    20
100
AcDbEllipse
 10
-8.95
 20
3.1
 30
0.0
 11
0.0
 21
0.3
 31
0.0
210
0.0
220
0.0
230
1.0
 40
1.0
 41
0.0
 42
6.283185307179586
  0
ELLIPSE
  5
DC
330
1F
100
AcDbEntity
  8
Layer 1
 62
     3
370
    20
100
AcDbEllipse
 10
-7.15
 20
3.1
 30
0.0
 11
0.0
 21
0.7
 31
0.0
210
0.0
220
0.0
230
1.0
 40
1.0
 41
0.0
 42
6.283185307179586
  0
ELLIPSE
  5
DD
330
1F
100
AcDbEntity
  8
Layer 1
370
    20
100
AcDbEllipse
 10
-7.15
 20
3.1
 30
0.0
 11
0.0
 21
0.3
 31
0.0
210
0.0
220
0.0
230
1.0
 40
1.0
 41
0.0
 42
6.283185307179586
  0
ELLIPSE
  5
DE
330
1F
100
AcDbEntity
  8
Layer 1
 62
     3
370
    20
100
AcDbEllipse
 10
-5.35
 20
3.1
 30
0.0
 11
0.0
 21
0.7
 31
0.0
210
0.0
220
0.0
230
1.0
 40
1.0
 41
0.0
 42
6.283185307179586
  0
ELLIPSE
  5
DF
330
1F
100
AcDbEntity
  8
Layer 1
370
    20
100
AcDbEllipse
 10
-5.35
 20
3.1
 30
0.0
 11
0.0
 21
0.3
 31
0.0
210
0.0
220
0.0
230
1.0
 40
1.0
 41
0.0
 42
6.283185307179586
  0
ELLIPSE
  5
E0
330
1F
100
AcDbEntity
  8
Layer 1
 62
     3
370
    20
100
AcDbEllipse
 10
-3.55
 20
3.1
 30
0.0
 11
0.0
 21
0.7
 31
0.0
210
0.0
220
0.0
230
1.0
 40
1.0
 41
0.0
 42
6.283185307179586
  0
ELLIPSE
  5
E1
330
1F
100
AcDbEntity
  8
Layer 1
370
    20
100
AcDbEllipse
 10
-3.55
 20
3.1
 30
0.0
 11
0.0
 21
0.3
 31
0.0
210
0.0
220
0.0
230
1.0
 40
1.0
 41
0.0
 42
6.283185307179586
  0
ELLIPSE
  5
E2
330
1F
100
AcDbEntity
  8
Layer 1
 62
     3
370
    20
100
AcDbEllipse
 10
-1.75
 20
3.1
 30
0.0
 11
0.0
 21
0.7
 31
0.0
210
0.0
220
0.0
230
1.0
 40
1.0
 41
0.0
 42
6.283185307179586
  0
ELLIPSE
  5
E3
330
1F
100
AcDbEntity
  8
Layer 1
370
    20
100
AcDbEllipse
 10
-1.75
 20
3.1
 30
0.0
 11
0.0
 21
0.3
 31
0.0
210
0.0
220
0.0
230
1.0
 40
1.0
 41
0.0
 42
6.283185307179586
  0
ELLIPSE
  5
E4
330
1F
100
AcDbEntity
  8
Layer 1
 62
     3
370
    20
100
AcDbEllipse
 10
0.05
 20
3.1
 30
0.0
 11
0.0
 21
0.7
 31
0.0
210
0.0
220
0.0
230
1.0
 40
1.0
 41
0.0
 42
6.283185307179586
  0
ELLIPSE
  5
E5
330
1F
100
AcDbEntity
  8
Layer 1
370
    20
100
AcDbEllipse
 10
0.05
 20
3.1
 30
0.0
 11
0.0
 21
0.3
 31
0.0
210
0.0
220
0.0
230
1.0
 40
1.0
 41
0.0
 42
6.283185307179586
  0
ELLIPSE
  5
E6
330
1F
100
AcDbEntity
  8
Layer 1
 62
     3
370
    20
100
AcDbEllipse
 10
1.85
 20
3.1
 30
0.0
 11
0.0
 21
0.7
 31
0.0
210
0.0
220
0.0
230
1.0
 40
1.0
 41
0.0
 42
6.283185307179586
  0
ELLIPSE
  5
E7
330
1F
100
AcDbEntity
  8
Layer 1
370
    20
100
AcDbEllipse
 10
1.85
 20
3.1
 30
0.0
 11
0.0
 21
0.3
 31
0.0
210
0.0
220
0.0
230
1.0
 40
1.0
 41
0.0
 42
6.283185307179586
  0
ELLIPSE
  5
E8
330
1F
100
AcDbEntity
  8
Layer 1
 62
     3
370
    20
100
AcDbEllipse
 10
3.65
 20
3.1
 30
0.0
 11
0.0
 21
0.7
 31
0.0
210
0.0
220
0.0
230
1.0
 40
1.0
 41
0.0
 42
6.283185307179586
  0
ELLIPSE
  5
E9
330
1F
100
AcDbEntity
  8
Layer 1
370
    20
100
AcDbEllipse
 10
3.65
 20
3.1
 30
0.0
 11
0.0
 21
0.3
 31
0.0
210
0.0
220
0.0
230
1.0
 40
1.0
 41
0.0
 42
6.283185307179586
  0
ELLIPSE
  5
EA
330
1F
100
AcDbEntity
  8
Layer 1
 62
     3
370
    20
100
AcDbEllipse
 10
5.45
 20
3.1
 30
0.0
 11
0.0
 21
0.7
 31
0.0
210
0.0
220
0.0
230
1.0
 40
1.0
 41
0.0
 42
6.283185307179586
  0
ELLIPSE
  5
EB
330
1F
100
AcDbEntity
  8
Layer 1
370
    20
100
AcDbEllipse
 10
5.45
 20
3.1
 30
0.0
 11
0.0
 21
0.3
 31
0.0
210
0.0
220
0.0
230
1.0
 40
1.0
 41
0.0
 42
6.283185307179586
  0
ELLIPSE
  5
EC
330
1F
100
AcDbEntity
  8
Layer 1
 62
     3
370
    20
100
AcDbEllipse
 10
7.25
 20
3.1
 30
0.0
 11
0.0
 21
0.7
 31
0.0
210
0.0
220
0.0
230
1.0
 40
1.0
 41
0.0
 42
6.283185307179586
  0
ELLIPSE
  5
ED
330
1F
100
AcDbEntity
  8
Layer 1
370
    20
100
AcDbEllipse
 10
7.25
 20
3.1
 30
0.0
 11
0.0
 21
0.3
 31
0.0
210
0.0
220
0.0
230
1.0
 40
1.0
 41
0.0
 42
6.283185307179586
  0
ELLIPSE
  5
EE
330
1F
100
AcDbEntity
  8
Layer 1
 62
     3
370
    20
100
AcDbEllipse
 10
9.05
 20
3.1
 30
0.0
 11
0.0
 21
0.7
 31
0.0
210
0.0
220
0.0
230
1.0
 40
1.0
 41
0.0
 42
6.283185307179586
  0
ELLIPSE
  5
EF
330
1F
100
AcDbEntity
  8
Layer 1
370
    20
100
AcDbEllipse
 10
9.05
 20
3.1
 30
0.0
 11
0.0
 21
0.3
 31
0.0
210
0.0
220
0.0
230
1.0
 40
1.0
 41
0.0
 42
6.283185307179586
  0
ELLIPSE
  5
F0
330
1F
100
AcDbEntity
  8
Layer 1
 62
     3
370
    20
100
AcDbEllipse
 10
-8.95
 20
1.3
 30
0.0
 11
0.0
 21
0.7
 31
0.0
210
0.0
220
0.0
230
1.0
 40
1.0
 41
0.0
 42
6.283185307179586
  0
ELLIPSE
  5
F1
330
1F
100
AcDbEntity
  8
Layer 1
370
    20
100
AcDbEllipse
 10
-8.95
 20
1.3
 30
0.0
 11
0.0
 21
0.3
 31
0.0
210
0.0
220
0.0
230
1.0
 40
1.0
 41
0.0
 42
6.283185307179586
  0
ELLIPSE
  5
F2
330
1F
100
AcDbEntity
  8
Layer 1
 62
     3
370
    20
100
AcDbEllipse
 10
-7.15
 20
1.3
 30
0.0
 11
0.0
 21
0.7
 31
0.0
210
0.0
220
0.0
230
1.0
 40
1.0
 41
0.0
 42
6.283185307179586
  0
ELLIPSE
  5
F3
330
1F
100
AcDbEntity
  8
Layer 1
370
    20
100
AcDbEllipse
 10
-7.15
 20
1.3
 30
0.0
 11
0.0
 21
0.3
 31
0.0
210
0.0
220
0.0
230
1.0
 40
1.0
 41
0.0
 42
6.283185307179586
  0
ELLIPSE
  5
F4
330
1F
100
AcDbEntity
  8
Layer 1
 62
     3
370
    20
100
AcDbEllipse
 10
-5.35
 20
1.3
 30
0.0
 11
0.0
 21
0.7
 31
0.0
210
0.0
220
0.0
230
1.0
 40
1.0
 41
0.0
 42
6.283185307179586
  0
ELLIPSE
  5
F5
330
1F
100
AcDbEntity
  8
Layer 1
370
    20
100
AcDbEllipse
 10
-5.35
 20
1.3
 30
0.0
 11
0.0
 21
0.3
 31
0.0
210
0.0
220
0.0
230
1.0
 40
1.0
 41
0.0
 42
6.283185307179586
  0
ELLIPSE
  5
F6
330
1F
100
AcDbEntity
  8
Layer 1
 62
     3
370
    20
100
AcDbEllipse
 10
-3.55
 20
1.3
 30
0.0
 11
0.0
 21
0.7
 31
0.0
210
0.0
220
0.0
230
1.0
 40
1.0
 41
0.0
 42
6.283185307179586
  0
ELLIPSE
  5
F7
330
1F
100
AcDbEntity
  8
Layer 1
370
    20
100
AcDbEllipse
 10
-3.55
 20
1.3
 30
0.0
 11
0.0
 21
0.3
 31
0.0
210
0.0
220
0.0
230
1.0
 40
1.0
 41
0.0
 42
6.283185307179586
  0
ELLIPSE
  5
F8
330
1F
100
AcDbEntity
  8
Layer 1
 62
     3
370
    20
100
AcDbEllipse
 10
-1.75
 20
1.3
 30
0.0
 11
0.0
 21
0.7
 31
0.0
210
0.0
220
0.0
230
1.0
 40
1.0
 41
0.0
 42
6.283185307179586
  0
ELLIPSE
  5
F9
330
1F
100
AcDbEntity
  8
Layer 1
370
    20
100
AcDbEllipse
 10
-1.75
 20
1.3
 30
0.0
 11
0.0
 21
0.3
 31
0.0
210
0.0
220
0.0
230
1.0
 40
1.0
 41
0.0
 42
6.283185307179586
  0
ELLIPSE
  5
FA
330
1F
100
AcDbEntity
  8
Layer 1
 62
     3
370
    20
100
AcDbEllipse
 10
0.05
 20
1.3
 30
0.0
 11
0.0
 21
0.7
 31
0.0
210
0.0
220
0.0
230
1.0
 40
1.0
 41
0.0
 42
6.283185307179586
  0
ELLIPSE
  5
FB
330
1F
100
AcDbEntity
  8
Layer 1
370
    20
100
AcDbEllipse
 10
0.05
 20
1.3
 30
0.0
 11
0.0
 21
0.3
 31
0.0
210
0.0
220
0.0
230
1.0
 40
1.0
 41
0.0
 42
6.283185307179586
  0
ELLIPSE
  5
FC
330
1F
100
AcDbEntity
  8
Layer 1
 62
     3
370
    20
100
AcDbEllipse
 10
1.85
 20
1.3
 30
0.0
 11
0.0
 21
0.7
 31
0.0
210
0.0
220
0.0
230
1.0
 40
1.0
 41
0.0
 42
6.283185307179586
  0
ELLIPSE
  5
FD
330
1F
100
AcDbEntity
  8
Layer 1
370
    20
100
AcDbEllipse
 10
1.85
 20
1.3
 30
0.0
 11
0.0
 21
0.3
 31
0.0
210
0.0
220
0.0
230
1.0
 40
1.0
 41
0.0
 42
6.283185307179586
  0
ELLIPSE
  5
FE
330
1F
100
AcDbEntity
  8
Layer 1
 62
     3
370
    20
100
AcDbEllipse
 10
3.65
 20
1.3
 30
0.0
 11
0.0
 21
0.7
 31
0.0
210
0.0
220
0.0
230
1.0
 40
1.0
 41
0.0
 42
6.283185307179586
  0
ELLIPSE
  5
FF
330
1F
100
AcDbEntity
  8
Layer 1
370
    20
100
AcDbEllipse
 10
3.65
 20
1.3
 30
0.0
 11
0.0
 21
0.3
 31
0.0
210
0.0
220
0.0
230
1.0
 40
1.0
 41
0.0
 42
6.283185307179586
  0
ELLIPSE
  5
100
330
1F
100
AcDbEntity
  8
Layer 1
 62
     3
370
    20
100
AcDbEllipse
 10
5.45
 20
1.3
 30
0.0
 11
0.0
 21
0.7
 31
0.0
210
0.0
220
0.0
230
1.0
 40
1.0
 41
0.0
 42
6.283185307179586
  0
ELLIPSE
  5
101
330
1F
100
AcDbEntity
  8
Layer 1
370
    20
100
AcDbEllipse
 10
5.45
 20
1.3
 30
0.0
 11
0.0
 21
0.3
 31
0.0
210
0.0
220
0.0
230
1.0
 40
1.0
 41
0.0
 42
6.283185307179586
  0
ELLIPSE
  5
102
330
1F
100
AcDbEntity
  8
Layer 1
 62
     3
370
    20
100
AcDbEllipse
 10
7.25
 20
1.3
 30
0.0
 11
0.0
 21
0.7
 31
0.0
210
0.0
220
0.0
230
1.0
 40
1.0
 41
0.0
 42
6.283185307179586
  0
ELLIPSE
  5
103
330
1F
100
AcDbEntity
  8
Layer 1
370
    20
100
AcDbEllipse
 10
7.25
 20
1.3
 30
0.0
 11
0.0
 21
0.3
 31
0.0
210
0.0
220
0.0
230
1.0
 40
1.0
 41
0.0
 42
6.283185307179586
  0
ELLIPSE
  5
104
330
1F
100
AcDbEntity
  8
Layer 1
 62
     3
370
    20
100
AcDbEllipse
 10
9.05
 20
1.3
 30
0.0
 11
0.0
 21
0.7
 31
0.0
210
0.0
220
0.0
230
1.0
 40
1.0
 41
0.0
 42
6.283185307179586
  0
ELLIPSE
  5
105
330
1F
100
AcDbEntity
  8
Layer 1
370
    20
100
AcDbEllipse
 10
9.05
 20
1.3
 30
0.0
 11
0.0
 21
0.3
 31
0.0
210
0.0
220
0.0
230
1.0
 40
1.0
 41
0.0
 42
6.283185307179586
  0
ELLIPSE
  5
106
330
1F
100
AcDbEntity
  8
Layer 1
 62
     3
370
    20
100
AcDbEllipse
 10
-8.95
 20
-0.5
 30
0.0
 11
0.0
 21
0.7
 31
0.0
210
0.0
220
0.0
230
1.0
 40
1.0
 41
0.0
 42
6.283185307179586
  0
ELLIPSE
  5
107
330
1F
100
AcDbEntity
  8
Layer 1
370
    20
100
AcDbEllipse
 10
-8.95
 20
-0.5
 30
0.0
 11
0.0
 21
0.3
 31
0.0
210
0.0
220
0.0
230
1.0
 40
1.0
 41
0.0
 42
6.283185307179586
  0
ELLIPSE
  5
108
330
1F
100
AcDbEntity
  8
Layer 1
 62
     3
370
    20
100
AcDbEllipse
 10
-7.15
 20
-0.5
 30
0.0
 11
0.0
 21
0.7
 31
0.0
210
0.0
220
0.0
230
1.0
 40
1.0
 41
0.0
 42
6.283185307179586
  0
ELLIPSE
  5
109
330
1F
100
AcDbEntity
  8
Layer 1
370
    20
100
AcDbEllipse
 10
-7.15
 20
-0.5
 30
0.0
 11
0.0
 21
0.3
 31
0.0
210
0.0
220
0.0
230
1.0
 40
1.0
 41
0.0
 42
6.283185307179586
  0
ELLIPSE
  5
10A
330
1F
100
AcDbEntity
  8
Layer 1
 62
     3
370
    20
100
AcDbEllipse
 10
-5.35
 20
-0.5
 30
0.0
 11
0.0
 21
0.7
 31
0.0
210
0.0
220
0.0
230
1.0
 40
1.0
 41
0.0
 42
6.283185307179586
  0
ELLIPSE
  5
10B
330
1F
100
AcDbEntity
  8
Layer 1
370
    20
100
AcDbEllipse
 10
-5.35
 20
-0.5
 30
0.0
 11
0.0
 21
0.3
 31
0.0
210
0.0
220
0.0
230
1.0
 40
1.0
 41
0.0
 42
6.283185307179586
  0
ELLIPSE
  5
10C
330
1F
100
AcDbEntity
  8
Layer 1
 62
     3
370
    20
100
AcDbEllipse
 10
-3.55
 20
-0.5
 30
0.0
 11
0.0
 21
0.7
 31
0.0
210
0.0
220
0.0
230
1.0
 40
1.0
 41
0.0
 42
6.283185307179586
  0
ELLIPSE
  5
10D
330
1F
100
AcDbEntity
  8
Layer 1
370
    20
100
AcDbEllipse
 10
-3.55
 20
-0.5
 30
0.0
 11
0.0
 21
0.3
 31
0.0
210
0.0
220
0.0
230
1.0
 40
1.0
 41
0.0
 42
6.283185307179586
  0
ELLIPSE
  5
10E
330
1F
100
AcDbEntity
  8
Layer 1
 62
     3
370
    20
100
AcDbEllipse
 10
-1.75
 20
-0.5
 30
0.0
 11
0.0
 21
0.7
 31
0.0
210
0.0
220
0.0
230
1.0
 40
1.0
 41
0.0
 42
6.283185307179586
  0
ELLIPSE
  5
10F
330
1F
100
AcDbEntity
  8
Layer 1
370
    20
100
AcDbEllipse
 10
-1.75
 20
-0.5
 30
0.0
 11
0.0
 21
0.3
 31
0.0
210
0.0
220
0.0
230
1.0
 40
1.0
 41
0.0
 42
6.283185307179586
  0
ELLIPSE
  5
110
330
1F
100
AcDbEntity
  8
Layer 1
 62
     3
370
    20
100
AcDbEllipse
 10
0.05
 20
-0.5
 30
0.0
 11
0.0
 21
0.7
 31
0.0
210
0.0
220
0.0
230
1.0
 40
1.0
 41
0.0
 42
6.283185307179586
  0
ELLIPSE
  5
111
330
1F
100
AcDbEntity
  8
Layer 1
370
    20
100
AcDbEllipse
 10
0.05
 20
-0.5
 30
0.0
 11
0.0
 21
0.3
 31
0.0
210
0.0
220
0.0
230
1.0
 40
1.0
 41
0.0
 42
6.283185307179586
  0
ELLIPSE
  5
112
330
1F
100
AcDbEntity
  8
Layer 1
 62
     3
370
    20
100
AcDbEllipse
 10
1.85
 20
-0.5
 30
0.0
 11
0.0
 21
0.7
 31
0.0
210
0.0
220
0.0
230
1.0
 40
1.0
 41
0.0
 42
6.283185307179586
  0
ELLIPSE
  5
113
330
1F
100
AcDbEntity
  8
Layer 1
370
    20
100
AcDbEllipse
 10
1.85
 20
-0.5
 30
0.0
 11
0.0
 21
0.3
 31
0.0
210
0.0
220
0.0
230
1.0
 40
1.0
 41
0.0
 42
6.283185307179586
  0
ELLIPSE
  5
114
330
1F
100
AcDbEntity
  8
Layer 1
 62
     3
370
    20
100
AcDbEllipse
 10
3.65
 20
-0.5
 30
0.0
 11
0.0
 21
0.7
 31
0.0
210
0.0
220
0.0
230
1.0
 40
1.0
 41
0.0
 42
6.283185307179586
  0
ELLIPSE
  5
115
330
1F
100
AcDbEntity
  8
Layer 1
370
    20
100
AcDbEllipse
 10
3.65
 20
-0.5
 30
0.0
 11
0.0
 21
0.3
 31
0.0
210
0.0
220
0.0
230
1.0
 40
1.0
 41
0.0
 42
6.283185307179586
  0
ELLIPSE
  5
116
330
1F
100
AcDbEntity
  8
Layer 1
 62
     3
370
    20
100
AcDbEllipse
 10
5.45
 20
-0.5
 30
0.0
 11
0.0
 21
0.7
 31
0.0
210
0.0
220
0.0
230
1.0
 40
1.0
 41
0.0
 42
6.283185307179586
  0
ELLIPSE
  5
117
330
1F
100
AcDbEntity
  8
Layer 1
370
    20
100
AcDbEllipse
 10
5.45
 20
-0.5
 30
0.0
 11
0.0
 21
0.3
 31
0.0
210
0.0
220
0.0
230
1.0
 40
1.0
 41
0.0
 42
6.283185307179586
  0
ELLIPSE
  5
118
330
1F
100
AcDbEntity
  8
Layer 1
 62
     3
370
    20
100
AcDbEllipse
 10
7.25
 20
-0.5
 30
0.0
 11
0.0
 21
0.7
 31
0.0
210
0.0
220
0.0
230
1.0
 40
1.0
 41
0.0
 42
6.283185307179586
  0
ELLIPSE
  5
119
330
1F
100
AcDbEntity
  8
Layer 1
370
    20
100
AcDbEllipse
 10
7.25
 20
-0.5
 30
0.0
 11
0.0
 21
0.3
 31
0.0
210
0.0
220
0.0
230
1.0
 40
1.0
 41
0.0
 42
6.283185307179586
  0
ELLIPSE
  5
11A
330
1F
100
AcDbEntity
  8
Layer 1
 62
     3
370
    20
100
AcDbEllipse
 10
9.05
 20
-0.5
 30
0.0
 11
0.0
 21
0.7
 31
0.0
210
0.0
220
0.0
230
1.0
 40
1.0
 41
0.0
 42
6.283185307179586
  0
ELLIPSE
  5
11B
330
1F
100
AcDbEntity
  8
Layer 1
370
    20
100
AcDbEllipse
 10
9.05
 20
-0.5
 30
0.0
 11
0.0
 21
0.3
 31
0.0
210
0.0
220
0.0
230
1.0
 40
1.0
 41
0.0
 42
6.283185307179586
  0
ELLIPSE
  5
11C
330
1F
100
AcDbEntity
  8
Layer 1
 62
     3
370
    20
100
AcDbEllipse
 10
-8.95
 20
-2.3
 30
0.0
 11
0.0
 21
0.7
 31
0.0
210
0.0
220
0.0
230
1.0
 40
1.0
 41
0.0
 42
6.283185307179586
  0
ELLIPSE
  5
11D
330
1F
100
AcDbEntity
  8
Layer 1
370
    20
100
AcDbEllipse
 10
-8.95
 20
-2.3
 30
0.0
 11
0.0
 21
0.3
 31
0.0
210
0.0
220
0.0
230
1.0
 40
1.0
 41
0.0
 42
6.283185307179586
  0
ELLIPSE
  5
11E
330
1F
100
AcDbEntity
  8
Layer 1
 62
     3
370
    20
100
AcDbEllipse
 10
-7.15
 20
-2.3
 30
0.0
 11
0.0
 21
0.7
 31
0.0
210
0.0
220
0.0
230
1.0
 40
1.0
 41
0.0
 42
6.283185307179586
  0
ELLIPSE
  5
11F
330
1F
100
AcDbEntity
  8
Layer 1
370
    20
100
AcDbEllipse
 10
-7.15
 20
-2.3
 30
0.0
 11
0.0
 21
0.3
 31
0.0
210
0.0
220
0.0
230
1.0
 40
1.0
 41
0.0
 42
6.283185307179586
  0
ELLIPSE
  5
120
330
1F
100
AcDbEntity
  8
Layer 1
 62
     3
370
    20
100
AcDbEllipse
 10
-5.35
 20
-2.3
 30
0.0
 11
0.0
 21
0.7
 31
0.0
210
0.0
220
0.0
230
1.0
 40
1.0
 41
0.0
 42
6.283185307179586
  0
ELLIPSE
  5
121
330
1F
100
AcDbEntity
  8
Layer 1
370
    20
100
AcDbEllipse
 10
-5.35
 20
-2.3
 30
0.0
 11
0.0
 21
0.3
 31
0.0
210
0.0
220
0.0
230
1.0
 40
1.0
 41
0.0
 42
6.283185307179586
  0
ELLIPSE
  5
122
330
1F
100
AcDbEntity
  8
Layer 1
 62
     3
370
    20
100
AcDbEllipse
 10
-3.55
 20
-2.3
 30
0.0
 11
0.0
 21
0.7
 31
0.0
210
0.0
220
0.0
230
1.0
 40
1.0
 41
0.0
 42
6.283185307179586
  0
ELLIPSE
  5
123
330
1F
100
AcDbEntity
  8
Layer 1
370
    20
100
AcDbEllipse
 10
-3.55
 20
-2.3
 30
0.0
 11
0.0
 21
0.3
 31
0.0
210
0.0
220
0.0
230
1.0
 40
1.0
 41
0.0
 42
6.283185307179586
  0
ELLIPSE
  5
124
330
1F
100
AcDbEntity
  8
Layer 1
 62
     3
370
    20
100
AcDbEllipse
 10
-1.75
 20
-2.3
 30
0.0
 11
0.0
 21
0.7
 31
0.0
210
0.0
220
0.0
230
1.0
 40
1.0
 41
0.0
 42
6.283185307179586
  0
ELLIPSE
  5
125
330
1F
100
AcDbEntity
  8
Layer 1
370
    20
100
AcDbEllipse
 10
-1.75
 20
-2.3
 30
0.0
 11
0.0
 21
0.3
 31
0.0
210
0.0
220
0.0
230
1.0
 40
1.0
 41
0.0
 42
6.283185307179586
  0
ELLIPSE
  5
126
330
1F
100
AcDbEntity
  8
Layer 1
 62
     3
370
    20
100
AcDbEllipse
 10
0.05
 20
-2.3
 30
0.0
 11
0.0
 21
0.7
 31
0.0
210
0.0
220
0.0
230
1.0
 40
1.0
 41
0.0
 42
6.283185307179586
  0
ELLIPSE
  5
127
330
1F
100
AcDbEntity
  8
Layer 1
370
    20
100
AcDbEllipse
 10
0.05
 20
-2.3
 30
0.0
 11
0.0
 21
0.3
 31
0.0
210
0.0
220
0.0
230
1.0
 40
1.0
 41
0.0
 42
6.283185307179586
  0
ELLIPSE
  5
128
330
1F
100
AcDbEntity
  8
Layer 1
 62
     3
370
    20
100
AcDbEllipse
 10
1.85
 20
-2.3
 30
0.0
 11
0.0
 21
0.7
 31
0.0
210
0.0
220
0.0
230
1.0
 40
1.0
 41
0.0
 42
6.283185307179586
  0
ELLIPSE
  5
129
330
1F
100
AcDbEntity
  8
Layer 1
370
    20
100
AcDbEllipse
 10
1.85
 20
-2.3
 30
0.0
 11
0.0
 21
0.3
 31
0.0
210
0.0
220
0.0
230
1.0
 40
1.0
 41
0.0
 42
6.283185307179586
  0
ELLIPSE
  5
12A
330
1F
100
AcDbEntity
  8
Layer 1
 62
     3
370
    20
100
AcDbEllipse
 10
3.65
 20
-2.3
 30
0.0
 11
0.0
 21
0.7
 31
0.0
210
0.0
220
0.0
230
1.0
 40
1.0
 41
0.0
 42
6.283185307179586
  0
ELLIPSE
  5
12B
330
1F
100
AcDbEntity
  8
Layer 1
370
    20
100
AcDbEllipse
 10
3.65
 20
-2.3
 30
0.0
 11
0.0
 21
0.3
 31
0.0
210
0.0
220
0.0
230
1.0
 40
1.0
 41
0.0
 42
6.283185307179586
  0
ELLIPSE
  5
12C
330
1F
100
AcDbEntity
  8
Layer 1
 62
     3
370
    20
100
AcDbEllipse
 10
5.45
 20
-2.3
 30
0.0
 11
0.0
 21
0.7
 31
0.0
210
0.0
220
0.0
230
1.0
 40
1.0
 41
0.0
 42
6.283185307179586
  0
ELLIPSE
  5
12D
330
1F
100
AcDbEntity
  8
Layer 1
370
    20
100
AcDbEllipse
 10
5.45
 20
-2.3
 30
0.0
 11
0.0
 21
0.3
 31
0.0
210
0.0
220
0.0
230
1.0
 40
1.0
 41
0.0
 42
6.283185307179586
  0
ELLIPSE
  5
12E
330
1F
100
AcDbEntity
  8
Layer 1
 62
     3
370
    20
100
AcDbEllipse
 10
7.25
 20
-2.3
 30
0.0
 11
0.0
 21
0.7
 31
0.0
210
0.0
220
0.0
230
1.0
 40
1.0
 41
0.0
 42
6.283185307179586
  0
ELLIPSE
  5
12F
330
1F
100
AcDbEntity
  8
Layer 1
370
    20
100
AcDbEllipse
 10
7.25
 20
-2.3
 30
0.0
 11
0.0
 21
0.3
 31
0.0
210
0.0
220
0.0
230
1.0
 40
1.0
 41
0.0
 42
6.283185307179586
  0
ELLIPSE
  5
130
330
1F
100
AcDbEntity
  8
Layer 1
 62
     3
370
    20
100
AcDbEllipse
 10
9.05
 20
-2.3
 30
0.0
 11
0.0
 21
0.7
 31
0.0
210
0.0
220
0.0
230
1.0
 40
1.0
 41
0.0
 42
6.283185307179586
  0
ELLIPSE
  5
131
330
1F
100
AcDbEntity
  8
Layer 1
370
    20
100
AcDbEllipse
 10
9.05
 20
-2.3
 30
0.0
 11
0.0
 21
0.3
 31
0.0
210
0.0
220
0.0
230
1.0
 40
1.0
 41
0.0
 42
6.283185307179586
  0
ELLIPSE
  5
132
330
1F
100
AcDbEntity
  8
Layer 1
 62
     3
370
    20
100
AcDbEllipse
 10
-8.95
 20
-4.1
 30
0.0
 11
0.0
 21
0.7
 31
0.0
210
0.0
220
0.0
230
1.0
 40
1.0
 41
0.0
 42
6.283185307179586
  0
ELLIPSE
  5
133
330
1F
100
AcDbEntity
  8
Layer 1
370
    20
100
AcDbEllipse
 10
-8.95
 20
-4.1
 30
0.0
 11
0.0
 21
0.3
 31
0.0
210
0.0
220
0.0
230
1.0
 40
1.0
 41
0.0
 42
6.283185307179586
  0
ELLIPSE
  5
134
330
1F
100
AcDbEntity
  8
Layer 1
 62
     3
370
    20
100
AcDbEllipse
 10
-7.15
 20
-4.1
 30
0.0
 11
0.0
 21
0.7
 31
0.0
210
0.0
220
0.0
230
1.0
 40
1.0
 41
0.0
 42
6.283185307179586
  0
ELLIPSE
  5
135
330
1F
100
AcDbEntity
  8
Layer 1
370
    20
100
AcDbEllipse
 10
-7.15
 20
-4.1
 30
0.0
 11
0.0
 21
0.3
 31
0.0
210
0.0
220
0.0
230
1.0
 40
1.0
 41
0.0
 42
6.283185307179586
  0
ELLIPSE
  5
136
330
1F
100
AcDbEntity
  8
Layer 1
 62
     3
370
    20
100
AcDbEllipse
 10
-5.35
 20
-4.1
 30
0.0
 11
0.0
 21
0.7
 31
0.0
210
0.0
220
0.0
230
1.0
 40
1.0
 41
0.0
 42
6.283185307179586
  0
ELLIPSE
  5
137
330
1F
100
AcDbEntity
  8
Layer 1
370
    20
100
AcDbEllipse
 10
-5.35
 20
-4.1
 30
0.0
 11
0.0
 21
0.3
 31
0.0
210
0.0
220
0.0
230
1.0
 40
1.0
 41
0.0
 42
6.283185307179586
  0
ELLIPSE
  5
138
330
1F
100
AcDbEntity
  8
Layer 1
 62
     3
370
    20
100
AcDbEllipse
 10
-3.55
 20
-4.1
 30
0.0
 11
0.0
 21
0.7
 31
0.0
210
0.0
220
0.0
230
1.0
 40
1.0
 41
0.0
 42
6.283185307179586
  0
ELLIPSE
  5
139
330
1F
100
AcDbEntity
  8
Layer 1
370
    20
100
AcDbEllipse
 10
-3.55
 20
-4.1
 30
0.0
 11
0.0
 21
0.3
 31
0.0
210
0.0
220
0.0
230
1.0
 40
1.0
 41
0.0
 42
6.283185307179586
  0
ELLIPSE
  5
13A
330
1F
100
AcDbEntity
  8
Layer 1
 62
     3
370
    20
100
AcDbEllipse
 10
-1.75
 20
-4.1
 30
0.0
 11
0.0
 21
0.7
 31
0.0
210
0.0
220
0.0
230
1.0
 40
1.0
 41
0.0
 42
6.283185307179586
  0
ELLIPSE
  5
13B
330
1F
100
AcDbEntity
  8
Layer 1
370
    20
100
AcDbEllipse
 10
-1.75
 20
-4.1
 30
0.0
 11
0.0
 21
0.3
 31
0.0
210
0.0
220
0.0
230
1.0
 40
1.0
 41
0.0
 42
6.283185307179586
  0
ELLIPSE
  5
13C
330
1F
100
AcDbEntity
  8
Layer 1
 62
     3
370
    20
100
AcDbEllipse
 10
0.05
 20
-4.1
 30
0.0
 11
0.0
 21
0.7
 31
0.0
210
0.0
220
0.0
230
1.0
 40
1.0
 41
0.0
 42
6.283185307179586
  0
ELLIPSE
  5
13D
330
1F
100
AcDbEntity
  8
Layer 1
370
    20
100
AcDbEllipse
 10
0.05
 20
-4.1
 30
0.0
 11
0.0
 21
0.3
 31
0.0
210
0.0
220
0.0
230
1.0
 40
1.0
 41
0.0
 42
6.283185307179586
  0
ELLIPSE
  5
13E
330
1F
100
AcDbEntity
  8
Layer 1
 62
     3
370
    20
100
AcDbEllipse
 10
1.85
 20
-4.1
 30
0.0
 11
0.0
 21
0.7
 31
0.0
210
0.0
220
0.0
230
1.0
 40
1.0
 41
0.0
 42
6.283185307179586
  0
ELLIPSE
  5
13F
330
1F
100
AcDbEntity
  8
Layer 1
370
    20
100
AcDbEllipse
 10
1.85
 20
-4.1
 30
0.0
 11
0.0
 21
0.3
 31
0.0
210
0.0
220
0.0
230
1.0
 40
1.0
 41
0.0
 42
6.283185307179586
  0
ELLIPSE
  5
140
330
1F
100
AcDbEntity
  8
Layer 1
 62
     3
370
    20
100
AcDbEllipse
 10
3.65
 20
-4.1
 30
0.0
 11
0.0
 21
0.7
 31
0.0
210
0.0
220
0.0
230
1.0
 40
1.0
 41
0.0
 42
6.283185307179586
  0
ELLIPSE
  5
141
330
1F
100
AcDbEntity
  8
Layer 1
370
    20
100
AcDbEllipse
 10
3.65
 20
-4.1
 30
0.0
 11
0.0
 21
0.3
 31
0.0
210
0.0
220
0.0
230
1.0
 40
1.0
 41
0.0
 42
6.283185307179586
  0
ELLIPSE
  5
142
330
1F
100
AcDbEntity
  8
Layer 1
 62
     3
370
    20
100
AcDbEllipse
 10
5.45
 20
-4.1
 30
0.0
 11
0.0
 21
0.7
 31
0.0
210
0.0
220
0.0
230
1.0
 40
1.0
 41
0.0
 42
6.283185307179586
  0
ELLIPSE
  5
143
330
1F
100
AcDbEntity
  8
Layer 1
370
    20
100
AcDbEllipse
 10
5.45
 20
-4.1
 30
0.0
 11
0.0
 21
0.3
 31
0.0
210
0.0
220
0.0
230
1.0
 40
1.0
 41
0.0
 42
6.283185307179586
  0
ELLIPSE
  5
144
330
1F
100
AcDbEntity
  8
Layer 1
 62
     3
370
    20
100
AcDbEllipse
 10
7.25
 20
-4.1
 30
0.0
 11
0.0
 21
0.7
 31
0.0
210
0.0
220
0.0
230
1.0
 40
1.0
 41
0.0
 42
6.283185307179586
  0
ELLIPSE
  5
145
330
1F
100
AcDbEntity
  8
Layer 1
370
    20
100
AcDbEllipse
 10
7.25
 20
-4.1
 30
0.0
 11
0.0
 21
0.3
 31
0.0
210
0.0
220
0.0
230
1.0
 40
1.0
 41
0.0
 42
6.283185307179586
  0
ELLIPSE
  5
146
330
1F
100
AcDbEntity
  8
Layer 1
 62
     3
370
    20
100
AcDbEllipse
 10
9.05
 20
-4.1
 30
0.0
 11
0.0
 21
0.7
 31
0.0
210
0.0
220
0.0
230
1.0
 40
1.0
 41
0.0
 42
6.283185307179586
  0
ELLIPSE
  5
147
330
1F
100
AcDbEntity
  8
Layer 1
370
    20
100
AcDbEllipse
 10
9.05
 20
-4.1
 30
0.0
 11
0.0
 21
0.3
 31
0.0
210
0.0
220
0.0
230
1.0
 40
1.0
 41
0.0
 42
6.283185307179586
  0
ELLIPSE
  5
148
330
1F
100
AcDbEntity
  8
Layer 1
 62
     3
370
    20
100
AcDbEllipse
 10
-8.95
 20
-5.9
 30
0.0
 11
0.0
 21
0.7
 31
0.0
210
0.0
220
0.0
230
1.0
 40
1.0
 41
0.0
 42
6.283185307179586
  0
ELLIPSE
  5
149
330
1F
100
AcDbEntity
  8
Layer 1
370
    20
100
AcDbEllipse
 10
-8.95
 20
-5.9
 30
0.0
 11
0.0
 21
0.3
 31
0.0
210
0.0
220
0.0
230
1.0
 40
1.0
 41
0.0
 42
6.283185307179586
  0
ELLIPSE
  5
14A
330
1F
100
AcDbEntity
  8
Layer 1
 62
     3
370
    20
100
AcDbEllipse
 10
-7.15
 20
-5.9
 30
0.0
 11
0.0
 21
0.7
 31
0.0
210
0.0
220
0.0
230
1.0
 40
1.0
 41
0.0
 42
6.283185307179586
  0
ELLIPSE
  5
14B
330
1F
100
AcDbEntity
  8
Layer 1
370
    20
100
AcDbEllipse
 10
-7.15
 20
-5.9
 30
0.0
 11
0.0
 21
0.3
 31
0.0
210
0.0
220
0.0
230
1.0
 40
1.0
 41
0.0
 42
6.283185307179586
  0
ELLIPSE
  5
14C
330
1F
100
AcDbEntity
  8
Layer 1
 62
     3
370
    20
100
AcDbEllipse
 10
-5.35
 20
-5.9
 30
0.0
 11
0.0
 21
0.7
 31
0.0
210
0.0
220
0.0
230
1.0
 40
1.0
 41
0.0
 42
6.283185307179586
  0
ELLIPSE
  5
14D
330
1F
100
AcDbEntity
  8
Layer 1
370
    20
100
AcDbEllipse
 10
-5.35
 20
-5.9
 30
0.0
 11
0.0
 21
0.3
 31
0.0
210
0.0
220
0.0
230
1.0
 40
1.0
 41
0.0
 42
6.283185307179586
  0
ELLIPSE
  5
14E
330
1F
100
AcDbEntity
  8
Layer 1
 62
     3
370
    20
100
AcDbEllipse
 10
-3.55
 20
-5.9
 30
0.0
 11
0.0
 21
0.7
 31
0.0
210
0.0
220
0.0
230
1.0
 40
1.0
 41
0.0
 42
6.283185307179586
  0
ELLIPSE
  5
14F
330
1F
100
AcDbEntity
  8
Layer 1
370
    20
100
AcDbEllipse
 10
-3.55
 20
-5.9
 30
0.0
 11
0.0
 21
0.3
 31
0.0
210
0.0
220
0.0
230
1.0
 40
1.0
 41
0.0
 42
6.283185307179586
  0
ELLIPSE
  5
150
330
1F
100
AcDbEntity
  8
Layer 1
 62
     3
370
    20
100
AcDbEllipse
 10
-1.75
 20
-5.9
 30
0.0
 11
0.0
 21
0.7
 31
0.0
210
0.0
220
0.0
230
1.0
 40
1.0
 41
0.0
 42
6.283185307179586
  0
ELLIPSE
  5
151
330
1F
100
AcDbEntity
  8
Layer 1
370
    20
100
AcDbEllipse
 10
-1.75
 20
-5.9
 30
0.0
 11
0.0
 21
0.3
 31
0.0
210
0.0
220
0.0
230
1.0
 40
1.0
 41
0.0
 42
6.283185307179586
  0
ELLIPSE
  5
152
330
1F
100
AcDbEntity
  8
Layer 1
 62
     3
370
    20
100
AcDbEllipse
 10
0.05
 20
-5.9
 30
0.0
 11
0.0
 21
0.7
 31
0.0
210
0.0
220
0.0
230
1.0
 40
1.0
 41
0.0
 42
6.283185307179586
  0
ELLIPSE
  5
153
330
1F
100
AcDbEntity
  8
Layer 1
370
    20
100
AcDbEllipse
 10
0.05
 20
-5.9
 30
0.0
 11
0.0
 21
0.3
 31
0.0
210
0.0
220
0.0
230
1.0
 40
1.0
 41
0.0
 42
6.283185307179586
  0
ELLIPSE
  5
154
330
1F
100
AcDbEntity
  8
Layer 1
 62
     3
370
    20
100
AcDbEllipse
 10
1.85
 20
-5.9
 30
0.0
 11
0.0
 21
0.7
 31
0.0
210
0.0
220
0.0
230
1.0
 40
1.0
 41
0.0
 42
6.283185307179586
  0
ELLIPSE
  5
155
330
1F
100
AcDbEntity
  8
Layer 1
370
    20
100
AcDbEllipse
 10
1.85
 20
-5.9
 30
0.0
 11
0.0
 21
0.3
 31
0.0
210
0.0
220
0.0
230
1.0
 40
1.0
 41
0.0
 42
6.283185307179586
  0
ELLIPSE
  5
156
330
1F
100
AcDbEntity
  8
Layer 1
 62
     3
370
    20
100
AcDbEllipse
 10
3.65
 20
-5.9
 30
0.0
 11
0.0
 21
0.7
 31
0.0
210
0.0
220
0.0
230
1.0
 40
1.0
 41
0.0
 42
6.283185307179586
  0
ELLIPSE
  5
157
330
1F
100
AcDbEntity
  8
Layer 1
370
    20
100
AcDbEllipse
 10
3.65
 20
-5.9
 30
0.0
 11
0.0
 21
0.3
 31
0.0
210
0.0
220
0.0
230
1.0
 40
1.0
 41
0.0
 42
6.283185307179586
  0
ELLIPSE
  5
158
330
1F
100
AcDbEntity
  8
Layer 1
 62
     3
370
    20
100
AcDbEllipse
 10
5.45
 20
-5.9
 30
0.0
 11
0.0
 21
0.7
 31
0.0
210
0.0
220
0.0
230
1.0
 40
1.0
 41
0.0
 42
6.283185307179586
  0
ELLIPSE
  5
159
330
1F
100
AcDbEntity
  8
Layer 1
370
    20
100
AcDbEllipse
 10
5.45
 20
-5.9
 30
0.0
 11
0.0
 21
0.3
 31
0.0
210
0.0
220
0.0
230
1.0
 40
1.0
 41
0.0
 42
6.283185307179586
  0
ELLIPSE
  5
15A
330
1F
100
AcDbEntity
  8
Layer 1
 62
     3
370
    20
100
AcDbEllipse
 10
7.25
 20
-5.9
 30
0.0
 11
0.0
 21
0.7
 31
0.0
210
0.0
220
0.0
230
1.0
 40
1.0
 41
0.0
 42
6.283185307179586
  0
ELLIPSE
  5
15B
330
1F
100
AcDbEntity
  8
Layer 1
370
    20
100
AcDbEllipse
 10
7.25
 20
-5.9
 30
0.0
 11
0.0
 21
0.3
 31
0.0
210
0.0
220
0.0
230
1.0
 40
1.0
 41
0.0
 42
6.283185307179586
  0
ELLIPSE
  5
15C
330
1F
100
AcDbEntity
  8
Layer 1
 62
     3
370
    20
100
AcDbEllipse
 10
9.05
 20
-5.9
 30
0.0
 11
0.0
 21
0.7
 31
0.0
210
0.0
220
0.0
230
1.0
 40
1.0
 41
0.0
 42
6.283185307179586
  0
ELLIPSE
  5
15D
330
1F
100
AcDbEntity
  8
Layer 1
370
    20
100
AcDbEllipse
 10
9.05
 20
-5.9
 30
0.0
 11
0.0
 21
0.3
 31
0.0
210
0.0
220
0.0
230
1.0
 40
1.0
 41
0.0
 42
6.283185307179586
  0
ELLIPSE
  5
15E
330
1F
100
AcDbEntity
  8
Layer 1
 62
     3
370
    20
100
AcDbEllipse
 10
-8.95
 20
-7.7
 30
0.0
 11
0.0
 21
0.7
 31
0.0
210
0.0
220
0.0
230
1.0
 40
1.0
 41
0.0
 42
6.283185307179586
  0
ELLIPSE
  5
15F
330
1F
100
AcDbEntity
  8
Layer 1
370
    20
100
AcDbEllipse
 10
-8.95
 20
-7.7
 30
0.0
 11
0.0
 21
0.3
 31
0.0
210
0.0
220
0.0
230
1.0
 40
1.0
 41
0.0
 42
6.283185307179586
  0
ELLIPSE
  5
160
330
1F
100
AcDbEntity
  8
Layer 1
 62
     3
370
    20
100
AcDbEllipse
 10
-7.15
 20
-7.7
 30
0.0
 11
0.0
 21
0.7
 31
0.0
210
0.0
220
0.0
230
1.0
 40
1.0
 41
0.0
 42
6.283185307179586
  0
ELLIPSE
  5
161
330
1F
100
AcDbEntity
  8
Layer 1
370
    20
100
AcDbEllipse
 10
-7.15
 20
-7.7
 30
0.0
 11
0.0
 21
0.3
 31
0.0
210
0.0
220
0.0
230
1.0
 40
1.0
 41
0.0
 42
6.283185307179586
  0
ELLIPSE
  5
162
330
1F
100
AcDbEntity
  8
Layer 1
 62
     3
370
    20
100
AcDbEllipse
 10
-5.35
 20
-7.7
 30
0.0
 11
0.0
 21
0.7
 31
0.0
210
0.0
220
0.0
230
1.0
 40
1.0
 41
0.0
 42
6.283185307179586
  0
ELLIPSE
  5
163
330
1F
100
AcDbEntity
  8
Layer 1
370
    20
100
AcDbEllipse
 10
-5.35
 20
-7.7
 30
0.0
 11
0.0
 21
0.3
 31
0.0
210
0.0
220
0.0
230
1.0
 40
1.0
 41
0.0
 42
6.283185307179586
  0
ELLIPSE
  5
164
330
1F
100
AcDbEntity
  8
Layer 1
 62
     3
370
    20
100
AcDbEllipse
 10
-3.55
 20
-7.7
 30
0.0
 11
0.0
 21
0.7
 31
0.0
210
0.0
220
0.0
230
1.0
 40
1.0
 41
0.0
 42
6.283185307179586
  0
ELLIPSE
  5
165
330
1F
100
AcDbEntity
  8
Layer 1
370
    20
100
AcDbEllipse
 10
-3.55
 20
-7.7
 30
0.0
 11
0.0
 21
0.3
 31
0.0
210
0.0
220
0.0
230
1.0
 40
1.0
 41
0.0
 42
6.283185307179586
  0
ELLIPSE
  5
166
330
1F
100
AcDbEntity
  8
Layer 1
 62
     3
370
    20
100
AcDbEllipse
 10
-1.75
 20
-7.7
 30
0.0
 11
0.0
 21
0.7
 31
0.0
210
0.0
220
0.0
230
1.0
 40
1.0
 41
0.0
 42
6.283185307179586
  0
ELLIPSE
  5
167
330
1F
100
AcDbEntity
  8
Layer 1
370
    20
100
AcDbEllipse
 10
-1.75
 20
-7.7
 30
0.0
 11
0.0
 21
0.3
 31
0.0
210
0.0
220
0.0
230
1.0
 40
1.0
 41
0.0
 42
6.283185307179586
  0
ELLIPSE
  5
168
330
1F
100
AcDbEntity
  8
Layer 1
 62
     3
370
    20
100
AcDbEllipse
 10
0.05
 20
-7.7
 30
0.0
 11
0.0
 21
0.7
 31
0.0
210
0.0
220
0.0
230
1.0
 40
1.0
 41
0.0
 42
6.283185307179586
  0
ELLIPSE
  5
169
330
1F
100
AcDbEntity
  8
Layer 1
370
    20
100
AcDbEllipse
 10
0.05
 20
-7.7
 30
0.0
 11
0.0
 21
0.3
 31
0.0
210
0.0
220
0.0
230
1.0
 40
1.0
 41
0.0
 42
6.283185307179586
  0
ELLIPSE
  5
16A
330
1F
100
AcDbEntity
  8
Layer 1
 62
     3
370
    20
100
AcDbEllipse
 10
1.85
 20
-7.7
 30
0.0
 11
0.0
 21
0.7
 31
0.0
210
0.0
220
0.0
230
1.0
 40
1.0
 41
0.0
 42
6.283185307179586
  0
ELLIPSE
  5
16B
330
1F
100
AcDbEntity
  8
Layer 1
370
    20
100
AcDbEllipse
 10
1.85
 20
-7.7
 30
0.0
 11
0.0
 21
0.3
 31
0.0
210
0.0
220
0.0
230
1.0
 40
1.0
 41
0.0
 42
6.283185307179586
  0
ELLIPSE
  5
16C
330
1F
100
AcDbEntity
  8
Layer 1
 62
     3
370
    20
100
AcDbEllipse
 10
3.65
 20
-7.7
 30
0.0
 11
0.0
 21
0.7
 31
0.0
210
0.0
220
0.0
230
1.0
 40
1.0
 41
0.0
 42
6.283185307179586
  0
ELLIPSE
  5
16D
330
1F
100
AcDbEntity
  8
Layer 1
370
    20
100
AcDbEllipse
 10
3.65
 20
-7.7
 30
0.0
 11
0.0
 21
0.3
 31
0.0
210
0.0
220
0.0
230
1.0
 40
1.0
 41
0.0
 42
6.283185307179586
  0
ELLIPSE
  5
16E
330
1F
100
AcDbEntity
  8
Layer 1
 62
     3
370
    20
100
AcDbEllipse
 10
5.45
 20
-7.7
 30
0.0
 11
0.0
 21
0.7
 31
0.0
210
0.0
220
0.0
230
1.0
 40
1.0
 41
0.0
 42
6.283185307179586
  0
ELLIPSE
  5
16F
330
1F
100
AcDbEntity
  8
Layer 1
370
    20
100
AcDbEllipse
 10
5.45
 20
-7.7
 30
0.0
 11
0.0
 21
0.3
 31
0.0
210
0.0
220
0.0
230
1.0
 40
1.0
 41
0.0
 42
6.283185307179586
  0
ELLIPSE
  5
170
330
1F
100
AcDbEntity
  8
Layer 1
 62
     3
370
    20
100
AcDbEllipse
 10
7.25
 20
-7.7
 30
0.0
 11
0.0
 21
0.7
 31
0.0
210
0.0
220
0.0
230
1.0
 40
1.0
 41
0.0
 42
6.283185307179586
  0
ELLIPSE
  5
171
330
1F
100
AcDbEntity
  8
Layer 1
370
    20
100
AcDbEllipse
 10
7.25
 20
-7.7
 30
0.0
 11
0.0
 21
0.3
 31
0.0
210
0.0
220
0.0
230
1.0
 40
1.0
 41
0.0
 42
6.283185307179586
  0
ELLIPSE
  5
172
330
1F
100
AcDbEntity
  8
Layer 1
 62
     3
370
    20
100
AcDbEllipse
 10
9.05
 20
-7.7
 30
0.0
 11
0.0
 21
0.7
 31
0.0
210
0.0
220
0.0
230
1.0
 40
1.0
 41
0.0
 42
6.283185307179586
  0
ELLIPSE
  5
173
330
1F
100
AcDbEntity
  8
Layer 1
370
    20
100
AcDbEllipse
 10
9.05
 20
-7.7
 30
0.0
 11
0.0
 21
0.3
 31
0.0
210
0.0
220
0.0
230
1.0
 40
1.0
 41
0.0
 42
6.283185307179586
  0
ELLIPSE
  5
174
330
1F
100
AcDbEntity
  8
Layer 1
 62
     3
370
    20
100
AcDbEllipse
 10
-8.95
 20
-9.5
 30
0.0
 11
0.0
 21
0.7
 31
0.0
210
0.0
220
0.0
230
1.0
 40
1.0
 41
0.0
 42
6.283185307179586
  0
ELLIPSE
  5
175
330
1F
100
AcDbEntity
  8
Layer 1
370
    20
100
AcDbEllipse
 10
-8.95
 20
-9.5
 30
0.0
 11
0.0
 21
0.3
 31
0.0
210
0.0
220
0.0
230
1.0
 40
1.0
 41
0.0
 42
6.283185307179586
  0
ELLIPSE
  5
176
330
1F
100
AcDbEntity
  8
Layer 1
 62
     3
370
    20
100
AcDbEllipse
 10
-7.15
 20
-9.5
 30
0.0
 11
0.0
 21
0.7
 31
0.0
210
0.0
220
0.0
230
1.0
 40
1.0
 41
0.0
 42
6.283185307179586
  0
ELLIPSE
  5
177
330
1F
100
AcDbEntity
  8
Layer 1
370
    20
100
AcDbEllipse
 10
-7.15
 20
-9.5
 30
0.0
 11
0.0
 21
0.3
 31
0.0
210
0.0
220
0.0
230
1.0
 40
1.0
 41
0.0
 42
6.283185307179586
  0
ELLIPSE
  5
178
330
1F
100
AcDbEntity
  8
Layer 1
 62
     3
370
    20
100
AcDbEllipse
 10
-5.35
 20
-9.5
 30
0.0
 11
0.0
 21
0.7
 31
0.0
210
0.0
220
0.0
230
1.0
 40
1.0
 41
0.0
 42
6.283185307179586
  0
ELLIPSE
  5
179
330
1F
100
AcDbEntity
  8
Layer 1
370
    20
100
AcDbEllipse
 10
-5.35
 20
-9.5
 30
0.0
 11
0.0
 21
0.3
 31
0.0
210
0.0
220
0.0
230
1.0
 40
1.0
 41
0.0
 42
6.283185307179586
  0
ELLIPSE
  5
17A
330
1F
100
AcDbEntity
  8
Layer 1
 62
     3
370
    20
100
AcDbEllipse
 10
-3.55
 20
-9.5
 30
0.0
 11
0.0
 21
0.7
 31
0.0
210
0.0
220
0.0
230
1.0
 40
1.0
 41
0.0
 42
6.283185307179586
  0
ELLIPSE
  5
17B
330
1F
100
AcDbEntity
  8
Layer 1
370
    20
100
AcDbEllipse
 10
-3.55
 20
-9.5
 30
0.0
 11
0.0
 21
0.3
 31
0.0
210
0.0
220
0.0
230
1.0
 40
1.0
 41
0.0
 42
6.283185307179586
  0
ELLIPSE
  5
17C
330
1F
100
AcDbEntity
  8
Layer 1
 62
     3
370
    20
100
AcDbEllipse
 10
-1.75
 20
-9.5
 30
0.0
 11
0.0
 21
0.7
 31
0.0
210
0.0
220
0.0
230
1.0
 40
1.0
 41
0.0
 42
6.283185307179586
  0
ELLIPSE
  5
17D
330
1F
100
AcDbEntity
  8
Layer 1
370
    20
100
AcDbEllipse
 10
-1.75
 20
-9.5
 30
0.0
 11
0.0
 21
0.3
 31
0.0
210
0.0
220
0.0
230
1.0
 40
1.0
 41
0.0
 42
6.283185307179586
  0
ELLIPSE
  5
17E
330
1F
100
AcDbEntity
  8
Layer 1
 62
     3
370
    20
100
AcDbEllipse
 10
0.05
 20
-9.5
 30
0.0
 11
0.0
 21
0.7
 31
0.0
210
0.0
220
0.0
230
1.0
 40
1.0
 41
0.0
 42
6.283185307179586
  0
ELLIPSE
  5
17F
330
1F
100
AcDbEntity
  8
Layer 1
370
    20
100
AcDbEllipse
 10
0.05
 20
-9.5
 30
0.0
 11
0.0
 21
0.3
 31
0.0
210
0.0
220
0.0
230
1.0
 40
1.0
 41
0.0
 42
6.283185307179586
  0
ELLIPSE
  5
180
330
1F
100
AcDbEntity
  8
Layer 1
 62
     3
370
    20
100
AcDbEllipse
 10
1.85
 20
-9.5
 30
0.0
 11
0.0
 21
0.7
 31
0.0
210
0.0
220
0.0
230
1.0
 40
1.0
 41
0.0
 42
6.283185307179586
  0
ELLIPSE
  5
181
330
1F
100
AcDbEntity
  8
Layer 1
370
    20
100
AcDbEllipse
 10
1.85
 20
-9.5
 30
0.0
 11
0.0
 21
0.3
 31
0.0
210
0.0
220
0.0
230
1.0
 40
1.0
 41
0.0
 42
6.283185307179586
  0
ELLIPSE
  5
182
330
1F
100
AcDbEntity
  8
Layer 1
 62
     3
370
    20
100
AcDbEllipse
 10
3.65
 20
-9.5
 30
0.0
 11
0.0
 21
0.7
 31
0.0
210
0.0
220
0.0
230
1.0
 40
1.0
 41
0.0
 42
6.283185307179586
  0
ELLIPSE
  5
183
330
1F
100
AcDbEntity
  8
Layer 1
370
    20
100
AcDbEllipse
 10
3.65
 20
-9.5
 30
0.0
 11
0.0
 21
0.3
 31
0.0
210
0.0
220
0.0
230
1.0
 40
1.0
 41
0.0
 42
6.283185307179586
  0
ELLIPSE
  5
184
330
1F
100
AcDbEntity
  8
Layer 1
 62
     3
370
    20
100
AcDbEllipse
 10
5.45
 20
-9.5
 30
0.0
 11
0.0
 21
0.7
 31
0.0
210
0.0
220
0.0
230
1.0
 40
1.0
 41
0.0
 42
6.283185307179586
  0
ELLIPSE
  5
185
330
1F
100
AcDbEntity
  8
Layer 1
370
    20
100
AcDbEllipse
 10
5.45
 20
-9.5
 30
0.0
 11
0.0
 21
0.3
 31
0.0
210
0.0
220
0.0
230
1.0
 40
1.0
 41
0.0
 42
6.283185307179586
  0
ELLIPSE
  5
186
330
1F
100
AcDbEntity
  8
Layer 1
 62
     3
370
    20
100
AcDbEllipse
 10
7.25
 20
-9.5
 30
0.0
 11
0.0
 21
0.7
 31
0.0
210
0.0
220
0.0
230
1.0
 40
1.0
 41
0.0
 42
6.283185307179586
  0
ELLIPSE
  5
187
330
1F
100
AcDbEntity
  8
Layer 1
370
    20
100
AcDbEllipse
 10
7.25
 20
-9.5
 30
0.0
 11
0.0
 21
0.3
 31
0.0
210
0.0
220
0.0
230
1.0
 40
1.0
 41
0.0
 42
6.283185307179586
  0
ELLIPSE
  5
188
330
1F
100
AcDbEntity
  8
Layer 1
 62
     3
370
    20
100
AcDbEllipse
 10
9.05
 20
-9.5
 30
0.0
 11
0.0
 21
0.7
 31
0.0
210
0.0
220
0.0
230
1.0
 40
1.0
 41
0.0
 42
6.283185307179586
  0
ELLIPSE
  5
189
330
1F
100
AcDbEntity
  8
Layer 1
370
    20
100
AcDbEllipse
 10
9.05
 20
-9.5
 30
0.0
 11
0.0
 21
0.3
 31
0.0
210
0.0
220
0.0
230
1.0
 40
1.0
 41
0.0
 42
6.283185307179586
  0
ELLIPSE
  5
18A
330
1F
100
AcDbEntity
  8
Layer 1
 62
     3
370
    20
100
AcDbEllipse
 10
-8.95
 20
-11.3
 30
0.0
 11
0.0
 21
0.7
 31
0.0
210
0.0
220
0.0
230
1.0
 40
1.0
 41
0.0
 42
6.283185307179586
  0
ELLIPSE
  5
18B
330
1F
100
AcDbEntity
  8
Layer 1
370
    20
100
AcDbEllipse
 10
-8.95
 20
-11.3
 30
0.0
 11
0.0
 21
0.3
 31
0.0
210
0.0
220
0.0
230
1.0
 40
1.0
 41
0.0
 42
6.283185307179586
  0
ELLIPSE
  5
18C
330
1F
100
AcDbEntity
  8
Layer 1
 62
     3
370
    20
100
AcDbEllipse
 10
-7.15
 20
-11.3
 30
0.0
 11
0.0
 21
0.7
 31
0.0
210
0.0
220
0.0
230
1.0
 40
1.0
 41
0.0
 42
6.283185307179586
  0
ELLIPSE
  5
18D
330
1F
100
AcDbEntity
  8
Layer 1
370
    20
100
AcDbEllipse
 10
-7.15
 20
-11.3
 30
0.0
 11
0.0
 21
0.3
 31
0.0
210
0.0
220
0.0
230
1.0
 40
1.0
 41
0.0
 42
6.283185307179586
  0
ELLIPSE
  5
18E
330
1F
100
AcDbEntity
  8
Layer 1
 62
     3
370
    20
100
AcDbEllipse
 10
-5.35
 20
-11.3
 30
0.0
 11
0.0
 21
0.7
 31
0.0
210
0.0
220
0.0
230
1.0
 40
1.0
 41
0.0
 42
6.283185307179586
  0
ELLIPSE
  5
18F
330
1F
100
AcDbEntity
  8
Layer 1
370
    20
100
AcDbEllipse
 10
-5.35
 20
-11.3
 30
0.0
 11
0.0
 21
0.3
 31
0.0
210
0.0
220
0.0
230
1.0
 40
1.0
 41
0.0
 42
6.283185307179586
  0
ELLIPSE
  5
190
330
1F
100
AcDbEntity
  8
Layer 1
 62
     3
370
    20
100
AcDbEllipse
 10
-3.55
 20
-11.3
 30
0.0
 11
0.0
 21
0.7
 31
0.0
210
0.0
220
0.0
230
1.0
 40
1.0
 41
0.0
 42
6.283185307179586
  0
ELLIPSE
  5
191
330
1F
100
AcDbEntity
  8
Layer 1
370
    20
100
AcDbEllipse
 10
-3.55
 20
-11.3
 30
0.0
 11
0.0
 21
0.3
 31
0.0
210
0.0
220
0.0
230
1.0
 40
1.0
 41
0.0
 42
6.283185307179586
  0
ELLIPSE
  5
192
330
1F
100
AcDbEntity
  8
Layer 1
 62
     3
370
    20
100
AcDbEllipse
 10
-1.75
 20
-11.3
 30
0.0
 11
0.0
 21
0.7
 31
0.0
210
0.0
220
0.0
230
1.0
 40
1.0
 41
0.0
 42
6.283185307179586
  0
ELLIPSE
  5
193
330
1F
100
AcDbEntity
  8
Layer 1
370
    20
100
AcDbEllipse
 10
-1.75
 20
-11.3
 30
0.0
 11
0.0
 21
0.3
 31
0.0
210
0.0
220
0.0
230
1.0
 40
1.0
 41
0.0
 42
6.283185307179586
  0
ELLIPSE
  5
194
330
1F
100
AcDbEntity
  8
Layer 1
 62
     3
370
    20
100
AcDbEllipse
 10
0.05
 20
-11.3
 30
0.0
 11
0.0
 21
0.7
 31
0.0
210
0.0
220
0.0
230
1.0
 40
1.0
 41
0.0
 42
6.283185307179586
  0
ELLIPSE
  5
195
330
1F
100
AcDbEntity
  8
Layer 1
370
    20
100
AcDbEllipse
 10
0.05
 20
-11.3
 30
0.0
 11
0.0
 21
0.3
 31
0.0
210
0.0
220
0.0
230
1.0
 40
1.0
 41
0.0
 42
6.283185307179586
  0
ELLIPSE
  5
196
330
1F
100
AcDbEntity
  8
Layer 1
 62
     3
370
    20
100
AcDbEllipse
 10
1.85
 20
-11.3
 30
0.0
 11
0.0
 21
0.7
 31
0.0
210
0.0
220
0.0
230
1.0
 40
1.0
 41
0.0
 42
6.283185307179586
  0
ELLIPSE
  5
197
330
1F
100
AcDbEntity
  8
Layer 1
370
    20
100
AcDbEllipse
 10
1.85
 20
-11.3
 30
0.0
 11
0.0
 21
0.3
 31
0.0
210
0.0
220
0.0
230
1.0
 40
1.0
 41
0.0
 42
6.283185307179586
  0
ELLIPSE
  5
198
330
1F
100
AcDbEntity
  8
Layer 1
 62
     3
370
    20
100
AcDbEllipse
 10
3.65
 20
-11.3
 30
0.0
 11
0.0
 21
0.7
 31
0.0
210
0.0
220
0.0
230
1.0
 40
1.0
 41
0.0
 42
6.283185307179586
  0
ELLIPSE
  5
199
330
1F
100
AcDbEntity
  8
Layer 1
370
    20
100
AcDbEllipse
 10
3.65
 20
-11.3
 30
0.0
 11
0.0
 21
0.3
 31
0.0
210
0.0
220
0.0
230
1.0
 40
1.0
 41
0.0
 42
6.283185307179586
  0
ELLIPSE
  5
19A
330
1F
100
AcDbEntity
  8
Layer 1
 62
     3
370
    20
100
AcDbEllipse
 10
5.45
 20
-11.3
 30
0.0
 11
0.0
 21
0.7
 31
0.0
210
0.0
220
0.0
230
1.0
 40
1.0
 41
0.0
 42
6.283185307179586
  0
ELLIPSE
  5
19B
330
1F
100
AcDbEntity
  8
Layer 1
370
    20
100
AcDbEllipse
 10
5.45
 20
-11.3
 30
0.0
 11
0.0
 21
0.3
 31
0.0
210
0.0
220
0.0
230
1.0
 40
1.0
 41
0.0
 42
6.283185307179586
  0
ELLIPSE
  5
19C
330
1F
100
AcDbEntity
  8
Layer 1
 62
     3
370
    20
100
AcDbEllipse
 10
7.25
 20
-11.3
 30
0.0
 11
0.0
 21
0.7
 31
0.0
210
0.0
220
0.0
230
1.0
 40
1.0
 41
0.0
 42
6.283185307179586
  0
ELLIPSE
  5
19D
330
1F
100
AcDbEntity
  8
Layer 1
370
    20
100
AcDbEllipse
 10
7.25
 20
-11.3
 30
0.0
 11
0.0
 21
0.3
 31
0.0
210
0.0
220
0.0
230
1.0
 40
1.0
 41
0.0
 42
6.283185307179586
  0
ELLIPSE
  5
19E
330
1F
100
AcDbEntity
  8
Layer 1
 62
     3
370
    20
100
AcDbEllipse
 10
9.05
 20
-11.3
 30
0.0
 11
0.0
 21
0.7
 31
0.0
210
0.0
220
0.0
230
1.0
 40
1.0
 41
0.0
 42
6.283185307179586
  0
ELLIPSE
  5
19F
330
1F
100
AcDbEntity
  8
Layer 1
370
    20
100
AcDbEllipse
 10
9.05
 20
-11.3
 30
0.0
 11
0.0
 21
0.3
 31
0.0
210
0.0
220
0.0
230
1.0
 40
1.0
 41
0.0
 42
6.283185307179586
  0
ELLIPSE
  5
1A0
330
1F
100
AcDbEntity
  8
Layer 1
 62
     3
370
    20
100
AcDbEllipse
 10
-8.95
 20
-13.1
 30
0.0
 11
0.0
 21
0.7
 31
0.0
210
0.0
220
0.0
230
1.0
 40
1.0
 41
0.0
 42
6.283185307179586
  0
ELLIPSE
  5
1A1
330
1F
100
AcDbEntity
  8
Layer 1
370
    20
100
AcDbEllipse
 10
-8.95
 20
-13.1
 30
0.0
 11
0.0
 21
0.3
 31
0.0
210
0.0
220
0.0
230
1.0
 40
1.0
 41
0.0
 42
6.283185307179586
  0
ELLIPSE
  5
1A2
330
1F
100
AcDbEntity
  8
Layer 1
 62
     3
370
    20
100
AcDbEllipse
 10
-7.15
 20
-13.1
 30
0.0
 11
0.0
 21
0.7
 31
0.0
210
0.0
220
0.0
230
1.0
 40
1.0
 41
0.0
 42
6.283185307179586
  0
ELLIPSE
  5
1A3
330
1F
100
AcDbEntity
  8
Layer 1
370
    20
100
AcDbEllipse
 10
-7.15
 20
-13.1
 30
0.0
 11
0.0
 21
0.3
 31
0.0
210
0.0
220
0.0
230
1.0
 40
1.0
 41
0.0
 42
6.283185307179586
  0
ELLIPSE
  5
1A4
330
1F
100
AcDbEntity
  8
Layer 1
 62
     3
370
    20
100
AcDbEllipse
 10
-5.35
 20
-13.1
 30
0.0
 11
0.0
 21
0.7
 31
0.0
210
0.0
220
0.0
230
1.0
 40
1.0
 41
0.0
 42
6.283185307179586
  0
ELLIPSE
  5
1A5
330
1F
100
AcDbEntity
  8
Layer 1
370
    20
100
AcDbEllipse
 10
-5.35
 20
-13.1
 30
0.0
 11
0.0
 21
0.3
 31
0.0
210
0.0
220
0.0
230
1.0
 40
1.0
 41
0.0
 42
6.283185307179586
  0
ELLIPSE
  5
1A6
330
1F
100
AcDbEntity
  8
Layer 1
 62
     3
370
    20
100
AcDbEllipse
 10
-3.55
 20
-13.1
 30
0.0
 11
0.0
 21
0.7
 31
0.0
210
0.0
220
0.0
230
1.0
 40
1.0
 41
0.0
 42
6.283185307179586
  0
ELLIPSE
  5
1A7
330
1F
100
AcDbEntity
  8
Layer 1
370
    20
100
AcDbEllipse
 10
-3.55
 20
-13.1
 30
0.0
 11
0.0
 21
0.3
 31
0.0
210
0.0
220
0.0
230
1.0
 40
1.0
 41
0.0
 42
6.283185307179586
  0
ELLIPSE
  5
1A8
330
1F
100
AcDbEntity
  8
Layer 1
 62
     3
370
    20
100
AcDbEllipse
 10
-1.75
 20
-13.1
 30
0.0
 11
0.0
 21
0.7
 31
0.0
210
0.0
220
0.0
230
1.0
 40
1.0
 41
0.0
 42
6.283185307179586
  0
ELLIPSE
  5
1A9
330
1F
100
AcDbEntity
  8
Layer 1
370
    20
100
AcDbEllipse
 10
-1.75
 20
-13.1
 30
0.0
 11
0.0
 21
0.3
 31
0.0
210
0.0
220
0.0
230
1.0
 40
1.0
 41
0.0
 42
6.283185307179586
  0
ELLIPSE
  5
1AA
330
1F
100
AcDbEntity
  8
Layer 1
 62
     3
370
    20
100
AcDbEllipse
 10
0.05
 20
-13.1
 30
0.0
 11
0.0
 21
0.7
 31
0.0
210
0.0
220
0.0
230
1.0
 40
1.0
 41
0.0
 42
6.283185307179586
  0
ELLIPSE
  5
1AB
330
1F
100
AcDbEntity
  8
Layer 1
370
    20
100
AcDbEllipse
 10
0.05
 20
-13.1
 30
0.0
 11
0.0
 21
0.3
 31
0.0
210
0.0
220
0.0
230
1.0
 40
1.0
 41
0.0
 42
6.283185307179586
  0
ELLIPSE
  5
1AC
330
1F
100
AcDbEntity
  8
Layer 1
 62
     3
370
    20
100
AcDbEllipse
 10
1.85
 20
-13.1
 30
0.0
 11
0.0
 21
0.7
 31
0.0
210
0.0
220
0.0
230
1.0
 40
1.0
 41
0.0
 42
6.283185307179586
  0
ELLIPSE
  5
1AD
330
1F
100
AcDbEntity
  8
Layer 1
370
    20
100
AcDbEllipse
 10
1.85
 20
-13.1
 30
0.0
 11
0.0
 21
0.3
 31
0.0
210
0.0
220
0.0
230
1.0
 40
1.0
 41
0.0
 42
6.283185307179586
  0
ELLIPSE
  5
1AE
330
1F
100
AcDbEntity
  8
Layer 1
 62
     3
370
    20
100
AcDbEllipse
 10
3.65
 20
-13.1
 30
0.0
 11
0.0
 21
0.7
 31
0.0
210
0.0
220
0.0
230
1.0
 40
1.0
 41
0.0
 42
6.283185307179586
  0
ELLIPSE
  5
1AF
330
1F
100
AcDbEntity
  8
Layer 1
370
    20
100
AcDbEllipse
 10
3.65
 20
-13.1
 30
0.0
 11
0.0
 21
0.3
 31
0.0
210
0.0
220
0.0
230
1.0
 40
1.0
 41
0.0
 42
6.283185307179586
  0
ELLIPSE
  5
1B0
330
1F
100
AcDbEntity
  8
Layer 1
 62
     3
370
    20
100
AcDbEllipse
 10
5.45
 20
-13.1
 30
0.0
 11
0.0
 21
0.7
 31
0.0
210
0.0
220
0.0
230
1.0
 40
1.0
 41
0.0
 42
6.283185307179586
  0
ELLIPSE
  5
1B1
330
1F
100
AcDbEntity
  8
Layer 1
370
    20
100
AcDbEllipse
 10
5.45
 20
-13.1
 30
0.0
 11
0.0
 21
0.3
 31
0.0
210
0.0
220
0.0
230
1.0
 40
1.0
 41
0.0
 42
6.283185307179586
  0
ELLIPSE
  5
1B2
330
1F
100
AcDbEntity
  8
Layer 1
 62
     3
370
    20
100
AcDbEllipse
 10
7.25
 20
-13.1
 30
0.0
 11
0.0
 21
0.7
 31
0.0
210
0.0
220
0.0
230
1.0
 40
1.0
 41
0.0
 42
6.283185307179586
  0
ELLIPSE
  5
1B3
330
1F
100
AcDbEntity
  8
Layer 1
370
    20
100
AcDbEllipse
 10
7.25
 20
-13.1
 30
0.0
 11
0.0
 21
0.3
 31
0.0
210
0.0
220
0.0
230
1.0
 40
1.0
 41
0.0
 42
6.283185307179586
  0
ELLIPSE
  5
1B4
330
1F
100
AcDbEntity
  8
Layer 1
 62
     3
370
    20
100
AcDbEllipse
 10
9.05
 20
-13.1
 30
0.0
 11
0.0
 21
0.7
 31
0.0
210
0.0
220
0.0
230
1.0
 40
1.0
 41
0.0
 42
6.283185307179586
  0
ELLIPSE
  5
1B5
330
1F
100
AcDbEntity
  8
Layer 1
370
    20
100
AcDbEllipse
 10
9.05
 20
-13.1
 30
0.0
 11
0.0
 21
0.3
 31
0.0
210
0.0
220
0.0
230
1.0
 40
1.0
 41
0.0
 42
6.283185307179586
  0
ELLIPSE
  5
1B6
330
1F
100
AcDbEntity
  8
Layer 1
370
    20
100
AcDbEllipse
 10
-7.15
 20
13.9
 30
0.0
 11
0.0
 21
0.3
 31
0.0
210
0.0
220
0.0
230
1.0
 40
1.0
 41
0.0
 42
6.283185307179586
  0
ELLIPSE
  5
1B7
330
1F
100
AcDbEntity
  8
Layer 1
370
    20
100
AcDbEllipse
 10
-5.35
 20
13.9
 30
0.0
 11
0.0
 21
0.3
 31
0.0
210
0.0
220
0.0
230
1.0
 40
1.0
 41
0.0
 42
6.283185307179586
  0
ELLIPSE
  5
1B8
330
1F
100
AcDbEntity
  8
Layer 1
370
    20
100
AcDbEllipse
 10
-3.55
 20
13.9
 30
0.0
 11
0.0
 21
0.3
 31
0.0
210
0.0
220
0.0
230
1.0
 40
1.0
 41
0.0
 42
6.283185307179586
  0
ELLIPSE
  5
1B9
330
1F
100
AcDbEntity
  8
Layer 1
370
    20
100
AcDbEllipse
 10
-1.75
 20
13.9
 30
0.0
 11
0.0
 21
0.3
 31
0.0
210
0.0
220
0.0
230
1.0
 40
1.0
 41
0.0
 42
6.283185307179586
  0
ELLIPSE
  5
1BA
330
1F
100
AcDbEntity
  8
Layer 1
370
    20
100
AcDbEllipse
 10
0.05
 20
13.9
 30
0.0
 11
0.0
 21
0.3
 31
0.0
210
0.0
220
0.0
230
1.0
 40
1.0
 41
0.0
 42
6.283185307179586
  0
ELLIPSE
  5
1BB
330
1F
100
AcDbEntity
  8
Layer 1
370
    20
100
AcDbEllipse
 10
1.85
 20
13.9
 30
0.0
 11
0.0
 21
0.3
 31
0.0
210
0.0
220
0.0
230
1.0
 40
1.0
 41
0.0
 42
6.283185307179586
  0
ELLIPSE
  5
1BC
330
1F
100
AcDbEntity
  8
Layer 1
370
    20
100
AcDbEllipse
 10
3.65
 20
13.9
 30
0.0
 11
0.0
 21
0.3
 31
0.0
210
0.0
220
0.0
230
1.0
 40
1.0
 41
0.0
 42
6.283185307179586
  0
ELLIPSE
  5
1BD
330
1F
100
AcDbEntity
  8
Layer 1
370
    20
100
AcDbEllipse
 10
5.45
 20
13.9
 30
0.0
 11
0.0
 21
0.3
 31
0.0
210
0.0
220
0.0
230
1.0
 40
1.0
 41
0.0
 42
6.283185307179586
  0
ELLIPSE
  5
1BE
330
1F
100
AcDbEntity
  8
Layer 1
370
    20
100
AcDbEllipse
 10
7.25
 20
13.9
 30
0.0
 11
0.0
 21
0.3
 31
0.0
210
0.0
220
0.0
230
1.0
 40
1.0
 41
0.0
 42
6.283185307179586
  0
ENDSEC
  0
SECTION
  2
OBJECTS
  0
DICTIONARY
  5
C
330
0
100
AcDbDictionary
281
     1
  3
ACAD_GROUP
350
D
  3
ACAD_LAYOUT
350
1A
  3
ACAD_MATERIAL
350
3B
  3
ACAD_MLEADERSTYLE
350
1E0
  3
ACAD_MLINESTYLE
350
17
  3
ACAD_PLOTSETTINGS
350
19
  3
ACAD_PLOTSTYLENAME
350
E
  3
ACAD_TABLESTYLE
350
1DF
  3
ACAD_VISUALSTYLE
350
2A
  0
DICTIONARY
  5
D
102
{ACAD_REACTORS
330
C
102
}
330
C
100
AcDbDictionary
281
     1
  0
DICTIONARY
  5
1A
102
{ACAD_REACTORS
330
C
102
}
330
C
100
AcDbDictionary
281
     1
  3
Layout1
350
1E
  3
Layout2
350
26
  3
Model
350
22
  0
DICTIONARY
  5
3B
102
{ACAD_REACTORS
330
C
102
}
330
C
100
AcDbDictionary
281
     1
  3
ByBlock
350
3D
  3
ByLayer
350
3C
  3
Global
350
3E
  0
DICTIONARY
  5
1E0
102
{ACAD_REACTORS
330
C
102
}
330
C
100
AcDbDictionary
281
     1
  0
DICTIONARY
  5
17
102
{ACAD_REACTORS
330
C
102
}
330
C
100
AcDbDictionary
281
     1
  3
Standard
350
18
  0
DICTIONARY
  5
19
102
{ACAD_REACTORS
330
C
102
}
330
C
100
AcDbDictionary
281
     1
  0
ACDBDICTIONARYWDFLT
  5
E
102
{ACAD_REACTORS
330
C
102
}
330
C
100
AcDbDictionary
281
     1
  3
Normal
350
F
100
AcDbDictionaryWithDefault
340
F
  0
DICTIONARY
  5
1DF
102
{ACAD_REACTORS
330
C
102
}
330
C
100
AcDbDictionary
281
     1
  0
DICTIONARY
  5
2A
102
{ACAD_REACTORS
330
C
102
}
330
C
100
AcDbDictionary
281
     1
  3
2dWireframe
350
2F
  3
3D Hidden
350
31
  3
3dWireframe
350
30
  3
Basic
350
32
  3
Brighten
350
36
  3
ColorChange
350
3A
  3
Conceptual
350
34
  3
Dim
350
35
  3
Facepattern
350
39
  3
Flat
350
2B
  3
FlatWithEdges
350
2C
  3
Gouraud
350
2D
  3
GouraudWithEdges
350
2E
  3
Linepattern
350
38
  3
Realistic
350
33
  3
Thicken
350
37
  0
LAYOUT
  5
1E
102
{ACAD_REACTORS
330
1A
102
}
330
1A
100
AcDbPlotSettings
  1

  2
none_device
  4

  6

 40
0.0
 41
0.0
 42
0.0
 43
0.0
 44
0.0
 45
0.0
 46
0.0
 47
0.0
 48
0.0
 49
0.0
140
0.0
141
0.0
142
1.0
143
1.0
 70
   688
 72
     0
 73
     0
 74
     5
  7

 75
    16
 76
     0
 77
     2
 78
   300
147
1.0
148
0.0
149
0.0
100
AcDbLayout
  1
Layout1
 70
     1
 71
     1
 10
0.0
 20
0.0
 11
12.0
 21
9.0
 12
0.0
 22
0.0
 32
0.0
 14
1.000000000000000E+20
 24
1.000000000000000E+20
 34
1.000000000000000E+20
 15
-1.000000000000000E+20
 25
-1.000000000000000E+20
 35
-1.000000000000000E+20
146
0.0
 13
0.0
 23
0.0
 33
0.0
 16
1.0
 26
0.0
 36
0.0
 17
0.0
 27
1.0
 37
0.0
 76
     0
330
1B
  0
LAYOUT
  5
26
102
{ACAD_REACTORS
330
1A
102
}
330
1A
100
AcDbPlotSettings
  1

  2
none_device
  4

  6

 40
0.0
 41
0.0
 42
0.0
 43
0.0
 44
0.0
 45
0.0
 46
0.0
 47
0.0
 48
0.0
 49
0.0
140
0.0
141
0.0
142
1.0
143
1.0
 70
   688
 72
     0
 73
     0
 74
     5
  7

 75
    16
 76
     0
 77
     2
 78
   300
147
1.0
148
0.0
149
0.0
100
AcDbLayout
  1
Layout2
 70
     1
 71
     2
 10
0.0
 20
0.0
 11
0.0
 21
0.0
 12
0.0
 22
0.0
 32
0.0
 14
0.0
 24
0.0
 34
0.0
 15
0.0
 25
0.0
 35
0.0
146
0.0
 13
0.0
 23
0.0
 33
0.0
 16
1.0
 26
0.0
 36
0.0
 17
0.0
 27
1.0
 37
0.0
 76
     0
330
23
  0
LAYOUT
  5
22
102
{ACAD_REACTORS
330
1A
102
}
330
1A
100
AcDbPlotSettings
  1

  2
none_device
  4

  6

 40
0.0
 41
0.0
 42
0.0
 43
0.0
 44
0.0
 45
0.0
 46
0.0
 47
0.0
 48
0.0
 49
0.0
140
0.0
141
0.0
142
1.0
143
1.0
 70
  1712
 72
     0
 73
     0
 74
     0
  7

 75
     0
 76
     0
 77
     2
 78
   300
147
1.0
148
0.0
149
0.0
100
AcDbLayout
  1
Model
 70
     1
 71
     0
 10
0.0
 20
0.0
 11
12.0
 21
9.0
 12
0.0
 22
0.0
 32
0.0
 14
-10.52646
 24
-14.97646
 34
0.0
 15
10.42646
 25
14.97646
 35
0.0
146
0.0
 13
0.0
 23
0.0
 33
0.0
 16
1.0
 26
0.0
 36
0.0
 17
0.0
 27
1.0
 37
0.0
 76
     0
330
1F
331
29
  0
MATERIAL
  5
3D
102
{ACAD_REACTORS
330
3B
102
}
330
3B
100
AcDbMaterial
  1
ByBlock
 72
     1
 94
      127
  0
MATERIAL
  5
3C
102
{ACAD_REACTORS
330
3B
102
}
330
3B
100
AcDbMaterial
  1
ByLayer
 72
     1
 94
      127
  0
MATERIAL
  5
3E
102
{ACAD_REACTORS
330
3B
102
}
330
3B
100
AcDbMaterial
  1
Global
 72
     1
 94
      127
  0
MLINESTYLE
  5
18
102
{ACAD_REACTORS
330
17
102
}
330
17
100
AcDbMlineStyle
  2
Standard
 70
     0
  3

 62
   256
 51
90.0
 52
90.0
 71
     2
 49
0.5
 62
   256
  6
BYLAYER
 49
-0.5
 62
   256
  6
BYLAYER
  0
ACDBPLACEHOLDER
  5
F
102
{ACAD_REACTORS
330
E
102
}
330
E
  0
VISUALSTYLE
  5
2F
102
{ACAD_REACTORS
330
2A
102
}
102
{ACAD_XDICTIONARY
360
1C7
102
}
330
2A
100
AcDbVisualStyle
  2
2dWireframe
 70
     4
 71
     0
 72
     2
 73
     0
 90
        0
 40
-0.6
 41
-30.0
 62
     5
 63
     7
421
 16777215
 74
     1
 91
        4
 64
     7
 65
   257
 75
     1
175
     1
 42
1.0
 92
        0
 66
   257
 43
1.0
 76
     1
 77
     6
 78
     2
 67
     7
 79
     5
170
     0
171
     0
290
     0
174
     0
 93
        1
 44
0.0
173
     0
291
     0
 45
0.0
  0
VISUALSTYLE
  5
31
102
{ACAD_REACTORS
330
2A
102
}
102
{ACAD_XDICTIONARY
360
1CB
102
}
330
2A
100
AcDbVisualStyle
  2
3D Hidden
 70
     6
 71
     1
 72
     2
 73
     2
 90
        0
 40
-0.6
 41
-30.0
 62
     5
 63
     7
421
 16777215
 74
     2
 91
        2
 64
     7
 65
   257
 75
     2
175
     1
 42
40.0
 92
        0
 66
   257
 43
1.0
 76
     1
 77
     6
 78
     2
 67
     7
 79
     3
170
     0
171
     0
290
     0
174
     0
 93
        1
 44
0.0
173
     0
291
     0
 45
0.0
  0
VISUALSTYLE
  5
30
102
{ACAD_REACTORS
330
2A
102
}
102
{ACAD_XDICTIONARY
360
1C9
102
}
330
2A
100
AcDbVisualStyle
  2
3dWireframe
 70
     5
 71
     0
 72
     2
 73
     0
 90
        0
 40
-0.6
 41
-30.0
 62
     5
 63
     7
421
 16777215
 74
     1
 91
        4
 64
     7
 65
   257
 75
     1
175
     1
 42
1.0
 92
        0
 66
   257
 43
1.0
 76
     1
 77
     6
 78
     2
 67
     7
 79
     5
170
     0
171
     0
290
     0
174
     0
 93
        1
 44
0.0
173
     0
291
     0
 45
0.0
  0
VISUALSTYLE
  5
32
102
{ACAD_REACTORS
330
2A
102
}
102
{ACAD_XDICTIONARY
360
1CD
102
}
330
2A
100
AcDbVisualStyle
  2
Basic
 70
     7
 71
     1
 72
     0
 73
     1
 90
        0
 40
-0.6
 41
-30.0
 62
     5
 63
     7
421
 16777215
 74
     0
 91
        4
 64
     7
 65
   257
 75
     1
175
     1
 42
1.0
 92
        8
 66
     7
 43
1.0
 76
     1
 77
     6
 78
     2
 67
     7
 79
     5
170
     0
171
     0
290
     0
174
     0
 93
        1
 44
0.0
173
     0
291
     1
 45
0.0
  0
VISUALSTYLE
  5
36
102
{ACAD_REACTORS
330
2A
102
}
102
{ACAD_XDICTIONARY
360
1D5
102
}
330
2A
100
AcDbVisualStyle
  2
Brighten
 70
    12
 71
     2
 72
     2
 73
     0
 90
        0
 40
-0.6
 41
-30.0
 62
     5
 63
     7
421
 16777215
 74
     1
 91
        4
 64
     7
 65
   257
 75
     1
175
     1
 42
1.0
 92
        8
 66
     7
 43
1.0
 76
     1
 77
     6
 78
     2
 67
     7
 79
     5
170
     0
171
     0
290
     0
174
     0
 93
        1
 44
50.0
173
     0
291
     1
 45
0.0
  0
VISUALSTYLE
  5
3A
102
{ACAD_REACTORS
330
2A
102
}
102
{ACAD_XDICTIONARY
360
1DD
102
}
330
2A
100
AcDbVisualStyle
  2
ColorChange
 70
    16
 71
     2
 72
     2
 73
     3
 90
        0
 40
-0.6
 41
-30.0
 62
     5
 63
     8
421
  8421504
 74
     1
 91
        4
 64
     7
 65
   257
 75
     1
175
     1
 42
1.0
 92
        8
 66
     8
424
  8421504
 43
1.0
 76
     1
 77
     6
 78
     2
 67
     7
 79
     5
170
     0
171
     0
290
     0
174
     0
 93
        1
 44
0.0
173
     0
291
     1
 45
0.0
  0
VISUALSTYLE
  5
34
102
{ACAD_REACTORS
330
2A
102
}
102
{ACAD_XDICTIONARY
360
1D1
102
}
330
2A
100
AcDbVisualStyle
  2
Conceptual
 70
     9
 71
     3
 72
     2
 73
     0
 90
        0
 40
-0.6
 41
-30.0
 62
     5
 63
     7
421
 16777215
 74
     2
 91
        2
 64
     7
 65
   257
 75
     1
175
     1
 42
40.0
 92
        8
 66
     7
 43
1.0
 76
     1
 77
     6
 78
     2
 67
     7
 79
     3
170
     0
171
     0
290
     0
174
     0
 93
        1
 44
0.0
173
     0
291
     0
 45
0.0
  0
VISUALSTYLE
  5
35
102
{ACAD_REACTORS
330
2A
102
}
102
{ACAD_XDICTIONARY
360
1D3
102
}
330
2A
100
AcDbVisualStyle
  2
Dim
 70
    11
 71
     2
 72
     2
 73
     0
 90
        0
 40
-0.6
 41
-30.0
 62
     5
 63
     7
421
 16777215
 74
     1
 91
        4
 64
     7
 65
   257
 75
     1
175
     1
 42
1.0
 92
        8
 66
     7
 43
1.0
 76
     1
 77
     6
 78
     2
 67
     7
 79
     5
170
     0
171
     0
290
     0
174
     0
 93
        1
 44
-50.0
173
     0
291
     1
 45
0.0
  0
VISUALSTYLE
  5
39
102
{ACAD_REACTORS
330
2A
102
}
102
{ACAD_XDICTIONARY
360
1DB
102
}
330
2A
100
AcDbVisualStyle
  2
Facepattern
 70
    15
 71
     2
 72
     2
 73
     0
 90
        0
 40
-0.6
 41
-30.0
 62
     5
 63
     7
421
 16777215
 74
     1
 91
        4
 64
     7
 65
   257
 75
     1
175
     1
 42
1.0
 92
        8
 66
     7
 43
1.0
 76
     1
 77
     6
 78
     2
 67
     7
 79
     5
170
     0
171
     0
290
     0
174
     0
 93
        1
 44
0.0
173
     0
291
     1
 45
0.0
  0
VISUALSTYLE
  5
2B
102
{ACAD_REACTORS
330
2A
102
}
102
{ACAD_XDICTIONARY
360
1BF
102
}
330
2A
100
AcDbVisualStyle
  2
Flat
 70
     0
 71
     2
 72
     1
 73
     1
 90
        2
 40
-0.6
 41
30.0
 62
     5
 63
     7
421
 16777215
 74
     0
 91
        4
 64
     7
 65
   257
 75
     1
175
     1
 42
1.0
 92
        8
 66
     7
 43
1.0
 76
     1
 77
     6
 78
     2
 67
     7
 79
     5
170
     0
171
     0
290
     0
174
     0
 93
       13
 44
0.0
173
     0
291
     1
 45
0.0
  0
VISUALSTYLE
  5
2C
102
{ACAD_REACTORS
330
2A
102
}
102
{ACAD_XDICTIONARY
360
1C1
102
}
330
2A
100
AcDbVisualStyle
  2
FlatWithEdges
 70
     1
 71
     2
 72
     1
 73
     1
 90
        2
 40
-0.6
 41
30.0
 62
     5
 63
     7
421
 16777215
 74
     1
 91
        4
 64
     7
 65
   257
 75
     1
175
     1
 42
1.0
 92
        0
 66
   257
 43
1.0
 76
     1
 77
     6
 78
     2
 67
     7
 79
     5
170
     0
171
     0
290
     0
174
     0
 93
       13
 44
0.0
173
     0
291
     1
 45
0.0
  0
VISUALSTYLE
  5
2D
102
{ACAD_REACTORS
330
2A
102
}
102
{ACAD_XDICTIONARY
360
1C3
102
}
330
2A
100
AcDbVisualStyle
  2
Gouraud
 70
     2
 71
     2
 72
     2
 73
     1
 90
        2
 40
-0.6
 41
30.0
 62
     5
 63
     7
421
 16777215
 74
     0
 91
        4
 64
     7
 65
   257
 75
     1
175
     1
 42
1.0
 92
        0
 66
     7
 43
1.0
 76
     1
 77
     6
 78
     2
 67
     7
 79
     5
170
     0
171
     0
290
     0
174
     0
 93
       13
 44
0.0
173
     0
291
     1
 45
0.0
  0
VISUALSTYLE
  5
2E
102
{ACAD_REACTORS
330
2A
102
}
102
{ACAD_XDICTIONARY
360
1C5
102
}
330
2A
100
AcDbVisualStyle
  2
GouraudWithEdges
 70
     3
 71
     2
 72
     2
 73
     1
 90
        2
 40
-0.6
 41
30.0
 62
     5
 63
     7
421
 16777215
 74
     1
 91
        4
 64
     7
 65
   257
 75
     1
175
     1
 42
1.0
 92
        0
 66
   257
 43
1.0
 76
     1
 77
     6
 78
     2
 67
     7
 79
     5
170
     0
171
     0
290
     0
174
     0
 93
       13
 44
0.0
173
     0
291
     1
 45
0.0
  0
VISUALSTYLE
  5
38
102
{ACAD_REACTORS
330
2A
102
}
102
{ACAD_XDICTIONARY
360
1D9
102
}
330
2A
100
AcDbVisualStyle
  2
Linepattern
 70
    14
 71
     2
 72
     2
 73
     0
 90
        0
 40
-0.6
 41
-30.0
 62
     5
 63
     7
421
 16777215
 74
     1
 91
        4
 64
     7
 65
   257
 75
     7
175
     7
 42
1.0
 92
        8
 66
     7
 43
1.0
 76
     1
 77
     6
 78
     2
 67
     7
 79
     5
170
     0
171
     0
290
     0
174
     0
 93
        1
 44
0.0
173
     0
291
     1
 45
0.0
  0
VISUALSTYLE
  5
33
102
{ACAD_REACTORS
330
2A
102
}
102
{ACAD_XDICTIONARY
360
1CF
102
}
330
2A
100
AcDbVisualStyle
  2
Realistic
 70
     8
 71
     2
 72
     2
 73
     0
 90
        0
 40
-0.6
 41
-30.0
 62
     5
 63
     7
421
 16777215
 74
     1
 91
        0
 64
     7
 65
   257
 75
     1
175
     1
 42
1.0
 92
        8
 66
     8
424
  7895160
 43
1.0
 76
     1
 77
     6
 78
     2
 67
     7
 79
     5
170
     0
171
     0
290
     0
174
     0
 93
       13
 44
0.0
173
     0
291
     0
 45
0.0
  0
VISUALSTYLE
  5
37
102
{ACAD_REACTORS
330
2A
102
}
102
{ACAD_XDICTIONARY
360
1D7
102
}
330
2A
100
AcDbVisualStyle
  2
Thicken
 70
    13
 71
     2
 72
     2
 73
     0
 90
        0
 40
-0.6
 41
-30.0
 62
     5
 63
     7
421
 16777215
 74
     1
 91
        4
 64
     7
 65
   257
 75
     1
175
     1
 42
1.0
 92
       12
 66
     7
 43
1.0
 76
     1
 77
     6
 78
     2
 67
     7
 79
     5
170
     0
171
     0
290
     0
174
     0
 93
        1
 44
0.0
173
     0
291
     1
 45
0.0
  0
DICTIONARY
  5
1C7
330
2F
100
AcDbDictionary
280
     1
281
     1
  3
ACAD_XREC_ROUNDTRIP
360
1C8
  0
DICTIONARY
  5
1CB
330
31
100
AcDbDictionary
280
     1
281
     1
  3
ACAD_XREC_ROUNDTRIP
360
1CC
  0
DICTIONARY
  5
1C9
330
30
100
AcDbDictionary
280
     1
281
     1
  3
ACAD_XREC_ROUNDTRIP
360
1CA
  0
DICTIONARY
  5
1CD
330
32
100
AcDbDictionary
280
     1
281
     1
  3
ACAD_XREC_ROUNDTRIP
360
1CE
  0
DICTIONARY
  5
1D5
330
36
100
AcDbDictionary
280
     1
281
     1
  3
ACAD_XREC_ROUNDTRIP
360
1D6
  0
DICTIONARY
  5
1DD
330
3A
100
AcDbDictionary
280
     1
281
     1
  3
ACAD_XREC_ROUNDTRIP
360
1DE
  0
DICTIONARY
  5
1D1
330
34
100
AcDbDictionary
280
     1
281
     1
  3
ACAD_XREC_ROUNDTRIP
360
1D2
  0
DICTIONARY
  5
1D3
330
35
100
AcDbDictionary
280
     1
281
     1
  3
ACAD_XREC_ROUNDTRIP
360
1D4
  0
DICTIONARY
  5
1DB
330
39
100
AcDbDictionary
280
     1
281
     1
  3
ACAD_XREC_ROUNDTRIP
360
1DC
  0
DICTIONARY
  5
1BF
330
2B
100
AcDbDictionary
280
     1
281
     1
  3
ACAD_XREC_ROUNDTRIP
360
1C0
  0
DICTIONARY
  5
1C1
330
2C
100
AcDbDictionary
280
     1
281
     1
  3
ACAD_XREC_ROUNDTRIP
360
1C2
  0
DICTIONARY
  5
1C3
330
2D
100
AcDbDictionary
280
     1
281
     1
  3
ACAD_XREC_ROUNDTRIP
360
1C4
  0
DICTIONARY
  5
1C5
330
2E
100
AcDbDictionary
280
     1
281
     1
  3
ACAD_XREC_ROUNDTRIP
360
1C6
  0
DICTIONARY
  5
1D9
330
38
100
AcDbDictionary
280
     1
281
     1
  3
ACAD_XREC_ROUNDTRIP
360
1DA
  0
DICTIONARY
  5
1CF
330
33
100
AcDbDictionary
280
     1
281
     1
  3
ACAD_XREC_ROUNDTRIP
360
1D0
  0
DICTIONARY
  5
1D7
330
37
100
AcDbDictionary
280
     1
281
     1
  3
ACAD_XREC_ROUNDTRIP
360
1D8
  0
XRECORD
  5
1C8
102
{ACAD_REACTORS
330
1C7
102
}
330
1C7
100
AcDbXrecord
280
     1
102
RTVSPropertyOp0
 70
     1
102
RTVSPropertyOp1
 70
     1
102
RTVSPropertyOp2
 70
     1
102
RTVSPropertyOp3
 70
     1
102
RTVSPropertyOp4
 70
     1
102
RTVSPropertyOp5
 70
     1
102
RTVSPropertyOp6
 70
     1
102
RTVSPropertyOp7
 70
     1
102
RTVSPropertyOp8
 70
     1
102
RTVSPropertyOp9
 70
     1
102
RTVSPropertyOp10
 70
     1
102
RTVSPropertyOp11
 70
     1
102
RTVSPropertyOp12
 70
     1
102
RTVSPropertyOp13
 70
     1
102
RTVSPropertyOp14
 70
     1
102
RTVSPropertyOp15
 70
     1
102
RTVSPropertyOp16
 70
     1
102
RTVSPropertyOp17
 70
     1
102
RTVSPropertyOp18
 70
     1
102
RTVSPropertyOp19
 70
     1
102
RTVSPropertyOp20
 70
     1
102
RTVSPropertyOp21
 70
     1
102
RTVSPropertyOp22
 70
     1
102
RTVSPropertyOp23
 70
     1
102
RTVSPropertyOp24
 70
     1
102
RTVSPropertyOp25
 70
     1
102
RTVSPropertyOp26
 70
     1
102
RTVSPropertyOp27
 70
     1
102
RTVSPropertyOp28
 70
     1
102
RTVSPropertyOp29
 70
     1
102
RTVSPropertyOp30
 70
     1
102
RTVSPropertyOp31
 70
     1
102
RTVSPropertyOp32
 70
     1
  0
XRECORD
  5
1CC
102
{ACAD_REACTORS
330
1CB
102
}
330
1CB
100
AcDbXrecord
280
     1
102
RTVSPropertyOp0
 70
     1
102
RTVSPropertyOp1
 70
     1
102
RTVSPropertyOp2
 70
     1
102
RTVSPropertyOp3
 70
     1
102
RTVSPropertyOp4
 70
     1
102
RTVSPropertyOp5
 70
     1
102
RTVSPropertyOp6
 70
     1
102
RTVSPropertyOp7
 70
     1
102
RTVSPropertyOp8
 70
     1
102
RTVSPropertyOp9
 70
     1
102
RTVSPropertyOp10
 70
     1
102
RTVSPropertyOp11
 70
     1
102
RTVSPropertyOp12
 70
     1
102
RTVSPropertyOp13
 70
     1
102
RTVSPropertyOp14
 70
     1
102
RTVSPropertyOp15
 70
     1
102
RTVSPropertyOp16
 70
     1
102
RTVSPropertyOp17
 70
     1
102
RTVSPropertyOp18
 70
     1
102
RTVSPropertyOp19
 70
     1
102
RTVSPropertyOp20
 70
     1
102
RTVSPropertyOp21
 70
     1
102
RTVSPropertyOp22
 70
     1
102
RTVSPropertyOp23
 70
     1
102
RTVSPropertyOp24
 70
     1
102
RTVSPropertyOp25
 70
     1
102
RTVSPropertyOp26
 70
     1
102
RTVSPropertyOp27
 70
     1
102
RTVSPropertyOp28
 70
     1
102
RTVSPropertyOp29
 70
     1
102
RTVSPropertyOp30
 70
     1
102
RTVSPropertyOp31
 70
     1
102
RTVSPropertyOp32
 70
     1
  0
XRECORD
  5
1CA
102
{ACAD_REACTORS
330
1C9
102
}
330
1C9
100
AcDbXrecord
280
     1
102
RTVSPropertyOp0
 70
     1
102
RTVSPropertyOp1
 70
     1
102
RTVSPropertyOp2
 70
     1
102
RTVSPropertyOp3
 70
     1
102
RTVSPropertyOp4
 70
     1
102
RTVSPropertyOp5
 70
     1
102
RTVSPropertyOp6
 70
     1
102
RTVSPropertyOp7
 70
     1
102
RTVSPropertyOp8
 70
     1
102
RTVSPropertyOp9
 70
     1
102
RTVSPropertyOp10
 70
     1
102
RTVSPropertyOp11
 70
     1
102
RTVSPropertyOp12
 70
     1
102
RTVSPropertyOp13
 70
     1
102
RTVSPropertyOp14
 70
     1
102
RTVSPropertyOp15
 70
     1
102
RTVSPropertyOp16
 70
     1
102
RTVSPropertyOp17
 70
     1
102
RTVSPropertyOp18
 70
     1
102
RTVSPropertyOp19
 70
     1
102
RTVSPropertyOp20
 70
     1
102
RTVSPropertyOp21
 70
     1
102
RTVSPropertyOp22
 70
     1
102
RTVSPropertyOp23
 70
     1
102
RTVSPropertyOp24
 70
     1
102
RTVSPropertyOp25
 70
     1
102
RTVSPropertyOp26
 70
     1
102
RTVSPropertyOp27
 70
     1
102
RTVSPropertyOp28
 70
     1
102
RTVSPropertyOp29
 70
     1
102
RTVSPropertyOp30
 70
     1
102
RTVSPropertyOp31
 70
     1
102
RTVSPropertyOp32
 70
     1
  0
XRECORD
  5
1CE
102
{ACAD_REACTORS
330
1CD
102
}
330
1CD
100
AcDbXrecord
280
     1
102
RTVSPropertyOp0
 70
     1
102
RTVSPropertyOp1
 70
     1
102
RTVSPropertyOp2
 70
     1
102
RTVSPropertyOp3
 70
     1
102
RTVSPropertyOp4
 70
     1
102
RTVSPropertyOp5
 70
     1
102
RTVSPropertyOp6
 70
     1
102
RTVSPropertyOp7
 70
     1
102
RTVSPropertyOp8
 70
     1
102
RTVSPropertyOp9
 70
     1
102
RTVSPropertyOp10
 70
     1
102
RTVSPropertyOp11
 70
     1
102
RTVSPropertyOp12
 70
     1
102
RTVSPropertyOp13
 70
     1
102
RTVSPropertyOp14
 70
     1
102
RTVSPropertyOp15
 70
     1
102
RTVSPropertyOp16
 70
     1
102
RTVSPropertyOp17
 70
     1
102
RTVSPropertyOp18
 70
     1
102
RTVSPropertyOp19
 70
     1
102
RTVSPropertyOp20
 70
     1
102
RTVSPropertyOp21
 70
     1
102
RTVSPropertyOp22
 70
     1
102
RTVSPropertyOp23
 70
     1
102
RTVSPropertyOp24
 70
     1
102
RTVSPropertyOp25
 70
     1
102
RTVSPropertyOp26
 70
     1
102
RTVSPropertyOp27
 70
     1
102
RTVSPropertyOp28
 70
     1
102
RTVSPropertyOp29
 70
     1
102
RTVSPropertyOp30
 70
     1
102
RTVSPropertyOp31
 70
     1
102
RTVSPropertyOp32
 70
     1
  0
XRECORD
  5
1D6
102
{ACAD_REACTORS
330
1D5
102
}
330
1D5
100
AcDbXrecord
280
     1
102
RTVSPropertyOp0
 70
     1
102
RTVSPropertyOp1
 70
     1
102
RTVSPropertyOp2
 70
     1
102
RTVSPropertyOp3
 70
     1
102
RTVSPropertyOp4
 70
     1
102
RTVSPropertyOp5
 70
     1
102
RTVSPropertyOp6
 70
     1
102
RTVSPropertyOp7
 70
     1
102
RTVSPropertyOp8
 70
     1
102
RTVSPropertyOp9
 70
     1
102
RTVSPropertyOp10
 70
     1
102
RTVSPropertyOp11
 70
     1
102
RTVSPropertyOp12
 70
     1
102
RTVSPropertyOp13
 70
     1
102
RTVSPropertyOp14
 70
     1
102
RTVSPropertyOp15
 70
     1
102
RTVSPropertyOp16
 70
     1
102
RTVSPropertyOp17
 70
     1
102
RTVSPropertyOp18
 70
     1
102
RTVSPropertyOp19
 70
     1
102
RTVSPropertyOp20
 70
     1
102
RTVSPropertyOp21
 70
     1
102
RTVSPropertyOp22
 70
     1
102
RTVSPropertyOp23
 70
     1
102
RTVSPropertyOp24
 70
     1
102
RTVSPropertyOp25
 70
     1
102
RTVSPropertyOp26
 70
     1
102
RTVSPropertyOp27
 70
     1
102
RTVSPropertyOp28
 70
     1
102
RTVSPropertyOp29
 70
     1
102
RTVSPropertyOp30
 70
     1
102
RTVSPropertyOp31
 70
     1
102
RTVSPropertyOp32
 70
     1
  0
XRECORD
  5
1DE
102
{ACAD_REACTORS
330
1DD
102
}
330
1DD
100
AcDbXrecord
280
     1
102
RTVSPropertyOp0
 70
     1
102
RTVSPropertyOp1
 70
     1
102
RTVSPropertyOp2
 70
     1
102
RTVSPropertyOp3
 70
     1
102
RTVSPropertyOp4
 70
     1
102
RTVSPropertyOp5
 70
     1
102
RTVSPropertyOp6
 70
     1
102
RTVSPropertyOp7
 70
     1
102
RTVSPropertyOp8
 70
     1
102
RTVSPropertyOp9
 70
     1
102
RTVSPropertyOp10
 70
     1
102
RTVSPropertyOp11
 70
     1
102
RTVSPropertyOp12
 70
     1
102
RTVSPropertyOp13
 70
     1
102
RTVSPropertyOp14
 70
     1
102
RTVSPropertyOp15
 70
     1
102
RTVSPropertyOp16
 70
     1
102
RTVSPropertyOp17
 70
     1
102
RTVSPropertyOp18
 70
     1
102
RTVSPropertyOp19
 70
     1
102
RTVSPropertyOp20
 70
     1
102
RTVSPropertyOp21
 70
     1
102
RTVSPropertyOp22
 70
     1
102
RTVSPropertyOp23
 70
     1
102
RTVSPropertyOp24
 70
     1
102
RTVSPropertyOp25
 70
     1
102
RTVSPropertyOp26
 70
     1
102
RTVSPropertyOp27
 70
     1
102
RTVSPropertyOp28
 70
     1
102
RTVSPropertyOp29
 70
     1
102
RTVSPropertyOp30
 70
     1
102
RTVSPropertyOp31
 70
     1
102
RTVSPropertyOp32
 70
     1
  0
XRECORD
  5
1D2
102
{ACAD_REACTORS
330
1D1
102
}
330
1D1
100
AcDbXrecord
280
     1
102
RTVSPropertyOp0
 70
     1
102
RTVSPropertyOp1
 70
     1
102
RTVSPropertyOp2
 70
     1
102
RTVSPropertyOp3
 70
     1
102
RTVSPropertyOp4
 70
     1
102
RTVSPropertyOp5
 70
     1
102
RTVSPropertyOp6
 70
     1
102
RTVSPropertyOp7
 70
     1
102
RTVSPropertyOp8
 70
     1
102
RTVSPropertyOp9
 70
     1
102
RTVSPropertyOp10
 70
     1
102
RTVSPropertyOp11
 70
     1
102
RTVSPropertyOp12
 70
     1
102
RTVSPropertyOp13
 70
     1
102
RTVSPropertyOp14
 70
     1
102
RTVSPropertyOp15
 70
     1
102
RTVSPropertyOp16
 70
     1
102
RTVSPropertyOp17
 70
     1
102
RTVSPropertyOp18
 70
     1
102
RTVSPropertyOp19
 70
     1
102
RTVSPropertyOp20
 70
     1
102
RTVSPropertyOp21
 70
     1
102
RTVSPropertyOp22
 70
     1
102
RTVSPropertyOp23
 70
     1
102
RTVSPropertyOp24
 70
     1
102
RTVSPropertyOp25
 70
     1
102
RTVSPropertyOp26
 70
     1
102
RTVSPropertyOp27
 70
     1
102
RTVSPropertyOp28
 70
     1
102
RTVSPropertyOp29
 70
     1
102
RTVSPropertyOp30
 70
     1
102
RTVSPropertyOp31
 70
     1
102
RTVSPropertyOp32
 70
     1
  0
XRECORD
  5
1D4
102
{ACAD_REACTORS
330
1D3
102
}
330
1D3
100
AcDbXrecord
280
     1
102
RTVSPropertyOp0
 70
     1
102
RTVSPropertyOp1
 70
     1
102
RTVSPropertyOp2
 70
     1
102
RTVSPropertyOp3
 70
     1
102
RTVSPropertyOp4
 70
     1
102
RTVSPropertyOp5
 70
     1
102
RTVSPropertyOp6
 70
     1
102
RTVSPropertyOp7
 70
     1
102
RTVSPropertyOp8
 70
     1
102
RTVSPropertyOp9
 70
     1
102
RTVSPropertyOp10
 70
     1
102
RTVSPropertyOp11
 70
     1
102
RTVSPropertyOp12
 70
     1
102
RTVSPropertyOp13
 70
     1
102
RTVSPropertyOp14
 70
     1
102
RTVSPropertyOp15
 70
     1
102
RTVSPropertyOp16
 70
     1
102
RTVSPropertyOp17
 70
     1
102
RTVSPropertyOp18
 70
     1
102
RTVSPropertyOp19
 70
     1
102
RTVSPropertyOp20
 70
     1
102
RTVSPropertyOp21
 70
     1
102
RTVSPropertyOp22
 70
     1
102
RTVSPropertyOp23
 70
     1
102
RTVSPropertyOp24
 70
     1
102
RTVSPropertyOp25
 70
     1
102
RTVSPropertyOp26
 70
     1
102
RTVSPropertyOp27
 70
     1
102
RTVSPropertyOp28
 70
     1
102
RTVSPropertyOp29
 70
     1
102
RTVSPropertyOp30
 70
     1
102
RTVSPropertyOp31
 70
     1
102
RTVSPropertyOp32
 70
     1
  0
XRECORD
  5
1DC
102
{ACAD_REACTORS
330
1DB
102
}
330
1DB
100
AcDbXrecord
280
     1
102
RTVSPropertyOp0
 70
     1
102
RTVSPropertyOp1
 70
     1
102
RTVSPropertyOp2
 70
     1
102
RTVSPropertyOp3
 70
     1
102
RTVSPropertyOp4
 70
     1
102
RTVSPropertyOp5
 70
     1
102
RTVSPropertyOp6
 70
     1
102
RTVSPropertyOp7
 70
     1
102
RTVSPropertyOp8
 70
     1
102
RTVSPropertyOp9
 70
     1
102
RTVSPropertyOp10
 70
     1
102
RTVSPropertyOp11
 70
     1
102
RTVSPropertyOp12
 70
     1
102
RTVSPropertyOp13
 70
     1
102
RTVSPropertyOp14
 70
     1
102
RTVSPropertyOp15
 70
     1
102
RTVSPropertyOp16
 70
     1
102
RTVSPropertyOp17
 70
     1
102
RTVSPropertyOp18
 70
     1
102
RTVSPropertyOp19
 70
     1
102
RTVSPropertyOp20
 70
     1
102
RTVSPropertyOp21
 70
     1
102
RTVSPropertyOp22
 70
     1
102
RTVSPropertyOp23
 70
     1
102
RTVSPropertyOp24
 70
     1
102
RTVSPropertyOp25
 70
     1
102
RTVSPropertyOp26
 70
     1
102
RTVSPropertyOp27
 70
     1
102
RTVSPropertyOp28
 70
     1
102
RTVSPropertyOp29
 70
     1
102
RTVSPropertyOp30
 70
     1
102
RTVSPropertyOp31
 70
     1
102
RTVSPropertyOp32
 70
     1
  0
XRECORD
  5
1C0
102
{ACAD_REACTORS
330
1BF
102
}
330
1BF
100
AcDbXrecord
280
     1
102
RTVSPropertyOp0
 70
     1
102
RTVSPropertyOp1
 70
     1
102
RTVSPropertyOp2
 70
     1
102
RTVSPropertyOp3
 70
     1
102
RTVSPropertyOp4
 70
     1
102
RTVSPropertyOp5
 70
     1
102
RTVSPropertyOp6
 70
     1
102
RTVSPropertyOp7
 70
     1
102
RTVSPropertyOp8
 70
     1
102
RTVSPropertyOp9
 70
     1
102
RTVSPropertyOp10
 70
     1
102
RTVSPropertyOp11
 70
     1
102
RTVSPropertyOp12
 70
     1
102
RTVSPropertyOp13
 70
     1
102
RTVSPropertyOp14
 70
     1
102
RTVSPropertyOp15
 70
     1
102
RTVSPropertyOp16
 70
     1
102
RTVSPropertyOp17
 70
     1
102
RTVSPropertyOp18
 70
     1
102
RTVSPropertyOp19
 70
     1
102
RTVSPropertyOp20
 70
     1
102
RTVSPropertyOp21
 70
     1
102
RTVSPropertyOp22
 70
     1
102
RTVSPropertyOp23
 70
     1
102
RTVSPropertyOp24
 70
     1
102
RTVSPropertyOp25
 70
     1
102
RTVSPropertyOp26
 70
     1
102
RTVSPropertyOp27
 70
     1
102
RTVSPropertyOp28
 70
     1
102
RTVSPropertyOp29
 70
     1
102
RTVSPropertyOp30
 70
     1
102
RTVSPropertyOp31
 70
     1
102
RTVSPropertyOp32
 70
     1
  0
XRECORD
  5
1C2
102
{ACAD_REACTORS
330
1C1
102
}
330
1C1
100
AcDbXrecord
280
     1
102
RTVSPropertyOp0
 70
     1
102
RTVSPropertyOp1
 70
     1
102
RTVSPropertyOp2
 70
     1
102
RTVSPropertyOp3
 70
     1
102
RTVSPropertyOp4
 70
     1
102
RTVSPropertyOp5
 70
     1
102
RTVSPropertyOp6
 70
     1
102
RTVSPropertyOp7
 70
     1
102
RTVSPropertyOp8
 70
     1
102
RTVSPropertyOp9
 70
     1
102
RTVSPropertyOp10
 70
     1
102
RTVSPropertyOp11
 70
     1
102
RTVSPropertyOp12
 70
     1
102
RTVSPropertyOp13
 70
     1
102
RTVSPropertyOp14
 70
     1
102
RTVSPropertyOp15
 70
     1
102
RTVSPropertyOp16
 70
     1
102
RTVSPropertyOp17
 70
     1
102
RTVSPropertyOp18
 70
     1
102
RTVSPropertyOp19
 70
     1
102
RTVSPropertyOp20
 70
     1
102
RTVSPropertyOp21
 70
     1
102
RTVSPropertyOp22
 70
     1
102
RTVSPropertyOp23
 70
     1
102
RTVSPropertyOp24
 70
     1
102
RTVSPropertyOp25
 70
     1
102
RTVSPropertyOp26
 70
     1
102
RTVSPropertyOp27
 70
     1
102
RTVSPropertyOp28
 70
     1
102
RTVSPropertyOp29
 70
     1
102
RTVSPropertyOp30
 70
     1
102
RTVSPropertyOp31
 70
     1
102
RTVSPropertyOp32
 70
     1
  0
XRECORD
  5
1C4
102
{ACAD_REACTORS
330
1C3
102
}
330
1C3
100
AcDbXrecord
280
     1
102
RTVSPropertyOp0
 70
     1
102
RTVSPropertyOp1
 70
     1
102
RTVSPropertyOp2
 70
     1
102
RTVSPropertyOp3
 70
     1
102
RTVSPropertyOp4
 70
     1
102
RTVSPropertyOp5
 70
     1
102
RTVSPropertyOp6
 70
     1
102
RTVSPropertyOp7
 70
     1
102
RTVSPropertyOp8
 70
     1
102
RTVSPropertyOp9
 70
     1
102
RTVSPropertyOp10
 70
     1
102
RTVSPropertyOp11
 70
     1
102
RTVSPropertyOp12
 70
     1
102
RTVSPropertyOp13
 70
     1
102
RTVSPropertyOp14
 70
     1
102
RTVSPropertyOp15
 70
     1
102
RTVSPropertyOp16
 70
     1
102
RTVSPropertyOp17
 70
     1
102
RTVSPropertyOp18
 70
     1
102
RTVSPropertyOp19
 70
     1
102
RTVSPropertyOp20
 70
     1
102
RTVSPropertyOp21
 70
     1
102
RTVSPropertyOp22
 70
     1
102
RTVSPropertyOp23
 70
     1
102
RTVSPropertyOp24
 70
     1
102
RTVSPropertyOp25
 70
     1
102
RTVSPropertyOp26
 70
     1
102
RTVSPropertyOp27
 70
     1
102
RTVSPropertyOp28
 70
     1
102
RTVSPropertyOp29
 70
     1
102
RTVSPropertyOp30
 70
     1
102
RTVSPropertyOp31
 70
     1
102
RTVSPropertyOp32
 70
     1
  0
XRECORD
  5
1C6
102
{ACAD_REACTORS
330
1C5
102
}
330
1C5
100
AcDbXrecord
280
     1
102
RTVSPropertyOp0
 70
     1
102
RTVSPropertyOp1
 70
     1
102
RTVSPropertyOp2
 70
     1
102
RTVSPropertyOp3
 70
     1
102
RTVSPropertyOp4
 70
     1
102
RTVSPropertyOp5
 70
     1
102
RTVSPropertyOp6
 70
     1
102
RTVSPropertyOp7
 70
     1
102
RTVSPropertyOp8
 70
     1
102
RTVSPropertyOp9
 70
     1
102
RTVSPropertyOp10
 70
     1
102
RTVSPropertyOp11
 70
     1
102
RTVSPropertyOp12
 70
     1
102
RTVSPropertyOp13
 70
     1
102
RTVSPropertyOp14
 70
     1
102
RTVSPropertyOp15
 70
     1
102
RTVSPropertyOp16
 70
     1
102
RTVSPropertyOp17
 70
     1
102
RTVSPropertyOp18
 70
     1
102
RTVSPropertyOp19
 70
     1
102
RTVSPropertyOp20
 70
     1
102
RTVSPropertyOp21
 70
     1
102
RTVSPropertyOp22
 70
     1
102
RTVSPropertyOp23
 70
     1
102
RTVSPropertyOp24
 70
     1
102
RTVSPropertyOp25
 70
     1
102
RTVSPropertyOp26
 70
     1
102
RTVSPropertyOp27
 70
     1
102
RTVSPropertyOp28
 70
     1
102
RTVSPropertyOp29
 70
     1
102
RTVSPropertyOp30
 70
     1
102
RTVSPropertyOp31
 70
     1
102
RTVSPropertyOp32
 70
     1
  0
XRECORD
  5
1DA
102
{ACAD_REACTORS
330
1D9
102
}
330
1D9
100
AcDbXrecord
280
     1
102
RTVSPropertyOp0
 70
     1
102
RTVSPropertyOp1
 70
     1
102
RTVSPropertyOp2
 70
     1
102
RTVSPropertyOp3
 70
     1
102
RTVSPropertyOp4
 70
     1
102
RTVSPropertyOp5
 70
     1
102
RTVSPropertyOp6
 70
     1
102
RTVSPropertyOp7
 70
     1
102
RTVSPropertyOp8
 70
     1
102
RTVSPropertyOp9
 70
     1
102
RTVSPropertyOp10
 70
     1
102
RTVSPropertyOp11
 70
     1
102
RTVSPropertyOp12
 70
     1
102
RTVSPropertyOp13
 70
     1
102
RTVSPropertyOp14
 70
     1
102
RTVSPropertyOp15
 70
     1
102
RTVSPropertyOp16
 70
     1
102
RTVSPropertyOp17
 70
     1
102
RTVSPropertyOp18
 70
     1
102
RTVSPropertyOp19
 70
     1
102
RTVSPropertyOp20
 70
     1
102
RTVSPropertyOp21
 70
     1
102
RTVSPropertyOp22
 70
     1
102
RTVSPropertyOp23
 70
     1
102
RTVSPropertyOp24
 70
     1
102
RTVSPropertyOp25
 70
     1
102
RTVSPropertyOp26
 70
     1
102
RTVSPropertyOp27
 70
     1
102
RTVSPropertyOp28
 70
     1
102
RTVSPropertyOp29
 70
     1
102
RTVSPropertyOp30
 70
     1
102
RTVSPropertyOp31
 70
     1
102
RTVSPropertyOp32
 70
     1
  0
XRECORD
  5
1D0
102
{ACAD_REACTORS
330
1CF
102
}
330
1CF
100
AcDbXrecord
280
     1
102
RTVSPropertyOp0
 70
     1
102
RTVSPropertyOp1
 70
     1
102
RTVSPropertyOp2
 70
     1
102
RTVSPropertyOp3
 70
     1
102
RTVSPropertyOp4
 70
     1
102
RTVSPropertyOp5
 70
     1
102
RTVSPropertyOp6
 70
     1
102
RTVSPropertyOp7
 70
     1
102
RTVSPropertyOp8
 70
     1
102
RTVSPropertyOp9
 70
     1
102
RTVSPropertyOp10
 70
     1
102
RTVSPropertyOp11
 70
     1
102
RTVSPropertyOp12
 70
     1
102
RTVSPropertyOp13
 70
     1
102
RTVSPropertyOp14
 70
     1
102
RTVSPropertyOp15
 70
     1
102
RTVSPropertyOp16
 70
     1
102
RTVSPropertyOp17
 70
     1
102
RTVSPropertyOp18
 70
     1
102
RTVSPropertyOp19
 70
     1
102
RTVSPropertyOp20
 70
     1
102
RTVSPropertyOp21
 70
     1
102
RTVSPropertyOp22
 70
     1
102
RTVSPropertyOp23
 70
     1
102
RTVSPropertyOp24
 70
     1
102
RTVSPropertyOp25
 70
     1
102
RTVSPropertyOp26
 70
     1
102
RTVSPropertyOp27
 70
     1
102
RTVSPropertyOp28
 70
     1
102
RTVSPropertyOp29
 70
     1
102
RTVSPropertyOp30
 70
     1
102
RTVSPropertyOp31
 70
     1
102
RTVSPropertyOp32
 70
     1
  0
XRECORD
  5
1D8
102
{ACAD_REACTORS
330
1D7
102
}
330
1D7
100
AcDbXrecord
280
     1
102
RTVSPropertyOp0
 70
     1
102
RTVSPropertyOp1
 70
     1
102
RTVSPropertyOp2
 70
     1
102
RTVSPropertyOp3
 70
     1
102
RTVSPropertyOp4
 70
     1
102
RTVSPropertyOp5
 70
     1
102
RTVSPropertyOp6
 70
     1
102
RTVSPropertyOp7
 70
     1
102
RTVSPropertyOp8
 70
     1
102
RTVSPropertyOp9
 70
     1
102
RTVSPropertyOp10
 70
     1
102
RTVSPropertyOp11
 70
     1
102
RTVSPropertyOp12
 70
     1
102
RTVSPropertyOp13
 70
     1
102
RTVSPropertyOp14
 70
     1
102
RTVSPropertyOp15
 70
     1
102
RTVSPropertyOp16
 70
     1
102
RTVSPropertyOp17
 70
     1
102
RTVSPropertyOp18
 70
     1
102
RTVSPropertyOp19
 70
     1
102
RTVSPropertyOp20
 70
     1
102
RTVSPropertyOp21
 70
     1
102
RTVSPropertyOp22
 70
     1
102
RTVSPropertyOp23
 70
     1
102
RTVSPropertyOp24
 70
     1
102
RTVSPropertyOp25
 70
     1
102
RTVSPropertyOp26
 70
     1
102
RTVSPropertyOp27
 70
     1
102
RTVSPropertyOp28
 70
     1
102
RTVSPropertyOp29
 70
     1
102
RTVSPropertyOp30
 70
     1
102
RTVSPropertyOp31
 70
     1
102
RTVSPropertyOp32
 70
     1
  0
ENDSEC
  0
EOF
