<?xml version="1.0" standalone="no"?>
<!DOCTYPE svg PUBLIC "-//W3C//DTD SVG 1.1//EN" "http://www.w3.org/Graphics/SVG/1.1/DTD/svg11.dtd">
<svg width="44mm" height="206mm" viewBox="-22 -184 44 206" xmlns="http://www.w3.org/2000/svg" version="1.1">
<title>OpenSCAD Model</title>
<path d="
M 17.9369,-140.089 L 18.5451,-140.245 L 19.1289,-140.476 L 19.6791,-140.778 L 20.1871,-141.147 L 20.6448,-141.577
 L 21.0451,-142.061 L 21.3815,-142.591 L 21.6489,-143.159 L 21.8429,-143.757 L 21.9606,-144.373 L 22,-145
 L 22,-179 L 21.9606,-179.627 L 21.8429,-180.243 L 21.6489,-180.841 L 21.3815,-181.409 L 21.0451,-181.939
 L 20.6448,-182.423 L 20.1871,-182.853 L 19.6791,-183.222 L 19.1289,-183.524 L 18.5451,-183.755 L 17.9369,-183.911
 L 17.3139,-183.99 L -17.3139,-183.99 L -17.9369,-183.911 L -18.5451,-183.755 L -19.1289,-183.524 L -19.6791,-183.222
 L -20.1871,-182.853 L -20.6448,-182.423 L -21.0451,-181.939 L -21.3815,-181.409 L -21.6489,-180.841 L -21.8429,-180.243
 L -21.9606,-179.627 L -22,-179 L -22,-145 L -21.9606,-144.373 L -21.8429,-143.757 L -21.6489,-143.159
 L -21.3815,-142.591 L -21.0451,-142.061 L -20.6448,-141.577 L -20.1871,-141.147 L -19.6791,-140.778 L -19.1289,-140.476
 L -18.5451,-140.245 L -17.9369,-140.089 L -17.3139,-140.01 L 17.3139,-140.01 z
M -1.67329,-176.102 L -3.34659,-179 L -1.67329,-181.898 L 1.67329,-181.898 L 3.34659,-179 L 1.67329,-176.102
 z
M -15.1884,-174.006 L -15.5621,-174.053 L -15.927,-174.147 L -16.2773,-174.286 L -16.6075,-174.467 L -16.9123,-174.688
 L -17.1869,-174.946 L -17.427,-175.237 L -17.6289,-175.555 L -17.7893,-175.896 L -17.9057,-176.254 L -17.9763,-176.624
 L -18,-177 L -17.9763,-177.376 L -17.9057,-177.746 L -17.7893,-178.104 L -17.6289,-178.445 L -17.427,-178.763
 L -17.1869,-179.054 L -16.9123,-179.312 L -16.6075,-179.533 L -16.2773,-179.714 L -15.927,-179.853 L -15.5621,-179.947
 L -15.1884,-179.994 L -14.8116,-179.994 L -14.4379,-179.947 L -14.0729,-179.853 L -13.7227,-179.714 L -13.3925,-179.533
 L -13.0877,-179.312 L -12.8131,-179.054 L -12.5729,-178.763 L -12.3711,-178.445 L -12.2107,-178.104 L -12.0942,-177.746
 L -12.0237,-177.376 L -12,-177 L -12.0237,-176.624 L -12.0942,-176.254 L -12.2107,-175.896 L -12.3711,-175.555
 L -12.5729,-175.237 L -12.8131,-174.946 L -13.0877,-174.688 L -13.3925,-174.467 L -13.7227,-174.286 L -14.0729,-174.147
 L -14.4379,-174.053 L -14.8116,-174.006 z
M 14.8116,-174.006 L 14.4379,-174.053 L 14.0729,-174.147 L 13.7227,-174.286 L 13.3925,-174.467 L 13.0877,-174.688
 L 12.8131,-174.946 L 12.5729,-175.237 L 12.3711,-175.555 L 12.2107,-175.896 L 12.0942,-176.254 L 12.0237,-176.624
 L 12,-177 L 12.0237,-177.376 L 12.0942,-177.746 L 12.2107,-178.104 L 12.3711,-178.445 L 12.5729,-178.763
 L 12.8131,-179.054 L 13.0877,-179.312 L 13.3925,-179.533 L 13.7227,-179.714 L 14.0729,-179.853 L 14.4379,-179.947
 L 14.8116,-179.994 L 15.1884,-179.994 L 15.5621,-179.947 L 15.927,-179.853 L 16.2773,-179.714 L 16.6075,-179.533
 L 16.9123,-179.312 L 17.1869,-179.054 L 17.427,-178.763 L 17.6289,-178.445 L 17.7893,-178.104 L 17.9057,-177.746
 L 17.9763,-177.376 L 18,-177 L 17.9763,-176.624 L 17.9057,-176.254 L 17.7893,-175.896 L 17.6289,-175.555
 L 17.427,-175.237 L 17.1869,-174.946 L 16.9123,-174.688 L 16.6075,-174.467 L 16.2773,-174.286 L 15.927,-174.147
 L 15.5621,-174.053 L 15.1884,-174.006 z
M -0.70639,-150.772 L -2.10803,-150.949 L -3.47644,-151.301 L -4.79001,-151.821 L -6.02805,-152.501 L -7.17101,-153.332
 L -8.20088,-154.299 L -9.10144,-155.387 L -9.85844,-156.58 L -10.46,-157.859 L -10.8965,-159.202 L -11.1613,-160.59
 L -11.25,-162 L -11.1613,-163.41 L -10.8965,-164.798 L -10.46,-166.141 L -9.85844,-167.42 L -9.10144,-168.613
 L -8.20088,-169.701 L -7.17101,-170.668 L -6.02805,-171.499 L -4.79001,-172.179 L -3.47644,-172.699 L -2.10803,-173.051
 L -0.70639,-173.228 L 0.70639,-173.228 L 2.10803,-173.051 L 3.47644,-172.699 L 4.79001,-172.179 L 6.02805,-171.499
 L 7.17101,-170.668 L 8.20088,-169.701 L 9.10144,-168.613 L 9.85844,-167.42 L 10.46,-166.141 L 10.8965,-164.798
 L 11.1613,-163.41 L 11.25,-162 L 11.1613,-160.59 L 10.8965,-159.202 L 10.46,-157.859 L 9.85844,-156.58
 L 9.10144,-155.387 L 8.20088,-154.299 L 7.17101,-153.332 L 6.02805,-152.501 L 4.79001,-151.821 L 3.47644,-151.301
 L 2.10803,-150.949 L 0.70639,-150.772 z
M 1.92065,-151.932 L 3.16742,-152.252 L 4.36423,-152.726 L 5.49222,-153.346 L 6.53358,-154.102 L 7.47192,-154.983
 L 8.29242,-155.975 L 8.98213,-157.062 L 9.5302,-158.227 L 9.92796,-159.451 L 10.1692,-160.715 L 10.25,-162
 L 10.1692,-163.285 L 9.92796,-164.549 L 9.5302,-165.773 L 8.98213,-166.938 L 8.29242,-168.025 L 7.47192,-169.017
 L 6.53358,-169.898 L 5.49222,-170.654 L 4.36423,-171.274 L 3.16742,-171.748 L 1.92065,-172.068 L 0.6436,-172.23
 L -0.6436,-172.23 L -1.92065,-172.068 L -3.16742,-171.748 L -4.36423,-171.274 L -5.49222,-170.654 L -6.53358,-169.898
 L -7.47192,-169.017 L -8.29242,-168.025 L -8.98213,-166.938 L -9.5302,-165.773 L -9.92796,-164.549 L -10.1692,-163.285
 L -10.25,-162 L -10.1692,-160.715 L -9.92796,-159.451 L -9.5302,-158.227 L -8.98213,-157.062 L -8.29242,-155.975
 L -7.47192,-154.983 L -6.53358,-154.102 L -5.49222,-153.346 L -4.36423,-152.726 L -3.16742,-152.252 L -1.92065,-151.932
 L -0.6436,-151.77 L 0.6436,-151.77 z
M -0.18837,-159.006 L -0.562134,-159.053 L -0.927048,-159.147 L -1.27733,-159.286 L -1.60747,-159.467 L -1.91226,-159.688
 L -2.1869,-159.946 L -2.42705,-160.237 L -2.62891,-160.555 L -2.78932,-160.896 L -2.90575,-161.254 L -2.97633,-161.624
 L -3,-162 L -2.97633,-162.376 L -2.90575,-162.746 L -2.78932,-163.104 L -2.62891,-163.445 L -2.42705,-163.763
 L -2.1869,-164.054 L -1.91226,-164.312 L -1.60747,-164.533 L -1.27733,-164.714 L -0.927048,-164.853 L -0.562134,-164.947
 L -0.18837,-164.994 L 0.18837,-164.994 L 0.562134,-164.947 L 0.927048,-164.853 L 1.27733,-164.714 L 1.60747,-164.533
 L 1.91226,-164.312 L 2.1869,-164.054 L 2.42705,-163.763 L 2.62891,-163.445 L 2.78932,-163.104 L 2.90575,-162.746
 L 2.97633,-162.376 L 3,-162 L 2.97633,-161.624 L 2.90575,-161.254 L 2.78932,-160.896 L 2.62891,-160.555
 L 2.42705,-160.237 L 2.1869,-159.946 L 1.91226,-159.688 L 1.60747,-159.467 L 1.27733,-159.286 L 0.927048,-159.147
 L 0.562134,-159.053 L 0.18837,-159.006 z
M 7.40581,-160.503 L 7.21892,-160.527 L 7.03647,-160.573 L 6.86133,-160.643 L 6.69626,-160.734 L 6.54385,-160.844
 L 6.40654,-160.973 L 6.28647,-161.118 L 6.18553,-161.277 L 6.10533,-161.448 L 6.04712,-161.627 L 6.01183,-161.812
 L 6,-162 L 6.01183,-162.188 L 6.04712,-162.373 L 6.10533,-162.552 L 6.18553,-162.723 L 6.28647,-162.882
 L 6.40654,-163.027 L 6.54385,-163.156 L 6.69626,-163.266 L 6.86133,-163.357 L 7.03647,-163.427 L 7.21892,-163.473
 L 7.40581,-163.497 L 8.09418,-163.497 L 8.28107,-163.473 L 8.46352,-163.427 L 8.63866,-163.357 L 8.80373,-163.266
 L 8.95613,-163.156 L 9.09344,-163.027 L 9.21352,-162.882 L 9.31445,-162.723 L 9.39465,-162.552 L 9.45287,-162.373
 L 9.48816,-162.188 L 9.5,-162 L 9.48816,-161.812 L 9.45287,-161.627 L 9.39465,-161.448 L 9.31445,-161.277
 L 9.21352,-161.118 L 9.09344,-160.973 L 8.95613,-160.844 L 8.80373,-160.734 L 8.63866,-160.643 L 8.46352,-160.573
 L 8.28107,-160.527 L 8.09418,-160.503 z
M -8.09418,-160.503 L -8.28107,-160.527 L -8.46352,-160.573 L -8.63866,-160.643 L -8.80373,-160.734 L -8.95613,-160.844
 L -9.09344,-160.973 L -9.21352,-161.118 L -9.31445,-161.277 L -9.39465,-161.448 L -9.45287,-161.627 L -9.48816,-161.812
 L -9.5,-162 L -9.48816,-162.188 L -9.45287,-162.373 L -9.39465,-162.552 L -9.31445,-162.723 L -9.21352,-162.882
 L -9.09344,-163.027 L -8.95613,-163.156 L -8.80373,-163.266 L -8.63866,-163.357 L -8.46352,-163.427 L -8.28107,-163.473
 L -8.09418,-163.497 L -7.40581,-163.497 L -7.21892,-163.473 L -7.03647,-163.427 L -6.86133,-163.357 L -6.69626,-163.266
 L -6.54385,-163.156 L -6.40654,-163.027 L -6.28647,-162.882 L -6.18553,-162.723 L -6.10533,-162.552 L -6.04712,-162.373
 L -6.01183,-162.188 L -6,-162 L -6.01183,-161.812 L -6.04712,-161.627 L -6.10533,-161.448 L -6.18553,-161.277
 L -6.28647,-161.118 L -6.40654,-160.973 L -6.54385,-160.844 L -6.69626,-160.734 L -6.86133,-160.643 L -7.03647,-160.573
 L -7.21892,-160.527 L -7.40581,-160.503 z
M 16.5997,-159.634 L 16.3063,-159.702 L 16.0238,-159.807 L 15.7567,-159.947 L 15.5092,-160.119 L 15.2853,-160.321
 L 15.0883,-160.549 L 14.9215,-160.8 L 14.7875,-161.07 L 14.6884,-161.355 L 14.6257,-161.649 L 14.6005,-161.95
 L 14.6131,-162.251 L 14.6634,-162.548 L 14.7505,-162.837 L 14.8731,-163.112 L 15.0292,-163.37 L 15.2164,-163.606
 L 15.4318,-163.817 L 15.6719,-163.999 L 15.9329,-164.15 L 16.2107,-164.266 L 16.501,-164.348 L 16.7992,-164.392
 L 17.1005,-164.398 L 17.4002,-164.366 L 17.6937,-164.298 L 17.9762,-164.193 L 18.2433,-164.053 L 18.4908,-163.881
 L 18.7147,-163.679 L 18.9117,-163.451 L 19.0785,-163.2 L 19.2125,-162.93 L 19.3116,-162.645 L 19.3743,-162.351
 L 19.3995,-162.05 L 19.3868,-161.749 L 19.3366,-161.452 L 19.2495,-161.163 L 19.1269,-160.888 L 18.9707,-160.63
 L 18.7835,-160.394 L 18.5682,-160.183 L 18.3281,-160.001 L 18.0671,-159.85 L 17.7893,-159.734 L 17.499,-159.652
 L 17.2008,-159.608 L 16.8995,-159.602 z
M -17.1507,-159.605 L -17.4497,-159.643 L -17.7416,-159.717 L -18.0219,-159.828 L -18.286,-159.974 L -18.5298,-160.151
 L -18.7495,-160.357 L -18.9416,-160.589 L -19.1031,-160.844 L -19.2315,-161.117 L -19.3246,-161.403 L -19.3811,-161.699
 L -19.4,-162 L -19.3811,-162.301 L -19.3246,-162.597 L -19.2315,-162.883 L -19.1031,-163.156 L -18.9416,-163.411
 L -18.7495,-163.643 L -18.5298,-163.849 L -18.286,-164.026 L -18.0219,-164.172 L -17.7416,-164.283 L -17.4497,-164.357
 L -17.1507,-164.395 L -16.8493,-164.395 L -16.5503,-164.357 L -16.2583,-164.283 L -15.9781,-164.172 L -15.714,-164.026
 L -15.4702,-163.849 L -15.2505,-163.643 L -15.0583,-163.411 L -14.8969,-163.156 L -14.7685,-162.883 L -14.6754,-162.597
 L -14.6189,-162.301 L -14.6,-162 L -14.6189,-161.699 L -14.6754,-161.403 L -14.7685,-161.117 L -14.8969,-160.844
 L -15.0583,-160.589 L -15.2505,-160.357 L -15.4702,-160.151 L -15.714,-159.974 L -15.9781,-159.828 L -16.2583,-159.717
 L -16.5503,-159.643 L -16.8493,-159.605 z
M 14.8116,-144.006 L 14.4379,-144.053 L 14.0729,-144.147 L 13.7227,-144.286 L 13.3925,-144.467 L 13.0877,-144.688
 L 12.8131,-144.946 L 12.5729,-145.237 L 12.3711,-145.555 L 12.2107,-145.896 L 12.0942,-146.254 L 12.0237,-146.624
 L 12,-147 L 12.0237,-147.376 L 12.0942,-147.746 L 12.2107,-148.104 L 12.3711,-148.445 L 12.5729,-148.763
 L 12.8131,-149.054 L 13.0877,-149.312 L 13.3925,-149.533 L 13.7227,-149.714 L 14.0729,-149.853 L 14.4379,-149.947
 L 14.8116,-149.994 L 15.1884,-149.994 L 15.5621,-149.947 L 15.927,-149.853 L 16.2773,-149.714 L 16.6075,-149.533
 L 16.9123,-149.312 L 17.1869,-149.054 L 17.427,-148.763 L 17.6289,-148.445 L 17.7893,-148.104 L 17.9057,-147.746
 L 17.9763,-147.376 L 18,-147 L 17.9763,-146.624 L 17.9057,-146.254 L 17.7893,-145.896 L 17.6289,-145.555
 L 17.427,-145.237 L 17.1869,-144.946 L 16.9123,-144.688 L 16.6075,-144.467 L 16.2773,-144.286 L 15.927,-144.147
 L 15.5621,-144.053 L 15.1884,-144.006 z
M -15.1884,-144.006 L -15.5621,-144.053 L -15.927,-144.147 L -16.2773,-144.286 L -16.6075,-144.467 L -16.9123,-144.688
 L -17.1869,-144.946 L -17.427,-145.237 L -17.6289,-145.555 L -17.7893,-145.896 L -17.9057,-146.254 L -17.9763,-146.624
 L -18,-147 L -17.9763,-147.376 L -17.9057,-147.746 L -17.7893,-148.104 L -17.6289,-148.445 L -17.427,-148.763
 L -17.1869,-149.054 L -16.9123,-149.312 L -16.6075,-149.533 L -16.2773,-149.714 L -15.927,-149.853 L -15.5621,-149.947
 L -15.1884,-149.994 L -14.8116,-149.994 L -14.4379,-149.947 L -14.0729,-149.853 L -13.7227,-149.714 L -13.3925,-149.533
 L -13.0877,-149.312 L -12.8131,-149.054 L -12.5729,-148.763 L -12.3711,-148.445 L -12.2107,-148.104 L -12.0942,-147.746
 L -12.0237,-147.376 L -12,-147 L -12.0237,-146.624 L -12.0942,-146.254 L -12.2107,-145.896 L -12.3711,-145.555
 L -12.5729,-145.237 L -12.8131,-144.946 L -13.0877,-144.688 L -13.3925,-144.467 L -13.7227,-144.286 L -14.0729,-144.147
 L -14.4379,-144.053 L -14.8116,-144.006 z
M -1.67329,-142.102 L -3.34657,-145 L -1.67328,-147.898 L 1.67329,-147.898 L 3.34657,-145 L 1.67328,-142.102
 z
M 17.9369,-86.0886 L 18.5451,-86.2447 L 19.1289,-86.4759 L 19.6791,-86.7784 L 20.1871,-87.1474 L 20.6448,-87.5773
 L 21.0451,-88.0611 L 21.3815,-88.5912 L 21.6489,-89.1594 L 21.8429,-89.7566 L 21.9606,-90.3733 L 22,-91
 L 22,-125 L 21.9606,-125.627 L 21.8429,-126.243 L 21.6489,-126.841 L 21.3815,-127.409 L 21.0451,-127.939
 L 20.6448,-128.423 L 20.1871,-128.853 L 19.6791,-129.222 L 19.1289,-129.524 L 18.5451,-129.755 L 17.9369,-129.911
 L 17.3139,-129.99 L -17.3139,-129.99 L -17.9369,-129.911 L -18.5451,-129.755 L -19.1289,-129.524 L -19.6791,-129.222
 L -20.1871,-128.853 L -20.6448,-128.423 L -21.0451,-127.939 L -21.3815,-127.409 L -21.6489,-126.841 L -21.8429,-126.243
 L -21.9606,-125.627 L -22,-125 L -22,-91 L -21.9606,-90.3733 L -21.8429,-89.7566 L -21.6489,-89.1594
 L -21.3815,-88.5912 L -21.0451,-88.0611 L -20.6448,-87.5773 L -20.1871,-87.1474 L -19.6791,-86.7784 L -19.1289,-86.4759
 L -18.5451,-86.2447 L -17.9369,-86.0886 L -17.3139,-86.0099 L 17.3139,-86.0099 z
M -0.0941772,-123.503 L -0.281067,-123.527 L -0.463516,-123.573 L -0.638657,-123.643 L -0.803726,-123.734 L -0.956131,-123.844
 L -1.09344,-123.973 L -1.21352,-124.118 L -1.31445,-124.277 L -1.39465,-124.448 L -1.45287,-124.627 L -1.48816,-124.812
 L -1.5,-125 L -1.48816,-125.188 L -1.45287,-125.373 L -1.39465,-125.552 L -1.31445,-125.723 L -1.21352,-125.882
 L -1.09344,-126.027 L -0.956131,-126.156 L -0.803726,-126.266 L -0.638657,-126.357 L -0.463516,-126.427 L -0.281067,-126.473
 L -0.0941772,-126.497 L 0.0941772,-126.497 L 0.281067,-126.473 L 0.463516,-126.427 L 0.638657,-126.357 L 0.803726,-126.266
 L 0.956131,-126.156 L 1.09344,-126.027 L 1.21352,-125.882 L 1.31445,-125.723 L 1.39465,-125.552 L 1.45287,-125.373
 L 1.48816,-125.188 L 1.5,-125 L 1.48816,-124.812 L 1.45287,-124.627 L 1.39465,-124.448 L 1.31445,-124.277
 L 1.21352,-124.118 L 1.09344,-123.973 L 0.956131,-123.844 L 0.803726,-123.734 L 0.638657,-123.643 L 0.463516,-123.573
 L 0.281067,-123.527 L 0.0941772,-123.503 z
M -15.1884,-120.006 L -15.5621,-120.053 L -15.927,-120.147 L -16.2773,-120.286 L -16.6075,-120.467 L -16.9123,-120.688
 L -17.1869,-120.946 L -17.427,-121.237 L -17.6289,-121.555 L -17.7893,-121.896 L -17.9057,-122.254 L -17.9763,-122.624
 L -18,-123 L -17.9763,-123.376 L -17.9057,-123.746 L -17.7893,-124.104 L -17.6289,-124.445 L -17.427,-124.763
 L -17.1869,-125.054 L -16.9123,-125.312 L -16.6075,-125.533 L -16.2773,-125.714 L -15.927,-125.853 L -15.5621,-125.947
 L -15.1884,-125.994 L -14.8116,-125.994 L -14.4379,-125.947 L -14.0729,-125.853 L -13.7227,-125.714 L -13.3925,-125.533
 L -13.0877,-125.312 L -12.8131,-125.054 L -12.5729,-124.763 L -12.3711,-124.445 L -12.2107,-124.104 L -12.0942,-123.746
 L -12.0237,-123.376 L -12,-123 L -12.0237,-122.624 L -12.0942,-122.254 L -12.2107,-121.896 L -12.3711,-121.555
 L -12.5729,-121.237 L -12.8131,-120.946 L -13.0877,-120.688 L -13.3925,-120.467 L -13.7227,-120.286 L -14.0729,-120.147
 L -14.4379,-120.053 L -14.8116,-120.006 z
M 14.8116,-120.006 L 14.4379,-120.053 L 14.0729,-120.147 L 13.7227,-120.286 L 13.3925,-120.467 L 13.0877,-120.688
 L 12.8131,-120.946 L 12.5729,-121.237 L 12.3711,-121.555 L 12.2107,-121.896 L 12.0942,-122.254 L 12.0237,-122.624
 L 12,-123 L 12.0237,-123.376 L 12.0942,-123.746 L 12.2107,-124.104 L 12.3711,-124.445 L 12.5729,-124.763
 L 12.8131,-125.054 L 13.0877,-125.312 L 13.3925,-125.533 L 13.7227,-125.714 L 14.0729,-125.853 L 14.4379,-125.947
 L 14.8116,-125.994 L 15.1884,-125.994 L 15.5621,-125.947 L 15.927,-125.853 L 16.2773,-125.714 L 16.6075,-125.533
 L 16.9123,-125.312 L 17.1869,-125.054 L 17.427,-124.763 L 17.6289,-124.445 L 17.7893,-124.104 L 17.9057,-123.746
 L 17.9763,-123.376 L 18,-123 L 17.9763,-122.624 L 17.9057,-122.254 L 17.7893,-121.896 L 17.6289,-121.555
 L 17.427,-121.237 L 17.1869,-120.946 L 16.9123,-120.688 L 16.6075,-120.467 L 16.2773,-120.286 L 15.927,-120.147
 L 15.5621,-120.053 L 15.1884,-120.006 z
M -0.816269,-95.0257 L -2.43594,-95.2303 L -4.01721,-95.6363 L -5.53513,-96.2373 L -6.96574,-97.0237 L -8.2865,-97.9833
 L -9.47658,-99.1009 L -10.5172,-100.359 L -11.392,-101.737 L -12.0871,-103.214 L -12.5916,-104.767 L -12.8975,-106.371
 L -13,-108 L -12.8975,-109.629 L -12.5916,-111.233 L -12.0871,-112.786 L -11.392,-114.263 L -10.5172,-115.641
 L -9.47658,-116.899 L -8.2865,-118.017 L -6.96574,-118.976 L -5.53513,-119.763 L -4.01721,-120.364 L -2.43594,-120.77
 L -0.816269,-120.974 L 0.816269,-120.974 L 2.43594,-120.77 L 4.01721,-120.364 L 5.53513,-119.763 L 6.96574,-118.976
 L 8.2865,-118.017 L 9.47658,-116.899 L 10.5172,-115.641 L 11.392,-114.263 L 12.0871,-112.786 L 12.5916,-111.233
 L 12.8975,-109.629 L 13,-108 L 12.8975,-106.371 L 12.5916,-104.767 L 12.0871,-103.214 L 11.392,-101.737
 L 10.5172,-100.359 L 9.47658,-99.1009 L 8.2865,-97.9833 L 6.96574,-97.0237 L 5.53513,-96.2373 L 4.01721,-95.6363
 L 2.43594,-95.2303 L 0.816269,-95.0257 z
M 1.59273,-99.6506 L 2.62663,-99.916 L 3.61911,-100.309 L 4.55452,-100.823 L 5.41809,-101.451 L 6.19623,-102.181
 L 6.87663,-103.004 L 7.44859,-103.905 L 7.90309,-104.871 L 8.23296,-105.886 L 8.35893,-106.547 L 8.28107,-106.527
 L 8.09418,-106.503 L 7.40581,-106.503 L 7.21892,-106.527 L 7.03647,-106.573 L 6.86133,-106.643 L 6.69626,-106.734
 L 6.54385,-106.844 L 6.40654,-106.973 L 6.28647,-107.118 L 6.18553,-107.277 L 6.10533,-107.448 L 6.04712,-107.627
 L 6.01183,-107.812 L 6,-108 L 6.01183,-108.188 L 6.04712,-108.373 L 6.10533,-108.552 L 6.18553,-108.723
 L 6.28647,-108.882 L 6.40654,-109.027 L 6.54385,-109.156 L 6.69626,-109.266 L 6.86133,-109.357 L 7.03647,-109.427
 L 7.21892,-109.473 L 7.40581,-109.497 L 8.09418,-109.497 L 8.28107,-109.473 L 8.35893,-109.453 L 8.23296,-110.114
 L 7.90309,-111.129 L 7.44859,-112.095 L 6.87663,-112.996 L 6.19623,-113.819 L 5.41809,-114.549 L 4.55452,-115.177
 L 3.61911,-115.691 L 2.62663,-116.084 L 1.59273,-116.349 L 0.533707,-116.483 L -0.533707,-116.483 L -1.59273,-116.349
 L -2.62663,-116.084 L -3.61911,-115.691 L -4.55452,-115.177 L -5.41809,-114.549 L -6.19623,-113.819 L -6.87663,-112.996
 L -7.44859,-112.095 L -7.90309,-111.129 L -8.23296,-110.114 L -8.35893,-109.453 L -8.28107,-109.473 L -8.09418,-109.497
 L -7.40581,-109.497 L -7.21892,-109.473 L -7.03647,-109.427 L -6.86133,-109.357 L -6.69626,-109.266 L -6.54385,-109.156
 L -6.40654,-109.027 L -6.28647,-108.882 L -6.18553,-108.723 L -6.10533,-108.552 L -6.04712,-108.373 L -6.01183,-108.188
 L -6,-108 L -6.01183,-107.812 L -6.04712,-107.627 L -6.10533,-107.448 L -6.18553,-107.277 L -6.28647,-107.118
 L -6.40654,-106.973 L -6.54385,-106.844 L -6.69626,-106.734 L -6.86133,-106.643 L -7.03647,-106.573 L -7.21892,-106.527
 L -7.40581,-106.503 L -8.09418,-106.503 L -8.28107,-106.527 L -8.35893,-106.547 L -8.23296,-105.886 L -7.90309,-104.871
 L -7.44859,-103.905 L -6.87663,-103.004 L -6.19623,-102.181 L -5.41809,-101.451 L -4.55452,-100.823 L -3.61911,-100.309
 L -2.62663,-99.916 L -1.59273,-99.6506 L -0.533707,-99.5168 L 0.533707,-99.5168 z
M -0.18837,-105.006 L -0.562134,-105.053 L -0.927048,-105.147 L -1.27733,-105.286 L -1.60747,-105.467 L -1.91226,-105.688
 L -2.1869,-105.946 L -2.42705,-106.237 L -2.62891,-106.555 L -2.78932,-106.896 L -2.90575,-107.254 L -2.97633,-107.624
 L -3,-108 L -2.97633,-108.376 L -2.90575,-108.746 L -2.78932,-109.104 L -2.62891,-109.445 L -2.42705,-109.763
 L -2.1869,-110.054 L -1.91226,-110.312 L -1.60747,-110.533 L -1.27733,-110.714 L -0.927048,-110.853 L -0.562134,-110.947
 L -0.18837,-110.994 L 0.18837,-110.994 L 0.562134,-110.947 L 0.927048,-110.853 L 1.27733,-110.714 L 1.60747,-110.533
 L 1.91226,-110.312 L 2.1869,-110.054 L 2.42705,-109.763 L 2.62891,-109.445 L 2.78932,-109.104 L 2.90575,-108.746
 L 2.97633,-108.376 L 3,-108 L 2.97633,-107.624 L 2.90575,-107.254 L 2.78932,-106.896 L 2.62891,-106.555
 L 2.42705,-106.237 L 2.1869,-105.946 L 1.91226,-105.688 L 1.60747,-105.467 L 1.27733,-105.286 L 0.927048,-105.147
 L 0.562134,-105.053 L 0.18837,-105.006 z
M -18.6733,-105.102 L -20.3466,-108 L -18.6733,-110.898 L -15.3267,-110.898 L -13.6534,-108 L -15.3267,-105.102
 z
M 15.3267,-105.102 L 13.6534,-108 L 15.3267,-110.898 L 18.6733,-110.898 L 20.3466,-108 L 18.6733,-105.102
 z
M -15.1884,-90.0059 L -15.5621,-90.0531 L -15.927,-90.1468 L -16.2773,-90.2855 L -16.6075,-90.467 L -16.9123,-90.6885
 L -17.1869,-90.9464 L -17.427,-91.2366 L -17.6289,-91.5547 L -17.7893,-91.8956 L -17.9057,-92.2539 L -17.9763,-92.624
 L -18,-93 L -17.9763,-93.376 L -17.9057,-93.7461 L -17.7893,-94.1044 L -17.6289,-94.4453 L -17.427,-94.7634
 L -17.1869,-95.0536 L -16.9123,-95.3116 L -16.6075,-95.533 L -16.2773,-95.7145 L -15.927,-95.8532 L -15.5621,-95.9469
 L -15.1884,-95.9941 L -14.8116,-95.9941 L -14.4379,-95.9469 L -14.0729,-95.8532 L -13.7227,-95.7145 L -13.3925,-95.533
 L -13.0877,-95.3116 L -12.8131,-95.0536 L -12.5729,-94.7634 L -12.3711,-94.4453 L -12.2107,-94.1044 L -12.0942,-93.7461
 L -12.0237,-93.376 L -12,-93 L -12.0237,-92.624 L -12.0942,-92.2539 L -12.2107,-91.8956 L -12.3711,-91.5547
 L -12.5729,-91.2366 L -12.8131,-90.9464 L -13.0877,-90.6885 L -13.3925,-90.467 L -13.7227,-90.2855 L -14.0729,-90.1468
 L -14.4379,-90.0531 L -14.8116,-90.0059 z
M 14.8116,-90.0059 L 14.4379,-90.0531 L 14.0729,-90.1468 L 13.7227,-90.2855 L 13.3925,-90.467 L 13.0877,-90.6885
 L 12.8131,-90.9464 L 12.5729,-91.2366 L 12.3711,-91.5547 L 12.2107,-91.8956 L 12.0942,-92.2539 L 12.0237,-92.624
 L 12,-93 L 12.0237,-93.376 L 12.0942,-93.7461 L 12.2107,-94.1044 L 12.3711,-94.4453 L 12.5729,-94.7634
 L 12.8131,-95.0536 L 13.0877,-95.3116 L 13.3925,-95.533 L 13.7227,-95.7145 L 14.0729,-95.8532 L 14.4379,-95.9469
 L 14.8116,-95.9941 L 15.1884,-95.9941 L 15.5621,-95.9469 L 15.927,-95.8532 L 16.2773,-95.7145 L 16.6075,-95.533
 L 16.9123,-95.3116 L 17.1869,-95.0536 L 17.427,-94.7634 L 17.6289,-94.4453 L 17.7893,-94.1044 L 17.9057,-93.7461
 L 17.9763,-93.376 L 18,-93 L 17.9763,-92.624 L 17.9057,-92.2539 L 17.7893,-91.8956 L 17.6289,-91.5547
 L 17.427,-91.2366 L 17.1869,-90.9464 L 16.9123,-90.6885 L 16.6075,-90.467 L 16.2773,-90.2855 L 15.927,-90.1468
 L 15.5621,-90.0531 L 15.1884,-90.0059 z
M -0.250153,-89.521 L -0.433533,-89.564 L -0.610092,-89.6297 L -0.777039,-89.717 L -0.931717,-89.8245 L -1.0717,-89.9505
 L -1.19479,-90.0931 L -1.29903,-90.25 L -1.38278,-90.4187 L -1.44473,-90.5966 L -1.4839,-90.7809 L -1.49966,-90.9686
 L -1.49178,-91.1568 L -1.46036,-91.3425 L -1.40591,-91.5229 L -1.3293,-91.6949 L -1.23172,-91.8561 L -1.11472,-92.0037
 L -0.980118,-92.1355 L -0.830078,-92.2494 L -0.666946,-92.3436 L -0.493286,-92.4166 L -0.311859,-92.4672 L -0.125504,-92.4948
 L 0.0628052,-92.4987 L 0.250153,-92.479 L 0.433533,-92.436 L 0.610092,-92.3703 L 0.777039,-92.2831 L 0.931717,-92.1756
 L 1.0717,-92.0495 L 1.19479,-91.9069 L 1.29903,-91.75 L 1.38278,-91.5813 L 1.44473,-91.4034 L 1.4839,-91.2191
 L 1.49966,-91.0314 L 1.49178,-90.8432 L 1.46036,-90.6575 L 1.40591,-90.4771 L 1.3293,-90.3051 L 1.23172,-90.1439
 L 1.11472,-89.9963 L 0.980118,-89.8645 L 0.830078,-89.7506 L 0.666946,-89.6564 L 0.493286,-89.5834 L 0.311859,-89.5328
 L 0.125504,-89.5053 L -0.0628052,-89.5013 z
M 17.9369,-32.0886 L 18.5451,-32.2447 L 19.1289,-32.4759 L 19.6791,-32.7784 L 20.1871,-33.1474 L 20.6448,-33.5773
 L 21.0451,-34.0611 L 21.3815,-34.5912 L 21.6489,-35.1594 L 21.8429,-35.7566 L 21.9606,-36.3733 L 22,-37
 L 22,-71 L 21.9606,-71.6267 L 21.8429,-72.2434 L 21.6489,-72.8406 L 21.3815,-73.4088 L 21.0451,-73.9389
 L 20.6448,-74.4227 L 20.1871,-74.8526 L 19.6791,-75.2216 L 19.1289,-75.5241 L 18.5451,-75.7553 L 17.9369,-75.9114
 L 17.3139,-75.9901 L -17.3139,-75.9901 L -17.9369,-75.9114 L -18.5451,-75.7553 L -19.1289,-75.5241 L -19.6791,-75.2216
 L -20.1871,-74.8526 L -20.6448,-74.4227 L -21.0451,-73.9389 L -21.3815,-73.4088 L -21.6489,-72.8406 L -21.8429,-72.2434
 L -21.9606,-71.6267 L -22,-71 L -22,-37 L -21.9606,-36.3733 L -21.8429,-35.7566 L -21.6489,-35.1594
 L -21.3815,-34.5912 L -21.0451,-34.0611 L -20.6448,-33.5773 L -20.1871,-33.1474 L -19.6791,-32.7784 L -19.1289,-32.4759
 L -18.5451,-32.2447 L -17.9369,-32.0886 L -17.3139,-32.0099 L 17.3139,-32.0099 z
M -0.0941772,-69.5029 L -0.281067,-69.5266 L -0.463516,-69.5734 L -0.638657,-69.6427 L -0.803726,-69.7335 L -0.956131,-69.8442
 L -1.09344,-69.9732 L -1.21352,-70.1183 L -1.31445,-70.2774 L -1.39465,-70.4478 L -1.45287,-70.627 L -1.48816,-70.812
 L -1.5,-71 L -1.48816,-71.188 L -1.45287,-71.373 L -1.39465,-71.5522 L -1.31445,-71.7226 L -1.21352,-71.8817
 L -1.09344,-72.0268 L -0.956131,-72.1558 L -0.803726,-72.2665 L -0.638657,-72.3572 L -0.463516,-72.4266 L -0.281067,-72.4734
 L -0.0941772,-72.497 L 0.0941772,-72.497 L 0.281067,-72.4734 L 0.463516,-72.4266 L 0.638657,-72.3572 L 0.803726,-72.2665
 L 0.956131,-72.1558 L 1.09344,-72.0268 L 1.21352,-71.8817 L 1.31445,-71.7226 L 1.39465,-71.5522 L 1.45287,-71.373
 L 1.48816,-71.188 L 1.5,-71 L 1.48816,-70.812 L 1.45287,-70.627 L 1.39465,-70.4478 L 1.31445,-70.2774
 L 1.21352,-70.1183 L 1.09344,-69.9732 L 0.956131,-69.8442 L 0.803726,-69.7335 L 0.638657,-69.6427 L 0.463516,-69.5734
 L 0.281067,-69.5266 L 0.0941772,-69.5029 z
M -15.1884,-66.0059 L -15.5621,-66.0531 L -15.927,-66.1468 L -16.2773,-66.2855 L -16.6075,-66.467 L -16.9123,-66.6884
 L -17.1869,-66.9464 L -17.427,-67.2366 L -17.6289,-67.5547 L -17.7893,-67.8956 L -17.9057,-68.2539 L -17.9763,-68.624
 L -18,-69 L -17.9763,-69.376 L -17.9057,-69.7461 L -17.7893,-70.1044 L -17.6289,-70.4453 L -17.427,-70.7634
 L -17.1869,-71.0536 L -16.9123,-71.3115 L -16.6075,-71.533 L -16.2773,-71.7145 L -15.927,-71.8532 L -15.5621,-71.9469
 L -15.1884,-71.9941 L -14.8116,-71.9941 L -14.4379,-71.9469 L -14.0729,-71.8532 L -13.7227,-71.7145 L -13.3925,-71.533
 L -13.0877,-71.3115 L -12.8131,-71.0536 L -12.5729,-70.7634 L -12.3711,-70.4453 L -12.2107,-70.1044 L -12.0942,-69.7461
 L -12.0237,-69.376 L -12,-69 L -12.0237,-68.624 L -12.0942,-68.2539 L -12.2107,-67.8956 L -12.3711,-67.5547
 L -12.5729,-67.2366 L -12.8131,-66.9464 L -13.0877,-66.6884 L -13.3925,-66.467 L -13.7227,-66.2855 L -14.0729,-66.1468
 L -14.4379,-66.0531 L -14.8116,-66.0059 z
M 14.8116,-66.0059 L 14.4379,-66.0531 L 14.0729,-66.1468 L 13.7227,-66.2855 L 13.3925,-66.467 L 13.0877,-66.6884
 L 12.8131,-66.9464 L 12.5729,-67.2366 L 12.3711,-67.5547 L 12.2107,-67.8956 L 12.0942,-68.2539 L 12.0237,-68.624
 L 12,-69 L 12.0237,-69.376 L 12.0942,-69.7461 L 12.2107,-70.1044 L 12.3711,-70.4453 L 12.5729,-70.7634
 L 12.8131,-71.0536 L 13.0877,-71.3115 L 13.3925,-71.533 L 13.7227,-71.7145 L 14.0729,-71.8532 L 14.4379,-71.9469
 L 14.8116,-71.9941 L 15.1884,-71.9941 L 15.5621,-71.9469 L 15.927,-71.8532 L 16.2773,-71.7145 L 16.6075,-71.533
 L 16.9123,-71.3115 L 17.1869,-71.0536 L 17.427,-70.7634 L 17.6289,-70.4453 L 17.7893,-70.1044 L 17.9057,-69.7461
 L 17.9763,-69.376 L 18,-69 L 17.9763,-68.624 L 17.9057,-68.2539 L 17.7893,-67.8956 L 17.6289,-67.5547
 L 17.427,-67.2366 L 17.1869,-66.9464 L 16.9123,-66.6884 L 16.6075,-66.467 L 16.2773,-66.2855 L 15.927,-66.1468
 L 15.5621,-66.0531 L 15.1884,-66.0059 z
M -0.816269,-41.0257 L -2.43594,-41.2303 L -4.01721,-41.6363 L -5.53513,-42.2373 L -6.96574,-43.0237 L -8.2865,-43.9833
 L -9.47658,-45.1009 L -10.5172,-46.3588 L -11.392,-47.7372 L -12.0871,-49.2144 L -12.5916,-50.767 L -12.8975,-52.3707
 L -13,-54 L -12.8975,-55.6293 L -12.5916,-57.233 L -12.0871,-58.7856 L -11.392,-60.2628 L -10.5172,-61.6412
 L -9.47658,-62.8991 L -8.2865,-64.0167 L -6.96574,-64.9763 L -5.53513,-65.7627 L -4.01721,-66.3637 L -2.43594,-66.7697
 L -0.816269,-66.9743 L 0.816269,-66.9743 L 2.43594,-66.7697 L 4.01721,-66.3637 L 5.53513,-65.7627 L 6.96574,-64.9763
 L 8.2865,-64.0167 L 9.47658,-62.8991 L 10.5172,-61.6412 L 11.392,-60.2628 L 12.0871,-58.7856 L 12.5916,-57.233
 L 12.8975,-55.6293 L 13,-54 L 12.8975,-52.3707 L 12.5916,-50.767 L 12.0871,-49.2144 L 11.392,-47.7372
 L 10.5172,-46.3588 L 9.47658,-45.1009 L 8.2865,-43.9833 L 6.96574,-43.0237 L 5.53513,-42.2373 L 4.01721,-41.6363
 L 2.43594,-41.2303 L 0.816269,-41.0257 z
M 1.59273,-45.6506 L 2.62663,-45.916 L 3.61911,-46.309 L 4.55452,-46.8232 L 5.41809,-47.4506 L 6.19623,-48.1814
 L 6.87663,-49.0038 L 7.44859,-49.9051 L 7.90309,-50.871 L 8.23296,-51.8861 L 8.35893,-52.5466 L 8.28107,-52.5266
 L 8.09418,-52.503 L 7.40581,-52.503 L 7.21892,-52.5266 L 7.03647,-52.5734 L 6.86133,-52.6428 L 6.69626,-52.7335
 L 6.54385,-52.8442 L 6.40654,-52.9732 L 6.28647,-53.1183 L 6.18553,-53.2774 L 6.10533,-53.4478 L 6.04712,-53.627
 L 6.01183,-53.812 L 6,-54 L 6.01183,-54.188 L 6.04712,-54.373 L 6.10533,-54.5522 L 6.18553,-54.7226
 L 6.28647,-54.8817 L 6.40654,-55.0268 L 6.54385,-55.1558 L 6.69626,-55.2665 L 6.86133,-55.3572 L 7.03647,-55.4266
 L 7.21892,-55.4734 L 7.40581,-55.497 L 8.09418,-55.497 L 8.28107,-55.4734 L 8.35893,-55.4534 L 8.23296,-56.1139
 L 7.90309,-57.129 L 7.44859,-58.0949 L 6.87663,-58.9962 L 6.19623,-59.8186 L 5.41809,-60.5494 L 4.55452,-61.1768
 L 3.61911,-61.691 L 2.62663,-62.084 L 1.59273,-62.3494 L 0.533707,-62.4832 L -0.533707,-62.4832 L -1.59273,-62.3494
 L -2.62663,-62.084 L -3.61911,-61.691 L -4.55452,-61.1768 L -5.41809,-60.5494 L -6.19623,-59.8186 L -6.87663,-58.9962
 L -7.44859,-58.0949 L -7.90309,-57.129 L -8.23296,-56.1139 L -8.35893,-55.4534 L -8.28107,-55.4734 L -8.09418,-55.497
 L -7.40581,-55.497 L -7.21892,-55.4734 L -7.03647,-55.4266 L -6.86133,-55.3572 L -6.69626,-55.2665 L -6.54385,-55.1558
 L -6.40654,-55.0268 L -6.28647,-54.8817 L -6.18553,-54.7226 L -6.10533,-54.5522 L -6.04712,-54.373 L -6.01183,-54.188
 L -6,-54 L -6.01183,-53.812 L -6.04712,-53.627 L -6.10533,-53.4478 L -6.18553,-53.2774 L -6.28647,-53.1183
 L -6.40654,-52.9732 L -6.54385,-52.8442 L -6.69626,-52.7335 L -6.86133,-52.6428 L -7.03647,-52.5734 L -7.21892,-52.5266
 L -7.40581,-52.503 L -8.09418,-52.503 L -8.28107,-52.5266 L -8.35893,-52.5466 L -8.23296,-51.8861 L -7.90309,-50.871
 L -7.44859,-49.9051 L -6.87663,-49.0038 L -6.19623,-48.1814 L -5.41809,-47.4506 L -4.55452,-46.8232 L -3.61911,-46.309
 L -2.62663,-45.916 L -1.59273,-45.6506 L -0.533707,-45.5168 L 0.533707,-45.5168 z
M -0.18837,-51.0059 L -0.562134,-51.0531 L -0.927048,-51.1468 L -1.27733,-51.2855 L -1.60747,-51.467 L -1.91226,-51.6885
 L -2.1869,-51.9464 L -2.42705,-52.2366 L -2.62891,-52.5547 L -2.78932,-52.8956 L -2.90575,-53.2539 L -2.97633,-53.624
 L -3,-54 L -2.97633,-54.376 L -2.90575,-54.7461 L -2.78932,-55.1044 L -2.62891,-55.4453 L -2.42705,-55.7634
 L -2.1869,-56.0536 L -1.91226,-56.3115 L -1.60747,-56.533 L -1.27733,-56.7145 L -0.927048,-56.8532 L -0.562134,-56.9469
 L -0.18837,-56.9941 L 0.18837,-56.9941 L 0.562134,-56.9469 L 0.927048,-56.8532 L 1.27733,-56.7145 L 1.60747,-56.533
 L 1.91226,-56.3115 L 2.1869,-56.0536 L 2.42705,-55.7634 L 2.62891,-55.4453 L 2.78932,-55.1044 L 2.90575,-54.7461
 L 2.97633,-54.376 L 3,-54 L 2.97633,-53.624 L 2.90575,-53.2539 L 2.78932,-52.8956 L 2.62891,-52.5547
 L 2.42705,-52.2366 L 2.1869,-51.9464 L 1.91226,-51.6885 L 1.60747,-51.467 L 1.27733,-51.2855 L 0.927048,-51.1468
 L 0.562134,-51.0531 L 0.18837,-51.0059 z
M -18.6733,-51.1018 L -20.3466,-54 L -18.6733,-56.8982 L -15.3267,-56.8982 L -13.6534,-54 L -15.3267,-51.1018
 z
M 15.3267,-51.1018 L 13.6534,-54 L 15.3267,-56.8982 L 18.6733,-56.8982 L 20.3466,-54 L 18.6733,-51.1018
 z
M 14.8116,-36.0059 L 14.4379,-36.0531 L 14.0729,-36.1468 L 13.7227,-36.2855 L 13.3925,-36.467 L 13.0877,-36.6885
 L 12.8131,-36.9464 L 12.5729,-37.2366 L 12.3711,-37.5547 L 12.2107,-37.8956 L 12.0942,-38.2539 L 12.0237,-38.624
 L 12,-39 L 12.0237,-39.376 L 12.0942,-39.7461 L 12.2107,-40.1044 L 12.3711,-40.4453 L 12.5729,-40.7634
 L 12.8131,-41.0536 L 13.0877,-41.3116 L 13.3925,-41.533 L 13.7227,-41.7145 L 14.0729,-41.8532 L 14.4379,-41.9469
 L 14.8116,-41.9941 L 15.1884,-41.9941 L 15.5621,-41.9469 L 15.927,-41.8532 L 16.2773,-41.7145 L 16.6075,-41.533
 L 16.9123,-41.3116 L 17.1869,-41.0536 L 17.427,-40.7634 L 17.6289,-40.4453 L 17.7893,-40.1044 L 17.9057,-39.7461
 L 17.9763,-39.376 L 18,-39 L 17.9763,-38.624 L 17.9057,-38.2539 L 17.7893,-37.8956 L 17.6289,-37.5547
 L 17.427,-37.2366 L 17.1869,-36.9464 L 16.9123,-36.6885 L 16.6075,-36.467 L 16.2773,-36.2855 L 15.927,-36.1468
 L 15.5621,-36.0531 L 15.1884,-36.0059 z
M -15.1884,-36.0059 L -15.5621,-36.0531 L -15.927,-36.1468 L -16.2773,-36.2855 L -16.6075,-36.467 L -16.9123,-36.6885
 L -17.1869,-36.9464 L -17.427,-37.2366 L -17.6289,-37.5547 L -17.7893,-37.8956 L -17.9057,-38.2539 L -17.9763,-38.624
 L -18,-39 L -17.9763,-39.376 L -17.9057,-39.7461 L -17.7893,-40.1044 L -17.6289,-40.4453 L -17.427,-40.7634
 L -17.1869,-41.0536 L -16.9123,-41.3116 L -16.6075,-41.533 L -16.2773,-41.7145 L -15.927,-41.8532 L -15.5621,-41.9469
 L -15.1884,-41.9941 L -14.8116,-41.9941 L -14.4379,-41.9469 L -14.0729,-41.8532 L -13.7227,-41.7145 L -13.3925,-41.533
 L -13.0877,-41.3116 L -12.8131,-41.0536 L -12.5729,-40.7634 L -12.3711,-40.4453 L -12.2107,-40.1044 L -12.0942,-39.7461
 L -12.0237,-39.376 L -12,-39 L -12.0237,-38.624 L -12.0942,-38.2539 L -12.2107,-37.8956 L -12.3711,-37.5547
 L -12.5729,-37.2366 L -12.8131,-36.9464 L -13.0877,-36.6885 L -13.3925,-36.467 L -13.7227,-36.2855 L -14.0729,-36.1468
 L -14.4379,-36.0531 L -14.8116,-36.0059 z
M -0.250153,-35.521 L -0.433533,-35.564 L -0.610092,-35.6297 L -0.777039,-35.717 L -0.931717,-35.8245 L -1.0717,-35.9505
 L -1.19479,-36.0931 L -1.29903,-36.25 L -1.38278,-36.4187 L -1.44473,-36.5966 L -1.4839,-36.7809 L -1.49966,-36.9686
 L -1.49178,-37.1568 L -1.46036,-37.3425 L -1.40591,-37.5229 L -1.3293,-37.6949 L -1.23172,-37.8561 L -1.11472,-38.0037
 L -0.980118,-38.1355 L -0.830078,-38.2494 L -0.666946,-38.3436 L -0.493286,-38.4166 L -0.311859,-38.4672 L -0.125504,-38.4948
 L 0.0628052,-38.4987 L 0.250153,-38.479 L 0.433533,-38.436 L 0.610092,-38.3703 L 0.777039,-38.2831 L 0.931717,-38.1756
 L 1.0717,-38.0495 L 1.19479,-37.9069 L 1.29903,-37.75 L 1.38278,-37.5813 L 1.44473,-37.4034 L 1.4839,-37.2191
 L 1.49966,-37.0314 L 1.49178,-36.8432 L 1.46036,-36.6575 L 1.40591,-36.4771 L 1.3293,-36.3051 L 1.23172,-36.1439
 L 1.11472,-35.9963 L 0.980118,-35.8645 L 0.830078,-35.7506 L 0.666946,-35.6564 L 0.493286,-35.5834 L 0.311859,-35.5328
 L 0.125504,-35.5053 L -0.0628052,-35.5013 z
M 17.9369,21.9114 L 18.5451,21.7553 L 19.1289,21.5241 L 19.6791,21.2216 L 20.1871,20.8526 L 20.6448,20.4227
 L 21.0451,19.9389 L 21.3815,19.4088 L 21.6489,18.8406 L 21.8429,18.2434 L 21.9606,17.6267 L 22,17
 L 22,-17 L 21.9606,-17.6267 L 21.8429,-18.2434 L 21.6489,-18.8406 L 21.3815,-19.4088 L 21.0451,-19.9389
 L 20.6448,-20.4227 L 20.1871,-20.8526 L 19.6791,-21.2216 L 19.1289,-21.5241 L 18.5451,-21.7553 L 17.9369,-21.9114
 L 17.3139,-21.9901 L -17.3139,-21.9901 L -17.9369,-21.9114 L -18.5451,-21.7553 L -19.1289,-21.5241 L -19.6791,-21.2216
 L -20.1871,-20.8526 L -20.6448,-20.4227 L -21.0451,-19.9389 L -21.3815,-19.4088 L -21.6489,-18.8406 L -21.8429,-18.2434
 L -21.9606,-17.6267 L -22,-17 L -22,17 L -21.9606,17.6267 L -21.8429,18.2434 L -21.6489,18.8406
 L -21.3815,19.4088 L -21.0451,19.9389 L -20.6448,20.4227 L -20.1871,20.8526 L -19.6791,21.2216 L -19.1289,21.5241
 L -18.5451,21.7553 L -17.9369,21.9114 L -17.3139,21.9901 L 17.3139,21.9901 z
M -0.150696,-14.6047 L -0.449707,-14.6425 L -0.741638,-14.7175 L -1.02187,-14.8284 L -1.28598,-14.9736 L -1.52982,-15.1508
 L -1.74951,-15.3571 L -1.94164,-15.5893 L -2.10313,-15.8438 L -2.23146,-16.1165 L -2.32458,-16.4031 L -2.38107,-16.6992
 L -2.39999,-17 L -2.38107,-17.3008 L -2.32458,-17.5968 L -2.23146,-17.8835 L -2.10313,-18.1562 L -1.94164,-18.4107
 L -1.74951,-18.6429 L -1.52982,-18.8492 L -1.28598,-19.0264 L -1.02187,-19.1716 L -0.741638,-19.2825 L -0.449707,-19.3575
 L -0.150696,-19.3953 L 0.150696,-19.3953 L 0.449707,-19.3575 L 0.741638,-19.2825 L 1.02187,-19.1716 L 1.28598,-19.0264
 L 1.52982,-18.8492 L 1.74951,-18.6429 L 1.94164,-18.4107 L 2.10313,-18.1562 L 2.23146,-17.8835 L 2.32458,-17.5968
 L 2.38107,-17.3008 L 2.39999,-17 L 2.38107,-16.6992 L 2.32458,-16.4031 L 2.23146,-16.1165 L 2.10313,-15.8438
 L 1.94164,-15.5893 L 1.74951,-15.3571 L 1.52982,-15.1508 L 1.28598,-14.9736 L 1.02187,-14.8284 L 0.741638,-14.7175
 L 0.449707,-14.6425 L 0.150696,-14.6047 z
M -15.1884,-12.0059 L -15.5621,-12.0531 L -15.927,-12.1468 L -16.2773,-12.2855 L -16.6075,-12.467 L -16.9123,-12.6884
 L -17.1869,-12.9464 L -17.427,-13.2366 L -17.6289,-13.5547 L -17.7893,-13.8956 L -17.9057,-14.2539 L -17.9763,-14.624
 L -18,-15 L -17.9763,-15.376 L -17.9057,-15.7461 L -17.7893,-16.1044 L -17.6289,-16.4453 L -17.427,-16.7634
 L -17.1869,-17.0536 L -16.9123,-17.3115 L -16.6075,-17.533 L -16.2773,-17.7145 L -15.927,-17.8532 L -15.5621,-17.9469
 L -15.1884,-17.9941 L -14.8116,-17.9941 L -14.4379,-17.9469 L -14.0729,-17.8532 L -13.7227,-17.7145 L -13.3925,-17.533
 L -13.0877,-17.3115 L -12.8131,-17.0536 L -12.5729,-16.7634 L -12.3711,-16.4453 L -12.2107,-16.1044 L -12.0942,-15.7461
 L -12.0237,-15.376 L -12,-15 L -12.0237,-14.624 L -12.0942,-14.2539 L -12.2107,-13.8956 L -12.3711,-13.5547
 L -12.5729,-13.2366 L -12.8131,-12.9464 L -13.0877,-12.6884 L -13.3925,-12.467 L -13.7227,-12.2855 L -14.0729,-12.1468
 L -14.4379,-12.0531 L -14.8116,-12.0059 z
M 14.8116,-12.0059 L 14.4379,-12.0531 L 14.0729,-12.1468 L 13.7227,-12.2855 L 13.3925,-12.467 L 13.0877,-12.6884
 L 12.8131,-12.9464 L 12.5729,-13.2366 L 12.3711,-13.5547 L 12.2107,-13.8956 L 12.0942,-14.2539 L 12.0237,-14.624
 L 12,-15 L 12.0237,-15.376 L 12.0942,-15.7461 L 12.2107,-16.1044 L 12.3711,-16.4453 L 12.5729,-16.7634
 L 12.8131,-17.0536 L 13.0877,-17.3115 L 13.3925,-17.533 L 13.7227,-17.7145 L 14.0729,-17.8532 L 14.4379,-17.9469
 L 14.8116,-17.9941 L 15.1884,-17.9941 L 15.5621,-17.9469 L 15.927,-17.8532 L 16.2773,-17.7145 L 16.6075,-17.533
 L 16.9123,-17.3115 L 17.1869,-17.0536 L 17.427,-16.7634 L 17.6289,-16.4453 L 17.7893,-16.1044 L 17.9057,-15.7461
 L 17.9763,-15.376 L 18,-15 L 17.9763,-14.624 L 17.9057,-14.2539 L 17.7893,-13.8956 L 17.6289,-13.5547
 L 17.427,-13.2366 L 17.1869,-12.9464 L 16.9123,-12.6884 L 16.6075,-12.467 L 16.2773,-12.2855 L 15.927,-12.1468
 L 15.5621,-12.0531 L 15.1884,-12.0059 z
M -0.70639,11.2278 L -2.10803,11.0507 L -3.47644,10.6994 L -4.79001,10.1793 L -6.02805,9.49869 L -7.17101,8.66827
 L -8.20088,7.70114 L -9.10144,6.61258 L -9.85844,5.41972 L -10.46,4.14139 L -10.8965,2.79776 L -11.1613,1.40999
 L -11.25,-0 L -11.1613,-1.40999 L -10.8965,-2.79776 L -10.46,-4.14139 L -9.85844,-5.41972 L -9.10144,-6.61258
 L -8.20088,-7.70114 L -7.17101,-8.66827 L -6.02805,-9.49869 L -4.79001,-10.1793 L -3.47644,-10.6994 L -2.10803,-11.0507
 L -0.70639,-11.2278 L 0.70639,-11.2278 L 2.10803,-11.0507 L 3.47644,-10.6994 L 4.79001,-10.1793 L 6.02805,-9.49869
 L 7.17101,-8.66827 L 8.20088,-7.70114 L 9.10144,-6.61258 L 9.85844,-5.41972 L 10.46,-4.14139 L 10.8965,-2.79776
 L 11.1613,-1.40999 L 11.25,-0 L 11.1613,1.40999 L 10.8965,2.79776 L 10.46,4.14139 L 9.85844,5.41972
 L 9.10144,6.61258 L 8.20088,7.70114 L 7.17101,8.66827 L 6.02805,9.49869 L 4.79001,10.1793 L 3.47644,10.6994
 L 2.10803,11.0507 L 0.70639,11.2278 z
M 1.92065,10.0684 L 3.16742,9.74832 L 4.36423,9.27448 L 5.49222,8.65436 L 6.53358,7.89775 L 7.47192,7.0166
 L 8.29242,6.0248 L 8.98213,4.93797 L 9.5302,3.77327 L 9.92796,2.54906 L 10.1692,1.28465 L 10.25,-0
 L 10.1692,-1.28465 L 9.92796,-2.54906 L 9.5302,-3.77327 L 8.98213,-4.93797 L 8.29242,-6.0248 L 7.47192,-7.0166
 L 6.53358,-7.89775 L 5.49222,-8.65436 L 4.36423,-9.27448 L 3.16742,-9.74832 L 1.92065,-10.0684 L 0.6436,-10.2298
 L -0.6436,-10.2298 L -1.92065,-10.0684 L -3.16742,-9.74832 L -4.36423,-9.27448 L -5.49222,-8.65436 L -6.53358,-7.89775
 L -7.47192,-7.0166 L -8.29242,-6.0248 L -8.98213,-4.93797 L -9.5302,-3.77327 L -9.92796,-2.54906 L -10.1692,-1.28465
 L -10.25,-0 L -10.1692,1.28465 L -9.92796,2.54906 L -9.5302,3.77327 L -8.98213,4.93797 L -8.29242,6.0248
 L -7.47192,7.0166 L -6.53358,7.89775 L -5.49222,8.65436 L -4.36423,9.27448 L -3.16742,9.74832 L -1.92065,10.0684
 L -0.6436,10.2298 L 0.6436,10.2298 z
M -0.18837,2.99408 L -0.562134,2.94685 L -0.927048,2.85316 L -1.27733,2.71448 L -1.60747,2.53297 L -1.91226,2.31154
 L -2.1869,2.05363 L -2.42705,1.76335 L -2.62891,1.44525 L -2.78932,1.10437 L -2.90575,0.746063 L -2.97633,0.375992
 L -3,-0 L -2.97633,-0.375992 L -2.90575,-0.746063 L -2.78932,-1.10437 L -2.62891,-1.44525 L -2.42705,-1.76335
 L -2.1869,-2.05363 L -1.91226,-2.31154 L -1.60747,-2.53297 L -1.27733,-2.71448 L -0.927048,-2.85316 L -0.562134,-2.94685
 L -0.18837,-2.99408 L 0.18837,-2.99408 L 0.562134,-2.94685 L 0.927048,-2.85316 L 1.27733,-2.71448 L 1.60747,-2.53297
 L 1.91226,-2.31154 L 2.1869,-2.05363 L 2.42705,-1.76335 L 2.62891,-1.44525 L 2.78932,-1.10437 L 2.90575,-0.746063
 L 2.97633,-0.375992 L 3,-0 L 2.97633,0.375992 L 2.90575,0.746063 L 2.78932,1.10437 L 2.62891,1.44525
 L 2.42705,1.76335 L 2.1869,2.05363 L 1.91226,2.31154 L 1.60747,2.53297 L 1.27733,2.71448 L 0.927048,2.85316
 L 0.562134,2.94685 L 0.18837,2.99408 z
M 7.40581,1.49704 L 7.21892,1.47342 L 7.03647,1.42657 L 6.86133,1.35724 L 6.69626,1.26648 L 6.54385,1.15576
 L 6.40654,1.02681 L 6.28647,0.881668 L 6.18553,0.722626 L 6.10533,0.552185 L 6.04712,0.373032 L 6.01183,0.187988
 L 6,-0 L 6.01183,-0.187988 L 6.04712,-0.373032 L 6.10533,-0.552185 L 6.18553,-0.722626 L 6.28647,-0.881668
 L 6.40654,-1.02681 L 6.54385,-1.15576 L 6.69626,-1.26648 L 6.86133,-1.35724 L 7.03647,-1.42657 L 7.21892,-1.47342
 L 7.40581,-1.49704 L 8.09418,-1.49704 L 8.28107,-1.47342 L 8.46352,-1.42657 L 8.63866,-1.35724 L 8.80373,-1.26648
 L 8.95613,-1.15576 L 9.09344,-1.02681 L 9.21352,-0.881668 L 9.31445,-0.722626 L 9.39465,-0.552185 L 9.45287,-0.373032
 L 9.48816,-0.187988 L 9.5,-0 L 9.48816,0.187988 L 9.45287,0.373032 L 9.39465,0.552185 L 9.31445,0.722626
 L 9.21352,0.881668 L 9.09344,1.02681 L 8.95613,1.15576 L 8.80373,1.26648 L 8.63866,1.35724 L 8.46352,1.42657
 L 8.28107,1.47342 L 8.09418,1.49704 z
M -8.09418,1.49704 L -8.28107,1.47342 L -8.46352,1.42657 L -8.63866,1.35724 L -8.80373,1.26648 L -8.95613,1.15576
 L -9.09344,1.02681 L -9.21352,0.881668 L -9.31445,0.722626 L -9.39465,0.552185 L -9.45287,0.373032 L -9.48816,0.187988
 L -9.5,-0 L -9.48816,-0.187988 L -9.45287,-0.373032 L -9.39465,-0.552185 L -9.31445,-0.722626 L -9.21352,-0.881668
 L -9.09344,-1.02681 L -8.95613,-1.15576 L -8.80373,-1.26648 L -8.63866,-1.35724 L -8.46352,-1.42657 L -8.28107,-1.47342
 L -8.09418,-1.49704 L -7.40581,-1.49704 L -7.21892,-1.47342 L -7.03647,-1.42657 L -6.86133,-1.35724 L -6.69626,-1.26648
 L -6.54385,-1.15576 L -6.40654,-1.02681 L -6.28647,-0.881668 L -6.18553,-0.722626 L -6.10533,-0.552185 L -6.04712,-0.373032
 L -6.01183,-0.187988 L -6,-0 L -6.01183,0.187988 L -6.04712,0.373032 L -6.10533,0.552185 L -6.18553,0.722626
 L -6.28647,0.881668 L -6.40654,1.02681 L -6.54385,1.15576 L -6.69626,1.26648 L -6.86133,1.35724 L -7.03647,1.42657
 L -7.21892,1.47342 L -7.40581,1.49704 z
M 16.5997,2.36638 L 16.3063,2.29756 L 16.0238,2.1925 L 15.7567,2.05287 L 15.5092,1.88086 L 15.2853,1.67918
 L 15.0883,1.45103 L 14.9215,1.2 L 14.7875,0.930023 L 14.6884,0.645401 L 14.6257,0.350586 L 14.6005,0.0502472
 L 14.6131,-0.250854 L 14.6634,-0.548035 L 14.7505,-0.836563 L 14.8731,-1.11191 L 15.0292,-1.36971 L 15.2164,-1.60591
 L 15.4318,-1.81679 L 15.6719,-1.99901 L 15.9329,-2.1497 L 16.2107,-2.26649 L 16.501,-2.34755 L 16.7992,-2.39157
 L 17.1005,-2.39789 L 17.4002,-2.36638 L 17.6937,-2.29756 L 17.9762,-2.1925 L 18.2433,-2.05287 L 18.4908,-1.88086
 L 18.7147,-1.67918 L 18.9117,-1.45103 L 19.0785,-1.2 L 19.2125,-0.930023 L 19.3116,-0.645401 L 19.3743,-0.350586
 L 19.3995,-0.0502472 L 19.3868,0.250854 L 19.3366,0.548035 L 19.2495,0.836563 L 19.1269,1.11191 L 18.9707,1.36971
 L 18.7835,1.60591 L 18.5682,1.81679 L 18.3281,1.99901 L 18.0671,2.1497 L 17.7893,2.26649 L 17.499,2.34755
 L 17.2008,2.39157 L 16.8995,2.39789 z
M -17.1507,2.39526 L -17.4497,2.35748 L -17.7416,2.28253 L -18.0219,2.17157 L -18.286,2.02638 L -18.5298,1.84923
 L -18.7495,1.6429 L -18.9416,1.41068 L -19.1031,1.1562 L -19.2315,0.883484 L -19.3246,0.596848 L -19.3811,0.300797
 L -19.4,-0 L -19.3811,-0.300797 L -19.3246,-0.596848 L -19.2315,-0.883484 L -19.1031,-1.1562 L -18.9416,-1.41068
 L -18.7495,-1.6429 L -18.5298,-1.84923 L -18.286,-2.02638 L -18.0219,-2.17157 L -17.7416,-2.28253 L -17.4497,-2.35748
 L -17.1507,-2.39526 L -16.8493,-2.39526 L -16.5503,-2.35748 L -16.2583,-2.28253 L -15.9781,-2.17157 L -15.714,-2.02638
 L -15.4702,-1.84923 L -15.2505,-1.6429 L -15.0583,-1.41068 L -14.8969,-1.1562 L -14.7685,-0.883484 L -14.6754,-0.596848
 L -14.6189,-0.300797 L -14.6,-0 L -14.6189,0.300797 L -14.6754,0.596848 L -14.7685,0.883484 L -14.8969,1.1562
 L -15.0583,1.41068 L -15.2505,1.6429 L -15.4702,1.84923 L -15.714,2.02638 L -15.9781,2.17157 L -16.2583,2.28253
 L -16.5503,2.35748 L -16.8493,2.39526 z
M -15.1884,17.9941 L -15.5621,17.9469 L -15.927,17.8532 L -16.2773,17.7145 L -16.6075,17.533 L -16.9123,17.3115
 L -17.1869,17.0536 L -17.427,16.7634 L -17.6289,16.4453 L -17.7893,16.1044 L -17.9057,15.7461 L -17.9763,15.376
 L -18,15 L -17.9763,14.624 L -17.9057,14.2539 L -17.7893,13.8956 L -17.6289,13.5547 L -17.427,13.2366
 L -17.1869,12.9464 L -16.9123,12.6884 L -16.6075,12.467 L -16.2773,12.2855 L -15.927,12.1468 L -15.5621,12.0531
 L -15.1884,12.0059 L -14.8116,12.0059 L -14.4379,12.0531 L -14.0729,12.1468 L -13.7227,12.2855 L -13.3925,12.467
 L -13.0877,12.6884 L -12.8131,12.9464 L -12.5729,13.2366 L -12.3711,13.5547 L -12.2107,13.8956 L -12.0942,14.2539
 L -12.0237,14.624 L -12,15 L -12.0237,15.376 L -12.0942,15.7461 L -12.2107,16.1044 L -12.3711,16.4453
 L -12.5729,16.7634 L -12.8131,17.0536 L -13.0877,17.3115 L -13.3925,17.533 L -13.7227,17.7145 L -14.0729,17.8532
 L -14.4379,17.9469 L -14.8116,17.9941 z
M 14.8116,17.9941 L 14.4379,17.9469 L 14.0729,17.8532 L 13.7227,17.7145 L 13.3925,17.533 L 13.0877,17.3115
 L 12.8131,17.0536 L 12.5729,16.7634 L 12.3711,16.4453 L 12.2107,16.1044 L 12.0942,15.7461 L 12.0237,15.376
 L 12,15 L 12.0237,14.624 L 12.0942,14.2539 L 12.2107,13.8956 L 12.3711,13.5547 L 12.5729,13.2366
 L 12.8131,12.9464 L 13.0877,12.6884 L 13.3925,12.467 L 13.7227,12.2855 L 14.0729,12.1468 L 14.4379,12.0531
 L 14.8116,12.0059 L 15.1884,12.0059 L 15.5621,12.0531 L 15.927,12.1468 L 16.2773,12.2855 L 16.6075,12.467
 L 16.9123,12.6884 L 17.1869,12.9464 L 17.427,13.2366 L 17.6289,13.5547 L 17.7893,13.8956 L 17.9057,14.2539
 L 17.9763,14.624 L 18,15 L 17.9763,15.376 L 17.9057,15.7461 L 17.7893,16.1044 L 17.6289,16.4453
 L 17.427,16.7634 L 17.1869,17.0536 L 16.9123,17.3115 L 16.6075,17.533 L 16.2773,17.7145 L 15.927,17.8532
 L 15.5621,17.9469 L 15.1884,17.9941 z
M -0.400238,19.3664 L -0.693665,19.2976 L -0.976166,19.1925 L -1.24326,19.0529 L -1.49075,18.8809 L -1.71472,18.6792
 L -1.91167,18.451 L -2.07846,18.2 L -2.21246,17.93 L -2.31158,17.6454 L -2.37425,17.3506 L -2.39946,17.0503
 L -2.38684,16.7491 L -2.33658,16.452 L -2.24947,16.1634 L -2.12688,15.8881 L -1.97075,15.6303 L -1.78354,15.3941
 L -1.56821,15.1832 L -1.32812,15.001 L -1.06712,14.8503 L -0.789276,14.7335 L -0.498978,14.6524 L -0.200821,14.6084
 L 0.100494,14.6021 L 0.400238,14.6336 L 0.693665,14.7024 L 0.976166,14.8075 L 1.24326,14.9471 L 1.49075,15.1191
 L 1.71472,15.3208 L 1.91167,15.549 L 2.07846,15.8 L 2.21246,16.07 L 2.31158,16.3546 L 2.37425,16.6494
 L 2.39946,16.9497 L 2.38684,17.2509 L 2.33658,17.548 L 2.24947,17.8366 L 2.12688,18.1119 L 1.97075,18.3697
 L 1.78354,18.6059 L 1.56821,18.8168 L 1.32812,18.999 L 1.06712,19.1497 L 0.789276,19.2665 L 0.498978,19.3475
 L 0.200821,19.3916 L -0.100494,19.3979 z
" stroke="black" fill="lightgray" stroke-width="0.5"/>
</svg>
