<?xml version="1.0" standalone="no"?>
<!DOCTYPE svg PUBLIC "-//W3C//DTD SVG 1.1//EN" "http://www.w3.org/Graphics/SVG/1.1/DTD/svg11.dtd">
<svg width="44mm" height="44mm" viewBox="-22 -22 44 44" xmlns="http://www.w3.org/2000/svg" version="1.1">
<title>OpenSCAD Model</title>
<path d="
M 17.9369,21.9114 L 18.5451,21.7553 L 19.1289,21.5241 L 19.6791,21.2216 L 20.1871,20.8526 L 20.6448,20.4227
 L 21.0451,19.9389 L 21.3815,19.4088 L 21.6489,18.8406 L 21.8429,18.2434 L 21.9606,17.6267 L 22,17
 L 22,-17 L 21.9606,-17.6267 L 21.8429,-18.2434 L 21.6489,-18.8406 L 21.3815,-19.4088 L 21.0451,-19.9389
 L 20.6448,-20.4227 L 20.1871,-20.8526 L 19.6791,-21.2216 L 19.1289,-21.5241 L 18.5451,-21.7553 L 17.9369,-21.9114
 L 17.3139,-21.9901 L -17.3139,-21.9901 L -17.9369,-21.9114 L -18.5451,-21.7553 L -19.1289,-21.5241 L -19.6791,-21.2216
 L -20.1871,-20.8526 L -20.6448,-20.4227 L -21.0451,-19.9389 L -21.3815,-19.4088 L -21.6489,-18.8406 L -21.8429,-18.2434
 L -21.9606,-17.6267 L -22,-17 L -22,17 L -21.9606,17.6267 L -21.8429,18.2434 L -21.6489,18.8406
 L -21.3815,19.4088 L -21.0451,19.9389 L -20.6448,20.4227 L -20.1871,20.8526 L -19.6791,21.2216 L -19.1289,21.5241
 L -18.5451,21.7553 L -17.9369,21.9114 L -17.3139,21.9901 L 17.3139,21.9901 z
M -0.0941772,-15.5029 L -0.281067,-15.5266 L -0.463516,-15.5734 L -0.638657,-15.6427 L -0.803726,-15.7335 L -0.956131,-15.8442
 L -1.09344,-15.9732 L -1.21352,-16.1183 L -1.31445,-16.2774 L -1.39465,-16.4478 L -1.45287,-16.627 L -1.48816,-16.812
 L -1.5,-17 L -1.48816,-17.188 L -1.45287,-17.373 L -1.39465,-17.5522 L -1.31445,-17.7226 L -1.21352,-17.8817
 L -1.09344,-18.0268 L -0.956131,-18.1558 L -0.803726,-18.2665 L -0.638657,-18.3572 L -0.463516,-18.4266 L -0.281067,-18.4734
 L -0.0941772,-18.497 L 0.0941772,-18.497 L 0.281067,-18.4734 L 0.463516,-18.4266 L 0.638657,-18.3572 L 0.803726,-18.2665
 L 0.956131,-18.1558 L 1.09344,-18.0268 L 1.21352,-17.8817 L 1.31445,-17.7226 L 1.39465,-17.5522 L 1.45287,-17.373
 L 1.48816,-17.188 L 1.5,-17 L 1.48816,-16.812 L 1.45287,-16.627 L 1.39465,-16.4478 L 1.31445,-16.2774
 L 1.21352,-16.1183 L 1.09344,-15.9732 L 0.956131,-15.8442 L 0.803726,-15.7335 L 0.638657,-15.6427 L 0.463516,-15.5734
 L 0.281067,-15.5266 L 0.0941772,-15.5029 z
M 14.8116,-12.0059 L 14.4379,-12.0531 L 14.0729,-12.1468 L 13.7227,-12.2855 L 13.3925,-12.467 L 13.0877,-12.6884
 L 12.8131,-12.9464 L 12.5729,-13.2366 L 12.3711,-13.5547 L 12.2107,-13.8956 L 12.0942,-14.2539 L 12.0237,-14.624
 L 12,-15 L 12.0237,-15.376 L 12.0942,-15.7461 L 12.2107,-16.1044 L 12.3711,-16.4453 L 12.5729,-16.7634
 L 12.8131,-17.0536 L 13.0877,-17.3115 L 13.3925,-17.533 L 13.7227,-17.7145 L 14.0729,-17.8532 L 14.4379,-17.9469
 L 14.8116,-17.9941 L 15.1884,-17.9941 L 15.5621,-17.9469 L 15.927,-17.8532 L 16.2773,-17.7145 L 16.6075,-17.533
 L 16.9123,-17.3115 L 17.1869,-17.0536 L 17.427,-16.7634 L 17.6289,-16.4453 L 17.7893,-16.1044 L 17.9057,-15.7461
 L 17.9763,-15.376 L 18,-15 L 17.9763,-14.624 L 17.9057,-14.2539 L 17.7893,-13.8956 L 17.6289,-13.5547
 L 17.427,-13.2366 L 17.1869,-12.9464 L 16.9123,-12.6884 L 16.6075,-12.467 L 16.2773,-12.2855 L 15.927,-12.1468
 L 15.5621,-12.0531 L 15.1884,-12.0059 z
M -15.1884,-12.0059 L -15.5621,-12.0531 L -15.927,-12.1468 L -16.2773,-12.2855 L -16.6075,-12.467 L -16.9123,-12.6884
 L -17.1869,-12.9464 L -17.427,-13.2366 L -17.6289,-13.5547 L -17.7893,-13.8956 L -17.9057,-14.2539 L -17.9763,-14.624
 L -18,-15 L -17.9763,-15.376 L -17.9057,-15.7461 L -17.7893,-16.1044 L -17.6289,-16.4453 L -17.427,-16.7634
 L -17.1869,-17.0536 L -16.9123,-17.3115 L -16.6075,-17.533 L -16.2773,-17.7145 L -15.927,-17.8532 L -15.5621,-17.9469
 L -15.1884,-17.9941 L -14.8116,-17.9941 L -14.4379,-17.9469 L -14.0729,-17.8532 L -13.7227,-17.7145 L -13.3925,-17.533
 L -13.0877,-17.3115 L -12.8131,-17.0536 L -12.5729,-16.7634 L -12.3711,-16.4453 L -12.2107,-16.1044 L -12.0942,-15.7461
 L -12.0237,-15.376 L -12,-15 L -12.0237,-14.624 L -12.0942,-14.2539 L -12.2107,-13.8956 L -12.3711,-13.5547
 L -12.5729,-13.2366 L -12.8131,-12.9464 L -13.0877,-12.6884 L -13.3925,-12.467 L -13.7227,-12.2855 L -14.0729,-12.1468
 L -14.4379,-12.0531 L -14.8116,-12.0059 z
M -0.816269,12.9743 L -2.43594,12.7697 L -4.01721,12.3637 L -5.53513,11.7627 L -6.96574,10.9763 L -8.2865,10.0167
 L -9.47658,8.89911 L -10.5172,7.6412 L -11.392,6.26279 L -12.0871,4.78561 L -12.5916,3.23296 L -12.8975,1.62932
 L -13,-0 L -12.8975,-1.62932 L -12.5916,-3.23296 L -12.0871,-4.78561 L -11.392,-6.26279 L -10.5172,-7.6412
 L -9.47658,-8.89911 L -8.2865,-10.0167 L -6.96574,-10.9763 L -5.53513,-11.7627 L -4.01721,-12.3637 L -2.43594,-12.7697
 L -0.816269,-12.9743 L 0.816269,-12.9743 L 2.43594,-12.7697 L 4.01721,-12.3637 L 5.53513,-11.7627 L 6.96574,-10.9763
 L 8.2865,-10.0167 L 9.47658,-8.89911 L 10.5172,-7.6412 L 11.392,-6.26279 L 12.0871,-4.78561 L 12.5916,-3.23296
 L 12.8975,-1.62932 L 13,-0 L 12.8975,1.62932 L 12.5916,3.23296 L 12.0871,4.78561 L 11.392,6.26279
 L 10.5172,7.6412 L 9.47658,8.89911 L 8.2865,10.0167 L 6.96574,10.9763 L 5.53513,11.7627 L 4.01721,12.3637
 L 2.43594,12.7697 L 0.816269,12.9743 z
M 1.59273,8.34944 L 2.62663,8.08397 L 3.61911,7.69102 L 4.55452,7.17677 L 5.41809,6.54936 L 6.19623,5.81865
 L 6.87663,4.99617 L 7.44859,4.09489 L 7.90309,3.12904 L 8.23296,2.11386 L 8.40921,1.18985 L 8.30373,1.26648
 L 8.13866,1.35724 L 7.96352,1.42657 L 7.78107,1.47342 L 7.59418,1.49704 L 7.40581,1.49704 L 7.21892,1.47342
 L 7.03647,1.42657 L 6.86133,1.35724 L 6.69626,1.26648 L 6.54385,1.15576 L 6.40654,1.02681 L 6.28647,0.881668
 L 6.18553,0.722626 L 6.10533,0.552185 L 6.04712,0.373032 L 6.01183,0.187988 L 6,-0 L 6.01183,-0.187988
 L 6.04712,-0.373032 L 6.10533,-0.552185 L 6.18553,-0.722626 L 6.28647,-0.881668 L 6.40654,-1.02681 L 6.54385,-1.15576
 L 6.69626,-1.26648 L 6.86133,-1.35724 L 7.03647,-1.42657 L 7.21892,-1.47342 L 7.40581,-1.49704 L 7.59418,-1.49704
 L 7.78107,-1.47342 L 7.96352,-1.42657 L 8.13866,-1.35724 L 8.30373,-1.26648 L 8.40921,-1.18985 L 8.23296,-2.11386
 L 7.90309,-3.12904 L 7.44859,-4.09489 L 6.87663,-4.99617 L 6.19623,-5.81865 L 5.41809,-6.54936 L 4.55452,-7.17677
 L 3.61911,-7.69102 L 2.62663,-8.08397 L 1.59273,-8.34944 L 1.19904,-8.39917 L 1.21352,-8.38167 L 1.31445,-8.22263
 L 1.39465,-8.05219 L 1.45287,-7.87303 L 1.48816,-7.68799 L 1.5,-7.5 L 1.48816,-7.312 L 1.45287,-7.12695
 L 1.39465,-6.9478 L 1.31445,-6.77736 L 1.21352,-6.61832 L 1.09344,-6.47318 L 0.956131,-6.34422 L 0.803726,-6.23351
 L 0.638657,-6.14275 L 0.463516,-6.07341 L 0.281067,-6.02657 L 0.0941772,-6.00294 L -0.0941772,-6.00294 L -0.281067,-6.02657
 L -0.463516,-6.07341 L -0.638657,-6.14275 L -0.803726,-6.23351 L -0.956131,-6.34422 L -1.09344,-6.47318 L -1.21352,-6.61832
 L -1.31445,-6.77736 L -1.39465,-6.9478 L -1.45287,-7.12695 L -1.48816,-7.312 L -1.5,-7.5 L -1.48816,-7.68799
 L -1.45287,-7.87303 L -1.39465,-8.05219 L -1.31445,-8.22263 L -1.21352,-8.38167 L -1.19904,-8.39917 L -1.59273,-8.34944
 L -2.62663,-8.08397 L -3.61911,-7.69102 L -4.55452,-7.17677 L -5.41809,-6.54936 L -6.19623,-5.81865 L -6.87663,-4.99617
 L -7.44859,-4.09489 L -7.90309,-3.12904 L -8.23296,-2.11386 L -8.40921,-1.18985 L -8.30373,-1.26648 L -8.13866,-1.35724
 L -7.96352,-1.42657 L -7.78107,-1.47342 L -7.59418,-1.49704 L -7.40581,-1.49704 L -7.21892,-1.47342 L -7.03647,-1.42657
 L -6.86133,-1.35724 L -6.69626,-1.26648 L -6.54385,-1.15576 L -6.40654,-1.02681 L -6.28647,-0.881668 L -6.18553,-0.722626
 L -6.10533,-0.552185 L -6.04712,-0.373032 L -6.01183,-0.187988 L -6,-0 L -6.01183,0.187988 L -6.04712,0.373032
 L -6.10533,0.552185 L -6.18553,0.722626 L -6.28647,0.881668 L -6.40654,1.02681 L -6.54385,1.15576 L -6.69626,1.26648
 L -6.86133,1.35724 L -7.03647,1.42657 L -7.21892,1.47342 L -7.40581,1.49704 L -7.59418,1.49704 L -7.78107,1.47342
 L -7.96352,1.42657 L -8.13866,1.35724 L -8.30373,1.26648 L -8.40921,1.18985 L -8.23296,2.11386 L -7.90309,3.12904
 L -7.44859,4.09489 L -6.87663,4.99617 L -6.19623,5.81865 L -5.41809,6.54936 L -4.55452,7.17677 L -3.61911,7.69102
 L -2.62663,8.08397 L -1.59273,8.34944 L -1.19904,8.39917 L -1.21352,8.38167 L -1.31445,8.22263 L -1.39465,8.05219
 L -1.45287,7.87303 L -1.48816,7.68799 L -1.5,7.5 L -1.48816,7.312 L -1.45287,7.12695 L -1.39465,6.9478
 L -1.31445,6.77736 L -1.21352,6.61832 L -1.09344,6.47318 L -0.956131,6.34422 L -0.803726,6.23351 L -0.638657,6.14275
 L -0.463516,6.07341 L -0.281067,6.02657 L -0.0941772,6.00294 L 0.0941772,6.00294 L 0.281067,6.02657 L 0.463516,6.07341
 L 0.638657,6.14275 L 0.803726,6.23351 L 0.956131,6.34422 L 1.09344,6.47318 L 1.21352,6.61832 L 1.31445,6.77736
 L 1.39465,6.9478 L 1.45287,7.12695 L 1.48816,7.312 L 1.5,7.5 L 1.48816,7.68799 L 1.45287,7.87303
 L 1.39465,8.05219 L 1.31445,8.22263 L 1.21352,8.38167 L 1.19904,8.39917 z
M -0.18837,2.99408 L -0.562134,2.94685 L -0.927048,2.85316 L -1.27733,2.71448 L -1.60747,2.53297 L -1.91226,2.31154
 L -2.1869,2.05363 L -2.42705,1.76335 L -2.62891,1.44525 L -2.78932,1.10437 L -2.90575,0.746063 L -2.97633,0.375992
 L -3,-0 L -2.97633,-0.375992 L -2.90575,-0.746063 L -2.78932,-1.10437 L -2.62891,-1.44525 L -2.42705,-1.76335
 L -2.1869,-2.05363 L -1.91226,-2.31154 L -1.60747,-2.53297 L -1.27733,-2.71448 L -0.927048,-2.85316 L -0.562134,-2.94685
 L -0.18837,-2.99408 L 0.18837,-2.99408 L 0.562134,-2.94685 L 0.927048,-2.85316 L 1.27733,-2.71448 L 1.60747,-2.53297
 L 1.91226,-2.31154 L 2.1869,-2.05363 L 2.42705,-1.76335 L 2.62891,-1.44525 L 2.78932,-1.10437 L 2.90575,-0.746063
 L 2.97633,-0.375992 L 3,-0 L 2.97633,0.375992 L 2.90575,0.746063 L 2.78932,1.10437 L 2.62891,1.44525
 L 2.42705,1.76335 L 2.1869,2.05363 L 1.91226,2.31154 L 1.60747,2.53297 L 1.27733,2.71448 L 0.927048,2.85316
 L 0.562134,2.94685 L 0.18837,2.99408 z
M -17.2502,1.47899 L -17.4335,1.43597 L -17.6101,1.37032 L -17.777,1.28304 L -17.9317,1.17554 L -18.0717,1.04948
 L -18.1948,0.906891 L -18.299,0.75 L -18.3828,0.581268 L -18.4447,0.403366 L -18.4839,0.219116 L -18.4997,0.0314026
 L -18.4918,-0.156784 L -18.4604,-0.342514 L -18.4059,-0.522858 L -18.3293,-0.694931 L -18.2317,-0.856064 L -18.1147,-1.00369
 L -17.9801,-1.13548 L -17.8301,-1.24937 L -17.6669,-1.34357 L -17.4933,-1.41655 L -17.3119,-1.46721 L -17.1255,-1.49474
 L -16.9372,-1.49867 L -16.7498,-1.47899 L -16.5665,-1.43597 L -16.3899,-1.37032 L -16.2229,-1.28304 L -16.0683,-1.17554
 L -15.9283,-1.04948 L -15.8052,-0.906891 L -15.701,-0.75 L -15.6172,-0.581268 L -15.5553,-0.403366 L -15.5161,-0.219116
 L -15.5003,-0.0314026 L -15.5082,0.156784 L -15.5396,0.342514 L -15.5941,0.522858 L -15.6707,0.694931 L -15.7683,0.856064
 L -15.8853,1.00369 L -16.0199,1.13548 L -16.1699,1.24937 L -16.333,1.34357 L -16.5067,1.41655 L -16.6881,1.46721
 L -16.8745,1.49474 L -17.0628,1.49867 z
M 16.7498,1.47899 L 16.5665,1.43597 L 16.3899,1.37032 L 16.2229,1.28304 L 16.0683,1.17554 L 15.9283,1.04948
 L 15.8052,0.906891 L 15.701,0.75 L 15.6172,0.581268 L 15.5553,0.403366 L 15.5161,0.219116 L 15.5003,0.0314026
 L 15.5082,-0.156784 L 15.5396,-0.342514 L 15.5941,-0.522858 L 15.6707,-0.694931 L 15.7683,-0.856064 L 15.8853,-1.00369
 L 16.0199,-1.13548 L 16.1699,-1.24937 L 16.333,-1.34357 L 16.5067,-1.41655 L 16.6881,-1.46721 L 16.8745,-1.49474
 L 17.0628,-1.49867 L 17.2502,-1.47899 L 17.4335,-1.43597 L 17.6101,-1.37032 L 17.777,-1.28304 L 17.9317,-1.17554
 L 18.0717,-1.04948 L 18.1948,-0.906891 L 18.299,-0.75 L 18.3828,-0.581268 L 18.4447,-0.403366 L 18.4839,-0.219116
 L 18.4997,-0.0314026 L 18.4918,0.156784 L 18.4604,0.342514 L 18.4059,0.522858 L 18.3293,0.694931 L 18.2317,0.856064
 L 18.1147,1.00369 L 17.9801,1.13548 L 17.8301,1.24937 L 17.6669,1.34357 L 17.4933,1.41655 L 17.3119,1.46721
 L 17.1255,1.49474 L 16.9372,1.49867 z
M 14.8116,17.9941 L 14.4379,17.9469 L 14.0729,17.8532 L 13.7227,17.7145 L 13.3925,17.533 L 13.0877,17.3115
 L 12.8131,17.0536 L 12.5729,16.7634 L 12.3711,16.4453 L 12.2107,16.1044 L 12.0942,15.7461 L 12.0237,15.376
 L 12,15 L 12.0237,14.624 L 12.0942,14.2539 L 12.2107,13.8956 L 12.3711,13.5547 L 12.5729,13.2366
 L 12.8131,12.9464 L 13.0877,12.6884 L 13.3925,12.467 L 13.7227,12.2855 L 14.0729,12.1468 L 14.4379,12.0531
 L 14.8116,12.0059 L 15.1884,12.0059 L 15.5621,12.0531 L 15.927,12.1468 L 16.2773,12.2855 L 16.6075,12.467
 L 16.9123,12.6884 L 17.1869,12.9464 L 17.427,13.2366 L 17.6289,13.5547 L 17.7893,13.8956 L 17.9057,14.2539
 L 17.9763,14.624 L 18,15 L 17.9763,15.376 L 17.9057,15.7461 L 17.7893,16.1044 L 17.6289,16.4453
 L 17.427,16.7634 L 17.1869,17.0536 L 16.9123,17.3115 L 16.6075,17.533 L 16.2773,17.7145 L 15.927,17.8532
 L 15.5621,17.9469 L 15.1884,17.9941 z
M -15.1884,17.9941 L -15.5621,17.9469 L -15.927,17.8532 L -16.2773,17.7145 L -16.6075,17.533 L -16.9123,17.3115
 L -17.1869,17.0536 L -17.427,16.7634 L -17.6289,16.4453 L -17.7893,16.1044 L -17.9057,15.7461 L -17.9763,15.376
 L -18,15 L -17.9763,14.624 L -17.9057,14.2539 L -17.7893,13.8956 L -17.6289,13.5547 L -17.427,13.2366
 L -17.1869,12.9464 L -16.9123,12.6884 L -16.6075,12.467 L -16.2773,12.2855 L -15.927,12.1468 L -15.5621,12.0531
 L -15.1884,12.0059 L -14.8116,12.0059 L -14.4379,12.0531 L -14.0729,12.1468 L -13.7227,12.2855 L -13.3925,12.467
 L -13.0877,12.6884 L -12.8131,12.9464 L -12.5729,13.2366 L -12.3711,13.5547 L -12.2107,13.8956 L -12.0942,14.2539
 L -12.0237,14.624 L -12,15 L -12.0237,15.376 L -12.0942,15.7461 L -12.2107,16.1044 L -12.3711,16.4453
 L -12.5729,16.7634 L -12.8131,17.0536 L -13.0877,17.3115 L -13.3925,17.533 L -13.7227,17.7145 L -14.0729,17.8532
 L -14.4379,17.9469 L -14.8116,17.9941 z
M -0.0941772,18.497 L -0.281067,18.4734 L -0.463516,18.4266 L -0.638657,18.3572 L -0.803726,18.2665 L -0.956131,18.1558
 L -1.09344,18.0268 L -1.21352,17.8817 L -1.31445,17.7226 L -1.39465,17.5522 L -1.45287,17.373 L -1.48816,17.188
 L -1.5,17 L -1.48816,16.812 L -1.45287,16.627 L -1.39465,16.4478 L -1.31445,16.2774 L -1.21352,16.1183
 L -1.09344,15.9732 L -0.956131,15.8442 L -0.803726,15.7335 L -0.638657,15.6427 L -0.463516,15.5734 L -0.281067,15.5266
 L -0.0941772,15.5029 L 0.0941772,15.5029 L 0.281067,15.5266 L 0.463516,15.5734 L 0.638657,15.6427 L 0.803726,15.7335
 L 0.956131,15.8442 L 1.09344,15.9732 L 1.21352,16.1183 L 1.31445,16.2774 L 1.39465,16.4478 L 1.45287,16.627
 L 1.48816,16.812 L 1.5,17 L 1.48816,17.188 L 1.45287,17.373 L 1.39465,17.5522 L 1.31445,17.7226
 L 1.21352,17.8817 L 1.09344,18.0268 L 0.956131,18.1558 L 0.803726,18.2665 L 0.638657,18.3572 L 0.463516,18.4266
 L 0.281067,18.4734 L 0.0941772,18.497 z
" stroke="black" fill="lightgray" stroke-width="0.5"/>
</svg>
