<?xml version="1.0" standalone="no"?>
<!DOCTYPE svg PUBLIC "-//W3C//DTD SVG 1.1//EN" "http://www.w3.org/Graphics/SVG/1.1/DTD/svg11.dtd">
<svg width="30mm" height="192mm" viewBox="-15 -192 30 192" xmlns="http://www.w3.org/2000/svg" version="1.1">
<title>OpenSCAD Model</title>
<path d="
M 14.5,-2.82999 L 5.16031,-2.82999 L 5.16031,-9 L 14.5,-9 L 14.5,-45.5 L 14.4606,-46.1267
 L 14.3429,-46.7434 L 14.2596,-47 L 14.5,-47 L 14.5,-49.83 L 11.982,-49.83 L 11.6289,-50.0241
 L 11.0451,-50.2553 L 10.4369,-50.4114 L 9.81395,-50.4901 L 4.90581,-50.4901 L 4.90581,-55 L 5.16031,-55
 L 5.16031,-56 L 14.5,-56 L 14.5,-92.5 L 14.4606,-93.1267 L 14.3429,-93.7434 L 14.2596,-94
 L 14.5,-94 L 14.5,-96.83 L 11.982,-96.83 L 11.6289,-97.0241 L 11.0451,-97.2553 L 10.4369,-97.4114
 L 9.81395,-97.4901 L 4.96927,-97.4901 L 4.96927,-102 L 5.16031,-102 L 5.16031,-103 L 14.5,-103
 L 14.5,-139.5 L 14.4606,-140.127 L 14.3429,-140.743 L 14.2596,-141 L 14.5,-141 L 14.5,-143.83
 L 11.982,-143.83 L 11.6289,-144.024 L 11.0451,-144.255 L 10.4369,-144.411 L 9.81395,-144.49 L 5.16031,-144.49
 L 5.16031,-150 L 14.5,-150 L 14.5,-186.5 L 14.4606,-187.127 L 14.3429,-187.743 L 14.1489,-188.341
 L 13.8815,-188.909 L 13.5451,-189.439 L 13.1448,-189.923 L 12.6871,-190.353 L 12.1791,-190.722 L 11.6289,-191.024
 L 11.0451,-191.255 L 10.4369,-191.411 L 9.81395,-191.49 L -9.81395,-191.49 L -10.4369,-191.411 L -11.0451,-191.255
 L -11.6289,-191.024 L -12.1791,-190.722 L -12.6871,-190.353 L -13.1448,-189.923 L -13.5451,-189.439 L -13.8815,-188.909
 L -14.1489,-188.341 L -14.3429,-187.743 L -14.4606,-187.127 L -14.5,-186.5 L -14.5,-141 L -14.2596,-141
 L -14.3429,-140.743 L -14.4606,-140.127 L -14.5,-139.5 L -14.5,-94 L -14.2596,-94 L -14.3429,-93.7434
 L -14.4606,-93.1267 L -14.5,-92.5 L -14.5,-47 L -14.2596,-47 L -14.3429,-46.7434 L -14.4606,-46.1267
 L -14.5,-45.5 L -14.5,-0 L 14.5,-0 z
M 5.5,-188.75 L 5.5,-190.25 L 9.5,-190.25 L 9.5,-188.75 z
M -9.5,-188.75 L -9.5,-190.25 L -5.5,-190.25 L -5.5,-188.75 z
M 5.5,-181.75 L 5.5,-183.25 L 9.5,-183.25 L 9.5,-181.75 z
M -9.5,-181.75 L -9.5,-183.25 L -5.5,-183.25 L -5.5,-181.75 z
M -9.5,-173.75 L -9.5,-175.25 L -5.5,-175.25 L -5.5,-173.75 z
M 5.5,-173.75 L 5.5,-175.25 L 9.5,-175.25 L 9.5,-173.75 z
M 5.5,-166.75 L 5.5,-168.25 L 9.5,-168.25 L 9.5,-166.75 z
M -9.5,-166.75 L -9.5,-168.25 L -5.5,-168.25 L -5.5,-166.75 z
M -9.5,-158.75 L -9.5,-160.25 L -5.5,-160.25 L -5.5,-158.75 z
M 5.5,-158.75 L 5.5,-160.25 L 9.5,-160.25 L 9.5,-158.75 z
M -9.5,-151.75 L -9.5,-153.25 L -5.5,-153.25 L -5.5,-151.75 z
M 5.5,-151.75 L 5.5,-153.25 L 9.5,-153.25 L 9.5,-151.75 z
M -9.83968,-150 L -0.480927,-150 L -0.480927,-144.49 L -9.81395,-144.49 L -9.83968,-144.487 z
M -9.5,-134.75 L -9.5,-136.25 L -5.5,-136.25 L -5.5,-134.75 z
M 5.5,-134.75 L 5.5,-136.25 L 9.5,-136.25 L 9.5,-134.75 z
M -9.5,-126.75 L -9.5,-128.25 L -5.5,-128.25 L -5.5,-126.75 z
M 5.5,-126.75 L 5.5,-128.25 L 9.5,-128.25 L 9.5,-126.75 z
M 5.5,-119.75 L 5.5,-121.25 L 9.5,-121.25 L 9.5,-119.75 z
M -9.5,-119.75 L -9.5,-121.25 L -5.5,-121.25 L -5.5,-119.75 z
M 5.5,-111.75 L 5.5,-113.25 L 9.5,-113.25 L 9.5,-111.75 z
M -9.5,-111.75 L -9.5,-113.25 L -5.5,-113.25 L -5.5,-111.75 z
M 5.5,-104.75 L 5.5,-106.25 L 9.5,-106.25 L 9.5,-104.75 z
M -9.5,-104.75 L -9.5,-106.25 L -5.5,-106.25 L -5.5,-104.75 z
M -10.0307,-102 L -9.83968,-102 L -9.83968,-103 L -0.480927,-103 L -0.480927,-97.4901 L -9.81395,-97.4901
 L -10.0307,-97.4628 z
M 5.5,-94.75 L 5.5,-96.25 L 9.5,-96.25 L 9.5,-94.75 z
M -9.5,-94.75 L -9.5,-96.25 L -5.5,-96.25 L -5.5,-94.75 z
M -9.5,-87.75 L -9.5,-89.25 L -5.5,-89.25 L -5.5,-87.75 z
M 5.5,-87.75 L 5.5,-89.25 L 9.5,-89.25 L 9.5,-87.75 z
M -9.5,-79.75 L -9.5,-81.25 L -5.5,-81.25 L -5.5,-79.75 z
M 5.5,-79.75 L 5.5,-81.25 L 9.5,-81.25 L 9.5,-79.75 z
M 5.5,-72.75 L 5.5,-74.25 L 9.5,-74.25 L 9.5,-72.75 z
M -9.5,-72.75 L -9.5,-74.25 L -5.5,-74.25 L -5.5,-72.75 z
M -9.5,-64.75 L -9.5,-66.25 L -5.5,-66.25 L -5.5,-64.75 z
M 5.5,-64.75 L 5.5,-66.25 L 9.5,-66.25 L 9.5,-64.75 z
M -9.5,-57.75 L -9.5,-59.25 L -5.5,-59.25 L -5.5,-57.75 z
M 5.5,-57.75 L 5.5,-59.25 L 9.5,-59.25 L 9.5,-57.75 z
M -10.0942,-55 L -9.83968,-55 L -9.83968,-56 L -0.480927,-56 L -0.480927,-50.4901 L -9.81395,-50.4901
 L -10.0942,-50.4547 z
M 5.5,-47.75 L 5.5,-49.25 L 9.5,-49.25 L 9.5,-47.75 z
M -9.5,-47.75 L -9.5,-49.25 L -5.5,-49.25 L -5.5,-47.75 z
M 5.5,-40.75 L 5.5,-42.25 L 9.5,-42.25 L 9.5,-40.75 z
M -9.5,-40.75 L -9.5,-42.25 L -5.5,-42.25 L -5.5,-40.75 z
M -9.5,-32.75 L -9.5,-34.25 L -5.5,-34.25 L -5.5,-32.75 z
M 5.5,-32.75 L 5.5,-34.25 L 9.5,-34.25 L 9.5,-32.75 z
M 5.5,-25.75 L 5.5,-27.25 L 9.5,-27.25 L 9.5,-25.75 z
M -9.5,-25.75 L -9.5,-27.25 L -5.5,-27.25 L -5.5,-25.75 z
M -9.5,-17.75 L -9.5,-19.25 L -5.5,-19.25 L -5.5,-17.75 z
M 5.5,-17.75 L 5.5,-19.25 L 9.5,-19.25 L 9.5,-17.75 z
M -9.5,-10.75 L -9.5,-12.25 L -5.5,-12.25 L -5.5,-10.75 z
M 5.5,-10.75 L 5.5,-12.25 L 9.5,-12.25 L 9.5,-10.75 z
M -9.83968,-2.82999 L -9.83968,-9 L -0.480927,-9 L -0.480927,-2.82999 z
" stroke="black" fill="lightgray" stroke-width="0.5"/>
</svg>
