  0
SECTION
  2
BLOCKS
  0
ENDSEC
  0
SECTION
  2
ENTITIES
  0
LINE
  8
0
 10
10.4369
 20
353.839
 11
11.0451
 21
353.995
  0
LINE
  8
0
 10
11.0451
 20
353.995
 11
11.6289
 21
354.226
  0
LINE
  8
0
 10
11.6289
 20
354.226
 11
12.1791
 21
354.528
  0
LINE
  8
0
 10
12.1791
 20
354.528
 11
12.6871
 21
354.897
  0
LINE
  8
0
 10
12.6871
 20
354.897
 11
13.1448
 21
355.327
  0
LINE
  8
0
 10
13.1448
 20
355.327
 11
13.5451
 21
355.811
  0
LINE
  8
0
 10
13.5451
 20
355.811
 11
13.8815
 21
356.341
  0
LINE
  8
0
 10
13.8815
 20
356.341
 11
14.1489
 21
356.909
  0
LINE
  8
0
 10
14.1489
 20
356.909
 11
14.3429
 21
357.507
  0
LINE
  8
0
 10
14.3429
 20
357.507
 11
14.4606
 21
358.123
  0
LINE
  8
0
 10
14.4606
 20
358.123
 11
14.5
 21
358.75
  0
LINE
  8
0
 10
14.5
 20
358.75
 11
14.5
 21
385.25
  0
LINE
  8
0
 10
14.5
 20
385.25
 11
14.4606
 21
385.877
  0
LINE
  8
0
 10
14.4606
 20
385.877
 11
14.3429
 21
386.493
  0
LINE
  8
0
 10
14.3429
 20
386.493
 11
14.1489
 21
387.091
  0
LINE
  8
0
 10
14.1489
 20
387.091
 11
13.8815
 21
387.659
  0
LINE
  8
0
 10
13.8815
 20
387.659
 11
13.5451
 21
388.189
  0
LINE
  8
0
 10
13.5451
 20
388.189
 11
13.1448
 21
388.673
  0
LINE
  8
0
 10
13.1448
 20
388.673
 11
12.6871
 21
389.103
  0
LINE
  8
0
 10
12.6871
 20
389.103
 11
12.1791
 21
389.472
  0
LINE
  8
0
 10
12.1791
 20
389.472
 11
11.6289
 21
389.774
  0
LINE
  8
0
 10
11.6289
 20
389.774
 11
11.0451
 21
390.005
  0
LINE
  8
0
 10
11.0451
 20
390.005
 11
10.4369
 21
390.161
  0
LINE
  8
0
 10
10.4369
 20
390.161
 11
9.81395
 21
390.24
  0
LINE
  8
0
 10
9.81395
 20
390.24
 11
-9.81395
 21
390.24
  0
LINE
  8
0
 10
-9.81395
 20
390.24
 11
-10.4369
 21
390.161
  0
LINE
  8
0
 10
-10.4369
 20
390.161
 11
-11.0451
 21
390.005
  0
LINE
  8
0
 10
-11.0451
 20
390.005
 11
-11.6289
 21
389.774
  0
LINE
  8
0
 10
-11.6289
 20
389.774
 11
-12.1791
 21
389.472
  0
LINE
  8
0
 10
-12.1791
 20
389.472
 11
-12.6871
 21
389.103
  0
LINE
  8
0
 10
-12.6871
 20
389.103
 11
-13.1448
 21
388.673
  0
LINE
  8
0
 10
-13.1448
 20
388.673
 11
-13.5451
 21
388.189
  0
LINE
  8
0
 10
-13.5451
 20
388.189
 11
-13.8815
 21
387.659
  0
LINE
  8
0
 10
-13.8815
 20
387.659
 11
-14.1489
 21
387.091
  0
LINE
  8
0
 10
-14.1489
 20
387.091
 11
-14.3429
 21
386.493
  0
LINE
  8
0
 10
-14.3429
 20
386.493
 11
-14.4606
 21
385.877
  0
LINE
  8
0
 10
-14.4606
 20
385.877
 11
-14.5
 21
385.25
  0
LINE
  8
0
 10
-14.5
 20
385.25
 11
-14.5
 21
358.75
  0
LINE
  8
0
 10
-14.5
 20
358.75
 11
-14.4606
 21
358.123
  0
LINE
  8
0
 10
-14.4606
 20
358.123
 11
-14.3429
 21
357.507
  0
LINE
  8
0
 10
-14.3429
 20
357.507
 11
-14.1489
 21
356.909
  0
LINE
  8
0
 10
-14.1489
 20
356.909
 11
-13.8815
 21
356.341
  0
LINE
  8
0
 10
-13.8815
 20
356.341
 11
-13.5451
 21
355.811
  0
LINE
  8
0
 10
-13.5451
 20
355.811
 11
-13.1448
 21
355.327
  0
LINE
  8
0
 10
-13.1448
 20
355.327
 11
-12.6871
 21
354.897
  0
LINE
  8
0
 10
-12.6871
 20
354.897
 11
-12.1791
 21
354.528
  0
LINE
  8
0
 10
-12.1791
 20
354.528
 11
-11.6289
 21
354.226
  0
LINE
  8
0
 10
-11.6289
 20
354.226
 11
-11.0451
 21
353.995
  0
LINE
  8
0
 10
-11.0451
 20
353.995
 11
-10.4369
 21
353.839
  0
LINE
  8
0
 10
-10.4369
 20
353.839
 11
-9.81395
 21
353.76
  0
LINE
  8
0
 10
-9.81395
 20
353.76
 11
9.81395
 21
353.76
  0
LINE
  8
0
 10
9.81395
 20
353.76
 11
10.4369
 21
353.839
  0
LINE
  8
0
 10
-9.75116
 20
354.758
 11
-10.2495
 21
354.821
  0
LINE
  8
0
 10
-10.2495
 20
354.821
 11
-10.7361
 21
354.946
  0
LINE
  8
0
 10
-10.7361
 20
354.946
 11
-11.2031
 21
355.131
  0
LINE
  8
0
 10
-11.2031
 20
355.131
 11
-11.6433
 21
355.373
  0
LINE
  8
0
 10
-11.6433
 20
355.373
 11
-12.0497
 21
355.668
  0
LINE
  8
0
 10
-12.0497
 20
355.668
 11
-12.4159
 21
356.012
  0
LINE
  8
0
 10
-12.4159
 20
356.012
 11
-12.7361
 21
356.399
  0
LINE
  8
0
 10
-12.7361
 20
356.399
 11
-13.0052
 21
356.823
  0
LINE
  8
0
 10
-13.0052
 20
356.823
 11
-13.2191
 21
357.278
  0
LINE
  8
0
 10
-13.2191
 20
357.278
 11
-13.3743
 21
357.755
  0
LINE
  8
0
 10
-13.3743
 20
357.755
 11
-13.4684
 21
358.249
  0
LINE
  8
0
 10
-13.4684
 20
358.249
 11
-13.5
 21
358.75
  0
LINE
  8
0
 10
-13.5
 20
358.75
 11
-13.5
 21
385.25
  0
LINE
  8
0
 10
-13.5
 20
385.25
 11
-13.4684
 21
385.751
  0
LINE
  8
0
 10
-13.4684
 20
385.751
 11
-13.3743
 21
386.245
  0
LINE
  8
0
 10
-13.3743
 20
386.245
 11
-13.2191
 21
386.722
  0
LINE
  8
0
 10
-13.2191
 20
386.722
 11
-13.0052
 21
387.177
  0
LINE
  8
0
 10
-13.0052
 20
387.177
 11
-12.7361
 21
387.601
  0
LINE
  8
0
 10
-12.7361
 20
387.601
 11
-12.4159
 21
387.988
  0
LINE
  8
0
 10
-12.4159
 20
387.988
 11
-12.0497
 21
388.332
  0
LINE
  8
0
 10
-12.0497
 20
388.332
 11
-11.6433
 21
388.627
  0
LINE
  8
0
 10
-11.6433
 20
388.627
 11
-11.2031
 21
388.869
  0
LINE
  8
0
 10
-11.2031
 20
388.869
 11
-10.7361
 21
389.054
  0
LINE
  8
0
 10
-10.7361
 20
389.054
 11
-10.2495
 21
389.179
  0
LINE
  8
0
 10
-10.2495
 20
389.179
 11
-9.75116
 21
389.242
  0
LINE
  8
0
 10
-9.75116
 20
389.242
 11
9.75116
 21
389.242
  0
LINE
  8
0
 10
9.75116
 20
389.242
 11
10.2495
 21
389.179
  0
LINE
  8
0
 10
10.2495
 20
389.179
 11
10.7361
 21
389.054
  0
LINE
  8
0
 10
10.7361
 20
389.054
 11
11.2031
 21
388.869
  0
LINE
  8
0
 10
11.2031
 20
388.869
 11
11.6433
 21
388.627
  0
LINE
  8
0
 10
11.6433
 20
388.627
 11
12.0497
 21
388.332
  0
LINE
  8
0
 10
12.0497
 20
388.332
 11
12.4159
 21
387.988
  0
LINE
  8
0
 10
12.4159
 20
387.988
 11
12.7361
 21
387.601
  0
LINE
  8
0
 10
12.7361
 20
387.601
 11
13.0052
 21
387.177
  0
LINE
  8
0
 10
13.0052
 20
387.177
 11
13.2191
 21
386.722
  0
LINE
  8
0
 10
13.2191
 20
386.722
 11
13.3743
 21
386.245
  0
LINE
  8
0
 10
13.3743
 20
386.245
 11
13.4684
 21
385.751
  0
LINE
  8
0
 10
13.4684
 20
385.751
 11
13.5
 21
385.25
  0
LINE
  8
0
 10
13.5
 20
385.25
 11
13.5
 21
358.75
  0
LINE
  8
0
 10
13.5
 20
358.75
 11
13.4684
 21
358.249
  0
LINE
  8
0
 10
13.4684
 20
358.249
 11
13.3743
 21
357.755
  0
LINE
  8
0
 10
13.3743
 20
357.755
 11
13.2191
 21
357.278
  0
LINE
  8
0
 10
13.2191
 20
357.278
 11
13.0052
 21
356.823
  0
LINE
  8
0
 10
13.0052
 20
356.823
 11
12.7361
 21
356.399
  0
LINE
  8
0
 10
12.7361
 20
356.399
 11
12.4159
 21
356.012
  0
LINE
  8
0
 10
12.4159
 20
356.012
 11
12.0497
 21
355.668
  0
LINE
  8
0
 10
12.0497
 20
355.668
 11
11.6433
 21
355.373
  0
LINE
  8
0
 10
11.6433
 20
355.373
 11
11.2031
 21
355.131
  0
LINE
  8
0
 10
11.2031
 20
355.131
 11
10.7361
 21
354.946
  0
LINE
  8
0
 10
10.7361
 20
354.946
 11
10.2495
 21
354.821
  0
LINE
  8
0
 10
10.2495
 20
354.821
 11
9.75116
 21
354.758
  0
LINE
  8
0
 10
9.75116
 20
354.758
 11
-9.75116
 21
354.758
  0
LINE
  8
0
 10
10.4369
 20
307.339
 11
11.0451
 21
307.495
  0
LINE
  8
0
 10
11.0451
 20
307.495
 11
11.6289
 21
307.726
  0
LINE
  8
0
 10
11.6289
 20
307.726
 11
12.1791
 21
308.028
  0
LINE
  8
0
 10
12.1791
 20
308.028
 11
12.6871
 21
308.397
  0
LINE
  8
0
 10
12.6871
 20
308.397
 11
13.1448
 21
308.827
  0
LINE
  8
0
 10
13.1448
 20
308.827
 11
13.5451
 21
309.311
  0
LINE
  8
0
 10
13.5451
 20
309.311
 11
13.8815
 21
309.841
  0
LINE
  8
0
 10
13.8815
 20
309.841
 11
14.1489
 21
310.409
  0
LINE
  8
0
 10
14.1489
 20
310.409
 11
14.3429
 21
311.007
  0
LINE
  8
0
 10
14.3429
 20
311.007
 11
14.4606
 21
311.623
  0
LINE
  8
0
 10
14.4606
 20
311.623
 11
14.5
 21
312.25
  0
LINE
  8
0
 10
14.5
 20
312.25
 11
14.5
 21
338.75
  0
LINE
  8
0
 10
14.5
 20
338.75
 11
14.4606
 21
339.377
  0
LINE
  8
0
 10
14.4606
 20
339.377
 11
14.3429
 21
339.993
  0
LINE
  8
0
 10
14.3429
 20
339.993
 11
14.1489
 21
340.591
  0
LINE
  8
0
 10
14.1489
 20
340.591
 11
13.8815
 21
341.159
  0
LINE
  8
0
 10
13.8815
 20
341.159
 11
13.5451
 21
341.689
  0
LINE
  8
0
 10
13.5451
 20
341.689
 11
13.1448
 21
342.173
  0
LINE
  8
0
 10
13.1448
 20
342.173
 11
12.6871
 21
342.603
  0
LINE
  8
0
 10
12.6871
 20
342.603
 11
12.1791
 21
342.972
  0
LINE
  8
0
 10
12.1791
 20
342.972
 11
11.6289
 21
343.274
  0
LINE
  8
0
 10
11.6289
 20
343.274
 11
11.0451
 21
343.505
  0
LINE
  8
0
 10
11.0451
 20
343.505
 11
10.4369
 21
343.661
  0
LINE
  8
0
 10
10.4369
 20
343.661
 11
9.81395
 21
343.74
  0
LINE
  8
0
 10
9.81395
 20
343.74
 11
-9.81395
 21
343.74
  0
LINE
  8
0
 10
-9.81395
 20
343.74
 11
-10.4369
 21
343.661
  0
LINE
  8
0
 10
-10.4369
 20
343.661
 11
-11.0451
 21
343.505
  0
LINE
  8
0
 10
-11.0451
 20
343.505
 11
-11.6289
 21
343.274
  0
LINE
  8
0
 10
-11.6289
 20
343.274
 11
-12.1791
 21
342.972
  0
LINE
  8
0
 10
-12.1791
 20
342.972
 11
-12.6871
 21
342.603
  0
LINE
  8
0
 10
-12.6871
 20
342.603
 11
-13.1448
 21
342.173
  0
LINE
  8
0
 10
-13.1448
 20
342.173
 11
-13.5451
 21
341.689
  0
LINE
  8
0
 10
-13.5451
 20
341.689
 11
-13.8815
 21
341.159
  0
LINE
  8
0
 10
-13.8815
 20
341.159
 11
-14.1489
 21
340.591
  0
LINE
  8
0
 10
-14.1489
 20
340.591
 11
-14.3429
 21
339.993
  0
LINE
  8
0
 10
-14.3429
 20
339.993
 11
-14.4606
 21
339.377
  0
LINE
  8
0
 10
-14.4606
 20
339.377
 11
-14.5
 21
338.75
  0
LINE
  8
0
 10
-14.5
 20
338.75
 11
-14.5
 21
312.25
  0
LINE
  8
0
 10
-14.5
 20
312.25
 11
-14.4606
 21
311.623
  0
LINE
  8
0
 10
-14.4606
 20
311.623
 11
-14.3429
 21
311.007
  0
LINE
  8
0
 10
-14.3429
 20
311.007
 11
-14.1489
 21
310.409
  0
LINE
  8
0
 10
-14.1489
 20
310.409
 11
-13.8815
 21
309.841
  0
LINE
  8
0
 10
-13.8815
 20
309.841
 11
-13.5451
 21
309.311
  0
LINE
  8
0
 10
-13.5451
 20
309.311
 11
-13.1448
 21
308.827
  0
LINE
  8
0
 10
-13.1448
 20
308.827
 11
-12.6871
 21
308.397
  0
LINE
  8
0
 10
-12.6871
 20
308.397
 11
-12.1791
 21
308.028
  0
LINE
  8
0
 10
-12.1791
 20
308.028
 11
-11.6289
 21
307.726
  0
LINE
  8
0
 10
-11.6289
 20
307.726
 11
-11.0451
 21
307.495
  0
LINE
  8
0
 10
-11.0451
 20
307.495
 11
-10.4369
 21
307.339
  0
LINE
  8
0
 10
-10.4369
 20
307.339
 11
-9.81395
 21
307.26
  0
LINE
  8
0
 10
-9.81395
 20
307.26
 11
9.81395
 21
307.26
  0
LINE
  8
0
 10
9.81395
 20
307.26
 11
10.4369
 21
307.339
  0
LINE
  8
0
 10
-9.75116
 20
308.258
 11
-10.2495
 21
308.321
  0
LINE
  8
0
 10
-10.2495
 20
308.321
 11
-10.7361
 21
308.446
  0
LINE
  8
0
 10
-10.7361
 20
308.446
 11
-11.2031
 21
308.631
  0
LINE
  8
0
 10
-11.2031
 20
308.631
 11
-11.6433
 21
308.873
  0
LINE
  8
0
 10
-11.6433
 20
308.873
 11
-12.0497
 21
309.168
  0
LINE
  8
0
 10
-12.0497
 20
309.168
 11
-12.4159
 21
309.512
  0
LINE
  8
0
 10
-12.4159
 20
309.512
 11
-12.7361
 21
309.899
  0
LINE
  8
0
 10
-12.7361
 20
309.899
 11
-13.0052
 21
310.323
  0
LINE
  8
0
 10
-13.0052
 20
310.323
 11
-13.2191
 21
310.778
  0
LINE
  8
0
 10
-13.2191
 20
310.778
 11
-13.3743
 21
311.255
  0
LINE
  8
0
 10
-13.3743
 20
311.255
 11
-13.4684
 21
311.749
  0
LINE
  8
0
 10
-13.4684
 20
311.749
 11
-13.5
 21
312.25
  0
LINE
  8
0
 10
-13.5
 20
312.25
 11
-13.5
 21
338.75
  0
LINE
  8
0
 10
-13.5
 20
338.75
 11
-13.4684
 21
339.251
  0
LINE
  8
0
 10
-13.4684
 20
339.251
 11
-13.3743
 21
339.745
  0
LINE
  8
0
 10
-13.3743
 20
339.745
 11
-13.2191
 21
340.222
  0
LINE
  8
0
 10
-13.2191
 20
340.222
 11
-13.0052
 21
340.677
  0
LINE
  8
0
 10
-13.0052
 20
340.677
 11
-12.7361
 21
341.101
  0
LINE
  8
0
 10
-12.7361
 20
341.101
 11
-12.4159
 21
341.488
  0
LINE
  8
0
 10
-12.4159
 20
341.488
 11
-12.0497
 21
341.832
  0
LINE
  8
0
 10
-12.0497
 20
341.832
 11
-11.6433
 21
342.127
  0
LINE
  8
0
 10
-11.6433
 20
342.127
 11
-11.2031
 21
342.369
  0
LINE
  8
0
 10
-11.2031
 20
342.369
 11
-10.7361
 21
342.554
  0
LINE
  8
0
 10
-10.7361
 20
342.554
 11
-10.2495
 21
342.679
  0
LINE
  8
0
 10
-10.2495
 20
342.679
 11
-9.75116
 21
342.742
  0
LINE
  8
0
 10
-9.75116
 20
342.742
 11
9.75116
 21
342.742
  0
LINE
  8
0
 10
9.75116
 20
342.742
 11
10.2495
 21
342.679
  0
LINE
  8
0
 10
10.2495
 20
342.679
 11
10.7361
 21
342.554
  0
LINE
  8
0
 10
10.7361
 20
342.554
 11
11.2031
 21
342.369
  0
LINE
  8
0
 10
11.2031
 20
342.369
 11
11.6433
 21
342.127
  0
LINE
  8
0
 10
11.6433
 20
342.127
 11
12.0497
 21
341.832
  0
LINE
  8
0
 10
12.0497
 20
341.832
 11
12.4159
 21
341.488
  0
LINE
  8
0
 10
12.4159
 20
341.488
 11
12.7361
 21
341.101
  0
LINE
  8
0
 10
12.7361
 20
341.101
 11
13.0052
 21
340.677
  0
LINE
  8
0
 10
13.0052
 20
340.677
 11
13.2191
 21
340.222
  0
LINE
  8
0
 10
13.2191
 20
340.222
 11
13.3743
 21
339.745
  0
LINE
  8
0
 10
13.3743
 20
339.745
 11
13.4684
 21
339.251
  0
LINE
  8
0
 10
13.4684
 20
339.251
 11
13.5
 21
338.75
  0
LINE
  8
0
 10
13.5
 20
338.75
 11
13.5
 21
312.25
  0
LINE
  8
0
 10
13.5
 20
312.25
 11
13.4684
 21
311.749
  0
LINE
  8
0
 10
13.4684
 20
311.749
 11
13.3743
 21
311.255
  0
LINE
  8
0
 10
13.3743
 20
311.255
 11
13.2191
 21
310.778
  0
LINE
  8
0
 10
13.2191
 20
310.778
 11
13.0052
 21
310.323
  0
LINE
  8
0
 10
13.0052
 20
310.323
 11
12.7361
 21
309.899
  0
LINE
  8
0
 10
12.7361
 20
309.899
 11
12.4159
 21
309.512
  0
LINE
  8
0
 10
12.4159
 20
309.512
 11
12.0497
 21
309.168
  0
LINE
  8
0
 10
12.0497
 20
309.168
 11
11.6433
 21
308.873
  0
LINE
  8
0
 10
11.6433
 20
308.873
 11
11.2031
 21
308.631
  0
LINE
  8
0
 10
11.2031
 20
308.631
 11
10.7361
 21
308.446
  0
LINE
  8
0
 10
10.7361
 20
308.446
 11
10.2495
 21
308.321
  0
LINE
  8
0
 10
10.2495
 20
308.321
 11
9.75116
 21
308.258
  0
LINE
  8
0
 10
9.75116
 20
308.258
 11
-9.75116
 21
308.258
  0
LINE
  8
0
 10
10.4369
 20
260.839
 11
11.0451
 21
260.995
  0
LINE
  8
0
 10
11.0451
 20
260.995
 11
11.6289
 21
261.226
  0
LINE
  8
0
 10
11.6289
 20
261.226
 11
12.1791
 21
261.528
  0
LINE
  8
0
 10
12.1791
 20
261.528
 11
12.6871
 21
261.897
  0
LINE
  8
0
 10
12.6871
 20
261.897
 11
13.1448
 21
262.327
  0
LINE
  8
0
 10
13.1448
 20
262.327
 11
13.5451
 21
262.811
  0
LINE
  8
0
 10
13.5451
 20
262.811
 11
13.8815
 21
263.341
  0
LINE
  8
0
 10
13.8815
 20
263.341
 11
14.1489
 21
263.909
  0
LINE
  8
0
 10
14.1489
 20
263.909
 11
14.3429
 21
264.507
  0
LINE
  8
0
 10
14.3429
 20
264.507
 11
14.4606
 21
265.123
  0
LINE
  8
0
 10
14.4606
 20
265.123
 11
14.5
 21
265.75
  0
LINE
  8
0
 10
14.5
 20
265.75
 11
14.5
 21
292.25
  0
LINE
  8
0
 10
14.5
 20
292.25
 11
14.4606
 21
292.877
  0
LINE
  8
0
 10
14.4606
 20
292.877
 11
14.3429
 21
293.493
  0
LINE
  8
0
 10
14.3429
 20
293.493
 11
14.1489
 21
294.091
  0
LINE
  8
0
 10
14.1489
 20
294.091
 11
13.8815
 21
294.659
  0
LINE
  8
0
 10
13.8815
 20
294.659
 11
13.5451
 21
295.189
  0
LINE
  8
0
 10
13.5451
 20
295.189
 11
13.1448
 21
295.673
  0
LINE
  8
0
 10
13.1448
 20
295.673
 11
12.6871
 21
296.103
  0
LINE
  8
0
 10
12.6871
 20
296.103
 11
12.1791
 21
296.472
  0
LINE
  8
0
 10
12.1791
 20
296.472
 11
11.6289
 21
296.774
  0
LINE
  8
0
 10
11.6289
 20
296.774
 11
11.0451
 21
297.005
  0
LINE
  8
0
 10
11.0451
 20
297.005
 11
10.4369
 21
297.161
  0
LINE
  8
0
 10
10.4369
 20
297.161
 11
9.81395
 21
297.24
  0
LINE
  8
0
 10
9.81395
 20
297.24
 11
-9.81395
 21
297.24
  0
LINE
  8
0
 10
-9.81395
 20
297.24
 11
-10.4369
 21
297.161
  0
LINE
  8
0
 10
-10.4369
 20
297.161
 11
-11.0451
 21
297.005
  0
LINE
  8
0
 10
-11.0451
 20
297.005
 11
-11.6289
 21
296.774
  0
LINE
  8
0
 10
-11.6289
 20
296.774
 11
-12.1791
 21
296.472
  0
LINE
  8
0
 10
-12.1791
 20
296.472
 11
-12.6871
 21
296.103
  0
LINE
  8
0
 10
-12.6871
 20
296.103
 11
-13.1448
 21
295.673
  0
LINE
  8
0
 10
-13.1448
 20
295.673
 11
-13.5451
 21
295.189
  0
LINE
  8
0
 10
-13.5451
 20
295.189
 11
-13.8815
 21
294.659
  0
LINE
  8
0
 10
-13.8815
 20
294.659
 11
-14.1489
 21
294.091
  0
LINE
  8
0
 10
-14.1489
 20
294.091
 11
-14.3429
 21
293.493
  0
LINE
  8
0
 10
-14.3429
 20
293.493
 11
-14.4606
 21
292.877
  0
LINE
  8
0
 10
-14.4606
 20
292.877
 11
-14.5
 21
292.25
  0
LINE
  8
0
 10
-14.5
 20
292.25
 11
-14.5
 21
265.75
  0
LINE
  8
0
 10
-14.5
 20
265.75
 11
-14.4606
 21
265.123
  0
LINE
  8
0
 10
-14.4606
 20
265.123
 11
-14.3429
 21
264.507
  0
LINE
  8
0
 10
-14.3429
 20
264.507
 11
-14.1489
 21
263.909
  0
LINE
  8
0
 10
-14.1489
 20
263.909
 11
-13.8815
 21
263.341
  0
LINE
  8
0
 10
-13.8815
 20
263.341
 11
-13.5451
 21
262.811
  0
LINE
  8
0
 10
-13.5451
 20
262.811
 11
-13.1448
 21
262.327
  0
LINE
  8
0
 10
-13.1448
 20
262.327
 11
-12.6871
 21
261.897
  0
LINE
  8
0
 10
-12.6871
 20
261.897
 11
-12.1791
 21
261.528
  0
LINE
  8
0
 10
-12.1791
 20
261.528
 11
-11.6289
 21
261.226
  0
LINE
  8
0
 10
-11.6289
 20
261.226
 11
-11.0451
 21
260.995
  0
LINE
  8
0
 10
-11.0451
 20
260.995
 11
-10.4369
 21
260.839
  0
LINE
  8
0
 10
-10.4369
 20
260.839
 11
-9.81395
 21
260.76
  0
LINE
  8
0
 10
-9.81395
 20
260.76
 11
9.81395
 21
260.76
  0
LINE
  8
0
 10
9.81395
 20
260.76
 11
10.4369
 21
260.839
  0
LINE
  8
0
 10
-9.74316
 20
261.885
 11
-10.2256
 21
261.946
  0
LINE
  8
0
 10
-10.2256
 20
261.946
 11
-10.6967
 21
262.067
  0
LINE
  8
0
 10
-10.6967
 20
262.067
 11
-11.1489
 21
262.246
  0
LINE
  8
0
 10
-11.1489
 20
262.246
 11
-11.5751
 21
262.48
  0
LINE
  8
0
 10
-11.5751
 20
262.48
 11
-11.9685
 21
262.766
  0
LINE
  8
0
 10
-11.9685
 20
262.766
 11
-12.323
 21
263.099
  0
LINE
  8
0
 10
-12.323
 20
263.099
 11
-12.633
 21
263.474
  0
LINE
  8
0
 10
-12.633
 20
263.474
 11
-12.8936
 21
263.884
  0
LINE
  8
0
 10
-12.8936
 20
263.884
 11
-13.1007
 21
264.324
  0
LINE
  8
0
 10
-13.1007
 20
264.324
 11
-13.251
 21
264.787
  0
LINE
  8
0
 10
-13.251
 20
264.787
 11
-13.3421
 21
265.265
  0
LINE
  8
0
 10
-13.3421
 20
265.265
 11
-13.3726
 21
265.75
  0
LINE
  8
0
 10
-13.3726
 20
265.75
 11
-13.3726
 21
292.25
  0
LINE
  8
0
 10
-13.3726
 20
292.25
 11
-13.3421
 21
292.735
  0
LINE
  8
0
 10
-13.3421
 20
292.735
 11
-13.251
 21
293.213
  0
LINE
  8
0
 10
-13.251
 20
293.213
 11
-13.1007
 21
293.676
  0
LINE
  8
0
 10
-13.1007
 20
293.676
 11
-12.8936
 21
294.116
  0
LINE
  8
0
 10
-12.8936
 20
294.116
 11
-12.633
 21
294.526
  0
LINE
  8
0
 10
-12.633
 20
294.526
 11
-12.323
 21
294.901
  0
LINE
  8
0
 10
-12.323
 20
294.901
 11
-11.9685
 21
295.234
  0
LINE
  8
0
 10
-11.9685
 20
295.234
 11
-11.5751
 21
295.52
  0
LINE
  8
0
 10
-11.5751
 20
295.52
 11
-11.1489
 21
295.754
  0
LINE
  8
0
 10
-11.1489
 20
295.754
 11
-10.6967
 21
295.933
  0
LINE
  8
0
 10
-10.6967
 20
295.933
 11
-10.2256
 21
296.054
  0
LINE
  8
0
 10
-10.2256
 20
296.054
 11
-9.74316
 21
296.115
  0
LINE
  8
0
 10
-9.74316
 20
296.115
 11
9.74316
 21
296.115
  0
LINE
  8
0
 10
9.74316
 20
296.115
 11
10.2256
 21
296.054
  0
LINE
  8
0
 10
10.2256
 20
296.054
 11
10.6967
 21
295.933
  0
LINE
  8
0
 10
10.6967
 20
295.933
 11
11.1489
 21
295.754
  0
LINE
  8
0
 10
11.1489
 20
295.754
 11
11.5751
 21
295.52
  0
LINE
  8
0
 10
11.5751
 20
295.52
 11
11.9685
 21
295.234
  0
LINE
  8
0
 10
11.9685
 20
295.234
 11
12.323
 21
294.901
  0
LINE
  8
0
 10
12.323
 20
294.901
 11
12.633
 21
294.526
  0
LINE
  8
0
 10
12.633
 20
294.526
 11
12.8936
 21
294.116
  0
LINE
  8
0
 10
12.8936
 20
294.116
 11
13.1007
 21
293.676
  0
LINE
  8
0
 10
13.1007
 20
293.676
 11
13.251
 21
293.213
  0
LINE
  8
0
 10
13.251
 20
293.213
 11
13.3421
 21
292.735
  0
LINE
  8
0
 10
13.3421
 20
292.735
 11
13.3726
 21
292.25
  0
LINE
  8
0
 10
13.3726
 20
292.25
 11
13.3726
 21
265.75
  0
LINE
  8
0
 10
13.3726
 20
265.75
 11
13.3421
 21
265.265
  0
LINE
  8
0
 10
13.3421
 20
265.265
 11
13.251
 21
264.787
  0
LINE
  8
0
 10
13.251
 20
264.787
 11
13.1007
 21
264.324
  0
LINE
  8
0
 10
13.1007
 20
264.324
 11
12.8936
 21
263.884
  0
LINE
  8
0
 10
12.8936
 20
263.884
 11
12.633
 21
263.474
  0
LINE
  8
0
 10
12.633
 20
263.474
 11
12.323
 21
263.099
  0
LINE
  8
0
 10
12.323
 20
263.099
 11
11.9685
 21
262.766
  0
LINE
  8
0
 10
11.9685
 20
262.766
 11
11.5751
 21
262.48
  0
LINE
  8
0
 10
11.5751
 20
262.48
 11
11.1489
 21
262.246
  0
LINE
  8
0
 10
11.1489
 20
262.246
 11
10.6967
 21
262.067
  0
LINE
  8
0
 10
10.6967
 20
262.067
 11
10.2256
 21
261.946
  0
LINE
  8
0
 10
10.2256
 20
261.946
 11
9.74316
 21
261.885
  0
LINE
  8
0
 10
9.74316
 20
261.885
 11
-9.74316
 21
261.885
  0
LINE
  8
0
 10
10.4369
 20
214.339
 11
11.0451
 21
214.495
  0
LINE
  8
0
 10
11.0451
 20
214.495
 11
11.6289
 21
214.726
  0
LINE
  8
0
 10
11.6289
 20
214.726
 11
12.1791
 21
215.028
  0
LINE
  8
0
 10
12.1791
 20
215.028
 11
12.6871
 21
215.397
  0
LINE
  8
0
 10
12.6871
 20
215.397
 11
13.1448
 21
215.827
  0
LINE
  8
0
 10
13.1448
 20
215.827
 11
13.5451
 21
216.311
  0
LINE
  8
0
 10
13.5451
 20
216.311
 11
13.8815
 21
216.841
  0
LINE
  8
0
 10
13.8815
 20
216.841
 11
14.1489
 21
217.409
  0
LINE
  8
0
 10
14.1489
 20
217.409
 11
14.3429
 21
218.007
  0
LINE
  8
0
 10
14.3429
 20
218.007
 11
14.4606
 21
218.623
  0
LINE
  8
0
 10
14.4606
 20
218.623
 11
14.5
 21
219.25
  0
LINE
  8
0
 10
14.5
 20
219.25
 11
14.5
 21
245.75
  0
LINE
  8
0
 10
14.5
 20
245.75
 11
14.4606
 21
246.377
  0
LINE
  8
0
 10
14.4606
 20
246.377
 11
14.3429
 21
246.993
  0
LINE
  8
0
 10
14.3429
 20
246.993
 11
14.1489
 21
247.591
  0
LINE
  8
0
 10
14.1489
 20
247.591
 11
13.8815
 21
248.159
  0
LINE
  8
0
 10
13.8815
 20
248.159
 11
13.5451
 21
248.689
  0
LINE
  8
0
 10
13.5451
 20
248.689
 11
13.1448
 21
249.173
  0
LINE
  8
0
 10
13.1448
 20
249.173
 11
12.6871
 21
249.603
  0
LINE
  8
0
 10
12.6871
 20
249.603
 11
12.1791
 21
249.972
  0
LINE
  8
0
 10
12.1791
 20
249.972
 11
11.6289
 21
250.274
  0
LINE
  8
0
 10
11.6289
 20
250.274
 11
11.0451
 21
250.505
  0
LINE
  8
0
 10
11.0451
 20
250.505
 11
10.4369
 21
250.661
  0
LINE
  8
0
 10
10.4369
 20
250.661
 11
9.81395
 21
250.74
  0
LINE
  8
0
 10
9.81395
 20
250.74
 11
-9.81395
 21
250.74
  0
LINE
  8
0
 10
-9.81395
 20
250.74
 11
-10.4369
 21
250.661
  0
LINE
  8
0
 10
-10.4369
 20
250.661
 11
-11.0451
 21
250.505
  0
LINE
  8
0
 10
-11.0451
 20
250.505
 11
-11.6289
 21
250.274
  0
LINE
  8
0
 10
-11.6289
 20
250.274
 11
-12.1791
 21
249.972
  0
LINE
  8
0
 10
-12.1791
 20
249.972
 11
-12.6871
 21
249.603
  0
LINE
  8
0
 10
-12.6871
 20
249.603
 11
-13.1448
 21
249.173
  0
LINE
  8
0
 10
-13.1448
 20
249.173
 11
-13.5451
 21
248.689
  0
LINE
  8
0
 10
-13.5451
 20
248.689
 11
-13.8815
 21
248.159
  0
LINE
  8
0
 10
-13.8815
 20
248.159
 11
-14.1489
 21
247.591
  0
LINE
  8
0
 10
-14.1489
 20
247.591
 11
-14.3429
 21
246.993
  0
LINE
  8
0
 10
-14.3429
 20
246.993
 11
-14.4606
 21
246.377
  0
LINE
  8
0
 10
-14.4606
 20
246.377
 11
-14.5
 21
245.75
  0
LINE
  8
0
 10
-14.5
 20
245.75
 11
-14.5
 21
219.25
  0
LINE
  8
0
 10
-14.5
 20
219.25
 11
-14.4606
 21
218.623
  0
LINE
  8
0
 10
-14.4606
 20
218.623
 11
-14.3429
 21
218.007
  0
LINE
  8
0
 10
-14.3429
 20
218.007
 11
-14.1489
 21
217.409
  0
LINE
  8
0
 10
-14.1489
 20
217.409
 11
-13.8815
 21
216.841
  0
LINE
  8
0
 10
-13.8815
 20
216.841
 11
-13.5451
 21
216.311
  0
LINE
  8
0
 10
-13.5451
 20
216.311
 11
-13.1448
 21
215.827
  0
LINE
  8
0
 10
-13.1448
 20
215.827
 11
-12.6871
 21
215.397
  0
LINE
  8
0
 10
-12.6871
 20
215.397
 11
-12.1791
 21
215.028
  0
LINE
  8
0
 10
-12.1791
 20
215.028
 11
-11.6289
 21
214.726
  0
LINE
  8
0
 10
-11.6289
 20
214.726
 11
-11.0451
 21
214.495
  0
LINE
  8
0
 10
-11.0451
 20
214.495
 11
-10.4369
 21
214.339
  0
LINE
  8
0
 10
-10.4369
 20
214.339
 11
-9.81395
 21
214.26
  0
LINE
  8
0
 10
-9.81395
 20
214.26
 11
9.81395
 21
214.26
  0
LINE
  8
0
 10
9.81395
 20
214.26
 11
10.4369
 21
214.339
  0
LINE
  8
0
 10
10.4369
 20
167.839
 11
11.0451
 21
167.995
  0
LINE
  8
0
 10
11.0451
 20
167.995
 11
11.6289
 21
168.226
  0
LINE
  8
0
 10
11.6289
 20
168.226
 11
12.1791
 21
168.528
  0
LINE
  8
0
 10
12.1791
 20
168.528
 11
12.6871
 21
168.897
  0
LINE
  8
0
 10
12.6871
 20
168.897
 11
13.1448
 21
169.327
  0
LINE
  8
0
 10
13.1448
 20
169.327
 11
13.5451
 21
169.811
  0
LINE
  8
0
 10
13.5451
 20
169.811
 11
13.8815
 21
170.341
  0
LINE
  8
0
 10
13.8815
 20
170.341
 11
14.1489
 21
170.909
  0
LINE
  8
0
 10
14.1489
 20
170.909
 11
14.3429
 21
171.507
  0
LINE
  8
0
 10
14.3429
 20
171.507
 11
14.4606
 21
172.123
  0
LINE
  8
0
 10
14.4606
 20
172.123
 11
14.5
 21
172.75
  0
LINE
  8
0
 10
14.5
 20
172.75
 11
14.5
 21
199.25
  0
LINE
  8
0
 10
14.5
 20
199.25
 11
14.4606
 21
199.877
  0
LINE
  8
0
 10
14.4606
 20
199.877
 11
14.3429
 21
200.493
  0
LINE
  8
0
 10
14.3429
 20
200.493
 11
14.1489
 21
201.091
  0
LINE
  8
0
 10
14.1489
 20
201.091
 11
13.8815
 21
201.659
  0
LINE
  8
0
 10
13.8815
 20
201.659
 11
13.5451
 21
202.189
  0
LINE
  8
0
 10
13.5451
 20
202.189
 11
13.1448
 21
202.673
  0
LINE
  8
0
 10
13.1448
 20
202.673
 11
12.6871
 21
203.103
  0
LINE
  8
0
 10
12.6871
 20
203.103
 11
12.1791
 21
203.472
  0
LINE
  8
0
 10
12.1791
 20
203.472
 11
11.6289
 21
203.774
  0
LINE
  8
0
 10
11.6289
 20
203.774
 11
11.0451
 21
204.005
  0
LINE
  8
0
 10
11.0451
 20
204.005
 11
10.4369
 21
204.161
  0
LINE
  8
0
 10
10.4369
 20
204.161
 11
9.81395
 21
204.24
  0
LINE
  8
0
 10
9.81395
 20
204.24
 11
-9.81395
 21
204.24
  0
LINE
  8
0
 10
-9.81395
 20
204.24
 11
-10.4369
 21
204.161
  0
LINE
  8
0
 10
-10.4369
 20
204.161
 11
-11.0451
 21
204.005
  0
LINE
  8
0
 10
-11.0451
 20
204.005
 11
-11.6289
 21
203.774
  0
LINE
  8
0
 10
-11.6289
 20
203.774
 11
-12.1791
 21
203.472
  0
LINE
  8
0
 10
-12.1791
 20
203.472
 11
-12.6871
 21
203.103
  0
LINE
  8
0
 10
-12.6871
 20
203.103
 11
-13.1448
 21
202.673
  0
LINE
  8
0
 10
-13.1448
 20
202.673
 11
-13.5451
 21
202.189
  0
LINE
  8
0
 10
-13.5451
 20
202.189
 11
-13.8815
 21
201.659
  0
LINE
  8
0
 10
-13.8815
 20
201.659
 11
-14.1489
 21
201.091
  0
LINE
  8
0
 10
-14.1489
 20
201.091
 11
-14.3429
 21
200.493
  0
LINE
  8
0
 10
-14.3429
 20
200.493
 11
-14.4606
 21
199.877
  0
LINE
  8
0
 10
-14.4606
 20
199.877
 11
-14.5
 21
199.25
  0
LINE
  8
0
 10
-14.5
 20
199.25
 11
-14.5
 21
172.75
  0
LINE
  8
0
 10
-14.5
 20
172.75
 11
-14.4606
 21
172.123
  0
LINE
  8
0
 10
-14.4606
 20
172.123
 11
-14.3429
 21
171.507
  0
LINE
  8
0
 10
-14.3429
 20
171.507
 11
-14.1489
 21
170.909
  0
LINE
  8
0
 10
-14.1489
 20
170.909
 11
-13.8815
 21
170.341
  0
LINE
  8
0
 10
-13.8815
 20
170.341
 11
-13.5451
 21
169.811
  0
LINE
  8
0
 10
-13.5451
 20
169.811
 11
-13.1448
 21
169.327
  0
LINE
  8
0
 10
-13.1448
 20
169.327
 11
-12.6871
 21
168.897
  0
LINE
  8
0
 10
-12.6871
 20
168.897
 11
-12.1791
 21
168.528
  0
LINE
  8
0
 10
-12.1791
 20
168.528
 11
-11.6289
 21
168.226
  0
LINE
  8
0
 10
-11.6289
 20
168.226
 11
-11.0451
 21
167.995
  0
LINE
  8
0
 10
-11.0451
 20
167.995
 11
-10.4369
 21
167.839
  0
LINE
  8
0
 10
-10.4369
 20
167.839
 11
-9.81395
 21
167.76
  0
LINE
  8
0
 10
-9.81395
 20
167.76
 11
9.81395
 21
167.76
  0
LINE
  8
0
 10
9.81395
 20
167.76
 11
10.4369
 21
167.839
  0
LINE
  8
0
 10
-7.6507
 20
194.855
 11
-7.94971
 21
194.893
  0
LINE
  8
0
 10
-7.94971
 20
194.893
 11
-8.24164
 21
194.967
  0
LINE
  8
0
 10
-8.24164
 20
194.967
 11
-8.52187
 21
195.078
  0
LINE
  8
0
 10
-8.52187
 20
195.078
 11
-8.78598
 21
195.224
  0
LINE
  8
0
 10
-8.78598
 20
195.224
 11
-9.02982
 21
195.401
  0
LINE
  8
0
 10
-9.02982
 20
195.401
 11
-9.24951
 21
195.607
  0
LINE
  8
0
 10
-9.24951
 20
195.607
 11
-9.44164
 21
195.839
  0
LINE
  8
0
 10
-9.44164
 20
195.839
 11
-9.60313
 21
196.094
  0
LINE
  8
0
 10
-9.60313
 20
196.094
 11
-9.73146
 21
196.367
  0
LINE
  8
0
 10
-9.73146
 20
196.367
 11
-9.82458
 21
196.653
  0
LINE
  8
0
 10
-9.82458
 20
196.653
 11
-9.88107
 21
196.949
  0
LINE
  8
0
 10
-9.88107
 20
196.949
 11
-9.89999
 21
197.25
  0
LINE
  8
0
 10
-9.89999
 20
197.25
 11
-9.88107
 21
197.551
  0
LINE
  8
0
 10
-9.88107
 20
197.551
 11
-9.82458
 21
197.847
  0
LINE
  8
0
 10
-9.82458
 20
197.847
 11
-9.73146
 21
198.133
  0
LINE
  8
0
 10
-9.73146
 20
198.133
 11
-9.60313
 21
198.406
  0
LINE
  8
0
 10
-9.60313
 20
198.406
 11
-9.44164
 21
198.661
  0
LINE
  8
0
 10
-9.44164
 20
198.661
 11
-9.24951
 21
198.893
  0
LINE
  8
0
 10
-9.24951
 20
198.893
 11
-9.02982
 21
199.099
  0
LINE
  8
0
 10
-9.02982
 20
199.099
 11
-8.78598
 21
199.276
  0
LINE
  8
0
 10
-8.78598
 20
199.276
 11
-8.52187
 21
199.422
  0
LINE
  8
0
 10
-8.52187
 20
199.422
 11
-8.24164
 21
199.533
  0
LINE
  8
0
 10
-8.24164
 20
199.533
 11
-7.94971
 21
199.607
  0
LINE
  8
0
 10
-7.94971
 20
199.607
 11
-7.6507
 21
199.645
  0
LINE
  8
0
 10
-7.6507
 20
199.645
 11
-7.34929
 21
199.645
  0
LINE
  8
0
 10
-7.34929
 20
199.645
 11
-7.05028
 21
199.607
  0
LINE
  8
0
 10
-7.05028
 20
199.607
 11
-6.75835
 21
199.533
  0
LINE
  8
0
 10
-6.75835
 20
199.533
 11
-6.47812
 21
199.422
  0
LINE
  8
0
 10
-6.47812
 20
199.422
 11
-6.214
 21
199.276
  0
LINE
  8
0
 10
-6.214
 20
199.276
 11
-5.97017
 21
199.099
  0
LINE
  8
0
 10
-5.97017
 20
199.099
 11
-5.75047
 21
198.893
  0
LINE
  8
0
 10
-5.75047
 20
198.893
 11
-5.55835
 21
198.661
  0
LINE
  8
0
 10
-5.55835
 20
198.661
 11
-5.39685
 21
198.406
  0
LINE
  8
0
 10
-5.39685
 20
198.406
 11
-5.26852
 21
198.133
  0
LINE
  8
0
 10
-5.26852
 20
198.133
 11
-5.1754
 21
197.847
  0
LINE
  8
0
 10
-5.1754
 20
197.847
 11
-5.11891
 21
197.551
  0
LINE
  8
0
 10
-5.11891
 20
197.551
 11
-5.09999
 21
197.25
  0
LINE
  8
0
 10
-5.09999
 20
197.25
 11
-5.11891
 21
196.949
  0
LINE
  8
0
 10
-5.11891
 20
196.949
 11
-5.1754
 21
196.653
  0
LINE
  8
0
 10
-5.1754
 20
196.653
 11
-5.26852
 21
196.367
  0
LINE
  8
0
 10
-5.26852
 20
196.367
 11
-5.39685
 21
196.094
  0
LINE
  8
0
 10
-5.39685
 20
196.094
 11
-5.55835
 21
195.839
  0
LINE
  8
0
 10
-5.55835
 20
195.839
 11
-5.75047
 21
195.607
  0
LINE
  8
0
 10
-5.75047
 20
195.607
 11
-5.97017
 21
195.401
  0
LINE
  8
0
 10
-5.97017
 20
195.401
 11
-6.214
 21
195.224
  0
LINE
  8
0
 10
-6.214
 20
195.224
 11
-6.47812
 21
195.078
  0
LINE
  8
0
 10
-6.47812
 20
195.078
 11
-6.75835
 21
194.967
  0
LINE
  8
0
 10
-6.75835
 20
194.967
 11
-7.05028
 21
194.893
  0
LINE
  8
0
 10
-7.05028
 20
194.893
 11
-7.34929
 21
194.855
  0
LINE
  8
0
 10
-7.34929
 20
194.855
 11
-7.6507
 21
194.855
  0
LINE
  8
0
 10
7.34929
 20
194.855
 11
7.05028
 21
194.893
  0
LINE
  8
0
 10
7.05028
 20
194.893
 11
6.75835
 21
194.967
  0
LINE
  8
0
 10
6.75835
 20
194.967
 11
6.47812
 21
195.078
  0
LINE
  8
0
 10
6.47812
 20
195.078
 11
6.214
 21
195.224
  0
LINE
  8
0
 10
6.214
 20
195.224
 11
5.97017
 21
195.401
  0
LINE
  8
0
 10
5.97017
 20
195.401
 11
5.75047
 21
195.607
  0
LINE
  8
0
 10
5.75047
 20
195.607
 11
5.55835
 21
195.839
  0
LINE
  8
0
 10
5.55835
 20
195.839
 11
5.39685
 21
196.094
  0
LINE
  8
0
 10
5.39685
 20
196.094
 11
5.26852
 21
196.367
  0
LINE
  8
0
 10
5.26852
 20
196.367
 11
5.1754
 21
196.653
  0
LINE
  8
0
 10
5.1754
 20
196.653
 11
5.11891
 21
196.949
  0
LINE
  8
0
 10
5.11891
 20
196.949
 11
5.09999
 21
197.25
  0
LINE
  8
0
 10
5.09999
 20
197.25
 11
5.11891
 21
197.551
  0
LINE
  8
0
 10
5.11891
 20
197.551
 11
5.1754
 21
197.847
  0
LINE
  8
0
 10
5.1754
 20
197.847
 11
5.26852
 21
198.133
  0
LINE
  8
0
 10
5.26852
 20
198.133
 11
5.39685
 21
198.406
  0
LINE
  8
0
 10
5.39685
 20
198.406
 11
5.55835
 21
198.661
  0
LINE
  8
0
 10
5.55835
 20
198.661
 11
5.75047
 21
198.893
  0
LINE
  8
0
 10
5.75047
 20
198.893
 11
5.97017
 21
199.099
  0
LINE
  8
0
 10
5.97017
 20
199.099
 11
6.214
 21
199.276
  0
LINE
  8
0
 10
6.214
 20
199.276
 11
6.47812
 21
199.422
  0
LINE
  8
0
 10
6.47812
 20
199.422
 11
6.75835
 21
199.533
  0
LINE
  8
0
 10
6.75835
 20
199.533
 11
7.05028
 21
199.607
  0
LINE
  8
0
 10
7.05028
 20
199.607
 11
7.34929
 21
199.645
  0
LINE
  8
0
 10
7.34929
 20
199.645
 11
7.6507
 21
199.645
  0
LINE
  8
0
 10
7.6507
 20
199.645
 11
7.94971
 21
199.607
  0
LINE
  8
0
 10
7.94971
 20
199.607
 11
8.24164
 21
199.533
  0
LINE
  8
0
 10
8.24164
 20
199.533
 11
8.52187
 21
199.422
  0
LINE
  8
0
 10
8.52187
 20
199.422
 11
8.78598
 21
199.276
  0
LINE
  8
0
 10
8.78598
 20
199.276
 11
9.02982
 21
199.099
  0
LINE
  8
0
 10
9.02982
 20
199.099
 11
9.24951
 21
198.893
  0
LINE
  8
0
 10
9.24951
 20
198.893
 11
9.44164
 21
198.661
  0
LINE
  8
0
 10
9.44164
 20
198.661
 11
9.60313
 21
198.406
  0
LINE
  8
0
 10
9.60313
 20
198.406
 11
9.73146
 21
198.133
  0
LINE
  8
0
 10
9.73146
 20
198.133
 11
9.82458
 21
197.847
  0
LINE
  8
0
 10
9.82458
 20
197.847
 11
9.88107
 21
197.551
  0
LINE
  8
0
 10
9.88107
 20
197.551
 11
9.89999
 21
197.25
  0
LINE
  8
0
 10
9.89999
 20
197.25
 11
9.88107
 21
196.949
  0
LINE
  8
0
 10
9.88107
 20
196.949
 11
9.82458
 21
196.653
  0
LINE
  8
0
 10
9.82458
 20
196.653
 11
9.73146
 21
196.367
  0
LINE
  8
0
 10
9.73146
 20
196.367
 11
9.60313
 21
196.094
  0
LINE
  8
0
 10
9.60313
 20
196.094
 11
9.44164
 21
195.839
  0
LINE
  8
0
 10
9.44164
 20
195.839
 11
9.24951
 21
195.607
  0
LINE
  8
0
 10
9.24951
 20
195.607
 11
9.02982
 21
195.401
  0
LINE
  8
0
 10
9.02982
 20
195.401
 11
8.78598
 21
195.224
  0
LINE
  8
0
 10
8.78598
 20
195.224
 11
8.52187
 21
195.078
  0
LINE
  8
0
 10
8.52187
 20
195.078
 11
8.24164
 21
194.967
  0
LINE
  8
0
 10
8.24164
 20
194.967
 11
7.94971
 21
194.893
  0
LINE
  8
0
 10
7.94971
 20
194.893
 11
7.6507
 21
194.855
  0
LINE
  8
0
 10
7.6507
 20
194.855
 11
7.34929
 21
194.855
  0
LINE
  8
0
 10
-7.6507
 20
172.355
 11
-7.94971
 21
172.393
  0
LINE
  8
0
 10
-7.94971
 20
172.393
 11
-8.24164
 21
172.467
  0
LINE
  8
0
 10
-8.24164
 20
172.467
 11
-8.52187
 21
172.578
  0
LINE
  8
0
 10
-8.52187
 20
172.578
 11
-8.78598
 21
172.724
  0
LINE
  8
0
 10
-8.78598
 20
172.724
 11
-9.02982
 21
172.901
  0
LINE
  8
0
 10
-9.02982
 20
172.901
 11
-9.24951
 21
173.107
  0
LINE
  8
0
 10
-9.24951
 20
173.107
 11
-9.44164
 21
173.339
  0
LINE
  8
0
 10
-9.44164
 20
173.339
 11
-9.60313
 21
173.594
  0
LINE
  8
0
 10
-9.60313
 20
173.594
 11
-9.73146
 21
173.867
  0
LINE
  8
0
 10
-9.73146
 20
173.867
 11
-9.82458
 21
174.153
  0
LINE
  8
0
 10
-9.82458
 20
174.153
 11
-9.88107
 21
174.449
  0
LINE
  8
0
 10
-9.88107
 20
174.449
 11
-9.89999
 21
174.75
  0
LINE
  8
0
 10
-9.89999
 20
174.75
 11
-9.88107
 21
175.051
  0
LINE
  8
0
 10
-9.88107
 20
175.051
 11
-9.82458
 21
175.347
  0
LINE
  8
0
 10
-9.82458
 20
175.347
 11
-9.73146
 21
175.633
  0
LINE
  8
0
 10
-9.73146
 20
175.633
 11
-9.60313
 21
175.906
  0
LINE
  8
0
 10
-9.60313
 20
175.906
 11
-9.44164
 21
176.161
  0
LINE
  8
0
 10
-9.44164
 20
176.161
 11
-9.24951
 21
176.393
  0
LINE
  8
0
 10
-9.24951
 20
176.393
 11
-9.02982
 21
176.599
  0
LINE
  8
0
 10
-9.02982
 20
176.599
 11
-8.78598
 21
176.776
  0
LINE
  8
0
 10
-8.78598
 20
176.776
 11
-8.52187
 21
176.922
  0
LINE
  8
0
 10
-8.52187
 20
176.922
 11
-8.24164
 21
177.033
  0
LINE
  8
0
 10
-8.24164
 20
177.033
 11
-7.94971
 21
177.107
  0
LINE
  8
0
 10
-7.94971
 20
177.107
 11
-7.6507
 21
177.145
  0
LINE
  8
0
 10
-7.6507
 20
177.145
 11
-7.34929
 21
177.145
  0
LINE
  8
0
 10
-7.34929
 20
177.145
 11
-7.05028
 21
177.107
  0
LINE
  8
0
 10
-7.05028
 20
177.107
 11
-6.75835
 21
177.033
  0
LINE
  8
0
 10
-6.75835
 20
177.033
 11
-6.47812
 21
176.922
  0
LINE
  8
0
 10
-6.47812
 20
176.922
 11
-6.214
 21
176.776
  0
LINE
  8
0
 10
-6.214
 20
176.776
 11
-5.97017
 21
176.599
  0
LINE
  8
0
 10
-5.97017
 20
176.599
 11
-5.75047
 21
176.393
  0
LINE
  8
0
 10
-5.75047
 20
176.393
 11
-5.55835
 21
176.161
  0
LINE
  8
0
 10
-5.55835
 20
176.161
 11
-5.39685
 21
175.906
  0
LINE
  8
0
 10
-5.39685
 20
175.906
 11
-5.26852
 21
175.633
  0
LINE
  8
0
 10
-5.26852
 20
175.633
 11
-5.1754
 21
175.347
  0
LINE
  8
0
 10
-5.1754
 20
175.347
 11
-5.11891
 21
175.051
  0
LINE
  8
0
 10
-5.11891
 20
175.051
 11
-5.09999
 21
174.75
  0
LINE
  8
0
 10
-5.09999
 20
174.75
 11
-5.11891
 21
174.449
  0
LINE
  8
0
 10
-5.11891
 20
174.449
 11
-5.1754
 21
174.153
  0
LINE
  8
0
 10
-5.1754
 20
174.153
 11
-5.26852
 21
173.867
  0
LINE
  8
0
 10
-5.26852
 20
173.867
 11
-5.39685
 21
173.594
  0
LINE
  8
0
 10
-5.39685
 20
173.594
 11
-5.55835
 21
173.339
  0
LINE
  8
0
 10
-5.55835
 20
173.339
 11
-5.75047
 21
173.107
  0
LINE
  8
0
 10
-5.75047
 20
173.107
 11
-5.97017
 21
172.901
  0
LINE
  8
0
 10
-5.97017
 20
172.901
 11
-6.214
 21
172.724
  0
LINE
  8
0
 10
-6.214
 20
172.724
 11
-6.47812
 21
172.578
  0
LINE
  8
0
 10
-6.47812
 20
172.578
 11
-6.75835
 21
172.467
  0
LINE
  8
0
 10
-6.75835
 20
172.467
 11
-7.05028
 21
172.393
  0
LINE
  8
0
 10
-7.05028
 20
172.393
 11
-7.34929
 21
172.355
  0
LINE
  8
0
 10
-7.34929
 20
172.355
 11
-7.6507
 21
172.355
  0
LINE
  8
0
 10
7.34929
 20
172.355
 11
7.05028
 21
172.393
  0
LINE
  8
0
 10
7.05028
 20
172.393
 11
6.75835
 21
172.467
  0
LINE
  8
0
 10
6.75835
 20
172.467
 11
6.47812
 21
172.578
  0
LINE
  8
0
 10
6.47812
 20
172.578
 11
6.214
 21
172.724
  0
LINE
  8
0
 10
6.214
 20
172.724
 11
5.97017
 21
172.901
  0
LINE
  8
0
 10
5.97017
 20
172.901
 11
5.75047
 21
173.107
  0
LINE
  8
0
 10
5.75047
 20
173.107
 11
5.55835
 21
173.339
  0
LINE
  8
0
 10
5.55835
 20
173.339
 11
5.39685
 21
173.594
  0
LINE
  8
0
 10
5.39685
 20
173.594
 11
5.26852
 21
173.867
  0
LINE
  8
0
 10
5.26852
 20
173.867
 11
5.1754
 21
174.153
  0
LINE
  8
0
 10
5.1754
 20
174.153
 11
5.11891
 21
174.449
  0
LINE
  8
0
 10
5.11891
 20
174.449
 11
5.09999
 21
174.75
  0
LINE
  8
0
 10
5.09999
 20
174.75
 11
5.11891
 21
175.051
  0
LINE
  8
0
 10
5.11891
 20
175.051
 11
5.1754
 21
175.347
  0
LINE
  8
0
 10
5.1754
 20
175.347
 11
5.26852
 21
175.633
  0
LINE
  8
0
 10
5.26852
 20
175.633
 11
5.39685
 21
175.906
  0
LINE
  8
0
 10
5.39685
 20
175.906
 11
5.55835
 21
176.161
  0
LINE
  8
0
 10
5.55835
 20
176.161
 11
5.75047
 21
176.393
  0
LINE
  8
0
 10
5.75047
 20
176.393
 11
5.97017
 21
176.599
  0
LINE
  8
0
 10
5.97017
 20
176.599
 11
6.214
 21
176.776
  0
LINE
  8
0
 10
6.214
 20
176.776
 11
6.47812
 21
176.922
  0
LINE
  8
0
 10
6.47812
 20
176.922
 11
6.75835
 21
177.033
  0
LINE
  8
0
 10
6.75835
 20
177.033
 11
7.05028
 21
177.107
  0
LINE
  8
0
 10
7.05028
 20
177.107
 11
7.34929
 21
177.145
  0
LINE
  8
0
 10
7.34929
 20
177.145
 11
7.6507
 21
177.145
  0
LINE
  8
0
 10
7.6507
 20
177.145
 11
7.94971
 21
177.107
  0
LINE
  8
0
 10
7.94971
 20
177.107
 11
8.24164
 21
177.033
  0
LINE
  8
0
 10
8.24164
 20
177.033
 11
8.52187
 21
176.922
  0
LINE
  8
0
 10
8.52187
 20
176.922
 11
8.78598
 21
176.776
  0
LINE
  8
0
 10
8.78598
 20
176.776
 11
9.02982
 21
176.599
  0
LINE
  8
0
 10
9.02982
 20
176.599
 11
9.24951
 21
176.393
  0
LINE
  8
0
 10
9.24951
 20
176.393
 11
9.44164
 21
176.161
  0
LINE
  8
0
 10
9.44164
 20
176.161
 11
9.60313
 21
175.906
  0
LINE
  8
0
 10
9.60313
 20
175.906
 11
9.73146
 21
175.633
  0
LINE
  8
0
 10
9.73146
 20
175.633
 11
9.82458
 21
175.347
  0
LINE
  8
0
 10
9.82458
 20
175.347
 11
9.88107
 21
175.051
  0
LINE
  8
0
 10
9.88107
 20
175.051
 11
9.89999
 21
174.75
  0
LINE
  8
0
 10
9.89999
 20
174.75
 11
9.88107
 21
174.449
  0
LINE
  8
0
 10
9.88107
 20
174.449
 11
9.82458
 21
174.153
  0
LINE
  8
0
 10
9.82458
 20
174.153
 11
9.73146
 21
173.867
  0
LINE
  8
0
 10
9.73146
 20
173.867
 11
9.60313
 21
173.594
  0
LINE
  8
0
 10
9.60313
 20
173.594
 11
9.44164
 21
173.339
  0
LINE
  8
0
 10
9.44164
 20
173.339
 11
9.24951
 21
173.107
  0
LINE
  8
0
 10
9.24951
 20
173.107
 11
9.02982
 21
172.901
  0
LINE
  8
0
 10
9.02982
 20
172.901
 11
8.78598
 21
172.724
  0
LINE
  8
0
 10
8.78598
 20
172.724
 11
8.52187
 21
172.578
  0
LINE
  8
0
 10
8.52187
 20
172.578
 11
8.24164
 21
172.467
  0
LINE
  8
0
 10
8.24164
 20
172.467
 11
7.94971
 21
172.393
  0
LINE
  8
0
 10
7.94971
 20
172.393
 11
7.6507
 21
172.355
  0
LINE
  8
0
 10
7.6507
 20
172.355
 11
7.34929
 21
172.355
  0
ENDSEC
  0
SECTION
  2
OBJECTS
  0
DICTIONARY
  0
ENDSEC
  0
EOF
