<?xml version="1.0" standalone="no"?>
<!DOCTYPE svg PUBLIC "-//W3C//DTD SVG 1.1//EN" "http://www.w3.org/Graphics/SVG/1.1/DTD/svg11.dtd">
<svg width="30mm" height="147mm" viewBox="-15 -249 30 147" xmlns="http://www.w3.org/2000/svg" version="1.1">
<title>OpenSCAD Model</title>
<path d="
M 10.4369,-219.589 L 11.0451,-219.745 L 11.6289,-219.976 L 12.1791,-220.278 L 12.6871,-220.647 L 13.1448,-221.077
 L 13.5451,-221.561 L 13.8815,-222.091 L 14.1489,-222.659 L 14.3429,-223.257 L 14.4606,-223.873 L 14.5,-224.5
 L 14.5,-243.5 L 14.4606,-244.127 L 14.3429,-244.743 L 14.1489,-245.341 L 13.8815,-245.909 L 13.5451,-246.439
 L 13.1448,-246.923 L 12.6871,-247.353 L 12.1791,-247.722 L 11.6289,-248.024 L 11.0451,-248.255 L 10.4369,-248.411
 L 9.81395,-248.49 L -9.81395,-248.49 L -10.4369,-248.411 L -11.0451,-248.255 L -11.6289,-248.024 L -12.1791,-247.722
 L -12.6871,-247.353 L -13.1448,-246.923 L -13.5451,-246.439 L -13.8815,-245.909 L -14.1489,-245.341 L -14.3429,-244.743
 L -14.4606,-244.127 L -14.5,-243.5 L -14.5,-224.5 L -14.4606,-223.873 L -14.3429,-223.257 L -14.1489,-222.659
 L -13.8815,-222.091 L -13.5451,-221.561 L -13.1448,-221.077 L -12.6871,-220.647 L -12.1791,-220.278 L -11.6289,-219.976
 L -11.0451,-219.745 L -10.4369,-219.589 L -9.81395,-219.51 L 9.81395,-219.51 z
M -9.75116,-220.508 L -10.2495,-220.571 L -10.7361,-220.696 L -11.2031,-220.881 L -11.6433,-221.123 L -12.0497,-221.418
 L -12.4159,-221.762 L -12.7361,-222.149 L -13.0052,-222.573 L -13.2191,-223.028 L -13.3743,-223.505 L -13.4684,-223.999
 L -13.5,-224.5 L -13.5,-243.5 L -13.4684,-244.001 L -13.3743,-244.495 L -13.2191,-244.972 L -13.0052,-245.427
 L -12.7361,-245.851 L -12.4159,-246.238 L -12.0497,-246.582 L -11.6433,-246.877 L -11.2031,-247.119 L -10.7361,-247.304
 L -10.2495,-247.429 L -9.75116,-247.492 L 9.75116,-247.492 L 10.2495,-247.429 L 10.7361,-247.304 L 11.2031,-247.119
 L 11.6433,-246.877 L 12.0497,-246.582 L 12.4159,-246.238 L 12.7361,-245.851 L 13.0052,-245.427 L 13.2191,-244.972
 L 13.3743,-244.495 L 13.4684,-244.001 L 13.5,-243.5 L 13.5,-224.5 L 13.4684,-223.999 L 13.3743,-223.505
 L 13.2191,-223.028 L 13.0052,-222.573 L 12.7361,-222.149 L 12.4159,-221.762 L 12.0497,-221.418 L 11.6433,-221.123
 L 11.2031,-220.881 L 10.7361,-220.696 L 10.2495,-220.571 L 9.75116,-220.508 z
M 10.4369,-180.589 L 11.0451,-180.745 L 11.6289,-180.976 L 12.1791,-181.278 L 12.6871,-181.647 L 13.1448,-182.077
 L 13.5451,-182.561 L 13.8815,-183.091 L 14.1489,-183.659 L 14.3429,-184.257 L 14.4606,-184.873 L 14.5,-185.5
 L 14.5,-204.5 L 14.4606,-205.127 L 14.3429,-205.743 L 14.1489,-206.341 L 13.8815,-206.909 L 13.5451,-207.439
 L 13.1448,-207.923 L 12.6871,-208.353 L 12.1791,-208.722 L 11.6289,-209.024 L 11.0451,-209.255 L 10.4369,-209.411
 L 9.81395,-209.49 L -9.81395,-209.49 L -10.4369,-209.411 L -11.0451,-209.255 L -11.6289,-209.024 L -12.1791,-208.722
 L -12.6871,-208.353 L -13.1448,-207.923 L -13.5451,-207.439 L -13.8815,-206.909 L -14.1489,-206.341 L -14.3429,-205.743
 L -14.4606,-205.127 L -14.5,-204.5 L -14.5,-185.5 L -14.4606,-184.873 L -14.3429,-184.257 L -14.1489,-183.659
 L -13.8815,-183.091 L -13.5451,-182.561 L -13.1448,-182.077 L -12.6871,-181.647 L -12.1791,-181.278 L -11.6289,-180.976
 L -11.0451,-180.745 L -10.4369,-180.589 L -9.81395,-180.51 L 9.81395,-180.51 z
M -9.74316,-181.635 L -10.2256,-181.696 L -10.6967,-181.817 L -11.1489,-181.996 L -11.5751,-182.23 L -11.9685,-182.516
 L -12.323,-182.849 L -12.633,-183.224 L -12.8936,-183.634 L -13.1007,-184.074 L -13.251,-184.537 L -13.3421,-185.015
 L -13.3726,-185.5 L -13.3726,-204.5 L -13.3421,-204.985 L -13.251,-205.463 L -13.1007,-205.926 L -12.8936,-206.366
 L -12.633,-206.776 L -12.323,-207.151 L -11.9685,-207.484 L -11.5751,-207.77 L -11.1489,-208.004 L -10.6967,-208.183
 L -10.2256,-208.304 L -9.74316,-208.365 L 9.74316,-208.365 L 10.2256,-208.304 L 10.6967,-208.183 L 11.1489,-208.004
 L 11.5751,-207.77 L 11.9685,-207.484 L 12.323,-207.151 L 12.633,-206.776 L 12.8936,-206.366 L 13.1007,-205.926
 L 13.251,-205.463 L 13.3421,-204.985 L 13.3726,-204.5 L 13.3726,-185.5 L 13.3421,-185.015 L 13.251,-184.537
 L 13.1007,-184.074 L 12.8936,-183.634 L 12.633,-183.224 L 12.323,-182.849 L 11.9685,-182.516 L 11.5751,-182.23
 L 11.1489,-181.996 L 10.6967,-181.817 L 10.2256,-181.696 L 9.74316,-181.635 z
M 10.4369,-141.589 L 11.0451,-141.745 L 11.6289,-141.976 L 12.1791,-142.278 L 12.6871,-142.647 L 13.1448,-143.077
 L 13.5451,-143.561 L 13.8815,-144.091 L 14.1489,-144.659 L 14.3429,-145.257 L 14.4606,-145.873 L 14.5,-146.5
 L 14.5,-165.5 L 14.4606,-166.127 L 14.3429,-166.743 L 14.1489,-167.341 L 13.8815,-167.909 L 13.5451,-168.439
 L 13.1448,-168.923 L 12.6871,-169.353 L 12.1791,-169.722 L 11.6289,-170.024 L 11.0451,-170.255 L 10.4369,-170.411
 L 9.81395,-170.49 L -9.81395,-170.49 L -10.4369,-170.411 L -11.0451,-170.255 L -11.6289,-170.024 L -12.1791,-169.722
 L -12.6871,-169.353 L -13.1448,-168.923 L -13.5451,-168.439 L -13.8815,-167.909 L -14.1489,-167.341 L -14.3429,-166.743
 L -14.4606,-166.127 L -14.5,-165.5 L -14.5,-146.5 L -14.4606,-145.873 L -14.3429,-145.257 L -14.1489,-144.659
 L -13.8815,-144.091 L -13.5451,-143.561 L -13.1448,-143.077 L -12.6871,-142.647 L -12.1791,-142.278 L -11.6289,-141.976
 L -11.0451,-141.745 L -10.4369,-141.589 L -9.81395,-141.51 L 9.81395,-141.51 z
M 10.4369,-102.589 L 11.0451,-102.745 L 11.6289,-102.976 L 12.1791,-103.278 L 12.6871,-103.647 L 13.1448,-104.077
 L 13.5451,-104.561 L 13.8815,-105.091 L 14.1489,-105.659 L 14.3429,-106.257 L 14.4606,-106.873 L 14.5,-107.5
 L 14.5,-126.5 L 14.4606,-127.127 L 14.3429,-127.743 L 14.1489,-128.341 L 13.8815,-128.909 L 13.5451,-129.439
 L 13.1448,-129.923 L 12.6871,-130.353 L 12.1791,-130.722 L 11.6289,-131.024 L 11.0451,-131.255 L 10.4369,-131.411
 L 9.81395,-131.49 L -9.81395,-131.49 L -10.4369,-131.411 L -11.0451,-131.255 L -11.6289,-131.024 L -12.1791,-130.722
 L -12.6871,-130.353 L -13.1448,-129.923 L -13.5451,-129.439 L -13.8815,-128.909 L -14.1489,-128.341 L -14.3429,-127.743
 L -14.4606,-127.127 L -14.5,-126.5 L -14.5,-107.5 L -14.4606,-106.873 L -14.3429,-106.257 L -14.1489,-105.659
 L -13.8815,-105.091 L -13.5451,-104.561 L -13.1448,-104.077 L -12.6871,-103.647 L -12.1791,-103.278 L -11.6289,-102.976
 L -11.0451,-102.745 L -10.4369,-102.589 L -9.81395,-102.51 L 9.81395,-102.51 z
M 7.34929,-122.105 L 7.05028,-122.143 L 6.75835,-122.217 L 6.47812,-122.328 L 6.214,-122.474 L 5.97017,-122.651
 L 5.75047,-122.857 L 5.55835,-123.089 L 5.39685,-123.344 L 5.26852,-123.617 L 5.1754,-123.903 L 5.11891,-124.199
 L 5.09999,-124.5 L 5.11891,-124.801 L 5.1754,-125.097 L 5.26852,-125.383 L 5.39685,-125.656 L 5.55835,-125.911
 L 5.75047,-126.143 L 5.97017,-126.349 L 6.214,-126.526 L 6.47812,-126.672 L 6.75835,-126.783 L 7.05028,-126.857
 L 7.34929,-126.895 L 7.6507,-126.895 L 7.94971,-126.857 L 8.24164,-126.783 L 8.52187,-126.672 L 8.78598,-126.526
 L 9.02982,-126.349 L 9.24951,-126.143 L 9.44164,-125.911 L 9.60313,-125.656 L 9.73146,-125.383 L 9.82458,-125.097
 L 9.88107,-124.801 L 9.89999,-124.5 L 9.88107,-124.199 L 9.82458,-123.903 L 9.73146,-123.617 L 9.60313,-123.344
 L 9.44164,-123.089 L 9.24951,-122.857 L 9.02982,-122.651 L 8.78598,-122.474 L 8.52187,-122.328 L 8.24164,-122.217
 L 7.94971,-122.143 L 7.6507,-122.105 z
M -7.6507,-122.105 L -7.94971,-122.143 L -8.24164,-122.217 L -8.52187,-122.328 L -8.78598,-122.474 L -9.02982,-122.651
 L -9.24951,-122.857 L -9.44164,-123.089 L -9.60313,-123.344 L -9.73146,-123.617 L -9.82458,-123.903 L -9.88107,-124.199
 L -9.89999,-124.5 L -9.88107,-124.801 L -9.82458,-125.097 L -9.73146,-125.383 L -9.60313,-125.656 L -9.44164,-125.911
 L -9.24951,-126.143 L -9.02982,-126.349 L -8.78598,-126.526 L -8.52187,-126.672 L -8.24164,-126.783 L -7.94971,-126.857
 L -7.6507,-126.895 L -7.34929,-126.895 L -7.05028,-126.857 L -6.75835,-126.783 L -6.47812,-126.672 L -6.214,-126.526
 L -5.97017,-126.349 L -5.75047,-126.143 L -5.55835,-125.911 L -5.39685,-125.656 L -5.26852,-125.383 L -5.1754,-125.097
 L -5.11891,-124.801 L -5.09999,-124.5 L -5.11891,-124.199 L -5.1754,-123.903 L -5.26852,-123.617 L -5.39685,-123.344
 L -5.55835,-123.089 L -5.75047,-122.857 L -5.97017,-122.651 L -6.214,-122.474 L -6.47812,-122.328 L -6.75835,-122.217
 L -7.05028,-122.143 L -7.34929,-122.105 z
M -7.6507,-107.105 L -7.94971,-107.143 L -8.24164,-107.217 L -8.52187,-107.328 L -8.78598,-107.474 L -9.02982,-107.651
 L -9.24951,-107.857 L -9.44164,-108.089 L -9.60313,-108.344 L -9.73146,-108.617 L -9.82458,-108.903 L -9.88107,-109.199
 L -9.89999,-109.5 L -9.88107,-109.801 L -9.82458,-110.097 L -9.73146,-110.383 L -9.60313,-110.656 L -9.44164,-110.911
 L -9.24951,-111.143 L -9.02982,-111.349 L -8.78598,-111.526 L -8.52187,-111.672 L -8.24164,-111.783 L -7.94971,-111.857
 L -7.6507,-111.895 L -7.34929,-111.895 L -7.05028,-111.857 L -6.75835,-111.783 L -6.47812,-111.672 L -6.214,-111.526
 L -5.97017,-111.349 L -5.75047,-111.143 L -5.55835,-110.911 L -5.39685,-110.656 L -5.26852,-110.383 L -5.1754,-110.097
 L -5.11891,-109.801 L -5.09999,-109.5 L -5.11891,-109.199 L -5.1754,-108.903 L -5.26852,-108.617 L -5.39685,-108.344
 L -5.55835,-108.089 L -5.75047,-107.857 L -5.97017,-107.651 L -6.214,-107.474 L -6.47812,-107.328 L -6.75835,-107.217
 L -7.05028,-107.143 L -7.34929,-107.105 z
M 7.34929,-107.105 L 7.05028,-107.143 L 6.75835,-107.217 L 6.47812,-107.328 L 6.214,-107.474 L 5.97017,-107.651
 L 5.75047,-107.857 L 5.55835,-108.089 L 5.39685,-108.344 L 5.26852,-108.617 L 5.1754,-108.903 L 5.11891,-109.199
 L 5.09999,-109.5 L 5.11891,-109.801 L 5.1754,-110.097 L 5.26852,-110.383 L 5.39685,-110.656 L 5.55835,-110.911
 L 5.75047,-111.143 L 5.97017,-111.349 L 6.214,-111.526 L 6.47812,-111.672 L 6.75835,-111.783 L 7.05028,-111.857
 L 7.34929,-111.895 L 7.6507,-111.895 L 7.94971,-111.857 L 8.24164,-111.783 L 8.52187,-111.672 L 8.78598,-111.526
 L 9.02982,-111.349 L 9.24951,-111.143 L 9.44164,-110.911 L 9.60313,-110.656 L 9.73146,-110.383 L 9.82458,-110.097
 L 9.88107,-109.801 L 9.89999,-109.5 L 9.88107,-109.199 L 9.82458,-108.903 L 9.73146,-108.617 L 9.60313,-108.344
 L 9.44164,-108.089 L 9.24951,-107.857 L 9.02982,-107.651 L 8.78598,-107.474 L 8.52187,-107.328 L 8.24164,-107.217
 L 7.94971,-107.143 L 7.6507,-107.105 z
" stroke="black" fill="lightgray" stroke-width="0.5"/>
</svg>
