<?xml version="1.0" standalone="no"?>
<!DOCTYPE svg PUBLIC "-//W3C//DTD SVG 1.1//EN" "http://www.w3.org/Graphics/SVG/1.1/DTD/svg11.dtd">
<svg width="14mm" height="31mm" viewBox="-7 -58 14 31" xmlns="http://www.w3.org/2000/svg" version="1.1">
<title>OpenSCAD Model</title>
<path d="
M 2.9369,-44.0886 L 3.54507,-44.2447 L 4.12889,-44.4759 L 4.67912,-44.7784 L 5.18712,-45.1474 L 5.64484,-45.5773
 L 6.04507,-46.0611 L 6.38153,-46.5912 L 6.64888,-47.1594 L 6.84291,-47.7566 L 6.96057,-48.3733 L 7,-49
 L 7,-53 L 6.96057,-53.6267 L 6.84291,-54.2434 L 6.64888,-54.8406 L 6.38153,-55.4088 L 6.04507,-55.9389
 L 5.64484,-56.4227 L 5.18712,-56.8526 L 4.67912,-57.2216 L 4.12889,-57.5241 L 3.54507,-57.7553 L 2.9369,-57.9114
 L 2.31395,-57.9901 L -2.31395,-57.9901 L -2.9369,-57.9114 L -3.54507,-57.7553 L -4.12889,-57.5241 L -4.67912,-57.2216
 L -5.18712,-56.8526 L -5.64484,-56.4227 L -6.04507,-55.9389 L -6.38153,-55.4088 L -6.64888,-54.8406 L -6.84291,-54.2434
 L -6.96057,-53.6267 L -7,-53 L -7,-49 L -6.96057,-48.3733 L -6.84291,-47.7566 L -6.64888,-47.1594
 L -6.38153,-46.5912 L -6.04507,-46.0611 L -5.64484,-45.5773 L -5.18712,-45.1474 L -4.67912,-44.7784 L -4.12889,-44.4759
 L -3.54507,-44.2447 L -2.9369,-44.0886 L -2.31395,-44.0099 L 2.31395,-44.0099 z
M -0.18837,-48.0059 L -0.562134,-48.0531 L -0.927048,-48.1468 L -1.27733,-48.2855 L -1.60747,-48.467 L -1.91226,-48.6885
 L -2.1869,-48.9464 L -2.42705,-49.2366 L -2.62891,-49.5547 L -2.78932,-49.8956 L -2.90575,-50.2539 L -2.97633,-50.624
 L -3,-51 L -2.97633,-51.376 L -2.90575,-51.7461 L -2.78932,-52.1044 L -2.62891,-52.4453 L -2.42705,-52.7634
 L -2.1869,-53.0536 L -1.91226,-53.3115 L -1.60747,-53.533 L -1.27733,-53.7145 L -0.927048,-53.8532 L -0.562134,-53.9469
 L -0.18837,-53.9941 L 0.18837,-53.9941 L 0.562134,-53.9469 L 0.927048,-53.8532 L 1.27733,-53.7145 L 1.60747,-53.533
 L 1.91226,-53.3115 L 2.1869,-53.0536 L 2.42705,-52.7634 L 2.62891,-52.4453 L 2.78932,-52.1044 L 2.90575,-51.7461
 L 2.97633,-51.376 L 3,-51 L 2.97633,-50.624 L 2.90575,-50.2539 L 2.78932,-49.8956 L 2.62891,-49.5547
 L 2.42705,-49.2366 L 2.1869,-48.9464 L 1.91226,-48.6885 L 1.60747,-48.467 L 1.27733,-48.2855 L 0.927048,-48.1468
 L 0.562134,-48.0531 L 0.18837,-48.0059 z
M 2.9369,-27.0886 L 3.54507,-27.2447 L 4.12889,-27.4759 L 4.67912,-27.7784 L 5.18712,-28.1474 L 5.64484,-28.5773
 L 6.04507,-29.0611 L 6.38153,-29.5912 L 6.64888,-30.1594 L 6.84291,-30.7566 L 6.96057,-31.3733 L 7,-32
 L 7,-36 L 6.96057,-36.6267 L 6.84291,-37.2434 L 6.64888,-37.8406 L 6.38153,-38.4088 L 6.04507,-38.9389
 L 5.64484,-39.4227 L 5.18712,-39.8526 L 4.67912,-40.2216 L 4.12889,-40.5241 L 3.54507,-40.7553 L 2.9369,-40.9114
 L 2.31395,-40.9901 L -2.31395,-40.9901 L -2.9369,-40.9114 L -3.54507,-40.7553 L -4.12889,-40.5241 L -4.67912,-40.2216
 L -5.18712,-39.8526 L -5.64484,-39.4227 L -6.04507,-38.9389 L -6.38153,-38.4088 L -6.64888,-37.8406 L -6.84291,-37.2434
 L -6.96057,-36.6267 L -7,-36 L -7,-32 L -6.96057,-31.3733 L -6.84291,-30.7566 L -6.64888,-30.1594
 L -6.38153,-29.5912 L -6.04507,-29.0611 L -5.64484,-28.5773 L -5.18712,-28.1474 L -4.67912,-27.7784 L -4.12889,-27.4759
 L -3.54507,-27.2447 L -2.9369,-27.0886 L -2.31395,-27.0099 L 2.31395,-27.0099 z
M -0.18837,-31.0059 L -0.562134,-31.0531 L -0.927048,-31.1468 L -1.27733,-31.2855 L -1.60747,-31.467 L -1.91226,-31.6885
 L -2.1869,-31.9464 L -2.42705,-32.2366 L -2.62891,-32.5547 L -2.78932,-32.8956 L -2.90575,-33.2539 L -2.97633,-33.624
 L -3,-34 L -2.97633,-34.376 L -2.90575,-34.7461 L -2.78932,-35.1044 L -2.62891,-35.4453 L -2.42705,-35.7634
 L -2.1869,-36.0536 L -1.91226,-36.3115 L -1.60747,-36.533 L -1.27733,-36.7145 L -0.927048,-36.8532 L -0.562134,-36.9469
 L -0.18837,-36.9941 L 0.18837,-36.9941 L 0.562134,-36.9469 L 0.927048,-36.8532 L 1.27733,-36.7145 L 1.60747,-36.533
 L 1.91226,-36.3115 L 2.1869,-36.0536 L 2.42705,-35.7634 L 2.62891,-35.4453 L 2.78932,-35.1044 L 2.90575,-34.7461
 L 2.97633,-34.376 L 3,-34 L 2.97633,-33.624 L 2.90575,-33.2539 L 2.78932,-32.8956 L 2.62891,-32.5547
 L 2.42705,-32.2366 L 2.1869,-31.9464 L 1.91226,-31.6885 L 1.60747,-31.467 L 1.27733,-31.2855 L 0.927048,-31.1468
 L 0.562134,-31.0531 L 0.18837,-31.0059 z
" stroke="black" fill="lightgray" stroke-width="0.5"/>
</svg>
