<?xml version="1.0" standalone="no"?>
<!DOCTYPE svg PUBLIC "-//W3C//DTD SVG 1.1//EN" "http://www.w3.org/Graphics/SVG/1.1/DTD/svg11.dtd">
<svg width="46mm" height="267mm" viewBox="-24 -444 46 267" xmlns="http://www.w3.org/2000/svg" version="1.1">
<title>OpenSCAD Model</title>
<path d="
M -21,-386.507 L -20.6448,-386.077 L -20.1871,-385.647 L -19.6791,-385.278 L -19.1289,-384.976 L -18.5451,-384.745
 L -17.9369,-384.589 L -17.3139,-384.51 L 17.3139,-384.51 L 17.9369,-384.589 L 18.5451,-384.745 L 19.1289,-384.976
 L 19.6791,-385.278 L 20.1871,-385.647 L 20.6448,-386.077 L 21.0451,-386.561 L 21.3815,-387.091 L 21.6489,-387.659
 L 21.8429,-388.257 L 21.9606,-388.873 L 22,-389.5 L 22,-438.5 L 21.9606,-439.127 L 21.8429,-439.743
 L 21.6489,-440.341 L 21.3815,-440.909 L 21.0451,-441.439 L 20.6448,-441.923 L 20.1871,-442.353 L 19.6791,-442.722
 L 19.1289,-443.024 L 18.5451,-443.255 L 17.9369,-443.411 L 17.3139,-443.49 L -17.3139,-443.49 L -17.9369,-443.411
 L -18.5451,-443.255 L -19.1289,-443.024 L -19.6791,-442.722 L -20.1871,-442.353 L -20.6448,-441.923 L -21,-441.493
 L -21,-443.99 L -24,-443.99 L -24,-384.01 L -21,-384.01 z
M -17.2512,-385.508 L -17.7495,-385.571 L -18.2361,-385.696 L -18.7031,-385.881 L -19.1433,-386.123 L -19.5497,-386.418
 L -19.9159,-386.762 L -20.2361,-387.149 L -20.5052,-387.573 L -20.7191,-388.028 L -20.8743,-388.505 L -20.9684,-388.999
 L -21,-389.5 L -21,-438.5 L -20.9684,-439.001 L -20.8743,-439.495 L -20.7191,-439.972 L -20.5052,-440.427
 L -20.2361,-440.851 L -19.9159,-441.238 L -19.5497,-441.582 L -19.1433,-441.877 L -18.7031,-442.119 L -18.2361,-442.304
 L -17.7495,-442.429 L -17.2512,-442.492 L 17.2512,-442.492 L 17.7495,-442.429 L 18.2361,-442.304 L 18.7031,-442.119
 L 19.1433,-441.877 L 19.5497,-441.582 L 19.9159,-441.238 L 20.2361,-440.851 L 20.5052,-440.427 L 20.7191,-439.972
 L 20.8743,-439.495 L 20.9684,-439.001 L 21,-438.5 L 21,-389.5 L 20.9684,-388.999 L 20.8743,-388.505
 L 20.7191,-388.028 L 20.5052,-387.573 L 20.2361,-387.149 L 19.9159,-386.762 L 19.5497,-386.418 L 19.1433,-386.123
 L 18.7031,-385.881 L 18.2361,-385.696 L 17.7495,-385.571 L 17.2512,-385.508 z
M -21,-248.507 L -20.6448,-248.077 L -20.1871,-247.647 L -19.6791,-247.278 L -19.1289,-246.976 L -18.5451,-246.745
 L -17.9369,-246.589 L -17.3139,-246.51 L 17.3139,-246.51 L 17.9369,-246.589 L 18.5451,-246.745 L 19.1289,-246.976
 L 19.6791,-247.278 L 20.1871,-247.647 L 20.6448,-248.077 L 21.0451,-248.561 L 21.3815,-249.091 L 21.6489,-249.659
 L 21.8429,-250.257 L 21.9606,-250.873 L 22,-251.5 L 22,-300.5 L 21.9606,-301.127 L 21.8429,-301.743
 L 21.6489,-302.341 L 21.3815,-302.909 L 21.0451,-303.439 L 20.6448,-303.923 L 20.1871,-304.353 L 19.6791,-304.722
 L 19.1289,-305.024 L 18.5451,-305.255 L 17.9369,-305.411 L 17.3139,-305.49 L -17.3139,-305.49 L -17.9369,-305.411
 L -18.5451,-305.255 L -19.1289,-305.024 L -19.6791,-304.722 L -20.1871,-304.353 L -20.6448,-303.923 L -21,-303.493
 L -21,-305.615 L -24,-305.615 L -24,-246.385 L -21,-246.385 z
M 17.9369,-177.589 L 18.5451,-177.745 L 19.1289,-177.976 L 19.6791,-178.278 L 20.1871,-178.647 L 20.6448,-179.077
 L 21.0451,-179.561 L 21.3815,-180.091 L 21.6489,-180.659 L 21.8429,-181.257 L 21.9606,-181.873 L 22,-182.5
 L 22,-231.5 L 21.9606,-232.127 L 21.8429,-232.743 L 21.6489,-233.341 L 21.3815,-233.909 L 21.0451,-234.439
 L 20.6448,-234.923 L 20.1871,-235.353 L 19.6791,-235.722 L 19.1289,-236.024 L 18.5451,-236.255 L 17.9369,-236.411
 L 17.3139,-236.49 L -17.3139,-236.49 L -17.9369,-236.411 L -18.5451,-236.255 L -19.1289,-236.024 L -19.6791,-235.722
 L -20.1871,-235.353 L -20.6448,-234.923 L -21.0451,-234.439 L -21.3815,-233.909 L -21.6489,-233.341 L -21.7777,-232.944
 L -24,-232.944 L -24,-181.056 L -21.7777,-181.056 L -21.6489,-180.659 L -21.3815,-180.091 L -21.0451,-179.561
 L -20.6448,-179.077 L -20.1871,-178.647 L -19.6791,-178.278 L -19.1289,-177.976 L -18.5451,-177.745 L -17.9369,-177.589
 L -17.3139,-177.51 L 17.3139,-177.51 z
M -15.1507,-227.105 L -15.4497,-227.143 L -15.7416,-227.217 L -16.0219,-227.328 L -16.286,-227.474 L -16.5298,-227.651
 L -16.7495,-227.857 L -16.9416,-228.089 L -17.1031,-228.344 L -17.2315,-228.617 L -17.3246,-228.903 L -17.3811,-229.199
 L -17.4,-229.5 L -17.3811,-229.801 L -17.3246,-230.097 L -17.2315,-230.383 L -17.1031,-230.656 L -16.9416,-230.911
 L -16.7495,-231.143 L -16.5298,-231.349 L -16.286,-231.526 L -16.0219,-231.672 L -15.7416,-231.783 L -15.4497,-231.857
 L -15.1507,-231.895 L -14.8493,-231.895 L -14.5503,-231.857 L -14.2583,-231.783 L -13.9781,-231.672 L -13.714,-231.526
 L -13.4702,-231.349 L -13.2505,-231.143 L -13.0583,-230.911 L -12.8969,-230.656 L -12.7685,-230.383 L -12.6754,-230.097
 L -12.6189,-229.801 L -12.6,-229.5 L -12.6189,-229.199 L -12.6754,-228.903 L -12.7685,-228.617 L -12.8969,-228.344
 L -13.0583,-228.089 L -13.2505,-227.857 L -13.4702,-227.651 L -13.714,-227.474 L -13.9781,-227.328 L -14.2583,-227.217
 L -14.5503,-227.143 L -14.8493,-227.105 z
M 14.8493,-227.105 L 14.5503,-227.143 L 14.2583,-227.217 L 13.9781,-227.328 L 13.714,-227.474 L 13.4702,-227.651
 L 13.2505,-227.857 L 13.0583,-228.089 L 12.8969,-228.344 L 12.7685,-228.617 L 12.6754,-228.903 L 12.6189,-229.199
 L 12.6,-229.5 L 12.6189,-229.801 L 12.6754,-230.097 L 12.7685,-230.383 L 12.8969,-230.656 L 13.0583,-230.911
 L 13.2505,-231.143 L 13.4702,-231.349 L 13.714,-231.526 L 13.9781,-231.672 L 14.2583,-231.783 L 14.5503,-231.857
 L 14.8493,-231.895 L 15.1507,-231.895 L 15.4497,-231.857 L 15.7416,-231.783 L 16.0219,-231.672 L 16.286,-231.526
 L 16.5298,-231.349 L 16.7495,-231.143 L 16.9416,-230.911 L 17.1031,-230.656 L 17.2315,-230.383 L 17.3246,-230.097
 L 17.3811,-229.801 L 17.4,-229.5 L 17.3811,-229.199 L 17.3246,-228.903 L 17.2315,-228.617 L 17.1031,-228.344
 L 16.9416,-228.089 L 16.7495,-227.857 L 16.5298,-227.651 L 16.286,-227.474 L 16.0219,-227.328 L 15.7416,-227.217
 L 15.4497,-227.143 L 15.1507,-227.105 z
M 14.8493,-182.105 L 14.5503,-182.143 L 14.2583,-182.217 L 13.9781,-182.328 L 13.714,-182.474 L 13.4702,-182.651
 L 13.2505,-182.857 L 13.0583,-183.089 L 12.8969,-183.344 L 12.7685,-183.617 L 12.6754,-183.903 L 12.6189,-184.199
 L 12.6,-184.5 L 12.6189,-184.801 L 12.6754,-185.097 L 12.7685,-185.383 L 12.8969,-185.656 L 13.0583,-185.911
 L 13.2505,-186.143 L 13.4702,-186.349 L 13.714,-186.526 L 13.9781,-186.672 L 14.2583,-186.783 L 14.5503,-186.857
 L 14.8493,-186.895 L 15.1507,-186.895 L 15.4497,-186.857 L 15.7416,-186.783 L 16.0219,-186.672 L 16.286,-186.526
 L 16.5298,-186.349 L 16.7495,-186.143 L 16.9416,-185.911 L 17.1031,-185.656 L 17.2315,-185.383 L 17.3246,-185.097
 L 17.3811,-184.801 L 17.4,-184.5 L 17.3811,-184.199 L 17.3246,-183.903 L 17.2315,-183.617 L 17.1031,-183.344
 L 16.9416,-183.089 L 16.7495,-182.857 L 16.5298,-182.651 L 16.286,-182.474 L 16.0219,-182.328 L 15.7416,-182.217
 L 15.4497,-182.143 L 15.1507,-182.105 z
M -15.1507,-182.105 L -15.4497,-182.143 L -15.7416,-182.217 L -16.0219,-182.328 L -16.286,-182.474 L -16.5298,-182.651
 L -16.7495,-182.857 L -16.9416,-183.089 L -17.1031,-183.344 L -17.2315,-183.617 L -17.3246,-183.903 L -17.3811,-184.199
 L -17.4,-184.5 L -17.3811,-184.801 L -17.3246,-185.097 L -17.2315,-185.383 L -17.1031,-185.656 L -16.9416,-185.911
 L -16.7495,-186.143 L -16.5298,-186.349 L -16.286,-186.526 L -16.0219,-186.672 L -15.7416,-186.783 L -15.4497,-186.857
 L -15.1507,-186.895 L -14.8493,-186.895 L -14.5503,-186.857 L -14.2583,-186.783 L -13.9781,-186.672 L -13.714,-186.526
 L -13.4702,-186.349 L -13.2505,-186.143 L -13.0583,-185.911 L -12.8969,-185.656 L -12.7685,-185.383 L -12.6754,-185.097
 L -12.6189,-184.801 L -12.6,-184.5 L -12.6189,-184.199 L -12.6754,-183.903 L -12.7685,-183.617 L -12.8969,-183.344
 L -13.0583,-183.089 L -13.2505,-182.857 L -13.4702,-182.651 L -13.714,-182.474 L -13.9781,-182.328 L -14.2583,-182.217
 L -14.5503,-182.143 L -14.8493,-182.105 z
M -17.3139,-374.49 L -17.9369,-374.411 L -18.5451,-374.255 L -19.1289,-374.024 L -19.6791,-373.722 L -20.1871,-373.353
 L -20.6448,-372.923 L -21,-372.493 L -21,-374.99 L -24,-374.99 L -24,-315.01 L -21,-315.01
 L -21,-317.507 L -20.6448,-317.077 L -20.1871,-316.647 L -19.6791,-316.278 L -19.1289,-315.976 L -18.5451,-315.745
 L -17.9369,-315.589 L -17.3139,-315.51 L 17.3139,-315.51 L 17.9369,-315.589 L 18.5451,-315.745 L 19.1289,-315.976
 L 19.6791,-316.278 L 20.1871,-316.647 L 20.6448,-317.077 L 21.0451,-317.561 L 21.3815,-318.091 L 21.6489,-318.659
 L 21.8429,-319.257 L 21.9606,-319.873 L 22,-320.5 L 22,-369.5 L 21.9606,-370.127 L 21.8429,-370.743
 L 21.6489,-371.341 L 21.3815,-371.909 L 21.0451,-372.439 L 20.6448,-372.923 L 20.1871,-373.353 L 19.6791,-373.722
 L 19.1289,-374.024 L 18.5451,-374.255 L 17.9369,-374.411 L 17.3139,-374.49 z
M 18.6489,-373.004 L 19.0751,-372.77 L 19.4685,-372.484 L 19.823,-372.151 L 20.133,-371.776 L 20.3936,-371.366
 L 20.6007,-370.926 L 20.751,-370.463 L 20.8421,-369.985 L 20.8726,-369.5 L 20.8726,-320.5 L 20.8421,-320.015
 L 20.751,-319.537 L 20.6007,-319.074 L 20.3936,-318.634 L 20.133,-318.224 L 19.823,-317.849 L 19.4685,-317.516
 L 19.0751,-317.23 L 18.6489,-316.996 L 18.1967,-316.817 L 17.7256,-316.696 L 17.2432,-316.635 L -17.2432,-316.635
 L -17.7256,-316.696 L -18.1967,-316.817 L -18.6489,-316.996 L -19.0751,-317.23 L -19.4685,-317.516 L -19.823,-317.849
 L -20.133,-318.224 L -20.3936,-318.634 L -20.6007,-319.074 L -20.751,-319.537 L -20.8421,-320.015 L -20.8726,-320.5
 L -20.8726,-369.5 L -20.8421,-369.985 L -20.751,-370.463 L -20.6007,-370.926 L -20.3936,-371.366 L -20.133,-371.776
 L -19.823,-372.151 L -19.4685,-372.484 L -19.0751,-372.77 L -18.6489,-373.004 L -18.1967,-373.183 L -17.7256,-373.304
 L -17.2432,-373.365 L 17.2432,-373.365 L 17.7256,-373.304 L 18.1967,-373.183 z
" stroke="black" fill="lightgray" stroke-width="0.5"/>
</svg>
