<?xml version="1.0" standalone="no"?>
<!DOCTYPE svg PUBLIC "-//W3C//DTD SVG 1.1//EN" "http://www.w3.org/Graphics/SVG/1.1/DTD/svg11.dtd">
<svg width="6mm" height="65mm" viewBox="-3 -63 6 65" xmlns="http://www.w3.org/2000/svg" version="1.1">
<title>OpenSCAD Model</title>
<path d="
M 0.481674,-57.4749 L 0.794342,-57.5552 L 1.0945,-57.6741 L 1.37738,-57.8296 L 1.63855,-58.0193 L 1.87387,-58.2403
 L 2.07964,-58.4891 L 2.25261,-58.7616 L 2.39006,-59.0537 L 2.48982,-59.3607 L 2.55031,-59.6778 L 2.57059,-60
 L 2.55031,-60.3222 L 2.48982,-60.6393 L 2.39006,-60.9463 L 2.25261,-61.2384 L 2.07964,-61.5109 L 1.87387,-61.7597
 L 1.63855,-61.9807 L 1.37738,-62.1704 L 1.0945,-62.3259 L 0.794342,-62.4448 L 0.481674,-62.5251 L 0.161407,-62.5655
 L -0.161407,-62.5655 L -0.481674,-62.5251 L -0.794342,-62.4448 L -1.0945,-62.3259 L -1.37738,-62.1704 L -1.63855,-61.9807
 L -1.87387,-61.7597 L -2.07964,-61.5109 L -2.25261,-61.2384 L -2.39006,-60.9463 L -2.48982,-60.6393 L -2.55031,-60.3222
 L -2.57059,-60 L -2.55031,-59.6778 L -2.48982,-59.3607 L -2.39006,-59.0537 L -2.25261,-58.7616 L -2.07964,-58.4891
 L -1.87387,-58.2403 L -1.63855,-58.0193 L -1.37738,-57.8296 L -1.0945,-57.6741 L -0.794342,-57.5552 L -0.481674,-57.4749
 L -0.161407,-57.4345 L 0.161407,-57.4345 z
M 0.281067,-48.5266 L 0.463516,-48.5734 L 0.638657,-48.6428 L 0.803726,-48.7335 L 0.956131,-48.8442 L 1.09344,-48.9732
 L 1.21352,-49.1183 L 1.31445,-49.2774 L 1.39465,-49.4478 L 1.45287,-49.627 L 1.48816,-49.812 L 1.5,-50
 L 1.48816,-50.188 L 1.45287,-50.373 L 1.39465,-50.5522 L 1.31445,-50.7226 L 1.21352,-50.8817 L 1.09344,-51.0268
 L 0.956131,-51.1558 L 0.803726,-51.2665 L 0.638657,-51.3572 L 0.463516,-51.4266 L 0.281067,-51.4734 L 0.0941772,-51.497
 L -0.0941772,-51.497 L -0.281067,-51.4734 L -0.463516,-51.4266 L -0.638657,-51.3572 L -0.803726,-51.2665 L -0.956131,-51.1558
 L -1.09344,-51.0268 L -1.21352,-50.8817 L -1.31445,-50.7226 L -1.39465,-50.5522 L -1.45287,-50.373 L -1.48816,-50.188
 L -1.5,-50 L -1.48816,-49.812 L -1.45287,-49.627 L -1.39465,-49.4478 L -1.31445,-49.2774 L -1.21352,-49.1183
 L -1.09344,-48.9732 L -0.956131,-48.8442 L -0.803726,-48.7335 L -0.638657,-48.6428 L -0.463516,-48.5734 L -0.281067,-48.5266
 L -0.0941772,-48.503 L 0.0941772,-48.503 z
M 0.281067,-38.5266 L 0.463516,-38.5734 L 0.638657,-38.6428 L 0.803726,-38.7335 L 0.956131,-38.8442 L 1.09344,-38.9732
 L 1.21352,-39.1183 L 1.31445,-39.2774 L 1.39465,-39.4478 L 1.45287,-39.627 L 1.48816,-39.812 L 1.5,-40
 L 1.48816,-40.188 L 1.45287,-40.373 L 1.39465,-40.5522 L 1.31445,-40.7226 L 1.21352,-40.8817 L 1.09344,-41.0268
 L 0.956131,-41.1558 L 0.803726,-41.2665 L 0.638657,-41.3572 L 0.463516,-41.4266 L 0.281067,-41.4734 L 0.0941772,-41.497
 L -0.0941772,-41.497 L -0.281067,-41.4734 L -0.463516,-41.4266 L -0.638657,-41.3572 L -0.803726,-41.2665 L -0.956131,-41.1558
 L -1.09344,-41.0268 L -1.21352,-40.8817 L -1.31445,-40.7226 L -1.39465,-40.5522 L -1.45287,-40.373 L -1.48816,-40.188
 L -1.5,-40 L -1.48816,-39.812 L -1.45287,-39.627 L -1.39465,-39.4478 L -1.31445,-39.2774 L -1.21352,-39.1183
 L -1.09344,-38.9732 L -0.956131,-38.8442 L -0.803726,-38.7335 L -0.638657,-38.6428 L -0.463516,-38.5734 L -0.281067,-38.5266
 L -0.0941772,-38.503 L 0.0941772,-38.503 z
M 0.281067,-28.5266 L 0.463516,-28.5734 L 0.638657,-28.6428 L 0.803726,-28.7335 L 0.956131,-28.8442 L 1.09344,-28.9732
 L 1.21352,-29.1183 L 1.31445,-29.2774 L 1.39465,-29.4478 L 1.45287,-29.627 L 1.48816,-29.812 L 1.5,-30
 L 1.48816,-30.188 L 1.45287,-30.373 L 1.39465,-30.5522 L 1.31445,-30.7226 L 1.21352,-30.8817 L 1.09344,-31.0268
 L 0.956131,-31.1558 L 0.803726,-31.2665 L 0.638657,-31.3572 L 0.463516,-31.4266 L 0.281067,-31.4734 L 0.0941772,-31.497
 L -0.0941772,-31.497 L -0.281067,-31.4734 L -0.463516,-31.4266 L -0.638657,-31.3572 L -0.803726,-31.2665 L -0.956131,-31.1558
 L -1.09344,-31.0268 L -1.21352,-30.8817 L -1.31445,-30.7226 L -1.39465,-30.5522 L -1.45287,-30.373 L -1.48816,-30.188
 L -1.5,-30 L -1.48816,-29.812 L -1.45287,-29.627 L -1.39465,-29.4478 L -1.31445,-29.2774 L -1.21352,-29.1183
 L -1.09344,-28.9732 L -0.956131,-28.8442 L -0.803726,-28.7335 L -0.638657,-28.6428 L -0.463516,-28.5734 L -0.281067,-28.5266
 L -0.0941772,-28.503 L 0.0941772,-28.503 z
M 0.281067,-18.5266 L 0.463516,-18.5734 L 0.638657,-18.6428 L 0.803726,-18.7335 L 0.956131,-18.8442 L 1.09344,-18.9732
 L 1.21352,-19.1183 L 1.31445,-19.2774 L 1.39465,-19.4478 L 1.45287,-19.627 L 1.48816,-19.812 L 1.5,-20
 L 1.48816,-20.188 L 1.45287,-20.373 L 1.39465,-20.5522 L 1.31445,-20.7226 L 1.21352,-20.8817 L 1.09344,-21.0268
 L 0.956131,-21.1558 L 0.803726,-21.2665 L 0.638657,-21.3572 L 0.463516,-21.4266 L 0.281067,-21.4734 L 0.0941772,-21.497
 L -0.0941772,-21.497 L -0.281067,-21.4734 L -0.463516,-21.4266 L -0.638657,-21.3572 L -0.803726,-21.2665 L -0.956131,-21.1558
 L -1.09344,-21.0268 L -1.21352,-20.8817 L -1.31445,-20.7226 L -1.39465,-20.5522 L -1.45287,-20.373 L -1.48816,-20.188
 L -1.5,-20 L -1.48816,-19.812 L -1.45287,-19.627 L -1.39465,-19.4478 L -1.31445,-19.2774 L -1.21352,-19.1183
 L -1.09344,-18.9732 L -0.956131,-18.8442 L -0.803726,-18.7335 L -0.638657,-18.6428 L -0.463516,-18.5734 L -0.281067,-18.5266
 L -0.0941772,-18.503 L 0.0941772,-18.503 z
M 0.281067,-8.52658 L 0.463516,-8.57343 L 0.638657,-8.64276 L 0.803726,-8.73352 L 0.956131,-8.84424 L 1.09344,-8.97319
 L 1.21352,-9.11833 L 1.31445,-9.27737 L 1.39465,-9.44781 L 1.45287,-9.62697 L 1.48816,-9.81201 L 1.5,-10
 L 1.48816,-10.188 L 1.45287,-10.373 L 1.39465,-10.5522 L 1.31445,-10.7226 L 1.21352,-10.8817 L 1.09344,-11.0268
 L 0.956131,-11.1558 L 0.803726,-11.2665 L 0.638657,-11.3572 L 0.463516,-11.4266 L 0.281067,-11.4734 L 0.0941772,-11.497
 L -0.0941772,-11.497 L -0.281067,-11.4734 L -0.463516,-11.4266 L -0.638657,-11.3572 L -0.803726,-11.2665 L -0.956131,-11.1558
 L -1.09344,-11.0268 L -1.21352,-10.8817 L -1.31445,-10.7226 L -1.39465,-10.5522 L -1.45287,-10.373 L -1.48816,-10.188
 L -1.5,-10 L -1.48816,-9.81201 L -1.45287,-9.62697 L -1.39465,-9.44781 L -1.31445,-9.27737 L -1.21352,-9.11833
 L -1.09344,-8.97319 L -0.956131,-8.84424 L -0.803726,-8.73352 L -0.638657,-8.64276 L -0.463516,-8.57343 L -0.281067,-8.52658
 L -0.0941772,-8.50296 L 0.0941772,-8.50296 z
M 0.281067,1.47342 L 0.463516,1.42657 L 0.638657,1.35724 L 0.803726,1.26648 L 0.956131,1.15576 L 1.09344,1.02681
 L 1.21352,0.881668 L 1.31445,0.722626 L 1.39465,0.552185 L 1.45287,0.373032 L 1.48816,0.187988 L 1.5,-0
 L 1.48816,-0.187988 L 1.45287,-0.373032 L 1.39465,-0.552185 L 1.31445,-0.722626 L 1.21352,-0.881668 L 1.09344,-1.02681
 L 0.956131,-1.15576 L 0.803726,-1.26648 L 0.638657,-1.35724 L 0.463516,-1.42657 L 0.281067,-1.47342 L 0.0941772,-1.49704
 L -0.0941772,-1.49704 L -0.281067,-1.47342 L -0.463516,-1.42657 L -0.638657,-1.35724 L -0.803726,-1.26648 L -0.956131,-1.15576
 L -1.09344,-1.02681 L -1.21352,-0.881668 L -1.31445,-0.722626 L -1.39465,-0.552185 L -1.45287,-0.373032 L -1.48816,-0.187988
 L -1.5,-0 L -1.48816,0.187988 L -1.45287,0.373032 L -1.39465,0.552185 L -1.31445,0.722626 L -1.21352,0.881668
 L -1.09344,1.02681 L -0.956131,1.15576 L -0.803726,1.26648 L -0.638657,1.35724 L -0.463516,1.42657 L -0.281067,1.47342
 L -0.0941772,1.49704 L 0.0941772,1.49704 z
" stroke="black" fill="lightgray" stroke-width="0.5"/>
</svg>
