  0
SECTION
  2
BLOCKS
  0
ENDSEC
  0
SECTION
  2
ENTITIES
  0
LINE
  8
0
 10
0.481674
 20
217.475
 11
0.794342
 21
217.555
  0
LINE
  8
0
 10
0.794342
 20
217.555
 11
1.0945
 21
217.674
  0
LINE
  8
0
 10
1.0945
 20
217.674
 11
1.37738
 21
217.83
  0
LINE
  8
0
 10
1.37738
 20
217.83
 11
1.63855
 21
218.019
  0
LINE
  8
0
 10
1.63855
 20
218.019
 11
1.87387
 21
218.24
  0
LINE
  8
0
 10
1.87387
 20
218.24
 11
2.07964
 21
218.489
  0
LINE
  8
0
 10
2.07964
 20
218.489
 11
2.25261
 21
218.762
  0
LINE
  8
0
 10
2.25261
 20
218.762
 11
2.39006
 21
219.054
  0
LINE
  8
0
 10
2.39006
 20
219.054
 11
2.48982
 21
219.361
  0
LINE
  8
0
 10
2.48982
 20
219.361
 11
2.55031
 21
219.678
  0
LINE
  8
0
 10
2.55031
 20
219.678
 11
2.57059
 21
220
  0
LINE
  8
0
 10
2.57059
 20
220
 11
2.55031
 21
220.322
  0
LINE
  8
0
 10
2.55031
 20
220.322
 11
2.48982
 21
220.639
  0
LINE
  8
0
 10
2.48982
 20
220.639
 11
2.39006
 21
220.946
  0
LINE
  8
0
 10
2.39006
 20
220.946
 11
2.25261
 21
221.238
  0
LINE
  8
0
 10
2.25261
 20
221.238
 11
2.07964
 21
221.511
  0
LINE
  8
0
 10
2.07964
 20
221.511
 11
1.87387
 21
221.76
  0
LINE
  8
0
 10
1.87387
 20
221.76
 11
1.63855
 21
221.981
  0
LINE
  8
0
 10
1.63855
 20
221.981
 11
1.37738
 21
222.17
  0
LINE
  8
0
 10
1.37738
 20
222.17
 11
1.0945
 21
222.326
  0
LINE
  8
0
 10
1.0945
 20
222.326
 11
0.794342
 21
222.445
  0
LINE
  8
0
 10
0.794342
 20
222.445
 11
0.481674
 21
222.525
  0
LINE
  8
0
 10
0.481674
 20
222.525
 11
0.161407
 21
222.566
  0
LINE
  8
0
 10
0.161407
 20
222.566
 11
-0.161407
 21
222.566
  0
LINE
  8
0
 10
-0.161407
 20
222.566
 11
-0.481674
 21
222.525
  0
LINE
  8
0
 10
-0.481674
 20
222.525
 11
-0.794342
 21
222.445
  0
LINE
  8
0
 10
-0.794342
 20
222.445
 11
-1.0945
 21
222.326
  0
LINE
  8
0
 10
-1.0945
 20
222.326
 11
-1.37738
 21
222.17
  0
LINE
  8
0
 10
-1.37738
 20
222.17
 11
-1.63855
 21
221.981
  0
LINE
  8
0
 10
-1.63855
 20
221.981
 11
-1.87387
 21
221.76
  0
LINE
  8
0
 10
-1.87387
 20
221.76
 11
-2.07964
 21
221.511
  0
LINE
  8
0
 10
-2.07964
 20
221.511
 11
-2.25261
 21
221.238
  0
LINE
  8
0
 10
-2.25261
 20
221.238
 11
-2.39006
 21
220.946
  0
LINE
  8
0
 10
-2.39006
 20
220.946
 11
-2.48982
 21
220.639
  0
LINE
  8
0
 10
-2.48982
 20
220.639
 11
-2.55031
 21
220.322
  0
LINE
  8
0
 10
-2.55031
 20
220.322
 11
-2.57059
 21
220
  0
LINE
  8
0
 10
-2.57059
 20
220
 11
-2.55031
 21
219.678
  0
LINE
  8
0
 10
-2.55031
 20
219.678
 11
-2.48982
 21
219.361
  0
LINE
  8
0
 10
-2.48982
 20
219.361
 11
-2.39006
 21
219.054
  0
LINE
  8
0
 10
-2.39006
 20
219.054
 11
-2.25261
 21
218.762
  0
LINE
  8
0
 10
-2.25261
 20
218.762
 11
-2.07964
 21
218.489
  0
LINE
  8
0
 10
-2.07964
 20
218.489
 11
-1.87387
 21
218.24
  0
LINE
  8
0
 10
-1.87387
 20
218.24
 11
-1.63855
 21
218.019
  0
LINE
  8
0
 10
-1.63855
 20
218.019
 11
-1.37738
 21
217.83
  0
LINE
  8
0
 10
-1.37738
 20
217.83
 11
-1.0945
 21
217.674
  0
LINE
  8
0
 10
-1.0945
 20
217.674
 11
-0.794342
 21
217.555
  0
LINE
  8
0
 10
-0.794342
 20
217.555
 11
-0.481674
 21
217.475
  0
LINE
  8
0
 10
-0.481674
 20
217.475
 11
-0.161407
 21
217.434
  0
LINE
  8
0
 10
-0.161407
 20
217.434
 11
0.161407
 21
217.434
  0
LINE
  8
0
 10
0.161407
 20
217.434
 11
0.481674
 21
217.475
  0
LINE
  8
0
 10
0.281067
 20
108.527
 11
0.463516
 21
108.573
  0
LINE
  8
0
 10
0.463516
 20
108.573
 11
0.638657
 21
108.643
  0
LINE
  8
0
 10
0.638657
 20
108.643
 11
0.803726
 21
108.734
  0
LINE
  8
0
 10
0.803726
 20
108.734
 11
0.956131
 21
108.844
  0
LINE
  8
0
 10
0.956131
 20
108.844
 11
1.09344
 21
108.973
  0
LINE
  8
0
 10
1.09344
 20
108.973
 11
1.21352
 21
109.118
  0
LINE
  8
0
 10
1.21352
 20
109.118
 11
1.31445
 21
109.277
  0
LINE
  8
0
 10
1.31445
 20
109.277
 11
1.39465
 21
109.448
  0
LINE
  8
0
 10
1.39465
 20
109.448
 11
1.45287
 21
109.627
  0
LINE
  8
0
 10
1.45287
 20
109.627
 11
1.48816
 21
109.812
  0
LINE
  8
0
 10
1.48816
 20
109.812
 11
1.5
 21
110
  0
LINE
  8
0
 10
1.5
 20
110
 11
1.48816
 21
110.188
  0
LINE
  8
0
 10
1.48816
 20
110.188
 11
1.45287
 21
110.373
  0
LINE
  8
0
 10
1.45287
 20
110.373
 11
1.39465
 21
110.552
  0
LINE
  8
0
 10
1.39465
 20
110.552
 11
1.31445
 21
110.723
  0
LINE
  8
0
 10
1.31445
 20
110.723
 11
1.21352
 21
110.882
  0
LINE
  8
0
 10
1.21352
 20
110.882
 11
1.09344
 21
111.027
  0
LINE
  8
0
 10
1.09344
 20
111.027
 11
0.956131
 21
111.156
  0
LINE
  8
0
 10
0.956131
 20
111.156
 11
0.803726
 21
111.266
  0
LINE
  8
0
 10
0.803726
 20
111.266
 11
0.638657
 21
111.357
  0
LINE
  8
0
 10
0.638657
 20
111.357
 11
0.463516
 21
111.427
  0
LINE
  8
0
 10
0.463516
 20
111.427
 11
0.281067
 21
111.473
  0
LINE
  8
0
 10
0.281067
 20
111.473
 11
0.0941772
 21
111.497
  0
LINE
  8
0
 10
0.0941772
 20
111.497
 11
-0.0941772
 21
111.497
  0
LINE
  8
0
 10
-0.0941772
 20
111.497
 11
-0.281067
 21
111.473
  0
LINE
  8
0
 10
-0.281067
 20
111.473
 11
-0.463516
 21
111.427
  0
LINE
  8
0
 10
-0.463516
 20
111.427
 11
-0.638657
 21
111.357
  0
LINE
  8
0
 10
-0.638657
 20
111.357
 11
-0.803726
 21
111.266
  0
LINE
  8
0
 10
-0.803726
 20
111.266
 11
-0.956131
 21
111.156
  0
LINE
  8
0
 10
-0.956131
 20
111.156
 11
-1.09344
 21
111.027
  0
LINE
  8
0
 10
-1.09344
 20
111.027
 11
-1.21352
 21
110.882
  0
LINE
  8
0
 10
-1.21352
 20
110.882
 11
-1.31445
 21
110.723
  0
LINE
  8
0
 10
-1.31445
 20
110.723
 11
-1.39465
 21
110.552
  0
LINE
  8
0
 10
-1.39465
 20
110.552
 11
-1.45287
 21
110.373
  0
LINE
  8
0
 10
-1.45287
 20
110.373
 11
-1.48816
 21
110.188
  0
LINE
  8
0
 10
-1.48816
 20
110.188
 11
-1.5
 21
110
  0
LINE
  8
0
 10
-1.5
 20
110
 11
-1.48816
 21
109.812
  0
LINE
  8
0
 10
-1.48816
 20
109.812
 11
-1.45287
 21
109.627
  0
LINE
  8
0
 10
-1.45287
 20
109.627
 11
-1.39465
 21
109.448
  0
LINE
  8
0
 10
-1.39465
 20
109.448
 11
-1.31445
 21
109.277
  0
LINE
  8
0
 10
-1.31445
 20
109.277
 11
-1.21352
 21
109.118
  0
LINE
  8
0
 10
-1.21352
 20
109.118
 11
-1.09344
 21
108.973
  0
LINE
  8
0
 10
-1.09344
 20
108.973
 11
-0.956131
 21
108.844
  0
LINE
  8
0
 10
-0.956131
 20
108.844
 11
-0.803726
 21
108.734
  0
LINE
  8
0
 10
-0.803726
 20
108.734
 11
-0.638657
 21
108.643
  0
LINE
  8
0
 10
-0.638657
 20
108.643
 11
-0.463516
 21
108.573
  0
LINE
  8
0
 10
-0.463516
 20
108.573
 11
-0.281067
 21
108.527
  0
LINE
  8
0
 10
-0.281067
 20
108.527
 11
-0.0941772
 21
108.503
  0
LINE
  8
0
 10
-0.0941772
 20
108.503
 11
0.0941772
 21
108.503
  0
LINE
  8
0
 10
0.0941772
 20
108.503
 11
0.281067
 21
108.527
  0
LINE
  8
0
 10
0.281067
 20
-1.47342
 11
0.463516
 21
-1.42657
  0
LINE
  8
0
 10
0.463516
 20
-1.42657
 11
0.638657
 21
-1.35724
  0
LINE
  8
0
 10
0.638657
 20
-1.35724
 11
0.803726
 21
-1.26648
  0
LINE
  8
0
 10
0.803726
 20
-1.26648
 11
0.956131
 21
-1.15576
  0
LINE
  8
0
 10
0.956131
 20
-1.15576
 11
1.09344
 21
-1.02681
  0
LINE
  8
0
 10
1.09344
 20
-1.02681
 11
1.21352
 21
-0.881668
  0
LINE
  8
0
 10
1.21352
 20
-0.881668
 11
1.31445
 21
-0.722626
  0
LINE
  8
0
 10
1.31445
 20
-0.722626
 11
1.39465
 21
-0.552185
  0
LINE
  8
0
 10
1.39465
 20
-0.552185
 11
1.45287
 21
-0.373032
  0
LINE
  8
0
 10
1.45287
 20
-0.373032
 11
1.48816
 21
-0.187988
  0
LINE
  8
0
 10
1.48816
 20
-0.187988
 11
1.5
 21
0
  0
LINE
  8
0
 10
1.5
 20
0
 11
1.48816
 21
0.187988
  0
LINE
  8
0
 10
1.48816
 20
0.187988
 11
1.45287
 21
0.373032
  0
LINE
  8
0
 10
1.45287
 20
0.373032
 11
1.39465
 21
0.552185
  0
LINE
  8
0
 10
1.39465
 20
0.552185
 11
1.31445
 21
0.722626
  0
LINE
  8
0
 10
1.31445
 20
0.722626
 11
1.21352
 21
0.881668
  0
LINE
  8
0
 10
1.21352
 20
0.881668
 11
1.09344
 21
1.02681
  0
LINE
  8
0
 10
1.09344
 20
1.02681
 11
0.956131
 21
1.15576
  0
LINE
  8
0
 10
0.956131
 20
1.15576
 11
0.803726
 21
1.26648
  0
LINE
  8
0
 10
0.803726
 20
1.26648
 11
0.638657
 21
1.35724
  0
LINE
  8
0
 10
0.638657
 20
1.35724
 11
0.463516
 21
1.42657
  0
LINE
  8
0
 10
0.463516
 20
1.42657
 11
0.281067
 21
1.47342
  0
LINE
  8
0
 10
0.281067
 20
1.47342
 11
0.0941772
 21
1.49704
  0
LINE
  8
0
 10
0.0941772
 20
1.49704
 11
-0.0941772
 21
1.49704
  0
LINE
  8
0
 10
-0.0941772
 20
1.49704
 11
-0.281067
 21
1.47342
  0
LINE
  8
0
 10
-0.281067
 20
1.47342
 11
-0.463516
 21
1.42657
  0
LINE
  8
0
 10
-0.463516
 20
1.42657
 11
-0.638657
 21
1.35724
  0
LINE
  8
0
 10
-0.638657
 20
1.35724
 11
-0.803726
 21
1.26648
  0
LINE
  8
0
 10
-0.803726
 20
1.26648
 11
-0.956131
 21
1.15576
  0
LINE
  8
0
 10
-0.956131
 20
1.15576
 11
-1.09344
 21
1.02681
  0
LINE
  8
0
 10
-1.09344
 20
1.02681
 11
-1.21352
 21
0.881668
  0
LINE
  8
0
 10
-1.21352
 20
0.881668
 11
-1.31445
 21
0.722626
  0
LINE
  8
0
 10
-1.31445
 20
0.722626
 11
-1.39465
 21
0.552185
  0
LINE
  8
0
 10
-1.39465
 20
0.552185
 11
-1.45287
 21
0.373032
  0
LINE
  8
0
 10
-1.45287
 20
0.373032
 11
-1.48816
 21
0.187988
  0
LINE
  8
0
 10
-1.48816
 20
0.187988
 11
-1.5
 21
0
  0
LINE
  8
0
 10
-1.5
 20
0
 11
-1.48816
 21
-0.187988
  0
LINE
  8
0
 10
-1.48816
 20
-0.187988
 11
-1.45287
 21
-0.373032
  0
LINE
  8
0
 10
-1.45287
 20
-0.373032
 11
-1.39465
 21
-0.552185
  0
LINE
  8
0
 10
-1.39465
 20
-0.552185
 11
-1.31445
 21
-0.722626
  0
LINE
  8
0
 10
-1.31445
 20
-0.722626
 11
-1.21352
 21
-0.881668
  0
LINE
  8
0
 10
-1.21352
 20
-0.881668
 11
-1.09344
 21
-1.02681
  0
LINE
  8
0
 10
-1.09344
 20
-1.02681
 11
-0.956131
 21
-1.15576
  0
LINE
  8
0
 10
-0.956131
 20
-1.15576
 11
-0.803726
 21
-1.26648
  0
LINE
  8
0
 10
-0.803726
 20
-1.26648
 11
-0.638657
 21
-1.35724
  0
LINE
  8
0
 10
-0.638657
 20
-1.35724
 11
-0.463516
 21
-1.42657
  0
LINE
  8
0
 10
-0.463516
 20
-1.42657
 11
-0.281067
 21
-1.47342
  0
LINE
  8
0
 10
-0.281067
 20
-1.47342
 11
-0.0941772
 21
-1.49704
  0
LINE
  8
0
 10
-0.0941772
 20
-1.49704
 11
0.0941772
 21
-1.49704
  0
LINE
  8
0
 10
0.0941772
 20
-1.49704
 11
0.281067
 21
-1.47342
  0
ENDSEC
  0
SECTION
  2
OBJECTS
  0
DICTIONARY
  0
ENDSEC
  0
EOF
