  0
SECTION
  2
BLOCKS
  0
ENDSEC
  0
SECTION
  2
ENTITIES
  0
LINE
  8
0
 10
0.481674
 20
107.475
 11
0.794342
 21
107.555
  0
LINE
  8
0
 10
0.794342
 20
107.555
 11
1.0945
 21
107.674
  0
LINE
  8
0
 10
1.0945
 20
107.674
 11
1.37738
 21
107.83
  0
LINE
  8
0
 10
1.37738
 20
107.83
 11
1.63855
 21
108.019
  0
LINE
  8
0
 10
1.63855
 20
108.019
 11
1.87387
 21
108.24
  0
LINE
  8
0
 10
1.87387
 20
108.24
 11
2.07964
 21
108.489
  0
LINE
  8
0
 10
2.07964
 20
108.489
 11
2.25261
 21
108.762
  0
LINE
  8
0
 10
2.25261
 20
108.762
 11
2.39006
 21
109.054
  0
LINE
  8
0
 10
2.39006
 20
109.054
 11
2.48982
 21
109.361
  0
LINE
  8
0
 10
2.48982
 20
109.361
 11
2.55031
 21
109.678
  0
LINE
  8
0
 10
2.55031
 20
109.678
 11
2.57059
 21
110
  0
LINE
  8
0
 10
2.57059
 20
110
 11
2.55031
 21
110.322
  0
LINE
  8
0
 10
2.55031
 20
110.322
 11
2.48982
 21
110.639
  0
LINE
  8
0
 10
2.48982
 20
110.639
 11
2.39006
 21
110.946
  0
LINE
  8
0
 10
2.39006
 20
110.946
 11
2.25261
 21
111.238
  0
LINE
  8
0
 10
2.25261
 20
111.238
 11
2.07964
 21
111.511
  0
LINE
  8
0
 10
2.07964
 20
111.511
 11
1.87387
 21
111.76
  0
LINE
  8
0
 10
1.87387
 20
111.76
 11
1.63855
 21
111.981
  0
LINE
  8
0
 10
1.63855
 20
111.981
 11
1.37738
 21
112.17
  0
LINE
  8
0
 10
1.37738
 20
112.17
 11
1.0945
 21
112.326
  0
LINE
  8
0
 10
1.0945
 20
112.326
 11
0.794342
 21
112.445
  0
LINE
  8
0
 10
0.794342
 20
112.445
 11
0.481674
 21
112.525
  0
LINE
  8
0
 10
0.481674
 20
112.525
 11
0.161407
 21
112.566
  0
LINE
  8
0
 10
0.161407
 20
112.566
 11
-0.161407
 21
112.566
  0
LINE
  8
0
 10
-0.161407
 20
112.566
 11
-0.481674
 21
112.525
  0
LINE
  8
0
 10
-0.481674
 20
112.525
 11
-0.794342
 21
112.445
  0
LINE
  8
0
 10
-0.794342
 20
112.445
 11
-1.0945
 21
112.326
  0
LINE
  8
0
 10
-1.0945
 20
112.326
 11
-1.37738
 21
112.17
  0
LINE
  8
0
 10
-1.37738
 20
112.17
 11
-1.63855
 21
111.981
  0
LINE
  8
0
 10
-1.63855
 20
111.981
 11
-1.87387
 21
111.76
  0
LINE
  8
0
 10
-1.87387
 20
111.76
 11
-2.07964
 21
111.511
  0
LINE
  8
0
 10
-2.07964
 20
111.511
 11
-2.25261
 21
111.238
  0
LINE
  8
0
 10
-2.25261
 20
111.238
 11
-2.39006
 21
110.946
  0
LINE
  8
0
 10
-2.39006
 20
110.946
 11
-2.48982
 21
110.639
  0
LINE
  8
0
 10
-2.48982
 20
110.639
 11
-2.55031
 21
110.322
  0
LINE
  8
0
 10
-2.55031
 20
110.322
 11
-2.57059
 21
110
  0
LINE
  8
0
 10
-2.57059
 20
110
 11
-2.55031
 21
109.678
  0
LINE
  8
0
 10
-2.55031
 20
109.678
 11
-2.48982
 21
109.361
  0
LINE
  8
0
 10
-2.48982
 20
109.361
 11
-2.39006
 21
109.054
  0
LINE
  8
0
 10
-2.39006
 20
109.054
 11
-2.25261
 21
108.762
  0
LINE
  8
0
 10
-2.25261
 20
108.762
 11
-2.07964
 21
108.489
  0
LINE
  8
0
 10
-2.07964
 20
108.489
 11
-1.87387
 21
108.24
  0
LINE
  8
0
 10
-1.87387
 20
108.24
 11
-1.63855
 21
108.019
  0
LINE
  8
0
 10
-1.63855
 20
108.019
 11
-1.37738
 21
107.83
  0
LINE
  8
0
 10
-1.37738
 20
107.83
 11
-1.0945
 21
107.674
  0
LINE
  8
0
 10
-1.0945
 20
107.674
 11
-0.794342
 21
107.555
  0
LINE
  8
0
 10
-0.794342
 20
107.555
 11
-0.481674
 21
107.475
  0
LINE
  8
0
 10
-0.481674
 20
107.475
 11
-0.161407
 21
107.434
  0
LINE
  8
0
 10
-0.161407
 20
107.434
 11
0.161407
 21
107.434
  0
LINE
  8
0
 10
0.161407
 20
107.434
 11
0.481674
 21
107.475
  0
LINE
  8
0
 10
0.281067
 20
-1.47342
 11
0.463516
 21
-1.42657
  0
LINE
  8
0
 10
0.463516
 20
-1.42657
 11
0.638657
 21
-1.35724
  0
LINE
  8
0
 10
0.638657
 20
-1.35724
 11
0.803726
 21
-1.26648
  0
LINE
  8
0
 10
0.803726
 20
-1.26648
 11
0.956131
 21
-1.15576
  0
LINE
  8
0
 10
0.956131
 20
-1.15576
 11
1.09344
 21
-1.02681
  0
LINE
  8
0
 10
1.09344
 20
-1.02681
 11
1.21352
 21
-0.881668
  0
LINE
  8
0
 10
1.21352
 20
-0.881668
 11
1.31445
 21
-0.722626
  0
LINE
  8
0
 10
1.31445
 20
-0.722626
 11
1.39465
 21
-0.552185
  0
LINE
  8
0
 10
1.39465
 20
-0.552185
 11
1.45287
 21
-0.373032
  0
LINE
  8
0
 10
1.45287
 20
-0.373032
 11
1.48816
 21
-0.187988
  0
LINE
  8
0
 10
1.48816
 20
-0.187988
 11
1.5
 21
0
  0
LINE
  8
0
 10
1.5
 20
0
 11
1.48816
 21
0.187988
  0
LINE
  8
0
 10
1.48816
 20
0.187988
 11
1.45287
 21
0.373032
  0
LINE
  8
0
 10
1.45287
 20
0.373032
 11
1.39465
 21
0.552185
  0
LINE
  8
0
 10
1.39465
 20
0.552185
 11
1.31445
 21
0.722626
  0
LINE
  8
0
 10
1.31445
 20
0.722626
 11
1.21352
 21
0.881668
  0
LINE
  8
0
 10
1.21352
 20
0.881668
 11
1.09344
 21
1.02681
  0
LINE
  8
0
 10
1.09344
 20
1.02681
 11
0.956131
 21
1.15576
  0
LINE
  8
0
 10
0.956131
 20
1.15576
 11
0.803726
 21
1.26648
  0
LINE
  8
0
 10
0.803726
 20
1.26648
 11
0.638657
 21
1.35724
  0
LINE
  8
0
 10
0.638657
 20
1.35724
 11
0.463516
 21
1.42657
  0
LINE
  8
0
 10
0.463516
 20
1.42657
 11
0.281067
 21
1.47342
  0
LINE
  8
0
 10
0.281067
 20
1.47342
 11
0.0941772
 21
1.49704
  0
LINE
  8
0
 10
0.0941772
 20
1.49704
 11
-0.0941772
 21
1.49704
  0
LINE
  8
0
 10
-0.0941772
 20
1.49704
 11
-0.281067
 21
1.47342
  0
LINE
  8
0
 10
-0.281067
 20
1.47342
 11
-0.463516
 21
1.42657
  0
LINE
  8
0
 10
-0.463516
 20
1.42657
 11
-0.638657
 21
1.35724
  0
LINE
  8
0
 10
-0.638657
 20
1.35724
 11
-0.803726
 21
1.26648
  0
LINE
  8
0
 10
-0.803726
 20
1.26648
 11
-0.956131
 21
1.15576
  0
LINE
  8
0
 10
-0.956131
 20
1.15576
 11
-1.09344
 21
1.02681
  0
LINE
  8
0
 10
-1.09344
 20
1.02681
 11
-1.21352
 21
0.881668
  0
LINE
  8
0
 10
-1.21352
 20
0.881668
 11
-1.31445
 21
0.722626
  0
LINE
  8
0
 10
-1.31445
 20
0.722626
 11
-1.39465
 21
0.552185
  0
LINE
  8
0
 10
-1.39465
 20
0.552185
 11
-1.45287
 21
0.373032
  0
LINE
  8
0
 10
-1.45287
 20
0.373032
 11
-1.48816
 21
0.187988
  0
LINE
  8
0
 10
-1.48816
 20
0.187988
 11
-1.5
 21
0
  0
LINE
  8
0
 10
-1.5
 20
0
 11
-1.48816
 21
-0.187988
  0
LINE
  8
0
 10
-1.48816
 20
-0.187988
 11
-1.45287
 21
-0.373032
  0
LINE
  8
0
 10
-1.45287
 20
-0.373032
 11
-1.39465
 21
-0.552185
  0
LINE
  8
0
 10
-1.39465
 20
-0.552185
 11
-1.31445
 21
-0.722626
  0
LINE
  8
0
 10
-1.31445
 20
-0.722626
 11
-1.21352
 21
-0.881668
  0
LINE
  8
0
 10
-1.21352
 20
-0.881668
 11
-1.09344
 21
-1.02681
  0
LINE
  8
0
 10
-1.09344
 20
-1.02681
 11
-0.956131
 21
-1.15576
  0
LINE
  8
0
 10
-0.956131
 20
-1.15576
 11
-0.803726
 21
-1.26648
  0
LINE
  8
0
 10
-0.803726
 20
-1.26648
 11
-0.638657
 21
-1.35724
  0
LINE
  8
0
 10
-0.638657
 20
-1.35724
 11
-0.463516
 21
-1.42657
  0
LINE
  8
0
 10
-0.463516
 20
-1.42657
 11
-0.281067
 21
-1.47342
  0
LINE
  8
0
 10
-0.281067
 20
-1.47342
 11
-0.0941772
 21
-1.49704
  0
LINE
  8
0
 10
-0.0941772
 20
-1.49704
 11
0.0941772
 21
-1.49704
  0
LINE
  8
0
 10
0.0941772
 20
-1.49704
 11
0.281067
 21
-1.47342
  0
ENDSEC
  0
SECTION
  2
OBJECTS
  0
DICTIONARY
  0
ENDSEC
  0
EOF
