  0
SECTION
  2
BLOCKS
  0
ENDSEC
  0
SECTION
  2
ENTITIES
  0
LINE
  8
0
 10
0.449707
 20
-2.35748
 11
0.741638
 21
-2.28253
  0
LINE
  8
0
 10
0.741638
 20
-2.28253
 11
1.02187
 21
-2.17157
  0
LINE
  8
0
 10
1.02187
 20
-2.17157
 11
1.28598
 21
-2.02638
  0
LINE
  8
0
 10
1.28598
 20
-2.02638
 11
1.52982
 21
-1.84923
  0
LINE
  8
0
 10
1.52982
 20
-1.84923
 11
1.74951
 21
-1.6429
  0
LINE
  8
0
 10
1.74951
 20
-1.6429
 11
1.94164
 21
-1.41068
  0
LINE
  8
0
 10
1.94164
 20
-1.41068
 11
2.10313
 21
-1.1562
  0
LINE
  8
0
 10
2.10313
 20
-1.1562
 11
2.23146
 21
-0.883484
  0
LINE
  8
0
 10
2.23146
 20
-0.883484
 11
2.32458
 21
-0.596848
  0
LINE
  8
0
 10
2.32458
 20
-0.596848
 11
2.38107
 21
-0.300797
  0
LINE
  8
0
 10
2.38107
 20
-0.300797
 11
2.39999
 21
0
  0
LINE
  8
0
 10
2.39999
 20
0
 11
2.38107
 21
0.300797
  0
LINE
  8
0
 10
2.38107
 20
0.300797
 11
2.32458
 21
0.596848
  0
LINE
  8
0
 10
2.32458
 20
0.596848
 11
2.23146
 21
0.883484
  0
LINE
  8
0
 10
2.23146
 20
0.883484
 11
2.10313
 21
1.1562
  0
LINE
  8
0
 10
2.10313
 20
1.1562
 11
1.94164
 21
1.41068
  0
LINE
  8
0
 10
1.94164
 20
1.41068
 11
1.74951
 21
1.6429
  0
LINE
  8
0
 10
1.74951
 20
1.6429
 11
1.52982
 21
1.84923
  0
LINE
  8
0
 10
1.52982
 20
1.84923
 11
1.28598
 21
2.02638
  0
LINE
  8
0
 10
1.28598
 20
2.02638
 11
1.02187
 21
2.17157
  0
LINE
  8
0
 10
1.02187
 20
2.17157
 11
0.741638
 21
2.28253
  0
LINE
  8
0
 10
0.741638
 20
2.28253
 11
0.449707
 21
2.35748
  0
LINE
  8
0
 10
0.449707
 20
2.35748
 11
0.150696
 21
2.39526
  0
LINE
  8
0
 10
0.150696
 20
2.39526
 11
-0.150696
 21
2.39526
  0
LINE
  8
0
 10
-0.150696
 20
2.39526
 11
-0.449707
 21
2.35748
  0
LINE
  8
0
 10
-0.449707
 20
2.35748
 11
-0.741638
 21
2.28253
  0
LINE
  8
0
 10
-0.741638
 20
2.28253
 11
-1.02187
 21
2.17157
  0
LINE
  8
0
 10
-1.02187
 20
2.17157
 11
-1.28598
 21
2.02638
  0
LINE
  8
0
 10
-1.28598
 20
2.02638
 11
-1.52982
 21
1.84923
  0
LINE
  8
0
 10
-1.52982
 20
1.84923
 11
-1.74951
 21
1.6429
  0
LINE
  8
0
 10
-1.74951
 20
1.6429
 11
-1.94164
 21
1.41068
  0
LINE
  8
0
 10
-1.94164
 20
1.41068
 11
-2.10313
 21
1.1562
  0
LINE
  8
0
 10
-2.10313
 20
1.1562
 11
-2.23146
 21
0.883484
  0
LINE
  8
0
 10
-2.23146
 20
0.883484
 11
-2.32458
 21
0.596848
  0
LINE
  8
0
 10
-2.32458
 20
0.596848
 11
-2.38107
 21
0.300797
  0
LINE
  8
0
 10
-2.38107
 20
0.300797
 11
-2.39999
 21
0
  0
LINE
  8
0
 10
-2.39999
 20
0
 11
-2.38107
 21
-0.300797
  0
LINE
  8
0
 10
-2.38107
 20
-0.300797
 11
-2.32458
 21
-0.596848
  0
LINE
  8
0
 10
-2.32458
 20
-0.596848
 11
-2.23146
 21
-0.883484
  0
LINE
  8
0
 10
-2.23146
 20
-0.883484
 11
-2.10313
 21
-1.1562
  0
LINE
  8
0
 10
-2.10313
 20
-1.1562
 11
-1.94164
 21
-1.41068
  0
LINE
  8
0
 10
-1.94164
 20
-1.41068
 11
-1.74951
 21
-1.6429
  0
LINE
  8
0
 10
-1.74951
 20
-1.6429
 11
-1.52982
 21
-1.84923
  0
LINE
  8
0
 10
-1.52982
 20
-1.84923
 11
-1.28598
 21
-2.02638
  0
LINE
  8
0
 10
-1.28598
 20
-2.02638
 11
-1.02187
 21
-2.17157
  0
LINE
  8
0
 10
-1.02187
 20
-2.17157
 11
-0.741638
 21
-2.28253
  0
LINE
  8
0
 10
-0.741638
 20
-2.28253
 11
-0.449707
 21
-2.35748
  0
LINE
  8
0
 10
-0.449707
 20
-2.35748
 11
-0.150696
 21
-2.39526
  0
LINE
  8
0
 10
-0.150696
 20
-2.39526
 11
0.150696
 21
-2.39526
  0
LINE
  8
0
 10
0.150696
 20
-2.39526
 11
0.449707
 21
-2.35748
  0
ENDSEC
  0
SECTION
  2
OBJECTS
  0
DICTIONARY
  0
ENDSEC
  0
EOF
