  0
SECTION
  2
BLOCKS
  0
ENDSEC
  0
SECTION
  2
ENTITIES
  0
LINE
  8
0
 10
10.4369
 20
137.089
 11
11.0451
 21
137.245
  0
LINE
  8
0
 10
11.0451
 20
137.245
 11
11.6289
 21
137.476
  0
LINE
  8
0
 10
11.6289
 20
137.476
 11
12.1791
 21
137.778
  0
LINE
  8
0
 10
12.1791
 20
137.778
 11
12.6871
 21
138.147
  0
LINE
  8
0
 10
12.6871
 20
138.147
 11
13.1448
 21
138.577
  0
LINE
  8
0
 10
13.1448
 20
138.577
 11
13.5451
 21
139.061
  0
LINE
  8
0
 10
13.5451
 20
139.061
 11
13.8815
 21
139.591
  0
LINE
  8
0
 10
13.8815
 20
139.591
 11
14.1489
 21
140.159
  0
LINE
  8
0
 10
14.1489
 20
140.159
 11
14.3429
 21
140.757
  0
LINE
  8
0
 10
14.3429
 20
140.757
 11
14.4606
 21
141.373
  0
LINE
  8
0
 10
14.4606
 20
141.373
 11
14.5
 21
142
  0
LINE
  8
0
 10
14.5
 20
142
 11
14.5
 21
146
  0
LINE
  8
0
 10
14.5
 20
146
 11
14.4606
 21
146.627
  0
LINE
  8
0
 10
14.4606
 20
146.627
 11
14.3429
 21
147.243
  0
LINE
  8
0
 10
14.3429
 20
147.243
 11
14.1489
 21
147.841
  0
LINE
  8
0
 10
14.1489
 20
147.841
 11
13.8815
 21
148.409
  0
LINE
  8
0
 10
13.8815
 20
148.409
 11
13.5451
 21
148.939
  0
LINE
  8
0
 10
13.5451
 20
148.939
 11
13.1448
 21
149.423
  0
LINE
  8
0
 10
13.1448
 20
149.423
 11
12.6871
 21
149.853
  0
LINE
  8
0
 10
12.6871
 20
149.853
 11
12.1791
 21
150.222
  0
LINE
  8
0
 10
12.1791
 20
150.222
 11
11.6289
 21
150.524
  0
LINE
  8
0
 10
11.6289
 20
150.524
 11
11.0451
 21
150.755
  0
LINE
  8
0
 10
11.0451
 20
150.755
 11
10.4369
 21
150.911
  0
LINE
  8
0
 10
10.4369
 20
150.911
 11
9.81395
 21
150.99
  0
LINE
  8
0
 10
9.81395
 20
150.99
 11
-9.81395
 21
150.99
  0
LINE
  8
0
 10
-9.81395
 20
150.99
 11
-10.4369
 21
150.911
  0
LINE
  8
0
 10
-10.4369
 20
150.911
 11
-11.0451
 21
150.755
  0
LINE
  8
0
 10
-11.0451
 20
150.755
 11
-11.6289
 21
150.524
  0
LINE
  8
0
 10
-11.6289
 20
150.524
 11
-12.1791
 21
150.222
  0
LINE
  8
0
 10
-12.1791
 20
150.222
 11
-12.6871
 21
149.853
  0
LINE
  8
0
 10
-12.6871
 20
149.853
 11
-13.1448
 21
149.423
  0
LINE
  8
0
 10
-13.1448
 20
149.423
 11
-13.5451
 21
148.939
  0
LINE
  8
0
 10
-13.5451
 20
148.939
 11
-13.8815
 21
148.409
  0
LINE
  8
0
 10
-13.8815
 20
148.409
 11
-14.1489
 21
147.841
  0
LINE
  8
0
 10
-14.1489
 20
147.841
 11
-14.3429
 21
147.243
  0
LINE
  8
0
 10
-14.3429
 20
147.243
 11
-14.4606
 21
146.627
  0
LINE
  8
0
 10
-14.4606
 20
146.627
 11
-14.5
 21
146
  0
LINE
  8
0
 10
-14.5
 20
146
 11
-14.5
 21
142
  0
LINE
  8
0
 10
-14.5
 20
142
 11
-14.4606
 21
141.373
  0
LINE
  8
0
 10
-14.4606
 20
141.373
 11
-14.3429
 21
140.757
  0
LINE
  8
0
 10
-14.3429
 20
140.757
 11
-14.1489
 21
140.159
  0
LINE
  8
0
 10
-14.1489
 20
140.159
 11
-13.8815
 21
139.591
  0
LINE
  8
0
 10
-13.8815
 20
139.591
 11
-13.5451
 21
139.061
  0
LINE
  8
0
 10
-13.5451
 20
139.061
 11
-13.1448
 21
138.577
  0
LINE
  8
0
 10
-13.1448
 20
138.577
 11
-12.6871
 21
138.147
  0
LINE
  8
0
 10
-12.6871
 20
138.147
 11
-12.1791
 21
137.778
  0
LINE
  8
0
 10
-12.1791
 20
137.778
 11
-11.6289
 21
137.476
  0
LINE
  8
0
 10
-11.6289
 20
137.476
 11
-11.0451
 21
137.245
  0
LINE
  8
0
 10
-11.0451
 20
137.245
 11
-10.4369
 21
137.089
  0
LINE
  8
0
 10
-10.4369
 20
137.089
 11
-9.81395
 21
137.01
  0
LINE
  8
0
 10
-9.81395
 20
137.01
 11
9.81395
 21
137.01
  0
LINE
  8
0
 10
9.81395
 20
137.01
 11
10.4369
 21
137.089
  0
LINE
  8
0
 10
-9.75116
 20
138.008
 11
-10.2495
 21
138.071
  0
LINE
  8
0
 10
-10.2495
 20
138.071
 11
-10.7361
 21
138.196
  0
LINE
  8
0
 10
-10.7361
 20
138.196
 11
-11.2031
 21
138.381
  0
LINE
  8
0
 10
-11.2031
 20
138.381
 11
-11.6433
 21
138.623
  0
LINE
  8
0
 10
-11.6433
 20
138.623
 11
-12.0497
 21
138.918
  0
LINE
  8
0
 10
-12.0497
 20
138.918
 11
-12.4159
 21
139.262
  0
LINE
  8
0
 10
-12.4159
 20
139.262
 11
-12.7361
 21
139.649
  0
LINE
  8
0
 10
-12.7361
 20
139.649
 11
-13.0052
 21
140.073
  0
LINE
  8
0
 10
-13.0052
 20
140.073
 11
-13.2191
 21
140.528
  0
LINE
  8
0
 10
-13.2191
 20
140.528
 11
-13.3743
 21
141.005
  0
LINE
  8
0
 10
-13.3743
 20
141.005
 11
-13.4684
 21
141.499
  0
LINE
  8
0
 10
-13.4684
 20
141.499
 11
-13.5
 21
142
  0
LINE
  8
0
 10
-13.5
 20
142
 11
-13.5
 21
146
  0
LINE
  8
0
 10
-13.5
 20
146
 11
-13.4684
 21
146.501
  0
LINE
  8
0
 10
-13.4684
 20
146.501
 11
-13.3743
 21
146.995
  0
LINE
  8
0
 10
-13.3743
 20
146.995
 11
-13.2191
 21
147.472
  0
LINE
  8
0
 10
-13.2191
 20
147.472
 11
-13.0052
 21
147.927
  0
LINE
  8
0
 10
-13.0052
 20
147.927
 11
-12.7361
 21
148.351
  0
LINE
  8
0
 10
-12.7361
 20
148.351
 11
-12.4159
 21
148.738
  0
LINE
  8
0
 10
-12.4159
 20
148.738
 11
-12.0497
 21
149.082
  0
LINE
  8
0
 10
-12.0497
 20
149.082
 11
-11.6433
 21
149.377
  0
LINE
  8
0
 10
-11.6433
 20
149.377
 11
-11.2031
 21
149.619
  0
LINE
  8
0
 10
-11.2031
 20
149.619
 11
-10.7361
 21
149.804
  0
LINE
  8
0
 10
-10.7361
 20
149.804
 11
-10.2495
 21
149.929
  0
LINE
  8
0
 10
-10.2495
 20
149.929
 11
-9.75116
 21
149.992
  0
LINE
  8
0
 10
-9.75116
 20
149.992
 11
9.75116
 21
149.992
  0
LINE
  8
0
 10
9.75116
 20
149.992
 11
10.2495
 21
149.929
  0
LINE
  8
0
 10
10.2495
 20
149.929
 11
10.7361
 21
149.804
  0
LINE
  8
0
 10
10.7361
 20
149.804
 11
11.2031
 21
149.619
  0
LINE
  8
0
 10
11.2031
 20
149.619
 11
11.6433
 21
149.377
  0
LINE
  8
0
 10
11.6433
 20
149.377
 11
12.0497
 21
149.082
  0
LINE
  8
0
 10
12.0497
 20
149.082
 11
12.4159
 21
148.738
  0
LINE
  8
0
 10
12.4159
 20
148.738
 11
12.7361
 21
148.351
  0
LINE
  8
0
 10
12.7361
 20
148.351
 11
13.0052
 21
147.927
  0
LINE
  8
0
 10
13.0052
 20
147.927
 11
13.2191
 21
147.472
  0
LINE
  8
0
 10
13.2191
 20
147.472
 11
13.3743
 21
146.995
  0
LINE
  8
0
 10
13.3743
 20
146.995
 11
13.4684
 21
146.501
  0
LINE
  8
0
 10
13.4684
 20
146.501
 11
13.5
 21
146
  0
LINE
  8
0
 10
13.5
 20
146
 11
13.5
 21
142
  0
LINE
  8
0
 10
13.5
 20
142
 11
13.4684
 21
141.499
  0
LINE
  8
0
 10
13.4684
 20
141.499
 11
13.3743
 21
141.005
  0
LINE
  8
0
 10
13.3743
 20
141.005
 11
13.2191
 21
140.528
  0
LINE
  8
0
 10
13.2191
 20
140.528
 11
13.0052
 21
140.073
  0
LINE
  8
0
 10
13.0052
 20
140.073
 11
12.7361
 21
139.649
  0
LINE
  8
0
 10
12.7361
 20
139.649
 11
12.4159
 21
139.262
  0
LINE
  8
0
 10
12.4159
 20
139.262
 11
12.0497
 21
138.918
  0
LINE
  8
0
 10
12.0497
 20
138.918
 11
11.6433
 21
138.623
  0
LINE
  8
0
 10
11.6433
 20
138.623
 11
11.2031
 21
138.381
  0
LINE
  8
0
 10
11.2031
 20
138.381
 11
10.7361
 21
138.196
  0
LINE
  8
0
 10
10.7361
 20
138.196
 11
10.2495
 21
138.071
  0
LINE
  8
0
 10
10.2495
 20
138.071
 11
9.75116
 21
138.008
  0
LINE
  8
0
 10
9.75116
 20
138.008
 11
-9.75116
 21
138.008
  0
LINE
  8
0
 10
10.4369
 20
113.089
 11
11.0451
 21
113.245
  0
LINE
  8
0
 10
11.0451
 20
113.245
 11
11.6289
 21
113.476
  0
LINE
  8
0
 10
11.6289
 20
113.476
 11
12.1791
 21
113.778
  0
LINE
  8
0
 10
12.1791
 20
113.778
 11
12.6871
 21
114.147
  0
LINE
  8
0
 10
12.6871
 20
114.147
 11
13.1448
 21
114.577
  0
LINE
  8
0
 10
13.1448
 20
114.577
 11
13.5451
 21
115.061
  0
LINE
  8
0
 10
13.5451
 20
115.061
 11
13.8815
 21
115.591
  0
LINE
  8
0
 10
13.8815
 20
115.591
 11
14.1489
 21
116.159
  0
LINE
  8
0
 10
14.1489
 20
116.159
 11
14.3429
 21
116.757
  0
LINE
  8
0
 10
14.3429
 20
116.757
 11
14.4606
 21
117.373
  0
LINE
  8
0
 10
14.4606
 20
117.373
 11
14.5
 21
118
  0
LINE
  8
0
 10
14.5
 20
118
 11
14.5
 21
122
  0
LINE
  8
0
 10
14.5
 20
122
 11
14.4606
 21
122.627
  0
LINE
  8
0
 10
14.4606
 20
122.627
 11
14.3429
 21
123.243
  0
LINE
  8
0
 10
14.3429
 20
123.243
 11
14.1489
 21
123.841
  0
LINE
  8
0
 10
14.1489
 20
123.841
 11
13.8815
 21
124.409
  0
LINE
  8
0
 10
13.8815
 20
124.409
 11
13.5451
 21
124.939
  0
LINE
  8
0
 10
13.5451
 20
124.939
 11
13.1448
 21
125.423
  0
LINE
  8
0
 10
13.1448
 20
125.423
 11
12.6871
 21
125.853
  0
LINE
  8
0
 10
12.6871
 20
125.853
 11
12.1791
 21
126.222
  0
LINE
  8
0
 10
12.1791
 20
126.222
 11
11.6289
 21
126.524
  0
LINE
  8
0
 10
11.6289
 20
126.524
 11
11.0451
 21
126.755
  0
LINE
  8
0
 10
11.0451
 20
126.755
 11
10.4369
 21
126.911
  0
LINE
  8
0
 10
10.4369
 20
126.911
 11
9.81395
 21
126.99
  0
LINE
  8
0
 10
9.81395
 20
126.99
 11
-9.81395
 21
126.99
  0
LINE
  8
0
 10
-9.81395
 20
126.99
 11
-10.4369
 21
126.911
  0
LINE
  8
0
 10
-10.4369
 20
126.911
 11
-11.0451
 21
126.755
  0
LINE
  8
0
 10
-11.0451
 20
126.755
 11
-11.6289
 21
126.524
  0
LINE
  8
0
 10
-11.6289
 20
126.524
 11
-12.1791
 21
126.222
  0
LINE
  8
0
 10
-12.1791
 20
126.222
 11
-12.6871
 21
125.853
  0
LINE
  8
0
 10
-12.6871
 20
125.853
 11
-13.1448
 21
125.423
  0
LINE
  8
0
 10
-13.1448
 20
125.423
 11
-13.5451
 21
124.939
  0
LINE
  8
0
 10
-13.5451
 20
124.939
 11
-13.8815
 21
124.409
  0
LINE
  8
0
 10
-13.8815
 20
124.409
 11
-14.1489
 21
123.841
  0
LINE
  8
0
 10
-14.1489
 20
123.841
 11
-14.3429
 21
123.243
  0
LINE
  8
0
 10
-14.3429
 20
123.243
 11
-14.4606
 21
122.627
  0
LINE
  8
0
 10
-14.4606
 20
122.627
 11
-14.5
 21
122
  0
LINE
  8
0
 10
-14.5
 20
122
 11
-14.5
 21
118
  0
LINE
  8
0
 10
-14.5
 20
118
 11
-14.4606
 21
117.373
  0
LINE
  8
0
 10
-14.4606
 20
117.373
 11
-14.3429
 21
116.757
  0
LINE
  8
0
 10
-14.3429
 20
116.757
 11
-14.1489
 21
116.159
  0
LINE
  8
0
 10
-14.1489
 20
116.159
 11
-13.8815
 21
115.591
  0
LINE
  8
0
 10
-13.8815
 20
115.591
 11
-13.5451
 21
115.061
  0
LINE
  8
0
 10
-13.5451
 20
115.061
 11
-13.1448
 21
114.577
  0
LINE
  8
0
 10
-13.1448
 20
114.577
 11
-12.6871
 21
114.147
  0
LINE
  8
0
 10
-12.6871
 20
114.147
 11
-12.1791
 21
113.778
  0
LINE
  8
0
 10
-12.1791
 20
113.778
 11
-11.6289
 21
113.476
  0
LINE
  8
0
 10
-11.6289
 20
113.476
 11
-11.0451
 21
113.245
  0
LINE
  8
0
 10
-11.0451
 20
113.245
 11
-10.4369
 21
113.089
  0
LINE
  8
0
 10
-10.4369
 20
113.089
 11
-9.81395
 21
113.01
  0
LINE
  8
0
 10
-9.81395
 20
113.01
 11
9.81395
 21
113.01
  0
LINE
  8
0
 10
9.81395
 20
113.01
 11
10.4369
 21
113.089
  0
LINE
  8
0
 10
-9.74316
 20
114.135
 11
-10.2256
 21
114.196
  0
LINE
  8
0
 10
-10.2256
 20
114.196
 11
-10.6967
 21
114.317
  0
LINE
  8
0
 10
-10.6967
 20
114.317
 11
-11.1489
 21
114.496
  0
LINE
  8
0
 10
-11.1489
 20
114.496
 11
-11.5751
 21
114.73
  0
LINE
  8
0
 10
-11.5751
 20
114.73
 11
-11.9685
 21
115.016
  0
LINE
  8
0
 10
-11.9685
 20
115.016
 11
-12.323
 21
115.349
  0
LINE
  8
0
 10
-12.323
 20
115.349
 11
-12.633
 21
115.724
  0
LINE
  8
0
 10
-12.633
 20
115.724
 11
-12.8936
 21
116.134
  0
LINE
  8
0
 10
-12.8936
 20
116.134
 11
-13.1007
 21
116.574
  0
LINE
  8
0
 10
-13.1007
 20
116.574
 11
-13.251
 21
117.037
  0
LINE
  8
0
 10
-13.251
 20
117.037
 11
-13.3421
 21
117.515
  0
LINE
  8
0
 10
-13.3421
 20
117.515
 11
-13.3726
 21
118
  0
LINE
  8
0
 10
-13.3726
 20
118
 11
-13.3726
 21
122
  0
LINE
  8
0
 10
-13.3726
 20
122
 11
-13.3421
 21
122.485
  0
LINE
  8
0
 10
-13.3421
 20
122.485
 11
-13.251
 21
122.963
  0
LINE
  8
0
 10
-13.251
 20
122.963
 11
-13.1007
 21
123.426
  0
LINE
  8
0
 10
-13.1007
 20
123.426
 11
-12.8936
 21
123.866
  0
LINE
  8
0
 10
-12.8936
 20
123.866
 11
-12.633
 21
124.276
  0
LINE
  8
0
 10
-12.633
 20
124.276
 11
-12.323
 21
124.651
  0
LINE
  8
0
 10
-12.323
 20
124.651
 11
-11.9685
 21
124.984
  0
LINE
  8
0
 10
-11.9685
 20
124.984
 11
-11.5751
 21
125.27
  0
LINE
  8
0
 10
-11.5751
 20
125.27
 11
-11.1489
 21
125.504
  0
LINE
  8
0
 10
-11.1489
 20
125.504
 11
-10.6967
 21
125.683
  0
LINE
  8
0
 10
-10.6967
 20
125.683
 11
-10.2256
 21
125.804
  0
LINE
  8
0
 10
-10.2256
 20
125.804
 11
-9.74316
 21
125.865
  0
LINE
  8
0
 10
-9.74316
 20
125.865
 11
9.74316
 21
125.865
  0
LINE
  8
0
 10
9.74316
 20
125.865
 11
10.2256
 21
125.804
  0
LINE
  8
0
 10
10.2256
 20
125.804
 11
10.6967
 21
125.683
  0
LINE
  8
0
 10
10.6967
 20
125.683
 11
11.1489
 21
125.504
  0
LINE
  8
0
 10
11.1489
 20
125.504
 11
11.5751
 21
125.27
  0
LINE
  8
0
 10
11.5751
 20
125.27
 11
11.9685
 21
124.984
  0
LINE
  8
0
 10
11.9685
 20
124.984
 11
12.323
 21
124.651
  0
LINE
  8
0
 10
12.323
 20
124.651
 11
12.633
 21
124.276
  0
LINE
  8
0
 10
12.633
 20
124.276
 11
12.8936
 21
123.866
  0
LINE
  8
0
 10
12.8936
 20
123.866
 11
13.1007
 21
123.426
  0
LINE
  8
0
 10
13.1007
 20
123.426
 11
13.251
 21
122.963
  0
LINE
  8
0
 10
13.251
 20
122.963
 11
13.3421
 21
122.485
  0
LINE
  8
0
 10
13.3421
 20
122.485
 11
13.3726
 21
122
  0
LINE
  8
0
 10
13.3726
 20
122
 11
13.3726
 21
118
  0
LINE
  8
0
 10
13.3726
 20
118
 11
13.3421
 21
117.515
  0
LINE
  8
0
 10
13.3421
 20
117.515
 11
13.251
 21
117.037
  0
LINE
  8
0
 10
13.251
 20
117.037
 11
13.1007
 21
116.574
  0
LINE
  8
0
 10
13.1007
 20
116.574
 11
12.8936
 21
116.134
  0
LINE
  8
0
 10
12.8936
 20
116.134
 11
12.633
 21
115.724
  0
LINE
  8
0
 10
12.633
 20
115.724
 11
12.323
 21
115.349
  0
LINE
  8
0
 10
12.323
 20
115.349
 11
11.9685
 21
115.016
  0
LINE
  8
0
 10
11.9685
 20
115.016
 11
11.5751
 21
114.73
  0
LINE
  8
0
 10
11.5751
 20
114.73
 11
11.1489
 21
114.496
  0
LINE
  8
0
 10
11.1489
 20
114.496
 11
10.6967
 21
114.317
  0
LINE
  8
0
 10
10.6967
 20
114.317
 11
10.2256
 21
114.196
  0
LINE
  8
0
 10
10.2256
 20
114.196
 11
9.74316
 21
114.135
  0
LINE
  8
0
 10
9.74316
 20
114.135
 11
-9.74316
 21
114.135
  0
LINE
  8
0
 10
10.4369
 20
89.0886
 11
11.0451
 21
89.2447
  0
LINE
  8
0
 10
11.0451
 20
89.2447
 11
11.6289
 21
89.4759
  0
LINE
  8
0
 10
11.6289
 20
89.4759
 11
12.1791
 21
89.7784
  0
LINE
  8
0
 10
12.1791
 20
89.7784
 11
12.6871
 21
90.1474
  0
LINE
  8
0
 10
12.6871
 20
90.1474
 11
13.1448
 21
90.5773
  0
LINE
  8
0
 10
13.1448
 20
90.5773
 11
13.5451
 21
91.0611
  0
LINE
  8
0
 10
13.5451
 20
91.0611
 11
13.8815
 21
91.5912
  0
LINE
  8
0
 10
13.8815
 20
91.5912
 11
14.1489
 21
92.1594
  0
LINE
  8
0
 10
14.1489
 20
92.1594
 11
14.3429
 21
92.7566
  0
LINE
  8
0
 10
14.3429
 20
92.7566
 11
14.4606
 21
93.3733
  0
LINE
  8
0
 10
14.4606
 20
93.3733
 11
14.5
 21
94
  0
LINE
  8
0
 10
14.5
 20
94
 11
14.5
 21
98
  0
LINE
  8
0
 10
14.5
 20
98
 11
14.4606
 21
98.6267
  0
LINE
  8
0
 10
14.4606
 20
98.6267
 11
14.3429
 21
99.2434
  0
LINE
  8
0
 10
14.3429
 20
99.2434
 11
14.1489
 21
99.8406
  0
LINE
  8
0
 10
14.1489
 20
99.8406
 11
13.8815
 21
100.409
  0
LINE
  8
0
 10
13.8815
 20
100.409
 11
13.5451
 21
100.939
  0
LINE
  8
0
 10
13.5451
 20
100.939
 11
13.1448
 21
101.423
  0
LINE
  8
0
 10
13.1448
 20
101.423
 11
12.6871
 21
101.853
  0
LINE
  8
0
 10
12.6871
 20
101.853
 11
12.1791
 21
102.222
  0
LINE
  8
0
 10
12.1791
 20
102.222
 11
11.6289
 21
102.524
  0
LINE
  8
0
 10
11.6289
 20
102.524
 11
11.0451
 21
102.755
  0
LINE
  8
0
 10
11.0451
 20
102.755
 11
10.4369
 21
102.911
  0
LINE
  8
0
 10
10.4369
 20
102.911
 11
9.81395
 21
102.99
  0
LINE
  8
0
 10
9.81395
 20
102.99
 11
-9.81395
 21
102.99
  0
LINE
  8
0
 10
-9.81395
 20
102.99
 11
-10.4369
 21
102.911
  0
LINE
  8
0
 10
-10.4369
 20
102.911
 11
-11.0451
 21
102.755
  0
LINE
  8
0
 10
-11.0451
 20
102.755
 11
-11.6289
 21
102.524
  0
LINE
  8
0
 10
-11.6289
 20
102.524
 11
-12.1791
 21
102.222
  0
LINE
  8
0
 10
-12.1791
 20
102.222
 11
-12.6871
 21
101.853
  0
LINE
  8
0
 10
-12.6871
 20
101.853
 11
-13.1448
 21
101.423
  0
LINE
  8
0
 10
-13.1448
 20
101.423
 11
-13.5451
 21
100.939
  0
LINE
  8
0
 10
-13.5451
 20
100.939
 11
-13.8815
 21
100.409
  0
LINE
  8
0
 10
-13.8815
 20
100.409
 11
-14.1489
 21
99.8406
  0
LINE
  8
0
 10
-14.1489
 20
99.8406
 11
-14.3429
 21
99.2434
  0
LINE
  8
0
 10
-14.3429
 20
99.2434
 11
-14.4606
 21
98.6267
  0
LINE
  8
0
 10
-14.4606
 20
98.6267
 11
-14.5
 21
98
  0
LINE
  8
0
 10
-14.5
 20
98
 11
-14.5
 21
94
  0
LINE
  8
0
 10
-14.5
 20
94
 11
-14.4606
 21
93.3733
  0
LINE
  8
0
 10
-14.4606
 20
93.3733
 11
-14.3429
 21
92.7566
  0
LINE
  8
0
 10
-14.3429
 20
92.7566
 11
-14.1489
 21
92.1594
  0
LINE
  8
0
 10
-14.1489
 20
92.1594
 11
-13.8815
 21
91.5912
  0
LINE
  8
0
 10
-13.8815
 20
91.5912
 11
-13.5451
 21
91.0611
  0
LINE
  8
0
 10
-13.5451
 20
91.0611
 11
-13.1448
 21
90.5773
  0
LINE
  8
0
 10
-13.1448
 20
90.5773
 11
-12.6871
 21
90.1474
  0
LINE
  8
0
 10
-12.6871
 20
90.1474
 11
-12.1791
 21
89.7784
  0
LINE
  8
0
 10
-12.1791
 20
89.7784
 11
-11.6289
 21
89.4759
  0
LINE
  8
0
 10
-11.6289
 20
89.4759
 11
-11.0451
 21
89.2447
  0
LINE
  8
0
 10
-11.0451
 20
89.2447
 11
-10.4369
 21
89.0886
  0
LINE
  8
0
 10
-10.4369
 20
89.0886
 11
-9.81395
 21
89.0099
  0
LINE
  8
0
 10
-9.81395
 20
89.0099
 11
9.81395
 21
89.0099
  0
LINE
  8
0
 10
9.81395
 20
89.0099
 11
10.4369
 21
89.0886
  0
LINE
  8
0
 10
10.4369
 20
65.0886
 11
11.0451
 21
65.2447
  0
LINE
  8
0
 10
11.0451
 20
65.2447
 11
11.6289
 21
65.4759
  0
LINE
  8
0
 10
11.6289
 20
65.4759
 11
12.1791
 21
65.7784
  0
LINE
  8
0
 10
12.1791
 20
65.7784
 11
12.6871
 21
66.1474
  0
LINE
  8
0
 10
12.6871
 20
66.1474
 11
13.1448
 21
66.5773
  0
LINE
  8
0
 10
13.1448
 20
66.5773
 11
13.5451
 21
67.0611
  0
LINE
  8
0
 10
13.5451
 20
67.0611
 11
13.8815
 21
67.5912
  0
LINE
  8
0
 10
13.8815
 20
67.5912
 11
14.1489
 21
68.1594
  0
LINE
  8
0
 10
14.1489
 20
68.1594
 11
14.3429
 21
68.7566
  0
LINE
  8
0
 10
14.3429
 20
68.7566
 11
14.4606
 21
69.3733
  0
LINE
  8
0
 10
14.4606
 20
69.3733
 11
14.5
 21
70
  0
LINE
  8
0
 10
14.5
 20
70
 11
14.5
 21
74
  0
LINE
  8
0
 10
14.5
 20
74
 11
14.4606
 21
74.6267
  0
LINE
  8
0
 10
14.4606
 20
74.6267
 11
14.3429
 21
75.2434
  0
LINE
  8
0
 10
14.3429
 20
75.2434
 11
14.1489
 21
75.8406
  0
LINE
  8
0
 10
14.1489
 20
75.8406
 11
13.8815
 21
76.4088
  0
LINE
  8
0
 10
13.8815
 20
76.4088
 11
13.5451
 21
76.9389
  0
LINE
  8
0
 10
13.5451
 20
76.9389
 11
13.1448
 21
77.4227
  0
LINE
  8
0
 10
13.1448
 20
77.4227
 11
12.6871
 21
77.8526
  0
LINE
  8
0
 10
12.6871
 20
77.8526
 11
12.1791
 21
78.2216
  0
LINE
  8
0
 10
12.1791
 20
78.2216
 11
11.6289
 21
78.5241
  0
LINE
  8
0
 10
11.6289
 20
78.5241
 11
11.0451
 21
78.7553
  0
LINE
  8
0
 10
11.0451
 20
78.7553
 11
10.4369
 21
78.9114
  0
LINE
  8
0
 10
10.4369
 20
78.9114
 11
9.81395
 21
78.9901
  0
LINE
  8
0
 10
9.81395
 20
78.9901
 11
-9.81395
 21
78.9901
  0
LINE
  8
0
 10
-9.81395
 20
78.9901
 11
-10.4369
 21
78.9114
  0
LINE
  8
0
 10
-10.4369
 20
78.9114
 11
-11.0451
 21
78.7553
  0
LINE
  8
0
 10
-11.0451
 20
78.7553
 11
-11.6289
 21
78.5241
  0
LINE
  8
0
 10
-11.6289
 20
78.5241
 11
-12.1791
 21
78.2216
  0
LINE
  8
0
 10
-12.1791
 20
78.2216
 11
-12.6871
 21
77.8526
  0
LINE
  8
0
 10
-12.6871
 20
77.8526
 11
-13.1448
 21
77.4227
  0
LINE
  8
0
 10
-13.1448
 20
77.4227
 11
-13.5451
 21
76.9389
  0
LINE
  8
0
 10
-13.5451
 20
76.9389
 11
-13.8815
 21
76.4088
  0
LINE
  8
0
 10
-13.8815
 20
76.4088
 11
-14.1489
 21
75.8406
  0
LINE
  8
0
 10
-14.1489
 20
75.8406
 11
-14.3429
 21
75.2434
  0
LINE
  8
0
 10
-14.3429
 20
75.2434
 11
-14.4606
 21
74.6267
  0
LINE
  8
0
 10
-14.4606
 20
74.6267
 11
-14.5
 21
74
  0
LINE
  8
0
 10
-14.5
 20
74
 11
-14.5
 21
70
  0
LINE
  8
0
 10
-14.5
 20
70
 11
-14.4606
 21
69.3733
  0
LINE
  8
0
 10
-14.4606
 20
69.3733
 11
-14.3429
 21
68.7566
  0
LINE
  8
0
 10
-14.3429
 20
68.7566
 11
-14.1489
 21
68.1594
  0
LINE
  8
0
 10
-14.1489
 20
68.1594
 11
-13.8815
 21
67.5912
  0
LINE
  8
0
 10
-13.8815
 20
67.5912
 11
-13.5451
 21
67.0611
  0
LINE
  8
0
 10
-13.5451
 20
67.0611
 11
-13.1448
 21
66.5773
  0
LINE
  8
0
 10
-13.1448
 20
66.5773
 11
-12.6871
 21
66.1474
  0
LINE
  8
0
 10
-12.6871
 20
66.1474
 11
-12.1791
 21
65.7784
  0
LINE
  8
0
 10
-12.1791
 20
65.7784
 11
-11.6289
 21
65.4759
  0
LINE
  8
0
 10
-11.6289
 20
65.4759
 11
-11.0451
 21
65.2447
  0
LINE
  8
0
 10
-11.0451
 20
65.2447
 11
-10.4369
 21
65.0886
  0
LINE
  8
0
 10
-10.4369
 20
65.0886
 11
-9.81395
 21
65.0099
  0
LINE
  8
0
 10
-9.81395
 20
65.0099
 11
9.81395
 21
65.0099
  0
LINE
  8
0
 10
9.81395
 20
65.0099
 11
10.4369
 21
65.0886
  0
LINE
  8
0
 10
7.34929
 20
69.6047
 11
7.05028
 21
69.6425
  0
LINE
  8
0
 10
7.05028
 20
69.6425
 11
6.75835
 21
69.7175
  0
LINE
  8
0
 10
6.75835
 20
69.7175
 11
6.47812
 21
69.8284
  0
LINE
  8
0
 10
6.47812
 20
69.8284
 11
6.214
 21
69.9736
  0
LINE
  8
0
 10
6.214
 20
69.9736
 11
5.97017
 21
70.1508
  0
LINE
  8
0
 10
5.97017
 20
70.1508
 11
5.75047
 21
70.3571
  0
LINE
  8
0
 10
5.75047
 20
70.3571
 11
5.55835
 21
70.5893
  0
LINE
  8
0
 10
5.55835
 20
70.5893
 11
5.39685
 21
70.8438
  0
LINE
  8
0
 10
5.39685
 20
70.8438
 11
5.26852
 21
71.1165
  0
LINE
  8
0
 10
5.26852
 20
71.1165
 11
5.1754
 21
71.4032
  0
LINE
  8
0
 10
5.1754
 20
71.4032
 11
5.11891
 21
71.6992
  0
LINE
  8
0
 10
5.11891
 20
71.6992
 11
5.09999
 21
72
  0
LINE
  8
0
 10
5.09999
 20
72
 11
5.11891
 21
72.3008
  0
LINE
  8
0
 10
5.11891
 20
72.3008
 11
5.1754
 21
72.5968
  0
LINE
  8
0
 10
5.1754
 20
72.5968
 11
5.26852
 21
72.8835
  0
LINE
  8
0
 10
5.26852
 20
72.8835
 11
5.39685
 21
73.1562
  0
LINE
  8
0
 10
5.39685
 20
73.1562
 11
5.55835
 21
73.4107
  0
LINE
  8
0
 10
5.55835
 20
73.4107
 11
5.75047
 21
73.6429
  0
LINE
  8
0
 10
5.75047
 20
73.6429
 11
5.97017
 21
73.8492
  0
LINE
  8
0
 10
5.97017
 20
73.8492
 11
6.214
 21
74.0264
  0
LINE
  8
0
 10
6.214
 20
74.0264
 11
6.47812
 21
74.1716
  0
LINE
  8
0
 10
6.47812
 20
74.1716
 11
6.75835
 21
74.2825
  0
LINE
  8
0
 10
6.75835
 20
74.2825
 11
7.05028
 21
74.3575
  0
LINE
  8
0
 10
7.05028
 20
74.3575
 11
7.34929
 21
74.3953
  0
LINE
  8
0
 10
7.34929
 20
74.3953
 11
7.6507
 21
74.3953
  0
LINE
  8
0
 10
7.6507
 20
74.3953
 11
7.94971
 21
74.3575
  0
LINE
  8
0
 10
7.94971
 20
74.3575
 11
8.24164
 21
74.2825
  0
LINE
  8
0
 10
8.24164
 20
74.2825
 11
8.52187
 21
74.1716
  0
LINE
  8
0
 10
8.52187
 20
74.1716
 11
8.78598
 21
74.0264
  0
LINE
  8
0
 10
8.78598
 20
74.0264
 11
9.02982
 21
73.8492
  0
LINE
  8
0
 10
9.02982
 20
73.8492
 11
9.24951
 21
73.6429
  0
LINE
  8
0
 10
9.24951
 20
73.6429
 11
9.44164
 21
73.4107
  0
LINE
  8
0
 10
9.44164
 20
73.4107
 11
9.60313
 21
73.1562
  0
LINE
  8
0
 10
9.60313
 20
73.1562
 11
9.73146
 21
72.8835
  0
LINE
  8
0
 10
9.73146
 20
72.8835
 11
9.82458
 21
72.5968
  0
LINE
  8
0
 10
9.82458
 20
72.5968
 11
9.88107
 21
72.3008
  0
LINE
  8
0
 10
9.88107
 20
72.3008
 11
9.89999
 21
72
  0
LINE
  8
0
 10
9.89999
 20
72
 11
9.88107
 21
71.6992
  0
LINE
  8
0
 10
9.88107
 20
71.6992
 11
9.82458
 21
71.4032
  0
LINE
  8
0
 10
9.82458
 20
71.4032
 11
9.73146
 21
71.1165
  0
LINE
  8
0
 10
9.73146
 20
71.1165
 11
9.60313
 21
70.8438
  0
LINE
  8
0
 10
9.60313
 20
70.8438
 11
9.44164
 21
70.5893
  0
LINE
  8
0
 10
9.44164
 20
70.5893
 11
9.24951
 21
70.3571
  0
LINE
  8
0
 10
9.24951
 20
70.3571
 11
9.02982
 21
70.1508
  0
LINE
  8
0
 10
9.02982
 20
70.1508
 11
8.78598
 21
69.9736
  0
LINE
  8
0
 10
8.78598
 20
69.9736
 11
8.52187
 21
69.8284
  0
LINE
  8
0
 10
8.52187
 20
69.8284
 11
8.24164
 21
69.7175
  0
LINE
  8
0
 10
8.24164
 20
69.7175
 11
7.94971
 21
69.6425
  0
LINE
  8
0
 10
7.94971
 20
69.6425
 11
7.6507
 21
69.6047
  0
LINE
  8
0
 10
7.6507
 20
69.6047
 11
7.34929
 21
69.6047
  0
LINE
  8
0
 10
-7.6507
 20
69.6047
 11
-7.94971
 21
69.6425
  0
LINE
  8
0
 10
-7.94971
 20
69.6425
 11
-8.24164
 21
69.7175
  0
LINE
  8
0
 10
-8.24164
 20
69.7175
 11
-8.52187
 21
69.8284
  0
LINE
  8
0
 10
-8.52187
 20
69.8284
 11
-8.78598
 21
69.9736
  0
LINE
  8
0
 10
-8.78598
 20
69.9736
 11
-9.02982
 21
70.1508
  0
LINE
  8
0
 10
-9.02982
 20
70.1508
 11
-9.24951
 21
70.3571
  0
LINE
  8
0
 10
-9.24951
 20
70.3571
 11
-9.44164
 21
70.5893
  0
LINE
  8
0
 10
-9.44164
 20
70.5893
 11
-9.60313
 21
70.8438
  0
LINE
  8
0
 10
-9.60313
 20
70.8438
 11
-9.73146
 21
71.1165
  0
LINE
  8
0
 10
-9.73146
 20
71.1165
 11
-9.82458
 21
71.4032
  0
LINE
  8
0
 10
-9.82458
 20
71.4032
 11
-9.88107
 21
71.6992
  0
LINE
  8
0
 10
-9.88107
 20
71.6992
 11
-9.89999
 21
72
  0
LINE
  8
0
 10
-9.89999
 20
72
 11
-9.88107
 21
72.3008
  0
LINE
  8
0
 10
-9.88107
 20
72.3008
 11
-9.82458
 21
72.5968
  0
LINE
  8
0
 10
-9.82458
 20
72.5968
 11
-9.73146
 21
72.8835
  0
LINE
  8
0
 10
-9.73146
 20
72.8835
 11
-9.60313
 21
73.1562
  0
LINE
  8
0
 10
-9.60313
 20
73.1562
 11
-9.44164
 21
73.4107
  0
LINE
  8
0
 10
-9.44164
 20
73.4107
 11
-9.24951
 21
73.6429
  0
LINE
  8
0
 10
-9.24951
 20
73.6429
 11
-9.02982
 21
73.8492
  0
LINE
  8
0
 10
-9.02982
 20
73.8492
 11
-8.78598
 21
74.0264
  0
LINE
  8
0
 10
-8.78598
 20
74.0264
 11
-8.52187
 21
74.1716
  0
LINE
  8
0
 10
-8.52187
 20
74.1716
 11
-8.24164
 21
74.2825
  0
LINE
  8
0
 10
-8.24164
 20
74.2825
 11
-7.94971
 21
74.3575
  0
LINE
  8
0
 10
-7.94971
 20
74.3575
 11
-7.6507
 21
74.3953
  0
LINE
  8
0
 10
-7.6507
 20
74.3953
 11
-7.34929
 21
74.3953
  0
LINE
  8
0
 10
-7.34929
 20
74.3953
 11
-7.05028
 21
74.3575
  0
LINE
  8
0
 10
-7.05028
 20
74.3575
 11
-6.75835
 21
74.2825
  0
LINE
  8
0
 10
-6.75835
 20
74.2825
 11
-6.47812
 21
74.1716
  0
LINE
  8
0
 10
-6.47812
 20
74.1716
 11
-6.214
 21
74.0264
  0
LINE
  8
0
 10
-6.214
 20
74.0264
 11
-5.97017
 21
73.8492
  0
LINE
  8
0
 10
-5.97017
 20
73.8492
 11
-5.75047
 21
73.6429
  0
LINE
  8
0
 10
-5.75047
 20
73.6429
 11
-5.55835
 21
73.4107
  0
LINE
  8
0
 10
-5.55835
 20
73.4107
 11
-5.39685
 21
73.1562
  0
LINE
  8
0
 10
-5.39685
 20
73.1562
 11
-5.26852
 21
72.8835
  0
LINE
  8
0
 10
-5.26852
 20
72.8835
 11
-5.1754
 21
72.5968
  0
LINE
  8
0
 10
-5.1754
 20
72.5968
 11
-5.11891
 21
72.3008
  0
LINE
  8
0
 10
-5.11891
 20
72.3008
 11
-5.09999
 21
72
  0
LINE
  8
0
 10
-5.09999
 20
72
 11
-5.11891
 21
71.6992
  0
LINE
  8
0
 10
-5.11891
 20
71.6992
 11
-5.1754
 21
71.4032
  0
LINE
  8
0
 10
-5.1754
 20
71.4032
 11
-5.26852
 21
71.1165
  0
LINE
  8
0
 10
-5.26852
 20
71.1165
 11
-5.39685
 21
70.8438
  0
LINE
  8
0
 10
-5.39685
 20
70.8438
 11
-5.55835
 21
70.5893
  0
LINE
  8
0
 10
-5.55835
 20
70.5893
 11
-5.75047
 21
70.3571
  0
LINE
  8
0
 10
-5.75047
 20
70.3571
 11
-5.97017
 21
70.1508
  0
LINE
  8
0
 10
-5.97017
 20
70.1508
 11
-6.214
 21
69.9736
  0
LINE
  8
0
 10
-6.214
 20
69.9736
 11
-6.47812
 21
69.8284
  0
LINE
  8
0
 10
-6.47812
 20
69.8284
 11
-6.75835
 21
69.7175
  0
LINE
  8
0
 10
-6.75835
 20
69.7175
 11
-7.05028
 21
69.6425
  0
LINE
  8
0
 10
-7.05028
 20
69.6425
 11
-7.34929
 21
69.6047
  0
LINE
  8
0
 10
-7.34929
 20
69.6047
 11
-7.6507
 21
69.6047
  0
ENDSEC
  0
SECTION
  2
OBJECTS
  0
DICTIONARY
  0
ENDSEC
  0
EOF
