  0
SECTION
  2
BLOCKS
  0
ENDSEC
  0
SECTION
  2
ENTITIES
  0
LINE
  8
0
 10
2.62334
 20
206.248
 11
4.32623
 21
206.685
  0
LINE
  8
0
 10
4.32623
 20
206.685
 11
5.96091
 21
207.332
  0
LINE
  8
0
 10
5.96091
 20
207.332
 11
7.50157
 21
208.179
  0
LINE
  8
0
 10
7.50157
 20
208.179
 11
8.92393
 21
209.213
  0
LINE
  8
0
 10
8.92393
 20
209.213
 11
10.2056
 21
210.416
  0
LINE
  8
0
 10
10.2056
 20
210.416
 11
11.3262
 21
211.771
  0
LINE
  8
0
 10
11.3262
 20
211.771
 11
12.2683
 21
213.255
  0
LINE
  8
0
 10
12.2683
 20
213.255
 11
13.0169
 21
214.846
  0
LINE
  8
0
 10
13.0169
 20
214.846
 11
13.5602
 21
216.518
  0
LINE
  8
0
 10
13.5602
 20
216.518
 11
13.8896
 21
218.245
  0
LINE
  8
0
 10
13.8896
 20
218.245
 11
14
 21
220
  0
LINE
  8
0
 10
14
 20
220
 11
13.8896
 21
221.755
  0
LINE
  8
0
 10
13.8896
 20
221.755
 11
13.5602
 21
223.482
  0
LINE
  8
0
 10
13.5602
 20
223.482
 11
13.0169
 21
225.154
  0
LINE
  8
0
 10
13.0169
 20
225.154
 11
12.2683
 21
226.745
  0
LINE
  8
0
 10
12.2683
 20
226.745
 11
11.3262
 21
228.229
  0
LINE
  8
0
 10
11.3262
 20
228.229
 11
10.2056
 21
229.584
  0
LINE
  8
0
 10
10.2056
 20
229.584
 11
8.92393
 21
230.787
  0
LINE
  8
0
 10
8.92393
 20
230.787
 11
7.50157
 21
231.821
  0
LINE
  8
0
 10
7.50157
 20
231.821
 11
5.96091
 21
232.668
  0
LINE
  8
0
 10
5.96091
 20
232.668
 11
4.32623
 21
233.315
  0
LINE
  8
0
 10
4.32623
 20
233.315
 11
2.62334
 21
233.752
  0
LINE
  8
0
 10
2.62334
 20
233.752
 11
0.879059
 21
233.972
  0
LINE
  8
0
 10
0.879059
 20
233.972
 11
-0.879059
 21
233.972
  0
LINE
  8
0
 10
-0.879059
 20
233.972
 11
-2.62334
 21
233.752
  0
LINE
  8
0
 10
-2.62334
 20
233.752
 11
-4.32623
 21
233.315
  0
LINE
  8
0
 10
-4.32623
 20
233.315
 11
-5.96091
 21
232.668
  0
LINE
  8
0
 10
-5.96091
 20
232.668
 11
-7.50157
 21
231.821
  0
LINE
  8
0
 10
-7.50157
 20
231.821
 11
-8.92393
 21
230.787
  0
LINE
  8
0
 10
-8.92393
 20
230.787
 11
-10.2056
 21
229.584
  0
LINE
  8
0
 10
-10.2056
 20
229.584
 11
-11.3262
 21
228.229
  0
LINE
  8
0
 10
-11.3262
 20
228.229
 11
-12.2683
 21
226.745
  0
LINE
  8
0
 10
-12.2683
 20
226.745
 11
-13.0169
 21
225.154
  0
LINE
  8
0
 10
-13.0169
 20
225.154
 11
-13.5602
 21
223.482
  0
LINE
  8
0
 10
-13.5602
 20
223.482
 11
-13.8896
 21
221.755
  0
LINE
  8
0
 10
-13.8896
 20
221.755
 11
-14
 21
220
  0
LINE
  8
0
 10
-14
 20
220
 11
-13.8896
 21
218.245
  0
LINE
  8
0
 10
-13.8896
 20
218.245
 11
-13.5602
 21
216.518
  0
LINE
  8
0
 10
-13.5602
 20
216.518
 11
-13.0169
 21
214.846
  0
LINE
  8
0
 10
-13.0169
 20
214.846
 11
-12.2683
 21
213.255
  0
LINE
  8
0
 10
-12.2683
 20
213.255
 11
-11.3262
 21
211.771
  0
LINE
  8
0
 10
-11.3262
 20
211.771
 11
-10.2056
 21
210.416
  0
LINE
  8
0
 10
-10.2056
 20
210.416
 11
-8.92393
 21
209.213
  0
LINE
  8
0
 10
-8.92393
 20
209.213
 11
-7.50157
 21
208.179
  0
LINE
  8
0
 10
-7.50157
 20
208.179
 11
-5.96091
 21
207.332
  0
LINE
  8
0
 10
-5.96091
 20
207.332
 11
-4.32623
 21
206.685
  0
LINE
  8
0
 10
-4.32623
 20
206.685
 11
-2.62334
 21
206.248
  0
LINE
  8
0
 10
-2.62334
 20
206.248
 11
-0.879059
 21
206.028
  0
LINE
  8
0
 10
-0.879059
 20
206.028
 11
0.879059
 21
206.028
  0
LINE
  8
0
 10
0.879059
 20
206.028
 11
2.62334
 21
206.248
  0
LINE
  8
0
 10
-0.219757
 20
224.007
 11
-0.655823
 21
224.062
  0
LINE
  8
0
 10
-0.655823
 20
224.062
 11
-1.08156
 21
224.171
  0
LINE
  8
0
 10
-1.08156
 20
224.171
 11
-1.49022
 21
224.333
  0
LINE
  8
0
 10
-1.49022
 20
224.333
 11
-1.87538
 21
224.545
  0
LINE
  8
0
 10
-1.87538
 20
224.545
 11
-2.23097
 21
224.803
  0
LINE
  8
0
 10
-2.23097
 20
224.803
 11
-2.55138
 21
225.104
  0
LINE
  8
0
 10
-2.55138
 20
225.104
 11
-2.83156
 21
225.443
  0
LINE
  8
0
 10
-2.83156
 20
225.443
 11
-3.06706
 21
225.814
  0
LINE
  8
0
 10
-3.06706
 20
225.814
 11
-3.25421
 21
226.212
  0
LINE
  8
0
 10
-3.25421
 20
226.212
 11
-3.39003
 21
226.63
  0
LINE
  8
0
 10
-3.39003
 20
226.63
 11
-3.4724
 21
227.061
  0
LINE
  8
0
 10
-3.4724
 20
227.061
 11
-3.5
 21
227.5
  0
LINE
  8
0
 10
-3.5
 20
227.5
 11
-3.4724
 21
227.939
  0
LINE
  8
0
 10
-3.4724
 20
227.939
 11
-3.39003
 21
228.37
  0
LINE
  8
0
 10
-3.39003
 20
228.37
 11
-3.25421
 21
228.788
  0
LINE
  8
0
 10
-3.25421
 20
228.788
 11
-3.06706
 21
229.186
  0
LINE
  8
0
 10
-3.06706
 20
229.186
 11
-2.83156
 21
229.557
  0
LINE
  8
0
 10
-2.83156
 20
229.557
 11
-2.55138
 21
229.896
  0
LINE
  8
0
 10
-2.55138
 20
229.896
 11
-2.23097
 21
230.197
  0
LINE
  8
0
 10
-2.23097
 20
230.197
 11
-1.87538
 21
230.455
  0
LINE
  8
0
 10
-1.87538
 20
230.455
 11
-1.49022
 21
230.667
  0
LINE
  8
0
 10
-1.49022
 20
230.667
 11
-1.08156
 21
230.829
  0
LINE
  8
0
 10
-1.08156
 20
230.829
 11
-0.655823
 21
230.938
  0
LINE
  8
0
 10
-0.655823
 20
230.938
 11
-0.219757
 21
230.993
  0
LINE
  8
0
 10
-0.219757
 20
230.993
 11
0.219757
 21
230.993
  0
LINE
  8
0
 10
0.219757
 20
230.993
 11
0.655823
 21
230.938
  0
LINE
  8
0
 10
0.655823
 20
230.938
 11
1.08156
 21
230.829
  0
LINE
  8
0
 10
1.08156
 20
230.829
 11
1.49022
 21
230.667
  0
LINE
  8
0
 10
1.49022
 20
230.667
 11
1.87538
 21
230.455
  0
LINE
  8
0
 10
1.87538
 20
230.455
 11
2.23097
 21
230.197
  0
LINE
  8
0
 10
2.23097
 20
230.197
 11
2.55138
 21
229.896
  0
LINE
  8
0
 10
2.55138
 20
229.896
 11
2.83156
 21
229.557
  0
LINE
  8
0
 10
2.83156
 20
229.557
 11
3.06706
 21
229.186
  0
LINE
  8
0
 10
3.06706
 20
229.186
 11
3.25421
 21
228.788
  0
LINE
  8
0
 10
3.25421
 20
228.788
 11
3.39003
 21
228.37
  0
LINE
  8
0
 10
3.39003
 20
228.37
 11
3.4724
 21
227.939
  0
LINE
  8
0
 10
3.4724
 20
227.939
 11
3.5
 21
227.5
  0
LINE
  8
0
 10
3.5
 20
227.5
 11
3.4724
 21
227.061
  0
LINE
  8
0
 10
3.4724
 20
227.061
 11
3.39003
 21
226.63
  0
LINE
  8
0
 10
3.39003
 20
226.63
 11
3.25421
 21
226.212
  0
LINE
  8
0
 10
3.25421
 20
226.212
 11
3.06706
 21
225.814
  0
LINE
  8
0
 10
3.06706
 20
225.814
 11
2.83156
 21
225.443
  0
LINE
  8
0
 10
2.83156
 20
225.443
 11
2.55138
 21
225.104
  0
LINE
  8
0
 10
2.55138
 20
225.104
 11
2.23097
 21
224.803
  0
LINE
  8
0
 10
2.23097
 20
224.803
 11
1.87538
 21
224.545
  0
LINE
  8
0
 10
1.87538
 20
224.545
 11
1.49022
 21
224.333
  0
LINE
  8
0
 10
1.49022
 20
224.333
 11
1.08156
 21
224.171
  0
LINE
  8
0
 10
1.08156
 20
224.171
 11
0.655823
 21
224.062
  0
LINE
  8
0
 10
0.655823
 20
224.062
 11
0.219757
 21
224.007
  0
LINE
  8
0
 10
0.219757
 20
224.007
 11
-0.219757
 21
224.007
  0
LINE
  8
0
 10
7.28023
 20
216.507
 11
6.84416
 21
216.562
  0
LINE
  8
0
 10
6.84416
 20
216.562
 11
6.41843
 21
216.671
  0
LINE
  8
0
 10
6.41843
 20
216.671
 11
6.00977
 21
216.833
  0
LINE
  8
0
 10
6.00977
 20
216.833
 11
5.6246
 21
217.045
  0
LINE
  8
0
 10
5.6246
 20
217.045
 11
5.26901
 21
217.303
  0
LINE
  8
0
 10
5.26901
 20
217.303
 11
4.94861
 21
217.604
  0
LINE
  8
0
 10
4.94861
 20
217.604
 11
4.66843
 21
217.943
  0
LINE
  8
0
 10
4.66843
 20
217.943
 11
4.43292
 21
218.314
  0
LINE
  8
0
 10
4.43292
 20
218.314
 11
4.24577
 21
218.712
  0
LINE
  8
0
 10
4.24577
 20
218.712
 11
4.10995
 21
219.13
  0
LINE
  8
0
 10
4.10995
 20
219.13
 11
4.02759
 21
219.561
  0
LINE
  8
0
 10
4.02759
 20
219.561
 11
4
 21
220
  0
LINE
  8
0
 10
4
 20
220
 11
4.02759
 21
220.439
  0
LINE
  8
0
 10
4.02759
 20
220.439
 11
4.10995
 21
220.87
  0
LINE
  8
0
 10
4.10995
 20
220.87
 11
4.24577
 21
221.288
  0
LINE
  8
0
 10
4.24577
 20
221.288
 11
4.43292
 21
221.686
  0
LINE
  8
0
 10
4.43292
 20
221.686
 11
4.66843
 21
222.057
  0
LINE
  8
0
 10
4.66843
 20
222.057
 11
4.94861
 21
222.396
  0
LINE
  8
0
 10
4.94861
 20
222.396
 11
5.26901
 21
222.697
  0
LINE
  8
0
 10
5.26901
 20
222.697
 11
5.6246
 21
222.955
  0
LINE
  8
0
 10
5.6246
 20
222.955
 11
6.00977
 21
223.167
  0
LINE
  8
0
 10
6.00977
 20
223.167
 11
6.41843
 21
223.329
  0
LINE
  8
0
 10
6.41843
 20
223.329
 11
6.84416
 21
223.438
  0
LINE
  8
0
 10
6.84416
 20
223.438
 11
7.28023
 21
223.493
  0
LINE
  8
0
 10
7.28023
 20
223.493
 11
7.71976
 21
223.493
  0
LINE
  8
0
 10
7.71976
 20
223.493
 11
8.15582
 21
223.438
  0
LINE
  8
0
 10
8.15582
 20
223.438
 11
8.58156
 21
223.329
  0
LINE
  8
0
 10
8.58156
 20
223.329
 11
8.99022
 21
223.167
  0
LINE
  8
0
 10
8.99022
 20
223.167
 11
9.37538
 21
222.955
  0
LINE
  8
0
 10
9.37538
 20
222.955
 11
9.73097
 21
222.697
  0
LINE
  8
0
 10
9.73097
 20
222.697
 11
10.0514
 21
222.396
  0
LINE
  8
0
 10
10.0514
 20
222.396
 11
10.3316
 21
222.057
  0
LINE
  8
0
 10
10.3316
 20
222.057
 11
10.5671
 21
221.686
  0
LINE
  8
0
 10
10.5671
 20
221.686
 11
10.7542
 21
221.288
  0
LINE
  8
0
 10
10.7542
 20
221.288
 11
10.89
 21
220.87
  0
LINE
  8
0
 10
10.89
 20
220.87
 11
10.9724
 21
220.439
  0
LINE
  8
0
 10
10.9724
 20
220.439
 11
11
 21
220
  0
LINE
  8
0
 10
11
 20
220
 11
10.9724
 21
219.561
  0
LINE
  8
0
 10
10.9724
 20
219.561
 11
10.89
 21
219.13
  0
LINE
  8
0
 10
10.89
 20
219.13
 11
10.7542
 21
218.712
  0
LINE
  8
0
 10
10.7542
 20
218.712
 11
10.5671
 21
218.314
  0
LINE
  8
0
 10
10.5671
 20
218.314
 11
10.3316
 21
217.943
  0
LINE
  8
0
 10
10.3316
 20
217.943
 11
10.0514
 21
217.604
  0
LINE
  8
0
 10
10.0514
 20
217.604
 11
9.73097
 21
217.303
  0
LINE
  8
0
 10
9.73097
 20
217.303
 11
9.37538
 21
217.045
  0
LINE
  8
0
 10
9.37538
 20
217.045
 11
8.99022
 21
216.833
  0
LINE
  8
0
 10
8.99022
 20
216.833
 11
8.58156
 21
216.671
  0
LINE
  8
0
 10
8.58156
 20
216.671
 11
8.15582
 21
216.562
  0
LINE
  8
0
 10
8.15582
 20
216.562
 11
7.71976
 21
216.507
  0
LINE
  8
0
 10
7.71976
 20
216.507
 11
7.28023
 21
216.507
  0
LINE
  8
0
 10
-7.71976
 20
216.507
 11
-8.15582
 21
216.562
  0
LINE
  8
0
 10
-8.15582
 20
216.562
 11
-8.58156
 21
216.671
  0
LINE
  8
0
 10
-8.58156
 20
216.671
 11
-8.99022
 21
216.833
  0
LINE
  8
0
 10
-8.99022
 20
216.833
 11
-9.37538
 21
217.045
  0
LINE
  8
0
 10
-9.37538
 20
217.045
 11
-9.73097
 21
217.303
  0
LINE
  8
0
 10
-9.73097
 20
217.303
 11
-10.0514
 21
217.604
  0
LINE
  8
0
 10
-10.0514
 20
217.604
 11
-10.3316
 21
217.943
  0
LINE
  8
0
 10
-10.3316
 20
217.943
 11
-10.5671
 21
218.314
  0
LINE
  8
0
 10
-10.5671
 20
218.314
 11
-10.7542
 21
218.712
  0
LINE
  8
0
 10
-10.7542
 20
218.712
 11
-10.89
 21
219.13
  0
LINE
  8
0
 10
-10.89
 20
219.13
 11
-10.9724
 21
219.561
  0
LINE
  8
0
 10
-10.9724
 20
219.561
 11
-11
 21
220
  0
LINE
  8
0
 10
-11
 20
220
 11
-10.9724
 21
220.439
  0
LINE
  8
0
 10
-10.9724
 20
220.439
 11
-10.89
 21
220.87
  0
LINE
  8
0
 10
-10.89
 20
220.87
 11
-10.7542
 21
221.288
  0
LINE
  8
0
 10
-10.7542
 20
221.288
 11
-10.5671
 21
221.686
  0
LINE
  8
0
 10
-10.5671
 20
221.686
 11
-10.3316
 21
222.057
  0
LINE
  8
0
 10
-10.3316
 20
222.057
 11
-10.0514
 21
222.396
  0
LINE
  8
0
 10
-10.0514
 20
222.396
 11
-9.73097
 21
222.697
  0
LINE
  8
0
 10
-9.73097
 20
222.697
 11
-9.37538
 21
222.955
  0
LINE
  8
0
 10
-9.37538
 20
222.955
 11
-8.99022
 21
223.167
  0
LINE
  8
0
 10
-8.99022
 20
223.167
 11
-8.58156
 21
223.329
  0
LINE
  8
0
 10
-8.58156
 20
223.329
 11
-8.15582
 21
223.438
  0
LINE
  8
0
 10
-8.15582
 20
223.438
 11
-7.71976
 21
223.493
  0
LINE
  8
0
 10
-7.71976
 20
223.493
 11
-7.28023
 21
223.493
  0
LINE
  8
0
 10
-7.28023
 20
223.493
 11
-6.84416
 21
223.438
  0
LINE
  8
0
 10
-6.84416
 20
223.438
 11
-6.41843
 21
223.329
  0
LINE
  8
0
 10
-6.41843
 20
223.329
 11
-6.00977
 21
223.167
  0
LINE
  8
0
 10
-6.00977
 20
223.167
 11
-5.6246
 21
222.955
  0
LINE
  8
0
 10
-5.6246
 20
222.955
 11
-5.26901
 21
222.697
  0
LINE
  8
0
 10
-5.26901
 20
222.697
 11
-4.94861
 21
222.396
  0
LINE
  8
0
 10
-4.94861
 20
222.396
 11
-4.66843
 21
222.057
  0
LINE
  8
0
 10
-4.66843
 20
222.057
 11
-4.43292
 21
221.686
  0
LINE
  8
0
 10
-4.43292
 20
221.686
 11
-4.24577
 21
221.288
  0
LINE
  8
0
 10
-4.24577
 20
221.288
 11
-4.10995
 21
220.87
  0
LINE
  8
0
 10
-4.10995
 20
220.87
 11
-4.02759
 21
220.439
  0
LINE
  8
0
 10
-4.02759
 20
220.439
 11
-4
 21
220
  0
LINE
  8
0
 10
-4
 20
220
 11
-4.02759
 21
219.561
  0
LINE
  8
0
 10
-4.02759
 20
219.561
 11
-4.10995
 21
219.13
  0
LINE
  8
0
 10
-4.10995
 20
219.13
 11
-4.24577
 21
218.712
  0
LINE
  8
0
 10
-4.24577
 20
218.712
 11
-4.43292
 21
218.314
  0
LINE
  8
0
 10
-4.43292
 20
218.314
 11
-4.66843
 21
217.943
  0
LINE
  8
0
 10
-4.66843
 20
217.943
 11
-4.94861
 21
217.604
  0
LINE
  8
0
 10
-4.94861
 20
217.604
 11
-5.26901
 21
217.303
  0
LINE
  8
0
 10
-5.26901
 20
217.303
 11
-5.6246
 21
217.045
  0
LINE
  8
0
 10
-5.6246
 20
217.045
 11
-6.00977
 21
216.833
  0
LINE
  8
0
 10
-6.00977
 20
216.833
 11
-6.41843
 21
216.671
  0
LINE
  8
0
 10
-6.41843
 20
216.671
 11
-6.84416
 21
216.562
  0
LINE
  8
0
 10
-6.84416
 20
216.562
 11
-7.28023
 21
216.507
  0
LINE
  8
0
 10
-7.28023
 20
216.507
 11
-7.71976
 21
216.507
  0
LINE
  8
0
 10
-0.18837
 20
217.006
 11
-0.562134
 21
217.053
  0
LINE
  8
0
 10
-0.562134
 20
217.053
 11
-0.927048
 21
217.147
  0
LINE
  8
0
 10
-0.927048
 20
217.147
 11
-1.27733
 21
217.286
  0
LINE
  8
0
 10
-1.27733
 20
217.286
 11
-1.60747
 21
217.467
  0
LINE
  8
0
 10
-1.60747
 20
217.467
 11
-1.91226
 21
217.688
  0
LINE
  8
0
 10
-1.91226
 20
217.688
 11
-2.1869
 21
217.946
  0
LINE
  8
0
 10
-2.1869
 20
217.946
 11
-2.42705
 21
218.237
  0
LINE
  8
0
 10
-2.42705
 20
218.237
 11
-2.62891
 21
218.555
  0
LINE
  8
0
 10
-2.62891
 20
218.555
 11
-2.78932
 21
218.896
  0
LINE
  8
0
 10
-2.78932
 20
218.896
 11
-2.90575
 21
219.254
  0
LINE
  8
0
 10
-2.90575
 20
219.254
 11
-2.97633
 21
219.624
  0
LINE
  8
0
 10
-2.97633
 20
219.624
 11
-3
 21
220
  0
LINE
  8
0
 10
-3
 20
220
 11
-2.97633
 21
220.376
  0
LINE
  8
0
 10
-2.97633
 20
220.376
 11
-2.90575
 21
220.746
  0
LINE
  8
0
 10
-2.90575
 20
220.746
 11
-2.78932
 21
221.104
  0
LINE
  8
0
 10
-2.78932
 20
221.104
 11
-2.62891
 21
221.445
  0
LINE
  8
0
 10
-2.62891
 20
221.445
 11
-2.42705
 21
221.763
  0
LINE
  8
0
 10
-2.42705
 20
221.763
 11
-2.1869
 21
222.054
  0
LINE
  8
0
 10
-2.1869
 20
222.054
 11
-1.91226
 21
222.312
  0
LINE
  8
0
 10
-1.91226
 20
222.312
 11
-1.60747
 21
222.533
  0
LINE
  8
0
 10
-1.60747
 20
222.533
 11
-1.27733
 21
222.714
  0
LINE
  8
0
 10
-1.27733
 20
222.714
 11
-0.927048
 21
222.853
  0
LINE
  8
0
 10
-0.927048
 20
222.853
 11
-0.562134
 21
222.947
  0
LINE
  8
0
 10
-0.562134
 20
222.947
 11
-0.18837
 21
222.994
  0
LINE
  8
0
 10
-0.18837
 20
222.994
 11
0.18837
 21
222.994
  0
LINE
  8
0
 10
0.18837
 20
222.994
 11
0.562134
 21
222.947
  0
LINE
  8
0
 10
0.562134
 20
222.947
 11
0.927048
 21
222.853
  0
LINE
  8
0
 10
0.927048
 20
222.853
 11
1.27733
 21
222.714
  0
LINE
  8
0
 10
1.27733
 20
222.714
 11
1.60747
 21
222.533
  0
LINE
  8
0
 10
1.60747
 20
222.533
 11
1.91226
 21
222.312
  0
LINE
  8
0
 10
1.91226
 20
222.312
 11
2.1869
 21
222.054
  0
LINE
  8
0
 10
2.1869
 20
222.054
 11
2.42705
 21
221.763
  0
LINE
  8
0
 10
2.42705
 20
221.763
 11
2.62891
 21
221.445
  0
LINE
  8
0
 10
2.62891
 20
221.445
 11
2.78932
 21
221.104
  0
LINE
  8
0
 10
2.78932
 20
221.104
 11
2.90575
 21
220.746
  0
LINE
  8
0
 10
2.90575
 20
220.746
 11
2.97633
 21
220.376
  0
LINE
  8
0
 10
2.97633
 20
220.376
 11
3
 21
220
  0
LINE
  8
0
 10
3
 20
220
 11
2.97633
 21
219.624
  0
LINE
  8
0
 10
2.97633
 20
219.624
 11
2.90575
 21
219.254
  0
LINE
  8
0
 10
2.90575
 20
219.254
 11
2.78932
 21
218.896
  0
LINE
  8
0
 10
2.78932
 20
218.896
 11
2.62891
 21
218.555
  0
LINE
  8
0
 10
2.62891
 20
218.555
 11
2.42705
 21
218.237
  0
LINE
  8
0
 10
2.42705
 20
218.237
 11
2.1869
 21
217.946
  0
LINE
  8
0
 10
2.1869
 20
217.946
 11
1.91226
 21
217.688
  0
LINE
  8
0
 10
1.91226
 20
217.688
 11
1.60747
 21
217.467
  0
LINE
  8
0
 10
1.60747
 20
217.467
 11
1.27733
 21
217.286
  0
LINE
  8
0
 10
1.27733
 20
217.286
 11
0.927048
 21
217.147
  0
LINE
  8
0
 10
0.927048
 20
217.147
 11
0.562134
 21
217.053
  0
LINE
  8
0
 10
0.562134
 20
217.053
 11
0.18837
 21
217.006
  0
LINE
  8
0
 10
0.18837
 20
217.006
 11
-0.18837
 21
217.006
  0
LINE
  8
0
 10
-0.219757
 20
209.007
 11
-0.655823
 21
209.062
  0
LINE
  8
0
 10
-0.655823
 20
209.062
 11
-1.08156
 21
209.171
  0
LINE
  8
0
 10
-1.08156
 20
209.171
 11
-1.49022
 21
209.333
  0
LINE
  8
0
 10
-1.49022
 20
209.333
 11
-1.87538
 21
209.545
  0
LINE
  8
0
 10
-1.87538
 20
209.545
 11
-2.23097
 21
209.803
  0
LINE
  8
0
 10
-2.23097
 20
209.803
 11
-2.55138
 21
210.104
  0
LINE
  8
0
 10
-2.55138
 20
210.104
 11
-2.83156
 21
210.443
  0
LINE
  8
0
 10
-2.83156
 20
210.443
 11
-3.06706
 21
210.814
  0
LINE
  8
0
 10
-3.06706
 20
210.814
 11
-3.25421
 21
211.212
  0
LINE
  8
0
 10
-3.25421
 20
211.212
 11
-3.39003
 21
211.63
  0
LINE
  8
0
 10
-3.39003
 20
211.63
 11
-3.4724
 21
212.061
  0
LINE
  8
0
 10
-3.4724
 20
212.061
 11
-3.5
 21
212.5
  0
LINE
  8
0
 10
-3.5
 20
212.5
 11
-3.4724
 21
212.939
  0
LINE
  8
0
 10
-3.4724
 20
212.939
 11
-3.39003
 21
213.37
  0
LINE
  8
0
 10
-3.39003
 20
213.37
 11
-3.25421
 21
213.788
  0
LINE
  8
0
 10
-3.25421
 20
213.788
 11
-3.06706
 21
214.186
  0
LINE
  8
0
 10
-3.06706
 20
214.186
 11
-2.83156
 21
214.557
  0
LINE
  8
0
 10
-2.83156
 20
214.557
 11
-2.55138
 21
214.896
  0
LINE
  8
0
 10
-2.55138
 20
214.896
 11
-2.23097
 21
215.197
  0
LINE
  8
0
 10
-2.23097
 20
215.197
 11
-1.87538
 21
215.455
  0
LINE
  8
0
 10
-1.87538
 20
215.455
 11
-1.49022
 21
215.667
  0
LINE
  8
0
 10
-1.49022
 20
215.667
 11
-1.08156
 21
215.829
  0
LINE
  8
0
 10
-1.08156
 20
215.829
 11
-0.655823
 21
215.938
  0
LINE
  8
0
 10
-0.655823
 20
215.938
 11
-0.219757
 21
215.993
  0
LINE
  8
0
 10
-0.219757
 20
215.993
 11
0.219757
 21
215.993
  0
LINE
  8
0
 10
0.219757
 20
215.993
 11
0.655823
 21
215.938
  0
LINE
  8
0
 10
0.655823
 20
215.938
 11
1.08156
 21
215.829
  0
LINE
  8
0
 10
1.08156
 20
215.829
 11
1.49022
 21
215.667
  0
LINE
  8
0
 10
1.49022
 20
215.667
 11
1.87538
 21
215.455
  0
LINE
  8
0
 10
1.87538
 20
215.455
 11
2.23097
 21
215.197
  0
LINE
  8
0
 10
2.23097
 20
215.197
 11
2.55138
 21
214.896
  0
LINE
  8
0
 10
2.55138
 20
214.896
 11
2.83156
 21
214.557
  0
LINE
  8
0
 10
2.83156
 20
214.557
 11
3.06706
 21
214.186
  0
LINE
  8
0
 10
3.06706
 20
214.186
 11
3.25421
 21
213.788
  0
LINE
  8
0
 10
3.25421
 20
213.788
 11
3.39003
 21
213.37
  0
LINE
  8
0
 10
3.39003
 20
213.37
 11
3.4724
 21
212.939
  0
LINE
  8
0
 10
3.4724
 20
212.939
 11
3.5
 21
212.5
  0
LINE
  8
0
 10
3.5
 20
212.5
 11
3.4724
 21
212.061
  0
LINE
  8
0
 10
3.4724
 20
212.061
 11
3.39003
 21
211.63
  0
LINE
  8
0
 10
3.39003
 20
211.63
 11
3.25421
 21
211.212
  0
LINE
  8
0
 10
3.25421
 20
211.212
 11
3.06706
 21
210.814
  0
LINE
  8
0
 10
3.06706
 20
210.814
 11
2.83156
 21
210.443
  0
LINE
  8
0
 10
2.83156
 20
210.443
 11
2.55138
 21
210.104
  0
LINE
  8
0
 10
2.55138
 20
210.104
 11
2.23097
 21
209.803
  0
LINE
  8
0
 10
2.23097
 20
209.803
 11
1.87538
 21
209.545
  0
LINE
  8
0
 10
1.87538
 20
209.545
 11
1.49022
 21
209.333
  0
LINE
  8
0
 10
1.49022
 20
209.333
 11
1.08156
 21
209.171
  0
LINE
  8
0
 10
1.08156
 20
209.171
 11
0.655823
 21
209.062
  0
LINE
  8
0
 10
0.655823
 20
209.062
 11
0.219757
 21
209.007
  0
LINE
  8
0
 10
0.219757
 20
209.007
 11
-0.219757
 21
209.007
  0
LINE
  8
0
 10
2.62334
 20
96.248
 11
4.32623
 21
96.6852
  0
LINE
  8
0
 10
4.32623
 20
96.6852
 11
5.96091
 21
97.3324
  0
LINE
  8
0
 10
5.96091
 20
97.3324
 11
7.50157
 21
98.1794
  0
LINE
  8
0
 10
7.50157
 20
98.1794
 11
8.92393
 21
99.2128
  0
LINE
  8
0
 10
8.92393
 20
99.2128
 11
10.2056
 21
100.416
  0
LINE
  8
0
 10
10.2056
 20
100.416
 11
11.3262
 21
101.771
  0
LINE
  8
0
 10
11.3262
 20
101.771
 11
12.2683
 21
103.255
  0
LINE
  8
0
 10
12.2683
 20
103.255
 11
13.0169
 21
104.846
  0
LINE
  8
0
 10
13.0169
 20
104.846
 11
13.5602
 21
106.518
  0
LINE
  8
0
 10
13.5602
 20
106.518
 11
13.8896
 21
108.245
  0
LINE
  8
0
 10
13.8896
 20
108.245
 11
14
 21
110
  0
LINE
  8
0
 10
14
 20
110
 11
13.8896
 21
111.755
  0
LINE
  8
0
 10
13.8896
 20
111.755
 11
13.5602
 21
113.482
  0
LINE
  8
0
 10
13.5602
 20
113.482
 11
13.0169
 21
115.154
  0
LINE
  8
0
 10
13.0169
 20
115.154
 11
12.2683
 21
116.745
  0
LINE
  8
0
 10
12.2683
 20
116.745
 11
11.3262
 21
118.229
  0
LINE
  8
0
 10
11.3262
 20
118.229
 11
10.2056
 21
119.584
  0
LINE
  8
0
 10
10.2056
 20
119.584
 11
8.92393
 21
120.787
  0
LINE
  8
0
 10
8.92393
 20
120.787
 11
7.50157
 21
121.821
  0
LINE
  8
0
 10
7.50157
 20
121.821
 11
5.96091
 21
122.668
  0
LINE
  8
0
 10
5.96091
 20
122.668
 11
4.32623
 21
123.315
  0
LINE
  8
0
 10
4.32623
 20
123.315
 11
2.62334
 21
123.752
  0
LINE
  8
0
 10
2.62334
 20
123.752
 11
0.879059
 21
123.972
  0
LINE
  8
0
 10
0.879059
 20
123.972
 11
-0.879059
 21
123.972
  0
LINE
  8
0
 10
-0.879059
 20
123.972
 11
-2.62334
 21
123.752
  0
LINE
  8
0
 10
-2.62334
 20
123.752
 11
-4.32623
 21
123.315
  0
LINE
  8
0
 10
-4.32623
 20
123.315
 11
-5.96091
 21
122.668
  0
LINE
  8
0
 10
-5.96091
 20
122.668
 11
-7.50157
 21
121.821
  0
LINE
  8
0
 10
-7.50157
 20
121.821
 11
-8.92393
 21
120.787
  0
LINE
  8
0
 10
-8.92393
 20
120.787
 11
-10.2056
 21
119.584
  0
LINE
  8
0
 10
-10.2056
 20
119.584
 11
-11.3262
 21
118.229
  0
LINE
  8
0
 10
-11.3262
 20
118.229
 11
-12.2683
 21
116.745
  0
LINE
  8
0
 10
-12.2683
 20
116.745
 11
-13.0169
 21
115.154
  0
LINE
  8
0
 10
-13.0169
 20
115.154
 11
-13.5602
 21
113.482
  0
LINE
  8
0
 10
-13.5602
 20
113.482
 11
-13.8896
 21
111.755
  0
LINE
  8
0
 10
-13.8896
 20
111.755
 11
-14
 21
110
  0
LINE
  8
0
 10
-14
 20
110
 11
-13.8896
 21
108.245
  0
LINE
  8
0
 10
-13.8896
 20
108.245
 11
-13.5602
 21
106.518
  0
LINE
  8
0
 10
-13.5602
 20
106.518
 11
-13.0169
 21
104.846
  0
LINE
  8
0
 10
-13.0169
 20
104.846
 11
-12.2683
 21
103.255
  0
LINE
  8
0
 10
-12.2683
 20
103.255
 11
-11.3262
 21
101.771
  0
LINE
  8
0
 10
-11.3262
 20
101.771
 11
-10.2056
 21
100.416
  0
LINE
  8
0
 10
-10.2056
 20
100.416
 11
-8.92393
 21
99.2128
  0
LINE
  8
0
 10
-8.92393
 20
99.2128
 11
-7.50157
 21
98.1794
  0
LINE
  8
0
 10
-7.50157
 20
98.1794
 11
-5.96091
 21
97.3324
  0
LINE
  8
0
 10
-5.96091
 20
97.3324
 11
-4.32623
 21
96.6852
  0
LINE
  8
0
 10
-4.32623
 20
96.6852
 11
-2.62334
 21
96.248
  0
LINE
  8
0
 10
-2.62334
 20
96.248
 11
-0.879059
 21
96.0276
  0
LINE
  8
0
 10
-0.879059
 20
96.0276
 11
0.879059
 21
96.0276
  0
LINE
  8
0
 10
0.879059
 20
96.0276
 11
2.62334
 21
96.248
  0
LINE
  8
0
 10
-0.219757
 20
114.007
 11
-0.655823
 21
114.062
  0
LINE
  8
0
 10
-0.655823
 20
114.062
 11
-1.08156
 21
114.171
  0
LINE
  8
0
 10
-1.08156
 20
114.171
 11
-1.49022
 21
114.333
  0
LINE
  8
0
 10
-1.49022
 20
114.333
 11
-1.87538
 21
114.545
  0
LINE
  8
0
 10
-1.87538
 20
114.545
 11
-2.23097
 21
114.803
  0
LINE
  8
0
 10
-2.23097
 20
114.803
 11
-2.55138
 21
115.104
  0
LINE
  8
0
 10
-2.55138
 20
115.104
 11
-2.83156
 21
115.443
  0
LINE
  8
0
 10
-2.83156
 20
115.443
 11
-3.06706
 21
115.814
  0
LINE
  8
0
 10
-3.06706
 20
115.814
 11
-3.25421
 21
116.212
  0
LINE
  8
0
 10
-3.25421
 20
116.212
 11
-3.39003
 21
116.63
  0
LINE
  8
0
 10
-3.39003
 20
116.63
 11
-3.4724
 21
117.061
  0
LINE
  8
0
 10
-3.4724
 20
117.061
 11
-3.5
 21
117.5
  0
LINE
  8
0
 10
-3.5
 20
117.5
 11
-3.4724
 21
117.939
  0
LINE
  8
0
 10
-3.4724
 20
117.939
 11
-3.39003
 21
118.37
  0
LINE
  8
0
 10
-3.39003
 20
118.37
 11
-3.25421
 21
118.788
  0
LINE
  8
0
 10
-3.25421
 20
118.788
 11
-3.06706
 21
119.186
  0
LINE
  8
0
 10
-3.06706
 20
119.186
 11
-2.83156
 21
119.557
  0
LINE
  8
0
 10
-2.83156
 20
119.557
 11
-2.55138
 21
119.896
  0
LINE
  8
0
 10
-2.55138
 20
119.896
 11
-2.23097
 21
120.197
  0
LINE
  8
0
 10
-2.23097
 20
120.197
 11
-1.87538
 21
120.455
  0
LINE
  8
0
 10
-1.87538
 20
120.455
 11
-1.49022
 21
120.667
  0
LINE
  8
0
 10
-1.49022
 20
120.667
 11
-1.08156
 21
120.829
  0
LINE
  8
0
 10
-1.08156
 20
120.829
 11
-0.655823
 21
120.938
  0
LINE
  8
0
 10
-0.655823
 20
120.938
 11
-0.219757
 21
120.993
  0
LINE
  8
0
 10
-0.219757
 20
120.993
 11
0.219757
 21
120.993
  0
LINE
  8
0
 10
0.219757
 20
120.993
 11
0.655823
 21
120.938
  0
LINE
  8
0
 10
0.655823
 20
120.938
 11
1.08156
 21
120.829
  0
LINE
  8
0
 10
1.08156
 20
120.829
 11
1.49022
 21
120.667
  0
LINE
  8
0
 10
1.49022
 20
120.667
 11
1.87538
 21
120.455
  0
LINE
  8
0
 10
1.87538
 20
120.455
 11
2.23097
 21
120.197
  0
LINE
  8
0
 10
2.23097
 20
120.197
 11
2.55138
 21
119.896
  0
LINE
  8
0
 10
2.55138
 20
119.896
 11
2.83156
 21
119.557
  0
LINE
  8
0
 10
2.83156
 20
119.557
 11
3.06706
 21
119.186
  0
LINE
  8
0
 10
3.06706
 20
119.186
 11
3.25421
 21
118.788
  0
LINE
  8
0
 10
3.25421
 20
118.788
 11
3.39003
 21
118.37
  0
LINE
  8
0
 10
3.39003
 20
118.37
 11
3.4724
 21
117.939
  0
LINE
  8
0
 10
3.4724
 20
117.939
 11
3.5
 21
117.5
  0
LINE
  8
0
 10
3.5
 20
117.5
 11
3.4724
 21
117.061
  0
LINE
  8
0
 10
3.4724
 20
117.061
 11
3.39003
 21
116.63
  0
LINE
  8
0
 10
3.39003
 20
116.63
 11
3.25421
 21
116.212
  0
LINE
  8
0
 10
3.25421
 20
116.212
 11
3.06706
 21
115.814
  0
LINE
  8
0
 10
3.06706
 20
115.814
 11
2.83156
 21
115.443
  0
LINE
  8
0
 10
2.83156
 20
115.443
 11
2.55138
 21
115.104
  0
LINE
  8
0
 10
2.55138
 20
115.104
 11
2.23097
 21
114.803
  0
LINE
  8
0
 10
2.23097
 20
114.803
 11
1.87538
 21
114.545
  0
LINE
  8
0
 10
1.87538
 20
114.545
 11
1.49022
 21
114.333
  0
LINE
  8
0
 10
1.49022
 20
114.333
 11
1.08156
 21
114.171
  0
LINE
  8
0
 10
1.08156
 20
114.171
 11
0.655823
 21
114.062
  0
LINE
  8
0
 10
0.655823
 20
114.062
 11
0.219757
 21
114.007
  0
LINE
  8
0
 10
0.219757
 20
114.007
 11
-0.219757
 21
114.007
  0
LINE
  8
0
 10
7.28023
 20
106.507
 11
6.84416
 21
106.562
  0
LINE
  8
0
 10
6.84416
 20
106.562
 11
6.41843
 21
106.671
  0
LINE
  8
0
 10
6.41843
 20
106.671
 11
6.00977
 21
106.833
  0
LINE
  8
0
 10
6.00977
 20
106.833
 11
5.6246
 21
107.045
  0
LINE
  8
0
 10
5.6246
 20
107.045
 11
5.26901
 21
107.303
  0
LINE
  8
0
 10
5.26901
 20
107.303
 11
4.94861
 21
107.604
  0
LINE
  8
0
 10
4.94861
 20
107.604
 11
4.66843
 21
107.943
  0
LINE
  8
0
 10
4.66843
 20
107.943
 11
4.43292
 21
108.314
  0
LINE
  8
0
 10
4.43292
 20
108.314
 11
4.24577
 21
108.712
  0
LINE
  8
0
 10
4.24577
 20
108.712
 11
4.10995
 21
109.13
  0
LINE
  8
0
 10
4.10995
 20
109.13
 11
4.02759
 21
109.561
  0
LINE
  8
0
 10
4.02759
 20
109.561
 11
4
 21
110
  0
LINE
  8
0
 10
4
 20
110
 11
4.02759
 21
110.439
  0
LINE
  8
0
 10
4.02759
 20
110.439
 11
4.10995
 21
110.87
  0
LINE
  8
0
 10
4.10995
 20
110.87
 11
4.24577
 21
111.288
  0
LINE
  8
0
 10
4.24577
 20
111.288
 11
4.43292
 21
111.686
  0
LINE
  8
0
 10
4.43292
 20
111.686
 11
4.66843
 21
112.057
  0
LINE
  8
0
 10
4.66843
 20
112.057
 11
4.94861
 21
112.396
  0
LINE
  8
0
 10
4.94861
 20
112.396
 11
5.26901
 21
112.697
  0
LINE
  8
0
 10
5.26901
 20
112.697
 11
5.6246
 21
112.955
  0
LINE
  8
0
 10
5.6246
 20
112.955
 11
6.00977
 21
113.167
  0
LINE
  8
0
 10
6.00977
 20
113.167
 11
6.41843
 21
113.329
  0
LINE
  8
0
 10
6.41843
 20
113.329
 11
6.84416
 21
113.438
  0
LINE
  8
0
 10
6.84416
 20
113.438
 11
7.28023
 21
113.493
  0
LINE
  8
0
 10
7.28023
 20
113.493
 11
7.71976
 21
113.493
  0
LINE
  8
0
 10
7.71976
 20
113.493
 11
8.15582
 21
113.438
  0
LINE
  8
0
 10
8.15582
 20
113.438
 11
8.58156
 21
113.329
  0
LINE
  8
0
 10
8.58156
 20
113.329
 11
8.99022
 21
113.167
  0
LINE
  8
0
 10
8.99022
 20
113.167
 11
9.37538
 21
112.955
  0
LINE
  8
0
 10
9.37538
 20
112.955
 11
9.73097
 21
112.697
  0
LINE
  8
0
 10
9.73097
 20
112.697
 11
10.0514
 21
112.396
  0
LINE
  8
0
 10
10.0514
 20
112.396
 11
10.3316
 21
112.057
  0
LINE
  8
0
 10
10.3316
 20
112.057
 11
10.5671
 21
111.686
  0
LINE
  8
0
 10
10.5671
 20
111.686
 11
10.7542
 21
111.288
  0
LINE
  8
0
 10
10.7542
 20
111.288
 11
10.89
 21
110.87
  0
LINE
  8
0
 10
10.89
 20
110.87
 11
10.9724
 21
110.439
  0
LINE
  8
0
 10
10.9724
 20
110.439
 11
11
 21
110
  0
LINE
  8
0
 10
11
 20
110
 11
10.9724
 21
109.561
  0
LINE
  8
0
 10
10.9724
 20
109.561
 11
10.89
 21
109.13
  0
LINE
  8
0
 10
10.89
 20
109.13
 11
10.7542
 21
108.712
  0
LINE
  8
0
 10
10.7542
 20
108.712
 11
10.5671
 21
108.314
  0
LINE
  8
0
 10
10.5671
 20
108.314
 11
10.3316
 21
107.943
  0
LINE
  8
0
 10
10.3316
 20
107.943
 11
10.0514
 21
107.604
  0
LINE
  8
0
 10
10.0514
 20
107.604
 11
9.73097
 21
107.303
  0
LINE
  8
0
 10
9.73097
 20
107.303
 11
9.37538
 21
107.045
  0
LINE
  8
0
 10
9.37538
 20
107.045
 11
8.99022
 21
106.833
  0
LINE
  8
0
 10
8.99022
 20
106.833
 11
8.58156
 21
106.671
  0
LINE
  8
0
 10
8.58156
 20
106.671
 11
8.15582
 21
106.562
  0
LINE
  8
0
 10
8.15582
 20
106.562
 11
7.71976
 21
106.507
  0
LINE
  8
0
 10
7.71976
 20
106.507
 11
7.28023
 21
106.507
  0
LINE
  8
0
 10
-7.71976
 20
106.507
 11
-8.15582
 21
106.562
  0
LINE
  8
0
 10
-8.15582
 20
106.562
 11
-8.58156
 21
106.671
  0
LINE
  8
0
 10
-8.58156
 20
106.671
 11
-8.99022
 21
106.833
  0
LINE
  8
0
 10
-8.99022
 20
106.833
 11
-9.37538
 21
107.045
  0
LINE
  8
0
 10
-9.37538
 20
107.045
 11
-9.73097
 21
107.303
  0
LINE
  8
0
 10
-9.73097
 20
107.303
 11
-10.0514
 21
107.604
  0
LINE
  8
0
 10
-10.0514
 20
107.604
 11
-10.3316
 21
107.943
  0
LINE
  8
0
 10
-10.3316
 20
107.943
 11
-10.5671
 21
108.314
  0
LINE
  8
0
 10
-10.5671
 20
108.314
 11
-10.7542
 21
108.712
  0
LINE
  8
0
 10
-10.7542
 20
108.712
 11
-10.89
 21
109.13
  0
LINE
  8
0
 10
-10.89
 20
109.13
 11
-10.9724
 21
109.561
  0
LINE
  8
0
 10
-10.9724
 20
109.561
 11
-11
 21
110
  0
LINE
  8
0
 10
-11
 20
110
 11
-10.9724
 21
110.439
  0
LINE
  8
0
 10
-10.9724
 20
110.439
 11
-10.89
 21
110.87
  0
LINE
  8
0
 10
-10.89
 20
110.87
 11
-10.7542
 21
111.288
  0
LINE
  8
0
 10
-10.7542
 20
111.288
 11
-10.5671
 21
111.686
  0
LINE
  8
0
 10
-10.5671
 20
111.686
 11
-10.3316
 21
112.057
  0
LINE
  8
0
 10
-10.3316
 20
112.057
 11
-10.0514
 21
112.396
  0
LINE
  8
0
 10
-10.0514
 20
112.396
 11
-9.73097
 21
112.697
  0
LINE
  8
0
 10
-9.73097
 20
112.697
 11
-9.37538
 21
112.955
  0
LINE
  8
0
 10
-9.37538
 20
112.955
 11
-8.99022
 21
113.167
  0
LINE
  8
0
 10
-8.99022
 20
113.167
 11
-8.58156
 21
113.329
  0
LINE
  8
0
 10
-8.58156
 20
113.329
 11
-8.15582
 21
113.438
  0
LINE
  8
0
 10
-8.15582
 20
113.438
 11
-7.71976
 21
113.493
  0
LINE
  8
0
 10
-7.71976
 20
113.493
 11
-7.28023
 21
113.493
  0
LINE
  8
0
 10
-7.28023
 20
113.493
 11
-6.84416
 21
113.438
  0
LINE
  8
0
 10
-6.84416
 20
113.438
 11
-6.41843
 21
113.329
  0
LINE
  8
0
 10
-6.41843
 20
113.329
 11
-6.00977
 21
113.167
  0
LINE
  8
0
 10
-6.00977
 20
113.167
 11
-5.6246
 21
112.955
  0
LINE
  8
0
 10
-5.6246
 20
112.955
 11
-5.26901
 21
112.697
  0
LINE
  8
0
 10
-5.26901
 20
112.697
 11
-4.94861
 21
112.396
  0
LINE
  8
0
 10
-4.94861
 20
112.396
 11
-4.66843
 21
112.057
  0
LINE
  8
0
 10
-4.66843
 20
112.057
 11
-4.43292
 21
111.686
  0
LINE
  8
0
 10
-4.43292
 20
111.686
 11
-4.24577
 21
111.288
  0
LINE
  8
0
 10
-4.24577
 20
111.288
 11
-4.10995
 21
110.87
  0
LINE
  8
0
 10
-4.10995
 20
110.87
 11
-4.02759
 21
110.439
  0
LINE
  8
0
 10
-4.02759
 20
110.439
 11
-4
 21
110
  0
LINE
  8
0
 10
-4
 20
110
 11
-4.02759
 21
109.561
  0
LINE
  8
0
 10
-4.02759
 20
109.561
 11
-4.10995
 21
109.13
  0
LINE
  8
0
 10
-4.10995
 20
109.13
 11
-4.24577
 21
108.712
  0
LINE
  8
0
 10
-4.24577
 20
108.712
 11
-4.43292
 21
108.314
  0
LINE
  8
0
 10
-4.43292
 20
108.314
 11
-4.66843
 21
107.943
  0
LINE
  8
0
 10
-4.66843
 20
107.943
 11
-4.94861
 21
107.604
  0
LINE
  8
0
 10
-4.94861
 20
107.604
 11
-5.26901
 21
107.303
  0
LINE
  8
0
 10
-5.26901
 20
107.303
 11
-5.6246
 21
107.045
  0
LINE
  8
0
 10
-5.6246
 20
107.045
 11
-6.00977
 21
106.833
  0
LINE
  8
0
 10
-6.00977
 20
106.833
 11
-6.41843
 21
106.671
  0
LINE
  8
0
 10
-6.41843
 20
106.671
 11
-6.84416
 21
106.562
  0
LINE
  8
0
 10
-6.84416
 20
106.562
 11
-7.28023
 21
106.507
  0
LINE
  8
0
 10
-7.28023
 20
106.507
 11
-7.71976
 21
106.507
  0
LINE
  8
0
 10
-0.18837
 20
107.006
 11
-0.562134
 21
107.053
  0
LINE
  8
0
 10
-0.562134
 20
107.053
 11
-0.927048
 21
107.147
  0
LINE
  8
0
 10
-0.927048
 20
107.147
 11
-1.27733
 21
107.286
  0
LINE
  8
0
 10
-1.27733
 20
107.286
 11
-1.60747
 21
107.467
  0
LINE
  8
0
 10
-1.60747
 20
107.467
 11
-1.91226
 21
107.688
  0
LINE
  8
0
 10
-1.91226
 20
107.688
 11
-2.1869
 21
107.946
  0
LINE
  8
0
 10
-2.1869
 20
107.946
 11
-2.42705
 21
108.237
  0
LINE
  8
0
 10
-2.42705
 20
108.237
 11
-2.62891
 21
108.555
  0
LINE
  8
0
 10
-2.62891
 20
108.555
 11
-2.78932
 21
108.896
  0
LINE
  8
0
 10
-2.78932
 20
108.896
 11
-2.90575
 21
109.254
  0
LINE
  8
0
 10
-2.90575
 20
109.254
 11
-2.97633
 21
109.624
  0
LINE
  8
0
 10
-2.97633
 20
109.624
 11
-3
 21
110
  0
LINE
  8
0
 10
-3
 20
110
 11
-2.97633
 21
110.376
  0
LINE
  8
0
 10
-2.97633
 20
110.376
 11
-2.90575
 21
110.746
  0
LINE
  8
0
 10
-2.90575
 20
110.746
 11
-2.78932
 21
111.104
  0
LINE
  8
0
 10
-2.78932
 20
111.104
 11
-2.62891
 21
111.445
  0
LINE
  8
0
 10
-2.62891
 20
111.445
 11
-2.42705
 21
111.763
  0
LINE
  8
0
 10
-2.42705
 20
111.763
 11
-2.1869
 21
112.054
  0
LINE
  8
0
 10
-2.1869
 20
112.054
 11
-1.91226
 21
112.312
  0
LINE
  8
0
 10
-1.91226
 20
112.312
 11
-1.60747
 21
112.533
  0
LINE
  8
0
 10
-1.60747
 20
112.533
 11
-1.27733
 21
112.714
  0
LINE
  8
0
 10
-1.27733
 20
112.714
 11
-0.927048
 21
112.853
  0
LINE
  8
0
 10
-0.927048
 20
112.853
 11
-0.562134
 21
112.947
  0
LINE
  8
0
 10
-0.562134
 20
112.947
 11
-0.18837
 21
112.994
  0
LINE
  8
0
 10
-0.18837
 20
112.994
 11
0.18837
 21
112.994
  0
LINE
  8
0
 10
0.18837
 20
112.994
 11
0.562134
 21
112.947
  0
LINE
  8
0
 10
0.562134
 20
112.947
 11
0.927048
 21
112.853
  0
LINE
  8
0
 10
0.927048
 20
112.853
 11
1.27733
 21
112.714
  0
LINE
  8
0
 10
1.27733
 20
112.714
 11
1.60747
 21
112.533
  0
LINE
  8
0
 10
1.60747
 20
112.533
 11
1.91226
 21
112.312
  0
LINE
  8
0
 10
1.91226
 20
112.312
 11
2.1869
 21
112.054
  0
LINE
  8
0
 10
2.1869
 20
112.054
 11
2.42705
 21
111.763
  0
LINE
  8
0
 10
2.42705
 20
111.763
 11
2.62891
 21
111.445
  0
LINE
  8
0
 10
2.62891
 20
111.445
 11
2.78932
 21
111.104
  0
LINE
  8
0
 10
2.78932
 20
111.104
 11
2.90575
 21
110.746
  0
LINE
  8
0
 10
2.90575
 20
110.746
 11
2.97633
 21
110.376
  0
LINE
  8
0
 10
2.97633
 20
110.376
 11
3
 21
110
  0
LINE
  8
0
 10
3
 20
110
 11
2.97633
 21
109.624
  0
LINE
  8
0
 10
2.97633
 20
109.624
 11
2.90575
 21
109.254
  0
LINE
  8
0
 10
2.90575
 20
109.254
 11
2.78932
 21
108.896
  0
LINE
  8
0
 10
2.78932
 20
108.896
 11
2.62891
 21
108.555
  0
LINE
  8
0
 10
2.62891
 20
108.555
 11
2.42705
 21
108.237
  0
LINE
  8
0
 10
2.42705
 20
108.237
 11
2.1869
 21
107.946
  0
LINE
  8
0
 10
2.1869
 20
107.946
 11
1.91226
 21
107.688
  0
LINE
  8
0
 10
1.91226
 20
107.688
 11
1.60747
 21
107.467
  0
LINE
  8
0
 10
1.60747
 20
107.467
 11
1.27733
 21
107.286
  0
LINE
  8
0
 10
1.27733
 20
107.286
 11
0.927048
 21
107.147
  0
LINE
  8
0
 10
0.927048
 20
107.147
 11
0.562134
 21
107.053
  0
LINE
  8
0
 10
0.562134
 20
107.053
 11
0.18837
 21
107.006
  0
LINE
  8
0
 10
0.18837
 20
107.006
 11
-0.18837
 21
107.006
  0
LINE
  8
0
 10
-0.219757
 20
99.0069
 11
-0.655823
 21
99.062
  0
LINE
  8
0
 10
-0.655823
 20
99.062
 11
-1.08156
 21
99.1713
  0
LINE
  8
0
 10
-1.08156
 20
99.1713
 11
-1.49022
 21
99.3331
  0
LINE
  8
0
 10
-1.49022
 20
99.3331
 11
-1.87538
 21
99.5449
  0
LINE
  8
0
 10
-1.87538
 20
99.5449
 11
-2.23097
 21
99.8032
  0
LINE
  8
0
 10
-2.23097
 20
99.8032
 11
-2.55138
 21
100.104
  0
LINE
  8
0
 10
-2.55138
 20
100.104
 11
-2.83156
 21
100.443
  0
LINE
  8
0
 10
-2.83156
 20
100.443
 11
-3.06706
 21
100.814
  0
LINE
  8
0
 10
-3.06706
 20
100.814
 11
-3.25421
 21
101.212
  0
LINE
  8
0
 10
-3.25421
 20
101.212
 11
-3.39003
 21
101.63
  0
LINE
  8
0
 10
-3.39003
 20
101.63
 11
-3.4724
 21
102.061
  0
LINE
  8
0
 10
-3.4724
 20
102.061
 11
-3.5
 21
102.5
  0
LINE
  8
0
 10
-3.5
 20
102.5
 11
-3.4724
 21
102.939
  0
LINE
  8
0
 10
-3.4724
 20
102.939
 11
-3.39003
 21
103.37
  0
LINE
  8
0
 10
-3.39003
 20
103.37
 11
-3.25421
 21
103.788
  0
LINE
  8
0
 10
-3.25421
 20
103.788
 11
-3.06706
 21
104.186
  0
LINE
  8
0
 10
-3.06706
 20
104.186
 11
-2.83156
 21
104.557
  0
LINE
  8
0
 10
-2.83156
 20
104.557
 11
-2.55138
 21
104.896
  0
LINE
  8
0
 10
-2.55138
 20
104.896
 11
-2.23097
 21
105.197
  0
LINE
  8
0
 10
-2.23097
 20
105.197
 11
-1.87538
 21
105.455
  0
LINE
  8
0
 10
-1.87538
 20
105.455
 11
-1.49022
 21
105.667
  0
LINE
  8
0
 10
-1.49022
 20
105.667
 11
-1.08156
 21
105.829
  0
LINE
  8
0
 10
-1.08156
 20
105.829
 11
-0.655823
 21
105.938
  0
LINE
  8
0
 10
-0.655823
 20
105.938
 11
-0.219757
 21
105.993
  0
LINE
  8
0
 10
-0.219757
 20
105.993
 11
0.219757
 21
105.993
  0
LINE
  8
0
 10
0.219757
 20
105.993
 11
0.655823
 21
105.938
  0
LINE
  8
0
 10
0.655823
 20
105.938
 11
1.08156
 21
105.829
  0
LINE
  8
0
 10
1.08156
 20
105.829
 11
1.49022
 21
105.667
  0
LINE
  8
0
 10
1.49022
 20
105.667
 11
1.87538
 21
105.455
  0
LINE
  8
0
 10
1.87538
 20
105.455
 11
2.23097
 21
105.197
  0
LINE
  8
0
 10
2.23097
 20
105.197
 11
2.55138
 21
104.896
  0
LINE
  8
0
 10
2.55138
 20
104.896
 11
2.83156
 21
104.557
  0
LINE
  8
0
 10
2.83156
 20
104.557
 11
3.06706
 21
104.186
  0
LINE
  8
0
 10
3.06706
 20
104.186
 11
3.25421
 21
103.788
  0
LINE
  8
0
 10
3.25421
 20
103.788
 11
3.39003
 21
103.37
  0
LINE
  8
0
 10
3.39003
 20
103.37
 11
3.4724
 21
102.939
  0
LINE
  8
0
 10
3.4724
 20
102.939
 11
3.5
 21
102.5
  0
LINE
  8
0
 10
3.5
 20
102.5
 11
3.4724
 21
102.061
  0
LINE
  8
0
 10
3.4724
 20
102.061
 11
3.39003
 21
101.63
  0
LINE
  8
0
 10
3.39003
 20
101.63
 11
3.25421
 21
101.212
  0
LINE
  8
0
 10
3.25421
 20
101.212
 11
3.06706
 21
100.814
  0
LINE
  8
0
 10
3.06706
 20
100.814
 11
2.83156
 21
100.443
  0
LINE
  8
0
 10
2.83156
 20
100.443
 11
2.55138
 21
100.104
  0
LINE
  8
0
 10
2.55138
 20
100.104
 11
2.23097
 21
99.8032
  0
LINE
  8
0
 10
2.23097
 20
99.8032
 11
1.87538
 21
99.5449
  0
LINE
  8
0
 10
1.87538
 20
99.5449
 11
1.49022
 21
99.3331
  0
LINE
  8
0
 10
1.49022
 20
99.3331
 11
1.08156
 21
99.1713
  0
LINE
  8
0
 10
1.08156
 20
99.1713
 11
0.655823
 21
99.062
  0
LINE
  8
0
 10
0.655823
 20
99.062
 11
0.219757
 21
99.0069
  0
LINE
  8
0
 10
0.219757
 20
99.0069
 11
-0.219757
 21
99.0069
  0
LINE
  8
0
 10
2.62334
 20
-13.752
 11
4.32623
 21
-13.3148
  0
LINE
  8
0
 10
4.32623
 20
-13.3148
 11
5.96091
 21
-12.6676
  0
LINE
  8
0
 10
5.96091
 20
-12.6676
 11
7.50157
 21
-11.8206
  0
LINE
  8
0
 10
7.50157
 20
-11.8206
 11
8.92393
 21
-10.7872
  0
LINE
  8
0
 10
8.92393
 20
-10.7872
 11
10.2056
 21
-9.58365
  0
LINE
  8
0
 10
10.2056
 20
-9.58365
 11
11.3262
 21
-8.22899
  0
LINE
  8
0
 10
11.3262
 20
-8.22899
 11
12.2683
 21
-6.74454
  0
LINE
  8
0
 10
12.2683
 20
-6.74454
 11
13.0169
 21
-5.15373
  0
LINE
  8
0
 10
13.0169
 20
-5.15373
 11
13.5602
 21
-3.48164
  0
LINE
  8
0
 10
13.5602
 20
-3.48164
 11
13.8896
 21
-1.75465
  0
LINE
  8
0
 10
13.8896
 20
-1.75465
 11
14
 21
0
  0
LINE
  8
0
 10
14
 20
0
 11
13.8896
 21
1.75465
  0
LINE
  8
0
 10
13.8896
 20
1.75465
 11
13.5602
 21
3.48164
  0
LINE
  8
0
 10
13.5602
 20
3.48164
 11
13.0169
 21
5.15373
  0
LINE
  8
0
 10
13.0169
 20
5.15373
 11
12.2683
 21
6.74454
  0
LINE
  8
0
 10
12.2683
 20
6.74454
 11
11.3262
 21
8.22899
  0
LINE
  8
0
 10
11.3262
 20
8.22899
 11
10.2056
 21
9.58365
  0
LINE
  8
0
 10
10.2056
 20
9.58365
 11
8.92393
 21
10.7872
  0
LINE
  8
0
 10
8.92393
 20
10.7872
 11
7.50157
 21
11.8206
  0
LINE
  8
0
 10
7.50157
 20
11.8206
 11
5.96091
 21
12.6676
  0
LINE
  8
0
 10
5.96091
 20
12.6676
 11
4.32623
 21
13.3148
  0
LINE
  8
0
 10
4.32623
 20
13.3148
 11
2.62334
 21
13.752
  0
LINE
  8
0
 10
2.62334
 20
13.752
 11
0.879059
 21
13.9724
  0
LINE
  8
0
 10
0.879059
 20
13.9724
 11
-0.879059
 21
13.9724
  0
LINE
  8
0
 10
-0.879059
 20
13.9724
 11
-2.62334
 21
13.752
  0
LINE
  8
0
 10
-2.62334
 20
13.752
 11
-4.32623
 21
13.3148
  0
LINE
  8
0
 10
-4.32623
 20
13.3148
 11
-5.96091
 21
12.6676
  0
LINE
  8
0
 10
-5.96091
 20
12.6676
 11
-7.50157
 21
11.8206
  0
LINE
  8
0
 10
-7.50157
 20
11.8206
 11
-8.92393
 21
10.7872
  0
LINE
  8
0
 10
-8.92393
 20
10.7872
 11
-10.2056
 21
9.58365
  0
LINE
  8
0
 10
-10.2056
 20
9.58365
 11
-11.3262
 21
8.22899
  0
LINE
  8
0
 10
-11.3262
 20
8.22899
 11
-12.2683
 21
6.74454
  0
LINE
  8
0
 10
-12.2683
 20
6.74454
 11
-13.0169
 21
5.15373
  0
LINE
  8
0
 10
-13.0169
 20
5.15373
 11
-13.5602
 21
3.48164
  0
LINE
  8
0
 10
-13.5602
 20
3.48164
 11
-13.8896
 21
1.75465
  0
LINE
  8
0
 10
-13.8896
 20
1.75465
 11
-14
 21
0
  0
LINE
  8
0
 10
-14
 20
0
 11
-13.8896
 21
-1.75465
  0
LINE
  8
0
 10
-13.8896
 20
-1.75465
 11
-13.5602
 21
-3.48164
  0
LINE
  8
0
 10
-13.5602
 20
-3.48164
 11
-13.0169
 21
-5.15373
  0
LINE
  8
0
 10
-13.0169
 20
-5.15373
 11
-12.2683
 21
-6.74454
  0
LINE
  8
0
 10
-12.2683
 20
-6.74454
 11
-11.3262
 21
-8.22899
  0
LINE
  8
0
 10
-11.3262
 20
-8.22899
 11
-10.2056
 21
-9.58365
  0
LINE
  8
0
 10
-10.2056
 20
-9.58365
 11
-8.92393
 21
-10.7872
  0
LINE
  8
0
 10
-8.92393
 20
-10.7872
 11
-7.50157
 21
-11.8206
  0
LINE
  8
0
 10
-7.50157
 20
-11.8206
 11
-5.96091
 21
-12.6676
  0
LINE
  8
0
 10
-5.96091
 20
-12.6676
 11
-4.32623
 21
-13.3148
  0
LINE
  8
0
 10
-4.32623
 20
-13.3148
 11
-2.62334
 21
-13.752
  0
LINE
  8
0
 10
-2.62334
 20
-13.752
 11
-0.879059
 21
-13.9724
  0
LINE
  8
0
 10
-0.879059
 20
-13.9724
 11
0.879059
 21
-13.9724
  0
LINE
  8
0
 10
0.879059
 20
-13.9724
 11
2.62334
 21
-13.752
  0
LINE
  8
0
 10
-0.219757
 20
4.0069
 11
-0.655823
 21
4.06198
  0
LINE
  8
0
 10
-0.655823
 20
4.06198
 11
-1.08156
 21
4.1713
  0
LINE
  8
0
 10
-1.08156
 20
4.1713
 11
-1.49022
 21
4.3331
  0
LINE
  8
0
 10
-1.49022
 20
4.3331
 11
-1.87538
 21
4.54485
  0
LINE
  8
0
 10
-1.87538
 20
4.54485
 11
-2.23097
 21
4.80319
  0
LINE
  8
0
 10
-2.23097
 20
4.80319
 11
-2.55138
 21
5.10408
  0
LINE
  8
0
 10
-2.55138
 20
5.10408
 11
-2.83156
 21
5.44275
  0
LINE
  8
0
 10
-2.83156
 20
5.44275
 11
-3.06706
 21
5.81386
  0
LINE
  8
0
 10
-3.06706
 20
5.81386
 11
-3.25421
 21
6.21156
  0
LINE
  8
0
 10
-3.25421
 20
6.21156
 11
-3.39003
 21
6.62958
  0
LINE
  8
0
 10
-3.39003
 20
6.62958
 11
-3.4724
 21
7.06133
  0
LINE
  8
0
 10
-3.4724
 20
7.06133
 11
-3.5
 21
7.5
  0
LINE
  8
0
 10
-3.5
 20
7.5
 11
-3.4724
 21
7.93866
  0
LINE
  8
0
 10
-3.4724
 20
7.93866
 11
-3.39003
 21
8.37041
  0
LINE
  8
0
 10
-3.39003
 20
8.37041
 11
-3.25421
 21
8.78842
  0
LINE
  8
0
 10
-3.25421
 20
8.78842
 11
-3.06706
 21
9.18613
  0
LINE
  8
0
 10
-3.06706
 20
9.18613
 11
-2.83156
 21
9.55724
  0
LINE
  8
0
 10
-2.83156
 20
9.55724
 11
-2.55138
 21
9.8959
  0
LINE
  8
0
 10
-2.55138
 20
9.8959
 11
-2.23097
 21
10.1968
  0
LINE
  8
0
 10
-2.23097
 20
10.1968
 11
-1.87538
 21
10.4551
  0
LINE
  8
0
 10
-1.87538
 20
10.4551
 11
-1.49022
 21
10.6669
  0
LINE
  8
0
 10
-1.49022
 20
10.6669
 11
-1.08156
 21
10.8287
  0
LINE
  8
0
 10
-1.08156
 20
10.8287
 11
-0.655823
 21
10.938
  0
LINE
  8
0
 10
-0.655823
 20
10.938
 11
-0.219757
 21
10.9931
  0
LINE
  8
0
 10
-0.219757
 20
10.9931
 11
0.219757
 21
10.9931
  0
LINE
  8
0
 10
0.219757
 20
10.9931
 11
0.655823
 21
10.938
  0
LINE
  8
0
 10
0.655823
 20
10.938
 11
1.08156
 21
10.8287
  0
LINE
  8
0
 10
1.08156
 20
10.8287
 11
1.49022
 21
10.6669
  0
LINE
  8
0
 10
1.49022
 20
10.6669
 11
1.87538
 21
10.4551
  0
LINE
  8
0
 10
1.87538
 20
10.4551
 11
2.23097
 21
10.1968
  0
LINE
  8
0
 10
2.23097
 20
10.1968
 11
2.55138
 21
9.8959
  0
LINE
  8
0
 10
2.55138
 20
9.8959
 11
2.83156
 21
9.55724
  0
LINE
  8
0
 10
2.83156
 20
9.55724
 11
3.06706
 21
9.18613
  0
LINE
  8
0
 10
3.06706
 20
9.18613
 11
3.25421
 21
8.78842
  0
LINE
  8
0
 10
3.25421
 20
8.78842
 11
3.39003
 21
8.37041
  0
LINE
  8
0
 10
3.39003
 20
8.37041
 11
3.4724
 21
7.93866
  0
LINE
  8
0
 10
3.4724
 20
7.93866
 11
3.5
 21
7.5
  0
LINE
  8
0
 10
3.5
 20
7.5
 11
3.4724
 21
7.06133
  0
LINE
  8
0
 10
3.4724
 20
7.06133
 11
3.39003
 21
6.62958
  0
LINE
  8
0
 10
3.39003
 20
6.62958
 11
3.25421
 21
6.21156
  0
LINE
  8
0
 10
3.25421
 20
6.21156
 11
3.06706
 21
5.81386
  0
LINE
  8
0
 10
3.06706
 20
5.81386
 11
2.83156
 21
5.44275
  0
LINE
  8
0
 10
2.83156
 20
5.44275
 11
2.55138
 21
5.10408
  0
LINE
  8
0
 10
2.55138
 20
5.10408
 11
2.23097
 21
4.80319
  0
LINE
  8
0
 10
2.23097
 20
4.80319
 11
1.87538
 21
4.54485
  0
LINE
  8
0
 10
1.87538
 20
4.54485
 11
1.49022
 21
4.3331
  0
LINE
  8
0
 10
1.49022
 20
4.3331
 11
1.08156
 21
4.1713
  0
LINE
  8
0
 10
1.08156
 20
4.1713
 11
0.655823
 21
4.06198
  0
LINE
  8
0
 10
0.655823
 20
4.06198
 11
0.219757
 21
4.0069
  0
LINE
  8
0
 10
0.219757
 20
4.0069
 11
-0.219757
 21
4.0069
  0
LINE
  8
0
 10
7.28023
 20
-3.49309
 11
6.84416
 21
-3.438
  0
LINE
  8
0
 10
6.84416
 20
-3.438
 11
6.41843
 21
-3.32869
  0
LINE
  8
0
 10
6.41843
 20
-3.32869
 11
6.00977
 21
-3.16689
  0
LINE
  8
0
 10
6.00977
 20
-3.16689
 11
5.6246
 21
-2.95514
  0
LINE
  8
0
 10
5.6246
 20
-2.95514
 11
5.26901
 21
-2.69679
  0
LINE
  8
0
 10
5.26901
 20
-2.69679
 11
4.94861
 21
-2.3959
  0
LINE
  8
0
 10
4.94861
 20
-2.3959
 11
4.66843
 21
-2.05724
  0
LINE
  8
0
 10
4.66843
 20
-2.05724
 11
4.43292
 21
-1.68613
  0
LINE
  8
0
 10
4.43292
 20
-1.68613
 11
4.24577
 21
-1.28842
  0
LINE
  8
0
 10
4.24577
 20
-1.28842
 11
4.10995
 21
-0.870407
  0
LINE
  8
0
 10
4.10995
 20
-0.870407
 11
4.02759
 21
-0.43866
  0
LINE
  8
0
 10
4.02759
 20
-0.43866
 11
4
 21
0
  0
LINE
  8
0
 10
4
 20
0
 11
4.02759
 21
0.43866
  0
LINE
  8
0
 10
4.02759
 20
0.43866
 11
4.10995
 21
0.870407
  0
LINE
  8
0
 10
4.10995
 20
0.870407
 11
4.24577
 21
1.28842
  0
LINE
  8
0
 10
4.24577
 20
1.28842
 11
4.43292
 21
1.68613
  0
LINE
  8
0
 10
4.43292
 20
1.68613
 11
4.66843
 21
2.05724
  0
LINE
  8
0
 10
4.66843
 20
2.05724
 11
4.94861
 21
2.3959
  0
LINE
  8
0
 10
4.94861
 20
2.3959
 11
5.26901
 21
2.69679
  0
LINE
  8
0
 10
5.26901
 20
2.69679
 11
5.6246
 21
2.95514
  0
LINE
  8
0
 10
5.6246
 20
2.95514
 11
6.00977
 21
3.16689
  0
LINE
  8
0
 10
6.00977
 20
3.16689
 11
6.41843
 21
3.32869
  0
LINE
  8
0
 10
6.41843
 20
3.32869
 11
6.84416
 21
3.438
  0
LINE
  8
0
 10
6.84416
 20
3.438
 11
7.28023
 21
3.49309
  0
LINE
  8
0
 10
7.28023
 20
3.49309
 11
7.71976
 21
3.49309
  0
LINE
  8
0
 10
7.71976
 20
3.49309
 11
8.15582
 21
3.438
  0
LINE
  8
0
 10
8.15582
 20
3.438
 11
8.58156
 21
3.32869
  0
LINE
  8
0
 10
8.58156
 20
3.32869
 11
8.99022
 21
3.16689
  0
LINE
  8
0
 10
8.99022
 20
3.16689
 11
9.37538
 21
2.95514
  0
LINE
  8
0
 10
9.37538
 20
2.95514
 11
9.73097
 21
2.69679
  0
LINE
  8
0
 10
9.73097
 20
2.69679
 11
10.0514
 21
2.3959
  0
LINE
  8
0
 10
10.0514
 20
2.3959
 11
10.3316
 21
2.05724
  0
LINE
  8
0
 10
10.3316
 20
2.05724
 11
10.5671
 21
1.68613
  0
LINE
  8
0
 10
10.5671
 20
1.68613
 11
10.7542
 21
1.28842
  0
LINE
  8
0
 10
10.7542
 20
1.28842
 11
10.89
 21
0.870407
  0
LINE
  8
0
 10
10.89
 20
0.870407
 11
10.9724
 21
0.43866
  0
LINE
  8
0
 10
10.9724
 20
0.43866
 11
11
 21
0
  0
LINE
  8
0
 10
11
 20
0
 11
10.9724
 21
-0.43866
  0
LINE
  8
0
 10
10.9724
 20
-0.43866
 11
10.89
 21
-0.870407
  0
LINE
  8
0
 10
10.89
 20
-0.870407
 11
10.7542
 21
-1.28842
  0
LINE
  8
0
 10
10.7542
 20
-1.28842
 11
10.5671
 21
-1.68613
  0
LINE
  8
0
 10
10.5671
 20
-1.68613
 11
10.3316
 21
-2.05724
  0
LINE
  8
0
 10
10.3316
 20
-2.05724
 11
10.0514
 21
-2.3959
  0
LINE
  8
0
 10
10.0514
 20
-2.3959
 11
9.73097
 21
-2.69679
  0
LINE
  8
0
 10
9.73097
 20
-2.69679
 11
9.37538
 21
-2.95514
  0
LINE
  8
0
 10
9.37538
 20
-2.95514
 11
8.99022
 21
-3.16689
  0
LINE
  8
0
 10
8.99022
 20
-3.16689
 11
8.58156
 21
-3.32869
  0
LINE
  8
0
 10
8.58156
 20
-3.32869
 11
8.15582
 21
-3.438
  0
LINE
  8
0
 10
8.15582
 20
-3.438
 11
7.71976
 21
-3.49309
  0
LINE
  8
0
 10
7.71976
 20
-3.49309
 11
7.28023
 21
-3.49309
  0
LINE
  8
0
 10
-7.71976
 20
-3.49309
 11
-8.15582
 21
-3.438
  0
LINE
  8
0
 10
-8.15582
 20
-3.438
 11
-8.58156
 21
-3.32869
  0
LINE
  8
0
 10
-8.58156
 20
-3.32869
 11
-8.99022
 21
-3.16689
  0
LINE
  8
0
 10
-8.99022
 20
-3.16689
 11
-9.37538
 21
-2.95514
  0
LINE
  8
0
 10
-9.37538
 20
-2.95514
 11
-9.73097
 21
-2.69679
  0
LINE
  8
0
 10
-9.73097
 20
-2.69679
 11
-10.0514
 21
-2.3959
  0
LINE
  8
0
 10
-10.0514
 20
-2.3959
 11
-10.3316
 21
-2.05724
  0
LINE
  8
0
 10
-10.3316
 20
-2.05724
 11
-10.5671
 21
-1.68613
  0
LINE
  8
0
 10
-10.5671
 20
-1.68613
 11
-10.7542
 21
-1.28842
  0
LINE
  8
0
 10
-10.7542
 20
-1.28842
 11
-10.89
 21
-0.870407
  0
LINE
  8
0
 10
-10.89
 20
-0.870407
 11
-10.9724
 21
-0.43866
  0
LINE
  8
0
 10
-10.9724
 20
-0.43866
 11
-11
 21
0
  0
LINE
  8
0
 10
-11
 20
0
 11
-10.9724
 21
0.43866
  0
LINE
  8
0
 10
-10.9724
 20
0.43866
 11
-10.89
 21
0.870407
  0
LINE
  8
0
 10
-10.89
 20
0.870407
 11
-10.7542
 21
1.28842
  0
LINE
  8
0
 10
-10.7542
 20
1.28842
 11
-10.5671
 21
1.68613
  0
LINE
  8
0
 10
-10.5671
 20
1.68613
 11
-10.3316
 21
2.05724
  0
LINE
  8
0
 10
-10.3316
 20
2.05724
 11
-10.0514
 21
2.3959
  0
LINE
  8
0
 10
-10.0514
 20
2.3959
 11
-9.73097
 21
2.69679
  0
LINE
  8
0
 10
-9.73097
 20
2.69679
 11
-9.37538
 21
2.95514
  0
LINE
  8
0
 10
-9.37538
 20
2.95514
 11
-8.99022
 21
3.16689
  0
LINE
  8
0
 10
-8.99022
 20
3.16689
 11
-8.58156
 21
3.32869
  0
LINE
  8
0
 10
-8.58156
 20
3.32869
 11
-8.15582
 21
3.438
  0
LINE
  8
0
 10
-8.15582
 20
3.438
 11
-7.71976
 21
3.49309
  0
LINE
  8
0
 10
-7.71976
 20
3.49309
 11
-7.28023
 21
3.49309
  0
LINE
  8
0
 10
-7.28023
 20
3.49309
 11
-6.84416
 21
3.438
  0
LINE
  8
0
 10
-6.84416
 20
3.438
 11
-6.41843
 21
3.32869
  0
LINE
  8
0
 10
-6.41843
 20
3.32869
 11
-6.00977
 21
3.16689
  0
LINE
  8
0
 10
-6.00977
 20
3.16689
 11
-5.6246
 21
2.95514
  0
LINE
  8
0
 10
-5.6246
 20
2.95514
 11
-5.26901
 21
2.69679
  0
LINE
  8
0
 10
-5.26901
 20
2.69679
 11
-4.94861
 21
2.3959
  0
LINE
  8
0
 10
-4.94861
 20
2.3959
 11
-4.66843
 21
2.05724
  0
LINE
  8
0
 10
-4.66843
 20
2.05724
 11
-4.43292
 21
1.68613
  0
LINE
  8
0
 10
-4.43292
 20
1.68613
 11
-4.24577
 21
1.28842
  0
LINE
  8
0
 10
-4.24577
 20
1.28842
 11
-4.10995
 21
0.870407
  0
LINE
  8
0
 10
-4.10995
 20
0.870407
 11
-4.02759
 21
0.43866
  0
LINE
  8
0
 10
-4.02759
 20
0.43866
 11
-4
 21
0
  0
LINE
  8
0
 10
-4
 20
0
 11
-4.02759
 21
-0.43866
  0
LINE
  8
0
 10
-4.02759
 20
-0.43866
 11
-4.10995
 21
-0.870407
  0
LINE
  8
0
 10
-4.10995
 20
-0.870407
 11
-4.24577
 21
-1.28842
  0
LINE
  8
0
 10
-4.24577
 20
-1.28842
 11
-4.43292
 21
-1.68613
  0
LINE
  8
0
 10
-4.43292
 20
-1.68613
 11
-4.66843
 21
-2.05724
  0
LINE
  8
0
 10
-4.66843
 20
-2.05724
 11
-4.94861
 21
-2.3959
  0
LINE
  8
0
 10
-4.94861
 20
-2.3959
 11
-5.26901
 21
-2.69679
  0
LINE
  8
0
 10
-5.26901
 20
-2.69679
 11
-5.6246
 21
-2.95514
  0
LINE
  8
0
 10
-5.6246
 20
-2.95514
 11
-6.00977
 21
-3.16689
  0
LINE
  8
0
 10
-6.00977
 20
-3.16689
 11
-6.41843
 21
-3.32869
  0
LINE
  8
0
 10
-6.41843
 20
-3.32869
 11
-6.84416
 21
-3.438
  0
LINE
  8
0
 10
-6.84416
 20
-3.438
 11
-7.28023
 21
-3.49309
  0
LINE
  8
0
 10
-7.28023
 20
-3.49309
 11
-7.71976
 21
-3.49309
  0
LINE
  8
0
 10
-0.18837
 20
-2.99408
 11
-0.562134
 21
-2.94685
  0
LINE
  8
0
 10
-0.562134
 20
-2.94685
 11
-0.927048
 21
-2.85316
  0
LINE
  8
0
 10
-0.927048
 20
-2.85316
 11
-1.27733
 21
-2.71448
  0
LINE
  8
0
 10
-1.27733
 20
-2.71448
 11
-1.60747
 21
-2.53297
  0
LINE
  8
0
 10
-1.60747
 20
-2.53297
 11
-1.91226
 21
-2.31154
  0
LINE
  8
0
 10
-1.91226
 20
-2.31154
 11
-2.1869
 21
-2.05363
  0
LINE
  8
0
 10
-2.1869
 20
-2.05363
 11
-2.42705
 21
-1.76335
  0
LINE
  8
0
 10
-2.42705
 20
-1.76335
 11
-2.62891
 21
-1.44525
  0
LINE
  8
0
 10
-2.62891
 20
-1.44525
 11
-2.78932
 21
-1.10437
  0
LINE
  8
0
 10
-2.78932
 20
-1.10437
 11
-2.90575
 21
-0.746063
  0
LINE
  8
0
 10
-2.90575
 20
-0.746063
 11
-2.97633
 21
-0.375992
  0
LINE
  8
0
 10
-2.97633
 20
-0.375992
 11
-3
 21
0
  0
LINE
  8
0
 10
-3
 20
0
 11
-2.97633
 21
0.375992
  0
LINE
  8
0
 10
-2.97633
 20
0.375992
 11
-2.90575
 21
0.746063
  0
LINE
  8
0
 10
-2.90575
 20
0.746063
 11
-2.78932
 21
1.10437
  0
LINE
  8
0
 10
-2.78932
 20
1.10437
 11
-2.62891
 21
1.44525
  0
LINE
  8
0
 10
-2.62891
 20
1.44525
 11
-2.42705
 21
1.76335
  0
LINE
  8
0
 10
-2.42705
 20
1.76335
 11
-2.1869
 21
2.05363
  0
LINE
  8
0
 10
-2.1869
 20
2.05363
 11
-1.91226
 21
2.31154
  0
LINE
  8
0
 10
-1.91226
 20
2.31154
 11
-1.60747
 21
2.53297
  0
LINE
  8
0
 10
-1.60747
 20
2.53297
 11
-1.27733
 21
2.71448
  0
LINE
  8
0
 10
-1.27733
 20
2.71448
 11
-0.927048
 21
2.85316
  0
LINE
  8
0
 10
-0.927048
 20
2.85316
 11
-0.562134
 21
2.94685
  0
LINE
  8
0
 10
-0.562134
 20
2.94685
 11
-0.18837
 21
2.99408
  0
LINE
  8
0
 10
-0.18837
 20
2.99408
 11
0.18837
 21
2.99408
  0
LINE
  8
0
 10
0.18837
 20
2.99408
 11
0.562134
 21
2.94685
  0
LINE
  8
0
 10
0.562134
 20
2.94685
 11
0.927048
 21
2.85316
  0
LINE
  8
0
 10
0.927048
 20
2.85316
 11
1.27733
 21
2.71448
  0
LINE
  8
0
 10
1.27733
 20
2.71448
 11
1.60747
 21
2.53297
  0
LINE
  8
0
 10
1.60747
 20
2.53297
 11
1.91226
 21
2.31154
  0
LINE
  8
0
 10
1.91226
 20
2.31154
 11
2.1869
 21
2.05363
  0
LINE
  8
0
 10
2.1869
 20
2.05363
 11
2.42705
 21
1.76335
  0
LINE
  8
0
 10
2.42705
 20
1.76335
 11
2.62891
 21
1.44525
  0
LINE
  8
0
 10
2.62891
 20
1.44525
 11
2.78932
 21
1.10437
  0
LINE
  8
0
 10
2.78932
 20
1.10437
 11
2.90575
 21
0.746063
  0
LINE
  8
0
 10
2.90575
 20
0.746063
 11
2.97633
 21
0.375992
  0
LINE
  8
0
 10
2.97633
 20
0.375992
 11
3
 21
0
  0
LINE
  8
0
 10
3
 20
0
 11
2.97633
 21
-0.375992
  0
LINE
  8
0
 10
2.97633
 20
-0.375992
 11
2.90575
 21
-0.746063
  0
LINE
  8
0
 10
2.90575
 20
-0.746063
 11
2.78932
 21
-1.10437
  0
LINE
  8
0
 10
2.78932
 20
-1.10437
 11
2.62891
 21
-1.44525
  0
LINE
  8
0
 10
2.62891
 20
-1.44525
 11
2.42705
 21
-1.76335
  0
LINE
  8
0
 10
2.42705
 20
-1.76335
 11
2.1869
 21
-2.05363
  0
LINE
  8
0
 10
2.1869
 20
-2.05363
 11
1.91226
 21
-2.31154
  0
LINE
  8
0
 10
1.91226
 20
-2.31154
 11
1.60747
 21
-2.53297
  0
LINE
  8
0
 10
1.60747
 20
-2.53297
 11
1.27733
 21
-2.71448
  0
LINE
  8
0
 10
1.27733
 20
-2.71448
 11
0.927048
 21
-2.85316
  0
LINE
  8
0
 10
0.927048
 20
-2.85316
 11
0.562134
 21
-2.94685
  0
LINE
  8
0
 10
0.562134
 20
-2.94685
 11
0.18837
 21
-2.99408
  0
LINE
  8
0
 10
0.18837
 20
-2.99408
 11
-0.18837
 21
-2.99408
  0
LINE
  8
0
 10
-0.219757
 20
-10.9931
 11
-0.655823
 21
-10.938
  0
LINE
  8
0
 10
-0.655823
 20
-10.938
 11
-1.08156
 21
-10.8287
  0
LINE
  8
0
 10
-1.08156
 20
-10.8287
 11
-1.49022
 21
-10.6669
  0
LINE
  8
0
 10
-1.49022
 20
-10.6669
 11
-1.87538
 21
-10.4551
  0
LINE
  8
0
 10
-1.87538
 20
-10.4551
 11
-2.23097
 21
-10.1968
  0
LINE
  8
0
 10
-2.23097
 20
-10.1968
 11
-2.55138
 21
-9.8959
  0
LINE
  8
0
 10
-2.55138
 20
-9.8959
 11
-2.83156
 21
-9.55724
  0
LINE
  8
0
 10
-2.83156
 20
-9.55724
 11
-3.06706
 21
-9.18613
  0
LINE
  8
0
 10
-3.06706
 20
-9.18613
 11
-3.25421
 21
-8.78842
  0
LINE
  8
0
 10
-3.25421
 20
-8.78842
 11
-3.39003
 21
-8.37041
  0
LINE
  8
0
 10
-3.39003
 20
-8.37041
 11
-3.4724
 21
-7.93866
  0
LINE
  8
0
 10
-3.4724
 20
-7.93866
 11
-3.5
 21
-7.5
  0
LINE
  8
0
 10
-3.5
 20
-7.5
 11
-3.4724
 21
-7.06133
  0
LINE
  8
0
 10
-3.4724
 20
-7.06133
 11
-3.39003
 21
-6.62958
  0
LINE
  8
0
 10
-3.39003
 20
-6.62958
 11
-3.25421
 21
-6.21156
  0
LINE
  8
0
 10
-3.25421
 20
-6.21156
 11
-3.06706
 21
-5.81386
  0
LINE
  8
0
 10
-3.06706
 20
-5.81386
 11
-2.83156
 21
-5.44275
  0
LINE
  8
0
 10
-2.83156
 20
-5.44275
 11
-2.55138
 21
-5.10408
  0
LINE
  8
0
 10
-2.55138
 20
-5.10408
 11
-2.23097
 21
-4.80319
  0
LINE
  8
0
 10
-2.23097
 20
-4.80319
 11
-1.87538
 21
-4.54485
  0
LINE
  8
0
 10
-1.87538
 20
-4.54485
 11
-1.49022
 21
-4.3331
  0
LINE
  8
0
 10
-1.49022
 20
-4.3331
 11
-1.08156
 21
-4.1713
  0
LINE
  8
0
 10
-1.08156
 20
-4.1713
 11
-0.655823
 21
-4.06198
  0
LINE
  8
0
 10
-0.655823
 20
-4.06198
 11
-0.219757
 21
-4.0069
  0
LINE
  8
0
 10
-0.219757
 20
-4.0069
 11
0.219757
 21
-4.0069
  0
LINE
  8
0
 10
0.219757
 20
-4.0069
 11
0.655823
 21
-4.06198
  0
LINE
  8
0
 10
0.655823
 20
-4.06198
 11
1.08156
 21
-4.1713
  0
LINE
  8
0
 10
1.08156
 20
-4.1713
 11
1.49022
 21
-4.3331
  0
LINE
  8
0
 10
1.49022
 20
-4.3331
 11
1.87538
 21
-4.54485
  0
LINE
  8
0
 10
1.87538
 20
-4.54485
 11
2.23097
 21
-4.80319
  0
LINE
  8
0
 10
2.23097
 20
-4.80319
 11
2.55138
 21
-5.10408
  0
LINE
  8
0
 10
2.55138
 20
-5.10408
 11
2.83156
 21
-5.44275
  0
LINE
  8
0
 10
2.83156
 20
-5.44275
 11
3.06706
 21
-5.81386
  0
LINE
  8
0
 10
3.06706
 20
-5.81386
 11
3.25421
 21
-6.21156
  0
LINE
  8
0
 10
3.25421
 20
-6.21156
 11
3.39003
 21
-6.62958
  0
LINE
  8
0
 10
3.39003
 20
-6.62958
 11
3.4724
 21
-7.06133
  0
LINE
  8
0
 10
3.4724
 20
-7.06133
 11
3.5
 21
-7.5
  0
LINE
  8
0
 10
3.5
 20
-7.5
 11
3.4724
 21
-7.93866
  0
LINE
  8
0
 10
3.4724
 20
-7.93866
 11
3.39003
 21
-8.37041
  0
LINE
  8
0
 10
3.39003
 20
-8.37041
 11
3.25421
 21
-8.78842
  0
LINE
  8
0
 10
3.25421
 20
-8.78842
 11
3.06706
 21
-9.18613
  0
LINE
  8
0
 10
3.06706
 20
-9.18613
 11
2.83156
 21
-9.55724
  0
LINE
  8
0
 10
2.83156
 20
-9.55724
 11
2.55138
 21
-9.8959
  0
LINE
  8
0
 10
2.55138
 20
-9.8959
 11
2.23097
 21
-10.1968
  0
LINE
  8
0
 10
2.23097
 20
-10.1968
 11
1.87538
 21
-10.4551
  0
LINE
  8
0
 10
1.87538
 20
-10.4551
 11
1.49022
 21
-10.6669
  0
LINE
  8
0
 10
1.49022
 20
-10.6669
 11
1.08156
 21
-10.8287
  0
LINE
  8
0
 10
1.08156
 20
-10.8287
 11
0.655823
 21
-10.938
  0
LINE
  8
0
 10
0.655823
 20
-10.938
 11
0.219757
 21
-10.9931
  0
LINE
  8
0
 10
0.219757
 20
-10.9931
 11
-0.219757
 21
-10.9931
  0
ENDSEC
  0
SECTION
  2
OBJECTS
  0
DICTIONARY
  0
ENDSEC
  0
EOF
