  0
SECTION
  2
BLOCKS
  0
ENDSEC
  0
SECTION
  2
ENTITIES
  0
LINE
  8
0
 10
-13.5
 20
524.507
 11
-13.1448
 21
524.077
  0
LINE
  8
0
 10
-13.1448
 20
524.077
 11
-12.6871
 21
523.647
  0
LINE
  8
0
 10
-12.6871
 20
523.647
 11
-12.1791
 21
523.278
  0
LINE
  8
0
 10
-12.1791
 20
523.278
 11
-11.6289
 21
522.976
  0
LINE
  8
0
 10
-11.6289
 20
522.976
 11
-11.0451
 21
522.745
  0
LINE
  8
0
 10
-11.0451
 20
522.745
 11
-10.4369
 21
522.589
  0
LINE
  8
0
 10
-10.4369
 20
522.589
 11
-9.81395
 21
522.51
  0
LINE
  8
0
 10
-9.81395
 20
522.51
 11
9.81395
 21
522.51
  0
LINE
  8
0
 10
9.81395
 20
522.51
 11
10.4369
 21
522.589
  0
LINE
  8
0
 10
10.4369
 20
522.589
 11
11.0451
 21
522.745
  0
LINE
  8
0
 10
11.0451
 20
522.745
 11
11.6289
 21
522.976
  0
LINE
  8
0
 10
11.6289
 20
522.976
 11
12.1791
 21
523.278
  0
LINE
  8
0
 10
12.1791
 20
523.278
 11
12.6871
 21
523.647
  0
LINE
  8
0
 10
12.6871
 20
523.647
 11
13.1448
 21
524.077
  0
LINE
  8
0
 10
13.1448
 20
524.077
 11
13.5451
 21
524.561
  0
LINE
  8
0
 10
13.5451
 20
524.561
 11
13.8815
 21
525.091
  0
LINE
  8
0
 10
13.8815
 20
525.091
 11
14.1489
 21
525.659
  0
LINE
  8
0
 10
14.1489
 20
525.659
 11
14.3429
 21
526.257
  0
LINE
  8
0
 10
14.3429
 20
526.257
 11
14.4606
 21
526.873
  0
LINE
  8
0
 10
14.4606
 20
526.873
 11
14.5
 21
527.5
  0
LINE
  8
0
 10
14.5
 20
527.5
 11
14.5
 21
576.5
  0
LINE
  8
0
 10
14.5
 20
576.5
 11
14.4606
 21
577.127
  0
LINE
  8
0
 10
14.4606
 20
577.127
 11
14.3429
 21
577.743
  0
LINE
  8
0
 10
14.3429
 20
577.743
 11
14.1489
 21
578.341
  0
LINE
  8
0
 10
14.1489
 20
578.341
 11
13.8815
 21
578.909
  0
LINE
  8
0
 10
13.8815
 20
578.909
 11
13.5451
 21
579.439
  0
LINE
  8
0
 10
13.5451
 20
579.439
 11
13.1448
 21
579.923
  0
LINE
  8
0
 10
13.1448
 20
579.923
 11
12.6871
 21
580.353
  0
LINE
  8
0
 10
12.6871
 20
580.353
 11
12.1791
 21
580.722
  0
LINE
  8
0
 10
12.1791
 20
580.722
 11
11.6289
 21
581.024
  0
LINE
  8
0
 10
11.6289
 20
581.024
 11
11.0451
 21
581.255
  0
LINE
  8
0
 10
11.0451
 20
581.255
 11
10.4369
 21
581.411
  0
LINE
  8
0
 10
10.4369
 20
581.411
 11
9.81395
 21
581.49
  0
LINE
  8
0
 10
9.81395
 20
581.49
 11
-9.81395
 21
581.49
  0
LINE
  8
0
 10
-9.81395
 20
581.49
 11
-10.4369
 21
581.411
  0
LINE
  8
0
 10
-10.4369
 20
581.411
 11
-11.0451
 21
581.255
  0
LINE
  8
0
 10
-11.0451
 20
581.255
 11
-11.6289
 21
581.024
  0
LINE
  8
0
 10
-11.6289
 20
581.024
 11
-12.1791
 21
580.722
  0
LINE
  8
0
 10
-12.1791
 20
580.722
 11
-12.6871
 21
580.353
  0
LINE
  8
0
 10
-12.6871
 20
580.353
 11
-13.1448
 21
579.923
  0
LINE
  8
0
 10
-13.1448
 20
579.923
 11
-13.5
 21
579.493
  0
LINE
  8
0
 10
-13.5
 20
579.493
 11
-13.5
 21
581.99
  0
LINE
  8
0
 10
-13.5
 20
581.99
 11
-16.5
 21
581.99
  0
LINE
  8
0
 10
-16.5
 20
581.99
 11
-16.5
 21
522.01
  0
LINE
  8
0
 10
-16.5
 20
522.01
 11
-13.5
 21
522.01
  0
LINE
  8
0
 10
-13.5
 20
522.01
 11
-13.5
 21
524.507
  0
LINE
  8
0
 10
-9.75116
 20
523.508
 11
-10.2495
 21
523.571
  0
LINE
  8
0
 10
-10.2495
 20
523.571
 11
-10.7361
 21
523.696
  0
LINE
  8
0
 10
-10.7361
 20
523.696
 11
-11.2031
 21
523.881
  0
LINE
  8
0
 10
-11.2031
 20
523.881
 11
-11.6433
 21
524.123
  0
LINE
  8
0
 10
-11.6433
 20
524.123
 11
-12.0497
 21
524.418
  0
LINE
  8
0
 10
-12.0497
 20
524.418
 11
-12.4159
 21
524.762
  0
LINE
  8
0
 10
-12.4159
 20
524.762
 11
-12.7361
 21
525.149
  0
LINE
  8
0
 10
-12.7361
 20
525.149
 11
-13.0052
 21
525.573
  0
LINE
  8
0
 10
-13.0052
 20
525.573
 11
-13.2191
 21
526.028
  0
LINE
  8
0
 10
-13.2191
 20
526.028
 11
-13.3743
 21
526.505
  0
LINE
  8
0
 10
-13.3743
 20
526.505
 11
-13.4684
 21
526.999
  0
LINE
  8
0
 10
-13.4684
 20
526.999
 11
-13.5
 21
527.5
  0
LINE
  8
0
 10
-13.5
 20
527.5
 11
-13.5
 21
576.5
  0
LINE
  8
0
 10
-13.5
 20
576.5
 11
-13.4684
 21
577.001
  0
LINE
  8
0
 10
-13.4684
 20
577.001
 11
-13.3743
 21
577.495
  0
LINE
  8
0
 10
-13.3743
 20
577.495
 11
-13.2191
 21
577.972
  0
LINE
  8
0
 10
-13.2191
 20
577.972
 11
-13.0052
 21
578.427
  0
LINE
  8
0
 10
-13.0052
 20
578.427
 11
-12.7361
 21
578.851
  0
LINE
  8
0
 10
-12.7361
 20
578.851
 11
-12.4159
 21
579.238
  0
LINE
  8
0
 10
-12.4159
 20
579.238
 11
-12.0497
 21
579.582
  0
LINE
  8
0
 10
-12.0497
 20
579.582
 11
-11.6433
 21
579.877
  0
LINE
  8
0
 10
-11.6433
 20
579.877
 11
-11.2031
 21
580.119
  0
LINE
  8
0
 10
-11.2031
 20
580.119
 11
-10.7361
 21
580.304
  0
LINE
  8
0
 10
-10.7361
 20
580.304
 11
-10.2495
 21
580.429
  0
LINE
  8
0
 10
-10.2495
 20
580.429
 11
-9.75116
 21
580.492
  0
LINE
  8
0
 10
-9.75116
 20
580.492
 11
9.75116
 21
580.492
  0
LINE
  8
0
 10
9.75116
 20
580.492
 11
10.2495
 21
580.429
  0
LINE
  8
0
 10
10.2495
 20
580.429
 11
10.7361
 21
580.304
  0
LINE
  8
0
 10
10.7361
 20
580.304
 11
11.2031
 21
580.119
  0
LINE
  8
0
 10
11.2031
 20
580.119
 11
11.6433
 21
579.877
  0
LINE
  8
0
 10
11.6433
 20
579.877
 11
12.0497
 21
579.582
  0
LINE
  8
0
 10
12.0497
 20
579.582
 11
12.4159
 21
579.238
  0
LINE
  8
0
 10
12.4159
 20
579.238
 11
12.7361
 21
578.851
  0
LINE
  8
0
 10
12.7361
 20
578.851
 11
13.0052
 21
578.427
  0
LINE
  8
0
 10
13.0052
 20
578.427
 11
13.2191
 21
577.972
  0
LINE
  8
0
 10
13.2191
 20
577.972
 11
13.3743
 21
577.495
  0
LINE
  8
0
 10
13.3743
 20
577.495
 11
13.4684
 21
577.001
  0
LINE
  8
0
 10
13.4684
 20
577.001
 11
13.5
 21
576.5
  0
LINE
  8
0
 10
13.5
 20
576.5
 11
13.5
 21
527.5
  0
LINE
  8
0
 10
13.5
 20
527.5
 11
13.4684
 21
526.999
  0
LINE
  8
0
 10
13.4684
 20
526.999
 11
13.3743
 21
526.505
  0
LINE
  8
0
 10
13.3743
 20
526.505
 11
13.2191
 21
526.028
  0
LINE
  8
0
 10
13.2191
 20
526.028
 11
13.0052
 21
525.573
  0
LINE
  8
0
 10
13.0052
 20
525.573
 11
12.7361
 21
525.149
  0
LINE
  8
0
 10
12.7361
 20
525.149
 11
12.4159
 21
524.762
  0
LINE
  8
0
 10
12.4159
 20
524.762
 11
12.0497
 21
524.418
  0
LINE
  8
0
 10
12.0497
 20
524.418
 11
11.6433
 21
524.123
  0
LINE
  8
0
 10
11.6433
 20
524.123
 11
11.2031
 21
523.881
  0
LINE
  8
0
 10
11.2031
 20
523.881
 11
10.7361
 21
523.696
  0
LINE
  8
0
 10
10.7361
 20
523.696
 11
10.2495
 21
523.571
  0
LINE
  8
0
 10
10.2495
 20
523.571
 11
9.75116
 21
523.508
  0
LINE
  8
0
 10
9.75116
 20
523.508
 11
-9.75116
 21
523.508
  0
LINE
  8
0
 10
-13.5
 20
455.507
 11
-13.1448
 21
455.077
  0
LINE
  8
0
 10
-13.1448
 20
455.077
 11
-12.6871
 21
454.647
  0
LINE
  8
0
 10
-12.6871
 20
454.647
 11
-12.1791
 21
454.278
  0
LINE
  8
0
 10
-12.1791
 20
454.278
 11
-11.6289
 21
453.976
  0
LINE
  8
0
 10
-11.6289
 20
453.976
 11
-11.0451
 21
453.745
  0
LINE
  8
0
 10
-11.0451
 20
453.745
 11
-10.4369
 21
453.589
  0
LINE
  8
0
 10
-10.4369
 20
453.589
 11
-9.81395
 21
453.51
  0
LINE
  8
0
 10
-9.81395
 20
453.51
 11
9.81395
 21
453.51
  0
LINE
  8
0
 10
9.81395
 20
453.51
 11
10.4369
 21
453.589
  0
LINE
  8
0
 10
10.4369
 20
453.589
 11
11.0451
 21
453.745
  0
LINE
  8
0
 10
11.0451
 20
453.745
 11
11.6289
 21
453.976
  0
LINE
  8
0
 10
11.6289
 20
453.976
 11
12.1791
 21
454.278
  0
LINE
  8
0
 10
12.1791
 20
454.278
 11
12.6871
 21
454.647
  0
LINE
  8
0
 10
12.6871
 20
454.647
 11
13.1448
 21
455.077
  0
LINE
  8
0
 10
13.1448
 20
455.077
 11
13.5451
 21
455.561
  0
LINE
  8
0
 10
13.5451
 20
455.561
 11
13.8815
 21
456.091
  0
LINE
  8
0
 10
13.8815
 20
456.091
 11
14.1489
 21
456.659
  0
LINE
  8
0
 10
14.1489
 20
456.659
 11
14.3429
 21
457.257
  0
LINE
  8
0
 10
14.3429
 20
457.257
 11
14.4606
 21
457.873
  0
LINE
  8
0
 10
14.4606
 20
457.873
 11
14.5
 21
458.5
  0
LINE
  8
0
 10
14.5
 20
458.5
 11
14.5
 21
507.5
  0
LINE
  8
0
 10
14.5
 20
507.5
 11
14.4606
 21
508.127
  0
LINE
  8
0
 10
14.4606
 20
508.127
 11
14.3429
 21
508.743
  0
LINE
  8
0
 10
14.3429
 20
508.743
 11
14.1489
 21
509.341
  0
LINE
  8
0
 10
14.1489
 20
509.341
 11
13.8815
 21
509.909
  0
LINE
  8
0
 10
13.8815
 20
509.909
 11
13.5451
 21
510.439
  0
LINE
  8
0
 10
13.5451
 20
510.439
 11
13.1448
 21
510.923
  0
LINE
  8
0
 10
13.1448
 20
510.923
 11
12.6871
 21
511.353
  0
LINE
  8
0
 10
12.6871
 20
511.353
 11
12.1791
 21
511.722
  0
LINE
  8
0
 10
12.1791
 20
511.722
 11
11.6289
 21
512.024
  0
LINE
  8
0
 10
11.6289
 20
512.024
 11
11.0451
 21
512.255
  0
LINE
  8
0
 10
11.0451
 20
512.255
 11
10.4369
 21
512.411
  0
LINE
  8
0
 10
10.4369
 20
512.411
 11
9.81395
 21
512.49
  0
LINE
  8
0
 10
9.81395
 20
512.49
 11
-9.81395
 21
512.49
  0
LINE
  8
0
 10
-9.81395
 20
512.49
 11
-10.4369
 21
512.411
  0
LINE
  8
0
 10
-10.4369
 20
512.411
 11
-11.0451
 21
512.255
  0
LINE
  8
0
 10
-11.0451
 20
512.255
 11
-11.6289
 21
512.024
  0
LINE
  8
0
 10
-11.6289
 20
512.024
 11
-12.1791
 21
511.722
  0
LINE
  8
0
 10
-12.1791
 20
511.722
 11
-12.6871
 21
511.353
  0
LINE
  8
0
 10
-12.6871
 20
511.353
 11
-13.1448
 21
510.923
  0
LINE
  8
0
 10
-13.1448
 20
510.923
 11
-13.5
 21
510.493
  0
LINE
  8
0
 10
-13.5
 20
510.493
 11
-13.5
 21
512.99
  0
LINE
  8
0
 10
-13.5
 20
512.99
 11
-16.5
 21
512.99
  0
LINE
  8
0
 10
-16.5
 20
512.99
 11
-16.5
 21
453.01
  0
LINE
  8
0
 10
-16.5
 20
453.01
 11
-13.5
 21
453.01
  0
LINE
  8
0
 10
-13.5
 20
453.01
 11
-13.5
 21
455.507
  0
LINE
  8
0
 10
-9.75116
 20
454.508
 11
-10.2495
 21
454.571
  0
LINE
  8
0
 10
-10.2495
 20
454.571
 11
-10.7361
 21
454.696
  0
LINE
  8
0
 10
-10.7361
 20
454.696
 11
-11.2031
 21
454.881
  0
LINE
  8
0
 10
-11.2031
 20
454.881
 11
-11.6433
 21
455.123
  0
LINE
  8
0
 10
-11.6433
 20
455.123
 11
-12.0497
 21
455.418
  0
LINE
  8
0
 10
-12.0497
 20
455.418
 11
-12.4159
 21
455.762
  0
LINE
  8
0
 10
-12.4159
 20
455.762
 11
-12.7361
 21
456.149
  0
LINE
  8
0
 10
-12.7361
 20
456.149
 11
-13.0052
 21
456.573
  0
LINE
  8
0
 10
-13.0052
 20
456.573
 11
-13.2191
 21
457.028
  0
LINE
  8
0
 10
-13.2191
 20
457.028
 11
-13.3743
 21
457.505
  0
LINE
  8
0
 10
-13.3743
 20
457.505
 11
-13.4684
 21
457.999
  0
LINE
  8
0
 10
-13.4684
 20
457.999
 11
-13.5
 21
458.5
  0
LINE
  8
0
 10
-13.5
 20
458.5
 11
-13.5
 21
507.5
  0
LINE
  8
0
 10
-13.5
 20
507.5
 11
-13.4684
 21
508.001
  0
LINE
  8
0
 10
-13.4684
 20
508.001
 11
-13.3743
 21
508.495
  0
LINE
  8
0
 10
-13.3743
 20
508.495
 11
-13.2191
 21
508.972
  0
LINE
  8
0
 10
-13.2191
 20
508.972
 11
-13.0052
 21
509.427
  0
LINE
  8
0
 10
-13.0052
 20
509.427
 11
-12.7361
 21
509.851
  0
LINE
  8
0
 10
-12.7361
 20
509.851
 11
-12.4159
 21
510.238
  0
LINE
  8
0
 10
-12.4159
 20
510.238
 11
-12.0497
 21
510.582
  0
LINE
  8
0
 10
-12.0497
 20
510.582
 11
-11.6433
 21
510.877
  0
LINE
  8
0
 10
-11.6433
 20
510.877
 11
-11.2031
 21
511.119
  0
LINE
  8
0
 10
-11.2031
 20
511.119
 11
-10.7361
 21
511.304
  0
LINE
  8
0
 10
-10.7361
 20
511.304
 11
-10.2495
 21
511.429
  0
LINE
  8
0
 10
-10.2495
 20
511.429
 11
-9.75116
 21
511.492
  0
LINE
  8
0
 10
-9.75116
 20
511.492
 11
9.75116
 21
511.492
  0
LINE
  8
0
 10
9.75116
 20
511.492
 11
10.2495
 21
511.429
  0
LINE
  8
0
 10
10.2495
 20
511.429
 11
10.7361
 21
511.304
  0
LINE
  8
0
 10
10.7361
 20
511.304
 11
11.2031
 21
511.119
  0
LINE
  8
0
 10
11.2031
 20
511.119
 11
11.6433
 21
510.877
  0
LINE
  8
0
 10
11.6433
 20
510.877
 11
12.0497
 21
510.582
  0
LINE
  8
0
 10
12.0497
 20
510.582
 11
12.4159
 21
510.238
  0
LINE
  8
0
 10
12.4159
 20
510.238
 11
12.7361
 21
509.851
  0
LINE
  8
0
 10
12.7361
 20
509.851
 11
13.0052
 21
509.427
  0
LINE
  8
0
 10
13.0052
 20
509.427
 11
13.2191
 21
508.972
  0
LINE
  8
0
 10
13.2191
 20
508.972
 11
13.3743
 21
508.495
  0
LINE
  8
0
 10
13.3743
 20
508.495
 11
13.4684
 21
508.001
  0
LINE
  8
0
 10
13.4684
 20
508.001
 11
13.5
 21
507.5
  0
LINE
  8
0
 10
13.5
 20
507.5
 11
13.5
 21
458.5
  0
LINE
  8
0
 10
13.5
 20
458.5
 11
13.4684
 21
457.999
  0
LINE
  8
0
 10
13.4684
 20
457.999
 11
13.3743
 21
457.505
  0
LINE
  8
0
 10
13.3743
 20
457.505
 11
13.2191
 21
457.028
  0
LINE
  8
0
 10
13.2191
 20
457.028
 11
13.0052
 21
456.573
  0
LINE
  8
0
 10
13.0052
 20
456.573
 11
12.7361
 21
456.149
  0
LINE
  8
0
 10
12.7361
 20
456.149
 11
12.4159
 21
455.762
  0
LINE
  8
0
 10
12.4159
 20
455.762
 11
12.0497
 21
455.418
  0
LINE
  8
0
 10
12.0497
 20
455.418
 11
11.6433
 21
455.123
  0
LINE
  8
0
 10
11.6433
 20
455.123
 11
11.2031
 21
454.881
  0
LINE
  8
0
 10
11.2031
 20
454.881
 11
10.7361
 21
454.696
  0
LINE
  8
0
 10
10.7361
 20
454.696
 11
10.2495
 21
454.571
  0
LINE
  8
0
 10
10.2495
 20
454.571
 11
9.75116
 21
454.508
  0
LINE
  8
0
 10
9.75116
 20
454.508
 11
-9.75116
 21
454.508
  0
LINE
  8
0
 10
-13.5
 20
386.507
 11
-13.1448
 21
386.077
  0
LINE
  8
0
 10
-13.1448
 20
386.077
 11
-12.6871
 21
385.647
  0
LINE
  8
0
 10
-12.6871
 20
385.647
 11
-12.1791
 21
385.278
  0
LINE
  8
0
 10
-12.1791
 20
385.278
 11
-11.6289
 21
384.976
  0
LINE
  8
0
 10
-11.6289
 20
384.976
 11
-11.0451
 21
384.745
  0
LINE
  8
0
 10
-11.0451
 20
384.745
 11
-10.4369
 21
384.589
  0
LINE
  8
0
 10
-10.4369
 20
384.589
 11
-9.81395
 21
384.51
  0
LINE
  8
0
 10
-9.81395
 20
384.51
 11
9.81395
 21
384.51
  0
LINE
  8
0
 10
9.81395
 20
384.51
 11
10.4369
 21
384.589
  0
LINE
  8
0
 10
10.4369
 20
384.589
 11
11.0451
 21
384.745
  0
LINE
  8
0
 10
11.0451
 20
384.745
 11
11.6289
 21
384.976
  0
LINE
  8
0
 10
11.6289
 20
384.976
 11
12.1791
 21
385.278
  0
LINE
  8
0
 10
12.1791
 20
385.278
 11
12.6871
 21
385.647
  0
LINE
  8
0
 10
12.6871
 20
385.647
 11
13.1448
 21
386.077
  0
LINE
  8
0
 10
13.1448
 20
386.077
 11
13.5451
 21
386.561
  0
LINE
  8
0
 10
13.5451
 20
386.561
 11
13.8815
 21
387.091
  0
LINE
  8
0
 10
13.8815
 20
387.091
 11
14.1489
 21
387.659
  0
LINE
  8
0
 10
14.1489
 20
387.659
 11
14.3429
 21
388.257
  0
LINE
  8
0
 10
14.3429
 20
388.257
 11
14.4606
 21
388.873
  0
LINE
  8
0
 10
14.4606
 20
388.873
 11
14.5
 21
389.5
  0
LINE
  8
0
 10
14.5
 20
389.5
 11
14.5
 21
438.5
  0
LINE
  8
0
 10
14.5
 20
438.5
 11
14.4606
 21
439.127
  0
LINE
  8
0
 10
14.4606
 20
439.127
 11
14.3429
 21
439.743
  0
LINE
  8
0
 10
14.3429
 20
439.743
 11
14.1489
 21
440.341
  0
LINE
  8
0
 10
14.1489
 20
440.341
 11
13.8815
 21
440.909
  0
LINE
  8
0
 10
13.8815
 20
440.909
 11
13.5451
 21
441.439
  0
LINE
  8
0
 10
13.5451
 20
441.439
 11
13.1448
 21
441.923
  0
LINE
  8
0
 10
13.1448
 20
441.923
 11
12.6871
 21
442.353
  0
LINE
  8
0
 10
12.6871
 20
442.353
 11
12.1791
 21
442.722
  0
LINE
  8
0
 10
12.1791
 20
442.722
 11
11.6289
 21
443.024
  0
LINE
  8
0
 10
11.6289
 20
443.024
 11
11.0451
 21
443.255
  0
LINE
  8
0
 10
11.0451
 20
443.255
 11
10.4369
 21
443.411
  0
LINE
  8
0
 10
10.4369
 20
443.411
 11
9.81395
 21
443.49
  0
LINE
  8
0
 10
9.81395
 20
443.49
 11
-9.81395
 21
443.49
  0
LINE
  8
0
 10
-9.81395
 20
443.49
 11
-10.4369
 21
443.411
  0
LINE
  8
0
 10
-10.4369
 20
443.411
 11
-11.0451
 21
443.255
  0
LINE
  8
0
 10
-11.0451
 20
443.255
 11
-11.6289
 21
443.024
  0
LINE
  8
0
 10
-11.6289
 20
443.024
 11
-12.1791
 21
442.722
  0
LINE
  8
0
 10
-12.1791
 20
442.722
 11
-12.6871
 21
442.353
  0
LINE
  8
0
 10
-12.6871
 20
442.353
 11
-13.1448
 21
441.923
  0
LINE
  8
0
 10
-13.1448
 20
441.923
 11
-13.5
 21
441.493
  0
LINE
  8
0
 10
-13.5
 20
441.493
 11
-13.5
 21
443.99
  0
LINE
  8
0
 10
-13.5
 20
443.99
 11
-16.5
 21
443.99
  0
LINE
  8
0
 10
-16.5
 20
443.99
 11
-16.5
 21
384.01
  0
LINE
  8
0
 10
-16.5
 20
384.01
 11
-13.5
 21
384.01
  0
LINE
  8
0
 10
-13.5
 20
384.01
 11
-13.5
 21
386.507
  0
LINE
  8
0
 10
-9.74316
 20
385.635
 11
-10.2256
 21
385.696
  0
LINE
  8
0
 10
-10.2256
 20
385.696
 11
-10.6967
 21
385.817
  0
LINE
  8
0
 10
-10.6967
 20
385.817
 11
-11.1489
 21
385.996
  0
LINE
  8
0
 10
-11.1489
 20
385.996
 11
-11.5751
 21
386.23
  0
LINE
  8
0
 10
-11.5751
 20
386.23
 11
-11.9685
 21
386.516
  0
LINE
  8
0
 10
-11.9685
 20
386.516
 11
-12.323
 21
386.849
  0
LINE
  8
0
 10
-12.323
 20
386.849
 11
-12.633
 21
387.224
  0
LINE
  8
0
 10
-12.633
 20
387.224
 11
-12.8936
 21
387.634
  0
LINE
  8
0
 10
-12.8936
 20
387.634
 11
-13.1007
 21
388.074
  0
LINE
  8
0
 10
-13.1007
 20
388.074
 11
-13.251
 21
388.537
  0
LINE
  8
0
 10
-13.251
 20
388.537
 11
-13.3421
 21
389.015
  0
LINE
  8
0
 10
-13.3421
 20
389.015
 11
-13.3726
 21
389.5
  0
LINE
  8
0
 10
-13.3726
 20
389.5
 11
-13.3726
 21
438.5
  0
LINE
  8
0
 10
-13.3726
 20
438.5
 11
-13.3421
 21
438.985
  0
LINE
  8
0
 10
-13.3421
 20
438.985
 11
-13.251
 21
439.463
  0
LINE
  8
0
 10
-13.251
 20
439.463
 11
-13.1007
 21
439.926
  0
LINE
  8
0
 10
-13.1007
 20
439.926
 11
-12.8936
 21
440.366
  0
LINE
  8
0
 10
-12.8936
 20
440.366
 11
-12.633
 21
440.776
  0
LINE
  8
0
 10
-12.633
 20
440.776
 11
-12.323
 21
441.151
  0
LINE
  8
0
 10
-12.323
 20
441.151
 11
-11.9685
 21
441.484
  0
LINE
  8
0
 10
-11.9685
 20
441.484
 11
-11.5751
 21
441.77
  0
LINE
  8
0
 10
-11.5751
 20
441.77
 11
-11.1489
 21
442.004
  0
LINE
  8
0
 10
-11.1489
 20
442.004
 11
-10.6967
 21
442.183
  0
LINE
  8
0
 10
-10.6967
 20
442.183
 11
-10.2256
 21
442.304
  0
LINE
  8
0
 10
-10.2256
 20
442.304
 11
-9.74316
 21
442.365
  0
LINE
  8
0
 10
-9.74316
 20
442.365
 11
9.74316
 21
442.365
  0
LINE
  8
0
 10
9.74316
 20
442.365
 11
10.2256
 21
442.304
  0
LINE
  8
0
 10
10.2256
 20
442.304
 11
10.6967
 21
442.183
  0
LINE
  8
0
 10
10.6967
 20
442.183
 11
11.1489
 21
442.004
  0
LINE
  8
0
 10
11.1489
 20
442.004
 11
11.5751
 21
441.77
  0
LINE
  8
0
 10
11.5751
 20
441.77
 11
11.9685
 21
441.484
  0
LINE
  8
0
 10
11.9685
 20
441.484
 11
12.323
 21
441.151
  0
LINE
  8
0
 10
12.323
 20
441.151
 11
12.633
 21
440.776
  0
LINE
  8
0
 10
12.633
 20
440.776
 11
12.8936
 21
440.366
  0
LINE
  8
0
 10
12.8936
 20
440.366
 11
13.1007
 21
439.926
  0
LINE
  8
0
 10
13.1007
 20
439.926
 11
13.251
 21
439.463
  0
LINE
  8
0
 10
13.251
 20
439.463
 11
13.3421
 21
438.985
  0
LINE
  8
0
 10
13.3421
 20
438.985
 11
13.3726
 21
438.5
  0
LINE
  8
0
 10
13.3726
 20
438.5
 11
13.3726
 21
389.5
  0
LINE
  8
0
 10
13.3726
 20
389.5
 11
13.3421
 21
389.015
  0
LINE
  8
0
 10
13.3421
 20
389.015
 11
13.251
 21
388.537
  0
LINE
  8
0
 10
13.251
 20
388.537
 11
13.1007
 21
388.074
  0
LINE
  8
0
 10
13.1007
 20
388.074
 11
12.8936
 21
387.634
  0
LINE
  8
0
 10
12.8936
 20
387.634
 11
12.633
 21
387.224
  0
LINE
  8
0
 10
12.633
 20
387.224
 11
12.323
 21
386.849
  0
LINE
  8
0
 10
12.323
 20
386.849
 11
11.9685
 21
386.516
  0
LINE
  8
0
 10
11.9685
 20
386.516
 11
11.5751
 21
386.23
  0
LINE
  8
0
 10
11.5751
 20
386.23
 11
11.1489
 21
385.996
  0
LINE
  8
0
 10
11.1489
 20
385.996
 11
10.6967
 21
385.817
  0
LINE
  8
0
 10
10.6967
 20
385.817
 11
10.2256
 21
385.696
  0
LINE
  8
0
 10
10.2256
 20
385.696
 11
9.74316
 21
385.635
  0
LINE
  8
0
 10
9.74316
 20
385.635
 11
-9.74316
 21
385.635
  0
LINE
  8
0
 10
-13.5
 20
317.507
 11
-13.1448
 21
317.077
  0
LINE
  8
0
 10
-13.1448
 20
317.077
 11
-12.6871
 21
316.647
  0
LINE
  8
0
 10
-12.6871
 20
316.647
 11
-12.1791
 21
316.278
  0
LINE
  8
0
 10
-12.1791
 20
316.278
 11
-11.6289
 21
315.976
  0
LINE
  8
0
 10
-11.6289
 20
315.976
 11
-11.0451
 21
315.745
  0
LINE
  8
0
 10
-11.0451
 20
315.745
 11
-10.4369
 21
315.589
  0
LINE
  8
0
 10
-10.4369
 20
315.589
 11
-9.81395
 21
315.51
  0
LINE
  8
0
 10
-9.81395
 20
315.51
 11
9.81395
 21
315.51
  0
LINE
  8
0
 10
9.81395
 20
315.51
 11
10.4369
 21
315.589
  0
LINE
  8
0
 10
10.4369
 20
315.589
 11
11.0451
 21
315.745
  0
LINE
  8
0
 10
11.0451
 20
315.745
 11
11.6289
 21
315.976
  0
LINE
  8
0
 10
11.6289
 20
315.976
 11
12.1791
 21
316.278
  0
LINE
  8
0
 10
12.1791
 20
316.278
 11
12.6871
 21
316.647
  0
LINE
  8
0
 10
12.6871
 20
316.647
 11
13.1448
 21
317.077
  0
LINE
  8
0
 10
13.1448
 20
317.077
 11
13.5451
 21
317.561
  0
LINE
  8
0
 10
13.5451
 20
317.561
 11
13.8815
 21
318.091
  0
LINE
  8
0
 10
13.8815
 20
318.091
 11
14.1489
 21
318.659
  0
LINE
  8
0
 10
14.1489
 20
318.659
 11
14.3429
 21
319.257
  0
LINE
  8
0
 10
14.3429
 20
319.257
 11
14.4606
 21
319.873
  0
LINE
  8
0
 10
14.4606
 20
319.873
 11
14.5
 21
320.5
  0
LINE
  8
0
 10
14.5
 20
320.5
 11
14.5
 21
369.5
  0
LINE
  8
0
 10
14.5
 20
369.5
 11
14.4606
 21
370.127
  0
LINE
  8
0
 10
14.4606
 20
370.127
 11
14.3429
 21
370.743
  0
LINE
  8
0
 10
14.3429
 20
370.743
 11
14.1489
 21
371.341
  0
LINE
  8
0
 10
14.1489
 20
371.341
 11
13.8815
 21
371.909
  0
LINE
  8
0
 10
13.8815
 20
371.909
 11
13.5451
 21
372.439
  0
LINE
  8
0
 10
13.5451
 20
372.439
 11
13.1448
 21
372.923
  0
LINE
  8
0
 10
13.1448
 20
372.923
 11
12.6871
 21
373.353
  0
LINE
  8
0
 10
12.6871
 20
373.353
 11
12.1791
 21
373.722
  0
LINE
  8
0
 10
12.1791
 20
373.722
 11
11.6289
 21
374.024
  0
LINE
  8
0
 10
11.6289
 20
374.024
 11
11.0451
 21
374.255
  0
LINE
  8
0
 10
11.0451
 20
374.255
 11
10.4369
 21
374.411
  0
LINE
  8
0
 10
10.4369
 20
374.411
 11
9.81395
 21
374.49
  0
LINE
  8
0
 10
9.81395
 20
374.49
 11
-9.81395
 21
374.49
  0
LINE
  8
0
 10
-9.81395
 20
374.49
 11
-10.4369
 21
374.411
  0
LINE
  8
0
 10
-10.4369
 20
374.411
 11
-11.0451
 21
374.255
  0
LINE
  8
0
 10
-11.0451
 20
374.255
 11
-11.6289
 21
374.024
  0
LINE
  8
0
 10
-11.6289
 20
374.024
 11
-12.1791
 21
373.722
  0
LINE
  8
0
 10
-12.1791
 20
373.722
 11
-12.6871
 21
373.353
  0
LINE
  8
0
 10
-12.6871
 20
373.353
 11
-13.1448
 21
372.923
  0
LINE
  8
0
 10
-13.1448
 20
372.923
 11
-13.5
 21
372.493
  0
LINE
  8
0
 10
-13.5
 20
372.493
 11
-13.5
 21
374.615
  0
LINE
  8
0
 10
-13.5
 20
374.615
 11
-16.5
 21
374.615
  0
LINE
  8
0
 10
-16.5
 20
374.615
 11
-16.5
 21
315.385
  0
LINE
  8
0
 10
-16.5
 20
315.385
 11
-13.5
 21
315.385
  0
LINE
  8
0
 10
-13.5
 20
315.385
 11
-13.5
 21
317.507
  0
LINE
  8
0
 10
10.4369
 20
246.589
 11
11.0451
 21
246.745
  0
LINE
  8
0
 10
11.0451
 20
246.745
 11
11.6289
 21
246.976
  0
LINE
  8
0
 10
11.6289
 20
246.976
 11
12.1791
 21
247.278
  0
LINE
  8
0
 10
12.1791
 20
247.278
 11
12.6871
 21
247.647
  0
LINE
  8
0
 10
12.6871
 20
247.647
 11
13.1448
 21
248.077
  0
LINE
  8
0
 10
13.1448
 20
248.077
 11
13.5451
 21
248.561
  0
LINE
  8
0
 10
13.5451
 20
248.561
 11
13.8815
 21
249.091
  0
LINE
  8
0
 10
13.8815
 20
249.091
 11
14.1489
 21
249.659
  0
LINE
  8
0
 10
14.1489
 20
249.659
 11
14.3429
 21
250.257
  0
LINE
  8
0
 10
14.3429
 20
250.257
 11
14.4606
 21
250.873
  0
LINE
  8
0
 10
14.4606
 20
250.873
 11
14.5
 21
251.5
  0
LINE
  8
0
 10
14.5
 20
251.5
 11
14.5
 21
300.5
  0
LINE
  8
0
 10
14.5
 20
300.5
 11
14.4606
 21
301.127
  0
LINE
  8
0
 10
14.4606
 20
301.127
 11
14.3429
 21
301.743
  0
LINE
  8
0
 10
14.3429
 20
301.743
 11
14.1489
 21
302.341
  0
LINE
  8
0
 10
14.1489
 20
302.341
 11
13.8815
 21
302.909
  0
LINE
  8
0
 10
13.8815
 20
302.909
 11
13.5451
 21
303.439
  0
LINE
  8
0
 10
13.5451
 20
303.439
 11
13.1448
 21
303.923
  0
LINE
  8
0
 10
13.1448
 20
303.923
 11
12.6871
 21
304.353
  0
LINE
  8
0
 10
12.6871
 20
304.353
 11
12.1791
 21
304.722
  0
LINE
  8
0
 10
12.1791
 20
304.722
 11
11.6289
 21
305.024
  0
LINE
  8
0
 10
11.6289
 20
305.024
 11
11.0451
 21
305.255
  0
LINE
  8
0
 10
11.0451
 20
305.255
 11
10.4369
 21
305.411
  0
LINE
  8
0
 10
10.4369
 20
305.411
 11
9.81395
 21
305.49
  0
LINE
  8
0
 10
9.81395
 20
305.49
 11
-9.81395
 21
305.49
  0
LINE
  8
0
 10
-9.81395
 20
305.49
 11
-10.4369
 21
305.411
  0
LINE
  8
0
 10
-10.4369
 20
305.411
 11
-11.0451
 21
305.255
  0
LINE
  8
0
 10
-11.0451
 20
305.255
 11
-11.6289
 21
305.024
  0
LINE
  8
0
 10
-11.6289
 20
305.024
 11
-12.1791
 21
304.722
  0
LINE
  8
0
 10
-12.1791
 20
304.722
 11
-12.6871
 21
304.353
  0
LINE
  8
0
 10
-12.6871
 20
304.353
 11
-13.1448
 21
303.923
  0
LINE
  8
0
 10
-13.1448
 20
303.923
 11
-13.5451
 21
303.439
  0
LINE
  8
0
 10
-13.5451
 20
303.439
 11
-13.8815
 21
302.909
  0
LINE
  8
0
 10
-13.8815
 20
302.909
 11
-14.1489
 21
302.341
  0
LINE
  8
0
 10
-14.1489
 20
302.341
 11
-14.2777
 21
301.944
  0
LINE
  8
0
 10
-14.2777
 20
301.944
 11
-16.5
 21
301.944
  0
LINE
  8
0
 10
-16.5
 20
301.944
 11
-16.5
 21
250.056
  0
LINE
  8
0
 10
-16.5
 20
250.056
 11
-14.2777
 21
250.056
  0
LINE
  8
0
 10
-14.2777
 20
250.056
 11
-14.1489
 21
249.659
  0
LINE
  8
0
 10
-14.1489
 20
249.659
 11
-13.8815
 21
249.091
  0
LINE
  8
0
 10
-13.8815
 20
249.091
 11
-13.5451
 21
248.561
  0
LINE
  8
0
 10
-13.5451
 20
248.561
 11
-13.1448
 21
248.077
  0
LINE
  8
0
 10
-13.1448
 20
248.077
 11
-12.6871
 21
247.647
  0
LINE
  8
0
 10
-12.6871
 20
247.647
 11
-12.1791
 21
247.278
  0
LINE
  8
0
 10
-12.1791
 20
247.278
 11
-11.6289
 21
246.976
  0
LINE
  8
0
 10
-11.6289
 20
246.976
 11
-11.0451
 21
246.745
  0
LINE
  8
0
 10
-11.0451
 20
246.745
 11
-10.4369
 21
246.589
  0
LINE
  8
0
 10
-10.4369
 20
246.589
 11
-9.81395
 21
246.51
  0
LINE
  8
0
 10
-9.81395
 20
246.51
 11
9.81395
 21
246.51
  0
LINE
  8
0
 10
9.81395
 20
246.51
 11
10.4369
 21
246.589
  0
LINE
  8
0
 10
-7.6507
 20
296.105
 11
-7.94971
 21
296.143
  0
LINE
  8
0
 10
-7.94971
 20
296.143
 11
-8.24164
 21
296.217
  0
LINE
  8
0
 10
-8.24164
 20
296.217
 11
-8.52187
 21
296.328
  0
LINE
  8
0
 10
-8.52187
 20
296.328
 11
-8.78598
 21
296.474
  0
LINE
  8
0
 10
-8.78598
 20
296.474
 11
-9.02982
 21
296.651
  0
LINE
  8
0
 10
-9.02982
 20
296.651
 11
-9.24951
 21
296.857
  0
LINE
  8
0
 10
-9.24951
 20
296.857
 11
-9.44164
 21
297.089
  0
LINE
  8
0
 10
-9.44164
 20
297.089
 11
-9.60313
 21
297.344
  0
LINE
  8
0
 10
-9.60313
 20
297.344
 11
-9.73146
 21
297.617
  0
LINE
  8
0
 10
-9.73146
 20
297.617
 11
-9.82458
 21
297.903
  0
LINE
  8
0
 10
-9.82458
 20
297.903
 11
-9.88107
 21
298.199
  0
LINE
  8
0
 10
-9.88107
 20
298.199
 11
-9.89999
 21
298.5
  0
LINE
  8
0
 10
-9.89999
 20
298.5
 11
-9.88107
 21
298.801
  0
LINE
  8
0
 10
-9.88107
 20
298.801
 11
-9.82458
 21
299.097
  0
LINE
  8
0
 10
-9.82458
 20
299.097
 11
-9.73146
 21
299.383
  0
LINE
  8
0
 10
-9.73146
 20
299.383
 11
-9.60313
 21
299.656
  0
LINE
  8
0
 10
-9.60313
 20
299.656
 11
-9.44164
 21
299.911
  0
LINE
  8
0
 10
-9.44164
 20
299.911
 11
-9.24951
 21
300.143
  0
LINE
  8
0
 10
-9.24951
 20
300.143
 11
-9.02982
 21
300.349
  0
LINE
  8
0
 10
-9.02982
 20
300.349
 11
-8.78598
 21
300.526
  0
LINE
  8
0
 10
-8.78598
 20
300.526
 11
-8.52187
 21
300.672
  0
LINE
  8
0
 10
-8.52187
 20
300.672
 11
-8.24164
 21
300.783
  0
LINE
  8
0
 10
-8.24164
 20
300.783
 11
-7.94971
 21
300.857
  0
LINE
  8
0
 10
-7.94971
 20
300.857
 11
-7.6507
 21
300.895
  0
LINE
  8
0
 10
-7.6507
 20
300.895
 11
-7.34929
 21
300.895
  0
LINE
  8
0
 10
-7.34929
 20
300.895
 11
-7.05028
 21
300.857
  0
LINE
  8
0
 10
-7.05028
 20
300.857
 11
-6.75835
 21
300.783
  0
LINE
  8
0
 10
-6.75835
 20
300.783
 11
-6.47812
 21
300.672
  0
LINE
  8
0
 10
-6.47812
 20
300.672
 11
-6.214
 21
300.526
  0
LINE
  8
0
 10
-6.214
 20
300.526
 11
-5.97017
 21
300.349
  0
LINE
  8
0
 10
-5.97017
 20
300.349
 11
-5.75047
 21
300.143
  0
LINE
  8
0
 10
-5.75047
 20
300.143
 11
-5.55835
 21
299.911
  0
LINE
  8
0
 10
-5.55835
 20
299.911
 11
-5.39685
 21
299.656
  0
LINE
  8
0
 10
-5.39685
 20
299.656
 11
-5.26852
 21
299.383
  0
LINE
  8
0
 10
-5.26852
 20
299.383
 11
-5.1754
 21
299.097
  0
LINE
  8
0
 10
-5.1754
 20
299.097
 11
-5.11891
 21
298.801
  0
LINE
  8
0
 10
-5.11891
 20
298.801
 11
-5.09999
 21
298.5
  0
LINE
  8
0
 10
-5.09999
 20
298.5
 11
-5.11891
 21
298.199
  0
LINE
  8
0
 10
-5.11891
 20
298.199
 11
-5.1754
 21
297.903
  0
LINE
  8
0
 10
-5.1754
 20
297.903
 11
-5.26852
 21
297.617
  0
LINE
  8
0
 10
-5.26852
 20
297.617
 11
-5.39685
 21
297.344
  0
LINE
  8
0
 10
-5.39685
 20
297.344
 11
-5.55835
 21
297.089
  0
LINE
  8
0
 10
-5.55835
 20
297.089
 11
-5.75047
 21
296.857
  0
LINE
  8
0
 10
-5.75047
 20
296.857
 11
-5.97017
 21
296.651
  0
LINE
  8
0
 10
-5.97017
 20
296.651
 11
-6.214
 21
296.474
  0
LINE
  8
0
 10
-6.214
 20
296.474
 11
-6.47812
 21
296.328
  0
LINE
  8
0
 10
-6.47812
 20
296.328
 11
-6.75835
 21
296.217
  0
LINE
  8
0
 10
-6.75835
 20
296.217
 11
-7.05028
 21
296.143
  0
LINE
  8
0
 10
-7.05028
 20
296.143
 11
-7.34929
 21
296.105
  0
LINE
  8
0
 10
-7.34929
 20
296.105
 11
-7.6507
 21
296.105
  0
LINE
  8
0
 10
7.34929
 20
296.105
 11
7.05028
 21
296.143
  0
LINE
  8
0
 10
7.05028
 20
296.143
 11
6.75835
 21
296.217
  0
LINE
  8
0
 10
6.75835
 20
296.217
 11
6.47812
 21
296.328
  0
LINE
  8
0
 10
6.47812
 20
296.328
 11
6.214
 21
296.474
  0
LINE
  8
0
 10
6.214
 20
296.474
 11
5.97017
 21
296.651
  0
LINE
  8
0
 10
5.97017
 20
296.651
 11
5.75047
 21
296.857
  0
LINE
  8
0
 10
5.75047
 20
296.857
 11
5.55835
 21
297.089
  0
LINE
  8
0
 10
5.55835
 20
297.089
 11
5.39685
 21
297.344
  0
LINE
  8
0
 10
5.39685
 20
297.344
 11
5.26852
 21
297.617
  0
LINE
  8
0
 10
5.26852
 20
297.617
 11
5.1754
 21
297.903
  0
LINE
  8
0
 10
5.1754
 20
297.903
 11
5.11891
 21
298.199
  0
LINE
  8
0
 10
5.11891
 20
298.199
 11
5.09999
 21
298.5
  0
LINE
  8
0
 10
5.09999
 20
298.5
 11
5.11891
 21
298.801
  0
LINE
  8
0
 10
5.11891
 20
298.801
 11
5.1754
 21
299.097
  0
LINE
  8
0
 10
5.1754
 20
299.097
 11
5.26852
 21
299.383
  0
LINE
  8
0
 10
5.26852
 20
299.383
 11
5.39685
 21
299.656
  0
LINE
  8
0
 10
5.39685
 20
299.656
 11
5.55835
 21
299.911
  0
LINE
  8
0
 10
5.55835
 20
299.911
 11
5.75047
 21
300.143
  0
LINE
  8
0
 10
5.75047
 20
300.143
 11
5.97017
 21
300.349
  0
LINE
  8
0
 10
5.97017
 20
300.349
 11
6.214
 21
300.526
  0
LINE
  8
0
 10
6.214
 20
300.526
 11
6.47812
 21
300.672
  0
LINE
  8
0
 10
6.47812
 20
300.672
 11
6.75835
 21
300.783
  0
LINE
  8
0
 10
6.75835
 20
300.783
 11
7.05028
 21
300.857
  0
LINE
  8
0
 10
7.05028
 20
300.857
 11
7.34929
 21
300.895
  0
LINE
  8
0
 10
7.34929
 20
300.895
 11
7.6507
 21
300.895
  0
LINE
  8
0
 10
7.6507
 20
300.895
 11
7.94971
 21
300.857
  0
LINE
  8
0
 10
7.94971
 20
300.857
 11
8.24164
 21
300.783
  0
LINE
  8
0
 10
8.24164
 20
300.783
 11
8.52187
 21
300.672
  0
LINE
  8
0
 10
8.52187
 20
300.672
 11
8.78598
 21
300.526
  0
LINE
  8
0
 10
8.78598
 20
300.526
 11
9.02982
 21
300.349
  0
LINE
  8
0
 10
9.02982
 20
300.349
 11
9.24951
 21
300.143
  0
LINE
  8
0
 10
9.24951
 20
300.143
 11
9.44164
 21
299.911
  0
LINE
  8
0
 10
9.44164
 20
299.911
 11
9.60313
 21
299.656
  0
LINE
  8
0
 10
9.60313
 20
299.656
 11
9.73146
 21
299.383
  0
LINE
  8
0
 10
9.73146
 20
299.383
 11
9.82458
 21
299.097
  0
LINE
  8
0
 10
9.82458
 20
299.097
 11
9.88107
 21
298.801
  0
LINE
  8
0
 10
9.88107
 20
298.801
 11
9.89999
 21
298.5
  0
LINE
  8
0
 10
9.89999
 20
298.5
 11
9.88107
 21
298.199
  0
LINE
  8
0
 10
9.88107
 20
298.199
 11
9.82458
 21
297.903
  0
LINE
  8
0
 10
9.82458
 20
297.903
 11
9.73146
 21
297.617
  0
LINE
  8
0
 10
9.73146
 20
297.617
 11
9.60313
 21
297.344
  0
LINE
  8
0
 10
9.60313
 20
297.344
 11
9.44164
 21
297.089
  0
LINE
  8
0
 10
9.44164
 20
297.089
 11
9.24951
 21
296.857
  0
LINE
  8
0
 10
9.24951
 20
296.857
 11
9.02982
 21
296.651
  0
LINE
  8
0
 10
9.02982
 20
296.651
 11
8.78598
 21
296.474
  0
LINE
  8
0
 10
8.78598
 20
296.474
 11
8.52187
 21
296.328
  0
LINE
  8
0
 10
8.52187
 20
296.328
 11
8.24164
 21
296.217
  0
LINE
  8
0
 10
8.24164
 20
296.217
 11
7.94971
 21
296.143
  0
LINE
  8
0
 10
7.94971
 20
296.143
 11
7.6507
 21
296.105
  0
LINE
  8
0
 10
7.6507
 20
296.105
 11
7.34929
 21
296.105
  0
LINE
  8
0
 10
7.34929
 20
251.105
 11
7.05028
 21
251.143
  0
LINE
  8
0
 10
7.05028
 20
251.143
 11
6.75835
 21
251.217
  0
LINE
  8
0
 10
6.75835
 20
251.217
 11
6.47812
 21
251.328
  0
LINE
  8
0
 10
6.47812
 20
251.328
 11
6.214
 21
251.474
  0
LINE
  8
0
 10
6.214
 20
251.474
 11
5.97017
 21
251.651
  0
LINE
  8
0
 10
5.97017
 20
251.651
 11
5.75047
 21
251.857
  0
LINE
  8
0
 10
5.75047
 20
251.857
 11
5.55835
 21
252.089
  0
LINE
  8
0
 10
5.55835
 20
252.089
 11
5.39685
 21
252.344
  0
LINE
  8
0
 10
5.39685
 20
252.344
 11
5.26852
 21
252.617
  0
LINE
  8
0
 10
5.26852
 20
252.617
 11
5.1754
 21
252.903
  0
LINE
  8
0
 10
5.1754
 20
252.903
 11
5.11891
 21
253.199
  0
LINE
  8
0
 10
5.11891
 20
253.199
 11
5.09999
 21
253.5
  0
LINE
  8
0
 10
5.09999
 20
253.5
 11
5.11891
 21
253.801
  0
LINE
  8
0
 10
5.11891
 20
253.801
 11
5.1754
 21
254.097
  0
LINE
  8
0
 10
5.1754
 20
254.097
 11
5.26852
 21
254.383
  0
LINE
  8
0
 10
5.26852
 20
254.383
 11
5.39685
 21
254.656
  0
LINE
  8
0
 10
5.39685
 20
254.656
 11
5.55835
 21
254.911
  0
LINE
  8
0
 10
5.55835
 20
254.911
 11
5.75047
 21
255.143
  0
LINE
  8
0
 10
5.75047
 20
255.143
 11
5.97017
 21
255.349
  0
LINE
  8
0
 10
5.97017
 20
255.349
 11
6.214
 21
255.526
  0
LINE
  8
0
 10
6.214
 20
255.526
 11
6.47812
 21
255.672
  0
LINE
  8
0
 10
6.47812
 20
255.672
 11
6.75835
 21
255.783
  0
LINE
  8
0
 10
6.75835
 20
255.783
 11
7.05028
 21
255.857
  0
LINE
  8
0
 10
7.05028
 20
255.857
 11
7.34929
 21
255.895
  0
LINE
  8
0
 10
7.34929
 20
255.895
 11
7.6507
 21
255.895
  0
LINE
  8
0
 10
7.6507
 20
255.895
 11
7.94971
 21
255.857
  0
LINE
  8
0
 10
7.94971
 20
255.857
 11
8.24164
 21
255.783
  0
LINE
  8
0
 10
8.24164
 20
255.783
 11
8.52187
 21
255.672
  0
LINE
  8
0
 10
8.52187
 20
255.672
 11
8.78598
 21
255.526
  0
LINE
  8
0
 10
8.78598
 20
255.526
 11
9.02982
 21
255.349
  0
LINE
  8
0
 10
9.02982
 20
255.349
 11
9.24951
 21
255.143
  0
LINE
  8
0
 10
9.24951
 20
255.143
 11
9.44164
 21
254.911
  0
LINE
  8
0
 10
9.44164
 20
254.911
 11
9.60313
 21
254.656
  0
LINE
  8
0
 10
9.60313
 20
254.656
 11
9.73146
 21
254.383
  0
LINE
  8
0
 10
9.73146
 20
254.383
 11
9.82458
 21
254.097
  0
LINE
  8
0
 10
9.82458
 20
254.097
 11
9.88107
 21
253.801
  0
LINE
  8
0
 10
9.88107
 20
253.801
 11
9.89999
 21
253.5
  0
LINE
  8
0
 10
9.89999
 20
253.5
 11
9.88107
 21
253.199
  0
LINE
  8
0
 10
9.88107
 20
253.199
 11
9.82458
 21
252.903
  0
LINE
  8
0
 10
9.82458
 20
252.903
 11
9.73146
 21
252.617
  0
LINE
  8
0
 10
9.73146
 20
252.617
 11
9.60313
 21
252.344
  0
LINE
  8
0
 10
9.60313
 20
252.344
 11
9.44164
 21
252.089
  0
LINE
  8
0
 10
9.44164
 20
252.089
 11
9.24951
 21
251.857
  0
LINE
  8
0
 10
9.24951
 20
251.857
 11
9.02982
 21
251.651
  0
LINE
  8
0
 10
9.02982
 20
251.651
 11
8.78598
 21
251.474
  0
LINE
  8
0
 10
8.78598
 20
251.474
 11
8.52187
 21
251.328
  0
LINE
  8
0
 10
8.52187
 20
251.328
 11
8.24164
 21
251.217
  0
LINE
  8
0
 10
8.24164
 20
251.217
 11
7.94971
 21
251.143
  0
LINE
  8
0
 10
7.94971
 20
251.143
 11
7.6507
 21
251.105
  0
LINE
  8
0
 10
7.6507
 20
251.105
 11
7.34929
 21
251.105
  0
LINE
  8
0
 10
-7.6507
 20
251.105
 11
-7.94971
 21
251.143
  0
LINE
  8
0
 10
-7.94971
 20
251.143
 11
-8.24164
 21
251.217
  0
LINE
  8
0
 10
-8.24164
 20
251.217
 11
-8.52187
 21
251.328
  0
LINE
  8
0
 10
-8.52187
 20
251.328
 11
-8.78598
 21
251.474
  0
LINE
  8
0
 10
-8.78598
 20
251.474
 11
-9.02982
 21
251.651
  0
LINE
  8
0
 10
-9.02982
 20
251.651
 11
-9.24951
 21
251.857
  0
LINE
  8
0
 10
-9.24951
 20
251.857
 11
-9.44164
 21
252.089
  0
LINE
  8
0
 10
-9.44164
 20
252.089
 11
-9.60313
 21
252.344
  0
LINE
  8
0
 10
-9.60313
 20
252.344
 11
-9.73146
 21
252.617
  0
LINE
  8
0
 10
-9.73146
 20
252.617
 11
-9.82458
 21
252.903
  0
LINE
  8
0
 10
-9.82458
 20
252.903
 11
-9.88107
 21
253.199
  0
LINE
  8
0
 10
-9.88107
 20
253.199
 11
-9.89999
 21
253.5
  0
LINE
  8
0
 10
-9.89999
 20
253.5
 11
-9.88107
 21
253.801
  0
LINE
  8
0
 10
-9.88107
 20
253.801
 11
-9.82458
 21
254.097
  0
LINE
  8
0
 10
-9.82458
 20
254.097
 11
-9.73146
 21
254.383
  0
LINE
  8
0
 10
-9.73146
 20
254.383
 11
-9.60313
 21
254.656
  0
LINE
  8
0
 10
-9.60313
 20
254.656
 11
-9.44164
 21
254.911
  0
LINE
  8
0
 10
-9.44164
 20
254.911
 11
-9.24951
 21
255.143
  0
LINE
  8
0
 10
-9.24951
 20
255.143
 11
-9.02982
 21
255.349
  0
LINE
  8
0
 10
-9.02982
 20
255.349
 11
-8.78598
 21
255.526
  0
LINE
  8
0
 10
-8.78598
 20
255.526
 11
-8.52187
 21
255.672
  0
LINE
  8
0
 10
-8.52187
 20
255.672
 11
-8.24164
 21
255.783
  0
LINE
  8
0
 10
-8.24164
 20
255.783
 11
-7.94971
 21
255.857
  0
LINE
  8
0
 10
-7.94971
 20
255.857
 11
-7.6507
 21
255.895
  0
LINE
  8
0
 10
-7.6507
 20
255.895
 11
-7.34929
 21
255.895
  0
LINE
  8
0
 10
-7.34929
 20
255.895
 11
-7.05028
 21
255.857
  0
LINE
  8
0
 10
-7.05028
 20
255.857
 11
-6.75835
 21
255.783
  0
LINE
  8
0
 10
-6.75835
 20
255.783
 11
-6.47812
 21
255.672
  0
LINE
  8
0
 10
-6.47812
 20
255.672
 11
-6.214
 21
255.526
  0
LINE
  8
0
 10
-6.214
 20
255.526
 11
-5.97017
 21
255.349
  0
LINE
  8
0
 10
-5.97017
 20
255.349
 11
-5.75047
 21
255.143
  0
LINE
  8
0
 10
-5.75047
 20
255.143
 11
-5.55835
 21
254.911
  0
LINE
  8
0
 10
-5.55835
 20
254.911
 11
-5.39685
 21
254.656
  0
LINE
  8
0
 10
-5.39685
 20
254.656
 11
-5.26852
 21
254.383
  0
LINE
  8
0
 10
-5.26852
 20
254.383
 11
-5.1754
 21
254.097
  0
LINE
  8
0
 10
-5.1754
 20
254.097
 11
-5.11891
 21
253.801
  0
LINE
  8
0
 10
-5.11891
 20
253.801
 11
-5.09999
 21
253.5
  0
LINE
  8
0
 10
-5.09999
 20
253.5
 11
-5.11891
 21
253.199
  0
LINE
  8
0
 10
-5.11891
 20
253.199
 11
-5.1754
 21
252.903
  0
LINE
  8
0
 10
-5.1754
 20
252.903
 11
-5.26852
 21
252.617
  0
LINE
  8
0
 10
-5.26852
 20
252.617
 11
-5.39685
 21
252.344
  0
LINE
  8
0
 10
-5.39685
 20
252.344
 11
-5.55835
 21
252.089
  0
LINE
  8
0
 10
-5.55835
 20
252.089
 11
-5.75047
 21
251.857
  0
LINE
  8
0
 10
-5.75047
 20
251.857
 11
-5.97017
 21
251.651
  0
LINE
  8
0
 10
-5.97017
 20
251.651
 11
-6.214
 21
251.474
  0
LINE
  8
0
 10
-6.214
 20
251.474
 11
-6.47812
 21
251.328
  0
LINE
  8
0
 10
-6.47812
 20
251.328
 11
-6.75835
 21
251.217
  0
LINE
  8
0
 10
-6.75835
 20
251.217
 11
-7.05028
 21
251.143
  0
LINE
  8
0
 10
-7.05028
 20
251.143
 11
-7.34929
 21
251.105
  0
LINE
  8
0
 10
-7.34929
 20
251.105
 11
-7.6507
 21
251.105
  0
ENDSEC
  0
SECTION
  2
OBJECTS
  0
DICTIONARY
  0
ENDSEC
  0
EOF
