  0
SECTION
  2
BLOCKS
  0
ENDSEC
  0
SECTION
  2
ENTITIES
  0
LINE
  8
0
 10
2.01373
 20
429.444
 11
3.32091
 21
429.779
  0
LINE
  8
0
 10
3.32091
 20
429.779
 11
4.57573
 21
430.276
  0
LINE
  8
0
 10
4.57573
 20
430.276
 11
5.75838
 21
430.926
  0
LINE
  8
0
 10
5.75838
 20
430.926
 11
6.12228
 21
431.191
  0
LINE
  8
0
 10
6.12228
 20
431.191
 11
6.10052
 21
431.45
  0
LINE
  8
0
 10
6.10052
 20
431.45
 11
6.11314
 21
431.751
  0
LINE
  8
0
 10
6.11314
 20
431.751
 11
6.16341
 21
432.048
  0
LINE
  8
0
 10
6.16341
 20
432.048
 11
6.25052
 21
432.337
  0
LINE
  8
0
 10
6.25052
 20
432.337
 11
6.37311
 21
432.612
  0
LINE
  8
0
 10
6.37311
 20
432.612
 11
6.52924
 21
432.87
  0
LINE
  8
0
 10
6.52924
 20
432.87
 11
6.71645
 21
433.106
  0
LINE
  8
0
 10
6.71645
 20
433.106
 11
6.93178
 21
433.317
  0
LINE
  8
0
 10
6.93178
 20
433.317
 11
7.17186
 21
433.499
  0
LINE
  8
0
 10
7.17186
 20
433.499
 11
7.43286
 21
433.65
  0
LINE
  8
0
 10
7.43286
 20
433.65
 11
7.71071
 21
433.767
  0
LINE
  8
0
 10
7.71071
 20
433.767
 11
8.00101
 21
433.848
  0
LINE
  8
0
 10
8.00101
 20
433.848
 11
8.29916
 21
433.892
  0
LINE
  8
0
 10
8.29916
 20
433.892
 11
8.60049
 21
433.898
  0
LINE
  8
0
 10
8.60049
 20
433.898
 11
8.81612
 21
433.875
  0
LINE
  8
0
 10
8.81612
 20
433.875
 11
9.41742
 21
434.823
  0
LINE
  8
0
 10
9.41742
 20
434.823
 11
9.99205
 21
436.044
  0
LINE
  8
0
 10
9.99205
 20
436.044
 11
10.4091
 21
437.327
  0
LINE
  8
0
 10
10.4091
 20
437.327
 11
10.662
 21
438.653
  0
LINE
  8
0
 10
10.662
 20
438.653
 11
10.7467
 21
440
  0
LINE
  8
0
 10
10.7467
 20
440
 11
10.662
 21
441.347
  0
LINE
  8
0
 10
10.662
 20
441.347
 11
10.4091
 21
442.673
  0
LINE
  8
0
 10
10.4091
 20
442.673
 11
9.99205
 21
443.956
  0
LINE
  8
0
 10
9.99205
 20
443.956
 11
9.41742
 21
445.177
  0
LINE
  8
0
 10
9.41742
 20
445.177
 11
8.81573
 21
446.125
  0
LINE
  8
0
 10
8.81573
 20
446.125
 11
8.70082
 21
446.108
  0
LINE
  8
0
 10
8.70082
 20
446.108
 11
8.39949
 21
446.102
  0
LINE
  8
0
 10
8.39949
 20
446.102
 11
8.09975
 21
446.134
  0
LINE
  8
0
 10
8.09975
 20
446.134
 11
7.80632
 21
446.202
  0
LINE
  8
0
 10
7.80632
 20
446.202
 11
7.52382
 21
446.307
  0
LINE
  8
0
 10
7.52382
 20
446.307
 11
7.25673
 21
446.447
  0
LINE
  8
0
 10
7.25673
 20
446.447
 11
7.00923
 21
446.619
  0
LINE
  8
0
 10
7.00923
 20
446.619
 11
6.78526
 21
446.821
  0
LINE
  8
0
 10
6.78526
 20
446.821
 11
6.58832
 21
447.049
  0
LINE
  8
0
 10
6.58832
 20
447.049
 11
6.42152
 21
447.3
  0
LINE
  8
0
 10
6.42152
 20
447.3
 11
6.28752
 21
447.57
  0
LINE
  8
0
 10
6.28752
 20
447.57
 11
6.1884
 21
447.855
  0
LINE
  8
0
 10
6.1884
 20
447.855
 11
6.12573
 21
448.149
  0
LINE
  8
0
 10
6.12573
 20
448.149
 11
6.10052
 21
448.45
  0
LINE
  8
0
 10
6.10052
 20
448.45
 11
6.11314
 21
448.751
  0
LINE
  8
0
 10
6.11314
 20
448.751
 11
6.12296
 21
448.809
  0
LINE
  8
0
 10
6.12296
 20
448.809
 11
5.75838
 21
449.074
  0
LINE
  8
0
 10
5.75838
 20
449.074
 11
4.57573
 21
449.724
  0
LINE
  8
0
 10
4.57573
 20
449.724
 11
3.32091
 21
450.221
  0
LINE
  8
0
 10
3.32091
 20
450.221
 11
2.01373
 21
450.556
  0
LINE
  8
0
 10
2.01373
 20
450.556
 11
0.674789
 21
450.726
  0
LINE
  8
0
 10
0.674789
 20
450.726
 11
-0.674789
 21
450.726
  0
LINE
  8
0
 10
-0.674789
 20
450.726
 11
-2.01373
 21
450.556
  0
LINE
  8
0
 10
-2.01373
 20
450.556
 11
-3.32091
 21
450.221
  0
LINE
  8
0
 10
-3.32091
 20
450.221
 11
-4.57573
 21
449.724
  0
LINE
  8
0
 10
-4.57573
 20
449.724
 11
-5.75838
 21
449.074
  0
LINE
  8
0
 10
-5.75838
 20
449.074
 11
-6.12228
 21
448.809
  0
LINE
  8
0
 10
-6.12228
 20
448.809
 11
-6.10052
 21
448.55
  0
LINE
  8
0
 10
-6.10052
 20
448.55
 11
-6.11314
 21
448.249
  0
LINE
  8
0
 10
-6.11314
 20
448.249
 11
-6.16341
 21
447.952
  0
LINE
  8
0
 10
-6.16341
 20
447.952
 11
-6.25052
 21
447.663
  0
LINE
  8
0
 10
-6.25052
 20
447.663
 11
-6.37311
 21
447.388
  0
LINE
  8
0
 10
-6.37311
 20
447.388
 11
-6.52924
 21
447.13
  0
LINE
  8
0
 10
-6.52924
 20
447.13
 11
-6.71645
 21
446.894
  0
LINE
  8
0
 10
-6.71645
 20
446.894
 11
-6.93178
 21
446.683
  0
LINE
  8
0
 10
-6.93178
 20
446.683
 11
-7.17186
 21
446.501
  0
LINE
  8
0
 10
-7.17186
 20
446.501
 11
-7.43286
 21
446.35
  0
LINE
  8
0
 10
-7.43286
 20
446.35
 11
-7.71071
 21
446.233
  0
LINE
  8
0
 10
-7.71071
 20
446.233
 11
-8.00101
 21
446.152
  0
LINE
  8
0
 10
-8.00101
 20
446.152
 11
-8.29916
 21
446.108
  0
LINE
  8
0
 10
-8.29916
 20
446.108
 11
-8.60049
 21
446.102
  0
LINE
  8
0
 10
-8.60049
 20
446.102
 11
-8.81612
 21
446.125
  0
LINE
  8
0
 10
-8.81612
 20
446.125
 11
-9.41742
 21
445.177
  0
LINE
  8
0
 10
-9.41742
 20
445.177
 11
-9.99205
 21
443.956
  0
LINE
  8
0
 10
-9.99205
 20
443.956
 11
-10.4091
 21
442.673
  0
LINE
  8
0
 10
-10.4091
 20
442.673
 11
-10.662
 21
441.347
  0
LINE
  8
0
 10
-10.662
 20
441.347
 11
-10.7467
 21
440
  0
LINE
  8
0
 10
-10.7467
 20
440
 11
-10.662
 21
438.653
  0
LINE
  8
0
 10
-10.662
 20
438.653
 11
-10.4091
 21
437.327
  0
LINE
  8
0
 10
-10.4091
 20
437.327
 11
-9.99205
 21
436.044
  0
LINE
  8
0
 10
-9.99205
 20
436.044
 11
-9.41742
 21
434.823
  0
LINE
  8
0
 10
-9.41742
 20
434.823
 11
-8.81573
 21
433.875
  0
LINE
  8
0
 10
-8.81573
 20
433.875
 11
-8.70082
 21
433.892
  0
LINE
  8
0
 10
-8.70082
 20
433.892
 11
-8.39949
 21
433.898
  0
LINE
  8
0
 10
-8.39949
 20
433.898
 11
-8.09975
 21
433.866
  0
LINE
  8
0
 10
-8.09975
 20
433.866
 11
-7.80632
 21
433.798
  0
LINE
  8
0
 10
-7.80632
 20
433.798
 11
-7.52382
 21
433.693
  0
LINE
  8
0
 10
-7.52382
 20
433.693
 11
-7.25673
 21
433.553
  0
LINE
  8
0
 10
-7.25673
 20
433.553
 11
-7.00923
 21
433.381
  0
LINE
  8
0
 10
-7.00923
 20
433.381
 11
-6.78526
 21
433.179
  0
LINE
  8
0
 10
-6.78526
 20
433.179
 11
-6.58832
 21
432.951
  0
LINE
  8
0
 10
-6.58832
 20
432.951
 11
-6.42152
 21
432.7
  0
LINE
  8
0
 10
-6.42152
 20
432.7
 11
-6.28752
 21
432.43
  0
LINE
  8
0
 10
-6.28752
 20
432.43
 11
-6.1884
 21
432.145
  0
LINE
  8
0
 10
-6.1884
 20
432.145
 11
-6.12573
 21
431.851
  0
LINE
  8
0
 10
-6.12573
 20
431.851
 11
-6.10052
 21
431.55
  0
LINE
  8
0
 10
-6.10052
 20
431.55
 11
-6.11314
 21
431.249
  0
LINE
  8
0
 10
-6.11314
 20
431.249
 11
-6.12296
 21
431.191
  0
LINE
  8
0
 10
-6.12296
 20
431.191
 11
-5.75838
 21
430.926
  0
LINE
  8
0
 10
-5.75838
 20
430.926
 11
-4.57573
 21
430.276
  0
LINE
  8
0
 10
-4.57573
 20
430.276
 11
-3.32091
 21
429.779
  0
LINE
  8
0
 10
-3.32091
 20
429.779
 11
-2.01373
 21
429.444
  0
LINE
  8
0
 10
-2.01373
 20
429.444
 11
-0.674789
 21
429.274
  0
LINE
  8
0
 10
-0.674789
 20
429.274
 11
0.674789
 21
429.274
  0
LINE
  8
0
 10
0.674789
 20
429.274
 11
2.01373
 21
429.444
  0
LINE
  8
0
 10
-0.533707
 20
431.517
 11
-1.59273
 21
431.651
  0
LINE
  8
0
 10
-1.59273
 20
431.651
 11
-2.62663
 21
431.916
  0
LINE
  8
0
 10
-2.62663
 20
431.916
 11
-3.61911
 21
432.309
  0
LINE
  8
0
 10
-3.61911
 20
432.309
 11
-4.55452
 21
432.823
  0
LINE
  8
0
 10
-4.55452
 20
432.823
 11
-5.41809
 21
433.451
  0
LINE
  8
0
 10
-5.41809
 20
433.451
 11
-6.19623
 21
434.181
  0
LINE
  8
0
 10
-6.19623
 20
434.181
 11
-6.87663
 21
435.004
  0
LINE
  8
0
 10
-6.87663
 20
435.004
 11
-7.44859
 21
435.905
  0
LINE
  8
0
 10
-7.44859
 20
435.905
 11
-7.90309
 21
436.871
  0
LINE
  8
0
 10
-7.90309
 20
436.871
 11
-8.23296
 21
437.886
  0
LINE
  8
0
 10
-8.23296
 20
437.886
 11
-8.43297
 21
438.935
  0
LINE
  8
0
 10
-8.43297
 20
438.935
 11
-8.5
 21
440
  0
LINE
  8
0
 10
-8.5
 20
440
 11
-8.43297
 21
441.065
  0
LINE
  8
0
 10
-8.43297
 20
441.065
 11
-8.23296
 21
442.114
  0
LINE
  8
0
 10
-8.23296
 20
442.114
 11
-7.90309
 21
443.129
  0
LINE
  8
0
 10
-7.90309
 20
443.129
 11
-7.44859
 21
444.095
  0
LINE
  8
0
 10
-7.44859
 20
444.095
 11
-6.87663
 21
444.996
  0
LINE
  8
0
 10
-6.87663
 20
444.996
 11
-6.19623
 21
445.819
  0
LINE
  8
0
 10
-6.19623
 20
445.819
 11
-5.41809
 21
446.549
  0
LINE
  8
0
 10
-5.41809
 20
446.549
 11
-4.55452
 21
447.177
  0
LINE
  8
0
 10
-4.55452
 20
447.177
 11
-3.61911
 21
447.691
  0
LINE
  8
0
 10
-3.61911
 20
447.691
 11
-2.62663
 21
448.084
  0
LINE
  8
0
 10
-2.62663
 20
448.084
 11
-1.59273
 21
448.349
  0
LINE
  8
0
 10
-1.59273
 20
448.349
 11
-0.533707
 21
448.483
  0
LINE
  8
0
 10
-0.533707
 20
448.483
 11
0.533707
 21
448.483
  0
LINE
  8
0
 10
0.533707
 20
448.483
 11
1.59273
 21
448.349
  0
LINE
  8
0
 10
1.59273
 20
448.349
 11
2.62663
 21
448.084
  0
LINE
  8
0
 10
2.62663
 20
448.084
 11
3.61911
 21
447.691
  0
LINE
  8
0
 10
3.61911
 20
447.691
 11
4.55452
 21
447.177
  0
LINE
  8
0
 10
4.55452
 20
447.177
 11
5.41809
 21
446.549
  0
LINE
  8
0
 10
5.41809
 20
446.549
 11
6.19623
 21
445.819
  0
LINE
  8
0
 10
6.19623
 20
445.819
 11
6.87663
 21
444.996
  0
LINE
  8
0
 10
6.87663
 20
444.996
 11
7.44859
 21
444.095
  0
LINE
  8
0
 10
7.44859
 20
444.095
 11
7.90309
 21
443.129
  0
LINE
  8
0
 10
7.90309
 20
443.129
 11
8.23296
 21
442.114
  0
LINE
  8
0
 10
8.23296
 20
442.114
 11
8.43297
 21
441.065
  0
LINE
  8
0
 10
8.43297
 20
441.065
 11
8.5
 21
440
  0
LINE
  8
0
 10
8.5
 20
440
 11
8.43297
 21
438.935
  0
LINE
  8
0
 10
8.43297
 20
438.935
 11
8.23296
 21
437.886
  0
LINE
  8
0
 10
8.23296
 20
437.886
 11
7.90309
 21
436.871
  0
LINE
  8
0
 10
7.90309
 20
436.871
 11
7.44859
 21
435.905
  0
LINE
  8
0
 10
7.44859
 20
435.905
 11
6.87663
 21
435.004
  0
LINE
  8
0
 10
6.87663
 20
435.004
 11
6.19623
 21
434.181
  0
LINE
  8
0
 10
6.19623
 20
434.181
 11
5.41809
 21
433.451
  0
LINE
  8
0
 10
5.41809
 20
433.451
 11
4.55452
 21
432.823
  0
LINE
  8
0
 10
4.55452
 20
432.823
 11
3.61911
 21
432.309
  0
LINE
  8
0
 10
3.61911
 20
432.309
 11
2.62663
 21
431.916
  0
LINE
  8
0
 10
2.62663
 20
431.916
 11
1.59273
 21
431.651
  0
LINE
  8
0
 10
1.59273
 20
431.651
 11
0.533707
 21
431.517
  0
LINE
  8
0
 10
0.533707
 20
431.517
 11
-0.533707
 21
431.517
  0
LINE
  8
0
 10
2.00063
 20
319.512
 11
3.2993
 21
319.846
  0
LINE
  8
0
 10
3.2993
 20
319.846
 11
4.54596
 21
320.339
  0
LINE
  8
0
 10
4.54596
 20
320.339
 11
5.60176
 21
320.92
  0
LINE
  8
0
 10
5.60176
 20
320.92
 11
5.60176
 21
323.173
  0
LINE
  8
0
 10
5.60176
 20
323.173
 11
8.49998
 21
324.847
  0
LINE
  8
0
 10
8.49998
 20
324.847
 11
9.12201
 21
324.487
  0
LINE
  8
0
 10
9.12201
 20
324.487
 11
9.35614
 21
324.856
  0
LINE
  8
0
 10
9.35614
 20
324.856
 11
9.92703
 21
326.07
  0
LINE
  8
0
 10
9.92703
 20
326.07
 11
10.3414
 21
327.345
  0
LINE
  8
0
 10
10.3414
 20
327.345
 11
10.5926
 21
328.662
  0
LINE
  8
0
 10
10.5926
 20
328.662
 11
10.6768
 21
330
  0
LINE
  8
0
 10
10.6768
 20
330
 11
10.5926
 21
331.338
  0
LINE
  8
0
 10
10.5926
 20
331.338
 11
10.3414
 21
332.655
  0
LINE
  8
0
 10
10.3414
 20
332.655
 11
9.92703
 21
333.93
  0
LINE
  8
0
 10
9.92703
 20
333.93
 11
9.35614
 21
335.144
  0
LINE
  8
0
 10
9.35614
 20
335.144
 11
9.12201
 21
335.513
  0
LINE
  8
0
 10
9.12201
 20
335.513
 11
8.5
 21
335.153
  0
LINE
  8
0
 10
8.5
 20
335.153
 11
5.60176
 21
336.827
  0
LINE
  8
0
 10
5.60176
 20
336.827
 11
5.60176
 21
339.08
  0
LINE
  8
0
 10
5.60176
 20
339.08
 11
4.54596
 21
339.661
  0
LINE
  8
0
 10
4.54596
 20
339.661
 11
3.2993
 21
340.154
  0
LINE
  8
0
 10
3.2993
 20
340.154
 11
2.00063
 21
340.488
  0
LINE
  8
0
 10
2.00063
 20
340.488
 11
0.670395
 21
340.656
  0
LINE
  8
0
 10
0.670395
 20
340.656
 11
-0.670395
 21
340.656
  0
LINE
  8
0
 10
-0.670395
 20
340.656
 11
-2.00063
 21
340.488
  0
LINE
  8
0
 10
-2.00063
 20
340.488
 11
-3.2993
 21
340.154
  0
LINE
  8
0
 10
-3.2993
 20
340.154
 11
-4.54596
 21
339.661
  0
LINE
  8
0
 10
-4.54596
 20
339.661
 11
-5.60176
 21
339.08
  0
LINE
  8
0
 10
-5.60176
 20
339.08
 11
-5.60176
 21
336.827
  0
LINE
  8
0
 10
-5.60176
 20
336.827
 11
-8.49998
 21
335.153
  0
LINE
  8
0
 10
-8.49998
 20
335.153
 11
-9.12201
 21
335.513
  0
LINE
  8
0
 10
-9.12201
 20
335.513
 11
-9.35614
 21
335.144
  0
LINE
  8
0
 10
-9.35614
 20
335.144
 11
-9.92703
 21
333.93
  0
LINE
  8
0
 10
-9.92703
 20
333.93
 11
-10.3414
 21
332.655
  0
LINE
  8
0
 10
-10.3414
 20
332.655
 11
-10.5926
 21
331.338
  0
LINE
  8
0
 10
-10.5926
 20
331.338
 11
-10.6768
 21
330
  0
LINE
  8
0
 10
-10.6768
 20
330
 11
-10.5926
 21
328.662
  0
LINE
  8
0
 10
-10.5926
 20
328.662
 11
-10.3414
 21
327.345
  0
LINE
  8
0
 10
-10.3414
 20
327.345
 11
-9.92703
 21
326.07
  0
LINE
  8
0
 10
-9.92703
 20
326.07
 11
-9.35614
 21
324.856
  0
LINE
  8
0
 10
-9.35614
 20
324.856
 11
-9.12201
 21
324.487
  0
LINE
  8
0
 10
-9.12201
 20
324.487
 11
-8.5
 21
324.847
  0
LINE
  8
0
 10
-8.5
 20
324.847
 11
-5.60176
 21
323.173
  0
LINE
  8
0
 10
-5.60176
 20
323.173
 11
-5.60176
 21
320.92
  0
LINE
  8
0
 10
-5.60176
 20
320.92
 11
-4.54596
 21
320.339
  0
LINE
  8
0
 10
-4.54596
 20
320.339
 11
-3.2993
 21
319.846
  0
LINE
  8
0
 10
-3.2993
 20
319.846
 11
-2.00063
 21
319.512
  0
LINE
  8
0
 10
-2.00063
 20
319.512
 11
-0.670395
 21
319.344
  0
LINE
  8
0
 10
-0.670395
 20
319.344
 11
0.670395
 21
319.344
  0
LINE
  8
0
 10
0.670395
 20
319.344
 11
2.00063
 21
319.512
  0
LINE
  8
0
 10
-0.533707
 20
321.517
 11
-1.59273
 21
321.651
  0
LINE
  8
0
 10
-1.59273
 20
321.651
 11
-2.62663
 21
321.916
  0
LINE
  8
0
 10
-2.62663
 20
321.916
 11
-3.61911
 21
322.309
  0
LINE
  8
0
 10
-3.61911
 20
322.309
 11
-4.55452
 21
322.823
  0
LINE
  8
0
 10
-4.55452
 20
322.823
 11
-5.41809
 21
323.451
  0
LINE
  8
0
 10
-5.41809
 20
323.451
 11
-6.19623
 21
324.181
  0
LINE
  8
0
 10
-6.19623
 20
324.181
 11
-6.87663
 21
325.004
  0
LINE
  8
0
 10
-6.87663
 20
325.004
 11
-7.44859
 21
325.905
  0
LINE
  8
0
 10
-7.44859
 20
325.905
 11
-7.90309
 21
326.871
  0
LINE
  8
0
 10
-7.90309
 20
326.871
 11
-8.23296
 21
327.886
  0
LINE
  8
0
 10
-8.23296
 20
327.886
 11
-8.43297
 21
328.935
  0
LINE
  8
0
 10
-8.43297
 20
328.935
 11
-8.5
 21
330
  0
LINE
  8
0
 10
-8.5
 20
330
 11
-8.43297
 21
331.065
  0
LINE
  8
0
 10
-8.43297
 20
331.065
 11
-8.23296
 21
332.114
  0
LINE
  8
0
 10
-8.23296
 20
332.114
 11
-7.90309
 21
333.129
  0
LINE
  8
0
 10
-7.90309
 20
333.129
 11
-7.44859
 21
334.095
  0
LINE
  8
0
 10
-7.44859
 20
334.095
 11
-6.87663
 21
334.996
  0
LINE
  8
0
 10
-6.87663
 20
334.996
 11
-6.19623
 21
335.819
  0
LINE
  8
0
 10
-6.19623
 20
335.819
 11
-5.41809
 21
336.549
  0
LINE
  8
0
 10
-5.41809
 20
336.549
 11
-4.55452
 21
337.177
  0
LINE
  8
0
 10
-4.55452
 20
337.177
 11
-3.61911
 21
337.691
  0
LINE
  8
0
 10
-3.61911
 20
337.691
 11
-2.62663
 21
338.084
  0
LINE
  8
0
 10
-2.62663
 20
338.084
 11
-1.59273
 21
338.349
  0
LINE
  8
0
 10
-1.59273
 20
338.349
 11
-0.533707
 21
338.483
  0
LINE
  8
0
 10
-0.533707
 20
338.483
 11
0.533707
 21
338.483
  0
LINE
  8
0
 10
0.533707
 20
338.483
 11
1.59273
 21
338.349
  0
LINE
  8
0
 10
1.59273
 20
338.349
 11
2.62663
 21
338.084
  0
LINE
  8
0
 10
2.62663
 20
338.084
 11
3.61911
 21
337.691
  0
LINE
  8
0
 10
3.61911
 20
337.691
 11
4.55452
 21
337.177
  0
LINE
  8
0
 10
4.55452
 20
337.177
 11
5.41809
 21
336.549
  0
LINE
  8
0
 10
5.41809
 20
336.549
 11
6.19623
 21
335.819
  0
LINE
  8
0
 10
6.19623
 20
335.819
 11
6.87663
 21
334.996
  0
LINE
  8
0
 10
6.87663
 20
334.996
 11
7.44859
 21
334.095
  0
LINE
  8
0
 10
7.44859
 20
334.095
 11
7.90309
 21
333.129
  0
LINE
  8
0
 10
7.90309
 20
333.129
 11
8.23296
 21
332.114
  0
LINE
  8
0
 10
8.23296
 20
332.114
 11
8.43297
 21
331.065
  0
LINE
  8
0
 10
8.43297
 20
331.065
 11
8.5
 21
330
  0
LINE
  8
0
 10
8.5
 20
330
 11
8.43297
 21
328.935
  0
LINE
  8
0
 10
8.43297
 20
328.935
 11
8.23296
 21
327.886
  0
LINE
  8
0
 10
8.23296
 20
327.886
 11
7.90309
 21
326.871
  0
LINE
  8
0
 10
7.90309
 20
326.871
 11
7.44859
 21
325.905
  0
LINE
  8
0
 10
7.44859
 20
325.905
 11
6.87663
 21
325.004
  0
LINE
  8
0
 10
6.87663
 20
325.004
 11
6.19623
 21
324.181
  0
LINE
  8
0
 10
6.19623
 20
324.181
 11
5.41809
 21
323.451
  0
LINE
  8
0
 10
5.41809
 20
323.451
 11
4.55452
 21
322.823
  0
LINE
  8
0
 10
4.55452
 20
322.823
 11
3.61911
 21
322.309
  0
LINE
  8
0
 10
3.61911
 20
322.309
 11
2.62663
 21
321.916
  0
LINE
  8
0
 10
2.62663
 20
321.916
 11
1.59273
 21
321.651
  0
LINE
  8
0
 10
1.59273
 20
321.651
 11
0.533707
 21
321.517
  0
LINE
  8
0
 10
0.533707
 20
321.517
 11
-0.533707
 21
321.517
  0
LINE
  8
0
 10
2.03777
 20
209.318
 11
3.36055
 21
209.657
  0
LINE
  8
0
 10
3.36055
 20
209.657
 11
4.63034
 21
210.16
  0
LINE
  8
0
 10
4.63034
 20
210.16
 11
5.60176
 21
210.694
  0
LINE
  8
0
 10
5.60176
 20
210.694
 11
5.60176
 21
213.173
  0
LINE
  8
0
 10
5.60176
 20
213.173
 11
8.49998
 21
214.847
  0
LINE
  8
0
 10
8.49998
 20
214.847
 11
9.29346
 21
214.388
  0
LINE
  8
0
 10
9.29346
 20
214.388
 11
9.52983
 21
214.761
  0
LINE
  8
0
 10
9.52983
 20
214.761
 11
10.1113
 21
215.997
  0
LINE
  8
0
 10
10.1113
 20
215.997
 11
10.5333
 21
217.296
  0
LINE
  8
0
 10
10.5333
 20
217.296
 11
10.7892
 21
218.637
  0
LINE
  8
0
 10
10.7892
 20
218.637
 11
10.875
 21
220
  0
LINE
  8
0
 10
10.875
 20
220
 11
10.7892
 21
221.363
  0
LINE
  8
0
 10
10.7892
 20
221.363
 11
10.5333
 21
222.704
  0
LINE
  8
0
 10
10.5333
 20
222.704
 11
10.1113
 21
224.003
  0
LINE
  8
0
 10
10.1113
 20
224.003
 11
9.52983
 21
225.239
  0
LINE
  8
0
 10
9.52983
 20
225.239
 11
9.29347
 21
225.612
  0
LINE
  8
0
 10
9.29347
 20
225.612
 11
8.5
 21
225.153
  0
LINE
  8
0
 10
8.5
 20
225.153
 11
5.60176
 21
226.827
  0
LINE
  8
0
 10
5.60176
 20
226.827
 11
5.60176
 21
229.306
  0
LINE
  8
0
 10
5.60176
 20
229.306
 11
4.63034
 21
229.84
  0
LINE
  8
0
 10
4.63034
 20
229.84
 11
3.36055
 21
230.343
  0
LINE
  8
0
 10
3.36055
 20
230.343
 11
2.03777
 21
230.682
  0
LINE
  8
0
 10
2.03777
 20
230.682
 11
0.682846
 21
230.854
  0
LINE
  8
0
 10
0.682846
 20
230.854
 11
-0.682846
 21
230.854
  0
LINE
  8
0
 10
-0.682846
 20
230.854
 11
-2.03777
 21
230.682
  0
LINE
  8
0
 10
-2.03777
 20
230.682
 11
-3.36055
 21
230.343
  0
LINE
  8
0
 10
-3.36055
 20
230.343
 11
-4.63034
 21
229.84
  0
LINE
  8
0
 10
-4.63034
 20
229.84
 11
-5.60176
 21
229.306
  0
LINE
  8
0
 10
-5.60176
 20
229.306
 11
-5.60176
 21
226.827
  0
LINE
  8
0
 10
-5.60176
 20
226.827
 11
-8.49998
 21
225.153
  0
LINE
  8
0
 10
-8.49998
 20
225.153
 11
-9.29346
 21
225.612
  0
LINE
  8
0
 10
-9.29346
 20
225.612
 11
-9.52983
 21
225.239
  0
LINE
  8
0
 10
-9.52983
 20
225.239
 11
-10.1113
 21
224.003
  0
LINE
  8
0
 10
-10.1113
 20
224.003
 11
-10.5333
 21
222.704
  0
LINE
  8
0
 10
-10.5333
 20
222.704
 11
-10.7892
 21
221.363
  0
LINE
  8
0
 10
-10.7892
 20
221.363
 11
-10.875
 21
220
  0
LINE
  8
0
 10
-10.875
 20
220
 11
-10.7892
 21
218.637
  0
LINE
  8
0
 10
-10.7892
 20
218.637
 11
-10.5333
 21
217.296
  0
LINE
  8
0
 10
-10.5333
 20
217.296
 11
-10.1113
 21
215.997
  0
LINE
  8
0
 10
-10.1113
 20
215.997
 11
-9.52983
 21
214.761
  0
LINE
  8
0
 10
-9.52983
 20
214.761
 11
-9.29347
 21
214.388
  0
LINE
  8
0
 10
-9.29347
 20
214.388
 11
-8.5
 21
214.847
  0
LINE
  8
0
 10
-8.5
 20
214.847
 11
-5.60176
 21
213.173
  0
LINE
  8
0
 10
-5.60176
 20
213.173
 11
-5.60176
 21
210.694
  0
LINE
  8
0
 10
-5.60176
 20
210.694
 11
-4.63034
 21
210.16
  0
LINE
  8
0
 10
-4.63034
 20
210.16
 11
-3.36055
 21
209.657
  0
LINE
  8
0
 10
-3.36055
 20
209.657
 11
-2.03777
 21
209.318
  0
LINE
  8
0
 10
-2.03777
 20
209.318
 11
-0.682846
 21
209.146
  0
LINE
  8
0
 10
-0.682846
 20
209.146
 11
0.682846
 21
209.146
  0
LINE
  8
0
 10
0.682846
 20
209.146
 11
2.03777
 21
209.318
  0
LINE
  8
0
 10
-0.470917
 20
212.515
 11
-1.40535
 21
212.633
  0
LINE
  8
0
 10
-1.40535
 20
212.633
 11
-2.31763
 21
212.867
  0
LINE
  8
0
 10
-2.31763
 20
212.867
 11
-3.19334
 21
213.214
  0
LINE
  8
0
 10
-3.19334
 20
213.214
 11
-4.01869
 21
213.668
  0
LINE
  8
0
 10
-4.01869
 20
213.668
 11
-4.78067
 21
214.221
  0
LINE
  8
0
 10
-4.78067
 20
214.221
 11
-5.46725
 21
214.866
  0
LINE
  8
0
 10
-5.46725
 20
214.866
 11
-6.06763
 21
215.592
  0
LINE
  8
0
 10
-6.06763
 20
215.592
 11
-6.5723
 21
216.387
  0
LINE
  8
0
 10
-6.5723
 20
216.387
 11
-6.97331
 21
217.239
  0
LINE
  8
0
 10
-6.97331
 20
217.239
 11
-7.26436
 21
218.135
  0
LINE
  8
0
 10
-7.26436
 20
218.135
 11
-7.44086
 21
219.06
  0
LINE
  8
0
 10
-7.44086
 20
219.06
 11
-7.5
 21
220
  0
LINE
  8
0
 10
-7.5
 20
220
 11
-7.44086
 21
220.94
  0
LINE
  8
0
 10
-7.44086
 20
220.94
 11
-7.26436
 21
221.865
  0
LINE
  8
0
 10
-7.26436
 20
221.865
 11
-6.97331
 21
222.761
  0
LINE
  8
0
 10
-6.97331
 20
222.761
 11
-6.5723
 21
223.613
  0
LINE
  8
0
 10
-6.5723
 20
223.613
 11
-6.06763
 21
224.408
  0
LINE
  8
0
 10
-6.06763
 20
224.408
 11
-5.46725
 21
225.134
  0
LINE
  8
0
 10
-5.46725
 20
225.134
 11
-4.78067
 21
225.779
  0
LINE
  8
0
 10
-4.78067
 20
225.779
 11
-4.01869
 21
226.332
  0
LINE
  8
0
 10
-4.01869
 20
226.332
 11
-3.19334
 21
226.786
  0
LINE
  8
0
 10
-3.19334
 20
226.786
 11
-2.31763
 21
227.133
  0
LINE
  8
0
 10
-2.31763
 20
227.133
 11
-1.40535
 21
227.367
  0
LINE
  8
0
 10
-1.40535
 20
227.367
 11
-0.470917
 21
227.485
  0
LINE
  8
0
 10
-0.470917
 20
227.485
 11
0.470917
 21
227.485
  0
LINE
  8
0
 10
0.470917
 20
227.485
 11
1.40535
 21
227.367
  0
LINE
  8
0
 10
1.40535
 20
227.367
 11
2.31763
 21
227.133
  0
LINE
  8
0
 10
2.31763
 20
227.133
 11
3.19334
 21
226.786
  0
LINE
  8
0
 10
3.19334
 20
226.786
 11
4.01869
 21
226.332
  0
LINE
  8
0
 10
4.01869
 20
226.332
 11
4.78067
 21
225.779
  0
LINE
  8
0
 10
4.78067
 20
225.779
 11
5.46725
 21
225.134
  0
LINE
  8
0
 10
5.46725
 20
225.134
 11
6.06763
 21
224.408
  0
LINE
  8
0
 10
6.06763
 20
224.408
 11
6.5723
 21
223.613
  0
LINE
  8
0
 10
6.5723
 20
223.613
 11
6.97331
 21
222.761
  0
LINE
  8
0
 10
6.97331
 20
222.761
 11
7.26436
 21
221.865
  0
LINE
  8
0
 10
7.26436
 20
221.865
 11
7.44086
 21
220.94
  0
LINE
  8
0
 10
7.44086
 20
220.94
 11
7.5
 21
220
  0
LINE
  8
0
 10
7.5
 20
220
 11
7.44086
 21
219.06
  0
LINE
  8
0
 10
7.44086
 20
219.06
 11
7.26436
 21
218.135
  0
LINE
  8
0
 10
7.26436
 20
218.135
 11
6.97331
 21
217.239
  0
LINE
  8
0
 10
6.97331
 20
217.239
 11
6.5723
 21
216.387
  0
LINE
  8
0
 10
6.5723
 20
216.387
 11
6.06763
 21
215.592
  0
LINE
  8
0
 10
6.06763
 20
215.592
 11
5.46725
 21
214.866
  0
LINE
  8
0
 10
5.46725
 20
214.866
 11
4.78067
 21
214.221
  0
LINE
  8
0
 10
4.78067
 20
214.221
 11
4.01869
 21
213.668
  0
LINE
  8
0
 10
4.01869
 20
213.668
 11
3.19334
 21
213.214
  0
LINE
  8
0
 10
3.19334
 20
213.214
 11
2.31763
 21
212.867
  0
LINE
  8
0
 10
2.31763
 20
212.867
 11
1.40535
 21
212.633
  0
LINE
  8
0
 10
1.40535
 20
212.633
 11
0.470917
 21
212.515
  0
LINE
  8
0
 10
0.470917
 20
212.515
 11
-0.470917
 21
212.515
  0
LINE
  8
0
 10
0.749512
 20
216.071
 11
1.23605
 21
216.196
  0
LINE
  8
0
 10
1.23605
 20
216.196
 11
1.70311
 21
216.381
  0
LINE
  8
0
 10
1.70311
 20
216.381
 11
2.1433
 21
216.623
  0
LINE
  8
0
 10
2.1433
 20
216.623
 11
2.54968
 21
216.918
  0
LINE
  8
0
 10
2.54968
 20
216.918
 11
2.91586
 21
217.262
  0
LINE
  8
0
 10
2.91586
 20
217.262
 11
3.23605
 21
217.649
  0
LINE
  8
0
 10
3.23605
 20
217.649
 11
3.50522
 21
218.073
  0
LINE
  8
0
 10
3.50522
 20
218.073
 11
3.7191
 21
218.528
  0
LINE
  8
0
 10
3.7191
 20
218.528
 11
3.87433
 21
219.005
  0
LINE
  8
0
 10
3.87433
 20
219.005
 11
3.96844
 21
219.499
  0
LINE
  8
0
 10
3.96844
 20
219.499
 11
4
 21
220
  0
LINE
  8
0
 10
4
 20
220
 11
3.96844
 21
220.501
  0
LINE
  8
0
 10
3.96844
 20
220.501
 11
3.87433
 21
220.995
  0
LINE
  8
0
 10
3.87433
 20
220.995
 11
3.7191
 21
221.472
  0
LINE
  8
0
 10
3.7191
 20
221.472
 11
3.50522
 21
221.927
  0
LINE
  8
0
 10
3.50522
 20
221.927
 11
3.23605
 21
222.351
  0
LINE
  8
0
 10
3.23605
 20
222.351
 11
2.91586
 21
222.738
  0
LINE
  8
0
 10
2.91586
 20
222.738
 11
2.54968
 21
223.082
  0
LINE
  8
0
 10
2.54968
 20
223.082
 11
2.1433
 21
223.377
  0
LINE
  8
0
 10
2.1433
 20
223.377
 11
1.70311
 21
223.619
  0
LINE
  8
0
 10
1.70311
 20
223.619
 11
1.23605
 21
223.804
  0
LINE
  8
0
 10
1.23605
 20
223.804
 11
0.749512
 21
223.929
  0
LINE
  8
0
 10
0.749512
 20
223.929
 11
0.25116
 21
223.992
  0
LINE
  8
0
 10
0.25116
 20
223.992
 11
-0.25116
 21
223.992
  0
LINE
  8
0
 10
-0.25116
 20
223.992
 11
-0.749512
 21
223.929
  0
LINE
  8
0
 10
-0.749512
 20
223.929
 11
-1.23605
 21
223.804
  0
LINE
  8
0
 10
-1.23605
 20
223.804
 11
-1.70311
 21
223.619
  0
LINE
  8
0
 10
-1.70311
 20
223.619
 11
-2.1433
 21
223.377
  0
LINE
  8
0
 10
-2.1433
 20
223.377
 11
-2.54968
 21
223.082
  0
LINE
  8
0
 10
-2.54968
 20
223.082
 11
-2.91586
 21
222.738
  0
LINE
  8
0
 10
-2.91586
 20
222.738
 11
-3.23605
 21
222.351
  0
LINE
  8
0
 10
-3.23605
 20
222.351
 11
-3.50522
 21
221.927
  0
LINE
  8
0
 10
-3.50522
 20
221.927
 11
-3.7191
 21
221.472
  0
LINE
  8
0
 10
-3.7191
 20
221.472
 11
-3.87433
 21
220.995
  0
LINE
  8
0
 10
-3.87433
 20
220.995
 11
-3.96844
 21
220.501
  0
LINE
  8
0
 10
-3.96844
 20
220.501
 11
-4
 21
220
  0
LINE
  8
0
 10
-4
 20
220
 11
-3.96844
 21
219.499
  0
LINE
  8
0
 10
-3.96844
 20
219.499
 11
-3.87433
 21
219.005
  0
LINE
  8
0
 10
-3.87433
 20
219.005
 11
-3.7191
 21
218.528
  0
LINE
  8
0
 10
-3.7191
 20
218.528
 11
-3.50522
 21
218.073
  0
LINE
  8
0
 10
-3.50522
 20
218.073
 11
-3.23605
 21
217.649
  0
LINE
  8
0
 10
-3.23605
 20
217.649
 11
-2.91586
 21
217.262
  0
LINE
  8
0
 10
-2.91586
 20
217.262
 11
-2.54968
 21
216.918
  0
LINE
  8
0
 10
-2.54968
 20
216.918
 11
-2.1433
 21
216.623
  0
LINE
  8
0
 10
-2.1433
 20
216.623
 11
-1.70311
 21
216.381
  0
LINE
  8
0
 10
-1.70311
 20
216.381
 11
-1.23605
 21
216.196
  0
LINE
  8
0
 10
-1.23605
 20
216.196
 11
-0.749512
 21
216.071
  0
LINE
  8
0
 10
-0.749512
 20
216.071
 11
-0.25116
 21
216.008
  0
LINE
  8
0
 10
-0.25116
 20
216.008
 11
0.25116
 21
216.008
  0
LINE
  8
0
 10
0.25116
 20
216.008
 11
0.749512
 21
216.071
  0
LINE
  8
0
 10
-0.18837
 20
217.006
 11
-0.562134
 21
217.053
  0
LINE
  8
0
 10
-0.562134
 20
217.053
 11
-0.927048
 21
217.147
  0
LINE
  8
0
 10
-0.927048
 20
217.147
 11
-1.27733
 21
217.286
  0
LINE
  8
0
 10
-1.27733
 20
217.286
 11
-1.60747
 21
217.467
  0
LINE
  8
0
 10
-1.60747
 20
217.467
 11
-1.91226
 21
217.688
  0
LINE
  8
0
 10
-1.91226
 20
217.688
 11
-2.1869
 21
217.946
  0
LINE
  8
0
 10
-2.1869
 20
217.946
 11
-2.42705
 21
218.237
  0
LINE
  8
0
 10
-2.42705
 20
218.237
 11
-2.62891
 21
218.555
  0
LINE
  8
0
 10
-2.62891
 20
218.555
 11
-2.78932
 21
218.896
  0
LINE
  8
0
 10
-2.78932
 20
218.896
 11
-2.90575
 21
219.254
  0
LINE
  8
0
 10
-2.90575
 20
219.254
 11
-2.97633
 21
219.624
  0
LINE
  8
0
 10
-2.97633
 20
219.624
 11
-3
 21
220
  0
LINE
  8
0
 10
-3
 20
220
 11
-2.97633
 21
220.376
  0
LINE
  8
0
 10
-2.97633
 20
220.376
 11
-2.90575
 21
220.746
  0
LINE
  8
0
 10
-2.90575
 20
220.746
 11
-2.78932
 21
221.104
  0
LINE
  8
0
 10
-2.78932
 20
221.104
 11
-2.62891
 21
221.445
  0
LINE
  8
0
 10
-2.62891
 20
221.445
 11
-2.42705
 21
221.763
  0
LINE
  8
0
 10
-2.42705
 20
221.763
 11
-2.1869
 21
222.054
  0
LINE
  8
0
 10
-2.1869
 20
222.054
 11
-1.91226
 21
222.312
  0
LINE
  8
0
 10
-1.91226
 20
222.312
 11
-1.60747
 21
222.533
  0
LINE
  8
0
 10
-1.60747
 20
222.533
 11
-1.27733
 21
222.714
  0
LINE
  8
0
 10
-1.27733
 20
222.714
 11
-0.927048
 21
222.853
  0
LINE
  8
0
 10
-0.927048
 20
222.853
 11
-0.562134
 21
222.947
  0
LINE
  8
0
 10
-0.562134
 20
222.947
 11
-0.18837
 21
222.994
  0
LINE
  8
0
 10
-0.18837
 20
222.994
 11
0.18837
 21
222.994
  0
LINE
  8
0
 10
0.18837
 20
222.994
 11
0.562134
 21
222.947
  0
LINE
  8
0
 10
0.562134
 20
222.947
 11
0.927048
 21
222.853
  0
LINE
  8
0
 10
0.927048
 20
222.853
 11
1.27733
 21
222.714
  0
LINE
  8
0
 10
1.27733
 20
222.714
 11
1.60747
 21
222.533
  0
LINE
  8
0
 10
1.60747
 20
222.533
 11
1.91226
 21
222.312
  0
LINE
  8
0
 10
1.91226
 20
222.312
 11
2.1869
 21
222.054
  0
LINE
  8
0
 10
2.1869
 20
222.054
 11
2.42705
 21
221.763
  0
LINE
  8
0
 10
2.42705
 20
221.763
 11
2.62891
 21
221.445
  0
LINE
  8
0
 10
2.62891
 20
221.445
 11
2.78932
 21
221.104
  0
LINE
  8
0
 10
2.78932
 20
221.104
 11
2.90575
 21
220.746
  0
LINE
  8
0
 10
2.90575
 20
220.746
 11
2.97633
 21
220.376
  0
LINE
  8
0
 10
2.97633
 20
220.376
 11
3
 21
220
  0
LINE
  8
0
 10
3
 20
220
 11
2.97633
 21
219.624
  0
LINE
  8
0
 10
2.97633
 20
219.624
 11
2.90575
 21
219.254
  0
LINE
  8
0
 10
2.90575
 20
219.254
 11
2.78932
 21
218.896
  0
LINE
  8
0
 10
2.78932
 20
218.896
 11
2.62891
 21
218.555
  0
LINE
  8
0
 10
2.62891
 20
218.555
 11
2.42705
 21
218.237
  0
LINE
  8
0
 10
2.42705
 20
218.237
 11
2.1869
 21
217.946
  0
LINE
  8
0
 10
2.1869
 20
217.946
 11
1.91226
 21
217.688
  0
LINE
  8
0
 10
1.91226
 20
217.688
 11
1.60747
 21
217.467
  0
LINE
  8
0
 10
1.60747
 20
217.467
 11
1.27733
 21
217.286
  0
LINE
  8
0
 10
1.27733
 20
217.286
 11
0.927048
 21
217.147
  0
LINE
  8
0
 10
0.927048
 20
217.147
 11
0.562134
 21
217.053
  0
LINE
  8
0
 10
0.562134
 20
217.053
 11
0.18837
 21
217.006
  0
LINE
  8
0
 10
0.18837
 20
217.006
 11
-0.18837
 21
217.006
  0
LINE
  8
0
 10
2.01373
 20
99.4436
 11
3.32091
 21
99.7793
  0
LINE
  8
0
 10
3.32091
 20
99.7793
 11
4.57573
 21
100.276
  0
LINE
  8
0
 10
4.57573
 20
100.276
 11
5.60176
 21
100.84
  0
LINE
  8
0
 10
5.60176
 20
100.84
 11
5.60176
 21
103.173
  0
LINE
  8
0
 10
5.60176
 20
103.173
 11
8.49998
 21
104.847
  0
LINE
  8
0
 10
8.49998
 20
104.847
 11
9.1825
 21
104.453
  0
LINE
  8
0
 10
9.1825
 20
104.453
 11
9.41742
 21
104.823
  0
LINE
  8
0
 10
9.41742
 20
104.823
 11
9.99205
 21
106.044
  0
LINE
  8
0
 10
9.99205
 20
106.044
 11
10.4091
 21
107.327
  0
LINE
  8
0
 10
10.4091
 20
107.327
 11
10.662
 21
108.653
  0
LINE
  8
0
 10
10.662
 20
108.653
 11
10.7467
 21
110
  0
LINE
  8
0
 10
10.7467
 20
110
 11
10.662
 21
111.347
  0
LINE
  8
0
 10
10.662
 20
111.347
 11
10.4091
 21
112.673
  0
LINE
  8
0
 10
10.4091
 20
112.673
 11
9.99205
 21
113.956
  0
LINE
  8
0
 10
9.99205
 20
113.956
 11
9.41742
 21
115.177
  0
LINE
  8
0
 10
9.41742
 20
115.177
 11
9.1825
 21
115.547
  0
LINE
  8
0
 10
9.1825
 20
115.547
 11
8.5
 21
115.153
  0
LINE
  8
0
 10
8.5
 20
115.153
 11
5.60176
 21
116.827
  0
LINE
  8
0
 10
5.60176
 20
116.827
 11
5.60176
 21
119.16
  0
LINE
  8
0
 10
5.60176
 20
119.16
 11
4.57573
 21
119.724
  0
LINE
  8
0
 10
4.57573
 20
119.724
 11
3.32091
 21
120.221
  0
LINE
  8
0
 10
3.32091
 20
120.221
 11
2.01373
 21
120.556
  0
LINE
  8
0
 10
2.01373
 20
120.556
 11
0.674789
 21
120.726
  0
LINE
  8
0
 10
0.674789
 20
120.726
 11
-0.674789
 21
120.726
  0
LINE
  8
0
 10
-0.674789
 20
120.726
 11
-2.01373
 21
120.556
  0
LINE
  8
0
 10
-2.01373
 20
120.556
 11
-3.32091
 21
120.221
  0
LINE
  8
0
 10
-3.32091
 20
120.221
 11
-4.57573
 21
119.724
  0
LINE
  8
0
 10
-4.57573
 20
119.724
 11
-5.60176
 21
119.16
  0
LINE
  8
0
 10
-5.60176
 20
119.16
 11
-5.60176
 21
116.827
  0
LINE
  8
0
 10
-5.60176
 20
116.827
 11
-8.49998
 21
115.153
  0
LINE
  8
0
 10
-8.49998
 20
115.153
 11
-9.1825
 21
115.547
  0
LINE
  8
0
 10
-9.1825
 20
115.547
 11
-9.41742
 21
115.177
  0
LINE
  8
0
 10
-9.41742
 20
115.177
 11
-9.99205
 21
113.956
  0
LINE
  8
0
 10
-9.99205
 20
113.956
 11
-10.4091
 21
112.673
  0
LINE
  8
0
 10
-10.4091
 20
112.673
 11
-10.662
 21
111.347
  0
LINE
  8
0
 10
-10.662
 20
111.347
 11
-10.7467
 21
110
  0
LINE
  8
0
 10
-10.7467
 20
110
 11
-10.662
 21
108.653
  0
LINE
  8
0
 10
-10.662
 20
108.653
 11
-10.4091
 21
107.327
  0
LINE
  8
0
 10
-10.4091
 20
107.327
 11
-9.99205
 21
106.044
  0
LINE
  8
0
 10
-9.99205
 20
106.044
 11
-9.41742
 21
104.823
  0
LINE
  8
0
 10
-9.41742
 20
104.823
 11
-9.1825
 21
104.453
  0
LINE
  8
0
 10
-9.1825
 20
104.453
 11
-8.5
 21
104.847
  0
LINE
  8
0
 10
-8.5
 20
104.847
 11
-5.60176
 21
103.173
  0
LINE
  8
0
 10
-5.60176
 20
103.173
 11
-5.60176
 21
100.84
  0
LINE
  8
0
 10
-5.60176
 20
100.84
 11
-4.57573
 21
100.276
  0
LINE
  8
0
 10
-4.57573
 20
100.276
 11
-3.32091
 21
99.7793
  0
LINE
  8
0
 10
-3.32091
 20
99.7793
 11
-2.01373
 21
99.4436
  0
LINE
  8
0
 10
-2.01373
 20
99.4436
 11
-0.674789
 21
99.2745
  0
LINE
  8
0
 10
-0.674789
 20
99.2745
 11
0.674789
 21
99.2745
  0
LINE
  8
0
 10
0.674789
 20
99.2745
 11
2.01373
 21
99.4436
  0
LINE
  8
0
 10
-0.533707
 20
101.517
 11
-1.59273
 21
101.651
  0
LINE
  8
0
 10
-1.59273
 20
101.651
 11
-2.62663
 21
101.916
  0
LINE
  8
0
 10
-2.62663
 20
101.916
 11
-3.61911
 21
102.309
  0
LINE
  8
0
 10
-3.61911
 20
102.309
 11
-4.55452
 21
102.823
  0
LINE
  8
0
 10
-4.55452
 20
102.823
 11
-5.41809
 21
103.451
  0
LINE
  8
0
 10
-5.41809
 20
103.451
 11
-6.19623
 21
104.181
  0
LINE
  8
0
 10
-6.19623
 20
104.181
 11
-6.87663
 21
105.004
  0
LINE
  8
0
 10
-6.87663
 20
105.004
 11
-7.44859
 21
105.905
  0
LINE
  8
0
 10
-7.44859
 20
105.905
 11
-7.90309
 21
106.871
  0
LINE
  8
0
 10
-7.90309
 20
106.871
 11
-8.23296
 21
107.886
  0
LINE
  8
0
 10
-8.23296
 20
107.886
 11
-8.43297
 21
108.935
  0
LINE
  8
0
 10
-8.43297
 20
108.935
 11
-8.5
 21
110
  0
LINE
  8
0
 10
-8.5
 20
110
 11
-8.43297
 21
111.065
  0
LINE
  8
0
 10
-8.43297
 20
111.065
 11
-8.23296
 21
112.114
  0
LINE
  8
0
 10
-8.23296
 20
112.114
 11
-7.90309
 21
113.129
  0
LINE
  8
0
 10
-7.90309
 20
113.129
 11
-7.44859
 21
114.095
  0
LINE
  8
0
 10
-7.44859
 20
114.095
 11
-6.87663
 21
114.996
  0
LINE
  8
0
 10
-6.87663
 20
114.996
 11
-6.19623
 21
115.819
  0
LINE
  8
0
 10
-6.19623
 20
115.819
 11
-5.41809
 21
116.549
  0
LINE
  8
0
 10
-5.41809
 20
116.549
 11
-4.55452
 21
117.177
  0
LINE
  8
0
 10
-4.55452
 20
117.177
 11
-3.61911
 21
117.691
  0
LINE
  8
0
 10
-3.61911
 20
117.691
 11
-2.62663
 21
118.084
  0
LINE
  8
0
 10
-2.62663
 20
118.084
 11
-1.59273
 21
118.349
  0
LINE
  8
0
 10
-1.59273
 20
118.349
 11
-0.533707
 21
118.483
  0
LINE
  8
0
 10
-0.533707
 20
118.483
 11
0.533707
 21
118.483
  0
LINE
  8
0
 10
0.533707
 20
118.483
 11
1.59273
 21
118.349
  0
LINE
  8
0
 10
1.59273
 20
118.349
 11
2.62663
 21
118.084
  0
LINE
  8
0
 10
2.62663
 20
118.084
 11
3.61911
 21
117.691
  0
LINE
  8
0
 10
3.61911
 20
117.691
 11
4.55452
 21
117.177
  0
LINE
  8
0
 10
4.55452
 20
117.177
 11
5.41809
 21
116.549
  0
LINE
  8
0
 10
5.41809
 20
116.549
 11
6.19623
 21
115.819
  0
LINE
  8
0
 10
6.19623
 20
115.819
 11
6.87663
 21
114.996
  0
LINE
  8
0
 10
6.87663
 20
114.996
 11
7.44859
 21
114.095
  0
LINE
  8
0
 10
7.44859
 20
114.095
 11
7.90309
 21
113.129
  0
LINE
  8
0
 10
7.90309
 20
113.129
 11
8.23296
 21
112.114
  0
LINE
  8
0
 10
8.23296
 20
112.114
 11
8.43297
 21
111.065
  0
LINE
  8
0
 10
8.43297
 20
111.065
 11
8.5
 21
110
  0
LINE
  8
0
 10
8.5
 20
110
 11
8.43297
 21
108.935
  0
LINE
  8
0
 10
8.43297
 20
108.935
 11
8.23296
 21
107.886
  0
LINE
  8
0
 10
8.23296
 20
107.886
 11
7.90309
 21
106.871
  0
LINE
  8
0
 10
7.90309
 20
106.871
 11
7.44859
 21
105.905
  0
LINE
  8
0
 10
7.44859
 20
105.905
 11
6.87663
 21
105.004
  0
LINE
  8
0
 10
6.87663
 20
105.004
 11
6.19623
 21
104.181
  0
LINE
  8
0
 10
6.19623
 20
104.181
 11
5.41809
 21
103.451
  0
LINE
  8
0
 10
5.41809
 20
103.451
 11
4.55452
 21
102.823
  0
LINE
  8
0
 10
4.55452
 20
102.823
 11
3.61911
 21
102.309
  0
LINE
  8
0
 10
3.61911
 20
102.309
 11
2.62663
 21
101.916
  0
LINE
  8
0
 10
2.62663
 20
101.916
 11
1.59273
 21
101.651
  0
LINE
  8
0
 10
1.59273
 20
101.651
 11
0.533707
 21
101.517
  0
LINE
  8
0
 10
0.533707
 20
101.517
 11
-0.533707
 21
101.517
  0
LINE
  8
0
 10
2.00063
 20
-10.4877
 11
3.2993
 21
-10.1542
  0
LINE
  8
0
 10
3.2993
 20
-10.1542
 11
4.54596
 21
-9.66064
  0
LINE
  8
0
 10
4.54596
 20
-9.66064
 11
5.7209
 21
-9.01471
  0
LINE
  8
0
 10
5.7209
 20
-9.01471
 11
6.11545
 21
-8.72806
  0
LINE
  8
0
 10
6.11545
 20
-8.72806
 11
6.10052
 21
-8.55025
  0
LINE
  8
0
 10
6.10052
 20
-8.55025
 11
6.11314
 21
-8.24913
  0
LINE
  8
0
 10
6.11314
 20
-8.24913
 11
6.16341
 21
-7.95195
  0
LINE
  8
0
 10
6.16341
 20
-7.95195
 11
6.25052
 21
-7.66342
  0
LINE
  8
0
 10
6.25052
 20
-7.66342
 11
6.37311
 21
-7.38808
  0
LINE
  8
0
 10
6.37311
 20
-7.38808
 11
6.52924
 21
-7.13028
  0
LINE
  8
0
 10
6.52924
 20
-7.13028
 11
6.71645
 21
-6.89407
  0
LINE
  8
0
 10
6.71645
 20
-6.89407
 11
6.93178
 21
-6.6832
  0
LINE
  8
0
 10
6.93178
 20
-6.6832
 11
7.17186
 21
-6.50098
  0
LINE
  8
0
 10
7.17186
 20
-6.50098
 11
7.43286
 21
-6.35028
  0
LINE
  8
0
 10
7.43286
 20
-6.35028
 11
7.71071
 21
-6.23349
  0
LINE
  8
0
 10
7.71071
 20
-6.23349
 11
8.00101
 21
-6.15244
  0
LINE
  8
0
 10
8.00101
 20
-6.15244
 11
8.29916
 21
-6.10841
  0
LINE
  8
0
 10
8.29916
 20
-6.10841
 11
8.60049
 21
-6.1021
  0
LINE
  8
0
 10
8.60049
 20
-6.1021
 11
8.73863
 21
-6.11662
  0
LINE
  8
0
 10
8.73863
 20
-6.11662
 11
9.35614
 21
-5.14359
  0
LINE
  8
0
 10
9.35614
 20
-5.14359
 11
9.92703
 21
-3.93039
  0
LINE
  8
0
 10
9.92703
 20
-3.93039
 11
10.3414
 21
-2.6552
  0
LINE
  8
0
 10
10.3414
 20
-2.6552
 11
10.5926
 21
-1.33815
  0
LINE
  8
0
 10
10.5926
 20
-1.33815
 11
10.6768
 21
0
  0
LINE
  8
0
 10
10.6768
 20
0
 11
10.5926
 21
1.33815
  0
LINE
  8
0
 10
10.5926
 20
1.33815
 11
10.3414
 21
2.6552
  0
LINE
  8
0
 10
10.3414
 20
2.6552
 11
9.92703
 21
3.93039
  0
LINE
  8
0
 10
9.92703
 20
3.93039
 11
9.35614
 21
5.14359
  0
LINE
  8
0
 10
9.35614
 20
5.14359
 11
8.74016
 21
6.11421
  0
LINE
  8
0
 10
8.74016
 20
6.11421
 11
8.70082
 21
6.10841
  0
LINE
  8
0
 10
8.70082
 20
6.10841
 11
8.39949
 21
6.1021
  0
LINE
  8
0
 10
8.39949
 20
6.1021
 11
8.09975
 21
6.13361
  0
LINE
  8
0
 10
8.09975
 20
6.13361
 11
7.80632
 21
6.20242
  0
LINE
  8
0
 10
7.80632
 20
6.20242
 11
7.52382
 21
6.30748
  0
LINE
  8
0
 10
7.52382
 20
6.30748
 11
7.25673
 21
6.44711
  0
LINE
  8
0
 10
7.25673
 20
6.44711
 11
7.00923
 21
6.61913
  0
LINE
  8
0
 10
7.00923
 20
6.61913
 11
6.78526
 21
6.8208
  0
LINE
  8
0
 10
6.78526
 20
6.8208
 11
6.58832
 21
7.04895
  0
LINE
  8
0
 10
6.58832
 20
7.04895
 11
6.42152
 21
7.29999
  0
LINE
  8
0
 10
6.42152
 20
7.29999
 11
6.28752
 21
7.56996
  0
LINE
  8
0
 10
6.28752
 20
7.56996
 11
6.1884
 21
7.85458
  0
LINE
  8
0
 10
6.1884
 20
7.85458
 11
6.12573
 21
8.1494
  0
LINE
  8
0
 10
6.12573
 20
8.1494
 11
6.10052
 21
8.44974
  0
LINE
  8
0
 10
6.10052
 20
8.44974
 11
6.11227
 21
8.73036
  0
LINE
  8
0
 10
6.11227
 20
8.73036
 11
5.7209
 21
9.01471
  0
LINE
  8
0
 10
5.7209
 20
9.01471
 11
4.54596
 21
9.66064
  0
LINE
  8
0
 10
4.54596
 20
9.66064
 11
3.2993
 21
10.1542
  0
LINE
  8
0
 10
3.2993
 20
10.1542
 11
2.00063
 21
10.4877
  0
LINE
  8
0
 10
2.00063
 20
10.4877
 11
0.670395
 21
10.6557
  0
LINE
  8
0
 10
0.670395
 20
10.6557
 11
-0.670395
 21
10.6557
  0
LINE
  8
0
 10
-0.670395
 20
10.6557
 11
-2.00063
 21
10.4877
  0
LINE
  8
0
 10
-2.00063
 20
10.4877
 11
-3.2993
 21
10.1542
  0
LINE
  8
0
 10
-3.2993
 20
10.1542
 11
-4.54596
 21
9.66064
  0
LINE
  8
0
 10
-4.54596
 20
9.66064
 11
-5.7209
 21
9.01471
  0
LINE
  8
0
 10
-5.7209
 20
9.01471
 11
-6.11545
 21
8.72806
  0
LINE
  8
0
 10
-6.11545
 20
8.72806
 11
-6.10052
 21
8.55025
  0
LINE
  8
0
 10
-6.10052
 20
8.55025
 11
-6.11314
 21
8.24913
  0
LINE
  8
0
 10
-6.11314
 20
8.24913
 11
-6.16341
 21
7.95195
  0
LINE
  8
0
 10
-6.16341
 20
7.95195
 11
-6.25052
 21
7.66342
  0
LINE
  8
0
 10
-6.25052
 20
7.66342
 11
-6.37311
 21
7.38808
  0
LINE
  8
0
 10
-6.37311
 20
7.38808
 11
-6.52924
 21
7.13028
  0
LINE
  8
0
 10
-6.52924
 20
7.13028
 11
-6.71645
 21
6.89407
  0
LINE
  8
0
 10
-6.71645
 20
6.89407
 11
-6.93178
 21
6.6832
  0
LINE
  8
0
 10
-6.93178
 20
6.6832
 11
-7.17186
 21
6.50098
  0
LINE
  8
0
 10
-7.17186
 20
6.50098
 11
-7.43286
 21
6.35028
  0
LINE
  8
0
 10
-7.43286
 20
6.35028
 11
-7.71071
 21
6.23349
  0
LINE
  8
0
 10
-7.71071
 20
6.23349
 11
-8.00101
 21
6.15244
  0
LINE
  8
0
 10
-8.00101
 20
6.15244
 11
-8.29916
 21
6.10841
  0
LINE
  8
0
 10
-8.29916
 20
6.10841
 11
-8.60049
 21
6.1021
  0
LINE
  8
0
 10
-8.60049
 20
6.1021
 11
-8.73863
 21
6.11662
  0
LINE
  8
0
 10
-8.73863
 20
6.11662
 11
-9.35614
 21
5.14359
  0
LINE
  8
0
 10
-9.35614
 20
5.14359
 11
-9.92703
 21
3.93039
  0
LINE
  8
0
 10
-9.92703
 20
3.93039
 11
-10.3414
 21
2.6552
  0
LINE
  8
0
 10
-10.3414
 20
2.6552
 11
-10.5926
 21
1.33815
  0
LINE
  8
0
 10
-10.5926
 20
1.33815
 11
-10.6768
 21
0
  0
LINE
  8
0
 10
-10.6768
 20
0
 11
-10.5926
 21
-1.33815
  0
LINE
  8
0
 10
-10.5926
 20
-1.33815
 11
-10.3414
 21
-2.6552
  0
LINE
  8
0
 10
-10.3414
 20
-2.6552
 11
-9.92703
 21
-3.93039
  0
LINE
  8
0
 10
-9.92703
 20
-3.93039
 11
-9.35614
 21
-5.14359
  0
LINE
  8
0
 10
-9.35614
 20
-5.14359
 11
-8.74016
 21
-6.11421
  0
LINE
  8
0
 10
-8.74016
 20
-6.11421
 11
-8.70082
 21
-6.10841
  0
LINE
  8
0
 10
-8.70082
 20
-6.10841
 11
-8.39949
 21
-6.1021
  0
LINE
  8
0
 10
-8.39949
 20
-6.1021
 11
-8.09975
 21
-6.13361
  0
LINE
  8
0
 10
-8.09975
 20
-6.13361
 11
-7.80632
 21
-6.20242
  0
LINE
  8
0
 10
-7.80632
 20
-6.20242
 11
-7.52382
 21
-6.30748
  0
LINE
  8
0
 10
-7.52382
 20
-6.30748
 11
-7.25673
 21
-6.44711
  0
LINE
  8
0
 10
-7.25673
 20
-6.44711
 11
-7.00923
 21
-6.61913
  0
LINE
  8
0
 10
-7.00923
 20
-6.61913
 11
-6.78526
 21
-6.8208
  0
LINE
  8
0
 10
-6.78526
 20
-6.8208
 11
-6.58832
 21
-7.04895
  0
LINE
  8
0
 10
-6.58832
 20
-7.04895
 11
-6.42152
 21
-7.29999
  0
LINE
  8
0
 10
-6.42152
 20
-7.29999
 11
-6.28752
 21
-7.56996
  0
LINE
  8
0
 10
-6.28752
 20
-7.56996
 11
-6.1884
 21
-7.85458
  0
LINE
  8
0
 10
-6.1884
 20
-7.85458
 11
-6.12573
 21
-8.1494
  0
LINE
  8
0
 10
-6.12573
 20
-8.1494
 11
-6.10052
 21
-8.44974
  0
LINE
  8
0
 10
-6.10052
 20
-8.44974
 11
-6.11227
 21
-8.73036
  0
LINE
  8
0
 10
-6.11227
 20
-8.73036
 11
-5.7209
 21
-9.01471
  0
LINE
  8
0
 10
-5.7209
 20
-9.01471
 11
-4.54596
 21
-9.66064
  0
LINE
  8
0
 10
-4.54596
 20
-9.66064
 11
-3.2993
 21
-10.1542
  0
LINE
  8
0
 10
-3.2993
 20
-10.1542
 11
-2.00063
 21
-10.4877
  0
LINE
  8
0
 10
-2.00063
 20
-10.4877
 11
-0.670395
 21
-10.6557
  0
LINE
  8
0
 10
-0.670395
 20
-10.6557
 11
0.670395
 21
-10.6557
  0
LINE
  8
0
 10
0.670395
 20
-10.6557
 11
2.00063
 21
-10.4877
  0
LINE
  8
0
 10
-0.533707
 20
-8.48322
 11
-1.59273
 21
-8.34944
  0
LINE
  8
0
 10
-1.59273
 20
-8.34944
 11
-2.62663
 21
-8.08397
  0
LINE
  8
0
 10
-2.62663
 20
-8.08397
 11
-3.61911
 21
-7.69102
  0
LINE
  8
0
 10
-3.61911
 20
-7.69102
 11
-4.55452
 21
-7.17677
  0
LINE
  8
0
 10
-4.55452
 20
-7.17677
 11
-5.41809
 21
-6.54936
  0
LINE
  8
0
 10
-5.41809
 20
-6.54936
 11
-6.19623
 21
-5.81865
  0
LINE
  8
0
 10
-6.19623
 20
-5.81865
 11
-6.87663
 21
-4.99617
  0
LINE
  8
0
 10
-6.87663
 20
-4.99617
 11
-7.44859
 21
-4.09489
  0
LINE
  8
0
 10
-7.44859
 20
-4.09489
 11
-7.90309
 21
-3.12904
  0
LINE
  8
0
 10
-7.90309
 20
-3.12904
 11
-8.23296
 21
-2.11386
  0
LINE
  8
0
 10
-8.23296
 20
-2.11386
 11
-8.43297
 21
-1.06532
  0
LINE
  8
0
 10
-8.43297
 20
-1.06532
 11
-8.5
 21
0
  0
LINE
  8
0
 10
-8.5
 20
0
 11
-8.43297
 21
1.06532
  0
LINE
  8
0
 10
-8.43297
 20
1.06532
 11
-8.23296
 21
2.11386
  0
LINE
  8
0
 10
-8.23296
 20
2.11386
 11
-7.90309
 21
3.12904
  0
LINE
  8
0
 10
-7.90309
 20
3.12904
 11
-7.44859
 21
4.09489
  0
LINE
  8
0
 10
-7.44859
 20
4.09489
 11
-6.87663
 21
4.99617
  0
LINE
  8
0
 10
-6.87663
 20
4.99617
 11
-6.19623
 21
5.81865
  0
LINE
  8
0
 10
-6.19623
 20
5.81865
 11
-5.41809
 21
6.54936
  0
LINE
  8
0
 10
-5.41809
 20
6.54936
 11
-4.55452
 21
7.17677
  0
LINE
  8
0
 10
-4.55452
 20
7.17677
 11
-3.61911
 21
7.69102
  0
LINE
  8
0
 10
-3.61911
 20
7.69102
 11
-2.62663
 21
8.08397
  0
LINE
  8
0
 10
-2.62663
 20
8.08397
 11
-1.59273
 21
8.34944
  0
LINE
  8
0
 10
-1.59273
 20
8.34944
 11
-0.533707
 21
8.48322
  0
LINE
  8
0
 10
-0.533707
 20
8.48322
 11
0.533707
 21
8.48322
  0
LINE
  8
0
 10
0.533707
 20
8.48322
 11
1.59273
 21
8.34944
  0
LINE
  8
0
 10
1.59273
 20
8.34944
 11
2.62663
 21
8.08397
  0
LINE
  8
0
 10
2.62663
 20
8.08397
 11
3.61911
 21
7.69102
  0
LINE
  8
0
 10
3.61911
 20
7.69102
 11
4.55452
 21
7.17677
  0
LINE
  8
0
 10
4.55452
 20
7.17677
 11
5.41809
 21
6.54936
  0
LINE
  8
0
 10
5.41809
 20
6.54936
 11
6.19623
 21
5.81865
  0
LINE
  8
0
 10
6.19623
 20
5.81865
 11
6.87663
 21
4.99617
  0
LINE
  8
0
 10
6.87663
 20
4.99617
 11
7.44859
 21
4.09489
  0
LINE
  8
0
 10
7.44859
 20
4.09489
 11
7.90309
 21
3.12904
  0
LINE
  8
0
 10
7.90309
 20
3.12904
 11
8.23296
 21
2.11386
  0
LINE
  8
0
 10
8.23296
 20
2.11386
 11
8.43297
 21
1.06532
  0
LINE
  8
0
 10
8.43297
 20
1.06532
 11
8.5
 21
0
  0
LINE
  8
0
 10
8.5
 20
0
 11
8.43297
 21
-1.06532
  0
LINE
  8
0
 10
8.43297
 20
-1.06532
 11
8.23296
 21
-2.11386
  0
LINE
  8
0
 10
8.23296
 20
-2.11386
 11
7.90309
 21
-3.12904
  0
LINE
  8
0
 10
7.90309
 20
-3.12904
 11
7.44859
 21
-4.09489
  0
LINE
  8
0
 10
7.44859
 20
-4.09489
 11
6.87663
 21
-4.99617
  0
LINE
  8
0
 10
6.87663
 20
-4.99617
 11
6.19623
 21
-5.81865
  0
LINE
  8
0
 10
6.19623
 20
-5.81865
 11
5.41809
 21
-6.54936
  0
LINE
  8
0
 10
5.41809
 20
-6.54936
 11
4.55452
 21
-7.17677
  0
LINE
  8
0
 10
4.55452
 20
-7.17677
 11
3.61911
 21
-7.69102
  0
LINE
  8
0
 10
3.61911
 20
-7.69102
 11
2.62663
 21
-8.08397
  0
LINE
  8
0
 10
2.62663
 20
-8.08397
 11
1.59273
 21
-8.34944
  0
LINE
  8
0
 10
1.59273
 20
-8.34944
 11
0.533707
 21
-8.48322
  0
LINE
  8
0
 10
0.533707
 20
-8.48322
 11
-0.533707
 21
-8.48322
  0
ENDSEC
  0
SECTION
  2
OBJECTS
  0
DICTIONARY
  0
ENDSEC
  0
EOF
