  0
SECTION
  2
BLOCKS
  0
ENDSEC
  0
SECTION
  2
ENTITIES
  0
LINE
  8
0
 10
4.02869
 20
88.8808
 11
6.64386
 21
89.5523
  0
LINE
  8
0
 10
6.64386
 20
89.5523
 11
9.15425
 21
90.5462
  0
LINE
  8
0
 10
9.15425
 20
90.5462
 11
11.5203
 21
91.847
  0
LINE
  8
0
 10
11.5203
 20
91.847
 11
13.7046
 21
93.434
  0
LINE
  8
0
 10
13.7046
 20
93.434
 11
15.6728
 21
95.2822
  0
LINE
  8
0
 10
15.6728
 20
95.2822
 11
17.3939
 21
97.3626
  0
LINE
  8
0
 10
17.3939
 20
97.3626
 11
18.8406
 21
99.6423
  0
LINE
  8
0
 10
18.8406
 20
99.6423
 11
19.9902
 21
102.085
  0
LINE
  8
0
 10
19.9902
 20
102.085
 11
20.8245
 21
104.653
  0
LINE
  8
0
 10
20.8245
 20
104.653
 11
21.3305
 21
107.305
  0
LINE
  8
0
 10
21.3305
 20
107.305
 11
21.5
 21
110
  0
LINE
  8
0
 10
21.5
 20
110
 11
21.3305
 21
112.695
  0
LINE
  8
0
 10
21.3305
 20
112.695
 11
20.8245
 21
115.347
  0
LINE
  8
0
 10
20.8245
 20
115.347
 11
19.9902
 21
117.915
  0
LINE
  8
0
 10
19.9902
 20
117.915
 11
18.8406
 21
120.358
  0
LINE
  8
0
 10
18.8406
 20
120.358
 11
17.3939
 21
122.637
  0
LINE
  8
0
 10
17.3939
 20
122.637
 11
15.6728
 21
124.718
  0
LINE
  8
0
 10
15.6728
 20
124.718
 11
13.7046
 21
126.566
  0
LINE
  8
0
 10
13.7046
 20
126.566
 11
11.5203
 21
128.153
  0
LINE
  8
0
 10
11.5203
 20
128.153
 11
9.15425
 21
129.454
  0
LINE
  8
0
 10
9.15425
 20
129.454
 11
6.64386
 21
130.448
  0
LINE
  8
0
 10
6.64386
 20
130.448
 11
4.02869
 21
131.119
  0
LINE
  8
0
 10
4.02869
 20
131.119
 11
1.34999
 21
131.458
  0
LINE
  8
0
 10
1.34999
 20
131.458
 11
-1.34999
 21
131.458
  0
LINE
  8
0
 10
-1.34999
 20
131.458
 11
-4.02869
 21
131.119
  0
LINE
  8
0
 10
-4.02869
 20
131.119
 11
-6.64386
 21
130.448
  0
LINE
  8
0
 10
-6.64386
 20
130.448
 11
-9.15425
 21
129.454
  0
LINE
  8
0
 10
-9.15425
 20
129.454
 11
-11.5203
 21
128.153
  0
LINE
  8
0
 10
-11.5203
 20
128.153
 11
-13.7046
 21
126.566
  0
LINE
  8
0
 10
-13.7046
 20
126.566
 11
-15.6728
 21
124.718
  0
LINE
  8
0
 10
-15.6728
 20
124.718
 11
-17.3939
 21
122.637
  0
LINE
  8
0
 10
-17.3939
 20
122.637
 11
-18.8406
 21
120.358
  0
LINE
  8
0
 10
-18.8406
 20
120.358
 11
-19.9902
 21
117.915
  0
LINE
  8
0
 10
-19.9902
 20
117.915
 11
-20.8245
 21
115.347
  0
LINE
  8
0
 10
-20.8245
 20
115.347
 11
-21.3305
 21
112.695
  0
LINE
  8
0
 10
-21.3305
 20
112.695
 11
-21.5
 21
110
  0
LINE
  8
0
 10
-21.5
 20
110
 11
-21.3305
 21
107.305
  0
LINE
  8
0
 10
-21.3305
 20
107.305
 11
-20.8245
 21
104.653
  0
LINE
  8
0
 10
-20.8245
 20
104.653
 11
-19.9902
 21
102.085
  0
LINE
  8
0
 10
-19.9902
 20
102.085
 11
-18.8406
 21
99.6423
  0
LINE
  8
0
 10
-18.8406
 20
99.6423
 11
-17.3939
 21
97.3626
  0
LINE
  8
0
 10
-17.3939
 20
97.3626
 11
-15.6728
 21
95.2822
  0
LINE
  8
0
 10
-15.6728
 20
95.2822
 11
-13.7046
 21
93.434
  0
LINE
  8
0
 10
-13.7046
 20
93.434
 11
-11.5203
 21
91.847
  0
LINE
  8
0
 10
-11.5203
 20
91.847
 11
-9.15425
 21
90.5462
  0
LINE
  8
0
 10
-9.15425
 20
90.5462
 11
-6.64386
 21
89.5523
  0
LINE
  8
0
 10
-6.64386
 20
89.5523
 11
-4.02869
 21
88.8808
  0
LINE
  8
0
 10
-4.02869
 20
88.8808
 11
-1.34999
 21
88.5424
  0
LINE
  8
0
 10
-1.34999
 20
88.5424
 11
1.34999
 21
88.5424
  0
LINE
  8
0
 10
1.34999
 20
88.5424
 11
4.02869
 21
88.8808
  0
LINE
  8
0
 10
-0.18837
 20
122.006
 11
-0.562134
 21
122.053
  0
LINE
  8
0
 10
-0.562134
 20
122.053
 11
-0.927048
 21
122.147
  0
LINE
  8
0
 10
-0.927048
 20
122.147
 11
-1.27733
 21
122.286
  0
LINE
  8
0
 10
-1.27733
 20
122.286
 11
-1.60747
 21
122.467
  0
LINE
  8
0
 10
-1.60747
 20
122.467
 11
-1.91226
 21
122.688
  0
LINE
  8
0
 10
-1.91226
 20
122.688
 11
-2.1869
 21
122.946
  0
LINE
  8
0
 10
-2.1869
 20
122.946
 11
-2.42705
 21
123.237
  0
LINE
  8
0
 10
-2.42705
 20
123.237
 11
-2.62891
 21
123.555
  0
LINE
  8
0
 10
-2.62891
 20
123.555
 11
-2.78932
 21
123.896
  0
LINE
  8
0
 10
-2.78932
 20
123.896
 11
-2.90575
 21
124.254
  0
LINE
  8
0
 10
-2.90575
 20
124.254
 11
-2.97633
 21
124.624
  0
LINE
  8
0
 10
-2.97633
 20
124.624
 11
-3
 21
125
  0
LINE
  8
0
 10
-3
 20
125
 11
-2.97633
 21
125.376
  0
LINE
  8
0
 10
-2.97633
 20
125.376
 11
-2.90575
 21
125.746
  0
LINE
  8
0
 10
-2.90575
 20
125.746
 11
-2.78932
 21
126.104
  0
LINE
  8
0
 10
-2.78932
 20
126.104
 11
-2.62891
 21
126.445
  0
LINE
  8
0
 10
-2.62891
 20
126.445
 11
-2.42705
 21
126.763
  0
LINE
  8
0
 10
-2.42705
 20
126.763
 11
-2.1869
 21
127.054
  0
LINE
  8
0
 10
-2.1869
 20
127.054
 11
-1.91226
 21
127.312
  0
LINE
  8
0
 10
-1.91226
 20
127.312
 11
-1.60747
 21
127.533
  0
LINE
  8
0
 10
-1.60747
 20
127.533
 11
-1.27733
 21
127.714
  0
LINE
  8
0
 10
-1.27733
 20
127.714
 11
-0.927048
 21
127.853
  0
LINE
  8
0
 10
-0.927048
 20
127.853
 11
-0.562134
 21
127.947
  0
LINE
  8
0
 10
-0.562134
 20
127.947
 11
-0.18837
 21
127.994
  0
LINE
  8
0
 10
-0.18837
 20
127.994
 11
0.18837
 21
127.994
  0
LINE
  8
0
 10
0.18837
 20
127.994
 11
0.562134
 21
127.947
  0
LINE
  8
0
 10
0.562134
 20
127.947
 11
0.927048
 21
127.853
  0
LINE
  8
0
 10
0.927048
 20
127.853
 11
1.27733
 21
127.714
  0
LINE
  8
0
 10
1.27733
 20
127.714
 11
1.60747
 21
127.533
  0
LINE
  8
0
 10
1.60747
 20
127.533
 11
1.91226
 21
127.312
  0
LINE
  8
0
 10
1.91226
 20
127.312
 11
2.1869
 21
127.054
  0
LINE
  8
0
 10
2.1869
 20
127.054
 11
2.42705
 21
126.763
  0
LINE
  8
0
 10
2.42705
 20
126.763
 11
2.62891
 21
126.445
  0
LINE
  8
0
 10
2.62891
 20
126.445
 11
2.78932
 21
126.104
  0
LINE
  8
0
 10
2.78932
 20
126.104
 11
2.90575
 21
125.746
  0
LINE
  8
0
 10
2.90575
 20
125.746
 11
2.97633
 21
125.376
  0
LINE
  8
0
 10
2.97633
 20
125.376
 11
3
 21
125
  0
LINE
  8
0
 10
3
 20
125
 11
2.97633
 21
124.624
  0
LINE
  8
0
 10
2.97633
 20
124.624
 11
2.90575
 21
124.254
  0
LINE
  8
0
 10
2.90575
 20
124.254
 11
2.78932
 21
123.896
  0
LINE
  8
0
 10
2.78932
 20
123.896
 11
2.62891
 21
123.555
  0
LINE
  8
0
 10
2.62891
 20
123.555
 11
2.42705
 21
123.237
  0
LINE
  8
0
 10
2.42705
 20
123.237
 11
2.1869
 21
122.946
  0
LINE
  8
0
 10
2.1869
 20
122.946
 11
1.91226
 21
122.688
  0
LINE
  8
0
 10
1.91226
 20
122.688
 11
1.60747
 21
122.467
  0
LINE
  8
0
 10
1.60747
 20
122.467
 11
1.27733
 21
122.286
  0
LINE
  8
0
 10
1.27733
 20
122.286
 11
0.927048
 21
122.147
  0
LINE
  8
0
 10
0.927048
 20
122.147
 11
0.562134
 21
122.053
  0
LINE
  8
0
 10
0.562134
 20
122.053
 11
0.18837
 21
122.006
  0
LINE
  8
0
 10
0.18837
 20
122.006
 11
-0.18837
 21
122.006
  0
LINE
  8
0
 10
-10.7954
 20
117.613
 11
-11.1691
 21
117.66
  0
LINE
  8
0
 10
-11.1691
 20
117.66
 11
-11.534
 21
117.754
  0
LINE
  8
0
 10
-11.534
 20
117.754
 11
-11.8843
 21
117.893
  0
LINE
  8
0
 10
-11.8843
 20
117.893
 11
-12.2145
 21
118.074
  0
LINE
  8
0
 10
-12.2145
 20
118.074
 11
-12.5193
 21
118.295
  0
LINE
  8
0
 10
-12.5193
 20
118.295
 11
-12.7939
 21
118.553
  0
LINE
  8
0
 10
-12.7939
 20
118.553
 11
-13.034
 21
118.844
  0
LINE
  8
0
 10
-13.034
 20
118.844
 11
-13.2359
 21
119.162
  0
LINE
  8
0
 10
-13.2359
 20
119.162
 11
-13.3963
 21
119.503
  0
LINE
  8
0
 10
-13.3963
 20
119.503
 11
-13.5127
 21
119.861
  0
LINE
  8
0
 10
-13.5127
 20
119.861
 11
-13.5833
 21
120.231
  0
LINE
  8
0
 10
-13.5833
 20
120.231
 11
-13.607
 21
120.607
  0
LINE
  8
0
 10
-13.607
 20
120.607
 11
-13.5833
 21
120.983
  0
LINE
  8
0
 10
-13.5833
 20
120.983
 11
-13.5127
 21
121.353
  0
LINE
  8
0
 10
-13.5127
 20
121.353
 11
-13.3963
 21
121.711
  0
LINE
  8
0
 10
-13.3963
 20
121.711
 11
-13.2359
 21
122.052
  0
LINE
  8
0
 10
-13.2359
 20
122.052
 11
-13.034
 21
122.37
  0
LINE
  8
0
 10
-13.034
 20
122.37
 11
-12.7939
 21
122.661
  0
LINE
  8
0
 10
-12.7939
 20
122.661
 11
-12.5193
 21
122.919
  0
LINE
  8
0
 10
-12.5193
 20
122.919
 11
-12.2145
 21
123.14
  0
LINE
  8
0
 10
-12.2145
 20
123.14
 11
-11.8843
 21
123.321
  0
LINE
  8
0
 10
-11.8843
 20
123.321
 11
-11.534
 21
123.46
  0
LINE
  8
0
 10
-11.534
 20
123.46
 11
-11.1691
 21
123.554
  0
LINE
  8
0
 10
-11.1691
 20
123.554
 11
-10.7954
 21
123.601
  0
LINE
  8
0
 10
-10.7954
 20
123.601
 11
-10.4186
 21
123.601
  0
LINE
  8
0
 10
-10.4186
 20
123.601
 11
-10.0448
 21
123.554
  0
LINE
  8
0
 10
-10.0448
 20
123.554
 11
-9.67995
 21
123.46
  0
LINE
  8
0
 10
-9.67995
 20
123.46
 11
-9.32965
 21
123.321
  0
LINE
  8
0
 10
-9.32965
 20
123.321
 11
-8.99951
 21
123.14
  0
LINE
  8
0
 10
-8.99951
 20
123.14
 11
-8.69472
 21
122.919
  0
LINE
  8
0
 10
-8.69472
 20
122.919
 11
-8.42009
 21
122.661
  0
LINE
  8
0
 10
-8.42009
 20
122.661
 11
-8.17995
 21
122.37
  0
LINE
  8
0
 10
-8.17995
 20
122.37
 11
-7.97807
 21
122.052
  0
LINE
  8
0
 10
-7.97807
 20
122.052
 11
-7.81766
 21
121.711
  0
LINE
  8
0
 10
-7.81766
 20
121.711
 11
-7.70125
 21
121.353
  0
LINE
  8
0
 10
-7.70125
 20
121.353
 11
-7.63065
 21
120.983
  0
LINE
  8
0
 10
-7.63065
 20
120.983
 11
-7.60699
 21
120.607
  0
LINE
  8
0
 10
-7.60699
 20
120.607
 11
-7.63065
 21
120.231
  0
LINE
  8
0
 10
-7.63065
 20
120.231
 11
-7.70125
 21
119.861
  0
LINE
  8
0
 10
-7.70125
 20
119.861
 11
-7.81766
 21
119.503
  0
LINE
  8
0
 10
-7.81766
 20
119.503
 11
-7.97807
 21
119.162
  0
LINE
  8
0
 10
-7.97807
 20
119.162
 11
-8.17995
 21
118.844
  0
LINE
  8
0
 10
-8.17995
 20
118.844
 11
-8.42009
 21
118.553
  0
LINE
  8
0
 10
-8.42009
 20
118.553
 11
-8.69472
 21
118.295
  0
LINE
  8
0
 10
-8.69472
 20
118.295
 11
-8.99951
 21
118.074
  0
LINE
  8
0
 10
-8.99951
 20
118.074
 11
-9.32965
 21
117.893
  0
LINE
  8
0
 10
-9.32965
 20
117.893
 11
-9.67995
 21
117.754
  0
LINE
  8
0
 10
-9.67995
 20
117.754
 11
-10.0448
 21
117.66
  0
LINE
  8
0
 10
-10.0448
 20
117.66
 11
-10.4186
 21
117.613
  0
LINE
  8
0
 10
-10.4186
 20
117.613
 11
-10.7954
 21
117.613
  0
LINE
  8
0
 10
10.4186
 20
117.613
 11
10.0448
 21
117.66
  0
LINE
  8
0
 10
10.0448
 20
117.66
 11
9.67995
 21
117.754
  0
LINE
  8
0
 10
9.67995
 20
117.754
 11
9.32965
 21
117.893
  0
LINE
  8
0
 10
9.32965
 20
117.893
 11
8.99951
 21
118.074
  0
LINE
  8
0
 10
8.99951
 20
118.074
 11
8.69472
 21
118.295
  0
LINE
  8
0
 10
8.69472
 20
118.295
 11
8.42009
 21
118.553
  0
LINE
  8
0
 10
8.42009
 20
118.553
 11
8.17995
 21
118.844
  0
LINE
  8
0
 10
8.17995
 20
118.844
 11
7.97807
 21
119.162
  0
LINE
  8
0
 10
7.97807
 20
119.162
 11
7.81766
 21
119.503
  0
LINE
  8
0
 10
7.81766
 20
119.503
 11
7.70125
 21
119.861
  0
LINE
  8
0
 10
7.70125
 20
119.861
 11
7.63065
 21
120.231
  0
LINE
  8
0
 10
7.63065
 20
120.231
 11
7.60699
 21
120.607
  0
LINE
  8
0
 10
7.60699
 20
120.607
 11
7.63065
 21
120.983
  0
LINE
  8
0
 10
7.63065
 20
120.983
 11
7.70125
 21
121.353
  0
LINE
  8
0
 10
7.70125
 20
121.353
 11
7.81766
 21
121.711
  0
LINE
  8
0
 10
7.81766
 20
121.711
 11
7.97807
 21
122.052
  0
LINE
  8
0
 10
7.97807
 20
122.052
 11
8.17995
 21
122.37
  0
LINE
  8
0
 10
8.17995
 20
122.37
 11
8.42009
 21
122.661
  0
LINE
  8
0
 10
8.42009
 20
122.661
 11
8.69472
 21
122.919
  0
LINE
  8
0
 10
8.69472
 20
122.919
 11
8.99951
 21
123.14
  0
LINE
  8
0
 10
8.99951
 20
123.14
 11
9.32965
 21
123.321
  0
LINE
  8
0
 10
9.32965
 20
123.321
 11
9.67995
 21
123.46
  0
LINE
  8
0
 10
9.67995
 20
123.46
 11
10.0448
 21
123.554
  0
LINE
  8
0
 10
10.0448
 20
123.554
 11
10.4186
 21
123.601
  0
LINE
  8
0
 10
10.4186
 20
123.601
 11
10.7954
 21
123.601
  0
LINE
  8
0
 10
10.7954
 20
123.601
 11
11.1691
 21
123.554
  0
LINE
  8
0
 10
11.1691
 20
123.554
 11
11.534
 21
123.46
  0
LINE
  8
0
 10
11.534
 20
123.46
 11
11.8843
 21
123.321
  0
LINE
  8
0
 10
11.8843
 20
123.321
 11
12.2145
 21
123.14
  0
LINE
  8
0
 10
12.2145
 20
123.14
 11
12.5193
 21
122.919
  0
LINE
  8
0
 10
12.5193
 20
122.919
 11
12.7939
 21
122.661
  0
LINE
  8
0
 10
12.7939
 20
122.661
 11
13.034
 21
122.37
  0
LINE
  8
0
 10
13.034
 20
122.37
 11
13.2359
 21
122.052
  0
LINE
  8
0
 10
13.2359
 20
122.052
 11
13.3963
 21
121.711
  0
LINE
  8
0
 10
13.3963
 20
121.711
 11
13.5127
 21
121.353
  0
LINE
  8
0
 10
13.5127
 20
121.353
 11
13.5833
 21
120.983
  0
LINE
  8
0
 10
13.5833
 20
120.983
 11
13.607
 21
120.607
  0
LINE
  8
0
 10
13.607
 20
120.607
 11
13.5833
 21
120.231
  0
LINE
  8
0
 10
13.5833
 20
120.231
 11
13.5127
 21
119.861
  0
LINE
  8
0
 10
13.5127
 20
119.861
 11
13.3963
 21
119.503
  0
LINE
  8
0
 10
13.3963
 20
119.503
 11
13.2359
 21
119.162
  0
LINE
  8
0
 10
13.2359
 20
119.162
 11
13.034
 21
118.844
  0
LINE
  8
0
 10
13.034
 20
118.844
 11
12.7939
 21
118.553
  0
LINE
  8
0
 10
12.7939
 20
118.553
 11
12.5193
 21
118.295
  0
LINE
  8
0
 10
12.5193
 20
118.295
 11
12.2145
 21
118.074
  0
LINE
  8
0
 10
12.2145
 20
118.074
 11
11.8843
 21
117.893
  0
LINE
  8
0
 10
11.8843
 20
117.893
 11
11.534
 21
117.754
  0
LINE
  8
0
 10
11.534
 20
117.754
 11
11.1691
 21
117.66
  0
LINE
  8
0
 10
11.1691
 20
117.66
 11
10.7954
 21
117.613
  0
LINE
  8
0
 10
10.7954
 20
117.613
 11
10.4186
 21
117.613
  0
LINE
  8
0
 10
-0.0941772
 20
116.003
 11
-0.281067
 21
116.027
  0
LINE
  8
0
 10
-0.281067
 20
116.027
 11
-0.463516
 21
116.073
  0
LINE
  8
0
 10
-0.463516
 20
116.073
 11
-0.638657
 21
116.143
  0
LINE
  8
0
 10
-0.638657
 20
116.143
 11
-0.803726
 21
116.234
  0
LINE
  8
0
 10
-0.803726
 20
116.234
 11
-0.956131
 21
116.344
  0
LINE
  8
0
 10
-0.956131
 20
116.344
 11
-1.09344
 21
116.473
  0
LINE
  8
0
 10
-1.09344
 20
116.473
 11
-1.21352
 21
116.618
  0
LINE
  8
0
 10
-1.21352
 20
116.618
 11
-1.31445
 21
116.777
  0
LINE
  8
0
 10
-1.31445
 20
116.777
 11
-1.39465
 21
116.948
  0
LINE
  8
0
 10
-1.39465
 20
116.948
 11
-1.45287
 21
117.127
  0
LINE
  8
0
 10
-1.45287
 20
117.127
 11
-1.48816
 21
117.312
  0
LINE
  8
0
 10
-1.48816
 20
117.312
 11
-1.5
 21
117.5
  0
LINE
  8
0
 10
-1.5
 20
117.5
 11
-1.48816
 21
117.688
  0
LINE
  8
0
 10
-1.48816
 20
117.688
 11
-1.45287
 21
117.873
  0
LINE
  8
0
 10
-1.45287
 20
117.873
 11
-1.39465
 21
118.052
  0
LINE
  8
0
 10
-1.39465
 20
118.052
 11
-1.31445
 21
118.223
  0
LINE
  8
0
 10
-1.31445
 20
118.223
 11
-1.21352
 21
118.382
  0
LINE
  8
0
 10
-1.21352
 20
118.382
 11
-1.09344
 21
118.527
  0
LINE
  8
0
 10
-1.09344
 20
118.527
 11
-0.956131
 21
118.656
  0
LINE
  8
0
 10
-0.956131
 20
118.656
 11
-0.803726
 21
118.766
  0
LINE
  8
0
 10
-0.803726
 20
118.766
 11
-0.638657
 21
118.857
  0
LINE
  8
0
 10
-0.638657
 20
118.857
 11
-0.463516
 21
118.927
  0
LINE
  8
0
 10
-0.463516
 20
118.927
 11
-0.281067
 21
118.973
  0
LINE
  8
0
 10
-0.281067
 20
118.973
 11
-0.0941772
 21
118.997
  0
LINE
  8
0
 10
-0.0941772
 20
118.997
 11
0.0941772
 21
118.997
  0
LINE
  8
0
 10
0.0941772
 20
118.997
 11
0.281067
 21
118.973
  0
LINE
  8
0
 10
0.281067
 20
118.973
 11
0.463516
 21
118.927
  0
LINE
  8
0
 10
0.463516
 20
118.927
 11
0.638657
 21
118.857
  0
LINE
  8
0
 10
0.638657
 20
118.857
 11
0.803726
 21
118.766
  0
LINE
  8
0
 10
0.803726
 20
118.766
 11
0.956131
 21
118.656
  0
LINE
  8
0
 10
0.956131
 20
118.656
 11
1.09344
 21
118.527
  0
LINE
  8
0
 10
1.09344
 20
118.527
 11
1.21352
 21
118.382
  0
LINE
  8
0
 10
1.21352
 20
118.382
 11
1.31445
 21
118.223
  0
LINE
  8
0
 10
1.31445
 20
118.223
 11
1.39465
 21
118.052
  0
LINE
  8
0
 10
1.39465
 20
118.052
 11
1.45287
 21
117.873
  0
LINE
  8
0
 10
1.45287
 20
117.873
 11
1.48816
 21
117.688
  0
LINE
  8
0
 10
1.48816
 20
117.688
 11
1.5
 21
117.5
  0
LINE
  8
0
 10
1.5
 20
117.5
 11
1.48816
 21
117.312
  0
LINE
  8
0
 10
1.48816
 20
117.312
 11
1.45287
 21
117.127
  0
LINE
  8
0
 10
1.45287
 20
117.127
 11
1.39465
 21
116.948
  0
LINE
  8
0
 10
1.39465
 20
116.948
 11
1.31445
 21
116.777
  0
LINE
  8
0
 10
1.31445
 20
116.777
 11
1.21352
 21
116.618
  0
LINE
  8
0
 10
1.21352
 20
116.618
 11
1.09344
 21
116.473
  0
LINE
  8
0
 10
1.09344
 20
116.473
 11
0.956131
 21
116.344
  0
LINE
  8
0
 10
0.956131
 20
116.344
 11
0.803726
 21
116.234
  0
LINE
  8
0
 10
0.803726
 20
116.234
 11
0.638657
 21
116.143
  0
LINE
  8
0
 10
0.638657
 20
116.143
 11
0.463516
 21
116.073
  0
LINE
  8
0
 10
0.463516
 20
116.073
 11
0.281067
 21
116.027
  0
LINE
  8
0
 10
0.281067
 20
116.027
 11
0.0941772
 21
116.003
  0
LINE
  8
0
 10
0.0941772
 20
116.003
 11
-0.0941772
 21
116.003
  0
LINE
  8
0
 10
14.8116
 20
107.006
 11
14.4379
 21
107.053
  0
LINE
  8
0
 10
14.4379
 20
107.053
 11
14.0729
 21
107.147
  0
LINE
  8
0
 10
14.0729
 20
107.147
 11
13.7227
 21
107.286
  0
LINE
  8
0
 10
13.7227
 20
107.286
 11
13.3925
 21
107.467
  0
LINE
  8
0
 10
13.3925
 20
107.467
 11
13.0877
 21
107.688
  0
LINE
  8
0
 10
13.0877
 20
107.688
 11
12.8131
 21
107.946
  0
LINE
  8
0
 10
12.8131
 20
107.946
 11
12.5729
 21
108.237
  0
LINE
  8
0
 10
12.5729
 20
108.237
 11
12.3711
 21
108.555
  0
LINE
  8
0
 10
12.3711
 20
108.555
 11
12.2107
 21
108.896
  0
LINE
  8
0
 10
12.2107
 20
108.896
 11
12.0942
 21
109.254
  0
LINE
  8
0
 10
12.0942
 20
109.254
 11
12.0237
 21
109.624
  0
LINE
  8
0
 10
12.0237
 20
109.624
 11
12
 21
110
  0
LINE
  8
0
 10
12
 20
110
 11
12.0237
 21
110.376
  0
LINE
  8
0
 10
12.0237
 20
110.376
 11
12.0942
 21
110.746
  0
LINE
  8
0
 10
12.0942
 20
110.746
 11
12.2107
 21
111.104
  0
LINE
  8
0
 10
12.2107
 20
111.104
 11
12.3711
 21
111.445
  0
LINE
  8
0
 10
12.3711
 20
111.445
 11
12.5729
 21
111.763
  0
LINE
  8
0
 10
12.5729
 20
111.763
 11
12.8131
 21
112.054
  0
LINE
  8
0
 10
12.8131
 20
112.054
 11
13.0877
 21
112.312
  0
LINE
  8
0
 10
13.0877
 20
112.312
 11
13.3925
 21
112.533
  0
LINE
  8
0
 10
13.3925
 20
112.533
 11
13.7227
 21
112.714
  0
LINE
  8
0
 10
13.7227
 20
112.714
 11
14.0729
 21
112.853
  0
LINE
  8
0
 10
14.0729
 20
112.853
 11
14.4379
 21
112.947
  0
LINE
  8
0
 10
14.4379
 20
112.947
 11
14.8116
 21
112.994
  0
LINE
  8
0
 10
14.8116
 20
112.994
 11
15.1884
 21
112.994
  0
LINE
  8
0
 10
15.1884
 20
112.994
 11
15.5621
 21
112.947
  0
LINE
  8
0
 10
15.5621
 20
112.947
 11
15.927
 21
112.853
  0
LINE
  8
0
 10
15.927
 20
112.853
 11
16.2773
 21
112.714
  0
LINE
  8
0
 10
16.2773
 20
112.714
 11
16.6075
 21
112.533
  0
LINE
  8
0
 10
16.6075
 20
112.533
 11
16.9123
 21
112.312
  0
LINE
  8
0
 10
16.9123
 20
112.312
 11
17.1869
 21
112.054
  0
LINE
  8
0
 10
17.1869
 20
112.054
 11
17.427
 21
111.763
  0
LINE
  8
0
 10
17.427
 20
111.763
 11
17.6289
 21
111.445
  0
LINE
  8
0
 10
17.6289
 20
111.445
 11
17.7893
 21
111.104
  0
LINE
  8
0
 10
17.7893
 20
111.104
 11
17.9057
 21
110.746
  0
LINE
  8
0
 10
17.9057
 20
110.746
 11
17.9763
 21
110.376
  0
LINE
  8
0
 10
17.9763
 20
110.376
 11
18
 21
110
  0
LINE
  8
0
 10
18
 20
110
 11
17.9763
 21
109.624
  0
LINE
  8
0
 10
17.9763
 20
109.624
 11
17.9057
 21
109.254
  0
LINE
  8
0
 10
17.9057
 20
109.254
 11
17.7893
 21
108.896
  0
LINE
  8
0
 10
17.7893
 20
108.896
 11
17.6289
 21
108.555
  0
LINE
  8
0
 10
17.6289
 20
108.555
 11
17.427
 21
108.237
  0
LINE
  8
0
 10
17.427
 20
108.237
 11
17.1869
 21
107.946
  0
LINE
  8
0
 10
17.1869
 20
107.946
 11
16.9123
 21
107.688
  0
LINE
  8
0
 10
16.9123
 20
107.688
 11
16.6075
 21
107.467
  0
LINE
  8
0
 10
16.6075
 20
107.467
 11
16.2773
 21
107.286
  0
LINE
  8
0
 10
16.2773
 20
107.286
 11
15.927
 21
107.147
  0
LINE
  8
0
 10
15.927
 20
107.147
 11
15.5621
 21
107.053
  0
LINE
  8
0
 10
15.5621
 20
107.053
 11
15.1884
 21
107.006
  0
LINE
  8
0
 10
15.1884
 20
107.006
 11
14.8116
 21
107.006
  0
LINE
  8
0
 10
-15.1884
 20
107.006
 11
-15.5621
 21
107.053
  0
LINE
  8
0
 10
-15.5621
 20
107.053
 11
-15.927
 21
107.147
  0
LINE
  8
0
 10
-15.927
 20
107.147
 11
-16.2773
 21
107.286
  0
LINE
  8
0
 10
-16.2773
 20
107.286
 11
-16.6075
 21
107.467
  0
LINE
  8
0
 10
-16.6075
 20
107.467
 11
-16.9123
 21
107.688
  0
LINE
  8
0
 10
-16.9123
 20
107.688
 11
-17.1869
 21
107.946
  0
LINE
  8
0
 10
-17.1869
 20
107.946
 11
-17.427
 21
108.237
  0
LINE
  8
0
 10
-17.427
 20
108.237
 11
-17.6289
 21
108.555
  0
LINE
  8
0
 10
-17.6289
 20
108.555
 11
-17.7893
 21
108.896
  0
LINE
  8
0
 10
-17.7893
 20
108.896
 11
-17.9057
 21
109.254
  0
LINE
  8
0
 10
-17.9057
 20
109.254
 11
-17.9763
 21
109.624
  0
LINE
  8
0
 10
-17.9763
 20
109.624
 11
-18
 21
110
  0
LINE
  8
0
 10
-18
 20
110
 11
-17.9763
 21
110.376
  0
LINE
  8
0
 10
-17.9763
 20
110.376
 11
-17.9057
 21
110.746
  0
LINE
  8
0
 10
-17.9057
 20
110.746
 11
-17.7893
 21
111.104
  0
LINE
  8
0
 10
-17.7893
 20
111.104
 11
-17.6289
 21
111.445
  0
LINE
  8
0
 10
-17.6289
 20
111.445
 11
-17.427
 21
111.763
  0
LINE
  8
0
 10
-17.427
 20
111.763
 11
-17.1869
 21
112.054
  0
LINE
  8
0
 10
-17.1869
 20
112.054
 11
-16.9123
 21
112.312
  0
LINE
  8
0
 10
-16.9123
 20
112.312
 11
-16.6075
 21
112.533
  0
LINE
  8
0
 10
-16.6075
 20
112.533
 11
-16.2773
 21
112.714
  0
LINE
  8
0
 10
-16.2773
 20
112.714
 11
-15.927
 21
112.853
  0
LINE
  8
0
 10
-15.927
 20
112.853
 11
-15.5621
 21
112.947
  0
LINE
  8
0
 10
-15.5621
 20
112.947
 11
-15.1884
 21
112.994
  0
LINE
  8
0
 10
-15.1884
 20
112.994
 11
-14.8116
 21
112.994
  0
LINE
  8
0
 10
-14.8116
 20
112.994
 11
-14.4379
 21
112.947
  0
LINE
  8
0
 10
-14.4379
 20
112.947
 11
-14.0729
 21
112.853
  0
LINE
  8
0
 10
-14.0729
 20
112.853
 11
-13.7227
 21
112.714
  0
LINE
  8
0
 10
-13.7227
 20
112.714
 11
-13.3925
 21
112.533
  0
LINE
  8
0
 10
-13.3925
 20
112.533
 11
-13.0877
 21
112.312
  0
LINE
  8
0
 10
-13.0877
 20
112.312
 11
-12.8131
 21
112.054
  0
LINE
  8
0
 10
-12.8131
 20
112.054
 11
-12.5729
 21
111.763
  0
LINE
  8
0
 10
-12.5729
 20
111.763
 11
-12.3711
 21
111.445
  0
LINE
  8
0
 10
-12.3711
 20
111.445
 11
-12.2107
 21
111.104
  0
LINE
  8
0
 10
-12.2107
 20
111.104
 11
-12.0942
 21
110.746
  0
LINE
  8
0
 10
-12.0942
 20
110.746
 11
-12.0237
 21
110.376
  0
LINE
  8
0
 10
-12.0237
 20
110.376
 11
-12
 21
110
  0
LINE
  8
0
 10
-12
 20
110
 11
-12.0237
 21
109.624
  0
LINE
  8
0
 10
-12.0237
 20
109.624
 11
-12.0942
 21
109.254
  0
LINE
  8
0
 10
-12.0942
 20
109.254
 11
-12.2107
 21
108.896
  0
LINE
  8
0
 10
-12.2107
 20
108.896
 11
-12.3711
 21
108.555
  0
LINE
  8
0
 10
-12.3711
 20
108.555
 11
-12.5729
 21
108.237
  0
LINE
  8
0
 10
-12.5729
 20
108.237
 11
-12.8131
 21
107.946
  0
LINE
  8
0
 10
-12.8131
 20
107.946
 11
-13.0877
 21
107.688
  0
LINE
  8
0
 10
-13.0877
 20
107.688
 11
-13.3925
 21
107.467
  0
LINE
  8
0
 10
-13.3925
 20
107.467
 11
-13.7227
 21
107.286
  0
LINE
  8
0
 10
-13.7227
 20
107.286
 11
-14.0729
 21
107.147
  0
LINE
  8
0
 10
-14.0729
 20
107.147
 11
-14.4379
 21
107.053
  0
LINE
  8
0
 10
-14.4379
 20
107.053
 11
-14.8116
 21
107.006
  0
LINE
  8
0
 10
-14.8116
 20
107.006
 11
-15.1884
 21
107.006
  0
LINE
  8
0
 10
-0.182083
 20
107.106
 11
-0.543396
 21
107.151
  0
LINE
  8
0
 10
-0.543396
 20
107.151
 11
-0.896149
 21
107.242
  0
LINE
  8
0
 10
-0.896149
 20
107.242
 11
-1.23476
 21
107.376
  0
LINE
  8
0
 10
-1.23476
 20
107.376
 11
-1.55389
 21
107.551
  0
LINE
  8
0
 10
-1.55389
 20
107.551
 11
-1.84853
 21
107.766
  0
LINE
  8
0
 10
-1.84853
 20
107.766
 11
-2.114
 21
108.015
  0
LINE
  8
0
 10
-2.114
 20
108.015
 11
-2.34615
 21
108.295
  0
LINE
  8
0
 10
-2.34615
 20
108.295
 11
-2.54128
 21
108.603
  0
LINE
  8
0
 10
-2.54128
 20
108.603
 11
-2.69635
 21
108.932
  0
LINE
  8
0
 10
-2.69635
 20
108.932
 11
-2.80888
 21
109.279
  0
LINE
  8
0
 10
-2.80888
 20
109.279
 11
-2.87712
 21
109.637
  0
LINE
  8
0
 10
-2.87712
 20
109.637
 11
-2.89999
 21
110
  0
LINE
  8
0
 10
-2.89999
 20
110
 11
-2.87712
 21
110.363
  0
LINE
  8
0
 10
-2.87712
 20
110.363
 11
-2.80888
 21
110.721
  0
LINE
  8
0
 10
-2.80888
 20
110.721
 11
-2.69635
 21
111.068
  0
LINE
  8
0
 10
-2.69635
 20
111.068
 11
-2.54128
 21
111.397
  0
LINE
  8
0
 10
-2.54128
 20
111.397
 11
-2.34615
 21
111.705
  0
LINE
  8
0
 10
-2.34615
 20
111.705
 11
-2.114
 21
111.985
  0
LINE
  8
0
 10
-2.114
 20
111.985
 11
-1.84853
 21
112.234
  0
LINE
  8
0
 10
-1.84853
 20
112.234
 11
-1.55389
 21
112.449
  0
LINE
  8
0
 10
-1.55389
 20
112.449
 11
-1.23476
 21
112.624
  0
LINE
  8
0
 10
-1.23476
 20
112.624
 11
-0.896149
 21
112.758
  0
LINE
  8
0
 10
-0.896149
 20
112.758
 11
-0.543396
 21
112.849
  0
LINE
  8
0
 10
-0.543396
 20
112.849
 11
-0.182083
 21
112.894
  0
LINE
  8
0
 10
-0.182083
 20
112.894
 11
0.182083
 21
112.894
  0
LINE
  8
0
 10
0.182083
 20
112.894
 11
0.543396
 21
112.849
  0
LINE
  8
0
 10
0.543396
 20
112.849
 11
0.896149
 21
112.758
  0
LINE
  8
0
 10
0.896149
 20
112.758
 11
1.23476
 21
112.624
  0
LINE
  8
0
 10
1.23476
 20
112.624
 11
1.55389
 21
112.449
  0
LINE
  8
0
 10
1.55389
 20
112.449
 11
1.84853
 21
112.234
  0
LINE
  8
0
 10
1.84853
 20
112.234
 11
2.114
 21
111.985
  0
LINE
  8
0
 10
2.114
 20
111.985
 11
2.34615
 21
111.705
  0
LINE
  8
0
 10
2.34615
 20
111.705
 11
2.54128
 21
111.397
  0
LINE
  8
0
 10
2.54128
 20
111.397
 11
2.69635
 21
111.068
  0
LINE
  8
0
 10
2.69635
 20
111.068
 11
2.80888
 21
110.721
  0
LINE
  8
0
 10
2.80888
 20
110.721
 11
2.87712
 21
110.363
  0
LINE
  8
0
 10
2.87712
 20
110.363
 11
2.89999
 21
110
  0
LINE
  8
0
 10
2.89999
 20
110
 11
2.87712
 21
109.637
  0
LINE
  8
0
 10
2.87712
 20
109.637
 11
2.80888
 21
109.279
  0
LINE
  8
0
 10
2.80888
 20
109.279
 11
2.69635
 21
108.932
  0
LINE
  8
0
 10
2.69635
 20
108.932
 11
2.54128
 21
108.603
  0
LINE
  8
0
 10
2.54128
 20
108.603
 11
2.34615
 21
108.295
  0
LINE
  8
0
 10
2.34615
 20
108.295
 11
2.114
 21
108.015
  0
LINE
  8
0
 10
2.114
 20
108.015
 11
1.84853
 21
107.766
  0
LINE
  8
0
 10
1.84853
 20
107.766
 11
1.55389
 21
107.551
  0
LINE
  8
0
 10
1.55389
 20
107.551
 11
1.23476
 21
107.376
  0
LINE
  8
0
 10
1.23476
 20
107.376
 11
0.896149
 21
107.242
  0
LINE
  8
0
 10
0.896149
 20
107.242
 11
0.543396
 21
107.151
  0
LINE
  8
0
 10
0.543396
 20
107.151
 11
0.182083
 21
107.106
  0
LINE
  8
0
 10
0.182083
 20
107.106
 11
-0.182083
 21
107.106
  0
LINE
  8
0
 10
7.40581
 20
108.503
 11
7.21892
 21
108.527
  0
LINE
  8
0
 10
7.21892
 20
108.527
 11
7.03647
 21
108.573
  0
LINE
  8
0
 10
7.03647
 20
108.573
 11
6.86133
 21
108.643
  0
LINE
  8
0
 10
6.86133
 20
108.643
 11
6.69626
 21
108.734
  0
LINE
  8
0
 10
6.69626
 20
108.734
 11
6.54385
 21
108.844
  0
LINE
  8
0
 10
6.54385
 20
108.844
 11
6.40654
 21
108.973
  0
LINE
  8
0
 10
6.40654
 20
108.973
 11
6.28647
 21
109.118
  0
LINE
  8
0
 10
6.28647
 20
109.118
 11
6.18553
 21
109.277
  0
LINE
  8
0
 10
6.18553
 20
109.277
 11
6.10533
 21
109.448
  0
LINE
  8
0
 10
6.10533
 20
109.448
 11
6.04712
 21
109.627
  0
LINE
  8
0
 10
6.04712
 20
109.627
 11
6.01183
 21
109.812
  0
LINE
  8
0
 10
6.01183
 20
109.812
 11
6
 21
110
  0
LINE
  8
0
 10
6
 20
110
 11
6.01183
 21
110.188
  0
LINE
  8
0
 10
6.01183
 20
110.188
 11
6.04712
 21
110.373
  0
LINE
  8
0
 10
6.04712
 20
110.373
 11
6.10533
 21
110.552
  0
LINE
  8
0
 10
6.10533
 20
110.552
 11
6.18553
 21
110.723
  0
LINE
  8
0
 10
6.18553
 20
110.723
 11
6.28647
 21
110.882
  0
LINE
  8
0
 10
6.28647
 20
110.882
 11
6.40654
 21
111.027
  0
LINE
  8
0
 10
6.40654
 20
111.027
 11
6.54385
 21
111.156
  0
LINE
  8
0
 10
6.54385
 20
111.156
 11
6.69626
 21
111.266
  0
LINE
  8
0
 10
6.69626
 20
111.266
 11
6.86133
 21
111.357
  0
LINE
  8
0
 10
6.86133
 20
111.357
 11
7.03647
 21
111.427
  0
LINE
  8
0
 10
7.03647
 20
111.427
 11
7.21892
 21
111.473
  0
LINE
  8
0
 10
7.21892
 20
111.473
 11
7.40581
 21
111.497
  0
LINE
  8
0
 10
7.40581
 20
111.497
 11
8.09418
 21
111.497
  0
LINE
  8
0
 10
8.09418
 20
111.497
 11
8.28107
 21
111.473
  0
LINE
  8
0
 10
8.28107
 20
111.473
 11
8.46352
 21
111.427
  0
LINE
  8
0
 10
8.46352
 20
111.427
 11
8.63866
 21
111.357
  0
LINE
  8
0
 10
8.63866
 20
111.357
 11
8.80373
 21
111.266
  0
LINE
  8
0
 10
8.80373
 20
111.266
 11
8.95613
 21
111.156
  0
LINE
  8
0
 10
8.95613
 20
111.156
 11
9.09344
 21
111.027
  0
LINE
  8
0
 10
9.09344
 20
111.027
 11
9.21352
 21
110.882
  0
LINE
  8
0
 10
9.21352
 20
110.882
 11
9.31445
 21
110.723
  0
LINE
  8
0
 10
9.31445
 20
110.723
 11
9.39465
 21
110.552
  0
LINE
  8
0
 10
9.39465
 20
110.552
 11
9.45287
 21
110.373
  0
LINE
  8
0
 10
9.45287
 20
110.373
 11
9.48816
 21
110.188
  0
LINE
  8
0
 10
9.48816
 20
110.188
 11
9.5
 21
110
  0
LINE
  8
0
 10
9.5
 20
110
 11
9.48816
 21
109.812
  0
LINE
  8
0
 10
9.48816
 20
109.812
 11
9.45287
 21
109.627
  0
LINE
  8
0
 10
9.45287
 20
109.627
 11
9.39465
 21
109.448
  0
LINE
  8
0
 10
9.39465
 20
109.448
 11
9.31445
 21
109.277
  0
LINE
  8
0
 10
9.31445
 20
109.277
 11
9.21352
 21
109.118
  0
LINE
  8
0
 10
9.21352
 20
109.118
 11
9.09344
 21
108.973
  0
LINE
  8
0
 10
9.09344
 20
108.973
 11
8.95613
 21
108.844
  0
LINE
  8
0
 10
8.95613
 20
108.844
 11
8.80373
 21
108.734
  0
LINE
  8
0
 10
8.80373
 20
108.734
 11
8.63866
 21
108.643
  0
LINE
  8
0
 10
8.63866
 20
108.643
 11
8.46352
 21
108.573
  0
LINE
  8
0
 10
8.46352
 20
108.573
 11
8.28107
 21
108.527
  0
LINE
  8
0
 10
8.28107
 20
108.527
 11
8.09418
 21
108.503
  0
LINE
  8
0
 10
8.09418
 20
108.503
 11
7.40581
 21
108.503
  0
LINE
  8
0
 10
-8.09418
 20
108.503
 11
-8.28107
 21
108.527
  0
LINE
  8
0
 10
-8.28107
 20
108.527
 11
-8.46352
 21
108.573
  0
LINE
  8
0
 10
-8.46352
 20
108.573
 11
-8.63866
 21
108.643
  0
LINE
  8
0
 10
-8.63866
 20
108.643
 11
-8.80373
 21
108.734
  0
LINE
  8
0
 10
-8.80373
 20
108.734
 11
-8.95613
 21
108.844
  0
LINE
  8
0
 10
-8.95613
 20
108.844
 11
-9.09344
 21
108.973
  0
LINE
  8
0
 10
-9.09344
 20
108.973
 11
-9.21352
 21
109.118
  0
LINE
  8
0
 10
-9.21352
 20
109.118
 11
-9.31445
 21
109.277
  0
LINE
  8
0
 10
-9.31445
 20
109.277
 11
-9.39465
 21
109.448
  0
LINE
  8
0
 10
-9.39465
 20
109.448
 11
-9.45287
 21
109.627
  0
LINE
  8
0
 10
-9.45287
 20
109.627
 11
-9.48816
 21
109.812
  0
LINE
  8
0
 10
-9.48816
 20
109.812
 11
-9.5
 21
110
  0
LINE
  8
0
 10
-9.5
 20
110
 11
-9.48816
 21
110.188
  0
LINE
  8
0
 10
-9.48816
 20
110.188
 11
-9.45287
 21
110.373
  0
LINE
  8
0
 10
-9.45287
 20
110.373
 11
-9.39465
 21
110.552
  0
LINE
  8
0
 10
-9.39465
 20
110.552
 11
-9.31445
 21
110.723
  0
LINE
  8
0
 10
-9.31445
 20
110.723
 11
-9.21352
 21
110.882
  0
LINE
  8
0
 10
-9.21352
 20
110.882
 11
-9.09344
 21
111.027
  0
LINE
  8
0
 10
-9.09344
 20
111.027
 11
-8.95613
 21
111.156
  0
LINE
  8
0
 10
-8.95613
 20
111.156
 11
-8.80373
 21
111.266
  0
LINE
  8
0
 10
-8.80373
 20
111.266
 11
-8.63866
 21
111.357
  0
LINE
  8
0
 10
-8.63866
 20
111.357
 11
-8.46352
 21
111.427
  0
LINE
  8
0
 10
-8.46352
 20
111.427
 11
-8.28107
 21
111.473
  0
LINE
  8
0
 10
-8.28107
 20
111.473
 11
-8.09418
 21
111.497
  0
LINE
  8
0
 10
-8.09418
 20
111.497
 11
-7.40581
 21
111.497
  0
LINE
  8
0
 10
-7.40581
 20
111.497
 11
-7.21892
 21
111.473
  0
LINE
  8
0
 10
-7.21892
 20
111.473
 11
-7.03647
 21
111.427
  0
LINE
  8
0
 10
-7.03647
 20
111.427
 11
-6.86133
 21
111.357
  0
LINE
  8
0
 10
-6.86133
 20
111.357
 11
-6.69626
 21
111.266
  0
LINE
  8
0
 10
-6.69626
 20
111.266
 11
-6.54385
 21
111.156
  0
LINE
  8
0
 10
-6.54385
 20
111.156
 11
-6.40654
 21
111.027
  0
LINE
  8
0
 10
-6.40654
 20
111.027
 11
-6.28647
 21
110.882
  0
LINE
  8
0
 10
-6.28647
 20
110.882
 11
-6.18553
 21
110.723
  0
LINE
  8
0
 10
-6.18553
 20
110.723
 11
-6.10533
 21
110.552
  0
LINE
  8
0
 10
-6.10533
 20
110.552
 11
-6.04712
 21
110.373
  0
LINE
  8
0
 10
-6.04712
 20
110.373
 11
-6.01183
 21
110.188
  0
LINE
  8
0
 10
-6.01183
 20
110.188
 11
-6
 21
110
  0
LINE
  8
0
 10
-6
 20
110
 11
-6.01183
 21
109.812
  0
LINE
  8
0
 10
-6.01183
 20
109.812
 11
-6.04712
 21
109.627
  0
LINE
  8
0
 10
-6.04712
 20
109.627
 11
-6.10533
 21
109.448
  0
LINE
  8
0
 10
-6.10533
 20
109.448
 11
-6.18553
 21
109.277
  0
LINE
  8
0
 10
-6.18553
 20
109.277
 11
-6.28647
 21
109.118
  0
LINE
  8
0
 10
-6.28647
 20
109.118
 11
-6.40654
 21
108.973
  0
LINE
  8
0
 10
-6.40654
 20
108.973
 11
-6.54385
 21
108.844
  0
LINE
  8
0
 10
-6.54385
 20
108.844
 11
-6.69626
 21
108.734
  0
LINE
  8
0
 10
-6.69626
 20
108.734
 11
-6.86133
 21
108.643
  0
LINE
  8
0
 10
-6.86133
 20
108.643
 11
-7.03647
 21
108.573
  0
LINE
  8
0
 10
-7.03647
 20
108.573
 11
-7.21892
 21
108.527
  0
LINE
  8
0
 10
-7.21892
 20
108.527
 11
-7.40581
 21
108.503
  0
LINE
  8
0
 10
-7.40581
 20
108.503
 11
-8.09418
 21
108.503
  0
LINE
  8
0
 10
-0.0941772
 20
101.003
 11
-0.281067
 21
101.027
  0
LINE
  8
0
 10
-0.281067
 20
101.027
 11
-0.463516
 21
101.073
  0
LINE
  8
0
 10
-0.463516
 20
101.073
 11
-0.638657
 21
101.143
  0
LINE
  8
0
 10
-0.638657
 20
101.143
 11
-0.803726
 21
101.234
  0
LINE
  8
0
 10
-0.803726
 20
101.234
 11
-0.956131
 21
101.344
  0
LINE
  8
0
 10
-0.956131
 20
101.344
 11
-1.09344
 21
101.473
  0
LINE
  8
0
 10
-1.09344
 20
101.473
 11
-1.21352
 21
101.618
  0
LINE
  8
0
 10
-1.21352
 20
101.618
 11
-1.31445
 21
101.777
  0
LINE
  8
0
 10
-1.31445
 20
101.777
 11
-1.39465
 21
101.948
  0
LINE
  8
0
 10
-1.39465
 20
101.948
 11
-1.45287
 21
102.127
  0
LINE
  8
0
 10
-1.45287
 20
102.127
 11
-1.48816
 21
102.312
  0
LINE
  8
0
 10
-1.48816
 20
102.312
 11
-1.5
 21
102.5
  0
LINE
  8
0
 10
-1.5
 20
102.5
 11
-1.48816
 21
102.688
  0
LINE
  8
0
 10
-1.48816
 20
102.688
 11
-1.45287
 21
102.873
  0
LINE
  8
0
 10
-1.45287
 20
102.873
 11
-1.39465
 21
103.052
  0
LINE
  8
0
 10
-1.39465
 20
103.052
 11
-1.31445
 21
103.223
  0
LINE
  8
0
 10
-1.31445
 20
103.223
 11
-1.21352
 21
103.382
  0
LINE
  8
0
 10
-1.21352
 20
103.382
 11
-1.09344
 21
103.527
  0
LINE
  8
0
 10
-1.09344
 20
103.527
 11
-0.956131
 21
103.656
  0
LINE
  8
0
 10
-0.956131
 20
103.656
 11
-0.803726
 21
103.766
  0
LINE
  8
0
 10
-0.803726
 20
103.766
 11
-0.638657
 21
103.857
  0
LINE
  8
0
 10
-0.638657
 20
103.857
 11
-0.463516
 21
103.927
  0
LINE
  8
0
 10
-0.463516
 20
103.927
 11
-0.281067
 21
103.973
  0
LINE
  8
0
 10
-0.281067
 20
103.973
 11
-0.0941772
 21
103.997
  0
LINE
  8
0
 10
-0.0941772
 20
103.997
 11
0.0941772
 21
103.997
  0
LINE
  8
0
 10
0.0941772
 20
103.997
 11
0.281067
 21
103.973
  0
LINE
  8
0
 10
0.281067
 20
103.973
 11
0.463516
 21
103.927
  0
LINE
  8
0
 10
0.463516
 20
103.927
 11
0.638657
 21
103.857
  0
LINE
  8
0
 10
0.638657
 20
103.857
 11
0.803726
 21
103.766
  0
LINE
  8
0
 10
0.803726
 20
103.766
 11
0.956131
 21
103.656
  0
LINE
  8
0
 10
0.956131
 20
103.656
 11
1.09344
 21
103.527
  0
LINE
  8
0
 10
1.09344
 20
103.527
 11
1.21352
 21
103.382
  0
LINE
  8
0
 10
1.21352
 20
103.382
 11
1.31445
 21
103.223
  0
LINE
  8
0
 10
1.31445
 20
103.223
 11
1.39465
 21
103.052
  0
LINE
  8
0
 10
1.39465
 20
103.052
 11
1.45287
 21
102.873
  0
LINE
  8
0
 10
1.45287
 20
102.873
 11
1.48816
 21
102.688
  0
LINE
  8
0
 10
1.48816
 20
102.688
 11
1.5
 21
102.5
  0
LINE
  8
0
 10
1.5
 20
102.5
 11
1.48816
 21
102.312
  0
LINE
  8
0
 10
1.48816
 20
102.312
 11
1.45287
 21
102.127
  0
LINE
  8
0
 10
1.45287
 20
102.127
 11
1.39465
 21
101.948
  0
LINE
  8
0
 10
1.39465
 20
101.948
 11
1.31445
 21
101.777
  0
LINE
  8
0
 10
1.31445
 20
101.777
 11
1.21352
 21
101.618
  0
LINE
  8
0
 10
1.21352
 20
101.618
 11
1.09344
 21
101.473
  0
LINE
  8
0
 10
1.09344
 20
101.473
 11
0.956131
 21
101.344
  0
LINE
  8
0
 10
0.956131
 20
101.344
 11
0.803726
 21
101.234
  0
LINE
  8
0
 10
0.803726
 20
101.234
 11
0.638657
 21
101.143
  0
LINE
  8
0
 10
0.638657
 20
101.143
 11
0.463516
 21
101.073
  0
LINE
  8
0
 10
0.463516
 20
101.073
 11
0.281067
 21
101.027
  0
LINE
  8
0
 10
0.281067
 20
101.027
 11
0.0941772
 21
101.003
  0
LINE
  8
0
 10
0.0941772
 20
101.003
 11
-0.0941772
 21
101.003
  0
LINE
  8
0
 10
10.4186
 20
96.3989
 11
10.0448
 21
96.4462
  0
LINE
  8
0
 10
10.0448
 20
96.4462
 11
9.67995
 21
96.5398
  0
LINE
  8
0
 10
9.67995
 20
96.5398
 11
9.32965
 21
96.6785
  0
LINE
  8
0
 10
9.32965
 20
96.6785
 11
8.99951
 21
96.86
  0
LINE
  8
0
 10
8.99951
 20
96.86
 11
8.69472
 21
97.0815
  0
LINE
  8
0
 10
8.69472
 20
97.0815
 11
8.42009
 21
97.3394
  0
LINE
  8
0
 10
8.42009
 20
97.3394
 11
8.17995
 21
97.6297
  0
LINE
  8
0
 10
8.17995
 20
97.6297
 11
7.97807
 21
97.9478
  0
LINE
  8
0
 10
7.97807
 20
97.9478
 11
7.81766
 21
98.2886
  0
LINE
  8
0
 10
7.81766
 20
98.2886
 11
7.70125
 21
98.6469
  0
LINE
  8
0
 10
7.70125
 20
98.6469
 11
7.63065
 21
99.017
  0
LINE
  8
0
 10
7.63065
 20
99.017
 11
7.60699
 21
99.393
  0
LINE
  8
0
 10
7.60699
 20
99.393
 11
7.63065
 21
99.769
  0
LINE
  8
0
 10
7.63065
 20
99.769
 11
7.70125
 21
100.139
  0
LINE
  8
0
 10
7.70125
 20
100.139
 11
7.81766
 21
100.497
  0
LINE
  8
0
 10
7.81766
 20
100.497
 11
7.97807
 21
100.838
  0
LINE
  8
0
 10
7.97807
 20
100.838
 11
8.17995
 21
101.156
  0
LINE
  8
0
 10
8.17995
 20
101.156
 11
8.42009
 21
101.447
  0
LINE
  8
0
 10
8.42009
 20
101.447
 11
8.69472
 21
101.705
  0
LINE
  8
0
 10
8.69472
 20
101.705
 11
8.99951
 21
101.926
  0
LINE
  8
0
 10
8.99951
 20
101.926
 11
9.32965
 21
102.107
  0
LINE
  8
0
 10
9.32965
 20
102.107
 11
9.67995
 21
102.246
  0
LINE
  8
0
 10
9.67995
 20
102.246
 11
10.0448
 21
102.34
  0
LINE
  8
0
 10
10.0448
 20
102.34
 11
10.4186
 21
102.387
  0
LINE
  8
0
 10
10.4186
 20
102.387
 11
10.7954
 21
102.387
  0
LINE
  8
0
 10
10.7954
 20
102.387
 11
11.1691
 21
102.34
  0
LINE
  8
0
 10
11.1691
 20
102.34
 11
11.534
 21
102.246
  0
LINE
  8
0
 10
11.534
 20
102.246
 11
11.8843
 21
102.107
  0
LINE
  8
0
 10
11.8843
 20
102.107
 11
12.2145
 21
101.926
  0
LINE
  8
0
 10
12.2145
 20
101.926
 11
12.5193
 21
101.705
  0
LINE
  8
0
 10
12.5193
 20
101.705
 11
12.7939
 21
101.447
  0
LINE
  8
0
 10
12.7939
 20
101.447
 11
13.034
 21
101.156
  0
LINE
  8
0
 10
13.034
 20
101.156
 11
13.2359
 21
100.838
  0
LINE
  8
0
 10
13.2359
 20
100.838
 11
13.3963
 21
100.497
  0
LINE
  8
0
 10
13.3963
 20
100.497
 11
13.5127
 21
100.139
  0
LINE
  8
0
 10
13.5127
 20
100.139
 11
13.5833
 21
99.769
  0
LINE
  8
0
 10
13.5833
 20
99.769
 11
13.607
 21
99.393
  0
LINE
  8
0
 10
13.607
 20
99.393
 11
13.5833
 21
99.017
  0
LINE
  8
0
 10
13.5833
 20
99.017
 11
13.5127
 21
98.6469
  0
LINE
  8
0
 10
13.5127
 20
98.6469
 11
13.3963
 21
98.2886
  0
LINE
  8
0
 10
13.3963
 20
98.2886
 11
13.2359
 21
97.9478
  0
LINE
  8
0
 10
13.2359
 20
97.9478
 11
13.034
 21
97.6297
  0
LINE
  8
0
 10
13.034
 20
97.6297
 11
12.7939
 21
97.3394
  0
LINE
  8
0
 10
12.7939
 20
97.3394
 11
12.5193
 21
97.0815
  0
LINE
  8
0
 10
12.5193
 20
97.0815
 11
12.2145
 21
96.86
  0
LINE
  8
0
 10
12.2145
 20
96.86
 11
11.8843
 21
96.6785
  0
LINE
  8
0
 10
11.8843
 20
96.6785
 11
11.534
 21
96.5398
  0
LINE
  8
0
 10
11.534
 20
96.5398
 11
11.1691
 21
96.4462
  0
LINE
  8
0
 10
11.1691
 20
96.4462
 11
10.7954
 21
96.3989
  0
LINE
  8
0
 10
10.7954
 20
96.3989
 11
10.4186
 21
96.3989
  0
LINE
  8
0
 10
-10.7954
 20
96.3989
 11
-11.1691
 21
96.4462
  0
LINE
  8
0
 10
-11.1691
 20
96.4462
 11
-11.534
 21
96.5398
  0
LINE
  8
0
 10
-11.534
 20
96.5398
 11
-11.8843
 21
96.6785
  0
LINE
  8
0
 10
-11.8843
 20
96.6785
 11
-12.2145
 21
96.86
  0
LINE
  8
0
 10
-12.2145
 20
96.86
 11
-12.5193
 21
97.0815
  0
LINE
  8
0
 10
-12.5193
 20
97.0815
 11
-12.7939
 21
97.3394
  0
LINE
  8
0
 10
-12.7939
 20
97.3394
 11
-13.034
 21
97.6297
  0
LINE
  8
0
 10
-13.034
 20
97.6297
 11
-13.2359
 21
97.9478
  0
LINE
  8
0
 10
-13.2359
 20
97.9478
 11
-13.3963
 21
98.2886
  0
LINE
  8
0
 10
-13.3963
 20
98.2886
 11
-13.5127
 21
98.6469
  0
LINE
  8
0
 10
-13.5127
 20
98.6469
 11
-13.5833
 21
99.017
  0
LINE
  8
0
 10
-13.5833
 20
99.017
 11
-13.607
 21
99.393
  0
LINE
  8
0
 10
-13.607
 20
99.393
 11
-13.5833
 21
99.769
  0
LINE
  8
0
 10
-13.5833
 20
99.769
 11
-13.5127
 21
100.139
  0
LINE
  8
0
 10
-13.5127
 20
100.139
 11
-13.3963
 21
100.497
  0
LINE
  8
0
 10
-13.3963
 20
100.497
 11
-13.2359
 21
100.838
  0
LINE
  8
0
 10
-13.2359
 20
100.838
 11
-13.034
 21
101.156
  0
LINE
  8
0
 10
-13.034
 20
101.156
 11
-12.7939
 21
101.447
  0
LINE
  8
0
 10
-12.7939
 20
101.447
 11
-12.5193
 21
101.705
  0
LINE
  8
0
 10
-12.5193
 20
101.705
 11
-12.2145
 21
101.926
  0
LINE
  8
0
 10
-12.2145
 20
101.926
 11
-11.8843
 21
102.107
  0
LINE
  8
0
 10
-11.8843
 20
102.107
 11
-11.534
 21
102.246
  0
LINE
  8
0
 10
-11.534
 20
102.246
 11
-11.1691
 21
102.34
  0
LINE
  8
0
 10
-11.1691
 20
102.34
 11
-10.7954
 21
102.387
  0
LINE
  8
0
 10
-10.7954
 20
102.387
 11
-10.4186
 21
102.387
  0
LINE
  8
0
 10
-10.4186
 20
102.387
 11
-10.0448
 21
102.34
  0
LINE
  8
0
 10
-10.0448
 20
102.34
 11
-9.67995
 21
102.246
  0
LINE
  8
0
 10
-9.67995
 20
102.246
 11
-9.32965
 21
102.107
  0
LINE
  8
0
 10
-9.32965
 20
102.107
 11
-8.99951
 21
101.926
  0
LINE
  8
0
 10
-8.99951
 20
101.926
 11
-8.69472
 21
101.705
  0
LINE
  8
0
 10
-8.69472
 20
101.705
 11
-8.42009
 21
101.447
  0
LINE
  8
0
 10
-8.42009
 20
101.447
 11
-8.17995
 21
101.156
  0
LINE
  8
0
 10
-8.17995
 20
101.156
 11
-7.97807
 21
100.838
  0
LINE
  8
0
 10
-7.97807
 20
100.838
 11
-7.81766
 21
100.497
  0
LINE
  8
0
 10
-7.81766
 20
100.497
 11
-7.70125
 21
100.139
  0
LINE
  8
0
 10
-7.70125
 20
100.139
 11
-7.63065
 21
99.769
  0
LINE
  8
0
 10
-7.63065
 20
99.769
 11
-7.60699
 21
99.393
  0
LINE
  8
0
 10
-7.60699
 20
99.393
 11
-7.63065
 21
99.017
  0
LINE
  8
0
 10
-7.63065
 20
99.017
 11
-7.70125
 21
98.6469
  0
LINE
  8
0
 10
-7.70125
 20
98.6469
 11
-7.81766
 21
98.2886
  0
LINE
  8
0
 10
-7.81766
 20
98.2886
 11
-7.97807
 21
97.9478
  0
LINE
  8
0
 10
-7.97807
 20
97.9478
 11
-8.17995
 21
97.6297
  0
LINE
  8
0
 10
-8.17995
 20
97.6297
 11
-8.42009
 21
97.3394
  0
LINE
  8
0
 10
-8.42009
 20
97.3394
 11
-8.69472
 21
97.0815
  0
LINE
  8
0
 10
-8.69472
 20
97.0815
 11
-8.99951
 21
96.86
  0
LINE
  8
0
 10
-8.99951
 20
96.86
 11
-9.32965
 21
96.6785
  0
LINE
  8
0
 10
-9.32965
 20
96.6785
 11
-9.67995
 21
96.5398
  0
LINE
  8
0
 10
-9.67995
 20
96.5398
 11
-10.0448
 21
96.4462
  0
LINE
  8
0
 10
-10.0448
 20
96.4462
 11
-10.4186
 21
96.3989
  0
LINE
  8
0
 10
-10.4186
 20
96.3989
 11
-10.7954
 21
96.3989
  0
LINE
  8
0
 10
-0.18837
 20
92.0059
 11
-0.562134
 21
92.0531
  0
LINE
  8
0
 10
-0.562134
 20
92.0531
 11
-0.927048
 21
92.1468
  0
LINE
  8
0
 10
-0.927048
 20
92.1468
 11
-1.27733
 21
92.2855
  0
LINE
  8
0
 10
-1.27733
 20
92.2855
 11
-1.60747
 21
92.467
  0
LINE
  8
0
 10
-1.60747
 20
92.467
 11
-1.91226
 21
92.6885
  0
LINE
  8
0
 10
-1.91226
 20
92.6885
 11
-2.1869
 21
92.9464
  0
LINE
  8
0
 10
-2.1869
 20
92.9464
 11
-2.42705
 21
93.2366
  0
LINE
  8
0
 10
-2.42705
 20
93.2366
 11
-2.62891
 21
93.5547
  0
LINE
  8
0
 10
-2.62891
 20
93.5547
 11
-2.78932
 21
93.8956
  0
LINE
  8
0
 10
-2.78932
 20
93.8956
 11
-2.90575
 21
94.2539
  0
LINE
  8
0
 10
-2.90575
 20
94.2539
 11
-2.97633
 21
94.624
  0
LINE
  8
0
 10
-2.97633
 20
94.624
 11
-3
 21
95
  0
LINE
  8
0
 10
-3
 20
95
 11
-2.97633
 21
95.376
  0
LINE
  8
0
 10
-2.97633
 20
95.376
 11
-2.90575
 21
95.7461
  0
LINE
  8
0
 10
-2.90575
 20
95.7461
 11
-2.78932
 21
96.1044
  0
LINE
  8
0
 10
-2.78932
 20
96.1044
 11
-2.62891
 21
96.4453
  0
LINE
  8
0
 10
-2.62891
 20
96.4453
 11
-2.42705
 21
96.7634
  0
LINE
  8
0
 10
-2.42705
 20
96.7634
 11
-2.1869
 21
97.0536
  0
LINE
  8
0
 10
-2.1869
 20
97.0536
 11
-1.91226
 21
97.3116
  0
LINE
  8
0
 10
-1.91226
 20
97.3116
 11
-1.60747
 21
97.533
  0
LINE
  8
0
 10
-1.60747
 20
97.533
 11
-1.27733
 21
97.7145
  0
LINE
  8
0
 10
-1.27733
 20
97.7145
 11
-0.927048
 21
97.8532
  0
LINE
  8
0
 10
-0.927048
 20
97.8532
 11
-0.562134
 21
97.9469
  0
LINE
  8
0
 10
-0.562134
 20
97.9469
 11
-0.18837
 21
97.9941
  0
LINE
  8
0
 10
-0.18837
 20
97.9941
 11
0.18837
 21
97.9941
  0
LINE
  8
0
 10
0.18837
 20
97.9941
 11
0.562134
 21
97.9469
  0
LINE
  8
0
 10
0.562134
 20
97.9469
 11
0.927048
 21
97.8532
  0
LINE
  8
0
 10
0.927048
 20
97.8532
 11
1.27733
 21
97.7145
  0
LINE
  8
0
 10
1.27733
 20
97.7145
 11
1.60747
 21
97.533
  0
LINE
  8
0
 10
1.60747
 20
97.533
 11
1.91226
 21
97.3116
  0
LINE
  8
0
 10
1.91226
 20
97.3116
 11
2.1869
 21
97.0536
  0
LINE
  8
0
 10
2.1869
 20
97.0536
 11
2.42705
 21
96.7634
  0
LINE
  8
0
 10
2.42705
 20
96.7634
 11
2.62891
 21
96.4453
  0
LINE
  8
0
 10
2.62891
 20
96.4453
 11
2.78932
 21
96.1044
  0
LINE
  8
0
 10
2.78932
 20
96.1044
 11
2.90575
 21
95.7461
  0
LINE
  8
0
 10
2.90575
 20
95.7461
 11
2.97633
 21
95.376
  0
LINE
  8
0
 10
2.97633
 20
95.376
 11
3
 21
95
  0
LINE
  8
0
 10
3
 20
95
 11
2.97633
 21
94.624
  0
LINE
  8
0
 10
2.97633
 20
94.624
 11
2.90575
 21
94.2539
  0
LINE
  8
0
 10
2.90575
 20
94.2539
 11
2.78932
 21
93.8956
  0
LINE
  8
0
 10
2.78932
 20
93.8956
 11
2.62891
 21
93.5547
  0
LINE
  8
0
 10
2.62891
 20
93.5547
 11
2.42705
 21
93.2366
  0
LINE
  8
0
 10
2.42705
 20
93.2366
 11
2.1869
 21
92.9464
  0
LINE
  8
0
 10
2.1869
 20
92.9464
 11
1.91226
 21
92.6885
  0
LINE
  8
0
 10
1.91226
 20
92.6885
 11
1.60747
 21
92.467
  0
LINE
  8
0
 10
1.60747
 20
92.467
 11
1.27733
 21
92.2855
  0
LINE
  8
0
 10
1.27733
 20
92.2855
 11
0.927048
 21
92.1468
  0
LINE
  8
0
 10
0.927048
 20
92.1468
 11
0.562134
 21
92.0531
  0
LINE
  8
0
 10
0.562134
 20
92.0531
 11
0.18837
 21
92.0059
  0
LINE
  8
0
 10
0.18837
 20
92.0059
 11
-0.18837
 21
92.0059
  0
LINE
  8
0
 10
4.02869
 20
-21.1192
 11
6.64386
 21
-20.4477
  0
LINE
  8
0
 10
6.64386
 20
-20.4477
 11
9.15425
 21
-19.4538
  0
LINE
  8
0
 10
9.15425
 20
-19.4538
 11
11.5203
 21
-18.153
  0
LINE
  8
0
 10
11.5203
 20
-18.153
 11
13.7046
 21
-16.566
  0
LINE
  8
0
 10
13.7046
 20
-16.566
 11
15.6728
 21
-14.7178
  0
LINE
  8
0
 10
15.6728
 20
-14.7178
 11
17.3939
 21
-12.6374
  0
LINE
  8
0
 10
17.3939
 20
-12.6374
 11
18.8406
 21
-10.3577
  0
LINE
  8
0
 10
18.8406
 20
-10.3577
 11
19.9902
 21
-7.91467
  0
LINE
  8
0
 10
19.9902
 20
-7.91467
 11
20.8245
 21
-5.34683
  0
LINE
  8
0
 10
20.8245
 20
-5.34683
 11
21.3305
 21
-2.69466
  0
LINE
  8
0
 10
21.3305
 20
-2.69466
 11
21.5
 21
0
  0
LINE
  8
0
 10
21.5
 20
0
 11
21.3305
 21
2.69466
  0
LINE
  8
0
 10
21.3305
 20
2.69466
 11
20.8245
 21
5.34683
  0
LINE
  8
0
 10
20.8245
 20
5.34683
 11
19.9902
 21
7.91467
  0
LINE
  8
0
 10
19.9902
 20
7.91467
 11
18.8406
 21
10.3577
  0
LINE
  8
0
 10
18.8406
 20
10.3577
 11
17.3939
 21
12.6374
  0
LINE
  8
0
 10
17.3939
 20
12.6374
 11
15.6728
 21
14.7178
  0
LINE
  8
0
 10
15.6728
 20
14.7178
 11
13.7046
 21
16.566
  0
LINE
  8
0
 10
13.7046
 20
16.566
 11
11.5203
 21
18.153
  0
LINE
  8
0
 10
11.5203
 20
18.153
 11
9.15425
 21
19.4538
  0
LINE
  8
0
 10
9.15425
 20
19.4538
 11
6.64386
 21
20.4477
  0
LINE
  8
0
 10
6.64386
 20
20.4477
 11
4.02869
 21
21.1192
  0
LINE
  8
0
 10
4.02869
 20
21.1192
 11
1.34999
 21
21.4576
  0
LINE
  8
0
 10
1.34999
 20
21.4576
 11
-1.34999
 21
21.4576
  0
LINE
  8
0
 10
-1.34999
 20
21.4576
 11
-4.02869
 21
21.1192
  0
LINE
  8
0
 10
-4.02869
 20
21.1192
 11
-6.64386
 21
20.4477
  0
LINE
  8
0
 10
-6.64386
 20
20.4477
 11
-9.15425
 21
19.4538
  0
LINE
  8
0
 10
-9.15425
 20
19.4538
 11
-11.5203
 21
18.153
  0
LINE
  8
0
 10
-11.5203
 20
18.153
 11
-13.7046
 21
16.566
  0
LINE
  8
0
 10
-13.7046
 20
16.566
 11
-15.6728
 21
14.7178
  0
LINE
  8
0
 10
-15.6728
 20
14.7178
 11
-17.3939
 21
12.6374
  0
LINE
  8
0
 10
-17.3939
 20
12.6374
 11
-18.8406
 21
10.3577
  0
LINE
  8
0
 10
-18.8406
 20
10.3577
 11
-19.9902
 21
7.91467
  0
LINE
  8
0
 10
-19.9902
 20
7.91467
 11
-20.8245
 21
5.34683
  0
LINE
  8
0
 10
-20.8245
 20
5.34683
 11
-21.3305
 21
2.69466
  0
LINE
  8
0
 10
-21.3305
 20
2.69466
 11
-21.5
 21
0
  0
LINE
  8
0
 10
-21.5
 20
0
 11
-21.3305
 21
-2.69466
  0
LINE
  8
0
 10
-21.3305
 20
-2.69466
 11
-20.8245
 21
-5.34683
  0
LINE
  8
0
 10
-20.8245
 20
-5.34683
 11
-19.9902
 21
-7.91467
  0
LINE
  8
0
 10
-19.9902
 20
-7.91467
 11
-18.8406
 21
-10.3577
  0
LINE
  8
0
 10
-18.8406
 20
-10.3577
 11
-17.3939
 21
-12.6374
  0
LINE
  8
0
 10
-17.3939
 20
-12.6374
 11
-15.6728
 21
-14.7178
  0
LINE
  8
0
 10
-15.6728
 20
-14.7178
 11
-13.7046
 21
-16.566
  0
LINE
  8
0
 10
-13.7046
 20
-16.566
 11
-11.5203
 21
-18.153
  0
LINE
  8
0
 10
-11.5203
 20
-18.153
 11
-9.15425
 21
-19.4538
  0
LINE
  8
0
 10
-9.15425
 20
-19.4538
 11
-6.64386
 21
-20.4477
  0
LINE
  8
0
 10
-6.64386
 20
-20.4477
 11
-4.02869
 21
-21.1192
  0
LINE
  8
0
 10
-4.02869
 20
-21.1192
 11
-1.34999
 21
-21.4576
  0
LINE
  8
0
 10
-1.34999
 20
-21.4576
 11
1.34999
 21
-21.4576
  0
LINE
  8
0
 10
1.34999
 20
-21.4576
 11
4.02869
 21
-21.1192
  0
LINE
  8
0
 10
-0.18837
 20
12.0059
 11
-0.562134
 21
12.0531
  0
LINE
  8
0
 10
-0.562134
 20
12.0531
 11
-0.927048
 21
12.1468
  0
LINE
  8
0
 10
-0.927048
 20
12.1468
 11
-1.27733
 21
12.2855
  0
LINE
  8
0
 10
-1.27733
 20
12.2855
 11
-1.60747
 21
12.467
  0
LINE
  8
0
 10
-1.60747
 20
12.467
 11
-1.91226
 21
12.6884
  0
LINE
  8
0
 10
-1.91226
 20
12.6884
 11
-2.1869
 21
12.9464
  0
LINE
  8
0
 10
-2.1869
 20
12.9464
 11
-2.42705
 21
13.2366
  0
LINE
  8
0
 10
-2.42705
 20
13.2366
 11
-2.62891
 21
13.5547
  0
LINE
  8
0
 10
-2.62891
 20
13.5547
 11
-2.78932
 21
13.8956
  0
LINE
  8
0
 10
-2.78932
 20
13.8956
 11
-2.90575
 21
14.2539
  0
LINE
  8
0
 10
-2.90575
 20
14.2539
 11
-2.97633
 21
14.624
  0
LINE
  8
0
 10
-2.97633
 20
14.624
 11
-3
 21
15
  0
LINE
  8
0
 10
-3
 20
15
 11
-2.97633
 21
15.376
  0
LINE
  8
0
 10
-2.97633
 20
15.376
 11
-2.90575
 21
15.7461
  0
LINE
  8
0
 10
-2.90575
 20
15.7461
 11
-2.78932
 21
16.1044
  0
LINE
  8
0
 10
-2.78932
 20
16.1044
 11
-2.62891
 21
16.4453
  0
LINE
  8
0
 10
-2.62891
 20
16.4453
 11
-2.42705
 21
16.7634
  0
LINE
  8
0
 10
-2.42705
 20
16.7634
 11
-2.1869
 21
17.0536
  0
LINE
  8
0
 10
-2.1869
 20
17.0536
 11
-1.91226
 21
17.3115
  0
LINE
  8
0
 10
-1.91226
 20
17.3115
 11
-1.60747
 21
17.533
  0
LINE
  8
0
 10
-1.60747
 20
17.533
 11
-1.27733
 21
17.7145
  0
LINE
  8
0
 10
-1.27733
 20
17.7145
 11
-0.927048
 21
17.8532
  0
LINE
  8
0
 10
-0.927048
 20
17.8532
 11
-0.562134
 21
17.9469
  0
LINE
  8
0
 10
-0.562134
 20
17.9469
 11
-0.18837
 21
17.9941
  0
LINE
  8
0
 10
-0.18837
 20
17.9941
 11
0.18837
 21
17.9941
  0
LINE
  8
0
 10
0.18837
 20
17.9941
 11
0.562134
 21
17.9469
  0
LINE
  8
0
 10
0.562134
 20
17.9469
 11
0.927048
 21
17.8532
  0
LINE
  8
0
 10
0.927048
 20
17.8532
 11
1.27733
 21
17.7145
  0
LINE
  8
0
 10
1.27733
 20
17.7145
 11
1.60747
 21
17.533
  0
LINE
  8
0
 10
1.60747
 20
17.533
 11
1.91226
 21
17.3115
  0
LINE
  8
0
 10
1.91226
 20
17.3115
 11
2.1869
 21
17.0536
  0
LINE
  8
0
 10
2.1869
 20
17.0536
 11
2.42705
 21
16.7634
  0
LINE
  8
0
 10
2.42705
 20
16.7634
 11
2.62891
 21
16.4453
  0
LINE
  8
0
 10
2.62891
 20
16.4453
 11
2.78932
 21
16.1044
  0
LINE
  8
0
 10
2.78932
 20
16.1044
 11
2.90575
 21
15.7461
  0
LINE
  8
0
 10
2.90575
 20
15.7461
 11
2.97633
 21
15.376
  0
LINE
  8
0
 10
2.97633
 20
15.376
 11
3
 21
15
  0
LINE
  8
0
 10
3
 20
15
 11
2.97633
 21
14.624
  0
LINE
  8
0
 10
2.97633
 20
14.624
 11
2.90575
 21
14.2539
  0
LINE
  8
0
 10
2.90575
 20
14.2539
 11
2.78932
 21
13.8956
  0
LINE
  8
0
 10
2.78932
 20
13.8956
 11
2.62891
 21
13.5547
  0
LINE
  8
0
 10
2.62891
 20
13.5547
 11
2.42705
 21
13.2366
  0
LINE
  8
0
 10
2.42705
 20
13.2366
 11
2.1869
 21
12.9464
  0
LINE
  8
0
 10
2.1869
 20
12.9464
 11
1.91226
 21
12.6884
  0
LINE
  8
0
 10
1.91226
 20
12.6884
 11
1.60747
 21
12.467
  0
LINE
  8
0
 10
1.60747
 20
12.467
 11
1.27733
 21
12.2855
  0
LINE
  8
0
 10
1.27733
 20
12.2855
 11
0.927048
 21
12.1468
  0
LINE
  8
0
 10
0.927048
 20
12.1468
 11
0.562134
 21
12.0531
  0
LINE
  8
0
 10
0.562134
 20
12.0531
 11
0.18837
 21
12.0059
  0
LINE
  8
0
 10
0.18837
 20
12.0059
 11
-0.18837
 21
12.0059
  0
LINE
  8
0
 10
-10.7954
 20
7.61292
 11
-11.1691
 21
7.66013
  0
LINE
  8
0
 10
-11.1691
 20
7.66013
 11
-11.534
 21
7.75383
  0
LINE
  8
0
 10
-11.534
 20
7.75383
 11
-11.8843
 21
7.89252
  0
LINE
  8
0
 10
-11.8843
 20
7.89252
 11
-12.2145
 21
8.07401
  0
LINE
  8
0
 10
-12.2145
 20
8.07401
 11
-12.5193
 21
8.29546
  0
LINE
  8
0
 10
-12.5193
 20
8.29546
 11
-12.7939
 21
8.55334
  0
LINE
  8
0
 10
-12.7939
 20
8.55334
 11
-13.034
 21
8.84364
  0
LINE
  8
0
 10
-13.034
 20
8.84364
 11
-13.2359
 21
9.16173
  0
LINE
  8
0
 10
-13.2359
 20
9.16173
 11
-13.3963
 21
9.50262
  0
LINE
  8
0
 10
-13.3963
 20
9.50262
 11
-13.5127
 21
9.86092
  0
LINE
  8
0
 10
-13.5127
 20
9.86092
 11
-13.5833
 21
10.231
  0
LINE
  8
0
 10
-13.5833
 20
10.231
 11
-13.607
 21
10.607
  0
LINE
  8
0
 10
-13.607
 20
10.607
 11
-13.5833
 21
10.983
  0
LINE
  8
0
 10
-13.5833
 20
10.983
 11
-13.5127
 21
11.3531
  0
LINE
  8
0
 10
-13.5127
 20
11.3531
 11
-13.3963
 21
11.7114
  0
LINE
  8
0
 10
-13.3963
 20
11.7114
 11
-13.2359
 21
12.0522
  0
LINE
  8
0
 10
-13.2359
 20
12.0522
 11
-13.034
 21
12.3703
  0
LINE
  8
0
 10
-13.034
 20
12.3703
 11
-12.7939
 21
12.6606
  0
LINE
  8
0
 10
-12.7939
 20
12.6606
 11
-12.5193
 21
12.9185
  0
LINE
  8
0
 10
-12.5193
 20
12.9185
 11
-12.2145
 21
13.14
  0
LINE
  8
0
 10
-12.2145
 20
13.14
 11
-11.8843
 21
13.3215
  0
LINE
  8
0
 10
-11.8843
 20
13.3215
 11
-11.534
 21
13.4602
  0
LINE
  8
0
 10
-11.534
 20
13.4602
 11
-11.1691
 21
13.5538
  0
LINE
  8
0
 10
-11.1691
 20
13.5538
 11
-10.7954
 21
13.6011
  0
LINE
  8
0
 10
-10.7954
 20
13.6011
 11
-10.4186
 21
13.6011
  0
LINE
  8
0
 10
-10.4186
 20
13.6011
 11
-10.0448
 21
13.5538
  0
LINE
  8
0
 10
-10.0448
 20
13.5538
 11
-9.67995
 21
13.4602
  0
LINE
  8
0
 10
-9.67995
 20
13.4602
 11
-9.32965
 21
13.3215
  0
LINE
  8
0
 10
-9.32965
 20
13.3215
 11
-8.99951
 21
13.14
  0
LINE
  8
0
 10
-8.99951
 20
13.14
 11
-8.69472
 21
12.9185
  0
LINE
  8
0
 10
-8.69472
 20
12.9185
 11
-8.42009
 21
12.6606
  0
LINE
  8
0
 10
-8.42009
 20
12.6606
 11
-8.17995
 21
12.3703
  0
LINE
  8
0
 10
-8.17995
 20
12.3703
 11
-7.97807
 21
12.0522
  0
LINE
  8
0
 10
-7.97807
 20
12.0522
 11
-7.81766
 21
11.7114
  0
LINE
  8
0
 10
-7.81766
 20
11.7114
 11
-7.70125
 21
11.3531
  0
LINE
  8
0
 10
-7.70125
 20
11.3531
 11
-7.63065
 21
10.983
  0
LINE
  8
0
 10
-7.63065
 20
10.983
 11
-7.60699
 21
10.607
  0
LINE
  8
0
 10
-7.60699
 20
10.607
 11
-7.63065
 21
10.231
  0
LINE
  8
0
 10
-7.63065
 20
10.231
 11
-7.70125
 21
9.86092
  0
LINE
  8
0
 10
-7.70125
 20
9.86092
 11
-7.81766
 21
9.50262
  0
LINE
  8
0
 10
-7.81766
 20
9.50262
 11
-7.97807
 21
9.16173
  0
LINE
  8
0
 10
-7.97807
 20
9.16173
 11
-8.17995
 21
8.84364
  0
LINE
  8
0
 10
-8.17995
 20
8.84364
 11
-8.42009
 21
8.55334
  0
LINE
  8
0
 10
-8.42009
 20
8.55334
 11
-8.69472
 21
8.29546
  0
LINE
  8
0
 10
-8.69472
 20
8.29546
 11
-8.99951
 21
8.07401
  0
LINE
  8
0
 10
-8.99951
 20
8.07401
 11
-9.32965
 21
7.89252
  0
LINE
  8
0
 10
-9.32965
 20
7.89252
 11
-9.67995
 21
7.75383
  0
LINE
  8
0
 10
-9.67995
 20
7.75383
 11
-10.0448
 21
7.66013
  0
LINE
  8
0
 10
-10.0448
 20
7.66013
 11
-10.4186
 21
7.61292
  0
LINE
  8
0
 10
-10.4186
 20
7.61292
 11
-10.7954
 21
7.61292
  0
LINE
  8
0
 10
10.4186
 20
7.61292
 11
10.0448
 21
7.66013
  0
LINE
  8
0
 10
10.0448
 20
7.66013
 11
9.67995
 21
7.75383
  0
LINE
  8
0
 10
9.67995
 20
7.75383
 11
9.32965
 21
7.89252
  0
LINE
  8
0
 10
9.32965
 20
7.89252
 11
8.99951
 21
8.07401
  0
LINE
  8
0
 10
8.99951
 20
8.07401
 11
8.69472
 21
8.29546
  0
LINE
  8
0
 10
8.69472
 20
8.29546
 11
8.42009
 21
8.55334
  0
LINE
  8
0
 10
8.42009
 20
8.55334
 11
8.17995
 21
8.84364
  0
LINE
  8
0
 10
8.17995
 20
8.84364
 11
7.97807
 21
9.16173
  0
LINE
  8
0
 10
7.97807
 20
9.16173
 11
7.81766
 21
9.50262
  0
LINE
  8
0
 10
7.81766
 20
9.50262
 11
7.70125
 21
9.86092
  0
LINE
  8
0
 10
7.70125
 20
9.86092
 11
7.63065
 21
10.231
  0
LINE
  8
0
 10
7.63065
 20
10.231
 11
7.60699
 21
10.607
  0
LINE
  8
0
 10
7.60699
 20
10.607
 11
7.63065
 21
10.983
  0
LINE
  8
0
 10
7.63065
 20
10.983
 11
7.70125
 21
11.3531
  0
LINE
  8
0
 10
7.70125
 20
11.3531
 11
7.81766
 21
11.7114
  0
LINE
  8
0
 10
7.81766
 20
11.7114
 11
7.97807
 21
12.0522
  0
LINE
  8
0
 10
7.97807
 20
12.0522
 11
8.17995
 21
12.3703
  0
LINE
  8
0
 10
8.17995
 20
12.3703
 11
8.42009
 21
12.6606
  0
LINE
  8
0
 10
8.42009
 20
12.6606
 11
8.69472
 21
12.9185
  0
LINE
  8
0
 10
8.69472
 20
12.9185
 11
8.99951
 21
13.14
  0
LINE
  8
0
 10
8.99951
 20
13.14
 11
9.32965
 21
13.3215
  0
LINE
  8
0
 10
9.32965
 20
13.3215
 11
9.67995
 21
13.4602
  0
LINE
  8
0
 10
9.67995
 20
13.4602
 11
10.0448
 21
13.5538
  0
LINE
  8
0
 10
10.0448
 20
13.5538
 11
10.4186
 21
13.6011
  0
LINE
  8
0
 10
10.4186
 20
13.6011
 11
10.7954
 21
13.6011
  0
LINE
  8
0
 10
10.7954
 20
13.6011
 11
11.1691
 21
13.5538
  0
LINE
  8
0
 10
11.1691
 20
13.5538
 11
11.534
 21
13.4602
  0
LINE
  8
0
 10
11.534
 20
13.4602
 11
11.8843
 21
13.3215
  0
LINE
  8
0
 10
11.8843
 20
13.3215
 11
12.2145
 21
13.14
  0
LINE
  8
0
 10
12.2145
 20
13.14
 11
12.5193
 21
12.9185
  0
LINE
  8
0
 10
12.5193
 20
12.9185
 11
12.7939
 21
12.6606
  0
LINE
  8
0
 10
12.7939
 20
12.6606
 11
13.034
 21
12.3703
  0
LINE
  8
0
 10
13.034
 20
12.3703
 11
13.2359
 21
12.0522
  0
LINE
  8
0
 10
13.2359
 20
12.0522
 11
13.3963
 21
11.7114
  0
LINE
  8
0
 10
13.3963
 20
11.7114
 11
13.5127
 21
11.3531
  0
LINE
  8
0
 10
13.5127
 20
11.3531
 11
13.5833
 21
10.983
  0
LINE
  8
0
 10
13.5833
 20
10.983
 11
13.607
 21
10.607
  0
LINE
  8
0
 10
13.607
 20
10.607
 11
13.5833
 21
10.231
  0
LINE
  8
0
 10
13.5833
 20
10.231
 11
13.5127
 21
9.86092
  0
LINE
  8
0
 10
13.5127
 20
9.86092
 11
13.3963
 21
9.50262
  0
LINE
  8
0
 10
13.3963
 20
9.50262
 11
13.2359
 21
9.16173
  0
LINE
  8
0
 10
13.2359
 20
9.16173
 11
13.034
 21
8.84364
  0
LINE
  8
0
 10
13.034
 20
8.84364
 11
12.7939
 21
8.55334
  0
LINE
  8
0
 10
12.7939
 20
8.55334
 11
12.5193
 21
8.29546
  0
LINE
  8
0
 10
12.5193
 20
8.29546
 11
12.2145
 21
8.07401
  0
LINE
  8
0
 10
12.2145
 20
8.07401
 11
11.8843
 21
7.89252
  0
LINE
  8
0
 10
11.8843
 20
7.89252
 11
11.534
 21
7.75383
  0
LINE
  8
0
 10
11.534
 20
7.75383
 11
11.1691
 21
7.66013
  0
LINE
  8
0
 10
11.1691
 20
7.66013
 11
10.7954
 21
7.61292
  0
LINE
  8
0
 10
10.7954
 20
7.61292
 11
10.4186
 21
7.61292
  0
LINE
  8
0
 10
-0.0941772
 20
6.00294
 11
-0.281067
 21
6.02657
  0
LINE
  8
0
 10
-0.281067
 20
6.02657
 11
-0.463516
 21
6.07341
  0
LINE
  8
0
 10
-0.463516
 20
6.07341
 11
-0.638657
 21
6.14275
  0
LINE
  8
0
 10
-0.638657
 20
6.14275
 11
-0.803726
 21
6.23351
  0
LINE
  8
0
 10
-0.803726
 20
6.23351
 11
-0.956131
 21
6.34422
  0
LINE
  8
0
 10
-0.956131
 20
6.34422
 11
-1.09344
 21
6.47318
  0
LINE
  8
0
 10
-1.09344
 20
6.47318
 11
-1.21352
 21
6.61832
  0
LINE
  8
0
 10
-1.21352
 20
6.61832
 11
-1.31445
 21
6.77736
  0
LINE
  8
0
 10
-1.31445
 20
6.77736
 11
-1.39465
 21
6.9478
  0
LINE
  8
0
 10
-1.39465
 20
6.9478
 11
-1.45287
 21
7.12695
  0
LINE
  8
0
 10
-1.45287
 20
7.12695
 11
-1.48816
 21
7.312
  0
LINE
  8
0
 10
-1.48816
 20
7.312
 11
-1.5
 21
7.5
  0
LINE
  8
0
 10
-1.5
 20
7.5
 11
-1.48816
 21
7.68799
  0
LINE
  8
0
 10
-1.48816
 20
7.68799
 11
-1.45287
 21
7.87303
  0
LINE
  8
0
 10
-1.45287
 20
7.87303
 11
-1.39465
 21
8.05219
  0
LINE
  8
0
 10
-1.39465
 20
8.05219
 11
-1.31445
 21
8.22263
  0
LINE
  8
0
 10
-1.31445
 20
8.22263
 11
-1.21352
 21
8.38167
  0
LINE
  8
0
 10
-1.21352
 20
8.38167
 11
-1.09344
 21
8.52681
  0
LINE
  8
0
 10
-1.09344
 20
8.52681
 11
-0.956131
 21
8.65576
  0
LINE
  8
0
 10
-0.956131
 20
8.65576
 11
-0.803726
 21
8.76648
  0
LINE
  8
0
 10
-0.803726
 20
8.76648
 11
-0.638657
 21
8.85724
  0
LINE
  8
0
 10
-0.638657
 20
8.85724
 11
-0.463516
 21
8.92657
  0
LINE
  8
0
 10
-0.463516
 20
8.92657
 11
-0.281067
 21
8.97342
  0
LINE
  8
0
 10
-0.281067
 20
8.97342
 11
-0.0941772
 21
8.99704
  0
LINE
  8
0
 10
-0.0941772
 20
8.99704
 11
0.0941772
 21
8.99704
  0
LINE
  8
0
 10
0.0941772
 20
8.99704
 11
0.281067
 21
8.97342
  0
LINE
  8
0
 10
0.281067
 20
8.97342
 11
0.463516
 21
8.92657
  0
LINE
  8
0
 10
0.463516
 20
8.92657
 11
0.638657
 21
8.85724
  0
LINE
  8
0
 10
0.638657
 20
8.85724
 11
0.803726
 21
8.76648
  0
LINE
  8
0
 10
0.803726
 20
8.76648
 11
0.956131
 21
8.65576
  0
LINE
  8
0
 10
0.956131
 20
8.65576
 11
1.09344
 21
8.52681
  0
LINE
  8
0
 10
1.09344
 20
8.52681
 11
1.21352
 21
8.38167
  0
LINE
  8
0
 10
1.21352
 20
8.38167
 11
1.31445
 21
8.22263
  0
LINE
  8
0
 10
1.31445
 20
8.22263
 11
1.39465
 21
8.05219
  0
LINE
  8
0
 10
1.39465
 20
8.05219
 11
1.45287
 21
7.87303
  0
LINE
  8
0
 10
1.45287
 20
7.87303
 11
1.48816
 21
7.68799
  0
LINE
  8
0
 10
1.48816
 20
7.68799
 11
1.5
 21
7.5
  0
LINE
  8
0
 10
1.5
 20
7.5
 11
1.48816
 21
7.312
  0
LINE
  8
0
 10
1.48816
 20
7.312
 11
1.45287
 21
7.12695
  0
LINE
  8
0
 10
1.45287
 20
7.12695
 11
1.39465
 21
6.9478
  0
LINE
  8
0
 10
1.39465
 20
6.9478
 11
1.31445
 21
6.77736
  0
LINE
  8
0
 10
1.31445
 20
6.77736
 11
1.21352
 21
6.61832
  0
LINE
  8
0
 10
1.21352
 20
6.61832
 11
1.09344
 21
6.47318
  0
LINE
  8
0
 10
1.09344
 20
6.47318
 11
0.956131
 21
6.34422
  0
LINE
  8
0
 10
0.956131
 20
6.34422
 11
0.803726
 21
6.23351
  0
LINE
  8
0
 10
0.803726
 20
6.23351
 11
0.638657
 21
6.14275
  0
LINE
  8
0
 10
0.638657
 20
6.14275
 11
0.463516
 21
6.07341
  0
LINE
  8
0
 10
0.463516
 20
6.07341
 11
0.281067
 21
6.02657
  0
LINE
  8
0
 10
0.281067
 20
6.02657
 11
0.0941772
 21
6.00294
  0
LINE
  8
0
 10
0.0941772
 20
6.00294
 11
-0.0941772
 21
6.00294
  0
LINE
  8
0
 10
14.8116
 20
-2.99408
 11
14.4379
 21
-2.94685
  0
LINE
  8
0
 10
14.4379
 20
-2.94685
 11
14.0729
 21
-2.85316
  0
LINE
  8
0
 10
14.0729
 20
-2.85316
 11
13.7227
 21
-2.71448
  0
LINE
  8
0
 10
13.7227
 20
-2.71448
 11
13.3925
 21
-2.53297
  0
LINE
  8
0
 10
13.3925
 20
-2.53297
 11
13.0877
 21
-2.31154
  0
LINE
  8
0
 10
13.0877
 20
-2.31154
 11
12.8131
 21
-2.05363
  0
LINE
  8
0
 10
12.8131
 20
-2.05363
 11
12.5729
 21
-1.76335
  0
LINE
  8
0
 10
12.5729
 20
-1.76335
 11
12.3711
 21
-1.44525
  0
LINE
  8
0
 10
12.3711
 20
-1.44525
 11
12.2107
 21
-1.10437
  0
LINE
  8
0
 10
12.2107
 20
-1.10437
 11
12.0942
 21
-0.746063
  0
LINE
  8
0
 10
12.0942
 20
-0.746063
 11
12.0237
 21
-0.375992
  0
LINE
  8
0
 10
12.0237
 20
-0.375992
 11
12
 21
0
  0
LINE
  8
0
 10
12
 20
0
 11
12.0237
 21
0.375992
  0
LINE
  8
0
 10
12.0237
 20
0.375992
 11
12.0942
 21
0.746063
  0
LINE
  8
0
 10
12.0942
 20
0.746063
 11
12.2107
 21
1.10437
  0
LINE
  8
0
 10
12.2107
 20
1.10437
 11
12.3711
 21
1.44525
  0
LINE
  8
0
 10
12.3711
 20
1.44525
 11
12.5729
 21
1.76335
  0
LINE
  8
0
 10
12.5729
 20
1.76335
 11
12.8131
 21
2.05363
  0
LINE
  8
0
 10
12.8131
 20
2.05363
 11
13.0877
 21
2.31154
  0
LINE
  8
0
 10
13.0877
 20
2.31154
 11
13.3925
 21
2.53297
  0
LINE
  8
0
 10
13.3925
 20
2.53297
 11
13.7227
 21
2.71448
  0
LINE
  8
0
 10
13.7227
 20
2.71448
 11
14.0729
 21
2.85316
  0
LINE
  8
0
 10
14.0729
 20
2.85316
 11
14.4379
 21
2.94685
  0
LINE
  8
0
 10
14.4379
 20
2.94685
 11
14.8116
 21
2.99408
  0
LINE
  8
0
 10
14.8116
 20
2.99408
 11
15.1884
 21
2.99408
  0
LINE
  8
0
 10
15.1884
 20
2.99408
 11
15.5621
 21
2.94685
  0
LINE
  8
0
 10
15.5621
 20
2.94685
 11
15.927
 21
2.85316
  0
LINE
  8
0
 10
15.927
 20
2.85316
 11
16.2773
 21
2.71448
  0
LINE
  8
0
 10
16.2773
 20
2.71448
 11
16.6075
 21
2.53297
  0
LINE
  8
0
 10
16.6075
 20
2.53297
 11
16.9123
 21
2.31154
  0
LINE
  8
0
 10
16.9123
 20
2.31154
 11
17.1869
 21
2.05363
  0
LINE
  8
0
 10
17.1869
 20
2.05363
 11
17.427
 21
1.76335
  0
LINE
  8
0
 10
17.427
 20
1.76335
 11
17.6289
 21
1.44525
  0
LINE
  8
0
 10
17.6289
 20
1.44525
 11
17.7893
 21
1.10437
  0
LINE
  8
0
 10
17.7893
 20
1.10437
 11
17.9057
 21
0.746063
  0
LINE
  8
0
 10
17.9057
 20
0.746063
 11
17.9763
 21
0.375992
  0
LINE
  8
0
 10
17.9763
 20
0.375992
 11
18
 21
0
  0
LINE
  8
0
 10
18
 20
0
 11
17.9763
 21
-0.375992
  0
LINE
  8
0
 10
17.9763
 20
-0.375992
 11
17.9057
 21
-0.746063
  0
LINE
  8
0
 10
17.9057
 20
-0.746063
 11
17.7893
 21
-1.10437
  0
LINE
  8
0
 10
17.7893
 20
-1.10437
 11
17.6289
 21
-1.44525
  0
LINE
  8
0
 10
17.6289
 20
-1.44525
 11
17.427
 21
-1.76335
  0
LINE
  8
0
 10
17.427
 20
-1.76335
 11
17.1869
 21
-2.05363
  0
LINE
  8
0
 10
17.1869
 20
-2.05363
 11
16.9123
 21
-2.31154
  0
LINE
  8
0
 10
16.9123
 20
-2.31154
 11
16.6075
 21
-2.53297
  0
LINE
  8
0
 10
16.6075
 20
-2.53297
 11
16.2773
 21
-2.71448
  0
LINE
  8
0
 10
16.2773
 20
-2.71448
 11
15.927
 21
-2.85316
  0
LINE
  8
0
 10
15.927
 20
-2.85316
 11
15.5621
 21
-2.94685
  0
LINE
  8
0
 10
15.5621
 20
-2.94685
 11
15.1884
 21
-2.99408
  0
LINE
  8
0
 10
15.1884
 20
-2.99408
 11
14.8116
 21
-2.99408
  0
LINE
  8
0
 10
-15.1884
 20
-2.99408
 11
-15.5621
 21
-2.94685
  0
LINE
  8
0
 10
-15.5621
 20
-2.94685
 11
-15.927
 21
-2.85316
  0
LINE
  8
0
 10
-15.927
 20
-2.85316
 11
-16.2773
 21
-2.71448
  0
LINE
  8
0
 10
-16.2773
 20
-2.71448
 11
-16.6075
 21
-2.53297
  0
LINE
  8
0
 10
-16.6075
 20
-2.53297
 11
-16.9123
 21
-2.31154
  0
LINE
  8
0
 10
-16.9123
 20
-2.31154
 11
-17.1869
 21
-2.05363
  0
LINE
  8
0
 10
-17.1869
 20
-2.05363
 11
-17.427
 21
-1.76335
  0
LINE
  8
0
 10
-17.427
 20
-1.76335
 11
-17.6289
 21
-1.44525
  0
LINE
  8
0
 10
-17.6289
 20
-1.44525
 11
-17.7893
 21
-1.10437
  0
LINE
  8
0
 10
-17.7893
 20
-1.10437
 11
-17.9057
 21
-0.746063
  0
LINE
  8
0
 10
-17.9057
 20
-0.746063
 11
-17.9763
 21
-0.375992
  0
LINE
  8
0
 10
-17.9763
 20
-0.375992
 11
-18
 21
0
  0
LINE
  8
0
 10
-18
 20
0
 11
-17.9763
 21
0.375992
  0
LINE
  8
0
 10
-17.9763
 20
0.375992
 11
-17.9057
 21
0.746063
  0
LINE
  8
0
 10
-17.9057
 20
0.746063
 11
-17.7893
 21
1.10437
  0
LINE
  8
0
 10
-17.7893
 20
1.10437
 11
-17.6289
 21
1.44525
  0
LINE
  8
0
 10
-17.6289
 20
1.44525
 11
-17.427
 21
1.76335
  0
LINE
  8
0
 10
-17.427
 20
1.76335
 11
-17.1869
 21
2.05363
  0
LINE
  8
0
 10
-17.1869
 20
2.05363
 11
-16.9123
 21
2.31154
  0
LINE
  8
0
 10
-16.9123
 20
2.31154
 11
-16.6075
 21
2.53297
  0
LINE
  8
0
 10
-16.6075
 20
2.53297
 11
-16.2773
 21
2.71448
  0
LINE
  8
0
 10
-16.2773
 20
2.71448
 11
-15.927
 21
2.85316
  0
LINE
  8
0
 10
-15.927
 20
2.85316
 11
-15.5621
 21
2.94685
  0
LINE
  8
0
 10
-15.5621
 20
2.94685
 11
-15.1884
 21
2.99408
  0
LINE
  8
0
 10
-15.1884
 20
2.99408
 11
-14.8116
 21
2.99408
  0
LINE
  8
0
 10
-14.8116
 20
2.99408
 11
-14.4379
 21
2.94685
  0
LINE
  8
0
 10
-14.4379
 20
2.94685
 11
-14.0729
 21
2.85316
  0
LINE
  8
0
 10
-14.0729
 20
2.85316
 11
-13.7227
 21
2.71448
  0
LINE
  8
0
 10
-13.7227
 20
2.71448
 11
-13.3925
 21
2.53297
  0
LINE
  8
0
 10
-13.3925
 20
2.53297
 11
-13.0877
 21
2.31154
  0
LINE
  8
0
 10
-13.0877
 20
2.31154
 11
-12.8131
 21
2.05363
  0
LINE
  8
0
 10
-12.8131
 20
2.05363
 11
-12.5729
 21
1.76335
  0
LINE
  8
0
 10
-12.5729
 20
1.76335
 11
-12.3711
 21
1.44525
  0
LINE
  8
0
 10
-12.3711
 20
1.44525
 11
-12.2107
 21
1.10437
  0
LINE
  8
0
 10
-12.2107
 20
1.10437
 11
-12.0942
 21
0.746063
  0
LINE
  8
0
 10
-12.0942
 20
0.746063
 11
-12.0237
 21
0.375992
  0
LINE
  8
0
 10
-12.0237
 20
0.375992
 11
-12
 21
0
  0
LINE
  8
0
 10
-12
 20
0
 11
-12.0237
 21
-0.375992
  0
LINE
  8
0
 10
-12.0237
 20
-0.375992
 11
-12.0942
 21
-0.746063
  0
LINE
  8
0
 10
-12.0942
 20
-0.746063
 11
-12.2107
 21
-1.10437
  0
LINE
  8
0
 10
-12.2107
 20
-1.10437
 11
-12.3711
 21
-1.44525
  0
LINE
  8
0
 10
-12.3711
 20
-1.44525
 11
-12.5729
 21
-1.76335
  0
LINE
  8
0
 10
-12.5729
 20
-1.76335
 11
-12.8131
 21
-2.05363
  0
LINE
  8
0
 10
-12.8131
 20
-2.05363
 11
-13.0877
 21
-2.31154
  0
LINE
  8
0
 10
-13.0877
 20
-2.31154
 11
-13.3925
 21
-2.53297
  0
LINE
  8
0
 10
-13.3925
 20
-2.53297
 11
-13.7227
 21
-2.71448
  0
LINE
  8
0
 10
-13.7227
 20
-2.71448
 11
-14.0729
 21
-2.85316
  0
LINE
  8
0
 10
-14.0729
 20
-2.85316
 11
-14.4379
 21
-2.94685
  0
LINE
  8
0
 10
-14.4379
 20
-2.94685
 11
-14.8116
 21
-2.99408
  0
LINE
  8
0
 10
-14.8116
 20
-2.99408
 11
-15.1884
 21
-2.99408
  0
LINE
  8
0
 10
-0.182083
 20
-2.89427
 11
-0.543396
 21
-2.84863
  0
LINE
  8
0
 10
-0.543396
 20
-2.84863
 11
-0.896149
 21
-2.75806
  0
LINE
  8
0
 10
-0.896149
 20
-2.75806
 11
-1.23476
 21
-2.62399
  0
LINE
  8
0
 10
-1.23476
 20
-2.62399
 11
-1.55389
 21
-2.44855
  0
LINE
  8
0
 10
-1.55389
 20
-2.44855
 11
-1.84853
 21
-2.23448
  0
LINE
  8
0
 10
-1.84853
 20
-2.23448
 11
-2.114
 21
-1.98518
  0
LINE
  8
0
 10
-2.114
 20
-1.98518
 11
-2.34615
 21
-1.70457
  0
LINE
  8
0
 10
-2.34615
 20
-1.70457
 11
-2.54128
 21
-1.39708
  0
LINE
  8
0
 10
-2.54128
 20
-1.39708
 11
-2.69635
 21
-1.06755
  0
LINE
  8
0
 10
-2.69635
 20
-1.06755
 11
-2.80888
 21
-0.721191
  0
LINE
  8
0
 10
-2.80888
 20
-0.721191
 11
-2.87712
 21
-0.363464
  0
LINE
  8
0
 10
-2.87712
 20
-0.363464
 11
-2.89999
 21
0
  0
LINE
  8
0
 10
-2.89999
 20
0
 11
-2.87712
 21
0.363464
  0
LINE
  8
0
 10
-2.87712
 20
0.363464
 11
-2.80888
 21
0.721191
  0
LINE
  8
0
 10
-2.80888
 20
0.721191
 11
-2.69635
 21
1.06755
  0
LINE
  8
0
 10
-2.69635
 20
1.06755
 11
-2.54128
 21
1.39708
  0
LINE
  8
0
 10
-2.54128
 20
1.39708
 11
-2.34615
 21
1.70457
  0
LINE
  8
0
 10
-2.34615
 20
1.70457
 11
-2.114
 21
1.98518
  0
LINE
  8
0
 10
-2.114
 20
1.98518
 11
-1.84853
 21
2.23448
  0
LINE
  8
0
 10
-1.84853
 20
2.23448
 11
-1.55389
 21
2.44855
  0
LINE
  8
0
 10
-1.55389
 20
2.44855
 11
-1.23476
 21
2.62399
  0
LINE
  8
0
 10
-1.23476
 20
2.62399
 11
-0.896149
 21
2.75806
  0
LINE
  8
0
 10
-0.896149
 20
2.75806
 11
-0.543396
 21
2.84863
  0
LINE
  8
0
 10
-0.543396
 20
2.84863
 11
-0.182083
 21
2.89427
  0
LINE
  8
0
 10
-0.182083
 20
2.89427
 11
0.182083
 21
2.89427
  0
LINE
  8
0
 10
0.182083
 20
2.89427
 11
0.543396
 21
2.84863
  0
LINE
  8
0
 10
0.543396
 20
2.84863
 11
0.896149
 21
2.75806
  0
LINE
  8
0
 10
0.896149
 20
2.75806
 11
1.23476
 21
2.62399
  0
LINE
  8
0
 10
1.23476
 20
2.62399
 11
1.55389
 21
2.44855
  0
LINE
  8
0
 10
1.55389
 20
2.44855
 11
1.84853
 21
2.23448
  0
LINE
  8
0
 10
1.84853
 20
2.23448
 11
2.114
 21
1.98518
  0
LINE
  8
0
 10
2.114
 20
1.98518
 11
2.34615
 21
1.70457
  0
LINE
  8
0
 10
2.34615
 20
1.70457
 11
2.54128
 21
1.39708
  0
LINE
  8
0
 10
2.54128
 20
1.39708
 11
2.69635
 21
1.06755
  0
LINE
  8
0
 10
2.69635
 20
1.06755
 11
2.80888
 21
0.721191
  0
LINE
  8
0
 10
2.80888
 20
0.721191
 11
2.87712
 21
0.363464
  0
LINE
  8
0
 10
2.87712
 20
0.363464
 11
2.89999
 21
0
  0
LINE
  8
0
 10
2.89999
 20
0
 11
2.87712
 21
-0.363464
  0
LINE
  8
0
 10
2.87712
 20
-0.363464
 11
2.80888
 21
-0.721191
  0
LINE
  8
0
 10
2.80888
 20
-0.721191
 11
2.69635
 21
-1.06755
  0
LINE
  8
0
 10
2.69635
 20
-1.06755
 11
2.54128
 21
-1.39708
  0
LINE
  8
0
 10
2.54128
 20
-1.39708
 11
2.34615
 21
-1.70457
  0
LINE
  8
0
 10
2.34615
 20
-1.70457
 11
2.114
 21
-1.98518
  0
LINE
  8
0
 10
2.114
 20
-1.98518
 11
1.84853
 21
-2.23448
  0
LINE
  8
0
 10
1.84853
 20
-2.23448
 11
1.55389
 21
-2.44855
  0
LINE
  8
0
 10
1.55389
 20
-2.44855
 11
1.23476
 21
-2.62399
  0
LINE
  8
0
 10
1.23476
 20
-2.62399
 11
0.896149
 21
-2.75806
  0
LINE
  8
0
 10
0.896149
 20
-2.75806
 11
0.543396
 21
-2.84863
  0
LINE
  8
0
 10
0.543396
 20
-2.84863
 11
0.182083
 21
-2.89427
  0
LINE
  8
0
 10
0.182083
 20
-2.89427
 11
-0.182083
 21
-2.89427
  0
LINE
  8
0
 10
7.40581
 20
-1.49704
 11
7.21892
 21
-1.47342
  0
LINE
  8
0
 10
7.21892
 20
-1.47342
 11
7.03647
 21
-1.42657
  0
LINE
  8
0
 10
7.03647
 20
-1.42657
 11
6.86133
 21
-1.35724
  0
LINE
  8
0
 10
6.86133
 20
-1.35724
 11
6.69626
 21
-1.26648
  0
LINE
  8
0
 10
6.69626
 20
-1.26648
 11
6.54385
 21
-1.15576
  0
LINE
  8
0
 10
6.54385
 20
-1.15576
 11
6.40654
 21
-1.02681
  0
LINE
  8
0
 10
6.40654
 20
-1.02681
 11
6.28647
 21
-0.881668
  0
LINE
  8
0
 10
6.28647
 20
-0.881668
 11
6.18553
 21
-0.722626
  0
LINE
  8
0
 10
6.18553
 20
-0.722626
 11
6.10533
 21
-0.552185
  0
LINE
  8
0
 10
6.10533
 20
-0.552185
 11
6.04712
 21
-0.373032
  0
LINE
  8
0
 10
6.04712
 20
-0.373032
 11
6.01183
 21
-0.187988
  0
LINE
  8
0
 10
6.01183
 20
-0.187988
 11
6
 21
0
  0
LINE
  8
0
 10
6
 20
0
 11
6.01183
 21
0.187988
  0
LINE
  8
0
 10
6.01183
 20
0.187988
 11
6.04712
 21
0.373032
  0
LINE
  8
0
 10
6.04712
 20
0.373032
 11
6.10533
 21
0.552185
  0
LINE
  8
0
 10
6.10533
 20
0.552185
 11
6.18553
 21
0.722626
  0
LINE
  8
0
 10
6.18553
 20
0.722626
 11
6.28647
 21
0.881668
  0
LINE
  8
0
 10
6.28647
 20
0.881668
 11
6.40654
 21
1.02681
  0
LINE
  8
0
 10
6.40654
 20
1.02681
 11
6.54385
 21
1.15576
  0
LINE
  8
0
 10
6.54385
 20
1.15576
 11
6.69626
 21
1.26648
  0
LINE
  8
0
 10
6.69626
 20
1.26648
 11
6.86133
 21
1.35724
  0
LINE
  8
0
 10
6.86133
 20
1.35724
 11
7.03647
 21
1.42657
  0
LINE
  8
0
 10
7.03647
 20
1.42657
 11
7.21892
 21
1.47342
  0
LINE
  8
0
 10
7.21892
 20
1.47342
 11
7.40581
 21
1.49704
  0
LINE
  8
0
 10
7.40581
 20
1.49704
 11
8.09418
 21
1.49704
  0
LINE
  8
0
 10
8.09418
 20
1.49704
 11
8.28107
 21
1.47342
  0
LINE
  8
0
 10
8.28107
 20
1.47342
 11
8.46352
 21
1.42657
  0
LINE
  8
0
 10
8.46352
 20
1.42657
 11
8.63866
 21
1.35724
  0
LINE
  8
0
 10
8.63866
 20
1.35724
 11
8.80373
 21
1.26648
  0
LINE
  8
0
 10
8.80373
 20
1.26648
 11
8.95613
 21
1.15576
  0
LINE
  8
0
 10
8.95613
 20
1.15576
 11
9.09344
 21
1.02681
  0
LINE
  8
0
 10
9.09344
 20
1.02681
 11
9.21352
 21
0.881668
  0
LINE
  8
0
 10
9.21352
 20
0.881668
 11
9.31445
 21
0.722626
  0
LINE
  8
0
 10
9.31445
 20
0.722626
 11
9.39465
 21
0.552185
  0
LINE
  8
0
 10
9.39465
 20
0.552185
 11
9.45287
 21
0.373032
  0
LINE
  8
0
 10
9.45287
 20
0.373032
 11
9.48816
 21
0.187988
  0
LINE
  8
0
 10
9.48816
 20
0.187988
 11
9.5
 21
0
  0
LINE
  8
0
 10
9.5
 20
0
 11
9.48816
 21
-0.187988
  0
LINE
  8
0
 10
9.48816
 20
-0.187988
 11
9.45287
 21
-0.373032
  0
LINE
  8
0
 10
9.45287
 20
-0.373032
 11
9.39465
 21
-0.552185
  0
LINE
  8
0
 10
9.39465
 20
-0.552185
 11
9.31445
 21
-0.722626
  0
LINE
  8
0
 10
9.31445
 20
-0.722626
 11
9.21352
 21
-0.881668
  0
LINE
  8
0
 10
9.21352
 20
-0.881668
 11
9.09344
 21
-1.02681
  0
LINE
  8
0
 10
9.09344
 20
-1.02681
 11
8.95613
 21
-1.15576
  0
LINE
  8
0
 10
8.95613
 20
-1.15576
 11
8.80373
 21
-1.26648
  0
LINE
  8
0
 10
8.80373
 20
-1.26648
 11
8.63866
 21
-1.35724
  0
LINE
  8
0
 10
8.63866
 20
-1.35724
 11
8.46352
 21
-1.42657
  0
LINE
  8
0
 10
8.46352
 20
-1.42657
 11
8.28107
 21
-1.47342
  0
LINE
  8
0
 10
8.28107
 20
-1.47342
 11
8.09418
 21
-1.49704
  0
LINE
  8
0
 10
8.09418
 20
-1.49704
 11
7.40581
 21
-1.49704
  0
LINE
  8
0
 10
-8.09418
 20
-1.49704
 11
-8.28107
 21
-1.47342
  0
LINE
  8
0
 10
-8.28107
 20
-1.47342
 11
-8.46352
 21
-1.42657
  0
LINE
  8
0
 10
-8.46352
 20
-1.42657
 11
-8.63866
 21
-1.35724
  0
LINE
  8
0
 10
-8.63866
 20
-1.35724
 11
-8.80373
 21
-1.26648
  0
LINE
  8
0
 10
-8.80373
 20
-1.26648
 11
-8.95613
 21
-1.15576
  0
LINE
  8
0
 10
-8.95613
 20
-1.15576
 11
-9.09344
 21
-1.02681
  0
LINE
  8
0
 10
-9.09344
 20
-1.02681
 11
-9.21352
 21
-0.881668
  0
LINE
  8
0
 10
-9.21352
 20
-0.881668
 11
-9.31445
 21
-0.722626
  0
LINE
  8
0
 10
-9.31445
 20
-0.722626
 11
-9.39465
 21
-0.552185
  0
LINE
  8
0
 10
-9.39465
 20
-0.552185
 11
-9.45287
 21
-0.373032
  0
LINE
  8
0
 10
-9.45287
 20
-0.373032
 11
-9.48816
 21
-0.187988
  0
LINE
  8
0
 10
-9.48816
 20
-0.187988
 11
-9.5
 21
0
  0
LINE
  8
0
 10
-9.5
 20
0
 11
-9.48816
 21
0.187988
  0
LINE
  8
0
 10
-9.48816
 20
0.187988
 11
-9.45287
 21
0.373032
  0
LINE
  8
0
 10
-9.45287
 20
0.373032
 11
-9.39465
 21
0.552185
  0
LINE
  8
0
 10
-9.39465
 20
0.552185
 11
-9.31445
 21
0.722626
  0
LINE
  8
0
 10
-9.31445
 20
0.722626
 11
-9.21352
 21
0.881668
  0
LINE
  8
0
 10
-9.21352
 20
0.881668
 11
-9.09344
 21
1.02681
  0
LINE
  8
0
 10
-9.09344
 20
1.02681
 11
-8.95613
 21
1.15576
  0
LINE
  8
0
 10
-8.95613
 20
1.15576
 11
-8.80373
 21
1.26648
  0
LINE
  8
0
 10
-8.80373
 20
1.26648
 11
-8.63866
 21
1.35724
  0
LINE
  8
0
 10
-8.63866
 20
1.35724
 11
-8.46352
 21
1.42657
  0
LINE
  8
0
 10
-8.46352
 20
1.42657
 11
-8.28107
 21
1.47342
  0
LINE
  8
0
 10
-8.28107
 20
1.47342
 11
-8.09418
 21
1.49704
  0
LINE
  8
0
 10
-8.09418
 20
1.49704
 11
-7.40581
 21
1.49704
  0
LINE
  8
0
 10
-7.40581
 20
1.49704
 11
-7.21892
 21
1.47342
  0
LINE
  8
0
 10
-7.21892
 20
1.47342
 11
-7.03647
 21
1.42657
  0
LINE
  8
0
 10
-7.03647
 20
1.42657
 11
-6.86133
 21
1.35724
  0
LINE
  8
0
 10
-6.86133
 20
1.35724
 11
-6.69626
 21
1.26648
  0
LINE
  8
0
 10
-6.69626
 20
1.26648
 11
-6.54385
 21
1.15576
  0
LINE
  8
0
 10
-6.54385
 20
1.15576
 11
-6.40654
 21
1.02681
  0
LINE
  8
0
 10
-6.40654
 20
1.02681
 11
-6.28647
 21
0.881668
  0
LINE
  8
0
 10
-6.28647
 20
0.881668
 11
-6.18553
 21
0.722626
  0
LINE
  8
0
 10
-6.18553
 20
0.722626
 11
-6.10533
 21
0.552185
  0
LINE
  8
0
 10
-6.10533
 20
0.552185
 11
-6.04712
 21
0.373032
  0
LINE
  8
0
 10
-6.04712
 20
0.373032
 11
-6.01183
 21
0.187988
  0
LINE
  8
0
 10
-6.01183
 20
0.187988
 11
-6
 21
0
  0
LINE
  8
0
 10
-6
 20
0
 11
-6.01183
 21
-0.187988
  0
LINE
  8
0
 10
-6.01183
 20
-0.187988
 11
-6.04712
 21
-0.373032
  0
LINE
  8
0
 10
-6.04712
 20
-0.373032
 11
-6.10533
 21
-0.552185
  0
LINE
  8
0
 10
-6.10533
 20
-0.552185
 11
-6.18553
 21
-0.722626
  0
LINE
  8
0
 10
-6.18553
 20
-0.722626
 11
-6.28647
 21
-0.881668
  0
LINE
  8
0
 10
-6.28647
 20
-0.881668
 11
-6.40654
 21
-1.02681
  0
LINE
  8
0
 10
-6.40654
 20
-1.02681
 11
-6.54385
 21
-1.15576
  0
LINE
  8
0
 10
-6.54385
 20
-1.15576
 11
-6.69626
 21
-1.26648
  0
LINE
  8
0
 10
-6.69626
 20
-1.26648
 11
-6.86133
 21
-1.35724
  0
LINE
  8
0
 10
-6.86133
 20
-1.35724
 11
-7.03647
 21
-1.42657
  0
LINE
  8
0
 10
-7.03647
 20
-1.42657
 11
-7.21892
 21
-1.47342
  0
LINE
  8
0
 10
-7.21892
 20
-1.47342
 11
-7.40581
 21
-1.49704
  0
LINE
  8
0
 10
-7.40581
 20
-1.49704
 11
-8.09418
 21
-1.49704
  0
LINE
  8
0
 10
-0.0941772
 20
-8.99704
 11
-0.281067
 21
-8.97342
  0
LINE
  8
0
 10
-0.281067
 20
-8.97342
 11
-0.463516
 21
-8.92657
  0
LINE
  8
0
 10
-0.463516
 20
-8.92657
 11
-0.638657
 21
-8.85724
  0
LINE
  8
0
 10
-0.638657
 20
-8.85724
 11
-0.803726
 21
-8.76648
  0
LINE
  8
0
 10
-0.803726
 20
-8.76648
 11
-0.956131
 21
-8.65576
  0
LINE
  8
0
 10
-0.956131
 20
-8.65576
 11
-1.09344
 21
-8.52681
  0
LINE
  8
0
 10
-1.09344
 20
-8.52681
 11
-1.21352
 21
-8.38167
  0
LINE
  8
0
 10
-1.21352
 20
-8.38167
 11
-1.31445
 21
-8.22263
  0
LINE
  8
0
 10
-1.31445
 20
-8.22263
 11
-1.39465
 21
-8.05219
  0
LINE
  8
0
 10
-1.39465
 20
-8.05219
 11
-1.45287
 21
-7.87303
  0
LINE
  8
0
 10
-1.45287
 20
-7.87303
 11
-1.48816
 21
-7.68799
  0
LINE
  8
0
 10
-1.48816
 20
-7.68799
 11
-1.5
 21
-7.5
  0
LINE
  8
0
 10
-1.5
 20
-7.5
 11
-1.48816
 21
-7.312
  0
LINE
  8
0
 10
-1.48816
 20
-7.312
 11
-1.45287
 21
-7.12695
  0
LINE
  8
0
 10
-1.45287
 20
-7.12695
 11
-1.39465
 21
-6.9478
  0
LINE
  8
0
 10
-1.39465
 20
-6.9478
 11
-1.31445
 21
-6.77736
  0
LINE
  8
0
 10
-1.31445
 20
-6.77736
 11
-1.21352
 21
-6.61832
  0
LINE
  8
0
 10
-1.21352
 20
-6.61832
 11
-1.09344
 21
-6.47318
  0
LINE
  8
0
 10
-1.09344
 20
-6.47318
 11
-0.956131
 21
-6.34422
  0
LINE
  8
0
 10
-0.956131
 20
-6.34422
 11
-0.803726
 21
-6.23351
  0
LINE
  8
0
 10
-0.803726
 20
-6.23351
 11
-0.638657
 21
-6.14275
  0
LINE
  8
0
 10
-0.638657
 20
-6.14275
 11
-0.463516
 21
-6.07341
  0
LINE
  8
0
 10
-0.463516
 20
-6.07341
 11
-0.281067
 21
-6.02657
  0
LINE
  8
0
 10
-0.281067
 20
-6.02657
 11
-0.0941772
 21
-6.00294
  0
LINE
  8
0
 10
-0.0941772
 20
-6.00294
 11
0.0941772
 21
-6.00294
  0
LINE
  8
0
 10
0.0941772
 20
-6.00294
 11
0.281067
 21
-6.02657
  0
LINE
  8
0
 10
0.281067
 20
-6.02657
 11
0.463516
 21
-6.07341
  0
LINE
  8
0
 10
0.463516
 20
-6.07341
 11
0.638657
 21
-6.14275
  0
LINE
  8
0
 10
0.638657
 20
-6.14275
 11
0.803726
 21
-6.23351
  0
LINE
  8
0
 10
0.803726
 20
-6.23351
 11
0.956131
 21
-6.34422
  0
LINE
  8
0
 10
0.956131
 20
-6.34422
 11
1.09344
 21
-6.47318
  0
LINE
  8
0
 10
1.09344
 20
-6.47318
 11
1.21352
 21
-6.61832
  0
LINE
  8
0
 10
1.21352
 20
-6.61832
 11
1.31445
 21
-6.77736
  0
LINE
  8
0
 10
1.31445
 20
-6.77736
 11
1.39465
 21
-6.9478
  0
LINE
  8
0
 10
1.39465
 20
-6.9478
 11
1.45287
 21
-7.12695
  0
LINE
  8
0
 10
1.45287
 20
-7.12695
 11
1.48816
 21
-7.312
  0
LINE
  8
0
 10
1.48816
 20
-7.312
 11
1.5
 21
-7.5
  0
LINE
  8
0
 10
1.5
 20
-7.5
 11
1.48816
 21
-7.68799
  0
LINE
  8
0
 10
1.48816
 20
-7.68799
 11
1.45287
 21
-7.87303
  0
LINE
  8
0
 10
1.45287
 20
-7.87303
 11
1.39465
 21
-8.05219
  0
LINE
  8
0
 10
1.39465
 20
-8.05219
 11
1.31445
 21
-8.22263
  0
LINE
  8
0
 10
1.31445
 20
-8.22263
 11
1.21352
 21
-8.38167
  0
LINE
  8
0
 10
1.21352
 20
-8.38167
 11
1.09344
 21
-8.52681
  0
LINE
  8
0
 10
1.09344
 20
-8.52681
 11
0.956131
 21
-8.65576
  0
LINE
  8
0
 10
0.956131
 20
-8.65576
 11
0.803726
 21
-8.76648
  0
LINE
  8
0
 10
0.803726
 20
-8.76648
 11
0.638657
 21
-8.85724
  0
LINE
  8
0
 10
0.638657
 20
-8.85724
 11
0.463516
 21
-8.92657
  0
LINE
  8
0
 10
0.463516
 20
-8.92657
 11
0.281067
 21
-8.97342
  0
LINE
  8
0
 10
0.281067
 20
-8.97342
 11
0.0941772
 21
-8.99704
  0
LINE
  8
0
 10
0.0941772
 20
-8.99704
 11
-0.0941772
 21
-8.99704
  0
LINE
  8
0
 10
10.4186
 20
-13.6011
 11
10.0448
 21
-13.5538
  0
LINE
  8
0
 10
10.0448
 20
-13.5538
 11
9.67995
 21
-13.4602
  0
LINE
  8
0
 10
9.67995
 20
-13.4602
 11
9.32965
 21
-13.3215
  0
LINE
  8
0
 10
9.32965
 20
-13.3215
 11
8.99951
 21
-13.14
  0
LINE
  8
0
 10
8.99951
 20
-13.14
 11
8.69472
 21
-12.9185
  0
LINE
  8
0
 10
8.69472
 20
-12.9185
 11
8.42009
 21
-12.6606
  0
LINE
  8
0
 10
8.42009
 20
-12.6606
 11
8.17995
 21
-12.3703
  0
LINE
  8
0
 10
8.17995
 20
-12.3703
 11
7.97807
 21
-12.0522
  0
LINE
  8
0
 10
7.97807
 20
-12.0522
 11
7.81766
 21
-11.7114
  0
LINE
  8
0
 10
7.81766
 20
-11.7114
 11
7.70125
 21
-11.3531
  0
LINE
  8
0
 10
7.70125
 20
-11.3531
 11
7.63065
 21
-10.983
  0
LINE
  8
0
 10
7.63065
 20
-10.983
 11
7.60699
 21
-10.607
  0
LINE
  8
0
 10
7.60699
 20
-10.607
 11
7.63065
 21
-10.231
  0
LINE
  8
0
 10
7.63065
 20
-10.231
 11
7.70125
 21
-9.86092
  0
LINE
  8
0
 10
7.70125
 20
-9.86092
 11
7.81766
 21
-9.50262
  0
LINE
  8
0
 10
7.81766
 20
-9.50262
 11
7.97807
 21
-9.16173
  0
LINE
  8
0
 10
7.97807
 20
-9.16173
 11
8.17995
 21
-8.84364
  0
LINE
  8
0
 10
8.17995
 20
-8.84364
 11
8.42009
 21
-8.55334
  0
LINE
  8
0
 10
8.42009
 20
-8.55334
 11
8.69472
 21
-8.29546
  0
LINE
  8
0
 10
8.69472
 20
-8.29546
 11
8.99951
 21
-8.07401
  0
LINE
  8
0
 10
8.99951
 20
-8.07401
 11
9.32965
 21
-7.89252
  0
LINE
  8
0
 10
9.32965
 20
-7.89252
 11
9.67995
 21
-7.75383
  0
LINE
  8
0
 10
9.67995
 20
-7.75383
 11
10.0448
 21
-7.66013
  0
LINE
  8
0
 10
10.0448
 20
-7.66013
 11
10.4186
 21
-7.61292
  0
LINE
  8
0
 10
10.4186
 20
-7.61292
 11
10.7954
 21
-7.61292
  0
LINE
  8
0
 10
10.7954
 20
-7.61292
 11
11.1691
 21
-7.66013
  0
LINE
  8
0
 10
11.1691
 20
-7.66013
 11
11.534
 21
-7.75383
  0
LINE
  8
0
 10
11.534
 20
-7.75383
 11
11.8843
 21
-7.89252
  0
LINE
  8
0
 10
11.8843
 20
-7.89252
 11
12.2145
 21
-8.07401
  0
LINE
  8
0
 10
12.2145
 20
-8.07401
 11
12.5193
 21
-8.29546
  0
LINE
  8
0
 10
12.5193
 20
-8.29546
 11
12.7939
 21
-8.55334
  0
LINE
  8
0
 10
12.7939
 20
-8.55334
 11
13.034
 21
-8.84364
  0
LINE
  8
0
 10
13.034
 20
-8.84364
 11
13.2359
 21
-9.16173
  0
LINE
  8
0
 10
13.2359
 20
-9.16173
 11
13.3963
 21
-9.50262
  0
LINE
  8
0
 10
13.3963
 20
-9.50262
 11
13.5127
 21
-9.86092
  0
LINE
  8
0
 10
13.5127
 20
-9.86092
 11
13.5833
 21
-10.231
  0
LINE
  8
0
 10
13.5833
 20
-10.231
 11
13.607
 21
-10.607
  0
LINE
  8
0
 10
13.607
 20
-10.607
 11
13.5833
 21
-10.983
  0
LINE
  8
0
 10
13.5833
 20
-10.983
 11
13.5127
 21
-11.3531
  0
LINE
  8
0
 10
13.5127
 20
-11.3531
 11
13.3963
 21
-11.7114
  0
LINE
  8
0
 10
13.3963
 20
-11.7114
 11
13.2359
 21
-12.0522
  0
LINE
  8
0
 10
13.2359
 20
-12.0522
 11
13.034
 21
-12.3703
  0
LINE
  8
0
 10
13.034
 20
-12.3703
 11
12.7939
 21
-12.6606
  0
LINE
  8
0
 10
12.7939
 20
-12.6606
 11
12.5193
 21
-12.9185
  0
LINE
  8
0
 10
12.5193
 20
-12.9185
 11
12.2145
 21
-13.14
  0
LINE
  8
0
 10
12.2145
 20
-13.14
 11
11.8843
 21
-13.3215
  0
LINE
  8
0
 10
11.8843
 20
-13.3215
 11
11.534
 21
-13.4602
  0
LINE
  8
0
 10
11.534
 20
-13.4602
 11
11.1691
 21
-13.5538
  0
LINE
  8
0
 10
11.1691
 20
-13.5538
 11
10.7954
 21
-13.6011
  0
LINE
  8
0
 10
10.7954
 20
-13.6011
 11
10.4186
 21
-13.6011
  0
LINE
  8
0
 10
-10.7954
 20
-13.6011
 11
-11.1691
 21
-13.5538
  0
LINE
  8
0
 10
-11.1691
 20
-13.5538
 11
-11.534
 21
-13.4602
  0
LINE
  8
0
 10
-11.534
 20
-13.4602
 11
-11.8843
 21
-13.3215
  0
LINE
  8
0
 10
-11.8843
 20
-13.3215
 11
-12.2145
 21
-13.14
  0
LINE
  8
0
 10
-12.2145
 20
-13.14
 11
-12.5193
 21
-12.9185
  0
LINE
  8
0
 10
-12.5193
 20
-12.9185
 11
-12.7939
 21
-12.6606
  0
LINE
  8
0
 10
-12.7939
 20
-12.6606
 11
-13.034
 21
-12.3703
  0
LINE
  8
0
 10
-13.034
 20
-12.3703
 11
-13.2359
 21
-12.0522
  0
LINE
  8
0
 10
-13.2359
 20
-12.0522
 11
-13.3963
 21
-11.7114
  0
LINE
  8
0
 10
-13.3963
 20
-11.7114
 11
-13.5127
 21
-11.3531
  0
LINE
  8
0
 10
-13.5127
 20
-11.3531
 11
-13.5833
 21
-10.983
  0
LINE
  8
0
 10
-13.5833
 20
-10.983
 11
-13.607
 21
-10.607
  0
LINE
  8
0
 10
-13.607
 20
-10.607
 11
-13.5833
 21
-10.231
  0
LINE
  8
0
 10
-13.5833
 20
-10.231
 11
-13.5127
 21
-9.86092
  0
LINE
  8
0
 10
-13.5127
 20
-9.86092
 11
-13.3963
 21
-9.50262
  0
LINE
  8
0
 10
-13.3963
 20
-9.50262
 11
-13.2359
 21
-9.16173
  0
LINE
  8
0
 10
-13.2359
 20
-9.16173
 11
-13.034
 21
-8.84364
  0
LINE
  8
0
 10
-13.034
 20
-8.84364
 11
-12.7939
 21
-8.55334
  0
LINE
  8
0
 10
-12.7939
 20
-8.55334
 11
-12.5193
 21
-8.29546
  0
LINE
  8
0
 10
-12.5193
 20
-8.29546
 11
-12.2145
 21
-8.07401
  0
LINE
  8
0
 10
-12.2145
 20
-8.07401
 11
-11.8843
 21
-7.89252
  0
LINE
  8
0
 10
-11.8843
 20
-7.89252
 11
-11.534
 21
-7.75383
  0
LINE
  8
0
 10
-11.534
 20
-7.75383
 11
-11.1691
 21
-7.66013
  0
LINE
  8
0
 10
-11.1691
 20
-7.66013
 11
-10.7954
 21
-7.61292
  0
LINE
  8
0
 10
-10.7954
 20
-7.61292
 11
-10.4186
 21
-7.61292
  0
LINE
  8
0
 10
-10.4186
 20
-7.61292
 11
-10.0448
 21
-7.66013
  0
LINE
  8
0
 10
-10.0448
 20
-7.66013
 11
-9.67995
 21
-7.75383
  0
LINE
  8
0
 10
-9.67995
 20
-7.75383
 11
-9.32965
 21
-7.89252
  0
LINE
  8
0
 10
-9.32965
 20
-7.89252
 11
-8.99951
 21
-8.07401
  0
LINE
  8
0
 10
-8.99951
 20
-8.07401
 11
-8.69472
 21
-8.29546
  0
LINE
  8
0
 10
-8.69472
 20
-8.29546
 11
-8.42009
 21
-8.55334
  0
LINE
  8
0
 10
-8.42009
 20
-8.55334
 11
-8.17995
 21
-8.84364
  0
LINE
  8
0
 10
-8.17995
 20
-8.84364
 11
-7.97807
 21
-9.16173
  0
LINE
  8
0
 10
-7.97807
 20
-9.16173
 11
-7.81766
 21
-9.50262
  0
LINE
  8
0
 10
-7.81766
 20
-9.50262
 11
-7.70125
 21
-9.86092
  0
LINE
  8
0
 10
-7.70125
 20
-9.86092
 11
-7.63065
 21
-10.231
  0
LINE
  8
0
 10
-7.63065
 20
-10.231
 11
-7.60699
 21
-10.607
  0
LINE
  8
0
 10
-7.60699
 20
-10.607
 11
-7.63065
 21
-10.983
  0
LINE
  8
0
 10
-7.63065
 20
-10.983
 11
-7.70125
 21
-11.3531
  0
LINE
  8
0
 10
-7.70125
 20
-11.3531
 11
-7.81766
 21
-11.7114
  0
LINE
  8
0
 10
-7.81766
 20
-11.7114
 11
-7.97807
 21
-12.0522
  0
LINE
  8
0
 10
-7.97807
 20
-12.0522
 11
-8.17995
 21
-12.3703
  0
LINE
  8
0
 10
-8.17995
 20
-12.3703
 11
-8.42009
 21
-12.6606
  0
LINE
  8
0
 10
-8.42009
 20
-12.6606
 11
-8.69472
 21
-12.9185
  0
LINE
  8
0
 10
-8.69472
 20
-12.9185
 11
-8.99951
 21
-13.14
  0
LINE
  8
0
 10
-8.99951
 20
-13.14
 11
-9.32965
 21
-13.3215
  0
LINE
  8
0
 10
-9.32965
 20
-13.3215
 11
-9.67995
 21
-13.4602
  0
LINE
  8
0
 10
-9.67995
 20
-13.4602
 11
-10.0448
 21
-13.5538
  0
LINE
  8
0
 10
-10.0448
 20
-13.5538
 11
-10.4186
 21
-13.6011
  0
LINE
  8
0
 10
-10.4186
 20
-13.6011
 11
-10.7954
 21
-13.6011
  0
LINE
  8
0
 10
-0.18837
 20
-17.9941
 11
-0.562134
 21
-17.9469
  0
LINE
  8
0
 10
-0.562134
 20
-17.9469
 11
-0.927048
 21
-17.8532
  0
LINE
  8
0
 10
-0.927048
 20
-17.8532
 11
-1.27733
 21
-17.7145
  0
LINE
  8
0
 10
-1.27733
 20
-17.7145
 11
-1.60747
 21
-17.533
  0
LINE
  8
0
 10
-1.60747
 20
-17.533
 11
-1.91226
 21
-17.3115
  0
LINE
  8
0
 10
-1.91226
 20
-17.3115
 11
-2.1869
 21
-17.0536
  0
LINE
  8
0
 10
-2.1869
 20
-17.0536
 11
-2.42705
 21
-16.7634
  0
LINE
  8
0
 10
-2.42705
 20
-16.7634
 11
-2.62891
 21
-16.4453
  0
LINE
  8
0
 10
-2.62891
 20
-16.4453
 11
-2.78932
 21
-16.1044
  0
LINE
  8
0
 10
-2.78932
 20
-16.1044
 11
-2.90575
 21
-15.7461
  0
LINE
  8
0
 10
-2.90575
 20
-15.7461
 11
-2.97633
 21
-15.376
  0
LINE
  8
0
 10
-2.97633
 20
-15.376
 11
-3
 21
-15
  0
LINE
  8
0
 10
-3
 20
-15
 11
-2.97633
 21
-14.624
  0
LINE
  8
0
 10
-2.97633
 20
-14.624
 11
-2.90575
 21
-14.2539
  0
LINE
  8
0
 10
-2.90575
 20
-14.2539
 11
-2.78932
 21
-13.8956
  0
LINE
  8
0
 10
-2.78932
 20
-13.8956
 11
-2.62891
 21
-13.5547
  0
LINE
  8
0
 10
-2.62891
 20
-13.5547
 11
-2.42705
 21
-13.2366
  0
LINE
  8
0
 10
-2.42705
 20
-13.2366
 11
-2.1869
 21
-12.9464
  0
LINE
  8
0
 10
-2.1869
 20
-12.9464
 11
-1.91226
 21
-12.6884
  0
LINE
  8
0
 10
-1.91226
 20
-12.6884
 11
-1.60747
 21
-12.467
  0
LINE
  8
0
 10
-1.60747
 20
-12.467
 11
-1.27733
 21
-12.2855
  0
LINE
  8
0
 10
-1.27733
 20
-12.2855
 11
-0.927048
 21
-12.1468
  0
LINE
  8
0
 10
-0.927048
 20
-12.1468
 11
-0.562134
 21
-12.0531
  0
LINE
  8
0
 10
-0.562134
 20
-12.0531
 11
-0.18837
 21
-12.0059
  0
LINE
  8
0
 10
-0.18837
 20
-12.0059
 11
0.18837
 21
-12.0059
  0
LINE
  8
0
 10
0.18837
 20
-12.0059
 11
0.562134
 21
-12.0531
  0
LINE
  8
0
 10
0.562134
 20
-12.0531
 11
0.927048
 21
-12.1468
  0
LINE
  8
0
 10
0.927048
 20
-12.1468
 11
1.27733
 21
-12.2855
  0
LINE
  8
0
 10
1.27733
 20
-12.2855
 11
1.60747
 21
-12.467
  0
LINE
  8
0
 10
1.60747
 20
-12.467
 11
1.91226
 21
-12.6884
  0
LINE
  8
0
 10
1.91226
 20
-12.6884
 11
2.1869
 21
-12.9464
  0
LINE
  8
0
 10
2.1869
 20
-12.9464
 11
2.42705
 21
-13.2366
  0
LINE
  8
0
 10
2.42705
 20
-13.2366
 11
2.62891
 21
-13.5547
  0
LINE
  8
0
 10
2.62891
 20
-13.5547
 11
2.78932
 21
-13.8956
  0
LINE
  8
0
 10
2.78932
 20
-13.8956
 11
2.90575
 21
-14.2539
  0
LINE
  8
0
 10
2.90575
 20
-14.2539
 11
2.97633
 21
-14.624
  0
LINE
  8
0
 10
2.97633
 20
-14.624
 11
3
 21
-15
  0
LINE
  8
0
 10
3
 20
-15
 11
2.97633
 21
-15.376
  0
LINE
  8
0
 10
2.97633
 20
-15.376
 11
2.90575
 21
-15.7461
  0
LINE
  8
0
 10
2.90575
 20
-15.7461
 11
2.78932
 21
-16.1044
  0
LINE
  8
0
 10
2.78932
 20
-16.1044
 11
2.62891
 21
-16.4453
  0
LINE
  8
0
 10
2.62891
 20
-16.4453
 11
2.42705
 21
-16.7634
  0
LINE
  8
0
 10
2.42705
 20
-16.7634
 11
2.1869
 21
-17.0536
  0
LINE
  8
0
 10
2.1869
 20
-17.0536
 11
1.91226
 21
-17.3115
  0
LINE
  8
0
 10
1.91226
 20
-17.3115
 11
1.60747
 21
-17.533
  0
LINE
  8
0
 10
1.60747
 20
-17.533
 11
1.27733
 21
-17.7145
  0
LINE
  8
0
 10
1.27733
 20
-17.7145
 11
0.927048
 21
-17.8532
  0
LINE
  8
0
 10
0.927048
 20
-17.8532
 11
0.562134
 21
-17.9469
  0
LINE
  8
0
 10
0.562134
 20
-17.9469
 11
0.18837
 21
-17.9941
  0
LINE
  8
0
 10
0.18837
 20
-17.9941
 11
-0.18837
 21
-17.9941
  0
ENDSEC
  0
SECTION
  2
OBJECTS
  0
DICTIONARY
  0
ENDSEC
  0
EOF
