  0
SECTION
  2
BLOCKS
  0
ENDSEC
  0
SECTION
  2
ENTITIES
  0
LINE
  8
0
 10
10.9369
 20
141.089
 11
11.5451
 21
141.245
  0
LINE
  8
0
 10
11.5451
 20
141.245
 11
12.1289
 21
141.476
  0
LINE
  8
0
 10
12.1289
 20
141.476
 11
12.6791
 21
141.778
  0
LINE
  8
0
 10
12.6791
 20
141.778
 11
13.1871
 21
142.147
  0
LINE
  8
0
 10
13.1871
 20
142.147
 11
13.6448
 21
142.577
  0
LINE
  8
0
 10
13.6448
 20
142.577
 11
14.0451
 21
143.061
  0
LINE
  8
0
 10
14.0451
 20
143.061
 11
14.3815
 21
143.591
  0
LINE
  8
0
 10
14.3815
 20
143.591
 11
14.6489
 21
144.159
  0
LINE
  8
0
 10
14.6489
 20
144.159
 11
14.8429
 21
144.757
  0
LINE
  8
0
 10
14.8429
 20
144.757
 11
14.9606
 21
145.373
  0
LINE
  8
0
 10
14.9606
 20
145.373
 11
15
 21
146
  0
LINE
  8
0
 10
15
 20
146
 11
15
 21
166
  0
LINE
  8
0
 10
15
 20
166
 11
14.9606
 21
166.627
  0
LINE
  8
0
 10
14.9606
 20
166.627
 11
14.8429
 21
167.243
  0
LINE
  8
0
 10
14.8429
 20
167.243
 11
14.6489
 21
167.841
  0
LINE
  8
0
 10
14.6489
 20
167.841
 11
14.3815
 21
168.409
  0
LINE
  8
0
 10
14.3815
 20
168.409
 11
14.0451
 21
168.939
  0
LINE
  8
0
 10
14.0451
 20
168.939
 11
13.6448
 21
169.423
  0
LINE
  8
0
 10
13.6448
 20
169.423
 11
13.1871
 21
169.853
  0
LINE
  8
0
 10
13.1871
 20
169.853
 11
12.6791
 21
170.222
  0
LINE
  8
0
 10
12.6791
 20
170.222
 11
12.1289
 21
170.524
  0
LINE
  8
0
 10
12.1289
 20
170.524
 11
11.5451
 21
170.755
  0
LINE
  8
0
 10
11.5451
 20
170.755
 11
10.9369
 21
170.911
  0
LINE
  8
0
 10
10.9369
 20
170.911
 11
10.3139
 21
170.99
  0
LINE
  8
0
 10
10.3139
 20
170.99
 11
-10.3139
 21
170.99
  0
LINE
  8
0
 10
-10.3139
 20
170.99
 11
-10.9369
 21
170.911
  0
LINE
  8
0
 10
-10.9369
 20
170.911
 11
-11.5451
 21
170.755
  0
LINE
  8
0
 10
-11.5451
 20
170.755
 11
-12.1289
 21
170.524
  0
LINE
  8
0
 10
-12.1289
 20
170.524
 11
-12.6791
 21
170.222
  0
LINE
  8
0
 10
-12.6791
 20
170.222
 11
-13.1871
 21
169.853
  0
LINE
  8
0
 10
-13.1871
 20
169.853
 11
-13.6448
 21
169.423
  0
LINE
  8
0
 10
-13.6448
 20
169.423
 11
-14.0451
 21
168.939
  0
LINE
  8
0
 10
-14.0451
 20
168.939
 11
-14.3815
 21
168.409
  0
LINE
  8
0
 10
-14.3815
 20
168.409
 11
-14.6489
 21
167.841
  0
LINE
  8
0
 10
-14.6489
 20
167.841
 11
-14.8429
 21
167.243
  0
LINE
  8
0
 10
-14.8429
 20
167.243
 11
-14.9606
 21
166.627
  0
LINE
  8
0
 10
-14.9606
 20
166.627
 11
-15
 21
166
  0
LINE
  8
0
 10
-15
 20
166
 11
-15
 21
146
  0
LINE
  8
0
 10
-15
 20
146
 11
-14.9606
 21
145.373
  0
LINE
  8
0
 10
-14.9606
 20
145.373
 11
-14.8429
 21
144.757
  0
LINE
  8
0
 10
-14.8429
 20
144.757
 11
-14.6489
 21
144.159
  0
LINE
  8
0
 10
-14.6489
 20
144.159
 11
-14.3815
 21
143.591
  0
LINE
  8
0
 10
-14.3815
 20
143.591
 11
-14.0451
 21
143.061
  0
LINE
  8
0
 10
-14.0451
 20
143.061
 11
-13.6448
 21
142.577
  0
LINE
  8
0
 10
-13.6448
 20
142.577
 11
-13.1871
 21
142.147
  0
LINE
  8
0
 10
-13.1871
 20
142.147
 11
-12.6791
 21
141.778
  0
LINE
  8
0
 10
-12.6791
 20
141.778
 11
-12.1289
 21
141.476
  0
LINE
  8
0
 10
-12.1289
 20
141.476
 11
-11.5451
 21
141.245
  0
LINE
  8
0
 10
-11.5451
 20
141.245
 11
-10.9369
 21
141.089
  0
LINE
  8
0
 10
-10.9369
 20
141.089
 11
-10.3139
 21
141.01
  0
LINE
  8
0
 10
-10.3139
 20
141.01
 11
10.3139
 21
141.01
  0
LINE
  8
0
 10
10.3139
 20
141.01
 11
10.9369
 21
141.089
  0
LINE
  8
0
 10
-10.0482
 20
141.509
 11
-10.6401
 21
141.584
  0
LINE
  8
0
 10
-10.6401
 20
141.584
 11
-11.2178
 21
141.732
  0
LINE
  8
0
 10
-11.2178
 20
141.732
 11
-11.7724
 21
141.952
  0
LINE
  8
0
 10
-11.7724
 20
141.952
 11
-12.2952
 21
142.239
  0
LINE
  8
0
 10
-12.2952
 20
142.239
 11
-12.7778
 21
142.59
  0
LINE
  8
0
 10
-12.7778
 20
142.59
 11
-13.2126
 21
142.998
  0
LINE
  8
0
 10
-13.2126
 20
142.998
 11
-13.5928
 21
143.458
  0
LINE
  8
0
 10
-13.5928
 20
143.458
 11
-13.9124
 21
143.962
  0
LINE
  8
0
 10
-13.9124
 20
143.962
 11
-14.1664
 21
144.501
  0
LINE
  8
0
 10
-14.1664
 20
144.501
 11
-14.3508
 21
145.069
  0
LINE
  8
0
 10
-14.3508
 20
145.069
 11
-14.4625
 21
145.655
  0
LINE
  8
0
 10
-14.4625
 20
145.655
 11
-14.5
 21
146.25
  0
LINE
  8
0
 10
-14.5
 20
146.25
 11
-14.5
 21
165.75
  0
LINE
  8
0
 10
-14.5
 20
165.75
 11
-14.4625
 21
166.345
  0
LINE
  8
0
 10
-14.4625
 20
166.345
 11
-14.3508
 21
166.931
  0
LINE
  8
0
 10
-14.3508
 20
166.931
 11
-14.1664
 21
167.499
  0
LINE
  8
0
 10
-14.1664
 20
167.499
 11
-13.9124
 21
168.038
  0
LINE
  8
0
 10
-13.9124
 20
168.038
 11
-13.5928
 21
168.542
  0
LINE
  8
0
 10
-13.5928
 20
168.542
 11
-13.2126
 21
169.002
  0
LINE
  8
0
 10
-13.2126
 20
169.002
 11
-12.7778
 21
169.41
  0
LINE
  8
0
 10
-12.7778
 20
169.41
 11
-12.2952
 21
169.761
  0
LINE
  8
0
 10
-12.2952
 20
169.761
 11
-11.7724
 21
170.048
  0
LINE
  8
0
 10
-11.7724
 20
170.048
 11
-11.2178
 21
170.268
  0
LINE
  8
0
 10
-11.2178
 20
170.268
 11
-10.6401
 21
170.416
  0
LINE
  8
0
 10
-10.6401
 20
170.416
 11
-10.0482
 21
170.491
  0
LINE
  8
0
 10
-10.0482
 20
170.491
 11
10.0482
 21
170.491
  0
LINE
  8
0
 10
10.0482
 20
170.491
 11
10.6401
 21
170.416
  0
LINE
  8
0
 10
10.6401
 20
170.416
 11
11.2178
 21
170.268
  0
LINE
  8
0
 10
11.2178
 20
170.268
 11
11.7724
 21
170.048
  0
LINE
  8
0
 10
11.7724
 20
170.048
 11
12.2952
 21
169.761
  0
LINE
  8
0
 10
12.2952
 20
169.761
 11
12.7778
 21
169.41
  0
LINE
  8
0
 10
12.7778
 20
169.41
 11
13.2126
 21
169.002
  0
LINE
  8
0
 10
13.2126
 20
169.002
 11
13.5928
 21
168.542
  0
LINE
  8
0
 10
13.5928
 20
168.542
 11
13.9124
 21
168.038
  0
LINE
  8
0
 10
13.9124
 20
168.038
 11
14.1664
 21
167.499
  0
LINE
  8
0
 10
14.1664
 20
167.499
 11
14.3508
 21
166.931
  0
LINE
  8
0
 10
14.3508
 20
166.931
 11
14.4625
 21
166.345
  0
LINE
  8
0
 10
14.4625
 20
166.345
 11
14.5
 21
165.75
  0
LINE
  8
0
 10
14.5
 20
165.75
 11
14.5
 21
146.25
  0
LINE
  8
0
 10
14.5
 20
146.25
 11
14.4625
 21
145.655
  0
LINE
  8
0
 10
14.4625
 20
145.655
 11
14.3508
 21
145.069
  0
LINE
  8
0
 10
14.3508
 20
145.069
 11
14.1664
 21
144.501
  0
LINE
  8
0
 10
14.1664
 20
144.501
 11
13.9124
 21
143.962
  0
LINE
  8
0
 10
13.9124
 20
143.962
 11
13.5928
 21
143.458
  0
LINE
  8
0
 10
13.5928
 20
143.458
 11
13.2126
 21
142.998
  0
LINE
  8
0
 10
13.2126
 20
142.998
 11
12.7778
 21
142.59
  0
LINE
  8
0
 10
12.7778
 20
142.59
 11
12.2952
 21
142.239
  0
LINE
  8
0
 10
12.2952
 20
142.239
 11
11.7724
 21
141.952
  0
LINE
  8
0
 10
11.7724
 20
141.952
 11
11.2178
 21
141.732
  0
LINE
  8
0
 10
11.2178
 20
141.732
 11
10.6401
 21
141.584
  0
LINE
  8
0
 10
10.6401
 20
141.584
 11
10.0482
 21
141.509
  0
LINE
  8
0
 10
10.0482
 20
141.509
 11
-10.0482
 21
141.509
  0
LINE
  8
0
 10
10.9369
 20
102.089
 11
11.5451
 21
102.245
  0
LINE
  8
0
 10
11.5451
 20
102.245
 11
12.1289
 21
102.476
  0
LINE
  8
0
 10
12.1289
 20
102.476
 11
12.6791
 21
102.778
  0
LINE
  8
0
 10
12.6791
 20
102.778
 11
13.1871
 21
103.147
  0
LINE
  8
0
 10
13.1871
 20
103.147
 11
13.6448
 21
103.577
  0
LINE
  8
0
 10
13.6448
 20
103.577
 11
14.0451
 21
104.061
  0
LINE
  8
0
 10
14.0451
 20
104.061
 11
14.3815
 21
104.591
  0
LINE
  8
0
 10
14.3815
 20
104.591
 11
14.6489
 21
105.159
  0
LINE
  8
0
 10
14.6489
 20
105.159
 11
14.8429
 21
105.757
  0
LINE
  8
0
 10
14.8429
 20
105.757
 11
14.9606
 21
106.373
  0
LINE
  8
0
 10
14.9606
 20
106.373
 11
15
 21
107
  0
LINE
  8
0
 10
15
 20
107
 11
15
 21
127
  0
LINE
  8
0
 10
15
 20
127
 11
14.9606
 21
127.627
  0
LINE
  8
0
 10
14.9606
 20
127.627
 11
14.8429
 21
128.243
  0
LINE
  8
0
 10
14.8429
 20
128.243
 11
14.6489
 21
128.841
  0
LINE
  8
0
 10
14.6489
 20
128.841
 11
14.3815
 21
129.409
  0
LINE
  8
0
 10
14.3815
 20
129.409
 11
14.0451
 21
129.939
  0
LINE
  8
0
 10
14.0451
 20
129.939
 11
13.6448
 21
130.423
  0
LINE
  8
0
 10
13.6448
 20
130.423
 11
13.1871
 21
130.853
  0
LINE
  8
0
 10
13.1871
 20
130.853
 11
12.6791
 21
131.222
  0
LINE
  8
0
 10
12.6791
 20
131.222
 11
12.1289
 21
131.524
  0
LINE
  8
0
 10
12.1289
 20
131.524
 11
11.5451
 21
131.755
  0
LINE
  8
0
 10
11.5451
 20
131.755
 11
10.9369
 21
131.911
  0
LINE
  8
0
 10
10.9369
 20
131.911
 11
10.3139
 21
131.99
  0
LINE
  8
0
 10
10.3139
 20
131.99
 11
-10.3139
 21
131.99
  0
LINE
  8
0
 10
-10.3139
 20
131.99
 11
-10.9369
 21
131.911
  0
LINE
  8
0
 10
-10.9369
 20
131.911
 11
-11.5451
 21
131.755
  0
LINE
  8
0
 10
-11.5451
 20
131.755
 11
-12.1289
 21
131.524
  0
LINE
  8
0
 10
-12.1289
 20
131.524
 11
-12.6791
 21
131.222
  0
LINE
  8
0
 10
-12.6791
 20
131.222
 11
-13.1871
 21
130.853
  0
LINE
  8
0
 10
-13.1871
 20
130.853
 11
-13.6448
 21
130.423
  0
LINE
  8
0
 10
-13.6448
 20
130.423
 11
-14.0451
 21
129.939
  0
LINE
  8
0
 10
-14.0451
 20
129.939
 11
-14.3815
 21
129.409
  0
LINE
  8
0
 10
-14.3815
 20
129.409
 11
-14.6489
 21
128.841
  0
LINE
  8
0
 10
-14.6489
 20
128.841
 11
-14.8429
 21
128.243
  0
LINE
  8
0
 10
-14.8429
 20
128.243
 11
-14.9606
 21
127.627
  0
LINE
  8
0
 10
-14.9606
 20
127.627
 11
-15
 21
127
  0
LINE
  8
0
 10
-15
 20
127
 11
-15
 21
107
  0
LINE
  8
0
 10
-15
 20
107
 11
-14.9606
 21
106.373
  0
LINE
  8
0
 10
-14.9606
 20
106.373
 11
-14.8429
 21
105.757
  0
LINE
  8
0
 10
-14.8429
 20
105.757
 11
-14.6489
 21
105.159
  0
LINE
  8
0
 10
-14.6489
 20
105.159
 11
-14.3815
 21
104.591
  0
LINE
  8
0
 10
-14.3815
 20
104.591
 11
-14.0451
 21
104.061
  0
LINE
  8
0
 10
-14.0451
 20
104.061
 11
-13.6448
 21
103.577
  0
LINE
  8
0
 10
-13.6448
 20
103.577
 11
-13.1871
 21
103.147
  0
LINE
  8
0
 10
-13.1871
 20
103.147
 11
-12.6791
 21
102.778
  0
LINE
  8
0
 10
-12.6791
 20
102.778
 11
-12.1289
 21
102.476
  0
LINE
  8
0
 10
-12.1289
 20
102.476
 11
-11.5451
 21
102.245
  0
LINE
  8
0
 10
-11.5451
 20
102.245
 11
-10.9369
 21
102.089
  0
LINE
  8
0
 10
-10.9369
 20
102.089
 11
-10.3139
 21
102.01
  0
LINE
  8
0
 10
-10.3139
 20
102.01
 11
10.3139
 21
102.01
  0
LINE
  8
0
 10
10.3139
 20
102.01
 11
10.9369
 21
102.089
  0
LINE
  8
0
 10
-9.99297
 20
103.388
 11
-10.4751
 21
103.449
  0
LINE
  8
0
 10
-10.4751
 20
103.449
 11
-10.9457
 21
103.57
  0
LINE
  8
0
 10
-10.9457
 20
103.57
 11
-11.3975
 21
103.749
  0
LINE
  8
0
 10
-11.3975
 20
103.749
 11
-11.8234
 21
103.983
  0
LINE
  8
0
 10
-11.8234
 20
103.983
 11
-12.2165
 21
104.269
  0
LINE
  8
0
 10
-12.2165
 20
104.269
 11
-12.5707
 21
104.601
  0
LINE
  8
0
 10
-12.5707
 20
104.601
 11
-12.8805
 21
104.976
  0
LINE
  8
0
 10
-12.8805
 20
104.976
 11
-13.1408
 21
105.386
  0
LINE
  8
0
 10
-13.1408
 20
105.386
 11
-13.3477
 21
105.826
  0
LINE
  8
0
 10
-13.3477
 20
105.826
 11
-13.4979
 21
106.288
  0
LINE
  8
0
 10
-13.4979
 20
106.288
 11
-13.589
 21
106.765
  0
LINE
  8
0
 10
-13.589
 20
106.765
 11
-13.6195
 21
107.25
  0
LINE
  8
0
 10
-13.6195
 20
107.25
 11
-13.6195
 21
126.75
  0
LINE
  8
0
 10
-13.6195
 20
126.75
 11
-13.589
 21
127.235
  0
LINE
  8
0
 10
-13.589
 20
127.235
 11
-13.4979
 21
127.712
  0
LINE
  8
0
 10
-13.4979
 20
127.712
 11
-13.3477
 21
128.174
  0
LINE
  8
0
 10
-13.3477
 20
128.174
 11
-13.1408
 21
128.614
  0
LINE
  8
0
 10
-13.1408
 20
128.614
 11
-12.8805
 21
129.024
  0
LINE
  8
0
 10
-12.8805
 20
129.024
 11
-12.5707
 21
129.399
  0
LINE
  8
0
 10
-12.5707
 20
129.399
 11
-12.2165
 21
129.731
  0
LINE
  8
0
 10
-12.2165
 20
129.731
 11
-11.8234
 21
130.017
  0
LINE
  8
0
 10
-11.8234
 20
130.017
 11
-11.3975
 21
130.251
  0
LINE
  8
0
 10
-11.3975
 20
130.251
 11
-10.9457
 21
130.43
  0
LINE
  8
0
 10
-10.9457
 20
130.43
 11
-10.4751
 21
130.551
  0
LINE
  8
0
 10
-10.4751
 20
130.551
 11
-9.99297
 21
130.612
  0
LINE
  8
0
 10
-9.99297
 20
130.612
 11
9.99297
 21
130.612
  0
LINE
  8
0
 10
9.99297
 20
130.612
 11
10.4751
 21
130.551
  0
LINE
  8
0
 10
10.4751
 20
130.551
 11
10.9457
 21
130.43
  0
LINE
  8
0
 10
10.9457
 20
130.43
 11
11.3975
 21
130.251
  0
LINE
  8
0
 10
11.3975
 20
130.251
 11
11.8234
 21
130.017
  0
LINE
  8
0
 10
11.8234
 20
130.017
 11
12.2165
 21
129.731
  0
LINE
  8
0
 10
12.2165
 20
129.731
 11
12.5707
 21
129.399
  0
LINE
  8
0
 10
12.5707
 20
129.399
 11
12.8805
 21
129.024
  0
LINE
  8
0
 10
12.8805
 20
129.024
 11
13.1408
 21
128.614
  0
LINE
  8
0
 10
13.1408
 20
128.614
 11
13.3477
 21
128.174
  0
LINE
  8
0
 10
13.3477
 20
128.174
 11
13.4979
 21
127.712
  0
LINE
  8
0
 10
13.4979
 20
127.712
 11
13.589
 21
127.235
  0
LINE
  8
0
 10
13.589
 20
127.235
 11
13.6195
 21
126.75
  0
LINE
  8
0
 10
13.6195
 20
126.75
 11
13.6195
 21
107.25
  0
LINE
  8
0
 10
13.6195
 20
107.25
 11
13.589
 21
106.765
  0
LINE
  8
0
 10
13.589
 20
106.765
 11
13.4979
 21
106.288
  0
LINE
  8
0
 10
13.4979
 20
106.288
 11
13.3477
 21
105.826
  0
LINE
  8
0
 10
13.3477
 20
105.826
 11
13.1408
 21
105.386
  0
LINE
  8
0
 10
13.1408
 20
105.386
 11
12.8805
 21
104.976
  0
LINE
  8
0
 10
12.8805
 20
104.976
 11
12.5707
 21
104.601
  0
LINE
  8
0
 10
12.5707
 20
104.601
 11
12.2165
 21
104.269
  0
LINE
  8
0
 10
12.2165
 20
104.269
 11
11.8234
 21
103.983
  0
LINE
  8
0
 10
11.8234
 20
103.983
 11
11.3975
 21
103.749
  0
LINE
  8
0
 10
11.3975
 20
103.749
 11
10.9457
 21
103.57
  0
LINE
  8
0
 10
10.9457
 20
103.57
 11
10.4751
 21
103.449
  0
LINE
  8
0
 10
10.4751
 20
103.449
 11
9.99297
 21
103.388
  0
LINE
  8
0
 10
9.99297
 20
103.388
 11
-9.99297
 21
103.388
  0
LINE
  8
0
 10
10.9369
 20
63.0886
 11
11.5451
 21
63.2447
  0
LINE
  8
0
 10
11.5451
 20
63.2447
 11
12.1289
 21
63.4759
  0
LINE
  8
0
 10
12.1289
 20
63.4759
 11
12.6791
 21
63.7784
  0
LINE
  8
0
 10
12.6791
 20
63.7784
 11
13.1871
 21
64.1474
  0
LINE
  8
0
 10
13.1871
 20
64.1474
 11
13.6448
 21
64.5773
  0
LINE
  8
0
 10
13.6448
 20
64.5773
 11
14.0451
 21
65.0611
  0
LINE
  8
0
 10
14.0451
 20
65.0611
 11
14.3815
 21
65.5912
  0
LINE
  8
0
 10
14.3815
 20
65.5912
 11
14.6489
 21
66.1594
  0
LINE
  8
0
 10
14.6489
 20
66.1594
 11
14.8429
 21
66.7566
  0
LINE
  8
0
 10
14.8429
 20
66.7566
 11
14.9606
 21
67.3733
  0
LINE
  8
0
 10
14.9606
 20
67.3733
 11
15
 21
68
  0
LINE
  8
0
 10
15
 20
68
 11
15
 21
88
  0
LINE
  8
0
 10
15
 20
88
 11
14.9606
 21
88.6267
  0
LINE
  8
0
 10
14.9606
 20
88.6267
 11
14.8429
 21
89.2434
  0
LINE
  8
0
 10
14.8429
 20
89.2434
 11
14.6489
 21
89.8406
  0
LINE
  8
0
 10
14.6489
 20
89.8406
 11
14.3815
 21
90.4088
  0
LINE
  8
0
 10
14.3815
 20
90.4088
 11
14.0451
 21
90.9389
  0
LINE
  8
0
 10
14.0451
 20
90.9389
 11
13.6448
 21
91.4227
  0
LINE
  8
0
 10
13.6448
 20
91.4227
 11
13.1871
 21
91.8526
  0
LINE
  8
0
 10
13.1871
 20
91.8526
 11
12.6791
 21
92.2216
  0
LINE
  8
0
 10
12.6791
 20
92.2216
 11
12.1289
 21
92.5241
  0
LINE
  8
0
 10
12.1289
 20
92.5241
 11
11.5451
 21
92.7553
  0
LINE
  8
0
 10
11.5451
 20
92.7553
 11
10.9369
 21
92.9114
  0
LINE
  8
0
 10
10.9369
 20
92.9114
 11
10.3139
 21
92.9901
  0
LINE
  8
0
 10
10.3139
 20
92.9901
 11
-10.3139
 21
92.9901
  0
LINE
  8
0
 10
-10.3139
 20
92.9901
 11
-10.9369
 21
92.9114
  0
LINE
  8
0
 10
-10.9369
 20
92.9114
 11
-11.5451
 21
92.7553
  0
LINE
  8
0
 10
-11.5451
 20
92.7553
 11
-12.1289
 21
92.5241
  0
LINE
  8
0
 10
-12.1289
 20
92.5241
 11
-12.6791
 21
92.2216
  0
LINE
  8
0
 10
-12.6791
 20
92.2216
 11
-13.1871
 21
91.8526
  0
LINE
  8
0
 10
-13.1871
 20
91.8526
 11
-13.6448
 21
91.4227
  0
LINE
  8
0
 10
-13.6448
 20
91.4227
 11
-14.0451
 21
90.9389
  0
LINE
  8
0
 10
-14.0451
 20
90.9389
 11
-14.3815
 21
90.4088
  0
LINE
  8
0
 10
-14.3815
 20
90.4088
 11
-14.6489
 21
89.8406
  0
LINE
  8
0
 10
-14.6489
 20
89.8406
 11
-14.8429
 21
89.2434
  0
LINE
  8
0
 10
-14.8429
 20
89.2434
 11
-14.9606
 21
88.6267
  0
LINE
  8
0
 10
-14.9606
 20
88.6267
 11
-15
 21
88
  0
LINE
  8
0
 10
-15
 20
88
 11
-15
 21
68
  0
LINE
  8
0
 10
-15
 20
68
 11
-14.9606
 21
67.3733
  0
LINE
  8
0
 10
-14.9606
 20
67.3733
 11
-14.8429
 21
66.7566
  0
LINE
  8
0
 10
-14.8429
 20
66.7566
 11
-14.6489
 21
66.1594
  0
LINE
  8
0
 10
-14.6489
 20
66.1594
 11
-14.3815
 21
65.5912
  0
LINE
  8
0
 10
-14.3815
 20
65.5912
 11
-14.0451
 21
65.0611
  0
LINE
  8
0
 10
-14.0451
 20
65.0611
 11
-13.6448
 21
64.5773
  0
LINE
  8
0
 10
-13.6448
 20
64.5773
 11
-13.1871
 21
64.1474
  0
LINE
  8
0
 10
-13.1871
 20
64.1474
 11
-12.6791
 21
63.7784
  0
LINE
  8
0
 10
-12.6791
 20
63.7784
 11
-12.1289
 21
63.4759
  0
LINE
  8
0
 10
-12.1289
 20
63.4759
 11
-11.5451
 21
63.2447
  0
LINE
  8
0
 10
-11.5451
 20
63.2447
 11
-10.9369
 21
63.0886
  0
LINE
  8
0
 10
-10.9369
 20
63.0886
 11
-10.3139
 21
63.0099
  0
LINE
  8
0
 10
-10.3139
 20
63.0099
 11
10.3139
 21
63.0099
  0
LINE
  8
0
 10
10.3139
 20
63.0099
 11
10.9369
 21
63.0886
  0
LINE
  8
0
 10
7.40581
 20
84.0029
 11
7.21892
 21
84.0266
  0
LINE
  8
0
 10
7.21892
 20
84.0266
 11
7.03647
 21
84.0734
  0
LINE
  8
0
 10
7.03647
 20
84.0734
 11
6.86133
 21
84.1427
  0
LINE
  8
0
 10
6.86133
 20
84.1427
 11
6.69626
 21
84.2335
  0
LINE
  8
0
 10
6.69626
 20
84.2335
 11
6.54385
 21
84.3442
  0
LINE
  8
0
 10
6.54385
 20
84.3442
 11
6.40654
 21
84.4732
  0
LINE
  8
0
 10
6.40654
 20
84.4732
 11
6.28647
 21
84.6183
  0
LINE
  8
0
 10
6.28647
 20
84.6183
 11
6.18553
 21
84.7774
  0
LINE
  8
0
 10
6.18553
 20
84.7774
 11
6.10533
 21
84.9478
  0
LINE
  8
0
 10
6.10533
 20
84.9478
 11
6.04712
 21
85.127
  0
LINE
  8
0
 10
6.04712
 20
85.127
 11
6.01183
 21
85.312
  0
LINE
  8
0
 10
6.01183
 20
85.312
 11
6
 21
85.5
  0
LINE
  8
0
 10
6
 20
85.5
 11
6.01183
 21
85.688
  0
LINE
  8
0
 10
6.01183
 20
85.688
 11
6.04712
 21
85.873
  0
LINE
  8
0
 10
6.04712
 20
85.873
 11
6.10533
 21
86.0522
  0
LINE
  8
0
 10
6.10533
 20
86.0522
 11
6.18553
 21
86.2226
  0
LINE
  8
0
 10
6.18553
 20
86.2226
 11
6.28647
 21
86.3817
  0
LINE
  8
0
 10
6.28647
 20
86.3817
 11
6.40654
 21
86.5268
  0
LINE
  8
0
 10
6.40654
 20
86.5268
 11
6.54385
 21
86.6558
  0
LINE
  8
0
 10
6.54385
 20
86.6558
 11
6.69626
 21
86.7665
  0
LINE
  8
0
 10
6.69626
 20
86.7665
 11
6.86133
 21
86.8572
  0
LINE
  8
0
 10
6.86133
 20
86.8572
 11
7.03647
 21
86.9266
  0
LINE
  8
0
 10
7.03647
 20
86.9266
 11
7.21892
 21
86.9734
  0
LINE
  8
0
 10
7.21892
 20
86.9734
 11
7.40581
 21
86.997
  0
LINE
  8
0
 10
7.40581
 20
86.997
 11
7.59418
 21
86.997
  0
LINE
  8
0
 10
7.59418
 20
86.997
 11
7.78107
 21
86.9734
  0
LINE
  8
0
 10
7.78107
 20
86.9734
 11
7.96352
 21
86.9266
  0
LINE
  8
0
 10
7.96352
 20
86.9266
 11
8.13866
 21
86.8572
  0
LINE
  8
0
 10
8.13866
 20
86.8572
 11
8.30373
 21
86.7665
  0
LINE
  8
0
 10
8.30373
 20
86.7665
 11
8.45613
 21
86.6558
  0
LINE
  8
0
 10
8.45613
 20
86.6558
 11
8.59344
 21
86.5268
  0
LINE
  8
0
 10
8.59344
 20
86.5268
 11
8.71352
 21
86.3817
  0
LINE
  8
0
 10
8.71352
 20
86.3817
 11
8.81445
 21
86.2226
  0
LINE
  8
0
 10
8.81445
 20
86.2226
 11
8.89465
 21
86.0522
  0
LINE
  8
0
 10
8.89465
 20
86.0522
 11
8.95287
 21
85.873
  0
LINE
  8
0
 10
8.95287
 20
85.873
 11
8.98816
 21
85.688
  0
LINE
  8
0
 10
8.98816
 20
85.688
 11
9
 21
85.5
  0
LINE
  8
0
 10
9
 20
85.5
 11
8.98816
 21
85.312
  0
LINE
  8
0
 10
8.98816
 20
85.312
 11
8.95287
 21
85.127
  0
LINE
  8
0
 10
8.95287
 20
85.127
 11
8.89465
 21
84.9478
  0
LINE
  8
0
 10
8.89465
 20
84.9478
 11
8.81445
 21
84.7774
  0
LINE
  8
0
 10
8.81445
 20
84.7774
 11
8.71352
 21
84.6183
  0
LINE
  8
0
 10
8.71352
 20
84.6183
 11
8.59344
 21
84.4732
  0
LINE
  8
0
 10
8.59344
 20
84.4732
 11
8.45613
 21
84.3442
  0
LINE
  8
0
 10
8.45613
 20
84.3442
 11
8.30373
 21
84.2335
  0
LINE
  8
0
 10
8.30373
 20
84.2335
 11
8.13866
 21
84.1427
  0
LINE
  8
0
 10
8.13866
 20
84.1427
 11
7.96352
 21
84.0734
  0
LINE
  8
0
 10
7.96352
 20
84.0734
 11
7.78107
 21
84.0266
  0
LINE
  8
0
 10
7.78107
 20
84.0266
 11
7.59418
 21
84.0029
  0
LINE
  8
0
 10
7.59418
 20
84.0029
 11
7.40581
 21
84.0029
  0
LINE
  8
0
 10
-7.59418
 20
84.0029
 11
-7.78107
 21
84.0266
  0
LINE
  8
0
 10
-7.78107
 20
84.0266
 11
-7.96352
 21
84.0734
  0
LINE
  8
0
 10
-7.96352
 20
84.0734
 11
-8.13866
 21
84.1427
  0
LINE
  8
0
 10
-8.13866
 20
84.1427
 11
-8.30373
 21
84.2335
  0
LINE
  8
0
 10
-8.30373
 20
84.2335
 11
-8.45613
 21
84.3442
  0
LINE
  8
0
 10
-8.45613
 20
84.3442
 11
-8.59344
 21
84.4732
  0
LINE
  8
0
 10
-8.59344
 20
84.4732
 11
-8.71352
 21
84.6183
  0
LINE
  8
0
 10
-8.71352
 20
84.6183
 11
-8.81445
 21
84.7774
  0
LINE
  8
0
 10
-8.81445
 20
84.7774
 11
-8.89465
 21
84.9478
  0
LINE
  8
0
 10
-8.89465
 20
84.9478
 11
-8.95287
 21
85.127
  0
LINE
  8
0
 10
-8.95287
 20
85.127
 11
-8.98816
 21
85.312
  0
LINE
  8
0
 10
-8.98816
 20
85.312
 11
-9
 21
85.5
  0
LINE
  8
0
 10
-9
 20
85.5
 11
-8.98816
 21
85.688
  0
LINE
  8
0
 10
-8.98816
 20
85.688
 11
-8.95287
 21
85.873
  0
LINE
  8
0
 10
-8.95287
 20
85.873
 11
-8.89465
 21
86.0522
  0
LINE
  8
0
 10
-8.89465
 20
86.0522
 11
-8.81445
 21
86.2226
  0
LINE
  8
0
 10
-8.81445
 20
86.2226
 11
-8.71352
 21
86.3817
  0
LINE
  8
0
 10
-8.71352
 20
86.3817
 11
-8.59344
 21
86.5268
  0
LINE
  8
0
 10
-8.59344
 20
86.5268
 11
-8.45613
 21
86.6558
  0
LINE
  8
0
 10
-8.45613
 20
86.6558
 11
-8.30373
 21
86.7665
  0
LINE
  8
0
 10
-8.30373
 20
86.7665
 11
-8.13866
 21
86.8572
  0
LINE
  8
0
 10
-8.13866
 20
86.8572
 11
-7.96352
 21
86.9266
  0
LINE
  8
0
 10
-7.96352
 20
86.9266
 11
-7.78107
 21
86.9734
  0
LINE
  8
0
 10
-7.78107
 20
86.9734
 11
-7.59418
 21
86.997
  0
LINE
  8
0
 10
-7.59418
 20
86.997
 11
-7.40581
 21
86.997
  0
LINE
  8
0
 10
-7.40581
 20
86.997
 11
-7.21892
 21
86.9734
  0
LINE
  8
0
 10
-7.21892
 20
86.9734
 11
-7.03647
 21
86.9266
  0
LINE
  8
0
 10
-7.03647
 20
86.9266
 11
-6.86133
 21
86.8572
  0
LINE
  8
0
 10
-6.86133
 20
86.8572
 11
-6.69626
 21
86.7665
  0
LINE
  8
0
 10
-6.69626
 20
86.7665
 11
-6.54385
 21
86.6558
  0
LINE
  8
0
 10
-6.54385
 20
86.6558
 11
-6.40654
 21
86.5268
  0
LINE
  8
0
 10
-6.40654
 20
86.5268
 11
-6.28647
 21
86.3817
  0
LINE
  8
0
 10
-6.28647
 20
86.3817
 11
-6.18553
 21
86.2226
  0
LINE
  8
0
 10
-6.18553
 20
86.2226
 11
-6.10533
 21
86.0522
  0
LINE
  8
0
 10
-6.10533
 20
86.0522
 11
-6.04712
 21
85.873
  0
LINE
  8
0
 10
-6.04712
 20
85.873
 11
-6.01183
 21
85.688
  0
LINE
  8
0
 10
-6.01183
 20
85.688
 11
-6
 21
85.5
  0
LINE
  8
0
 10
-6
 20
85.5
 11
-6.01183
 21
85.312
  0
LINE
  8
0
 10
-6.01183
 20
85.312
 11
-6.04712
 21
85.127
  0
LINE
  8
0
 10
-6.04712
 20
85.127
 11
-6.10533
 21
84.9478
  0
LINE
  8
0
 10
-6.10533
 20
84.9478
 11
-6.18553
 21
84.7774
  0
LINE
  8
0
 10
-6.18553
 20
84.7774
 11
-6.28647
 21
84.6183
  0
LINE
  8
0
 10
-6.28647
 20
84.6183
 11
-6.40654
 21
84.4732
  0
LINE
  8
0
 10
-6.40654
 20
84.4732
 11
-6.54385
 21
84.3442
  0
LINE
  8
0
 10
-6.54385
 20
84.3442
 11
-6.69626
 21
84.2335
  0
LINE
  8
0
 10
-6.69626
 20
84.2335
 11
-6.86133
 21
84.1427
  0
LINE
  8
0
 10
-6.86133
 20
84.1427
 11
-7.03647
 21
84.0734
  0
LINE
  8
0
 10
-7.03647
 20
84.0734
 11
-7.21892
 21
84.0266
  0
LINE
  8
0
 10
-7.21892
 20
84.0266
 11
-7.40581
 21
84.0029
  0
LINE
  8
0
 10
-7.40581
 20
84.0029
 11
-7.59418
 21
84.0029
  0
LINE
  8
0
 10
-7.59418
 20
69.003
 11
-7.78107
 21
69.0266
  0
LINE
  8
0
 10
-7.78107
 20
69.0266
 11
-7.96352
 21
69.0734
  0
LINE
  8
0
 10
-7.96352
 20
69.0734
 11
-8.13866
 21
69.1428
  0
LINE
  8
0
 10
-8.13866
 20
69.1428
 11
-8.30373
 21
69.2335
  0
LINE
  8
0
 10
-8.30373
 20
69.2335
 11
-8.45613
 21
69.3442
  0
LINE
  8
0
 10
-8.45613
 20
69.3442
 11
-8.59344
 21
69.4732
  0
LINE
  8
0
 10
-8.59344
 20
69.4732
 11
-8.71352
 21
69.6183
  0
LINE
  8
0
 10
-8.71352
 20
69.6183
 11
-8.81445
 21
69.7774
  0
LINE
  8
0
 10
-8.81445
 20
69.7774
 11
-8.89465
 21
69.9478
  0
LINE
  8
0
 10
-8.89465
 20
69.9478
 11
-8.95287
 21
70.127
  0
LINE
  8
0
 10
-8.95287
 20
70.127
 11
-8.98816
 21
70.312
  0
LINE
  8
0
 10
-8.98816
 20
70.312
 11
-9
 21
70.5
  0
LINE
  8
0
 10
-9
 20
70.5
 11
-8.98816
 21
70.688
  0
LINE
  8
0
 10
-8.98816
 20
70.688
 11
-8.95287
 21
70.873
  0
LINE
  8
0
 10
-8.95287
 20
70.873
 11
-8.89465
 21
71.0522
  0
LINE
  8
0
 10
-8.89465
 20
71.0522
 11
-8.81445
 21
71.2226
  0
LINE
  8
0
 10
-8.81445
 20
71.2226
 11
-8.71352
 21
71.3817
  0
LINE
  8
0
 10
-8.71352
 20
71.3817
 11
-8.59344
 21
71.5268
  0
LINE
  8
0
 10
-8.59344
 20
71.5268
 11
-8.45613
 21
71.6558
  0
LINE
  8
0
 10
-8.45613
 20
71.6558
 11
-8.30373
 21
71.7665
  0
LINE
  8
0
 10
-8.30373
 20
71.7665
 11
-8.13866
 21
71.8573
  0
LINE
  8
0
 10
-8.13866
 20
71.8573
 11
-7.96352
 21
71.9266
  0
LINE
  8
0
 10
-7.96352
 20
71.9266
 11
-7.78107
 21
71.9734
  0
LINE
  8
0
 10
-7.78107
 20
71.9734
 11
-7.59418
 21
71.9971
  0
LINE
  8
0
 10
-7.59418
 20
71.9971
 11
-7.40581
 21
71.9971
  0
LINE
  8
0
 10
-7.40581
 20
71.9971
 11
-7.21892
 21
71.9734
  0
LINE
  8
0
 10
-7.21892
 20
71.9734
 11
-7.03647
 21
71.9266
  0
LINE
  8
0
 10
-7.03647
 20
71.9266
 11
-6.86133
 21
71.8573
  0
LINE
  8
0
 10
-6.86133
 20
71.8573
 11
-6.69626
 21
71.7665
  0
LINE
  8
0
 10
-6.69626
 20
71.7665
 11
-6.54385
 21
71.6558
  0
LINE
  8
0
 10
-6.54385
 20
71.6558
 11
-6.40654
 21
71.5268
  0
LINE
  8
0
 10
-6.40654
 20
71.5268
 11
-6.28647
 21
71.3817
  0
LINE
  8
0
 10
-6.28647
 20
71.3817
 11
-6.18553
 21
71.2226
  0
LINE
  8
0
 10
-6.18553
 20
71.2226
 11
-6.10533
 21
71.0522
  0
LINE
  8
0
 10
-6.10533
 20
71.0522
 11
-6.04712
 21
70.873
  0
LINE
  8
0
 10
-6.04712
 20
70.873
 11
-6.01183
 21
70.688
  0
LINE
  8
0
 10
-6.01183
 20
70.688
 11
-6
 21
70.5
  0
LINE
  8
0
 10
-6
 20
70.5
 11
-6.01183
 21
70.312
  0
LINE
  8
0
 10
-6.01183
 20
70.312
 11
-6.04712
 21
70.127
  0
LINE
  8
0
 10
-6.04712
 20
70.127
 11
-6.10533
 21
69.9478
  0
LINE
  8
0
 10
-6.10533
 20
69.9478
 11
-6.18553
 21
69.7774
  0
LINE
  8
0
 10
-6.18553
 20
69.7774
 11
-6.28647
 21
69.6183
  0
LINE
  8
0
 10
-6.28647
 20
69.6183
 11
-6.40654
 21
69.4732
  0
LINE
  8
0
 10
-6.40654
 20
69.4732
 11
-6.54385
 21
69.3442
  0
LINE
  8
0
 10
-6.54385
 20
69.3442
 11
-6.69626
 21
69.2335
  0
LINE
  8
0
 10
-6.69626
 20
69.2335
 11
-6.86133
 21
69.1428
  0
LINE
  8
0
 10
-6.86133
 20
69.1428
 11
-7.03647
 21
69.0734
  0
LINE
  8
0
 10
-7.03647
 20
69.0734
 11
-7.21892
 21
69.0266
  0
LINE
  8
0
 10
-7.21892
 20
69.0266
 11
-7.40581
 21
69.003
  0
LINE
  8
0
 10
-7.40581
 20
69.003
 11
-7.59418
 21
69.003
  0
LINE
  8
0
 10
7.40581
 20
69.003
 11
7.21892
 21
69.0266
  0
LINE
  8
0
 10
7.21892
 20
69.0266
 11
7.03647
 21
69.0734
  0
LINE
  8
0
 10
7.03647
 20
69.0734
 11
6.86133
 21
69.1428
  0
LINE
  8
0
 10
6.86133
 20
69.1428
 11
6.69626
 21
69.2335
  0
LINE
  8
0
 10
6.69626
 20
69.2335
 11
6.54385
 21
69.3442
  0
LINE
  8
0
 10
6.54385
 20
69.3442
 11
6.40654
 21
69.4732
  0
LINE
  8
0
 10
6.40654
 20
69.4732
 11
6.28647
 21
69.6183
  0
LINE
  8
0
 10
6.28647
 20
69.6183
 11
6.18553
 21
69.7774
  0
LINE
  8
0
 10
6.18553
 20
69.7774
 11
6.10533
 21
69.9478
  0
LINE
  8
0
 10
6.10533
 20
69.9478
 11
6.04712
 21
70.127
  0
LINE
  8
0
 10
6.04712
 20
70.127
 11
6.01183
 21
70.312
  0
LINE
  8
0
 10
6.01183
 20
70.312
 11
6
 21
70.5
  0
LINE
  8
0
 10
6
 20
70.5
 11
6.01183
 21
70.688
  0
LINE
  8
0
 10
6.01183
 20
70.688
 11
6.04712
 21
70.873
  0
LINE
  8
0
 10
6.04712
 20
70.873
 11
6.10533
 21
71.0522
  0
LINE
  8
0
 10
6.10533
 20
71.0522
 11
6.18553
 21
71.2226
  0
LINE
  8
0
 10
6.18553
 20
71.2226
 11
6.28647
 21
71.3817
  0
LINE
  8
0
 10
6.28647
 20
71.3817
 11
6.40654
 21
71.5268
  0
LINE
  8
0
 10
6.40654
 20
71.5268
 11
6.54385
 21
71.6558
  0
LINE
  8
0
 10
6.54385
 20
71.6558
 11
6.69626
 21
71.7665
  0
LINE
  8
0
 10
6.69626
 20
71.7665
 11
6.86133
 21
71.8573
  0
LINE
  8
0
 10
6.86133
 20
71.8573
 11
7.03647
 21
71.9266
  0
LINE
  8
0
 10
7.03647
 20
71.9266
 11
7.21892
 21
71.9734
  0
LINE
  8
0
 10
7.21892
 20
71.9734
 11
7.40581
 21
71.9971
  0
LINE
  8
0
 10
7.40581
 20
71.9971
 11
7.59418
 21
71.9971
  0
LINE
  8
0
 10
7.59418
 20
71.9971
 11
7.78107
 21
71.9734
  0
LINE
  8
0
 10
7.78107
 20
71.9734
 11
7.96352
 21
71.9266
  0
LINE
  8
0
 10
7.96352
 20
71.9266
 11
8.13866
 21
71.8573
  0
LINE
  8
0
 10
8.13866
 20
71.8573
 11
8.30373
 21
71.7665
  0
LINE
  8
0
 10
8.30373
 20
71.7665
 11
8.45613
 21
71.6558
  0
LINE
  8
0
 10
8.45613
 20
71.6558
 11
8.59344
 21
71.5268
  0
LINE
  8
0
 10
8.59344
 20
71.5268
 11
8.71352
 21
71.3817
  0
LINE
  8
0
 10
8.71352
 20
71.3817
 11
8.81445
 21
71.2226
  0
LINE
  8
0
 10
8.81445
 20
71.2226
 11
8.89465
 21
71.0522
  0
LINE
  8
0
 10
8.89465
 20
71.0522
 11
8.95287
 21
70.873
  0
LINE
  8
0
 10
8.95287
 20
70.873
 11
8.98816
 21
70.688
  0
LINE
  8
0
 10
8.98816
 20
70.688
 11
9
 21
70.5
  0
LINE
  8
0
 10
9
 20
70.5
 11
8.98816
 21
70.312
  0
LINE
  8
0
 10
8.98816
 20
70.312
 11
8.95287
 21
70.127
  0
LINE
  8
0
 10
8.95287
 20
70.127
 11
8.89465
 21
69.9478
  0
LINE
  8
0
 10
8.89465
 20
69.9478
 11
8.81445
 21
69.7774
  0
LINE
  8
0
 10
8.81445
 20
69.7774
 11
8.71352
 21
69.6183
  0
LINE
  8
0
 10
8.71352
 20
69.6183
 11
8.59344
 21
69.4732
  0
LINE
  8
0
 10
8.59344
 20
69.4732
 11
8.45613
 21
69.3442
  0
LINE
  8
0
 10
8.45613
 20
69.3442
 11
8.30373
 21
69.2335
  0
LINE
  8
0
 10
8.30373
 20
69.2335
 11
8.13866
 21
69.1428
  0
LINE
  8
0
 10
8.13866
 20
69.1428
 11
7.96352
 21
69.0734
  0
LINE
  8
0
 10
7.96352
 20
69.0734
 11
7.78107
 21
69.0266
  0
LINE
  8
0
 10
7.78107
 20
69.0266
 11
7.59418
 21
69.003
  0
LINE
  8
0
 10
7.59418
 20
69.003
 11
7.40581
 21
69.003
  0
ENDSEC
  0
SECTION
  2
OBJECTS
  0
DICTIONARY
  0
ENDSEC
  0
EOF
