  0
SECTION
  2
BLOCKS
  0
ENDSEC
  0
SECTION
  2
ENTITIES
  0
LINE
  8
0
 10
10.4369
 20
140.089
 11
11.0451
 21
140.245
  0
LINE
  8
0
 10
11.0451
 20
140.245
 11
11.6289
 21
140.476
  0
LINE
  8
0
 10
11.6289
 20
140.476
 11
12.1791
 21
140.778
  0
LINE
  8
0
 10
12.1791
 20
140.778
 11
12.6871
 21
141.147
  0
LINE
  8
0
 10
12.6871
 20
141.147
 11
13.1448
 21
141.577
  0
LINE
  8
0
 10
13.1448
 20
141.577
 11
13.5451
 21
142.061
  0
LINE
  8
0
 10
13.5451
 20
142.061
 11
13.8815
 21
142.591
  0
LINE
  8
0
 10
13.8815
 20
142.591
 11
14.1489
 21
143.159
  0
LINE
  8
0
 10
14.1489
 20
143.159
 11
14.3429
 21
143.757
  0
LINE
  8
0
 10
14.3429
 20
143.757
 11
14.4606
 21
144.373
  0
LINE
  8
0
 10
14.4606
 20
144.373
 11
14.5
 21
145
  0
LINE
  8
0
 10
14.5
 20
145
 11
14.5
 21
179
  0
LINE
  8
0
 10
14.5
 20
179
 11
14.4606
 21
179.627
  0
LINE
  8
0
 10
14.4606
 20
179.627
 11
14.3429
 21
180.243
  0
LINE
  8
0
 10
14.3429
 20
180.243
 11
14.1489
 21
180.841
  0
LINE
  8
0
 10
14.1489
 20
180.841
 11
13.8815
 21
181.409
  0
LINE
  8
0
 10
13.8815
 20
181.409
 11
13.5451
 21
181.939
  0
LINE
  8
0
 10
13.5451
 20
181.939
 11
13.1448
 21
182.423
  0
LINE
  8
0
 10
13.1448
 20
182.423
 11
12.6871
 21
182.853
  0
LINE
  8
0
 10
12.6871
 20
182.853
 11
12.1791
 21
183.222
  0
LINE
  8
0
 10
12.1791
 20
183.222
 11
11.6289
 21
183.524
  0
LINE
  8
0
 10
11.6289
 20
183.524
 11
11.0451
 21
183.755
  0
LINE
  8
0
 10
11.0451
 20
183.755
 11
10.4369
 21
183.911
  0
LINE
  8
0
 10
10.4369
 20
183.911
 11
9.81395
 21
183.99
  0
LINE
  8
0
 10
9.81395
 20
183.99
 11
-9.81395
 21
183.99
  0
LINE
  8
0
 10
-9.81395
 20
183.99
 11
-10.4369
 21
183.911
  0
LINE
  8
0
 10
-10.4369
 20
183.911
 11
-11.0451
 21
183.755
  0
LINE
  8
0
 10
-11.0451
 20
183.755
 11
-11.6289
 21
183.524
  0
LINE
  8
0
 10
-11.6289
 20
183.524
 11
-12.1791
 21
183.222
  0
LINE
  8
0
 10
-12.1791
 20
183.222
 11
-12.6871
 21
182.853
  0
LINE
  8
0
 10
-12.6871
 20
182.853
 11
-13.1448
 21
182.423
  0
LINE
  8
0
 10
-13.1448
 20
182.423
 11
-13.5451
 21
181.939
  0
LINE
  8
0
 10
-13.5451
 20
181.939
 11
-13.8815
 21
181.409
  0
LINE
  8
0
 10
-13.8815
 20
181.409
 11
-14.1489
 21
180.841
  0
LINE
  8
0
 10
-14.1489
 20
180.841
 11
-14.3429
 21
180.243
  0
LINE
  8
0
 10
-14.3429
 20
180.243
 11
-14.4606
 21
179.627
  0
LINE
  8
0
 10
-14.4606
 20
179.627
 11
-14.5
 21
179
  0
LINE
  8
0
 10
-14.5
 20
179
 11
-14.5
 21
145
  0
LINE
  8
0
 10
-14.5
 20
145
 11
-14.4606
 21
144.373
  0
LINE
  8
0
 10
-14.4606
 20
144.373
 11
-14.3429
 21
143.757
  0
LINE
  8
0
 10
-14.3429
 20
143.757
 11
-14.1489
 21
143.159
  0
LINE
  8
0
 10
-14.1489
 20
143.159
 11
-13.8815
 21
142.591
  0
LINE
  8
0
 10
-13.8815
 20
142.591
 11
-13.5451
 21
142.061
  0
LINE
  8
0
 10
-13.5451
 20
142.061
 11
-13.1448
 21
141.577
  0
LINE
  8
0
 10
-13.1448
 20
141.577
 11
-12.6871
 21
141.147
  0
LINE
  8
0
 10
-12.6871
 20
141.147
 11
-12.1791
 21
140.778
  0
LINE
  8
0
 10
-12.1791
 20
140.778
 11
-11.6289
 21
140.476
  0
LINE
  8
0
 10
-11.6289
 20
140.476
 11
-11.0451
 21
140.245
  0
LINE
  8
0
 10
-11.0451
 20
140.245
 11
-10.4369
 21
140.089
  0
LINE
  8
0
 10
-10.4369
 20
140.089
 11
-9.81395
 21
140.01
  0
LINE
  8
0
 10
-9.81395
 20
140.01
 11
9.81395
 21
140.01
  0
LINE
  8
0
 10
9.81395
 20
140.01
 11
10.4369
 21
140.089
  0
LINE
  8
0
 10
-9.53748
 20
140.681
 11
-10.1079
 21
140.753
  0
LINE
  8
0
 10
-10.1079
 20
140.753
 11
-10.6648
 21
140.896
  0
LINE
  8
0
 10
-10.6648
 20
140.896
 11
-11.1994
 21
141.107
  0
LINE
  8
0
 10
-11.1994
 20
141.107
 11
-11.7032
 21
141.384
  0
LINE
  8
0
 10
-11.7032
 20
141.384
 11
-12.1684
 21
141.722
  0
LINE
  8
0
 10
-12.1684
 20
141.722
 11
-12.5875
 21
142.116
  0
LINE
  8
0
 10
-12.5875
 20
142.116
 11
-12.954
 21
142.559
  0
LINE
  8
0
 10
-12.954
 20
142.559
 11
-13.2621
 21
143.044
  0
LINE
  8
0
 10
-13.2621
 20
143.044
 11
-13.5069
 21
143.565
  0
LINE
  8
0
 10
-13.5069
 20
143.565
 11
-13.6846
 21
144.111
  0
LINE
  8
0
 10
-13.6846
 20
144.111
 11
-13.7923
 21
144.676
  0
LINE
  8
0
 10
-13.7923
 20
144.676
 11
-13.8284
 21
145.25
  0
LINE
  8
0
 10
-13.8284
 20
145.25
 11
-13.8284
 21
178.75
  0
LINE
  8
0
 10
-13.8284
 20
178.75
 11
-13.7923
 21
179.324
  0
LINE
  8
0
 10
-13.7923
 20
179.324
 11
-13.6846
 21
179.889
  0
LINE
  8
0
 10
-13.6846
 20
179.889
 11
-13.5069
 21
180.435
  0
LINE
  8
0
 10
-13.5069
 20
180.435
 11
-13.2621
 21
180.956
  0
LINE
  8
0
 10
-13.2621
 20
180.956
 11
-12.954
 21
181.441
  0
LINE
  8
0
 10
-12.954
 20
181.441
 11
-12.5875
 21
181.884
  0
LINE
  8
0
 10
-12.5875
 20
181.884
 11
-12.1684
 21
182.278
  0
LINE
  8
0
 10
-12.1684
 20
182.278
 11
-11.7032
 21
182.616
  0
LINE
  8
0
 10
-11.7032
 20
182.616
 11
-11.1994
 21
182.893
  0
LINE
  8
0
 10
-11.1994
 20
182.893
 11
-10.6648
 21
183.104
  0
LINE
  8
0
 10
-10.6648
 20
183.104
 11
-10.1079
 21
183.247
  0
LINE
  8
0
 10
-10.1079
 20
183.247
 11
-9.53748
 21
183.319
  0
LINE
  8
0
 10
-9.53748
 20
183.319
 11
9.53748
 21
183.319
  0
LINE
  8
0
 10
9.53748
 20
183.319
 11
10.1079
 21
183.247
  0
LINE
  8
0
 10
10.1079
 20
183.247
 11
10.6648
 21
183.104
  0
LINE
  8
0
 10
10.6648
 20
183.104
 11
11.1994
 21
182.893
  0
LINE
  8
0
 10
11.1994
 20
182.893
 11
11.7032
 21
182.616
  0
LINE
  8
0
 10
11.7032
 20
182.616
 11
12.1684
 21
182.278
  0
LINE
  8
0
 10
12.1684
 20
182.278
 11
12.5875
 21
181.884
  0
LINE
  8
0
 10
12.5875
 20
181.884
 11
12.954
 21
181.441
  0
LINE
  8
0
 10
12.954
 20
181.441
 11
13.2621
 21
180.956
  0
LINE
  8
0
 10
13.2621
 20
180.956
 11
13.5069
 21
180.435
  0
LINE
  8
0
 10
13.5069
 20
180.435
 11
13.6846
 21
179.889
  0
LINE
  8
0
 10
13.6846
 20
179.889
 11
13.7923
 21
179.324
  0
LINE
  8
0
 10
13.7923
 20
179.324
 11
13.8284
 21
178.75
  0
LINE
  8
0
 10
13.8284
 20
178.75
 11
13.8284
 21
145.25
  0
LINE
  8
0
 10
13.8284
 20
145.25
 11
13.7923
 21
144.676
  0
LINE
  8
0
 10
13.7923
 20
144.676
 11
13.6846
 21
144.111
  0
LINE
  8
0
 10
13.6846
 20
144.111
 11
13.5069
 21
143.565
  0
LINE
  8
0
 10
13.5069
 20
143.565
 11
13.2621
 21
143.044
  0
LINE
  8
0
 10
13.2621
 20
143.044
 11
12.954
 21
142.559
  0
LINE
  8
0
 10
12.954
 20
142.559
 11
12.5875
 21
142.116
  0
LINE
  8
0
 10
12.5875
 20
142.116
 11
12.1684
 21
141.722
  0
LINE
  8
0
 10
12.1684
 20
141.722
 11
11.7032
 21
141.384
  0
LINE
  8
0
 10
11.7032
 20
141.384
 11
11.1994
 21
141.107
  0
LINE
  8
0
 10
11.1994
 20
141.107
 11
10.6648
 21
140.896
  0
LINE
  8
0
 10
10.6648
 20
140.896
 11
10.1079
 21
140.753
  0
LINE
  8
0
 10
10.1079
 20
140.753
 11
9.53748
 21
140.681
  0
LINE
  8
0
 10
9.53748
 20
140.681
 11
-9.53748
 21
140.681
  0
LINE
  8
0
 10
10.4369
 20
86.0886
 11
11.0451
 21
86.2447
  0
LINE
  8
0
 10
11.0451
 20
86.2447
 11
11.6289
 21
86.4759
  0
LINE
  8
0
 10
11.6289
 20
86.4759
 11
12.1791
 21
86.7784
  0
LINE
  8
0
 10
12.1791
 20
86.7784
 11
12.6871
 21
87.1474
  0
LINE
  8
0
 10
12.6871
 20
87.1474
 11
13.1448
 21
87.5773
  0
LINE
  8
0
 10
13.1448
 20
87.5773
 11
13.5451
 21
88.0611
  0
LINE
  8
0
 10
13.5451
 20
88.0611
 11
13.8815
 21
88.5912
  0
LINE
  8
0
 10
13.8815
 20
88.5912
 11
14.1489
 21
89.1594
  0
LINE
  8
0
 10
14.1489
 20
89.1594
 11
14.3429
 21
89.7566
  0
LINE
  8
0
 10
14.3429
 20
89.7566
 11
14.4606
 21
90.3733
  0
LINE
  8
0
 10
14.4606
 20
90.3733
 11
14.5
 21
91
  0
LINE
  8
0
 10
14.5
 20
91
 11
14.5
 21
125
  0
LINE
  8
0
 10
14.5
 20
125
 11
14.4606
 21
125.627
  0
LINE
  8
0
 10
14.4606
 20
125.627
 11
14.3429
 21
126.243
  0
LINE
  8
0
 10
14.3429
 20
126.243
 11
14.1489
 21
126.841
  0
LINE
  8
0
 10
14.1489
 20
126.841
 11
13.8815
 21
127.409
  0
LINE
  8
0
 10
13.8815
 20
127.409
 11
13.5451
 21
127.939
  0
LINE
  8
0
 10
13.5451
 20
127.939
 11
13.1448
 21
128.423
  0
LINE
  8
0
 10
13.1448
 20
128.423
 11
12.6871
 21
128.853
  0
LINE
  8
0
 10
12.6871
 20
128.853
 11
12.1791
 21
129.222
  0
LINE
  8
0
 10
12.1791
 20
129.222
 11
11.6289
 21
129.524
  0
LINE
  8
0
 10
11.6289
 20
129.524
 11
11.0451
 21
129.755
  0
LINE
  8
0
 10
11.0451
 20
129.755
 11
10.4369
 21
129.911
  0
LINE
  8
0
 10
10.4369
 20
129.911
 11
9.81395
 21
129.99
  0
LINE
  8
0
 10
9.81395
 20
129.99
 11
-9.81395
 21
129.99
  0
LINE
  8
0
 10
-9.81395
 20
129.99
 11
-10.4369
 21
129.911
  0
LINE
  8
0
 10
-10.4369
 20
129.911
 11
-11.0451
 21
129.755
  0
LINE
  8
0
 10
-11.0451
 20
129.755
 11
-11.6289
 21
129.524
  0
LINE
  8
0
 10
-11.6289
 20
129.524
 11
-12.1791
 21
129.222
  0
LINE
  8
0
 10
-12.1791
 20
129.222
 11
-12.6871
 21
128.853
  0
LINE
  8
0
 10
-12.6871
 20
128.853
 11
-13.1448
 21
128.423
  0
LINE
  8
0
 10
-13.1448
 20
128.423
 11
-13.5451
 21
127.939
  0
LINE
  8
0
 10
-13.5451
 20
127.939
 11
-13.8815
 21
127.409
  0
LINE
  8
0
 10
-13.8815
 20
127.409
 11
-14.1489
 21
126.841
  0
LINE
  8
0
 10
-14.1489
 20
126.841
 11
-14.3429
 21
126.243
  0
LINE
  8
0
 10
-14.3429
 20
126.243
 11
-14.4606
 21
125.627
  0
LINE
  8
0
 10
-14.4606
 20
125.627
 11
-14.5
 21
125
  0
LINE
  8
0
 10
-14.5
 20
125
 11
-14.5
 21
91
  0
LINE
  8
0
 10
-14.5
 20
91
 11
-14.4606
 21
90.3733
  0
LINE
  8
0
 10
-14.4606
 20
90.3733
 11
-14.3429
 21
89.7566
  0
LINE
  8
0
 10
-14.3429
 20
89.7566
 11
-14.1489
 21
89.1594
  0
LINE
  8
0
 10
-14.1489
 20
89.1594
 11
-13.8815
 21
88.5912
  0
LINE
  8
0
 10
-13.8815
 20
88.5912
 11
-13.5451
 21
88.0611
  0
LINE
  8
0
 10
-13.5451
 20
88.0611
 11
-13.1448
 21
87.5773
  0
LINE
  8
0
 10
-13.1448
 20
87.5773
 11
-12.6871
 21
87.1474
  0
LINE
  8
0
 10
-12.6871
 20
87.1474
 11
-12.1791
 21
86.7784
  0
LINE
  8
0
 10
-12.1791
 20
86.7784
 11
-11.6289
 21
86.4759
  0
LINE
  8
0
 10
-11.6289
 20
86.4759
 11
-11.0451
 21
86.2447
  0
LINE
  8
0
 10
-11.0451
 20
86.2447
 11
-10.4369
 21
86.0886
  0
LINE
  8
0
 10
-10.4369
 20
86.0886
 11
-9.81395
 21
86.0099
  0
LINE
  8
0
 10
-9.81395
 20
86.0099
 11
9.81395
 21
86.0099
  0
LINE
  8
0
 10
9.81395
 20
86.0099
 11
10.4369
 21
86.0886
  0
LINE
  8
0
 10
-9.38246
 20
89.1445
 11
-9.64529
 21
89.1777
  0
LINE
  8
0
 10
-9.64529
 20
89.1777
 11
-9.9019
 21
89.2436
  0
LINE
  8
0
 10
-9.9019
 20
89.2436
 11
-10.1482
 21
89.3412
  0
LINE
  8
0
 10
-10.1482
 20
89.3412
 11
-10.3804
 21
89.4688
  0
LINE
  8
0
 10
-10.3804
 20
89.4688
 11
-10.5947
 21
89.6245
  0
LINE
  8
0
 10
-10.5947
 20
89.6245
 11
-10.7878
 21
89.8059
  0
LINE
  8
0
 10
-10.7878
 20
89.8059
 11
-10.9567
 21
90.01
  0
LINE
  8
0
 10
-10.9567
 20
90.01
 11
-11.0987
 21
90.2337
  0
LINE
  8
0
 10
-11.0987
 20
90.2337
 11
-11.2115
 21
90.4734
  0
LINE
  8
0
 10
-11.2115
 20
90.4734
 11
-11.2934
 21
90.7254
  0
LINE
  8
0
 10
-11.2934
 20
90.7254
 11
-11.343
 21
90.9856
  0
LINE
  8
0
 10
-11.343
 20
90.9856
 11
-11.3596
 21
91.25
  0
LINE
  8
0
 10
-11.3596
 20
91.25
 11
-11.3596
 21
124.75
  0
LINE
  8
0
 10
-11.3596
 20
124.75
 11
-11.343
 21
125.014
  0
LINE
  8
0
 10
-11.343
 20
125.014
 11
-11.2934
 21
125.275
  0
LINE
  8
0
 10
-11.2934
 20
125.275
 11
-11.2115
 21
125.527
  0
LINE
  8
0
 10
-11.2115
 20
125.527
 11
-11.0987
 21
125.766
  0
LINE
  8
0
 10
-11.0987
 20
125.766
 11
-10.9567
 21
125.99
  0
LINE
  8
0
 10
-10.9567
 20
125.99
 11
-10.7878
 21
126.194
  0
LINE
  8
0
 10
-10.7878
 20
126.194
 11
-10.5947
 21
126.375
  0
LINE
  8
0
 10
-10.5947
 20
126.375
 11
-10.3804
 21
126.531
  0
LINE
  8
0
 10
-10.3804
 20
126.531
 11
-10.1482
 21
126.659
  0
LINE
  8
0
 10
-10.1482
 20
126.659
 11
-9.9019
 21
126.756
  0
LINE
  8
0
 10
-9.9019
 20
126.756
 11
-9.64529
 21
126.822
  0
LINE
  8
0
 10
-9.64529
 20
126.822
 11
-9.38246
 21
126.855
  0
LINE
  8
0
 10
-9.38246
 20
126.855
 11
9.38246
 21
126.855
  0
LINE
  8
0
 10
9.38246
 20
126.855
 11
9.64529
 21
126.822
  0
LINE
  8
0
 10
9.64529
 20
126.822
 11
9.9019
 21
126.756
  0
LINE
  8
0
 10
9.9019
 20
126.756
 11
10.1482
 21
126.659
  0
LINE
  8
0
 10
10.1482
 20
126.659
 11
10.3804
 21
126.531
  0
LINE
  8
0
 10
10.3804
 20
126.531
 11
10.5947
 21
126.375
  0
LINE
  8
0
 10
10.5947
 20
126.375
 11
10.7878
 21
126.194
  0
LINE
  8
0
 10
10.7878
 20
126.194
 11
10.9567
 21
125.99
  0
LINE
  8
0
 10
10.9567
 20
125.99
 11
11.0987
 21
125.766
  0
LINE
  8
0
 10
11.0987
 20
125.766
 11
11.2115
 21
125.527
  0
LINE
  8
0
 10
11.2115
 20
125.527
 11
11.2934
 21
125.275
  0
LINE
  8
0
 10
11.2934
 20
125.275
 11
11.343
 21
125.014
  0
LINE
  8
0
 10
11.343
 20
125.014
 11
11.3596
 21
124.75
  0
LINE
  8
0
 10
11.3596
 20
124.75
 11
11.3596
 21
91.25
  0
LINE
  8
0
 10
11.3596
 20
91.25
 11
11.343
 21
90.9856
  0
LINE
  8
0
 10
11.343
 20
90.9856
 11
11.2934
 21
90.7254
  0
LINE
  8
0
 10
11.2934
 20
90.7254
 11
11.2115
 21
90.4734
  0
LINE
  8
0
 10
11.2115
 20
90.4734
 11
11.0987
 21
90.2337
  0
LINE
  8
0
 10
11.0987
 20
90.2337
 11
10.9567
 21
90.01
  0
LINE
  8
0
 10
10.9567
 20
90.01
 11
10.7878
 21
89.8059
  0
LINE
  8
0
 10
10.7878
 20
89.8059
 11
10.5947
 21
89.6245
  0
LINE
  8
0
 10
10.5947
 20
89.6245
 11
10.3804
 21
89.4688
  0
LINE
  8
0
 10
10.3804
 20
89.4688
 11
10.1482
 21
89.3412
  0
LINE
  8
0
 10
10.1482
 20
89.3412
 11
9.9019
 21
89.2436
  0
LINE
  8
0
 10
9.9019
 20
89.2436
 11
9.64529
 21
89.1777
  0
LINE
  8
0
 10
9.64529
 20
89.1777
 11
9.38246
 21
89.1445
  0
LINE
  8
0
 10
9.38246
 20
89.1445
 11
-9.38246
 21
89.1445
  0
ENDSEC
  0
SECTION
  2
OBJECTS
  0
DICTIONARY
  0
ENDSEC
  0
EOF
