  0
SECTION
  2
BLOCKS
  0
ENDSEC
  0
SECTION
  2
ENTITIES
  0
LINE
  8
0
 10
2.9369
 20
140.089
 11
3.54507
 21
140.245
  0
LINE
  8
0
 10
3.54507
 20
140.245
 11
4.12889
 21
140.476
  0
LINE
  8
0
 10
4.12889
 20
140.476
 11
4.67912
 21
140.778
  0
LINE
  8
0
 10
4.67912
 20
140.778
 11
5.18712
 21
141.147
  0
LINE
  8
0
 10
5.18712
 20
141.147
 11
5.64484
 21
141.577
  0
LINE
  8
0
 10
5.64484
 20
141.577
 11
6.04507
 21
142.061
  0
LINE
  8
0
 10
6.04507
 20
142.061
 11
6.38153
 21
142.591
  0
LINE
  8
0
 10
6.38153
 20
142.591
 11
6.64888
 21
143.159
  0
LINE
  8
0
 10
6.64888
 20
143.159
 11
6.84291
 21
143.757
  0
LINE
  8
0
 10
6.84291
 20
143.757
 11
6.96057
 21
144.373
  0
LINE
  8
0
 10
6.96057
 20
144.373
 11
7
 21
145
  0
LINE
  8
0
 10
7
 20
145
 11
7
 21
179
  0
LINE
  8
0
 10
7
 20
179
 11
6.96057
 21
179.627
  0
LINE
  8
0
 10
6.96057
 20
179.627
 11
6.84291
 21
180.243
  0
LINE
  8
0
 10
6.84291
 20
180.243
 11
6.64888
 21
180.841
  0
LINE
  8
0
 10
6.64888
 20
180.841
 11
6.38153
 21
181.409
  0
LINE
  8
0
 10
6.38153
 20
181.409
 11
6.04507
 21
181.939
  0
LINE
  8
0
 10
6.04507
 20
181.939
 11
5.64484
 21
182.423
  0
LINE
  8
0
 10
5.64484
 20
182.423
 11
5.18712
 21
182.853
  0
LINE
  8
0
 10
5.18712
 20
182.853
 11
4.67912
 21
183.222
  0
LINE
  8
0
 10
4.67912
 20
183.222
 11
4.12889
 21
183.524
  0
LINE
  8
0
 10
4.12889
 20
183.524
 11
3.54507
 21
183.755
  0
LINE
  8
0
 10
3.54507
 20
183.755
 11
2.9369
 21
183.911
  0
LINE
  8
0
 10
2.9369
 20
183.911
 11
2.31395
 21
183.99
  0
LINE
  8
0
 10
2.31395
 20
183.99
 11
-2.31395
 21
183.99
  0
LINE
  8
0
 10
-2.31395
 20
183.99
 11
-2.9369
 21
183.911
  0
LINE
  8
0
 10
-2.9369
 20
183.911
 11
-3.54507
 21
183.755
  0
LINE
  8
0
 10
-3.54507
 20
183.755
 11
-4.12889
 21
183.524
  0
LINE
  8
0
 10
-4.12889
 20
183.524
 11
-4.67912
 21
183.222
  0
LINE
  8
0
 10
-4.67912
 20
183.222
 11
-5.18712
 21
182.853
  0
LINE
  8
0
 10
-5.18712
 20
182.853
 11
-5.64484
 21
182.423
  0
LINE
  8
0
 10
-5.64484
 20
182.423
 11
-6.04507
 21
181.939
  0
LINE
  8
0
 10
-6.04507
 20
181.939
 11
-6.38153
 21
181.409
  0
LINE
  8
0
 10
-6.38153
 20
181.409
 11
-6.64888
 21
180.841
  0
LINE
  8
0
 10
-6.64888
 20
180.841
 11
-6.84291
 21
180.243
  0
LINE
  8
0
 10
-6.84291
 20
180.243
 11
-6.96057
 21
179.627
  0
LINE
  8
0
 10
-6.96057
 20
179.627
 11
-7
 21
179
  0
LINE
  8
0
 10
-7
 20
179
 11
-7
 21
145
  0
LINE
  8
0
 10
-7
 20
145
 11
-6.96057
 21
144.373
  0
LINE
  8
0
 10
-6.96057
 20
144.373
 11
-6.84291
 21
143.757
  0
LINE
  8
0
 10
-6.84291
 20
143.757
 11
-6.64888
 21
143.159
  0
LINE
  8
0
 10
-6.64888
 20
143.159
 11
-6.38153
 21
142.591
  0
LINE
  8
0
 10
-6.38153
 20
142.591
 11
-6.04507
 21
142.061
  0
LINE
  8
0
 10
-6.04507
 20
142.061
 11
-5.64484
 21
141.577
  0
LINE
  8
0
 10
-5.64484
 20
141.577
 11
-5.18712
 21
141.147
  0
LINE
  8
0
 10
-5.18712
 20
141.147
 11
-4.67912
 21
140.778
  0
LINE
  8
0
 10
-4.67912
 20
140.778
 11
-4.12889
 21
140.476
  0
LINE
  8
0
 10
-4.12889
 20
140.476
 11
-3.54507
 21
140.245
  0
LINE
  8
0
 10
-3.54507
 20
140.245
 11
-2.9369
 21
140.089
  0
LINE
  8
0
 10
-2.9369
 20
140.089
 11
-2.31395
 21
140.01
  0
LINE
  8
0
 10
-2.31395
 20
140.01
 11
2.31395
 21
140.01
  0
LINE
  8
0
 10
2.31395
 20
140.01
 11
2.9369
 21
140.089
  0
LINE
  8
0
 10
-2.03748
 20
140.681
 11
-2.60791
 21
140.753
  0
LINE
  8
0
 10
-2.60791
 20
140.753
 11
-3.16481
 21
140.896
  0
LINE
  8
0
 10
-3.16481
 20
140.896
 11
-3.6994
 21
141.107
  0
LINE
  8
0
 10
-3.6994
 20
141.107
 11
-4.20325
 21
141.384
  0
LINE
  8
0
 10
-4.20325
 20
141.384
 11
-4.6684
 21
141.722
  0
LINE
  8
0
 10
-4.6684
 20
141.722
 11
-5.08754
 21
142.116
  0
LINE
  8
0
 10
-5.08754
 20
142.116
 11
-5.45403
 21
142.559
  0
LINE
  8
0
 10
-5.45403
 20
142.559
 11
-5.76212
 21
143.044
  0
LINE
  8
0
 10
-5.76212
 20
143.044
 11
-6.00691
 21
143.565
  0
LINE
  8
0
 10
-6.00691
 20
143.565
 11
-6.18459
 21
144.111
  0
LINE
  8
0
 10
-6.18459
 20
144.111
 11
-6.29233
 21
144.676
  0
LINE
  8
0
 10
-6.29233
 20
144.676
 11
-6.32843
 21
145.25
  0
LINE
  8
0
 10
-6.32843
 20
145.25
 11
-6.32843
 21
178.75
  0
LINE
  8
0
 10
-6.32843
 20
178.75
 11
-6.29233
 21
179.324
  0
LINE
  8
0
 10
-6.29233
 20
179.324
 11
-6.18459
 21
179.889
  0
LINE
  8
0
 10
-6.18459
 20
179.889
 11
-6.00691
 21
180.435
  0
LINE
  8
0
 10
-6.00691
 20
180.435
 11
-5.76212
 21
180.956
  0
LINE
  8
0
 10
-5.76212
 20
180.956
 11
-5.45403
 21
181.441
  0
LINE
  8
0
 10
-5.45403
 20
181.441
 11
-5.08754
 21
181.884
  0
LINE
  8
0
 10
-5.08754
 20
181.884
 11
-4.6684
 21
182.278
  0
LINE
  8
0
 10
-4.6684
 20
182.278
 11
-4.20325
 21
182.616
  0
LINE
  8
0
 10
-4.20325
 20
182.616
 11
-3.6994
 21
182.893
  0
LINE
  8
0
 10
-3.6994
 20
182.893
 11
-3.16481
 21
183.104
  0
LINE
  8
0
 10
-3.16481
 20
183.104
 11
-2.60791
 21
183.247
  0
LINE
  8
0
 10
-2.60791
 20
183.247
 11
-2.03748
 21
183.319
  0
LINE
  8
0
 10
-2.03748
 20
183.319
 11
2.03748
 21
183.319
  0
LINE
  8
0
 10
2.03748
 20
183.319
 11
2.60791
 21
183.247
  0
LINE
  8
0
 10
2.60791
 20
183.247
 11
3.16481
 21
183.104
  0
LINE
  8
0
 10
3.16481
 20
183.104
 11
3.6994
 21
182.893
  0
LINE
  8
0
 10
3.6994
 20
182.893
 11
4.20325
 21
182.616
  0
LINE
  8
0
 10
4.20325
 20
182.616
 11
4.6684
 21
182.278
  0
LINE
  8
0
 10
4.6684
 20
182.278
 11
5.08754
 21
181.884
  0
LINE
  8
0
 10
5.08754
 20
181.884
 11
5.45403
 21
181.441
  0
LINE
  8
0
 10
5.45403
 20
181.441
 11
5.76212
 21
180.956
  0
LINE
  8
0
 10
5.76212
 20
180.956
 11
6.00691
 21
180.435
  0
LINE
  8
0
 10
6.00691
 20
180.435
 11
6.18459
 21
179.889
  0
LINE
  8
0
 10
6.18459
 20
179.889
 11
6.29233
 21
179.324
  0
LINE
  8
0
 10
6.29233
 20
179.324
 11
6.32843
 21
178.75
  0
LINE
  8
0
 10
6.32843
 20
178.75
 11
6.32843
 21
145.25
  0
LINE
  8
0
 10
6.32843
 20
145.25
 11
6.29233
 21
144.676
  0
LINE
  8
0
 10
6.29233
 20
144.676
 11
6.18459
 21
144.111
  0
LINE
  8
0
 10
6.18459
 20
144.111
 11
6.00691
 21
143.565
  0
LINE
  8
0
 10
6.00691
 20
143.565
 11
5.76212
 21
143.044
  0
LINE
  8
0
 10
5.76212
 20
143.044
 11
5.45403
 21
142.559
  0
LINE
  8
0
 10
5.45403
 20
142.559
 11
5.08754
 21
142.116
  0
LINE
  8
0
 10
5.08754
 20
142.116
 11
4.6684
 21
141.722
  0
LINE
  8
0
 10
4.6684
 20
141.722
 11
4.20325
 21
141.384
  0
LINE
  8
0
 10
4.20325
 20
141.384
 11
3.6994
 21
141.107
  0
LINE
  8
0
 10
3.6994
 20
141.107
 11
3.16481
 21
140.896
  0
LINE
  8
0
 10
3.16481
 20
140.896
 11
2.60791
 21
140.753
  0
LINE
  8
0
 10
2.60791
 20
140.753
 11
2.03748
 21
140.681
  0
LINE
  8
0
 10
2.03748
 20
140.681
 11
-2.03748
 21
140.681
  0
LINE
  8
0
 10
2.9369
 20
86.0886
 11
3.54507
 21
86.2447
  0
LINE
  8
0
 10
3.54507
 20
86.2447
 11
4.12889
 21
86.4759
  0
LINE
  8
0
 10
4.12889
 20
86.4759
 11
4.67912
 21
86.7784
  0
LINE
  8
0
 10
4.67912
 20
86.7784
 11
5.18712
 21
87.1474
  0
LINE
  8
0
 10
5.18712
 20
87.1474
 11
5.64484
 21
87.5773
  0
LINE
  8
0
 10
5.64484
 20
87.5773
 11
6.04507
 21
88.0611
  0
LINE
  8
0
 10
6.04507
 20
88.0611
 11
6.38153
 21
88.5912
  0
LINE
  8
0
 10
6.38153
 20
88.5912
 11
6.64888
 21
89.1594
  0
LINE
  8
0
 10
6.64888
 20
89.1594
 11
6.84291
 21
89.7566
  0
LINE
  8
0
 10
6.84291
 20
89.7566
 11
6.96057
 21
90.3733
  0
LINE
  8
0
 10
6.96057
 20
90.3733
 11
7
 21
91
  0
LINE
  8
0
 10
7
 20
91
 11
7
 21
125
  0
LINE
  8
0
 10
7
 20
125
 11
6.96057
 21
125.627
  0
LINE
  8
0
 10
6.96057
 20
125.627
 11
6.84291
 21
126.243
  0
LINE
  8
0
 10
6.84291
 20
126.243
 11
6.64888
 21
126.841
  0
LINE
  8
0
 10
6.64888
 20
126.841
 11
6.38153
 21
127.409
  0
LINE
  8
0
 10
6.38153
 20
127.409
 11
6.04507
 21
127.939
  0
LINE
  8
0
 10
6.04507
 20
127.939
 11
5.64484
 21
128.423
  0
LINE
  8
0
 10
5.64484
 20
128.423
 11
5.18712
 21
128.853
  0
LINE
  8
0
 10
5.18712
 20
128.853
 11
4.67912
 21
129.222
  0
LINE
  8
0
 10
4.67912
 20
129.222
 11
4.12889
 21
129.524
  0
LINE
  8
0
 10
4.12889
 20
129.524
 11
3.54507
 21
129.755
  0
LINE
  8
0
 10
3.54507
 20
129.755
 11
2.9369
 21
129.911
  0
LINE
  8
0
 10
2.9369
 20
129.911
 11
2.31395
 21
129.99
  0
LINE
  8
0
 10
2.31395
 20
129.99
 11
-2.31395
 21
129.99
  0
LINE
  8
0
 10
-2.31395
 20
129.99
 11
-2.9369
 21
129.911
  0
LINE
  8
0
 10
-2.9369
 20
129.911
 11
-3.54507
 21
129.755
  0
LINE
  8
0
 10
-3.54507
 20
129.755
 11
-4.12889
 21
129.524
  0
LINE
  8
0
 10
-4.12889
 20
129.524
 11
-4.67912
 21
129.222
  0
LINE
  8
0
 10
-4.67912
 20
129.222
 11
-5.18712
 21
128.853
  0
LINE
  8
0
 10
-5.18712
 20
128.853
 11
-5.64484
 21
128.423
  0
LINE
  8
0
 10
-5.64484
 20
128.423
 11
-6.04507
 21
127.939
  0
LINE
  8
0
 10
-6.04507
 20
127.939
 11
-6.38153
 21
127.409
  0
LINE
  8
0
 10
-6.38153
 20
127.409
 11
-6.64888
 21
126.841
  0
LINE
  8
0
 10
-6.64888
 20
126.841
 11
-6.84291
 21
126.243
  0
LINE
  8
0
 10
-6.84291
 20
126.243
 11
-6.96057
 21
125.627
  0
LINE
  8
0
 10
-6.96057
 20
125.627
 11
-7
 21
125
  0
LINE
  8
0
 10
-7
 20
125
 11
-7
 21
91
  0
LINE
  8
0
 10
-7
 20
91
 11
-6.96057
 21
90.3733
  0
LINE
  8
0
 10
-6.96057
 20
90.3733
 11
-6.84291
 21
89.7566
  0
LINE
  8
0
 10
-6.84291
 20
89.7566
 11
-6.64888
 21
89.1594
  0
LINE
  8
0
 10
-6.64888
 20
89.1594
 11
-6.38153
 21
88.5912
  0
LINE
  8
0
 10
-6.38153
 20
88.5912
 11
-6.04507
 21
88.0611
  0
LINE
  8
0
 10
-6.04507
 20
88.0611
 11
-5.64484
 21
87.5773
  0
LINE
  8
0
 10
-5.64484
 20
87.5773
 11
-5.18712
 21
87.1474
  0
LINE
  8
0
 10
-5.18712
 20
87.1474
 11
-4.67912
 21
86.7784
  0
LINE
  8
0
 10
-4.67912
 20
86.7784
 11
-4.12889
 21
86.4759
  0
LINE
  8
0
 10
-4.12889
 20
86.4759
 11
-3.54507
 21
86.2447
  0
LINE
  8
0
 10
-3.54507
 20
86.2447
 11
-2.9369
 21
86.0886
  0
LINE
  8
0
 10
-2.9369
 20
86.0886
 11
-2.31395
 21
86.0099
  0
LINE
  8
0
 10
-2.31395
 20
86.0099
 11
2.31395
 21
86.0099
  0
LINE
  8
0
 10
2.31395
 20
86.0099
 11
2.9369
 21
86.0886
  0
LINE
  8
0
 10
-1.88246
 20
89.1445
 11
-2.14529
 21
89.1777
  0
LINE
  8
0
 10
-2.14529
 20
89.1777
 11
-2.4019
 21
89.2436
  0
LINE
  8
0
 10
-2.4019
 20
89.2436
 11
-2.64822
 21
89.3412
  0
LINE
  8
0
 10
-2.64822
 20
89.3412
 11
-2.88039
 21
89.4688
  0
LINE
  8
0
 10
-2.88039
 20
89.4688
 11
-3.09473
 21
89.6245
  0
LINE
  8
0
 10
-3.09473
 20
89.6245
 11
-3.28784
 21
89.8059
  0
LINE
  8
0
 10
-3.28784
 20
89.8059
 11
-3.45673
 21
90.01
  0
LINE
  8
0
 10
-3.45673
 20
90.01
 11
-3.59868
 21
90.2337
  0
LINE
  8
0
 10
-3.59868
 20
90.2337
 11
-3.71149
 21
90.4734
  0
LINE
  8
0
 10
-3.71149
 20
90.4734
 11
-3.79335
 21
90.7254
  0
LINE
  8
0
 10
-3.79335
 20
90.7254
 11
-3.84299
 21
90.9856
  0
LINE
  8
0
 10
-3.84299
 20
90.9856
 11
-3.85962
 21
91.25
  0
LINE
  8
0
 10
-3.85962
 20
91.25
 11
-3.85962
 21
124.75
  0
LINE
  8
0
 10
-3.85962
 20
124.75
 11
-3.84299
 21
125.014
  0
LINE
  8
0
 10
-3.84299
 20
125.014
 11
-3.79335
 21
125.275
  0
LINE
  8
0
 10
-3.79335
 20
125.275
 11
-3.71149
 21
125.527
  0
LINE
  8
0
 10
-3.71149
 20
125.527
 11
-3.59868
 21
125.766
  0
LINE
  8
0
 10
-3.59868
 20
125.766
 11
-3.45673
 21
125.99
  0
LINE
  8
0
 10
-3.45673
 20
125.99
 11
-3.28784
 21
126.194
  0
LINE
  8
0
 10
-3.28784
 20
126.194
 11
-3.09473
 21
126.375
  0
LINE
  8
0
 10
-3.09473
 20
126.375
 11
-2.88039
 21
126.531
  0
LINE
  8
0
 10
-2.88039
 20
126.531
 11
-2.64822
 21
126.659
  0
LINE
  8
0
 10
-2.64822
 20
126.659
 11
-2.4019
 21
126.756
  0
LINE
  8
0
 10
-2.4019
 20
126.756
 11
-2.14529
 21
126.822
  0
LINE
  8
0
 10
-2.14529
 20
126.822
 11
-1.88246
 21
126.855
  0
LINE
  8
0
 10
-1.88246
 20
126.855
 11
1.88246
 21
126.855
  0
LINE
  8
0
 10
1.88246
 20
126.855
 11
2.14529
 21
126.822
  0
LINE
  8
0
 10
2.14529
 20
126.822
 11
2.4019
 21
126.756
  0
LINE
  8
0
 10
2.4019
 20
126.756
 11
2.64822
 21
126.659
  0
LINE
  8
0
 10
2.64822
 20
126.659
 11
2.88039
 21
126.531
  0
LINE
  8
0
 10
2.88039
 20
126.531
 11
3.09473
 21
126.375
  0
LINE
  8
0
 10
3.09473
 20
126.375
 11
3.28784
 21
126.194
  0
LINE
  8
0
 10
3.28784
 20
126.194
 11
3.45673
 21
125.99
  0
LINE
  8
0
 10
3.45673
 20
125.99
 11
3.59868
 21
125.766
  0
LINE
  8
0
 10
3.59868
 20
125.766
 11
3.71149
 21
125.527
  0
LINE
  8
0
 10
3.71149
 20
125.527
 11
3.79335
 21
125.275
  0
LINE
  8
0
 10
3.79335
 20
125.275
 11
3.84299
 21
125.014
  0
LINE
  8
0
 10
3.84299
 20
125.014
 11
3.85962
 21
124.75
  0
LINE
  8
0
 10
3.85962
 20
124.75
 11
3.85962
 21
91.25
  0
LINE
  8
0
 10
3.85962
 20
91.25
 11
3.84299
 21
90.9856
  0
LINE
  8
0
 10
3.84299
 20
90.9856
 11
3.79335
 21
90.7254
  0
LINE
  8
0
 10
3.79335
 20
90.7254
 11
3.71149
 21
90.4734
  0
LINE
  8
0
 10
3.71149
 20
90.4734
 11
3.59868
 21
90.2337
  0
LINE
  8
0
 10
3.59868
 20
90.2337
 11
3.45673
 21
90.01
  0
LINE
  8
0
 10
3.45673
 20
90.01
 11
3.28784
 21
89.8059
  0
LINE
  8
0
 10
3.28784
 20
89.8059
 11
3.09473
 21
89.6245
  0
LINE
  8
0
 10
3.09473
 20
89.6245
 11
2.88039
 21
89.4688
  0
LINE
  8
0
 10
2.88039
 20
89.4688
 11
2.64822
 21
89.3412
  0
LINE
  8
0
 10
2.64822
 20
89.3412
 11
2.4019
 21
89.2436
  0
LINE
  8
0
 10
2.4019
 20
89.2436
 11
2.14529
 21
89.1777
  0
LINE
  8
0
 10
2.14529
 20
89.1777
 11
1.88246
 21
89.1445
  0
LINE
  8
0
 10
1.88246
 20
89.1445
 11
-1.88246
 21
89.1445
  0
ENDSEC
  0
SECTION
  2
OBJECTS
  0
DICTIONARY
  0
ENDSEC
  0
EOF
