  0
SECTION
  2
BLOCKS
  0
ENDSEC
  0
SECTION
  2
ENTITIES
  0
LINE
  8
0
 10
-6
 20
221.507
 11
-5.64484
 21
221.077
  0
LINE
  8
0
 10
-5.64484
 20
221.077
 11
-5.18712
 21
220.647
  0
LINE
  8
0
 10
-5.18712
 20
220.647
 11
-4.67912
 21
220.278
  0
LINE
  8
0
 10
-4.67912
 20
220.278
 11
-4.12889
 21
219.976
  0
LINE
  8
0
 10
-4.12889
 20
219.976
 11
-3.54507
 21
219.745
  0
LINE
  8
0
 10
-3.54507
 20
219.745
 11
-2.9369
 21
219.589
  0
LINE
  8
0
 10
-2.9369
 20
219.589
 11
-2.31395
 21
219.51
  0
LINE
  8
0
 10
-2.31395
 20
219.51
 11
2.31395
 21
219.51
  0
LINE
  8
0
 10
2.31395
 20
219.51
 11
2.9369
 21
219.589
  0
LINE
  8
0
 10
2.9369
 20
219.589
 11
3.54507
 21
219.745
  0
LINE
  8
0
 10
3.54507
 20
219.745
 11
4.12889
 21
219.976
  0
LINE
  8
0
 10
4.12889
 20
219.976
 11
4.67912
 21
220.278
  0
LINE
  8
0
 10
4.67912
 20
220.278
 11
5.18712
 21
220.647
  0
LINE
  8
0
 10
5.18712
 20
220.647
 11
5.64484
 21
221.077
  0
LINE
  8
0
 10
5.64484
 20
221.077
 11
6.04507
 21
221.561
  0
LINE
  8
0
 10
6.04507
 20
221.561
 11
6.38153
 21
222.091
  0
LINE
  8
0
 10
6.38153
 20
222.091
 11
6.64888
 21
222.659
  0
LINE
  8
0
 10
6.64888
 20
222.659
 11
6.84291
 21
223.257
  0
LINE
  8
0
 10
6.84291
 20
223.257
 11
6.96057
 21
223.873
  0
LINE
  8
0
 10
6.96057
 20
223.873
 11
7
 21
224.5
  0
LINE
  8
0
 10
7
 20
224.5
 11
7
 21
243.5
  0
LINE
  8
0
 10
7
 20
243.5
 11
6.96057
 21
244.127
  0
LINE
  8
0
 10
6.96057
 20
244.127
 11
6.84291
 21
244.743
  0
LINE
  8
0
 10
6.84291
 20
244.743
 11
6.64888
 21
245.341
  0
LINE
  8
0
 10
6.64888
 20
245.341
 11
6.38153
 21
245.909
  0
LINE
  8
0
 10
6.38153
 20
245.909
 11
6.04507
 21
246.439
  0
LINE
  8
0
 10
6.04507
 20
246.439
 11
5.64484
 21
246.923
  0
LINE
  8
0
 10
5.64484
 20
246.923
 11
5.18712
 21
247.353
  0
LINE
  8
0
 10
5.18712
 20
247.353
 11
4.67912
 21
247.722
  0
LINE
  8
0
 10
4.67912
 20
247.722
 11
4.12889
 21
248.024
  0
LINE
  8
0
 10
4.12889
 20
248.024
 11
3.54507
 21
248.255
  0
LINE
  8
0
 10
3.54507
 20
248.255
 11
2.9369
 21
248.411
  0
LINE
  8
0
 10
2.9369
 20
248.411
 11
2.31395
 21
248.49
  0
LINE
  8
0
 10
2.31395
 20
248.49
 11
-2.31395
 21
248.49
  0
LINE
  8
0
 10
-2.31395
 20
248.49
 11
-2.9369
 21
248.411
  0
LINE
  8
0
 10
-2.9369
 20
248.411
 11
-3.54507
 21
248.255
  0
LINE
  8
0
 10
-3.54507
 20
248.255
 11
-4.12889
 21
248.024
  0
LINE
  8
0
 10
-4.12889
 20
248.024
 11
-4.67912
 21
247.722
  0
LINE
  8
0
 10
-4.67912
 20
247.722
 11
-5.18712
 21
247.353
  0
LINE
  8
0
 10
-5.18712
 20
247.353
 11
-5.64484
 21
246.923
  0
LINE
  8
0
 10
-5.64484
 20
246.923
 11
-6
 21
246.493
  0
LINE
  8
0
 10
-6
 20
246.493
 11
-6
 21
248.99
  0
LINE
  8
0
 10
-6
 20
248.99
 11
-9
 21
248.99
  0
LINE
  8
0
 10
-9
 20
248.99
 11
-9
 21
219.01
  0
LINE
  8
0
 10
-9
 20
219.01
 11
-6
 21
219.01
  0
LINE
  8
0
 10
-6
 20
219.01
 11
-6
 21
221.507
  0
LINE
  8
0
 10
-2.25116
 20
220.508
 11
-2.74951
 21
220.571
  0
LINE
  8
0
 10
-2.74951
 20
220.571
 11
-3.23605
 21
220.696
  0
LINE
  8
0
 10
-3.23605
 20
220.696
 11
-3.70311
 21
220.881
  0
LINE
  8
0
 10
-3.70311
 20
220.881
 11
-4.1433
 21
221.123
  0
LINE
  8
0
 10
-4.1433
 20
221.123
 11
-4.54968
 21
221.418
  0
LINE
  8
0
 10
-4.54968
 20
221.418
 11
-4.91586
 21
221.762
  0
LINE
  8
0
 10
-4.91586
 20
221.762
 11
-5.23605
 21
222.149
  0
LINE
  8
0
 10
-5.23605
 20
222.149
 11
-5.50522
 21
222.573
  0
LINE
  8
0
 10
-5.50522
 20
222.573
 11
-5.7191
 21
223.028
  0
LINE
  8
0
 10
-5.7191
 20
223.028
 11
-5.87433
 21
223.505
  0
LINE
  8
0
 10
-5.87433
 20
223.505
 11
-5.96844
 21
223.999
  0
LINE
  8
0
 10
-5.96844
 20
223.999
 11
-6
 21
224.5
  0
LINE
  8
0
 10
-6
 20
224.5
 11
-6
 21
243.5
  0
LINE
  8
0
 10
-6
 20
243.5
 11
-5.96844
 21
244.001
  0
LINE
  8
0
 10
-5.96844
 20
244.001
 11
-5.87433
 21
244.495
  0
LINE
  8
0
 10
-5.87433
 20
244.495
 11
-5.7191
 21
244.972
  0
LINE
  8
0
 10
-5.7191
 20
244.972
 11
-5.50522
 21
245.427
  0
LINE
  8
0
 10
-5.50522
 20
245.427
 11
-5.23605
 21
245.851
  0
LINE
  8
0
 10
-5.23605
 20
245.851
 11
-4.91586
 21
246.238
  0
LINE
  8
0
 10
-4.91586
 20
246.238
 11
-4.54968
 21
246.582
  0
LINE
  8
0
 10
-4.54968
 20
246.582
 11
-4.1433
 21
246.877
  0
LINE
  8
0
 10
-4.1433
 20
246.877
 11
-3.70311
 21
247.119
  0
LINE
  8
0
 10
-3.70311
 20
247.119
 11
-3.23605
 21
247.304
  0
LINE
  8
0
 10
-3.23605
 20
247.304
 11
-2.74951
 21
247.429
  0
LINE
  8
0
 10
-2.74951
 20
247.429
 11
-2.25116
 21
247.492
  0
LINE
  8
0
 10
-2.25116
 20
247.492
 11
2.25116
 21
247.492
  0
LINE
  8
0
 10
2.25116
 20
247.492
 11
2.74951
 21
247.429
  0
LINE
  8
0
 10
2.74951
 20
247.429
 11
3.23605
 21
247.304
  0
LINE
  8
0
 10
3.23605
 20
247.304
 11
3.70311
 21
247.119
  0
LINE
  8
0
 10
3.70311
 20
247.119
 11
4.1433
 21
246.877
  0
LINE
  8
0
 10
4.1433
 20
246.877
 11
4.54968
 21
246.582
  0
LINE
  8
0
 10
4.54968
 20
246.582
 11
4.91586
 21
246.238
  0
LINE
  8
0
 10
4.91586
 20
246.238
 11
5.23605
 21
245.851
  0
LINE
  8
0
 10
5.23605
 20
245.851
 11
5.50522
 21
245.427
  0
LINE
  8
0
 10
5.50522
 20
245.427
 11
5.7191
 21
244.972
  0
LINE
  8
0
 10
5.7191
 20
244.972
 11
5.87433
 21
244.495
  0
LINE
  8
0
 10
5.87433
 20
244.495
 11
5.96844
 21
244.001
  0
LINE
  8
0
 10
5.96844
 20
244.001
 11
6
 21
243.5
  0
LINE
  8
0
 10
6
 20
243.5
 11
6
 21
224.5
  0
LINE
  8
0
 10
6
 20
224.5
 11
5.96844
 21
223.999
  0
LINE
  8
0
 10
5.96844
 20
223.999
 11
5.87433
 21
223.505
  0
LINE
  8
0
 10
5.87433
 20
223.505
 11
5.7191
 21
223.028
  0
LINE
  8
0
 10
5.7191
 20
223.028
 11
5.50522
 21
222.573
  0
LINE
  8
0
 10
5.50522
 20
222.573
 11
5.23605
 21
222.149
  0
LINE
  8
0
 10
5.23605
 20
222.149
 11
4.91586
 21
221.762
  0
LINE
  8
0
 10
4.91586
 20
221.762
 11
4.54968
 21
221.418
  0
LINE
  8
0
 10
4.54968
 20
221.418
 11
4.1433
 21
221.123
  0
LINE
  8
0
 10
4.1433
 20
221.123
 11
3.70311
 21
220.881
  0
LINE
  8
0
 10
3.70311
 20
220.881
 11
3.23605
 21
220.696
  0
LINE
  8
0
 10
3.23605
 20
220.696
 11
2.74951
 21
220.571
  0
LINE
  8
0
 10
2.74951
 20
220.571
 11
2.25116
 21
220.508
  0
LINE
  8
0
 10
2.25116
 20
220.508
 11
-2.25116
 21
220.508
  0
LINE
  8
0
 10
-6
 20
182.507
 11
-5.64484
 21
182.077
  0
LINE
  8
0
 10
-5.64484
 20
182.077
 11
-5.18712
 21
181.647
  0
LINE
  8
0
 10
-5.18712
 20
181.647
 11
-4.67912
 21
181.278
  0
LINE
  8
0
 10
-4.67912
 20
181.278
 11
-4.12889
 21
180.976
  0
LINE
  8
0
 10
-4.12889
 20
180.976
 11
-3.54507
 21
180.745
  0
LINE
  8
0
 10
-3.54507
 20
180.745
 11
-2.9369
 21
180.589
  0
LINE
  8
0
 10
-2.9369
 20
180.589
 11
-2.31395
 21
180.51
  0
LINE
  8
0
 10
-2.31395
 20
180.51
 11
2.31395
 21
180.51
  0
LINE
  8
0
 10
2.31395
 20
180.51
 11
2.9369
 21
180.589
  0
LINE
  8
0
 10
2.9369
 20
180.589
 11
3.54507
 21
180.745
  0
LINE
  8
0
 10
3.54507
 20
180.745
 11
4.12889
 21
180.976
  0
LINE
  8
0
 10
4.12889
 20
180.976
 11
4.67912
 21
181.278
  0
LINE
  8
0
 10
4.67912
 20
181.278
 11
5.18712
 21
181.647
  0
LINE
  8
0
 10
5.18712
 20
181.647
 11
5.64484
 21
182.077
  0
LINE
  8
0
 10
5.64484
 20
182.077
 11
6.04507
 21
182.561
  0
LINE
  8
0
 10
6.04507
 20
182.561
 11
6.38153
 21
183.091
  0
LINE
  8
0
 10
6.38153
 20
183.091
 11
6.64888
 21
183.659
  0
LINE
  8
0
 10
6.64888
 20
183.659
 11
6.84291
 21
184.257
  0
LINE
  8
0
 10
6.84291
 20
184.257
 11
6.96057
 21
184.873
  0
LINE
  8
0
 10
6.96057
 20
184.873
 11
7
 21
185.5
  0
LINE
  8
0
 10
7
 20
185.5
 11
7
 21
204.5
  0
LINE
  8
0
 10
7
 20
204.5
 11
6.96057
 21
205.127
  0
LINE
  8
0
 10
6.96057
 20
205.127
 11
6.84291
 21
205.743
  0
LINE
  8
0
 10
6.84291
 20
205.743
 11
6.64888
 21
206.341
  0
LINE
  8
0
 10
6.64888
 20
206.341
 11
6.38153
 21
206.909
  0
LINE
  8
0
 10
6.38153
 20
206.909
 11
6.04507
 21
207.439
  0
LINE
  8
0
 10
6.04507
 20
207.439
 11
5.64484
 21
207.923
  0
LINE
  8
0
 10
5.64484
 20
207.923
 11
5.18712
 21
208.353
  0
LINE
  8
0
 10
5.18712
 20
208.353
 11
4.67912
 21
208.722
  0
LINE
  8
0
 10
4.67912
 20
208.722
 11
4.12889
 21
209.024
  0
LINE
  8
0
 10
4.12889
 20
209.024
 11
3.54507
 21
209.255
  0
LINE
  8
0
 10
3.54507
 20
209.255
 11
2.9369
 21
209.411
  0
LINE
  8
0
 10
2.9369
 20
209.411
 11
2.31395
 21
209.49
  0
LINE
  8
0
 10
2.31395
 20
209.49
 11
-2.31395
 21
209.49
  0
LINE
  8
0
 10
-2.31395
 20
209.49
 11
-2.9369
 21
209.411
  0
LINE
  8
0
 10
-2.9369
 20
209.411
 11
-3.54507
 21
209.255
  0
LINE
  8
0
 10
-3.54507
 20
209.255
 11
-4.12889
 21
209.024
  0
LINE
  8
0
 10
-4.12889
 20
209.024
 11
-4.67912
 21
208.722
  0
LINE
  8
0
 10
-4.67912
 20
208.722
 11
-5.18712
 21
208.353
  0
LINE
  8
0
 10
-5.18712
 20
208.353
 11
-5.64484
 21
207.923
  0
LINE
  8
0
 10
-5.64484
 20
207.923
 11
-6
 21
207.493
  0
LINE
  8
0
 10
-6
 20
207.493
 11
-6
 21
209.99
  0
LINE
  8
0
 10
-6
 20
209.99
 11
-9
 21
209.99
  0
LINE
  8
0
 10
-9
 20
209.99
 11
-9
 21
180.01
  0
LINE
  8
0
 10
-9
 20
180.01
 11
-6
 21
180.01
  0
LINE
  8
0
 10
-6
 20
180.01
 11
-6
 21
182.507
  0
LINE
  8
0
 10
-2.24316
 20
181.635
 11
-2.72565
 21
181.696
  0
LINE
  8
0
 10
-2.72565
 20
181.696
 11
-3.1967
 21
181.817
  0
LINE
  8
0
 10
-3.1967
 20
181.817
 11
-3.64888
 21
181.996
  0
LINE
  8
0
 10
-3.64888
 20
181.996
 11
-4.07506
 21
182.23
  0
LINE
  8
0
 10
-4.07506
 20
182.23
 11
-4.46851
 21
182.516
  0
LINE
  8
0
 10
-4.46851
 20
182.516
 11
-4.82301
 21
182.849
  0
LINE
  8
0
 10
-4.82301
 20
182.849
 11
-5.13301
 21
183.224
  0
LINE
  8
0
 10
-5.13301
 20
183.224
 11
-5.3936
 21
183.634
  0
LINE
  8
0
 10
-5.3936
 20
183.634
 11
-5.60068
 21
184.074
  0
LINE
  8
0
 10
-5.60068
 20
184.074
 11
-5.75096
 21
184.537
  0
LINE
  8
0
 10
-5.75096
 20
184.537
 11
-5.84209
 21
185.015
  0
LINE
  8
0
 10
-5.84209
 20
185.015
 11
-5.87262
 21
185.5
  0
LINE
  8
0
 10
-5.87262
 20
185.5
 11
-5.87262
 21
204.5
  0
LINE
  8
0
 10
-5.87262
 20
204.5
 11
-5.84209
 21
204.985
  0
LINE
  8
0
 10
-5.84209
 20
204.985
 11
-5.75096
 21
205.463
  0
LINE
  8
0
 10
-5.75096
 20
205.463
 11
-5.60068
 21
205.926
  0
LINE
  8
0
 10
-5.60068
 20
205.926
 11
-5.3936
 21
206.366
  0
LINE
  8
0
 10
-5.3936
 20
206.366
 11
-5.13301
 21
206.776
  0
LINE
  8
0
 10
-5.13301
 20
206.776
 11
-4.82301
 21
207.151
  0
LINE
  8
0
 10
-4.82301
 20
207.151
 11
-4.46851
 21
207.484
  0
LINE
  8
0
 10
-4.46851
 20
207.484
 11
-4.07506
 21
207.77
  0
LINE
  8
0
 10
-4.07506
 20
207.77
 11
-3.64888
 21
208.004
  0
LINE
  8
0
 10
-3.64888
 20
208.004
 11
-3.1967
 21
208.183
  0
LINE
  8
0
 10
-3.1967
 20
208.183
 11
-2.72565
 21
208.304
  0
LINE
  8
0
 10
-2.72565
 20
208.304
 11
-2.24316
 21
208.365
  0
LINE
  8
0
 10
-2.24316
 20
208.365
 11
2.24316
 21
208.365
  0
LINE
  8
0
 10
2.24316
 20
208.365
 11
2.72565
 21
208.304
  0
LINE
  8
0
 10
2.72565
 20
208.304
 11
3.1967
 21
208.183
  0
LINE
  8
0
 10
3.1967
 20
208.183
 11
3.64888
 21
208.004
  0
LINE
  8
0
 10
3.64888
 20
208.004
 11
4.07506
 21
207.77
  0
LINE
  8
0
 10
4.07506
 20
207.77
 11
4.46851
 21
207.484
  0
LINE
  8
0
 10
4.46851
 20
207.484
 11
4.82301
 21
207.151
  0
LINE
  8
0
 10
4.82301
 20
207.151
 11
5.13301
 21
206.776
  0
LINE
  8
0
 10
5.13301
 20
206.776
 11
5.3936
 21
206.366
  0
LINE
  8
0
 10
5.3936
 20
206.366
 11
5.60068
 21
205.926
  0
LINE
  8
0
 10
5.60068
 20
205.926
 11
5.75096
 21
205.463
  0
LINE
  8
0
 10
5.75096
 20
205.463
 11
5.84209
 21
204.985
  0
LINE
  8
0
 10
5.84209
 20
204.985
 11
5.87262
 21
204.5
  0
LINE
  8
0
 10
5.87262
 20
204.5
 11
5.87262
 21
185.5
  0
LINE
  8
0
 10
5.87262
 20
185.5
 11
5.84209
 21
185.015
  0
LINE
  8
0
 10
5.84209
 20
185.015
 11
5.75096
 21
184.537
  0
LINE
  8
0
 10
5.75096
 20
184.537
 11
5.60068
 21
184.074
  0
LINE
  8
0
 10
5.60068
 20
184.074
 11
5.3936
 21
183.634
  0
LINE
  8
0
 10
5.3936
 20
183.634
 11
5.13301
 21
183.224
  0
LINE
  8
0
 10
5.13301
 20
183.224
 11
4.82301
 21
182.849
  0
LINE
  8
0
 10
4.82301
 20
182.849
 11
4.46851
 21
182.516
  0
LINE
  8
0
 10
4.46851
 20
182.516
 11
4.07506
 21
182.23
  0
LINE
  8
0
 10
4.07506
 20
182.23
 11
3.64888
 21
181.996
  0
LINE
  8
0
 10
3.64888
 20
181.996
 11
3.1967
 21
181.817
  0
LINE
  8
0
 10
3.1967
 20
181.817
 11
2.72565
 21
181.696
  0
LINE
  8
0
 10
2.72565
 20
181.696
 11
2.24316
 21
181.635
  0
LINE
  8
0
 10
2.24316
 20
181.635
 11
-2.24316
 21
181.635
  0
LINE
  8
0
 10
-6
 20
143.507
 11
-5.64484
 21
143.077
  0
LINE
  8
0
 10
-5.64484
 20
143.077
 11
-5.18712
 21
142.647
  0
LINE
  8
0
 10
-5.18712
 20
142.647
 11
-4.67912
 21
142.278
  0
LINE
  8
0
 10
-4.67912
 20
142.278
 11
-4.12889
 21
141.976
  0
LINE
  8
0
 10
-4.12889
 20
141.976
 11
-3.54507
 21
141.745
  0
LINE
  8
0
 10
-3.54507
 20
141.745
 11
-2.9369
 21
141.589
  0
LINE
  8
0
 10
-2.9369
 20
141.589
 11
-2.31395
 21
141.51
  0
LINE
  8
0
 10
-2.31395
 20
141.51
 11
2.31395
 21
141.51
  0
LINE
  8
0
 10
2.31395
 20
141.51
 11
2.9369
 21
141.589
  0
LINE
  8
0
 10
2.9369
 20
141.589
 11
3.54507
 21
141.745
  0
LINE
  8
0
 10
3.54507
 20
141.745
 11
4.12889
 21
141.976
  0
LINE
  8
0
 10
4.12889
 20
141.976
 11
4.67912
 21
142.278
  0
LINE
  8
0
 10
4.67912
 20
142.278
 11
5.18712
 21
142.647
  0
LINE
  8
0
 10
5.18712
 20
142.647
 11
5.64484
 21
143.077
  0
LINE
  8
0
 10
5.64484
 20
143.077
 11
6.04507
 21
143.561
  0
LINE
  8
0
 10
6.04507
 20
143.561
 11
6.38153
 21
144.091
  0
LINE
  8
0
 10
6.38153
 20
144.091
 11
6.64888
 21
144.659
  0
LINE
  8
0
 10
6.64888
 20
144.659
 11
6.84291
 21
145.257
  0
LINE
  8
0
 10
6.84291
 20
145.257
 11
6.96057
 21
145.873
  0
LINE
  8
0
 10
6.96057
 20
145.873
 11
7
 21
146.5
  0
LINE
  8
0
 10
7
 20
146.5
 11
7
 21
165.5
  0
LINE
  8
0
 10
7
 20
165.5
 11
6.96057
 21
166.127
  0
LINE
  8
0
 10
6.96057
 20
166.127
 11
6.84291
 21
166.743
  0
LINE
  8
0
 10
6.84291
 20
166.743
 11
6.64888
 21
167.341
  0
LINE
  8
0
 10
6.64888
 20
167.341
 11
6.38153
 21
167.909
  0
LINE
  8
0
 10
6.38153
 20
167.909
 11
6.04507
 21
168.439
  0
LINE
  8
0
 10
6.04507
 20
168.439
 11
5.64484
 21
168.923
  0
LINE
  8
0
 10
5.64484
 20
168.923
 11
5.18712
 21
169.353
  0
LINE
  8
0
 10
5.18712
 20
169.353
 11
4.67912
 21
169.722
  0
LINE
  8
0
 10
4.67912
 20
169.722
 11
4.12889
 21
170.024
  0
LINE
  8
0
 10
4.12889
 20
170.024
 11
3.54507
 21
170.255
  0
LINE
  8
0
 10
3.54507
 20
170.255
 11
2.9369
 21
170.411
  0
LINE
  8
0
 10
2.9369
 20
170.411
 11
2.31395
 21
170.49
  0
LINE
  8
0
 10
2.31395
 20
170.49
 11
-2.31395
 21
170.49
  0
LINE
  8
0
 10
-2.31395
 20
170.49
 11
-2.9369
 21
170.411
  0
LINE
  8
0
 10
-2.9369
 20
170.411
 11
-3.54507
 21
170.255
  0
LINE
  8
0
 10
-3.54507
 20
170.255
 11
-4.12889
 21
170.024
  0
LINE
  8
0
 10
-4.12889
 20
170.024
 11
-4.67912
 21
169.722
  0
LINE
  8
0
 10
-4.67912
 20
169.722
 11
-5.18712
 21
169.353
  0
LINE
  8
0
 10
-5.18712
 20
169.353
 11
-5.64484
 21
168.923
  0
LINE
  8
0
 10
-5.64484
 20
168.923
 11
-6
 21
168.493
  0
LINE
  8
0
 10
-6
 20
168.493
 11
-6
 21
170.615
  0
LINE
  8
0
 10
-6
 20
170.615
 11
-9
 21
170.615
  0
LINE
  8
0
 10
-9
 20
170.615
 11
-9
 21
141.385
  0
LINE
  8
0
 10
-9
 20
141.385
 11
-6
 21
141.385
  0
LINE
  8
0
 10
-6
 20
141.385
 11
-6
 21
143.507
  0
LINE
  8
0
 10
2.9369
 20
102.589
 11
3.54507
 21
102.745
  0
LINE
  8
0
 10
3.54507
 20
102.745
 11
4.12889
 21
102.976
  0
LINE
  8
0
 10
4.12889
 20
102.976
 11
4.67912
 21
103.278
  0
LINE
  8
0
 10
4.67912
 20
103.278
 11
5.18712
 21
103.647
  0
LINE
  8
0
 10
5.18712
 20
103.647
 11
5.64484
 21
104.077
  0
LINE
  8
0
 10
5.64484
 20
104.077
 11
6.04507
 21
104.561
  0
LINE
  8
0
 10
6.04507
 20
104.561
 11
6.38153
 21
105.091
  0
LINE
  8
0
 10
6.38153
 20
105.091
 11
6.64888
 21
105.659
  0
LINE
  8
0
 10
6.64888
 20
105.659
 11
6.84291
 21
106.257
  0
LINE
  8
0
 10
6.84291
 20
106.257
 11
6.96057
 21
106.873
  0
LINE
  8
0
 10
6.96057
 20
106.873
 11
7
 21
107.5
  0
LINE
  8
0
 10
7
 20
107.5
 11
7
 21
126.5
  0
LINE
  8
0
 10
7
 20
126.5
 11
6.96057
 21
127.127
  0
LINE
  8
0
 10
6.96057
 20
127.127
 11
6.84291
 21
127.743
  0
LINE
  8
0
 10
6.84291
 20
127.743
 11
6.64888
 21
128.341
  0
LINE
  8
0
 10
6.64888
 20
128.341
 11
6.38153
 21
128.909
  0
LINE
  8
0
 10
6.38153
 20
128.909
 11
6.04507
 21
129.439
  0
LINE
  8
0
 10
6.04507
 20
129.439
 11
5.64484
 21
129.923
  0
LINE
  8
0
 10
5.64484
 20
129.923
 11
5.18712
 21
130.353
  0
LINE
  8
0
 10
5.18712
 20
130.353
 11
4.67912
 21
130.722
  0
LINE
  8
0
 10
4.67912
 20
130.722
 11
4.12889
 21
131.024
  0
LINE
  8
0
 10
4.12889
 20
131.024
 11
3.54507
 21
131.255
  0
LINE
  8
0
 10
3.54507
 20
131.255
 11
2.9369
 21
131.411
  0
LINE
  8
0
 10
2.9369
 20
131.411
 11
2.31395
 21
131.49
  0
LINE
  8
0
 10
2.31395
 20
131.49
 11
-2.31395
 21
131.49
  0
LINE
  8
0
 10
-2.31395
 20
131.49
 11
-2.9369
 21
131.411
  0
LINE
  8
0
 10
-2.9369
 20
131.411
 11
-3.54507
 21
131.255
  0
LINE
  8
0
 10
-3.54507
 20
131.255
 11
-4.12889
 21
131.024
  0
LINE
  8
0
 10
-4.12889
 20
131.024
 11
-4.67912
 21
130.722
  0
LINE
  8
0
 10
-4.67912
 20
130.722
 11
-5.18712
 21
130.353
  0
LINE
  8
0
 10
-5.18712
 20
130.353
 11
-5.64484
 21
129.923
  0
LINE
  8
0
 10
-5.64484
 20
129.923
 11
-6.04507
 21
129.439
  0
LINE
  8
0
 10
-6.04507
 20
129.439
 11
-6.38153
 21
128.909
  0
LINE
  8
0
 10
-6.38153
 20
128.909
 11
-6.64888
 21
128.341
  0
LINE
  8
0
 10
-6.64888
 20
128.341
 11
-6.77768
 21
127.944
  0
LINE
  8
0
 10
-6.77768
 20
127.944
 11
-9
 21
127.944
  0
LINE
  8
0
 10
-9
 20
127.944
 11
-9
 21
106.056
  0
LINE
  8
0
 10
-9
 20
106.056
 11
-6.77768
 21
106.056
  0
LINE
  8
0
 10
-6.77768
 20
106.056
 11
-6.64888
 21
105.659
  0
LINE
  8
0
 10
-6.64888
 20
105.659
 11
-6.38153
 21
105.091
  0
LINE
  8
0
 10
-6.38153
 20
105.091
 11
-6.04507
 21
104.561
  0
LINE
  8
0
 10
-6.04507
 20
104.561
 11
-5.64484
 21
104.077
  0
LINE
  8
0
 10
-5.64484
 20
104.077
 11
-5.18712
 21
103.647
  0
LINE
  8
0
 10
-5.18712
 20
103.647
 11
-4.67912
 21
103.278
  0
LINE
  8
0
 10
-4.67912
 20
103.278
 11
-4.12889
 21
102.976
  0
LINE
  8
0
 10
-4.12889
 20
102.976
 11
-3.54507
 21
102.745
  0
LINE
  8
0
 10
-3.54507
 20
102.745
 11
-2.9369
 21
102.589
  0
LINE
  8
0
 10
-2.9369
 20
102.589
 11
-2.31395
 21
102.51
  0
LINE
  8
0
 10
-2.31395
 20
102.51
 11
2.31395
 21
102.51
  0
LINE
  8
0
 10
2.31395
 20
102.51
 11
2.9369
 21
102.589
  0
LINE
  8
0
 10
-0.150696
 20
122.105
 11
-0.449707
 21
122.143
  0
LINE
  8
0
 10
-0.449707
 20
122.143
 11
-0.741638
 21
122.217
  0
LINE
  8
0
 10
-0.741638
 20
122.217
 11
-1.02187
 21
122.328
  0
LINE
  8
0
 10
-1.02187
 20
122.328
 11
-1.28598
 21
122.474
  0
LINE
  8
0
 10
-1.28598
 20
122.474
 11
-1.52982
 21
122.651
  0
LINE
  8
0
 10
-1.52982
 20
122.651
 11
-1.74951
 21
122.857
  0
LINE
  8
0
 10
-1.74951
 20
122.857
 11
-1.94164
 21
123.089
  0
LINE
  8
0
 10
-1.94164
 20
123.089
 11
-2.10313
 21
123.344
  0
LINE
  8
0
 10
-2.10313
 20
123.344
 11
-2.23146
 21
123.617
  0
LINE
  8
0
 10
-2.23146
 20
123.617
 11
-2.32458
 21
123.903
  0
LINE
  8
0
 10
-2.32458
 20
123.903
 11
-2.38107
 21
124.199
  0
LINE
  8
0
 10
-2.38107
 20
124.199
 11
-2.39999
 21
124.5
  0
LINE
  8
0
 10
-2.39999
 20
124.5
 11
-2.38107
 21
124.801
  0
LINE
  8
0
 10
-2.38107
 20
124.801
 11
-2.32458
 21
125.097
  0
LINE
  8
0
 10
-2.32458
 20
125.097
 11
-2.23146
 21
125.383
  0
LINE
  8
0
 10
-2.23146
 20
125.383
 11
-2.10313
 21
125.656
  0
LINE
  8
0
 10
-2.10313
 20
125.656
 11
-1.94164
 21
125.911
  0
LINE
  8
0
 10
-1.94164
 20
125.911
 11
-1.74951
 21
126.143
  0
LINE
  8
0
 10
-1.74951
 20
126.143
 11
-1.52982
 21
126.349
  0
LINE
  8
0
 10
-1.52982
 20
126.349
 11
-1.28598
 21
126.526
  0
LINE
  8
0
 10
-1.28598
 20
126.526
 11
-1.02187
 21
126.672
  0
LINE
  8
0
 10
-1.02187
 20
126.672
 11
-0.741638
 21
126.783
  0
LINE
  8
0
 10
-0.741638
 20
126.783
 11
-0.449707
 21
126.857
  0
LINE
  8
0
 10
-0.449707
 20
126.857
 11
-0.150696
 21
126.895
  0
LINE
  8
0
 10
-0.150696
 20
126.895
 11
0.150696
 21
126.895
  0
LINE
  8
0
 10
0.150696
 20
126.895
 11
0.449707
 21
126.857
  0
LINE
  8
0
 10
0.449707
 20
126.857
 11
0.741638
 21
126.783
  0
LINE
  8
0
 10
0.741638
 20
126.783
 11
1.02187
 21
126.672
  0
LINE
  8
0
 10
1.02187
 20
126.672
 11
1.28598
 21
126.526
  0
LINE
  8
0
 10
1.28598
 20
126.526
 11
1.52982
 21
126.349
  0
LINE
  8
0
 10
1.52982
 20
126.349
 11
1.74951
 21
126.143
  0
LINE
  8
0
 10
1.74951
 20
126.143
 11
1.94164
 21
125.911
  0
LINE
  8
0
 10
1.94164
 20
125.911
 11
2.10313
 21
125.656
  0
LINE
  8
0
 10
2.10313
 20
125.656
 11
2.23146
 21
125.383
  0
LINE
  8
0
 10
2.23146
 20
125.383
 11
2.32458
 21
125.097
  0
LINE
  8
0
 10
2.32458
 20
125.097
 11
2.38107
 21
124.801
  0
LINE
  8
0
 10
2.38107
 20
124.801
 11
2.39999
 21
124.5
  0
LINE
  8
0
 10
2.39999
 20
124.5
 11
2.38107
 21
124.199
  0
LINE
  8
0
 10
2.38107
 20
124.199
 11
2.32458
 21
123.903
  0
LINE
  8
0
 10
2.32458
 20
123.903
 11
2.23146
 21
123.617
  0
LINE
  8
0
 10
2.23146
 20
123.617
 11
2.10313
 21
123.344
  0
LINE
  8
0
 10
2.10313
 20
123.344
 11
1.94164
 21
123.089
  0
LINE
  8
0
 10
1.94164
 20
123.089
 11
1.74951
 21
122.857
  0
LINE
  8
0
 10
1.74951
 20
122.857
 11
1.52982
 21
122.651
  0
LINE
  8
0
 10
1.52982
 20
122.651
 11
1.28598
 21
122.474
  0
LINE
  8
0
 10
1.28598
 20
122.474
 11
1.02187
 21
122.328
  0
LINE
  8
0
 10
1.02187
 20
122.328
 11
0.741638
 21
122.217
  0
LINE
  8
0
 10
0.741638
 20
122.217
 11
0.449707
 21
122.143
  0
LINE
  8
0
 10
0.449707
 20
122.143
 11
0.150696
 21
122.105
  0
LINE
  8
0
 10
0.150696
 20
122.105
 11
-0.150696
 21
122.105
  0
LINE
  8
0
 10
-0.150696
 20
107.105
 11
-0.449707
 21
107.143
  0
LINE
  8
0
 10
-0.449707
 20
107.143
 11
-0.741638
 21
107.217
  0
LINE
  8
0
 10
-0.741638
 20
107.217
 11
-1.02187
 21
107.328
  0
LINE
  8
0
 10
-1.02187
 20
107.328
 11
-1.28598
 21
107.474
  0
LINE
  8
0
 10
-1.28598
 20
107.474
 11
-1.52982
 21
107.651
  0
LINE
  8
0
 10
-1.52982
 20
107.651
 11
-1.74951
 21
107.857
  0
LINE
  8
0
 10
-1.74951
 20
107.857
 11
-1.94164
 21
108.089
  0
LINE
  8
0
 10
-1.94164
 20
108.089
 11
-2.10313
 21
108.344
  0
LINE
  8
0
 10
-2.10313
 20
108.344
 11
-2.23146
 21
108.617
  0
LINE
  8
0
 10
-2.23146
 20
108.617
 11
-2.32458
 21
108.903
  0
LINE
  8
0
 10
-2.32458
 20
108.903
 11
-2.38107
 21
109.199
  0
LINE
  8
0
 10
-2.38107
 20
109.199
 11
-2.39999
 21
109.5
  0
LINE
  8
0
 10
-2.39999
 20
109.5
 11
-2.38107
 21
109.801
  0
LINE
  8
0
 10
-2.38107
 20
109.801
 11
-2.32458
 21
110.097
  0
LINE
  8
0
 10
-2.32458
 20
110.097
 11
-2.23146
 21
110.383
  0
LINE
  8
0
 10
-2.23146
 20
110.383
 11
-2.10313
 21
110.656
  0
LINE
  8
0
 10
-2.10313
 20
110.656
 11
-1.94164
 21
110.911
  0
LINE
  8
0
 10
-1.94164
 20
110.911
 11
-1.74951
 21
111.143
  0
LINE
  8
0
 10
-1.74951
 20
111.143
 11
-1.52982
 21
111.349
  0
LINE
  8
0
 10
-1.52982
 20
111.349
 11
-1.28598
 21
111.526
  0
LINE
  8
0
 10
-1.28598
 20
111.526
 11
-1.02187
 21
111.672
  0
LINE
  8
0
 10
-1.02187
 20
111.672
 11
-0.741638
 21
111.783
  0
LINE
  8
0
 10
-0.741638
 20
111.783
 11
-0.449707
 21
111.857
  0
LINE
  8
0
 10
-0.449707
 20
111.857
 11
-0.150696
 21
111.895
  0
LINE
  8
0
 10
-0.150696
 20
111.895
 11
0.150696
 21
111.895
  0
LINE
  8
0
 10
0.150696
 20
111.895
 11
0.449707
 21
111.857
  0
LINE
  8
0
 10
0.449707
 20
111.857
 11
0.741638
 21
111.783
  0
LINE
  8
0
 10
0.741638
 20
111.783
 11
1.02187
 21
111.672
  0
LINE
  8
0
 10
1.02187
 20
111.672
 11
1.28598
 21
111.526
  0
LINE
  8
0
 10
1.28598
 20
111.526
 11
1.52982
 21
111.349
  0
LINE
  8
0
 10
1.52982
 20
111.349
 11
1.74951
 21
111.143
  0
LINE
  8
0
 10
1.74951
 20
111.143
 11
1.94164
 21
110.911
  0
LINE
  8
0
 10
1.94164
 20
110.911
 11
2.10313
 21
110.656
  0
LINE
  8
0
 10
2.10313
 20
110.656
 11
2.23146
 21
110.383
  0
LINE
  8
0
 10
2.23146
 20
110.383
 11
2.32458
 21
110.097
  0
LINE
  8
0
 10
2.32458
 20
110.097
 11
2.38107
 21
109.801
  0
LINE
  8
0
 10
2.38107
 20
109.801
 11
2.39999
 21
109.5
  0
LINE
  8
0
 10
2.39999
 20
109.5
 11
2.38107
 21
109.199
  0
LINE
  8
0
 10
2.38107
 20
109.199
 11
2.32458
 21
108.903
  0
LINE
  8
0
 10
2.32458
 20
108.903
 11
2.23146
 21
108.617
  0
LINE
  8
0
 10
2.23146
 20
108.617
 11
2.10313
 21
108.344
  0
LINE
  8
0
 10
2.10313
 20
108.344
 11
1.94164
 21
108.089
  0
LINE
  8
0
 10
1.94164
 20
108.089
 11
1.74951
 21
107.857
  0
LINE
  8
0
 10
1.74951
 20
107.857
 11
1.52982
 21
107.651
  0
LINE
  8
0
 10
1.52982
 20
107.651
 11
1.28598
 21
107.474
  0
LINE
  8
0
 10
1.28598
 20
107.474
 11
1.02187
 21
107.328
  0
LINE
  8
0
 10
1.02187
 20
107.328
 11
0.741638
 21
107.217
  0
LINE
  8
0
 10
0.741638
 20
107.217
 11
0.449707
 21
107.143
  0
LINE
  8
0
 10
0.449707
 20
107.143
 11
0.150696
 21
107.105
  0
LINE
  8
0
 10
0.150696
 20
107.105
 11
-0.150696
 21
107.105
  0
ENDSEC
  0
SECTION
  2
OBJECTS
  0
DICTIONARY
  0
ENDSEC
  0
EOF
