  0
SECTION
  2
BLOCKS
  0
ENDSEC
  0
SECTION
  2
ENTITIES
  0
LINE
  8
0
 10
-17.25
 20
179.507
 11
-16.8948
 21
179.077
  0
LINE
  8
0
 10
-16.8948
 20
179.077
 11
-16.4371
 21
178.647
  0
LINE
  8
0
 10
-16.4371
 20
178.647
 11
-15.9291
 21
178.278
  0
LINE
  8
0
 10
-15.9291
 20
178.278
 11
-15.3789
 21
177.976
  0
LINE
  8
0
 10
-15.3789
 20
177.976
 11
-14.7951
 21
177.745
  0
LINE
  8
0
 10
-14.7951
 20
177.745
 11
-14.1869
 21
177.589
  0
LINE
  8
0
 10
-14.1869
 20
177.589
 11
-13.5639
 21
177.51
  0
LINE
  8
0
 10
-13.5639
 20
177.51
 11
13.5639
 21
177.51
  0
LINE
  8
0
 10
13.5639
 20
177.51
 11
14.1869
 21
177.589
  0
LINE
  8
0
 10
14.1869
 20
177.589
 11
14.7951
 21
177.745
  0
LINE
  8
0
 10
14.7951
 20
177.745
 11
15.3789
 21
177.976
  0
LINE
  8
0
 10
15.3789
 20
177.976
 11
15.9291
 21
178.278
  0
LINE
  8
0
 10
15.9291
 20
178.278
 11
16.4371
 21
178.647
  0
LINE
  8
0
 10
16.4371
 20
178.647
 11
16.8948
 21
179.077
  0
LINE
  8
0
 10
16.8948
 20
179.077
 11
17.2951
 21
179.561
  0
LINE
  8
0
 10
17.2951
 20
179.561
 11
17.6315
 21
180.091
  0
LINE
  8
0
 10
17.6315
 20
180.091
 11
17.8989
 21
180.659
  0
LINE
  8
0
 10
17.8989
 20
180.659
 11
18.0929
 21
181.257
  0
LINE
  8
0
 10
18.0929
 20
181.257
 11
18.2106
 21
181.873
  0
LINE
  8
0
 10
18.2106
 20
181.873
 11
18.25
 21
182.5
  0
LINE
  8
0
 10
18.25
 20
182.5
 11
18.25
 21
231.5
  0
LINE
  8
0
 10
18.25
 20
231.5
 11
18.2106
 21
232.127
  0
LINE
  8
0
 10
18.2106
 20
232.127
 11
18.0929
 21
232.743
  0
LINE
  8
0
 10
18.0929
 20
232.743
 11
17.8989
 21
233.341
  0
LINE
  8
0
 10
17.8989
 20
233.341
 11
17.6315
 21
233.909
  0
LINE
  8
0
 10
17.6315
 20
233.909
 11
17.2951
 21
234.439
  0
LINE
  8
0
 10
17.2951
 20
234.439
 11
16.8948
 21
234.923
  0
LINE
  8
0
 10
16.8948
 20
234.923
 11
16.4371
 21
235.353
  0
LINE
  8
0
 10
16.4371
 20
235.353
 11
15.9291
 21
235.722
  0
LINE
  8
0
 10
15.9291
 20
235.722
 11
15.3789
 21
236.024
  0
LINE
  8
0
 10
15.3789
 20
236.024
 11
14.7951
 21
236.255
  0
LINE
  8
0
 10
14.7951
 20
236.255
 11
14.1869
 21
236.411
  0
LINE
  8
0
 10
14.1869
 20
236.411
 11
13.5639
 21
236.49
  0
LINE
  8
0
 10
13.5639
 20
236.49
 11
-13.5639
 21
236.49
  0
LINE
  8
0
 10
-13.5639
 20
236.49
 11
-14.1869
 21
236.411
  0
LINE
  8
0
 10
-14.1869
 20
236.411
 11
-14.7951
 21
236.255
  0
LINE
  8
0
 10
-14.7951
 20
236.255
 11
-15.3789
 21
236.024
  0
LINE
  8
0
 10
-15.3789
 20
236.024
 11
-15.9291
 21
235.722
  0
LINE
  8
0
 10
-15.9291
 20
235.722
 11
-16.4371
 21
235.353
  0
LINE
  8
0
 10
-16.4371
 20
235.353
 11
-16.8948
 21
234.923
  0
LINE
  8
0
 10
-16.8948
 20
234.923
 11
-17.25
 21
234.493
  0
LINE
  8
0
 10
-17.25
 20
234.493
 11
-17.25
 21
236.979
  0
LINE
  8
0
 10
-17.25
 20
236.979
 11
-20.25
 21
236.979
  0
LINE
  8
0
 10
-20.25
 20
236.979
 11
-20.25
 21
177.021
  0
LINE
  8
0
 10
-20.25
 20
177.021
 11
-17.25
 21
177.021
  0
LINE
  8
0
 10
-17.25
 20
177.021
 11
-17.25
 21
179.507
  0
LINE
  8
0
 10
-13.4454
 20
179.393
 11
-13.8333
 21
179.442
  0
LINE
  8
0
 10
-13.8333
 20
179.442
 11
-14.2119
 21
179.539
  0
LINE
  8
0
 10
-14.2119
 20
179.539
 11
-14.5754
 21
179.683
  0
LINE
  8
0
 10
-14.5754
 20
179.683
 11
-14.918
 21
179.872
  0
LINE
  8
0
 10
-14.918
 20
179.872
 11
-15.2342
 21
180.101
  0
LINE
  8
0
 10
-15.2342
 20
180.101
 11
-15.5192
 21
180.369
  0
LINE
  8
0
 10
-15.5192
 20
180.369
 11
-15.7684
 21
180.67
  0
LINE
  8
0
 10
-15.7684
 20
180.67
 11
-15.9779
 21
181
  0
LINE
  8
0
 10
-15.9779
 20
181
 11
-16.1443
 21
181.354
  0
LINE
  8
0
 10
-16.1443
 20
181.354
 11
-16.2651
 21
181.726
  0
LINE
  8
0
 10
-16.2651
 20
181.726
 11
-16.3384
 21
182.11
  0
LINE
  8
0
 10
-16.3384
 20
182.11
 11
-16.3629
 21
182.5
  0
LINE
  8
0
 10
-16.3629
 20
182.5
 11
-16.3629
 21
231.5
  0
LINE
  8
0
 10
-16.3629
 20
231.5
 11
-16.3384
 21
231.89
  0
LINE
  8
0
 10
-16.3384
 20
231.89
 11
-16.2651
 21
232.274
  0
LINE
  8
0
 10
-16.2651
 20
232.274
 11
-16.1443
 21
232.646
  0
LINE
  8
0
 10
-16.1443
 20
232.646
 11
-15.9779
 21
233
  0
LINE
  8
0
 10
-15.9779
 20
233
 11
-15.7684
 21
233.33
  0
LINE
  8
0
 10
-15.7684
 20
233.33
 11
-15.5192
 21
233.631
  0
LINE
  8
0
 10
-15.5192
 20
233.631
 11
-15.2342
 21
233.899
  0
LINE
  8
0
 10
-15.2342
 20
233.899
 11
-14.918
 21
234.128
  0
LINE
  8
0
 10
-14.918
 20
234.128
 11
-14.5754
 21
234.317
  0
LINE
  8
0
 10
-14.5754
 20
234.317
 11
-14.2119
 21
234.461
  0
LINE
  8
0
 10
-14.2119
 20
234.461
 11
-13.8333
 21
234.558
  0
LINE
  8
0
 10
-13.8333
 20
234.558
 11
-13.4454
 21
234.607
  0
LINE
  8
0
 10
-13.4454
 20
234.607
 11
13.4454
 21
234.607
  0
LINE
  8
0
 10
13.4454
 20
234.607
 11
13.8333
 21
234.558
  0
LINE
  8
0
 10
13.8333
 20
234.558
 11
14.2119
 21
234.461
  0
LINE
  8
0
 10
14.2119
 20
234.461
 11
14.5754
 21
234.317
  0
LINE
  8
0
 10
14.5754
 20
234.317
 11
14.918
 21
234.128
  0
LINE
  8
0
 10
14.918
 20
234.128
 11
15.2342
 21
233.899
  0
LINE
  8
0
 10
15.2342
 20
233.899
 11
15.5192
 21
233.631
  0
LINE
  8
0
 10
15.5192
 20
233.631
 11
15.7684
 21
233.33
  0
LINE
  8
0
 10
15.7684
 20
233.33
 11
15.9779
 21
233
  0
LINE
  8
0
 10
15.9779
 20
233
 11
16.1443
 21
232.646
  0
LINE
  8
0
 10
16.1443
 20
232.646
 11
16.2651
 21
232.274
  0
LINE
  8
0
 10
16.2651
 20
232.274
 11
16.3384
 21
231.89
  0
LINE
  8
0
 10
16.3384
 20
231.89
 11
16.3629
 21
231.5
  0
LINE
  8
0
 10
16.3629
 20
231.5
 11
16.3629
 21
182.5
  0
LINE
  8
0
 10
16.3629
 20
182.5
 11
16.3384
 21
182.11
  0
LINE
  8
0
 10
16.3384
 20
182.11
 11
16.2651
 21
181.726
  0
LINE
  8
0
 10
16.2651
 20
181.726
 11
16.1443
 21
181.354
  0
LINE
  8
0
 10
16.1443
 20
181.354
 11
15.9779
 21
181
  0
LINE
  8
0
 10
15.9779
 20
181
 11
15.7684
 21
180.67
  0
LINE
  8
0
 10
15.7684
 20
180.67
 11
15.5192
 21
180.369
  0
LINE
  8
0
 10
15.5192
 20
180.369
 11
15.2342
 21
180.101
  0
LINE
  8
0
 10
15.2342
 20
180.101
 11
14.918
 21
179.872
  0
LINE
  8
0
 10
14.918
 20
179.872
 11
14.5754
 21
179.683
  0
LINE
  8
0
 10
14.5754
 20
179.683
 11
14.2119
 21
179.539
  0
LINE
  8
0
 10
14.2119
 20
179.539
 11
13.8333
 21
179.442
  0
LINE
  8
0
 10
13.8333
 20
179.442
 11
13.4454
 21
179.393
  0
LINE
  8
0
 10
13.4454
 20
179.393
 11
-13.4454
 21
179.393
  0
LINE
  8
0
 10
14.1869
 20
108.589
 11
14.7951
 21
108.745
  0
LINE
  8
0
 10
14.7951
 20
108.745
 11
15.3789
 21
108.976
  0
LINE
  8
0
 10
15.3789
 20
108.976
 11
15.9291
 21
109.278
  0
LINE
  8
0
 10
15.9291
 20
109.278
 11
16.4371
 21
109.647
  0
LINE
  8
0
 10
16.4371
 20
109.647
 11
16.8948
 21
110.077
  0
LINE
  8
0
 10
16.8948
 20
110.077
 11
17.2951
 21
110.561
  0
LINE
  8
0
 10
17.2951
 20
110.561
 11
17.6315
 21
111.091
  0
LINE
  8
0
 10
17.6315
 20
111.091
 11
17.8989
 21
111.659
  0
LINE
  8
0
 10
17.8989
 20
111.659
 11
18.0929
 21
112.257
  0
LINE
  8
0
 10
18.0929
 20
112.257
 11
18.2106
 21
112.873
  0
LINE
  8
0
 10
18.2106
 20
112.873
 11
18.25
 21
113.5
  0
LINE
  8
0
 10
18.25
 20
113.5
 11
18.25
 21
162.5
  0
LINE
  8
0
 10
18.25
 20
162.5
 11
18.2106
 21
163.127
  0
LINE
  8
0
 10
18.2106
 20
163.127
 11
18.0929
 21
163.743
  0
LINE
  8
0
 10
18.0929
 20
163.743
 11
17.8989
 21
164.341
  0
LINE
  8
0
 10
17.8989
 20
164.341
 11
17.6315
 21
164.909
  0
LINE
  8
0
 10
17.6315
 20
164.909
 11
17.2951
 21
165.439
  0
LINE
  8
0
 10
17.2951
 20
165.439
 11
16.8948
 21
165.923
  0
LINE
  8
0
 10
16.8948
 20
165.923
 11
16.4371
 21
166.353
  0
LINE
  8
0
 10
16.4371
 20
166.353
 11
15.9291
 21
166.722
  0
LINE
  8
0
 10
15.9291
 20
166.722
 11
15.3789
 21
167.024
  0
LINE
  8
0
 10
15.3789
 20
167.024
 11
14.7951
 21
167.255
  0
LINE
  8
0
 10
14.7951
 20
167.255
 11
14.1869
 21
167.411
  0
LINE
  8
0
 10
14.1869
 20
167.411
 11
13.5639
 21
167.49
  0
LINE
  8
0
 10
13.5639
 20
167.49
 11
-13.5639
 21
167.49
  0
LINE
  8
0
 10
-13.5639
 20
167.49
 11
-14.1869
 21
167.411
  0
LINE
  8
0
 10
-14.1869
 20
167.411
 11
-14.7951
 21
167.255
  0
LINE
  8
0
 10
-14.7951
 20
167.255
 11
-15.3789
 21
167.024
  0
LINE
  8
0
 10
-15.3789
 20
167.024
 11
-15.9291
 21
166.722
  0
LINE
  8
0
 10
-15.9291
 20
166.722
 11
-16.4371
 21
166.353
  0
LINE
  8
0
 10
-16.4371
 20
166.353
 11
-16.8948
 21
165.923
  0
LINE
  8
0
 10
-16.8948
 20
165.923
 11
-17.25
 21
165.493
  0
LINE
  8
0
 10
-17.25
 20
165.493
 11
-17.25
 21
166.653
  0
LINE
  8
0
 10
-17.25
 20
166.653
 11
-20.25
 21
166.653
  0
LINE
  8
0
 10
-20.25
 20
166.653
 11
-20.25
 21
109.347
  0
LINE
  8
0
 10
-20.25
 20
109.347
 11
-17.25
 21
109.347
  0
LINE
  8
0
 10
-17.25
 20
109.347
 11
-17.25
 21
110.507
  0
LINE
  8
0
 10
-17.25
 20
110.507
 11
-16.8948
 21
110.077
  0
LINE
  8
0
 10
-16.8948
 20
110.077
 11
-16.4371
 21
109.647
  0
LINE
  8
0
 10
-16.4371
 20
109.647
 11
-15.9291
 21
109.278
  0
LINE
  8
0
 10
-15.9291
 20
109.278
 11
-15.3789
 21
108.976
  0
LINE
  8
0
 10
-15.3789
 20
108.976
 11
-14.7951
 21
108.745
  0
LINE
  8
0
 10
-14.7951
 20
108.745
 11
-14.1869
 21
108.589
  0
LINE
  8
0
 10
-14.1869
 20
108.589
 11
-13.5639
 21
108.51
  0
LINE
  8
0
 10
-13.5639
 20
108.51
 11
13.5639
 21
108.51
  0
LINE
  8
0
 10
13.5639
 20
108.51
 11
14.1869
 21
108.589
  0
LINE
  8
0
 10
-11.4007
 20
158.105
 11
-11.6997
 21
158.143
  0
LINE
  8
0
 10
-11.6997
 20
158.143
 11
-11.9916
 21
158.217
  0
LINE
  8
0
 10
-11.9916
 20
158.217
 11
-12.2719
 21
158.328
  0
LINE
  8
0
 10
-12.2719
 20
158.328
 11
-12.536
 21
158.474
  0
LINE
  8
0
 10
-12.536
 20
158.474
 11
-12.7798
 21
158.651
  0
LINE
  8
0
 10
-12.7798
 20
158.651
 11
-12.9995
 21
158.857
  0
LINE
  8
0
 10
-12.9995
 20
158.857
 11
-13.1916
 21
159.089
  0
LINE
  8
0
 10
-13.1916
 20
159.089
 11
-13.3531
 21
159.344
  0
LINE
  8
0
 10
-13.3531
 20
159.344
 11
-13.4815
 21
159.617
  0
LINE
  8
0
 10
-13.4815
 20
159.617
 11
-13.5746
 21
159.903
  0
LINE
  8
0
 10
-13.5746
 20
159.903
 11
-13.6311
 21
160.199
  0
LINE
  8
0
 10
-13.6311
 20
160.199
 11
-13.65
 21
160.5
  0
LINE
  8
0
 10
-13.65
 20
160.5
 11
-13.6311
 21
160.801
  0
LINE
  8
0
 10
-13.6311
 20
160.801
 11
-13.5746
 21
161.097
  0
LINE
  8
0
 10
-13.5746
 20
161.097
 11
-13.4815
 21
161.383
  0
LINE
  8
0
 10
-13.4815
 20
161.383
 11
-13.3531
 21
161.656
  0
LINE
  8
0
 10
-13.3531
 20
161.656
 11
-13.1916
 21
161.911
  0
LINE
  8
0
 10
-13.1916
 20
161.911
 11
-12.9995
 21
162.143
  0
LINE
  8
0
 10
-12.9995
 20
162.143
 11
-12.7798
 21
162.349
  0
LINE
  8
0
 10
-12.7798
 20
162.349
 11
-12.536
 21
162.526
  0
LINE
  8
0
 10
-12.536
 20
162.526
 11
-12.2719
 21
162.672
  0
LINE
  8
0
 10
-12.2719
 20
162.672
 11
-11.9916
 21
162.783
  0
LINE
  8
0
 10
-11.9916
 20
162.783
 11
-11.6997
 21
162.857
  0
LINE
  8
0
 10
-11.6997
 20
162.857
 11
-11.4007
 21
162.895
  0
LINE
  8
0
 10
-11.4007
 20
162.895
 11
-11.0993
 21
162.895
  0
LINE
  8
0
 10
-11.0993
 20
162.895
 11
-10.8003
 21
162.857
  0
LINE
  8
0
 10
-10.8003
 20
162.857
 11
-10.5083
 21
162.783
  0
LINE
  8
0
 10
-10.5083
 20
162.783
 11
-10.2281
 21
162.672
  0
LINE
  8
0
 10
-10.2281
 20
162.672
 11
-9.964
 21
162.526
  0
LINE
  8
0
 10
-9.964
 20
162.526
 11
-9.72017
 21
162.349
  0
LINE
  8
0
 10
-9.72017
 20
162.349
 11
-9.50047
 21
162.143
  0
LINE
  8
0
 10
-9.50047
 20
162.143
 11
-9.30835
 21
161.911
  0
LINE
  8
0
 10
-9.30835
 20
161.911
 11
-9.14685
 21
161.656
  0
LINE
  8
0
 10
-9.14685
 20
161.656
 11
-9.01852
 21
161.383
  0
LINE
  8
0
 10
-9.01852
 20
161.383
 11
-8.9254
 21
161.097
  0
LINE
  8
0
 10
-8.9254
 20
161.097
 11
-8.86891
 21
160.801
  0
LINE
  8
0
 10
-8.86891
 20
160.801
 11
-8.84999
 21
160.5
  0
LINE
  8
0
 10
-8.84999
 20
160.5
 11
-8.86891
 21
160.199
  0
LINE
  8
0
 10
-8.86891
 20
160.199
 11
-8.9254
 21
159.903
  0
LINE
  8
0
 10
-8.9254
 20
159.903
 11
-9.01852
 21
159.617
  0
LINE
  8
0
 10
-9.01852
 20
159.617
 11
-9.14685
 21
159.344
  0
LINE
  8
0
 10
-9.14685
 20
159.344
 11
-9.30835
 21
159.089
  0
LINE
  8
0
 10
-9.30835
 20
159.089
 11
-9.50047
 21
158.857
  0
LINE
  8
0
 10
-9.50047
 20
158.857
 11
-9.72017
 21
158.651
  0
LINE
  8
0
 10
-9.72017
 20
158.651
 11
-9.964
 21
158.474
  0
LINE
  8
0
 10
-9.964
 20
158.474
 11
-10.2281
 21
158.328
  0
LINE
  8
0
 10
-10.2281
 20
158.328
 11
-10.5083
 21
158.217
  0
LINE
  8
0
 10
-10.5083
 20
158.217
 11
-10.8003
 21
158.143
  0
LINE
  8
0
 10
-10.8003
 20
158.143
 11
-11.0993
 21
158.105
  0
LINE
  8
0
 10
-11.0993
 20
158.105
 11
-11.4007
 21
158.105
  0
LINE
  8
0
 10
11.0993
 20
158.105
 11
10.8003
 21
158.143
  0
LINE
  8
0
 10
10.8003
 20
158.143
 11
10.5083
 21
158.217
  0
LINE
  8
0
 10
10.5083
 20
158.217
 11
10.2281
 21
158.328
  0
LINE
  8
0
 10
10.2281
 20
158.328
 11
9.964
 21
158.474
  0
LINE
  8
0
 10
9.964
 20
158.474
 11
9.72017
 21
158.651
  0
LINE
  8
0
 10
9.72017
 20
158.651
 11
9.50047
 21
158.857
  0
LINE
  8
0
 10
9.50047
 20
158.857
 11
9.30835
 21
159.089
  0
LINE
  8
0
 10
9.30835
 20
159.089
 11
9.14685
 21
159.344
  0
LINE
  8
0
 10
9.14685
 20
159.344
 11
9.01852
 21
159.617
  0
LINE
  8
0
 10
9.01852
 20
159.617
 11
8.9254
 21
159.903
  0
LINE
  8
0
 10
8.9254
 20
159.903
 11
8.86891
 21
160.199
  0
LINE
  8
0
 10
8.86891
 20
160.199
 11
8.84999
 21
160.5
  0
LINE
  8
0
 10
8.84999
 20
160.5
 11
8.86891
 21
160.801
  0
LINE
  8
0
 10
8.86891
 20
160.801
 11
8.9254
 21
161.097
  0
LINE
  8
0
 10
8.9254
 20
161.097
 11
9.01852
 21
161.383
  0
LINE
  8
0
 10
9.01852
 20
161.383
 11
9.14685
 21
161.656
  0
LINE
  8
0
 10
9.14685
 20
161.656
 11
9.30835
 21
161.911
  0
LINE
  8
0
 10
9.30835
 20
161.911
 11
9.50047
 21
162.143
  0
LINE
  8
0
 10
9.50047
 20
162.143
 11
9.72017
 21
162.349
  0
LINE
  8
0
 10
9.72017
 20
162.349
 11
9.964
 21
162.526
  0
LINE
  8
0
 10
9.964
 20
162.526
 11
10.2281
 21
162.672
  0
LINE
  8
0
 10
10.2281
 20
162.672
 11
10.5083
 21
162.783
  0
LINE
  8
0
 10
10.5083
 20
162.783
 11
10.8003
 21
162.857
  0
LINE
  8
0
 10
10.8003
 20
162.857
 11
11.0993
 21
162.895
  0
LINE
  8
0
 10
11.0993
 20
162.895
 11
11.4007
 21
162.895
  0
LINE
  8
0
 10
11.4007
 20
162.895
 11
11.6997
 21
162.857
  0
LINE
  8
0
 10
11.6997
 20
162.857
 11
11.9916
 21
162.783
  0
LINE
  8
0
 10
11.9916
 20
162.783
 11
12.2719
 21
162.672
  0
LINE
  8
0
 10
12.2719
 20
162.672
 11
12.536
 21
162.526
  0
LINE
  8
0
 10
12.536
 20
162.526
 11
12.7798
 21
162.349
  0
LINE
  8
0
 10
12.7798
 20
162.349
 11
12.9995
 21
162.143
  0
LINE
  8
0
 10
12.9995
 20
162.143
 11
13.1916
 21
161.911
  0
LINE
  8
0
 10
13.1916
 20
161.911
 11
13.3531
 21
161.656
  0
LINE
  8
0
 10
13.3531
 20
161.656
 11
13.4815
 21
161.383
  0
LINE
  8
0
 10
13.4815
 20
161.383
 11
13.5746
 21
161.097
  0
LINE
  8
0
 10
13.5746
 20
161.097
 11
13.6311
 21
160.801
  0
LINE
  8
0
 10
13.6311
 20
160.801
 11
13.65
 21
160.5
  0
LINE
  8
0
 10
13.65
 20
160.5
 11
13.6311
 21
160.199
  0
LINE
  8
0
 10
13.6311
 20
160.199
 11
13.5746
 21
159.903
  0
LINE
  8
0
 10
13.5746
 20
159.903
 11
13.4815
 21
159.617
  0
LINE
  8
0
 10
13.4815
 20
159.617
 11
13.3531
 21
159.344
  0
LINE
  8
0
 10
13.3531
 20
159.344
 11
13.1916
 21
159.089
  0
LINE
  8
0
 10
13.1916
 20
159.089
 11
12.9995
 21
158.857
  0
LINE
  8
0
 10
12.9995
 20
158.857
 11
12.7798
 21
158.651
  0
LINE
  8
0
 10
12.7798
 20
158.651
 11
12.536
 21
158.474
  0
LINE
  8
0
 10
12.536
 20
158.474
 11
12.2719
 21
158.328
  0
LINE
  8
0
 10
12.2719
 20
158.328
 11
11.9916
 21
158.217
  0
LINE
  8
0
 10
11.9916
 20
158.217
 11
11.6997
 21
158.143
  0
LINE
  8
0
 10
11.6997
 20
158.143
 11
11.4007
 21
158.105
  0
LINE
  8
0
 10
11.4007
 20
158.105
 11
11.0993
 21
158.105
  0
LINE
  8
0
 10
11.0993
 20
113.105
 11
10.8003
 21
113.143
  0
LINE
  8
0
 10
10.8003
 20
113.143
 11
10.5083
 21
113.217
  0
LINE
  8
0
 10
10.5083
 20
113.217
 11
10.2281
 21
113.328
  0
LINE
  8
0
 10
10.2281
 20
113.328
 11
9.964
 21
113.474
  0
LINE
  8
0
 10
9.964
 20
113.474
 11
9.72017
 21
113.651
  0
LINE
  8
0
 10
9.72017
 20
113.651
 11
9.50047
 21
113.857
  0
LINE
  8
0
 10
9.50047
 20
113.857
 11
9.30835
 21
114.089
  0
LINE
  8
0
 10
9.30835
 20
114.089
 11
9.14685
 21
114.344
  0
LINE
  8
0
 10
9.14685
 20
114.344
 11
9.01852
 21
114.617
  0
LINE
  8
0
 10
9.01852
 20
114.617
 11
8.9254
 21
114.903
  0
LINE
  8
0
 10
8.9254
 20
114.903
 11
8.86891
 21
115.199
  0
LINE
  8
0
 10
8.86891
 20
115.199
 11
8.84999
 21
115.5
  0
LINE
  8
0
 10
8.84999
 20
115.5
 11
8.86891
 21
115.801
  0
LINE
  8
0
 10
8.86891
 20
115.801
 11
8.9254
 21
116.097
  0
LINE
  8
0
 10
8.9254
 20
116.097
 11
9.01852
 21
116.383
  0
LINE
  8
0
 10
9.01852
 20
116.383
 11
9.14685
 21
116.656
  0
LINE
  8
0
 10
9.14685
 20
116.656
 11
9.30835
 21
116.911
  0
LINE
  8
0
 10
9.30835
 20
116.911
 11
9.50047
 21
117.143
  0
LINE
  8
0
 10
9.50047
 20
117.143
 11
9.72017
 21
117.349
  0
LINE
  8
0
 10
9.72017
 20
117.349
 11
9.964
 21
117.526
  0
LINE
  8
0
 10
9.964
 20
117.526
 11
10.2281
 21
117.672
  0
LINE
  8
0
 10
10.2281
 20
117.672
 11
10.5083
 21
117.783
  0
LINE
  8
0
 10
10.5083
 20
117.783
 11
10.8003
 21
117.857
  0
LINE
  8
0
 10
10.8003
 20
117.857
 11
11.0993
 21
117.895
  0
LINE
  8
0
 10
11.0993
 20
117.895
 11
11.4007
 21
117.895
  0
LINE
  8
0
 10
11.4007
 20
117.895
 11
11.6997
 21
117.857
  0
LINE
  8
0
 10
11.6997
 20
117.857
 11
11.9916
 21
117.783
  0
LINE
  8
0
 10
11.9916
 20
117.783
 11
12.2719
 21
117.672
  0
LINE
  8
0
 10
12.2719
 20
117.672
 11
12.536
 21
117.526
  0
LINE
  8
0
 10
12.536
 20
117.526
 11
12.7798
 21
117.349
  0
LINE
  8
0
 10
12.7798
 20
117.349
 11
12.9995
 21
117.143
  0
LINE
  8
0
 10
12.9995
 20
117.143
 11
13.1916
 21
116.911
  0
LINE
  8
0
 10
13.1916
 20
116.911
 11
13.3531
 21
116.656
  0
LINE
  8
0
 10
13.3531
 20
116.656
 11
13.4815
 21
116.383
  0
LINE
  8
0
 10
13.4815
 20
116.383
 11
13.5746
 21
116.097
  0
LINE
  8
0
 10
13.5746
 20
116.097
 11
13.6311
 21
115.801
  0
LINE
  8
0
 10
13.6311
 20
115.801
 11
13.65
 21
115.5
  0
LINE
  8
0
 10
13.65
 20
115.5
 11
13.6311
 21
115.199
  0
LINE
  8
0
 10
13.6311
 20
115.199
 11
13.5746
 21
114.903
  0
LINE
  8
0
 10
13.5746
 20
114.903
 11
13.4815
 21
114.617
  0
LINE
  8
0
 10
13.4815
 20
114.617
 11
13.3531
 21
114.344
  0
LINE
  8
0
 10
13.3531
 20
114.344
 11
13.1916
 21
114.089
  0
LINE
  8
0
 10
13.1916
 20
114.089
 11
12.9995
 21
113.857
  0
LINE
  8
0
 10
12.9995
 20
113.857
 11
12.7798
 21
113.651
  0
LINE
  8
0
 10
12.7798
 20
113.651
 11
12.536
 21
113.474
  0
LINE
  8
0
 10
12.536
 20
113.474
 11
12.2719
 21
113.328
  0
LINE
  8
0
 10
12.2719
 20
113.328
 11
11.9916
 21
113.217
  0
LINE
  8
0
 10
11.9916
 20
113.217
 11
11.6997
 21
113.143
  0
LINE
  8
0
 10
11.6997
 20
113.143
 11
11.4007
 21
113.105
  0
LINE
  8
0
 10
11.4007
 20
113.105
 11
11.0993
 21
113.105
  0
LINE
  8
0
 10
-11.4007
 20
113.105
 11
-11.6997
 21
113.143
  0
LINE
  8
0
 10
-11.6997
 20
113.143
 11
-11.9916
 21
113.217
  0
LINE
  8
0
 10
-11.9916
 20
113.217
 11
-12.2719
 21
113.328
  0
LINE
  8
0
 10
-12.2719
 20
113.328
 11
-12.536
 21
113.474
  0
LINE
  8
0
 10
-12.536
 20
113.474
 11
-12.7798
 21
113.651
  0
LINE
  8
0
 10
-12.7798
 20
113.651
 11
-12.9995
 21
113.857
  0
LINE
  8
0
 10
-12.9995
 20
113.857
 11
-13.1916
 21
114.089
  0
LINE
  8
0
 10
-13.1916
 20
114.089
 11
-13.3531
 21
114.344
  0
LINE
  8
0
 10
-13.3531
 20
114.344
 11
-13.4815
 21
114.617
  0
LINE
  8
0
 10
-13.4815
 20
114.617
 11
-13.5746
 21
114.903
  0
LINE
  8
0
 10
-13.5746
 20
114.903
 11
-13.6311
 21
115.199
  0
LINE
  8
0
 10
-13.6311
 20
115.199
 11
-13.65
 21
115.5
  0
LINE
  8
0
 10
-13.65
 20
115.5
 11
-13.6311
 21
115.801
  0
LINE
  8
0
 10
-13.6311
 20
115.801
 11
-13.5746
 21
116.097
  0
LINE
  8
0
 10
-13.5746
 20
116.097
 11
-13.4815
 21
116.383
  0
LINE
  8
0
 10
-13.4815
 20
116.383
 11
-13.3531
 21
116.656
  0
LINE
  8
0
 10
-13.3531
 20
116.656
 11
-13.1916
 21
116.911
  0
LINE
  8
0
 10
-13.1916
 20
116.911
 11
-12.9995
 21
117.143
  0
LINE
  8
0
 10
-12.9995
 20
117.143
 11
-12.7798
 21
117.349
  0
LINE
  8
0
 10
-12.7798
 20
117.349
 11
-12.536
 21
117.526
  0
LINE
  8
0
 10
-12.536
 20
117.526
 11
-12.2719
 21
117.672
  0
LINE
  8
0
 10
-12.2719
 20
117.672
 11
-11.9916
 21
117.783
  0
LINE
  8
0
 10
-11.9916
 20
117.783
 11
-11.6997
 21
117.857
  0
LINE
  8
0
 10
-11.6997
 20
117.857
 11
-11.4007
 21
117.895
  0
LINE
  8
0
 10
-11.4007
 20
117.895
 11
-11.0993
 21
117.895
  0
LINE
  8
0
 10
-11.0993
 20
117.895
 11
-10.8003
 21
117.857
  0
LINE
  8
0
 10
-10.8003
 20
117.857
 11
-10.5083
 21
117.783
  0
LINE
  8
0
 10
-10.5083
 20
117.783
 11
-10.2281
 21
117.672
  0
LINE
  8
0
 10
-10.2281
 20
117.672
 11
-9.964
 21
117.526
  0
LINE
  8
0
 10
-9.964
 20
117.526
 11
-9.72017
 21
117.349
  0
LINE
  8
0
 10
-9.72017
 20
117.349
 11
-9.50047
 21
117.143
  0
LINE
  8
0
 10
-9.50047
 20
117.143
 11
-9.30835
 21
116.911
  0
LINE
  8
0
 10
-9.30835
 20
116.911
 11
-9.14685
 21
116.656
  0
LINE
  8
0
 10
-9.14685
 20
116.656
 11
-9.01852
 21
116.383
  0
LINE
  8
0
 10
-9.01852
 20
116.383
 11
-8.9254
 21
116.097
  0
LINE
  8
0
 10
-8.9254
 20
116.097
 11
-8.86891
 21
115.801
  0
LINE
  8
0
 10
-8.86891
 20
115.801
 11
-8.84999
 21
115.5
  0
LINE
  8
0
 10
-8.84999
 20
115.5
 11
-8.86891
 21
115.199
  0
LINE
  8
0
 10
-8.86891
 20
115.199
 11
-8.9254
 21
114.903
  0
LINE
  8
0
 10
-8.9254
 20
114.903
 11
-9.01852
 21
114.617
  0
LINE
  8
0
 10
-9.01852
 20
114.617
 11
-9.14685
 21
114.344
  0
LINE
  8
0
 10
-9.14685
 20
114.344
 11
-9.30835
 21
114.089
  0
LINE
  8
0
 10
-9.30835
 20
114.089
 11
-9.50047
 21
113.857
  0
LINE
  8
0
 10
-9.50047
 20
113.857
 11
-9.72017
 21
113.651
  0
LINE
  8
0
 10
-9.72017
 20
113.651
 11
-9.964
 21
113.474
  0
LINE
  8
0
 10
-9.964
 20
113.474
 11
-10.2281
 21
113.328
  0
LINE
  8
0
 10
-10.2281
 20
113.328
 11
-10.5083
 21
113.217
  0
LINE
  8
0
 10
-10.5083
 20
113.217
 11
-10.8003
 21
113.143
  0
LINE
  8
0
 10
-10.8003
 20
113.143
 11
-11.0993
 21
113.105
  0
LINE
  8
0
 10
-11.0993
 20
113.105
 11
-11.4007
 21
113.105
  0
ENDSEC
  0
SECTION
  2
OBJECTS
  0
DICTIONARY
  0
ENDSEC
  0
EOF
