  0
SECTION
  2
BLOCKS
  0
ENDSEC
  0
SECTION
  2
ENTITIES
  0
LINE
  8
0
 10
32.9369
 20
-14.4114
 11
33.5451
 21
-14.2553
  0
LINE
  8
0
 10
33.5451
 20
-14.2553
 11
34.1289
 21
-14.0241
  0
LINE
  8
0
 10
34.1289
 20
-14.0241
 11
34.6791
 21
-13.7216
  0
LINE
  8
0
 10
34.6791
 20
-13.7216
 11
35.1871
 21
-13.3526
  0
LINE
  8
0
 10
35.1871
 20
-13.3526
 11
35.6448
 21
-12.9227
  0
LINE
  8
0
 10
35.6448
 20
-12.9227
 11
36.0451
 21
-12.4389
  0
LINE
  8
0
 10
36.0451
 20
-12.4389
 11
36.3815
 21
-11.9088
  0
LINE
  8
0
 10
36.3815
 20
-11.9088
 11
36.6489
 21
-11.3406
  0
LINE
  8
0
 10
36.6489
 20
-11.3406
 11
36.8429
 21
-10.7434
  0
LINE
  8
0
 10
36.8429
 20
-10.7434
 11
36.9606
 21
-10.1267
  0
LINE
  8
0
 10
36.9606
 20
-10.1267
 11
37
 21
-9.5
  0
LINE
  8
0
 10
37
 20
-9.5
 11
37
 21
9.5
  0
LINE
  8
0
 10
37
 20
9.5
 11
36.9606
 21
10.1267
  0
LINE
  8
0
 10
36.9606
 20
10.1267
 11
36.8429
 21
10.7434
  0
LINE
  8
0
 10
36.8429
 20
10.7434
 11
36.6489
 21
11.3406
  0
LINE
  8
0
 10
36.6489
 20
11.3406
 11
36.3815
 21
11.9088
  0
LINE
  8
0
 10
36.3815
 20
11.9088
 11
36.0451
 21
12.4389
  0
LINE
  8
0
 10
36.0451
 20
12.4389
 11
35.6448
 21
12.9227
  0
LINE
  8
0
 10
35.6448
 20
12.9227
 11
35.1871
 21
13.3526
  0
LINE
  8
0
 10
35.1871
 20
13.3526
 11
34.6791
 21
13.7216
  0
LINE
  8
0
 10
34.6791
 20
13.7216
 11
34.1289
 21
14.0241
  0
LINE
  8
0
 10
34.1289
 20
14.0241
 11
33.5451
 21
14.2553
  0
LINE
  8
0
 10
33.5451
 20
14.2553
 11
32.9369
 21
14.4114
  0
LINE
  8
0
 10
32.9369
 20
14.4114
 11
32.3139
 21
14.4901
  0
LINE
  8
0
 10
32.3139
 20
14.4901
 11
27.9508
 21
14.4901
  0
LINE
  8
0
 10
27.9508
 20
14.4901
 11
27.9057
 21
14.2539
  0
LINE
  8
0
 10
27.9057
 20
14.2539
 11
27.7893
 21
13.8956
  0
LINE
  8
0
 10
27.7893
 20
13.8956
 11
27.6289
 21
13.5547
  0
LINE
  8
0
 10
27.6289
 20
13.5547
 11
27.427
 21
13.2366
  0
LINE
  8
0
 10
27.427
 20
13.2366
 11
27.1869
 21
12.9464
  0
LINE
  8
0
 10
27.1869
 20
12.9464
 11
26.9123
 21
12.6884
  0
LINE
  8
0
 10
26.9123
 20
12.6884
 11
26.6075
 21
12.467
  0
LINE
  8
0
 10
26.6075
 20
12.467
 11
26.2773
 21
12.2855
  0
LINE
  8
0
 10
26.2773
 20
12.2855
 11
25.927
 21
12.1468
  0
LINE
  8
0
 10
25.927
 20
12.1468
 11
25.5621
 21
12.0531
  0
LINE
  8
0
 10
25.5621
 20
12.0531
 11
25.1884
 21
12.0059
  0
LINE
  8
0
 10
25.1884
 20
12.0059
 11
24.8116
 21
12.0059
  0
LINE
  8
0
 10
24.8116
 20
12.0059
 11
24.4379
 21
12.0531
  0
LINE
  8
0
 10
24.4379
 20
12.0531
 11
24.0729
 21
12.1468
  0
LINE
  8
0
 10
24.0729
 20
12.1468
 11
23.7227
 21
12.2855
  0
LINE
  8
0
 10
23.7227
 20
12.2855
 11
23.3925
 21
12.467
  0
LINE
  8
0
 10
23.3925
 20
12.467
 11
23.0877
 21
12.6884
  0
LINE
  8
0
 10
23.0877
 20
12.6884
 11
22.8131
 21
12.9464
  0
LINE
  8
0
 10
22.8131
 20
12.9464
 11
22.5729
 21
13.2366
  0
LINE
  8
0
 10
22.5729
 20
13.2366
 11
22.3711
 21
13.5547
  0
LINE
  8
0
 10
22.3711
 20
13.5547
 11
22.2107
 21
13.8956
  0
LINE
  8
0
 10
22.2107
 20
13.8956
 11
22.0942
 21
14.2539
  0
LINE
  8
0
 10
22.0942
 20
14.2539
 11
22.0492
 21
14.4901
  0
LINE
  8
0
 10
22.0492
 20
14.4901
 11
12.9508
 21
14.4901
  0
LINE
  8
0
 10
12.9508
 20
14.4901
 11
12.9057
 21
14.2539
  0
LINE
  8
0
 10
12.9057
 20
14.2539
 11
12.7893
 21
13.8956
  0
LINE
  8
0
 10
12.7893
 20
13.8956
 11
12.6289
 21
13.5547
  0
LINE
  8
0
 10
12.6289
 20
13.5547
 11
12.427
 21
13.2366
  0
LINE
  8
0
 10
12.427
 20
13.2366
 11
12.1869
 21
12.9464
  0
LINE
  8
0
 10
12.1869
 20
12.9464
 11
11.9123
 21
12.6884
  0
LINE
  8
0
 10
11.9123
 20
12.6884
 11
11.6075
 21
12.467
  0
LINE
  8
0
 10
11.6075
 20
12.467
 11
11.2773
 21
12.2855
  0
LINE
  8
0
 10
11.2773
 20
12.2855
 11
10.927
 21
12.1468
  0
LINE
  8
0
 10
10.927
 20
12.1468
 11
10.5621
 21
12.0531
  0
LINE
  8
0
 10
10.5621
 20
12.0531
 11
10.1884
 21
12.0059
  0
LINE
  8
0
 10
10.1884
 20
12.0059
 11
9.81161
 21
12.0059
  0
LINE
  8
0
 10
9.81161
 20
12.0059
 11
9.43785
 21
12.0531
  0
LINE
  8
0
 10
9.43785
 20
12.0531
 11
9.07294
 21
12.1468
  0
LINE
  8
0
 10
9.07294
 20
12.1468
 11
8.72266
 21
12.2855
  0
LINE
  8
0
 10
8.72266
 20
12.2855
 11
8.39252
 21
12.467
  0
LINE
  8
0
 10
8.39252
 20
12.467
 11
8.08772
 21
12.6884
  0
LINE
  8
0
 10
8.08772
 20
12.6884
 11
7.81308
 21
12.9464
  0
LINE
  8
0
 10
7.81308
 20
12.9464
 11
7.57294
 21
13.2366
  0
LINE
  8
0
 10
7.57294
 20
13.2366
 11
7.37108
 21
13.5547
  0
LINE
  8
0
 10
7.37108
 20
13.5547
 11
7.21066
 21
13.8956
  0
LINE
  8
0
 10
7.21066
 20
13.8956
 11
7.09424
 21
14.2539
  0
LINE
  8
0
 10
7.09424
 20
14.2539
 11
7.04918
 21
14.4901
  0
LINE
  8
0
 10
7.04918
 20
14.4901
 11
-32.3139
 21
14.4901
  0
LINE
  8
0
 10
-32.3139
 20
14.4901
 11
-32.9369
 21
14.4114
  0
LINE
  8
0
 10
-32.9369
 20
14.4114
 11
-33.5451
 21
14.2553
  0
LINE
  8
0
 10
-33.5451
 20
14.2553
 11
-34.1289
 21
14.0241
  0
LINE
  8
0
 10
-34.1289
 20
14.0241
 11
-34.6791
 21
13.7216
  0
LINE
  8
0
 10
-34.6791
 20
13.7216
 11
-35.1871
 21
13.3526
  0
LINE
  8
0
 10
-35.1871
 20
13.3526
 11
-35.6448
 21
12.9227
  0
LINE
  8
0
 10
-35.6448
 20
12.9227
 11
-36.0451
 21
12.4389
  0
LINE
  8
0
 10
-36.0451
 20
12.4389
 11
-36.3815
 21
11.9088
  0
LINE
  8
0
 10
-36.3815
 20
11.9088
 11
-36.6489
 21
11.3406
  0
LINE
  8
0
 10
-36.6489
 20
11.3406
 11
-36.8429
 21
10.7434
  0
LINE
  8
0
 10
-36.8429
 20
10.7434
 11
-36.9606
 21
10.1267
  0
LINE
  8
0
 10
-36.9606
 20
10.1267
 11
-37
 21
9.5
  0
LINE
  8
0
 10
-37
 20
9.5
 11
-37
 21
-9.5
  0
LINE
  8
0
 10
-37
 20
-9.5
 11
-36.9606
 21
-10.1267
  0
LINE
  8
0
 10
-36.9606
 20
-10.1267
 11
-36.8429
 21
-10.7434
  0
LINE
  8
0
 10
-36.8429
 20
-10.7434
 11
-36.6489
 21
-11.3406
  0
LINE
  8
0
 10
-36.6489
 20
-11.3406
 11
-36.3815
 21
-11.9088
  0
LINE
  8
0
 10
-36.3815
 20
-11.9088
 11
-36.0451
 21
-12.4389
  0
LINE
  8
0
 10
-36.0451
 20
-12.4389
 11
-35.6448
 21
-12.9227
  0
LINE
  8
0
 10
-35.6448
 20
-12.9227
 11
-35.1871
 21
-13.3526
  0
LINE
  8
0
 10
-35.1871
 20
-13.3526
 11
-34.6791
 21
-13.7216
  0
LINE
  8
0
 10
-34.6791
 20
-13.7216
 11
-34.1289
 21
-14.0241
  0
LINE
  8
0
 10
-34.1289
 20
-14.0241
 11
-33.5451
 21
-14.2553
  0
LINE
  8
0
 10
-33.5451
 20
-14.2553
 11
-32.9369
 21
-14.4114
  0
LINE
  8
0
 10
-32.9369
 20
-14.4114
 11
-32.3139
 21
-14.4901
  0
LINE
  8
0
 10
-32.3139
 20
-14.4901
 11
32.3139
 21
-14.4901
  0
LINE
  8
0
 10
32.3139
 20
-14.4901
 11
32.9369
 21
-14.4114
  0
LINE
  8
0
 10
29.8116
 20
4.50591
 11
29.4379
 21
4.55313
  0
LINE
  8
0
 10
29.4379
 20
4.55313
 11
29.0729
 21
4.64682
  0
LINE
  8
0
 10
29.0729
 20
4.64682
 11
28.7227
 21
4.78551
  0
LINE
  8
0
 10
28.7227
 20
4.78551
 11
28.3925
 21
4.96701
  0
LINE
  8
0
 10
28.3925
 20
4.96701
 11
28.0877
 21
5.18845
  0
LINE
  8
0
 10
28.0877
 20
5.18845
 11
27.8131
 21
5.44635
  0
LINE
  8
0
 10
27.8131
 20
5.44635
 11
27.5729
 21
5.73663
  0
LINE
  8
0
 10
27.5729
 20
5.73663
 11
27.3711
 21
6.05473
  0
LINE
  8
0
 10
27.3711
 20
6.05473
 11
27.2107
 21
6.39561
  0
LINE
  8
0
 10
27.2107
 20
6.39561
 11
27.0942
 21
6.75392
  0
LINE
  8
0
 10
27.0942
 20
6.75392
 11
27.0237
 21
7.12399
  0
LINE
  8
0
 10
27.0237
 20
7.12399
 11
27
 21
7.5
  0
LINE
  8
0
 10
27
 20
7.5
 11
27.0237
 21
7.87599
  0
LINE
  8
0
 10
27.0237
 20
7.87599
 11
27.0942
 21
8.24606
  0
LINE
  8
0
 10
27.0942
 20
8.24606
 11
27.2107
 21
8.60437
  0
LINE
  8
0
 10
27.2107
 20
8.60437
 11
27.3711
 21
8.94525
  0
LINE
  8
0
 10
27.3711
 20
8.94525
 11
27.5729
 21
9.26335
  0
LINE
  8
0
 10
27.5729
 20
9.26335
 11
27.8131
 21
9.55363
  0
LINE
  8
0
 10
27.8131
 20
9.55363
 11
28.0877
 21
9.81154
  0
LINE
  8
0
 10
28.0877
 20
9.81154
 11
28.3925
 21
10.033
  0
LINE
  8
0
 10
28.3925
 20
10.033
 11
28.7227
 21
10.2145
  0
LINE
  8
0
 10
28.7227
 20
10.2145
 11
29.0729
 21
10.3532
  0
LINE
  8
0
 10
29.0729
 20
10.3532
 11
29.4379
 21
10.4469
  0
LINE
  8
0
 10
29.4379
 20
10.4469
 11
29.8116
 21
10.4941
  0
LINE
  8
0
 10
29.8116
 20
10.4941
 11
30.1884
 21
10.4941
  0
LINE
  8
0
 10
30.1884
 20
10.4941
 11
30.5621
 21
10.4469
  0
LINE
  8
0
 10
30.5621
 20
10.4469
 11
30.927
 21
10.3532
  0
LINE
  8
0
 10
30.927
 20
10.3532
 11
31.2773
 21
10.2145
  0
LINE
  8
0
 10
31.2773
 20
10.2145
 11
31.6075
 21
10.033
  0
LINE
  8
0
 10
31.6075
 20
10.033
 11
31.9123
 21
9.81154
  0
LINE
  8
0
 10
31.9123
 20
9.81154
 11
32.1869
 21
9.55363
  0
LINE
  8
0
 10
32.1869
 20
9.55363
 11
32.427
 21
9.26335
  0
LINE
  8
0
 10
32.427
 20
9.26335
 11
32.6289
 21
8.94525
  0
LINE
  8
0
 10
32.6289
 20
8.94525
 11
32.7893
 21
8.60437
  0
LINE
  8
0
 10
32.7893
 20
8.60437
 11
32.9057
 21
8.24606
  0
LINE
  8
0
 10
32.9057
 20
8.24606
 11
32.9763
 21
7.87599
  0
LINE
  8
0
 10
32.9763
 20
7.87599
 11
33
 21
7.5
  0
LINE
  8
0
 10
33
 20
7.5
 11
32.9763
 21
7.12399
  0
LINE
  8
0
 10
32.9763
 20
7.12399
 11
32.9057
 21
6.75392
  0
LINE
  8
0
 10
32.9057
 20
6.75392
 11
32.7893
 21
6.39561
  0
LINE
  8
0
 10
32.7893
 20
6.39561
 11
32.6289
 21
6.05473
  0
LINE
  8
0
 10
32.6289
 20
6.05473
 11
32.427
 21
5.73663
  0
LINE
  8
0
 10
32.427
 20
5.73663
 11
32.1869
 21
5.44635
  0
LINE
  8
0
 10
32.1869
 20
5.44635
 11
31.9123
 21
5.18845
  0
LINE
  8
0
 10
31.9123
 20
5.18845
 11
31.6075
 21
4.96701
  0
LINE
  8
0
 10
31.6075
 20
4.96701
 11
31.2773
 21
4.78551
  0
LINE
  8
0
 10
31.2773
 20
4.78551
 11
30.927
 21
4.64682
  0
LINE
  8
0
 10
30.927
 20
4.64682
 11
30.5621
 21
4.55313
  0
LINE
  8
0
 10
30.5621
 20
4.55313
 11
30.1884
 21
4.50591
  0
LINE
  8
0
 10
30.1884
 20
4.50591
 11
29.8116
 21
4.50591
  0
LINE
  8
0
 10
-0.18837
 20
4.50591
 11
-0.562134
 21
4.55313
  0
LINE
  8
0
 10
-0.562134
 20
4.55313
 11
-0.927048
 21
4.64682
  0
LINE
  8
0
 10
-0.927048
 20
4.64682
 11
-1.27733
 21
4.78551
  0
LINE
  8
0
 10
-1.27733
 20
4.78551
 11
-1.60747
 21
4.96701
  0
LINE
  8
0
 10
-1.60747
 20
4.96701
 11
-1.91226
 21
5.18845
  0
LINE
  8
0
 10
-1.91226
 20
5.18845
 11
-2.1869
 21
5.44635
  0
LINE
  8
0
 10
-2.1869
 20
5.44635
 11
-2.42705
 21
5.73663
  0
LINE
  8
0
 10
-2.42705
 20
5.73663
 11
-2.62891
 21
6.05473
  0
LINE
  8
0
 10
-2.62891
 20
6.05473
 11
-2.78932
 21
6.39561
  0
LINE
  8
0
 10
-2.78932
 20
6.39561
 11
-2.90575
 21
6.75392
  0
LINE
  8
0
 10
-2.90575
 20
6.75392
 11
-2.97633
 21
7.12399
  0
LINE
  8
0
 10
-2.97633
 20
7.12399
 11
-3
 21
7.5
  0
LINE
  8
0
 10
-3
 20
7.5
 11
-2.97633
 21
7.87599
  0
LINE
  8
0
 10
-2.97633
 20
7.87599
 11
-2.90575
 21
8.24606
  0
LINE
  8
0
 10
-2.90575
 20
8.24606
 11
-2.78932
 21
8.60437
  0
LINE
  8
0
 10
-2.78932
 20
8.60437
 11
-2.62891
 21
8.94525
  0
LINE
  8
0
 10
-2.62891
 20
8.94525
 11
-2.42705
 21
9.26335
  0
LINE
  8
0
 10
-2.42705
 20
9.26335
 11
-2.1869
 21
9.55363
  0
LINE
  8
0
 10
-2.1869
 20
9.55363
 11
-1.91226
 21
9.81154
  0
LINE
  8
0
 10
-1.91226
 20
9.81154
 11
-1.60747
 21
10.033
  0
LINE
  8
0
 10
-1.60747
 20
10.033
 11
-1.27733
 21
10.2145
  0
LINE
  8
0
 10
-1.27733
 20
10.2145
 11
-0.927048
 21
10.3532
  0
LINE
  8
0
 10
-0.927048
 20
10.3532
 11
-0.562134
 21
10.4469
  0
LINE
  8
0
 10
-0.562134
 20
10.4469
 11
-0.18837
 21
10.4941
  0
LINE
  8
0
 10
-0.18837
 20
10.4941
 11
0.18837
 21
10.4941
  0
LINE
  8
0
 10
0.18837
 20
10.4941
 11
0.562134
 21
10.4469
  0
LINE
  8
0
 10
0.562134
 20
10.4469
 11
0.927048
 21
10.3532
  0
LINE
  8
0
 10
0.927048
 20
10.3532
 11
1.27733
 21
10.2145
  0
LINE
  8
0
 10
1.27733
 20
10.2145
 11
1.60747
 21
10.033
  0
LINE
  8
0
 10
1.60747
 20
10.033
 11
1.91226
 21
9.81154
  0
LINE
  8
0
 10
1.91226
 20
9.81154
 11
2.1869
 21
9.55363
  0
LINE
  8
0
 10
2.1869
 20
9.55363
 11
2.42705
 21
9.26335
  0
LINE
  8
0
 10
2.42705
 20
9.26335
 11
2.62891
 21
8.94525
  0
LINE
  8
0
 10
2.62891
 20
8.94525
 11
2.78932
 21
8.60437
  0
LINE
  8
0
 10
2.78932
 20
8.60437
 11
2.90575
 21
8.24606
  0
LINE
  8
0
 10
2.90575
 20
8.24606
 11
2.97633
 21
7.87599
  0
LINE
  8
0
 10
2.97633
 20
7.87599
 11
3
 21
7.5
  0
LINE
  8
0
 10
3
 20
7.5
 11
2.97633
 21
7.12399
  0
LINE
  8
0
 10
2.97633
 20
7.12399
 11
2.90575
 21
6.75392
  0
LINE
  8
0
 10
2.90575
 20
6.75392
 11
2.78932
 21
6.39561
  0
LINE
  8
0
 10
2.78932
 20
6.39561
 11
2.62891
 21
6.05473
  0
LINE
  8
0
 10
2.62891
 20
6.05473
 11
2.42705
 21
5.73663
  0
LINE
  8
0
 10
2.42705
 20
5.73663
 11
2.1869
 21
5.44635
  0
LINE
  8
0
 10
2.1869
 20
5.44635
 11
1.91226
 21
5.18845
  0
LINE
  8
0
 10
1.91226
 20
5.18845
 11
1.60747
 21
4.96701
  0
LINE
  8
0
 10
1.60747
 20
4.96701
 11
1.27733
 21
4.78551
  0
LINE
  8
0
 10
1.27733
 20
4.78551
 11
0.927048
 21
4.64682
  0
LINE
  8
0
 10
0.927048
 20
4.64682
 11
0.562134
 21
4.55313
  0
LINE
  8
0
 10
0.562134
 20
4.55313
 11
0.18837
 21
4.50591
  0
LINE
  8
0
 10
0.18837
 20
4.50591
 11
-0.18837
 21
4.50591
  0
LINE
  8
0
 10
-30.1884
 20
4.50591
 11
-30.5621
 21
4.55313
  0
LINE
  8
0
 10
-30.5621
 20
4.55313
 11
-30.927
 21
4.64682
  0
LINE
  8
0
 10
-30.927
 20
4.64682
 11
-31.2773
 21
4.78551
  0
LINE
  8
0
 10
-31.2773
 20
4.78551
 11
-31.6075
 21
4.96701
  0
LINE
  8
0
 10
-31.6075
 20
4.96701
 11
-31.9123
 21
5.18845
  0
LINE
  8
0
 10
-31.9123
 20
5.18845
 11
-32.1869
 21
5.44635
  0
LINE
  8
0
 10
-32.1869
 20
5.44635
 11
-32.427
 21
5.73663
  0
LINE
  8
0
 10
-32.427
 20
5.73663
 11
-32.6289
 21
6.05473
  0
LINE
  8
0
 10
-32.6289
 20
6.05473
 11
-32.7893
 21
6.39561
  0
LINE
  8
0
 10
-32.7893
 20
6.39561
 11
-32.9057
 21
6.75392
  0
LINE
  8
0
 10
-32.9057
 20
6.75392
 11
-32.9763
 21
7.12399
  0
LINE
  8
0
 10
-32.9763
 20
7.12399
 11
-33
 21
7.5
  0
LINE
  8
0
 10
-33
 20
7.5
 11
-32.9763
 21
7.87599
  0
LINE
  8
0
 10
-32.9763
 20
7.87599
 11
-32.9057
 21
8.24606
  0
LINE
  8
0
 10
-32.9057
 20
8.24606
 11
-32.7893
 21
8.60437
  0
LINE
  8
0
 10
-32.7893
 20
8.60437
 11
-32.6289
 21
8.94525
  0
LINE
  8
0
 10
-32.6289
 20
8.94525
 11
-32.427
 21
9.26335
  0
LINE
  8
0
 10
-32.427
 20
9.26335
 11
-32.1869
 21
9.55363
  0
LINE
  8
0
 10
-32.1869
 20
9.55363
 11
-31.9123
 21
9.81154
  0
LINE
  8
0
 10
-31.9123
 20
9.81154
 11
-31.6075
 21
10.033
  0
LINE
  8
0
 10
-31.6075
 20
10.033
 11
-31.2773
 21
10.2145
  0
LINE
  8
0
 10
-31.2773
 20
10.2145
 11
-30.927
 21
10.3532
  0
LINE
  8
0
 10
-30.927
 20
10.3532
 11
-30.5621
 21
10.4469
  0
LINE
  8
0
 10
-30.5621
 20
10.4469
 11
-30.1884
 21
10.4941
  0
LINE
  8
0
 10
-30.1884
 20
10.4941
 11
-29.8116
 21
10.4941
  0
LINE
  8
0
 10
-29.8116
 20
10.4941
 11
-29.4379
 21
10.4469
  0
LINE
  8
0
 10
-29.4379
 20
10.4469
 11
-29.0729
 21
10.3532
  0
LINE
  8
0
 10
-29.0729
 20
10.3532
 11
-28.7227
 21
10.2145
  0
LINE
  8
0
 10
-28.7227
 20
10.2145
 11
-28.3925
 21
10.033
  0
LINE
  8
0
 10
-28.3925
 20
10.033
 11
-28.0877
 21
9.81154
  0
LINE
  8
0
 10
-28.0877
 20
9.81154
 11
-27.8131
 21
9.55363
  0
LINE
  8
0
 10
-27.8131
 20
9.55363
 11
-27.5729
 21
9.26335
  0
LINE
  8
0
 10
-27.5729
 20
9.26335
 11
-27.3711
 21
8.94525
  0
LINE
  8
0
 10
-27.3711
 20
8.94525
 11
-27.2107
 21
8.60437
  0
LINE
  8
0
 10
-27.2107
 20
8.60437
 11
-27.0942
 21
8.24606
  0
LINE
  8
0
 10
-27.0942
 20
8.24606
 11
-27.0237
 21
7.87599
  0
LINE
  8
0
 10
-27.0237
 20
7.87599
 11
-27
 21
7.5
  0
LINE
  8
0
 10
-27
 20
7.5
 11
-27.0237
 21
7.12399
  0
LINE
  8
0
 10
-27.0237
 20
7.12399
 11
-27.0942
 21
6.75392
  0
LINE
  8
0
 10
-27.0942
 20
6.75392
 11
-27.2107
 21
6.39561
  0
LINE
  8
0
 10
-27.2107
 20
6.39561
 11
-27.3711
 21
6.05473
  0
LINE
  8
0
 10
-27.3711
 20
6.05473
 11
-27.5729
 21
5.73663
  0
LINE
  8
0
 10
-27.5729
 20
5.73663
 11
-27.8131
 21
5.44635
  0
LINE
  8
0
 10
-27.8131
 20
5.44635
 11
-28.0877
 21
5.18845
  0
LINE
  8
0
 10
-28.0877
 20
5.18845
 11
-28.3925
 21
4.96701
  0
LINE
  8
0
 10
-28.3925
 20
4.96701
 11
-28.7227
 21
4.78551
  0
LINE
  8
0
 10
-28.7227
 20
4.78551
 11
-29.0729
 21
4.64682
  0
LINE
  8
0
 10
-29.0729
 20
4.64682
 11
-29.4379
 21
4.55313
  0
LINE
  8
0
 10
-29.4379
 20
4.55313
 11
-29.8116
 21
4.50591
  0
LINE
  8
0
 10
-29.8116
 20
4.50591
 11
-30.1884
 21
4.50591
  0
LINE
  8
0
 10
14.8116
 20
4.50591
 11
14.4379
 21
4.55313
  0
LINE
  8
0
 10
14.4379
 20
4.55313
 11
14.0729
 21
4.64682
  0
LINE
  8
0
 10
14.0729
 20
4.64682
 11
13.7227
 21
4.78551
  0
LINE
  8
0
 10
13.7227
 20
4.78551
 11
13.3925
 21
4.96701
  0
LINE
  8
0
 10
13.3925
 20
4.96701
 11
13.0877
 21
5.18845
  0
LINE
  8
0
 10
13.0877
 20
5.18845
 11
12.8131
 21
5.44635
  0
LINE
  8
0
 10
12.8131
 20
5.44635
 11
12.5729
 21
5.73663
  0
LINE
  8
0
 10
12.5729
 20
5.73663
 11
12.3711
 21
6.05473
  0
LINE
  8
0
 10
12.3711
 20
6.05473
 11
12.2107
 21
6.39561
  0
LINE
  8
0
 10
12.2107
 20
6.39561
 11
12.0942
 21
6.75392
  0
LINE
  8
0
 10
12.0942
 20
6.75392
 11
12.0237
 21
7.12399
  0
LINE
  8
0
 10
12.0237
 20
7.12399
 11
12
 21
7.5
  0
LINE
  8
0
 10
12
 20
7.5
 11
12.0237
 21
7.87599
  0
LINE
  8
0
 10
12.0237
 20
7.87599
 11
12.0942
 21
8.24606
  0
LINE
  8
0
 10
12.0942
 20
8.24606
 11
12.2107
 21
8.60437
  0
LINE
  8
0
 10
12.2107
 20
8.60437
 11
12.3711
 21
8.94525
  0
LINE
  8
0
 10
12.3711
 20
8.94525
 11
12.5729
 21
9.26335
  0
LINE
  8
0
 10
12.5729
 20
9.26335
 11
12.8131
 21
9.55363
  0
LINE
  8
0
 10
12.8131
 20
9.55363
 11
13.0877
 21
9.81154
  0
LINE
  8
0
 10
13.0877
 20
9.81154
 11
13.3925
 21
10.033
  0
LINE
  8
0
 10
13.3925
 20
10.033
 11
13.7227
 21
10.2145
  0
LINE
  8
0
 10
13.7227
 20
10.2145
 11
14.0729
 21
10.3532
  0
LINE
  8
0
 10
14.0729
 20
10.3532
 11
14.4379
 21
10.4469
  0
LINE
  8
0
 10
14.4379
 20
10.4469
 11
14.8116
 21
10.4941
  0
LINE
  8
0
 10
14.8116
 20
10.4941
 11
15.1884
 21
10.4941
  0
LINE
  8
0
 10
15.1884
 20
10.4941
 11
15.5621
 21
10.4469
  0
LINE
  8
0
 10
15.5621
 20
10.4469
 11
15.927
 21
10.3532
  0
LINE
  8
0
 10
15.927
 20
10.3532
 11
16.2773
 21
10.2145
  0
LINE
  8
0
 10
16.2773
 20
10.2145
 11
16.6075
 21
10.033
  0
LINE
  8
0
 10
16.6075
 20
10.033
 11
16.9123
 21
9.81154
  0
LINE
  8
0
 10
16.9123
 20
9.81154
 11
17.1869
 21
9.55363
  0
LINE
  8
0
 10
17.1869
 20
9.55363
 11
17.427
 21
9.26335
  0
LINE
  8
0
 10
17.427
 20
9.26335
 11
17.6289
 21
8.94525
  0
LINE
  8
0
 10
17.6289
 20
8.94525
 11
17.7893
 21
8.60437
  0
LINE
  8
0
 10
17.7893
 20
8.60437
 11
17.9057
 21
8.24606
  0
LINE
  8
0
 10
17.9057
 20
8.24606
 11
17.9763
 21
7.87599
  0
LINE
  8
0
 10
17.9763
 20
7.87599
 11
18
 21
7.5
  0
LINE
  8
0
 10
18
 20
7.5
 11
17.9763
 21
7.12399
  0
LINE
  8
0
 10
17.9763
 20
7.12399
 11
17.9057
 21
6.75392
  0
LINE
  8
0
 10
17.9057
 20
6.75392
 11
17.7893
 21
6.39561
  0
LINE
  8
0
 10
17.7893
 20
6.39561
 11
17.6289
 21
6.05473
  0
LINE
  8
0
 10
17.6289
 20
6.05473
 11
17.427
 21
5.73663
  0
LINE
  8
0
 10
17.427
 20
5.73663
 11
17.1869
 21
5.44635
  0
LINE
  8
0
 10
17.1869
 20
5.44635
 11
16.9123
 21
5.18845
  0
LINE
  8
0
 10
16.9123
 20
5.18845
 11
16.6075
 21
4.96701
  0
LINE
  8
0
 10
16.6075
 20
4.96701
 11
16.2773
 21
4.78551
  0
LINE
  8
0
 10
16.2773
 20
4.78551
 11
15.927
 21
4.64682
  0
LINE
  8
0
 10
15.927
 20
4.64682
 11
15.5621
 21
4.55313
  0
LINE
  8
0
 10
15.5621
 20
4.55313
 11
15.1884
 21
4.50591
  0
LINE
  8
0
 10
15.1884
 20
4.50591
 11
14.8116
 21
4.50591
  0
LINE
  8
0
 10
-15.1884
 20
4.50591
 11
-15.5621
 21
4.55313
  0
LINE
  8
0
 10
-15.5621
 20
4.55313
 11
-15.927
 21
4.64682
  0
LINE
  8
0
 10
-15.927
 20
4.64682
 11
-16.2773
 21
4.78551
  0
LINE
  8
0
 10
-16.2773
 20
4.78551
 11
-16.6075
 21
4.96701
  0
LINE
  8
0
 10
-16.6075
 20
4.96701
 11
-16.9123
 21
5.18845
  0
LINE
  8
0
 10
-16.9123
 20
5.18845
 11
-17.1869
 21
5.44635
  0
LINE
  8
0
 10
-17.1869
 20
5.44635
 11
-17.427
 21
5.73663
  0
LINE
  8
0
 10
-17.427
 20
5.73663
 11
-17.6289
 21
6.05473
  0
LINE
  8
0
 10
-17.6289
 20
6.05473
 11
-17.7893
 21
6.39561
  0
LINE
  8
0
 10
-17.7893
 20
6.39561
 11
-17.9057
 21
6.75392
  0
LINE
  8
0
 10
-17.9057
 20
6.75392
 11
-17.9763
 21
7.12399
  0
LINE
  8
0
 10
-17.9763
 20
7.12399
 11
-18
 21
7.5
  0
LINE
  8
0
 10
-18
 20
7.5
 11
-17.9763
 21
7.87599
  0
LINE
  8
0
 10
-17.9763
 20
7.87599
 11
-17.9057
 21
8.24606
  0
LINE
  8
0
 10
-17.9057
 20
8.24606
 11
-17.7893
 21
8.60437
  0
LINE
  8
0
 10
-17.7893
 20
8.60437
 11
-17.6289
 21
8.94525
  0
LINE
  8
0
 10
-17.6289
 20
8.94525
 11
-17.427
 21
9.26335
  0
LINE
  8
0
 10
-17.427
 20
9.26335
 11
-17.1869
 21
9.55363
  0
LINE
  8
0
 10
-17.1869
 20
9.55363
 11
-16.9123
 21
9.81154
  0
LINE
  8
0
 10
-16.9123
 20
9.81154
 11
-16.6075
 21
10.033
  0
LINE
  8
0
 10
-16.6075
 20
10.033
 11
-16.2773
 21
10.2145
  0
LINE
  8
0
 10
-16.2773
 20
10.2145
 11
-15.927
 21
10.3532
  0
LINE
  8
0
 10
-15.927
 20
10.3532
 11
-15.5621
 21
10.4469
  0
LINE
  8
0
 10
-15.5621
 20
10.4469
 11
-15.1884
 21
10.4941
  0
LINE
  8
0
 10
-15.1884
 20
10.4941
 11
-14.8116
 21
10.4941
  0
LINE
  8
0
 10
-14.8116
 20
10.4941
 11
-14.4379
 21
10.4469
  0
LINE
  8
0
 10
-14.4379
 20
10.4469
 11
-14.0729
 21
10.3532
  0
LINE
  8
0
 10
-14.0729
 20
10.3532
 11
-13.7227
 21
10.2145
  0
LINE
  8
0
 10
-13.7227
 20
10.2145
 11
-13.3925
 21
10.033
  0
LINE
  8
0
 10
-13.3925
 20
10.033
 11
-13.0877
 21
9.81154
  0
LINE
  8
0
 10
-13.0877
 20
9.81154
 11
-12.8131
 21
9.55363
  0
LINE
  8
0
 10
-12.8131
 20
9.55363
 11
-12.5729
 21
9.26335
  0
LINE
  8
0
 10
-12.5729
 20
9.26335
 11
-12.3711
 21
8.94525
  0
LINE
  8
0
 10
-12.3711
 20
8.94525
 11
-12.2107
 21
8.60437
  0
LINE
  8
0
 10
-12.2107
 20
8.60437
 11
-12.0942
 21
8.24606
  0
LINE
  8
0
 10
-12.0942
 20
8.24606
 11
-12.0237
 21
7.87599
  0
LINE
  8
0
 10
-12.0237
 20
7.87599
 11
-12
 21
7.5
  0
LINE
  8
0
 10
-12
 20
7.5
 11
-12.0237
 21
7.12399
  0
LINE
  8
0
 10
-12.0237
 20
7.12399
 11
-12.0942
 21
6.75392
  0
LINE
  8
0
 10
-12.0942
 20
6.75392
 11
-12.2107
 21
6.39561
  0
LINE
  8
0
 10
-12.2107
 20
6.39561
 11
-12.3711
 21
6.05473
  0
LINE
  8
0
 10
-12.3711
 20
6.05473
 11
-12.5729
 21
5.73663
  0
LINE
  8
0
 10
-12.5729
 20
5.73663
 11
-12.8131
 21
5.44635
  0
LINE
  8
0
 10
-12.8131
 20
5.44635
 11
-13.0877
 21
5.18845
  0
LINE
  8
0
 10
-13.0877
 20
5.18845
 11
-13.3925
 21
4.96701
  0
LINE
  8
0
 10
-13.3925
 20
4.96701
 11
-13.7227
 21
4.78551
  0
LINE
  8
0
 10
-13.7227
 20
4.78551
 11
-14.0729
 21
4.64682
  0
LINE
  8
0
 10
-14.0729
 20
4.64682
 11
-14.4379
 21
4.55313
  0
LINE
  8
0
 10
-14.4379
 20
4.55313
 11
-14.8116
 21
4.50591
  0
LINE
  8
0
 10
-14.8116
 20
4.50591
 11
-15.1884
 21
4.50591
  0
LINE
  8
0
 10
-25.1884
 20
-2.99408
 11
-25.5621
 21
-2.94685
  0
LINE
  8
0
 10
-25.5621
 20
-2.94685
 11
-25.927
 21
-2.85316
  0
LINE
  8
0
 10
-25.927
 20
-2.85316
 11
-26.2773
 21
-2.71448
  0
LINE
  8
0
 10
-26.2773
 20
-2.71448
 11
-26.6075
 21
-2.53297
  0
LINE
  8
0
 10
-26.6075
 20
-2.53297
 11
-26.9123
 21
-2.31154
  0
LINE
  8
0
 10
-26.9123
 20
-2.31154
 11
-27.1869
 21
-2.05363
  0
LINE
  8
0
 10
-27.1869
 20
-2.05363
 11
-27.427
 21
-1.76335
  0
LINE
  8
0
 10
-27.427
 20
-1.76335
 11
-27.6289
 21
-1.44525
  0
LINE
  8
0
 10
-27.6289
 20
-1.44525
 11
-27.7893
 21
-1.10437
  0
LINE
  8
0
 10
-27.7893
 20
-1.10437
 11
-27.9057
 21
-0.746063
  0
LINE
  8
0
 10
-27.9057
 20
-0.746063
 11
-27.9763
 21
-0.375992
  0
LINE
  8
0
 10
-27.9763
 20
-0.375992
 11
-28
 21
0
  0
LINE
  8
0
 10
-28
 20
0
 11
-27.9763
 21
0.375992
  0
LINE
  8
0
 10
-27.9763
 20
0.375992
 11
-27.9057
 21
0.746063
  0
LINE
  8
0
 10
-27.9057
 20
0.746063
 11
-27.7893
 21
1.10437
  0
LINE
  8
0
 10
-27.7893
 20
1.10437
 11
-27.6289
 21
1.44525
  0
LINE
  8
0
 10
-27.6289
 20
1.44525
 11
-27.427
 21
1.76335
  0
LINE
  8
0
 10
-27.427
 20
1.76335
 11
-27.1869
 21
2.05363
  0
LINE
  8
0
 10
-27.1869
 20
2.05363
 11
-26.9123
 21
2.31154
  0
LINE
  8
0
 10
-26.9123
 20
2.31154
 11
-26.6075
 21
2.53297
  0
LINE
  8
0
 10
-26.6075
 20
2.53297
 11
-26.2773
 21
2.71448
  0
LINE
  8
0
 10
-26.2773
 20
2.71448
 11
-25.927
 21
2.85316
  0
LINE
  8
0
 10
-25.927
 20
2.85316
 11
-25.5621
 21
2.94685
  0
LINE
  8
0
 10
-25.5621
 20
2.94685
 11
-25.1884
 21
2.99408
  0
LINE
  8
0
 10
-25.1884
 20
2.99408
 11
-24.8116
 21
2.99408
  0
LINE
  8
0
 10
-24.8116
 20
2.99408
 11
-24.4379
 21
2.94685
  0
LINE
  8
0
 10
-24.4379
 20
2.94685
 11
-24.0729
 21
2.85316
  0
LINE
  8
0
 10
-24.0729
 20
2.85316
 11
-23.7227
 21
2.71448
  0
LINE
  8
0
 10
-23.7227
 20
2.71448
 11
-23.3925
 21
2.53297
  0
LINE
  8
0
 10
-23.3925
 20
2.53297
 11
-23.0877
 21
2.31154
  0
LINE
  8
0
 10
-23.0877
 20
2.31154
 11
-22.8131
 21
2.05363
  0
LINE
  8
0
 10
-22.8131
 20
2.05363
 11
-22.5729
 21
1.76335
  0
LINE
  8
0
 10
-22.5729
 20
1.76335
 11
-22.3711
 21
1.44525
  0
LINE
  8
0
 10
-22.3711
 20
1.44525
 11
-22.2107
 21
1.10437
  0
LINE
  8
0
 10
-22.2107
 20
1.10437
 11
-22.0942
 21
0.746063
  0
LINE
  8
0
 10
-22.0942
 20
0.746063
 11
-22.0237
 21
0.375992
  0
LINE
  8
0
 10
-22.0237
 20
0.375992
 11
-22
 21
0
  0
LINE
  8
0
 10
-22
 20
0
 11
-22.0237
 21
-0.375992
  0
LINE
  8
0
 10
-22.0237
 20
-0.375992
 11
-22.0942
 21
-0.746063
  0
LINE
  8
0
 10
-22.0942
 20
-0.746063
 11
-22.2107
 21
-1.10437
  0
LINE
  8
0
 10
-22.2107
 20
-1.10437
 11
-22.3711
 21
-1.44525
  0
LINE
  8
0
 10
-22.3711
 20
-1.44525
 11
-22.5729
 21
-1.76335
  0
LINE
  8
0
 10
-22.5729
 20
-1.76335
 11
-22.8131
 21
-2.05363
  0
LINE
  8
0
 10
-22.8131
 20
-2.05363
 11
-23.0877
 21
-2.31154
  0
LINE
  8
0
 10
-23.0877
 20
-2.31154
 11
-23.3925
 21
-2.53297
  0
LINE
  8
0
 10
-23.3925
 20
-2.53297
 11
-23.7227
 21
-2.71448
  0
LINE
  8
0
 10
-23.7227
 20
-2.71448
 11
-24.0729
 21
-2.85316
  0
LINE
  8
0
 10
-24.0729
 20
-2.85316
 11
-24.4379
 21
-2.94685
  0
LINE
  8
0
 10
-24.4379
 20
-2.94685
 11
-24.8116
 21
-2.99408
  0
LINE
  8
0
 10
-24.8116
 20
-2.99408
 11
-25.1884
 21
-2.99408
  0
LINE
  8
0
 10
-10.1884
 20
-2.99408
 11
-10.5621
 21
-2.94685
  0
LINE
  8
0
 10
-10.5621
 20
-2.94685
 11
-10.927
 21
-2.85316
  0
LINE
  8
0
 10
-10.927
 20
-2.85316
 11
-11.2773
 21
-2.71448
  0
LINE
  8
0
 10
-11.2773
 20
-2.71448
 11
-11.6075
 21
-2.53297
  0
LINE
  8
0
 10
-11.6075
 20
-2.53297
 11
-11.9123
 21
-2.31154
  0
LINE
  8
0
 10
-11.9123
 20
-2.31154
 11
-12.1869
 21
-2.05363
  0
LINE
  8
0
 10
-12.1869
 20
-2.05363
 11
-12.427
 21
-1.76335
  0
LINE
  8
0
 10
-12.427
 20
-1.76335
 11
-12.6289
 21
-1.44525
  0
LINE
  8
0
 10
-12.6289
 20
-1.44525
 11
-12.7893
 21
-1.10437
  0
LINE
  8
0
 10
-12.7893
 20
-1.10437
 11
-12.9057
 21
-0.746063
  0
LINE
  8
0
 10
-12.9057
 20
-0.746063
 11
-12.9763
 21
-0.375992
  0
LINE
  8
0
 10
-12.9763
 20
-0.375992
 11
-13
 21
0
  0
LINE
  8
0
 10
-13
 20
0
 11
-12.9763
 21
0.375992
  0
LINE
  8
0
 10
-12.9763
 20
0.375992
 11
-12.9057
 21
0.746063
  0
LINE
  8
0
 10
-12.9057
 20
0.746063
 11
-12.7893
 21
1.10437
  0
LINE
  8
0
 10
-12.7893
 20
1.10437
 11
-12.6289
 21
1.44525
  0
LINE
  8
0
 10
-12.6289
 20
1.44525
 11
-12.427
 21
1.76335
  0
LINE
  8
0
 10
-12.427
 20
1.76335
 11
-12.1869
 21
2.05363
  0
LINE
  8
0
 10
-12.1869
 20
2.05363
 11
-11.9123
 21
2.31154
  0
LINE
  8
0
 10
-11.9123
 20
2.31154
 11
-11.6075
 21
2.53297
  0
LINE
  8
0
 10
-11.6075
 20
2.53297
 11
-11.2773
 21
2.71448
  0
LINE
  8
0
 10
-11.2773
 20
2.71448
 11
-10.927
 21
2.85316
  0
LINE
  8
0
 10
-10.927
 20
2.85316
 11
-10.5621
 21
2.94685
  0
LINE
  8
0
 10
-10.5621
 20
2.94685
 11
-10.1884
 21
2.99408
  0
LINE
  8
0
 10
-10.1884
 20
2.99408
 11
-9.81161
 21
2.99408
  0
LINE
  8
0
 10
-9.81161
 20
2.99408
 11
-9.43785
 21
2.94685
  0
LINE
  8
0
 10
-9.43785
 20
2.94685
 11
-9.07294
 21
2.85316
  0
LINE
  8
0
 10
-9.07294
 20
2.85316
 11
-8.72266
 21
2.71448
  0
LINE
  8
0
 10
-8.72266
 20
2.71448
 11
-8.39252
 21
2.53297
  0
LINE
  8
0
 10
-8.39252
 20
2.53297
 11
-8.08772
 21
2.31154
  0
LINE
  8
0
 10
-8.08772
 20
2.31154
 11
-7.81308
 21
2.05363
  0
LINE
  8
0
 10
-7.81308
 20
2.05363
 11
-7.57294
 21
1.76335
  0
LINE
  8
0
 10
-7.57294
 20
1.76335
 11
-7.37108
 21
1.44525
  0
LINE
  8
0
 10
-7.37108
 20
1.44525
 11
-7.21066
 21
1.10437
  0
LINE
  8
0
 10
-7.21066
 20
1.10437
 11
-7.09424
 21
0.746063
  0
LINE
  8
0
 10
-7.09424
 20
0.746063
 11
-7.02365
 21
0.375992
  0
LINE
  8
0
 10
-7.02365
 20
0.375992
 11
-7
 21
0
  0
LINE
  8
0
 10
-7
 20
0
 11
-7.02365
 21
-0.375992
  0
LINE
  8
0
 10
-7.02365
 20
-0.375992
 11
-7.09424
 21
-0.746063
  0
LINE
  8
0
 10
-7.09424
 20
-0.746063
 11
-7.21066
 21
-1.10437
  0
LINE
  8
0
 10
-7.21066
 20
-1.10437
 11
-7.37108
 21
-1.44525
  0
LINE
  8
0
 10
-7.37108
 20
-1.44525
 11
-7.57294
 21
-1.76335
  0
LINE
  8
0
 10
-7.57294
 20
-1.76335
 11
-7.81308
 21
-2.05363
  0
LINE
  8
0
 10
-7.81308
 20
-2.05363
 11
-8.08772
 21
-2.31154
  0
LINE
  8
0
 10
-8.08772
 20
-2.31154
 11
-8.39252
 21
-2.53297
  0
LINE
  8
0
 10
-8.39252
 20
-2.53297
 11
-8.72266
 21
-2.71448
  0
LINE
  8
0
 10
-8.72266
 20
-2.71448
 11
-9.07294
 21
-2.85316
  0
LINE
  8
0
 10
-9.07294
 20
-2.85316
 11
-9.43785
 21
-2.94685
  0
LINE
  8
0
 10
-9.43785
 20
-2.94685
 11
-9.81161
 21
-2.99408
  0
LINE
  8
0
 10
-9.81161
 20
-2.99408
 11
-10.1884
 21
-2.99408
  0
LINE
  8
0
 10
-30.1884
 20
-10.4941
 11
-30.5621
 21
-10.4469
  0
LINE
  8
0
 10
-30.5621
 20
-10.4469
 11
-30.927
 21
-10.3532
  0
LINE
  8
0
 10
-30.927
 20
-10.3532
 11
-31.2773
 21
-10.2145
  0
LINE
  8
0
 10
-31.2773
 20
-10.2145
 11
-31.6075
 21
-10.033
  0
LINE
  8
0
 10
-31.6075
 20
-10.033
 11
-31.9123
 21
-9.81154
  0
LINE
  8
0
 10
-31.9123
 20
-9.81154
 11
-32.1869
 21
-9.55363
  0
LINE
  8
0
 10
-32.1869
 20
-9.55363
 11
-32.427
 21
-9.26335
  0
LINE
  8
0
 10
-32.427
 20
-9.26335
 11
-32.6289
 21
-8.94525
  0
LINE
  8
0
 10
-32.6289
 20
-8.94525
 11
-32.7893
 21
-8.60437
  0
LINE
  8
0
 10
-32.7893
 20
-8.60437
 11
-32.9057
 21
-8.24606
  0
LINE
  8
0
 10
-32.9057
 20
-8.24606
 11
-32.9763
 21
-7.87599
  0
LINE
  8
0
 10
-32.9763
 20
-7.87599
 11
-33
 21
-7.5
  0
LINE
  8
0
 10
-33
 20
-7.5
 11
-32.9763
 21
-7.12399
  0
LINE
  8
0
 10
-32.9763
 20
-7.12399
 11
-32.9057
 21
-6.75392
  0
LINE
  8
0
 10
-32.9057
 20
-6.75392
 11
-32.7893
 21
-6.39561
  0
LINE
  8
0
 10
-32.7893
 20
-6.39561
 11
-32.6289
 21
-6.05473
  0
LINE
  8
0
 10
-32.6289
 20
-6.05473
 11
-32.427
 21
-5.73663
  0
LINE
  8
0
 10
-32.427
 20
-5.73663
 11
-32.1869
 21
-5.44635
  0
LINE
  8
0
 10
-32.1869
 20
-5.44635
 11
-31.9123
 21
-5.18845
  0
LINE
  8
0
 10
-31.9123
 20
-5.18845
 11
-31.6075
 21
-4.96701
  0
LINE
  8
0
 10
-31.6075
 20
-4.96701
 11
-31.2773
 21
-4.78551
  0
LINE
  8
0
 10
-31.2773
 20
-4.78551
 11
-30.927
 21
-4.64682
  0
LINE
  8
0
 10
-30.927
 20
-4.64682
 11
-30.5621
 21
-4.55313
  0
LINE
  8
0
 10
-30.5621
 20
-4.55313
 11
-30.1884
 21
-4.50591
  0
LINE
  8
0
 10
-30.1884
 20
-4.50591
 11
-29.8116
 21
-4.50591
  0
LINE
  8
0
 10
-29.8116
 20
-4.50591
 11
-29.4379
 21
-4.55313
  0
LINE
  8
0
 10
-29.4379
 20
-4.55313
 11
-29.0729
 21
-4.64682
  0
LINE
  8
0
 10
-29.0729
 20
-4.64682
 11
-28.7227
 21
-4.78551
  0
LINE
  8
0
 10
-28.7227
 20
-4.78551
 11
-28.3925
 21
-4.96701
  0
LINE
  8
0
 10
-28.3925
 20
-4.96701
 11
-28.0877
 21
-5.18845
  0
LINE
  8
0
 10
-28.0877
 20
-5.18845
 11
-27.8131
 21
-5.44635
  0
LINE
  8
0
 10
-27.8131
 20
-5.44635
 11
-27.5729
 21
-5.73663
  0
LINE
  8
0
 10
-27.5729
 20
-5.73663
 11
-27.3711
 21
-6.05473
  0
LINE
  8
0
 10
-27.3711
 20
-6.05473
 11
-27.2107
 21
-6.39561
  0
LINE
  8
0
 10
-27.2107
 20
-6.39561
 11
-27.0942
 21
-6.75392
  0
LINE
  8
0
 10
-27.0942
 20
-6.75392
 11
-27.0237
 21
-7.12399
  0
LINE
  8
0
 10
-27.0237
 20
-7.12399
 11
-27
 21
-7.5
  0
LINE
  8
0
 10
-27
 20
-7.5
 11
-27.0237
 21
-7.87599
  0
LINE
  8
0
 10
-27.0237
 20
-7.87599
 11
-27.0942
 21
-8.24606
  0
LINE
  8
0
 10
-27.0942
 20
-8.24606
 11
-27.2107
 21
-8.60437
  0
LINE
  8
0
 10
-27.2107
 20
-8.60437
 11
-27.3711
 21
-8.94525
  0
LINE
  8
0
 10
-27.3711
 20
-8.94525
 11
-27.5729
 21
-9.26335
  0
LINE
  8
0
 10
-27.5729
 20
-9.26335
 11
-27.8131
 21
-9.55363
  0
LINE
  8
0
 10
-27.8131
 20
-9.55363
 11
-28.0877
 21
-9.81154
  0
LINE
  8
0
 10
-28.0877
 20
-9.81154
 11
-28.3925
 21
-10.033
  0
LINE
  8
0
 10
-28.3925
 20
-10.033
 11
-28.7227
 21
-10.2145
  0
LINE
  8
0
 10
-28.7227
 20
-10.2145
 11
-29.0729
 21
-10.3532
  0
LINE
  8
0
 10
-29.0729
 20
-10.3532
 11
-29.4379
 21
-10.4469
  0
LINE
  8
0
 10
-29.4379
 20
-10.4469
 11
-29.8116
 21
-10.4941
  0
LINE
  8
0
 10
-29.8116
 20
-10.4941
 11
-30.1884
 21
-10.4941
  0
LINE
  8
0
 10
14.8116
 20
-10.4941
 11
14.4379
 21
-10.4469
  0
LINE
  8
0
 10
14.4379
 20
-10.4469
 11
14.0729
 21
-10.3532
  0
LINE
  8
0
 10
14.0729
 20
-10.3532
 11
13.7227
 21
-10.2145
  0
LINE
  8
0
 10
13.7227
 20
-10.2145
 11
13.3925
 21
-10.033
  0
LINE
  8
0
 10
13.3925
 20
-10.033
 11
13.0877
 21
-9.81154
  0
LINE
  8
0
 10
13.0877
 20
-9.81154
 11
12.8131
 21
-9.55363
  0
LINE
  8
0
 10
12.8131
 20
-9.55363
 11
12.5729
 21
-9.26335
  0
LINE
  8
0
 10
12.5729
 20
-9.26335
 11
12.3711
 21
-8.94525
  0
LINE
  8
0
 10
12.3711
 20
-8.94525
 11
12.2107
 21
-8.60437
  0
LINE
  8
0
 10
12.2107
 20
-8.60437
 11
12.0942
 21
-8.24606
  0
LINE
  8
0
 10
12.0942
 20
-8.24606
 11
12.0237
 21
-7.87599
  0
LINE
  8
0
 10
12.0237
 20
-7.87599
 11
12
 21
-7.5
  0
LINE
  8
0
 10
12
 20
-7.5
 11
12.0237
 21
-7.12399
  0
LINE
  8
0
 10
12.0237
 20
-7.12399
 11
12.0942
 21
-6.75392
  0
LINE
  8
0
 10
12.0942
 20
-6.75392
 11
12.2107
 21
-6.39561
  0
LINE
  8
0
 10
12.2107
 20
-6.39561
 11
12.3711
 21
-6.05473
  0
LINE
  8
0
 10
12.3711
 20
-6.05473
 11
12.5729
 21
-5.73663
  0
LINE
  8
0
 10
12.5729
 20
-5.73663
 11
12.8131
 21
-5.44635
  0
LINE
  8
0
 10
12.8131
 20
-5.44635
 11
13.0877
 21
-5.18845
  0
LINE
  8
0
 10
13.0877
 20
-5.18845
 11
13.3925
 21
-4.96701
  0
LINE
  8
0
 10
13.3925
 20
-4.96701
 11
13.7227
 21
-4.78551
  0
LINE
  8
0
 10
13.7227
 20
-4.78551
 11
14.0729
 21
-4.64682
  0
LINE
  8
0
 10
14.0729
 20
-4.64682
 11
14.4379
 21
-4.55313
  0
LINE
  8
0
 10
14.4379
 20
-4.55313
 11
14.8116
 21
-4.50591
  0
LINE
  8
0
 10
14.8116
 20
-4.50591
 11
15.1884
 21
-4.50591
  0
LINE
  8
0
 10
15.1884
 20
-4.50591
 11
15.5621
 21
-4.55313
  0
LINE
  8
0
 10
15.5621
 20
-4.55313
 11
15.927
 21
-4.64682
  0
LINE
  8
0
 10
15.927
 20
-4.64682
 11
16.2773
 21
-4.78551
  0
LINE
  8
0
 10
16.2773
 20
-4.78551
 11
16.6075
 21
-4.96701
  0
LINE
  8
0
 10
16.6075
 20
-4.96701
 11
16.9123
 21
-5.18845
  0
LINE
  8
0
 10
16.9123
 20
-5.18845
 11
17.1869
 21
-5.44635
  0
LINE
  8
0
 10
17.1869
 20
-5.44635
 11
17.427
 21
-5.73663
  0
LINE
  8
0
 10
17.427
 20
-5.73663
 11
17.6289
 21
-6.05473
  0
LINE
  8
0
 10
17.6289
 20
-6.05473
 11
17.7893
 21
-6.39561
  0
LINE
  8
0
 10
17.7893
 20
-6.39561
 11
17.9057
 21
-6.75392
  0
LINE
  8
0
 10
17.9057
 20
-6.75392
 11
17.9763
 21
-7.12399
  0
LINE
  8
0
 10
17.9763
 20
-7.12399
 11
18
 21
-7.5
  0
LINE
  8
0
 10
18
 20
-7.5
 11
17.9763
 21
-7.87599
  0
LINE
  8
0
 10
17.9763
 20
-7.87599
 11
17.9057
 21
-8.24606
  0
LINE
  8
0
 10
17.9057
 20
-8.24606
 11
17.7893
 21
-8.60437
  0
LINE
  8
0
 10
17.7893
 20
-8.60437
 11
17.6289
 21
-8.94525
  0
LINE
  8
0
 10
17.6289
 20
-8.94525
 11
17.427
 21
-9.26335
  0
LINE
  8
0
 10
17.427
 20
-9.26335
 11
17.1869
 21
-9.55363
  0
LINE
  8
0
 10
17.1869
 20
-9.55363
 11
16.9123
 21
-9.81154
  0
LINE
  8
0
 10
16.9123
 20
-9.81154
 11
16.6075
 21
-10.033
  0
LINE
  8
0
 10
16.6075
 20
-10.033
 11
16.2773
 21
-10.2145
  0
LINE
  8
0
 10
16.2773
 20
-10.2145
 11
15.927
 21
-10.3532
  0
LINE
  8
0
 10
15.927
 20
-10.3532
 11
15.5621
 21
-10.4469
  0
LINE
  8
0
 10
15.5621
 20
-10.4469
 11
15.1884
 21
-10.4941
  0
LINE
  8
0
 10
15.1884
 20
-10.4941
 11
14.8116
 21
-10.4941
  0
LINE
  8
0
 10
29.8116
 20
-10.4941
 11
29.4379
 21
-10.4469
  0
LINE
  8
0
 10
29.4379
 20
-10.4469
 11
29.0729
 21
-10.3532
  0
LINE
  8
0
 10
29.0729
 20
-10.3532
 11
28.7227
 21
-10.2145
  0
LINE
  8
0
 10
28.7227
 20
-10.2145
 11
28.3925
 21
-10.033
  0
LINE
  8
0
 10
28.3925
 20
-10.033
 11
28.0877
 21
-9.81154
  0
LINE
  8
0
 10
28.0877
 20
-9.81154
 11
27.8131
 21
-9.55363
  0
LINE
  8
0
 10
27.8131
 20
-9.55363
 11
27.5729
 21
-9.26335
  0
LINE
  8
0
 10
27.5729
 20
-9.26335
 11
27.3711
 21
-8.94525
  0
LINE
  8
0
 10
27.3711
 20
-8.94525
 11
27.2107
 21
-8.60437
  0
LINE
  8
0
 10
27.2107
 20
-8.60437
 11
27.0942
 21
-8.24606
  0
LINE
  8
0
 10
27.0942
 20
-8.24606
 11
27.0237
 21
-7.87599
  0
LINE
  8
0
 10
27.0237
 20
-7.87599
 11
27
 21
-7.5
  0
LINE
  8
0
 10
27
 20
-7.5
 11
27.0237
 21
-7.12399
  0
LINE
  8
0
 10
27.0237
 20
-7.12399
 11
27.0942
 21
-6.75392
  0
LINE
  8
0
 10
27.0942
 20
-6.75392
 11
27.2107
 21
-6.39561
  0
LINE
  8
0
 10
27.2107
 20
-6.39561
 11
27.3711
 21
-6.05473
  0
LINE
  8
0
 10
27.3711
 20
-6.05473
 11
27.5729
 21
-5.73663
  0
LINE
  8
0
 10
27.5729
 20
-5.73663
 11
27.8131
 21
-5.44635
  0
LINE
  8
0
 10
27.8131
 20
-5.44635
 11
28.0877
 21
-5.18845
  0
LINE
  8
0
 10
28.0877
 20
-5.18845
 11
28.3925
 21
-4.96701
  0
LINE
  8
0
 10
28.3925
 20
-4.96701
 11
28.7227
 21
-4.78551
  0
LINE
  8
0
 10
28.7227
 20
-4.78551
 11
29.0729
 21
-4.64682
  0
LINE
  8
0
 10
29.0729
 20
-4.64682
 11
29.4379
 21
-4.55313
  0
LINE
  8
0
 10
29.4379
 20
-4.55313
 11
29.8116
 21
-4.50591
  0
LINE
  8
0
 10
29.8116
 20
-4.50591
 11
30.1884
 21
-4.50591
  0
LINE
  8
0
 10
30.1884
 20
-4.50591
 11
30.5621
 21
-4.55313
  0
LINE
  8
0
 10
30.5621
 20
-4.55313
 11
30.927
 21
-4.64682
  0
LINE
  8
0
 10
30.927
 20
-4.64682
 11
31.2773
 21
-4.78551
  0
LINE
  8
0
 10
31.2773
 20
-4.78551
 11
31.6075
 21
-4.96701
  0
LINE
  8
0
 10
31.6075
 20
-4.96701
 11
31.9123
 21
-5.18845
  0
LINE
  8
0
 10
31.9123
 20
-5.18845
 11
32.1869
 21
-5.44635
  0
LINE
  8
0
 10
32.1869
 20
-5.44635
 11
32.427
 21
-5.73663
  0
LINE
  8
0
 10
32.427
 20
-5.73663
 11
32.6289
 21
-6.05473
  0
LINE
  8
0
 10
32.6289
 20
-6.05473
 11
32.7893
 21
-6.39561
  0
LINE
  8
0
 10
32.7893
 20
-6.39561
 11
32.9057
 21
-6.75392
  0
LINE
  8
0
 10
32.9057
 20
-6.75392
 11
32.9763
 21
-7.12399
  0
LINE
  8
0
 10
32.9763
 20
-7.12399
 11
33
 21
-7.5
  0
LINE
  8
0
 10
33
 20
-7.5
 11
32.9763
 21
-7.87599
  0
LINE
  8
0
 10
32.9763
 20
-7.87599
 11
32.9057
 21
-8.24606
  0
LINE
  8
0
 10
32.9057
 20
-8.24606
 11
32.7893
 21
-8.60437
  0
LINE
  8
0
 10
32.7893
 20
-8.60437
 11
32.6289
 21
-8.94525
  0
LINE
  8
0
 10
32.6289
 20
-8.94525
 11
32.427
 21
-9.26335
  0
LINE
  8
0
 10
32.427
 20
-9.26335
 11
32.1869
 21
-9.55363
  0
LINE
  8
0
 10
32.1869
 20
-9.55363
 11
31.9123
 21
-9.81154
  0
LINE
  8
0
 10
31.9123
 20
-9.81154
 11
31.6075
 21
-10.033
  0
LINE
  8
0
 10
31.6075
 20
-10.033
 11
31.2773
 21
-10.2145
  0
LINE
  8
0
 10
31.2773
 20
-10.2145
 11
30.927
 21
-10.3532
  0
LINE
  8
0
 10
30.927
 20
-10.3532
 11
30.5621
 21
-10.4469
  0
LINE
  8
0
 10
30.5621
 20
-10.4469
 11
30.1884
 21
-10.4941
  0
LINE
  8
0
 10
30.1884
 20
-10.4941
 11
29.8116
 21
-10.4941
  0
LINE
  8
0
 10
-0.18837
 20
-10.4941
 11
-0.562134
 21
-10.4469
  0
LINE
  8
0
 10
-0.562134
 20
-10.4469
 11
-0.927048
 21
-10.3532
  0
LINE
  8
0
 10
-0.927048
 20
-10.3532
 11
-1.27733
 21
-10.2145
  0
LINE
  8
0
 10
-1.27733
 20
-10.2145
 11
-1.60747
 21
-10.033
  0
LINE
  8
0
 10
-1.60747
 20
-10.033
 11
-1.91226
 21
-9.81154
  0
LINE
  8
0
 10
-1.91226
 20
-9.81154
 11
-2.1869
 21
-9.55363
  0
LINE
  8
0
 10
-2.1869
 20
-9.55363
 11
-2.42705
 21
-9.26335
  0
LINE
  8
0
 10
-2.42705
 20
-9.26335
 11
-2.62891
 21
-8.94525
  0
LINE
  8
0
 10
-2.62891
 20
-8.94525
 11
-2.78932
 21
-8.60437
  0
LINE
  8
0
 10
-2.78932
 20
-8.60437
 11
-2.90575
 21
-8.24606
  0
LINE
  8
0
 10
-2.90575
 20
-8.24606
 11
-2.97633
 21
-7.87599
  0
LINE
  8
0
 10
-2.97633
 20
-7.87599
 11
-3
 21
-7.5
  0
LINE
  8
0
 10
-3
 20
-7.5
 11
-2.97633
 21
-7.12399
  0
LINE
  8
0
 10
-2.97633
 20
-7.12399
 11
-2.90575
 21
-6.75392
  0
LINE
  8
0
 10
-2.90575
 20
-6.75392
 11
-2.78932
 21
-6.39561
  0
LINE
  8
0
 10
-2.78932
 20
-6.39561
 11
-2.62891
 21
-6.05473
  0
LINE
  8
0
 10
-2.62891
 20
-6.05473
 11
-2.42705
 21
-5.73663
  0
LINE
  8
0
 10
-2.42705
 20
-5.73663
 11
-2.1869
 21
-5.44635
  0
LINE
  8
0
 10
-2.1869
 20
-5.44635
 11
-1.91226
 21
-5.18845
  0
LINE
  8
0
 10
-1.91226
 20
-5.18845
 11
-1.60747
 21
-4.96701
  0
LINE
  8
0
 10
-1.60747
 20
-4.96701
 11
-1.27733
 21
-4.78551
  0
LINE
  8
0
 10
-1.27733
 20
-4.78551
 11
-0.927048
 21
-4.64682
  0
LINE
  8
0
 10
-0.927048
 20
-4.64682
 11
-0.562134
 21
-4.55313
  0
LINE
  8
0
 10
-0.562134
 20
-4.55313
 11
-0.18837
 21
-4.50591
  0
LINE
  8
0
 10
-0.18837
 20
-4.50591
 11
0.18837
 21
-4.50591
  0
LINE
  8
0
 10
0.18837
 20
-4.50591
 11
0.562134
 21
-4.55313
  0
LINE
  8
0
 10
0.562134
 20
-4.55313
 11
0.927048
 21
-4.64682
  0
LINE
  8
0
 10
0.927048
 20
-4.64682
 11
1.27733
 21
-4.78551
  0
LINE
  8
0
 10
1.27733
 20
-4.78551
 11
1.60747
 21
-4.96701
  0
LINE
  8
0
 10
1.60747
 20
-4.96701
 11
1.91226
 21
-5.18845
  0
LINE
  8
0
 10
1.91226
 20
-5.18845
 11
2.1869
 21
-5.44635
  0
LINE
  8
0
 10
2.1869
 20
-5.44635
 11
2.42705
 21
-5.73663
  0
LINE
  8
0
 10
2.42705
 20
-5.73663
 11
2.62891
 21
-6.05473
  0
LINE
  8
0
 10
2.62891
 20
-6.05473
 11
2.78932
 21
-6.39561
  0
LINE
  8
0
 10
2.78932
 20
-6.39561
 11
2.90575
 21
-6.75392
  0
LINE
  8
0
 10
2.90575
 20
-6.75392
 11
2.97633
 21
-7.12399
  0
LINE
  8
0
 10
2.97633
 20
-7.12399
 11
3
 21
-7.5
  0
LINE
  8
0
 10
3
 20
-7.5
 11
2.97633
 21
-7.87599
  0
LINE
  8
0
 10
2.97633
 20
-7.87599
 11
2.90575
 21
-8.24606
  0
LINE
  8
0
 10
2.90575
 20
-8.24606
 11
2.78932
 21
-8.60437
  0
LINE
  8
0
 10
2.78932
 20
-8.60437
 11
2.62891
 21
-8.94525
  0
LINE
  8
0
 10
2.62891
 20
-8.94525
 11
2.42705
 21
-9.26335
  0
LINE
  8
0
 10
2.42705
 20
-9.26335
 11
2.1869
 21
-9.55363
  0
LINE
  8
0
 10
2.1869
 20
-9.55363
 11
1.91226
 21
-9.81154
  0
LINE
  8
0
 10
1.91226
 20
-9.81154
 11
1.60747
 21
-10.033
  0
LINE
  8
0
 10
1.60747
 20
-10.033
 11
1.27733
 21
-10.2145
  0
LINE
  8
0
 10
1.27733
 20
-10.2145
 11
0.927048
 21
-10.3532
  0
LINE
  8
0
 10
0.927048
 20
-10.3532
 11
0.562134
 21
-10.4469
  0
LINE
  8
0
 10
0.562134
 20
-10.4469
 11
0.18837
 21
-10.4941
  0
LINE
  8
0
 10
0.18837
 20
-10.4941
 11
-0.18837
 21
-10.4941
  0
LINE
  8
0
 10
-15.1884
 20
-10.4941
 11
-15.5621
 21
-10.4469
  0
LINE
  8
0
 10
-15.5621
 20
-10.4469
 11
-15.927
 21
-10.3532
  0
LINE
  8
0
 10
-15.927
 20
-10.3532
 11
-16.2773
 21
-10.2145
  0
LINE
  8
0
 10
-16.2773
 20
-10.2145
 11
-16.6075
 21
-10.033
  0
LINE
  8
0
 10
-16.6075
 20
-10.033
 11
-16.9123
 21
-9.81154
  0
LINE
  8
0
 10
-16.9123
 20
-9.81154
 11
-17.1869
 21
-9.55363
  0
LINE
  8
0
 10
-17.1869
 20
-9.55363
 11
-17.427
 21
-9.26335
  0
LINE
  8
0
 10
-17.427
 20
-9.26335
 11
-17.6289
 21
-8.94525
  0
LINE
  8
0
 10
-17.6289
 20
-8.94525
 11
-17.7893
 21
-8.60437
  0
LINE
  8
0
 10
-17.7893
 20
-8.60437
 11
-17.9057
 21
-8.24606
  0
LINE
  8
0
 10
-17.9057
 20
-8.24606
 11
-17.9763
 21
-7.87599
  0
LINE
  8
0
 10
-17.9763
 20
-7.87599
 11
-18
 21
-7.5
  0
LINE
  8
0
 10
-18
 20
-7.5
 11
-17.9763
 21
-7.12399
  0
LINE
  8
0
 10
-17.9763
 20
-7.12399
 11
-17.9057
 21
-6.75392
  0
LINE
  8
0
 10
-17.9057
 20
-6.75392
 11
-17.7893
 21
-6.39561
  0
LINE
  8
0
 10
-17.7893
 20
-6.39561
 11
-17.6289
 21
-6.05473
  0
LINE
  8
0
 10
-17.6289
 20
-6.05473
 11
-17.427
 21
-5.73663
  0
LINE
  8
0
 10
-17.427
 20
-5.73663
 11
-17.1869
 21
-5.44635
  0
LINE
  8
0
 10
-17.1869
 20
-5.44635
 11
-16.9123
 21
-5.18845
  0
LINE
  8
0
 10
-16.9123
 20
-5.18845
 11
-16.6075
 21
-4.96701
  0
LINE
  8
0
 10
-16.6075
 20
-4.96701
 11
-16.2773
 21
-4.78551
  0
LINE
  8
0
 10
-16.2773
 20
-4.78551
 11
-15.927
 21
-4.64682
  0
LINE
  8
0
 10
-15.927
 20
-4.64682
 11
-15.5621
 21
-4.55313
  0
LINE
  8
0
 10
-15.5621
 20
-4.55313
 11
-15.1884
 21
-4.50591
  0
LINE
  8
0
 10
-15.1884
 20
-4.50591
 11
-14.8116
 21
-4.50591
  0
LINE
  8
0
 10
-14.8116
 20
-4.50591
 11
-14.4379
 21
-4.55313
  0
LINE
  8
0
 10
-14.4379
 20
-4.55313
 11
-14.0729
 21
-4.64682
  0
LINE
  8
0
 10
-14.0729
 20
-4.64682
 11
-13.7227
 21
-4.78551
  0
LINE
  8
0
 10
-13.7227
 20
-4.78551
 11
-13.3925
 21
-4.96701
  0
LINE
  8
0
 10
-13.3925
 20
-4.96701
 11
-13.0877
 21
-5.18845
  0
LINE
  8
0
 10
-13.0877
 20
-5.18845
 11
-12.8131
 21
-5.44635
  0
LINE
  8
0
 10
-12.8131
 20
-5.44635
 11
-12.5729
 21
-5.73663
  0
LINE
  8
0
 10
-12.5729
 20
-5.73663
 11
-12.3711
 21
-6.05473
  0
LINE
  8
0
 10
-12.3711
 20
-6.05473
 11
-12.2107
 21
-6.39561
  0
LINE
  8
0
 10
-12.2107
 20
-6.39561
 11
-12.0942
 21
-6.75392
  0
LINE
  8
0
 10
-12.0942
 20
-6.75392
 11
-12.0237
 21
-7.12399
  0
LINE
  8
0
 10
-12.0237
 20
-7.12399
 11
-12
 21
-7.5
  0
LINE
  8
0
 10
-12
 20
-7.5
 11
-12.0237
 21
-7.87599
  0
LINE
  8
0
 10
-12.0237
 20
-7.87599
 11
-12.0942
 21
-8.24606
  0
LINE
  8
0
 10
-12.0942
 20
-8.24606
 11
-12.2107
 21
-8.60437
  0
LINE
  8
0
 10
-12.2107
 20
-8.60437
 11
-12.3711
 21
-8.94525
  0
LINE
  8
0
 10
-12.3711
 20
-8.94525
 11
-12.5729
 21
-9.26335
  0
LINE
  8
0
 10
-12.5729
 20
-9.26335
 11
-12.8131
 21
-9.55363
  0
LINE
  8
0
 10
-12.8131
 20
-9.55363
 11
-13.0877
 21
-9.81154
  0
LINE
  8
0
 10
-13.0877
 20
-9.81154
 11
-13.3925
 21
-10.033
  0
LINE
  8
0
 10
-13.3925
 20
-10.033
 11
-13.7227
 21
-10.2145
  0
LINE
  8
0
 10
-13.7227
 20
-10.2145
 11
-14.0729
 21
-10.3532
  0
LINE
  8
0
 10
-14.0729
 20
-10.3532
 11
-14.4379
 21
-10.4469
  0
LINE
  8
0
 10
-14.4379
 20
-10.4469
 11
-14.8116
 21
-10.4941
  0
LINE
  8
0
 10
-14.8116
 20
-10.4941
 11
-15.1884
 21
-10.4941
  0
ENDSEC
  0
SECTION
  2
OBJECTS
  0
DICTIONARY
  0
ENDSEC
  0
EOF
