  0
SECTION
  2
BLOCKS
  0
ENDSEC
  0
SECTION
  2
ENTITIES
  0
LINE
  8
0
 10
-17.25
 20
260.507
 11
-16.8948
 21
260.077
  0
LINE
  8
0
 10
-16.8948
 20
260.077
 11
-16.4371
 21
259.647
  0
LINE
  8
0
 10
-16.4371
 20
259.647
 11
-15.9291
 21
259.278
  0
LINE
  8
0
 10
-15.9291
 20
259.278
 11
-15.3789
 21
258.976
  0
LINE
  8
0
 10
-15.3789
 20
258.976
 11
-14.7951
 21
258.745
  0
LINE
  8
0
 10
-14.7951
 20
258.745
 11
-14.1869
 21
258.589
  0
LINE
  8
0
 10
-14.1869
 20
258.589
 11
-13.5639
 21
258.51
  0
LINE
  8
0
 10
-13.5639
 20
258.51
 11
13.5639
 21
258.51
  0
LINE
  8
0
 10
13.5639
 20
258.51
 11
14.1869
 21
258.589
  0
LINE
  8
0
 10
14.1869
 20
258.589
 11
14.7951
 21
258.745
  0
LINE
  8
0
 10
14.7951
 20
258.745
 11
15.3789
 21
258.976
  0
LINE
  8
0
 10
15.3789
 20
258.976
 11
15.9291
 21
259.278
  0
LINE
  8
0
 10
15.9291
 20
259.278
 11
16.4371
 21
259.647
  0
LINE
  8
0
 10
16.4371
 20
259.647
 11
16.8948
 21
260.077
  0
LINE
  8
0
 10
16.8948
 20
260.077
 11
17.2951
 21
260.561
  0
LINE
  8
0
 10
17.2951
 20
260.561
 11
17.6315
 21
261.091
  0
LINE
  8
0
 10
17.6315
 20
261.091
 11
17.8989
 21
261.659
  0
LINE
  8
0
 10
17.8989
 20
261.659
 11
18.0929
 21
262.257
  0
LINE
  8
0
 10
18.0929
 20
262.257
 11
18.2106
 21
262.873
  0
LINE
  8
0
 10
18.2106
 20
262.873
 11
18.25
 21
263.5
  0
LINE
  8
0
 10
18.25
 20
263.5
 11
18.25
 21
282.5
  0
LINE
  8
0
 10
18.25
 20
282.5
 11
18.2106
 21
283.127
  0
LINE
  8
0
 10
18.2106
 20
283.127
 11
18.0929
 21
283.743
  0
LINE
  8
0
 10
18.0929
 20
283.743
 11
17.8989
 21
284.341
  0
LINE
  8
0
 10
17.8989
 20
284.341
 11
17.6315
 21
284.909
  0
LINE
  8
0
 10
17.6315
 20
284.909
 11
17.2951
 21
285.439
  0
LINE
  8
0
 10
17.2951
 20
285.439
 11
16.8948
 21
285.923
  0
LINE
  8
0
 10
16.8948
 20
285.923
 11
16.4371
 21
286.353
  0
LINE
  8
0
 10
16.4371
 20
286.353
 11
15.9291
 21
286.722
  0
LINE
  8
0
 10
15.9291
 20
286.722
 11
15.3789
 21
287.024
  0
LINE
  8
0
 10
15.3789
 20
287.024
 11
14.7951
 21
287.255
  0
LINE
  8
0
 10
14.7951
 20
287.255
 11
14.1869
 21
287.411
  0
LINE
  8
0
 10
14.1869
 20
287.411
 11
13.5639
 21
287.49
  0
LINE
  8
0
 10
13.5639
 20
287.49
 11
-13.5639
 21
287.49
  0
LINE
  8
0
 10
-13.5639
 20
287.49
 11
-14.1869
 21
287.411
  0
LINE
  8
0
 10
-14.1869
 20
287.411
 11
-14.7951
 21
287.255
  0
LINE
  8
0
 10
-14.7951
 20
287.255
 11
-15.3789
 21
287.024
  0
LINE
  8
0
 10
-15.3789
 20
287.024
 11
-15.9291
 21
286.722
  0
LINE
  8
0
 10
-15.9291
 20
286.722
 11
-16.4371
 21
286.353
  0
LINE
  8
0
 10
-16.4371
 20
286.353
 11
-16.8948
 21
285.923
  0
LINE
  8
0
 10
-16.8948
 20
285.923
 11
-17.25
 21
285.493
  0
LINE
  8
0
 10
-17.25
 20
285.493
 11
-17.25
 21
287.99
  0
LINE
  8
0
 10
-17.25
 20
287.99
 11
-20.25
 21
287.99
  0
LINE
  8
0
 10
-20.25
 20
287.99
 11
-20.25
 21
258.01
  0
LINE
  8
0
 10
-20.25
 20
258.01
 11
-17.25
 21
258.01
  0
LINE
  8
0
 10
-17.25
 20
258.01
 11
-17.25
 21
260.507
  0
LINE
  8
0
 10
-13.5012
 20
259.508
 11
-13.9995
 21
259.571
  0
LINE
  8
0
 10
-13.9995
 20
259.571
 11
-14.4861
 21
259.696
  0
LINE
  8
0
 10
-14.4861
 20
259.696
 11
-14.9531
 21
259.881
  0
LINE
  8
0
 10
-14.9531
 20
259.881
 11
-15.3933
 21
260.123
  0
LINE
  8
0
 10
-15.3933
 20
260.123
 11
-15.7997
 21
260.418
  0
LINE
  8
0
 10
-15.7997
 20
260.418
 11
-16.1659
 21
260.762
  0
LINE
  8
0
 10
-16.1659
 20
260.762
 11
-16.4861
 21
261.149
  0
LINE
  8
0
 10
-16.4861
 20
261.149
 11
-16.7552
 21
261.573
  0
LINE
  8
0
 10
-16.7552
 20
261.573
 11
-16.9691
 21
262.028
  0
LINE
  8
0
 10
-16.9691
 20
262.028
 11
-17.1243
 21
262.505
  0
LINE
  8
0
 10
-17.1243
 20
262.505
 11
-17.2184
 21
262.999
  0
LINE
  8
0
 10
-17.2184
 20
262.999
 11
-17.25
 21
263.5
  0
LINE
  8
0
 10
-17.25
 20
263.5
 11
-17.25
 21
282.5
  0
LINE
  8
0
 10
-17.25
 20
282.5
 11
-17.2184
 21
283.001
  0
LINE
  8
0
 10
-17.2184
 20
283.001
 11
-17.1243
 21
283.495
  0
LINE
  8
0
 10
-17.1243
 20
283.495
 11
-16.9691
 21
283.972
  0
LINE
  8
0
 10
-16.9691
 20
283.972
 11
-16.7552
 21
284.427
  0
LINE
  8
0
 10
-16.7552
 20
284.427
 11
-16.4861
 21
284.851
  0
LINE
  8
0
 10
-16.4861
 20
284.851
 11
-16.1659
 21
285.238
  0
LINE
  8
0
 10
-16.1659
 20
285.238
 11
-15.7997
 21
285.582
  0
LINE
  8
0
 10
-15.7997
 20
285.582
 11
-15.3933
 21
285.877
  0
LINE
  8
0
 10
-15.3933
 20
285.877
 11
-14.9531
 21
286.119
  0
LINE
  8
0
 10
-14.9531
 20
286.119
 11
-14.4861
 21
286.304
  0
LINE
  8
0
 10
-14.4861
 20
286.304
 11
-13.9995
 21
286.429
  0
LINE
  8
0
 10
-13.9995
 20
286.429
 11
-13.5012
 21
286.492
  0
LINE
  8
0
 10
-13.5012
 20
286.492
 11
13.5012
 21
286.492
  0
LINE
  8
0
 10
13.5012
 20
286.492
 11
13.9995
 21
286.429
  0
LINE
  8
0
 10
13.9995
 20
286.429
 11
14.4861
 21
286.304
  0
LINE
  8
0
 10
14.4861
 20
286.304
 11
14.9531
 21
286.119
  0
LINE
  8
0
 10
14.9531
 20
286.119
 11
15.3933
 21
285.877
  0
LINE
  8
0
 10
15.3933
 20
285.877
 11
15.7997
 21
285.582
  0
LINE
  8
0
 10
15.7997
 20
285.582
 11
16.1659
 21
285.238
  0
LINE
  8
0
 10
16.1659
 20
285.238
 11
16.4861
 21
284.851
  0
LINE
  8
0
 10
16.4861
 20
284.851
 11
16.7552
 21
284.427
  0
LINE
  8
0
 10
16.7552
 20
284.427
 11
16.9691
 21
283.972
  0
LINE
  8
0
 10
16.9691
 20
283.972
 11
17.1243
 21
283.495
  0
LINE
  8
0
 10
17.1243
 20
283.495
 11
17.2184
 21
283.001
  0
LINE
  8
0
 10
17.2184
 20
283.001
 11
17.25
 21
282.5
  0
LINE
  8
0
 10
17.25
 20
282.5
 11
17.25
 21
263.5
  0
LINE
  8
0
 10
17.25
 20
263.5
 11
17.2184
 21
262.999
  0
LINE
  8
0
 10
17.2184
 20
262.999
 11
17.1243
 21
262.505
  0
LINE
  8
0
 10
17.1243
 20
262.505
 11
16.9691
 21
262.028
  0
LINE
  8
0
 10
16.9691
 20
262.028
 11
16.7552
 21
261.573
  0
LINE
  8
0
 10
16.7552
 20
261.573
 11
16.4861
 21
261.149
  0
LINE
  8
0
 10
16.4861
 20
261.149
 11
16.1659
 21
260.762
  0
LINE
  8
0
 10
16.1659
 20
260.762
 11
15.7997
 21
260.418
  0
LINE
  8
0
 10
15.7997
 20
260.418
 11
15.3933
 21
260.123
  0
LINE
  8
0
 10
15.3933
 20
260.123
 11
14.9531
 21
259.881
  0
LINE
  8
0
 10
14.9531
 20
259.881
 11
14.4861
 21
259.696
  0
LINE
  8
0
 10
14.4861
 20
259.696
 11
13.9995
 21
259.571
  0
LINE
  8
0
 10
13.9995
 20
259.571
 11
13.5012
 21
259.508
  0
LINE
  8
0
 10
13.5012
 20
259.508
 11
-13.5012
 21
259.508
  0
LINE
  8
0
 10
-17.25
 20
221.507
 11
-16.8948
 21
221.077
  0
LINE
  8
0
 10
-16.8948
 20
221.077
 11
-16.4371
 21
220.647
  0
LINE
  8
0
 10
-16.4371
 20
220.647
 11
-15.9291
 21
220.278
  0
LINE
  8
0
 10
-15.9291
 20
220.278
 11
-15.3789
 21
219.976
  0
LINE
  8
0
 10
-15.3789
 20
219.976
 11
-14.7951
 21
219.745
  0
LINE
  8
0
 10
-14.7951
 20
219.745
 11
-14.1869
 21
219.589
  0
LINE
  8
0
 10
-14.1869
 20
219.589
 11
-13.5639
 21
219.51
  0
LINE
  8
0
 10
-13.5639
 20
219.51
 11
13.5639
 21
219.51
  0
LINE
  8
0
 10
13.5639
 20
219.51
 11
14.1869
 21
219.589
  0
LINE
  8
0
 10
14.1869
 20
219.589
 11
14.7951
 21
219.745
  0
LINE
  8
0
 10
14.7951
 20
219.745
 11
15.3789
 21
219.976
  0
LINE
  8
0
 10
15.3789
 20
219.976
 11
15.9291
 21
220.278
  0
LINE
  8
0
 10
15.9291
 20
220.278
 11
16.4371
 21
220.647
  0
LINE
  8
0
 10
16.4371
 20
220.647
 11
16.8948
 21
221.077
  0
LINE
  8
0
 10
16.8948
 20
221.077
 11
17.2951
 21
221.561
  0
LINE
  8
0
 10
17.2951
 20
221.561
 11
17.6315
 21
222.091
  0
LINE
  8
0
 10
17.6315
 20
222.091
 11
17.8989
 21
222.659
  0
LINE
  8
0
 10
17.8989
 20
222.659
 11
18.0929
 21
223.257
  0
LINE
  8
0
 10
18.0929
 20
223.257
 11
18.2106
 21
223.873
  0
LINE
  8
0
 10
18.2106
 20
223.873
 11
18.25
 21
224.5
  0
LINE
  8
0
 10
18.25
 20
224.5
 11
18.25
 21
243.5
  0
LINE
  8
0
 10
18.25
 20
243.5
 11
18.2106
 21
244.127
  0
LINE
  8
0
 10
18.2106
 20
244.127
 11
18.0929
 21
244.743
  0
LINE
  8
0
 10
18.0929
 20
244.743
 11
17.8989
 21
245.341
  0
LINE
  8
0
 10
17.8989
 20
245.341
 11
17.6315
 21
245.909
  0
LINE
  8
0
 10
17.6315
 20
245.909
 11
17.2951
 21
246.439
  0
LINE
  8
0
 10
17.2951
 20
246.439
 11
16.8948
 21
246.923
  0
LINE
  8
0
 10
16.8948
 20
246.923
 11
16.4371
 21
247.353
  0
LINE
  8
0
 10
16.4371
 20
247.353
 11
15.9291
 21
247.722
  0
LINE
  8
0
 10
15.9291
 20
247.722
 11
15.3789
 21
248.024
  0
LINE
  8
0
 10
15.3789
 20
248.024
 11
14.7951
 21
248.255
  0
LINE
  8
0
 10
14.7951
 20
248.255
 11
14.1869
 21
248.411
  0
LINE
  8
0
 10
14.1869
 20
248.411
 11
13.5639
 21
248.49
  0
LINE
  8
0
 10
13.5639
 20
248.49
 11
-13.5639
 21
248.49
  0
LINE
  8
0
 10
-13.5639
 20
248.49
 11
-14.1869
 21
248.411
  0
LINE
  8
0
 10
-14.1869
 20
248.411
 11
-14.7951
 21
248.255
  0
LINE
  8
0
 10
-14.7951
 20
248.255
 11
-15.3789
 21
248.024
  0
LINE
  8
0
 10
-15.3789
 20
248.024
 11
-15.9291
 21
247.722
  0
LINE
  8
0
 10
-15.9291
 20
247.722
 11
-16.4371
 21
247.353
  0
LINE
  8
0
 10
-16.4371
 20
247.353
 11
-16.8948
 21
246.923
  0
LINE
  8
0
 10
-16.8948
 20
246.923
 11
-17.25
 21
246.493
  0
LINE
  8
0
 10
-17.25
 20
246.493
 11
-17.25
 21
248.99
  0
LINE
  8
0
 10
-17.25
 20
248.99
 11
-20.25
 21
248.99
  0
LINE
  8
0
 10
-20.25
 20
248.99
 11
-20.25
 21
219.01
  0
LINE
  8
0
 10
-20.25
 20
219.01
 11
-17.25
 21
219.01
  0
LINE
  8
0
 10
-17.25
 20
219.01
 11
-17.25
 21
221.507
  0
LINE
  8
0
 10
-13.5012
 20
220.508
 11
-13.9995
 21
220.571
  0
LINE
  8
0
 10
-13.9995
 20
220.571
 11
-14.4861
 21
220.696
  0
LINE
  8
0
 10
-14.4861
 20
220.696
 11
-14.9531
 21
220.881
  0
LINE
  8
0
 10
-14.9531
 20
220.881
 11
-15.3933
 21
221.123
  0
LINE
  8
0
 10
-15.3933
 20
221.123
 11
-15.7997
 21
221.418
  0
LINE
  8
0
 10
-15.7997
 20
221.418
 11
-16.1659
 21
221.762
  0
LINE
  8
0
 10
-16.1659
 20
221.762
 11
-16.4861
 21
222.149
  0
LINE
  8
0
 10
-16.4861
 20
222.149
 11
-16.7552
 21
222.573
  0
LINE
  8
0
 10
-16.7552
 20
222.573
 11
-16.9691
 21
223.028
  0
LINE
  8
0
 10
-16.9691
 20
223.028
 11
-17.1243
 21
223.505
  0
LINE
  8
0
 10
-17.1243
 20
223.505
 11
-17.2184
 21
223.999
  0
LINE
  8
0
 10
-17.2184
 20
223.999
 11
-17.25
 21
224.5
  0
LINE
  8
0
 10
-17.25
 20
224.5
 11
-17.25
 21
243.5
  0
LINE
  8
0
 10
-17.25
 20
243.5
 11
-17.2184
 21
244.001
  0
LINE
  8
0
 10
-17.2184
 20
244.001
 11
-17.1243
 21
244.495
  0
LINE
  8
0
 10
-17.1243
 20
244.495
 11
-16.9691
 21
244.972
  0
LINE
  8
0
 10
-16.9691
 20
244.972
 11
-16.7552
 21
245.427
  0
LINE
  8
0
 10
-16.7552
 20
245.427
 11
-16.4861
 21
245.851
  0
LINE
  8
0
 10
-16.4861
 20
245.851
 11
-16.1659
 21
246.238
  0
LINE
  8
0
 10
-16.1659
 20
246.238
 11
-15.7997
 21
246.582
  0
LINE
  8
0
 10
-15.7997
 20
246.582
 11
-15.3933
 21
246.877
  0
LINE
  8
0
 10
-15.3933
 20
246.877
 11
-14.9531
 21
247.119
  0
LINE
  8
0
 10
-14.9531
 20
247.119
 11
-14.4861
 21
247.304
  0
LINE
  8
0
 10
-14.4861
 20
247.304
 11
-13.9995
 21
247.429
  0
LINE
  8
0
 10
-13.9995
 20
247.429
 11
-13.5012
 21
247.492
  0
LINE
  8
0
 10
-13.5012
 20
247.492
 11
13.5012
 21
247.492
  0
LINE
  8
0
 10
13.5012
 20
247.492
 11
13.9995
 21
247.429
  0
LINE
  8
0
 10
13.9995
 20
247.429
 11
14.4861
 21
247.304
  0
LINE
  8
0
 10
14.4861
 20
247.304
 11
14.9531
 21
247.119
  0
LINE
  8
0
 10
14.9531
 20
247.119
 11
15.3933
 21
246.877
  0
LINE
  8
0
 10
15.3933
 20
246.877
 11
15.7997
 21
246.582
  0
LINE
  8
0
 10
15.7997
 20
246.582
 11
16.1659
 21
246.238
  0
LINE
  8
0
 10
16.1659
 20
246.238
 11
16.4861
 21
245.851
  0
LINE
  8
0
 10
16.4861
 20
245.851
 11
16.7552
 21
245.427
  0
LINE
  8
0
 10
16.7552
 20
245.427
 11
16.9691
 21
244.972
  0
LINE
  8
0
 10
16.9691
 20
244.972
 11
17.1243
 21
244.495
  0
LINE
  8
0
 10
17.1243
 20
244.495
 11
17.2184
 21
244.001
  0
LINE
  8
0
 10
17.2184
 20
244.001
 11
17.25
 21
243.5
  0
LINE
  8
0
 10
17.25
 20
243.5
 11
17.25
 21
224.5
  0
LINE
  8
0
 10
17.25
 20
224.5
 11
17.2184
 21
223.999
  0
LINE
  8
0
 10
17.2184
 20
223.999
 11
17.1243
 21
223.505
  0
LINE
  8
0
 10
17.1243
 20
223.505
 11
16.9691
 21
223.028
  0
LINE
  8
0
 10
16.9691
 20
223.028
 11
16.7552
 21
222.573
  0
LINE
  8
0
 10
16.7552
 20
222.573
 11
16.4861
 21
222.149
  0
LINE
  8
0
 10
16.4861
 20
222.149
 11
16.1659
 21
221.762
  0
LINE
  8
0
 10
16.1659
 20
221.762
 11
15.7997
 21
221.418
  0
LINE
  8
0
 10
15.7997
 20
221.418
 11
15.3933
 21
221.123
  0
LINE
  8
0
 10
15.3933
 20
221.123
 11
14.9531
 21
220.881
  0
LINE
  8
0
 10
14.9531
 20
220.881
 11
14.4861
 21
220.696
  0
LINE
  8
0
 10
14.4861
 20
220.696
 11
13.9995
 21
220.571
  0
LINE
  8
0
 10
13.9995
 20
220.571
 11
13.5012
 21
220.508
  0
LINE
  8
0
 10
13.5012
 20
220.508
 11
-13.5012
 21
220.508
  0
LINE
  8
0
 10
-17.25
 20
182.507
 11
-16.8948
 21
182.077
  0
LINE
  8
0
 10
-16.8948
 20
182.077
 11
-16.4371
 21
181.647
  0
LINE
  8
0
 10
-16.4371
 20
181.647
 11
-15.9291
 21
181.278
  0
LINE
  8
0
 10
-15.9291
 20
181.278
 11
-15.3789
 21
180.976
  0
LINE
  8
0
 10
-15.3789
 20
180.976
 11
-14.7951
 21
180.745
  0
LINE
  8
0
 10
-14.7951
 20
180.745
 11
-14.1869
 21
180.589
  0
LINE
  8
0
 10
-14.1869
 20
180.589
 11
-13.5639
 21
180.51
  0
LINE
  8
0
 10
-13.5639
 20
180.51
 11
13.5639
 21
180.51
  0
LINE
  8
0
 10
13.5639
 20
180.51
 11
14.1869
 21
180.589
  0
LINE
  8
0
 10
14.1869
 20
180.589
 11
14.7951
 21
180.745
  0
LINE
  8
0
 10
14.7951
 20
180.745
 11
15.3789
 21
180.976
  0
LINE
  8
0
 10
15.3789
 20
180.976
 11
15.9291
 21
181.278
  0
LINE
  8
0
 10
15.9291
 20
181.278
 11
16.4371
 21
181.647
  0
LINE
  8
0
 10
16.4371
 20
181.647
 11
16.8948
 21
182.077
  0
LINE
  8
0
 10
16.8948
 20
182.077
 11
17.2951
 21
182.561
  0
LINE
  8
0
 10
17.2951
 20
182.561
 11
17.6315
 21
183.091
  0
LINE
  8
0
 10
17.6315
 20
183.091
 11
17.8989
 21
183.659
  0
LINE
  8
0
 10
17.8989
 20
183.659
 11
18.0929
 21
184.257
  0
LINE
  8
0
 10
18.0929
 20
184.257
 11
18.2106
 21
184.873
  0
LINE
  8
0
 10
18.2106
 20
184.873
 11
18.25
 21
185.5
  0
LINE
  8
0
 10
18.25
 20
185.5
 11
18.25
 21
204.5
  0
LINE
  8
0
 10
18.25
 20
204.5
 11
18.2106
 21
205.127
  0
LINE
  8
0
 10
18.2106
 20
205.127
 11
18.0929
 21
205.743
  0
LINE
  8
0
 10
18.0929
 20
205.743
 11
17.8989
 21
206.341
  0
LINE
  8
0
 10
17.8989
 20
206.341
 11
17.6315
 21
206.909
  0
LINE
  8
0
 10
17.6315
 20
206.909
 11
17.2951
 21
207.439
  0
LINE
  8
0
 10
17.2951
 20
207.439
 11
16.8948
 21
207.923
  0
LINE
  8
0
 10
16.8948
 20
207.923
 11
16.4371
 21
208.353
  0
LINE
  8
0
 10
16.4371
 20
208.353
 11
15.9291
 21
208.722
  0
LINE
  8
0
 10
15.9291
 20
208.722
 11
15.3789
 21
209.024
  0
LINE
  8
0
 10
15.3789
 20
209.024
 11
14.7951
 21
209.255
  0
LINE
  8
0
 10
14.7951
 20
209.255
 11
14.1869
 21
209.411
  0
LINE
  8
0
 10
14.1869
 20
209.411
 11
13.5639
 21
209.49
  0
LINE
  8
0
 10
13.5639
 20
209.49
 11
-13.5639
 21
209.49
  0
LINE
  8
0
 10
-13.5639
 20
209.49
 11
-14.1869
 21
209.411
  0
LINE
  8
0
 10
-14.1869
 20
209.411
 11
-14.7951
 21
209.255
  0
LINE
  8
0
 10
-14.7951
 20
209.255
 11
-15.3789
 21
209.024
  0
LINE
  8
0
 10
-15.3789
 20
209.024
 11
-15.9291
 21
208.722
  0
LINE
  8
0
 10
-15.9291
 20
208.722
 11
-16.4371
 21
208.353
  0
LINE
  8
0
 10
-16.4371
 20
208.353
 11
-16.8948
 21
207.923
  0
LINE
  8
0
 10
-16.8948
 20
207.923
 11
-17.25
 21
207.493
  0
LINE
  8
0
 10
-17.25
 20
207.493
 11
-17.25
 21
209.979
  0
LINE
  8
0
 10
-17.25
 20
209.979
 11
-20.25
 21
209.979
  0
LINE
  8
0
 10
-20.25
 20
209.979
 11
-20.25
 21
180.021
  0
LINE
  8
0
 10
-20.25
 20
180.021
 11
-17.25
 21
180.021
  0
LINE
  8
0
 10
-17.25
 20
180.021
 11
-17.25
 21
182.507
  0
LINE
  8
0
 10
-13.4454
 20
182.393
 11
-13.8333
 21
182.442
  0
LINE
  8
0
 10
-13.8333
 20
182.442
 11
-14.2119
 21
182.539
  0
LINE
  8
0
 10
-14.2119
 20
182.539
 11
-14.5754
 21
182.683
  0
LINE
  8
0
 10
-14.5754
 20
182.683
 11
-14.918
 21
182.872
  0
LINE
  8
0
 10
-14.918
 20
182.872
 11
-15.2342
 21
183.101
  0
LINE
  8
0
 10
-15.2342
 20
183.101
 11
-15.5192
 21
183.369
  0
LINE
  8
0
 10
-15.5192
 20
183.369
 11
-15.7684
 21
183.67
  0
LINE
  8
0
 10
-15.7684
 20
183.67
 11
-15.9779
 21
184
  0
LINE
  8
0
 10
-15.9779
 20
184
 11
-16.1443
 21
184.354
  0
LINE
  8
0
 10
-16.1443
 20
184.354
 11
-16.2651
 21
184.726
  0
LINE
  8
0
 10
-16.2651
 20
184.726
 11
-16.3384
 21
185.11
  0
LINE
  8
0
 10
-16.3384
 20
185.11
 11
-16.3629
 21
185.5
  0
LINE
  8
0
 10
-16.3629
 20
185.5
 11
-16.3629
 21
204.5
  0
LINE
  8
0
 10
-16.3629
 20
204.5
 11
-16.3384
 21
204.89
  0
LINE
  8
0
 10
-16.3384
 20
204.89
 11
-16.2651
 21
205.274
  0
LINE
  8
0
 10
-16.2651
 20
205.274
 11
-16.1443
 21
205.646
  0
LINE
  8
0
 10
-16.1443
 20
205.646
 11
-15.9779
 21
206
  0
LINE
  8
0
 10
-15.9779
 20
206
 11
-15.7684
 21
206.33
  0
LINE
  8
0
 10
-15.7684
 20
206.33
 11
-15.5192
 21
206.631
  0
LINE
  8
0
 10
-15.5192
 20
206.631
 11
-15.2342
 21
206.899
  0
LINE
  8
0
 10
-15.2342
 20
206.899
 11
-14.918
 21
207.128
  0
LINE
  8
0
 10
-14.918
 20
207.128
 11
-14.5754
 21
207.317
  0
LINE
  8
0
 10
-14.5754
 20
207.317
 11
-14.2119
 21
207.461
  0
LINE
  8
0
 10
-14.2119
 20
207.461
 11
-13.8333
 21
207.558
  0
LINE
  8
0
 10
-13.8333
 20
207.558
 11
-13.4454
 21
207.607
  0
LINE
  8
0
 10
-13.4454
 20
207.607
 11
13.4454
 21
207.607
  0
LINE
  8
0
 10
13.4454
 20
207.607
 11
13.8333
 21
207.558
  0
LINE
  8
0
 10
13.8333
 20
207.558
 11
14.2119
 21
207.461
  0
LINE
  8
0
 10
14.2119
 20
207.461
 11
14.5754
 21
207.317
  0
LINE
  8
0
 10
14.5754
 20
207.317
 11
14.918
 21
207.128
  0
LINE
  8
0
 10
14.918
 20
207.128
 11
15.2342
 21
206.899
  0
LINE
  8
0
 10
15.2342
 20
206.899
 11
15.5192
 21
206.631
  0
LINE
  8
0
 10
15.5192
 20
206.631
 11
15.7684
 21
206.33
  0
LINE
  8
0
 10
15.7684
 20
206.33
 11
15.9779
 21
206
  0
LINE
  8
0
 10
15.9779
 20
206
 11
16.1443
 21
205.646
  0
LINE
  8
0
 10
16.1443
 20
205.646
 11
16.2651
 21
205.274
  0
LINE
  8
0
 10
16.2651
 20
205.274
 11
16.3384
 21
204.89
  0
LINE
  8
0
 10
16.3384
 20
204.89
 11
16.3629
 21
204.5
  0
LINE
  8
0
 10
16.3629
 20
204.5
 11
16.3629
 21
185.5
  0
LINE
  8
0
 10
16.3629
 20
185.5
 11
16.3384
 21
185.11
  0
LINE
  8
0
 10
16.3384
 20
185.11
 11
16.2651
 21
184.726
  0
LINE
  8
0
 10
16.2651
 20
184.726
 11
16.1443
 21
184.354
  0
LINE
  8
0
 10
16.1443
 20
184.354
 11
15.9779
 21
184
  0
LINE
  8
0
 10
15.9779
 20
184
 11
15.7684
 21
183.67
  0
LINE
  8
0
 10
15.7684
 20
183.67
 11
15.5192
 21
183.369
  0
LINE
  8
0
 10
15.5192
 20
183.369
 11
15.2342
 21
183.101
  0
LINE
  8
0
 10
15.2342
 20
183.101
 11
14.918
 21
182.872
  0
LINE
  8
0
 10
14.918
 20
182.872
 11
14.5754
 21
182.683
  0
LINE
  8
0
 10
14.5754
 20
182.683
 11
14.2119
 21
182.539
  0
LINE
  8
0
 10
14.2119
 20
182.539
 11
13.8333
 21
182.442
  0
LINE
  8
0
 10
13.8333
 20
182.442
 11
13.4454
 21
182.393
  0
LINE
  8
0
 10
13.4454
 20
182.393
 11
-13.4454
 21
182.393
  0
LINE
  8
0
 10
14.1869
 20
141.589
 11
14.7951
 21
141.745
  0
LINE
  8
0
 10
14.7951
 20
141.745
 11
15.3789
 21
141.976
  0
LINE
  8
0
 10
15.3789
 20
141.976
 11
15.9291
 21
142.278
  0
LINE
  8
0
 10
15.9291
 20
142.278
 11
16.4371
 21
142.647
  0
LINE
  8
0
 10
16.4371
 20
142.647
 11
16.8948
 21
143.077
  0
LINE
  8
0
 10
16.8948
 20
143.077
 11
17.2951
 21
143.561
  0
LINE
  8
0
 10
17.2951
 20
143.561
 11
17.6315
 21
144.091
  0
LINE
  8
0
 10
17.6315
 20
144.091
 11
17.8989
 21
144.659
  0
LINE
  8
0
 10
17.8989
 20
144.659
 11
18.0929
 21
145.257
  0
LINE
  8
0
 10
18.0929
 20
145.257
 11
18.2106
 21
145.873
  0
LINE
  8
0
 10
18.2106
 20
145.873
 11
18.25
 21
146.5
  0
LINE
  8
0
 10
18.25
 20
146.5
 11
18.25
 21
165.5
  0
LINE
  8
0
 10
18.25
 20
165.5
 11
18.2106
 21
166.127
  0
LINE
  8
0
 10
18.2106
 20
166.127
 11
18.0929
 21
166.743
  0
LINE
  8
0
 10
18.0929
 20
166.743
 11
17.8989
 21
167.341
  0
LINE
  8
0
 10
17.8989
 20
167.341
 11
17.6315
 21
167.909
  0
LINE
  8
0
 10
17.6315
 20
167.909
 11
17.2951
 21
168.439
  0
LINE
  8
0
 10
17.2951
 20
168.439
 11
16.8948
 21
168.923
  0
LINE
  8
0
 10
16.8948
 20
168.923
 11
16.4371
 21
169.353
  0
LINE
  8
0
 10
16.4371
 20
169.353
 11
15.9291
 21
169.722
  0
LINE
  8
0
 10
15.9291
 20
169.722
 11
15.3789
 21
170.024
  0
LINE
  8
0
 10
15.3789
 20
170.024
 11
14.7951
 21
170.255
  0
LINE
  8
0
 10
14.7951
 20
170.255
 11
14.1869
 21
170.411
  0
LINE
  8
0
 10
14.1869
 20
170.411
 11
13.5639
 21
170.49
  0
LINE
  8
0
 10
13.5639
 20
170.49
 11
-13.5639
 21
170.49
  0
LINE
  8
0
 10
-13.5639
 20
170.49
 11
-14.1869
 21
170.411
  0
LINE
  8
0
 10
-14.1869
 20
170.411
 11
-14.7951
 21
170.255
  0
LINE
  8
0
 10
-14.7951
 20
170.255
 11
-15.3789
 21
170.024
  0
LINE
  8
0
 10
-15.3789
 20
170.024
 11
-15.9291
 21
169.722
  0
LINE
  8
0
 10
-15.9291
 20
169.722
 11
-16.4371
 21
169.353
  0
LINE
  8
0
 10
-16.4371
 20
169.353
 11
-16.8948
 21
168.923
  0
LINE
  8
0
 10
-16.8948
 20
168.923
 11
-17.25
 21
168.493
  0
LINE
  8
0
 10
-17.25
 20
168.493
 11
-17.25
 21
169.653
  0
LINE
  8
0
 10
-17.25
 20
169.653
 11
-20.25
 21
169.653
  0
LINE
  8
0
 10
-20.25
 20
169.653
 11
-20.25
 21
142.347
  0
LINE
  8
0
 10
-20.25
 20
142.347
 11
-17.25
 21
142.347
  0
LINE
  8
0
 10
-17.25
 20
142.347
 11
-17.25
 21
143.507
  0
LINE
  8
0
 10
-17.25
 20
143.507
 11
-16.8948
 21
143.077
  0
LINE
  8
0
 10
-16.8948
 20
143.077
 11
-16.4371
 21
142.647
  0
LINE
  8
0
 10
-16.4371
 20
142.647
 11
-15.9291
 21
142.278
  0
LINE
  8
0
 10
-15.9291
 20
142.278
 11
-15.3789
 21
141.976
  0
LINE
  8
0
 10
-15.3789
 20
141.976
 11
-14.7951
 21
141.745
  0
LINE
  8
0
 10
-14.7951
 20
141.745
 11
-14.1869
 21
141.589
  0
LINE
  8
0
 10
-14.1869
 20
141.589
 11
-13.5639
 21
141.51
  0
LINE
  8
0
 10
-13.5639
 20
141.51
 11
13.5639
 21
141.51
  0
LINE
  8
0
 10
13.5639
 20
141.51
 11
14.1869
 21
141.589
  0
LINE
  8
0
 10
-11.4007
 20
161.105
 11
-11.6997
 21
161.143
  0
LINE
  8
0
 10
-11.6997
 20
161.143
 11
-11.9916
 21
161.217
  0
LINE
  8
0
 10
-11.9916
 20
161.217
 11
-12.2719
 21
161.328
  0
LINE
  8
0
 10
-12.2719
 20
161.328
 11
-12.536
 21
161.474
  0
LINE
  8
0
 10
-12.536
 20
161.474
 11
-12.7798
 21
161.651
  0
LINE
  8
0
 10
-12.7798
 20
161.651
 11
-12.9995
 21
161.857
  0
LINE
  8
0
 10
-12.9995
 20
161.857
 11
-13.1916
 21
162.089
  0
LINE
  8
0
 10
-13.1916
 20
162.089
 11
-13.3531
 21
162.344
  0
LINE
  8
0
 10
-13.3531
 20
162.344
 11
-13.4815
 21
162.617
  0
LINE
  8
0
 10
-13.4815
 20
162.617
 11
-13.5746
 21
162.903
  0
LINE
  8
0
 10
-13.5746
 20
162.903
 11
-13.6311
 21
163.199
  0
LINE
  8
0
 10
-13.6311
 20
163.199
 11
-13.65
 21
163.5
  0
LINE
  8
0
 10
-13.65
 20
163.5
 11
-13.6311
 21
163.801
  0
LINE
  8
0
 10
-13.6311
 20
163.801
 11
-13.5746
 21
164.097
  0
LINE
  8
0
 10
-13.5746
 20
164.097
 11
-13.4815
 21
164.383
  0
LINE
  8
0
 10
-13.4815
 20
164.383
 11
-13.3531
 21
164.656
  0
LINE
  8
0
 10
-13.3531
 20
164.656
 11
-13.1916
 21
164.911
  0
LINE
  8
0
 10
-13.1916
 20
164.911
 11
-12.9995
 21
165.143
  0
LINE
  8
0
 10
-12.9995
 20
165.143
 11
-12.7798
 21
165.349
  0
LINE
  8
0
 10
-12.7798
 20
165.349
 11
-12.536
 21
165.526
  0
LINE
  8
0
 10
-12.536
 20
165.526
 11
-12.2719
 21
165.672
  0
LINE
  8
0
 10
-12.2719
 20
165.672
 11
-11.9916
 21
165.783
  0
LINE
  8
0
 10
-11.9916
 20
165.783
 11
-11.6997
 21
165.857
  0
LINE
  8
0
 10
-11.6997
 20
165.857
 11
-11.4007
 21
165.895
  0
LINE
  8
0
 10
-11.4007
 20
165.895
 11
-11.0993
 21
165.895
  0
LINE
  8
0
 10
-11.0993
 20
165.895
 11
-10.8003
 21
165.857
  0
LINE
  8
0
 10
-10.8003
 20
165.857
 11
-10.5083
 21
165.783
  0
LINE
  8
0
 10
-10.5083
 20
165.783
 11
-10.2281
 21
165.672
  0
LINE
  8
0
 10
-10.2281
 20
165.672
 11
-9.964
 21
165.526
  0
LINE
  8
0
 10
-9.964
 20
165.526
 11
-9.72017
 21
165.349
  0
LINE
  8
0
 10
-9.72017
 20
165.349
 11
-9.50047
 21
165.143
  0
LINE
  8
0
 10
-9.50047
 20
165.143
 11
-9.30835
 21
164.911
  0
LINE
  8
0
 10
-9.30835
 20
164.911
 11
-9.14685
 21
164.656
  0
LINE
  8
0
 10
-9.14685
 20
164.656
 11
-9.01852
 21
164.383
  0
LINE
  8
0
 10
-9.01852
 20
164.383
 11
-8.9254
 21
164.097
  0
LINE
  8
0
 10
-8.9254
 20
164.097
 11
-8.86891
 21
163.801
  0
LINE
  8
0
 10
-8.86891
 20
163.801
 11
-8.84999
 21
163.5
  0
LINE
  8
0
 10
-8.84999
 20
163.5
 11
-8.86891
 21
163.199
  0
LINE
  8
0
 10
-8.86891
 20
163.199
 11
-8.9254
 21
162.903
  0
LINE
  8
0
 10
-8.9254
 20
162.903
 11
-9.01852
 21
162.617
  0
LINE
  8
0
 10
-9.01852
 20
162.617
 11
-9.14685
 21
162.344
  0
LINE
  8
0
 10
-9.14685
 20
162.344
 11
-9.30835
 21
162.089
  0
LINE
  8
0
 10
-9.30835
 20
162.089
 11
-9.50047
 21
161.857
  0
LINE
  8
0
 10
-9.50047
 20
161.857
 11
-9.72017
 21
161.651
  0
LINE
  8
0
 10
-9.72017
 20
161.651
 11
-9.964
 21
161.474
  0
LINE
  8
0
 10
-9.964
 20
161.474
 11
-10.2281
 21
161.328
  0
LINE
  8
0
 10
-10.2281
 20
161.328
 11
-10.5083
 21
161.217
  0
LINE
  8
0
 10
-10.5083
 20
161.217
 11
-10.8003
 21
161.143
  0
LINE
  8
0
 10
-10.8003
 20
161.143
 11
-11.0993
 21
161.105
  0
LINE
  8
0
 10
-11.0993
 20
161.105
 11
-11.4007
 21
161.105
  0
LINE
  8
0
 10
11.0993
 20
161.105
 11
10.8003
 21
161.143
  0
LINE
  8
0
 10
10.8003
 20
161.143
 11
10.5083
 21
161.217
  0
LINE
  8
0
 10
10.5083
 20
161.217
 11
10.2281
 21
161.328
  0
LINE
  8
0
 10
10.2281
 20
161.328
 11
9.964
 21
161.474
  0
LINE
  8
0
 10
9.964
 20
161.474
 11
9.72017
 21
161.651
  0
LINE
  8
0
 10
9.72017
 20
161.651
 11
9.50047
 21
161.857
  0
LINE
  8
0
 10
9.50047
 20
161.857
 11
9.30835
 21
162.089
  0
LINE
  8
0
 10
9.30835
 20
162.089
 11
9.14685
 21
162.344
  0
LINE
  8
0
 10
9.14685
 20
162.344
 11
9.01852
 21
162.617
  0
LINE
  8
0
 10
9.01852
 20
162.617
 11
8.9254
 21
162.903
  0
LINE
  8
0
 10
8.9254
 20
162.903
 11
8.86891
 21
163.199
  0
LINE
  8
0
 10
8.86891
 20
163.199
 11
8.84999
 21
163.5
  0
LINE
  8
0
 10
8.84999
 20
163.5
 11
8.86891
 21
163.801
  0
LINE
  8
0
 10
8.86891
 20
163.801
 11
8.9254
 21
164.097
  0
LINE
  8
0
 10
8.9254
 20
164.097
 11
9.01852
 21
164.383
  0
LINE
  8
0
 10
9.01852
 20
164.383
 11
9.14685
 21
164.656
  0
LINE
  8
0
 10
9.14685
 20
164.656
 11
9.30835
 21
164.911
  0
LINE
  8
0
 10
9.30835
 20
164.911
 11
9.50047
 21
165.143
  0
LINE
  8
0
 10
9.50047
 20
165.143
 11
9.72017
 21
165.349
  0
LINE
  8
0
 10
9.72017
 20
165.349
 11
9.964
 21
165.526
  0
LINE
  8
0
 10
9.964
 20
165.526
 11
10.2281
 21
165.672
  0
LINE
  8
0
 10
10.2281
 20
165.672
 11
10.5083
 21
165.783
  0
LINE
  8
0
 10
10.5083
 20
165.783
 11
10.8003
 21
165.857
  0
LINE
  8
0
 10
10.8003
 20
165.857
 11
11.0993
 21
165.895
  0
LINE
  8
0
 10
11.0993
 20
165.895
 11
11.4007
 21
165.895
  0
LINE
  8
0
 10
11.4007
 20
165.895
 11
11.6997
 21
165.857
  0
LINE
  8
0
 10
11.6997
 20
165.857
 11
11.9916
 21
165.783
  0
LINE
  8
0
 10
11.9916
 20
165.783
 11
12.2719
 21
165.672
  0
LINE
  8
0
 10
12.2719
 20
165.672
 11
12.536
 21
165.526
  0
LINE
  8
0
 10
12.536
 20
165.526
 11
12.7798
 21
165.349
  0
LINE
  8
0
 10
12.7798
 20
165.349
 11
12.9995
 21
165.143
  0
LINE
  8
0
 10
12.9995
 20
165.143
 11
13.1916
 21
164.911
  0
LINE
  8
0
 10
13.1916
 20
164.911
 11
13.3531
 21
164.656
  0
LINE
  8
0
 10
13.3531
 20
164.656
 11
13.4815
 21
164.383
  0
LINE
  8
0
 10
13.4815
 20
164.383
 11
13.5746
 21
164.097
  0
LINE
  8
0
 10
13.5746
 20
164.097
 11
13.6311
 21
163.801
  0
LINE
  8
0
 10
13.6311
 20
163.801
 11
13.65
 21
163.5
  0
LINE
  8
0
 10
13.65
 20
163.5
 11
13.6311
 21
163.199
  0
LINE
  8
0
 10
13.6311
 20
163.199
 11
13.5746
 21
162.903
  0
LINE
  8
0
 10
13.5746
 20
162.903
 11
13.4815
 21
162.617
  0
LINE
  8
0
 10
13.4815
 20
162.617
 11
13.3531
 21
162.344
  0
LINE
  8
0
 10
13.3531
 20
162.344
 11
13.1916
 21
162.089
  0
LINE
  8
0
 10
13.1916
 20
162.089
 11
12.9995
 21
161.857
  0
LINE
  8
0
 10
12.9995
 20
161.857
 11
12.7798
 21
161.651
  0
LINE
  8
0
 10
12.7798
 20
161.651
 11
12.536
 21
161.474
  0
LINE
  8
0
 10
12.536
 20
161.474
 11
12.2719
 21
161.328
  0
LINE
  8
0
 10
12.2719
 20
161.328
 11
11.9916
 21
161.217
  0
LINE
  8
0
 10
11.9916
 20
161.217
 11
11.6997
 21
161.143
  0
LINE
  8
0
 10
11.6997
 20
161.143
 11
11.4007
 21
161.105
  0
LINE
  8
0
 10
11.4007
 20
161.105
 11
11.0993
 21
161.105
  0
LINE
  8
0
 10
11.0993
 20
146.105
 11
10.8003
 21
146.143
  0
LINE
  8
0
 10
10.8003
 20
146.143
 11
10.5083
 21
146.217
  0
LINE
  8
0
 10
10.5083
 20
146.217
 11
10.2281
 21
146.328
  0
LINE
  8
0
 10
10.2281
 20
146.328
 11
9.964
 21
146.474
  0
LINE
  8
0
 10
9.964
 20
146.474
 11
9.72017
 21
146.651
  0
LINE
  8
0
 10
9.72017
 20
146.651
 11
9.50047
 21
146.857
  0
LINE
  8
0
 10
9.50047
 20
146.857
 11
9.30835
 21
147.089
  0
LINE
  8
0
 10
9.30835
 20
147.089
 11
9.14685
 21
147.344
  0
LINE
  8
0
 10
9.14685
 20
147.344
 11
9.01852
 21
147.617
  0
LINE
  8
0
 10
9.01852
 20
147.617
 11
8.9254
 21
147.903
  0
LINE
  8
0
 10
8.9254
 20
147.903
 11
8.86891
 21
148.199
  0
LINE
  8
0
 10
8.86891
 20
148.199
 11
8.84999
 21
148.5
  0
LINE
  8
0
 10
8.84999
 20
148.5
 11
8.86891
 21
148.801
  0
LINE
  8
0
 10
8.86891
 20
148.801
 11
8.9254
 21
149.097
  0
LINE
  8
0
 10
8.9254
 20
149.097
 11
9.01852
 21
149.383
  0
LINE
  8
0
 10
9.01852
 20
149.383
 11
9.14685
 21
149.656
  0
LINE
  8
0
 10
9.14685
 20
149.656
 11
9.30835
 21
149.911
  0
LINE
  8
0
 10
9.30835
 20
149.911
 11
9.50047
 21
150.143
  0
LINE
  8
0
 10
9.50047
 20
150.143
 11
9.72017
 21
150.349
  0
LINE
  8
0
 10
9.72017
 20
150.349
 11
9.964
 21
150.526
  0
LINE
  8
0
 10
9.964
 20
150.526
 11
10.2281
 21
150.672
  0
LINE
  8
0
 10
10.2281
 20
150.672
 11
10.5083
 21
150.783
  0
LINE
  8
0
 10
10.5083
 20
150.783
 11
10.8003
 21
150.857
  0
LINE
  8
0
 10
10.8003
 20
150.857
 11
11.0993
 21
150.895
  0
LINE
  8
0
 10
11.0993
 20
150.895
 11
11.4007
 21
150.895
  0
LINE
  8
0
 10
11.4007
 20
150.895
 11
11.6997
 21
150.857
  0
LINE
  8
0
 10
11.6997
 20
150.857
 11
11.9916
 21
150.783
  0
LINE
  8
0
 10
11.9916
 20
150.783
 11
12.2719
 21
150.672
  0
LINE
  8
0
 10
12.2719
 20
150.672
 11
12.536
 21
150.526
  0
LINE
  8
0
 10
12.536
 20
150.526
 11
12.7798
 21
150.349
  0
LINE
  8
0
 10
12.7798
 20
150.349
 11
12.9995
 21
150.143
  0
LINE
  8
0
 10
12.9995
 20
150.143
 11
13.1916
 21
149.911
  0
LINE
  8
0
 10
13.1916
 20
149.911
 11
13.3531
 21
149.656
  0
LINE
  8
0
 10
13.3531
 20
149.656
 11
13.4815
 21
149.383
  0
LINE
  8
0
 10
13.4815
 20
149.383
 11
13.5746
 21
149.097
  0
LINE
  8
0
 10
13.5746
 20
149.097
 11
13.6311
 21
148.801
  0
LINE
  8
0
 10
13.6311
 20
148.801
 11
13.65
 21
148.5
  0
LINE
  8
0
 10
13.65
 20
148.5
 11
13.6311
 21
148.199
  0
LINE
  8
0
 10
13.6311
 20
148.199
 11
13.5746
 21
147.903
  0
LINE
  8
0
 10
13.5746
 20
147.903
 11
13.4815
 21
147.617
  0
LINE
  8
0
 10
13.4815
 20
147.617
 11
13.3531
 21
147.344
  0
LINE
  8
0
 10
13.3531
 20
147.344
 11
13.1916
 21
147.089
  0
LINE
  8
0
 10
13.1916
 20
147.089
 11
12.9995
 21
146.857
  0
LINE
  8
0
 10
12.9995
 20
146.857
 11
12.7798
 21
146.651
  0
LINE
  8
0
 10
12.7798
 20
146.651
 11
12.536
 21
146.474
  0
LINE
  8
0
 10
12.536
 20
146.474
 11
12.2719
 21
146.328
  0
LINE
  8
0
 10
12.2719
 20
146.328
 11
11.9916
 21
146.217
  0
LINE
  8
0
 10
11.9916
 20
146.217
 11
11.6997
 21
146.143
  0
LINE
  8
0
 10
11.6997
 20
146.143
 11
11.4007
 21
146.105
  0
LINE
  8
0
 10
11.4007
 20
146.105
 11
11.0993
 21
146.105
  0
LINE
  8
0
 10
-11.4007
 20
146.105
 11
-11.6997
 21
146.143
  0
LINE
  8
0
 10
-11.6997
 20
146.143
 11
-11.9916
 21
146.217
  0
LINE
  8
0
 10
-11.9916
 20
146.217
 11
-12.2719
 21
146.328
  0
LINE
  8
0
 10
-12.2719
 20
146.328
 11
-12.536
 21
146.474
  0
LINE
  8
0
 10
-12.536
 20
146.474
 11
-12.7798
 21
146.651
  0
LINE
  8
0
 10
-12.7798
 20
146.651
 11
-12.9995
 21
146.857
  0
LINE
  8
0
 10
-12.9995
 20
146.857
 11
-13.1916
 21
147.089
  0
LINE
  8
0
 10
-13.1916
 20
147.089
 11
-13.3531
 21
147.344
  0
LINE
  8
0
 10
-13.3531
 20
147.344
 11
-13.4815
 21
147.617
  0
LINE
  8
0
 10
-13.4815
 20
147.617
 11
-13.5746
 21
147.903
  0
LINE
  8
0
 10
-13.5746
 20
147.903
 11
-13.6311
 21
148.199
  0
LINE
  8
0
 10
-13.6311
 20
148.199
 11
-13.65
 21
148.5
  0
LINE
  8
0
 10
-13.65
 20
148.5
 11
-13.6311
 21
148.801
  0
LINE
  8
0
 10
-13.6311
 20
148.801
 11
-13.5746
 21
149.097
  0
LINE
  8
0
 10
-13.5746
 20
149.097
 11
-13.4815
 21
149.383
  0
LINE
  8
0
 10
-13.4815
 20
149.383
 11
-13.3531
 21
149.656
  0
LINE
  8
0
 10
-13.3531
 20
149.656
 11
-13.1916
 21
149.911
  0
LINE
  8
0
 10
-13.1916
 20
149.911
 11
-12.9995
 21
150.143
  0
LINE
  8
0
 10
-12.9995
 20
150.143
 11
-12.7798
 21
150.349
  0
LINE
  8
0
 10
-12.7798
 20
150.349
 11
-12.536
 21
150.526
  0
LINE
  8
0
 10
-12.536
 20
150.526
 11
-12.2719
 21
150.672
  0
LINE
  8
0
 10
-12.2719
 20
150.672
 11
-11.9916
 21
150.783
  0
LINE
  8
0
 10
-11.9916
 20
150.783
 11
-11.6997
 21
150.857
  0
LINE
  8
0
 10
-11.6997
 20
150.857
 11
-11.4007
 21
150.895
  0
LINE
  8
0
 10
-11.4007
 20
150.895
 11
-11.0993
 21
150.895
  0
LINE
  8
0
 10
-11.0993
 20
150.895
 11
-10.8003
 21
150.857
  0
LINE
  8
0
 10
-10.8003
 20
150.857
 11
-10.5083
 21
150.783
  0
LINE
  8
0
 10
-10.5083
 20
150.783
 11
-10.2281
 21
150.672
  0
LINE
  8
0
 10
-10.2281
 20
150.672
 11
-9.964
 21
150.526
  0
LINE
  8
0
 10
-9.964
 20
150.526
 11
-9.72017
 21
150.349
  0
LINE
  8
0
 10
-9.72017
 20
150.349
 11
-9.50047
 21
150.143
  0
LINE
  8
0
 10
-9.50047
 20
150.143
 11
-9.30835
 21
149.911
  0
LINE
  8
0
 10
-9.30835
 20
149.911
 11
-9.14685
 21
149.656
  0
LINE
  8
0
 10
-9.14685
 20
149.656
 11
-9.01852
 21
149.383
  0
LINE
  8
0
 10
-9.01852
 20
149.383
 11
-8.9254
 21
149.097
  0
LINE
  8
0
 10
-8.9254
 20
149.097
 11
-8.86891
 21
148.801
  0
LINE
  8
0
 10
-8.86891
 20
148.801
 11
-8.84999
 21
148.5
  0
LINE
  8
0
 10
-8.84999
 20
148.5
 11
-8.86891
 21
148.199
  0
LINE
  8
0
 10
-8.86891
 20
148.199
 11
-8.9254
 21
147.903
  0
LINE
  8
0
 10
-8.9254
 20
147.903
 11
-9.01852
 21
147.617
  0
LINE
  8
0
 10
-9.01852
 20
147.617
 11
-9.14685
 21
147.344
  0
LINE
  8
0
 10
-9.14685
 20
147.344
 11
-9.30835
 21
147.089
  0
LINE
  8
0
 10
-9.30835
 20
147.089
 11
-9.50047
 21
146.857
  0
LINE
  8
0
 10
-9.50047
 20
146.857
 11
-9.72017
 21
146.651
  0
LINE
  8
0
 10
-9.72017
 20
146.651
 11
-9.964
 21
146.474
  0
LINE
  8
0
 10
-9.964
 20
146.474
 11
-10.2281
 21
146.328
  0
LINE
  8
0
 10
-10.2281
 20
146.328
 11
-10.5083
 21
146.217
  0
LINE
  8
0
 10
-10.5083
 20
146.217
 11
-10.8003
 21
146.143
  0
LINE
  8
0
 10
-10.8003
 20
146.143
 11
-11.0993
 21
146.105
  0
LINE
  8
0
 10
-11.0993
 20
146.105
 11
-11.4007
 21
146.105
  0
ENDSEC
  0
SECTION
  2
OBJECTS
  0
DICTIONARY
  0
ENDSEC
  0
EOF
