  0
SECTION
  2
BLOCKS
  0
ENDSEC
  0
SECTION
  2
ENTITIES
  0
LINE
  8
0
 10
10.4369
 20
384.589
 11
11.0451
 21
384.745
  0
LINE
  8
0
 10
11.0451
 20
384.745
 11
11.6289
 21
384.976
  0
LINE
  8
0
 10
11.6289
 20
384.976
 11
12.1791
 21
385.278
  0
LINE
  8
0
 10
12.1791
 20
385.278
 11
12.6871
 21
385.647
  0
LINE
  8
0
 10
12.6871
 20
385.647
 11
13.1448
 21
386.077
  0
LINE
  8
0
 10
13.1448
 20
386.077
 11
13.5451
 21
386.561
  0
LINE
  8
0
 10
13.5451
 20
386.561
 11
13.8815
 21
387.091
  0
LINE
  8
0
 10
13.8815
 20
387.091
 11
14.1489
 21
387.659
  0
LINE
  8
0
 10
14.1489
 20
387.659
 11
14.3429
 21
388.257
  0
LINE
  8
0
 10
14.3429
 20
388.257
 11
14.4606
 21
388.873
  0
LINE
  8
0
 10
14.4606
 20
388.873
 11
14.5
 21
389.5
  0
LINE
  8
0
 10
14.5
 20
389.5
 11
14.5
 21
438.5
  0
LINE
  8
0
 10
14.5
 20
438.5
 11
14.4606
 21
439.127
  0
LINE
  8
0
 10
14.4606
 20
439.127
 11
14.3429
 21
439.743
  0
LINE
  8
0
 10
14.3429
 20
439.743
 11
14.1489
 21
440.341
  0
LINE
  8
0
 10
14.1489
 20
440.341
 11
13.8815
 21
440.909
  0
LINE
  8
0
 10
13.8815
 20
440.909
 11
13.5451
 21
441.439
  0
LINE
  8
0
 10
13.5451
 20
441.439
 11
13.1448
 21
441.923
  0
LINE
  8
0
 10
13.1448
 20
441.923
 11
12.6871
 21
442.353
  0
LINE
  8
0
 10
12.6871
 20
442.353
 11
12.1791
 21
442.722
  0
LINE
  8
0
 10
12.1791
 20
442.722
 11
11.6289
 21
443.024
  0
LINE
  8
0
 10
11.6289
 20
443.024
 11
11.0451
 21
443.255
  0
LINE
  8
0
 10
11.0451
 20
443.255
 11
10.4369
 21
443.411
  0
LINE
  8
0
 10
10.4369
 20
443.411
 11
9.81395
 21
443.49
  0
LINE
  8
0
 10
9.81395
 20
443.49
 11
-9.81395
 21
443.49
  0
LINE
  8
0
 10
-9.81395
 20
443.49
 11
-10.4369
 21
443.411
  0
LINE
  8
0
 10
-10.4369
 20
443.411
 11
-11.0451
 21
443.255
  0
LINE
  8
0
 10
-11.0451
 20
443.255
 11
-11.6289
 21
443.024
  0
LINE
  8
0
 10
-11.6289
 20
443.024
 11
-12.1791
 21
442.722
  0
LINE
  8
0
 10
-12.1791
 20
442.722
 11
-12.6871
 21
442.353
  0
LINE
  8
0
 10
-12.6871
 20
442.353
 11
-13.1448
 21
441.923
  0
LINE
  8
0
 10
-13.1448
 20
441.923
 11
-13.5451
 21
441.439
  0
LINE
  8
0
 10
-13.5451
 20
441.439
 11
-13.8815
 21
440.909
  0
LINE
  8
0
 10
-13.8815
 20
440.909
 11
-14.1489
 21
440.341
  0
LINE
  8
0
 10
-14.1489
 20
440.341
 11
-14.3429
 21
439.743
  0
LINE
  8
0
 10
-14.3429
 20
439.743
 11
-14.4606
 21
439.127
  0
LINE
  8
0
 10
-14.4606
 20
439.127
 11
-14.5
 21
438.5
  0
LINE
  8
0
 10
-14.5
 20
438.5
 11
-14.5
 21
389.5
  0
LINE
  8
0
 10
-14.5
 20
389.5
 11
-14.4606
 21
388.873
  0
LINE
  8
0
 10
-14.4606
 20
388.873
 11
-14.3429
 21
388.257
  0
LINE
  8
0
 10
-14.3429
 20
388.257
 11
-14.1489
 21
387.659
  0
LINE
  8
0
 10
-14.1489
 20
387.659
 11
-13.8815
 21
387.091
  0
LINE
  8
0
 10
-13.8815
 20
387.091
 11
-13.5451
 21
386.561
  0
LINE
  8
0
 10
-13.5451
 20
386.561
 11
-13.1448
 21
386.077
  0
LINE
  8
0
 10
-13.1448
 20
386.077
 11
-12.6871
 21
385.647
  0
LINE
  8
0
 10
-12.6871
 20
385.647
 11
-12.1791
 21
385.278
  0
LINE
  8
0
 10
-12.1791
 20
385.278
 11
-11.6289
 21
384.976
  0
LINE
  8
0
 10
-11.6289
 20
384.976
 11
-11.0451
 21
384.745
  0
LINE
  8
0
 10
-11.0451
 20
384.745
 11
-10.4369
 21
384.589
  0
LINE
  8
0
 10
-10.4369
 20
384.589
 11
-9.81395
 21
384.51
  0
LINE
  8
0
 10
-9.81395
 20
384.51
 11
9.81395
 21
384.51
  0
LINE
  8
0
 10
9.81395
 20
384.51
 11
10.4369
 21
384.589
  0
LINE
  8
0
 10
-9.54825
 20
385.009
 11
-10.1401
 21
385.084
  0
LINE
  8
0
 10
-10.1401
 20
385.084
 11
-10.7178
 21
385.232
  0
LINE
  8
0
 10
-10.7178
 20
385.232
 11
-11.2724
 21
385.452
  0
LINE
  8
0
 10
-11.2724
 20
385.452
 11
-11.7952
 21
385.739
  0
LINE
  8
0
 10
-11.7952
 20
385.739
 11
-12.2778
 21
386.09
  0
LINE
  8
0
 10
-12.2778
 20
386.09
 11
-12.7126
 21
386.498
  0
LINE
  8
0
 10
-12.7126
 20
386.498
 11
-13.0928
 21
386.958
  0
LINE
  8
0
 10
-13.0928
 20
386.958
 11
-13.4124
 21
387.462
  0
LINE
  8
0
 10
-13.4124
 20
387.462
 11
-13.6664
 21
388.001
  0
LINE
  8
0
 10
-13.6664
 20
388.001
 11
-13.8508
 21
388.569
  0
LINE
  8
0
 10
-13.8508
 20
388.569
 11
-13.9625
 21
389.155
  0
LINE
  8
0
 10
-13.9625
 20
389.155
 11
-14
 21
389.75
  0
LINE
  8
0
 10
-14
 20
389.75
 11
-14
 21
438.25
  0
LINE
  8
0
 10
-14
 20
438.25
 11
-13.9625
 21
438.845
  0
LINE
  8
0
 10
-13.9625
 20
438.845
 11
-13.8508
 21
439.431
  0
LINE
  8
0
 10
-13.8508
 20
439.431
 11
-13.6664
 21
439.999
  0
LINE
  8
0
 10
-13.6664
 20
439.999
 11
-13.4124
 21
440.538
  0
LINE
  8
0
 10
-13.4124
 20
440.538
 11
-13.0928
 21
441.042
  0
LINE
  8
0
 10
-13.0928
 20
441.042
 11
-12.7126
 21
441.502
  0
LINE
  8
0
 10
-12.7126
 20
441.502
 11
-12.2778
 21
441.91
  0
LINE
  8
0
 10
-12.2778
 20
441.91
 11
-11.7952
 21
442.261
  0
LINE
  8
0
 10
-11.7952
 20
442.261
 11
-11.2724
 21
442.548
  0
LINE
  8
0
 10
-11.2724
 20
442.548
 11
-10.7178
 21
442.768
  0
LINE
  8
0
 10
-10.7178
 20
442.768
 11
-10.1401
 21
442.916
  0
LINE
  8
0
 10
-10.1401
 20
442.916
 11
-9.54825
 21
442.991
  0
LINE
  8
0
 10
-9.54825
 20
442.991
 11
9.54825
 21
442.991
  0
LINE
  8
0
 10
9.54825
 20
442.991
 11
10.1401
 21
442.916
  0
LINE
  8
0
 10
10.1401
 20
442.916
 11
10.7178
 21
442.768
  0
LINE
  8
0
 10
10.7178
 20
442.768
 11
11.2724
 21
442.548
  0
LINE
  8
0
 10
11.2724
 20
442.548
 11
11.7952
 21
442.261
  0
LINE
  8
0
 10
11.7952
 20
442.261
 11
12.2778
 21
441.91
  0
LINE
  8
0
 10
12.2778
 20
441.91
 11
12.7126
 21
441.502
  0
LINE
  8
0
 10
12.7126
 20
441.502
 11
13.0928
 21
441.042
  0
LINE
  8
0
 10
13.0928
 20
441.042
 11
13.4124
 21
440.538
  0
LINE
  8
0
 10
13.4124
 20
440.538
 11
13.6664
 21
439.999
  0
LINE
  8
0
 10
13.6664
 20
439.999
 11
13.8508
 21
439.431
  0
LINE
  8
0
 10
13.8508
 20
439.431
 11
13.9625
 21
438.845
  0
LINE
  8
0
 10
13.9625
 20
438.845
 11
14
 21
438.25
  0
LINE
  8
0
 10
14
 20
438.25
 11
14
 21
389.75
  0
LINE
  8
0
 10
14
 20
389.75
 11
13.9625
 21
389.155
  0
LINE
  8
0
 10
13.9625
 20
389.155
 11
13.8508
 21
388.569
  0
LINE
  8
0
 10
13.8508
 20
388.569
 11
13.6664
 21
388.001
  0
LINE
  8
0
 10
13.6664
 20
388.001
 11
13.4124
 21
387.462
  0
LINE
  8
0
 10
13.4124
 20
387.462
 11
13.0928
 21
386.958
  0
LINE
  8
0
 10
13.0928
 20
386.958
 11
12.7126
 21
386.498
  0
LINE
  8
0
 10
12.7126
 20
386.498
 11
12.2778
 21
386.09
  0
LINE
  8
0
 10
12.2778
 20
386.09
 11
11.7952
 21
385.739
  0
LINE
  8
0
 10
11.7952
 20
385.739
 11
11.2724
 21
385.452
  0
LINE
  8
0
 10
11.2724
 20
385.452
 11
10.7178
 21
385.232
  0
LINE
  8
0
 10
10.7178
 20
385.232
 11
10.1401
 21
385.084
  0
LINE
  8
0
 10
10.1401
 20
385.084
 11
9.54825
 21
385.009
  0
LINE
  8
0
 10
9.54825
 20
385.009
 11
-9.54825
 21
385.009
  0
LINE
  8
0
 10
10.4369
 20
315.589
 11
11.0451
 21
315.745
  0
LINE
  8
0
 10
11.0451
 20
315.745
 11
11.6289
 21
315.976
  0
LINE
  8
0
 10
11.6289
 20
315.976
 11
12.1791
 21
316.278
  0
LINE
  8
0
 10
12.1791
 20
316.278
 11
12.6871
 21
316.647
  0
LINE
  8
0
 10
12.6871
 20
316.647
 11
13.1448
 21
317.077
  0
LINE
  8
0
 10
13.1448
 20
317.077
 11
13.5451
 21
317.561
  0
LINE
  8
0
 10
13.5451
 20
317.561
 11
13.8815
 21
318.091
  0
LINE
  8
0
 10
13.8815
 20
318.091
 11
14.1489
 21
318.659
  0
LINE
  8
0
 10
14.1489
 20
318.659
 11
14.3429
 21
319.257
  0
LINE
  8
0
 10
14.3429
 20
319.257
 11
14.4606
 21
319.873
  0
LINE
  8
0
 10
14.4606
 20
319.873
 11
14.5
 21
320.5
  0
LINE
  8
0
 10
14.5
 20
320.5
 11
14.5
 21
369.5
  0
LINE
  8
0
 10
14.5
 20
369.5
 11
14.4606
 21
370.127
  0
LINE
  8
0
 10
14.4606
 20
370.127
 11
14.3429
 21
370.743
  0
LINE
  8
0
 10
14.3429
 20
370.743
 11
14.1489
 21
371.341
  0
LINE
  8
0
 10
14.1489
 20
371.341
 11
13.8815
 21
371.909
  0
LINE
  8
0
 10
13.8815
 20
371.909
 11
13.5451
 21
372.439
  0
LINE
  8
0
 10
13.5451
 20
372.439
 11
13.1448
 21
372.923
  0
LINE
  8
0
 10
13.1448
 20
372.923
 11
12.6871
 21
373.353
  0
LINE
  8
0
 10
12.6871
 20
373.353
 11
12.1791
 21
373.722
  0
LINE
  8
0
 10
12.1791
 20
373.722
 11
11.6289
 21
374.024
  0
LINE
  8
0
 10
11.6289
 20
374.024
 11
11.0451
 21
374.255
  0
LINE
  8
0
 10
11.0451
 20
374.255
 11
10.4369
 21
374.411
  0
LINE
  8
0
 10
10.4369
 20
374.411
 11
9.81395
 21
374.49
  0
LINE
  8
0
 10
9.81395
 20
374.49
 11
-9.81395
 21
374.49
  0
LINE
  8
0
 10
-9.81395
 20
374.49
 11
-10.4369
 21
374.411
  0
LINE
  8
0
 10
-10.4369
 20
374.411
 11
-11.0451
 21
374.255
  0
LINE
  8
0
 10
-11.0451
 20
374.255
 11
-11.6289
 21
374.024
  0
LINE
  8
0
 10
-11.6289
 20
374.024
 11
-12.1791
 21
373.722
  0
LINE
  8
0
 10
-12.1791
 20
373.722
 11
-12.6871
 21
373.353
  0
LINE
  8
0
 10
-12.6871
 20
373.353
 11
-13.1448
 21
372.923
  0
LINE
  8
0
 10
-13.1448
 20
372.923
 11
-13.5451
 21
372.439
  0
LINE
  8
0
 10
-13.5451
 20
372.439
 11
-13.8815
 21
371.909
  0
LINE
  8
0
 10
-13.8815
 20
371.909
 11
-14.1489
 21
371.341
  0
LINE
  8
0
 10
-14.1489
 20
371.341
 11
-14.3429
 21
370.743
  0
LINE
  8
0
 10
-14.3429
 20
370.743
 11
-14.4606
 21
370.127
  0
LINE
  8
0
 10
-14.4606
 20
370.127
 11
-14.5
 21
369.5
  0
LINE
  8
0
 10
-14.5
 20
369.5
 11
-14.5
 21
320.5
  0
LINE
  8
0
 10
-14.5
 20
320.5
 11
-14.4606
 21
319.873
  0
LINE
  8
0
 10
-14.4606
 20
319.873
 11
-14.3429
 21
319.257
  0
LINE
  8
0
 10
-14.3429
 20
319.257
 11
-14.1489
 21
318.659
  0
LINE
  8
0
 10
-14.1489
 20
318.659
 11
-13.8815
 21
318.091
  0
LINE
  8
0
 10
-13.8815
 20
318.091
 11
-13.5451
 21
317.561
  0
LINE
  8
0
 10
-13.5451
 20
317.561
 11
-13.1448
 21
317.077
  0
LINE
  8
0
 10
-13.1448
 20
317.077
 11
-12.6871
 21
316.647
  0
LINE
  8
0
 10
-12.6871
 20
316.647
 11
-12.1791
 21
316.278
  0
LINE
  8
0
 10
-12.1791
 20
316.278
 11
-11.6289
 21
315.976
  0
LINE
  8
0
 10
-11.6289
 20
315.976
 11
-11.0451
 21
315.745
  0
LINE
  8
0
 10
-11.0451
 20
315.745
 11
-10.4369
 21
315.589
  0
LINE
  8
0
 10
-10.4369
 20
315.589
 11
-9.81395
 21
315.51
  0
LINE
  8
0
 10
-9.81395
 20
315.51
 11
9.81395
 21
315.51
  0
LINE
  8
0
 10
9.81395
 20
315.51
 11
10.4369
 21
315.589
  0
LINE
  8
0
 10
-9.54825
 20
316.009
 11
-10.1401
 21
316.084
  0
LINE
  8
0
 10
-10.1401
 20
316.084
 11
-10.7178
 21
316.232
  0
LINE
  8
0
 10
-10.7178
 20
316.232
 11
-11.2724
 21
316.452
  0
LINE
  8
0
 10
-11.2724
 20
316.452
 11
-11.7952
 21
316.739
  0
LINE
  8
0
 10
-11.7952
 20
316.739
 11
-12.2778
 21
317.09
  0
LINE
  8
0
 10
-12.2778
 20
317.09
 11
-12.7126
 21
317.498
  0
LINE
  8
0
 10
-12.7126
 20
317.498
 11
-13.0928
 21
317.958
  0
LINE
  8
0
 10
-13.0928
 20
317.958
 11
-13.4124
 21
318.462
  0
LINE
  8
0
 10
-13.4124
 20
318.462
 11
-13.6664
 21
319.001
  0
LINE
  8
0
 10
-13.6664
 20
319.001
 11
-13.8508
 21
319.569
  0
LINE
  8
0
 10
-13.8508
 20
319.569
 11
-13.9625
 21
320.155
  0
LINE
  8
0
 10
-13.9625
 20
320.155
 11
-14
 21
320.75
  0
LINE
  8
0
 10
-14
 20
320.75
 11
-14
 21
369.25
  0
LINE
  8
0
 10
-14
 20
369.25
 11
-13.9625
 21
369.845
  0
LINE
  8
0
 10
-13.9625
 20
369.845
 11
-13.8508
 21
370.431
  0
LINE
  8
0
 10
-13.8508
 20
370.431
 11
-13.6664
 21
370.999
  0
LINE
  8
0
 10
-13.6664
 20
370.999
 11
-13.4124
 21
371.538
  0
LINE
  8
0
 10
-13.4124
 20
371.538
 11
-13.0928
 21
372.042
  0
LINE
  8
0
 10
-13.0928
 20
372.042
 11
-12.7126
 21
372.502
  0
LINE
  8
0
 10
-12.7126
 20
372.502
 11
-12.2778
 21
372.91
  0
LINE
  8
0
 10
-12.2778
 20
372.91
 11
-11.7952
 21
373.261
  0
LINE
  8
0
 10
-11.7952
 20
373.261
 11
-11.2724
 21
373.548
  0
LINE
  8
0
 10
-11.2724
 20
373.548
 11
-10.7178
 21
373.768
  0
LINE
  8
0
 10
-10.7178
 20
373.768
 11
-10.1401
 21
373.916
  0
LINE
  8
0
 10
-10.1401
 20
373.916
 11
-9.54825
 21
373.991
  0
LINE
  8
0
 10
-9.54825
 20
373.991
 11
9.54825
 21
373.991
  0
LINE
  8
0
 10
9.54825
 20
373.991
 11
10.1401
 21
373.916
  0
LINE
  8
0
 10
10.1401
 20
373.916
 11
10.7178
 21
373.768
  0
LINE
  8
0
 10
10.7178
 20
373.768
 11
11.2724
 21
373.548
  0
LINE
  8
0
 10
11.2724
 20
373.548
 11
11.7952
 21
373.261
  0
LINE
  8
0
 10
11.7952
 20
373.261
 11
12.2778
 21
372.91
  0
LINE
  8
0
 10
12.2778
 20
372.91
 11
12.7126
 21
372.502
  0
LINE
  8
0
 10
12.7126
 20
372.502
 11
13.0928
 21
372.042
  0
LINE
  8
0
 10
13.0928
 20
372.042
 11
13.4124
 21
371.538
  0
LINE
  8
0
 10
13.4124
 20
371.538
 11
13.6664
 21
370.999
  0
LINE
  8
0
 10
13.6664
 20
370.999
 11
13.8508
 21
370.431
  0
LINE
  8
0
 10
13.8508
 20
370.431
 11
13.9625
 21
369.845
  0
LINE
  8
0
 10
13.9625
 20
369.845
 11
14
 21
369.25
  0
LINE
  8
0
 10
14
 20
369.25
 11
14
 21
320.75
  0
LINE
  8
0
 10
14
 20
320.75
 11
13.9625
 21
320.155
  0
LINE
  8
0
 10
13.9625
 20
320.155
 11
13.8508
 21
319.569
  0
LINE
  8
0
 10
13.8508
 20
319.569
 11
13.6664
 21
319.001
  0
LINE
  8
0
 10
13.6664
 20
319.001
 11
13.4124
 21
318.462
  0
LINE
  8
0
 10
13.4124
 20
318.462
 11
13.0928
 21
317.958
  0
LINE
  8
0
 10
13.0928
 20
317.958
 11
12.7126
 21
317.498
  0
LINE
  8
0
 10
12.7126
 20
317.498
 11
12.2778
 21
317.09
  0
LINE
  8
0
 10
12.2778
 20
317.09
 11
11.7952
 21
316.739
  0
LINE
  8
0
 10
11.7952
 20
316.739
 11
11.2724
 21
316.452
  0
LINE
  8
0
 10
11.2724
 20
316.452
 11
10.7178
 21
316.232
  0
LINE
  8
0
 10
10.7178
 20
316.232
 11
10.1401
 21
316.084
  0
LINE
  8
0
 10
10.1401
 20
316.084
 11
9.54825
 21
316.009
  0
LINE
  8
0
 10
9.54825
 20
316.009
 11
-9.54825
 21
316.009
  0
LINE
  8
0
 10
10.4369
 20
246.589
 11
11.0451
 21
246.745
  0
LINE
  8
0
 10
11.0451
 20
246.745
 11
11.6289
 21
246.976
  0
LINE
  8
0
 10
11.6289
 20
246.976
 11
12.1791
 21
247.278
  0
LINE
  8
0
 10
12.1791
 20
247.278
 11
12.6871
 21
247.647
  0
LINE
  8
0
 10
12.6871
 20
247.647
 11
13.1448
 21
248.077
  0
LINE
  8
0
 10
13.1448
 20
248.077
 11
13.5451
 21
248.561
  0
LINE
  8
0
 10
13.5451
 20
248.561
 11
13.8815
 21
249.091
  0
LINE
  8
0
 10
13.8815
 20
249.091
 11
14.1489
 21
249.659
  0
LINE
  8
0
 10
14.1489
 20
249.659
 11
14.3429
 21
250.257
  0
LINE
  8
0
 10
14.3429
 20
250.257
 11
14.4606
 21
250.873
  0
LINE
  8
0
 10
14.4606
 20
250.873
 11
14.5
 21
251.5
  0
LINE
  8
0
 10
14.5
 20
251.5
 11
14.5
 21
300.5
  0
LINE
  8
0
 10
14.5
 20
300.5
 11
14.4606
 21
301.127
  0
LINE
  8
0
 10
14.4606
 20
301.127
 11
14.3429
 21
301.743
  0
LINE
  8
0
 10
14.3429
 20
301.743
 11
14.1489
 21
302.341
  0
LINE
  8
0
 10
14.1489
 20
302.341
 11
13.8815
 21
302.909
  0
LINE
  8
0
 10
13.8815
 20
302.909
 11
13.5451
 21
303.439
  0
LINE
  8
0
 10
13.5451
 20
303.439
 11
13.1448
 21
303.923
  0
LINE
  8
0
 10
13.1448
 20
303.923
 11
12.6871
 21
304.353
  0
LINE
  8
0
 10
12.6871
 20
304.353
 11
12.1791
 21
304.722
  0
LINE
  8
0
 10
12.1791
 20
304.722
 11
11.6289
 21
305.024
  0
LINE
  8
0
 10
11.6289
 20
305.024
 11
11.0451
 21
305.255
  0
LINE
  8
0
 10
11.0451
 20
305.255
 11
10.4369
 21
305.411
  0
LINE
  8
0
 10
10.4369
 20
305.411
 11
9.81395
 21
305.49
  0
LINE
  8
0
 10
9.81395
 20
305.49
 11
-9.81395
 21
305.49
  0
LINE
  8
0
 10
-9.81395
 20
305.49
 11
-10.4369
 21
305.411
  0
LINE
  8
0
 10
-10.4369
 20
305.411
 11
-11.0451
 21
305.255
  0
LINE
  8
0
 10
-11.0451
 20
305.255
 11
-11.6289
 21
305.024
  0
LINE
  8
0
 10
-11.6289
 20
305.024
 11
-12.1791
 21
304.722
  0
LINE
  8
0
 10
-12.1791
 20
304.722
 11
-12.6871
 21
304.353
  0
LINE
  8
0
 10
-12.6871
 20
304.353
 11
-13.1448
 21
303.923
  0
LINE
  8
0
 10
-13.1448
 20
303.923
 11
-13.5451
 21
303.439
  0
LINE
  8
0
 10
-13.5451
 20
303.439
 11
-13.8815
 21
302.909
  0
LINE
  8
0
 10
-13.8815
 20
302.909
 11
-14.1489
 21
302.341
  0
LINE
  8
0
 10
-14.1489
 20
302.341
 11
-14.3429
 21
301.743
  0
LINE
  8
0
 10
-14.3429
 20
301.743
 11
-14.4606
 21
301.127
  0
LINE
  8
0
 10
-14.4606
 20
301.127
 11
-14.5
 21
300.5
  0
LINE
  8
0
 10
-14.5
 20
300.5
 11
-14.5
 21
251.5
  0
LINE
  8
0
 10
-14.5
 20
251.5
 11
-14.4606
 21
250.873
  0
LINE
  8
0
 10
-14.4606
 20
250.873
 11
-14.3429
 21
250.257
  0
LINE
  8
0
 10
-14.3429
 20
250.257
 11
-14.1489
 21
249.659
  0
LINE
  8
0
 10
-14.1489
 20
249.659
 11
-13.8815
 21
249.091
  0
LINE
  8
0
 10
-13.8815
 20
249.091
 11
-13.5451
 21
248.561
  0
LINE
  8
0
 10
-13.5451
 20
248.561
 11
-13.1448
 21
248.077
  0
LINE
  8
0
 10
-13.1448
 20
248.077
 11
-12.6871
 21
247.647
  0
LINE
  8
0
 10
-12.6871
 20
247.647
 11
-12.1791
 21
247.278
  0
LINE
  8
0
 10
-12.1791
 20
247.278
 11
-11.6289
 21
246.976
  0
LINE
  8
0
 10
-11.6289
 20
246.976
 11
-11.0451
 21
246.745
  0
LINE
  8
0
 10
-11.0451
 20
246.745
 11
-10.4369
 21
246.589
  0
LINE
  8
0
 10
-10.4369
 20
246.589
 11
-9.81395
 21
246.51
  0
LINE
  8
0
 10
-9.81395
 20
246.51
 11
9.81395
 21
246.51
  0
LINE
  8
0
 10
9.81395
 20
246.51
 11
10.4369
 21
246.589
  0
LINE
  8
0
 10
-9.49297
 20
247.888
 11
-9.97507
 21
247.949
  0
LINE
  8
0
 10
-9.97507
 20
247.949
 11
-10.4457
 21
248.07
  0
LINE
  8
0
 10
-10.4457
 20
248.07
 11
-10.8975
 21
248.249
  0
LINE
  8
0
 10
-10.8975
 20
248.249
 11
-11.3234
 21
248.483
  0
LINE
  8
0
 10
-11.3234
 20
248.483
 11
-11.7165
 21
248.769
  0
LINE
  8
0
 10
-11.7165
 20
248.769
 11
-12.0707
 21
249.101
  0
LINE
  8
0
 10
-12.0707
 20
249.101
 11
-12.3805
 21
249.476
  0
LINE
  8
0
 10
-12.3805
 20
249.476
 11
-12.6408
 21
249.886
  0
LINE
  8
0
 10
-12.6408
 20
249.886
 11
-12.8477
 21
250.326
  0
LINE
  8
0
 10
-12.8477
 20
250.326
 11
-12.9979
 21
250.788
  0
LINE
  8
0
 10
-12.9979
 20
250.788
 11
-13.089
 21
251.265
  0
LINE
  8
0
 10
-13.089
 20
251.265
 11
-13.1195
 21
251.75
  0
LINE
  8
0
 10
-13.1195
 20
251.75
 11
-13.1195
 21
300.25
  0
LINE
  8
0
 10
-13.1195
 20
300.25
 11
-13.089
 21
300.735
  0
LINE
  8
0
 10
-13.089
 20
300.735
 11
-12.9979
 21
301.212
  0
LINE
  8
0
 10
-12.9979
 20
301.212
 11
-12.8477
 21
301.674
  0
LINE
  8
0
 10
-12.8477
 20
301.674
 11
-12.6408
 21
302.114
  0
LINE
  8
0
 10
-12.6408
 20
302.114
 11
-12.3805
 21
302.524
  0
LINE
  8
0
 10
-12.3805
 20
302.524
 11
-12.0707
 21
302.899
  0
LINE
  8
0
 10
-12.0707
 20
302.899
 11
-11.7165
 21
303.231
  0
LINE
  8
0
 10
-11.7165
 20
303.231
 11
-11.3234
 21
303.517
  0
LINE
  8
0
 10
-11.3234
 20
303.517
 11
-10.8975
 21
303.751
  0
LINE
  8
0
 10
-10.8975
 20
303.751
 11
-10.4457
 21
303.93
  0
LINE
  8
0
 10
-10.4457
 20
303.93
 11
-9.97507
 21
304.051
  0
LINE
  8
0
 10
-9.97507
 20
304.051
 11
-9.49297
 21
304.112
  0
LINE
  8
0
 10
-9.49297
 20
304.112
 11
9.49297
 21
304.112
  0
LINE
  8
0
 10
9.49297
 20
304.112
 11
9.97507
 21
304.051
  0
LINE
  8
0
 10
9.97507
 20
304.051
 11
10.4457
 21
303.93
  0
LINE
  8
0
 10
10.4457
 20
303.93
 11
10.8975
 21
303.751
  0
LINE
  8
0
 10
10.8975
 20
303.751
 11
11.3234
 21
303.517
  0
LINE
  8
0
 10
11.3234
 20
303.517
 11
11.7165
 21
303.231
  0
LINE
  8
0
 10
11.7165
 20
303.231
 11
12.0707
 21
302.899
  0
LINE
  8
0
 10
12.0707
 20
302.899
 11
12.3805
 21
302.524
  0
LINE
  8
0
 10
12.3805
 20
302.524
 11
12.6408
 21
302.114
  0
LINE
  8
0
 10
12.6408
 20
302.114
 11
12.8477
 21
301.674
  0
LINE
  8
0
 10
12.8477
 20
301.674
 11
12.9979
 21
301.212
  0
LINE
  8
0
 10
12.9979
 20
301.212
 11
13.089
 21
300.735
  0
LINE
  8
0
 10
13.089
 20
300.735
 11
13.1195
 21
300.25
  0
LINE
  8
0
 10
13.1195
 20
300.25
 11
13.1195
 21
251.75
  0
LINE
  8
0
 10
13.1195
 20
251.75
 11
13.089
 21
251.265
  0
LINE
  8
0
 10
13.089
 20
251.265
 11
12.9979
 21
250.788
  0
LINE
  8
0
 10
12.9979
 20
250.788
 11
12.8477
 21
250.326
  0
LINE
  8
0
 10
12.8477
 20
250.326
 11
12.6408
 21
249.886
  0
LINE
  8
0
 10
12.6408
 20
249.886
 11
12.3805
 21
249.476
  0
LINE
  8
0
 10
12.3805
 20
249.476
 11
12.0707
 21
249.101
  0
LINE
  8
0
 10
12.0707
 20
249.101
 11
11.7165
 21
248.769
  0
LINE
  8
0
 10
11.7165
 20
248.769
 11
11.3234
 21
248.483
  0
LINE
  8
0
 10
11.3234
 20
248.483
 11
10.8975
 21
248.249
  0
LINE
  8
0
 10
10.8975
 20
248.249
 11
10.4457
 21
248.07
  0
LINE
  8
0
 10
10.4457
 20
248.07
 11
9.97507
 21
247.949
  0
LINE
  8
0
 10
9.97507
 20
247.949
 11
9.49297
 21
247.888
  0
LINE
  8
0
 10
9.49297
 20
247.888
 11
-9.49297
 21
247.888
  0
LINE
  8
0
 10
10.4369
 20
177.589
 11
11.0451
 21
177.745
  0
LINE
  8
0
 10
11.0451
 20
177.745
 11
11.6289
 21
177.976
  0
LINE
  8
0
 10
11.6289
 20
177.976
 11
12.1791
 21
178.278
  0
LINE
  8
0
 10
12.1791
 20
178.278
 11
12.6871
 21
178.647
  0
LINE
  8
0
 10
12.6871
 20
178.647
 11
13.1448
 21
179.077
  0
LINE
  8
0
 10
13.1448
 20
179.077
 11
13.5451
 21
179.561
  0
LINE
  8
0
 10
13.5451
 20
179.561
 11
13.8815
 21
180.091
  0
LINE
  8
0
 10
13.8815
 20
180.091
 11
14.1489
 21
180.659
  0
LINE
  8
0
 10
14.1489
 20
180.659
 11
14.3429
 21
181.257
  0
LINE
  8
0
 10
14.3429
 20
181.257
 11
14.4606
 21
181.873
  0
LINE
  8
0
 10
14.4606
 20
181.873
 11
14.5
 21
182.5
  0
LINE
  8
0
 10
14.5
 20
182.5
 11
14.5
 21
231.5
  0
LINE
  8
0
 10
14.5
 20
231.5
 11
14.4606
 21
232.127
  0
LINE
  8
0
 10
14.4606
 20
232.127
 11
14.3429
 21
232.743
  0
LINE
  8
0
 10
14.3429
 20
232.743
 11
14.1489
 21
233.341
  0
LINE
  8
0
 10
14.1489
 20
233.341
 11
13.8815
 21
233.909
  0
LINE
  8
0
 10
13.8815
 20
233.909
 11
13.5451
 21
234.439
  0
LINE
  8
0
 10
13.5451
 20
234.439
 11
13.1448
 21
234.923
  0
LINE
  8
0
 10
13.1448
 20
234.923
 11
12.6871
 21
235.353
  0
LINE
  8
0
 10
12.6871
 20
235.353
 11
12.1791
 21
235.722
  0
LINE
  8
0
 10
12.1791
 20
235.722
 11
11.6289
 21
236.024
  0
LINE
  8
0
 10
11.6289
 20
236.024
 11
11.0451
 21
236.255
  0
LINE
  8
0
 10
11.0451
 20
236.255
 11
10.4369
 21
236.411
  0
LINE
  8
0
 10
10.4369
 20
236.411
 11
9.81395
 21
236.49
  0
LINE
  8
0
 10
9.81395
 20
236.49
 11
-9.81395
 21
236.49
  0
LINE
  8
0
 10
-9.81395
 20
236.49
 11
-10.4369
 21
236.411
  0
LINE
  8
0
 10
-10.4369
 20
236.411
 11
-11.0451
 21
236.255
  0
LINE
  8
0
 10
-11.0451
 20
236.255
 11
-11.6289
 21
236.024
  0
LINE
  8
0
 10
-11.6289
 20
236.024
 11
-12.1791
 21
235.722
  0
LINE
  8
0
 10
-12.1791
 20
235.722
 11
-12.6871
 21
235.353
  0
LINE
  8
0
 10
-12.6871
 20
235.353
 11
-13.1448
 21
234.923
  0
LINE
  8
0
 10
-13.1448
 20
234.923
 11
-13.5451
 21
234.439
  0
LINE
  8
0
 10
-13.5451
 20
234.439
 11
-13.8815
 21
233.909
  0
LINE
  8
0
 10
-13.8815
 20
233.909
 11
-14.1489
 21
233.341
  0
LINE
  8
0
 10
-14.1489
 20
233.341
 11
-14.3429
 21
232.743
  0
LINE
  8
0
 10
-14.3429
 20
232.743
 11
-14.4606
 21
232.127
  0
LINE
  8
0
 10
-14.4606
 20
232.127
 11
-14.5
 21
231.5
  0
LINE
  8
0
 10
-14.5
 20
231.5
 11
-14.5
 21
182.5
  0
LINE
  8
0
 10
-14.5
 20
182.5
 11
-14.4606
 21
181.873
  0
LINE
  8
0
 10
-14.4606
 20
181.873
 11
-14.3429
 21
181.257
  0
LINE
  8
0
 10
-14.3429
 20
181.257
 11
-14.1489
 21
180.659
  0
LINE
  8
0
 10
-14.1489
 20
180.659
 11
-13.8815
 21
180.091
  0
LINE
  8
0
 10
-13.8815
 20
180.091
 11
-13.5451
 21
179.561
  0
LINE
  8
0
 10
-13.5451
 20
179.561
 11
-13.1448
 21
179.077
  0
LINE
  8
0
 10
-13.1448
 20
179.077
 11
-12.6871
 21
178.647
  0
LINE
  8
0
 10
-12.6871
 20
178.647
 11
-12.1791
 21
178.278
  0
LINE
  8
0
 10
-12.1791
 20
178.278
 11
-11.6289
 21
177.976
  0
LINE
  8
0
 10
-11.6289
 20
177.976
 11
-11.0451
 21
177.745
  0
LINE
  8
0
 10
-11.0451
 20
177.745
 11
-10.4369
 21
177.589
  0
LINE
  8
0
 10
-10.4369
 20
177.589
 11
-9.81395
 21
177.51
  0
LINE
  8
0
 10
-9.81395
 20
177.51
 11
9.81395
 21
177.51
  0
LINE
  8
0
 10
9.81395
 20
177.51
 11
10.4369
 21
177.589
  0
LINE
  8
0
 10
7.40581
 20
228.003
 11
7.21892
 21
228.027
  0
LINE
  8
0
 10
7.21892
 20
228.027
 11
7.03647
 21
228.073
  0
LINE
  8
0
 10
7.03647
 20
228.073
 11
6.86133
 21
228.143
  0
LINE
  8
0
 10
6.86133
 20
228.143
 11
6.69626
 21
228.234
  0
LINE
  8
0
 10
6.69626
 20
228.234
 11
6.54385
 21
228.344
  0
LINE
  8
0
 10
6.54385
 20
228.344
 11
6.40654
 21
228.473
  0
LINE
  8
0
 10
6.40654
 20
228.473
 11
6.28647
 21
228.618
  0
LINE
  8
0
 10
6.28647
 20
228.618
 11
6.18553
 21
228.777
  0
LINE
  8
0
 10
6.18553
 20
228.777
 11
6.10533
 21
228.948
  0
LINE
  8
0
 10
6.10533
 20
228.948
 11
6.04712
 21
229.127
  0
LINE
  8
0
 10
6.04712
 20
229.127
 11
6.01183
 21
229.312
  0
LINE
  8
0
 10
6.01183
 20
229.312
 11
6
 21
229.5
  0
LINE
  8
0
 10
6
 20
229.5
 11
6.01183
 21
229.688
  0
LINE
  8
0
 10
6.01183
 20
229.688
 11
6.04712
 21
229.873
  0
LINE
  8
0
 10
6.04712
 20
229.873
 11
6.10533
 21
230.052
  0
LINE
  8
0
 10
6.10533
 20
230.052
 11
6.18553
 21
230.223
  0
LINE
  8
0
 10
6.18553
 20
230.223
 11
6.28647
 21
230.382
  0
LINE
  8
0
 10
6.28647
 20
230.382
 11
6.40654
 21
230.527
  0
LINE
  8
0
 10
6.40654
 20
230.527
 11
6.54385
 21
230.656
  0
LINE
  8
0
 10
6.54385
 20
230.656
 11
6.69626
 21
230.766
  0
LINE
  8
0
 10
6.69626
 20
230.766
 11
6.86133
 21
230.857
  0
LINE
  8
0
 10
6.86133
 20
230.857
 11
7.03647
 21
230.927
  0
LINE
  8
0
 10
7.03647
 20
230.927
 11
7.21892
 21
230.973
  0
LINE
  8
0
 10
7.21892
 20
230.973
 11
7.40581
 21
230.997
  0
LINE
  8
0
 10
7.40581
 20
230.997
 11
7.59418
 21
230.997
  0
LINE
  8
0
 10
7.59418
 20
230.997
 11
7.78107
 21
230.973
  0
LINE
  8
0
 10
7.78107
 20
230.973
 11
7.96352
 21
230.927
  0
LINE
  8
0
 10
7.96352
 20
230.927
 11
8.13866
 21
230.857
  0
LINE
  8
0
 10
8.13866
 20
230.857
 11
8.30373
 21
230.766
  0
LINE
  8
0
 10
8.30373
 20
230.766
 11
8.45613
 21
230.656
  0
LINE
  8
0
 10
8.45613
 20
230.656
 11
8.59344
 21
230.527
  0
LINE
  8
0
 10
8.59344
 20
230.527
 11
8.71352
 21
230.382
  0
LINE
  8
0
 10
8.71352
 20
230.382
 11
8.81445
 21
230.223
  0
LINE
  8
0
 10
8.81445
 20
230.223
 11
8.89465
 21
230.052
  0
LINE
  8
0
 10
8.89465
 20
230.052
 11
8.95287
 21
229.873
  0
LINE
  8
0
 10
8.95287
 20
229.873
 11
8.98816
 21
229.688
  0
LINE
  8
0
 10
8.98816
 20
229.688
 11
9
 21
229.5
  0
LINE
  8
0
 10
9
 20
229.5
 11
8.98816
 21
229.312
  0
LINE
  8
0
 10
8.98816
 20
229.312
 11
8.95287
 21
229.127
  0
LINE
  8
0
 10
8.95287
 20
229.127
 11
8.89465
 21
228.948
  0
LINE
  8
0
 10
8.89465
 20
228.948
 11
8.81445
 21
228.777
  0
LINE
  8
0
 10
8.81445
 20
228.777
 11
8.71352
 21
228.618
  0
LINE
  8
0
 10
8.71352
 20
228.618
 11
8.59344
 21
228.473
  0
LINE
  8
0
 10
8.59344
 20
228.473
 11
8.45613
 21
228.344
  0
LINE
  8
0
 10
8.45613
 20
228.344
 11
8.30373
 21
228.234
  0
LINE
  8
0
 10
8.30373
 20
228.234
 11
8.13866
 21
228.143
  0
LINE
  8
0
 10
8.13866
 20
228.143
 11
7.96352
 21
228.073
  0
LINE
  8
0
 10
7.96352
 20
228.073
 11
7.78107
 21
228.027
  0
LINE
  8
0
 10
7.78107
 20
228.027
 11
7.59418
 21
228.003
  0
LINE
  8
0
 10
7.59418
 20
228.003
 11
7.40581
 21
228.003
  0
LINE
  8
0
 10
-7.59418
 20
228.003
 11
-7.78107
 21
228.027
  0
LINE
  8
0
 10
-7.78107
 20
228.027
 11
-7.96352
 21
228.073
  0
LINE
  8
0
 10
-7.96352
 20
228.073
 11
-8.13866
 21
228.143
  0
LINE
  8
0
 10
-8.13866
 20
228.143
 11
-8.30373
 21
228.234
  0
LINE
  8
0
 10
-8.30373
 20
228.234
 11
-8.45613
 21
228.344
  0
LINE
  8
0
 10
-8.45613
 20
228.344
 11
-8.59344
 21
228.473
  0
LINE
  8
0
 10
-8.59344
 20
228.473
 11
-8.71352
 21
228.618
  0
LINE
  8
0
 10
-8.71352
 20
228.618
 11
-8.81445
 21
228.777
  0
LINE
  8
0
 10
-8.81445
 20
228.777
 11
-8.89465
 21
228.948
  0
LINE
  8
0
 10
-8.89465
 20
228.948
 11
-8.95287
 21
229.127
  0
LINE
  8
0
 10
-8.95287
 20
229.127
 11
-8.98816
 21
229.312
  0
LINE
  8
0
 10
-8.98816
 20
229.312
 11
-9
 21
229.5
  0
LINE
  8
0
 10
-9
 20
229.5
 11
-8.98816
 21
229.688
  0
LINE
  8
0
 10
-8.98816
 20
229.688
 11
-8.95287
 21
229.873
  0
LINE
  8
0
 10
-8.95287
 20
229.873
 11
-8.89465
 21
230.052
  0
LINE
  8
0
 10
-8.89465
 20
230.052
 11
-8.81445
 21
230.223
  0
LINE
  8
0
 10
-8.81445
 20
230.223
 11
-8.71352
 21
230.382
  0
LINE
  8
0
 10
-8.71352
 20
230.382
 11
-8.59344
 21
230.527
  0
LINE
  8
0
 10
-8.59344
 20
230.527
 11
-8.45613
 21
230.656
  0
LINE
  8
0
 10
-8.45613
 20
230.656
 11
-8.30373
 21
230.766
  0
LINE
  8
0
 10
-8.30373
 20
230.766
 11
-8.13866
 21
230.857
  0
LINE
  8
0
 10
-8.13866
 20
230.857
 11
-7.96352
 21
230.927
  0
LINE
  8
0
 10
-7.96352
 20
230.927
 11
-7.78107
 21
230.973
  0
LINE
  8
0
 10
-7.78107
 20
230.973
 11
-7.59418
 21
230.997
  0
LINE
  8
0
 10
-7.59418
 20
230.997
 11
-7.40581
 21
230.997
  0
LINE
  8
0
 10
-7.40581
 20
230.997
 11
-7.21892
 21
230.973
  0
LINE
  8
0
 10
-7.21892
 20
230.973
 11
-7.03647
 21
230.927
  0
LINE
  8
0
 10
-7.03647
 20
230.927
 11
-6.86133
 21
230.857
  0
LINE
  8
0
 10
-6.86133
 20
230.857
 11
-6.69626
 21
230.766
  0
LINE
  8
0
 10
-6.69626
 20
230.766
 11
-6.54385
 21
230.656
  0
LINE
  8
0
 10
-6.54385
 20
230.656
 11
-6.40654
 21
230.527
  0
LINE
  8
0
 10
-6.40654
 20
230.527
 11
-6.28647
 21
230.382
  0
LINE
  8
0
 10
-6.28647
 20
230.382
 11
-6.18553
 21
230.223
  0
LINE
  8
0
 10
-6.18553
 20
230.223
 11
-6.10533
 21
230.052
  0
LINE
  8
0
 10
-6.10533
 20
230.052
 11
-6.04712
 21
229.873
  0
LINE
  8
0
 10
-6.04712
 20
229.873
 11
-6.01183
 21
229.688
  0
LINE
  8
0
 10
-6.01183
 20
229.688
 11
-6
 21
229.5
  0
LINE
  8
0
 10
-6
 20
229.5
 11
-6.01183
 21
229.312
  0
LINE
  8
0
 10
-6.01183
 20
229.312
 11
-6.04712
 21
229.127
  0
LINE
  8
0
 10
-6.04712
 20
229.127
 11
-6.10533
 21
228.948
  0
LINE
  8
0
 10
-6.10533
 20
228.948
 11
-6.18553
 21
228.777
  0
LINE
  8
0
 10
-6.18553
 20
228.777
 11
-6.28647
 21
228.618
  0
LINE
  8
0
 10
-6.28647
 20
228.618
 11
-6.40654
 21
228.473
  0
LINE
  8
0
 10
-6.40654
 20
228.473
 11
-6.54385
 21
228.344
  0
LINE
  8
0
 10
-6.54385
 20
228.344
 11
-6.69626
 21
228.234
  0
LINE
  8
0
 10
-6.69626
 20
228.234
 11
-6.86133
 21
228.143
  0
LINE
  8
0
 10
-6.86133
 20
228.143
 11
-7.03647
 21
228.073
  0
LINE
  8
0
 10
-7.03647
 20
228.073
 11
-7.21892
 21
228.027
  0
LINE
  8
0
 10
-7.21892
 20
228.027
 11
-7.40581
 21
228.003
  0
LINE
  8
0
 10
-7.40581
 20
228.003
 11
-7.59418
 21
228.003
  0
LINE
  8
0
 10
7.40581
 20
183.003
 11
7.21892
 21
183.027
  0
LINE
  8
0
 10
7.21892
 20
183.027
 11
7.03647
 21
183.073
  0
LINE
  8
0
 10
7.03647
 20
183.073
 11
6.86133
 21
183.143
  0
LINE
  8
0
 10
6.86133
 20
183.143
 11
6.69626
 21
183.234
  0
LINE
  8
0
 10
6.69626
 20
183.234
 11
6.54385
 21
183.344
  0
LINE
  8
0
 10
6.54385
 20
183.344
 11
6.40654
 21
183.473
  0
LINE
  8
0
 10
6.40654
 20
183.473
 11
6.28647
 21
183.618
  0
LINE
  8
0
 10
6.28647
 20
183.618
 11
6.18553
 21
183.777
  0
LINE
  8
0
 10
6.18553
 20
183.777
 11
6.10533
 21
183.948
  0
LINE
  8
0
 10
6.10533
 20
183.948
 11
6.04712
 21
184.127
  0
LINE
  8
0
 10
6.04712
 20
184.127
 11
6.01183
 21
184.312
  0
LINE
  8
0
 10
6.01183
 20
184.312
 11
6
 21
184.5
  0
LINE
  8
0
 10
6
 20
184.5
 11
6.01183
 21
184.688
  0
LINE
  8
0
 10
6.01183
 20
184.688
 11
6.04712
 21
184.873
  0
LINE
  8
0
 10
6.04712
 20
184.873
 11
6.10533
 21
185.052
  0
LINE
  8
0
 10
6.10533
 20
185.052
 11
6.18553
 21
185.223
  0
LINE
  8
0
 10
6.18553
 20
185.223
 11
6.28647
 21
185.382
  0
LINE
  8
0
 10
6.28647
 20
185.382
 11
6.40654
 21
185.527
  0
LINE
  8
0
 10
6.40654
 20
185.527
 11
6.54385
 21
185.656
  0
LINE
  8
0
 10
6.54385
 20
185.656
 11
6.69626
 21
185.766
  0
LINE
  8
0
 10
6.69626
 20
185.766
 11
6.86133
 21
185.857
  0
LINE
  8
0
 10
6.86133
 20
185.857
 11
7.03647
 21
185.927
  0
LINE
  8
0
 10
7.03647
 20
185.927
 11
7.21892
 21
185.973
  0
LINE
  8
0
 10
7.21892
 20
185.973
 11
7.40581
 21
185.997
  0
LINE
  8
0
 10
7.40581
 20
185.997
 11
7.59418
 21
185.997
  0
LINE
  8
0
 10
7.59418
 20
185.997
 11
7.78107
 21
185.973
  0
LINE
  8
0
 10
7.78107
 20
185.973
 11
7.96352
 21
185.927
  0
LINE
  8
0
 10
7.96352
 20
185.927
 11
8.13866
 21
185.857
  0
LINE
  8
0
 10
8.13866
 20
185.857
 11
8.30373
 21
185.766
  0
LINE
  8
0
 10
8.30373
 20
185.766
 11
8.45613
 21
185.656
  0
LINE
  8
0
 10
8.45613
 20
185.656
 11
8.59344
 21
185.527
  0
LINE
  8
0
 10
8.59344
 20
185.527
 11
8.71352
 21
185.382
  0
LINE
  8
0
 10
8.71352
 20
185.382
 11
8.81445
 21
185.223
  0
LINE
  8
0
 10
8.81445
 20
185.223
 11
8.89465
 21
185.052
  0
LINE
  8
0
 10
8.89465
 20
185.052
 11
8.95287
 21
184.873
  0
LINE
  8
0
 10
8.95287
 20
184.873
 11
8.98816
 21
184.688
  0
LINE
  8
0
 10
8.98816
 20
184.688
 11
9
 21
184.5
  0
LINE
  8
0
 10
9
 20
184.5
 11
8.98816
 21
184.312
  0
LINE
  8
0
 10
8.98816
 20
184.312
 11
8.95287
 21
184.127
  0
LINE
  8
0
 10
8.95287
 20
184.127
 11
8.89465
 21
183.948
  0
LINE
  8
0
 10
8.89465
 20
183.948
 11
8.81445
 21
183.777
  0
LINE
  8
0
 10
8.81445
 20
183.777
 11
8.71352
 21
183.618
  0
LINE
  8
0
 10
8.71352
 20
183.618
 11
8.59344
 21
183.473
  0
LINE
  8
0
 10
8.59344
 20
183.473
 11
8.45613
 21
183.344
  0
LINE
  8
0
 10
8.45613
 20
183.344
 11
8.30373
 21
183.234
  0
LINE
  8
0
 10
8.30373
 20
183.234
 11
8.13866
 21
183.143
  0
LINE
  8
0
 10
8.13866
 20
183.143
 11
7.96352
 21
183.073
  0
LINE
  8
0
 10
7.96352
 20
183.073
 11
7.78107
 21
183.027
  0
LINE
  8
0
 10
7.78107
 20
183.027
 11
7.59418
 21
183.003
  0
LINE
  8
0
 10
7.59418
 20
183.003
 11
7.40581
 21
183.003
  0
LINE
  8
0
 10
-7.59418
 20
183.003
 11
-7.78107
 21
183.027
  0
LINE
  8
0
 10
-7.78107
 20
183.027
 11
-7.96352
 21
183.073
  0
LINE
  8
0
 10
-7.96352
 20
183.073
 11
-8.13866
 21
183.143
  0
LINE
  8
0
 10
-8.13866
 20
183.143
 11
-8.30373
 21
183.234
  0
LINE
  8
0
 10
-8.30373
 20
183.234
 11
-8.45613
 21
183.344
  0
LINE
  8
0
 10
-8.45613
 20
183.344
 11
-8.59344
 21
183.473
  0
LINE
  8
0
 10
-8.59344
 20
183.473
 11
-8.71352
 21
183.618
  0
LINE
  8
0
 10
-8.71352
 20
183.618
 11
-8.81445
 21
183.777
  0
LINE
  8
0
 10
-8.81445
 20
183.777
 11
-8.89465
 21
183.948
  0
LINE
  8
0
 10
-8.89465
 20
183.948
 11
-8.95287
 21
184.127
  0
LINE
  8
0
 10
-8.95287
 20
184.127
 11
-8.98816
 21
184.312
  0
LINE
  8
0
 10
-8.98816
 20
184.312
 11
-9
 21
184.5
  0
LINE
  8
0
 10
-9
 20
184.5
 11
-8.98816
 21
184.688
  0
LINE
  8
0
 10
-8.98816
 20
184.688
 11
-8.95287
 21
184.873
  0
LINE
  8
0
 10
-8.95287
 20
184.873
 11
-8.89465
 21
185.052
  0
LINE
  8
0
 10
-8.89465
 20
185.052
 11
-8.81445
 21
185.223
  0
LINE
  8
0
 10
-8.81445
 20
185.223
 11
-8.71352
 21
185.382
  0
LINE
  8
0
 10
-8.71352
 20
185.382
 11
-8.59344
 21
185.527
  0
LINE
  8
0
 10
-8.59344
 20
185.527
 11
-8.45613
 21
185.656
  0
LINE
  8
0
 10
-8.45613
 20
185.656
 11
-8.30373
 21
185.766
  0
LINE
  8
0
 10
-8.30373
 20
185.766
 11
-8.13866
 21
185.857
  0
LINE
  8
0
 10
-8.13866
 20
185.857
 11
-7.96352
 21
185.927
  0
LINE
  8
0
 10
-7.96352
 20
185.927
 11
-7.78107
 21
185.973
  0
LINE
  8
0
 10
-7.78107
 20
185.973
 11
-7.59418
 21
185.997
  0
LINE
  8
0
 10
-7.59418
 20
185.997
 11
-7.40581
 21
185.997
  0
LINE
  8
0
 10
-7.40581
 20
185.997
 11
-7.21892
 21
185.973
  0
LINE
  8
0
 10
-7.21892
 20
185.973
 11
-7.03647
 21
185.927
  0
LINE
  8
0
 10
-7.03647
 20
185.927
 11
-6.86133
 21
185.857
  0
LINE
  8
0
 10
-6.86133
 20
185.857
 11
-6.69626
 21
185.766
  0
LINE
  8
0
 10
-6.69626
 20
185.766
 11
-6.54385
 21
185.656
  0
LINE
  8
0
 10
-6.54385
 20
185.656
 11
-6.40654
 21
185.527
  0
LINE
  8
0
 10
-6.40654
 20
185.527
 11
-6.28647
 21
185.382
  0
LINE
  8
0
 10
-6.28647
 20
185.382
 11
-6.18553
 21
185.223
  0
LINE
  8
0
 10
-6.18553
 20
185.223
 11
-6.10533
 21
185.052
  0
LINE
  8
0
 10
-6.10533
 20
185.052
 11
-6.04712
 21
184.873
  0
LINE
  8
0
 10
-6.04712
 20
184.873
 11
-6.01183
 21
184.688
  0
LINE
  8
0
 10
-6.01183
 20
184.688
 11
-6
 21
184.5
  0
LINE
  8
0
 10
-6
 20
184.5
 11
-6.01183
 21
184.312
  0
LINE
  8
0
 10
-6.01183
 20
184.312
 11
-6.04712
 21
184.127
  0
LINE
  8
0
 10
-6.04712
 20
184.127
 11
-6.10533
 21
183.948
  0
LINE
  8
0
 10
-6.10533
 20
183.948
 11
-6.18553
 21
183.777
  0
LINE
  8
0
 10
-6.18553
 20
183.777
 11
-6.28647
 21
183.618
  0
LINE
  8
0
 10
-6.28647
 20
183.618
 11
-6.40654
 21
183.473
  0
LINE
  8
0
 10
-6.40654
 20
183.473
 11
-6.54385
 21
183.344
  0
LINE
  8
0
 10
-6.54385
 20
183.344
 11
-6.69626
 21
183.234
  0
LINE
  8
0
 10
-6.69626
 20
183.234
 11
-6.86133
 21
183.143
  0
LINE
  8
0
 10
-6.86133
 20
183.143
 11
-7.03647
 21
183.073
  0
LINE
  8
0
 10
-7.03647
 20
183.073
 11
-7.21892
 21
183.027
  0
LINE
  8
0
 10
-7.21892
 20
183.027
 11
-7.40581
 21
183.003
  0
LINE
  8
0
 10
-7.40581
 20
183.003
 11
-7.59418
 21
183.003
  0
ENDSEC
  0
SECTION
  2
OBJECTS
  0
DICTIONARY
  0
ENDSEC
  0
EOF
