  0
SECTION
  2
BLOCKS
  0
ENDSEC
  0
SECTION
  2
ENTITIES
  0
LINE
  8
0
 10
22
 20
207.5
 11
21.9606
 21
208.127
  0
LINE
  8
0
 10
21.9606
 20
208.127
 11
21.8429
 21
208.743
  0
LINE
  8
0
 10
21.8429
 20
208.743
 11
21.6489
 21
209.341
  0
LINE
  8
0
 10
21.6489
 20
209.341
 11
21.3815
 21
209.909
  0
LINE
  8
0
 10
21.3815
 20
209.909
 11
21.0451
 21
210.439
  0
LINE
  8
0
 10
21.0451
 20
210.439
 11
20.6448
 21
210.923
  0
LINE
  8
0
 10
20.6448
 20
210.923
 11
20.1871
 21
211.353
  0
LINE
  8
0
 10
20.1871
 20
211.353
 11
19.6791
 21
211.722
  0
LINE
  8
0
 10
19.6791
 20
211.722
 11
19.1289
 21
212.024
  0
LINE
  8
0
 10
19.1289
 20
212.024
 11
18.5451
 21
212.255
  0
LINE
  8
0
 10
18.5451
 20
212.255
 11
17.9369
 21
212.411
  0
LINE
  8
0
 10
17.9369
 20
212.411
 11
17.3139
 21
212.49
  0
LINE
  8
0
 10
17.3139
 20
212.49
 11
-17.3139
 21
212.49
  0
LINE
  8
0
 10
-17.3139
 20
212.49
 11
-17.9369
 21
212.411
  0
LINE
  8
0
 10
-17.9369
 20
212.411
 11
-18.5451
 21
212.255
  0
LINE
  8
0
 10
-18.5451
 20
212.255
 11
-19.1289
 21
212.024
  0
LINE
  8
0
 10
-19.1289
 20
212.024
 11
-19.6791
 21
211.722
  0
LINE
  8
0
 10
-19.6791
 20
211.722
 11
-20.1871
 21
211.353
  0
LINE
  8
0
 10
-20.1871
 20
211.353
 11
-20.6448
 21
210.923
  0
LINE
  8
0
 10
-20.6448
 20
210.923
 11
-21.0451
 21
210.439
  0
LINE
  8
0
 10
-21.0451
 20
210.439
 11
-21.3815
 21
209.909
  0
LINE
  8
0
 10
-21.3815
 20
209.909
 11
-21.6489
 21
209.341
  0
LINE
  8
0
 10
-21.6489
 20
209.341
 11
-21.8429
 21
208.743
  0
LINE
  8
0
 10
-21.8429
 20
208.743
 11
-21.9606
 21
208.127
  0
LINE
  8
0
 10
-21.9606
 20
208.127
 11
-22
 21
207.5
  0
LINE
  8
0
 10
-22
 20
207.5
 11
-22
 21
162
  0
LINE
  8
0
 10
-22
 20
162
 11
22
 21
162
  0
LINE
  8
0
 10
22
 20
162
 11
22
 21
207.5
  0
LINE
  8
0
 10
14.8116
 20
202.506
 11
14.4379
 21
202.553
  0
LINE
  8
0
 10
14.4379
 20
202.553
 11
14.0729
 21
202.647
  0
LINE
  8
0
 10
14.0729
 20
202.647
 11
13.7227
 21
202.786
  0
LINE
  8
0
 10
13.7227
 20
202.786
 11
13.3925
 21
202.967
  0
LINE
  8
0
 10
13.3925
 20
202.967
 11
13.0877
 21
203.188
  0
LINE
  8
0
 10
13.0877
 20
203.188
 11
12.8131
 21
203.446
  0
LINE
  8
0
 10
12.8131
 20
203.446
 11
12.5729
 21
203.737
  0
LINE
  8
0
 10
12.5729
 20
203.737
 11
12.3711
 21
204.055
  0
LINE
  8
0
 10
12.3711
 20
204.055
 11
12.2107
 21
204.396
  0
LINE
  8
0
 10
12.2107
 20
204.396
 11
12.0942
 21
204.754
  0
LINE
  8
0
 10
12.0942
 20
204.754
 11
12.0237
 21
205.124
  0
LINE
  8
0
 10
12.0237
 20
205.124
 11
12
 21
205.5
  0
LINE
  8
0
 10
12
 20
205.5
 11
12.0237
 21
205.876
  0
LINE
  8
0
 10
12.0237
 20
205.876
 11
12.0942
 21
206.246
  0
LINE
  8
0
 10
12.0942
 20
206.246
 11
12.2107
 21
206.604
  0
LINE
  8
0
 10
12.2107
 20
206.604
 11
12.3711
 21
206.945
  0
LINE
  8
0
 10
12.3711
 20
206.945
 11
12.5729
 21
207.263
  0
LINE
  8
0
 10
12.5729
 20
207.263
 11
12.8131
 21
207.554
  0
LINE
  8
0
 10
12.8131
 20
207.554
 11
13.0877
 21
207.812
  0
LINE
  8
0
 10
13.0877
 20
207.812
 11
13.3925
 21
208.033
  0
LINE
  8
0
 10
13.3925
 20
208.033
 11
13.7227
 21
208.214
  0
LINE
  8
0
 10
13.7227
 20
208.214
 11
14.0729
 21
208.353
  0
LINE
  8
0
 10
14.0729
 20
208.353
 11
14.4379
 21
208.447
  0
LINE
  8
0
 10
14.4379
 20
208.447
 11
14.8116
 21
208.494
  0
LINE
  8
0
 10
14.8116
 20
208.494
 11
15.1884
 21
208.494
  0
LINE
  8
0
 10
15.1884
 20
208.494
 11
15.5621
 21
208.447
  0
LINE
  8
0
 10
15.5621
 20
208.447
 11
15.927
 21
208.353
  0
LINE
  8
0
 10
15.927
 20
208.353
 11
16.2773
 21
208.214
  0
LINE
  8
0
 10
16.2773
 20
208.214
 11
16.6075
 21
208.033
  0
LINE
  8
0
 10
16.6075
 20
208.033
 11
16.9123
 21
207.812
  0
LINE
  8
0
 10
16.9123
 20
207.812
 11
17.1869
 21
207.554
  0
LINE
  8
0
 10
17.1869
 20
207.554
 11
17.427
 21
207.263
  0
LINE
  8
0
 10
17.427
 20
207.263
 11
17.6289
 21
206.945
  0
LINE
  8
0
 10
17.6289
 20
206.945
 11
17.7893
 21
206.604
  0
LINE
  8
0
 10
17.7893
 20
206.604
 11
17.9057
 21
206.246
  0
LINE
  8
0
 10
17.9057
 20
206.246
 11
17.9763
 21
205.876
  0
LINE
  8
0
 10
17.9763
 20
205.876
 11
18
 21
205.5
  0
LINE
  8
0
 10
18
 20
205.5
 11
17.9763
 21
205.124
  0
LINE
  8
0
 10
17.9763
 20
205.124
 11
17.9057
 21
204.754
  0
LINE
  8
0
 10
17.9057
 20
204.754
 11
17.7893
 21
204.396
  0
LINE
  8
0
 10
17.7893
 20
204.396
 11
17.6289
 21
204.055
  0
LINE
  8
0
 10
17.6289
 20
204.055
 11
17.427
 21
203.737
  0
LINE
  8
0
 10
17.427
 20
203.737
 11
17.1869
 21
203.446
  0
LINE
  8
0
 10
17.1869
 20
203.446
 11
16.9123
 21
203.188
  0
LINE
  8
0
 10
16.9123
 20
203.188
 11
16.6075
 21
202.967
  0
LINE
  8
0
 10
16.6075
 20
202.967
 11
16.2773
 21
202.786
  0
LINE
  8
0
 10
16.2773
 20
202.786
 11
15.927
 21
202.647
  0
LINE
  8
0
 10
15.927
 20
202.647
 11
15.5621
 21
202.553
  0
LINE
  8
0
 10
15.5621
 20
202.553
 11
15.1884
 21
202.506
  0
LINE
  8
0
 10
15.1884
 20
202.506
 11
14.8116
 21
202.506
  0
LINE
  8
0
 10
-15.1884
 20
202.506
 11
-15.5621
 21
202.553
  0
LINE
  8
0
 10
-15.5621
 20
202.553
 11
-15.927
 21
202.647
  0
LINE
  8
0
 10
-15.927
 20
202.647
 11
-16.2773
 21
202.786
  0
LINE
  8
0
 10
-16.2773
 20
202.786
 11
-16.6075
 21
202.967
  0
LINE
  8
0
 10
-16.6075
 20
202.967
 11
-16.9123
 21
203.188
  0
LINE
  8
0
 10
-16.9123
 20
203.188
 11
-17.1869
 21
203.446
  0
LINE
  8
0
 10
-17.1869
 20
203.446
 11
-17.427
 21
203.737
  0
LINE
  8
0
 10
-17.427
 20
203.737
 11
-17.6289
 21
204.055
  0
LINE
  8
0
 10
-17.6289
 20
204.055
 11
-17.7893
 21
204.396
  0
LINE
  8
0
 10
-17.7893
 20
204.396
 11
-17.9057
 21
204.754
  0
LINE
  8
0
 10
-17.9057
 20
204.754
 11
-17.9763
 21
205.124
  0
LINE
  8
0
 10
-17.9763
 20
205.124
 11
-18
 21
205.5
  0
LINE
  8
0
 10
-18
 20
205.5
 11
-17.9763
 21
205.876
  0
LINE
  8
0
 10
-17.9763
 20
205.876
 11
-17.9057
 21
206.246
  0
LINE
  8
0
 10
-17.9057
 20
206.246
 11
-17.7893
 21
206.604
  0
LINE
  8
0
 10
-17.7893
 20
206.604
 11
-17.6289
 21
206.945
  0
LINE
  8
0
 10
-17.6289
 20
206.945
 11
-17.427
 21
207.263
  0
LINE
  8
0
 10
-17.427
 20
207.263
 11
-17.1869
 21
207.554
  0
LINE
  8
0
 10
-17.1869
 20
207.554
 11
-16.9123
 21
207.812
  0
LINE
  8
0
 10
-16.9123
 20
207.812
 11
-16.6075
 21
208.033
  0
LINE
  8
0
 10
-16.6075
 20
208.033
 11
-16.2773
 21
208.214
  0
LINE
  8
0
 10
-16.2773
 20
208.214
 11
-15.927
 21
208.353
  0
LINE
  8
0
 10
-15.927
 20
208.353
 11
-15.5621
 21
208.447
  0
LINE
  8
0
 10
-15.5621
 20
208.447
 11
-15.1884
 21
208.494
  0
LINE
  8
0
 10
-15.1884
 20
208.494
 11
-14.8116
 21
208.494
  0
LINE
  8
0
 10
-14.8116
 20
208.494
 11
-14.4379
 21
208.447
  0
LINE
  8
0
 10
-14.4379
 20
208.447
 11
-14.0729
 21
208.353
  0
LINE
  8
0
 10
-14.0729
 20
208.353
 11
-13.7227
 21
208.214
  0
LINE
  8
0
 10
-13.7227
 20
208.214
 11
-13.3925
 21
208.033
  0
LINE
  8
0
 10
-13.3925
 20
208.033
 11
-13.0877
 21
207.812
  0
LINE
  8
0
 10
-13.0877
 20
207.812
 11
-12.8131
 21
207.554
  0
LINE
  8
0
 10
-12.8131
 20
207.554
 11
-12.5729
 21
207.263
  0
LINE
  8
0
 10
-12.5729
 20
207.263
 11
-12.3711
 21
206.945
  0
LINE
  8
0
 10
-12.3711
 20
206.945
 11
-12.2107
 21
206.604
  0
LINE
  8
0
 10
-12.2107
 20
206.604
 11
-12.0942
 21
206.246
  0
LINE
  8
0
 10
-12.0942
 20
206.246
 11
-12.0237
 21
205.876
  0
LINE
  8
0
 10
-12.0237
 20
205.876
 11
-12
 21
205.5
  0
LINE
  8
0
 10
-12
 20
205.5
 11
-12.0237
 21
205.124
  0
LINE
  8
0
 10
-12.0237
 20
205.124
 11
-12.0942
 21
204.754
  0
LINE
  8
0
 10
-12.0942
 20
204.754
 11
-12.2107
 21
204.396
  0
LINE
  8
0
 10
-12.2107
 20
204.396
 11
-12.3711
 21
204.055
  0
LINE
  8
0
 10
-12.3711
 20
204.055
 11
-12.5729
 21
203.737
  0
LINE
  8
0
 10
-12.5729
 20
203.737
 11
-12.8131
 21
203.446
  0
LINE
  8
0
 10
-12.8131
 20
203.446
 11
-13.0877
 21
203.188
  0
LINE
  8
0
 10
-13.0877
 20
203.188
 11
-13.3925
 21
202.967
  0
LINE
  8
0
 10
-13.3925
 20
202.967
 11
-13.7227
 21
202.786
  0
LINE
  8
0
 10
-13.7227
 20
202.786
 11
-14.0729
 21
202.647
  0
LINE
  8
0
 10
-14.0729
 20
202.647
 11
-14.4379
 21
202.553
  0
LINE
  8
0
 10
-14.4379
 20
202.553
 11
-14.8116
 21
202.506
  0
LINE
  8
0
 10
-14.8116
 20
202.506
 11
-15.1884
 21
202.506
  0
LINE
  8
0
 10
-0.18837
 20
202.506
 11
-0.562134
 21
202.553
  0
LINE
  8
0
 10
-0.562134
 20
202.553
 11
-0.927048
 21
202.647
  0
LINE
  8
0
 10
-0.927048
 20
202.647
 11
-1.27733
 21
202.786
  0
LINE
  8
0
 10
-1.27733
 20
202.786
 11
-1.60747
 21
202.967
  0
LINE
  8
0
 10
-1.60747
 20
202.967
 11
-1.91226
 21
203.188
  0
LINE
  8
0
 10
-1.91226
 20
203.188
 11
-2.1869
 21
203.446
  0
LINE
  8
0
 10
-2.1869
 20
203.446
 11
-2.42705
 21
203.737
  0
LINE
  8
0
 10
-2.42705
 20
203.737
 11
-2.62891
 21
204.055
  0
LINE
  8
0
 10
-2.62891
 20
204.055
 11
-2.78932
 21
204.396
  0
LINE
  8
0
 10
-2.78932
 20
204.396
 11
-2.90575
 21
204.754
  0
LINE
  8
0
 10
-2.90575
 20
204.754
 11
-2.97633
 21
205.124
  0
LINE
  8
0
 10
-2.97633
 20
205.124
 11
-3
 21
205.5
  0
LINE
  8
0
 10
-3
 20
205.5
 11
-2.97633
 21
205.876
  0
LINE
  8
0
 10
-2.97633
 20
205.876
 11
-2.90575
 21
206.246
  0
LINE
  8
0
 10
-2.90575
 20
206.246
 11
-2.78932
 21
206.604
  0
LINE
  8
0
 10
-2.78932
 20
206.604
 11
-2.62891
 21
206.945
  0
LINE
  8
0
 10
-2.62891
 20
206.945
 11
-2.42705
 21
207.263
  0
LINE
  8
0
 10
-2.42705
 20
207.263
 11
-2.1869
 21
207.554
  0
LINE
  8
0
 10
-2.1869
 20
207.554
 11
-1.91226
 21
207.812
  0
LINE
  8
0
 10
-1.91226
 20
207.812
 11
-1.60747
 21
208.033
  0
LINE
  8
0
 10
-1.60747
 20
208.033
 11
-1.27733
 21
208.214
  0
LINE
  8
0
 10
-1.27733
 20
208.214
 11
-0.927048
 21
208.353
  0
LINE
  8
0
 10
-0.927048
 20
208.353
 11
-0.562134
 21
208.447
  0
LINE
  8
0
 10
-0.562134
 20
208.447
 11
-0.18837
 21
208.494
  0
LINE
  8
0
 10
-0.18837
 20
208.494
 11
0.18837
 21
208.494
  0
LINE
  8
0
 10
0.18837
 20
208.494
 11
0.562134
 21
208.447
  0
LINE
  8
0
 10
0.562134
 20
208.447
 11
0.927048
 21
208.353
  0
LINE
  8
0
 10
0.927048
 20
208.353
 11
1.27733
 21
208.214
  0
LINE
  8
0
 10
1.27733
 20
208.214
 11
1.60747
 21
208.033
  0
LINE
  8
0
 10
1.60747
 20
208.033
 11
1.91226
 21
207.812
  0
LINE
  8
0
 10
1.91226
 20
207.812
 11
2.1869
 21
207.554
  0
LINE
  8
0
 10
2.1869
 20
207.554
 11
2.42705
 21
207.263
  0
LINE
  8
0
 10
2.42705
 20
207.263
 11
2.62891
 21
206.945
  0
LINE
  8
0
 10
2.62891
 20
206.945
 11
2.78932
 21
206.604
  0
LINE
  8
0
 10
2.78932
 20
206.604
 11
2.90575
 21
206.246
  0
LINE
  8
0
 10
2.90575
 20
206.246
 11
2.97633
 21
205.876
  0
LINE
  8
0
 10
2.97633
 20
205.876
 11
3
 21
205.5
  0
LINE
  8
0
 10
3
 20
205.5
 11
2.97633
 21
205.124
  0
LINE
  8
0
 10
2.97633
 20
205.124
 11
2.90575
 21
204.754
  0
LINE
  8
0
 10
2.90575
 20
204.754
 11
2.78932
 21
204.396
  0
LINE
  8
0
 10
2.78932
 20
204.396
 11
2.62891
 21
204.055
  0
LINE
  8
0
 10
2.62891
 20
204.055
 11
2.42705
 21
203.737
  0
LINE
  8
0
 10
2.42705
 20
203.737
 11
2.1869
 21
203.446
  0
LINE
  8
0
 10
2.1869
 20
203.446
 11
1.91226
 21
203.188
  0
LINE
  8
0
 10
1.91226
 20
203.188
 11
1.60747
 21
202.967
  0
LINE
  8
0
 10
1.60747
 20
202.967
 11
1.27733
 21
202.786
  0
LINE
  8
0
 10
1.27733
 20
202.786
 11
0.927048
 21
202.647
  0
LINE
  8
0
 10
0.927048
 20
202.647
 11
0.562134
 21
202.553
  0
LINE
  8
0
 10
0.562134
 20
202.553
 11
0.18837
 21
202.506
  0
LINE
  8
0
 10
0.18837
 20
202.506
 11
-0.18837
 21
202.506
  0
LINE
  8
0
 10
14.8116
 20
187.506
 11
14.4379
 21
187.553
  0
LINE
  8
0
 10
14.4379
 20
187.553
 11
14.0729
 21
187.647
  0
LINE
  8
0
 10
14.0729
 20
187.647
 11
13.7227
 21
187.786
  0
LINE
  8
0
 10
13.7227
 20
187.786
 11
13.3925
 21
187.967
  0
LINE
  8
0
 10
13.3925
 20
187.967
 11
13.0877
 21
188.188
  0
LINE
  8
0
 10
13.0877
 20
188.188
 11
12.8131
 21
188.446
  0
LINE
  8
0
 10
12.8131
 20
188.446
 11
12.5729
 21
188.737
  0
LINE
  8
0
 10
12.5729
 20
188.737
 11
12.3711
 21
189.055
  0
LINE
  8
0
 10
12.3711
 20
189.055
 11
12.2107
 21
189.396
  0
LINE
  8
0
 10
12.2107
 20
189.396
 11
12.0942
 21
189.754
  0
LINE
  8
0
 10
12.0942
 20
189.754
 11
12.0237
 21
190.124
  0
LINE
  8
0
 10
12.0237
 20
190.124
 11
12
 21
190.5
  0
LINE
  8
0
 10
12
 20
190.5
 11
12.0237
 21
190.876
  0
LINE
  8
0
 10
12.0237
 20
190.876
 11
12.0942
 21
191.246
  0
LINE
  8
0
 10
12.0942
 20
191.246
 11
12.2107
 21
191.604
  0
LINE
  8
0
 10
12.2107
 20
191.604
 11
12.3711
 21
191.945
  0
LINE
  8
0
 10
12.3711
 20
191.945
 11
12.5729
 21
192.263
  0
LINE
  8
0
 10
12.5729
 20
192.263
 11
12.8131
 21
192.554
  0
LINE
  8
0
 10
12.8131
 20
192.554
 11
13.0877
 21
192.812
  0
LINE
  8
0
 10
13.0877
 20
192.812
 11
13.3925
 21
193.033
  0
LINE
  8
0
 10
13.3925
 20
193.033
 11
13.7227
 21
193.214
  0
LINE
  8
0
 10
13.7227
 20
193.214
 11
14.0729
 21
193.353
  0
LINE
  8
0
 10
14.0729
 20
193.353
 11
14.4379
 21
193.447
  0
LINE
  8
0
 10
14.4379
 20
193.447
 11
14.8116
 21
193.494
  0
LINE
  8
0
 10
14.8116
 20
193.494
 11
15.1884
 21
193.494
  0
LINE
  8
0
 10
15.1884
 20
193.494
 11
15.5621
 21
193.447
  0
LINE
  8
0
 10
15.5621
 20
193.447
 11
15.927
 21
193.353
  0
LINE
  8
0
 10
15.927
 20
193.353
 11
16.2773
 21
193.214
  0
LINE
  8
0
 10
16.2773
 20
193.214
 11
16.6075
 21
193.033
  0
LINE
  8
0
 10
16.6075
 20
193.033
 11
16.9123
 21
192.812
  0
LINE
  8
0
 10
16.9123
 20
192.812
 11
17.1869
 21
192.554
  0
LINE
  8
0
 10
17.1869
 20
192.554
 11
17.427
 21
192.263
  0
LINE
  8
0
 10
17.427
 20
192.263
 11
17.6289
 21
191.945
  0
LINE
  8
0
 10
17.6289
 20
191.945
 11
17.7893
 21
191.604
  0
LINE
  8
0
 10
17.7893
 20
191.604
 11
17.9057
 21
191.246
  0
LINE
  8
0
 10
17.9057
 20
191.246
 11
17.9763
 21
190.876
  0
LINE
  8
0
 10
17.9763
 20
190.876
 11
18
 21
190.5
  0
LINE
  8
0
 10
18
 20
190.5
 11
17.9763
 21
190.124
  0
LINE
  8
0
 10
17.9763
 20
190.124
 11
17.9057
 21
189.754
  0
LINE
  8
0
 10
17.9057
 20
189.754
 11
17.7893
 21
189.396
  0
LINE
  8
0
 10
17.7893
 20
189.396
 11
17.6289
 21
189.055
  0
LINE
  8
0
 10
17.6289
 20
189.055
 11
17.427
 21
188.737
  0
LINE
  8
0
 10
17.427
 20
188.737
 11
17.1869
 21
188.446
  0
LINE
  8
0
 10
17.1869
 20
188.446
 11
16.9123
 21
188.188
  0
LINE
  8
0
 10
16.9123
 20
188.188
 11
16.6075
 21
187.967
  0
LINE
  8
0
 10
16.6075
 20
187.967
 11
16.2773
 21
187.786
  0
LINE
  8
0
 10
16.2773
 20
187.786
 11
15.927
 21
187.647
  0
LINE
  8
0
 10
15.927
 20
187.647
 11
15.5621
 21
187.553
  0
LINE
  8
0
 10
15.5621
 20
187.553
 11
15.1884
 21
187.506
  0
LINE
  8
0
 10
15.1884
 20
187.506
 11
14.8116
 21
187.506
  0
LINE
  8
0
 10
-15.1884
 20
187.506
 11
-15.5621
 21
187.553
  0
LINE
  8
0
 10
-15.5621
 20
187.553
 11
-15.927
 21
187.647
  0
LINE
  8
0
 10
-15.927
 20
187.647
 11
-16.2773
 21
187.786
  0
LINE
  8
0
 10
-16.2773
 20
187.786
 11
-16.6075
 21
187.967
  0
LINE
  8
0
 10
-16.6075
 20
187.967
 11
-16.9123
 21
188.188
  0
LINE
  8
0
 10
-16.9123
 20
188.188
 11
-17.1869
 21
188.446
  0
LINE
  8
0
 10
-17.1869
 20
188.446
 11
-17.427
 21
188.737
  0
LINE
  8
0
 10
-17.427
 20
188.737
 11
-17.6289
 21
189.055
  0
LINE
  8
0
 10
-17.6289
 20
189.055
 11
-17.7893
 21
189.396
  0
LINE
  8
0
 10
-17.7893
 20
189.396
 11
-17.9057
 21
189.754
  0
LINE
  8
0
 10
-17.9057
 20
189.754
 11
-17.9763
 21
190.124
  0
LINE
  8
0
 10
-17.9763
 20
190.124
 11
-18
 21
190.5
  0
LINE
  8
0
 10
-18
 20
190.5
 11
-17.9763
 21
190.876
  0
LINE
  8
0
 10
-17.9763
 20
190.876
 11
-17.9057
 21
191.246
  0
LINE
  8
0
 10
-17.9057
 20
191.246
 11
-17.7893
 21
191.604
  0
LINE
  8
0
 10
-17.7893
 20
191.604
 11
-17.6289
 21
191.945
  0
LINE
  8
0
 10
-17.6289
 20
191.945
 11
-17.427
 21
192.263
  0
LINE
  8
0
 10
-17.427
 20
192.263
 11
-17.1869
 21
192.554
  0
LINE
  8
0
 10
-17.1869
 20
192.554
 11
-16.9123
 21
192.812
  0
LINE
  8
0
 10
-16.9123
 20
192.812
 11
-16.6075
 21
193.033
  0
LINE
  8
0
 10
-16.6075
 20
193.033
 11
-16.2773
 21
193.214
  0
LINE
  8
0
 10
-16.2773
 20
193.214
 11
-15.927
 21
193.353
  0
LINE
  8
0
 10
-15.927
 20
193.353
 11
-15.5621
 21
193.447
  0
LINE
  8
0
 10
-15.5621
 20
193.447
 11
-15.1884
 21
193.494
  0
LINE
  8
0
 10
-15.1884
 20
193.494
 11
-14.8116
 21
193.494
  0
LINE
  8
0
 10
-14.8116
 20
193.494
 11
-14.4379
 21
193.447
  0
LINE
  8
0
 10
-14.4379
 20
193.447
 11
-14.0729
 21
193.353
  0
LINE
  8
0
 10
-14.0729
 20
193.353
 11
-13.7227
 21
193.214
  0
LINE
  8
0
 10
-13.7227
 20
193.214
 11
-13.3925
 21
193.033
  0
LINE
  8
0
 10
-13.3925
 20
193.033
 11
-13.0877
 21
192.812
  0
LINE
  8
0
 10
-13.0877
 20
192.812
 11
-12.8131
 21
192.554
  0
LINE
  8
0
 10
-12.8131
 20
192.554
 11
-12.5729
 21
192.263
  0
LINE
  8
0
 10
-12.5729
 20
192.263
 11
-12.3711
 21
191.945
  0
LINE
  8
0
 10
-12.3711
 20
191.945
 11
-12.2107
 21
191.604
  0
LINE
  8
0
 10
-12.2107
 20
191.604
 11
-12.0942
 21
191.246
  0
LINE
  8
0
 10
-12.0942
 20
191.246
 11
-12.0237
 21
190.876
  0
LINE
  8
0
 10
-12.0237
 20
190.876
 11
-12
 21
190.5
  0
LINE
  8
0
 10
-12
 20
190.5
 11
-12.0237
 21
190.124
  0
LINE
  8
0
 10
-12.0237
 20
190.124
 11
-12.0942
 21
189.754
  0
LINE
  8
0
 10
-12.0942
 20
189.754
 11
-12.2107
 21
189.396
  0
LINE
  8
0
 10
-12.2107
 20
189.396
 11
-12.3711
 21
189.055
  0
LINE
  8
0
 10
-12.3711
 20
189.055
 11
-12.5729
 21
188.737
  0
LINE
  8
0
 10
-12.5729
 20
188.737
 11
-12.8131
 21
188.446
  0
LINE
  8
0
 10
-12.8131
 20
188.446
 11
-13.0877
 21
188.188
  0
LINE
  8
0
 10
-13.0877
 20
188.188
 11
-13.3925
 21
187.967
  0
LINE
  8
0
 10
-13.3925
 20
187.967
 11
-13.7227
 21
187.786
  0
LINE
  8
0
 10
-13.7227
 20
187.786
 11
-14.0729
 21
187.647
  0
LINE
  8
0
 10
-14.0729
 20
187.647
 11
-14.4379
 21
187.553
  0
LINE
  8
0
 10
-14.4379
 20
187.553
 11
-14.8116
 21
187.506
  0
LINE
  8
0
 10
-14.8116
 20
187.506
 11
-15.1884
 21
187.506
  0
LINE
  8
0
 10
-0.18837
 20
187.506
 11
-0.562134
 21
187.553
  0
LINE
  8
0
 10
-0.562134
 20
187.553
 11
-0.927048
 21
187.647
  0
LINE
  8
0
 10
-0.927048
 20
187.647
 11
-1.27733
 21
187.786
  0
LINE
  8
0
 10
-1.27733
 20
187.786
 11
-1.60747
 21
187.967
  0
LINE
  8
0
 10
-1.60747
 20
187.967
 11
-1.91226
 21
188.188
  0
LINE
  8
0
 10
-1.91226
 20
188.188
 11
-2.1869
 21
188.446
  0
LINE
  8
0
 10
-2.1869
 20
188.446
 11
-2.42705
 21
188.737
  0
LINE
  8
0
 10
-2.42705
 20
188.737
 11
-2.62891
 21
189.055
  0
LINE
  8
0
 10
-2.62891
 20
189.055
 11
-2.78932
 21
189.396
  0
LINE
  8
0
 10
-2.78932
 20
189.396
 11
-2.90575
 21
189.754
  0
LINE
  8
0
 10
-2.90575
 20
189.754
 11
-2.97633
 21
190.124
  0
LINE
  8
0
 10
-2.97633
 20
190.124
 11
-3
 21
190.5
  0
LINE
  8
0
 10
-3
 20
190.5
 11
-2.97633
 21
190.876
  0
LINE
  8
0
 10
-2.97633
 20
190.876
 11
-2.90575
 21
191.246
  0
LINE
  8
0
 10
-2.90575
 20
191.246
 11
-2.78932
 21
191.604
  0
LINE
  8
0
 10
-2.78932
 20
191.604
 11
-2.62891
 21
191.945
  0
LINE
  8
0
 10
-2.62891
 20
191.945
 11
-2.42705
 21
192.263
  0
LINE
  8
0
 10
-2.42705
 20
192.263
 11
-2.1869
 21
192.554
  0
LINE
  8
0
 10
-2.1869
 20
192.554
 11
-1.91226
 21
192.812
  0
LINE
  8
0
 10
-1.91226
 20
192.812
 11
-1.60747
 21
193.033
  0
LINE
  8
0
 10
-1.60747
 20
193.033
 11
-1.27733
 21
193.214
  0
LINE
  8
0
 10
-1.27733
 20
193.214
 11
-0.927048
 21
193.353
  0
LINE
  8
0
 10
-0.927048
 20
193.353
 11
-0.562134
 21
193.447
  0
LINE
  8
0
 10
-0.562134
 20
193.447
 11
-0.18837
 21
193.494
  0
LINE
  8
0
 10
-0.18837
 20
193.494
 11
0.18837
 21
193.494
  0
LINE
  8
0
 10
0.18837
 20
193.494
 11
0.562134
 21
193.447
  0
LINE
  8
0
 10
0.562134
 20
193.447
 11
0.927048
 21
193.353
  0
LINE
  8
0
 10
0.927048
 20
193.353
 11
1.27733
 21
193.214
  0
LINE
  8
0
 10
1.27733
 20
193.214
 11
1.60747
 21
193.033
  0
LINE
  8
0
 10
1.60747
 20
193.033
 11
1.91226
 21
192.812
  0
LINE
  8
0
 10
1.91226
 20
192.812
 11
2.1869
 21
192.554
  0
LINE
  8
0
 10
2.1869
 20
192.554
 11
2.42705
 21
192.263
  0
LINE
  8
0
 10
2.42705
 20
192.263
 11
2.62891
 21
191.945
  0
LINE
  8
0
 10
2.62891
 20
191.945
 11
2.78932
 21
191.604
  0
LINE
  8
0
 10
2.78932
 20
191.604
 11
2.90575
 21
191.246
  0
LINE
  8
0
 10
2.90575
 20
191.246
 11
2.97633
 21
190.876
  0
LINE
  8
0
 10
2.97633
 20
190.876
 11
3
 21
190.5
  0
LINE
  8
0
 10
3
 20
190.5
 11
2.97633
 21
190.124
  0
LINE
  8
0
 10
2.97633
 20
190.124
 11
2.90575
 21
189.754
  0
LINE
  8
0
 10
2.90575
 20
189.754
 11
2.78932
 21
189.396
  0
LINE
  8
0
 10
2.78932
 20
189.396
 11
2.62891
 21
189.055
  0
LINE
  8
0
 10
2.62891
 20
189.055
 11
2.42705
 21
188.737
  0
LINE
  8
0
 10
2.42705
 20
188.737
 11
2.1869
 21
188.446
  0
LINE
  8
0
 10
2.1869
 20
188.446
 11
1.91226
 21
188.188
  0
LINE
  8
0
 10
1.91226
 20
188.188
 11
1.60747
 21
187.967
  0
LINE
  8
0
 10
1.60747
 20
187.967
 11
1.27733
 21
187.786
  0
LINE
  8
0
 10
1.27733
 20
187.786
 11
0.927048
 21
187.647
  0
LINE
  8
0
 10
0.927048
 20
187.647
 11
0.562134
 21
187.553
  0
LINE
  8
0
 10
0.562134
 20
187.553
 11
0.18837
 21
187.506
  0
LINE
  8
0
 10
0.18837
 20
187.506
 11
-0.18837
 21
187.506
  0
LINE
  8
0
 10
4.75166
 20
173.913
 11
4.75166
 21
177.087
  0
LINE
  8
0
 10
4.75166
 20
177.087
 11
7.5
 21
178.673
  0
LINE
  8
0
 10
7.5
 20
178.673
 11
10.2483
 21
177.087
  0
LINE
  8
0
 10
10.2483
 20
177.087
 11
10.2483
 21
173.913
  0
LINE
  8
0
 10
10.2483
 20
173.913
 11
7.49998
 21
172.327
  0
LINE
  8
0
 10
7.49998
 20
172.327
 11
4.75166
 21
173.913
  0
LINE
  8
0
 10
-0.18837
 20
172.506
 11
-0.562134
 21
172.553
  0
LINE
  8
0
 10
-0.562134
 20
172.553
 11
-0.927048
 21
172.647
  0
LINE
  8
0
 10
-0.927048
 20
172.647
 11
-1.27733
 21
172.786
  0
LINE
  8
0
 10
-1.27733
 20
172.786
 11
-1.60747
 21
172.967
  0
LINE
  8
0
 10
-1.60747
 20
172.967
 11
-1.91226
 21
173.188
  0
LINE
  8
0
 10
-1.91226
 20
173.188
 11
-2.1869
 21
173.446
  0
LINE
  8
0
 10
-2.1869
 20
173.446
 11
-2.42705
 21
173.737
  0
LINE
  8
0
 10
-2.42705
 20
173.737
 11
-2.62891
 21
174.055
  0
LINE
  8
0
 10
-2.62891
 20
174.055
 11
-2.78932
 21
174.396
  0
LINE
  8
0
 10
-2.78932
 20
174.396
 11
-2.90575
 21
174.754
  0
LINE
  8
0
 10
-2.90575
 20
174.754
 11
-2.97633
 21
175.124
  0
LINE
  8
0
 10
-2.97633
 20
175.124
 11
-3
 21
175.5
  0
LINE
  8
0
 10
-3
 20
175.5
 11
-2.97633
 21
175.876
  0
LINE
  8
0
 10
-2.97633
 20
175.876
 11
-2.90575
 21
176.246
  0
LINE
  8
0
 10
-2.90575
 20
176.246
 11
-2.78932
 21
176.604
  0
LINE
  8
0
 10
-2.78932
 20
176.604
 11
-2.62891
 21
176.945
  0
LINE
  8
0
 10
-2.62891
 20
176.945
 11
-2.42705
 21
177.263
  0
LINE
  8
0
 10
-2.42705
 20
177.263
 11
-2.1869
 21
177.554
  0
LINE
  8
0
 10
-2.1869
 20
177.554
 11
-1.91226
 21
177.812
  0
LINE
  8
0
 10
-1.91226
 20
177.812
 11
-1.60747
 21
178.033
  0
LINE
  8
0
 10
-1.60747
 20
178.033
 11
-1.27733
 21
178.214
  0
LINE
  8
0
 10
-1.27733
 20
178.214
 11
-0.927048
 21
178.353
  0
LINE
  8
0
 10
-0.927048
 20
178.353
 11
-0.562134
 21
178.447
  0
LINE
  8
0
 10
-0.562134
 20
178.447
 11
-0.18837
 21
178.494
  0
LINE
  8
0
 10
-0.18837
 20
178.494
 11
0.18837
 21
178.494
  0
LINE
  8
0
 10
0.18837
 20
178.494
 11
0.562134
 21
178.447
  0
LINE
  8
0
 10
0.562134
 20
178.447
 11
0.927048
 21
178.353
  0
LINE
  8
0
 10
0.927048
 20
178.353
 11
1.27733
 21
178.214
  0
LINE
  8
0
 10
1.27733
 20
178.214
 11
1.60747
 21
178.033
  0
LINE
  8
0
 10
1.60747
 20
178.033
 11
1.91226
 21
177.812
  0
LINE
  8
0
 10
1.91226
 20
177.812
 11
2.1869
 21
177.554
  0
LINE
  8
0
 10
2.1869
 20
177.554
 11
2.42705
 21
177.263
  0
LINE
  8
0
 10
2.42705
 20
177.263
 11
2.62891
 21
176.945
  0
LINE
  8
0
 10
2.62891
 20
176.945
 11
2.78932
 21
176.604
  0
LINE
  8
0
 10
2.78932
 20
176.604
 11
2.90575
 21
176.246
  0
LINE
  8
0
 10
2.90575
 20
176.246
 11
2.97633
 21
175.876
  0
LINE
  8
0
 10
2.97633
 20
175.876
 11
3
 21
175.5
  0
LINE
  8
0
 10
3
 20
175.5
 11
2.97633
 21
175.124
  0
LINE
  8
0
 10
2.97633
 20
175.124
 11
2.90575
 21
174.754
  0
LINE
  8
0
 10
2.90575
 20
174.754
 11
2.78932
 21
174.396
  0
LINE
  8
0
 10
2.78932
 20
174.396
 11
2.62891
 21
174.055
  0
LINE
  8
0
 10
2.62891
 20
174.055
 11
2.42705
 21
173.737
  0
LINE
  8
0
 10
2.42705
 20
173.737
 11
2.1869
 21
173.446
  0
LINE
  8
0
 10
2.1869
 20
173.446
 11
1.91226
 21
173.188
  0
LINE
  8
0
 10
1.91226
 20
173.188
 11
1.60747
 21
172.967
  0
LINE
  8
0
 10
1.60747
 20
172.967
 11
1.27733
 21
172.786
  0
LINE
  8
0
 10
1.27733
 20
172.786
 11
0.927048
 21
172.647
  0
LINE
  8
0
 10
0.927048
 20
172.647
 11
0.562134
 21
172.553
  0
LINE
  8
0
 10
0.562134
 20
172.553
 11
0.18837
 21
172.506
  0
LINE
  8
0
 10
0.18837
 20
172.506
 11
-0.18837
 21
172.506
  0
LINE
  8
0
 10
-15.1884
 20
172.506
 11
-15.5621
 21
172.553
  0
LINE
  8
0
 10
-15.5621
 20
172.553
 11
-15.927
 21
172.647
  0
LINE
  8
0
 10
-15.927
 20
172.647
 11
-16.2773
 21
172.786
  0
LINE
  8
0
 10
-16.2773
 20
172.786
 11
-16.6075
 21
172.967
  0
LINE
  8
0
 10
-16.6075
 20
172.967
 11
-16.9123
 21
173.188
  0
LINE
  8
0
 10
-16.9123
 20
173.188
 11
-17.1869
 21
173.446
  0
LINE
  8
0
 10
-17.1869
 20
173.446
 11
-17.427
 21
173.737
  0
LINE
  8
0
 10
-17.427
 20
173.737
 11
-17.6289
 21
174.055
  0
LINE
  8
0
 10
-17.6289
 20
174.055
 11
-17.7893
 21
174.396
  0
LINE
  8
0
 10
-17.7893
 20
174.396
 11
-17.9057
 21
174.754
  0
LINE
  8
0
 10
-17.9057
 20
174.754
 11
-17.9763
 21
175.124
  0
LINE
  8
0
 10
-17.9763
 20
175.124
 11
-18
 21
175.5
  0
LINE
  8
0
 10
-18
 20
175.5
 11
-17.9763
 21
175.876
  0
LINE
  8
0
 10
-17.9763
 20
175.876
 11
-17.9057
 21
176.246
  0
LINE
  8
0
 10
-17.9057
 20
176.246
 11
-17.7893
 21
176.604
  0
LINE
  8
0
 10
-17.7893
 20
176.604
 11
-17.6289
 21
176.945
  0
LINE
  8
0
 10
-17.6289
 20
176.945
 11
-17.427
 21
177.263
  0
LINE
  8
0
 10
-17.427
 20
177.263
 11
-17.1869
 21
177.554
  0
LINE
  8
0
 10
-17.1869
 20
177.554
 11
-16.9123
 21
177.812
  0
LINE
  8
0
 10
-16.9123
 20
177.812
 11
-16.6075
 21
178.033
  0
LINE
  8
0
 10
-16.6075
 20
178.033
 11
-16.2773
 21
178.214
  0
LINE
  8
0
 10
-16.2773
 20
178.214
 11
-15.927
 21
178.353
  0
LINE
  8
0
 10
-15.927
 20
178.353
 11
-15.5621
 21
178.447
  0
LINE
  8
0
 10
-15.5621
 20
178.447
 11
-15.1884
 21
178.494
  0
LINE
  8
0
 10
-15.1884
 20
178.494
 11
-14.8116
 21
178.494
  0
LINE
  8
0
 10
-14.8116
 20
178.494
 11
-14.4379
 21
178.447
  0
LINE
  8
0
 10
-14.4379
 20
178.447
 11
-14.0729
 21
178.353
  0
LINE
  8
0
 10
-14.0729
 20
178.353
 11
-13.7227
 21
178.214
  0
LINE
  8
0
 10
-13.7227
 20
178.214
 11
-13.3925
 21
178.033
  0
LINE
  8
0
 10
-13.3925
 20
178.033
 11
-13.0877
 21
177.812
  0
LINE
  8
0
 10
-13.0877
 20
177.812
 11
-12.8131
 21
177.554
  0
LINE
  8
0
 10
-12.8131
 20
177.554
 11
-12.5729
 21
177.263
  0
LINE
  8
0
 10
-12.5729
 20
177.263
 11
-12.3711
 21
176.945
  0
LINE
  8
0
 10
-12.3711
 20
176.945
 11
-12.2107
 21
176.604
  0
LINE
  8
0
 10
-12.2107
 20
176.604
 11
-12.0942
 21
176.246
  0
LINE
  8
0
 10
-12.0942
 20
176.246
 11
-12.0237
 21
175.876
  0
LINE
  8
0
 10
-12.0237
 20
175.876
 11
-12
 21
175.5
  0
LINE
  8
0
 10
-12
 20
175.5
 11
-12.0237
 21
175.124
  0
LINE
  8
0
 10
-12.0237
 20
175.124
 11
-12.0942
 21
174.754
  0
LINE
  8
0
 10
-12.0942
 20
174.754
 11
-12.2107
 21
174.396
  0
LINE
  8
0
 10
-12.2107
 20
174.396
 11
-12.3711
 21
174.055
  0
LINE
  8
0
 10
-12.3711
 20
174.055
 11
-12.5729
 21
173.737
  0
LINE
  8
0
 10
-12.5729
 20
173.737
 11
-12.8131
 21
173.446
  0
LINE
  8
0
 10
-12.8131
 20
173.446
 11
-13.0877
 21
173.188
  0
LINE
  8
0
 10
-13.0877
 20
173.188
 11
-13.3925
 21
172.967
  0
LINE
  8
0
 10
-13.3925
 20
172.967
 11
-13.7227
 21
172.786
  0
LINE
  8
0
 10
-13.7227
 20
172.786
 11
-14.0729
 21
172.647
  0
LINE
  8
0
 10
-14.0729
 20
172.647
 11
-14.4379
 21
172.553
  0
LINE
  8
0
 10
-14.4379
 20
172.553
 11
-14.8116
 21
172.506
  0
LINE
  8
0
 10
-14.8116
 20
172.506
 11
-15.1884
 21
172.506
  0
LINE
  8
0
 10
14.8116
 20
172.506
 11
14.4379
 21
172.553
  0
LINE
  8
0
 10
14.4379
 20
172.553
 11
14.0729
 21
172.647
  0
LINE
  8
0
 10
14.0729
 20
172.647
 11
13.7227
 21
172.786
  0
LINE
  8
0
 10
13.7227
 20
172.786
 11
13.3925
 21
172.967
  0
LINE
  8
0
 10
13.3925
 20
172.967
 11
13.0877
 21
173.188
  0
LINE
  8
0
 10
13.0877
 20
173.188
 11
12.8131
 21
173.446
  0
LINE
  8
0
 10
12.8131
 20
173.446
 11
12.5729
 21
173.737
  0
LINE
  8
0
 10
12.5729
 20
173.737
 11
12.3711
 21
174.055
  0
LINE
  8
0
 10
12.3711
 20
174.055
 11
12.2107
 21
174.396
  0
LINE
  8
0
 10
12.2107
 20
174.396
 11
12.0942
 21
174.754
  0
LINE
  8
0
 10
12.0942
 20
174.754
 11
12.0237
 21
175.124
  0
LINE
  8
0
 10
12.0237
 20
175.124
 11
12
 21
175.5
  0
LINE
  8
0
 10
12
 20
175.5
 11
12.0237
 21
175.876
  0
LINE
  8
0
 10
12.0237
 20
175.876
 11
12.0942
 21
176.246
  0
LINE
  8
0
 10
12.0942
 20
176.246
 11
12.2107
 21
176.604
  0
LINE
  8
0
 10
12.2107
 20
176.604
 11
12.3711
 21
176.945
  0
LINE
  8
0
 10
12.3711
 20
176.945
 11
12.5729
 21
177.263
  0
LINE
  8
0
 10
12.5729
 20
177.263
 11
12.8131
 21
177.554
  0
LINE
  8
0
 10
12.8131
 20
177.554
 11
13.0877
 21
177.812
  0
LINE
  8
0
 10
13.0877
 20
177.812
 11
13.3925
 21
178.033
  0
LINE
  8
0
 10
13.3925
 20
178.033
 11
13.7227
 21
178.214
  0
LINE
  8
0
 10
13.7227
 20
178.214
 11
14.0729
 21
178.353
  0
LINE
  8
0
 10
14.0729
 20
178.353
 11
14.4379
 21
178.447
  0
LINE
  8
0
 10
14.4379
 20
178.447
 11
14.8116
 21
178.494
  0
LINE
  8
0
 10
14.8116
 20
178.494
 11
15.1884
 21
178.494
  0
LINE
  8
0
 10
15.1884
 20
178.494
 11
15.5621
 21
178.447
  0
LINE
  8
0
 10
15.5621
 20
178.447
 11
15.927
 21
178.353
  0
LINE
  8
0
 10
15.927
 20
178.353
 11
16.2773
 21
178.214
  0
LINE
  8
0
 10
16.2773
 20
178.214
 11
16.6075
 21
178.033
  0
LINE
  8
0
 10
16.6075
 20
178.033
 11
16.9123
 21
177.812
  0
LINE
  8
0
 10
16.9123
 20
177.812
 11
17.1869
 21
177.554
  0
LINE
  8
0
 10
17.1869
 20
177.554
 11
17.427
 21
177.263
  0
LINE
  8
0
 10
17.427
 20
177.263
 11
17.6289
 21
176.945
  0
LINE
  8
0
 10
17.6289
 20
176.945
 11
17.7893
 21
176.604
  0
LINE
  8
0
 10
17.7893
 20
176.604
 11
17.9057
 21
176.246
  0
LINE
  8
0
 10
17.9057
 20
176.246
 11
17.9763
 21
175.876
  0
LINE
  8
0
 10
17.9763
 20
175.876
 11
18
 21
175.5
  0
LINE
  8
0
 10
18
 20
175.5
 11
17.9763
 21
175.124
  0
LINE
  8
0
 10
17.9763
 20
175.124
 11
17.9057
 21
174.754
  0
LINE
  8
0
 10
17.9057
 20
174.754
 11
17.7893
 21
174.396
  0
LINE
  8
0
 10
17.7893
 20
174.396
 11
17.6289
 21
174.055
  0
LINE
  8
0
 10
17.6289
 20
174.055
 11
17.427
 21
173.737
  0
LINE
  8
0
 10
17.427
 20
173.737
 11
17.1869
 21
173.446
  0
LINE
  8
0
 10
17.1869
 20
173.446
 11
16.9123
 21
173.188
  0
LINE
  8
0
 10
16.9123
 20
173.188
 11
16.6075
 21
172.967
  0
LINE
  8
0
 10
16.6075
 20
172.967
 11
16.2773
 21
172.786
  0
LINE
  8
0
 10
16.2773
 20
172.786
 11
15.927
 21
172.647
  0
LINE
  8
0
 10
15.927
 20
172.647
 11
15.5621
 21
172.553
  0
LINE
  8
0
 10
15.5621
 20
172.553
 11
15.1884
 21
172.506
  0
LINE
  8
0
 10
15.1884
 20
172.506
 11
14.8116
 21
172.506
  0
LINE
  8
0
 10
-7.60452
 20
173.839
 11
-7.81192
 21
173.865
  0
LINE
  8
0
 10
-7.81192
 20
173.865
 11
-8.01442
 21
173.917
  0
LINE
  8
0
 10
-8.01442
 20
173.917
 11
-8.20879
 21
173.994
  0
LINE
  8
0
 10
-8.20879
 20
173.994
 11
-8.39198
 21
174.094
  0
LINE
  8
0
 10
-8.39198
 20
174.094
 11
-8.56111
 21
174.217
  0
LINE
  8
0
 10
-8.56111
 20
174.217
 11
-8.71352
 21
174.36
  0
LINE
  8
0
 10
-8.71352
 20
174.36
 11
-8.84677
 21
174.521
  0
LINE
  8
0
 10
-8.84677
 20
174.521
 11
-8.95879
 21
174.698
  0
LINE
  8
0
 10
-8.95879
 20
174.698
 11
-9.04779
 21
174.887
  0
LINE
  8
0
 10
-9.04779
 20
174.887
 11
-9.1124
 21
175.086
  0
LINE
  8
0
 10
-9.1124
 20
175.086
 11
-9.15157
 21
175.291
  0
LINE
  8
0
 10
-9.15157
 20
175.291
 11
-9.1647
 21
175.5
  0
LINE
  8
0
 10
-9.1647
 20
175.5
 11
-9.15157
 21
175.709
  0
LINE
  8
0
 10
-9.15157
 20
175.709
 11
-9.1124
 21
175.914
  0
LINE
  8
0
 10
-9.1124
 20
175.914
 11
-9.04779
 21
176.113
  0
LINE
  8
0
 10
-9.04779
 20
176.113
 11
-8.95879
 21
176.302
  0
LINE
  8
0
 10
-8.95879
 20
176.302
 11
-8.84677
 21
176.478
  0
LINE
  8
0
 10
-8.84677
 20
176.478
 11
-8.71352
 21
176.64
  0
LINE
  8
0
 10
-8.71352
 20
176.64
 11
-8.56111
 21
176.783
  0
LINE
  8
0
 10
-8.56111
 20
176.783
 11
-8.39198
 21
176.906
  0
LINE
  8
0
 10
-8.39198
 20
176.906
 11
-8.20879
 21
177.006
  0
LINE
  8
0
 10
-8.20879
 20
177.006
 11
-8.01442
 21
177.083
  0
LINE
  8
0
 10
-8.01442
 20
177.083
 11
-7.81192
 21
177.135
  0
LINE
  8
0
 10
-7.81192
 20
177.135
 11
-7.60452
 21
177.161
  0
LINE
  8
0
 10
-7.60452
 20
177.161
 11
-7.39546
 21
177.161
  0
LINE
  8
0
 10
-7.39546
 20
177.161
 11
-7.18806
 21
177.135
  0
LINE
  8
0
 10
-7.18806
 20
177.135
 11
-6.98557
 21
177.083
  0
LINE
  8
0
 10
-6.98557
 20
177.083
 11
-6.7912
 21
177.006
  0
LINE
  8
0
 10
-6.7912
 20
177.006
 11
-6.608
 21
176.906
  0
LINE
  8
0
 10
-6.608
 20
176.906
 11
-6.43887
 21
176.783
  0
LINE
  8
0
 10
-6.43887
 20
176.783
 11
-6.28647
 21
176.64
  0
LINE
  8
0
 10
-6.28647
 20
176.64
 11
-6.15321
 21
176.478
  0
LINE
  8
0
 10
-6.15321
 20
176.478
 11
-6.0412
 21
176.302
  0
LINE
  8
0
 10
-6.0412
 20
176.302
 11
-5.95219
 21
176.113
  0
LINE
  8
0
 10
-5.95219
 20
176.113
 11
-5.88759
 21
175.914
  0
LINE
  8
0
 10
-5.88759
 20
175.914
 11
-5.84842
 21
175.709
  0
LINE
  8
0
 10
-5.84842
 20
175.709
 11
-5.83528
 21
175.5
  0
LINE
  8
0
 10
-5.83528
 20
175.5
 11
-5.84842
 21
175.291
  0
LINE
  8
0
 10
-5.84842
 20
175.291
 11
-5.88759
 21
175.086
  0
LINE
  8
0
 10
-5.88759
 20
175.086
 11
-5.95219
 21
174.887
  0
LINE
  8
0
 10
-5.95219
 20
174.887
 11
-6.0412
 21
174.698
  0
LINE
  8
0
 10
-6.0412
 20
174.698
 11
-6.15321
 21
174.521
  0
LINE
  8
0
 10
-6.15321
 20
174.521
 11
-6.28647
 21
174.36
  0
LINE
  8
0
 10
-6.28647
 20
174.36
 11
-6.43887
 21
174.217
  0
LINE
  8
0
 10
-6.43887
 20
174.217
 11
-6.608
 21
174.094
  0
LINE
  8
0
 10
-6.608
 20
174.094
 11
-6.7912
 21
173.994
  0
LINE
  8
0
 10
-6.7912
 20
173.994
 11
-6.98557
 21
173.917
  0
LINE
  8
0
 10
-6.98557
 20
173.917
 11
-7.18806
 21
173.865
  0
LINE
  8
0
 10
-7.18806
 20
173.865
 11
-7.39546
 21
173.839
  0
LINE
  8
0
 10
-7.39546
 20
173.839
 11
-7.60452
 21
173.839
  0
LINE
  8
0
 10
-18.5142
 20
165.6
 11
-18.5142
 21
171
  0
LINE
  8
0
 10
-18.5142
 20
171
 11
-11.4858
 21
171
  0
LINE
  8
0
 10
-11.4858
 20
171
 11
-11.4858
 21
165.6
  0
LINE
  8
0
 10
-11.4858
 20
165.6
 11
-18.5142
 21
165.6
  0
LINE
  8
0
 10
11.4858
 20
165.6
 11
11.4858
 21
171
  0
LINE
  8
0
 10
11.4858
 20
171
 11
18.5142
 21
171
  0
LINE
  8
0
 10
18.5142
 20
171
 11
18.5142
 21
165.6
  0
LINE
  8
0
 10
18.5142
 20
165.6
 11
11.4858
 21
165.6
  0
LINE
  8
0
 10
-3.51418
 20
165.6
 11
-3.51418
 21
171
  0
LINE
  8
0
 10
-3.51418
 20
171
 11
3.51418
 21
171
  0
LINE
  8
0
 10
3.51418
 20
171
 11
3.51418
 21
165.6
  0
LINE
  8
0
 10
3.51418
 20
165.6
 11
-3.51418
 21
165.6
  0
LINE
  8
0
 10
-17.5307
 20
111.6
 11
-20.2462
 21
111.6
  0
LINE
  8
0
 10
-20.2462
 20
111.6
 11
-20.2462
 21
117
  0
LINE
  8
0
 10
-20.2462
 20
117
 11
-17.5307
 21
117
  0
LINE
  8
0
 10
-17.5307
 20
117
 11
-17.5307
 21
119.9
  0
LINE
  8
0
 10
-17.5307
 20
119.9
 11
-17.6289
 21
120.055
  0
LINE
  8
0
 10
-17.6289
 20
120.055
 11
-17.7893
 21
120.396
  0
LINE
  8
0
 10
-17.7893
 20
120.396
 11
-17.9057
 21
120.754
  0
LINE
  8
0
 10
-17.9057
 20
120.754
 11
-17.9763
 21
121.124
  0
LINE
  8
0
 10
-17.9763
 20
121.124
 11
-18
 21
121.5
  0
LINE
  8
0
 10
-18
 20
121.5
 11
-17.9763
 21
121.876
  0
LINE
  8
0
 10
-17.9763
 20
121.876
 11
-17.9057
 21
122.246
  0
LINE
  8
0
 10
-17.9057
 20
122.246
 11
-17.7893
 21
122.604
  0
LINE
  8
0
 10
-17.7893
 20
122.604
 11
-17.6289
 21
122.945
  0
LINE
  8
0
 10
-17.6289
 20
122.945
 11
-17.427
 21
123.263
  0
LINE
  8
0
 10
-17.427
 20
123.263
 11
-17.1869
 21
123.554
  0
LINE
  8
0
 10
-17.1869
 20
123.554
 11
-16.9123
 21
123.812
  0
LINE
  8
0
 10
-16.9123
 20
123.812
 11
-16.6075
 21
124.033
  0
LINE
  8
0
 10
-16.6075
 20
124.033
 11
-16.2773
 21
124.214
  0
LINE
  8
0
 10
-16.2773
 20
124.214
 11
-15.927
 21
124.353
  0
LINE
  8
0
 10
-15.927
 20
124.353
 11
-15.5621
 21
124.447
  0
LINE
  8
0
 10
-15.5621
 20
124.447
 11
-15.1884
 21
124.494
  0
LINE
  8
0
 10
-15.1884
 20
124.494
 11
-14.8116
 21
124.494
  0
LINE
  8
0
 10
-14.8116
 20
124.494
 11
-14.4379
 21
124.447
  0
LINE
  8
0
 10
-14.4379
 20
124.447
 11
-14.0729
 21
124.353
  0
LINE
  8
0
 10
-14.0729
 20
124.353
 11
-13.7227
 21
124.214
  0
LINE
  8
0
 10
-13.7227
 20
124.214
 11
-13.3925
 21
124.033
  0
LINE
  8
0
 10
-13.3925
 20
124.033
 11
-13.0877
 21
123.812
  0
LINE
  8
0
 10
-13.0877
 20
123.812
 11
-12.8131
 21
123.554
  0
LINE
  8
0
 10
-12.8131
 20
123.554
 11
-12.5729
 21
123.263
  0
LINE
  8
0
 10
-12.5729
 20
123.263
 11
-12.3711
 21
122.945
  0
LINE
  8
0
 10
-12.3711
 20
122.945
 11
-12.2107
 21
122.604
  0
LINE
  8
0
 10
-12.2107
 20
122.604
 11
-12.0942
 21
122.246
  0
LINE
  8
0
 10
-12.0942
 20
122.246
 11
-12.0237
 21
121.876
  0
LINE
  8
0
 10
-12.0237
 20
121.876
 11
-12
 21
121.5
  0
LINE
  8
0
 10
-12
 20
121.5
 11
-12.0237
 21
121.124
  0
LINE
  8
0
 10
-12.0237
 20
121.124
 11
-12.0942
 21
120.754
  0
LINE
  8
0
 10
-12.0942
 20
120.754
 11
-12.2107
 21
120.396
  0
LINE
  8
0
 10
-12.2107
 20
120.396
 11
-12.3711
 21
120.055
  0
LINE
  8
0
 10
-12.3711
 20
120.055
 11
-12.4693
 21
119.9
  0
LINE
  8
0
 10
-12.4693
 20
119.9
 11
-12.4693
 21
117
  0
LINE
  8
0
 10
-12.4693
 20
117
 11
-9.75375
 21
117
  0
LINE
  8
0
 10
-9.75375
 20
117
 11
-9.75375
 21
111.6
  0
LINE
  8
0
 10
-9.75375
 20
111.6
 11
-12.4693
 21
111.6
  0
LINE
  8
0
 10
-12.4693
 20
111.6
 11
-12.4693
 21
108
  0
LINE
  8
0
 10
-12.4693
 20
108
 11
-2.53072
 21
108
  0
LINE
  8
0
 10
-2.53072
 20
108
 11
-2.53072
 21
111.6
  0
LINE
  8
0
 10
-2.53072
 20
111.6
 11
-5.24623
 21
111.6
  0
LINE
  8
0
 10
-5.24623
 20
111.6
 11
-5.24623
 21
117
  0
LINE
  8
0
 10
-5.24623
 20
117
 11
-2.53072
 21
117
  0
LINE
  8
0
 10
-2.53072
 20
117
 11
-2.53072
 21
119.9
  0
LINE
  8
0
 10
-2.53072
 20
119.9
 11
-2.62891
 21
120.055
  0
LINE
  8
0
 10
-2.62891
 20
120.055
 11
-2.78932
 21
120.396
  0
LINE
  8
0
 10
-2.78932
 20
120.396
 11
-2.90575
 21
120.754
  0
LINE
  8
0
 10
-2.90575
 20
120.754
 11
-2.97633
 21
121.124
  0
LINE
  8
0
 10
-2.97633
 20
121.124
 11
-3
 21
121.5
  0
LINE
  8
0
 10
-3
 20
121.5
 11
-2.97633
 21
121.876
  0
LINE
  8
0
 10
-2.97633
 20
121.876
 11
-2.90575
 21
122.246
  0
LINE
  8
0
 10
-2.90575
 20
122.246
 11
-2.78932
 21
122.604
  0
LINE
  8
0
 10
-2.78932
 20
122.604
 11
-2.62891
 21
122.945
  0
LINE
  8
0
 10
-2.62891
 20
122.945
 11
-2.42705
 21
123.263
  0
LINE
  8
0
 10
-2.42705
 20
123.263
 11
-2.1869
 21
123.554
  0
LINE
  8
0
 10
-2.1869
 20
123.554
 11
-1.91226
 21
123.812
  0
LINE
  8
0
 10
-1.91226
 20
123.812
 11
-1.60747
 21
124.033
  0
LINE
  8
0
 10
-1.60747
 20
124.033
 11
-1.27733
 21
124.214
  0
LINE
  8
0
 10
-1.27733
 20
124.214
 11
-0.927048
 21
124.353
  0
LINE
  8
0
 10
-0.927048
 20
124.353
 11
-0.562134
 21
124.447
  0
LINE
  8
0
 10
-0.562134
 20
124.447
 11
-0.18837
 21
124.494
  0
LINE
  8
0
 10
-0.18837
 20
124.494
 11
0.18837
 21
124.494
  0
LINE
  8
0
 10
0.18837
 20
124.494
 11
0.562134
 21
124.447
  0
LINE
  8
0
 10
0.562134
 20
124.447
 11
0.927048
 21
124.353
  0
LINE
  8
0
 10
0.927048
 20
124.353
 11
1.27733
 21
124.214
  0
LINE
  8
0
 10
1.27733
 20
124.214
 11
1.60747
 21
124.033
  0
LINE
  8
0
 10
1.60747
 20
124.033
 11
1.91226
 21
123.812
  0
LINE
  8
0
 10
1.91226
 20
123.812
 11
2.1869
 21
123.554
  0
LINE
  8
0
 10
2.1869
 20
123.554
 11
2.42705
 21
123.263
  0
LINE
  8
0
 10
2.42705
 20
123.263
 11
2.62891
 21
122.945
  0
LINE
  8
0
 10
2.62891
 20
122.945
 11
2.78932
 21
122.604
  0
LINE
  8
0
 10
2.78932
 20
122.604
 11
2.90575
 21
122.246
  0
LINE
  8
0
 10
2.90575
 20
122.246
 11
2.97633
 21
121.876
  0
LINE
  8
0
 10
2.97633
 20
121.876
 11
3
 21
121.5
  0
LINE
  8
0
 10
3
 20
121.5
 11
2.97633
 21
121.124
  0
LINE
  8
0
 10
2.97633
 20
121.124
 11
2.90575
 21
120.754
  0
LINE
  8
0
 10
2.90575
 20
120.754
 11
2.78932
 21
120.396
  0
LINE
  8
0
 10
2.78932
 20
120.396
 11
2.62891
 21
120.055
  0
LINE
  8
0
 10
2.62891
 20
120.055
 11
2.53072
 21
119.9
  0
LINE
  8
0
 10
2.53072
 20
119.9
 11
2.53072
 21
117
  0
LINE
  8
0
 10
2.53072
 20
117
 11
5.24623
 21
117
  0
LINE
  8
0
 10
5.24623
 20
117
 11
5.24623
 21
111.6
  0
LINE
  8
0
 10
5.24623
 20
111.6
 11
2.53072
 21
111.6
  0
LINE
  8
0
 10
2.53072
 20
111.6
 11
2.53072
 21
108
  0
LINE
  8
0
 10
2.53072
 20
108
 11
12.4693
 21
108
  0
LINE
  8
0
 10
12.4693
 20
108
 11
12.4693
 21
111.6
  0
LINE
  8
0
 10
12.4693
 20
111.6
 11
9.75375
 21
111.6
  0
LINE
  8
0
 10
9.75375
 20
111.6
 11
9.75375
 21
117
  0
LINE
  8
0
 10
9.75375
 20
117
 11
12.4693
 21
117
  0
LINE
  8
0
 10
12.4693
 20
117
 11
12.4693
 21
119.9
  0
LINE
  8
0
 10
12.4693
 20
119.9
 11
12.3711
 21
120.055
  0
LINE
  8
0
 10
12.3711
 20
120.055
 11
12.2107
 21
120.396
  0
LINE
  8
0
 10
12.2107
 20
120.396
 11
12.0942
 21
120.754
  0
LINE
  8
0
 10
12.0942
 20
120.754
 11
12.0237
 21
121.124
  0
LINE
  8
0
 10
12.0237
 20
121.124
 11
12
 21
121.5
  0
LINE
  8
0
 10
12
 20
121.5
 11
12.0237
 21
121.876
  0
LINE
  8
0
 10
12.0237
 20
121.876
 11
12.0942
 21
122.246
  0
LINE
  8
0
 10
12.0942
 20
122.246
 11
12.2107
 21
122.604
  0
LINE
  8
0
 10
12.2107
 20
122.604
 11
12.3711
 21
122.945
  0
LINE
  8
0
 10
12.3711
 20
122.945
 11
12.5729
 21
123.263
  0
LINE
  8
0
 10
12.5729
 20
123.263
 11
12.8131
 21
123.554
  0
LINE
  8
0
 10
12.8131
 20
123.554
 11
13.0877
 21
123.812
  0
LINE
  8
0
 10
13.0877
 20
123.812
 11
13.3925
 21
124.033
  0
LINE
  8
0
 10
13.3925
 20
124.033
 11
13.7227
 21
124.214
  0
LINE
  8
0
 10
13.7227
 20
124.214
 11
14.0729
 21
124.353
  0
LINE
  8
0
 10
14.0729
 20
124.353
 11
14.4379
 21
124.447
  0
LINE
  8
0
 10
14.4379
 20
124.447
 11
14.8116
 21
124.494
  0
LINE
  8
0
 10
14.8116
 20
124.494
 11
15.1884
 21
124.494
  0
LINE
  8
0
 10
15.1884
 20
124.494
 11
15.5621
 21
124.447
  0
LINE
  8
0
 10
15.5621
 20
124.447
 11
15.927
 21
124.353
  0
LINE
  8
0
 10
15.927
 20
124.353
 11
16.2773
 21
124.214
  0
LINE
  8
0
 10
16.2773
 20
124.214
 11
16.6075
 21
124.033
  0
LINE
  8
0
 10
16.6075
 20
124.033
 11
16.9123
 21
123.812
  0
LINE
  8
0
 10
16.9123
 20
123.812
 11
17.1869
 21
123.554
  0
LINE
  8
0
 10
17.1869
 20
123.554
 11
17.427
 21
123.263
  0
LINE
  8
0
 10
17.427
 20
123.263
 11
17.6289
 21
122.945
  0
LINE
  8
0
 10
17.6289
 20
122.945
 11
17.7893
 21
122.604
  0
LINE
  8
0
 10
17.7893
 20
122.604
 11
17.9057
 21
122.246
  0
LINE
  8
0
 10
17.9057
 20
122.246
 11
17.9763
 21
121.876
  0
LINE
  8
0
 10
17.9763
 20
121.876
 11
18
 21
121.5
  0
LINE
  8
0
 10
18
 20
121.5
 11
17.9763
 21
121.124
  0
LINE
  8
0
 10
17.9763
 20
121.124
 11
17.9057
 21
120.754
  0
LINE
  8
0
 10
17.9057
 20
120.754
 11
17.7893
 21
120.396
  0
LINE
  8
0
 10
17.7893
 20
120.396
 11
17.6289
 21
120.055
  0
LINE
  8
0
 10
17.6289
 20
120.055
 11
17.5307
 21
119.9
  0
LINE
  8
0
 10
17.5307
 20
119.9
 11
17.5307
 21
117
  0
LINE
  8
0
 10
17.5307
 20
117
 11
20.2462
 21
117
  0
LINE
  8
0
 10
20.2462
 20
117
 11
20.2462
 21
111.6
  0
LINE
  8
0
 10
20.2462
 20
111.6
 11
17.5307
 21
111.6
  0
LINE
  8
0
 10
17.5307
 20
111.6
 11
17.5307
 21
108
  0
LINE
  8
0
 10
17.5307
 20
108
 11
22
 21
108
  0
LINE
  8
0
 10
22
 20
108
 11
22
 21
153.5
  0
LINE
  8
0
 10
22
 20
153.5
 11
21.9606
 21
154.127
  0
LINE
  8
0
 10
21.9606
 20
154.127
 11
21.8429
 21
154.743
  0
LINE
  8
0
 10
21.8429
 20
154.743
 11
21.6489
 21
155.341
  0
LINE
  8
0
 10
21.6489
 20
155.341
 11
21.3815
 21
155.909
  0
LINE
  8
0
 10
21.3815
 20
155.909
 11
21.0451
 21
156.439
  0
LINE
  8
0
 10
21.0451
 20
156.439
 11
20.6448
 21
156.923
  0
LINE
  8
0
 10
20.6448
 20
156.923
 11
20.1871
 21
157.353
  0
LINE
  8
0
 10
20.1871
 20
157.353
 11
19.6791
 21
157.722
  0
LINE
  8
0
 10
19.6791
 20
157.722
 11
19.1289
 21
158.024
  0
LINE
  8
0
 10
19.1289
 20
158.024
 11
18.5451
 21
158.255
  0
LINE
  8
0
 10
18.5451
 20
158.255
 11
17.9369
 21
158.411
  0
LINE
  8
0
 10
17.9369
 20
158.411
 11
17.3139
 21
158.49
  0
LINE
  8
0
 10
17.3139
 20
158.49
 11
-17.3139
 21
158.49
  0
LINE
  8
0
 10
-17.3139
 20
158.49
 11
-17.9369
 21
158.411
  0
LINE
  8
0
 10
-17.9369
 20
158.411
 11
-18.5451
 21
158.255
  0
LINE
  8
0
 10
-18.5451
 20
158.255
 11
-19.1289
 21
158.024
  0
LINE
  8
0
 10
-19.1289
 20
158.024
 11
-19.6791
 21
157.722
  0
LINE
  8
0
 10
-19.6791
 20
157.722
 11
-20.1871
 21
157.353
  0
LINE
  8
0
 10
-20.1871
 20
157.353
 11
-20.6448
 21
156.923
  0
LINE
  8
0
 10
-20.6448
 20
156.923
 11
-21.0451
 21
156.439
  0
LINE
  8
0
 10
-21.0451
 20
156.439
 11
-21.3815
 21
155.909
  0
LINE
  8
0
 10
-21.3815
 20
155.909
 11
-21.6489
 21
155.341
  0
LINE
  8
0
 10
-21.6489
 20
155.341
 11
-21.8429
 21
154.743
  0
LINE
  8
0
 10
-21.8429
 20
154.743
 11
-21.9606
 21
154.127
  0
LINE
  8
0
 10
-21.9606
 20
154.127
 11
-22
 21
153.5
  0
LINE
  8
0
 10
-22
 20
153.5
 11
-22
 21
108
  0
LINE
  8
0
 10
-22
 20
108
 11
-17.5307
 21
108
  0
LINE
  8
0
 10
-17.5307
 20
108
 11
-17.5307
 21
111.6
  0
LINE
  8
0
 10
-0.18837
 20
148.506
 11
-0.562134
 21
148.553
  0
LINE
  8
0
 10
-0.562134
 20
148.553
 11
-0.927048
 21
148.647
  0
LINE
  8
0
 10
-0.927048
 20
148.647
 11
-1.27733
 21
148.786
  0
LINE
  8
0
 10
-1.27733
 20
148.786
 11
-1.60747
 21
148.967
  0
LINE
  8
0
 10
-1.60747
 20
148.967
 11
-1.91226
 21
149.188
  0
LINE
  8
0
 10
-1.91226
 20
149.188
 11
-2.1869
 21
149.446
  0
LINE
  8
0
 10
-2.1869
 20
149.446
 11
-2.42705
 21
149.737
  0
LINE
  8
0
 10
-2.42705
 20
149.737
 11
-2.62891
 21
150.055
  0
LINE
  8
0
 10
-2.62891
 20
150.055
 11
-2.78932
 21
150.396
  0
LINE
  8
0
 10
-2.78932
 20
150.396
 11
-2.90575
 21
150.754
  0
LINE
  8
0
 10
-2.90575
 20
150.754
 11
-2.97633
 21
151.124
  0
LINE
  8
0
 10
-2.97633
 20
151.124
 11
-3
 21
151.5
  0
LINE
  8
0
 10
-3
 20
151.5
 11
-2.97633
 21
151.876
  0
LINE
  8
0
 10
-2.97633
 20
151.876
 11
-2.90575
 21
152.246
  0
LINE
  8
0
 10
-2.90575
 20
152.246
 11
-2.78932
 21
152.604
  0
LINE
  8
0
 10
-2.78932
 20
152.604
 11
-2.62891
 21
152.945
  0
LINE
  8
0
 10
-2.62891
 20
152.945
 11
-2.42705
 21
153.263
  0
LINE
  8
0
 10
-2.42705
 20
153.263
 11
-2.1869
 21
153.554
  0
LINE
  8
0
 10
-2.1869
 20
153.554
 11
-1.91226
 21
153.812
  0
LINE
  8
0
 10
-1.91226
 20
153.812
 11
-1.60747
 21
154.033
  0
LINE
  8
0
 10
-1.60747
 20
154.033
 11
-1.27733
 21
154.214
  0
LINE
  8
0
 10
-1.27733
 20
154.214
 11
-0.927048
 21
154.353
  0
LINE
  8
0
 10
-0.927048
 20
154.353
 11
-0.562134
 21
154.447
  0
LINE
  8
0
 10
-0.562134
 20
154.447
 11
-0.18837
 21
154.494
  0
LINE
  8
0
 10
-0.18837
 20
154.494
 11
0.18837
 21
154.494
  0
LINE
  8
0
 10
0.18837
 20
154.494
 11
0.562134
 21
154.447
  0
LINE
  8
0
 10
0.562134
 20
154.447
 11
0.927048
 21
154.353
  0
LINE
  8
0
 10
0.927048
 20
154.353
 11
1.27733
 21
154.214
  0
LINE
  8
0
 10
1.27733
 20
154.214
 11
1.60747
 21
154.033
  0
LINE
  8
0
 10
1.60747
 20
154.033
 11
1.91226
 21
153.812
  0
LINE
  8
0
 10
1.91226
 20
153.812
 11
2.1869
 21
153.554
  0
LINE
  8
0
 10
2.1869
 20
153.554
 11
2.42705
 21
153.263
  0
LINE
  8
0
 10
2.42705
 20
153.263
 11
2.62891
 21
152.945
  0
LINE
  8
0
 10
2.62891
 20
152.945
 11
2.78932
 21
152.604
  0
LINE
  8
0
 10
2.78932
 20
152.604
 11
2.90575
 21
152.246
  0
LINE
  8
0
 10
2.90575
 20
152.246
 11
2.97633
 21
151.876
  0
LINE
  8
0
 10
2.97633
 20
151.876
 11
3
 21
151.5
  0
LINE
  8
0
 10
3
 20
151.5
 11
2.97633
 21
151.124
  0
LINE
  8
0
 10
2.97633
 20
151.124
 11
2.90575
 21
150.754
  0
LINE
  8
0
 10
2.90575
 20
150.754
 11
2.78932
 21
150.396
  0
LINE
  8
0
 10
2.78932
 20
150.396
 11
2.62891
 21
150.055
  0
LINE
  8
0
 10
2.62891
 20
150.055
 11
2.42705
 21
149.737
  0
LINE
  8
0
 10
2.42705
 20
149.737
 11
2.1869
 21
149.446
  0
LINE
  8
0
 10
2.1869
 20
149.446
 11
1.91226
 21
149.188
  0
LINE
  8
0
 10
1.91226
 20
149.188
 11
1.60747
 21
148.967
  0
LINE
  8
0
 10
1.60747
 20
148.967
 11
1.27733
 21
148.786
  0
LINE
  8
0
 10
1.27733
 20
148.786
 11
0.927048
 21
148.647
  0
LINE
  8
0
 10
0.927048
 20
148.647
 11
0.562134
 21
148.553
  0
LINE
  8
0
 10
0.562134
 20
148.553
 11
0.18837
 21
148.506
  0
LINE
  8
0
 10
0.18837
 20
148.506
 11
-0.18837
 21
148.506
  0
LINE
  8
0
 10
14.8116
 20
148.506
 11
14.4379
 21
148.553
  0
LINE
  8
0
 10
14.4379
 20
148.553
 11
14.0729
 21
148.647
  0
LINE
  8
0
 10
14.0729
 20
148.647
 11
13.7227
 21
148.786
  0
LINE
  8
0
 10
13.7227
 20
148.786
 11
13.3925
 21
148.967
  0
LINE
  8
0
 10
13.3925
 20
148.967
 11
13.0877
 21
149.188
  0
LINE
  8
0
 10
13.0877
 20
149.188
 11
12.8131
 21
149.446
  0
LINE
  8
0
 10
12.8131
 20
149.446
 11
12.5729
 21
149.737
  0
LINE
  8
0
 10
12.5729
 20
149.737
 11
12.3711
 21
150.055
  0
LINE
  8
0
 10
12.3711
 20
150.055
 11
12.2107
 21
150.396
  0
LINE
  8
0
 10
12.2107
 20
150.396
 11
12.0942
 21
150.754
  0
LINE
  8
0
 10
12.0942
 20
150.754
 11
12.0237
 21
151.124
  0
LINE
  8
0
 10
12.0237
 20
151.124
 11
12
 21
151.5
  0
LINE
  8
0
 10
12
 20
151.5
 11
12.0237
 21
151.876
  0
LINE
  8
0
 10
12.0237
 20
151.876
 11
12.0942
 21
152.246
  0
LINE
  8
0
 10
12.0942
 20
152.246
 11
12.2107
 21
152.604
  0
LINE
  8
0
 10
12.2107
 20
152.604
 11
12.3711
 21
152.945
  0
LINE
  8
0
 10
12.3711
 20
152.945
 11
12.5729
 21
153.263
  0
LINE
  8
0
 10
12.5729
 20
153.263
 11
12.8131
 21
153.554
  0
LINE
  8
0
 10
12.8131
 20
153.554
 11
13.0877
 21
153.812
  0
LINE
  8
0
 10
13.0877
 20
153.812
 11
13.3925
 21
154.033
  0
LINE
  8
0
 10
13.3925
 20
154.033
 11
13.7227
 21
154.214
  0
LINE
  8
0
 10
13.7227
 20
154.214
 11
14.0729
 21
154.353
  0
LINE
  8
0
 10
14.0729
 20
154.353
 11
14.4379
 21
154.447
  0
LINE
  8
0
 10
14.4379
 20
154.447
 11
14.8116
 21
154.494
  0
LINE
  8
0
 10
14.8116
 20
154.494
 11
15.1884
 21
154.494
  0
LINE
  8
0
 10
15.1884
 20
154.494
 11
15.5621
 21
154.447
  0
LINE
  8
0
 10
15.5621
 20
154.447
 11
15.927
 21
154.353
  0
LINE
  8
0
 10
15.927
 20
154.353
 11
16.2773
 21
154.214
  0
LINE
  8
0
 10
16.2773
 20
154.214
 11
16.6075
 21
154.033
  0
LINE
  8
0
 10
16.6075
 20
154.033
 11
16.9123
 21
153.812
  0
LINE
  8
0
 10
16.9123
 20
153.812
 11
17.1869
 21
153.554
  0
LINE
  8
0
 10
17.1869
 20
153.554
 11
17.427
 21
153.263
  0
LINE
  8
0
 10
17.427
 20
153.263
 11
17.6289
 21
152.945
  0
LINE
  8
0
 10
17.6289
 20
152.945
 11
17.7893
 21
152.604
  0
LINE
  8
0
 10
17.7893
 20
152.604
 11
17.9057
 21
152.246
  0
LINE
  8
0
 10
17.9057
 20
152.246
 11
17.9763
 21
151.876
  0
LINE
  8
0
 10
17.9763
 20
151.876
 11
18
 21
151.5
  0
LINE
  8
0
 10
18
 20
151.5
 11
17.9763
 21
151.124
  0
LINE
  8
0
 10
17.9763
 20
151.124
 11
17.9057
 21
150.754
  0
LINE
  8
0
 10
17.9057
 20
150.754
 11
17.7893
 21
150.396
  0
LINE
  8
0
 10
17.7893
 20
150.396
 11
17.6289
 21
150.055
  0
LINE
  8
0
 10
17.6289
 20
150.055
 11
17.427
 21
149.737
  0
LINE
  8
0
 10
17.427
 20
149.737
 11
17.1869
 21
149.446
  0
LINE
  8
0
 10
17.1869
 20
149.446
 11
16.9123
 21
149.188
  0
LINE
  8
0
 10
16.9123
 20
149.188
 11
16.6075
 21
148.967
  0
LINE
  8
0
 10
16.6075
 20
148.967
 11
16.2773
 21
148.786
  0
LINE
  8
0
 10
16.2773
 20
148.786
 11
15.927
 21
148.647
  0
LINE
  8
0
 10
15.927
 20
148.647
 11
15.5621
 21
148.553
  0
LINE
  8
0
 10
15.5621
 20
148.553
 11
15.1884
 21
148.506
  0
LINE
  8
0
 10
15.1884
 20
148.506
 11
14.8116
 21
148.506
  0
LINE
  8
0
 10
-15.1884
 20
148.506
 11
-15.5621
 21
148.553
  0
LINE
  8
0
 10
-15.5621
 20
148.553
 11
-15.927
 21
148.647
  0
LINE
  8
0
 10
-15.927
 20
148.647
 11
-16.2773
 21
148.786
  0
LINE
  8
0
 10
-16.2773
 20
148.786
 11
-16.6075
 21
148.967
  0
LINE
  8
0
 10
-16.6075
 20
148.967
 11
-16.9123
 21
149.188
  0
LINE
  8
0
 10
-16.9123
 20
149.188
 11
-17.1869
 21
149.446
  0
LINE
  8
0
 10
-17.1869
 20
149.446
 11
-17.427
 21
149.737
  0
LINE
  8
0
 10
-17.427
 20
149.737
 11
-17.6289
 21
150.055
  0
LINE
  8
0
 10
-17.6289
 20
150.055
 11
-17.7893
 21
150.396
  0
LINE
  8
0
 10
-17.7893
 20
150.396
 11
-17.9057
 21
150.754
  0
LINE
  8
0
 10
-17.9057
 20
150.754
 11
-17.9763
 21
151.124
  0
LINE
  8
0
 10
-17.9763
 20
151.124
 11
-18
 21
151.5
  0
LINE
  8
0
 10
-18
 20
151.5
 11
-17.9763
 21
151.876
  0
LINE
  8
0
 10
-17.9763
 20
151.876
 11
-17.9057
 21
152.246
  0
LINE
  8
0
 10
-17.9057
 20
152.246
 11
-17.7893
 21
152.604
  0
LINE
  8
0
 10
-17.7893
 20
152.604
 11
-17.6289
 21
152.945
  0
LINE
  8
0
 10
-17.6289
 20
152.945
 11
-17.427
 21
153.263
  0
LINE
  8
0
 10
-17.427
 20
153.263
 11
-17.1869
 21
153.554
  0
LINE
  8
0
 10
-17.1869
 20
153.554
 11
-16.9123
 21
153.812
  0
LINE
  8
0
 10
-16.9123
 20
153.812
 11
-16.6075
 21
154.033
  0
LINE
  8
0
 10
-16.6075
 20
154.033
 11
-16.2773
 21
154.214
  0
LINE
  8
0
 10
-16.2773
 20
154.214
 11
-15.927
 21
154.353
  0
LINE
  8
0
 10
-15.927
 20
154.353
 11
-15.5621
 21
154.447
  0
LINE
  8
0
 10
-15.5621
 20
154.447
 11
-15.1884
 21
154.494
  0
LINE
  8
0
 10
-15.1884
 20
154.494
 11
-14.8116
 21
154.494
  0
LINE
  8
0
 10
-14.8116
 20
154.494
 11
-14.4379
 21
154.447
  0
LINE
  8
0
 10
-14.4379
 20
154.447
 11
-14.0729
 21
154.353
  0
LINE
  8
0
 10
-14.0729
 20
154.353
 11
-13.7227
 21
154.214
  0
LINE
  8
0
 10
-13.7227
 20
154.214
 11
-13.3925
 21
154.033
  0
LINE
  8
0
 10
-13.3925
 20
154.033
 11
-13.0877
 21
153.812
  0
LINE
  8
0
 10
-13.0877
 20
153.812
 11
-12.8131
 21
153.554
  0
LINE
  8
0
 10
-12.8131
 20
153.554
 11
-12.5729
 21
153.263
  0
LINE
  8
0
 10
-12.5729
 20
153.263
 11
-12.3711
 21
152.945
  0
LINE
  8
0
 10
-12.3711
 20
152.945
 11
-12.2107
 21
152.604
  0
LINE
  8
0
 10
-12.2107
 20
152.604
 11
-12.0942
 21
152.246
  0
LINE
  8
0
 10
-12.0942
 20
152.246
 11
-12.0237
 21
151.876
  0
LINE
  8
0
 10
-12.0237
 20
151.876
 11
-12
 21
151.5
  0
LINE
  8
0
 10
-12
 20
151.5
 11
-12.0237
 21
151.124
  0
LINE
  8
0
 10
-12.0237
 20
151.124
 11
-12.0942
 21
150.754
  0
LINE
  8
0
 10
-12.0942
 20
150.754
 11
-12.2107
 21
150.396
  0
LINE
  8
0
 10
-12.2107
 20
150.396
 11
-12.3711
 21
150.055
  0
LINE
  8
0
 10
-12.3711
 20
150.055
 11
-12.5729
 21
149.737
  0
LINE
  8
0
 10
-12.5729
 20
149.737
 11
-12.8131
 21
149.446
  0
LINE
  8
0
 10
-12.8131
 20
149.446
 11
-13.0877
 21
149.188
  0
LINE
  8
0
 10
-13.0877
 20
149.188
 11
-13.3925
 21
148.967
  0
LINE
  8
0
 10
-13.3925
 20
148.967
 11
-13.7227
 21
148.786
  0
LINE
  8
0
 10
-13.7227
 20
148.786
 11
-14.0729
 21
148.647
  0
LINE
  8
0
 10
-14.0729
 20
148.647
 11
-14.4379
 21
148.553
  0
LINE
  8
0
 10
-14.4379
 20
148.553
 11
-14.8116
 21
148.506
  0
LINE
  8
0
 10
-14.8116
 20
148.506
 11
-15.1884
 21
148.506
  0
LINE
  8
0
 10
14.8116
 20
133.506
 11
14.4379
 21
133.553
  0
LINE
  8
0
 10
14.4379
 20
133.553
 11
14.0729
 21
133.647
  0
LINE
  8
0
 10
14.0729
 20
133.647
 11
13.7227
 21
133.786
  0
LINE
  8
0
 10
13.7227
 20
133.786
 11
13.3925
 21
133.967
  0
LINE
  8
0
 10
13.3925
 20
133.967
 11
13.0877
 21
134.188
  0
LINE
  8
0
 10
13.0877
 20
134.188
 11
12.8131
 21
134.446
  0
LINE
  8
0
 10
12.8131
 20
134.446
 11
12.5729
 21
134.737
  0
LINE
  8
0
 10
12.5729
 20
134.737
 11
12.3711
 21
135.055
  0
LINE
  8
0
 10
12.3711
 20
135.055
 11
12.2107
 21
135.396
  0
LINE
  8
0
 10
12.2107
 20
135.396
 11
12.0942
 21
135.754
  0
LINE
  8
0
 10
12.0942
 20
135.754
 11
12.0237
 21
136.124
  0
LINE
  8
0
 10
12.0237
 20
136.124
 11
12
 21
136.5
  0
LINE
  8
0
 10
12
 20
136.5
 11
12.0237
 21
136.876
  0
LINE
  8
0
 10
12.0237
 20
136.876
 11
12.0942
 21
137.246
  0
LINE
  8
0
 10
12.0942
 20
137.246
 11
12.2107
 21
137.604
  0
LINE
  8
0
 10
12.2107
 20
137.604
 11
12.3711
 21
137.945
  0
LINE
  8
0
 10
12.3711
 20
137.945
 11
12.5729
 21
138.263
  0
LINE
  8
0
 10
12.5729
 20
138.263
 11
12.8131
 21
138.554
  0
LINE
  8
0
 10
12.8131
 20
138.554
 11
13.0877
 21
138.812
  0
LINE
  8
0
 10
13.0877
 20
138.812
 11
13.3925
 21
139.033
  0
LINE
  8
0
 10
13.3925
 20
139.033
 11
13.7227
 21
139.214
  0
LINE
  8
0
 10
13.7227
 20
139.214
 11
14.0729
 21
139.353
  0
LINE
  8
0
 10
14.0729
 20
139.353
 11
14.4379
 21
139.447
  0
LINE
  8
0
 10
14.4379
 20
139.447
 11
14.8116
 21
139.494
  0
LINE
  8
0
 10
14.8116
 20
139.494
 11
15.1884
 21
139.494
  0
LINE
  8
0
 10
15.1884
 20
139.494
 11
15.5621
 21
139.447
  0
LINE
  8
0
 10
15.5621
 20
139.447
 11
15.927
 21
139.353
  0
LINE
  8
0
 10
15.927
 20
139.353
 11
16.2773
 21
139.214
  0
LINE
  8
0
 10
16.2773
 20
139.214
 11
16.6075
 21
139.033
  0
LINE
  8
0
 10
16.6075
 20
139.033
 11
16.9123
 21
138.812
  0
LINE
  8
0
 10
16.9123
 20
138.812
 11
17.1869
 21
138.554
  0
LINE
  8
0
 10
17.1869
 20
138.554
 11
17.427
 21
138.263
  0
LINE
  8
0
 10
17.427
 20
138.263
 11
17.6289
 21
137.945
  0
LINE
  8
0
 10
17.6289
 20
137.945
 11
17.7893
 21
137.604
  0
LINE
  8
0
 10
17.7893
 20
137.604
 11
17.9057
 21
137.246
  0
LINE
  8
0
 10
17.9057
 20
137.246
 11
17.9763
 21
136.876
  0
LINE
  8
0
 10
17.9763
 20
136.876
 11
18
 21
136.5
  0
LINE
  8
0
 10
18
 20
136.5
 11
17.9763
 21
136.124
  0
LINE
  8
0
 10
17.9763
 20
136.124
 11
17.9057
 21
135.754
  0
LINE
  8
0
 10
17.9057
 20
135.754
 11
17.7893
 21
135.396
  0
LINE
  8
0
 10
17.7893
 20
135.396
 11
17.6289
 21
135.055
  0
LINE
  8
0
 10
17.6289
 20
135.055
 11
17.427
 21
134.737
  0
LINE
  8
0
 10
17.427
 20
134.737
 11
17.1869
 21
134.446
  0
LINE
  8
0
 10
17.1869
 20
134.446
 11
16.9123
 21
134.188
  0
LINE
  8
0
 10
16.9123
 20
134.188
 11
16.6075
 21
133.967
  0
LINE
  8
0
 10
16.6075
 20
133.967
 11
16.2773
 21
133.786
  0
LINE
  8
0
 10
16.2773
 20
133.786
 11
15.927
 21
133.647
  0
LINE
  8
0
 10
15.927
 20
133.647
 11
15.5621
 21
133.553
  0
LINE
  8
0
 10
15.5621
 20
133.553
 11
15.1884
 21
133.506
  0
LINE
  8
0
 10
15.1884
 20
133.506
 11
14.8116
 21
133.506
  0
LINE
  8
0
 10
-0.18837
 20
133.506
 11
-0.562134
 21
133.553
  0
LINE
  8
0
 10
-0.562134
 20
133.553
 11
-0.927048
 21
133.647
  0
LINE
  8
0
 10
-0.927048
 20
133.647
 11
-1.27733
 21
133.786
  0
LINE
  8
0
 10
-1.27733
 20
133.786
 11
-1.60747
 21
133.967
  0
LINE
  8
0
 10
-1.60747
 20
133.967
 11
-1.91226
 21
134.188
  0
LINE
  8
0
 10
-1.91226
 20
134.188
 11
-2.1869
 21
134.446
  0
LINE
  8
0
 10
-2.1869
 20
134.446
 11
-2.42705
 21
134.737
  0
LINE
  8
0
 10
-2.42705
 20
134.737
 11
-2.62891
 21
135.055
  0
LINE
  8
0
 10
-2.62891
 20
135.055
 11
-2.78932
 21
135.396
  0
LINE
  8
0
 10
-2.78932
 20
135.396
 11
-2.90575
 21
135.754
  0
LINE
  8
0
 10
-2.90575
 20
135.754
 11
-2.97633
 21
136.124
  0
LINE
  8
0
 10
-2.97633
 20
136.124
 11
-3
 21
136.5
  0
LINE
  8
0
 10
-3
 20
136.5
 11
-2.97633
 21
136.876
  0
LINE
  8
0
 10
-2.97633
 20
136.876
 11
-2.90575
 21
137.246
  0
LINE
  8
0
 10
-2.90575
 20
137.246
 11
-2.78932
 21
137.604
  0
LINE
  8
0
 10
-2.78932
 20
137.604
 11
-2.62891
 21
137.945
  0
LINE
  8
0
 10
-2.62891
 20
137.945
 11
-2.42705
 21
138.263
  0
LINE
  8
0
 10
-2.42705
 20
138.263
 11
-2.1869
 21
138.554
  0
LINE
  8
0
 10
-2.1869
 20
138.554
 11
-1.91226
 21
138.812
  0
LINE
  8
0
 10
-1.91226
 20
138.812
 11
-1.60747
 21
139.033
  0
LINE
  8
0
 10
-1.60747
 20
139.033
 11
-1.27733
 21
139.214
  0
LINE
  8
0
 10
-1.27733
 20
139.214
 11
-0.927048
 21
139.353
  0
LINE
  8
0
 10
-0.927048
 20
139.353
 11
-0.562134
 21
139.447
  0
LINE
  8
0
 10
-0.562134
 20
139.447
 11
-0.18837
 21
139.494
  0
LINE
  8
0
 10
-0.18837
 20
139.494
 11
0.18837
 21
139.494
  0
LINE
  8
0
 10
0.18837
 20
139.494
 11
0.562134
 21
139.447
  0
LINE
  8
0
 10
0.562134
 20
139.447
 11
0.927048
 21
139.353
  0
LINE
  8
0
 10
0.927048
 20
139.353
 11
1.27733
 21
139.214
  0
LINE
  8
0
 10
1.27733
 20
139.214
 11
1.60747
 21
139.033
  0
LINE
  8
0
 10
1.60747
 20
139.033
 11
1.91226
 21
138.812
  0
LINE
  8
0
 10
1.91226
 20
138.812
 11
2.1869
 21
138.554
  0
LINE
  8
0
 10
2.1869
 20
138.554
 11
2.42705
 21
138.263
  0
LINE
  8
0
 10
2.42705
 20
138.263
 11
2.62891
 21
137.945
  0
LINE
  8
0
 10
2.62891
 20
137.945
 11
2.78932
 21
137.604
  0
LINE
  8
0
 10
2.78932
 20
137.604
 11
2.90575
 21
137.246
  0
LINE
  8
0
 10
2.90575
 20
137.246
 11
2.97633
 21
136.876
  0
LINE
  8
0
 10
2.97633
 20
136.876
 11
3
 21
136.5
  0
LINE
  8
0
 10
3
 20
136.5
 11
2.97633
 21
136.124
  0
LINE
  8
0
 10
2.97633
 20
136.124
 11
2.90575
 21
135.754
  0
LINE
  8
0
 10
2.90575
 20
135.754
 11
2.78932
 21
135.396
  0
LINE
  8
0
 10
2.78932
 20
135.396
 11
2.62891
 21
135.055
  0
LINE
  8
0
 10
2.62891
 20
135.055
 11
2.42705
 21
134.737
  0
LINE
  8
0
 10
2.42705
 20
134.737
 11
2.1869
 21
134.446
  0
LINE
  8
0
 10
2.1869
 20
134.446
 11
1.91226
 21
134.188
  0
LINE
  8
0
 10
1.91226
 20
134.188
 11
1.60747
 21
133.967
  0
LINE
  8
0
 10
1.60747
 20
133.967
 11
1.27733
 21
133.786
  0
LINE
  8
0
 10
1.27733
 20
133.786
 11
0.927048
 21
133.647
  0
LINE
  8
0
 10
0.927048
 20
133.647
 11
0.562134
 21
133.553
  0
LINE
  8
0
 10
0.562134
 20
133.553
 11
0.18837
 21
133.506
  0
LINE
  8
0
 10
0.18837
 20
133.506
 11
-0.18837
 21
133.506
  0
LINE
  8
0
 10
-15.1884
 20
133.506
 11
-15.5621
 21
133.553
  0
LINE
  8
0
 10
-15.5621
 20
133.553
 11
-15.927
 21
133.647
  0
LINE
  8
0
 10
-15.927
 20
133.647
 11
-16.2773
 21
133.786
  0
LINE
  8
0
 10
-16.2773
 20
133.786
 11
-16.6075
 21
133.967
  0
LINE
  8
0
 10
-16.6075
 20
133.967
 11
-16.9123
 21
134.188
  0
LINE
  8
0
 10
-16.9123
 20
134.188
 11
-17.1869
 21
134.446
  0
LINE
  8
0
 10
-17.1869
 20
134.446
 11
-17.427
 21
134.737
  0
LINE
  8
0
 10
-17.427
 20
134.737
 11
-17.6289
 21
135.055
  0
LINE
  8
0
 10
-17.6289
 20
135.055
 11
-17.7893
 21
135.396
  0
LINE
  8
0
 10
-17.7893
 20
135.396
 11
-17.9057
 21
135.754
  0
LINE
  8
0
 10
-17.9057
 20
135.754
 11
-17.9763
 21
136.124
  0
LINE
  8
0
 10
-17.9763
 20
136.124
 11
-18
 21
136.5
  0
LINE
  8
0
 10
-18
 20
136.5
 11
-17.9763
 21
136.876
  0
LINE
  8
0
 10
-17.9763
 20
136.876
 11
-17.9057
 21
137.246
  0
LINE
  8
0
 10
-17.9057
 20
137.246
 11
-17.7893
 21
137.604
  0
LINE
  8
0
 10
-17.7893
 20
137.604
 11
-17.6289
 21
137.945
  0
LINE
  8
0
 10
-17.6289
 20
137.945
 11
-17.427
 21
138.263
  0
LINE
  8
0
 10
-17.427
 20
138.263
 11
-17.1869
 21
138.554
  0
LINE
  8
0
 10
-17.1869
 20
138.554
 11
-16.9123
 21
138.812
  0
LINE
  8
0
 10
-16.9123
 20
138.812
 11
-16.6075
 21
139.033
  0
LINE
  8
0
 10
-16.6075
 20
139.033
 11
-16.2773
 21
139.214
  0
LINE
  8
0
 10
-16.2773
 20
139.214
 11
-15.927
 21
139.353
  0
LINE
  8
0
 10
-15.927
 20
139.353
 11
-15.5621
 21
139.447
  0
LINE
  8
0
 10
-15.5621
 20
139.447
 11
-15.1884
 21
139.494
  0
LINE
  8
0
 10
-15.1884
 20
139.494
 11
-14.8116
 21
139.494
  0
LINE
  8
0
 10
-14.8116
 20
139.494
 11
-14.4379
 21
139.447
  0
LINE
  8
0
 10
-14.4379
 20
139.447
 11
-14.0729
 21
139.353
  0
LINE
  8
0
 10
-14.0729
 20
139.353
 11
-13.7227
 21
139.214
  0
LINE
  8
0
 10
-13.7227
 20
139.214
 11
-13.3925
 21
139.033
  0
LINE
  8
0
 10
-13.3925
 20
139.033
 11
-13.0877
 21
138.812
  0
LINE
  8
0
 10
-13.0877
 20
138.812
 11
-12.8131
 21
138.554
  0
LINE
  8
0
 10
-12.8131
 20
138.554
 11
-12.5729
 21
138.263
  0
LINE
  8
0
 10
-12.5729
 20
138.263
 11
-12.3711
 21
137.945
  0
LINE
  8
0
 10
-12.3711
 20
137.945
 11
-12.2107
 21
137.604
  0
LINE
  8
0
 10
-12.2107
 20
137.604
 11
-12.0942
 21
137.246
  0
LINE
  8
0
 10
-12.0942
 20
137.246
 11
-12.0237
 21
136.876
  0
LINE
  8
0
 10
-12.0237
 20
136.876
 11
-12
 21
136.5
  0
LINE
  8
0
 10
-12
 20
136.5
 11
-12.0237
 21
136.124
  0
LINE
  8
0
 10
-12.0237
 20
136.124
 11
-12.0942
 21
135.754
  0
LINE
  8
0
 10
-12.0942
 20
135.754
 11
-12.2107
 21
135.396
  0
LINE
  8
0
 10
-12.2107
 20
135.396
 11
-12.3711
 21
135.055
  0
LINE
  8
0
 10
-12.3711
 20
135.055
 11
-12.5729
 21
134.737
  0
LINE
  8
0
 10
-12.5729
 20
134.737
 11
-12.8131
 21
134.446
  0
LINE
  8
0
 10
-12.8131
 20
134.446
 11
-13.0877
 21
134.188
  0
LINE
  8
0
 10
-13.0877
 20
134.188
 11
-13.3925
 21
133.967
  0
LINE
  8
0
 10
-13.3925
 20
133.967
 11
-13.7227
 21
133.786
  0
LINE
  8
0
 10
-13.7227
 20
133.786
 11
-14.0729
 21
133.647
  0
LINE
  8
0
 10
-14.0729
 20
133.647
 11
-14.4379
 21
133.553
  0
LINE
  8
0
 10
-14.4379
 20
133.553
 11
-14.8116
 21
133.506
  0
LINE
  8
0
 10
-14.8116
 20
133.506
 11
-15.1884
 21
133.506
  0
LINE
  8
0
 10
7.40581
 20
120.003
 11
7.21892
 21
120.027
  0
LINE
  8
0
 10
7.21892
 20
120.027
 11
7.03647
 21
120.073
  0
LINE
  8
0
 10
7.03647
 20
120.073
 11
6.86133
 21
120.143
  0
LINE
  8
0
 10
6.86133
 20
120.143
 11
6.69626
 21
120.234
  0
LINE
  8
0
 10
6.69626
 20
120.234
 11
6.54385
 21
120.344
  0
LINE
  8
0
 10
6.54385
 20
120.344
 11
6.40654
 21
120.473
  0
LINE
  8
0
 10
6.40654
 20
120.473
 11
6.28647
 21
120.618
  0
LINE
  8
0
 10
6.28647
 20
120.618
 11
6.18553
 21
120.777
  0
LINE
  8
0
 10
6.18553
 20
120.777
 11
6.10533
 21
120.948
  0
LINE
  8
0
 10
6.10533
 20
120.948
 11
6.04712
 21
121.127
  0
LINE
  8
0
 10
6.04712
 20
121.127
 11
6.01183
 21
121.312
  0
LINE
  8
0
 10
6.01183
 20
121.312
 11
6
 21
121.5
  0
LINE
  8
0
 10
6
 20
121.5
 11
6.01183
 21
121.688
  0
LINE
  8
0
 10
6.01183
 20
121.688
 11
6.04712
 21
121.873
  0
LINE
  8
0
 10
6.04712
 20
121.873
 11
6.10533
 21
122.052
  0
LINE
  8
0
 10
6.10533
 20
122.052
 11
6.18553
 21
122.223
  0
LINE
  8
0
 10
6.18553
 20
122.223
 11
6.28647
 21
122.382
  0
LINE
  8
0
 10
6.28647
 20
122.382
 11
6.40654
 21
122.527
  0
LINE
  8
0
 10
6.40654
 20
122.527
 11
6.54385
 21
122.656
  0
LINE
  8
0
 10
6.54385
 20
122.656
 11
6.69626
 21
122.766
  0
LINE
  8
0
 10
6.69626
 20
122.766
 11
6.86133
 21
122.857
  0
LINE
  8
0
 10
6.86133
 20
122.857
 11
7.03647
 21
122.927
  0
LINE
  8
0
 10
7.03647
 20
122.927
 11
7.21892
 21
122.973
  0
LINE
  8
0
 10
7.21892
 20
122.973
 11
7.40581
 21
122.997
  0
LINE
  8
0
 10
7.40581
 20
122.997
 11
7.59418
 21
122.997
  0
LINE
  8
0
 10
7.59418
 20
122.997
 11
7.78107
 21
122.973
  0
LINE
  8
0
 10
7.78107
 20
122.973
 11
7.96352
 21
122.927
  0
LINE
  8
0
 10
7.96352
 20
122.927
 11
8.13866
 21
122.857
  0
LINE
  8
0
 10
8.13866
 20
122.857
 11
8.30373
 21
122.766
  0
LINE
  8
0
 10
8.30373
 20
122.766
 11
8.45613
 21
122.656
  0
LINE
  8
0
 10
8.45613
 20
122.656
 11
8.59344
 21
122.527
  0
LINE
  8
0
 10
8.59344
 20
122.527
 11
8.71352
 21
122.382
  0
LINE
  8
0
 10
8.71352
 20
122.382
 11
8.81445
 21
122.223
  0
LINE
  8
0
 10
8.81445
 20
122.223
 11
8.89465
 21
122.052
  0
LINE
  8
0
 10
8.89465
 20
122.052
 11
8.95287
 21
121.873
  0
LINE
  8
0
 10
8.95287
 20
121.873
 11
8.98816
 21
121.688
  0
LINE
  8
0
 10
8.98816
 20
121.688
 11
9
 21
121.5
  0
LINE
  8
0
 10
9
 20
121.5
 11
8.98816
 21
121.312
  0
LINE
  8
0
 10
8.98816
 20
121.312
 11
8.95287
 21
121.127
  0
LINE
  8
0
 10
8.95287
 20
121.127
 11
8.89465
 21
120.948
  0
LINE
  8
0
 10
8.89465
 20
120.948
 11
8.81445
 21
120.777
  0
LINE
  8
0
 10
8.81445
 20
120.777
 11
8.71352
 21
120.618
  0
LINE
  8
0
 10
8.71352
 20
120.618
 11
8.59344
 21
120.473
  0
LINE
  8
0
 10
8.59344
 20
120.473
 11
8.45613
 21
120.344
  0
LINE
  8
0
 10
8.45613
 20
120.344
 11
8.30373
 21
120.234
  0
LINE
  8
0
 10
8.30373
 20
120.234
 11
8.13866
 21
120.143
  0
LINE
  8
0
 10
8.13866
 20
120.143
 11
7.96352
 21
120.073
  0
LINE
  8
0
 10
7.96352
 20
120.073
 11
7.78107
 21
120.027
  0
LINE
  8
0
 10
7.78107
 20
120.027
 11
7.59418
 21
120.003
  0
LINE
  8
0
 10
7.59418
 20
120.003
 11
7.40581
 21
120.003
  0
LINE
  8
0
 10
-7.59418
 20
120.003
 11
-7.78107
 21
120.027
  0
LINE
  8
0
 10
-7.78107
 20
120.027
 11
-7.96352
 21
120.073
  0
LINE
  8
0
 10
-7.96352
 20
120.073
 11
-8.13866
 21
120.143
  0
LINE
  8
0
 10
-8.13866
 20
120.143
 11
-8.30373
 21
120.234
  0
LINE
  8
0
 10
-8.30373
 20
120.234
 11
-8.45613
 21
120.344
  0
LINE
  8
0
 10
-8.45613
 20
120.344
 11
-8.59344
 21
120.473
  0
LINE
  8
0
 10
-8.59344
 20
120.473
 11
-8.71352
 21
120.618
  0
LINE
  8
0
 10
-8.71352
 20
120.618
 11
-8.81445
 21
120.777
  0
LINE
  8
0
 10
-8.81445
 20
120.777
 11
-8.89465
 21
120.948
  0
LINE
  8
0
 10
-8.89465
 20
120.948
 11
-8.95287
 21
121.127
  0
LINE
  8
0
 10
-8.95287
 20
121.127
 11
-8.98816
 21
121.312
  0
LINE
  8
0
 10
-8.98816
 20
121.312
 11
-9
 21
121.5
  0
LINE
  8
0
 10
-9
 20
121.5
 11
-8.98816
 21
121.688
  0
LINE
  8
0
 10
-8.98816
 20
121.688
 11
-8.95287
 21
121.873
  0
LINE
  8
0
 10
-8.95287
 20
121.873
 11
-8.89465
 21
122.052
  0
LINE
  8
0
 10
-8.89465
 20
122.052
 11
-8.81445
 21
122.223
  0
LINE
  8
0
 10
-8.81445
 20
122.223
 11
-8.71352
 21
122.382
  0
LINE
  8
0
 10
-8.71352
 20
122.382
 11
-8.59344
 21
122.527
  0
LINE
  8
0
 10
-8.59344
 20
122.527
 11
-8.45613
 21
122.656
  0
LINE
  8
0
 10
-8.45613
 20
122.656
 11
-8.30373
 21
122.766
  0
LINE
  8
0
 10
-8.30373
 20
122.766
 11
-8.13866
 21
122.857
  0
LINE
  8
0
 10
-8.13866
 20
122.857
 11
-7.96352
 21
122.927
  0
LINE
  8
0
 10
-7.96352
 20
122.927
 11
-7.78107
 21
122.973
  0
LINE
  8
0
 10
-7.78107
 20
122.973
 11
-7.59418
 21
122.997
  0
LINE
  8
0
 10
-7.59418
 20
122.997
 11
-7.40581
 21
122.997
  0
LINE
  8
0
 10
-7.40581
 20
122.997
 11
-7.21892
 21
122.973
  0
LINE
  8
0
 10
-7.21892
 20
122.973
 11
-7.03647
 21
122.927
  0
LINE
  8
0
 10
-7.03647
 20
122.927
 11
-6.86133
 21
122.857
  0
LINE
  8
0
 10
-6.86133
 20
122.857
 11
-6.69626
 21
122.766
  0
LINE
  8
0
 10
-6.69626
 20
122.766
 11
-6.54385
 21
122.656
  0
LINE
  8
0
 10
-6.54385
 20
122.656
 11
-6.40654
 21
122.527
  0
LINE
  8
0
 10
-6.40654
 20
122.527
 11
-6.28647
 21
122.382
  0
LINE
  8
0
 10
-6.28647
 20
122.382
 11
-6.18553
 21
122.223
  0
LINE
  8
0
 10
-6.18553
 20
122.223
 11
-6.10533
 21
122.052
  0
LINE
  8
0
 10
-6.10533
 20
122.052
 11
-6.04712
 21
121.873
  0
LINE
  8
0
 10
-6.04712
 20
121.873
 11
-6.01183
 21
121.688
  0
LINE
  8
0
 10
-6.01183
 20
121.688
 11
-6
 21
121.5
  0
LINE
  8
0
 10
-6
 20
121.5
 11
-6.01183
 21
121.312
  0
LINE
  8
0
 10
-6.01183
 20
121.312
 11
-6.04712
 21
121.127
  0
LINE
  8
0
 10
-6.04712
 20
121.127
 11
-6.10533
 21
120.948
  0
LINE
  8
0
 10
-6.10533
 20
120.948
 11
-6.18553
 21
120.777
  0
LINE
  8
0
 10
-6.18553
 20
120.777
 11
-6.28647
 21
120.618
  0
LINE
  8
0
 10
-6.28647
 20
120.618
 11
-6.40654
 21
120.473
  0
LINE
  8
0
 10
-6.40654
 20
120.473
 11
-6.54385
 21
120.344
  0
LINE
  8
0
 10
-6.54385
 20
120.344
 11
-6.69626
 21
120.234
  0
LINE
  8
0
 10
-6.69626
 20
120.234
 11
-6.86133
 21
120.143
  0
LINE
  8
0
 10
-6.86133
 20
120.143
 11
-7.03647
 21
120.073
  0
LINE
  8
0
 10
-7.03647
 20
120.073
 11
-7.21892
 21
120.027
  0
LINE
  8
0
 10
-7.21892
 20
120.027
 11
-7.40581
 21
120.003
  0
LINE
  8
0
 10
-7.40581
 20
120.003
 11
-7.59418
 21
120.003
  0
LINE
  8
0
 10
-17.5942
 20
57.6
 11
-20.304
 21
57.6
  0
LINE
  8
0
 10
-20.304
 20
57.6
 11
-20.304
 21
63
  0
LINE
  8
0
 10
-20.304
 20
63
 11
-17.5942
 21
63
  0
LINE
  8
0
 10
-17.5942
 20
63
 11
-17.5942
 21
66
  0
LINE
  8
0
 10
-17.5942
 20
66
 11
-17.6289
 21
66.0547
  0
LINE
  8
0
 10
-17.6289
 20
66.0547
 11
-17.7893
 21
66.3956
  0
LINE
  8
0
 10
-17.7893
 20
66.3956
 11
-17.9057
 21
66.7539
  0
LINE
  8
0
 10
-17.9057
 20
66.7539
 11
-17.9763
 21
67.124
  0
LINE
  8
0
 10
-17.9763
 20
67.124
 11
-18
 21
67.5
  0
LINE
  8
0
 10
-18
 20
67.5
 11
-17.9763
 21
67.876
  0
LINE
  8
0
 10
-17.9763
 20
67.876
 11
-17.9057
 21
68.2461
  0
LINE
  8
0
 10
-17.9057
 20
68.2461
 11
-17.7893
 21
68.6044
  0
LINE
  8
0
 10
-17.7893
 20
68.6044
 11
-17.6289
 21
68.9453
  0
LINE
  8
0
 10
-17.6289
 20
68.9453
 11
-17.427
 21
69.2634
  0
LINE
  8
0
 10
-17.427
 20
69.2634
 11
-17.1869
 21
69.5536
  0
LINE
  8
0
 10
-17.1869
 20
69.5536
 11
-16.9123
 21
69.8115
  0
LINE
  8
0
 10
-16.9123
 20
69.8115
 11
-16.6075
 21
70.033
  0
LINE
  8
0
 10
-16.6075
 20
70.033
 11
-16.2773
 21
70.2145
  0
LINE
  8
0
 10
-16.2773
 20
70.2145
 11
-15.927
 21
70.3532
  0
LINE
  8
0
 10
-15.927
 20
70.3532
 11
-15.5621
 21
70.4469
  0
LINE
  8
0
 10
-15.5621
 20
70.4469
 11
-15.1884
 21
70.4941
  0
LINE
  8
0
 10
-15.1884
 20
70.4941
 11
-14.8116
 21
70.4941
  0
LINE
  8
0
 10
-14.8116
 20
70.4941
 11
-14.4379
 21
70.4469
  0
LINE
  8
0
 10
-14.4379
 20
70.4469
 11
-14.0729
 21
70.3532
  0
LINE
  8
0
 10
-14.0729
 20
70.3532
 11
-13.7227
 21
70.2145
  0
LINE
  8
0
 10
-13.7227
 20
70.2145
 11
-13.3925
 21
70.033
  0
LINE
  8
0
 10
-13.3925
 20
70.033
 11
-13.0877
 21
69.8115
  0
LINE
  8
0
 10
-13.0877
 20
69.8115
 11
-12.8131
 21
69.5536
  0
LINE
  8
0
 10
-12.8131
 20
69.5536
 11
-12.5729
 21
69.2634
  0
LINE
  8
0
 10
-12.5729
 20
69.2634
 11
-12.3711
 21
68.9453
  0
LINE
  8
0
 10
-12.3711
 20
68.9453
 11
-12.2107
 21
68.6044
  0
LINE
  8
0
 10
-12.2107
 20
68.6044
 11
-12.0942
 21
68.2461
  0
LINE
  8
0
 10
-12.0942
 20
68.2461
 11
-12.0237
 21
67.876
  0
LINE
  8
0
 10
-12.0237
 20
67.876
 11
-12
 21
67.5
  0
LINE
  8
0
 10
-12
 20
67.5
 11
-12.0237
 21
67.124
  0
LINE
  8
0
 10
-12.0237
 20
67.124
 11
-12.0942
 21
66.7539
  0
LINE
  8
0
 10
-12.0942
 20
66.7539
 11
-12.2107
 21
66.3956
  0
LINE
  8
0
 10
-12.2107
 20
66.3956
 11
-12.3711
 21
66.0547
  0
LINE
  8
0
 10
-12.3711
 20
66.0547
 11
-12.4058
 21
66
  0
LINE
  8
0
 10
-12.4058
 20
66
 11
-12.4058
 21
63
  0
LINE
  8
0
 10
-12.4058
 20
63
 11
-9.69603
 21
63
  0
LINE
  8
0
 10
-9.69603
 20
63
 11
-9.69603
 21
57.6
  0
LINE
  8
0
 10
-9.69603
 20
57.6
 11
-12.4058
 21
57.6
  0
LINE
  8
0
 10
-12.4058
 20
57.6
 11
-12.4058
 21
54
  0
LINE
  8
0
 10
-12.4058
 20
54
 11
-2.59418
 21
54
  0
LINE
  8
0
 10
-2.59418
 20
54
 11
-2.59418
 21
57.6
  0
LINE
  8
0
 10
-2.59418
 20
57.6
 11
-5.30396
 21
57.6
  0
LINE
  8
0
 10
-5.30396
 20
57.6
 11
-5.30396
 21
63
  0
LINE
  8
0
 10
-5.30396
 20
63
 11
-2.59418
 21
63
  0
LINE
  8
0
 10
-2.59418
 20
63
 11
-2.59418
 21
66
  0
LINE
  8
0
 10
-2.59418
 20
66
 11
-2.62891
 21
66.0547
  0
LINE
  8
0
 10
-2.62891
 20
66.0547
 11
-2.78932
 21
66.3956
  0
LINE
  8
0
 10
-2.78932
 20
66.3956
 11
-2.90575
 21
66.7539
  0
LINE
  8
0
 10
-2.90575
 20
66.7539
 11
-2.97633
 21
67.124
  0
LINE
  8
0
 10
-2.97633
 20
67.124
 11
-3
 21
67.5
  0
LINE
  8
0
 10
-3
 20
67.5
 11
-2.97633
 21
67.876
  0
LINE
  8
0
 10
-2.97633
 20
67.876
 11
-2.90575
 21
68.2461
  0
LINE
  8
0
 10
-2.90575
 20
68.2461
 11
-2.78932
 21
68.6044
  0
LINE
  8
0
 10
-2.78932
 20
68.6044
 11
-2.62891
 21
68.9453
  0
LINE
  8
0
 10
-2.62891
 20
68.9453
 11
-2.42705
 21
69.2634
  0
LINE
  8
0
 10
-2.42705
 20
69.2634
 11
-2.1869
 21
69.5536
  0
LINE
  8
0
 10
-2.1869
 20
69.5536
 11
-1.91226
 21
69.8115
  0
LINE
  8
0
 10
-1.91226
 20
69.8115
 11
-1.60747
 21
70.033
  0
LINE
  8
0
 10
-1.60747
 20
70.033
 11
-1.27733
 21
70.2145
  0
LINE
  8
0
 10
-1.27733
 20
70.2145
 11
-0.927048
 21
70.3532
  0
LINE
  8
0
 10
-0.927048
 20
70.3532
 11
-0.562134
 21
70.4469
  0
LINE
  8
0
 10
-0.562134
 20
70.4469
 11
-0.18837
 21
70.4941
  0
LINE
  8
0
 10
-0.18837
 20
70.4941
 11
0.18837
 21
70.4941
  0
LINE
  8
0
 10
0.18837
 20
70.4941
 11
0.562134
 21
70.4469
  0
LINE
  8
0
 10
0.562134
 20
70.4469
 11
0.927048
 21
70.3532
  0
LINE
  8
0
 10
0.927048
 20
70.3532
 11
1.27733
 21
70.2145
  0
LINE
  8
0
 10
1.27733
 20
70.2145
 11
1.60747
 21
70.033
  0
LINE
  8
0
 10
1.60747
 20
70.033
 11
1.91226
 21
69.8115
  0
LINE
  8
0
 10
1.91226
 20
69.8115
 11
2.1869
 21
69.5536
  0
LINE
  8
0
 10
2.1869
 20
69.5536
 11
2.42705
 21
69.2634
  0
LINE
  8
0
 10
2.42705
 20
69.2634
 11
2.62891
 21
68.9453
  0
LINE
  8
0
 10
2.62891
 20
68.9453
 11
2.78932
 21
68.6044
  0
LINE
  8
0
 10
2.78932
 20
68.6044
 11
2.90575
 21
68.2461
  0
LINE
  8
0
 10
2.90575
 20
68.2461
 11
2.97633
 21
67.876
  0
LINE
  8
0
 10
2.97633
 20
67.876
 11
3
 21
67.5
  0
LINE
  8
0
 10
3
 20
67.5
 11
2.97633
 21
67.124
  0
LINE
  8
0
 10
2.97633
 20
67.124
 11
2.90575
 21
66.7539
  0
LINE
  8
0
 10
2.90575
 20
66.7539
 11
2.78932
 21
66.3956
  0
LINE
  8
0
 10
2.78932
 20
66.3956
 11
2.62891
 21
66.0547
  0
LINE
  8
0
 10
2.62891
 20
66.0547
 11
2.59418
 21
66
  0
LINE
  8
0
 10
2.59418
 20
66
 11
2.59418
 21
63
  0
LINE
  8
0
 10
2.59418
 20
63
 11
5.30396
 21
63
  0
LINE
  8
0
 10
5.30396
 20
63
 11
5.30396
 21
57.6
  0
LINE
  8
0
 10
5.30396
 20
57.6
 11
2.59418
 21
57.6
  0
LINE
  8
0
 10
2.59418
 20
57.6
 11
2.59418
 21
54
  0
LINE
  8
0
 10
2.59418
 20
54
 11
12.4058
 21
54
  0
LINE
  8
0
 10
12.4058
 20
54
 11
12.4058
 21
57.6
  0
LINE
  8
0
 10
12.4058
 20
57.6
 11
9.69603
 21
57.6
  0
LINE
  8
0
 10
9.69603
 20
57.6
 11
9.69603
 21
63
  0
LINE
  8
0
 10
9.69603
 20
63
 11
12.4058
 21
63
  0
LINE
  8
0
 10
12.4058
 20
63
 11
12.4058
 21
66
  0
LINE
  8
0
 10
12.4058
 20
66
 11
12.3711
 21
66.0547
  0
LINE
  8
0
 10
12.3711
 20
66.0547
 11
12.2107
 21
66.3956
  0
LINE
  8
0
 10
12.2107
 20
66.3956
 11
12.0942
 21
66.7539
  0
LINE
  8
0
 10
12.0942
 20
66.7539
 11
12.0237
 21
67.124
  0
LINE
  8
0
 10
12.0237
 20
67.124
 11
12
 21
67.5
  0
LINE
  8
0
 10
12
 20
67.5
 11
12.0237
 21
67.876
  0
LINE
  8
0
 10
12.0237
 20
67.876
 11
12.0942
 21
68.2461
  0
LINE
  8
0
 10
12.0942
 20
68.2461
 11
12.2107
 21
68.6044
  0
LINE
  8
0
 10
12.2107
 20
68.6044
 11
12.3711
 21
68.9453
  0
LINE
  8
0
 10
12.3711
 20
68.9453
 11
12.5729
 21
69.2634
  0
LINE
  8
0
 10
12.5729
 20
69.2634
 11
12.8131
 21
69.5536
  0
LINE
  8
0
 10
12.8131
 20
69.5536
 11
13.0877
 21
69.8115
  0
LINE
  8
0
 10
13.0877
 20
69.8115
 11
13.3925
 21
70.033
  0
LINE
  8
0
 10
13.3925
 20
70.033
 11
13.7227
 21
70.2145
  0
LINE
  8
0
 10
13.7227
 20
70.2145
 11
14.0729
 21
70.3532
  0
LINE
  8
0
 10
14.0729
 20
70.3532
 11
14.4379
 21
70.4469
  0
LINE
  8
0
 10
14.4379
 20
70.4469
 11
14.8116
 21
70.4941
  0
LINE
  8
0
 10
14.8116
 20
70.4941
 11
15.1884
 21
70.4941
  0
LINE
  8
0
 10
15.1884
 20
70.4941
 11
15.5621
 21
70.4469
  0
LINE
  8
0
 10
15.5621
 20
70.4469
 11
15.927
 21
70.3532
  0
LINE
  8
0
 10
15.927
 20
70.3532
 11
16.2773
 21
70.2145
  0
LINE
  8
0
 10
16.2773
 20
70.2145
 11
16.6075
 21
70.033
  0
LINE
  8
0
 10
16.6075
 20
70.033
 11
16.9123
 21
69.8115
  0
LINE
  8
0
 10
16.9123
 20
69.8115
 11
17.1869
 21
69.5536
  0
LINE
  8
0
 10
17.1869
 20
69.5536
 11
17.427
 21
69.2634
  0
LINE
  8
0
 10
17.427
 20
69.2634
 11
17.6289
 21
68.9453
  0
LINE
  8
0
 10
17.6289
 20
68.9453
 11
17.7893
 21
68.6044
  0
LINE
  8
0
 10
17.7893
 20
68.6044
 11
17.9057
 21
68.2461
  0
LINE
  8
0
 10
17.9057
 20
68.2461
 11
17.9763
 21
67.876
  0
LINE
  8
0
 10
17.9763
 20
67.876
 11
18
 21
67.5
  0
LINE
  8
0
 10
18
 20
67.5
 11
17.9763
 21
67.124
  0
LINE
  8
0
 10
17.9763
 20
67.124
 11
17.9057
 21
66.7539
  0
LINE
  8
0
 10
17.9057
 20
66.7539
 11
17.7893
 21
66.3956
  0
LINE
  8
0
 10
17.7893
 20
66.3956
 11
17.6289
 21
66.0547
  0
LINE
  8
0
 10
17.6289
 20
66.0547
 11
17.5942
 21
66
  0
LINE
  8
0
 10
17.5942
 20
66
 11
17.5942
 21
63
  0
LINE
  8
0
 10
17.5942
 20
63
 11
20.304
 21
63
  0
LINE
  8
0
 10
20.304
 20
63
 11
20.304
 21
57.6
  0
LINE
  8
0
 10
20.304
 20
57.6
 11
17.5942
 21
57.6
  0
LINE
  8
0
 10
17.5942
 20
57.6
 11
17.5942
 21
54
  0
LINE
  8
0
 10
17.5942
 20
54
 11
22
 21
54
  0
LINE
  8
0
 10
22
 20
54
 11
22
 21
99.5
  0
LINE
  8
0
 10
22
 20
99.5
 11
21.9606
 21
100.127
  0
LINE
  8
0
 10
21.9606
 20
100.127
 11
21.8429
 21
100.743
  0
LINE
  8
0
 10
21.8429
 20
100.743
 11
21.6489
 21
101.341
  0
LINE
  8
0
 10
21.6489
 20
101.341
 11
21.3815
 21
101.909
  0
LINE
  8
0
 10
21.3815
 20
101.909
 11
21.0451
 21
102.439
  0
LINE
  8
0
 10
21.0451
 20
102.439
 11
20.6448
 21
102.923
  0
LINE
  8
0
 10
20.6448
 20
102.923
 11
20.1871
 21
103.353
  0
LINE
  8
0
 10
20.1871
 20
103.353
 11
19.6791
 21
103.722
  0
LINE
  8
0
 10
19.6791
 20
103.722
 11
19.1289
 21
104.024
  0
LINE
  8
0
 10
19.1289
 20
104.024
 11
18.5451
 21
104.255
  0
LINE
  8
0
 10
18.5451
 20
104.255
 11
17.9369
 21
104.411
  0
LINE
  8
0
 10
17.9369
 20
104.411
 11
17.3139
 21
104.49
  0
LINE
  8
0
 10
17.3139
 20
104.49
 11
-17.3139
 21
104.49
  0
LINE
  8
0
 10
-17.3139
 20
104.49
 11
-17.9369
 21
104.411
  0
LINE
  8
0
 10
-17.9369
 20
104.411
 11
-18.5451
 21
104.255
  0
LINE
  8
0
 10
-18.5451
 20
104.255
 11
-19.1289
 21
104.024
  0
LINE
  8
0
 10
-19.1289
 20
104.024
 11
-19.6791
 21
103.722
  0
LINE
  8
0
 10
-19.6791
 20
103.722
 11
-20.1871
 21
103.353
  0
LINE
  8
0
 10
-20.1871
 20
103.353
 11
-20.6448
 21
102.923
  0
LINE
  8
0
 10
-20.6448
 20
102.923
 11
-21.0451
 21
102.439
  0
LINE
  8
0
 10
-21.0451
 20
102.439
 11
-21.3815
 21
101.909
  0
LINE
  8
0
 10
-21.3815
 20
101.909
 11
-21.6489
 21
101.341
  0
LINE
  8
0
 10
-21.6489
 20
101.341
 11
-21.8429
 21
100.743
  0
LINE
  8
0
 10
-21.8429
 20
100.743
 11
-21.9606
 21
100.127
  0
LINE
  8
0
 10
-21.9606
 20
100.127
 11
-22
 21
99.5
  0
LINE
  8
0
 10
-22
 20
99.5
 11
-22
 21
54
  0
LINE
  8
0
 10
-22
 20
54
 11
-17.5942
 21
54
  0
LINE
  8
0
 10
-17.5942
 20
54
 11
-17.5942
 21
57.6
  0
LINE
  8
0
 10
-0.18837
 20
94.5059
 11
-0.562134
 21
94.5531
  0
LINE
  8
0
 10
-0.562134
 20
94.5531
 11
-0.927048
 21
94.6468
  0
LINE
  8
0
 10
-0.927048
 20
94.6468
 11
-1.27733
 21
94.7855
  0
LINE
  8
0
 10
-1.27733
 20
94.7855
 11
-1.60747
 21
94.967
  0
LINE
  8
0
 10
-1.60747
 20
94.967
 11
-1.91226
 21
95.1885
  0
LINE
  8
0
 10
-1.91226
 20
95.1885
 11
-2.1869
 21
95.4464
  0
LINE
  8
0
 10
-2.1869
 20
95.4464
 11
-2.42705
 21
95.7366
  0
LINE
  8
0
 10
-2.42705
 20
95.7366
 11
-2.62891
 21
96.0547
  0
LINE
  8
0
 10
-2.62891
 20
96.0547
 11
-2.78932
 21
96.3956
  0
LINE
  8
0
 10
-2.78932
 20
96.3956
 11
-2.90575
 21
96.7539
  0
LINE
  8
0
 10
-2.90575
 20
96.7539
 11
-2.97633
 21
97.124
  0
LINE
  8
0
 10
-2.97633
 20
97.124
 11
-3
 21
97.5
  0
LINE
  8
0
 10
-3
 20
97.5
 11
-2.97633
 21
97.876
  0
LINE
  8
0
 10
-2.97633
 20
97.876
 11
-2.90575
 21
98.2461
  0
LINE
  8
0
 10
-2.90575
 20
98.2461
 11
-2.78932
 21
98.6044
  0
LINE
  8
0
 10
-2.78932
 20
98.6044
 11
-2.62891
 21
98.9453
  0
LINE
  8
0
 10
-2.62891
 20
98.9453
 11
-2.42705
 21
99.2634
  0
LINE
  8
0
 10
-2.42705
 20
99.2634
 11
-2.1869
 21
99.5536
  0
LINE
  8
0
 10
-2.1869
 20
99.5536
 11
-1.91226
 21
99.8115
  0
LINE
  8
0
 10
-1.91226
 20
99.8115
 11
-1.60747
 21
100.033
  0
LINE
  8
0
 10
-1.60747
 20
100.033
 11
-1.27733
 21
100.214
  0
LINE
  8
0
 10
-1.27733
 20
100.214
 11
-0.927048
 21
100.353
  0
LINE
  8
0
 10
-0.927048
 20
100.353
 11
-0.562134
 21
100.447
  0
LINE
  8
0
 10
-0.562134
 20
100.447
 11
-0.18837
 21
100.494
  0
LINE
  8
0
 10
-0.18837
 20
100.494
 11
0.18837
 21
100.494
  0
LINE
  8
0
 10
0.18837
 20
100.494
 11
0.562134
 21
100.447
  0
LINE
  8
0
 10
0.562134
 20
100.447
 11
0.927048
 21
100.353
  0
LINE
  8
0
 10
0.927048
 20
100.353
 11
1.27733
 21
100.214
  0
LINE
  8
0
 10
1.27733
 20
100.214
 11
1.60747
 21
100.033
  0
LINE
  8
0
 10
1.60747
 20
100.033
 11
1.91226
 21
99.8115
  0
LINE
  8
0
 10
1.91226
 20
99.8115
 11
2.1869
 21
99.5536
  0
LINE
  8
0
 10
2.1869
 20
99.5536
 11
2.42705
 21
99.2634
  0
LINE
  8
0
 10
2.42705
 20
99.2634
 11
2.62891
 21
98.9453
  0
LINE
  8
0
 10
2.62891
 20
98.9453
 11
2.78932
 21
98.6044
  0
LINE
  8
0
 10
2.78932
 20
98.6044
 11
2.90575
 21
98.2461
  0
LINE
  8
0
 10
2.90575
 20
98.2461
 11
2.97633
 21
97.876
  0
LINE
  8
0
 10
2.97633
 20
97.876
 11
3
 21
97.5
  0
LINE
  8
0
 10
3
 20
97.5
 11
2.97633
 21
97.124
  0
LINE
  8
0
 10
2.97633
 20
97.124
 11
2.90575
 21
96.7539
  0
LINE
  8
0
 10
2.90575
 20
96.7539
 11
2.78932
 21
96.3956
  0
LINE
  8
0
 10
2.78932
 20
96.3956
 11
2.62891
 21
96.0547
  0
LINE
  8
0
 10
2.62891
 20
96.0547
 11
2.42705
 21
95.7366
  0
LINE
  8
0
 10
2.42705
 20
95.7366
 11
2.1869
 21
95.4464
  0
LINE
  8
0
 10
2.1869
 20
95.4464
 11
1.91226
 21
95.1885
  0
LINE
  8
0
 10
1.91226
 20
95.1885
 11
1.60747
 21
94.967
  0
LINE
  8
0
 10
1.60747
 20
94.967
 11
1.27733
 21
94.7855
  0
LINE
  8
0
 10
1.27733
 20
94.7855
 11
0.927048
 21
94.6468
  0
LINE
  8
0
 10
0.927048
 20
94.6468
 11
0.562134
 21
94.5531
  0
LINE
  8
0
 10
0.562134
 20
94.5531
 11
0.18837
 21
94.5059
  0
LINE
  8
0
 10
0.18837
 20
94.5059
 11
-0.18837
 21
94.5059
  0
LINE
  8
0
 10
14.8116
 20
94.5059
 11
14.4379
 21
94.5531
  0
LINE
  8
0
 10
14.4379
 20
94.5531
 11
14.0729
 21
94.6468
  0
LINE
  8
0
 10
14.0729
 20
94.6468
 11
13.7227
 21
94.7855
  0
LINE
  8
0
 10
13.7227
 20
94.7855
 11
13.3925
 21
94.967
  0
LINE
  8
0
 10
13.3925
 20
94.967
 11
13.0877
 21
95.1885
  0
LINE
  8
0
 10
13.0877
 20
95.1885
 11
12.8131
 21
95.4464
  0
LINE
  8
0
 10
12.8131
 20
95.4464
 11
12.5729
 21
95.7366
  0
LINE
  8
0
 10
12.5729
 20
95.7366
 11
12.3711
 21
96.0547
  0
LINE
  8
0
 10
12.3711
 20
96.0547
 11
12.2107
 21
96.3956
  0
LINE
  8
0
 10
12.2107
 20
96.3956
 11
12.0942
 21
96.7539
  0
LINE
  8
0
 10
12.0942
 20
96.7539
 11
12.0237
 21
97.124
  0
LINE
  8
0
 10
12.0237
 20
97.124
 11
12
 21
97.5
  0
LINE
  8
0
 10
12
 20
97.5
 11
12.0237
 21
97.876
  0
LINE
  8
0
 10
12.0237
 20
97.876
 11
12.0942
 21
98.2461
  0
LINE
  8
0
 10
12.0942
 20
98.2461
 11
12.2107
 21
98.6044
  0
LINE
  8
0
 10
12.2107
 20
98.6044
 11
12.3711
 21
98.9453
  0
LINE
  8
0
 10
12.3711
 20
98.9453
 11
12.5729
 21
99.2634
  0
LINE
  8
0
 10
12.5729
 20
99.2634
 11
12.8131
 21
99.5536
  0
LINE
  8
0
 10
12.8131
 20
99.5536
 11
13.0877
 21
99.8115
  0
LINE
  8
0
 10
13.0877
 20
99.8115
 11
13.3925
 21
100.033
  0
LINE
  8
0
 10
13.3925
 20
100.033
 11
13.7227
 21
100.214
  0
LINE
  8
0
 10
13.7227
 20
100.214
 11
14.0729
 21
100.353
  0
LINE
  8
0
 10
14.0729
 20
100.353
 11
14.4379
 21
100.447
  0
LINE
  8
0
 10
14.4379
 20
100.447
 11
14.8116
 21
100.494
  0
LINE
  8
0
 10
14.8116
 20
100.494
 11
15.1884
 21
100.494
  0
LINE
  8
0
 10
15.1884
 20
100.494
 11
15.5621
 21
100.447
  0
LINE
  8
0
 10
15.5621
 20
100.447
 11
15.927
 21
100.353
  0
LINE
  8
0
 10
15.927
 20
100.353
 11
16.2773
 21
100.214
  0
LINE
  8
0
 10
16.2773
 20
100.214
 11
16.6075
 21
100.033
  0
LINE
  8
0
 10
16.6075
 20
100.033
 11
16.9123
 21
99.8115
  0
LINE
  8
0
 10
16.9123
 20
99.8115
 11
17.1869
 21
99.5536
  0
LINE
  8
0
 10
17.1869
 20
99.5536
 11
17.427
 21
99.2634
  0
LINE
  8
0
 10
17.427
 20
99.2634
 11
17.6289
 21
98.9453
  0
LINE
  8
0
 10
17.6289
 20
98.9453
 11
17.7893
 21
98.6044
  0
LINE
  8
0
 10
17.7893
 20
98.6044
 11
17.9057
 21
98.2461
  0
LINE
  8
0
 10
17.9057
 20
98.2461
 11
17.9763
 21
97.876
  0
LINE
  8
0
 10
17.9763
 20
97.876
 11
18
 21
97.5
  0
LINE
  8
0
 10
18
 20
97.5
 11
17.9763
 21
97.124
  0
LINE
  8
0
 10
17.9763
 20
97.124
 11
17.9057
 21
96.7539
  0
LINE
  8
0
 10
17.9057
 20
96.7539
 11
17.7893
 21
96.3956
  0
LINE
  8
0
 10
17.7893
 20
96.3956
 11
17.6289
 21
96.0547
  0
LINE
  8
0
 10
17.6289
 20
96.0547
 11
17.427
 21
95.7366
  0
LINE
  8
0
 10
17.427
 20
95.7366
 11
17.1869
 21
95.4464
  0
LINE
  8
0
 10
17.1869
 20
95.4464
 11
16.9123
 21
95.1885
  0
LINE
  8
0
 10
16.9123
 20
95.1885
 11
16.6075
 21
94.967
  0
LINE
  8
0
 10
16.6075
 20
94.967
 11
16.2773
 21
94.7855
  0
LINE
  8
0
 10
16.2773
 20
94.7855
 11
15.927
 21
94.6468
  0
LINE
  8
0
 10
15.927
 20
94.6468
 11
15.5621
 21
94.5531
  0
LINE
  8
0
 10
15.5621
 20
94.5531
 11
15.1884
 21
94.5059
  0
LINE
  8
0
 10
15.1884
 20
94.5059
 11
14.8116
 21
94.5059
  0
LINE
  8
0
 10
-15.1884
 20
94.5059
 11
-15.5621
 21
94.5531
  0
LINE
  8
0
 10
-15.5621
 20
94.5531
 11
-15.927
 21
94.6468
  0
LINE
  8
0
 10
-15.927
 20
94.6468
 11
-16.2773
 21
94.7855
  0
LINE
  8
0
 10
-16.2773
 20
94.7855
 11
-16.6075
 21
94.967
  0
LINE
  8
0
 10
-16.6075
 20
94.967
 11
-16.9123
 21
95.1885
  0
LINE
  8
0
 10
-16.9123
 20
95.1885
 11
-17.1869
 21
95.4464
  0
LINE
  8
0
 10
-17.1869
 20
95.4464
 11
-17.427
 21
95.7366
  0
LINE
  8
0
 10
-17.427
 20
95.7366
 11
-17.6289
 21
96.0547
  0
LINE
  8
0
 10
-17.6289
 20
96.0547
 11
-17.7893
 21
96.3956
  0
LINE
  8
0
 10
-17.7893
 20
96.3956
 11
-17.9057
 21
96.7539
  0
LINE
  8
0
 10
-17.9057
 20
96.7539
 11
-17.9763
 21
97.124
  0
LINE
  8
0
 10
-17.9763
 20
97.124
 11
-18
 21
97.5
  0
LINE
  8
0
 10
-18
 20
97.5
 11
-17.9763
 21
97.876
  0
LINE
  8
0
 10
-17.9763
 20
97.876
 11
-17.9057
 21
98.2461
  0
LINE
  8
0
 10
-17.9057
 20
98.2461
 11
-17.7893
 21
98.6044
  0
LINE
  8
0
 10
-17.7893
 20
98.6044
 11
-17.6289
 21
98.9453
  0
LINE
  8
0
 10
-17.6289
 20
98.9453
 11
-17.427
 21
99.2634
  0
LINE
  8
0
 10
-17.427
 20
99.2634
 11
-17.1869
 21
99.5536
  0
LINE
  8
0
 10
-17.1869
 20
99.5536
 11
-16.9123
 21
99.8115
  0
LINE
  8
0
 10
-16.9123
 20
99.8115
 11
-16.6075
 21
100.033
  0
LINE
  8
0
 10
-16.6075
 20
100.033
 11
-16.2773
 21
100.214
  0
LINE
  8
0
 10
-16.2773
 20
100.214
 11
-15.927
 21
100.353
  0
LINE
  8
0
 10
-15.927
 20
100.353
 11
-15.5621
 21
100.447
  0
LINE
  8
0
 10
-15.5621
 20
100.447
 11
-15.1884
 21
100.494
  0
LINE
  8
0
 10
-15.1884
 20
100.494
 11
-14.8116
 21
100.494
  0
LINE
  8
0
 10
-14.8116
 20
100.494
 11
-14.4379
 21
100.447
  0
LINE
  8
0
 10
-14.4379
 20
100.447
 11
-14.0729
 21
100.353
  0
LINE
  8
0
 10
-14.0729
 20
100.353
 11
-13.7227
 21
100.214
  0
LINE
  8
0
 10
-13.7227
 20
100.214
 11
-13.3925
 21
100.033
  0
LINE
  8
0
 10
-13.3925
 20
100.033
 11
-13.0877
 21
99.8115
  0
LINE
  8
0
 10
-13.0877
 20
99.8115
 11
-12.8131
 21
99.5536
  0
LINE
  8
0
 10
-12.8131
 20
99.5536
 11
-12.5729
 21
99.2634
  0
LINE
  8
0
 10
-12.5729
 20
99.2634
 11
-12.3711
 21
98.9453
  0
LINE
  8
0
 10
-12.3711
 20
98.9453
 11
-12.2107
 21
98.6044
  0
LINE
  8
0
 10
-12.2107
 20
98.6044
 11
-12.0942
 21
98.2461
  0
LINE
  8
0
 10
-12.0942
 20
98.2461
 11
-12.0237
 21
97.876
  0
LINE
  8
0
 10
-12.0237
 20
97.876
 11
-12
 21
97.5
  0
LINE
  8
0
 10
-12
 20
97.5
 11
-12.0237
 21
97.124
  0
LINE
  8
0
 10
-12.0237
 20
97.124
 11
-12.0942
 21
96.7539
  0
LINE
  8
0
 10
-12.0942
 20
96.7539
 11
-12.2107
 21
96.3956
  0
LINE
  8
0
 10
-12.2107
 20
96.3956
 11
-12.3711
 21
96.0547
  0
LINE
  8
0
 10
-12.3711
 20
96.0547
 11
-12.5729
 21
95.7366
  0
LINE
  8
0
 10
-12.5729
 20
95.7366
 11
-12.8131
 21
95.4464
  0
LINE
  8
0
 10
-12.8131
 20
95.4464
 11
-13.0877
 21
95.1885
  0
LINE
  8
0
 10
-13.0877
 20
95.1885
 11
-13.3925
 21
94.967
  0
LINE
  8
0
 10
-13.3925
 20
94.967
 11
-13.7227
 21
94.7855
  0
LINE
  8
0
 10
-13.7227
 20
94.7855
 11
-14.0729
 21
94.6468
  0
LINE
  8
0
 10
-14.0729
 20
94.6468
 11
-14.4379
 21
94.5531
  0
LINE
  8
0
 10
-14.4379
 20
94.5531
 11
-14.8116
 21
94.5059
  0
LINE
  8
0
 10
-14.8116
 20
94.5059
 11
-15.1884
 21
94.5059
  0
LINE
  8
0
 10
-15.1884
 20
79.5059
 11
-15.5621
 21
79.5531
  0
LINE
  8
0
 10
-15.5621
 20
79.5531
 11
-15.927
 21
79.6468
  0
LINE
  8
0
 10
-15.927
 20
79.6468
 11
-16.2773
 21
79.7855
  0
LINE
  8
0
 10
-16.2773
 20
79.7855
 11
-16.6075
 21
79.967
  0
LINE
  8
0
 10
-16.6075
 20
79.967
 11
-16.9123
 21
80.1884
  0
LINE
  8
0
 10
-16.9123
 20
80.1884
 11
-17.1869
 21
80.4464
  0
LINE
  8
0
 10
-17.1869
 20
80.4464
 11
-17.427
 21
80.7366
  0
LINE
  8
0
 10
-17.427
 20
80.7366
 11
-17.6289
 21
81.0547
  0
LINE
  8
0
 10
-17.6289
 20
81.0547
 11
-17.7893
 21
81.3956
  0
LINE
  8
0
 10
-17.7893
 20
81.3956
 11
-17.9057
 21
81.7539
  0
LINE
  8
0
 10
-17.9057
 20
81.7539
 11
-17.9763
 21
82.124
  0
LINE
  8
0
 10
-17.9763
 20
82.124
 11
-18
 21
82.5
  0
LINE
  8
0
 10
-18
 20
82.5
 11
-17.9763
 21
82.876
  0
LINE
  8
0
 10
-17.9763
 20
82.876
 11
-17.9057
 21
83.2461
  0
LINE
  8
0
 10
-17.9057
 20
83.2461
 11
-17.7893
 21
83.6044
  0
LINE
  8
0
 10
-17.7893
 20
83.6044
 11
-17.6289
 21
83.9453
  0
LINE
  8
0
 10
-17.6289
 20
83.9453
 11
-17.427
 21
84.2634
  0
LINE
  8
0
 10
-17.427
 20
84.2634
 11
-17.1869
 21
84.5536
  0
LINE
  8
0
 10
-17.1869
 20
84.5536
 11
-16.9123
 21
84.8115
  0
LINE
  8
0
 10
-16.9123
 20
84.8115
 11
-16.6075
 21
85.033
  0
LINE
  8
0
 10
-16.6075
 20
85.033
 11
-16.2773
 21
85.2145
  0
LINE
  8
0
 10
-16.2773
 20
85.2145
 11
-15.927
 21
85.3532
  0
LINE
  8
0
 10
-15.927
 20
85.3532
 11
-15.5621
 21
85.4469
  0
LINE
  8
0
 10
-15.5621
 20
85.4469
 11
-15.1884
 21
85.4941
  0
LINE
  8
0
 10
-15.1884
 20
85.4941
 11
-14.8116
 21
85.4941
  0
LINE
  8
0
 10
-14.8116
 20
85.4941
 11
-14.4379
 21
85.4469
  0
LINE
  8
0
 10
-14.4379
 20
85.4469
 11
-14.0729
 21
85.3532
  0
LINE
  8
0
 10
-14.0729
 20
85.3532
 11
-13.7227
 21
85.2145
  0
LINE
  8
0
 10
-13.7227
 20
85.2145
 11
-13.3925
 21
85.033
  0
LINE
  8
0
 10
-13.3925
 20
85.033
 11
-13.0877
 21
84.8115
  0
LINE
  8
0
 10
-13.0877
 20
84.8115
 11
-12.8131
 21
84.5536
  0
LINE
  8
0
 10
-12.8131
 20
84.5536
 11
-12.5729
 21
84.2634
  0
LINE
  8
0
 10
-12.5729
 20
84.2634
 11
-12.3711
 21
83.9453
  0
LINE
  8
0
 10
-12.3711
 20
83.9453
 11
-12.2107
 21
83.6044
  0
LINE
  8
0
 10
-12.2107
 20
83.6044
 11
-12.0942
 21
83.2461
  0
LINE
  8
0
 10
-12.0942
 20
83.2461
 11
-12.0237
 21
82.876
  0
LINE
  8
0
 10
-12.0237
 20
82.876
 11
-12
 21
82.5
  0
LINE
  8
0
 10
-12
 20
82.5
 11
-12.0237
 21
82.124
  0
LINE
  8
0
 10
-12.0237
 20
82.124
 11
-12.0942
 21
81.7539
  0
LINE
  8
0
 10
-12.0942
 20
81.7539
 11
-12.2107
 21
81.3956
  0
LINE
  8
0
 10
-12.2107
 20
81.3956
 11
-12.3711
 21
81.0547
  0
LINE
  8
0
 10
-12.3711
 20
81.0547
 11
-12.5729
 21
80.7366
  0
LINE
  8
0
 10
-12.5729
 20
80.7366
 11
-12.8131
 21
80.4464
  0
LINE
  8
0
 10
-12.8131
 20
80.4464
 11
-13.0877
 21
80.1884
  0
LINE
  8
0
 10
-13.0877
 20
80.1884
 11
-13.3925
 21
79.967
  0
LINE
  8
0
 10
-13.3925
 20
79.967
 11
-13.7227
 21
79.7855
  0
LINE
  8
0
 10
-13.7227
 20
79.7855
 11
-14.0729
 21
79.6468
  0
LINE
  8
0
 10
-14.0729
 20
79.6468
 11
-14.4379
 21
79.5531
  0
LINE
  8
0
 10
-14.4379
 20
79.5531
 11
-14.8116
 21
79.5059
  0
LINE
  8
0
 10
-14.8116
 20
79.5059
 11
-15.1884
 21
79.5059
  0
LINE
  8
0
 10
-0.18837
 20
79.5059
 11
-0.562134
 21
79.5531
  0
LINE
  8
0
 10
-0.562134
 20
79.5531
 11
-0.927048
 21
79.6468
  0
LINE
  8
0
 10
-0.927048
 20
79.6468
 11
-1.27733
 21
79.7855
  0
LINE
  8
0
 10
-1.27733
 20
79.7855
 11
-1.60747
 21
79.967
  0
LINE
  8
0
 10
-1.60747
 20
79.967
 11
-1.91226
 21
80.1884
  0
LINE
  8
0
 10
-1.91226
 20
80.1884
 11
-2.1869
 21
80.4464
  0
LINE
  8
0
 10
-2.1869
 20
80.4464
 11
-2.42705
 21
80.7366
  0
LINE
  8
0
 10
-2.42705
 20
80.7366
 11
-2.62891
 21
81.0547
  0
LINE
  8
0
 10
-2.62891
 20
81.0547
 11
-2.78932
 21
81.3956
  0
LINE
  8
0
 10
-2.78932
 20
81.3956
 11
-2.90575
 21
81.7539
  0
LINE
  8
0
 10
-2.90575
 20
81.7539
 11
-2.97633
 21
82.124
  0
LINE
  8
0
 10
-2.97633
 20
82.124
 11
-3
 21
82.5
  0
LINE
  8
0
 10
-3
 20
82.5
 11
-2.97633
 21
82.876
  0
LINE
  8
0
 10
-2.97633
 20
82.876
 11
-2.90575
 21
83.2461
  0
LINE
  8
0
 10
-2.90575
 20
83.2461
 11
-2.78932
 21
83.6044
  0
LINE
  8
0
 10
-2.78932
 20
83.6044
 11
-2.62891
 21
83.9453
  0
LINE
  8
0
 10
-2.62891
 20
83.9453
 11
-2.42705
 21
84.2634
  0
LINE
  8
0
 10
-2.42705
 20
84.2634
 11
-2.1869
 21
84.5536
  0
LINE
  8
0
 10
-2.1869
 20
84.5536
 11
-1.91226
 21
84.8115
  0
LINE
  8
0
 10
-1.91226
 20
84.8115
 11
-1.60747
 21
85.033
  0
LINE
  8
0
 10
-1.60747
 20
85.033
 11
-1.27733
 21
85.2145
  0
LINE
  8
0
 10
-1.27733
 20
85.2145
 11
-0.927048
 21
85.3532
  0
LINE
  8
0
 10
-0.927048
 20
85.3532
 11
-0.562134
 21
85.4469
  0
LINE
  8
0
 10
-0.562134
 20
85.4469
 11
-0.18837
 21
85.4941
  0
LINE
  8
0
 10
-0.18837
 20
85.4941
 11
0.18837
 21
85.4941
  0
LINE
  8
0
 10
0.18837
 20
85.4941
 11
0.562134
 21
85.4469
  0
LINE
  8
0
 10
0.562134
 20
85.4469
 11
0.927048
 21
85.3532
  0
LINE
  8
0
 10
0.927048
 20
85.3532
 11
1.27733
 21
85.2145
  0
LINE
  8
0
 10
1.27733
 20
85.2145
 11
1.60747
 21
85.033
  0
LINE
  8
0
 10
1.60747
 20
85.033
 11
1.91226
 21
84.8115
  0
LINE
  8
0
 10
1.91226
 20
84.8115
 11
2.1869
 21
84.5536
  0
LINE
  8
0
 10
2.1869
 20
84.5536
 11
2.42705
 21
84.2634
  0
LINE
  8
0
 10
2.42705
 20
84.2634
 11
2.62891
 21
83.9453
  0
LINE
  8
0
 10
2.62891
 20
83.9453
 11
2.78932
 21
83.6044
  0
LINE
  8
0
 10
2.78932
 20
83.6044
 11
2.90575
 21
83.2461
  0
LINE
  8
0
 10
2.90575
 20
83.2461
 11
2.97633
 21
82.876
  0
LINE
  8
0
 10
2.97633
 20
82.876
 11
3
 21
82.5
  0
LINE
  8
0
 10
3
 20
82.5
 11
2.97633
 21
82.124
  0
LINE
  8
0
 10
2.97633
 20
82.124
 11
2.90575
 21
81.7539
  0
LINE
  8
0
 10
2.90575
 20
81.7539
 11
2.78932
 21
81.3956
  0
LINE
  8
0
 10
2.78932
 20
81.3956
 11
2.62891
 21
81.0547
  0
LINE
  8
0
 10
2.62891
 20
81.0547
 11
2.42705
 21
80.7366
  0
LINE
  8
0
 10
2.42705
 20
80.7366
 11
2.1869
 21
80.4464
  0
LINE
  8
0
 10
2.1869
 20
80.4464
 11
1.91226
 21
80.1884
  0
LINE
  8
0
 10
1.91226
 20
80.1884
 11
1.60747
 21
79.967
  0
LINE
  8
0
 10
1.60747
 20
79.967
 11
1.27733
 21
79.7855
  0
LINE
  8
0
 10
1.27733
 20
79.7855
 11
0.927048
 21
79.6468
  0
LINE
  8
0
 10
0.927048
 20
79.6468
 11
0.562134
 21
79.5531
  0
LINE
  8
0
 10
0.562134
 20
79.5531
 11
0.18837
 21
79.5059
  0
LINE
  8
0
 10
0.18837
 20
79.5059
 11
-0.18837
 21
79.5059
  0
LINE
  8
0
 10
14.8116
 20
79.5059
 11
14.4379
 21
79.5531
  0
LINE
  8
0
 10
14.4379
 20
79.5531
 11
14.0729
 21
79.6468
  0
LINE
  8
0
 10
14.0729
 20
79.6468
 11
13.7227
 21
79.7855
  0
LINE
  8
0
 10
13.7227
 20
79.7855
 11
13.3925
 21
79.967
  0
LINE
  8
0
 10
13.3925
 20
79.967
 11
13.0877
 21
80.1884
  0
LINE
  8
0
 10
13.0877
 20
80.1884
 11
12.8131
 21
80.4464
  0
LINE
  8
0
 10
12.8131
 20
80.4464
 11
12.5729
 21
80.7366
  0
LINE
  8
0
 10
12.5729
 20
80.7366
 11
12.3711
 21
81.0547
  0
LINE
  8
0
 10
12.3711
 20
81.0547
 11
12.2107
 21
81.3956
  0
LINE
  8
0
 10
12.2107
 20
81.3956
 11
12.0942
 21
81.7539
  0
LINE
  8
0
 10
12.0942
 20
81.7539
 11
12.0237
 21
82.124
  0
LINE
  8
0
 10
12.0237
 20
82.124
 11
12
 21
82.5
  0
LINE
  8
0
 10
12
 20
82.5
 11
12.0237
 21
82.876
  0
LINE
  8
0
 10
12.0237
 20
82.876
 11
12.0942
 21
83.2461
  0
LINE
  8
0
 10
12.0942
 20
83.2461
 11
12.2107
 21
83.6044
  0
LINE
  8
0
 10
12.2107
 20
83.6044
 11
12.3711
 21
83.9453
  0
LINE
  8
0
 10
12.3711
 20
83.9453
 11
12.5729
 21
84.2634
  0
LINE
  8
0
 10
12.5729
 20
84.2634
 11
12.8131
 21
84.5536
  0
LINE
  8
0
 10
12.8131
 20
84.5536
 11
13.0877
 21
84.8115
  0
LINE
  8
0
 10
13.0877
 20
84.8115
 11
13.3925
 21
85.033
  0
LINE
  8
0
 10
13.3925
 20
85.033
 11
13.7227
 21
85.2145
  0
LINE
  8
0
 10
13.7227
 20
85.2145
 11
14.0729
 21
85.3532
  0
LINE
  8
0
 10
14.0729
 20
85.3532
 11
14.4379
 21
85.4469
  0
LINE
  8
0
 10
14.4379
 20
85.4469
 11
14.8116
 21
85.4941
  0
LINE
  8
0
 10
14.8116
 20
85.4941
 11
15.1884
 21
85.4941
  0
LINE
  8
0
 10
15.1884
 20
85.4941
 11
15.5621
 21
85.4469
  0
LINE
  8
0
 10
15.5621
 20
85.4469
 11
15.927
 21
85.3532
  0
LINE
  8
0
 10
15.927
 20
85.3532
 11
16.2773
 21
85.2145
  0
LINE
  8
0
 10
16.2773
 20
85.2145
 11
16.6075
 21
85.033
  0
LINE
  8
0
 10
16.6075
 20
85.033
 11
16.9123
 21
84.8115
  0
LINE
  8
0
 10
16.9123
 20
84.8115
 11
17.1869
 21
84.5536
  0
LINE
  8
0
 10
17.1869
 20
84.5536
 11
17.427
 21
84.2634
  0
LINE
  8
0
 10
17.427
 20
84.2634
 11
17.6289
 21
83.9453
  0
LINE
  8
0
 10
17.6289
 20
83.9453
 11
17.7893
 21
83.6044
  0
LINE
  8
0
 10
17.7893
 20
83.6044
 11
17.9057
 21
83.2461
  0
LINE
  8
0
 10
17.9057
 20
83.2461
 11
17.9763
 21
82.876
  0
LINE
  8
0
 10
17.9763
 20
82.876
 11
18
 21
82.5
  0
LINE
  8
0
 10
18
 20
82.5
 11
17.9763
 21
82.124
  0
LINE
  8
0
 10
17.9763
 20
82.124
 11
17.9057
 21
81.7539
  0
LINE
  8
0
 10
17.9057
 20
81.7539
 11
17.7893
 21
81.3956
  0
LINE
  8
0
 10
17.7893
 20
81.3956
 11
17.6289
 21
81.0547
  0
LINE
  8
0
 10
17.6289
 20
81.0547
 11
17.427
 21
80.7366
  0
LINE
  8
0
 10
17.427
 20
80.7366
 11
17.1869
 21
80.4464
  0
LINE
  8
0
 10
17.1869
 20
80.4464
 11
16.9123
 21
80.1884
  0
LINE
  8
0
 10
16.9123
 20
80.1884
 11
16.6075
 21
79.967
  0
LINE
  8
0
 10
16.6075
 20
79.967
 11
16.2773
 21
79.7855
  0
LINE
  8
0
 10
16.2773
 20
79.7855
 11
15.927
 21
79.6468
  0
LINE
  8
0
 10
15.927
 20
79.6468
 11
15.5621
 21
79.5531
  0
LINE
  8
0
 10
15.5621
 20
79.5531
 11
15.1884
 21
79.5059
  0
LINE
  8
0
 10
15.1884
 20
79.5059
 11
14.8116
 21
79.5059
  0
LINE
  8
0
 10
-7.59418
 20
66.0029
 11
-7.78107
 21
66.0266
  0
LINE
  8
0
 10
-7.78107
 20
66.0266
 11
-7.96352
 21
66.0734
  0
LINE
  8
0
 10
-7.96352
 20
66.0734
 11
-8.13866
 21
66.1427
  0
LINE
  8
0
 10
-8.13866
 20
66.1427
 11
-8.30373
 21
66.2335
  0
LINE
  8
0
 10
-8.30373
 20
66.2335
 11
-8.45613
 21
66.3442
  0
LINE
  8
0
 10
-8.45613
 20
66.3442
 11
-8.59344
 21
66.4732
  0
LINE
  8
0
 10
-8.59344
 20
66.4732
 11
-8.71352
 21
66.6183
  0
LINE
  8
0
 10
-8.71352
 20
66.6183
 11
-8.81445
 21
66.7774
  0
LINE
  8
0
 10
-8.81445
 20
66.7774
 11
-8.89465
 21
66.9478
  0
LINE
  8
0
 10
-8.89465
 20
66.9478
 11
-8.95287
 21
67.127
  0
LINE
  8
0
 10
-8.95287
 20
67.127
 11
-8.98816
 21
67.312
  0
LINE
  8
0
 10
-8.98816
 20
67.312
 11
-9
 21
67.5
  0
LINE
  8
0
 10
-9
 20
67.5
 11
-8.98816
 21
67.688
  0
LINE
  8
0
 10
-8.98816
 20
67.688
 11
-8.95287
 21
67.873
  0
LINE
  8
0
 10
-8.95287
 20
67.873
 11
-8.89465
 21
68.0522
  0
LINE
  8
0
 10
-8.89465
 20
68.0522
 11
-8.81445
 21
68.2226
  0
LINE
  8
0
 10
-8.81445
 20
68.2226
 11
-8.71352
 21
68.3817
  0
LINE
  8
0
 10
-8.71352
 20
68.3817
 11
-8.59344
 21
68.5268
  0
LINE
  8
0
 10
-8.59344
 20
68.5268
 11
-8.45613
 21
68.6558
  0
LINE
  8
0
 10
-8.45613
 20
68.6558
 11
-8.30373
 21
68.7665
  0
LINE
  8
0
 10
-8.30373
 20
68.7665
 11
-8.13866
 21
68.8572
  0
LINE
  8
0
 10
-8.13866
 20
68.8572
 11
-7.96352
 21
68.9266
  0
LINE
  8
0
 10
-7.96352
 20
68.9266
 11
-7.78107
 21
68.9734
  0
LINE
  8
0
 10
-7.78107
 20
68.9734
 11
-7.59418
 21
68.997
  0
LINE
  8
0
 10
-7.59418
 20
68.997
 11
-7.40581
 21
68.997
  0
LINE
  8
0
 10
-7.40581
 20
68.997
 11
-7.21892
 21
68.9734
  0
LINE
  8
0
 10
-7.21892
 20
68.9734
 11
-7.03647
 21
68.9266
  0
LINE
  8
0
 10
-7.03647
 20
68.9266
 11
-6.86133
 21
68.8572
  0
LINE
  8
0
 10
-6.86133
 20
68.8572
 11
-6.69626
 21
68.7665
  0
LINE
  8
0
 10
-6.69626
 20
68.7665
 11
-6.54385
 21
68.6558
  0
LINE
  8
0
 10
-6.54385
 20
68.6558
 11
-6.40654
 21
68.5268
  0
LINE
  8
0
 10
-6.40654
 20
68.5268
 11
-6.28647
 21
68.3817
  0
LINE
  8
0
 10
-6.28647
 20
68.3817
 11
-6.18553
 21
68.2226
  0
LINE
  8
0
 10
-6.18553
 20
68.2226
 11
-6.10533
 21
68.0522
  0
LINE
  8
0
 10
-6.10533
 20
68.0522
 11
-6.04712
 21
67.873
  0
LINE
  8
0
 10
-6.04712
 20
67.873
 11
-6.01183
 21
67.688
  0
LINE
  8
0
 10
-6.01183
 20
67.688
 11
-6
 21
67.5
  0
LINE
  8
0
 10
-6
 20
67.5
 11
-6.01183
 21
67.312
  0
LINE
  8
0
 10
-6.01183
 20
67.312
 11
-6.04712
 21
67.127
  0
LINE
  8
0
 10
-6.04712
 20
67.127
 11
-6.10533
 21
66.9478
  0
LINE
  8
0
 10
-6.10533
 20
66.9478
 11
-6.18553
 21
66.7774
  0
LINE
  8
0
 10
-6.18553
 20
66.7774
 11
-6.28647
 21
66.6183
  0
LINE
  8
0
 10
-6.28647
 20
66.6183
 11
-6.40654
 21
66.4732
  0
LINE
  8
0
 10
-6.40654
 20
66.4732
 11
-6.54385
 21
66.3442
  0
LINE
  8
0
 10
-6.54385
 20
66.3442
 11
-6.69626
 21
66.2335
  0
LINE
  8
0
 10
-6.69626
 20
66.2335
 11
-6.86133
 21
66.1427
  0
LINE
  8
0
 10
-6.86133
 20
66.1427
 11
-7.03647
 21
66.0734
  0
LINE
  8
0
 10
-7.03647
 20
66.0734
 11
-7.21892
 21
66.0266
  0
LINE
  8
0
 10
-7.21892
 20
66.0266
 11
-7.40581
 21
66.0029
  0
LINE
  8
0
 10
-7.40581
 20
66.0029
 11
-7.59418
 21
66.0029
  0
LINE
  8
0
 10
7.40581
 20
66.0029
 11
7.21892
 21
66.0266
  0
LINE
  8
0
 10
7.21892
 20
66.0266
 11
7.03647
 21
66.0734
  0
LINE
  8
0
 10
7.03647
 20
66.0734
 11
6.86133
 21
66.1427
  0
LINE
  8
0
 10
6.86133
 20
66.1427
 11
6.69626
 21
66.2335
  0
LINE
  8
0
 10
6.69626
 20
66.2335
 11
6.54385
 21
66.3442
  0
LINE
  8
0
 10
6.54385
 20
66.3442
 11
6.40654
 21
66.4732
  0
LINE
  8
0
 10
6.40654
 20
66.4732
 11
6.28647
 21
66.6183
  0
LINE
  8
0
 10
6.28647
 20
66.6183
 11
6.18553
 21
66.7774
  0
LINE
  8
0
 10
6.18553
 20
66.7774
 11
6.10533
 21
66.9478
  0
LINE
  8
0
 10
6.10533
 20
66.9478
 11
6.04712
 21
67.127
  0
LINE
  8
0
 10
6.04712
 20
67.127
 11
6.01183
 21
67.312
  0
LINE
  8
0
 10
6.01183
 20
67.312
 11
6
 21
67.5
  0
LINE
  8
0
 10
6
 20
67.5
 11
6.01183
 21
67.688
  0
LINE
  8
0
 10
6.01183
 20
67.688
 11
6.04712
 21
67.873
  0
LINE
  8
0
 10
6.04712
 20
67.873
 11
6.10533
 21
68.0522
  0
LINE
  8
0
 10
6.10533
 20
68.0522
 11
6.18553
 21
68.2226
  0
LINE
  8
0
 10
6.18553
 20
68.2226
 11
6.28647
 21
68.3817
  0
LINE
  8
0
 10
6.28647
 20
68.3817
 11
6.40654
 21
68.5268
  0
LINE
  8
0
 10
6.40654
 20
68.5268
 11
6.54385
 21
68.6558
  0
LINE
  8
0
 10
6.54385
 20
68.6558
 11
6.69626
 21
68.7665
  0
LINE
  8
0
 10
6.69626
 20
68.7665
 11
6.86133
 21
68.8572
  0
LINE
  8
0
 10
6.86133
 20
68.8572
 11
7.03647
 21
68.9266
  0
LINE
  8
0
 10
7.03647
 20
68.9266
 11
7.21892
 21
68.9734
  0
LINE
  8
0
 10
7.21892
 20
68.9734
 11
7.40581
 21
68.997
  0
LINE
  8
0
 10
7.40581
 20
68.997
 11
7.59418
 21
68.997
  0
LINE
  8
0
 10
7.59418
 20
68.997
 11
7.78107
 21
68.9734
  0
LINE
  8
0
 10
7.78107
 20
68.9734
 11
7.96352
 21
68.9266
  0
LINE
  8
0
 10
7.96352
 20
68.9266
 11
8.13866
 21
68.8572
  0
LINE
  8
0
 10
8.13866
 20
68.8572
 11
8.30373
 21
68.7665
  0
LINE
  8
0
 10
8.30373
 20
68.7665
 11
8.45613
 21
68.6558
  0
LINE
  8
0
 10
8.45613
 20
68.6558
 11
8.59344
 21
68.5268
  0
LINE
  8
0
 10
8.59344
 20
68.5268
 11
8.71352
 21
68.3817
  0
LINE
  8
0
 10
8.71352
 20
68.3817
 11
8.81445
 21
68.2226
  0
LINE
  8
0
 10
8.81445
 20
68.2226
 11
8.89465
 21
68.0522
  0
LINE
  8
0
 10
8.89465
 20
68.0522
 11
8.95287
 21
67.873
  0
LINE
  8
0
 10
8.95287
 20
67.873
 11
8.98816
 21
67.688
  0
LINE
  8
0
 10
8.98816
 20
67.688
 11
9
 21
67.5
  0
LINE
  8
0
 10
9
 20
67.5
 11
8.98816
 21
67.312
  0
LINE
  8
0
 10
8.98816
 20
67.312
 11
8.95287
 21
67.127
  0
LINE
  8
0
 10
8.95287
 20
67.127
 11
8.89465
 21
66.9478
  0
LINE
  8
0
 10
8.89465
 20
66.9478
 11
8.81445
 21
66.7774
  0
LINE
  8
0
 10
8.81445
 20
66.7774
 11
8.71352
 21
66.6183
  0
LINE
  8
0
 10
8.71352
 20
66.6183
 11
8.59344
 21
66.4732
  0
LINE
  8
0
 10
8.59344
 20
66.4732
 11
8.45613
 21
66.3442
  0
LINE
  8
0
 10
8.45613
 20
66.3442
 11
8.30373
 21
66.2335
  0
LINE
  8
0
 10
8.30373
 20
66.2335
 11
8.13866
 21
66.1427
  0
LINE
  8
0
 10
8.13866
 20
66.1427
 11
7.96352
 21
66.0734
  0
LINE
  8
0
 10
7.96352
 20
66.0734
 11
7.78107
 21
66.0266
  0
LINE
  8
0
 10
7.78107
 20
66.0266
 11
7.59418
 21
66.0029
  0
LINE
  8
0
 10
7.59418
 20
66.0029
 11
7.40581
 21
66.0029
  0
LINE
  8
0
 10
22
 20
45.5
 11
21.9606
 21
46.1267
  0
LINE
  8
0
 10
21.9606
 20
46.1267
 11
21.8429
 21
46.7434
  0
LINE
  8
0
 10
21.8429
 20
46.7434
 11
21.6489
 21
47.3406
  0
LINE
  8
0
 10
21.6489
 20
47.3406
 11
21.3815
 21
47.9088
  0
LINE
  8
0
 10
21.3815
 20
47.9088
 11
21.0451
 21
48.4389
  0
LINE
  8
0
 10
21.0451
 20
48.4389
 11
20.6448
 21
48.9227
  0
LINE
  8
0
 10
20.6448
 20
48.9227
 11
20.1871
 21
49.3526
  0
LINE
  8
0
 10
20.1871
 20
49.3526
 11
19.6791
 21
49.7216
  0
LINE
  8
0
 10
19.6791
 20
49.7216
 11
19.1289
 21
50.0241
  0
LINE
  8
0
 10
19.1289
 20
50.0241
 11
18.5451
 21
50.2553
  0
LINE
  8
0
 10
18.5451
 20
50.2553
 11
17.9369
 21
50.4114
  0
LINE
  8
0
 10
17.9369
 20
50.4114
 11
17.3139
 21
50.4901
  0
LINE
  8
0
 10
17.3139
 20
50.4901
 11
-17.3139
 21
50.4901
  0
LINE
  8
0
 10
-17.3139
 20
50.4901
 11
-17.9369
 21
50.4114
  0
LINE
  8
0
 10
-17.9369
 20
50.4114
 11
-18.5451
 21
50.2553
  0
LINE
  8
0
 10
-18.5451
 20
50.2553
 11
-19.1289
 21
50.0241
  0
LINE
  8
0
 10
-19.1289
 20
50.0241
 11
-19.6791
 21
49.7216
  0
LINE
  8
0
 10
-19.6791
 20
49.7216
 11
-20.1871
 21
49.3526
  0
LINE
  8
0
 10
-20.1871
 20
49.3526
 11
-20.6448
 21
48.9227
  0
LINE
  8
0
 10
-20.6448
 20
48.9227
 11
-21.0451
 21
48.4389
  0
LINE
  8
0
 10
-21.0451
 20
48.4389
 11
-21.3815
 21
47.9088
  0
LINE
  8
0
 10
-21.3815
 20
47.9088
 11
-21.6489
 21
47.3406
  0
LINE
  8
0
 10
-21.6489
 20
47.3406
 11
-21.8429
 21
46.7434
  0
LINE
  8
0
 10
-21.8429
 20
46.7434
 11
-21.9606
 21
46.1267
  0
LINE
  8
0
 10
-21.9606
 20
46.1267
 11
-22
 21
45.5
  0
LINE
  8
0
 10
-22
 20
45.5
 11
-22
 21
0
  0
LINE
  8
0
 10
-22
 20
0
 11
22
 21
0
  0
LINE
  8
0
 10
22
 20
0
 11
22
 21
45.5
  0
LINE
  8
0
 10
-15.1884
 20
40.5059
 11
-15.5621
 21
40.5531
  0
LINE
  8
0
 10
-15.5621
 20
40.5531
 11
-15.927
 21
40.6468
  0
LINE
  8
0
 10
-15.927
 20
40.6468
 11
-16.2773
 21
40.7855
  0
LINE
  8
0
 10
-16.2773
 20
40.7855
 11
-16.6075
 21
40.967
  0
LINE
  8
0
 10
-16.6075
 20
40.967
 11
-16.9123
 21
41.1885
  0
LINE
  8
0
 10
-16.9123
 20
41.1885
 11
-17.1869
 21
41.4464
  0
LINE
  8
0
 10
-17.1869
 20
41.4464
 11
-17.427
 21
41.7366
  0
LINE
  8
0
 10
-17.427
 20
41.7366
 11
-17.6289
 21
42.0547
  0
LINE
  8
0
 10
-17.6289
 20
42.0547
 11
-17.7893
 21
42.3956
  0
LINE
  8
0
 10
-17.7893
 20
42.3956
 11
-17.9057
 21
42.7539
  0
LINE
  8
0
 10
-17.9057
 20
42.7539
 11
-17.9763
 21
43.124
  0
LINE
  8
0
 10
-17.9763
 20
43.124
 11
-18
 21
43.5
  0
LINE
  8
0
 10
-18
 20
43.5
 11
-17.9763
 21
43.876
  0
LINE
  8
0
 10
-17.9763
 20
43.876
 11
-17.9057
 21
44.2461
  0
LINE
  8
0
 10
-17.9057
 20
44.2461
 11
-17.7893
 21
44.6044
  0
LINE
  8
0
 10
-17.7893
 20
44.6044
 11
-17.6289
 21
44.9453
  0
LINE
  8
0
 10
-17.6289
 20
44.9453
 11
-17.427
 21
45.2634
  0
LINE
  8
0
 10
-17.427
 20
45.2634
 11
-17.1869
 21
45.5536
  0
LINE
  8
0
 10
-17.1869
 20
45.5536
 11
-16.9123
 21
45.8115
  0
LINE
  8
0
 10
-16.9123
 20
45.8115
 11
-16.6075
 21
46.033
  0
LINE
  8
0
 10
-16.6075
 20
46.033
 11
-16.2773
 21
46.2145
  0
LINE
  8
0
 10
-16.2773
 20
46.2145
 11
-15.927
 21
46.3532
  0
LINE
  8
0
 10
-15.927
 20
46.3532
 11
-15.5621
 21
46.4469
  0
LINE
  8
0
 10
-15.5621
 20
46.4469
 11
-15.1884
 21
46.4941
  0
LINE
  8
0
 10
-15.1884
 20
46.4941
 11
-14.8116
 21
46.4941
  0
LINE
  8
0
 10
-14.8116
 20
46.4941
 11
-14.4379
 21
46.4469
  0
LINE
  8
0
 10
-14.4379
 20
46.4469
 11
-14.0729
 21
46.3532
  0
LINE
  8
0
 10
-14.0729
 20
46.3532
 11
-13.7227
 21
46.2145
  0
LINE
  8
0
 10
-13.7227
 20
46.2145
 11
-13.3925
 21
46.033
  0
LINE
  8
0
 10
-13.3925
 20
46.033
 11
-13.0877
 21
45.8115
  0
LINE
  8
0
 10
-13.0877
 20
45.8115
 11
-12.8131
 21
45.5536
  0
LINE
  8
0
 10
-12.8131
 20
45.5536
 11
-12.5729
 21
45.2634
  0
LINE
  8
0
 10
-12.5729
 20
45.2634
 11
-12.3711
 21
44.9453
  0
LINE
  8
0
 10
-12.3711
 20
44.9453
 11
-12.2107
 21
44.6044
  0
LINE
  8
0
 10
-12.2107
 20
44.6044
 11
-12.0942
 21
44.2461
  0
LINE
  8
0
 10
-12.0942
 20
44.2461
 11
-12.0237
 21
43.876
  0
LINE
  8
0
 10
-12.0237
 20
43.876
 11
-12
 21
43.5
  0
LINE
  8
0
 10
-12
 20
43.5
 11
-12.0237
 21
43.124
  0
LINE
  8
0
 10
-12.0237
 20
43.124
 11
-12.0942
 21
42.7539
  0
LINE
  8
0
 10
-12.0942
 20
42.7539
 11
-12.2107
 21
42.3956
  0
LINE
  8
0
 10
-12.2107
 20
42.3956
 11
-12.3711
 21
42.0547
  0
LINE
  8
0
 10
-12.3711
 20
42.0547
 11
-12.5729
 21
41.7366
  0
LINE
  8
0
 10
-12.5729
 20
41.7366
 11
-12.8131
 21
41.4464
  0
LINE
  8
0
 10
-12.8131
 20
41.4464
 11
-13.0877
 21
41.1885
  0
LINE
  8
0
 10
-13.0877
 20
41.1885
 11
-13.3925
 21
40.967
  0
LINE
  8
0
 10
-13.3925
 20
40.967
 11
-13.7227
 21
40.7855
  0
LINE
  8
0
 10
-13.7227
 20
40.7855
 11
-14.0729
 21
40.6468
  0
LINE
  8
0
 10
-14.0729
 20
40.6468
 11
-14.4379
 21
40.5531
  0
LINE
  8
0
 10
-14.4379
 20
40.5531
 11
-14.8116
 21
40.5059
  0
LINE
  8
0
 10
-14.8116
 20
40.5059
 11
-15.1884
 21
40.5059
  0
LINE
  8
0
 10
-0.18837
 20
40.5059
 11
-0.562134
 21
40.5531
  0
LINE
  8
0
 10
-0.562134
 20
40.5531
 11
-0.927048
 21
40.6468
  0
LINE
  8
0
 10
-0.927048
 20
40.6468
 11
-1.27733
 21
40.7855
  0
LINE
  8
0
 10
-1.27733
 20
40.7855
 11
-1.60747
 21
40.967
  0
LINE
  8
0
 10
-1.60747
 20
40.967
 11
-1.91226
 21
41.1885
  0
LINE
  8
0
 10
-1.91226
 20
41.1885
 11
-2.1869
 21
41.4464
  0
LINE
  8
0
 10
-2.1869
 20
41.4464
 11
-2.42705
 21
41.7366
  0
LINE
  8
0
 10
-2.42705
 20
41.7366
 11
-2.62891
 21
42.0547
  0
LINE
  8
0
 10
-2.62891
 20
42.0547
 11
-2.78932
 21
42.3956
  0
LINE
  8
0
 10
-2.78932
 20
42.3956
 11
-2.90575
 21
42.7539
  0
LINE
  8
0
 10
-2.90575
 20
42.7539
 11
-2.97633
 21
43.124
  0
LINE
  8
0
 10
-2.97633
 20
43.124
 11
-3
 21
43.5
  0
LINE
  8
0
 10
-3
 20
43.5
 11
-2.97633
 21
43.876
  0
LINE
  8
0
 10
-2.97633
 20
43.876
 11
-2.90575
 21
44.2461
  0
LINE
  8
0
 10
-2.90575
 20
44.2461
 11
-2.78932
 21
44.6044
  0
LINE
  8
0
 10
-2.78932
 20
44.6044
 11
-2.62891
 21
44.9453
  0
LINE
  8
0
 10
-2.62891
 20
44.9453
 11
-2.42705
 21
45.2634
  0
LINE
  8
0
 10
-2.42705
 20
45.2634
 11
-2.1869
 21
45.5536
  0
LINE
  8
0
 10
-2.1869
 20
45.5536
 11
-1.91226
 21
45.8115
  0
LINE
  8
0
 10
-1.91226
 20
45.8115
 11
-1.60747
 21
46.033
  0
LINE
  8
0
 10
-1.60747
 20
46.033
 11
-1.27733
 21
46.2145
  0
LINE
  8
0
 10
-1.27733
 20
46.2145
 11
-0.927048
 21
46.3532
  0
LINE
  8
0
 10
-0.927048
 20
46.3532
 11
-0.562134
 21
46.4469
  0
LINE
  8
0
 10
-0.562134
 20
46.4469
 11
-0.18837
 21
46.4941
  0
LINE
  8
0
 10
-0.18837
 20
46.4941
 11
0.18837
 21
46.4941
  0
LINE
  8
0
 10
0.18837
 20
46.4941
 11
0.562134
 21
46.4469
  0
LINE
  8
0
 10
0.562134
 20
46.4469
 11
0.927048
 21
46.3532
  0
LINE
  8
0
 10
0.927048
 20
46.3532
 11
1.27733
 21
46.2145
  0
LINE
  8
0
 10
1.27733
 20
46.2145
 11
1.60747
 21
46.033
  0
LINE
  8
0
 10
1.60747
 20
46.033
 11
1.91226
 21
45.8115
  0
LINE
  8
0
 10
1.91226
 20
45.8115
 11
2.1869
 21
45.5536
  0
LINE
  8
0
 10
2.1869
 20
45.5536
 11
2.42705
 21
45.2634
  0
LINE
  8
0
 10
2.42705
 20
45.2634
 11
2.62891
 21
44.9453
  0
LINE
  8
0
 10
2.62891
 20
44.9453
 11
2.78932
 21
44.6044
  0
LINE
  8
0
 10
2.78932
 20
44.6044
 11
2.90575
 21
44.2461
  0
LINE
  8
0
 10
2.90575
 20
44.2461
 11
2.97633
 21
43.876
  0
LINE
  8
0
 10
2.97633
 20
43.876
 11
3
 21
43.5
  0
LINE
  8
0
 10
3
 20
43.5
 11
2.97633
 21
43.124
  0
LINE
  8
0
 10
2.97633
 20
43.124
 11
2.90575
 21
42.7539
  0
LINE
  8
0
 10
2.90575
 20
42.7539
 11
2.78932
 21
42.3956
  0
LINE
  8
0
 10
2.78932
 20
42.3956
 11
2.62891
 21
42.0547
  0
LINE
  8
0
 10
2.62891
 20
42.0547
 11
2.42705
 21
41.7366
  0
LINE
  8
0
 10
2.42705
 20
41.7366
 11
2.1869
 21
41.4464
  0
LINE
  8
0
 10
2.1869
 20
41.4464
 11
1.91226
 21
41.1885
  0
LINE
  8
0
 10
1.91226
 20
41.1885
 11
1.60747
 21
40.967
  0
LINE
  8
0
 10
1.60747
 20
40.967
 11
1.27733
 21
40.7855
  0
LINE
  8
0
 10
1.27733
 20
40.7855
 11
0.927048
 21
40.6468
  0
LINE
  8
0
 10
0.927048
 20
40.6468
 11
0.562134
 21
40.5531
  0
LINE
  8
0
 10
0.562134
 20
40.5531
 11
0.18837
 21
40.5059
  0
LINE
  8
0
 10
0.18837
 20
40.5059
 11
-0.18837
 21
40.5059
  0
LINE
  8
0
 10
14.8116
 20
40.5059
 11
14.4379
 21
40.5531
  0
LINE
  8
0
 10
14.4379
 20
40.5531
 11
14.0729
 21
40.6468
  0
LINE
  8
0
 10
14.0729
 20
40.6468
 11
13.7227
 21
40.7855
  0
LINE
  8
0
 10
13.7227
 20
40.7855
 11
13.3925
 21
40.967
  0
LINE
  8
0
 10
13.3925
 20
40.967
 11
13.0877
 21
41.1885
  0
LINE
  8
0
 10
13.0877
 20
41.1885
 11
12.8131
 21
41.4464
  0
LINE
  8
0
 10
12.8131
 20
41.4464
 11
12.5729
 21
41.7366
  0
LINE
  8
0
 10
12.5729
 20
41.7366
 11
12.3711
 21
42.0547
  0
LINE
  8
0
 10
12.3711
 20
42.0547
 11
12.2107
 21
42.3956
  0
LINE
  8
0
 10
12.2107
 20
42.3956
 11
12.0942
 21
42.7539
  0
LINE
  8
0
 10
12.0942
 20
42.7539
 11
12.0237
 21
43.124
  0
LINE
  8
0
 10
12.0237
 20
43.124
 11
12
 21
43.5
  0
LINE
  8
0
 10
12
 20
43.5
 11
12.0237
 21
43.876
  0
LINE
  8
0
 10
12.0237
 20
43.876
 11
12.0942
 21
44.2461
  0
LINE
  8
0
 10
12.0942
 20
44.2461
 11
12.2107
 21
44.6044
  0
LINE
  8
0
 10
12.2107
 20
44.6044
 11
12.3711
 21
44.9453
  0
LINE
  8
0
 10
12.3711
 20
44.9453
 11
12.5729
 21
45.2634
  0
LINE
  8
0
 10
12.5729
 20
45.2634
 11
12.8131
 21
45.5536
  0
LINE
  8
0
 10
12.8131
 20
45.5536
 11
13.0877
 21
45.8115
  0
LINE
  8
0
 10
13.0877
 20
45.8115
 11
13.3925
 21
46.033
  0
LINE
  8
0
 10
13.3925
 20
46.033
 11
13.7227
 21
46.2145
  0
LINE
  8
0
 10
13.7227
 20
46.2145
 11
14.0729
 21
46.3532
  0
LINE
  8
0
 10
14.0729
 20
46.3532
 11
14.4379
 21
46.4469
  0
LINE
  8
0
 10
14.4379
 20
46.4469
 11
14.8116
 21
46.4941
  0
LINE
  8
0
 10
14.8116
 20
46.4941
 11
15.1884
 21
46.4941
  0
LINE
  8
0
 10
15.1884
 20
46.4941
 11
15.5621
 21
46.4469
  0
LINE
  8
0
 10
15.5621
 20
46.4469
 11
15.927
 21
46.3532
  0
LINE
  8
0
 10
15.927
 20
46.3532
 11
16.2773
 21
46.2145
  0
LINE
  8
0
 10
16.2773
 20
46.2145
 11
16.6075
 21
46.033
  0
LINE
  8
0
 10
16.6075
 20
46.033
 11
16.9123
 21
45.8115
  0
LINE
  8
0
 10
16.9123
 20
45.8115
 11
17.1869
 21
45.5536
  0
LINE
  8
0
 10
17.1869
 20
45.5536
 11
17.427
 21
45.2634
  0
LINE
  8
0
 10
17.427
 20
45.2634
 11
17.6289
 21
44.9453
  0
LINE
  8
0
 10
17.6289
 20
44.9453
 11
17.7893
 21
44.6044
  0
LINE
  8
0
 10
17.7893
 20
44.6044
 11
17.9057
 21
44.2461
  0
LINE
  8
0
 10
17.9057
 20
44.2461
 11
17.9763
 21
43.876
  0
LINE
  8
0
 10
17.9763
 20
43.876
 11
18
 21
43.5
  0
LINE
  8
0
 10
18
 20
43.5
 11
17.9763
 21
43.124
  0
LINE
  8
0
 10
17.9763
 20
43.124
 11
17.9057
 21
42.7539
  0
LINE
  8
0
 10
17.9057
 20
42.7539
 11
17.7893
 21
42.3956
  0
LINE
  8
0
 10
17.7893
 20
42.3956
 11
17.6289
 21
42.0547
  0
LINE
  8
0
 10
17.6289
 20
42.0547
 11
17.427
 21
41.7366
  0
LINE
  8
0
 10
17.427
 20
41.7366
 11
17.1869
 21
41.4464
  0
LINE
  8
0
 10
17.1869
 20
41.4464
 11
16.9123
 21
41.1885
  0
LINE
  8
0
 10
16.9123
 20
41.1885
 11
16.6075
 21
40.967
  0
LINE
  8
0
 10
16.6075
 20
40.967
 11
16.2773
 21
40.7855
  0
LINE
  8
0
 10
16.2773
 20
40.7855
 11
15.927
 21
40.6468
  0
LINE
  8
0
 10
15.927
 20
40.6468
 11
15.5621
 21
40.5531
  0
LINE
  8
0
 10
15.5621
 20
40.5531
 11
15.1884
 21
40.5059
  0
LINE
  8
0
 10
15.1884
 20
40.5059
 11
14.8116
 21
40.5059
  0
LINE
  8
0
 10
-15.1884
 20
25.5059
 11
-15.5621
 21
25.5531
  0
LINE
  8
0
 10
-15.5621
 20
25.5531
 11
-15.927
 21
25.6468
  0
LINE
  8
0
 10
-15.927
 20
25.6468
 11
-16.2773
 21
25.7855
  0
LINE
  8
0
 10
-16.2773
 20
25.7855
 11
-16.6075
 21
25.967
  0
LINE
  8
0
 10
-16.6075
 20
25.967
 11
-16.9123
 21
26.1884
  0
LINE
  8
0
 10
-16.9123
 20
26.1884
 11
-17.1869
 21
26.4464
  0
LINE
  8
0
 10
-17.1869
 20
26.4464
 11
-17.427
 21
26.7366
  0
LINE
  8
0
 10
-17.427
 20
26.7366
 11
-17.6289
 21
27.0547
  0
LINE
  8
0
 10
-17.6289
 20
27.0547
 11
-17.7893
 21
27.3956
  0
LINE
  8
0
 10
-17.7893
 20
27.3956
 11
-17.9057
 21
27.7539
  0
LINE
  8
0
 10
-17.9057
 20
27.7539
 11
-17.9763
 21
28.124
  0
LINE
  8
0
 10
-17.9763
 20
28.124
 11
-18
 21
28.5
  0
LINE
  8
0
 10
-18
 20
28.5
 11
-17.9763
 21
28.876
  0
LINE
  8
0
 10
-17.9763
 20
28.876
 11
-17.9057
 21
29.2461
  0
LINE
  8
0
 10
-17.9057
 20
29.2461
 11
-17.7893
 21
29.6044
  0
LINE
  8
0
 10
-17.7893
 20
29.6044
 11
-17.6289
 21
29.9453
  0
LINE
  8
0
 10
-17.6289
 20
29.9453
 11
-17.427
 21
30.2634
  0
LINE
  8
0
 10
-17.427
 20
30.2634
 11
-17.1869
 21
30.5536
  0
LINE
  8
0
 10
-17.1869
 20
30.5536
 11
-16.9123
 21
30.8115
  0
LINE
  8
0
 10
-16.9123
 20
30.8115
 11
-16.6075
 21
31.033
  0
LINE
  8
0
 10
-16.6075
 20
31.033
 11
-16.2773
 21
31.2145
  0
LINE
  8
0
 10
-16.2773
 20
31.2145
 11
-15.927
 21
31.3532
  0
LINE
  8
0
 10
-15.927
 20
31.3532
 11
-15.5621
 21
31.4469
  0
LINE
  8
0
 10
-15.5621
 20
31.4469
 11
-15.1884
 21
31.4941
  0
LINE
  8
0
 10
-15.1884
 20
31.4941
 11
-14.8116
 21
31.4941
  0
LINE
  8
0
 10
-14.8116
 20
31.4941
 11
-14.4379
 21
31.4469
  0
LINE
  8
0
 10
-14.4379
 20
31.4469
 11
-14.0729
 21
31.3532
  0
LINE
  8
0
 10
-14.0729
 20
31.3532
 11
-13.7227
 21
31.2145
  0
LINE
  8
0
 10
-13.7227
 20
31.2145
 11
-13.3925
 21
31.033
  0
LINE
  8
0
 10
-13.3925
 20
31.033
 11
-13.0877
 21
30.8115
  0
LINE
  8
0
 10
-13.0877
 20
30.8115
 11
-12.8131
 21
30.5536
  0
LINE
  8
0
 10
-12.8131
 20
30.5536
 11
-12.5729
 21
30.2634
  0
LINE
  8
0
 10
-12.5729
 20
30.2634
 11
-12.3711
 21
29.9453
  0
LINE
  8
0
 10
-12.3711
 20
29.9453
 11
-12.2107
 21
29.6044
  0
LINE
  8
0
 10
-12.2107
 20
29.6044
 11
-12.0942
 21
29.2461
  0
LINE
  8
0
 10
-12.0942
 20
29.2461
 11
-12.0237
 21
28.876
  0
LINE
  8
0
 10
-12.0237
 20
28.876
 11
-12
 21
28.5
  0
LINE
  8
0
 10
-12
 20
28.5
 11
-12.0237
 21
28.124
  0
LINE
  8
0
 10
-12.0237
 20
28.124
 11
-12.0942
 21
27.7539
  0
LINE
  8
0
 10
-12.0942
 20
27.7539
 11
-12.2107
 21
27.3956
  0
LINE
  8
0
 10
-12.2107
 20
27.3956
 11
-12.3711
 21
27.0547
  0
LINE
  8
0
 10
-12.3711
 20
27.0547
 11
-12.5729
 21
26.7366
  0
LINE
  8
0
 10
-12.5729
 20
26.7366
 11
-12.8131
 21
26.4464
  0
LINE
  8
0
 10
-12.8131
 20
26.4464
 11
-13.0877
 21
26.1884
  0
LINE
  8
0
 10
-13.0877
 20
26.1884
 11
-13.3925
 21
25.967
  0
LINE
  8
0
 10
-13.3925
 20
25.967
 11
-13.7227
 21
25.7855
  0
LINE
  8
0
 10
-13.7227
 20
25.7855
 11
-14.0729
 21
25.6468
  0
LINE
  8
0
 10
-14.0729
 20
25.6468
 11
-14.4379
 21
25.5531
  0
LINE
  8
0
 10
-14.4379
 20
25.5531
 11
-14.8116
 21
25.5059
  0
LINE
  8
0
 10
-14.8116
 20
25.5059
 11
-15.1884
 21
25.5059
  0
LINE
  8
0
 10
14.8116
 20
25.5059
 11
14.4379
 21
25.5531
  0
LINE
  8
0
 10
14.4379
 20
25.5531
 11
14.0729
 21
25.6468
  0
LINE
  8
0
 10
14.0729
 20
25.6468
 11
13.7227
 21
25.7855
  0
LINE
  8
0
 10
13.7227
 20
25.7855
 11
13.3925
 21
25.967
  0
LINE
  8
0
 10
13.3925
 20
25.967
 11
13.0877
 21
26.1884
  0
LINE
  8
0
 10
13.0877
 20
26.1884
 11
12.8131
 21
26.4464
  0
LINE
  8
0
 10
12.8131
 20
26.4464
 11
12.5729
 21
26.7366
  0
LINE
  8
0
 10
12.5729
 20
26.7366
 11
12.3711
 21
27.0547
  0
LINE
  8
0
 10
12.3711
 20
27.0547
 11
12.2107
 21
27.3956
  0
LINE
  8
0
 10
12.2107
 20
27.3956
 11
12.0942
 21
27.7539
  0
LINE
  8
0
 10
12.0942
 20
27.7539
 11
12.0237
 21
28.124
  0
LINE
  8
0
 10
12.0237
 20
28.124
 11
12
 21
28.5
  0
LINE
  8
0
 10
12
 20
28.5
 11
12.0237
 21
28.876
  0
LINE
  8
0
 10
12.0237
 20
28.876
 11
12.0942
 21
29.2461
  0
LINE
  8
0
 10
12.0942
 20
29.2461
 11
12.2107
 21
29.6044
  0
LINE
  8
0
 10
12.2107
 20
29.6044
 11
12.3711
 21
29.9453
  0
LINE
  8
0
 10
12.3711
 20
29.9453
 11
12.5729
 21
30.2634
  0
LINE
  8
0
 10
12.5729
 20
30.2634
 11
12.8131
 21
30.5536
  0
LINE
  8
0
 10
12.8131
 20
30.5536
 11
13.0877
 21
30.8115
  0
LINE
  8
0
 10
13.0877
 20
30.8115
 11
13.3925
 21
31.033
  0
LINE
  8
0
 10
13.3925
 20
31.033
 11
13.7227
 21
31.2145
  0
LINE
  8
0
 10
13.7227
 20
31.2145
 11
14.0729
 21
31.3532
  0
LINE
  8
0
 10
14.0729
 20
31.3532
 11
14.4379
 21
31.4469
  0
LINE
  8
0
 10
14.4379
 20
31.4469
 11
14.8116
 21
31.4941
  0
LINE
  8
0
 10
14.8116
 20
31.4941
 11
15.1884
 21
31.4941
  0
LINE
  8
0
 10
15.1884
 20
31.4941
 11
15.5621
 21
31.4469
  0
LINE
  8
0
 10
15.5621
 20
31.4469
 11
15.927
 21
31.3532
  0
LINE
  8
0
 10
15.927
 20
31.3532
 11
16.2773
 21
31.2145
  0
LINE
  8
0
 10
16.2773
 20
31.2145
 11
16.6075
 21
31.033
  0
LINE
  8
0
 10
16.6075
 20
31.033
 11
16.9123
 21
30.8115
  0
LINE
  8
0
 10
16.9123
 20
30.8115
 11
17.1869
 21
30.5536
  0
LINE
  8
0
 10
17.1869
 20
30.5536
 11
17.427
 21
30.2634
  0
LINE
  8
0
 10
17.427
 20
30.2634
 11
17.6289
 21
29.9453
  0
LINE
  8
0
 10
17.6289
 20
29.9453
 11
17.7893
 21
29.6044
  0
LINE
  8
0
 10
17.7893
 20
29.6044
 11
17.9057
 21
29.2461
  0
LINE
  8
0
 10
17.9057
 20
29.2461
 11
17.9763
 21
28.876
  0
LINE
  8
0
 10
17.9763
 20
28.876
 11
18
 21
28.5
  0
LINE
  8
0
 10
18
 20
28.5
 11
17.9763
 21
28.124
  0
LINE
  8
0
 10
17.9763
 20
28.124
 11
17.9057
 21
27.7539
  0
LINE
  8
0
 10
17.9057
 20
27.7539
 11
17.7893
 21
27.3956
  0
LINE
  8
0
 10
17.7893
 20
27.3956
 11
17.6289
 21
27.0547
  0
LINE
  8
0
 10
17.6289
 20
27.0547
 11
17.427
 21
26.7366
  0
LINE
  8
0
 10
17.427
 20
26.7366
 11
17.1869
 21
26.4464
  0
LINE
  8
0
 10
17.1869
 20
26.4464
 11
16.9123
 21
26.1884
  0
LINE
  8
0
 10
16.9123
 20
26.1884
 11
16.6075
 21
25.967
  0
LINE
  8
0
 10
16.6075
 20
25.967
 11
16.2773
 21
25.7855
  0
LINE
  8
0
 10
16.2773
 20
25.7855
 11
15.927
 21
25.6468
  0
LINE
  8
0
 10
15.927
 20
25.6468
 11
15.5621
 21
25.5531
  0
LINE
  8
0
 10
15.5621
 20
25.5531
 11
15.1884
 21
25.5059
  0
LINE
  8
0
 10
15.1884
 20
25.5059
 11
14.8116
 21
25.5059
  0
LINE
  8
0
 10
-0.18837
 20
25.5059
 11
-0.562134
 21
25.5531
  0
LINE
  8
0
 10
-0.562134
 20
25.5531
 11
-0.927048
 21
25.6468
  0
LINE
  8
0
 10
-0.927048
 20
25.6468
 11
-1.27733
 21
25.7855
  0
LINE
  8
0
 10
-1.27733
 20
25.7855
 11
-1.60747
 21
25.967
  0
LINE
  8
0
 10
-1.60747
 20
25.967
 11
-1.91226
 21
26.1884
  0
LINE
  8
0
 10
-1.91226
 20
26.1884
 11
-2.1869
 21
26.4464
  0
LINE
  8
0
 10
-2.1869
 20
26.4464
 11
-2.42705
 21
26.7366
  0
LINE
  8
0
 10
-2.42705
 20
26.7366
 11
-2.62891
 21
27.0547
  0
LINE
  8
0
 10
-2.62891
 20
27.0547
 11
-2.78932
 21
27.3956
  0
LINE
  8
0
 10
-2.78932
 20
27.3956
 11
-2.90575
 21
27.7539
  0
LINE
  8
0
 10
-2.90575
 20
27.7539
 11
-2.97633
 21
28.124
  0
LINE
  8
0
 10
-2.97633
 20
28.124
 11
-3
 21
28.5
  0
LINE
  8
0
 10
-3
 20
28.5
 11
-2.97633
 21
28.876
  0
LINE
  8
0
 10
-2.97633
 20
28.876
 11
-2.90575
 21
29.2461
  0
LINE
  8
0
 10
-2.90575
 20
29.2461
 11
-2.78932
 21
29.6044
  0
LINE
  8
0
 10
-2.78932
 20
29.6044
 11
-2.62891
 21
29.9453
  0
LINE
  8
0
 10
-2.62891
 20
29.9453
 11
-2.42705
 21
30.2634
  0
LINE
  8
0
 10
-2.42705
 20
30.2634
 11
-2.1869
 21
30.5536
  0
LINE
  8
0
 10
-2.1869
 20
30.5536
 11
-1.91226
 21
30.8115
  0
LINE
  8
0
 10
-1.91226
 20
30.8115
 11
-1.60747
 21
31.033
  0
LINE
  8
0
 10
-1.60747
 20
31.033
 11
-1.27733
 21
31.2145
  0
LINE
  8
0
 10
-1.27733
 20
31.2145
 11
-0.927048
 21
31.3532
  0
LINE
  8
0
 10
-0.927048
 20
31.3532
 11
-0.562134
 21
31.4469
  0
LINE
  8
0
 10
-0.562134
 20
31.4469
 11
-0.18837
 21
31.4941
  0
LINE
  8
0
 10
-0.18837
 20
31.4941
 11
0.18837
 21
31.4941
  0
LINE
  8
0
 10
0.18837
 20
31.4941
 11
0.562134
 21
31.4469
  0
LINE
  8
0
 10
0.562134
 20
31.4469
 11
0.927048
 21
31.3532
  0
LINE
  8
0
 10
0.927048
 20
31.3532
 11
1.27733
 21
31.2145
  0
LINE
  8
0
 10
1.27733
 20
31.2145
 11
1.60747
 21
31.033
  0
LINE
  8
0
 10
1.60747
 20
31.033
 11
1.91226
 21
30.8115
  0
LINE
  8
0
 10
1.91226
 20
30.8115
 11
2.1869
 21
30.5536
  0
LINE
  8
0
 10
2.1869
 20
30.5536
 11
2.42705
 21
30.2634
  0
LINE
  8
0
 10
2.42705
 20
30.2634
 11
2.62891
 21
29.9453
  0
LINE
  8
0
 10
2.62891
 20
29.9453
 11
2.78932
 21
29.6044
  0
LINE
  8
0
 10
2.78932
 20
29.6044
 11
2.90575
 21
29.2461
  0
LINE
  8
0
 10
2.90575
 20
29.2461
 11
2.97633
 21
28.876
  0
LINE
  8
0
 10
2.97633
 20
28.876
 11
3
 21
28.5
  0
LINE
  8
0
 10
3
 20
28.5
 11
2.97633
 21
28.124
  0
LINE
  8
0
 10
2.97633
 20
28.124
 11
2.90575
 21
27.7539
  0
LINE
  8
0
 10
2.90575
 20
27.7539
 11
2.78932
 21
27.3956
  0
LINE
  8
0
 10
2.78932
 20
27.3956
 11
2.62891
 21
27.0547
  0
LINE
  8
0
 10
2.62891
 20
27.0547
 11
2.42705
 21
26.7366
  0
LINE
  8
0
 10
2.42705
 20
26.7366
 11
2.1869
 21
26.4464
  0
LINE
  8
0
 10
2.1869
 20
26.4464
 11
1.91226
 21
26.1884
  0
LINE
  8
0
 10
1.91226
 20
26.1884
 11
1.60747
 21
25.967
  0
LINE
  8
0
 10
1.60747
 20
25.967
 11
1.27733
 21
25.7855
  0
LINE
  8
0
 10
1.27733
 20
25.7855
 11
0.927048
 21
25.6468
  0
LINE
  8
0
 10
0.927048
 20
25.6468
 11
0.562134
 21
25.5531
  0
LINE
  8
0
 10
0.562134
 20
25.5531
 11
0.18837
 21
25.5059
  0
LINE
  8
0
 10
0.18837
 20
25.5059
 11
-0.18837
 21
25.5059
  0
LINE
  8
0
 10
-10.2483
 20
11.9133
 11
-10.2483
 21
15.0867
  0
LINE
  8
0
 10
-10.2483
 20
15.0867
 11
-7.49998
 21
16.6735
  0
LINE
  8
0
 10
-7.49998
 20
16.6735
 11
-4.75166
 21
15.0867
  0
LINE
  8
0
 10
-4.75166
 20
15.0867
 11
-4.75166
 21
11.9133
  0
LINE
  8
0
 10
-4.75166
 20
11.9133
 11
-7.5
 21
10.3265
  0
LINE
  8
0
 10
-7.5
 20
10.3265
 11
-10.2483
 21
11.9133
  0
LINE
  8
0
 10
-15.1884
 20
10.5059
 11
-15.5621
 21
10.5531
  0
LINE
  8
0
 10
-15.5621
 20
10.5531
 11
-15.927
 21
10.6468
  0
LINE
  8
0
 10
-15.927
 20
10.6468
 11
-16.2773
 21
10.7855
  0
LINE
  8
0
 10
-16.2773
 20
10.7855
 11
-16.6075
 21
10.967
  0
LINE
  8
0
 10
-16.6075
 20
10.967
 11
-16.9123
 21
11.1884
  0
LINE
  8
0
 10
-16.9123
 20
11.1884
 11
-17.1869
 21
11.4464
  0
LINE
  8
0
 10
-17.1869
 20
11.4464
 11
-17.427
 21
11.7366
  0
LINE
  8
0
 10
-17.427
 20
11.7366
 11
-17.6289
 21
12.0547
  0
LINE
  8
0
 10
-17.6289
 20
12.0547
 11
-17.7893
 21
12.3956
  0
LINE
  8
0
 10
-17.7893
 20
12.3956
 11
-17.9057
 21
12.7539
  0
LINE
  8
0
 10
-17.9057
 20
12.7539
 11
-17.9763
 21
13.124
  0
LINE
  8
0
 10
-17.9763
 20
13.124
 11
-18
 21
13.5
  0
LINE
  8
0
 10
-18
 20
13.5
 11
-17.9763
 21
13.876
  0
LINE
  8
0
 10
-17.9763
 20
13.876
 11
-17.9057
 21
14.2461
  0
LINE
  8
0
 10
-17.9057
 20
14.2461
 11
-17.7893
 21
14.6044
  0
LINE
  8
0
 10
-17.7893
 20
14.6044
 11
-17.6289
 21
14.9453
  0
LINE
  8
0
 10
-17.6289
 20
14.9453
 11
-17.427
 21
15.2634
  0
LINE
  8
0
 10
-17.427
 20
15.2634
 11
-17.1869
 21
15.5536
  0
LINE
  8
0
 10
-17.1869
 20
15.5536
 11
-16.9123
 21
15.8115
  0
LINE
  8
0
 10
-16.9123
 20
15.8115
 11
-16.6075
 21
16.033
  0
LINE
  8
0
 10
-16.6075
 20
16.033
 11
-16.2773
 21
16.2145
  0
LINE
  8
0
 10
-16.2773
 20
16.2145
 11
-15.927
 21
16.3532
  0
LINE
  8
0
 10
-15.927
 20
16.3532
 11
-15.5621
 21
16.4469
  0
LINE
  8
0
 10
-15.5621
 20
16.4469
 11
-15.1884
 21
16.4941
  0
LINE
  8
0
 10
-15.1884
 20
16.4941
 11
-14.8116
 21
16.4941
  0
LINE
  8
0
 10
-14.8116
 20
16.4941
 11
-14.4379
 21
16.4469
  0
LINE
  8
0
 10
-14.4379
 20
16.4469
 11
-14.0729
 21
16.3532
  0
LINE
  8
0
 10
-14.0729
 20
16.3532
 11
-13.7227
 21
16.2145
  0
LINE
  8
0
 10
-13.7227
 20
16.2145
 11
-13.3925
 21
16.033
  0
LINE
  8
0
 10
-13.3925
 20
16.033
 11
-13.0877
 21
15.8115
  0
LINE
  8
0
 10
-13.0877
 20
15.8115
 11
-12.8131
 21
15.5536
  0
LINE
  8
0
 10
-12.8131
 20
15.5536
 11
-12.5729
 21
15.2634
  0
LINE
  8
0
 10
-12.5729
 20
15.2634
 11
-12.3711
 21
14.9453
  0
LINE
  8
0
 10
-12.3711
 20
14.9453
 11
-12.2107
 21
14.6044
  0
LINE
  8
0
 10
-12.2107
 20
14.6044
 11
-12.0942
 21
14.2461
  0
LINE
  8
0
 10
-12.0942
 20
14.2461
 11
-12.0237
 21
13.876
  0
LINE
  8
0
 10
-12.0237
 20
13.876
 11
-12
 21
13.5
  0
LINE
  8
0
 10
-12
 20
13.5
 11
-12.0237
 21
13.124
  0
LINE
  8
0
 10
-12.0237
 20
13.124
 11
-12.0942
 21
12.7539
  0
LINE
  8
0
 10
-12.0942
 20
12.7539
 11
-12.2107
 21
12.3956
  0
LINE
  8
0
 10
-12.2107
 20
12.3956
 11
-12.3711
 21
12.0547
  0
LINE
  8
0
 10
-12.3711
 20
12.0547
 11
-12.5729
 21
11.7366
  0
LINE
  8
0
 10
-12.5729
 20
11.7366
 11
-12.8131
 21
11.4464
  0
LINE
  8
0
 10
-12.8131
 20
11.4464
 11
-13.0877
 21
11.1884
  0
LINE
  8
0
 10
-13.0877
 20
11.1884
 11
-13.3925
 21
10.967
  0
LINE
  8
0
 10
-13.3925
 20
10.967
 11
-13.7227
 21
10.7855
  0
LINE
  8
0
 10
-13.7227
 20
10.7855
 11
-14.0729
 21
10.6468
  0
LINE
  8
0
 10
-14.0729
 20
10.6468
 11
-14.4379
 21
10.5531
  0
LINE
  8
0
 10
-14.4379
 20
10.5531
 11
-14.8116
 21
10.5059
  0
LINE
  8
0
 10
-14.8116
 20
10.5059
 11
-15.1884
 21
10.5059
  0
LINE
  8
0
 10
-0.18837
 20
10.5059
 11
-0.562134
 21
10.5531
  0
LINE
  8
0
 10
-0.562134
 20
10.5531
 11
-0.927048
 21
10.6468
  0
LINE
  8
0
 10
-0.927048
 20
10.6468
 11
-1.27733
 21
10.7855
  0
LINE
  8
0
 10
-1.27733
 20
10.7855
 11
-1.60747
 21
10.967
  0
LINE
  8
0
 10
-1.60747
 20
10.967
 11
-1.91226
 21
11.1884
  0
LINE
  8
0
 10
-1.91226
 20
11.1884
 11
-2.1869
 21
11.4464
  0
LINE
  8
0
 10
-2.1869
 20
11.4464
 11
-2.42705
 21
11.7366
  0
LINE
  8
0
 10
-2.42705
 20
11.7366
 11
-2.62891
 21
12.0547
  0
LINE
  8
0
 10
-2.62891
 20
12.0547
 11
-2.78932
 21
12.3956
  0
LINE
  8
0
 10
-2.78932
 20
12.3956
 11
-2.90575
 21
12.7539
  0
LINE
  8
0
 10
-2.90575
 20
12.7539
 11
-2.97633
 21
13.124
  0
LINE
  8
0
 10
-2.97633
 20
13.124
 11
-3
 21
13.5
  0
LINE
  8
0
 10
-3
 20
13.5
 11
-2.97633
 21
13.876
  0
LINE
  8
0
 10
-2.97633
 20
13.876
 11
-2.90575
 21
14.2461
  0
LINE
  8
0
 10
-2.90575
 20
14.2461
 11
-2.78932
 21
14.6044
  0
LINE
  8
0
 10
-2.78932
 20
14.6044
 11
-2.62891
 21
14.9453
  0
LINE
  8
0
 10
-2.62891
 20
14.9453
 11
-2.42705
 21
15.2634
  0
LINE
  8
0
 10
-2.42705
 20
15.2634
 11
-2.1869
 21
15.5536
  0
LINE
  8
0
 10
-2.1869
 20
15.5536
 11
-1.91226
 21
15.8115
  0
LINE
  8
0
 10
-1.91226
 20
15.8115
 11
-1.60747
 21
16.033
  0
LINE
  8
0
 10
-1.60747
 20
16.033
 11
-1.27733
 21
16.2145
  0
LINE
  8
0
 10
-1.27733
 20
16.2145
 11
-0.927048
 21
16.3532
  0
LINE
  8
0
 10
-0.927048
 20
16.3532
 11
-0.562134
 21
16.4469
  0
LINE
  8
0
 10
-0.562134
 20
16.4469
 11
-0.18837
 21
16.4941
  0
LINE
  8
0
 10
-0.18837
 20
16.4941
 11
0.18837
 21
16.4941
  0
LINE
  8
0
 10
0.18837
 20
16.4941
 11
0.562134
 21
16.4469
  0
LINE
  8
0
 10
0.562134
 20
16.4469
 11
0.927048
 21
16.3532
  0
LINE
  8
0
 10
0.927048
 20
16.3532
 11
1.27733
 21
16.2145
  0
LINE
  8
0
 10
1.27733
 20
16.2145
 11
1.60747
 21
16.033
  0
LINE
  8
0
 10
1.60747
 20
16.033
 11
1.91226
 21
15.8115
  0
LINE
  8
0
 10
1.91226
 20
15.8115
 11
2.1869
 21
15.5536
  0
LINE
  8
0
 10
2.1869
 20
15.5536
 11
2.42705
 21
15.2634
  0
LINE
  8
0
 10
2.42705
 20
15.2634
 11
2.62891
 21
14.9453
  0
LINE
  8
0
 10
2.62891
 20
14.9453
 11
2.78932
 21
14.6044
  0
LINE
  8
0
 10
2.78932
 20
14.6044
 11
2.90575
 21
14.2461
  0
LINE
  8
0
 10
2.90575
 20
14.2461
 11
2.97633
 21
13.876
  0
LINE
  8
0
 10
2.97633
 20
13.876
 11
3
 21
13.5
  0
LINE
  8
0
 10
3
 20
13.5
 11
2.97633
 21
13.124
  0
LINE
  8
0
 10
2.97633
 20
13.124
 11
2.90575
 21
12.7539
  0
LINE
  8
0
 10
2.90575
 20
12.7539
 11
2.78932
 21
12.3956
  0
LINE
  8
0
 10
2.78932
 20
12.3956
 11
2.62891
 21
12.0547
  0
LINE
  8
0
 10
2.62891
 20
12.0547
 11
2.42705
 21
11.7366
  0
LINE
  8
0
 10
2.42705
 20
11.7366
 11
2.1869
 21
11.4464
  0
LINE
  8
0
 10
2.1869
 20
11.4464
 11
1.91226
 21
11.1884
  0
LINE
  8
0
 10
1.91226
 20
11.1884
 11
1.60747
 21
10.967
  0
LINE
  8
0
 10
1.60747
 20
10.967
 11
1.27733
 21
10.7855
  0
LINE
  8
0
 10
1.27733
 20
10.7855
 11
0.927048
 21
10.6468
  0
LINE
  8
0
 10
0.927048
 20
10.6468
 11
0.562134
 21
10.5531
  0
LINE
  8
0
 10
0.562134
 20
10.5531
 11
0.18837
 21
10.5059
  0
LINE
  8
0
 10
0.18837
 20
10.5059
 11
-0.18837
 21
10.5059
  0
LINE
  8
0
 10
14.8116
 20
10.5059
 11
14.4379
 21
10.5531
  0
LINE
  8
0
 10
14.4379
 20
10.5531
 11
14.0729
 21
10.6468
  0
LINE
  8
0
 10
14.0729
 20
10.6468
 11
13.7227
 21
10.7855
  0
LINE
  8
0
 10
13.7227
 20
10.7855
 11
13.3925
 21
10.967
  0
LINE
  8
0
 10
13.3925
 20
10.967
 11
13.0877
 21
11.1884
  0
LINE
  8
0
 10
13.0877
 20
11.1884
 11
12.8131
 21
11.4464
  0
LINE
  8
0
 10
12.8131
 20
11.4464
 11
12.5729
 21
11.7366
  0
LINE
  8
0
 10
12.5729
 20
11.7366
 11
12.3711
 21
12.0547
  0
LINE
  8
0
 10
12.3711
 20
12.0547
 11
12.2107
 21
12.3956
  0
LINE
  8
0
 10
12.2107
 20
12.3956
 11
12.0942
 21
12.7539
  0
LINE
  8
0
 10
12.0942
 20
12.7539
 11
12.0237
 21
13.124
  0
LINE
  8
0
 10
12.0237
 20
13.124
 11
12
 21
13.5
  0
LINE
  8
0
 10
12
 20
13.5
 11
12.0237
 21
13.876
  0
LINE
  8
0
 10
12.0237
 20
13.876
 11
12.0942
 21
14.2461
  0
LINE
  8
0
 10
12.0942
 20
14.2461
 11
12.2107
 21
14.6044
  0
LINE
  8
0
 10
12.2107
 20
14.6044
 11
12.3711
 21
14.9453
  0
LINE
  8
0
 10
12.3711
 20
14.9453
 11
12.5729
 21
15.2634
  0
LINE
  8
0
 10
12.5729
 20
15.2634
 11
12.8131
 21
15.5536
  0
LINE
  8
0
 10
12.8131
 20
15.5536
 11
13.0877
 21
15.8115
  0
LINE
  8
0
 10
13.0877
 20
15.8115
 11
13.3925
 21
16.033
  0
LINE
  8
0
 10
13.3925
 20
16.033
 11
13.7227
 21
16.2145
  0
LINE
  8
0
 10
13.7227
 20
16.2145
 11
14.0729
 21
16.3532
  0
LINE
  8
0
 10
14.0729
 20
16.3532
 11
14.4379
 21
16.4469
  0
LINE
  8
0
 10
14.4379
 20
16.4469
 11
14.8116
 21
16.4941
  0
LINE
  8
0
 10
14.8116
 20
16.4941
 11
15.1884
 21
16.4941
  0
LINE
  8
0
 10
15.1884
 20
16.4941
 11
15.5621
 21
16.4469
  0
LINE
  8
0
 10
15.5621
 20
16.4469
 11
15.927
 21
16.3532
  0
LINE
  8
0
 10
15.927
 20
16.3532
 11
16.2773
 21
16.2145
  0
LINE
  8
0
 10
16.2773
 20
16.2145
 11
16.6075
 21
16.033
  0
LINE
  8
0
 10
16.6075
 20
16.033
 11
16.9123
 21
15.8115
  0
LINE
  8
0
 10
16.9123
 20
15.8115
 11
17.1869
 21
15.5536
  0
LINE
  8
0
 10
17.1869
 20
15.5536
 11
17.427
 21
15.2634
  0
LINE
  8
0
 10
17.427
 20
15.2634
 11
17.6289
 21
14.9453
  0
LINE
  8
0
 10
17.6289
 20
14.9453
 11
17.7893
 21
14.6044
  0
LINE
  8
0
 10
17.7893
 20
14.6044
 11
17.9057
 21
14.2461
  0
LINE
  8
0
 10
17.9057
 20
14.2461
 11
17.9763
 21
13.876
  0
LINE
  8
0
 10
17.9763
 20
13.876
 11
18
 21
13.5
  0
LINE
  8
0
 10
18
 20
13.5
 11
17.9763
 21
13.124
  0
LINE
  8
0
 10
17.9763
 20
13.124
 11
17.9057
 21
12.7539
  0
LINE
  8
0
 10
17.9057
 20
12.7539
 11
17.7893
 21
12.3956
  0
LINE
  8
0
 10
17.7893
 20
12.3956
 11
17.6289
 21
12.0547
  0
LINE
  8
0
 10
17.6289
 20
12.0547
 11
17.427
 21
11.7366
  0
LINE
  8
0
 10
17.427
 20
11.7366
 11
17.1869
 21
11.4464
  0
LINE
  8
0
 10
17.1869
 20
11.4464
 11
16.9123
 21
11.1884
  0
LINE
  8
0
 10
16.9123
 20
11.1884
 11
16.6075
 21
10.967
  0
LINE
  8
0
 10
16.6075
 20
10.967
 11
16.2773
 21
10.7855
  0
LINE
  8
0
 10
16.2773
 20
10.7855
 11
15.927
 21
10.6468
  0
LINE
  8
0
 10
15.927
 20
10.6468
 11
15.5621
 21
10.5531
  0
LINE
  8
0
 10
15.5621
 20
10.5531
 11
15.1884
 21
10.5059
  0
LINE
  8
0
 10
15.1884
 20
10.5059
 11
14.8116
 21
10.5059
  0
LINE
  8
0
 10
7.40063
 20
11.9208
 11
7.20349
 21
11.9457
  0
LINE
  8
0
 10
7.20349
 20
11.9457
 11
7.01102
 21
11.9951
  0
LINE
  8
0
 10
7.01102
 20
11.9951
 11
6.82626
 21
12.0682
  0
LINE
  8
0
 10
6.82626
 20
12.0682
 11
6.65213
 21
12.164
  0
LINE
  8
0
 10
6.65213
 20
12.164
 11
6.49136
 21
12.2808
  0
LINE
  8
0
 10
6.49136
 20
12.2808
 11
6.34651
 21
12.4168
  0
LINE
  8
0
 10
6.34651
 20
12.4168
 11
6.21985
 21
12.5699
  0
LINE
  8
0
 10
6.21985
 20
12.5699
 11
6.11336
 21
12.7377
  0
LINE
  8
0
 10
6.11336
 20
12.7377
 11
6.02876
 21
12.9175
  0
LINE
  8
0
 10
6.02876
 20
12.9175
 11
5.96735
 21
13.1065
  0
LINE
  8
0
 10
5.96735
 20
13.1065
 11
5.93011
 21
13.3017
  0
LINE
  8
0
 10
5.93011
 20
13.3017
 11
5.91763
 21
13.5
  0
LINE
  8
0
 10
5.91763
 20
13.5
 11
5.93011
 21
13.6983
  0
LINE
  8
0
 10
5.93011
 20
13.6983
 11
5.96735
 21
13.8935
  0
LINE
  8
0
 10
5.96735
 20
13.8935
 11
6.02876
 21
14.0825
  0
LINE
  8
0
 10
6.02876
 20
14.0825
 11
6.11336
 21
14.2623
  0
LINE
  8
0
 10
6.11336
 20
14.2623
 11
6.21985
 21
14.4301
  0
LINE
  8
0
 10
6.21985
 20
14.4301
 11
6.34651
 21
14.5832
  0
LINE
  8
0
 10
6.34651
 20
14.5832
 11
6.49136
 21
14.7192
  0
LINE
  8
0
 10
6.49136
 20
14.7192
 11
6.65213
 21
14.836
  0
LINE
  8
0
 10
6.65213
 20
14.836
 11
6.82626
 21
14.9317
  0
LINE
  8
0
 10
6.82626
 20
14.9317
 11
7.01102
 21
15.0049
  0
LINE
  8
0
 10
7.01102
 20
15.0049
 11
7.20349
 21
15.0543
  0
LINE
  8
0
 10
7.20349
 20
15.0543
 11
7.40063
 21
15.0792
  0
LINE
  8
0
 10
7.40063
 20
15.0792
 11
7.59935
 21
15.0792
  0
LINE
  8
0
 10
7.59935
 20
15.0792
 11
7.79649
 21
15.0543
  0
LINE
  8
0
 10
7.79649
 20
15.0543
 11
7.98897
 21
15.0049
  0
LINE
  8
0
 10
7.98897
 20
15.0049
 11
8.17372
 21
14.9317
  0
LINE
  8
0
 10
8.17372
 20
14.9317
 11
8.34785
 21
14.836
  0
LINE
  8
0
 10
8.34785
 20
14.836
 11
8.50862
 21
14.7192
  0
LINE
  8
0
 10
8.50862
 20
14.7192
 11
8.65347
 21
14.5832
  0
LINE
  8
0
 10
8.65347
 20
14.5832
 11
8.78014
 21
14.4301
  0
LINE
  8
0
 10
8.78014
 20
14.4301
 11
8.88661
 21
14.2623
  0
LINE
  8
0
 10
8.88661
 20
14.2623
 11
8.97122
 21
14.0825
  0
LINE
  8
0
 10
8.97122
 20
14.0825
 11
9.03264
 21
13.8935
  0
LINE
  8
0
 10
9.03264
 20
13.8935
 11
9.06987
 21
13.6983
  0
LINE
  8
0
 10
9.06987
 20
13.6983
 11
9.08235
 21
13.5
  0
LINE
  8
0
 10
9.08235
 20
13.5
 11
9.06987
 21
13.3017
  0
LINE
  8
0
 10
9.06987
 20
13.3017
 11
9.03264
 21
13.1065
  0
LINE
  8
0
 10
9.03264
 20
13.1065
 11
8.97122
 21
12.9175
  0
LINE
  8
0
 10
8.97122
 20
12.9175
 11
8.88661
 21
12.7377
  0
LINE
  8
0
 10
8.88661
 20
12.7377
 11
8.78014
 21
12.5699
  0
LINE
  8
0
 10
8.78014
 20
12.5699
 11
8.65347
 21
12.4168
  0
LINE
  8
0
 10
8.65347
 20
12.4168
 11
8.50862
 21
12.2808
  0
LINE
  8
0
 10
8.50862
 20
12.2808
 11
8.34785
 21
12.164
  0
LINE
  8
0
 10
8.34785
 20
12.164
 11
8.17372
 21
12.0682
  0
LINE
  8
0
 10
8.17372
 20
12.0682
 11
7.98897
 21
11.9951
  0
LINE
  8
0
 10
7.98897
 20
11.9951
 11
7.79649
 21
11.9457
  0
LINE
  8
0
 10
7.79649
 20
11.9457
 11
7.59935
 21
11.9208
  0
LINE
  8
0
 10
7.59935
 20
11.9208
 11
7.40063
 21
11.9208
  0
LINE
  8
0
 10
11.4281
 20
3.59999
 11
11.4281
 21
9
  0
LINE
  8
0
 10
11.4281
 20
9
 11
18.5719
 21
9
  0
LINE
  8
0
 10
18.5719
 20
9
 11
18.5719
 21
3.59999
  0
LINE
  8
0
 10
18.5719
 20
3.59999
 11
11.4281
 21
3.59999
  0
LINE
  8
0
 10
-3.5719
 20
3.59999
 11
-3.5719
 21
9
  0
LINE
  8
0
 10
-3.5719
 20
9
 11
3.5719
 21
9
  0
LINE
  8
0
 10
3.5719
 20
9
 11
3.5719
 21
3.59999
  0
LINE
  8
0
 10
3.5719
 20
3.59999
 11
-3.5719
 21
3.59999
  0
LINE
  8
0
 10
-18.5719
 20
3.59999
 11
-18.5719
 21
9
  0
LINE
  8
0
 10
-18.5719
 20
9
 11
-11.4281
 21
9
  0
LINE
  8
0
 10
-11.4281
 20
9
 11
-11.4281
 21
3.59999
  0
LINE
  8
0
 10
-11.4281
 20
3.59999
 11
-18.5719
 21
3.59999
  0
ENDSEC
  0
SECTION
  2
OBJECTS
  0
DICTIONARY
  0
ENDSEC
  0
EOF
