  0
SECTION
  2
BLOCKS
  0
ENDSEC
  0
SECTION
  2
ENTITIES
  0
LINE
  8
0
 10
-13.5
 20
217.007
 11
-13.1448
 21
216.577
  0
LINE
  8
0
 10
-13.1448
 20
216.577
 11
-12.6871
 21
216.147
  0
LINE
  8
0
 10
-12.6871
 20
216.147
 11
-12.1791
 21
215.778
  0
LINE
  8
0
 10
-12.1791
 20
215.778
 11
-11.6289
 21
215.476
  0
LINE
  8
0
 10
-11.6289
 20
215.476
 11
-11.0451
 21
215.245
  0
LINE
  8
0
 10
-11.0451
 20
215.245
 11
-10.4369
 21
215.089
  0
LINE
  8
0
 10
-10.4369
 20
215.089
 11
-9.81395
 21
215.01
  0
LINE
  8
0
 10
-9.81395
 20
215.01
 11
9.81395
 21
215.01
  0
LINE
  8
0
 10
9.81395
 20
215.01
 11
10.4369
 21
215.089
  0
LINE
  8
0
 10
10.4369
 20
215.089
 11
11.0451
 21
215.245
  0
LINE
  8
0
 10
11.0451
 20
215.245
 11
11.6289
 21
215.476
  0
LINE
  8
0
 10
11.6289
 20
215.476
 11
12.1791
 21
215.778
  0
LINE
  8
0
 10
12.1791
 20
215.778
 11
12.6871
 21
216.147
  0
LINE
  8
0
 10
12.6871
 20
216.147
 11
13.1448
 21
216.577
  0
LINE
  8
0
 10
13.1448
 20
216.577
 11
13.5451
 21
217.061
  0
LINE
  8
0
 10
13.5451
 20
217.061
 11
13.8815
 21
217.591
  0
LINE
  8
0
 10
13.8815
 20
217.591
 11
14.1489
 21
218.159
  0
LINE
  8
0
 10
14.1489
 20
218.159
 11
14.3429
 21
218.757
  0
LINE
  8
0
 10
14.3429
 20
218.757
 11
14.4606
 21
219.373
  0
LINE
  8
0
 10
14.4606
 20
219.373
 11
14.5
 21
220
  0
LINE
  8
0
 10
14.5
 20
220
 11
14.5
 21
284
  0
LINE
  8
0
 10
14.5
 20
284
 11
14.4606
 21
284.627
  0
LINE
  8
0
 10
14.4606
 20
284.627
 11
14.3429
 21
285.243
  0
LINE
  8
0
 10
14.3429
 20
285.243
 11
14.1489
 21
285.841
  0
LINE
  8
0
 10
14.1489
 20
285.841
 11
13.8815
 21
286.409
  0
LINE
  8
0
 10
13.8815
 20
286.409
 11
13.5451
 21
286.939
  0
LINE
  8
0
 10
13.5451
 20
286.939
 11
13.1448
 21
287.423
  0
LINE
  8
0
 10
13.1448
 20
287.423
 11
12.6871
 21
287.853
  0
LINE
  8
0
 10
12.6871
 20
287.853
 11
12.1791
 21
288.222
  0
LINE
  8
0
 10
12.1791
 20
288.222
 11
11.6289
 21
288.524
  0
LINE
  8
0
 10
11.6289
 20
288.524
 11
11.0451
 21
288.755
  0
LINE
  8
0
 10
11.0451
 20
288.755
 11
10.4369
 21
288.911
  0
LINE
  8
0
 10
10.4369
 20
288.911
 11
9.81395
 21
288.99
  0
LINE
  8
0
 10
9.81395
 20
288.99
 11
-9.81395
 21
288.99
  0
LINE
  8
0
 10
-9.81395
 20
288.99
 11
-10.4369
 21
288.911
  0
LINE
  8
0
 10
-10.4369
 20
288.911
 11
-11.0451
 21
288.755
  0
LINE
  8
0
 10
-11.0451
 20
288.755
 11
-11.6289
 21
288.524
  0
LINE
  8
0
 10
-11.6289
 20
288.524
 11
-12.1791
 21
288.222
  0
LINE
  8
0
 10
-12.1791
 20
288.222
 11
-12.6871
 21
287.853
  0
LINE
  8
0
 10
-12.6871
 20
287.853
 11
-13.1448
 21
287.423
  0
LINE
  8
0
 10
-13.1448
 20
287.423
 11
-13.5
 21
286.993
  0
LINE
  8
0
 10
-13.5
 20
286.993
 11
-13.5
 21
289.479
  0
LINE
  8
0
 10
-13.5
 20
289.479
 11
-16.5
 21
289.479
  0
LINE
  8
0
 10
-16.5
 20
289.479
 11
-16.5
 21
214.521
  0
LINE
  8
0
 10
-16.5
 20
214.521
 11
-13.5
 21
214.521
  0
LINE
  8
0
 10
-13.5
 20
214.521
 11
-13.5
 21
217.007
  0
LINE
  8
0
 10
-9.69545
 20
216.893
 11
-10.0833
 21
216.942
  0
LINE
  8
0
 10
-10.0833
 20
216.942
 11
-10.4619
 21
217.039
  0
LINE
  8
0
 10
-10.4619
 20
217.039
 11
-10.8254
 21
217.183
  0
LINE
  8
0
 10
-10.8254
 20
217.183
 11
-11.168
 21
217.372
  0
LINE
  8
0
 10
-11.168
 20
217.372
 11
-11.4842
 21
217.601
  0
LINE
  8
0
 10
-11.4842
 20
217.601
 11
-11.7692
 21
217.869
  0
LINE
  8
0
 10
-11.7692
 20
217.869
 11
-12.0184
 21
218.17
  0
LINE
  8
0
 10
-12.0184
 20
218.17
 11
-12.2279
 21
218.5
  0
LINE
  8
0
 10
-12.2279
 20
218.5
 11
-12.3943
 21
218.854
  0
LINE
  8
0
 10
-12.3943
 20
218.854
 11
-12.5151
 21
219.226
  0
LINE
  8
0
 10
-12.5151
 20
219.226
 11
-12.5884
 21
219.61
  0
LINE
  8
0
 10
-12.5884
 20
219.61
 11
-12.6129
 21
220
  0
LINE
  8
0
 10
-12.6129
 20
220
 11
-12.6129
 21
284
  0
LINE
  8
0
 10
-12.6129
 20
284
 11
-12.5884
 21
284.39
  0
LINE
  8
0
 10
-12.5884
 20
284.39
 11
-12.5151
 21
284.774
  0
LINE
  8
0
 10
-12.5151
 20
284.774
 11
-12.3943
 21
285.146
  0
LINE
  8
0
 10
-12.3943
 20
285.146
 11
-12.2279
 21
285.5
  0
LINE
  8
0
 10
-12.2279
 20
285.5
 11
-12.0184
 21
285.83
  0
LINE
  8
0
 10
-12.0184
 20
285.83
 11
-11.7692
 21
286.131
  0
LINE
  8
0
 10
-11.7692
 20
286.131
 11
-11.4842
 21
286.399
  0
LINE
  8
0
 10
-11.4842
 20
286.399
 11
-11.168
 21
286.628
  0
LINE
  8
0
 10
-11.168
 20
286.628
 11
-10.8254
 21
286.817
  0
LINE
  8
0
 10
-10.8254
 20
286.817
 11
-10.4619
 21
286.961
  0
LINE
  8
0
 10
-10.4619
 20
286.961
 11
-10.0833
 21
287.058
  0
LINE
  8
0
 10
-10.0833
 20
287.058
 11
-9.69545
 21
287.107
  0
LINE
  8
0
 10
-9.69545
 20
287.107
 11
9.69545
 21
287.107
  0
LINE
  8
0
 10
9.69545
 20
287.107
 11
10.0833
 21
287.058
  0
LINE
  8
0
 10
10.0833
 20
287.058
 11
10.4619
 21
286.961
  0
LINE
  8
0
 10
10.4619
 20
286.961
 11
10.8254
 21
286.817
  0
LINE
  8
0
 10
10.8254
 20
286.817
 11
11.168
 21
286.628
  0
LINE
  8
0
 10
11.168
 20
286.628
 11
11.4842
 21
286.399
  0
LINE
  8
0
 10
11.4842
 20
286.399
 11
11.7692
 21
286.131
  0
LINE
  8
0
 10
11.7692
 20
286.131
 11
12.0184
 21
285.83
  0
LINE
  8
0
 10
12.0184
 20
285.83
 11
12.2279
 21
285.5
  0
LINE
  8
0
 10
12.2279
 20
285.5
 11
12.3943
 21
285.146
  0
LINE
  8
0
 10
12.3943
 20
285.146
 11
12.5151
 21
284.774
  0
LINE
  8
0
 10
12.5151
 20
284.774
 11
12.5884
 21
284.39
  0
LINE
  8
0
 10
12.5884
 20
284.39
 11
12.6129
 21
284
  0
LINE
  8
0
 10
12.6129
 20
284
 11
12.6129
 21
220
  0
LINE
  8
0
 10
12.6129
 20
220
 11
12.5884
 21
219.61
  0
LINE
  8
0
 10
12.5884
 20
219.61
 11
12.5151
 21
219.226
  0
LINE
  8
0
 10
12.5151
 20
219.226
 11
12.3943
 21
218.854
  0
LINE
  8
0
 10
12.3943
 20
218.854
 11
12.2279
 21
218.5
  0
LINE
  8
0
 10
12.2279
 20
218.5
 11
12.0184
 21
218.17
  0
LINE
  8
0
 10
12.0184
 20
218.17
 11
11.7692
 21
217.869
  0
LINE
  8
0
 10
11.7692
 20
217.869
 11
11.4842
 21
217.601
  0
LINE
  8
0
 10
11.4842
 20
217.601
 11
11.168
 21
217.372
  0
LINE
  8
0
 10
11.168
 20
217.372
 11
10.8254
 21
217.183
  0
LINE
  8
0
 10
10.8254
 20
217.183
 11
10.4619
 21
217.039
  0
LINE
  8
0
 10
10.4619
 20
217.039
 11
10.0833
 21
216.942
  0
LINE
  8
0
 10
10.0833
 20
216.942
 11
9.69545
 21
216.893
  0
LINE
  8
0
 10
9.69545
 20
216.893
 11
-9.69545
 21
216.893
  0
LINE
  8
0
 10
10.4369
 20
131.089
 11
11.0451
 21
131.245
  0
LINE
  8
0
 10
11.0451
 20
131.245
 11
11.6289
 21
131.476
  0
LINE
  8
0
 10
11.6289
 20
131.476
 11
12.1791
 21
131.778
  0
LINE
  8
0
 10
12.1791
 20
131.778
 11
12.6871
 21
132.147
  0
LINE
  8
0
 10
12.6871
 20
132.147
 11
13.1448
 21
132.577
  0
LINE
  8
0
 10
13.1448
 20
132.577
 11
13.5451
 21
133.061
  0
LINE
  8
0
 10
13.5451
 20
133.061
 11
13.8815
 21
133.591
  0
LINE
  8
0
 10
13.8815
 20
133.591
 11
14.1489
 21
134.159
  0
LINE
  8
0
 10
14.1489
 20
134.159
 11
14.3429
 21
134.757
  0
LINE
  8
0
 10
14.3429
 20
134.757
 11
14.4606
 21
135.373
  0
LINE
  8
0
 10
14.4606
 20
135.373
 11
14.5
 21
136
  0
LINE
  8
0
 10
14.5
 20
136
 11
14.5
 21
200
  0
LINE
  8
0
 10
14.5
 20
200
 11
14.4606
 21
200.627
  0
LINE
  8
0
 10
14.4606
 20
200.627
 11
14.3429
 21
201.243
  0
LINE
  8
0
 10
14.3429
 20
201.243
 11
14.1489
 21
201.841
  0
LINE
  8
0
 10
14.1489
 20
201.841
 11
13.8815
 21
202.409
  0
LINE
  8
0
 10
13.8815
 20
202.409
 11
13.5451
 21
202.939
  0
LINE
  8
0
 10
13.5451
 20
202.939
 11
13.1448
 21
203.423
  0
LINE
  8
0
 10
13.1448
 20
203.423
 11
12.6871
 21
203.853
  0
LINE
  8
0
 10
12.6871
 20
203.853
 11
12.1791
 21
204.222
  0
LINE
  8
0
 10
12.1791
 20
204.222
 11
11.6289
 21
204.524
  0
LINE
  8
0
 10
11.6289
 20
204.524
 11
11.0451
 21
204.755
  0
LINE
  8
0
 10
11.0451
 20
204.755
 11
10.4369
 21
204.911
  0
LINE
  8
0
 10
10.4369
 20
204.911
 11
9.81395
 21
204.99
  0
LINE
  8
0
 10
9.81395
 20
204.99
 11
-9.81395
 21
204.99
  0
LINE
  8
0
 10
-9.81395
 20
204.99
 11
-10.4369
 21
204.911
  0
LINE
  8
0
 10
-10.4369
 20
204.911
 11
-11.0451
 21
204.755
  0
LINE
  8
0
 10
-11.0451
 20
204.755
 11
-11.6289
 21
204.524
  0
LINE
  8
0
 10
-11.6289
 20
204.524
 11
-12.1791
 21
204.222
  0
LINE
  8
0
 10
-12.1791
 20
204.222
 11
-12.6871
 21
203.853
  0
LINE
  8
0
 10
-12.6871
 20
203.853
 11
-13.1448
 21
203.423
  0
LINE
  8
0
 10
-13.1448
 20
203.423
 11
-13.5
 21
202.993
  0
LINE
  8
0
 10
-13.5
 20
202.993
 11
-13.5
 21
204.153
  0
LINE
  8
0
 10
-13.5
 20
204.153
 11
-16.5
 21
204.153
  0
LINE
  8
0
 10
-16.5
 20
204.153
 11
-16.5
 21
131.847
  0
LINE
  8
0
 10
-16.5
 20
131.847
 11
-13.5
 21
131.847
  0
LINE
  8
0
 10
-13.5
 20
131.847
 11
-13.5
 21
133.007
  0
LINE
  8
0
 10
-13.5
 20
133.007
 11
-13.1448
 21
132.577
  0
LINE
  8
0
 10
-13.1448
 20
132.577
 11
-12.6871
 21
132.147
  0
LINE
  8
0
 10
-12.6871
 20
132.147
 11
-12.1791
 21
131.778
  0
LINE
  8
0
 10
-12.1791
 20
131.778
 11
-11.6289
 21
131.476
  0
LINE
  8
0
 10
-11.6289
 20
131.476
 11
-11.0451
 21
131.245
  0
LINE
  8
0
 10
-11.0451
 20
131.245
 11
-10.4369
 21
131.089
  0
LINE
  8
0
 10
-10.4369
 20
131.089
 11
-9.81395
 21
131.01
  0
LINE
  8
0
 10
-9.81395
 20
131.01
 11
9.81395
 21
131.01
  0
LINE
  8
0
 10
9.81395
 20
131.01
 11
10.4369
 21
131.089
  0
LINE
  8
0
 10
-7.6507
 20
195.605
 11
-7.94971
 21
195.643
  0
LINE
  8
0
 10
-7.94971
 20
195.643
 11
-8.24164
 21
195.717
  0
LINE
  8
0
 10
-8.24164
 20
195.717
 11
-8.52187
 21
195.828
  0
LINE
  8
0
 10
-8.52187
 20
195.828
 11
-8.78598
 21
195.974
  0
LINE
  8
0
 10
-8.78598
 20
195.974
 11
-9.02982
 21
196.151
  0
LINE
  8
0
 10
-9.02982
 20
196.151
 11
-9.24951
 21
196.357
  0
LINE
  8
0
 10
-9.24951
 20
196.357
 11
-9.44164
 21
196.589
  0
LINE
  8
0
 10
-9.44164
 20
196.589
 11
-9.60313
 21
196.844
  0
LINE
  8
0
 10
-9.60313
 20
196.844
 11
-9.73146
 21
197.117
  0
LINE
  8
0
 10
-9.73146
 20
197.117
 11
-9.82458
 21
197.403
  0
LINE
  8
0
 10
-9.82458
 20
197.403
 11
-9.88107
 21
197.699
  0
LINE
  8
0
 10
-9.88107
 20
197.699
 11
-9.89999
 21
198
  0
LINE
  8
0
 10
-9.89999
 20
198
 11
-9.88107
 21
198.301
  0
LINE
  8
0
 10
-9.88107
 20
198.301
 11
-9.82458
 21
198.597
  0
LINE
  8
0
 10
-9.82458
 20
198.597
 11
-9.73146
 21
198.883
  0
LINE
  8
0
 10
-9.73146
 20
198.883
 11
-9.60313
 21
199.156
  0
LINE
  8
0
 10
-9.60313
 20
199.156
 11
-9.44164
 21
199.411
  0
LINE
  8
0
 10
-9.44164
 20
199.411
 11
-9.24951
 21
199.643
  0
LINE
  8
0
 10
-9.24951
 20
199.643
 11
-9.02982
 21
199.849
  0
LINE
  8
0
 10
-9.02982
 20
199.849
 11
-8.78598
 21
200.026
  0
LINE
  8
0
 10
-8.78598
 20
200.026
 11
-8.52187
 21
200.172
  0
LINE
  8
0
 10
-8.52187
 20
200.172
 11
-8.24164
 21
200.283
  0
LINE
  8
0
 10
-8.24164
 20
200.283
 11
-7.94971
 21
200.357
  0
LINE
  8
0
 10
-7.94971
 20
200.357
 11
-7.6507
 21
200.395
  0
LINE
  8
0
 10
-7.6507
 20
200.395
 11
-7.34929
 21
200.395
  0
LINE
  8
0
 10
-7.34929
 20
200.395
 11
-7.05028
 21
200.357
  0
LINE
  8
0
 10
-7.05028
 20
200.357
 11
-6.75835
 21
200.283
  0
LINE
  8
0
 10
-6.75835
 20
200.283
 11
-6.47812
 21
200.172
  0
LINE
  8
0
 10
-6.47812
 20
200.172
 11
-6.214
 21
200.026
  0
LINE
  8
0
 10
-6.214
 20
200.026
 11
-5.97017
 21
199.849
  0
LINE
  8
0
 10
-5.97017
 20
199.849
 11
-5.75047
 21
199.643
  0
LINE
  8
0
 10
-5.75047
 20
199.643
 11
-5.55835
 21
199.411
  0
LINE
  8
0
 10
-5.55835
 20
199.411
 11
-5.39685
 21
199.156
  0
LINE
  8
0
 10
-5.39685
 20
199.156
 11
-5.26852
 21
198.883
  0
LINE
  8
0
 10
-5.26852
 20
198.883
 11
-5.1754
 21
198.597
  0
LINE
  8
0
 10
-5.1754
 20
198.597
 11
-5.11891
 21
198.301
  0
LINE
  8
0
 10
-5.11891
 20
198.301
 11
-5.09999
 21
198
  0
LINE
  8
0
 10
-5.09999
 20
198
 11
-5.11891
 21
197.699
  0
LINE
  8
0
 10
-5.11891
 20
197.699
 11
-5.1754
 21
197.403
  0
LINE
  8
0
 10
-5.1754
 20
197.403
 11
-5.26852
 21
197.117
  0
LINE
  8
0
 10
-5.26852
 20
197.117
 11
-5.39685
 21
196.844
  0
LINE
  8
0
 10
-5.39685
 20
196.844
 11
-5.55835
 21
196.589
  0
LINE
  8
0
 10
-5.55835
 20
196.589
 11
-5.75047
 21
196.357
  0
LINE
  8
0
 10
-5.75047
 20
196.357
 11
-5.97017
 21
196.151
  0
LINE
  8
0
 10
-5.97017
 20
196.151
 11
-6.214
 21
195.974
  0
LINE
  8
0
 10
-6.214
 20
195.974
 11
-6.47812
 21
195.828
  0
LINE
  8
0
 10
-6.47812
 20
195.828
 11
-6.75835
 21
195.717
  0
LINE
  8
0
 10
-6.75835
 20
195.717
 11
-7.05028
 21
195.643
  0
LINE
  8
0
 10
-7.05028
 20
195.643
 11
-7.34929
 21
195.605
  0
LINE
  8
0
 10
-7.34929
 20
195.605
 11
-7.6507
 21
195.605
  0
LINE
  8
0
 10
7.34929
 20
195.605
 11
7.05028
 21
195.643
  0
LINE
  8
0
 10
7.05028
 20
195.643
 11
6.75835
 21
195.717
  0
LINE
  8
0
 10
6.75835
 20
195.717
 11
6.47812
 21
195.828
  0
LINE
  8
0
 10
6.47812
 20
195.828
 11
6.214
 21
195.974
  0
LINE
  8
0
 10
6.214
 20
195.974
 11
5.97017
 21
196.151
  0
LINE
  8
0
 10
5.97017
 20
196.151
 11
5.75047
 21
196.357
  0
LINE
  8
0
 10
5.75047
 20
196.357
 11
5.55835
 21
196.589
  0
LINE
  8
0
 10
5.55835
 20
196.589
 11
5.39685
 21
196.844
  0
LINE
  8
0
 10
5.39685
 20
196.844
 11
5.26852
 21
197.117
  0
LINE
  8
0
 10
5.26852
 20
197.117
 11
5.1754
 21
197.403
  0
LINE
  8
0
 10
5.1754
 20
197.403
 11
5.11891
 21
197.699
  0
LINE
  8
0
 10
5.11891
 20
197.699
 11
5.09999
 21
198
  0
LINE
  8
0
 10
5.09999
 20
198
 11
5.11891
 21
198.301
  0
LINE
  8
0
 10
5.11891
 20
198.301
 11
5.1754
 21
198.597
  0
LINE
  8
0
 10
5.1754
 20
198.597
 11
5.26852
 21
198.883
  0
LINE
  8
0
 10
5.26852
 20
198.883
 11
5.39685
 21
199.156
  0
LINE
  8
0
 10
5.39685
 20
199.156
 11
5.55835
 21
199.411
  0
LINE
  8
0
 10
5.55835
 20
199.411
 11
5.75047
 21
199.643
  0
LINE
  8
0
 10
5.75047
 20
199.643
 11
5.97017
 21
199.849
  0
LINE
  8
0
 10
5.97017
 20
199.849
 11
6.214
 21
200.026
  0
LINE
  8
0
 10
6.214
 20
200.026
 11
6.47812
 21
200.172
  0
LINE
  8
0
 10
6.47812
 20
200.172
 11
6.75835
 21
200.283
  0
LINE
  8
0
 10
6.75835
 20
200.283
 11
7.05028
 21
200.357
  0
LINE
  8
0
 10
7.05028
 20
200.357
 11
7.34929
 21
200.395
  0
LINE
  8
0
 10
7.34929
 20
200.395
 11
7.6507
 21
200.395
  0
LINE
  8
0
 10
7.6507
 20
200.395
 11
7.94971
 21
200.357
  0
LINE
  8
0
 10
7.94971
 20
200.357
 11
8.24164
 21
200.283
  0
LINE
  8
0
 10
8.24164
 20
200.283
 11
8.52187
 21
200.172
  0
LINE
  8
0
 10
8.52187
 20
200.172
 11
8.78598
 21
200.026
  0
LINE
  8
0
 10
8.78598
 20
200.026
 11
9.02982
 21
199.849
  0
LINE
  8
0
 10
9.02982
 20
199.849
 11
9.24951
 21
199.643
  0
LINE
  8
0
 10
9.24951
 20
199.643
 11
9.44164
 21
199.411
  0
LINE
  8
0
 10
9.44164
 20
199.411
 11
9.60313
 21
199.156
  0
LINE
  8
0
 10
9.60313
 20
199.156
 11
9.73146
 21
198.883
  0
LINE
  8
0
 10
9.73146
 20
198.883
 11
9.82458
 21
198.597
  0
LINE
  8
0
 10
9.82458
 20
198.597
 11
9.88107
 21
198.301
  0
LINE
  8
0
 10
9.88107
 20
198.301
 11
9.89999
 21
198
  0
LINE
  8
0
 10
9.89999
 20
198
 11
9.88107
 21
197.699
  0
LINE
  8
0
 10
9.88107
 20
197.699
 11
9.82458
 21
197.403
  0
LINE
  8
0
 10
9.82458
 20
197.403
 11
9.73146
 21
197.117
  0
LINE
  8
0
 10
9.73146
 20
197.117
 11
9.60313
 21
196.844
  0
LINE
  8
0
 10
9.60313
 20
196.844
 11
9.44164
 21
196.589
  0
LINE
  8
0
 10
9.44164
 20
196.589
 11
9.24951
 21
196.357
  0
LINE
  8
0
 10
9.24951
 20
196.357
 11
9.02982
 21
196.151
  0
LINE
  8
0
 10
9.02982
 20
196.151
 11
8.78598
 21
195.974
  0
LINE
  8
0
 10
8.78598
 20
195.974
 11
8.52187
 21
195.828
  0
LINE
  8
0
 10
8.52187
 20
195.828
 11
8.24164
 21
195.717
  0
LINE
  8
0
 10
8.24164
 20
195.717
 11
7.94971
 21
195.643
  0
LINE
  8
0
 10
7.94971
 20
195.643
 11
7.6507
 21
195.605
  0
LINE
  8
0
 10
7.6507
 20
195.605
 11
7.34929
 21
195.605
  0
LINE
  8
0
 10
-7.6507
 20
135.605
 11
-7.94971
 21
135.643
  0
LINE
  8
0
 10
-7.94971
 20
135.643
 11
-8.24164
 21
135.717
  0
LINE
  8
0
 10
-8.24164
 20
135.717
 11
-8.52187
 21
135.828
  0
LINE
  8
0
 10
-8.52187
 20
135.828
 11
-8.78598
 21
135.974
  0
LINE
  8
0
 10
-8.78598
 20
135.974
 11
-9.02982
 21
136.151
  0
LINE
  8
0
 10
-9.02982
 20
136.151
 11
-9.24951
 21
136.357
  0
LINE
  8
0
 10
-9.24951
 20
136.357
 11
-9.44164
 21
136.589
  0
LINE
  8
0
 10
-9.44164
 20
136.589
 11
-9.60313
 21
136.844
  0
LINE
  8
0
 10
-9.60313
 20
136.844
 11
-9.73146
 21
137.117
  0
LINE
  8
0
 10
-9.73146
 20
137.117
 11
-9.82458
 21
137.403
  0
LINE
  8
0
 10
-9.82458
 20
137.403
 11
-9.88107
 21
137.699
  0
LINE
  8
0
 10
-9.88107
 20
137.699
 11
-9.89999
 21
138
  0
LINE
  8
0
 10
-9.89999
 20
138
 11
-9.88107
 21
138.301
  0
LINE
  8
0
 10
-9.88107
 20
138.301
 11
-9.82458
 21
138.597
  0
LINE
  8
0
 10
-9.82458
 20
138.597
 11
-9.73146
 21
138.883
  0
LINE
  8
0
 10
-9.73146
 20
138.883
 11
-9.60313
 21
139.156
  0
LINE
  8
0
 10
-9.60313
 20
139.156
 11
-9.44164
 21
139.411
  0
LINE
  8
0
 10
-9.44164
 20
139.411
 11
-9.24951
 21
139.643
  0
LINE
  8
0
 10
-9.24951
 20
139.643
 11
-9.02982
 21
139.849
  0
LINE
  8
0
 10
-9.02982
 20
139.849
 11
-8.78598
 21
140.026
  0
LINE
  8
0
 10
-8.78598
 20
140.026
 11
-8.52187
 21
140.172
  0
LINE
  8
0
 10
-8.52187
 20
140.172
 11
-8.24164
 21
140.283
  0
LINE
  8
0
 10
-8.24164
 20
140.283
 11
-7.94971
 21
140.357
  0
LINE
  8
0
 10
-7.94971
 20
140.357
 11
-7.6507
 21
140.395
  0
LINE
  8
0
 10
-7.6507
 20
140.395
 11
-7.34929
 21
140.395
  0
LINE
  8
0
 10
-7.34929
 20
140.395
 11
-7.05028
 21
140.357
  0
LINE
  8
0
 10
-7.05028
 20
140.357
 11
-6.75835
 21
140.283
  0
LINE
  8
0
 10
-6.75835
 20
140.283
 11
-6.47812
 21
140.172
  0
LINE
  8
0
 10
-6.47812
 20
140.172
 11
-6.214
 21
140.026
  0
LINE
  8
0
 10
-6.214
 20
140.026
 11
-5.97017
 21
139.849
  0
LINE
  8
0
 10
-5.97017
 20
139.849
 11
-5.75047
 21
139.643
  0
LINE
  8
0
 10
-5.75047
 20
139.643
 11
-5.55835
 21
139.411
  0
LINE
  8
0
 10
-5.55835
 20
139.411
 11
-5.39685
 21
139.156
  0
LINE
  8
0
 10
-5.39685
 20
139.156
 11
-5.26852
 21
138.883
  0
LINE
  8
0
 10
-5.26852
 20
138.883
 11
-5.1754
 21
138.597
  0
LINE
  8
0
 10
-5.1754
 20
138.597
 11
-5.11891
 21
138.301
  0
LINE
  8
0
 10
-5.11891
 20
138.301
 11
-5.09999
 21
138
  0
LINE
  8
0
 10
-5.09999
 20
138
 11
-5.11891
 21
137.699
  0
LINE
  8
0
 10
-5.11891
 20
137.699
 11
-5.1754
 21
137.403
  0
LINE
  8
0
 10
-5.1754
 20
137.403
 11
-5.26852
 21
137.117
  0
LINE
  8
0
 10
-5.26852
 20
137.117
 11
-5.39685
 21
136.844
  0
LINE
  8
0
 10
-5.39685
 20
136.844
 11
-5.55835
 21
136.589
  0
LINE
  8
0
 10
-5.55835
 20
136.589
 11
-5.75047
 21
136.357
  0
LINE
  8
0
 10
-5.75047
 20
136.357
 11
-5.97017
 21
136.151
  0
LINE
  8
0
 10
-5.97017
 20
136.151
 11
-6.214
 21
135.974
  0
LINE
  8
0
 10
-6.214
 20
135.974
 11
-6.47812
 21
135.828
  0
LINE
  8
0
 10
-6.47812
 20
135.828
 11
-6.75835
 21
135.717
  0
LINE
  8
0
 10
-6.75835
 20
135.717
 11
-7.05028
 21
135.643
  0
LINE
  8
0
 10
-7.05028
 20
135.643
 11
-7.34929
 21
135.605
  0
LINE
  8
0
 10
-7.34929
 20
135.605
 11
-7.6507
 21
135.605
  0
LINE
  8
0
 10
7.34929
 20
135.605
 11
7.05028
 21
135.643
  0
LINE
  8
0
 10
7.05028
 20
135.643
 11
6.75835
 21
135.717
  0
LINE
  8
0
 10
6.75835
 20
135.717
 11
6.47812
 21
135.828
  0
LINE
  8
0
 10
6.47812
 20
135.828
 11
6.214
 21
135.974
  0
LINE
  8
0
 10
6.214
 20
135.974
 11
5.97017
 21
136.151
  0
LINE
  8
0
 10
5.97017
 20
136.151
 11
5.75047
 21
136.357
  0
LINE
  8
0
 10
5.75047
 20
136.357
 11
5.55835
 21
136.589
  0
LINE
  8
0
 10
5.55835
 20
136.589
 11
5.39685
 21
136.844
  0
LINE
  8
0
 10
5.39685
 20
136.844
 11
5.26852
 21
137.117
  0
LINE
  8
0
 10
5.26852
 20
137.117
 11
5.1754
 21
137.403
  0
LINE
  8
0
 10
5.1754
 20
137.403
 11
5.11891
 21
137.699
  0
LINE
  8
0
 10
5.11891
 20
137.699
 11
5.09999
 21
138
  0
LINE
  8
0
 10
5.09999
 20
138
 11
5.11891
 21
138.301
  0
LINE
  8
0
 10
5.11891
 20
138.301
 11
5.1754
 21
138.597
  0
LINE
  8
0
 10
5.1754
 20
138.597
 11
5.26852
 21
138.883
  0
LINE
  8
0
 10
5.26852
 20
138.883
 11
5.39685
 21
139.156
  0
LINE
  8
0
 10
5.39685
 20
139.156
 11
5.55835
 21
139.411
  0
LINE
  8
0
 10
5.55835
 20
139.411
 11
5.75047
 21
139.643
  0
LINE
  8
0
 10
5.75047
 20
139.643
 11
5.97017
 21
139.849
  0
LINE
  8
0
 10
5.97017
 20
139.849
 11
6.214
 21
140.026
  0
LINE
  8
0
 10
6.214
 20
140.026
 11
6.47812
 21
140.172
  0
LINE
  8
0
 10
6.47812
 20
140.172
 11
6.75835
 21
140.283
  0
LINE
  8
0
 10
6.75835
 20
140.283
 11
7.05028
 21
140.357
  0
LINE
  8
0
 10
7.05028
 20
140.357
 11
7.34929
 21
140.395
  0
LINE
  8
0
 10
7.34929
 20
140.395
 11
7.6507
 21
140.395
  0
LINE
  8
0
 10
7.6507
 20
140.395
 11
7.94971
 21
140.357
  0
LINE
  8
0
 10
7.94971
 20
140.357
 11
8.24164
 21
140.283
  0
LINE
  8
0
 10
8.24164
 20
140.283
 11
8.52187
 21
140.172
  0
LINE
  8
0
 10
8.52187
 20
140.172
 11
8.78598
 21
140.026
  0
LINE
  8
0
 10
8.78598
 20
140.026
 11
9.02982
 21
139.849
  0
LINE
  8
0
 10
9.02982
 20
139.849
 11
9.24951
 21
139.643
  0
LINE
  8
0
 10
9.24951
 20
139.643
 11
9.44164
 21
139.411
  0
LINE
  8
0
 10
9.44164
 20
139.411
 11
9.60313
 21
139.156
  0
LINE
  8
0
 10
9.60313
 20
139.156
 11
9.73146
 21
138.883
  0
LINE
  8
0
 10
9.73146
 20
138.883
 11
9.82458
 21
138.597
  0
LINE
  8
0
 10
9.82458
 20
138.597
 11
9.88107
 21
138.301
  0
LINE
  8
0
 10
9.88107
 20
138.301
 11
9.89999
 21
138
  0
LINE
  8
0
 10
9.89999
 20
138
 11
9.88107
 21
137.699
  0
LINE
  8
0
 10
9.88107
 20
137.699
 11
9.82458
 21
137.403
  0
LINE
  8
0
 10
9.82458
 20
137.403
 11
9.73146
 21
137.117
  0
LINE
  8
0
 10
9.73146
 20
137.117
 11
9.60313
 21
136.844
  0
LINE
  8
0
 10
9.60313
 20
136.844
 11
9.44164
 21
136.589
  0
LINE
  8
0
 10
9.44164
 20
136.589
 11
9.24951
 21
136.357
  0
LINE
  8
0
 10
9.24951
 20
136.357
 11
9.02982
 21
136.151
  0
LINE
  8
0
 10
9.02982
 20
136.151
 11
8.78598
 21
135.974
  0
LINE
  8
0
 10
8.78598
 20
135.974
 11
8.52187
 21
135.828
  0
LINE
  8
0
 10
8.52187
 20
135.828
 11
8.24164
 21
135.717
  0
LINE
  8
0
 10
8.24164
 20
135.717
 11
7.94971
 21
135.643
  0
LINE
  8
0
 10
7.94971
 20
135.643
 11
7.6507
 21
135.605
  0
LINE
  8
0
 10
7.6507
 20
135.605
 11
7.34929
 21
135.605
  0
ENDSEC
  0
SECTION
  2
OBJECTS
  0
DICTIONARY
  0
ENDSEC
  0
EOF
