  0
SECTION
  2
BLOCKS
  0
ENDSEC
  0
SECTION
  2
ENTITIES
  0
LINE
  8
0
 10
18.4369
 20
247.589
 11
19.0451
 21
247.745
  0
LINE
  8
0
 10
19.0451
 20
247.745
 11
19.6289
 21
247.976
  0
LINE
  8
0
 10
19.6289
 20
247.976
 11
20.1791
 21
248.278
  0
LINE
  8
0
 10
20.1791
 20
248.278
 11
20.6871
 21
248.647
  0
LINE
  8
0
 10
20.6871
 20
248.647
 11
21.1448
 21
249.077
  0
LINE
  8
0
 10
21.1448
 20
249.077
 11
21.5451
 21
249.561
  0
LINE
  8
0
 10
21.5451
 20
249.561
 11
21.8815
 21
250.091
  0
LINE
  8
0
 10
21.8815
 20
250.091
 11
22.1489
 21
250.659
  0
LINE
  8
0
 10
22.1489
 20
250.659
 11
22.3429
 21
251.257
  0
LINE
  8
0
 10
22.3429
 20
251.257
 11
22.4606
 21
251.873
  0
LINE
  8
0
 10
22.4606
 20
251.873
 11
22.5
 21
252.5
  0
LINE
  8
0
 10
22.5
 20
252.5
 11
22.5
 21
287.5
  0
LINE
  8
0
 10
22.5
 20
287.5
 11
22.4606
 21
288.127
  0
LINE
  8
0
 10
22.4606
 20
288.127
 11
22.3429
 21
288.743
  0
LINE
  8
0
 10
22.3429
 20
288.743
 11
22.1489
 21
289.341
  0
LINE
  8
0
 10
22.1489
 20
289.341
 11
21.8815
 21
289.909
  0
LINE
  8
0
 10
21.8815
 20
289.909
 11
21.5451
 21
290.439
  0
LINE
  8
0
 10
21.5451
 20
290.439
 11
21.1448
 21
290.923
  0
LINE
  8
0
 10
21.1448
 20
290.923
 11
20.6871
 21
291.353
  0
LINE
  8
0
 10
20.6871
 20
291.353
 11
20.1791
 21
291.722
  0
LINE
  8
0
 10
20.1791
 20
291.722
 11
19.6289
 21
292.024
  0
LINE
  8
0
 10
19.6289
 20
292.024
 11
19.0451
 21
292.255
  0
LINE
  8
0
 10
19.0451
 20
292.255
 11
18.4369
 21
292.411
  0
LINE
  8
0
 10
18.4369
 20
292.411
 11
17.8139
 21
292.49
  0
LINE
  8
0
 10
17.8139
 20
292.49
 11
-17.8139
 21
292.49
  0
LINE
  8
0
 10
-17.8139
 20
292.49
 11
-18.4369
 21
292.411
  0
LINE
  8
0
 10
-18.4369
 20
292.411
 11
-19.0451
 21
292.255
  0
LINE
  8
0
 10
-19.0451
 20
292.255
 11
-19.6289
 21
292.024
  0
LINE
  8
0
 10
-19.6289
 20
292.024
 11
-20.1791
 21
291.722
  0
LINE
  8
0
 10
-20.1791
 20
291.722
 11
-20.6871
 21
291.353
  0
LINE
  8
0
 10
-20.6871
 20
291.353
 11
-21.1448
 21
290.923
  0
LINE
  8
0
 10
-21.1448
 20
290.923
 11
-21.5451
 21
290.439
  0
LINE
  8
0
 10
-21.5451
 20
290.439
 11
-21.8815
 21
289.909
  0
LINE
  8
0
 10
-21.8815
 20
289.909
 11
-22.1489
 21
289.341
  0
LINE
  8
0
 10
-22.1489
 20
289.341
 11
-22.3429
 21
288.743
  0
LINE
  8
0
 10
-22.3429
 20
288.743
 11
-22.4606
 21
288.127
  0
LINE
  8
0
 10
-22.4606
 20
288.127
 11
-22.5
 21
287.5
  0
LINE
  8
0
 10
-22.5
 20
287.5
 11
-22.5
 21
252.5
  0
LINE
  8
0
 10
-22.5
 20
252.5
 11
-22.4606
 21
251.873
  0
LINE
  8
0
 10
-22.4606
 20
251.873
 11
-22.3429
 21
251.257
  0
LINE
  8
0
 10
-22.3429
 20
251.257
 11
-22.1489
 21
250.659
  0
LINE
  8
0
 10
-22.1489
 20
250.659
 11
-21.8815
 21
250.091
  0
LINE
  8
0
 10
-21.8815
 20
250.091
 11
-21.5451
 21
249.561
  0
LINE
  8
0
 10
-21.5451
 20
249.561
 11
-21.1448
 21
249.077
  0
LINE
  8
0
 10
-21.1448
 20
249.077
 11
-20.6871
 21
248.647
  0
LINE
  8
0
 10
-20.6871
 20
248.647
 11
-20.1791
 21
248.278
  0
LINE
  8
0
 10
-20.1791
 20
248.278
 11
-19.6289
 21
247.976
  0
LINE
  8
0
 10
-19.6289
 20
247.976
 11
-19.0451
 21
247.745
  0
LINE
  8
0
 10
-19.0451
 20
247.745
 11
-18.4369
 21
247.589
  0
LINE
  8
0
 10
-18.4369
 20
247.589
 11
-17.8139
 21
247.51
  0
LINE
  8
0
 10
-17.8139
 20
247.51
 11
17.8139
 21
247.51
  0
LINE
  8
0
 10
17.8139
 20
247.51
 11
18.4369
 21
247.589
  0
LINE
  8
0
 10
-12.311
 20
248.009
 11
-11.8209
 21
248.278
  0
LINE
  8
0
 10
-11.8209
 20
248.278
 11
-11.3129
 21
248.647
  0
LINE
  8
0
 10
-11.3129
 20
248.647
 11
-10.8551
 21
249.077
  0
LINE
  8
0
 10
-10.8551
 20
249.077
 11
-10.4549
 21
249.561
  0
LINE
  8
0
 10
-10.4549
 20
249.561
 11
-10.1185
 21
250.091
  0
LINE
  8
0
 10
-10.1185
 20
250.091
 11
-9.8511
 21
250.659
  0
LINE
  8
0
 10
-9.8511
 20
250.659
 11
-9.65707
 21
251.257
  0
LINE
  8
0
 10
-9.65707
 20
251.257
 11
-9.53941
 21
251.873
  0
LINE
  8
0
 10
-9.53941
 20
251.873
 11
-9.5
 21
252.5
  0
LINE
  8
0
 10
-9.5
 20
252.5
 11
-9.5
 21
255.5
  0
LINE
  8
0
 10
-9.5
 20
255.5
 11
-9.53941
 21
256.127
  0
LINE
  8
0
 10
-9.53941
 20
256.127
 11
-9.65707
 21
256.743
  0
LINE
  8
0
 10
-9.65707
 20
256.743
 11
-9.8511
 21
257.341
  0
LINE
  8
0
 10
-9.8511
 20
257.341
 11
-10.1185
 21
257.909
  0
LINE
  8
0
 10
-10.1185
 20
257.909
 11
-10.4549
 21
258.439
  0
LINE
  8
0
 10
-10.4549
 20
258.439
 11
-10.8551
 21
258.923
  0
LINE
  8
0
 10
-10.8551
 20
258.923
 11
-11.3129
 21
259.353
  0
LINE
  8
0
 10
-11.3129
 20
259.353
 11
-11.8209
 21
259.722
  0
LINE
  8
0
 10
-11.8209
 20
259.722
 11
-12.3711
 21
260.024
  0
LINE
  8
0
 10
-12.3711
 20
260.024
 11
-12.9549
 21
260.255
  0
LINE
  8
0
 10
-12.9549
 20
260.255
 11
-13.5631
 21
260.411
  0
LINE
  8
0
 10
-13.5631
 20
260.411
 11
-14.186
 21
260.49
  0
LINE
  8
0
 10
-14.186
 20
260.49
 11
-17.8139
 21
260.49
  0
LINE
  8
0
 10
-17.8139
 20
260.49
 11
-18.4369
 21
260.411
  0
LINE
  8
0
 10
-18.4369
 20
260.411
 11
-19.0451
 21
260.255
  0
LINE
  8
0
 10
-19.0451
 20
260.255
 11
-19.6289
 21
260.024
  0
LINE
  8
0
 10
-19.6289
 20
260.024
 11
-20.1791
 21
259.722
  0
LINE
  8
0
 10
-20.1791
 20
259.722
 11
-20.6871
 21
259.353
  0
LINE
  8
0
 10
-20.6871
 20
259.353
 11
-21.1448
 21
258.923
  0
LINE
  8
0
 10
-21.1448
 20
258.923
 11
-21.5451
 21
258.439
  0
LINE
  8
0
 10
-21.5451
 20
258.439
 11
-21.8815
 21
257.909
  0
LINE
  8
0
 10
-21.8815
 20
257.909
 11
-22
 21
257.657
  0
LINE
  8
0
 10
-22
 20
257.657
 11
-22
 21
287.5
  0
LINE
  8
0
 10
-22
 20
287.5
 11
-21.9645
 21
288.064
  0
LINE
  8
0
 10
-21.9645
 20
288.064
 11
-21.8586
 21
288.619
  0
LINE
  8
0
 10
-21.8586
 20
288.619
 11
-21.684
 21
289.157
  0
LINE
  8
0
 10
-21.684
 20
289.157
 11
-21.4434
 21
289.668
  0
LINE
  8
0
 10
-21.4434
 20
289.668
 11
-21.1406
 21
290.145
  0
LINE
  8
0
 10
-21.1406
 20
290.145
 11
-20.7803
 21
290.58
  0
LINE
  8
0
 10
-20.7803
 20
290.58
 11
-20.3684
 21
290.967
  0
LINE
  8
0
 10
-20.3684
 20
290.967
 11
-19.9112
 21
291.299
  0
LINE
  8
0
 10
-19.9112
 20
291.299
 11
-19.416
 21
291.572
  0
LINE
  8
0
 10
-19.416
 20
291.572
 11
-18.8906
 21
291.78
  0
LINE
  8
0
 10
-18.8906
 20
291.78
 11
-18.3432
 21
291.92
  0
LINE
  8
0
 10
-18.3432
 20
291.92
 11
-17.7825
 21
291.991
  0
LINE
  8
0
 10
-17.7825
 20
291.991
 11
17.7825
 21
291.991
  0
LINE
  8
0
 10
17.7825
 20
291.991
 11
18.3432
 21
291.92
  0
LINE
  8
0
 10
18.3432
 20
291.92
 11
18.8906
 21
291.78
  0
LINE
  8
0
 10
18.8906
 20
291.78
 11
19.416
 21
291.572
  0
LINE
  8
0
 10
19.416
 20
291.572
 11
19.9112
 21
291.299
  0
LINE
  8
0
 10
19.9112
 20
291.299
 11
20.3684
 21
290.967
  0
LINE
  8
0
 10
20.3684
 20
290.967
 11
20.7803
 21
290.58
  0
LINE
  8
0
 10
20.7803
 20
290.58
 11
21.1406
 21
290.145
  0
LINE
  8
0
 10
21.1406
 20
290.145
 11
21.4434
 21
289.668
  0
LINE
  8
0
 10
21.4434
 20
289.668
 11
21.684
 21
289.157
  0
LINE
  8
0
 10
21.684
 20
289.157
 11
21.8586
 21
288.619
  0
LINE
  8
0
 10
21.8586
 20
288.619
 11
21.9645
 21
288.064
  0
LINE
  8
0
 10
21.9645
 20
288.064
 11
22
 21
287.5
  0
LINE
  8
0
 10
22
 20
287.5
 11
22
 21
252.5
  0
LINE
  8
0
 10
22
 20
252.5
 11
21.9645
 21
251.936
  0
LINE
  8
0
 10
21.9645
 20
251.936
 11
21.8586
 21
251.381
  0
LINE
  8
0
 10
21.8586
 20
251.381
 11
21.684
 21
250.843
  0
LINE
  8
0
 10
21.684
 20
250.843
 11
21.4434
 21
250.332
  0
LINE
  8
0
 10
21.4434
 20
250.332
 11
21.1406
 21
249.855
  0
LINE
  8
0
 10
21.1406
 20
249.855
 11
20.7803
 21
249.42
  0
LINE
  8
0
 10
20.7803
 20
249.42
 11
20.3684
 21
249.033
  0
LINE
  8
0
 10
20.3684
 20
249.033
 11
19.9112
 21
248.701
  0
LINE
  8
0
 10
19.9112
 20
248.701
 11
19.416
 21
248.428
  0
LINE
  8
0
 10
19.416
 20
248.428
 11
18.8906
 21
248.22
  0
LINE
  8
0
 10
18.8906
 20
248.22
 11
18.3432
 21
248.08
  0
LINE
  8
0
 10
18.3432
 20
248.08
 11
17.7825
 21
248.009
  0
LINE
  8
0
 10
17.7825
 20
248.009
 11
-12.311
 21
248.009
  0
LINE
  8
0
 10
15.4684
 20
282.544
 11
15.7725
 21
282.622
  0
LINE
  8
0
 10
15.7725
 20
282.622
 11
16.0644
 21
282.738
  0
LINE
  8
0
 10
16.0644
 20
282.738
 11
16.3396
 21
282.889
  0
LINE
  8
0
 10
16.3396
 20
282.889
 11
16.5936
 21
283.074
  0
LINE
  8
0
 10
16.5936
 20
283.074
 11
16.8224
 21
283.289
  0
LINE
  8
0
 10
16.8224
 20
283.289
 11
17.0225
 21
283.531
  0
LINE
  8
0
 10
17.0225
 20
283.531
 11
17.1908
 21
283.796
  0
LINE
  8
0
 10
17.1908
 20
283.796
 11
17.3244
 21
284.08
  0
LINE
  8
0
 10
17.3244
 20
284.08
 11
17.4214
 21
284.378
  0
LINE
  8
0
 10
17.4214
 20
284.378
 11
17.4803
 21
284.687
  0
LINE
  8
0
 10
17.4803
 20
284.687
 11
17.5
 21
285
  0
LINE
  8
0
 10
17.5
 20
285
 11
17.4803
 21
285.313
  0
LINE
  8
0
 10
17.4803
 20
285.313
 11
17.4214
 21
285.622
  0
LINE
  8
0
 10
17.4214
 20
285.622
 11
17.3244
 21
285.92
  0
LINE
  8
0
 10
17.3244
 20
285.92
 11
17.1908
 21
286.204
  0
LINE
  8
0
 10
17.1908
 20
286.204
 11
17.0225
 21
286.469
  0
LINE
  8
0
 10
17.0225
 20
286.469
 11
16.8224
 21
286.711
  0
LINE
  8
0
 10
16.8224
 20
286.711
 11
16.5936
 21
286.926
  0
LINE
  8
0
 10
16.5936
 20
286.926
 11
16.3396
 21
287.111
  0
LINE
  8
0
 10
16.3396
 20
287.111
 11
16.0644
 21
287.262
  0
LINE
  8
0
 10
16.0644
 20
287.262
 11
15.7725
 21
287.378
  0
LINE
  8
0
 10
15.7725
 20
287.378
 11
15.4684
 21
287.456
  0
LINE
  8
0
 10
15.4684
 20
287.456
 11
15.157
 21
287.495
  0
LINE
  8
0
 10
15.157
 20
287.495
 11
14.843
 21
287.495
  0
LINE
  8
0
 10
14.843
 20
287.495
 11
14.5315
 21
287.456
  0
LINE
  8
0
 10
14.5315
 20
287.456
 11
14.2274
 21
287.378
  0
LINE
  8
0
 10
14.2274
 20
287.378
 11
13.9355
 21
287.262
  0
LINE
  8
0
 10
13.9355
 20
287.262
 11
13.6604
 21
287.111
  0
LINE
  8
0
 10
13.6604
 20
287.111
 11
13.4064
 21
286.926
  0
LINE
  8
0
 10
13.4064
 20
286.926
 11
13.1776
 21
286.711
  0
LINE
  8
0
 10
13.1776
 20
286.711
 11
12.9774
 21
286.469
  0
LINE
  8
0
 10
12.9774
 20
286.469
 11
12.8092
 21
286.204
  0
LINE
  8
0
 10
12.8092
 20
286.204
 11
12.6756
 21
285.92
  0
LINE
  8
0
 10
12.6756
 20
285.92
 11
12.5785
 21
285.622
  0
LINE
  8
0
 10
12.5785
 20
285.622
 11
12.5197
 21
285.313
  0
LINE
  8
0
 10
12.5197
 20
285.313
 11
12.5
 21
285
  0
LINE
  8
0
 10
12.5
 20
285
 11
12.5197
 21
284.687
  0
LINE
  8
0
 10
12.5197
 20
284.687
 11
12.5785
 21
284.378
  0
LINE
  8
0
 10
12.5785
 20
284.378
 11
12.6756
 21
284.08
  0
LINE
  8
0
 10
12.6756
 20
284.08
 11
12.8092
 21
283.796
  0
LINE
  8
0
 10
12.8092
 20
283.796
 11
12.9774
 21
283.531
  0
LINE
  8
0
 10
12.9774
 20
283.531
 11
13.1776
 21
283.289
  0
LINE
  8
0
 10
13.1776
 20
283.289
 11
13.4064
 21
283.074
  0
LINE
  8
0
 10
13.4064
 20
283.074
 11
13.6604
 21
282.889
  0
LINE
  8
0
 10
13.6604
 20
282.889
 11
13.9355
 21
282.738
  0
LINE
  8
0
 10
13.9355
 20
282.738
 11
14.2274
 21
282.622
  0
LINE
  8
0
 10
14.2274
 20
282.622
 11
14.5315
 21
282.544
  0
LINE
  8
0
 10
14.5315
 20
282.544
 11
14.843
 21
282.505
  0
LINE
  8
0
 10
14.843
 20
282.505
 11
15.157
 21
282.505
  0
LINE
  8
0
 10
15.157
 20
282.505
 11
15.4684
 21
282.544
  0
LINE
  8
0
 10
14.9058
 20
283.503
 11
14.7189
 21
283.527
  0
LINE
  8
0
 10
14.7189
 20
283.527
 11
14.5365
 21
283.573
  0
LINE
  8
0
 10
14.5365
 20
283.573
 11
14.3613
 21
283.643
  0
LINE
  8
0
 10
14.3613
 20
283.643
 11
14.1963
 21
283.734
  0
LINE
  8
0
 10
14.1963
 20
283.734
 11
14.0439
 21
283.844
  0
LINE
  8
0
 10
14.0439
 20
283.844
 11
13.9065
 21
283.973
  0
LINE
  8
0
 10
13.9065
 20
283.973
 11
13.7865
 21
284.118
  0
LINE
  8
0
 10
13.7865
 20
284.118
 11
13.6855
 21
284.277
  0
LINE
  8
0
 10
13.6855
 20
284.277
 11
13.6053
 21
284.448
  0
LINE
  8
0
 10
13.6053
 20
284.448
 11
13.5471
 21
284.627
  0
LINE
  8
0
 10
13.5471
 20
284.627
 11
13.5118
 21
284.812
  0
LINE
  8
0
 10
13.5118
 20
284.812
 11
13.5
 21
285
  0
LINE
  8
0
 10
13.5
 20
285
 11
13.5118
 21
285.188
  0
LINE
  8
0
 10
13.5118
 20
285.188
 11
13.5471
 21
285.373
  0
LINE
  8
0
 10
13.5471
 20
285.373
 11
13.6053
 21
285.552
  0
LINE
  8
0
 10
13.6053
 20
285.552
 11
13.6855
 21
285.723
  0
LINE
  8
0
 10
13.6855
 20
285.723
 11
13.7865
 21
285.882
  0
LINE
  8
0
 10
13.7865
 20
285.882
 11
13.9065
 21
286.027
  0
LINE
  8
0
 10
13.9065
 20
286.027
 11
14.0439
 21
286.156
  0
LINE
  8
0
 10
14.0439
 20
286.156
 11
14.1963
 21
286.266
  0
LINE
  8
0
 10
14.1963
 20
286.266
 11
14.3613
 21
286.357
  0
LINE
  8
0
 10
14.3613
 20
286.357
 11
14.5365
 21
286.427
  0
LINE
  8
0
 10
14.5365
 20
286.427
 11
14.7189
 21
286.473
  0
LINE
  8
0
 10
14.7189
 20
286.473
 11
14.9058
 21
286.497
  0
LINE
  8
0
 10
14.9058
 20
286.497
 11
15.0942
 21
286.497
  0
LINE
  8
0
 10
15.0942
 20
286.497
 11
15.2811
 21
286.473
  0
LINE
  8
0
 10
15.2811
 20
286.473
 11
15.4635
 21
286.427
  0
LINE
  8
0
 10
15.4635
 20
286.427
 11
15.6387
 21
286.357
  0
LINE
  8
0
 10
15.6387
 20
286.357
 11
15.8037
 21
286.266
  0
LINE
  8
0
 10
15.8037
 20
286.266
 11
15.9561
 21
286.156
  0
LINE
  8
0
 10
15.9561
 20
286.156
 11
16.0934
 21
286.027
  0
LINE
  8
0
 10
16.0934
 20
286.027
 11
16.2135
 21
285.882
  0
LINE
  8
0
 10
16.2135
 20
285.882
 11
16.3145
 21
285.723
  0
LINE
  8
0
 10
16.3145
 20
285.723
 11
16.3947
 21
285.552
  0
LINE
  8
0
 10
16.3947
 20
285.552
 11
16.4529
 21
285.373
  0
LINE
  8
0
 10
16.4529
 20
285.373
 11
16.4882
 21
285.188
  0
LINE
  8
0
 10
16.4882
 20
285.188
 11
16.5
 21
285
  0
LINE
  8
0
 10
16.5
 20
285
 11
16.4882
 21
284.812
  0
LINE
  8
0
 10
16.4882
 20
284.812
 11
16.4529
 21
284.627
  0
LINE
  8
0
 10
16.4529
 20
284.627
 11
16.3947
 21
284.448
  0
LINE
  8
0
 10
16.3947
 20
284.448
 11
16.3145
 21
284.277
  0
LINE
  8
0
 10
16.3145
 20
284.277
 11
16.2135
 21
284.118
  0
LINE
  8
0
 10
16.2135
 20
284.118
 11
16.0934
 21
283.973
  0
LINE
  8
0
 10
16.0934
 20
283.973
 11
15.9561
 21
283.844
  0
LINE
  8
0
 10
15.9561
 20
283.844
 11
15.8037
 21
283.734
  0
LINE
  8
0
 10
15.8037
 20
283.734
 11
15.6387
 21
283.643
  0
LINE
  8
0
 10
15.6387
 20
283.643
 11
15.4635
 21
283.573
  0
LINE
  8
0
 10
15.4635
 20
283.573
 11
15.2811
 21
283.527
  0
LINE
  8
0
 10
15.2811
 20
283.527
 11
15.0942
 21
283.503
  0
LINE
  8
0
 10
15.0942
 20
283.503
 11
14.9058
 21
283.503
  0
LINE
  8
0
 10
-15.0942
 20
253.503
 11
-15.2811
 21
253.527
  0
LINE
  8
0
 10
-15.2811
 20
253.527
 11
-15.4635
 21
253.573
  0
LINE
  8
0
 10
-15.4635
 20
253.573
 11
-15.6387
 21
253.643
  0
LINE
  8
0
 10
-15.6387
 20
253.643
 11
-15.8037
 21
253.734
  0
LINE
  8
0
 10
-15.8037
 20
253.734
 11
-15.9561
 21
253.844
  0
LINE
  8
0
 10
-15.9561
 20
253.844
 11
-16.0934
 21
253.973
  0
LINE
  8
0
 10
-16.0934
 20
253.973
 11
-16.2135
 21
254.118
  0
LINE
  8
0
 10
-16.2135
 20
254.118
 11
-16.3145
 21
254.277
  0
LINE
  8
0
 10
-16.3145
 20
254.277
 11
-16.3947
 21
254.448
  0
LINE
  8
0
 10
-16.3947
 20
254.448
 11
-16.4529
 21
254.627
  0
LINE
  8
0
 10
-16.4529
 20
254.627
 11
-16.4882
 21
254.812
  0
LINE
  8
0
 10
-16.4882
 20
254.812
 11
-16.5
 21
255
  0
LINE
  8
0
 10
-16.5
 20
255
 11
-16.4882
 21
255.188
  0
LINE
  8
0
 10
-16.4882
 20
255.188
 11
-16.4529
 21
255.373
  0
LINE
  8
0
 10
-16.4529
 20
255.373
 11
-16.3947
 21
255.552
  0
LINE
  8
0
 10
-16.3947
 20
255.552
 11
-16.3145
 21
255.723
  0
LINE
  8
0
 10
-16.3145
 20
255.723
 11
-16.2135
 21
255.882
  0
LINE
  8
0
 10
-16.2135
 20
255.882
 11
-16.0934
 21
256.027
  0
LINE
  8
0
 10
-16.0934
 20
256.027
 11
-15.9561
 21
256.156
  0
LINE
  8
0
 10
-15.9561
 20
256.156
 11
-15.8037
 21
256.266
  0
LINE
  8
0
 10
-15.8037
 20
256.266
 11
-15.6387
 21
256.357
  0
LINE
  8
0
 10
-15.6387
 20
256.357
 11
-15.4635
 21
256.427
  0
LINE
  8
0
 10
-15.4635
 20
256.427
 11
-15.2811
 21
256.473
  0
LINE
  8
0
 10
-15.2811
 20
256.473
 11
-15.0942
 21
256.497
  0
LINE
  8
0
 10
-15.0942
 20
256.497
 11
-14.9058
 21
256.497
  0
LINE
  8
0
 10
-14.9058
 20
256.497
 11
-14.7189
 21
256.473
  0
LINE
  8
0
 10
-14.7189
 20
256.473
 11
-14.5365
 21
256.427
  0
LINE
  8
0
 10
-14.5365
 20
256.427
 11
-14.3613
 21
256.357
  0
LINE
  8
0
 10
-14.3613
 20
256.357
 11
-14.1963
 21
256.266
  0
LINE
  8
0
 10
-14.1963
 20
256.266
 11
-14.0439
 21
256.156
  0
LINE
  8
0
 10
-14.0439
 20
256.156
 11
-13.9065
 21
256.027
  0
LINE
  8
0
 10
-13.9065
 20
256.027
 11
-13.7865
 21
255.882
  0
LINE
  8
0
 10
-13.7865
 20
255.882
 11
-13.6855
 21
255.723
  0
LINE
  8
0
 10
-13.6855
 20
255.723
 11
-13.6053
 21
255.552
  0
LINE
  8
0
 10
-13.6053
 20
255.552
 11
-13.5471
 21
255.373
  0
LINE
  8
0
 10
-13.5471
 20
255.373
 11
-13.5118
 21
255.188
  0
LINE
  8
0
 10
-13.5118
 20
255.188
 11
-13.5
 21
255
  0
LINE
  8
0
 10
-13.5
 20
255
 11
-13.5118
 21
254.812
  0
LINE
  8
0
 10
-13.5118
 20
254.812
 11
-13.5471
 21
254.627
  0
LINE
  8
0
 10
-13.5471
 20
254.627
 11
-13.6053
 21
254.448
  0
LINE
  8
0
 10
-13.6053
 20
254.448
 11
-13.6855
 21
254.277
  0
LINE
  8
0
 10
-13.6855
 20
254.277
 11
-13.7865
 21
254.118
  0
LINE
  8
0
 10
-13.7865
 20
254.118
 11
-13.9065
 21
253.973
  0
LINE
  8
0
 10
-13.9065
 20
253.973
 11
-14.0439
 21
253.844
  0
LINE
  8
0
 10
-14.0439
 20
253.844
 11
-14.1963
 21
253.734
  0
LINE
  8
0
 10
-14.1963
 20
253.734
 11
-14.3613
 21
253.643
  0
LINE
  8
0
 10
-14.3613
 20
253.643
 11
-14.5365
 21
253.573
  0
LINE
  8
0
 10
-14.5365
 20
253.573
 11
-14.7189
 21
253.527
  0
LINE
  8
0
 10
-14.7189
 20
253.527
 11
-14.9058
 21
253.503
  0
LINE
  8
0
 10
-14.9058
 20
253.503
 11
-15.0942
 21
253.503
  0
LINE
  8
0
 10
18.4369
 20
193.589
 11
19.0451
 21
193.745
  0
LINE
  8
0
 10
19.0451
 20
193.745
 11
19.6289
 21
193.976
  0
LINE
  8
0
 10
19.6289
 20
193.976
 11
20.1791
 21
194.278
  0
LINE
  8
0
 10
20.1791
 20
194.278
 11
20.6871
 21
194.647
  0
LINE
  8
0
 10
20.6871
 20
194.647
 11
21.1448
 21
195.077
  0
LINE
  8
0
 10
21.1448
 20
195.077
 11
21.5451
 21
195.561
  0
LINE
  8
0
 10
21.5451
 20
195.561
 11
21.8815
 21
196.091
  0
LINE
  8
0
 10
21.8815
 20
196.091
 11
22.1489
 21
196.659
  0
LINE
  8
0
 10
22.1489
 20
196.659
 11
22.3429
 21
197.257
  0
LINE
  8
0
 10
22.3429
 20
197.257
 11
22.4606
 21
197.873
  0
LINE
  8
0
 10
22.4606
 20
197.873
 11
22.5
 21
198.5
  0
LINE
  8
0
 10
22.5
 20
198.5
 11
22.5
 21
233.5
  0
LINE
  8
0
 10
22.5
 20
233.5
 11
22.4606
 21
234.127
  0
LINE
  8
0
 10
22.4606
 20
234.127
 11
22.3429
 21
234.743
  0
LINE
  8
0
 10
22.3429
 20
234.743
 11
22.1489
 21
235.341
  0
LINE
  8
0
 10
22.1489
 20
235.341
 11
21.8815
 21
235.909
  0
LINE
  8
0
 10
21.8815
 20
235.909
 11
21.5451
 21
236.439
  0
LINE
  8
0
 10
21.5451
 20
236.439
 11
21.1448
 21
236.923
  0
LINE
  8
0
 10
21.1448
 20
236.923
 11
20.6871
 21
237.353
  0
LINE
  8
0
 10
20.6871
 20
237.353
 11
20.1791
 21
237.722
  0
LINE
  8
0
 10
20.1791
 20
237.722
 11
19.6289
 21
238.024
  0
LINE
  8
0
 10
19.6289
 20
238.024
 11
19.0451
 21
238.255
  0
LINE
  8
0
 10
19.0451
 20
238.255
 11
18.4369
 21
238.411
  0
LINE
  8
0
 10
18.4369
 20
238.411
 11
17.8139
 21
238.49
  0
LINE
  8
0
 10
17.8139
 20
238.49
 11
-17.8139
 21
238.49
  0
LINE
  8
0
 10
-17.8139
 20
238.49
 11
-18.4369
 21
238.411
  0
LINE
  8
0
 10
-18.4369
 20
238.411
 11
-19.0451
 21
238.255
  0
LINE
  8
0
 10
-19.0451
 20
238.255
 11
-19.6289
 21
238.024
  0
LINE
  8
0
 10
-19.6289
 20
238.024
 11
-20.1791
 21
237.722
  0
LINE
  8
0
 10
-20.1791
 20
237.722
 11
-20.6871
 21
237.353
  0
LINE
  8
0
 10
-20.6871
 20
237.353
 11
-21.1448
 21
236.923
  0
LINE
  8
0
 10
-21.1448
 20
236.923
 11
-21.5451
 21
236.439
  0
LINE
  8
0
 10
-21.5451
 20
236.439
 11
-21.8815
 21
235.909
  0
LINE
  8
0
 10
-21.8815
 20
235.909
 11
-22.1489
 21
235.341
  0
LINE
  8
0
 10
-22.1489
 20
235.341
 11
-22.3429
 21
234.743
  0
LINE
  8
0
 10
-22.3429
 20
234.743
 11
-22.4606
 21
234.127
  0
LINE
  8
0
 10
-22.4606
 20
234.127
 11
-22.5
 21
233.5
  0
LINE
  8
0
 10
-22.5
 20
233.5
 11
-22.5
 21
198.5
  0
LINE
  8
0
 10
-22.5
 20
198.5
 11
-22.4606
 21
197.873
  0
LINE
  8
0
 10
-22.4606
 20
197.873
 11
-22.3429
 21
197.257
  0
LINE
  8
0
 10
-22.3429
 20
197.257
 11
-22.1489
 21
196.659
  0
LINE
  8
0
 10
-22.1489
 20
196.659
 11
-21.8815
 21
196.091
  0
LINE
  8
0
 10
-21.8815
 20
196.091
 11
-21.5451
 21
195.561
  0
LINE
  8
0
 10
-21.5451
 20
195.561
 11
-21.1448
 21
195.077
  0
LINE
  8
0
 10
-21.1448
 20
195.077
 11
-20.6871
 21
194.647
  0
LINE
  8
0
 10
-20.6871
 20
194.647
 11
-20.1791
 21
194.278
  0
LINE
  8
0
 10
-20.1791
 20
194.278
 11
-19.6289
 21
193.976
  0
LINE
  8
0
 10
-19.6289
 20
193.976
 11
-19.0451
 21
193.745
  0
LINE
  8
0
 10
-19.0451
 20
193.745
 11
-18.4369
 21
193.589
  0
LINE
  8
0
 10
-18.4369
 20
193.589
 11
-17.8139
 21
193.51
  0
LINE
  8
0
 10
-17.8139
 20
193.51
 11
17.8139
 21
193.51
  0
LINE
  8
0
 10
17.8139
 20
193.51
 11
18.4369
 21
193.589
  0
LINE
  8
0
 10
-12.2539
 20
194.04
 11
-11.8209
 21
194.278
  0
LINE
  8
0
 10
-11.8209
 20
194.278
 11
-11.3129
 21
194.647
  0
LINE
  8
0
 10
-11.3129
 20
194.647
 11
-10.8551
 21
195.077
  0
LINE
  8
0
 10
-10.8551
 20
195.077
 11
-10.4549
 21
195.561
  0
LINE
  8
0
 10
-10.4549
 20
195.561
 11
-10.1185
 21
196.091
  0
LINE
  8
0
 10
-10.1185
 20
196.091
 11
-9.8511
 21
196.659
  0
LINE
  8
0
 10
-9.8511
 20
196.659
 11
-9.65707
 21
197.257
  0
LINE
  8
0
 10
-9.65707
 20
197.257
 11
-9.53941
 21
197.873
  0
LINE
  8
0
 10
-9.53941
 20
197.873
 11
-9.5
 21
198.5
  0
LINE
  8
0
 10
-9.5
 20
198.5
 11
-9.5
 21
201.5
  0
LINE
  8
0
 10
-9.5
 20
201.5
 11
-9.53941
 21
202.127
  0
LINE
  8
0
 10
-9.53941
 20
202.127
 11
-9.65707
 21
202.743
  0
LINE
  8
0
 10
-9.65707
 20
202.743
 11
-9.8511
 21
203.341
  0
LINE
  8
0
 10
-9.8511
 20
203.341
 11
-10.1185
 21
203.909
  0
LINE
  8
0
 10
-10.1185
 20
203.909
 11
-10.4549
 21
204.439
  0
LINE
  8
0
 10
-10.4549
 20
204.439
 11
-10.8551
 21
204.923
  0
LINE
  8
0
 10
-10.8551
 20
204.923
 11
-11.3129
 21
205.353
  0
LINE
  8
0
 10
-11.3129
 20
205.353
 11
-11.8209
 21
205.722
  0
LINE
  8
0
 10
-11.8209
 20
205.722
 11
-12.3711
 21
206.024
  0
LINE
  8
0
 10
-12.3711
 20
206.024
 11
-12.9549
 21
206.255
  0
LINE
  8
0
 10
-12.9549
 20
206.255
 11
-13.5631
 21
206.411
  0
LINE
  8
0
 10
-13.5631
 20
206.411
 11
-14.186
 21
206.49
  0
LINE
  8
0
 10
-14.186
 20
206.49
 11
-17.8139
 21
206.49
  0
LINE
  8
0
 10
-17.8139
 20
206.49
 11
-18.4369
 21
206.411
  0
LINE
  8
0
 10
-18.4369
 20
206.411
 11
-19.0451
 21
206.255
  0
LINE
  8
0
 10
-19.0451
 20
206.255
 11
-19.6289
 21
206.024
  0
LINE
  8
0
 10
-19.6289
 20
206.024
 11
-20.1791
 21
205.722
  0
LINE
  8
0
 10
-20.1791
 20
205.722
 11
-20.6871
 21
205.353
  0
LINE
  8
0
 10
-20.6871
 20
205.353
 11
-21.1448
 21
204.923
  0
LINE
  8
0
 10
-21.1448
 20
204.923
 11
-21.5451
 21
204.439
  0
LINE
  8
0
 10
-21.5451
 20
204.439
 11
-21.8815
 21
203.909
  0
LINE
  8
0
 10
-21.8815
 20
203.909
 11
-21.9685
 21
203.724
  0
LINE
  8
0
 10
-21.9685
 20
203.724
 11
-21.9685
 21
233.5
  0
LINE
  8
0
 10
-21.9685
 20
233.5
 11
-21.9333
 21
234.06
  0
LINE
  8
0
 10
-21.9333
 20
234.06
 11
-21.8282
 21
234.611
  0
LINE
  8
0
 10
-21.8282
 20
234.611
 11
-21.6547
 21
235.145
  0
LINE
  8
0
 10
-21.6547
 20
235.145
 11
-21.4158
 21
235.653
  0
LINE
  8
0
 10
-21.4158
 20
235.653
 11
-21.1151
 21
236.127
  0
LINE
  8
0
 10
-21.1151
 20
236.127
 11
-20.7574
 21
236.559
  0
LINE
  8
0
 10
-20.7574
 20
236.559
 11
-20.3483
 21
236.943
  0
LINE
  8
0
 10
-20.3483
 20
236.943
 11
-19.8944
 21
237.273
  0
LINE
  8
0
 10
-19.8944
 20
237.273
 11
-19.4026
 21
237.543
  0
LINE
  8
0
 10
-19.4026
 20
237.543
 11
-18.8808
 21
237.75
  0
LINE
  8
0
 10
-18.8808
 20
237.75
 11
-18.3373
 21
237.889
  0
LINE
  8
0
 10
-18.3373
 20
237.889
 11
-17.7806
 21
237.96
  0
LINE
  8
0
 10
-17.7806
 20
237.96
 11
17.7806
 21
237.96
  0
LINE
  8
0
 10
17.7806
 20
237.96
 11
18.3373
 21
237.889
  0
LINE
  8
0
 10
18.3373
 20
237.889
 11
18.8808
 21
237.75
  0
LINE
  8
0
 10
18.8808
 20
237.75
 11
19.4026
 21
237.543
  0
LINE
  8
0
 10
19.4026
 20
237.543
 11
19.8944
 21
237.273
  0
LINE
  8
0
 10
19.8944
 20
237.273
 11
20.3483
 21
236.943
  0
LINE
  8
0
 10
20.3483
 20
236.943
 11
20.7574
 21
236.559
  0
LINE
  8
0
 10
20.7574
 20
236.559
 11
21.1151
 21
236.127
  0
LINE
  8
0
 10
21.1151
 20
236.127
 11
21.4158
 21
235.653
  0
LINE
  8
0
 10
21.4158
 20
235.653
 11
21.6547
 21
235.145
  0
LINE
  8
0
 10
21.6547
 20
235.145
 11
21.8282
 21
234.611
  0
LINE
  8
0
 10
21.8282
 20
234.611
 11
21.9333
 21
234.06
  0
LINE
  8
0
 10
21.9333
 20
234.06
 11
21.9685
 21
233.5
  0
LINE
  8
0
 10
21.9685
 20
233.5
 11
21.9685
 21
198.5
  0
LINE
  8
0
 10
21.9685
 20
198.5
 11
21.9333
 21
197.94
  0
LINE
  8
0
 10
21.9333
 20
197.94
 11
21.8282
 21
197.389
  0
LINE
  8
0
 10
21.8282
 20
197.389
 11
21.6547
 21
196.855
  0
LINE
  8
0
 10
21.6547
 20
196.855
 11
21.4158
 21
196.347
  0
LINE
  8
0
 10
21.4158
 20
196.347
 11
21.1151
 21
195.873
  0
LINE
  8
0
 10
21.1151
 20
195.873
 11
20.7574
 21
195.441
  0
LINE
  8
0
 10
20.7574
 20
195.441
 11
20.3483
 21
195.057
  0
LINE
  8
0
 10
20.3483
 20
195.057
 11
19.8944
 21
194.727
  0
LINE
  8
0
 10
19.8944
 20
194.727
 11
19.4026
 21
194.457
  0
LINE
  8
0
 10
19.4026
 20
194.457
 11
18.8808
 21
194.25
  0
LINE
  8
0
 10
18.8808
 20
194.25
 11
18.3373
 21
194.111
  0
LINE
  8
0
 10
18.3373
 20
194.111
 11
17.7806
 21
194.04
  0
LINE
  8
0
 10
17.7806
 20
194.04
 11
-12.2539
 21
194.04
  0
LINE
  8
0
 10
15.4684
 20
228.544
 11
15.7725
 21
228.622
  0
LINE
  8
0
 10
15.7725
 20
228.622
 11
16.0644
 21
228.738
  0
LINE
  8
0
 10
16.0644
 20
228.738
 11
16.3396
 21
228.889
  0
LINE
  8
0
 10
16.3396
 20
228.889
 11
16.5936
 21
229.074
  0
LINE
  8
0
 10
16.5936
 20
229.074
 11
16.8224
 21
229.289
  0
LINE
  8
0
 10
16.8224
 20
229.289
 11
17.0225
 21
229.531
  0
LINE
  8
0
 10
17.0225
 20
229.531
 11
17.1908
 21
229.796
  0
LINE
  8
0
 10
17.1908
 20
229.796
 11
17.3244
 21
230.08
  0
LINE
  8
0
 10
17.3244
 20
230.08
 11
17.4214
 21
230.378
  0
LINE
  8
0
 10
17.4214
 20
230.378
 11
17.4803
 21
230.687
  0
LINE
  8
0
 10
17.4803
 20
230.687
 11
17.5
 21
231
  0
LINE
  8
0
 10
17.5
 20
231
 11
17.4803
 21
231.313
  0
LINE
  8
0
 10
17.4803
 20
231.313
 11
17.4214
 21
231.622
  0
LINE
  8
0
 10
17.4214
 20
231.622
 11
17.3244
 21
231.92
  0
LINE
  8
0
 10
17.3244
 20
231.92
 11
17.1908
 21
232.204
  0
LINE
  8
0
 10
17.1908
 20
232.204
 11
17.0225
 21
232.469
  0
LINE
  8
0
 10
17.0225
 20
232.469
 11
16.8224
 21
232.711
  0
LINE
  8
0
 10
16.8224
 20
232.711
 11
16.5936
 21
232.926
  0
LINE
  8
0
 10
16.5936
 20
232.926
 11
16.3396
 21
233.111
  0
LINE
  8
0
 10
16.3396
 20
233.111
 11
16.0644
 21
233.262
  0
LINE
  8
0
 10
16.0644
 20
233.262
 11
15.7725
 21
233.378
  0
LINE
  8
0
 10
15.7725
 20
233.378
 11
15.4684
 21
233.456
  0
LINE
  8
0
 10
15.4684
 20
233.456
 11
15.157
 21
233.495
  0
LINE
  8
0
 10
15.157
 20
233.495
 11
14.843
 21
233.495
  0
LINE
  8
0
 10
14.843
 20
233.495
 11
14.5315
 21
233.456
  0
LINE
  8
0
 10
14.5315
 20
233.456
 11
14.2274
 21
233.378
  0
LINE
  8
0
 10
14.2274
 20
233.378
 11
13.9355
 21
233.262
  0
LINE
  8
0
 10
13.9355
 20
233.262
 11
13.6604
 21
233.111
  0
LINE
  8
0
 10
13.6604
 20
233.111
 11
13.4064
 21
232.926
  0
LINE
  8
0
 10
13.4064
 20
232.926
 11
13.1776
 21
232.711
  0
LINE
  8
0
 10
13.1776
 20
232.711
 11
12.9774
 21
232.469
  0
LINE
  8
0
 10
12.9774
 20
232.469
 11
12.8092
 21
232.204
  0
LINE
  8
0
 10
12.8092
 20
232.204
 11
12.6756
 21
231.92
  0
LINE
  8
0
 10
12.6756
 20
231.92
 11
12.5785
 21
231.622
  0
LINE
  8
0
 10
12.5785
 20
231.622
 11
12.5197
 21
231.313
  0
LINE
  8
0
 10
12.5197
 20
231.313
 11
12.5
 21
231
  0
LINE
  8
0
 10
12.5
 20
231
 11
12.5197
 21
230.687
  0
LINE
  8
0
 10
12.5197
 20
230.687
 11
12.5785
 21
230.378
  0
LINE
  8
0
 10
12.5785
 20
230.378
 11
12.6756
 21
230.08
  0
LINE
  8
0
 10
12.6756
 20
230.08
 11
12.8092
 21
229.796
  0
LINE
  8
0
 10
12.8092
 20
229.796
 11
12.9774
 21
229.531
  0
LINE
  8
0
 10
12.9774
 20
229.531
 11
13.1776
 21
229.289
  0
LINE
  8
0
 10
13.1776
 20
229.289
 11
13.4064
 21
229.074
  0
LINE
  8
0
 10
13.4064
 20
229.074
 11
13.6604
 21
228.889
  0
LINE
  8
0
 10
13.6604
 20
228.889
 11
13.9355
 21
228.738
  0
LINE
  8
0
 10
13.9355
 20
228.738
 11
14.2274
 21
228.622
  0
LINE
  8
0
 10
14.2274
 20
228.622
 11
14.5315
 21
228.544
  0
LINE
  8
0
 10
14.5315
 20
228.544
 11
14.843
 21
228.505
  0
LINE
  8
0
 10
14.843
 20
228.505
 11
15.157
 21
228.505
  0
LINE
  8
0
 10
15.157
 20
228.505
 11
15.4684
 21
228.544
  0
LINE
  8
0
 10
14.9058
 20
229.503
 11
14.7189
 21
229.527
  0
LINE
  8
0
 10
14.7189
 20
229.527
 11
14.5365
 21
229.573
  0
LINE
  8
0
 10
14.5365
 20
229.573
 11
14.3613
 21
229.643
  0
LINE
  8
0
 10
14.3613
 20
229.643
 11
14.1963
 21
229.734
  0
LINE
  8
0
 10
14.1963
 20
229.734
 11
14.0439
 21
229.844
  0
LINE
  8
0
 10
14.0439
 20
229.844
 11
13.9065
 21
229.973
  0
LINE
  8
0
 10
13.9065
 20
229.973
 11
13.7865
 21
230.118
  0
LINE
  8
0
 10
13.7865
 20
230.118
 11
13.6855
 21
230.277
  0
LINE
  8
0
 10
13.6855
 20
230.277
 11
13.6053
 21
230.448
  0
LINE
  8
0
 10
13.6053
 20
230.448
 11
13.5471
 21
230.627
  0
LINE
  8
0
 10
13.5471
 20
230.627
 11
13.5118
 21
230.812
  0
LINE
  8
0
 10
13.5118
 20
230.812
 11
13.5
 21
231
  0
LINE
  8
0
 10
13.5
 20
231
 11
13.5118
 21
231.188
  0
LINE
  8
0
 10
13.5118
 20
231.188
 11
13.5471
 21
231.373
  0
LINE
  8
0
 10
13.5471
 20
231.373
 11
13.6053
 21
231.552
  0
LINE
  8
0
 10
13.6053
 20
231.552
 11
13.6855
 21
231.723
  0
LINE
  8
0
 10
13.6855
 20
231.723
 11
13.7865
 21
231.882
  0
LINE
  8
0
 10
13.7865
 20
231.882
 11
13.9065
 21
232.027
  0
LINE
  8
0
 10
13.9065
 20
232.027
 11
14.0439
 21
232.156
  0
LINE
  8
0
 10
14.0439
 20
232.156
 11
14.1963
 21
232.266
  0
LINE
  8
0
 10
14.1963
 20
232.266
 11
14.3613
 21
232.357
  0
LINE
  8
0
 10
14.3613
 20
232.357
 11
14.5365
 21
232.427
  0
LINE
  8
0
 10
14.5365
 20
232.427
 11
14.7189
 21
232.473
  0
LINE
  8
0
 10
14.7189
 20
232.473
 11
14.9058
 21
232.497
  0
LINE
  8
0
 10
14.9058
 20
232.497
 11
15.0942
 21
232.497
  0
LINE
  8
0
 10
15.0942
 20
232.497
 11
15.2811
 21
232.473
  0
LINE
  8
0
 10
15.2811
 20
232.473
 11
15.4635
 21
232.427
  0
LINE
  8
0
 10
15.4635
 20
232.427
 11
15.6387
 21
232.357
  0
LINE
  8
0
 10
15.6387
 20
232.357
 11
15.8037
 21
232.266
  0
LINE
  8
0
 10
15.8037
 20
232.266
 11
15.9561
 21
232.156
  0
LINE
  8
0
 10
15.9561
 20
232.156
 11
16.0934
 21
232.027
  0
LINE
  8
0
 10
16.0934
 20
232.027
 11
16.2135
 21
231.882
  0
LINE
  8
0
 10
16.2135
 20
231.882
 11
16.3145
 21
231.723
  0
LINE
  8
0
 10
16.3145
 20
231.723
 11
16.3947
 21
231.552
  0
LINE
  8
0
 10
16.3947
 20
231.552
 11
16.4529
 21
231.373
  0
LINE
  8
0
 10
16.4529
 20
231.373
 11
16.4882
 21
231.188
  0
LINE
  8
0
 10
16.4882
 20
231.188
 11
16.5
 21
231
  0
LINE
  8
0
 10
16.5
 20
231
 11
16.4882
 21
230.812
  0
LINE
  8
0
 10
16.4882
 20
230.812
 11
16.4529
 21
230.627
  0
LINE
  8
0
 10
16.4529
 20
230.627
 11
16.3947
 21
230.448
  0
LINE
  8
0
 10
16.3947
 20
230.448
 11
16.3145
 21
230.277
  0
LINE
  8
0
 10
16.3145
 20
230.277
 11
16.2135
 21
230.118
  0
LINE
  8
0
 10
16.2135
 20
230.118
 11
16.0934
 21
229.973
  0
LINE
  8
0
 10
16.0934
 20
229.973
 11
15.9561
 21
229.844
  0
LINE
  8
0
 10
15.9561
 20
229.844
 11
15.8037
 21
229.734
  0
LINE
  8
0
 10
15.8037
 20
229.734
 11
15.6387
 21
229.643
  0
LINE
  8
0
 10
15.6387
 20
229.643
 11
15.4635
 21
229.573
  0
LINE
  8
0
 10
15.4635
 20
229.573
 11
15.2811
 21
229.527
  0
LINE
  8
0
 10
15.2811
 20
229.527
 11
15.0942
 21
229.503
  0
LINE
  8
0
 10
15.0942
 20
229.503
 11
14.9058
 21
229.503
  0
LINE
  8
0
 10
-15.0942
 20
199.503
 11
-15.2811
 21
199.527
  0
LINE
  8
0
 10
-15.2811
 20
199.527
 11
-15.4635
 21
199.573
  0
LINE
  8
0
 10
-15.4635
 20
199.573
 11
-15.6387
 21
199.643
  0
LINE
  8
0
 10
-15.6387
 20
199.643
 11
-15.8037
 21
199.734
  0
LINE
  8
0
 10
-15.8037
 20
199.734
 11
-15.9561
 21
199.844
  0
LINE
  8
0
 10
-15.9561
 20
199.844
 11
-16.0934
 21
199.973
  0
LINE
  8
0
 10
-16.0934
 20
199.973
 11
-16.2135
 21
200.118
  0
LINE
  8
0
 10
-16.2135
 20
200.118
 11
-16.3145
 21
200.277
  0
LINE
  8
0
 10
-16.3145
 20
200.277
 11
-16.3947
 21
200.448
  0
LINE
  8
0
 10
-16.3947
 20
200.448
 11
-16.4529
 21
200.627
  0
LINE
  8
0
 10
-16.4529
 20
200.627
 11
-16.4882
 21
200.812
  0
LINE
  8
0
 10
-16.4882
 20
200.812
 11
-16.5
 21
201
  0
LINE
  8
0
 10
-16.5
 20
201
 11
-16.4882
 21
201.188
  0
LINE
  8
0
 10
-16.4882
 20
201.188
 11
-16.4529
 21
201.373
  0
LINE
  8
0
 10
-16.4529
 20
201.373
 11
-16.3947
 21
201.552
  0
LINE
  8
0
 10
-16.3947
 20
201.552
 11
-16.3145
 21
201.723
  0
LINE
  8
0
 10
-16.3145
 20
201.723
 11
-16.2135
 21
201.882
  0
LINE
  8
0
 10
-16.2135
 20
201.882
 11
-16.0934
 21
202.027
  0
LINE
  8
0
 10
-16.0934
 20
202.027
 11
-15.9561
 21
202.156
  0
LINE
  8
0
 10
-15.9561
 20
202.156
 11
-15.8037
 21
202.266
  0
LINE
  8
0
 10
-15.8037
 20
202.266
 11
-15.6387
 21
202.357
  0
LINE
  8
0
 10
-15.6387
 20
202.357
 11
-15.4635
 21
202.427
  0
LINE
  8
0
 10
-15.4635
 20
202.427
 11
-15.2811
 21
202.473
  0
LINE
  8
0
 10
-15.2811
 20
202.473
 11
-15.0942
 21
202.497
  0
LINE
  8
0
 10
-15.0942
 20
202.497
 11
-14.9058
 21
202.497
  0
LINE
  8
0
 10
-14.9058
 20
202.497
 11
-14.7189
 21
202.473
  0
LINE
  8
0
 10
-14.7189
 20
202.473
 11
-14.5365
 21
202.427
  0
LINE
  8
0
 10
-14.5365
 20
202.427
 11
-14.3613
 21
202.357
  0
LINE
  8
0
 10
-14.3613
 20
202.357
 11
-14.1963
 21
202.266
  0
LINE
  8
0
 10
-14.1963
 20
202.266
 11
-14.0439
 21
202.156
  0
LINE
  8
0
 10
-14.0439
 20
202.156
 11
-13.9065
 21
202.027
  0
LINE
  8
0
 10
-13.9065
 20
202.027
 11
-13.7865
 21
201.882
  0
LINE
  8
0
 10
-13.7865
 20
201.882
 11
-13.6855
 21
201.723
  0
LINE
  8
0
 10
-13.6855
 20
201.723
 11
-13.6053
 21
201.552
  0
LINE
  8
0
 10
-13.6053
 20
201.552
 11
-13.5471
 21
201.373
  0
LINE
  8
0
 10
-13.5471
 20
201.373
 11
-13.5118
 21
201.188
  0
LINE
  8
0
 10
-13.5118
 20
201.188
 11
-13.5
 21
201
  0
LINE
  8
0
 10
-13.5
 20
201
 11
-13.5118
 21
200.812
  0
LINE
  8
0
 10
-13.5118
 20
200.812
 11
-13.5471
 21
200.627
  0
LINE
  8
0
 10
-13.5471
 20
200.627
 11
-13.6053
 21
200.448
  0
LINE
  8
0
 10
-13.6053
 20
200.448
 11
-13.6855
 21
200.277
  0
LINE
  8
0
 10
-13.6855
 20
200.277
 11
-13.7865
 21
200.118
  0
LINE
  8
0
 10
-13.7865
 20
200.118
 11
-13.9065
 21
199.973
  0
LINE
  8
0
 10
-13.9065
 20
199.973
 11
-14.0439
 21
199.844
  0
LINE
  8
0
 10
-14.0439
 20
199.844
 11
-14.1963
 21
199.734
  0
LINE
  8
0
 10
-14.1963
 20
199.734
 11
-14.3613
 21
199.643
  0
LINE
  8
0
 10
-14.3613
 20
199.643
 11
-14.5365
 21
199.573
  0
LINE
  8
0
 10
-14.5365
 20
199.573
 11
-14.7189
 21
199.527
  0
LINE
  8
0
 10
-14.7189
 20
199.527
 11
-14.9058
 21
199.503
  0
LINE
  8
0
 10
-14.9058
 20
199.503
 11
-15.0942
 21
199.503
  0
LINE
  8
0
 10
18.4369
 20
139.589
 11
19.0451
 21
139.745
  0
LINE
  8
0
 10
19.0451
 20
139.745
 11
19.6289
 21
139.976
  0
LINE
  8
0
 10
19.6289
 20
139.976
 11
20.1791
 21
140.278
  0
LINE
  8
0
 10
20.1791
 20
140.278
 11
20.6871
 21
140.647
  0
LINE
  8
0
 10
20.6871
 20
140.647
 11
21.1448
 21
141.077
  0
LINE
  8
0
 10
21.1448
 20
141.077
 11
21.5451
 21
141.561
  0
LINE
  8
0
 10
21.5451
 20
141.561
 11
21.8815
 21
142.091
  0
LINE
  8
0
 10
21.8815
 20
142.091
 11
22.1489
 21
142.659
  0
LINE
  8
0
 10
22.1489
 20
142.659
 11
22.3429
 21
143.257
  0
LINE
  8
0
 10
22.3429
 20
143.257
 11
22.4606
 21
143.873
  0
LINE
  8
0
 10
22.4606
 20
143.873
 11
22.5
 21
144.5
  0
LINE
  8
0
 10
22.5
 20
144.5
 11
22.5
 21
179.5
  0
LINE
  8
0
 10
22.5
 20
179.5
 11
22.4606
 21
180.127
  0
LINE
  8
0
 10
22.4606
 20
180.127
 11
22.3429
 21
180.743
  0
LINE
  8
0
 10
22.3429
 20
180.743
 11
22.1489
 21
181.341
  0
LINE
  8
0
 10
22.1489
 20
181.341
 11
21.8815
 21
181.909
  0
LINE
  8
0
 10
21.8815
 20
181.909
 11
21.5451
 21
182.439
  0
LINE
  8
0
 10
21.5451
 20
182.439
 11
21.1448
 21
182.923
  0
LINE
  8
0
 10
21.1448
 20
182.923
 11
20.6871
 21
183.353
  0
LINE
  8
0
 10
20.6871
 20
183.353
 11
20.1791
 21
183.722
  0
LINE
  8
0
 10
20.1791
 20
183.722
 11
19.6289
 21
184.024
  0
LINE
  8
0
 10
19.6289
 20
184.024
 11
19.0451
 21
184.255
  0
LINE
  8
0
 10
19.0451
 20
184.255
 11
18.4369
 21
184.411
  0
LINE
  8
0
 10
18.4369
 20
184.411
 11
17.8139
 21
184.49
  0
LINE
  8
0
 10
17.8139
 20
184.49
 11
-17.8139
 21
184.49
  0
LINE
  8
0
 10
-17.8139
 20
184.49
 11
-18.4369
 21
184.411
  0
LINE
  8
0
 10
-18.4369
 20
184.411
 11
-19.0451
 21
184.255
  0
LINE
  8
0
 10
-19.0451
 20
184.255
 11
-19.6289
 21
184.024
  0
LINE
  8
0
 10
-19.6289
 20
184.024
 11
-20.1791
 21
183.722
  0
LINE
  8
0
 10
-20.1791
 20
183.722
 11
-20.6871
 21
183.353
  0
LINE
  8
0
 10
-20.6871
 20
183.353
 11
-21.1448
 21
182.923
  0
LINE
  8
0
 10
-21.1448
 20
182.923
 11
-21.5451
 21
182.439
  0
LINE
  8
0
 10
-21.5451
 20
182.439
 11
-21.8815
 21
181.909
  0
LINE
  8
0
 10
-21.8815
 20
181.909
 11
-22.1489
 21
181.341
  0
LINE
  8
0
 10
-22.1489
 20
181.341
 11
-22.3429
 21
180.743
  0
LINE
  8
0
 10
-22.3429
 20
180.743
 11
-22.4606
 21
180.127
  0
LINE
  8
0
 10
-22.4606
 20
180.127
 11
-22.5
 21
179.5
  0
LINE
  8
0
 10
-22.5
 20
179.5
 11
-22.5
 21
144.5
  0
LINE
  8
0
 10
-22.5
 20
144.5
 11
-22.4606
 21
143.873
  0
LINE
  8
0
 10
-22.4606
 20
143.873
 11
-22.3429
 21
143.257
  0
LINE
  8
0
 10
-22.3429
 20
143.257
 11
-22.1489
 21
142.659
  0
LINE
  8
0
 10
-22.1489
 20
142.659
 11
-21.8815
 21
142.091
  0
LINE
  8
0
 10
-21.8815
 20
142.091
 11
-21.5451
 21
141.561
  0
LINE
  8
0
 10
-21.5451
 20
141.561
 11
-21.1448
 21
141.077
  0
LINE
  8
0
 10
-21.1448
 20
141.077
 11
-20.6871
 21
140.647
  0
LINE
  8
0
 10
-20.6871
 20
140.647
 11
-20.1791
 21
140.278
  0
LINE
  8
0
 10
-20.1791
 20
140.278
 11
-19.6289
 21
139.976
  0
LINE
  8
0
 10
-19.6289
 20
139.976
 11
-19.0451
 21
139.745
  0
LINE
  8
0
 10
-19.0451
 20
139.745
 11
-18.4369
 21
139.589
  0
LINE
  8
0
 10
-18.4369
 20
139.589
 11
-17.8139
 21
139.51
  0
LINE
  8
0
 10
-17.8139
 20
139.51
 11
17.8139
 21
139.51
  0
LINE
  8
0
 10
17.8139
 20
139.51
 11
18.4369
 21
139.589
  0
LINE
  8
0
 10
-10.3781
 20
141.682
 11
-10.1185
 21
142.091
  0
LINE
  8
0
 10
-10.1185
 20
142.091
 11
-9.8511
 21
142.659
  0
LINE
  8
0
 10
-9.8511
 20
142.659
 11
-9.65707
 21
143.257
  0
LINE
  8
0
 10
-9.65707
 20
143.257
 11
-9.53941
 21
143.873
  0
LINE
  8
0
 10
-9.53941
 20
143.873
 11
-9.5
 21
144.5
  0
LINE
  8
0
 10
-9.5
 20
144.5
 11
-9.5
 21
147.5
  0
LINE
  8
0
 10
-9.5
 20
147.5
 11
-9.53941
 21
148.127
  0
LINE
  8
0
 10
-9.53941
 20
148.127
 11
-9.65707
 21
148.743
  0
LINE
  8
0
 10
-9.65707
 20
148.743
 11
-9.8511
 21
149.341
  0
LINE
  8
0
 10
-9.8511
 20
149.341
 11
-10.1185
 21
149.909
  0
LINE
  8
0
 10
-10.1185
 20
149.909
 11
-10.4549
 21
150.439
  0
LINE
  8
0
 10
-10.4549
 20
150.439
 11
-10.8551
 21
150.923
  0
LINE
  8
0
 10
-10.8551
 20
150.923
 11
-11.3129
 21
151.353
  0
LINE
  8
0
 10
-11.3129
 20
151.353
 11
-11.8209
 21
151.722
  0
LINE
  8
0
 10
-11.8209
 20
151.722
 11
-12.3711
 21
152.024
  0
LINE
  8
0
 10
-12.3711
 20
152.024
 11
-12.9549
 21
152.255
  0
LINE
  8
0
 10
-12.9549
 20
152.255
 11
-13.5631
 21
152.411
  0
LINE
  8
0
 10
-13.5631
 20
152.411
 11
-14.186
 21
152.49
  0
LINE
  8
0
 10
-14.186
 20
152.49
 11
-17.8139
 21
152.49
  0
LINE
  8
0
 10
-17.8139
 20
152.49
 11
-18.4369
 21
152.411
  0
LINE
  8
0
 10
-18.4369
 20
152.411
 11
-19.0451
 21
152.255
  0
LINE
  8
0
 10
-19.0451
 20
152.255
 11
-19.6289
 21
152.024
  0
LINE
  8
0
 10
-19.6289
 20
152.024
 11
-20.1791
 21
151.722
  0
LINE
  8
0
 10
-20.1791
 20
151.722
 11
-20.3234
 21
151.617
  0
LINE
  8
0
 10
-20.3234
 20
151.617
 11
-20.3234
 21
179.5
  0
LINE
  8
0
 10
-20.3234
 20
179.5
 11
-20.3011
 21
179.854
  0
LINE
  8
0
 10
-20.3011
 20
179.854
 11
-20.2347
 21
180.202
  0
LINE
  8
0
 10
-20.2347
 20
180.202
 11
-20.1251
 21
180.539
  0
LINE
  8
0
 10
-20.1251
 20
180.539
 11
-19.9742
 21
180.86
  0
LINE
  8
0
 10
-19.9742
 20
180.86
 11
-19.7842
 21
181.16
  0
LINE
  8
0
 10
-19.7842
 20
181.16
 11
-19.5582
 21
181.433
  0
LINE
  8
0
 10
-19.5582
 20
181.433
 11
-19.2997
 21
181.675
  0
LINE
  8
0
 10
-19.2997
 20
181.675
 11
-19.0128
 21
181.884
  0
LINE
  8
0
 10
-19.0128
 20
181.884
 11
-18.7021
 21
182.055
  0
LINE
  8
0
 10
-18.7021
 20
182.055
 11
-18.3725
 21
182.185
  0
LINE
  8
0
 10
-18.3725
 20
182.185
 11
-18.0291
 21
182.273
  0
LINE
  8
0
 10
-18.0291
 20
182.273
 11
-17.6773
 21
182.318
  0
LINE
  8
0
 10
-17.6773
 20
182.318
 11
10.3781
 21
182.318
  0
LINE
  8
0
 10
10.3781
 20
182.318
 11
10.1185
 21
181.909
  0
LINE
  8
0
 10
10.1185
 20
181.909
 11
9.8511
 21
181.341
  0
LINE
  8
0
 10
9.8511
 20
181.341
 11
9.65707
 21
180.743
  0
LINE
  8
0
 10
9.65707
 20
180.743
 11
9.53941
 21
180.127
  0
LINE
  8
0
 10
9.53941
 20
180.127
 11
9.5
 21
179.5
  0
LINE
  8
0
 10
9.5
 20
179.5
 11
9.5
 21
176.5
  0
LINE
  8
0
 10
9.5
 20
176.5
 11
9.53941
 21
175.873
  0
LINE
  8
0
 10
9.53941
 20
175.873
 11
9.65707
 21
175.257
  0
LINE
  8
0
 10
9.65707
 20
175.257
 11
9.8511
 21
174.659
  0
LINE
  8
0
 10
9.8511
 20
174.659
 11
10.1185
 21
174.091
  0
LINE
  8
0
 10
10.1185
 20
174.091
 11
10.4549
 21
173.561
  0
LINE
  8
0
 10
10.4549
 20
173.561
 11
10.8551
 21
173.077
  0
LINE
  8
0
 10
10.8551
 20
173.077
 11
11.3129
 21
172.647
  0
LINE
  8
0
 10
11.3129
 20
172.647
 11
11.8209
 21
172.278
  0
LINE
  8
0
 10
11.8209
 20
172.278
 11
12.3711
 21
171.976
  0
LINE
  8
0
 10
12.3711
 20
171.976
 11
12.9549
 21
171.745
  0
LINE
  8
0
 10
12.9549
 20
171.745
 11
13.5631
 21
171.589
  0
LINE
  8
0
 10
13.5631
 20
171.589
 11
14.186
 21
171.51
  0
LINE
  8
0
 10
14.186
 20
171.51
 11
17.8139
 21
171.51
  0
LINE
  8
0
 10
17.8139
 20
171.51
 11
18.4369
 21
171.589
  0
LINE
  8
0
 10
18.4369
 20
171.589
 11
19.0451
 21
171.745
  0
LINE
  8
0
 10
19.0451
 20
171.745
 11
19.6289
 21
171.976
  0
LINE
  8
0
 10
19.6289
 20
171.976
 11
20.1791
 21
172.278
  0
LINE
  8
0
 10
20.1791
 20
172.278
 11
20.3234
 21
172.383
  0
LINE
  8
0
 10
20.3234
 20
172.383
 11
20.3234
 21
144.5
  0
LINE
  8
0
 10
20.3234
 20
144.5
 11
20.3011
 21
144.146
  0
LINE
  8
0
 10
20.3011
 20
144.146
 11
20.2347
 21
143.798
  0
LINE
  8
0
 10
20.2347
 20
143.798
 11
20.1251
 21
143.461
  0
LINE
  8
0
 10
20.1251
 20
143.461
 11
19.9742
 21
143.14
  0
LINE
  8
0
 10
19.9742
 20
143.14
 11
19.7842
 21
142.84
  0
LINE
  8
0
 10
19.7842
 20
142.84
 11
19.5582
 21
142.567
  0
LINE
  8
0
 10
19.5582
 20
142.567
 11
19.2997
 21
142.325
  0
LINE
  8
0
 10
19.2997
 20
142.325
 11
19.0128
 21
142.116
  0
LINE
  8
0
 10
19.0128
 20
142.116
 11
18.7021
 21
141.945
  0
LINE
  8
0
 10
18.7021
 20
141.945
 11
18.3725
 21
141.815
  0
LINE
  8
0
 10
18.3725
 20
141.815
 11
18.0291
 21
141.727
  0
LINE
  8
0
 10
18.0291
 20
141.727
 11
17.6773
 21
141.682
  0
LINE
  8
0
 10
17.6773
 20
141.682
 11
-10.3781
 21
141.682
  0
LINE
  8
0
 10
14.8493
 20
174.605
 11
14.5503
 21
174.643
  0
LINE
  8
0
 10
14.5503
 20
174.643
 11
14.2583
 21
174.717
  0
LINE
  8
0
 10
14.2583
 20
174.717
 11
13.9781
 21
174.828
  0
LINE
  8
0
 10
13.9781
 20
174.828
 11
13.714
 21
174.974
  0
LINE
  8
0
 10
13.714
 20
174.974
 11
13.4702
 21
175.151
  0
LINE
  8
0
 10
13.4702
 20
175.151
 11
13.2505
 21
175.357
  0
LINE
  8
0
 10
13.2505
 20
175.357
 11
13.0583
 21
175.589
  0
LINE
  8
0
 10
13.0583
 20
175.589
 11
12.8969
 21
175.844
  0
LINE
  8
0
 10
12.8969
 20
175.844
 11
12.7685
 21
176.117
  0
LINE
  8
0
 10
12.7685
 20
176.117
 11
12.6754
 21
176.403
  0
LINE
  8
0
 10
12.6754
 20
176.403
 11
12.6189
 21
176.699
  0
LINE
  8
0
 10
12.6189
 20
176.699
 11
12.6
 21
177
  0
LINE
  8
0
 10
12.6
 20
177
 11
12.6189
 21
177.301
  0
LINE
  8
0
 10
12.6189
 20
177.301
 11
12.6754
 21
177.597
  0
LINE
  8
0
 10
12.6754
 20
177.597
 11
12.7685
 21
177.883
  0
LINE
  8
0
 10
12.7685
 20
177.883
 11
12.8969
 21
178.156
  0
LINE
  8
0
 10
12.8969
 20
178.156
 11
13.0583
 21
178.411
  0
LINE
  8
0
 10
13.0583
 20
178.411
 11
13.2505
 21
178.643
  0
LINE
  8
0
 10
13.2505
 20
178.643
 11
13.4702
 21
178.849
  0
LINE
  8
0
 10
13.4702
 20
178.849
 11
13.714
 21
179.026
  0
LINE
  8
0
 10
13.714
 20
179.026
 11
13.9781
 21
179.172
  0
LINE
  8
0
 10
13.9781
 20
179.172
 11
14.2583
 21
179.283
  0
LINE
  8
0
 10
14.2583
 20
179.283
 11
14.5503
 21
179.357
  0
LINE
  8
0
 10
14.5503
 20
179.357
 11
14.8493
 21
179.395
  0
LINE
  8
0
 10
14.8493
 20
179.395
 11
15.1507
 21
179.395
  0
LINE
  8
0
 10
15.1507
 20
179.395
 11
15.4497
 21
179.357
  0
LINE
  8
0
 10
15.4497
 20
179.357
 11
15.7416
 21
179.283
  0
LINE
  8
0
 10
15.7416
 20
179.283
 11
16.0219
 21
179.172
  0
LINE
  8
0
 10
16.0219
 20
179.172
 11
16.286
 21
179.026
  0
LINE
  8
0
 10
16.286
 20
179.026
 11
16.5298
 21
178.849
  0
LINE
  8
0
 10
16.5298
 20
178.849
 11
16.7495
 21
178.643
  0
LINE
  8
0
 10
16.7495
 20
178.643
 11
16.9416
 21
178.411
  0
LINE
  8
0
 10
16.9416
 20
178.411
 11
17.1031
 21
178.156
  0
LINE
  8
0
 10
17.1031
 20
178.156
 11
17.2315
 21
177.883
  0
LINE
  8
0
 10
17.2315
 20
177.883
 11
17.3246
 21
177.597
  0
LINE
  8
0
 10
17.3246
 20
177.597
 11
17.3811
 21
177.301
  0
LINE
  8
0
 10
17.3811
 20
177.301
 11
17.4
 21
177
  0
LINE
  8
0
 10
17.4
 20
177
 11
17.3811
 21
176.699
  0
LINE
  8
0
 10
17.3811
 20
176.699
 11
17.3246
 21
176.403
  0
LINE
  8
0
 10
17.3246
 20
176.403
 11
17.2315
 21
176.117
  0
LINE
  8
0
 10
17.2315
 20
176.117
 11
17.1031
 21
175.844
  0
LINE
  8
0
 10
17.1031
 20
175.844
 11
16.9416
 21
175.589
  0
LINE
  8
0
 10
16.9416
 20
175.589
 11
16.7495
 21
175.357
  0
LINE
  8
0
 10
16.7495
 20
175.357
 11
16.5298
 21
175.151
  0
LINE
  8
0
 10
16.5298
 20
175.151
 11
16.286
 21
174.974
  0
LINE
  8
0
 10
16.286
 20
174.974
 11
16.0219
 21
174.828
  0
LINE
  8
0
 10
16.0219
 20
174.828
 11
15.7416
 21
174.717
  0
LINE
  8
0
 10
15.7416
 20
174.717
 11
15.4497
 21
174.643
  0
LINE
  8
0
 10
15.4497
 20
174.643
 11
15.1507
 21
174.605
  0
LINE
  8
0
 10
15.1507
 20
174.605
 11
14.8493
 21
174.605
  0
LINE
  8
0
 10
-15.1507
 20
144.605
 11
-15.4497
 21
144.643
  0
LINE
  8
0
 10
-15.4497
 20
144.643
 11
-15.7416
 21
144.717
  0
LINE
  8
0
 10
-15.7416
 20
144.717
 11
-16.0219
 21
144.828
  0
LINE
  8
0
 10
-16.0219
 20
144.828
 11
-16.286
 21
144.974
  0
LINE
  8
0
 10
-16.286
 20
144.974
 11
-16.5298
 21
145.151
  0
LINE
  8
0
 10
-16.5298
 20
145.151
 11
-16.7495
 21
145.357
  0
LINE
  8
0
 10
-16.7495
 20
145.357
 11
-16.9416
 21
145.589
  0
LINE
  8
0
 10
-16.9416
 20
145.589
 11
-17.1031
 21
145.844
  0
LINE
  8
0
 10
-17.1031
 20
145.844
 11
-17.2315
 21
146.117
  0
LINE
  8
0
 10
-17.2315
 20
146.117
 11
-17.3246
 21
146.403
  0
LINE
  8
0
 10
-17.3246
 20
146.403
 11
-17.3811
 21
146.699
  0
LINE
  8
0
 10
-17.3811
 20
146.699
 11
-17.4
 21
147
  0
LINE
  8
0
 10
-17.4
 20
147
 11
-17.3811
 21
147.301
  0
LINE
  8
0
 10
-17.3811
 20
147.301
 11
-17.3246
 21
147.597
  0
LINE
  8
0
 10
-17.3246
 20
147.597
 11
-17.2315
 21
147.883
  0
LINE
  8
0
 10
-17.2315
 20
147.883
 11
-17.1031
 21
148.156
  0
LINE
  8
0
 10
-17.1031
 20
148.156
 11
-16.9416
 21
148.411
  0
LINE
  8
0
 10
-16.9416
 20
148.411
 11
-16.7495
 21
148.643
  0
LINE
  8
0
 10
-16.7495
 20
148.643
 11
-16.5298
 21
148.849
  0
LINE
  8
0
 10
-16.5298
 20
148.849
 11
-16.286
 21
149.026
  0
LINE
  8
0
 10
-16.286
 20
149.026
 11
-16.0219
 21
149.172
  0
LINE
  8
0
 10
-16.0219
 20
149.172
 11
-15.7416
 21
149.283
  0
LINE
  8
0
 10
-15.7416
 20
149.283
 11
-15.4497
 21
149.357
  0
LINE
  8
0
 10
-15.4497
 20
149.357
 11
-15.1507
 21
149.395
  0
LINE
  8
0
 10
-15.1507
 20
149.395
 11
-14.8493
 21
149.395
  0
LINE
  8
0
 10
-14.8493
 20
149.395
 11
-14.5503
 21
149.357
  0
LINE
  8
0
 10
-14.5503
 20
149.357
 11
-14.2583
 21
149.283
  0
LINE
  8
0
 10
-14.2583
 20
149.283
 11
-13.9781
 21
149.172
  0
LINE
  8
0
 10
-13.9781
 20
149.172
 11
-13.714
 21
149.026
  0
LINE
  8
0
 10
-13.714
 20
149.026
 11
-13.4702
 21
148.849
  0
LINE
  8
0
 10
-13.4702
 20
148.849
 11
-13.2505
 21
148.643
  0
LINE
  8
0
 10
-13.2505
 20
148.643
 11
-13.0583
 21
148.411
  0
LINE
  8
0
 10
-13.0583
 20
148.411
 11
-12.8969
 21
148.156
  0
LINE
  8
0
 10
-12.8969
 20
148.156
 11
-12.7685
 21
147.883
  0
LINE
  8
0
 10
-12.7685
 20
147.883
 11
-12.6754
 21
147.597
  0
LINE
  8
0
 10
-12.6754
 20
147.597
 11
-12.6189
 21
147.301
  0
LINE
  8
0
 10
-12.6189
 20
147.301
 11
-12.6
 21
147
  0
LINE
  8
0
 10
-12.6
 20
147
 11
-12.6189
 21
146.699
  0
LINE
  8
0
 10
-12.6189
 20
146.699
 11
-12.6754
 21
146.403
  0
LINE
  8
0
 10
-12.6754
 20
146.403
 11
-12.7685
 21
146.117
  0
LINE
  8
0
 10
-12.7685
 20
146.117
 11
-12.8969
 21
145.844
  0
LINE
  8
0
 10
-12.8969
 20
145.844
 11
-13.0583
 21
145.589
  0
LINE
  8
0
 10
-13.0583
 20
145.589
 11
-13.2505
 21
145.357
  0
LINE
  8
0
 10
-13.2505
 20
145.357
 11
-13.4702
 21
145.151
  0
LINE
  8
0
 10
-13.4702
 20
145.151
 11
-13.714
 21
144.974
  0
LINE
  8
0
 10
-13.714
 20
144.974
 11
-13.9781
 21
144.828
  0
LINE
  8
0
 10
-13.9781
 20
144.828
 11
-14.2583
 21
144.717
  0
LINE
  8
0
 10
-14.2583
 20
144.717
 11
-14.5503
 21
144.643
  0
LINE
  8
0
 10
-14.5503
 20
144.643
 11
-14.8493
 21
144.605
  0
LINE
  8
0
 10
-14.8493
 20
144.605
 11
-15.1507
 21
144.605
  0
ENDSEC
  0
SECTION
  2
OBJECTS
  0
DICTIONARY
  0
ENDSEC
  0
EOF
