  0
SECTION
  2
BLOCKS
  0
ENDSEC
  0
SECTION
  2
ENTITIES
  0
LINE
  8
0
 10
59.5
 20
87.5
 11
59.4606
 21
88.1267
  0
LINE
  8
0
 10
59.4606
 20
88.1267
 11
59.3429
 21
88.7434
  0
LINE
  8
0
 10
59.3429
 20
88.7434
 11
59.1489
 21
89.3406
  0
LINE
  8
0
 10
59.1489
 20
89.3406
 11
58.8815
 21
89.9088
  0
LINE
  8
0
 10
58.8815
 20
89.9088
 11
58.5451
 21
90.4389
  0
LINE
  8
0
 10
58.5451
 20
90.4389
 11
58.1448
 21
90.9227
  0
LINE
  8
0
 10
58.1448
 20
90.9227
 11
57.6871
 21
91.3526
  0
LINE
  8
0
 10
57.6871
 20
91.3526
 11
57.1791
 21
91.7216
  0
LINE
  8
0
 10
57.1791
 20
91.7216
 11
56.6289
 21
92.0241
  0
LINE
  8
0
 10
56.6289
 20
92.0241
 11
56.0451
 21
92.2553
  0
LINE
  8
0
 10
56.0451
 20
92.2553
 11
55.4369
 21
92.4114
  0
LINE
  8
0
 10
55.4369
 20
92.4114
 11
54.8139
 21
92.4901
  0
LINE
  8
0
 10
54.8139
 20
92.4901
 11
-54.8139
 21
92.4901
  0
LINE
  8
0
 10
-54.8139
 20
92.4901
 11
-55.4369
 21
92.4114
  0
LINE
  8
0
 10
-55.4369
 20
92.4114
 11
-56.0451
 21
92.2553
  0
LINE
  8
0
 10
-56.0451
 20
92.2553
 11
-56.6289
 21
92.0241
  0
LINE
  8
0
 10
-56.6289
 20
92.0241
 11
-57.1791
 21
91.7216
  0
LINE
  8
0
 10
-57.1791
 20
91.7216
 11
-57.6871
 21
91.3526
  0
LINE
  8
0
 10
-57.6871
 20
91.3526
 11
-58.1448
 21
90.9227
  0
LINE
  8
0
 10
-58.1448
 20
90.9227
 11
-58.5451
 21
90.4389
  0
LINE
  8
0
 10
-58.5451
 20
90.4389
 11
-58.8815
 21
89.9088
  0
LINE
  8
0
 10
-58.8815
 20
89.9088
 11
-59.1489
 21
89.3406
  0
LINE
  8
0
 10
-59.1489
 20
89.3406
 11
-59.3429
 21
88.7434
  0
LINE
  8
0
 10
-59.3429
 20
88.7434
 11
-59.4606
 21
88.1267
  0
LINE
  8
0
 10
-59.4606
 20
88.1267
 11
-59.5
 21
87.5
  0
LINE
  8
0
 10
-59.5
 20
87.5
 11
-59.5
 21
72
  0
LINE
  8
0
 10
-59.5
 20
72
 11
59.5
 21
72
  0
LINE
  8
0
 10
59.5
 20
72
 11
59.5
 21
87.5
  0
LINE
  8
0
 10
-32.7483
 20
83.9133
 11
-32.7483
 21
87.0867
  0
LINE
  8
0
 10
-32.7483
 20
87.0867
 11
-30
 21
88.6735
  0
LINE
  8
0
 10
-30
 20
88.6735
 11
-27.2517
 21
87.0867
  0
LINE
  8
0
 10
-27.2517
 20
87.0867
 11
-27.2517
 21
83.9133
  0
LINE
  8
0
 10
-27.2517
 20
83.9133
 11
-30
 21
82.3265
  0
LINE
  8
0
 10
-30
 20
82.3265
 11
-32.7483
 21
83.9133
  0
LINE
  8
0
 10
22.3116
 20
82.5059
 11
21.9379
 21
82.5531
  0
LINE
  8
0
 10
21.9379
 20
82.5531
 11
21.5729
 21
82.6468
  0
LINE
  8
0
 10
21.5729
 20
82.6468
 11
21.2227
 21
82.7855
  0
LINE
  8
0
 10
21.2227
 20
82.7855
 11
20.8925
 21
82.967
  0
LINE
  8
0
 10
20.8925
 20
82.967
 11
20.5877
 21
83.1884
  0
LINE
  8
0
 10
20.5877
 20
83.1884
 11
20.3131
 21
83.4464
  0
LINE
  8
0
 10
20.3131
 20
83.4464
 11
20.0729
 21
83.7366
  0
LINE
  8
0
 10
20.0729
 20
83.7366
 11
19.8711
 21
84.0547
  0
LINE
  8
0
 10
19.8711
 20
84.0547
 11
19.7107
 21
84.3956
  0
LINE
  8
0
 10
19.7107
 20
84.3956
 11
19.5942
 21
84.7539
  0
LINE
  8
0
 10
19.5942
 20
84.7539
 11
19.5237
 21
85.124
  0
LINE
  8
0
 10
19.5237
 20
85.124
 11
19.5
 21
85.5
  0
LINE
  8
0
 10
19.5
 20
85.5
 11
19.5237
 21
85.876
  0
LINE
  8
0
 10
19.5237
 20
85.876
 11
19.5942
 21
86.2461
  0
LINE
  8
0
 10
19.5942
 20
86.2461
 11
19.7107
 21
86.6044
  0
LINE
  8
0
 10
19.7107
 20
86.6044
 11
19.8711
 21
86.9453
  0
LINE
  8
0
 10
19.8711
 20
86.9453
 11
20.0729
 21
87.2634
  0
LINE
  8
0
 10
20.0729
 20
87.2634
 11
20.3131
 21
87.5536
  0
LINE
  8
0
 10
20.3131
 20
87.5536
 11
20.5877
 21
87.8115
  0
LINE
  8
0
 10
20.5877
 20
87.8115
 11
20.8925
 21
88.033
  0
LINE
  8
0
 10
20.8925
 20
88.033
 11
21.2227
 21
88.2145
  0
LINE
  8
0
 10
21.2227
 20
88.2145
 11
21.5729
 21
88.3532
  0
LINE
  8
0
 10
21.5729
 20
88.3532
 11
21.9379
 21
88.4469
  0
LINE
  8
0
 10
21.9379
 20
88.4469
 11
22.3116
 21
88.4941
  0
LINE
  8
0
 10
22.3116
 20
88.4941
 11
22.6884
 21
88.4941
  0
LINE
  8
0
 10
22.6884
 20
88.4941
 11
23.0621
 21
88.4469
  0
LINE
  8
0
 10
23.0621
 20
88.4469
 11
23.427
 21
88.3532
  0
LINE
  8
0
 10
23.427
 20
88.3532
 11
23.7773
 21
88.2145
  0
LINE
  8
0
 10
23.7773
 20
88.2145
 11
24.1075
 21
88.033
  0
LINE
  8
0
 10
24.1075
 20
88.033
 11
24.4123
 21
87.8115
  0
LINE
  8
0
 10
24.4123
 20
87.8115
 11
24.6869
 21
87.5536
  0
LINE
  8
0
 10
24.6869
 20
87.5536
 11
24.927
 21
87.2634
  0
LINE
  8
0
 10
24.927
 20
87.2634
 11
25.1289
 21
86.9453
  0
LINE
  8
0
 10
25.1289
 20
86.9453
 11
25.2893
 21
86.6044
  0
LINE
  8
0
 10
25.2893
 20
86.6044
 11
25.4057
 21
86.2461
  0
LINE
  8
0
 10
25.4057
 20
86.2461
 11
25.4763
 21
85.876
  0
LINE
  8
0
 10
25.4763
 20
85.876
 11
25.5
 21
85.5
  0
LINE
  8
0
 10
25.5
 20
85.5
 11
25.4763
 21
85.124
  0
LINE
  8
0
 10
25.4763
 20
85.124
 11
25.4057
 21
84.7539
  0
LINE
  8
0
 10
25.4057
 20
84.7539
 11
25.2893
 21
84.3956
  0
LINE
  8
0
 10
25.2893
 20
84.3956
 11
25.1289
 21
84.0547
  0
LINE
  8
0
 10
25.1289
 20
84.0547
 11
24.927
 21
83.7366
  0
LINE
  8
0
 10
24.927
 20
83.7366
 11
24.6869
 21
83.4464
  0
LINE
  8
0
 10
24.6869
 20
83.4464
 11
24.4123
 21
83.1884
  0
LINE
  8
0
 10
24.4123
 20
83.1884
 11
24.1075
 21
82.967
  0
LINE
  8
0
 10
24.1075
 20
82.967
 11
23.7773
 21
82.7855
  0
LINE
  8
0
 10
23.7773
 20
82.7855
 11
23.427
 21
82.6468
  0
LINE
  8
0
 10
23.427
 20
82.6468
 11
23.0621
 21
82.5531
  0
LINE
  8
0
 10
23.0621
 20
82.5531
 11
22.6884
 21
82.5059
  0
LINE
  8
0
 10
22.6884
 20
82.5059
 11
22.3116
 21
82.5059
  0
LINE
  8
0
 10
37.3116
 20
82.5059
 11
36.9379
 21
82.5531
  0
LINE
  8
0
 10
36.9379
 20
82.5531
 11
36.5729
 21
82.6468
  0
LINE
  8
0
 10
36.5729
 20
82.6468
 11
36.2227
 21
82.7855
  0
LINE
  8
0
 10
36.2227
 20
82.7855
 11
35.8925
 21
82.967
  0
LINE
  8
0
 10
35.8925
 20
82.967
 11
35.5877
 21
83.1884
  0
LINE
  8
0
 10
35.5877
 20
83.1884
 11
35.3131
 21
83.4464
  0
LINE
  8
0
 10
35.3131
 20
83.4464
 11
35.0729
 21
83.7366
  0
LINE
  8
0
 10
35.0729
 20
83.7366
 11
34.8711
 21
84.0547
  0
LINE
  8
0
 10
34.8711
 20
84.0547
 11
34.7107
 21
84.3956
  0
LINE
  8
0
 10
34.7107
 20
84.3956
 11
34.5942
 21
84.7539
  0
LINE
  8
0
 10
34.5942
 20
84.7539
 11
34.5237
 21
85.124
  0
LINE
  8
0
 10
34.5237
 20
85.124
 11
34.5
 21
85.5
  0
LINE
  8
0
 10
34.5
 20
85.5
 11
34.5237
 21
85.876
  0
LINE
  8
0
 10
34.5237
 20
85.876
 11
34.5942
 21
86.2461
  0
LINE
  8
0
 10
34.5942
 20
86.2461
 11
34.7107
 21
86.6044
  0
LINE
  8
0
 10
34.7107
 20
86.6044
 11
34.8711
 21
86.9453
  0
LINE
  8
0
 10
34.8711
 20
86.9453
 11
35.0729
 21
87.2634
  0
LINE
  8
0
 10
35.0729
 20
87.2634
 11
35.3131
 21
87.5536
  0
LINE
  8
0
 10
35.3131
 20
87.5536
 11
35.5877
 21
87.8115
  0
LINE
  8
0
 10
35.5877
 20
87.8115
 11
35.8925
 21
88.033
  0
LINE
  8
0
 10
35.8925
 20
88.033
 11
36.2227
 21
88.2145
  0
LINE
  8
0
 10
36.2227
 20
88.2145
 11
36.5729
 21
88.3532
  0
LINE
  8
0
 10
36.5729
 20
88.3532
 11
36.9379
 21
88.4469
  0
LINE
  8
0
 10
36.9379
 20
88.4469
 11
37.3116
 21
88.4941
  0
LINE
  8
0
 10
37.3116
 20
88.4941
 11
37.6884
 21
88.4941
  0
LINE
  8
0
 10
37.6884
 20
88.4941
 11
38.0621
 21
88.4469
  0
LINE
  8
0
 10
38.0621
 20
88.4469
 11
38.427
 21
88.3532
  0
LINE
  8
0
 10
38.427
 20
88.3532
 11
38.7773
 21
88.2145
  0
LINE
  8
0
 10
38.7773
 20
88.2145
 11
39.1075
 21
88.033
  0
LINE
  8
0
 10
39.1075
 20
88.033
 11
39.4123
 21
87.8115
  0
LINE
  8
0
 10
39.4123
 20
87.8115
 11
39.6869
 21
87.5536
  0
LINE
  8
0
 10
39.6869
 20
87.5536
 11
39.927
 21
87.2634
  0
LINE
  8
0
 10
39.927
 20
87.2634
 11
40.1289
 21
86.9453
  0
LINE
  8
0
 10
40.1289
 20
86.9453
 11
40.2893
 21
86.6044
  0
LINE
  8
0
 10
40.2893
 20
86.6044
 11
40.4057
 21
86.2461
  0
LINE
  8
0
 10
40.4057
 20
86.2461
 11
40.4763
 21
85.876
  0
LINE
  8
0
 10
40.4763
 20
85.876
 11
40.5
 21
85.5
  0
LINE
  8
0
 10
40.5
 20
85.5
 11
40.4763
 21
85.124
  0
LINE
  8
0
 10
40.4763
 20
85.124
 11
40.4057
 21
84.7539
  0
LINE
  8
0
 10
40.4057
 20
84.7539
 11
40.2893
 21
84.3956
  0
LINE
  8
0
 10
40.2893
 20
84.3956
 11
40.1289
 21
84.0547
  0
LINE
  8
0
 10
40.1289
 20
84.0547
 11
39.927
 21
83.7366
  0
LINE
  8
0
 10
39.927
 20
83.7366
 11
39.6869
 21
83.4464
  0
LINE
  8
0
 10
39.6869
 20
83.4464
 11
39.4123
 21
83.1884
  0
LINE
  8
0
 10
39.4123
 20
83.1884
 11
39.1075
 21
82.967
  0
LINE
  8
0
 10
39.1075
 20
82.967
 11
38.7773
 21
82.7855
  0
LINE
  8
0
 10
38.7773
 20
82.7855
 11
38.427
 21
82.6468
  0
LINE
  8
0
 10
38.427
 20
82.6468
 11
38.0621
 21
82.5531
  0
LINE
  8
0
 10
38.0621
 20
82.5531
 11
37.6884
 21
82.5059
  0
LINE
  8
0
 10
37.6884
 20
82.5059
 11
37.3116
 21
82.5059
  0
LINE
  8
0
 10
-37.6884
 20
82.5059
 11
-38.0621
 21
82.5531
  0
LINE
  8
0
 10
-38.0621
 20
82.5531
 11
-38.427
 21
82.6468
  0
LINE
  8
0
 10
-38.427
 20
82.6468
 11
-38.7773
 21
82.7855
  0
LINE
  8
0
 10
-38.7773
 20
82.7855
 11
-39.1075
 21
82.967
  0
LINE
  8
0
 10
-39.1075
 20
82.967
 11
-39.4123
 21
83.1884
  0
LINE
  8
0
 10
-39.4123
 20
83.1884
 11
-39.6869
 21
83.4464
  0
LINE
  8
0
 10
-39.6869
 20
83.4464
 11
-39.927
 21
83.7366
  0
LINE
  8
0
 10
-39.927
 20
83.7366
 11
-40.1289
 21
84.0547
  0
LINE
  8
0
 10
-40.1289
 20
84.0547
 11
-40.2893
 21
84.3956
  0
LINE
  8
0
 10
-40.2893
 20
84.3956
 11
-40.4057
 21
84.7539
  0
LINE
  8
0
 10
-40.4057
 20
84.7539
 11
-40.4763
 21
85.124
  0
LINE
  8
0
 10
-40.4763
 20
85.124
 11
-40.5
 21
85.5
  0
LINE
  8
0
 10
-40.5
 20
85.5
 11
-40.4763
 21
85.876
  0
LINE
  8
0
 10
-40.4763
 20
85.876
 11
-40.4057
 21
86.2461
  0
LINE
  8
0
 10
-40.4057
 20
86.2461
 11
-40.2893
 21
86.6044
  0
LINE
  8
0
 10
-40.2893
 20
86.6044
 11
-40.1289
 21
86.9453
  0
LINE
  8
0
 10
-40.1289
 20
86.9453
 11
-39.927
 21
87.2634
  0
LINE
  8
0
 10
-39.927
 20
87.2634
 11
-39.6869
 21
87.5536
  0
LINE
  8
0
 10
-39.6869
 20
87.5536
 11
-39.4123
 21
87.8115
  0
LINE
  8
0
 10
-39.4123
 20
87.8115
 11
-39.1075
 21
88.033
  0
LINE
  8
0
 10
-39.1075
 20
88.033
 11
-38.7773
 21
88.2145
  0
LINE
  8
0
 10
-38.7773
 20
88.2145
 11
-38.427
 21
88.3532
  0
LINE
  8
0
 10
-38.427
 20
88.3532
 11
-38.0621
 21
88.4469
  0
LINE
  8
0
 10
-38.0621
 20
88.4469
 11
-37.6884
 21
88.4941
  0
LINE
  8
0
 10
-37.6884
 20
88.4941
 11
-37.3116
 21
88.4941
  0
LINE
  8
0
 10
-37.3116
 20
88.4941
 11
-36.9379
 21
88.4469
  0
LINE
  8
0
 10
-36.9379
 20
88.4469
 11
-36.5729
 21
88.3532
  0
LINE
  8
0
 10
-36.5729
 20
88.3532
 11
-36.2227
 21
88.2145
  0
LINE
  8
0
 10
-36.2227
 20
88.2145
 11
-35.8925
 21
88.033
  0
LINE
  8
0
 10
-35.8925
 20
88.033
 11
-35.5877
 21
87.8115
  0
LINE
  8
0
 10
-35.5877
 20
87.8115
 11
-35.3131
 21
87.5536
  0
LINE
  8
0
 10
-35.3131
 20
87.5536
 11
-35.0729
 21
87.2634
  0
LINE
  8
0
 10
-35.0729
 20
87.2634
 11
-34.8711
 21
86.9453
  0
LINE
  8
0
 10
-34.8711
 20
86.9453
 11
-34.7107
 21
86.6044
  0
LINE
  8
0
 10
-34.7107
 20
86.6044
 11
-34.5942
 21
86.2461
  0
LINE
  8
0
 10
-34.5942
 20
86.2461
 11
-34.5237
 21
85.876
  0
LINE
  8
0
 10
-34.5237
 20
85.876
 11
-34.5
 21
85.5
  0
LINE
  8
0
 10
-34.5
 20
85.5
 11
-34.5237
 21
85.124
  0
LINE
  8
0
 10
-34.5237
 20
85.124
 11
-34.5942
 21
84.7539
  0
LINE
  8
0
 10
-34.5942
 20
84.7539
 11
-34.7107
 21
84.3956
  0
LINE
  8
0
 10
-34.7107
 20
84.3956
 11
-34.8711
 21
84.0547
  0
LINE
  8
0
 10
-34.8711
 20
84.0547
 11
-35.0729
 21
83.7366
  0
LINE
  8
0
 10
-35.0729
 20
83.7366
 11
-35.3131
 21
83.4464
  0
LINE
  8
0
 10
-35.3131
 20
83.4464
 11
-35.5877
 21
83.1884
  0
LINE
  8
0
 10
-35.5877
 20
83.1884
 11
-35.8925
 21
82.967
  0
LINE
  8
0
 10
-35.8925
 20
82.967
 11
-36.2227
 21
82.7855
  0
LINE
  8
0
 10
-36.2227
 20
82.7855
 11
-36.5729
 21
82.6468
  0
LINE
  8
0
 10
-36.5729
 20
82.6468
 11
-36.9379
 21
82.5531
  0
LINE
  8
0
 10
-36.9379
 20
82.5531
 11
-37.3116
 21
82.5059
  0
LINE
  8
0
 10
-37.3116
 20
82.5059
 11
-37.6884
 21
82.5059
  0
LINE
  8
0
 10
-7.68837
 20
82.5059
 11
-8.06213
 21
82.5531
  0
LINE
  8
0
 10
-8.06213
 20
82.5531
 11
-8.42705
 21
82.6468
  0
LINE
  8
0
 10
-8.42705
 20
82.6468
 11
-8.77733
 21
82.7855
  0
LINE
  8
0
 10
-8.77733
 20
82.7855
 11
-9.10747
 21
82.967
  0
LINE
  8
0
 10
-9.10747
 20
82.967
 11
-9.41226
 21
83.1884
  0
LINE
  8
0
 10
-9.41226
 20
83.1884
 11
-9.6869
 21
83.4464
  0
LINE
  8
0
 10
-9.6869
 20
83.4464
 11
-9.92705
 21
83.7366
  0
LINE
  8
0
 10
-9.92705
 20
83.7366
 11
-10.1289
 21
84.0547
  0
LINE
  8
0
 10
-10.1289
 20
84.0547
 11
-10.2893
 21
84.3956
  0
LINE
  8
0
 10
-10.2893
 20
84.3956
 11
-10.4057
 21
84.7539
  0
LINE
  8
0
 10
-10.4057
 20
84.7539
 11
-10.4763
 21
85.124
  0
LINE
  8
0
 10
-10.4763
 20
85.124
 11
-10.5
 21
85.5
  0
LINE
  8
0
 10
-10.5
 20
85.5
 11
-10.4763
 21
85.876
  0
LINE
  8
0
 10
-10.4763
 20
85.876
 11
-10.4057
 21
86.2461
  0
LINE
  8
0
 10
-10.4057
 20
86.2461
 11
-10.2893
 21
86.6044
  0
LINE
  8
0
 10
-10.2893
 20
86.6044
 11
-10.1289
 21
86.9453
  0
LINE
  8
0
 10
-10.1289
 20
86.9453
 11
-9.92705
 21
87.2634
  0
LINE
  8
0
 10
-9.92705
 20
87.2634
 11
-9.6869
 21
87.5536
  0
LINE
  8
0
 10
-9.6869
 20
87.5536
 11
-9.41226
 21
87.8115
  0
LINE
  8
0
 10
-9.41226
 20
87.8115
 11
-9.10747
 21
88.033
  0
LINE
  8
0
 10
-9.10747
 20
88.033
 11
-8.77733
 21
88.2145
  0
LINE
  8
0
 10
-8.77733
 20
88.2145
 11
-8.42705
 21
88.3532
  0
LINE
  8
0
 10
-8.42705
 20
88.3532
 11
-8.06213
 21
88.4469
  0
LINE
  8
0
 10
-8.06213
 20
88.4469
 11
-7.68837
 21
88.4941
  0
LINE
  8
0
 10
-7.68837
 20
88.4941
 11
-7.31161
 21
88.4941
  0
LINE
  8
0
 10
-7.31161
 20
88.4941
 11
-6.93785
 21
88.4469
  0
LINE
  8
0
 10
-6.93785
 20
88.4469
 11
-6.57294
 21
88.3532
  0
LINE
  8
0
 10
-6.57294
 20
88.3532
 11
-6.22266
 21
88.2145
  0
LINE
  8
0
 10
-6.22266
 20
88.2145
 11
-5.89252
 21
88.033
  0
LINE
  8
0
 10
-5.89252
 20
88.033
 11
-5.58772
 21
87.8115
  0
LINE
  8
0
 10
-5.58772
 20
87.8115
 11
-5.31308
 21
87.5536
  0
LINE
  8
0
 10
-5.31308
 20
87.5536
 11
-5.07294
 21
87.2634
  0
LINE
  8
0
 10
-5.07294
 20
87.2634
 11
-4.87108
 21
86.9453
  0
LINE
  8
0
 10
-4.87108
 20
86.9453
 11
-4.71066
 21
86.6044
  0
LINE
  8
0
 10
-4.71066
 20
86.6044
 11
-4.59424
 21
86.2461
  0
LINE
  8
0
 10
-4.59424
 20
86.2461
 11
-4.52365
 21
85.876
  0
LINE
  8
0
 10
-4.52365
 20
85.876
 11
-4.5
 21
85.5
  0
LINE
  8
0
 10
-4.5
 20
85.5
 11
-4.52365
 21
85.124
  0
LINE
  8
0
 10
-4.52365
 20
85.124
 11
-4.59424
 21
84.7539
  0
LINE
  8
0
 10
-4.59424
 20
84.7539
 11
-4.71066
 21
84.3956
  0
LINE
  8
0
 10
-4.71066
 20
84.3956
 11
-4.87108
 21
84.0547
  0
LINE
  8
0
 10
-4.87108
 20
84.0547
 11
-5.07294
 21
83.7366
  0
LINE
  8
0
 10
-5.07294
 20
83.7366
 11
-5.31308
 21
83.4464
  0
LINE
  8
0
 10
-5.31308
 20
83.4464
 11
-5.58772
 21
83.1884
  0
LINE
  8
0
 10
-5.58772
 20
83.1884
 11
-5.89252
 21
82.967
  0
LINE
  8
0
 10
-5.89252
 20
82.967
 11
-6.22266
 21
82.7855
  0
LINE
  8
0
 10
-6.22266
 20
82.7855
 11
-6.57294
 21
82.6468
  0
LINE
  8
0
 10
-6.57294
 20
82.6468
 11
-6.93785
 21
82.5531
  0
LINE
  8
0
 10
-6.93785
 20
82.5531
 11
-7.31161
 21
82.5059
  0
LINE
  8
0
 10
-7.31161
 20
82.5059
 11
-7.68837
 21
82.5059
  0
LINE
  8
0
 10
-52.6884
 20
82.5059
 11
-53.0621
 21
82.5531
  0
LINE
  8
0
 10
-53.0621
 20
82.5531
 11
-53.427
 21
82.6468
  0
LINE
  8
0
 10
-53.427
 20
82.6468
 11
-53.7773
 21
82.7855
  0
LINE
  8
0
 10
-53.7773
 20
82.7855
 11
-54.1075
 21
82.967
  0
LINE
  8
0
 10
-54.1075
 20
82.967
 11
-54.4123
 21
83.1884
  0
LINE
  8
0
 10
-54.4123
 20
83.1884
 11
-54.6869
 21
83.4464
  0
LINE
  8
0
 10
-54.6869
 20
83.4464
 11
-54.927
 21
83.7366
  0
LINE
  8
0
 10
-54.927
 20
83.7366
 11
-55.1289
 21
84.0547
  0
LINE
  8
0
 10
-55.1289
 20
84.0547
 11
-55.2893
 21
84.3956
  0
LINE
  8
0
 10
-55.2893
 20
84.3956
 11
-55.4057
 21
84.7539
  0
LINE
  8
0
 10
-55.4057
 20
84.7539
 11
-55.4763
 21
85.124
  0
LINE
  8
0
 10
-55.4763
 20
85.124
 11
-55.5
 21
85.5
  0
LINE
  8
0
 10
-55.5
 20
85.5
 11
-55.4763
 21
85.876
  0
LINE
  8
0
 10
-55.4763
 20
85.876
 11
-55.4057
 21
86.2461
  0
LINE
  8
0
 10
-55.4057
 20
86.2461
 11
-55.2893
 21
86.6044
  0
LINE
  8
0
 10
-55.2893
 20
86.6044
 11
-55.1289
 21
86.9453
  0
LINE
  8
0
 10
-55.1289
 20
86.9453
 11
-54.927
 21
87.2634
  0
LINE
  8
0
 10
-54.927
 20
87.2634
 11
-54.6869
 21
87.5536
  0
LINE
  8
0
 10
-54.6869
 20
87.5536
 11
-54.4123
 21
87.8115
  0
LINE
  8
0
 10
-54.4123
 20
87.8115
 11
-54.1075
 21
88.033
  0
LINE
  8
0
 10
-54.1075
 20
88.033
 11
-53.7773
 21
88.2145
  0
LINE
  8
0
 10
-53.7773
 20
88.2145
 11
-53.427
 21
88.3532
  0
LINE
  8
0
 10
-53.427
 20
88.3532
 11
-53.0621
 21
88.4469
  0
LINE
  8
0
 10
-53.0621
 20
88.4469
 11
-52.6884
 21
88.4941
  0
LINE
  8
0
 10
-52.6884
 20
88.4941
 11
-52.3116
 21
88.4941
  0
LINE
  8
0
 10
-52.3116
 20
88.4941
 11
-51.9379
 21
88.4469
  0
LINE
  8
0
 10
-51.9379
 20
88.4469
 11
-51.5729
 21
88.3532
  0
LINE
  8
0
 10
-51.5729
 20
88.3532
 11
-51.2227
 21
88.2145
  0
LINE
  8
0
 10
-51.2227
 20
88.2145
 11
-50.8925
 21
88.033
  0
LINE
  8
0
 10
-50.8925
 20
88.033
 11
-50.5877
 21
87.8115
  0
LINE
  8
0
 10
-50.5877
 20
87.8115
 11
-50.3131
 21
87.5536
  0
LINE
  8
0
 10
-50.3131
 20
87.5536
 11
-50.0729
 21
87.2634
  0
LINE
  8
0
 10
-50.0729
 20
87.2634
 11
-49.8711
 21
86.9453
  0
LINE
  8
0
 10
-49.8711
 20
86.9453
 11
-49.7107
 21
86.6044
  0
LINE
  8
0
 10
-49.7107
 20
86.6044
 11
-49.5942
 21
86.2461
  0
LINE
  8
0
 10
-49.5942
 20
86.2461
 11
-49.5237
 21
85.876
  0
LINE
  8
0
 10
-49.5237
 20
85.876
 11
-49.5
 21
85.5
  0
LINE
  8
0
 10
-49.5
 20
85.5
 11
-49.5237
 21
85.124
  0
LINE
  8
0
 10
-49.5237
 20
85.124
 11
-49.5942
 21
84.7539
  0
LINE
  8
0
 10
-49.5942
 20
84.7539
 11
-49.7107
 21
84.3956
  0
LINE
  8
0
 10
-49.7107
 20
84.3956
 11
-49.8711
 21
84.0547
  0
LINE
  8
0
 10
-49.8711
 20
84.0547
 11
-50.0729
 21
83.7366
  0
LINE
  8
0
 10
-50.0729
 20
83.7366
 11
-50.3131
 21
83.4464
  0
LINE
  8
0
 10
-50.3131
 20
83.4464
 11
-50.5877
 21
83.1884
  0
LINE
  8
0
 10
-50.5877
 20
83.1884
 11
-50.8925
 21
82.967
  0
LINE
  8
0
 10
-50.8925
 20
82.967
 11
-51.2227
 21
82.7855
  0
LINE
  8
0
 10
-51.2227
 20
82.7855
 11
-51.5729
 21
82.6468
  0
LINE
  8
0
 10
-51.5729
 20
82.6468
 11
-51.9379
 21
82.5531
  0
LINE
  8
0
 10
-51.9379
 20
82.5531
 11
-52.3116
 21
82.5059
  0
LINE
  8
0
 10
-52.3116
 20
82.5059
 11
-52.6884
 21
82.5059
  0
LINE
  8
0
 10
-22.6884
 20
82.5059
 11
-23.0621
 21
82.5531
  0
LINE
  8
0
 10
-23.0621
 20
82.5531
 11
-23.427
 21
82.6468
  0
LINE
  8
0
 10
-23.427
 20
82.6468
 11
-23.7773
 21
82.7855
  0
LINE
  8
0
 10
-23.7773
 20
82.7855
 11
-24.1075
 21
82.967
  0
LINE
  8
0
 10
-24.1075
 20
82.967
 11
-24.4123
 21
83.1884
  0
LINE
  8
0
 10
-24.4123
 20
83.1884
 11
-24.6869
 21
83.4464
  0
LINE
  8
0
 10
-24.6869
 20
83.4464
 11
-24.927
 21
83.7366
  0
LINE
  8
0
 10
-24.927
 20
83.7366
 11
-25.1289
 21
84.0547
  0
LINE
  8
0
 10
-25.1289
 20
84.0547
 11
-25.2893
 21
84.3956
  0
LINE
  8
0
 10
-25.2893
 20
84.3956
 11
-25.4057
 21
84.7539
  0
LINE
  8
0
 10
-25.4057
 20
84.7539
 11
-25.4763
 21
85.124
  0
LINE
  8
0
 10
-25.4763
 20
85.124
 11
-25.5
 21
85.5
  0
LINE
  8
0
 10
-25.5
 20
85.5
 11
-25.4763
 21
85.876
  0
LINE
  8
0
 10
-25.4763
 20
85.876
 11
-25.4057
 21
86.2461
  0
LINE
  8
0
 10
-25.4057
 20
86.2461
 11
-25.2893
 21
86.6044
  0
LINE
  8
0
 10
-25.2893
 20
86.6044
 11
-25.1289
 21
86.9453
  0
LINE
  8
0
 10
-25.1289
 20
86.9453
 11
-24.927
 21
87.2634
  0
LINE
  8
0
 10
-24.927
 20
87.2634
 11
-24.6869
 21
87.5536
  0
LINE
  8
0
 10
-24.6869
 20
87.5536
 11
-24.4123
 21
87.8115
  0
LINE
  8
0
 10
-24.4123
 20
87.8115
 11
-24.1075
 21
88.033
  0
LINE
  8
0
 10
-24.1075
 20
88.033
 11
-23.7773
 21
88.2145
  0
LINE
  8
0
 10
-23.7773
 20
88.2145
 11
-23.427
 21
88.3532
  0
LINE
  8
0
 10
-23.427
 20
88.3532
 11
-23.0621
 21
88.4469
  0
LINE
  8
0
 10
-23.0621
 20
88.4469
 11
-22.6884
 21
88.4941
  0
LINE
  8
0
 10
-22.6884
 20
88.4941
 11
-22.3116
 21
88.4941
  0
LINE
  8
0
 10
-22.3116
 20
88.4941
 11
-21.9379
 21
88.4469
  0
LINE
  8
0
 10
-21.9379
 20
88.4469
 11
-21.5729
 21
88.3532
  0
LINE
  8
0
 10
-21.5729
 20
88.3532
 11
-21.2227
 21
88.2145
  0
LINE
  8
0
 10
-21.2227
 20
88.2145
 11
-20.8925
 21
88.033
  0
LINE
  8
0
 10
-20.8925
 20
88.033
 11
-20.5877
 21
87.8115
  0
LINE
  8
0
 10
-20.5877
 20
87.8115
 11
-20.3131
 21
87.5536
  0
LINE
  8
0
 10
-20.3131
 20
87.5536
 11
-20.0729
 21
87.2634
  0
LINE
  8
0
 10
-20.0729
 20
87.2634
 11
-19.8711
 21
86.9453
  0
LINE
  8
0
 10
-19.8711
 20
86.9453
 11
-19.7107
 21
86.6044
  0
LINE
  8
0
 10
-19.7107
 20
86.6044
 11
-19.5942
 21
86.2461
  0
LINE
  8
0
 10
-19.5942
 20
86.2461
 11
-19.5237
 21
85.876
  0
LINE
  8
0
 10
-19.5237
 20
85.876
 11
-19.5
 21
85.5
  0
LINE
  8
0
 10
-19.5
 20
85.5
 11
-19.5237
 21
85.124
  0
LINE
  8
0
 10
-19.5237
 20
85.124
 11
-19.5942
 21
84.7539
  0
LINE
  8
0
 10
-19.5942
 20
84.7539
 11
-19.7107
 21
84.3956
  0
LINE
  8
0
 10
-19.7107
 20
84.3956
 11
-19.8711
 21
84.0547
  0
LINE
  8
0
 10
-19.8711
 20
84.0547
 11
-20.0729
 21
83.7366
  0
LINE
  8
0
 10
-20.0729
 20
83.7366
 11
-20.3131
 21
83.4464
  0
LINE
  8
0
 10
-20.3131
 20
83.4464
 11
-20.5877
 21
83.1884
  0
LINE
  8
0
 10
-20.5877
 20
83.1884
 11
-20.8925
 21
82.967
  0
LINE
  8
0
 10
-20.8925
 20
82.967
 11
-21.2227
 21
82.7855
  0
LINE
  8
0
 10
-21.2227
 20
82.7855
 11
-21.5729
 21
82.6468
  0
LINE
  8
0
 10
-21.5729
 20
82.6468
 11
-21.9379
 21
82.5531
  0
LINE
  8
0
 10
-21.9379
 20
82.5531
 11
-22.3116
 21
82.5059
  0
LINE
  8
0
 10
-22.3116
 20
82.5059
 11
-22.6884
 21
82.5059
  0
LINE
  8
0
 10
7.31161
 20
82.5059
 11
6.93785
 21
82.5531
  0
LINE
  8
0
 10
6.93785
 20
82.5531
 11
6.57294
 21
82.6468
  0
LINE
  8
0
 10
6.57294
 20
82.6468
 11
6.22266
 21
82.7855
  0
LINE
  8
0
 10
6.22266
 20
82.7855
 11
5.89252
 21
82.967
  0
LINE
  8
0
 10
5.89252
 20
82.967
 11
5.58772
 21
83.1884
  0
LINE
  8
0
 10
5.58772
 20
83.1884
 11
5.31308
 21
83.4464
  0
LINE
  8
0
 10
5.31308
 20
83.4464
 11
5.07294
 21
83.7366
  0
LINE
  8
0
 10
5.07294
 20
83.7366
 11
4.87108
 21
84.0547
  0
LINE
  8
0
 10
4.87108
 20
84.0547
 11
4.71066
 21
84.3956
  0
LINE
  8
0
 10
4.71066
 20
84.3956
 11
4.59424
 21
84.7539
  0
LINE
  8
0
 10
4.59424
 20
84.7539
 11
4.52365
 21
85.124
  0
LINE
  8
0
 10
4.52365
 20
85.124
 11
4.5
 21
85.5
  0
LINE
  8
0
 10
4.5
 20
85.5
 11
4.52365
 21
85.876
  0
LINE
  8
0
 10
4.52365
 20
85.876
 11
4.59424
 21
86.2461
  0
LINE
  8
0
 10
4.59424
 20
86.2461
 11
4.71066
 21
86.6044
  0
LINE
  8
0
 10
4.71066
 20
86.6044
 11
4.87108
 21
86.9453
  0
LINE
  8
0
 10
4.87108
 20
86.9453
 11
5.07294
 21
87.2634
  0
LINE
  8
0
 10
5.07294
 20
87.2634
 11
5.31308
 21
87.5536
  0
LINE
  8
0
 10
5.31308
 20
87.5536
 11
5.58772
 21
87.8115
  0
LINE
  8
0
 10
5.58772
 20
87.8115
 11
5.89252
 21
88.033
  0
LINE
  8
0
 10
5.89252
 20
88.033
 11
6.22266
 21
88.2145
  0
LINE
  8
0
 10
6.22266
 20
88.2145
 11
6.57294
 21
88.3532
  0
LINE
  8
0
 10
6.57294
 20
88.3532
 11
6.93785
 21
88.4469
  0
LINE
  8
0
 10
6.93785
 20
88.4469
 11
7.31161
 21
88.4941
  0
LINE
  8
0
 10
7.31161
 20
88.4941
 11
7.68837
 21
88.4941
  0
LINE
  8
0
 10
7.68837
 20
88.4941
 11
8.06213
 21
88.4469
  0
LINE
  8
0
 10
8.06213
 20
88.4469
 11
8.42705
 21
88.3532
  0
LINE
  8
0
 10
8.42705
 20
88.3532
 11
8.77733
 21
88.2145
  0
LINE
  8
0
 10
8.77733
 20
88.2145
 11
9.10747
 21
88.033
  0
LINE
  8
0
 10
9.10747
 20
88.033
 11
9.41226
 21
87.8115
  0
LINE
  8
0
 10
9.41226
 20
87.8115
 11
9.6869
 21
87.5536
  0
LINE
  8
0
 10
9.6869
 20
87.5536
 11
9.92705
 21
87.2634
  0
LINE
  8
0
 10
9.92705
 20
87.2634
 11
10.1289
 21
86.9453
  0
LINE
  8
0
 10
10.1289
 20
86.9453
 11
10.2893
 21
86.6044
  0
LINE
  8
0
 10
10.2893
 20
86.6044
 11
10.4057
 21
86.2461
  0
LINE
  8
0
 10
10.4057
 20
86.2461
 11
10.4763
 21
85.876
  0
LINE
  8
0
 10
10.4763
 20
85.876
 11
10.5
 21
85.5
  0
LINE
  8
0
 10
10.5
 20
85.5
 11
10.4763
 21
85.124
  0
LINE
  8
0
 10
10.4763
 20
85.124
 11
10.4057
 21
84.7539
  0
LINE
  8
0
 10
10.4057
 20
84.7539
 11
10.2893
 21
84.3956
  0
LINE
  8
0
 10
10.2893
 20
84.3956
 11
10.1289
 21
84.0547
  0
LINE
  8
0
 10
10.1289
 20
84.0547
 11
9.92705
 21
83.7366
  0
LINE
  8
0
 10
9.92705
 20
83.7366
 11
9.6869
 21
83.4464
  0
LINE
  8
0
 10
9.6869
 20
83.4464
 11
9.41226
 21
83.1884
  0
LINE
  8
0
 10
9.41226
 20
83.1884
 11
9.10747
 21
82.967
  0
LINE
  8
0
 10
9.10747
 20
82.967
 11
8.77733
 21
82.7855
  0
LINE
  8
0
 10
8.77733
 20
82.7855
 11
8.42705
 21
82.6468
  0
LINE
  8
0
 10
8.42705
 20
82.6468
 11
8.06213
 21
82.5531
  0
LINE
  8
0
 10
8.06213
 20
82.5531
 11
7.68837
 21
82.5059
  0
LINE
  8
0
 10
7.68837
 20
82.5059
 11
7.31161
 21
82.5059
  0
LINE
  8
0
 10
52.3116
 20
82.5059
 11
51.9379
 21
82.5531
  0
LINE
  8
0
 10
51.9379
 20
82.5531
 11
51.5729
 21
82.6468
  0
LINE
  8
0
 10
51.5729
 20
82.6468
 11
51.2227
 21
82.7855
  0
LINE
  8
0
 10
51.2227
 20
82.7855
 11
50.8925
 21
82.967
  0
LINE
  8
0
 10
50.8925
 20
82.967
 11
50.5877
 21
83.1884
  0
LINE
  8
0
 10
50.5877
 20
83.1884
 11
50.3131
 21
83.4464
  0
LINE
  8
0
 10
50.3131
 20
83.4464
 11
50.0729
 21
83.7366
  0
LINE
  8
0
 10
50.0729
 20
83.7366
 11
49.8711
 21
84.0547
  0
LINE
  8
0
 10
49.8711
 20
84.0547
 11
49.7107
 21
84.3956
  0
LINE
  8
0
 10
49.7107
 20
84.3956
 11
49.5942
 21
84.7539
  0
LINE
  8
0
 10
49.5942
 20
84.7539
 11
49.5237
 21
85.124
  0
LINE
  8
0
 10
49.5237
 20
85.124
 11
49.5
 21
85.5
  0
LINE
  8
0
 10
49.5
 20
85.5
 11
49.5237
 21
85.876
  0
LINE
  8
0
 10
49.5237
 20
85.876
 11
49.5942
 21
86.2461
  0
LINE
  8
0
 10
49.5942
 20
86.2461
 11
49.7107
 21
86.6044
  0
LINE
  8
0
 10
49.7107
 20
86.6044
 11
49.8711
 21
86.9453
  0
LINE
  8
0
 10
49.8711
 20
86.9453
 11
50.0729
 21
87.2634
  0
LINE
  8
0
 10
50.0729
 20
87.2634
 11
50.3131
 21
87.5536
  0
LINE
  8
0
 10
50.3131
 20
87.5536
 11
50.5877
 21
87.8115
  0
LINE
  8
0
 10
50.5877
 20
87.8115
 11
50.8925
 21
88.033
  0
LINE
  8
0
 10
50.8925
 20
88.033
 11
51.2227
 21
88.2145
  0
LINE
  8
0
 10
51.2227
 20
88.2145
 11
51.5729
 21
88.3532
  0
LINE
  8
0
 10
51.5729
 20
88.3532
 11
51.9379
 21
88.4469
  0
LINE
  8
0
 10
51.9379
 20
88.4469
 11
52.3116
 21
88.4941
  0
LINE
  8
0
 10
52.3116
 20
88.4941
 11
52.6884
 21
88.4941
  0
LINE
  8
0
 10
52.6884
 20
88.4941
 11
53.0621
 21
88.4469
  0
LINE
  8
0
 10
53.0621
 20
88.4469
 11
53.427
 21
88.3532
  0
LINE
  8
0
 10
53.427
 20
88.3532
 11
53.7773
 21
88.2145
  0
LINE
  8
0
 10
53.7773
 20
88.2145
 11
54.1075
 21
88.033
  0
LINE
  8
0
 10
54.1075
 20
88.033
 11
54.4123
 21
87.8115
  0
LINE
  8
0
 10
54.4123
 20
87.8115
 11
54.6869
 21
87.5536
  0
LINE
  8
0
 10
54.6869
 20
87.5536
 11
54.927
 21
87.2634
  0
LINE
  8
0
 10
54.927
 20
87.2634
 11
55.1289
 21
86.9453
  0
LINE
  8
0
 10
55.1289
 20
86.9453
 11
55.2893
 21
86.6044
  0
LINE
  8
0
 10
55.2893
 20
86.6044
 11
55.4057
 21
86.2461
  0
LINE
  8
0
 10
55.4057
 20
86.2461
 11
55.4763
 21
85.876
  0
LINE
  8
0
 10
55.4763
 20
85.876
 11
55.5
 21
85.5
  0
LINE
  8
0
 10
55.5
 20
85.5
 11
55.4763
 21
85.124
  0
LINE
  8
0
 10
55.4763
 20
85.124
 11
55.4057
 21
84.7539
  0
LINE
  8
0
 10
55.4057
 20
84.7539
 11
55.2893
 21
84.3956
  0
LINE
  8
0
 10
55.2893
 20
84.3956
 11
55.1289
 21
84.0547
  0
LINE
  8
0
 10
55.1289
 20
84.0547
 11
54.927
 21
83.7366
  0
LINE
  8
0
 10
54.927
 20
83.7366
 11
54.6869
 21
83.4464
  0
LINE
  8
0
 10
54.6869
 20
83.4464
 11
54.4123
 21
83.1884
  0
LINE
  8
0
 10
54.4123
 20
83.1884
 11
54.1075
 21
82.967
  0
LINE
  8
0
 10
54.1075
 20
82.967
 11
53.7773
 21
82.7855
  0
LINE
  8
0
 10
53.7773
 20
82.7855
 11
53.427
 21
82.6468
  0
LINE
  8
0
 10
53.427
 20
82.6468
 11
53.0621
 21
82.5531
  0
LINE
  8
0
 10
53.0621
 20
82.5531
 11
52.6884
 21
82.5059
  0
LINE
  8
0
 10
52.6884
 20
82.5059
 11
52.3116
 21
82.5059
  0
LINE
  8
0
 10
-15.1045
 20
83.8386
 11
-15.3119
 21
83.8648
  0
LINE
  8
0
 10
-15.3119
 20
83.8648
 11
-15.5144
 21
83.9168
  0
LINE
  8
0
 10
-15.5144
 20
83.9168
 11
-15.7088
 21
83.9937
  0
LINE
  8
0
 10
-15.7088
 20
83.9937
 11
-15.892
 21
84.0944
  0
LINE
  8
0
 10
-15.892
 20
84.0944
 11
-16.0611
 21
84.2173
  0
LINE
  8
0
 10
-16.0611
 20
84.2173
 11
-16.2135
 21
84.3604
  0
LINE
  8
0
 10
-16.2135
 20
84.3604
 11
-16.3468
 21
84.5215
  0
LINE
  8
0
 10
-16.3468
 20
84.5215
 11
-16.4588
 21
84.698
  0
LINE
  8
0
 10
-16.4588
 20
84.698
 11
-16.5478
 21
84.8872
  0
LINE
  8
0
 10
-16.5478
 20
84.8872
 11
-16.6124
 21
85.086
  0
LINE
  8
0
 10
-16.6124
 20
85.086
 11
-16.6516
 21
85.2914
  0
LINE
  8
0
 10
-16.6516
 20
85.2914
 11
-16.6647
 21
85.5
  0
LINE
  8
0
 10
-16.6647
 20
85.5
 11
-16.6516
 21
85.7086
  0
LINE
  8
0
 10
-16.6516
 20
85.7086
 11
-16.6124
 21
85.914
  0
LINE
  8
0
 10
-16.6124
 20
85.914
 11
-16.5478
 21
86.1128
  0
LINE
  8
0
 10
-16.5478
 20
86.1128
 11
-16.4588
 21
86.302
  0
LINE
  8
0
 10
-16.4588
 20
86.302
 11
-16.3468
 21
86.4785
  0
LINE
  8
0
 10
-16.3468
 20
86.4785
 11
-16.2135
 21
86.6396
  0
LINE
  8
0
 10
-16.2135
 20
86.6396
 11
-16.0611
 21
86.7827
  0
LINE
  8
0
 10
-16.0611
 20
86.7827
 11
-15.892
 21
86.9055
  0
LINE
  8
0
 10
-15.892
 20
86.9055
 11
-15.7088
 21
87.0063
  0
LINE
  8
0
 10
-15.7088
 20
87.0063
 11
-15.5144
 21
87.0832
  0
LINE
  8
0
 10
-15.5144
 20
87.0832
 11
-15.3119
 21
87.1352
  0
LINE
  8
0
 10
-15.3119
 20
87.1352
 11
-15.1045
 21
87.1614
  0
LINE
  8
0
 10
-15.1045
 20
87.1614
 11
-14.8955
 21
87.1614
  0
LINE
  8
0
 10
-14.8955
 20
87.1614
 11
-14.6881
 21
87.1352
  0
LINE
  8
0
 10
-14.6881
 20
87.1352
 11
-14.4856
 21
87.0832
  0
LINE
  8
0
 10
-14.4856
 20
87.0832
 11
-14.2912
 21
87.0063
  0
LINE
  8
0
 10
-14.2912
 20
87.0063
 11
-14.108
 21
86.9055
  0
LINE
  8
0
 10
-14.108
 20
86.9055
 11
-13.9389
 21
86.7827
  0
LINE
  8
0
 10
-13.9389
 20
86.7827
 11
-13.7865
 21
86.6396
  0
LINE
  8
0
 10
-13.7865
 20
86.6396
 11
-13.6532
 21
86.4785
  0
LINE
  8
0
 10
-13.6532
 20
86.4785
 11
-13.5412
 21
86.302
  0
LINE
  8
0
 10
-13.5412
 20
86.302
 11
-13.4522
 21
86.1128
  0
LINE
  8
0
 10
-13.4522
 20
86.1128
 11
-13.3876
 21
85.914
  0
LINE
  8
0
 10
-13.3876
 20
85.914
 11
-13.3484
 21
85.7086
  0
LINE
  8
0
 10
-13.3484
 20
85.7086
 11
-13.3353
 21
85.5
  0
LINE
  8
0
 10
-13.3353
 20
85.5
 11
-13.3484
 21
85.2914
  0
LINE
  8
0
 10
-13.3484
 20
85.2914
 11
-13.3876
 21
85.086
  0
LINE
  8
0
 10
-13.3876
 20
85.086
 11
-13.4522
 21
84.8872
  0
LINE
  8
0
 10
-13.4522
 20
84.8872
 11
-13.5412
 21
84.698
  0
LINE
  8
0
 10
-13.5412
 20
84.698
 11
-13.6532
 21
84.5215
  0
LINE
  8
0
 10
-13.6532
 20
84.5215
 11
-13.7865
 21
84.3604
  0
LINE
  8
0
 10
-13.7865
 20
84.3604
 11
-13.9389
 21
84.2173
  0
LINE
  8
0
 10
-13.9389
 20
84.2173
 11
-14.108
 21
84.0944
  0
LINE
  8
0
 10
-14.108
 20
84.0944
 11
-14.2912
 21
83.9937
  0
LINE
  8
0
 10
-14.2912
 20
83.9937
 11
-14.4856
 21
83.9168
  0
LINE
  8
0
 10
-14.4856
 20
83.9168
 11
-14.6881
 21
83.8648
  0
LINE
  8
0
 10
-14.6881
 20
83.8648
 11
-14.8955
 21
83.8386
  0
LINE
  8
0
 10
-14.8955
 20
83.8386
 11
-15.1045
 21
83.8386
  0
LINE
  8
0
 10
14.8955
 20
83.8386
 11
14.6881
 21
83.8648
  0
LINE
  8
0
 10
14.6881
 20
83.8648
 11
14.4856
 21
83.9168
  0
LINE
  8
0
 10
14.4856
 20
83.9168
 11
14.2912
 21
83.9937
  0
LINE
  8
0
 10
14.2912
 20
83.9937
 11
14.108
 21
84.0944
  0
LINE
  8
0
 10
14.108
 20
84.0944
 11
13.9389
 21
84.2173
  0
LINE
  8
0
 10
13.9389
 20
84.2173
 11
13.7865
 21
84.3604
  0
LINE
  8
0
 10
13.7865
 20
84.3604
 11
13.6532
 21
84.5215
  0
LINE
  8
0
 10
13.6532
 20
84.5215
 11
13.5412
 21
84.698
  0
LINE
  8
0
 10
13.5412
 20
84.698
 11
13.4522
 21
84.8872
  0
LINE
  8
0
 10
13.4522
 20
84.8872
 11
13.3876
 21
85.086
  0
LINE
  8
0
 10
13.3876
 20
85.086
 11
13.3484
 21
85.2914
  0
LINE
  8
0
 10
13.3484
 20
85.2914
 11
13.3353
 21
85.5
  0
LINE
  8
0
 10
13.3353
 20
85.5
 11
13.3484
 21
85.7086
  0
LINE
  8
0
 10
13.3484
 20
85.7086
 11
13.3876
 21
85.914
  0
LINE
  8
0
 10
13.3876
 20
85.914
 11
13.4522
 21
86.1128
  0
LINE
  8
0
 10
13.4522
 20
86.1128
 11
13.5412
 21
86.302
  0
LINE
  8
0
 10
13.5412
 20
86.302
 11
13.6532
 21
86.4785
  0
LINE
  8
0
 10
13.6532
 20
86.4785
 11
13.7865
 21
86.6396
  0
LINE
  8
0
 10
13.7865
 20
86.6396
 11
13.9389
 21
86.7827
  0
LINE
  8
0
 10
13.9389
 20
86.7827
 11
14.108
 21
86.9055
  0
LINE
  8
0
 10
14.108
 20
86.9055
 11
14.2912
 21
87.0063
  0
LINE
  8
0
 10
14.2912
 20
87.0063
 11
14.4856
 21
87.0832
  0
LINE
  8
0
 10
14.4856
 20
87.0832
 11
14.6881
 21
87.1352
  0
LINE
  8
0
 10
14.6881
 20
87.1352
 11
14.8955
 21
87.1614
  0
LINE
  8
0
 10
14.8955
 20
87.1614
 11
15.1045
 21
87.1614
  0
LINE
  8
0
 10
15.1045
 20
87.1614
 11
15.3119
 21
87.1352
  0
LINE
  8
0
 10
15.3119
 20
87.1352
 11
15.5144
 21
87.0832
  0
LINE
  8
0
 10
15.5144
 20
87.0832
 11
15.7088
 21
87.0063
  0
LINE
  8
0
 10
15.7088
 20
87.0063
 11
15.892
 21
86.9055
  0
LINE
  8
0
 10
15.892
 20
86.9055
 11
16.0611
 21
86.7827
  0
LINE
  8
0
 10
16.0611
 20
86.7827
 11
16.2135
 21
86.6396
  0
LINE
  8
0
 10
16.2135
 20
86.6396
 11
16.3468
 21
86.4785
  0
LINE
  8
0
 10
16.3468
 20
86.4785
 11
16.4588
 21
86.302
  0
LINE
  8
0
 10
16.4588
 20
86.302
 11
16.5478
 21
86.1128
  0
LINE
  8
0
 10
16.5478
 20
86.1128
 11
16.6124
 21
85.914
  0
LINE
  8
0
 10
16.6124
 20
85.914
 11
16.6516
 21
85.7086
  0
LINE
  8
0
 10
16.6516
 20
85.7086
 11
16.6647
 21
85.5
  0
LINE
  8
0
 10
16.6647
 20
85.5
 11
16.6516
 21
85.2914
  0
LINE
  8
0
 10
16.6516
 20
85.2914
 11
16.6124
 21
85.086
  0
LINE
  8
0
 10
16.6124
 20
85.086
 11
16.5478
 21
84.8872
  0
LINE
  8
0
 10
16.5478
 20
84.8872
 11
16.4588
 21
84.698
  0
LINE
  8
0
 10
16.4588
 20
84.698
 11
16.3468
 21
84.5215
  0
LINE
  8
0
 10
16.3468
 20
84.5215
 11
16.2135
 21
84.3604
  0
LINE
  8
0
 10
16.2135
 20
84.3604
 11
16.0611
 21
84.2173
  0
LINE
  8
0
 10
16.0611
 20
84.2173
 11
15.892
 21
84.0944
  0
LINE
  8
0
 10
15.892
 20
84.0944
 11
15.7088
 21
83.9937
  0
LINE
  8
0
 10
15.7088
 20
83.9937
 11
15.5144
 21
83.9168
  0
LINE
  8
0
 10
15.5144
 20
83.9168
 11
15.3119
 21
83.8648
  0
LINE
  8
0
 10
15.3119
 20
83.8648
 11
15.1045
 21
83.8386
  0
LINE
  8
0
 10
15.1045
 20
83.8386
 11
14.8955
 21
83.8386
  0
LINE
  8
0
 10
44.8955
 20
83.8386
 11
44.6881
 21
83.8648
  0
LINE
  8
0
 10
44.6881
 20
83.8648
 11
44.4856
 21
83.9168
  0
LINE
  8
0
 10
44.4856
 20
83.9168
 11
44.2912
 21
83.9937
  0
LINE
  8
0
 10
44.2912
 20
83.9937
 11
44.108
 21
84.0944
  0
LINE
  8
0
 10
44.108
 20
84.0944
 11
43.9389
 21
84.2173
  0
LINE
  8
0
 10
43.9389
 20
84.2173
 11
43.7865
 21
84.3604
  0
LINE
  8
0
 10
43.7865
 20
84.3604
 11
43.6532
 21
84.5215
  0
LINE
  8
0
 10
43.6532
 20
84.5215
 11
43.5412
 21
84.698
  0
LINE
  8
0
 10
43.5412
 20
84.698
 11
43.4522
 21
84.8872
  0
LINE
  8
0
 10
43.4522
 20
84.8872
 11
43.3876
 21
85.086
  0
LINE
  8
0
 10
43.3876
 20
85.086
 11
43.3484
 21
85.2914
  0
LINE
  8
0
 10
43.3484
 20
85.2914
 11
43.3353
 21
85.5
  0
LINE
  8
0
 10
43.3353
 20
85.5
 11
43.3484
 21
85.7086
  0
LINE
  8
0
 10
43.3484
 20
85.7086
 11
43.3876
 21
85.914
  0
LINE
  8
0
 10
43.3876
 20
85.914
 11
43.4522
 21
86.1128
  0
LINE
  8
0
 10
43.4522
 20
86.1128
 11
43.5412
 21
86.302
  0
LINE
  8
0
 10
43.5412
 20
86.302
 11
43.6532
 21
86.4785
  0
LINE
  8
0
 10
43.6532
 20
86.4785
 11
43.7865
 21
86.6396
  0
LINE
  8
0
 10
43.7865
 20
86.6396
 11
43.9389
 21
86.7827
  0
LINE
  8
0
 10
43.9389
 20
86.7827
 11
44.108
 21
86.9055
  0
LINE
  8
0
 10
44.108
 20
86.9055
 11
44.2912
 21
87.0063
  0
LINE
  8
0
 10
44.2912
 20
87.0063
 11
44.4856
 21
87.0832
  0
LINE
  8
0
 10
44.4856
 20
87.0832
 11
44.6881
 21
87.1352
  0
LINE
  8
0
 10
44.6881
 20
87.1352
 11
44.8955
 21
87.1614
  0
LINE
  8
0
 10
44.8955
 20
87.1614
 11
45.1045
 21
87.1614
  0
LINE
  8
0
 10
45.1045
 20
87.1614
 11
45.3119
 21
87.1352
  0
LINE
  8
0
 10
45.3119
 20
87.1352
 11
45.5144
 21
87.0832
  0
LINE
  8
0
 10
45.5144
 20
87.0832
 11
45.7088
 21
87.0063
  0
LINE
  8
0
 10
45.7088
 20
87.0063
 11
45.892
 21
86.9055
  0
LINE
  8
0
 10
45.892
 20
86.9055
 11
46.0611
 21
86.7827
  0
LINE
  8
0
 10
46.0611
 20
86.7827
 11
46.2135
 21
86.6396
  0
LINE
  8
0
 10
46.2135
 20
86.6396
 11
46.3468
 21
86.4785
  0
LINE
  8
0
 10
46.3468
 20
86.4785
 11
46.4588
 21
86.302
  0
LINE
  8
0
 10
46.4588
 20
86.302
 11
46.5478
 21
86.1128
  0
LINE
  8
0
 10
46.5478
 20
86.1128
 11
46.6124
 21
85.914
  0
LINE
  8
0
 10
46.6124
 20
85.914
 11
46.6516
 21
85.7086
  0
LINE
  8
0
 10
46.6516
 20
85.7086
 11
46.6647
 21
85.5
  0
LINE
  8
0
 10
46.6647
 20
85.5
 11
46.6516
 21
85.2914
  0
LINE
  8
0
 10
46.6516
 20
85.2914
 11
46.6124
 21
85.086
  0
LINE
  8
0
 10
46.6124
 20
85.086
 11
46.5478
 21
84.8872
  0
LINE
  8
0
 10
46.5478
 20
84.8872
 11
46.4588
 21
84.698
  0
LINE
  8
0
 10
46.4588
 20
84.698
 11
46.3468
 21
84.5215
  0
LINE
  8
0
 10
46.3468
 20
84.5215
 11
46.2135
 21
84.3604
  0
LINE
  8
0
 10
46.2135
 20
84.3604
 11
46.0611
 21
84.2173
  0
LINE
  8
0
 10
46.0611
 20
84.2173
 11
45.892
 21
84.0944
  0
LINE
  8
0
 10
45.892
 20
84.0944
 11
45.7088
 21
83.9937
  0
LINE
  8
0
 10
45.7088
 20
83.9937
 11
45.5144
 21
83.9168
  0
LINE
  8
0
 10
45.5144
 20
83.9168
 11
45.3119
 21
83.8648
  0
LINE
  8
0
 10
45.3119
 20
83.8648
 11
45.1045
 21
83.8386
  0
LINE
  8
0
 10
45.1045
 20
83.8386
 11
44.8955
 21
83.8386
  0
LINE
  8
0
 10
-45.1045
 20
83.8386
 11
-45.3119
 21
83.8648
  0
LINE
  8
0
 10
-45.3119
 20
83.8648
 11
-45.5144
 21
83.9168
  0
LINE
  8
0
 10
-45.5144
 20
83.9168
 11
-45.7088
 21
83.9937
  0
LINE
  8
0
 10
-45.7088
 20
83.9937
 11
-45.892
 21
84.0944
  0
LINE
  8
0
 10
-45.892
 20
84.0944
 11
-46.0611
 21
84.2173
  0
LINE
  8
0
 10
-46.0611
 20
84.2173
 11
-46.2135
 21
84.3604
  0
LINE
  8
0
 10
-46.2135
 20
84.3604
 11
-46.3468
 21
84.5215
  0
LINE
  8
0
 10
-46.3468
 20
84.5215
 11
-46.4588
 21
84.698
  0
LINE
  8
0
 10
-46.4588
 20
84.698
 11
-46.5478
 21
84.8872
  0
LINE
  8
0
 10
-46.5478
 20
84.8872
 11
-46.6124
 21
85.086
  0
LINE
  8
0
 10
-46.6124
 20
85.086
 11
-46.6516
 21
85.2914
  0
LINE
  8
0
 10
-46.6516
 20
85.2914
 11
-46.6647
 21
85.5
  0
LINE
  8
0
 10
-46.6647
 20
85.5
 11
-46.6516
 21
85.7086
  0
LINE
  8
0
 10
-46.6516
 20
85.7086
 11
-46.6124
 21
85.914
  0
LINE
  8
0
 10
-46.6124
 20
85.914
 11
-46.5478
 21
86.1128
  0
LINE
  8
0
 10
-46.5478
 20
86.1128
 11
-46.4588
 21
86.302
  0
LINE
  8
0
 10
-46.4588
 20
86.302
 11
-46.3468
 21
86.4785
  0
LINE
  8
0
 10
-46.3468
 20
86.4785
 11
-46.2135
 21
86.6396
  0
LINE
  8
0
 10
-46.2135
 20
86.6396
 11
-46.0611
 21
86.7827
  0
LINE
  8
0
 10
-46.0611
 20
86.7827
 11
-45.892
 21
86.9055
  0
LINE
  8
0
 10
-45.892
 20
86.9055
 11
-45.7088
 21
87.0063
  0
LINE
  8
0
 10
-45.7088
 20
87.0063
 11
-45.5144
 21
87.0832
  0
LINE
  8
0
 10
-45.5144
 20
87.0832
 11
-45.3119
 21
87.1352
  0
LINE
  8
0
 10
-45.3119
 20
87.1352
 11
-45.1045
 21
87.1614
  0
LINE
  8
0
 10
-45.1045
 20
87.1614
 11
-44.8955
 21
87.1614
  0
LINE
  8
0
 10
-44.8955
 20
87.1614
 11
-44.6881
 21
87.1352
  0
LINE
  8
0
 10
-44.6881
 20
87.1352
 11
-44.4856
 21
87.0832
  0
LINE
  8
0
 10
-44.4856
 20
87.0832
 11
-44.2912
 21
87.0063
  0
LINE
  8
0
 10
-44.2912
 20
87.0063
 11
-44.108
 21
86.9055
  0
LINE
  8
0
 10
-44.108
 20
86.9055
 11
-43.9389
 21
86.7827
  0
LINE
  8
0
 10
-43.9389
 20
86.7827
 11
-43.7865
 21
86.6396
  0
LINE
  8
0
 10
-43.7865
 20
86.6396
 11
-43.6532
 21
86.4785
  0
LINE
  8
0
 10
-43.6532
 20
86.4785
 11
-43.5412
 21
86.302
  0
LINE
  8
0
 10
-43.5412
 20
86.302
 11
-43.4522
 21
86.1128
  0
LINE
  8
0
 10
-43.4522
 20
86.1128
 11
-43.3876
 21
85.914
  0
LINE
  8
0
 10
-43.3876
 20
85.914
 11
-43.3484
 21
85.7086
  0
LINE
  8
0
 10
-43.3484
 20
85.7086
 11
-43.3353
 21
85.5
  0
LINE
  8
0
 10
-43.3353
 20
85.5
 11
-43.3484
 21
85.2914
  0
LINE
  8
0
 10
-43.3484
 20
85.2914
 11
-43.3876
 21
85.086
  0
LINE
  8
0
 10
-43.3876
 20
85.086
 11
-43.4522
 21
84.8872
  0
LINE
  8
0
 10
-43.4522
 20
84.8872
 11
-43.5412
 21
84.698
  0
LINE
  8
0
 10
-43.5412
 20
84.698
 11
-43.6532
 21
84.5215
  0
LINE
  8
0
 10
-43.6532
 20
84.5215
 11
-43.7865
 21
84.3604
  0
LINE
  8
0
 10
-43.7865
 20
84.3604
 11
-43.9389
 21
84.2173
  0
LINE
  8
0
 10
-43.9389
 20
84.2173
 11
-44.108
 21
84.0944
  0
LINE
  8
0
 10
-44.108
 20
84.0944
 11
-44.2912
 21
83.9937
  0
LINE
  8
0
 10
-44.2912
 20
83.9937
 11
-44.4856
 21
83.9168
  0
LINE
  8
0
 10
-44.4856
 20
83.9168
 11
-44.6881
 21
83.8648
  0
LINE
  8
0
 10
-44.6881
 20
83.8648
 11
-44.8955
 21
83.8386
  0
LINE
  8
0
 10
-44.8955
 20
83.8386
 11
-45.1045
 21
83.8386
  0
LINE
  8
0
 10
-41.0142
 20
75.6
 11
-41.0142
 21
81
  0
LINE
  8
0
 10
-41.0142
 20
81
 11
-33.9858
 21
81
  0
LINE
  8
0
 10
-33.9858
 20
81
 11
-33.9858
 21
75.6
  0
LINE
  8
0
 10
-33.9858
 20
75.6
 11
-41.0142
 21
75.6
  0
LINE
  8
0
 10
-56.0142
 20
75.6
 11
-56.0142
 21
81
  0
LINE
  8
0
 10
-56.0142
 20
81
 11
-48.9858
 21
81
  0
LINE
  8
0
 10
-48.9858
 20
81
 11
-48.9858
 21
75.6
  0
LINE
  8
0
 10
-48.9858
 20
75.6
 11
-56.0142
 21
75.6
  0
LINE
  8
0
 10
-26.0142
 20
75.6
 11
-26.0142
 21
81
  0
LINE
  8
0
 10
-26.0142
 20
81
 11
-18.9858
 21
81
  0
LINE
  8
0
 10
-18.9858
 20
81
 11
-18.9858
 21
75.6
  0
LINE
  8
0
 10
-18.9858
 20
75.6
 11
-26.0142
 21
75.6
  0
LINE
  8
0
 10
33.9858
 20
75.6
 11
33.9858
 21
81
  0
LINE
  8
0
 10
33.9858
 20
81
 11
41.0142
 21
81
  0
LINE
  8
0
 10
41.0142
 20
81
 11
41.0142
 21
75.6
  0
LINE
  8
0
 10
41.0142
 20
75.6
 11
33.9858
 21
75.6
  0
LINE
  8
0
 10
18.9858
 20
75.6
 11
18.9858
 21
81
  0
LINE
  8
0
 10
18.9858
 20
81
 11
26.0142
 21
81
  0
LINE
  8
0
 10
26.0142
 20
81
 11
26.0142
 21
75.6
  0
LINE
  8
0
 10
26.0142
 20
75.6
 11
18.9858
 21
75.6
  0
LINE
  8
0
 10
3.98581
 20
75.6
 11
3.98581
 21
81
  0
LINE
  8
0
 10
3.98581
 20
81
 11
11.0142
 21
81
  0
LINE
  8
0
 10
11.0142
 20
81
 11
11.0142
 21
75.6
  0
LINE
  8
0
 10
11.0142
 20
75.6
 11
3.98581
 21
75.6
  0
LINE
  8
0
 10
-11.0142
 20
75.6
 11
-11.0142
 21
81
  0
LINE
  8
0
 10
-11.0142
 20
81
 11
-3.98581
 21
81
  0
LINE
  8
0
 10
-3.98581
 20
81
 11
-3.98581
 21
75.6
  0
LINE
  8
0
 10
-3.98581
 20
75.6
 11
-11.0142
 21
75.6
  0
LINE
  8
0
 10
48.9858
 20
75.6
 11
48.9858
 21
81
  0
LINE
  8
0
 10
48.9858
 20
81
 11
56.0142
 21
81
  0
LINE
  8
0
 10
56.0142
 20
81
 11
56.0142
 21
75.6
  0
LINE
  8
0
 10
56.0142
 20
75.6
 11
48.9858
 21
75.6
  0
LINE
  8
0
 10
-55.0307
 20
51.6
 11
-57.7462
 21
51.6
  0
LINE
  8
0
 10
-57.7462
 20
51.6
 11
-57.7462
 21
57
  0
LINE
  8
0
 10
-57.7462
 20
57
 11
-55.0307
 21
57
  0
LINE
  8
0
 10
-55.0307
 20
57
 11
-55.0307
 21
59.9
  0
LINE
  8
0
 10
-55.0307
 20
59.9
 11
-55.1289
 21
60.0547
  0
LINE
  8
0
 10
-55.1289
 20
60.0547
 11
-55.2893
 21
60.3956
  0
LINE
  8
0
 10
-55.2893
 20
60.3956
 11
-55.4057
 21
60.7539
  0
LINE
  8
0
 10
-55.4057
 20
60.7539
 11
-55.4763
 21
61.124
  0
LINE
  8
0
 10
-55.4763
 20
61.124
 11
-55.5
 21
61.5
  0
LINE
  8
0
 10
-55.5
 20
61.5
 11
-55.4763
 21
61.876
  0
LINE
  8
0
 10
-55.4763
 20
61.876
 11
-55.4057
 21
62.2461
  0
LINE
  8
0
 10
-55.4057
 20
62.2461
 11
-55.2893
 21
62.6044
  0
LINE
  8
0
 10
-55.2893
 20
62.6044
 11
-55.1289
 21
62.9453
  0
LINE
  8
0
 10
-55.1289
 20
62.9453
 11
-54.927
 21
63.2634
  0
LINE
  8
0
 10
-54.927
 20
63.2634
 11
-54.6869
 21
63.5536
  0
LINE
  8
0
 10
-54.6869
 20
63.5536
 11
-54.4123
 21
63.8115
  0
LINE
  8
0
 10
-54.4123
 20
63.8115
 11
-54.1075
 21
64.033
  0
LINE
  8
0
 10
-54.1075
 20
64.033
 11
-53.7773
 21
64.2145
  0
LINE
  8
0
 10
-53.7773
 20
64.2145
 11
-53.427
 21
64.3532
  0
LINE
  8
0
 10
-53.427
 20
64.3532
 11
-53.0621
 21
64.4469
  0
LINE
  8
0
 10
-53.0621
 20
64.4469
 11
-52.6884
 21
64.4941
  0
LINE
  8
0
 10
-52.6884
 20
64.4941
 11
-52.3116
 21
64.4941
  0
LINE
  8
0
 10
-52.3116
 20
64.4941
 11
-51.9379
 21
64.4469
  0
LINE
  8
0
 10
-51.9379
 20
64.4469
 11
-51.5729
 21
64.3532
  0
LINE
  8
0
 10
-51.5729
 20
64.3532
 11
-51.2227
 21
64.2145
  0
LINE
  8
0
 10
-51.2227
 20
64.2145
 11
-50.8925
 21
64.033
  0
LINE
  8
0
 10
-50.8925
 20
64.033
 11
-50.5877
 21
63.8115
  0
LINE
  8
0
 10
-50.5877
 20
63.8115
 11
-50.3131
 21
63.5536
  0
LINE
  8
0
 10
-50.3131
 20
63.5536
 11
-50.0729
 21
63.2634
  0
LINE
  8
0
 10
-50.0729
 20
63.2634
 11
-49.8711
 21
62.9453
  0
LINE
  8
0
 10
-49.8711
 20
62.9453
 11
-49.7107
 21
62.6044
  0
LINE
  8
0
 10
-49.7107
 20
62.6044
 11
-49.5942
 21
62.2461
  0
LINE
  8
0
 10
-49.5942
 20
62.2461
 11
-49.5237
 21
61.876
  0
LINE
  8
0
 10
-49.5237
 20
61.876
 11
-49.5
 21
61.5
  0
LINE
  8
0
 10
-49.5
 20
61.5
 11
-49.5237
 21
61.124
  0
LINE
  8
0
 10
-49.5237
 20
61.124
 11
-49.5942
 21
60.7539
  0
LINE
  8
0
 10
-49.5942
 20
60.7539
 11
-49.7107
 21
60.3956
  0
LINE
  8
0
 10
-49.7107
 20
60.3956
 11
-49.8711
 21
60.0547
  0
LINE
  8
0
 10
-49.8711
 20
60.0547
 11
-49.9693
 21
59.9
  0
LINE
  8
0
 10
-49.9693
 20
59.9
 11
-49.9693
 21
57
  0
LINE
  8
0
 10
-49.9693
 20
57
 11
-47.2538
 21
57
  0
LINE
  8
0
 10
-47.2538
 20
57
 11
-47.2538
 21
51.6
  0
LINE
  8
0
 10
-47.2538
 20
51.6
 11
-49.9693
 21
51.6
  0
LINE
  8
0
 10
-49.9693
 20
51.6
 11
-49.9693
 21
48
  0
LINE
  8
0
 10
-49.9693
 20
48
 11
-40.0307
 21
48
  0
LINE
  8
0
 10
-40.0307
 20
48
 11
-40.0307
 21
51.6
  0
LINE
  8
0
 10
-40.0307
 20
51.6
 11
-42.7462
 21
51.6
  0
LINE
  8
0
 10
-42.7462
 20
51.6
 11
-42.7462
 21
57
  0
LINE
  8
0
 10
-42.7462
 20
57
 11
-40.0307
 21
57
  0
LINE
  8
0
 10
-40.0307
 20
57
 11
-40.0307
 21
59.9
  0
LINE
  8
0
 10
-40.0307
 20
59.9
 11
-40.1289
 21
60.0547
  0
LINE
  8
0
 10
-40.1289
 20
60.0547
 11
-40.2893
 21
60.3956
  0
LINE
  8
0
 10
-40.2893
 20
60.3956
 11
-40.4057
 21
60.7539
  0
LINE
  8
0
 10
-40.4057
 20
60.7539
 11
-40.4763
 21
61.124
  0
LINE
  8
0
 10
-40.4763
 20
61.124
 11
-40.5
 21
61.5
  0
LINE
  8
0
 10
-40.5
 20
61.5
 11
-40.4763
 21
61.876
  0
LINE
  8
0
 10
-40.4763
 20
61.876
 11
-40.4057
 21
62.2461
  0
LINE
  8
0
 10
-40.4057
 20
62.2461
 11
-40.2893
 21
62.6044
  0
LINE
  8
0
 10
-40.2893
 20
62.6044
 11
-40.1289
 21
62.9453
  0
LINE
  8
0
 10
-40.1289
 20
62.9453
 11
-39.927
 21
63.2634
  0
LINE
  8
0
 10
-39.927
 20
63.2634
 11
-39.6869
 21
63.5536
  0
LINE
  8
0
 10
-39.6869
 20
63.5536
 11
-39.4123
 21
63.8115
  0
LINE
  8
0
 10
-39.4123
 20
63.8115
 11
-39.1075
 21
64.033
  0
LINE
  8
0
 10
-39.1075
 20
64.033
 11
-38.7773
 21
64.2145
  0
LINE
  8
0
 10
-38.7773
 20
64.2145
 11
-38.427
 21
64.3532
  0
LINE
  8
0
 10
-38.427
 20
64.3532
 11
-38.0621
 21
64.4469
  0
LINE
  8
0
 10
-38.0621
 20
64.4469
 11
-37.6884
 21
64.4941
  0
LINE
  8
0
 10
-37.6884
 20
64.4941
 11
-37.3116
 21
64.4941
  0
LINE
  8
0
 10
-37.3116
 20
64.4941
 11
-36.9379
 21
64.4469
  0
LINE
  8
0
 10
-36.9379
 20
64.4469
 11
-36.5729
 21
64.3532
  0
LINE
  8
0
 10
-36.5729
 20
64.3532
 11
-36.2227
 21
64.2145
  0
LINE
  8
0
 10
-36.2227
 20
64.2145
 11
-35.8925
 21
64.033
  0
LINE
  8
0
 10
-35.8925
 20
64.033
 11
-35.5877
 21
63.8115
  0
LINE
  8
0
 10
-35.5877
 20
63.8115
 11
-35.3131
 21
63.5536
  0
LINE
  8
0
 10
-35.3131
 20
63.5536
 11
-35.0729
 21
63.2634
  0
LINE
  8
0
 10
-35.0729
 20
63.2634
 11
-34.8711
 21
62.9453
  0
LINE
  8
0
 10
-34.8711
 20
62.9453
 11
-34.7107
 21
62.6044
  0
LINE
  8
0
 10
-34.7107
 20
62.6044
 11
-34.5942
 21
62.2461
  0
LINE
  8
0
 10
-34.5942
 20
62.2461
 11
-34.5237
 21
61.876
  0
LINE
  8
0
 10
-34.5237
 20
61.876
 11
-34.5
 21
61.5
  0
LINE
  8
0
 10
-34.5
 20
61.5
 11
-34.5237
 21
61.124
  0
LINE
  8
0
 10
-34.5237
 20
61.124
 11
-34.5942
 21
60.7539
  0
LINE
  8
0
 10
-34.5942
 20
60.7539
 11
-34.7107
 21
60.3956
  0
LINE
  8
0
 10
-34.7107
 20
60.3956
 11
-34.8711
 21
60.0547
  0
LINE
  8
0
 10
-34.8711
 20
60.0547
 11
-34.9693
 21
59.9
  0
LINE
  8
0
 10
-34.9693
 20
59.9
 11
-34.9693
 21
57
  0
LINE
  8
0
 10
-34.9693
 20
57
 11
-32.2538
 21
57
  0
LINE
  8
0
 10
-32.2538
 20
57
 11
-32.2538
 21
51.6
  0
LINE
  8
0
 10
-32.2538
 20
51.6
 11
-34.9693
 21
51.6
  0
LINE
  8
0
 10
-34.9693
 20
51.6
 11
-34.9693
 21
48
  0
LINE
  8
0
 10
-34.9693
 20
48
 11
-25.0307
 21
48
  0
LINE
  8
0
 10
-25.0307
 20
48
 11
-25.0307
 21
51.6
  0
LINE
  8
0
 10
-25.0307
 20
51.6
 11
-27.7462
 21
51.6
  0
LINE
  8
0
 10
-27.7462
 20
51.6
 11
-27.7462
 21
57
  0
LINE
  8
0
 10
-27.7462
 20
57
 11
-25.0307
 21
57
  0
LINE
  8
0
 10
-25.0307
 20
57
 11
-25.0307
 21
59.9
  0
LINE
  8
0
 10
-25.0307
 20
59.9
 11
-25.1289
 21
60.0547
  0
LINE
  8
0
 10
-25.1289
 20
60.0547
 11
-25.2893
 21
60.3956
  0
LINE
  8
0
 10
-25.2893
 20
60.3956
 11
-25.4057
 21
60.7539
  0
LINE
  8
0
 10
-25.4057
 20
60.7539
 11
-25.4763
 21
61.124
  0
LINE
  8
0
 10
-25.4763
 20
61.124
 11
-25.5
 21
61.5
  0
LINE
  8
0
 10
-25.5
 20
61.5
 11
-25.4763
 21
61.876
  0
LINE
  8
0
 10
-25.4763
 20
61.876
 11
-25.4057
 21
62.2461
  0
LINE
  8
0
 10
-25.4057
 20
62.2461
 11
-25.2893
 21
62.6044
  0
LINE
  8
0
 10
-25.2893
 20
62.6044
 11
-25.1289
 21
62.9453
  0
LINE
  8
0
 10
-25.1289
 20
62.9453
 11
-24.927
 21
63.2634
  0
LINE
  8
0
 10
-24.927
 20
63.2634
 11
-24.6869
 21
63.5536
  0
LINE
  8
0
 10
-24.6869
 20
63.5536
 11
-24.4123
 21
63.8115
  0
LINE
  8
0
 10
-24.4123
 20
63.8115
 11
-24.1075
 21
64.033
  0
LINE
  8
0
 10
-24.1075
 20
64.033
 11
-23.7773
 21
64.2145
  0
LINE
  8
0
 10
-23.7773
 20
64.2145
 11
-23.427
 21
64.3532
  0
LINE
  8
0
 10
-23.427
 20
64.3532
 11
-23.0621
 21
64.4469
  0
LINE
  8
0
 10
-23.0621
 20
64.4469
 11
-22.6884
 21
64.4941
  0
LINE
  8
0
 10
-22.6884
 20
64.4941
 11
-22.3116
 21
64.4941
  0
LINE
  8
0
 10
-22.3116
 20
64.4941
 11
-21.9379
 21
64.4469
  0
LINE
  8
0
 10
-21.9379
 20
64.4469
 11
-21.5729
 21
64.3532
  0
LINE
  8
0
 10
-21.5729
 20
64.3532
 11
-21.2227
 21
64.2145
  0
LINE
  8
0
 10
-21.2227
 20
64.2145
 11
-20.8925
 21
64.033
  0
LINE
  8
0
 10
-20.8925
 20
64.033
 11
-20.5877
 21
63.8115
  0
LINE
  8
0
 10
-20.5877
 20
63.8115
 11
-20.3131
 21
63.5536
  0
LINE
  8
0
 10
-20.3131
 20
63.5536
 11
-20.0729
 21
63.2634
  0
LINE
  8
0
 10
-20.0729
 20
63.2634
 11
-19.8711
 21
62.9453
  0
LINE
  8
0
 10
-19.8711
 20
62.9453
 11
-19.7107
 21
62.6044
  0
LINE
  8
0
 10
-19.7107
 20
62.6044
 11
-19.5942
 21
62.2461
  0
LINE
  8
0
 10
-19.5942
 20
62.2461
 11
-19.5237
 21
61.876
  0
LINE
  8
0
 10
-19.5237
 20
61.876
 11
-19.5
 21
61.5
  0
LINE
  8
0
 10
-19.5
 20
61.5
 11
-19.5237
 21
61.124
  0
LINE
  8
0
 10
-19.5237
 20
61.124
 11
-19.5942
 21
60.7539
  0
LINE
  8
0
 10
-19.5942
 20
60.7539
 11
-19.7107
 21
60.3956
  0
LINE
  8
0
 10
-19.7107
 20
60.3956
 11
-19.8711
 21
60.0547
  0
LINE
  8
0
 10
-19.8711
 20
60.0547
 11
-19.9693
 21
59.9
  0
LINE
  8
0
 10
-19.9693
 20
59.9
 11
-19.9693
 21
57
  0
LINE
  8
0
 10
-19.9693
 20
57
 11
-17.2538
 21
57
  0
LINE
  8
0
 10
-17.2538
 20
57
 11
-17.2538
 21
51.6
  0
LINE
  8
0
 10
-17.2538
 20
51.6
 11
-19.9693
 21
51.6
  0
LINE
  8
0
 10
-19.9693
 20
51.6
 11
-19.9693
 21
48
  0
LINE
  8
0
 10
-19.9693
 20
48
 11
-10.0307
 21
48
  0
LINE
  8
0
 10
-10.0307
 20
48
 11
-10.0307
 21
51.6
  0
LINE
  8
0
 10
-10.0307
 20
51.6
 11
-12.7462
 21
51.6
  0
LINE
  8
0
 10
-12.7462
 20
51.6
 11
-12.7462
 21
57
  0
LINE
  8
0
 10
-12.7462
 20
57
 11
-10.0307
 21
57
  0
LINE
  8
0
 10
-10.0307
 20
57
 11
-10.0307
 21
59.9
  0
LINE
  8
0
 10
-10.0307
 20
59.9
 11
-10.1289
 21
60.0547
  0
LINE
  8
0
 10
-10.1289
 20
60.0547
 11
-10.2893
 21
60.3956
  0
LINE
  8
0
 10
-10.2893
 20
60.3956
 11
-10.4057
 21
60.7539
  0
LINE
  8
0
 10
-10.4057
 20
60.7539
 11
-10.4763
 21
61.124
  0
LINE
  8
0
 10
-10.4763
 20
61.124
 11
-10.5
 21
61.5
  0
LINE
  8
0
 10
-10.5
 20
61.5
 11
-10.4763
 21
61.876
  0
LINE
  8
0
 10
-10.4763
 20
61.876
 11
-10.4057
 21
62.2461
  0
LINE
  8
0
 10
-10.4057
 20
62.2461
 11
-10.2893
 21
62.6044
  0
LINE
  8
0
 10
-10.2893
 20
62.6044
 11
-10.1289
 21
62.9453
  0
LINE
  8
0
 10
-10.1289
 20
62.9453
 11
-9.92705
 21
63.2634
  0
LINE
  8
0
 10
-9.92705
 20
63.2634
 11
-9.6869
 21
63.5536
  0
LINE
  8
0
 10
-9.6869
 20
63.5536
 11
-9.41226
 21
63.8115
  0
LINE
  8
0
 10
-9.41226
 20
63.8115
 11
-9.10747
 21
64.033
  0
LINE
  8
0
 10
-9.10747
 20
64.033
 11
-8.77733
 21
64.2145
  0
LINE
  8
0
 10
-8.77733
 20
64.2145
 11
-8.42705
 21
64.3532
  0
LINE
  8
0
 10
-8.42705
 20
64.3532
 11
-8.06213
 21
64.4469
  0
LINE
  8
0
 10
-8.06213
 20
64.4469
 11
-7.68837
 21
64.4941
  0
LINE
  8
0
 10
-7.68837
 20
64.4941
 11
-7.31161
 21
64.4941
  0
LINE
  8
0
 10
-7.31161
 20
64.4941
 11
-6.93785
 21
64.4469
  0
LINE
  8
0
 10
-6.93785
 20
64.4469
 11
-6.57294
 21
64.3532
  0
LINE
  8
0
 10
-6.57294
 20
64.3532
 11
-6.22266
 21
64.2145
  0
LINE
  8
0
 10
-6.22266
 20
64.2145
 11
-5.89252
 21
64.033
  0
LINE
  8
0
 10
-5.89252
 20
64.033
 11
-5.58772
 21
63.8115
  0
LINE
  8
0
 10
-5.58772
 20
63.8115
 11
-5.31308
 21
63.5536
  0
LINE
  8
0
 10
-5.31308
 20
63.5536
 11
-5.07294
 21
63.2634
  0
LINE
  8
0
 10
-5.07294
 20
63.2634
 11
-4.87108
 21
62.9453
  0
LINE
  8
0
 10
-4.87108
 20
62.9453
 11
-4.71066
 21
62.6044
  0
LINE
  8
0
 10
-4.71066
 20
62.6044
 11
-4.59424
 21
62.2461
  0
LINE
  8
0
 10
-4.59424
 20
62.2461
 11
-4.52365
 21
61.876
  0
LINE
  8
0
 10
-4.52365
 20
61.876
 11
-4.5
 21
61.5
  0
LINE
  8
0
 10
-4.5
 20
61.5
 11
-4.52365
 21
61.124
  0
LINE
  8
0
 10
-4.52365
 20
61.124
 11
-4.59424
 21
60.7539
  0
LINE
  8
0
 10
-4.59424
 20
60.7539
 11
-4.71066
 21
60.3956
  0
LINE
  8
0
 10
-4.71066
 20
60.3956
 11
-4.87108
 21
60.0547
  0
LINE
  8
0
 10
-4.87108
 20
60.0547
 11
-4.96927
 21
59.9
  0
LINE
  8
0
 10
-4.96927
 20
59.9
 11
-4.96927
 21
57
  0
LINE
  8
0
 10
-4.96927
 20
57
 11
-2.25375
 21
57
  0
LINE
  8
0
 10
-2.25375
 20
57
 11
-2.25375
 21
51.6
  0
LINE
  8
0
 10
-2.25375
 20
51.6
 11
-4.96927
 21
51.6
  0
LINE
  8
0
 10
-4.96927
 20
51.6
 11
-4.96927
 21
48
  0
LINE
  8
0
 10
-4.96927
 20
48
 11
4.96927
 21
48
  0
LINE
  8
0
 10
4.96927
 20
48
 11
4.96927
 21
51.6
  0
LINE
  8
0
 10
4.96927
 20
51.6
 11
2.25375
 21
51.6
  0
LINE
  8
0
 10
2.25375
 20
51.6
 11
2.25375
 21
57
  0
LINE
  8
0
 10
2.25375
 20
57
 11
4.96927
 21
57
  0
LINE
  8
0
 10
4.96927
 20
57
 11
4.96927
 21
59.9
  0
LINE
  8
0
 10
4.96927
 20
59.9
 11
4.87108
 21
60.0547
  0
LINE
  8
0
 10
4.87108
 20
60.0547
 11
4.71066
 21
60.3956
  0
LINE
  8
0
 10
4.71066
 20
60.3956
 11
4.59424
 21
60.7539
  0
LINE
  8
0
 10
4.59424
 20
60.7539
 11
4.52365
 21
61.124
  0
LINE
  8
0
 10
4.52365
 20
61.124
 11
4.5
 21
61.5
  0
LINE
  8
0
 10
4.5
 20
61.5
 11
4.52365
 21
61.876
  0
LINE
  8
0
 10
4.52365
 20
61.876
 11
4.59424
 21
62.2461
  0
LINE
  8
0
 10
4.59424
 20
62.2461
 11
4.71066
 21
62.6044
  0
LINE
  8
0
 10
4.71066
 20
62.6044
 11
4.87108
 21
62.9453
  0
LINE
  8
0
 10
4.87108
 20
62.9453
 11
5.07294
 21
63.2634
  0
LINE
  8
0
 10
5.07294
 20
63.2634
 11
5.31308
 21
63.5536
  0
LINE
  8
0
 10
5.31308
 20
63.5536
 11
5.58772
 21
63.8115
  0
LINE
  8
0
 10
5.58772
 20
63.8115
 11
5.89252
 21
64.033
  0
LINE
  8
0
 10
5.89252
 20
64.033
 11
6.22266
 21
64.2145
  0
LINE
  8
0
 10
6.22266
 20
64.2145
 11
6.57294
 21
64.3532
  0
LINE
  8
0
 10
6.57294
 20
64.3532
 11
6.93785
 21
64.4469
  0
LINE
  8
0
 10
6.93785
 20
64.4469
 11
7.31161
 21
64.4941
  0
LINE
  8
0
 10
7.31161
 20
64.4941
 11
7.68837
 21
64.4941
  0
LINE
  8
0
 10
7.68837
 20
64.4941
 11
8.06213
 21
64.4469
  0
LINE
  8
0
 10
8.06213
 20
64.4469
 11
8.42705
 21
64.3532
  0
LINE
  8
0
 10
8.42705
 20
64.3532
 11
8.77733
 21
64.2145
  0
LINE
  8
0
 10
8.77733
 20
64.2145
 11
9.10747
 21
64.033
  0
LINE
  8
0
 10
9.10747
 20
64.033
 11
9.41226
 21
63.8115
  0
LINE
  8
0
 10
9.41226
 20
63.8115
 11
9.6869
 21
63.5536
  0
LINE
  8
0
 10
9.6869
 20
63.5536
 11
9.92705
 21
63.2634
  0
LINE
  8
0
 10
9.92705
 20
63.2634
 11
10.1289
 21
62.9453
  0
LINE
  8
0
 10
10.1289
 20
62.9453
 11
10.2893
 21
62.6044
  0
LINE
  8
0
 10
10.2893
 20
62.6044
 11
10.4057
 21
62.2461
  0
LINE
  8
0
 10
10.4057
 20
62.2461
 11
10.4763
 21
61.876
  0
LINE
  8
0
 10
10.4763
 20
61.876
 11
10.5
 21
61.5
  0
LINE
  8
0
 10
10.5
 20
61.5
 11
10.4763
 21
61.124
  0
LINE
  8
0
 10
10.4763
 20
61.124
 11
10.4057
 21
60.7539
  0
LINE
  8
0
 10
10.4057
 20
60.7539
 11
10.2893
 21
60.3956
  0
LINE
  8
0
 10
10.2893
 20
60.3956
 11
10.1289
 21
60.0547
  0
LINE
  8
0
 10
10.1289
 20
60.0547
 11
10.0307
 21
59.9
  0
LINE
  8
0
 10
10.0307
 20
59.9
 11
10.0307
 21
57
  0
LINE
  8
0
 10
10.0307
 20
57
 11
12.7462
 21
57
  0
LINE
  8
0
 10
12.7462
 20
57
 11
12.7462
 21
51.6
  0
LINE
  8
0
 10
12.7462
 20
51.6
 11
10.0307
 21
51.6
  0
LINE
  8
0
 10
10.0307
 20
51.6
 11
10.0307
 21
48
  0
LINE
  8
0
 10
10.0307
 20
48
 11
19.9693
 21
48
  0
LINE
  8
0
 10
19.9693
 20
48
 11
19.9693
 21
51.6
  0
LINE
  8
0
 10
19.9693
 20
51.6
 11
17.2538
 21
51.6
  0
LINE
  8
0
 10
17.2538
 20
51.6
 11
17.2538
 21
57
  0
LINE
  8
0
 10
17.2538
 20
57
 11
19.9693
 21
57
  0
LINE
  8
0
 10
19.9693
 20
57
 11
19.9693
 21
59.9
  0
LINE
  8
0
 10
19.9693
 20
59.9
 11
19.8711
 21
60.0547
  0
LINE
  8
0
 10
19.8711
 20
60.0547
 11
19.7107
 21
60.3956
  0
LINE
  8
0
 10
19.7107
 20
60.3956
 11
19.5942
 21
60.7539
  0
LINE
  8
0
 10
19.5942
 20
60.7539
 11
19.5237
 21
61.124
  0
LINE
  8
0
 10
19.5237
 20
61.124
 11
19.5
 21
61.5
  0
LINE
  8
0
 10
19.5
 20
61.5
 11
19.5237
 21
61.876
  0
LINE
  8
0
 10
19.5237
 20
61.876
 11
19.5942
 21
62.2461
  0
LINE
  8
0
 10
19.5942
 20
62.2461
 11
19.7107
 21
62.6044
  0
LINE
  8
0
 10
19.7107
 20
62.6044
 11
19.8711
 21
62.9453
  0
LINE
  8
0
 10
19.8711
 20
62.9453
 11
20.0729
 21
63.2634
  0
LINE
  8
0
 10
20.0729
 20
63.2634
 11
20.3131
 21
63.5536
  0
LINE
  8
0
 10
20.3131
 20
63.5536
 11
20.5877
 21
63.8115
  0
LINE
  8
0
 10
20.5877
 20
63.8115
 11
20.8925
 21
64.033
  0
LINE
  8
0
 10
20.8925
 20
64.033
 11
21.2227
 21
64.2145
  0
LINE
  8
0
 10
21.2227
 20
64.2145
 11
21.5729
 21
64.3532
  0
LINE
  8
0
 10
21.5729
 20
64.3532
 11
21.9379
 21
64.4469
  0
LINE
  8
0
 10
21.9379
 20
64.4469
 11
22.3116
 21
64.4941
  0
LINE
  8
0
 10
22.3116
 20
64.4941
 11
22.6884
 21
64.4941
  0
LINE
  8
0
 10
22.6884
 20
64.4941
 11
23.0621
 21
64.4469
  0
LINE
  8
0
 10
23.0621
 20
64.4469
 11
23.427
 21
64.3532
  0
LINE
  8
0
 10
23.427
 20
64.3532
 11
23.7773
 21
64.2145
  0
LINE
  8
0
 10
23.7773
 20
64.2145
 11
24.1075
 21
64.033
  0
LINE
  8
0
 10
24.1075
 20
64.033
 11
24.4123
 21
63.8115
  0
LINE
  8
0
 10
24.4123
 20
63.8115
 11
24.6869
 21
63.5536
  0
LINE
  8
0
 10
24.6869
 20
63.5536
 11
24.927
 21
63.2634
  0
LINE
  8
0
 10
24.927
 20
63.2634
 11
25.1289
 21
62.9453
  0
LINE
  8
0
 10
25.1289
 20
62.9453
 11
25.2893
 21
62.6044
  0
LINE
  8
0
 10
25.2893
 20
62.6044
 11
25.4057
 21
62.2461
  0
LINE
  8
0
 10
25.4057
 20
62.2461
 11
25.4763
 21
61.876
  0
LINE
  8
0
 10
25.4763
 20
61.876
 11
25.5
 21
61.5
  0
LINE
  8
0
 10
25.5
 20
61.5
 11
25.4763
 21
61.124
  0
LINE
  8
0
 10
25.4763
 20
61.124
 11
25.4057
 21
60.7539
  0
LINE
  8
0
 10
25.4057
 20
60.7539
 11
25.2893
 21
60.3956
  0
LINE
  8
0
 10
25.2893
 20
60.3956
 11
25.1289
 21
60.0547
  0
LINE
  8
0
 10
25.1289
 20
60.0547
 11
25.0307
 21
59.9
  0
LINE
  8
0
 10
25.0307
 20
59.9
 11
25.0307
 21
57
  0
LINE
  8
0
 10
25.0307
 20
57
 11
27.7462
 21
57
  0
LINE
  8
0
 10
27.7462
 20
57
 11
27.7462
 21
51.6
  0
LINE
  8
0
 10
27.7462
 20
51.6
 11
25.0307
 21
51.6
  0
LINE
  8
0
 10
25.0307
 20
51.6
 11
25.0307
 21
48
  0
LINE
  8
0
 10
25.0307
 20
48
 11
34.9693
 21
48
  0
LINE
  8
0
 10
34.9693
 20
48
 11
34.9693
 21
51.6
  0
LINE
  8
0
 10
34.9693
 20
51.6
 11
32.2538
 21
51.6
  0
LINE
  8
0
 10
32.2538
 20
51.6
 11
32.2538
 21
57
  0
LINE
  8
0
 10
32.2538
 20
57
 11
34.9693
 21
57
  0
LINE
  8
0
 10
34.9693
 20
57
 11
34.9693
 21
59.9
  0
LINE
  8
0
 10
34.9693
 20
59.9
 11
34.8711
 21
60.0547
  0
LINE
  8
0
 10
34.8711
 20
60.0547
 11
34.7107
 21
60.3956
  0
LINE
  8
0
 10
34.7107
 20
60.3956
 11
34.5942
 21
60.7539
  0
LINE
  8
0
 10
34.5942
 20
60.7539
 11
34.5237
 21
61.124
  0
LINE
  8
0
 10
34.5237
 20
61.124
 11
34.5
 21
61.5
  0
LINE
  8
0
 10
34.5
 20
61.5
 11
34.5237
 21
61.876
  0
LINE
  8
0
 10
34.5237
 20
61.876
 11
34.5942
 21
62.2461
  0
LINE
  8
0
 10
34.5942
 20
62.2461
 11
34.7107
 21
62.6044
  0
LINE
  8
0
 10
34.7107
 20
62.6044
 11
34.8711
 21
62.9453
  0
LINE
  8
0
 10
34.8711
 20
62.9453
 11
35.0729
 21
63.2634
  0
LINE
  8
0
 10
35.0729
 20
63.2634
 11
35.3131
 21
63.5536
  0
LINE
  8
0
 10
35.3131
 20
63.5536
 11
35.5877
 21
63.8115
  0
LINE
  8
0
 10
35.5877
 20
63.8115
 11
35.8925
 21
64.033
  0
LINE
  8
0
 10
35.8925
 20
64.033
 11
36.2227
 21
64.2145
  0
LINE
  8
0
 10
36.2227
 20
64.2145
 11
36.5729
 21
64.3532
  0
LINE
  8
0
 10
36.5729
 20
64.3532
 11
36.9379
 21
64.4469
  0
LINE
  8
0
 10
36.9379
 20
64.4469
 11
37.3116
 21
64.4941
  0
LINE
  8
0
 10
37.3116
 20
64.4941
 11
37.6884
 21
64.4941
  0
LINE
  8
0
 10
37.6884
 20
64.4941
 11
38.0621
 21
64.4469
  0
LINE
  8
0
 10
38.0621
 20
64.4469
 11
38.427
 21
64.3532
  0
LINE
  8
0
 10
38.427
 20
64.3532
 11
38.7773
 21
64.2145
  0
LINE
  8
0
 10
38.7773
 20
64.2145
 11
39.1075
 21
64.033
  0
LINE
  8
0
 10
39.1075
 20
64.033
 11
39.4123
 21
63.8115
  0
LINE
  8
0
 10
39.4123
 20
63.8115
 11
39.6869
 21
63.5536
  0
LINE
  8
0
 10
39.6869
 20
63.5536
 11
39.927
 21
63.2634
  0
LINE
  8
0
 10
39.927
 20
63.2634
 11
40.1289
 21
62.9453
  0
LINE
  8
0
 10
40.1289
 20
62.9453
 11
40.2893
 21
62.6044
  0
LINE
  8
0
 10
40.2893
 20
62.6044
 11
40.4057
 21
62.2461
  0
LINE
  8
0
 10
40.4057
 20
62.2461
 11
40.4763
 21
61.876
  0
LINE
  8
0
 10
40.4763
 20
61.876
 11
40.5
 21
61.5
  0
LINE
  8
0
 10
40.5
 20
61.5
 11
40.4763
 21
61.124
  0
LINE
  8
0
 10
40.4763
 20
61.124
 11
40.4057
 21
60.7539
  0
LINE
  8
0
 10
40.4057
 20
60.7539
 11
40.2893
 21
60.3956
  0
LINE
  8
0
 10
40.2893
 20
60.3956
 11
40.1289
 21
60.0547
  0
LINE
  8
0
 10
40.1289
 20
60.0547
 11
40.0307
 21
59.9
  0
LINE
  8
0
 10
40.0307
 20
59.9
 11
40.0307
 21
57
  0
LINE
  8
0
 10
40.0307
 20
57
 11
42.7462
 21
57
  0
LINE
  8
0
 10
42.7462
 20
57
 11
42.7462
 21
51.6
  0
LINE
  8
0
 10
42.7462
 20
51.6
 11
40.0307
 21
51.6
  0
LINE
  8
0
 10
40.0307
 20
51.6
 11
40.0307
 21
48
  0
LINE
  8
0
 10
40.0307
 20
48
 11
49.9693
 21
48
  0
LINE
  8
0
 10
49.9693
 20
48
 11
49.9693
 21
51.6
  0
LINE
  8
0
 10
49.9693
 20
51.6
 11
47.2538
 21
51.6
  0
LINE
  8
0
 10
47.2538
 20
51.6
 11
47.2538
 21
57
  0
LINE
  8
0
 10
47.2538
 20
57
 11
49.9693
 21
57
  0
LINE
  8
0
 10
49.9693
 20
57
 11
49.9693
 21
59.9
  0
LINE
  8
0
 10
49.9693
 20
59.9
 11
49.8711
 21
60.0547
  0
LINE
  8
0
 10
49.8711
 20
60.0547
 11
49.7107
 21
60.3956
  0
LINE
  8
0
 10
49.7107
 20
60.3956
 11
49.5942
 21
60.7539
  0
LINE
  8
0
 10
49.5942
 20
60.7539
 11
49.5237
 21
61.124
  0
LINE
  8
0
 10
49.5237
 20
61.124
 11
49.5
 21
61.5
  0
LINE
  8
0
 10
49.5
 20
61.5
 11
49.5237
 21
61.876
  0
LINE
  8
0
 10
49.5237
 20
61.876
 11
49.5942
 21
62.2461
  0
LINE
  8
0
 10
49.5942
 20
62.2461
 11
49.7107
 21
62.6044
  0
LINE
  8
0
 10
49.7107
 20
62.6044
 11
49.8711
 21
62.9453
  0
LINE
  8
0
 10
49.8711
 20
62.9453
 11
50.0729
 21
63.2634
  0
LINE
  8
0
 10
50.0729
 20
63.2634
 11
50.3131
 21
63.5536
  0
LINE
  8
0
 10
50.3131
 20
63.5536
 11
50.5877
 21
63.8115
  0
LINE
  8
0
 10
50.5877
 20
63.8115
 11
50.8925
 21
64.033
  0
LINE
  8
0
 10
50.8925
 20
64.033
 11
51.2227
 21
64.2145
  0
LINE
  8
0
 10
51.2227
 20
64.2145
 11
51.5729
 21
64.3532
  0
LINE
  8
0
 10
51.5729
 20
64.3532
 11
51.9379
 21
64.4469
  0
LINE
  8
0
 10
51.9379
 20
64.4469
 11
52.3116
 21
64.4941
  0
LINE
  8
0
 10
52.3116
 20
64.4941
 11
52.6884
 21
64.4941
  0
LINE
  8
0
 10
52.6884
 20
64.4941
 11
53.0621
 21
64.4469
  0
LINE
  8
0
 10
53.0621
 20
64.4469
 11
53.427
 21
64.3532
  0
LINE
  8
0
 10
53.427
 20
64.3532
 11
53.7773
 21
64.2145
  0
LINE
  8
0
 10
53.7773
 20
64.2145
 11
54.1075
 21
64.033
  0
LINE
  8
0
 10
54.1075
 20
64.033
 11
54.4123
 21
63.8115
  0
LINE
  8
0
 10
54.4123
 20
63.8115
 11
54.6869
 21
63.5536
  0
LINE
  8
0
 10
54.6869
 20
63.5536
 11
54.927
 21
63.2634
  0
LINE
  8
0
 10
54.927
 20
63.2634
 11
55.1289
 21
62.9453
  0
LINE
  8
0
 10
55.1289
 20
62.9453
 11
55.2893
 21
62.6044
  0
LINE
  8
0
 10
55.2893
 20
62.6044
 11
55.4057
 21
62.2461
  0
LINE
  8
0
 10
55.4057
 20
62.2461
 11
55.4763
 21
61.876
  0
LINE
  8
0
 10
55.4763
 20
61.876
 11
55.5
 21
61.5
  0
LINE
  8
0
 10
55.5
 20
61.5
 11
55.4763
 21
61.124
  0
LINE
  8
0
 10
55.4763
 20
61.124
 11
55.4057
 21
60.7539
  0
LINE
  8
0
 10
55.4057
 20
60.7539
 11
55.2893
 21
60.3956
  0
LINE
  8
0
 10
55.2893
 20
60.3956
 11
55.1289
 21
60.0547
  0
LINE
  8
0
 10
55.1289
 20
60.0547
 11
55.0307
 21
59.9
  0
LINE
  8
0
 10
55.0307
 20
59.9
 11
55.0307
 21
57
  0
LINE
  8
0
 10
55.0307
 20
57
 11
57.7462
 21
57
  0
LINE
  8
0
 10
57.7462
 20
57
 11
57.7462
 21
51.6
  0
LINE
  8
0
 10
57.7462
 20
51.6
 11
55.0307
 21
51.6
  0
LINE
  8
0
 10
55.0307
 20
51.6
 11
55.0307
 21
48
  0
LINE
  8
0
 10
55.0307
 20
48
 11
59.5
 21
48
  0
LINE
  8
0
 10
59.5
 20
48
 11
59.5
 21
63.5
  0
LINE
  8
0
 10
59.5
 20
63.5
 11
59.4606
 21
64.1267
  0
LINE
  8
0
 10
59.4606
 20
64.1267
 11
59.3429
 21
64.7434
  0
LINE
  8
0
 10
59.3429
 20
64.7434
 11
59.1489
 21
65.3406
  0
LINE
  8
0
 10
59.1489
 20
65.3406
 11
58.8815
 21
65.9088
  0
LINE
  8
0
 10
58.8815
 20
65.9088
 11
58.5451
 21
66.4389
  0
LINE
  8
0
 10
58.5451
 20
66.4389
 11
58.1448
 21
66.9227
  0
LINE
  8
0
 10
58.1448
 20
66.9227
 11
57.6871
 21
67.3526
  0
LINE
  8
0
 10
57.6871
 20
67.3526
 11
57.1791
 21
67.7216
  0
LINE
  8
0
 10
57.1791
 20
67.7216
 11
56.6289
 21
68.0241
  0
LINE
  8
0
 10
56.6289
 20
68.0241
 11
56.0451
 21
68.2553
  0
LINE
  8
0
 10
56.0451
 20
68.2553
 11
55.4369
 21
68.4114
  0
LINE
  8
0
 10
55.4369
 20
68.4114
 11
54.8139
 21
68.4901
  0
LINE
  8
0
 10
54.8139
 20
68.4901
 11
-54.8139
 21
68.4901
  0
LINE
  8
0
 10
-54.8139
 20
68.4901
 11
-55.4369
 21
68.4114
  0
LINE
  8
0
 10
-55.4369
 20
68.4114
 11
-56.0451
 21
68.2553
  0
LINE
  8
0
 10
-56.0451
 20
68.2553
 11
-56.6289
 21
68.0241
  0
LINE
  8
0
 10
-56.6289
 20
68.0241
 11
-57.1791
 21
67.7216
  0
LINE
  8
0
 10
-57.1791
 20
67.7216
 11
-57.6871
 21
67.3526
  0
LINE
  8
0
 10
-57.6871
 20
67.3526
 11
-58.1448
 21
66.9227
  0
LINE
  8
0
 10
-58.1448
 20
66.9227
 11
-58.5451
 21
66.4389
  0
LINE
  8
0
 10
-58.5451
 20
66.4389
 11
-58.8815
 21
65.9088
  0
LINE
  8
0
 10
-58.8815
 20
65.9088
 11
-59.1489
 21
65.3406
  0
LINE
  8
0
 10
-59.1489
 20
65.3406
 11
-59.3429
 21
64.7434
  0
LINE
  8
0
 10
-59.3429
 20
64.7434
 11
-59.4606
 21
64.1267
  0
LINE
  8
0
 10
-59.4606
 20
64.1267
 11
-59.5
 21
63.5
  0
LINE
  8
0
 10
-59.5
 20
63.5
 11
-59.5
 21
48
  0
LINE
  8
0
 10
-59.5
 20
48
 11
-55.0307
 21
48
  0
LINE
  8
0
 10
-55.0307
 20
48
 11
-55.0307
 21
51.6
  0
LINE
  8
0
 10
-30.0942
 20
60.0029
 11
-30.2811
 21
60.0266
  0
LINE
  8
0
 10
-30.2811
 20
60.0266
 11
-30.4635
 21
60.0734
  0
LINE
  8
0
 10
-30.4635
 20
60.0734
 11
-30.6387
 21
60.1427
  0
LINE
  8
0
 10
-30.6387
 20
60.1427
 11
-30.8037
 21
60.2335
  0
LINE
  8
0
 10
-30.8037
 20
60.2335
 11
-30.9561
 21
60.3442
  0
LINE
  8
0
 10
-30.9561
 20
60.3442
 11
-31.0934
 21
60.4732
  0
LINE
  8
0
 10
-31.0934
 20
60.4732
 11
-31.2135
 21
60.6183
  0
LINE
  8
0
 10
-31.2135
 20
60.6183
 11
-31.3145
 21
60.7774
  0
LINE
  8
0
 10
-31.3145
 20
60.7774
 11
-31.3947
 21
60.9478
  0
LINE
  8
0
 10
-31.3947
 20
60.9478
 11
-31.4529
 21
61.127
  0
LINE
  8
0
 10
-31.4529
 20
61.127
 11
-31.4882
 21
61.312
  0
LINE
  8
0
 10
-31.4882
 20
61.312
 11
-31.5
 21
61.5
  0
LINE
  8
0
 10
-31.5
 20
61.5
 11
-31.4882
 21
61.688
  0
LINE
  8
0
 10
-31.4882
 20
61.688
 11
-31.4529
 21
61.873
  0
LINE
  8
0
 10
-31.4529
 20
61.873
 11
-31.3947
 21
62.0522
  0
LINE
  8
0
 10
-31.3947
 20
62.0522
 11
-31.3145
 21
62.2226
  0
LINE
  8
0
 10
-31.3145
 20
62.2226
 11
-31.2135
 21
62.3817
  0
LINE
  8
0
 10
-31.2135
 20
62.3817
 11
-31.0934
 21
62.5268
  0
LINE
  8
0
 10
-31.0934
 20
62.5268
 11
-30.9561
 21
62.6558
  0
LINE
  8
0
 10
-30.9561
 20
62.6558
 11
-30.8037
 21
62.7665
  0
LINE
  8
0
 10
-30.8037
 20
62.7665
 11
-30.6387
 21
62.8572
  0
LINE
  8
0
 10
-30.6387
 20
62.8572
 11
-30.4635
 21
62.9266
  0
LINE
  8
0
 10
-30.4635
 20
62.9266
 11
-30.2811
 21
62.9734
  0
LINE
  8
0
 10
-30.2811
 20
62.9734
 11
-30.0942
 21
62.997
  0
LINE
  8
0
 10
-30.0942
 20
62.997
 11
-29.9058
 21
62.997
  0
LINE
  8
0
 10
-29.9058
 20
62.997
 11
-29.7189
 21
62.9734
  0
LINE
  8
0
 10
-29.7189
 20
62.9734
 11
-29.5365
 21
62.9266
  0
LINE
  8
0
 10
-29.5365
 20
62.9266
 11
-29.3613
 21
62.8572
  0
LINE
  8
0
 10
-29.3613
 20
62.8572
 11
-29.1963
 21
62.7665
  0
LINE
  8
0
 10
-29.1963
 20
62.7665
 11
-29.0439
 21
62.6558
  0
LINE
  8
0
 10
-29.0439
 20
62.6558
 11
-28.9065
 21
62.5268
  0
LINE
  8
0
 10
-28.9065
 20
62.5268
 11
-28.7865
 21
62.3817
  0
LINE
  8
0
 10
-28.7865
 20
62.3817
 11
-28.6855
 21
62.2226
  0
LINE
  8
0
 10
-28.6855
 20
62.2226
 11
-28.6053
 21
62.0522
  0
LINE
  8
0
 10
-28.6053
 20
62.0522
 11
-28.5471
 21
61.873
  0
LINE
  8
0
 10
-28.5471
 20
61.873
 11
-28.5118
 21
61.688
  0
LINE
  8
0
 10
-28.5118
 20
61.688
 11
-28.5
 21
61.5
  0
LINE
  8
0
 10
-28.5
 20
61.5
 11
-28.5118
 21
61.312
  0
LINE
  8
0
 10
-28.5118
 20
61.312
 11
-28.5471
 21
61.127
  0
LINE
  8
0
 10
-28.5471
 20
61.127
 11
-28.6053
 21
60.9478
  0
LINE
  8
0
 10
-28.6053
 20
60.9478
 11
-28.6855
 21
60.7774
  0
LINE
  8
0
 10
-28.6855
 20
60.7774
 11
-28.7865
 21
60.6183
  0
LINE
  8
0
 10
-28.7865
 20
60.6183
 11
-28.9065
 21
60.4732
  0
LINE
  8
0
 10
-28.9065
 20
60.4732
 11
-29.0439
 21
60.3442
  0
LINE
  8
0
 10
-29.0439
 20
60.3442
 11
-29.1963
 21
60.2335
  0
LINE
  8
0
 10
-29.1963
 20
60.2335
 11
-29.3613
 21
60.1427
  0
LINE
  8
0
 10
-29.3613
 20
60.1427
 11
-29.5365
 21
60.0734
  0
LINE
  8
0
 10
-29.5365
 20
60.0734
 11
-29.7189
 21
60.0266
  0
LINE
  8
0
 10
-29.7189
 20
60.0266
 11
-29.9058
 21
60.0029
  0
LINE
  8
0
 10
-29.9058
 20
60.0029
 11
-30.0942
 21
60.0029
  0
LINE
  8
0
 10
44.9058
 20
60.0029
 11
44.7189
 21
60.0266
  0
LINE
  8
0
 10
44.7189
 20
60.0266
 11
44.5365
 21
60.0734
  0
LINE
  8
0
 10
44.5365
 20
60.0734
 11
44.3613
 21
60.1427
  0
LINE
  8
0
 10
44.3613
 20
60.1427
 11
44.1963
 21
60.2335
  0
LINE
  8
0
 10
44.1963
 20
60.2335
 11
44.0439
 21
60.3442
  0
LINE
  8
0
 10
44.0439
 20
60.3442
 11
43.9065
 21
60.4732
  0
LINE
  8
0
 10
43.9065
 20
60.4732
 11
43.7865
 21
60.6183
  0
LINE
  8
0
 10
43.7865
 20
60.6183
 11
43.6855
 21
60.7774
  0
LINE
  8
0
 10
43.6855
 20
60.7774
 11
43.6053
 21
60.9478
  0
LINE
  8
0
 10
43.6053
 20
60.9478
 11
43.5471
 21
61.127
  0
LINE
  8
0
 10
43.5471
 20
61.127
 11
43.5118
 21
61.312
  0
LINE
  8
0
 10
43.5118
 20
61.312
 11
43.5
 21
61.5
  0
LINE
  8
0
 10
43.5
 20
61.5
 11
43.5118
 21
61.688
  0
LINE
  8
0
 10
43.5118
 20
61.688
 11
43.5471
 21
61.873
  0
LINE
  8
0
 10
43.5471
 20
61.873
 11
43.6053
 21
62.0522
  0
LINE
  8
0
 10
43.6053
 20
62.0522
 11
43.6855
 21
62.2226
  0
LINE
  8
0
 10
43.6855
 20
62.2226
 11
43.7865
 21
62.3817
  0
LINE
  8
0
 10
43.7865
 20
62.3817
 11
43.9065
 21
62.5268
  0
LINE
  8
0
 10
43.9065
 20
62.5268
 11
44.0439
 21
62.6558
  0
LINE
  8
0
 10
44.0439
 20
62.6558
 11
44.1963
 21
62.7665
  0
LINE
  8
0
 10
44.1963
 20
62.7665
 11
44.3613
 21
62.8572
  0
LINE
  8
0
 10
44.3613
 20
62.8572
 11
44.5365
 21
62.9266
  0
LINE
  8
0
 10
44.5365
 20
62.9266
 11
44.7189
 21
62.9734
  0
LINE
  8
0
 10
44.7189
 20
62.9734
 11
44.9058
 21
62.997
  0
LINE
  8
0
 10
44.9058
 20
62.997
 11
45.0942
 21
62.997
  0
LINE
  8
0
 10
45.0942
 20
62.997
 11
45.2811
 21
62.9734
  0
LINE
  8
0
 10
45.2811
 20
62.9734
 11
45.4635
 21
62.9266
  0
LINE
  8
0
 10
45.4635
 20
62.9266
 11
45.6387
 21
62.8572
  0
LINE
  8
0
 10
45.6387
 20
62.8572
 11
45.8037
 21
62.7665
  0
LINE
  8
0
 10
45.8037
 20
62.7665
 11
45.9561
 21
62.6558
  0
LINE
  8
0
 10
45.9561
 20
62.6558
 11
46.0934
 21
62.5268
  0
LINE
  8
0
 10
46.0934
 20
62.5268
 11
46.2135
 21
62.3817
  0
LINE
  8
0
 10
46.2135
 20
62.3817
 11
46.3145
 21
62.2226
  0
LINE
  8
0
 10
46.3145
 20
62.2226
 11
46.3947
 21
62.0522
  0
LINE
  8
0
 10
46.3947
 20
62.0522
 11
46.4529
 21
61.873
  0
LINE
  8
0
 10
46.4529
 20
61.873
 11
46.4882
 21
61.688
  0
LINE
  8
0
 10
46.4882
 20
61.688
 11
46.5
 21
61.5
  0
LINE
  8
0
 10
46.5
 20
61.5
 11
46.4882
 21
61.312
  0
LINE
  8
0
 10
46.4882
 20
61.312
 11
46.4529
 21
61.127
  0
LINE
  8
0
 10
46.4529
 20
61.127
 11
46.3947
 21
60.9478
  0
LINE
  8
0
 10
46.3947
 20
60.9478
 11
46.3145
 21
60.7774
  0
LINE
  8
0
 10
46.3145
 20
60.7774
 11
46.2135
 21
60.6183
  0
LINE
  8
0
 10
46.2135
 20
60.6183
 11
46.0934
 21
60.4732
  0
LINE
  8
0
 10
46.0934
 20
60.4732
 11
45.9561
 21
60.3442
  0
LINE
  8
0
 10
45.9561
 20
60.3442
 11
45.8037
 21
60.2335
  0
LINE
  8
0
 10
45.8037
 20
60.2335
 11
45.6387
 21
60.1427
  0
LINE
  8
0
 10
45.6387
 20
60.1427
 11
45.4635
 21
60.0734
  0
LINE
  8
0
 10
45.4635
 20
60.0734
 11
45.2811
 21
60.0266
  0
LINE
  8
0
 10
45.2811
 20
60.0266
 11
45.0942
 21
60.0029
  0
LINE
  8
0
 10
45.0942
 20
60.0029
 11
44.9058
 21
60.0029
  0
LINE
  8
0
 10
14.9058
 20
60.0029
 11
14.7189
 21
60.0266
  0
LINE
  8
0
 10
14.7189
 20
60.0266
 11
14.5365
 21
60.0734
  0
LINE
  8
0
 10
14.5365
 20
60.0734
 11
14.3613
 21
60.1427
  0
LINE
  8
0
 10
14.3613
 20
60.1427
 11
14.1963
 21
60.2335
  0
LINE
  8
0
 10
14.1963
 20
60.2335
 11
14.0439
 21
60.3442
  0
LINE
  8
0
 10
14.0439
 20
60.3442
 11
13.9065
 21
60.4732
  0
LINE
  8
0
 10
13.9065
 20
60.4732
 11
13.7865
 21
60.6183
  0
LINE
  8
0
 10
13.7865
 20
60.6183
 11
13.6855
 21
60.7774
  0
LINE
  8
0
 10
13.6855
 20
60.7774
 11
13.6053
 21
60.9478
  0
LINE
  8
0
 10
13.6053
 20
60.9478
 11
13.5471
 21
61.127
  0
LINE
  8
0
 10
13.5471
 20
61.127
 11
13.5118
 21
61.312
  0
LINE
  8
0
 10
13.5118
 20
61.312
 11
13.5
 21
61.5
  0
LINE
  8
0
 10
13.5
 20
61.5
 11
13.5118
 21
61.688
  0
LINE
  8
0
 10
13.5118
 20
61.688
 11
13.5471
 21
61.873
  0
LINE
  8
0
 10
13.5471
 20
61.873
 11
13.6053
 21
62.0522
  0
LINE
  8
0
 10
13.6053
 20
62.0522
 11
13.6855
 21
62.2226
  0
LINE
  8
0
 10
13.6855
 20
62.2226
 11
13.7865
 21
62.3817
  0
LINE
  8
0
 10
13.7865
 20
62.3817
 11
13.9065
 21
62.5268
  0
LINE
  8
0
 10
13.9065
 20
62.5268
 11
14.0439
 21
62.6558
  0
LINE
  8
0
 10
14.0439
 20
62.6558
 11
14.1963
 21
62.7665
  0
LINE
  8
0
 10
14.1963
 20
62.7665
 11
14.3613
 21
62.8572
  0
LINE
  8
0
 10
14.3613
 20
62.8572
 11
14.5365
 21
62.9266
  0
LINE
  8
0
 10
14.5365
 20
62.9266
 11
14.7189
 21
62.9734
  0
LINE
  8
0
 10
14.7189
 20
62.9734
 11
14.9058
 21
62.997
  0
LINE
  8
0
 10
14.9058
 20
62.997
 11
15.0942
 21
62.997
  0
LINE
  8
0
 10
15.0942
 20
62.997
 11
15.2811
 21
62.9734
  0
LINE
  8
0
 10
15.2811
 20
62.9734
 11
15.4635
 21
62.9266
  0
LINE
  8
0
 10
15.4635
 20
62.9266
 11
15.6387
 21
62.8572
  0
LINE
  8
0
 10
15.6387
 20
62.8572
 11
15.8037
 21
62.7665
  0
LINE
  8
0
 10
15.8037
 20
62.7665
 11
15.9561
 21
62.6558
  0
LINE
  8
0
 10
15.9561
 20
62.6558
 11
16.0934
 21
62.5268
  0
LINE
  8
0
 10
16.0934
 20
62.5268
 11
16.2135
 21
62.3817
  0
LINE
  8
0
 10
16.2135
 20
62.3817
 11
16.3145
 21
62.2226
  0
LINE
  8
0
 10
16.3145
 20
62.2226
 11
16.3947
 21
62.0522
  0
LINE
  8
0
 10
16.3947
 20
62.0522
 11
16.4529
 21
61.873
  0
LINE
  8
0
 10
16.4529
 20
61.873
 11
16.4882
 21
61.688
  0
LINE
  8
0
 10
16.4882
 20
61.688
 11
16.5
 21
61.5
  0
LINE
  8
0
 10
16.5
 20
61.5
 11
16.4882
 21
61.312
  0
LINE
  8
0
 10
16.4882
 20
61.312
 11
16.4529
 21
61.127
  0
LINE
  8
0
 10
16.4529
 20
61.127
 11
16.3947
 21
60.9478
  0
LINE
  8
0
 10
16.3947
 20
60.9478
 11
16.3145
 21
60.7774
  0
LINE
  8
0
 10
16.3145
 20
60.7774
 11
16.2135
 21
60.6183
  0
LINE
  8
0
 10
16.2135
 20
60.6183
 11
16.0934
 21
60.4732
  0
LINE
  8
0
 10
16.0934
 20
60.4732
 11
15.9561
 21
60.3442
  0
LINE
  8
0
 10
15.9561
 20
60.3442
 11
15.8037
 21
60.2335
  0
LINE
  8
0
 10
15.8037
 20
60.2335
 11
15.6387
 21
60.1427
  0
LINE
  8
0
 10
15.6387
 20
60.1427
 11
15.4635
 21
60.0734
  0
LINE
  8
0
 10
15.4635
 20
60.0734
 11
15.2811
 21
60.0266
  0
LINE
  8
0
 10
15.2811
 20
60.0266
 11
15.0942
 21
60.0029
  0
LINE
  8
0
 10
15.0942
 20
60.0029
 11
14.9058
 21
60.0029
  0
LINE
  8
0
 10
-15.0942
 20
60.0029
 11
-15.2811
 21
60.0266
  0
LINE
  8
0
 10
-15.2811
 20
60.0266
 11
-15.4635
 21
60.0734
  0
LINE
  8
0
 10
-15.4635
 20
60.0734
 11
-15.6387
 21
60.1427
  0
LINE
  8
0
 10
-15.6387
 20
60.1427
 11
-15.8037
 21
60.2335
  0
LINE
  8
0
 10
-15.8037
 20
60.2335
 11
-15.9561
 21
60.3442
  0
LINE
  8
0
 10
-15.9561
 20
60.3442
 11
-16.0934
 21
60.4732
  0
LINE
  8
0
 10
-16.0934
 20
60.4732
 11
-16.2135
 21
60.6183
  0
LINE
  8
0
 10
-16.2135
 20
60.6183
 11
-16.3145
 21
60.7774
  0
LINE
  8
0
 10
-16.3145
 20
60.7774
 11
-16.3947
 21
60.9478
  0
LINE
  8
0
 10
-16.3947
 20
60.9478
 11
-16.4529
 21
61.127
  0
LINE
  8
0
 10
-16.4529
 20
61.127
 11
-16.4882
 21
61.312
  0
LINE
  8
0
 10
-16.4882
 20
61.312
 11
-16.5
 21
61.5
  0
LINE
  8
0
 10
-16.5
 20
61.5
 11
-16.4882
 21
61.688
  0
LINE
  8
0
 10
-16.4882
 20
61.688
 11
-16.4529
 21
61.873
  0
LINE
  8
0
 10
-16.4529
 20
61.873
 11
-16.3947
 21
62.0522
  0
LINE
  8
0
 10
-16.3947
 20
62.0522
 11
-16.3145
 21
62.2226
  0
LINE
  8
0
 10
-16.3145
 20
62.2226
 11
-16.2135
 21
62.3817
  0
LINE
  8
0
 10
-16.2135
 20
62.3817
 11
-16.0934
 21
62.5268
  0
LINE
  8
0
 10
-16.0934
 20
62.5268
 11
-15.9561
 21
62.6558
  0
LINE
  8
0
 10
-15.9561
 20
62.6558
 11
-15.8037
 21
62.7665
  0
LINE
  8
0
 10
-15.8037
 20
62.7665
 11
-15.6387
 21
62.8572
  0
LINE
  8
0
 10
-15.6387
 20
62.8572
 11
-15.4635
 21
62.9266
  0
LINE
  8
0
 10
-15.4635
 20
62.9266
 11
-15.2811
 21
62.9734
  0
LINE
  8
0
 10
-15.2811
 20
62.9734
 11
-15.0942
 21
62.997
  0
LINE
  8
0
 10
-15.0942
 20
62.997
 11
-14.9058
 21
62.997
  0
LINE
  8
0
 10
-14.9058
 20
62.997
 11
-14.7189
 21
62.9734
  0
LINE
  8
0
 10
-14.7189
 20
62.9734
 11
-14.5365
 21
62.9266
  0
LINE
  8
0
 10
-14.5365
 20
62.9266
 11
-14.3613
 21
62.8572
  0
LINE
  8
0
 10
-14.3613
 20
62.8572
 11
-14.1963
 21
62.7665
  0
LINE
  8
0
 10
-14.1963
 20
62.7665
 11
-14.0439
 21
62.6558
  0
LINE
  8
0
 10
-14.0439
 20
62.6558
 11
-13.9065
 21
62.5268
  0
LINE
  8
0
 10
-13.9065
 20
62.5268
 11
-13.7865
 21
62.3817
  0
LINE
  8
0
 10
-13.7865
 20
62.3817
 11
-13.6855
 21
62.2226
  0
LINE
  8
0
 10
-13.6855
 20
62.2226
 11
-13.6053
 21
62.0522
  0
LINE
  8
0
 10
-13.6053
 20
62.0522
 11
-13.5471
 21
61.873
  0
LINE
  8
0
 10
-13.5471
 20
61.873
 11
-13.5118
 21
61.688
  0
LINE
  8
0
 10
-13.5118
 20
61.688
 11
-13.5
 21
61.5
  0
LINE
  8
0
 10
-13.5
 20
61.5
 11
-13.5118
 21
61.312
  0
LINE
  8
0
 10
-13.5118
 20
61.312
 11
-13.5471
 21
61.127
  0
LINE
  8
0
 10
-13.5471
 20
61.127
 11
-13.6053
 21
60.9478
  0
LINE
  8
0
 10
-13.6053
 20
60.9478
 11
-13.6855
 21
60.7774
  0
LINE
  8
0
 10
-13.6855
 20
60.7774
 11
-13.7865
 21
60.6183
  0
LINE
  8
0
 10
-13.7865
 20
60.6183
 11
-13.9065
 21
60.4732
  0
LINE
  8
0
 10
-13.9065
 20
60.4732
 11
-14.0439
 21
60.3442
  0
LINE
  8
0
 10
-14.0439
 20
60.3442
 11
-14.1963
 21
60.2335
  0
LINE
  8
0
 10
-14.1963
 20
60.2335
 11
-14.3613
 21
60.1427
  0
LINE
  8
0
 10
-14.3613
 20
60.1427
 11
-14.5365
 21
60.0734
  0
LINE
  8
0
 10
-14.5365
 20
60.0734
 11
-14.7189
 21
60.0266
  0
LINE
  8
0
 10
-14.7189
 20
60.0266
 11
-14.9058
 21
60.0029
  0
LINE
  8
0
 10
-14.9058
 20
60.0029
 11
-15.0942
 21
60.0029
  0
LINE
  8
0
 10
-45.0942
 20
60.0029
 11
-45.2811
 21
60.0266
  0
LINE
  8
0
 10
-45.2811
 20
60.0266
 11
-45.4635
 21
60.0734
  0
LINE
  8
0
 10
-45.4635
 20
60.0734
 11
-45.6387
 21
60.1427
  0
LINE
  8
0
 10
-45.6387
 20
60.1427
 11
-45.8037
 21
60.2335
  0
LINE
  8
0
 10
-45.8037
 20
60.2335
 11
-45.9561
 21
60.3442
  0
LINE
  8
0
 10
-45.9561
 20
60.3442
 11
-46.0934
 21
60.4732
  0
LINE
  8
0
 10
-46.0934
 20
60.4732
 11
-46.2135
 21
60.6183
  0
LINE
  8
0
 10
-46.2135
 20
60.6183
 11
-46.3145
 21
60.7774
  0
LINE
  8
0
 10
-46.3145
 20
60.7774
 11
-46.3947
 21
60.9478
  0
LINE
  8
0
 10
-46.3947
 20
60.9478
 11
-46.4529
 21
61.127
  0
LINE
  8
0
 10
-46.4529
 20
61.127
 11
-46.4882
 21
61.312
  0
LINE
  8
0
 10
-46.4882
 20
61.312
 11
-46.5
 21
61.5
  0
LINE
  8
0
 10
-46.5
 20
61.5
 11
-46.4882
 21
61.688
  0
LINE
  8
0
 10
-46.4882
 20
61.688
 11
-46.4529
 21
61.873
  0
LINE
  8
0
 10
-46.4529
 20
61.873
 11
-46.3947
 21
62.0522
  0
LINE
  8
0
 10
-46.3947
 20
62.0522
 11
-46.3145
 21
62.2226
  0
LINE
  8
0
 10
-46.3145
 20
62.2226
 11
-46.2135
 21
62.3817
  0
LINE
  8
0
 10
-46.2135
 20
62.3817
 11
-46.0934
 21
62.5268
  0
LINE
  8
0
 10
-46.0934
 20
62.5268
 11
-45.9561
 21
62.6558
  0
LINE
  8
0
 10
-45.9561
 20
62.6558
 11
-45.8037
 21
62.7665
  0
LINE
  8
0
 10
-45.8037
 20
62.7665
 11
-45.6387
 21
62.8572
  0
LINE
  8
0
 10
-45.6387
 20
62.8572
 11
-45.4635
 21
62.9266
  0
LINE
  8
0
 10
-45.4635
 20
62.9266
 11
-45.2811
 21
62.9734
  0
LINE
  8
0
 10
-45.2811
 20
62.9734
 11
-45.0942
 21
62.997
  0
LINE
  8
0
 10
-45.0942
 20
62.997
 11
-44.9058
 21
62.997
  0
LINE
  8
0
 10
-44.9058
 20
62.997
 11
-44.7189
 21
62.9734
  0
LINE
  8
0
 10
-44.7189
 20
62.9734
 11
-44.5365
 21
62.9266
  0
LINE
  8
0
 10
-44.5365
 20
62.9266
 11
-44.3613
 21
62.8572
  0
LINE
  8
0
 10
-44.3613
 20
62.8572
 11
-44.1963
 21
62.7665
  0
LINE
  8
0
 10
-44.1963
 20
62.7665
 11
-44.0439
 21
62.6558
  0
LINE
  8
0
 10
-44.0439
 20
62.6558
 11
-43.9065
 21
62.5268
  0
LINE
  8
0
 10
-43.9065
 20
62.5268
 11
-43.7865
 21
62.3817
  0
LINE
  8
0
 10
-43.7865
 20
62.3817
 11
-43.6855
 21
62.2226
  0
LINE
  8
0
 10
-43.6855
 20
62.2226
 11
-43.6053
 21
62.0522
  0
LINE
  8
0
 10
-43.6053
 20
62.0522
 11
-43.5471
 21
61.873
  0
LINE
  8
0
 10
-43.5471
 20
61.873
 11
-43.5118
 21
61.688
  0
LINE
  8
0
 10
-43.5118
 20
61.688
 11
-43.5
 21
61.5
  0
LINE
  8
0
 10
-43.5
 20
61.5
 11
-43.5118
 21
61.312
  0
LINE
  8
0
 10
-43.5118
 20
61.312
 11
-43.5471
 21
61.127
  0
LINE
  8
0
 10
-43.5471
 20
61.127
 11
-43.6053
 21
60.9478
  0
LINE
  8
0
 10
-43.6053
 20
60.9478
 11
-43.6855
 21
60.7774
  0
LINE
  8
0
 10
-43.6855
 20
60.7774
 11
-43.7865
 21
60.6183
  0
LINE
  8
0
 10
-43.7865
 20
60.6183
 11
-43.9065
 21
60.4732
  0
LINE
  8
0
 10
-43.9065
 20
60.4732
 11
-44.0439
 21
60.3442
  0
LINE
  8
0
 10
-44.0439
 20
60.3442
 11
-44.1963
 21
60.2335
  0
LINE
  8
0
 10
-44.1963
 20
60.2335
 11
-44.3613
 21
60.1427
  0
LINE
  8
0
 10
-44.3613
 20
60.1427
 11
-44.5365
 21
60.0734
  0
LINE
  8
0
 10
-44.5365
 20
60.0734
 11
-44.7189
 21
60.0266
  0
LINE
  8
0
 10
-44.7189
 20
60.0266
 11
-44.9058
 21
60.0029
  0
LINE
  8
0
 10
-44.9058
 20
60.0029
 11
-45.0942
 21
60.0029
  0
LINE
  8
0
 10
-55.0942
 20
27.6
 11
-57.804
 21
27.6
  0
LINE
  8
0
 10
-57.804
 20
27.6
 11
-57.804
 21
33
  0
LINE
  8
0
 10
-57.804
 20
33
 11
-55.0942
 21
33
  0
LINE
  8
0
 10
-55.0942
 20
33
 11
-55.0942
 21
36
  0
LINE
  8
0
 10
-55.0942
 20
36
 11
-55.1289
 21
36.0547
  0
LINE
  8
0
 10
-55.1289
 20
36.0547
 11
-55.2893
 21
36.3956
  0
LINE
  8
0
 10
-55.2893
 20
36.3956
 11
-55.4057
 21
36.7539
  0
LINE
  8
0
 10
-55.4057
 20
36.7539
 11
-55.4763
 21
37.124
  0
LINE
  8
0
 10
-55.4763
 20
37.124
 11
-55.5
 21
37.5
  0
LINE
  8
0
 10
-55.5
 20
37.5
 11
-55.4763
 21
37.876
  0
LINE
  8
0
 10
-55.4763
 20
37.876
 11
-55.4057
 21
38.2461
  0
LINE
  8
0
 10
-55.4057
 20
38.2461
 11
-55.2893
 21
38.6044
  0
LINE
  8
0
 10
-55.2893
 20
38.6044
 11
-55.1289
 21
38.9453
  0
LINE
  8
0
 10
-55.1289
 20
38.9453
 11
-54.927
 21
39.2634
  0
LINE
  8
0
 10
-54.927
 20
39.2634
 11
-54.6869
 21
39.5536
  0
LINE
  8
0
 10
-54.6869
 20
39.5536
 11
-54.4123
 21
39.8115
  0
LINE
  8
0
 10
-54.4123
 20
39.8115
 11
-54.1075
 21
40.033
  0
LINE
  8
0
 10
-54.1075
 20
40.033
 11
-53.7773
 21
40.2145
  0
LINE
  8
0
 10
-53.7773
 20
40.2145
 11
-53.427
 21
40.3532
  0
LINE
  8
0
 10
-53.427
 20
40.3532
 11
-53.0621
 21
40.4469
  0
LINE
  8
0
 10
-53.0621
 20
40.4469
 11
-52.6884
 21
40.4941
  0
LINE
  8
0
 10
-52.6884
 20
40.4941
 11
-52.3116
 21
40.4941
  0
LINE
  8
0
 10
-52.3116
 20
40.4941
 11
-51.9379
 21
40.4469
  0
LINE
  8
0
 10
-51.9379
 20
40.4469
 11
-51.5729
 21
40.3532
  0
LINE
  8
0
 10
-51.5729
 20
40.3532
 11
-51.2227
 21
40.2145
  0
LINE
  8
0
 10
-51.2227
 20
40.2145
 11
-50.8925
 21
40.033
  0
LINE
  8
0
 10
-50.8925
 20
40.033
 11
-50.5877
 21
39.8115
  0
LINE
  8
0
 10
-50.5877
 20
39.8115
 11
-50.3131
 21
39.5536
  0
LINE
  8
0
 10
-50.3131
 20
39.5536
 11
-50.0729
 21
39.2634
  0
LINE
  8
0
 10
-50.0729
 20
39.2634
 11
-49.8711
 21
38.9453
  0
LINE
  8
0
 10
-49.8711
 20
38.9453
 11
-49.7107
 21
38.6044
  0
LINE
  8
0
 10
-49.7107
 20
38.6044
 11
-49.5942
 21
38.2461
  0
LINE
  8
0
 10
-49.5942
 20
38.2461
 11
-49.5237
 21
37.876
  0
LINE
  8
0
 10
-49.5237
 20
37.876
 11
-49.5
 21
37.5
  0
LINE
  8
0
 10
-49.5
 20
37.5
 11
-49.5237
 21
37.124
  0
LINE
  8
0
 10
-49.5237
 20
37.124
 11
-49.5942
 21
36.7539
  0
LINE
  8
0
 10
-49.5942
 20
36.7539
 11
-49.7107
 21
36.3956
  0
LINE
  8
0
 10
-49.7107
 20
36.3956
 11
-49.8711
 21
36.0547
  0
LINE
  8
0
 10
-49.8711
 20
36.0547
 11
-49.9058
 21
36
  0
LINE
  8
0
 10
-49.9058
 20
36
 11
-49.9058
 21
33
  0
LINE
  8
0
 10
-49.9058
 20
33
 11
-47.196
 21
33
  0
LINE
  8
0
 10
-47.196
 20
33
 11
-47.196
 21
27.6
  0
LINE
  8
0
 10
-47.196
 20
27.6
 11
-49.9058
 21
27.6
  0
LINE
  8
0
 10
-49.9058
 20
27.6
 11
-49.9058
 21
24
  0
LINE
  8
0
 10
-49.9058
 20
24
 11
-40.0942
 21
24
  0
LINE
  8
0
 10
-40.0942
 20
24
 11
-40.0942
 21
27.6
  0
LINE
  8
0
 10
-40.0942
 20
27.6
 11
-42.804
 21
27.6
  0
LINE
  8
0
 10
-42.804
 20
27.6
 11
-42.804
 21
33
  0
LINE
  8
0
 10
-42.804
 20
33
 11
-40.0942
 21
33
  0
LINE
  8
0
 10
-40.0942
 20
33
 11
-40.0942
 21
36
  0
LINE
  8
0
 10
-40.0942
 20
36
 11
-40.1289
 21
36.0547
  0
LINE
  8
0
 10
-40.1289
 20
36.0547
 11
-40.2893
 21
36.3956
  0
LINE
  8
0
 10
-40.2893
 20
36.3956
 11
-40.4057
 21
36.7539
  0
LINE
  8
0
 10
-40.4057
 20
36.7539
 11
-40.4763
 21
37.124
  0
LINE
  8
0
 10
-40.4763
 20
37.124
 11
-40.5
 21
37.5
  0
LINE
  8
0
 10
-40.5
 20
37.5
 11
-40.4763
 21
37.876
  0
LINE
  8
0
 10
-40.4763
 20
37.876
 11
-40.4057
 21
38.2461
  0
LINE
  8
0
 10
-40.4057
 20
38.2461
 11
-40.2893
 21
38.6044
  0
LINE
  8
0
 10
-40.2893
 20
38.6044
 11
-40.1289
 21
38.9453
  0
LINE
  8
0
 10
-40.1289
 20
38.9453
 11
-39.927
 21
39.2634
  0
LINE
  8
0
 10
-39.927
 20
39.2634
 11
-39.6869
 21
39.5536
  0
LINE
  8
0
 10
-39.6869
 20
39.5536
 11
-39.4123
 21
39.8115
  0
LINE
  8
0
 10
-39.4123
 20
39.8115
 11
-39.1075
 21
40.033
  0
LINE
  8
0
 10
-39.1075
 20
40.033
 11
-38.7773
 21
40.2145
  0
LINE
  8
0
 10
-38.7773
 20
40.2145
 11
-38.427
 21
40.3532
  0
LINE
  8
0
 10
-38.427
 20
40.3532
 11
-38.0621
 21
40.4469
  0
LINE
  8
0
 10
-38.0621
 20
40.4469
 11
-37.6884
 21
40.4941
  0
LINE
  8
0
 10
-37.6884
 20
40.4941
 11
-37.3116
 21
40.4941
  0
LINE
  8
0
 10
-37.3116
 20
40.4941
 11
-36.9379
 21
40.4469
  0
LINE
  8
0
 10
-36.9379
 20
40.4469
 11
-36.5729
 21
40.3532
  0
LINE
  8
0
 10
-36.5729
 20
40.3532
 11
-36.2227
 21
40.2145
  0
LINE
  8
0
 10
-36.2227
 20
40.2145
 11
-35.8925
 21
40.033
  0
LINE
  8
0
 10
-35.8925
 20
40.033
 11
-35.5877
 21
39.8115
  0
LINE
  8
0
 10
-35.5877
 20
39.8115
 11
-35.3131
 21
39.5536
  0
LINE
  8
0
 10
-35.3131
 20
39.5536
 11
-35.0729
 21
39.2634
  0
LINE
  8
0
 10
-35.0729
 20
39.2634
 11
-34.8711
 21
38.9453
  0
LINE
  8
0
 10
-34.8711
 20
38.9453
 11
-34.7107
 21
38.6044
  0
LINE
  8
0
 10
-34.7107
 20
38.6044
 11
-34.5942
 21
38.2461
  0
LINE
  8
0
 10
-34.5942
 20
38.2461
 11
-34.5237
 21
37.876
  0
LINE
  8
0
 10
-34.5237
 20
37.876
 11
-34.5
 21
37.5
  0
LINE
  8
0
 10
-34.5
 20
37.5
 11
-34.5237
 21
37.124
  0
LINE
  8
0
 10
-34.5237
 20
37.124
 11
-34.5942
 21
36.7539
  0
LINE
  8
0
 10
-34.5942
 20
36.7539
 11
-34.7107
 21
36.3956
  0
LINE
  8
0
 10
-34.7107
 20
36.3956
 11
-34.8711
 21
36.0547
  0
LINE
  8
0
 10
-34.8711
 20
36.0547
 11
-34.9058
 21
36
  0
LINE
  8
0
 10
-34.9058
 20
36
 11
-34.9058
 21
33
  0
LINE
  8
0
 10
-34.9058
 20
33
 11
-32.196
 21
33
  0
LINE
  8
0
 10
-32.196
 20
33
 11
-32.196
 21
27.6
  0
LINE
  8
0
 10
-32.196
 20
27.6
 11
-34.9058
 21
27.6
  0
LINE
  8
0
 10
-34.9058
 20
27.6
 11
-34.9058
 21
24
  0
LINE
  8
0
 10
-34.9058
 20
24
 11
-25.0942
 21
24
  0
LINE
  8
0
 10
-25.0942
 20
24
 11
-25.0942
 21
27.6
  0
LINE
  8
0
 10
-25.0942
 20
27.6
 11
-27.804
 21
27.6
  0
LINE
  8
0
 10
-27.804
 20
27.6
 11
-27.804
 21
33
  0
LINE
  8
0
 10
-27.804
 20
33
 11
-25.0942
 21
33
  0
LINE
  8
0
 10
-25.0942
 20
33
 11
-25.0942
 21
36
  0
LINE
  8
0
 10
-25.0942
 20
36
 11
-25.1289
 21
36.0547
  0
LINE
  8
0
 10
-25.1289
 20
36.0547
 11
-25.2893
 21
36.3956
  0
LINE
  8
0
 10
-25.2893
 20
36.3956
 11
-25.4057
 21
36.7539
  0
LINE
  8
0
 10
-25.4057
 20
36.7539
 11
-25.4763
 21
37.124
  0
LINE
  8
0
 10
-25.4763
 20
37.124
 11
-25.5
 21
37.5
  0
LINE
  8
0
 10
-25.5
 20
37.5
 11
-25.4763
 21
37.876
  0
LINE
  8
0
 10
-25.4763
 20
37.876
 11
-25.4057
 21
38.2461
  0
LINE
  8
0
 10
-25.4057
 20
38.2461
 11
-25.2893
 21
38.6044
  0
LINE
  8
0
 10
-25.2893
 20
38.6044
 11
-25.1289
 21
38.9453
  0
LINE
  8
0
 10
-25.1289
 20
38.9453
 11
-24.927
 21
39.2634
  0
LINE
  8
0
 10
-24.927
 20
39.2634
 11
-24.6869
 21
39.5536
  0
LINE
  8
0
 10
-24.6869
 20
39.5536
 11
-24.4123
 21
39.8115
  0
LINE
  8
0
 10
-24.4123
 20
39.8115
 11
-24.1075
 21
40.033
  0
LINE
  8
0
 10
-24.1075
 20
40.033
 11
-23.7773
 21
40.2145
  0
LINE
  8
0
 10
-23.7773
 20
40.2145
 11
-23.427
 21
40.3532
  0
LINE
  8
0
 10
-23.427
 20
40.3532
 11
-23.0621
 21
40.4469
  0
LINE
  8
0
 10
-23.0621
 20
40.4469
 11
-22.6884
 21
40.4941
  0
LINE
  8
0
 10
-22.6884
 20
40.4941
 11
-22.3116
 21
40.4941
  0
LINE
  8
0
 10
-22.3116
 20
40.4941
 11
-21.9379
 21
40.4469
  0
LINE
  8
0
 10
-21.9379
 20
40.4469
 11
-21.5729
 21
40.3532
  0
LINE
  8
0
 10
-21.5729
 20
40.3532
 11
-21.2227
 21
40.2145
  0
LINE
  8
0
 10
-21.2227
 20
40.2145
 11
-20.8925
 21
40.033
  0
LINE
  8
0
 10
-20.8925
 20
40.033
 11
-20.5877
 21
39.8115
  0
LINE
  8
0
 10
-20.5877
 20
39.8115
 11
-20.3131
 21
39.5536
  0
LINE
  8
0
 10
-20.3131
 20
39.5536
 11
-20.0729
 21
39.2634
  0
LINE
  8
0
 10
-20.0729
 20
39.2634
 11
-19.8711
 21
38.9453
  0
LINE
  8
0
 10
-19.8711
 20
38.9453
 11
-19.7107
 21
38.6044
  0
LINE
  8
0
 10
-19.7107
 20
38.6044
 11
-19.5942
 21
38.2461
  0
LINE
  8
0
 10
-19.5942
 20
38.2461
 11
-19.5237
 21
37.876
  0
LINE
  8
0
 10
-19.5237
 20
37.876
 11
-19.5
 21
37.5
  0
LINE
  8
0
 10
-19.5
 20
37.5
 11
-19.5237
 21
37.124
  0
LINE
  8
0
 10
-19.5237
 20
37.124
 11
-19.5942
 21
36.7539
  0
LINE
  8
0
 10
-19.5942
 20
36.7539
 11
-19.7107
 21
36.3956
  0
LINE
  8
0
 10
-19.7107
 20
36.3956
 11
-19.8711
 21
36.0547
  0
LINE
  8
0
 10
-19.8711
 20
36.0547
 11
-19.9058
 21
36
  0
LINE
  8
0
 10
-19.9058
 20
36
 11
-19.9058
 21
33
  0
LINE
  8
0
 10
-19.9058
 20
33
 11
-17.196
 21
33
  0
LINE
  8
0
 10
-17.196
 20
33
 11
-17.196
 21
27.6
  0
LINE
  8
0
 10
-17.196
 20
27.6
 11
-19.9058
 21
27.6
  0
LINE
  8
0
 10
-19.9058
 20
27.6
 11
-19.9058
 21
24
  0
LINE
  8
0
 10
-19.9058
 20
24
 11
-10.0942
 21
24
  0
LINE
  8
0
 10
-10.0942
 20
24
 11
-10.0942
 21
27.6
  0
LINE
  8
0
 10
-10.0942
 20
27.6
 11
-12.804
 21
27.6
  0
LINE
  8
0
 10
-12.804
 20
27.6
 11
-12.804
 21
33
  0
LINE
  8
0
 10
-12.804
 20
33
 11
-10.0942
 21
33
  0
LINE
  8
0
 10
-10.0942
 20
33
 11
-10.0942
 21
36
  0
LINE
  8
0
 10
-10.0942
 20
36
 11
-10.1289
 21
36.0547
  0
LINE
  8
0
 10
-10.1289
 20
36.0547
 11
-10.2893
 21
36.3956
  0
LINE
  8
0
 10
-10.2893
 20
36.3956
 11
-10.4057
 21
36.7539
  0
LINE
  8
0
 10
-10.4057
 20
36.7539
 11
-10.4763
 21
37.124
  0
LINE
  8
0
 10
-10.4763
 20
37.124
 11
-10.5
 21
37.5
  0
LINE
  8
0
 10
-10.5
 20
37.5
 11
-10.4763
 21
37.876
  0
LINE
  8
0
 10
-10.4763
 20
37.876
 11
-10.4057
 21
38.2461
  0
LINE
  8
0
 10
-10.4057
 20
38.2461
 11
-10.2893
 21
38.6044
  0
LINE
  8
0
 10
-10.2893
 20
38.6044
 11
-10.1289
 21
38.9453
  0
LINE
  8
0
 10
-10.1289
 20
38.9453
 11
-9.92705
 21
39.2634
  0
LINE
  8
0
 10
-9.92705
 20
39.2634
 11
-9.6869
 21
39.5536
  0
LINE
  8
0
 10
-9.6869
 20
39.5536
 11
-9.41226
 21
39.8115
  0
LINE
  8
0
 10
-9.41226
 20
39.8115
 11
-9.10747
 21
40.033
  0
LINE
  8
0
 10
-9.10747
 20
40.033
 11
-8.77733
 21
40.2145
  0
LINE
  8
0
 10
-8.77733
 20
40.2145
 11
-8.42705
 21
40.3532
  0
LINE
  8
0
 10
-8.42705
 20
40.3532
 11
-8.06213
 21
40.4469
  0
LINE
  8
0
 10
-8.06213
 20
40.4469
 11
-7.68837
 21
40.4941
  0
LINE
  8
0
 10
-7.68837
 20
40.4941
 11
-7.31161
 21
40.4941
  0
LINE
  8
0
 10
-7.31161
 20
40.4941
 11
-6.93785
 21
40.4469
  0
LINE
  8
0
 10
-6.93785
 20
40.4469
 11
-6.57294
 21
40.3532
  0
LINE
  8
0
 10
-6.57294
 20
40.3532
 11
-6.22266
 21
40.2145
  0
LINE
  8
0
 10
-6.22266
 20
40.2145
 11
-5.89252
 21
40.033
  0
LINE
  8
0
 10
-5.89252
 20
40.033
 11
-5.58772
 21
39.8115
  0
LINE
  8
0
 10
-5.58772
 20
39.8115
 11
-5.31308
 21
39.5536
  0
LINE
  8
0
 10
-5.31308
 20
39.5536
 11
-5.07294
 21
39.2634
  0
LINE
  8
0
 10
-5.07294
 20
39.2634
 11
-4.87108
 21
38.9453
  0
LINE
  8
0
 10
-4.87108
 20
38.9453
 11
-4.71066
 21
38.6044
  0
LINE
  8
0
 10
-4.71066
 20
38.6044
 11
-4.59424
 21
38.2461
  0
LINE
  8
0
 10
-4.59424
 20
38.2461
 11
-4.52365
 21
37.876
  0
LINE
  8
0
 10
-4.52365
 20
37.876
 11
-4.5
 21
37.5
  0
LINE
  8
0
 10
-4.5
 20
37.5
 11
-4.52365
 21
37.124
  0
LINE
  8
0
 10
-4.52365
 20
37.124
 11
-4.59424
 21
36.7539
  0
LINE
  8
0
 10
-4.59424
 20
36.7539
 11
-4.71066
 21
36.3956
  0
LINE
  8
0
 10
-4.71066
 20
36.3956
 11
-4.87108
 21
36.0547
  0
LINE
  8
0
 10
-4.87108
 20
36.0547
 11
-4.90581
 21
36
  0
LINE
  8
0
 10
-4.90581
 20
36
 11
-4.90581
 21
33
  0
LINE
  8
0
 10
-4.90581
 20
33
 11
-2.19603
 21
33
  0
LINE
  8
0
 10
-2.19603
 20
33
 11
-2.19603
 21
27.6
  0
LINE
  8
0
 10
-2.19603
 20
27.6
 11
-4.90581
 21
27.6
  0
LINE
  8
0
 10
-4.90581
 20
27.6
 11
-4.90581
 21
24
  0
LINE
  8
0
 10
-4.90581
 20
24
 11
4.90581
 21
24
  0
LINE
  8
0
 10
4.90581
 20
24
 11
4.90581
 21
27.6
  0
LINE
  8
0
 10
4.90581
 20
27.6
 11
2.19603
 21
27.6
  0
LINE
  8
0
 10
2.19603
 20
27.6
 11
2.19603
 21
33
  0
LINE
  8
0
 10
2.19603
 20
33
 11
4.90581
 21
33
  0
LINE
  8
0
 10
4.90581
 20
33
 11
4.90581
 21
36
  0
LINE
  8
0
 10
4.90581
 20
36
 11
4.87108
 21
36.0547
  0
LINE
  8
0
 10
4.87108
 20
36.0547
 11
4.71066
 21
36.3956
  0
LINE
  8
0
 10
4.71066
 20
36.3956
 11
4.59424
 21
36.7539
  0
LINE
  8
0
 10
4.59424
 20
36.7539
 11
4.52365
 21
37.124
  0
LINE
  8
0
 10
4.52365
 20
37.124
 11
4.5
 21
37.5
  0
LINE
  8
0
 10
4.5
 20
37.5
 11
4.52365
 21
37.876
  0
LINE
  8
0
 10
4.52365
 20
37.876
 11
4.59424
 21
38.2461
  0
LINE
  8
0
 10
4.59424
 20
38.2461
 11
4.71066
 21
38.6044
  0
LINE
  8
0
 10
4.71066
 20
38.6044
 11
4.87108
 21
38.9453
  0
LINE
  8
0
 10
4.87108
 20
38.9453
 11
5.07294
 21
39.2634
  0
LINE
  8
0
 10
5.07294
 20
39.2634
 11
5.31308
 21
39.5536
  0
LINE
  8
0
 10
5.31308
 20
39.5536
 11
5.58772
 21
39.8115
  0
LINE
  8
0
 10
5.58772
 20
39.8115
 11
5.89252
 21
40.033
  0
LINE
  8
0
 10
5.89252
 20
40.033
 11
6.22266
 21
40.2145
  0
LINE
  8
0
 10
6.22266
 20
40.2145
 11
6.57294
 21
40.3532
  0
LINE
  8
0
 10
6.57294
 20
40.3532
 11
6.93785
 21
40.4469
  0
LINE
  8
0
 10
6.93785
 20
40.4469
 11
7.31161
 21
40.4941
  0
LINE
  8
0
 10
7.31161
 20
40.4941
 11
7.68837
 21
40.4941
  0
LINE
  8
0
 10
7.68837
 20
40.4941
 11
8.06213
 21
40.4469
  0
LINE
  8
0
 10
8.06213
 20
40.4469
 11
8.42705
 21
40.3532
  0
LINE
  8
0
 10
8.42705
 20
40.3532
 11
8.77733
 21
40.2145
  0
LINE
  8
0
 10
8.77733
 20
40.2145
 11
9.10747
 21
40.033
  0
LINE
  8
0
 10
9.10747
 20
40.033
 11
9.41226
 21
39.8115
  0
LINE
  8
0
 10
9.41226
 20
39.8115
 11
9.6869
 21
39.5536
  0
LINE
  8
0
 10
9.6869
 20
39.5536
 11
9.92705
 21
39.2634
  0
LINE
  8
0
 10
9.92705
 20
39.2634
 11
10.1289
 21
38.9453
  0
LINE
  8
0
 10
10.1289
 20
38.9453
 11
10.2893
 21
38.6044
  0
LINE
  8
0
 10
10.2893
 20
38.6044
 11
10.4057
 21
38.2461
  0
LINE
  8
0
 10
10.4057
 20
38.2461
 11
10.4763
 21
37.876
  0
LINE
  8
0
 10
10.4763
 20
37.876
 11
10.5
 21
37.5
  0
LINE
  8
0
 10
10.5
 20
37.5
 11
10.4763
 21
37.124
  0
LINE
  8
0
 10
10.4763
 20
37.124
 11
10.4057
 21
36.7539
  0
LINE
  8
0
 10
10.4057
 20
36.7539
 11
10.2893
 21
36.3956
  0
LINE
  8
0
 10
10.2893
 20
36.3956
 11
10.1289
 21
36.0547
  0
LINE
  8
0
 10
10.1289
 20
36.0547
 11
10.0942
 21
36
  0
LINE
  8
0
 10
10.0942
 20
36
 11
10.0942
 21
33
  0
LINE
  8
0
 10
10.0942
 20
33
 11
12.804
 21
33
  0
LINE
  8
0
 10
12.804
 20
33
 11
12.804
 21
27.6
  0
LINE
  8
0
 10
12.804
 20
27.6
 11
10.0942
 21
27.6
  0
LINE
  8
0
 10
10.0942
 20
27.6
 11
10.0942
 21
24
  0
LINE
  8
0
 10
10.0942
 20
24
 11
19.9058
 21
24
  0
LINE
  8
0
 10
19.9058
 20
24
 11
19.9058
 21
27.6
  0
LINE
  8
0
 10
19.9058
 20
27.6
 11
17.196
 21
27.6
  0
LINE
  8
0
 10
17.196
 20
27.6
 11
17.196
 21
33
  0
LINE
  8
0
 10
17.196
 20
33
 11
19.9058
 21
33
  0
LINE
  8
0
 10
19.9058
 20
33
 11
19.9058
 21
36
  0
LINE
  8
0
 10
19.9058
 20
36
 11
19.8711
 21
36.0547
  0
LINE
  8
0
 10
19.8711
 20
36.0547
 11
19.7107
 21
36.3956
  0
LINE
  8
0
 10
19.7107
 20
36.3956
 11
19.5942
 21
36.7539
  0
LINE
  8
0
 10
19.5942
 20
36.7539
 11
19.5237
 21
37.124
  0
LINE
  8
0
 10
19.5237
 20
37.124
 11
19.5
 21
37.5
  0
LINE
  8
0
 10
19.5
 20
37.5
 11
19.5237
 21
37.876
  0
LINE
  8
0
 10
19.5237
 20
37.876
 11
19.5942
 21
38.2461
  0
LINE
  8
0
 10
19.5942
 20
38.2461
 11
19.7107
 21
38.6044
  0
LINE
  8
0
 10
19.7107
 20
38.6044
 11
19.8711
 21
38.9453
  0
LINE
  8
0
 10
19.8711
 20
38.9453
 11
20.0729
 21
39.2634
  0
LINE
  8
0
 10
20.0729
 20
39.2634
 11
20.3131
 21
39.5536
  0
LINE
  8
0
 10
20.3131
 20
39.5536
 11
20.5877
 21
39.8115
  0
LINE
  8
0
 10
20.5877
 20
39.8115
 11
20.8925
 21
40.033
  0
LINE
  8
0
 10
20.8925
 20
40.033
 11
21.2227
 21
40.2145
  0
LINE
  8
0
 10
21.2227
 20
40.2145
 11
21.5729
 21
40.3532
  0
LINE
  8
0
 10
21.5729
 20
40.3532
 11
21.9379
 21
40.4469
  0
LINE
  8
0
 10
21.9379
 20
40.4469
 11
22.3116
 21
40.4941
  0
LINE
  8
0
 10
22.3116
 20
40.4941
 11
22.6884
 21
40.4941
  0
LINE
  8
0
 10
22.6884
 20
40.4941
 11
23.0621
 21
40.4469
  0
LINE
  8
0
 10
23.0621
 20
40.4469
 11
23.427
 21
40.3532
  0
LINE
  8
0
 10
23.427
 20
40.3532
 11
23.7773
 21
40.2145
  0
LINE
  8
0
 10
23.7773
 20
40.2145
 11
24.1075
 21
40.033
  0
LINE
  8
0
 10
24.1075
 20
40.033
 11
24.4123
 21
39.8115
  0
LINE
  8
0
 10
24.4123
 20
39.8115
 11
24.6869
 21
39.5536
  0
LINE
  8
0
 10
24.6869
 20
39.5536
 11
24.927
 21
39.2634
  0
LINE
  8
0
 10
24.927
 20
39.2634
 11
25.1289
 21
38.9453
  0
LINE
  8
0
 10
25.1289
 20
38.9453
 11
25.2893
 21
38.6044
  0
LINE
  8
0
 10
25.2893
 20
38.6044
 11
25.4057
 21
38.2461
  0
LINE
  8
0
 10
25.4057
 20
38.2461
 11
25.4763
 21
37.876
  0
LINE
  8
0
 10
25.4763
 20
37.876
 11
25.5
 21
37.5
  0
LINE
  8
0
 10
25.5
 20
37.5
 11
25.4763
 21
37.124
  0
LINE
  8
0
 10
25.4763
 20
37.124
 11
25.4057
 21
36.7539
  0
LINE
  8
0
 10
25.4057
 20
36.7539
 11
25.2893
 21
36.3956
  0
LINE
  8
0
 10
25.2893
 20
36.3956
 11
25.1289
 21
36.0547
  0
LINE
  8
0
 10
25.1289
 20
36.0547
 11
25.0942
 21
36
  0
LINE
  8
0
 10
25.0942
 20
36
 11
25.0942
 21
33
  0
LINE
  8
0
 10
25.0942
 20
33
 11
27.804
 21
33
  0
LINE
  8
0
 10
27.804
 20
33
 11
27.804
 21
27.6
  0
LINE
  8
0
 10
27.804
 20
27.6
 11
25.0942
 21
27.6
  0
LINE
  8
0
 10
25.0942
 20
27.6
 11
25.0942
 21
24
  0
LINE
  8
0
 10
25.0942
 20
24
 11
34.9058
 21
24
  0
LINE
  8
0
 10
34.9058
 20
24
 11
34.9058
 21
27.6
  0
LINE
  8
0
 10
34.9058
 20
27.6
 11
32.196
 21
27.6
  0
LINE
  8
0
 10
32.196
 20
27.6
 11
32.196
 21
33
  0
LINE
  8
0
 10
32.196
 20
33
 11
34.9058
 21
33
  0
LINE
  8
0
 10
34.9058
 20
33
 11
34.9058
 21
36
  0
LINE
  8
0
 10
34.9058
 20
36
 11
34.8711
 21
36.0547
  0
LINE
  8
0
 10
34.8711
 20
36.0547
 11
34.7107
 21
36.3956
  0
LINE
  8
0
 10
34.7107
 20
36.3956
 11
34.5942
 21
36.7539
  0
LINE
  8
0
 10
34.5942
 20
36.7539
 11
34.5237
 21
37.124
  0
LINE
  8
0
 10
34.5237
 20
37.124
 11
34.5
 21
37.5
  0
LINE
  8
0
 10
34.5
 20
37.5
 11
34.5237
 21
37.876
  0
LINE
  8
0
 10
34.5237
 20
37.876
 11
34.5942
 21
38.2461
  0
LINE
  8
0
 10
34.5942
 20
38.2461
 11
34.7107
 21
38.6044
  0
LINE
  8
0
 10
34.7107
 20
38.6044
 11
34.8711
 21
38.9453
  0
LINE
  8
0
 10
34.8711
 20
38.9453
 11
35.0729
 21
39.2634
  0
LINE
  8
0
 10
35.0729
 20
39.2634
 11
35.3131
 21
39.5536
  0
LINE
  8
0
 10
35.3131
 20
39.5536
 11
35.5877
 21
39.8115
  0
LINE
  8
0
 10
35.5877
 20
39.8115
 11
35.8925
 21
40.033
  0
LINE
  8
0
 10
35.8925
 20
40.033
 11
36.2227
 21
40.2145
  0
LINE
  8
0
 10
36.2227
 20
40.2145
 11
36.5729
 21
40.3532
  0
LINE
  8
0
 10
36.5729
 20
40.3532
 11
36.9379
 21
40.4469
  0
LINE
  8
0
 10
36.9379
 20
40.4469
 11
37.3116
 21
40.4941
  0
LINE
  8
0
 10
37.3116
 20
40.4941
 11
37.6884
 21
40.4941
  0
LINE
  8
0
 10
37.6884
 20
40.4941
 11
38.0621
 21
40.4469
  0
LINE
  8
0
 10
38.0621
 20
40.4469
 11
38.427
 21
40.3532
  0
LINE
  8
0
 10
38.427
 20
40.3532
 11
38.7773
 21
40.2145
  0
LINE
  8
0
 10
38.7773
 20
40.2145
 11
39.1075
 21
40.033
  0
LINE
  8
0
 10
39.1075
 20
40.033
 11
39.4123
 21
39.8115
  0
LINE
  8
0
 10
39.4123
 20
39.8115
 11
39.6869
 21
39.5536
  0
LINE
  8
0
 10
39.6869
 20
39.5536
 11
39.927
 21
39.2634
  0
LINE
  8
0
 10
39.927
 20
39.2634
 11
40.1289
 21
38.9453
  0
LINE
  8
0
 10
40.1289
 20
38.9453
 11
40.2893
 21
38.6044
  0
LINE
  8
0
 10
40.2893
 20
38.6044
 11
40.4057
 21
38.2461
  0
LINE
  8
0
 10
40.4057
 20
38.2461
 11
40.4763
 21
37.876
  0
LINE
  8
0
 10
40.4763
 20
37.876
 11
40.5
 21
37.5
  0
LINE
  8
0
 10
40.5
 20
37.5
 11
40.4763
 21
37.124
  0
LINE
  8
0
 10
40.4763
 20
37.124
 11
40.4057
 21
36.7539
  0
LINE
  8
0
 10
40.4057
 20
36.7539
 11
40.2893
 21
36.3956
  0
LINE
  8
0
 10
40.2893
 20
36.3956
 11
40.1289
 21
36.0547
  0
LINE
  8
0
 10
40.1289
 20
36.0547
 11
40.0942
 21
36
  0
LINE
  8
0
 10
40.0942
 20
36
 11
40.0942
 21
33
  0
LINE
  8
0
 10
40.0942
 20
33
 11
42.804
 21
33
  0
LINE
  8
0
 10
42.804
 20
33
 11
42.804
 21
27.6
  0
LINE
  8
0
 10
42.804
 20
27.6
 11
40.0942
 21
27.6
  0
LINE
  8
0
 10
40.0942
 20
27.6
 11
40.0942
 21
24
  0
LINE
  8
0
 10
40.0942
 20
24
 11
49.9058
 21
24
  0
LINE
  8
0
 10
49.9058
 20
24
 11
49.9058
 21
27.6
  0
LINE
  8
0
 10
49.9058
 20
27.6
 11
47.196
 21
27.6
  0
LINE
  8
0
 10
47.196
 20
27.6
 11
47.196
 21
33
  0
LINE
  8
0
 10
47.196
 20
33
 11
49.9058
 21
33
  0
LINE
  8
0
 10
49.9058
 20
33
 11
49.9058
 21
36
  0
LINE
  8
0
 10
49.9058
 20
36
 11
49.8711
 21
36.0547
  0
LINE
  8
0
 10
49.8711
 20
36.0547
 11
49.7107
 21
36.3956
  0
LINE
  8
0
 10
49.7107
 20
36.3956
 11
49.5942
 21
36.7539
  0
LINE
  8
0
 10
49.5942
 20
36.7539
 11
49.5237
 21
37.124
  0
LINE
  8
0
 10
49.5237
 20
37.124
 11
49.5
 21
37.5
  0
LINE
  8
0
 10
49.5
 20
37.5
 11
49.5237
 21
37.876
  0
LINE
  8
0
 10
49.5237
 20
37.876
 11
49.5942
 21
38.2461
  0
LINE
  8
0
 10
49.5942
 20
38.2461
 11
49.7107
 21
38.6044
  0
LINE
  8
0
 10
49.7107
 20
38.6044
 11
49.8711
 21
38.9453
  0
LINE
  8
0
 10
49.8711
 20
38.9453
 11
50.0729
 21
39.2634
  0
LINE
  8
0
 10
50.0729
 20
39.2634
 11
50.3131
 21
39.5536
  0
LINE
  8
0
 10
50.3131
 20
39.5536
 11
50.5877
 21
39.8115
  0
LINE
  8
0
 10
50.5877
 20
39.8115
 11
50.8925
 21
40.033
  0
LINE
  8
0
 10
50.8925
 20
40.033
 11
51.2227
 21
40.2145
  0
LINE
  8
0
 10
51.2227
 20
40.2145
 11
51.5729
 21
40.3532
  0
LINE
  8
0
 10
51.5729
 20
40.3532
 11
51.9379
 21
40.4469
  0
LINE
  8
0
 10
51.9379
 20
40.4469
 11
52.3116
 21
40.4941
  0
LINE
  8
0
 10
52.3116
 20
40.4941
 11
52.6884
 21
40.4941
  0
LINE
  8
0
 10
52.6884
 20
40.4941
 11
53.0621
 21
40.4469
  0
LINE
  8
0
 10
53.0621
 20
40.4469
 11
53.427
 21
40.3532
  0
LINE
  8
0
 10
53.427
 20
40.3532
 11
53.7773
 21
40.2145
  0
LINE
  8
0
 10
53.7773
 20
40.2145
 11
54.1075
 21
40.033
  0
LINE
  8
0
 10
54.1075
 20
40.033
 11
54.4123
 21
39.8115
  0
LINE
  8
0
 10
54.4123
 20
39.8115
 11
54.6869
 21
39.5536
  0
LINE
  8
0
 10
54.6869
 20
39.5536
 11
54.927
 21
39.2634
  0
LINE
  8
0
 10
54.927
 20
39.2634
 11
55.1289
 21
38.9453
  0
LINE
  8
0
 10
55.1289
 20
38.9453
 11
55.2893
 21
38.6044
  0
LINE
  8
0
 10
55.2893
 20
38.6044
 11
55.4057
 21
38.2461
  0
LINE
  8
0
 10
55.4057
 20
38.2461
 11
55.4763
 21
37.876
  0
LINE
  8
0
 10
55.4763
 20
37.876
 11
55.5
 21
37.5
  0
LINE
  8
0
 10
55.5
 20
37.5
 11
55.4763
 21
37.124
  0
LINE
  8
0
 10
55.4763
 20
37.124
 11
55.4057
 21
36.7539
  0
LINE
  8
0
 10
55.4057
 20
36.7539
 11
55.2893
 21
36.3956
  0
LINE
  8
0
 10
55.2893
 20
36.3956
 11
55.1289
 21
36.0547
  0
LINE
  8
0
 10
55.1289
 20
36.0547
 11
55.0942
 21
36
  0
LINE
  8
0
 10
55.0942
 20
36
 11
55.0942
 21
33
  0
LINE
  8
0
 10
55.0942
 20
33
 11
57.804
 21
33
  0
LINE
  8
0
 10
57.804
 20
33
 11
57.804
 21
27.6
  0
LINE
  8
0
 10
57.804
 20
27.6
 11
55.0942
 21
27.6
  0
LINE
  8
0
 10
55.0942
 20
27.6
 11
55.0942
 21
24
  0
LINE
  8
0
 10
55.0942
 20
24
 11
59.5
 21
24
  0
LINE
  8
0
 10
59.5
 20
24
 11
59.5
 21
39.5
  0
LINE
  8
0
 10
59.5
 20
39.5
 11
59.4606
 21
40.1267
  0
LINE
  8
0
 10
59.4606
 20
40.1267
 11
59.3429
 21
40.7434
  0
LINE
  8
0
 10
59.3429
 20
40.7434
 11
59.1489
 21
41.3406
  0
LINE
  8
0
 10
59.1489
 20
41.3406
 11
58.8815
 21
41.9088
  0
LINE
  8
0
 10
58.8815
 20
41.9088
 11
58.5451
 21
42.4389
  0
LINE
  8
0
 10
58.5451
 20
42.4389
 11
58.1448
 21
42.9227
  0
LINE
  8
0
 10
58.1448
 20
42.9227
 11
57.6871
 21
43.3526
  0
LINE
  8
0
 10
57.6871
 20
43.3526
 11
57.1791
 21
43.7216
  0
LINE
  8
0
 10
57.1791
 20
43.7216
 11
56.6289
 21
44.0241
  0
LINE
  8
0
 10
56.6289
 20
44.0241
 11
56.0451
 21
44.2553
  0
LINE
  8
0
 10
56.0451
 20
44.2553
 11
55.4369
 21
44.4114
  0
LINE
  8
0
 10
55.4369
 20
44.4114
 11
54.8139
 21
44.4901
  0
LINE
  8
0
 10
54.8139
 20
44.4901
 11
-54.8139
 21
44.4901
  0
LINE
  8
0
 10
-54.8139
 20
44.4901
 11
-55.4369
 21
44.4114
  0
LINE
  8
0
 10
-55.4369
 20
44.4114
 11
-56.0451
 21
44.2553
  0
LINE
  8
0
 10
-56.0451
 20
44.2553
 11
-56.6289
 21
44.0241
  0
LINE
  8
0
 10
-56.6289
 20
44.0241
 11
-57.1791
 21
43.7216
  0
LINE
  8
0
 10
-57.1791
 20
43.7216
 11
-57.6871
 21
43.3526
  0
LINE
  8
0
 10
-57.6871
 20
43.3526
 11
-58.1448
 21
42.9227
  0
LINE
  8
0
 10
-58.1448
 20
42.9227
 11
-58.5451
 21
42.4389
  0
LINE
  8
0
 10
-58.5451
 20
42.4389
 11
-58.8815
 21
41.9088
  0
LINE
  8
0
 10
-58.8815
 20
41.9088
 11
-59.1489
 21
41.3406
  0
LINE
  8
0
 10
-59.1489
 20
41.3406
 11
-59.3429
 21
40.7434
  0
LINE
  8
0
 10
-59.3429
 20
40.7434
 11
-59.4606
 21
40.1267
  0
LINE
  8
0
 10
-59.4606
 20
40.1267
 11
-59.5
 21
39.5
  0
LINE
  8
0
 10
-59.5
 20
39.5
 11
-59.5
 21
24
  0
LINE
  8
0
 10
-59.5
 20
24
 11
-55.0942
 21
24
  0
LINE
  8
0
 10
-55.0942
 20
24
 11
-55.0942
 21
27.6
  0
LINE
  8
0
 10
14.9058
 20
36.0029
 11
14.7189
 21
36.0266
  0
LINE
  8
0
 10
14.7189
 20
36.0266
 11
14.5365
 21
36.0734
  0
LINE
  8
0
 10
14.5365
 20
36.0734
 11
14.3613
 21
36.1427
  0
LINE
  8
0
 10
14.3613
 20
36.1427
 11
14.1963
 21
36.2335
  0
LINE
  8
0
 10
14.1963
 20
36.2335
 11
14.0439
 21
36.3442
  0
LINE
  8
0
 10
14.0439
 20
36.3442
 11
13.9065
 21
36.4732
  0
LINE
  8
0
 10
13.9065
 20
36.4732
 11
13.7865
 21
36.6183
  0
LINE
  8
0
 10
13.7865
 20
36.6183
 11
13.6855
 21
36.7774
  0
LINE
  8
0
 10
13.6855
 20
36.7774
 11
13.6053
 21
36.9478
  0
LINE
  8
0
 10
13.6053
 20
36.9478
 11
13.5471
 21
37.127
  0
LINE
  8
0
 10
13.5471
 20
37.127
 11
13.5118
 21
37.312
  0
LINE
  8
0
 10
13.5118
 20
37.312
 11
13.5
 21
37.5
  0
LINE
  8
0
 10
13.5
 20
37.5
 11
13.5118
 21
37.688
  0
LINE
  8
0
 10
13.5118
 20
37.688
 11
13.5471
 21
37.873
  0
LINE
  8
0
 10
13.5471
 20
37.873
 11
13.6053
 21
38.0522
  0
LINE
  8
0
 10
13.6053
 20
38.0522
 11
13.6855
 21
38.2226
  0
LINE
  8
0
 10
13.6855
 20
38.2226
 11
13.7865
 21
38.3817
  0
LINE
  8
0
 10
13.7865
 20
38.3817
 11
13.9065
 21
38.5268
  0
LINE
  8
0
 10
13.9065
 20
38.5268
 11
14.0439
 21
38.6558
  0
LINE
  8
0
 10
14.0439
 20
38.6558
 11
14.1963
 21
38.7665
  0
LINE
  8
0
 10
14.1963
 20
38.7665
 11
14.3613
 21
38.8572
  0
LINE
  8
0
 10
14.3613
 20
38.8572
 11
14.5365
 21
38.9266
  0
LINE
  8
0
 10
14.5365
 20
38.9266
 11
14.7189
 21
38.9734
  0
LINE
  8
0
 10
14.7189
 20
38.9734
 11
14.9058
 21
38.997
  0
LINE
  8
0
 10
14.9058
 20
38.997
 11
15.0942
 21
38.997
  0
LINE
  8
0
 10
15.0942
 20
38.997
 11
15.2811
 21
38.9734
  0
LINE
  8
0
 10
15.2811
 20
38.9734
 11
15.4635
 21
38.9266
  0
LINE
  8
0
 10
15.4635
 20
38.9266
 11
15.6387
 21
38.8572
  0
LINE
  8
0
 10
15.6387
 20
38.8572
 11
15.8037
 21
38.7665
  0
LINE
  8
0
 10
15.8037
 20
38.7665
 11
15.9561
 21
38.6558
  0
LINE
  8
0
 10
15.9561
 20
38.6558
 11
16.0934
 21
38.5268
  0
LINE
  8
0
 10
16.0934
 20
38.5268
 11
16.2135
 21
38.3817
  0
LINE
  8
0
 10
16.2135
 20
38.3817
 11
16.3145
 21
38.2226
  0
LINE
  8
0
 10
16.3145
 20
38.2226
 11
16.3947
 21
38.0522
  0
LINE
  8
0
 10
16.3947
 20
38.0522
 11
16.4529
 21
37.873
  0
LINE
  8
0
 10
16.4529
 20
37.873
 11
16.4882
 21
37.688
  0
LINE
  8
0
 10
16.4882
 20
37.688
 11
16.5
 21
37.5
  0
LINE
  8
0
 10
16.5
 20
37.5
 11
16.4882
 21
37.312
  0
LINE
  8
0
 10
16.4882
 20
37.312
 11
16.4529
 21
37.127
  0
LINE
  8
0
 10
16.4529
 20
37.127
 11
16.3947
 21
36.9478
  0
LINE
  8
0
 10
16.3947
 20
36.9478
 11
16.3145
 21
36.7774
  0
LINE
  8
0
 10
16.3145
 20
36.7774
 11
16.2135
 21
36.6183
  0
LINE
  8
0
 10
16.2135
 20
36.6183
 11
16.0934
 21
36.4732
  0
LINE
  8
0
 10
16.0934
 20
36.4732
 11
15.9561
 21
36.3442
  0
LINE
  8
0
 10
15.9561
 20
36.3442
 11
15.8037
 21
36.2335
  0
LINE
  8
0
 10
15.8037
 20
36.2335
 11
15.6387
 21
36.1427
  0
LINE
  8
0
 10
15.6387
 20
36.1427
 11
15.4635
 21
36.0734
  0
LINE
  8
0
 10
15.4635
 20
36.0734
 11
15.2811
 21
36.0266
  0
LINE
  8
0
 10
15.2811
 20
36.0266
 11
15.0942
 21
36.0029
  0
LINE
  8
0
 10
15.0942
 20
36.0029
 11
14.9058
 21
36.0029
  0
LINE
  8
0
 10
44.9058
 20
36.0029
 11
44.7189
 21
36.0266
  0
LINE
  8
0
 10
44.7189
 20
36.0266
 11
44.5365
 21
36.0734
  0
LINE
  8
0
 10
44.5365
 20
36.0734
 11
44.3613
 21
36.1427
  0
LINE
  8
0
 10
44.3613
 20
36.1427
 11
44.1963
 21
36.2335
  0
LINE
  8
0
 10
44.1963
 20
36.2335
 11
44.0439
 21
36.3442
  0
LINE
  8
0
 10
44.0439
 20
36.3442
 11
43.9065
 21
36.4732
  0
LINE
  8
0
 10
43.9065
 20
36.4732
 11
43.7865
 21
36.6183
  0
LINE
  8
0
 10
43.7865
 20
36.6183
 11
43.6855
 21
36.7774
  0
LINE
  8
0
 10
43.6855
 20
36.7774
 11
43.6053
 21
36.9478
  0
LINE
  8
0
 10
43.6053
 20
36.9478
 11
43.5471
 21
37.127
  0
LINE
  8
0
 10
43.5471
 20
37.127
 11
43.5118
 21
37.312
  0
LINE
  8
0
 10
43.5118
 20
37.312
 11
43.5
 21
37.5
  0
LINE
  8
0
 10
43.5
 20
37.5
 11
43.5118
 21
37.688
  0
LINE
  8
0
 10
43.5118
 20
37.688
 11
43.5471
 21
37.873
  0
LINE
  8
0
 10
43.5471
 20
37.873
 11
43.6053
 21
38.0522
  0
LINE
  8
0
 10
43.6053
 20
38.0522
 11
43.6855
 21
38.2226
  0
LINE
  8
0
 10
43.6855
 20
38.2226
 11
43.7865
 21
38.3817
  0
LINE
  8
0
 10
43.7865
 20
38.3817
 11
43.9065
 21
38.5268
  0
LINE
  8
0
 10
43.9065
 20
38.5268
 11
44.0439
 21
38.6558
  0
LINE
  8
0
 10
44.0439
 20
38.6558
 11
44.1963
 21
38.7665
  0
LINE
  8
0
 10
44.1963
 20
38.7665
 11
44.3613
 21
38.8572
  0
LINE
  8
0
 10
44.3613
 20
38.8572
 11
44.5365
 21
38.9266
  0
LINE
  8
0
 10
44.5365
 20
38.9266
 11
44.7189
 21
38.9734
  0
LINE
  8
0
 10
44.7189
 20
38.9734
 11
44.9058
 21
38.997
  0
LINE
  8
0
 10
44.9058
 20
38.997
 11
45.0942
 21
38.997
  0
LINE
  8
0
 10
45.0942
 20
38.997
 11
45.2811
 21
38.9734
  0
LINE
  8
0
 10
45.2811
 20
38.9734
 11
45.4635
 21
38.9266
  0
LINE
  8
0
 10
45.4635
 20
38.9266
 11
45.6387
 21
38.8572
  0
LINE
  8
0
 10
45.6387
 20
38.8572
 11
45.8037
 21
38.7665
  0
LINE
  8
0
 10
45.8037
 20
38.7665
 11
45.9561
 21
38.6558
  0
LINE
  8
0
 10
45.9561
 20
38.6558
 11
46.0934
 21
38.5268
  0
LINE
  8
0
 10
46.0934
 20
38.5268
 11
46.2135
 21
38.3817
  0
LINE
  8
0
 10
46.2135
 20
38.3817
 11
46.3145
 21
38.2226
  0
LINE
  8
0
 10
46.3145
 20
38.2226
 11
46.3947
 21
38.0522
  0
LINE
  8
0
 10
46.3947
 20
38.0522
 11
46.4529
 21
37.873
  0
LINE
  8
0
 10
46.4529
 20
37.873
 11
46.4882
 21
37.688
  0
LINE
  8
0
 10
46.4882
 20
37.688
 11
46.5
 21
37.5
  0
LINE
  8
0
 10
46.5
 20
37.5
 11
46.4882
 21
37.312
  0
LINE
  8
0
 10
46.4882
 20
37.312
 11
46.4529
 21
37.127
  0
LINE
  8
0
 10
46.4529
 20
37.127
 11
46.3947
 21
36.9478
  0
LINE
  8
0
 10
46.3947
 20
36.9478
 11
46.3145
 21
36.7774
  0
LINE
  8
0
 10
46.3145
 20
36.7774
 11
46.2135
 21
36.6183
  0
LINE
  8
0
 10
46.2135
 20
36.6183
 11
46.0934
 21
36.4732
  0
LINE
  8
0
 10
46.0934
 20
36.4732
 11
45.9561
 21
36.3442
  0
LINE
  8
0
 10
45.9561
 20
36.3442
 11
45.8037
 21
36.2335
  0
LINE
  8
0
 10
45.8037
 20
36.2335
 11
45.6387
 21
36.1427
  0
LINE
  8
0
 10
45.6387
 20
36.1427
 11
45.4635
 21
36.0734
  0
LINE
  8
0
 10
45.4635
 20
36.0734
 11
45.2811
 21
36.0266
  0
LINE
  8
0
 10
45.2811
 20
36.0266
 11
45.0942
 21
36.0029
  0
LINE
  8
0
 10
45.0942
 20
36.0029
 11
44.9058
 21
36.0029
  0
LINE
  8
0
 10
-15.0942
 20
36.0029
 11
-15.2811
 21
36.0266
  0
LINE
  8
0
 10
-15.2811
 20
36.0266
 11
-15.4635
 21
36.0734
  0
LINE
  8
0
 10
-15.4635
 20
36.0734
 11
-15.6387
 21
36.1427
  0
LINE
  8
0
 10
-15.6387
 20
36.1427
 11
-15.8037
 21
36.2335
  0
LINE
  8
0
 10
-15.8037
 20
36.2335
 11
-15.9561
 21
36.3442
  0
LINE
  8
0
 10
-15.9561
 20
36.3442
 11
-16.0934
 21
36.4732
  0
LINE
  8
0
 10
-16.0934
 20
36.4732
 11
-16.2135
 21
36.6183
  0
LINE
  8
0
 10
-16.2135
 20
36.6183
 11
-16.3145
 21
36.7774
  0
LINE
  8
0
 10
-16.3145
 20
36.7774
 11
-16.3947
 21
36.9478
  0
LINE
  8
0
 10
-16.3947
 20
36.9478
 11
-16.4529
 21
37.127
  0
LINE
  8
0
 10
-16.4529
 20
37.127
 11
-16.4882
 21
37.312
  0
LINE
  8
0
 10
-16.4882
 20
37.312
 11
-16.5
 21
37.5
  0
LINE
  8
0
 10
-16.5
 20
37.5
 11
-16.4882
 21
37.688
  0
LINE
  8
0
 10
-16.4882
 20
37.688
 11
-16.4529
 21
37.873
  0
LINE
  8
0
 10
-16.4529
 20
37.873
 11
-16.3947
 21
38.0522
  0
LINE
  8
0
 10
-16.3947
 20
38.0522
 11
-16.3145
 21
38.2226
  0
LINE
  8
0
 10
-16.3145
 20
38.2226
 11
-16.2135
 21
38.3817
  0
LINE
  8
0
 10
-16.2135
 20
38.3817
 11
-16.0934
 21
38.5268
  0
LINE
  8
0
 10
-16.0934
 20
38.5268
 11
-15.9561
 21
38.6558
  0
LINE
  8
0
 10
-15.9561
 20
38.6558
 11
-15.8037
 21
38.7665
  0
LINE
  8
0
 10
-15.8037
 20
38.7665
 11
-15.6387
 21
38.8572
  0
LINE
  8
0
 10
-15.6387
 20
38.8572
 11
-15.4635
 21
38.9266
  0
LINE
  8
0
 10
-15.4635
 20
38.9266
 11
-15.2811
 21
38.9734
  0
LINE
  8
0
 10
-15.2811
 20
38.9734
 11
-15.0942
 21
38.997
  0
LINE
  8
0
 10
-15.0942
 20
38.997
 11
-14.9058
 21
38.997
  0
LINE
  8
0
 10
-14.9058
 20
38.997
 11
-14.7189
 21
38.9734
  0
LINE
  8
0
 10
-14.7189
 20
38.9734
 11
-14.5365
 21
38.9266
  0
LINE
  8
0
 10
-14.5365
 20
38.9266
 11
-14.3613
 21
38.8572
  0
LINE
  8
0
 10
-14.3613
 20
38.8572
 11
-14.1963
 21
38.7665
  0
LINE
  8
0
 10
-14.1963
 20
38.7665
 11
-14.0439
 21
38.6558
  0
LINE
  8
0
 10
-14.0439
 20
38.6558
 11
-13.9065
 21
38.5268
  0
LINE
  8
0
 10
-13.9065
 20
38.5268
 11
-13.7865
 21
38.3817
  0
LINE
  8
0
 10
-13.7865
 20
38.3817
 11
-13.6855
 21
38.2226
  0
LINE
  8
0
 10
-13.6855
 20
38.2226
 11
-13.6053
 21
38.0522
  0
LINE
  8
0
 10
-13.6053
 20
38.0522
 11
-13.5471
 21
37.873
  0
LINE
  8
0
 10
-13.5471
 20
37.873
 11
-13.5118
 21
37.688
  0
LINE
  8
0
 10
-13.5118
 20
37.688
 11
-13.5
 21
37.5
  0
LINE
  8
0
 10
-13.5
 20
37.5
 11
-13.5118
 21
37.312
  0
LINE
  8
0
 10
-13.5118
 20
37.312
 11
-13.5471
 21
37.127
  0
LINE
  8
0
 10
-13.5471
 20
37.127
 11
-13.6053
 21
36.9478
  0
LINE
  8
0
 10
-13.6053
 20
36.9478
 11
-13.6855
 21
36.7774
  0
LINE
  8
0
 10
-13.6855
 20
36.7774
 11
-13.7865
 21
36.6183
  0
LINE
  8
0
 10
-13.7865
 20
36.6183
 11
-13.9065
 21
36.4732
  0
LINE
  8
0
 10
-13.9065
 20
36.4732
 11
-14.0439
 21
36.3442
  0
LINE
  8
0
 10
-14.0439
 20
36.3442
 11
-14.1963
 21
36.2335
  0
LINE
  8
0
 10
-14.1963
 20
36.2335
 11
-14.3613
 21
36.1427
  0
LINE
  8
0
 10
-14.3613
 20
36.1427
 11
-14.5365
 21
36.0734
  0
LINE
  8
0
 10
-14.5365
 20
36.0734
 11
-14.7189
 21
36.0266
  0
LINE
  8
0
 10
-14.7189
 20
36.0266
 11
-14.9058
 21
36.0029
  0
LINE
  8
0
 10
-14.9058
 20
36.0029
 11
-15.0942
 21
36.0029
  0
LINE
  8
0
 10
-30.0942
 20
36.0029
 11
-30.2811
 21
36.0266
  0
LINE
  8
0
 10
-30.2811
 20
36.0266
 11
-30.4635
 21
36.0734
  0
LINE
  8
0
 10
-30.4635
 20
36.0734
 11
-30.6387
 21
36.1427
  0
LINE
  8
0
 10
-30.6387
 20
36.1427
 11
-30.8037
 21
36.2335
  0
LINE
  8
0
 10
-30.8037
 20
36.2335
 11
-30.9561
 21
36.3442
  0
LINE
  8
0
 10
-30.9561
 20
36.3442
 11
-31.0934
 21
36.4732
  0
LINE
  8
0
 10
-31.0934
 20
36.4732
 11
-31.2135
 21
36.6183
  0
LINE
  8
0
 10
-31.2135
 20
36.6183
 11
-31.3145
 21
36.7774
  0
LINE
  8
0
 10
-31.3145
 20
36.7774
 11
-31.3947
 21
36.9478
  0
LINE
  8
0
 10
-31.3947
 20
36.9478
 11
-31.4529
 21
37.127
  0
LINE
  8
0
 10
-31.4529
 20
37.127
 11
-31.4882
 21
37.312
  0
LINE
  8
0
 10
-31.4882
 20
37.312
 11
-31.5
 21
37.5
  0
LINE
  8
0
 10
-31.5
 20
37.5
 11
-31.4882
 21
37.688
  0
LINE
  8
0
 10
-31.4882
 20
37.688
 11
-31.4529
 21
37.873
  0
LINE
  8
0
 10
-31.4529
 20
37.873
 11
-31.3947
 21
38.0522
  0
LINE
  8
0
 10
-31.3947
 20
38.0522
 11
-31.3145
 21
38.2226
  0
LINE
  8
0
 10
-31.3145
 20
38.2226
 11
-31.2135
 21
38.3817
  0
LINE
  8
0
 10
-31.2135
 20
38.3817
 11
-31.0934
 21
38.5268
  0
LINE
  8
0
 10
-31.0934
 20
38.5268
 11
-30.9561
 21
38.6558
  0
LINE
  8
0
 10
-30.9561
 20
38.6558
 11
-30.8037
 21
38.7665
  0
LINE
  8
0
 10
-30.8037
 20
38.7665
 11
-30.6387
 21
38.8572
  0
LINE
  8
0
 10
-30.6387
 20
38.8572
 11
-30.4635
 21
38.9266
  0
LINE
  8
0
 10
-30.4635
 20
38.9266
 11
-30.2811
 21
38.9734
  0
LINE
  8
0
 10
-30.2811
 20
38.9734
 11
-30.0942
 21
38.997
  0
LINE
  8
0
 10
-30.0942
 20
38.997
 11
-29.9058
 21
38.997
  0
LINE
  8
0
 10
-29.9058
 20
38.997
 11
-29.7189
 21
38.9734
  0
LINE
  8
0
 10
-29.7189
 20
38.9734
 11
-29.5365
 21
38.9266
  0
LINE
  8
0
 10
-29.5365
 20
38.9266
 11
-29.3613
 21
38.8572
  0
LINE
  8
0
 10
-29.3613
 20
38.8572
 11
-29.1963
 21
38.7665
  0
LINE
  8
0
 10
-29.1963
 20
38.7665
 11
-29.0439
 21
38.6558
  0
LINE
  8
0
 10
-29.0439
 20
38.6558
 11
-28.9065
 21
38.5268
  0
LINE
  8
0
 10
-28.9065
 20
38.5268
 11
-28.7865
 21
38.3817
  0
LINE
  8
0
 10
-28.7865
 20
38.3817
 11
-28.6855
 21
38.2226
  0
LINE
  8
0
 10
-28.6855
 20
38.2226
 11
-28.6053
 21
38.0522
  0
LINE
  8
0
 10
-28.6053
 20
38.0522
 11
-28.5471
 21
37.873
  0
LINE
  8
0
 10
-28.5471
 20
37.873
 11
-28.5118
 21
37.688
  0
LINE
  8
0
 10
-28.5118
 20
37.688
 11
-28.5
 21
37.5
  0
LINE
  8
0
 10
-28.5
 20
37.5
 11
-28.5118
 21
37.312
  0
LINE
  8
0
 10
-28.5118
 20
37.312
 11
-28.5471
 21
37.127
  0
LINE
  8
0
 10
-28.5471
 20
37.127
 11
-28.6053
 21
36.9478
  0
LINE
  8
0
 10
-28.6053
 20
36.9478
 11
-28.6855
 21
36.7774
  0
LINE
  8
0
 10
-28.6855
 20
36.7774
 11
-28.7865
 21
36.6183
  0
LINE
  8
0
 10
-28.7865
 20
36.6183
 11
-28.9065
 21
36.4732
  0
LINE
  8
0
 10
-28.9065
 20
36.4732
 11
-29.0439
 21
36.3442
  0
LINE
  8
0
 10
-29.0439
 20
36.3442
 11
-29.1963
 21
36.2335
  0
LINE
  8
0
 10
-29.1963
 20
36.2335
 11
-29.3613
 21
36.1427
  0
LINE
  8
0
 10
-29.3613
 20
36.1427
 11
-29.5365
 21
36.0734
  0
LINE
  8
0
 10
-29.5365
 20
36.0734
 11
-29.7189
 21
36.0266
  0
LINE
  8
0
 10
-29.7189
 20
36.0266
 11
-29.9058
 21
36.0029
  0
LINE
  8
0
 10
-29.9058
 20
36.0029
 11
-30.0942
 21
36.0029
  0
LINE
  8
0
 10
-45.0942
 20
36.0029
 11
-45.2811
 21
36.0266
  0
LINE
  8
0
 10
-45.2811
 20
36.0266
 11
-45.4635
 21
36.0734
  0
LINE
  8
0
 10
-45.4635
 20
36.0734
 11
-45.6387
 21
36.1427
  0
LINE
  8
0
 10
-45.6387
 20
36.1427
 11
-45.8037
 21
36.2335
  0
LINE
  8
0
 10
-45.8037
 20
36.2335
 11
-45.9561
 21
36.3442
  0
LINE
  8
0
 10
-45.9561
 20
36.3442
 11
-46.0934
 21
36.4732
  0
LINE
  8
0
 10
-46.0934
 20
36.4732
 11
-46.2135
 21
36.6183
  0
LINE
  8
0
 10
-46.2135
 20
36.6183
 11
-46.3145
 21
36.7774
  0
LINE
  8
0
 10
-46.3145
 20
36.7774
 11
-46.3947
 21
36.9478
  0
LINE
  8
0
 10
-46.3947
 20
36.9478
 11
-46.4529
 21
37.127
  0
LINE
  8
0
 10
-46.4529
 20
37.127
 11
-46.4882
 21
37.312
  0
LINE
  8
0
 10
-46.4882
 20
37.312
 11
-46.5
 21
37.5
  0
LINE
  8
0
 10
-46.5
 20
37.5
 11
-46.4882
 21
37.688
  0
LINE
  8
0
 10
-46.4882
 20
37.688
 11
-46.4529
 21
37.873
  0
LINE
  8
0
 10
-46.4529
 20
37.873
 11
-46.3947
 21
38.0522
  0
LINE
  8
0
 10
-46.3947
 20
38.0522
 11
-46.3145
 21
38.2226
  0
LINE
  8
0
 10
-46.3145
 20
38.2226
 11
-46.2135
 21
38.3817
  0
LINE
  8
0
 10
-46.2135
 20
38.3817
 11
-46.0934
 21
38.5268
  0
LINE
  8
0
 10
-46.0934
 20
38.5268
 11
-45.9561
 21
38.6558
  0
LINE
  8
0
 10
-45.9561
 20
38.6558
 11
-45.8037
 21
38.7665
  0
LINE
  8
0
 10
-45.8037
 20
38.7665
 11
-45.6387
 21
38.8572
  0
LINE
  8
0
 10
-45.6387
 20
38.8572
 11
-45.4635
 21
38.9266
  0
LINE
  8
0
 10
-45.4635
 20
38.9266
 11
-45.2811
 21
38.9734
  0
LINE
  8
0
 10
-45.2811
 20
38.9734
 11
-45.0942
 21
38.997
  0
LINE
  8
0
 10
-45.0942
 20
38.997
 11
-44.9058
 21
38.997
  0
LINE
  8
0
 10
-44.9058
 20
38.997
 11
-44.7189
 21
38.9734
  0
LINE
  8
0
 10
-44.7189
 20
38.9734
 11
-44.5365
 21
38.9266
  0
LINE
  8
0
 10
-44.5365
 20
38.9266
 11
-44.3613
 21
38.8572
  0
LINE
  8
0
 10
-44.3613
 20
38.8572
 11
-44.1963
 21
38.7665
  0
LINE
  8
0
 10
-44.1963
 20
38.7665
 11
-44.0439
 21
38.6558
  0
LINE
  8
0
 10
-44.0439
 20
38.6558
 11
-43.9065
 21
38.5268
  0
LINE
  8
0
 10
-43.9065
 20
38.5268
 11
-43.7865
 21
38.3817
  0
LINE
  8
0
 10
-43.7865
 20
38.3817
 11
-43.6855
 21
38.2226
  0
LINE
  8
0
 10
-43.6855
 20
38.2226
 11
-43.6053
 21
38.0522
  0
LINE
  8
0
 10
-43.6053
 20
38.0522
 11
-43.5471
 21
37.873
  0
LINE
  8
0
 10
-43.5471
 20
37.873
 11
-43.5118
 21
37.688
  0
LINE
  8
0
 10
-43.5118
 20
37.688
 11
-43.5
 21
37.5
  0
LINE
  8
0
 10
-43.5
 20
37.5
 11
-43.5118
 21
37.312
  0
LINE
  8
0
 10
-43.5118
 20
37.312
 11
-43.5471
 21
37.127
  0
LINE
  8
0
 10
-43.5471
 20
37.127
 11
-43.6053
 21
36.9478
  0
LINE
  8
0
 10
-43.6053
 20
36.9478
 11
-43.6855
 21
36.7774
  0
LINE
  8
0
 10
-43.6855
 20
36.7774
 11
-43.7865
 21
36.6183
  0
LINE
  8
0
 10
-43.7865
 20
36.6183
 11
-43.9065
 21
36.4732
  0
LINE
  8
0
 10
-43.9065
 20
36.4732
 11
-44.0439
 21
36.3442
  0
LINE
  8
0
 10
-44.0439
 20
36.3442
 11
-44.1963
 21
36.2335
  0
LINE
  8
0
 10
-44.1963
 20
36.2335
 11
-44.3613
 21
36.1427
  0
LINE
  8
0
 10
-44.3613
 20
36.1427
 11
-44.5365
 21
36.0734
  0
LINE
  8
0
 10
-44.5365
 20
36.0734
 11
-44.7189
 21
36.0266
  0
LINE
  8
0
 10
-44.7189
 20
36.0266
 11
-44.9058
 21
36.0029
  0
LINE
  8
0
 10
-44.9058
 20
36.0029
 11
-45.0942
 21
36.0029
  0
LINE
  8
0
 10
59.5
 20
15.5
 11
59.4606
 21
16.1267
  0
LINE
  8
0
 10
59.4606
 20
16.1267
 11
59.3429
 21
16.7434
  0
LINE
  8
0
 10
59.3429
 20
16.7434
 11
59.1489
 21
17.3406
  0
LINE
  8
0
 10
59.1489
 20
17.3406
 11
58.8815
 21
17.9088
  0
LINE
  8
0
 10
58.8815
 20
17.9088
 11
58.5451
 21
18.4389
  0
LINE
  8
0
 10
58.5451
 20
18.4389
 11
58.1448
 21
18.9227
  0
LINE
  8
0
 10
58.1448
 20
18.9227
 11
57.6871
 21
19.3526
  0
LINE
  8
0
 10
57.6871
 20
19.3526
 11
57.1791
 21
19.7216
  0
LINE
  8
0
 10
57.1791
 20
19.7216
 11
56.6289
 21
20.0241
  0
LINE
  8
0
 10
56.6289
 20
20.0241
 11
56.0451
 21
20.2553
  0
LINE
  8
0
 10
56.0451
 20
20.2553
 11
55.4369
 21
20.4114
  0
LINE
  8
0
 10
55.4369
 20
20.4114
 11
54.8139
 21
20.4901
  0
LINE
  8
0
 10
54.8139
 20
20.4901
 11
-54.8139
 21
20.4901
  0
LINE
  8
0
 10
-54.8139
 20
20.4901
 11
-55.4369
 21
20.4114
  0
LINE
  8
0
 10
-55.4369
 20
20.4114
 11
-56.0451
 21
20.2553
  0
LINE
  8
0
 10
-56.0451
 20
20.2553
 11
-56.6289
 21
20.0241
  0
LINE
  8
0
 10
-56.6289
 20
20.0241
 11
-57.1791
 21
19.7216
  0
LINE
  8
0
 10
-57.1791
 20
19.7216
 11
-57.6871
 21
19.3526
  0
LINE
  8
0
 10
-57.6871
 20
19.3526
 11
-58.1448
 21
18.9227
  0
LINE
  8
0
 10
-58.1448
 20
18.9227
 11
-58.5451
 21
18.4389
  0
LINE
  8
0
 10
-58.5451
 20
18.4389
 11
-58.8815
 21
17.9088
  0
LINE
  8
0
 10
-58.8815
 20
17.9088
 11
-59.1489
 21
17.3406
  0
LINE
  8
0
 10
-59.1489
 20
17.3406
 11
-59.3429
 21
16.7434
  0
LINE
  8
0
 10
-59.3429
 20
16.7434
 11
-59.4606
 21
16.1267
  0
LINE
  8
0
 10
-59.4606
 20
16.1267
 11
-59.5
 21
15.5
  0
LINE
  8
0
 10
-59.5
 20
15.5
 11
-59.5
 21
0
  0
LINE
  8
0
 10
-59.5
 20
0
 11
59.5
 21
0
  0
LINE
  8
0
 10
59.5
 20
0
 11
59.5
 21
15.5
  0
LINE
  8
0
 10
-17.7483
 20
11.9133
 11
-17.7483
 21
15.0867
  0
LINE
  8
0
 10
-17.7483
 20
15.0867
 11
-15
 21
16.6735
  0
LINE
  8
0
 10
-15
 20
16.6735
 11
-12.2517
 21
15.0867
  0
LINE
  8
0
 10
-12.2517
 20
15.0867
 11
-12.2517
 21
11.9133
  0
LINE
  8
0
 10
-12.2517
 20
11.9133
 11
-15
 21
10.3265
  0
LINE
  8
0
 10
-15
 20
10.3265
 11
-17.7483
 21
11.9133
  0
LINE
  8
0
 10
-47.7483
 20
11.9133
 11
-47.7483
 21
15.0867
  0
LINE
  8
0
 10
-47.7483
 20
15.0867
 11
-45
 21
16.6735
  0
LINE
  8
0
 10
-45
 20
16.6735
 11
-42.2517
 21
15.0867
  0
LINE
  8
0
 10
-42.2517
 20
15.0867
 11
-42.2517
 21
11.9133
  0
LINE
  8
0
 10
-42.2517
 20
11.9133
 11
-45
 21
10.3265
  0
LINE
  8
0
 10
-45
 20
10.3265
 11
-47.7483
 21
11.9133
  0
LINE
  8
0
 10
12.2517
 20
11.9133
 11
12.2517
 21
15.0867
  0
LINE
  8
0
 10
12.2517
 20
15.0867
 11
15
 21
16.6735
  0
LINE
  8
0
 10
15
 20
16.6735
 11
17.7483
 21
15.0867
  0
LINE
  8
0
 10
17.7483
 20
15.0867
 11
17.7483
 21
11.9133
  0
LINE
  8
0
 10
17.7483
 20
11.9133
 11
15
 21
10.3265
  0
LINE
  8
0
 10
15
 20
10.3265
 11
12.2517
 21
11.9133
  0
LINE
  8
0
 10
42.2517
 20
11.9133
 11
42.2517
 21
15.0867
  0
LINE
  8
0
 10
42.2517
 20
15.0867
 11
45
 21
16.6735
  0
LINE
  8
0
 10
45
 20
16.6735
 11
47.7483
 21
15.0867
  0
LINE
  8
0
 10
47.7483
 20
15.0867
 11
47.7483
 21
11.9133
  0
LINE
  8
0
 10
47.7483
 20
11.9133
 11
45
 21
10.3265
  0
LINE
  8
0
 10
45
 20
10.3265
 11
42.2517
 21
11.9133
  0
LINE
  8
0
 10
52.3116
 20
10.5059
 11
51.9379
 21
10.5531
  0
LINE
  8
0
 10
51.9379
 20
10.5531
 11
51.5729
 21
10.6468
  0
LINE
  8
0
 10
51.5729
 20
10.6468
 11
51.2227
 21
10.7855
  0
LINE
  8
0
 10
51.2227
 20
10.7855
 11
50.8925
 21
10.967
  0
LINE
  8
0
 10
50.8925
 20
10.967
 11
50.5877
 21
11.1884
  0
LINE
  8
0
 10
50.5877
 20
11.1884
 11
50.3131
 21
11.4464
  0
LINE
  8
0
 10
50.3131
 20
11.4464
 11
50.0729
 21
11.7366
  0
LINE
  8
0
 10
50.0729
 20
11.7366
 11
49.8711
 21
12.0547
  0
LINE
  8
0
 10
49.8711
 20
12.0547
 11
49.7107
 21
12.3956
  0
LINE
  8
0
 10
49.7107
 20
12.3956
 11
49.5942
 21
12.7539
  0
LINE
  8
0
 10
49.5942
 20
12.7539
 11
49.5237
 21
13.124
  0
LINE
  8
0
 10
49.5237
 20
13.124
 11
49.5
 21
13.5
  0
LINE
  8
0
 10
49.5
 20
13.5
 11
49.5237
 21
13.876
  0
LINE
  8
0
 10
49.5237
 20
13.876
 11
49.5942
 21
14.2461
  0
LINE
  8
0
 10
49.5942
 20
14.2461
 11
49.7107
 21
14.6044
  0
LINE
  8
0
 10
49.7107
 20
14.6044
 11
49.8711
 21
14.9453
  0
LINE
  8
0
 10
49.8711
 20
14.9453
 11
50.0729
 21
15.2634
  0
LINE
  8
0
 10
50.0729
 20
15.2634
 11
50.3131
 21
15.5536
  0
LINE
  8
0
 10
50.3131
 20
15.5536
 11
50.5877
 21
15.8115
  0
LINE
  8
0
 10
50.5877
 20
15.8115
 11
50.8925
 21
16.033
  0
LINE
  8
0
 10
50.8925
 20
16.033
 11
51.2227
 21
16.2145
  0
LINE
  8
0
 10
51.2227
 20
16.2145
 11
51.5729
 21
16.3532
  0
LINE
  8
0
 10
51.5729
 20
16.3532
 11
51.9379
 21
16.4469
  0
LINE
  8
0
 10
51.9379
 20
16.4469
 11
52.3116
 21
16.4941
  0
LINE
  8
0
 10
52.3116
 20
16.4941
 11
52.6884
 21
16.4941
  0
LINE
  8
0
 10
52.6884
 20
16.4941
 11
53.0621
 21
16.4469
  0
LINE
  8
0
 10
53.0621
 20
16.4469
 11
53.427
 21
16.3532
  0
LINE
  8
0
 10
53.427
 20
16.3532
 11
53.7773
 21
16.2145
  0
LINE
  8
0
 10
53.7773
 20
16.2145
 11
54.1075
 21
16.033
  0
LINE
  8
0
 10
54.1075
 20
16.033
 11
54.4123
 21
15.8115
  0
LINE
  8
0
 10
54.4123
 20
15.8115
 11
54.6869
 21
15.5536
  0
LINE
  8
0
 10
54.6869
 20
15.5536
 11
54.927
 21
15.2634
  0
LINE
  8
0
 10
54.927
 20
15.2634
 11
55.1289
 21
14.9453
  0
LINE
  8
0
 10
55.1289
 20
14.9453
 11
55.2893
 21
14.6044
  0
LINE
  8
0
 10
55.2893
 20
14.6044
 11
55.4057
 21
14.2461
  0
LINE
  8
0
 10
55.4057
 20
14.2461
 11
55.4763
 21
13.876
  0
LINE
  8
0
 10
55.4763
 20
13.876
 11
55.5
 21
13.5
  0
LINE
  8
0
 10
55.5
 20
13.5
 11
55.4763
 21
13.124
  0
LINE
  8
0
 10
55.4763
 20
13.124
 11
55.4057
 21
12.7539
  0
LINE
  8
0
 10
55.4057
 20
12.7539
 11
55.2893
 21
12.3956
  0
LINE
  8
0
 10
55.2893
 20
12.3956
 11
55.1289
 21
12.0547
  0
LINE
  8
0
 10
55.1289
 20
12.0547
 11
54.927
 21
11.7366
  0
LINE
  8
0
 10
54.927
 20
11.7366
 11
54.6869
 21
11.4464
  0
LINE
  8
0
 10
54.6869
 20
11.4464
 11
54.4123
 21
11.1884
  0
LINE
  8
0
 10
54.4123
 20
11.1884
 11
54.1075
 21
10.967
  0
LINE
  8
0
 10
54.1075
 20
10.967
 11
53.7773
 21
10.7855
  0
LINE
  8
0
 10
53.7773
 20
10.7855
 11
53.427
 21
10.6468
  0
LINE
  8
0
 10
53.427
 20
10.6468
 11
53.0621
 21
10.5531
  0
LINE
  8
0
 10
53.0621
 20
10.5531
 11
52.6884
 21
10.5059
  0
LINE
  8
0
 10
52.6884
 20
10.5059
 11
52.3116
 21
10.5059
  0
LINE
  8
0
 10
-7.68837
 20
10.5059
 11
-8.06213
 21
10.5531
  0
LINE
  8
0
 10
-8.06213
 20
10.5531
 11
-8.42705
 21
10.6468
  0
LINE
  8
0
 10
-8.42705
 20
10.6468
 11
-8.77733
 21
10.7855
  0
LINE
  8
0
 10
-8.77733
 20
10.7855
 11
-9.10747
 21
10.967
  0
LINE
  8
0
 10
-9.10747
 20
10.967
 11
-9.41226
 21
11.1884
  0
LINE
  8
0
 10
-9.41226
 20
11.1884
 11
-9.6869
 21
11.4464
  0
LINE
  8
0
 10
-9.6869
 20
11.4464
 11
-9.92705
 21
11.7366
  0
LINE
  8
0
 10
-9.92705
 20
11.7366
 11
-10.1289
 21
12.0547
  0
LINE
  8
0
 10
-10.1289
 20
12.0547
 11
-10.2893
 21
12.3956
  0
LINE
  8
0
 10
-10.2893
 20
12.3956
 11
-10.4057
 21
12.7539
  0
LINE
  8
0
 10
-10.4057
 20
12.7539
 11
-10.4763
 21
13.124
  0
LINE
  8
0
 10
-10.4763
 20
13.124
 11
-10.5
 21
13.5
  0
LINE
  8
0
 10
-10.5
 20
13.5
 11
-10.4763
 21
13.876
  0
LINE
  8
0
 10
-10.4763
 20
13.876
 11
-10.4057
 21
14.2461
  0
LINE
  8
0
 10
-10.4057
 20
14.2461
 11
-10.2893
 21
14.6044
  0
LINE
  8
0
 10
-10.2893
 20
14.6044
 11
-10.1289
 21
14.9453
  0
LINE
  8
0
 10
-10.1289
 20
14.9453
 11
-9.92705
 21
15.2634
  0
LINE
  8
0
 10
-9.92705
 20
15.2634
 11
-9.6869
 21
15.5536
  0
LINE
  8
0
 10
-9.6869
 20
15.5536
 11
-9.41226
 21
15.8115
  0
LINE
  8
0
 10
-9.41226
 20
15.8115
 11
-9.10747
 21
16.033
  0
LINE
  8
0
 10
-9.10747
 20
16.033
 11
-8.77733
 21
16.2145
  0
LINE
  8
0
 10
-8.77733
 20
16.2145
 11
-8.42705
 21
16.3532
  0
LINE
  8
0
 10
-8.42705
 20
16.3532
 11
-8.06213
 21
16.4469
  0
LINE
  8
0
 10
-8.06213
 20
16.4469
 11
-7.68837
 21
16.4941
  0
LINE
  8
0
 10
-7.68837
 20
16.4941
 11
-7.31161
 21
16.4941
  0
LINE
  8
0
 10
-7.31161
 20
16.4941
 11
-6.93785
 21
16.4469
  0
LINE
  8
0
 10
-6.93785
 20
16.4469
 11
-6.57294
 21
16.3532
  0
LINE
  8
0
 10
-6.57294
 20
16.3532
 11
-6.22266
 21
16.2145
  0
LINE
  8
0
 10
-6.22266
 20
16.2145
 11
-5.89252
 21
16.033
  0
LINE
  8
0
 10
-5.89252
 20
16.033
 11
-5.58772
 21
15.8115
  0
LINE
  8
0
 10
-5.58772
 20
15.8115
 11
-5.31308
 21
15.5536
  0
LINE
  8
0
 10
-5.31308
 20
15.5536
 11
-5.07294
 21
15.2634
  0
LINE
  8
0
 10
-5.07294
 20
15.2634
 11
-4.87108
 21
14.9453
  0
LINE
  8
0
 10
-4.87108
 20
14.9453
 11
-4.71066
 21
14.6044
  0
LINE
  8
0
 10
-4.71066
 20
14.6044
 11
-4.59424
 21
14.2461
  0
LINE
  8
0
 10
-4.59424
 20
14.2461
 11
-4.52365
 21
13.876
  0
LINE
  8
0
 10
-4.52365
 20
13.876
 11
-4.5
 21
13.5
  0
LINE
  8
0
 10
-4.5
 20
13.5
 11
-4.52365
 21
13.124
  0
LINE
  8
0
 10
-4.52365
 20
13.124
 11
-4.59424
 21
12.7539
  0
LINE
  8
0
 10
-4.59424
 20
12.7539
 11
-4.71066
 21
12.3956
  0
LINE
  8
0
 10
-4.71066
 20
12.3956
 11
-4.87108
 21
12.0547
  0
LINE
  8
0
 10
-4.87108
 20
12.0547
 11
-5.07294
 21
11.7366
  0
LINE
  8
0
 10
-5.07294
 20
11.7366
 11
-5.31308
 21
11.4464
  0
LINE
  8
0
 10
-5.31308
 20
11.4464
 11
-5.58772
 21
11.1884
  0
LINE
  8
0
 10
-5.58772
 20
11.1884
 11
-5.89252
 21
10.967
  0
LINE
  8
0
 10
-5.89252
 20
10.967
 11
-6.22266
 21
10.7855
  0
LINE
  8
0
 10
-6.22266
 20
10.7855
 11
-6.57294
 21
10.6468
  0
LINE
  8
0
 10
-6.57294
 20
10.6468
 11
-6.93785
 21
10.5531
  0
LINE
  8
0
 10
-6.93785
 20
10.5531
 11
-7.31161
 21
10.5059
  0
LINE
  8
0
 10
-7.31161
 20
10.5059
 11
-7.68837
 21
10.5059
  0
LINE
  8
0
 10
-37.6884
 20
10.5059
 11
-38.0621
 21
10.5531
  0
LINE
  8
0
 10
-38.0621
 20
10.5531
 11
-38.427
 21
10.6468
  0
LINE
  8
0
 10
-38.427
 20
10.6468
 11
-38.7773
 21
10.7855
  0
LINE
  8
0
 10
-38.7773
 20
10.7855
 11
-39.1075
 21
10.967
  0
LINE
  8
0
 10
-39.1075
 20
10.967
 11
-39.4123
 21
11.1884
  0
LINE
  8
0
 10
-39.4123
 20
11.1884
 11
-39.6869
 21
11.4464
  0
LINE
  8
0
 10
-39.6869
 20
11.4464
 11
-39.927
 21
11.7366
  0
LINE
  8
0
 10
-39.927
 20
11.7366
 11
-40.1289
 21
12.0547
  0
LINE
  8
0
 10
-40.1289
 20
12.0547
 11
-40.2893
 21
12.3956
  0
LINE
  8
0
 10
-40.2893
 20
12.3956
 11
-40.4057
 21
12.7539
  0
LINE
  8
0
 10
-40.4057
 20
12.7539
 11
-40.4763
 21
13.124
  0
LINE
  8
0
 10
-40.4763
 20
13.124
 11
-40.5
 21
13.5
  0
LINE
  8
0
 10
-40.5
 20
13.5
 11
-40.4763
 21
13.876
  0
LINE
  8
0
 10
-40.4763
 20
13.876
 11
-40.4057
 21
14.2461
  0
LINE
  8
0
 10
-40.4057
 20
14.2461
 11
-40.2893
 21
14.6044
  0
LINE
  8
0
 10
-40.2893
 20
14.6044
 11
-40.1289
 21
14.9453
  0
LINE
  8
0
 10
-40.1289
 20
14.9453
 11
-39.927
 21
15.2634
  0
LINE
  8
0
 10
-39.927
 20
15.2634
 11
-39.6869
 21
15.5536
  0
LINE
  8
0
 10
-39.6869
 20
15.5536
 11
-39.4123
 21
15.8115
  0
LINE
  8
0
 10
-39.4123
 20
15.8115
 11
-39.1075
 21
16.033
  0
LINE
  8
0
 10
-39.1075
 20
16.033
 11
-38.7773
 21
16.2145
  0
LINE
  8
0
 10
-38.7773
 20
16.2145
 11
-38.427
 21
16.3532
  0
LINE
  8
0
 10
-38.427
 20
16.3532
 11
-38.0621
 21
16.4469
  0
LINE
  8
0
 10
-38.0621
 20
16.4469
 11
-37.6884
 21
16.4941
  0
LINE
  8
0
 10
-37.6884
 20
16.4941
 11
-37.3116
 21
16.4941
  0
LINE
  8
0
 10
-37.3116
 20
16.4941
 11
-36.9379
 21
16.4469
  0
LINE
  8
0
 10
-36.9379
 20
16.4469
 11
-36.5729
 21
16.3532
  0
LINE
  8
0
 10
-36.5729
 20
16.3532
 11
-36.2227
 21
16.2145
  0
LINE
  8
0
 10
-36.2227
 20
16.2145
 11
-35.8925
 21
16.033
  0
LINE
  8
0
 10
-35.8925
 20
16.033
 11
-35.5877
 21
15.8115
  0
LINE
  8
0
 10
-35.5877
 20
15.8115
 11
-35.3131
 21
15.5536
  0
LINE
  8
0
 10
-35.3131
 20
15.5536
 11
-35.0729
 21
15.2634
  0
LINE
  8
0
 10
-35.0729
 20
15.2634
 11
-34.8711
 21
14.9453
  0
LINE
  8
0
 10
-34.8711
 20
14.9453
 11
-34.7107
 21
14.6044
  0
LINE
  8
0
 10
-34.7107
 20
14.6044
 11
-34.5942
 21
14.2461
  0
LINE
  8
0
 10
-34.5942
 20
14.2461
 11
-34.5237
 21
13.876
  0
LINE
  8
0
 10
-34.5237
 20
13.876
 11
-34.5
 21
13.5
  0
LINE
  8
0
 10
-34.5
 20
13.5
 11
-34.5237
 21
13.124
  0
LINE
  8
0
 10
-34.5237
 20
13.124
 11
-34.5942
 21
12.7539
  0
LINE
  8
0
 10
-34.5942
 20
12.7539
 11
-34.7107
 21
12.3956
  0
LINE
  8
0
 10
-34.7107
 20
12.3956
 11
-34.8711
 21
12.0547
  0
LINE
  8
0
 10
-34.8711
 20
12.0547
 11
-35.0729
 21
11.7366
  0
LINE
  8
0
 10
-35.0729
 20
11.7366
 11
-35.3131
 21
11.4464
  0
LINE
  8
0
 10
-35.3131
 20
11.4464
 11
-35.5877
 21
11.1884
  0
LINE
  8
0
 10
-35.5877
 20
11.1884
 11
-35.8925
 21
10.967
  0
LINE
  8
0
 10
-35.8925
 20
10.967
 11
-36.2227
 21
10.7855
  0
LINE
  8
0
 10
-36.2227
 20
10.7855
 11
-36.5729
 21
10.6468
  0
LINE
  8
0
 10
-36.5729
 20
10.6468
 11
-36.9379
 21
10.5531
  0
LINE
  8
0
 10
-36.9379
 20
10.5531
 11
-37.3116
 21
10.5059
  0
LINE
  8
0
 10
-37.3116
 20
10.5059
 11
-37.6884
 21
10.5059
  0
LINE
  8
0
 10
22.3116
 20
10.5059
 11
21.9379
 21
10.5531
  0
LINE
  8
0
 10
21.9379
 20
10.5531
 11
21.5729
 21
10.6468
  0
LINE
  8
0
 10
21.5729
 20
10.6468
 11
21.2227
 21
10.7855
  0
LINE
  8
0
 10
21.2227
 20
10.7855
 11
20.8925
 21
10.967
  0
LINE
  8
0
 10
20.8925
 20
10.967
 11
20.5877
 21
11.1884
  0
LINE
  8
0
 10
20.5877
 20
11.1884
 11
20.3131
 21
11.4464
  0
LINE
  8
0
 10
20.3131
 20
11.4464
 11
20.0729
 21
11.7366
  0
LINE
  8
0
 10
20.0729
 20
11.7366
 11
19.8711
 21
12.0547
  0
LINE
  8
0
 10
19.8711
 20
12.0547
 11
19.7107
 21
12.3956
  0
LINE
  8
0
 10
19.7107
 20
12.3956
 11
19.5942
 21
12.7539
  0
LINE
  8
0
 10
19.5942
 20
12.7539
 11
19.5237
 21
13.124
  0
LINE
  8
0
 10
19.5237
 20
13.124
 11
19.5
 21
13.5
  0
LINE
  8
0
 10
19.5
 20
13.5
 11
19.5237
 21
13.876
  0
LINE
  8
0
 10
19.5237
 20
13.876
 11
19.5942
 21
14.2461
  0
LINE
  8
0
 10
19.5942
 20
14.2461
 11
19.7107
 21
14.6044
  0
LINE
  8
0
 10
19.7107
 20
14.6044
 11
19.8711
 21
14.9453
  0
LINE
  8
0
 10
19.8711
 20
14.9453
 11
20.0729
 21
15.2634
  0
LINE
  8
0
 10
20.0729
 20
15.2634
 11
20.3131
 21
15.5536
  0
LINE
  8
0
 10
20.3131
 20
15.5536
 11
20.5877
 21
15.8115
  0
LINE
  8
0
 10
20.5877
 20
15.8115
 11
20.8925
 21
16.033
  0
LINE
  8
0
 10
20.8925
 20
16.033
 11
21.2227
 21
16.2145
  0
LINE
  8
0
 10
21.2227
 20
16.2145
 11
21.5729
 21
16.3532
  0
LINE
  8
0
 10
21.5729
 20
16.3532
 11
21.9379
 21
16.4469
  0
LINE
  8
0
 10
21.9379
 20
16.4469
 11
22.3116
 21
16.4941
  0
LINE
  8
0
 10
22.3116
 20
16.4941
 11
22.6884
 21
16.4941
  0
LINE
  8
0
 10
22.6884
 20
16.4941
 11
23.0621
 21
16.4469
  0
LINE
  8
0
 10
23.0621
 20
16.4469
 11
23.427
 21
16.3532
  0
LINE
  8
0
 10
23.427
 20
16.3532
 11
23.7773
 21
16.2145
  0
LINE
  8
0
 10
23.7773
 20
16.2145
 11
24.1075
 21
16.033
  0
LINE
  8
0
 10
24.1075
 20
16.033
 11
24.4123
 21
15.8115
  0
LINE
  8
0
 10
24.4123
 20
15.8115
 11
24.6869
 21
15.5536
  0
LINE
  8
0
 10
24.6869
 20
15.5536
 11
24.927
 21
15.2634
  0
LINE
  8
0
 10
24.927
 20
15.2634
 11
25.1289
 21
14.9453
  0
LINE
  8
0
 10
25.1289
 20
14.9453
 11
25.2893
 21
14.6044
  0
LINE
  8
0
 10
25.2893
 20
14.6044
 11
25.4057
 21
14.2461
  0
LINE
  8
0
 10
25.4057
 20
14.2461
 11
25.4763
 21
13.876
  0
LINE
  8
0
 10
25.4763
 20
13.876
 11
25.5
 21
13.5
  0
LINE
  8
0
 10
25.5
 20
13.5
 11
25.4763
 21
13.124
  0
LINE
  8
0
 10
25.4763
 20
13.124
 11
25.4057
 21
12.7539
  0
LINE
  8
0
 10
25.4057
 20
12.7539
 11
25.2893
 21
12.3956
  0
LINE
  8
0
 10
25.2893
 20
12.3956
 11
25.1289
 21
12.0547
  0
LINE
  8
0
 10
25.1289
 20
12.0547
 11
24.927
 21
11.7366
  0
LINE
  8
0
 10
24.927
 20
11.7366
 11
24.6869
 21
11.4464
  0
LINE
  8
0
 10
24.6869
 20
11.4464
 11
24.4123
 21
11.1884
  0
LINE
  8
0
 10
24.4123
 20
11.1884
 11
24.1075
 21
10.967
  0
LINE
  8
0
 10
24.1075
 20
10.967
 11
23.7773
 21
10.7855
  0
LINE
  8
0
 10
23.7773
 20
10.7855
 11
23.427
 21
10.6468
  0
LINE
  8
0
 10
23.427
 20
10.6468
 11
23.0621
 21
10.5531
  0
LINE
  8
0
 10
23.0621
 20
10.5531
 11
22.6884
 21
10.5059
  0
LINE
  8
0
 10
22.6884
 20
10.5059
 11
22.3116
 21
10.5059
  0
LINE
  8
0
 10
-22.6884
 20
10.5059
 11
-23.0621
 21
10.5531
  0
LINE
  8
0
 10
-23.0621
 20
10.5531
 11
-23.427
 21
10.6468
  0
LINE
  8
0
 10
-23.427
 20
10.6468
 11
-23.7773
 21
10.7855
  0
LINE
  8
0
 10
-23.7773
 20
10.7855
 11
-24.1075
 21
10.967
  0
LINE
  8
0
 10
-24.1075
 20
10.967
 11
-24.4123
 21
11.1884
  0
LINE
  8
0
 10
-24.4123
 20
11.1884
 11
-24.6869
 21
11.4464
  0
LINE
  8
0
 10
-24.6869
 20
11.4464
 11
-24.927
 21
11.7366
  0
LINE
  8
0
 10
-24.927
 20
11.7366
 11
-25.1289
 21
12.0547
  0
LINE
  8
0
 10
-25.1289
 20
12.0547
 11
-25.2893
 21
12.3956
  0
LINE
  8
0
 10
-25.2893
 20
12.3956
 11
-25.4057
 21
12.7539
  0
LINE
  8
0
 10
-25.4057
 20
12.7539
 11
-25.4763
 21
13.124
  0
LINE
  8
0
 10
-25.4763
 20
13.124
 11
-25.5
 21
13.5
  0
LINE
  8
0
 10
-25.5
 20
13.5
 11
-25.4763
 21
13.876
  0
LINE
  8
0
 10
-25.4763
 20
13.876
 11
-25.4057
 21
14.2461
  0
LINE
  8
0
 10
-25.4057
 20
14.2461
 11
-25.2893
 21
14.6044
  0
LINE
  8
0
 10
-25.2893
 20
14.6044
 11
-25.1289
 21
14.9453
  0
LINE
  8
0
 10
-25.1289
 20
14.9453
 11
-24.927
 21
15.2634
  0
LINE
  8
0
 10
-24.927
 20
15.2634
 11
-24.6869
 21
15.5536
  0
LINE
  8
0
 10
-24.6869
 20
15.5536
 11
-24.4123
 21
15.8115
  0
LINE
  8
0
 10
-24.4123
 20
15.8115
 11
-24.1075
 21
16.033
  0
LINE
  8
0
 10
-24.1075
 20
16.033
 11
-23.7773
 21
16.2145
  0
LINE
  8
0
 10
-23.7773
 20
16.2145
 11
-23.427
 21
16.3532
  0
LINE
  8
0
 10
-23.427
 20
16.3532
 11
-23.0621
 21
16.4469
  0
LINE
  8
0
 10
-23.0621
 20
16.4469
 11
-22.6884
 21
16.4941
  0
LINE
  8
0
 10
-22.6884
 20
16.4941
 11
-22.3116
 21
16.4941
  0
LINE
  8
0
 10
-22.3116
 20
16.4941
 11
-21.9379
 21
16.4469
  0
LINE
  8
0
 10
-21.9379
 20
16.4469
 11
-21.5729
 21
16.3532
  0
LINE
  8
0
 10
-21.5729
 20
16.3532
 11
-21.2227
 21
16.2145
  0
LINE
  8
0
 10
-21.2227
 20
16.2145
 11
-20.8925
 21
16.033
  0
LINE
  8
0
 10
-20.8925
 20
16.033
 11
-20.5877
 21
15.8115
  0
LINE
  8
0
 10
-20.5877
 20
15.8115
 11
-20.3131
 21
15.5536
  0
LINE
  8
0
 10
-20.3131
 20
15.5536
 11
-20.0729
 21
15.2634
  0
LINE
  8
0
 10
-20.0729
 20
15.2634
 11
-19.8711
 21
14.9453
  0
LINE
  8
0
 10
-19.8711
 20
14.9453
 11
-19.7107
 21
14.6044
  0
LINE
  8
0
 10
-19.7107
 20
14.6044
 11
-19.5942
 21
14.2461
  0
LINE
  8
0
 10
-19.5942
 20
14.2461
 11
-19.5237
 21
13.876
  0
LINE
  8
0
 10
-19.5237
 20
13.876
 11
-19.5
 21
13.5
  0
LINE
  8
0
 10
-19.5
 20
13.5
 11
-19.5237
 21
13.124
  0
LINE
  8
0
 10
-19.5237
 20
13.124
 11
-19.5942
 21
12.7539
  0
LINE
  8
0
 10
-19.5942
 20
12.7539
 11
-19.7107
 21
12.3956
  0
LINE
  8
0
 10
-19.7107
 20
12.3956
 11
-19.8711
 21
12.0547
  0
LINE
  8
0
 10
-19.8711
 20
12.0547
 11
-20.0729
 21
11.7366
  0
LINE
  8
0
 10
-20.0729
 20
11.7366
 11
-20.3131
 21
11.4464
  0
LINE
  8
0
 10
-20.3131
 20
11.4464
 11
-20.5877
 21
11.1884
  0
LINE
  8
0
 10
-20.5877
 20
11.1884
 11
-20.8925
 21
10.967
  0
LINE
  8
0
 10
-20.8925
 20
10.967
 11
-21.2227
 21
10.7855
  0
LINE
  8
0
 10
-21.2227
 20
10.7855
 11
-21.5729
 21
10.6468
  0
LINE
  8
0
 10
-21.5729
 20
10.6468
 11
-21.9379
 21
10.5531
  0
LINE
  8
0
 10
-21.9379
 20
10.5531
 11
-22.3116
 21
10.5059
  0
LINE
  8
0
 10
-22.3116
 20
10.5059
 11
-22.6884
 21
10.5059
  0
LINE
  8
0
 10
37.3116
 20
10.5059
 11
36.9379
 21
10.5531
  0
LINE
  8
0
 10
36.9379
 20
10.5531
 11
36.5729
 21
10.6468
  0
LINE
  8
0
 10
36.5729
 20
10.6468
 11
36.2227
 21
10.7855
  0
LINE
  8
0
 10
36.2227
 20
10.7855
 11
35.8925
 21
10.967
  0
LINE
  8
0
 10
35.8925
 20
10.967
 11
35.5877
 21
11.1884
  0
LINE
  8
0
 10
35.5877
 20
11.1884
 11
35.3131
 21
11.4464
  0
LINE
  8
0
 10
35.3131
 20
11.4464
 11
35.0729
 21
11.7366
  0
LINE
  8
0
 10
35.0729
 20
11.7366
 11
34.8711
 21
12.0547
  0
LINE
  8
0
 10
34.8711
 20
12.0547
 11
34.7107
 21
12.3956
  0
LINE
  8
0
 10
34.7107
 20
12.3956
 11
34.5942
 21
12.7539
  0
LINE
  8
0
 10
34.5942
 20
12.7539
 11
34.5237
 21
13.124
  0
LINE
  8
0
 10
34.5237
 20
13.124
 11
34.5
 21
13.5
  0
LINE
  8
0
 10
34.5
 20
13.5
 11
34.5237
 21
13.876
  0
LINE
  8
0
 10
34.5237
 20
13.876
 11
34.5942
 21
14.2461
  0
LINE
  8
0
 10
34.5942
 20
14.2461
 11
34.7107
 21
14.6044
  0
LINE
  8
0
 10
34.7107
 20
14.6044
 11
34.8711
 21
14.9453
  0
LINE
  8
0
 10
34.8711
 20
14.9453
 11
35.0729
 21
15.2634
  0
LINE
  8
0
 10
35.0729
 20
15.2634
 11
35.3131
 21
15.5536
  0
LINE
  8
0
 10
35.3131
 20
15.5536
 11
35.5877
 21
15.8115
  0
LINE
  8
0
 10
35.5877
 20
15.8115
 11
35.8925
 21
16.033
  0
LINE
  8
0
 10
35.8925
 20
16.033
 11
36.2227
 21
16.2145
  0
LINE
  8
0
 10
36.2227
 20
16.2145
 11
36.5729
 21
16.3532
  0
LINE
  8
0
 10
36.5729
 20
16.3532
 11
36.9379
 21
16.4469
  0
LINE
  8
0
 10
36.9379
 20
16.4469
 11
37.3116
 21
16.4941
  0
LINE
  8
0
 10
37.3116
 20
16.4941
 11
37.6884
 21
16.4941
  0
LINE
  8
0
 10
37.6884
 20
16.4941
 11
38.0621
 21
16.4469
  0
LINE
  8
0
 10
38.0621
 20
16.4469
 11
38.427
 21
16.3532
  0
LINE
  8
0
 10
38.427
 20
16.3532
 11
38.7773
 21
16.2145
  0
LINE
  8
0
 10
38.7773
 20
16.2145
 11
39.1075
 21
16.033
  0
LINE
  8
0
 10
39.1075
 20
16.033
 11
39.4123
 21
15.8115
  0
LINE
  8
0
 10
39.4123
 20
15.8115
 11
39.6869
 21
15.5536
  0
LINE
  8
0
 10
39.6869
 20
15.5536
 11
39.927
 21
15.2634
  0
LINE
  8
0
 10
39.927
 20
15.2634
 11
40.1289
 21
14.9453
  0
LINE
  8
0
 10
40.1289
 20
14.9453
 11
40.2893
 21
14.6044
  0
LINE
  8
0
 10
40.2893
 20
14.6044
 11
40.4057
 21
14.2461
  0
LINE
  8
0
 10
40.4057
 20
14.2461
 11
40.4763
 21
13.876
  0
LINE
  8
0
 10
40.4763
 20
13.876
 11
40.5
 21
13.5
  0
LINE
  8
0
 10
40.5
 20
13.5
 11
40.4763
 21
13.124
  0
LINE
  8
0
 10
40.4763
 20
13.124
 11
40.4057
 21
12.7539
  0
LINE
  8
0
 10
40.4057
 20
12.7539
 11
40.2893
 21
12.3956
  0
LINE
  8
0
 10
40.2893
 20
12.3956
 11
40.1289
 21
12.0547
  0
LINE
  8
0
 10
40.1289
 20
12.0547
 11
39.927
 21
11.7366
  0
LINE
  8
0
 10
39.927
 20
11.7366
 11
39.6869
 21
11.4464
  0
LINE
  8
0
 10
39.6869
 20
11.4464
 11
39.4123
 21
11.1884
  0
LINE
  8
0
 10
39.4123
 20
11.1884
 11
39.1075
 21
10.967
  0
LINE
  8
0
 10
39.1075
 20
10.967
 11
38.7773
 21
10.7855
  0
LINE
  8
0
 10
38.7773
 20
10.7855
 11
38.427
 21
10.6468
  0
LINE
  8
0
 10
38.427
 20
10.6468
 11
38.0621
 21
10.5531
  0
LINE
  8
0
 10
38.0621
 20
10.5531
 11
37.6884
 21
10.5059
  0
LINE
  8
0
 10
37.6884
 20
10.5059
 11
37.3116
 21
10.5059
  0
LINE
  8
0
 10
-52.6884
 20
10.5059
 11
-53.0621
 21
10.5531
  0
LINE
  8
0
 10
-53.0621
 20
10.5531
 11
-53.427
 21
10.6468
  0
LINE
  8
0
 10
-53.427
 20
10.6468
 11
-53.7773
 21
10.7855
  0
LINE
  8
0
 10
-53.7773
 20
10.7855
 11
-54.1075
 21
10.967
  0
LINE
  8
0
 10
-54.1075
 20
10.967
 11
-54.4123
 21
11.1884
  0
LINE
  8
0
 10
-54.4123
 20
11.1884
 11
-54.6869
 21
11.4464
  0
LINE
  8
0
 10
-54.6869
 20
11.4464
 11
-54.927
 21
11.7366
  0
LINE
  8
0
 10
-54.927
 20
11.7366
 11
-55.1289
 21
12.0547
  0
LINE
  8
0
 10
-55.1289
 20
12.0547
 11
-55.2893
 21
12.3956
  0
LINE
  8
0
 10
-55.2893
 20
12.3956
 11
-55.4057
 21
12.7539
  0
LINE
  8
0
 10
-55.4057
 20
12.7539
 11
-55.4763
 21
13.124
  0
LINE
  8
0
 10
-55.4763
 20
13.124
 11
-55.5
 21
13.5
  0
LINE
  8
0
 10
-55.5
 20
13.5
 11
-55.4763
 21
13.876
  0
LINE
  8
0
 10
-55.4763
 20
13.876
 11
-55.4057
 21
14.2461
  0
LINE
  8
0
 10
-55.4057
 20
14.2461
 11
-55.2893
 21
14.6044
  0
LINE
  8
0
 10
-55.2893
 20
14.6044
 11
-55.1289
 21
14.9453
  0
LINE
  8
0
 10
-55.1289
 20
14.9453
 11
-54.927
 21
15.2634
  0
LINE
  8
0
 10
-54.927
 20
15.2634
 11
-54.6869
 21
15.5536
  0
LINE
  8
0
 10
-54.6869
 20
15.5536
 11
-54.4123
 21
15.8115
  0
LINE
  8
0
 10
-54.4123
 20
15.8115
 11
-54.1075
 21
16.033
  0
LINE
  8
0
 10
-54.1075
 20
16.033
 11
-53.7773
 21
16.2145
  0
LINE
  8
0
 10
-53.7773
 20
16.2145
 11
-53.427
 21
16.3532
  0
LINE
  8
0
 10
-53.427
 20
16.3532
 11
-53.0621
 21
16.4469
  0
LINE
  8
0
 10
-53.0621
 20
16.4469
 11
-52.6884
 21
16.4941
  0
LINE
  8
0
 10
-52.6884
 20
16.4941
 11
-52.3116
 21
16.4941
  0
LINE
  8
0
 10
-52.3116
 20
16.4941
 11
-51.9379
 21
16.4469
  0
LINE
  8
0
 10
-51.9379
 20
16.4469
 11
-51.5729
 21
16.3532
  0
LINE
  8
0
 10
-51.5729
 20
16.3532
 11
-51.2227
 21
16.2145
  0
LINE
  8
0
 10
-51.2227
 20
16.2145
 11
-50.8925
 21
16.033
  0
LINE
  8
0
 10
-50.8925
 20
16.033
 11
-50.5877
 21
15.8115
  0
LINE
  8
0
 10
-50.5877
 20
15.8115
 11
-50.3131
 21
15.5536
  0
LINE
  8
0
 10
-50.3131
 20
15.5536
 11
-50.0729
 21
15.2634
  0
LINE
  8
0
 10
-50.0729
 20
15.2634
 11
-49.8711
 21
14.9453
  0
LINE
  8
0
 10
-49.8711
 20
14.9453
 11
-49.7107
 21
14.6044
  0
LINE
  8
0
 10
-49.7107
 20
14.6044
 11
-49.5942
 21
14.2461
  0
LINE
  8
0
 10
-49.5942
 20
14.2461
 11
-49.5237
 21
13.876
  0
LINE
  8
0
 10
-49.5237
 20
13.876
 11
-49.5
 21
13.5
  0
LINE
  8
0
 10
-49.5
 20
13.5
 11
-49.5237
 21
13.124
  0
LINE
  8
0
 10
-49.5237
 20
13.124
 11
-49.5942
 21
12.7539
  0
LINE
  8
0
 10
-49.5942
 20
12.7539
 11
-49.7107
 21
12.3956
  0
LINE
  8
0
 10
-49.7107
 20
12.3956
 11
-49.8711
 21
12.0547
  0
LINE
  8
0
 10
-49.8711
 20
12.0547
 11
-50.0729
 21
11.7366
  0
LINE
  8
0
 10
-50.0729
 20
11.7366
 11
-50.3131
 21
11.4464
  0
LINE
  8
0
 10
-50.3131
 20
11.4464
 11
-50.5877
 21
11.1884
  0
LINE
  8
0
 10
-50.5877
 20
11.1884
 11
-50.8925
 21
10.967
  0
LINE
  8
0
 10
-50.8925
 20
10.967
 11
-51.2227
 21
10.7855
  0
LINE
  8
0
 10
-51.2227
 20
10.7855
 11
-51.5729
 21
10.6468
  0
LINE
  8
0
 10
-51.5729
 20
10.6468
 11
-51.9379
 21
10.5531
  0
LINE
  8
0
 10
-51.9379
 20
10.5531
 11
-52.3116
 21
10.5059
  0
LINE
  8
0
 10
-52.3116
 20
10.5059
 11
-52.6884
 21
10.5059
  0
LINE
  8
0
 10
7.31161
 20
10.5059
 11
6.93785
 21
10.5531
  0
LINE
  8
0
 10
6.93785
 20
10.5531
 11
6.57294
 21
10.6468
  0
LINE
  8
0
 10
6.57294
 20
10.6468
 11
6.22266
 21
10.7855
  0
LINE
  8
0
 10
6.22266
 20
10.7855
 11
5.89252
 21
10.967
  0
LINE
  8
0
 10
5.89252
 20
10.967
 11
5.58772
 21
11.1884
  0
LINE
  8
0
 10
5.58772
 20
11.1884
 11
5.31308
 21
11.4464
  0
LINE
  8
0
 10
5.31308
 20
11.4464
 11
5.07294
 21
11.7366
  0
LINE
  8
0
 10
5.07294
 20
11.7366
 11
4.87108
 21
12.0547
  0
LINE
  8
0
 10
4.87108
 20
12.0547
 11
4.71066
 21
12.3956
  0
LINE
  8
0
 10
4.71066
 20
12.3956
 11
4.59424
 21
12.7539
  0
LINE
  8
0
 10
4.59424
 20
12.7539
 11
4.52365
 21
13.124
  0
LINE
  8
0
 10
4.52365
 20
13.124
 11
4.5
 21
13.5
  0
LINE
  8
0
 10
4.5
 20
13.5
 11
4.52365
 21
13.876
  0
LINE
  8
0
 10
4.52365
 20
13.876
 11
4.59424
 21
14.2461
  0
LINE
  8
0
 10
4.59424
 20
14.2461
 11
4.71066
 21
14.6044
  0
LINE
  8
0
 10
4.71066
 20
14.6044
 11
4.87108
 21
14.9453
  0
LINE
  8
0
 10
4.87108
 20
14.9453
 11
5.07294
 21
15.2634
  0
LINE
  8
0
 10
5.07294
 20
15.2634
 11
5.31308
 21
15.5536
  0
LINE
  8
0
 10
5.31308
 20
15.5536
 11
5.58772
 21
15.8115
  0
LINE
  8
0
 10
5.58772
 20
15.8115
 11
5.89252
 21
16.033
  0
LINE
  8
0
 10
5.89252
 20
16.033
 11
6.22266
 21
16.2145
  0
LINE
  8
0
 10
6.22266
 20
16.2145
 11
6.57294
 21
16.3532
  0
LINE
  8
0
 10
6.57294
 20
16.3532
 11
6.93785
 21
16.4469
  0
LINE
  8
0
 10
6.93785
 20
16.4469
 11
7.31161
 21
16.4941
  0
LINE
  8
0
 10
7.31161
 20
16.4941
 11
7.68837
 21
16.4941
  0
LINE
  8
0
 10
7.68837
 20
16.4941
 11
8.06213
 21
16.4469
  0
LINE
  8
0
 10
8.06213
 20
16.4469
 11
8.42705
 21
16.3532
  0
LINE
  8
0
 10
8.42705
 20
16.3532
 11
8.77733
 21
16.2145
  0
LINE
  8
0
 10
8.77733
 20
16.2145
 11
9.10747
 21
16.033
  0
LINE
  8
0
 10
9.10747
 20
16.033
 11
9.41226
 21
15.8115
  0
LINE
  8
0
 10
9.41226
 20
15.8115
 11
9.6869
 21
15.5536
  0
LINE
  8
0
 10
9.6869
 20
15.5536
 11
9.92705
 21
15.2634
  0
LINE
  8
0
 10
9.92705
 20
15.2634
 11
10.1289
 21
14.9453
  0
LINE
  8
0
 10
10.1289
 20
14.9453
 11
10.2893
 21
14.6044
  0
LINE
  8
0
 10
10.2893
 20
14.6044
 11
10.4057
 21
14.2461
  0
LINE
  8
0
 10
10.4057
 20
14.2461
 11
10.4763
 21
13.876
  0
LINE
  8
0
 10
10.4763
 20
13.876
 11
10.5
 21
13.5
  0
LINE
  8
0
 10
10.5
 20
13.5
 11
10.4763
 21
13.124
  0
LINE
  8
0
 10
10.4763
 20
13.124
 11
10.4057
 21
12.7539
  0
LINE
  8
0
 10
10.4057
 20
12.7539
 11
10.2893
 21
12.3956
  0
LINE
  8
0
 10
10.2893
 20
12.3956
 11
10.1289
 21
12.0547
  0
LINE
  8
0
 10
10.1289
 20
12.0547
 11
9.92705
 21
11.7366
  0
LINE
  8
0
 10
9.92705
 20
11.7366
 11
9.6869
 21
11.4464
  0
LINE
  8
0
 10
9.6869
 20
11.4464
 11
9.41226
 21
11.1884
  0
LINE
  8
0
 10
9.41226
 20
11.1884
 11
9.10747
 21
10.967
  0
LINE
  8
0
 10
9.10747
 20
10.967
 11
8.77733
 21
10.7855
  0
LINE
  8
0
 10
8.77733
 20
10.7855
 11
8.42705
 21
10.6468
  0
LINE
  8
0
 10
8.42705
 20
10.6468
 11
8.06213
 21
10.5531
  0
LINE
  8
0
 10
8.06213
 20
10.5531
 11
7.68837
 21
10.5059
  0
LINE
  8
0
 10
7.68837
 20
10.5059
 11
7.31161
 21
10.5059
  0
LINE
  8
0
 10
-30.0993
 20
11.9208
 11
-30.2965
 21
11.9457
  0
LINE
  8
0
 10
-30.2965
 20
11.9457
 11
-30.489
 21
11.9951
  0
LINE
  8
0
 10
-30.489
 20
11.9951
 11
-30.6737
 21
12.0682
  0
LINE
  8
0
 10
-30.6737
 20
12.0682
 11
-30.8479
 21
12.164
  0
LINE
  8
0
 10
-30.8479
 20
12.164
 11
-31.0086
 21
12.2808
  0
LINE
  8
0
 10
-31.0086
 20
12.2808
 11
-31.1535
 21
12.4168
  0
LINE
  8
0
 10
-31.1535
 20
12.4168
 11
-31.2801
 21
12.5699
  0
LINE
  8
0
 10
-31.2801
 20
12.5699
 11
-31.3866
 21
12.7377
  0
LINE
  8
0
 10
-31.3866
 20
12.7377
 11
-31.4712
 21
12.9175
  0
LINE
  8
0
 10
-31.4712
 20
12.9175
 11
-31.5326
 21
13.1065
  0
LINE
  8
0
 10
-31.5326
 20
13.1065
 11
-31.5699
 21
13.3017
  0
LINE
  8
0
 10
-31.5699
 20
13.3017
 11
-31.5824
 21
13.5
  0
LINE
  8
0
 10
-31.5824
 20
13.5
 11
-31.5699
 21
13.6983
  0
LINE
  8
0
 10
-31.5699
 20
13.6983
 11
-31.5326
 21
13.8935
  0
LINE
  8
0
 10
-31.5326
 20
13.8935
 11
-31.4712
 21
14.0825
  0
LINE
  8
0
 10
-31.4712
 20
14.0825
 11
-31.3866
 21
14.2623
  0
LINE
  8
0
 10
-31.3866
 20
14.2623
 11
-31.2801
 21
14.4301
  0
LINE
  8
0
 10
-31.2801
 20
14.4301
 11
-31.1535
 21
14.5832
  0
LINE
  8
0
 10
-31.1535
 20
14.5832
 11
-31.0086
 21
14.7192
  0
LINE
  8
0
 10
-31.0086
 20
14.7192
 11
-30.8479
 21
14.836
  0
LINE
  8
0
 10
-30.8479
 20
14.836
 11
-30.6737
 21
14.9317
  0
LINE
  8
0
 10
-30.6737
 20
14.9317
 11
-30.489
 21
15.0049
  0
LINE
  8
0
 10
-30.489
 20
15.0049
 11
-30.2965
 21
15.0543
  0
LINE
  8
0
 10
-30.2965
 20
15.0543
 11
-30.0993
 21
15.0792
  0
LINE
  8
0
 10
-30.0993
 20
15.0792
 11
-29.9006
 21
15.0792
  0
LINE
  8
0
 10
-29.9006
 20
15.0792
 11
-29.7035
 21
15.0543
  0
LINE
  8
0
 10
-29.7035
 20
15.0543
 11
-29.511
 21
15.0049
  0
LINE
  8
0
 10
-29.511
 20
15.0049
 11
-29.3263
 21
14.9317
  0
LINE
  8
0
 10
-29.3263
 20
14.9317
 11
-29.1521
 21
14.836
  0
LINE
  8
0
 10
-29.1521
 20
14.836
 11
-28.9914
 21
14.7192
  0
LINE
  8
0
 10
-28.9914
 20
14.7192
 11
-28.8465
 21
14.5832
  0
LINE
  8
0
 10
-28.8465
 20
14.5832
 11
-28.7198
 21
14.4301
  0
LINE
  8
0
 10
-28.7198
 20
14.4301
 11
-28.6134
 21
14.2623
  0
LINE
  8
0
 10
-28.6134
 20
14.2623
 11
-28.5288
 21
14.0825
  0
LINE
  8
0
 10
-28.5288
 20
14.0825
 11
-28.4673
 21
13.8935
  0
LINE
  8
0
 10
-28.4673
 20
13.8935
 11
-28.4301
 21
13.6983
  0
LINE
  8
0
 10
-28.4301
 20
13.6983
 11
-28.4176
 21
13.5
  0
LINE
  8
0
 10
-28.4176
 20
13.5
 11
-28.4301
 21
13.3017
  0
LINE
  8
0
 10
-28.4301
 20
13.3017
 11
-28.4673
 21
13.1065
  0
LINE
  8
0
 10
-28.4673
 20
13.1065
 11
-28.5288
 21
12.9175
  0
LINE
  8
0
 10
-28.5288
 20
12.9175
 11
-28.6134
 21
12.7377
  0
LINE
  8
0
 10
-28.6134
 20
12.7377
 11
-28.7198
 21
12.5699
  0
LINE
  8
0
 10
-28.7198
 20
12.5699
 11
-28.8465
 21
12.4168
  0
LINE
  8
0
 10
-28.8465
 20
12.4168
 11
-28.9914
 21
12.2808
  0
LINE
  8
0
 10
-28.9914
 20
12.2808
 11
-29.1521
 21
12.164
  0
LINE
  8
0
 10
-29.1521
 20
12.164
 11
-29.3263
 21
12.0682
  0
LINE
  8
0
 10
-29.3263
 20
12.0682
 11
-29.511
 21
11.9951
  0
LINE
  8
0
 10
-29.511
 20
11.9951
 11
-29.7035
 21
11.9457
  0
LINE
  8
0
 10
-29.7035
 20
11.9457
 11
-29.9006
 21
11.9208
  0
LINE
  8
0
 10
-29.9006
 20
11.9208
 11
-30.0993
 21
11.9208
  0
LINE
  8
0
 10
33.9281
 20
3.59999
 11
33.9281
 21
9
  0
LINE
  8
0
 10
33.9281
 20
9
 11
41.0719
 21
9
  0
LINE
  8
0
 10
41.0719
 20
9
 11
41.0719
 21
3.59999
  0
LINE
  8
0
 10
41.0719
 20
3.59999
 11
33.9281
 21
3.59999
  0
LINE
  8
0
 10
-56.0719
 20
3.59999
 11
-56.0719
 21
9
  0
LINE
  8
0
 10
-56.0719
 20
9
 11
-48.9281
 21
9
  0
LINE
  8
0
 10
-48.9281
 20
9
 11
-48.9281
 21
3.59999
  0
LINE
  8
0
 10
-48.9281
 20
3.59999
 11
-56.0719
 21
3.59999
  0
LINE
  8
0
 10
-26.0719
 20
3.59999
 11
-26.0719
 21
9
  0
LINE
  8
0
 10
-26.0719
 20
9
 11
-18.9281
 21
9
  0
LINE
  8
0
 10
-18.9281
 20
9
 11
-18.9281
 21
3.59999
  0
LINE
  8
0
 10
-18.9281
 20
3.59999
 11
-26.0719
 21
3.59999
  0
LINE
  8
0
 10
-11.0719
 20
3.59999
 11
-11.0719
 21
9
  0
LINE
  8
0
 10
-11.0719
 20
9
 11
-3.92809
 21
9
  0
LINE
  8
0
 10
-3.92809
 20
9
 11
-3.92809
 21
3.59999
  0
LINE
  8
0
 10
-3.92809
 20
3.59999
 11
-11.0719
 21
3.59999
  0
LINE
  8
0
 10
-41.0719
 20
3.59999
 11
-41.0719
 21
9
  0
LINE
  8
0
 10
-41.0719
 20
9
 11
-33.9281
 21
9
  0
LINE
  8
0
 10
-33.9281
 20
9
 11
-33.9281
 21
3.59999
  0
LINE
  8
0
 10
-33.9281
 20
3.59999
 11
-41.0719
 21
3.59999
  0
LINE
  8
0
 10
48.9281
 20
3.59999
 11
48.9281
 21
9
  0
LINE
  8
0
 10
48.9281
 20
9
 11
56.0719
 21
9
  0
LINE
  8
0
 10
56.0719
 20
9
 11
56.0719
 21
3.59999
  0
LINE
  8
0
 10
56.0719
 20
3.59999
 11
48.9281
 21
3.59999
  0
LINE
  8
0
 10
3.92809
 20
3.59999
 11
3.92809
 21
9
  0
LINE
  8
0
 10
3.92809
 20
9
 11
11.0719
 21
9
  0
LINE
  8
0
 10
11.0719
 20
9
 11
11.0719
 21
3.59999
  0
LINE
  8
0
 10
11.0719
 20
3.59999
 11
3.92809
 21
3.59999
  0
LINE
  8
0
 10
18.9281
 20
3.59999
 11
18.9281
 21
9
  0
LINE
  8
0
 10
18.9281
 20
9
 11
26.0719
 21
9
  0
LINE
  8
0
 10
26.0719
 20
9
 11
26.0719
 21
3.59999
  0
LINE
  8
0
 10
26.0719
 20
3.59999
 11
18.9281
 21
3.59999
  0
ENDSEC
  0
SECTION
  2
OBJECTS
  0
DICTIONARY
  0
ENDSEC
  0
EOF
