  0
SECTION
  2
BLOCKS
  0
ENDSEC
  0
SECTION
  2
ENTITIES
  0
LINE
  8
0
 10
32.9369
 20
719.089
 11
33.5451
 21
719.245
  0
LINE
  8
0
 10
33.5451
 20
719.245
 11
34.1289
 21
719.476
  0
LINE
  8
0
 10
34.1289
 20
719.476
 11
34.6791
 21
719.778
  0
LINE
  8
0
 10
34.6791
 20
719.778
 11
35.1871
 21
720.147
  0
LINE
  8
0
 10
35.1871
 20
720.147
 11
35.6448
 21
720.577
  0
LINE
  8
0
 10
35.6448
 20
720.577
 11
36.0451
 21
721.061
  0
LINE
  8
0
 10
36.0451
 20
721.061
 11
36.3815
 21
721.591
  0
LINE
  8
0
 10
36.3815
 20
721.591
 11
36.6489
 21
722.159
  0
LINE
  8
0
 10
36.6489
 20
722.159
 11
36.8429
 21
722.757
  0
LINE
  8
0
 10
36.8429
 20
722.757
 11
36.9606
 21
723.373
  0
LINE
  8
0
 10
36.9606
 20
723.373
 11
37
 21
724
  0
LINE
  8
0
 10
37
 20
724
 11
37
 21
788
  0
LINE
  8
0
 10
37
 20
788
 11
36.9606
 21
788.627
  0
LINE
  8
0
 10
36.9606
 20
788.627
 11
36.8429
 21
789.243
  0
LINE
  8
0
 10
36.8429
 20
789.243
 11
36.6489
 21
789.841
  0
LINE
  8
0
 10
36.6489
 20
789.841
 11
36.3815
 21
790.409
  0
LINE
  8
0
 10
36.3815
 20
790.409
 11
36.0451
 21
790.939
  0
LINE
  8
0
 10
36.0451
 20
790.939
 11
35.6448
 21
791.423
  0
LINE
  8
0
 10
35.6448
 20
791.423
 11
35.1871
 21
791.853
  0
LINE
  8
0
 10
35.1871
 20
791.853
 11
34.6791
 21
792.222
  0
LINE
  8
0
 10
34.6791
 20
792.222
 11
34.1289
 21
792.524
  0
LINE
  8
0
 10
34.1289
 20
792.524
 11
33.5451
 21
792.755
  0
LINE
  8
0
 10
33.5451
 20
792.755
 11
32.9369
 21
792.911
  0
LINE
  8
0
 10
32.9369
 20
792.911
 11
32.3139
 21
792.99
  0
LINE
  8
0
 10
32.3139
 20
792.99
 11
-32.3139
 21
792.99
  0
LINE
  8
0
 10
-32.3139
 20
792.99
 11
-32.9369
 21
792.911
  0
LINE
  8
0
 10
-32.9369
 20
792.911
 11
-33.5451
 21
792.755
  0
LINE
  8
0
 10
-33.5451
 20
792.755
 11
-34.1289
 21
792.524
  0
LINE
  8
0
 10
-34.1289
 20
792.524
 11
-34.6791
 21
792.222
  0
LINE
  8
0
 10
-34.6791
 20
792.222
 11
-35.1871
 21
791.853
  0
LINE
  8
0
 10
-35.1871
 20
791.853
 11
-35.6448
 21
791.423
  0
LINE
  8
0
 10
-35.6448
 20
791.423
 11
-36.0451
 21
790.939
  0
LINE
  8
0
 10
-36.0451
 20
790.939
 11
-36.3815
 21
790.409
  0
LINE
  8
0
 10
-36.3815
 20
790.409
 11
-36.6489
 21
789.841
  0
LINE
  8
0
 10
-36.6489
 20
789.841
 11
-36.8429
 21
789.243
  0
LINE
  8
0
 10
-36.8429
 20
789.243
 11
-36.9606
 21
788.627
  0
LINE
  8
0
 10
-36.9606
 20
788.627
 11
-37
 21
788
  0
LINE
  8
0
 10
-37
 20
788
 11
-37
 21
724
  0
LINE
  8
0
 10
-37
 20
724
 11
-36.9606
 21
723.373
  0
LINE
  8
0
 10
-36.9606
 20
723.373
 11
-36.8429
 21
722.757
  0
LINE
  8
0
 10
-36.8429
 20
722.757
 11
-36.6489
 21
722.159
  0
LINE
  8
0
 10
-36.6489
 20
722.159
 11
-36.3815
 21
721.591
  0
LINE
  8
0
 10
-36.3815
 20
721.591
 11
-36.0451
 21
721.061
  0
LINE
  8
0
 10
-36.0451
 20
721.061
 11
-35.6448
 21
720.577
  0
LINE
  8
0
 10
-35.6448
 20
720.577
 11
-35.1871
 21
720.147
  0
LINE
  8
0
 10
-35.1871
 20
720.147
 11
-34.6791
 21
719.778
  0
LINE
  8
0
 10
-34.6791
 20
719.778
 11
-34.1289
 21
719.476
  0
LINE
  8
0
 10
-34.1289
 20
719.476
 11
-33.5451
 21
719.245
  0
LINE
  8
0
 10
-33.5451
 20
719.245
 11
-32.9369
 21
719.089
  0
LINE
  8
0
 10
-32.9369
 20
719.089
 11
-32.3139
 21
719.01
  0
LINE
  8
0
 10
-32.3139
 20
719.01
 11
32.3139
 21
719.01
  0
LINE
  8
0
 10
32.3139
 20
719.01
 11
32.9369
 21
719.089
  0
LINE
  8
0
 10
-32.2512
 20
720.008
 11
-32.7495
 21
720.071
  0
LINE
  8
0
 10
-32.7495
 20
720.071
 11
-33.2361
 21
720.196
  0
LINE
  8
0
 10
-33.2361
 20
720.196
 11
-33.7031
 21
720.381
  0
LINE
  8
0
 10
-33.7031
 20
720.381
 11
-34.1433
 21
720.623
  0
LINE
  8
0
 10
-34.1433
 20
720.623
 11
-34.5497
 21
720.918
  0
LINE
  8
0
 10
-34.5497
 20
720.918
 11
-34.9159
 21
721.262
  0
LINE
  8
0
 10
-34.9159
 20
721.262
 11
-35.2361
 21
721.649
  0
LINE
  8
0
 10
-35.2361
 20
721.649
 11
-35.5052
 21
722.073
  0
LINE
  8
0
 10
-35.5052
 20
722.073
 11
-35.7191
 21
722.528
  0
LINE
  8
0
 10
-35.7191
 20
722.528
 11
-35.8743
 21
723.005
  0
LINE
  8
0
 10
-35.8743
 20
723.005
 11
-35.9685
 21
723.499
  0
LINE
  8
0
 10
-35.9685
 20
723.499
 11
-36
 21
724
  0
LINE
  8
0
 10
-36
 20
724
 11
-36
 21
788
  0
LINE
  8
0
 10
-36
 20
788
 11
-35.9685
 21
788.501
  0
LINE
  8
0
 10
-35.9685
 20
788.501
 11
-35.8743
 21
788.995
  0
LINE
  8
0
 10
-35.8743
 20
788.995
 11
-35.7191
 21
789.472
  0
LINE
  8
0
 10
-35.7191
 20
789.472
 11
-35.5052
 21
789.927
  0
LINE
  8
0
 10
-35.5052
 20
789.927
 11
-35.2361
 21
790.351
  0
LINE
  8
0
 10
-35.2361
 20
790.351
 11
-34.9159
 21
790.738
  0
LINE
  8
0
 10
-34.9159
 20
790.738
 11
-34.5497
 21
791.082
  0
LINE
  8
0
 10
-34.5497
 20
791.082
 11
-34.1433
 21
791.377
  0
LINE
  8
0
 10
-34.1433
 20
791.377
 11
-33.7031
 21
791.619
  0
LINE
  8
0
 10
-33.7031
 20
791.619
 11
-33.2361
 21
791.804
  0
LINE
  8
0
 10
-33.2361
 20
791.804
 11
-32.7495
 21
791.929
  0
LINE
  8
0
 10
-32.7495
 20
791.929
 11
-32.2512
 21
791.992
  0
LINE
  8
0
 10
-32.2512
 20
791.992
 11
32.2512
 21
791.992
  0
LINE
  8
0
 10
32.2512
 20
791.992
 11
32.7495
 21
791.929
  0
LINE
  8
0
 10
32.7495
 20
791.929
 11
33.2361
 21
791.804
  0
LINE
  8
0
 10
33.2361
 20
791.804
 11
33.7031
 21
791.619
  0
LINE
  8
0
 10
33.7031
 20
791.619
 11
34.1433
 21
791.377
  0
LINE
  8
0
 10
34.1433
 20
791.377
 11
34.5497
 21
791.082
  0
LINE
  8
0
 10
34.5497
 20
791.082
 11
34.9159
 21
790.738
  0
LINE
  8
0
 10
34.9159
 20
790.738
 11
35.2361
 21
790.351
  0
LINE
  8
0
 10
35.2361
 20
790.351
 11
35.5052
 21
789.927
  0
LINE
  8
0
 10
35.5052
 20
789.927
 11
35.7191
 21
789.472
  0
LINE
  8
0
 10
35.7191
 20
789.472
 11
35.8743
 21
788.995
  0
LINE
  8
0
 10
35.8743
 20
788.995
 11
35.9685
 21
788.501
  0
LINE
  8
0
 10
35.9685
 20
788.501
 11
36
 21
788
  0
LINE
  8
0
 10
36
 20
788
 11
36
 21
724
  0
LINE
  8
0
 10
36
 20
724
 11
35.9685
 21
723.499
  0
LINE
  8
0
 10
35.9685
 20
723.499
 11
35.8743
 21
723.005
  0
LINE
  8
0
 10
35.8743
 20
723.005
 11
35.7191
 21
722.528
  0
LINE
  8
0
 10
35.7191
 20
722.528
 11
35.5052
 21
722.073
  0
LINE
  8
0
 10
35.5052
 20
722.073
 11
35.2361
 21
721.649
  0
LINE
  8
0
 10
35.2361
 20
721.649
 11
34.9159
 21
721.262
  0
LINE
  8
0
 10
34.9159
 20
721.262
 11
34.5497
 21
720.918
  0
LINE
  8
0
 10
34.5497
 20
720.918
 11
34.1433
 21
720.623
  0
LINE
  8
0
 10
34.1433
 20
720.623
 11
33.7031
 21
720.381
  0
LINE
  8
0
 10
33.7031
 20
720.381
 11
33.2361
 21
720.196
  0
LINE
  8
0
 10
33.2361
 20
720.196
 11
32.7495
 21
720.071
  0
LINE
  8
0
 10
32.7495
 20
720.071
 11
32.2512
 21
720.008
  0
LINE
  8
0
 10
32.2512
 20
720.008
 11
-32.2512
 21
720.008
  0
LINE
  8
0
 10
32.9369
 20
635.089
 11
33.5451
 21
635.245
  0
LINE
  8
0
 10
33.5451
 20
635.245
 11
34.1289
 21
635.476
  0
LINE
  8
0
 10
34.1289
 20
635.476
 11
34.6791
 21
635.778
  0
LINE
  8
0
 10
34.6791
 20
635.778
 11
35.1871
 21
636.147
  0
LINE
  8
0
 10
35.1871
 20
636.147
 11
35.6448
 21
636.577
  0
LINE
  8
0
 10
35.6448
 20
636.577
 11
36.0451
 21
637.061
  0
LINE
  8
0
 10
36.0451
 20
637.061
 11
36.3815
 21
637.591
  0
LINE
  8
0
 10
36.3815
 20
637.591
 11
36.6489
 21
638.159
  0
LINE
  8
0
 10
36.6489
 20
638.159
 11
36.8429
 21
638.757
  0
LINE
  8
0
 10
36.8429
 20
638.757
 11
36.9606
 21
639.373
  0
LINE
  8
0
 10
36.9606
 20
639.373
 11
37
 21
640
  0
LINE
  8
0
 10
37
 20
640
 11
37
 21
704
  0
LINE
  8
0
 10
37
 20
704
 11
36.9606
 21
704.627
  0
LINE
  8
0
 10
36.9606
 20
704.627
 11
36.8429
 21
705.243
  0
LINE
  8
0
 10
36.8429
 20
705.243
 11
36.6489
 21
705.841
  0
LINE
  8
0
 10
36.6489
 20
705.841
 11
36.3815
 21
706.409
  0
LINE
  8
0
 10
36.3815
 20
706.409
 11
36.0451
 21
706.939
  0
LINE
  8
0
 10
36.0451
 20
706.939
 11
35.6448
 21
707.423
  0
LINE
  8
0
 10
35.6448
 20
707.423
 11
35.1871
 21
707.853
  0
LINE
  8
0
 10
35.1871
 20
707.853
 11
34.6791
 21
708.222
  0
LINE
  8
0
 10
34.6791
 20
708.222
 11
34.1289
 21
708.524
  0
LINE
  8
0
 10
34.1289
 20
708.524
 11
33.5451
 21
708.755
  0
LINE
  8
0
 10
33.5451
 20
708.755
 11
32.9369
 21
708.911
  0
LINE
  8
0
 10
32.9369
 20
708.911
 11
32.3139
 21
708.99
  0
LINE
  8
0
 10
32.3139
 20
708.99
 11
-32.3139
 21
708.99
  0
LINE
  8
0
 10
-32.3139
 20
708.99
 11
-32.9369
 21
708.911
  0
LINE
  8
0
 10
-32.9369
 20
708.911
 11
-33.5451
 21
708.755
  0
LINE
  8
0
 10
-33.5451
 20
708.755
 11
-34.1289
 21
708.524
  0
LINE
  8
0
 10
-34.1289
 20
708.524
 11
-34.6791
 21
708.222
  0
LINE
  8
0
 10
-34.6791
 20
708.222
 11
-35.1871
 21
707.853
  0
LINE
  8
0
 10
-35.1871
 20
707.853
 11
-35.6448
 21
707.423
  0
LINE
  8
0
 10
-35.6448
 20
707.423
 11
-36.0451
 21
706.939
  0
LINE
  8
0
 10
-36.0451
 20
706.939
 11
-36.3815
 21
706.409
  0
LINE
  8
0
 10
-36.3815
 20
706.409
 11
-36.6489
 21
705.841
  0
LINE
  8
0
 10
-36.6489
 20
705.841
 11
-36.8429
 21
705.243
  0
LINE
  8
0
 10
-36.8429
 20
705.243
 11
-36.9606
 21
704.627
  0
LINE
  8
0
 10
-36.9606
 20
704.627
 11
-37
 21
704
  0
LINE
  8
0
 10
-37
 20
704
 11
-37
 21
640
  0
LINE
  8
0
 10
-37
 20
640
 11
-36.9606
 21
639.373
  0
LINE
  8
0
 10
-36.9606
 20
639.373
 11
-36.8429
 21
638.757
  0
LINE
  8
0
 10
-36.8429
 20
638.757
 11
-36.6489
 21
638.159
  0
LINE
  8
0
 10
-36.6489
 20
638.159
 11
-36.3815
 21
637.591
  0
LINE
  8
0
 10
-36.3815
 20
637.591
 11
-36.0451
 21
637.061
  0
LINE
  8
0
 10
-36.0451
 20
637.061
 11
-35.6448
 21
636.577
  0
LINE
  8
0
 10
-35.6448
 20
636.577
 11
-35.1871
 21
636.147
  0
LINE
  8
0
 10
-35.1871
 20
636.147
 11
-34.6791
 21
635.778
  0
LINE
  8
0
 10
-34.6791
 20
635.778
 11
-34.1289
 21
635.476
  0
LINE
  8
0
 10
-34.1289
 20
635.476
 11
-33.5451
 21
635.245
  0
LINE
  8
0
 10
-33.5451
 20
635.245
 11
-32.9369
 21
635.089
  0
LINE
  8
0
 10
-32.9369
 20
635.089
 11
-32.3139
 21
635.01
  0
LINE
  8
0
 10
-32.3139
 20
635.01
 11
32.3139
 21
635.01
  0
LINE
  8
0
 10
32.3139
 20
635.01
 11
32.9369
 21
635.089
  0
LINE
  8
0
 10
-32.2512
 20
636.008
 11
-32.7495
 21
636.071
  0
LINE
  8
0
 10
-32.7495
 20
636.071
 11
-33.2361
 21
636.196
  0
LINE
  8
0
 10
-33.2361
 20
636.196
 11
-33.7031
 21
636.381
  0
LINE
  8
0
 10
-33.7031
 20
636.381
 11
-34.1433
 21
636.623
  0
LINE
  8
0
 10
-34.1433
 20
636.623
 11
-34.5497
 21
636.918
  0
LINE
  8
0
 10
-34.5497
 20
636.918
 11
-34.9159
 21
637.262
  0
LINE
  8
0
 10
-34.9159
 20
637.262
 11
-35.2361
 21
637.649
  0
LINE
  8
0
 10
-35.2361
 20
637.649
 11
-35.5052
 21
638.073
  0
LINE
  8
0
 10
-35.5052
 20
638.073
 11
-35.7191
 21
638.528
  0
LINE
  8
0
 10
-35.7191
 20
638.528
 11
-35.8743
 21
639.005
  0
LINE
  8
0
 10
-35.8743
 20
639.005
 11
-35.9685
 21
639.499
  0
LINE
  8
0
 10
-35.9685
 20
639.499
 11
-36
 21
640
  0
LINE
  8
0
 10
-36
 20
640
 11
-36
 21
704
  0
LINE
  8
0
 10
-36
 20
704
 11
-35.9685
 21
704.501
  0
LINE
  8
0
 10
-35.9685
 20
704.501
 11
-35.8743
 21
704.995
  0
LINE
  8
0
 10
-35.8743
 20
704.995
 11
-35.7191
 21
705.472
  0
LINE
  8
0
 10
-35.7191
 20
705.472
 11
-35.5052
 21
705.927
  0
LINE
  8
0
 10
-35.5052
 20
705.927
 11
-35.2361
 21
706.351
  0
LINE
  8
0
 10
-35.2361
 20
706.351
 11
-34.9159
 21
706.738
  0
LINE
  8
0
 10
-34.9159
 20
706.738
 11
-34.5497
 21
707.082
  0
LINE
  8
0
 10
-34.5497
 20
707.082
 11
-34.1433
 21
707.377
  0
LINE
  8
0
 10
-34.1433
 20
707.377
 11
-33.7031
 21
707.619
  0
LINE
  8
0
 10
-33.7031
 20
707.619
 11
-33.2361
 21
707.804
  0
LINE
  8
0
 10
-33.2361
 20
707.804
 11
-32.7495
 21
707.929
  0
LINE
  8
0
 10
-32.7495
 20
707.929
 11
-32.2512
 21
707.992
  0
LINE
  8
0
 10
-32.2512
 20
707.992
 11
32.2512
 21
707.992
  0
LINE
  8
0
 10
32.2512
 20
707.992
 11
32.7495
 21
707.929
  0
LINE
  8
0
 10
32.7495
 20
707.929
 11
33.2361
 21
707.804
  0
LINE
  8
0
 10
33.2361
 20
707.804
 11
33.7031
 21
707.619
  0
LINE
  8
0
 10
33.7031
 20
707.619
 11
34.1433
 21
707.377
  0
LINE
  8
0
 10
34.1433
 20
707.377
 11
34.5497
 21
707.082
  0
LINE
  8
0
 10
34.5497
 20
707.082
 11
34.9159
 21
706.738
  0
LINE
  8
0
 10
34.9159
 20
706.738
 11
35.2361
 21
706.351
  0
LINE
  8
0
 10
35.2361
 20
706.351
 11
35.5052
 21
705.927
  0
LINE
  8
0
 10
35.5052
 20
705.927
 11
35.7191
 21
705.472
  0
LINE
  8
0
 10
35.7191
 20
705.472
 11
35.8743
 21
704.995
  0
LINE
  8
0
 10
35.8743
 20
704.995
 11
35.9685
 21
704.501
  0
LINE
  8
0
 10
35.9685
 20
704.501
 11
36
 21
704
  0
LINE
  8
0
 10
36
 20
704
 11
36
 21
640
  0
LINE
  8
0
 10
36
 20
640
 11
35.9685
 21
639.499
  0
LINE
  8
0
 10
35.9685
 20
639.499
 11
35.8743
 21
639.005
  0
LINE
  8
0
 10
35.8743
 20
639.005
 11
35.7191
 21
638.528
  0
LINE
  8
0
 10
35.7191
 20
638.528
 11
35.5052
 21
638.073
  0
LINE
  8
0
 10
35.5052
 20
638.073
 11
35.2361
 21
637.649
  0
LINE
  8
0
 10
35.2361
 20
637.649
 11
34.9159
 21
637.262
  0
LINE
  8
0
 10
34.9159
 20
637.262
 11
34.5497
 21
636.918
  0
LINE
  8
0
 10
34.5497
 20
636.918
 11
34.1433
 21
636.623
  0
LINE
  8
0
 10
34.1433
 20
636.623
 11
33.7031
 21
636.381
  0
LINE
  8
0
 10
33.7031
 20
636.381
 11
33.2361
 21
636.196
  0
LINE
  8
0
 10
33.2361
 20
636.196
 11
32.7495
 21
636.071
  0
LINE
  8
0
 10
32.7495
 20
636.071
 11
32.2512
 21
636.008
  0
LINE
  8
0
 10
32.2512
 20
636.008
 11
-32.2512
 21
636.008
  0
LINE
  8
0
 10
32.9369
 20
551.089
 11
33.5451
 21
551.245
  0
LINE
  8
0
 10
33.5451
 20
551.245
 11
34.1289
 21
551.476
  0
LINE
  8
0
 10
34.1289
 20
551.476
 11
34.6791
 21
551.778
  0
LINE
  8
0
 10
34.6791
 20
551.778
 11
35.1871
 21
552.147
  0
LINE
  8
0
 10
35.1871
 20
552.147
 11
35.6448
 21
552.577
  0
LINE
  8
0
 10
35.6448
 20
552.577
 11
36.0451
 21
553.061
  0
LINE
  8
0
 10
36.0451
 20
553.061
 11
36.3815
 21
553.591
  0
LINE
  8
0
 10
36.3815
 20
553.591
 11
36.6489
 21
554.159
  0
LINE
  8
0
 10
36.6489
 20
554.159
 11
36.8429
 21
554.757
  0
LINE
  8
0
 10
36.8429
 20
554.757
 11
36.9606
 21
555.373
  0
LINE
  8
0
 10
36.9606
 20
555.373
 11
37
 21
556
  0
LINE
  8
0
 10
37
 20
556
 11
37
 21
620
  0
LINE
  8
0
 10
37
 20
620
 11
36.9606
 21
620.627
  0
LINE
  8
0
 10
36.9606
 20
620.627
 11
36.8429
 21
621.243
  0
LINE
  8
0
 10
36.8429
 20
621.243
 11
36.6489
 21
621.841
  0
LINE
  8
0
 10
36.6489
 20
621.841
 11
36.3815
 21
622.409
  0
LINE
  8
0
 10
36.3815
 20
622.409
 11
36.0451
 21
622.939
  0
LINE
  8
0
 10
36.0451
 20
622.939
 11
35.6448
 21
623.423
  0
LINE
  8
0
 10
35.6448
 20
623.423
 11
35.1871
 21
623.853
  0
LINE
  8
0
 10
35.1871
 20
623.853
 11
34.6791
 21
624.222
  0
LINE
  8
0
 10
34.6791
 20
624.222
 11
34.1289
 21
624.524
  0
LINE
  8
0
 10
34.1289
 20
624.524
 11
33.5451
 21
624.755
  0
LINE
  8
0
 10
33.5451
 20
624.755
 11
32.9369
 21
624.911
  0
LINE
  8
0
 10
32.9369
 20
624.911
 11
32.3139
 21
624.99
  0
LINE
  8
0
 10
32.3139
 20
624.99
 11
-32.3139
 21
624.99
  0
LINE
  8
0
 10
-32.3139
 20
624.99
 11
-32.9369
 21
624.911
  0
LINE
  8
0
 10
-32.9369
 20
624.911
 11
-33.5451
 21
624.755
  0
LINE
  8
0
 10
-33.5451
 20
624.755
 11
-34.1289
 21
624.524
  0
LINE
  8
0
 10
-34.1289
 20
624.524
 11
-34.6791
 21
624.222
  0
LINE
  8
0
 10
-34.6791
 20
624.222
 11
-35.1871
 21
623.853
  0
LINE
  8
0
 10
-35.1871
 20
623.853
 11
-35.6448
 21
623.423
  0
LINE
  8
0
 10
-35.6448
 20
623.423
 11
-36.0451
 21
622.939
  0
LINE
  8
0
 10
-36.0451
 20
622.939
 11
-36.3815
 21
622.409
  0
LINE
  8
0
 10
-36.3815
 20
622.409
 11
-36.6489
 21
621.841
  0
LINE
  8
0
 10
-36.6489
 20
621.841
 11
-36.8429
 21
621.243
  0
LINE
  8
0
 10
-36.8429
 20
621.243
 11
-36.9606
 21
620.627
  0
LINE
  8
0
 10
-36.9606
 20
620.627
 11
-37
 21
620
  0
LINE
  8
0
 10
-37
 20
620
 11
-37
 21
556
  0
LINE
  8
0
 10
-37
 20
556
 11
-36.9606
 21
555.373
  0
LINE
  8
0
 10
-36.9606
 20
555.373
 11
-36.8429
 21
554.757
  0
LINE
  8
0
 10
-36.8429
 20
554.757
 11
-36.6489
 21
554.159
  0
LINE
  8
0
 10
-36.6489
 20
554.159
 11
-36.3815
 21
553.591
  0
LINE
  8
0
 10
-36.3815
 20
553.591
 11
-36.0451
 21
553.061
  0
LINE
  8
0
 10
-36.0451
 20
553.061
 11
-35.6448
 21
552.577
  0
LINE
  8
0
 10
-35.6448
 20
552.577
 11
-35.1871
 21
552.147
  0
LINE
  8
0
 10
-35.1871
 20
552.147
 11
-34.6791
 21
551.778
  0
LINE
  8
0
 10
-34.6791
 20
551.778
 11
-34.1289
 21
551.476
  0
LINE
  8
0
 10
-34.1289
 20
551.476
 11
-33.5451
 21
551.245
  0
LINE
  8
0
 10
-33.5451
 20
551.245
 11
-32.9369
 21
551.089
  0
LINE
  8
0
 10
-32.9369
 20
551.089
 11
-32.3139
 21
551.01
  0
LINE
  8
0
 10
-32.3139
 20
551.01
 11
32.3139
 21
551.01
  0
LINE
  8
0
 10
32.3139
 20
551.01
 11
32.9369
 21
551.089
  0
LINE
  8
0
 10
-32.2512
 20
552.008
 11
-32.7495
 21
552.071
  0
LINE
  8
0
 10
-32.7495
 20
552.071
 11
-33.2361
 21
552.196
  0
LINE
  8
0
 10
-33.2361
 20
552.196
 11
-33.7031
 21
552.381
  0
LINE
  8
0
 10
-33.7031
 20
552.381
 11
-34.1433
 21
552.623
  0
LINE
  8
0
 10
-34.1433
 20
552.623
 11
-34.5497
 21
552.918
  0
LINE
  8
0
 10
-34.5497
 20
552.918
 11
-34.9159
 21
553.262
  0
LINE
  8
0
 10
-34.9159
 20
553.262
 11
-35.2361
 21
553.649
  0
LINE
  8
0
 10
-35.2361
 20
553.649
 11
-35.5052
 21
554.073
  0
LINE
  8
0
 10
-35.5052
 20
554.073
 11
-35.7191
 21
554.528
  0
LINE
  8
0
 10
-35.7191
 20
554.528
 11
-35.8743
 21
555.005
  0
LINE
  8
0
 10
-35.8743
 20
555.005
 11
-35.9685
 21
555.499
  0
LINE
  8
0
 10
-35.9685
 20
555.499
 11
-36
 21
556
  0
LINE
  8
0
 10
-36
 20
556
 11
-36
 21
620
  0
LINE
  8
0
 10
-36
 20
620
 11
-35.9685
 21
620.501
  0
LINE
  8
0
 10
-35.9685
 20
620.501
 11
-35.8743
 21
620.995
  0
LINE
  8
0
 10
-35.8743
 20
620.995
 11
-35.7191
 21
621.472
  0
LINE
  8
0
 10
-35.7191
 20
621.472
 11
-35.5052
 21
621.927
  0
LINE
  8
0
 10
-35.5052
 20
621.927
 11
-35.2361
 21
622.351
  0
LINE
  8
0
 10
-35.2361
 20
622.351
 11
-34.9159
 21
622.738
  0
LINE
  8
0
 10
-34.9159
 20
622.738
 11
-34.5497
 21
623.082
  0
LINE
  8
0
 10
-34.5497
 20
623.082
 11
-34.1433
 21
623.377
  0
LINE
  8
0
 10
-34.1433
 20
623.377
 11
-33.7031
 21
623.619
  0
LINE
  8
0
 10
-33.7031
 20
623.619
 11
-33.2361
 21
623.804
  0
LINE
  8
0
 10
-33.2361
 20
623.804
 11
-32.7495
 21
623.929
  0
LINE
  8
0
 10
-32.7495
 20
623.929
 11
-32.2512
 21
623.992
  0
LINE
  8
0
 10
-32.2512
 20
623.992
 11
32.2512
 21
623.992
  0
LINE
  8
0
 10
32.2512
 20
623.992
 11
32.7495
 21
623.929
  0
LINE
  8
0
 10
32.7495
 20
623.929
 11
33.2361
 21
623.804
  0
LINE
  8
0
 10
33.2361
 20
623.804
 11
33.7031
 21
623.619
  0
LINE
  8
0
 10
33.7031
 20
623.619
 11
34.1433
 21
623.377
  0
LINE
  8
0
 10
34.1433
 20
623.377
 11
34.5497
 21
623.082
  0
LINE
  8
0
 10
34.5497
 20
623.082
 11
34.9159
 21
622.738
  0
LINE
  8
0
 10
34.9159
 20
622.738
 11
35.2361
 21
622.351
  0
LINE
  8
0
 10
35.2361
 20
622.351
 11
35.5052
 21
621.927
  0
LINE
  8
0
 10
35.5052
 20
621.927
 11
35.7191
 21
621.472
  0
LINE
  8
0
 10
35.7191
 20
621.472
 11
35.8743
 21
620.995
  0
LINE
  8
0
 10
35.8743
 20
620.995
 11
35.9685
 21
620.501
  0
LINE
  8
0
 10
35.9685
 20
620.501
 11
36
 21
620
  0
LINE
  8
0
 10
36
 20
620
 11
36
 21
556
  0
LINE
  8
0
 10
36
 20
556
 11
35.9685
 21
555.499
  0
LINE
  8
0
 10
35.9685
 20
555.499
 11
35.8743
 21
555.005
  0
LINE
  8
0
 10
35.8743
 20
555.005
 11
35.7191
 21
554.528
  0
LINE
  8
0
 10
35.7191
 20
554.528
 11
35.5052
 21
554.073
  0
LINE
  8
0
 10
35.5052
 20
554.073
 11
35.2361
 21
553.649
  0
LINE
  8
0
 10
35.2361
 20
553.649
 11
34.9159
 21
553.262
  0
LINE
  8
0
 10
34.9159
 20
553.262
 11
34.5497
 21
552.918
  0
LINE
  8
0
 10
34.5497
 20
552.918
 11
34.1433
 21
552.623
  0
LINE
  8
0
 10
34.1433
 20
552.623
 11
33.7031
 21
552.381
  0
LINE
  8
0
 10
33.7031
 20
552.381
 11
33.2361
 21
552.196
  0
LINE
  8
0
 10
33.2361
 20
552.196
 11
32.7495
 21
552.071
  0
LINE
  8
0
 10
32.7495
 20
552.071
 11
32.2512
 21
552.008
  0
LINE
  8
0
 10
32.2512
 20
552.008
 11
-32.2512
 21
552.008
  0
LINE
  8
0
 10
32.9369
 20
467.089
 11
33.5451
 21
467.245
  0
LINE
  8
0
 10
33.5451
 20
467.245
 11
34.1289
 21
467.476
  0
LINE
  8
0
 10
34.1289
 20
467.476
 11
34.6791
 21
467.778
  0
LINE
  8
0
 10
34.6791
 20
467.778
 11
35.1871
 21
468.147
  0
LINE
  8
0
 10
35.1871
 20
468.147
 11
35.6448
 21
468.577
  0
LINE
  8
0
 10
35.6448
 20
468.577
 11
36.0451
 21
469.061
  0
LINE
  8
0
 10
36.0451
 20
469.061
 11
36.3815
 21
469.591
  0
LINE
  8
0
 10
36.3815
 20
469.591
 11
36.6489
 21
470.159
  0
LINE
  8
0
 10
36.6489
 20
470.159
 11
36.8429
 21
470.757
  0
LINE
  8
0
 10
36.8429
 20
470.757
 11
36.9606
 21
471.373
  0
LINE
  8
0
 10
36.9606
 20
471.373
 11
37
 21
472
  0
LINE
  8
0
 10
37
 20
472
 11
37
 21
536
  0
LINE
  8
0
 10
37
 20
536
 11
36.9606
 21
536.627
  0
LINE
  8
0
 10
36.9606
 20
536.627
 11
36.8429
 21
537.243
  0
LINE
  8
0
 10
36.8429
 20
537.243
 11
36.6489
 21
537.841
  0
LINE
  8
0
 10
36.6489
 20
537.841
 11
36.3815
 21
538.409
  0
LINE
  8
0
 10
36.3815
 20
538.409
 11
36.0451
 21
538.939
  0
LINE
  8
0
 10
36.0451
 20
538.939
 11
35.6448
 21
539.423
  0
LINE
  8
0
 10
35.6448
 20
539.423
 11
35.1871
 21
539.853
  0
LINE
  8
0
 10
35.1871
 20
539.853
 11
34.6791
 21
540.222
  0
LINE
  8
0
 10
34.6791
 20
540.222
 11
34.1289
 21
540.524
  0
LINE
  8
0
 10
34.1289
 20
540.524
 11
33.5451
 21
540.755
  0
LINE
  8
0
 10
33.5451
 20
540.755
 11
32.9369
 21
540.911
  0
LINE
  8
0
 10
32.9369
 20
540.911
 11
32.3139
 21
540.99
  0
LINE
  8
0
 10
32.3139
 20
540.99
 11
-32.3139
 21
540.99
  0
LINE
  8
0
 10
-32.3139
 20
540.99
 11
-32.9369
 21
540.911
  0
LINE
  8
0
 10
-32.9369
 20
540.911
 11
-33.5451
 21
540.755
  0
LINE
  8
0
 10
-33.5451
 20
540.755
 11
-34.1289
 21
540.524
  0
LINE
  8
0
 10
-34.1289
 20
540.524
 11
-34.6791
 21
540.222
  0
LINE
  8
0
 10
-34.6791
 20
540.222
 11
-35.1871
 21
539.853
  0
LINE
  8
0
 10
-35.1871
 20
539.853
 11
-35.6448
 21
539.423
  0
LINE
  8
0
 10
-35.6448
 20
539.423
 11
-36.0451
 21
538.939
  0
LINE
  8
0
 10
-36.0451
 20
538.939
 11
-36.3815
 21
538.409
  0
LINE
  8
0
 10
-36.3815
 20
538.409
 11
-36.6489
 21
537.841
  0
LINE
  8
0
 10
-36.6489
 20
537.841
 11
-36.8429
 21
537.243
  0
LINE
  8
0
 10
-36.8429
 20
537.243
 11
-36.9606
 21
536.627
  0
LINE
  8
0
 10
-36.9606
 20
536.627
 11
-37
 21
536
  0
LINE
  8
0
 10
-37
 20
536
 11
-37
 21
472
  0
LINE
  8
0
 10
-37
 20
472
 11
-36.9606
 21
471.373
  0
LINE
  8
0
 10
-36.9606
 20
471.373
 11
-36.8429
 21
470.757
  0
LINE
  8
0
 10
-36.8429
 20
470.757
 11
-36.6489
 21
470.159
  0
LINE
  8
0
 10
-36.6489
 20
470.159
 11
-36.3815
 21
469.591
  0
LINE
  8
0
 10
-36.3815
 20
469.591
 11
-36.0451
 21
469.061
  0
LINE
  8
0
 10
-36.0451
 20
469.061
 11
-35.6448
 21
468.577
  0
LINE
  8
0
 10
-35.6448
 20
468.577
 11
-35.1871
 21
468.147
  0
LINE
  8
0
 10
-35.1871
 20
468.147
 11
-34.6791
 21
467.778
  0
LINE
  8
0
 10
-34.6791
 20
467.778
 11
-34.1289
 21
467.476
  0
LINE
  8
0
 10
-34.1289
 20
467.476
 11
-33.5451
 21
467.245
  0
LINE
  8
0
 10
-33.5451
 20
467.245
 11
-32.9369
 21
467.089
  0
LINE
  8
0
 10
-32.9369
 20
467.089
 11
-32.3139
 21
467.01
  0
LINE
  8
0
 10
-32.3139
 20
467.01
 11
32.3139
 21
467.01
  0
LINE
  8
0
 10
32.3139
 20
467.01
 11
32.9369
 21
467.089
  0
LINE
  8
0
 10
-32.1954
 20
468.893
 11
-32.5833
 21
468.942
  0
LINE
  8
0
 10
-32.5833
 20
468.942
 11
-32.9619
 21
469.039
  0
LINE
  8
0
 10
-32.9619
 20
469.039
 11
-33.3254
 21
469.183
  0
LINE
  8
0
 10
-33.3254
 20
469.183
 11
-33.668
 21
469.372
  0
LINE
  8
0
 10
-33.668
 20
469.372
 11
-33.9842
 21
469.601
  0
LINE
  8
0
 10
-33.9842
 20
469.601
 11
-34.2692
 21
469.869
  0
LINE
  8
0
 10
-34.2692
 20
469.869
 11
-34.5184
 21
470.17
  0
LINE
  8
0
 10
-34.5184
 20
470.17
 11
-34.7279
 21
470.5
  0
LINE
  8
0
 10
-34.7279
 20
470.5
 11
-34.8943
 21
470.854
  0
LINE
  8
0
 10
-34.8943
 20
470.854
 11
-35.0151
 21
471.226
  0
LINE
  8
0
 10
-35.0151
 20
471.226
 11
-35.0884
 21
471.61
  0
LINE
  8
0
 10
-35.0884
 20
471.61
 11
-35.1129
 21
472
  0
LINE
  8
0
 10
-35.1129
 20
472
 11
-35.1129
 21
536
  0
LINE
  8
0
 10
-35.1129
 20
536
 11
-35.0884
 21
536.39
  0
LINE
  8
0
 10
-35.0884
 20
536.39
 11
-35.0151
 21
536.774
  0
LINE
  8
0
 10
-35.0151
 20
536.774
 11
-34.8943
 21
537.146
  0
LINE
  8
0
 10
-34.8943
 20
537.146
 11
-34.7279
 21
537.5
  0
LINE
  8
0
 10
-34.7279
 20
537.5
 11
-34.5184
 21
537.83
  0
LINE
  8
0
 10
-34.5184
 20
537.83
 11
-34.2692
 21
538.131
  0
LINE
  8
0
 10
-34.2692
 20
538.131
 11
-33.9842
 21
538.399
  0
LINE
  8
0
 10
-33.9842
 20
538.399
 11
-33.668
 21
538.628
  0
LINE
  8
0
 10
-33.668
 20
538.628
 11
-33.3254
 21
538.817
  0
LINE
  8
0
 10
-33.3254
 20
538.817
 11
-32.9619
 21
538.961
  0
LINE
  8
0
 10
-32.9619
 20
538.961
 11
-32.5833
 21
539.058
  0
LINE
  8
0
 10
-32.5833
 20
539.058
 11
-32.1954
 21
539.107
  0
LINE
  8
0
 10
-32.1954
 20
539.107
 11
32.1954
 21
539.107
  0
LINE
  8
0
 10
32.1954
 20
539.107
 11
32.5833
 21
539.058
  0
LINE
  8
0
 10
32.5833
 20
539.058
 11
32.9619
 21
538.961
  0
LINE
  8
0
 10
32.9619
 20
538.961
 11
33.3254
 21
538.817
  0
LINE
  8
0
 10
33.3254
 20
538.817
 11
33.668
 21
538.628
  0
LINE
  8
0
 10
33.668
 20
538.628
 11
33.9842
 21
538.399
  0
LINE
  8
0
 10
33.9842
 20
538.399
 11
34.2692
 21
538.131
  0
LINE
  8
0
 10
34.2692
 20
538.131
 11
34.5184
 21
537.83
  0
LINE
  8
0
 10
34.5184
 20
537.83
 11
34.7279
 21
537.5
  0
LINE
  8
0
 10
34.7279
 20
537.5
 11
34.8943
 21
537.146
  0
LINE
  8
0
 10
34.8943
 20
537.146
 11
35.0151
 21
536.774
  0
LINE
  8
0
 10
35.0151
 20
536.774
 11
35.0884
 21
536.39
  0
LINE
  8
0
 10
35.0884
 20
536.39
 11
35.1129
 21
536
  0
LINE
  8
0
 10
35.1129
 20
536
 11
35.1129
 21
472
  0
LINE
  8
0
 10
35.1129
 20
472
 11
35.0884
 21
471.61
  0
LINE
  8
0
 10
35.0884
 20
471.61
 11
35.0151
 21
471.226
  0
LINE
  8
0
 10
35.0151
 20
471.226
 11
34.8943
 21
470.854
  0
LINE
  8
0
 10
34.8943
 20
470.854
 11
34.7279
 21
470.5
  0
LINE
  8
0
 10
34.7279
 20
470.5
 11
34.5184
 21
470.17
  0
LINE
  8
0
 10
34.5184
 20
470.17
 11
34.2692
 21
469.869
  0
LINE
  8
0
 10
34.2692
 20
469.869
 11
33.9842
 21
469.601
  0
LINE
  8
0
 10
33.9842
 20
469.601
 11
33.668
 21
469.372
  0
LINE
  8
0
 10
33.668
 20
469.372
 11
33.3254
 21
469.183
  0
LINE
  8
0
 10
33.3254
 20
469.183
 11
32.9619
 21
469.039
  0
LINE
  8
0
 10
32.9619
 20
469.039
 11
32.5833
 21
468.942
  0
LINE
  8
0
 10
32.5833
 20
468.942
 11
32.1954
 21
468.893
  0
LINE
  8
0
 10
32.1954
 20
468.893
 11
-32.1954
 21
468.893
  0
LINE
  8
0
 10
32.9369
 20
383.089
 11
33.5451
 21
383.245
  0
LINE
  8
0
 10
33.5451
 20
383.245
 11
34.1289
 21
383.476
  0
LINE
  8
0
 10
34.1289
 20
383.476
 11
34.6791
 21
383.778
  0
LINE
  8
0
 10
34.6791
 20
383.778
 11
35.1871
 21
384.147
  0
LINE
  8
0
 10
35.1871
 20
384.147
 11
35.6448
 21
384.577
  0
LINE
  8
0
 10
35.6448
 20
384.577
 11
36.0451
 21
385.061
  0
LINE
  8
0
 10
36.0451
 20
385.061
 11
36.3815
 21
385.591
  0
LINE
  8
0
 10
36.3815
 20
385.591
 11
36.6489
 21
386.159
  0
LINE
  8
0
 10
36.6489
 20
386.159
 11
36.8429
 21
386.757
  0
LINE
  8
0
 10
36.8429
 20
386.757
 11
36.9606
 21
387.373
  0
LINE
  8
0
 10
36.9606
 20
387.373
 11
37
 21
388
  0
LINE
  8
0
 10
37
 20
388
 11
37
 21
452
  0
LINE
  8
0
 10
37
 20
452
 11
36.9606
 21
452.627
  0
LINE
  8
0
 10
36.9606
 20
452.627
 11
36.8429
 21
453.243
  0
LINE
  8
0
 10
36.8429
 20
453.243
 11
36.6489
 21
453.841
  0
LINE
  8
0
 10
36.6489
 20
453.841
 11
36.3815
 21
454.409
  0
LINE
  8
0
 10
36.3815
 20
454.409
 11
36.0451
 21
454.939
  0
LINE
  8
0
 10
36.0451
 20
454.939
 11
35.6448
 21
455.423
  0
LINE
  8
0
 10
35.6448
 20
455.423
 11
35.1871
 21
455.853
  0
LINE
  8
0
 10
35.1871
 20
455.853
 11
34.6791
 21
456.222
  0
LINE
  8
0
 10
34.6791
 20
456.222
 11
34.1289
 21
456.524
  0
LINE
  8
0
 10
34.1289
 20
456.524
 11
33.5451
 21
456.755
  0
LINE
  8
0
 10
33.5451
 20
456.755
 11
32.9369
 21
456.911
  0
LINE
  8
0
 10
32.9369
 20
456.911
 11
32.3139
 21
456.99
  0
LINE
  8
0
 10
32.3139
 20
456.99
 11
-32.3139
 21
456.99
  0
LINE
  8
0
 10
-32.3139
 20
456.99
 11
-32.9369
 21
456.911
  0
LINE
  8
0
 10
-32.9369
 20
456.911
 11
-33.5451
 21
456.755
  0
LINE
  8
0
 10
-33.5451
 20
456.755
 11
-34.1289
 21
456.524
  0
LINE
  8
0
 10
-34.1289
 20
456.524
 11
-34.6791
 21
456.222
  0
LINE
  8
0
 10
-34.6791
 20
456.222
 11
-35.1871
 21
455.853
  0
LINE
  8
0
 10
-35.1871
 20
455.853
 11
-35.6448
 21
455.423
  0
LINE
  8
0
 10
-35.6448
 20
455.423
 11
-36.0451
 21
454.939
  0
LINE
  8
0
 10
-36.0451
 20
454.939
 11
-36.3815
 21
454.409
  0
LINE
  8
0
 10
-36.3815
 20
454.409
 11
-36.6489
 21
453.841
  0
LINE
  8
0
 10
-36.6489
 20
453.841
 11
-36.8429
 21
453.243
  0
LINE
  8
0
 10
-36.8429
 20
453.243
 11
-36.9606
 21
452.627
  0
LINE
  8
0
 10
-36.9606
 20
452.627
 11
-37
 21
452
  0
LINE
  8
0
 10
-37
 20
452
 11
-37
 21
388
  0
LINE
  8
0
 10
-37
 20
388
 11
-36.9606
 21
387.373
  0
LINE
  8
0
 10
-36.9606
 20
387.373
 11
-36.8429
 21
386.757
  0
LINE
  8
0
 10
-36.8429
 20
386.757
 11
-36.6489
 21
386.159
  0
LINE
  8
0
 10
-36.6489
 20
386.159
 11
-36.3815
 21
385.591
  0
LINE
  8
0
 10
-36.3815
 20
385.591
 11
-36.0451
 21
385.061
  0
LINE
  8
0
 10
-36.0451
 20
385.061
 11
-35.6448
 21
384.577
  0
LINE
  8
0
 10
-35.6448
 20
384.577
 11
-35.1871
 21
384.147
  0
LINE
  8
0
 10
-35.1871
 20
384.147
 11
-34.6791
 21
383.778
  0
LINE
  8
0
 10
-34.6791
 20
383.778
 11
-34.1289
 21
383.476
  0
LINE
  8
0
 10
-34.1289
 20
383.476
 11
-33.5451
 21
383.245
  0
LINE
  8
0
 10
-33.5451
 20
383.245
 11
-32.9369
 21
383.089
  0
LINE
  8
0
 10
-32.9369
 20
383.089
 11
-32.3139
 21
383.01
  0
LINE
  8
0
 10
-32.3139
 20
383.01
 11
32.3139
 21
383.01
  0
LINE
  8
0
 10
32.3139
 20
383.01
 11
32.9369
 21
383.089
  0
LINE
  8
0
 10
29.8493
 20
447.605
 11
29.5503
 21
447.643
  0
LINE
  8
0
 10
29.5503
 20
447.643
 11
29.2583
 21
447.717
  0
LINE
  8
0
 10
29.2583
 20
447.717
 11
28.9781
 21
447.828
  0
LINE
  8
0
 10
28.9781
 20
447.828
 11
28.714
 21
447.974
  0
LINE
  8
0
 10
28.714
 20
447.974
 11
28.4702
 21
448.151
  0
LINE
  8
0
 10
28.4702
 20
448.151
 11
28.2505
 21
448.357
  0
LINE
  8
0
 10
28.2505
 20
448.357
 11
28.0583
 21
448.589
  0
LINE
  8
0
 10
28.0583
 20
448.589
 11
27.8969
 21
448.844
  0
LINE
  8
0
 10
27.8969
 20
448.844
 11
27.7685
 21
449.117
  0
LINE
  8
0
 10
27.7685
 20
449.117
 11
27.6754
 21
449.403
  0
LINE
  8
0
 10
27.6754
 20
449.403
 11
27.6189
 21
449.699
  0
LINE
  8
0
 10
27.6189
 20
449.699
 11
27.6
 21
450
  0
LINE
  8
0
 10
27.6
 20
450
 11
27.6189
 21
450.301
  0
LINE
  8
0
 10
27.6189
 20
450.301
 11
27.6754
 21
450.597
  0
LINE
  8
0
 10
27.6754
 20
450.597
 11
27.7685
 21
450.883
  0
LINE
  8
0
 10
27.7685
 20
450.883
 11
27.8969
 21
451.156
  0
LINE
  8
0
 10
27.8969
 20
451.156
 11
28.0583
 21
451.411
  0
LINE
  8
0
 10
28.0583
 20
451.411
 11
28.2505
 21
451.643
  0
LINE
  8
0
 10
28.2505
 20
451.643
 11
28.4702
 21
451.849
  0
LINE
  8
0
 10
28.4702
 20
451.849
 11
28.714
 21
452.026
  0
LINE
  8
0
 10
28.714
 20
452.026
 11
28.9781
 21
452.172
  0
LINE
  8
0
 10
28.9781
 20
452.172
 11
29.2583
 21
452.283
  0
LINE
  8
0
 10
29.2583
 20
452.283
 11
29.5503
 21
452.357
  0
LINE
  8
0
 10
29.5503
 20
452.357
 11
29.8493
 21
452.395
  0
LINE
  8
0
 10
29.8493
 20
452.395
 11
30.1507
 21
452.395
  0
LINE
  8
0
 10
30.1507
 20
452.395
 11
30.4497
 21
452.357
  0
LINE
  8
0
 10
30.4497
 20
452.357
 11
30.7416
 21
452.283
  0
LINE
  8
0
 10
30.7416
 20
452.283
 11
31.0219
 21
452.172
  0
LINE
  8
0
 10
31.0219
 20
452.172
 11
31.286
 21
452.026
  0
LINE
  8
0
 10
31.286
 20
452.026
 11
31.5298
 21
451.849
  0
LINE
  8
0
 10
31.5298
 20
451.849
 11
31.7495
 21
451.643
  0
LINE
  8
0
 10
31.7495
 20
451.643
 11
31.9416
 21
451.411
  0
LINE
  8
0
 10
31.9416
 20
451.411
 11
32.1031
 21
451.156
  0
LINE
  8
0
 10
32.1031
 20
451.156
 11
32.2315
 21
450.883
  0
LINE
  8
0
 10
32.2315
 20
450.883
 11
32.3246
 21
450.597
  0
LINE
  8
0
 10
32.3246
 20
450.597
 11
32.3811
 21
450.301
  0
LINE
  8
0
 10
32.3811
 20
450.301
 11
32.4
 21
450
  0
LINE
  8
0
 10
32.4
 20
450
 11
32.3811
 21
449.699
  0
LINE
  8
0
 10
32.3811
 20
449.699
 11
32.3246
 21
449.403
  0
LINE
  8
0
 10
32.3246
 20
449.403
 11
32.2315
 21
449.117
  0
LINE
  8
0
 10
32.2315
 20
449.117
 11
32.1031
 21
448.844
  0
LINE
  8
0
 10
32.1031
 20
448.844
 11
31.9416
 21
448.589
  0
LINE
  8
0
 10
31.9416
 20
448.589
 11
31.7495
 21
448.357
  0
LINE
  8
0
 10
31.7495
 20
448.357
 11
31.5298
 21
448.151
  0
LINE
  8
0
 10
31.5298
 20
448.151
 11
31.286
 21
447.974
  0
LINE
  8
0
 10
31.286
 20
447.974
 11
31.0219
 21
447.828
  0
LINE
  8
0
 10
31.0219
 20
447.828
 11
30.7416
 21
447.717
  0
LINE
  8
0
 10
30.7416
 20
447.717
 11
30.4497
 21
447.643
  0
LINE
  8
0
 10
30.4497
 20
447.643
 11
30.1507
 21
447.605
  0
LINE
  8
0
 10
30.1507
 20
447.605
 11
29.8493
 21
447.605
  0
LINE
  8
0
 10
-30.1507
 20
447.605
 11
-30.4497
 21
447.643
  0
LINE
  8
0
 10
-30.4497
 20
447.643
 11
-30.7416
 21
447.717
  0
LINE
  8
0
 10
-30.7416
 20
447.717
 11
-31.0219
 21
447.828
  0
LINE
  8
0
 10
-31.0219
 20
447.828
 11
-31.286
 21
447.974
  0
LINE
  8
0
 10
-31.286
 20
447.974
 11
-31.5298
 21
448.151
  0
LINE
  8
0
 10
-31.5298
 20
448.151
 11
-31.7495
 21
448.357
  0
LINE
  8
0
 10
-31.7495
 20
448.357
 11
-31.9416
 21
448.589
  0
LINE
  8
0
 10
-31.9416
 20
448.589
 11
-32.1031
 21
448.844
  0
LINE
  8
0
 10
-32.1031
 20
448.844
 11
-32.2315
 21
449.117
  0
LINE
  8
0
 10
-32.2315
 20
449.117
 11
-32.3246
 21
449.403
  0
LINE
  8
0
 10
-32.3246
 20
449.403
 11
-32.3811
 21
449.699
  0
LINE
  8
0
 10
-32.3811
 20
449.699
 11
-32.4
 21
450
  0
LINE
  8
0
 10
-32.4
 20
450
 11
-32.3811
 21
450.301
  0
LINE
  8
0
 10
-32.3811
 20
450.301
 11
-32.3246
 21
450.597
  0
LINE
  8
0
 10
-32.3246
 20
450.597
 11
-32.2315
 21
450.883
  0
LINE
  8
0
 10
-32.2315
 20
450.883
 11
-32.1031
 21
451.156
  0
LINE
  8
0
 10
-32.1031
 20
451.156
 11
-31.9416
 21
451.411
  0
LINE
  8
0
 10
-31.9416
 20
451.411
 11
-31.7495
 21
451.643
  0
LINE
  8
0
 10
-31.7495
 20
451.643
 11
-31.5298
 21
451.849
  0
LINE
  8
0
 10
-31.5298
 20
451.849
 11
-31.286
 21
452.026
  0
LINE
  8
0
 10
-31.286
 20
452.026
 11
-31.0219
 21
452.172
  0
LINE
  8
0
 10
-31.0219
 20
452.172
 11
-30.7416
 21
452.283
  0
LINE
  8
0
 10
-30.7416
 20
452.283
 11
-30.4497
 21
452.357
  0
LINE
  8
0
 10
-30.4497
 20
452.357
 11
-30.1507
 21
452.395
  0
LINE
  8
0
 10
-30.1507
 20
452.395
 11
-29.8493
 21
452.395
  0
LINE
  8
0
 10
-29.8493
 20
452.395
 11
-29.5503
 21
452.357
  0
LINE
  8
0
 10
-29.5503
 20
452.357
 11
-29.2583
 21
452.283
  0
LINE
  8
0
 10
-29.2583
 20
452.283
 11
-28.9781
 21
452.172
  0
LINE
  8
0
 10
-28.9781
 20
452.172
 11
-28.714
 21
452.026
  0
LINE
  8
0
 10
-28.714
 20
452.026
 11
-28.4702
 21
451.849
  0
LINE
  8
0
 10
-28.4702
 20
451.849
 11
-28.2505
 21
451.643
  0
LINE
  8
0
 10
-28.2505
 20
451.643
 11
-28.0583
 21
451.411
  0
LINE
  8
0
 10
-28.0583
 20
451.411
 11
-27.8969
 21
451.156
  0
LINE
  8
0
 10
-27.8969
 20
451.156
 11
-27.7685
 21
450.883
  0
LINE
  8
0
 10
-27.7685
 20
450.883
 11
-27.6754
 21
450.597
  0
LINE
  8
0
 10
-27.6754
 20
450.597
 11
-27.6189
 21
450.301
  0
LINE
  8
0
 10
-27.6189
 20
450.301
 11
-27.6
 21
450
  0
LINE
  8
0
 10
-27.6
 20
450
 11
-27.6189
 21
449.699
  0
LINE
  8
0
 10
-27.6189
 20
449.699
 11
-27.6754
 21
449.403
  0
LINE
  8
0
 10
-27.6754
 20
449.403
 11
-27.7685
 21
449.117
  0
LINE
  8
0
 10
-27.7685
 20
449.117
 11
-27.8969
 21
448.844
  0
LINE
  8
0
 10
-27.8969
 20
448.844
 11
-28.0583
 21
448.589
  0
LINE
  8
0
 10
-28.0583
 20
448.589
 11
-28.2505
 21
448.357
  0
LINE
  8
0
 10
-28.2505
 20
448.357
 11
-28.4702
 21
448.151
  0
LINE
  8
0
 10
-28.4702
 20
448.151
 11
-28.714
 21
447.974
  0
LINE
  8
0
 10
-28.714
 20
447.974
 11
-28.9781
 21
447.828
  0
LINE
  8
0
 10
-28.9781
 20
447.828
 11
-29.2583
 21
447.717
  0
LINE
  8
0
 10
-29.2583
 20
447.717
 11
-29.5503
 21
447.643
  0
LINE
  8
0
 10
-29.5503
 20
447.643
 11
-29.8493
 21
447.605
  0
LINE
  8
0
 10
-29.8493
 20
447.605
 11
-30.1507
 21
447.605
  0
LINE
  8
0
 10
-30.1507
 20
387.605
 11
-30.4497
 21
387.643
  0
LINE
  8
0
 10
-30.4497
 20
387.643
 11
-30.7416
 21
387.717
  0
LINE
  8
0
 10
-30.7416
 20
387.717
 11
-31.0219
 21
387.828
  0
LINE
  8
0
 10
-31.0219
 20
387.828
 11
-31.286
 21
387.974
  0
LINE
  8
0
 10
-31.286
 20
387.974
 11
-31.5298
 21
388.151
  0
LINE
  8
0
 10
-31.5298
 20
388.151
 11
-31.7495
 21
388.357
  0
LINE
  8
0
 10
-31.7495
 20
388.357
 11
-31.9416
 21
388.589
  0
LINE
  8
0
 10
-31.9416
 20
388.589
 11
-32.1031
 21
388.844
  0
LINE
  8
0
 10
-32.1031
 20
388.844
 11
-32.2315
 21
389.117
  0
LINE
  8
0
 10
-32.2315
 20
389.117
 11
-32.3246
 21
389.403
  0
LINE
  8
0
 10
-32.3246
 20
389.403
 11
-32.3811
 21
389.699
  0
LINE
  8
0
 10
-32.3811
 20
389.699
 11
-32.4
 21
390
  0
LINE
  8
0
 10
-32.4
 20
390
 11
-32.3811
 21
390.301
  0
LINE
  8
0
 10
-32.3811
 20
390.301
 11
-32.3246
 21
390.597
  0
LINE
  8
0
 10
-32.3246
 20
390.597
 11
-32.2315
 21
390.883
  0
LINE
  8
0
 10
-32.2315
 20
390.883
 11
-32.1031
 21
391.156
  0
LINE
  8
0
 10
-32.1031
 20
391.156
 11
-31.9416
 21
391.411
  0
LINE
  8
0
 10
-31.9416
 20
391.411
 11
-31.7495
 21
391.643
  0
LINE
  8
0
 10
-31.7495
 20
391.643
 11
-31.5298
 21
391.849
  0
LINE
  8
0
 10
-31.5298
 20
391.849
 11
-31.286
 21
392.026
  0
LINE
  8
0
 10
-31.286
 20
392.026
 11
-31.0219
 21
392.172
  0
LINE
  8
0
 10
-31.0219
 20
392.172
 11
-30.7416
 21
392.283
  0
LINE
  8
0
 10
-30.7416
 20
392.283
 11
-30.4497
 21
392.357
  0
LINE
  8
0
 10
-30.4497
 20
392.357
 11
-30.1507
 21
392.395
  0
LINE
  8
0
 10
-30.1507
 20
392.395
 11
-29.8493
 21
392.395
  0
LINE
  8
0
 10
-29.8493
 20
392.395
 11
-29.5503
 21
392.357
  0
LINE
  8
0
 10
-29.5503
 20
392.357
 11
-29.2583
 21
392.283
  0
LINE
  8
0
 10
-29.2583
 20
392.283
 11
-28.9781
 21
392.172
  0
LINE
  8
0
 10
-28.9781
 20
392.172
 11
-28.714
 21
392.026
  0
LINE
  8
0
 10
-28.714
 20
392.026
 11
-28.4702
 21
391.849
  0
LINE
  8
0
 10
-28.4702
 20
391.849
 11
-28.2505
 21
391.643
  0
LINE
  8
0
 10
-28.2505
 20
391.643
 11
-28.0583
 21
391.411
  0
LINE
  8
0
 10
-28.0583
 20
391.411
 11
-27.8969
 21
391.156
  0
LINE
  8
0
 10
-27.8969
 20
391.156
 11
-27.7685
 21
390.883
  0
LINE
  8
0
 10
-27.7685
 20
390.883
 11
-27.6754
 21
390.597
  0
LINE
  8
0
 10
-27.6754
 20
390.597
 11
-27.6189
 21
390.301
  0
LINE
  8
0
 10
-27.6189
 20
390.301
 11
-27.6
 21
390
  0
LINE
  8
0
 10
-27.6
 20
390
 11
-27.6189
 21
389.699
  0
LINE
  8
0
 10
-27.6189
 20
389.699
 11
-27.6754
 21
389.403
  0
LINE
  8
0
 10
-27.6754
 20
389.403
 11
-27.7685
 21
389.117
  0
LINE
  8
0
 10
-27.7685
 20
389.117
 11
-27.8969
 21
388.844
  0
LINE
  8
0
 10
-27.8969
 20
388.844
 11
-28.0583
 21
388.589
  0
LINE
  8
0
 10
-28.0583
 20
388.589
 11
-28.2505
 21
388.357
  0
LINE
  8
0
 10
-28.2505
 20
388.357
 11
-28.4702
 21
388.151
  0
LINE
  8
0
 10
-28.4702
 20
388.151
 11
-28.714
 21
387.974
  0
LINE
  8
0
 10
-28.714
 20
387.974
 11
-28.9781
 21
387.828
  0
LINE
  8
0
 10
-28.9781
 20
387.828
 11
-29.2583
 21
387.717
  0
LINE
  8
0
 10
-29.2583
 20
387.717
 11
-29.5503
 21
387.643
  0
LINE
  8
0
 10
-29.5503
 20
387.643
 11
-29.8493
 21
387.605
  0
LINE
  8
0
 10
-29.8493
 20
387.605
 11
-30.1507
 21
387.605
  0
LINE
  8
0
 10
29.8493
 20
387.605
 11
29.5503
 21
387.643
  0
LINE
  8
0
 10
29.5503
 20
387.643
 11
29.2583
 21
387.717
  0
LINE
  8
0
 10
29.2583
 20
387.717
 11
28.9781
 21
387.828
  0
LINE
  8
0
 10
28.9781
 20
387.828
 11
28.714
 21
387.974
  0
LINE
  8
0
 10
28.714
 20
387.974
 11
28.4702
 21
388.151
  0
LINE
  8
0
 10
28.4702
 20
388.151
 11
28.2505
 21
388.357
  0
LINE
  8
0
 10
28.2505
 20
388.357
 11
28.0583
 21
388.589
  0
LINE
  8
0
 10
28.0583
 20
388.589
 11
27.8969
 21
388.844
  0
LINE
  8
0
 10
27.8969
 20
388.844
 11
27.7685
 21
389.117
  0
LINE
  8
0
 10
27.7685
 20
389.117
 11
27.6754
 21
389.403
  0
LINE
  8
0
 10
27.6754
 20
389.403
 11
27.6189
 21
389.699
  0
LINE
  8
0
 10
27.6189
 20
389.699
 11
27.6
 21
390
  0
LINE
  8
0
 10
27.6
 20
390
 11
27.6189
 21
390.301
  0
LINE
  8
0
 10
27.6189
 20
390.301
 11
27.6754
 21
390.597
  0
LINE
  8
0
 10
27.6754
 20
390.597
 11
27.7685
 21
390.883
  0
LINE
  8
0
 10
27.7685
 20
390.883
 11
27.8969
 21
391.156
  0
LINE
  8
0
 10
27.8969
 20
391.156
 11
28.0583
 21
391.411
  0
LINE
  8
0
 10
28.0583
 20
391.411
 11
28.2505
 21
391.643
  0
LINE
  8
0
 10
28.2505
 20
391.643
 11
28.4702
 21
391.849
  0
LINE
  8
0
 10
28.4702
 20
391.849
 11
28.714
 21
392.026
  0
LINE
  8
0
 10
28.714
 20
392.026
 11
28.9781
 21
392.172
  0
LINE
  8
0
 10
28.9781
 20
392.172
 11
29.2583
 21
392.283
  0
LINE
  8
0
 10
29.2583
 20
392.283
 11
29.5503
 21
392.357
  0
LINE
  8
0
 10
29.5503
 20
392.357
 11
29.8493
 21
392.395
  0
LINE
  8
0
 10
29.8493
 20
392.395
 11
30.1507
 21
392.395
  0
LINE
  8
0
 10
30.1507
 20
392.395
 11
30.4497
 21
392.357
  0
LINE
  8
0
 10
30.4497
 20
392.357
 11
30.7416
 21
392.283
  0
LINE
  8
0
 10
30.7416
 20
392.283
 11
31.0219
 21
392.172
  0
LINE
  8
0
 10
31.0219
 20
392.172
 11
31.286
 21
392.026
  0
LINE
  8
0
 10
31.286
 20
392.026
 11
31.5298
 21
391.849
  0
LINE
  8
0
 10
31.5298
 20
391.849
 11
31.7495
 21
391.643
  0
LINE
  8
0
 10
31.7495
 20
391.643
 11
31.9416
 21
391.411
  0
LINE
  8
0
 10
31.9416
 20
391.411
 11
32.1031
 21
391.156
  0
LINE
  8
0
 10
32.1031
 20
391.156
 11
32.2315
 21
390.883
  0
LINE
  8
0
 10
32.2315
 20
390.883
 11
32.3246
 21
390.597
  0
LINE
  8
0
 10
32.3246
 20
390.597
 11
32.3811
 21
390.301
  0
LINE
  8
0
 10
32.3811
 20
390.301
 11
32.4
 21
390
  0
LINE
  8
0
 10
32.4
 20
390
 11
32.3811
 21
389.699
  0
LINE
  8
0
 10
32.3811
 20
389.699
 11
32.3246
 21
389.403
  0
LINE
  8
0
 10
32.3246
 20
389.403
 11
32.2315
 21
389.117
  0
LINE
  8
0
 10
32.2315
 20
389.117
 11
32.1031
 21
388.844
  0
LINE
  8
0
 10
32.1031
 20
388.844
 11
31.9416
 21
388.589
  0
LINE
  8
0
 10
31.9416
 20
388.589
 11
31.7495
 21
388.357
  0
LINE
  8
0
 10
31.7495
 20
388.357
 11
31.5298
 21
388.151
  0
LINE
  8
0
 10
31.5298
 20
388.151
 11
31.286
 21
387.974
  0
LINE
  8
0
 10
31.286
 20
387.974
 11
31.0219
 21
387.828
  0
LINE
  8
0
 10
31.0219
 20
387.828
 11
30.7416
 21
387.717
  0
LINE
  8
0
 10
30.7416
 20
387.717
 11
30.4497
 21
387.643
  0
LINE
  8
0
 10
30.4497
 20
387.643
 11
30.1507
 21
387.605
  0
LINE
  8
0
 10
30.1507
 20
387.605
 11
29.8493
 21
387.605
  0
ENDSEC
  0
SECTION
  2
OBJECTS
  0
DICTIONARY
  0
ENDSEC
  0
EOF
