  0
SECTION
  2
BLOCKS
  0
ENDSEC
  0
SECTION
  2
ENTITIES
  0
LINE
  8
0
 10
10.4369
 20
177.589
 11
11.0451
 21
177.745
  0
LINE
  8
0
 10
11.0451
 20
177.745
 11
11.6289
 21
177.976
  0
LINE
  8
0
 10
11.6289
 20
177.976
 11
12.1791
 21
178.278
  0
LINE
  8
0
 10
12.1791
 20
178.278
 11
12.6871
 21
178.647
  0
LINE
  8
0
 10
12.6871
 20
178.647
 11
13.1448
 21
179.077
  0
LINE
  8
0
 10
13.1448
 20
179.077
 11
13.5451
 21
179.561
  0
LINE
  8
0
 10
13.5451
 20
179.561
 11
13.8815
 21
180.091
  0
LINE
  8
0
 10
13.8815
 20
180.091
 11
14.1489
 21
180.659
  0
LINE
  8
0
 10
14.1489
 20
180.659
 11
14.3429
 21
181.257
  0
LINE
  8
0
 10
14.3429
 20
181.257
 11
14.4606
 21
181.873
  0
LINE
  8
0
 10
14.4606
 20
181.873
 11
14.5
 21
182.5
  0
LINE
  8
0
 10
14.5
 20
182.5
 11
14.5
 21
231.5
  0
LINE
  8
0
 10
14.5
 20
231.5
 11
14.4606
 21
232.127
  0
LINE
  8
0
 10
14.4606
 20
232.127
 11
14.3429
 21
232.743
  0
LINE
  8
0
 10
14.3429
 20
232.743
 11
14.1489
 21
233.341
  0
LINE
  8
0
 10
14.1489
 20
233.341
 11
13.8815
 21
233.909
  0
LINE
  8
0
 10
13.8815
 20
233.909
 11
13.5451
 21
234.439
  0
LINE
  8
0
 10
13.5451
 20
234.439
 11
13.1448
 21
234.923
  0
LINE
  8
0
 10
13.1448
 20
234.923
 11
12.6871
 21
235.353
  0
LINE
  8
0
 10
12.6871
 20
235.353
 11
12.1791
 21
235.722
  0
LINE
  8
0
 10
12.1791
 20
235.722
 11
11.6289
 21
236.024
  0
LINE
  8
0
 10
11.6289
 20
236.024
 11
11.0451
 21
236.255
  0
LINE
  8
0
 10
11.0451
 20
236.255
 11
10.4369
 21
236.411
  0
LINE
  8
0
 10
10.4369
 20
236.411
 11
9.81395
 21
236.49
  0
LINE
  8
0
 10
9.81395
 20
236.49
 11
-9.81395
 21
236.49
  0
LINE
  8
0
 10
-9.81395
 20
236.49
 11
-10.4369
 21
236.411
  0
LINE
  8
0
 10
-10.4369
 20
236.411
 11
-11.0451
 21
236.255
  0
LINE
  8
0
 10
-11.0451
 20
236.255
 11
-11.6289
 21
236.024
  0
LINE
  8
0
 10
-11.6289
 20
236.024
 11
-12.1791
 21
235.722
  0
LINE
  8
0
 10
-12.1791
 20
235.722
 11
-12.6871
 21
235.353
  0
LINE
  8
0
 10
-12.6871
 20
235.353
 11
-13.1448
 21
234.923
  0
LINE
  8
0
 10
-13.1448
 20
234.923
 11
-13.5451
 21
234.439
  0
LINE
  8
0
 10
-13.5451
 20
234.439
 11
-13.8815
 21
233.909
  0
LINE
  8
0
 10
-13.8815
 20
233.909
 11
-14.1489
 21
233.341
  0
LINE
  8
0
 10
-14.1489
 20
233.341
 11
-14.3429
 21
232.743
  0
LINE
  8
0
 10
-14.3429
 20
232.743
 11
-14.4606
 21
232.127
  0
LINE
  8
0
 10
-14.4606
 20
232.127
 11
-14.5
 21
231.5
  0
LINE
  8
0
 10
-14.5
 20
231.5
 11
-14.5
 21
182.5
  0
LINE
  8
0
 10
-14.5
 20
182.5
 11
-14.4606
 21
181.873
  0
LINE
  8
0
 10
-14.4606
 20
181.873
 11
-14.3429
 21
181.257
  0
LINE
  8
0
 10
-14.3429
 20
181.257
 11
-14.1489
 21
180.659
  0
LINE
  8
0
 10
-14.1489
 20
180.659
 11
-13.8815
 21
180.091
  0
LINE
  8
0
 10
-13.8815
 20
180.091
 11
-13.5451
 21
179.561
  0
LINE
  8
0
 10
-13.5451
 20
179.561
 11
-13.1448
 21
179.077
  0
LINE
  8
0
 10
-13.1448
 20
179.077
 11
-12.6871
 21
178.647
  0
LINE
  8
0
 10
-12.6871
 20
178.647
 11
-12.1791
 21
178.278
  0
LINE
  8
0
 10
-12.1791
 20
178.278
 11
-11.6289
 21
177.976
  0
LINE
  8
0
 10
-11.6289
 20
177.976
 11
-11.0451
 21
177.745
  0
LINE
  8
0
 10
-11.0451
 20
177.745
 11
-10.4369
 21
177.589
  0
LINE
  8
0
 10
-10.4369
 20
177.589
 11
-9.81395
 21
177.51
  0
LINE
  8
0
 10
-9.81395
 20
177.51
 11
9.81395
 21
177.51
  0
LINE
  8
0
 10
9.81395
 20
177.51
 11
10.4369
 21
177.589
  0
LINE
  8
0
 10
-9.53748
 20
178.181
 11
-10.1079
 21
178.253
  0
LINE
  8
0
 10
-10.1079
 20
178.253
 11
-10.6648
 21
178.396
  0
LINE
  8
0
 10
-10.6648
 20
178.396
 11
-11.1994
 21
178.607
  0
LINE
  8
0
 10
-11.1994
 20
178.607
 11
-11.7032
 21
178.884
  0
LINE
  8
0
 10
-11.7032
 20
178.884
 11
-12.1684
 21
179.222
  0
LINE
  8
0
 10
-12.1684
 20
179.222
 11
-12.5875
 21
179.616
  0
LINE
  8
0
 10
-12.5875
 20
179.616
 11
-12.954
 21
180.059
  0
LINE
  8
0
 10
-12.954
 20
180.059
 11
-13.2621
 21
180.544
  0
LINE
  8
0
 10
-13.2621
 20
180.544
 11
-13.5069
 21
181.065
  0
LINE
  8
0
 10
-13.5069
 20
181.065
 11
-13.6846
 21
181.611
  0
LINE
  8
0
 10
-13.6846
 20
181.611
 11
-13.7923
 21
182.176
  0
LINE
  8
0
 10
-13.7923
 20
182.176
 11
-13.8284
 21
182.75
  0
LINE
  8
0
 10
-13.8284
 20
182.75
 11
-13.8284
 21
231.25
  0
LINE
  8
0
 10
-13.8284
 20
231.25
 11
-13.7923
 21
231.824
  0
LINE
  8
0
 10
-13.7923
 20
231.824
 11
-13.6846
 21
232.389
  0
LINE
  8
0
 10
-13.6846
 20
232.389
 11
-13.5069
 21
232.935
  0
LINE
  8
0
 10
-13.5069
 20
232.935
 11
-13.2621
 21
233.456
  0
LINE
  8
0
 10
-13.2621
 20
233.456
 11
-12.954
 21
233.941
  0
LINE
  8
0
 10
-12.954
 20
233.941
 11
-12.5875
 21
234.384
  0
LINE
  8
0
 10
-12.5875
 20
234.384
 11
-12.1684
 21
234.778
  0
LINE
  8
0
 10
-12.1684
 20
234.778
 11
-11.7032
 21
235.116
  0
LINE
  8
0
 10
-11.7032
 20
235.116
 11
-11.1994
 21
235.393
  0
LINE
  8
0
 10
-11.1994
 20
235.393
 11
-10.6648
 21
235.604
  0
LINE
  8
0
 10
-10.6648
 20
235.604
 11
-10.1079
 21
235.747
  0
LINE
  8
0
 10
-10.1079
 20
235.747
 11
-9.53748
 21
235.819
  0
LINE
  8
0
 10
-9.53748
 20
235.819
 11
9.53748
 21
235.819
  0
LINE
  8
0
 10
9.53748
 20
235.819
 11
10.1079
 21
235.747
  0
LINE
  8
0
 10
10.1079
 20
235.747
 11
10.6648
 21
235.604
  0
LINE
  8
0
 10
10.6648
 20
235.604
 11
11.1994
 21
235.393
  0
LINE
  8
0
 10
11.1994
 20
235.393
 11
11.7032
 21
235.116
  0
LINE
  8
0
 10
11.7032
 20
235.116
 11
12.1684
 21
234.778
  0
LINE
  8
0
 10
12.1684
 20
234.778
 11
12.5875
 21
234.384
  0
LINE
  8
0
 10
12.5875
 20
234.384
 11
12.954
 21
233.941
  0
LINE
  8
0
 10
12.954
 20
233.941
 11
13.2621
 21
233.456
  0
LINE
  8
0
 10
13.2621
 20
233.456
 11
13.5069
 21
232.935
  0
LINE
  8
0
 10
13.5069
 20
232.935
 11
13.6846
 21
232.389
  0
LINE
  8
0
 10
13.6846
 20
232.389
 11
13.7923
 21
231.824
  0
LINE
  8
0
 10
13.7923
 20
231.824
 11
13.8284
 21
231.25
  0
LINE
  8
0
 10
13.8284
 20
231.25
 11
13.8284
 21
182.75
  0
LINE
  8
0
 10
13.8284
 20
182.75
 11
13.7923
 21
182.176
  0
LINE
  8
0
 10
13.7923
 20
182.176
 11
13.6846
 21
181.611
  0
LINE
  8
0
 10
13.6846
 20
181.611
 11
13.5069
 21
181.065
  0
LINE
  8
0
 10
13.5069
 20
181.065
 11
13.2621
 21
180.544
  0
LINE
  8
0
 10
13.2621
 20
180.544
 11
12.954
 21
180.059
  0
LINE
  8
0
 10
12.954
 20
180.059
 11
12.5875
 21
179.616
  0
LINE
  8
0
 10
12.5875
 20
179.616
 11
12.1684
 21
179.222
  0
LINE
  8
0
 10
12.1684
 20
179.222
 11
11.7032
 21
178.884
  0
LINE
  8
0
 10
11.7032
 20
178.884
 11
11.1994
 21
178.607
  0
LINE
  8
0
 10
11.1994
 20
178.607
 11
10.6648
 21
178.396
  0
LINE
  8
0
 10
10.6648
 20
178.396
 11
10.1079
 21
178.253
  0
LINE
  8
0
 10
10.1079
 20
178.253
 11
9.53748
 21
178.181
  0
LINE
  8
0
 10
9.53748
 20
178.181
 11
-9.53748
 21
178.181
  0
LINE
  8
0
 10
10.4369
 20
108.589
 11
11.0451
 21
108.745
  0
LINE
  8
0
 10
11.0451
 20
108.745
 11
11.6289
 21
108.976
  0
LINE
  8
0
 10
11.6289
 20
108.976
 11
12.1791
 21
109.278
  0
LINE
  8
0
 10
12.1791
 20
109.278
 11
12.6871
 21
109.647
  0
LINE
  8
0
 10
12.6871
 20
109.647
 11
13.1448
 21
110.077
  0
LINE
  8
0
 10
13.1448
 20
110.077
 11
13.5451
 21
110.561
  0
LINE
  8
0
 10
13.5451
 20
110.561
 11
13.8815
 21
111.091
  0
LINE
  8
0
 10
13.8815
 20
111.091
 11
14.1489
 21
111.659
  0
LINE
  8
0
 10
14.1489
 20
111.659
 11
14.3429
 21
112.257
  0
LINE
  8
0
 10
14.3429
 20
112.257
 11
14.4606
 21
112.873
  0
LINE
  8
0
 10
14.4606
 20
112.873
 11
14.5
 21
113.5
  0
LINE
  8
0
 10
14.5
 20
113.5
 11
14.5
 21
162.5
  0
LINE
  8
0
 10
14.5
 20
162.5
 11
14.4606
 21
163.127
  0
LINE
  8
0
 10
14.4606
 20
163.127
 11
14.3429
 21
163.743
  0
LINE
  8
0
 10
14.3429
 20
163.743
 11
14.1489
 21
164.341
  0
LINE
  8
0
 10
14.1489
 20
164.341
 11
13.8815
 21
164.909
  0
LINE
  8
0
 10
13.8815
 20
164.909
 11
13.5451
 21
165.439
  0
LINE
  8
0
 10
13.5451
 20
165.439
 11
13.1448
 21
165.923
  0
LINE
  8
0
 10
13.1448
 20
165.923
 11
12.6871
 21
166.353
  0
LINE
  8
0
 10
12.6871
 20
166.353
 11
12.1791
 21
166.722
  0
LINE
  8
0
 10
12.1791
 20
166.722
 11
11.6289
 21
167.024
  0
LINE
  8
0
 10
11.6289
 20
167.024
 11
11.0451
 21
167.255
  0
LINE
  8
0
 10
11.0451
 20
167.255
 11
10.4369
 21
167.411
  0
LINE
  8
0
 10
10.4369
 20
167.411
 11
9.81395
 21
167.49
  0
LINE
  8
0
 10
9.81395
 20
167.49
 11
-9.81395
 21
167.49
  0
LINE
  8
0
 10
-9.81395
 20
167.49
 11
-10.4369
 21
167.411
  0
LINE
  8
0
 10
-10.4369
 20
167.411
 11
-11.0451
 21
167.255
  0
LINE
  8
0
 10
-11.0451
 20
167.255
 11
-11.6289
 21
167.024
  0
LINE
  8
0
 10
-11.6289
 20
167.024
 11
-12.1791
 21
166.722
  0
LINE
  8
0
 10
-12.1791
 20
166.722
 11
-12.6871
 21
166.353
  0
LINE
  8
0
 10
-12.6871
 20
166.353
 11
-13.1448
 21
165.923
  0
LINE
  8
0
 10
-13.1448
 20
165.923
 11
-13.5451
 21
165.439
  0
LINE
  8
0
 10
-13.5451
 20
165.439
 11
-13.8815
 21
164.909
  0
LINE
  8
0
 10
-13.8815
 20
164.909
 11
-14.1489
 21
164.341
  0
LINE
  8
0
 10
-14.1489
 20
164.341
 11
-14.3429
 21
163.743
  0
LINE
  8
0
 10
-14.3429
 20
163.743
 11
-14.4606
 21
163.127
  0
LINE
  8
0
 10
-14.4606
 20
163.127
 11
-14.5
 21
162.5
  0
LINE
  8
0
 10
-14.5
 20
162.5
 11
-14.5
 21
113.5
  0
LINE
  8
0
 10
-14.5
 20
113.5
 11
-14.4606
 21
112.873
  0
LINE
  8
0
 10
-14.4606
 20
112.873
 11
-14.3429
 21
112.257
  0
LINE
  8
0
 10
-14.3429
 20
112.257
 11
-14.1489
 21
111.659
  0
LINE
  8
0
 10
-14.1489
 20
111.659
 11
-13.8815
 21
111.091
  0
LINE
  8
0
 10
-13.8815
 20
111.091
 11
-13.5451
 21
110.561
  0
LINE
  8
0
 10
-13.5451
 20
110.561
 11
-13.1448
 21
110.077
  0
LINE
  8
0
 10
-13.1448
 20
110.077
 11
-12.6871
 21
109.647
  0
LINE
  8
0
 10
-12.6871
 20
109.647
 11
-12.1791
 21
109.278
  0
LINE
  8
0
 10
-12.1791
 20
109.278
 11
-11.6289
 21
108.976
  0
LINE
  8
0
 10
-11.6289
 20
108.976
 11
-11.0451
 21
108.745
  0
LINE
  8
0
 10
-11.0451
 20
108.745
 11
-10.4369
 21
108.589
  0
LINE
  8
0
 10
-10.4369
 20
108.589
 11
-9.81395
 21
108.51
  0
LINE
  8
0
 10
-9.81395
 20
108.51
 11
9.81395
 21
108.51
  0
LINE
  8
0
 10
9.81395
 20
108.51
 11
10.4369
 21
108.589
  0
LINE
  8
0
 10
-9.38246
 20
111.645
 11
-9.64529
 21
111.678
  0
LINE
  8
0
 10
-9.64529
 20
111.678
 11
-9.9019
 21
111.744
  0
LINE
  8
0
 10
-9.9019
 20
111.744
 11
-10.1482
 21
111.841
  0
LINE
  8
0
 10
-10.1482
 20
111.841
 11
-10.3804
 21
111.969
  0
LINE
  8
0
 10
-10.3804
 20
111.969
 11
-10.5947
 21
112.125
  0
LINE
  8
0
 10
-10.5947
 20
112.125
 11
-10.7878
 21
112.306
  0
LINE
  8
0
 10
-10.7878
 20
112.306
 11
-10.9567
 21
112.51
  0
LINE
  8
0
 10
-10.9567
 20
112.51
 11
-11.0987
 21
112.734
  0
LINE
  8
0
 10
-11.0987
 20
112.734
 11
-11.2115
 21
112.973
  0
LINE
  8
0
 10
-11.2115
 20
112.973
 11
-11.2934
 21
113.225
  0
LINE
  8
0
 10
-11.2934
 20
113.225
 11
-11.343
 21
113.486
  0
LINE
  8
0
 10
-11.343
 20
113.486
 11
-11.3596
 21
113.75
  0
LINE
  8
0
 10
-11.3596
 20
113.75
 11
-11.3596
 21
162.25
  0
LINE
  8
0
 10
-11.3596
 20
162.25
 11
-11.343
 21
162.514
  0
LINE
  8
0
 10
-11.343
 20
162.514
 11
-11.2934
 21
162.775
  0
LINE
  8
0
 10
-11.2934
 20
162.775
 11
-11.2115
 21
163.027
  0
LINE
  8
0
 10
-11.2115
 20
163.027
 11
-11.0987
 21
163.266
  0
LINE
  8
0
 10
-11.0987
 20
163.266
 11
-10.9567
 21
163.49
  0
LINE
  8
0
 10
-10.9567
 20
163.49
 11
-10.7878
 21
163.694
  0
LINE
  8
0
 10
-10.7878
 20
163.694
 11
-10.5947
 21
163.875
  0
LINE
  8
0
 10
-10.5947
 20
163.875
 11
-10.3804
 21
164.031
  0
LINE
  8
0
 10
-10.3804
 20
164.031
 11
-10.1482
 21
164.159
  0
LINE
  8
0
 10
-10.1482
 20
164.159
 11
-9.9019
 21
164.256
  0
LINE
  8
0
 10
-9.9019
 20
164.256
 11
-9.64529
 21
164.322
  0
LINE
  8
0
 10
-9.64529
 20
164.322
 11
-9.38246
 21
164.355
  0
LINE
  8
0
 10
-9.38246
 20
164.355
 11
9.38246
 21
164.355
  0
LINE
  8
0
 10
9.38246
 20
164.355
 11
9.64529
 21
164.322
  0
LINE
  8
0
 10
9.64529
 20
164.322
 11
9.9019
 21
164.256
  0
LINE
  8
0
 10
9.9019
 20
164.256
 11
10.1482
 21
164.159
  0
LINE
  8
0
 10
10.1482
 20
164.159
 11
10.3804
 21
164.031
  0
LINE
  8
0
 10
10.3804
 20
164.031
 11
10.5947
 21
163.875
  0
LINE
  8
0
 10
10.5947
 20
163.875
 11
10.7878
 21
163.694
  0
LINE
  8
0
 10
10.7878
 20
163.694
 11
10.9567
 21
163.49
  0
LINE
  8
0
 10
10.9567
 20
163.49
 11
11.0987
 21
163.266
  0
LINE
  8
0
 10
11.0987
 20
163.266
 11
11.2115
 21
163.027
  0
LINE
  8
0
 10
11.2115
 20
163.027
 11
11.2934
 21
162.775
  0
LINE
  8
0
 10
11.2934
 20
162.775
 11
11.343
 21
162.514
  0
LINE
  8
0
 10
11.343
 20
162.514
 11
11.3596
 21
162.25
  0
LINE
  8
0
 10
11.3596
 20
162.25
 11
11.3596
 21
113.75
  0
LINE
  8
0
 10
11.3596
 20
113.75
 11
11.343
 21
113.486
  0
LINE
  8
0
 10
11.343
 20
113.486
 11
11.2934
 21
113.225
  0
LINE
  8
0
 10
11.2934
 20
113.225
 11
11.2115
 21
112.973
  0
LINE
  8
0
 10
11.2115
 20
112.973
 11
11.0987
 21
112.734
  0
LINE
  8
0
 10
11.0987
 20
112.734
 11
10.9567
 21
112.51
  0
LINE
  8
0
 10
10.9567
 20
112.51
 11
10.7878
 21
112.306
  0
LINE
  8
0
 10
10.7878
 20
112.306
 11
10.5947
 21
112.125
  0
LINE
  8
0
 10
10.5947
 20
112.125
 11
10.3804
 21
111.969
  0
LINE
  8
0
 10
10.3804
 20
111.969
 11
10.1482
 21
111.841
  0
LINE
  8
0
 10
10.1482
 20
111.841
 11
9.9019
 21
111.744
  0
LINE
  8
0
 10
9.9019
 20
111.744
 11
9.64529
 21
111.678
  0
LINE
  8
0
 10
9.64529
 20
111.678
 11
9.38246
 21
111.645
  0
LINE
  8
0
 10
9.38246
 20
111.645
 11
-9.38246
 21
111.645
  0
ENDSEC
  0
SECTION
  2
OBJECTS
  0
DICTIONARY
  0
ENDSEC
  0
EOF
