  0
SECTION
  2
BLOCKS
  0
ENDSEC
  0
SECTION
  2
ENTITIES
  0
LINE
  8
0
 10
3.4369
 20
219.089
 11
4.04507
 21
219.245
  0
LINE
  8
0
 10
4.04507
 20
219.245
 11
4.62889
 21
219.476
  0
LINE
  8
0
 10
4.62889
 20
219.476
 11
5.17912
 21
219.778
  0
LINE
  8
0
 10
5.17912
 20
219.778
 11
5.68712
 21
220.147
  0
LINE
  8
0
 10
5.68712
 20
220.147
 11
6.14484
 21
220.577
  0
LINE
  8
0
 10
6.14484
 20
220.577
 11
6.54507
 21
221.061
  0
LINE
  8
0
 10
6.54507
 20
221.061
 11
6.88153
 21
221.591
  0
LINE
  8
0
 10
6.88153
 20
221.591
 11
7.14888
 21
222.159
  0
LINE
  8
0
 10
7.14888
 20
222.159
 11
7.34291
 21
222.757
  0
LINE
  8
0
 10
7.34291
 20
222.757
 11
7.46057
 21
223.373
  0
LINE
  8
0
 10
7.46057
 20
223.373
 11
7.5
 21
224
  0
LINE
  8
0
 10
7.5
 20
224
 11
7.5
 21
244
  0
LINE
  8
0
 10
7.5
 20
244
 11
7.46057
 21
244.627
  0
LINE
  8
0
 10
7.46057
 20
244.627
 11
7.34291
 21
245.243
  0
LINE
  8
0
 10
7.34291
 20
245.243
 11
7.14888
 21
245.841
  0
LINE
  8
0
 10
7.14888
 20
245.841
 11
6.88153
 21
246.409
  0
LINE
  8
0
 10
6.88153
 20
246.409
 11
6.54507
 21
246.939
  0
LINE
  8
0
 10
6.54507
 20
246.939
 11
6.14484
 21
247.423
  0
LINE
  8
0
 10
6.14484
 20
247.423
 11
5.68712
 21
247.853
  0
LINE
  8
0
 10
5.68712
 20
247.853
 11
5.17912
 21
248.222
  0
LINE
  8
0
 10
5.17912
 20
248.222
 11
4.62889
 21
248.524
  0
LINE
  8
0
 10
4.62889
 20
248.524
 11
4.04507
 21
248.755
  0
LINE
  8
0
 10
4.04507
 20
248.755
 11
3.4369
 21
248.911
  0
LINE
  8
0
 10
3.4369
 20
248.911
 11
2.81395
 21
248.99
  0
LINE
  8
0
 10
2.81395
 20
248.99
 11
-2.81395
 21
248.99
  0
LINE
  8
0
 10
-2.81395
 20
248.99
 11
-3.4369
 21
248.911
  0
LINE
  8
0
 10
-3.4369
 20
248.911
 11
-4.04507
 21
248.755
  0
LINE
  8
0
 10
-4.04507
 20
248.755
 11
-4.62889
 21
248.524
  0
LINE
  8
0
 10
-4.62889
 20
248.524
 11
-5.17912
 21
248.222
  0
LINE
  8
0
 10
-5.17912
 20
248.222
 11
-5.68712
 21
247.853
  0
LINE
  8
0
 10
-5.68712
 20
247.853
 11
-6.14484
 21
247.423
  0
LINE
  8
0
 10
-6.14484
 20
247.423
 11
-6.54507
 21
246.939
  0
LINE
  8
0
 10
-6.54507
 20
246.939
 11
-6.88153
 21
246.409
  0
LINE
  8
0
 10
-6.88153
 20
246.409
 11
-7.14888
 21
245.841
  0
LINE
  8
0
 10
-7.14888
 20
245.841
 11
-7.34291
 21
245.243
  0
LINE
  8
0
 10
-7.34291
 20
245.243
 11
-7.46057
 21
244.627
  0
LINE
  8
0
 10
-7.46057
 20
244.627
 11
-7.5
 21
244
  0
LINE
  8
0
 10
-7.5
 20
244
 11
-7.5
 21
224
  0
LINE
  8
0
 10
-7.5
 20
224
 11
-7.46057
 21
223.373
  0
LINE
  8
0
 10
-7.46057
 20
223.373
 11
-7.34291
 21
222.757
  0
LINE
  8
0
 10
-7.34291
 20
222.757
 11
-7.14888
 21
222.159
  0
LINE
  8
0
 10
-7.14888
 20
222.159
 11
-6.88153
 21
221.591
  0
LINE
  8
0
 10
-6.88153
 20
221.591
 11
-6.54507
 21
221.061
  0
LINE
  8
0
 10
-6.54507
 20
221.061
 11
-6.14484
 21
220.577
  0
LINE
  8
0
 10
-6.14484
 20
220.577
 11
-5.68712
 21
220.147
  0
LINE
  8
0
 10
-5.68712
 20
220.147
 11
-5.17912
 21
219.778
  0
LINE
  8
0
 10
-5.17912
 20
219.778
 11
-4.62889
 21
219.476
  0
LINE
  8
0
 10
-4.62889
 20
219.476
 11
-4.04507
 21
219.245
  0
LINE
  8
0
 10
-4.04507
 20
219.245
 11
-3.4369
 21
219.089
  0
LINE
  8
0
 10
-3.4369
 20
219.089
 11
-2.81395
 21
219.01
  0
LINE
  8
0
 10
-2.81395
 20
219.01
 11
2.81395
 21
219.01
  0
LINE
  8
0
 10
2.81395
 20
219.01
 11
3.4369
 21
219.089
  0
LINE
  8
0
 10
-2.54825
 20
219.509
 11
-3.14006
 21
219.584
  0
LINE
  8
0
 10
-3.14006
 20
219.584
 11
-3.71782
 21
219.732
  0
LINE
  8
0
 10
-3.71782
 20
219.732
 11
-4.27245
 21
219.952
  0
LINE
  8
0
 10
-4.27245
 20
219.952
 11
-4.79517
 21
220.239
  0
LINE
  8
0
 10
-4.79517
 20
220.239
 11
-5.27776
 21
220.59
  0
LINE
  8
0
 10
-5.27776
 20
220.59
 11
-5.7126
 21
220.998
  0
LINE
  8
0
 10
-5.7126
 20
220.998
 11
-6.09282
 21
221.458
  0
LINE
  8
0
 10
-6.09282
 20
221.458
 11
-6.41245
 21
221.962
  0
LINE
  8
0
 10
-6.41245
 20
221.962
 11
-6.66643
 21
222.501
  0
LINE
  8
0
 10
-6.66643
 20
222.501
 11
-6.85077
 21
223.069
  0
LINE
  8
0
 10
-6.85077
 20
223.069
 11
-6.96254
 21
223.655
  0
LINE
  8
0
 10
-6.96254
 20
223.655
 11
-7
 21
224.25
  0
LINE
  8
0
 10
-7
 20
224.25
 11
-7
 21
243.75
  0
LINE
  8
0
 10
-7
 20
243.75
 11
-6.96254
 21
244.345
  0
LINE
  8
0
 10
-6.96254
 20
244.345
 11
-6.85077
 21
244.931
  0
LINE
  8
0
 10
-6.85077
 20
244.931
 11
-6.66643
 21
245.499
  0
LINE
  8
0
 10
-6.66643
 20
245.499
 11
-6.41245
 21
246.038
  0
LINE
  8
0
 10
-6.41245
 20
246.038
 11
-6.09282
 21
246.542
  0
LINE
  8
0
 10
-6.09282
 20
246.542
 11
-5.7126
 21
247.002
  0
LINE
  8
0
 10
-5.7126
 20
247.002
 11
-5.27776
 21
247.41
  0
LINE
  8
0
 10
-5.27776
 20
247.41
 11
-4.79517
 21
247.761
  0
LINE
  8
0
 10
-4.79517
 20
247.761
 11
-4.27245
 21
248.048
  0
LINE
  8
0
 10
-4.27245
 20
248.048
 11
-3.71782
 21
248.268
  0
LINE
  8
0
 10
-3.71782
 20
248.268
 11
-3.14006
 21
248.416
  0
LINE
  8
0
 10
-3.14006
 20
248.416
 11
-2.54825
 21
248.491
  0
LINE
  8
0
 10
-2.54825
 20
248.491
 11
2.54825
 21
248.491
  0
LINE
  8
0
 10
2.54825
 20
248.491
 11
3.14006
 21
248.416
  0
LINE
  8
0
 10
3.14006
 20
248.416
 11
3.71782
 21
248.268
  0
LINE
  8
0
 10
3.71782
 20
248.268
 11
4.27245
 21
248.048
  0
LINE
  8
0
 10
4.27245
 20
248.048
 11
4.79517
 21
247.761
  0
LINE
  8
0
 10
4.79517
 20
247.761
 11
5.27776
 21
247.41
  0
LINE
  8
0
 10
5.27776
 20
247.41
 11
5.7126
 21
247.002
  0
LINE
  8
0
 10
5.7126
 20
247.002
 11
6.09282
 21
246.542
  0
LINE
  8
0
 10
6.09282
 20
246.542
 11
6.41245
 21
246.038
  0
LINE
  8
0
 10
6.41245
 20
246.038
 11
6.66643
 21
245.499
  0
LINE
  8
0
 10
6.66643
 20
245.499
 11
6.85077
 21
244.931
  0
LINE
  8
0
 10
6.85077
 20
244.931
 11
6.96254
 21
244.345
  0
LINE
  8
0
 10
6.96254
 20
244.345
 11
7
 21
243.75
  0
LINE
  8
0
 10
7
 20
243.75
 11
7
 21
224.25
  0
LINE
  8
0
 10
7
 20
224.25
 11
6.96254
 21
223.655
  0
LINE
  8
0
 10
6.96254
 20
223.655
 11
6.85077
 21
223.069
  0
LINE
  8
0
 10
6.85077
 20
223.069
 11
6.66643
 21
222.501
  0
LINE
  8
0
 10
6.66643
 20
222.501
 11
6.41245
 21
221.962
  0
LINE
  8
0
 10
6.41245
 20
221.962
 11
6.09282
 21
221.458
  0
LINE
  8
0
 10
6.09282
 20
221.458
 11
5.7126
 21
220.998
  0
LINE
  8
0
 10
5.7126
 20
220.998
 11
5.27776
 21
220.59
  0
LINE
  8
0
 10
5.27776
 20
220.59
 11
4.79517
 21
220.239
  0
LINE
  8
0
 10
4.79517
 20
220.239
 11
4.27245
 21
219.952
  0
LINE
  8
0
 10
4.27245
 20
219.952
 11
3.71782
 21
219.732
  0
LINE
  8
0
 10
3.71782
 20
219.732
 11
3.14006
 21
219.584
  0
LINE
  8
0
 10
3.14006
 20
219.584
 11
2.54825
 21
219.509
  0
LINE
  8
0
 10
2.54825
 20
219.509
 11
-2.54825
 21
219.509
  0
LINE
  8
0
 10
3.4369
 20
180.089
 11
4.04507
 21
180.245
  0
LINE
  8
0
 10
4.04507
 20
180.245
 11
4.62889
 21
180.476
  0
LINE
  8
0
 10
4.62889
 20
180.476
 11
5.17912
 21
180.778
  0
LINE
  8
0
 10
5.17912
 20
180.778
 11
5.68712
 21
181.147
  0
LINE
  8
0
 10
5.68712
 20
181.147
 11
6.14484
 21
181.577
  0
LINE
  8
0
 10
6.14484
 20
181.577
 11
6.54507
 21
182.061
  0
LINE
  8
0
 10
6.54507
 20
182.061
 11
6.88153
 21
182.591
  0
LINE
  8
0
 10
6.88153
 20
182.591
 11
7.14888
 21
183.159
  0
LINE
  8
0
 10
7.14888
 20
183.159
 11
7.34291
 21
183.757
  0
LINE
  8
0
 10
7.34291
 20
183.757
 11
7.46057
 21
184.373
  0
LINE
  8
0
 10
7.46057
 20
184.373
 11
7.5
 21
185
  0
LINE
  8
0
 10
7.5
 20
185
 11
7.5
 21
205
  0
LINE
  8
0
 10
7.5
 20
205
 11
7.46057
 21
205.627
  0
LINE
  8
0
 10
7.46057
 20
205.627
 11
7.34291
 21
206.243
  0
LINE
  8
0
 10
7.34291
 20
206.243
 11
7.14888
 21
206.841
  0
LINE
  8
0
 10
7.14888
 20
206.841
 11
6.88153
 21
207.409
  0
LINE
  8
0
 10
6.88153
 20
207.409
 11
6.54507
 21
207.939
  0
LINE
  8
0
 10
6.54507
 20
207.939
 11
6.14484
 21
208.423
  0
LINE
  8
0
 10
6.14484
 20
208.423
 11
5.68712
 21
208.853
  0
LINE
  8
0
 10
5.68712
 20
208.853
 11
5.17912
 21
209.222
  0
LINE
  8
0
 10
5.17912
 20
209.222
 11
4.62889
 21
209.524
  0
LINE
  8
0
 10
4.62889
 20
209.524
 11
4.04507
 21
209.755
  0
LINE
  8
0
 10
4.04507
 20
209.755
 11
3.4369
 21
209.911
  0
LINE
  8
0
 10
3.4369
 20
209.911
 11
2.81395
 21
209.99
  0
LINE
  8
0
 10
2.81395
 20
209.99
 11
-2.81395
 21
209.99
  0
LINE
  8
0
 10
-2.81395
 20
209.99
 11
-3.4369
 21
209.911
  0
LINE
  8
0
 10
-3.4369
 20
209.911
 11
-4.04507
 21
209.755
  0
LINE
  8
0
 10
-4.04507
 20
209.755
 11
-4.62889
 21
209.524
  0
LINE
  8
0
 10
-4.62889
 20
209.524
 11
-5.17912
 21
209.222
  0
LINE
  8
0
 10
-5.17912
 20
209.222
 11
-5.68712
 21
208.853
  0
LINE
  8
0
 10
-5.68712
 20
208.853
 11
-6.14484
 21
208.423
  0
LINE
  8
0
 10
-6.14484
 20
208.423
 11
-6.54507
 21
207.939
  0
LINE
  8
0
 10
-6.54507
 20
207.939
 11
-6.88153
 21
207.409
  0
LINE
  8
0
 10
-6.88153
 20
207.409
 11
-7.14888
 21
206.841
  0
LINE
  8
0
 10
-7.14888
 20
206.841
 11
-7.34291
 21
206.243
  0
LINE
  8
0
 10
-7.34291
 20
206.243
 11
-7.46057
 21
205.627
  0
LINE
  8
0
 10
-7.46057
 20
205.627
 11
-7.5
 21
205
  0
LINE
  8
0
 10
-7.5
 20
205
 11
-7.5
 21
185
  0
LINE
  8
0
 10
-7.5
 20
185
 11
-7.46057
 21
184.373
  0
LINE
  8
0
 10
-7.46057
 20
184.373
 11
-7.34291
 21
183.757
  0
LINE
  8
0
 10
-7.34291
 20
183.757
 11
-7.14888
 21
183.159
  0
LINE
  8
0
 10
-7.14888
 20
183.159
 11
-6.88153
 21
182.591
  0
LINE
  8
0
 10
-6.88153
 20
182.591
 11
-6.54507
 21
182.061
  0
LINE
  8
0
 10
-6.54507
 20
182.061
 11
-6.14484
 21
181.577
  0
LINE
  8
0
 10
-6.14484
 20
181.577
 11
-5.68712
 21
181.147
  0
LINE
  8
0
 10
-5.68712
 20
181.147
 11
-5.17912
 21
180.778
  0
LINE
  8
0
 10
-5.17912
 20
180.778
 11
-4.62889
 21
180.476
  0
LINE
  8
0
 10
-4.62889
 20
180.476
 11
-4.04507
 21
180.245
  0
LINE
  8
0
 10
-4.04507
 20
180.245
 11
-3.4369
 21
180.089
  0
LINE
  8
0
 10
-3.4369
 20
180.089
 11
-2.81395
 21
180.01
  0
LINE
  8
0
 10
-2.81395
 20
180.01
 11
2.81395
 21
180.01
  0
LINE
  8
0
 10
2.81395
 20
180.01
 11
3.4369
 21
180.089
  0
LINE
  8
0
 10
-2.54825
 20
180.509
 11
-3.14006
 21
180.584
  0
LINE
  8
0
 10
-3.14006
 20
180.584
 11
-3.71782
 21
180.732
  0
LINE
  8
0
 10
-3.71782
 20
180.732
 11
-4.27245
 21
180.952
  0
LINE
  8
0
 10
-4.27245
 20
180.952
 11
-4.79517
 21
181.239
  0
LINE
  8
0
 10
-4.79517
 20
181.239
 11
-5.27776
 21
181.59
  0
LINE
  8
0
 10
-5.27776
 20
181.59
 11
-5.7126
 21
181.998
  0
LINE
  8
0
 10
-5.7126
 20
181.998
 11
-6.09282
 21
182.458
  0
LINE
  8
0
 10
-6.09282
 20
182.458
 11
-6.41245
 21
182.962
  0
LINE
  8
0
 10
-6.41245
 20
182.962
 11
-6.66643
 21
183.501
  0
LINE
  8
0
 10
-6.66643
 20
183.501
 11
-6.85077
 21
184.069
  0
LINE
  8
0
 10
-6.85077
 20
184.069
 11
-6.96254
 21
184.655
  0
LINE
  8
0
 10
-6.96254
 20
184.655
 11
-7
 21
185.25
  0
LINE
  8
0
 10
-7
 20
185.25
 11
-7
 21
204.75
  0
LINE
  8
0
 10
-7
 20
204.75
 11
-6.96254
 21
205.345
  0
LINE
  8
0
 10
-6.96254
 20
205.345
 11
-6.85077
 21
205.931
  0
LINE
  8
0
 10
-6.85077
 20
205.931
 11
-6.66643
 21
206.499
  0
LINE
  8
0
 10
-6.66643
 20
206.499
 11
-6.41245
 21
207.038
  0
LINE
  8
0
 10
-6.41245
 20
207.038
 11
-6.09282
 21
207.542
  0
LINE
  8
0
 10
-6.09282
 20
207.542
 11
-5.7126
 21
208.002
  0
LINE
  8
0
 10
-5.7126
 20
208.002
 11
-5.27776
 21
208.41
  0
LINE
  8
0
 10
-5.27776
 20
208.41
 11
-4.79517
 21
208.761
  0
LINE
  8
0
 10
-4.79517
 20
208.761
 11
-4.27245
 21
209.048
  0
LINE
  8
0
 10
-4.27245
 20
209.048
 11
-3.71782
 21
209.268
  0
LINE
  8
0
 10
-3.71782
 20
209.268
 11
-3.14006
 21
209.416
  0
LINE
  8
0
 10
-3.14006
 20
209.416
 11
-2.54825
 21
209.491
  0
LINE
  8
0
 10
-2.54825
 20
209.491
 11
2.54825
 21
209.491
  0
LINE
  8
0
 10
2.54825
 20
209.491
 11
3.14006
 21
209.416
  0
LINE
  8
0
 10
3.14006
 20
209.416
 11
3.71782
 21
209.268
  0
LINE
  8
0
 10
3.71782
 20
209.268
 11
4.27245
 21
209.048
  0
LINE
  8
0
 10
4.27245
 20
209.048
 11
4.79517
 21
208.761
  0
LINE
  8
0
 10
4.79517
 20
208.761
 11
5.27776
 21
208.41
  0
LINE
  8
0
 10
5.27776
 20
208.41
 11
5.7126
 21
208.002
  0
LINE
  8
0
 10
5.7126
 20
208.002
 11
6.09282
 21
207.542
  0
LINE
  8
0
 10
6.09282
 20
207.542
 11
6.41245
 21
207.038
  0
LINE
  8
0
 10
6.41245
 20
207.038
 11
6.66643
 21
206.499
  0
LINE
  8
0
 10
6.66643
 20
206.499
 11
6.85077
 21
205.931
  0
LINE
  8
0
 10
6.85077
 20
205.931
 11
6.96254
 21
205.345
  0
LINE
  8
0
 10
6.96254
 20
205.345
 11
7
 21
204.75
  0
LINE
  8
0
 10
7
 20
204.75
 11
7
 21
185.25
  0
LINE
  8
0
 10
7
 20
185.25
 11
6.96254
 21
184.655
  0
LINE
  8
0
 10
6.96254
 20
184.655
 11
6.85077
 21
184.069
  0
LINE
  8
0
 10
6.85077
 20
184.069
 11
6.66643
 21
183.501
  0
LINE
  8
0
 10
6.66643
 20
183.501
 11
6.41245
 21
182.962
  0
LINE
  8
0
 10
6.41245
 20
182.962
 11
6.09282
 21
182.458
  0
LINE
  8
0
 10
6.09282
 20
182.458
 11
5.7126
 21
181.998
  0
LINE
  8
0
 10
5.7126
 20
181.998
 11
5.27776
 21
181.59
  0
LINE
  8
0
 10
5.27776
 20
181.59
 11
4.79517
 21
181.239
  0
LINE
  8
0
 10
4.79517
 20
181.239
 11
4.27245
 21
180.952
  0
LINE
  8
0
 10
4.27245
 20
180.952
 11
3.71782
 21
180.732
  0
LINE
  8
0
 10
3.71782
 20
180.732
 11
3.14006
 21
180.584
  0
LINE
  8
0
 10
3.14006
 20
180.584
 11
2.54825
 21
180.509
  0
LINE
  8
0
 10
2.54825
 20
180.509
 11
-2.54825
 21
180.509
  0
LINE
  8
0
 10
3.4369
 20
141.089
 11
4.04507
 21
141.245
  0
LINE
  8
0
 10
4.04507
 20
141.245
 11
4.62889
 21
141.476
  0
LINE
  8
0
 10
4.62889
 20
141.476
 11
5.17912
 21
141.778
  0
LINE
  8
0
 10
5.17912
 20
141.778
 11
5.68712
 21
142.147
  0
LINE
  8
0
 10
5.68712
 20
142.147
 11
6.14484
 21
142.577
  0
LINE
  8
0
 10
6.14484
 20
142.577
 11
6.54507
 21
143.061
  0
LINE
  8
0
 10
6.54507
 20
143.061
 11
6.88153
 21
143.591
  0
LINE
  8
0
 10
6.88153
 20
143.591
 11
7.14888
 21
144.159
  0
LINE
  8
0
 10
7.14888
 20
144.159
 11
7.34291
 21
144.757
  0
LINE
  8
0
 10
7.34291
 20
144.757
 11
7.46057
 21
145.373
  0
LINE
  8
0
 10
7.46057
 20
145.373
 11
7.5
 21
146
  0
LINE
  8
0
 10
7.5
 20
146
 11
7.5
 21
166
  0
LINE
  8
0
 10
7.5
 20
166
 11
7.46057
 21
166.627
  0
LINE
  8
0
 10
7.46057
 20
166.627
 11
7.34291
 21
167.243
  0
LINE
  8
0
 10
7.34291
 20
167.243
 11
7.14888
 21
167.841
  0
LINE
  8
0
 10
7.14888
 20
167.841
 11
6.88153
 21
168.409
  0
LINE
  8
0
 10
6.88153
 20
168.409
 11
6.54507
 21
168.939
  0
LINE
  8
0
 10
6.54507
 20
168.939
 11
6.14484
 21
169.423
  0
LINE
  8
0
 10
6.14484
 20
169.423
 11
5.68712
 21
169.853
  0
LINE
  8
0
 10
5.68712
 20
169.853
 11
5.17912
 21
170.222
  0
LINE
  8
0
 10
5.17912
 20
170.222
 11
4.62889
 21
170.524
  0
LINE
  8
0
 10
4.62889
 20
170.524
 11
4.04507
 21
170.755
  0
LINE
  8
0
 10
4.04507
 20
170.755
 11
3.4369
 21
170.911
  0
LINE
  8
0
 10
3.4369
 20
170.911
 11
2.81395
 21
170.99
  0
LINE
  8
0
 10
2.81395
 20
170.99
 11
-2.81395
 21
170.99
  0
LINE
  8
0
 10
-2.81395
 20
170.99
 11
-3.4369
 21
170.911
  0
LINE
  8
0
 10
-3.4369
 20
170.911
 11
-4.04507
 21
170.755
  0
LINE
  8
0
 10
-4.04507
 20
170.755
 11
-4.62889
 21
170.524
  0
LINE
  8
0
 10
-4.62889
 20
170.524
 11
-5.17912
 21
170.222
  0
LINE
  8
0
 10
-5.17912
 20
170.222
 11
-5.68712
 21
169.853
  0
LINE
  8
0
 10
-5.68712
 20
169.853
 11
-6.14484
 21
169.423
  0
LINE
  8
0
 10
-6.14484
 20
169.423
 11
-6.54507
 21
168.939
  0
LINE
  8
0
 10
-6.54507
 20
168.939
 11
-6.88153
 21
168.409
  0
LINE
  8
0
 10
-6.88153
 20
168.409
 11
-7.14888
 21
167.841
  0
LINE
  8
0
 10
-7.14888
 20
167.841
 11
-7.34291
 21
167.243
  0
LINE
  8
0
 10
-7.34291
 20
167.243
 11
-7.46057
 21
166.627
  0
LINE
  8
0
 10
-7.46057
 20
166.627
 11
-7.5
 21
166
  0
LINE
  8
0
 10
-7.5
 20
166
 11
-7.5
 21
146
  0
LINE
  8
0
 10
-7.5
 20
146
 11
-7.46057
 21
145.373
  0
LINE
  8
0
 10
-7.46057
 20
145.373
 11
-7.34291
 21
144.757
  0
LINE
  8
0
 10
-7.34291
 20
144.757
 11
-7.14888
 21
144.159
  0
LINE
  8
0
 10
-7.14888
 20
144.159
 11
-6.88153
 21
143.591
  0
LINE
  8
0
 10
-6.88153
 20
143.591
 11
-6.54507
 21
143.061
  0
LINE
  8
0
 10
-6.54507
 20
143.061
 11
-6.14484
 21
142.577
  0
LINE
  8
0
 10
-6.14484
 20
142.577
 11
-5.68712
 21
142.147
  0
LINE
  8
0
 10
-5.68712
 20
142.147
 11
-5.17912
 21
141.778
  0
LINE
  8
0
 10
-5.17912
 20
141.778
 11
-4.62889
 21
141.476
  0
LINE
  8
0
 10
-4.62889
 20
141.476
 11
-4.04507
 21
141.245
  0
LINE
  8
0
 10
-4.04507
 20
141.245
 11
-3.4369
 21
141.089
  0
LINE
  8
0
 10
-3.4369
 20
141.089
 11
-2.81395
 21
141.01
  0
LINE
  8
0
 10
-2.81395
 20
141.01
 11
2.81395
 21
141.01
  0
LINE
  8
0
 10
2.81395
 20
141.01
 11
3.4369
 21
141.089
  0
LINE
  8
0
 10
-2.49297
 20
142.388
 11
-2.97505
 21
142.449
  0
LINE
  8
0
 10
-2.97505
 20
142.449
 11
-3.44572
 21
142.57
  0
LINE
  8
0
 10
-3.44572
 20
142.57
 11
-3.89754
 21
142.749
  0
LINE
  8
0
 10
-3.89754
 20
142.749
 11
-4.32336
 21
142.983
  0
LINE
  8
0
 10
-4.32336
 20
142.983
 11
-4.71649
 21
143.269
  0
LINE
  8
0
 10
-4.71649
 20
143.269
 11
-5.07071
 21
143.601
  0
LINE
  8
0
 10
-5.07071
 20
143.601
 11
-5.38046
 21
143.976
  0
LINE
  8
0
 10
-5.38046
 20
143.976
 11
-5.64084
 21
144.386
  0
LINE
  8
0
 10
-5.64084
 20
144.386
 11
-5.84773
 21
144.826
  0
LINE
  8
0
 10
-5.84773
 20
144.826
 11
-5.99789
 21
145.288
  0
LINE
  8
0
 10
-5.99789
 20
145.288
 11
-6.08896
 21
145.765
  0
LINE
  8
0
 10
-6.08896
 20
145.765
 11
-6.11946
 21
146.25
  0
LINE
  8
0
 10
-6.11946
 20
146.25
 11
-6.11946
 21
165.75
  0
LINE
  8
0
 10
-6.11946
 20
165.75
 11
-6.08896
 21
166.235
  0
LINE
  8
0
 10
-6.08896
 20
166.235
 11
-5.99789
 21
166.712
  0
LINE
  8
0
 10
-5.99789
 20
166.712
 11
-5.84773
 21
167.174
  0
LINE
  8
0
 10
-5.84773
 20
167.174
 11
-5.64084
 21
167.614
  0
LINE
  8
0
 10
-5.64084
 20
167.614
 11
-5.38046
 21
168.024
  0
LINE
  8
0
 10
-5.38046
 20
168.024
 11
-5.07071
 21
168.399
  0
LINE
  8
0
 10
-5.07071
 20
168.399
 11
-4.71649
 21
168.731
  0
LINE
  8
0
 10
-4.71649
 20
168.731
 11
-4.32336
 21
169.017
  0
LINE
  8
0
 10
-4.32336
 20
169.017
 11
-3.89754
 21
169.251
  0
LINE
  8
0
 10
-3.89754
 20
169.251
 11
-3.44572
 21
169.43
  0
LINE
  8
0
 10
-3.44572
 20
169.43
 11
-2.97505
 21
169.551
  0
LINE
  8
0
 10
-2.97505
 20
169.551
 11
-2.49297
 21
169.612
  0
LINE
  8
0
 10
-2.49297
 20
169.612
 11
2.49297
 21
169.612
  0
LINE
  8
0
 10
2.49297
 20
169.612
 11
2.97505
 21
169.551
  0
LINE
  8
0
 10
2.97505
 20
169.551
 11
3.44572
 21
169.43
  0
LINE
  8
0
 10
3.44572
 20
169.43
 11
3.89754
 21
169.251
  0
LINE
  8
0
 10
3.89754
 20
169.251
 11
4.32336
 21
169.017
  0
LINE
  8
0
 10
4.32336
 20
169.017
 11
4.71649
 21
168.731
  0
LINE
  8
0
 10
4.71649
 20
168.731
 11
5.07071
 21
168.399
  0
LINE
  8
0
 10
5.07071
 20
168.399
 11
5.38046
 21
168.024
  0
LINE
  8
0
 10
5.38046
 20
168.024
 11
5.64084
 21
167.614
  0
LINE
  8
0
 10
5.64084
 20
167.614
 11
5.84773
 21
167.174
  0
LINE
  8
0
 10
5.84773
 20
167.174
 11
5.99789
 21
166.712
  0
LINE
  8
0
 10
5.99789
 20
166.712
 11
6.08896
 21
166.235
  0
LINE
  8
0
 10
6.08896
 20
166.235
 11
6.11946
 21
165.75
  0
LINE
  8
0
 10
6.11946
 20
165.75
 11
6.11946
 21
146.25
  0
LINE
  8
0
 10
6.11946
 20
146.25
 11
6.08896
 21
145.765
  0
LINE
  8
0
 10
6.08896
 20
145.765
 11
5.99789
 21
145.288
  0
LINE
  8
0
 10
5.99789
 20
145.288
 11
5.84773
 21
144.826
  0
LINE
  8
0
 10
5.84773
 20
144.826
 11
5.64084
 21
144.386
  0
LINE
  8
0
 10
5.64084
 20
144.386
 11
5.38046
 21
143.976
  0
LINE
  8
0
 10
5.38046
 20
143.976
 11
5.07071
 21
143.601
  0
LINE
  8
0
 10
5.07071
 20
143.601
 11
4.71649
 21
143.269
  0
LINE
  8
0
 10
4.71649
 20
143.269
 11
4.32336
 21
142.983
  0
LINE
  8
0
 10
4.32336
 20
142.983
 11
3.89754
 21
142.749
  0
LINE
  8
0
 10
3.89754
 20
142.749
 11
3.44572
 21
142.57
  0
LINE
  8
0
 10
3.44572
 20
142.57
 11
2.97505
 21
142.449
  0
LINE
  8
0
 10
2.97505
 20
142.449
 11
2.49297
 21
142.388
  0
LINE
  8
0
 10
2.49297
 20
142.388
 11
-2.49297
 21
142.388
  0
LINE
  8
0
 10
3.4369
 20
102.089
 11
4.04507
 21
102.245
  0
LINE
  8
0
 10
4.04507
 20
102.245
 11
4.62889
 21
102.476
  0
LINE
  8
0
 10
4.62889
 20
102.476
 11
5.17912
 21
102.778
  0
LINE
  8
0
 10
5.17912
 20
102.778
 11
5.68712
 21
103.147
  0
LINE
  8
0
 10
5.68712
 20
103.147
 11
6.14484
 21
103.577
  0
LINE
  8
0
 10
6.14484
 20
103.577
 11
6.54507
 21
104.061
  0
LINE
  8
0
 10
6.54507
 20
104.061
 11
6.88153
 21
104.591
  0
LINE
  8
0
 10
6.88153
 20
104.591
 11
7.14888
 21
105.159
  0
LINE
  8
0
 10
7.14888
 20
105.159
 11
7.34291
 21
105.757
  0
LINE
  8
0
 10
7.34291
 20
105.757
 11
7.46057
 21
106.373
  0
LINE
  8
0
 10
7.46057
 20
106.373
 11
7.5
 21
107
  0
LINE
  8
0
 10
7.5
 20
107
 11
7.5
 21
127
  0
LINE
  8
0
 10
7.5
 20
127
 11
7.46057
 21
127.627
  0
LINE
  8
0
 10
7.46057
 20
127.627
 11
7.34291
 21
128.243
  0
LINE
  8
0
 10
7.34291
 20
128.243
 11
7.14888
 21
128.841
  0
LINE
  8
0
 10
7.14888
 20
128.841
 11
6.88153
 21
129.409
  0
LINE
  8
0
 10
6.88153
 20
129.409
 11
6.54507
 21
129.939
  0
LINE
  8
0
 10
6.54507
 20
129.939
 11
6.14484
 21
130.423
  0
LINE
  8
0
 10
6.14484
 20
130.423
 11
5.68712
 21
130.853
  0
LINE
  8
0
 10
5.68712
 20
130.853
 11
5.17912
 21
131.222
  0
LINE
  8
0
 10
5.17912
 20
131.222
 11
4.62889
 21
131.524
  0
LINE
  8
0
 10
4.62889
 20
131.524
 11
4.04507
 21
131.755
  0
LINE
  8
0
 10
4.04507
 20
131.755
 11
3.4369
 21
131.911
  0
LINE
  8
0
 10
3.4369
 20
131.911
 11
2.81395
 21
131.99
  0
LINE
  8
0
 10
2.81395
 20
131.99
 11
-2.81395
 21
131.99
  0
LINE
  8
0
 10
-2.81395
 20
131.99
 11
-3.4369
 21
131.911
  0
LINE
  8
0
 10
-3.4369
 20
131.911
 11
-4.04507
 21
131.755
  0
LINE
  8
0
 10
-4.04507
 20
131.755
 11
-4.62889
 21
131.524
  0
LINE
  8
0
 10
-4.62889
 20
131.524
 11
-5.17912
 21
131.222
  0
LINE
  8
0
 10
-5.17912
 20
131.222
 11
-5.68712
 21
130.853
  0
LINE
  8
0
 10
-5.68712
 20
130.853
 11
-6.14484
 21
130.423
  0
LINE
  8
0
 10
-6.14484
 20
130.423
 11
-6.54507
 21
129.939
  0
LINE
  8
0
 10
-6.54507
 20
129.939
 11
-6.88153
 21
129.409
  0
LINE
  8
0
 10
-6.88153
 20
129.409
 11
-7.14888
 21
128.841
  0
LINE
  8
0
 10
-7.14888
 20
128.841
 11
-7.34291
 21
128.243
  0
LINE
  8
0
 10
-7.34291
 20
128.243
 11
-7.46057
 21
127.627
  0
LINE
  8
0
 10
-7.46057
 20
127.627
 11
-7.5
 21
127
  0
LINE
  8
0
 10
-7.5
 20
127
 11
-7.5
 21
107
  0
LINE
  8
0
 10
-7.5
 20
107
 11
-7.46057
 21
106.373
  0
LINE
  8
0
 10
-7.46057
 20
106.373
 11
-7.34291
 21
105.757
  0
LINE
  8
0
 10
-7.34291
 20
105.757
 11
-7.14888
 21
105.159
  0
LINE
  8
0
 10
-7.14888
 20
105.159
 11
-6.88153
 21
104.591
  0
LINE
  8
0
 10
-6.88153
 20
104.591
 11
-6.54507
 21
104.061
  0
LINE
  8
0
 10
-6.54507
 20
104.061
 11
-6.14484
 21
103.577
  0
LINE
  8
0
 10
-6.14484
 20
103.577
 11
-5.68712
 21
103.147
  0
LINE
  8
0
 10
-5.68712
 20
103.147
 11
-5.17912
 21
102.778
  0
LINE
  8
0
 10
-5.17912
 20
102.778
 11
-4.62889
 21
102.476
  0
LINE
  8
0
 10
-4.62889
 20
102.476
 11
-4.04507
 21
102.245
  0
LINE
  8
0
 10
-4.04507
 20
102.245
 11
-3.4369
 21
102.089
  0
LINE
  8
0
 10
-3.4369
 20
102.089
 11
-2.81395
 21
102.01
  0
LINE
  8
0
 10
-2.81395
 20
102.01
 11
2.81395
 21
102.01
  0
LINE
  8
0
 10
2.81395
 20
102.01
 11
3.4369
 21
102.089
  0
LINE
  8
0
 10
-0.0941772
 20
123.003
 11
-0.281067
 21
123.027
  0
LINE
  8
0
 10
-0.281067
 20
123.027
 11
-0.463516
 21
123.073
  0
LINE
  8
0
 10
-0.463516
 20
123.073
 11
-0.638657
 21
123.143
  0
LINE
  8
0
 10
-0.638657
 20
123.143
 11
-0.803726
 21
123.234
  0
LINE
  8
0
 10
-0.803726
 20
123.234
 11
-0.956131
 21
123.344
  0
LINE
  8
0
 10
-0.956131
 20
123.344
 11
-1.09344
 21
123.473
  0
LINE
  8
0
 10
-1.09344
 20
123.473
 11
-1.21352
 21
123.618
  0
LINE
  8
0
 10
-1.21352
 20
123.618
 11
-1.31445
 21
123.777
  0
LINE
  8
0
 10
-1.31445
 20
123.777
 11
-1.39465
 21
123.948
  0
LINE
  8
0
 10
-1.39465
 20
123.948
 11
-1.45287
 21
124.127
  0
LINE
  8
0
 10
-1.45287
 20
124.127
 11
-1.48816
 21
124.312
  0
LINE
  8
0
 10
-1.48816
 20
124.312
 11
-1.5
 21
124.5
  0
LINE
  8
0
 10
-1.5
 20
124.5
 11
-1.48816
 21
124.688
  0
LINE
  8
0
 10
-1.48816
 20
124.688
 11
-1.45287
 21
124.873
  0
LINE
  8
0
 10
-1.45287
 20
124.873
 11
-1.39465
 21
125.052
  0
LINE
  8
0
 10
-1.39465
 20
125.052
 11
-1.31445
 21
125.223
  0
LINE
  8
0
 10
-1.31445
 20
125.223
 11
-1.21352
 21
125.382
  0
LINE
  8
0
 10
-1.21352
 20
125.382
 11
-1.09344
 21
125.527
  0
LINE
  8
0
 10
-1.09344
 20
125.527
 11
-0.956131
 21
125.656
  0
LINE
  8
0
 10
-0.956131
 20
125.656
 11
-0.803726
 21
125.766
  0
LINE
  8
0
 10
-0.803726
 20
125.766
 11
-0.638657
 21
125.857
  0
LINE
  8
0
 10
-0.638657
 20
125.857
 11
-0.463516
 21
125.927
  0
LINE
  8
0
 10
-0.463516
 20
125.927
 11
-0.281067
 21
125.973
  0
LINE
  8
0
 10
-0.281067
 20
125.973
 11
-0.0941772
 21
125.997
  0
LINE
  8
0
 10
-0.0941772
 20
125.997
 11
0.0941772
 21
125.997
  0
LINE
  8
0
 10
0.0941772
 20
125.997
 11
0.281067
 21
125.973
  0
LINE
  8
0
 10
0.281067
 20
125.973
 11
0.463516
 21
125.927
  0
LINE
  8
0
 10
0.463516
 20
125.927
 11
0.638657
 21
125.857
  0
LINE
  8
0
 10
0.638657
 20
125.857
 11
0.803726
 21
125.766
  0
LINE
  8
0
 10
0.803726
 20
125.766
 11
0.956131
 21
125.656
  0
LINE
  8
0
 10
0.956131
 20
125.656
 11
1.09344
 21
125.527
  0
LINE
  8
0
 10
1.09344
 20
125.527
 11
1.21352
 21
125.382
  0
LINE
  8
0
 10
1.21352
 20
125.382
 11
1.31445
 21
125.223
  0
LINE
  8
0
 10
1.31445
 20
125.223
 11
1.39465
 21
125.052
  0
LINE
  8
0
 10
1.39465
 20
125.052
 11
1.45287
 21
124.873
  0
LINE
  8
0
 10
1.45287
 20
124.873
 11
1.48816
 21
124.688
  0
LINE
  8
0
 10
1.48816
 20
124.688
 11
1.5
 21
124.5
  0
LINE
  8
0
 10
1.5
 20
124.5
 11
1.48816
 21
124.312
  0
LINE
  8
0
 10
1.48816
 20
124.312
 11
1.45287
 21
124.127
  0
LINE
  8
0
 10
1.45287
 20
124.127
 11
1.39465
 21
123.948
  0
LINE
  8
0
 10
1.39465
 20
123.948
 11
1.31445
 21
123.777
  0
LINE
  8
0
 10
1.31445
 20
123.777
 11
1.21352
 21
123.618
  0
LINE
  8
0
 10
1.21352
 20
123.618
 11
1.09344
 21
123.473
  0
LINE
  8
0
 10
1.09344
 20
123.473
 11
0.956131
 21
123.344
  0
LINE
  8
0
 10
0.956131
 20
123.344
 11
0.803726
 21
123.234
  0
LINE
  8
0
 10
0.803726
 20
123.234
 11
0.638657
 21
123.143
  0
LINE
  8
0
 10
0.638657
 20
123.143
 11
0.463516
 21
123.073
  0
LINE
  8
0
 10
0.463516
 20
123.073
 11
0.281067
 21
123.027
  0
LINE
  8
0
 10
0.281067
 20
123.027
 11
0.0941772
 21
123.003
  0
LINE
  8
0
 10
0.0941772
 20
123.003
 11
-0.0941772
 21
123.003
  0
LINE
  8
0
 10
-0.0941772
 20
108.003
 11
-0.281067
 21
108.027
  0
LINE
  8
0
 10
-0.281067
 20
108.027
 11
-0.463516
 21
108.073
  0
LINE
  8
0
 10
-0.463516
 20
108.073
 11
-0.638657
 21
108.143
  0
LINE
  8
0
 10
-0.638657
 20
108.143
 11
-0.803726
 21
108.234
  0
LINE
  8
0
 10
-0.803726
 20
108.234
 11
-0.956131
 21
108.344
  0
LINE
  8
0
 10
-0.956131
 20
108.344
 11
-1.09344
 21
108.473
  0
LINE
  8
0
 10
-1.09344
 20
108.473
 11
-1.21352
 21
108.618
  0
LINE
  8
0
 10
-1.21352
 20
108.618
 11
-1.31445
 21
108.777
  0
LINE
  8
0
 10
-1.31445
 20
108.777
 11
-1.39465
 21
108.948
  0
LINE
  8
0
 10
-1.39465
 20
108.948
 11
-1.45287
 21
109.127
  0
LINE
  8
0
 10
-1.45287
 20
109.127
 11
-1.48816
 21
109.312
  0
LINE
  8
0
 10
-1.48816
 20
109.312
 11
-1.5
 21
109.5
  0
LINE
  8
0
 10
-1.5
 20
109.5
 11
-1.48816
 21
109.688
  0
LINE
  8
0
 10
-1.48816
 20
109.688
 11
-1.45287
 21
109.873
  0
LINE
  8
0
 10
-1.45287
 20
109.873
 11
-1.39465
 21
110.052
  0
LINE
  8
0
 10
-1.39465
 20
110.052
 11
-1.31445
 21
110.223
  0
LINE
  8
0
 10
-1.31445
 20
110.223
 11
-1.21352
 21
110.382
  0
LINE
  8
0
 10
-1.21352
 20
110.382
 11
-1.09344
 21
110.527
  0
LINE
  8
0
 10
-1.09344
 20
110.527
 11
-0.956131
 21
110.656
  0
LINE
  8
0
 10
-0.956131
 20
110.656
 11
-0.803726
 21
110.766
  0
LINE
  8
0
 10
-0.803726
 20
110.766
 11
-0.638657
 21
110.857
  0
LINE
  8
0
 10
-0.638657
 20
110.857
 11
-0.463516
 21
110.927
  0
LINE
  8
0
 10
-0.463516
 20
110.927
 11
-0.281067
 21
110.973
  0
LINE
  8
0
 10
-0.281067
 20
110.973
 11
-0.0941772
 21
110.997
  0
LINE
  8
0
 10
-0.0941772
 20
110.997
 11
0.0941772
 21
110.997
  0
LINE
  8
0
 10
0.0941772
 20
110.997
 11
0.281067
 21
110.973
  0
LINE
  8
0
 10
0.281067
 20
110.973
 11
0.463516
 21
110.927
  0
LINE
  8
0
 10
0.463516
 20
110.927
 11
0.638657
 21
110.857
  0
LINE
  8
0
 10
0.638657
 20
110.857
 11
0.803726
 21
110.766
  0
LINE
  8
0
 10
0.803726
 20
110.766
 11
0.956131
 21
110.656
  0
LINE
  8
0
 10
0.956131
 20
110.656
 11
1.09344
 21
110.527
  0
LINE
  8
0
 10
1.09344
 20
110.527
 11
1.21352
 21
110.382
  0
LINE
  8
0
 10
1.21352
 20
110.382
 11
1.31445
 21
110.223
  0
LINE
  8
0
 10
1.31445
 20
110.223
 11
1.39465
 21
110.052
  0
LINE
  8
0
 10
1.39465
 20
110.052
 11
1.45287
 21
109.873
  0
LINE
  8
0
 10
1.45287
 20
109.873
 11
1.48816
 21
109.688
  0
LINE
  8
0
 10
1.48816
 20
109.688
 11
1.5
 21
109.5
  0
LINE
  8
0
 10
1.5
 20
109.5
 11
1.48816
 21
109.312
  0
LINE
  8
0
 10
1.48816
 20
109.312
 11
1.45287
 21
109.127
  0
LINE
  8
0
 10
1.45287
 20
109.127
 11
1.39465
 21
108.948
  0
LINE
  8
0
 10
1.39465
 20
108.948
 11
1.31445
 21
108.777
  0
LINE
  8
0
 10
1.31445
 20
108.777
 11
1.21352
 21
108.618
  0
LINE
  8
0
 10
1.21352
 20
108.618
 11
1.09344
 21
108.473
  0
LINE
  8
0
 10
1.09344
 20
108.473
 11
0.956131
 21
108.344
  0
LINE
  8
0
 10
0.956131
 20
108.344
 11
0.803726
 21
108.234
  0
LINE
  8
0
 10
0.803726
 20
108.234
 11
0.638657
 21
108.143
  0
LINE
  8
0
 10
0.638657
 20
108.143
 11
0.463516
 21
108.073
  0
LINE
  8
0
 10
0.463516
 20
108.073
 11
0.281067
 21
108.027
  0
LINE
  8
0
 10
0.281067
 20
108.027
 11
0.0941772
 21
108.003
  0
LINE
  8
0
 10
0.0941772
 20
108.003
 11
-0.0941772
 21
108.003
  0
ENDSEC
  0
SECTION
  2
OBJECTS
  0
DICTIONARY
  0
ENDSEC
  0
EOF
