  0
SECTION
  2
BLOCKS
  0
ENDSEC
  0
SECTION
  2
ENTITIES
  0
LINE
  8
0
 10
17.9369
 20
121.339
 11
18.5451
 21
121.495
  0
LINE
  8
0
 10
18.5451
 20
121.495
 11
19.1289
 21
121.726
  0
LINE
  8
0
 10
19.1289
 20
121.726
 11
19.6791
 21
122.028
  0
LINE
  8
0
 10
19.6791
 20
122.028
 11
20.1871
 21
122.397
  0
LINE
  8
0
 10
20.1871
 20
122.397
 11
20.6448
 21
122.827
  0
LINE
  8
0
 10
20.6448
 20
122.827
 11
21.0451
 21
123.311
  0
LINE
  8
0
 10
21.0451
 20
123.311
 11
21.3815
 21
123.841
  0
LINE
  8
0
 10
21.3815
 20
123.841
 11
21.6489
 21
124.409
  0
LINE
  8
0
 10
21.6489
 20
124.409
 11
21.8429
 21
125.007
  0
LINE
  8
0
 10
21.8429
 20
125.007
 11
21.9606
 21
125.623
  0
LINE
  8
0
 10
21.9606
 20
125.623
 11
22
 21
126.25
  0
LINE
  8
0
 10
22
 20
126.25
 11
22
 21
152.75
  0
LINE
  8
0
 10
22
 20
152.75
 11
21.9606
 21
153.377
  0
LINE
  8
0
 10
21.9606
 20
153.377
 11
21.8429
 21
153.993
  0
LINE
  8
0
 10
21.8429
 20
153.993
 11
21.6489
 21
154.591
  0
LINE
  8
0
 10
21.6489
 20
154.591
 11
21.3815
 21
155.159
  0
LINE
  8
0
 10
21.3815
 20
155.159
 11
21.0451
 21
155.689
  0
LINE
  8
0
 10
21.0451
 20
155.689
 11
20.6448
 21
156.173
  0
LINE
  8
0
 10
20.6448
 20
156.173
 11
20.1871
 21
156.603
  0
LINE
  8
0
 10
20.1871
 20
156.603
 11
19.6791
 21
156.972
  0
LINE
  8
0
 10
19.6791
 20
156.972
 11
19.1289
 21
157.274
  0
LINE
  8
0
 10
19.1289
 20
157.274
 11
18.5451
 21
157.505
  0
LINE
  8
0
 10
18.5451
 20
157.505
 11
17.9369
 21
157.661
  0
LINE
  8
0
 10
17.9369
 20
157.661
 11
17.3139
 21
157.74
  0
LINE
  8
0
 10
17.3139
 20
157.74
 11
-17.3139
 21
157.74
  0
LINE
  8
0
 10
-17.3139
 20
157.74
 11
-17.9369
 21
157.661
  0
LINE
  8
0
 10
-17.9369
 20
157.661
 11
-18.5451
 21
157.505
  0
LINE
  8
0
 10
-18.5451
 20
157.505
 11
-19.1289
 21
157.274
  0
LINE
  8
0
 10
-19.1289
 20
157.274
 11
-19.6791
 21
156.972
  0
LINE
  8
0
 10
-19.6791
 20
156.972
 11
-20.1871
 21
156.603
  0
LINE
  8
0
 10
-20.1871
 20
156.603
 11
-20.6448
 21
156.173
  0
LINE
  8
0
 10
-20.6448
 20
156.173
 11
-21.0451
 21
155.689
  0
LINE
  8
0
 10
-21.0451
 20
155.689
 11
-21.3815
 21
155.159
  0
LINE
  8
0
 10
-21.3815
 20
155.159
 11
-21.6489
 21
154.591
  0
LINE
  8
0
 10
-21.6489
 20
154.591
 11
-21.8429
 21
153.993
  0
LINE
  8
0
 10
-21.8429
 20
153.993
 11
-21.9606
 21
153.377
  0
LINE
  8
0
 10
-21.9606
 20
153.377
 11
-22
 21
152.75
  0
LINE
  8
0
 10
-22
 20
152.75
 11
-22
 21
126.25
  0
LINE
  8
0
 10
-22
 20
126.25
 11
-21.9606
 21
125.623
  0
LINE
  8
0
 10
-21.9606
 20
125.623
 11
-21.8429
 21
125.007
  0
LINE
  8
0
 10
-21.8429
 20
125.007
 11
-21.6489
 21
124.409
  0
LINE
  8
0
 10
-21.6489
 20
124.409
 11
-21.3815
 21
123.841
  0
LINE
  8
0
 10
-21.3815
 20
123.841
 11
-21.0451
 21
123.311
  0
LINE
  8
0
 10
-21.0451
 20
123.311
 11
-20.6448
 21
122.827
  0
LINE
  8
0
 10
-20.6448
 20
122.827
 11
-20.1871
 21
122.397
  0
LINE
  8
0
 10
-20.1871
 20
122.397
 11
-19.6791
 21
122.028
  0
LINE
  8
0
 10
-19.6791
 20
122.028
 11
-19.1289
 21
121.726
  0
LINE
  8
0
 10
-19.1289
 20
121.726
 11
-18.5451
 21
121.495
  0
LINE
  8
0
 10
-18.5451
 20
121.495
 11
-17.9369
 21
121.339
  0
LINE
  8
0
 10
-17.9369
 20
121.339
 11
-17.3139
 21
121.26
  0
LINE
  8
0
 10
-17.3139
 20
121.26
 11
17.3139
 21
121.26
  0
LINE
  8
0
 10
17.3139
 20
121.26
 11
17.9369
 21
121.339
  0
LINE
  8
0
 10
17.9369
 20
74.8386
 11
18.5451
 21
74.9947
  0
LINE
  8
0
 10
18.5451
 20
74.9947
 11
19.1289
 21
75.2259
  0
LINE
  8
0
 10
19.1289
 20
75.2259
 11
19.6791
 21
75.5284
  0
LINE
  8
0
 10
19.6791
 20
75.5284
 11
20.1871
 21
75.8974
  0
LINE
  8
0
 10
20.1871
 20
75.8974
 11
20.6448
 21
76.3273
  0
LINE
  8
0
 10
20.6448
 20
76.3273
 11
21.0451
 21
76.8111
  0
LINE
  8
0
 10
21.0451
 20
76.8111
 11
21.3815
 21
77.3412
  0
LINE
  8
0
 10
21.3815
 20
77.3412
 11
21.6489
 21
77.9094
  0
LINE
  8
0
 10
21.6489
 20
77.9094
 11
21.8429
 21
78.5066
  0
LINE
  8
0
 10
21.8429
 20
78.5066
 11
21.9606
 21
79.1233
  0
LINE
  8
0
 10
21.9606
 20
79.1233
 11
22
 21
79.75
  0
LINE
  8
0
 10
22
 20
79.75
 11
22
 21
106.25
  0
LINE
  8
0
 10
22
 20
106.25
 11
21.9606
 21
106.877
  0
LINE
  8
0
 10
21.9606
 20
106.877
 11
21.8429
 21
107.493
  0
LINE
  8
0
 10
21.8429
 20
107.493
 11
21.6489
 21
108.091
  0
LINE
  8
0
 10
21.6489
 20
108.091
 11
21.3815
 21
108.659
  0
LINE
  8
0
 10
21.3815
 20
108.659
 11
21.0451
 21
109.189
  0
LINE
  8
0
 10
21.0451
 20
109.189
 11
20.6448
 21
109.673
  0
LINE
  8
0
 10
20.6448
 20
109.673
 11
20.1871
 21
110.103
  0
LINE
  8
0
 10
20.1871
 20
110.103
 11
19.6791
 21
110.472
  0
LINE
  8
0
 10
19.6791
 20
110.472
 11
19.1289
 21
110.774
  0
LINE
  8
0
 10
19.1289
 20
110.774
 11
18.5451
 21
111.005
  0
LINE
  8
0
 10
18.5451
 20
111.005
 11
17.9369
 21
111.161
  0
LINE
  8
0
 10
17.9369
 20
111.161
 11
17.3139
 21
111.24
  0
LINE
  8
0
 10
17.3139
 20
111.24
 11
-17.3139
 21
111.24
  0
LINE
  8
0
 10
-17.3139
 20
111.24
 11
-17.9369
 21
111.161
  0
LINE
  8
0
 10
-17.9369
 20
111.161
 11
-18.5451
 21
111.005
  0
LINE
  8
0
 10
-18.5451
 20
111.005
 11
-19.1289
 21
110.774
  0
LINE
  8
0
 10
-19.1289
 20
110.774
 11
-19.6791
 21
110.472
  0
LINE
  8
0
 10
-19.6791
 20
110.472
 11
-20.1871
 21
110.103
  0
LINE
  8
0
 10
-20.1871
 20
110.103
 11
-20.6448
 21
109.673
  0
LINE
  8
0
 10
-20.6448
 20
109.673
 11
-21.0451
 21
109.189
  0
LINE
  8
0
 10
-21.0451
 20
109.189
 11
-21.3815
 21
108.659
  0
LINE
  8
0
 10
-21.3815
 20
108.659
 11
-21.6489
 21
108.091
  0
LINE
  8
0
 10
-21.6489
 20
108.091
 11
-21.8429
 21
107.493
  0
LINE
  8
0
 10
-21.8429
 20
107.493
 11
-21.9606
 21
106.877
  0
LINE
  8
0
 10
-21.9606
 20
106.877
 11
-22
 21
106.25
  0
LINE
  8
0
 10
-22
 20
106.25
 11
-22
 21
79.75
  0
LINE
  8
0
 10
-22
 20
79.75
 11
-21.9606
 21
79.1233
  0
LINE
  8
0
 10
-21.9606
 20
79.1233
 11
-21.8429
 21
78.5066
  0
LINE
  8
0
 10
-21.8429
 20
78.5066
 11
-21.6489
 21
77.9094
  0
LINE
  8
0
 10
-21.6489
 20
77.9094
 11
-21.3815
 21
77.3412
  0
LINE
  8
0
 10
-21.3815
 20
77.3412
 11
-21.0451
 21
76.8111
  0
LINE
  8
0
 10
-21.0451
 20
76.8111
 11
-20.6448
 21
76.3273
  0
LINE
  8
0
 10
-20.6448
 20
76.3273
 11
-20.1871
 21
75.8974
  0
LINE
  8
0
 10
-20.1871
 20
75.8974
 11
-19.6791
 21
75.5284
  0
LINE
  8
0
 10
-19.6791
 20
75.5284
 11
-19.1289
 21
75.2259
  0
LINE
  8
0
 10
-19.1289
 20
75.2259
 11
-18.5451
 21
74.9947
  0
LINE
  8
0
 10
-18.5451
 20
74.9947
 11
-17.9369
 21
74.8386
  0
LINE
  8
0
 10
-17.9369
 20
74.8386
 11
-17.3139
 21
74.7599
  0
LINE
  8
0
 10
-17.3139
 20
74.7599
 11
17.3139
 21
74.7599
  0
LINE
  8
0
 10
17.3139
 20
74.7599
 11
17.9369
 21
74.8386
  0
LINE
  8
0
 10
-15.1507
 20
101.855
 11
-15.4497
 21
101.893
  0
LINE
  8
0
 10
-15.4497
 20
101.893
 11
-15.7416
 21
101.967
  0
LINE
  8
0
 10
-15.7416
 20
101.967
 11
-16.0219
 21
102.078
  0
LINE
  8
0
 10
-16.0219
 20
102.078
 11
-16.286
 21
102.224
  0
LINE
  8
0
 10
-16.286
 20
102.224
 11
-16.5298
 21
102.401
  0
LINE
  8
0
 10
-16.5298
 20
102.401
 11
-16.7495
 21
102.607
  0
LINE
  8
0
 10
-16.7495
 20
102.607
 11
-16.9416
 21
102.839
  0
LINE
  8
0
 10
-16.9416
 20
102.839
 11
-17.1031
 21
103.094
  0
LINE
  8
0
 10
-17.1031
 20
103.094
 11
-17.2315
 21
103.367
  0
LINE
  8
0
 10
-17.2315
 20
103.367
 11
-17.3246
 21
103.653
  0
LINE
  8
0
 10
-17.3246
 20
103.653
 11
-17.3811
 21
103.949
  0
LINE
  8
0
 10
-17.3811
 20
103.949
 11
-17.4
 21
104.25
  0
LINE
  8
0
 10
-17.4
 20
104.25
 11
-17.3811
 21
104.551
  0
LINE
  8
0
 10
-17.3811
 20
104.551
 11
-17.3246
 21
104.847
  0
LINE
  8
0
 10
-17.3246
 20
104.847
 11
-17.2315
 21
105.133
  0
LINE
  8
0
 10
-17.2315
 20
105.133
 11
-17.1031
 21
105.406
  0
LINE
  8
0
 10
-17.1031
 20
105.406
 11
-16.9416
 21
105.661
  0
LINE
  8
0
 10
-16.9416
 20
105.661
 11
-16.7495
 21
105.893
  0
LINE
  8
0
 10
-16.7495
 20
105.893
 11
-16.5298
 21
106.099
  0
LINE
  8
0
 10
-16.5298
 20
106.099
 11
-16.286
 21
106.276
  0
LINE
  8
0
 10
-16.286
 20
106.276
 11
-16.0219
 21
106.422
  0
LINE
  8
0
 10
-16.0219
 20
106.422
 11
-15.7416
 21
106.533
  0
LINE
  8
0
 10
-15.7416
 20
106.533
 11
-15.4497
 21
106.607
  0
LINE
  8
0
 10
-15.4497
 20
106.607
 11
-15.1507
 21
106.645
  0
LINE
  8
0
 10
-15.1507
 20
106.645
 11
-14.8493
 21
106.645
  0
LINE
  8
0
 10
-14.8493
 20
106.645
 11
-14.5503
 21
106.607
  0
LINE
  8
0
 10
-14.5503
 20
106.607
 11
-14.2583
 21
106.533
  0
LINE
  8
0
 10
-14.2583
 20
106.533
 11
-13.9781
 21
106.422
  0
LINE
  8
0
 10
-13.9781
 20
106.422
 11
-13.714
 21
106.276
  0
LINE
  8
0
 10
-13.714
 20
106.276
 11
-13.4702
 21
106.099
  0
LINE
  8
0
 10
-13.4702
 20
106.099
 11
-13.2505
 21
105.893
  0
LINE
  8
0
 10
-13.2505
 20
105.893
 11
-13.0583
 21
105.661
  0
LINE
  8
0
 10
-13.0583
 20
105.661
 11
-12.8969
 21
105.406
  0
LINE
  8
0
 10
-12.8969
 20
105.406
 11
-12.7685
 21
105.133
  0
LINE
  8
0
 10
-12.7685
 20
105.133
 11
-12.6754
 21
104.847
  0
LINE
  8
0
 10
-12.6754
 20
104.847
 11
-12.6189
 21
104.551
  0
LINE
  8
0
 10
-12.6189
 20
104.551
 11
-12.6
 21
104.25
  0
LINE
  8
0
 10
-12.6
 20
104.25
 11
-12.6189
 21
103.949
  0
LINE
  8
0
 10
-12.6189
 20
103.949
 11
-12.6754
 21
103.653
  0
LINE
  8
0
 10
-12.6754
 20
103.653
 11
-12.7685
 21
103.367
  0
LINE
  8
0
 10
-12.7685
 20
103.367
 11
-12.8969
 21
103.094
  0
LINE
  8
0
 10
-12.8969
 20
103.094
 11
-13.0583
 21
102.839
  0
LINE
  8
0
 10
-13.0583
 20
102.839
 11
-13.2505
 21
102.607
  0
LINE
  8
0
 10
-13.2505
 20
102.607
 11
-13.4702
 21
102.401
  0
LINE
  8
0
 10
-13.4702
 20
102.401
 11
-13.714
 21
102.224
  0
LINE
  8
0
 10
-13.714
 20
102.224
 11
-13.9781
 21
102.078
  0
LINE
  8
0
 10
-13.9781
 20
102.078
 11
-14.2583
 21
101.967
  0
LINE
  8
0
 10
-14.2583
 20
101.967
 11
-14.5503
 21
101.893
  0
LINE
  8
0
 10
-14.5503
 20
101.893
 11
-14.8493
 21
101.855
  0
LINE
  8
0
 10
-14.8493
 20
101.855
 11
-15.1507
 21
101.855
  0
LINE
  8
0
 10
14.8493
 20
101.855
 11
14.5503
 21
101.893
  0
LINE
  8
0
 10
14.5503
 20
101.893
 11
14.2583
 21
101.967
  0
LINE
  8
0
 10
14.2583
 20
101.967
 11
13.9781
 21
102.078
  0
LINE
  8
0
 10
13.9781
 20
102.078
 11
13.714
 21
102.224
  0
LINE
  8
0
 10
13.714
 20
102.224
 11
13.4702
 21
102.401
  0
LINE
  8
0
 10
13.4702
 20
102.401
 11
13.2505
 21
102.607
  0
LINE
  8
0
 10
13.2505
 20
102.607
 11
13.0583
 21
102.839
  0
LINE
  8
0
 10
13.0583
 20
102.839
 11
12.8969
 21
103.094
  0
LINE
  8
0
 10
12.8969
 20
103.094
 11
12.7685
 21
103.367
  0
LINE
  8
0
 10
12.7685
 20
103.367
 11
12.6754
 21
103.653
  0
LINE
  8
0
 10
12.6754
 20
103.653
 11
12.6189
 21
103.949
  0
LINE
  8
0
 10
12.6189
 20
103.949
 11
12.6
 21
104.25
  0
LINE
  8
0
 10
12.6
 20
104.25
 11
12.6189
 21
104.551
  0
LINE
  8
0
 10
12.6189
 20
104.551
 11
12.6754
 21
104.847
  0
LINE
  8
0
 10
12.6754
 20
104.847
 11
12.7685
 21
105.133
  0
LINE
  8
0
 10
12.7685
 20
105.133
 11
12.8969
 21
105.406
  0
LINE
  8
0
 10
12.8969
 20
105.406
 11
13.0583
 21
105.661
  0
LINE
  8
0
 10
13.0583
 20
105.661
 11
13.2505
 21
105.893
  0
LINE
  8
0
 10
13.2505
 20
105.893
 11
13.4702
 21
106.099
  0
LINE
  8
0
 10
13.4702
 20
106.099
 11
13.714
 21
106.276
  0
LINE
  8
0
 10
13.714
 20
106.276
 11
13.9781
 21
106.422
  0
LINE
  8
0
 10
13.9781
 20
106.422
 11
14.2583
 21
106.533
  0
LINE
  8
0
 10
14.2583
 20
106.533
 11
14.5503
 21
106.607
  0
LINE
  8
0
 10
14.5503
 20
106.607
 11
14.8493
 21
106.645
  0
LINE
  8
0
 10
14.8493
 20
106.645
 11
15.1507
 21
106.645
  0
LINE
  8
0
 10
15.1507
 20
106.645
 11
15.4497
 21
106.607
  0
LINE
  8
0
 10
15.4497
 20
106.607
 11
15.7416
 21
106.533
  0
LINE
  8
0
 10
15.7416
 20
106.533
 11
16.0219
 21
106.422
  0
LINE
  8
0
 10
16.0219
 20
106.422
 11
16.286
 21
106.276
  0
LINE
  8
0
 10
16.286
 20
106.276
 11
16.5298
 21
106.099
  0
LINE
  8
0
 10
16.5298
 20
106.099
 11
16.7495
 21
105.893
  0
LINE
  8
0
 10
16.7495
 20
105.893
 11
16.9416
 21
105.661
  0
LINE
  8
0
 10
16.9416
 20
105.661
 11
17.1031
 21
105.406
  0
LINE
  8
0
 10
17.1031
 20
105.406
 11
17.2315
 21
105.133
  0
LINE
  8
0
 10
17.2315
 20
105.133
 11
17.3246
 21
104.847
  0
LINE
  8
0
 10
17.3246
 20
104.847
 11
17.3811
 21
104.551
  0
LINE
  8
0
 10
17.3811
 20
104.551
 11
17.4
 21
104.25
  0
LINE
  8
0
 10
17.4
 20
104.25
 11
17.3811
 21
103.949
  0
LINE
  8
0
 10
17.3811
 20
103.949
 11
17.3246
 21
103.653
  0
LINE
  8
0
 10
17.3246
 20
103.653
 11
17.2315
 21
103.367
  0
LINE
  8
0
 10
17.2315
 20
103.367
 11
17.1031
 21
103.094
  0
LINE
  8
0
 10
17.1031
 20
103.094
 11
16.9416
 21
102.839
  0
LINE
  8
0
 10
16.9416
 20
102.839
 11
16.7495
 21
102.607
  0
LINE
  8
0
 10
16.7495
 20
102.607
 11
16.5298
 21
102.401
  0
LINE
  8
0
 10
16.5298
 20
102.401
 11
16.286
 21
102.224
  0
LINE
  8
0
 10
16.286
 20
102.224
 11
16.0219
 21
102.078
  0
LINE
  8
0
 10
16.0219
 20
102.078
 11
15.7416
 21
101.967
  0
LINE
  8
0
 10
15.7416
 20
101.967
 11
15.4497
 21
101.893
  0
LINE
  8
0
 10
15.4497
 20
101.893
 11
15.1507
 21
101.855
  0
LINE
  8
0
 10
15.1507
 20
101.855
 11
14.8493
 21
101.855
  0
LINE
  8
0
 10
-15.1507
 20
79.3547
 11
-15.4497
 21
79.3925
  0
LINE
  8
0
 10
-15.4497
 20
79.3925
 11
-15.7416
 21
79.4675
  0
LINE
  8
0
 10
-15.7416
 20
79.4675
 11
-16.0219
 21
79.5784
  0
LINE
  8
0
 10
-16.0219
 20
79.5784
 11
-16.286
 21
79.7236
  0
LINE
  8
0
 10
-16.286
 20
79.7236
 11
-16.5298
 21
79.9008
  0
LINE
  8
0
 10
-16.5298
 20
79.9008
 11
-16.7495
 21
80.1071
  0
LINE
  8
0
 10
-16.7495
 20
80.1071
 11
-16.9416
 21
80.3393
  0
LINE
  8
0
 10
-16.9416
 20
80.3393
 11
-17.1031
 21
80.5938
  0
LINE
  8
0
 10
-17.1031
 20
80.5938
 11
-17.2315
 21
80.8665
  0
LINE
  8
0
 10
-17.2315
 20
80.8665
 11
-17.3246
 21
81.1532
  0
LINE
  8
0
 10
-17.3246
 20
81.1532
 11
-17.3811
 21
81.4492
  0
LINE
  8
0
 10
-17.3811
 20
81.4492
 11
-17.4
 21
81.75
  0
LINE
  8
0
 10
-17.4
 20
81.75
 11
-17.3811
 21
82.0508
  0
LINE
  8
0
 10
-17.3811
 20
82.0508
 11
-17.3246
 21
82.3469
  0
LINE
  8
0
 10
-17.3246
 20
82.3469
 11
-17.2315
 21
82.6335
  0
LINE
  8
0
 10
-17.2315
 20
82.6335
 11
-17.1031
 21
82.9062
  0
LINE
  8
0
 10
-17.1031
 20
82.9062
 11
-16.9416
 21
83.1607
  0
LINE
  8
0
 10
-16.9416
 20
83.1607
 11
-16.7495
 21
83.3929
  0
LINE
  8
0
 10
-16.7495
 20
83.3929
 11
-16.5298
 21
83.5992
  0
LINE
  8
0
 10
-16.5298
 20
83.5992
 11
-16.286
 21
83.7764
  0
LINE
  8
0
 10
-16.286
 20
83.7764
 11
-16.0219
 21
83.9216
  0
LINE
  8
0
 10
-16.0219
 20
83.9216
 11
-15.7416
 21
84.0325
  0
LINE
  8
0
 10
-15.7416
 20
84.0325
 11
-15.4497
 21
84.1075
  0
LINE
  8
0
 10
-15.4497
 20
84.1075
 11
-15.1507
 21
84.1453
  0
LINE
  8
0
 10
-15.1507
 20
84.1453
 11
-14.8493
 21
84.1453
  0
LINE
  8
0
 10
-14.8493
 20
84.1453
 11
-14.5503
 21
84.1075
  0
LINE
  8
0
 10
-14.5503
 20
84.1075
 11
-14.2583
 21
84.0325
  0
LINE
  8
0
 10
-14.2583
 20
84.0325
 11
-13.9781
 21
83.9216
  0
LINE
  8
0
 10
-13.9781
 20
83.9216
 11
-13.714
 21
83.7764
  0
LINE
  8
0
 10
-13.714
 20
83.7764
 11
-13.4702
 21
83.5992
  0
LINE
  8
0
 10
-13.4702
 20
83.5992
 11
-13.2505
 21
83.3929
  0
LINE
  8
0
 10
-13.2505
 20
83.3929
 11
-13.0583
 21
83.1607
  0
LINE
  8
0
 10
-13.0583
 20
83.1607
 11
-12.8969
 21
82.9062
  0
LINE
  8
0
 10
-12.8969
 20
82.9062
 11
-12.7685
 21
82.6335
  0
LINE
  8
0
 10
-12.7685
 20
82.6335
 11
-12.6754
 21
82.3469
  0
LINE
  8
0
 10
-12.6754
 20
82.3469
 11
-12.6189
 21
82.0508
  0
LINE
  8
0
 10
-12.6189
 20
82.0508
 11
-12.6
 21
81.75
  0
LINE
  8
0
 10
-12.6
 20
81.75
 11
-12.6189
 21
81.4492
  0
LINE
  8
0
 10
-12.6189
 20
81.4492
 11
-12.6754
 21
81.1532
  0
LINE
  8
0
 10
-12.6754
 20
81.1532
 11
-12.7685
 21
80.8665
  0
LINE
  8
0
 10
-12.7685
 20
80.8665
 11
-12.8969
 21
80.5938
  0
LINE
  8
0
 10
-12.8969
 20
80.5938
 11
-13.0583
 21
80.3393
  0
LINE
  8
0
 10
-13.0583
 20
80.3393
 11
-13.2505
 21
80.1071
  0
LINE
  8
0
 10
-13.2505
 20
80.1071
 11
-13.4702
 21
79.9008
  0
LINE
  8
0
 10
-13.4702
 20
79.9008
 11
-13.714
 21
79.7236
  0
LINE
  8
0
 10
-13.714
 20
79.7236
 11
-13.9781
 21
79.5784
  0
LINE
  8
0
 10
-13.9781
 20
79.5784
 11
-14.2583
 21
79.4675
  0
LINE
  8
0
 10
-14.2583
 20
79.4675
 11
-14.5503
 21
79.3925
  0
LINE
  8
0
 10
-14.5503
 20
79.3925
 11
-14.8493
 21
79.3547
  0
LINE
  8
0
 10
-14.8493
 20
79.3547
 11
-15.1507
 21
79.3547
  0
LINE
  8
0
 10
14.8493
 20
79.3547
 11
14.5503
 21
79.3925
  0
LINE
  8
0
 10
14.5503
 20
79.3925
 11
14.2583
 21
79.4675
  0
LINE
  8
0
 10
14.2583
 20
79.4675
 11
13.9781
 21
79.5784
  0
LINE
  8
0
 10
13.9781
 20
79.5784
 11
13.714
 21
79.7236
  0
LINE
  8
0
 10
13.714
 20
79.7236
 11
13.4702
 21
79.9008
  0
LINE
  8
0
 10
13.4702
 20
79.9008
 11
13.2505
 21
80.1071
  0
LINE
  8
0
 10
13.2505
 20
80.1071
 11
13.0583
 21
80.3393
  0
LINE
  8
0
 10
13.0583
 20
80.3393
 11
12.8969
 21
80.5938
  0
LINE
  8
0
 10
12.8969
 20
80.5938
 11
12.7685
 21
80.8665
  0
LINE
  8
0
 10
12.7685
 20
80.8665
 11
12.6754
 21
81.1532
  0
LINE
  8
0
 10
12.6754
 20
81.1532
 11
12.6189
 21
81.4492
  0
LINE
  8
0
 10
12.6189
 20
81.4492
 11
12.6
 21
81.75
  0
LINE
  8
0
 10
12.6
 20
81.75
 11
12.6189
 21
82.0508
  0
LINE
  8
0
 10
12.6189
 20
82.0508
 11
12.6754
 21
82.3469
  0
LINE
  8
0
 10
12.6754
 20
82.3469
 11
12.7685
 21
82.6335
  0
LINE
  8
0
 10
12.7685
 20
82.6335
 11
12.8969
 21
82.9062
  0
LINE
  8
0
 10
12.8969
 20
82.9062
 11
13.0583
 21
83.1607
  0
LINE
  8
0
 10
13.0583
 20
83.1607
 11
13.2505
 21
83.3929
  0
LINE
  8
0
 10
13.2505
 20
83.3929
 11
13.4702
 21
83.5992
  0
LINE
  8
0
 10
13.4702
 20
83.5992
 11
13.714
 21
83.7764
  0
LINE
  8
0
 10
13.714
 20
83.7764
 11
13.9781
 21
83.9216
  0
LINE
  8
0
 10
13.9781
 20
83.9216
 11
14.2583
 21
84.0325
  0
LINE
  8
0
 10
14.2583
 20
84.0325
 11
14.5503
 21
84.1075
  0
LINE
  8
0
 10
14.5503
 20
84.1075
 11
14.8493
 21
84.1453
  0
LINE
  8
0
 10
14.8493
 20
84.1453
 11
15.1507
 21
84.1453
  0
LINE
  8
0
 10
15.1507
 20
84.1453
 11
15.4497
 21
84.1075
  0
LINE
  8
0
 10
15.4497
 20
84.1075
 11
15.7416
 21
84.0325
  0
LINE
  8
0
 10
15.7416
 20
84.0325
 11
16.0219
 21
83.9216
  0
LINE
  8
0
 10
16.0219
 20
83.9216
 11
16.286
 21
83.7764
  0
LINE
  8
0
 10
16.286
 20
83.7764
 11
16.5298
 21
83.5992
  0
LINE
  8
0
 10
16.5298
 20
83.5992
 11
16.7495
 21
83.3929
  0
LINE
  8
0
 10
16.7495
 20
83.3929
 11
16.9416
 21
83.1607
  0
LINE
  8
0
 10
16.9416
 20
83.1607
 11
17.1031
 21
82.9062
  0
LINE
  8
0
 10
17.1031
 20
82.9062
 11
17.2315
 21
82.6335
  0
LINE
  8
0
 10
17.2315
 20
82.6335
 11
17.3246
 21
82.3469
  0
LINE
  8
0
 10
17.3246
 20
82.3469
 11
17.3811
 21
82.0508
  0
LINE
  8
0
 10
17.3811
 20
82.0508
 11
17.4
 21
81.75
  0
LINE
  8
0
 10
17.4
 20
81.75
 11
17.3811
 21
81.4492
  0
LINE
  8
0
 10
17.3811
 20
81.4492
 11
17.3246
 21
81.1532
  0
LINE
  8
0
 10
17.3246
 20
81.1532
 11
17.2315
 21
80.8665
  0
LINE
  8
0
 10
17.2315
 20
80.8665
 11
17.1031
 21
80.5938
  0
LINE
  8
0
 10
17.1031
 20
80.5938
 11
16.9416
 21
80.3393
  0
LINE
  8
0
 10
16.9416
 20
80.3393
 11
16.7495
 21
80.1071
  0
LINE
  8
0
 10
16.7495
 20
80.1071
 11
16.5298
 21
79.9008
  0
LINE
  8
0
 10
16.5298
 20
79.9008
 11
16.286
 21
79.7236
  0
LINE
  8
0
 10
16.286
 20
79.7236
 11
16.0219
 21
79.5784
  0
LINE
  8
0
 10
16.0219
 20
79.5784
 11
15.7416
 21
79.4675
  0
LINE
  8
0
 10
15.7416
 20
79.4675
 11
15.4497
 21
79.3925
  0
LINE
  8
0
 10
15.4497
 20
79.3925
 11
15.1507
 21
79.3547
  0
LINE
  8
0
 10
15.1507
 20
79.3547
 11
14.8493
 21
79.3547
  0
LINE
  8
0
 10
-17.3139
 20
204.24
 11
-17.9369
 21
204.161
  0
LINE
  8
0
 10
-17.9369
 20
204.161
 11
-18.5451
 21
204.005
  0
LINE
  8
0
 10
-18.5451
 20
204.005
 11
-19.1289
 21
203.774
  0
LINE
  8
0
 10
-19.1289
 20
203.774
 11
-19.6791
 21
203.472
  0
LINE
  8
0
 10
-19.6791
 20
203.472
 11
-20.1871
 21
203.103
  0
LINE
  8
0
 10
-20.1871
 20
203.103
 11
-20.6448
 21
202.673
  0
LINE
  8
0
 10
-20.6448
 20
202.673
 11
-21.0451
 21
202.189
  0
LINE
  8
0
 10
-21.0451
 20
202.189
 11
-21.3815
 21
201.659
  0
LINE
  8
0
 10
-21.3815
 20
201.659
 11
-21.6489
 21
201.091
  0
LINE
  8
0
 10
-21.6489
 20
201.091
 11
-21.8429
 21
200.493
  0
LINE
  8
0
 10
-21.8429
 20
200.493
 11
-21.9606
 21
199.877
  0
LINE
  8
0
 10
-21.9606
 20
199.877
 11
-22
 21
199.25
  0
LINE
  8
0
 10
-22
 20
199.25
 11
-22
 21
172.75
  0
LINE
  8
0
 10
-22
 20
172.75
 11
-21.9606
 21
172.123
  0
LINE
  8
0
 10
-21.9606
 20
172.123
 11
-21.8429
 21
171.507
  0
LINE
  8
0
 10
-21.8429
 20
171.507
 11
-21.6489
 21
170.909
  0
LINE
  8
0
 10
-21.6489
 20
170.909
 11
-21.3815
 21
170.341
  0
LINE
  8
0
 10
-21.3815
 20
170.341
 11
-21.0451
 21
169.811
  0
LINE
  8
0
 10
-21.0451
 20
169.811
 11
-20.6448
 21
169.327
  0
LINE
  8
0
 10
-20.6448
 20
169.327
 11
-20.1871
 21
168.897
  0
LINE
  8
0
 10
-20.1871
 20
168.897
 11
-19.6791
 21
168.528
  0
LINE
  8
0
 10
-19.6791
 20
168.528
 11
-19.1289
 21
168.226
  0
LINE
  8
0
 10
-19.1289
 20
168.226
 11
-18.5451
 21
167.995
  0
LINE
  8
0
 10
-18.5451
 20
167.995
 11
-17.9369
 21
167.839
  0
LINE
  8
0
 10
-17.9369
 20
167.839
 11
-17.3139
 21
167.76
  0
LINE
  8
0
 10
-17.3139
 20
167.76
 11
17.3139
 21
167.76
  0
LINE
  8
0
 10
17.3139
 20
167.76
 11
17.9369
 21
167.839
  0
LINE
  8
0
 10
17.9369
 20
167.839
 11
18.5451
 21
167.995
  0
LINE
  8
0
 10
18.5451
 20
167.995
 11
19.1289
 21
168.226
  0
LINE
  8
0
 10
19.1289
 20
168.226
 11
19.6791
 21
168.528
  0
LINE
  8
0
 10
19.6791
 20
168.528
 11
20.1871
 21
168.897
  0
LINE
  8
0
 10
20.1871
 20
168.897
 11
20.6448
 21
169.327
  0
LINE
  8
0
 10
20.6448
 20
169.327
 11
21.0451
 21
169.811
  0
LINE
  8
0
 10
21.0451
 20
169.811
 11
21.3815
 21
170.341
  0
LINE
  8
0
 10
21.3815
 20
170.341
 11
21.6489
 21
170.909
  0
LINE
  8
0
 10
21.6489
 20
170.909
 11
21.8429
 21
171.507
  0
LINE
  8
0
 10
21.8429
 20
171.507
 11
21.9606
 21
172.123
  0
LINE
  8
0
 10
21.9606
 20
172.123
 11
22
 21
172.75
  0
LINE
  8
0
 10
22
 20
172.75
 11
22
 21
199.25
  0
LINE
  8
0
 10
22
 20
199.25
 11
21.9606
 21
199.877
  0
LINE
  8
0
 10
21.9606
 20
199.877
 11
21.8429
 21
200.493
  0
LINE
  8
0
 10
21.8429
 20
200.493
 11
21.6489
 21
201.091
  0
LINE
  8
0
 10
21.6489
 20
201.091
 11
21.3815
 21
201.659
  0
LINE
  8
0
 10
21.3815
 20
201.659
 11
21.0451
 21
202.189
  0
LINE
  8
0
 10
21.0451
 20
202.189
 11
20.6448
 21
202.673
  0
LINE
  8
0
 10
20.6448
 20
202.673
 11
20.1871
 21
203.103
  0
LINE
  8
0
 10
20.1871
 20
203.103
 11
19.6791
 21
203.472
  0
LINE
  8
0
 10
19.6791
 20
203.472
 11
19.1289
 21
203.774
  0
LINE
  8
0
 10
19.1289
 20
203.774
 11
18.5451
 21
204.005
  0
LINE
  8
0
 10
18.5451
 20
204.005
 11
17.9369
 21
204.161
  0
LINE
  8
0
 10
17.9369
 20
204.161
 11
17.3139
 21
204.24
  0
LINE
  8
0
 10
17.3139
 20
204.24
 11
-17.3139
 21
204.24
  0
LINE
  8
0
 10
18.6489
 20
202.754
 11
19.0751
 21
202.52
  0
LINE
  8
0
 10
19.0751
 20
202.52
 11
19.4685
 21
202.234
  0
LINE
  8
0
 10
19.4685
 20
202.234
 11
19.823
 21
201.901
  0
LINE
  8
0
 10
19.823
 20
201.901
 11
20.133
 21
201.526
  0
LINE
  8
0
 10
20.133
 20
201.526
 11
20.3936
 21
201.116
  0
LINE
  8
0
 10
20.3936
 20
201.116
 11
20.6007
 21
200.676
  0
LINE
  8
0
 10
20.6007
 20
200.676
 11
20.751
 21
200.213
  0
LINE
  8
0
 10
20.751
 20
200.213
 11
20.8421
 21
199.735
  0
LINE
  8
0
 10
20.8421
 20
199.735
 11
20.8726
 21
199.25
  0
LINE
  8
0
 10
20.8726
 20
199.25
 11
20.8726
 21
172.75
  0
LINE
  8
0
 10
20.8726
 20
172.75
 11
20.8421
 21
172.265
  0
LINE
  8
0
 10
20.8421
 20
172.265
 11
20.751
 21
171.787
  0
LINE
  8
0
 10
20.751
 20
171.787
 11
20.6007
 21
171.324
  0
LINE
  8
0
 10
20.6007
 20
171.324
 11
20.3936
 21
170.884
  0
LINE
  8
0
 10
20.3936
 20
170.884
 11
20.133
 21
170.474
  0
LINE
  8
0
 10
20.133
 20
170.474
 11
19.823
 21
170.099
  0
LINE
  8
0
 10
19.823
 20
170.099
 11
19.4685
 21
169.766
  0
LINE
  8
0
 10
19.4685
 20
169.766
 11
19.0751
 21
169.48
  0
LINE
  8
0
 10
19.0751
 20
169.48
 11
18.6489
 21
169.246
  0
LINE
  8
0
 10
18.6489
 20
169.246
 11
18.1967
 21
169.067
  0
LINE
  8
0
 10
18.1967
 20
169.067
 11
17.7256
 21
168.946
  0
LINE
  8
0
 10
17.7256
 20
168.946
 11
17.2432
 21
168.885
  0
LINE
  8
0
 10
17.2432
 20
168.885
 11
-17.2432
 21
168.885
  0
LINE
  8
0
 10
-17.2432
 20
168.885
 11
-17.7256
 21
168.946
  0
LINE
  8
0
 10
-17.7256
 20
168.946
 11
-18.1967
 21
169.067
  0
LINE
  8
0
 10
-18.1967
 20
169.067
 11
-18.6489
 21
169.246
  0
LINE
  8
0
 10
-18.6489
 20
169.246
 11
-19.0751
 21
169.48
  0
LINE
  8
0
 10
-19.0751
 20
169.48
 11
-19.4685
 21
169.766
  0
LINE
  8
0
 10
-19.4685
 20
169.766
 11
-19.823
 21
170.099
  0
LINE
  8
0
 10
-19.823
 20
170.099
 11
-20.133
 21
170.474
  0
LINE
  8
0
 10
-20.133
 20
170.474
 11
-20.3936
 21
170.884
  0
LINE
  8
0
 10
-20.3936
 20
170.884
 11
-20.6007
 21
171.324
  0
LINE
  8
0
 10
-20.6007
 20
171.324
 11
-20.751
 21
171.787
  0
LINE
  8
0
 10
-20.751
 20
171.787
 11
-20.8421
 21
172.265
  0
LINE
  8
0
 10
-20.8421
 20
172.265
 11
-20.8726
 21
172.75
  0
LINE
  8
0
 10
-20.8726
 20
172.75
 11
-20.8726
 21
199.25
  0
LINE
  8
0
 10
-20.8726
 20
199.25
 11
-20.8421
 21
199.735
  0
LINE
  8
0
 10
-20.8421
 20
199.735
 11
-20.751
 21
200.213
  0
LINE
  8
0
 10
-20.751
 20
200.213
 11
-20.6007
 21
200.676
  0
LINE
  8
0
 10
-20.6007
 20
200.676
 11
-20.3936
 21
201.116
  0
LINE
  8
0
 10
-20.3936
 20
201.116
 11
-20.133
 21
201.526
  0
LINE
  8
0
 10
-20.133
 20
201.526
 11
-19.823
 21
201.901
  0
LINE
  8
0
 10
-19.823
 20
201.901
 11
-19.4685
 21
202.234
  0
LINE
  8
0
 10
-19.4685
 20
202.234
 11
-19.0751
 21
202.52
  0
LINE
  8
0
 10
-19.0751
 20
202.52
 11
-18.6489
 21
202.754
  0
LINE
  8
0
 10
-18.6489
 20
202.754
 11
-18.1967
 21
202.933
  0
LINE
  8
0
 10
-18.1967
 20
202.933
 11
-17.7256
 21
203.054
  0
LINE
  8
0
 10
-17.7256
 20
203.054
 11
-17.2432
 21
203.115
  0
LINE
  8
0
 10
-17.2432
 20
203.115
 11
17.2432
 21
203.115
  0
LINE
  8
0
 10
17.2432
 20
203.115
 11
17.7256
 21
203.054
  0
LINE
  8
0
 10
17.7256
 20
203.054
 11
18.1967
 21
202.933
  0
LINE
  8
0
 10
18.1967
 20
202.933
 11
18.6489
 21
202.754
  0
ENDSEC
  0
SECTION
  2
OBJECTS
  0
DICTIONARY
  0
ENDSEC
  0
EOF
