  0
SECTION
  2
BLOCKS
  0
ENDSEC
  0
SECTION
  2
ENTITIES
  0
LINE
  8
0
 10
-6
 20
250.007
 11
-5.64484
 21
249.577
  0
LINE
  8
0
 10
-5.64484
 20
249.577
 11
-5.18712
 21
249.147
  0
LINE
  8
0
 10
-5.18712
 20
249.147
 11
-4.67912
 21
248.778
  0
LINE
  8
0
 10
-4.67912
 20
248.778
 11
-4.12889
 21
248.476
  0
LINE
  8
0
 10
-4.12889
 20
248.476
 11
-3.54507
 21
248.245
  0
LINE
  8
0
 10
-3.54507
 20
248.245
 11
-2.9369
 21
248.089
  0
LINE
  8
0
 10
-2.9369
 20
248.089
 11
-2.31395
 21
248.01
  0
LINE
  8
0
 10
-2.31395
 20
248.01
 11
2.31395
 21
248.01
  0
LINE
  8
0
 10
2.31395
 20
248.01
 11
2.9369
 21
248.089
  0
LINE
  8
0
 10
2.9369
 20
248.089
 11
3.54507
 21
248.245
  0
LINE
  8
0
 10
3.54507
 20
248.245
 11
4.12889
 21
248.476
  0
LINE
  8
0
 10
4.12889
 20
248.476
 11
4.67912
 21
248.778
  0
LINE
  8
0
 10
4.67912
 20
248.778
 11
5.18712
 21
249.147
  0
LINE
  8
0
 10
5.18712
 20
249.147
 11
5.64484
 21
249.577
  0
LINE
  8
0
 10
5.64484
 20
249.577
 11
6.04507
 21
250.061
  0
LINE
  8
0
 10
6.04507
 20
250.061
 11
6.38153
 21
250.591
  0
LINE
  8
0
 10
6.38153
 20
250.591
 11
6.64888
 21
251.159
  0
LINE
  8
0
 10
6.64888
 20
251.159
 11
6.84291
 21
251.757
  0
LINE
  8
0
 10
6.84291
 20
251.757
 11
6.96057
 21
252.373
  0
LINE
  8
0
 10
6.96057
 20
252.373
 11
7
 21
253
  0
LINE
  8
0
 10
7
 20
253
 11
7
 21
287
  0
LINE
  8
0
 10
7
 20
287
 11
6.96057
 21
287.627
  0
LINE
  8
0
 10
6.96057
 20
287.627
 11
6.84291
 21
288.243
  0
LINE
  8
0
 10
6.84291
 20
288.243
 11
6.64888
 21
288.841
  0
LINE
  8
0
 10
6.64888
 20
288.841
 11
6.38153
 21
289.409
  0
LINE
  8
0
 10
6.38153
 20
289.409
 11
6.04507
 21
289.939
  0
LINE
  8
0
 10
6.04507
 20
289.939
 11
5.64484
 21
290.423
  0
LINE
  8
0
 10
5.64484
 20
290.423
 11
5.18712
 21
290.853
  0
LINE
  8
0
 10
5.18712
 20
290.853
 11
4.67912
 21
291.222
  0
LINE
  8
0
 10
4.67912
 20
291.222
 11
4.12889
 21
291.524
  0
LINE
  8
0
 10
4.12889
 20
291.524
 11
3.54507
 21
291.755
  0
LINE
  8
0
 10
3.54507
 20
291.755
 11
2.9369
 21
291.911
  0
LINE
  8
0
 10
2.9369
 20
291.911
 11
2.31395
 21
291.99
  0
LINE
  8
0
 10
2.31395
 20
291.99
 11
-2.31395
 21
291.99
  0
LINE
  8
0
 10
-2.31395
 20
291.99
 11
-2.9369
 21
291.911
  0
LINE
  8
0
 10
-2.9369
 20
291.911
 11
-3.54507
 21
291.755
  0
LINE
  8
0
 10
-3.54507
 20
291.755
 11
-4.12889
 21
291.524
  0
LINE
  8
0
 10
-4.12889
 20
291.524
 11
-4.67912
 21
291.222
  0
LINE
  8
0
 10
-4.67912
 20
291.222
 11
-5.18712
 21
290.853
  0
LINE
  8
0
 10
-5.18712
 20
290.853
 11
-5.64484
 21
290.423
  0
LINE
  8
0
 10
-5.64484
 20
290.423
 11
-6
 21
289.993
  0
LINE
  8
0
 10
-6
 20
289.993
 11
-6
 21
292.49
  0
LINE
  8
0
 10
-6
 20
292.49
 11
-9
 21
292.49
  0
LINE
  8
0
 10
-9
 20
292.49
 11
-9
 21
247.51
  0
LINE
  8
0
 10
-9
 20
247.51
 11
-6
 21
247.51
  0
LINE
  8
0
 10
-6
 20
247.51
 11
-6
 21
250.007
  0
LINE
  8
0
 10
-2.25116
 20
249.008
 11
-2.74951
 21
249.071
  0
LINE
  8
0
 10
-2.74951
 20
249.071
 11
-3.23605
 21
249.196
  0
LINE
  8
0
 10
-3.23605
 20
249.196
 11
-3.70311
 21
249.381
  0
LINE
  8
0
 10
-3.70311
 20
249.381
 11
-4.1433
 21
249.623
  0
LINE
  8
0
 10
-4.1433
 20
249.623
 11
-4.54968
 21
249.918
  0
LINE
  8
0
 10
-4.54968
 20
249.918
 11
-4.91586
 21
250.262
  0
LINE
  8
0
 10
-4.91586
 20
250.262
 11
-5.23605
 21
250.649
  0
LINE
  8
0
 10
-5.23605
 20
250.649
 11
-5.50522
 21
251.073
  0
LINE
  8
0
 10
-5.50522
 20
251.073
 11
-5.7191
 21
251.528
  0
LINE
  8
0
 10
-5.7191
 20
251.528
 11
-5.87433
 21
252.005
  0
LINE
  8
0
 10
-5.87433
 20
252.005
 11
-5.96844
 21
252.499
  0
LINE
  8
0
 10
-5.96844
 20
252.499
 11
-6
 21
253
  0
LINE
  8
0
 10
-6
 20
253
 11
-6
 21
287
  0
LINE
  8
0
 10
-6
 20
287
 11
-5.96844
 21
287.501
  0
LINE
  8
0
 10
-5.96844
 20
287.501
 11
-5.87433
 21
287.995
  0
LINE
  8
0
 10
-5.87433
 20
287.995
 11
-5.7191
 21
288.472
  0
LINE
  8
0
 10
-5.7191
 20
288.472
 11
-5.50522
 21
288.927
  0
LINE
  8
0
 10
-5.50522
 20
288.927
 11
-5.23605
 21
289.351
  0
LINE
  8
0
 10
-5.23605
 20
289.351
 11
-4.91586
 21
289.738
  0
LINE
  8
0
 10
-4.91586
 20
289.738
 11
-4.54968
 21
290.082
  0
LINE
  8
0
 10
-4.54968
 20
290.082
 11
-4.1433
 21
290.377
  0
LINE
  8
0
 10
-4.1433
 20
290.377
 11
-3.70311
 21
290.619
  0
LINE
  8
0
 10
-3.70311
 20
290.619
 11
-3.23605
 21
290.804
  0
LINE
  8
0
 10
-3.23605
 20
290.804
 11
-2.74951
 21
290.929
  0
LINE
  8
0
 10
-2.74951
 20
290.929
 11
-2.25116
 21
290.992
  0
LINE
  8
0
 10
-2.25116
 20
290.992
 11
2.25116
 21
290.992
  0
LINE
  8
0
 10
2.25116
 20
290.992
 11
2.74951
 21
290.929
  0
LINE
  8
0
 10
2.74951
 20
290.929
 11
3.23605
 21
290.804
  0
LINE
  8
0
 10
3.23605
 20
290.804
 11
3.70311
 21
290.619
  0
LINE
  8
0
 10
3.70311
 20
290.619
 11
4.1433
 21
290.377
  0
LINE
  8
0
 10
4.1433
 20
290.377
 11
4.54968
 21
290.082
  0
LINE
  8
0
 10
4.54968
 20
290.082
 11
4.91586
 21
289.738
  0
LINE
  8
0
 10
4.91586
 20
289.738
 11
5.23605
 21
289.351
  0
LINE
  8
0
 10
5.23605
 20
289.351
 11
5.50522
 21
288.927
  0
LINE
  8
0
 10
5.50522
 20
288.927
 11
5.7191
 21
288.472
  0
LINE
  8
0
 10
5.7191
 20
288.472
 11
5.87433
 21
287.995
  0
LINE
  8
0
 10
5.87433
 20
287.995
 11
5.96844
 21
287.501
  0
LINE
  8
0
 10
5.96844
 20
287.501
 11
6
 21
287
  0
LINE
  8
0
 10
6
 20
287
 11
6
 21
253
  0
LINE
  8
0
 10
6
 20
253
 11
5.96844
 21
252.499
  0
LINE
  8
0
 10
5.96844
 20
252.499
 11
5.87433
 21
252.005
  0
LINE
  8
0
 10
5.87433
 20
252.005
 11
5.7191
 21
251.528
  0
LINE
  8
0
 10
5.7191
 20
251.528
 11
5.50522
 21
251.073
  0
LINE
  8
0
 10
5.50522
 20
251.073
 11
5.23605
 21
250.649
  0
LINE
  8
0
 10
5.23605
 20
250.649
 11
4.91586
 21
250.262
  0
LINE
  8
0
 10
4.91586
 20
250.262
 11
4.54968
 21
249.918
  0
LINE
  8
0
 10
4.54968
 20
249.918
 11
4.1433
 21
249.623
  0
LINE
  8
0
 10
4.1433
 20
249.623
 11
3.70311
 21
249.381
  0
LINE
  8
0
 10
3.70311
 20
249.381
 11
3.23605
 21
249.196
  0
LINE
  8
0
 10
3.23605
 20
249.196
 11
2.74951
 21
249.071
  0
LINE
  8
0
 10
2.74951
 20
249.071
 11
2.25116
 21
249.008
  0
LINE
  8
0
 10
2.25116
 20
249.008
 11
-2.25116
 21
249.008
  0
LINE
  8
0
 10
-6
 20
196.007
 11
-5.64484
 21
195.577
  0
LINE
  8
0
 10
-5.64484
 20
195.577
 11
-5.18712
 21
195.147
  0
LINE
  8
0
 10
-5.18712
 20
195.147
 11
-4.67912
 21
194.778
  0
LINE
  8
0
 10
-4.67912
 20
194.778
 11
-4.12889
 21
194.476
  0
LINE
  8
0
 10
-4.12889
 20
194.476
 11
-3.54507
 21
194.245
  0
LINE
  8
0
 10
-3.54507
 20
194.245
 11
-2.9369
 21
194.089
  0
LINE
  8
0
 10
-2.9369
 20
194.089
 11
-2.31395
 21
194.01
  0
LINE
  8
0
 10
-2.31395
 20
194.01
 11
2.31395
 21
194.01
  0
LINE
  8
0
 10
2.31395
 20
194.01
 11
2.9369
 21
194.089
  0
LINE
  8
0
 10
2.9369
 20
194.089
 11
3.54507
 21
194.245
  0
LINE
  8
0
 10
3.54507
 20
194.245
 11
4.12889
 21
194.476
  0
LINE
  8
0
 10
4.12889
 20
194.476
 11
4.67912
 21
194.778
  0
LINE
  8
0
 10
4.67912
 20
194.778
 11
5.18712
 21
195.147
  0
LINE
  8
0
 10
5.18712
 20
195.147
 11
5.64484
 21
195.577
  0
LINE
  8
0
 10
5.64484
 20
195.577
 11
6.04507
 21
196.061
  0
LINE
  8
0
 10
6.04507
 20
196.061
 11
6.38153
 21
196.591
  0
LINE
  8
0
 10
6.38153
 20
196.591
 11
6.64888
 21
197.159
  0
LINE
  8
0
 10
6.64888
 20
197.159
 11
6.84291
 21
197.757
  0
LINE
  8
0
 10
6.84291
 20
197.757
 11
6.96057
 21
198.373
  0
LINE
  8
0
 10
6.96057
 20
198.373
 11
7
 21
199
  0
LINE
  8
0
 10
7
 20
199
 11
7
 21
233
  0
LINE
  8
0
 10
7
 20
233
 11
6.96057
 21
233.627
  0
LINE
  8
0
 10
6.96057
 20
233.627
 11
6.84291
 21
234.243
  0
LINE
  8
0
 10
6.84291
 20
234.243
 11
6.64888
 21
234.841
  0
LINE
  8
0
 10
6.64888
 20
234.841
 11
6.38153
 21
235.409
  0
LINE
  8
0
 10
6.38153
 20
235.409
 11
6.04507
 21
235.939
  0
LINE
  8
0
 10
6.04507
 20
235.939
 11
5.64484
 21
236.423
  0
LINE
  8
0
 10
5.64484
 20
236.423
 11
5.18712
 21
236.853
  0
LINE
  8
0
 10
5.18712
 20
236.853
 11
4.67912
 21
237.222
  0
LINE
  8
0
 10
4.67912
 20
237.222
 11
4.12889
 21
237.524
  0
LINE
  8
0
 10
4.12889
 20
237.524
 11
3.54507
 21
237.755
  0
LINE
  8
0
 10
3.54507
 20
237.755
 11
2.9369
 21
237.911
  0
LINE
  8
0
 10
2.9369
 20
237.911
 11
2.31395
 21
237.99
  0
LINE
  8
0
 10
2.31395
 20
237.99
 11
-2.31395
 21
237.99
  0
LINE
  8
0
 10
-2.31395
 20
237.99
 11
-2.9369
 21
237.911
  0
LINE
  8
0
 10
-2.9369
 20
237.911
 11
-3.54507
 21
237.755
  0
LINE
  8
0
 10
-3.54507
 20
237.755
 11
-4.12889
 21
237.524
  0
LINE
  8
0
 10
-4.12889
 20
237.524
 11
-4.67912
 21
237.222
  0
LINE
  8
0
 10
-4.67912
 20
237.222
 11
-5.18712
 21
236.853
  0
LINE
  8
0
 10
-5.18712
 20
236.853
 11
-5.64484
 21
236.423
  0
LINE
  8
0
 10
-5.64484
 20
236.423
 11
-6
 21
235.993
  0
LINE
  8
0
 10
-6
 20
235.993
 11
-6
 21
238.479
  0
LINE
  8
0
 10
-6
 20
238.479
 11
-9
 21
238.479
  0
LINE
  8
0
 10
-9
 20
238.479
 11
-9
 21
193.521
  0
LINE
  8
0
 10
-9
 20
193.521
 11
-6
 21
193.521
  0
LINE
  8
0
 10
-6
 20
193.521
 11
-6
 21
196.007
  0
LINE
  8
0
 10
-2.19545
 20
195.893
 11
-2.5833
 21
195.942
  0
LINE
  8
0
 10
-2.5833
 20
195.942
 11
-2.96194
 21
196.039
  0
LINE
  8
0
 10
-2.96194
 20
196.039
 11
-3.32541
 21
196.183
  0
LINE
  8
0
 10
-3.32541
 20
196.183
 11
-3.66798
 21
196.372
  0
LINE
  8
0
 10
-3.66798
 20
196.372
 11
-3.98424
 21
196.601
  0
LINE
  8
0
 10
-3.98424
 20
196.601
 11
-4.26921
 21
196.869
  0
LINE
  8
0
 10
-4.26921
 20
196.869
 11
-4.5184
 21
197.17
  0
LINE
  8
0
 10
-4.5184
 20
197.17
 11
-4.72786
 21
197.5
  0
LINE
  8
0
 10
-4.72786
 20
197.5
 11
-4.89432
 21
197.854
  0
LINE
  8
0
 10
-4.89432
 20
197.854
 11
-5.01512
 21
198.226
  0
LINE
  8
0
 10
-5.01512
 20
198.226
 11
-5.08836
 21
198.61
  0
LINE
  8
0
 10
-5.08836
 20
198.61
 11
-5.11292
 21
199
  0
LINE
  8
0
 10
-5.11292
 20
199
 11
-5.11292
 21
233
  0
LINE
  8
0
 10
-5.11292
 20
233
 11
-5.08836
 21
233.39
  0
LINE
  8
0
 10
-5.08836
 20
233.39
 11
-5.01512
 21
233.774
  0
LINE
  8
0
 10
-5.01512
 20
233.774
 11
-4.89432
 21
234.146
  0
LINE
  8
0
 10
-4.89432
 20
234.146
 11
-4.72786
 21
234.5
  0
LINE
  8
0
 10
-4.72786
 20
234.5
 11
-4.5184
 21
234.83
  0
LINE
  8
0
 10
-4.5184
 20
234.83
 11
-4.26921
 21
235.131
  0
LINE
  8
0
 10
-4.26921
 20
235.131
 11
-3.98424
 21
235.399
  0
LINE
  8
0
 10
-3.98424
 20
235.399
 11
-3.66798
 21
235.628
  0
LINE
  8
0
 10
-3.66798
 20
235.628
 11
-3.32541
 21
235.817
  0
LINE
  8
0
 10
-3.32541
 20
235.817
 11
-2.96194
 21
235.961
  0
LINE
  8
0
 10
-2.96194
 20
235.961
 11
-2.5833
 21
236.058
  0
LINE
  8
0
 10
-2.5833
 20
236.058
 11
-2.19545
 21
236.107
  0
LINE
  8
0
 10
-2.19545
 20
236.107
 11
2.19545
 21
236.107
  0
LINE
  8
0
 10
2.19545
 20
236.107
 11
2.5833
 21
236.058
  0
LINE
  8
0
 10
2.5833
 20
236.058
 11
2.96194
 21
235.961
  0
LINE
  8
0
 10
2.96194
 20
235.961
 11
3.32541
 21
235.817
  0
LINE
  8
0
 10
3.32541
 20
235.817
 11
3.66798
 21
235.628
  0
LINE
  8
0
 10
3.66798
 20
235.628
 11
3.98424
 21
235.399
  0
LINE
  8
0
 10
3.98424
 20
235.399
 11
4.26921
 21
235.131
  0
LINE
  8
0
 10
4.26921
 20
235.131
 11
4.5184
 21
234.83
  0
LINE
  8
0
 10
4.5184
 20
234.83
 11
4.72786
 21
234.5
  0
LINE
  8
0
 10
4.72786
 20
234.5
 11
4.89432
 21
234.146
  0
LINE
  8
0
 10
4.89432
 20
234.146
 11
5.01512
 21
233.774
  0
LINE
  8
0
 10
5.01512
 20
233.774
 11
5.08836
 21
233.39
  0
LINE
  8
0
 10
5.08836
 20
233.39
 11
5.11292
 21
233
  0
LINE
  8
0
 10
5.11292
 20
233
 11
5.11292
 21
199
  0
LINE
  8
0
 10
5.11292
 20
199
 11
5.08836
 21
198.61
  0
LINE
  8
0
 10
5.08836
 20
198.61
 11
5.01512
 21
198.226
  0
LINE
  8
0
 10
5.01512
 20
198.226
 11
4.89432
 21
197.854
  0
LINE
  8
0
 10
4.89432
 20
197.854
 11
4.72786
 21
197.5
  0
LINE
  8
0
 10
4.72786
 20
197.5
 11
4.5184
 21
197.17
  0
LINE
  8
0
 10
4.5184
 20
197.17
 11
4.26921
 21
196.869
  0
LINE
  8
0
 10
4.26921
 20
196.869
 11
3.98424
 21
196.601
  0
LINE
  8
0
 10
3.98424
 20
196.601
 11
3.66798
 21
196.372
  0
LINE
  8
0
 10
3.66798
 20
196.372
 11
3.32541
 21
196.183
  0
LINE
  8
0
 10
3.32541
 20
196.183
 11
2.96194
 21
196.039
  0
LINE
  8
0
 10
2.96194
 20
196.039
 11
2.5833
 21
195.942
  0
LINE
  8
0
 10
2.5833
 20
195.942
 11
2.19545
 21
195.893
  0
LINE
  8
0
 10
2.19545
 20
195.893
 11
-2.19545
 21
195.893
  0
LINE
  8
0
 10
2.9369
 20
140.089
 11
3.54507
 21
140.245
  0
LINE
  8
0
 10
3.54507
 20
140.245
 11
4.12889
 21
140.476
  0
LINE
  8
0
 10
4.12889
 20
140.476
 11
4.67912
 21
140.778
  0
LINE
  8
0
 10
4.67912
 20
140.778
 11
5.18712
 21
141.147
  0
LINE
  8
0
 10
5.18712
 20
141.147
 11
5.64484
 21
141.577
  0
LINE
  8
0
 10
5.64484
 20
141.577
 11
6.04507
 21
142.061
  0
LINE
  8
0
 10
6.04507
 20
142.061
 11
6.38153
 21
142.591
  0
LINE
  8
0
 10
6.38153
 20
142.591
 11
6.64888
 21
143.159
  0
LINE
  8
0
 10
6.64888
 20
143.159
 11
6.84291
 21
143.757
  0
LINE
  8
0
 10
6.84291
 20
143.757
 11
6.96057
 21
144.373
  0
LINE
  8
0
 10
6.96057
 20
144.373
 11
7
 21
145
  0
LINE
  8
0
 10
7
 20
145
 11
7
 21
179
  0
LINE
  8
0
 10
7
 20
179
 11
6.96057
 21
179.627
  0
LINE
  8
0
 10
6.96057
 20
179.627
 11
6.84291
 21
180.243
  0
LINE
  8
0
 10
6.84291
 20
180.243
 11
6.64888
 21
180.841
  0
LINE
  8
0
 10
6.64888
 20
180.841
 11
6.38153
 21
181.409
  0
LINE
  8
0
 10
6.38153
 20
181.409
 11
6.04507
 21
181.939
  0
LINE
  8
0
 10
6.04507
 20
181.939
 11
5.64484
 21
182.423
  0
LINE
  8
0
 10
5.64484
 20
182.423
 11
5.18712
 21
182.853
  0
LINE
  8
0
 10
5.18712
 20
182.853
 11
4.67912
 21
183.222
  0
LINE
  8
0
 10
4.67912
 20
183.222
 11
4.12889
 21
183.524
  0
LINE
  8
0
 10
4.12889
 20
183.524
 11
3.54507
 21
183.755
  0
LINE
  8
0
 10
3.54507
 20
183.755
 11
2.9369
 21
183.911
  0
LINE
  8
0
 10
2.9369
 20
183.911
 11
2.31395
 21
183.99
  0
LINE
  8
0
 10
2.31395
 20
183.99
 11
-2.31395
 21
183.99
  0
LINE
  8
0
 10
-2.31395
 20
183.99
 11
-2.9369
 21
183.911
  0
LINE
  8
0
 10
-2.9369
 20
183.911
 11
-3.54507
 21
183.755
  0
LINE
  8
0
 10
-3.54507
 20
183.755
 11
-4.12889
 21
183.524
  0
LINE
  8
0
 10
-4.12889
 20
183.524
 11
-4.67912
 21
183.222
  0
LINE
  8
0
 10
-4.67912
 20
183.222
 11
-5.18712
 21
182.853
  0
LINE
  8
0
 10
-5.18712
 20
182.853
 11
-5.64484
 21
182.423
  0
LINE
  8
0
 10
-5.64484
 20
182.423
 11
-6
 21
181.993
  0
LINE
  8
0
 10
-6
 20
181.993
 11
-6
 21
183.153
  0
LINE
  8
0
 10
-6
 20
183.153
 11
-9
 21
183.153
  0
LINE
  8
0
 10
-9
 20
183.153
 11
-9
 21
140.847
  0
LINE
  8
0
 10
-9
 20
140.847
 11
-6
 21
140.847
  0
LINE
  8
0
 10
-6
 20
140.847
 11
-6
 21
142.007
  0
LINE
  8
0
 10
-6
 20
142.007
 11
-5.64484
 21
141.577
  0
LINE
  8
0
 10
-5.64484
 20
141.577
 11
-5.18712
 21
141.147
  0
LINE
  8
0
 10
-5.18712
 20
141.147
 11
-4.67912
 21
140.778
  0
LINE
  8
0
 10
-4.67912
 20
140.778
 11
-4.12889
 21
140.476
  0
LINE
  8
0
 10
-4.12889
 20
140.476
 11
-3.54507
 21
140.245
  0
LINE
  8
0
 10
-3.54507
 20
140.245
 11
-2.9369
 21
140.089
  0
LINE
  8
0
 10
-2.9369
 20
140.089
 11
-2.31395
 21
140.01
  0
LINE
  8
0
 10
-2.31395
 20
140.01
 11
2.31395
 21
140.01
  0
LINE
  8
0
 10
2.31395
 20
140.01
 11
2.9369
 21
140.089
  0
LINE
  8
0
 10
-0.150696
 20
174.605
 11
-0.449707
 21
174.643
  0
LINE
  8
0
 10
-0.449707
 20
174.643
 11
-0.741638
 21
174.717
  0
LINE
  8
0
 10
-0.741638
 20
174.717
 11
-1.02187
 21
174.828
  0
LINE
  8
0
 10
-1.02187
 20
174.828
 11
-1.28598
 21
174.974
  0
LINE
  8
0
 10
-1.28598
 20
174.974
 11
-1.52982
 21
175.151
  0
LINE
  8
0
 10
-1.52982
 20
175.151
 11
-1.74951
 21
175.357
  0
LINE
  8
0
 10
-1.74951
 20
175.357
 11
-1.94164
 21
175.589
  0
LINE
  8
0
 10
-1.94164
 20
175.589
 11
-2.10313
 21
175.844
  0
LINE
  8
0
 10
-2.10313
 20
175.844
 11
-2.23146
 21
176.117
  0
LINE
  8
0
 10
-2.23146
 20
176.117
 11
-2.32458
 21
176.403
  0
LINE
  8
0
 10
-2.32458
 20
176.403
 11
-2.38107
 21
176.699
  0
LINE
  8
0
 10
-2.38107
 20
176.699
 11
-2.39999
 21
177
  0
LINE
  8
0
 10
-2.39999
 20
177
 11
-2.38107
 21
177.301
  0
LINE
  8
0
 10
-2.38107
 20
177.301
 11
-2.32458
 21
177.597
  0
LINE
  8
0
 10
-2.32458
 20
177.597
 11
-2.23146
 21
177.883
  0
LINE
  8
0
 10
-2.23146
 20
177.883
 11
-2.10313
 21
178.156
  0
LINE
  8
0
 10
-2.10313
 20
178.156
 11
-1.94164
 21
178.411
  0
LINE
  8
0
 10
-1.94164
 20
178.411
 11
-1.74951
 21
178.643
  0
LINE
  8
0
 10
-1.74951
 20
178.643
 11
-1.52982
 21
178.849
  0
LINE
  8
0
 10
-1.52982
 20
178.849
 11
-1.28598
 21
179.026
  0
LINE
  8
0
 10
-1.28598
 20
179.026
 11
-1.02187
 21
179.172
  0
LINE
  8
0
 10
-1.02187
 20
179.172
 11
-0.741638
 21
179.283
  0
LINE
  8
0
 10
-0.741638
 20
179.283
 11
-0.449707
 21
179.357
  0
LINE
  8
0
 10
-0.449707
 20
179.357
 11
-0.150696
 21
179.395
  0
LINE
  8
0
 10
-0.150696
 20
179.395
 11
0.150696
 21
179.395
  0
LINE
  8
0
 10
0.150696
 20
179.395
 11
0.449707
 21
179.357
  0
LINE
  8
0
 10
0.449707
 20
179.357
 11
0.741638
 21
179.283
  0
LINE
  8
0
 10
0.741638
 20
179.283
 11
1.02187
 21
179.172
  0
LINE
  8
0
 10
1.02187
 20
179.172
 11
1.28598
 21
179.026
  0
LINE
  8
0
 10
1.28598
 20
179.026
 11
1.52982
 21
178.849
  0
LINE
  8
0
 10
1.52982
 20
178.849
 11
1.74951
 21
178.643
  0
LINE
  8
0
 10
1.74951
 20
178.643
 11
1.94164
 21
178.411
  0
LINE
  8
0
 10
1.94164
 20
178.411
 11
2.10313
 21
178.156
  0
LINE
  8
0
 10
2.10313
 20
178.156
 11
2.23146
 21
177.883
  0
LINE
  8
0
 10
2.23146
 20
177.883
 11
2.32458
 21
177.597
  0
LINE
  8
0
 10
2.32458
 20
177.597
 11
2.38107
 21
177.301
  0
LINE
  8
0
 10
2.38107
 20
177.301
 11
2.39999
 21
177
  0
LINE
  8
0
 10
2.39999
 20
177
 11
2.38107
 21
176.699
  0
LINE
  8
0
 10
2.38107
 20
176.699
 11
2.32458
 21
176.403
  0
LINE
  8
0
 10
2.32458
 20
176.403
 11
2.23146
 21
176.117
  0
LINE
  8
0
 10
2.23146
 20
176.117
 11
2.10313
 21
175.844
  0
LINE
  8
0
 10
2.10313
 20
175.844
 11
1.94164
 21
175.589
  0
LINE
  8
0
 10
1.94164
 20
175.589
 11
1.74951
 21
175.357
  0
LINE
  8
0
 10
1.74951
 20
175.357
 11
1.52982
 21
175.151
  0
LINE
  8
0
 10
1.52982
 20
175.151
 11
1.28598
 21
174.974
  0
LINE
  8
0
 10
1.28598
 20
174.974
 11
1.02187
 21
174.828
  0
LINE
  8
0
 10
1.02187
 20
174.828
 11
0.741638
 21
174.717
  0
LINE
  8
0
 10
0.741638
 20
174.717
 11
0.449707
 21
174.643
  0
LINE
  8
0
 10
0.449707
 20
174.643
 11
0.150696
 21
174.605
  0
LINE
  8
0
 10
0.150696
 20
174.605
 11
-0.150696
 21
174.605
  0
LINE
  8
0
 10
-0.150696
 20
144.605
 11
-0.449707
 21
144.643
  0
LINE
  8
0
 10
-0.449707
 20
144.643
 11
-0.741638
 21
144.717
  0
LINE
  8
0
 10
-0.741638
 20
144.717
 11
-1.02187
 21
144.828
  0
LINE
  8
0
 10
-1.02187
 20
144.828
 11
-1.28598
 21
144.974
  0
LINE
  8
0
 10
-1.28598
 20
144.974
 11
-1.52982
 21
145.151
  0
LINE
  8
0
 10
-1.52982
 20
145.151
 11
-1.74951
 21
145.357
  0
LINE
  8
0
 10
-1.74951
 20
145.357
 11
-1.94164
 21
145.589
  0
LINE
  8
0
 10
-1.94164
 20
145.589
 11
-2.10313
 21
145.844
  0
LINE
  8
0
 10
-2.10313
 20
145.844
 11
-2.23146
 21
146.117
  0
LINE
  8
0
 10
-2.23146
 20
146.117
 11
-2.32458
 21
146.403
  0
LINE
  8
0
 10
-2.32458
 20
146.403
 11
-2.38107
 21
146.699
  0
LINE
  8
0
 10
-2.38107
 20
146.699
 11
-2.39999
 21
147
  0
LINE
  8
0
 10
-2.39999
 20
147
 11
-2.38107
 21
147.301
  0
LINE
  8
0
 10
-2.38107
 20
147.301
 11
-2.32458
 21
147.597
  0
LINE
  8
0
 10
-2.32458
 20
147.597
 11
-2.23146
 21
147.883
  0
LINE
  8
0
 10
-2.23146
 20
147.883
 11
-2.10313
 21
148.156
  0
LINE
  8
0
 10
-2.10313
 20
148.156
 11
-1.94164
 21
148.411
  0
LINE
  8
0
 10
-1.94164
 20
148.411
 11
-1.74951
 21
148.643
  0
LINE
  8
0
 10
-1.74951
 20
148.643
 11
-1.52982
 21
148.849
  0
LINE
  8
0
 10
-1.52982
 20
148.849
 11
-1.28598
 21
149.026
  0
LINE
  8
0
 10
-1.28598
 20
149.026
 11
-1.02187
 21
149.172
  0
LINE
  8
0
 10
-1.02187
 20
149.172
 11
-0.741638
 21
149.283
  0
LINE
  8
0
 10
-0.741638
 20
149.283
 11
-0.449707
 21
149.357
  0
LINE
  8
0
 10
-0.449707
 20
149.357
 11
-0.150696
 21
149.395
  0
LINE
  8
0
 10
-0.150696
 20
149.395
 11
0.150696
 21
149.395
  0
LINE
  8
0
 10
0.150696
 20
149.395
 11
0.449707
 21
149.357
  0
LINE
  8
0
 10
0.449707
 20
149.357
 11
0.741638
 21
149.283
  0
LINE
  8
0
 10
0.741638
 20
149.283
 11
1.02187
 21
149.172
  0
LINE
  8
0
 10
1.02187
 20
149.172
 11
1.28598
 21
149.026
  0
LINE
  8
0
 10
1.28598
 20
149.026
 11
1.52982
 21
148.849
  0
LINE
  8
0
 10
1.52982
 20
148.849
 11
1.74951
 21
148.643
  0
LINE
  8
0
 10
1.74951
 20
148.643
 11
1.94164
 21
148.411
  0
LINE
  8
0
 10
1.94164
 20
148.411
 11
2.10313
 21
148.156
  0
LINE
  8
0
 10
2.10313
 20
148.156
 11
2.23146
 21
147.883
  0
LINE
  8
0
 10
2.23146
 20
147.883
 11
2.32458
 21
147.597
  0
LINE
  8
0
 10
2.32458
 20
147.597
 11
2.38107
 21
147.301
  0
LINE
  8
0
 10
2.38107
 20
147.301
 11
2.39999
 21
147
  0
LINE
  8
0
 10
2.39999
 20
147
 11
2.38107
 21
146.699
  0
LINE
  8
0
 10
2.38107
 20
146.699
 11
2.32458
 21
146.403
  0
LINE
  8
0
 10
2.32458
 20
146.403
 11
2.23146
 21
146.117
  0
LINE
  8
0
 10
2.23146
 20
146.117
 11
2.10313
 21
145.844
  0
LINE
  8
0
 10
2.10313
 20
145.844
 11
1.94164
 21
145.589
  0
LINE
  8
0
 10
1.94164
 20
145.589
 11
1.74951
 21
145.357
  0
LINE
  8
0
 10
1.74951
 20
145.357
 11
1.52982
 21
145.151
  0
LINE
  8
0
 10
1.52982
 20
145.151
 11
1.28598
 21
144.974
  0
LINE
  8
0
 10
1.28598
 20
144.974
 11
1.02187
 21
144.828
  0
LINE
  8
0
 10
1.02187
 20
144.828
 11
0.741638
 21
144.717
  0
LINE
  8
0
 10
0.741638
 20
144.717
 11
0.449707
 21
144.643
  0
LINE
  8
0
 10
0.449707
 20
144.643
 11
0.150696
 21
144.605
  0
LINE
  8
0
 10
0.150696
 20
144.605
 11
-0.150696
 21
144.605
  0
ENDSEC
  0
SECTION
  2
OBJECTS
  0
DICTIONARY
  0
ENDSEC
  0
EOF
