  0
SECTION
  2
BLOCKS
  0
ENDSEC
  0
SECTION
  2
ENTITIES
  0
LINE
  8
0
 10
7.1869
 20
409.589
 11
7.79507
 21
409.745
  0
LINE
  8
0
 10
7.79507
 20
409.745
 11
8.37889
 21
409.976
  0
LINE
  8
0
 10
8.37889
 20
409.976
 11
8.92912
 21
410.278
  0
LINE
  8
0
 10
8.92912
 20
410.278
 11
9.43712
 21
410.647
  0
LINE
  8
0
 10
9.43712
 20
410.647
 11
9.89484
 21
411.077
  0
LINE
  8
0
 10
9.89484
 20
411.077
 11
10.2951
 21
411.561
  0
LINE
  8
0
 10
10.2951
 20
411.561
 11
10.6315
 21
412.091
  0
LINE
  8
0
 10
10.6315
 20
412.091
 11
10.8989
 21
412.659
  0
LINE
  8
0
 10
10.8989
 20
412.659
 11
11.0929
 21
413.257
  0
LINE
  8
0
 10
11.0929
 20
413.257
 11
11.2106
 21
413.873
  0
LINE
  8
0
 10
11.2106
 20
413.873
 11
11.25
 21
414.5
  0
LINE
  8
0
 10
11.25
 20
414.5
 11
11.25
 21
449.5
  0
LINE
  8
0
 10
11.25
 20
449.5
 11
11.2106
 21
450.127
  0
LINE
  8
0
 10
11.2106
 20
450.127
 11
11.0929
 21
450.743
  0
LINE
  8
0
 10
11.0929
 20
450.743
 11
10.8989
 21
451.341
  0
LINE
  8
0
 10
10.8989
 20
451.341
 11
10.6315
 21
451.909
  0
LINE
  8
0
 10
10.6315
 20
451.909
 11
10.2951
 21
452.439
  0
LINE
  8
0
 10
10.2951
 20
452.439
 11
9.89484
 21
452.923
  0
LINE
  8
0
 10
9.89484
 20
452.923
 11
9.43712
 21
453.353
  0
LINE
  8
0
 10
9.43712
 20
453.353
 11
8.92912
 21
453.722
  0
LINE
  8
0
 10
8.92912
 20
453.722
 11
8.37889
 21
454.024
  0
LINE
  8
0
 10
8.37889
 20
454.024
 11
7.79507
 21
454.255
  0
LINE
  8
0
 10
7.79507
 20
454.255
 11
7.1869
 21
454.411
  0
LINE
  8
0
 10
7.1869
 20
454.411
 11
6.56395
 21
454.49
  0
LINE
  8
0
 10
6.56395
 20
454.49
 11
-6.56395
 21
454.49
  0
LINE
  8
0
 10
-6.56395
 20
454.49
 11
-7.1869
 21
454.411
  0
LINE
  8
0
 10
-7.1869
 20
454.411
 11
-7.79507
 21
454.255
  0
LINE
  8
0
 10
-7.79507
 20
454.255
 11
-8.37889
 21
454.024
  0
LINE
  8
0
 10
-8.37889
 20
454.024
 11
-8.92912
 21
453.722
  0
LINE
  8
0
 10
-8.92912
 20
453.722
 11
-9.43712
 21
453.353
  0
LINE
  8
0
 10
-9.43712
 20
453.353
 11
-9.89484
 21
452.923
  0
LINE
  8
0
 10
-9.89484
 20
452.923
 11
-10.2951
 21
452.439
  0
LINE
  8
0
 10
-10.2951
 20
452.439
 11
-10.6315
 21
451.909
  0
LINE
  8
0
 10
-10.6315
 20
451.909
 11
-10.8989
 21
451.341
  0
LINE
  8
0
 10
-10.8989
 20
451.341
 11
-11.0929
 21
450.743
  0
LINE
  8
0
 10
-11.0929
 20
450.743
 11
-11.2106
 21
450.127
  0
LINE
  8
0
 10
-11.2106
 20
450.127
 11
-11.25
 21
449.5
  0
LINE
  8
0
 10
-11.25
 20
449.5
 11
-11.25
 21
414.5
  0
LINE
  8
0
 10
-11.25
 20
414.5
 11
-11.2106
 21
413.873
  0
LINE
  8
0
 10
-11.2106
 20
413.873
 11
-11.0929
 21
413.257
  0
LINE
  8
0
 10
-11.0929
 20
413.257
 11
-10.8989
 21
412.659
  0
LINE
  8
0
 10
-10.8989
 20
412.659
 11
-10.6315
 21
412.091
  0
LINE
  8
0
 10
-10.6315
 20
412.091
 11
-10.2951
 21
411.561
  0
LINE
  8
0
 10
-10.2951
 20
411.561
 11
-9.89484
 21
411.077
  0
LINE
  8
0
 10
-9.89484
 20
411.077
 11
-9.43712
 21
410.647
  0
LINE
  8
0
 10
-9.43712
 20
410.647
 11
-8.92912
 21
410.278
  0
LINE
  8
0
 10
-8.92912
 20
410.278
 11
-8.37889
 21
409.976
  0
LINE
  8
0
 10
-8.37889
 20
409.976
 11
-7.79507
 21
409.745
  0
LINE
  8
0
 10
-7.79507
 20
409.745
 11
-7.1869
 21
409.589
  0
LINE
  8
0
 10
-7.1869
 20
409.589
 11
-6.56395
 21
409.51
  0
LINE
  8
0
 10
-6.56395
 20
409.51
 11
6.56395
 21
409.51
  0
LINE
  8
0
 10
6.56395
 20
409.51
 11
7.1869
 21
409.589
  0
LINE
  8
0
 10
-1.06104
 20
410.009
 11
-0.570862
 21
410.278
  0
LINE
  8
0
 10
-0.570862
 20
410.278
 11
-0.0628662
 21
410.647
  0
LINE
  8
0
 10
-0.0628662
 20
410.647
 11
0.394836
 21
411.077
  0
LINE
  8
0
 10
0.394836
 20
411.077
 11
0.795074
 21
411.561
  0
LINE
  8
0
 10
0.795074
 20
411.561
 11
1.13153
 21
412.091
  0
LINE
  8
0
 10
1.13153
 20
412.091
 11
1.39888
 21
412.659
  0
LINE
  8
0
 10
1.39888
 20
412.659
 11
1.59291
 21
413.257
  0
LINE
  8
0
 10
1.59291
 20
413.257
 11
1.71057
 21
413.873
  0
LINE
  8
0
 10
1.71057
 20
413.873
 11
1.75
 21
414.5
  0
LINE
  8
0
 10
1.75
 20
414.5
 11
1.75
 21
417.5
  0
LINE
  8
0
 10
1.75
 20
417.5
 11
1.71057
 21
418.127
  0
LINE
  8
0
 10
1.71057
 20
418.127
 11
1.59291
 21
418.743
  0
LINE
  8
0
 10
1.59291
 20
418.743
 11
1.39888
 21
419.341
  0
LINE
  8
0
 10
1.39888
 20
419.341
 11
1.13153
 21
419.909
  0
LINE
  8
0
 10
1.13153
 20
419.909
 11
0.795074
 21
420.439
  0
LINE
  8
0
 10
0.795074
 20
420.439
 11
0.394836
 21
420.923
  0
LINE
  8
0
 10
0.394836
 20
420.923
 11
-0.0628662
 21
421.353
  0
LINE
  8
0
 10
-0.0628662
 20
421.353
 11
-0.570862
 21
421.722
  0
LINE
  8
0
 10
-0.570862
 20
421.722
 11
-1.12109
 21
422.024
  0
LINE
  8
0
 10
-1.12109
 20
422.024
 11
-1.70491
 21
422.255
  0
LINE
  8
0
 10
-1.70491
 20
422.255
 11
-2.31308
 21
422.411
  0
LINE
  8
0
 10
-2.31308
 20
422.411
 11
-2.93604
 21
422.49
  0
LINE
  8
0
 10
-2.93604
 20
422.49
 11
-6.56395
 21
422.49
  0
LINE
  8
0
 10
-6.56395
 20
422.49
 11
-7.1869
 21
422.411
  0
LINE
  8
0
 10
-7.1869
 20
422.411
 11
-7.79507
 21
422.255
  0
LINE
  8
0
 10
-7.79507
 20
422.255
 11
-8.37889
 21
422.024
  0
LINE
  8
0
 10
-8.37889
 20
422.024
 11
-8.92912
 21
421.722
  0
LINE
  8
0
 10
-8.92912
 20
421.722
 11
-9.43712
 21
421.353
  0
LINE
  8
0
 10
-9.43712
 20
421.353
 11
-9.89484
 21
420.923
  0
LINE
  8
0
 10
-9.89484
 20
420.923
 11
-10.2951
 21
420.439
  0
LINE
  8
0
 10
-10.2951
 20
420.439
 11
-10.6315
 21
419.909
  0
LINE
  8
0
 10
-10.6315
 20
419.909
 11
-10.75
 21
419.657
  0
LINE
  8
0
 10
-10.75
 20
419.657
 11
-10.75
 21
449.5
  0
LINE
  8
0
 10
-10.75
 20
449.5
 11
-10.7145
 21
450.064
  0
LINE
  8
0
 10
-10.7145
 20
450.064
 11
-10.6086
 21
450.619
  0
LINE
  8
0
 10
-10.6086
 20
450.619
 11
-10.434
 21
451.157
  0
LINE
  8
0
 10
-10.434
 20
451.157
 11
-10.1934
 21
451.668
  0
LINE
  8
0
 10
-10.1934
 20
451.668
 11
-9.89056
 21
452.145
  0
LINE
  8
0
 10
-9.89056
 20
452.145
 11
-9.53035
 21
452.58
  0
LINE
  8
0
 10
-9.53035
 20
452.58
 11
-9.11839
 21
452.967
  0
LINE
  8
0
 10
-9.11839
 20
452.967
 11
-8.66121
 21
453.299
  0
LINE
  8
0
 10
-8.66121
 20
453.299
 11
-8.166
 21
453.572
  0
LINE
  8
0
 10
-8.166
 20
453.572
 11
-7.64056
 21
453.78
  0
LINE
  8
0
 10
-7.64056
 20
453.78
 11
-7.0932
 21
453.92
  0
LINE
  8
0
 10
-7.0932
 20
453.92
 11
-6.53255
 21
453.991
  0
LINE
  8
0
 10
-6.53255
 20
453.991
 11
6.53255
 21
453.991
  0
LINE
  8
0
 10
6.53255
 20
453.991
 11
7.0932
 21
453.92
  0
LINE
  8
0
 10
7.0932
 20
453.92
 11
7.64056
 21
453.78
  0
LINE
  8
0
 10
7.64056
 20
453.78
 11
8.166
 21
453.572
  0
LINE
  8
0
 10
8.166
 20
453.572
 11
8.66121
 21
453.299
  0
LINE
  8
0
 10
8.66121
 20
453.299
 11
9.11839
 21
452.967
  0
LINE
  8
0
 10
9.11839
 20
452.967
 11
9.53035
 21
452.58
  0
LINE
  8
0
 10
9.53035
 20
452.58
 11
9.89056
 21
452.145
  0
LINE
  8
0
 10
9.89056
 20
452.145
 11
10.1934
 21
451.668
  0
LINE
  8
0
 10
10.1934
 20
451.668
 11
10.434
 21
451.157
  0
LINE
  8
0
 10
10.434
 20
451.157
 11
10.6086
 21
450.619
  0
LINE
  8
0
 10
10.6086
 20
450.619
 11
10.7145
 21
450.064
  0
LINE
  8
0
 10
10.7145
 20
450.064
 11
10.75
 21
449.5
  0
LINE
  8
0
 10
10.75
 20
449.5
 11
10.75
 21
414.5
  0
LINE
  8
0
 10
10.75
 20
414.5
 11
10.7145
 21
413.936
  0
LINE
  8
0
 10
10.7145
 20
413.936
 11
10.6086
 21
413.381
  0
LINE
  8
0
 10
10.6086
 20
413.381
 11
10.434
 21
412.843
  0
LINE
  8
0
 10
10.434
 20
412.843
 11
10.1934
 21
412.332
  0
LINE
  8
0
 10
10.1934
 20
412.332
 11
9.89056
 21
411.855
  0
LINE
  8
0
 10
9.89056
 20
411.855
 11
9.53035
 21
411.42
  0
LINE
  8
0
 10
9.53035
 20
411.42
 11
9.11839
 21
411.033
  0
LINE
  8
0
 10
9.11839
 20
411.033
 11
8.66121
 21
410.701
  0
LINE
  8
0
 10
8.66121
 20
410.701
 11
8.166
 21
410.428
  0
LINE
  8
0
 10
8.166
 20
410.428
 11
7.64056
 21
410.22
  0
LINE
  8
0
 10
7.64056
 20
410.22
 11
7.0932
 21
410.08
  0
LINE
  8
0
 10
7.0932
 20
410.08
 11
6.53255
 21
410.009
  0
LINE
  8
0
 10
6.53255
 20
410.009
 11
-1.06104
 21
410.009
  0
LINE
  8
0
 10
4.21844
 20
444.544
 11
4.52254
 21
444.622
  0
LINE
  8
0
 10
4.52254
 20
444.622
 11
4.81444
 21
444.738
  0
LINE
  8
0
 10
4.81444
 20
444.738
 11
5.08955
 21
444.889
  0
LINE
  8
0
 10
5.08955
 20
444.889
 11
5.34355
 21
445.074
  0
LINE
  8
0
 10
5.34355
 20
445.074
 11
5.57242
 21
445.289
  0
LINE
  8
0
 10
5.57242
 20
445.289
 11
5.77254
 21
445.531
  0
LINE
  8
0
 10
5.77254
 20
445.531
 11
5.94077
 21
445.796
  0
LINE
  8
0
 10
5.94077
 20
445.796
 11
6.07443
 21
446.08
  0
LINE
  8
0
 10
6.07443
 20
446.08
 11
6.17145
 21
446.378
  0
LINE
  8
0
 10
6.17145
 20
446.378
 11
6.23029
 21
446.687
  0
LINE
  8
0
 10
6.23029
 20
446.687
 11
6.25
 21
447
  0
LINE
  8
0
 10
6.25
 20
447
 11
6.23029
 21
447.313
  0
LINE
  8
0
 10
6.23029
 20
447.313
 11
6.17145
 21
447.622
  0
LINE
  8
0
 10
6.17145
 20
447.622
 11
6.07443
 21
447.92
  0
LINE
  8
0
 10
6.07443
 20
447.92
 11
5.94077
 21
448.204
  0
LINE
  8
0
 10
5.94077
 20
448.204
 11
5.77254
 21
448.469
  0
LINE
  8
0
 10
5.77254
 20
448.469
 11
5.57242
 21
448.711
  0
LINE
  8
0
 10
5.57242
 20
448.711
 11
5.34355
 21
448.926
  0
LINE
  8
0
 10
5.34355
 20
448.926
 11
5.08955
 21
449.111
  0
LINE
  8
0
 10
5.08955
 20
449.111
 11
4.81444
 21
449.262
  0
LINE
  8
0
 10
4.81444
 20
449.262
 11
4.52254
 21
449.378
  0
LINE
  8
0
 10
4.52254
 20
449.378
 11
4.21844
 21
449.456
  0
LINE
  8
0
 10
4.21844
 20
449.456
 11
3.90697
 21
449.495
  0
LINE
  8
0
 10
3.90697
 20
449.495
 11
3.59302
 21
449.495
  0
LINE
  8
0
 10
3.59302
 20
449.495
 11
3.28154
 21
449.456
  0
LINE
  8
0
 10
3.28154
 20
449.456
 11
2.97745
 21
449.378
  0
LINE
  8
0
 10
2.97745
 20
449.378
 11
2.68555
 21
449.262
  0
LINE
  8
0
 10
2.68555
 20
449.262
 11
2.41043
 21
449.111
  0
LINE
  8
0
 10
2.41043
 20
449.111
 11
2.15643
 21
448.926
  0
LINE
  8
0
 10
2.15643
 20
448.926
 11
1.92757
 21
448.711
  0
LINE
  8
0
 10
1.92757
 20
448.711
 11
1.72745
 21
448.469
  0
LINE
  8
0
 10
1.72745
 20
448.469
 11
1.55922
 21
448.204
  0
LINE
  8
0
 10
1.55922
 20
448.204
 11
1.42555
 21
447.92
  0
LINE
  8
0
 10
1.42555
 20
447.92
 11
1.32854
 21
447.622
  0
LINE
  8
0
 10
1.32854
 20
447.622
 11
1.2697
 21
447.313
  0
LINE
  8
0
 10
1.2697
 20
447.313
 11
1.25
 21
447
  0
LINE
  8
0
 10
1.25
 20
447
 11
1.2697
 21
446.687
  0
LINE
  8
0
 10
1.2697
 20
446.687
 11
1.32854
 21
446.378
  0
LINE
  8
0
 10
1.32854
 20
446.378
 11
1.42555
 21
446.08
  0
LINE
  8
0
 10
1.42555
 20
446.08
 11
1.55922
 21
445.796
  0
LINE
  8
0
 10
1.55922
 20
445.796
 11
1.72745
 21
445.531
  0
LINE
  8
0
 10
1.72745
 20
445.531
 11
1.92757
 21
445.289
  0
LINE
  8
0
 10
1.92757
 20
445.289
 11
2.15643
 21
445.074
  0
LINE
  8
0
 10
2.15643
 20
445.074
 11
2.41043
 21
444.889
  0
LINE
  8
0
 10
2.41043
 20
444.889
 11
2.68555
 21
444.738
  0
LINE
  8
0
 10
2.68555
 20
444.738
 11
2.97745
 21
444.622
  0
LINE
  8
0
 10
2.97745
 20
444.622
 11
3.28154
 21
444.544
  0
LINE
  8
0
 10
3.28154
 20
444.544
 11
3.59302
 21
444.505
  0
LINE
  8
0
 10
3.59302
 20
444.505
 11
3.90697
 21
444.505
  0
LINE
  8
0
 10
3.90697
 20
444.505
 11
4.21844
 21
444.544
  0
LINE
  8
0
 10
3.65581
 20
445.503
 11
3.46892
 21
445.527
  0
LINE
  8
0
 10
3.46892
 20
445.527
 11
3.28647
 21
445.573
  0
LINE
  8
0
 10
3.28647
 20
445.573
 11
3.11133
 21
445.643
  0
LINE
  8
0
 10
3.11133
 20
445.643
 11
2.94626
 21
445.734
  0
LINE
  8
0
 10
2.94626
 20
445.734
 11
2.79385
 21
445.844
  0
LINE
  8
0
 10
2.79385
 20
445.844
 11
2.65654
 21
445.973
  0
LINE
  8
0
 10
2.65654
 20
445.973
 11
2.53647
 21
446.118
  0
LINE
  8
0
 10
2.53647
 20
446.118
 11
2.43553
 21
446.277
  0
LINE
  8
0
 10
2.43553
 20
446.277
 11
2.35533
 21
446.448
  0
LINE
  8
0
 10
2.35533
 20
446.448
 11
2.29712
 21
446.627
  0
LINE
  8
0
 10
2.29712
 20
446.627
 11
2.26183
 21
446.812
  0
LINE
  8
0
 10
2.26183
 20
446.812
 11
2.25
 21
447
  0
LINE
  8
0
 10
2.25
 20
447
 11
2.26183
 21
447.188
  0
LINE
  8
0
 10
2.26183
 20
447.188
 11
2.29712
 21
447.373
  0
LINE
  8
0
 10
2.29712
 20
447.373
 11
2.35533
 21
447.552
  0
LINE
  8
0
 10
2.35533
 20
447.552
 11
2.43553
 21
447.723
  0
LINE
  8
0
 10
2.43553
 20
447.723
 11
2.53647
 21
447.882
  0
LINE
  8
0
 10
2.53647
 20
447.882
 11
2.65654
 21
448.027
  0
LINE
  8
0
 10
2.65654
 20
448.027
 11
2.79385
 21
448.156
  0
LINE
  8
0
 10
2.79385
 20
448.156
 11
2.94626
 21
448.266
  0
LINE
  8
0
 10
2.94626
 20
448.266
 11
3.11133
 21
448.357
  0
LINE
  8
0
 10
3.11133
 20
448.357
 11
3.28647
 21
448.427
  0
LINE
  8
0
 10
3.28647
 20
448.427
 11
3.46892
 21
448.473
  0
LINE
  8
0
 10
3.46892
 20
448.473
 11
3.65581
 21
448.497
  0
LINE
  8
0
 10
3.65581
 20
448.497
 11
3.84418
 21
448.497
  0
LINE
  8
0
 10
3.84418
 20
448.497
 11
4.03107
 21
448.473
  0
LINE
  8
0
 10
4.03107
 20
448.473
 11
4.21352
 21
448.427
  0
LINE
  8
0
 10
4.21352
 20
448.427
 11
4.38866
 21
448.357
  0
LINE
  8
0
 10
4.38866
 20
448.357
 11
4.55373
 21
448.266
  0
LINE
  8
0
 10
4.55373
 20
448.266
 11
4.70613
 21
448.156
  0
LINE
  8
0
 10
4.70613
 20
448.156
 11
4.84344
 21
448.027
  0
LINE
  8
0
 10
4.84344
 20
448.027
 11
4.96352
 21
447.882
  0
LINE
  8
0
 10
4.96352
 20
447.882
 11
5.06445
 21
447.723
  0
LINE
  8
0
 10
5.06445
 20
447.723
 11
5.14465
 21
447.552
  0
LINE
  8
0
 10
5.14465
 20
447.552
 11
5.20287
 21
447.373
  0
LINE
  8
0
 10
5.20287
 20
447.373
 11
5.23816
 21
447.188
  0
LINE
  8
0
 10
5.23816
 20
447.188
 11
5.25
 21
447
  0
LINE
  8
0
 10
5.25
 20
447
 11
5.23816
 21
446.812
  0
LINE
  8
0
 10
5.23816
 20
446.812
 11
5.20287
 21
446.627
  0
LINE
  8
0
 10
5.20287
 20
446.627
 11
5.14465
 21
446.448
  0
LINE
  8
0
 10
5.14465
 20
446.448
 11
5.06445
 21
446.277
  0
LINE
  8
0
 10
5.06445
 20
446.277
 11
4.96352
 21
446.118
  0
LINE
  8
0
 10
4.96352
 20
446.118
 11
4.84344
 21
445.973
  0
LINE
  8
0
 10
4.84344
 20
445.973
 11
4.70613
 21
445.844
  0
LINE
  8
0
 10
4.70613
 20
445.844
 11
4.55373
 21
445.734
  0
LINE
  8
0
 10
4.55373
 20
445.734
 11
4.38866
 21
445.643
  0
LINE
  8
0
 10
4.38866
 20
445.643
 11
4.21352
 21
445.573
  0
LINE
  8
0
 10
4.21352
 20
445.573
 11
4.03107
 21
445.527
  0
LINE
  8
0
 10
4.03107
 20
445.527
 11
3.84418
 21
445.503
  0
LINE
  8
0
 10
3.84418
 20
445.503
 11
3.65581
 21
445.503
  0
LINE
  8
0
 10
-3.84418
 20
415.503
 11
-4.03107
 21
415.527
  0
LINE
  8
0
 10
-4.03107
 20
415.527
 11
-4.21352
 21
415.573
  0
LINE
  8
0
 10
-4.21352
 20
415.573
 11
-4.38866
 21
415.643
  0
LINE
  8
0
 10
-4.38866
 20
415.643
 11
-4.55373
 21
415.734
  0
LINE
  8
0
 10
-4.55373
 20
415.734
 11
-4.70613
 21
415.844
  0
LINE
  8
0
 10
-4.70613
 20
415.844
 11
-4.84344
 21
415.973
  0
LINE
  8
0
 10
-4.84344
 20
415.973
 11
-4.96352
 21
416.118
  0
LINE
  8
0
 10
-4.96352
 20
416.118
 11
-5.06445
 21
416.277
  0
LINE
  8
0
 10
-5.06445
 20
416.277
 11
-5.14465
 21
416.448
  0
LINE
  8
0
 10
-5.14465
 20
416.448
 11
-5.20287
 21
416.627
  0
LINE
  8
0
 10
-5.20287
 20
416.627
 11
-5.23816
 21
416.812
  0
LINE
  8
0
 10
-5.23816
 20
416.812
 11
-5.25
 21
417
  0
LINE
  8
0
 10
-5.25
 20
417
 11
-5.23816
 21
417.188
  0
LINE
  8
0
 10
-5.23816
 20
417.188
 11
-5.20287
 21
417.373
  0
LINE
  8
0
 10
-5.20287
 20
417.373
 11
-5.14465
 21
417.552
  0
LINE
  8
0
 10
-5.14465
 20
417.552
 11
-5.06445
 21
417.723
  0
LINE
  8
0
 10
-5.06445
 20
417.723
 11
-4.96352
 21
417.882
  0
LINE
  8
0
 10
-4.96352
 20
417.882
 11
-4.84344
 21
418.027
  0
LINE
  8
0
 10
-4.84344
 20
418.027
 11
-4.70613
 21
418.156
  0
LINE
  8
0
 10
-4.70613
 20
418.156
 11
-4.55373
 21
418.266
  0
LINE
  8
0
 10
-4.55373
 20
418.266
 11
-4.38866
 21
418.357
  0
LINE
  8
0
 10
-4.38866
 20
418.357
 11
-4.21352
 21
418.427
  0
LINE
  8
0
 10
-4.21352
 20
418.427
 11
-4.03107
 21
418.473
  0
LINE
  8
0
 10
-4.03107
 20
418.473
 11
-3.84418
 21
418.497
  0
LINE
  8
0
 10
-3.84418
 20
418.497
 11
-3.65581
 21
418.497
  0
LINE
  8
0
 10
-3.65581
 20
418.497
 11
-3.46892
 21
418.473
  0
LINE
  8
0
 10
-3.46892
 20
418.473
 11
-3.28647
 21
418.427
  0
LINE
  8
0
 10
-3.28647
 20
418.427
 11
-3.11133
 21
418.357
  0
LINE
  8
0
 10
-3.11133
 20
418.357
 11
-2.94626
 21
418.266
  0
LINE
  8
0
 10
-2.94626
 20
418.266
 11
-2.79385
 21
418.156
  0
LINE
  8
0
 10
-2.79385
 20
418.156
 11
-2.65654
 21
418.027
  0
LINE
  8
0
 10
-2.65654
 20
418.027
 11
-2.53647
 21
417.882
  0
LINE
  8
0
 10
-2.53647
 20
417.882
 11
-2.43553
 21
417.723
  0
LINE
  8
0
 10
-2.43553
 20
417.723
 11
-2.35533
 21
417.552
  0
LINE
  8
0
 10
-2.35533
 20
417.552
 11
-2.29712
 21
417.373
  0
LINE
  8
0
 10
-2.29712
 20
417.373
 11
-2.26183
 21
417.188
  0
LINE
  8
0
 10
-2.26183
 20
417.188
 11
-2.25
 21
417
  0
LINE
  8
0
 10
-2.25
 20
417
 11
-2.26183
 21
416.812
  0
LINE
  8
0
 10
-2.26183
 20
416.812
 11
-2.29712
 21
416.627
  0
LINE
  8
0
 10
-2.29712
 20
416.627
 11
-2.35533
 21
416.448
  0
LINE
  8
0
 10
-2.35533
 20
416.448
 11
-2.43553
 21
416.277
  0
LINE
  8
0
 10
-2.43553
 20
416.277
 11
-2.53647
 21
416.118
  0
LINE
  8
0
 10
-2.53647
 20
416.118
 11
-2.65654
 21
415.973
  0
LINE
  8
0
 10
-2.65654
 20
415.973
 11
-2.79385
 21
415.844
  0
LINE
  8
0
 10
-2.79385
 20
415.844
 11
-2.94626
 21
415.734
  0
LINE
  8
0
 10
-2.94626
 20
415.734
 11
-3.11133
 21
415.643
  0
LINE
  8
0
 10
-3.11133
 20
415.643
 11
-3.28647
 21
415.573
  0
LINE
  8
0
 10
-3.28647
 20
415.573
 11
-3.46892
 21
415.527
  0
LINE
  8
0
 10
-3.46892
 20
415.527
 11
-3.65581
 21
415.503
  0
LINE
  8
0
 10
-3.65581
 20
415.503
 11
-3.84418
 21
415.503
  0
LINE
  8
0
 10
7.1869
 20
355.589
 11
7.79507
 21
355.745
  0
LINE
  8
0
 10
7.79507
 20
355.745
 11
8.37889
 21
355.976
  0
LINE
  8
0
 10
8.37889
 20
355.976
 11
8.92912
 21
356.278
  0
LINE
  8
0
 10
8.92912
 20
356.278
 11
9.43712
 21
356.647
  0
LINE
  8
0
 10
9.43712
 20
356.647
 11
9.89484
 21
357.077
  0
LINE
  8
0
 10
9.89484
 20
357.077
 11
10.2951
 21
357.561
  0
LINE
  8
0
 10
10.2951
 20
357.561
 11
10.6315
 21
358.091
  0
LINE
  8
0
 10
10.6315
 20
358.091
 11
10.8989
 21
358.659
  0
LINE
  8
0
 10
10.8989
 20
358.659
 11
11.0929
 21
359.257
  0
LINE
  8
0
 10
11.0929
 20
359.257
 11
11.2106
 21
359.873
  0
LINE
  8
0
 10
11.2106
 20
359.873
 11
11.25
 21
360.5
  0
LINE
  8
0
 10
11.25
 20
360.5
 11
11.25
 21
395.5
  0
LINE
  8
0
 10
11.25
 20
395.5
 11
11.2106
 21
396.127
  0
LINE
  8
0
 10
11.2106
 20
396.127
 11
11.0929
 21
396.743
  0
LINE
  8
0
 10
11.0929
 20
396.743
 11
10.8989
 21
397.341
  0
LINE
  8
0
 10
10.8989
 20
397.341
 11
10.6315
 21
397.909
  0
LINE
  8
0
 10
10.6315
 20
397.909
 11
10.2951
 21
398.439
  0
LINE
  8
0
 10
10.2951
 20
398.439
 11
9.89484
 21
398.923
  0
LINE
  8
0
 10
9.89484
 20
398.923
 11
9.43712
 21
399.353
  0
LINE
  8
0
 10
9.43712
 20
399.353
 11
8.92912
 21
399.722
  0
LINE
  8
0
 10
8.92912
 20
399.722
 11
8.37889
 21
400.024
  0
LINE
  8
0
 10
8.37889
 20
400.024
 11
7.79507
 21
400.255
  0
LINE
  8
0
 10
7.79507
 20
400.255
 11
7.1869
 21
400.411
  0
LINE
  8
0
 10
7.1869
 20
400.411
 11
6.56395
 21
400.49
  0
LINE
  8
0
 10
6.56395
 20
400.49
 11
-6.56395
 21
400.49
  0
LINE
  8
0
 10
-6.56395
 20
400.49
 11
-7.1869
 21
400.411
  0
LINE
  8
0
 10
-7.1869
 20
400.411
 11
-7.79507
 21
400.255
  0
LINE
  8
0
 10
-7.79507
 20
400.255
 11
-8.37889
 21
400.024
  0
LINE
  8
0
 10
-8.37889
 20
400.024
 11
-8.92912
 21
399.722
  0
LINE
  8
0
 10
-8.92912
 20
399.722
 11
-9.43712
 21
399.353
  0
LINE
  8
0
 10
-9.43712
 20
399.353
 11
-9.89484
 21
398.923
  0
LINE
  8
0
 10
-9.89484
 20
398.923
 11
-10.2951
 21
398.439
  0
LINE
  8
0
 10
-10.2951
 20
398.439
 11
-10.6315
 21
397.909
  0
LINE
  8
0
 10
-10.6315
 20
397.909
 11
-10.8989
 21
397.341
  0
LINE
  8
0
 10
-10.8989
 20
397.341
 11
-11.0929
 21
396.743
  0
LINE
  8
0
 10
-11.0929
 20
396.743
 11
-11.2106
 21
396.127
  0
LINE
  8
0
 10
-11.2106
 20
396.127
 11
-11.25
 21
395.5
  0
LINE
  8
0
 10
-11.25
 20
395.5
 11
-11.25
 21
360.5
  0
LINE
  8
0
 10
-11.25
 20
360.5
 11
-11.2106
 21
359.873
  0
LINE
  8
0
 10
-11.2106
 20
359.873
 11
-11.0929
 21
359.257
  0
LINE
  8
0
 10
-11.0929
 20
359.257
 11
-10.8989
 21
358.659
  0
LINE
  8
0
 10
-10.8989
 20
358.659
 11
-10.6315
 21
358.091
  0
LINE
  8
0
 10
-10.6315
 20
358.091
 11
-10.2951
 21
357.561
  0
LINE
  8
0
 10
-10.2951
 20
357.561
 11
-9.89484
 21
357.077
  0
LINE
  8
0
 10
-9.89484
 20
357.077
 11
-9.43712
 21
356.647
  0
LINE
  8
0
 10
-9.43712
 20
356.647
 11
-8.92912
 21
356.278
  0
LINE
  8
0
 10
-8.92912
 20
356.278
 11
-8.37889
 21
355.976
  0
LINE
  8
0
 10
-8.37889
 20
355.976
 11
-7.79507
 21
355.745
  0
LINE
  8
0
 10
-7.79507
 20
355.745
 11
-7.1869
 21
355.589
  0
LINE
  8
0
 10
-7.1869
 20
355.589
 11
-6.56395
 21
355.51
  0
LINE
  8
0
 10
-6.56395
 20
355.51
 11
6.56395
 21
355.51
  0
LINE
  8
0
 10
6.56395
 20
355.51
 11
7.1869
 21
355.589
  0
LINE
  8
0
 10
-1.06104
 20
356.009
 11
-0.570862
 21
356.278
  0
LINE
  8
0
 10
-0.570862
 20
356.278
 11
-0.0628662
 21
356.647
  0
LINE
  8
0
 10
-0.0628662
 20
356.647
 11
0.394836
 21
357.077
  0
LINE
  8
0
 10
0.394836
 20
357.077
 11
0.795074
 21
357.561
  0
LINE
  8
0
 10
0.795074
 20
357.561
 11
1.13153
 21
358.091
  0
LINE
  8
0
 10
1.13153
 20
358.091
 11
1.39888
 21
358.659
  0
LINE
  8
0
 10
1.39888
 20
358.659
 11
1.59291
 21
359.257
  0
LINE
  8
0
 10
1.59291
 20
359.257
 11
1.71057
 21
359.873
  0
LINE
  8
0
 10
1.71057
 20
359.873
 11
1.75
 21
360.5
  0
LINE
  8
0
 10
1.75
 20
360.5
 11
1.75
 21
363.5
  0
LINE
  8
0
 10
1.75
 20
363.5
 11
1.71057
 21
364.127
  0
LINE
  8
0
 10
1.71057
 20
364.127
 11
1.59291
 21
364.743
  0
LINE
  8
0
 10
1.59291
 20
364.743
 11
1.39888
 21
365.341
  0
LINE
  8
0
 10
1.39888
 20
365.341
 11
1.13153
 21
365.909
  0
LINE
  8
0
 10
1.13153
 20
365.909
 11
0.795074
 21
366.439
  0
LINE
  8
0
 10
0.795074
 20
366.439
 11
0.394836
 21
366.923
  0
LINE
  8
0
 10
0.394836
 20
366.923
 11
-0.0628662
 21
367.353
  0
LINE
  8
0
 10
-0.0628662
 20
367.353
 11
-0.570862
 21
367.722
  0
LINE
  8
0
 10
-0.570862
 20
367.722
 11
-1.12109
 21
368.024
  0
LINE
  8
0
 10
-1.12109
 20
368.024
 11
-1.70491
 21
368.255
  0
LINE
  8
0
 10
-1.70491
 20
368.255
 11
-2.31308
 21
368.411
  0
LINE
  8
0
 10
-2.31308
 20
368.411
 11
-2.93604
 21
368.49
  0
LINE
  8
0
 10
-2.93604
 20
368.49
 11
-6.56395
 21
368.49
  0
LINE
  8
0
 10
-6.56395
 20
368.49
 11
-7.1869
 21
368.411
  0
LINE
  8
0
 10
-7.1869
 20
368.411
 11
-7.79507
 21
368.255
  0
LINE
  8
0
 10
-7.79507
 20
368.255
 11
-8.37889
 21
368.024
  0
LINE
  8
0
 10
-8.37889
 20
368.024
 11
-8.92912
 21
367.722
  0
LINE
  8
0
 10
-8.92912
 20
367.722
 11
-9.43712
 21
367.353
  0
LINE
  8
0
 10
-9.43712
 20
367.353
 11
-9.89484
 21
366.923
  0
LINE
  8
0
 10
-9.89484
 20
366.923
 11
-10.2951
 21
366.439
  0
LINE
  8
0
 10
-10.2951
 20
366.439
 11
-10.6315
 21
365.909
  0
LINE
  8
0
 10
-10.6315
 20
365.909
 11
-10.75
 21
365.657
  0
LINE
  8
0
 10
-10.75
 20
365.657
 11
-10.75
 21
395.5
  0
LINE
  8
0
 10
-10.75
 20
395.5
 11
-10.7145
 21
396.064
  0
LINE
  8
0
 10
-10.7145
 20
396.064
 11
-10.6086
 21
396.619
  0
LINE
  8
0
 10
-10.6086
 20
396.619
 11
-10.434
 21
397.157
  0
LINE
  8
0
 10
-10.434
 20
397.157
 11
-10.1934
 21
397.668
  0
LINE
  8
0
 10
-10.1934
 20
397.668
 11
-9.89056
 21
398.145
  0
LINE
  8
0
 10
-9.89056
 20
398.145
 11
-9.53035
 21
398.58
  0
LINE
  8
0
 10
-9.53035
 20
398.58
 11
-9.11839
 21
398.967
  0
LINE
  8
0
 10
-9.11839
 20
398.967
 11
-8.66121
 21
399.299
  0
LINE
  8
0
 10
-8.66121
 20
399.299
 11
-8.166
 21
399.572
  0
LINE
  8
0
 10
-8.166
 20
399.572
 11
-7.64056
 21
399.78
  0
LINE
  8
0
 10
-7.64056
 20
399.78
 11
-7.0932
 21
399.92
  0
LINE
  8
0
 10
-7.0932
 20
399.92
 11
-6.53255
 21
399.991
  0
LINE
  8
0
 10
-6.53255
 20
399.991
 11
6.53255
 21
399.991
  0
LINE
  8
0
 10
6.53255
 20
399.991
 11
7.0932
 21
399.92
  0
LINE
  8
0
 10
7.0932
 20
399.92
 11
7.64056
 21
399.78
  0
LINE
  8
0
 10
7.64056
 20
399.78
 11
8.166
 21
399.572
  0
LINE
  8
0
 10
8.166
 20
399.572
 11
8.66121
 21
399.299
  0
LINE
  8
0
 10
8.66121
 20
399.299
 11
9.11839
 21
398.967
  0
LINE
  8
0
 10
9.11839
 20
398.967
 11
9.53035
 21
398.58
  0
LINE
  8
0
 10
9.53035
 20
398.58
 11
9.89056
 21
398.145
  0
LINE
  8
0
 10
9.89056
 20
398.145
 11
10.1934
 21
397.668
  0
LINE
  8
0
 10
10.1934
 20
397.668
 11
10.434
 21
397.157
  0
LINE
  8
0
 10
10.434
 20
397.157
 11
10.6086
 21
396.619
  0
LINE
  8
0
 10
10.6086
 20
396.619
 11
10.7145
 21
396.064
  0
LINE
  8
0
 10
10.7145
 20
396.064
 11
10.75
 21
395.5
  0
LINE
  8
0
 10
10.75
 20
395.5
 11
10.75
 21
360.5
  0
LINE
  8
0
 10
10.75
 20
360.5
 11
10.7145
 21
359.936
  0
LINE
  8
0
 10
10.7145
 20
359.936
 11
10.6086
 21
359.381
  0
LINE
  8
0
 10
10.6086
 20
359.381
 11
10.434
 21
358.843
  0
LINE
  8
0
 10
10.434
 20
358.843
 11
10.1934
 21
358.332
  0
LINE
  8
0
 10
10.1934
 20
358.332
 11
9.89056
 21
357.855
  0
LINE
  8
0
 10
9.89056
 20
357.855
 11
9.53035
 21
357.42
  0
LINE
  8
0
 10
9.53035
 20
357.42
 11
9.11839
 21
357.033
  0
LINE
  8
0
 10
9.11839
 20
357.033
 11
8.66121
 21
356.701
  0
LINE
  8
0
 10
8.66121
 20
356.701
 11
8.166
 21
356.428
  0
LINE
  8
0
 10
8.166
 20
356.428
 11
7.64056
 21
356.22
  0
LINE
  8
0
 10
7.64056
 20
356.22
 11
7.0932
 21
356.08
  0
LINE
  8
0
 10
7.0932
 20
356.08
 11
6.53255
 21
356.009
  0
LINE
  8
0
 10
6.53255
 20
356.009
 11
-1.06104
 21
356.009
  0
LINE
  8
0
 10
4.21844
 20
390.544
 11
4.52254
 21
390.622
  0
LINE
  8
0
 10
4.52254
 20
390.622
 11
4.81444
 21
390.738
  0
LINE
  8
0
 10
4.81444
 20
390.738
 11
5.08955
 21
390.889
  0
LINE
  8
0
 10
5.08955
 20
390.889
 11
5.34355
 21
391.074
  0
LINE
  8
0
 10
5.34355
 20
391.074
 11
5.57242
 21
391.289
  0
LINE
  8
0
 10
5.57242
 20
391.289
 11
5.77254
 21
391.531
  0
LINE
  8
0
 10
5.77254
 20
391.531
 11
5.94077
 21
391.796
  0
LINE
  8
0
 10
5.94077
 20
391.796
 11
6.07443
 21
392.08
  0
LINE
  8
0
 10
6.07443
 20
392.08
 11
6.17145
 21
392.378
  0
LINE
  8
0
 10
6.17145
 20
392.378
 11
6.23029
 21
392.687
  0
LINE
  8
0
 10
6.23029
 20
392.687
 11
6.25
 21
393
  0
LINE
  8
0
 10
6.25
 20
393
 11
6.23029
 21
393.313
  0
LINE
  8
0
 10
6.23029
 20
393.313
 11
6.17145
 21
393.622
  0
LINE
  8
0
 10
6.17145
 20
393.622
 11
6.07443
 21
393.92
  0
LINE
  8
0
 10
6.07443
 20
393.92
 11
5.94077
 21
394.204
  0
LINE
  8
0
 10
5.94077
 20
394.204
 11
5.77254
 21
394.469
  0
LINE
  8
0
 10
5.77254
 20
394.469
 11
5.57242
 21
394.711
  0
LINE
  8
0
 10
5.57242
 20
394.711
 11
5.34355
 21
394.926
  0
LINE
  8
0
 10
5.34355
 20
394.926
 11
5.08955
 21
395.111
  0
LINE
  8
0
 10
5.08955
 20
395.111
 11
4.81444
 21
395.262
  0
LINE
  8
0
 10
4.81444
 20
395.262
 11
4.52254
 21
395.378
  0
LINE
  8
0
 10
4.52254
 20
395.378
 11
4.21844
 21
395.456
  0
LINE
  8
0
 10
4.21844
 20
395.456
 11
3.90697
 21
395.495
  0
LINE
  8
0
 10
3.90697
 20
395.495
 11
3.59302
 21
395.495
  0
LINE
  8
0
 10
3.59302
 20
395.495
 11
3.28154
 21
395.456
  0
LINE
  8
0
 10
3.28154
 20
395.456
 11
2.97745
 21
395.378
  0
LINE
  8
0
 10
2.97745
 20
395.378
 11
2.68555
 21
395.262
  0
LINE
  8
0
 10
2.68555
 20
395.262
 11
2.41043
 21
395.111
  0
LINE
  8
0
 10
2.41043
 20
395.111
 11
2.15643
 21
394.926
  0
LINE
  8
0
 10
2.15643
 20
394.926
 11
1.92757
 21
394.711
  0
LINE
  8
0
 10
1.92757
 20
394.711
 11
1.72745
 21
394.469
  0
LINE
  8
0
 10
1.72745
 20
394.469
 11
1.55922
 21
394.204
  0
LINE
  8
0
 10
1.55922
 20
394.204
 11
1.42555
 21
393.92
  0
LINE
  8
0
 10
1.42555
 20
393.92
 11
1.32854
 21
393.622
  0
LINE
  8
0
 10
1.32854
 20
393.622
 11
1.2697
 21
393.313
  0
LINE
  8
0
 10
1.2697
 20
393.313
 11
1.25
 21
393
  0
LINE
  8
0
 10
1.25
 20
393
 11
1.2697
 21
392.687
  0
LINE
  8
0
 10
1.2697
 20
392.687
 11
1.32854
 21
392.378
  0
LINE
  8
0
 10
1.32854
 20
392.378
 11
1.42555
 21
392.08
  0
LINE
  8
0
 10
1.42555
 20
392.08
 11
1.55922
 21
391.796
  0
LINE
  8
0
 10
1.55922
 20
391.796
 11
1.72745
 21
391.531
  0
LINE
  8
0
 10
1.72745
 20
391.531
 11
1.92757
 21
391.289
  0
LINE
  8
0
 10
1.92757
 20
391.289
 11
2.15643
 21
391.074
  0
LINE
  8
0
 10
2.15643
 20
391.074
 11
2.41043
 21
390.889
  0
LINE
  8
0
 10
2.41043
 20
390.889
 11
2.68555
 21
390.738
  0
LINE
  8
0
 10
2.68555
 20
390.738
 11
2.97745
 21
390.622
  0
LINE
  8
0
 10
2.97745
 20
390.622
 11
3.28154
 21
390.544
  0
LINE
  8
0
 10
3.28154
 20
390.544
 11
3.59302
 21
390.505
  0
LINE
  8
0
 10
3.59302
 20
390.505
 11
3.90697
 21
390.505
  0
LINE
  8
0
 10
3.90697
 20
390.505
 11
4.21844
 21
390.544
  0
LINE
  8
0
 10
3.65581
 20
391.503
 11
3.46892
 21
391.527
  0
LINE
  8
0
 10
3.46892
 20
391.527
 11
3.28647
 21
391.573
  0
LINE
  8
0
 10
3.28647
 20
391.573
 11
3.11133
 21
391.643
  0
LINE
  8
0
 10
3.11133
 20
391.643
 11
2.94626
 21
391.734
  0
LINE
  8
0
 10
2.94626
 20
391.734
 11
2.79385
 21
391.844
  0
LINE
  8
0
 10
2.79385
 20
391.844
 11
2.65654
 21
391.973
  0
LINE
  8
0
 10
2.65654
 20
391.973
 11
2.53647
 21
392.118
  0
LINE
  8
0
 10
2.53647
 20
392.118
 11
2.43553
 21
392.277
  0
LINE
  8
0
 10
2.43553
 20
392.277
 11
2.35533
 21
392.448
  0
LINE
  8
0
 10
2.35533
 20
392.448
 11
2.29712
 21
392.627
  0
LINE
  8
0
 10
2.29712
 20
392.627
 11
2.26183
 21
392.812
  0
LINE
  8
0
 10
2.26183
 20
392.812
 11
2.25
 21
393
  0
LINE
  8
0
 10
2.25
 20
393
 11
2.26183
 21
393.188
  0
LINE
  8
0
 10
2.26183
 20
393.188
 11
2.29712
 21
393.373
  0
LINE
  8
0
 10
2.29712
 20
393.373
 11
2.35533
 21
393.552
  0
LINE
  8
0
 10
2.35533
 20
393.552
 11
2.43553
 21
393.723
  0
LINE
  8
0
 10
2.43553
 20
393.723
 11
2.53647
 21
393.882
  0
LINE
  8
0
 10
2.53647
 20
393.882
 11
2.65654
 21
394.027
  0
LINE
  8
0
 10
2.65654
 20
394.027
 11
2.79385
 21
394.156
  0
LINE
  8
0
 10
2.79385
 20
394.156
 11
2.94626
 21
394.266
  0
LINE
  8
0
 10
2.94626
 20
394.266
 11
3.11133
 21
394.357
  0
LINE
  8
0
 10
3.11133
 20
394.357
 11
3.28647
 21
394.427
  0
LINE
  8
0
 10
3.28647
 20
394.427
 11
3.46892
 21
394.473
  0
LINE
  8
0
 10
3.46892
 20
394.473
 11
3.65581
 21
394.497
  0
LINE
  8
0
 10
3.65581
 20
394.497
 11
3.84418
 21
394.497
  0
LINE
  8
0
 10
3.84418
 20
394.497
 11
4.03107
 21
394.473
  0
LINE
  8
0
 10
4.03107
 20
394.473
 11
4.21352
 21
394.427
  0
LINE
  8
0
 10
4.21352
 20
394.427
 11
4.38866
 21
394.357
  0
LINE
  8
0
 10
4.38866
 20
394.357
 11
4.55373
 21
394.266
  0
LINE
  8
0
 10
4.55373
 20
394.266
 11
4.70613
 21
394.156
  0
LINE
  8
0
 10
4.70613
 20
394.156
 11
4.84344
 21
394.027
  0
LINE
  8
0
 10
4.84344
 20
394.027
 11
4.96352
 21
393.882
  0
LINE
  8
0
 10
4.96352
 20
393.882
 11
5.06445
 21
393.723
  0
LINE
  8
0
 10
5.06445
 20
393.723
 11
5.14465
 21
393.552
  0
LINE
  8
0
 10
5.14465
 20
393.552
 11
5.20287
 21
393.373
  0
LINE
  8
0
 10
5.20287
 20
393.373
 11
5.23816
 21
393.188
  0
LINE
  8
0
 10
5.23816
 20
393.188
 11
5.25
 21
393
  0
LINE
  8
0
 10
5.25
 20
393
 11
5.23816
 21
392.812
  0
LINE
  8
0
 10
5.23816
 20
392.812
 11
5.20287
 21
392.627
  0
LINE
  8
0
 10
5.20287
 20
392.627
 11
5.14465
 21
392.448
  0
LINE
  8
0
 10
5.14465
 20
392.448
 11
5.06445
 21
392.277
  0
LINE
  8
0
 10
5.06445
 20
392.277
 11
4.96352
 21
392.118
  0
LINE
  8
0
 10
4.96352
 20
392.118
 11
4.84344
 21
391.973
  0
LINE
  8
0
 10
4.84344
 20
391.973
 11
4.70613
 21
391.844
  0
LINE
  8
0
 10
4.70613
 20
391.844
 11
4.55373
 21
391.734
  0
LINE
  8
0
 10
4.55373
 20
391.734
 11
4.38866
 21
391.643
  0
LINE
  8
0
 10
4.38866
 20
391.643
 11
4.21352
 21
391.573
  0
LINE
  8
0
 10
4.21352
 20
391.573
 11
4.03107
 21
391.527
  0
LINE
  8
0
 10
4.03107
 20
391.527
 11
3.84418
 21
391.503
  0
LINE
  8
0
 10
3.84418
 20
391.503
 11
3.65581
 21
391.503
  0
LINE
  8
0
 10
-3.84418
 20
361.503
 11
-4.03107
 21
361.527
  0
LINE
  8
0
 10
-4.03107
 20
361.527
 11
-4.21352
 21
361.573
  0
LINE
  8
0
 10
-4.21352
 20
361.573
 11
-4.38866
 21
361.643
  0
LINE
  8
0
 10
-4.38866
 20
361.643
 11
-4.55373
 21
361.734
  0
LINE
  8
0
 10
-4.55373
 20
361.734
 11
-4.70613
 21
361.844
  0
LINE
  8
0
 10
-4.70613
 20
361.844
 11
-4.84344
 21
361.973
  0
LINE
  8
0
 10
-4.84344
 20
361.973
 11
-4.96352
 21
362.118
  0
LINE
  8
0
 10
-4.96352
 20
362.118
 11
-5.06445
 21
362.277
  0
LINE
  8
0
 10
-5.06445
 20
362.277
 11
-5.14465
 21
362.448
  0
LINE
  8
0
 10
-5.14465
 20
362.448
 11
-5.20287
 21
362.627
  0
LINE
  8
0
 10
-5.20287
 20
362.627
 11
-5.23816
 21
362.812
  0
LINE
  8
0
 10
-5.23816
 20
362.812
 11
-5.25
 21
363
  0
LINE
  8
0
 10
-5.25
 20
363
 11
-5.23816
 21
363.188
  0
LINE
  8
0
 10
-5.23816
 20
363.188
 11
-5.20287
 21
363.373
  0
LINE
  8
0
 10
-5.20287
 20
363.373
 11
-5.14465
 21
363.552
  0
LINE
  8
0
 10
-5.14465
 20
363.552
 11
-5.06445
 21
363.723
  0
LINE
  8
0
 10
-5.06445
 20
363.723
 11
-4.96352
 21
363.882
  0
LINE
  8
0
 10
-4.96352
 20
363.882
 11
-4.84344
 21
364.027
  0
LINE
  8
0
 10
-4.84344
 20
364.027
 11
-4.70613
 21
364.156
  0
LINE
  8
0
 10
-4.70613
 20
364.156
 11
-4.55373
 21
364.266
  0
LINE
  8
0
 10
-4.55373
 20
364.266
 11
-4.38866
 21
364.357
  0
LINE
  8
0
 10
-4.38866
 20
364.357
 11
-4.21352
 21
364.427
  0
LINE
  8
0
 10
-4.21352
 20
364.427
 11
-4.03107
 21
364.473
  0
LINE
  8
0
 10
-4.03107
 20
364.473
 11
-3.84418
 21
364.497
  0
LINE
  8
0
 10
-3.84418
 20
364.497
 11
-3.65581
 21
364.497
  0
LINE
  8
0
 10
-3.65581
 20
364.497
 11
-3.46892
 21
364.473
  0
LINE
  8
0
 10
-3.46892
 20
364.473
 11
-3.28647
 21
364.427
  0
LINE
  8
0
 10
-3.28647
 20
364.427
 11
-3.11133
 21
364.357
  0
LINE
  8
0
 10
-3.11133
 20
364.357
 11
-2.94626
 21
364.266
  0
LINE
  8
0
 10
-2.94626
 20
364.266
 11
-2.79385
 21
364.156
  0
LINE
  8
0
 10
-2.79385
 20
364.156
 11
-2.65654
 21
364.027
  0
LINE
  8
0
 10
-2.65654
 20
364.027
 11
-2.53647
 21
363.882
  0
LINE
  8
0
 10
-2.53647
 20
363.882
 11
-2.43553
 21
363.723
  0
LINE
  8
0
 10
-2.43553
 20
363.723
 11
-2.35533
 21
363.552
  0
LINE
  8
0
 10
-2.35533
 20
363.552
 11
-2.29712
 21
363.373
  0
LINE
  8
0
 10
-2.29712
 20
363.373
 11
-2.26183
 21
363.188
  0
LINE
  8
0
 10
-2.26183
 20
363.188
 11
-2.25
 21
363
  0
LINE
  8
0
 10
-2.25
 20
363
 11
-2.26183
 21
362.812
  0
LINE
  8
0
 10
-2.26183
 20
362.812
 11
-2.29712
 21
362.627
  0
LINE
  8
0
 10
-2.29712
 20
362.627
 11
-2.35533
 21
362.448
  0
LINE
  8
0
 10
-2.35533
 20
362.448
 11
-2.43553
 21
362.277
  0
LINE
  8
0
 10
-2.43553
 20
362.277
 11
-2.53647
 21
362.118
  0
LINE
  8
0
 10
-2.53647
 20
362.118
 11
-2.65654
 21
361.973
  0
LINE
  8
0
 10
-2.65654
 20
361.973
 11
-2.79385
 21
361.844
  0
LINE
  8
0
 10
-2.79385
 20
361.844
 11
-2.94626
 21
361.734
  0
LINE
  8
0
 10
-2.94626
 20
361.734
 11
-3.11133
 21
361.643
  0
LINE
  8
0
 10
-3.11133
 20
361.643
 11
-3.28647
 21
361.573
  0
LINE
  8
0
 10
-3.28647
 20
361.573
 11
-3.46892
 21
361.527
  0
LINE
  8
0
 10
-3.46892
 20
361.527
 11
-3.65581
 21
361.503
  0
LINE
  8
0
 10
-3.65581
 20
361.503
 11
-3.84418
 21
361.503
  0
LINE
  8
0
 10
7.1869
 20
301.589
 11
7.79507
 21
301.745
  0
LINE
  8
0
 10
7.79507
 20
301.745
 11
8.37889
 21
301.976
  0
LINE
  8
0
 10
8.37889
 20
301.976
 11
8.92912
 21
302.278
  0
LINE
  8
0
 10
8.92912
 20
302.278
 11
9.43712
 21
302.647
  0
LINE
  8
0
 10
9.43712
 20
302.647
 11
9.89484
 21
303.077
  0
LINE
  8
0
 10
9.89484
 20
303.077
 11
10.2951
 21
303.561
  0
LINE
  8
0
 10
10.2951
 20
303.561
 11
10.6315
 21
304.091
  0
LINE
  8
0
 10
10.6315
 20
304.091
 11
10.8989
 21
304.659
  0
LINE
  8
0
 10
10.8989
 20
304.659
 11
11.0929
 21
305.257
  0
LINE
  8
0
 10
11.0929
 20
305.257
 11
11.2106
 21
305.873
  0
LINE
  8
0
 10
11.2106
 20
305.873
 11
11.25
 21
306.5
  0
LINE
  8
0
 10
11.25
 20
306.5
 11
11.25
 21
341.5
  0
LINE
  8
0
 10
11.25
 20
341.5
 11
11.2106
 21
342.127
  0
LINE
  8
0
 10
11.2106
 20
342.127
 11
11.0929
 21
342.743
  0
LINE
  8
0
 10
11.0929
 20
342.743
 11
10.8989
 21
343.341
  0
LINE
  8
0
 10
10.8989
 20
343.341
 11
10.6315
 21
343.909
  0
LINE
  8
0
 10
10.6315
 20
343.909
 11
10.2951
 21
344.439
  0
LINE
  8
0
 10
10.2951
 20
344.439
 11
9.89484
 21
344.923
  0
LINE
  8
0
 10
9.89484
 20
344.923
 11
9.43712
 21
345.353
  0
LINE
  8
0
 10
9.43712
 20
345.353
 11
8.92912
 21
345.722
  0
LINE
  8
0
 10
8.92912
 20
345.722
 11
8.37889
 21
346.024
  0
LINE
  8
0
 10
8.37889
 20
346.024
 11
7.79507
 21
346.255
  0
LINE
  8
0
 10
7.79507
 20
346.255
 11
7.1869
 21
346.411
  0
LINE
  8
0
 10
7.1869
 20
346.411
 11
6.56395
 21
346.49
  0
LINE
  8
0
 10
6.56395
 20
346.49
 11
-6.56395
 21
346.49
  0
LINE
  8
0
 10
-6.56395
 20
346.49
 11
-7.1869
 21
346.411
  0
LINE
  8
0
 10
-7.1869
 20
346.411
 11
-7.79507
 21
346.255
  0
LINE
  8
0
 10
-7.79507
 20
346.255
 11
-8.37889
 21
346.024
  0
LINE
  8
0
 10
-8.37889
 20
346.024
 11
-8.92912
 21
345.722
  0
LINE
  8
0
 10
-8.92912
 20
345.722
 11
-9.43712
 21
345.353
  0
LINE
  8
0
 10
-9.43712
 20
345.353
 11
-9.89484
 21
344.923
  0
LINE
  8
0
 10
-9.89484
 20
344.923
 11
-10.2951
 21
344.439
  0
LINE
  8
0
 10
-10.2951
 20
344.439
 11
-10.6315
 21
343.909
  0
LINE
  8
0
 10
-10.6315
 20
343.909
 11
-10.8989
 21
343.341
  0
LINE
  8
0
 10
-10.8989
 20
343.341
 11
-11.0929
 21
342.743
  0
LINE
  8
0
 10
-11.0929
 20
342.743
 11
-11.2106
 21
342.127
  0
LINE
  8
0
 10
-11.2106
 20
342.127
 11
-11.25
 21
341.5
  0
LINE
  8
0
 10
-11.25
 20
341.5
 11
-11.25
 21
306.5
  0
LINE
  8
0
 10
-11.25
 20
306.5
 11
-11.2106
 21
305.873
  0
LINE
  8
0
 10
-11.2106
 20
305.873
 11
-11.0929
 21
305.257
  0
LINE
  8
0
 10
-11.0929
 20
305.257
 11
-10.8989
 21
304.659
  0
LINE
  8
0
 10
-10.8989
 20
304.659
 11
-10.6315
 21
304.091
  0
LINE
  8
0
 10
-10.6315
 20
304.091
 11
-10.2951
 21
303.561
  0
LINE
  8
0
 10
-10.2951
 20
303.561
 11
-9.89484
 21
303.077
  0
LINE
  8
0
 10
-9.89484
 20
303.077
 11
-9.43712
 21
302.647
  0
LINE
  8
0
 10
-9.43712
 20
302.647
 11
-8.92912
 21
302.278
  0
LINE
  8
0
 10
-8.92912
 20
302.278
 11
-8.37889
 21
301.976
  0
LINE
  8
0
 10
-8.37889
 20
301.976
 11
-7.79507
 21
301.745
  0
LINE
  8
0
 10
-7.79507
 20
301.745
 11
-7.1869
 21
301.589
  0
LINE
  8
0
 10
-7.1869
 20
301.589
 11
-6.56395
 21
301.51
  0
LINE
  8
0
 10
-6.56395
 20
301.51
 11
6.56395
 21
301.51
  0
LINE
  8
0
 10
6.56395
 20
301.51
 11
7.1869
 21
301.589
  0
LINE
  8
0
 10
-1.06104
 20
302.009
 11
-0.570862
 21
302.278
  0
LINE
  8
0
 10
-0.570862
 20
302.278
 11
-0.0628662
 21
302.647
  0
LINE
  8
0
 10
-0.0628662
 20
302.647
 11
0.394836
 21
303.077
  0
LINE
  8
0
 10
0.394836
 20
303.077
 11
0.795074
 21
303.561
  0
LINE
  8
0
 10
0.795074
 20
303.561
 11
1.13153
 21
304.091
  0
LINE
  8
0
 10
1.13153
 20
304.091
 11
1.39888
 21
304.659
  0
LINE
  8
0
 10
1.39888
 20
304.659
 11
1.59291
 21
305.257
  0
LINE
  8
0
 10
1.59291
 20
305.257
 11
1.71057
 21
305.873
  0
LINE
  8
0
 10
1.71057
 20
305.873
 11
1.75
 21
306.5
  0
LINE
  8
0
 10
1.75
 20
306.5
 11
1.75
 21
309.5
  0
LINE
  8
0
 10
1.75
 20
309.5
 11
1.71057
 21
310.127
  0
LINE
  8
0
 10
1.71057
 20
310.127
 11
1.59291
 21
310.743
  0
LINE
  8
0
 10
1.59291
 20
310.743
 11
1.39888
 21
311.341
  0
LINE
  8
0
 10
1.39888
 20
311.341
 11
1.13153
 21
311.909
  0
LINE
  8
0
 10
1.13153
 20
311.909
 11
0.795074
 21
312.439
  0
LINE
  8
0
 10
0.795074
 20
312.439
 11
0.394836
 21
312.923
  0
LINE
  8
0
 10
0.394836
 20
312.923
 11
-0.0628662
 21
313.353
  0
LINE
  8
0
 10
-0.0628662
 20
313.353
 11
-0.570862
 21
313.722
  0
LINE
  8
0
 10
-0.570862
 20
313.722
 11
-1.12109
 21
314.024
  0
LINE
  8
0
 10
-1.12109
 20
314.024
 11
-1.70491
 21
314.255
  0
LINE
  8
0
 10
-1.70491
 20
314.255
 11
-2.31308
 21
314.411
  0
LINE
  8
0
 10
-2.31308
 20
314.411
 11
-2.93604
 21
314.49
  0
LINE
  8
0
 10
-2.93604
 20
314.49
 11
-6.56395
 21
314.49
  0
LINE
  8
0
 10
-6.56395
 20
314.49
 11
-7.1869
 21
314.411
  0
LINE
  8
0
 10
-7.1869
 20
314.411
 11
-7.79507
 21
314.255
  0
LINE
  8
0
 10
-7.79507
 20
314.255
 11
-8.37889
 21
314.024
  0
LINE
  8
0
 10
-8.37889
 20
314.024
 11
-8.92912
 21
313.722
  0
LINE
  8
0
 10
-8.92912
 20
313.722
 11
-9.43712
 21
313.353
  0
LINE
  8
0
 10
-9.43712
 20
313.353
 11
-9.89484
 21
312.923
  0
LINE
  8
0
 10
-9.89484
 20
312.923
 11
-10.2951
 21
312.439
  0
LINE
  8
0
 10
-10.2951
 20
312.439
 11
-10.6315
 21
311.909
  0
LINE
  8
0
 10
-10.6315
 20
311.909
 11
-10.75
 21
311.657
  0
LINE
  8
0
 10
-10.75
 20
311.657
 11
-10.75
 21
341.5
  0
LINE
  8
0
 10
-10.75
 20
341.5
 11
-10.7145
 21
342.064
  0
LINE
  8
0
 10
-10.7145
 20
342.064
 11
-10.6086
 21
342.619
  0
LINE
  8
0
 10
-10.6086
 20
342.619
 11
-10.434
 21
343.157
  0
LINE
  8
0
 10
-10.434
 20
343.157
 11
-10.1934
 21
343.668
  0
LINE
  8
0
 10
-10.1934
 20
343.668
 11
-9.89056
 21
344.145
  0
LINE
  8
0
 10
-9.89056
 20
344.145
 11
-9.53035
 21
344.58
  0
LINE
  8
0
 10
-9.53035
 20
344.58
 11
-9.11839
 21
344.967
  0
LINE
  8
0
 10
-9.11839
 20
344.967
 11
-8.66121
 21
345.299
  0
LINE
  8
0
 10
-8.66121
 20
345.299
 11
-8.166
 21
345.572
  0
LINE
  8
0
 10
-8.166
 20
345.572
 11
-7.64056
 21
345.78
  0
LINE
  8
0
 10
-7.64056
 20
345.78
 11
-7.0932
 21
345.92
  0
LINE
  8
0
 10
-7.0932
 20
345.92
 11
-6.53255
 21
345.991
  0
LINE
  8
0
 10
-6.53255
 20
345.991
 11
6.53255
 21
345.991
  0
LINE
  8
0
 10
6.53255
 20
345.991
 11
7.0932
 21
345.92
  0
LINE
  8
0
 10
7.0932
 20
345.92
 11
7.64056
 21
345.78
  0
LINE
  8
0
 10
7.64056
 20
345.78
 11
8.166
 21
345.572
  0
LINE
  8
0
 10
8.166
 20
345.572
 11
8.66121
 21
345.299
  0
LINE
  8
0
 10
8.66121
 20
345.299
 11
9.11839
 21
344.967
  0
LINE
  8
0
 10
9.11839
 20
344.967
 11
9.53035
 21
344.58
  0
LINE
  8
0
 10
9.53035
 20
344.58
 11
9.89056
 21
344.145
  0
LINE
  8
0
 10
9.89056
 20
344.145
 11
10.1934
 21
343.668
  0
LINE
  8
0
 10
10.1934
 20
343.668
 11
10.434
 21
343.157
  0
LINE
  8
0
 10
10.434
 20
343.157
 11
10.6086
 21
342.619
  0
LINE
  8
0
 10
10.6086
 20
342.619
 11
10.7145
 21
342.064
  0
LINE
  8
0
 10
10.7145
 20
342.064
 11
10.75
 21
341.5
  0
LINE
  8
0
 10
10.75
 20
341.5
 11
10.75
 21
306.5
  0
LINE
  8
0
 10
10.75
 20
306.5
 11
10.7145
 21
305.936
  0
LINE
  8
0
 10
10.7145
 20
305.936
 11
10.6086
 21
305.381
  0
LINE
  8
0
 10
10.6086
 20
305.381
 11
10.434
 21
304.843
  0
LINE
  8
0
 10
10.434
 20
304.843
 11
10.1934
 21
304.332
  0
LINE
  8
0
 10
10.1934
 20
304.332
 11
9.89056
 21
303.855
  0
LINE
  8
0
 10
9.89056
 20
303.855
 11
9.53035
 21
303.42
  0
LINE
  8
0
 10
9.53035
 20
303.42
 11
9.11839
 21
303.033
  0
LINE
  8
0
 10
9.11839
 20
303.033
 11
8.66121
 21
302.701
  0
LINE
  8
0
 10
8.66121
 20
302.701
 11
8.166
 21
302.428
  0
LINE
  8
0
 10
8.166
 20
302.428
 11
7.64056
 21
302.22
  0
LINE
  8
0
 10
7.64056
 20
302.22
 11
7.0932
 21
302.08
  0
LINE
  8
0
 10
7.0932
 20
302.08
 11
6.53255
 21
302.009
  0
LINE
  8
0
 10
6.53255
 20
302.009
 11
-1.06104
 21
302.009
  0
LINE
  8
0
 10
4.21844
 20
336.544
 11
4.52254
 21
336.622
  0
LINE
  8
0
 10
4.52254
 20
336.622
 11
4.81444
 21
336.738
  0
LINE
  8
0
 10
4.81444
 20
336.738
 11
5.08955
 21
336.889
  0
LINE
  8
0
 10
5.08955
 20
336.889
 11
5.34355
 21
337.074
  0
LINE
  8
0
 10
5.34355
 20
337.074
 11
5.57242
 21
337.289
  0
LINE
  8
0
 10
5.57242
 20
337.289
 11
5.77254
 21
337.531
  0
LINE
  8
0
 10
5.77254
 20
337.531
 11
5.94077
 21
337.796
  0
LINE
  8
0
 10
5.94077
 20
337.796
 11
6.07443
 21
338.08
  0
LINE
  8
0
 10
6.07443
 20
338.08
 11
6.17145
 21
338.378
  0
LINE
  8
0
 10
6.17145
 20
338.378
 11
6.23029
 21
338.687
  0
LINE
  8
0
 10
6.23029
 20
338.687
 11
6.25
 21
339
  0
LINE
  8
0
 10
6.25
 20
339
 11
6.23029
 21
339.313
  0
LINE
  8
0
 10
6.23029
 20
339.313
 11
6.17145
 21
339.622
  0
LINE
  8
0
 10
6.17145
 20
339.622
 11
6.07443
 21
339.92
  0
LINE
  8
0
 10
6.07443
 20
339.92
 11
5.94077
 21
340.204
  0
LINE
  8
0
 10
5.94077
 20
340.204
 11
5.77254
 21
340.469
  0
LINE
  8
0
 10
5.77254
 20
340.469
 11
5.57242
 21
340.711
  0
LINE
  8
0
 10
5.57242
 20
340.711
 11
5.34355
 21
340.926
  0
LINE
  8
0
 10
5.34355
 20
340.926
 11
5.08955
 21
341.111
  0
LINE
  8
0
 10
5.08955
 20
341.111
 11
4.81444
 21
341.262
  0
LINE
  8
0
 10
4.81444
 20
341.262
 11
4.52254
 21
341.378
  0
LINE
  8
0
 10
4.52254
 20
341.378
 11
4.21844
 21
341.456
  0
LINE
  8
0
 10
4.21844
 20
341.456
 11
3.90697
 21
341.495
  0
LINE
  8
0
 10
3.90697
 20
341.495
 11
3.59302
 21
341.495
  0
LINE
  8
0
 10
3.59302
 20
341.495
 11
3.28154
 21
341.456
  0
LINE
  8
0
 10
3.28154
 20
341.456
 11
2.97745
 21
341.378
  0
LINE
  8
0
 10
2.97745
 20
341.378
 11
2.68555
 21
341.262
  0
LINE
  8
0
 10
2.68555
 20
341.262
 11
2.41043
 21
341.111
  0
LINE
  8
0
 10
2.41043
 20
341.111
 11
2.15643
 21
340.926
  0
LINE
  8
0
 10
2.15643
 20
340.926
 11
1.92757
 21
340.711
  0
LINE
  8
0
 10
1.92757
 20
340.711
 11
1.72745
 21
340.469
  0
LINE
  8
0
 10
1.72745
 20
340.469
 11
1.55922
 21
340.204
  0
LINE
  8
0
 10
1.55922
 20
340.204
 11
1.42555
 21
339.92
  0
LINE
  8
0
 10
1.42555
 20
339.92
 11
1.32854
 21
339.622
  0
LINE
  8
0
 10
1.32854
 20
339.622
 11
1.2697
 21
339.313
  0
LINE
  8
0
 10
1.2697
 20
339.313
 11
1.25
 21
339
  0
LINE
  8
0
 10
1.25
 20
339
 11
1.2697
 21
338.687
  0
LINE
  8
0
 10
1.2697
 20
338.687
 11
1.32854
 21
338.378
  0
LINE
  8
0
 10
1.32854
 20
338.378
 11
1.42555
 21
338.08
  0
LINE
  8
0
 10
1.42555
 20
338.08
 11
1.55922
 21
337.796
  0
LINE
  8
0
 10
1.55922
 20
337.796
 11
1.72745
 21
337.531
  0
LINE
  8
0
 10
1.72745
 20
337.531
 11
1.92757
 21
337.289
  0
LINE
  8
0
 10
1.92757
 20
337.289
 11
2.15643
 21
337.074
  0
LINE
  8
0
 10
2.15643
 20
337.074
 11
2.41043
 21
336.889
  0
LINE
  8
0
 10
2.41043
 20
336.889
 11
2.68555
 21
336.738
  0
LINE
  8
0
 10
2.68555
 20
336.738
 11
2.97745
 21
336.622
  0
LINE
  8
0
 10
2.97745
 20
336.622
 11
3.28154
 21
336.544
  0
LINE
  8
0
 10
3.28154
 20
336.544
 11
3.59302
 21
336.505
  0
LINE
  8
0
 10
3.59302
 20
336.505
 11
3.90697
 21
336.505
  0
LINE
  8
0
 10
3.90697
 20
336.505
 11
4.21844
 21
336.544
  0
LINE
  8
0
 10
3.65581
 20
337.503
 11
3.46892
 21
337.527
  0
LINE
  8
0
 10
3.46892
 20
337.527
 11
3.28647
 21
337.573
  0
LINE
  8
0
 10
3.28647
 20
337.573
 11
3.11133
 21
337.643
  0
LINE
  8
0
 10
3.11133
 20
337.643
 11
2.94626
 21
337.734
  0
LINE
  8
0
 10
2.94626
 20
337.734
 11
2.79385
 21
337.844
  0
LINE
  8
0
 10
2.79385
 20
337.844
 11
2.65654
 21
337.973
  0
LINE
  8
0
 10
2.65654
 20
337.973
 11
2.53647
 21
338.118
  0
LINE
  8
0
 10
2.53647
 20
338.118
 11
2.43553
 21
338.277
  0
LINE
  8
0
 10
2.43553
 20
338.277
 11
2.35533
 21
338.448
  0
LINE
  8
0
 10
2.35533
 20
338.448
 11
2.29712
 21
338.627
  0
LINE
  8
0
 10
2.29712
 20
338.627
 11
2.26183
 21
338.812
  0
LINE
  8
0
 10
2.26183
 20
338.812
 11
2.25
 21
339
  0
LINE
  8
0
 10
2.25
 20
339
 11
2.26183
 21
339.188
  0
LINE
  8
0
 10
2.26183
 20
339.188
 11
2.29712
 21
339.373
  0
LINE
  8
0
 10
2.29712
 20
339.373
 11
2.35533
 21
339.552
  0
LINE
  8
0
 10
2.35533
 20
339.552
 11
2.43553
 21
339.723
  0
LINE
  8
0
 10
2.43553
 20
339.723
 11
2.53647
 21
339.882
  0
LINE
  8
0
 10
2.53647
 20
339.882
 11
2.65654
 21
340.027
  0
LINE
  8
0
 10
2.65654
 20
340.027
 11
2.79385
 21
340.156
  0
LINE
  8
0
 10
2.79385
 20
340.156
 11
2.94626
 21
340.266
  0
LINE
  8
0
 10
2.94626
 20
340.266
 11
3.11133
 21
340.357
  0
LINE
  8
0
 10
3.11133
 20
340.357
 11
3.28647
 21
340.427
  0
LINE
  8
0
 10
3.28647
 20
340.427
 11
3.46892
 21
340.473
  0
LINE
  8
0
 10
3.46892
 20
340.473
 11
3.65581
 21
340.497
  0
LINE
  8
0
 10
3.65581
 20
340.497
 11
3.84418
 21
340.497
  0
LINE
  8
0
 10
3.84418
 20
340.497
 11
4.03107
 21
340.473
  0
LINE
  8
0
 10
4.03107
 20
340.473
 11
4.21352
 21
340.427
  0
LINE
  8
0
 10
4.21352
 20
340.427
 11
4.38866
 21
340.357
  0
LINE
  8
0
 10
4.38866
 20
340.357
 11
4.55373
 21
340.266
  0
LINE
  8
0
 10
4.55373
 20
340.266
 11
4.70613
 21
340.156
  0
LINE
  8
0
 10
4.70613
 20
340.156
 11
4.84344
 21
340.027
  0
LINE
  8
0
 10
4.84344
 20
340.027
 11
4.96352
 21
339.882
  0
LINE
  8
0
 10
4.96352
 20
339.882
 11
5.06445
 21
339.723
  0
LINE
  8
0
 10
5.06445
 20
339.723
 11
5.14465
 21
339.552
  0
LINE
  8
0
 10
5.14465
 20
339.552
 11
5.20287
 21
339.373
  0
LINE
  8
0
 10
5.20287
 20
339.373
 11
5.23816
 21
339.188
  0
LINE
  8
0
 10
5.23816
 20
339.188
 11
5.25
 21
339
  0
LINE
  8
0
 10
5.25
 20
339
 11
5.23816
 21
338.812
  0
LINE
  8
0
 10
5.23816
 20
338.812
 11
5.20287
 21
338.627
  0
LINE
  8
0
 10
5.20287
 20
338.627
 11
5.14465
 21
338.448
  0
LINE
  8
0
 10
5.14465
 20
338.448
 11
5.06445
 21
338.277
  0
LINE
  8
0
 10
5.06445
 20
338.277
 11
4.96352
 21
338.118
  0
LINE
  8
0
 10
4.96352
 20
338.118
 11
4.84344
 21
337.973
  0
LINE
  8
0
 10
4.84344
 20
337.973
 11
4.70613
 21
337.844
  0
LINE
  8
0
 10
4.70613
 20
337.844
 11
4.55373
 21
337.734
  0
LINE
  8
0
 10
4.55373
 20
337.734
 11
4.38866
 21
337.643
  0
LINE
  8
0
 10
4.38866
 20
337.643
 11
4.21352
 21
337.573
  0
LINE
  8
0
 10
4.21352
 20
337.573
 11
4.03107
 21
337.527
  0
LINE
  8
0
 10
4.03107
 20
337.527
 11
3.84418
 21
337.503
  0
LINE
  8
0
 10
3.84418
 20
337.503
 11
3.65581
 21
337.503
  0
LINE
  8
0
 10
-3.84418
 20
307.503
 11
-4.03107
 21
307.527
  0
LINE
  8
0
 10
-4.03107
 20
307.527
 11
-4.21352
 21
307.573
  0
LINE
  8
0
 10
-4.21352
 20
307.573
 11
-4.38866
 21
307.643
  0
LINE
  8
0
 10
-4.38866
 20
307.643
 11
-4.55373
 21
307.734
  0
LINE
  8
0
 10
-4.55373
 20
307.734
 11
-4.70613
 21
307.844
  0
LINE
  8
0
 10
-4.70613
 20
307.844
 11
-4.84344
 21
307.973
  0
LINE
  8
0
 10
-4.84344
 20
307.973
 11
-4.96352
 21
308.118
  0
LINE
  8
0
 10
-4.96352
 20
308.118
 11
-5.06445
 21
308.277
  0
LINE
  8
0
 10
-5.06445
 20
308.277
 11
-5.14465
 21
308.448
  0
LINE
  8
0
 10
-5.14465
 20
308.448
 11
-5.20287
 21
308.627
  0
LINE
  8
0
 10
-5.20287
 20
308.627
 11
-5.23816
 21
308.812
  0
LINE
  8
0
 10
-5.23816
 20
308.812
 11
-5.25
 21
309
  0
LINE
  8
0
 10
-5.25
 20
309
 11
-5.23816
 21
309.188
  0
LINE
  8
0
 10
-5.23816
 20
309.188
 11
-5.20287
 21
309.373
  0
LINE
  8
0
 10
-5.20287
 20
309.373
 11
-5.14465
 21
309.552
  0
LINE
  8
0
 10
-5.14465
 20
309.552
 11
-5.06445
 21
309.723
  0
LINE
  8
0
 10
-5.06445
 20
309.723
 11
-4.96352
 21
309.882
  0
LINE
  8
0
 10
-4.96352
 20
309.882
 11
-4.84344
 21
310.027
  0
LINE
  8
0
 10
-4.84344
 20
310.027
 11
-4.70613
 21
310.156
  0
LINE
  8
0
 10
-4.70613
 20
310.156
 11
-4.55373
 21
310.266
  0
LINE
  8
0
 10
-4.55373
 20
310.266
 11
-4.38866
 21
310.357
  0
LINE
  8
0
 10
-4.38866
 20
310.357
 11
-4.21352
 21
310.427
  0
LINE
  8
0
 10
-4.21352
 20
310.427
 11
-4.03107
 21
310.473
  0
LINE
  8
0
 10
-4.03107
 20
310.473
 11
-3.84418
 21
310.497
  0
LINE
  8
0
 10
-3.84418
 20
310.497
 11
-3.65581
 21
310.497
  0
LINE
  8
0
 10
-3.65581
 20
310.497
 11
-3.46892
 21
310.473
  0
LINE
  8
0
 10
-3.46892
 20
310.473
 11
-3.28647
 21
310.427
  0
LINE
  8
0
 10
-3.28647
 20
310.427
 11
-3.11133
 21
310.357
  0
LINE
  8
0
 10
-3.11133
 20
310.357
 11
-2.94626
 21
310.266
  0
LINE
  8
0
 10
-2.94626
 20
310.266
 11
-2.79385
 21
310.156
  0
LINE
  8
0
 10
-2.79385
 20
310.156
 11
-2.65654
 21
310.027
  0
LINE
  8
0
 10
-2.65654
 20
310.027
 11
-2.53647
 21
309.882
  0
LINE
  8
0
 10
-2.53647
 20
309.882
 11
-2.43553
 21
309.723
  0
LINE
  8
0
 10
-2.43553
 20
309.723
 11
-2.35533
 21
309.552
  0
LINE
  8
0
 10
-2.35533
 20
309.552
 11
-2.29712
 21
309.373
  0
LINE
  8
0
 10
-2.29712
 20
309.373
 11
-2.26183
 21
309.188
  0
LINE
  8
0
 10
-2.26183
 20
309.188
 11
-2.25
 21
309
  0
LINE
  8
0
 10
-2.25
 20
309
 11
-2.26183
 21
308.812
  0
LINE
  8
0
 10
-2.26183
 20
308.812
 11
-2.29712
 21
308.627
  0
LINE
  8
0
 10
-2.29712
 20
308.627
 11
-2.35533
 21
308.448
  0
LINE
  8
0
 10
-2.35533
 20
308.448
 11
-2.43553
 21
308.277
  0
LINE
  8
0
 10
-2.43553
 20
308.277
 11
-2.53647
 21
308.118
  0
LINE
  8
0
 10
-2.53647
 20
308.118
 11
-2.65654
 21
307.973
  0
LINE
  8
0
 10
-2.65654
 20
307.973
 11
-2.79385
 21
307.844
  0
LINE
  8
0
 10
-2.79385
 20
307.844
 11
-2.94626
 21
307.734
  0
LINE
  8
0
 10
-2.94626
 20
307.734
 11
-3.11133
 21
307.643
  0
LINE
  8
0
 10
-3.11133
 20
307.643
 11
-3.28647
 21
307.573
  0
LINE
  8
0
 10
-3.28647
 20
307.573
 11
-3.46892
 21
307.527
  0
LINE
  8
0
 10
-3.46892
 20
307.527
 11
-3.65581
 21
307.503
  0
LINE
  8
0
 10
-3.65581
 20
307.503
 11
-3.84418
 21
307.503
  0
LINE
  8
0
 10
7.1869
 20
247.589
 11
7.79507
 21
247.745
  0
LINE
  8
0
 10
7.79507
 20
247.745
 11
8.37889
 21
247.976
  0
LINE
  8
0
 10
8.37889
 20
247.976
 11
8.92912
 21
248.278
  0
LINE
  8
0
 10
8.92912
 20
248.278
 11
9.43712
 21
248.647
  0
LINE
  8
0
 10
9.43712
 20
248.647
 11
9.89484
 21
249.077
  0
LINE
  8
0
 10
9.89484
 20
249.077
 11
10.2951
 21
249.561
  0
LINE
  8
0
 10
10.2951
 20
249.561
 11
10.6315
 21
250.091
  0
LINE
  8
0
 10
10.6315
 20
250.091
 11
10.8989
 21
250.659
  0
LINE
  8
0
 10
10.8989
 20
250.659
 11
11.0929
 21
251.257
  0
LINE
  8
0
 10
11.0929
 20
251.257
 11
11.2106
 21
251.873
  0
LINE
  8
0
 10
11.2106
 20
251.873
 11
11.25
 21
252.5
  0
LINE
  8
0
 10
11.25
 20
252.5
 11
11.25
 21
287.5
  0
LINE
  8
0
 10
11.25
 20
287.5
 11
11.2106
 21
288.127
  0
LINE
  8
0
 10
11.2106
 20
288.127
 11
11.0929
 21
288.743
  0
LINE
  8
0
 10
11.0929
 20
288.743
 11
10.8989
 21
289.341
  0
LINE
  8
0
 10
10.8989
 20
289.341
 11
10.6315
 21
289.909
  0
LINE
  8
0
 10
10.6315
 20
289.909
 11
10.2951
 21
290.439
  0
LINE
  8
0
 10
10.2951
 20
290.439
 11
9.89484
 21
290.923
  0
LINE
  8
0
 10
9.89484
 20
290.923
 11
9.43712
 21
291.353
  0
LINE
  8
0
 10
9.43712
 20
291.353
 11
8.92912
 21
291.722
  0
LINE
  8
0
 10
8.92912
 20
291.722
 11
8.37889
 21
292.024
  0
LINE
  8
0
 10
8.37889
 20
292.024
 11
7.79507
 21
292.255
  0
LINE
  8
0
 10
7.79507
 20
292.255
 11
7.1869
 21
292.411
  0
LINE
  8
0
 10
7.1869
 20
292.411
 11
6.56395
 21
292.49
  0
LINE
  8
0
 10
6.56395
 20
292.49
 11
-6.56395
 21
292.49
  0
LINE
  8
0
 10
-6.56395
 20
292.49
 11
-7.1869
 21
292.411
  0
LINE
  8
0
 10
-7.1869
 20
292.411
 11
-7.79507
 21
292.255
  0
LINE
  8
0
 10
-7.79507
 20
292.255
 11
-8.37889
 21
292.024
  0
LINE
  8
0
 10
-8.37889
 20
292.024
 11
-8.92912
 21
291.722
  0
LINE
  8
0
 10
-8.92912
 20
291.722
 11
-9.43712
 21
291.353
  0
LINE
  8
0
 10
-9.43712
 20
291.353
 11
-9.89484
 21
290.923
  0
LINE
  8
0
 10
-9.89484
 20
290.923
 11
-10.2951
 21
290.439
  0
LINE
  8
0
 10
-10.2951
 20
290.439
 11
-10.6315
 21
289.909
  0
LINE
  8
0
 10
-10.6315
 20
289.909
 11
-10.8989
 21
289.341
  0
LINE
  8
0
 10
-10.8989
 20
289.341
 11
-11.0929
 21
288.743
  0
LINE
  8
0
 10
-11.0929
 20
288.743
 11
-11.2106
 21
288.127
  0
LINE
  8
0
 10
-11.2106
 20
288.127
 11
-11.25
 21
287.5
  0
LINE
  8
0
 10
-11.25
 20
287.5
 11
-11.25
 21
252.5
  0
LINE
  8
0
 10
-11.25
 20
252.5
 11
-11.2106
 21
251.873
  0
LINE
  8
0
 10
-11.2106
 20
251.873
 11
-11.0929
 21
251.257
  0
LINE
  8
0
 10
-11.0929
 20
251.257
 11
-10.8989
 21
250.659
  0
LINE
  8
0
 10
-10.8989
 20
250.659
 11
-10.6315
 21
250.091
  0
LINE
  8
0
 10
-10.6315
 20
250.091
 11
-10.2951
 21
249.561
  0
LINE
  8
0
 10
-10.2951
 20
249.561
 11
-9.89484
 21
249.077
  0
LINE
  8
0
 10
-9.89484
 20
249.077
 11
-9.43712
 21
248.647
  0
LINE
  8
0
 10
-9.43712
 20
248.647
 11
-8.92912
 21
248.278
  0
LINE
  8
0
 10
-8.92912
 20
248.278
 11
-8.37889
 21
247.976
  0
LINE
  8
0
 10
-8.37889
 20
247.976
 11
-7.79507
 21
247.745
  0
LINE
  8
0
 10
-7.79507
 20
247.745
 11
-7.1869
 21
247.589
  0
LINE
  8
0
 10
-7.1869
 20
247.589
 11
-6.56395
 21
247.51
  0
LINE
  8
0
 10
-6.56395
 20
247.51
 11
6.56395
 21
247.51
  0
LINE
  8
0
 10
6.56395
 20
247.51
 11
7.1869
 21
247.589
  0
LINE
  8
0
 10
-0.285675
 20
248.486
 11
-0.0628662
 21
248.647
  0
LINE
  8
0
 10
-0.0628662
 20
248.647
 11
0.394836
 21
249.077
  0
LINE
  8
0
 10
0.394836
 20
249.077
 11
0.795074
 21
249.561
  0
LINE
  8
0
 10
0.795074
 20
249.561
 11
1.13153
 21
250.091
  0
LINE
  8
0
 10
1.13153
 20
250.091
 11
1.39888
 21
250.659
  0
LINE
  8
0
 10
1.39888
 20
250.659
 11
1.59291
 21
251.257
  0
LINE
  8
0
 10
1.59291
 20
251.257
 11
1.71057
 21
251.873
  0
LINE
  8
0
 10
1.71057
 20
251.873
 11
1.75
 21
252.5
  0
LINE
  8
0
 10
1.75
 20
252.5
 11
1.75
 21
255.5
  0
LINE
  8
0
 10
1.75
 20
255.5
 11
1.71057
 21
256.127
  0
LINE
  8
0
 10
1.71057
 20
256.127
 11
1.59291
 21
256.743
  0
LINE
  8
0
 10
1.59291
 20
256.743
 11
1.39888
 21
257.341
  0
LINE
  8
0
 10
1.39888
 20
257.341
 11
1.13153
 21
257.909
  0
LINE
  8
0
 10
1.13153
 20
257.909
 11
0.795074
 21
258.439
  0
LINE
  8
0
 10
0.795074
 20
258.439
 11
0.394836
 21
258.923
  0
LINE
  8
0
 10
0.394836
 20
258.923
 11
-0.0628662
 21
259.353
  0
LINE
  8
0
 10
-0.0628662
 20
259.353
 11
-0.570862
 21
259.722
  0
LINE
  8
0
 10
-0.570862
 20
259.722
 11
-1.12109
 21
260.024
  0
LINE
  8
0
 10
-1.12109
 20
260.024
 11
-1.70491
 21
260.255
  0
LINE
  8
0
 10
-1.70491
 20
260.255
 11
-2.31308
 21
260.411
  0
LINE
  8
0
 10
-2.31308
 20
260.411
 11
-2.93604
 21
260.49
  0
LINE
  8
0
 10
-2.93604
 20
260.49
 11
-6.56395
 21
260.49
  0
LINE
  8
0
 10
-6.56395
 20
260.49
 11
-7.1869
 21
260.411
  0
LINE
  8
0
 10
-7.1869
 20
260.411
 11
-7.79507
 21
260.255
  0
LINE
  8
0
 10
-7.79507
 20
260.255
 11
-8.37889
 21
260.024
  0
LINE
  8
0
 10
-8.37889
 20
260.024
 11
-8.92912
 21
259.722
  0
LINE
  8
0
 10
-8.92912
 20
259.722
 11
-9.43712
 21
259.353
  0
LINE
  8
0
 10
-9.43712
 20
259.353
 11
-9.89484
 21
258.923
  0
LINE
  8
0
 10
-9.89484
 20
258.923
 11
-10.2724
 21
258.466
  0
LINE
  8
0
 10
-10.2724
 20
258.466
 11
-10.2724
 21
287.5
  0
LINE
  8
0
 10
-10.2724
 20
287.5
 11
-10.2407
 21
288.004
  0
LINE
  8
0
 10
-10.2407
 20
288.004
 11
-10.146
 21
288.5
  0
LINE
  8
0
 10
-10.146
 20
288.5
 11
-9.98991
 21
288.981
  0
LINE
  8
0
 10
-9.98991
 20
288.981
 11
-9.77484
 21
289.438
  0
LINE
  8
0
 10
-9.77484
 20
289.438
 11
-9.50417
 21
289.864
  0
LINE
  8
0
 10
-9.50417
 20
289.864
 11
-9.18219
 21
290.254
  0
LINE
  8
0
 10
-9.18219
 20
290.254
 11
-8.81395
 21
290.599
  0
LINE
  8
0
 10
-8.81395
 20
290.599
 11
-8.40529
 21
290.896
  0
LINE
  8
0
 10
-8.40529
 20
290.896
 11
-7.96265
 21
291.14
  0
LINE
  8
0
 10
-7.96265
 20
291.14
 11
-7.49298
 21
291.326
  0
LINE
  8
0
 10
-7.49298
 20
291.326
 11
-7.00371
 21
291.451
  0
LINE
  8
0
 10
-7.00371
 20
291.451
 11
-6.50256
 21
291.514
  0
LINE
  8
0
 10
-6.50256
 20
291.514
 11
0.285675
 21
291.514
  0
LINE
  8
0
 10
0.285675
 20
291.514
 11
0.0628662
 21
291.353
  0
LINE
  8
0
 10
0.0628662
 20
291.353
 11
-0.394836
 21
290.923
  0
LINE
  8
0
 10
-0.394836
 20
290.923
 11
-0.795074
 21
290.439
  0
LINE
  8
0
 10
-0.795074
 20
290.439
 11
-1.13153
 21
289.909
  0
LINE
  8
0
 10
-1.13153
 20
289.909
 11
-1.39888
 21
289.341
  0
LINE
  8
0
 10
-1.39888
 20
289.341
 11
-1.59291
 21
288.743
  0
LINE
  8
0
 10
-1.59291
 20
288.743
 11
-1.71057
 21
288.127
  0
LINE
  8
0
 10
-1.71057
 20
288.127
 11
-1.75
 21
287.5
  0
LINE
  8
0
 10
-1.75
 20
287.5
 11
-1.75
 21
284.5
  0
LINE
  8
0
 10
-1.75
 20
284.5
 11
-1.71057
 21
283.873
  0
LINE
  8
0
 10
-1.71057
 20
283.873
 11
-1.59291
 21
283.257
  0
LINE
  8
0
 10
-1.59291
 20
283.257
 11
-1.39888
 21
282.659
  0
LINE
  8
0
 10
-1.39888
 20
282.659
 11
-1.13153
 21
282.091
  0
LINE
  8
0
 10
-1.13153
 20
282.091
 11
-0.795074
 21
281.561
  0
LINE
  8
0
 10
-0.795074
 20
281.561
 11
-0.394836
 21
281.077
  0
LINE
  8
0
 10
-0.394836
 20
281.077
 11
0.0628662
 21
280.647
  0
LINE
  8
0
 10
0.0628662
 20
280.647
 11
0.570862
 21
280.278
  0
LINE
  8
0
 10
0.570862
 20
280.278
 11
1.12109
 21
279.976
  0
LINE
  8
0
 10
1.12109
 20
279.976
 11
1.70491
 21
279.745
  0
LINE
  8
0
 10
1.70491
 20
279.745
 11
2.31308
 21
279.589
  0
LINE
  8
0
 10
2.31308
 20
279.589
 11
2.93604
 21
279.51
  0
LINE
  8
0
 10
2.93604
 20
279.51
 11
6.56395
 21
279.51
  0
LINE
  8
0
 10
6.56395
 20
279.51
 11
7.1869
 21
279.589
  0
LINE
  8
0
 10
7.1869
 20
279.589
 11
7.79507
 21
279.745
  0
LINE
  8
0
 10
7.79507
 20
279.745
 11
8.37889
 21
279.976
  0
LINE
  8
0
 10
8.37889
 20
279.976
 11
8.92912
 21
280.278
  0
LINE
  8
0
 10
8.92912
 20
280.278
 11
9.43712
 21
280.647
  0
LINE
  8
0
 10
9.43712
 20
280.647
 11
9.89484
 21
281.077
  0
LINE
  8
0
 10
9.89484
 20
281.077
 11
10.2724
 21
281.534
  0
LINE
  8
0
 10
10.2724
 20
281.534
 11
10.2724
 21
252.5
  0
LINE
  8
0
 10
10.2724
 20
252.5
 11
10.2407
 21
251.996
  0
LINE
  8
0
 10
10.2407
 20
251.996
 11
10.146
 21
251.5
  0
LINE
  8
0
 10
10.146
 20
251.5
 11
9.98991
 21
251.019
  0
LINE
  8
0
 10
9.98991
 20
251.019
 11
9.77484
 21
250.562
  0
LINE
  8
0
 10
9.77484
 20
250.562
 11
9.50417
 21
250.136
  0
LINE
  8
0
 10
9.50417
 20
250.136
 11
9.18219
 21
249.746
  0
LINE
  8
0
 10
9.18219
 20
249.746
 11
8.81395
 21
249.401
  0
LINE
  8
0
 10
8.81395
 20
249.401
 11
8.40529
 21
249.104
  0
LINE
  8
0
 10
8.40529
 20
249.104
 11
7.96265
 21
248.86
  0
LINE
  8
0
 10
7.96265
 20
248.86
 11
7.49298
 21
248.674
  0
LINE
  8
0
 10
7.49298
 20
248.674
 11
7.00371
 21
248.549
  0
LINE
  8
0
 10
7.00371
 20
248.549
 11
6.50256
 21
248.486
  0
LINE
  8
0
 10
6.50256
 20
248.486
 11
-0.285675
 21
248.486
  0
LINE
  8
0
 10
3.65581
 20
283.503
 11
3.46892
 21
283.527
  0
LINE
  8
0
 10
3.46892
 20
283.527
 11
3.28647
 21
283.573
  0
LINE
  8
0
 10
3.28647
 20
283.573
 11
3.11133
 21
283.643
  0
LINE
  8
0
 10
3.11133
 20
283.643
 11
2.94626
 21
283.734
  0
LINE
  8
0
 10
2.94626
 20
283.734
 11
2.79385
 21
283.844
  0
LINE
  8
0
 10
2.79385
 20
283.844
 11
2.65654
 21
283.973
  0
LINE
  8
0
 10
2.65654
 20
283.973
 11
2.53647
 21
284.118
  0
LINE
  8
0
 10
2.53647
 20
284.118
 11
2.43553
 21
284.277
  0
LINE
  8
0
 10
2.43553
 20
284.277
 11
2.35533
 21
284.448
  0
LINE
  8
0
 10
2.35533
 20
284.448
 11
2.29712
 21
284.627
  0
LINE
  8
0
 10
2.29712
 20
284.627
 11
2.26183
 21
284.812
  0
LINE
  8
0
 10
2.26183
 20
284.812
 11
2.25
 21
285
  0
LINE
  8
0
 10
2.25
 20
285
 11
2.26183
 21
285.188
  0
LINE
  8
0
 10
2.26183
 20
285.188
 11
2.29712
 21
285.373
  0
LINE
  8
0
 10
2.29712
 20
285.373
 11
2.35533
 21
285.552
  0
LINE
  8
0
 10
2.35533
 20
285.552
 11
2.43553
 21
285.723
  0
LINE
  8
0
 10
2.43553
 20
285.723
 11
2.53647
 21
285.882
  0
LINE
  8
0
 10
2.53647
 20
285.882
 11
2.65654
 21
286.027
  0
LINE
  8
0
 10
2.65654
 20
286.027
 11
2.79385
 21
286.156
  0
LINE
  8
0
 10
2.79385
 20
286.156
 11
2.94626
 21
286.266
  0
LINE
  8
0
 10
2.94626
 20
286.266
 11
3.11133
 21
286.357
  0
LINE
  8
0
 10
3.11133
 20
286.357
 11
3.28647
 21
286.427
  0
LINE
  8
0
 10
3.28647
 20
286.427
 11
3.46892
 21
286.473
  0
LINE
  8
0
 10
3.46892
 20
286.473
 11
3.65581
 21
286.497
  0
LINE
  8
0
 10
3.65581
 20
286.497
 11
3.84418
 21
286.497
  0
LINE
  8
0
 10
3.84418
 20
286.497
 11
4.03107
 21
286.473
  0
LINE
  8
0
 10
4.03107
 20
286.473
 11
4.21352
 21
286.427
  0
LINE
  8
0
 10
4.21352
 20
286.427
 11
4.38866
 21
286.357
  0
LINE
  8
0
 10
4.38866
 20
286.357
 11
4.55373
 21
286.266
  0
LINE
  8
0
 10
4.55373
 20
286.266
 11
4.70613
 21
286.156
  0
LINE
  8
0
 10
4.70613
 20
286.156
 11
4.84344
 21
286.027
  0
LINE
  8
0
 10
4.84344
 20
286.027
 11
4.96352
 21
285.882
  0
LINE
  8
0
 10
4.96352
 20
285.882
 11
5.06445
 21
285.723
  0
LINE
  8
0
 10
5.06445
 20
285.723
 11
5.14465
 21
285.552
  0
LINE
  8
0
 10
5.14465
 20
285.552
 11
5.20287
 21
285.373
  0
LINE
  8
0
 10
5.20287
 20
285.373
 11
5.23816
 21
285.188
  0
LINE
  8
0
 10
5.23816
 20
285.188
 11
5.25
 21
285
  0
LINE
  8
0
 10
5.25
 20
285
 11
5.23816
 21
284.812
  0
LINE
  8
0
 10
5.23816
 20
284.812
 11
5.20287
 21
284.627
  0
LINE
  8
0
 10
5.20287
 20
284.627
 11
5.14465
 21
284.448
  0
LINE
  8
0
 10
5.14465
 20
284.448
 11
5.06445
 21
284.277
  0
LINE
  8
0
 10
5.06445
 20
284.277
 11
4.96352
 21
284.118
  0
LINE
  8
0
 10
4.96352
 20
284.118
 11
4.84344
 21
283.973
  0
LINE
  8
0
 10
4.84344
 20
283.973
 11
4.70613
 21
283.844
  0
LINE
  8
0
 10
4.70613
 20
283.844
 11
4.55373
 21
283.734
  0
LINE
  8
0
 10
4.55373
 20
283.734
 11
4.38866
 21
283.643
  0
LINE
  8
0
 10
4.38866
 20
283.643
 11
4.21352
 21
283.573
  0
LINE
  8
0
 10
4.21352
 20
283.573
 11
4.03107
 21
283.527
  0
LINE
  8
0
 10
4.03107
 20
283.527
 11
3.84418
 21
283.503
  0
LINE
  8
0
 10
3.84418
 20
283.503
 11
3.65581
 21
283.503
  0
LINE
  8
0
 10
-3.84418
 20
253.503
 11
-4.03107
 21
253.527
  0
LINE
  8
0
 10
-4.03107
 20
253.527
 11
-4.21352
 21
253.573
  0
LINE
  8
0
 10
-4.21352
 20
253.573
 11
-4.38866
 21
253.643
  0
LINE
  8
0
 10
-4.38866
 20
253.643
 11
-4.55373
 21
253.734
  0
LINE
  8
0
 10
-4.55373
 20
253.734
 11
-4.70613
 21
253.844
  0
LINE
  8
0
 10
-4.70613
 20
253.844
 11
-4.84344
 21
253.973
  0
LINE
  8
0
 10
-4.84344
 20
253.973
 11
-4.96352
 21
254.118
  0
LINE
  8
0
 10
-4.96352
 20
254.118
 11
-5.06445
 21
254.277
  0
LINE
  8
0
 10
-5.06445
 20
254.277
 11
-5.14465
 21
254.448
  0
LINE
  8
0
 10
-5.14465
 20
254.448
 11
-5.20287
 21
254.627
  0
LINE
  8
0
 10
-5.20287
 20
254.627
 11
-5.23816
 21
254.812
  0
LINE
  8
0
 10
-5.23816
 20
254.812
 11
-5.25
 21
255
  0
LINE
  8
0
 10
-5.25
 20
255
 11
-5.23816
 21
255.188
  0
LINE
  8
0
 10
-5.23816
 20
255.188
 11
-5.20287
 21
255.373
  0
LINE
  8
0
 10
-5.20287
 20
255.373
 11
-5.14465
 21
255.552
  0
LINE
  8
0
 10
-5.14465
 20
255.552
 11
-5.06445
 21
255.723
  0
LINE
  8
0
 10
-5.06445
 20
255.723
 11
-4.96352
 21
255.882
  0
LINE
  8
0
 10
-4.96352
 20
255.882
 11
-4.84344
 21
256.027
  0
LINE
  8
0
 10
-4.84344
 20
256.027
 11
-4.70613
 21
256.156
  0
LINE
  8
0
 10
-4.70613
 20
256.156
 11
-4.55373
 21
256.266
  0
LINE
  8
0
 10
-4.55373
 20
256.266
 11
-4.38866
 21
256.357
  0
LINE
  8
0
 10
-4.38866
 20
256.357
 11
-4.21352
 21
256.427
  0
LINE
  8
0
 10
-4.21352
 20
256.427
 11
-4.03107
 21
256.473
  0
LINE
  8
0
 10
-4.03107
 20
256.473
 11
-3.84418
 21
256.497
  0
LINE
  8
0
 10
-3.84418
 20
256.497
 11
-3.65581
 21
256.497
  0
LINE
  8
0
 10
-3.65581
 20
256.497
 11
-3.46892
 21
256.473
  0
LINE
  8
0
 10
-3.46892
 20
256.473
 11
-3.28647
 21
256.427
  0
LINE
  8
0
 10
-3.28647
 20
256.427
 11
-3.11133
 21
256.357
  0
LINE
  8
0
 10
-3.11133
 20
256.357
 11
-2.94626
 21
256.266
  0
LINE
  8
0
 10
-2.94626
 20
256.266
 11
-2.79385
 21
256.156
  0
LINE
  8
0
 10
-2.79385
 20
256.156
 11
-2.65654
 21
256.027
  0
LINE
  8
0
 10
-2.65654
 20
256.027
 11
-2.53647
 21
255.882
  0
LINE
  8
0
 10
-2.53647
 20
255.882
 11
-2.43553
 21
255.723
  0
LINE
  8
0
 10
-2.43553
 20
255.723
 11
-2.35533
 21
255.552
  0
LINE
  8
0
 10
-2.35533
 20
255.552
 11
-2.29712
 21
255.373
  0
LINE
  8
0
 10
-2.29712
 20
255.373
 11
-2.26183
 21
255.188
  0
LINE
  8
0
 10
-2.26183
 20
255.188
 11
-2.25
 21
255
  0
LINE
  8
0
 10
-2.25
 20
255
 11
-2.26183
 21
254.812
  0
LINE
  8
0
 10
-2.26183
 20
254.812
 11
-2.29712
 21
254.627
  0
LINE
  8
0
 10
-2.29712
 20
254.627
 11
-2.35533
 21
254.448
  0
LINE
  8
0
 10
-2.35533
 20
254.448
 11
-2.43553
 21
254.277
  0
LINE
  8
0
 10
-2.43553
 20
254.277
 11
-2.53647
 21
254.118
  0
LINE
  8
0
 10
-2.53647
 20
254.118
 11
-2.65654
 21
253.973
  0
LINE
  8
0
 10
-2.65654
 20
253.973
 11
-2.79385
 21
253.844
  0
LINE
  8
0
 10
-2.79385
 20
253.844
 11
-2.94626
 21
253.734
  0
LINE
  8
0
 10
-2.94626
 20
253.734
 11
-3.11133
 21
253.643
  0
LINE
  8
0
 10
-3.11133
 20
253.643
 11
-3.28647
 21
253.573
  0
LINE
  8
0
 10
-3.28647
 20
253.573
 11
-3.46892
 21
253.527
  0
LINE
  8
0
 10
-3.46892
 20
253.527
 11
-3.65581
 21
253.503
  0
LINE
  8
0
 10
-3.65581
 20
253.503
 11
-3.84418
 21
253.503
  0
LINE
  8
0
 10
7.1869
 20
193.589
 11
7.79507
 21
193.745
  0
LINE
  8
0
 10
7.79507
 20
193.745
 11
8.37889
 21
193.976
  0
LINE
  8
0
 10
8.37889
 20
193.976
 11
8.92912
 21
194.278
  0
LINE
  8
0
 10
8.92912
 20
194.278
 11
9.43712
 21
194.647
  0
LINE
  8
0
 10
9.43712
 20
194.647
 11
9.89484
 21
195.077
  0
LINE
  8
0
 10
9.89484
 20
195.077
 11
10.2951
 21
195.561
  0
LINE
  8
0
 10
10.2951
 20
195.561
 11
10.6315
 21
196.091
  0
LINE
  8
0
 10
10.6315
 20
196.091
 11
10.8989
 21
196.659
  0
LINE
  8
0
 10
10.8989
 20
196.659
 11
11.0929
 21
197.257
  0
LINE
  8
0
 10
11.0929
 20
197.257
 11
11.2106
 21
197.873
  0
LINE
  8
0
 10
11.2106
 20
197.873
 11
11.25
 21
198.5
  0
LINE
  8
0
 10
11.25
 20
198.5
 11
11.25
 21
233.5
  0
LINE
  8
0
 10
11.25
 20
233.5
 11
11.2106
 21
234.127
  0
LINE
  8
0
 10
11.2106
 20
234.127
 11
11.0929
 21
234.743
  0
LINE
  8
0
 10
11.0929
 20
234.743
 11
10.8989
 21
235.341
  0
LINE
  8
0
 10
10.8989
 20
235.341
 11
10.6315
 21
235.909
  0
LINE
  8
0
 10
10.6315
 20
235.909
 11
10.2951
 21
236.439
  0
LINE
  8
0
 10
10.2951
 20
236.439
 11
9.89484
 21
236.923
  0
LINE
  8
0
 10
9.89484
 20
236.923
 11
9.43712
 21
237.353
  0
LINE
  8
0
 10
9.43712
 20
237.353
 11
8.92912
 21
237.722
  0
LINE
  8
0
 10
8.92912
 20
237.722
 11
8.37889
 21
238.024
  0
LINE
  8
0
 10
8.37889
 20
238.024
 11
7.79507
 21
238.255
  0
LINE
  8
0
 10
7.79507
 20
238.255
 11
7.1869
 21
238.411
  0
LINE
  8
0
 10
7.1869
 20
238.411
 11
6.56395
 21
238.49
  0
LINE
  8
0
 10
6.56395
 20
238.49
 11
-6.56395
 21
238.49
  0
LINE
  8
0
 10
-6.56395
 20
238.49
 11
-7.1869
 21
238.411
  0
LINE
  8
0
 10
-7.1869
 20
238.411
 11
-7.79507
 21
238.255
  0
LINE
  8
0
 10
-7.79507
 20
238.255
 11
-8.37889
 21
238.024
  0
LINE
  8
0
 10
-8.37889
 20
238.024
 11
-8.92912
 21
237.722
  0
LINE
  8
0
 10
-8.92912
 20
237.722
 11
-9.43712
 21
237.353
  0
LINE
  8
0
 10
-9.43712
 20
237.353
 11
-9.89484
 21
236.923
  0
LINE
  8
0
 10
-9.89484
 20
236.923
 11
-10.2951
 21
236.439
  0
LINE
  8
0
 10
-10.2951
 20
236.439
 11
-10.6315
 21
235.909
  0
LINE
  8
0
 10
-10.6315
 20
235.909
 11
-10.8989
 21
235.341
  0
LINE
  8
0
 10
-10.8989
 20
235.341
 11
-11.0929
 21
234.743
  0
LINE
  8
0
 10
-11.0929
 20
234.743
 11
-11.2106
 21
234.127
  0
LINE
  8
0
 10
-11.2106
 20
234.127
 11
-11.25
 21
233.5
  0
LINE
  8
0
 10
-11.25
 20
233.5
 11
-11.25
 21
198.5
  0
LINE
  8
0
 10
-11.25
 20
198.5
 11
-11.2106
 21
197.873
  0
LINE
  8
0
 10
-11.2106
 20
197.873
 11
-11.0929
 21
197.257
  0
LINE
  8
0
 10
-11.0929
 20
197.257
 11
-10.8989
 21
196.659
  0
LINE
  8
0
 10
-10.8989
 20
196.659
 11
-10.6315
 21
196.091
  0
LINE
  8
0
 10
-10.6315
 20
196.091
 11
-10.2951
 21
195.561
  0
LINE
  8
0
 10
-10.2951
 20
195.561
 11
-9.89484
 21
195.077
  0
LINE
  8
0
 10
-9.89484
 20
195.077
 11
-9.43712
 21
194.647
  0
LINE
  8
0
 10
-9.43712
 20
194.647
 11
-8.92912
 21
194.278
  0
LINE
  8
0
 10
-8.92912
 20
194.278
 11
-8.37889
 21
193.976
  0
LINE
  8
0
 10
-8.37889
 20
193.976
 11
-7.79507
 21
193.745
  0
LINE
  8
0
 10
-7.79507
 20
193.745
 11
-7.1869
 21
193.589
  0
LINE
  8
0
 10
-7.1869
 20
193.589
 11
-6.56395
 21
193.51
  0
LINE
  8
0
 10
-6.56395
 20
193.51
 11
6.56395
 21
193.51
  0
LINE
  8
0
 10
6.56395
 20
193.51
 11
7.1869
 21
193.589
  0
LINE
  8
0
 10
3.59929
 20
228.605
 11
3.30028
 21
228.643
  0
LINE
  8
0
 10
3.30028
 20
228.643
 11
3.00835
 21
228.717
  0
LINE
  8
0
 10
3.00835
 20
228.717
 11
2.72812
 21
228.828
  0
LINE
  8
0
 10
2.72812
 20
228.828
 11
2.464
 21
228.974
  0
LINE
  8
0
 10
2.464
 20
228.974
 11
2.22017
 21
229.151
  0
LINE
  8
0
 10
2.22017
 20
229.151
 11
2.00047
 21
229.357
  0
LINE
  8
0
 10
2.00047
 20
229.357
 11
1.80835
 21
229.589
  0
LINE
  8
0
 10
1.80835
 20
229.589
 11
1.64685
 21
229.844
  0
LINE
  8
0
 10
1.64685
 20
229.844
 11
1.51852
 21
230.117
  0
LINE
  8
0
 10
1.51852
 20
230.117
 11
1.4254
 21
230.403
  0
LINE
  8
0
 10
1.4254
 20
230.403
 11
1.36891
 21
230.699
  0
LINE
  8
0
 10
1.36891
 20
230.699
 11
1.34999
 21
231
  0
LINE
  8
0
 10
1.34999
 20
231
 11
1.36891
 21
231.301
  0
LINE
  8
0
 10
1.36891
 20
231.301
 11
1.4254
 21
231.597
  0
LINE
  8
0
 10
1.4254
 20
231.597
 11
1.51852
 21
231.883
  0
LINE
  8
0
 10
1.51852
 20
231.883
 11
1.64685
 21
232.156
  0
LINE
  8
0
 10
1.64685
 20
232.156
 11
1.80835
 21
232.411
  0
LINE
  8
0
 10
1.80835
 20
232.411
 11
2.00047
 21
232.643
  0
LINE
  8
0
 10
2.00047
 20
232.643
 11
2.22017
 21
232.849
  0
LINE
  8
0
 10
2.22017
 20
232.849
 11
2.464
 21
233.026
  0
LINE
  8
0
 10
2.464
 20
233.026
 11
2.72812
 21
233.172
  0
LINE
  8
0
 10
2.72812
 20
233.172
 11
3.00835
 21
233.283
  0
LINE
  8
0
 10
3.00835
 20
233.283
 11
3.30028
 21
233.357
  0
LINE
  8
0
 10
3.30028
 20
233.357
 11
3.59929
 21
233.395
  0
LINE
  8
0
 10
3.59929
 20
233.395
 11
3.9007
 21
233.395
  0
LINE
  8
0
 10
3.9007
 20
233.395
 11
4.19971
 21
233.357
  0
LINE
  8
0
 10
4.19971
 20
233.357
 11
4.49164
 21
233.283
  0
LINE
  8
0
 10
4.49164
 20
233.283
 11
4.77187
 21
233.172
  0
LINE
  8
0
 10
4.77187
 20
233.172
 11
5.03598
 21
233.026
  0
LINE
  8
0
 10
5.03598
 20
233.026
 11
5.27982
 21
232.849
  0
LINE
  8
0
 10
5.27982
 20
232.849
 11
5.49951
 21
232.643
  0
LINE
  8
0
 10
5.49951
 20
232.643
 11
5.69164
 21
232.411
  0
LINE
  8
0
 10
5.69164
 20
232.411
 11
5.85313
 21
232.156
  0
LINE
  8
0
 10
5.85313
 20
232.156
 11
5.98146
 21
231.883
  0
LINE
  8
0
 10
5.98146
 20
231.883
 11
6.07458
 21
231.597
  0
LINE
  8
0
 10
6.07458
 20
231.597
 11
6.13107
 21
231.301
  0
LINE
  8
0
 10
6.13107
 20
231.301
 11
6.14999
 21
231
  0
LINE
  8
0
 10
6.14999
 20
231
 11
6.13107
 21
230.699
  0
LINE
  8
0
 10
6.13107
 20
230.699
 11
6.07458
 21
230.403
  0
LINE
  8
0
 10
6.07458
 20
230.403
 11
5.98146
 21
230.117
  0
LINE
  8
0
 10
5.98146
 20
230.117
 11
5.85313
 21
229.844
  0
LINE
  8
0
 10
5.85313
 20
229.844
 11
5.69164
 21
229.589
  0
LINE
  8
0
 10
5.69164
 20
229.589
 11
5.49951
 21
229.357
  0
LINE
  8
0
 10
5.49951
 20
229.357
 11
5.27982
 21
229.151
  0
LINE
  8
0
 10
5.27982
 20
229.151
 11
5.03598
 21
228.974
  0
LINE
  8
0
 10
5.03598
 20
228.974
 11
4.77187
 21
228.828
  0
LINE
  8
0
 10
4.77187
 20
228.828
 11
4.49164
 21
228.717
  0
LINE
  8
0
 10
4.49164
 20
228.717
 11
4.19971
 21
228.643
  0
LINE
  8
0
 10
4.19971
 20
228.643
 11
3.9007
 21
228.605
  0
LINE
  8
0
 10
3.9007
 20
228.605
 11
3.59929
 21
228.605
  0
LINE
  8
0
 10
-3.84418
 20
229.503
 11
-4.03107
 21
229.527
  0
LINE
  8
0
 10
-4.03107
 20
229.527
 11
-4.21352
 21
229.573
  0
LINE
  8
0
 10
-4.21352
 20
229.573
 11
-4.38866
 21
229.643
  0
LINE
  8
0
 10
-4.38866
 20
229.643
 11
-4.55373
 21
229.734
  0
LINE
  8
0
 10
-4.55373
 20
229.734
 11
-4.70613
 21
229.844
  0
LINE
  8
0
 10
-4.70613
 20
229.844
 11
-4.84344
 21
229.973
  0
LINE
  8
0
 10
-4.84344
 20
229.973
 11
-4.96352
 21
230.118
  0
LINE
  8
0
 10
-4.96352
 20
230.118
 11
-5.06445
 21
230.277
  0
LINE
  8
0
 10
-5.06445
 20
230.277
 11
-5.14465
 21
230.448
  0
LINE
  8
0
 10
-5.14465
 20
230.448
 11
-5.20287
 21
230.627
  0
LINE
  8
0
 10
-5.20287
 20
230.627
 11
-5.23816
 21
230.812
  0
LINE
  8
0
 10
-5.23816
 20
230.812
 11
-5.25
 21
231
  0
LINE
  8
0
 10
-5.25
 20
231
 11
-5.23816
 21
231.188
  0
LINE
  8
0
 10
-5.23816
 20
231.188
 11
-5.20287
 21
231.373
  0
LINE
  8
0
 10
-5.20287
 20
231.373
 11
-5.14465
 21
231.552
  0
LINE
  8
0
 10
-5.14465
 20
231.552
 11
-5.06445
 21
231.723
  0
LINE
  8
0
 10
-5.06445
 20
231.723
 11
-4.96352
 21
231.882
  0
LINE
  8
0
 10
-4.96352
 20
231.882
 11
-4.84344
 21
232.027
  0
LINE
  8
0
 10
-4.84344
 20
232.027
 11
-4.70613
 21
232.156
  0
LINE
  8
0
 10
-4.70613
 20
232.156
 11
-4.55373
 21
232.266
  0
LINE
  8
0
 10
-4.55373
 20
232.266
 11
-4.38866
 21
232.357
  0
LINE
  8
0
 10
-4.38866
 20
232.357
 11
-4.21352
 21
232.427
  0
LINE
  8
0
 10
-4.21352
 20
232.427
 11
-4.03107
 21
232.473
  0
LINE
  8
0
 10
-4.03107
 20
232.473
 11
-3.84418
 21
232.497
  0
LINE
  8
0
 10
-3.84418
 20
232.497
 11
-3.65581
 21
232.497
  0
LINE
  8
0
 10
-3.65581
 20
232.497
 11
-3.46892
 21
232.473
  0
LINE
  8
0
 10
-3.46892
 20
232.473
 11
-3.28647
 21
232.427
  0
LINE
  8
0
 10
-3.28647
 20
232.427
 11
-3.11133
 21
232.357
  0
LINE
  8
0
 10
-3.11133
 20
232.357
 11
-2.94626
 21
232.266
  0
LINE
  8
0
 10
-2.94626
 20
232.266
 11
-2.79385
 21
232.156
  0
LINE
  8
0
 10
-2.79385
 20
232.156
 11
-2.65654
 21
232.027
  0
LINE
  8
0
 10
-2.65654
 20
232.027
 11
-2.53647
 21
231.882
  0
LINE
  8
0
 10
-2.53647
 20
231.882
 11
-2.43553
 21
231.723
  0
LINE
  8
0
 10
-2.43553
 20
231.723
 11
-2.35533
 21
231.552
  0
LINE
  8
0
 10
-2.35533
 20
231.552
 11
-2.29712
 21
231.373
  0
LINE
  8
0
 10
-2.29712
 20
231.373
 11
-2.26183
 21
231.188
  0
LINE
  8
0
 10
-2.26183
 20
231.188
 11
-2.25
 21
231
  0
LINE
  8
0
 10
-2.25
 20
231
 11
-2.26183
 21
230.812
  0
LINE
  8
0
 10
-2.26183
 20
230.812
 11
-2.29712
 21
230.627
  0
LINE
  8
0
 10
-2.29712
 20
230.627
 11
-2.35533
 21
230.448
  0
LINE
  8
0
 10
-2.35533
 20
230.448
 11
-2.43553
 21
230.277
  0
LINE
  8
0
 10
-2.43553
 20
230.277
 11
-2.53647
 21
230.118
  0
LINE
  8
0
 10
-2.53647
 20
230.118
 11
-2.65654
 21
229.973
  0
LINE
  8
0
 10
-2.65654
 20
229.973
 11
-2.79385
 21
229.844
  0
LINE
  8
0
 10
-2.79385
 20
229.844
 11
-2.94626
 21
229.734
  0
LINE
  8
0
 10
-2.94626
 20
229.734
 11
-3.11133
 21
229.643
  0
LINE
  8
0
 10
-3.11133
 20
229.643
 11
-3.28647
 21
229.573
  0
LINE
  8
0
 10
-3.28647
 20
229.573
 11
-3.46892
 21
229.527
  0
LINE
  8
0
 10
-3.46892
 20
229.527
 11
-3.65581
 21
229.503
  0
LINE
  8
0
 10
-3.65581
 20
229.503
 11
-3.84418
 21
229.503
  0
LINE
  8
0
 10
-3.9007
 20
198.605
 11
-4.19971
 21
198.643
  0
LINE
  8
0
 10
-4.19971
 20
198.643
 11
-4.49164
 21
198.717
  0
LINE
  8
0
 10
-4.49164
 20
198.717
 11
-4.77187
 21
198.828
  0
LINE
  8
0
 10
-4.77187
 20
198.828
 11
-5.03598
 21
198.974
  0
LINE
  8
0
 10
-5.03598
 20
198.974
 11
-5.27982
 21
199.151
  0
LINE
  8
0
 10
-5.27982
 20
199.151
 11
-5.49951
 21
199.357
  0
LINE
  8
0
 10
-5.49951
 20
199.357
 11
-5.69164
 21
199.589
  0
LINE
  8
0
 10
-5.69164
 20
199.589
 11
-5.85313
 21
199.844
  0
LINE
  8
0
 10
-5.85313
 20
199.844
 11
-5.98146
 21
200.117
  0
LINE
  8
0
 10
-5.98146
 20
200.117
 11
-6.07458
 21
200.403
  0
LINE
  8
0
 10
-6.07458
 20
200.403
 11
-6.13107
 21
200.699
  0
LINE
  8
0
 10
-6.13107
 20
200.699
 11
-6.14999
 21
201
  0
LINE
  8
0
 10
-6.14999
 20
201
 11
-6.13107
 21
201.301
  0
LINE
  8
0
 10
-6.13107
 20
201.301
 11
-6.07458
 21
201.597
  0
LINE
  8
0
 10
-6.07458
 20
201.597
 11
-5.98146
 21
201.883
  0
LINE
  8
0
 10
-5.98146
 20
201.883
 11
-5.85313
 21
202.156
  0
LINE
  8
0
 10
-5.85313
 20
202.156
 11
-5.69164
 21
202.411
  0
LINE
  8
0
 10
-5.69164
 20
202.411
 11
-5.49951
 21
202.643
  0
LINE
  8
0
 10
-5.49951
 20
202.643
 11
-5.27982
 21
202.849
  0
LINE
  8
0
 10
-5.27982
 20
202.849
 11
-5.03598
 21
203.026
  0
LINE
  8
0
 10
-5.03598
 20
203.026
 11
-4.77187
 21
203.172
  0
LINE
  8
0
 10
-4.77187
 20
203.172
 11
-4.49164
 21
203.283
  0
LINE
  8
0
 10
-4.49164
 20
203.283
 11
-4.19971
 21
203.357
  0
LINE
  8
0
 10
-4.19971
 20
203.357
 11
-3.9007
 21
203.395
  0
LINE
  8
0
 10
-3.9007
 20
203.395
 11
-3.59929
 21
203.395
  0
LINE
  8
0
 10
-3.59929
 20
203.395
 11
-3.30028
 21
203.357
  0
LINE
  8
0
 10
-3.30028
 20
203.357
 11
-3.00835
 21
203.283
  0
LINE
  8
0
 10
-3.00835
 20
203.283
 11
-2.72812
 21
203.172
  0
LINE
  8
0
 10
-2.72812
 20
203.172
 11
-2.464
 21
203.026
  0
LINE
  8
0
 10
-2.464
 20
203.026
 11
-2.22017
 21
202.849
  0
LINE
  8
0
 10
-2.22017
 20
202.849
 11
-2.00047
 21
202.643
  0
LINE
  8
0
 10
-2.00047
 20
202.643
 11
-1.80835
 21
202.411
  0
LINE
  8
0
 10
-1.80835
 20
202.411
 11
-1.64685
 21
202.156
  0
LINE
  8
0
 10
-1.64685
 20
202.156
 11
-1.51852
 21
201.883
  0
LINE
  8
0
 10
-1.51852
 20
201.883
 11
-1.4254
 21
201.597
  0
LINE
  8
0
 10
-1.4254
 20
201.597
 11
-1.36891
 21
201.301
  0
LINE
  8
0
 10
-1.36891
 20
201.301
 11
-1.34999
 21
201
  0
LINE
  8
0
 10
-1.34999
 20
201
 11
-1.36891
 21
200.699
  0
LINE
  8
0
 10
-1.36891
 20
200.699
 11
-1.4254
 21
200.403
  0
LINE
  8
0
 10
-1.4254
 20
200.403
 11
-1.51852
 21
200.117
  0
LINE
  8
0
 10
-1.51852
 20
200.117
 11
-1.64685
 21
199.844
  0
LINE
  8
0
 10
-1.64685
 20
199.844
 11
-1.80835
 21
199.589
  0
LINE
  8
0
 10
-1.80835
 20
199.589
 11
-2.00047
 21
199.357
  0
LINE
  8
0
 10
-2.00047
 20
199.357
 11
-2.22017
 21
199.151
  0
LINE
  8
0
 10
-2.22017
 20
199.151
 11
-2.464
 21
198.974
  0
LINE
  8
0
 10
-2.464
 20
198.974
 11
-2.72812
 21
198.828
  0
LINE
  8
0
 10
-2.72812
 20
198.828
 11
-3.00835
 21
198.717
  0
LINE
  8
0
 10
-3.00835
 20
198.717
 11
-3.30028
 21
198.643
  0
LINE
  8
0
 10
-3.30028
 20
198.643
 11
-3.59929
 21
198.605
  0
LINE
  8
0
 10
-3.59929
 20
198.605
 11
-3.9007
 21
198.605
  0
LINE
  8
0
 10
3.65581
 20
199.503
 11
3.46892
 21
199.527
  0
LINE
  8
0
 10
3.46892
 20
199.527
 11
3.28647
 21
199.573
  0
LINE
  8
0
 10
3.28647
 20
199.573
 11
3.11133
 21
199.643
  0
LINE
  8
0
 10
3.11133
 20
199.643
 11
2.94626
 21
199.734
  0
LINE
  8
0
 10
2.94626
 20
199.734
 11
2.79385
 21
199.844
  0
LINE
  8
0
 10
2.79385
 20
199.844
 11
2.65654
 21
199.973
  0
LINE
  8
0
 10
2.65654
 20
199.973
 11
2.53647
 21
200.118
  0
LINE
  8
0
 10
2.53647
 20
200.118
 11
2.43553
 21
200.277
  0
LINE
  8
0
 10
2.43553
 20
200.277
 11
2.35533
 21
200.448
  0
LINE
  8
0
 10
2.35533
 20
200.448
 11
2.29712
 21
200.627
  0
LINE
  8
0
 10
2.29712
 20
200.627
 11
2.26183
 21
200.812
  0
LINE
  8
0
 10
2.26183
 20
200.812
 11
2.25
 21
201
  0
LINE
  8
0
 10
2.25
 20
201
 11
2.26183
 21
201.188
  0
LINE
  8
0
 10
2.26183
 20
201.188
 11
2.29712
 21
201.373
  0
LINE
  8
0
 10
2.29712
 20
201.373
 11
2.35533
 21
201.552
  0
LINE
  8
0
 10
2.35533
 20
201.552
 11
2.43553
 21
201.723
  0
LINE
  8
0
 10
2.43553
 20
201.723
 11
2.53647
 21
201.882
  0
LINE
  8
0
 10
2.53647
 20
201.882
 11
2.65654
 21
202.027
  0
LINE
  8
0
 10
2.65654
 20
202.027
 11
2.79385
 21
202.156
  0
LINE
  8
0
 10
2.79385
 20
202.156
 11
2.94626
 21
202.266
  0
LINE
  8
0
 10
2.94626
 20
202.266
 11
3.11133
 21
202.357
  0
LINE
  8
0
 10
3.11133
 20
202.357
 11
3.28647
 21
202.427
  0
LINE
  8
0
 10
3.28647
 20
202.427
 11
3.46892
 21
202.473
  0
LINE
  8
0
 10
3.46892
 20
202.473
 11
3.65581
 21
202.497
  0
LINE
  8
0
 10
3.65581
 20
202.497
 11
3.84418
 21
202.497
  0
LINE
  8
0
 10
3.84418
 20
202.497
 11
4.03107
 21
202.473
  0
LINE
  8
0
 10
4.03107
 20
202.473
 11
4.21352
 21
202.427
  0
LINE
  8
0
 10
4.21352
 20
202.427
 11
4.38866
 21
202.357
  0
LINE
  8
0
 10
4.38866
 20
202.357
 11
4.55373
 21
202.266
  0
LINE
  8
0
 10
4.55373
 20
202.266
 11
4.70613
 21
202.156
  0
LINE
  8
0
 10
4.70613
 20
202.156
 11
4.84344
 21
202.027
  0
LINE
  8
0
 10
4.84344
 20
202.027
 11
4.96352
 21
201.882
  0
LINE
  8
0
 10
4.96352
 20
201.882
 11
5.06445
 21
201.723
  0
LINE
  8
0
 10
5.06445
 20
201.723
 11
5.14465
 21
201.552
  0
LINE
  8
0
 10
5.14465
 20
201.552
 11
5.20287
 21
201.373
  0
LINE
  8
0
 10
5.20287
 20
201.373
 11
5.23816
 21
201.188
  0
LINE
  8
0
 10
5.23816
 20
201.188
 11
5.25
 21
201
  0
LINE
  8
0
 10
5.25
 20
201
 11
5.23816
 21
200.812
  0
LINE
  8
0
 10
5.23816
 20
200.812
 11
5.20287
 21
200.627
  0
LINE
  8
0
 10
5.20287
 20
200.627
 11
5.14465
 21
200.448
  0
LINE
  8
0
 10
5.14465
 20
200.448
 11
5.06445
 21
200.277
  0
LINE
  8
0
 10
5.06445
 20
200.277
 11
4.96352
 21
200.118
  0
LINE
  8
0
 10
4.96352
 20
200.118
 11
4.84344
 21
199.973
  0
LINE
  8
0
 10
4.84344
 20
199.973
 11
4.70613
 21
199.844
  0
LINE
  8
0
 10
4.70613
 20
199.844
 11
4.55373
 21
199.734
  0
LINE
  8
0
 10
4.55373
 20
199.734
 11
4.38866
 21
199.643
  0
LINE
  8
0
 10
4.38866
 20
199.643
 11
4.21352
 21
199.573
  0
LINE
  8
0
 10
4.21352
 20
199.573
 11
4.03107
 21
199.527
  0
LINE
  8
0
 10
4.03107
 20
199.527
 11
3.84418
 21
199.503
  0
LINE
  8
0
 10
3.84418
 20
199.503
 11
3.65581
 21
199.503
  0
ENDSEC
  0
SECTION
  2
OBJECTS
  0
DICTIONARY
  0
ENDSEC
  0
EOF
