  0
SECTION
  2
BLOCKS
  0
ENDSEC
  0
SECTION
  2
ENTITIES
  0
LINE
  8
0
 10
-17.25
 20
182.507
 11
-16.8948
 21
182.077
  0
LINE
  8
0
 10
-16.8948
 20
182.077
 11
-16.4371
 21
181.647
  0
LINE
  8
0
 10
-16.4371
 20
181.647
 11
-15.9291
 21
181.278
  0
LINE
  8
0
 10
-15.9291
 20
181.278
 11
-15.3789
 21
180.976
  0
LINE
  8
0
 10
-15.3789
 20
180.976
 11
-14.7951
 21
180.745
  0
LINE
  8
0
 10
-14.7951
 20
180.745
 11
-14.1869
 21
180.589
  0
LINE
  8
0
 10
-14.1869
 20
180.589
 11
-13.5639
 21
180.51
  0
LINE
  8
0
 10
-13.5639
 20
180.51
 11
13.5639
 21
180.51
  0
LINE
  8
0
 10
13.5639
 20
180.51
 11
14.1869
 21
180.589
  0
LINE
  8
0
 10
14.1869
 20
180.589
 11
14.7951
 21
180.745
  0
LINE
  8
0
 10
14.7951
 20
180.745
 11
15.3789
 21
180.976
  0
LINE
  8
0
 10
15.3789
 20
180.976
 11
15.9291
 21
181.278
  0
LINE
  8
0
 10
15.9291
 20
181.278
 11
16.4371
 21
181.647
  0
LINE
  8
0
 10
16.4371
 20
181.647
 11
16.8948
 21
182.077
  0
LINE
  8
0
 10
16.8948
 20
182.077
 11
17.2951
 21
182.561
  0
LINE
  8
0
 10
17.2951
 20
182.561
 11
17.6315
 21
183.091
  0
LINE
  8
0
 10
17.6315
 20
183.091
 11
17.8989
 21
183.659
  0
LINE
  8
0
 10
17.8989
 20
183.659
 11
18.0929
 21
184.257
  0
LINE
  8
0
 10
18.0929
 20
184.257
 11
18.2106
 21
184.873
  0
LINE
  8
0
 10
18.2106
 20
184.873
 11
18.25
 21
185.5
  0
LINE
  8
0
 10
18.25
 20
185.5
 11
18.25
 21
204.5
  0
LINE
  8
0
 10
18.25
 20
204.5
 11
18.2106
 21
205.127
  0
LINE
  8
0
 10
18.2106
 20
205.127
 11
18.0929
 21
205.743
  0
LINE
  8
0
 10
18.0929
 20
205.743
 11
17.8989
 21
206.341
  0
LINE
  8
0
 10
17.8989
 20
206.341
 11
17.6315
 21
206.909
  0
LINE
  8
0
 10
17.6315
 20
206.909
 11
17.2951
 21
207.439
  0
LINE
  8
0
 10
17.2951
 20
207.439
 11
16.8948
 21
207.923
  0
LINE
  8
0
 10
16.8948
 20
207.923
 11
16.4371
 21
208.353
  0
LINE
  8
0
 10
16.4371
 20
208.353
 11
15.9291
 21
208.722
  0
LINE
  8
0
 10
15.9291
 20
208.722
 11
15.3789
 21
209.024
  0
LINE
  8
0
 10
15.3789
 20
209.024
 11
14.7951
 21
209.255
  0
LINE
  8
0
 10
14.7951
 20
209.255
 11
14.1869
 21
209.411
  0
LINE
  8
0
 10
14.1869
 20
209.411
 11
13.5639
 21
209.49
  0
LINE
  8
0
 10
13.5639
 20
209.49
 11
-13.5639
 21
209.49
  0
LINE
  8
0
 10
-13.5639
 20
209.49
 11
-14.1869
 21
209.411
  0
LINE
  8
0
 10
-14.1869
 20
209.411
 11
-14.7951
 21
209.255
  0
LINE
  8
0
 10
-14.7951
 20
209.255
 11
-15.3789
 21
209.024
  0
LINE
  8
0
 10
-15.3789
 20
209.024
 11
-15.9291
 21
208.722
  0
LINE
  8
0
 10
-15.9291
 20
208.722
 11
-16.4371
 21
208.353
  0
LINE
  8
0
 10
-16.4371
 20
208.353
 11
-16.8948
 21
207.923
  0
LINE
  8
0
 10
-16.8948
 20
207.923
 11
-17.25
 21
207.493
  0
LINE
  8
0
 10
-17.25
 20
207.493
 11
-17.25
 21
209.99
  0
LINE
  8
0
 10
-17.25
 20
209.99
 11
-20.25
 21
209.99
  0
LINE
  8
0
 10
-20.25
 20
209.99
 11
-20.25
 21
180.01
  0
LINE
  8
0
 10
-20.25
 20
180.01
 11
-17.25
 21
180.01
  0
LINE
  8
0
 10
-17.25
 20
180.01
 11
-17.25
 21
182.507
  0
LINE
  8
0
 10
-13.5012
 20
181.508
 11
-13.9995
 21
181.571
  0
LINE
  8
0
 10
-13.9995
 20
181.571
 11
-14.4861
 21
181.696
  0
LINE
  8
0
 10
-14.4861
 20
181.696
 11
-14.9531
 21
181.881
  0
LINE
  8
0
 10
-14.9531
 20
181.881
 11
-15.3933
 21
182.123
  0
LINE
  8
0
 10
-15.3933
 20
182.123
 11
-15.7997
 21
182.418
  0
LINE
  8
0
 10
-15.7997
 20
182.418
 11
-16.1659
 21
182.762
  0
LINE
  8
0
 10
-16.1659
 20
182.762
 11
-16.4861
 21
183.149
  0
LINE
  8
0
 10
-16.4861
 20
183.149
 11
-16.7552
 21
183.573
  0
LINE
  8
0
 10
-16.7552
 20
183.573
 11
-16.9691
 21
184.028
  0
LINE
  8
0
 10
-16.9691
 20
184.028
 11
-17.1243
 21
184.505
  0
LINE
  8
0
 10
-17.1243
 20
184.505
 11
-17.2184
 21
184.999
  0
LINE
  8
0
 10
-17.2184
 20
184.999
 11
-17.25
 21
185.5
  0
LINE
  8
0
 10
-17.25
 20
185.5
 11
-17.25
 21
204.5
  0
LINE
  8
0
 10
-17.25
 20
204.5
 11
-17.2184
 21
205.001
  0
LINE
  8
0
 10
-17.2184
 20
205.001
 11
-17.1243
 21
205.495
  0
LINE
  8
0
 10
-17.1243
 20
205.495
 11
-16.9691
 21
205.972
  0
LINE
  8
0
 10
-16.9691
 20
205.972
 11
-16.7552
 21
206.427
  0
LINE
  8
0
 10
-16.7552
 20
206.427
 11
-16.4861
 21
206.851
  0
LINE
  8
0
 10
-16.4861
 20
206.851
 11
-16.1659
 21
207.238
  0
LINE
  8
0
 10
-16.1659
 20
207.238
 11
-15.7997
 21
207.582
  0
LINE
  8
0
 10
-15.7997
 20
207.582
 11
-15.3933
 21
207.877
  0
LINE
  8
0
 10
-15.3933
 20
207.877
 11
-14.9531
 21
208.119
  0
LINE
  8
0
 10
-14.9531
 20
208.119
 11
-14.4861
 21
208.304
  0
LINE
  8
0
 10
-14.4861
 20
208.304
 11
-13.9995
 21
208.429
  0
LINE
  8
0
 10
-13.9995
 20
208.429
 11
-13.5012
 21
208.492
  0
LINE
  8
0
 10
-13.5012
 20
208.492
 11
13.5012
 21
208.492
  0
LINE
  8
0
 10
13.5012
 20
208.492
 11
13.9995
 21
208.429
  0
LINE
  8
0
 10
13.9995
 20
208.429
 11
14.4861
 21
208.304
  0
LINE
  8
0
 10
14.4861
 20
208.304
 11
14.9531
 21
208.119
  0
LINE
  8
0
 10
14.9531
 20
208.119
 11
15.3933
 21
207.877
  0
LINE
  8
0
 10
15.3933
 20
207.877
 11
15.7997
 21
207.582
  0
LINE
  8
0
 10
15.7997
 20
207.582
 11
16.1659
 21
207.238
  0
LINE
  8
0
 10
16.1659
 20
207.238
 11
16.4861
 21
206.851
  0
LINE
  8
0
 10
16.4861
 20
206.851
 11
16.7552
 21
206.427
  0
LINE
  8
0
 10
16.7552
 20
206.427
 11
16.9691
 21
205.972
  0
LINE
  8
0
 10
16.9691
 20
205.972
 11
17.1243
 21
205.495
  0
LINE
  8
0
 10
17.1243
 20
205.495
 11
17.2184
 21
205.001
  0
LINE
  8
0
 10
17.2184
 20
205.001
 11
17.25
 21
204.5
  0
LINE
  8
0
 10
17.25
 20
204.5
 11
17.25
 21
185.5
  0
LINE
  8
0
 10
17.25
 20
185.5
 11
17.2184
 21
184.999
  0
LINE
  8
0
 10
17.2184
 20
184.999
 11
17.1243
 21
184.505
  0
LINE
  8
0
 10
17.1243
 20
184.505
 11
16.9691
 21
184.028
  0
LINE
  8
0
 10
16.9691
 20
184.028
 11
16.7552
 21
183.573
  0
LINE
  8
0
 10
16.7552
 20
183.573
 11
16.4861
 21
183.149
  0
LINE
  8
0
 10
16.4861
 20
183.149
 11
16.1659
 21
182.762
  0
LINE
  8
0
 10
16.1659
 20
182.762
 11
15.7997
 21
182.418
  0
LINE
  8
0
 10
15.7997
 20
182.418
 11
15.3933
 21
182.123
  0
LINE
  8
0
 10
15.3933
 20
182.123
 11
14.9531
 21
181.881
  0
LINE
  8
0
 10
14.9531
 20
181.881
 11
14.4861
 21
181.696
  0
LINE
  8
0
 10
14.4861
 20
181.696
 11
13.9995
 21
181.571
  0
LINE
  8
0
 10
13.9995
 20
181.571
 11
13.5012
 21
181.508
  0
LINE
  8
0
 10
13.5012
 20
181.508
 11
-13.5012
 21
181.508
  0
LINE
  8
0
 10
-17.25
 20
143.507
 11
-16.8948
 21
143.077
  0
LINE
  8
0
 10
-16.8948
 20
143.077
 11
-16.4371
 21
142.647
  0
LINE
  8
0
 10
-16.4371
 20
142.647
 11
-15.9291
 21
142.278
  0
LINE
  8
0
 10
-15.9291
 20
142.278
 11
-15.3789
 21
141.976
  0
LINE
  8
0
 10
-15.3789
 20
141.976
 11
-14.7951
 21
141.745
  0
LINE
  8
0
 10
-14.7951
 20
141.745
 11
-14.1869
 21
141.589
  0
LINE
  8
0
 10
-14.1869
 20
141.589
 11
-13.5639
 21
141.51
  0
LINE
  8
0
 10
-13.5639
 20
141.51
 11
13.5639
 21
141.51
  0
LINE
  8
0
 10
13.5639
 20
141.51
 11
14.1869
 21
141.589
  0
LINE
  8
0
 10
14.1869
 20
141.589
 11
14.7951
 21
141.745
  0
LINE
  8
0
 10
14.7951
 20
141.745
 11
15.3789
 21
141.976
  0
LINE
  8
0
 10
15.3789
 20
141.976
 11
15.9291
 21
142.278
  0
LINE
  8
0
 10
15.9291
 20
142.278
 11
16.4371
 21
142.647
  0
LINE
  8
0
 10
16.4371
 20
142.647
 11
16.8948
 21
143.077
  0
LINE
  8
0
 10
16.8948
 20
143.077
 11
17.2951
 21
143.561
  0
LINE
  8
0
 10
17.2951
 20
143.561
 11
17.6315
 21
144.091
  0
LINE
  8
0
 10
17.6315
 20
144.091
 11
17.8989
 21
144.659
  0
LINE
  8
0
 10
17.8989
 20
144.659
 11
18.0929
 21
145.257
  0
LINE
  8
0
 10
18.0929
 20
145.257
 11
18.2106
 21
145.873
  0
LINE
  8
0
 10
18.2106
 20
145.873
 11
18.25
 21
146.5
  0
LINE
  8
0
 10
18.25
 20
146.5
 11
18.25
 21
165.5
  0
LINE
  8
0
 10
18.25
 20
165.5
 11
18.2106
 21
166.127
  0
LINE
  8
0
 10
18.2106
 20
166.127
 11
18.0929
 21
166.743
  0
LINE
  8
0
 10
18.0929
 20
166.743
 11
17.8989
 21
167.341
  0
LINE
  8
0
 10
17.8989
 20
167.341
 11
17.6315
 21
167.909
  0
LINE
  8
0
 10
17.6315
 20
167.909
 11
17.2951
 21
168.439
  0
LINE
  8
0
 10
17.2951
 20
168.439
 11
16.8948
 21
168.923
  0
LINE
  8
0
 10
16.8948
 20
168.923
 11
16.4371
 21
169.353
  0
LINE
  8
0
 10
16.4371
 20
169.353
 11
15.9291
 21
169.722
  0
LINE
  8
0
 10
15.9291
 20
169.722
 11
15.3789
 21
170.024
  0
LINE
  8
0
 10
15.3789
 20
170.024
 11
14.7951
 21
170.255
  0
LINE
  8
0
 10
14.7951
 20
170.255
 11
14.1869
 21
170.411
  0
LINE
  8
0
 10
14.1869
 20
170.411
 11
13.5639
 21
170.49
  0
LINE
  8
0
 10
13.5639
 20
170.49
 11
-13.5639
 21
170.49
  0
LINE
  8
0
 10
-13.5639
 20
170.49
 11
-14.1869
 21
170.411
  0
LINE
  8
0
 10
-14.1869
 20
170.411
 11
-14.7951
 21
170.255
  0
LINE
  8
0
 10
-14.7951
 20
170.255
 11
-15.3789
 21
170.024
  0
LINE
  8
0
 10
-15.3789
 20
170.024
 11
-15.9291
 21
169.722
  0
LINE
  8
0
 10
-15.9291
 20
169.722
 11
-16.4371
 21
169.353
  0
LINE
  8
0
 10
-16.4371
 20
169.353
 11
-16.8948
 21
168.923
  0
LINE
  8
0
 10
-16.8948
 20
168.923
 11
-17.25
 21
168.493
  0
LINE
  8
0
 10
-17.25
 20
168.493
 11
-17.25
 21
170.979
  0
LINE
  8
0
 10
-17.25
 20
170.979
 11
-20.25
 21
170.979
  0
LINE
  8
0
 10
-20.25
 20
170.979
 11
-20.25
 21
141.021
  0
LINE
  8
0
 10
-20.25
 20
141.021
 11
-17.25
 21
141.021
  0
LINE
  8
0
 10
-17.25
 20
141.021
 11
-17.25
 21
143.507
  0
LINE
  8
0
 10
-13.4454
 20
143.393
 11
-13.8333
 21
143.442
  0
LINE
  8
0
 10
-13.8333
 20
143.442
 11
-14.2119
 21
143.539
  0
LINE
  8
0
 10
-14.2119
 20
143.539
 11
-14.5754
 21
143.683
  0
LINE
  8
0
 10
-14.5754
 20
143.683
 11
-14.918
 21
143.872
  0
LINE
  8
0
 10
-14.918
 20
143.872
 11
-15.2342
 21
144.101
  0
LINE
  8
0
 10
-15.2342
 20
144.101
 11
-15.5192
 21
144.369
  0
LINE
  8
0
 10
-15.5192
 20
144.369
 11
-15.7684
 21
144.67
  0
LINE
  8
0
 10
-15.7684
 20
144.67
 11
-15.9779
 21
145
  0
LINE
  8
0
 10
-15.9779
 20
145
 11
-16.1443
 21
145.354
  0
LINE
  8
0
 10
-16.1443
 20
145.354
 11
-16.2651
 21
145.726
  0
LINE
  8
0
 10
-16.2651
 20
145.726
 11
-16.3384
 21
146.11
  0
LINE
  8
0
 10
-16.3384
 20
146.11
 11
-16.3629
 21
146.5
  0
LINE
  8
0
 10
-16.3629
 20
146.5
 11
-16.3629
 21
165.5
  0
LINE
  8
0
 10
-16.3629
 20
165.5
 11
-16.3384
 21
165.89
  0
LINE
  8
0
 10
-16.3384
 20
165.89
 11
-16.2651
 21
166.274
  0
LINE
  8
0
 10
-16.2651
 20
166.274
 11
-16.1443
 21
166.646
  0
LINE
  8
0
 10
-16.1443
 20
166.646
 11
-15.9779
 21
167
  0
LINE
  8
0
 10
-15.9779
 20
167
 11
-15.7684
 21
167.33
  0
LINE
  8
0
 10
-15.7684
 20
167.33
 11
-15.5192
 21
167.631
  0
LINE
  8
0
 10
-15.5192
 20
167.631
 11
-15.2342
 21
167.899
  0
LINE
  8
0
 10
-15.2342
 20
167.899
 11
-14.918
 21
168.128
  0
LINE
  8
0
 10
-14.918
 20
168.128
 11
-14.5754
 21
168.317
  0
LINE
  8
0
 10
-14.5754
 20
168.317
 11
-14.2119
 21
168.461
  0
LINE
  8
0
 10
-14.2119
 20
168.461
 11
-13.8333
 21
168.558
  0
LINE
  8
0
 10
-13.8333
 20
168.558
 11
-13.4454
 21
168.607
  0
LINE
  8
0
 10
-13.4454
 20
168.607
 11
13.4454
 21
168.607
  0
LINE
  8
0
 10
13.4454
 20
168.607
 11
13.8333
 21
168.558
  0
LINE
  8
0
 10
13.8333
 20
168.558
 11
14.2119
 21
168.461
  0
LINE
  8
0
 10
14.2119
 20
168.461
 11
14.5754
 21
168.317
  0
LINE
  8
0
 10
14.5754
 20
168.317
 11
14.918
 21
168.128
  0
LINE
  8
0
 10
14.918
 20
168.128
 11
15.2342
 21
167.899
  0
LINE
  8
0
 10
15.2342
 20
167.899
 11
15.5192
 21
167.631
  0
LINE
  8
0
 10
15.5192
 20
167.631
 11
15.7684
 21
167.33
  0
LINE
  8
0
 10
15.7684
 20
167.33
 11
15.9779
 21
167
  0
LINE
  8
0
 10
15.9779
 20
167
 11
16.1443
 21
166.646
  0
LINE
  8
0
 10
16.1443
 20
166.646
 11
16.2651
 21
166.274
  0
LINE
  8
0
 10
16.2651
 20
166.274
 11
16.3384
 21
165.89
  0
LINE
  8
0
 10
16.3384
 20
165.89
 11
16.3629
 21
165.5
  0
LINE
  8
0
 10
16.3629
 20
165.5
 11
16.3629
 21
146.5
  0
LINE
  8
0
 10
16.3629
 20
146.5
 11
16.3384
 21
146.11
  0
LINE
  8
0
 10
16.3384
 20
146.11
 11
16.2651
 21
145.726
  0
LINE
  8
0
 10
16.2651
 20
145.726
 11
16.1443
 21
145.354
  0
LINE
  8
0
 10
16.1443
 20
145.354
 11
15.9779
 21
145
  0
LINE
  8
0
 10
15.9779
 20
145
 11
15.7684
 21
144.67
  0
LINE
  8
0
 10
15.7684
 20
144.67
 11
15.5192
 21
144.369
  0
LINE
  8
0
 10
15.5192
 20
144.369
 11
15.2342
 21
144.101
  0
LINE
  8
0
 10
15.2342
 20
144.101
 11
14.918
 21
143.872
  0
LINE
  8
0
 10
14.918
 20
143.872
 11
14.5754
 21
143.683
  0
LINE
  8
0
 10
14.5754
 20
143.683
 11
14.2119
 21
143.539
  0
LINE
  8
0
 10
14.2119
 20
143.539
 11
13.8333
 21
143.442
  0
LINE
  8
0
 10
13.8333
 20
143.442
 11
13.4454
 21
143.393
  0
LINE
  8
0
 10
13.4454
 20
143.393
 11
-13.4454
 21
143.393
  0
LINE
  8
0
 10
14.1869
 20
102.589
 11
14.7951
 21
102.745
  0
LINE
  8
0
 10
14.7951
 20
102.745
 11
15.3789
 21
102.976
  0
LINE
  8
0
 10
15.3789
 20
102.976
 11
15.9291
 21
103.278
  0
LINE
  8
0
 10
15.9291
 20
103.278
 11
16.4371
 21
103.647
  0
LINE
  8
0
 10
16.4371
 20
103.647
 11
16.8948
 21
104.077
  0
LINE
  8
0
 10
16.8948
 20
104.077
 11
17.2951
 21
104.561
  0
LINE
  8
0
 10
17.2951
 20
104.561
 11
17.6315
 21
105.091
  0
LINE
  8
0
 10
17.6315
 20
105.091
 11
17.8989
 21
105.659
  0
LINE
  8
0
 10
17.8989
 20
105.659
 11
18.0929
 21
106.257
  0
LINE
  8
0
 10
18.0929
 20
106.257
 11
18.2106
 21
106.873
  0
LINE
  8
0
 10
18.2106
 20
106.873
 11
18.25
 21
107.5
  0
LINE
  8
0
 10
18.25
 20
107.5
 11
18.25
 21
126.5
  0
LINE
  8
0
 10
18.25
 20
126.5
 11
18.2106
 21
127.127
  0
LINE
  8
0
 10
18.2106
 20
127.127
 11
18.0929
 21
127.743
  0
LINE
  8
0
 10
18.0929
 20
127.743
 11
17.8989
 21
128.341
  0
LINE
  8
0
 10
17.8989
 20
128.341
 11
17.6315
 21
128.909
  0
LINE
  8
0
 10
17.6315
 20
128.909
 11
17.2951
 21
129.439
  0
LINE
  8
0
 10
17.2951
 20
129.439
 11
16.8948
 21
129.923
  0
LINE
  8
0
 10
16.8948
 20
129.923
 11
16.4371
 21
130.353
  0
LINE
  8
0
 10
16.4371
 20
130.353
 11
15.9291
 21
130.722
  0
LINE
  8
0
 10
15.9291
 20
130.722
 11
15.3789
 21
131.024
  0
LINE
  8
0
 10
15.3789
 20
131.024
 11
14.7951
 21
131.255
  0
LINE
  8
0
 10
14.7951
 20
131.255
 11
14.1869
 21
131.411
  0
LINE
  8
0
 10
14.1869
 20
131.411
 11
13.5639
 21
131.49
  0
LINE
  8
0
 10
13.5639
 20
131.49
 11
-13.5639
 21
131.49
  0
LINE
  8
0
 10
-13.5639
 20
131.49
 11
-14.1869
 21
131.411
  0
LINE
  8
0
 10
-14.1869
 20
131.411
 11
-14.7951
 21
131.255
  0
LINE
  8
0
 10
-14.7951
 20
131.255
 11
-15.3789
 21
131.024
  0
LINE
  8
0
 10
-15.3789
 20
131.024
 11
-15.9291
 21
130.722
  0
LINE
  8
0
 10
-15.9291
 20
130.722
 11
-16.4371
 21
130.353
  0
LINE
  8
0
 10
-16.4371
 20
130.353
 11
-16.8948
 21
129.923
  0
LINE
  8
0
 10
-16.8948
 20
129.923
 11
-17.25
 21
129.493
  0
LINE
  8
0
 10
-17.25
 20
129.493
 11
-17.25
 21
130.653
  0
LINE
  8
0
 10
-17.25
 20
130.653
 11
-20.25
 21
130.653
  0
LINE
  8
0
 10
-20.25
 20
130.653
 11
-20.25
 21
103.347
  0
LINE
  8
0
 10
-20.25
 20
103.347
 11
-17.25
 21
103.347
  0
LINE
  8
0
 10
-17.25
 20
103.347
 11
-17.25
 21
104.507
  0
LINE
  8
0
 10
-17.25
 20
104.507
 11
-16.8948
 21
104.077
  0
LINE
  8
0
 10
-16.8948
 20
104.077
 11
-16.4371
 21
103.647
  0
LINE
  8
0
 10
-16.4371
 20
103.647
 11
-15.9291
 21
103.278
  0
LINE
  8
0
 10
-15.9291
 20
103.278
 11
-15.3789
 21
102.976
  0
LINE
  8
0
 10
-15.3789
 20
102.976
 11
-14.7951
 21
102.745
  0
LINE
  8
0
 10
-14.7951
 20
102.745
 11
-14.1869
 21
102.589
  0
LINE
  8
0
 10
-14.1869
 20
102.589
 11
-13.5639
 21
102.51
  0
LINE
  8
0
 10
-13.5639
 20
102.51
 11
13.5639
 21
102.51
  0
LINE
  8
0
 10
13.5639
 20
102.51
 11
14.1869
 21
102.589
  0
LINE
  8
0
 10
11.0993
 20
122.105
 11
10.8003
 21
122.143
  0
LINE
  8
0
 10
10.8003
 20
122.143
 11
10.5083
 21
122.217
  0
LINE
  8
0
 10
10.5083
 20
122.217
 11
10.2281
 21
122.328
  0
LINE
  8
0
 10
10.2281
 20
122.328
 11
9.964
 21
122.474
  0
LINE
  8
0
 10
9.964
 20
122.474
 11
9.72017
 21
122.651
  0
LINE
  8
0
 10
9.72017
 20
122.651
 11
9.50047
 21
122.857
  0
LINE
  8
0
 10
9.50047
 20
122.857
 11
9.30835
 21
123.089
  0
LINE
  8
0
 10
9.30835
 20
123.089
 11
9.14685
 21
123.344
  0
LINE
  8
0
 10
9.14685
 20
123.344
 11
9.01852
 21
123.617
  0
LINE
  8
0
 10
9.01852
 20
123.617
 11
8.9254
 21
123.903
  0
LINE
  8
0
 10
8.9254
 20
123.903
 11
8.86891
 21
124.199
  0
LINE
  8
0
 10
8.86891
 20
124.199
 11
8.84999
 21
124.5
  0
LINE
  8
0
 10
8.84999
 20
124.5
 11
8.86891
 21
124.801
  0
LINE
  8
0
 10
8.86891
 20
124.801
 11
8.9254
 21
125.097
  0
LINE
  8
0
 10
8.9254
 20
125.097
 11
9.01852
 21
125.383
  0
LINE
  8
0
 10
9.01852
 20
125.383
 11
9.14685
 21
125.656
  0
LINE
  8
0
 10
9.14685
 20
125.656
 11
9.30835
 21
125.911
  0
LINE
  8
0
 10
9.30835
 20
125.911
 11
9.50047
 21
126.143
  0
LINE
  8
0
 10
9.50047
 20
126.143
 11
9.72017
 21
126.349
  0
LINE
  8
0
 10
9.72017
 20
126.349
 11
9.964
 21
126.526
  0
LINE
  8
0
 10
9.964
 20
126.526
 11
10.2281
 21
126.672
  0
LINE
  8
0
 10
10.2281
 20
126.672
 11
10.5083
 21
126.783
  0
LINE
  8
0
 10
10.5083
 20
126.783
 11
10.8003
 21
126.857
  0
LINE
  8
0
 10
10.8003
 20
126.857
 11
11.0993
 21
126.895
  0
LINE
  8
0
 10
11.0993
 20
126.895
 11
11.4007
 21
126.895
  0
LINE
  8
0
 10
11.4007
 20
126.895
 11
11.6997
 21
126.857
  0
LINE
  8
0
 10
11.6997
 20
126.857
 11
11.9916
 21
126.783
  0
LINE
  8
0
 10
11.9916
 20
126.783
 11
12.2719
 21
126.672
  0
LINE
  8
0
 10
12.2719
 20
126.672
 11
12.536
 21
126.526
  0
LINE
  8
0
 10
12.536
 20
126.526
 11
12.7798
 21
126.349
  0
LINE
  8
0
 10
12.7798
 20
126.349
 11
12.9995
 21
126.143
  0
LINE
  8
0
 10
12.9995
 20
126.143
 11
13.1916
 21
125.911
  0
LINE
  8
0
 10
13.1916
 20
125.911
 11
13.3531
 21
125.656
  0
LINE
  8
0
 10
13.3531
 20
125.656
 11
13.4815
 21
125.383
  0
LINE
  8
0
 10
13.4815
 20
125.383
 11
13.5746
 21
125.097
  0
LINE
  8
0
 10
13.5746
 20
125.097
 11
13.6311
 21
124.801
  0
LINE
  8
0
 10
13.6311
 20
124.801
 11
13.65
 21
124.5
  0
LINE
  8
0
 10
13.65
 20
124.5
 11
13.6311
 21
124.199
  0
LINE
  8
0
 10
13.6311
 20
124.199
 11
13.5746
 21
123.903
  0
LINE
  8
0
 10
13.5746
 20
123.903
 11
13.4815
 21
123.617
  0
LINE
  8
0
 10
13.4815
 20
123.617
 11
13.3531
 21
123.344
  0
LINE
  8
0
 10
13.3531
 20
123.344
 11
13.1916
 21
123.089
  0
LINE
  8
0
 10
13.1916
 20
123.089
 11
12.9995
 21
122.857
  0
LINE
  8
0
 10
12.9995
 20
122.857
 11
12.7798
 21
122.651
  0
LINE
  8
0
 10
12.7798
 20
122.651
 11
12.536
 21
122.474
  0
LINE
  8
0
 10
12.536
 20
122.474
 11
12.2719
 21
122.328
  0
LINE
  8
0
 10
12.2719
 20
122.328
 11
11.9916
 21
122.217
  0
LINE
  8
0
 10
11.9916
 20
122.217
 11
11.6997
 21
122.143
  0
LINE
  8
0
 10
11.6997
 20
122.143
 11
11.4007
 21
122.105
  0
LINE
  8
0
 10
11.4007
 20
122.105
 11
11.0993
 21
122.105
  0
LINE
  8
0
 10
-11.4007
 20
122.105
 11
-11.6997
 21
122.143
  0
LINE
  8
0
 10
-11.6997
 20
122.143
 11
-11.9916
 21
122.217
  0
LINE
  8
0
 10
-11.9916
 20
122.217
 11
-12.2719
 21
122.328
  0
LINE
  8
0
 10
-12.2719
 20
122.328
 11
-12.536
 21
122.474
  0
LINE
  8
0
 10
-12.536
 20
122.474
 11
-12.7798
 21
122.651
  0
LINE
  8
0
 10
-12.7798
 20
122.651
 11
-12.9995
 21
122.857
  0
LINE
  8
0
 10
-12.9995
 20
122.857
 11
-13.1916
 21
123.089
  0
LINE
  8
0
 10
-13.1916
 20
123.089
 11
-13.3531
 21
123.344
  0
LINE
  8
0
 10
-13.3531
 20
123.344
 11
-13.4815
 21
123.617
  0
LINE
  8
0
 10
-13.4815
 20
123.617
 11
-13.5746
 21
123.903
  0
LINE
  8
0
 10
-13.5746
 20
123.903
 11
-13.6311
 21
124.199
  0
LINE
  8
0
 10
-13.6311
 20
124.199
 11
-13.65
 21
124.5
  0
LINE
  8
0
 10
-13.65
 20
124.5
 11
-13.6311
 21
124.801
  0
LINE
  8
0
 10
-13.6311
 20
124.801
 11
-13.5746
 21
125.097
  0
LINE
  8
0
 10
-13.5746
 20
125.097
 11
-13.4815
 21
125.383
  0
LINE
  8
0
 10
-13.4815
 20
125.383
 11
-13.3531
 21
125.656
  0
LINE
  8
0
 10
-13.3531
 20
125.656
 11
-13.1916
 21
125.911
  0
LINE
  8
0
 10
-13.1916
 20
125.911
 11
-12.9995
 21
126.143
  0
LINE
  8
0
 10
-12.9995
 20
126.143
 11
-12.7798
 21
126.349
  0
LINE
  8
0
 10
-12.7798
 20
126.349
 11
-12.536
 21
126.526
  0
LINE
  8
0
 10
-12.536
 20
126.526
 11
-12.2719
 21
126.672
  0
LINE
  8
0
 10
-12.2719
 20
126.672
 11
-11.9916
 21
126.783
  0
LINE
  8
0
 10
-11.9916
 20
126.783
 11
-11.6997
 21
126.857
  0
LINE
  8
0
 10
-11.6997
 20
126.857
 11
-11.4007
 21
126.895
  0
LINE
  8
0
 10
-11.4007
 20
126.895
 11
-11.0993
 21
126.895
  0
LINE
  8
0
 10
-11.0993
 20
126.895
 11
-10.8003
 21
126.857
  0
LINE
  8
0
 10
-10.8003
 20
126.857
 11
-10.5083
 21
126.783
  0
LINE
  8
0
 10
-10.5083
 20
126.783
 11
-10.2281
 21
126.672
  0
LINE
  8
0
 10
-10.2281
 20
126.672
 11
-9.964
 21
126.526
  0
LINE
  8
0
 10
-9.964
 20
126.526
 11
-9.72017
 21
126.349
  0
LINE
  8
0
 10
-9.72017
 20
126.349
 11
-9.50047
 21
126.143
  0
LINE
  8
0
 10
-9.50047
 20
126.143
 11
-9.30835
 21
125.911
  0
LINE
  8
0
 10
-9.30835
 20
125.911
 11
-9.14685
 21
125.656
  0
LINE
  8
0
 10
-9.14685
 20
125.656
 11
-9.01852
 21
125.383
  0
LINE
  8
0
 10
-9.01852
 20
125.383
 11
-8.9254
 21
125.097
  0
LINE
  8
0
 10
-8.9254
 20
125.097
 11
-8.86891
 21
124.801
  0
LINE
  8
0
 10
-8.86891
 20
124.801
 11
-8.84999
 21
124.5
  0
LINE
  8
0
 10
-8.84999
 20
124.5
 11
-8.86891
 21
124.199
  0
LINE
  8
0
 10
-8.86891
 20
124.199
 11
-8.9254
 21
123.903
  0
LINE
  8
0
 10
-8.9254
 20
123.903
 11
-9.01852
 21
123.617
  0
LINE
  8
0
 10
-9.01852
 20
123.617
 11
-9.14685
 21
123.344
  0
LINE
  8
0
 10
-9.14685
 20
123.344
 11
-9.30835
 21
123.089
  0
LINE
  8
0
 10
-9.30835
 20
123.089
 11
-9.50047
 21
122.857
  0
LINE
  8
0
 10
-9.50047
 20
122.857
 11
-9.72017
 21
122.651
  0
LINE
  8
0
 10
-9.72017
 20
122.651
 11
-9.964
 21
122.474
  0
LINE
  8
0
 10
-9.964
 20
122.474
 11
-10.2281
 21
122.328
  0
LINE
  8
0
 10
-10.2281
 20
122.328
 11
-10.5083
 21
122.217
  0
LINE
  8
0
 10
-10.5083
 20
122.217
 11
-10.8003
 21
122.143
  0
LINE
  8
0
 10
-10.8003
 20
122.143
 11
-11.0993
 21
122.105
  0
LINE
  8
0
 10
-11.0993
 20
122.105
 11
-11.4007
 21
122.105
  0
LINE
  8
0
 10
11.0993
 20
107.105
 11
10.8003
 21
107.143
  0
LINE
  8
0
 10
10.8003
 20
107.143
 11
10.5083
 21
107.217
  0
LINE
  8
0
 10
10.5083
 20
107.217
 11
10.2281
 21
107.328
  0
LINE
  8
0
 10
10.2281
 20
107.328
 11
9.964
 21
107.474
  0
LINE
  8
0
 10
9.964
 20
107.474
 11
9.72017
 21
107.651
  0
LINE
  8
0
 10
9.72017
 20
107.651
 11
9.50047
 21
107.857
  0
LINE
  8
0
 10
9.50047
 20
107.857
 11
9.30835
 21
108.089
  0
LINE
  8
0
 10
9.30835
 20
108.089
 11
9.14685
 21
108.344
  0
LINE
  8
0
 10
9.14685
 20
108.344
 11
9.01852
 21
108.617
  0
LINE
  8
0
 10
9.01852
 20
108.617
 11
8.9254
 21
108.903
  0
LINE
  8
0
 10
8.9254
 20
108.903
 11
8.86891
 21
109.199
  0
LINE
  8
0
 10
8.86891
 20
109.199
 11
8.84999
 21
109.5
  0
LINE
  8
0
 10
8.84999
 20
109.5
 11
8.86891
 21
109.801
  0
LINE
  8
0
 10
8.86891
 20
109.801
 11
8.9254
 21
110.097
  0
LINE
  8
0
 10
8.9254
 20
110.097
 11
9.01852
 21
110.383
  0
LINE
  8
0
 10
9.01852
 20
110.383
 11
9.14685
 21
110.656
  0
LINE
  8
0
 10
9.14685
 20
110.656
 11
9.30835
 21
110.911
  0
LINE
  8
0
 10
9.30835
 20
110.911
 11
9.50047
 21
111.143
  0
LINE
  8
0
 10
9.50047
 20
111.143
 11
9.72017
 21
111.349
  0
LINE
  8
0
 10
9.72017
 20
111.349
 11
9.964
 21
111.526
  0
LINE
  8
0
 10
9.964
 20
111.526
 11
10.2281
 21
111.672
  0
LINE
  8
0
 10
10.2281
 20
111.672
 11
10.5083
 21
111.783
  0
LINE
  8
0
 10
10.5083
 20
111.783
 11
10.8003
 21
111.857
  0
LINE
  8
0
 10
10.8003
 20
111.857
 11
11.0993
 21
111.895
  0
LINE
  8
0
 10
11.0993
 20
111.895
 11
11.4007
 21
111.895
  0
LINE
  8
0
 10
11.4007
 20
111.895
 11
11.6997
 21
111.857
  0
LINE
  8
0
 10
11.6997
 20
111.857
 11
11.9916
 21
111.783
  0
LINE
  8
0
 10
11.9916
 20
111.783
 11
12.2719
 21
111.672
  0
LINE
  8
0
 10
12.2719
 20
111.672
 11
12.536
 21
111.526
  0
LINE
  8
0
 10
12.536
 20
111.526
 11
12.7798
 21
111.349
  0
LINE
  8
0
 10
12.7798
 20
111.349
 11
12.9995
 21
111.143
  0
LINE
  8
0
 10
12.9995
 20
111.143
 11
13.1916
 21
110.911
  0
LINE
  8
0
 10
13.1916
 20
110.911
 11
13.3531
 21
110.656
  0
LINE
  8
0
 10
13.3531
 20
110.656
 11
13.4815
 21
110.383
  0
LINE
  8
0
 10
13.4815
 20
110.383
 11
13.5746
 21
110.097
  0
LINE
  8
0
 10
13.5746
 20
110.097
 11
13.6311
 21
109.801
  0
LINE
  8
0
 10
13.6311
 20
109.801
 11
13.65
 21
109.5
  0
LINE
  8
0
 10
13.65
 20
109.5
 11
13.6311
 21
109.199
  0
LINE
  8
0
 10
13.6311
 20
109.199
 11
13.5746
 21
108.903
  0
LINE
  8
0
 10
13.5746
 20
108.903
 11
13.4815
 21
108.617
  0
LINE
  8
0
 10
13.4815
 20
108.617
 11
13.3531
 21
108.344
  0
LINE
  8
0
 10
13.3531
 20
108.344
 11
13.1916
 21
108.089
  0
LINE
  8
0
 10
13.1916
 20
108.089
 11
12.9995
 21
107.857
  0
LINE
  8
0
 10
12.9995
 20
107.857
 11
12.7798
 21
107.651
  0
LINE
  8
0
 10
12.7798
 20
107.651
 11
12.536
 21
107.474
  0
LINE
  8
0
 10
12.536
 20
107.474
 11
12.2719
 21
107.328
  0
LINE
  8
0
 10
12.2719
 20
107.328
 11
11.9916
 21
107.217
  0
LINE
  8
0
 10
11.9916
 20
107.217
 11
11.6997
 21
107.143
  0
LINE
  8
0
 10
11.6997
 20
107.143
 11
11.4007
 21
107.105
  0
LINE
  8
0
 10
11.4007
 20
107.105
 11
11.0993
 21
107.105
  0
LINE
  8
0
 10
-11.4007
 20
107.105
 11
-11.6997
 21
107.143
  0
LINE
  8
0
 10
-11.6997
 20
107.143
 11
-11.9916
 21
107.217
  0
LINE
  8
0
 10
-11.9916
 20
107.217
 11
-12.2719
 21
107.328
  0
LINE
  8
0
 10
-12.2719
 20
107.328
 11
-12.536
 21
107.474
  0
LINE
  8
0
 10
-12.536
 20
107.474
 11
-12.7798
 21
107.651
  0
LINE
  8
0
 10
-12.7798
 20
107.651
 11
-12.9995
 21
107.857
  0
LINE
  8
0
 10
-12.9995
 20
107.857
 11
-13.1916
 21
108.089
  0
LINE
  8
0
 10
-13.1916
 20
108.089
 11
-13.3531
 21
108.344
  0
LINE
  8
0
 10
-13.3531
 20
108.344
 11
-13.4815
 21
108.617
  0
LINE
  8
0
 10
-13.4815
 20
108.617
 11
-13.5746
 21
108.903
  0
LINE
  8
0
 10
-13.5746
 20
108.903
 11
-13.6311
 21
109.199
  0
LINE
  8
0
 10
-13.6311
 20
109.199
 11
-13.65
 21
109.5
  0
LINE
  8
0
 10
-13.65
 20
109.5
 11
-13.6311
 21
109.801
  0
LINE
  8
0
 10
-13.6311
 20
109.801
 11
-13.5746
 21
110.097
  0
LINE
  8
0
 10
-13.5746
 20
110.097
 11
-13.4815
 21
110.383
  0
LINE
  8
0
 10
-13.4815
 20
110.383
 11
-13.3531
 21
110.656
  0
LINE
  8
0
 10
-13.3531
 20
110.656
 11
-13.1916
 21
110.911
  0
LINE
  8
0
 10
-13.1916
 20
110.911
 11
-12.9995
 21
111.143
  0
LINE
  8
0
 10
-12.9995
 20
111.143
 11
-12.7798
 21
111.349
  0
LINE
  8
0
 10
-12.7798
 20
111.349
 11
-12.536
 21
111.526
  0
LINE
  8
0
 10
-12.536
 20
111.526
 11
-12.2719
 21
111.672
  0
LINE
  8
0
 10
-12.2719
 20
111.672
 11
-11.9916
 21
111.783
  0
LINE
  8
0
 10
-11.9916
 20
111.783
 11
-11.6997
 21
111.857
  0
LINE
  8
0
 10
-11.6997
 20
111.857
 11
-11.4007
 21
111.895
  0
LINE
  8
0
 10
-11.4007
 20
111.895
 11
-11.0993
 21
111.895
  0
LINE
  8
0
 10
-11.0993
 20
111.895
 11
-10.8003
 21
111.857
  0
LINE
  8
0
 10
-10.8003
 20
111.857
 11
-10.5083
 21
111.783
  0
LINE
  8
0
 10
-10.5083
 20
111.783
 11
-10.2281
 21
111.672
  0
LINE
  8
0
 10
-10.2281
 20
111.672
 11
-9.964
 21
111.526
  0
LINE
  8
0
 10
-9.964
 20
111.526
 11
-9.72017
 21
111.349
  0
LINE
  8
0
 10
-9.72017
 20
111.349
 11
-9.50047
 21
111.143
  0
LINE
  8
0
 10
-9.50047
 20
111.143
 11
-9.30835
 21
110.911
  0
LINE
  8
0
 10
-9.30835
 20
110.911
 11
-9.14685
 21
110.656
  0
LINE
  8
0
 10
-9.14685
 20
110.656
 11
-9.01852
 21
110.383
  0
LINE
  8
0
 10
-9.01852
 20
110.383
 11
-8.9254
 21
110.097
  0
LINE
  8
0
 10
-8.9254
 20
110.097
 11
-8.86891
 21
109.801
  0
LINE
  8
0
 10
-8.86891
 20
109.801
 11
-8.84999
 21
109.5
  0
LINE
  8
0
 10
-8.84999
 20
109.5
 11
-8.86891
 21
109.199
  0
LINE
  8
0
 10
-8.86891
 20
109.199
 11
-8.9254
 21
108.903
  0
LINE
  8
0
 10
-8.9254
 20
108.903
 11
-9.01852
 21
108.617
  0
LINE
  8
0
 10
-9.01852
 20
108.617
 11
-9.14685
 21
108.344
  0
LINE
  8
0
 10
-9.14685
 20
108.344
 11
-9.30835
 21
108.089
  0
LINE
  8
0
 10
-9.30835
 20
108.089
 11
-9.50047
 21
107.857
  0
LINE
  8
0
 10
-9.50047
 20
107.857
 11
-9.72017
 21
107.651
  0
LINE
  8
0
 10
-9.72017
 20
107.651
 11
-9.964
 21
107.474
  0
LINE
  8
0
 10
-9.964
 20
107.474
 11
-10.2281
 21
107.328
  0
LINE
  8
0
 10
-10.2281
 20
107.328
 11
-10.5083
 21
107.217
  0
LINE
  8
0
 10
-10.5083
 20
107.217
 11
-10.8003
 21
107.143
  0
LINE
  8
0
 10
-10.8003
 20
107.143
 11
-11.0993
 21
107.105
  0
LINE
  8
0
 10
-11.0993
 20
107.105
 11
-11.4007
 21
107.105
  0
ENDSEC
  0
SECTION
  2
OBJECTS
  0
DICTIONARY
  0
ENDSEC
  0
EOF
