  0
SECTION
  2
BLOCKS
  0
ENDSEC
  0
SECTION
  2
ENTITIES
  0
LINE
  8
0
 10
17.9369
 20
302.089
 11
18.5451
 21
302.245
  0
LINE
  8
0
 10
18.5451
 20
302.245
 11
19.1289
 21
302.476
  0
LINE
  8
0
 10
19.1289
 20
302.476
 11
19.6791
 21
302.778
  0
LINE
  8
0
 10
19.6791
 20
302.778
 11
20.1871
 21
303.147
  0
LINE
  8
0
 10
20.1871
 20
303.147
 11
20.6448
 21
303.577
  0
LINE
  8
0
 10
20.6448
 20
303.577
 11
21.0451
 21
304.061
  0
LINE
  8
0
 10
21.0451
 20
304.061
 11
21.3815
 21
304.591
  0
LINE
  8
0
 10
21.3815
 20
304.591
 11
21.6489
 21
305.159
  0
LINE
  8
0
 10
21.6489
 20
305.159
 11
21.8429
 21
305.757
  0
LINE
  8
0
 10
21.8429
 20
305.757
 11
21.9606
 21
306.373
  0
LINE
  8
0
 10
21.9606
 20
306.373
 11
22
 21
307
  0
LINE
  8
0
 10
22
 20
307
 11
22
 21
341
  0
LINE
  8
0
 10
22
 20
341
 11
21.9606
 21
341.627
  0
LINE
  8
0
 10
21.9606
 20
341.627
 11
21.8429
 21
342.243
  0
LINE
  8
0
 10
21.8429
 20
342.243
 11
21.6489
 21
342.841
  0
LINE
  8
0
 10
21.6489
 20
342.841
 11
21.3815
 21
343.409
  0
LINE
  8
0
 10
21.3815
 20
343.409
 11
21.0451
 21
343.939
  0
LINE
  8
0
 10
21.0451
 20
343.939
 11
20.6448
 21
344.423
  0
LINE
  8
0
 10
20.6448
 20
344.423
 11
20.1871
 21
344.853
  0
LINE
  8
0
 10
20.1871
 20
344.853
 11
19.6791
 21
345.222
  0
LINE
  8
0
 10
19.6791
 20
345.222
 11
19.1289
 21
345.524
  0
LINE
  8
0
 10
19.1289
 20
345.524
 11
18.5451
 21
345.755
  0
LINE
  8
0
 10
18.5451
 20
345.755
 11
17.9369
 21
345.911
  0
LINE
  8
0
 10
17.9369
 20
345.911
 11
17.3139
 21
345.99
  0
LINE
  8
0
 10
17.3139
 20
345.99
 11
-17.3139
 21
345.99
  0
LINE
  8
0
 10
-17.3139
 20
345.99
 11
-17.9369
 21
345.911
  0
LINE
  8
0
 10
-17.9369
 20
345.911
 11
-18.5451
 21
345.755
  0
LINE
  8
0
 10
-18.5451
 20
345.755
 11
-19.1289
 21
345.524
  0
LINE
  8
0
 10
-19.1289
 20
345.524
 11
-19.6791
 21
345.222
  0
LINE
  8
0
 10
-19.6791
 20
345.222
 11
-20.1871
 21
344.853
  0
LINE
  8
0
 10
-20.1871
 20
344.853
 11
-20.6448
 21
344.423
  0
LINE
  8
0
 10
-20.6448
 20
344.423
 11
-21.0451
 21
343.939
  0
LINE
  8
0
 10
-21.0451
 20
343.939
 11
-21.3815
 21
343.409
  0
LINE
  8
0
 10
-21.3815
 20
343.409
 11
-21.6489
 21
342.841
  0
LINE
  8
0
 10
-21.6489
 20
342.841
 11
-21.8429
 21
342.243
  0
LINE
  8
0
 10
-21.8429
 20
342.243
 11
-21.9606
 21
341.627
  0
LINE
  8
0
 10
-21.9606
 20
341.627
 11
-22
 21
341
  0
LINE
  8
0
 10
-22
 20
341
 11
-22
 21
307
  0
LINE
  8
0
 10
-22
 20
307
 11
-21.9606
 21
306.373
  0
LINE
  8
0
 10
-21.9606
 20
306.373
 11
-21.8429
 21
305.757
  0
LINE
  8
0
 10
-21.8429
 20
305.757
 11
-21.6489
 21
305.159
  0
LINE
  8
0
 10
-21.6489
 20
305.159
 11
-21.3815
 21
304.591
  0
LINE
  8
0
 10
-21.3815
 20
304.591
 11
-21.0451
 21
304.061
  0
LINE
  8
0
 10
-21.0451
 20
304.061
 11
-20.6448
 21
303.577
  0
LINE
  8
0
 10
-20.6448
 20
303.577
 11
-20.1871
 21
303.147
  0
LINE
  8
0
 10
-20.1871
 20
303.147
 11
-19.6791
 21
302.778
  0
LINE
  8
0
 10
-19.6791
 20
302.778
 11
-19.1289
 21
302.476
  0
LINE
  8
0
 10
-19.1289
 20
302.476
 11
-18.5451
 21
302.245
  0
LINE
  8
0
 10
-18.5451
 20
302.245
 11
-17.9369
 21
302.089
  0
LINE
  8
0
 10
-17.9369
 20
302.089
 11
-17.3139
 21
302.01
  0
LINE
  8
0
 10
-17.3139
 20
302.01
 11
17.3139
 21
302.01
  0
LINE
  8
0
 10
17.3139
 20
302.01
 11
17.9369
 21
302.089
  0
LINE
  8
0
 10
14.8116
 20
336.006
 11
14.4379
 21
336.053
  0
LINE
  8
0
 10
14.4379
 20
336.053
 11
14.0729
 21
336.147
  0
LINE
  8
0
 10
14.0729
 20
336.147
 11
13.7227
 21
336.286
  0
LINE
  8
0
 10
13.7227
 20
336.286
 11
13.3925
 21
336.467
  0
LINE
  8
0
 10
13.3925
 20
336.467
 11
13.0877
 21
336.688
  0
LINE
  8
0
 10
13.0877
 20
336.688
 11
12.8131
 21
336.946
  0
LINE
  8
0
 10
12.8131
 20
336.946
 11
12.5729
 21
337.237
  0
LINE
  8
0
 10
12.5729
 20
337.237
 11
12.3711
 21
337.555
  0
LINE
  8
0
 10
12.3711
 20
337.555
 11
12.2107
 21
337.896
  0
LINE
  8
0
 10
12.2107
 20
337.896
 11
12.0942
 21
338.254
  0
LINE
  8
0
 10
12.0942
 20
338.254
 11
12.0237
 21
338.624
  0
LINE
  8
0
 10
12.0237
 20
338.624
 11
12
 21
339
  0
LINE
  8
0
 10
12
 20
339
 11
12.0237
 21
339.376
  0
LINE
  8
0
 10
12.0237
 20
339.376
 11
12.0942
 21
339.746
  0
LINE
  8
0
 10
12.0942
 20
339.746
 11
12.2107
 21
340.104
  0
LINE
  8
0
 10
12.2107
 20
340.104
 11
12.3711
 21
340.445
  0
LINE
  8
0
 10
12.3711
 20
340.445
 11
12.5729
 21
340.763
  0
LINE
  8
0
 10
12.5729
 20
340.763
 11
12.8131
 21
341.054
  0
LINE
  8
0
 10
12.8131
 20
341.054
 11
13.0877
 21
341.312
  0
LINE
  8
0
 10
13.0877
 20
341.312
 11
13.3925
 21
341.533
  0
LINE
  8
0
 10
13.3925
 20
341.533
 11
13.7227
 21
341.714
  0
LINE
  8
0
 10
13.7227
 20
341.714
 11
14.0729
 21
341.853
  0
LINE
  8
0
 10
14.0729
 20
341.853
 11
14.4379
 21
341.947
  0
LINE
  8
0
 10
14.4379
 20
341.947
 11
14.8116
 21
341.994
  0
LINE
  8
0
 10
14.8116
 20
341.994
 11
15.1884
 21
341.994
  0
LINE
  8
0
 10
15.1884
 20
341.994
 11
15.5621
 21
341.947
  0
LINE
  8
0
 10
15.5621
 20
341.947
 11
15.927
 21
341.853
  0
LINE
  8
0
 10
15.927
 20
341.853
 11
16.2773
 21
341.714
  0
LINE
  8
0
 10
16.2773
 20
341.714
 11
16.6075
 21
341.533
  0
LINE
  8
0
 10
16.6075
 20
341.533
 11
16.9123
 21
341.312
  0
LINE
  8
0
 10
16.9123
 20
341.312
 11
17.1869
 21
341.054
  0
LINE
  8
0
 10
17.1869
 20
341.054
 11
17.427
 21
340.763
  0
LINE
  8
0
 10
17.427
 20
340.763
 11
17.6289
 21
340.445
  0
LINE
  8
0
 10
17.6289
 20
340.445
 11
17.7893
 21
340.104
  0
LINE
  8
0
 10
17.7893
 20
340.104
 11
17.9057
 21
339.746
  0
LINE
  8
0
 10
17.9057
 20
339.746
 11
17.9763
 21
339.376
  0
LINE
  8
0
 10
17.9763
 20
339.376
 11
18
 21
339
  0
LINE
  8
0
 10
18
 20
339
 11
17.9763
 21
338.624
  0
LINE
  8
0
 10
17.9763
 20
338.624
 11
17.9057
 21
338.254
  0
LINE
  8
0
 10
17.9057
 20
338.254
 11
17.7893
 21
337.896
  0
LINE
  8
0
 10
17.7893
 20
337.896
 11
17.6289
 21
337.555
  0
LINE
  8
0
 10
17.6289
 20
337.555
 11
17.427
 21
337.237
  0
LINE
  8
0
 10
17.427
 20
337.237
 11
17.1869
 21
336.946
  0
LINE
  8
0
 10
17.1869
 20
336.946
 11
16.9123
 21
336.688
  0
LINE
  8
0
 10
16.9123
 20
336.688
 11
16.6075
 21
336.467
  0
LINE
  8
0
 10
16.6075
 20
336.467
 11
16.2773
 21
336.286
  0
LINE
  8
0
 10
16.2773
 20
336.286
 11
15.927
 21
336.147
  0
LINE
  8
0
 10
15.927
 20
336.147
 11
15.5621
 21
336.053
  0
LINE
  8
0
 10
15.5621
 20
336.053
 11
15.1884
 21
336.006
  0
LINE
  8
0
 10
15.1884
 20
336.006
 11
14.8116
 21
336.006
  0
LINE
  8
0
 10
-15.1884
 20
336.006
 11
-15.5621
 21
336.053
  0
LINE
  8
0
 10
-15.5621
 20
336.053
 11
-15.927
 21
336.147
  0
LINE
  8
0
 10
-15.927
 20
336.147
 11
-16.2773
 21
336.286
  0
LINE
  8
0
 10
-16.2773
 20
336.286
 11
-16.6075
 21
336.467
  0
LINE
  8
0
 10
-16.6075
 20
336.467
 11
-16.9123
 21
336.688
  0
LINE
  8
0
 10
-16.9123
 20
336.688
 11
-17.1869
 21
336.946
  0
LINE
  8
0
 10
-17.1869
 20
336.946
 11
-17.427
 21
337.237
  0
LINE
  8
0
 10
-17.427
 20
337.237
 11
-17.6289
 21
337.555
  0
LINE
  8
0
 10
-17.6289
 20
337.555
 11
-17.7893
 21
337.896
  0
LINE
  8
0
 10
-17.7893
 20
337.896
 11
-17.9057
 21
338.254
  0
LINE
  8
0
 10
-17.9057
 20
338.254
 11
-17.9763
 21
338.624
  0
LINE
  8
0
 10
-17.9763
 20
338.624
 11
-18
 21
339
  0
LINE
  8
0
 10
-18
 20
339
 11
-17.9763
 21
339.376
  0
LINE
  8
0
 10
-17.9763
 20
339.376
 11
-17.9057
 21
339.746
  0
LINE
  8
0
 10
-17.9057
 20
339.746
 11
-17.7893
 21
340.104
  0
LINE
  8
0
 10
-17.7893
 20
340.104
 11
-17.6289
 21
340.445
  0
LINE
  8
0
 10
-17.6289
 20
340.445
 11
-17.427
 21
340.763
  0
LINE
  8
0
 10
-17.427
 20
340.763
 11
-17.1869
 21
341.054
  0
LINE
  8
0
 10
-17.1869
 20
341.054
 11
-16.9123
 21
341.312
  0
LINE
  8
0
 10
-16.9123
 20
341.312
 11
-16.6075
 21
341.533
  0
LINE
  8
0
 10
-16.6075
 20
341.533
 11
-16.2773
 21
341.714
  0
LINE
  8
0
 10
-16.2773
 20
341.714
 11
-15.927
 21
341.853
  0
LINE
  8
0
 10
-15.927
 20
341.853
 11
-15.5621
 21
341.947
  0
LINE
  8
0
 10
-15.5621
 20
341.947
 11
-15.1884
 21
341.994
  0
LINE
  8
0
 10
-15.1884
 20
341.994
 11
-14.8116
 21
341.994
  0
LINE
  8
0
 10
-14.8116
 20
341.994
 11
-14.4379
 21
341.947
  0
LINE
  8
0
 10
-14.4379
 20
341.947
 11
-14.0729
 21
341.853
  0
LINE
  8
0
 10
-14.0729
 20
341.853
 11
-13.7227
 21
341.714
  0
LINE
  8
0
 10
-13.7227
 20
341.714
 11
-13.3925
 21
341.533
  0
LINE
  8
0
 10
-13.3925
 20
341.533
 11
-13.0877
 21
341.312
  0
LINE
  8
0
 10
-13.0877
 20
341.312
 11
-12.8131
 21
341.054
  0
LINE
  8
0
 10
-12.8131
 20
341.054
 11
-12.5729
 21
340.763
  0
LINE
  8
0
 10
-12.5729
 20
340.763
 11
-12.3711
 21
340.445
  0
LINE
  8
0
 10
-12.3711
 20
340.445
 11
-12.2107
 21
340.104
  0
LINE
  8
0
 10
-12.2107
 20
340.104
 11
-12.0942
 21
339.746
  0
LINE
  8
0
 10
-12.0942
 20
339.746
 11
-12.0237
 21
339.376
  0
LINE
  8
0
 10
-12.0237
 20
339.376
 11
-12
 21
339
  0
LINE
  8
0
 10
-12
 20
339
 11
-12.0237
 21
338.624
  0
LINE
  8
0
 10
-12.0237
 20
338.624
 11
-12.0942
 21
338.254
  0
LINE
  8
0
 10
-12.0942
 20
338.254
 11
-12.2107
 21
337.896
  0
LINE
  8
0
 10
-12.2107
 20
337.896
 11
-12.3711
 21
337.555
  0
LINE
  8
0
 10
-12.3711
 20
337.555
 11
-12.5729
 21
337.237
  0
LINE
  8
0
 10
-12.5729
 20
337.237
 11
-12.8131
 21
336.946
  0
LINE
  8
0
 10
-12.8131
 20
336.946
 11
-13.0877
 21
336.688
  0
LINE
  8
0
 10
-13.0877
 20
336.688
 11
-13.3925
 21
336.467
  0
LINE
  8
0
 10
-13.3925
 20
336.467
 11
-13.7227
 21
336.286
  0
LINE
  8
0
 10
-13.7227
 20
336.286
 11
-14.0729
 21
336.147
  0
LINE
  8
0
 10
-14.0729
 20
336.147
 11
-14.4379
 21
336.053
  0
LINE
  8
0
 10
-14.4379
 20
336.053
 11
-14.8116
 21
336.006
  0
LINE
  8
0
 10
-14.8116
 20
336.006
 11
-15.1884
 21
336.006
  0
LINE
  8
0
 10
-0.18837
 20
336.006
 11
-0.562134
 21
336.053
  0
LINE
  8
0
 10
-0.562134
 20
336.053
 11
-0.927048
 21
336.147
  0
LINE
  8
0
 10
-0.927048
 20
336.147
 11
-1.27733
 21
336.286
  0
LINE
  8
0
 10
-1.27733
 20
336.286
 11
-1.60747
 21
336.467
  0
LINE
  8
0
 10
-1.60747
 20
336.467
 11
-1.91226
 21
336.688
  0
LINE
  8
0
 10
-1.91226
 20
336.688
 11
-2.1869
 21
336.946
  0
LINE
  8
0
 10
-2.1869
 20
336.946
 11
-2.42705
 21
337.237
  0
LINE
  8
0
 10
-2.42705
 20
337.237
 11
-2.62891
 21
337.555
  0
LINE
  8
0
 10
-2.62891
 20
337.555
 11
-2.78932
 21
337.896
  0
LINE
  8
0
 10
-2.78932
 20
337.896
 11
-2.90575
 21
338.254
  0
LINE
  8
0
 10
-2.90575
 20
338.254
 11
-2.97633
 21
338.624
  0
LINE
  8
0
 10
-2.97633
 20
338.624
 11
-3
 21
339
  0
LINE
  8
0
 10
-3
 20
339
 11
-2.97633
 21
339.376
  0
LINE
  8
0
 10
-2.97633
 20
339.376
 11
-2.90575
 21
339.746
  0
LINE
  8
0
 10
-2.90575
 20
339.746
 11
-2.78932
 21
340.104
  0
LINE
  8
0
 10
-2.78932
 20
340.104
 11
-2.62891
 21
340.445
  0
LINE
  8
0
 10
-2.62891
 20
340.445
 11
-2.42705
 21
340.763
  0
LINE
  8
0
 10
-2.42705
 20
340.763
 11
-2.1869
 21
341.054
  0
LINE
  8
0
 10
-2.1869
 20
341.054
 11
-1.91226
 21
341.312
  0
LINE
  8
0
 10
-1.91226
 20
341.312
 11
-1.60747
 21
341.533
  0
LINE
  8
0
 10
-1.60747
 20
341.533
 11
-1.27733
 21
341.714
  0
LINE
  8
0
 10
-1.27733
 20
341.714
 11
-0.927048
 21
341.853
  0
LINE
  8
0
 10
-0.927048
 20
341.853
 11
-0.562134
 21
341.947
  0
LINE
  8
0
 10
-0.562134
 20
341.947
 11
-0.18837
 21
341.994
  0
LINE
  8
0
 10
-0.18837
 20
341.994
 11
0.18837
 21
341.994
  0
LINE
  8
0
 10
0.18837
 20
341.994
 11
0.562134
 21
341.947
  0
LINE
  8
0
 10
0.562134
 20
341.947
 11
0.927048
 21
341.853
  0
LINE
  8
0
 10
0.927048
 20
341.853
 11
1.27733
 21
341.714
  0
LINE
  8
0
 10
1.27733
 20
341.714
 11
1.60747
 21
341.533
  0
LINE
  8
0
 10
1.60747
 20
341.533
 11
1.91226
 21
341.312
  0
LINE
  8
0
 10
1.91226
 20
341.312
 11
2.1869
 21
341.054
  0
LINE
  8
0
 10
2.1869
 20
341.054
 11
2.42705
 21
340.763
  0
LINE
  8
0
 10
2.42705
 20
340.763
 11
2.62891
 21
340.445
  0
LINE
  8
0
 10
2.62891
 20
340.445
 11
2.78932
 21
340.104
  0
LINE
  8
0
 10
2.78932
 20
340.104
 11
2.90575
 21
339.746
  0
LINE
  8
0
 10
2.90575
 20
339.746
 11
2.97633
 21
339.376
  0
LINE
  8
0
 10
2.97633
 20
339.376
 11
3
 21
339
  0
LINE
  8
0
 10
3
 20
339
 11
2.97633
 21
338.624
  0
LINE
  8
0
 10
2.97633
 20
338.624
 11
2.90575
 21
338.254
  0
LINE
  8
0
 10
2.90575
 20
338.254
 11
2.78932
 21
337.896
  0
LINE
  8
0
 10
2.78932
 20
337.896
 11
2.62891
 21
337.555
  0
LINE
  8
0
 10
2.62891
 20
337.555
 11
2.42705
 21
337.237
  0
LINE
  8
0
 10
2.42705
 20
337.237
 11
2.1869
 21
336.946
  0
LINE
  8
0
 10
2.1869
 20
336.946
 11
1.91226
 21
336.688
  0
LINE
  8
0
 10
1.91226
 20
336.688
 11
1.60747
 21
336.467
  0
LINE
  8
0
 10
1.60747
 20
336.467
 11
1.27733
 21
336.286
  0
LINE
  8
0
 10
1.27733
 20
336.286
 11
0.927048
 21
336.147
  0
LINE
  8
0
 10
0.927048
 20
336.147
 11
0.562134
 21
336.053
  0
LINE
  8
0
 10
0.562134
 20
336.053
 11
0.18837
 21
336.006
  0
LINE
  8
0
 10
0.18837
 20
336.006
 11
-0.18837
 21
336.006
  0
LINE
  8
0
 10
-7.59418
 20
337.503
 11
-7.78107
 21
337.527
  0
LINE
  8
0
 10
-7.78107
 20
337.527
 11
-7.96352
 21
337.573
  0
LINE
  8
0
 10
-7.96352
 20
337.573
 11
-8.13866
 21
337.643
  0
LINE
  8
0
 10
-8.13866
 20
337.643
 11
-8.30373
 21
337.734
  0
LINE
  8
0
 10
-8.30373
 20
337.734
 11
-8.45613
 21
337.844
  0
LINE
  8
0
 10
-8.45613
 20
337.844
 11
-8.59344
 21
337.973
  0
LINE
  8
0
 10
-8.59344
 20
337.973
 11
-8.71352
 21
338.118
  0
LINE
  8
0
 10
-8.71352
 20
338.118
 11
-8.81445
 21
338.277
  0
LINE
  8
0
 10
-8.81445
 20
338.277
 11
-8.89465
 21
338.448
  0
LINE
  8
0
 10
-8.89465
 20
338.448
 11
-8.95287
 21
338.627
  0
LINE
  8
0
 10
-8.95287
 20
338.627
 11
-8.98816
 21
338.812
  0
LINE
  8
0
 10
-8.98816
 20
338.812
 11
-9
 21
339
  0
LINE
  8
0
 10
-9
 20
339
 11
-8.98816
 21
339.188
  0
LINE
  8
0
 10
-8.98816
 20
339.188
 11
-8.95287
 21
339.373
  0
LINE
  8
0
 10
-8.95287
 20
339.373
 11
-8.89465
 21
339.552
  0
LINE
  8
0
 10
-8.89465
 20
339.552
 11
-8.81445
 21
339.723
  0
LINE
  8
0
 10
-8.81445
 20
339.723
 11
-8.71352
 21
339.882
  0
LINE
  8
0
 10
-8.71352
 20
339.882
 11
-8.59344
 21
340.027
  0
LINE
  8
0
 10
-8.59344
 20
340.027
 11
-8.45613
 21
340.156
  0
LINE
  8
0
 10
-8.45613
 20
340.156
 11
-8.30373
 21
340.266
  0
LINE
  8
0
 10
-8.30373
 20
340.266
 11
-8.13866
 21
340.357
  0
LINE
  8
0
 10
-8.13866
 20
340.357
 11
-7.96352
 21
340.427
  0
LINE
  8
0
 10
-7.96352
 20
340.427
 11
-7.78107
 21
340.473
  0
LINE
  8
0
 10
-7.78107
 20
340.473
 11
-7.59418
 21
340.497
  0
LINE
  8
0
 10
-7.59418
 20
340.497
 11
-7.40581
 21
340.497
  0
LINE
  8
0
 10
-7.40581
 20
340.497
 11
-7.21892
 21
340.473
  0
LINE
  8
0
 10
-7.21892
 20
340.473
 11
-7.03647
 21
340.427
  0
LINE
  8
0
 10
-7.03647
 20
340.427
 11
-6.86133
 21
340.357
  0
LINE
  8
0
 10
-6.86133
 20
340.357
 11
-6.69626
 21
340.266
  0
LINE
  8
0
 10
-6.69626
 20
340.266
 11
-6.54385
 21
340.156
  0
LINE
  8
0
 10
-6.54385
 20
340.156
 11
-6.40654
 21
340.027
  0
LINE
  8
0
 10
-6.40654
 20
340.027
 11
-6.28647
 21
339.882
  0
LINE
  8
0
 10
-6.28647
 20
339.882
 11
-6.18553
 21
339.723
  0
LINE
  8
0
 10
-6.18553
 20
339.723
 11
-6.10533
 21
339.552
  0
LINE
  8
0
 10
-6.10533
 20
339.552
 11
-6.04712
 21
339.373
  0
LINE
  8
0
 10
-6.04712
 20
339.373
 11
-6.01183
 21
339.188
  0
LINE
  8
0
 10
-6.01183
 20
339.188
 11
-6
 21
339
  0
LINE
  8
0
 10
-6
 20
339
 11
-6.01183
 21
338.812
  0
LINE
  8
0
 10
-6.01183
 20
338.812
 11
-6.04712
 21
338.627
  0
LINE
  8
0
 10
-6.04712
 20
338.627
 11
-6.10533
 21
338.448
  0
LINE
  8
0
 10
-6.10533
 20
338.448
 11
-6.18553
 21
338.277
  0
LINE
  8
0
 10
-6.18553
 20
338.277
 11
-6.28647
 21
338.118
  0
LINE
  8
0
 10
-6.28647
 20
338.118
 11
-6.40654
 21
337.973
  0
LINE
  8
0
 10
-6.40654
 20
337.973
 11
-6.54385
 21
337.844
  0
LINE
  8
0
 10
-6.54385
 20
337.844
 11
-6.69626
 21
337.734
  0
LINE
  8
0
 10
-6.69626
 20
337.734
 11
-6.86133
 21
337.643
  0
LINE
  8
0
 10
-6.86133
 20
337.643
 11
-7.03647
 21
337.573
  0
LINE
  8
0
 10
-7.03647
 20
337.573
 11
-7.21892
 21
337.527
  0
LINE
  8
0
 10
-7.21892
 20
337.527
 11
-7.40581
 21
337.503
  0
LINE
  8
0
 10
-7.40581
 20
337.503
 11
-7.59418
 21
337.503
  0
LINE
  8
0
 10
7.40581
 20
337.503
 11
7.21892
 21
337.527
  0
LINE
  8
0
 10
7.21892
 20
337.527
 11
7.03647
 21
337.573
  0
LINE
  8
0
 10
7.03647
 20
337.573
 11
6.86133
 21
337.643
  0
LINE
  8
0
 10
6.86133
 20
337.643
 11
6.69626
 21
337.734
  0
LINE
  8
0
 10
6.69626
 20
337.734
 11
6.54385
 21
337.844
  0
LINE
  8
0
 10
6.54385
 20
337.844
 11
6.40654
 21
337.973
  0
LINE
  8
0
 10
6.40654
 20
337.973
 11
6.28647
 21
338.118
  0
LINE
  8
0
 10
6.28647
 20
338.118
 11
6.18553
 21
338.277
  0
LINE
  8
0
 10
6.18553
 20
338.277
 11
6.10533
 21
338.448
  0
LINE
  8
0
 10
6.10533
 20
338.448
 11
6.04712
 21
338.627
  0
LINE
  8
0
 10
6.04712
 20
338.627
 11
6.01183
 21
338.812
  0
LINE
  8
0
 10
6.01183
 20
338.812
 11
6
 21
339
  0
LINE
  8
0
 10
6
 20
339
 11
6.01183
 21
339.188
  0
LINE
  8
0
 10
6.01183
 20
339.188
 11
6.04712
 21
339.373
  0
LINE
  8
0
 10
6.04712
 20
339.373
 11
6.10533
 21
339.552
  0
LINE
  8
0
 10
6.10533
 20
339.552
 11
6.18553
 21
339.723
  0
LINE
  8
0
 10
6.18553
 20
339.723
 11
6.28647
 21
339.882
  0
LINE
  8
0
 10
6.28647
 20
339.882
 11
6.40654
 21
340.027
  0
LINE
  8
0
 10
6.40654
 20
340.027
 11
6.54385
 21
340.156
  0
LINE
  8
0
 10
6.54385
 20
340.156
 11
6.69626
 21
340.266
  0
LINE
  8
0
 10
6.69626
 20
340.266
 11
6.86133
 21
340.357
  0
LINE
  8
0
 10
6.86133
 20
340.357
 11
7.03647
 21
340.427
  0
LINE
  8
0
 10
7.03647
 20
340.427
 11
7.21892
 21
340.473
  0
LINE
  8
0
 10
7.21892
 20
340.473
 11
7.40581
 21
340.497
  0
LINE
  8
0
 10
7.40581
 20
340.497
 11
7.59418
 21
340.497
  0
LINE
  8
0
 10
7.59418
 20
340.497
 11
7.78107
 21
340.473
  0
LINE
  8
0
 10
7.78107
 20
340.473
 11
7.96352
 21
340.427
  0
LINE
  8
0
 10
7.96352
 20
340.427
 11
8.13866
 21
340.357
  0
LINE
  8
0
 10
8.13866
 20
340.357
 11
8.30373
 21
340.266
  0
LINE
  8
0
 10
8.30373
 20
340.266
 11
8.45613
 21
340.156
  0
LINE
  8
0
 10
8.45613
 20
340.156
 11
8.59344
 21
340.027
  0
LINE
  8
0
 10
8.59344
 20
340.027
 11
8.71352
 21
339.882
  0
LINE
  8
0
 10
8.71352
 20
339.882
 11
8.81445
 21
339.723
  0
LINE
  8
0
 10
8.81445
 20
339.723
 11
8.89465
 21
339.552
  0
LINE
  8
0
 10
8.89465
 20
339.552
 11
8.95287
 21
339.373
  0
LINE
  8
0
 10
8.95287
 20
339.373
 11
8.98816
 21
339.188
  0
LINE
  8
0
 10
8.98816
 20
339.188
 11
9
 21
339
  0
LINE
  8
0
 10
9
 20
339
 11
8.98816
 21
338.812
  0
LINE
  8
0
 10
8.98816
 20
338.812
 11
8.95287
 21
338.627
  0
LINE
  8
0
 10
8.95287
 20
338.627
 11
8.89465
 21
338.448
  0
LINE
  8
0
 10
8.89465
 20
338.448
 11
8.81445
 21
338.277
  0
LINE
  8
0
 10
8.81445
 20
338.277
 11
8.71352
 21
338.118
  0
LINE
  8
0
 10
8.71352
 20
338.118
 11
8.59344
 21
337.973
  0
LINE
  8
0
 10
8.59344
 20
337.973
 11
8.45613
 21
337.844
  0
LINE
  8
0
 10
8.45613
 20
337.844
 11
8.30373
 21
337.734
  0
LINE
  8
0
 10
8.30373
 20
337.734
 11
8.13866
 21
337.643
  0
LINE
  8
0
 10
8.13866
 20
337.643
 11
7.96352
 21
337.573
  0
LINE
  8
0
 10
7.96352
 20
337.573
 11
7.78107
 21
337.527
  0
LINE
  8
0
 10
7.78107
 20
337.527
 11
7.59418
 21
337.503
  0
LINE
  8
0
 10
7.59418
 20
337.503
 11
7.40581
 21
337.503
  0
LINE
  8
0
 10
-7.31395
 20
313.51
 11
-7.9369
 21
313.589
  0
LINE
  8
0
 10
-7.9369
 20
313.589
 11
-8.54507
 21
313.745
  0
LINE
  8
0
 10
-8.54507
 20
313.745
 11
-9.12889
 21
313.976
  0
LINE
  8
0
 10
-9.12889
 20
313.976
 11
-9.67912
 21
314.278
  0
LINE
  8
0
 10
-9.67912
 20
314.278
 11
-10.1871
 21
314.647
  0
LINE
  8
0
 10
-10.1871
 20
314.647
 11
-10.6448
 21
315.077
  0
LINE
  8
0
 10
-10.6448
 20
315.077
 11
-11.0451
 21
315.561
  0
LINE
  8
0
 10
-11.0451
 20
315.561
 11
-11.3815
 21
316.091
  0
LINE
  8
0
 10
-11.3815
 20
316.091
 11
-11.6489
 21
316.659
  0
LINE
  8
0
 10
-11.6489
 20
316.659
 11
-11.8429
 21
317.257
  0
LINE
  8
0
 10
-11.8429
 20
317.257
 11
-11.9606
 21
317.873
  0
LINE
  8
0
 10
-11.9606
 20
317.873
 11
-12
 21
318.5
  0
LINE
  8
0
 10
-12
 20
318.5
 11
-12
 21
329.5
  0
LINE
  8
0
 10
-12
 20
329.5
 11
-11.9606
 21
330.127
  0
LINE
  8
0
 10
-11.9606
 20
330.127
 11
-11.8429
 21
330.743
  0
LINE
  8
0
 10
-11.8429
 20
330.743
 11
-11.6489
 21
331.341
  0
LINE
  8
0
 10
-11.6489
 20
331.341
 11
-11.3815
 21
331.909
  0
LINE
  8
0
 10
-11.3815
 20
331.909
 11
-11.0451
 21
332.439
  0
LINE
  8
0
 10
-11.0451
 20
332.439
 11
-10.6448
 21
332.923
  0
LINE
  8
0
 10
-10.6448
 20
332.923
 11
-10.1871
 21
333.353
  0
LINE
  8
0
 10
-10.1871
 20
333.353
 11
-9.67912
 21
333.722
  0
LINE
  8
0
 10
-9.67912
 20
333.722
 11
-9.12889
 21
334.024
  0
LINE
  8
0
 10
-9.12889
 20
334.024
 11
-8.54507
 21
334.255
  0
LINE
  8
0
 10
-8.54507
 20
334.255
 11
-7.9369
 21
334.411
  0
LINE
  8
0
 10
-7.9369
 20
334.411
 11
-7.31395
 21
334.49
  0
LINE
  8
0
 10
-7.31395
 20
334.49
 11
7.31395
 21
334.49
  0
LINE
  8
0
 10
7.31395
 20
334.49
 11
7.9369
 21
334.411
  0
LINE
  8
0
 10
7.9369
 20
334.411
 11
8.54507
 21
334.255
  0
LINE
  8
0
 10
8.54507
 20
334.255
 11
9.12889
 21
334.024
  0
LINE
  8
0
 10
9.12889
 20
334.024
 11
9.67912
 21
333.722
  0
LINE
  8
0
 10
9.67912
 20
333.722
 11
10.1871
 21
333.353
  0
LINE
  8
0
 10
10.1871
 20
333.353
 11
10.6448
 21
332.923
  0
LINE
  8
0
 10
10.6448
 20
332.923
 11
11.0451
 21
332.439
  0
LINE
  8
0
 10
11.0451
 20
332.439
 11
11.3815
 21
331.909
  0
LINE
  8
0
 10
11.3815
 20
331.909
 11
11.6489
 21
331.341
  0
LINE
  8
0
 10
11.6489
 20
331.341
 11
11.8429
 21
330.743
  0
LINE
  8
0
 10
11.8429
 20
330.743
 11
11.9606
 21
330.127
  0
LINE
  8
0
 10
11.9606
 20
330.127
 11
12
 21
329.5
  0
LINE
  8
0
 10
12
 20
329.5
 11
12
 21
318.5
  0
LINE
  8
0
 10
12
 20
318.5
 11
11.9606
 21
317.873
  0
LINE
  8
0
 10
11.9606
 20
317.873
 11
11.8429
 21
317.257
  0
LINE
  8
0
 10
11.8429
 20
317.257
 11
11.6489
 21
316.659
  0
LINE
  8
0
 10
11.6489
 20
316.659
 11
11.3815
 21
316.091
  0
LINE
  8
0
 10
11.3815
 20
316.091
 11
11.0451
 21
315.561
  0
LINE
  8
0
 10
11.0451
 20
315.561
 11
10.6448
 21
315.077
  0
LINE
  8
0
 10
10.6448
 20
315.077
 11
10.1871
 21
314.647
  0
LINE
  8
0
 10
10.1871
 20
314.647
 11
9.67912
 21
314.278
  0
LINE
  8
0
 10
9.67912
 20
314.278
 11
9.12889
 21
313.976
  0
LINE
  8
0
 10
9.12889
 20
313.976
 11
8.54507
 21
313.745
  0
LINE
  8
0
 10
8.54507
 20
313.745
 11
7.9369
 21
313.589
  0
LINE
  8
0
 10
7.9369
 20
313.589
 11
7.31395
 21
313.51
  0
LINE
  8
0
 10
7.31395
 20
313.51
 11
-7.31395
 21
313.51
  0
LINE
  8
0
 10
14.9058
 20
330.003
 11
14.7189
 21
330.027
  0
LINE
  8
0
 10
14.7189
 20
330.027
 11
14.5365
 21
330.073
  0
LINE
  8
0
 10
14.5365
 20
330.073
 11
14.3613
 21
330.143
  0
LINE
  8
0
 10
14.3613
 20
330.143
 11
14.1963
 21
330.234
  0
LINE
  8
0
 10
14.1963
 20
330.234
 11
14.0439
 21
330.344
  0
LINE
  8
0
 10
14.0439
 20
330.344
 11
13.9065
 21
330.473
  0
LINE
  8
0
 10
13.9065
 20
330.473
 11
13.7865
 21
330.618
  0
LINE
  8
0
 10
13.7865
 20
330.618
 11
13.6855
 21
330.777
  0
LINE
  8
0
 10
13.6855
 20
330.777
 11
13.6053
 21
330.948
  0
LINE
  8
0
 10
13.6053
 20
330.948
 11
13.5471
 21
331.127
  0
LINE
  8
0
 10
13.5471
 20
331.127
 11
13.5118
 21
331.312
  0
LINE
  8
0
 10
13.5118
 20
331.312
 11
13.5
 21
331.5
  0
LINE
  8
0
 10
13.5
 20
331.5
 11
13.5118
 21
331.688
  0
LINE
  8
0
 10
13.5118
 20
331.688
 11
13.5471
 21
331.873
  0
LINE
  8
0
 10
13.5471
 20
331.873
 11
13.6053
 21
332.052
  0
LINE
  8
0
 10
13.6053
 20
332.052
 11
13.6855
 21
332.223
  0
LINE
  8
0
 10
13.6855
 20
332.223
 11
13.7865
 21
332.382
  0
LINE
  8
0
 10
13.7865
 20
332.382
 11
13.9065
 21
332.527
  0
LINE
  8
0
 10
13.9065
 20
332.527
 11
14.0439
 21
332.656
  0
LINE
  8
0
 10
14.0439
 20
332.656
 11
14.1963
 21
332.766
  0
LINE
  8
0
 10
14.1963
 20
332.766
 11
14.3613
 21
332.857
  0
LINE
  8
0
 10
14.3613
 20
332.857
 11
14.5365
 21
332.927
  0
LINE
  8
0
 10
14.5365
 20
332.927
 11
14.7189
 21
332.973
  0
LINE
  8
0
 10
14.7189
 20
332.973
 11
14.9058
 21
332.997
  0
LINE
  8
0
 10
14.9058
 20
332.997
 11
15.0942
 21
332.997
  0
LINE
  8
0
 10
15.0942
 20
332.997
 11
15.2811
 21
332.973
  0
LINE
  8
0
 10
15.2811
 20
332.973
 11
15.4635
 21
332.927
  0
LINE
  8
0
 10
15.4635
 20
332.927
 11
15.6387
 21
332.857
  0
LINE
  8
0
 10
15.6387
 20
332.857
 11
15.8037
 21
332.766
  0
LINE
  8
0
 10
15.8037
 20
332.766
 11
15.9561
 21
332.656
  0
LINE
  8
0
 10
15.9561
 20
332.656
 11
16.0934
 21
332.527
  0
LINE
  8
0
 10
16.0934
 20
332.527
 11
16.2135
 21
332.382
  0
LINE
  8
0
 10
16.2135
 20
332.382
 11
16.3145
 21
332.223
  0
LINE
  8
0
 10
16.3145
 20
332.223
 11
16.3947
 21
332.052
  0
LINE
  8
0
 10
16.3947
 20
332.052
 11
16.4529
 21
331.873
  0
LINE
  8
0
 10
16.4529
 20
331.873
 11
16.4882
 21
331.688
  0
LINE
  8
0
 10
16.4882
 20
331.688
 11
16.5
 21
331.5
  0
LINE
  8
0
 10
16.5
 20
331.5
 11
16.4882
 21
331.312
  0
LINE
  8
0
 10
16.4882
 20
331.312
 11
16.4529
 21
331.127
  0
LINE
  8
0
 10
16.4529
 20
331.127
 11
16.3947
 21
330.948
  0
LINE
  8
0
 10
16.3947
 20
330.948
 11
16.3145
 21
330.777
  0
LINE
  8
0
 10
16.3145
 20
330.777
 11
16.2135
 21
330.618
  0
LINE
  8
0
 10
16.2135
 20
330.618
 11
16.0934
 21
330.473
  0
LINE
  8
0
 10
16.0934
 20
330.473
 11
15.9561
 21
330.344
  0
LINE
  8
0
 10
15.9561
 20
330.344
 11
15.8037
 21
330.234
  0
LINE
  8
0
 10
15.8037
 20
330.234
 11
15.6387
 21
330.143
  0
LINE
  8
0
 10
15.6387
 20
330.143
 11
15.4635
 21
330.073
  0
LINE
  8
0
 10
15.4635
 20
330.073
 11
15.2811
 21
330.027
  0
LINE
  8
0
 10
15.2811
 20
330.027
 11
15.0942
 21
330.003
  0
LINE
  8
0
 10
15.0942
 20
330.003
 11
14.9058
 21
330.003
  0
LINE
  8
0
 10
-15.0942
 20
330.003
 11
-15.2811
 21
330.027
  0
LINE
  8
0
 10
-15.2811
 20
330.027
 11
-15.4635
 21
330.073
  0
LINE
  8
0
 10
-15.4635
 20
330.073
 11
-15.6387
 21
330.143
  0
LINE
  8
0
 10
-15.6387
 20
330.143
 11
-15.8037
 21
330.234
  0
LINE
  8
0
 10
-15.8037
 20
330.234
 11
-15.9561
 21
330.344
  0
LINE
  8
0
 10
-15.9561
 20
330.344
 11
-16.0934
 21
330.473
  0
LINE
  8
0
 10
-16.0934
 20
330.473
 11
-16.2135
 21
330.618
  0
LINE
  8
0
 10
-16.2135
 20
330.618
 11
-16.3145
 21
330.777
  0
LINE
  8
0
 10
-16.3145
 20
330.777
 11
-16.3947
 21
330.948
  0
LINE
  8
0
 10
-16.3947
 20
330.948
 11
-16.4529
 21
331.127
  0
LINE
  8
0
 10
-16.4529
 20
331.127
 11
-16.4882
 21
331.312
  0
LINE
  8
0
 10
-16.4882
 20
331.312
 11
-16.5
 21
331.5
  0
LINE
  8
0
 10
-16.5
 20
331.5
 11
-16.4882
 21
331.688
  0
LINE
  8
0
 10
-16.4882
 20
331.688
 11
-16.4529
 21
331.873
  0
LINE
  8
0
 10
-16.4529
 20
331.873
 11
-16.3947
 21
332.052
  0
LINE
  8
0
 10
-16.3947
 20
332.052
 11
-16.3145
 21
332.223
  0
LINE
  8
0
 10
-16.3145
 20
332.223
 11
-16.2135
 21
332.382
  0
LINE
  8
0
 10
-16.2135
 20
332.382
 11
-16.0934
 21
332.527
  0
LINE
  8
0
 10
-16.0934
 20
332.527
 11
-15.9561
 21
332.656
  0
LINE
  8
0
 10
-15.9561
 20
332.656
 11
-15.8037
 21
332.766
  0
LINE
  8
0
 10
-15.8037
 20
332.766
 11
-15.6387
 21
332.857
  0
LINE
  8
0
 10
-15.6387
 20
332.857
 11
-15.4635
 21
332.927
  0
LINE
  8
0
 10
-15.4635
 20
332.927
 11
-15.2811
 21
332.973
  0
LINE
  8
0
 10
-15.2811
 20
332.973
 11
-15.0942
 21
332.997
  0
LINE
  8
0
 10
-15.0942
 20
332.997
 11
-14.9058
 21
332.997
  0
LINE
  8
0
 10
-14.9058
 20
332.997
 11
-14.7189
 21
332.973
  0
LINE
  8
0
 10
-14.7189
 20
332.973
 11
-14.5365
 21
332.927
  0
LINE
  8
0
 10
-14.5365
 20
332.927
 11
-14.3613
 21
332.857
  0
LINE
  8
0
 10
-14.3613
 20
332.857
 11
-14.1963
 21
332.766
  0
LINE
  8
0
 10
-14.1963
 20
332.766
 11
-14.0439
 21
332.656
  0
LINE
  8
0
 10
-14.0439
 20
332.656
 11
-13.9065
 21
332.527
  0
LINE
  8
0
 10
-13.9065
 20
332.527
 11
-13.7865
 21
332.382
  0
LINE
  8
0
 10
-13.7865
 20
332.382
 11
-13.6855
 21
332.223
  0
LINE
  8
0
 10
-13.6855
 20
332.223
 11
-13.6053
 21
332.052
  0
LINE
  8
0
 10
-13.6053
 20
332.052
 11
-13.5471
 21
331.873
  0
LINE
  8
0
 10
-13.5471
 20
331.873
 11
-13.5118
 21
331.688
  0
LINE
  8
0
 10
-13.5118
 20
331.688
 11
-13.5
 21
331.5
  0
LINE
  8
0
 10
-13.5
 20
331.5
 11
-13.5118
 21
331.312
  0
LINE
  8
0
 10
-13.5118
 20
331.312
 11
-13.5471
 21
331.127
  0
LINE
  8
0
 10
-13.5471
 20
331.127
 11
-13.6053
 21
330.948
  0
LINE
  8
0
 10
-13.6053
 20
330.948
 11
-13.6855
 21
330.777
  0
LINE
  8
0
 10
-13.6855
 20
330.777
 11
-13.7865
 21
330.618
  0
LINE
  8
0
 10
-13.7865
 20
330.618
 11
-13.9065
 21
330.473
  0
LINE
  8
0
 10
-13.9065
 20
330.473
 11
-14.0439
 21
330.344
  0
LINE
  8
0
 10
-14.0439
 20
330.344
 11
-14.1963
 21
330.234
  0
LINE
  8
0
 10
-14.1963
 20
330.234
 11
-14.3613
 21
330.143
  0
LINE
  8
0
 10
-14.3613
 20
330.143
 11
-14.5365
 21
330.073
  0
LINE
  8
0
 10
-14.5365
 20
330.073
 11
-14.7189
 21
330.027
  0
LINE
  8
0
 10
-14.7189
 20
330.027
 11
-14.9058
 21
330.003
  0
LINE
  8
0
 10
-14.9058
 20
330.003
 11
-15.0942
 21
330.003
  0
LINE
  8
0
 10
14.9058
 20
322.503
 11
14.7189
 21
322.527
  0
LINE
  8
0
 10
14.7189
 20
322.527
 11
14.5365
 21
322.573
  0
LINE
  8
0
 10
14.5365
 20
322.573
 11
14.3613
 21
322.643
  0
LINE
  8
0
 10
14.3613
 20
322.643
 11
14.1963
 21
322.734
  0
LINE
  8
0
 10
14.1963
 20
322.734
 11
14.0439
 21
322.844
  0
LINE
  8
0
 10
14.0439
 20
322.844
 11
13.9065
 21
322.973
  0
LINE
  8
0
 10
13.9065
 20
322.973
 11
13.7865
 21
323.118
  0
LINE
  8
0
 10
13.7865
 20
323.118
 11
13.6855
 21
323.277
  0
LINE
  8
0
 10
13.6855
 20
323.277
 11
13.6053
 21
323.448
  0
LINE
  8
0
 10
13.6053
 20
323.448
 11
13.5471
 21
323.627
  0
LINE
  8
0
 10
13.5471
 20
323.627
 11
13.5118
 21
323.812
  0
LINE
  8
0
 10
13.5118
 20
323.812
 11
13.5
 21
324
  0
LINE
  8
0
 10
13.5
 20
324
 11
13.5118
 21
324.188
  0
LINE
  8
0
 10
13.5118
 20
324.188
 11
13.5471
 21
324.373
  0
LINE
  8
0
 10
13.5471
 20
324.373
 11
13.6053
 21
324.552
  0
LINE
  8
0
 10
13.6053
 20
324.552
 11
13.6855
 21
324.723
  0
LINE
  8
0
 10
13.6855
 20
324.723
 11
13.7865
 21
324.882
  0
LINE
  8
0
 10
13.7865
 20
324.882
 11
13.9065
 21
325.027
  0
LINE
  8
0
 10
13.9065
 20
325.027
 11
14.0439
 21
325.156
  0
LINE
  8
0
 10
14.0439
 20
325.156
 11
14.1963
 21
325.266
  0
LINE
  8
0
 10
14.1963
 20
325.266
 11
14.3613
 21
325.357
  0
LINE
  8
0
 10
14.3613
 20
325.357
 11
14.5365
 21
325.427
  0
LINE
  8
0
 10
14.5365
 20
325.427
 11
14.7189
 21
325.473
  0
LINE
  8
0
 10
14.7189
 20
325.473
 11
14.9058
 21
325.497
  0
LINE
  8
0
 10
14.9058
 20
325.497
 11
15.0942
 21
325.497
  0
LINE
  8
0
 10
15.0942
 20
325.497
 11
15.2811
 21
325.473
  0
LINE
  8
0
 10
15.2811
 20
325.473
 11
15.4635
 21
325.427
  0
LINE
  8
0
 10
15.4635
 20
325.427
 11
15.6387
 21
325.357
  0
LINE
  8
0
 10
15.6387
 20
325.357
 11
15.8037
 21
325.266
  0
LINE
  8
0
 10
15.8037
 20
325.266
 11
15.9561
 21
325.156
  0
LINE
  8
0
 10
15.9561
 20
325.156
 11
16.0934
 21
325.027
  0
LINE
  8
0
 10
16.0934
 20
325.027
 11
16.2135
 21
324.882
  0
LINE
  8
0
 10
16.2135
 20
324.882
 11
16.3145
 21
324.723
  0
LINE
  8
0
 10
16.3145
 20
324.723
 11
16.3947
 21
324.552
  0
LINE
  8
0
 10
16.3947
 20
324.552
 11
16.4529
 21
324.373
  0
LINE
  8
0
 10
16.4529
 20
324.373
 11
16.4882
 21
324.188
  0
LINE
  8
0
 10
16.4882
 20
324.188
 11
16.5
 21
324
  0
LINE
  8
0
 10
16.5
 20
324
 11
16.4882
 21
323.812
  0
LINE
  8
0
 10
16.4882
 20
323.812
 11
16.4529
 21
323.627
  0
LINE
  8
0
 10
16.4529
 20
323.627
 11
16.3947
 21
323.448
  0
LINE
  8
0
 10
16.3947
 20
323.448
 11
16.3145
 21
323.277
  0
LINE
  8
0
 10
16.3145
 20
323.277
 11
16.2135
 21
323.118
  0
LINE
  8
0
 10
16.2135
 20
323.118
 11
16.0934
 21
322.973
  0
LINE
  8
0
 10
16.0934
 20
322.973
 11
15.9561
 21
322.844
  0
LINE
  8
0
 10
15.9561
 20
322.844
 11
15.8037
 21
322.734
  0
LINE
  8
0
 10
15.8037
 20
322.734
 11
15.6387
 21
322.643
  0
LINE
  8
0
 10
15.6387
 20
322.643
 11
15.4635
 21
322.573
  0
LINE
  8
0
 10
15.4635
 20
322.573
 11
15.2811
 21
322.527
  0
LINE
  8
0
 10
15.2811
 20
322.527
 11
15.0942
 21
322.503
  0
LINE
  8
0
 10
15.0942
 20
322.503
 11
14.9058
 21
322.503
  0
LINE
  8
0
 10
-15.0942
 20
322.503
 11
-15.2811
 21
322.527
  0
LINE
  8
0
 10
-15.2811
 20
322.527
 11
-15.4635
 21
322.573
  0
LINE
  8
0
 10
-15.4635
 20
322.573
 11
-15.6387
 21
322.643
  0
LINE
  8
0
 10
-15.6387
 20
322.643
 11
-15.8037
 21
322.734
  0
LINE
  8
0
 10
-15.8037
 20
322.734
 11
-15.9561
 21
322.844
  0
LINE
  8
0
 10
-15.9561
 20
322.844
 11
-16.0934
 21
322.973
  0
LINE
  8
0
 10
-16.0934
 20
322.973
 11
-16.2135
 21
323.118
  0
LINE
  8
0
 10
-16.2135
 20
323.118
 11
-16.3145
 21
323.277
  0
LINE
  8
0
 10
-16.3145
 20
323.277
 11
-16.3947
 21
323.448
  0
LINE
  8
0
 10
-16.3947
 20
323.448
 11
-16.4529
 21
323.627
  0
LINE
  8
0
 10
-16.4529
 20
323.627
 11
-16.4882
 21
323.812
  0
LINE
  8
0
 10
-16.4882
 20
323.812
 11
-16.5
 21
324
  0
LINE
  8
0
 10
-16.5
 20
324
 11
-16.4882
 21
324.188
  0
LINE
  8
0
 10
-16.4882
 20
324.188
 11
-16.4529
 21
324.373
  0
LINE
  8
0
 10
-16.4529
 20
324.373
 11
-16.3947
 21
324.552
  0
LINE
  8
0
 10
-16.3947
 20
324.552
 11
-16.3145
 21
324.723
  0
LINE
  8
0
 10
-16.3145
 20
324.723
 11
-16.2135
 21
324.882
  0
LINE
  8
0
 10
-16.2135
 20
324.882
 11
-16.0934
 21
325.027
  0
LINE
  8
0
 10
-16.0934
 20
325.027
 11
-15.9561
 21
325.156
  0
LINE
  8
0
 10
-15.9561
 20
325.156
 11
-15.8037
 21
325.266
  0
LINE
  8
0
 10
-15.8037
 20
325.266
 11
-15.6387
 21
325.357
  0
LINE
  8
0
 10
-15.6387
 20
325.357
 11
-15.4635
 21
325.427
  0
LINE
  8
0
 10
-15.4635
 20
325.427
 11
-15.2811
 21
325.473
  0
LINE
  8
0
 10
-15.2811
 20
325.473
 11
-15.0942
 21
325.497
  0
LINE
  8
0
 10
-15.0942
 20
325.497
 11
-14.9058
 21
325.497
  0
LINE
  8
0
 10
-14.9058
 20
325.497
 11
-14.7189
 21
325.473
  0
LINE
  8
0
 10
-14.7189
 20
325.473
 11
-14.5365
 21
325.427
  0
LINE
  8
0
 10
-14.5365
 20
325.427
 11
-14.3613
 21
325.357
  0
LINE
  8
0
 10
-14.3613
 20
325.357
 11
-14.1963
 21
325.266
  0
LINE
  8
0
 10
-14.1963
 20
325.266
 11
-14.0439
 21
325.156
  0
LINE
  8
0
 10
-14.0439
 20
325.156
 11
-13.9065
 21
325.027
  0
LINE
  8
0
 10
-13.9065
 20
325.027
 11
-13.7865
 21
324.882
  0
LINE
  8
0
 10
-13.7865
 20
324.882
 11
-13.6855
 21
324.723
  0
LINE
  8
0
 10
-13.6855
 20
324.723
 11
-13.6053
 21
324.552
  0
LINE
  8
0
 10
-13.6053
 20
324.552
 11
-13.5471
 21
324.373
  0
LINE
  8
0
 10
-13.5471
 20
324.373
 11
-13.5118
 21
324.188
  0
LINE
  8
0
 10
-13.5118
 20
324.188
 11
-13.5
 21
324
  0
LINE
  8
0
 10
-13.5
 20
324
 11
-13.5118
 21
323.812
  0
LINE
  8
0
 10
-13.5118
 20
323.812
 11
-13.5471
 21
323.627
  0
LINE
  8
0
 10
-13.5471
 20
323.627
 11
-13.6053
 21
323.448
  0
LINE
  8
0
 10
-13.6053
 20
323.448
 11
-13.6855
 21
323.277
  0
LINE
  8
0
 10
-13.6855
 20
323.277
 11
-13.7865
 21
323.118
  0
LINE
  8
0
 10
-13.7865
 20
323.118
 11
-13.9065
 21
322.973
  0
LINE
  8
0
 10
-13.9065
 20
322.973
 11
-14.0439
 21
322.844
  0
LINE
  8
0
 10
-14.0439
 20
322.844
 11
-14.1963
 21
322.734
  0
LINE
  8
0
 10
-14.1963
 20
322.734
 11
-14.3613
 21
322.643
  0
LINE
  8
0
 10
-14.3613
 20
322.643
 11
-14.5365
 21
322.573
  0
LINE
  8
0
 10
-14.5365
 20
322.573
 11
-14.7189
 21
322.527
  0
LINE
  8
0
 10
-14.7189
 20
322.527
 11
-14.9058
 21
322.503
  0
LINE
  8
0
 10
-14.9058
 20
322.503
 11
-15.0942
 21
322.503
  0
LINE
  8
0
 10
14.9058
 20
315.003
 11
14.7189
 21
315.027
  0
LINE
  8
0
 10
14.7189
 20
315.027
 11
14.5365
 21
315.073
  0
LINE
  8
0
 10
14.5365
 20
315.073
 11
14.3613
 21
315.143
  0
LINE
  8
0
 10
14.3613
 20
315.143
 11
14.1963
 21
315.234
  0
LINE
  8
0
 10
14.1963
 20
315.234
 11
14.0439
 21
315.344
  0
LINE
  8
0
 10
14.0439
 20
315.344
 11
13.9065
 21
315.473
  0
LINE
  8
0
 10
13.9065
 20
315.473
 11
13.7865
 21
315.618
  0
LINE
  8
0
 10
13.7865
 20
315.618
 11
13.6855
 21
315.777
  0
LINE
  8
0
 10
13.6855
 20
315.777
 11
13.6053
 21
315.948
  0
LINE
  8
0
 10
13.6053
 20
315.948
 11
13.5471
 21
316.127
  0
LINE
  8
0
 10
13.5471
 20
316.127
 11
13.5118
 21
316.312
  0
LINE
  8
0
 10
13.5118
 20
316.312
 11
13.5
 21
316.5
  0
LINE
  8
0
 10
13.5
 20
316.5
 11
13.5118
 21
316.688
  0
LINE
  8
0
 10
13.5118
 20
316.688
 11
13.5471
 21
316.873
  0
LINE
  8
0
 10
13.5471
 20
316.873
 11
13.6053
 21
317.052
  0
LINE
  8
0
 10
13.6053
 20
317.052
 11
13.6855
 21
317.223
  0
LINE
  8
0
 10
13.6855
 20
317.223
 11
13.7865
 21
317.382
  0
LINE
  8
0
 10
13.7865
 20
317.382
 11
13.9065
 21
317.527
  0
LINE
  8
0
 10
13.9065
 20
317.527
 11
14.0439
 21
317.656
  0
LINE
  8
0
 10
14.0439
 20
317.656
 11
14.1963
 21
317.766
  0
LINE
  8
0
 10
14.1963
 20
317.766
 11
14.3613
 21
317.857
  0
LINE
  8
0
 10
14.3613
 20
317.857
 11
14.5365
 21
317.927
  0
LINE
  8
0
 10
14.5365
 20
317.927
 11
14.7189
 21
317.973
  0
LINE
  8
0
 10
14.7189
 20
317.973
 11
14.9058
 21
317.997
  0
LINE
  8
0
 10
14.9058
 20
317.997
 11
15.0942
 21
317.997
  0
LINE
  8
0
 10
15.0942
 20
317.997
 11
15.2811
 21
317.973
  0
LINE
  8
0
 10
15.2811
 20
317.973
 11
15.4635
 21
317.927
  0
LINE
  8
0
 10
15.4635
 20
317.927
 11
15.6387
 21
317.857
  0
LINE
  8
0
 10
15.6387
 20
317.857
 11
15.8037
 21
317.766
  0
LINE
  8
0
 10
15.8037
 20
317.766
 11
15.9561
 21
317.656
  0
LINE
  8
0
 10
15.9561
 20
317.656
 11
16.0934
 21
317.527
  0
LINE
  8
0
 10
16.0934
 20
317.527
 11
16.2135
 21
317.382
  0
LINE
  8
0
 10
16.2135
 20
317.382
 11
16.3145
 21
317.223
  0
LINE
  8
0
 10
16.3145
 20
317.223
 11
16.3947
 21
317.052
  0
LINE
  8
0
 10
16.3947
 20
317.052
 11
16.4529
 21
316.873
  0
LINE
  8
0
 10
16.4529
 20
316.873
 11
16.4882
 21
316.688
  0
LINE
  8
0
 10
16.4882
 20
316.688
 11
16.5
 21
316.5
  0
LINE
  8
0
 10
16.5
 20
316.5
 11
16.4882
 21
316.312
  0
LINE
  8
0
 10
16.4882
 20
316.312
 11
16.4529
 21
316.127
  0
LINE
  8
0
 10
16.4529
 20
316.127
 11
16.3947
 21
315.948
  0
LINE
  8
0
 10
16.3947
 20
315.948
 11
16.3145
 21
315.777
  0
LINE
  8
0
 10
16.3145
 20
315.777
 11
16.2135
 21
315.618
  0
LINE
  8
0
 10
16.2135
 20
315.618
 11
16.0934
 21
315.473
  0
LINE
  8
0
 10
16.0934
 20
315.473
 11
15.9561
 21
315.344
  0
LINE
  8
0
 10
15.9561
 20
315.344
 11
15.8037
 21
315.234
  0
LINE
  8
0
 10
15.8037
 20
315.234
 11
15.6387
 21
315.143
  0
LINE
  8
0
 10
15.6387
 20
315.143
 11
15.4635
 21
315.073
  0
LINE
  8
0
 10
15.4635
 20
315.073
 11
15.2811
 21
315.027
  0
LINE
  8
0
 10
15.2811
 20
315.027
 11
15.0942
 21
315.003
  0
LINE
  8
0
 10
15.0942
 20
315.003
 11
14.9058
 21
315.003
  0
LINE
  8
0
 10
-15.0942
 20
315.003
 11
-15.2811
 21
315.027
  0
LINE
  8
0
 10
-15.2811
 20
315.027
 11
-15.4635
 21
315.073
  0
LINE
  8
0
 10
-15.4635
 20
315.073
 11
-15.6387
 21
315.143
  0
LINE
  8
0
 10
-15.6387
 20
315.143
 11
-15.8037
 21
315.234
  0
LINE
  8
0
 10
-15.8037
 20
315.234
 11
-15.9561
 21
315.344
  0
LINE
  8
0
 10
-15.9561
 20
315.344
 11
-16.0934
 21
315.473
  0
LINE
  8
0
 10
-16.0934
 20
315.473
 11
-16.2135
 21
315.618
  0
LINE
  8
0
 10
-16.2135
 20
315.618
 11
-16.3145
 21
315.777
  0
LINE
  8
0
 10
-16.3145
 20
315.777
 11
-16.3947
 21
315.948
  0
LINE
  8
0
 10
-16.3947
 20
315.948
 11
-16.4529
 21
316.127
  0
LINE
  8
0
 10
-16.4529
 20
316.127
 11
-16.4882
 21
316.312
  0
LINE
  8
0
 10
-16.4882
 20
316.312
 11
-16.5
 21
316.5
  0
LINE
  8
0
 10
-16.5
 20
316.5
 11
-16.4882
 21
316.688
  0
LINE
  8
0
 10
-16.4882
 20
316.688
 11
-16.4529
 21
316.873
  0
LINE
  8
0
 10
-16.4529
 20
316.873
 11
-16.3947
 21
317.052
  0
LINE
  8
0
 10
-16.3947
 20
317.052
 11
-16.3145
 21
317.223
  0
LINE
  8
0
 10
-16.3145
 20
317.223
 11
-16.2135
 21
317.382
  0
LINE
  8
0
 10
-16.2135
 20
317.382
 11
-16.0934
 21
317.527
  0
LINE
  8
0
 10
-16.0934
 20
317.527
 11
-15.9561
 21
317.656
  0
LINE
  8
0
 10
-15.9561
 20
317.656
 11
-15.8037
 21
317.766
  0
LINE
  8
0
 10
-15.8037
 20
317.766
 11
-15.6387
 21
317.857
  0
LINE
  8
0
 10
-15.6387
 20
317.857
 11
-15.4635
 21
317.927
  0
LINE
  8
0
 10
-15.4635
 20
317.927
 11
-15.2811
 21
317.973
  0
LINE
  8
0
 10
-15.2811
 20
317.973
 11
-15.0942
 21
317.997
  0
LINE
  8
0
 10
-15.0942
 20
317.997
 11
-14.9058
 21
317.997
  0
LINE
  8
0
 10
-14.9058
 20
317.997
 11
-14.7189
 21
317.973
  0
LINE
  8
0
 10
-14.7189
 20
317.973
 11
-14.5365
 21
317.927
  0
LINE
  8
0
 10
-14.5365
 20
317.927
 11
-14.3613
 21
317.857
  0
LINE
  8
0
 10
-14.3613
 20
317.857
 11
-14.1963
 21
317.766
  0
LINE
  8
0
 10
-14.1963
 20
317.766
 11
-14.0439
 21
317.656
  0
LINE
  8
0
 10
-14.0439
 20
317.656
 11
-13.9065
 21
317.527
  0
LINE
  8
0
 10
-13.9065
 20
317.527
 11
-13.7865
 21
317.382
  0
LINE
  8
0
 10
-13.7865
 20
317.382
 11
-13.6855
 21
317.223
  0
LINE
  8
0
 10
-13.6855
 20
317.223
 11
-13.6053
 21
317.052
  0
LINE
  8
0
 10
-13.6053
 20
317.052
 11
-13.5471
 21
316.873
  0
LINE
  8
0
 10
-13.5471
 20
316.873
 11
-13.5118
 21
316.688
  0
LINE
  8
0
 10
-13.5118
 20
316.688
 11
-13.5
 21
316.5
  0
LINE
  8
0
 10
-13.5
 20
316.5
 11
-13.5118
 21
316.312
  0
LINE
  8
0
 10
-13.5118
 20
316.312
 11
-13.5471
 21
316.127
  0
LINE
  8
0
 10
-13.5471
 20
316.127
 11
-13.6053
 21
315.948
  0
LINE
  8
0
 10
-13.6053
 20
315.948
 11
-13.6855
 21
315.777
  0
LINE
  8
0
 10
-13.6855
 20
315.777
 11
-13.7865
 21
315.618
  0
LINE
  8
0
 10
-13.7865
 20
315.618
 11
-13.9065
 21
315.473
  0
LINE
  8
0
 10
-13.9065
 20
315.473
 11
-14.0439
 21
315.344
  0
LINE
  8
0
 10
-14.0439
 20
315.344
 11
-14.1963
 21
315.234
  0
LINE
  8
0
 10
-14.1963
 20
315.234
 11
-14.3613
 21
315.143
  0
LINE
  8
0
 10
-14.3613
 20
315.143
 11
-14.5365
 21
315.073
  0
LINE
  8
0
 10
-14.5365
 20
315.073
 11
-14.7189
 21
315.027
  0
LINE
  8
0
 10
-14.7189
 20
315.027
 11
-14.9058
 21
315.003
  0
LINE
  8
0
 10
-14.9058
 20
315.003
 11
-15.0942
 21
315.003
  0
LINE
  8
0
 10
14.8116
 20
306.006
 11
14.4379
 21
306.053
  0
LINE
  8
0
 10
14.4379
 20
306.053
 11
14.0729
 21
306.147
  0
LINE
  8
0
 10
14.0729
 20
306.147
 11
13.7227
 21
306.286
  0
LINE
  8
0
 10
13.7227
 20
306.286
 11
13.3925
 21
306.467
  0
LINE
  8
0
 10
13.3925
 20
306.467
 11
13.0877
 21
306.688
  0
LINE
  8
0
 10
13.0877
 20
306.688
 11
12.8131
 21
306.946
  0
LINE
  8
0
 10
12.8131
 20
306.946
 11
12.5729
 21
307.237
  0
LINE
  8
0
 10
12.5729
 20
307.237
 11
12.3711
 21
307.555
  0
LINE
  8
0
 10
12.3711
 20
307.555
 11
12.2107
 21
307.896
  0
LINE
  8
0
 10
12.2107
 20
307.896
 11
12.0942
 21
308.254
  0
LINE
  8
0
 10
12.0942
 20
308.254
 11
12.0237
 21
308.624
  0
LINE
  8
0
 10
12.0237
 20
308.624
 11
12
 21
309
  0
LINE
  8
0
 10
12
 20
309
 11
12.0237
 21
309.376
  0
LINE
  8
0
 10
12.0237
 20
309.376
 11
12.0942
 21
309.746
  0
LINE
  8
0
 10
12.0942
 20
309.746
 11
12.2107
 21
310.104
  0
LINE
  8
0
 10
12.2107
 20
310.104
 11
12.3711
 21
310.445
  0
LINE
  8
0
 10
12.3711
 20
310.445
 11
12.5729
 21
310.763
  0
LINE
  8
0
 10
12.5729
 20
310.763
 11
12.8131
 21
311.054
  0
LINE
  8
0
 10
12.8131
 20
311.054
 11
13.0877
 21
311.312
  0
LINE
  8
0
 10
13.0877
 20
311.312
 11
13.3925
 21
311.533
  0
LINE
  8
0
 10
13.3925
 20
311.533
 11
13.7227
 21
311.714
  0
LINE
  8
0
 10
13.7227
 20
311.714
 11
14.0729
 21
311.853
  0
LINE
  8
0
 10
14.0729
 20
311.853
 11
14.4379
 21
311.947
  0
LINE
  8
0
 10
14.4379
 20
311.947
 11
14.8116
 21
311.994
  0
LINE
  8
0
 10
14.8116
 20
311.994
 11
15.1884
 21
311.994
  0
LINE
  8
0
 10
15.1884
 20
311.994
 11
15.5621
 21
311.947
  0
LINE
  8
0
 10
15.5621
 20
311.947
 11
15.927
 21
311.853
  0
LINE
  8
0
 10
15.927
 20
311.853
 11
16.2773
 21
311.714
  0
LINE
  8
0
 10
16.2773
 20
311.714
 11
16.6075
 21
311.533
  0
LINE
  8
0
 10
16.6075
 20
311.533
 11
16.9123
 21
311.312
  0
LINE
  8
0
 10
16.9123
 20
311.312
 11
17.1869
 21
311.054
  0
LINE
  8
0
 10
17.1869
 20
311.054
 11
17.427
 21
310.763
  0
LINE
  8
0
 10
17.427
 20
310.763
 11
17.6289
 21
310.445
  0
LINE
  8
0
 10
17.6289
 20
310.445
 11
17.7893
 21
310.104
  0
LINE
  8
0
 10
17.7893
 20
310.104
 11
17.9057
 21
309.746
  0
LINE
  8
0
 10
17.9057
 20
309.746
 11
17.9763
 21
309.376
  0
LINE
  8
0
 10
17.9763
 20
309.376
 11
18
 21
309
  0
LINE
  8
0
 10
18
 20
309
 11
17.9763
 21
308.624
  0
LINE
  8
0
 10
17.9763
 20
308.624
 11
17.9057
 21
308.254
  0
LINE
  8
0
 10
17.9057
 20
308.254
 11
17.7893
 21
307.896
  0
LINE
  8
0
 10
17.7893
 20
307.896
 11
17.6289
 21
307.555
  0
LINE
  8
0
 10
17.6289
 20
307.555
 11
17.427
 21
307.237
  0
LINE
  8
0
 10
17.427
 20
307.237
 11
17.1869
 21
306.946
  0
LINE
  8
0
 10
17.1869
 20
306.946
 11
16.9123
 21
306.688
  0
LINE
  8
0
 10
16.9123
 20
306.688
 11
16.6075
 21
306.467
  0
LINE
  8
0
 10
16.6075
 20
306.467
 11
16.2773
 21
306.286
  0
LINE
  8
0
 10
16.2773
 20
306.286
 11
15.927
 21
306.147
  0
LINE
  8
0
 10
15.927
 20
306.147
 11
15.5621
 21
306.053
  0
LINE
  8
0
 10
15.5621
 20
306.053
 11
15.1884
 21
306.006
  0
LINE
  8
0
 10
15.1884
 20
306.006
 11
14.8116
 21
306.006
  0
LINE
  8
0
 10
-15.1884
 20
306.006
 11
-15.5621
 21
306.053
  0
LINE
  8
0
 10
-15.5621
 20
306.053
 11
-15.927
 21
306.147
  0
LINE
  8
0
 10
-15.927
 20
306.147
 11
-16.2773
 21
306.286
  0
LINE
  8
0
 10
-16.2773
 20
306.286
 11
-16.6075
 21
306.467
  0
LINE
  8
0
 10
-16.6075
 20
306.467
 11
-16.9123
 21
306.688
  0
LINE
  8
0
 10
-16.9123
 20
306.688
 11
-17.1869
 21
306.946
  0
LINE
  8
0
 10
-17.1869
 20
306.946
 11
-17.427
 21
307.237
  0
LINE
  8
0
 10
-17.427
 20
307.237
 11
-17.6289
 21
307.555
  0
LINE
  8
0
 10
-17.6289
 20
307.555
 11
-17.7893
 21
307.896
  0
LINE
  8
0
 10
-17.7893
 20
307.896
 11
-17.9057
 21
308.254
  0
LINE
  8
0
 10
-17.9057
 20
308.254
 11
-17.9763
 21
308.624
  0
LINE
  8
0
 10
-17.9763
 20
308.624
 11
-18
 21
309
  0
LINE
  8
0
 10
-18
 20
309
 11
-17.9763
 21
309.376
  0
LINE
  8
0
 10
-17.9763
 20
309.376
 11
-17.9057
 21
309.746
  0
LINE
  8
0
 10
-17.9057
 20
309.746
 11
-17.7893
 21
310.104
  0
LINE
  8
0
 10
-17.7893
 20
310.104
 11
-17.6289
 21
310.445
  0
LINE
  8
0
 10
-17.6289
 20
310.445
 11
-17.427
 21
310.763
  0
LINE
  8
0
 10
-17.427
 20
310.763
 11
-17.1869
 21
311.054
  0
LINE
  8
0
 10
-17.1869
 20
311.054
 11
-16.9123
 21
311.312
  0
LINE
  8
0
 10
-16.9123
 20
311.312
 11
-16.6075
 21
311.533
  0
LINE
  8
0
 10
-16.6075
 20
311.533
 11
-16.2773
 21
311.714
  0
LINE
  8
0
 10
-16.2773
 20
311.714
 11
-15.927
 21
311.853
  0
LINE
  8
0
 10
-15.927
 20
311.853
 11
-15.5621
 21
311.947
  0
LINE
  8
0
 10
-15.5621
 20
311.947
 11
-15.1884
 21
311.994
  0
LINE
  8
0
 10
-15.1884
 20
311.994
 11
-14.8116
 21
311.994
  0
LINE
  8
0
 10
-14.8116
 20
311.994
 11
-14.4379
 21
311.947
  0
LINE
  8
0
 10
-14.4379
 20
311.947
 11
-14.0729
 21
311.853
  0
LINE
  8
0
 10
-14.0729
 20
311.853
 11
-13.7227
 21
311.714
  0
LINE
  8
0
 10
-13.7227
 20
311.714
 11
-13.3925
 21
311.533
  0
LINE
  8
0
 10
-13.3925
 20
311.533
 11
-13.0877
 21
311.312
  0
LINE
  8
0
 10
-13.0877
 20
311.312
 11
-12.8131
 21
311.054
  0
LINE
  8
0
 10
-12.8131
 20
311.054
 11
-12.5729
 21
310.763
  0
LINE
  8
0
 10
-12.5729
 20
310.763
 11
-12.3711
 21
310.445
  0
LINE
  8
0
 10
-12.3711
 20
310.445
 11
-12.2107
 21
310.104
  0
LINE
  8
0
 10
-12.2107
 20
310.104
 11
-12.0942
 21
309.746
  0
LINE
  8
0
 10
-12.0942
 20
309.746
 11
-12.0237
 21
309.376
  0
LINE
  8
0
 10
-12.0237
 20
309.376
 11
-12
 21
309
  0
LINE
  8
0
 10
-12
 20
309
 11
-12.0237
 21
308.624
  0
LINE
  8
0
 10
-12.0237
 20
308.624
 11
-12.0942
 21
308.254
  0
LINE
  8
0
 10
-12.0942
 20
308.254
 11
-12.2107
 21
307.896
  0
LINE
  8
0
 10
-12.2107
 20
307.896
 11
-12.3711
 21
307.555
  0
LINE
  8
0
 10
-12.3711
 20
307.555
 11
-12.5729
 21
307.237
  0
LINE
  8
0
 10
-12.5729
 20
307.237
 11
-12.8131
 21
306.946
  0
LINE
  8
0
 10
-12.8131
 20
306.946
 11
-13.0877
 21
306.688
  0
LINE
  8
0
 10
-13.0877
 20
306.688
 11
-13.3925
 21
306.467
  0
LINE
  8
0
 10
-13.3925
 20
306.467
 11
-13.7227
 21
306.286
  0
LINE
  8
0
 10
-13.7227
 20
306.286
 11
-14.0729
 21
306.147
  0
LINE
  8
0
 10
-14.0729
 20
306.147
 11
-14.4379
 21
306.053
  0
LINE
  8
0
 10
-14.4379
 20
306.053
 11
-14.8116
 21
306.006
  0
LINE
  8
0
 10
-14.8116
 20
306.006
 11
-15.1884
 21
306.006
  0
LINE
  8
0
 10
17.9369
 20
248.089
 11
18.5451
 21
248.245
  0
LINE
  8
0
 10
18.5451
 20
248.245
 11
19.1289
 21
248.476
  0
LINE
  8
0
 10
19.1289
 20
248.476
 11
19.6791
 21
248.778
  0
LINE
  8
0
 10
19.6791
 20
248.778
 11
20.1871
 21
249.147
  0
LINE
  8
0
 10
20.1871
 20
249.147
 11
20.6448
 21
249.577
  0
LINE
  8
0
 10
20.6448
 20
249.577
 11
21.0451
 21
250.061
  0
LINE
  8
0
 10
21.0451
 20
250.061
 11
21.3815
 21
250.591
  0
LINE
  8
0
 10
21.3815
 20
250.591
 11
21.6489
 21
251.159
  0
LINE
  8
0
 10
21.6489
 20
251.159
 11
21.8429
 21
251.757
  0
LINE
  8
0
 10
21.8429
 20
251.757
 11
21.9606
 21
252.373
  0
LINE
  8
0
 10
21.9606
 20
252.373
 11
22
 21
253
  0
LINE
  8
0
 10
22
 20
253
 11
22
 21
287
  0
LINE
  8
0
 10
22
 20
287
 11
21.9606
 21
287.627
  0
LINE
  8
0
 10
21.9606
 20
287.627
 11
21.8429
 21
288.243
  0
LINE
  8
0
 10
21.8429
 20
288.243
 11
21.6489
 21
288.841
  0
LINE
  8
0
 10
21.6489
 20
288.841
 11
21.3815
 21
289.409
  0
LINE
  8
0
 10
21.3815
 20
289.409
 11
21.0451
 21
289.939
  0
LINE
  8
0
 10
21.0451
 20
289.939
 11
20.6448
 21
290.423
  0
LINE
  8
0
 10
20.6448
 20
290.423
 11
20.1871
 21
290.853
  0
LINE
  8
0
 10
20.1871
 20
290.853
 11
19.6791
 21
291.222
  0
LINE
  8
0
 10
19.6791
 20
291.222
 11
19.1289
 21
291.524
  0
LINE
  8
0
 10
19.1289
 20
291.524
 11
18.5451
 21
291.755
  0
LINE
  8
0
 10
18.5451
 20
291.755
 11
17.9369
 21
291.911
  0
LINE
  8
0
 10
17.9369
 20
291.911
 11
17.3139
 21
291.99
  0
LINE
  8
0
 10
17.3139
 20
291.99
 11
-17.3139
 21
291.99
  0
LINE
  8
0
 10
-17.3139
 20
291.99
 11
-17.9369
 21
291.911
  0
LINE
  8
0
 10
-17.9369
 20
291.911
 11
-18.5451
 21
291.755
  0
LINE
  8
0
 10
-18.5451
 20
291.755
 11
-19.1289
 21
291.524
  0
LINE
  8
0
 10
-19.1289
 20
291.524
 11
-19.6791
 21
291.222
  0
LINE
  8
0
 10
-19.6791
 20
291.222
 11
-20.1871
 21
290.853
  0
LINE
  8
0
 10
-20.1871
 20
290.853
 11
-20.6448
 21
290.423
  0
LINE
  8
0
 10
-20.6448
 20
290.423
 11
-21.0451
 21
289.939
  0
LINE
  8
0
 10
-21.0451
 20
289.939
 11
-21.3815
 21
289.409
  0
LINE
  8
0
 10
-21.3815
 20
289.409
 11
-21.6489
 21
288.841
  0
LINE
  8
0
 10
-21.6489
 20
288.841
 11
-21.8429
 21
288.243
  0
LINE
  8
0
 10
-21.8429
 20
288.243
 11
-21.9606
 21
287.627
  0
LINE
  8
0
 10
-21.9606
 20
287.627
 11
-22
 21
287
  0
LINE
  8
0
 10
-22
 20
287
 11
-22
 21
253
  0
LINE
  8
0
 10
-22
 20
253
 11
-21.9606
 21
252.373
  0
LINE
  8
0
 10
-21.9606
 20
252.373
 11
-21.8429
 21
251.757
  0
LINE
  8
0
 10
-21.8429
 20
251.757
 11
-21.6489
 21
251.159
  0
LINE
  8
0
 10
-21.6489
 20
251.159
 11
-21.3815
 21
250.591
  0
LINE
  8
0
 10
-21.3815
 20
250.591
 11
-21.0451
 21
250.061
  0
LINE
  8
0
 10
-21.0451
 20
250.061
 11
-20.6448
 21
249.577
  0
LINE
  8
0
 10
-20.6448
 20
249.577
 11
-20.1871
 21
249.147
  0
LINE
  8
0
 10
-20.1871
 20
249.147
 11
-19.6791
 21
248.778
  0
LINE
  8
0
 10
-19.6791
 20
248.778
 11
-19.1289
 21
248.476
  0
LINE
  8
0
 10
-19.1289
 20
248.476
 11
-18.5451
 21
248.245
  0
LINE
  8
0
 10
-18.5451
 20
248.245
 11
-17.9369
 21
248.089
  0
LINE
  8
0
 10
-17.9369
 20
248.089
 11
-17.3139
 21
248.01
  0
LINE
  8
0
 10
-17.3139
 20
248.01
 11
17.3139
 21
248.01
  0
LINE
  8
0
 10
17.3139
 20
248.01
 11
17.9369
 21
248.089
  0
LINE
  8
0
 10
14.8116
 20
282.006
 11
14.4379
 21
282.053
  0
LINE
  8
0
 10
14.4379
 20
282.053
 11
14.0729
 21
282.147
  0
LINE
  8
0
 10
14.0729
 20
282.147
 11
13.7227
 21
282.286
  0
LINE
  8
0
 10
13.7227
 20
282.286
 11
13.3925
 21
282.467
  0
LINE
  8
0
 10
13.3925
 20
282.467
 11
13.0877
 21
282.688
  0
LINE
  8
0
 10
13.0877
 20
282.688
 11
12.8131
 21
282.946
  0
LINE
  8
0
 10
12.8131
 20
282.946
 11
12.5729
 21
283.237
  0
LINE
  8
0
 10
12.5729
 20
283.237
 11
12.3711
 21
283.555
  0
LINE
  8
0
 10
12.3711
 20
283.555
 11
12.2107
 21
283.896
  0
LINE
  8
0
 10
12.2107
 20
283.896
 11
12.0942
 21
284.254
  0
LINE
  8
0
 10
12.0942
 20
284.254
 11
12.0237
 21
284.624
  0
LINE
  8
0
 10
12.0237
 20
284.624
 11
12
 21
285
  0
LINE
  8
0
 10
12
 20
285
 11
12.0237
 21
285.376
  0
LINE
  8
0
 10
12.0237
 20
285.376
 11
12.0942
 21
285.746
  0
LINE
  8
0
 10
12.0942
 20
285.746
 11
12.2107
 21
286.104
  0
LINE
  8
0
 10
12.2107
 20
286.104
 11
12.3711
 21
286.445
  0
LINE
  8
0
 10
12.3711
 20
286.445
 11
12.5729
 21
286.763
  0
LINE
  8
0
 10
12.5729
 20
286.763
 11
12.8131
 21
287.054
  0
LINE
  8
0
 10
12.8131
 20
287.054
 11
13.0877
 21
287.312
  0
LINE
  8
0
 10
13.0877
 20
287.312
 11
13.3925
 21
287.533
  0
LINE
  8
0
 10
13.3925
 20
287.533
 11
13.7227
 21
287.714
  0
LINE
  8
0
 10
13.7227
 20
287.714
 11
14.0729
 21
287.853
  0
LINE
  8
0
 10
14.0729
 20
287.853
 11
14.4379
 21
287.947
  0
LINE
  8
0
 10
14.4379
 20
287.947
 11
14.8116
 21
287.994
  0
LINE
  8
0
 10
14.8116
 20
287.994
 11
15.1884
 21
287.994
  0
LINE
  8
0
 10
15.1884
 20
287.994
 11
15.5621
 21
287.947
  0
LINE
  8
0
 10
15.5621
 20
287.947
 11
15.927
 21
287.853
  0
LINE
  8
0
 10
15.927
 20
287.853
 11
16.2773
 21
287.714
  0
LINE
  8
0
 10
16.2773
 20
287.714
 11
16.6075
 21
287.533
  0
LINE
  8
0
 10
16.6075
 20
287.533
 11
16.9123
 21
287.312
  0
LINE
  8
0
 10
16.9123
 20
287.312
 11
17.1869
 21
287.054
  0
LINE
  8
0
 10
17.1869
 20
287.054
 11
17.427
 21
286.763
  0
LINE
  8
0
 10
17.427
 20
286.763
 11
17.6289
 21
286.445
  0
LINE
  8
0
 10
17.6289
 20
286.445
 11
17.7893
 21
286.104
  0
LINE
  8
0
 10
17.7893
 20
286.104
 11
17.9057
 21
285.746
  0
LINE
  8
0
 10
17.9057
 20
285.746
 11
17.9763
 21
285.376
  0
LINE
  8
0
 10
17.9763
 20
285.376
 11
18
 21
285
  0
LINE
  8
0
 10
18
 20
285
 11
17.9763
 21
284.624
  0
LINE
  8
0
 10
17.9763
 20
284.624
 11
17.9057
 21
284.254
  0
LINE
  8
0
 10
17.9057
 20
284.254
 11
17.7893
 21
283.896
  0
LINE
  8
0
 10
17.7893
 20
283.896
 11
17.6289
 21
283.555
  0
LINE
  8
0
 10
17.6289
 20
283.555
 11
17.427
 21
283.237
  0
LINE
  8
0
 10
17.427
 20
283.237
 11
17.1869
 21
282.946
  0
LINE
  8
0
 10
17.1869
 20
282.946
 11
16.9123
 21
282.688
  0
LINE
  8
0
 10
16.9123
 20
282.688
 11
16.6075
 21
282.467
  0
LINE
  8
0
 10
16.6075
 20
282.467
 11
16.2773
 21
282.286
  0
LINE
  8
0
 10
16.2773
 20
282.286
 11
15.927
 21
282.147
  0
LINE
  8
0
 10
15.927
 20
282.147
 11
15.5621
 21
282.053
  0
LINE
  8
0
 10
15.5621
 20
282.053
 11
15.1884
 21
282.006
  0
LINE
  8
0
 10
15.1884
 20
282.006
 11
14.8116
 21
282.006
  0
LINE
  8
0
 10
-15.1884
 20
282.006
 11
-15.5621
 21
282.053
  0
LINE
  8
0
 10
-15.5621
 20
282.053
 11
-15.927
 21
282.147
  0
LINE
  8
0
 10
-15.927
 20
282.147
 11
-16.2773
 21
282.286
  0
LINE
  8
0
 10
-16.2773
 20
282.286
 11
-16.6075
 21
282.467
  0
LINE
  8
0
 10
-16.6075
 20
282.467
 11
-16.9123
 21
282.688
  0
LINE
  8
0
 10
-16.9123
 20
282.688
 11
-17.1869
 21
282.946
  0
LINE
  8
0
 10
-17.1869
 20
282.946
 11
-17.427
 21
283.237
  0
LINE
  8
0
 10
-17.427
 20
283.237
 11
-17.6289
 21
283.555
  0
LINE
  8
0
 10
-17.6289
 20
283.555
 11
-17.7893
 21
283.896
  0
LINE
  8
0
 10
-17.7893
 20
283.896
 11
-17.9057
 21
284.254
  0
LINE
  8
0
 10
-17.9057
 20
284.254
 11
-17.9763
 21
284.624
  0
LINE
  8
0
 10
-17.9763
 20
284.624
 11
-18
 21
285
  0
LINE
  8
0
 10
-18
 20
285
 11
-17.9763
 21
285.376
  0
LINE
  8
0
 10
-17.9763
 20
285.376
 11
-17.9057
 21
285.746
  0
LINE
  8
0
 10
-17.9057
 20
285.746
 11
-17.7893
 21
286.104
  0
LINE
  8
0
 10
-17.7893
 20
286.104
 11
-17.6289
 21
286.445
  0
LINE
  8
0
 10
-17.6289
 20
286.445
 11
-17.427
 21
286.763
  0
LINE
  8
0
 10
-17.427
 20
286.763
 11
-17.1869
 21
287.054
  0
LINE
  8
0
 10
-17.1869
 20
287.054
 11
-16.9123
 21
287.312
  0
LINE
  8
0
 10
-16.9123
 20
287.312
 11
-16.6075
 21
287.533
  0
LINE
  8
0
 10
-16.6075
 20
287.533
 11
-16.2773
 21
287.714
  0
LINE
  8
0
 10
-16.2773
 20
287.714
 11
-15.927
 21
287.853
  0
LINE
  8
0
 10
-15.927
 20
287.853
 11
-15.5621
 21
287.947
  0
LINE
  8
0
 10
-15.5621
 20
287.947
 11
-15.1884
 21
287.994
  0
LINE
  8
0
 10
-15.1884
 20
287.994
 11
-14.8116
 21
287.994
  0
LINE
  8
0
 10
-14.8116
 20
287.994
 11
-14.4379
 21
287.947
  0
LINE
  8
0
 10
-14.4379
 20
287.947
 11
-14.0729
 21
287.853
  0
LINE
  8
0
 10
-14.0729
 20
287.853
 11
-13.7227
 21
287.714
  0
LINE
  8
0
 10
-13.7227
 20
287.714
 11
-13.3925
 21
287.533
  0
LINE
  8
0
 10
-13.3925
 20
287.533
 11
-13.0877
 21
287.312
  0
LINE
  8
0
 10
-13.0877
 20
287.312
 11
-12.8131
 21
287.054
  0
LINE
  8
0
 10
-12.8131
 20
287.054
 11
-12.5729
 21
286.763
  0
LINE
  8
0
 10
-12.5729
 20
286.763
 11
-12.3711
 21
286.445
  0
LINE
  8
0
 10
-12.3711
 20
286.445
 11
-12.2107
 21
286.104
  0
LINE
  8
0
 10
-12.2107
 20
286.104
 11
-12.0942
 21
285.746
  0
LINE
  8
0
 10
-12.0942
 20
285.746
 11
-12.0237
 21
285.376
  0
LINE
  8
0
 10
-12.0237
 20
285.376
 11
-12
 21
285
  0
LINE
  8
0
 10
-12
 20
285
 11
-12.0237
 21
284.624
  0
LINE
  8
0
 10
-12.0237
 20
284.624
 11
-12.0942
 21
284.254
  0
LINE
  8
0
 10
-12.0942
 20
284.254
 11
-12.2107
 21
283.896
  0
LINE
  8
0
 10
-12.2107
 20
283.896
 11
-12.3711
 21
283.555
  0
LINE
  8
0
 10
-12.3711
 20
283.555
 11
-12.5729
 21
283.237
  0
LINE
  8
0
 10
-12.5729
 20
283.237
 11
-12.8131
 21
282.946
  0
LINE
  8
0
 10
-12.8131
 20
282.946
 11
-13.0877
 21
282.688
  0
LINE
  8
0
 10
-13.0877
 20
282.688
 11
-13.3925
 21
282.467
  0
LINE
  8
0
 10
-13.3925
 20
282.467
 11
-13.7227
 21
282.286
  0
LINE
  8
0
 10
-13.7227
 20
282.286
 11
-14.0729
 21
282.147
  0
LINE
  8
0
 10
-14.0729
 20
282.147
 11
-14.4379
 21
282.053
  0
LINE
  8
0
 10
-14.4379
 20
282.053
 11
-14.8116
 21
282.006
  0
LINE
  8
0
 10
-14.8116
 20
282.006
 11
-15.1884
 21
282.006
  0
LINE
  8
0
 10
-0.18837
 20
282.006
 11
-0.562134
 21
282.053
  0
LINE
  8
0
 10
-0.562134
 20
282.053
 11
-0.927048
 21
282.147
  0
LINE
  8
0
 10
-0.927048
 20
282.147
 11
-1.27733
 21
282.286
  0
LINE
  8
0
 10
-1.27733
 20
282.286
 11
-1.60747
 21
282.467
  0
LINE
  8
0
 10
-1.60747
 20
282.467
 11
-1.91226
 21
282.688
  0
LINE
  8
0
 10
-1.91226
 20
282.688
 11
-2.1869
 21
282.946
  0
LINE
  8
0
 10
-2.1869
 20
282.946
 11
-2.42705
 21
283.237
  0
LINE
  8
0
 10
-2.42705
 20
283.237
 11
-2.62891
 21
283.555
  0
LINE
  8
0
 10
-2.62891
 20
283.555
 11
-2.78932
 21
283.896
  0
LINE
  8
0
 10
-2.78932
 20
283.896
 11
-2.90575
 21
284.254
  0
LINE
  8
0
 10
-2.90575
 20
284.254
 11
-2.97633
 21
284.624
  0
LINE
  8
0
 10
-2.97633
 20
284.624
 11
-3
 21
285
  0
LINE
  8
0
 10
-3
 20
285
 11
-2.97633
 21
285.376
  0
LINE
  8
0
 10
-2.97633
 20
285.376
 11
-2.90575
 21
285.746
  0
LINE
  8
0
 10
-2.90575
 20
285.746
 11
-2.78932
 21
286.104
  0
LINE
  8
0
 10
-2.78932
 20
286.104
 11
-2.62891
 21
286.445
  0
LINE
  8
0
 10
-2.62891
 20
286.445
 11
-2.42705
 21
286.763
  0
LINE
  8
0
 10
-2.42705
 20
286.763
 11
-2.1869
 21
287.054
  0
LINE
  8
0
 10
-2.1869
 20
287.054
 11
-1.91226
 21
287.312
  0
LINE
  8
0
 10
-1.91226
 20
287.312
 11
-1.60747
 21
287.533
  0
LINE
  8
0
 10
-1.60747
 20
287.533
 11
-1.27733
 21
287.714
  0
LINE
  8
0
 10
-1.27733
 20
287.714
 11
-0.927048
 21
287.853
  0
LINE
  8
0
 10
-0.927048
 20
287.853
 11
-0.562134
 21
287.947
  0
LINE
  8
0
 10
-0.562134
 20
287.947
 11
-0.18837
 21
287.994
  0
LINE
  8
0
 10
-0.18837
 20
287.994
 11
0.18837
 21
287.994
  0
LINE
  8
0
 10
0.18837
 20
287.994
 11
0.562134
 21
287.947
  0
LINE
  8
0
 10
0.562134
 20
287.947
 11
0.927048
 21
287.853
  0
LINE
  8
0
 10
0.927048
 20
287.853
 11
1.27733
 21
287.714
  0
LINE
  8
0
 10
1.27733
 20
287.714
 11
1.60747
 21
287.533
  0
LINE
  8
0
 10
1.60747
 20
287.533
 11
1.91226
 21
287.312
  0
LINE
  8
0
 10
1.91226
 20
287.312
 11
2.1869
 21
287.054
  0
LINE
  8
0
 10
2.1869
 20
287.054
 11
2.42705
 21
286.763
  0
LINE
  8
0
 10
2.42705
 20
286.763
 11
2.62891
 21
286.445
  0
LINE
  8
0
 10
2.62891
 20
286.445
 11
2.78932
 21
286.104
  0
LINE
  8
0
 10
2.78932
 20
286.104
 11
2.90575
 21
285.746
  0
LINE
  8
0
 10
2.90575
 20
285.746
 11
2.97633
 21
285.376
  0
LINE
  8
0
 10
2.97633
 20
285.376
 11
3
 21
285
  0
LINE
  8
0
 10
3
 20
285
 11
2.97633
 21
284.624
  0
LINE
  8
0
 10
2.97633
 20
284.624
 11
2.90575
 21
284.254
  0
LINE
  8
0
 10
2.90575
 20
284.254
 11
2.78932
 21
283.896
  0
LINE
  8
0
 10
2.78932
 20
283.896
 11
2.62891
 21
283.555
  0
LINE
  8
0
 10
2.62891
 20
283.555
 11
2.42705
 21
283.237
  0
LINE
  8
0
 10
2.42705
 20
283.237
 11
2.1869
 21
282.946
  0
LINE
  8
0
 10
2.1869
 20
282.946
 11
1.91226
 21
282.688
  0
LINE
  8
0
 10
1.91226
 20
282.688
 11
1.60747
 21
282.467
  0
LINE
  8
0
 10
1.60747
 20
282.467
 11
1.27733
 21
282.286
  0
LINE
  8
0
 10
1.27733
 20
282.286
 11
0.927048
 21
282.147
  0
LINE
  8
0
 10
0.927048
 20
282.147
 11
0.562134
 21
282.053
  0
LINE
  8
0
 10
0.562134
 20
282.053
 11
0.18837
 21
282.006
  0
LINE
  8
0
 10
0.18837
 20
282.006
 11
-0.18837
 21
282.006
  0
LINE
  8
0
 10
-7.59418
 20
283.503
 11
-7.78107
 21
283.527
  0
LINE
  8
0
 10
-7.78107
 20
283.527
 11
-7.96352
 21
283.573
  0
LINE
  8
0
 10
-7.96352
 20
283.573
 11
-8.13866
 21
283.643
  0
LINE
  8
0
 10
-8.13866
 20
283.643
 11
-8.30373
 21
283.734
  0
LINE
  8
0
 10
-8.30373
 20
283.734
 11
-8.45613
 21
283.844
  0
LINE
  8
0
 10
-8.45613
 20
283.844
 11
-8.59344
 21
283.973
  0
LINE
  8
0
 10
-8.59344
 20
283.973
 11
-8.71352
 21
284.118
  0
LINE
  8
0
 10
-8.71352
 20
284.118
 11
-8.81445
 21
284.277
  0
LINE
  8
0
 10
-8.81445
 20
284.277
 11
-8.89465
 21
284.448
  0
LINE
  8
0
 10
-8.89465
 20
284.448
 11
-8.95287
 21
284.627
  0
LINE
  8
0
 10
-8.95287
 20
284.627
 11
-8.98816
 21
284.812
  0
LINE
  8
0
 10
-8.98816
 20
284.812
 11
-9
 21
285
  0
LINE
  8
0
 10
-9
 20
285
 11
-8.98816
 21
285.188
  0
LINE
  8
0
 10
-8.98816
 20
285.188
 11
-8.95287
 21
285.373
  0
LINE
  8
0
 10
-8.95287
 20
285.373
 11
-8.89465
 21
285.552
  0
LINE
  8
0
 10
-8.89465
 20
285.552
 11
-8.81445
 21
285.723
  0
LINE
  8
0
 10
-8.81445
 20
285.723
 11
-8.71352
 21
285.882
  0
LINE
  8
0
 10
-8.71352
 20
285.882
 11
-8.59344
 21
286.027
  0
LINE
  8
0
 10
-8.59344
 20
286.027
 11
-8.45613
 21
286.156
  0
LINE
  8
0
 10
-8.45613
 20
286.156
 11
-8.30373
 21
286.266
  0
LINE
  8
0
 10
-8.30373
 20
286.266
 11
-8.13866
 21
286.357
  0
LINE
  8
0
 10
-8.13866
 20
286.357
 11
-7.96352
 21
286.427
  0
LINE
  8
0
 10
-7.96352
 20
286.427
 11
-7.78107
 21
286.473
  0
LINE
  8
0
 10
-7.78107
 20
286.473
 11
-7.59418
 21
286.497
  0
LINE
  8
0
 10
-7.59418
 20
286.497
 11
-7.40581
 21
286.497
  0
LINE
  8
0
 10
-7.40581
 20
286.497
 11
-7.21892
 21
286.473
  0
LINE
  8
0
 10
-7.21892
 20
286.473
 11
-7.03647
 21
286.427
  0
LINE
  8
0
 10
-7.03647
 20
286.427
 11
-6.86133
 21
286.357
  0
LINE
  8
0
 10
-6.86133
 20
286.357
 11
-6.69626
 21
286.266
  0
LINE
  8
0
 10
-6.69626
 20
286.266
 11
-6.54385
 21
286.156
  0
LINE
  8
0
 10
-6.54385
 20
286.156
 11
-6.40654
 21
286.027
  0
LINE
  8
0
 10
-6.40654
 20
286.027
 11
-6.28647
 21
285.882
  0
LINE
  8
0
 10
-6.28647
 20
285.882
 11
-6.18553
 21
285.723
  0
LINE
  8
0
 10
-6.18553
 20
285.723
 11
-6.10533
 21
285.552
  0
LINE
  8
0
 10
-6.10533
 20
285.552
 11
-6.04712
 21
285.373
  0
LINE
  8
0
 10
-6.04712
 20
285.373
 11
-6.01183
 21
285.188
  0
LINE
  8
0
 10
-6.01183
 20
285.188
 11
-6
 21
285
  0
LINE
  8
0
 10
-6
 20
285
 11
-6.01183
 21
284.812
  0
LINE
  8
0
 10
-6.01183
 20
284.812
 11
-6.04712
 21
284.627
  0
LINE
  8
0
 10
-6.04712
 20
284.627
 11
-6.10533
 21
284.448
  0
LINE
  8
0
 10
-6.10533
 20
284.448
 11
-6.18553
 21
284.277
  0
LINE
  8
0
 10
-6.18553
 20
284.277
 11
-6.28647
 21
284.118
  0
LINE
  8
0
 10
-6.28647
 20
284.118
 11
-6.40654
 21
283.973
  0
LINE
  8
0
 10
-6.40654
 20
283.973
 11
-6.54385
 21
283.844
  0
LINE
  8
0
 10
-6.54385
 20
283.844
 11
-6.69626
 21
283.734
  0
LINE
  8
0
 10
-6.69626
 20
283.734
 11
-6.86133
 21
283.643
  0
LINE
  8
0
 10
-6.86133
 20
283.643
 11
-7.03647
 21
283.573
  0
LINE
  8
0
 10
-7.03647
 20
283.573
 11
-7.21892
 21
283.527
  0
LINE
  8
0
 10
-7.21892
 20
283.527
 11
-7.40581
 21
283.503
  0
LINE
  8
0
 10
-7.40581
 20
283.503
 11
-7.59418
 21
283.503
  0
LINE
  8
0
 10
7.40581
 20
283.503
 11
7.21892
 21
283.527
  0
LINE
  8
0
 10
7.21892
 20
283.527
 11
7.03647
 21
283.573
  0
LINE
  8
0
 10
7.03647
 20
283.573
 11
6.86133
 21
283.643
  0
LINE
  8
0
 10
6.86133
 20
283.643
 11
6.69626
 21
283.734
  0
LINE
  8
0
 10
6.69626
 20
283.734
 11
6.54385
 21
283.844
  0
LINE
  8
0
 10
6.54385
 20
283.844
 11
6.40654
 21
283.973
  0
LINE
  8
0
 10
6.40654
 20
283.973
 11
6.28647
 21
284.118
  0
LINE
  8
0
 10
6.28647
 20
284.118
 11
6.18553
 21
284.277
  0
LINE
  8
0
 10
6.18553
 20
284.277
 11
6.10533
 21
284.448
  0
LINE
  8
0
 10
6.10533
 20
284.448
 11
6.04712
 21
284.627
  0
LINE
  8
0
 10
6.04712
 20
284.627
 11
6.01183
 21
284.812
  0
LINE
  8
0
 10
6.01183
 20
284.812
 11
6
 21
285
  0
LINE
  8
0
 10
6
 20
285
 11
6.01183
 21
285.188
  0
LINE
  8
0
 10
6.01183
 20
285.188
 11
6.04712
 21
285.373
  0
LINE
  8
0
 10
6.04712
 20
285.373
 11
6.10533
 21
285.552
  0
LINE
  8
0
 10
6.10533
 20
285.552
 11
6.18553
 21
285.723
  0
LINE
  8
0
 10
6.18553
 20
285.723
 11
6.28647
 21
285.882
  0
LINE
  8
0
 10
6.28647
 20
285.882
 11
6.40654
 21
286.027
  0
LINE
  8
0
 10
6.40654
 20
286.027
 11
6.54385
 21
286.156
  0
LINE
  8
0
 10
6.54385
 20
286.156
 11
6.69626
 21
286.266
  0
LINE
  8
0
 10
6.69626
 20
286.266
 11
6.86133
 21
286.357
  0
LINE
  8
0
 10
6.86133
 20
286.357
 11
7.03647
 21
286.427
  0
LINE
  8
0
 10
7.03647
 20
286.427
 11
7.21892
 21
286.473
  0
LINE
  8
0
 10
7.21892
 20
286.473
 11
7.40581
 21
286.497
  0
LINE
  8
0
 10
7.40581
 20
286.497
 11
7.59418
 21
286.497
  0
LINE
  8
0
 10
7.59418
 20
286.497
 11
7.78107
 21
286.473
  0
LINE
  8
0
 10
7.78107
 20
286.473
 11
7.96352
 21
286.427
  0
LINE
  8
0
 10
7.96352
 20
286.427
 11
8.13866
 21
286.357
  0
LINE
  8
0
 10
8.13866
 20
286.357
 11
8.30373
 21
286.266
  0
LINE
  8
0
 10
8.30373
 20
286.266
 11
8.45613
 21
286.156
  0
LINE
  8
0
 10
8.45613
 20
286.156
 11
8.59344
 21
286.027
  0
LINE
  8
0
 10
8.59344
 20
286.027
 11
8.71352
 21
285.882
  0
LINE
  8
0
 10
8.71352
 20
285.882
 11
8.81445
 21
285.723
  0
LINE
  8
0
 10
8.81445
 20
285.723
 11
8.89465
 21
285.552
  0
LINE
  8
0
 10
8.89465
 20
285.552
 11
8.95287
 21
285.373
  0
LINE
  8
0
 10
8.95287
 20
285.373
 11
8.98816
 21
285.188
  0
LINE
  8
0
 10
8.98816
 20
285.188
 11
9
 21
285
  0
LINE
  8
0
 10
9
 20
285
 11
8.98816
 21
284.812
  0
LINE
  8
0
 10
8.98816
 20
284.812
 11
8.95287
 21
284.627
  0
LINE
  8
0
 10
8.95287
 20
284.627
 11
8.89465
 21
284.448
  0
LINE
  8
0
 10
8.89465
 20
284.448
 11
8.81445
 21
284.277
  0
LINE
  8
0
 10
8.81445
 20
284.277
 11
8.71352
 21
284.118
  0
LINE
  8
0
 10
8.71352
 20
284.118
 11
8.59344
 21
283.973
  0
LINE
  8
0
 10
8.59344
 20
283.973
 11
8.45613
 21
283.844
  0
LINE
  8
0
 10
8.45613
 20
283.844
 11
8.30373
 21
283.734
  0
LINE
  8
0
 10
8.30373
 20
283.734
 11
8.13866
 21
283.643
  0
LINE
  8
0
 10
8.13866
 20
283.643
 11
7.96352
 21
283.573
  0
LINE
  8
0
 10
7.96352
 20
283.573
 11
7.78107
 21
283.527
  0
LINE
  8
0
 10
7.78107
 20
283.527
 11
7.59418
 21
283.503
  0
LINE
  8
0
 10
7.59418
 20
283.503
 11
7.40581
 21
283.503
  0
LINE
  8
0
 10
-7.31395
 20
259.51
 11
-7.9369
 21
259.589
  0
LINE
  8
0
 10
-7.9369
 20
259.589
 11
-8.54507
 21
259.745
  0
LINE
  8
0
 10
-8.54507
 20
259.745
 11
-9.12889
 21
259.976
  0
LINE
  8
0
 10
-9.12889
 20
259.976
 11
-9.67912
 21
260.278
  0
LINE
  8
0
 10
-9.67912
 20
260.278
 11
-10.1871
 21
260.647
  0
LINE
  8
0
 10
-10.1871
 20
260.647
 11
-10.6448
 21
261.077
  0
LINE
  8
0
 10
-10.6448
 20
261.077
 11
-11.0451
 21
261.561
  0
LINE
  8
0
 10
-11.0451
 20
261.561
 11
-11.3815
 21
262.091
  0
LINE
  8
0
 10
-11.3815
 20
262.091
 11
-11.6489
 21
262.659
  0
LINE
  8
0
 10
-11.6489
 20
262.659
 11
-11.8429
 21
263.257
  0
LINE
  8
0
 10
-11.8429
 20
263.257
 11
-11.9606
 21
263.873
  0
LINE
  8
0
 10
-11.9606
 20
263.873
 11
-12
 21
264.5
  0
LINE
  8
0
 10
-12
 20
264.5
 11
-12
 21
275.5
  0
LINE
  8
0
 10
-12
 20
275.5
 11
-11.9606
 21
276.127
  0
LINE
  8
0
 10
-11.9606
 20
276.127
 11
-11.8429
 21
276.743
  0
LINE
  8
0
 10
-11.8429
 20
276.743
 11
-11.6489
 21
277.341
  0
LINE
  8
0
 10
-11.6489
 20
277.341
 11
-11.3815
 21
277.909
  0
LINE
  8
0
 10
-11.3815
 20
277.909
 11
-11.0451
 21
278.439
  0
LINE
  8
0
 10
-11.0451
 20
278.439
 11
-10.6448
 21
278.923
  0
LINE
  8
0
 10
-10.6448
 20
278.923
 11
-10.1871
 21
279.353
  0
LINE
  8
0
 10
-10.1871
 20
279.353
 11
-9.67912
 21
279.722
  0
LINE
  8
0
 10
-9.67912
 20
279.722
 11
-9.12889
 21
280.024
  0
LINE
  8
0
 10
-9.12889
 20
280.024
 11
-8.54507
 21
280.255
  0
LINE
  8
0
 10
-8.54507
 20
280.255
 11
-7.9369
 21
280.411
  0
LINE
  8
0
 10
-7.9369
 20
280.411
 11
-7.31395
 21
280.49
  0
LINE
  8
0
 10
-7.31395
 20
280.49
 11
7.31395
 21
280.49
  0
LINE
  8
0
 10
7.31395
 20
280.49
 11
7.9369
 21
280.411
  0
LINE
  8
0
 10
7.9369
 20
280.411
 11
8.54507
 21
280.255
  0
LINE
  8
0
 10
8.54507
 20
280.255
 11
9.12889
 21
280.024
  0
LINE
  8
0
 10
9.12889
 20
280.024
 11
9.67912
 21
279.722
  0
LINE
  8
0
 10
9.67912
 20
279.722
 11
10.1871
 21
279.353
  0
LINE
  8
0
 10
10.1871
 20
279.353
 11
10.6448
 21
278.923
  0
LINE
  8
0
 10
10.6448
 20
278.923
 11
11.0451
 21
278.439
  0
LINE
  8
0
 10
11.0451
 20
278.439
 11
11.3815
 21
277.909
  0
LINE
  8
0
 10
11.3815
 20
277.909
 11
11.6489
 21
277.341
  0
LINE
  8
0
 10
11.6489
 20
277.341
 11
11.8429
 21
276.743
  0
LINE
  8
0
 10
11.8429
 20
276.743
 11
11.9606
 21
276.127
  0
LINE
  8
0
 10
11.9606
 20
276.127
 11
12
 21
275.5
  0
LINE
  8
0
 10
12
 20
275.5
 11
12
 21
264.5
  0
LINE
  8
0
 10
12
 20
264.5
 11
11.9606
 21
263.873
  0
LINE
  8
0
 10
11.9606
 20
263.873
 11
11.8429
 21
263.257
  0
LINE
  8
0
 10
11.8429
 20
263.257
 11
11.6489
 21
262.659
  0
LINE
  8
0
 10
11.6489
 20
262.659
 11
11.3815
 21
262.091
  0
LINE
  8
0
 10
11.3815
 20
262.091
 11
11.0451
 21
261.561
  0
LINE
  8
0
 10
11.0451
 20
261.561
 11
10.6448
 21
261.077
  0
LINE
  8
0
 10
10.6448
 20
261.077
 11
10.1871
 21
260.647
  0
LINE
  8
0
 10
10.1871
 20
260.647
 11
9.67912
 21
260.278
  0
LINE
  8
0
 10
9.67912
 20
260.278
 11
9.12889
 21
259.976
  0
LINE
  8
0
 10
9.12889
 20
259.976
 11
8.54507
 21
259.745
  0
LINE
  8
0
 10
8.54507
 20
259.745
 11
7.9369
 21
259.589
  0
LINE
  8
0
 10
7.9369
 20
259.589
 11
7.31395
 21
259.51
  0
LINE
  8
0
 10
7.31395
 20
259.51
 11
-7.31395
 21
259.51
  0
LINE
  8
0
 10
14.9058
 20
276.003
 11
14.7189
 21
276.027
  0
LINE
  8
0
 10
14.7189
 20
276.027
 11
14.5365
 21
276.073
  0
LINE
  8
0
 10
14.5365
 20
276.073
 11
14.3613
 21
276.143
  0
LINE
  8
0
 10
14.3613
 20
276.143
 11
14.1963
 21
276.234
  0
LINE
  8
0
 10
14.1963
 20
276.234
 11
14.0439
 21
276.344
  0
LINE
  8
0
 10
14.0439
 20
276.344
 11
13.9065
 21
276.473
  0
LINE
  8
0
 10
13.9065
 20
276.473
 11
13.7865
 21
276.618
  0
LINE
  8
0
 10
13.7865
 20
276.618
 11
13.6855
 21
276.777
  0
LINE
  8
0
 10
13.6855
 20
276.777
 11
13.6053
 21
276.948
  0
LINE
  8
0
 10
13.6053
 20
276.948
 11
13.5471
 21
277.127
  0
LINE
  8
0
 10
13.5471
 20
277.127
 11
13.5118
 21
277.312
  0
LINE
  8
0
 10
13.5118
 20
277.312
 11
13.5
 21
277.5
  0
LINE
  8
0
 10
13.5
 20
277.5
 11
13.5118
 21
277.688
  0
LINE
  8
0
 10
13.5118
 20
277.688
 11
13.5471
 21
277.873
  0
LINE
  8
0
 10
13.5471
 20
277.873
 11
13.6053
 21
278.052
  0
LINE
  8
0
 10
13.6053
 20
278.052
 11
13.6855
 21
278.223
  0
LINE
  8
0
 10
13.6855
 20
278.223
 11
13.7865
 21
278.382
  0
LINE
  8
0
 10
13.7865
 20
278.382
 11
13.9065
 21
278.527
  0
LINE
  8
0
 10
13.9065
 20
278.527
 11
14.0439
 21
278.656
  0
LINE
  8
0
 10
14.0439
 20
278.656
 11
14.1963
 21
278.766
  0
LINE
  8
0
 10
14.1963
 20
278.766
 11
14.3613
 21
278.857
  0
LINE
  8
0
 10
14.3613
 20
278.857
 11
14.5365
 21
278.927
  0
LINE
  8
0
 10
14.5365
 20
278.927
 11
14.7189
 21
278.973
  0
LINE
  8
0
 10
14.7189
 20
278.973
 11
14.9058
 21
278.997
  0
LINE
  8
0
 10
14.9058
 20
278.997
 11
15.0942
 21
278.997
  0
LINE
  8
0
 10
15.0942
 20
278.997
 11
15.2811
 21
278.973
  0
LINE
  8
0
 10
15.2811
 20
278.973
 11
15.4635
 21
278.927
  0
LINE
  8
0
 10
15.4635
 20
278.927
 11
15.6387
 21
278.857
  0
LINE
  8
0
 10
15.6387
 20
278.857
 11
15.8037
 21
278.766
  0
LINE
  8
0
 10
15.8037
 20
278.766
 11
15.9561
 21
278.656
  0
LINE
  8
0
 10
15.9561
 20
278.656
 11
16.0934
 21
278.527
  0
LINE
  8
0
 10
16.0934
 20
278.527
 11
16.2135
 21
278.382
  0
LINE
  8
0
 10
16.2135
 20
278.382
 11
16.3145
 21
278.223
  0
LINE
  8
0
 10
16.3145
 20
278.223
 11
16.3947
 21
278.052
  0
LINE
  8
0
 10
16.3947
 20
278.052
 11
16.4529
 21
277.873
  0
LINE
  8
0
 10
16.4529
 20
277.873
 11
16.4882
 21
277.688
  0
LINE
  8
0
 10
16.4882
 20
277.688
 11
16.5
 21
277.5
  0
LINE
  8
0
 10
16.5
 20
277.5
 11
16.4882
 21
277.312
  0
LINE
  8
0
 10
16.4882
 20
277.312
 11
16.4529
 21
277.127
  0
LINE
  8
0
 10
16.4529
 20
277.127
 11
16.3947
 21
276.948
  0
LINE
  8
0
 10
16.3947
 20
276.948
 11
16.3145
 21
276.777
  0
LINE
  8
0
 10
16.3145
 20
276.777
 11
16.2135
 21
276.618
  0
LINE
  8
0
 10
16.2135
 20
276.618
 11
16.0934
 21
276.473
  0
LINE
  8
0
 10
16.0934
 20
276.473
 11
15.9561
 21
276.344
  0
LINE
  8
0
 10
15.9561
 20
276.344
 11
15.8037
 21
276.234
  0
LINE
  8
0
 10
15.8037
 20
276.234
 11
15.6387
 21
276.143
  0
LINE
  8
0
 10
15.6387
 20
276.143
 11
15.4635
 21
276.073
  0
LINE
  8
0
 10
15.4635
 20
276.073
 11
15.2811
 21
276.027
  0
LINE
  8
0
 10
15.2811
 20
276.027
 11
15.0942
 21
276.003
  0
LINE
  8
0
 10
15.0942
 20
276.003
 11
14.9058
 21
276.003
  0
LINE
  8
0
 10
-15.0942
 20
276.003
 11
-15.2811
 21
276.027
  0
LINE
  8
0
 10
-15.2811
 20
276.027
 11
-15.4635
 21
276.073
  0
LINE
  8
0
 10
-15.4635
 20
276.073
 11
-15.6387
 21
276.143
  0
LINE
  8
0
 10
-15.6387
 20
276.143
 11
-15.8037
 21
276.234
  0
LINE
  8
0
 10
-15.8037
 20
276.234
 11
-15.9561
 21
276.344
  0
LINE
  8
0
 10
-15.9561
 20
276.344
 11
-16.0934
 21
276.473
  0
LINE
  8
0
 10
-16.0934
 20
276.473
 11
-16.2135
 21
276.618
  0
LINE
  8
0
 10
-16.2135
 20
276.618
 11
-16.3145
 21
276.777
  0
LINE
  8
0
 10
-16.3145
 20
276.777
 11
-16.3947
 21
276.948
  0
LINE
  8
0
 10
-16.3947
 20
276.948
 11
-16.4529
 21
277.127
  0
LINE
  8
0
 10
-16.4529
 20
277.127
 11
-16.4882
 21
277.312
  0
LINE
  8
0
 10
-16.4882
 20
277.312
 11
-16.5
 21
277.5
  0
LINE
  8
0
 10
-16.5
 20
277.5
 11
-16.4882
 21
277.688
  0
LINE
  8
0
 10
-16.4882
 20
277.688
 11
-16.4529
 21
277.873
  0
LINE
  8
0
 10
-16.4529
 20
277.873
 11
-16.3947
 21
278.052
  0
LINE
  8
0
 10
-16.3947
 20
278.052
 11
-16.3145
 21
278.223
  0
LINE
  8
0
 10
-16.3145
 20
278.223
 11
-16.2135
 21
278.382
  0
LINE
  8
0
 10
-16.2135
 20
278.382
 11
-16.0934
 21
278.527
  0
LINE
  8
0
 10
-16.0934
 20
278.527
 11
-15.9561
 21
278.656
  0
LINE
  8
0
 10
-15.9561
 20
278.656
 11
-15.8037
 21
278.766
  0
LINE
  8
0
 10
-15.8037
 20
278.766
 11
-15.6387
 21
278.857
  0
LINE
  8
0
 10
-15.6387
 20
278.857
 11
-15.4635
 21
278.927
  0
LINE
  8
0
 10
-15.4635
 20
278.927
 11
-15.2811
 21
278.973
  0
LINE
  8
0
 10
-15.2811
 20
278.973
 11
-15.0942
 21
278.997
  0
LINE
  8
0
 10
-15.0942
 20
278.997
 11
-14.9058
 21
278.997
  0
LINE
  8
0
 10
-14.9058
 20
278.997
 11
-14.7189
 21
278.973
  0
LINE
  8
0
 10
-14.7189
 20
278.973
 11
-14.5365
 21
278.927
  0
LINE
  8
0
 10
-14.5365
 20
278.927
 11
-14.3613
 21
278.857
  0
LINE
  8
0
 10
-14.3613
 20
278.857
 11
-14.1963
 21
278.766
  0
LINE
  8
0
 10
-14.1963
 20
278.766
 11
-14.0439
 21
278.656
  0
LINE
  8
0
 10
-14.0439
 20
278.656
 11
-13.9065
 21
278.527
  0
LINE
  8
0
 10
-13.9065
 20
278.527
 11
-13.7865
 21
278.382
  0
LINE
  8
0
 10
-13.7865
 20
278.382
 11
-13.6855
 21
278.223
  0
LINE
  8
0
 10
-13.6855
 20
278.223
 11
-13.6053
 21
278.052
  0
LINE
  8
0
 10
-13.6053
 20
278.052
 11
-13.5471
 21
277.873
  0
LINE
  8
0
 10
-13.5471
 20
277.873
 11
-13.5118
 21
277.688
  0
LINE
  8
0
 10
-13.5118
 20
277.688
 11
-13.5
 21
277.5
  0
LINE
  8
0
 10
-13.5
 20
277.5
 11
-13.5118
 21
277.312
  0
LINE
  8
0
 10
-13.5118
 20
277.312
 11
-13.5471
 21
277.127
  0
LINE
  8
0
 10
-13.5471
 20
277.127
 11
-13.6053
 21
276.948
  0
LINE
  8
0
 10
-13.6053
 20
276.948
 11
-13.6855
 21
276.777
  0
LINE
  8
0
 10
-13.6855
 20
276.777
 11
-13.7865
 21
276.618
  0
LINE
  8
0
 10
-13.7865
 20
276.618
 11
-13.9065
 21
276.473
  0
LINE
  8
0
 10
-13.9065
 20
276.473
 11
-14.0439
 21
276.344
  0
LINE
  8
0
 10
-14.0439
 20
276.344
 11
-14.1963
 21
276.234
  0
LINE
  8
0
 10
-14.1963
 20
276.234
 11
-14.3613
 21
276.143
  0
LINE
  8
0
 10
-14.3613
 20
276.143
 11
-14.5365
 21
276.073
  0
LINE
  8
0
 10
-14.5365
 20
276.073
 11
-14.7189
 21
276.027
  0
LINE
  8
0
 10
-14.7189
 20
276.027
 11
-14.9058
 21
276.003
  0
LINE
  8
0
 10
-14.9058
 20
276.003
 11
-15.0942
 21
276.003
  0
LINE
  8
0
 10
14.9058
 20
268.503
 11
14.7189
 21
268.527
  0
LINE
  8
0
 10
14.7189
 20
268.527
 11
14.5365
 21
268.573
  0
LINE
  8
0
 10
14.5365
 20
268.573
 11
14.3613
 21
268.643
  0
LINE
  8
0
 10
14.3613
 20
268.643
 11
14.1963
 21
268.734
  0
LINE
  8
0
 10
14.1963
 20
268.734
 11
14.0439
 21
268.844
  0
LINE
  8
0
 10
14.0439
 20
268.844
 11
13.9065
 21
268.973
  0
LINE
  8
0
 10
13.9065
 20
268.973
 11
13.7865
 21
269.118
  0
LINE
  8
0
 10
13.7865
 20
269.118
 11
13.6855
 21
269.277
  0
LINE
  8
0
 10
13.6855
 20
269.277
 11
13.6053
 21
269.448
  0
LINE
  8
0
 10
13.6053
 20
269.448
 11
13.5471
 21
269.627
  0
LINE
  8
0
 10
13.5471
 20
269.627
 11
13.5118
 21
269.812
  0
LINE
  8
0
 10
13.5118
 20
269.812
 11
13.5
 21
270
  0
LINE
  8
0
 10
13.5
 20
270
 11
13.5118
 21
270.188
  0
LINE
  8
0
 10
13.5118
 20
270.188
 11
13.5471
 21
270.373
  0
LINE
  8
0
 10
13.5471
 20
270.373
 11
13.6053
 21
270.552
  0
LINE
  8
0
 10
13.6053
 20
270.552
 11
13.6855
 21
270.723
  0
LINE
  8
0
 10
13.6855
 20
270.723
 11
13.7865
 21
270.882
  0
LINE
  8
0
 10
13.7865
 20
270.882
 11
13.9065
 21
271.027
  0
LINE
  8
0
 10
13.9065
 20
271.027
 11
14.0439
 21
271.156
  0
LINE
  8
0
 10
14.0439
 20
271.156
 11
14.1963
 21
271.266
  0
LINE
  8
0
 10
14.1963
 20
271.266
 11
14.3613
 21
271.357
  0
LINE
  8
0
 10
14.3613
 20
271.357
 11
14.5365
 21
271.427
  0
LINE
  8
0
 10
14.5365
 20
271.427
 11
14.7189
 21
271.473
  0
LINE
  8
0
 10
14.7189
 20
271.473
 11
14.9058
 21
271.497
  0
LINE
  8
0
 10
14.9058
 20
271.497
 11
15.0942
 21
271.497
  0
LINE
  8
0
 10
15.0942
 20
271.497
 11
15.2811
 21
271.473
  0
LINE
  8
0
 10
15.2811
 20
271.473
 11
15.4635
 21
271.427
  0
LINE
  8
0
 10
15.4635
 20
271.427
 11
15.6387
 21
271.357
  0
LINE
  8
0
 10
15.6387
 20
271.357
 11
15.8037
 21
271.266
  0
LINE
  8
0
 10
15.8037
 20
271.266
 11
15.9561
 21
271.156
  0
LINE
  8
0
 10
15.9561
 20
271.156
 11
16.0934
 21
271.027
  0
LINE
  8
0
 10
16.0934
 20
271.027
 11
16.2135
 21
270.882
  0
LINE
  8
0
 10
16.2135
 20
270.882
 11
16.3145
 21
270.723
  0
LINE
  8
0
 10
16.3145
 20
270.723
 11
16.3947
 21
270.552
  0
LINE
  8
0
 10
16.3947
 20
270.552
 11
16.4529
 21
270.373
  0
LINE
  8
0
 10
16.4529
 20
270.373
 11
16.4882
 21
270.188
  0
LINE
  8
0
 10
16.4882
 20
270.188
 11
16.5
 21
270
  0
LINE
  8
0
 10
16.5
 20
270
 11
16.4882
 21
269.812
  0
LINE
  8
0
 10
16.4882
 20
269.812
 11
16.4529
 21
269.627
  0
LINE
  8
0
 10
16.4529
 20
269.627
 11
16.3947
 21
269.448
  0
LINE
  8
0
 10
16.3947
 20
269.448
 11
16.3145
 21
269.277
  0
LINE
  8
0
 10
16.3145
 20
269.277
 11
16.2135
 21
269.118
  0
LINE
  8
0
 10
16.2135
 20
269.118
 11
16.0934
 21
268.973
  0
LINE
  8
0
 10
16.0934
 20
268.973
 11
15.9561
 21
268.844
  0
LINE
  8
0
 10
15.9561
 20
268.844
 11
15.8037
 21
268.734
  0
LINE
  8
0
 10
15.8037
 20
268.734
 11
15.6387
 21
268.643
  0
LINE
  8
0
 10
15.6387
 20
268.643
 11
15.4635
 21
268.573
  0
LINE
  8
0
 10
15.4635
 20
268.573
 11
15.2811
 21
268.527
  0
LINE
  8
0
 10
15.2811
 20
268.527
 11
15.0942
 21
268.503
  0
LINE
  8
0
 10
15.0942
 20
268.503
 11
14.9058
 21
268.503
  0
LINE
  8
0
 10
-15.0942
 20
268.503
 11
-15.2811
 21
268.527
  0
LINE
  8
0
 10
-15.2811
 20
268.527
 11
-15.4635
 21
268.573
  0
LINE
  8
0
 10
-15.4635
 20
268.573
 11
-15.6387
 21
268.643
  0
LINE
  8
0
 10
-15.6387
 20
268.643
 11
-15.8037
 21
268.734
  0
LINE
  8
0
 10
-15.8037
 20
268.734
 11
-15.9561
 21
268.844
  0
LINE
  8
0
 10
-15.9561
 20
268.844
 11
-16.0934
 21
268.973
  0
LINE
  8
0
 10
-16.0934
 20
268.973
 11
-16.2135
 21
269.118
  0
LINE
  8
0
 10
-16.2135
 20
269.118
 11
-16.3145
 21
269.277
  0
LINE
  8
0
 10
-16.3145
 20
269.277
 11
-16.3947
 21
269.448
  0
LINE
  8
0
 10
-16.3947
 20
269.448
 11
-16.4529
 21
269.627
  0
LINE
  8
0
 10
-16.4529
 20
269.627
 11
-16.4882
 21
269.812
  0
LINE
  8
0
 10
-16.4882
 20
269.812
 11
-16.5
 21
270
  0
LINE
  8
0
 10
-16.5
 20
270
 11
-16.4882
 21
270.188
  0
LINE
  8
0
 10
-16.4882
 20
270.188
 11
-16.4529
 21
270.373
  0
LINE
  8
0
 10
-16.4529
 20
270.373
 11
-16.3947
 21
270.552
  0
LINE
  8
0
 10
-16.3947
 20
270.552
 11
-16.3145
 21
270.723
  0
LINE
  8
0
 10
-16.3145
 20
270.723
 11
-16.2135
 21
270.882
  0
LINE
  8
0
 10
-16.2135
 20
270.882
 11
-16.0934
 21
271.027
  0
LINE
  8
0
 10
-16.0934
 20
271.027
 11
-15.9561
 21
271.156
  0
LINE
  8
0
 10
-15.9561
 20
271.156
 11
-15.8037
 21
271.266
  0
LINE
  8
0
 10
-15.8037
 20
271.266
 11
-15.6387
 21
271.357
  0
LINE
  8
0
 10
-15.6387
 20
271.357
 11
-15.4635
 21
271.427
  0
LINE
  8
0
 10
-15.4635
 20
271.427
 11
-15.2811
 21
271.473
  0
LINE
  8
0
 10
-15.2811
 20
271.473
 11
-15.0942
 21
271.497
  0
LINE
  8
0
 10
-15.0942
 20
271.497
 11
-14.9058
 21
271.497
  0
LINE
  8
0
 10
-14.9058
 20
271.497
 11
-14.7189
 21
271.473
  0
LINE
  8
0
 10
-14.7189
 20
271.473
 11
-14.5365
 21
271.427
  0
LINE
  8
0
 10
-14.5365
 20
271.427
 11
-14.3613
 21
271.357
  0
LINE
  8
0
 10
-14.3613
 20
271.357
 11
-14.1963
 21
271.266
  0
LINE
  8
0
 10
-14.1963
 20
271.266
 11
-14.0439
 21
271.156
  0
LINE
  8
0
 10
-14.0439
 20
271.156
 11
-13.9065
 21
271.027
  0
LINE
  8
0
 10
-13.9065
 20
271.027
 11
-13.7865
 21
270.882
  0
LINE
  8
0
 10
-13.7865
 20
270.882
 11
-13.6855
 21
270.723
  0
LINE
  8
0
 10
-13.6855
 20
270.723
 11
-13.6053
 21
270.552
  0
LINE
  8
0
 10
-13.6053
 20
270.552
 11
-13.5471
 21
270.373
  0
LINE
  8
0
 10
-13.5471
 20
270.373
 11
-13.5118
 21
270.188
  0
LINE
  8
0
 10
-13.5118
 20
270.188
 11
-13.5
 21
270
  0
LINE
  8
0
 10
-13.5
 20
270
 11
-13.5118
 21
269.812
  0
LINE
  8
0
 10
-13.5118
 20
269.812
 11
-13.5471
 21
269.627
  0
LINE
  8
0
 10
-13.5471
 20
269.627
 11
-13.6053
 21
269.448
  0
LINE
  8
0
 10
-13.6053
 20
269.448
 11
-13.6855
 21
269.277
  0
LINE
  8
0
 10
-13.6855
 20
269.277
 11
-13.7865
 21
269.118
  0
LINE
  8
0
 10
-13.7865
 20
269.118
 11
-13.9065
 21
268.973
  0
LINE
  8
0
 10
-13.9065
 20
268.973
 11
-14.0439
 21
268.844
  0
LINE
  8
0
 10
-14.0439
 20
268.844
 11
-14.1963
 21
268.734
  0
LINE
  8
0
 10
-14.1963
 20
268.734
 11
-14.3613
 21
268.643
  0
LINE
  8
0
 10
-14.3613
 20
268.643
 11
-14.5365
 21
268.573
  0
LINE
  8
0
 10
-14.5365
 20
268.573
 11
-14.7189
 21
268.527
  0
LINE
  8
0
 10
-14.7189
 20
268.527
 11
-14.9058
 21
268.503
  0
LINE
  8
0
 10
-14.9058
 20
268.503
 11
-15.0942
 21
268.503
  0
LINE
  8
0
 10
14.9058
 20
261.003
 11
14.7189
 21
261.027
  0
LINE
  8
0
 10
14.7189
 20
261.027
 11
14.5365
 21
261.073
  0
LINE
  8
0
 10
14.5365
 20
261.073
 11
14.3613
 21
261.143
  0
LINE
  8
0
 10
14.3613
 20
261.143
 11
14.1963
 21
261.234
  0
LINE
  8
0
 10
14.1963
 20
261.234
 11
14.0439
 21
261.344
  0
LINE
  8
0
 10
14.0439
 20
261.344
 11
13.9065
 21
261.473
  0
LINE
  8
0
 10
13.9065
 20
261.473
 11
13.7865
 21
261.618
  0
LINE
  8
0
 10
13.7865
 20
261.618
 11
13.6855
 21
261.777
  0
LINE
  8
0
 10
13.6855
 20
261.777
 11
13.6053
 21
261.948
  0
LINE
  8
0
 10
13.6053
 20
261.948
 11
13.5471
 21
262.127
  0
LINE
  8
0
 10
13.5471
 20
262.127
 11
13.5118
 21
262.312
  0
LINE
  8
0
 10
13.5118
 20
262.312
 11
13.5
 21
262.5
  0
LINE
  8
0
 10
13.5
 20
262.5
 11
13.5118
 21
262.688
  0
LINE
  8
0
 10
13.5118
 20
262.688
 11
13.5471
 21
262.873
  0
LINE
  8
0
 10
13.5471
 20
262.873
 11
13.6053
 21
263.052
  0
LINE
  8
0
 10
13.6053
 20
263.052
 11
13.6855
 21
263.223
  0
LINE
  8
0
 10
13.6855
 20
263.223
 11
13.7865
 21
263.382
  0
LINE
  8
0
 10
13.7865
 20
263.382
 11
13.9065
 21
263.527
  0
LINE
  8
0
 10
13.9065
 20
263.527
 11
14.0439
 21
263.656
  0
LINE
  8
0
 10
14.0439
 20
263.656
 11
14.1963
 21
263.766
  0
LINE
  8
0
 10
14.1963
 20
263.766
 11
14.3613
 21
263.857
  0
LINE
  8
0
 10
14.3613
 20
263.857
 11
14.5365
 21
263.927
  0
LINE
  8
0
 10
14.5365
 20
263.927
 11
14.7189
 21
263.973
  0
LINE
  8
0
 10
14.7189
 20
263.973
 11
14.9058
 21
263.997
  0
LINE
  8
0
 10
14.9058
 20
263.997
 11
15.0942
 21
263.997
  0
LINE
  8
0
 10
15.0942
 20
263.997
 11
15.2811
 21
263.973
  0
LINE
  8
0
 10
15.2811
 20
263.973
 11
15.4635
 21
263.927
  0
LINE
  8
0
 10
15.4635
 20
263.927
 11
15.6387
 21
263.857
  0
LINE
  8
0
 10
15.6387
 20
263.857
 11
15.8037
 21
263.766
  0
LINE
  8
0
 10
15.8037
 20
263.766
 11
15.9561
 21
263.656
  0
LINE
  8
0
 10
15.9561
 20
263.656
 11
16.0934
 21
263.527
  0
LINE
  8
0
 10
16.0934
 20
263.527
 11
16.2135
 21
263.382
  0
LINE
  8
0
 10
16.2135
 20
263.382
 11
16.3145
 21
263.223
  0
LINE
  8
0
 10
16.3145
 20
263.223
 11
16.3947
 21
263.052
  0
LINE
  8
0
 10
16.3947
 20
263.052
 11
16.4529
 21
262.873
  0
LINE
  8
0
 10
16.4529
 20
262.873
 11
16.4882
 21
262.688
  0
LINE
  8
0
 10
16.4882
 20
262.688
 11
16.5
 21
262.5
  0
LINE
  8
0
 10
16.5
 20
262.5
 11
16.4882
 21
262.312
  0
LINE
  8
0
 10
16.4882
 20
262.312
 11
16.4529
 21
262.127
  0
LINE
  8
0
 10
16.4529
 20
262.127
 11
16.3947
 21
261.948
  0
LINE
  8
0
 10
16.3947
 20
261.948
 11
16.3145
 21
261.777
  0
LINE
  8
0
 10
16.3145
 20
261.777
 11
16.2135
 21
261.618
  0
LINE
  8
0
 10
16.2135
 20
261.618
 11
16.0934
 21
261.473
  0
LINE
  8
0
 10
16.0934
 20
261.473
 11
15.9561
 21
261.344
  0
LINE
  8
0
 10
15.9561
 20
261.344
 11
15.8037
 21
261.234
  0
LINE
  8
0
 10
15.8037
 20
261.234
 11
15.6387
 21
261.143
  0
LINE
  8
0
 10
15.6387
 20
261.143
 11
15.4635
 21
261.073
  0
LINE
  8
0
 10
15.4635
 20
261.073
 11
15.2811
 21
261.027
  0
LINE
  8
0
 10
15.2811
 20
261.027
 11
15.0942
 21
261.003
  0
LINE
  8
0
 10
15.0942
 20
261.003
 11
14.9058
 21
261.003
  0
LINE
  8
0
 10
-15.0942
 20
261.003
 11
-15.2811
 21
261.027
  0
LINE
  8
0
 10
-15.2811
 20
261.027
 11
-15.4635
 21
261.073
  0
LINE
  8
0
 10
-15.4635
 20
261.073
 11
-15.6387
 21
261.143
  0
LINE
  8
0
 10
-15.6387
 20
261.143
 11
-15.8037
 21
261.234
  0
LINE
  8
0
 10
-15.8037
 20
261.234
 11
-15.9561
 21
261.344
  0
LINE
  8
0
 10
-15.9561
 20
261.344
 11
-16.0934
 21
261.473
  0
LINE
  8
0
 10
-16.0934
 20
261.473
 11
-16.2135
 21
261.618
  0
LINE
  8
0
 10
-16.2135
 20
261.618
 11
-16.3145
 21
261.777
  0
LINE
  8
0
 10
-16.3145
 20
261.777
 11
-16.3947
 21
261.948
  0
LINE
  8
0
 10
-16.3947
 20
261.948
 11
-16.4529
 21
262.127
  0
LINE
  8
0
 10
-16.4529
 20
262.127
 11
-16.4882
 21
262.312
  0
LINE
  8
0
 10
-16.4882
 20
262.312
 11
-16.5
 21
262.5
  0
LINE
  8
0
 10
-16.5
 20
262.5
 11
-16.4882
 21
262.688
  0
LINE
  8
0
 10
-16.4882
 20
262.688
 11
-16.4529
 21
262.873
  0
LINE
  8
0
 10
-16.4529
 20
262.873
 11
-16.3947
 21
263.052
  0
LINE
  8
0
 10
-16.3947
 20
263.052
 11
-16.3145
 21
263.223
  0
LINE
  8
0
 10
-16.3145
 20
263.223
 11
-16.2135
 21
263.382
  0
LINE
  8
0
 10
-16.2135
 20
263.382
 11
-16.0934
 21
263.527
  0
LINE
  8
0
 10
-16.0934
 20
263.527
 11
-15.9561
 21
263.656
  0
LINE
  8
0
 10
-15.9561
 20
263.656
 11
-15.8037
 21
263.766
  0
LINE
  8
0
 10
-15.8037
 20
263.766
 11
-15.6387
 21
263.857
  0
LINE
  8
0
 10
-15.6387
 20
263.857
 11
-15.4635
 21
263.927
  0
LINE
  8
0
 10
-15.4635
 20
263.927
 11
-15.2811
 21
263.973
  0
LINE
  8
0
 10
-15.2811
 20
263.973
 11
-15.0942
 21
263.997
  0
LINE
  8
0
 10
-15.0942
 20
263.997
 11
-14.9058
 21
263.997
  0
LINE
  8
0
 10
-14.9058
 20
263.997
 11
-14.7189
 21
263.973
  0
LINE
  8
0
 10
-14.7189
 20
263.973
 11
-14.5365
 21
263.927
  0
LINE
  8
0
 10
-14.5365
 20
263.927
 11
-14.3613
 21
263.857
  0
LINE
  8
0
 10
-14.3613
 20
263.857
 11
-14.1963
 21
263.766
  0
LINE
  8
0
 10
-14.1963
 20
263.766
 11
-14.0439
 21
263.656
  0
LINE
  8
0
 10
-14.0439
 20
263.656
 11
-13.9065
 21
263.527
  0
LINE
  8
0
 10
-13.9065
 20
263.527
 11
-13.7865
 21
263.382
  0
LINE
  8
0
 10
-13.7865
 20
263.382
 11
-13.6855
 21
263.223
  0
LINE
  8
0
 10
-13.6855
 20
263.223
 11
-13.6053
 21
263.052
  0
LINE
  8
0
 10
-13.6053
 20
263.052
 11
-13.5471
 21
262.873
  0
LINE
  8
0
 10
-13.5471
 20
262.873
 11
-13.5118
 21
262.688
  0
LINE
  8
0
 10
-13.5118
 20
262.688
 11
-13.5
 21
262.5
  0
LINE
  8
0
 10
-13.5
 20
262.5
 11
-13.5118
 21
262.312
  0
LINE
  8
0
 10
-13.5118
 20
262.312
 11
-13.5471
 21
262.127
  0
LINE
  8
0
 10
-13.5471
 20
262.127
 11
-13.6053
 21
261.948
  0
LINE
  8
0
 10
-13.6053
 20
261.948
 11
-13.6855
 21
261.777
  0
LINE
  8
0
 10
-13.6855
 20
261.777
 11
-13.7865
 21
261.618
  0
LINE
  8
0
 10
-13.7865
 20
261.618
 11
-13.9065
 21
261.473
  0
LINE
  8
0
 10
-13.9065
 20
261.473
 11
-14.0439
 21
261.344
  0
LINE
  8
0
 10
-14.0439
 20
261.344
 11
-14.1963
 21
261.234
  0
LINE
  8
0
 10
-14.1963
 20
261.234
 11
-14.3613
 21
261.143
  0
LINE
  8
0
 10
-14.3613
 20
261.143
 11
-14.5365
 21
261.073
  0
LINE
  8
0
 10
-14.5365
 20
261.073
 11
-14.7189
 21
261.027
  0
LINE
  8
0
 10
-14.7189
 20
261.027
 11
-14.9058
 21
261.003
  0
LINE
  8
0
 10
-14.9058
 20
261.003
 11
-15.0942
 21
261.003
  0
LINE
  8
0
 10
14.8116
 20
252.006
 11
14.4379
 21
252.053
  0
LINE
  8
0
 10
14.4379
 20
252.053
 11
14.0729
 21
252.147
  0
LINE
  8
0
 10
14.0729
 20
252.147
 11
13.7227
 21
252.286
  0
LINE
  8
0
 10
13.7227
 20
252.286
 11
13.3925
 21
252.467
  0
LINE
  8
0
 10
13.3925
 20
252.467
 11
13.0877
 21
252.688
  0
LINE
  8
0
 10
13.0877
 20
252.688
 11
12.8131
 21
252.946
  0
LINE
  8
0
 10
12.8131
 20
252.946
 11
12.5729
 21
253.237
  0
LINE
  8
0
 10
12.5729
 20
253.237
 11
12.3711
 21
253.555
  0
LINE
  8
0
 10
12.3711
 20
253.555
 11
12.2107
 21
253.896
  0
LINE
  8
0
 10
12.2107
 20
253.896
 11
12.0942
 21
254.254
  0
LINE
  8
0
 10
12.0942
 20
254.254
 11
12.0237
 21
254.624
  0
LINE
  8
0
 10
12.0237
 20
254.624
 11
12
 21
255
  0
LINE
  8
0
 10
12
 20
255
 11
12.0237
 21
255.376
  0
LINE
  8
0
 10
12.0237
 20
255.376
 11
12.0942
 21
255.746
  0
LINE
  8
0
 10
12.0942
 20
255.746
 11
12.2107
 21
256.104
  0
LINE
  8
0
 10
12.2107
 20
256.104
 11
12.3711
 21
256.445
  0
LINE
  8
0
 10
12.3711
 20
256.445
 11
12.5729
 21
256.763
  0
LINE
  8
0
 10
12.5729
 20
256.763
 11
12.8131
 21
257.054
  0
LINE
  8
0
 10
12.8131
 20
257.054
 11
13.0877
 21
257.312
  0
LINE
  8
0
 10
13.0877
 20
257.312
 11
13.3925
 21
257.533
  0
LINE
  8
0
 10
13.3925
 20
257.533
 11
13.7227
 21
257.714
  0
LINE
  8
0
 10
13.7227
 20
257.714
 11
14.0729
 21
257.853
  0
LINE
  8
0
 10
14.0729
 20
257.853
 11
14.4379
 21
257.947
  0
LINE
  8
0
 10
14.4379
 20
257.947
 11
14.8116
 21
257.994
  0
LINE
  8
0
 10
14.8116
 20
257.994
 11
15.1884
 21
257.994
  0
LINE
  8
0
 10
15.1884
 20
257.994
 11
15.5621
 21
257.947
  0
LINE
  8
0
 10
15.5621
 20
257.947
 11
15.927
 21
257.853
  0
LINE
  8
0
 10
15.927
 20
257.853
 11
16.2773
 21
257.714
  0
LINE
  8
0
 10
16.2773
 20
257.714
 11
16.6075
 21
257.533
  0
LINE
  8
0
 10
16.6075
 20
257.533
 11
16.9123
 21
257.312
  0
LINE
  8
0
 10
16.9123
 20
257.312
 11
17.1869
 21
257.054
  0
LINE
  8
0
 10
17.1869
 20
257.054
 11
17.427
 21
256.763
  0
LINE
  8
0
 10
17.427
 20
256.763
 11
17.6289
 21
256.445
  0
LINE
  8
0
 10
17.6289
 20
256.445
 11
17.7893
 21
256.104
  0
LINE
  8
0
 10
17.7893
 20
256.104
 11
17.9057
 21
255.746
  0
LINE
  8
0
 10
17.9057
 20
255.746
 11
17.9763
 21
255.376
  0
LINE
  8
0
 10
17.9763
 20
255.376
 11
18
 21
255
  0
LINE
  8
0
 10
18
 20
255
 11
17.9763
 21
254.624
  0
LINE
  8
0
 10
17.9763
 20
254.624
 11
17.9057
 21
254.254
  0
LINE
  8
0
 10
17.9057
 20
254.254
 11
17.7893
 21
253.896
  0
LINE
  8
0
 10
17.7893
 20
253.896
 11
17.6289
 21
253.555
  0
LINE
  8
0
 10
17.6289
 20
253.555
 11
17.427
 21
253.237
  0
LINE
  8
0
 10
17.427
 20
253.237
 11
17.1869
 21
252.946
  0
LINE
  8
0
 10
17.1869
 20
252.946
 11
16.9123
 21
252.688
  0
LINE
  8
0
 10
16.9123
 20
252.688
 11
16.6075
 21
252.467
  0
LINE
  8
0
 10
16.6075
 20
252.467
 11
16.2773
 21
252.286
  0
LINE
  8
0
 10
16.2773
 20
252.286
 11
15.927
 21
252.147
  0
LINE
  8
0
 10
15.927
 20
252.147
 11
15.5621
 21
252.053
  0
LINE
  8
0
 10
15.5621
 20
252.053
 11
15.1884
 21
252.006
  0
LINE
  8
0
 10
15.1884
 20
252.006
 11
14.8116
 21
252.006
  0
LINE
  8
0
 10
-15.1884
 20
252.006
 11
-15.5621
 21
252.053
  0
LINE
  8
0
 10
-15.5621
 20
252.053
 11
-15.927
 21
252.147
  0
LINE
  8
0
 10
-15.927
 20
252.147
 11
-16.2773
 21
252.286
  0
LINE
  8
0
 10
-16.2773
 20
252.286
 11
-16.6075
 21
252.467
  0
LINE
  8
0
 10
-16.6075
 20
252.467
 11
-16.9123
 21
252.688
  0
LINE
  8
0
 10
-16.9123
 20
252.688
 11
-17.1869
 21
252.946
  0
LINE
  8
0
 10
-17.1869
 20
252.946
 11
-17.427
 21
253.237
  0
LINE
  8
0
 10
-17.427
 20
253.237
 11
-17.6289
 21
253.555
  0
LINE
  8
0
 10
-17.6289
 20
253.555
 11
-17.7893
 21
253.896
  0
LINE
  8
0
 10
-17.7893
 20
253.896
 11
-17.9057
 21
254.254
  0
LINE
  8
0
 10
-17.9057
 20
254.254
 11
-17.9763
 21
254.624
  0
LINE
  8
0
 10
-17.9763
 20
254.624
 11
-18
 21
255
  0
LINE
  8
0
 10
-18
 20
255
 11
-17.9763
 21
255.376
  0
LINE
  8
0
 10
-17.9763
 20
255.376
 11
-17.9057
 21
255.746
  0
LINE
  8
0
 10
-17.9057
 20
255.746
 11
-17.7893
 21
256.104
  0
LINE
  8
0
 10
-17.7893
 20
256.104
 11
-17.6289
 21
256.445
  0
LINE
  8
0
 10
-17.6289
 20
256.445
 11
-17.427
 21
256.763
  0
LINE
  8
0
 10
-17.427
 20
256.763
 11
-17.1869
 21
257.054
  0
LINE
  8
0
 10
-17.1869
 20
257.054
 11
-16.9123
 21
257.312
  0
LINE
  8
0
 10
-16.9123
 20
257.312
 11
-16.6075
 21
257.533
  0
LINE
  8
0
 10
-16.6075
 20
257.533
 11
-16.2773
 21
257.714
  0
LINE
  8
0
 10
-16.2773
 20
257.714
 11
-15.927
 21
257.853
  0
LINE
  8
0
 10
-15.927
 20
257.853
 11
-15.5621
 21
257.947
  0
LINE
  8
0
 10
-15.5621
 20
257.947
 11
-15.1884
 21
257.994
  0
LINE
  8
0
 10
-15.1884
 20
257.994
 11
-14.8116
 21
257.994
  0
LINE
  8
0
 10
-14.8116
 20
257.994
 11
-14.4379
 21
257.947
  0
LINE
  8
0
 10
-14.4379
 20
257.947
 11
-14.0729
 21
257.853
  0
LINE
  8
0
 10
-14.0729
 20
257.853
 11
-13.7227
 21
257.714
  0
LINE
  8
0
 10
-13.7227
 20
257.714
 11
-13.3925
 21
257.533
  0
LINE
  8
0
 10
-13.3925
 20
257.533
 11
-13.0877
 21
257.312
  0
LINE
  8
0
 10
-13.0877
 20
257.312
 11
-12.8131
 21
257.054
  0
LINE
  8
0
 10
-12.8131
 20
257.054
 11
-12.5729
 21
256.763
  0
LINE
  8
0
 10
-12.5729
 20
256.763
 11
-12.3711
 21
256.445
  0
LINE
  8
0
 10
-12.3711
 20
256.445
 11
-12.2107
 21
256.104
  0
LINE
  8
0
 10
-12.2107
 20
256.104
 11
-12.0942
 21
255.746
  0
LINE
  8
0
 10
-12.0942
 20
255.746
 11
-12.0237
 21
255.376
  0
LINE
  8
0
 10
-12.0237
 20
255.376
 11
-12
 21
255
  0
LINE
  8
0
 10
-12
 20
255
 11
-12.0237
 21
254.624
  0
LINE
  8
0
 10
-12.0237
 20
254.624
 11
-12.0942
 21
254.254
  0
LINE
  8
0
 10
-12.0942
 20
254.254
 11
-12.2107
 21
253.896
  0
LINE
  8
0
 10
-12.2107
 20
253.896
 11
-12.3711
 21
253.555
  0
LINE
  8
0
 10
-12.3711
 20
253.555
 11
-12.5729
 21
253.237
  0
LINE
  8
0
 10
-12.5729
 20
253.237
 11
-12.8131
 21
252.946
  0
LINE
  8
0
 10
-12.8131
 20
252.946
 11
-13.0877
 21
252.688
  0
LINE
  8
0
 10
-13.0877
 20
252.688
 11
-13.3925
 21
252.467
  0
LINE
  8
0
 10
-13.3925
 20
252.467
 11
-13.7227
 21
252.286
  0
LINE
  8
0
 10
-13.7227
 20
252.286
 11
-14.0729
 21
252.147
  0
LINE
  8
0
 10
-14.0729
 20
252.147
 11
-14.4379
 21
252.053
  0
LINE
  8
0
 10
-14.4379
 20
252.053
 11
-14.8116
 21
252.006
  0
LINE
  8
0
 10
-14.8116
 20
252.006
 11
-15.1884
 21
252.006
  0
LINE
  8
0
 10
17.9369
 20
194.089
 11
18.5451
 21
194.245
  0
LINE
  8
0
 10
18.5451
 20
194.245
 11
19.1289
 21
194.476
  0
LINE
  8
0
 10
19.1289
 20
194.476
 11
19.6791
 21
194.778
  0
LINE
  8
0
 10
19.6791
 20
194.778
 11
20.1871
 21
195.147
  0
LINE
  8
0
 10
20.1871
 20
195.147
 11
20.6448
 21
195.577
  0
LINE
  8
0
 10
20.6448
 20
195.577
 11
21.0451
 21
196.061
  0
LINE
  8
0
 10
21.0451
 20
196.061
 11
21.3815
 21
196.591
  0
LINE
  8
0
 10
21.3815
 20
196.591
 11
21.6489
 21
197.159
  0
LINE
  8
0
 10
21.6489
 20
197.159
 11
21.8429
 21
197.757
  0
LINE
  8
0
 10
21.8429
 20
197.757
 11
21.9606
 21
198.373
  0
LINE
  8
0
 10
21.9606
 20
198.373
 11
22
 21
199
  0
LINE
  8
0
 10
22
 20
199
 11
22
 21
233
  0
LINE
  8
0
 10
22
 20
233
 11
21.9606
 21
233.627
  0
LINE
  8
0
 10
21.9606
 20
233.627
 11
21.8429
 21
234.243
  0
LINE
  8
0
 10
21.8429
 20
234.243
 11
21.6489
 21
234.841
  0
LINE
  8
0
 10
21.6489
 20
234.841
 11
21.3815
 21
235.409
  0
LINE
  8
0
 10
21.3815
 20
235.409
 11
21.0451
 21
235.939
  0
LINE
  8
0
 10
21.0451
 20
235.939
 11
20.6448
 21
236.423
  0
LINE
  8
0
 10
20.6448
 20
236.423
 11
20.1871
 21
236.853
  0
LINE
  8
0
 10
20.1871
 20
236.853
 11
19.6791
 21
237.222
  0
LINE
  8
0
 10
19.6791
 20
237.222
 11
19.1289
 21
237.524
  0
LINE
  8
0
 10
19.1289
 20
237.524
 11
18.5451
 21
237.755
  0
LINE
  8
0
 10
18.5451
 20
237.755
 11
17.9369
 21
237.911
  0
LINE
  8
0
 10
17.9369
 20
237.911
 11
17.3139
 21
237.99
  0
LINE
  8
0
 10
17.3139
 20
237.99
 11
-17.3139
 21
237.99
  0
LINE
  8
0
 10
-17.3139
 20
237.99
 11
-17.9369
 21
237.911
  0
LINE
  8
0
 10
-17.9369
 20
237.911
 11
-18.5451
 21
237.755
  0
LINE
  8
0
 10
-18.5451
 20
237.755
 11
-19.1289
 21
237.524
  0
LINE
  8
0
 10
-19.1289
 20
237.524
 11
-19.6791
 21
237.222
  0
LINE
  8
0
 10
-19.6791
 20
237.222
 11
-20.1871
 21
236.853
  0
LINE
  8
0
 10
-20.1871
 20
236.853
 11
-20.6448
 21
236.423
  0
LINE
  8
0
 10
-20.6448
 20
236.423
 11
-21.0451
 21
235.939
  0
LINE
  8
0
 10
-21.0451
 20
235.939
 11
-21.3815
 21
235.409
  0
LINE
  8
0
 10
-21.3815
 20
235.409
 11
-21.6489
 21
234.841
  0
LINE
  8
0
 10
-21.6489
 20
234.841
 11
-21.8429
 21
234.243
  0
LINE
  8
0
 10
-21.8429
 20
234.243
 11
-21.9606
 21
233.627
  0
LINE
  8
0
 10
-21.9606
 20
233.627
 11
-22
 21
233
  0
LINE
  8
0
 10
-22
 20
233
 11
-22
 21
199
  0
LINE
  8
0
 10
-22
 20
199
 11
-21.9606
 21
198.373
  0
LINE
  8
0
 10
-21.9606
 20
198.373
 11
-21.8429
 21
197.757
  0
LINE
  8
0
 10
-21.8429
 20
197.757
 11
-21.6489
 21
197.159
  0
LINE
  8
0
 10
-21.6489
 20
197.159
 11
-21.3815
 21
196.591
  0
LINE
  8
0
 10
-21.3815
 20
196.591
 11
-21.0451
 21
196.061
  0
LINE
  8
0
 10
-21.0451
 20
196.061
 11
-20.6448
 21
195.577
  0
LINE
  8
0
 10
-20.6448
 20
195.577
 11
-20.1871
 21
195.147
  0
LINE
  8
0
 10
-20.1871
 20
195.147
 11
-19.6791
 21
194.778
  0
LINE
  8
0
 10
-19.6791
 20
194.778
 11
-19.1289
 21
194.476
  0
LINE
  8
0
 10
-19.1289
 20
194.476
 11
-18.5451
 21
194.245
  0
LINE
  8
0
 10
-18.5451
 20
194.245
 11
-17.9369
 21
194.089
  0
LINE
  8
0
 10
-17.9369
 20
194.089
 11
-17.3139
 21
194.01
  0
LINE
  8
0
 10
-17.3139
 20
194.01
 11
17.3139
 21
194.01
  0
LINE
  8
0
 10
17.3139
 20
194.01
 11
17.9369
 21
194.089
  0
LINE
  8
0
 10
-15.1884
 20
228.006
 11
-15.5621
 21
228.053
  0
LINE
  8
0
 10
-15.5621
 20
228.053
 11
-15.927
 21
228.147
  0
LINE
  8
0
 10
-15.927
 20
228.147
 11
-16.2773
 21
228.286
  0
LINE
  8
0
 10
-16.2773
 20
228.286
 11
-16.6075
 21
228.467
  0
LINE
  8
0
 10
-16.6075
 20
228.467
 11
-16.9123
 21
228.688
  0
LINE
  8
0
 10
-16.9123
 20
228.688
 11
-17.1869
 21
228.946
  0
LINE
  8
0
 10
-17.1869
 20
228.946
 11
-17.427
 21
229.237
  0
LINE
  8
0
 10
-17.427
 20
229.237
 11
-17.6289
 21
229.555
  0
LINE
  8
0
 10
-17.6289
 20
229.555
 11
-17.7893
 21
229.896
  0
LINE
  8
0
 10
-17.7893
 20
229.896
 11
-17.9057
 21
230.254
  0
LINE
  8
0
 10
-17.9057
 20
230.254
 11
-17.9763
 21
230.624
  0
LINE
  8
0
 10
-17.9763
 20
230.624
 11
-18
 21
231
  0
LINE
  8
0
 10
-18
 20
231
 11
-17.9763
 21
231.376
  0
LINE
  8
0
 10
-17.9763
 20
231.376
 11
-17.9057
 21
231.746
  0
LINE
  8
0
 10
-17.9057
 20
231.746
 11
-17.7893
 21
232.104
  0
LINE
  8
0
 10
-17.7893
 20
232.104
 11
-17.6289
 21
232.445
  0
LINE
  8
0
 10
-17.6289
 20
232.445
 11
-17.427
 21
232.763
  0
LINE
  8
0
 10
-17.427
 20
232.763
 11
-17.1869
 21
233.054
  0
LINE
  8
0
 10
-17.1869
 20
233.054
 11
-16.9123
 21
233.312
  0
LINE
  8
0
 10
-16.9123
 20
233.312
 11
-16.6075
 21
233.533
  0
LINE
  8
0
 10
-16.6075
 20
233.533
 11
-16.2773
 21
233.714
  0
LINE
  8
0
 10
-16.2773
 20
233.714
 11
-15.927
 21
233.853
  0
LINE
  8
0
 10
-15.927
 20
233.853
 11
-15.5621
 21
233.947
  0
LINE
  8
0
 10
-15.5621
 20
233.947
 11
-15.1884
 21
233.994
  0
LINE
  8
0
 10
-15.1884
 20
233.994
 11
-14.8116
 21
233.994
  0
LINE
  8
0
 10
-14.8116
 20
233.994
 11
-14.4379
 21
233.947
  0
LINE
  8
0
 10
-14.4379
 20
233.947
 11
-14.0729
 21
233.853
  0
LINE
  8
0
 10
-14.0729
 20
233.853
 11
-13.7227
 21
233.714
  0
LINE
  8
0
 10
-13.7227
 20
233.714
 11
-13.3925
 21
233.533
  0
LINE
  8
0
 10
-13.3925
 20
233.533
 11
-13.0877
 21
233.312
  0
LINE
  8
0
 10
-13.0877
 20
233.312
 11
-12.8131
 21
233.054
  0
LINE
  8
0
 10
-12.8131
 20
233.054
 11
-12.5729
 21
232.763
  0
LINE
  8
0
 10
-12.5729
 20
232.763
 11
-12.3711
 21
232.445
  0
LINE
  8
0
 10
-12.3711
 20
232.445
 11
-12.2107
 21
232.104
  0
LINE
  8
0
 10
-12.2107
 20
232.104
 11
-12.0942
 21
231.746
  0
LINE
  8
0
 10
-12.0942
 20
231.746
 11
-12.0237
 21
231.376
  0
LINE
  8
0
 10
-12.0237
 20
231.376
 11
-12
 21
231
  0
LINE
  8
0
 10
-12
 20
231
 11
-12.0237
 21
230.624
  0
LINE
  8
0
 10
-12.0237
 20
230.624
 11
-12.0942
 21
230.254
  0
LINE
  8
0
 10
-12.0942
 20
230.254
 11
-12.2107
 21
229.896
  0
LINE
  8
0
 10
-12.2107
 20
229.896
 11
-12.3711
 21
229.555
  0
LINE
  8
0
 10
-12.3711
 20
229.555
 11
-12.5729
 21
229.237
  0
LINE
  8
0
 10
-12.5729
 20
229.237
 11
-12.8131
 21
228.946
  0
LINE
  8
0
 10
-12.8131
 20
228.946
 11
-13.0877
 21
228.688
  0
LINE
  8
0
 10
-13.0877
 20
228.688
 11
-13.3925
 21
228.467
  0
LINE
  8
0
 10
-13.3925
 20
228.467
 11
-13.7227
 21
228.286
  0
LINE
  8
0
 10
-13.7227
 20
228.286
 11
-14.0729
 21
228.147
  0
LINE
  8
0
 10
-14.0729
 20
228.147
 11
-14.4379
 21
228.053
  0
LINE
  8
0
 10
-14.4379
 20
228.053
 11
-14.8116
 21
228.006
  0
LINE
  8
0
 10
-14.8116
 20
228.006
 11
-15.1884
 21
228.006
  0
LINE
  8
0
 10
-0.18837
 20
228.006
 11
-0.562134
 21
228.053
  0
LINE
  8
0
 10
-0.562134
 20
228.053
 11
-0.927048
 21
228.147
  0
LINE
  8
0
 10
-0.927048
 20
228.147
 11
-1.27733
 21
228.286
  0
LINE
  8
0
 10
-1.27733
 20
228.286
 11
-1.60747
 21
228.467
  0
LINE
  8
0
 10
-1.60747
 20
228.467
 11
-1.91226
 21
228.688
  0
LINE
  8
0
 10
-1.91226
 20
228.688
 11
-2.1869
 21
228.946
  0
LINE
  8
0
 10
-2.1869
 20
228.946
 11
-2.42705
 21
229.237
  0
LINE
  8
0
 10
-2.42705
 20
229.237
 11
-2.62891
 21
229.555
  0
LINE
  8
0
 10
-2.62891
 20
229.555
 11
-2.78932
 21
229.896
  0
LINE
  8
0
 10
-2.78932
 20
229.896
 11
-2.90575
 21
230.254
  0
LINE
  8
0
 10
-2.90575
 20
230.254
 11
-2.97633
 21
230.624
  0
LINE
  8
0
 10
-2.97633
 20
230.624
 11
-3
 21
231
  0
LINE
  8
0
 10
-3
 20
231
 11
-2.97633
 21
231.376
  0
LINE
  8
0
 10
-2.97633
 20
231.376
 11
-2.90575
 21
231.746
  0
LINE
  8
0
 10
-2.90575
 20
231.746
 11
-2.78932
 21
232.104
  0
LINE
  8
0
 10
-2.78932
 20
232.104
 11
-2.62891
 21
232.445
  0
LINE
  8
0
 10
-2.62891
 20
232.445
 11
-2.42705
 21
232.763
  0
LINE
  8
0
 10
-2.42705
 20
232.763
 11
-2.1869
 21
233.054
  0
LINE
  8
0
 10
-2.1869
 20
233.054
 11
-1.91226
 21
233.312
  0
LINE
  8
0
 10
-1.91226
 20
233.312
 11
-1.60747
 21
233.533
  0
LINE
  8
0
 10
-1.60747
 20
233.533
 11
-1.27733
 21
233.714
  0
LINE
  8
0
 10
-1.27733
 20
233.714
 11
-0.927048
 21
233.853
  0
LINE
  8
0
 10
-0.927048
 20
233.853
 11
-0.562134
 21
233.947
  0
LINE
  8
0
 10
-0.562134
 20
233.947
 11
-0.18837
 21
233.994
  0
LINE
  8
0
 10
-0.18837
 20
233.994
 11
0.18837
 21
233.994
  0
LINE
  8
0
 10
0.18837
 20
233.994
 11
0.562134
 21
233.947
  0
LINE
  8
0
 10
0.562134
 20
233.947
 11
0.927048
 21
233.853
  0
LINE
  8
0
 10
0.927048
 20
233.853
 11
1.27733
 21
233.714
  0
LINE
  8
0
 10
1.27733
 20
233.714
 11
1.60747
 21
233.533
  0
LINE
  8
0
 10
1.60747
 20
233.533
 11
1.91226
 21
233.312
  0
LINE
  8
0
 10
1.91226
 20
233.312
 11
2.1869
 21
233.054
  0
LINE
  8
0
 10
2.1869
 20
233.054
 11
2.42705
 21
232.763
  0
LINE
  8
0
 10
2.42705
 20
232.763
 11
2.62891
 21
232.445
  0
LINE
  8
0
 10
2.62891
 20
232.445
 11
2.78932
 21
232.104
  0
LINE
  8
0
 10
2.78932
 20
232.104
 11
2.90575
 21
231.746
  0
LINE
  8
0
 10
2.90575
 20
231.746
 11
2.97633
 21
231.376
  0
LINE
  8
0
 10
2.97633
 20
231.376
 11
3
 21
231
  0
LINE
  8
0
 10
3
 20
231
 11
2.97633
 21
230.624
  0
LINE
  8
0
 10
2.97633
 20
230.624
 11
2.90575
 21
230.254
  0
LINE
  8
0
 10
2.90575
 20
230.254
 11
2.78932
 21
229.896
  0
LINE
  8
0
 10
2.78932
 20
229.896
 11
2.62891
 21
229.555
  0
LINE
  8
0
 10
2.62891
 20
229.555
 11
2.42705
 21
229.237
  0
LINE
  8
0
 10
2.42705
 20
229.237
 11
2.1869
 21
228.946
  0
LINE
  8
0
 10
2.1869
 20
228.946
 11
1.91226
 21
228.688
  0
LINE
  8
0
 10
1.91226
 20
228.688
 11
1.60747
 21
228.467
  0
LINE
  8
0
 10
1.60747
 20
228.467
 11
1.27733
 21
228.286
  0
LINE
  8
0
 10
1.27733
 20
228.286
 11
0.927048
 21
228.147
  0
LINE
  8
0
 10
0.927048
 20
228.147
 11
0.562134
 21
228.053
  0
LINE
  8
0
 10
0.562134
 20
228.053
 11
0.18837
 21
228.006
  0
LINE
  8
0
 10
0.18837
 20
228.006
 11
-0.18837
 21
228.006
  0
LINE
  8
0
 10
14.8116
 20
228.006
 11
14.4379
 21
228.053
  0
LINE
  8
0
 10
14.4379
 20
228.053
 11
14.0729
 21
228.147
  0
LINE
  8
0
 10
14.0729
 20
228.147
 11
13.7227
 21
228.286
  0
LINE
  8
0
 10
13.7227
 20
228.286
 11
13.3925
 21
228.467
  0
LINE
  8
0
 10
13.3925
 20
228.467
 11
13.0877
 21
228.688
  0
LINE
  8
0
 10
13.0877
 20
228.688
 11
12.8131
 21
228.946
  0
LINE
  8
0
 10
12.8131
 20
228.946
 11
12.5729
 21
229.237
  0
LINE
  8
0
 10
12.5729
 20
229.237
 11
12.3711
 21
229.555
  0
LINE
  8
0
 10
12.3711
 20
229.555
 11
12.2107
 21
229.896
  0
LINE
  8
0
 10
12.2107
 20
229.896
 11
12.0942
 21
230.254
  0
LINE
  8
0
 10
12.0942
 20
230.254
 11
12.0237
 21
230.624
  0
LINE
  8
0
 10
12.0237
 20
230.624
 11
12
 21
231
  0
LINE
  8
0
 10
12
 20
231
 11
12.0237
 21
231.376
  0
LINE
  8
0
 10
12.0237
 20
231.376
 11
12.0942
 21
231.746
  0
LINE
  8
0
 10
12.0942
 20
231.746
 11
12.2107
 21
232.104
  0
LINE
  8
0
 10
12.2107
 20
232.104
 11
12.3711
 21
232.445
  0
LINE
  8
0
 10
12.3711
 20
232.445
 11
12.5729
 21
232.763
  0
LINE
  8
0
 10
12.5729
 20
232.763
 11
12.8131
 21
233.054
  0
LINE
  8
0
 10
12.8131
 20
233.054
 11
13.0877
 21
233.312
  0
LINE
  8
0
 10
13.0877
 20
233.312
 11
13.3925
 21
233.533
  0
LINE
  8
0
 10
13.3925
 20
233.533
 11
13.7227
 21
233.714
  0
LINE
  8
0
 10
13.7227
 20
233.714
 11
14.0729
 21
233.853
  0
LINE
  8
0
 10
14.0729
 20
233.853
 11
14.4379
 21
233.947
  0
LINE
  8
0
 10
14.4379
 20
233.947
 11
14.8116
 21
233.994
  0
LINE
  8
0
 10
14.8116
 20
233.994
 11
15.1884
 21
233.994
  0
LINE
  8
0
 10
15.1884
 20
233.994
 11
15.5621
 21
233.947
  0
LINE
  8
0
 10
15.5621
 20
233.947
 11
15.927
 21
233.853
  0
LINE
  8
0
 10
15.927
 20
233.853
 11
16.2773
 21
233.714
  0
LINE
  8
0
 10
16.2773
 20
233.714
 11
16.6075
 21
233.533
  0
LINE
  8
0
 10
16.6075
 20
233.533
 11
16.9123
 21
233.312
  0
LINE
  8
0
 10
16.9123
 20
233.312
 11
17.1869
 21
233.054
  0
LINE
  8
0
 10
17.1869
 20
233.054
 11
17.427
 21
232.763
  0
LINE
  8
0
 10
17.427
 20
232.763
 11
17.6289
 21
232.445
  0
LINE
  8
0
 10
17.6289
 20
232.445
 11
17.7893
 21
232.104
  0
LINE
  8
0
 10
17.7893
 20
232.104
 11
17.9057
 21
231.746
  0
LINE
  8
0
 10
17.9057
 20
231.746
 11
17.9763
 21
231.376
  0
LINE
  8
0
 10
17.9763
 20
231.376
 11
18
 21
231
  0
LINE
  8
0
 10
18
 20
231
 11
17.9763
 21
230.624
  0
LINE
  8
0
 10
17.9763
 20
230.624
 11
17.9057
 21
230.254
  0
LINE
  8
0
 10
17.9057
 20
230.254
 11
17.7893
 21
229.896
  0
LINE
  8
0
 10
17.7893
 20
229.896
 11
17.6289
 21
229.555
  0
LINE
  8
0
 10
17.6289
 20
229.555
 11
17.427
 21
229.237
  0
LINE
  8
0
 10
17.427
 20
229.237
 11
17.1869
 21
228.946
  0
LINE
  8
0
 10
17.1869
 20
228.946
 11
16.9123
 21
228.688
  0
LINE
  8
0
 10
16.9123
 20
228.688
 11
16.6075
 21
228.467
  0
LINE
  8
0
 10
16.6075
 20
228.467
 11
16.2773
 21
228.286
  0
LINE
  8
0
 10
16.2773
 20
228.286
 11
15.927
 21
228.147
  0
LINE
  8
0
 10
15.927
 20
228.147
 11
15.5621
 21
228.053
  0
LINE
  8
0
 10
15.5621
 20
228.053
 11
15.1884
 21
228.006
  0
LINE
  8
0
 10
15.1884
 20
228.006
 11
14.8116
 21
228.006
  0
LINE
  8
0
 10
-7.59418
 20
229.503
 11
-7.78107
 21
229.527
  0
LINE
  8
0
 10
-7.78107
 20
229.527
 11
-7.96352
 21
229.573
  0
LINE
  8
0
 10
-7.96352
 20
229.573
 11
-8.13866
 21
229.643
  0
LINE
  8
0
 10
-8.13866
 20
229.643
 11
-8.30373
 21
229.734
  0
LINE
  8
0
 10
-8.30373
 20
229.734
 11
-8.45613
 21
229.844
  0
LINE
  8
0
 10
-8.45613
 20
229.844
 11
-8.59344
 21
229.973
  0
LINE
  8
0
 10
-8.59344
 20
229.973
 11
-8.71352
 21
230.118
  0
LINE
  8
0
 10
-8.71352
 20
230.118
 11
-8.81445
 21
230.277
  0
LINE
  8
0
 10
-8.81445
 20
230.277
 11
-8.89465
 21
230.448
  0
LINE
  8
0
 10
-8.89465
 20
230.448
 11
-8.95287
 21
230.627
  0
LINE
  8
0
 10
-8.95287
 20
230.627
 11
-8.98816
 21
230.812
  0
LINE
  8
0
 10
-8.98816
 20
230.812
 11
-9
 21
231
  0
LINE
  8
0
 10
-9
 20
231
 11
-8.98816
 21
231.188
  0
LINE
  8
0
 10
-8.98816
 20
231.188
 11
-8.95287
 21
231.373
  0
LINE
  8
0
 10
-8.95287
 20
231.373
 11
-8.89465
 21
231.552
  0
LINE
  8
0
 10
-8.89465
 20
231.552
 11
-8.81445
 21
231.723
  0
LINE
  8
0
 10
-8.81445
 20
231.723
 11
-8.71352
 21
231.882
  0
LINE
  8
0
 10
-8.71352
 20
231.882
 11
-8.59344
 21
232.027
  0
LINE
  8
0
 10
-8.59344
 20
232.027
 11
-8.45613
 21
232.156
  0
LINE
  8
0
 10
-8.45613
 20
232.156
 11
-8.30373
 21
232.266
  0
LINE
  8
0
 10
-8.30373
 20
232.266
 11
-8.13866
 21
232.357
  0
LINE
  8
0
 10
-8.13866
 20
232.357
 11
-7.96352
 21
232.427
  0
LINE
  8
0
 10
-7.96352
 20
232.427
 11
-7.78107
 21
232.473
  0
LINE
  8
0
 10
-7.78107
 20
232.473
 11
-7.59418
 21
232.497
  0
LINE
  8
0
 10
-7.59418
 20
232.497
 11
-7.40581
 21
232.497
  0
LINE
  8
0
 10
-7.40581
 20
232.497
 11
-7.21892
 21
232.473
  0
LINE
  8
0
 10
-7.21892
 20
232.473
 11
-7.03647
 21
232.427
  0
LINE
  8
0
 10
-7.03647
 20
232.427
 11
-6.86133
 21
232.357
  0
LINE
  8
0
 10
-6.86133
 20
232.357
 11
-6.69626
 21
232.266
  0
LINE
  8
0
 10
-6.69626
 20
232.266
 11
-6.54385
 21
232.156
  0
LINE
  8
0
 10
-6.54385
 20
232.156
 11
-6.40654
 21
232.027
  0
LINE
  8
0
 10
-6.40654
 20
232.027
 11
-6.28647
 21
231.882
  0
LINE
  8
0
 10
-6.28647
 20
231.882
 11
-6.18553
 21
231.723
  0
LINE
  8
0
 10
-6.18553
 20
231.723
 11
-6.10533
 21
231.552
  0
LINE
  8
0
 10
-6.10533
 20
231.552
 11
-6.04712
 21
231.373
  0
LINE
  8
0
 10
-6.04712
 20
231.373
 11
-6.01183
 21
231.188
  0
LINE
  8
0
 10
-6.01183
 20
231.188
 11
-6
 21
231
  0
LINE
  8
0
 10
-6
 20
231
 11
-6.01183
 21
230.812
  0
LINE
  8
0
 10
-6.01183
 20
230.812
 11
-6.04712
 21
230.627
  0
LINE
  8
0
 10
-6.04712
 20
230.627
 11
-6.10533
 21
230.448
  0
LINE
  8
0
 10
-6.10533
 20
230.448
 11
-6.18553
 21
230.277
  0
LINE
  8
0
 10
-6.18553
 20
230.277
 11
-6.28647
 21
230.118
  0
LINE
  8
0
 10
-6.28647
 20
230.118
 11
-6.40654
 21
229.973
  0
LINE
  8
0
 10
-6.40654
 20
229.973
 11
-6.54385
 21
229.844
  0
LINE
  8
0
 10
-6.54385
 20
229.844
 11
-6.69626
 21
229.734
  0
LINE
  8
0
 10
-6.69626
 20
229.734
 11
-6.86133
 21
229.643
  0
LINE
  8
0
 10
-6.86133
 20
229.643
 11
-7.03647
 21
229.573
  0
LINE
  8
0
 10
-7.03647
 20
229.573
 11
-7.21892
 21
229.527
  0
LINE
  8
0
 10
-7.21892
 20
229.527
 11
-7.40581
 21
229.503
  0
LINE
  8
0
 10
-7.40581
 20
229.503
 11
-7.59418
 21
229.503
  0
LINE
  8
0
 10
7.40581
 20
229.503
 11
7.21892
 21
229.527
  0
LINE
  8
0
 10
7.21892
 20
229.527
 11
7.03647
 21
229.573
  0
LINE
  8
0
 10
7.03647
 20
229.573
 11
6.86133
 21
229.643
  0
LINE
  8
0
 10
6.86133
 20
229.643
 11
6.69626
 21
229.734
  0
LINE
  8
0
 10
6.69626
 20
229.734
 11
6.54385
 21
229.844
  0
LINE
  8
0
 10
6.54385
 20
229.844
 11
6.40654
 21
229.973
  0
LINE
  8
0
 10
6.40654
 20
229.973
 11
6.28647
 21
230.118
  0
LINE
  8
0
 10
6.28647
 20
230.118
 11
6.18553
 21
230.277
  0
LINE
  8
0
 10
6.18553
 20
230.277
 11
6.10533
 21
230.448
  0
LINE
  8
0
 10
6.10533
 20
230.448
 11
6.04712
 21
230.627
  0
LINE
  8
0
 10
6.04712
 20
230.627
 11
6.01183
 21
230.812
  0
LINE
  8
0
 10
6.01183
 20
230.812
 11
6
 21
231
  0
LINE
  8
0
 10
6
 20
231
 11
6.01183
 21
231.188
  0
LINE
  8
0
 10
6.01183
 20
231.188
 11
6.04712
 21
231.373
  0
LINE
  8
0
 10
6.04712
 20
231.373
 11
6.10533
 21
231.552
  0
LINE
  8
0
 10
6.10533
 20
231.552
 11
6.18553
 21
231.723
  0
LINE
  8
0
 10
6.18553
 20
231.723
 11
6.28647
 21
231.882
  0
LINE
  8
0
 10
6.28647
 20
231.882
 11
6.40654
 21
232.027
  0
LINE
  8
0
 10
6.40654
 20
232.027
 11
6.54385
 21
232.156
  0
LINE
  8
0
 10
6.54385
 20
232.156
 11
6.69626
 21
232.266
  0
LINE
  8
0
 10
6.69626
 20
232.266
 11
6.86133
 21
232.357
  0
LINE
  8
0
 10
6.86133
 20
232.357
 11
7.03647
 21
232.427
  0
LINE
  8
0
 10
7.03647
 20
232.427
 11
7.21892
 21
232.473
  0
LINE
  8
0
 10
7.21892
 20
232.473
 11
7.40581
 21
232.497
  0
LINE
  8
0
 10
7.40581
 20
232.497
 11
7.59418
 21
232.497
  0
LINE
  8
0
 10
7.59418
 20
232.497
 11
7.78107
 21
232.473
  0
LINE
  8
0
 10
7.78107
 20
232.473
 11
7.96352
 21
232.427
  0
LINE
  8
0
 10
7.96352
 20
232.427
 11
8.13866
 21
232.357
  0
LINE
  8
0
 10
8.13866
 20
232.357
 11
8.30373
 21
232.266
  0
LINE
  8
0
 10
8.30373
 20
232.266
 11
8.45613
 21
232.156
  0
LINE
  8
0
 10
8.45613
 20
232.156
 11
8.59344
 21
232.027
  0
LINE
  8
0
 10
8.59344
 20
232.027
 11
8.71352
 21
231.882
  0
LINE
  8
0
 10
8.71352
 20
231.882
 11
8.81445
 21
231.723
  0
LINE
  8
0
 10
8.81445
 20
231.723
 11
8.89465
 21
231.552
  0
LINE
  8
0
 10
8.89465
 20
231.552
 11
8.95287
 21
231.373
  0
LINE
  8
0
 10
8.95287
 20
231.373
 11
8.98816
 21
231.188
  0
LINE
  8
0
 10
8.98816
 20
231.188
 11
9
 21
231
  0
LINE
  8
0
 10
9
 20
231
 11
8.98816
 21
230.812
  0
LINE
  8
0
 10
8.98816
 20
230.812
 11
8.95287
 21
230.627
  0
LINE
  8
0
 10
8.95287
 20
230.627
 11
8.89465
 21
230.448
  0
LINE
  8
0
 10
8.89465
 20
230.448
 11
8.81445
 21
230.277
  0
LINE
  8
0
 10
8.81445
 20
230.277
 11
8.71352
 21
230.118
  0
LINE
  8
0
 10
8.71352
 20
230.118
 11
8.59344
 21
229.973
  0
LINE
  8
0
 10
8.59344
 20
229.973
 11
8.45613
 21
229.844
  0
LINE
  8
0
 10
8.45613
 20
229.844
 11
8.30373
 21
229.734
  0
LINE
  8
0
 10
8.30373
 20
229.734
 11
8.13866
 21
229.643
  0
LINE
  8
0
 10
8.13866
 20
229.643
 11
7.96352
 21
229.573
  0
LINE
  8
0
 10
7.96352
 20
229.573
 11
7.78107
 21
229.527
  0
LINE
  8
0
 10
7.78107
 20
229.527
 11
7.59418
 21
229.503
  0
LINE
  8
0
 10
7.59418
 20
229.503
 11
7.40581
 21
229.503
  0
LINE
  8
0
 10
-7.31395
 20
205.51
 11
-7.9369
 21
205.589
  0
LINE
  8
0
 10
-7.9369
 20
205.589
 11
-8.54507
 21
205.745
  0
LINE
  8
0
 10
-8.54507
 20
205.745
 11
-9.12889
 21
205.976
  0
LINE
  8
0
 10
-9.12889
 20
205.976
 11
-9.67912
 21
206.278
  0
LINE
  8
0
 10
-9.67912
 20
206.278
 11
-10.1871
 21
206.647
  0
LINE
  8
0
 10
-10.1871
 20
206.647
 11
-10.6448
 21
207.077
  0
LINE
  8
0
 10
-10.6448
 20
207.077
 11
-11.0451
 21
207.561
  0
LINE
  8
0
 10
-11.0451
 20
207.561
 11
-11.3815
 21
208.091
  0
LINE
  8
0
 10
-11.3815
 20
208.091
 11
-11.6489
 21
208.659
  0
LINE
  8
0
 10
-11.6489
 20
208.659
 11
-11.8429
 21
209.257
  0
LINE
  8
0
 10
-11.8429
 20
209.257
 11
-11.9606
 21
209.873
  0
LINE
  8
0
 10
-11.9606
 20
209.873
 11
-12
 21
210.5
  0
LINE
  8
0
 10
-12
 20
210.5
 11
-12
 21
221.5
  0
LINE
  8
0
 10
-12
 20
221.5
 11
-11.9606
 21
222.127
  0
LINE
  8
0
 10
-11.9606
 20
222.127
 11
-11.8429
 21
222.743
  0
LINE
  8
0
 10
-11.8429
 20
222.743
 11
-11.6489
 21
223.341
  0
LINE
  8
0
 10
-11.6489
 20
223.341
 11
-11.3815
 21
223.909
  0
LINE
  8
0
 10
-11.3815
 20
223.909
 11
-11.0451
 21
224.439
  0
LINE
  8
0
 10
-11.0451
 20
224.439
 11
-10.6448
 21
224.923
  0
LINE
  8
0
 10
-10.6448
 20
224.923
 11
-10.1871
 21
225.353
  0
LINE
  8
0
 10
-10.1871
 20
225.353
 11
-9.67912
 21
225.722
  0
LINE
  8
0
 10
-9.67912
 20
225.722
 11
-9.12889
 21
226.024
  0
LINE
  8
0
 10
-9.12889
 20
226.024
 11
-8.54507
 21
226.255
  0
LINE
  8
0
 10
-8.54507
 20
226.255
 11
-7.9369
 21
226.411
  0
LINE
  8
0
 10
-7.9369
 20
226.411
 11
-7.31395
 21
226.49
  0
LINE
  8
0
 10
-7.31395
 20
226.49
 11
7.31395
 21
226.49
  0
LINE
  8
0
 10
7.31395
 20
226.49
 11
7.9369
 21
226.411
  0
LINE
  8
0
 10
7.9369
 20
226.411
 11
8.54507
 21
226.255
  0
LINE
  8
0
 10
8.54507
 20
226.255
 11
9.12889
 21
226.024
  0
LINE
  8
0
 10
9.12889
 20
226.024
 11
9.67912
 21
225.722
  0
LINE
  8
0
 10
9.67912
 20
225.722
 11
10.1871
 21
225.353
  0
LINE
  8
0
 10
10.1871
 20
225.353
 11
10.6448
 21
224.923
  0
LINE
  8
0
 10
10.6448
 20
224.923
 11
11.0451
 21
224.439
  0
LINE
  8
0
 10
11.0451
 20
224.439
 11
11.3815
 21
223.909
  0
LINE
  8
0
 10
11.3815
 20
223.909
 11
11.6489
 21
223.341
  0
LINE
  8
0
 10
11.6489
 20
223.341
 11
11.8429
 21
222.743
  0
LINE
  8
0
 10
11.8429
 20
222.743
 11
11.9606
 21
222.127
  0
LINE
  8
0
 10
11.9606
 20
222.127
 11
12
 21
221.5
  0
LINE
  8
0
 10
12
 20
221.5
 11
12
 21
210.5
  0
LINE
  8
0
 10
12
 20
210.5
 11
11.9606
 21
209.873
  0
LINE
  8
0
 10
11.9606
 20
209.873
 11
11.8429
 21
209.257
  0
LINE
  8
0
 10
11.8429
 20
209.257
 11
11.6489
 21
208.659
  0
LINE
  8
0
 10
11.6489
 20
208.659
 11
11.3815
 21
208.091
  0
LINE
  8
0
 10
11.3815
 20
208.091
 11
11.0451
 21
207.561
  0
LINE
  8
0
 10
11.0451
 20
207.561
 11
10.6448
 21
207.077
  0
LINE
  8
0
 10
10.6448
 20
207.077
 11
10.1871
 21
206.647
  0
LINE
  8
0
 10
10.1871
 20
206.647
 11
9.67912
 21
206.278
  0
LINE
  8
0
 10
9.67912
 20
206.278
 11
9.12889
 21
205.976
  0
LINE
  8
0
 10
9.12889
 20
205.976
 11
8.54507
 21
205.745
  0
LINE
  8
0
 10
8.54507
 20
205.745
 11
7.9369
 21
205.589
  0
LINE
  8
0
 10
7.9369
 20
205.589
 11
7.31395
 21
205.51
  0
LINE
  8
0
 10
7.31395
 20
205.51
 11
-7.31395
 21
205.51
  0
LINE
  8
0
 10
14.9058
 20
222.003
 11
14.7189
 21
222.027
  0
LINE
  8
0
 10
14.7189
 20
222.027
 11
14.5365
 21
222.073
  0
LINE
  8
0
 10
14.5365
 20
222.073
 11
14.3613
 21
222.143
  0
LINE
  8
0
 10
14.3613
 20
222.143
 11
14.1963
 21
222.234
  0
LINE
  8
0
 10
14.1963
 20
222.234
 11
14.0439
 21
222.344
  0
LINE
  8
0
 10
14.0439
 20
222.344
 11
13.9065
 21
222.473
  0
LINE
  8
0
 10
13.9065
 20
222.473
 11
13.7865
 21
222.618
  0
LINE
  8
0
 10
13.7865
 20
222.618
 11
13.6855
 21
222.777
  0
LINE
  8
0
 10
13.6855
 20
222.777
 11
13.6053
 21
222.948
  0
LINE
  8
0
 10
13.6053
 20
222.948
 11
13.5471
 21
223.127
  0
LINE
  8
0
 10
13.5471
 20
223.127
 11
13.5118
 21
223.312
  0
LINE
  8
0
 10
13.5118
 20
223.312
 11
13.5
 21
223.5
  0
LINE
  8
0
 10
13.5
 20
223.5
 11
13.5118
 21
223.688
  0
LINE
  8
0
 10
13.5118
 20
223.688
 11
13.5471
 21
223.873
  0
LINE
  8
0
 10
13.5471
 20
223.873
 11
13.6053
 21
224.052
  0
LINE
  8
0
 10
13.6053
 20
224.052
 11
13.6855
 21
224.223
  0
LINE
  8
0
 10
13.6855
 20
224.223
 11
13.7865
 21
224.382
  0
LINE
  8
0
 10
13.7865
 20
224.382
 11
13.9065
 21
224.527
  0
LINE
  8
0
 10
13.9065
 20
224.527
 11
14.0439
 21
224.656
  0
LINE
  8
0
 10
14.0439
 20
224.656
 11
14.1963
 21
224.766
  0
LINE
  8
0
 10
14.1963
 20
224.766
 11
14.3613
 21
224.857
  0
LINE
  8
0
 10
14.3613
 20
224.857
 11
14.5365
 21
224.927
  0
LINE
  8
0
 10
14.5365
 20
224.927
 11
14.7189
 21
224.973
  0
LINE
  8
0
 10
14.7189
 20
224.973
 11
14.9058
 21
224.997
  0
LINE
  8
0
 10
14.9058
 20
224.997
 11
15.0942
 21
224.997
  0
LINE
  8
0
 10
15.0942
 20
224.997
 11
15.2811
 21
224.973
  0
LINE
  8
0
 10
15.2811
 20
224.973
 11
15.4635
 21
224.927
  0
LINE
  8
0
 10
15.4635
 20
224.927
 11
15.6387
 21
224.857
  0
LINE
  8
0
 10
15.6387
 20
224.857
 11
15.8037
 21
224.766
  0
LINE
  8
0
 10
15.8037
 20
224.766
 11
15.9561
 21
224.656
  0
LINE
  8
0
 10
15.9561
 20
224.656
 11
16.0934
 21
224.527
  0
LINE
  8
0
 10
16.0934
 20
224.527
 11
16.2135
 21
224.382
  0
LINE
  8
0
 10
16.2135
 20
224.382
 11
16.3145
 21
224.223
  0
LINE
  8
0
 10
16.3145
 20
224.223
 11
16.3947
 21
224.052
  0
LINE
  8
0
 10
16.3947
 20
224.052
 11
16.4529
 21
223.873
  0
LINE
  8
0
 10
16.4529
 20
223.873
 11
16.4882
 21
223.688
  0
LINE
  8
0
 10
16.4882
 20
223.688
 11
16.5
 21
223.5
  0
LINE
  8
0
 10
16.5
 20
223.5
 11
16.4882
 21
223.312
  0
LINE
  8
0
 10
16.4882
 20
223.312
 11
16.4529
 21
223.127
  0
LINE
  8
0
 10
16.4529
 20
223.127
 11
16.3947
 21
222.948
  0
LINE
  8
0
 10
16.3947
 20
222.948
 11
16.3145
 21
222.777
  0
LINE
  8
0
 10
16.3145
 20
222.777
 11
16.2135
 21
222.618
  0
LINE
  8
0
 10
16.2135
 20
222.618
 11
16.0934
 21
222.473
  0
LINE
  8
0
 10
16.0934
 20
222.473
 11
15.9561
 21
222.344
  0
LINE
  8
0
 10
15.9561
 20
222.344
 11
15.8037
 21
222.234
  0
LINE
  8
0
 10
15.8037
 20
222.234
 11
15.6387
 21
222.143
  0
LINE
  8
0
 10
15.6387
 20
222.143
 11
15.4635
 21
222.073
  0
LINE
  8
0
 10
15.4635
 20
222.073
 11
15.2811
 21
222.027
  0
LINE
  8
0
 10
15.2811
 20
222.027
 11
15.0942
 21
222.003
  0
LINE
  8
0
 10
15.0942
 20
222.003
 11
14.9058
 21
222.003
  0
LINE
  8
0
 10
-15.0942
 20
222.003
 11
-15.2811
 21
222.027
  0
LINE
  8
0
 10
-15.2811
 20
222.027
 11
-15.4635
 21
222.073
  0
LINE
  8
0
 10
-15.4635
 20
222.073
 11
-15.6387
 21
222.143
  0
LINE
  8
0
 10
-15.6387
 20
222.143
 11
-15.8037
 21
222.234
  0
LINE
  8
0
 10
-15.8037
 20
222.234
 11
-15.9561
 21
222.344
  0
LINE
  8
0
 10
-15.9561
 20
222.344
 11
-16.0934
 21
222.473
  0
LINE
  8
0
 10
-16.0934
 20
222.473
 11
-16.2135
 21
222.618
  0
LINE
  8
0
 10
-16.2135
 20
222.618
 11
-16.3145
 21
222.777
  0
LINE
  8
0
 10
-16.3145
 20
222.777
 11
-16.3947
 21
222.948
  0
LINE
  8
0
 10
-16.3947
 20
222.948
 11
-16.4529
 21
223.127
  0
LINE
  8
0
 10
-16.4529
 20
223.127
 11
-16.4882
 21
223.312
  0
LINE
  8
0
 10
-16.4882
 20
223.312
 11
-16.5
 21
223.5
  0
LINE
  8
0
 10
-16.5
 20
223.5
 11
-16.4882
 21
223.688
  0
LINE
  8
0
 10
-16.4882
 20
223.688
 11
-16.4529
 21
223.873
  0
LINE
  8
0
 10
-16.4529
 20
223.873
 11
-16.3947
 21
224.052
  0
LINE
  8
0
 10
-16.3947
 20
224.052
 11
-16.3145
 21
224.223
  0
LINE
  8
0
 10
-16.3145
 20
224.223
 11
-16.2135
 21
224.382
  0
LINE
  8
0
 10
-16.2135
 20
224.382
 11
-16.0934
 21
224.527
  0
LINE
  8
0
 10
-16.0934
 20
224.527
 11
-15.9561
 21
224.656
  0
LINE
  8
0
 10
-15.9561
 20
224.656
 11
-15.8037
 21
224.766
  0
LINE
  8
0
 10
-15.8037
 20
224.766
 11
-15.6387
 21
224.857
  0
LINE
  8
0
 10
-15.6387
 20
224.857
 11
-15.4635
 21
224.927
  0
LINE
  8
0
 10
-15.4635
 20
224.927
 11
-15.2811
 21
224.973
  0
LINE
  8
0
 10
-15.2811
 20
224.973
 11
-15.0942
 21
224.997
  0
LINE
  8
0
 10
-15.0942
 20
224.997
 11
-14.9058
 21
224.997
  0
LINE
  8
0
 10
-14.9058
 20
224.997
 11
-14.7189
 21
224.973
  0
LINE
  8
0
 10
-14.7189
 20
224.973
 11
-14.5365
 21
224.927
  0
LINE
  8
0
 10
-14.5365
 20
224.927
 11
-14.3613
 21
224.857
  0
LINE
  8
0
 10
-14.3613
 20
224.857
 11
-14.1963
 21
224.766
  0
LINE
  8
0
 10
-14.1963
 20
224.766
 11
-14.0439
 21
224.656
  0
LINE
  8
0
 10
-14.0439
 20
224.656
 11
-13.9065
 21
224.527
  0
LINE
  8
0
 10
-13.9065
 20
224.527
 11
-13.7865
 21
224.382
  0
LINE
  8
0
 10
-13.7865
 20
224.382
 11
-13.6855
 21
224.223
  0
LINE
  8
0
 10
-13.6855
 20
224.223
 11
-13.6053
 21
224.052
  0
LINE
  8
0
 10
-13.6053
 20
224.052
 11
-13.5471
 21
223.873
  0
LINE
  8
0
 10
-13.5471
 20
223.873
 11
-13.5118
 21
223.688
  0
LINE
  8
0
 10
-13.5118
 20
223.688
 11
-13.5
 21
223.5
  0
LINE
  8
0
 10
-13.5
 20
223.5
 11
-13.5118
 21
223.312
  0
LINE
  8
0
 10
-13.5118
 20
223.312
 11
-13.5471
 21
223.127
  0
LINE
  8
0
 10
-13.5471
 20
223.127
 11
-13.6053
 21
222.948
  0
LINE
  8
0
 10
-13.6053
 20
222.948
 11
-13.6855
 21
222.777
  0
LINE
  8
0
 10
-13.6855
 20
222.777
 11
-13.7865
 21
222.618
  0
LINE
  8
0
 10
-13.7865
 20
222.618
 11
-13.9065
 21
222.473
  0
LINE
  8
0
 10
-13.9065
 20
222.473
 11
-14.0439
 21
222.344
  0
LINE
  8
0
 10
-14.0439
 20
222.344
 11
-14.1963
 21
222.234
  0
LINE
  8
0
 10
-14.1963
 20
222.234
 11
-14.3613
 21
222.143
  0
LINE
  8
0
 10
-14.3613
 20
222.143
 11
-14.5365
 21
222.073
  0
LINE
  8
0
 10
-14.5365
 20
222.073
 11
-14.7189
 21
222.027
  0
LINE
  8
0
 10
-14.7189
 20
222.027
 11
-14.9058
 21
222.003
  0
LINE
  8
0
 10
-14.9058
 20
222.003
 11
-15.0942
 21
222.003
  0
LINE
  8
0
 10
14.9058
 20
214.503
 11
14.7189
 21
214.527
  0
LINE
  8
0
 10
14.7189
 20
214.527
 11
14.5365
 21
214.573
  0
LINE
  8
0
 10
14.5365
 20
214.573
 11
14.3613
 21
214.643
  0
LINE
  8
0
 10
14.3613
 20
214.643
 11
14.1963
 21
214.734
  0
LINE
  8
0
 10
14.1963
 20
214.734
 11
14.0439
 21
214.844
  0
LINE
  8
0
 10
14.0439
 20
214.844
 11
13.9065
 21
214.973
  0
LINE
  8
0
 10
13.9065
 20
214.973
 11
13.7865
 21
215.118
  0
LINE
  8
0
 10
13.7865
 20
215.118
 11
13.6855
 21
215.277
  0
LINE
  8
0
 10
13.6855
 20
215.277
 11
13.6053
 21
215.448
  0
LINE
  8
0
 10
13.6053
 20
215.448
 11
13.5471
 21
215.627
  0
LINE
  8
0
 10
13.5471
 20
215.627
 11
13.5118
 21
215.812
  0
LINE
  8
0
 10
13.5118
 20
215.812
 11
13.5
 21
216
  0
LINE
  8
0
 10
13.5
 20
216
 11
13.5118
 21
216.188
  0
LINE
  8
0
 10
13.5118
 20
216.188
 11
13.5471
 21
216.373
  0
LINE
  8
0
 10
13.5471
 20
216.373
 11
13.6053
 21
216.552
  0
LINE
  8
0
 10
13.6053
 20
216.552
 11
13.6855
 21
216.723
  0
LINE
  8
0
 10
13.6855
 20
216.723
 11
13.7865
 21
216.882
  0
LINE
  8
0
 10
13.7865
 20
216.882
 11
13.9065
 21
217.027
  0
LINE
  8
0
 10
13.9065
 20
217.027
 11
14.0439
 21
217.156
  0
LINE
  8
0
 10
14.0439
 20
217.156
 11
14.1963
 21
217.266
  0
LINE
  8
0
 10
14.1963
 20
217.266
 11
14.3613
 21
217.357
  0
LINE
  8
0
 10
14.3613
 20
217.357
 11
14.5365
 21
217.427
  0
LINE
  8
0
 10
14.5365
 20
217.427
 11
14.7189
 21
217.473
  0
LINE
  8
0
 10
14.7189
 20
217.473
 11
14.9058
 21
217.497
  0
LINE
  8
0
 10
14.9058
 20
217.497
 11
15.0942
 21
217.497
  0
LINE
  8
0
 10
15.0942
 20
217.497
 11
15.2811
 21
217.473
  0
LINE
  8
0
 10
15.2811
 20
217.473
 11
15.4635
 21
217.427
  0
LINE
  8
0
 10
15.4635
 20
217.427
 11
15.6387
 21
217.357
  0
LINE
  8
0
 10
15.6387
 20
217.357
 11
15.8037
 21
217.266
  0
LINE
  8
0
 10
15.8037
 20
217.266
 11
15.9561
 21
217.156
  0
LINE
  8
0
 10
15.9561
 20
217.156
 11
16.0934
 21
217.027
  0
LINE
  8
0
 10
16.0934
 20
217.027
 11
16.2135
 21
216.882
  0
LINE
  8
0
 10
16.2135
 20
216.882
 11
16.3145
 21
216.723
  0
LINE
  8
0
 10
16.3145
 20
216.723
 11
16.3947
 21
216.552
  0
LINE
  8
0
 10
16.3947
 20
216.552
 11
16.4529
 21
216.373
  0
LINE
  8
0
 10
16.4529
 20
216.373
 11
16.4882
 21
216.188
  0
LINE
  8
0
 10
16.4882
 20
216.188
 11
16.5
 21
216
  0
LINE
  8
0
 10
16.5
 20
216
 11
16.4882
 21
215.812
  0
LINE
  8
0
 10
16.4882
 20
215.812
 11
16.4529
 21
215.627
  0
LINE
  8
0
 10
16.4529
 20
215.627
 11
16.3947
 21
215.448
  0
LINE
  8
0
 10
16.3947
 20
215.448
 11
16.3145
 21
215.277
  0
LINE
  8
0
 10
16.3145
 20
215.277
 11
16.2135
 21
215.118
  0
LINE
  8
0
 10
16.2135
 20
215.118
 11
16.0934
 21
214.973
  0
LINE
  8
0
 10
16.0934
 20
214.973
 11
15.9561
 21
214.844
  0
LINE
  8
0
 10
15.9561
 20
214.844
 11
15.8037
 21
214.734
  0
LINE
  8
0
 10
15.8037
 20
214.734
 11
15.6387
 21
214.643
  0
LINE
  8
0
 10
15.6387
 20
214.643
 11
15.4635
 21
214.573
  0
LINE
  8
0
 10
15.4635
 20
214.573
 11
15.2811
 21
214.527
  0
LINE
  8
0
 10
15.2811
 20
214.527
 11
15.0942
 21
214.503
  0
LINE
  8
0
 10
15.0942
 20
214.503
 11
14.9058
 21
214.503
  0
LINE
  8
0
 10
-15.0942
 20
214.503
 11
-15.2811
 21
214.527
  0
LINE
  8
0
 10
-15.2811
 20
214.527
 11
-15.4635
 21
214.573
  0
LINE
  8
0
 10
-15.4635
 20
214.573
 11
-15.6387
 21
214.643
  0
LINE
  8
0
 10
-15.6387
 20
214.643
 11
-15.8037
 21
214.734
  0
LINE
  8
0
 10
-15.8037
 20
214.734
 11
-15.9561
 21
214.844
  0
LINE
  8
0
 10
-15.9561
 20
214.844
 11
-16.0934
 21
214.973
  0
LINE
  8
0
 10
-16.0934
 20
214.973
 11
-16.2135
 21
215.118
  0
LINE
  8
0
 10
-16.2135
 20
215.118
 11
-16.3145
 21
215.277
  0
LINE
  8
0
 10
-16.3145
 20
215.277
 11
-16.3947
 21
215.448
  0
LINE
  8
0
 10
-16.3947
 20
215.448
 11
-16.4529
 21
215.627
  0
LINE
  8
0
 10
-16.4529
 20
215.627
 11
-16.4882
 21
215.812
  0
LINE
  8
0
 10
-16.4882
 20
215.812
 11
-16.5
 21
216
  0
LINE
  8
0
 10
-16.5
 20
216
 11
-16.4882
 21
216.188
  0
LINE
  8
0
 10
-16.4882
 20
216.188
 11
-16.4529
 21
216.373
  0
LINE
  8
0
 10
-16.4529
 20
216.373
 11
-16.3947
 21
216.552
  0
LINE
  8
0
 10
-16.3947
 20
216.552
 11
-16.3145
 21
216.723
  0
LINE
  8
0
 10
-16.3145
 20
216.723
 11
-16.2135
 21
216.882
  0
LINE
  8
0
 10
-16.2135
 20
216.882
 11
-16.0934
 21
217.027
  0
LINE
  8
0
 10
-16.0934
 20
217.027
 11
-15.9561
 21
217.156
  0
LINE
  8
0
 10
-15.9561
 20
217.156
 11
-15.8037
 21
217.266
  0
LINE
  8
0
 10
-15.8037
 20
217.266
 11
-15.6387
 21
217.357
  0
LINE
  8
0
 10
-15.6387
 20
217.357
 11
-15.4635
 21
217.427
  0
LINE
  8
0
 10
-15.4635
 20
217.427
 11
-15.2811
 21
217.473
  0
LINE
  8
0
 10
-15.2811
 20
217.473
 11
-15.0942
 21
217.497
  0
LINE
  8
0
 10
-15.0942
 20
217.497
 11
-14.9058
 21
217.497
  0
LINE
  8
0
 10
-14.9058
 20
217.497
 11
-14.7189
 21
217.473
  0
LINE
  8
0
 10
-14.7189
 20
217.473
 11
-14.5365
 21
217.427
  0
LINE
  8
0
 10
-14.5365
 20
217.427
 11
-14.3613
 21
217.357
  0
LINE
  8
0
 10
-14.3613
 20
217.357
 11
-14.1963
 21
217.266
  0
LINE
  8
0
 10
-14.1963
 20
217.266
 11
-14.0439
 21
217.156
  0
LINE
  8
0
 10
-14.0439
 20
217.156
 11
-13.9065
 21
217.027
  0
LINE
  8
0
 10
-13.9065
 20
217.027
 11
-13.7865
 21
216.882
  0
LINE
  8
0
 10
-13.7865
 20
216.882
 11
-13.6855
 21
216.723
  0
LINE
  8
0
 10
-13.6855
 20
216.723
 11
-13.6053
 21
216.552
  0
LINE
  8
0
 10
-13.6053
 20
216.552
 11
-13.5471
 21
216.373
  0
LINE
  8
0
 10
-13.5471
 20
216.373
 11
-13.5118
 21
216.188
  0
LINE
  8
0
 10
-13.5118
 20
216.188
 11
-13.5
 21
216
  0
LINE
  8
0
 10
-13.5
 20
216
 11
-13.5118
 21
215.812
  0
LINE
  8
0
 10
-13.5118
 20
215.812
 11
-13.5471
 21
215.627
  0
LINE
  8
0
 10
-13.5471
 20
215.627
 11
-13.6053
 21
215.448
  0
LINE
  8
0
 10
-13.6053
 20
215.448
 11
-13.6855
 21
215.277
  0
LINE
  8
0
 10
-13.6855
 20
215.277
 11
-13.7865
 21
215.118
  0
LINE
  8
0
 10
-13.7865
 20
215.118
 11
-13.9065
 21
214.973
  0
LINE
  8
0
 10
-13.9065
 20
214.973
 11
-14.0439
 21
214.844
  0
LINE
  8
0
 10
-14.0439
 20
214.844
 11
-14.1963
 21
214.734
  0
LINE
  8
0
 10
-14.1963
 20
214.734
 11
-14.3613
 21
214.643
  0
LINE
  8
0
 10
-14.3613
 20
214.643
 11
-14.5365
 21
214.573
  0
LINE
  8
0
 10
-14.5365
 20
214.573
 11
-14.7189
 21
214.527
  0
LINE
  8
0
 10
-14.7189
 20
214.527
 11
-14.9058
 21
214.503
  0
LINE
  8
0
 10
-14.9058
 20
214.503
 11
-15.0942
 21
214.503
  0
LINE
  8
0
 10
14.9058
 20
207.003
 11
14.7189
 21
207.027
  0
LINE
  8
0
 10
14.7189
 20
207.027
 11
14.5365
 21
207.073
  0
LINE
  8
0
 10
14.5365
 20
207.073
 11
14.3613
 21
207.143
  0
LINE
  8
0
 10
14.3613
 20
207.143
 11
14.1963
 21
207.234
  0
LINE
  8
0
 10
14.1963
 20
207.234
 11
14.0439
 21
207.344
  0
LINE
  8
0
 10
14.0439
 20
207.344
 11
13.9065
 21
207.473
  0
LINE
  8
0
 10
13.9065
 20
207.473
 11
13.7865
 21
207.618
  0
LINE
  8
0
 10
13.7865
 20
207.618
 11
13.6855
 21
207.777
  0
LINE
  8
0
 10
13.6855
 20
207.777
 11
13.6053
 21
207.948
  0
LINE
  8
0
 10
13.6053
 20
207.948
 11
13.5471
 21
208.127
  0
LINE
  8
0
 10
13.5471
 20
208.127
 11
13.5118
 21
208.312
  0
LINE
  8
0
 10
13.5118
 20
208.312
 11
13.5
 21
208.5
  0
LINE
  8
0
 10
13.5
 20
208.5
 11
13.5118
 21
208.688
  0
LINE
  8
0
 10
13.5118
 20
208.688
 11
13.5471
 21
208.873
  0
LINE
  8
0
 10
13.5471
 20
208.873
 11
13.6053
 21
209.052
  0
LINE
  8
0
 10
13.6053
 20
209.052
 11
13.6855
 21
209.223
  0
LINE
  8
0
 10
13.6855
 20
209.223
 11
13.7865
 21
209.382
  0
LINE
  8
0
 10
13.7865
 20
209.382
 11
13.9065
 21
209.527
  0
LINE
  8
0
 10
13.9065
 20
209.527
 11
14.0439
 21
209.656
  0
LINE
  8
0
 10
14.0439
 20
209.656
 11
14.1963
 21
209.766
  0
LINE
  8
0
 10
14.1963
 20
209.766
 11
14.3613
 21
209.857
  0
LINE
  8
0
 10
14.3613
 20
209.857
 11
14.5365
 21
209.927
  0
LINE
  8
0
 10
14.5365
 20
209.927
 11
14.7189
 21
209.973
  0
LINE
  8
0
 10
14.7189
 20
209.973
 11
14.9058
 21
209.997
  0
LINE
  8
0
 10
14.9058
 20
209.997
 11
15.0942
 21
209.997
  0
LINE
  8
0
 10
15.0942
 20
209.997
 11
15.2811
 21
209.973
  0
LINE
  8
0
 10
15.2811
 20
209.973
 11
15.4635
 21
209.927
  0
LINE
  8
0
 10
15.4635
 20
209.927
 11
15.6387
 21
209.857
  0
LINE
  8
0
 10
15.6387
 20
209.857
 11
15.8037
 21
209.766
  0
LINE
  8
0
 10
15.8037
 20
209.766
 11
15.9561
 21
209.656
  0
LINE
  8
0
 10
15.9561
 20
209.656
 11
16.0934
 21
209.527
  0
LINE
  8
0
 10
16.0934
 20
209.527
 11
16.2135
 21
209.382
  0
LINE
  8
0
 10
16.2135
 20
209.382
 11
16.3145
 21
209.223
  0
LINE
  8
0
 10
16.3145
 20
209.223
 11
16.3947
 21
209.052
  0
LINE
  8
0
 10
16.3947
 20
209.052
 11
16.4529
 21
208.873
  0
LINE
  8
0
 10
16.4529
 20
208.873
 11
16.4882
 21
208.688
  0
LINE
  8
0
 10
16.4882
 20
208.688
 11
16.5
 21
208.5
  0
LINE
  8
0
 10
16.5
 20
208.5
 11
16.4882
 21
208.312
  0
LINE
  8
0
 10
16.4882
 20
208.312
 11
16.4529
 21
208.127
  0
LINE
  8
0
 10
16.4529
 20
208.127
 11
16.3947
 21
207.948
  0
LINE
  8
0
 10
16.3947
 20
207.948
 11
16.3145
 21
207.777
  0
LINE
  8
0
 10
16.3145
 20
207.777
 11
16.2135
 21
207.618
  0
LINE
  8
0
 10
16.2135
 20
207.618
 11
16.0934
 21
207.473
  0
LINE
  8
0
 10
16.0934
 20
207.473
 11
15.9561
 21
207.344
  0
LINE
  8
0
 10
15.9561
 20
207.344
 11
15.8037
 21
207.234
  0
LINE
  8
0
 10
15.8037
 20
207.234
 11
15.6387
 21
207.143
  0
LINE
  8
0
 10
15.6387
 20
207.143
 11
15.4635
 21
207.073
  0
LINE
  8
0
 10
15.4635
 20
207.073
 11
15.2811
 21
207.027
  0
LINE
  8
0
 10
15.2811
 20
207.027
 11
15.0942
 21
207.003
  0
LINE
  8
0
 10
15.0942
 20
207.003
 11
14.9058
 21
207.003
  0
LINE
  8
0
 10
-15.0942
 20
207.003
 11
-15.2811
 21
207.027
  0
LINE
  8
0
 10
-15.2811
 20
207.027
 11
-15.4635
 21
207.073
  0
LINE
  8
0
 10
-15.4635
 20
207.073
 11
-15.6387
 21
207.143
  0
LINE
  8
0
 10
-15.6387
 20
207.143
 11
-15.8037
 21
207.234
  0
LINE
  8
0
 10
-15.8037
 20
207.234
 11
-15.9561
 21
207.344
  0
LINE
  8
0
 10
-15.9561
 20
207.344
 11
-16.0934
 21
207.473
  0
LINE
  8
0
 10
-16.0934
 20
207.473
 11
-16.2135
 21
207.618
  0
LINE
  8
0
 10
-16.2135
 20
207.618
 11
-16.3145
 21
207.777
  0
LINE
  8
0
 10
-16.3145
 20
207.777
 11
-16.3947
 21
207.948
  0
LINE
  8
0
 10
-16.3947
 20
207.948
 11
-16.4529
 21
208.127
  0
LINE
  8
0
 10
-16.4529
 20
208.127
 11
-16.4882
 21
208.312
  0
LINE
  8
0
 10
-16.4882
 20
208.312
 11
-16.5
 21
208.5
  0
LINE
  8
0
 10
-16.5
 20
208.5
 11
-16.4882
 21
208.688
  0
LINE
  8
0
 10
-16.4882
 20
208.688
 11
-16.4529
 21
208.873
  0
LINE
  8
0
 10
-16.4529
 20
208.873
 11
-16.3947
 21
209.052
  0
LINE
  8
0
 10
-16.3947
 20
209.052
 11
-16.3145
 21
209.223
  0
LINE
  8
0
 10
-16.3145
 20
209.223
 11
-16.2135
 21
209.382
  0
LINE
  8
0
 10
-16.2135
 20
209.382
 11
-16.0934
 21
209.527
  0
LINE
  8
0
 10
-16.0934
 20
209.527
 11
-15.9561
 21
209.656
  0
LINE
  8
0
 10
-15.9561
 20
209.656
 11
-15.8037
 21
209.766
  0
LINE
  8
0
 10
-15.8037
 20
209.766
 11
-15.6387
 21
209.857
  0
LINE
  8
0
 10
-15.6387
 20
209.857
 11
-15.4635
 21
209.927
  0
LINE
  8
0
 10
-15.4635
 20
209.927
 11
-15.2811
 21
209.973
  0
LINE
  8
0
 10
-15.2811
 20
209.973
 11
-15.0942
 21
209.997
  0
LINE
  8
0
 10
-15.0942
 20
209.997
 11
-14.9058
 21
209.997
  0
LINE
  8
0
 10
-14.9058
 20
209.997
 11
-14.7189
 21
209.973
  0
LINE
  8
0
 10
-14.7189
 20
209.973
 11
-14.5365
 21
209.927
  0
LINE
  8
0
 10
-14.5365
 20
209.927
 11
-14.3613
 21
209.857
  0
LINE
  8
0
 10
-14.3613
 20
209.857
 11
-14.1963
 21
209.766
  0
LINE
  8
0
 10
-14.1963
 20
209.766
 11
-14.0439
 21
209.656
  0
LINE
  8
0
 10
-14.0439
 20
209.656
 11
-13.9065
 21
209.527
  0
LINE
  8
0
 10
-13.9065
 20
209.527
 11
-13.7865
 21
209.382
  0
LINE
  8
0
 10
-13.7865
 20
209.382
 11
-13.6855
 21
209.223
  0
LINE
  8
0
 10
-13.6855
 20
209.223
 11
-13.6053
 21
209.052
  0
LINE
  8
0
 10
-13.6053
 20
209.052
 11
-13.5471
 21
208.873
  0
LINE
  8
0
 10
-13.5471
 20
208.873
 11
-13.5118
 21
208.688
  0
LINE
  8
0
 10
-13.5118
 20
208.688
 11
-13.5
 21
208.5
  0
LINE
  8
0
 10
-13.5
 20
208.5
 11
-13.5118
 21
208.312
  0
LINE
  8
0
 10
-13.5118
 20
208.312
 11
-13.5471
 21
208.127
  0
LINE
  8
0
 10
-13.5471
 20
208.127
 11
-13.6053
 21
207.948
  0
LINE
  8
0
 10
-13.6053
 20
207.948
 11
-13.6855
 21
207.777
  0
LINE
  8
0
 10
-13.6855
 20
207.777
 11
-13.7865
 21
207.618
  0
LINE
  8
0
 10
-13.7865
 20
207.618
 11
-13.9065
 21
207.473
  0
LINE
  8
0
 10
-13.9065
 20
207.473
 11
-14.0439
 21
207.344
  0
LINE
  8
0
 10
-14.0439
 20
207.344
 11
-14.1963
 21
207.234
  0
LINE
  8
0
 10
-14.1963
 20
207.234
 11
-14.3613
 21
207.143
  0
LINE
  8
0
 10
-14.3613
 20
207.143
 11
-14.5365
 21
207.073
  0
LINE
  8
0
 10
-14.5365
 20
207.073
 11
-14.7189
 21
207.027
  0
LINE
  8
0
 10
-14.7189
 20
207.027
 11
-14.9058
 21
207.003
  0
LINE
  8
0
 10
-14.9058
 20
207.003
 11
-15.0942
 21
207.003
  0
LINE
  8
0
 10
14.8116
 20
198.006
 11
14.4379
 21
198.053
  0
LINE
  8
0
 10
14.4379
 20
198.053
 11
14.0729
 21
198.147
  0
LINE
  8
0
 10
14.0729
 20
198.147
 11
13.7227
 21
198.286
  0
LINE
  8
0
 10
13.7227
 20
198.286
 11
13.3925
 21
198.467
  0
LINE
  8
0
 10
13.3925
 20
198.467
 11
13.0877
 21
198.688
  0
LINE
  8
0
 10
13.0877
 20
198.688
 11
12.8131
 21
198.946
  0
LINE
  8
0
 10
12.8131
 20
198.946
 11
12.5729
 21
199.237
  0
LINE
  8
0
 10
12.5729
 20
199.237
 11
12.3711
 21
199.555
  0
LINE
  8
0
 10
12.3711
 20
199.555
 11
12.2107
 21
199.896
  0
LINE
  8
0
 10
12.2107
 20
199.896
 11
12.0942
 21
200.254
  0
LINE
  8
0
 10
12.0942
 20
200.254
 11
12.0237
 21
200.624
  0
LINE
  8
0
 10
12.0237
 20
200.624
 11
12
 21
201
  0
LINE
  8
0
 10
12
 20
201
 11
12.0237
 21
201.376
  0
LINE
  8
0
 10
12.0237
 20
201.376
 11
12.0942
 21
201.746
  0
LINE
  8
0
 10
12.0942
 20
201.746
 11
12.2107
 21
202.104
  0
LINE
  8
0
 10
12.2107
 20
202.104
 11
12.3711
 21
202.445
  0
LINE
  8
0
 10
12.3711
 20
202.445
 11
12.5729
 21
202.763
  0
LINE
  8
0
 10
12.5729
 20
202.763
 11
12.8131
 21
203.054
  0
LINE
  8
0
 10
12.8131
 20
203.054
 11
13.0877
 21
203.312
  0
LINE
  8
0
 10
13.0877
 20
203.312
 11
13.3925
 21
203.533
  0
LINE
  8
0
 10
13.3925
 20
203.533
 11
13.7227
 21
203.714
  0
LINE
  8
0
 10
13.7227
 20
203.714
 11
14.0729
 21
203.853
  0
LINE
  8
0
 10
14.0729
 20
203.853
 11
14.4379
 21
203.947
  0
LINE
  8
0
 10
14.4379
 20
203.947
 11
14.8116
 21
203.994
  0
LINE
  8
0
 10
14.8116
 20
203.994
 11
15.1884
 21
203.994
  0
LINE
  8
0
 10
15.1884
 20
203.994
 11
15.5621
 21
203.947
  0
LINE
  8
0
 10
15.5621
 20
203.947
 11
15.927
 21
203.853
  0
LINE
  8
0
 10
15.927
 20
203.853
 11
16.2773
 21
203.714
  0
LINE
  8
0
 10
16.2773
 20
203.714
 11
16.6075
 21
203.533
  0
LINE
  8
0
 10
16.6075
 20
203.533
 11
16.9123
 21
203.312
  0
LINE
  8
0
 10
16.9123
 20
203.312
 11
17.1869
 21
203.054
  0
LINE
  8
0
 10
17.1869
 20
203.054
 11
17.427
 21
202.763
  0
LINE
  8
0
 10
17.427
 20
202.763
 11
17.6289
 21
202.445
  0
LINE
  8
0
 10
17.6289
 20
202.445
 11
17.7893
 21
202.104
  0
LINE
  8
0
 10
17.7893
 20
202.104
 11
17.9057
 21
201.746
  0
LINE
  8
0
 10
17.9057
 20
201.746
 11
17.9763
 21
201.376
  0
LINE
  8
0
 10
17.9763
 20
201.376
 11
18
 21
201
  0
LINE
  8
0
 10
18
 20
201
 11
17.9763
 21
200.624
  0
LINE
  8
0
 10
17.9763
 20
200.624
 11
17.9057
 21
200.254
  0
LINE
  8
0
 10
17.9057
 20
200.254
 11
17.7893
 21
199.896
  0
LINE
  8
0
 10
17.7893
 20
199.896
 11
17.6289
 21
199.555
  0
LINE
  8
0
 10
17.6289
 20
199.555
 11
17.427
 21
199.237
  0
LINE
  8
0
 10
17.427
 20
199.237
 11
17.1869
 21
198.946
  0
LINE
  8
0
 10
17.1869
 20
198.946
 11
16.9123
 21
198.688
  0
LINE
  8
0
 10
16.9123
 20
198.688
 11
16.6075
 21
198.467
  0
LINE
  8
0
 10
16.6075
 20
198.467
 11
16.2773
 21
198.286
  0
LINE
  8
0
 10
16.2773
 20
198.286
 11
15.927
 21
198.147
  0
LINE
  8
0
 10
15.927
 20
198.147
 11
15.5621
 21
198.053
  0
LINE
  8
0
 10
15.5621
 20
198.053
 11
15.1884
 21
198.006
  0
LINE
  8
0
 10
15.1884
 20
198.006
 11
14.8116
 21
198.006
  0
LINE
  8
0
 10
-15.1884
 20
198.006
 11
-15.5621
 21
198.053
  0
LINE
  8
0
 10
-15.5621
 20
198.053
 11
-15.927
 21
198.147
  0
LINE
  8
0
 10
-15.927
 20
198.147
 11
-16.2773
 21
198.286
  0
LINE
  8
0
 10
-16.2773
 20
198.286
 11
-16.6075
 21
198.467
  0
LINE
  8
0
 10
-16.6075
 20
198.467
 11
-16.9123
 21
198.688
  0
LINE
  8
0
 10
-16.9123
 20
198.688
 11
-17.1869
 21
198.946
  0
LINE
  8
0
 10
-17.1869
 20
198.946
 11
-17.427
 21
199.237
  0
LINE
  8
0
 10
-17.427
 20
199.237
 11
-17.6289
 21
199.555
  0
LINE
  8
0
 10
-17.6289
 20
199.555
 11
-17.7893
 21
199.896
  0
LINE
  8
0
 10
-17.7893
 20
199.896
 11
-17.9057
 21
200.254
  0
LINE
  8
0
 10
-17.9057
 20
200.254
 11
-17.9763
 21
200.624
  0
LINE
  8
0
 10
-17.9763
 20
200.624
 11
-18
 21
201
  0
LINE
  8
0
 10
-18
 20
201
 11
-17.9763
 21
201.376
  0
LINE
  8
0
 10
-17.9763
 20
201.376
 11
-17.9057
 21
201.746
  0
LINE
  8
0
 10
-17.9057
 20
201.746
 11
-17.7893
 21
202.104
  0
LINE
  8
0
 10
-17.7893
 20
202.104
 11
-17.6289
 21
202.445
  0
LINE
  8
0
 10
-17.6289
 20
202.445
 11
-17.427
 21
202.763
  0
LINE
  8
0
 10
-17.427
 20
202.763
 11
-17.1869
 21
203.054
  0
LINE
  8
0
 10
-17.1869
 20
203.054
 11
-16.9123
 21
203.312
  0
LINE
  8
0
 10
-16.9123
 20
203.312
 11
-16.6075
 21
203.533
  0
LINE
  8
0
 10
-16.6075
 20
203.533
 11
-16.2773
 21
203.714
  0
LINE
  8
0
 10
-16.2773
 20
203.714
 11
-15.927
 21
203.853
  0
LINE
  8
0
 10
-15.927
 20
203.853
 11
-15.5621
 21
203.947
  0
LINE
  8
0
 10
-15.5621
 20
203.947
 11
-15.1884
 21
203.994
  0
LINE
  8
0
 10
-15.1884
 20
203.994
 11
-14.8116
 21
203.994
  0
LINE
  8
0
 10
-14.8116
 20
203.994
 11
-14.4379
 21
203.947
  0
LINE
  8
0
 10
-14.4379
 20
203.947
 11
-14.0729
 21
203.853
  0
LINE
  8
0
 10
-14.0729
 20
203.853
 11
-13.7227
 21
203.714
  0
LINE
  8
0
 10
-13.7227
 20
203.714
 11
-13.3925
 21
203.533
  0
LINE
  8
0
 10
-13.3925
 20
203.533
 11
-13.0877
 21
203.312
  0
LINE
  8
0
 10
-13.0877
 20
203.312
 11
-12.8131
 21
203.054
  0
LINE
  8
0
 10
-12.8131
 20
203.054
 11
-12.5729
 21
202.763
  0
LINE
  8
0
 10
-12.5729
 20
202.763
 11
-12.3711
 21
202.445
  0
LINE
  8
0
 10
-12.3711
 20
202.445
 11
-12.2107
 21
202.104
  0
LINE
  8
0
 10
-12.2107
 20
202.104
 11
-12.0942
 21
201.746
  0
LINE
  8
0
 10
-12.0942
 20
201.746
 11
-12.0237
 21
201.376
  0
LINE
  8
0
 10
-12.0237
 20
201.376
 11
-12
 21
201
  0
LINE
  8
0
 10
-12
 20
201
 11
-12.0237
 21
200.624
  0
LINE
  8
0
 10
-12.0237
 20
200.624
 11
-12.0942
 21
200.254
  0
LINE
  8
0
 10
-12.0942
 20
200.254
 11
-12.2107
 21
199.896
  0
LINE
  8
0
 10
-12.2107
 20
199.896
 11
-12.3711
 21
199.555
  0
LINE
  8
0
 10
-12.3711
 20
199.555
 11
-12.5729
 21
199.237
  0
LINE
  8
0
 10
-12.5729
 20
199.237
 11
-12.8131
 21
198.946
  0
LINE
  8
0
 10
-12.8131
 20
198.946
 11
-13.0877
 21
198.688
  0
LINE
  8
0
 10
-13.0877
 20
198.688
 11
-13.3925
 21
198.467
  0
LINE
  8
0
 10
-13.3925
 20
198.467
 11
-13.7227
 21
198.286
  0
LINE
  8
0
 10
-13.7227
 20
198.286
 11
-14.0729
 21
198.147
  0
LINE
  8
0
 10
-14.0729
 20
198.147
 11
-14.4379
 21
198.053
  0
LINE
  8
0
 10
-14.4379
 20
198.053
 11
-14.8116
 21
198.006
  0
LINE
  8
0
 10
-14.8116
 20
198.006
 11
-15.1884
 21
198.006
  0
LINE
  8
0
 10
17.9369
 20
140.089
 11
18.5451
 21
140.245
  0
LINE
  8
0
 10
18.5451
 20
140.245
 11
19.1289
 21
140.476
  0
LINE
  8
0
 10
19.1289
 20
140.476
 11
19.6791
 21
140.778
  0
LINE
  8
0
 10
19.6791
 20
140.778
 11
20.1871
 21
141.147
  0
LINE
  8
0
 10
20.1871
 20
141.147
 11
20.6448
 21
141.577
  0
LINE
  8
0
 10
20.6448
 20
141.577
 11
21.0451
 21
142.061
  0
LINE
  8
0
 10
21.0451
 20
142.061
 11
21.3815
 21
142.591
  0
LINE
  8
0
 10
21.3815
 20
142.591
 11
21.6489
 21
143.159
  0
LINE
  8
0
 10
21.6489
 20
143.159
 11
21.8429
 21
143.757
  0
LINE
  8
0
 10
21.8429
 20
143.757
 11
21.9606
 21
144.373
  0
LINE
  8
0
 10
21.9606
 20
144.373
 11
22
 21
145
  0
LINE
  8
0
 10
22
 20
145
 11
22
 21
179
  0
LINE
  8
0
 10
22
 20
179
 11
21.9606
 21
179.627
  0
LINE
  8
0
 10
21.9606
 20
179.627
 11
21.8429
 21
180.243
  0
LINE
  8
0
 10
21.8429
 20
180.243
 11
21.6489
 21
180.841
  0
LINE
  8
0
 10
21.6489
 20
180.841
 11
21.3815
 21
181.409
  0
LINE
  8
0
 10
21.3815
 20
181.409
 11
21.0451
 21
181.939
  0
LINE
  8
0
 10
21.0451
 20
181.939
 11
20.6448
 21
182.423
  0
LINE
  8
0
 10
20.6448
 20
182.423
 11
20.1871
 21
182.853
  0
LINE
  8
0
 10
20.1871
 20
182.853
 11
19.6791
 21
183.222
  0
LINE
  8
0
 10
19.6791
 20
183.222
 11
19.1289
 21
183.524
  0
LINE
  8
0
 10
19.1289
 20
183.524
 11
18.5451
 21
183.755
  0
LINE
  8
0
 10
18.5451
 20
183.755
 11
17.9369
 21
183.911
  0
LINE
  8
0
 10
17.9369
 20
183.911
 11
17.3139
 21
183.99
  0
LINE
  8
0
 10
17.3139
 20
183.99
 11
-17.3139
 21
183.99
  0
LINE
  8
0
 10
-17.3139
 20
183.99
 11
-17.9369
 21
183.911
  0
LINE
  8
0
 10
-17.9369
 20
183.911
 11
-18.5451
 21
183.755
  0
LINE
  8
0
 10
-18.5451
 20
183.755
 11
-19.1289
 21
183.524
  0
LINE
  8
0
 10
-19.1289
 20
183.524
 11
-19.6791
 21
183.222
  0
LINE
  8
0
 10
-19.6791
 20
183.222
 11
-20.1871
 21
182.853
  0
LINE
  8
0
 10
-20.1871
 20
182.853
 11
-20.6448
 21
182.423
  0
LINE
  8
0
 10
-20.6448
 20
182.423
 11
-21.0451
 21
181.939
  0
LINE
  8
0
 10
-21.0451
 20
181.939
 11
-21.3815
 21
181.409
  0
LINE
  8
0
 10
-21.3815
 20
181.409
 11
-21.6489
 21
180.841
  0
LINE
  8
0
 10
-21.6489
 20
180.841
 11
-21.8429
 21
180.243
  0
LINE
  8
0
 10
-21.8429
 20
180.243
 11
-21.9606
 21
179.627
  0
LINE
  8
0
 10
-21.9606
 20
179.627
 11
-22
 21
179
  0
LINE
  8
0
 10
-22
 20
179
 11
-22
 21
145
  0
LINE
  8
0
 10
-22
 20
145
 11
-21.9606
 21
144.373
  0
LINE
  8
0
 10
-21.9606
 20
144.373
 11
-21.8429
 21
143.757
  0
LINE
  8
0
 10
-21.8429
 20
143.757
 11
-21.6489
 21
143.159
  0
LINE
  8
0
 10
-21.6489
 20
143.159
 11
-21.3815
 21
142.591
  0
LINE
  8
0
 10
-21.3815
 20
142.591
 11
-21.0451
 21
142.061
  0
LINE
  8
0
 10
-21.0451
 20
142.061
 11
-20.6448
 21
141.577
  0
LINE
  8
0
 10
-20.6448
 20
141.577
 11
-20.1871
 21
141.147
  0
LINE
  8
0
 10
-20.1871
 20
141.147
 11
-19.6791
 21
140.778
  0
LINE
  8
0
 10
-19.6791
 20
140.778
 11
-19.1289
 21
140.476
  0
LINE
  8
0
 10
-19.1289
 20
140.476
 11
-18.5451
 21
140.245
  0
LINE
  8
0
 10
-18.5451
 20
140.245
 11
-17.9369
 21
140.089
  0
LINE
  8
0
 10
-17.9369
 20
140.089
 11
-17.3139
 21
140.01
  0
LINE
  8
0
 10
-17.3139
 20
140.01
 11
17.3139
 21
140.01
  0
LINE
  8
0
 10
17.3139
 20
140.01
 11
17.9369
 21
140.089
  0
LINE
  8
0
 10
14.8116
 20
174.006
 11
14.4379
 21
174.053
  0
LINE
  8
0
 10
14.4379
 20
174.053
 11
14.0729
 21
174.147
  0
LINE
  8
0
 10
14.0729
 20
174.147
 11
13.7227
 21
174.286
  0
LINE
  8
0
 10
13.7227
 20
174.286
 11
13.3925
 21
174.467
  0
LINE
  8
0
 10
13.3925
 20
174.467
 11
13.0877
 21
174.688
  0
LINE
  8
0
 10
13.0877
 20
174.688
 11
12.8131
 21
174.946
  0
LINE
  8
0
 10
12.8131
 20
174.946
 11
12.5729
 21
175.237
  0
LINE
  8
0
 10
12.5729
 20
175.237
 11
12.3711
 21
175.555
  0
LINE
  8
0
 10
12.3711
 20
175.555
 11
12.2107
 21
175.896
  0
LINE
  8
0
 10
12.2107
 20
175.896
 11
12.0942
 21
176.254
  0
LINE
  8
0
 10
12.0942
 20
176.254
 11
12.0237
 21
176.624
  0
LINE
  8
0
 10
12.0237
 20
176.624
 11
12
 21
177
  0
LINE
  8
0
 10
12
 20
177
 11
12.0237
 21
177.376
  0
LINE
  8
0
 10
12.0237
 20
177.376
 11
12.0942
 21
177.746
  0
LINE
  8
0
 10
12.0942
 20
177.746
 11
12.2107
 21
178.104
  0
LINE
  8
0
 10
12.2107
 20
178.104
 11
12.3711
 21
178.445
  0
LINE
  8
0
 10
12.3711
 20
178.445
 11
12.5729
 21
178.763
  0
LINE
  8
0
 10
12.5729
 20
178.763
 11
12.8131
 21
179.054
  0
LINE
  8
0
 10
12.8131
 20
179.054
 11
13.0877
 21
179.312
  0
LINE
  8
0
 10
13.0877
 20
179.312
 11
13.3925
 21
179.533
  0
LINE
  8
0
 10
13.3925
 20
179.533
 11
13.7227
 21
179.714
  0
LINE
  8
0
 10
13.7227
 20
179.714
 11
14.0729
 21
179.853
  0
LINE
  8
0
 10
14.0729
 20
179.853
 11
14.4379
 21
179.947
  0
LINE
  8
0
 10
14.4379
 20
179.947
 11
14.8116
 21
179.994
  0
LINE
  8
0
 10
14.8116
 20
179.994
 11
15.1884
 21
179.994
  0
LINE
  8
0
 10
15.1884
 20
179.994
 11
15.5621
 21
179.947
  0
LINE
  8
0
 10
15.5621
 20
179.947
 11
15.927
 21
179.853
  0
LINE
  8
0
 10
15.927
 20
179.853
 11
16.2773
 21
179.714
  0
LINE
  8
0
 10
16.2773
 20
179.714
 11
16.6075
 21
179.533
  0
LINE
  8
0
 10
16.6075
 20
179.533
 11
16.9123
 21
179.312
  0
LINE
  8
0
 10
16.9123
 20
179.312
 11
17.1869
 21
179.054
  0
LINE
  8
0
 10
17.1869
 20
179.054
 11
17.427
 21
178.763
  0
LINE
  8
0
 10
17.427
 20
178.763
 11
17.6289
 21
178.445
  0
LINE
  8
0
 10
17.6289
 20
178.445
 11
17.7893
 21
178.104
  0
LINE
  8
0
 10
17.7893
 20
178.104
 11
17.9057
 21
177.746
  0
LINE
  8
0
 10
17.9057
 20
177.746
 11
17.9763
 21
177.376
  0
LINE
  8
0
 10
17.9763
 20
177.376
 11
18
 21
177
  0
LINE
  8
0
 10
18
 20
177
 11
17.9763
 21
176.624
  0
LINE
  8
0
 10
17.9763
 20
176.624
 11
17.9057
 21
176.254
  0
LINE
  8
0
 10
17.9057
 20
176.254
 11
17.7893
 21
175.896
  0
LINE
  8
0
 10
17.7893
 20
175.896
 11
17.6289
 21
175.555
  0
LINE
  8
0
 10
17.6289
 20
175.555
 11
17.427
 21
175.237
  0
LINE
  8
0
 10
17.427
 20
175.237
 11
17.1869
 21
174.946
  0
LINE
  8
0
 10
17.1869
 20
174.946
 11
16.9123
 21
174.688
  0
LINE
  8
0
 10
16.9123
 20
174.688
 11
16.6075
 21
174.467
  0
LINE
  8
0
 10
16.6075
 20
174.467
 11
16.2773
 21
174.286
  0
LINE
  8
0
 10
16.2773
 20
174.286
 11
15.927
 21
174.147
  0
LINE
  8
0
 10
15.927
 20
174.147
 11
15.5621
 21
174.053
  0
LINE
  8
0
 10
15.5621
 20
174.053
 11
15.1884
 21
174.006
  0
LINE
  8
0
 10
15.1884
 20
174.006
 11
14.8116
 21
174.006
  0
LINE
  8
0
 10
-0.18837
 20
174.006
 11
-0.562134
 21
174.053
  0
LINE
  8
0
 10
-0.562134
 20
174.053
 11
-0.927048
 21
174.147
  0
LINE
  8
0
 10
-0.927048
 20
174.147
 11
-1.27733
 21
174.286
  0
LINE
  8
0
 10
-1.27733
 20
174.286
 11
-1.60747
 21
174.467
  0
LINE
  8
0
 10
-1.60747
 20
174.467
 11
-1.91226
 21
174.688
  0
LINE
  8
0
 10
-1.91226
 20
174.688
 11
-2.1869
 21
174.946
  0
LINE
  8
0
 10
-2.1869
 20
174.946
 11
-2.42705
 21
175.237
  0
LINE
  8
0
 10
-2.42705
 20
175.237
 11
-2.62891
 21
175.555
  0
LINE
  8
0
 10
-2.62891
 20
175.555
 11
-2.78932
 21
175.896
  0
LINE
  8
0
 10
-2.78932
 20
175.896
 11
-2.90575
 21
176.254
  0
LINE
  8
0
 10
-2.90575
 20
176.254
 11
-2.97633
 21
176.624
  0
LINE
  8
0
 10
-2.97633
 20
176.624
 11
-3
 21
177
  0
LINE
  8
0
 10
-3
 20
177
 11
-2.97633
 21
177.376
  0
LINE
  8
0
 10
-2.97633
 20
177.376
 11
-2.90575
 21
177.746
  0
LINE
  8
0
 10
-2.90575
 20
177.746
 11
-2.78932
 21
178.104
  0
LINE
  8
0
 10
-2.78932
 20
178.104
 11
-2.62891
 21
178.445
  0
LINE
  8
0
 10
-2.62891
 20
178.445
 11
-2.42705
 21
178.763
  0
LINE
  8
0
 10
-2.42705
 20
178.763
 11
-2.1869
 21
179.054
  0
LINE
  8
0
 10
-2.1869
 20
179.054
 11
-1.91226
 21
179.312
  0
LINE
  8
0
 10
-1.91226
 20
179.312
 11
-1.60747
 21
179.533
  0
LINE
  8
0
 10
-1.60747
 20
179.533
 11
-1.27733
 21
179.714
  0
LINE
  8
0
 10
-1.27733
 20
179.714
 11
-0.927048
 21
179.853
  0
LINE
  8
0
 10
-0.927048
 20
179.853
 11
-0.562134
 21
179.947
  0
LINE
  8
0
 10
-0.562134
 20
179.947
 11
-0.18837
 21
179.994
  0
LINE
  8
0
 10
-0.18837
 20
179.994
 11
0.18837
 21
179.994
  0
LINE
  8
0
 10
0.18837
 20
179.994
 11
0.562134
 21
179.947
  0
LINE
  8
0
 10
0.562134
 20
179.947
 11
0.927048
 21
179.853
  0
LINE
  8
0
 10
0.927048
 20
179.853
 11
1.27733
 21
179.714
  0
LINE
  8
0
 10
1.27733
 20
179.714
 11
1.60747
 21
179.533
  0
LINE
  8
0
 10
1.60747
 20
179.533
 11
1.91226
 21
179.312
  0
LINE
  8
0
 10
1.91226
 20
179.312
 11
2.1869
 21
179.054
  0
LINE
  8
0
 10
2.1869
 20
179.054
 11
2.42705
 21
178.763
  0
LINE
  8
0
 10
2.42705
 20
178.763
 11
2.62891
 21
178.445
  0
LINE
  8
0
 10
2.62891
 20
178.445
 11
2.78932
 21
178.104
  0
LINE
  8
0
 10
2.78932
 20
178.104
 11
2.90575
 21
177.746
  0
LINE
  8
0
 10
2.90575
 20
177.746
 11
2.97633
 21
177.376
  0
LINE
  8
0
 10
2.97633
 20
177.376
 11
3
 21
177
  0
LINE
  8
0
 10
3
 20
177
 11
2.97633
 21
176.624
  0
LINE
  8
0
 10
2.97633
 20
176.624
 11
2.90575
 21
176.254
  0
LINE
  8
0
 10
2.90575
 20
176.254
 11
2.78932
 21
175.896
  0
LINE
  8
0
 10
2.78932
 20
175.896
 11
2.62891
 21
175.555
  0
LINE
  8
0
 10
2.62891
 20
175.555
 11
2.42705
 21
175.237
  0
LINE
  8
0
 10
2.42705
 20
175.237
 11
2.1869
 21
174.946
  0
LINE
  8
0
 10
2.1869
 20
174.946
 11
1.91226
 21
174.688
  0
LINE
  8
0
 10
1.91226
 20
174.688
 11
1.60747
 21
174.467
  0
LINE
  8
0
 10
1.60747
 20
174.467
 11
1.27733
 21
174.286
  0
LINE
  8
0
 10
1.27733
 20
174.286
 11
0.927048
 21
174.147
  0
LINE
  8
0
 10
0.927048
 20
174.147
 11
0.562134
 21
174.053
  0
LINE
  8
0
 10
0.562134
 20
174.053
 11
0.18837
 21
174.006
  0
LINE
  8
0
 10
0.18837
 20
174.006
 11
-0.18837
 21
174.006
  0
LINE
  8
0
 10
-15.1884
 20
174.006
 11
-15.5621
 21
174.053
  0
LINE
  8
0
 10
-15.5621
 20
174.053
 11
-15.927
 21
174.147
  0
LINE
  8
0
 10
-15.927
 20
174.147
 11
-16.2773
 21
174.286
  0
LINE
  8
0
 10
-16.2773
 20
174.286
 11
-16.6075
 21
174.467
  0
LINE
  8
0
 10
-16.6075
 20
174.467
 11
-16.9123
 21
174.688
  0
LINE
  8
0
 10
-16.9123
 20
174.688
 11
-17.1869
 21
174.946
  0
LINE
  8
0
 10
-17.1869
 20
174.946
 11
-17.427
 21
175.237
  0
LINE
  8
0
 10
-17.427
 20
175.237
 11
-17.6289
 21
175.555
  0
LINE
  8
0
 10
-17.6289
 20
175.555
 11
-17.7893
 21
175.896
  0
LINE
  8
0
 10
-17.7893
 20
175.896
 11
-17.9057
 21
176.254
  0
LINE
  8
0
 10
-17.9057
 20
176.254
 11
-17.9763
 21
176.624
  0
LINE
  8
0
 10
-17.9763
 20
176.624
 11
-18
 21
177
  0
LINE
  8
0
 10
-18
 20
177
 11
-17.9763
 21
177.376
  0
LINE
  8
0
 10
-17.9763
 20
177.376
 11
-17.9057
 21
177.746
  0
LINE
  8
0
 10
-17.9057
 20
177.746
 11
-17.7893
 21
178.104
  0
LINE
  8
0
 10
-17.7893
 20
178.104
 11
-17.6289
 21
178.445
  0
LINE
  8
0
 10
-17.6289
 20
178.445
 11
-17.427
 21
178.763
  0
LINE
  8
0
 10
-17.427
 20
178.763
 11
-17.1869
 21
179.054
  0
LINE
  8
0
 10
-17.1869
 20
179.054
 11
-16.9123
 21
179.312
  0
LINE
  8
0
 10
-16.9123
 20
179.312
 11
-16.6075
 21
179.533
  0
LINE
  8
0
 10
-16.6075
 20
179.533
 11
-16.2773
 21
179.714
  0
LINE
  8
0
 10
-16.2773
 20
179.714
 11
-15.927
 21
179.853
  0
LINE
  8
0
 10
-15.927
 20
179.853
 11
-15.5621
 21
179.947
  0
LINE
  8
0
 10
-15.5621
 20
179.947
 11
-15.1884
 21
179.994
  0
LINE
  8
0
 10
-15.1884
 20
179.994
 11
-14.8116
 21
179.994
  0
LINE
  8
0
 10
-14.8116
 20
179.994
 11
-14.4379
 21
179.947
  0
LINE
  8
0
 10
-14.4379
 20
179.947
 11
-14.0729
 21
179.853
  0
LINE
  8
0
 10
-14.0729
 20
179.853
 11
-13.7227
 21
179.714
  0
LINE
  8
0
 10
-13.7227
 20
179.714
 11
-13.3925
 21
179.533
  0
LINE
  8
0
 10
-13.3925
 20
179.533
 11
-13.0877
 21
179.312
  0
LINE
  8
0
 10
-13.0877
 20
179.312
 11
-12.8131
 21
179.054
  0
LINE
  8
0
 10
-12.8131
 20
179.054
 11
-12.5729
 21
178.763
  0
LINE
  8
0
 10
-12.5729
 20
178.763
 11
-12.3711
 21
178.445
  0
LINE
  8
0
 10
-12.3711
 20
178.445
 11
-12.2107
 21
178.104
  0
LINE
  8
0
 10
-12.2107
 20
178.104
 11
-12.0942
 21
177.746
  0
LINE
  8
0
 10
-12.0942
 20
177.746
 11
-12.0237
 21
177.376
  0
LINE
  8
0
 10
-12.0237
 20
177.376
 11
-12
 21
177
  0
LINE
  8
0
 10
-12
 20
177
 11
-12.0237
 21
176.624
  0
LINE
  8
0
 10
-12.0237
 20
176.624
 11
-12.0942
 21
176.254
  0
LINE
  8
0
 10
-12.0942
 20
176.254
 11
-12.2107
 21
175.896
  0
LINE
  8
0
 10
-12.2107
 20
175.896
 11
-12.3711
 21
175.555
  0
LINE
  8
0
 10
-12.3711
 20
175.555
 11
-12.5729
 21
175.237
  0
LINE
  8
0
 10
-12.5729
 20
175.237
 11
-12.8131
 21
174.946
  0
LINE
  8
0
 10
-12.8131
 20
174.946
 11
-13.0877
 21
174.688
  0
LINE
  8
0
 10
-13.0877
 20
174.688
 11
-13.3925
 21
174.467
  0
LINE
  8
0
 10
-13.3925
 20
174.467
 11
-13.7227
 21
174.286
  0
LINE
  8
0
 10
-13.7227
 20
174.286
 11
-14.0729
 21
174.147
  0
LINE
  8
0
 10
-14.0729
 20
174.147
 11
-14.4379
 21
174.053
  0
LINE
  8
0
 10
-14.4379
 20
174.053
 11
-14.8116
 21
174.006
  0
LINE
  8
0
 10
-14.8116
 20
174.006
 11
-15.1884
 21
174.006
  0
LINE
  8
0
 10
-7.59418
 20
175.503
 11
-7.78107
 21
175.527
  0
LINE
  8
0
 10
-7.78107
 20
175.527
 11
-7.96352
 21
175.573
  0
LINE
  8
0
 10
-7.96352
 20
175.573
 11
-8.13866
 21
175.643
  0
LINE
  8
0
 10
-8.13866
 20
175.643
 11
-8.30373
 21
175.734
  0
LINE
  8
0
 10
-8.30373
 20
175.734
 11
-8.45613
 21
175.844
  0
LINE
  8
0
 10
-8.45613
 20
175.844
 11
-8.59344
 21
175.973
  0
LINE
  8
0
 10
-8.59344
 20
175.973
 11
-8.71352
 21
176.118
  0
LINE
  8
0
 10
-8.71352
 20
176.118
 11
-8.81445
 21
176.277
  0
LINE
  8
0
 10
-8.81445
 20
176.277
 11
-8.89465
 21
176.448
  0
LINE
  8
0
 10
-8.89465
 20
176.448
 11
-8.95287
 21
176.627
  0
LINE
  8
0
 10
-8.95287
 20
176.627
 11
-8.98816
 21
176.812
  0
LINE
  8
0
 10
-8.98816
 20
176.812
 11
-9
 21
177
  0
LINE
  8
0
 10
-9
 20
177
 11
-8.98816
 21
177.188
  0
LINE
  8
0
 10
-8.98816
 20
177.188
 11
-8.95287
 21
177.373
  0
LINE
  8
0
 10
-8.95287
 20
177.373
 11
-8.89465
 21
177.552
  0
LINE
  8
0
 10
-8.89465
 20
177.552
 11
-8.81445
 21
177.723
  0
LINE
  8
0
 10
-8.81445
 20
177.723
 11
-8.71352
 21
177.882
  0
LINE
  8
0
 10
-8.71352
 20
177.882
 11
-8.59344
 21
178.027
  0
LINE
  8
0
 10
-8.59344
 20
178.027
 11
-8.45613
 21
178.156
  0
LINE
  8
0
 10
-8.45613
 20
178.156
 11
-8.30373
 21
178.266
  0
LINE
  8
0
 10
-8.30373
 20
178.266
 11
-8.13866
 21
178.357
  0
LINE
  8
0
 10
-8.13866
 20
178.357
 11
-7.96352
 21
178.427
  0
LINE
  8
0
 10
-7.96352
 20
178.427
 11
-7.78107
 21
178.473
  0
LINE
  8
0
 10
-7.78107
 20
178.473
 11
-7.59418
 21
178.497
  0
LINE
  8
0
 10
-7.59418
 20
178.497
 11
-7.40581
 21
178.497
  0
LINE
  8
0
 10
-7.40581
 20
178.497
 11
-7.21892
 21
178.473
  0
LINE
  8
0
 10
-7.21892
 20
178.473
 11
-7.03647
 21
178.427
  0
LINE
  8
0
 10
-7.03647
 20
178.427
 11
-6.86133
 21
178.357
  0
LINE
  8
0
 10
-6.86133
 20
178.357
 11
-6.69626
 21
178.266
  0
LINE
  8
0
 10
-6.69626
 20
178.266
 11
-6.54385
 21
178.156
  0
LINE
  8
0
 10
-6.54385
 20
178.156
 11
-6.40654
 21
178.027
  0
LINE
  8
0
 10
-6.40654
 20
178.027
 11
-6.28647
 21
177.882
  0
LINE
  8
0
 10
-6.28647
 20
177.882
 11
-6.18553
 21
177.723
  0
LINE
  8
0
 10
-6.18553
 20
177.723
 11
-6.10533
 21
177.552
  0
LINE
  8
0
 10
-6.10533
 20
177.552
 11
-6.04712
 21
177.373
  0
LINE
  8
0
 10
-6.04712
 20
177.373
 11
-6.01183
 21
177.188
  0
LINE
  8
0
 10
-6.01183
 20
177.188
 11
-6
 21
177
  0
LINE
  8
0
 10
-6
 20
177
 11
-6.01183
 21
176.812
  0
LINE
  8
0
 10
-6.01183
 20
176.812
 11
-6.04712
 21
176.627
  0
LINE
  8
0
 10
-6.04712
 20
176.627
 11
-6.10533
 21
176.448
  0
LINE
  8
0
 10
-6.10533
 20
176.448
 11
-6.18553
 21
176.277
  0
LINE
  8
0
 10
-6.18553
 20
176.277
 11
-6.28647
 21
176.118
  0
LINE
  8
0
 10
-6.28647
 20
176.118
 11
-6.40654
 21
175.973
  0
LINE
  8
0
 10
-6.40654
 20
175.973
 11
-6.54385
 21
175.844
  0
LINE
  8
0
 10
-6.54385
 20
175.844
 11
-6.69626
 21
175.734
  0
LINE
  8
0
 10
-6.69626
 20
175.734
 11
-6.86133
 21
175.643
  0
LINE
  8
0
 10
-6.86133
 20
175.643
 11
-7.03647
 21
175.573
  0
LINE
  8
0
 10
-7.03647
 20
175.573
 11
-7.21892
 21
175.527
  0
LINE
  8
0
 10
-7.21892
 20
175.527
 11
-7.40581
 21
175.503
  0
LINE
  8
0
 10
-7.40581
 20
175.503
 11
-7.59418
 21
175.503
  0
LINE
  8
0
 10
7.40581
 20
175.503
 11
7.21892
 21
175.527
  0
LINE
  8
0
 10
7.21892
 20
175.527
 11
7.03647
 21
175.573
  0
LINE
  8
0
 10
7.03647
 20
175.573
 11
6.86133
 21
175.643
  0
LINE
  8
0
 10
6.86133
 20
175.643
 11
6.69626
 21
175.734
  0
LINE
  8
0
 10
6.69626
 20
175.734
 11
6.54385
 21
175.844
  0
LINE
  8
0
 10
6.54385
 20
175.844
 11
6.40654
 21
175.973
  0
LINE
  8
0
 10
6.40654
 20
175.973
 11
6.28647
 21
176.118
  0
LINE
  8
0
 10
6.28647
 20
176.118
 11
6.18553
 21
176.277
  0
LINE
  8
0
 10
6.18553
 20
176.277
 11
6.10533
 21
176.448
  0
LINE
  8
0
 10
6.10533
 20
176.448
 11
6.04712
 21
176.627
  0
LINE
  8
0
 10
6.04712
 20
176.627
 11
6.01183
 21
176.812
  0
LINE
  8
0
 10
6.01183
 20
176.812
 11
6
 21
177
  0
LINE
  8
0
 10
6
 20
177
 11
6.01183
 21
177.188
  0
LINE
  8
0
 10
6.01183
 20
177.188
 11
6.04712
 21
177.373
  0
LINE
  8
0
 10
6.04712
 20
177.373
 11
6.10533
 21
177.552
  0
LINE
  8
0
 10
6.10533
 20
177.552
 11
6.18553
 21
177.723
  0
LINE
  8
0
 10
6.18553
 20
177.723
 11
6.28647
 21
177.882
  0
LINE
  8
0
 10
6.28647
 20
177.882
 11
6.40654
 21
178.027
  0
LINE
  8
0
 10
6.40654
 20
178.027
 11
6.54385
 21
178.156
  0
LINE
  8
0
 10
6.54385
 20
178.156
 11
6.69626
 21
178.266
  0
LINE
  8
0
 10
6.69626
 20
178.266
 11
6.86133
 21
178.357
  0
LINE
  8
0
 10
6.86133
 20
178.357
 11
7.03647
 21
178.427
  0
LINE
  8
0
 10
7.03647
 20
178.427
 11
7.21892
 21
178.473
  0
LINE
  8
0
 10
7.21892
 20
178.473
 11
7.40581
 21
178.497
  0
LINE
  8
0
 10
7.40581
 20
178.497
 11
7.59418
 21
178.497
  0
LINE
  8
0
 10
7.59418
 20
178.497
 11
7.78107
 21
178.473
  0
LINE
  8
0
 10
7.78107
 20
178.473
 11
7.96352
 21
178.427
  0
LINE
  8
0
 10
7.96352
 20
178.427
 11
8.13866
 21
178.357
  0
LINE
  8
0
 10
8.13866
 20
178.357
 11
8.30373
 21
178.266
  0
LINE
  8
0
 10
8.30373
 20
178.266
 11
8.45613
 21
178.156
  0
LINE
  8
0
 10
8.45613
 20
178.156
 11
8.59344
 21
178.027
  0
LINE
  8
0
 10
8.59344
 20
178.027
 11
8.71352
 21
177.882
  0
LINE
  8
0
 10
8.71352
 20
177.882
 11
8.81445
 21
177.723
  0
LINE
  8
0
 10
8.81445
 20
177.723
 11
8.89465
 21
177.552
  0
LINE
  8
0
 10
8.89465
 20
177.552
 11
8.95287
 21
177.373
  0
LINE
  8
0
 10
8.95287
 20
177.373
 11
8.98816
 21
177.188
  0
LINE
  8
0
 10
8.98816
 20
177.188
 11
9
 21
177
  0
LINE
  8
0
 10
9
 20
177
 11
8.98816
 21
176.812
  0
LINE
  8
0
 10
8.98816
 20
176.812
 11
8.95287
 21
176.627
  0
LINE
  8
0
 10
8.95287
 20
176.627
 11
8.89465
 21
176.448
  0
LINE
  8
0
 10
8.89465
 20
176.448
 11
8.81445
 21
176.277
  0
LINE
  8
0
 10
8.81445
 20
176.277
 11
8.71352
 21
176.118
  0
LINE
  8
0
 10
8.71352
 20
176.118
 11
8.59344
 21
175.973
  0
LINE
  8
0
 10
8.59344
 20
175.973
 11
8.45613
 21
175.844
  0
LINE
  8
0
 10
8.45613
 20
175.844
 11
8.30373
 21
175.734
  0
LINE
  8
0
 10
8.30373
 20
175.734
 11
8.13866
 21
175.643
  0
LINE
  8
0
 10
8.13866
 20
175.643
 11
7.96352
 21
175.573
  0
LINE
  8
0
 10
7.96352
 20
175.573
 11
7.78107
 21
175.527
  0
LINE
  8
0
 10
7.78107
 20
175.527
 11
7.59418
 21
175.503
  0
LINE
  8
0
 10
7.59418
 20
175.503
 11
7.40581
 21
175.503
  0
LINE
  8
0
 10
-7.31395
 20
151.51
 11
-7.9369
 21
151.589
  0
LINE
  8
0
 10
-7.9369
 20
151.589
 11
-8.54507
 21
151.745
  0
LINE
  8
0
 10
-8.54507
 20
151.745
 11
-9.12889
 21
151.976
  0
LINE
  8
0
 10
-9.12889
 20
151.976
 11
-9.67912
 21
152.278
  0
LINE
  8
0
 10
-9.67912
 20
152.278
 11
-10.1871
 21
152.647
  0
LINE
  8
0
 10
-10.1871
 20
152.647
 11
-10.6448
 21
153.077
  0
LINE
  8
0
 10
-10.6448
 20
153.077
 11
-11.0451
 21
153.561
  0
LINE
  8
0
 10
-11.0451
 20
153.561
 11
-11.3815
 21
154.091
  0
LINE
  8
0
 10
-11.3815
 20
154.091
 11
-11.6489
 21
154.659
  0
LINE
  8
0
 10
-11.6489
 20
154.659
 11
-11.8429
 21
155.257
  0
LINE
  8
0
 10
-11.8429
 20
155.257
 11
-11.9606
 21
155.873
  0
LINE
  8
0
 10
-11.9606
 20
155.873
 11
-12
 21
156.5
  0
LINE
  8
0
 10
-12
 20
156.5
 11
-12
 21
167.5
  0
LINE
  8
0
 10
-12
 20
167.5
 11
-11.9606
 21
168.127
  0
LINE
  8
0
 10
-11.9606
 20
168.127
 11
-11.8429
 21
168.743
  0
LINE
  8
0
 10
-11.8429
 20
168.743
 11
-11.6489
 21
169.341
  0
LINE
  8
0
 10
-11.6489
 20
169.341
 11
-11.3815
 21
169.909
  0
LINE
  8
0
 10
-11.3815
 20
169.909
 11
-11.0451
 21
170.439
  0
LINE
  8
0
 10
-11.0451
 20
170.439
 11
-10.6448
 21
170.923
  0
LINE
  8
0
 10
-10.6448
 20
170.923
 11
-10.1871
 21
171.353
  0
LINE
  8
0
 10
-10.1871
 20
171.353
 11
-9.67912
 21
171.722
  0
LINE
  8
0
 10
-9.67912
 20
171.722
 11
-9.12889
 21
172.024
  0
LINE
  8
0
 10
-9.12889
 20
172.024
 11
-8.54507
 21
172.255
  0
LINE
  8
0
 10
-8.54507
 20
172.255
 11
-7.9369
 21
172.411
  0
LINE
  8
0
 10
-7.9369
 20
172.411
 11
-7.31395
 21
172.49
  0
LINE
  8
0
 10
-7.31395
 20
172.49
 11
7.31395
 21
172.49
  0
LINE
  8
0
 10
7.31395
 20
172.49
 11
7.9369
 21
172.411
  0
LINE
  8
0
 10
7.9369
 20
172.411
 11
8.54507
 21
172.255
  0
LINE
  8
0
 10
8.54507
 20
172.255
 11
9.12889
 21
172.024
  0
LINE
  8
0
 10
9.12889
 20
172.024
 11
9.67912
 21
171.722
  0
LINE
  8
0
 10
9.67912
 20
171.722
 11
10.1871
 21
171.353
  0
LINE
  8
0
 10
10.1871
 20
171.353
 11
10.6448
 21
170.923
  0
LINE
  8
0
 10
10.6448
 20
170.923
 11
11.0451
 21
170.439
  0
LINE
  8
0
 10
11.0451
 20
170.439
 11
11.3815
 21
169.909
  0
LINE
  8
0
 10
11.3815
 20
169.909
 11
11.6489
 21
169.341
  0
LINE
  8
0
 10
11.6489
 20
169.341
 11
11.8429
 21
168.743
  0
LINE
  8
0
 10
11.8429
 20
168.743
 11
11.9606
 21
168.127
  0
LINE
  8
0
 10
11.9606
 20
168.127
 11
12
 21
167.5
  0
LINE
  8
0
 10
12
 20
167.5
 11
12
 21
156.5
  0
LINE
  8
0
 10
12
 20
156.5
 11
11.9606
 21
155.873
  0
LINE
  8
0
 10
11.9606
 20
155.873
 11
11.8429
 21
155.257
  0
LINE
  8
0
 10
11.8429
 20
155.257
 11
11.6489
 21
154.659
  0
LINE
  8
0
 10
11.6489
 20
154.659
 11
11.3815
 21
154.091
  0
LINE
  8
0
 10
11.3815
 20
154.091
 11
11.0451
 21
153.561
  0
LINE
  8
0
 10
11.0451
 20
153.561
 11
10.6448
 21
153.077
  0
LINE
  8
0
 10
10.6448
 20
153.077
 11
10.1871
 21
152.647
  0
LINE
  8
0
 10
10.1871
 20
152.647
 11
9.67912
 21
152.278
  0
LINE
  8
0
 10
9.67912
 20
152.278
 11
9.12889
 21
151.976
  0
LINE
  8
0
 10
9.12889
 20
151.976
 11
8.54507
 21
151.745
  0
LINE
  8
0
 10
8.54507
 20
151.745
 11
7.9369
 21
151.589
  0
LINE
  8
0
 10
7.9369
 20
151.589
 11
7.31395
 21
151.51
  0
LINE
  8
0
 10
7.31395
 20
151.51
 11
-7.31395
 21
151.51
  0
LINE
  8
0
 10
14.9058
 20
168.003
 11
14.7189
 21
168.027
  0
LINE
  8
0
 10
14.7189
 20
168.027
 11
14.5365
 21
168.073
  0
LINE
  8
0
 10
14.5365
 20
168.073
 11
14.3613
 21
168.143
  0
LINE
  8
0
 10
14.3613
 20
168.143
 11
14.1963
 21
168.234
  0
LINE
  8
0
 10
14.1963
 20
168.234
 11
14.0439
 21
168.344
  0
LINE
  8
0
 10
14.0439
 20
168.344
 11
13.9065
 21
168.473
  0
LINE
  8
0
 10
13.9065
 20
168.473
 11
13.7865
 21
168.618
  0
LINE
  8
0
 10
13.7865
 20
168.618
 11
13.6855
 21
168.777
  0
LINE
  8
0
 10
13.6855
 20
168.777
 11
13.6053
 21
168.948
  0
LINE
  8
0
 10
13.6053
 20
168.948
 11
13.5471
 21
169.127
  0
LINE
  8
0
 10
13.5471
 20
169.127
 11
13.5118
 21
169.312
  0
LINE
  8
0
 10
13.5118
 20
169.312
 11
13.5
 21
169.5
  0
LINE
  8
0
 10
13.5
 20
169.5
 11
13.5118
 21
169.688
  0
LINE
  8
0
 10
13.5118
 20
169.688
 11
13.5471
 21
169.873
  0
LINE
  8
0
 10
13.5471
 20
169.873
 11
13.6053
 21
170.052
  0
LINE
  8
0
 10
13.6053
 20
170.052
 11
13.6855
 21
170.223
  0
LINE
  8
0
 10
13.6855
 20
170.223
 11
13.7865
 21
170.382
  0
LINE
  8
0
 10
13.7865
 20
170.382
 11
13.9065
 21
170.527
  0
LINE
  8
0
 10
13.9065
 20
170.527
 11
14.0439
 21
170.656
  0
LINE
  8
0
 10
14.0439
 20
170.656
 11
14.1963
 21
170.766
  0
LINE
  8
0
 10
14.1963
 20
170.766
 11
14.3613
 21
170.857
  0
LINE
  8
0
 10
14.3613
 20
170.857
 11
14.5365
 21
170.927
  0
LINE
  8
0
 10
14.5365
 20
170.927
 11
14.7189
 21
170.973
  0
LINE
  8
0
 10
14.7189
 20
170.973
 11
14.9058
 21
170.997
  0
LINE
  8
0
 10
14.9058
 20
170.997
 11
15.0942
 21
170.997
  0
LINE
  8
0
 10
15.0942
 20
170.997
 11
15.2811
 21
170.973
  0
LINE
  8
0
 10
15.2811
 20
170.973
 11
15.4635
 21
170.927
  0
LINE
  8
0
 10
15.4635
 20
170.927
 11
15.6387
 21
170.857
  0
LINE
  8
0
 10
15.6387
 20
170.857
 11
15.8037
 21
170.766
  0
LINE
  8
0
 10
15.8037
 20
170.766
 11
15.9561
 21
170.656
  0
LINE
  8
0
 10
15.9561
 20
170.656
 11
16.0934
 21
170.527
  0
LINE
  8
0
 10
16.0934
 20
170.527
 11
16.2135
 21
170.382
  0
LINE
  8
0
 10
16.2135
 20
170.382
 11
16.3145
 21
170.223
  0
LINE
  8
0
 10
16.3145
 20
170.223
 11
16.3947
 21
170.052
  0
LINE
  8
0
 10
16.3947
 20
170.052
 11
16.4529
 21
169.873
  0
LINE
  8
0
 10
16.4529
 20
169.873
 11
16.4882
 21
169.688
  0
LINE
  8
0
 10
16.4882
 20
169.688
 11
16.5
 21
169.5
  0
LINE
  8
0
 10
16.5
 20
169.5
 11
16.4882
 21
169.312
  0
LINE
  8
0
 10
16.4882
 20
169.312
 11
16.4529
 21
169.127
  0
LINE
  8
0
 10
16.4529
 20
169.127
 11
16.3947
 21
168.948
  0
LINE
  8
0
 10
16.3947
 20
168.948
 11
16.3145
 21
168.777
  0
LINE
  8
0
 10
16.3145
 20
168.777
 11
16.2135
 21
168.618
  0
LINE
  8
0
 10
16.2135
 20
168.618
 11
16.0934
 21
168.473
  0
LINE
  8
0
 10
16.0934
 20
168.473
 11
15.9561
 21
168.344
  0
LINE
  8
0
 10
15.9561
 20
168.344
 11
15.8037
 21
168.234
  0
LINE
  8
0
 10
15.8037
 20
168.234
 11
15.6387
 21
168.143
  0
LINE
  8
0
 10
15.6387
 20
168.143
 11
15.4635
 21
168.073
  0
LINE
  8
0
 10
15.4635
 20
168.073
 11
15.2811
 21
168.027
  0
LINE
  8
0
 10
15.2811
 20
168.027
 11
15.0942
 21
168.003
  0
LINE
  8
0
 10
15.0942
 20
168.003
 11
14.9058
 21
168.003
  0
LINE
  8
0
 10
-15.0942
 20
168.003
 11
-15.2811
 21
168.027
  0
LINE
  8
0
 10
-15.2811
 20
168.027
 11
-15.4635
 21
168.073
  0
LINE
  8
0
 10
-15.4635
 20
168.073
 11
-15.6387
 21
168.143
  0
LINE
  8
0
 10
-15.6387
 20
168.143
 11
-15.8037
 21
168.234
  0
LINE
  8
0
 10
-15.8037
 20
168.234
 11
-15.9561
 21
168.344
  0
LINE
  8
0
 10
-15.9561
 20
168.344
 11
-16.0934
 21
168.473
  0
LINE
  8
0
 10
-16.0934
 20
168.473
 11
-16.2135
 21
168.618
  0
LINE
  8
0
 10
-16.2135
 20
168.618
 11
-16.3145
 21
168.777
  0
LINE
  8
0
 10
-16.3145
 20
168.777
 11
-16.3947
 21
168.948
  0
LINE
  8
0
 10
-16.3947
 20
168.948
 11
-16.4529
 21
169.127
  0
LINE
  8
0
 10
-16.4529
 20
169.127
 11
-16.4882
 21
169.312
  0
LINE
  8
0
 10
-16.4882
 20
169.312
 11
-16.5
 21
169.5
  0
LINE
  8
0
 10
-16.5
 20
169.5
 11
-16.4882
 21
169.688
  0
LINE
  8
0
 10
-16.4882
 20
169.688
 11
-16.4529
 21
169.873
  0
LINE
  8
0
 10
-16.4529
 20
169.873
 11
-16.3947
 21
170.052
  0
LINE
  8
0
 10
-16.3947
 20
170.052
 11
-16.3145
 21
170.223
  0
LINE
  8
0
 10
-16.3145
 20
170.223
 11
-16.2135
 21
170.382
  0
LINE
  8
0
 10
-16.2135
 20
170.382
 11
-16.0934
 21
170.527
  0
LINE
  8
0
 10
-16.0934
 20
170.527
 11
-15.9561
 21
170.656
  0
LINE
  8
0
 10
-15.9561
 20
170.656
 11
-15.8037
 21
170.766
  0
LINE
  8
0
 10
-15.8037
 20
170.766
 11
-15.6387
 21
170.857
  0
LINE
  8
0
 10
-15.6387
 20
170.857
 11
-15.4635
 21
170.927
  0
LINE
  8
0
 10
-15.4635
 20
170.927
 11
-15.2811
 21
170.973
  0
LINE
  8
0
 10
-15.2811
 20
170.973
 11
-15.0942
 21
170.997
  0
LINE
  8
0
 10
-15.0942
 20
170.997
 11
-14.9058
 21
170.997
  0
LINE
  8
0
 10
-14.9058
 20
170.997
 11
-14.7189
 21
170.973
  0
LINE
  8
0
 10
-14.7189
 20
170.973
 11
-14.5365
 21
170.927
  0
LINE
  8
0
 10
-14.5365
 20
170.927
 11
-14.3613
 21
170.857
  0
LINE
  8
0
 10
-14.3613
 20
170.857
 11
-14.1963
 21
170.766
  0
LINE
  8
0
 10
-14.1963
 20
170.766
 11
-14.0439
 21
170.656
  0
LINE
  8
0
 10
-14.0439
 20
170.656
 11
-13.9065
 21
170.527
  0
LINE
  8
0
 10
-13.9065
 20
170.527
 11
-13.7865
 21
170.382
  0
LINE
  8
0
 10
-13.7865
 20
170.382
 11
-13.6855
 21
170.223
  0
LINE
  8
0
 10
-13.6855
 20
170.223
 11
-13.6053
 21
170.052
  0
LINE
  8
0
 10
-13.6053
 20
170.052
 11
-13.5471
 21
169.873
  0
LINE
  8
0
 10
-13.5471
 20
169.873
 11
-13.5118
 21
169.688
  0
LINE
  8
0
 10
-13.5118
 20
169.688
 11
-13.5
 21
169.5
  0
LINE
  8
0
 10
-13.5
 20
169.5
 11
-13.5118
 21
169.312
  0
LINE
  8
0
 10
-13.5118
 20
169.312
 11
-13.5471
 21
169.127
  0
LINE
  8
0
 10
-13.5471
 20
169.127
 11
-13.6053
 21
168.948
  0
LINE
  8
0
 10
-13.6053
 20
168.948
 11
-13.6855
 21
168.777
  0
LINE
  8
0
 10
-13.6855
 20
168.777
 11
-13.7865
 21
168.618
  0
LINE
  8
0
 10
-13.7865
 20
168.618
 11
-13.9065
 21
168.473
  0
LINE
  8
0
 10
-13.9065
 20
168.473
 11
-14.0439
 21
168.344
  0
LINE
  8
0
 10
-14.0439
 20
168.344
 11
-14.1963
 21
168.234
  0
LINE
  8
0
 10
-14.1963
 20
168.234
 11
-14.3613
 21
168.143
  0
LINE
  8
0
 10
-14.3613
 20
168.143
 11
-14.5365
 21
168.073
  0
LINE
  8
0
 10
-14.5365
 20
168.073
 11
-14.7189
 21
168.027
  0
LINE
  8
0
 10
-14.7189
 20
168.027
 11
-14.9058
 21
168.003
  0
LINE
  8
0
 10
-14.9058
 20
168.003
 11
-15.0942
 21
168.003
  0
LINE
  8
0
 10
-15.0942
 20
160.503
 11
-15.2811
 21
160.527
  0
LINE
  8
0
 10
-15.2811
 20
160.527
 11
-15.4635
 21
160.573
  0
LINE
  8
0
 10
-15.4635
 20
160.573
 11
-15.6387
 21
160.643
  0
LINE
  8
0
 10
-15.6387
 20
160.643
 11
-15.8037
 21
160.734
  0
LINE
  8
0
 10
-15.8037
 20
160.734
 11
-15.9561
 21
160.844
  0
LINE
  8
0
 10
-15.9561
 20
160.844
 11
-16.0934
 21
160.973
  0
LINE
  8
0
 10
-16.0934
 20
160.973
 11
-16.2135
 21
161.118
  0
LINE
  8
0
 10
-16.2135
 20
161.118
 11
-16.3145
 21
161.277
  0
LINE
  8
0
 10
-16.3145
 20
161.277
 11
-16.3947
 21
161.448
  0
LINE
  8
0
 10
-16.3947
 20
161.448
 11
-16.4529
 21
161.627
  0
LINE
  8
0
 10
-16.4529
 20
161.627
 11
-16.4882
 21
161.812
  0
LINE
  8
0
 10
-16.4882
 20
161.812
 11
-16.5
 21
162
  0
LINE
  8
0
 10
-16.5
 20
162
 11
-16.4882
 21
162.188
  0
LINE
  8
0
 10
-16.4882
 20
162.188
 11
-16.4529
 21
162.373
  0
LINE
  8
0
 10
-16.4529
 20
162.373
 11
-16.3947
 21
162.552
  0
LINE
  8
0
 10
-16.3947
 20
162.552
 11
-16.3145
 21
162.723
  0
LINE
  8
0
 10
-16.3145
 20
162.723
 11
-16.2135
 21
162.882
  0
LINE
  8
0
 10
-16.2135
 20
162.882
 11
-16.0934
 21
163.027
  0
LINE
  8
0
 10
-16.0934
 20
163.027
 11
-15.9561
 21
163.156
  0
LINE
  8
0
 10
-15.9561
 20
163.156
 11
-15.8037
 21
163.266
  0
LINE
  8
0
 10
-15.8037
 20
163.266
 11
-15.6387
 21
163.357
  0
LINE
  8
0
 10
-15.6387
 20
163.357
 11
-15.4635
 21
163.427
  0
LINE
  8
0
 10
-15.4635
 20
163.427
 11
-15.2811
 21
163.473
  0
LINE
  8
0
 10
-15.2811
 20
163.473
 11
-15.0942
 21
163.497
  0
LINE
  8
0
 10
-15.0942
 20
163.497
 11
-14.9058
 21
163.497
  0
LINE
  8
0
 10
-14.9058
 20
163.497
 11
-14.7189
 21
163.473
  0
LINE
  8
0
 10
-14.7189
 20
163.473
 11
-14.5365
 21
163.427
  0
LINE
  8
0
 10
-14.5365
 20
163.427
 11
-14.3613
 21
163.357
  0
LINE
  8
0
 10
-14.3613
 20
163.357
 11
-14.1963
 21
163.266
  0
LINE
  8
0
 10
-14.1963
 20
163.266
 11
-14.0439
 21
163.156
  0
LINE
  8
0
 10
-14.0439
 20
163.156
 11
-13.9065
 21
163.027
  0
LINE
  8
0
 10
-13.9065
 20
163.027
 11
-13.7865
 21
162.882
  0
LINE
  8
0
 10
-13.7865
 20
162.882
 11
-13.6855
 21
162.723
  0
LINE
  8
0
 10
-13.6855
 20
162.723
 11
-13.6053
 21
162.552
  0
LINE
  8
0
 10
-13.6053
 20
162.552
 11
-13.5471
 21
162.373
  0
LINE
  8
0
 10
-13.5471
 20
162.373
 11
-13.5118
 21
162.188
  0
LINE
  8
0
 10
-13.5118
 20
162.188
 11
-13.5
 21
162
  0
LINE
  8
0
 10
-13.5
 20
162
 11
-13.5118
 21
161.812
  0
LINE
  8
0
 10
-13.5118
 20
161.812
 11
-13.5471
 21
161.627
  0
LINE
  8
0
 10
-13.5471
 20
161.627
 11
-13.6053
 21
161.448
  0
LINE
  8
0
 10
-13.6053
 20
161.448
 11
-13.6855
 21
161.277
  0
LINE
  8
0
 10
-13.6855
 20
161.277
 11
-13.7865
 21
161.118
  0
LINE
  8
0
 10
-13.7865
 20
161.118
 11
-13.9065
 21
160.973
  0
LINE
  8
0
 10
-13.9065
 20
160.973
 11
-14.0439
 21
160.844
  0
LINE
  8
0
 10
-14.0439
 20
160.844
 11
-14.1963
 21
160.734
  0
LINE
  8
0
 10
-14.1963
 20
160.734
 11
-14.3613
 21
160.643
  0
LINE
  8
0
 10
-14.3613
 20
160.643
 11
-14.5365
 21
160.573
  0
LINE
  8
0
 10
-14.5365
 20
160.573
 11
-14.7189
 21
160.527
  0
LINE
  8
0
 10
-14.7189
 20
160.527
 11
-14.9058
 21
160.503
  0
LINE
  8
0
 10
-14.9058
 20
160.503
 11
-15.0942
 21
160.503
  0
LINE
  8
0
 10
14.9058
 20
160.503
 11
14.7189
 21
160.527
  0
LINE
  8
0
 10
14.7189
 20
160.527
 11
14.5365
 21
160.573
  0
LINE
  8
0
 10
14.5365
 20
160.573
 11
14.3613
 21
160.643
  0
LINE
  8
0
 10
14.3613
 20
160.643
 11
14.1963
 21
160.734
  0
LINE
  8
0
 10
14.1963
 20
160.734
 11
14.0439
 21
160.844
  0
LINE
  8
0
 10
14.0439
 20
160.844
 11
13.9065
 21
160.973
  0
LINE
  8
0
 10
13.9065
 20
160.973
 11
13.7865
 21
161.118
  0
LINE
  8
0
 10
13.7865
 20
161.118
 11
13.6855
 21
161.277
  0
LINE
  8
0
 10
13.6855
 20
161.277
 11
13.6053
 21
161.448
  0
LINE
  8
0
 10
13.6053
 20
161.448
 11
13.5471
 21
161.627
  0
LINE
  8
0
 10
13.5471
 20
161.627
 11
13.5118
 21
161.812
  0
LINE
  8
0
 10
13.5118
 20
161.812
 11
13.5
 21
162
  0
LINE
  8
0
 10
13.5
 20
162
 11
13.5118
 21
162.188
  0
LINE
  8
0
 10
13.5118
 20
162.188
 11
13.5471
 21
162.373
  0
LINE
  8
0
 10
13.5471
 20
162.373
 11
13.6053
 21
162.552
  0
LINE
  8
0
 10
13.6053
 20
162.552
 11
13.6855
 21
162.723
  0
LINE
  8
0
 10
13.6855
 20
162.723
 11
13.7865
 21
162.882
  0
LINE
  8
0
 10
13.7865
 20
162.882
 11
13.9065
 21
163.027
  0
LINE
  8
0
 10
13.9065
 20
163.027
 11
14.0439
 21
163.156
  0
LINE
  8
0
 10
14.0439
 20
163.156
 11
14.1963
 21
163.266
  0
LINE
  8
0
 10
14.1963
 20
163.266
 11
14.3613
 21
163.357
  0
LINE
  8
0
 10
14.3613
 20
163.357
 11
14.5365
 21
163.427
  0
LINE
  8
0
 10
14.5365
 20
163.427
 11
14.7189
 21
163.473
  0
LINE
  8
0
 10
14.7189
 20
163.473
 11
14.9058
 21
163.497
  0
LINE
  8
0
 10
14.9058
 20
163.497
 11
15.0942
 21
163.497
  0
LINE
  8
0
 10
15.0942
 20
163.497
 11
15.2811
 21
163.473
  0
LINE
  8
0
 10
15.2811
 20
163.473
 11
15.4635
 21
163.427
  0
LINE
  8
0
 10
15.4635
 20
163.427
 11
15.6387
 21
163.357
  0
LINE
  8
0
 10
15.6387
 20
163.357
 11
15.8037
 21
163.266
  0
LINE
  8
0
 10
15.8037
 20
163.266
 11
15.9561
 21
163.156
  0
LINE
  8
0
 10
15.9561
 20
163.156
 11
16.0934
 21
163.027
  0
LINE
  8
0
 10
16.0934
 20
163.027
 11
16.2135
 21
162.882
  0
LINE
  8
0
 10
16.2135
 20
162.882
 11
16.3145
 21
162.723
  0
LINE
  8
0
 10
16.3145
 20
162.723
 11
16.3947
 21
162.552
  0
LINE
  8
0
 10
16.3947
 20
162.552
 11
16.4529
 21
162.373
  0
LINE
  8
0
 10
16.4529
 20
162.373
 11
16.4882
 21
162.188
  0
LINE
  8
0
 10
16.4882
 20
162.188
 11
16.5
 21
162
  0
LINE
  8
0
 10
16.5
 20
162
 11
16.4882
 21
161.812
  0
LINE
  8
0
 10
16.4882
 20
161.812
 11
16.4529
 21
161.627
  0
LINE
  8
0
 10
16.4529
 20
161.627
 11
16.3947
 21
161.448
  0
LINE
  8
0
 10
16.3947
 20
161.448
 11
16.3145
 21
161.277
  0
LINE
  8
0
 10
16.3145
 20
161.277
 11
16.2135
 21
161.118
  0
LINE
  8
0
 10
16.2135
 20
161.118
 11
16.0934
 21
160.973
  0
LINE
  8
0
 10
16.0934
 20
160.973
 11
15.9561
 21
160.844
  0
LINE
  8
0
 10
15.9561
 20
160.844
 11
15.8037
 21
160.734
  0
LINE
  8
0
 10
15.8037
 20
160.734
 11
15.6387
 21
160.643
  0
LINE
  8
0
 10
15.6387
 20
160.643
 11
15.4635
 21
160.573
  0
LINE
  8
0
 10
15.4635
 20
160.573
 11
15.2811
 21
160.527
  0
LINE
  8
0
 10
15.2811
 20
160.527
 11
15.0942
 21
160.503
  0
LINE
  8
0
 10
15.0942
 20
160.503
 11
14.9058
 21
160.503
  0
LINE
  8
0
 10
-15.0942
 20
153.003
 11
-15.2811
 21
153.027
  0
LINE
  8
0
 10
-15.2811
 20
153.027
 11
-15.4635
 21
153.073
  0
LINE
  8
0
 10
-15.4635
 20
153.073
 11
-15.6387
 21
153.143
  0
LINE
  8
0
 10
-15.6387
 20
153.143
 11
-15.8037
 21
153.234
  0
LINE
  8
0
 10
-15.8037
 20
153.234
 11
-15.9561
 21
153.344
  0
LINE
  8
0
 10
-15.9561
 20
153.344
 11
-16.0934
 21
153.473
  0
LINE
  8
0
 10
-16.0934
 20
153.473
 11
-16.2135
 21
153.618
  0
LINE
  8
0
 10
-16.2135
 20
153.618
 11
-16.3145
 21
153.777
  0
LINE
  8
0
 10
-16.3145
 20
153.777
 11
-16.3947
 21
153.948
  0
LINE
  8
0
 10
-16.3947
 20
153.948
 11
-16.4529
 21
154.127
  0
LINE
  8
0
 10
-16.4529
 20
154.127
 11
-16.4882
 21
154.312
  0
LINE
  8
0
 10
-16.4882
 20
154.312
 11
-16.5
 21
154.5
  0
LINE
  8
0
 10
-16.5
 20
154.5
 11
-16.4882
 21
154.688
  0
LINE
  8
0
 10
-16.4882
 20
154.688
 11
-16.4529
 21
154.873
  0
LINE
  8
0
 10
-16.4529
 20
154.873
 11
-16.3947
 21
155.052
  0
LINE
  8
0
 10
-16.3947
 20
155.052
 11
-16.3145
 21
155.223
  0
LINE
  8
0
 10
-16.3145
 20
155.223
 11
-16.2135
 21
155.382
  0
LINE
  8
0
 10
-16.2135
 20
155.382
 11
-16.0934
 21
155.527
  0
LINE
  8
0
 10
-16.0934
 20
155.527
 11
-15.9561
 21
155.656
  0
LINE
  8
0
 10
-15.9561
 20
155.656
 11
-15.8037
 21
155.766
  0
LINE
  8
0
 10
-15.8037
 20
155.766
 11
-15.6387
 21
155.857
  0
LINE
  8
0
 10
-15.6387
 20
155.857
 11
-15.4635
 21
155.927
  0
LINE
  8
0
 10
-15.4635
 20
155.927
 11
-15.2811
 21
155.973
  0
LINE
  8
0
 10
-15.2811
 20
155.973
 11
-15.0942
 21
155.997
  0
LINE
  8
0
 10
-15.0942
 20
155.997
 11
-14.9058
 21
155.997
  0
LINE
  8
0
 10
-14.9058
 20
155.997
 11
-14.7189
 21
155.973
  0
LINE
  8
0
 10
-14.7189
 20
155.973
 11
-14.5365
 21
155.927
  0
LINE
  8
0
 10
-14.5365
 20
155.927
 11
-14.3613
 21
155.857
  0
LINE
  8
0
 10
-14.3613
 20
155.857
 11
-14.1963
 21
155.766
  0
LINE
  8
0
 10
-14.1963
 20
155.766
 11
-14.0439
 21
155.656
  0
LINE
  8
0
 10
-14.0439
 20
155.656
 11
-13.9065
 21
155.527
  0
LINE
  8
0
 10
-13.9065
 20
155.527
 11
-13.7865
 21
155.382
  0
LINE
  8
0
 10
-13.7865
 20
155.382
 11
-13.6855
 21
155.223
  0
LINE
  8
0
 10
-13.6855
 20
155.223
 11
-13.6053
 21
155.052
  0
LINE
  8
0
 10
-13.6053
 20
155.052
 11
-13.5471
 21
154.873
  0
LINE
  8
0
 10
-13.5471
 20
154.873
 11
-13.5118
 21
154.688
  0
LINE
  8
0
 10
-13.5118
 20
154.688
 11
-13.5
 21
154.5
  0
LINE
  8
0
 10
-13.5
 20
154.5
 11
-13.5118
 21
154.312
  0
LINE
  8
0
 10
-13.5118
 20
154.312
 11
-13.5471
 21
154.127
  0
LINE
  8
0
 10
-13.5471
 20
154.127
 11
-13.6053
 21
153.948
  0
LINE
  8
0
 10
-13.6053
 20
153.948
 11
-13.6855
 21
153.777
  0
LINE
  8
0
 10
-13.6855
 20
153.777
 11
-13.7865
 21
153.618
  0
LINE
  8
0
 10
-13.7865
 20
153.618
 11
-13.9065
 21
153.473
  0
LINE
  8
0
 10
-13.9065
 20
153.473
 11
-14.0439
 21
153.344
  0
LINE
  8
0
 10
-14.0439
 20
153.344
 11
-14.1963
 21
153.234
  0
LINE
  8
0
 10
-14.1963
 20
153.234
 11
-14.3613
 21
153.143
  0
LINE
  8
0
 10
-14.3613
 20
153.143
 11
-14.5365
 21
153.073
  0
LINE
  8
0
 10
-14.5365
 20
153.073
 11
-14.7189
 21
153.027
  0
LINE
  8
0
 10
-14.7189
 20
153.027
 11
-14.9058
 21
153.003
  0
LINE
  8
0
 10
-14.9058
 20
153.003
 11
-15.0942
 21
153.003
  0
LINE
  8
0
 10
14.9058
 20
153.003
 11
14.7189
 21
153.027
  0
LINE
  8
0
 10
14.7189
 20
153.027
 11
14.5365
 21
153.073
  0
LINE
  8
0
 10
14.5365
 20
153.073
 11
14.3613
 21
153.143
  0
LINE
  8
0
 10
14.3613
 20
153.143
 11
14.1963
 21
153.234
  0
LINE
  8
0
 10
14.1963
 20
153.234
 11
14.0439
 21
153.344
  0
LINE
  8
0
 10
14.0439
 20
153.344
 11
13.9065
 21
153.473
  0
LINE
  8
0
 10
13.9065
 20
153.473
 11
13.7865
 21
153.618
  0
LINE
  8
0
 10
13.7865
 20
153.618
 11
13.6855
 21
153.777
  0
LINE
  8
0
 10
13.6855
 20
153.777
 11
13.6053
 21
153.948
  0
LINE
  8
0
 10
13.6053
 20
153.948
 11
13.5471
 21
154.127
  0
LINE
  8
0
 10
13.5471
 20
154.127
 11
13.5118
 21
154.312
  0
LINE
  8
0
 10
13.5118
 20
154.312
 11
13.5
 21
154.5
  0
LINE
  8
0
 10
13.5
 20
154.5
 11
13.5118
 21
154.688
  0
LINE
  8
0
 10
13.5118
 20
154.688
 11
13.5471
 21
154.873
  0
LINE
  8
0
 10
13.5471
 20
154.873
 11
13.6053
 21
155.052
  0
LINE
  8
0
 10
13.6053
 20
155.052
 11
13.6855
 21
155.223
  0
LINE
  8
0
 10
13.6855
 20
155.223
 11
13.7865
 21
155.382
  0
LINE
  8
0
 10
13.7865
 20
155.382
 11
13.9065
 21
155.527
  0
LINE
  8
0
 10
13.9065
 20
155.527
 11
14.0439
 21
155.656
  0
LINE
  8
0
 10
14.0439
 20
155.656
 11
14.1963
 21
155.766
  0
LINE
  8
0
 10
14.1963
 20
155.766
 11
14.3613
 21
155.857
  0
LINE
  8
0
 10
14.3613
 20
155.857
 11
14.5365
 21
155.927
  0
LINE
  8
0
 10
14.5365
 20
155.927
 11
14.7189
 21
155.973
  0
LINE
  8
0
 10
14.7189
 20
155.973
 11
14.9058
 21
155.997
  0
LINE
  8
0
 10
14.9058
 20
155.997
 11
15.0942
 21
155.997
  0
LINE
  8
0
 10
15.0942
 20
155.997
 11
15.2811
 21
155.973
  0
LINE
  8
0
 10
15.2811
 20
155.973
 11
15.4635
 21
155.927
  0
LINE
  8
0
 10
15.4635
 20
155.927
 11
15.6387
 21
155.857
  0
LINE
  8
0
 10
15.6387
 20
155.857
 11
15.8037
 21
155.766
  0
LINE
  8
0
 10
15.8037
 20
155.766
 11
15.9561
 21
155.656
  0
LINE
  8
0
 10
15.9561
 20
155.656
 11
16.0934
 21
155.527
  0
LINE
  8
0
 10
16.0934
 20
155.527
 11
16.2135
 21
155.382
  0
LINE
  8
0
 10
16.2135
 20
155.382
 11
16.3145
 21
155.223
  0
LINE
  8
0
 10
16.3145
 20
155.223
 11
16.3947
 21
155.052
  0
LINE
  8
0
 10
16.3947
 20
155.052
 11
16.4529
 21
154.873
  0
LINE
  8
0
 10
16.4529
 20
154.873
 11
16.4882
 21
154.688
  0
LINE
  8
0
 10
16.4882
 20
154.688
 11
16.5
 21
154.5
  0
LINE
  8
0
 10
16.5
 20
154.5
 11
16.4882
 21
154.312
  0
LINE
  8
0
 10
16.4882
 20
154.312
 11
16.4529
 21
154.127
  0
LINE
  8
0
 10
16.4529
 20
154.127
 11
16.3947
 21
153.948
  0
LINE
  8
0
 10
16.3947
 20
153.948
 11
16.3145
 21
153.777
  0
LINE
  8
0
 10
16.3145
 20
153.777
 11
16.2135
 21
153.618
  0
LINE
  8
0
 10
16.2135
 20
153.618
 11
16.0934
 21
153.473
  0
LINE
  8
0
 10
16.0934
 20
153.473
 11
15.9561
 21
153.344
  0
LINE
  8
0
 10
15.9561
 20
153.344
 11
15.8037
 21
153.234
  0
LINE
  8
0
 10
15.8037
 20
153.234
 11
15.6387
 21
153.143
  0
LINE
  8
0
 10
15.6387
 20
153.143
 11
15.4635
 21
153.073
  0
LINE
  8
0
 10
15.4635
 20
153.073
 11
15.2811
 21
153.027
  0
LINE
  8
0
 10
15.2811
 20
153.027
 11
15.0942
 21
153.003
  0
LINE
  8
0
 10
15.0942
 20
153.003
 11
14.9058
 21
153.003
  0
LINE
  8
0
 10
-15.1884
 20
144.006
 11
-15.5621
 21
144.053
  0
LINE
  8
0
 10
-15.5621
 20
144.053
 11
-15.927
 21
144.147
  0
LINE
  8
0
 10
-15.927
 20
144.147
 11
-16.2773
 21
144.286
  0
LINE
  8
0
 10
-16.2773
 20
144.286
 11
-16.6075
 21
144.467
  0
LINE
  8
0
 10
-16.6075
 20
144.467
 11
-16.9123
 21
144.688
  0
LINE
  8
0
 10
-16.9123
 20
144.688
 11
-17.1869
 21
144.946
  0
LINE
  8
0
 10
-17.1869
 20
144.946
 11
-17.427
 21
145.237
  0
LINE
  8
0
 10
-17.427
 20
145.237
 11
-17.6289
 21
145.555
  0
LINE
  8
0
 10
-17.6289
 20
145.555
 11
-17.7893
 21
145.896
  0
LINE
  8
0
 10
-17.7893
 20
145.896
 11
-17.9057
 21
146.254
  0
LINE
  8
0
 10
-17.9057
 20
146.254
 11
-17.9763
 21
146.624
  0
LINE
  8
0
 10
-17.9763
 20
146.624
 11
-18
 21
147
  0
LINE
  8
0
 10
-18
 20
147
 11
-17.9763
 21
147.376
  0
LINE
  8
0
 10
-17.9763
 20
147.376
 11
-17.9057
 21
147.746
  0
LINE
  8
0
 10
-17.9057
 20
147.746
 11
-17.7893
 21
148.104
  0
LINE
  8
0
 10
-17.7893
 20
148.104
 11
-17.6289
 21
148.445
  0
LINE
  8
0
 10
-17.6289
 20
148.445
 11
-17.427
 21
148.763
  0
LINE
  8
0
 10
-17.427
 20
148.763
 11
-17.1869
 21
149.054
  0
LINE
  8
0
 10
-17.1869
 20
149.054
 11
-16.9123
 21
149.312
  0
LINE
  8
0
 10
-16.9123
 20
149.312
 11
-16.6075
 21
149.533
  0
LINE
  8
0
 10
-16.6075
 20
149.533
 11
-16.2773
 21
149.714
  0
LINE
  8
0
 10
-16.2773
 20
149.714
 11
-15.927
 21
149.853
  0
LINE
  8
0
 10
-15.927
 20
149.853
 11
-15.5621
 21
149.947
  0
LINE
  8
0
 10
-15.5621
 20
149.947
 11
-15.1884
 21
149.994
  0
LINE
  8
0
 10
-15.1884
 20
149.994
 11
-14.8116
 21
149.994
  0
LINE
  8
0
 10
-14.8116
 20
149.994
 11
-14.4379
 21
149.947
  0
LINE
  8
0
 10
-14.4379
 20
149.947
 11
-14.0729
 21
149.853
  0
LINE
  8
0
 10
-14.0729
 20
149.853
 11
-13.7227
 21
149.714
  0
LINE
  8
0
 10
-13.7227
 20
149.714
 11
-13.3925
 21
149.533
  0
LINE
  8
0
 10
-13.3925
 20
149.533
 11
-13.0877
 21
149.312
  0
LINE
  8
0
 10
-13.0877
 20
149.312
 11
-12.8131
 21
149.054
  0
LINE
  8
0
 10
-12.8131
 20
149.054
 11
-12.5729
 21
148.763
  0
LINE
  8
0
 10
-12.5729
 20
148.763
 11
-12.3711
 21
148.445
  0
LINE
  8
0
 10
-12.3711
 20
148.445
 11
-12.2107
 21
148.104
  0
LINE
  8
0
 10
-12.2107
 20
148.104
 11
-12.0942
 21
147.746
  0
LINE
  8
0
 10
-12.0942
 20
147.746
 11
-12.0237
 21
147.376
  0
LINE
  8
0
 10
-12.0237
 20
147.376
 11
-12
 21
147
  0
LINE
  8
0
 10
-12
 20
147
 11
-12.0237
 21
146.624
  0
LINE
  8
0
 10
-12.0237
 20
146.624
 11
-12.0942
 21
146.254
  0
LINE
  8
0
 10
-12.0942
 20
146.254
 11
-12.2107
 21
145.896
  0
LINE
  8
0
 10
-12.2107
 20
145.896
 11
-12.3711
 21
145.555
  0
LINE
  8
0
 10
-12.3711
 20
145.555
 11
-12.5729
 21
145.237
  0
LINE
  8
0
 10
-12.5729
 20
145.237
 11
-12.8131
 21
144.946
  0
LINE
  8
0
 10
-12.8131
 20
144.946
 11
-13.0877
 21
144.688
  0
LINE
  8
0
 10
-13.0877
 20
144.688
 11
-13.3925
 21
144.467
  0
LINE
  8
0
 10
-13.3925
 20
144.467
 11
-13.7227
 21
144.286
  0
LINE
  8
0
 10
-13.7227
 20
144.286
 11
-14.0729
 21
144.147
  0
LINE
  8
0
 10
-14.0729
 20
144.147
 11
-14.4379
 21
144.053
  0
LINE
  8
0
 10
-14.4379
 20
144.053
 11
-14.8116
 21
144.006
  0
LINE
  8
0
 10
-14.8116
 20
144.006
 11
-15.1884
 21
144.006
  0
LINE
  8
0
 10
14.8116
 20
144.006
 11
14.4379
 21
144.053
  0
LINE
  8
0
 10
14.4379
 20
144.053
 11
14.0729
 21
144.147
  0
LINE
  8
0
 10
14.0729
 20
144.147
 11
13.7227
 21
144.286
  0
LINE
  8
0
 10
13.7227
 20
144.286
 11
13.3925
 21
144.467
  0
LINE
  8
0
 10
13.3925
 20
144.467
 11
13.0877
 21
144.688
  0
LINE
  8
0
 10
13.0877
 20
144.688
 11
12.8131
 21
144.946
  0
LINE
  8
0
 10
12.8131
 20
144.946
 11
12.5729
 21
145.237
  0
LINE
  8
0
 10
12.5729
 20
145.237
 11
12.3711
 21
145.555
  0
LINE
  8
0
 10
12.3711
 20
145.555
 11
12.2107
 21
145.896
  0
LINE
  8
0
 10
12.2107
 20
145.896
 11
12.0942
 21
146.254
  0
LINE
  8
0
 10
12.0942
 20
146.254
 11
12.0237
 21
146.624
  0
LINE
  8
0
 10
12.0237
 20
146.624
 11
12
 21
147
  0
LINE
  8
0
 10
12
 20
147
 11
12.0237
 21
147.376
  0
LINE
  8
0
 10
12.0237
 20
147.376
 11
12.0942
 21
147.746
  0
LINE
  8
0
 10
12.0942
 20
147.746
 11
12.2107
 21
148.104
  0
LINE
  8
0
 10
12.2107
 20
148.104
 11
12.3711
 21
148.445
  0
LINE
  8
0
 10
12.3711
 20
148.445
 11
12.5729
 21
148.763
  0
LINE
  8
0
 10
12.5729
 20
148.763
 11
12.8131
 21
149.054
  0
LINE
  8
0
 10
12.8131
 20
149.054
 11
13.0877
 21
149.312
  0
LINE
  8
0
 10
13.0877
 20
149.312
 11
13.3925
 21
149.533
  0
LINE
  8
0
 10
13.3925
 20
149.533
 11
13.7227
 21
149.714
  0
LINE
  8
0
 10
13.7227
 20
149.714
 11
14.0729
 21
149.853
  0
LINE
  8
0
 10
14.0729
 20
149.853
 11
14.4379
 21
149.947
  0
LINE
  8
0
 10
14.4379
 20
149.947
 11
14.8116
 21
149.994
  0
LINE
  8
0
 10
14.8116
 20
149.994
 11
15.1884
 21
149.994
  0
LINE
  8
0
 10
15.1884
 20
149.994
 11
15.5621
 21
149.947
  0
LINE
  8
0
 10
15.5621
 20
149.947
 11
15.927
 21
149.853
  0
LINE
  8
0
 10
15.927
 20
149.853
 11
16.2773
 21
149.714
  0
LINE
  8
0
 10
16.2773
 20
149.714
 11
16.6075
 21
149.533
  0
LINE
  8
0
 10
16.6075
 20
149.533
 11
16.9123
 21
149.312
  0
LINE
  8
0
 10
16.9123
 20
149.312
 11
17.1869
 21
149.054
  0
LINE
  8
0
 10
17.1869
 20
149.054
 11
17.427
 21
148.763
  0
LINE
  8
0
 10
17.427
 20
148.763
 11
17.6289
 21
148.445
  0
LINE
  8
0
 10
17.6289
 20
148.445
 11
17.7893
 21
148.104
  0
LINE
  8
0
 10
17.7893
 20
148.104
 11
17.9057
 21
147.746
  0
LINE
  8
0
 10
17.9057
 20
147.746
 11
17.9763
 21
147.376
  0
LINE
  8
0
 10
17.9763
 20
147.376
 11
18
 21
147
  0
LINE
  8
0
 10
18
 20
147
 11
17.9763
 21
146.624
  0
LINE
  8
0
 10
17.9763
 20
146.624
 11
17.9057
 21
146.254
  0
LINE
  8
0
 10
17.9057
 20
146.254
 11
17.7893
 21
145.896
  0
LINE
  8
0
 10
17.7893
 20
145.896
 11
17.6289
 21
145.555
  0
LINE
  8
0
 10
17.6289
 20
145.555
 11
17.427
 21
145.237
  0
LINE
  8
0
 10
17.427
 20
145.237
 11
17.1869
 21
144.946
  0
LINE
  8
0
 10
17.1869
 20
144.946
 11
16.9123
 21
144.688
  0
LINE
  8
0
 10
16.9123
 20
144.688
 11
16.6075
 21
144.467
  0
LINE
  8
0
 10
16.6075
 20
144.467
 11
16.2773
 21
144.286
  0
LINE
  8
0
 10
16.2773
 20
144.286
 11
15.927
 21
144.147
  0
LINE
  8
0
 10
15.927
 20
144.147
 11
15.5621
 21
144.053
  0
LINE
  8
0
 10
15.5621
 20
144.053
 11
15.1884
 21
144.006
  0
LINE
  8
0
 10
15.1884
 20
144.006
 11
14.8116
 21
144.006
  0
ENDSEC
  0
SECTION
  2
OBJECTS
  0
DICTIONARY
  0
ENDSEC
  0
EOF
