  0
SECTION
  2
BLOCKS
  0
ENDSEC
  0
SECTION
  2
ENTITIES
  0
LINE
  8
0
 10
125.218
 20
-3.4557
 11
125.523
 21
-3.37764
  0
LINE
  8
0
 10
125.523
 20
-3.37764
 11
125.814
 21
-3.26205
  0
LINE
  8
0
 10
125.814
 20
-3.26205
 11
126.09
 21
-3.11081
  0
LINE
  8
0
 10
126.09
 20
-3.11081
 11
126.344
 21
-2.92627
  0
LINE
  8
0
 10
126.344
 20
-2.92627
 11
126.572
 21
-2.71136
  0
LINE
  8
0
 10
126.572
 20
-2.71136
 11
126.773
 21
-2.46945
  0
LINE
  8
0
 10
126.773
 20
-2.46945
 11
126.941
 21
-2.20438
  0
LINE
  8
0
 10
126.941
 20
-2.20438
 11
127.074
 21
-1.9203
  0
LINE
  8
0
 10
127.074
 20
-1.9203
 11
127.171
 21
-1.62172
  0
LINE
  8
0
 10
127.171
 20
-1.62172
 11
127.23
 21
-1.31332
  0
LINE
  8
0
 10
127.23
 20
-1.31332
 11
127.25
 21
-1
  0
LINE
  8
0
 10
127.25
 20
-1
 11
127.25
 21
1
  0
LINE
  8
0
 10
127.25
 20
1
 11
127.23
 21
1.31332
  0
LINE
  8
0
 10
127.23
 20
1.31332
 11
127.171
 21
1.62172
  0
LINE
  8
0
 10
127.171
 20
1.62172
 11
127.074
 21
1.9203
  0
LINE
  8
0
 10
127.074
 20
1.9203
 11
126.941
 21
2.20438
  0
LINE
  8
0
 10
126.941
 20
2.20438
 11
126.773
 21
2.46945
  0
LINE
  8
0
 10
126.773
 20
2.46945
 11
126.572
 21
2.71136
  0
LINE
  8
0
 10
126.572
 20
2.71136
 11
126.344
 21
2.92627
  0
LINE
  8
0
 10
126.344
 20
2.92627
 11
126.09
 21
3.11081
  0
LINE
  8
0
 10
126.09
 20
3.11081
 11
125.814
 21
3.26205
  0
LINE
  8
0
 10
125.814
 20
3.26205
 11
125.523
 21
3.37764
  0
LINE
  8
0
 10
125.523
 20
3.37764
 11
125.218
 21
3.4557
  0
LINE
  8
0
 10
125.218
 20
3.4557
 11
124.907
 21
3.49506
  0
LINE
  8
0
 10
124.907
 20
3.49506
 11
-124.907
 21
3.49506
  0
LINE
  8
0
 10
-124.907
 20
3.49506
 11
-125.218
 21
3.4557
  0
LINE
  8
0
 10
-125.218
 20
3.4557
 11
-125.523
 21
3.37764
  0
LINE
  8
0
 10
-125.523
 20
3.37764
 11
-125.814
 21
3.26205
  0
LINE
  8
0
 10
-125.814
 20
3.26205
 11
-126.09
 21
3.11081
  0
LINE
  8
0
 10
-126.09
 20
3.11081
 11
-126.344
 21
2.92627
  0
LINE
  8
0
 10
-126.344
 20
2.92627
 11
-126.572
 21
2.71136
  0
LINE
  8
0
 10
-126.572
 20
2.71136
 11
-126.773
 21
2.46945
  0
LINE
  8
0
 10
-126.773
 20
2.46945
 11
-126.941
 21
2.20438
  0
LINE
  8
0
 10
-126.941
 20
2.20438
 11
-127.074
 21
1.9203
  0
LINE
  8
0
 10
-127.074
 20
1.9203
 11
-127.171
 21
1.62172
  0
LINE
  8
0
 10
-127.171
 20
1.62172
 11
-127.23
 21
1.31332
  0
LINE
  8
0
 10
-127.23
 20
1.31332
 11
-127.25
 21
1
  0
LINE
  8
0
 10
-127.25
 20
1
 11
-127.25
 21
-1
  0
LINE
  8
0
 10
-127.25
 20
-1
 11
-127.23
 21
-1.31332
  0
LINE
  8
0
 10
-127.23
 20
-1.31332
 11
-127.171
 21
-1.62172
  0
LINE
  8
0
 10
-127.171
 20
-1.62172
 11
-127.074
 21
-1.9203
  0
LINE
  8
0
 10
-127.074
 20
-1.9203
 11
-126.941
 21
-2.20438
  0
LINE
  8
0
 10
-126.941
 20
-2.20438
 11
-126.773
 21
-2.46945
  0
LINE
  8
0
 10
-126.773
 20
-2.46945
 11
-126.572
 21
-2.71136
  0
LINE
  8
0
 10
-126.572
 20
-2.71136
 11
-126.344
 21
-2.92627
  0
LINE
  8
0
 10
-126.344
 20
-2.92627
 11
-126.09
 21
-3.11081
  0
LINE
  8
0
 10
-126.09
 20
-3.11081
 11
-125.814
 21
-3.26205
  0
LINE
  8
0
 10
-125.814
 20
-3.26205
 11
-125.523
 21
-3.37764
  0
LINE
  8
0
 10
-125.523
 20
-3.37764
 11
-125.218
 21
-3.4557
  0
LINE
  8
0
 10
-125.218
 20
-3.4557
 11
-124.907
 21
-3.49506
  0
LINE
  8
0
 10
-124.907
 20
-3.49506
 11
124.907
 21
-3.49506
  0
LINE
  8
0
 10
124.907
 20
-3.49506
 11
125.218
 21
-3.4557
  0
LINE
  8
0
 10
41.1558
 20
-1.49704
 11
40.9689
 21
-1.47342
  0
LINE
  8
0
 10
40.9689
 20
-1.47342
 11
40.7865
 21
-1.42657
  0
LINE
  8
0
 10
40.7865
 20
-1.42657
 11
40.6113
 21
-1.35724
  0
LINE
  8
0
 10
40.6113
 20
-1.35724
 11
40.4463
 21
-1.26648
  0
LINE
  8
0
 10
40.4463
 20
-1.26648
 11
40.2939
 21
-1.15576
  0
LINE
  8
0
 10
40.2939
 20
-1.15576
 11
40.1565
 21
-1.02681
  0
LINE
  8
0
 10
40.1565
 20
-1.02681
 11
40.0365
 21
-0.881668
  0
LINE
  8
0
 10
40.0365
 20
-0.881668
 11
39.9355
 21
-0.722626
  0
LINE
  8
0
 10
39.9355
 20
-0.722626
 11
39.8553
 21
-0.552185
  0
LINE
  8
0
 10
39.8553
 20
-0.552185
 11
39.7971
 21
-0.373032
  0
LINE
  8
0
 10
39.7971
 20
-0.373032
 11
39.7618
 21
-0.187988
  0
LINE
  8
0
 10
39.7618
 20
-0.187988
 11
39.75
 21
0
  0
LINE
  8
0
 10
39.75
 20
0
 11
39.7618
 21
0.187988
  0
LINE
  8
0
 10
39.7618
 20
0.187988
 11
39.7971
 21
0.373032
  0
LINE
  8
0
 10
39.7971
 20
0.373032
 11
39.8553
 21
0.552185
  0
LINE
  8
0
 10
39.8553
 20
0.552185
 11
39.9355
 21
0.722626
  0
LINE
  8
0
 10
39.9355
 20
0.722626
 11
40.0365
 21
0.881668
  0
LINE
  8
0
 10
40.0365
 20
0.881668
 11
40.1565
 21
1.02681
  0
LINE
  8
0
 10
40.1565
 20
1.02681
 11
40.2939
 21
1.15576
  0
LINE
  8
0
 10
40.2939
 20
1.15576
 11
40.4463
 21
1.26648
  0
LINE
  8
0
 10
40.4463
 20
1.26648
 11
40.6113
 21
1.35724
  0
LINE
  8
0
 10
40.6113
 20
1.35724
 11
40.7865
 21
1.42657
  0
LINE
  8
0
 10
40.7865
 20
1.42657
 11
40.9689
 21
1.47342
  0
LINE
  8
0
 10
40.9689
 20
1.47342
 11
41.1558
 21
1.49704
  0
LINE
  8
0
 10
41.1558
 20
1.49704
 11
41.3442
 21
1.49704
  0
LINE
  8
0
 10
41.3442
 20
1.49704
 11
41.5311
 21
1.47342
  0
LINE
  8
0
 10
41.5311
 20
1.47342
 11
41.7135
 21
1.42657
  0
LINE
  8
0
 10
41.7135
 20
1.42657
 11
41.8887
 21
1.35724
  0
LINE
  8
0
 10
41.8887
 20
1.35724
 11
42.0537
 21
1.26648
  0
LINE
  8
0
 10
42.0537
 20
1.26648
 11
42.2061
 21
1.15576
  0
LINE
  8
0
 10
42.2061
 20
1.15576
 11
42.3434
 21
1.02681
  0
LINE
  8
0
 10
42.3434
 20
1.02681
 11
42.4635
 21
0.881668
  0
LINE
  8
0
 10
42.4635
 20
0.881668
 11
42.5645
 21
0.722626
  0
LINE
  8
0
 10
42.5645
 20
0.722626
 11
42.6447
 21
0.552185
  0
LINE
  8
0
 10
42.6447
 20
0.552185
 11
42.7029
 21
0.373032
  0
LINE
  8
0
 10
42.7029
 20
0.373032
 11
42.7382
 21
0.187988
  0
LINE
  8
0
 10
42.7382
 20
0.187988
 11
42.75
 21
0
  0
LINE
  8
0
 10
42.75
 20
0
 11
42.7382
 21
-0.187988
  0
LINE
  8
0
 10
42.7382
 20
-0.187988
 11
42.7029
 21
-0.373032
  0
LINE
  8
0
 10
42.7029
 20
-0.373032
 11
42.6447
 21
-0.552185
  0
LINE
  8
0
 10
42.6447
 20
-0.552185
 11
42.5645
 21
-0.722626
  0
LINE
  8
0
 10
42.5645
 20
-0.722626
 11
42.4635
 21
-0.881668
  0
LINE
  8
0
 10
42.4635
 20
-0.881668
 11
42.3434
 21
-1.02681
  0
LINE
  8
0
 10
42.3434
 20
-1.02681
 11
42.2061
 21
-1.15576
  0
LINE
  8
0
 10
42.2061
 20
-1.15576
 11
42.0537
 21
-1.26648
  0
LINE
  8
0
 10
42.0537
 20
-1.26648
 11
41.8887
 21
-1.35724
  0
LINE
  8
0
 10
41.8887
 20
-1.35724
 11
41.7135
 21
-1.42657
  0
LINE
  8
0
 10
41.7135
 20
-1.42657
 11
41.5311
 21
-1.47342
  0
LINE
  8
0
 10
41.5311
 20
-1.47342
 11
41.3442
 21
-1.49704
  0
LINE
  8
0
 10
41.3442
 20
-1.49704
 11
41.1558
 21
-1.49704
  0
LINE
  8
0
 10
33.6558
 20
-1.49704
 11
33.4689
 21
-1.47342
  0
LINE
  8
0
 10
33.4689
 20
-1.47342
 11
33.2865
 21
-1.42657
  0
LINE
  8
0
 10
33.2865
 20
-1.42657
 11
33.1113
 21
-1.35724
  0
LINE
  8
0
 10
33.1113
 20
-1.35724
 11
32.9463
 21
-1.26648
  0
LINE
  8
0
 10
32.9463
 20
-1.26648
 11
32.7939
 21
-1.15576
  0
LINE
  8
0
 10
32.7939
 20
-1.15576
 11
32.6565
 21
-1.02681
  0
LINE
  8
0
 10
32.6565
 20
-1.02681
 11
32.5365
 21
-0.881668
  0
LINE
  8
0
 10
32.5365
 20
-0.881668
 11
32.4355
 21
-0.722626
  0
LINE
  8
0
 10
32.4355
 20
-0.722626
 11
32.3553
 21
-0.552185
  0
LINE
  8
0
 10
32.3553
 20
-0.552185
 11
32.2971
 21
-0.373032
  0
LINE
  8
0
 10
32.2971
 20
-0.373032
 11
32.2618
 21
-0.187988
  0
LINE
  8
0
 10
32.2618
 20
-0.187988
 11
32.25
 21
0
  0
LINE
  8
0
 10
32.25
 20
0
 11
32.2618
 21
0.187988
  0
LINE
  8
0
 10
32.2618
 20
0.187988
 11
32.2971
 21
0.373032
  0
LINE
  8
0
 10
32.2971
 20
0.373032
 11
32.3553
 21
0.552185
  0
LINE
  8
0
 10
32.3553
 20
0.552185
 11
32.4355
 21
0.722626
  0
LINE
  8
0
 10
32.4355
 20
0.722626
 11
32.5365
 21
0.881668
  0
LINE
  8
0
 10
32.5365
 20
0.881668
 11
32.6565
 21
1.02681
  0
LINE
  8
0
 10
32.6565
 20
1.02681
 11
32.7939
 21
1.15576
  0
LINE
  8
0
 10
32.7939
 20
1.15576
 11
32.9463
 21
1.26648
  0
LINE
  8
0
 10
32.9463
 20
1.26648
 11
33.1113
 21
1.35724
  0
LINE
  8
0
 10
33.1113
 20
1.35724
 11
33.2865
 21
1.42657
  0
LINE
  8
0
 10
33.2865
 20
1.42657
 11
33.4689
 21
1.47342
  0
LINE
  8
0
 10
33.4689
 20
1.47342
 11
33.6558
 21
1.49704
  0
LINE
  8
0
 10
33.6558
 20
1.49704
 11
33.8442
 21
1.49704
  0
LINE
  8
0
 10
33.8442
 20
1.49704
 11
34.0311
 21
1.47342
  0
LINE
  8
0
 10
34.0311
 20
1.47342
 11
34.2135
 21
1.42657
  0
LINE
  8
0
 10
34.2135
 20
1.42657
 11
34.3887
 21
1.35724
  0
LINE
  8
0
 10
34.3887
 20
1.35724
 11
34.5537
 21
1.26648
  0
LINE
  8
0
 10
34.5537
 20
1.26648
 11
34.7061
 21
1.15576
  0
LINE
  8
0
 10
34.7061
 20
1.15576
 11
34.8434
 21
1.02681
  0
LINE
  8
0
 10
34.8434
 20
1.02681
 11
34.9635
 21
0.881668
  0
LINE
  8
0
 10
34.9635
 20
0.881668
 11
35.0645
 21
0.722626
  0
LINE
  8
0
 10
35.0645
 20
0.722626
 11
35.1447
 21
0.552185
  0
LINE
  8
0
 10
35.1447
 20
0.552185
 11
35.2029
 21
0.373032
  0
LINE
  8
0
 10
35.2029
 20
0.373032
 11
35.2382
 21
0.187988
  0
LINE
  8
0
 10
35.2382
 20
0.187988
 11
35.25
 21
0
  0
LINE
  8
0
 10
35.25
 20
0
 11
35.2382
 21
-0.187988
  0
LINE
  8
0
 10
35.2382
 20
-0.187988
 11
35.2029
 21
-0.373032
  0
LINE
  8
0
 10
35.2029
 20
-0.373032
 11
35.1447
 21
-0.552185
  0
LINE
  8
0
 10
35.1447
 20
-0.552185
 11
35.0645
 21
-0.722626
  0
LINE
  8
0
 10
35.0645
 20
-0.722626
 11
34.9635
 21
-0.881668
  0
LINE
  8
0
 10
34.9635
 20
-0.881668
 11
34.8434
 21
-1.02681
  0
LINE
  8
0
 10
34.8434
 20
-1.02681
 11
34.7061
 21
-1.15576
  0
LINE
  8
0
 10
34.7061
 20
-1.15576
 11
34.5537
 21
-1.26648
  0
LINE
  8
0
 10
34.5537
 20
-1.26648
 11
34.3887
 21
-1.35724
  0
LINE
  8
0
 10
34.3887
 20
-1.35724
 11
34.2135
 21
-1.42657
  0
LINE
  8
0
 10
34.2135
 20
-1.42657
 11
34.0311
 21
-1.47342
  0
LINE
  8
0
 10
34.0311
 20
-1.47342
 11
33.8442
 21
-1.49704
  0
LINE
  8
0
 10
33.8442
 20
-1.49704
 11
33.6558
 21
-1.49704
  0
LINE
  8
0
 10
18.6558
 20
-1.49704
 11
18.4689
 21
-1.47342
  0
LINE
  8
0
 10
18.4689
 20
-1.47342
 11
18.2865
 21
-1.42657
  0
LINE
  8
0
 10
18.2865
 20
-1.42657
 11
18.1113
 21
-1.35724
  0
LINE
  8
0
 10
18.1113
 20
-1.35724
 11
17.9463
 21
-1.26648
  0
LINE
  8
0
 10
17.9463
 20
-1.26648
 11
17.7939
 21
-1.15576
  0
LINE
  8
0
 10
17.7939
 20
-1.15576
 11
17.6565
 21
-1.02681
  0
LINE
  8
0
 10
17.6565
 20
-1.02681
 11
17.5365
 21
-0.881668
  0
LINE
  8
0
 10
17.5365
 20
-0.881668
 11
17.4355
 21
-0.722626
  0
LINE
  8
0
 10
17.4355
 20
-0.722626
 11
17.3553
 21
-0.552185
  0
LINE
  8
0
 10
17.3553
 20
-0.552185
 11
17.2971
 21
-0.373032
  0
LINE
  8
0
 10
17.2971
 20
-0.373032
 11
17.2618
 21
-0.187988
  0
LINE
  8
0
 10
17.2618
 20
-0.187988
 11
17.25
 21
0
  0
LINE
  8
0
 10
17.25
 20
0
 11
17.2618
 21
0.187988
  0
LINE
  8
0
 10
17.2618
 20
0.187988
 11
17.2971
 21
0.373032
  0
LINE
  8
0
 10
17.2971
 20
0.373032
 11
17.3553
 21
0.552185
  0
LINE
  8
0
 10
17.3553
 20
0.552185
 11
17.4355
 21
0.722626
  0
LINE
  8
0
 10
17.4355
 20
0.722626
 11
17.5365
 21
0.881668
  0
LINE
  8
0
 10
17.5365
 20
0.881668
 11
17.6565
 21
1.02681
  0
LINE
  8
0
 10
17.6565
 20
1.02681
 11
17.7939
 21
1.15576
  0
LINE
  8
0
 10
17.7939
 20
1.15576
 11
17.9463
 21
1.26648
  0
LINE
  8
0
 10
17.9463
 20
1.26648
 11
18.1113
 21
1.35724
  0
LINE
  8
0
 10
18.1113
 20
1.35724
 11
18.2865
 21
1.42657
  0
LINE
  8
0
 10
18.2865
 20
1.42657
 11
18.4689
 21
1.47342
  0
LINE
  8
0
 10
18.4689
 20
1.47342
 11
18.6558
 21
1.49704
  0
LINE
  8
0
 10
18.6558
 20
1.49704
 11
18.8442
 21
1.49704
  0
LINE
  8
0
 10
18.8442
 20
1.49704
 11
19.0311
 21
1.47342
  0
LINE
  8
0
 10
19.0311
 20
1.47342
 11
19.2135
 21
1.42657
  0
LINE
  8
0
 10
19.2135
 20
1.42657
 11
19.3887
 21
1.35724
  0
LINE
  8
0
 10
19.3887
 20
1.35724
 11
19.5537
 21
1.26648
  0
LINE
  8
0
 10
19.5537
 20
1.26648
 11
19.7061
 21
1.15576
  0
LINE
  8
0
 10
19.7061
 20
1.15576
 11
19.8434
 21
1.02681
  0
LINE
  8
0
 10
19.8434
 20
1.02681
 11
19.9635
 21
0.881668
  0
LINE
  8
0
 10
19.9635
 20
0.881668
 11
20.0645
 21
0.722626
  0
LINE
  8
0
 10
20.0645
 20
0.722626
 11
20.1447
 21
0.552185
  0
LINE
  8
0
 10
20.1447
 20
0.552185
 11
20.2029
 21
0.373032
  0
LINE
  8
0
 10
20.2029
 20
0.373032
 11
20.2382
 21
0.187988
  0
LINE
  8
0
 10
20.2382
 20
0.187988
 11
20.25
 21
0
  0
LINE
  8
0
 10
20.25
 20
0
 11
20.2382
 21
-0.187988
  0
LINE
  8
0
 10
20.2382
 20
-0.187988
 11
20.2029
 21
-0.373032
  0
LINE
  8
0
 10
20.2029
 20
-0.373032
 11
20.1447
 21
-0.552185
  0
LINE
  8
0
 10
20.1447
 20
-0.552185
 11
20.0645
 21
-0.722626
  0
LINE
  8
0
 10
20.0645
 20
-0.722626
 11
19.9635
 21
-0.881668
  0
LINE
  8
0
 10
19.9635
 20
-0.881668
 11
19.8434
 21
-1.02681
  0
LINE
  8
0
 10
19.8434
 20
-1.02681
 11
19.7061
 21
-1.15576
  0
LINE
  8
0
 10
19.7061
 20
-1.15576
 11
19.5537
 21
-1.26648
  0
LINE
  8
0
 10
19.5537
 20
-1.26648
 11
19.3887
 21
-1.35724
  0
LINE
  8
0
 10
19.3887
 20
-1.35724
 11
19.2135
 21
-1.42657
  0
LINE
  8
0
 10
19.2135
 20
-1.42657
 11
19.0311
 21
-1.47342
  0
LINE
  8
0
 10
19.0311
 20
-1.47342
 11
18.8442
 21
-1.49704
  0
LINE
  8
0
 10
18.8442
 20
-1.49704
 11
18.6558
 21
-1.49704
  0
LINE
  8
0
 10
11.1558
 20
-1.49704
 11
10.9689
 21
-1.47342
  0
LINE
  8
0
 10
10.9689
 20
-1.47342
 11
10.7865
 21
-1.42657
  0
LINE
  8
0
 10
10.7865
 20
-1.42657
 11
10.6113
 21
-1.35724
  0
LINE
  8
0
 10
10.6113
 20
-1.35724
 11
10.4463
 21
-1.26648
  0
LINE
  8
0
 10
10.4463
 20
-1.26648
 11
10.2939
 21
-1.15576
  0
LINE
  8
0
 10
10.2939
 20
-1.15576
 11
10.1565
 21
-1.02681
  0
LINE
  8
0
 10
10.1565
 20
-1.02681
 11
10.0365
 21
-0.881668
  0
LINE
  8
0
 10
10.0365
 20
-0.881668
 11
9.93553
 21
-0.722626
  0
LINE
  8
0
 10
9.93553
 20
-0.722626
 11
9.85533
 21
-0.552185
  0
LINE
  8
0
 10
9.85533
 20
-0.552185
 11
9.79712
 21
-0.373032
  0
LINE
  8
0
 10
9.79712
 20
-0.373032
 11
9.76183
 21
-0.187988
  0
LINE
  8
0
 10
9.76183
 20
-0.187988
 11
9.75
 21
0
  0
LINE
  8
0
 10
9.75
 20
0
 11
9.76183
 21
0.187988
  0
LINE
  8
0
 10
9.76183
 20
0.187988
 11
9.79712
 21
0.373032
  0
LINE
  8
0
 10
9.79712
 20
0.373032
 11
9.85533
 21
0.552185
  0
LINE
  8
0
 10
9.85533
 20
0.552185
 11
9.93553
 21
0.722626
  0
LINE
  8
0
 10
9.93553
 20
0.722626
 11
10.0365
 21
0.881668
  0
LINE
  8
0
 10
10.0365
 20
0.881668
 11
10.1565
 21
1.02681
  0
LINE
  8
0
 10
10.1565
 20
1.02681
 11
10.2939
 21
1.15576
  0
LINE
  8
0
 10
10.2939
 20
1.15576
 11
10.4463
 21
1.26648
  0
LINE
  8
0
 10
10.4463
 20
1.26648
 11
10.6113
 21
1.35724
  0
LINE
  8
0
 10
10.6113
 20
1.35724
 11
10.7865
 21
1.42657
  0
LINE
  8
0
 10
10.7865
 20
1.42657
 11
10.9689
 21
1.47342
  0
LINE
  8
0
 10
10.9689
 20
1.47342
 11
11.1558
 21
1.49704
  0
LINE
  8
0
 10
11.1558
 20
1.49704
 11
11.3442
 21
1.49704
  0
LINE
  8
0
 10
11.3442
 20
1.49704
 11
11.5311
 21
1.47342
  0
LINE
  8
0
 10
11.5311
 20
1.47342
 11
11.7135
 21
1.42657
  0
LINE
  8
0
 10
11.7135
 20
1.42657
 11
11.8887
 21
1.35724
  0
LINE
  8
0
 10
11.8887
 20
1.35724
 11
12.0537
 21
1.26648
  0
LINE
  8
0
 10
12.0537
 20
1.26648
 11
12.2061
 21
1.15576
  0
LINE
  8
0
 10
12.2061
 20
1.15576
 11
12.3434
 21
1.02681
  0
LINE
  8
0
 10
12.3434
 20
1.02681
 11
12.4635
 21
0.881668
  0
LINE
  8
0
 10
12.4635
 20
0.881668
 11
12.5645
 21
0.722626
  0
LINE
  8
0
 10
12.5645
 20
0.722626
 11
12.6447
 21
0.552185
  0
LINE
  8
0
 10
12.6447
 20
0.552185
 11
12.7029
 21
0.373032
  0
LINE
  8
0
 10
12.7029
 20
0.373032
 11
12.7382
 21
0.187988
  0
LINE
  8
0
 10
12.7382
 20
0.187988
 11
12.75
 21
0
  0
LINE
  8
0
 10
12.75
 20
0
 11
12.7382
 21
-0.187988
  0
LINE
  8
0
 10
12.7382
 20
-0.187988
 11
12.7029
 21
-0.373032
  0
LINE
  8
0
 10
12.7029
 20
-0.373032
 11
12.6447
 21
-0.552185
  0
LINE
  8
0
 10
12.6447
 20
-0.552185
 11
12.5645
 21
-0.722626
  0
LINE
  8
0
 10
12.5645
 20
-0.722626
 11
12.4635
 21
-0.881668
  0
LINE
  8
0
 10
12.4635
 20
-0.881668
 11
12.3434
 21
-1.02681
  0
LINE
  8
0
 10
12.3434
 20
-1.02681
 11
12.2061
 21
-1.15576
  0
LINE
  8
0
 10
12.2061
 20
-1.15576
 11
12.0537
 21
-1.26648
  0
LINE
  8
0
 10
12.0537
 20
-1.26648
 11
11.8887
 21
-1.35724
  0
LINE
  8
0
 10
11.8887
 20
-1.35724
 11
11.7135
 21
-1.42657
  0
LINE
  8
0
 10
11.7135
 20
-1.42657
 11
11.5311
 21
-1.47342
  0
LINE
  8
0
 10
11.5311
 20
-1.47342
 11
11.3442
 21
-1.49704
  0
LINE
  8
0
 10
11.3442
 20
-1.49704
 11
11.1558
 21
-1.49704
  0
LINE
  8
0
 10
108.656
 20
-1.49704
 11
108.469
 21
-1.47342
  0
LINE
  8
0
 10
108.469
 20
-1.47342
 11
108.286
 21
-1.42657
  0
LINE
  8
0
 10
108.286
 20
-1.42657
 11
108.111
 21
-1.35724
  0
LINE
  8
0
 10
108.111
 20
-1.35724
 11
107.946
 21
-1.26648
  0
LINE
  8
0
 10
107.946
 20
-1.26648
 11
107.794
 21
-1.15576
  0
LINE
  8
0
 10
107.794
 20
-1.15576
 11
107.657
 21
-1.02681
  0
LINE
  8
0
 10
107.657
 20
-1.02681
 11
107.536
 21
-0.881668
  0
LINE
  8
0
 10
107.536
 20
-0.881668
 11
107.436
 21
-0.722626
  0
LINE
  8
0
 10
107.436
 20
-0.722626
 11
107.355
 21
-0.552185
  0
LINE
  8
0
 10
107.355
 20
-0.552185
 11
107.297
 21
-0.373032
  0
LINE
  8
0
 10
107.297
 20
-0.373032
 11
107.262
 21
-0.187988
  0
LINE
  8
0
 10
107.262
 20
-0.187988
 11
107.25
 21
0
  0
LINE
  8
0
 10
107.25
 20
0
 11
107.262
 21
0.187988
  0
LINE
  8
0
 10
107.262
 20
0.187988
 11
107.297
 21
0.373032
  0
LINE
  8
0
 10
107.297
 20
0.373032
 11
107.355
 21
0.552185
  0
LINE
  8
0
 10
107.355
 20
0.552185
 11
107.436
 21
0.722626
  0
LINE
  8
0
 10
107.436
 20
0.722626
 11
107.536
 21
0.881668
  0
LINE
  8
0
 10
107.536
 20
0.881668
 11
107.657
 21
1.02681
  0
LINE
  8
0
 10
107.657
 20
1.02681
 11
107.794
 21
1.15576
  0
LINE
  8
0
 10
107.794
 20
1.15576
 11
107.946
 21
1.26648
  0
LINE
  8
0
 10
107.946
 20
1.26648
 11
108.111
 21
1.35724
  0
LINE
  8
0
 10
108.111
 20
1.35724
 11
108.286
 21
1.42657
  0
LINE
  8
0
 10
108.286
 20
1.42657
 11
108.469
 21
1.47342
  0
LINE
  8
0
 10
108.469
 20
1.47342
 11
108.656
 21
1.49704
  0
LINE
  8
0
 10
108.656
 20
1.49704
 11
108.844
 21
1.49704
  0
LINE
  8
0
 10
108.844
 20
1.49704
 11
109.031
 21
1.47342
  0
LINE
  8
0
 10
109.031
 20
1.47342
 11
109.214
 21
1.42657
  0
LINE
  8
0
 10
109.214
 20
1.42657
 11
109.389
 21
1.35724
  0
LINE
  8
0
 10
109.389
 20
1.35724
 11
109.554
 21
1.26648
  0
LINE
  8
0
 10
109.554
 20
1.26648
 11
109.706
 21
1.15576
  0
LINE
  8
0
 10
109.706
 20
1.15576
 11
109.843
 21
1.02681
  0
LINE
  8
0
 10
109.843
 20
1.02681
 11
109.964
 21
0.881668
  0
LINE
  8
0
 10
109.964
 20
0.881668
 11
110.064
 21
0.722626
  0
LINE
  8
0
 10
110.064
 20
0.722626
 11
110.145
 21
0.552185
  0
LINE
  8
0
 10
110.145
 20
0.552185
 11
110.203
 21
0.373032
  0
LINE
  8
0
 10
110.203
 20
0.373032
 11
110.238
 21
0.187988
  0
LINE
  8
0
 10
110.238
 20
0.187988
 11
110.25
 21
0
  0
LINE
  8
0
 10
110.25
 20
0
 11
110.238
 21
-0.187988
  0
LINE
  8
0
 10
110.238
 20
-0.187988
 11
110.203
 21
-0.373032
  0
LINE
  8
0
 10
110.203
 20
-0.373032
 11
110.145
 21
-0.552185
  0
LINE
  8
0
 10
110.145
 20
-0.552185
 11
110.064
 21
-0.722626
  0
LINE
  8
0
 10
110.064
 20
-0.722626
 11
109.964
 21
-0.881668
  0
LINE
  8
0
 10
109.964
 20
-0.881668
 11
109.843
 21
-1.02681
  0
LINE
  8
0
 10
109.843
 20
-1.02681
 11
109.706
 21
-1.15576
  0
LINE
  8
0
 10
109.706
 20
-1.15576
 11
109.554
 21
-1.26648
  0
LINE
  8
0
 10
109.554
 20
-1.26648
 11
109.389
 21
-1.35724
  0
LINE
  8
0
 10
109.389
 20
-1.35724
 11
109.214
 21
-1.42657
  0
LINE
  8
0
 10
109.214
 20
-1.42657
 11
109.031
 21
-1.47342
  0
LINE
  8
0
 10
109.031
 20
-1.47342
 11
108.844
 21
-1.49704
  0
LINE
  8
0
 10
108.844
 20
-1.49704
 11
108.656
 21
-1.49704
  0
LINE
  8
0
 10
3.65581
 20
-1.49704
 11
3.46892
 21
-1.47342
  0
LINE
  8
0
 10
3.46892
 20
-1.47342
 11
3.28647
 21
-1.42657
  0
LINE
  8
0
 10
3.28647
 20
-1.42657
 11
3.11133
 21
-1.35724
  0
LINE
  8
0
 10
3.11133
 20
-1.35724
 11
2.94626
 21
-1.26648
  0
LINE
  8
0
 10
2.94626
 20
-1.26648
 11
2.79385
 21
-1.15576
  0
LINE
  8
0
 10
2.79385
 20
-1.15576
 11
2.65654
 21
-1.02681
  0
LINE
  8
0
 10
2.65654
 20
-1.02681
 11
2.53647
 21
-0.881668
  0
LINE
  8
0
 10
2.53647
 20
-0.881668
 11
2.43553
 21
-0.722626
  0
LINE
  8
0
 10
2.43553
 20
-0.722626
 11
2.35533
 21
-0.552185
  0
LINE
  8
0
 10
2.35533
 20
-0.552185
 11
2.29712
 21
-0.373032
  0
LINE
  8
0
 10
2.29712
 20
-0.373032
 11
2.26183
 21
-0.187988
  0
LINE
  8
0
 10
2.26183
 20
-0.187988
 11
2.25
 21
0
  0
LINE
  8
0
 10
2.25
 20
0
 11
2.26183
 21
0.187988
  0
LINE
  8
0
 10
2.26183
 20
0.187988
 11
2.29712
 21
0.373032
  0
LINE
  8
0
 10
2.29712
 20
0.373032
 11
2.35533
 21
0.552185
  0
LINE
  8
0
 10
2.35533
 20
0.552185
 11
2.43553
 21
0.722626
  0
LINE
  8
0
 10
2.43553
 20
0.722626
 11
2.53647
 21
0.881668
  0
LINE
  8
0
 10
2.53647
 20
0.881668
 11
2.65654
 21
1.02681
  0
LINE
  8
0
 10
2.65654
 20
1.02681
 11
2.79385
 21
1.15576
  0
LINE
  8
0
 10
2.79385
 20
1.15576
 11
2.94626
 21
1.26648
  0
LINE
  8
0
 10
2.94626
 20
1.26648
 11
3.11133
 21
1.35724
  0
LINE
  8
0
 10
3.11133
 20
1.35724
 11
3.28647
 21
1.42657
  0
LINE
  8
0
 10
3.28647
 20
1.42657
 11
3.46892
 21
1.47342
  0
LINE
  8
0
 10
3.46892
 20
1.47342
 11
3.65581
 21
1.49704
  0
LINE
  8
0
 10
3.65581
 20
1.49704
 11
3.84418
 21
1.49704
  0
LINE
  8
0
 10
3.84418
 20
1.49704
 11
4.03107
 21
1.47342
  0
LINE
  8
0
 10
4.03107
 20
1.47342
 11
4.21352
 21
1.42657
  0
LINE
  8
0
 10
4.21352
 20
1.42657
 11
4.38866
 21
1.35724
  0
LINE
  8
0
 10
4.38866
 20
1.35724
 11
4.55373
 21
1.26648
  0
LINE
  8
0
 10
4.55373
 20
1.26648
 11
4.70613
 21
1.15576
  0
LINE
  8
0
 10
4.70613
 20
1.15576
 11
4.84344
 21
1.02681
  0
LINE
  8
0
 10
4.84344
 20
1.02681
 11
4.96352
 21
0.881668
  0
LINE
  8
0
 10
4.96352
 20
0.881668
 11
5.06445
 21
0.722626
  0
LINE
  8
0
 10
5.06445
 20
0.722626
 11
5.14465
 21
0.552185
  0
LINE
  8
0
 10
5.14465
 20
0.552185
 11
5.20287
 21
0.373032
  0
LINE
  8
0
 10
5.20287
 20
0.373032
 11
5.23816
 21
0.187988
  0
LINE
  8
0
 10
5.23816
 20
0.187988
 11
5.25
 21
0
  0
LINE
  8
0
 10
5.25
 20
0
 11
5.23816
 21
-0.187988
  0
LINE
  8
0
 10
5.23816
 20
-0.187988
 11
5.20287
 21
-0.373032
  0
LINE
  8
0
 10
5.20287
 20
-0.373032
 11
5.14465
 21
-0.552185
  0
LINE
  8
0
 10
5.14465
 20
-0.552185
 11
5.06445
 21
-0.722626
  0
LINE
  8
0
 10
5.06445
 20
-0.722626
 11
4.96352
 21
-0.881668
  0
LINE
  8
0
 10
4.96352
 20
-0.881668
 11
4.84344
 21
-1.02681
  0
LINE
  8
0
 10
4.84344
 20
-1.02681
 11
4.70613
 21
-1.15576
  0
LINE
  8
0
 10
4.70613
 20
-1.15576
 11
4.55373
 21
-1.26648
  0
LINE
  8
0
 10
4.55373
 20
-1.26648
 11
4.38866
 21
-1.35724
  0
LINE
  8
0
 10
4.38866
 20
-1.35724
 11
4.21352
 21
-1.42657
  0
LINE
  8
0
 10
4.21352
 20
-1.42657
 11
4.03107
 21
-1.47342
  0
LINE
  8
0
 10
4.03107
 20
-1.47342
 11
3.84418
 21
-1.49704
  0
LINE
  8
0
 10
3.84418
 20
-1.49704
 11
3.65581
 21
-1.49704
  0
LINE
  8
0
 10
-11.3442
 20
-1.49704
 11
-11.5311
 21
-1.47342
  0
LINE
  8
0
 10
-11.5311
 20
-1.47342
 11
-11.7135
 21
-1.42657
  0
LINE
  8
0
 10
-11.7135
 20
-1.42657
 11
-11.8887
 21
-1.35724
  0
LINE
  8
0
 10
-11.8887
 20
-1.35724
 11
-12.0537
 21
-1.26648
  0
LINE
  8
0
 10
-12.0537
 20
-1.26648
 11
-12.2061
 21
-1.15576
  0
LINE
  8
0
 10
-12.2061
 20
-1.15576
 11
-12.3434
 21
-1.02681
  0
LINE
  8
0
 10
-12.3434
 20
-1.02681
 11
-12.4635
 21
-0.881668
  0
LINE
  8
0
 10
-12.4635
 20
-0.881668
 11
-12.5645
 21
-0.722626
  0
LINE
  8
0
 10
-12.5645
 20
-0.722626
 11
-12.6447
 21
-0.552185
  0
LINE
  8
0
 10
-12.6447
 20
-0.552185
 11
-12.7029
 21
-0.373032
  0
LINE
  8
0
 10
-12.7029
 20
-0.373032
 11
-12.7382
 21
-0.187988
  0
LINE
  8
0
 10
-12.7382
 20
-0.187988
 11
-12.75
 21
0
  0
LINE
  8
0
 10
-12.75
 20
0
 11
-12.7382
 21
0.187988
  0
LINE
  8
0
 10
-12.7382
 20
0.187988
 11
-12.7029
 21
0.373032
  0
LINE
  8
0
 10
-12.7029
 20
0.373032
 11
-12.6447
 21
0.552185
  0
LINE
  8
0
 10
-12.6447
 20
0.552185
 11
-12.5645
 21
0.722626
  0
LINE
  8
0
 10
-12.5645
 20
0.722626
 11
-12.4635
 21
0.881668
  0
LINE
  8
0
 10
-12.4635
 20
0.881668
 11
-12.3434
 21
1.02681
  0
LINE
  8
0
 10
-12.3434
 20
1.02681
 11
-12.2061
 21
1.15576
  0
LINE
  8
0
 10
-12.2061
 20
1.15576
 11
-12.0537
 21
1.26648
  0
LINE
  8
0
 10
-12.0537
 20
1.26648
 11
-11.8887
 21
1.35724
  0
LINE
  8
0
 10
-11.8887
 20
1.35724
 11
-11.7135
 21
1.42657
  0
LINE
  8
0
 10
-11.7135
 20
1.42657
 11
-11.5311
 21
1.47342
  0
LINE
  8
0
 10
-11.5311
 20
1.47342
 11
-11.3442
 21
1.49704
  0
LINE
  8
0
 10
-11.3442
 20
1.49704
 11
-11.1558
 21
1.49704
  0
LINE
  8
0
 10
-11.1558
 20
1.49704
 11
-10.9689
 21
1.47342
  0
LINE
  8
0
 10
-10.9689
 20
1.47342
 11
-10.7865
 21
1.42657
  0
LINE
  8
0
 10
-10.7865
 20
1.42657
 11
-10.6113
 21
1.35724
  0
LINE
  8
0
 10
-10.6113
 20
1.35724
 11
-10.4463
 21
1.26648
  0
LINE
  8
0
 10
-10.4463
 20
1.26648
 11
-10.2939
 21
1.15576
  0
LINE
  8
0
 10
-10.2939
 20
1.15576
 11
-10.1565
 21
1.02681
  0
LINE
  8
0
 10
-10.1565
 20
1.02681
 11
-10.0365
 21
0.881668
  0
LINE
  8
0
 10
-10.0365
 20
0.881668
 11
-9.93553
 21
0.722626
  0
LINE
  8
0
 10
-9.93553
 20
0.722626
 11
-9.85533
 21
0.552185
  0
LINE
  8
0
 10
-9.85533
 20
0.552185
 11
-9.79712
 21
0.373032
  0
LINE
  8
0
 10
-9.79712
 20
0.373032
 11
-9.76183
 21
0.187988
  0
LINE
  8
0
 10
-9.76183
 20
0.187988
 11
-9.75
 21
0
  0
LINE
  8
0
 10
-9.75
 20
0
 11
-9.76183
 21
-0.187988
  0
LINE
  8
0
 10
-9.76183
 20
-0.187988
 11
-9.79712
 21
-0.373032
  0
LINE
  8
0
 10
-9.79712
 20
-0.373032
 11
-9.85533
 21
-0.552185
  0
LINE
  8
0
 10
-9.85533
 20
-0.552185
 11
-9.93553
 21
-0.722626
  0
LINE
  8
0
 10
-9.93553
 20
-0.722626
 11
-10.0365
 21
-0.881668
  0
LINE
  8
0
 10
-10.0365
 20
-0.881668
 11
-10.1565
 21
-1.02681
  0
LINE
  8
0
 10
-10.1565
 20
-1.02681
 11
-10.2939
 21
-1.15576
  0
LINE
  8
0
 10
-10.2939
 20
-1.15576
 11
-10.4463
 21
-1.26648
  0
LINE
  8
0
 10
-10.4463
 20
-1.26648
 11
-10.6113
 21
-1.35724
  0
LINE
  8
0
 10
-10.6113
 20
-1.35724
 11
-10.7865
 21
-1.42657
  0
LINE
  8
0
 10
-10.7865
 20
-1.42657
 11
-10.9689
 21
-1.47342
  0
LINE
  8
0
 10
-10.9689
 20
-1.47342
 11
-11.1558
 21
-1.49704
  0
LINE
  8
0
 10
-11.1558
 20
-1.49704
 11
-11.3442
 21
-1.49704
  0
LINE
  8
0
 10
26.1558
 20
-1.49704
 11
25.9689
 21
-1.47342
  0
LINE
  8
0
 10
25.9689
 20
-1.47342
 11
25.7865
 21
-1.42657
  0
LINE
  8
0
 10
25.7865
 20
-1.42657
 11
25.6113
 21
-1.35724
  0
LINE
  8
0
 10
25.6113
 20
-1.35724
 11
25.4463
 21
-1.26648
  0
LINE
  8
0
 10
25.4463
 20
-1.26648
 11
25.2939
 21
-1.15576
  0
LINE
  8
0
 10
25.2939
 20
-1.15576
 11
25.1565
 21
-1.02681
  0
LINE
  8
0
 10
25.1565
 20
-1.02681
 11
25.0365
 21
-0.881668
  0
LINE
  8
0
 10
25.0365
 20
-0.881668
 11
24.9355
 21
-0.722626
  0
LINE
  8
0
 10
24.9355
 20
-0.722626
 11
24.8553
 21
-0.552185
  0
LINE
  8
0
 10
24.8553
 20
-0.552185
 11
24.7971
 21
-0.373032
  0
LINE
  8
0
 10
24.7971
 20
-0.373032
 11
24.7618
 21
-0.187988
  0
LINE
  8
0
 10
24.7618
 20
-0.187988
 11
24.75
 21
0
  0
LINE
  8
0
 10
24.75
 20
0
 11
24.7618
 21
0.187988
  0
LINE
  8
0
 10
24.7618
 20
0.187988
 11
24.7971
 21
0.373032
  0
LINE
  8
0
 10
24.7971
 20
0.373032
 11
24.8553
 21
0.552185
  0
LINE
  8
0
 10
24.8553
 20
0.552185
 11
24.9355
 21
0.722626
  0
LINE
  8
0
 10
24.9355
 20
0.722626
 11
25.0365
 21
0.881668
  0
LINE
  8
0
 10
25.0365
 20
0.881668
 11
25.1565
 21
1.02681
  0
LINE
  8
0
 10
25.1565
 20
1.02681
 11
25.2939
 21
1.15576
  0
LINE
  8
0
 10
25.2939
 20
1.15576
 11
25.4463
 21
1.26648
  0
LINE
  8
0
 10
25.4463
 20
1.26648
 11
25.6113
 21
1.35724
  0
LINE
  8
0
 10
25.6113
 20
1.35724
 11
25.7865
 21
1.42657
  0
LINE
  8
0
 10
25.7865
 20
1.42657
 11
25.9689
 21
1.47342
  0
LINE
  8
0
 10
25.9689
 20
1.47342
 11
26.1558
 21
1.49704
  0
LINE
  8
0
 10
26.1558
 20
1.49704
 11
26.3442
 21
1.49704
  0
LINE
  8
0
 10
26.3442
 20
1.49704
 11
26.5311
 21
1.47342
  0
LINE
  8
0
 10
26.5311
 20
1.47342
 11
26.7135
 21
1.42657
  0
LINE
  8
0
 10
26.7135
 20
1.42657
 11
26.8887
 21
1.35724
  0
LINE
  8
0
 10
26.8887
 20
1.35724
 11
27.0537
 21
1.26648
  0
LINE
  8
0
 10
27.0537
 20
1.26648
 11
27.2061
 21
1.15576
  0
LINE
  8
0
 10
27.2061
 20
1.15576
 11
27.3434
 21
1.02681
  0
LINE
  8
0
 10
27.3434
 20
1.02681
 11
27.4635
 21
0.881668
  0
LINE
  8
0
 10
27.4635
 20
0.881668
 11
27.5645
 21
0.722626
  0
LINE
  8
0
 10
27.5645
 20
0.722626
 11
27.6447
 21
0.552185
  0
LINE
  8
0
 10
27.6447
 20
0.552185
 11
27.7029
 21
0.373032
  0
LINE
  8
0
 10
27.7029
 20
0.373032
 11
27.7382
 21
0.187988
  0
LINE
  8
0
 10
27.7382
 20
0.187988
 11
27.75
 21
0
  0
LINE
  8
0
 10
27.75
 20
0
 11
27.7382
 21
-0.187988
  0
LINE
  8
0
 10
27.7382
 20
-0.187988
 11
27.7029
 21
-0.373032
  0
LINE
  8
0
 10
27.7029
 20
-0.373032
 11
27.6447
 21
-0.552185
  0
LINE
  8
0
 10
27.6447
 20
-0.552185
 11
27.5645
 21
-0.722626
  0
LINE
  8
0
 10
27.5645
 20
-0.722626
 11
27.4635
 21
-0.881668
  0
LINE
  8
0
 10
27.4635
 20
-0.881668
 11
27.3434
 21
-1.02681
  0
LINE
  8
0
 10
27.3434
 20
-1.02681
 11
27.2061
 21
-1.15576
  0
LINE
  8
0
 10
27.2061
 20
-1.15576
 11
27.0537
 21
-1.26648
  0
LINE
  8
0
 10
27.0537
 20
-1.26648
 11
26.8887
 21
-1.35724
  0
LINE
  8
0
 10
26.8887
 20
-1.35724
 11
26.7135
 21
-1.42657
  0
LINE
  8
0
 10
26.7135
 20
-1.42657
 11
26.5311
 21
-1.47342
  0
LINE
  8
0
 10
26.5311
 20
-1.47342
 11
26.3442
 21
-1.49704
  0
LINE
  8
0
 10
26.3442
 20
-1.49704
 11
26.1558
 21
-1.49704
  0
LINE
  8
0
 10
-3.84418
 20
-1.49704
 11
-4.03107
 21
-1.47342
  0
LINE
  8
0
 10
-4.03107
 20
-1.47342
 11
-4.21352
 21
-1.42657
  0
LINE
  8
0
 10
-4.21352
 20
-1.42657
 11
-4.38866
 21
-1.35724
  0
LINE
  8
0
 10
-4.38866
 20
-1.35724
 11
-4.55373
 21
-1.26648
  0
LINE
  8
0
 10
-4.55373
 20
-1.26648
 11
-4.70613
 21
-1.15576
  0
LINE
  8
0
 10
-4.70613
 20
-1.15576
 11
-4.84344
 21
-1.02681
  0
LINE
  8
0
 10
-4.84344
 20
-1.02681
 11
-4.96352
 21
-0.881668
  0
LINE
  8
0
 10
-4.96352
 20
-0.881668
 11
-5.06445
 21
-0.722626
  0
LINE
  8
0
 10
-5.06445
 20
-0.722626
 11
-5.14465
 21
-0.552185
  0
LINE
  8
0
 10
-5.14465
 20
-0.552185
 11
-5.20287
 21
-0.373032
  0
LINE
  8
0
 10
-5.20287
 20
-0.373032
 11
-5.23816
 21
-0.187988
  0
LINE
  8
0
 10
-5.23816
 20
-0.187988
 11
-5.25
 21
0
  0
LINE
  8
0
 10
-5.25
 20
0
 11
-5.23816
 21
0.187988
  0
LINE
  8
0
 10
-5.23816
 20
0.187988
 11
-5.20287
 21
0.373032
  0
LINE
  8
0
 10
-5.20287
 20
0.373032
 11
-5.14465
 21
0.552185
  0
LINE
  8
0
 10
-5.14465
 20
0.552185
 11
-5.06445
 21
0.722626
  0
LINE
  8
0
 10
-5.06445
 20
0.722626
 11
-4.96352
 21
0.881668
  0
LINE
  8
0
 10
-4.96352
 20
0.881668
 11
-4.84344
 21
1.02681
  0
LINE
  8
0
 10
-4.84344
 20
1.02681
 11
-4.70613
 21
1.15576
  0
LINE
  8
0
 10
-4.70613
 20
1.15576
 11
-4.55373
 21
1.26648
  0
LINE
  8
0
 10
-4.55373
 20
1.26648
 11
-4.38866
 21
1.35724
  0
LINE
  8
0
 10
-4.38866
 20
1.35724
 11
-4.21352
 21
1.42657
  0
LINE
  8
0
 10
-4.21352
 20
1.42657
 11
-4.03107
 21
1.47342
  0
LINE
  8
0
 10
-4.03107
 20
1.47342
 11
-3.84418
 21
1.49704
  0
LINE
  8
0
 10
-3.84418
 20
1.49704
 11
-3.65581
 21
1.49704
  0
LINE
  8
0
 10
-3.65581
 20
1.49704
 11
-3.46892
 21
1.47342
  0
LINE
  8
0
 10
-3.46892
 20
1.47342
 11
-3.28647
 21
1.42657
  0
LINE
  8
0
 10
-3.28647
 20
1.42657
 11
-3.11133
 21
1.35724
  0
LINE
  8
0
 10
-3.11133
 20
1.35724
 11
-2.94626
 21
1.26648
  0
LINE
  8
0
 10
-2.94626
 20
1.26648
 11
-2.79385
 21
1.15576
  0
LINE
  8
0
 10
-2.79385
 20
1.15576
 11
-2.65654
 21
1.02681
  0
LINE
  8
0
 10
-2.65654
 20
1.02681
 11
-2.53647
 21
0.881668
  0
LINE
  8
0
 10
-2.53647
 20
0.881668
 11
-2.43553
 21
0.722626
  0
LINE
  8
0
 10
-2.43553
 20
0.722626
 11
-2.35533
 21
0.552185
  0
LINE
  8
0
 10
-2.35533
 20
0.552185
 11
-2.29712
 21
0.373032
  0
LINE
  8
0
 10
-2.29712
 20
0.373032
 11
-2.26183
 21
0.187988
  0
LINE
  8
0
 10
-2.26183
 20
0.187988
 11
-2.25
 21
0
  0
LINE
  8
0
 10
-2.25
 20
0
 11
-2.26183
 21
-0.187988
  0
LINE
  8
0
 10
-2.26183
 20
-0.187988
 11
-2.29712
 21
-0.373032
  0
LINE
  8
0
 10
-2.29712
 20
-0.373032
 11
-2.35533
 21
-0.552185
  0
LINE
  8
0
 10
-2.35533
 20
-0.552185
 11
-2.43553
 21
-0.722626
  0
LINE
  8
0
 10
-2.43553
 20
-0.722626
 11
-2.53647
 21
-0.881668
  0
LINE
  8
0
 10
-2.53647
 20
-0.881668
 11
-2.65654
 21
-1.02681
  0
LINE
  8
0
 10
-2.65654
 20
-1.02681
 11
-2.79385
 21
-1.15576
  0
LINE
  8
0
 10
-2.79385
 20
-1.15576
 11
-2.94626
 21
-1.26648
  0
LINE
  8
0
 10
-2.94626
 20
-1.26648
 11
-3.11133
 21
-1.35724
  0
LINE
  8
0
 10
-3.11133
 20
-1.35724
 11
-3.28647
 21
-1.42657
  0
LINE
  8
0
 10
-3.28647
 20
-1.42657
 11
-3.46892
 21
-1.47342
  0
LINE
  8
0
 10
-3.46892
 20
-1.47342
 11
-3.65581
 21
-1.49704
  0
LINE
  8
0
 10
-3.65581
 20
-1.49704
 11
-3.84418
 21
-1.49704
  0
LINE
  8
0
 10
123.656
 20
-1.49704
 11
123.469
 21
-1.47342
  0
LINE
  8
0
 10
123.469
 20
-1.47342
 11
123.286
 21
-1.42657
  0
LINE
  8
0
 10
123.286
 20
-1.42657
 11
123.111
 21
-1.35724
  0
LINE
  8
0
 10
123.111
 20
-1.35724
 11
122.946
 21
-1.26648
  0
LINE
  8
0
 10
122.946
 20
-1.26648
 11
122.794
 21
-1.15576
  0
LINE
  8
0
 10
122.794
 20
-1.15576
 11
122.657
 21
-1.02681
  0
LINE
  8
0
 10
122.657
 20
-1.02681
 11
122.536
 21
-0.881668
  0
LINE
  8
0
 10
122.536
 20
-0.881668
 11
122.436
 21
-0.722626
  0
LINE
  8
0
 10
122.436
 20
-0.722626
 11
122.355
 21
-0.552185
  0
LINE
  8
0
 10
122.355
 20
-0.552185
 11
122.297
 21
-0.373032
  0
LINE
  8
0
 10
122.297
 20
-0.373032
 11
122.262
 21
-0.187988
  0
LINE
  8
0
 10
122.262
 20
-0.187988
 11
122.25
 21
0
  0
LINE
  8
0
 10
122.25
 20
0
 11
122.262
 21
0.187988
  0
LINE
  8
0
 10
122.262
 20
0.187988
 11
122.297
 21
0.373032
  0
LINE
  8
0
 10
122.297
 20
0.373032
 11
122.355
 21
0.552185
  0
LINE
  8
0
 10
122.355
 20
0.552185
 11
122.436
 21
0.722626
  0
LINE
  8
0
 10
122.436
 20
0.722626
 11
122.536
 21
0.881668
  0
LINE
  8
0
 10
122.536
 20
0.881668
 11
122.657
 21
1.02681
  0
LINE
  8
0
 10
122.657
 20
1.02681
 11
122.794
 21
1.15576
  0
LINE
  8
0
 10
122.794
 20
1.15576
 11
122.946
 21
1.26648
  0
LINE
  8
0
 10
122.946
 20
1.26648
 11
123.111
 21
1.35724
  0
LINE
  8
0
 10
123.111
 20
1.35724
 11
123.286
 21
1.42657
  0
LINE
  8
0
 10
123.286
 20
1.42657
 11
123.469
 21
1.47342
  0
LINE
  8
0
 10
123.469
 20
1.47342
 11
123.656
 21
1.49704
  0
LINE
  8
0
 10
123.656
 20
1.49704
 11
123.844
 21
1.49704
  0
LINE
  8
0
 10
123.844
 20
1.49704
 11
124.031
 21
1.47342
  0
LINE
  8
0
 10
124.031
 20
1.47342
 11
124.214
 21
1.42657
  0
LINE
  8
0
 10
124.214
 20
1.42657
 11
124.389
 21
1.35724
  0
LINE
  8
0
 10
124.389
 20
1.35724
 11
124.554
 21
1.26648
  0
LINE
  8
0
 10
124.554
 20
1.26648
 11
124.706
 21
1.15576
  0
LINE
  8
0
 10
124.706
 20
1.15576
 11
124.843
 21
1.02681
  0
LINE
  8
0
 10
124.843
 20
1.02681
 11
124.964
 21
0.881668
  0
LINE
  8
0
 10
124.964
 20
0.881668
 11
125.064
 21
0.722626
  0
LINE
  8
0
 10
125.064
 20
0.722626
 11
125.145
 21
0.552185
  0
LINE
  8
0
 10
125.145
 20
0.552185
 11
125.203
 21
0.373032
  0
LINE
  8
0
 10
125.203
 20
0.373032
 11
125.238
 21
0.187988
  0
LINE
  8
0
 10
125.238
 20
0.187988
 11
125.25
 21
0
  0
LINE
  8
0
 10
125.25
 20
0
 11
125.238
 21
-0.187988
  0
LINE
  8
0
 10
125.238
 20
-0.187988
 11
125.203
 21
-0.373032
  0
LINE
  8
0
 10
125.203
 20
-0.373032
 11
125.145
 21
-0.552185
  0
LINE
  8
0
 10
125.145
 20
-0.552185
 11
125.064
 21
-0.722626
  0
LINE
  8
0
 10
125.064
 20
-0.722626
 11
124.964
 21
-0.881668
  0
LINE
  8
0
 10
124.964
 20
-0.881668
 11
124.843
 21
-1.02681
  0
LINE
  8
0
 10
124.843
 20
-1.02681
 11
124.706
 21
-1.15576
  0
LINE
  8
0
 10
124.706
 20
-1.15576
 11
124.554
 21
-1.26648
  0
LINE
  8
0
 10
124.554
 20
-1.26648
 11
124.389
 21
-1.35724
  0
LINE
  8
0
 10
124.389
 20
-1.35724
 11
124.214
 21
-1.42657
  0
LINE
  8
0
 10
124.214
 20
-1.42657
 11
124.031
 21
-1.47342
  0
LINE
  8
0
 10
124.031
 20
-1.47342
 11
123.844
 21
-1.49704
  0
LINE
  8
0
 10
123.844
 20
-1.49704
 11
123.656
 21
-1.49704
  0
LINE
  8
0
 10
-86.3442
 20
-1.49704
 11
-86.5311
 21
-1.47342
  0
LINE
  8
0
 10
-86.5311
 20
-1.47342
 11
-86.7135
 21
-1.42657
  0
LINE
  8
0
 10
-86.7135
 20
-1.42657
 11
-86.8887
 21
-1.35724
  0
LINE
  8
0
 10
-86.8887
 20
-1.35724
 11
-87.0537
 21
-1.26648
  0
LINE
  8
0
 10
-87.0537
 20
-1.26648
 11
-87.2061
 21
-1.15576
  0
LINE
  8
0
 10
-87.2061
 20
-1.15576
 11
-87.3434
 21
-1.02681
  0
LINE
  8
0
 10
-87.3434
 20
-1.02681
 11
-87.4635
 21
-0.881668
  0
LINE
  8
0
 10
-87.4635
 20
-0.881668
 11
-87.5645
 21
-0.722626
  0
LINE
  8
0
 10
-87.5645
 20
-0.722626
 11
-87.6447
 21
-0.552185
  0
LINE
  8
0
 10
-87.6447
 20
-0.552185
 11
-87.7029
 21
-0.373032
  0
LINE
  8
0
 10
-87.7029
 20
-0.373032
 11
-87.7382
 21
-0.187988
  0
LINE
  8
0
 10
-87.7382
 20
-0.187988
 11
-87.75
 21
0
  0
LINE
  8
0
 10
-87.75
 20
0
 11
-87.7382
 21
0.187988
  0
LINE
  8
0
 10
-87.7382
 20
0.187988
 11
-87.7029
 21
0.373032
  0
LINE
  8
0
 10
-87.7029
 20
0.373032
 11
-87.6447
 21
0.552185
  0
LINE
  8
0
 10
-87.6447
 20
0.552185
 11
-87.5645
 21
0.722626
  0
LINE
  8
0
 10
-87.5645
 20
0.722626
 11
-87.4635
 21
0.881668
  0
LINE
  8
0
 10
-87.4635
 20
0.881668
 11
-87.3434
 21
1.02681
  0
LINE
  8
0
 10
-87.3434
 20
1.02681
 11
-87.2061
 21
1.15576
  0
LINE
  8
0
 10
-87.2061
 20
1.15576
 11
-87.0537
 21
1.26648
  0
LINE
  8
0
 10
-87.0537
 20
1.26648
 11
-86.8887
 21
1.35724
  0
LINE
  8
0
 10
-86.8887
 20
1.35724
 11
-86.7135
 21
1.42657
  0
LINE
  8
0
 10
-86.7135
 20
1.42657
 11
-86.5311
 21
1.47342
  0
LINE
  8
0
 10
-86.5311
 20
1.47342
 11
-86.3442
 21
1.49704
  0
LINE
  8
0
 10
-86.3442
 20
1.49704
 11
-86.1558
 21
1.49704
  0
LINE
  8
0
 10
-86.1558
 20
1.49704
 11
-85.9689
 21
1.47342
  0
LINE
  8
0
 10
-85.9689
 20
1.47342
 11
-85.7865
 21
1.42657
  0
LINE
  8
0
 10
-85.7865
 20
1.42657
 11
-85.6113
 21
1.35724
  0
LINE
  8
0
 10
-85.6113
 20
1.35724
 11
-85.4463
 21
1.26648
  0
LINE
  8
0
 10
-85.4463
 20
1.26648
 11
-85.2939
 21
1.15576
  0
LINE
  8
0
 10
-85.2939
 20
1.15576
 11
-85.1565
 21
1.02681
  0
LINE
  8
0
 10
-85.1565
 20
1.02681
 11
-85.0365
 21
0.881668
  0
LINE
  8
0
 10
-85.0365
 20
0.881668
 11
-84.9355
 21
0.722626
  0
LINE
  8
0
 10
-84.9355
 20
0.722626
 11
-84.8553
 21
0.552185
  0
LINE
  8
0
 10
-84.8553
 20
0.552185
 11
-84.7971
 21
0.373032
  0
LINE
  8
0
 10
-84.7971
 20
0.373032
 11
-84.7618
 21
0.187988
  0
LINE
  8
0
 10
-84.7618
 20
0.187988
 11
-84.75
 21
0
  0
LINE
  8
0
 10
-84.75
 20
0
 11
-84.7618
 21
-0.187988
  0
LINE
  8
0
 10
-84.7618
 20
-0.187988
 11
-84.7971
 21
-0.373032
  0
LINE
  8
0
 10
-84.7971
 20
-0.373032
 11
-84.8553
 21
-0.552185
  0
LINE
  8
0
 10
-84.8553
 20
-0.552185
 11
-84.9355
 21
-0.722626
  0
LINE
  8
0
 10
-84.9355
 20
-0.722626
 11
-85.0365
 21
-0.881668
  0
LINE
  8
0
 10
-85.0365
 20
-0.881668
 11
-85.1565
 21
-1.02681
  0
LINE
  8
0
 10
-85.1565
 20
-1.02681
 11
-85.2939
 21
-1.15576
  0
LINE
  8
0
 10
-85.2939
 20
-1.15576
 11
-85.4463
 21
-1.26648
  0
LINE
  8
0
 10
-85.4463
 20
-1.26648
 11
-85.6113
 21
-1.35724
  0
LINE
  8
0
 10
-85.6113
 20
-1.35724
 11
-85.7865
 21
-1.42657
  0
LINE
  8
0
 10
-85.7865
 20
-1.42657
 11
-85.9689
 21
-1.47342
  0
LINE
  8
0
 10
-85.9689
 20
-1.47342
 11
-86.1558
 21
-1.49704
  0
LINE
  8
0
 10
-86.1558
 20
-1.49704
 11
-86.3442
 21
-1.49704
  0
LINE
  8
0
 10
-93.8442
 20
-1.49704
 11
-94.0311
 21
-1.47342
  0
LINE
  8
0
 10
-94.0311
 20
-1.47342
 11
-94.2135
 21
-1.42657
  0
LINE
  8
0
 10
-94.2135
 20
-1.42657
 11
-94.3887
 21
-1.35724
  0
LINE
  8
0
 10
-94.3887
 20
-1.35724
 11
-94.5537
 21
-1.26648
  0
LINE
  8
0
 10
-94.5537
 20
-1.26648
 11
-94.7061
 21
-1.15576
  0
LINE
  8
0
 10
-94.7061
 20
-1.15576
 11
-94.8434
 21
-1.02681
  0
LINE
  8
0
 10
-94.8434
 20
-1.02681
 11
-94.9635
 21
-0.881668
  0
LINE
  8
0
 10
-94.9635
 20
-0.881668
 11
-95.0645
 21
-0.722626
  0
LINE
  8
0
 10
-95.0645
 20
-0.722626
 11
-95.1447
 21
-0.552185
  0
LINE
  8
0
 10
-95.1447
 20
-0.552185
 11
-95.2029
 21
-0.373032
  0
LINE
  8
0
 10
-95.2029
 20
-0.373032
 11
-95.2382
 21
-0.187988
  0
LINE
  8
0
 10
-95.2382
 20
-0.187988
 11
-95.25
 21
0
  0
LINE
  8
0
 10
-95.25
 20
0
 11
-95.2382
 21
0.187988
  0
LINE
  8
0
 10
-95.2382
 20
0.187988
 11
-95.2029
 21
0.373032
  0
LINE
  8
0
 10
-95.2029
 20
0.373032
 11
-95.1447
 21
0.552185
  0
LINE
  8
0
 10
-95.1447
 20
0.552185
 11
-95.0645
 21
0.722626
  0
LINE
  8
0
 10
-95.0645
 20
0.722626
 11
-94.9635
 21
0.881668
  0
LINE
  8
0
 10
-94.9635
 20
0.881668
 11
-94.8434
 21
1.02681
  0
LINE
  8
0
 10
-94.8434
 20
1.02681
 11
-94.7061
 21
1.15576
  0
LINE
  8
0
 10
-94.7061
 20
1.15576
 11
-94.5537
 21
1.26648
  0
LINE
  8
0
 10
-94.5537
 20
1.26648
 11
-94.3887
 21
1.35724
  0
LINE
  8
0
 10
-94.3887
 20
1.35724
 11
-94.2135
 21
1.42657
  0
LINE
  8
0
 10
-94.2135
 20
1.42657
 11
-94.0311
 21
1.47342
  0
LINE
  8
0
 10
-94.0311
 20
1.47342
 11
-93.8442
 21
1.49704
  0
LINE
  8
0
 10
-93.8442
 20
1.49704
 11
-93.6558
 21
1.49704
  0
LINE
  8
0
 10
-93.6558
 20
1.49704
 11
-93.4689
 21
1.47342
  0
LINE
  8
0
 10
-93.4689
 20
1.47342
 11
-93.2865
 21
1.42657
  0
LINE
  8
0
 10
-93.2865
 20
1.42657
 11
-93.1113
 21
1.35724
  0
LINE
  8
0
 10
-93.1113
 20
1.35724
 11
-92.9463
 21
1.26648
  0
LINE
  8
0
 10
-92.9463
 20
1.26648
 11
-92.7939
 21
1.15576
  0
LINE
  8
0
 10
-92.7939
 20
1.15576
 11
-92.6565
 21
1.02681
  0
LINE
  8
0
 10
-92.6565
 20
1.02681
 11
-92.5365
 21
0.881668
  0
LINE
  8
0
 10
-92.5365
 20
0.881668
 11
-92.4355
 21
0.722626
  0
LINE
  8
0
 10
-92.4355
 20
0.722626
 11
-92.3553
 21
0.552185
  0
LINE
  8
0
 10
-92.3553
 20
0.552185
 11
-92.2971
 21
0.373032
  0
LINE
  8
0
 10
-92.2971
 20
0.373032
 11
-92.2618
 21
0.187988
  0
LINE
  8
0
 10
-92.2618
 20
0.187988
 11
-92.25
 21
0
  0
LINE
  8
0
 10
-92.25
 20
0
 11
-92.2618
 21
-0.187988
  0
LINE
  8
0
 10
-92.2618
 20
-0.187988
 11
-92.2971
 21
-0.373032
  0
LINE
  8
0
 10
-92.2971
 20
-0.373032
 11
-92.3553
 21
-0.552185
  0
LINE
  8
0
 10
-92.3553
 20
-0.552185
 11
-92.4355
 21
-0.722626
  0
LINE
  8
0
 10
-92.4355
 20
-0.722626
 11
-92.5365
 21
-0.881668
  0
LINE
  8
0
 10
-92.5365
 20
-0.881668
 11
-92.6565
 21
-1.02681
  0
LINE
  8
0
 10
-92.6565
 20
-1.02681
 11
-92.7939
 21
-1.15576
  0
LINE
  8
0
 10
-92.7939
 20
-1.15576
 11
-92.9463
 21
-1.26648
  0
LINE
  8
0
 10
-92.9463
 20
-1.26648
 11
-93.1113
 21
-1.35724
  0
LINE
  8
0
 10
-93.1113
 20
-1.35724
 11
-93.2865
 21
-1.42657
  0
LINE
  8
0
 10
-93.2865
 20
-1.42657
 11
-93.4689
 21
-1.47342
  0
LINE
  8
0
 10
-93.4689
 20
-1.47342
 11
-93.6558
 21
-1.49704
  0
LINE
  8
0
 10
-93.6558
 20
-1.49704
 11
-93.8442
 21
-1.49704
  0
LINE
  8
0
 10
-101.344
 20
-1.49704
 11
-101.531
 21
-1.47342
  0
LINE
  8
0
 10
-101.531
 20
-1.47342
 11
-101.714
 21
-1.42657
  0
LINE
  8
0
 10
-101.714
 20
-1.42657
 11
-101.889
 21
-1.35724
  0
LINE
  8
0
 10
-101.889
 20
-1.35724
 11
-102.054
 21
-1.26648
  0
LINE
  8
0
 10
-102.054
 20
-1.26648
 11
-102.206
 21
-1.15576
  0
LINE
  8
0
 10
-102.206
 20
-1.15576
 11
-102.343
 21
-1.02681
  0
LINE
  8
0
 10
-102.343
 20
-1.02681
 11
-102.464
 21
-0.881668
  0
LINE
  8
0
 10
-102.464
 20
-0.881668
 11
-102.564
 21
-0.722626
  0
LINE
  8
0
 10
-102.564
 20
-0.722626
 11
-102.645
 21
-0.552185
  0
LINE
  8
0
 10
-102.645
 20
-0.552185
 11
-102.703
 21
-0.373032
  0
LINE
  8
0
 10
-102.703
 20
-0.373032
 11
-102.738
 21
-0.187988
  0
LINE
  8
0
 10
-102.738
 20
-0.187988
 11
-102.75
 21
0
  0
LINE
  8
0
 10
-102.75
 20
0
 11
-102.738
 21
0.187988
  0
LINE
  8
0
 10
-102.738
 20
0.187988
 11
-102.703
 21
0.373032
  0
LINE
  8
0
 10
-102.703
 20
0.373032
 11
-102.645
 21
0.552185
  0
LINE
  8
0
 10
-102.645
 20
0.552185
 11
-102.564
 21
0.722626
  0
LINE
  8
0
 10
-102.564
 20
0.722626
 11
-102.464
 21
0.881668
  0
LINE
  8
0
 10
-102.464
 20
0.881668
 11
-102.343
 21
1.02681
  0
LINE
  8
0
 10
-102.343
 20
1.02681
 11
-102.206
 21
1.15576
  0
LINE
  8
0
 10
-102.206
 20
1.15576
 11
-102.054
 21
1.26648
  0
LINE
  8
0
 10
-102.054
 20
1.26648
 11
-101.889
 21
1.35724
  0
LINE
  8
0
 10
-101.889
 20
1.35724
 11
-101.714
 21
1.42657
  0
LINE
  8
0
 10
-101.714
 20
1.42657
 11
-101.531
 21
1.47342
  0
LINE
  8
0
 10
-101.531
 20
1.47342
 11
-101.344
 21
1.49704
  0
LINE
  8
0
 10
-101.344
 20
1.49704
 11
-101.156
 21
1.49704
  0
LINE
  8
0
 10
-101.156
 20
1.49704
 11
-100.969
 21
1.47342
  0
LINE
  8
0
 10
-100.969
 20
1.47342
 11
-100.786
 21
1.42657
  0
LINE
  8
0
 10
-100.786
 20
1.42657
 11
-100.611
 21
1.35724
  0
LINE
  8
0
 10
-100.611
 20
1.35724
 11
-100.446
 21
1.26648
  0
LINE
  8
0
 10
-100.446
 20
1.26648
 11
-100.294
 21
1.15576
  0
LINE
  8
0
 10
-100.294
 20
1.15576
 11
-100.157
 21
1.02681
  0
LINE
  8
0
 10
-100.157
 20
1.02681
 11
-100.036
 21
0.881668
  0
LINE
  8
0
 10
-100.036
 20
0.881668
 11
-99.9355
 21
0.722626
  0
LINE
  8
0
 10
-99.9355
 20
0.722626
 11
-99.8553
 21
0.552185
  0
LINE
  8
0
 10
-99.8553
 20
0.552185
 11
-99.7971
 21
0.373032
  0
LINE
  8
0
 10
-99.7971
 20
0.373032
 11
-99.7618
 21
0.187988
  0
LINE
  8
0
 10
-99.7618
 20
0.187988
 11
-99.75
 21
0
  0
LINE
  8
0
 10
-99.75
 20
0
 11
-99.7618
 21
-0.187988
  0
LINE
  8
0
 10
-99.7618
 20
-0.187988
 11
-99.7971
 21
-0.373032
  0
LINE
  8
0
 10
-99.7971
 20
-0.373032
 11
-99.8553
 21
-0.552185
  0
LINE
  8
0
 10
-99.8553
 20
-0.552185
 11
-99.9355
 21
-0.722626
  0
LINE
  8
0
 10
-99.9355
 20
-0.722626
 11
-100.036
 21
-0.881668
  0
LINE
  8
0
 10
-100.036
 20
-0.881668
 11
-100.157
 21
-1.02681
  0
LINE
  8
0
 10
-100.157
 20
-1.02681
 11
-100.294
 21
-1.15576
  0
LINE
  8
0
 10
-100.294
 20
-1.15576
 11
-100.446
 21
-1.26648
  0
LINE
  8
0
 10
-100.446
 20
-1.26648
 11
-100.611
 21
-1.35724
  0
LINE
  8
0
 10
-100.611
 20
-1.35724
 11
-100.786
 21
-1.42657
  0
LINE
  8
0
 10
-100.786
 20
-1.42657
 11
-100.969
 21
-1.47342
  0
LINE
  8
0
 10
-100.969
 20
-1.47342
 11
-101.156
 21
-1.49704
  0
LINE
  8
0
 10
-101.156
 20
-1.49704
 11
-101.344
 21
-1.49704
  0
LINE
  8
0
 10
-78.8442
 20
-1.49704
 11
-79.0311
 21
-1.47342
  0
LINE
  8
0
 10
-79.0311
 20
-1.47342
 11
-79.2135
 21
-1.42657
  0
LINE
  8
0
 10
-79.2135
 20
-1.42657
 11
-79.3887
 21
-1.35724
  0
LINE
  8
0
 10
-79.3887
 20
-1.35724
 11
-79.5537
 21
-1.26648
  0
LINE
  8
0
 10
-79.5537
 20
-1.26648
 11
-79.7061
 21
-1.15576
  0
LINE
  8
0
 10
-79.7061
 20
-1.15576
 11
-79.8434
 21
-1.02681
  0
LINE
  8
0
 10
-79.8434
 20
-1.02681
 11
-79.9635
 21
-0.881668
  0
LINE
  8
0
 10
-79.9635
 20
-0.881668
 11
-80.0645
 21
-0.722626
  0
LINE
  8
0
 10
-80.0645
 20
-0.722626
 11
-80.1447
 21
-0.552185
  0
LINE
  8
0
 10
-80.1447
 20
-0.552185
 11
-80.2029
 21
-0.373032
  0
LINE
  8
0
 10
-80.2029
 20
-0.373032
 11
-80.2382
 21
-0.187988
  0
LINE
  8
0
 10
-80.2382
 20
-0.187988
 11
-80.25
 21
0
  0
LINE
  8
0
 10
-80.25
 20
0
 11
-80.2382
 21
0.187988
  0
LINE
  8
0
 10
-80.2382
 20
0.187988
 11
-80.2029
 21
0.373032
  0
LINE
  8
0
 10
-80.2029
 20
0.373032
 11
-80.1447
 21
0.552185
  0
LINE
  8
0
 10
-80.1447
 20
0.552185
 11
-80.0645
 21
0.722626
  0
LINE
  8
0
 10
-80.0645
 20
0.722626
 11
-79.9635
 21
0.881668
  0
LINE
  8
0
 10
-79.9635
 20
0.881668
 11
-79.8434
 21
1.02681
  0
LINE
  8
0
 10
-79.8434
 20
1.02681
 11
-79.7061
 21
1.15576
  0
LINE
  8
0
 10
-79.7061
 20
1.15576
 11
-79.5537
 21
1.26648
  0
LINE
  8
0
 10
-79.5537
 20
1.26648
 11
-79.3887
 21
1.35724
  0
LINE
  8
0
 10
-79.3887
 20
1.35724
 11
-79.2135
 21
1.42657
  0
LINE
  8
0
 10
-79.2135
 20
1.42657
 11
-79.0311
 21
1.47342
  0
LINE
  8
0
 10
-79.0311
 20
1.47342
 11
-78.8442
 21
1.49704
  0
LINE
  8
0
 10
-78.8442
 20
1.49704
 11
-78.6558
 21
1.49704
  0
LINE
  8
0
 10
-78.6558
 20
1.49704
 11
-78.4689
 21
1.47342
  0
LINE
  8
0
 10
-78.4689
 20
1.47342
 11
-78.2865
 21
1.42657
  0
LINE
  8
0
 10
-78.2865
 20
1.42657
 11
-78.1113
 21
1.35724
  0
LINE
  8
0
 10
-78.1113
 20
1.35724
 11
-77.9463
 21
1.26648
  0
LINE
  8
0
 10
-77.9463
 20
1.26648
 11
-77.7939
 21
1.15576
  0
LINE
  8
0
 10
-77.7939
 20
1.15576
 11
-77.6565
 21
1.02681
  0
LINE
  8
0
 10
-77.6565
 20
1.02681
 11
-77.5365
 21
0.881668
  0
LINE
  8
0
 10
-77.5365
 20
0.881668
 11
-77.4355
 21
0.722626
  0
LINE
  8
0
 10
-77.4355
 20
0.722626
 11
-77.3553
 21
0.552185
  0
LINE
  8
0
 10
-77.3553
 20
0.552185
 11
-77.2971
 21
0.373032
  0
LINE
  8
0
 10
-77.2971
 20
0.373032
 11
-77.2618
 21
0.187988
  0
LINE
  8
0
 10
-77.2618
 20
0.187988
 11
-77.25
 21
0
  0
LINE
  8
0
 10
-77.25
 20
0
 11
-77.2618
 21
-0.187988
  0
LINE
  8
0
 10
-77.2618
 20
-0.187988
 11
-77.2971
 21
-0.373032
  0
LINE
  8
0
 10
-77.2971
 20
-0.373032
 11
-77.3553
 21
-0.552185
  0
LINE
  8
0
 10
-77.3553
 20
-0.552185
 11
-77.4355
 21
-0.722626
  0
LINE
  8
0
 10
-77.4355
 20
-0.722626
 11
-77.5365
 21
-0.881668
  0
LINE
  8
0
 10
-77.5365
 20
-0.881668
 11
-77.6565
 21
-1.02681
  0
LINE
  8
0
 10
-77.6565
 20
-1.02681
 11
-77.7939
 21
-1.15576
  0
LINE
  8
0
 10
-77.7939
 20
-1.15576
 11
-77.9463
 21
-1.26648
  0
LINE
  8
0
 10
-77.9463
 20
-1.26648
 11
-78.1113
 21
-1.35724
  0
LINE
  8
0
 10
-78.1113
 20
-1.35724
 11
-78.2865
 21
-1.42657
  0
LINE
  8
0
 10
-78.2865
 20
-1.42657
 11
-78.4689
 21
-1.47342
  0
LINE
  8
0
 10
-78.4689
 20
-1.47342
 11
-78.6558
 21
-1.49704
  0
LINE
  8
0
 10
-78.6558
 20
-1.49704
 11
-78.8442
 21
-1.49704
  0
LINE
  8
0
 10
-108.844
 20
-1.49704
 11
-109.031
 21
-1.47342
  0
LINE
  8
0
 10
-109.031
 20
-1.47342
 11
-109.214
 21
-1.42657
  0
LINE
  8
0
 10
-109.214
 20
-1.42657
 11
-109.389
 21
-1.35724
  0
LINE
  8
0
 10
-109.389
 20
-1.35724
 11
-109.554
 21
-1.26648
  0
LINE
  8
0
 10
-109.554
 20
-1.26648
 11
-109.706
 21
-1.15576
  0
LINE
  8
0
 10
-109.706
 20
-1.15576
 11
-109.843
 21
-1.02681
  0
LINE
  8
0
 10
-109.843
 20
-1.02681
 11
-109.964
 21
-0.881668
  0
LINE
  8
0
 10
-109.964
 20
-0.881668
 11
-110.064
 21
-0.722626
  0
LINE
  8
0
 10
-110.064
 20
-0.722626
 11
-110.145
 21
-0.552185
  0
LINE
  8
0
 10
-110.145
 20
-0.552185
 11
-110.203
 21
-0.373032
  0
LINE
  8
0
 10
-110.203
 20
-0.373032
 11
-110.238
 21
-0.187988
  0
LINE
  8
0
 10
-110.238
 20
-0.187988
 11
-110.25
 21
0
  0
LINE
  8
0
 10
-110.25
 20
0
 11
-110.238
 21
0.187988
  0
LINE
  8
0
 10
-110.238
 20
0.187988
 11
-110.203
 21
0.373032
  0
LINE
  8
0
 10
-110.203
 20
0.373032
 11
-110.145
 21
0.552185
  0
LINE
  8
0
 10
-110.145
 20
0.552185
 11
-110.064
 21
0.722626
  0
LINE
  8
0
 10
-110.064
 20
0.722626
 11
-109.964
 21
0.881668
  0
LINE
  8
0
 10
-109.964
 20
0.881668
 11
-109.843
 21
1.02681
  0
LINE
  8
0
 10
-109.843
 20
1.02681
 11
-109.706
 21
1.15576
  0
LINE
  8
0
 10
-109.706
 20
1.15576
 11
-109.554
 21
1.26648
  0
LINE
  8
0
 10
-109.554
 20
1.26648
 11
-109.389
 21
1.35724
  0
LINE
  8
0
 10
-109.389
 20
1.35724
 11
-109.214
 21
1.42657
  0
LINE
  8
0
 10
-109.214
 20
1.42657
 11
-109.031
 21
1.47342
  0
LINE
  8
0
 10
-109.031
 20
1.47342
 11
-108.844
 21
1.49704
  0
LINE
  8
0
 10
-108.844
 20
1.49704
 11
-108.656
 21
1.49704
  0
LINE
  8
0
 10
-108.656
 20
1.49704
 11
-108.469
 21
1.47342
  0
LINE
  8
0
 10
-108.469
 20
1.47342
 11
-108.286
 21
1.42657
  0
LINE
  8
0
 10
-108.286
 20
1.42657
 11
-108.111
 21
1.35724
  0
LINE
  8
0
 10
-108.111
 20
1.35724
 11
-107.946
 21
1.26648
  0
LINE
  8
0
 10
-107.946
 20
1.26648
 11
-107.794
 21
1.15576
  0
LINE
  8
0
 10
-107.794
 20
1.15576
 11
-107.657
 21
1.02681
  0
LINE
  8
0
 10
-107.657
 20
1.02681
 11
-107.536
 21
0.881668
  0
LINE
  8
0
 10
-107.536
 20
0.881668
 11
-107.436
 21
0.722626
  0
LINE
  8
0
 10
-107.436
 20
0.722626
 11
-107.355
 21
0.552185
  0
LINE
  8
0
 10
-107.355
 20
0.552185
 11
-107.297
 21
0.373032
  0
LINE
  8
0
 10
-107.297
 20
0.373032
 11
-107.262
 21
0.187988
  0
LINE
  8
0
 10
-107.262
 20
0.187988
 11
-107.25
 21
0
  0
LINE
  8
0
 10
-107.25
 20
0
 11
-107.262
 21
-0.187988
  0
LINE
  8
0
 10
-107.262
 20
-0.187988
 11
-107.297
 21
-0.373032
  0
LINE
  8
0
 10
-107.297
 20
-0.373032
 11
-107.355
 21
-0.552185
  0
LINE
  8
0
 10
-107.355
 20
-0.552185
 11
-107.436
 21
-0.722626
  0
LINE
  8
0
 10
-107.436
 20
-0.722626
 11
-107.536
 21
-0.881668
  0
LINE
  8
0
 10
-107.536
 20
-0.881668
 11
-107.657
 21
-1.02681
  0
LINE
  8
0
 10
-107.657
 20
-1.02681
 11
-107.794
 21
-1.15576
  0
LINE
  8
0
 10
-107.794
 20
-1.15576
 11
-107.946
 21
-1.26648
  0
LINE
  8
0
 10
-107.946
 20
-1.26648
 11
-108.111
 21
-1.35724
  0
LINE
  8
0
 10
-108.111
 20
-1.35724
 11
-108.286
 21
-1.42657
  0
LINE
  8
0
 10
-108.286
 20
-1.42657
 11
-108.469
 21
-1.47342
  0
LINE
  8
0
 10
-108.469
 20
-1.47342
 11
-108.656
 21
-1.49704
  0
LINE
  8
0
 10
-108.656
 20
-1.49704
 11
-108.844
 21
-1.49704
  0
LINE
  8
0
 10
-116.344
 20
-1.49704
 11
-116.531
 21
-1.47342
  0
LINE
  8
0
 10
-116.531
 20
-1.47342
 11
-116.714
 21
-1.42657
  0
LINE
  8
0
 10
-116.714
 20
-1.42657
 11
-116.889
 21
-1.35724
  0
LINE
  8
0
 10
-116.889
 20
-1.35724
 11
-117.054
 21
-1.26648
  0
LINE
  8
0
 10
-117.054
 20
-1.26648
 11
-117.206
 21
-1.15576
  0
LINE
  8
0
 10
-117.206
 20
-1.15576
 11
-117.343
 21
-1.02681
  0
LINE
  8
0
 10
-117.343
 20
-1.02681
 11
-117.464
 21
-0.881668
  0
LINE
  8
0
 10
-117.464
 20
-0.881668
 11
-117.564
 21
-0.722626
  0
LINE
  8
0
 10
-117.564
 20
-0.722626
 11
-117.645
 21
-0.552185
  0
LINE
  8
0
 10
-117.645
 20
-0.552185
 11
-117.703
 21
-0.373032
  0
LINE
  8
0
 10
-117.703
 20
-0.373032
 11
-117.738
 21
-0.187988
  0
LINE
  8
0
 10
-117.738
 20
-0.187988
 11
-117.75
 21
0
  0
LINE
  8
0
 10
-117.75
 20
0
 11
-117.738
 21
0.187988
  0
LINE
  8
0
 10
-117.738
 20
0.187988
 11
-117.703
 21
0.373032
  0
LINE
  8
0
 10
-117.703
 20
0.373032
 11
-117.645
 21
0.552185
  0
LINE
  8
0
 10
-117.645
 20
0.552185
 11
-117.564
 21
0.722626
  0
LINE
  8
0
 10
-117.564
 20
0.722626
 11
-117.464
 21
0.881668
  0
LINE
  8
0
 10
-117.464
 20
0.881668
 11
-117.343
 21
1.02681
  0
LINE
  8
0
 10
-117.343
 20
1.02681
 11
-117.206
 21
1.15576
  0
LINE
  8
0
 10
-117.206
 20
1.15576
 11
-117.054
 21
1.26648
  0
LINE
  8
0
 10
-117.054
 20
1.26648
 11
-116.889
 21
1.35724
  0
LINE
  8
0
 10
-116.889
 20
1.35724
 11
-116.714
 21
1.42657
  0
LINE
  8
0
 10
-116.714
 20
1.42657
 11
-116.531
 21
1.47342
  0
LINE
  8
0
 10
-116.531
 20
1.47342
 11
-116.344
 21
1.49704
  0
LINE
  8
0
 10
-116.344
 20
1.49704
 11
-116.156
 21
1.49704
  0
LINE
  8
0
 10
-116.156
 20
1.49704
 11
-115.969
 21
1.47342
  0
LINE
  8
0
 10
-115.969
 20
1.47342
 11
-115.786
 21
1.42657
  0
LINE
  8
0
 10
-115.786
 20
1.42657
 11
-115.611
 21
1.35724
  0
LINE
  8
0
 10
-115.611
 20
1.35724
 11
-115.446
 21
1.26648
  0
LINE
  8
0
 10
-115.446
 20
1.26648
 11
-115.294
 21
1.15576
  0
LINE
  8
0
 10
-115.294
 20
1.15576
 11
-115.157
 21
1.02681
  0
LINE
  8
0
 10
-115.157
 20
1.02681
 11
-115.036
 21
0.881668
  0
LINE
  8
0
 10
-115.036
 20
0.881668
 11
-114.936
 21
0.722626
  0
LINE
  8
0
 10
-114.936
 20
0.722626
 11
-114.855
 21
0.552185
  0
LINE
  8
0
 10
-114.855
 20
0.552185
 11
-114.797
 21
0.373032
  0
LINE
  8
0
 10
-114.797
 20
0.373032
 11
-114.762
 21
0.187988
  0
LINE
  8
0
 10
-114.762
 20
0.187988
 11
-114.75
 21
0
  0
LINE
  8
0
 10
-114.75
 20
0
 11
-114.762
 21
-0.187988
  0
LINE
  8
0
 10
-114.762
 20
-0.187988
 11
-114.797
 21
-0.373032
  0
LINE
  8
0
 10
-114.797
 20
-0.373032
 11
-114.855
 21
-0.552185
  0
LINE
  8
0
 10
-114.855
 20
-0.552185
 11
-114.936
 21
-0.722626
  0
LINE
  8
0
 10
-114.936
 20
-0.722626
 11
-115.036
 21
-0.881668
  0
LINE
  8
0
 10
-115.036
 20
-0.881668
 11
-115.157
 21
-1.02681
  0
LINE
  8
0
 10
-115.157
 20
-1.02681
 11
-115.294
 21
-1.15576
  0
LINE
  8
0
 10
-115.294
 20
-1.15576
 11
-115.446
 21
-1.26648
  0
LINE
  8
0
 10
-115.446
 20
-1.26648
 11
-115.611
 21
-1.35724
  0
LINE
  8
0
 10
-115.611
 20
-1.35724
 11
-115.786
 21
-1.42657
  0
LINE
  8
0
 10
-115.786
 20
-1.42657
 11
-115.969
 21
-1.47342
  0
LINE
  8
0
 10
-115.969
 20
-1.47342
 11
-116.156
 21
-1.49704
  0
LINE
  8
0
 10
-116.156
 20
-1.49704
 11
-116.344
 21
-1.49704
  0
LINE
  8
0
 10
-123.844
 20
-1.49704
 11
-124.031
 21
-1.47342
  0
LINE
  8
0
 10
-124.031
 20
-1.47342
 11
-124.214
 21
-1.42657
  0
LINE
  8
0
 10
-124.214
 20
-1.42657
 11
-124.389
 21
-1.35724
  0
LINE
  8
0
 10
-124.389
 20
-1.35724
 11
-124.554
 21
-1.26648
  0
LINE
  8
0
 10
-124.554
 20
-1.26648
 11
-124.706
 21
-1.15576
  0
LINE
  8
0
 10
-124.706
 20
-1.15576
 11
-124.843
 21
-1.02681
  0
LINE
  8
0
 10
-124.843
 20
-1.02681
 11
-124.964
 21
-0.881668
  0
LINE
  8
0
 10
-124.964
 20
-0.881668
 11
-125.064
 21
-0.722626
  0
LINE
  8
0
 10
-125.064
 20
-0.722626
 11
-125.145
 21
-0.552185
  0
LINE
  8
0
 10
-125.145
 20
-0.552185
 11
-125.203
 21
-0.373032
  0
LINE
  8
0
 10
-125.203
 20
-0.373032
 11
-125.238
 21
-0.187988
  0
LINE
  8
0
 10
-125.238
 20
-0.187988
 11
-125.25
 21
0
  0
LINE
  8
0
 10
-125.25
 20
0
 11
-125.238
 21
0.187988
  0
LINE
  8
0
 10
-125.238
 20
0.187988
 11
-125.203
 21
0.373032
  0
LINE
  8
0
 10
-125.203
 20
0.373032
 11
-125.145
 21
0.552185
  0
LINE
  8
0
 10
-125.145
 20
0.552185
 11
-125.064
 21
0.722626
  0
LINE
  8
0
 10
-125.064
 20
0.722626
 11
-124.964
 21
0.881668
  0
LINE
  8
0
 10
-124.964
 20
0.881668
 11
-124.843
 21
1.02681
  0
LINE
  8
0
 10
-124.843
 20
1.02681
 11
-124.706
 21
1.15576
  0
LINE
  8
0
 10
-124.706
 20
1.15576
 11
-124.554
 21
1.26648
  0
LINE
  8
0
 10
-124.554
 20
1.26648
 11
-124.389
 21
1.35724
  0
LINE
  8
0
 10
-124.389
 20
1.35724
 11
-124.214
 21
1.42657
  0
LINE
  8
0
 10
-124.214
 20
1.42657
 11
-124.031
 21
1.47342
  0
LINE
  8
0
 10
-124.031
 20
1.47342
 11
-123.844
 21
1.49704
  0
LINE
  8
0
 10
-123.844
 20
1.49704
 11
-123.656
 21
1.49704
  0
LINE
  8
0
 10
-123.656
 20
1.49704
 11
-123.469
 21
1.47342
  0
LINE
  8
0
 10
-123.469
 20
1.47342
 11
-123.286
 21
1.42657
  0
LINE
  8
0
 10
-123.286
 20
1.42657
 11
-123.111
 21
1.35724
  0
LINE
  8
0
 10
-123.111
 20
1.35724
 11
-122.946
 21
1.26648
  0
LINE
  8
0
 10
-122.946
 20
1.26648
 11
-122.794
 21
1.15576
  0
LINE
  8
0
 10
-122.794
 20
1.15576
 11
-122.657
 21
1.02681
  0
LINE
  8
0
 10
-122.657
 20
1.02681
 11
-122.536
 21
0.881668
  0
LINE
  8
0
 10
-122.536
 20
0.881668
 11
-122.436
 21
0.722626
  0
LINE
  8
0
 10
-122.436
 20
0.722626
 11
-122.355
 21
0.552185
  0
LINE
  8
0
 10
-122.355
 20
0.552185
 11
-122.297
 21
0.373032
  0
LINE
  8
0
 10
-122.297
 20
0.373032
 11
-122.262
 21
0.187988
  0
LINE
  8
0
 10
-122.262
 20
0.187988
 11
-122.25
 21
0
  0
LINE
  8
0
 10
-122.25
 20
0
 11
-122.262
 21
-0.187988
  0
LINE
  8
0
 10
-122.262
 20
-0.187988
 11
-122.297
 21
-0.373032
  0
LINE
  8
0
 10
-122.297
 20
-0.373032
 11
-122.355
 21
-0.552185
  0
LINE
  8
0
 10
-122.355
 20
-0.552185
 11
-122.436
 21
-0.722626
  0
LINE
  8
0
 10
-122.436
 20
-0.722626
 11
-122.536
 21
-0.881668
  0
LINE
  8
0
 10
-122.536
 20
-0.881668
 11
-122.657
 21
-1.02681
  0
LINE
  8
0
 10
-122.657
 20
-1.02681
 11
-122.794
 21
-1.15576
  0
LINE
  8
0
 10
-122.794
 20
-1.15576
 11
-122.946
 21
-1.26648
  0
LINE
  8
0
 10
-122.946
 20
-1.26648
 11
-123.111
 21
-1.35724
  0
LINE
  8
0
 10
-123.111
 20
-1.35724
 11
-123.286
 21
-1.42657
  0
LINE
  8
0
 10
-123.286
 20
-1.42657
 11
-123.469
 21
-1.47342
  0
LINE
  8
0
 10
-123.469
 20
-1.47342
 11
-123.656
 21
-1.49704
  0
LINE
  8
0
 10
-123.656
 20
-1.49704
 11
-123.844
 21
-1.49704
  0
LINE
  8
0
 10
48.6558
 20
-1.49704
 11
48.4689
 21
-1.47342
  0
LINE
  8
0
 10
48.4689
 20
-1.47342
 11
48.2865
 21
-1.42657
  0
LINE
  8
0
 10
48.2865
 20
-1.42657
 11
48.1113
 21
-1.35724
  0
LINE
  8
0
 10
48.1113
 20
-1.35724
 11
47.9463
 21
-1.26648
  0
LINE
  8
0
 10
47.9463
 20
-1.26648
 11
47.7939
 21
-1.15576
  0
LINE
  8
0
 10
47.7939
 20
-1.15576
 11
47.6565
 21
-1.02681
  0
LINE
  8
0
 10
47.6565
 20
-1.02681
 11
47.5365
 21
-0.881668
  0
LINE
  8
0
 10
47.5365
 20
-0.881668
 11
47.4355
 21
-0.722626
  0
LINE
  8
0
 10
47.4355
 20
-0.722626
 11
47.3553
 21
-0.552185
  0
LINE
  8
0
 10
47.3553
 20
-0.552185
 11
47.2971
 21
-0.373032
  0
LINE
  8
0
 10
47.2971
 20
-0.373032
 11
47.2618
 21
-0.187988
  0
LINE
  8
0
 10
47.2618
 20
-0.187988
 11
47.25
 21
0
  0
LINE
  8
0
 10
47.25
 20
0
 11
47.2618
 21
0.187988
  0
LINE
  8
0
 10
47.2618
 20
0.187988
 11
47.2971
 21
0.373032
  0
LINE
  8
0
 10
47.2971
 20
0.373032
 11
47.3553
 21
0.552185
  0
LINE
  8
0
 10
47.3553
 20
0.552185
 11
47.4355
 21
0.722626
  0
LINE
  8
0
 10
47.4355
 20
0.722626
 11
47.5365
 21
0.881668
  0
LINE
  8
0
 10
47.5365
 20
0.881668
 11
47.6565
 21
1.02681
  0
LINE
  8
0
 10
47.6565
 20
1.02681
 11
47.7939
 21
1.15576
  0
LINE
  8
0
 10
47.7939
 20
1.15576
 11
47.9463
 21
1.26648
  0
LINE
  8
0
 10
47.9463
 20
1.26648
 11
48.1113
 21
1.35724
  0
LINE
  8
0
 10
48.1113
 20
1.35724
 11
48.2865
 21
1.42657
  0
LINE
  8
0
 10
48.2865
 20
1.42657
 11
48.4689
 21
1.47342
  0
LINE
  8
0
 10
48.4689
 20
1.47342
 11
48.6558
 21
1.49704
  0
LINE
  8
0
 10
48.6558
 20
1.49704
 11
48.8442
 21
1.49704
  0
LINE
  8
0
 10
48.8442
 20
1.49704
 11
49.0311
 21
1.47342
  0
LINE
  8
0
 10
49.0311
 20
1.47342
 11
49.2135
 21
1.42657
  0
LINE
  8
0
 10
49.2135
 20
1.42657
 11
49.3887
 21
1.35724
  0
LINE
  8
0
 10
49.3887
 20
1.35724
 11
49.5537
 21
1.26648
  0
LINE
  8
0
 10
49.5537
 20
1.26648
 11
49.7061
 21
1.15576
  0
LINE
  8
0
 10
49.7061
 20
1.15576
 11
49.8434
 21
1.02681
  0
LINE
  8
0
 10
49.8434
 20
1.02681
 11
49.9635
 21
0.881668
  0
LINE
  8
0
 10
49.9635
 20
0.881668
 11
50.0645
 21
0.722626
  0
LINE
  8
0
 10
50.0645
 20
0.722626
 11
50.1447
 21
0.552185
  0
LINE
  8
0
 10
50.1447
 20
0.552185
 11
50.2029
 21
0.373032
  0
LINE
  8
0
 10
50.2029
 20
0.373032
 11
50.2382
 21
0.187988
  0
LINE
  8
0
 10
50.2382
 20
0.187988
 11
50.25
 21
0
  0
LINE
  8
0
 10
50.25
 20
0
 11
50.2382
 21
-0.187988
  0
LINE
  8
0
 10
50.2382
 20
-0.187988
 11
50.2029
 21
-0.373032
  0
LINE
  8
0
 10
50.2029
 20
-0.373032
 11
50.1447
 21
-0.552185
  0
LINE
  8
0
 10
50.1447
 20
-0.552185
 11
50.0645
 21
-0.722626
  0
LINE
  8
0
 10
50.0645
 20
-0.722626
 11
49.9635
 21
-0.881668
  0
LINE
  8
0
 10
49.9635
 20
-0.881668
 11
49.8434
 21
-1.02681
  0
LINE
  8
0
 10
49.8434
 20
-1.02681
 11
49.7061
 21
-1.15576
  0
LINE
  8
0
 10
49.7061
 20
-1.15576
 11
49.5537
 21
-1.26648
  0
LINE
  8
0
 10
49.5537
 20
-1.26648
 11
49.3887
 21
-1.35724
  0
LINE
  8
0
 10
49.3887
 20
-1.35724
 11
49.2135
 21
-1.42657
  0
LINE
  8
0
 10
49.2135
 20
-1.42657
 11
49.0311
 21
-1.47342
  0
LINE
  8
0
 10
49.0311
 20
-1.47342
 11
48.8442
 21
-1.49704
  0
LINE
  8
0
 10
48.8442
 20
-1.49704
 11
48.6558
 21
-1.49704
  0
LINE
  8
0
 10
-48.8442
 20
-1.49704
 11
-49.0311
 21
-1.47342
  0
LINE
  8
0
 10
-49.0311
 20
-1.47342
 11
-49.2135
 21
-1.42657
  0
LINE
  8
0
 10
-49.2135
 20
-1.42657
 11
-49.3887
 21
-1.35724
  0
LINE
  8
0
 10
-49.3887
 20
-1.35724
 11
-49.5537
 21
-1.26648
  0
LINE
  8
0
 10
-49.5537
 20
-1.26648
 11
-49.7061
 21
-1.15576
  0
LINE
  8
0
 10
-49.7061
 20
-1.15576
 11
-49.8434
 21
-1.02681
  0
LINE
  8
0
 10
-49.8434
 20
-1.02681
 11
-49.9635
 21
-0.881668
  0
LINE
  8
0
 10
-49.9635
 20
-0.881668
 11
-50.0645
 21
-0.722626
  0
LINE
  8
0
 10
-50.0645
 20
-0.722626
 11
-50.1447
 21
-0.552185
  0
LINE
  8
0
 10
-50.1447
 20
-0.552185
 11
-50.2029
 21
-0.373032
  0
LINE
  8
0
 10
-50.2029
 20
-0.373032
 11
-50.2382
 21
-0.187988
  0
LINE
  8
0
 10
-50.2382
 20
-0.187988
 11
-50.25
 21
0
  0
LINE
  8
0
 10
-50.25
 20
0
 11
-50.2382
 21
0.187988
  0
LINE
  8
0
 10
-50.2382
 20
0.187988
 11
-50.2029
 21
0.373032
  0
LINE
  8
0
 10
-50.2029
 20
0.373032
 11
-50.1447
 21
0.552185
  0
LINE
  8
0
 10
-50.1447
 20
0.552185
 11
-50.0645
 21
0.722626
  0
LINE
  8
0
 10
-50.0645
 20
0.722626
 11
-49.9635
 21
0.881668
  0
LINE
  8
0
 10
-49.9635
 20
0.881668
 11
-49.8434
 21
1.02681
  0
LINE
  8
0
 10
-49.8434
 20
1.02681
 11
-49.7061
 21
1.15576
  0
LINE
  8
0
 10
-49.7061
 20
1.15576
 11
-49.5537
 21
1.26648
  0
LINE
  8
0
 10
-49.5537
 20
1.26648
 11
-49.3887
 21
1.35724
  0
LINE
  8
0
 10
-49.3887
 20
1.35724
 11
-49.2135
 21
1.42657
  0
LINE
  8
0
 10
-49.2135
 20
1.42657
 11
-49.0311
 21
1.47342
  0
LINE
  8
0
 10
-49.0311
 20
1.47342
 11
-48.8442
 21
1.49704
  0
LINE
  8
0
 10
-48.8442
 20
1.49704
 11
-48.6558
 21
1.49704
  0
LINE
  8
0
 10
-48.6558
 20
1.49704
 11
-48.4689
 21
1.47342
  0
LINE
  8
0
 10
-48.4689
 20
1.47342
 11
-48.2865
 21
1.42657
  0
LINE
  8
0
 10
-48.2865
 20
1.42657
 11
-48.1113
 21
1.35724
  0
LINE
  8
0
 10
-48.1113
 20
1.35724
 11
-47.9463
 21
1.26648
  0
LINE
  8
0
 10
-47.9463
 20
1.26648
 11
-47.7939
 21
1.15576
  0
LINE
  8
0
 10
-47.7939
 20
1.15576
 11
-47.6565
 21
1.02681
  0
LINE
  8
0
 10
-47.6565
 20
1.02681
 11
-47.5365
 21
0.881668
  0
LINE
  8
0
 10
-47.5365
 20
0.881668
 11
-47.4355
 21
0.722626
  0
LINE
  8
0
 10
-47.4355
 20
0.722626
 11
-47.3553
 21
0.552185
  0
LINE
  8
0
 10
-47.3553
 20
0.552185
 11
-47.2971
 21
0.373032
  0
LINE
  8
0
 10
-47.2971
 20
0.373032
 11
-47.2618
 21
0.187988
  0
LINE
  8
0
 10
-47.2618
 20
0.187988
 11
-47.25
 21
0
  0
LINE
  8
0
 10
-47.25
 20
0
 11
-47.2618
 21
-0.187988
  0
LINE
  8
0
 10
-47.2618
 20
-0.187988
 11
-47.2971
 21
-0.373032
  0
LINE
  8
0
 10
-47.2971
 20
-0.373032
 11
-47.3553
 21
-0.552185
  0
LINE
  8
0
 10
-47.3553
 20
-0.552185
 11
-47.4355
 21
-0.722626
  0
LINE
  8
0
 10
-47.4355
 20
-0.722626
 11
-47.5365
 21
-0.881668
  0
LINE
  8
0
 10
-47.5365
 20
-0.881668
 11
-47.6565
 21
-1.02681
  0
LINE
  8
0
 10
-47.6565
 20
-1.02681
 11
-47.7939
 21
-1.15576
  0
LINE
  8
0
 10
-47.7939
 20
-1.15576
 11
-47.9463
 21
-1.26648
  0
LINE
  8
0
 10
-47.9463
 20
-1.26648
 11
-48.1113
 21
-1.35724
  0
LINE
  8
0
 10
-48.1113
 20
-1.35724
 11
-48.2865
 21
-1.42657
  0
LINE
  8
0
 10
-48.2865
 20
-1.42657
 11
-48.4689
 21
-1.47342
  0
LINE
  8
0
 10
-48.4689
 20
-1.47342
 11
-48.6558
 21
-1.49704
  0
LINE
  8
0
 10
-48.6558
 20
-1.49704
 11
-48.8442
 21
-1.49704
  0
LINE
  8
0
 10
-71.3442
 20
-1.49704
 11
-71.5311
 21
-1.47342
  0
LINE
  8
0
 10
-71.5311
 20
-1.47342
 11
-71.7135
 21
-1.42657
  0
LINE
  8
0
 10
-71.7135
 20
-1.42657
 11
-71.8887
 21
-1.35724
  0
LINE
  8
0
 10
-71.8887
 20
-1.35724
 11
-72.0537
 21
-1.26648
  0
LINE
  8
0
 10
-72.0537
 20
-1.26648
 11
-72.2061
 21
-1.15576
  0
LINE
  8
0
 10
-72.2061
 20
-1.15576
 11
-72.3434
 21
-1.02681
  0
LINE
  8
0
 10
-72.3434
 20
-1.02681
 11
-72.4635
 21
-0.881668
  0
LINE
  8
0
 10
-72.4635
 20
-0.881668
 11
-72.5645
 21
-0.722626
  0
LINE
  8
0
 10
-72.5645
 20
-0.722626
 11
-72.6447
 21
-0.552185
  0
LINE
  8
0
 10
-72.6447
 20
-0.552185
 11
-72.7029
 21
-0.373032
  0
LINE
  8
0
 10
-72.7029
 20
-0.373032
 11
-72.7382
 21
-0.187988
  0
LINE
  8
0
 10
-72.7382
 20
-0.187988
 11
-72.75
 21
0
  0
LINE
  8
0
 10
-72.75
 20
0
 11
-72.7382
 21
0.187988
  0
LINE
  8
0
 10
-72.7382
 20
0.187988
 11
-72.7029
 21
0.373032
  0
LINE
  8
0
 10
-72.7029
 20
0.373032
 11
-72.6447
 21
0.552185
  0
LINE
  8
0
 10
-72.6447
 20
0.552185
 11
-72.5645
 21
0.722626
  0
LINE
  8
0
 10
-72.5645
 20
0.722626
 11
-72.4635
 21
0.881668
  0
LINE
  8
0
 10
-72.4635
 20
0.881668
 11
-72.3434
 21
1.02681
  0
LINE
  8
0
 10
-72.3434
 20
1.02681
 11
-72.2061
 21
1.15576
  0
LINE
  8
0
 10
-72.2061
 20
1.15576
 11
-72.0537
 21
1.26648
  0
LINE
  8
0
 10
-72.0537
 20
1.26648
 11
-71.8887
 21
1.35724
  0
LINE
  8
0
 10
-71.8887
 20
1.35724
 11
-71.7135
 21
1.42657
  0
LINE
  8
0
 10
-71.7135
 20
1.42657
 11
-71.5311
 21
1.47342
  0
LINE
  8
0
 10
-71.5311
 20
1.47342
 11
-71.3442
 21
1.49704
  0
LINE
  8
0
 10
-71.3442
 20
1.49704
 11
-71.1558
 21
1.49704
  0
LINE
  8
0
 10
-71.1558
 20
1.49704
 11
-70.9689
 21
1.47342
  0
LINE
  8
0
 10
-70.9689
 20
1.47342
 11
-70.7865
 21
1.42657
  0
LINE
  8
0
 10
-70.7865
 20
1.42657
 11
-70.6113
 21
1.35724
  0
LINE
  8
0
 10
-70.6113
 20
1.35724
 11
-70.4463
 21
1.26648
  0
LINE
  8
0
 10
-70.4463
 20
1.26648
 11
-70.2939
 21
1.15576
  0
LINE
  8
0
 10
-70.2939
 20
1.15576
 11
-70.1565
 21
1.02681
  0
LINE
  8
0
 10
-70.1565
 20
1.02681
 11
-70.0365
 21
0.881668
  0
LINE
  8
0
 10
-70.0365
 20
0.881668
 11
-69.9355
 21
0.722626
  0
LINE
  8
0
 10
-69.9355
 20
0.722626
 11
-69.8553
 21
0.552185
  0
LINE
  8
0
 10
-69.8553
 20
0.552185
 11
-69.7971
 21
0.373032
  0
LINE
  8
0
 10
-69.7971
 20
0.373032
 11
-69.7618
 21
0.187988
  0
LINE
  8
0
 10
-69.7618
 20
0.187988
 11
-69.75
 21
0
  0
LINE
  8
0
 10
-69.75
 20
0
 11
-69.7618
 21
-0.187988
  0
LINE
  8
0
 10
-69.7618
 20
-0.187988
 11
-69.7971
 21
-0.373032
  0
LINE
  8
0
 10
-69.7971
 20
-0.373032
 11
-69.8553
 21
-0.552185
  0
LINE
  8
0
 10
-69.8553
 20
-0.552185
 11
-69.9355
 21
-0.722626
  0
LINE
  8
0
 10
-69.9355
 20
-0.722626
 11
-70.0365
 21
-0.881668
  0
LINE
  8
0
 10
-70.0365
 20
-0.881668
 11
-70.1565
 21
-1.02681
  0
LINE
  8
0
 10
-70.1565
 20
-1.02681
 11
-70.2939
 21
-1.15576
  0
LINE
  8
0
 10
-70.2939
 20
-1.15576
 11
-70.4463
 21
-1.26648
  0
LINE
  8
0
 10
-70.4463
 20
-1.26648
 11
-70.6113
 21
-1.35724
  0
LINE
  8
0
 10
-70.6113
 20
-1.35724
 11
-70.7865
 21
-1.42657
  0
LINE
  8
0
 10
-70.7865
 20
-1.42657
 11
-70.9689
 21
-1.47342
  0
LINE
  8
0
 10
-70.9689
 20
-1.47342
 11
-71.1558
 21
-1.49704
  0
LINE
  8
0
 10
-71.1558
 20
-1.49704
 11
-71.3442
 21
-1.49704
  0
LINE
  8
0
 10
78.6558
 20
-1.49704
 11
78.4689
 21
-1.47342
  0
LINE
  8
0
 10
78.4689
 20
-1.47342
 11
78.2865
 21
-1.42657
  0
LINE
  8
0
 10
78.2865
 20
-1.42657
 11
78.1113
 21
-1.35724
  0
LINE
  8
0
 10
78.1113
 20
-1.35724
 11
77.9463
 21
-1.26648
  0
LINE
  8
0
 10
77.9463
 20
-1.26648
 11
77.7939
 21
-1.15576
  0
LINE
  8
0
 10
77.7939
 20
-1.15576
 11
77.6565
 21
-1.02681
  0
LINE
  8
0
 10
77.6565
 20
-1.02681
 11
77.5365
 21
-0.881668
  0
LINE
  8
0
 10
77.5365
 20
-0.881668
 11
77.4355
 21
-0.722626
  0
LINE
  8
0
 10
77.4355
 20
-0.722626
 11
77.3553
 21
-0.552185
  0
LINE
  8
0
 10
77.3553
 20
-0.552185
 11
77.2971
 21
-0.373032
  0
LINE
  8
0
 10
77.2971
 20
-0.373032
 11
77.2618
 21
-0.187988
  0
LINE
  8
0
 10
77.2618
 20
-0.187988
 11
77.25
 21
0
  0
LINE
  8
0
 10
77.25
 20
0
 11
77.2618
 21
0.187988
  0
LINE
  8
0
 10
77.2618
 20
0.187988
 11
77.2971
 21
0.373032
  0
LINE
  8
0
 10
77.2971
 20
0.373032
 11
77.3553
 21
0.552185
  0
LINE
  8
0
 10
77.3553
 20
0.552185
 11
77.4355
 21
0.722626
  0
LINE
  8
0
 10
77.4355
 20
0.722626
 11
77.5365
 21
0.881668
  0
LINE
  8
0
 10
77.5365
 20
0.881668
 11
77.6565
 21
1.02681
  0
LINE
  8
0
 10
77.6565
 20
1.02681
 11
77.7939
 21
1.15576
  0
LINE
  8
0
 10
77.7939
 20
1.15576
 11
77.9463
 21
1.26648
  0
LINE
  8
0
 10
77.9463
 20
1.26648
 11
78.1113
 21
1.35724
  0
LINE
  8
0
 10
78.1113
 20
1.35724
 11
78.2865
 21
1.42657
  0
LINE
  8
0
 10
78.2865
 20
1.42657
 11
78.4689
 21
1.47342
  0
LINE
  8
0
 10
78.4689
 20
1.47342
 11
78.6558
 21
1.49704
  0
LINE
  8
0
 10
78.6558
 20
1.49704
 11
78.8442
 21
1.49704
  0
LINE
  8
0
 10
78.8442
 20
1.49704
 11
79.0311
 21
1.47342
  0
LINE
  8
0
 10
79.0311
 20
1.47342
 11
79.2135
 21
1.42657
  0
LINE
  8
0
 10
79.2135
 20
1.42657
 11
79.3887
 21
1.35724
  0
LINE
  8
0
 10
79.3887
 20
1.35724
 11
79.5537
 21
1.26648
  0
LINE
  8
0
 10
79.5537
 20
1.26648
 11
79.7061
 21
1.15576
  0
LINE
  8
0
 10
79.7061
 20
1.15576
 11
79.8434
 21
1.02681
  0
LINE
  8
0
 10
79.8434
 20
1.02681
 11
79.9635
 21
0.881668
  0
LINE
  8
0
 10
79.9635
 20
0.881668
 11
80.0645
 21
0.722626
  0
LINE
  8
0
 10
80.0645
 20
0.722626
 11
80.1447
 21
0.552185
  0
LINE
  8
0
 10
80.1447
 20
0.552185
 11
80.2029
 21
0.373032
  0
LINE
  8
0
 10
80.2029
 20
0.373032
 11
80.2382
 21
0.187988
  0
LINE
  8
0
 10
80.2382
 20
0.187988
 11
80.25
 21
0
  0
LINE
  8
0
 10
80.25
 20
0
 11
80.2382
 21
-0.187988
  0
LINE
  8
0
 10
80.2382
 20
-0.187988
 11
80.2029
 21
-0.373032
  0
LINE
  8
0
 10
80.2029
 20
-0.373032
 11
80.1447
 21
-0.552185
  0
LINE
  8
0
 10
80.1447
 20
-0.552185
 11
80.0645
 21
-0.722626
  0
LINE
  8
0
 10
80.0645
 20
-0.722626
 11
79.9635
 21
-0.881668
  0
LINE
  8
0
 10
79.9635
 20
-0.881668
 11
79.8434
 21
-1.02681
  0
LINE
  8
0
 10
79.8434
 20
-1.02681
 11
79.7061
 21
-1.15576
  0
LINE
  8
0
 10
79.7061
 20
-1.15576
 11
79.5537
 21
-1.26648
  0
LINE
  8
0
 10
79.5537
 20
-1.26648
 11
79.3887
 21
-1.35724
  0
LINE
  8
0
 10
79.3887
 20
-1.35724
 11
79.2135
 21
-1.42657
  0
LINE
  8
0
 10
79.2135
 20
-1.42657
 11
79.0311
 21
-1.47342
  0
LINE
  8
0
 10
79.0311
 20
-1.47342
 11
78.8442
 21
-1.49704
  0
LINE
  8
0
 10
78.8442
 20
-1.49704
 11
78.6558
 21
-1.49704
  0
LINE
  8
0
 10
116.156
 20
-1.49704
 11
115.969
 21
-1.47342
  0
LINE
  8
0
 10
115.969
 20
-1.47342
 11
115.786
 21
-1.42657
  0
LINE
  8
0
 10
115.786
 20
-1.42657
 11
115.611
 21
-1.35724
  0
LINE
  8
0
 10
115.611
 20
-1.35724
 11
115.446
 21
-1.26648
  0
LINE
  8
0
 10
115.446
 20
-1.26648
 11
115.294
 21
-1.15576
  0
LINE
  8
0
 10
115.294
 20
-1.15576
 11
115.157
 21
-1.02681
  0
LINE
  8
0
 10
115.157
 20
-1.02681
 11
115.036
 21
-0.881668
  0
LINE
  8
0
 10
115.036
 20
-0.881668
 11
114.936
 21
-0.722626
  0
LINE
  8
0
 10
114.936
 20
-0.722626
 11
114.855
 21
-0.552185
  0
LINE
  8
0
 10
114.855
 20
-0.552185
 11
114.797
 21
-0.373032
  0
LINE
  8
0
 10
114.797
 20
-0.373032
 11
114.762
 21
-0.187988
  0
LINE
  8
0
 10
114.762
 20
-0.187988
 11
114.75
 21
0
  0
LINE
  8
0
 10
114.75
 20
0
 11
114.762
 21
0.187988
  0
LINE
  8
0
 10
114.762
 20
0.187988
 11
114.797
 21
0.373032
  0
LINE
  8
0
 10
114.797
 20
0.373032
 11
114.855
 21
0.552185
  0
LINE
  8
0
 10
114.855
 20
0.552185
 11
114.936
 21
0.722626
  0
LINE
  8
0
 10
114.936
 20
0.722626
 11
115.036
 21
0.881668
  0
LINE
  8
0
 10
115.036
 20
0.881668
 11
115.157
 21
1.02681
  0
LINE
  8
0
 10
115.157
 20
1.02681
 11
115.294
 21
1.15576
  0
LINE
  8
0
 10
115.294
 20
1.15576
 11
115.446
 21
1.26648
  0
LINE
  8
0
 10
115.446
 20
1.26648
 11
115.611
 21
1.35724
  0
LINE
  8
0
 10
115.611
 20
1.35724
 11
115.786
 21
1.42657
  0
LINE
  8
0
 10
115.786
 20
1.42657
 11
115.969
 21
1.47342
  0
LINE
  8
0
 10
115.969
 20
1.47342
 11
116.156
 21
1.49704
  0
LINE
  8
0
 10
116.156
 20
1.49704
 11
116.344
 21
1.49704
  0
LINE
  8
0
 10
116.344
 20
1.49704
 11
116.531
 21
1.47342
  0
LINE
  8
0
 10
116.531
 20
1.47342
 11
116.714
 21
1.42657
  0
LINE
  8
0
 10
116.714
 20
1.42657
 11
116.889
 21
1.35724
  0
LINE
  8
0
 10
116.889
 20
1.35724
 11
117.054
 21
1.26648
  0
LINE
  8
0
 10
117.054
 20
1.26648
 11
117.206
 21
1.15576
  0
LINE
  8
0
 10
117.206
 20
1.15576
 11
117.343
 21
1.02681
  0
LINE
  8
0
 10
117.343
 20
1.02681
 11
117.464
 21
0.881668
  0
LINE
  8
0
 10
117.464
 20
0.881668
 11
117.564
 21
0.722626
  0
LINE
  8
0
 10
117.564
 20
0.722626
 11
117.645
 21
0.552185
  0
LINE
  8
0
 10
117.645
 20
0.552185
 11
117.703
 21
0.373032
  0
LINE
  8
0
 10
117.703
 20
0.373032
 11
117.738
 21
0.187988
  0
LINE
  8
0
 10
117.738
 20
0.187988
 11
117.75
 21
0
  0
LINE
  8
0
 10
117.75
 20
0
 11
117.738
 21
-0.187988
  0
LINE
  8
0
 10
117.738
 20
-0.187988
 11
117.703
 21
-0.373032
  0
LINE
  8
0
 10
117.703
 20
-0.373032
 11
117.645
 21
-0.552185
  0
LINE
  8
0
 10
117.645
 20
-0.552185
 11
117.564
 21
-0.722626
  0
LINE
  8
0
 10
117.564
 20
-0.722626
 11
117.464
 21
-0.881668
  0
LINE
  8
0
 10
117.464
 20
-0.881668
 11
117.343
 21
-1.02681
  0
LINE
  8
0
 10
117.343
 20
-1.02681
 11
117.206
 21
-1.15576
  0
LINE
  8
0
 10
117.206
 20
-1.15576
 11
117.054
 21
-1.26648
  0
LINE
  8
0
 10
117.054
 20
-1.26648
 11
116.889
 21
-1.35724
  0
LINE
  8
0
 10
116.889
 20
-1.35724
 11
116.714
 21
-1.42657
  0
LINE
  8
0
 10
116.714
 20
-1.42657
 11
116.531
 21
-1.47342
  0
LINE
  8
0
 10
116.531
 20
-1.47342
 11
116.344
 21
-1.49704
  0
LINE
  8
0
 10
116.344
 20
-1.49704
 11
116.156
 21
-1.49704
  0
LINE
  8
0
 10
86.5311
 20
1.47342
 11
86.7135
 21
1.42657
  0
LINE
  8
0
 10
86.7135
 20
1.42657
 11
86.8887
 21
1.35724
  0
LINE
  8
0
 10
86.8887
 20
1.35724
 11
87.0537
 21
1.26648
  0
LINE
  8
0
 10
87.0537
 20
1.26648
 11
87.2061
 21
1.15576
  0
LINE
  8
0
 10
87.2061
 20
1.15576
 11
87.3434
 21
1.02681
  0
LINE
  8
0
 10
87.3434
 20
1.02681
 11
87.4635
 21
0.881668
  0
LINE
  8
0
 10
87.4635
 20
0.881668
 11
87.5645
 21
0.722626
  0
LINE
  8
0
 10
87.5645
 20
0.722626
 11
87.6447
 21
0.552185
  0
LINE
  8
0
 10
87.6447
 20
0.552185
 11
87.7029
 21
0.373032
  0
LINE
  8
0
 10
87.7029
 20
0.373032
 11
87.7382
 21
0.187988
  0
LINE
  8
0
 10
87.7382
 20
0.187988
 11
87.75
 21
0
  0
LINE
  8
0
 10
87.75
 20
0
 11
87.7382
 21
-0.187988
  0
LINE
  8
0
 10
87.7382
 20
-0.187988
 11
87.7029
 21
-0.373032
  0
LINE
  8
0
 10
87.7029
 20
-0.373032
 11
87.6447
 21
-0.552185
  0
LINE
  8
0
 10
87.6447
 20
-0.552185
 11
87.5645
 21
-0.722626
  0
LINE
  8
0
 10
87.5645
 20
-0.722626
 11
87.4635
 21
-0.881668
  0
LINE
  8
0
 10
87.4635
 20
-0.881668
 11
87.3434
 21
-1.02681
  0
LINE
  8
0
 10
87.3434
 20
-1.02681
 11
87.2061
 21
-1.15576
  0
LINE
  8
0
 10
87.2061
 20
-1.15576
 11
87.0537
 21
-1.26648
  0
LINE
  8
0
 10
87.0537
 20
-1.26648
 11
86.8887
 21
-1.35724
  0
LINE
  8
0
 10
86.8887
 20
-1.35724
 11
86.7135
 21
-1.42657
  0
LINE
  8
0
 10
86.7135
 20
-1.42657
 11
86.5311
 21
-1.47342
  0
LINE
  8
0
 10
86.5311
 20
-1.47342
 11
86.3442
 21
-1.49704
  0
LINE
  8
0
 10
86.3442
 20
-1.49704
 11
86.1558
 21
-1.49704
  0
LINE
  8
0
 10
86.1558
 20
-1.49704
 11
85.9689
 21
-1.47342
  0
LINE
  8
0
 10
85.9689
 20
-1.47342
 11
85.7865
 21
-1.42657
  0
LINE
  8
0
 10
85.7865
 20
-1.42657
 11
85.6113
 21
-1.35724
  0
LINE
  8
0
 10
85.6113
 20
-1.35724
 11
85.4463
 21
-1.26648
  0
LINE
  8
0
 10
85.4463
 20
-1.26648
 11
85.2939
 21
-1.15576
  0
LINE
  8
0
 10
85.2939
 20
-1.15576
 11
85.1565
 21
-1.02681
  0
LINE
  8
0
 10
85.1565
 20
-1.02681
 11
85.0365
 21
-0.881668
  0
LINE
  8
0
 10
85.0365
 20
-0.881668
 11
84.9355
 21
-0.722626
  0
LINE
  8
0
 10
84.9355
 20
-0.722626
 11
84.8553
 21
-0.552185
  0
LINE
  8
0
 10
84.8553
 20
-0.552185
 11
84.7971
 21
-0.373032
  0
LINE
  8
0
 10
84.7971
 20
-0.373032
 11
84.7618
 21
-0.187988
  0
LINE
  8
0
 10
84.7618
 20
-0.187988
 11
84.75
 21
0
  0
LINE
  8
0
 10
84.75
 20
0
 11
84.7618
 21
0.187988
  0
LINE
  8
0
 10
84.7618
 20
0.187988
 11
84.7971
 21
0.373032
  0
LINE
  8
0
 10
84.7971
 20
0.373032
 11
84.8553
 21
0.552185
  0
LINE
  8
0
 10
84.8553
 20
0.552185
 11
84.9355
 21
0.722626
  0
LINE
  8
0
 10
84.9355
 20
0.722626
 11
85.0365
 21
0.881668
  0
LINE
  8
0
 10
85.0365
 20
0.881668
 11
85.1565
 21
1.02681
  0
LINE
  8
0
 10
85.1565
 20
1.02681
 11
85.2939
 21
1.15576
  0
LINE
  8
0
 10
85.2939
 20
1.15576
 11
85.4463
 21
1.26648
  0
LINE
  8
0
 10
85.4463
 20
1.26648
 11
85.6113
 21
1.35724
  0
LINE
  8
0
 10
85.6113
 20
1.35724
 11
85.7865
 21
1.42657
  0
LINE
  8
0
 10
85.7865
 20
1.42657
 11
85.9689
 21
1.47342
  0
LINE
  8
0
 10
85.9689
 20
1.47342
 11
86.1558
 21
1.49704
  0
LINE
  8
0
 10
86.1558
 20
1.49704
 11
86.3442
 21
1.49704
  0
LINE
  8
0
 10
86.3442
 20
1.49704
 11
86.5311
 21
1.47342
  0
LINE
  8
0
 10
93.6558
 20
-1.49704
 11
93.4689
 21
-1.47342
  0
LINE
  8
0
 10
93.4689
 20
-1.47342
 11
93.2865
 21
-1.42657
  0
LINE
  8
0
 10
93.2865
 20
-1.42657
 11
93.1113
 21
-1.35724
  0
LINE
  8
0
 10
93.1113
 20
-1.35724
 11
92.9463
 21
-1.26648
  0
LINE
  8
0
 10
92.9463
 20
-1.26648
 11
92.7939
 21
-1.15576
  0
LINE
  8
0
 10
92.7939
 20
-1.15576
 11
92.6565
 21
-1.02681
  0
LINE
  8
0
 10
92.6565
 20
-1.02681
 11
92.5365
 21
-0.881668
  0
LINE
  8
0
 10
92.5365
 20
-0.881668
 11
92.4355
 21
-0.722626
  0
LINE
  8
0
 10
92.4355
 20
-0.722626
 11
92.3553
 21
-0.552185
  0
LINE
  8
0
 10
92.3553
 20
-0.552185
 11
92.2971
 21
-0.373032
  0
LINE
  8
0
 10
92.2971
 20
-0.373032
 11
92.2618
 21
-0.187988
  0
LINE
  8
0
 10
92.2618
 20
-0.187988
 11
92.25
 21
0
  0
LINE
  8
0
 10
92.25
 20
0
 11
92.2618
 21
0.187988
  0
LINE
  8
0
 10
92.2618
 20
0.187988
 11
92.2971
 21
0.373032
  0
LINE
  8
0
 10
92.2971
 20
0.373032
 11
92.3553
 21
0.552185
  0
LINE
  8
0
 10
92.3553
 20
0.552185
 11
92.4355
 21
0.722626
  0
LINE
  8
0
 10
92.4355
 20
0.722626
 11
92.5365
 21
0.881668
  0
LINE
  8
0
 10
92.5365
 20
0.881668
 11
92.6565
 21
1.02681
  0
LINE
  8
0
 10
92.6565
 20
1.02681
 11
92.7939
 21
1.15576
  0
LINE
  8
0
 10
92.7939
 20
1.15576
 11
92.9463
 21
1.26648
  0
LINE
  8
0
 10
92.9463
 20
1.26648
 11
93.1113
 21
1.35724
  0
LINE
  8
0
 10
93.1113
 20
1.35724
 11
93.2865
 21
1.42657
  0
LINE
  8
0
 10
93.2865
 20
1.42657
 11
93.4689
 21
1.47342
  0
LINE
  8
0
 10
93.4689
 20
1.47342
 11
93.6558
 21
1.49704
  0
LINE
  8
0
 10
93.6558
 20
1.49704
 11
93.8442
 21
1.49704
  0
LINE
  8
0
 10
93.8442
 20
1.49704
 11
94.0311
 21
1.47342
  0
LINE
  8
0
 10
94.0311
 20
1.47342
 11
94.2135
 21
1.42657
  0
LINE
  8
0
 10
94.2135
 20
1.42657
 11
94.3887
 21
1.35724
  0
LINE
  8
0
 10
94.3887
 20
1.35724
 11
94.5537
 21
1.26648
  0
LINE
  8
0
 10
94.5537
 20
1.26648
 11
94.7061
 21
1.15576
  0
LINE
  8
0
 10
94.7061
 20
1.15576
 11
94.8434
 21
1.02681
  0
LINE
  8
0
 10
94.8434
 20
1.02681
 11
94.9635
 21
0.881668
  0
LINE
  8
0
 10
94.9635
 20
0.881668
 11
95.0645
 21
0.722626
  0
LINE
  8
0
 10
95.0645
 20
0.722626
 11
95.1447
 21
0.552185
  0
LINE
  8
0
 10
95.1447
 20
0.552185
 11
95.2029
 21
0.373032
  0
LINE
  8
0
 10
95.2029
 20
0.373032
 11
95.2382
 21
0.187988
  0
LINE
  8
0
 10
95.2382
 20
0.187988
 11
95.25
 21
0
  0
LINE
  8
0
 10
95.25
 20
0
 11
95.2382
 21
-0.187988
  0
LINE
  8
0
 10
95.2382
 20
-0.187988
 11
95.2029
 21
-0.373032
  0
LINE
  8
0
 10
95.2029
 20
-0.373032
 11
95.1447
 21
-0.552185
  0
LINE
  8
0
 10
95.1447
 20
-0.552185
 11
95.0645
 21
-0.722626
  0
LINE
  8
0
 10
95.0645
 20
-0.722626
 11
94.9635
 21
-0.881668
  0
LINE
  8
0
 10
94.9635
 20
-0.881668
 11
94.8434
 21
-1.02681
  0
LINE
  8
0
 10
94.8434
 20
-1.02681
 11
94.7061
 21
-1.15576
  0
LINE
  8
0
 10
94.7061
 20
-1.15576
 11
94.5537
 21
-1.26648
  0
LINE
  8
0
 10
94.5537
 20
-1.26648
 11
94.3887
 21
-1.35724
  0
LINE
  8
0
 10
94.3887
 20
-1.35724
 11
94.2135
 21
-1.42657
  0
LINE
  8
0
 10
94.2135
 20
-1.42657
 11
94.0311
 21
-1.47342
  0
LINE
  8
0
 10
94.0311
 20
-1.47342
 11
93.8442
 21
-1.49704
  0
LINE
  8
0
 10
93.8442
 20
-1.49704
 11
93.6558
 21
-1.49704
  0
LINE
  8
0
 10
101.156
 20
-1.49704
 11
100.969
 21
-1.47342
  0
LINE
  8
0
 10
100.969
 20
-1.47342
 11
100.786
 21
-1.42657
  0
LINE
  8
0
 10
100.786
 20
-1.42657
 11
100.611
 21
-1.35724
  0
LINE
  8
0
 10
100.611
 20
-1.35724
 11
100.446
 21
-1.26648
  0
LINE
  8
0
 10
100.446
 20
-1.26648
 11
100.294
 21
-1.15576
  0
LINE
  8
0
 10
100.294
 20
-1.15576
 11
100.157
 21
-1.02681
  0
LINE
  8
0
 10
100.157
 20
-1.02681
 11
100.036
 21
-0.881668
  0
LINE
  8
0
 10
100.036
 20
-0.881668
 11
99.9355
 21
-0.722626
  0
LINE
  8
0
 10
99.9355
 20
-0.722626
 11
99.8553
 21
-0.552185
  0
LINE
  8
0
 10
99.8553
 20
-0.552185
 11
99.7971
 21
-0.373032
  0
LINE
  8
0
 10
99.7971
 20
-0.373032
 11
99.7618
 21
-0.187988
  0
LINE
  8
0
 10
99.7618
 20
-0.187988
 11
99.75
 21
0
  0
LINE
  8
0
 10
99.75
 20
0
 11
99.7618
 21
0.187988
  0
LINE
  8
0
 10
99.7618
 20
0.187988
 11
99.7971
 21
0.373032
  0
LINE
  8
0
 10
99.7971
 20
0.373032
 11
99.8553
 21
0.552185
  0
LINE
  8
0
 10
99.8553
 20
0.552185
 11
99.9355
 21
0.722626
  0
LINE
  8
0
 10
99.9355
 20
0.722626
 11
100.036
 21
0.881668
  0
LINE
  8
0
 10
100.036
 20
0.881668
 11
100.157
 21
1.02681
  0
LINE
  8
0
 10
100.157
 20
1.02681
 11
100.294
 21
1.15576
  0
LINE
  8
0
 10
100.294
 20
1.15576
 11
100.446
 21
1.26648
  0
LINE
  8
0
 10
100.446
 20
1.26648
 11
100.611
 21
1.35724
  0
LINE
  8
0
 10
100.611
 20
1.35724
 11
100.786
 21
1.42657
  0
LINE
  8
0
 10
100.786
 20
1.42657
 11
100.969
 21
1.47342
  0
LINE
  8
0
 10
100.969
 20
1.47342
 11
101.156
 21
1.49704
  0
LINE
  8
0
 10
101.156
 20
1.49704
 11
101.344
 21
1.49704
  0
LINE
  8
0
 10
101.344
 20
1.49704
 11
101.531
 21
1.47342
  0
LINE
  8
0
 10
101.531
 20
1.47342
 11
101.714
 21
1.42657
  0
LINE
  8
0
 10
101.714
 20
1.42657
 11
101.889
 21
1.35724
  0
LINE
  8
0
 10
101.889
 20
1.35724
 11
102.054
 21
1.26648
  0
LINE
  8
0
 10
102.054
 20
1.26648
 11
102.206
 21
1.15576
  0
LINE
  8
0
 10
102.206
 20
1.15576
 11
102.343
 21
1.02681
  0
LINE
  8
0
 10
102.343
 20
1.02681
 11
102.464
 21
0.881668
  0
LINE
  8
0
 10
102.464
 20
0.881668
 11
102.564
 21
0.722626
  0
LINE
  8
0
 10
102.564
 20
0.722626
 11
102.645
 21
0.552185
  0
LINE
  8
0
 10
102.645
 20
0.552185
 11
102.703
 21
0.373032
  0
LINE
  8
0
 10
102.703
 20
0.373032
 11
102.738
 21
0.187988
  0
LINE
  8
0
 10
102.738
 20
0.187988
 11
102.75
 21
0
  0
LINE
  8
0
 10
102.75
 20
0
 11
102.738
 21
-0.187988
  0
LINE
  8
0
 10
102.738
 20
-0.187988
 11
102.703
 21
-0.373032
  0
LINE
  8
0
 10
102.703
 20
-0.373032
 11
102.645
 21
-0.552185
  0
LINE
  8
0
 10
102.645
 20
-0.552185
 11
102.564
 21
-0.722626
  0
LINE
  8
0
 10
102.564
 20
-0.722626
 11
102.464
 21
-0.881668
  0
LINE
  8
0
 10
102.464
 20
-0.881668
 11
102.343
 21
-1.02681
  0
LINE
  8
0
 10
102.343
 20
-1.02681
 11
102.206
 21
-1.15576
  0
LINE
  8
0
 10
102.206
 20
-1.15576
 11
102.054
 21
-1.26648
  0
LINE
  8
0
 10
102.054
 20
-1.26648
 11
101.889
 21
-1.35724
  0
LINE
  8
0
 10
101.889
 20
-1.35724
 11
101.714
 21
-1.42657
  0
LINE
  8
0
 10
101.714
 20
-1.42657
 11
101.531
 21
-1.47342
  0
LINE
  8
0
 10
101.531
 20
-1.47342
 11
101.344
 21
-1.49704
  0
LINE
  8
0
 10
101.344
 20
-1.49704
 11
101.156
 21
-1.49704
  0
LINE
  8
0
 10
-63.4689
 20
1.47342
 11
-63.2865
 21
1.42657
  0
LINE
  8
0
 10
-63.2865
 20
1.42657
 11
-63.1113
 21
1.35724
  0
LINE
  8
0
 10
-63.1113
 20
1.35724
 11
-62.9463
 21
1.26648
  0
LINE
  8
0
 10
-62.9463
 20
1.26648
 11
-62.7939
 21
1.15576
  0
LINE
  8
0
 10
-62.7939
 20
1.15576
 11
-62.6565
 21
1.02681
  0
LINE
  8
0
 10
-62.6565
 20
1.02681
 11
-62.5365
 21
0.881668
  0
LINE
  8
0
 10
-62.5365
 20
0.881668
 11
-62.4355
 21
0.722626
  0
LINE
  8
0
 10
-62.4355
 20
0.722626
 11
-62.3553
 21
0.552185
  0
LINE
  8
0
 10
-62.3553
 20
0.552185
 11
-62.2971
 21
0.373032
  0
LINE
  8
0
 10
-62.2971
 20
0.373032
 11
-62.2618
 21
0.187988
  0
LINE
  8
0
 10
-62.2618
 20
0.187988
 11
-62.25
 21
0
  0
LINE
  8
0
 10
-62.25
 20
0
 11
-62.2618
 21
-0.187988
  0
LINE
  8
0
 10
-62.2618
 20
-0.187988
 11
-62.2971
 21
-0.373032
  0
LINE
  8
0
 10
-62.2971
 20
-0.373032
 11
-62.3553
 21
-0.552185
  0
LINE
  8
0
 10
-62.3553
 20
-0.552185
 11
-62.4355
 21
-0.722626
  0
LINE
  8
0
 10
-62.4355
 20
-0.722626
 11
-62.5365
 21
-0.881668
  0
LINE
  8
0
 10
-62.5365
 20
-0.881668
 11
-62.6565
 21
-1.02681
  0
LINE
  8
0
 10
-62.6565
 20
-1.02681
 11
-62.7939
 21
-1.15576
  0
LINE
  8
0
 10
-62.7939
 20
-1.15576
 11
-62.9463
 21
-1.26648
  0
LINE
  8
0
 10
-62.9463
 20
-1.26648
 11
-63.1113
 21
-1.35724
  0
LINE
  8
0
 10
-63.1113
 20
-1.35724
 11
-63.2865
 21
-1.42657
  0
LINE
  8
0
 10
-63.2865
 20
-1.42657
 11
-63.4689
 21
-1.47342
  0
LINE
  8
0
 10
-63.4689
 20
-1.47342
 11
-63.6558
 21
-1.49704
  0
LINE
  8
0
 10
-63.6558
 20
-1.49704
 11
-63.8442
 21
-1.49704
  0
LINE
  8
0
 10
-63.8442
 20
-1.49704
 11
-64.0311
 21
-1.47342
  0
LINE
  8
0
 10
-64.0311
 20
-1.47342
 11
-64.2135
 21
-1.42657
  0
LINE
  8
0
 10
-64.2135
 20
-1.42657
 11
-64.3887
 21
-1.35724
  0
LINE
  8
0
 10
-64.3887
 20
-1.35724
 11
-64.5537
 21
-1.26648
  0
LINE
  8
0
 10
-64.5537
 20
-1.26648
 11
-64.7061
 21
-1.15576
  0
LINE
  8
0
 10
-64.7061
 20
-1.15576
 11
-64.8434
 21
-1.02681
  0
LINE
  8
0
 10
-64.8434
 20
-1.02681
 11
-64.9635
 21
-0.881668
  0
LINE
  8
0
 10
-64.9635
 20
-0.881668
 11
-65.0645
 21
-0.722626
  0
LINE
  8
0
 10
-65.0645
 20
-0.722626
 11
-65.1447
 21
-0.552185
  0
LINE
  8
0
 10
-65.1447
 20
-0.552185
 11
-65.2029
 21
-0.373032
  0
LINE
  8
0
 10
-65.2029
 20
-0.373032
 11
-65.2382
 21
-0.187988
  0
LINE
  8
0
 10
-65.2382
 20
-0.187988
 11
-65.25
 21
0
  0
LINE
  8
0
 10
-65.25
 20
0
 11
-65.2382
 21
0.187988
  0
LINE
  8
0
 10
-65.2382
 20
0.187988
 11
-65.2029
 21
0.373032
  0
LINE
  8
0
 10
-65.2029
 20
0.373032
 11
-65.1447
 21
0.552185
  0
LINE
  8
0
 10
-65.1447
 20
0.552185
 11
-65.0645
 21
0.722626
  0
LINE
  8
0
 10
-65.0645
 20
0.722626
 11
-64.9635
 21
0.881668
  0
LINE
  8
0
 10
-64.9635
 20
0.881668
 11
-64.8434
 21
1.02681
  0
LINE
  8
0
 10
-64.8434
 20
1.02681
 11
-64.7061
 21
1.15576
  0
LINE
  8
0
 10
-64.7061
 20
1.15576
 11
-64.5537
 21
1.26648
  0
LINE
  8
0
 10
-64.5537
 20
1.26648
 11
-64.3887
 21
1.35724
  0
LINE
  8
0
 10
-64.3887
 20
1.35724
 11
-64.2135
 21
1.42657
  0
LINE
  8
0
 10
-64.2135
 20
1.42657
 11
-64.0311
 21
1.47342
  0
LINE
  8
0
 10
-64.0311
 20
1.47342
 11
-63.8442
 21
1.49704
  0
LINE
  8
0
 10
-63.8442
 20
1.49704
 11
-63.6558
 21
1.49704
  0
LINE
  8
0
 10
-63.6558
 20
1.49704
 11
-63.4689
 21
1.47342
  0
LINE
  8
0
 10
-55.9689
 20
1.47342
 11
-55.7865
 21
1.42657
  0
LINE
  8
0
 10
-55.7865
 20
1.42657
 11
-55.6113
 21
1.35724
  0
LINE
  8
0
 10
-55.6113
 20
1.35724
 11
-55.4463
 21
1.26648
  0
LINE
  8
0
 10
-55.4463
 20
1.26648
 11
-55.2939
 21
1.15576
  0
LINE
  8
0
 10
-55.2939
 20
1.15576
 11
-55.1565
 21
1.02681
  0
LINE
  8
0
 10
-55.1565
 20
1.02681
 11
-55.0365
 21
0.881668
  0
LINE
  8
0
 10
-55.0365
 20
0.881668
 11
-54.9355
 21
0.722626
  0
LINE
  8
0
 10
-54.9355
 20
0.722626
 11
-54.8553
 21
0.552185
  0
LINE
  8
0
 10
-54.8553
 20
0.552185
 11
-54.7971
 21
0.373032
  0
LINE
  8
0
 10
-54.7971
 20
0.373032
 11
-54.7618
 21
0.187988
  0
LINE
  8
0
 10
-54.7618
 20
0.187988
 11
-54.75
 21
0
  0
LINE
  8
0
 10
-54.75
 20
0
 11
-54.7618
 21
-0.187988
  0
LINE
  8
0
 10
-54.7618
 20
-0.187988
 11
-54.7971
 21
-0.373032
  0
LINE
  8
0
 10
-54.7971
 20
-0.373032
 11
-54.8553
 21
-0.552185
  0
LINE
  8
0
 10
-54.8553
 20
-0.552185
 11
-54.9355
 21
-0.722626
  0
LINE
  8
0
 10
-54.9355
 20
-0.722626
 11
-55.0365
 21
-0.881668
  0
LINE
  8
0
 10
-55.0365
 20
-0.881668
 11
-55.1565
 21
-1.02681
  0
LINE
  8
0
 10
-55.1565
 20
-1.02681
 11
-55.2939
 21
-1.15576
  0
LINE
  8
0
 10
-55.2939
 20
-1.15576
 11
-55.4463
 21
-1.26648
  0
LINE
  8
0
 10
-55.4463
 20
-1.26648
 11
-55.6113
 21
-1.35724
  0
LINE
  8
0
 10
-55.6113
 20
-1.35724
 11
-55.7865
 21
-1.42657
  0
LINE
  8
0
 10
-55.7865
 20
-1.42657
 11
-55.9689
 21
-1.47342
  0
LINE
  8
0
 10
-55.9689
 20
-1.47342
 11
-56.1558
 21
-1.49704
  0
LINE
  8
0
 10
-56.1558
 20
-1.49704
 11
-56.3442
 21
-1.49704
  0
LINE
  8
0
 10
-56.3442
 20
-1.49704
 11
-56.5311
 21
-1.47342
  0
LINE
  8
0
 10
-56.5311
 20
-1.47342
 11
-56.7135
 21
-1.42657
  0
LINE
  8
0
 10
-56.7135
 20
-1.42657
 11
-56.8887
 21
-1.35724
  0
LINE
  8
0
 10
-56.8887
 20
-1.35724
 11
-57.0537
 21
-1.26648
  0
LINE
  8
0
 10
-57.0537
 20
-1.26648
 11
-57.2061
 21
-1.15576
  0
LINE
  8
0
 10
-57.2061
 20
-1.15576
 11
-57.3434
 21
-1.02681
  0
LINE
  8
0
 10
-57.3434
 20
-1.02681
 11
-57.4635
 21
-0.881668
  0
LINE
  8
0
 10
-57.4635
 20
-0.881668
 11
-57.5645
 21
-0.722626
  0
LINE
  8
0
 10
-57.5645
 20
-0.722626
 11
-57.6447
 21
-0.552185
  0
LINE
  8
0
 10
-57.6447
 20
-0.552185
 11
-57.7029
 21
-0.373032
  0
LINE
  8
0
 10
-57.7029
 20
-0.373032
 11
-57.7382
 21
-0.187988
  0
LINE
  8
0
 10
-57.7382
 20
-0.187988
 11
-57.75
 21
0
  0
LINE
  8
0
 10
-57.75
 20
0
 11
-57.7382
 21
0.187988
  0
LINE
  8
0
 10
-57.7382
 20
0.187988
 11
-57.7029
 21
0.373032
  0
LINE
  8
0
 10
-57.7029
 20
0.373032
 11
-57.6447
 21
0.552185
  0
LINE
  8
0
 10
-57.6447
 20
0.552185
 11
-57.5645
 21
0.722626
  0
LINE
  8
0
 10
-57.5645
 20
0.722626
 11
-57.4635
 21
0.881668
  0
LINE
  8
0
 10
-57.4635
 20
0.881668
 11
-57.3434
 21
1.02681
  0
LINE
  8
0
 10
-57.3434
 20
1.02681
 11
-57.2061
 21
1.15576
  0
LINE
  8
0
 10
-57.2061
 20
1.15576
 11
-57.0537
 21
1.26648
  0
LINE
  8
0
 10
-57.0537
 20
1.26648
 11
-56.8887
 21
1.35724
  0
LINE
  8
0
 10
-56.8887
 20
1.35724
 11
-56.7135
 21
1.42657
  0
LINE
  8
0
 10
-56.7135
 20
1.42657
 11
-56.5311
 21
1.47342
  0
LINE
  8
0
 10
-56.5311
 20
1.47342
 11
-56.3442
 21
1.49704
  0
LINE
  8
0
 10
-56.3442
 20
1.49704
 11
-56.1558
 21
1.49704
  0
LINE
  8
0
 10
-56.1558
 20
1.49704
 11
-55.9689
 21
1.47342
  0
LINE
  8
0
 10
-41.3442
 20
-1.49704
 11
-41.5311
 21
-1.47342
  0
LINE
  8
0
 10
-41.5311
 20
-1.47342
 11
-41.7135
 21
-1.42657
  0
LINE
  8
0
 10
-41.7135
 20
-1.42657
 11
-41.8887
 21
-1.35724
  0
LINE
  8
0
 10
-41.8887
 20
-1.35724
 11
-42.0537
 21
-1.26648
  0
LINE
  8
0
 10
-42.0537
 20
-1.26648
 11
-42.2061
 21
-1.15576
  0
LINE
  8
0
 10
-42.2061
 20
-1.15576
 11
-42.3434
 21
-1.02681
  0
LINE
  8
0
 10
-42.3434
 20
-1.02681
 11
-42.4635
 21
-0.881668
  0
LINE
  8
0
 10
-42.4635
 20
-0.881668
 11
-42.5645
 21
-0.722626
  0
LINE
  8
0
 10
-42.5645
 20
-0.722626
 11
-42.6447
 21
-0.552185
  0
LINE
  8
0
 10
-42.6447
 20
-0.552185
 11
-42.7029
 21
-0.373032
  0
LINE
  8
0
 10
-42.7029
 20
-0.373032
 11
-42.7382
 21
-0.187988
  0
LINE
  8
0
 10
-42.7382
 20
-0.187988
 11
-42.75
 21
0
  0
LINE
  8
0
 10
-42.75
 20
0
 11
-42.7382
 21
0.187988
  0
LINE
  8
0
 10
-42.7382
 20
0.187988
 11
-42.7029
 21
0.373032
  0
LINE
  8
0
 10
-42.7029
 20
0.373032
 11
-42.6447
 21
0.552185
  0
LINE
  8
0
 10
-42.6447
 20
0.552185
 11
-42.5645
 21
0.722626
  0
LINE
  8
0
 10
-42.5645
 20
0.722626
 11
-42.4635
 21
0.881668
  0
LINE
  8
0
 10
-42.4635
 20
0.881668
 11
-42.3434
 21
1.02681
  0
LINE
  8
0
 10
-42.3434
 20
1.02681
 11
-42.2061
 21
1.15576
  0
LINE
  8
0
 10
-42.2061
 20
1.15576
 11
-42.0537
 21
1.26648
  0
LINE
  8
0
 10
-42.0537
 20
1.26648
 11
-41.8887
 21
1.35724
  0
LINE
  8
0
 10
-41.8887
 20
1.35724
 11
-41.7135
 21
1.42657
  0
LINE
  8
0
 10
-41.7135
 20
1.42657
 11
-41.5311
 21
1.47342
  0
LINE
  8
0
 10
-41.5311
 20
1.47342
 11
-41.3442
 21
1.49704
  0
LINE
  8
0
 10
-41.3442
 20
1.49704
 11
-41.1558
 21
1.49704
  0
LINE
  8
0
 10
-41.1558
 20
1.49704
 11
-40.9689
 21
1.47342
  0
LINE
  8
0
 10
-40.9689
 20
1.47342
 11
-40.7865
 21
1.42657
  0
LINE
  8
0
 10
-40.7865
 20
1.42657
 11
-40.6113
 21
1.35724
  0
LINE
  8
0
 10
-40.6113
 20
1.35724
 11
-40.4463
 21
1.26648
  0
LINE
  8
0
 10
-40.4463
 20
1.26648
 11
-40.2939
 21
1.15576
  0
LINE
  8
0
 10
-40.2939
 20
1.15576
 11
-40.1565
 21
1.02681
  0
LINE
  8
0
 10
-40.1565
 20
1.02681
 11
-40.0365
 21
0.881668
  0
LINE
  8
0
 10
-40.0365
 20
0.881668
 11
-39.9355
 21
0.722626
  0
LINE
  8
0
 10
-39.9355
 20
0.722626
 11
-39.8553
 21
0.552185
  0
LINE
  8
0
 10
-39.8553
 20
0.552185
 11
-39.7971
 21
0.373032
  0
LINE
  8
0
 10
-39.7971
 20
0.373032
 11
-39.7618
 21
0.187988
  0
LINE
  8
0
 10
-39.7618
 20
0.187988
 11
-39.75
 21
0
  0
LINE
  8
0
 10
-39.75
 20
0
 11
-39.7618
 21
-0.187988
  0
LINE
  8
0
 10
-39.7618
 20
-0.187988
 11
-39.7971
 21
-0.373032
  0
LINE
  8
0
 10
-39.7971
 20
-0.373032
 11
-39.8553
 21
-0.552185
  0
LINE
  8
0
 10
-39.8553
 20
-0.552185
 11
-39.9355
 21
-0.722626
  0
LINE
  8
0
 10
-39.9355
 20
-0.722626
 11
-40.0365
 21
-0.881668
  0
LINE
  8
0
 10
-40.0365
 20
-0.881668
 11
-40.1565
 21
-1.02681
  0
LINE
  8
0
 10
-40.1565
 20
-1.02681
 11
-40.2939
 21
-1.15576
  0
LINE
  8
0
 10
-40.2939
 20
-1.15576
 11
-40.4463
 21
-1.26648
  0
LINE
  8
0
 10
-40.4463
 20
-1.26648
 11
-40.6113
 21
-1.35724
  0
LINE
  8
0
 10
-40.6113
 20
-1.35724
 11
-40.7865
 21
-1.42657
  0
LINE
  8
0
 10
-40.7865
 20
-1.42657
 11
-40.9689
 21
-1.47342
  0
LINE
  8
0
 10
-40.9689
 20
-1.47342
 11
-41.1558
 21
-1.49704
  0
LINE
  8
0
 10
-41.1558
 20
-1.49704
 11
-41.3442
 21
-1.49704
  0
LINE
  8
0
 10
-33.8442
 20
-1.49704
 11
-34.0311
 21
-1.47342
  0
LINE
  8
0
 10
-34.0311
 20
-1.47342
 11
-34.2135
 21
-1.42657
  0
LINE
  8
0
 10
-34.2135
 20
-1.42657
 11
-34.3887
 21
-1.35724
  0
LINE
  8
0
 10
-34.3887
 20
-1.35724
 11
-34.5537
 21
-1.26648
  0
LINE
  8
0
 10
-34.5537
 20
-1.26648
 11
-34.7061
 21
-1.15576
  0
LINE
  8
0
 10
-34.7061
 20
-1.15576
 11
-34.8434
 21
-1.02681
  0
LINE
  8
0
 10
-34.8434
 20
-1.02681
 11
-34.9635
 21
-0.881668
  0
LINE
  8
0
 10
-34.9635
 20
-0.881668
 11
-35.0645
 21
-0.722626
  0
LINE
  8
0
 10
-35.0645
 20
-0.722626
 11
-35.1447
 21
-0.552185
  0
LINE
  8
0
 10
-35.1447
 20
-0.552185
 11
-35.2029
 21
-0.373032
  0
LINE
  8
0
 10
-35.2029
 20
-0.373032
 11
-35.2382
 21
-0.187988
  0
LINE
  8
0
 10
-35.2382
 20
-0.187988
 11
-35.25
 21
0
  0
LINE
  8
0
 10
-35.25
 20
0
 11
-35.2382
 21
0.187988
  0
LINE
  8
0
 10
-35.2382
 20
0.187988
 11
-35.2029
 21
0.373032
  0
LINE
  8
0
 10
-35.2029
 20
0.373032
 11
-35.1447
 21
0.552185
  0
LINE
  8
0
 10
-35.1447
 20
0.552185
 11
-35.0645
 21
0.722626
  0
LINE
  8
0
 10
-35.0645
 20
0.722626
 11
-34.9635
 21
0.881668
  0
LINE
  8
0
 10
-34.9635
 20
0.881668
 11
-34.8434
 21
1.02681
  0
LINE
  8
0
 10
-34.8434
 20
1.02681
 11
-34.7061
 21
1.15576
  0
LINE
  8
0
 10
-34.7061
 20
1.15576
 11
-34.5537
 21
1.26648
  0
LINE
  8
0
 10
-34.5537
 20
1.26648
 11
-34.3887
 21
1.35724
  0
LINE
  8
0
 10
-34.3887
 20
1.35724
 11
-34.2135
 21
1.42657
  0
LINE
  8
0
 10
-34.2135
 20
1.42657
 11
-34.0311
 21
1.47342
  0
LINE
  8
0
 10
-34.0311
 20
1.47342
 11
-33.8442
 21
1.49704
  0
LINE
  8
0
 10
-33.8442
 20
1.49704
 11
-33.6558
 21
1.49704
  0
LINE
  8
0
 10
-33.6558
 20
1.49704
 11
-33.4689
 21
1.47342
  0
LINE
  8
0
 10
-33.4689
 20
1.47342
 11
-33.2865
 21
1.42657
  0
LINE
  8
0
 10
-33.2865
 20
1.42657
 11
-33.1113
 21
1.35724
  0
LINE
  8
0
 10
-33.1113
 20
1.35724
 11
-32.9463
 21
1.26648
  0
LINE
  8
0
 10
-32.9463
 20
1.26648
 11
-32.7939
 21
1.15576
  0
LINE
  8
0
 10
-32.7939
 20
1.15576
 11
-32.6565
 21
1.02681
  0
LINE
  8
0
 10
-32.6565
 20
1.02681
 11
-32.5365
 21
0.881668
  0
LINE
  8
0
 10
-32.5365
 20
0.881668
 11
-32.4355
 21
0.722626
  0
LINE
  8
0
 10
-32.4355
 20
0.722626
 11
-32.3553
 21
0.552185
  0
LINE
  8
0
 10
-32.3553
 20
0.552185
 11
-32.2971
 21
0.373032
  0
LINE
  8
0
 10
-32.2971
 20
0.373032
 11
-32.2618
 21
0.187988
  0
LINE
  8
0
 10
-32.2618
 20
0.187988
 11
-32.25
 21
0
  0
LINE
  8
0
 10
-32.25
 20
0
 11
-32.2618
 21
-0.187988
  0
LINE
  8
0
 10
-32.2618
 20
-0.187988
 11
-32.2971
 21
-0.373032
  0
LINE
  8
0
 10
-32.2971
 20
-0.373032
 11
-32.3553
 21
-0.552185
  0
LINE
  8
0
 10
-32.3553
 20
-0.552185
 11
-32.4355
 21
-0.722626
  0
LINE
  8
0
 10
-32.4355
 20
-0.722626
 11
-32.5365
 21
-0.881668
  0
LINE
  8
0
 10
-32.5365
 20
-0.881668
 11
-32.6565
 21
-1.02681
  0
LINE
  8
0
 10
-32.6565
 20
-1.02681
 11
-32.7939
 21
-1.15576
  0
LINE
  8
0
 10
-32.7939
 20
-1.15576
 11
-32.9463
 21
-1.26648
  0
LINE
  8
0
 10
-32.9463
 20
-1.26648
 11
-33.1113
 21
-1.35724
  0
LINE
  8
0
 10
-33.1113
 20
-1.35724
 11
-33.2865
 21
-1.42657
  0
LINE
  8
0
 10
-33.2865
 20
-1.42657
 11
-33.4689
 21
-1.47342
  0
LINE
  8
0
 10
-33.4689
 20
-1.47342
 11
-33.6558
 21
-1.49704
  0
LINE
  8
0
 10
-33.6558
 20
-1.49704
 11
-33.8442
 21
-1.49704
  0
LINE
  8
0
 10
-26.3442
 20
-1.49704
 11
-26.5311
 21
-1.47342
  0
LINE
  8
0
 10
-26.5311
 20
-1.47342
 11
-26.7135
 21
-1.42657
  0
LINE
  8
0
 10
-26.7135
 20
-1.42657
 11
-26.8887
 21
-1.35724
  0
LINE
  8
0
 10
-26.8887
 20
-1.35724
 11
-27.0537
 21
-1.26648
  0
LINE
  8
0
 10
-27.0537
 20
-1.26648
 11
-27.2061
 21
-1.15576
  0
LINE
  8
0
 10
-27.2061
 20
-1.15576
 11
-27.3434
 21
-1.02681
  0
LINE
  8
0
 10
-27.3434
 20
-1.02681
 11
-27.4635
 21
-0.881668
  0
LINE
  8
0
 10
-27.4635
 20
-0.881668
 11
-27.5645
 21
-0.722626
  0
LINE
  8
0
 10
-27.5645
 20
-0.722626
 11
-27.6447
 21
-0.552185
  0
LINE
  8
0
 10
-27.6447
 20
-0.552185
 11
-27.7029
 21
-0.373032
  0
LINE
  8
0
 10
-27.7029
 20
-0.373032
 11
-27.7382
 21
-0.187988
  0
LINE
  8
0
 10
-27.7382
 20
-0.187988
 11
-27.75
 21
0
  0
LINE
  8
0
 10
-27.75
 20
0
 11
-27.7382
 21
0.187988
  0
LINE
  8
0
 10
-27.7382
 20
0.187988
 11
-27.7029
 21
0.373032
  0
LINE
  8
0
 10
-27.7029
 20
0.373032
 11
-27.6447
 21
0.552185
  0
LINE
  8
0
 10
-27.6447
 20
0.552185
 11
-27.5645
 21
0.722626
  0
LINE
  8
0
 10
-27.5645
 20
0.722626
 11
-27.4635
 21
0.881668
  0
LINE
  8
0
 10
-27.4635
 20
0.881668
 11
-27.3434
 21
1.02681
  0
LINE
  8
0
 10
-27.3434
 20
1.02681
 11
-27.2061
 21
1.15576
  0
LINE
  8
0
 10
-27.2061
 20
1.15576
 11
-27.0537
 21
1.26648
  0
LINE
  8
0
 10
-27.0537
 20
1.26648
 11
-26.8887
 21
1.35724
  0
LINE
  8
0
 10
-26.8887
 20
1.35724
 11
-26.7135
 21
1.42657
  0
LINE
  8
0
 10
-26.7135
 20
1.42657
 11
-26.5311
 21
1.47342
  0
LINE
  8
0
 10
-26.5311
 20
1.47342
 11
-26.3442
 21
1.49704
  0
LINE
  8
0
 10
-26.3442
 20
1.49704
 11
-26.1558
 21
1.49704
  0
LINE
  8
0
 10
-26.1558
 20
1.49704
 11
-25.9689
 21
1.47342
  0
LINE
  8
0
 10
-25.9689
 20
1.47342
 11
-25.7865
 21
1.42657
  0
LINE
  8
0
 10
-25.7865
 20
1.42657
 11
-25.6113
 21
1.35724
  0
LINE
  8
0
 10
-25.6113
 20
1.35724
 11
-25.4463
 21
1.26648
  0
LINE
  8
0
 10
-25.4463
 20
1.26648
 11
-25.2939
 21
1.15576
  0
LINE
  8
0
 10
-25.2939
 20
1.15576
 11
-25.1565
 21
1.02681
  0
LINE
  8
0
 10
-25.1565
 20
1.02681
 11
-25.0365
 21
0.881668
  0
LINE
  8
0
 10
-25.0365
 20
0.881668
 11
-24.9355
 21
0.722626
  0
LINE
  8
0
 10
-24.9355
 20
0.722626
 11
-24.8553
 21
0.552185
  0
LINE
  8
0
 10
-24.8553
 20
0.552185
 11
-24.7971
 21
0.373032
  0
LINE
  8
0
 10
-24.7971
 20
0.373032
 11
-24.7618
 21
0.187988
  0
LINE
  8
0
 10
-24.7618
 20
0.187988
 11
-24.75
 21
0
  0
LINE
  8
0
 10
-24.75
 20
0
 11
-24.7618
 21
-0.187988
  0
LINE
  8
0
 10
-24.7618
 20
-0.187988
 11
-24.7971
 21
-0.373032
  0
LINE
  8
0
 10
-24.7971
 20
-0.373032
 11
-24.8553
 21
-0.552185
  0
LINE
  8
0
 10
-24.8553
 20
-0.552185
 11
-24.9355
 21
-0.722626
  0
LINE
  8
0
 10
-24.9355
 20
-0.722626
 11
-25.0365
 21
-0.881668
  0
LINE
  8
0
 10
-25.0365
 20
-0.881668
 11
-25.1565
 21
-1.02681
  0
LINE
  8
0
 10
-25.1565
 20
-1.02681
 11
-25.2939
 21
-1.15576
  0
LINE
  8
0
 10
-25.2939
 20
-1.15576
 11
-25.4463
 21
-1.26648
  0
LINE
  8
0
 10
-25.4463
 20
-1.26648
 11
-25.6113
 21
-1.35724
  0
LINE
  8
0
 10
-25.6113
 20
-1.35724
 11
-25.7865
 21
-1.42657
  0
LINE
  8
0
 10
-25.7865
 20
-1.42657
 11
-25.9689
 21
-1.47342
  0
LINE
  8
0
 10
-25.9689
 20
-1.47342
 11
-26.1558
 21
-1.49704
  0
LINE
  8
0
 10
-26.1558
 20
-1.49704
 11
-26.3442
 21
-1.49704
  0
LINE
  8
0
 10
-18.8442
 20
-1.49704
 11
-19.0311
 21
-1.47342
  0
LINE
  8
0
 10
-19.0311
 20
-1.47342
 11
-19.2135
 21
-1.42657
  0
LINE
  8
0
 10
-19.2135
 20
-1.42657
 11
-19.3887
 21
-1.35724
  0
LINE
  8
0
 10
-19.3887
 20
-1.35724
 11
-19.5537
 21
-1.26648
  0
LINE
  8
0
 10
-19.5537
 20
-1.26648
 11
-19.7061
 21
-1.15576
  0
LINE
  8
0
 10
-19.7061
 20
-1.15576
 11
-19.8434
 21
-1.02681
  0
LINE
  8
0
 10
-19.8434
 20
-1.02681
 11
-19.9635
 21
-0.881668
  0
LINE
  8
0
 10
-19.9635
 20
-0.881668
 11
-20.0645
 21
-0.722626
  0
LINE
  8
0
 10
-20.0645
 20
-0.722626
 11
-20.1447
 21
-0.552185
  0
LINE
  8
0
 10
-20.1447
 20
-0.552185
 11
-20.2029
 21
-0.373032
  0
LINE
  8
0
 10
-20.2029
 20
-0.373032
 11
-20.2382
 21
-0.187988
  0
LINE
  8
0
 10
-20.2382
 20
-0.187988
 11
-20.25
 21
0
  0
LINE
  8
0
 10
-20.25
 20
0
 11
-20.2382
 21
0.187988
  0
LINE
  8
0
 10
-20.2382
 20
0.187988
 11
-20.2029
 21
0.373032
  0
LINE
  8
0
 10
-20.2029
 20
0.373032
 11
-20.1447
 21
0.552185
  0
LINE
  8
0
 10
-20.1447
 20
0.552185
 11
-20.0645
 21
0.722626
  0
LINE
  8
0
 10
-20.0645
 20
0.722626
 11
-19.9635
 21
0.881668
  0
LINE
  8
0
 10
-19.9635
 20
0.881668
 11
-19.8434
 21
1.02681
  0
LINE
  8
0
 10
-19.8434
 20
1.02681
 11
-19.7061
 21
1.15576
  0
LINE
  8
0
 10
-19.7061
 20
1.15576
 11
-19.5537
 21
1.26648
  0
LINE
  8
0
 10
-19.5537
 20
1.26648
 11
-19.3887
 21
1.35724
  0
LINE
  8
0
 10
-19.3887
 20
1.35724
 11
-19.2135
 21
1.42657
  0
LINE
  8
0
 10
-19.2135
 20
1.42657
 11
-19.0311
 21
1.47342
  0
LINE
  8
0
 10
-19.0311
 20
1.47342
 11
-18.8442
 21
1.49704
  0
LINE
  8
0
 10
-18.8442
 20
1.49704
 11
-18.6558
 21
1.49704
  0
LINE
  8
0
 10
-18.6558
 20
1.49704
 11
-18.4689
 21
1.47342
  0
LINE
  8
0
 10
-18.4689
 20
1.47342
 11
-18.2865
 21
1.42657
  0
LINE
  8
0
 10
-18.2865
 20
1.42657
 11
-18.1113
 21
1.35724
  0
LINE
  8
0
 10
-18.1113
 20
1.35724
 11
-17.9463
 21
1.26648
  0
LINE
  8
0
 10
-17.9463
 20
1.26648
 11
-17.7939
 21
1.15576
  0
LINE
  8
0
 10
-17.7939
 20
1.15576
 11
-17.6565
 21
1.02681
  0
LINE
  8
0
 10
-17.6565
 20
1.02681
 11
-17.5365
 21
0.881668
  0
LINE
  8
0
 10
-17.5365
 20
0.881668
 11
-17.4355
 21
0.722626
  0
LINE
  8
0
 10
-17.4355
 20
0.722626
 11
-17.3553
 21
0.552185
  0
LINE
  8
0
 10
-17.3553
 20
0.552185
 11
-17.2971
 21
0.373032
  0
LINE
  8
0
 10
-17.2971
 20
0.373032
 11
-17.2618
 21
0.187988
  0
LINE
  8
0
 10
-17.2618
 20
0.187988
 11
-17.25
 21
0
  0
LINE
  8
0
 10
-17.25
 20
0
 11
-17.2618
 21
-0.187988
  0
LINE
  8
0
 10
-17.2618
 20
-0.187988
 11
-17.2971
 21
-0.373032
  0
LINE
  8
0
 10
-17.2971
 20
-0.373032
 11
-17.3553
 21
-0.552185
  0
LINE
  8
0
 10
-17.3553
 20
-0.552185
 11
-17.4355
 21
-0.722626
  0
LINE
  8
0
 10
-17.4355
 20
-0.722626
 11
-17.5365
 21
-0.881668
  0
LINE
  8
0
 10
-17.5365
 20
-0.881668
 11
-17.6565
 21
-1.02681
  0
LINE
  8
0
 10
-17.6565
 20
-1.02681
 11
-17.7939
 21
-1.15576
  0
LINE
  8
0
 10
-17.7939
 20
-1.15576
 11
-17.9463
 21
-1.26648
  0
LINE
  8
0
 10
-17.9463
 20
-1.26648
 11
-18.1113
 21
-1.35724
  0
LINE
  8
0
 10
-18.1113
 20
-1.35724
 11
-18.2865
 21
-1.42657
  0
LINE
  8
0
 10
-18.2865
 20
-1.42657
 11
-18.4689
 21
-1.47342
  0
LINE
  8
0
 10
-18.4689
 20
-1.47342
 11
-18.6558
 21
-1.49704
  0
LINE
  8
0
 10
-18.6558
 20
-1.49704
 11
-18.8442
 21
-1.49704
  0
LINE
  8
0
 10
56.1558
 20
-1.49704
 11
55.9689
 21
-1.47342
  0
LINE
  8
0
 10
55.9689
 20
-1.47342
 11
55.7865
 21
-1.42657
  0
LINE
  8
0
 10
55.7865
 20
-1.42657
 11
55.6113
 21
-1.35724
  0
LINE
  8
0
 10
55.6113
 20
-1.35724
 11
55.4463
 21
-1.26648
  0
LINE
  8
0
 10
55.4463
 20
-1.26648
 11
55.2939
 21
-1.15576
  0
LINE
  8
0
 10
55.2939
 20
-1.15576
 11
55.1565
 21
-1.02681
  0
LINE
  8
0
 10
55.1565
 20
-1.02681
 11
55.0365
 21
-0.881668
  0
LINE
  8
0
 10
55.0365
 20
-0.881668
 11
54.9355
 21
-0.722626
  0
LINE
  8
0
 10
54.9355
 20
-0.722626
 11
54.8553
 21
-0.552185
  0
LINE
  8
0
 10
54.8553
 20
-0.552185
 11
54.7971
 21
-0.373032
  0
LINE
  8
0
 10
54.7971
 20
-0.373032
 11
54.7618
 21
-0.187988
  0
LINE
  8
0
 10
54.7618
 20
-0.187988
 11
54.75
 21
0
  0
LINE
  8
0
 10
54.75
 20
0
 11
54.7618
 21
0.187988
  0
LINE
  8
0
 10
54.7618
 20
0.187988
 11
54.7971
 21
0.373032
  0
LINE
  8
0
 10
54.7971
 20
0.373032
 11
54.8553
 21
0.552185
  0
LINE
  8
0
 10
54.8553
 20
0.552185
 11
54.9355
 21
0.722626
  0
LINE
  8
0
 10
54.9355
 20
0.722626
 11
55.0365
 21
0.881668
  0
LINE
  8
0
 10
55.0365
 20
0.881668
 11
55.1565
 21
1.02681
  0
LINE
  8
0
 10
55.1565
 20
1.02681
 11
55.2939
 21
1.15576
  0
LINE
  8
0
 10
55.2939
 20
1.15576
 11
55.4463
 21
1.26648
  0
LINE
  8
0
 10
55.4463
 20
1.26648
 11
55.6113
 21
1.35724
  0
LINE
  8
0
 10
55.6113
 20
1.35724
 11
55.7865
 21
1.42657
  0
LINE
  8
0
 10
55.7865
 20
1.42657
 11
55.9689
 21
1.47342
  0
LINE
  8
0
 10
55.9689
 20
1.47342
 11
56.1558
 21
1.49704
  0
LINE
  8
0
 10
56.1558
 20
1.49704
 11
56.3442
 21
1.49704
  0
LINE
  8
0
 10
56.3442
 20
1.49704
 11
56.5311
 21
1.47342
  0
LINE
  8
0
 10
56.5311
 20
1.47342
 11
56.7135
 21
1.42657
  0
LINE
  8
0
 10
56.7135
 20
1.42657
 11
56.8887
 21
1.35724
  0
LINE
  8
0
 10
56.8887
 20
1.35724
 11
57.0537
 21
1.26648
  0
LINE
  8
0
 10
57.0537
 20
1.26648
 11
57.2061
 21
1.15576
  0
LINE
  8
0
 10
57.2061
 20
1.15576
 11
57.3434
 21
1.02681
  0
LINE
  8
0
 10
57.3434
 20
1.02681
 11
57.4635
 21
0.881668
  0
LINE
  8
0
 10
57.4635
 20
0.881668
 11
57.5645
 21
0.722626
  0
LINE
  8
0
 10
57.5645
 20
0.722626
 11
57.6447
 21
0.552185
  0
LINE
  8
0
 10
57.6447
 20
0.552185
 11
57.7029
 21
0.373032
  0
LINE
  8
0
 10
57.7029
 20
0.373032
 11
57.7382
 21
0.187988
  0
LINE
  8
0
 10
57.7382
 20
0.187988
 11
57.75
 21
0
  0
LINE
  8
0
 10
57.75
 20
0
 11
57.7382
 21
-0.187988
  0
LINE
  8
0
 10
57.7382
 20
-0.187988
 11
57.7029
 21
-0.373032
  0
LINE
  8
0
 10
57.7029
 20
-0.373032
 11
57.6447
 21
-0.552185
  0
LINE
  8
0
 10
57.6447
 20
-0.552185
 11
57.5645
 21
-0.722626
  0
LINE
  8
0
 10
57.5645
 20
-0.722626
 11
57.4635
 21
-0.881668
  0
LINE
  8
0
 10
57.4635
 20
-0.881668
 11
57.3434
 21
-1.02681
  0
LINE
  8
0
 10
57.3434
 20
-1.02681
 11
57.2061
 21
-1.15576
  0
LINE
  8
0
 10
57.2061
 20
-1.15576
 11
57.0537
 21
-1.26648
  0
LINE
  8
0
 10
57.0537
 20
-1.26648
 11
56.8887
 21
-1.35724
  0
LINE
  8
0
 10
56.8887
 20
-1.35724
 11
56.7135
 21
-1.42657
  0
LINE
  8
0
 10
56.7135
 20
-1.42657
 11
56.5311
 21
-1.47342
  0
LINE
  8
0
 10
56.5311
 20
-1.47342
 11
56.3442
 21
-1.49704
  0
LINE
  8
0
 10
56.3442
 20
-1.49704
 11
56.1558
 21
-1.49704
  0
LINE
  8
0
 10
63.6558
 20
-1.49704
 11
63.4689
 21
-1.47342
  0
LINE
  8
0
 10
63.4689
 20
-1.47342
 11
63.2865
 21
-1.42657
  0
LINE
  8
0
 10
63.2865
 20
-1.42657
 11
63.1113
 21
-1.35724
  0
LINE
  8
0
 10
63.1113
 20
-1.35724
 11
62.9463
 21
-1.26648
  0
LINE
  8
0
 10
62.9463
 20
-1.26648
 11
62.7939
 21
-1.15576
  0
LINE
  8
0
 10
62.7939
 20
-1.15576
 11
62.6565
 21
-1.02681
  0
LINE
  8
0
 10
62.6565
 20
-1.02681
 11
62.5365
 21
-0.881668
  0
LINE
  8
0
 10
62.5365
 20
-0.881668
 11
62.4355
 21
-0.722626
  0
LINE
  8
0
 10
62.4355
 20
-0.722626
 11
62.3553
 21
-0.552185
  0
LINE
  8
0
 10
62.3553
 20
-0.552185
 11
62.2971
 21
-0.373032
  0
LINE
  8
0
 10
62.2971
 20
-0.373032
 11
62.2618
 21
-0.187988
  0
LINE
  8
0
 10
62.2618
 20
-0.187988
 11
62.25
 21
0
  0
LINE
  8
0
 10
62.25
 20
0
 11
62.2618
 21
0.187988
  0
LINE
  8
0
 10
62.2618
 20
0.187988
 11
62.2971
 21
0.373032
  0
LINE
  8
0
 10
62.2971
 20
0.373032
 11
62.3553
 21
0.552185
  0
LINE
  8
0
 10
62.3553
 20
0.552185
 11
62.4355
 21
0.722626
  0
LINE
  8
0
 10
62.4355
 20
0.722626
 11
62.5365
 21
0.881668
  0
LINE
  8
0
 10
62.5365
 20
0.881668
 11
62.6565
 21
1.02681
  0
LINE
  8
0
 10
62.6565
 20
1.02681
 11
62.7939
 21
1.15576
  0
LINE
  8
0
 10
62.7939
 20
1.15576
 11
62.9463
 21
1.26648
  0
LINE
  8
0
 10
62.9463
 20
1.26648
 11
63.1113
 21
1.35724
  0
LINE
  8
0
 10
63.1113
 20
1.35724
 11
63.2865
 21
1.42657
  0
LINE
  8
0
 10
63.2865
 20
1.42657
 11
63.4689
 21
1.47342
  0
LINE
  8
0
 10
63.4689
 20
1.47342
 11
63.6558
 21
1.49704
  0
LINE
  8
0
 10
63.6558
 20
1.49704
 11
63.8442
 21
1.49704
  0
LINE
  8
0
 10
63.8442
 20
1.49704
 11
64.0311
 21
1.47342
  0
LINE
  8
0
 10
64.0311
 20
1.47342
 11
64.2135
 21
1.42657
  0
LINE
  8
0
 10
64.2135
 20
1.42657
 11
64.3887
 21
1.35724
  0
LINE
  8
0
 10
64.3887
 20
1.35724
 11
64.5537
 21
1.26648
  0
LINE
  8
0
 10
64.5537
 20
1.26648
 11
64.7061
 21
1.15576
  0
LINE
  8
0
 10
64.7061
 20
1.15576
 11
64.8434
 21
1.02681
  0
LINE
  8
0
 10
64.8434
 20
1.02681
 11
64.9635
 21
0.881668
  0
LINE
  8
0
 10
64.9635
 20
0.881668
 11
65.0645
 21
0.722626
  0
LINE
  8
0
 10
65.0645
 20
0.722626
 11
65.1447
 21
0.552185
  0
LINE
  8
0
 10
65.1447
 20
0.552185
 11
65.2029
 21
0.373032
  0
LINE
  8
0
 10
65.2029
 20
0.373032
 11
65.2382
 21
0.187988
  0
LINE
  8
0
 10
65.2382
 20
0.187988
 11
65.25
 21
0
  0
LINE
  8
0
 10
65.25
 20
0
 11
65.2382
 21
-0.187988
  0
LINE
  8
0
 10
65.2382
 20
-0.187988
 11
65.2029
 21
-0.373032
  0
LINE
  8
0
 10
65.2029
 20
-0.373032
 11
65.1447
 21
-0.552185
  0
LINE
  8
0
 10
65.1447
 20
-0.552185
 11
65.0645
 21
-0.722626
  0
LINE
  8
0
 10
65.0645
 20
-0.722626
 11
64.9635
 21
-0.881668
  0
LINE
  8
0
 10
64.9635
 20
-0.881668
 11
64.8434
 21
-1.02681
  0
LINE
  8
0
 10
64.8434
 20
-1.02681
 11
64.7061
 21
-1.15576
  0
LINE
  8
0
 10
64.7061
 20
-1.15576
 11
64.5537
 21
-1.26648
  0
LINE
  8
0
 10
64.5537
 20
-1.26648
 11
64.3887
 21
-1.35724
  0
LINE
  8
0
 10
64.3887
 20
-1.35724
 11
64.2135
 21
-1.42657
  0
LINE
  8
0
 10
64.2135
 20
-1.42657
 11
64.0311
 21
-1.47342
  0
LINE
  8
0
 10
64.0311
 20
-1.47342
 11
63.8442
 21
-1.49704
  0
LINE
  8
0
 10
63.8442
 20
-1.49704
 11
63.6558
 21
-1.49704
  0
LINE
  8
0
 10
71.1558
 20
-1.49704
 11
70.9689
 21
-1.47342
  0
LINE
  8
0
 10
70.9689
 20
-1.47342
 11
70.7865
 21
-1.42657
  0
LINE
  8
0
 10
70.7865
 20
-1.42657
 11
70.6113
 21
-1.35724
  0
LINE
  8
0
 10
70.6113
 20
-1.35724
 11
70.4463
 21
-1.26648
  0
LINE
  8
0
 10
70.4463
 20
-1.26648
 11
70.2939
 21
-1.15576
  0
LINE
  8
0
 10
70.2939
 20
-1.15576
 11
70.1565
 21
-1.02681
  0
LINE
  8
0
 10
70.1565
 20
-1.02681
 11
70.0365
 21
-0.881668
  0
LINE
  8
0
 10
70.0365
 20
-0.881668
 11
69.9355
 21
-0.722626
  0
LINE
  8
0
 10
69.9355
 20
-0.722626
 11
69.8553
 21
-0.552185
  0
LINE
  8
0
 10
69.8553
 20
-0.552185
 11
69.7971
 21
-0.373032
  0
LINE
  8
0
 10
69.7971
 20
-0.373032
 11
69.7618
 21
-0.187988
  0
LINE
  8
0
 10
69.7618
 20
-0.187988
 11
69.75
 21
0
  0
LINE
  8
0
 10
69.75
 20
0
 11
69.7618
 21
0.187988
  0
LINE
  8
0
 10
69.7618
 20
0.187988
 11
69.7971
 21
0.373032
  0
LINE
  8
0
 10
69.7971
 20
0.373032
 11
69.8553
 21
0.552185
  0
LINE
  8
0
 10
69.8553
 20
0.552185
 11
69.9355
 21
0.722626
  0
LINE
  8
0
 10
69.9355
 20
0.722626
 11
70.0365
 21
0.881668
  0
LINE
  8
0
 10
70.0365
 20
0.881668
 11
70.1565
 21
1.02681
  0
LINE
  8
0
 10
70.1565
 20
1.02681
 11
70.2939
 21
1.15576
  0
LINE
  8
0
 10
70.2939
 20
1.15576
 11
70.4463
 21
1.26648
  0
LINE
  8
0
 10
70.4463
 20
1.26648
 11
70.6113
 21
1.35724
  0
LINE
  8
0
 10
70.6113
 20
1.35724
 11
70.7865
 21
1.42657
  0
LINE
  8
0
 10
70.7865
 20
1.42657
 11
70.9689
 21
1.47342
  0
LINE
  8
0
 10
70.9689
 20
1.47342
 11
71.1558
 21
1.49704
  0
LINE
  8
0
 10
71.1558
 20
1.49704
 11
71.3442
 21
1.49704
  0
LINE
  8
0
 10
71.3442
 20
1.49704
 11
71.5311
 21
1.47342
  0
LINE
  8
0
 10
71.5311
 20
1.47342
 11
71.7135
 21
1.42657
  0
LINE
  8
0
 10
71.7135
 20
1.42657
 11
71.8887
 21
1.35724
  0
LINE
  8
0
 10
71.8887
 20
1.35724
 11
72.0537
 21
1.26648
  0
LINE
  8
0
 10
72.0537
 20
1.26648
 11
72.2061
 21
1.15576
  0
LINE
  8
0
 10
72.2061
 20
1.15576
 11
72.3434
 21
1.02681
  0
LINE
  8
0
 10
72.3434
 20
1.02681
 11
72.4635
 21
0.881668
  0
LINE
  8
0
 10
72.4635
 20
0.881668
 11
72.5645
 21
0.722626
  0
LINE
  8
0
 10
72.5645
 20
0.722626
 11
72.6447
 21
0.552185
  0
LINE
  8
0
 10
72.6447
 20
0.552185
 11
72.7029
 21
0.373032
  0
LINE
  8
0
 10
72.7029
 20
0.373032
 11
72.7382
 21
0.187988
  0
LINE
  8
0
 10
72.7382
 20
0.187988
 11
72.75
 21
0
  0
LINE
  8
0
 10
72.75
 20
0
 11
72.7382
 21
-0.187988
  0
LINE
  8
0
 10
72.7382
 20
-0.187988
 11
72.7029
 21
-0.373032
  0
LINE
  8
0
 10
72.7029
 20
-0.373032
 11
72.6447
 21
-0.552185
  0
LINE
  8
0
 10
72.6447
 20
-0.552185
 11
72.5645
 21
-0.722626
  0
LINE
  8
0
 10
72.5645
 20
-0.722626
 11
72.4635
 21
-0.881668
  0
LINE
  8
0
 10
72.4635
 20
-0.881668
 11
72.3434
 21
-1.02681
  0
LINE
  8
0
 10
72.3434
 20
-1.02681
 11
72.2061
 21
-1.15576
  0
LINE
  8
0
 10
72.2061
 20
-1.15576
 11
72.0537
 21
-1.26648
  0
LINE
  8
0
 10
72.0537
 20
-1.26648
 11
71.8887
 21
-1.35724
  0
LINE
  8
0
 10
71.8887
 20
-1.35724
 11
71.7135
 21
-1.42657
  0
LINE
  8
0
 10
71.7135
 20
-1.42657
 11
71.5311
 21
-1.47342
  0
LINE
  8
0
 10
71.5311
 20
-1.47342
 11
71.3442
 21
-1.49704
  0
LINE
  8
0
 10
71.3442
 20
-1.49704
 11
71.1558
 21
-1.49704
  0
ENDSEC
  0
SECTION
  2
OBJECTS
  0
DICTIONARY
  0
ENDSEC
  0
EOF
