  0
SECTION
  2
BLOCKS
  0
ENDSEC
  0
SECTION
  2
ENTITIES
  0
LINE
  8
0
 10
20.2184
 20
-3.4557
 11
20.5225
 21
-3.37764
  0
LINE
  8
0
 10
20.5225
 20
-3.37764
 11
20.8144
 21
-3.26205
  0
LINE
  8
0
 10
20.8144
 20
-3.26205
 11
21.0896
 21
-3.11081
  0
LINE
  8
0
 10
21.0896
 20
-3.11081
 11
21.3436
 21
-2.92627
  0
LINE
  8
0
 10
21.3436
 20
-2.92627
 11
21.5724
 21
-2.71136
  0
LINE
  8
0
 10
21.5724
 20
-2.71136
 11
21.7725
 21
-2.46945
  0
LINE
  8
0
 10
21.7725
 20
-2.46945
 11
21.9408
 21
-2.20438
  0
LINE
  8
0
 10
21.9408
 20
-2.20438
 11
22.0744
 21
-1.9203
  0
LINE
  8
0
 10
22.0744
 20
-1.9203
 11
22.1714
 21
-1.62172
  0
LINE
  8
0
 10
22.1714
 20
-1.62172
 11
22.2303
 21
-1.31332
  0
LINE
  8
0
 10
22.2303
 20
-1.31332
 11
22.25
 21
-1
  0
LINE
  8
0
 10
22.25
 20
-1
 11
22.25
 21
1
  0
LINE
  8
0
 10
22.25
 20
1
 11
22.2303
 21
1.31332
  0
LINE
  8
0
 10
22.2303
 20
1.31332
 11
22.1714
 21
1.62172
  0
LINE
  8
0
 10
22.1714
 20
1.62172
 11
22.0744
 21
1.9203
  0
LINE
  8
0
 10
22.0744
 20
1.9203
 11
21.9408
 21
2.20438
  0
LINE
  8
0
 10
21.9408
 20
2.20438
 11
21.7725
 21
2.46945
  0
LINE
  8
0
 10
21.7725
 20
2.46945
 11
21.5724
 21
2.71136
  0
LINE
  8
0
 10
21.5724
 20
2.71136
 11
21.3436
 21
2.92627
  0
LINE
  8
0
 10
21.3436
 20
2.92627
 11
21.0896
 21
3.11081
  0
LINE
  8
0
 10
21.0896
 20
3.11081
 11
20.8144
 21
3.26205
  0
LINE
  8
0
 10
20.8144
 20
3.26205
 11
20.5225
 21
3.37764
  0
LINE
  8
0
 10
20.5225
 20
3.37764
 11
20.2184
 21
3.4557
  0
LINE
  8
0
 10
20.2184
 20
3.4557
 11
19.907
 21
3.49506
  0
LINE
  8
0
 10
19.907
 20
3.49506
 11
-19.907
 21
3.49506
  0
LINE
  8
0
 10
-19.907
 20
3.49506
 11
-20.2184
 21
3.4557
  0
LINE
  8
0
 10
-20.2184
 20
3.4557
 11
-20.5225
 21
3.37764
  0
LINE
  8
0
 10
-20.5225
 20
3.37764
 11
-20.8144
 21
3.26205
  0
LINE
  8
0
 10
-20.8144
 20
3.26205
 11
-21.0896
 21
3.11081
  0
LINE
  8
0
 10
-21.0896
 20
3.11081
 11
-21.3436
 21
2.92627
  0
LINE
  8
0
 10
-21.3436
 20
2.92627
 11
-21.5724
 21
2.71136
  0
LINE
  8
0
 10
-21.5724
 20
2.71136
 11
-21.7725
 21
2.46945
  0
LINE
  8
0
 10
-21.7725
 20
2.46945
 11
-21.9408
 21
2.20438
  0
LINE
  8
0
 10
-21.9408
 20
2.20438
 11
-22.0744
 21
1.9203
  0
LINE
  8
0
 10
-22.0744
 20
1.9203
 11
-22.1714
 21
1.62172
  0
LINE
  8
0
 10
-22.1714
 20
1.62172
 11
-22.2303
 21
1.31332
  0
LINE
  8
0
 10
-22.2303
 20
1.31332
 11
-22.25
 21
1
  0
LINE
  8
0
 10
-22.25
 20
1
 11
-22.25
 21
-1
  0
LINE
  8
0
 10
-22.25
 20
-1
 11
-22.2303
 21
-1.31332
  0
LINE
  8
0
 10
-22.2303
 20
-1.31332
 11
-22.1714
 21
-1.62172
  0
LINE
  8
0
 10
-22.1714
 20
-1.62172
 11
-22.0744
 21
-1.9203
  0
LINE
  8
0
 10
-22.0744
 20
-1.9203
 11
-21.9408
 21
-2.20438
  0
LINE
  8
0
 10
-21.9408
 20
-2.20438
 11
-21.7725
 21
-2.46945
  0
LINE
  8
0
 10
-21.7725
 20
-2.46945
 11
-21.5724
 21
-2.71136
  0
LINE
  8
0
 10
-21.5724
 20
-2.71136
 11
-21.3436
 21
-2.92627
  0
LINE
  8
0
 10
-21.3436
 20
-2.92627
 11
-21.0896
 21
-3.11081
  0
LINE
  8
0
 10
-21.0896
 20
-3.11081
 11
-20.8144
 21
-3.26205
  0
LINE
  8
0
 10
-20.8144
 20
-3.26205
 11
-20.5225
 21
-3.37764
  0
LINE
  8
0
 10
-20.5225
 20
-3.37764
 11
-20.2184
 21
-3.4557
  0
LINE
  8
0
 10
-20.2184
 20
-3.4557
 11
-19.907
 21
-3.49506
  0
LINE
  8
0
 10
-19.907
 20
-3.49506
 11
19.907
 21
-3.49506
  0
LINE
  8
0
 10
19.907
 20
-3.49506
 11
20.2184
 21
-3.4557
  0
LINE
  8
0
 10
18.6558
 20
-1.49704
 11
18.4689
 21
-1.47342
  0
LINE
  8
0
 10
18.4689
 20
-1.47342
 11
18.2865
 21
-1.42657
  0
LINE
  8
0
 10
18.2865
 20
-1.42657
 11
18.1113
 21
-1.35724
  0
LINE
  8
0
 10
18.1113
 20
-1.35724
 11
17.9463
 21
-1.26648
  0
LINE
  8
0
 10
17.9463
 20
-1.26648
 11
17.7939
 21
-1.15576
  0
LINE
  8
0
 10
17.7939
 20
-1.15576
 11
17.6565
 21
-1.02681
  0
LINE
  8
0
 10
17.6565
 20
-1.02681
 11
17.5365
 21
-0.881668
  0
LINE
  8
0
 10
17.5365
 20
-0.881668
 11
17.4355
 21
-0.722626
  0
LINE
  8
0
 10
17.4355
 20
-0.722626
 11
17.3553
 21
-0.552185
  0
LINE
  8
0
 10
17.3553
 20
-0.552185
 11
17.2971
 21
-0.373032
  0
LINE
  8
0
 10
17.2971
 20
-0.373032
 11
17.2618
 21
-0.187988
  0
LINE
  8
0
 10
17.2618
 20
-0.187988
 11
17.25
 21
0
  0
LINE
  8
0
 10
17.25
 20
0
 11
17.2618
 21
0.187988
  0
LINE
  8
0
 10
17.2618
 20
0.187988
 11
17.2971
 21
0.373032
  0
LINE
  8
0
 10
17.2971
 20
0.373032
 11
17.3553
 21
0.552185
  0
LINE
  8
0
 10
17.3553
 20
0.552185
 11
17.4355
 21
0.722626
  0
LINE
  8
0
 10
17.4355
 20
0.722626
 11
17.5365
 21
0.881668
  0
LINE
  8
0
 10
17.5365
 20
0.881668
 11
17.6565
 21
1.02681
  0
LINE
  8
0
 10
17.6565
 20
1.02681
 11
17.7939
 21
1.15576
  0
LINE
  8
0
 10
17.7939
 20
1.15576
 11
17.9463
 21
1.26648
  0
LINE
  8
0
 10
17.9463
 20
1.26648
 11
18.1113
 21
1.35724
  0
LINE
  8
0
 10
18.1113
 20
1.35724
 11
18.2865
 21
1.42657
  0
LINE
  8
0
 10
18.2865
 20
1.42657
 11
18.4689
 21
1.47342
  0
LINE
  8
0
 10
18.4689
 20
1.47342
 11
18.6558
 21
1.49704
  0
LINE
  8
0
 10
18.6558
 20
1.49704
 11
18.8442
 21
1.49704
  0
LINE
  8
0
 10
18.8442
 20
1.49704
 11
19.0311
 21
1.47342
  0
LINE
  8
0
 10
19.0311
 20
1.47342
 11
19.2135
 21
1.42657
  0
LINE
  8
0
 10
19.2135
 20
1.42657
 11
19.3887
 21
1.35724
  0
LINE
  8
0
 10
19.3887
 20
1.35724
 11
19.5537
 21
1.26648
  0
LINE
  8
0
 10
19.5537
 20
1.26648
 11
19.7061
 21
1.15576
  0
LINE
  8
0
 10
19.7061
 20
1.15576
 11
19.8434
 21
1.02681
  0
LINE
  8
0
 10
19.8434
 20
1.02681
 11
19.9635
 21
0.881668
  0
LINE
  8
0
 10
19.9635
 20
0.881668
 11
20.0645
 21
0.722626
  0
LINE
  8
0
 10
20.0645
 20
0.722626
 11
20.1447
 21
0.552185
  0
LINE
  8
0
 10
20.1447
 20
0.552185
 11
20.2029
 21
0.373032
  0
LINE
  8
0
 10
20.2029
 20
0.373032
 11
20.2382
 21
0.187988
  0
LINE
  8
0
 10
20.2382
 20
0.187988
 11
20.25
 21
0
  0
LINE
  8
0
 10
20.25
 20
0
 11
20.2382
 21
-0.187988
  0
LINE
  8
0
 10
20.2382
 20
-0.187988
 11
20.2029
 21
-0.373032
  0
LINE
  8
0
 10
20.2029
 20
-0.373032
 11
20.1447
 21
-0.552185
  0
LINE
  8
0
 10
20.1447
 20
-0.552185
 11
20.0645
 21
-0.722626
  0
LINE
  8
0
 10
20.0645
 20
-0.722626
 11
19.9635
 21
-0.881668
  0
LINE
  8
0
 10
19.9635
 20
-0.881668
 11
19.8434
 21
-1.02681
  0
LINE
  8
0
 10
19.8434
 20
-1.02681
 11
19.7061
 21
-1.15576
  0
LINE
  8
0
 10
19.7061
 20
-1.15576
 11
19.5537
 21
-1.26648
  0
LINE
  8
0
 10
19.5537
 20
-1.26648
 11
19.3887
 21
-1.35724
  0
LINE
  8
0
 10
19.3887
 20
-1.35724
 11
19.2135
 21
-1.42657
  0
LINE
  8
0
 10
19.2135
 20
-1.42657
 11
19.0311
 21
-1.47342
  0
LINE
  8
0
 10
19.0311
 20
-1.47342
 11
18.8442
 21
-1.49704
  0
LINE
  8
0
 10
18.8442
 20
-1.49704
 11
18.6558
 21
-1.49704
  0
LINE
  8
0
 10
-18.8442
 20
-1.49704
 11
-19.0311
 21
-1.47342
  0
LINE
  8
0
 10
-19.0311
 20
-1.47342
 11
-19.2135
 21
-1.42657
  0
LINE
  8
0
 10
-19.2135
 20
-1.42657
 11
-19.3887
 21
-1.35724
  0
LINE
  8
0
 10
-19.3887
 20
-1.35724
 11
-19.5537
 21
-1.26648
  0
LINE
  8
0
 10
-19.5537
 20
-1.26648
 11
-19.7061
 21
-1.15576
  0
LINE
  8
0
 10
-19.7061
 20
-1.15576
 11
-19.8434
 21
-1.02681
  0
LINE
  8
0
 10
-19.8434
 20
-1.02681
 11
-19.9635
 21
-0.881668
  0
LINE
  8
0
 10
-19.9635
 20
-0.881668
 11
-20.0645
 21
-0.722626
  0
LINE
  8
0
 10
-20.0645
 20
-0.722626
 11
-20.1447
 21
-0.552185
  0
LINE
  8
0
 10
-20.1447
 20
-0.552185
 11
-20.2029
 21
-0.373032
  0
LINE
  8
0
 10
-20.2029
 20
-0.373032
 11
-20.2382
 21
-0.187988
  0
LINE
  8
0
 10
-20.2382
 20
-0.187988
 11
-20.25
 21
0
  0
LINE
  8
0
 10
-20.25
 20
0
 11
-20.2382
 21
0.187988
  0
LINE
  8
0
 10
-20.2382
 20
0.187988
 11
-20.2029
 21
0.373032
  0
LINE
  8
0
 10
-20.2029
 20
0.373032
 11
-20.1447
 21
0.552185
  0
LINE
  8
0
 10
-20.1447
 20
0.552185
 11
-20.0645
 21
0.722626
  0
LINE
  8
0
 10
-20.0645
 20
0.722626
 11
-19.9635
 21
0.881668
  0
LINE
  8
0
 10
-19.9635
 20
0.881668
 11
-19.8434
 21
1.02681
  0
LINE
  8
0
 10
-19.8434
 20
1.02681
 11
-19.7061
 21
1.15576
  0
LINE
  8
0
 10
-19.7061
 20
1.15576
 11
-19.5537
 21
1.26648
  0
LINE
  8
0
 10
-19.5537
 20
1.26648
 11
-19.3887
 21
1.35724
  0
LINE
  8
0
 10
-19.3887
 20
1.35724
 11
-19.2135
 21
1.42657
  0
LINE
  8
0
 10
-19.2135
 20
1.42657
 11
-19.0311
 21
1.47342
  0
LINE
  8
0
 10
-19.0311
 20
1.47342
 11
-18.8442
 21
1.49704
  0
LINE
  8
0
 10
-18.8442
 20
1.49704
 11
-18.6558
 21
1.49704
  0
LINE
  8
0
 10
-18.6558
 20
1.49704
 11
-18.4689
 21
1.47342
  0
LINE
  8
0
 10
-18.4689
 20
1.47342
 11
-18.2865
 21
1.42657
  0
LINE
  8
0
 10
-18.2865
 20
1.42657
 11
-18.1113
 21
1.35724
  0
LINE
  8
0
 10
-18.1113
 20
1.35724
 11
-17.9463
 21
1.26648
  0
LINE
  8
0
 10
-17.9463
 20
1.26648
 11
-17.7939
 21
1.15576
  0
LINE
  8
0
 10
-17.7939
 20
1.15576
 11
-17.6565
 21
1.02681
  0
LINE
  8
0
 10
-17.6565
 20
1.02681
 11
-17.5365
 21
0.881668
  0
LINE
  8
0
 10
-17.5365
 20
0.881668
 11
-17.4355
 21
0.722626
  0
LINE
  8
0
 10
-17.4355
 20
0.722626
 11
-17.3553
 21
0.552185
  0
LINE
  8
0
 10
-17.3553
 20
0.552185
 11
-17.2971
 21
0.373032
  0
LINE
  8
0
 10
-17.2971
 20
0.373032
 11
-17.2618
 21
0.187988
  0
LINE
  8
0
 10
-17.2618
 20
0.187988
 11
-17.25
 21
0
  0
LINE
  8
0
 10
-17.25
 20
0
 11
-17.2618
 21
-0.187988
  0
LINE
  8
0
 10
-17.2618
 20
-0.187988
 11
-17.2971
 21
-0.373032
  0
LINE
  8
0
 10
-17.2971
 20
-0.373032
 11
-17.3553
 21
-0.552185
  0
LINE
  8
0
 10
-17.3553
 20
-0.552185
 11
-17.4355
 21
-0.722626
  0
LINE
  8
0
 10
-17.4355
 20
-0.722626
 11
-17.5365
 21
-0.881668
  0
LINE
  8
0
 10
-17.5365
 20
-0.881668
 11
-17.6565
 21
-1.02681
  0
LINE
  8
0
 10
-17.6565
 20
-1.02681
 11
-17.7939
 21
-1.15576
  0
LINE
  8
0
 10
-17.7939
 20
-1.15576
 11
-17.9463
 21
-1.26648
  0
LINE
  8
0
 10
-17.9463
 20
-1.26648
 11
-18.1113
 21
-1.35724
  0
LINE
  8
0
 10
-18.1113
 20
-1.35724
 11
-18.2865
 21
-1.42657
  0
LINE
  8
0
 10
-18.2865
 20
-1.42657
 11
-18.4689
 21
-1.47342
  0
LINE
  8
0
 10
-18.4689
 20
-1.47342
 11
-18.6558
 21
-1.49704
  0
LINE
  8
0
 10
-18.6558
 20
-1.49704
 11
-18.8442
 21
-1.49704
  0
LINE
  8
0
 10
11.1558
 20
-1.49704
 11
10.9689
 21
-1.47342
  0
LINE
  8
0
 10
10.9689
 20
-1.47342
 11
10.7865
 21
-1.42657
  0
LINE
  8
0
 10
10.7865
 20
-1.42657
 11
10.6113
 21
-1.35724
  0
LINE
  8
0
 10
10.6113
 20
-1.35724
 11
10.4463
 21
-1.26648
  0
LINE
  8
0
 10
10.4463
 20
-1.26648
 11
10.2939
 21
-1.15576
  0
LINE
  8
0
 10
10.2939
 20
-1.15576
 11
10.1565
 21
-1.02681
  0
LINE
  8
0
 10
10.1565
 20
-1.02681
 11
10.0365
 21
-0.881668
  0
LINE
  8
0
 10
10.0365
 20
-0.881668
 11
9.93553
 21
-0.722626
  0
LINE
  8
0
 10
9.93553
 20
-0.722626
 11
9.85533
 21
-0.552185
  0
LINE
  8
0
 10
9.85533
 20
-0.552185
 11
9.79712
 21
-0.373032
  0
LINE
  8
0
 10
9.79712
 20
-0.373032
 11
9.76183
 21
-0.187988
  0
LINE
  8
0
 10
9.76183
 20
-0.187988
 11
9.75
 21
0
  0
LINE
  8
0
 10
9.75
 20
0
 11
9.76183
 21
0.187988
  0
LINE
  8
0
 10
9.76183
 20
0.187988
 11
9.79712
 21
0.373032
  0
LINE
  8
0
 10
9.79712
 20
0.373032
 11
9.85533
 21
0.552185
  0
LINE
  8
0
 10
9.85533
 20
0.552185
 11
9.93553
 21
0.722626
  0
LINE
  8
0
 10
9.93553
 20
0.722626
 11
10.0365
 21
0.881668
  0
LINE
  8
0
 10
10.0365
 20
0.881668
 11
10.1565
 21
1.02681
  0
LINE
  8
0
 10
10.1565
 20
1.02681
 11
10.2939
 21
1.15576
  0
LINE
  8
0
 10
10.2939
 20
1.15576
 11
10.4463
 21
1.26648
  0
LINE
  8
0
 10
10.4463
 20
1.26648
 11
10.6113
 21
1.35724
  0
LINE
  8
0
 10
10.6113
 20
1.35724
 11
10.7865
 21
1.42657
  0
LINE
  8
0
 10
10.7865
 20
1.42657
 11
10.9689
 21
1.47342
  0
LINE
  8
0
 10
10.9689
 20
1.47342
 11
11.1558
 21
1.49704
  0
LINE
  8
0
 10
11.1558
 20
1.49704
 11
11.3442
 21
1.49704
  0
LINE
  8
0
 10
11.3442
 20
1.49704
 11
11.5311
 21
1.47342
  0
LINE
  8
0
 10
11.5311
 20
1.47342
 11
11.7135
 21
1.42657
  0
LINE
  8
0
 10
11.7135
 20
1.42657
 11
11.8887
 21
1.35724
  0
LINE
  8
0
 10
11.8887
 20
1.35724
 11
12.0537
 21
1.26648
  0
LINE
  8
0
 10
12.0537
 20
1.26648
 11
12.2061
 21
1.15576
  0
LINE
  8
0
 10
12.2061
 20
1.15576
 11
12.3434
 21
1.02681
  0
LINE
  8
0
 10
12.3434
 20
1.02681
 11
12.4635
 21
0.881668
  0
LINE
  8
0
 10
12.4635
 20
0.881668
 11
12.5645
 21
0.722626
  0
LINE
  8
0
 10
12.5645
 20
0.722626
 11
12.6447
 21
0.552185
  0
LINE
  8
0
 10
12.6447
 20
0.552185
 11
12.7029
 21
0.373032
  0
LINE
  8
0
 10
12.7029
 20
0.373032
 11
12.7382
 21
0.187988
  0
LINE
  8
0
 10
12.7382
 20
0.187988
 11
12.75
 21
0
  0
LINE
  8
0
 10
12.75
 20
0
 11
12.7382
 21
-0.187988
  0
LINE
  8
0
 10
12.7382
 20
-0.187988
 11
12.7029
 21
-0.373032
  0
LINE
  8
0
 10
12.7029
 20
-0.373032
 11
12.6447
 21
-0.552185
  0
LINE
  8
0
 10
12.6447
 20
-0.552185
 11
12.5645
 21
-0.722626
  0
LINE
  8
0
 10
12.5645
 20
-0.722626
 11
12.4635
 21
-0.881668
  0
LINE
  8
0
 10
12.4635
 20
-0.881668
 11
12.3434
 21
-1.02681
  0
LINE
  8
0
 10
12.3434
 20
-1.02681
 11
12.2061
 21
-1.15576
  0
LINE
  8
0
 10
12.2061
 20
-1.15576
 11
12.0537
 21
-1.26648
  0
LINE
  8
0
 10
12.0537
 20
-1.26648
 11
11.8887
 21
-1.35724
  0
LINE
  8
0
 10
11.8887
 20
-1.35724
 11
11.7135
 21
-1.42657
  0
LINE
  8
0
 10
11.7135
 20
-1.42657
 11
11.5311
 21
-1.47342
  0
LINE
  8
0
 10
11.5311
 20
-1.47342
 11
11.3442
 21
-1.49704
  0
LINE
  8
0
 10
11.3442
 20
-1.49704
 11
11.1558
 21
-1.49704
  0
LINE
  8
0
 10
3.65581
 20
-1.49704
 11
3.46892
 21
-1.47342
  0
LINE
  8
0
 10
3.46892
 20
-1.47342
 11
3.28647
 21
-1.42657
  0
LINE
  8
0
 10
3.28647
 20
-1.42657
 11
3.11133
 21
-1.35724
  0
LINE
  8
0
 10
3.11133
 20
-1.35724
 11
2.94626
 21
-1.26648
  0
LINE
  8
0
 10
2.94626
 20
-1.26648
 11
2.79385
 21
-1.15576
  0
LINE
  8
0
 10
2.79385
 20
-1.15576
 11
2.65654
 21
-1.02681
  0
LINE
  8
0
 10
2.65654
 20
-1.02681
 11
2.53647
 21
-0.881668
  0
LINE
  8
0
 10
2.53647
 20
-0.881668
 11
2.43553
 21
-0.722626
  0
LINE
  8
0
 10
2.43553
 20
-0.722626
 11
2.35533
 21
-0.552185
  0
LINE
  8
0
 10
2.35533
 20
-0.552185
 11
2.29712
 21
-0.373032
  0
LINE
  8
0
 10
2.29712
 20
-0.373032
 11
2.26183
 21
-0.187988
  0
LINE
  8
0
 10
2.26183
 20
-0.187988
 11
2.25
 21
0
  0
LINE
  8
0
 10
2.25
 20
0
 11
2.26183
 21
0.187988
  0
LINE
  8
0
 10
2.26183
 20
0.187988
 11
2.29712
 21
0.373032
  0
LINE
  8
0
 10
2.29712
 20
0.373032
 11
2.35533
 21
0.552185
  0
LINE
  8
0
 10
2.35533
 20
0.552185
 11
2.43553
 21
0.722626
  0
LINE
  8
0
 10
2.43553
 20
0.722626
 11
2.53647
 21
0.881668
  0
LINE
  8
0
 10
2.53647
 20
0.881668
 11
2.65654
 21
1.02681
  0
LINE
  8
0
 10
2.65654
 20
1.02681
 11
2.79385
 21
1.15576
  0
LINE
  8
0
 10
2.79385
 20
1.15576
 11
2.94626
 21
1.26648
  0
LINE
  8
0
 10
2.94626
 20
1.26648
 11
3.11133
 21
1.35724
  0
LINE
  8
0
 10
3.11133
 20
1.35724
 11
3.28647
 21
1.42657
  0
LINE
  8
0
 10
3.28647
 20
1.42657
 11
3.46892
 21
1.47342
  0
LINE
  8
0
 10
3.46892
 20
1.47342
 11
3.65581
 21
1.49704
  0
LINE
  8
0
 10
3.65581
 20
1.49704
 11
3.84418
 21
1.49704
  0
LINE
  8
0
 10
3.84418
 20
1.49704
 11
4.03107
 21
1.47342
  0
LINE
  8
0
 10
4.03107
 20
1.47342
 11
4.21352
 21
1.42657
  0
LINE
  8
0
 10
4.21352
 20
1.42657
 11
4.38866
 21
1.35724
  0
LINE
  8
0
 10
4.38866
 20
1.35724
 11
4.55373
 21
1.26648
  0
LINE
  8
0
 10
4.55373
 20
1.26648
 11
4.70613
 21
1.15576
  0
LINE
  8
0
 10
4.70613
 20
1.15576
 11
4.84344
 21
1.02681
  0
LINE
  8
0
 10
4.84344
 20
1.02681
 11
4.96352
 21
0.881668
  0
LINE
  8
0
 10
4.96352
 20
0.881668
 11
5.06445
 21
0.722626
  0
LINE
  8
0
 10
5.06445
 20
0.722626
 11
5.14465
 21
0.552185
  0
LINE
  8
0
 10
5.14465
 20
0.552185
 11
5.20287
 21
0.373032
  0
LINE
  8
0
 10
5.20287
 20
0.373032
 11
5.23816
 21
0.187988
  0
LINE
  8
0
 10
5.23816
 20
0.187988
 11
5.25
 21
0
  0
LINE
  8
0
 10
5.25
 20
0
 11
5.23816
 21
-0.187988
  0
LINE
  8
0
 10
5.23816
 20
-0.187988
 11
5.20287
 21
-0.373032
  0
LINE
  8
0
 10
5.20287
 20
-0.373032
 11
5.14465
 21
-0.552185
  0
LINE
  8
0
 10
5.14465
 20
-0.552185
 11
5.06445
 21
-0.722626
  0
LINE
  8
0
 10
5.06445
 20
-0.722626
 11
4.96352
 21
-0.881668
  0
LINE
  8
0
 10
4.96352
 20
-0.881668
 11
4.84344
 21
-1.02681
  0
LINE
  8
0
 10
4.84344
 20
-1.02681
 11
4.70613
 21
-1.15576
  0
LINE
  8
0
 10
4.70613
 20
-1.15576
 11
4.55373
 21
-1.26648
  0
LINE
  8
0
 10
4.55373
 20
-1.26648
 11
4.38866
 21
-1.35724
  0
LINE
  8
0
 10
4.38866
 20
-1.35724
 11
4.21352
 21
-1.42657
  0
LINE
  8
0
 10
4.21352
 20
-1.42657
 11
4.03107
 21
-1.47342
  0
LINE
  8
0
 10
4.03107
 20
-1.47342
 11
3.84418
 21
-1.49704
  0
LINE
  8
0
 10
3.84418
 20
-1.49704
 11
3.65581
 21
-1.49704
  0
LINE
  8
0
 10
-3.84418
 20
-1.49704
 11
-4.03107
 21
-1.47342
  0
LINE
  8
0
 10
-4.03107
 20
-1.47342
 11
-4.21352
 21
-1.42657
  0
LINE
  8
0
 10
-4.21352
 20
-1.42657
 11
-4.38866
 21
-1.35724
  0
LINE
  8
0
 10
-4.38866
 20
-1.35724
 11
-4.55373
 21
-1.26648
  0
LINE
  8
0
 10
-4.55373
 20
-1.26648
 11
-4.70613
 21
-1.15576
  0
LINE
  8
0
 10
-4.70613
 20
-1.15576
 11
-4.84344
 21
-1.02681
  0
LINE
  8
0
 10
-4.84344
 20
-1.02681
 11
-4.96352
 21
-0.881668
  0
LINE
  8
0
 10
-4.96352
 20
-0.881668
 11
-5.06445
 21
-0.722626
  0
LINE
  8
0
 10
-5.06445
 20
-0.722626
 11
-5.14465
 21
-0.552185
  0
LINE
  8
0
 10
-5.14465
 20
-0.552185
 11
-5.20287
 21
-0.373032
  0
LINE
  8
0
 10
-5.20287
 20
-0.373032
 11
-5.23816
 21
-0.187988
  0
LINE
  8
0
 10
-5.23816
 20
-0.187988
 11
-5.25
 21
0
  0
LINE
  8
0
 10
-5.25
 20
0
 11
-5.23816
 21
0.187988
  0
LINE
  8
0
 10
-5.23816
 20
0.187988
 11
-5.20287
 21
0.373032
  0
LINE
  8
0
 10
-5.20287
 20
0.373032
 11
-5.14465
 21
0.552185
  0
LINE
  8
0
 10
-5.14465
 20
0.552185
 11
-5.06445
 21
0.722626
  0
LINE
  8
0
 10
-5.06445
 20
0.722626
 11
-4.96352
 21
0.881668
  0
LINE
  8
0
 10
-4.96352
 20
0.881668
 11
-4.84344
 21
1.02681
  0
LINE
  8
0
 10
-4.84344
 20
1.02681
 11
-4.70613
 21
1.15576
  0
LINE
  8
0
 10
-4.70613
 20
1.15576
 11
-4.55373
 21
1.26648
  0
LINE
  8
0
 10
-4.55373
 20
1.26648
 11
-4.38866
 21
1.35724
  0
LINE
  8
0
 10
-4.38866
 20
1.35724
 11
-4.21352
 21
1.42657
  0
LINE
  8
0
 10
-4.21352
 20
1.42657
 11
-4.03107
 21
1.47342
  0
LINE
  8
0
 10
-4.03107
 20
1.47342
 11
-3.84418
 21
1.49704
  0
LINE
  8
0
 10
-3.84418
 20
1.49704
 11
-3.65581
 21
1.49704
  0
LINE
  8
0
 10
-3.65581
 20
1.49704
 11
-3.46892
 21
1.47342
  0
LINE
  8
0
 10
-3.46892
 20
1.47342
 11
-3.28647
 21
1.42657
  0
LINE
  8
0
 10
-3.28647
 20
1.42657
 11
-3.11133
 21
1.35724
  0
LINE
  8
0
 10
-3.11133
 20
1.35724
 11
-2.94626
 21
1.26648
  0
LINE
  8
0
 10
-2.94626
 20
1.26648
 11
-2.79385
 21
1.15576
  0
LINE
  8
0
 10
-2.79385
 20
1.15576
 11
-2.65654
 21
1.02681
  0
LINE
  8
0
 10
-2.65654
 20
1.02681
 11
-2.53647
 21
0.881668
  0
LINE
  8
0
 10
-2.53647
 20
0.881668
 11
-2.43553
 21
0.722626
  0
LINE
  8
0
 10
-2.43553
 20
0.722626
 11
-2.35533
 21
0.552185
  0
LINE
  8
0
 10
-2.35533
 20
0.552185
 11
-2.29712
 21
0.373032
  0
LINE
  8
0
 10
-2.29712
 20
0.373032
 11
-2.26183
 21
0.187988
  0
LINE
  8
0
 10
-2.26183
 20
0.187988
 11
-2.25
 21
0
  0
LINE
  8
0
 10
-2.25
 20
0
 11
-2.26183
 21
-0.187988
  0
LINE
  8
0
 10
-2.26183
 20
-0.187988
 11
-2.29712
 21
-0.373032
  0
LINE
  8
0
 10
-2.29712
 20
-0.373032
 11
-2.35533
 21
-0.552185
  0
LINE
  8
0
 10
-2.35533
 20
-0.552185
 11
-2.43553
 21
-0.722626
  0
LINE
  8
0
 10
-2.43553
 20
-0.722626
 11
-2.53647
 21
-0.881668
  0
LINE
  8
0
 10
-2.53647
 20
-0.881668
 11
-2.65654
 21
-1.02681
  0
LINE
  8
0
 10
-2.65654
 20
-1.02681
 11
-2.79385
 21
-1.15576
  0
LINE
  8
0
 10
-2.79385
 20
-1.15576
 11
-2.94626
 21
-1.26648
  0
LINE
  8
0
 10
-2.94626
 20
-1.26648
 11
-3.11133
 21
-1.35724
  0
LINE
  8
0
 10
-3.11133
 20
-1.35724
 11
-3.28647
 21
-1.42657
  0
LINE
  8
0
 10
-3.28647
 20
-1.42657
 11
-3.46892
 21
-1.47342
  0
LINE
  8
0
 10
-3.46892
 20
-1.47342
 11
-3.65581
 21
-1.49704
  0
LINE
  8
0
 10
-3.65581
 20
-1.49704
 11
-3.84418
 21
-1.49704
  0
LINE
  8
0
 10
-11.3442
 20
-1.49704
 11
-11.5311
 21
-1.47342
  0
LINE
  8
0
 10
-11.5311
 20
-1.47342
 11
-11.7135
 21
-1.42657
  0
LINE
  8
0
 10
-11.7135
 20
-1.42657
 11
-11.8887
 21
-1.35724
  0
LINE
  8
0
 10
-11.8887
 20
-1.35724
 11
-12.0537
 21
-1.26648
  0
LINE
  8
0
 10
-12.0537
 20
-1.26648
 11
-12.2061
 21
-1.15576
  0
LINE
  8
0
 10
-12.2061
 20
-1.15576
 11
-12.3434
 21
-1.02681
  0
LINE
  8
0
 10
-12.3434
 20
-1.02681
 11
-12.4635
 21
-0.881668
  0
LINE
  8
0
 10
-12.4635
 20
-0.881668
 11
-12.5645
 21
-0.722626
  0
LINE
  8
0
 10
-12.5645
 20
-0.722626
 11
-12.6447
 21
-0.552185
  0
LINE
  8
0
 10
-12.6447
 20
-0.552185
 11
-12.7029
 21
-0.373032
  0
LINE
  8
0
 10
-12.7029
 20
-0.373032
 11
-12.7382
 21
-0.187988
  0
LINE
  8
0
 10
-12.7382
 20
-0.187988
 11
-12.75
 21
0
  0
LINE
  8
0
 10
-12.75
 20
0
 11
-12.7382
 21
0.187988
  0
LINE
  8
0
 10
-12.7382
 20
0.187988
 11
-12.7029
 21
0.373032
  0
LINE
  8
0
 10
-12.7029
 20
0.373032
 11
-12.6447
 21
0.552185
  0
LINE
  8
0
 10
-12.6447
 20
0.552185
 11
-12.5645
 21
0.722626
  0
LINE
  8
0
 10
-12.5645
 20
0.722626
 11
-12.4635
 21
0.881668
  0
LINE
  8
0
 10
-12.4635
 20
0.881668
 11
-12.3434
 21
1.02681
  0
LINE
  8
0
 10
-12.3434
 20
1.02681
 11
-12.2061
 21
1.15576
  0
LINE
  8
0
 10
-12.2061
 20
1.15576
 11
-12.0537
 21
1.26648
  0
LINE
  8
0
 10
-12.0537
 20
1.26648
 11
-11.8887
 21
1.35724
  0
LINE
  8
0
 10
-11.8887
 20
1.35724
 11
-11.7135
 21
1.42657
  0
LINE
  8
0
 10
-11.7135
 20
1.42657
 11
-11.5311
 21
1.47342
  0
LINE
  8
0
 10
-11.5311
 20
1.47342
 11
-11.3442
 21
1.49704
  0
LINE
  8
0
 10
-11.3442
 20
1.49704
 11
-11.1558
 21
1.49704
  0
LINE
  8
0
 10
-11.1558
 20
1.49704
 11
-10.9689
 21
1.47342
  0
LINE
  8
0
 10
-10.9689
 20
1.47342
 11
-10.7865
 21
1.42657
  0
LINE
  8
0
 10
-10.7865
 20
1.42657
 11
-10.6113
 21
1.35724
  0
LINE
  8
0
 10
-10.6113
 20
1.35724
 11
-10.4463
 21
1.26648
  0
LINE
  8
0
 10
-10.4463
 20
1.26648
 11
-10.2939
 21
1.15576
  0
LINE
  8
0
 10
-10.2939
 20
1.15576
 11
-10.1565
 21
1.02681
  0
LINE
  8
0
 10
-10.1565
 20
1.02681
 11
-10.0365
 21
0.881668
  0
LINE
  8
0
 10
-10.0365
 20
0.881668
 11
-9.93553
 21
0.722626
  0
LINE
  8
0
 10
-9.93553
 20
0.722626
 11
-9.85533
 21
0.552185
  0
LINE
  8
0
 10
-9.85533
 20
0.552185
 11
-9.79712
 21
0.373032
  0
LINE
  8
0
 10
-9.79712
 20
0.373032
 11
-9.76183
 21
0.187988
  0
LINE
  8
0
 10
-9.76183
 20
0.187988
 11
-9.75
 21
0
  0
LINE
  8
0
 10
-9.75
 20
0
 11
-9.76183
 21
-0.187988
  0
LINE
  8
0
 10
-9.76183
 20
-0.187988
 11
-9.79712
 21
-0.373032
  0
LINE
  8
0
 10
-9.79712
 20
-0.373032
 11
-9.85533
 21
-0.552185
  0
LINE
  8
0
 10
-9.85533
 20
-0.552185
 11
-9.93553
 21
-0.722626
  0
LINE
  8
0
 10
-9.93553
 20
-0.722626
 11
-10.0365
 21
-0.881668
  0
LINE
  8
0
 10
-10.0365
 20
-0.881668
 11
-10.1565
 21
-1.02681
  0
LINE
  8
0
 10
-10.1565
 20
-1.02681
 11
-10.2939
 21
-1.15576
  0
LINE
  8
0
 10
-10.2939
 20
-1.15576
 11
-10.4463
 21
-1.26648
  0
LINE
  8
0
 10
-10.4463
 20
-1.26648
 11
-10.6113
 21
-1.35724
  0
LINE
  8
0
 10
-10.6113
 20
-1.35724
 11
-10.7865
 21
-1.42657
  0
LINE
  8
0
 10
-10.7865
 20
-1.42657
 11
-10.9689
 21
-1.47342
  0
LINE
  8
0
 10
-10.9689
 20
-1.47342
 11
-11.1558
 21
-1.49704
  0
LINE
  8
0
 10
-11.1558
 20
-1.49704
 11
-11.3442
 21
-1.49704
  0
ENDSEC
  0
SECTION
  2
OBJECTS
  0
DICTIONARY
  0
ENDSEC
  0
EOF
