  0
SECTION
  2
BLOCKS
  0
ENDSEC
  0
SECTION
  2
ENTITIES
  0
LINE
  8
0
 10
11.1971
 20
-15.1717
 11
11.8053
 21
-15.0155
  0
LINE
  8
0
 10
11.8053
 20
-15.0155
 11
12.3891
 21
-14.7844
  0
LINE
  8
0
 10
12.3891
 20
-14.7844
 11
12.9394
 21
-14.4819
  0
LINE
  8
0
 10
12.9394
 20
-14.4819
 11
13.4474
 21
-14.1128
  0
LINE
  8
0
 10
13.4474
 20
-14.1128
 11
13.9051
 21
-13.683
  0
LINE
  8
0
 10
13.9051
 20
-13.683
 11
14.3053
 21
-13.1992
  0
LINE
  8
0
 10
14.3053
 20
-13.1992
 11
14.6418
 21
-12.669
  0
LINE
  8
0
 10
14.6418
 20
-12.669
 11
14.9091
 21
-12.1009
  0
LINE
  8
0
 10
14.9091
 20
-12.1009
 11
15.1032
 21
-11.5037
  0
LINE
  8
0
 10
15.1032
 20
-11.5037
 11
15.2208
 21
-10.8869
  0
LINE
  8
0
 10
15.2208
 20
-10.8869
 11
15.2602
 21
-10.2602
  0
LINE
  8
0
 10
15.2602
 20
-10.2602
 11
15.2602
 21
10.2602
  0
LINE
  8
0
 10
15.2602
 20
10.2602
 11
15.2208
 21
10.8869
  0
LINE
  8
0
 10
15.2208
 20
10.8869
 11
15.1032
 21
11.5037
  0
LINE
  8
0
 10
15.1032
 20
11.5037
 11
14.9091
 21
12.1009
  0
LINE
  8
0
 10
14.9091
 20
12.1009
 11
14.6418
 21
12.669
  0
LINE
  8
0
 10
14.6418
 20
12.669
 11
14.3053
 21
13.1992
  0
LINE
  8
0
 10
14.3053
 20
13.1992
 11
13.9051
 21
13.683
  0
LINE
  8
0
 10
13.9051
 20
13.683
 11
13.4474
 21
14.1128
  0
LINE
  8
0
 10
13.4474
 20
14.1128
 11
12.9394
 21
14.4819
  0
LINE
  8
0
 10
12.9394
 20
14.4819
 11
12.3891
 21
14.7844
  0
LINE
  8
0
 10
12.3891
 20
14.7844
 11
11.8053
 21
15.0155
  0
LINE
  8
0
 10
11.8053
 20
15.0155
 11
11.1971
 21
15.1717
  0
LINE
  8
0
 10
11.1971
 20
15.1717
 11
10.5742
 21
15.2504
  0
LINE
  8
0
 10
10.5742
 20
15.2504
 11
-10.5742
 21
15.2504
  0
LINE
  8
0
 10
-10.5742
 20
15.2504
 11
-11.1971
 21
15.1717
  0
LINE
  8
0
 10
-11.1971
 20
15.1717
 11
-11.8053
 21
15.0155
  0
LINE
  8
0
 10
-11.8053
 20
15.0155
 11
-12.3891
 21
14.7844
  0
LINE
  8
0
 10
-12.3891
 20
14.7844
 11
-12.9394
 21
14.4819
  0
LINE
  8
0
 10
-12.9394
 20
14.4819
 11
-13.4474
 21
14.1128
  0
LINE
  8
0
 10
-13.4474
 20
14.1128
 11
-13.9051
 21
13.683
  0
LINE
  8
0
 10
-13.9051
 20
13.683
 11
-14.3053
 21
13.1992
  0
LINE
  8
0
 10
-14.3053
 20
13.1992
 11
-14.6418
 21
12.669
  0
LINE
  8
0
 10
-14.6418
 20
12.669
 11
-14.9091
 21
12.1009
  0
LINE
  8
0
 10
-14.9091
 20
12.1009
 11
-15.1032
 21
11.5037
  0
LINE
  8
0
 10
-15.1032
 20
11.5037
 11
-15.2208
 21
10.8869
  0
LINE
  8
0
 10
-15.2208
 20
10.8869
 11
-15.2602
 21
10.2602
  0
LINE
  8
0
 10
-15.2602
 20
10.2602
 11
-15.2602
 21
-10.2602
  0
LINE
  8
0
 10
-15.2602
 20
-10.2602
 11
-15.2208
 21
-10.8869
  0
LINE
  8
0
 10
-15.2208
 20
-10.8869
 11
-15.1032
 21
-11.5037
  0
LINE
  8
0
 10
-15.1032
 20
-11.5037
 11
-14.9091
 21
-12.1009
  0
LINE
  8
0
 10
-14.9091
 20
-12.1009
 11
-14.6418
 21
-12.669
  0
LINE
  8
0
 10
-14.6418
 20
-12.669
 11
-14.3053
 21
-13.1992
  0
LINE
  8
0
 10
-14.3053
 20
-13.1992
 11
-13.9051
 21
-13.683
  0
LINE
  8
0
 10
-13.9051
 20
-13.683
 11
-13.4474
 21
-14.1128
  0
LINE
  8
0
 10
-13.4474
 20
-14.1128
 11
-12.9394
 21
-14.4819
  0
LINE
  8
0
 10
-12.9394
 20
-14.4819
 11
-12.3891
 21
-14.7844
  0
LINE
  8
0
 10
-12.3891
 20
-14.7844
 11
-11.8053
 21
-15.0155
  0
LINE
  8
0
 10
-11.8053
 20
-15.0155
 11
-11.1971
 21
-15.1717
  0
LINE
  8
0
 10
-11.1971
 20
-15.1717
 11
-10.5742
 21
-15.2504
  0
LINE
  8
0
 10
-10.5742
 20
-15.2504
 11
10.5742
 21
-15.2504
  0
LINE
  8
0
 10
10.5742
 20
-15.2504
 11
11.1971
 21
-15.1717
  0
LINE
  8
0
 10
-10.2237
 20
-0.798416
 11
-10.3234
 21
-0.785828
  0
LINE
  8
0
 10
-10.3234
 20
-0.785828
 11
-10.4207
 21
-0.760834
  0
LINE
  8
0
 10
-10.4207
 20
-0.760834
 11
-10.5141
 21
-0.723846
  0
LINE
  8
0
 10
-10.5141
 20
-0.723846
 11
-10.6022
 21
-0.675461
  0
LINE
  8
0
 10
-10.6022
 20
-0.675461
 11
-10.6834
 21
-0.616409
  0
LINE
  8
0
 10
-10.6834
 20
-0.616409
 11
-10.7567
 21
-0.547623
  0
LINE
  8
0
 10
-10.7567
 20
-0.547623
 11
-10.8207
 21
-0.470215
  0
LINE
  8
0
 10
-10.8207
 20
-0.470215
 11
-10.8745
 21
-0.385391
  0
LINE
  8
0
 10
-10.8745
 20
-0.385391
 11
-10.9173
 21
-0.294495
  0
LINE
  8
0
 10
-10.9173
 20
-0.294495
 11
-10.9484
 21
-0.198944
  0
LINE
  8
0
 10
-10.9484
 20
-0.198944
 11
-10.9672
 21
-0.100266
  0
LINE
  8
0
 10
-10.9672
 20
-0.100266
 11
-10.9735
 21
0
  0
LINE
  8
0
 10
-10.9735
 20
0
 11
-10.9672
 21
0.100266
  0
LINE
  8
0
 10
-10.9672
 20
0.100266
 11
-10.9484
 21
0.198944
  0
LINE
  8
0
 10
-10.9484
 20
0.198944
 11
-10.9173
 21
0.294495
  0
LINE
  8
0
 10
-10.9173
 20
0.294495
 11
-10.8745
 21
0.385391
  0
LINE
  8
0
 10
-10.8745
 20
0.385391
 11
-10.8207
 21
0.470215
  0
LINE
  8
0
 10
-10.8207
 20
0.470215
 11
-10.7567
 21
0.547623
  0
LINE
  8
0
 10
-10.7567
 20
0.547623
 11
-10.6834
 21
0.616409
  0
LINE
  8
0
 10
-10.6834
 20
0.616409
 11
-10.6022
 21
0.675461
  0
LINE
  8
0
 10
-10.6022
 20
0.675461
 11
-10.5141
 21
0.723846
  0
LINE
  8
0
 10
-10.5141
 20
0.723846
 11
-10.4207
 21
0.760834
  0
LINE
  8
0
 10
-10.4207
 20
0.760834
 11
-10.3234
 21
0.785828
  0
LINE
  8
0
 10
-10.3234
 20
0.785828
 11
-10.2237
 21
0.798416
  0
LINE
  8
0
 10
-10.2237
 20
0.798416
 11
-10.1233
 21
0.798416
  0
LINE
  8
0
 10
-10.1233
 20
0.798416
 11
-10.0236
 21
0.785828
  0
LINE
  8
0
 10
-10.0236
 20
0.785828
 11
-9.92628
 21
0.760834
  0
LINE
  8
0
 10
-9.92628
 20
0.760834
 11
-9.83287
 21
0.723846
  0
LINE
  8
0
 10
-9.83287
 20
0.723846
 11
-9.74483
 21
0.675461
  0
LINE
  8
0
 10
-9.74483
 20
0.675461
 11
-9.66356
 21
0.616409
  0
LINE
  8
0
 10
-9.66356
 20
0.616409
 11
-9.59032
 21
0.547623
  0
LINE
  8
0
 10
-9.59032
 20
0.547623
 11
-9.52628
 21
0.470215
  0
LINE
  8
0
 10
-9.52628
 20
0.470215
 11
-9.47244
 21
0.385391
  0
LINE
  8
0
 10
-9.47244
 20
0.385391
 11
-9.42967
 21
0.294495
  0
LINE
  8
0
 10
-9.42967
 20
0.294495
 11
-9.39862
 21
0.198944
  0
LINE
  8
0
 10
-9.39862
 20
0.198944
 11
-9.37981
 21
0.100266
  0
LINE
  8
0
 10
-9.37981
 20
0.100266
 11
-9.37349
 21
0
  0
LINE
  8
0
 10
-9.37349
 20
0
 11
-9.37981
 21
-0.100266
  0
LINE
  8
0
 10
-9.37981
 20
-0.100266
 11
-9.39862
 21
-0.198944
  0
LINE
  8
0
 10
-9.39862
 20
-0.198944
 11
-9.42967
 21
-0.294495
  0
LINE
  8
0
 10
-9.42967
 20
-0.294495
 11
-9.47244
 21
-0.385391
  0
LINE
  8
0
 10
-9.47244
 20
-0.385391
 11
-9.52628
 21
-0.470215
  0
LINE
  8
0
 10
-9.52628
 20
-0.470215
 11
-9.59032
 21
-0.547623
  0
LINE
  8
0
 10
-9.59032
 20
-0.547623
 11
-9.66356
 21
-0.616409
  0
LINE
  8
0
 10
-9.66356
 20
-0.616409
 11
-9.74483
 21
-0.675461
  0
LINE
  8
0
 10
-9.74483
 20
-0.675461
 11
-9.83287
 21
-0.723846
  0
LINE
  8
0
 10
-9.83287
 20
-0.723846
 11
-9.92628
 21
-0.760834
  0
LINE
  8
0
 10
-9.92628
 20
-0.760834
 11
-10.0236
 21
-0.785828
  0
LINE
  8
0
 10
-10.0236
 20
-0.785828
 11
-10.1233
 21
-0.798416
  0
LINE
  8
0
 10
-10.1233
 20
-0.798416
 11
-10.2237
 21
-0.798416
  0
LINE
  8
0
 10
-10.2237
 20
-10.9719
 11
-10.3234
 21
-10.9593
  0
LINE
  8
0
 10
-10.3234
 20
-10.9593
 11
-10.4207
 21
-10.9343
  0
LINE
  8
0
 10
-10.4207
 20
-10.9343
 11
-10.5141
 21
-10.8974
  0
LINE
  8
0
 10
-10.5141
 20
-10.8974
 11
-10.6022
 21
-10.849
  0
LINE
  8
0
 10
-10.6022
 20
-10.849
 11
-10.6834
 21
-10.7899
  0
LINE
  8
0
 10
-10.6834
 20
-10.7899
 11
-10.7567
 21
-10.7211
  0
LINE
  8
0
 10
-10.7567
 20
-10.7211
 11
-10.8207
 21
-10.6437
  0
LINE
  8
0
 10
-10.8207
 20
-10.6437
 11
-10.8745
 21
-10.5589
  0
LINE
  8
0
 10
-10.8745
 20
-10.5589
 11
-10.9173
 21
-10.468
  0
LINE
  8
0
 10
-10.9173
 20
-10.468
 11
-10.9484
 21
-10.3725
  0
LINE
  8
0
 10
-10.9484
 20
-10.3725
 11
-10.9672
 21
-10.2738
  0
LINE
  8
0
 10
-10.9672
 20
-10.2738
 11
-10.9735
 21
-10.1735
  0
LINE
  8
0
 10
-10.9735
 20
-10.1735
 11
-10.9672
 21
-10.0732
  0
LINE
  8
0
 10
-10.9672
 20
-10.0732
 11
-10.9484
 21
-9.97453
  0
LINE
  8
0
 10
-10.9484
 20
-9.97453
 11
-10.9173
 21
-9.879
  0
LINE
  8
0
 10
-10.9173
 20
-9.879
 11
-10.8745
 21
-9.78809
  0
LINE
  8
0
 10
-10.8745
 20
-9.78809
 11
-10.8207
 21
-9.70326
  0
LINE
  8
0
 10
-10.8207
 20
-9.70326
 11
-10.7567
 21
-9.62585
  0
LINE
  8
0
 10
-10.7567
 20
-9.62585
 11
-10.6834
 21
-9.55708
  0
LINE
  8
0
 10
-10.6834
 20
-9.55708
 11
-10.6022
 21
-9.49803
  0
LINE
  8
0
 10
-10.6022
 20
-9.49803
 11
-10.5141
 21
-9.44963
  0
LINE
  8
0
 10
-10.5141
 20
-9.44963
 11
-10.4207
 21
-9.41264
  0
LINE
  8
0
 10
-10.4207
 20
-9.41264
 11
-10.3234
 21
-9.38766
  0
LINE
  8
0
 10
-10.3234
 20
-9.38766
 11
-10.2237
 21
-9.37508
  0
LINE
  8
0
 10
-10.2237
 20
-9.37508
 11
-10.1233
 21
-9.37508
  0
LINE
  8
0
 10
-10.1233
 20
-9.37508
 11
-10.0236
 21
-9.38766
  0
LINE
  8
0
 10
-10.0236
 20
-9.38766
 11
-9.92628
 21
-9.41264
  0
LINE
  8
0
 10
-9.92628
 20
-9.41264
 11
-9.83287
 21
-9.44963
  0
LINE
  8
0
 10
-9.83287
 20
-9.44963
 11
-9.74483
 21
-9.49803
  0
LINE
  8
0
 10
-9.74483
 20
-9.49803
 11
-9.66356
 21
-9.55708
  0
LINE
  8
0
 10
-9.66356
 20
-9.55708
 11
-9.59032
 21
-9.62585
  0
LINE
  8
0
 10
-9.59032
 20
-9.62585
 11
-9.52628
 21
-9.70326
  0
LINE
  8
0
 10
-9.52628
 20
-9.70326
 11
-9.47244
 21
-9.78809
  0
LINE
  8
0
 10
-9.47244
 20
-9.78809
 11
-9.42967
 21
-9.879
  0
LINE
  8
0
 10
-9.42967
 20
-9.879
 11
-9.39862
 21
-9.97453
  0
LINE
  8
0
 10
-9.39862
 20
-9.97453
 11
-9.37981
 21
-10.0732
  0
LINE
  8
0
 10
-9.37981
 20
-10.0732
 11
-9.37349
 21
-10.1735
  0
LINE
  8
0
 10
-9.37349
 20
-10.1735
 11
-9.37981
 21
-10.2738
  0
LINE
  8
0
 10
-9.37981
 20
-10.2738
 11
-9.39862
 21
-10.3725
  0
LINE
  8
0
 10
-9.39862
 20
-10.3725
 11
-9.42967
 21
-10.468
  0
LINE
  8
0
 10
-9.42967
 20
-10.468
 11
-9.47244
 21
-10.5589
  0
LINE
  8
0
 10
-9.47244
 20
-10.5589
 11
-9.52628
 21
-10.6437
  0
LINE
  8
0
 10
-9.52628
 20
-10.6437
 11
-9.59032
 21
-10.7211
  0
LINE
  8
0
 10
-9.59032
 20
-10.7211
 11
-9.66356
 21
-10.7899
  0
LINE
  8
0
 10
-9.66356
 20
-10.7899
 11
-9.74483
 21
-10.849
  0
LINE
  8
0
 10
-9.74483
 20
-10.849
 11
-9.83287
 21
-10.8974
  0
LINE
  8
0
 10
-9.83287
 20
-10.8974
 11
-9.92628
 21
-10.9343
  0
LINE
  8
0
 10
-9.92628
 20
-10.9343
 11
-10.0236
 21
-10.9593
  0
LINE
  8
0
 10
-10.0236
 20
-10.9593
 11
-10.1233
 21
-10.9719
  0
LINE
  8
0
 10
-10.1233
 20
-10.9719
 11
-10.2237
 21
-10.9719
  0
ENDSEC
  0
SECTION
  2
OBJECTS
  0
DICTIONARY
  0
ENDSEC
  0
EOF
