<?xml version="1.0" standalone="no"?>
<!DOCTYPE svg PUBLIC "-//W3C//DTD SVG 1.1//EN" "http://www.w3.org/Graphics/SVG/1.1/DTD/svg11.dtd">
<svg width="16mm" height="154mm" viewBox="-8 -293 16 154" xmlns="http://www.w3.org/2000/svg" version="1.1">
<title>OpenSCAD Model</title>
<path d="
M 3.4369,-247.589 L 4.04507,-247.745 L 4.62889,-247.976 L 5.17912,-248.278 L 5.68712,-248.647 L 6.14484,-249.077
 L 6.54507,-249.561 L 6.88153,-250.091 L 7.14888,-250.659 L 7.34291,-251.257 L 7.46057,-251.873 L 7.5,-252.5
 L 7.5,-287.5 L 7.46057,-288.127 L 7.34291,-288.743 L 7.14888,-289.341 L 6.88153,-289.909 L 6.54507,-290.439
 L 6.14484,-290.923 L 5.68712,-291.353 L 5.17912,-291.722 L 4.62889,-292.024 L 4.04507,-292.255 L 3.4369,-292.411
 L 2.81395,-292.49 L -2.81395,-292.49 L -3.4369,-292.411 L -4.04507,-292.255 L -4.62889,-292.024 L -5.17912,-291.722
 L -5.68712,-291.353 L -6.14484,-290.923 L -6.54507,-290.439 L -6.88153,-289.909 L -7.14888,-289.341 L -7.34291,-288.743
 L -7.46057,-288.127 L -7.5,-287.5 L -7.5,-252.5 L -7.46057,-251.873 L -7.34291,-251.257 L -7.14888,-250.659
 L -6.88153,-250.091 L -6.54507,-249.561 L -6.14484,-249.077 L -5.68712,-248.647 L -5.17912,-248.278 L -4.62889,-247.976
 L -4.04507,-247.745 L -3.4369,-247.589 L -2.81395,-247.51 L 2.81395,-247.51 z
M 2.68895,-248.009 L 3.17912,-248.278 L 3.68712,-248.647 L 4.14484,-249.077 L 4.54507,-249.561 L 4.88153,-250.091
 L 5.14888,-250.659 L 5.34291,-251.257 L 5.46057,-251.873 L 5.5,-252.5 L 5.5,-255.5 L 5.46057,-256.127
 L 5.34291,-256.743 L 5.14888,-257.341 L 4.88153,-257.909 L 4.54507,-258.439 L 4.14484,-258.923 L 3.68712,-259.353
 L 3.17912,-259.722 L 2.62889,-260.024 L 2.04507,-260.255 L 1.4369,-260.411 L 0.81395,-260.49 L -2.81395,-260.49
 L -3.4369,-260.411 L -4.04507,-260.255 L -4.62889,-260.024 L -5.17912,-259.722 L -5.68712,-259.353 L -6.14484,-258.923
 L -6.54507,-258.439 L -6.88153,-257.909 L -7,-257.657 L -7,-280.343 L -6.88153,-280.091 L -6.54507,-279.561
 L -6.14484,-279.077 L -5.68712,-278.647 L -5.17912,-278.278 L -4.62889,-277.976 L -4.04507,-277.745 L -3.4369,-277.589
 L -2.81395,-277.51 L 0.81395,-277.51 L 1.4369,-277.589 L 2.04507,-277.745 L 2.62889,-277.976 L 3.17912,-278.278
 L 3.68712,-278.647 L 4.14484,-279.077 L 4.54507,-279.561 L 4.88153,-280.091 L 5.14888,-280.659 L 5.34291,-281.257
 L 5.46057,-281.873 L 5.5,-282.5 L 5.5,-285.5 L 5.46057,-286.127 L 5.34291,-286.743 L 5.14888,-287.341
 L 4.88153,-287.909 L 4.54507,-288.439 L 4.14484,-288.923 L 3.68712,-289.353 L 3.17912,-289.722 L 2.62889,-290.024
 L 2.04507,-290.255 L 1.4369,-290.411 L 0.81395,-290.49 L -2.81395,-290.49 L -3.4369,-290.411 L -4.04507,-290.255
 L -4.62889,-290.024 L -5.17912,-289.722 L -5.68712,-289.353 L -6.14484,-288.923 L -6.54507,-288.439 L -6.88153,-287.909
 L -6.98859,-287.681 L -6.96451,-288.064 L -6.85861,-288.619 L -6.68399,-289.157 L -6.44337,-289.668 L -6.14056,-290.145
 L -5.78035,-290.58 L -5.36839,-290.967 L -4.91121,-291.299 L -4.416,-291.572 L -3.89056,-291.78 L -3.3432,-291.92
 L -2.78255,-291.991 L 2.78255,-291.991 L 3.3432,-291.92 L 3.89056,-291.78 L 4.416,-291.572 L 4.91121,-291.299
 L 5.36839,-290.967 L 5.78035,-290.58 L 6.14056,-290.145 L 6.44337,-289.668 L 6.68399,-289.157 L 6.85861,-288.619
 L 6.96451,-288.064 L 7,-287.5 L 7,-252.5 L 6.96451,-251.936 L 6.85861,-251.381 L 6.68399,-250.843
 L 6.44337,-250.332 L 6.14056,-249.855 L 5.78035,-249.42 L 5.36839,-249.033 L 4.91121,-248.701 L 4.416,-248.428
 L 3.89056,-248.22 L 3.3432,-248.08 L 2.78255,-248.009 z
M -0.0941772,-283.503 L -0.281067,-283.527 L -0.463516,-283.573 L -0.638657,-283.643 L -0.803726,-283.734 L -0.956131,-283.844
 L -1.09344,-283.973 L -1.21352,-284.118 L -1.31445,-284.277 L -1.39465,-284.448 L -1.45287,-284.627 L -1.48816,-284.812
 L -1.5,-285 L -1.48816,-285.188 L -1.45287,-285.373 L -1.39465,-285.552 L -1.31445,-285.723 L -1.21352,-285.882
 L -1.09344,-286.027 L -0.956131,-286.156 L -0.803726,-286.266 L -0.638657,-286.357 L -0.463516,-286.427 L -0.281067,-286.473
 L -0.0941772,-286.497 L 0.0941772,-286.497 L 0.281067,-286.473 L 0.463516,-286.427 L 0.638657,-286.357 L 0.803726,-286.266
 L 0.956131,-286.156 L 1.09344,-286.027 L 1.21352,-285.882 L 1.31445,-285.723 L 1.39465,-285.552 L 1.45287,-285.373
 L 1.48816,-285.188 L 1.5,-285 L 1.48816,-284.812 L 1.45287,-284.627 L 1.39465,-284.448 L 1.31445,-284.277
 L 1.21352,-284.118 L 1.09344,-283.973 L 0.956131,-283.844 L 0.803726,-283.734 L 0.638657,-283.643 L 0.463516,-283.573
 L 0.281067,-283.527 L 0.0941772,-283.503 z
M -0.0941772,-253.503 L -0.281067,-253.527 L -0.463516,-253.573 L -0.638657,-253.643 L -0.803726,-253.734 L -0.956131,-253.844
 L -1.09344,-253.973 L -1.21352,-254.118 L -1.31445,-254.277 L -1.39465,-254.448 L -1.45287,-254.627 L -1.48816,-254.812
 L -1.5,-255 L -1.48816,-255.188 L -1.45287,-255.373 L -1.39465,-255.552 L -1.31445,-255.723 L -1.21352,-255.882
 L -1.09344,-256.027 L -0.956131,-256.156 L -0.803726,-256.266 L -0.638657,-256.357 L -0.463516,-256.427 L -0.281067,-256.473
 L -0.0941772,-256.497 L 0.0941772,-256.497 L 0.281067,-256.473 L 0.463516,-256.427 L 0.638657,-256.357 L 0.803726,-256.266
 L 0.956131,-256.156 L 1.09344,-256.027 L 1.21352,-255.882 L 1.31445,-255.723 L 1.39465,-255.552 L 1.45287,-255.373
 L 1.48816,-255.188 L 1.5,-255 L 1.48816,-254.812 L 1.45287,-254.627 L 1.39465,-254.448 L 1.31445,-254.277
 L 1.21352,-254.118 L 1.09344,-253.973 L 0.956131,-253.844 L 0.803726,-253.734 L 0.638657,-253.643 L 0.463516,-253.573
 L 0.281067,-253.527 L 0.0941772,-253.503 z
M 3.4369,-193.589 L 4.04507,-193.745 L 4.62889,-193.976 L 5.17912,-194.278 L 5.68712,-194.647 L 6.14484,-195.077
 L 6.54507,-195.561 L 6.88153,-196.091 L 7.14888,-196.659 L 7.34291,-197.257 L 7.46057,-197.873 L 7.5,-198.5
 L 7.5,-233.5 L 7.46057,-234.127 L 7.34291,-234.743 L 7.14888,-235.341 L 6.88153,-235.909 L 6.54507,-236.439
 L 6.14484,-236.923 L 5.68712,-237.353 L 5.17912,-237.722 L 4.62889,-238.024 L 4.04507,-238.255 L 3.4369,-238.411
 L 2.81395,-238.49 L -2.81395,-238.49 L -3.4369,-238.411 L -4.04507,-238.255 L -4.62889,-238.024 L -5.17912,-237.722
 L -5.68712,-237.353 L -6.14484,-236.923 L -6.54507,-236.439 L -6.88153,-235.909 L -7.14888,-235.341 L -7.34291,-234.743
 L -7.46057,-234.127 L -7.5,-233.5 L -7.5,-198.5 L -7.46057,-197.873 L -7.34291,-197.257 L -7.14888,-196.659
 L -6.88153,-196.091 L -6.54507,-195.561 L -6.14484,-195.077 L -5.68712,-194.647 L -5.17912,-194.278 L -4.62889,-193.976
 L -4.04507,-193.745 L -3.4369,-193.589 L -2.81395,-193.51 L 2.81395,-193.51 z
M 2.74606,-194.04 L 3.17912,-194.278 L 3.68712,-194.647 L 4.14484,-195.077 L 4.54507,-195.561 L 4.88153,-196.091
 L 5.14888,-196.659 L 5.34291,-197.257 L 5.46057,-197.873 L 5.5,-198.5 L 5.5,-201.5 L 5.46057,-202.127
 L 5.34291,-202.743 L 5.14888,-203.341 L 4.88153,-203.909 L 4.54507,-204.439 L 4.14484,-204.923 L 3.68712,-205.353
 L 3.17912,-205.722 L 2.62889,-206.024 L 2.04507,-206.255 L 1.4369,-206.411 L 0.81395,-206.49 L -2.81395,-206.49
 L -3.4369,-206.411 L -4.04507,-206.255 L -4.62889,-206.024 L -5.17912,-205.722 L -5.68712,-205.353 L -6.14484,-204.923
 L -6.54507,-204.439 L -6.88153,-203.909 L -6.96854,-203.724 L -6.96854,-226.276 L -6.88153,-226.091 L -6.54507,-225.561
 L -6.14484,-225.077 L -5.68712,-224.647 L -5.17912,-224.278 L -4.62889,-223.976 L -4.04507,-223.745 L -3.4369,-223.589
 L -2.81395,-223.51 L 0.81395,-223.51 L 1.4369,-223.589 L 2.04507,-223.745 L 2.62889,-223.976 L 3.17912,-224.278
 L 3.68712,-224.647 L 4.14484,-225.077 L 4.54507,-225.561 L 4.88153,-226.091 L 5.14888,-226.659 L 5.34291,-227.257
 L 5.46057,-227.873 L 5.5,-228.5 L 5.5,-231.5 L 5.46057,-232.127 L 5.34291,-232.743 L 5.14888,-233.341
 L 4.88153,-233.909 L 4.54507,-234.439 L 4.14484,-234.923 L 3.68712,-235.353 L 3.17912,-235.722 L 2.62889,-236.024
 L 2.04507,-236.255 L 1.4369,-236.411 L 0.81395,-236.49 L -2.81395,-236.49 L -3.4369,-236.411 L -4.04507,-236.255
 L -4.62889,-236.024 L -5.17912,-235.722 L -5.68712,-235.353 L -6.14484,-234.923 L -6.54507,-234.439 L -6.88153,-233.909
 L -6.95227,-233.758 L -6.9333,-234.06 L -6.82814,-234.611 L -6.65474,-235.145 L -6.4158,-235.653 L -6.11511,-236.127
 L -5.75742,-236.559 L -5.34834,-236.943 L -4.89436,-237.273 L -4.4026,-237.543 L -3.88084,-237.75 L -3.33731,-237.889
 L -2.78058,-237.96 L 2.78058,-237.96 L 3.33731,-237.889 L 3.88084,-237.75 L 4.4026,-237.543 L 4.89436,-237.273
 L 5.34834,-236.943 L 5.75742,-236.559 L 6.11511,-236.127 L 6.4158,-235.653 L 6.65474,-235.145 L 6.82814,-234.611
 L 6.9333,-234.06 L 6.96854,-233.5 L 6.96854,-198.5 L 6.9333,-197.94 L 6.82814,-197.389 L 6.65474,-196.855
 L 6.4158,-196.347 L 6.11511,-195.873 L 5.75742,-195.441 L 5.34834,-195.057 L 4.89436,-194.727 L 4.4026,-194.457
 L 3.88084,-194.25 L 3.33731,-194.111 L 2.78058,-194.04 z
M -0.0941772,-229.503 L -0.281067,-229.527 L -0.463516,-229.573 L -0.638657,-229.643 L -0.803726,-229.734 L -0.956131,-229.844
 L -1.09344,-229.973 L -1.21352,-230.118 L -1.31445,-230.277 L -1.39465,-230.448 L -1.45287,-230.627 L -1.48816,-230.812
 L -1.5,-231 L -1.48816,-231.188 L -1.45287,-231.373 L -1.39465,-231.552 L -1.31445,-231.723 L -1.21352,-231.882
 L -1.09344,-232.027 L -0.956131,-232.156 L -0.803726,-232.266 L -0.638657,-232.357 L -0.463516,-232.427 L -0.281067,-232.473
 L -0.0941772,-232.497 L 0.0941772,-232.497 L 0.281067,-232.473 L 0.463516,-232.427 L 0.638657,-232.357 L 0.803726,-232.266
 L 0.956131,-232.156 L 1.09344,-232.027 L 1.21352,-231.882 L 1.31445,-231.723 L 1.39465,-231.552 L 1.45287,-231.373
 L 1.48816,-231.188 L 1.5,-231 L 1.48816,-230.812 L 1.45287,-230.627 L 1.39465,-230.448 L 1.31445,-230.277
 L 1.21352,-230.118 L 1.09344,-229.973 L 0.956131,-229.844 L 0.803726,-229.734 L 0.638657,-229.643 L 0.463516,-229.573
 L 0.281067,-229.527 L 0.0941772,-229.503 z
M -0.0941772,-199.503 L -0.281067,-199.527 L -0.463516,-199.573 L -0.638657,-199.643 L -0.803726,-199.734 L -0.956131,-199.844
 L -1.09344,-199.973 L -1.21352,-200.118 L -1.31445,-200.277 L -1.39465,-200.448 L -1.45287,-200.627 L -1.48816,-200.812
 L -1.5,-201 L -1.48816,-201.188 L -1.45287,-201.373 L -1.39465,-201.552 L -1.31445,-201.723 L -1.21352,-201.882
 L -1.09344,-202.027 L -0.956131,-202.156 L -0.803726,-202.266 L -0.638657,-202.357 L -0.463516,-202.427 L -0.281067,-202.473
 L -0.0941772,-202.497 L 0.0941772,-202.497 L 0.281067,-202.473 L 0.463516,-202.427 L 0.638657,-202.357 L 0.803726,-202.266
 L 0.956131,-202.156 L 1.09344,-202.027 L 1.21352,-201.882 L 1.31445,-201.723 L 1.39465,-201.552 L 1.45287,-201.373
 L 1.48816,-201.188 L 1.5,-201 L 1.48816,-200.812 L 1.45287,-200.627 L 1.39465,-200.448 L 1.31445,-200.277
 L 1.21352,-200.118 L 1.09344,-199.973 L 0.956131,-199.844 L 0.803726,-199.734 L 0.638657,-199.643 L 0.463516,-199.573
 L 0.281067,-199.527 L 0.0941772,-199.503 z
M 3.4369,-139.589 L 4.04507,-139.745 L 4.62889,-139.976 L 5.17912,-140.278 L 5.68712,-140.647 L 6.14484,-141.077
 L 6.54507,-141.561 L 6.88153,-142.091 L 7.14888,-142.659 L 7.34291,-143.257 L 7.46057,-143.873 L 7.5,-144.5
 L 7.5,-179.5 L 7.46057,-180.127 L 7.34291,-180.743 L 7.14888,-181.341 L 6.88153,-181.909 L 6.54507,-182.439
 L 6.14484,-182.923 L 5.68712,-183.353 L 5.17912,-183.722 L 4.62889,-184.024 L 4.04507,-184.255 L 3.4369,-184.411
 L 2.81395,-184.49 L -2.81395,-184.49 L -3.4369,-184.411 L -4.04507,-184.255 L -4.62889,-184.024 L -5.17912,-183.722
 L -5.68712,-183.353 L -6.14484,-182.923 L -6.54507,-182.439 L -6.88153,-181.909 L -7.14888,-181.341 L -7.34291,-180.743
 L -7.46057,-180.127 L -7.5,-179.5 L -7.5,-144.5 L -7.46057,-143.873 L -7.34291,-143.257 L -7.14888,-142.659
 L -6.88153,-142.091 L -6.54507,-141.561 L -6.14484,-141.077 L -5.68712,-140.647 L -5.17912,-140.278 L -4.62889,-139.976
 L -4.04507,-139.745 L -3.4369,-139.589 L -2.81395,-139.51 L 2.81395,-139.51 z
M 5.14888,-179.341 L 4.88153,-179.909 L 4.54507,-180.439 L 4.14484,-180.923 L 3.68712,-181.353 L 3.17912,-181.722
 L 2.62889,-182.024 L 2.04507,-182.255 L 1.80142,-182.318 L 2.67728,-182.318 L 3.02905,-182.273 L 3.37247,-182.185
 L 3.70215,-182.055 L 4.01285,-181.884 L 4.2997,-181.675 L 4.55817,-181.433 L 4.78418,-181.16 L 4.97417,-180.86
 L 5.12514,-180.539 L 5.2347,-180.202 L 5.30115,-179.854 L 5.32341,-179.5 L 5.32341,-178.803 z
M -0.150696,-174.605 L -0.449707,-174.643 L -0.741638,-174.717 L -1.02187,-174.828 L -1.28598,-174.974 L -1.52982,-175.151
 L -1.74951,-175.357 L -1.94164,-175.589 L -2.10313,-175.844 L -2.23146,-176.117 L -2.32458,-176.403 L -2.38107,-176.699
 L -2.39999,-177 L -2.38107,-177.301 L -2.32458,-177.597 L -2.23146,-177.883 L -2.10313,-178.156 L -1.94164,-178.411
 L -1.74951,-178.643 L -1.52982,-178.849 L -1.28598,-179.026 L -1.02187,-179.172 L -0.741638,-179.283 L -0.449707,-179.357
 L -0.150696,-179.395 L 0.150696,-179.395 L 0.449707,-179.357 L 0.741638,-179.283 L 1.02187,-179.172 L 1.28598,-179.026
 L 1.52982,-178.849 L 1.74951,-178.643 L 1.94164,-178.411 L 2.10313,-178.156 L 2.23146,-177.883 L 2.32458,-177.597
 L 2.38107,-177.301 L 2.39999,-177 L 2.38107,-176.699 L 2.32458,-176.403 L 2.23146,-176.117 L 2.10313,-175.844
 L 1.94164,-175.589 L 1.74951,-175.357 L 1.52982,-175.151 L 1.28598,-174.974 L 1.02187,-174.828 L 0.741638,-174.717
 L 0.449707,-174.643 L 0.150696,-174.605 z
M 5.14888,-149.341 L 4.88153,-149.909 L 4.54507,-150.439 L 4.14484,-150.923 L 3.68712,-151.353 L 3.17912,-151.722
 L 2.62889,-152.024 L 2.04507,-152.255 L 1.4369,-152.411 L 0.81395,-152.49 L -2.81395,-152.49 L -3.4369,-152.411
 L -4.04507,-152.255 L -4.62889,-152.024 L -5.17912,-151.722 L -5.32341,-151.617 L -5.32341,-170.383 L -5.17912,-170.278
 L -4.62889,-169.976 L -4.04507,-169.745 L -3.4369,-169.589 L -2.81395,-169.51 L 0.81395,-169.51 L 1.4369,-169.589
 L 2.04507,-169.745 L 2.62889,-169.976 L 3.17912,-170.278 L 3.68712,-170.647 L 4.14484,-171.077 L 4.54507,-171.561
 L 4.88153,-172.091 L 5.14888,-172.659 L 5.32341,-173.197 L 5.32341,-148.803 z
M -0.150696,-144.605 L -0.449707,-144.643 L -0.741638,-144.717 L -1.02187,-144.828 L -1.28598,-144.974 L -1.52982,-145.151
 L -1.74951,-145.357 L -1.94164,-145.589 L -2.10313,-145.844 L -2.23146,-146.117 L -2.32458,-146.403 L -2.38107,-146.699
 L -2.39999,-147 L -2.38107,-147.301 L -2.32458,-147.597 L -2.23146,-147.883 L -2.10313,-148.156 L -1.94164,-148.411
 L -1.74951,-148.643 L -1.52982,-148.849 L -1.28598,-149.026 L -1.02187,-149.172 L -0.741638,-149.283 L -0.449707,-149.357
 L -0.150696,-149.395 L 0.150696,-149.395 L 0.449707,-149.357 L 0.741638,-149.283 L 1.02187,-149.172 L 1.28598,-149.026
 L 1.52982,-148.849 L 1.74951,-148.643 L 1.94164,-148.411 L 2.10313,-148.156 L 2.23146,-147.883 L 2.32458,-147.597
 L 2.38107,-147.301 L 2.39999,-147 L 2.38107,-146.699 L 2.32458,-146.403 L 2.23146,-146.117 L 2.10313,-145.844
 L 1.94164,-145.589 L 1.74951,-145.357 L 1.52982,-145.151 L 1.28598,-144.974 L 1.02187,-144.828 L 0.741638,-144.717
 L 0.449707,-144.643 L 0.150696,-144.605 z
" stroke="black" fill="lightgray" stroke-width="0.5"/>
</svg>
