  0
SECTION
  2
BLOCKS
  0
ENDSEC
  0
SECTION
  2
ENTITIES
  0
LINE
  8
0
 10
42.7184
 20
140.544
 11
43.0225
 21
140.622
  0
LINE
  8
0
 10
43.0225
 20
140.622
 11
43.3144
 21
140.738
  0
LINE
  8
0
 10
43.3144
 20
140.738
 11
43.5896
 21
140.889
  0
LINE
  8
0
 10
43.5896
 20
140.889
 11
43.8436
 21
141.074
  0
LINE
  8
0
 10
43.8436
 20
141.074
 11
44.0724
 21
141.289
  0
LINE
  8
0
 10
44.0724
 20
141.289
 11
44.2725
 21
141.531
  0
LINE
  8
0
 10
44.2725
 20
141.531
 11
44.4408
 21
141.796
  0
LINE
  8
0
 10
44.4408
 20
141.796
 11
44.5744
 21
142.08
  0
LINE
  8
0
 10
44.5744
 20
142.08
 11
44.6714
 21
142.378
  0
LINE
  8
0
 10
44.6714
 20
142.378
 11
44.7303
 21
142.687
  0
LINE
  8
0
 10
44.7303
 20
142.687
 11
44.75
 21
143
  0
LINE
  8
0
 10
44.75
 20
143
 11
44.75
 21
145
  0
LINE
  8
0
 10
44.75
 20
145
 11
44.7303
 21
145.313
  0
LINE
  8
0
 10
44.7303
 20
145.313
 11
44.6714
 21
145.622
  0
LINE
  8
0
 10
44.6714
 20
145.622
 11
44.5744
 21
145.92
  0
LINE
  8
0
 10
44.5744
 20
145.92
 11
44.4408
 21
146.204
  0
LINE
  8
0
 10
44.4408
 20
146.204
 11
44.2725
 21
146.469
  0
LINE
  8
0
 10
44.2725
 20
146.469
 11
44.0724
 21
146.711
  0
LINE
  8
0
 10
44.0724
 20
146.711
 11
43.8436
 21
146.926
  0
LINE
  8
0
 10
43.8436
 20
146.926
 11
43.5896
 21
147.111
  0
LINE
  8
0
 10
43.5896
 20
147.111
 11
43.3144
 21
147.262
  0
LINE
  8
0
 10
43.3144
 20
147.262
 11
43.0225
 21
147.378
  0
LINE
  8
0
 10
43.0225
 20
147.378
 11
42.7184
 21
147.456
  0
LINE
  8
0
 10
42.7184
 20
147.456
 11
42.407
 21
147.495
  0
LINE
  8
0
 10
42.407
 20
147.495
 11
-42.407
 21
147.495
  0
LINE
  8
0
 10
-42.407
 20
147.495
 11
-42.7184
 21
147.456
  0
LINE
  8
0
 10
-42.7184
 20
147.456
 11
-43.0225
 21
147.378
  0
LINE
  8
0
 10
-43.0225
 20
147.378
 11
-43.3144
 21
147.262
  0
LINE
  8
0
 10
-43.3144
 20
147.262
 11
-43.5896
 21
147.111
  0
LINE
  8
0
 10
-43.5896
 20
147.111
 11
-43.8436
 21
146.926
  0
LINE
  8
0
 10
-43.8436
 20
146.926
 11
-44.0724
 21
146.711
  0
LINE
  8
0
 10
-44.0724
 20
146.711
 11
-44.2725
 21
146.469
  0
LINE
  8
0
 10
-44.2725
 20
146.469
 11
-44.4408
 21
146.204
  0
LINE
  8
0
 10
-44.4408
 20
146.204
 11
-44.5744
 21
145.92
  0
LINE
  8
0
 10
-44.5744
 20
145.92
 11
-44.6714
 21
145.622
  0
LINE
  8
0
 10
-44.6714
 20
145.622
 11
-44.7303
 21
145.313
  0
LINE
  8
0
 10
-44.7303
 20
145.313
 11
-44.75
 21
145
  0
LINE
  8
0
 10
-44.75
 20
145
 11
-44.75
 21
143
  0
LINE
  8
0
 10
-44.75
 20
143
 11
-44.7303
 21
142.687
  0
LINE
  8
0
 10
-44.7303
 20
142.687
 11
-44.6714
 21
142.378
  0
LINE
  8
0
 10
-44.6714
 20
142.378
 11
-44.5744
 21
142.08
  0
LINE
  8
0
 10
-44.5744
 20
142.08
 11
-44.4408
 21
141.796
  0
LINE
  8
0
 10
-44.4408
 20
141.796
 11
-44.2725
 21
141.531
  0
LINE
  8
0
 10
-44.2725
 20
141.531
 11
-44.0724
 21
141.289
  0
LINE
  8
0
 10
-44.0724
 20
141.289
 11
-43.8436
 21
141.074
  0
LINE
  8
0
 10
-43.8436
 20
141.074
 11
-43.5896
 21
140.889
  0
LINE
  8
0
 10
-43.5896
 20
140.889
 11
-43.3144
 21
140.738
  0
LINE
  8
0
 10
-43.3144
 20
140.738
 11
-43.0225
 21
140.622
  0
LINE
  8
0
 10
-43.0225
 20
140.622
 11
-42.7184
 21
140.544
  0
LINE
  8
0
 10
-42.7184
 20
140.544
 11
-42.407
 21
140.505
  0
LINE
  8
0
 10
-42.407
 20
140.505
 11
42.407
 21
140.505
  0
LINE
  8
0
 10
42.407
 20
140.505
 11
42.7184
 21
140.544
  0
LINE
  8
0
 10
-33.8442
 20
142.503
 11
-34.0311
 21
142.527
  0
LINE
  8
0
 10
-34.0311
 20
142.527
 11
-34.2135
 21
142.573
  0
LINE
  8
0
 10
-34.2135
 20
142.573
 11
-34.3887
 21
142.643
  0
LINE
  8
0
 10
-34.3887
 20
142.643
 11
-34.5537
 21
142.734
  0
LINE
  8
0
 10
-34.5537
 20
142.734
 11
-34.7061
 21
142.844
  0
LINE
  8
0
 10
-34.7061
 20
142.844
 11
-34.8434
 21
142.973
  0
LINE
  8
0
 10
-34.8434
 20
142.973
 11
-34.9635
 21
143.118
  0
LINE
  8
0
 10
-34.9635
 20
143.118
 11
-35.0645
 21
143.277
  0
LINE
  8
0
 10
-35.0645
 20
143.277
 11
-35.1447
 21
143.448
  0
LINE
  8
0
 10
-35.1447
 20
143.448
 11
-35.2029
 21
143.627
  0
LINE
  8
0
 10
-35.2029
 20
143.627
 11
-35.2382
 21
143.812
  0
LINE
  8
0
 10
-35.2382
 20
143.812
 11
-35.25
 21
144
  0
LINE
  8
0
 10
-35.25
 20
144
 11
-35.2382
 21
144.188
  0
LINE
  8
0
 10
-35.2382
 20
144.188
 11
-35.2029
 21
144.373
  0
LINE
  8
0
 10
-35.2029
 20
144.373
 11
-35.1447
 21
144.552
  0
LINE
  8
0
 10
-35.1447
 20
144.552
 11
-35.0645
 21
144.723
  0
LINE
  8
0
 10
-35.0645
 20
144.723
 11
-34.9635
 21
144.882
  0
LINE
  8
0
 10
-34.9635
 20
144.882
 11
-34.8434
 21
145.027
  0
LINE
  8
0
 10
-34.8434
 20
145.027
 11
-34.7061
 21
145.156
  0
LINE
  8
0
 10
-34.7061
 20
145.156
 11
-34.5537
 21
145.266
  0
LINE
  8
0
 10
-34.5537
 20
145.266
 11
-34.3887
 21
145.357
  0
LINE
  8
0
 10
-34.3887
 20
145.357
 11
-34.2135
 21
145.427
  0
LINE
  8
0
 10
-34.2135
 20
145.427
 11
-34.0311
 21
145.473
  0
LINE
  8
0
 10
-34.0311
 20
145.473
 11
-33.8442
 21
145.497
  0
LINE
  8
0
 10
-33.8442
 20
145.497
 11
-33.6558
 21
145.497
  0
LINE
  8
0
 10
-33.6558
 20
145.497
 11
-33.4689
 21
145.473
  0
LINE
  8
0
 10
-33.4689
 20
145.473
 11
-33.2865
 21
145.427
  0
LINE
  8
0
 10
-33.2865
 20
145.427
 11
-33.1113
 21
145.357
  0
LINE
  8
0
 10
-33.1113
 20
145.357
 11
-32.9463
 21
145.266
  0
LINE
  8
0
 10
-32.9463
 20
145.266
 11
-32.7939
 21
145.156
  0
LINE
  8
0
 10
-32.7939
 20
145.156
 11
-32.6565
 21
145.027
  0
LINE
  8
0
 10
-32.6565
 20
145.027
 11
-32.5365
 21
144.882
  0
LINE
  8
0
 10
-32.5365
 20
144.882
 11
-32.4355
 21
144.723
  0
LINE
  8
0
 10
-32.4355
 20
144.723
 11
-32.3553
 21
144.552
  0
LINE
  8
0
 10
-32.3553
 20
144.552
 11
-32.2971
 21
144.373
  0
LINE
  8
0
 10
-32.2971
 20
144.373
 11
-32.2618
 21
144.188
  0
LINE
  8
0
 10
-32.2618
 20
144.188
 11
-32.25
 21
144
  0
LINE
  8
0
 10
-32.25
 20
144
 11
-32.2618
 21
143.812
  0
LINE
  8
0
 10
-32.2618
 20
143.812
 11
-32.2971
 21
143.627
  0
LINE
  8
0
 10
-32.2971
 20
143.627
 11
-32.3553
 21
143.448
  0
LINE
  8
0
 10
-32.3553
 20
143.448
 11
-32.4355
 21
143.277
  0
LINE
  8
0
 10
-32.4355
 20
143.277
 11
-32.5365
 21
143.118
  0
LINE
  8
0
 10
-32.5365
 20
143.118
 11
-32.6565
 21
142.973
  0
LINE
  8
0
 10
-32.6565
 20
142.973
 11
-32.7939
 21
142.844
  0
LINE
  8
0
 10
-32.7939
 20
142.844
 11
-32.9463
 21
142.734
  0
LINE
  8
0
 10
-32.9463
 20
142.734
 11
-33.1113
 21
142.643
  0
LINE
  8
0
 10
-33.1113
 20
142.643
 11
-33.2865
 21
142.573
  0
LINE
  8
0
 10
-33.2865
 20
142.573
 11
-33.4689
 21
142.527
  0
LINE
  8
0
 10
-33.4689
 20
142.527
 11
-33.6558
 21
142.503
  0
LINE
  8
0
 10
-33.6558
 20
142.503
 11
-33.8442
 21
142.503
  0
LINE
  8
0
 10
-11.3442
 20
142.503
 11
-11.5311
 21
142.527
  0
LINE
  8
0
 10
-11.5311
 20
142.527
 11
-11.7135
 21
142.573
  0
LINE
  8
0
 10
-11.7135
 20
142.573
 11
-11.8887
 21
142.643
  0
LINE
  8
0
 10
-11.8887
 20
142.643
 11
-12.0537
 21
142.734
  0
LINE
  8
0
 10
-12.0537
 20
142.734
 11
-12.2061
 21
142.844
  0
LINE
  8
0
 10
-12.2061
 20
142.844
 11
-12.3434
 21
142.973
  0
LINE
  8
0
 10
-12.3434
 20
142.973
 11
-12.4635
 21
143.118
  0
LINE
  8
0
 10
-12.4635
 20
143.118
 11
-12.5645
 21
143.277
  0
LINE
  8
0
 10
-12.5645
 20
143.277
 11
-12.6447
 21
143.448
  0
LINE
  8
0
 10
-12.6447
 20
143.448
 11
-12.7029
 21
143.627
  0
LINE
  8
0
 10
-12.7029
 20
143.627
 11
-12.7382
 21
143.812
  0
LINE
  8
0
 10
-12.7382
 20
143.812
 11
-12.75
 21
144
  0
LINE
  8
0
 10
-12.75
 20
144
 11
-12.7382
 21
144.188
  0
LINE
  8
0
 10
-12.7382
 20
144.188
 11
-12.7029
 21
144.373
  0
LINE
  8
0
 10
-12.7029
 20
144.373
 11
-12.6447
 21
144.552
  0
LINE
  8
0
 10
-12.6447
 20
144.552
 11
-12.5645
 21
144.723
  0
LINE
  8
0
 10
-12.5645
 20
144.723
 11
-12.4635
 21
144.882
  0
LINE
  8
0
 10
-12.4635
 20
144.882
 11
-12.3434
 21
145.027
  0
LINE
  8
0
 10
-12.3434
 20
145.027
 11
-12.2061
 21
145.156
  0
LINE
  8
0
 10
-12.2061
 20
145.156
 11
-12.0537
 21
145.266
  0
LINE
  8
0
 10
-12.0537
 20
145.266
 11
-11.8887
 21
145.357
  0
LINE
  8
0
 10
-11.8887
 20
145.357
 11
-11.7135
 21
145.427
  0
LINE
  8
0
 10
-11.7135
 20
145.427
 11
-11.5311
 21
145.473
  0
LINE
  8
0
 10
-11.5311
 20
145.473
 11
-11.3442
 21
145.497
  0
LINE
  8
0
 10
-11.3442
 20
145.497
 11
-11.1558
 21
145.497
  0
LINE
  8
0
 10
-11.1558
 20
145.497
 11
-10.9689
 21
145.473
  0
LINE
  8
0
 10
-10.9689
 20
145.473
 11
-10.7865
 21
145.427
  0
LINE
  8
0
 10
-10.7865
 20
145.427
 11
-10.6113
 21
145.357
  0
LINE
  8
0
 10
-10.6113
 20
145.357
 11
-10.4463
 21
145.266
  0
LINE
  8
0
 10
-10.4463
 20
145.266
 11
-10.2939
 21
145.156
  0
LINE
  8
0
 10
-10.2939
 20
145.156
 11
-10.1565
 21
145.027
  0
LINE
  8
0
 10
-10.1565
 20
145.027
 11
-10.0365
 21
144.882
  0
LINE
  8
0
 10
-10.0365
 20
144.882
 11
-9.93553
 21
144.723
  0
LINE
  8
0
 10
-9.93553
 20
144.723
 11
-9.85533
 21
144.552
  0
LINE
  8
0
 10
-9.85533
 20
144.552
 11
-9.79712
 21
144.373
  0
LINE
  8
0
 10
-9.79712
 20
144.373
 11
-9.76183
 21
144.188
  0
LINE
  8
0
 10
-9.76183
 20
144.188
 11
-9.75
 21
144
  0
LINE
  8
0
 10
-9.75
 20
144
 11
-9.76183
 21
143.812
  0
LINE
  8
0
 10
-9.76183
 20
143.812
 11
-9.79712
 21
143.627
  0
LINE
  8
0
 10
-9.79712
 20
143.627
 11
-9.85533
 21
143.448
  0
LINE
  8
0
 10
-9.85533
 20
143.448
 11
-9.93553
 21
143.277
  0
LINE
  8
0
 10
-9.93553
 20
143.277
 11
-10.0365
 21
143.118
  0
LINE
  8
0
 10
-10.0365
 20
143.118
 11
-10.1565
 21
142.973
  0
LINE
  8
0
 10
-10.1565
 20
142.973
 11
-10.2939
 21
142.844
  0
LINE
  8
0
 10
-10.2939
 20
142.844
 11
-10.4463
 21
142.734
  0
LINE
  8
0
 10
-10.4463
 20
142.734
 11
-10.6113
 21
142.643
  0
LINE
  8
0
 10
-10.6113
 20
142.643
 11
-10.7865
 21
142.573
  0
LINE
  8
0
 10
-10.7865
 20
142.573
 11
-10.9689
 21
142.527
  0
LINE
  8
0
 10
-10.9689
 20
142.527
 11
-11.1558
 21
142.503
  0
LINE
  8
0
 10
-11.1558
 20
142.503
 11
-11.3442
 21
142.503
  0
LINE
  8
0
 10
-18.8442
 20
142.503
 11
-19.0311
 21
142.527
  0
LINE
  8
0
 10
-19.0311
 20
142.527
 11
-19.2135
 21
142.573
  0
LINE
  8
0
 10
-19.2135
 20
142.573
 11
-19.3887
 21
142.643
  0
LINE
  8
0
 10
-19.3887
 20
142.643
 11
-19.5537
 21
142.734
  0
LINE
  8
0
 10
-19.5537
 20
142.734
 11
-19.7061
 21
142.844
  0
LINE
  8
0
 10
-19.7061
 20
142.844
 11
-19.8434
 21
142.973
  0
LINE
  8
0
 10
-19.8434
 20
142.973
 11
-19.9635
 21
143.118
  0
LINE
  8
0
 10
-19.9635
 20
143.118
 11
-20.0645
 21
143.277
  0
LINE
  8
0
 10
-20.0645
 20
143.277
 11
-20.1447
 21
143.448
  0
LINE
  8
0
 10
-20.1447
 20
143.448
 11
-20.2029
 21
143.627
  0
LINE
  8
0
 10
-20.2029
 20
143.627
 11
-20.2382
 21
143.812
  0
LINE
  8
0
 10
-20.2382
 20
143.812
 11
-20.25
 21
144
  0
LINE
  8
0
 10
-20.25
 20
144
 11
-20.2382
 21
144.188
  0
LINE
  8
0
 10
-20.2382
 20
144.188
 11
-20.2029
 21
144.373
  0
LINE
  8
0
 10
-20.2029
 20
144.373
 11
-20.1447
 21
144.552
  0
LINE
  8
0
 10
-20.1447
 20
144.552
 11
-20.0645
 21
144.723
  0
LINE
  8
0
 10
-20.0645
 20
144.723
 11
-19.9635
 21
144.882
  0
LINE
  8
0
 10
-19.9635
 20
144.882
 11
-19.8434
 21
145.027
  0
LINE
  8
0
 10
-19.8434
 20
145.027
 11
-19.7061
 21
145.156
  0
LINE
  8
0
 10
-19.7061
 20
145.156
 11
-19.5537
 21
145.266
  0
LINE
  8
0
 10
-19.5537
 20
145.266
 11
-19.3887
 21
145.357
  0
LINE
  8
0
 10
-19.3887
 20
145.357
 11
-19.2135
 21
145.427
  0
LINE
  8
0
 10
-19.2135
 20
145.427
 11
-19.0311
 21
145.473
  0
LINE
  8
0
 10
-19.0311
 20
145.473
 11
-18.8442
 21
145.497
  0
LINE
  8
0
 10
-18.8442
 20
145.497
 11
-18.6558
 21
145.497
  0
LINE
  8
0
 10
-18.6558
 20
145.497
 11
-18.4689
 21
145.473
  0
LINE
  8
0
 10
-18.4689
 20
145.473
 11
-18.2865
 21
145.427
  0
LINE
  8
0
 10
-18.2865
 20
145.427
 11
-18.1113
 21
145.357
  0
LINE
  8
0
 10
-18.1113
 20
145.357
 11
-17.9463
 21
145.266
  0
LINE
  8
0
 10
-17.9463
 20
145.266
 11
-17.7939
 21
145.156
  0
LINE
  8
0
 10
-17.7939
 20
145.156
 11
-17.6565
 21
145.027
  0
LINE
  8
0
 10
-17.6565
 20
145.027
 11
-17.5365
 21
144.882
  0
LINE
  8
0
 10
-17.5365
 20
144.882
 11
-17.4355
 21
144.723
  0
LINE
  8
0
 10
-17.4355
 20
144.723
 11
-17.3553
 21
144.552
  0
LINE
  8
0
 10
-17.3553
 20
144.552
 11
-17.2971
 21
144.373
  0
LINE
  8
0
 10
-17.2971
 20
144.373
 11
-17.2618
 21
144.188
  0
LINE
  8
0
 10
-17.2618
 20
144.188
 11
-17.25
 21
144
  0
LINE
  8
0
 10
-17.25
 20
144
 11
-17.2618
 21
143.812
  0
LINE
  8
0
 10
-17.2618
 20
143.812
 11
-17.2971
 21
143.627
  0
LINE
  8
0
 10
-17.2971
 20
143.627
 11
-17.3553
 21
143.448
  0
LINE
  8
0
 10
-17.3553
 20
143.448
 11
-17.4355
 21
143.277
  0
LINE
  8
0
 10
-17.4355
 20
143.277
 11
-17.5365
 21
143.118
  0
LINE
  8
0
 10
-17.5365
 20
143.118
 11
-17.6565
 21
142.973
  0
LINE
  8
0
 10
-17.6565
 20
142.973
 11
-17.7939
 21
142.844
  0
LINE
  8
0
 10
-17.7939
 20
142.844
 11
-17.9463
 21
142.734
  0
LINE
  8
0
 10
-17.9463
 20
142.734
 11
-18.1113
 21
142.643
  0
LINE
  8
0
 10
-18.1113
 20
142.643
 11
-18.2865
 21
142.573
  0
LINE
  8
0
 10
-18.2865
 20
142.573
 11
-18.4689
 21
142.527
  0
LINE
  8
0
 10
-18.4689
 20
142.527
 11
-18.6558
 21
142.503
  0
LINE
  8
0
 10
-18.6558
 20
142.503
 11
-18.8442
 21
142.503
  0
LINE
  8
0
 10
-26.3442
 20
142.503
 11
-26.5311
 21
142.527
  0
LINE
  8
0
 10
-26.5311
 20
142.527
 11
-26.7135
 21
142.573
  0
LINE
  8
0
 10
-26.7135
 20
142.573
 11
-26.8887
 21
142.643
  0
LINE
  8
0
 10
-26.8887
 20
142.643
 11
-27.0537
 21
142.734
  0
LINE
  8
0
 10
-27.0537
 20
142.734
 11
-27.2061
 21
142.844
  0
LINE
  8
0
 10
-27.2061
 20
142.844
 11
-27.3434
 21
142.973
  0
LINE
  8
0
 10
-27.3434
 20
142.973
 11
-27.4635
 21
143.118
  0
LINE
  8
0
 10
-27.4635
 20
143.118
 11
-27.5645
 21
143.277
  0
LINE
  8
0
 10
-27.5645
 20
143.277
 11
-27.6447
 21
143.448
  0
LINE
  8
0
 10
-27.6447
 20
143.448
 11
-27.7029
 21
143.627
  0
LINE
  8
0
 10
-27.7029
 20
143.627
 11
-27.7382
 21
143.812
  0
LINE
  8
0
 10
-27.7382
 20
143.812
 11
-27.75
 21
144
  0
LINE
  8
0
 10
-27.75
 20
144
 11
-27.7382
 21
144.188
  0
LINE
  8
0
 10
-27.7382
 20
144.188
 11
-27.7029
 21
144.373
  0
LINE
  8
0
 10
-27.7029
 20
144.373
 11
-27.6447
 21
144.552
  0
LINE
  8
0
 10
-27.6447
 20
144.552
 11
-27.5645
 21
144.723
  0
LINE
  8
0
 10
-27.5645
 20
144.723
 11
-27.4635
 21
144.882
  0
LINE
  8
0
 10
-27.4635
 20
144.882
 11
-27.3434
 21
145.027
  0
LINE
  8
0
 10
-27.3434
 20
145.027
 11
-27.2061
 21
145.156
  0
LINE
  8
0
 10
-27.2061
 20
145.156
 11
-27.0537
 21
145.266
  0
LINE
  8
0
 10
-27.0537
 20
145.266
 11
-26.8887
 21
145.357
  0
LINE
  8
0
 10
-26.8887
 20
145.357
 11
-26.7135
 21
145.427
  0
LINE
  8
0
 10
-26.7135
 20
145.427
 11
-26.5311
 21
145.473
  0
LINE
  8
0
 10
-26.5311
 20
145.473
 11
-26.3442
 21
145.497
  0
LINE
  8
0
 10
-26.3442
 20
145.497
 11
-26.1558
 21
145.497
  0
LINE
  8
0
 10
-26.1558
 20
145.497
 11
-25.9689
 21
145.473
  0
LINE
  8
0
 10
-25.9689
 20
145.473
 11
-25.7865
 21
145.427
  0
LINE
  8
0
 10
-25.7865
 20
145.427
 11
-25.6113
 21
145.357
  0
LINE
  8
0
 10
-25.6113
 20
145.357
 11
-25.4463
 21
145.266
  0
LINE
  8
0
 10
-25.4463
 20
145.266
 11
-25.2939
 21
145.156
  0
LINE
  8
0
 10
-25.2939
 20
145.156
 11
-25.1565
 21
145.027
  0
LINE
  8
0
 10
-25.1565
 20
145.027
 11
-25.0365
 21
144.882
  0
LINE
  8
0
 10
-25.0365
 20
144.882
 11
-24.9355
 21
144.723
  0
LINE
  8
0
 10
-24.9355
 20
144.723
 11
-24.8553
 21
144.552
  0
LINE
  8
0
 10
-24.8553
 20
144.552
 11
-24.7971
 21
144.373
  0
LINE
  8
0
 10
-24.7971
 20
144.373
 11
-24.7618
 21
144.188
  0
LINE
  8
0
 10
-24.7618
 20
144.188
 11
-24.75
 21
144
  0
LINE
  8
0
 10
-24.75
 20
144
 11
-24.7618
 21
143.812
  0
LINE
  8
0
 10
-24.7618
 20
143.812
 11
-24.7971
 21
143.627
  0
LINE
  8
0
 10
-24.7971
 20
143.627
 11
-24.8553
 21
143.448
  0
LINE
  8
0
 10
-24.8553
 20
143.448
 11
-24.9355
 21
143.277
  0
LINE
  8
0
 10
-24.9355
 20
143.277
 11
-25.0365
 21
143.118
  0
LINE
  8
0
 10
-25.0365
 20
143.118
 11
-25.1565
 21
142.973
  0
LINE
  8
0
 10
-25.1565
 20
142.973
 11
-25.2939
 21
142.844
  0
LINE
  8
0
 10
-25.2939
 20
142.844
 11
-25.4463
 21
142.734
  0
LINE
  8
0
 10
-25.4463
 20
142.734
 11
-25.6113
 21
142.643
  0
LINE
  8
0
 10
-25.6113
 20
142.643
 11
-25.7865
 21
142.573
  0
LINE
  8
0
 10
-25.7865
 20
142.573
 11
-25.9689
 21
142.527
  0
LINE
  8
0
 10
-25.9689
 20
142.527
 11
-26.1558
 21
142.503
  0
LINE
  8
0
 10
-26.1558
 20
142.503
 11
-26.3442
 21
142.503
  0
LINE
  8
0
 10
3.65581
 20
142.503
 11
3.46892
 21
142.527
  0
LINE
  8
0
 10
3.46892
 20
142.527
 11
3.28647
 21
142.573
  0
LINE
  8
0
 10
3.28647
 20
142.573
 11
3.11133
 21
142.643
  0
LINE
  8
0
 10
3.11133
 20
142.643
 11
2.94626
 21
142.734
  0
LINE
  8
0
 10
2.94626
 20
142.734
 11
2.79385
 21
142.844
  0
LINE
  8
0
 10
2.79385
 20
142.844
 11
2.65654
 21
142.973
  0
LINE
  8
0
 10
2.65654
 20
142.973
 11
2.53647
 21
143.118
  0
LINE
  8
0
 10
2.53647
 20
143.118
 11
2.43553
 21
143.277
  0
LINE
  8
0
 10
2.43553
 20
143.277
 11
2.35533
 21
143.448
  0
LINE
  8
0
 10
2.35533
 20
143.448
 11
2.29712
 21
143.627
  0
LINE
  8
0
 10
2.29712
 20
143.627
 11
2.26183
 21
143.812
  0
LINE
  8
0
 10
2.26183
 20
143.812
 11
2.25
 21
144
  0
LINE
  8
0
 10
2.25
 20
144
 11
2.26183
 21
144.188
  0
LINE
  8
0
 10
2.26183
 20
144.188
 11
2.29712
 21
144.373
  0
LINE
  8
0
 10
2.29712
 20
144.373
 11
2.35533
 21
144.552
  0
LINE
  8
0
 10
2.35533
 20
144.552
 11
2.43553
 21
144.723
  0
LINE
  8
0
 10
2.43553
 20
144.723
 11
2.53647
 21
144.882
  0
LINE
  8
0
 10
2.53647
 20
144.882
 11
2.65654
 21
145.027
  0
LINE
  8
0
 10
2.65654
 20
145.027
 11
2.79385
 21
145.156
  0
LINE
  8
0
 10
2.79385
 20
145.156
 11
2.94626
 21
145.266
  0
LINE
  8
0
 10
2.94626
 20
145.266
 11
3.11133
 21
145.357
  0
LINE
  8
0
 10
3.11133
 20
145.357
 11
3.28647
 21
145.427
  0
LINE
  8
0
 10
3.28647
 20
145.427
 11
3.46892
 21
145.473
  0
LINE
  8
0
 10
3.46892
 20
145.473
 11
3.65581
 21
145.497
  0
LINE
  8
0
 10
3.65581
 20
145.497
 11
3.84418
 21
145.497
  0
LINE
  8
0
 10
3.84418
 20
145.497
 11
4.03107
 21
145.473
  0
LINE
  8
0
 10
4.03107
 20
145.473
 11
4.21352
 21
145.427
  0
LINE
  8
0
 10
4.21352
 20
145.427
 11
4.38866
 21
145.357
  0
LINE
  8
0
 10
4.38866
 20
145.357
 11
4.55373
 21
145.266
  0
LINE
  8
0
 10
4.55373
 20
145.266
 11
4.70613
 21
145.156
  0
LINE
  8
0
 10
4.70613
 20
145.156
 11
4.84344
 21
145.027
  0
LINE
  8
0
 10
4.84344
 20
145.027
 11
4.96352
 21
144.882
  0
LINE
  8
0
 10
4.96352
 20
144.882
 11
5.06445
 21
144.723
  0
LINE
  8
0
 10
5.06445
 20
144.723
 11
5.14465
 21
144.552
  0
LINE
  8
0
 10
5.14465
 20
144.552
 11
5.20287
 21
144.373
  0
LINE
  8
0
 10
5.20287
 20
144.373
 11
5.23816
 21
144.188
  0
LINE
  8
0
 10
5.23816
 20
144.188
 11
5.25
 21
144
  0
LINE
  8
0
 10
5.25
 20
144
 11
5.23816
 21
143.812
  0
LINE
  8
0
 10
5.23816
 20
143.812
 11
5.20287
 21
143.627
  0
LINE
  8
0
 10
5.20287
 20
143.627
 11
5.14465
 21
143.448
  0
LINE
  8
0
 10
5.14465
 20
143.448
 11
5.06445
 21
143.277
  0
LINE
  8
0
 10
5.06445
 20
143.277
 11
4.96352
 21
143.118
  0
LINE
  8
0
 10
4.96352
 20
143.118
 11
4.84344
 21
142.973
  0
LINE
  8
0
 10
4.84344
 20
142.973
 11
4.70613
 21
142.844
  0
LINE
  8
0
 10
4.70613
 20
142.844
 11
4.55373
 21
142.734
  0
LINE
  8
0
 10
4.55373
 20
142.734
 11
4.38866
 21
142.643
  0
LINE
  8
0
 10
4.38866
 20
142.643
 11
4.21352
 21
142.573
  0
LINE
  8
0
 10
4.21352
 20
142.573
 11
4.03107
 21
142.527
  0
LINE
  8
0
 10
4.03107
 20
142.527
 11
3.84418
 21
142.503
  0
LINE
  8
0
 10
3.84418
 20
142.503
 11
3.65581
 21
142.503
  0
LINE
  8
0
 10
18.6558
 20
142.503
 11
18.4689
 21
142.527
  0
LINE
  8
0
 10
18.4689
 20
142.527
 11
18.2865
 21
142.573
  0
LINE
  8
0
 10
18.2865
 20
142.573
 11
18.1113
 21
142.643
  0
LINE
  8
0
 10
18.1113
 20
142.643
 11
17.9463
 21
142.734
  0
LINE
  8
0
 10
17.9463
 20
142.734
 11
17.7939
 21
142.844
  0
LINE
  8
0
 10
17.7939
 20
142.844
 11
17.6565
 21
142.973
  0
LINE
  8
0
 10
17.6565
 20
142.973
 11
17.5365
 21
143.118
  0
LINE
  8
0
 10
17.5365
 20
143.118
 11
17.4355
 21
143.277
  0
LINE
  8
0
 10
17.4355
 20
143.277
 11
17.3553
 21
143.448
  0
LINE
  8
0
 10
17.3553
 20
143.448
 11
17.2971
 21
143.627
  0
LINE
  8
0
 10
17.2971
 20
143.627
 11
17.2618
 21
143.812
  0
LINE
  8
0
 10
17.2618
 20
143.812
 11
17.25
 21
144
  0
LINE
  8
0
 10
17.25
 20
144
 11
17.2618
 21
144.188
  0
LINE
  8
0
 10
17.2618
 20
144.188
 11
17.2971
 21
144.373
  0
LINE
  8
0
 10
17.2971
 20
144.373
 11
17.3553
 21
144.552
  0
LINE
  8
0
 10
17.3553
 20
144.552
 11
17.4355
 21
144.723
  0
LINE
  8
0
 10
17.4355
 20
144.723
 11
17.5365
 21
144.882
  0
LINE
  8
0
 10
17.5365
 20
144.882
 11
17.6565
 21
145.027
  0
LINE
  8
0
 10
17.6565
 20
145.027
 11
17.7939
 21
145.156
  0
LINE
  8
0
 10
17.7939
 20
145.156
 11
17.9463
 21
145.266
  0
LINE
  8
0
 10
17.9463
 20
145.266
 11
18.1113
 21
145.357
  0
LINE
  8
0
 10
18.1113
 20
145.357
 11
18.2865
 21
145.427
  0
LINE
  8
0
 10
18.2865
 20
145.427
 11
18.4689
 21
145.473
  0
LINE
  8
0
 10
18.4689
 20
145.473
 11
18.6558
 21
145.497
  0
LINE
  8
0
 10
18.6558
 20
145.497
 11
18.8442
 21
145.497
  0
LINE
  8
0
 10
18.8442
 20
145.497
 11
19.0311
 21
145.473
  0
LINE
  8
0
 10
19.0311
 20
145.473
 11
19.2135
 21
145.427
  0
LINE
  8
0
 10
19.2135
 20
145.427
 11
19.3887
 21
145.357
  0
LINE
  8
0
 10
19.3887
 20
145.357
 11
19.5537
 21
145.266
  0
LINE
  8
0
 10
19.5537
 20
145.266
 11
19.7061
 21
145.156
  0
LINE
  8
0
 10
19.7061
 20
145.156
 11
19.8434
 21
145.027
  0
LINE
  8
0
 10
19.8434
 20
145.027
 11
19.9635
 21
144.882
  0
LINE
  8
0
 10
19.9635
 20
144.882
 11
20.0645
 21
144.723
  0
LINE
  8
0
 10
20.0645
 20
144.723
 11
20.1447
 21
144.552
  0
LINE
  8
0
 10
20.1447
 20
144.552
 11
20.2029
 21
144.373
  0
LINE
  8
0
 10
20.2029
 20
144.373
 11
20.2382
 21
144.188
  0
LINE
  8
0
 10
20.2382
 20
144.188
 11
20.25
 21
144
  0
LINE
  8
0
 10
20.25
 20
144
 11
20.2382
 21
143.812
  0
LINE
  8
0
 10
20.2382
 20
143.812
 11
20.2029
 21
143.627
  0
LINE
  8
0
 10
20.2029
 20
143.627
 11
20.1447
 21
143.448
  0
LINE
  8
0
 10
20.1447
 20
143.448
 11
20.0645
 21
143.277
  0
LINE
  8
0
 10
20.0645
 20
143.277
 11
19.9635
 21
143.118
  0
LINE
  8
0
 10
19.9635
 20
143.118
 11
19.8434
 21
142.973
  0
LINE
  8
0
 10
19.8434
 20
142.973
 11
19.7061
 21
142.844
  0
LINE
  8
0
 10
19.7061
 20
142.844
 11
19.5537
 21
142.734
  0
LINE
  8
0
 10
19.5537
 20
142.734
 11
19.3887
 21
142.643
  0
LINE
  8
0
 10
19.3887
 20
142.643
 11
19.2135
 21
142.573
  0
LINE
  8
0
 10
19.2135
 20
142.573
 11
19.0311
 21
142.527
  0
LINE
  8
0
 10
19.0311
 20
142.527
 11
18.8442
 21
142.503
  0
LINE
  8
0
 10
18.8442
 20
142.503
 11
18.6558
 21
142.503
  0
LINE
  8
0
 10
26.1558
 20
142.503
 11
25.9689
 21
142.527
  0
LINE
  8
0
 10
25.9689
 20
142.527
 11
25.7865
 21
142.573
  0
LINE
  8
0
 10
25.7865
 20
142.573
 11
25.6113
 21
142.643
  0
LINE
  8
0
 10
25.6113
 20
142.643
 11
25.4463
 21
142.734
  0
LINE
  8
0
 10
25.4463
 20
142.734
 11
25.2939
 21
142.844
  0
LINE
  8
0
 10
25.2939
 20
142.844
 11
25.1565
 21
142.973
  0
LINE
  8
0
 10
25.1565
 20
142.973
 11
25.0365
 21
143.118
  0
LINE
  8
0
 10
25.0365
 20
143.118
 11
24.9355
 21
143.277
  0
LINE
  8
0
 10
24.9355
 20
143.277
 11
24.8553
 21
143.448
  0
LINE
  8
0
 10
24.8553
 20
143.448
 11
24.7971
 21
143.627
  0
LINE
  8
0
 10
24.7971
 20
143.627
 11
24.7618
 21
143.812
  0
LINE
  8
0
 10
24.7618
 20
143.812
 11
24.75
 21
144
  0
LINE
  8
0
 10
24.75
 20
144
 11
24.7618
 21
144.188
  0
LINE
  8
0
 10
24.7618
 20
144.188
 11
24.7971
 21
144.373
  0
LINE
  8
0
 10
24.7971
 20
144.373
 11
24.8553
 21
144.552
  0
LINE
  8
0
 10
24.8553
 20
144.552
 11
24.9355
 21
144.723
  0
LINE
  8
0
 10
24.9355
 20
144.723
 11
25.0365
 21
144.882
  0
LINE
  8
0
 10
25.0365
 20
144.882
 11
25.1565
 21
145.027
  0
LINE
  8
0
 10
25.1565
 20
145.027
 11
25.2939
 21
145.156
  0
LINE
  8
0
 10
25.2939
 20
145.156
 11
25.4463
 21
145.266
  0
LINE
  8
0
 10
25.4463
 20
145.266
 11
25.6113
 21
145.357
  0
LINE
  8
0
 10
25.6113
 20
145.357
 11
25.7865
 21
145.427
  0
LINE
  8
0
 10
25.7865
 20
145.427
 11
25.9689
 21
145.473
  0
LINE
  8
0
 10
25.9689
 20
145.473
 11
26.1558
 21
145.497
  0
LINE
  8
0
 10
26.1558
 20
145.497
 11
26.3442
 21
145.497
  0
LINE
  8
0
 10
26.3442
 20
145.497
 11
26.5311
 21
145.473
  0
LINE
  8
0
 10
26.5311
 20
145.473
 11
26.7135
 21
145.427
  0
LINE
  8
0
 10
26.7135
 20
145.427
 11
26.8887
 21
145.357
  0
LINE
  8
0
 10
26.8887
 20
145.357
 11
27.0537
 21
145.266
  0
LINE
  8
0
 10
27.0537
 20
145.266
 11
27.2061
 21
145.156
  0
LINE
  8
0
 10
27.2061
 20
145.156
 11
27.3434
 21
145.027
  0
LINE
  8
0
 10
27.3434
 20
145.027
 11
27.4635
 21
144.882
  0
LINE
  8
0
 10
27.4635
 20
144.882
 11
27.5645
 21
144.723
  0
LINE
  8
0
 10
27.5645
 20
144.723
 11
27.6447
 21
144.552
  0
LINE
  8
0
 10
27.6447
 20
144.552
 11
27.7029
 21
144.373
  0
LINE
  8
0
 10
27.7029
 20
144.373
 11
27.7382
 21
144.188
  0
LINE
  8
0
 10
27.7382
 20
144.188
 11
27.75
 21
144
  0
LINE
  8
0
 10
27.75
 20
144
 11
27.7382
 21
143.812
  0
LINE
  8
0
 10
27.7382
 20
143.812
 11
27.7029
 21
143.627
  0
LINE
  8
0
 10
27.7029
 20
143.627
 11
27.6447
 21
143.448
  0
LINE
  8
0
 10
27.6447
 20
143.448
 11
27.5645
 21
143.277
  0
LINE
  8
0
 10
27.5645
 20
143.277
 11
27.4635
 21
143.118
  0
LINE
  8
0
 10
27.4635
 20
143.118
 11
27.3434
 21
142.973
  0
LINE
  8
0
 10
27.3434
 20
142.973
 11
27.2061
 21
142.844
  0
LINE
  8
0
 10
27.2061
 20
142.844
 11
27.0537
 21
142.734
  0
LINE
  8
0
 10
27.0537
 20
142.734
 11
26.8887
 21
142.643
  0
LINE
  8
0
 10
26.8887
 20
142.643
 11
26.7135
 21
142.573
  0
LINE
  8
0
 10
26.7135
 20
142.573
 11
26.5311
 21
142.527
  0
LINE
  8
0
 10
26.5311
 20
142.527
 11
26.3442
 21
142.503
  0
LINE
  8
0
 10
26.3442
 20
142.503
 11
26.1558
 21
142.503
  0
LINE
  8
0
 10
-41.3442
 20
142.503
 11
-41.5311
 21
142.527
  0
LINE
  8
0
 10
-41.5311
 20
142.527
 11
-41.7135
 21
142.573
  0
LINE
  8
0
 10
-41.7135
 20
142.573
 11
-41.8887
 21
142.643
  0
LINE
  8
0
 10
-41.8887
 20
142.643
 11
-42.0537
 21
142.734
  0
LINE
  8
0
 10
-42.0537
 20
142.734
 11
-42.2061
 21
142.844
  0
LINE
  8
0
 10
-42.2061
 20
142.844
 11
-42.3434
 21
142.973
  0
LINE
  8
0
 10
-42.3434
 20
142.973
 11
-42.4635
 21
143.118
  0
LINE
  8
0
 10
-42.4635
 20
143.118
 11
-42.5645
 21
143.277
  0
LINE
  8
0
 10
-42.5645
 20
143.277
 11
-42.6447
 21
143.448
  0
LINE
  8
0
 10
-42.6447
 20
143.448
 11
-42.7029
 21
143.627
  0
LINE
  8
0
 10
-42.7029
 20
143.627
 11
-42.7382
 21
143.812
  0
LINE
  8
0
 10
-42.7382
 20
143.812
 11
-42.75
 21
144
  0
LINE
  8
0
 10
-42.75
 20
144
 11
-42.7382
 21
144.188
  0
LINE
  8
0
 10
-42.7382
 20
144.188
 11
-42.7029
 21
144.373
  0
LINE
  8
0
 10
-42.7029
 20
144.373
 11
-42.6447
 21
144.552
  0
LINE
  8
0
 10
-42.6447
 20
144.552
 11
-42.5645
 21
144.723
  0
LINE
  8
0
 10
-42.5645
 20
144.723
 11
-42.4635
 21
144.882
  0
LINE
  8
0
 10
-42.4635
 20
144.882
 11
-42.3434
 21
145.027
  0
LINE
  8
0
 10
-42.3434
 20
145.027
 11
-42.2061
 21
145.156
  0
LINE
  8
0
 10
-42.2061
 20
145.156
 11
-42.0537
 21
145.266
  0
LINE
  8
0
 10
-42.0537
 20
145.266
 11
-41.8887
 21
145.357
  0
LINE
  8
0
 10
-41.8887
 20
145.357
 11
-41.7135
 21
145.427
  0
LINE
  8
0
 10
-41.7135
 20
145.427
 11
-41.5311
 21
145.473
  0
LINE
  8
0
 10
-41.5311
 20
145.473
 11
-41.3442
 21
145.497
  0
LINE
  8
0
 10
-41.3442
 20
145.497
 11
-41.1558
 21
145.497
  0
LINE
  8
0
 10
-41.1558
 20
145.497
 11
-40.9689
 21
145.473
  0
LINE
  8
0
 10
-40.9689
 20
145.473
 11
-40.7865
 21
145.427
  0
LINE
  8
0
 10
-40.7865
 20
145.427
 11
-40.6113
 21
145.357
  0
LINE
  8
0
 10
-40.6113
 20
145.357
 11
-40.4463
 21
145.266
  0
LINE
  8
0
 10
-40.4463
 20
145.266
 11
-40.2939
 21
145.156
  0
LINE
  8
0
 10
-40.2939
 20
145.156
 11
-40.1565
 21
145.027
  0
LINE
  8
0
 10
-40.1565
 20
145.027
 11
-40.0365
 21
144.882
  0
LINE
  8
0
 10
-40.0365
 20
144.882
 11
-39.9355
 21
144.723
  0
LINE
  8
0
 10
-39.9355
 20
144.723
 11
-39.8553
 21
144.552
  0
LINE
  8
0
 10
-39.8553
 20
144.552
 11
-39.7971
 21
144.373
  0
LINE
  8
0
 10
-39.7971
 20
144.373
 11
-39.7618
 21
144.188
  0
LINE
  8
0
 10
-39.7618
 20
144.188
 11
-39.75
 21
144
  0
LINE
  8
0
 10
-39.75
 20
144
 11
-39.7618
 21
143.812
  0
LINE
  8
0
 10
-39.7618
 20
143.812
 11
-39.7971
 21
143.627
  0
LINE
  8
0
 10
-39.7971
 20
143.627
 11
-39.8553
 21
143.448
  0
LINE
  8
0
 10
-39.8553
 20
143.448
 11
-39.9355
 21
143.277
  0
LINE
  8
0
 10
-39.9355
 20
143.277
 11
-40.0365
 21
143.118
  0
LINE
  8
0
 10
-40.0365
 20
143.118
 11
-40.1565
 21
142.973
  0
LINE
  8
0
 10
-40.1565
 20
142.973
 11
-40.2939
 21
142.844
  0
LINE
  8
0
 10
-40.2939
 20
142.844
 11
-40.4463
 21
142.734
  0
LINE
  8
0
 10
-40.4463
 20
142.734
 11
-40.6113
 21
142.643
  0
LINE
  8
0
 10
-40.6113
 20
142.643
 11
-40.7865
 21
142.573
  0
LINE
  8
0
 10
-40.7865
 20
142.573
 11
-40.9689
 21
142.527
  0
LINE
  8
0
 10
-40.9689
 20
142.527
 11
-41.1558
 21
142.503
  0
LINE
  8
0
 10
-41.1558
 20
142.503
 11
-41.3442
 21
142.503
  0
LINE
  8
0
 10
-3.84418
 20
142.503
 11
-4.03107
 21
142.527
  0
LINE
  8
0
 10
-4.03107
 20
142.527
 11
-4.21352
 21
142.573
  0
LINE
  8
0
 10
-4.21352
 20
142.573
 11
-4.38866
 21
142.643
  0
LINE
  8
0
 10
-4.38866
 20
142.643
 11
-4.55373
 21
142.734
  0
LINE
  8
0
 10
-4.55373
 20
142.734
 11
-4.70613
 21
142.844
  0
LINE
  8
0
 10
-4.70613
 20
142.844
 11
-4.84344
 21
142.973
  0
LINE
  8
0
 10
-4.84344
 20
142.973
 11
-4.96352
 21
143.118
  0
LINE
  8
0
 10
-4.96352
 20
143.118
 11
-5.06445
 21
143.277
  0
LINE
  8
0
 10
-5.06445
 20
143.277
 11
-5.14465
 21
143.448
  0
LINE
  8
0
 10
-5.14465
 20
143.448
 11
-5.20287
 21
143.627
  0
LINE
  8
0
 10
-5.20287
 20
143.627
 11
-5.23816
 21
143.812
  0
LINE
  8
0
 10
-5.23816
 20
143.812
 11
-5.25
 21
144
  0
LINE
  8
0
 10
-5.25
 20
144
 11
-5.23816
 21
144.188
  0
LINE
  8
0
 10
-5.23816
 20
144.188
 11
-5.20287
 21
144.373
  0
LINE
  8
0
 10
-5.20287
 20
144.373
 11
-5.14465
 21
144.552
  0
LINE
  8
0
 10
-5.14465
 20
144.552
 11
-5.06445
 21
144.723
  0
LINE
  8
0
 10
-5.06445
 20
144.723
 11
-4.96352
 21
144.882
  0
LINE
  8
0
 10
-4.96352
 20
144.882
 11
-4.84344
 21
145.027
  0
LINE
  8
0
 10
-4.84344
 20
145.027
 11
-4.70613
 21
145.156
  0
LINE
  8
0
 10
-4.70613
 20
145.156
 11
-4.55373
 21
145.266
  0
LINE
  8
0
 10
-4.55373
 20
145.266
 11
-4.38866
 21
145.357
  0
LINE
  8
0
 10
-4.38866
 20
145.357
 11
-4.21352
 21
145.427
  0
LINE
  8
0
 10
-4.21352
 20
145.427
 11
-4.03107
 21
145.473
  0
LINE
  8
0
 10
-4.03107
 20
145.473
 11
-3.84418
 21
145.497
  0
LINE
  8
0
 10
-3.84418
 20
145.497
 11
-3.65581
 21
145.497
  0
LINE
  8
0
 10
-3.65581
 20
145.497
 11
-3.46892
 21
145.473
  0
LINE
  8
0
 10
-3.46892
 20
145.473
 11
-3.28647
 21
145.427
  0
LINE
  8
0
 10
-3.28647
 20
145.427
 11
-3.11133
 21
145.357
  0
LINE
  8
0
 10
-3.11133
 20
145.357
 11
-2.94626
 21
145.266
  0
LINE
  8
0
 10
-2.94626
 20
145.266
 11
-2.79385
 21
145.156
  0
LINE
  8
0
 10
-2.79385
 20
145.156
 11
-2.65654
 21
145.027
  0
LINE
  8
0
 10
-2.65654
 20
145.027
 11
-2.53647
 21
144.882
  0
LINE
  8
0
 10
-2.53647
 20
144.882
 11
-2.43553
 21
144.723
  0
LINE
  8
0
 10
-2.43553
 20
144.723
 11
-2.35533
 21
144.552
  0
LINE
  8
0
 10
-2.35533
 20
144.552
 11
-2.29712
 21
144.373
  0
LINE
  8
0
 10
-2.29712
 20
144.373
 11
-2.26183
 21
144.188
  0
LINE
  8
0
 10
-2.26183
 20
144.188
 11
-2.25
 21
144
  0
LINE
  8
0
 10
-2.25
 20
144
 11
-2.26183
 21
143.812
  0
LINE
  8
0
 10
-2.26183
 20
143.812
 11
-2.29712
 21
143.627
  0
LINE
  8
0
 10
-2.29712
 20
143.627
 11
-2.35533
 21
143.448
  0
LINE
  8
0
 10
-2.35533
 20
143.448
 11
-2.43553
 21
143.277
  0
LINE
  8
0
 10
-2.43553
 20
143.277
 11
-2.53647
 21
143.118
  0
LINE
  8
0
 10
-2.53647
 20
143.118
 11
-2.65654
 21
142.973
  0
LINE
  8
0
 10
-2.65654
 20
142.973
 11
-2.79385
 21
142.844
  0
LINE
  8
0
 10
-2.79385
 20
142.844
 11
-2.94626
 21
142.734
  0
LINE
  8
0
 10
-2.94626
 20
142.734
 11
-3.11133
 21
142.643
  0
LINE
  8
0
 10
-3.11133
 20
142.643
 11
-3.28647
 21
142.573
  0
LINE
  8
0
 10
-3.28647
 20
142.573
 11
-3.46892
 21
142.527
  0
LINE
  8
0
 10
-3.46892
 20
142.527
 11
-3.65581
 21
142.503
  0
LINE
  8
0
 10
-3.65581
 20
142.503
 11
-3.84418
 21
142.503
  0
LINE
  8
0
 10
41.1558
 20
142.503
 11
40.9689
 21
142.527
  0
LINE
  8
0
 10
40.9689
 20
142.527
 11
40.7865
 21
142.573
  0
LINE
  8
0
 10
40.7865
 20
142.573
 11
40.6113
 21
142.643
  0
LINE
  8
0
 10
40.6113
 20
142.643
 11
40.4463
 21
142.734
  0
LINE
  8
0
 10
40.4463
 20
142.734
 11
40.2939
 21
142.844
  0
LINE
  8
0
 10
40.2939
 20
142.844
 11
40.1565
 21
142.973
  0
LINE
  8
0
 10
40.1565
 20
142.973
 11
40.0365
 21
143.118
  0
LINE
  8
0
 10
40.0365
 20
143.118
 11
39.9355
 21
143.277
  0
LINE
  8
0
 10
39.9355
 20
143.277
 11
39.8553
 21
143.448
  0
LINE
  8
0
 10
39.8553
 20
143.448
 11
39.7971
 21
143.627
  0
LINE
  8
0
 10
39.7971
 20
143.627
 11
39.7618
 21
143.812
  0
LINE
  8
0
 10
39.7618
 20
143.812
 11
39.75
 21
144
  0
LINE
  8
0
 10
39.75
 20
144
 11
39.7618
 21
144.188
  0
LINE
  8
0
 10
39.7618
 20
144.188
 11
39.7971
 21
144.373
  0
LINE
  8
0
 10
39.7971
 20
144.373
 11
39.8553
 21
144.552
  0
LINE
  8
0
 10
39.8553
 20
144.552
 11
39.9355
 21
144.723
  0
LINE
  8
0
 10
39.9355
 20
144.723
 11
40.0365
 21
144.882
  0
LINE
  8
0
 10
40.0365
 20
144.882
 11
40.1565
 21
145.027
  0
LINE
  8
0
 10
40.1565
 20
145.027
 11
40.2939
 21
145.156
  0
LINE
  8
0
 10
40.2939
 20
145.156
 11
40.4463
 21
145.266
  0
LINE
  8
0
 10
40.4463
 20
145.266
 11
40.6113
 21
145.357
  0
LINE
  8
0
 10
40.6113
 20
145.357
 11
40.7865
 21
145.427
  0
LINE
  8
0
 10
40.7865
 20
145.427
 11
40.9689
 21
145.473
  0
LINE
  8
0
 10
40.9689
 20
145.473
 11
41.1558
 21
145.497
  0
LINE
  8
0
 10
41.1558
 20
145.497
 11
41.3442
 21
145.497
  0
LINE
  8
0
 10
41.3442
 20
145.497
 11
41.5311
 21
145.473
  0
LINE
  8
0
 10
41.5311
 20
145.473
 11
41.7135
 21
145.427
  0
LINE
  8
0
 10
41.7135
 20
145.427
 11
41.8887
 21
145.357
  0
LINE
  8
0
 10
41.8887
 20
145.357
 11
42.0537
 21
145.266
  0
LINE
  8
0
 10
42.0537
 20
145.266
 11
42.2061
 21
145.156
  0
LINE
  8
0
 10
42.2061
 20
145.156
 11
42.3434
 21
145.027
  0
LINE
  8
0
 10
42.3434
 20
145.027
 11
42.4635
 21
144.882
  0
LINE
  8
0
 10
42.4635
 20
144.882
 11
42.5645
 21
144.723
  0
LINE
  8
0
 10
42.5645
 20
144.723
 11
42.6447
 21
144.552
  0
LINE
  8
0
 10
42.6447
 20
144.552
 11
42.7029
 21
144.373
  0
LINE
  8
0
 10
42.7029
 20
144.373
 11
42.7382
 21
144.188
  0
LINE
  8
0
 10
42.7382
 20
144.188
 11
42.75
 21
144
  0
LINE
  8
0
 10
42.75
 20
144
 11
42.7382
 21
143.812
  0
LINE
  8
0
 10
42.7382
 20
143.812
 11
42.7029
 21
143.627
  0
LINE
  8
0
 10
42.7029
 20
143.627
 11
42.6447
 21
143.448
  0
LINE
  8
0
 10
42.6447
 20
143.448
 11
42.5645
 21
143.277
  0
LINE
  8
0
 10
42.5645
 20
143.277
 11
42.4635
 21
143.118
  0
LINE
  8
0
 10
42.4635
 20
143.118
 11
42.3434
 21
142.973
  0
LINE
  8
0
 10
42.3434
 20
142.973
 11
42.2061
 21
142.844
  0
LINE
  8
0
 10
42.2061
 20
142.844
 11
42.0537
 21
142.734
  0
LINE
  8
0
 10
42.0537
 20
142.734
 11
41.8887
 21
142.643
  0
LINE
  8
0
 10
41.8887
 20
142.643
 11
41.7135
 21
142.573
  0
LINE
  8
0
 10
41.7135
 20
142.573
 11
41.5311
 21
142.527
  0
LINE
  8
0
 10
41.5311
 20
142.527
 11
41.3442
 21
142.503
  0
LINE
  8
0
 10
41.3442
 20
142.503
 11
41.1558
 21
142.503
  0
LINE
  8
0
 10
11.1558
 20
142.503
 11
10.9689
 21
142.527
  0
LINE
  8
0
 10
10.9689
 20
142.527
 11
10.7865
 21
142.573
  0
LINE
  8
0
 10
10.7865
 20
142.573
 11
10.6113
 21
142.643
  0
LINE
  8
0
 10
10.6113
 20
142.643
 11
10.4463
 21
142.734
  0
LINE
  8
0
 10
10.4463
 20
142.734
 11
10.2939
 21
142.844
  0
LINE
  8
0
 10
10.2939
 20
142.844
 11
10.1565
 21
142.973
  0
LINE
  8
0
 10
10.1565
 20
142.973
 11
10.0365
 21
143.118
  0
LINE
  8
0
 10
10.0365
 20
143.118
 11
9.93553
 21
143.277
  0
LINE
  8
0
 10
9.93553
 20
143.277
 11
9.85533
 21
143.448
  0
LINE
  8
0
 10
9.85533
 20
143.448
 11
9.79712
 21
143.627
  0
LINE
  8
0
 10
9.79712
 20
143.627
 11
9.76183
 21
143.812
  0
LINE
  8
0
 10
9.76183
 20
143.812
 11
9.75
 21
144
  0
LINE
  8
0
 10
9.75
 20
144
 11
9.76183
 21
144.188
  0
LINE
  8
0
 10
9.76183
 20
144.188
 11
9.79712
 21
144.373
  0
LINE
  8
0
 10
9.79712
 20
144.373
 11
9.85533
 21
144.552
  0
LINE
  8
0
 10
9.85533
 20
144.552
 11
9.93553
 21
144.723
  0
LINE
  8
0
 10
9.93553
 20
144.723
 11
10.0365
 21
144.882
  0
LINE
  8
0
 10
10.0365
 20
144.882
 11
10.1565
 21
145.027
  0
LINE
  8
0
 10
10.1565
 20
145.027
 11
10.2939
 21
145.156
  0
LINE
  8
0
 10
10.2939
 20
145.156
 11
10.4463
 21
145.266
  0
LINE
  8
0
 10
10.4463
 20
145.266
 11
10.6113
 21
145.357
  0
LINE
  8
0
 10
10.6113
 20
145.357
 11
10.7865
 21
145.427
  0
LINE
  8
0
 10
10.7865
 20
145.427
 11
10.9689
 21
145.473
  0
LINE
  8
0
 10
10.9689
 20
145.473
 11
11.1558
 21
145.497
  0
LINE
  8
0
 10
11.1558
 20
145.497
 11
11.3442
 21
145.497
  0
LINE
  8
0
 10
11.3442
 20
145.497
 11
11.5311
 21
145.473
  0
LINE
  8
0
 10
11.5311
 20
145.473
 11
11.7135
 21
145.427
  0
LINE
  8
0
 10
11.7135
 20
145.427
 11
11.8887
 21
145.357
  0
LINE
  8
0
 10
11.8887
 20
145.357
 11
12.0537
 21
145.266
  0
LINE
  8
0
 10
12.0537
 20
145.266
 11
12.2061
 21
145.156
  0
LINE
  8
0
 10
12.2061
 20
145.156
 11
12.3434
 21
145.027
  0
LINE
  8
0
 10
12.3434
 20
145.027
 11
12.4635
 21
144.882
  0
LINE
  8
0
 10
12.4635
 20
144.882
 11
12.5645
 21
144.723
  0
LINE
  8
0
 10
12.5645
 20
144.723
 11
12.6447
 21
144.552
  0
LINE
  8
0
 10
12.6447
 20
144.552
 11
12.7029
 21
144.373
  0
LINE
  8
0
 10
12.7029
 20
144.373
 11
12.7382
 21
144.188
  0
LINE
  8
0
 10
12.7382
 20
144.188
 11
12.75
 21
144
  0
LINE
  8
0
 10
12.75
 20
144
 11
12.7382
 21
143.812
  0
LINE
  8
0
 10
12.7382
 20
143.812
 11
12.7029
 21
143.627
  0
LINE
  8
0
 10
12.7029
 20
143.627
 11
12.6447
 21
143.448
  0
LINE
  8
0
 10
12.6447
 20
143.448
 11
12.5645
 21
143.277
  0
LINE
  8
0
 10
12.5645
 20
143.277
 11
12.4635
 21
143.118
  0
LINE
  8
0
 10
12.4635
 20
143.118
 11
12.3434
 21
142.973
  0
LINE
  8
0
 10
12.3434
 20
142.973
 11
12.2061
 21
142.844
  0
LINE
  8
0
 10
12.2061
 20
142.844
 11
12.0537
 21
142.734
  0
LINE
  8
0
 10
12.0537
 20
142.734
 11
11.8887
 21
142.643
  0
LINE
  8
0
 10
11.8887
 20
142.643
 11
11.7135
 21
142.573
  0
LINE
  8
0
 10
11.7135
 20
142.573
 11
11.5311
 21
142.527
  0
LINE
  8
0
 10
11.5311
 20
142.527
 11
11.3442
 21
142.503
  0
LINE
  8
0
 10
11.3442
 20
142.503
 11
11.1558
 21
142.503
  0
LINE
  8
0
 10
33.6558
 20
142.503
 11
33.4689
 21
142.527
  0
LINE
  8
0
 10
33.4689
 20
142.527
 11
33.2865
 21
142.573
  0
LINE
  8
0
 10
33.2865
 20
142.573
 11
33.1113
 21
142.643
  0
LINE
  8
0
 10
33.1113
 20
142.643
 11
32.9463
 21
142.734
  0
LINE
  8
0
 10
32.9463
 20
142.734
 11
32.7939
 21
142.844
  0
LINE
  8
0
 10
32.7939
 20
142.844
 11
32.6565
 21
142.973
  0
LINE
  8
0
 10
32.6565
 20
142.973
 11
32.5365
 21
143.118
  0
LINE
  8
0
 10
32.5365
 20
143.118
 11
32.4355
 21
143.277
  0
LINE
  8
0
 10
32.4355
 20
143.277
 11
32.3553
 21
143.448
  0
LINE
  8
0
 10
32.3553
 20
143.448
 11
32.2971
 21
143.627
  0
LINE
  8
0
 10
32.2971
 20
143.627
 11
32.2618
 21
143.812
  0
LINE
  8
0
 10
32.2618
 20
143.812
 11
32.25
 21
144
  0
LINE
  8
0
 10
32.25
 20
144
 11
32.2618
 21
144.188
  0
LINE
  8
0
 10
32.2618
 20
144.188
 11
32.2971
 21
144.373
  0
LINE
  8
0
 10
32.2971
 20
144.373
 11
32.3553
 21
144.552
  0
LINE
  8
0
 10
32.3553
 20
144.552
 11
32.4355
 21
144.723
  0
LINE
  8
0
 10
32.4355
 20
144.723
 11
32.5365
 21
144.882
  0
LINE
  8
0
 10
32.5365
 20
144.882
 11
32.6565
 21
145.027
  0
LINE
  8
0
 10
32.6565
 20
145.027
 11
32.7939
 21
145.156
  0
LINE
  8
0
 10
32.7939
 20
145.156
 11
32.9463
 21
145.266
  0
LINE
  8
0
 10
32.9463
 20
145.266
 11
33.1113
 21
145.357
  0
LINE
  8
0
 10
33.1113
 20
145.357
 11
33.2865
 21
145.427
  0
LINE
  8
0
 10
33.2865
 20
145.427
 11
33.4689
 21
145.473
  0
LINE
  8
0
 10
33.4689
 20
145.473
 11
33.6558
 21
145.497
  0
LINE
  8
0
 10
33.6558
 20
145.497
 11
33.8442
 21
145.497
  0
LINE
  8
0
 10
33.8442
 20
145.497
 11
34.0311
 21
145.473
  0
LINE
  8
0
 10
34.0311
 20
145.473
 11
34.2135
 21
145.427
  0
LINE
  8
0
 10
34.2135
 20
145.427
 11
34.3887
 21
145.357
  0
LINE
  8
0
 10
34.3887
 20
145.357
 11
34.5537
 21
145.266
  0
LINE
  8
0
 10
34.5537
 20
145.266
 11
34.7061
 21
145.156
  0
LINE
  8
0
 10
34.7061
 20
145.156
 11
34.8434
 21
145.027
  0
LINE
  8
0
 10
34.8434
 20
145.027
 11
34.9635
 21
144.882
  0
LINE
  8
0
 10
34.9635
 20
144.882
 11
35.0645
 21
144.723
  0
LINE
  8
0
 10
35.0645
 20
144.723
 11
35.1447
 21
144.552
  0
LINE
  8
0
 10
35.1447
 20
144.552
 11
35.2029
 21
144.373
  0
LINE
  8
0
 10
35.2029
 20
144.373
 11
35.2382
 21
144.188
  0
LINE
  8
0
 10
35.2382
 20
144.188
 11
35.25
 21
144
  0
LINE
  8
0
 10
35.25
 20
144
 11
35.2382
 21
143.812
  0
LINE
  8
0
 10
35.2382
 20
143.812
 11
35.2029
 21
143.627
  0
LINE
  8
0
 10
35.2029
 20
143.627
 11
35.1447
 21
143.448
  0
LINE
  8
0
 10
35.1447
 20
143.448
 11
35.0645
 21
143.277
  0
LINE
  8
0
 10
35.0645
 20
143.277
 11
34.9635
 21
143.118
  0
LINE
  8
0
 10
34.9635
 20
143.118
 11
34.8434
 21
142.973
  0
LINE
  8
0
 10
34.8434
 20
142.973
 11
34.7061
 21
142.844
  0
LINE
  8
0
 10
34.7061
 20
142.844
 11
34.5537
 21
142.734
  0
LINE
  8
0
 10
34.5537
 20
142.734
 11
34.3887
 21
142.643
  0
LINE
  8
0
 10
34.3887
 20
142.643
 11
34.2135
 21
142.573
  0
LINE
  8
0
 10
34.2135
 20
142.573
 11
34.0311
 21
142.527
  0
LINE
  8
0
 10
34.0311
 20
142.527
 11
33.8442
 21
142.503
  0
LINE
  8
0
 10
33.8442
 20
142.503
 11
33.6558
 21
142.503
  0
LINE
  8
0
 10
42.7184
 20
116.544
 11
43.0225
 21
116.622
  0
LINE
  8
0
 10
43.0225
 20
116.622
 11
43.3144
 21
116.738
  0
LINE
  8
0
 10
43.3144
 20
116.738
 11
43.5896
 21
116.889
  0
LINE
  8
0
 10
43.5896
 20
116.889
 11
43.8436
 21
117.074
  0
LINE
  8
0
 10
43.8436
 20
117.074
 11
44.0724
 21
117.289
  0
LINE
  8
0
 10
44.0724
 20
117.289
 11
44.2725
 21
117.531
  0
LINE
  8
0
 10
44.2725
 20
117.531
 11
44.4408
 21
117.796
  0
LINE
  8
0
 10
44.4408
 20
117.796
 11
44.5744
 21
118.08
  0
LINE
  8
0
 10
44.5744
 20
118.08
 11
44.6714
 21
118.378
  0
LINE
  8
0
 10
44.6714
 20
118.378
 11
44.7303
 21
118.687
  0
LINE
  8
0
 10
44.7303
 20
118.687
 11
44.75
 21
119
  0
LINE
  8
0
 10
44.75
 20
119
 11
44.75
 21
121
  0
LINE
  8
0
 10
44.75
 20
121
 11
44.7303
 21
121.313
  0
LINE
  8
0
 10
44.7303
 20
121.313
 11
44.6714
 21
121.622
  0
LINE
  8
0
 10
44.6714
 20
121.622
 11
44.5744
 21
121.92
  0
LINE
  8
0
 10
44.5744
 20
121.92
 11
44.4408
 21
122.204
  0
LINE
  8
0
 10
44.4408
 20
122.204
 11
44.2725
 21
122.469
  0
LINE
  8
0
 10
44.2725
 20
122.469
 11
44.0724
 21
122.711
  0
LINE
  8
0
 10
44.0724
 20
122.711
 11
43.8436
 21
122.926
  0
LINE
  8
0
 10
43.8436
 20
122.926
 11
43.5896
 21
123.111
  0
LINE
  8
0
 10
43.5896
 20
123.111
 11
43.3144
 21
123.262
  0
LINE
  8
0
 10
43.3144
 20
123.262
 11
43.0225
 21
123.378
  0
LINE
  8
0
 10
43.0225
 20
123.378
 11
42.7184
 21
123.456
  0
LINE
  8
0
 10
42.7184
 20
123.456
 11
42.407
 21
123.495
  0
LINE
  8
0
 10
42.407
 20
123.495
 11
-42.407
 21
123.495
  0
LINE
  8
0
 10
-42.407
 20
123.495
 11
-42.7184
 21
123.456
  0
LINE
  8
0
 10
-42.7184
 20
123.456
 11
-43.0225
 21
123.378
  0
LINE
  8
0
 10
-43.0225
 20
123.378
 11
-43.3144
 21
123.262
  0
LINE
  8
0
 10
-43.3144
 20
123.262
 11
-43.5896
 21
123.111
  0
LINE
  8
0
 10
-43.5896
 20
123.111
 11
-43.8436
 21
122.926
  0
LINE
  8
0
 10
-43.8436
 20
122.926
 11
-44.0724
 21
122.711
  0
LINE
  8
0
 10
-44.0724
 20
122.711
 11
-44.2725
 21
122.469
  0
LINE
  8
0
 10
-44.2725
 20
122.469
 11
-44.4408
 21
122.204
  0
LINE
  8
0
 10
-44.4408
 20
122.204
 11
-44.5744
 21
121.92
  0
LINE
  8
0
 10
-44.5744
 20
121.92
 11
-44.6714
 21
121.622
  0
LINE
  8
0
 10
-44.6714
 20
121.622
 11
-44.7303
 21
121.313
  0
LINE
  8
0
 10
-44.7303
 20
121.313
 11
-44.75
 21
121
  0
LINE
  8
0
 10
-44.75
 20
121
 11
-44.75
 21
119
  0
LINE
  8
0
 10
-44.75
 20
119
 11
-44.7303
 21
118.687
  0
LINE
  8
0
 10
-44.7303
 20
118.687
 11
-44.6714
 21
118.378
  0
LINE
  8
0
 10
-44.6714
 20
118.378
 11
-44.5744
 21
118.08
  0
LINE
  8
0
 10
-44.5744
 20
118.08
 11
-44.4408
 21
117.796
  0
LINE
  8
0
 10
-44.4408
 20
117.796
 11
-44.2725
 21
117.531
  0
LINE
  8
0
 10
-44.2725
 20
117.531
 11
-44.0724
 21
117.289
  0
LINE
  8
0
 10
-44.0724
 20
117.289
 11
-43.8436
 21
117.074
  0
LINE
  8
0
 10
-43.8436
 20
117.074
 11
-43.5896
 21
116.889
  0
LINE
  8
0
 10
-43.5896
 20
116.889
 11
-43.3144
 21
116.738
  0
LINE
  8
0
 10
-43.3144
 20
116.738
 11
-43.0225
 21
116.622
  0
LINE
  8
0
 10
-43.0225
 20
116.622
 11
-42.7184
 21
116.544
  0
LINE
  8
0
 10
-42.7184
 20
116.544
 11
-42.407
 21
116.505
  0
LINE
  8
0
 10
-42.407
 20
116.505
 11
42.407
 21
116.505
  0
LINE
  8
0
 10
42.407
 20
116.505
 11
42.7184
 21
116.544
  0
LINE
  8
0
 10
-33.8442
 20
118.503
 11
-34.0311
 21
118.527
  0
LINE
  8
0
 10
-34.0311
 20
118.527
 11
-34.2135
 21
118.573
  0
LINE
  8
0
 10
-34.2135
 20
118.573
 11
-34.3887
 21
118.643
  0
LINE
  8
0
 10
-34.3887
 20
118.643
 11
-34.5537
 21
118.734
  0
LINE
  8
0
 10
-34.5537
 20
118.734
 11
-34.7061
 21
118.844
  0
LINE
  8
0
 10
-34.7061
 20
118.844
 11
-34.8434
 21
118.973
  0
LINE
  8
0
 10
-34.8434
 20
118.973
 11
-34.9635
 21
119.118
  0
LINE
  8
0
 10
-34.9635
 20
119.118
 11
-35.0645
 21
119.277
  0
LINE
  8
0
 10
-35.0645
 20
119.277
 11
-35.1447
 21
119.448
  0
LINE
  8
0
 10
-35.1447
 20
119.448
 11
-35.2029
 21
119.627
  0
LINE
  8
0
 10
-35.2029
 20
119.627
 11
-35.2382
 21
119.812
  0
LINE
  8
0
 10
-35.2382
 20
119.812
 11
-35.25
 21
120
  0
LINE
  8
0
 10
-35.25
 20
120
 11
-35.2382
 21
120.188
  0
LINE
  8
0
 10
-35.2382
 20
120.188
 11
-35.2029
 21
120.373
  0
LINE
  8
0
 10
-35.2029
 20
120.373
 11
-35.1447
 21
120.552
  0
LINE
  8
0
 10
-35.1447
 20
120.552
 11
-35.0645
 21
120.723
  0
LINE
  8
0
 10
-35.0645
 20
120.723
 11
-34.9635
 21
120.882
  0
LINE
  8
0
 10
-34.9635
 20
120.882
 11
-34.8434
 21
121.027
  0
LINE
  8
0
 10
-34.8434
 20
121.027
 11
-34.7061
 21
121.156
  0
LINE
  8
0
 10
-34.7061
 20
121.156
 11
-34.5537
 21
121.266
  0
LINE
  8
0
 10
-34.5537
 20
121.266
 11
-34.3887
 21
121.357
  0
LINE
  8
0
 10
-34.3887
 20
121.357
 11
-34.2135
 21
121.427
  0
LINE
  8
0
 10
-34.2135
 20
121.427
 11
-34.0311
 21
121.473
  0
LINE
  8
0
 10
-34.0311
 20
121.473
 11
-33.8442
 21
121.497
  0
LINE
  8
0
 10
-33.8442
 20
121.497
 11
-33.6558
 21
121.497
  0
LINE
  8
0
 10
-33.6558
 20
121.497
 11
-33.4689
 21
121.473
  0
LINE
  8
0
 10
-33.4689
 20
121.473
 11
-33.2865
 21
121.427
  0
LINE
  8
0
 10
-33.2865
 20
121.427
 11
-33.1113
 21
121.357
  0
LINE
  8
0
 10
-33.1113
 20
121.357
 11
-32.9463
 21
121.266
  0
LINE
  8
0
 10
-32.9463
 20
121.266
 11
-32.7939
 21
121.156
  0
LINE
  8
0
 10
-32.7939
 20
121.156
 11
-32.6565
 21
121.027
  0
LINE
  8
0
 10
-32.6565
 20
121.027
 11
-32.5365
 21
120.882
  0
LINE
  8
0
 10
-32.5365
 20
120.882
 11
-32.4355
 21
120.723
  0
LINE
  8
0
 10
-32.4355
 20
120.723
 11
-32.3553
 21
120.552
  0
LINE
  8
0
 10
-32.3553
 20
120.552
 11
-32.2971
 21
120.373
  0
LINE
  8
0
 10
-32.2971
 20
120.373
 11
-32.2618
 21
120.188
  0
LINE
  8
0
 10
-32.2618
 20
120.188
 11
-32.25
 21
120
  0
LINE
  8
0
 10
-32.25
 20
120
 11
-32.2618
 21
119.812
  0
LINE
  8
0
 10
-32.2618
 20
119.812
 11
-32.2971
 21
119.627
  0
LINE
  8
0
 10
-32.2971
 20
119.627
 11
-32.3553
 21
119.448
  0
LINE
  8
0
 10
-32.3553
 20
119.448
 11
-32.4355
 21
119.277
  0
LINE
  8
0
 10
-32.4355
 20
119.277
 11
-32.5365
 21
119.118
  0
LINE
  8
0
 10
-32.5365
 20
119.118
 11
-32.6565
 21
118.973
  0
LINE
  8
0
 10
-32.6565
 20
118.973
 11
-32.7939
 21
118.844
  0
LINE
  8
0
 10
-32.7939
 20
118.844
 11
-32.9463
 21
118.734
  0
LINE
  8
0
 10
-32.9463
 20
118.734
 11
-33.1113
 21
118.643
  0
LINE
  8
0
 10
-33.1113
 20
118.643
 11
-33.2865
 21
118.573
  0
LINE
  8
0
 10
-33.2865
 20
118.573
 11
-33.4689
 21
118.527
  0
LINE
  8
0
 10
-33.4689
 20
118.527
 11
-33.6558
 21
118.503
  0
LINE
  8
0
 10
-33.6558
 20
118.503
 11
-33.8442
 21
118.503
  0
LINE
  8
0
 10
-11.3442
 20
118.503
 11
-11.5311
 21
118.527
  0
LINE
  8
0
 10
-11.5311
 20
118.527
 11
-11.7135
 21
118.573
  0
LINE
  8
0
 10
-11.7135
 20
118.573
 11
-11.8887
 21
118.643
  0
LINE
  8
0
 10
-11.8887
 20
118.643
 11
-12.0537
 21
118.734
  0
LINE
  8
0
 10
-12.0537
 20
118.734
 11
-12.2061
 21
118.844
  0
LINE
  8
0
 10
-12.2061
 20
118.844
 11
-12.3434
 21
118.973
  0
LINE
  8
0
 10
-12.3434
 20
118.973
 11
-12.4635
 21
119.118
  0
LINE
  8
0
 10
-12.4635
 20
119.118
 11
-12.5645
 21
119.277
  0
LINE
  8
0
 10
-12.5645
 20
119.277
 11
-12.6447
 21
119.448
  0
LINE
  8
0
 10
-12.6447
 20
119.448
 11
-12.7029
 21
119.627
  0
LINE
  8
0
 10
-12.7029
 20
119.627
 11
-12.7382
 21
119.812
  0
LINE
  8
0
 10
-12.7382
 20
119.812
 11
-12.75
 21
120
  0
LINE
  8
0
 10
-12.75
 20
120
 11
-12.7382
 21
120.188
  0
LINE
  8
0
 10
-12.7382
 20
120.188
 11
-12.7029
 21
120.373
  0
LINE
  8
0
 10
-12.7029
 20
120.373
 11
-12.6447
 21
120.552
  0
LINE
  8
0
 10
-12.6447
 20
120.552
 11
-12.5645
 21
120.723
  0
LINE
  8
0
 10
-12.5645
 20
120.723
 11
-12.4635
 21
120.882
  0
LINE
  8
0
 10
-12.4635
 20
120.882
 11
-12.3434
 21
121.027
  0
LINE
  8
0
 10
-12.3434
 20
121.027
 11
-12.2061
 21
121.156
  0
LINE
  8
0
 10
-12.2061
 20
121.156
 11
-12.0537
 21
121.266
  0
LINE
  8
0
 10
-12.0537
 20
121.266
 11
-11.8887
 21
121.357
  0
LINE
  8
0
 10
-11.8887
 20
121.357
 11
-11.7135
 21
121.427
  0
LINE
  8
0
 10
-11.7135
 20
121.427
 11
-11.5311
 21
121.473
  0
LINE
  8
0
 10
-11.5311
 20
121.473
 11
-11.3442
 21
121.497
  0
LINE
  8
0
 10
-11.3442
 20
121.497
 11
-11.1558
 21
121.497
  0
LINE
  8
0
 10
-11.1558
 20
121.497
 11
-10.9689
 21
121.473
  0
LINE
  8
0
 10
-10.9689
 20
121.473
 11
-10.7865
 21
121.427
  0
LINE
  8
0
 10
-10.7865
 20
121.427
 11
-10.6113
 21
121.357
  0
LINE
  8
0
 10
-10.6113
 20
121.357
 11
-10.4463
 21
121.266
  0
LINE
  8
0
 10
-10.4463
 20
121.266
 11
-10.2939
 21
121.156
  0
LINE
  8
0
 10
-10.2939
 20
121.156
 11
-10.1565
 21
121.027
  0
LINE
  8
0
 10
-10.1565
 20
121.027
 11
-10.0365
 21
120.882
  0
LINE
  8
0
 10
-10.0365
 20
120.882
 11
-9.93553
 21
120.723
  0
LINE
  8
0
 10
-9.93553
 20
120.723
 11
-9.85533
 21
120.552
  0
LINE
  8
0
 10
-9.85533
 20
120.552
 11
-9.79712
 21
120.373
  0
LINE
  8
0
 10
-9.79712
 20
120.373
 11
-9.76183
 21
120.188
  0
LINE
  8
0
 10
-9.76183
 20
120.188
 11
-9.75
 21
120
  0
LINE
  8
0
 10
-9.75
 20
120
 11
-9.76183
 21
119.812
  0
LINE
  8
0
 10
-9.76183
 20
119.812
 11
-9.79712
 21
119.627
  0
LINE
  8
0
 10
-9.79712
 20
119.627
 11
-9.85533
 21
119.448
  0
LINE
  8
0
 10
-9.85533
 20
119.448
 11
-9.93553
 21
119.277
  0
LINE
  8
0
 10
-9.93553
 20
119.277
 11
-10.0365
 21
119.118
  0
LINE
  8
0
 10
-10.0365
 20
119.118
 11
-10.1565
 21
118.973
  0
LINE
  8
0
 10
-10.1565
 20
118.973
 11
-10.2939
 21
118.844
  0
LINE
  8
0
 10
-10.2939
 20
118.844
 11
-10.4463
 21
118.734
  0
LINE
  8
0
 10
-10.4463
 20
118.734
 11
-10.6113
 21
118.643
  0
LINE
  8
0
 10
-10.6113
 20
118.643
 11
-10.7865
 21
118.573
  0
LINE
  8
0
 10
-10.7865
 20
118.573
 11
-10.9689
 21
118.527
  0
LINE
  8
0
 10
-10.9689
 20
118.527
 11
-11.1558
 21
118.503
  0
LINE
  8
0
 10
-11.1558
 20
118.503
 11
-11.3442
 21
118.503
  0
LINE
  8
0
 10
-18.8442
 20
118.503
 11
-19.0311
 21
118.527
  0
LINE
  8
0
 10
-19.0311
 20
118.527
 11
-19.2135
 21
118.573
  0
LINE
  8
0
 10
-19.2135
 20
118.573
 11
-19.3887
 21
118.643
  0
LINE
  8
0
 10
-19.3887
 20
118.643
 11
-19.5537
 21
118.734
  0
LINE
  8
0
 10
-19.5537
 20
118.734
 11
-19.7061
 21
118.844
  0
LINE
  8
0
 10
-19.7061
 20
118.844
 11
-19.8434
 21
118.973
  0
LINE
  8
0
 10
-19.8434
 20
118.973
 11
-19.9635
 21
119.118
  0
LINE
  8
0
 10
-19.9635
 20
119.118
 11
-20.0645
 21
119.277
  0
LINE
  8
0
 10
-20.0645
 20
119.277
 11
-20.1447
 21
119.448
  0
LINE
  8
0
 10
-20.1447
 20
119.448
 11
-20.2029
 21
119.627
  0
LINE
  8
0
 10
-20.2029
 20
119.627
 11
-20.2382
 21
119.812
  0
LINE
  8
0
 10
-20.2382
 20
119.812
 11
-20.25
 21
120
  0
LINE
  8
0
 10
-20.25
 20
120
 11
-20.2382
 21
120.188
  0
LINE
  8
0
 10
-20.2382
 20
120.188
 11
-20.2029
 21
120.373
  0
LINE
  8
0
 10
-20.2029
 20
120.373
 11
-20.1447
 21
120.552
  0
LINE
  8
0
 10
-20.1447
 20
120.552
 11
-20.0645
 21
120.723
  0
LINE
  8
0
 10
-20.0645
 20
120.723
 11
-19.9635
 21
120.882
  0
LINE
  8
0
 10
-19.9635
 20
120.882
 11
-19.8434
 21
121.027
  0
LINE
  8
0
 10
-19.8434
 20
121.027
 11
-19.7061
 21
121.156
  0
LINE
  8
0
 10
-19.7061
 20
121.156
 11
-19.5537
 21
121.266
  0
LINE
  8
0
 10
-19.5537
 20
121.266
 11
-19.3887
 21
121.357
  0
LINE
  8
0
 10
-19.3887
 20
121.357
 11
-19.2135
 21
121.427
  0
LINE
  8
0
 10
-19.2135
 20
121.427
 11
-19.0311
 21
121.473
  0
LINE
  8
0
 10
-19.0311
 20
121.473
 11
-18.8442
 21
121.497
  0
LINE
  8
0
 10
-18.8442
 20
121.497
 11
-18.6558
 21
121.497
  0
LINE
  8
0
 10
-18.6558
 20
121.497
 11
-18.4689
 21
121.473
  0
LINE
  8
0
 10
-18.4689
 20
121.473
 11
-18.2865
 21
121.427
  0
LINE
  8
0
 10
-18.2865
 20
121.427
 11
-18.1113
 21
121.357
  0
LINE
  8
0
 10
-18.1113
 20
121.357
 11
-17.9463
 21
121.266
  0
LINE
  8
0
 10
-17.9463
 20
121.266
 11
-17.7939
 21
121.156
  0
LINE
  8
0
 10
-17.7939
 20
121.156
 11
-17.6565
 21
121.027
  0
LINE
  8
0
 10
-17.6565
 20
121.027
 11
-17.5365
 21
120.882
  0
LINE
  8
0
 10
-17.5365
 20
120.882
 11
-17.4355
 21
120.723
  0
LINE
  8
0
 10
-17.4355
 20
120.723
 11
-17.3553
 21
120.552
  0
LINE
  8
0
 10
-17.3553
 20
120.552
 11
-17.2971
 21
120.373
  0
LINE
  8
0
 10
-17.2971
 20
120.373
 11
-17.2618
 21
120.188
  0
LINE
  8
0
 10
-17.2618
 20
120.188
 11
-17.25
 21
120
  0
LINE
  8
0
 10
-17.25
 20
120
 11
-17.2618
 21
119.812
  0
LINE
  8
0
 10
-17.2618
 20
119.812
 11
-17.2971
 21
119.627
  0
LINE
  8
0
 10
-17.2971
 20
119.627
 11
-17.3553
 21
119.448
  0
LINE
  8
0
 10
-17.3553
 20
119.448
 11
-17.4355
 21
119.277
  0
LINE
  8
0
 10
-17.4355
 20
119.277
 11
-17.5365
 21
119.118
  0
LINE
  8
0
 10
-17.5365
 20
119.118
 11
-17.6565
 21
118.973
  0
LINE
  8
0
 10
-17.6565
 20
118.973
 11
-17.7939
 21
118.844
  0
LINE
  8
0
 10
-17.7939
 20
118.844
 11
-17.9463
 21
118.734
  0
LINE
  8
0
 10
-17.9463
 20
118.734
 11
-18.1113
 21
118.643
  0
LINE
  8
0
 10
-18.1113
 20
118.643
 11
-18.2865
 21
118.573
  0
LINE
  8
0
 10
-18.2865
 20
118.573
 11
-18.4689
 21
118.527
  0
LINE
  8
0
 10
-18.4689
 20
118.527
 11
-18.6558
 21
118.503
  0
LINE
  8
0
 10
-18.6558
 20
118.503
 11
-18.8442
 21
118.503
  0
LINE
  8
0
 10
-26.3442
 20
118.503
 11
-26.5311
 21
118.527
  0
LINE
  8
0
 10
-26.5311
 20
118.527
 11
-26.7135
 21
118.573
  0
LINE
  8
0
 10
-26.7135
 20
118.573
 11
-26.8887
 21
118.643
  0
LINE
  8
0
 10
-26.8887
 20
118.643
 11
-27.0537
 21
118.734
  0
LINE
  8
0
 10
-27.0537
 20
118.734
 11
-27.2061
 21
118.844
  0
LINE
  8
0
 10
-27.2061
 20
118.844
 11
-27.3434
 21
118.973
  0
LINE
  8
0
 10
-27.3434
 20
118.973
 11
-27.4635
 21
119.118
  0
LINE
  8
0
 10
-27.4635
 20
119.118
 11
-27.5645
 21
119.277
  0
LINE
  8
0
 10
-27.5645
 20
119.277
 11
-27.6447
 21
119.448
  0
LINE
  8
0
 10
-27.6447
 20
119.448
 11
-27.7029
 21
119.627
  0
LINE
  8
0
 10
-27.7029
 20
119.627
 11
-27.7382
 21
119.812
  0
LINE
  8
0
 10
-27.7382
 20
119.812
 11
-27.75
 21
120
  0
LINE
  8
0
 10
-27.75
 20
120
 11
-27.7382
 21
120.188
  0
LINE
  8
0
 10
-27.7382
 20
120.188
 11
-27.7029
 21
120.373
  0
LINE
  8
0
 10
-27.7029
 20
120.373
 11
-27.6447
 21
120.552
  0
LINE
  8
0
 10
-27.6447
 20
120.552
 11
-27.5645
 21
120.723
  0
LINE
  8
0
 10
-27.5645
 20
120.723
 11
-27.4635
 21
120.882
  0
LINE
  8
0
 10
-27.4635
 20
120.882
 11
-27.3434
 21
121.027
  0
LINE
  8
0
 10
-27.3434
 20
121.027
 11
-27.2061
 21
121.156
  0
LINE
  8
0
 10
-27.2061
 20
121.156
 11
-27.0537
 21
121.266
  0
LINE
  8
0
 10
-27.0537
 20
121.266
 11
-26.8887
 21
121.357
  0
LINE
  8
0
 10
-26.8887
 20
121.357
 11
-26.7135
 21
121.427
  0
LINE
  8
0
 10
-26.7135
 20
121.427
 11
-26.5311
 21
121.473
  0
LINE
  8
0
 10
-26.5311
 20
121.473
 11
-26.3442
 21
121.497
  0
LINE
  8
0
 10
-26.3442
 20
121.497
 11
-26.1558
 21
121.497
  0
LINE
  8
0
 10
-26.1558
 20
121.497
 11
-25.9689
 21
121.473
  0
LINE
  8
0
 10
-25.9689
 20
121.473
 11
-25.7865
 21
121.427
  0
LINE
  8
0
 10
-25.7865
 20
121.427
 11
-25.6113
 21
121.357
  0
LINE
  8
0
 10
-25.6113
 20
121.357
 11
-25.4463
 21
121.266
  0
LINE
  8
0
 10
-25.4463
 20
121.266
 11
-25.2939
 21
121.156
  0
LINE
  8
0
 10
-25.2939
 20
121.156
 11
-25.1565
 21
121.027
  0
LINE
  8
0
 10
-25.1565
 20
121.027
 11
-25.0365
 21
120.882
  0
LINE
  8
0
 10
-25.0365
 20
120.882
 11
-24.9355
 21
120.723
  0
LINE
  8
0
 10
-24.9355
 20
120.723
 11
-24.8553
 21
120.552
  0
LINE
  8
0
 10
-24.8553
 20
120.552
 11
-24.7971
 21
120.373
  0
LINE
  8
0
 10
-24.7971
 20
120.373
 11
-24.7618
 21
120.188
  0
LINE
  8
0
 10
-24.7618
 20
120.188
 11
-24.75
 21
120
  0
LINE
  8
0
 10
-24.75
 20
120
 11
-24.7618
 21
119.812
  0
LINE
  8
0
 10
-24.7618
 20
119.812
 11
-24.7971
 21
119.627
  0
LINE
  8
0
 10
-24.7971
 20
119.627
 11
-24.8553
 21
119.448
  0
LINE
  8
0
 10
-24.8553
 20
119.448
 11
-24.9355
 21
119.277
  0
LINE
  8
0
 10
-24.9355
 20
119.277
 11
-25.0365
 21
119.118
  0
LINE
  8
0
 10
-25.0365
 20
119.118
 11
-25.1565
 21
118.973
  0
LINE
  8
0
 10
-25.1565
 20
118.973
 11
-25.2939
 21
118.844
  0
LINE
  8
0
 10
-25.2939
 20
118.844
 11
-25.4463
 21
118.734
  0
LINE
  8
0
 10
-25.4463
 20
118.734
 11
-25.6113
 21
118.643
  0
LINE
  8
0
 10
-25.6113
 20
118.643
 11
-25.7865
 21
118.573
  0
LINE
  8
0
 10
-25.7865
 20
118.573
 11
-25.9689
 21
118.527
  0
LINE
  8
0
 10
-25.9689
 20
118.527
 11
-26.1558
 21
118.503
  0
LINE
  8
0
 10
-26.1558
 20
118.503
 11
-26.3442
 21
118.503
  0
LINE
  8
0
 10
3.65581
 20
118.503
 11
3.46892
 21
118.527
  0
LINE
  8
0
 10
3.46892
 20
118.527
 11
3.28647
 21
118.573
  0
LINE
  8
0
 10
3.28647
 20
118.573
 11
3.11133
 21
118.643
  0
LINE
  8
0
 10
3.11133
 20
118.643
 11
2.94626
 21
118.734
  0
LINE
  8
0
 10
2.94626
 20
118.734
 11
2.79385
 21
118.844
  0
LINE
  8
0
 10
2.79385
 20
118.844
 11
2.65654
 21
118.973
  0
LINE
  8
0
 10
2.65654
 20
118.973
 11
2.53647
 21
119.118
  0
LINE
  8
0
 10
2.53647
 20
119.118
 11
2.43553
 21
119.277
  0
LINE
  8
0
 10
2.43553
 20
119.277
 11
2.35533
 21
119.448
  0
LINE
  8
0
 10
2.35533
 20
119.448
 11
2.29712
 21
119.627
  0
LINE
  8
0
 10
2.29712
 20
119.627
 11
2.26183
 21
119.812
  0
LINE
  8
0
 10
2.26183
 20
119.812
 11
2.25
 21
120
  0
LINE
  8
0
 10
2.25
 20
120
 11
2.26183
 21
120.188
  0
LINE
  8
0
 10
2.26183
 20
120.188
 11
2.29712
 21
120.373
  0
LINE
  8
0
 10
2.29712
 20
120.373
 11
2.35533
 21
120.552
  0
LINE
  8
0
 10
2.35533
 20
120.552
 11
2.43553
 21
120.723
  0
LINE
  8
0
 10
2.43553
 20
120.723
 11
2.53647
 21
120.882
  0
LINE
  8
0
 10
2.53647
 20
120.882
 11
2.65654
 21
121.027
  0
LINE
  8
0
 10
2.65654
 20
121.027
 11
2.79385
 21
121.156
  0
LINE
  8
0
 10
2.79385
 20
121.156
 11
2.94626
 21
121.266
  0
LINE
  8
0
 10
2.94626
 20
121.266
 11
3.11133
 21
121.357
  0
LINE
  8
0
 10
3.11133
 20
121.357
 11
3.28647
 21
121.427
  0
LINE
  8
0
 10
3.28647
 20
121.427
 11
3.46892
 21
121.473
  0
LINE
  8
0
 10
3.46892
 20
121.473
 11
3.65581
 21
121.497
  0
LINE
  8
0
 10
3.65581
 20
121.497
 11
3.84418
 21
121.497
  0
LINE
  8
0
 10
3.84418
 20
121.497
 11
4.03107
 21
121.473
  0
LINE
  8
0
 10
4.03107
 20
121.473
 11
4.21352
 21
121.427
  0
LINE
  8
0
 10
4.21352
 20
121.427
 11
4.38866
 21
121.357
  0
LINE
  8
0
 10
4.38866
 20
121.357
 11
4.55373
 21
121.266
  0
LINE
  8
0
 10
4.55373
 20
121.266
 11
4.70613
 21
121.156
  0
LINE
  8
0
 10
4.70613
 20
121.156
 11
4.84344
 21
121.027
  0
LINE
  8
0
 10
4.84344
 20
121.027
 11
4.96352
 21
120.882
  0
LINE
  8
0
 10
4.96352
 20
120.882
 11
5.06445
 21
120.723
  0
LINE
  8
0
 10
5.06445
 20
120.723
 11
5.14465
 21
120.552
  0
LINE
  8
0
 10
5.14465
 20
120.552
 11
5.20287
 21
120.373
  0
LINE
  8
0
 10
5.20287
 20
120.373
 11
5.23816
 21
120.188
  0
LINE
  8
0
 10
5.23816
 20
120.188
 11
5.25
 21
120
  0
LINE
  8
0
 10
5.25
 20
120
 11
5.23816
 21
119.812
  0
LINE
  8
0
 10
5.23816
 20
119.812
 11
5.20287
 21
119.627
  0
LINE
  8
0
 10
5.20287
 20
119.627
 11
5.14465
 21
119.448
  0
LINE
  8
0
 10
5.14465
 20
119.448
 11
5.06445
 21
119.277
  0
LINE
  8
0
 10
5.06445
 20
119.277
 11
4.96352
 21
119.118
  0
LINE
  8
0
 10
4.96352
 20
119.118
 11
4.84344
 21
118.973
  0
LINE
  8
0
 10
4.84344
 20
118.973
 11
4.70613
 21
118.844
  0
LINE
  8
0
 10
4.70613
 20
118.844
 11
4.55373
 21
118.734
  0
LINE
  8
0
 10
4.55373
 20
118.734
 11
4.38866
 21
118.643
  0
LINE
  8
0
 10
4.38866
 20
118.643
 11
4.21352
 21
118.573
  0
LINE
  8
0
 10
4.21352
 20
118.573
 11
4.03107
 21
118.527
  0
LINE
  8
0
 10
4.03107
 20
118.527
 11
3.84418
 21
118.503
  0
LINE
  8
0
 10
3.84418
 20
118.503
 11
3.65581
 21
118.503
  0
LINE
  8
0
 10
18.6558
 20
118.503
 11
18.4689
 21
118.527
  0
LINE
  8
0
 10
18.4689
 20
118.527
 11
18.2865
 21
118.573
  0
LINE
  8
0
 10
18.2865
 20
118.573
 11
18.1113
 21
118.643
  0
LINE
  8
0
 10
18.1113
 20
118.643
 11
17.9463
 21
118.734
  0
LINE
  8
0
 10
17.9463
 20
118.734
 11
17.7939
 21
118.844
  0
LINE
  8
0
 10
17.7939
 20
118.844
 11
17.6565
 21
118.973
  0
LINE
  8
0
 10
17.6565
 20
118.973
 11
17.5365
 21
119.118
  0
LINE
  8
0
 10
17.5365
 20
119.118
 11
17.4355
 21
119.277
  0
LINE
  8
0
 10
17.4355
 20
119.277
 11
17.3553
 21
119.448
  0
LINE
  8
0
 10
17.3553
 20
119.448
 11
17.2971
 21
119.627
  0
LINE
  8
0
 10
17.2971
 20
119.627
 11
17.2618
 21
119.812
  0
LINE
  8
0
 10
17.2618
 20
119.812
 11
17.25
 21
120
  0
LINE
  8
0
 10
17.25
 20
120
 11
17.2618
 21
120.188
  0
LINE
  8
0
 10
17.2618
 20
120.188
 11
17.2971
 21
120.373
  0
LINE
  8
0
 10
17.2971
 20
120.373
 11
17.3553
 21
120.552
  0
LINE
  8
0
 10
17.3553
 20
120.552
 11
17.4355
 21
120.723
  0
LINE
  8
0
 10
17.4355
 20
120.723
 11
17.5365
 21
120.882
  0
LINE
  8
0
 10
17.5365
 20
120.882
 11
17.6565
 21
121.027
  0
LINE
  8
0
 10
17.6565
 20
121.027
 11
17.7939
 21
121.156
  0
LINE
  8
0
 10
17.7939
 20
121.156
 11
17.9463
 21
121.266
  0
LINE
  8
0
 10
17.9463
 20
121.266
 11
18.1113
 21
121.357
  0
LINE
  8
0
 10
18.1113
 20
121.357
 11
18.2865
 21
121.427
  0
LINE
  8
0
 10
18.2865
 20
121.427
 11
18.4689
 21
121.473
  0
LINE
  8
0
 10
18.4689
 20
121.473
 11
18.6558
 21
121.497
  0
LINE
  8
0
 10
18.6558
 20
121.497
 11
18.8442
 21
121.497
  0
LINE
  8
0
 10
18.8442
 20
121.497
 11
19.0311
 21
121.473
  0
LINE
  8
0
 10
19.0311
 20
121.473
 11
19.2135
 21
121.427
  0
LINE
  8
0
 10
19.2135
 20
121.427
 11
19.3887
 21
121.357
  0
LINE
  8
0
 10
19.3887
 20
121.357
 11
19.5537
 21
121.266
  0
LINE
  8
0
 10
19.5537
 20
121.266
 11
19.7061
 21
121.156
  0
LINE
  8
0
 10
19.7061
 20
121.156
 11
19.8434
 21
121.027
  0
LINE
  8
0
 10
19.8434
 20
121.027
 11
19.9635
 21
120.882
  0
LINE
  8
0
 10
19.9635
 20
120.882
 11
20.0645
 21
120.723
  0
LINE
  8
0
 10
20.0645
 20
120.723
 11
20.1447
 21
120.552
  0
LINE
  8
0
 10
20.1447
 20
120.552
 11
20.2029
 21
120.373
  0
LINE
  8
0
 10
20.2029
 20
120.373
 11
20.2382
 21
120.188
  0
LINE
  8
0
 10
20.2382
 20
120.188
 11
20.25
 21
120
  0
LINE
  8
0
 10
20.25
 20
120
 11
20.2382
 21
119.812
  0
LINE
  8
0
 10
20.2382
 20
119.812
 11
20.2029
 21
119.627
  0
LINE
  8
0
 10
20.2029
 20
119.627
 11
20.1447
 21
119.448
  0
LINE
  8
0
 10
20.1447
 20
119.448
 11
20.0645
 21
119.277
  0
LINE
  8
0
 10
20.0645
 20
119.277
 11
19.9635
 21
119.118
  0
LINE
  8
0
 10
19.9635
 20
119.118
 11
19.8434
 21
118.973
  0
LINE
  8
0
 10
19.8434
 20
118.973
 11
19.7061
 21
118.844
  0
LINE
  8
0
 10
19.7061
 20
118.844
 11
19.5537
 21
118.734
  0
LINE
  8
0
 10
19.5537
 20
118.734
 11
19.3887
 21
118.643
  0
LINE
  8
0
 10
19.3887
 20
118.643
 11
19.2135
 21
118.573
  0
LINE
  8
0
 10
19.2135
 20
118.573
 11
19.0311
 21
118.527
  0
LINE
  8
0
 10
19.0311
 20
118.527
 11
18.8442
 21
118.503
  0
LINE
  8
0
 10
18.8442
 20
118.503
 11
18.6558
 21
118.503
  0
LINE
  8
0
 10
26.1558
 20
118.503
 11
25.9689
 21
118.527
  0
LINE
  8
0
 10
25.9689
 20
118.527
 11
25.7865
 21
118.573
  0
LINE
  8
0
 10
25.7865
 20
118.573
 11
25.6113
 21
118.643
  0
LINE
  8
0
 10
25.6113
 20
118.643
 11
25.4463
 21
118.734
  0
LINE
  8
0
 10
25.4463
 20
118.734
 11
25.2939
 21
118.844
  0
LINE
  8
0
 10
25.2939
 20
118.844
 11
25.1565
 21
118.973
  0
LINE
  8
0
 10
25.1565
 20
118.973
 11
25.0365
 21
119.118
  0
LINE
  8
0
 10
25.0365
 20
119.118
 11
24.9355
 21
119.277
  0
LINE
  8
0
 10
24.9355
 20
119.277
 11
24.8553
 21
119.448
  0
LINE
  8
0
 10
24.8553
 20
119.448
 11
24.7971
 21
119.627
  0
LINE
  8
0
 10
24.7971
 20
119.627
 11
24.7618
 21
119.812
  0
LINE
  8
0
 10
24.7618
 20
119.812
 11
24.75
 21
120
  0
LINE
  8
0
 10
24.75
 20
120
 11
24.7618
 21
120.188
  0
LINE
  8
0
 10
24.7618
 20
120.188
 11
24.7971
 21
120.373
  0
LINE
  8
0
 10
24.7971
 20
120.373
 11
24.8553
 21
120.552
  0
LINE
  8
0
 10
24.8553
 20
120.552
 11
24.9355
 21
120.723
  0
LINE
  8
0
 10
24.9355
 20
120.723
 11
25.0365
 21
120.882
  0
LINE
  8
0
 10
25.0365
 20
120.882
 11
25.1565
 21
121.027
  0
LINE
  8
0
 10
25.1565
 20
121.027
 11
25.2939
 21
121.156
  0
LINE
  8
0
 10
25.2939
 20
121.156
 11
25.4463
 21
121.266
  0
LINE
  8
0
 10
25.4463
 20
121.266
 11
25.6113
 21
121.357
  0
LINE
  8
0
 10
25.6113
 20
121.357
 11
25.7865
 21
121.427
  0
LINE
  8
0
 10
25.7865
 20
121.427
 11
25.9689
 21
121.473
  0
LINE
  8
0
 10
25.9689
 20
121.473
 11
26.1558
 21
121.497
  0
LINE
  8
0
 10
26.1558
 20
121.497
 11
26.3442
 21
121.497
  0
LINE
  8
0
 10
26.3442
 20
121.497
 11
26.5311
 21
121.473
  0
LINE
  8
0
 10
26.5311
 20
121.473
 11
26.7135
 21
121.427
  0
LINE
  8
0
 10
26.7135
 20
121.427
 11
26.8887
 21
121.357
  0
LINE
  8
0
 10
26.8887
 20
121.357
 11
27.0537
 21
121.266
  0
LINE
  8
0
 10
27.0537
 20
121.266
 11
27.2061
 21
121.156
  0
LINE
  8
0
 10
27.2061
 20
121.156
 11
27.3434
 21
121.027
  0
LINE
  8
0
 10
27.3434
 20
121.027
 11
27.4635
 21
120.882
  0
LINE
  8
0
 10
27.4635
 20
120.882
 11
27.5645
 21
120.723
  0
LINE
  8
0
 10
27.5645
 20
120.723
 11
27.6447
 21
120.552
  0
LINE
  8
0
 10
27.6447
 20
120.552
 11
27.7029
 21
120.373
  0
LINE
  8
0
 10
27.7029
 20
120.373
 11
27.7382
 21
120.188
  0
LINE
  8
0
 10
27.7382
 20
120.188
 11
27.75
 21
120
  0
LINE
  8
0
 10
27.75
 20
120
 11
27.7382
 21
119.812
  0
LINE
  8
0
 10
27.7382
 20
119.812
 11
27.7029
 21
119.627
  0
LINE
  8
0
 10
27.7029
 20
119.627
 11
27.6447
 21
119.448
  0
LINE
  8
0
 10
27.6447
 20
119.448
 11
27.5645
 21
119.277
  0
LINE
  8
0
 10
27.5645
 20
119.277
 11
27.4635
 21
119.118
  0
LINE
  8
0
 10
27.4635
 20
119.118
 11
27.3434
 21
118.973
  0
LINE
  8
0
 10
27.3434
 20
118.973
 11
27.2061
 21
118.844
  0
LINE
  8
0
 10
27.2061
 20
118.844
 11
27.0537
 21
118.734
  0
LINE
  8
0
 10
27.0537
 20
118.734
 11
26.8887
 21
118.643
  0
LINE
  8
0
 10
26.8887
 20
118.643
 11
26.7135
 21
118.573
  0
LINE
  8
0
 10
26.7135
 20
118.573
 11
26.5311
 21
118.527
  0
LINE
  8
0
 10
26.5311
 20
118.527
 11
26.3442
 21
118.503
  0
LINE
  8
0
 10
26.3442
 20
118.503
 11
26.1558
 21
118.503
  0
LINE
  8
0
 10
-41.3442
 20
118.503
 11
-41.5311
 21
118.527
  0
LINE
  8
0
 10
-41.5311
 20
118.527
 11
-41.7135
 21
118.573
  0
LINE
  8
0
 10
-41.7135
 20
118.573
 11
-41.8887
 21
118.643
  0
LINE
  8
0
 10
-41.8887
 20
118.643
 11
-42.0537
 21
118.734
  0
LINE
  8
0
 10
-42.0537
 20
118.734
 11
-42.2061
 21
118.844
  0
LINE
  8
0
 10
-42.2061
 20
118.844
 11
-42.3434
 21
118.973
  0
LINE
  8
0
 10
-42.3434
 20
118.973
 11
-42.4635
 21
119.118
  0
LINE
  8
0
 10
-42.4635
 20
119.118
 11
-42.5645
 21
119.277
  0
LINE
  8
0
 10
-42.5645
 20
119.277
 11
-42.6447
 21
119.448
  0
LINE
  8
0
 10
-42.6447
 20
119.448
 11
-42.7029
 21
119.627
  0
LINE
  8
0
 10
-42.7029
 20
119.627
 11
-42.7382
 21
119.812
  0
LINE
  8
0
 10
-42.7382
 20
119.812
 11
-42.75
 21
120
  0
LINE
  8
0
 10
-42.75
 20
120
 11
-42.7382
 21
120.188
  0
LINE
  8
0
 10
-42.7382
 20
120.188
 11
-42.7029
 21
120.373
  0
LINE
  8
0
 10
-42.7029
 20
120.373
 11
-42.6447
 21
120.552
  0
LINE
  8
0
 10
-42.6447
 20
120.552
 11
-42.5645
 21
120.723
  0
LINE
  8
0
 10
-42.5645
 20
120.723
 11
-42.4635
 21
120.882
  0
LINE
  8
0
 10
-42.4635
 20
120.882
 11
-42.3434
 21
121.027
  0
LINE
  8
0
 10
-42.3434
 20
121.027
 11
-42.2061
 21
121.156
  0
LINE
  8
0
 10
-42.2061
 20
121.156
 11
-42.0537
 21
121.266
  0
LINE
  8
0
 10
-42.0537
 20
121.266
 11
-41.8887
 21
121.357
  0
LINE
  8
0
 10
-41.8887
 20
121.357
 11
-41.7135
 21
121.427
  0
LINE
  8
0
 10
-41.7135
 20
121.427
 11
-41.5311
 21
121.473
  0
LINE
  8
0
 10
-41.5311
 20
121.473
 11
-41.3442
 21
121.497
  0
LINE
  8
0
 10
-41.3442
 20
121.497
 11
-41.1558
 21
121.497
  0
LINE
  8
0
 10
-41.1558
 20
121.497
 11
-40.9689
 21
121.473
  0
LINE
  8
0
 10
-40.9689
 20
121.473
 11
-40.7865
 21
121.427
  0
LINE
  8
0
 10
-40.7865
 20
121.427
 11
-40.6113
 21
121.357
  0
LINE
  8
0
 10
-40.6113
 20
121.357
 11
-40.4463
 21
121.266
  0
LINE
  8
0
 10
-40.4463
 20
121.266
 11
-40.2939
 21
121.156
  0
LINE
  8
0
 10
-40.2939
 20
121.156
 11
-40.1565
 21
121.027
  0
LINE
  8
0
 10
-40.1565
 20
121.027
 11
-40.0365
 21
120.882
  0
LINE
  8
0
 10
-40.0365
 20
120.882
 11
-39.9355
 21
120.723
  0
LINE
  8
0
 10
-39.9355
 20
120.723
 11
-39.8553
 21
120.552
  0
LINE
  8
0
 10
-39.8553
 20
120.552
 11
-39.7971
 21
120.373
  0
LINE
  8
0
 10
-39.7971
 20
120.373
 11
-39.7618
 21
120.188
  0
LINE
  8
0
 10
-39.7618
 20
120.188
 11
-39.75
 21
120
  0
LINE
  8
0
 10
-39.75
 20
120
 11
-39.7618
 21
119.812
  0
LINE
  8
0
 10
-39.7618
 20
119.812
 11
-39.7971
 21
119.627
  0
LINE
  8
0
 10
-39.7971
 20
119.627
 11
-39.8553
 21
119.448
  0
LINE
  8
0
 10
-39.8553
 20
119.448
 11
-39.9355
 21
119.277
  0
LINE
  8
0
 10
-39.9355
 20
119.277
 11
-40.0365
 21
119.118
  0
LINE
  8
0
 10
-40.0365
 20
119.118
 11
-40.1565
 21
118.973
  0
LINE
  8
0
 10
-40.1565
 20
118.973
 11
-40.2939
 21
118.844
  0
LINE
  8
0
 10
-40.2939
 20
118.844
 11
-40.4463
 21
118.734
  0
LINE
  8
0
 10
-40.4463
 20
118.734
 11
-40.6113
 21
118.643
  0
LINE
  8
0
 10
-40.6113
 20
118.643
 11
-40.7865
 21
118.573
  0
LINE
  8
0
 10
-40.7865
 20
118.573
 11
-40.9689
 21
118.527
  0
LINE
  8
0
 10
-40.9689
 20
118.527
 11
-41.1558
 21
118.503
  0
LINE
  8
0
 10
-41.1558
 20
118.503
 11
-41.3442
 21
118.503
  0
LINE
  8
0
 10
-3.84418
 20
118.503
 11
-4.03107
 21
118.527
  0
LINE
  8
0
 10
-4.03107
 20
118.527
 11
-4.21352
 21
118.573
  0
LINE
  8
0
 10
-4.21352
 20
118.573
 11
-4.38866
 21
118.643
  0
LINE
  8
0
 10
-4.38866
 20
118.643
 11
-4.55373
 21
118.734
  0
LINE
  8
0
 10
-4.55373
 20
118.734
 11
-4.70613
 21
118.844
  0
LINE
  8
0
 10
-4.70613
 20
118.844
 11
-4.84344
 21
118.973
  0
LINE
  8
0
 10
-4.84344
 20
118.973
 11
-4.96352
 21
119.118
  0
LINE
  8
0
 10
-4.96352
 20
119.118
 11
-5.06445
 21
119.277
  0
LINE
  8
0
 10
-5.06445
 20
119.277
 11
-5.14465
 21
119.448
  0
LINE
  8
0
 10
-5.14465
 20
119.448
 11
-5.20287
 21
119.627
  0
LINE
  8
0
 10
-5.20287
 20
119.627
 11
-5.23816
 21
119.812
  0
LINE
  8
0
 10
-5.23816
 20
119.812
 11
-5.25
 21
120
  0
LINE
  8
0
 10
-5.25
 20
120
 11
-5.23816
 21
120.188
  0
LINE
  8
0
 10
-5.23816
 20
120.188
 11
-5.20287
 21
120.373
  0
LINE
  8
0
 10
-5.20287
 20
120.373
 11
-5.14465
 21
120.552
  0
LINE
  8
0
 10
-5.14465
 20
120.552
 11
-5.06445
 21
120.723
  0
LINE
  8
0
 10
-5.06445
 20
120.723
 11
-4.96352
 21
120.882
  0
LINE
  8
0
 10
-4.96352
 20
120.882
 11
-4.84344
 21
121.027
  0
LINE
  8
0
 10
-4.84344
 20
121.027
 11
-4.70613
 21
121.156
  0
LINE
  8
0
 10
-4.70613
 20
121.156
 11
-4.55373
 21
121.266
  0
LINE
  8
0
 10
-4.55373
 20
121.266
 11
-4.38866
 21
121.357
  0
LINE
  8
0
 10
-4.38866
 20
121.357
 11
-4.21352
 21
121.427
  0
LINE
  8
0
 10
-4.21352
 20
121.427
 11
-4.03107
 21
121.473
  0
LINE
  8
0
 10
-4.03107
 20
121.473
 11
-3.84418
 21
121.497
  0
LINE
  8
0
 10
-3.84418
 20
121.497
 11
-3.65581
 21
121.497
  0
LINE
  8
0
 10
-3.65581
 20
121.497
 11
-3.46892
 21
121.473
  0
LINE
  8
0
 10
-3.46892
 20
121.473
 11
-3.28647
 21
121.427
  0
LINE
  8
0
 10
-3.28647
 20
121.427
 11
-3.11133
 21
121.357
  0
LINE
  8
0
 10
-3.11133
 20
121.357
 11
-2.94626
 21
121.266
  0
LINE
  8
0
 10
-2.94626
 20
121.266
 11
-2.79385
 21
121.156
  0
LINE
  8
0
 10
-2.79385
 20
121.156
 11
-2.65654
 21
121.027
  0
LINE
  8
0
 10
-2.65654
 20
121.027
 11
-2.53647
 21
120.882
  0
LINE
  8
0
 10
-2.53647
 20
120.882
 11
-2.43553
 21
120.723
  0
LINE
  8
0
 10
-2.43553
 20
120.723
 11
-2.35533
 21
120.552
  0
LINE
  8
0
 10
-2.35533
 20
120.552
 11
-2.29712
 21
120.373
  0
LINE
  8
0
 10
-2.29712
 20
120.373
 11
-2.26183
 21
120.188
  0
LINE
  8
0
 10
-2.26183
 20
120.188
 11
-2.25
 21
120
  0
LINE
  8
0
 10
-2.25
 20
120
 11
-2.26183
 21
119.812
  0
LINE
  8
0
 10
-2.26183
 20
119.812
 11
-2.29712
 21
119.627
  0
LINE
  8
0
 10
-2.29712
 20
119.627
 11
-2.35533
 21
119.448
  0
LINE
  8
0
 10
-2.35533
 20
119.448
 11
-2.43553
 21
119.277
  0
LINE
  8
0
 10
-2.43553
 20
119.277
 11
-2.53647
 21
119.118
  0
LINE
  8
0
 10
-2.53647
 20
119.118
 11
-2.65654
 21
118.973
  0
LINE
  8
0
 10
-2.65654
 20
118.973
 11
-2.79385
 21
118.844
  0
LINE
  8
0
 10
-2.79385
 20
118.844
 11
-2.94626
 21
118.734
  0
LINE
  8
0
 10
-2.94626
 20
118.734
 11
-3.11133
 21
118.643
  0
LINE
  8
0
 10
-3.11133
 20
118.643
 11
-3.28647
 21
118.573
  0
LINE
  8
0
 10
-3.28647
 20
118.573
 11
-3.46892
 21
118.527
  0
LINE
  8
0
 10
-3.46892
 20
118.527
 11
-3.65581
 21
118.503
  0
LINE
  8
0
 10
-3.65581
 20
118.503
 11
-3.84418
 21
118.503
  0
LINE
  8
0
 10
41.1558
 20
118.503
 11
40.9689
 21
118.527
  0
LINE
  8
0
 10
40.9689
 20
118.527
 11
40.7865
 21
118.573
  0
LINE
  8
0
 10
40.7865
 20
118.573
 11
40.6113
 21
118.643
  0
LINE
  8
0
 10
40.6113
 20
118.643
 11
40.4463
 21
118.734
  0
LINE
  8
0
 10
40.4463
 20
118.734
 11
40.2939
 21
118.844
  0
LINE
  8
0
 10
40.2939
 20
118.844
 11
40.1565
 21
118.973
  0
LINE
  8
0
 10
40.1565
 20
118.973
 11
40.0365
 21
119.118
  0
LINE
  8
0
 10
40.0365
 20
119.118
 11
39.9355
 21
119.277
  0
LINE
  8
0
 10
39.9355
 20
119.277
 11
39.8553
 21
119.448
  0
LINE
  8
0
 10
39.8553
 20
119.448
 11
39.7971
 21
119.627
  0
LINE
  8
0
 10
39.7971
 20
119.627
 11
39.7618
 21
119.812
  0
LINE
  8
0
 10
39.7618
 20
119.812
 11
39.75
 21
120
  0
LINE
  8
0
 10
39.75
 20
120
 11
39.7618
 21
120.188
  0
LINE
  8
0
 10
39.7618
 20
120.188
 11
39.7971
 21
120.373
  0
LINE
  8
0
 10
39.7971
 20
120.373
 11
39.8553
 21
120.552
  0
LINE
  8
0
 10
39.8553
 20
120.552
 11
39.9355
 21
120.723
  0
LINE
  8
0
 10
39.9355
 20
120.723
 11
40.0365
 21
120.882
  0
LINE
  8
0
 10
40.0365
 20
120.882
 11
40.1565
 21
121.027
  0
LINE
  8
0
 10
40.1565
 20
121.027
 11
40.2939
 21
121.156
  0
LINE
  8
0
 10
40.2939
 20
121.156
 11
40.4463
 21
121.266
  0
LINE
  8
0
 10
40.4463
 20
121.266
 11
40.6113
 21
121.357
  0
LINE
  8
0
 10
40.6113
 20
121.357
 11
40.7865
 21
121.427
  0
LINE
  8
0
 10
40.7865
 20
121.427
 11
40.9689
 21
121.473
  0
LINE
  8
0
 10
40.9689
 20
121.473
 11
41.1558
 21
121.497
  0
LINE
  8
0
 10
41.1558
 20
121.497
 11
41.3442
 21
121.497
  0
LINE
  8
0
 10
41.3442
 20
121.497
 11
41.5311
 21
121.473
  0
LINE
  8
0
 10
41.5311
 20
121.473
 11
41.7135
 21
121.427
  0
LINE
  8
0
 10
41.7135
 20
121.427
 11
41.8887
 21
121.357
  0
LINE
  8
0
 10
41.8887
 20
121.357
 11
42.0537
 21
121.266
  0
LINE
  8
0
 10
42.0537
 20
121.266
 11
42.2061
 21
121.156
  0
LINE
  8
0
 10
42.2061
 20
121.156
 11
42.3434
 21
121.027
  0
LINE
  8
0
 10
42.3434
 20
121.027
 11
42.4635
 21
120.882
  0
LINE
  8
0
 10
42.4635
 20
120.882
 11
42.5645
 21
120.723
  0
LINE
  8
0
 10
42.5645
 20
120.723
 11
42.6447
 21
120.552
  0
LINE
  8
0
 10
42.6447
 20
120.552
 11
42.7029
 21
120.373
  0
LINE
  8
0
 10
42.7029
 20
120.373
 11
42.7382
 21
120.188
  0
LINE
  8
0
 10
42.7382
 20
120.188
 11
42.75
 21
120
  0
LINE
  8
0
 10
42.75
 20
120
 11
42.7382
 21
119.812
  0
LINE
  8
0
 10
42.7382
 20
119.812
 11
42.7029
 21
119.627
  0
LINE
  8
0
 10
42.7029
 20
119.627
 11
42.6447
 21
119.448
  0
LINE
  8
0
 10
42.6447
 20
119.448
 11
42.5645
 21
119.277
  0
LINE
  8
0
 10
42.5645
 20
119.277
 11
42.4635
 21
119.118
  0
LINE
  8
0
 10
42.4635
 20
119.118
 11
42.3434
 21
118.973
  0
LINE
  8
0
 10
42.3434
 20
118.973
 11
42.2061
 21
118.844
  0
LINE
  8
0
 10
42.2061
 20
118.844
 11
42.0537
 21
118.734
  0
LINE
  8
0
 10
42.0537
 20
118.734
 11
41.8887
 21
118.643
  0
LINE
  8
0
 10
41.8887
 20
118.643
 11
41.7135
 21
118.573
  0
LINE
  8
0
 10
41.7135
 20
118.573
 11
41.5311
 21
118.527
  0
LINE
  8
0
 10
41.5311
 20
118.527
 11
41.3442
 21
118.503
  0
LINE
  8
0
 10
41.3442
 20
118.503
 11
41.1558
 21
118.503
  0
LINE
  8
0
 10
11.1558
 20
118.503
 11
10.9689
 21
118.527
  0
LINE
  8
0
 10
10.9689
 20
118.527
 11
10.7865
 21
118.573
  0
LINE
  8
0
 10
10.7865
 20
118.573
 11
10.6113
 21
118.643
  0
LINE
  8
0
 10
10.6113
 20
118.643
 11
10.4463
 21
118.734
  0
LINE
  8
0
 10
10.4463
 20
118.734
 11
10.2939
 21
118.844
  0
LINE
  8
0
 10
10.2939
 20
118.844
 11
10.1565
 21
118.973
  0
LINE
  8
0
 10
10.1565
 20
118.973
 11
10.0365
 21
119.118
  0
LINE
  8
0
 10
10.0365
 20
119.118
 11
9.93553
 21
119.277
  0
LINE
  8
0
 10
9.93553
 20
119.277
 11
9.85533
 21
119.448
  0
LINE
  8
0
 10
9.85533
 20
119.448
 11
9.79712
 21
119.627
  0
LINE
  8
0
 10
9.79712
 20
119.627
 11
9.76183
 21
119.812
  0
LINE
  8
0
 10
9.76183
 20
119.812
 11
9.75
 21
120
  0
LINE
  8
0
 10
9.75
 20
120
 11
9.76183
 21
120.188
  0
LINE
  8
0
 10
9.76183
 20
120.188
 11
9.79712
 21
120.373
  0
LINE
  8
0
 10
9.79712
 20
120.373
 11
9.85533
 21
120.552
  0
LINE
  8
0
 10
9.85533
 20
120.552
 11
9.93553
 21
120.723
  0
LINE
  8
0
 10
9.93553
 20
120.723
 11
10.0365
 21
120.882
  0
LINE
  8
0
 10
10.0365
 20
120.882
 11
10.1565
 21
121.027
  0
LINE
  8
0
 10
10.1565
 20
121.027
 11
10.2939
 21
121.156
  0
LINE
  8
0
 10
10.2939
 20
121.156
 11
10.4463
 21
121.266
  0
LINE
  8
0
 10
10.4463
 20
121.266
 11
10.6113
 21
121.357
  0
LINE
  8
0
 10
10.6113
 20
121.357
 11
10.7865
 21
121.427
  0
LINE
  8
0
 10
10.7865
 20
121.427
 11
10.9689
 21
121.473
  0
LINE
  8
0
 10
10.9689
 20
121.473
 11
11.1558
 21
121.497
  0
LINE
  8
0
 10
11.1558
 20
121.497
 11
11.3442
 21
121.497
  0
LINE
  8
0
 10
11.3442
 20
121.497
 11
11.5311
 21
121.473
  0
LINE
  8
0
 10
11.5311
 20
121.473
 11
11.7135
 21
121.427
  0
LINE
  8
0
 10
11.7135
 20
121.427
 11
11.8887
 21
121.357
  0
LINE
  8
0
 10
11.8887
 20
121.357
 11
12.0537
 21
121.266
  0
LINE
  8
0
 10
12.0537
 20
121.266
 11
12.2061
 21
121.156
  0
LINE
  8
0
 10
12.2061
 20
121.156
 11
12.3434
 21
121.027
  0
LINE
  8
0
 10
12.3434
 20
121.027
 11
12.4635
 21
120.882
  0
LINE
  8
0
 10
12.4635
 20
120.882
 11
12.5645
 21
120.723
  0
LINE
  8
0
 10
12.5645
 20
120.723
 11
12.6447
 21
120.552
  0
LINE
  8
0
 10
12.6447
 20
120.552
 11
12.7029
 21
120.373
  0
LINE
  8
0
 10
12.7029
 20
120.373
 11
12.7382
 21
120.188
  0
LINE
  8
0
 10
12.7382
 20
120.188
 11
12.75
 21
120
  0
LINE
  8
0
 10
12.75
 20
120
 11
12.7382
 21
119.812
  0
LINE
  8
0
 10
12.7382
 20
119.812
 11
12.7029
 21
119.627
  0
LINE
  8
0
 10
12.7029
 20
119.627
 11
12.6447
 21
119.448
  0
LINE
  8
0
 10
12.6447
 20
119.448
 11
12.5645
 21
119.277
  0
LINE
  8
0
 10
12.5645
 20
119.277
 11
12.4635
 21
119.118
  0
LINE
  8
0
 10
12.4635
 20
119.118
 11
12.3434
 21
118.973
  0
LINE
  8
0
 10
12.3434
 20
118.973
 11
12.2061
 21
118.844
  0
LINE
  8
0
 10
12.2061
 20
118.844
 11
12.0537
 21
118.734
  0
LINE
  8
0
 10
12.0537
 20
118.734
 11
11.8887
 21
118.643
  0
LINE
  8
0
 10
11.8887
 20
118.643
 11
11.7135
 21
118.573
  0
LINE
  8
0
 10
11.7135
 20
118.573
 11
11.5311
 21
118.527
  0
LINE
  8
0
 10
11.5311
 20
118.527
 11
11.3442
 21
118.503
  0
LINE
  8
0
 10
11.3442
 20
118.503
 11
11.1558
 21
118.503
  0
LINE
  8
0
 10
33.6558
 20
118.503
 11
33.4689
 21
118.527
  0
LINE
  8
0
 10
33.4689
 20
118.527
 11
33.2865
 21
118.573
  0
LINE
  8
0
 10
33.2865
 20
118.573
 11
33.1113
 21
118.643
  0
LINE
  8
0
 10
33.1113
 20
118.643
 11
32.9463
 21
118.734
  0
LINE
  8
0
 10
32.9463
 20
118.734
 11
32.7939
 21
118.844
  0
LINE
  8
0
 10
32.7939
 20
118.844
 11
32.6565
 21
118.973
  0
LINE
  8
0
 10
32.6565
 20
118.973
 11
32.5365
 21
119.118
  0
LINE
  8
0
 10
32.5365
 20
119.118
 11
32.4355
 21
119.277
  0
LINE
  8
0
 10
32.4355
 20
119.277
 11
32.3553
 21
119.448
  0
LINE
  8
0
 10
32.3553
 20
119.448
 11
32.2971
 21
119.627
  0
LINE
  8
0
 10
32.2971
 20
119.627
 11
32.2618
 21
119.812
  0
LINE
  8
0
 10
32.2618
 20
119.812
 11
32.25
 21
120
  0
LINE
  8
0
 10
32.25
 20
120
 11
32.2618
 21
120.188
  0
LINE
  8
0
 10
32.2618
 20
120.188
 11
32.2971
 21
120.373
  0
LINE
  8
0
 10
32.2971
 20
120.373
 11
32.3553
 21
120.552
  0
LINE
  8
0
 10
32.3553
 20
120.552
 11
32.4355
 21
120.723
  0
LINE
  8
0
 10
32.4355
 20
120.723
 11
32.5365
 21
120.882
  0
LINE
  8
0
 10
32.5365
 20
120.882
 11
32.6565
 21
121.027
  0
LINE
  8
0
 10
32.6565
 20
121.027
 11
32.7939
 21
121.156
  0
LINE
  8
0
 10
32.7939
 20
121.156
 11
32.9463
 21
121.266
  0
LINE
  8
0
 10
32.9463
 20
121.266
 11
33.1113
 21
121.357
  0
LINE
  8
0
 10
33.1113
 20
121.357
 11
33.2865
 21
121.427
  0
LINE
  8
0
 10
33.2865
 20
121.427
 11
33.4689
 21
121.473
  0
LINE
  8
0
 10
33.4689
 20
121.473
 11
33.6558
 21
121.497
  0
LINE
  8
0
 10
33.6558
 20
121.497
 11
33.8442
 21
121.497
  0
LINE
  8
0
 10
33.8442
 20
121.497
 11
34.0311
 21
121.473
  0
LINE
  8
0
 10
34.0311
 20
121.473
 11
34.2135
 21
121.427
  0
LINE
  8
0
 10
34.2135
 20
121.427
 11
34.3887
 21
121.357
  0
LINE
  8
0
 10
34.3887
 20
121.357
 11
34.5537
 21
121.266
  0
LINE
  8
0
 10
34.5537
 20
121.266
 11
34.7061
 21
121.156
  0
LINE
  8
0
 10
34.7061
 20
121.156
 11
34.8434
 21
121.027
  0
LINE
  8
0
 10
34.8434
 20
121.027
 11
34.9635
 21
120.882
  0
LINE
  8
0
 10
34.9635
 20
120.882
 11
35.0645
 21
120.723
  0
LINE
  8
0
 10
35.0645
 20
120.723
 11
35.1447
 21
120.552
  0
LINE
  8
0
 10
35.1447
 20
120.552
 11
35.2029
 21
120.373
  0
LINE
  8
0
 10
35.2029
 20
120.373
 11
35.2382
 21
120.188
  0
LINE
  8
0
 10
35.2382
 20
120.188
 11
35.25
 21
120
  0
LINE
  8
0
 10
35.25
 20
120
 11
35.2382
 21
119.812
  0
LINE
  8
0
 10
35.2382
 20
119.812
 11
35.2029
 21
119.627
  0
LINE
  8
0
 10
35.2029
 20
119.627
 11
35.1447
 21
119.448
  0
LINE
  8
0
 10
35.1447
 20
119.448
 11
35.0645
 21
119.277
  0
LINE
  8
0
 10
35.0645
 20
119.277
 11
34.9635
 21
119.118
  0
LINE
  8
0
 10
34.9635
 20
119.118
 11
34.8434
 21
118.973
  0
LINE
  8
0
 10
34.8434
 20
118.973
 11
34.7061
 21
118.844
  0
LINE
  8
0
 10
34.7061
 20
118.844
 11
34.5537
 21
118.734
  0
LINE
  8
0
 10
34.5537
 20
118.734
 11
34.3887
 21
118.643
  0
LINE
  8
0
 10
34.3887
 20
118.643
 11
34.2135
 21
118.573
  0
LINE
  8
0
 10
34.2135
 20
118.573
 11
34.0311
 21
118.527
  0
LINE
  8
0
 10
34.0311
 20
118.527
 11
33.8442
 21
118.503
  0
LINE
  8
0
 10
33.8442
 20
118.503
 11
33.6558
 21
118.503
  0
LINE
  8
0
 10
42.7184
 20
92.5443
 11
43.0225
 21
92.6224
  0
LINE
  8
0
 10
43.0225
 20
92.6224
 11
43.3144
 21
92.7379
  0
LINE
  8
0
 10
43.3144
 20
92.7379
 11
43.5896
 21
92.8892
  0
LINE
  8
0
 10
43.5896
 20
92.8892
 11
43.8436
 21
93.0737
  0
LINE
  8
0
 10
43.8436
 20
93.0737
 11
44.0724
 21
93.2886
  0
LINE
  8
0
 10
44.0724
 20
93.2886
 11
44.2725
 21
93.5305
  0
LINE
  8
0
 10
44.2725
 20
93.5305
 11
44.4408
 21
93.7956
  0
LINE
  8
0
 10
44.4408
 20
93.7956
 11
44.5744
 21
94.0797
  0
LINE
  8
0
 10
44.5744
 20
94.0797
 11
44.6714
 21
94.3783
  0
LINE
  8
0
 10
44.6714
 20
94.3783
 11
44.7303
 21
94.6867
  0
LINE
  8
0
 10
44.7303
 20
94.6867
 11
44.75
 21
95
  0
LINE
  8
0
 10
44.75
 20
95
 11
44.75
 21
97
  0
LINE
  8
0
 10
44.75
 20
97
 11
44.7303
 21
97.3133
  0
LINE
  8
0
 10
44.7303
 20
97.3133
 11
44.6714
 21
97.6217
  0
LINE
  8
0
 10
44.6714
 20
97.6217
 11
44.5744
 21
97.9203
  0
LINE
  8
0
 10
44.5744
 20
97.9203
 11
44.4408
 21
98.2044
  0
LINE
  8
0
 10
44.4408
 20
98.2044
 11
44.2725
 21
98.4695
  0
LINE
  8
0
 10
44.2725
 20
98.4695
 11
44.0724
 21
98.7114
  0
LINE
  8
0
 10
44.0724
 20
98.7114
 11
43.8436
 21
98.9263
  0
LINE
  8
0
 10
43.8436
 20
98.9263
 11
43.5896
 21
99.1108
  0
LINE
  8
0
 10
43.5896
 20
99.1108
 11
43.3144
 21
99.2621
  0
LINE
  8
0
 10
43.3144
 20
99.2621
 11
43.0225
 21
99.3776
  0
LINE
  8
0
 10
43.0225
 20
99.3776
 11
42.7184
 21
99.4557
  0
LINE
  8
0
 10
42.7184
 20
99.4557
 11
42.407
 21
99.4951
  0
LINE
  8
0
 10
42.407
 20
99.4951
 11
-42.407
 21
99.4951
  0
LINE
  8
0
 10
-42.407
 20
99.4951
 11
-42.7184
 21
99.4557
  0
LINE
  8
0
 10
-42.7184
 20
99.4557
 11
-43.0225
 21
99.3776
  0
LINE
  8
0
 10
-43.0225
 20
99.3776
 11
-43.3144
 21
99.2621
  0
LINE
  8
0
 10
-43.3144
 20
99.2621
 11
-43.5896
 21
99.1108
  0
LINE
  8
0
 10
-43.5896
 20
99.1108
 11
-43.8436
 21
98.9263
  0
LINE
  8
0
 10
-43.8436
 20
98.9263
 11
-44.0724
 21
98.7114
  0
LINE
  8
0
 10
-44.0724
 20
98.7114
 11
-44.2725
 21
98.4695
  0
LINE
  8
0
 10
-44.2725
 20
98.4695
 11
-44.4408
 21
98.2044
  0
LINE
  8
0
 10
-44.4408
 20
98.2044
 11
-44.5744
 21
97.9203
  0
LINE
  8
0
 10
-44.5744
 20
97.9203
 11
-44.6714
 21
97.6217
  0
LINE
  8
0
 10
-44.6714
 20
97.6217
 11
-44.7303
 21
97.3133
  0
LINE
  8
0
 10
-44.7303
 20
97.3133
 11
-44.75
 21
97
  0
LINE
  8
0
 10
-44.75
 20
97
 11
-44.75
 21
95
  0
LINE
  8
0
 10
-44.75
 20
95
 11
-44.7303
 21
94.6867
  0
LINE
  8
0
 10
-44.7303
 20
94.6867
 11
-44.6714
 21
94.3783
  0
LINE
  8
0
 10
-44.6714
 20
94.3783
 11
-44.5744
 21
94.0797
  0
LINE
  8
0
 10
-44.5744
 20
94.0797
 11
-44.4408
 21
93.7956
  0
LINE
  8
0
 10
-44.4408
 20
93.7956
 11
-44.2725
 21
93.5305
  0
LINE
  8
0
 10
-44.2725
 20
93.5305
 11
-44.0724
 21
93.2886
  0
LINE
  8
0
 10
-44.0724
 20
93.2886
 11
-43.8436
 21
93.0737
  0
LINE
  8
0
 10
-43.8436
 20
93.0737
 11
-43.5896
 21
92.8892
  0
LINE
  8
0
 10
-43.5896
 20
92.8892
 11
-43.3144
 21
92.7379
  0
LINE
  8
0
 10
-43.3144
 20
92.7379
 11
-43.0225
 21
92.6224
  0
LINE
  8
0
 10
-43.0225
 20
92.6224
 11
-42.7184
 21
92.5443
  0
LINE
  8
0
 10
-42.7184
 20
92.5443
 11
-42.407
 21
92.5049
  0
LINE
  8
0
 10
-42.407
 20
92.5049
 11
42.407
 21
92.5049
  0
LINE
  8
0
 10
42.407
 20
92.5049
 11
42.7184
 21
92.5443
  0
LINE
  8
0
 10
11.1558
 20
94.503
 11
10.9689
 21
94.5266
  0
LINE
  8
0
 10
10.9689
 20
94.5266
 11
10.7865
 21
94.5734
  0
LINE
  8
0
 10
10.7865
 20
94.5734
 11
10.6113
 21
94.6428
  0
LINE
  8
0
 10
10.6113
 20
94.6428
 11
10.4463
 21
94.7335
  0
LINE
  8
0
 10
10.4463
 20
94.7335
 11
10.2939
 21
94.8442
  0
LINE
  8
0
 10
10.2939
 20
94.8442
 11
10.1565
 21
94.9732
  0
LINE
  8
0
 10
10.1565
 20
94.9732
 11
10.0365
 21
95.1183
  0
LINE
  8
0
 10
10.0365
 20
95.1183
 11
9.93553
 21
95.2774
  0
LINE
  8
0
 10
9.93553
 20
95.2774
 11
9.85533
 21
95.4478
  0
LINE
  8
0
 10
9.85533
 20
95.4478
 11
9.79712
 21
95.627
  0
LINE
  8
0
 10
9.79712
 20
95.627
 11
9.76183
 21
95.812
  0
LINE
  8
0
 10
9.76183
 20
95.812
 11
9.75
 21
96
  0
LINE
  8
0
 10
9.75
 20
96
 11
9.76183
 21
96.188
  0
LINE
  8
0
 10
9.76183
 20
96.188
 11
9.79712
 21
96.373
  0
LINE
  8
0
 10
9.79712
 20
96.373
 11
9.85533
 21
96.5522
  0
LINE
  8
0
 10
9.85533
 20
96.5522
 11
9.93553
 21
96.7226
  0
LINE
  8
0
 10
9.93553
 20
96.7226
 11
10.0365
 21
96.8817
  0
LINE
  8
0
 10
10.0365
 20
96.8817
 11
10.1565
 21
97.0268
  0
LINE
  8
0
 10
10.1565
 20
97.0268
 11
10.2939
 21
97.1558
  0
LINE
  8
0
 10
10.2939
 20
97.1558
 11
10.4463
 21
97.2665
  0
LINE
  8
0
 10
10.4463
 20
97.2665
 11
10.6113
 21
97.3572
  0
LINE
  8
0
 10
10.6113
 20
97.3572
 11
10.7865
 21
97.4266
  0
LINE
  8
0
 10
10.7865
 20
97.4266
 11
10.9689
 21
97.4734
  0
LINE
  8
0
 10
10.9689
 20
97.4734
 11
11.1558
 21
97.497
  0
LINE
  8
0
 10
11.1558
 20
97.497
 11
11.3442
 21
97.497
  0
LINE
  8
0
 10
11.3442
 20
97.497
 11
11.5311
 21
97.4734
  0
LINE
  8
0
 10
11.5311
 20
97.4734
 11
11.7135
 21
97.4266
  0
LINE
  8
0
 10
11.7135
 20
97.4266
 11
11.8887
 21
97.3572
  0
LINE
  8
0
 10
11.8887
 20
97.3572
 11
12.0537
 21
97.2665
  0
LINE
  8
0
 10
12.0537
 20
97.2665
 11
12.2061
 21
97.1558
  0
LINE
  8
0
 10
12.2061
 20
97.1558
 11
12.3434
 21
97.0268
  0
LINE
  8
0
 10
12.3434
 20
97.0268
 11
12.4635
 21
96.8817
  0
LINE
  8
0
 10
12.4635
 20
96.8817
 11
12.5645
 21
96.7226
  0
LINE
  8
0
 10
12.5645
 20
96.7226
 11
12.6447
 21
96.5522
  0
LINE
  8
0
 10
12.6447
 20
96.5522
 11
12.7029
 21
96.373
  0
LINE
  8
0
 10
12.7029
 20
96.373
 11
12.7382
 21
96.188
  0
LINE
  8
0
 10
12.7382
 20
96.188
 11
12.75
 21
96
  0
LINE
  8
0
 10
12.75
 20
96
 11
12.7382
 21
95.812
  0
LINE
  8
0
 10
12.7382
 20
95.812
 11
12.7029
 21
95.627
  0
LINE
  8
0
 10
12.7029
 20
95.627
 11
12.6447
 21
95.4478
  0
LINE
  8
0
 10
12.6447
 20
95.4478
 11
12.5645
 21
95.2774
  0
LINE
  8
0
 10
12.5645
 20
95.2774
 11
12.4635
 21
95.1183
  0
LINE
  8
0
 10
12.4635
 20
95.1183
 11
12.3434
 21
94.9732
  0
LINE
  8
0
 10
12.3434
 20
94.9732
 11
12.2061
 21
94.8442
  0
LINE
  8
0
 10
12.2061
 20
94.8442
 11
12.0537
 21
94.7335
  0
LINE
  8
0
 10
12.0537
 20
94.7335
 11
11.8887
 21
94.6428
  0
LINE
  8
0
 10
11.8887
 20
94.6428
 11
11.7135
 21
94.5734
  0
LINE
  8
0
 10
11.7135
 20
94.5734
 11
11.5311
 21
94.5266
  0
LINE
  8
0
 10
11.5311
 20
94.5266
 11
11.3442
 21
94.503
  0
LINE
  8
0
 10
11.3442
 20
94.503
 11
11.1558
 21
94.503
  0
LINE
  8
0
 10
-33.8442
 20
94.503
 11
-34.0311
 21
94.5266
  0
LINE
  8
0
 10
-34.0311
 20
94.5266
 11
-34.2135
 21
94.5734
  0
LINE
  8
0
 10
-34.2135
 20
94.5734
 11
-34.3887
 21
94.6428
  0
LINE
  8
0
 10
-34.3887
 20
94.6428
 11
-34.5537
 21
94.7335
  0
LINE
  8
0
 10
-34.5537
 20
94.7335
 11
-34.7061
 21
94.8442
  0
LINE
  8
0
 10
-34.7061
 20
94.8442
 11
-34.8434
 21
94.9732
  0
LINE
  8
0
 10
-34.8434
 20
94.9732
 11
-34.9635
 21
95.1183
  0
LINE
  8
0
 10
-34.9635
 20
95.1183
 11
-35.0645
 21
95.2774
  0
LINE
  8
0
 10
-35.0645
 20
95.2774
 11
-35.1447
 21
95.4478
  0
LINE
  8
0
 10
-35.1447
 20
95.4478
 11
-35.2029
 21
95.627
  0
LINE
  8
0
 10
-35.2029
 20
95.627
 11
-35.2382
 21
95.812
  0
LINE
  8
0
 10
-35.2382
 20
95.812
 11
-35.25
 21
96
  0
LINE
  8
0
 10
-35.25
 20
96
 11
-35.2382
 21
96.188
  0
LINE
  8
0
 10
-35.2382
 20
96.188
 11
-35.2029
 21
96.373
  0
LINE
  8
0
 10
-35.2029
 20
96.373
 11
-35.1447
 21
96.5522
  0
LINE
  8
0
 10
-35.1447
 20
96.5522
 11
-35.0645
 21
96.7226
  0
LINE
  8
0
 10
-35.0645
 20
96.7226
 11
-34.9635
 21
96.8817
  0
LINE
  8
0
 10
-34.9635
 20
96.8817
 11
-34.8434
 21
97.0268
  0
LINE
  8
0
 10
-34.8434
 20
97.0268
 11
-34.7061
 21
97.1558
  0
LINE
  8
0
 10
-34.7061
 20
97.1558
 11
-34.5537
 21
97.2665
  0
LINE
  8
0
 10
-34.5537
 20
97.2665
 11
-34.3887
 21
97.3572
  0
LINE
  8
0
 10
-34.3887
 20
97.3572
 11
-34.2135
 21
97.4266
  0
LINE
  8
0
 10
-34.2135
 20
97.4266
 11
-34.0311
 21
97.4734
  0
LINE
  8
0
 10
-34.0311
 20
97.4734
 11
-33.8442
 21
97.497
  0
LINE
  8
0
 10
-33.8442
 20
97.497
 11
-33.6558
 21
97.497
  0
LINE
  8
0
 10
-33.6558
 20
97.497
 11
-33.4689
 21
97.4734
  0
LINE
  8
0
 10
-33.4689
 20
97.4734
 11
-33.2865
 21
97.4266
  0
LINE
  8
0
 10
-33.2865
 20
97.4266
 11
-33.1113
 21
97.3572
  0
LINE
  8
0
 10
-33.1113
 20
97.3572
 11
-32.9463
 21
97.2665
  0
LINE
  8
0
 10
-32.9463
 20
97.2665
 11
-32.7939
 21
97.1558
  0
LINE
  8
0
 10
-32.7939
 20
97.1558
 11
-32.6565
 21
97.0268
  0
LINE
  8
0
 10
-32.6565
 20
97.0268
 11
-32.5365
 21
96.8817
  0
LINE
  8
0
 10
-32.5365
 20
96.8817
 11
-32.4355
 21
96.7226
  0
LINE
  8
0
 10
-32.4355
 20
96.7226
 11
-32.3553
 21
96.5522
  0
LINE
  8
0
 10
-32.3553
 20
96.5522
 11
-32.2971
 21
96.373
  0
LINE
  8
0
 10
-32.2971
 20
96.373
 11
-32.2618
 21
96.188
  0
LINE
  8
0
 10
-32.2618
 20
96.188
 11
-32.25
 21
96
  0
LINE
  8
0
 10
-32.25
 20
96
 11
-32.2618
 21
95.812
  0
LINE
  8
0
 10
-32.2618
 20
95.812
 11
-32.2971
 21
95.627
  0
LINE
  8
0
 10
-32.2971
 20
95.627
 11
-32.3553
 21
95.4478
  0
LINE
  8
0
 10
-32.3553
 20
95.4478
 11
-32.4355
 21
95.2774
  0
LINE
  8
0
 10
-32.4355
 20
95.2774
 11
-32.5365
 21
95.1183
  0
LINE
  8
0
 10
-32.5365
 20
95.1183
 11
-32.6565
 21
94.9732
  0
LINE
  8
0
 10
-32.6565
 20
94.9732
 11
-32.7939
 21
94.8442
  0
LINE
  8
0
 10
-32.7939
 20
94.8442
 11
-32.9463
 21
94.7335
  0
LINE
  8
0
 10
-32.9463
 20
94.7335
 11
-33.1113
 21
94.6428
  0
LINE
  8
0
 10
-33.1113
 20
94.6428
 11
-33.2865
 21
94.5734
  0
LINE
  8
0
 10
-33.2865
 20
94.5734
 11
-33.4689
 21
94.5266
  0
LINE
  8
0
 10
-33.4689
 20
94.5266
 11
-33.6558
 21
94.503
  0
LINE
  8
0
 10
-33.6558
 20
94.503
 11
-33.8442
 21
94.503
  0
LINE
  8
0
 10
33.6558
 20
94.503
 11
33.4689
 21
94.5266
  0
LINE
  8
0
 10
33.4689
 20
94.5266
 11
33.2865
 21
94.5734
  0
LINE
  8
0
 10
33.2865
 20
94.5734
 11
33.1113
 21
94.6428
  0
LINE
  8
0
 10
33.1113
 20
94.6428
 11
32.9463
 21
94.7335
  0
LINE
  8
0
 10
32.9463
 20
94.7335
 11
32.7939
 21
94.8442
  0
LINE
  8
0
 10
32.7939
 20
94.8442
 11
32.6565
 21
94.9732
  0
LINE
  8
0
 10
32.6565
 20
94.9732
 11
32.5365
 21
95.1183
  0
LINE
  8
0
 10
32.5365
 20
95.1183
 11
32.4355
 21
95.2774
  0
LINE
  8
0
 10
32.4355
 20
95.2774
 11
32.3553
 21
95.4478
  0
LINE
  8
0
 10
32.3553
 20
95.4478
 11
32.2971
 21
95.627
  0
LINE
  8
0
 10
32.2971
 20
95.627
 11
32.2618
 21
95.812
  0
LINE
  8
0
 10
32.2618
 20
95.812
 11
32.25
 21
96
  0
LINE
  8
0
 10
32.25
 20
96
 11
32.2618
 21
96.188
  0
LINE
  8
0
 10
32.2618
 20
96.188
 11
32.2971
 21
96.373
  0
LINE
  8
0
 10
32.2971
 20
96.373
 11
32.3553
 21
96.5522
  0
LINE
  8
0
 10
32.3553
 20
96.5522
 11
32.4355
 21
96.7226
  0
LINE
  8
0
 10
32.4355
 20
96.7226
 11
32.5365
 21
96.8817
  0
LINE
  8
0
 10
32.5365
 20
96.8817
 11
32.6565
 21
97.0268
  0
LINE
  8
0
 10
32.6565
 20
97.0268
 11
32.7939
 21
97.1558
  0
LINE
  8
0
 10
32.7939
 20
97.1558
 11
32.9463
 21
97.2665
  0
LINE
  8
0
 10
32.9463
 20
97.2665
 11
33.1113
 21
97.3572
  0
LINE
  8
0
 10
33.1113
 20
97.3572
 11
33.2865
 21
97.4266
  0
LINE
  8
0
 10
33.2865
 20
97.4266
 11
33.4689
 21
97.4734
  0
LINE
  8
0
 10
33.4689
 20
97.4734
 11
33.6558
 21
97.497
  0
LINE
  8
0
 10
33.6558
 20
97.497
 11
33.8442
 21
97.497
  0
LINE
  8
0
 10
33.8442
 20
97.497
 11
34.0311
 21
97.4734
  0
LINE
  8
0
 10
34.0311
 20
97.4734
 11
34.2135
 21
97.4266
  0
LINE
  8
0
 10
34.2135
 20
97.4266
 11
34.3887
 21
97.3572
  0
LINE
  8
0
 10
34.3887
 20
97.3572
 11
34.5537
 21
97.2665
  0
LINE
  8
0
 10
34.5537
 20
97.2665
 11
34.7061
 21
97.1558
  0
LINE
  8
0
 10
34.7061
 20
97.1558
 11
34.8434
 21
97.0268
  0
LINE
  8
0
 10
34.8434
 20
97.0268
 11
34.9635
 21
96.8817
  0
LINE
  8
0
 10
34.9635
 20
96.8817
 11
35.0645
 21
96.7226
  0
LINE
  8
0
 10
35.0645
 20
96.7226
 11
35.1447
 21
96.5522
  0
LINE
  8
0
 10
35.1447
 20
96.5522
 11
35.2029
 21
96.373
  0
LINE
  8
0
 10
35.2029
 20
96.373
 11
35.2382
 21
96.188
  0
LINE
  8
0
 10
35.2382
 20
96.188
 11
35.25
 21
96
  0
LINE
  8
0
 10
35.25
 20
96
 11
35.2382
 21
95.812
  0
LINE
  8
0
 10
35.2382
 20
95.812
 11
35.2029
 21
95.627
  0
LINE
  8
0
 10
35.2029
 20
95.627
 11
35.1447
 21
95.4478
  0
LINE
  8
0
 10
35.1447
 20
95.4478
 11
35.0645
 21
95.2774
  0
LINE
  8
0
 10
35.0645
 20
95.2774
 11
34.9635
 21
95.1183
  0
LINE
  8
0
 10
34.9635
 20
95.1183
 11
34.8434
 21
94.9732
  0
LINE
  8
0
 10
34.8434
 20
94.9732
 11
34.7061
 21
94.8442
  0
LINE
  8
0
 10
34.7061
 20
94.8442
 11
34.5537
 21
94.7335
  0
LINE
  8
0
 10
34.5537
 20
94.7335
 11
34.3887
 21
94.6428
  0
LINE
  8
0
 10
34.3887
 20
94.6428
 11
34.2135
 21
94.5734
  0
LINE
  8
0
 10
34.2135
 20
94.5734
 11
34.0311
 21
94.5266
  0
LINE
  8
0
 10
34.0311
 20
94.5266
 11
33.8442
 21
94.503
  0
LINE
  8
0
 10
33.8442
 20
94.503
 11
33.6558
 21
94.503
  0
LINE
  8
0
 10
41.1558
 20
94.503
 11
40.9689
 21
94.5266
  0
LINE
  8
0
 10
40.9689
 20
94.5266
 11
40.7865
 21
94.5734
  0
LINE
  8
0
 10
40.7865
 20
94.5734
 11
40.6113
 21
94.6428
  0
LINE
  8
0
 10
40.6113
 20
94.6428
 11
40.4463
 21
94.7335
  0
LINE
  8
0
 10
40.4463
 20
94.7335
 11
40.2939
 21
94.8442
  0
LINE
  8
0
 10
40.2939
 20
94.8442
 11
40.1565
 21
94.9732
  0
LINE
  8
0
 10
40.1565
 20
94.9732
 11
40.0365
 21
95.1183
  0
LINE
  8
0
 10
40.0365
 20
95.1183
 11
39.9355
 21
95.2774
  0
LINE
  8
0
 10
39.9355
 20
95.2774
 11
39.8553
 21
95.4478
  0
LINE
  8
0
 10
39.8553
 20
95.4478
 11
39.7971
 21
95.627
  0
LINE
  8
0
 10
39.7971
 20
95.627
 11
39.7618
 21
95.812
  0
LINE
  8
0
 10
39.7618
 20
95.812
 11
39.75
 21
96
  0
LINE
  8
0
 10
39.75
 20
96
 11
39.7618
 21
96.188
  0
LINE
  8
0
 10
39.7618
 20
96.188
 11
39.7971
 21
96.373
  0
LINE
  8
0
 10
39.7971
 20
96.373
 11
39.8553
 21
96.5522
  0
LINE
  8
0
 10
39.8553
 20
96.5522
 11
39.9355
 21
96.7226
  0
LINE
  8
0
 10
39.9355
 20
96.7226
 11
40.0365
 21
96.8817
  0
LINE
  8
0
 10
40.0365
 20
96.8817
 11
40.1565
 21
97.0268
  0
LINE
  8
0
 10
40.1565
 20
97.0268
 11
40.2939
 21
97.1558
  0
LINE
  8
0
 10
40.2939
 20
97.1558
 11
40.4463
 21
97.2665
  0
LINE
  8
0
 10
40.4463
 20
97.2665
 11
40.6113
 21
97.3572
  0
LINE
  8
0
 10
40.6113
 20
97.3572
 11
40.7865
 21
97.4266
  0
LINE
  8
0
 10
40.7865
 20
97.4266
 11
40.9689
 21
97.4734
  0
LINE
  8
0
 10
40.9689
 20
97.4734
 11
41.1558
 21
97.497
  0
LINE
  8
0
 10
41.1558
 20
97.497
 11
41.3442
 21
97.497
  0
LINE
  8
0
 10
41.3442
 20
97.497
 11
41.5311
 21
97.4734
  0
LINE
  8
0
 10
41.5311
 20
97.4734
 11
41.7135
 21
97.4266
  0
LINE
  8
0
 10
41.7135
 20
97.4266
 11
41.8887
 21
97.3572
  0
LINE
  8
0
 10
41.8887
 20
97.3572
 11
42.0537
 21
97.2665
  0
LINE
  8
0
 10
42.0537
 20
97.2665
 11
42.2061
 21
97.1558
  0
LINE
  8
0
 10
42.2061
 20
97.1558
 11
42.3434
 21
97.0268
  0
LINE
  8
0
 10
42.3434
 20
97.0268
 11
42.4635
 21
96.8817
  0
LINE
  8
0
 10
42.4635
 20
96.8817
 11
42.5645
 21
96.7226
  0
LINE
  8
0
 10
42.5645
 20
96.7226
 11
42.6447
 21
96.5522
  0
LINE
  8
0
 10
42.6447
 20
96.5522
 11
42.7029
 21
96.373
  0
LINE
  8
0
 10
42.7029
 20
96.373
 11
42.7382
 21
96.188
  0
LINE
  8
0
 10
42.7382
 20
96.188
 11
42.75
 21
96
  0
LINE
  8
0
 10
42.75
 20
96
 11
42.7382
 21
95.812
  0
LINE
  8
0
 10
42.7382
 20
95.812
 11
42.7029
 21
95.627
  0
LINE
  8
0
 10
42.7029
 20
95.627
 11
42.6447
 21
95.4478
  0
LINE
  8
0
 10
42.6447
 20
95.4478
 11
42.5645
 21
95.2774
  0
LINE
  8
0
 10
42.5645
 20
95.2774
 11
42.4635
 21
95.1183
  0
LINE
  8
0
 10
42.4635
 20
95.1183
 11
42.3434
 21
94.9732
  0
LINE
  8
0
 10
42.3434
 20
94.9732
 11
42.2061
 21
94.8442
  0
LINE
  8
0
 10
42.2061
 20
94.8442
 11
42.0537
 21
94.7335
  0
LINE
  8
0
 10
42.0537
 20
94.7335
 11
41.8887
 21
94.6428
  0
LINE
  8
0
 10
41.8887
 20
94.6428
 11
41.7135
 21
94.5734
  0
LINE
  8
0
 10
41.7135
 20
94.5734
 11
41.5311
 21
94.5266
  0
LINE
  8
0
 10
41.5311
 20
94.5266
 11
41.3442
 21
94.503
  0
LINE
  8
0
 10
41.3442
 20
94.503
 11
41.1558
 21
94.503
  0
LINE
  8
0
 10
-3.84418
 20
94.503
 11
-4.03107
 21
94.5266
  0
LINE
  8
0
 10
-4.03107
 20
94.5266
 11
-4.21352
 21
94.5734
  0
LINE
  8
0
 10
-4.21352
 20
94.5734
 11
-4.38866
 21
94.6428
  0
LINE
  8
0
 10
-4.38866
 20
94.6428
 11
-4.55373
 21
94.7335
  0
LINE
  8
0
 10
-4.55373
 20
94.7335
 11
-4.70613
 21
94.8442
  0
LINE
  8
0
 10
-4.70613
 20
94.8442
 11
-4.84344
 21
94.9732
  0
LINE
  8
0
 10
-4.84344
 20
94.9732
 11
-4.96352
 21
95.1183
  0
LINE
  8
0
 10
-4.96352
 20
95.1183
 11
-5.06445
 21
95.2774
  0
LINE
  8
0
 10
-5.06445
 20
95.2774
 11
-5.14465
 21
95.4478
  0
LINE
  8
0
 10
-5.14465
 20
95.4478
 11
-5.20287
 21
95.627
  0
LINE
  8
0
 10
-5.20287
 20
95.627
 11
-5.23816
 21
95.812
  0
LINE
  8
0
 10
-5.23816
 20
95.812
 11
-5.25
 21
96
  0
LINE
  8
0
 10
-5.25
 20
96
 11
-5.23816
 21
96.188
  0
LINE
  8
0
 10
-5.23816
 20
96.188
 11
-5.20287
 21
96.373
  0
LINE
  8
0
 10
-5.20287
 20
96.373
 11
-5.14465
 21
96.5522
  0
LINE
  8
0
 10
-5.14465
 20
96.5522
 11
-5.06445
 21
96.7226
  0
LINE
  8
0
 10
-5.06445
 20
96.7226
 11
-4.96352
 21
96.8817
  0
LINE
  8
0
 10
-4.96352
 20
96.8817
 11
-4.84344
 21
97.0268
  0
LINE
  8
0
 10
-4.84344
 20
97.0268
 11
-4.70613
 21
97.1558
  0
LINE
  8
0
 10
-4.70613
 20
97.1558
 11
-4.55373
 21
97.2665
  0
LINE
  8
0
 10
-4.55373
 20
97.2665
 11
-4.38866
 21
97.3572
  0
LINE
  8
0
 10
-4.38866
 20
97.3572
 11
-4.21352
 21
97.4266
  0
LINE
  8
0
 10
-4.21352
 20
97.4266
 11
-4.03107
 21
97.4734
  0
LINE
  8
0
 10
-4.03107
 20
97.4734
 11
-3.84418
 21
97.497
  0
LINE
  8
0
 10
-3.84418
 20
97.497
 11
-3.65581
 21
97.497
  0
LINE
  8
0
 10
-3.65581
 20
97.497
 11
-3.46892
 21
97.4734
  0
LINE
  8
0
 10
-3.46892
 20
97.4734
 11
-3.28647
 21
97.4266
  0
LINE
  8
0
 10
-3.28647
 20
97.4266
 11
-3.11133
 21
97.3572
  0
LINE
  8
0
 10
-3.11133
 20
97.3572
 11
-2.94626
 21
97.2665
  0
LINE
  8
0
 10
-2.94626
 20
97.2665
 11
-2.79385
 21
97.1558
  0
LINE
  8
0
 10
-2.79385
 20
97.1558
 11
-2.65654
 21
97.0268
  0
LINE
  8
0
 10
-2.65654
 20
97.0268
 11
-2.53647
 21
96.8817
  0
LINE
  8
0
 10
-2.53647
 20
96.8817
 11
-2.43553
 21
96.7226
  0
LINE
  8
0
 10
-2.43553
 20
96.7226
 11
-2.35533
 21
96.5522
  0
LINE
  8
0
 10
-2.35533
 20
96.5522
 11
-2.29712
 21
96.373
  0
LINE
  8
0
 10
-2.29712
 20
96.373
 11
-2.26183
 21
96.188
  0
LINE
  8
0
 10
-2.26183
 20
96.188
 11
-2.25
 21
96
  0
LINE
  8
0
 10
-2.25
 20
96
 11
-2.26183
 21
95.812
  0
LINE
  8
0
 10
-2.26183
 20
95.812
 11
-2.29712
 21
95.627
  0
LINE
  8
0
 10
-2.29712
 20
95.627
 11
-2.35533
 21
95.4478
  0
LINE
  8
0
 10
-2.35533
 20
95.4478
 11
-2.43553
 21
95.2774
  0
LINE
  8
0
 10
-2.43553
 20
95.2774
 11
-2.53647
 21
95.1183
  0
LINE
  8
0
 10
-2.53647
 20
95.1183
 11
-2.65654
 21
94.9732
  0
LINE
  8
0
 10
-2.65654
 20
94.9732
 11
-2.79385
 21
94.8442
  0
LINE
  8
0
 10
-2.79385
 20
94.8442
 11
-2.94626
 21
94.7335
  0
LINE
  8
0
 10
-2.94626
 20
94.7335
 11
-3.11133
 21
94.6428
  0
LINE
  8
0
 10
-3.11133
 20
94.6428
 11
-3.28647
 21
94.5734
  0
LINE
  8
0
 10
-3.28647
 20
94.5734
 11
-3.46892
 21
94.5266
  0
LINE
  8
0
 10
-3.46892
 20
94.5266
 11
-3.65581
 21
94.503
  0
LINE
  8
0
 10
-3.65581
 20
94.503
 11
-3.84418
 21
94.503
  0
LINE
  8
0
 10
-41.3442
 20
94.503
 11
-41.5311
 21
94.5266
  0
LINE
  8
0
 10
-41.5311
 20
94.5266
 11
-41.7135
 21
94.5734
  0
LINE
  8
0
 10
-41.7135
 20
94.5734
 11
-41.8887
 21
94.6428
  0
LINE
  8
0
 10
-41.8887
 20
94.6428
 11
-42.0537
 21
94.7335
  0
LINE
  8
0
 10
-42.0537
 20
94.7335
 11
-42.2061
 21
94.8442
  0
LINE
  8
0
 10
-42.2061
 20
94.8442
 11
-42.3434
 21
94.9732
  0
LINE
  8
0
 10
-42.3434
 20
94.9732
 11
-42.4635
 21
95.1183
  0
LINE
  8
0
 10
-42.4635
 20
95.1183
 11
-42.5645
 21
95.2774
  0
LINE
  8
0
 10
-42.5645
 20
95.2774
 11
-42.6447
 21
95.4478
  0
LINE
  8
0
 10
-42.6447
 20
95.4478
 11
-42.7029
 21
95.627
  0
LINE
  8
0
 10
-42.7029
 20
95.627
 11
-42.7382
 21
95.812
  0
LINE
  8
0
 10
-42.7382
 20
95.812
 11
-42.75
 21
96
  0
LINE
  8
0
 10
-42.75
 20
96
 11
-42.7382
 21
96.188
  0
LINE
  8
0
 10
-42.7382
 20
96.188
 11
-42.7029
 21
96.373
  0
LINE
  8
0
 10
-42.7029
 20
96.373
 11
-42.6447
 21
96.5522
  0
LINE
  8
0
 10
-42.6447
 20
96.5522
 11
-42.5645
 21
96.7226
  0
LINE
  8
0
 10
-42.5645
 20
96.7226
 11
-42.4635
 21
96.8817
  0
LINE
  8
0
 10
-42.4635
 20
96.8817
 11
-42.3434
 21
97.0268
  0
LINE
  8
0
 10
-42.3434
 20
97.0268
 11
-42.2061
 21
97.1558
  0
LINE
  8
0
 10
-42.2061
 20
97.1558
 11
-42.0537
 21
97.2665
  0
LINE
  8
0
 10
-42.0537
 20
97.2665
 11
-41.8887
 21
97.3572
  0
LINE
  8
0
 10
-41.8887
 20
97.3572
 11
-41.7135
 21
97.4266
  0
LINE
  8
0
 10
-41.7135
 20
97.4266
 11
-41.5311
 21
97.4734
  0
LINE
  8
0
 10
-41.5311
 20
97.4734
 11
-41.3442
 21
97.497
  0
LINE
  8
0
 10
-41.3442
 20
97.497
 11
-41.1558
 21
97.497
  0
LINE
  8
0
 10
-41.1558
 20
97.497
 11
-40.9689
 21
97.4734
  0
LINE
  8
0
 10
-40.9689
 20
97.4734
 11
-40.7865
 21
97.4266
  0
LINE
  8
0
 10
-40.7865
 20
97.4266
 11
-40.6113
 21
97.3572
  0
LINE
  8
0
 10
-40.6113
 20
97.3572
 11
-40.4463
 21
97.2665
  0
LINE
  8
0
 10
-40.4463
 20
97.2665
 11
-40.2939
 21
97.1558
  0
LINE
  8
0
 10
-40.2939
 20
97.1558
 11
-40.1565
 21
97.0268
  0
LINE
  8
0
 10
-40.1565
 20
97.0268
 11
-40.0365
 21
96.8817
  0
LINE
  8
0
 10
-40.0365
 20
96.8817
 11
-39.9355
 21
96.7226
  0
LINE
  8
0
 10
-39.9355
 20
96.7226
 11
-39.8553
 21
96.5522
  0
LINE
  8
0
 10
-39.8553
 20
96.5522
 11
-39.7971
 21
96.373
  0
LINE
  8
0
 10
-39.7971
 20
96.373
 11
-39.7618
 21
96.188
  0
LINE
  8
0
 10
-39.7618
 20
96.188
 11
-39.75
 21
96
  0
LINE
  8
0
 10
-39.75
 20
96
 11
-39.7618
 21
95.812
  0
LINE
  8
0
 10
-39.7618
 20
95.812
 11
-39.7971
 21
95.627
  0
LINE
  8
0
 10
-39.7971
 20
95.627
 11
-39.8553
 21
95.4478
  0
LINE
  8
0
 10
-39.8553
 20
95.4478
 11
-39.9355
 21
95.2774
  0
LINE
  8
0
 10
-39.9355
 20
95.2774
 11
-40.0365
 21
95.1183
  0
LINE
  8
0
 10
-40.0365
 20
95.1183
 11
-40.1565
 21
94.9732
  0
LINE
  8
0
 10
-40.1565
 20
94.9732
 11
-40.2939
 21
94.8442
  0
LINE
  8
0
 10
-40.2939
 20
94.8442
 11
-40.4463
 21
94.7335
  0
LINE
  8
0
 10
-40.4463
 20
94.7335
 11
-40.6113
 21
94.6428
  0
LINE
  8
0
 10
-40.6113
 20
94.6428
 11
-40.7865
 21
94.5734
  0
LINE
  8
0
 10
-40.7865
 20
94.5734
 11
-40.9689
 21
94.5266
  0
LINE
  8
0
 10
-40.9689
 20
94.5266
 11
-41.1558
 21
94.503
  0
LINE
  8
0
 10
-41.1558
 20
94.503
 11
-41.3442
 21
94.503
  0
LINE
  8
0
 10
26.1558
 20
94.503
 11
25.9689
 21
94.5266
  0
LINE
  8
0
 10
25.9689
 20
94.5266
 11
25.7865
 21
94.5734
  0
LINE
  8
0
 10
25.7865
 20
94.5734
 11
25.6113
 21
94.6428
  0
LINE
  8
0
 10
25.6113
 20
94.6428
 11
25.4463
 21
94.7335
  0
LINE
  8
0
 10
25.4463
 20
94.7335
 11
25.2939
 21
94.8442
  0
LINE
  8
0
 10
25.2939
 20
94.8442
 11
25.1565
 21
94.9732
  0
LINE
  8
0
 10
25.1565
 20
94.9732
 11
25.0365
 21
95.1183
  0
LINE
  8
0
 10
25.0365
 20
95.1183
 11
24.9355
 21
95.2774
  0
LINE
  8
0
 10
24.9355
 20
95.2774
 11
24.8553
 21
95.4478
  0
LINE
  8
0
 10
24.8553
 20
95.4478
 11
24.7971
 21
95.627
  0
LINE
  8
0
 10
24.7971
 20
95.627
 11
24.7618
 21
95.812
  0
LINE
  8
0
 10
24.7618
 20
95.812
 11
24.75
 21
96
  0
LINE
  8
0
 10
24.75
 20
96
 11
24.7618
 21
96.188
  0
LINE
  8
0
 10
24.7618
 20
96.188
 11
24.7971
 21
96.373
  0
LINE
  8
0
 10
24.7971
 20
96.373
 11
24.8553
 21
96.5522
  0
LINE
  8
0
 10
24.8553
 20
96.5522
 11
24.9355
 21
96.7226
  0
LINE
  8
0
 10
24.9355
 20
96.7226
 11
25.0365
 21
96.8817
  0
LINE
  8
0
 10
25.0365
 20
96.8817
 11
25.1565
 21
97.0268
  0
LINE
  8
0
 10
25.1565
 20
97.0268
 11
25.2939
 21
97.1558
  0
LINE
  8
0
 10
25.2939
 20
97.1558
 11
25.4463
 21
97.2665
  0
LINE
  8
0
 10
25.4463
 20
97.2665
 11
25.6113
 21
97.3572
  0
LINE
  8
0
 10
25.6113
 20
97.3572
 11
25.7865
 21
97.4266
  0
LINE
  8
0
 10
25.7865
 20
97.4266
 11
25.9689
 21
97.4734
  0
LINE
  8
0
 10
25.9689
 20
97.4734
 11
26.1558
 21
97.497
  0
LINE
  8
0
 10
26.1558
 20
97.497
 11
26.3442
 21
97.497
  0
LINE
  8
0
 10
26.3442
 20
97.497
 11
26.5311
 21
97.4734
  0
LINE
  8
0
 10
26.5311
 20
97.4734
 11
26.7135
 21
97.4266
  0
LINE
  8
0
 10
26.7135
 20
97.4266
 11
26.8887
 21
97.3572
  0
LINE
  8
0
 10
26.8887
 20
97.3572
 11
27.0537
 21
97.2665
  0
LINE
  8
0
 10
27.0537
 20
97.2665
 11
27.2061
 21
97.1558
  0
LINE
  8
0
 10
27.2061
 20
97.1558
 11
27.3434
 21
97.0268
  0
LINE
  8
0
 10
27.3434
 20
97.0268
 11
27.4635
 21
96.8817
  0
LINE
  8
0
 10
27.4635
 20
96.8817
 11
27.5645
 21
96.7226
  0
LINE
  8
0
 10
27.5645
 20
96.7226
 11
27.6447
 21
96.5522
  0
LINE
  8
0
 10
27.6447
 20
96.5522
 11
27.7029
 21
96.373
  0
LINE
  8
0
 10
27.7029
 20
96.373
 11
27.7382
 21
96.188
  0
LINE
  8
0
 10
27.7382
 20
96.188
 11
27.75
 21
96
  0
LINE
  8
0
 10
27.75
 20
96
 11
27.7382
 21
95.812
  0
LINE
  8
0
 10
27.7382
 20
95.812
 11
27.7029
 21
95.627
  0
LINE
  8
0
 10
27.7029
 20
95.627
 11
27.6447
 21
95.4478
  0
LINE
  8
0
 10
27.6447
 20
95.4478
 11
27.5645
 21
95.2774
  0
LINE
  8
0
 10
27.5645
 20
95.2774
 11
27.4635
 21
95.1183
  0
LINE
  8
0
 10
27.4635
 20
95.1183
 11
27.3434
 21
94.9732
  0
LINE
  8
0
 10
27.3434
 20
94.9732
 11
27.2061
 21
94.8442
  0
LINE
  8
0
 10
27.2061
 20
94.8442
 11
27.0537
 21
94.7335
  0
LINE
  8
0
 10
27.0537
 20
94.7335
 11
26.8887
 21
94.6428
  0
LINE
  8
0
 10
26.8887
 20
94.6428
 11
26.7135
 21
94.5734
  0
LINE
  8
0
 10
26.7135
 20
94.5734
 11
26.5311
 21
94.5266
  0
LINE
  8
0
 10
26.5311
 20
94.5266
 11
26.3442
 21
94.503
  0
LINE
  8
0
 10
26.3442
 20
94.503
 11
26.1558
 21
94.503
  0
LINE
  8
0
 10
18.6558
 20
94.503
 11
18.4689
 21
94.5266
  0
LINE
  8
0
 10
18.4689
 20
94.5266
 11
18.2865
 21
94.5734
  0
LINE
  8
0
 10
18.2865
 20
94.5734
 11
18.1113
 21
94.6428
  0
LINE
  8
0
 10
18.1113
 20
94.6428
 11
17.9463
 21
94.7335
  0
LINE
  8
0
 10
17.9463
 20
94.7335
 11
17.7939
 21
94.8442
  0
LINE
  8
0
 10
17.7939
 20
94.8442
 11
17.6565
 21
94.9732
  0
LINE
  8
0
 10
17.6565
 20
94.9732
 11
17.5365
 21
95.1183
  0
LINE
  8
0
 10
17.5365
 20
95.1183
 11
17.4355
 21
95.2774
  0
LINE
  8
0
 10
17.4355
 20
95.2774
 11
17.3553
 21
95.4478
  0
LINE
  8
0
 10
17.3553
 20
95.4478
 11
17.2971
 21
95.627
  0
LINE
  8
0
 10
17.2971
 20
95.627
 11
17.2618
 21
95.812
  0
LINE
  8
0
 10
17.2618
 20
95.812
 11
17.25
 21
96
  0
LINE
  8
0
 10
17.25
 20
96
 11
17.2618
 21
96.188
  0
LINE
  8
0
 10
17.2618
 20
96.188
 11
17.2971
 21
96.373
  0
LINE
  8
0
 10
17.2971
 20
96.373
 11
17.3553
 21
96.5522
  0
LINE
  8
0
 10
17.3553
 20
96.5522
 11
17.4355
 21
96.7226
  0
LINE
  8
0
 10
17.4355
 20
96.7226
 11
17.5365
 21
96.8817
  0
LINE
  8
0
 10
17.5365
 20
96.8817
 11
17.6565
 21
97.0268
  0
LINE
  8
0
 10
17.6565
 20
97.0268
 11
17.7939
 21
97.1558
  0
LINE
  8
0
 10
17.7939
 20
97.1558
 11
17.9463
 21
97.2665
  0
LINE
  8
0
 10
17.9463
 20
97.2665
 11
18.1113
 21
97.3572
  0
LINE
  8
0
 10
18.1113
 20
97.3572
 11
18.2865
 21
97.4266
  0
LINE
  8
0
 10
18.2865
 20
97.4266
 11
18.4689
 21
97.4734
  0
LINE
  8
0
 10
18.4689
 20
97.4734
 11
18.6558
 21
97.497
  0
LINE
  8
0
 10
18.6558
 20
97.497
 11
18.8442
 21
97.497
  0
LINE
  8
0
 10
18.8442
 20
97.497
 11
19.0311
 21
97.4734
  0
LINE
  8
0
 10
19.0311
 20
97.4734
 11
19.2135
 21
97.4266
  0
LINE
  8
0
 10
19.2135
 20
97.4266
 11
19.3887
 21
97.3572
  0
LINE
  8
0
 10
19.3887
 20
97.3572
 11
19.5537
 21
97.2665
  0
LINE
  8
0
 10
19.5537
 20
97.2665
 11
19.7061
 21
97.1558
  0
LINE
  8
0
 10
19.7061
 20
97.1558
 11
19.8434
 21
97.0268
  0
LINE
  8
0
 10
19.8434
 20
97.0268
 11
19.9635
 21
96.8817
  0
LINE
  8
0
 10
19.9635
 20
96.8817
 11
20.0645
 21
96.7226
  0
LINE
  8
0
 10
20.0645
 20
96.7226
 11
20.1447
 21
96.5522
  0
LINE
  8
0
 10
20.1447
 20
96.5522
 11
20.2029
 21
96.373
  0
LINE
  8
0
 10
20.2029
 20
96.373
 11
20.2382
 21
96.188
  0
LINE
  8
0
 10
20.2382
 20
96.188
 11
20.25
 21
96
  0
LINE
  8
0
 10
20.25
 20
96
 11
20.2382
 21
95.812
  0
LINE
  8
0
 10
20.2382
 20
95.812
 11
20.2029
 21
95.627
  0
LINE
  8
0
 10
20.2029
 20
95.627
 11
20.1447
 21
95.4478
  0
LINE
  8
0
 10
20.1447
 20
95.4478
 11
20.0645
 21
95.2774
  0
LINE
  8
0
 10
20.0645
 20
95.2774
 11
19.9635
 21
95.1183
  0
LINE
  8
0
 10
19.9635
 20
95.1183
 11
19.8434
 21
94.9732
  0
LINE
  8
0
 10
19.8434
 20
94.9732
 11
19.7061
 21
94.8442
  0
LINE
  8
0
 10
19.7061
 20
94.8442
 11
19.5537
 21
94.7335
  0
LINE
  8
0
 10
19.5537
 20
94.7335
 11
19.3887
 21
94.6428
  0
LINE
  8
0
 10
19.3887
 20
94.6428
 11
19.2135
 21
94.5734
  0
LINE
  8
0
 10
19.2135
 20
94.5734
 11
19.0311
 21
94.5266
  0
LINE
  8
0
 10
19.0311
 20
94.5266
 11
18.8442
 21
94.503
  0
LINE
  8
0
 10
18.8442
 20
94.503
 11
18.6558
 21
94.503
  0
LINE
  8
0
 10
3.65581
 20
94.503
 11
3.46892
 21
94.5266
  0
LINE
  8
0
 10
3.46892
 20
94.5266
 11
3.28647
 21
94.5734
  0
LINE
  8
0
 10
3.28647
 20
94.5734
 11
3.11133
 21
94.6428
  0
LINE
  8
0
 10
3.11133
 20
94.6428
 11
2.94626
 21
94.7335
  0
LINE
  8
0
 10
2.94626
 20
94.7335
 11
2.79385
 21
94.8442
  0
LINE
  8
0
 10
2.79385
 20
94.8442
 11
2.65654
 21
94.9732
  0
LINE
  8
0
 10
2.65654
 20
94.9732
 11
2.53647
 21
95.1183
  0
LINE
  8
0
 10
2.53647
 20
95.1183
 11
2.43553
 21
95.2774
  0
LINE
  8
0
 10
2.43553
 20
95.2774
 11
2.35533
 21
95.4478
  0
LINE
  8
0
 10
2.35533
 20
95.4478
 11
2.29712
 21
95.627
  0
LINE
  8
0
 10
2.29712
 20
95.627
 11
2.26183
 21
95.812
  0
LINE
  8
0
 10
2.26183
 20
95.812
 11
2.25
 21
96
  0
LINE
  8
0
 10
2.25
 20
96
 11
2.26183
 21
96.188
  0
LINE
  8
0
 10
2.26183
 20
96.188
 11
2.29712
 21
96.373
  0
LINE
  8
0
 10
2.29712
 20
96.373
 11
2.35533
 21
96.5522
  0
LINE
  8
0
 10
2.35533
 20
96.5522
 11
2.43553
 21
96.7226
  0
LINE
  8
0
 10
2.43553
 20
96.7226
 11
2.53647
 21
96.8817
  0
LINE
  8
0
 10
2.53647
 20
96.8817
 11
2.65654
 21
97.0268
  0
LINE
  8
0
 10
2.65654
 20
97.0268
 11
2.79385
 21
97.1558
  0
LINE
  8
0
 10
2.79385
 20
97.1558
 11
2.94626
 21
97.2665
  0
LINE
  8
0
 10
2.94626
 20
97.2665
 11
3.11133
 21
97.3572
  0
LINE
  8
0
 10
3.11133
 20
97.3572
 11
3.28647
 21
97.4266
  0
LINE
  8
0
 10
3.28647
 20
97.4266
 11
3.46892
 21
97.4734
  0
LINE
  8
0
 10
3.46892
 20
97.4734
 11
3.65581
 21
97.497
  0
LINE
  8
0
 10
3.65581
 20
97.497
 11
3.84418
 21
97.497
  0
LINE
  8
0
 10
3.84418
 20
97.497
 11
4.03107
 21
97.4734
  0
LINE
  8
0
 10
4.03107
 20
97.4734
 11
4.21352
 21
97.4266
  0
LINE
  8
0
 10
4.21352
 20
97.4266
 11
4.38866
 21
97.3572
  0
LINE
  8
0
 10
4.38866
 20
97.3572
 11
4.55373
 21
97.2665
  0
LINE
  8
0
 10
4.55373
 20
97.2665
 11
4.70613
 21
97.1558
  0
LINE
  8
0
 10
4.70613
 20
97.1558
 11
4.84344
 21
97.0268
  0
LINE
  8
0
 10
4.84344
 20
97.0268
 11
4.96352
 21
96.8817
  0
LINE
  8
0
 10
4.96352
 20
96.8817
 11
5.06445
 21
96.7226
  0
LINE
  8
0
 10
5.06445
 20
96.7226
 11
5.14465
 21
96.5522
  0
LINE
  8
0
 10
5.14465
 20
96.5522
 11
5.20287
 21
96.373
  0
LINE
  8
0
 10
5.20287
 20
96.373
 11
5.23816
 21
96.188
  0
LINE
  8
0
 10
5.23816
 20
96.188
 11
5.25
 21
96
  0
LINE
  8
0
 10
5.25
 20
96
 11
5.23816
 21
95.812
  0
LINE
  8
0
 10
5.23816
 20
95.812
 11
5.20287
 21
95.627
  0
LINE
  8
0
 10
5.20287
 20
95.627
 11
5.14465
 21
95.4478
  0
LINE
  8
0
 10
5.14465
 20
95.4478
 11
5.06445
 21
95.2774
  0
LINE
  8
0
 10
5.06445
 20
95.2774
 11
4.96352
 21
95.1183
  0
LINE
  8
0
 10
4.96352
 20
95.1183
 11
4.84344
 21
94.9732
  0
LINE
  8
0
 10
4.84344
 20
94.9732
 11
4.70613
 21
94.8442
  0
LINE
  8
0
 10
4.70613
 20
94.8442
 11
4.55373
 21
94.7335
  0
LINE
  8
0
 10
4.55373
 20
94.7335
 11
4.38866
 21
94.6428
  0
LINE
  8
0
 10
4.38866
 20
94.6428
 11
4.21352
 21
94.5734
  0
LINE
  8
0
 10
4.21352
 20
94.5734
 11
4.03107
 21
94.5266
  0
LINE
  8
0
 10
4.03107
 20
94.5266
 11
3.84418
 21
94.503
  0
LINE
  8
0
 10
3.84418
 20
94.503
 11
3.65581
 21
94.503
  0
LINE
  8
0
 10
-26.3442
 20
94.503
 11
-26.5311
 21
94.5266
  0
LINE
  8
0
 10
-26.5311
 20
94.5266
 11
-26.7135
 21
94.5734
  0
LINE
  8
0
 10
-26.7135
 20
94.5734
 11
-26.8887
 21
94.6428
  0
LINE
  8
0
 10
-26.8887
 20
94.6428
 11
-27.0537
 21
94.7335
  0
LINE
  8
0
 10
-27.0537
 20
94.7335
 11
-27.2061
 21
94.8442
  0
LINE
  8
0
 10
-27.2061
 20
94.8442
 11
-27.3434
 21
94.9732
  0
LINE
  8
0
 10
-27.3434
 20
94.9732
 11
-27.4635
 21
95.1183
  0
LINE
  8
0
 10
-27.4635
 20
95.1183
 11
-27.5645
 21
95.2774
  0
LINE
  8
0
 10
-27.5645
 20
95.2774
 11
-27.6447
 21
95.4478
  0
LINE
  8
0
 10
-27.6447
 20
95.4478
 11
-27.7029
 21
95.627
  0
LINE
  8
0
 10
-27.7029
 20
95.627
 11
-27.7382
 21
95.812
  0
LINE
  8
0
 10
-27.7382
 20
95.812
 11
-27.75
 21
96
  0
LINE
  8
0
 10
-27.75
 20
96
 11
-27.7382
 21
96.188
  0
LINE
  8
0
 10
-27.7382
 20
96.188
 11
-27.7029
 21
96.373
  0
LINE
  8
0
 10
-27.7029
 20
96.373
 11
-27.6447
 21
96.5522
  0
LINE
  8
0
 10
-27.6447
 20
96.5522
 11
-27.5645
 21
96.7226
  0
LINE
  8
0
 10
-27.5645
 20
96.7226
 11
-27.4635
 21
96.8817
  0
LINE
  8
0
 10
-27.4635
 20
96.8817
 11
-27.3434
 21
97.0268
  0
LINE
  8
0
 10
-27.3434
 20
97.0268
 11
-27.2061
 21
97.1558
  0
LINE
  8
0
 10
-27.2061
 20
97.1558
 11
-27.0537
 21
97.2665
  0
LINE
  8
0
 10
-27.0537
 20
97.2665
 11
-26.8887
 21
97.3572
  0
LINE
  8
0
 10
-26.8887
 20
97.3572
 11
-26.7135
 21
97.4266
  0
LINE
  8
0
 10
-26.7135
 20
97.4266
 11
-26.5311
 21
97.4734
  0
LINE
  8
0
 10
-26.5311
 20
97.4734
 11
-26.3442
 21
97.497
  0
LINE
  8
0
 10
-26.3442
 20
97.497
 11
-26.1558
 21
97.497
  0
LINE
  8
0
 10
-26.1558
 20
97.497
 11
-25.9689
 21
97.4734
  0
LINE
  8
0
 10
-25.9689
 20
97.4734
 11
-25.7865
 21
97.4266
  0
LINE
  8
0
 10
-25.7865
 20
97.4266
 11
-25.6113
 21
97.3572
  0
LINE
  8
0
 10
-25.6113
 20
97.3572
 11
-25.4463
 21
97.2665
  0
LINE
  8
0
 10
-25.4463
 20
97.2665
 11
-25.2939
 21
97.1558
  0
LINE
  8
0
 10
-25.2939
 20
97.1558
 11
-25.1565
 21
97.0268
  0
LINE
  8
0
 10
-25.1565
 20
97.0268
 11
-25.0365
 21
96.8817
  0
LINE
  8
0
 10
-25.0365
 20
96.8817
 11
-24.9355
 21
96.7226
  0
LINE
  8
0
 10
-24.9355
 20
96.7226
 11
-24.8553
 21
96.5522
  0
LINE
  8
0
 10
-24.8553
 20
96.5522
 11
-24.7971
 21
96.373
  0
LINE
  8
0
 10
-24.7971
 20
96.373
 11
-24.7618
 21
96.188
  0
LINE
  8
0
 10
-24.7618
 20
96.188
 11
-24.75
 21
96
  0
LINE
  8
0
 10
-24.75
 20
96
 11
-24.7618
 21
95.812
  0
LINE
  8
0
 10
-24.7618
 20
95.812
 11
-24.7971
 21
95.627
  0
LINE
  8
0
 10
-24.7971
 20
95.627
 11
-24.8553
 21
95.4478
  0
LINE
  8
0
 10
-24.8553
 20
95.4478
 11
-24.9355
 21
95.2774
  0
LINE
  8
0
 10
-24.9355
 20
95.2774
 11
-25.0365
 21
95.1183
  0
LINE
  8
0
 10
-25.0365
 20
95.1183
 11
-25.1565
 21
94.9732
  0
LINE
  8
0
 10
-25.1565
 20
94.9732
 11
-25.2939
 21
94.8442
  0
LINE
  8
0
 10
-25.2939
 20
94.8442
 11
-25.4463
 21
94.7335
  0
LINE
  8
0
 10
-25.4463
 20
94.7335
 11
-25.6113
 21
94.6428
  0
LINE
  8
0
 10
-25.6113
 20
94.6428
 11
-25.7865
 21
94.5734
  0
LINE
  8
0
 10
-25.7865
 20
94.5734
 11
-25.9689
 21
94.5266
  0
LINE
  8
0
 10
-25.9689
 20
94.5266
 11
-26.1558
 21
94.503
  0
LINE
  8
0
 10
-26.1558
 20
94.503
 11
-26.3442
 21
94.503
  0
LINE
  8
0
 10
-18.8442
 20
94.503
 11
-19.0311
 21
94.5266
  0
LINE
  8
0
 10
-19.0311
 20
94.5266
 11
-19.2135
 21
94.5734
  0
LINE
  8
0
 10
-19.2135
 20
94.5734
 11
-19.3887
 21
94.6428
  0
LINE
  8
0
 10
-19.3887
 20
94.6428
 11
-19.5537
 21
94.7335
  0
LINE
  8
0
 10
-19.5537
 20
94.7335
 11
-19.7061
 21
94.8442
  0
LINE
  8
0
 10
-19.7061
 20
94.8442
 11
-19.8434
 21
94.9732
  0
LINE
  8
0
 10
-19.8434
 20
94.9732
 11
-19.9635
 21
95.1183
  0
LINE
  8
0
 10
-19.9635
 20
95.1183
 11
-20.0645
 21
95.2774
  0
LINE
  8
0
 10
-20.0645
 20
95.2774
 11
-20.1447
 21
95.4478
  0
LINE
  8
0
 10
-20.1447
 20
95.4478
 11
-20.2029
 21
95.627
  0
LINE
  8
0
 10
-20.2029
 20
95.627
 11
-20.2382
 21
95.812
  0
LINE
  8
0
 10
-20.2382
 20
95.812
 11
-20.25
 21
96
  0
LINE
  8
0
 10
-20.25
 20
96
 11
-20.2382
 21
96.188
  0
LINE
  8
0
 10
-20.2382
 20
96.188
 11
-20.2029
 21
96.373
  0
LINE
  8
0
 10
-20.2029
 20
96.373
 11
-20.1447
 21
96.5522
  0
LINE
  8
0
 10
-20.1447
 20
96.5522
 11
-20.0645
 21
96.7226
  0
LINE
  8
0
 10
-20.0645
 20
96.7226
 11
-19.9635
 21
96.8817
  0
LINE
  8
0
 10
-19.9635
 20
96.8817
 11
-19.8434
 21
97.0268
  0
LINE
  8
0
 10
-19.8434
 20
97.0268
 11
-19.7061
 21
97.1558
  0
LINE
  8
0
 10
-19.7061
 20
97.1558
 11
-19.5537
 21
97.2665
  0
LINE
  8
0
 10
-19.5537
 20
97.2665
 11
-19.3887
 21
97.3572
  0
LINE
  8
0
 10
-19.3887
 20
97.3572
 11
-19.2135
 21
97.4266
  0
LINE
  8
0
 10
-19.2135
 20
97.4266
 11
-19.0311
 21
97.4734
  0
LINE
  8
0
 10
-19.0311
 20
97.4734
 11
-18.8442
 21
97.497
  0
LINE
  8
0
 10
-18.8442
 20
97.497
 11
-18.6558
 21
97.497
  0
LINE
  8
0
 10
-18.6558
 20
97.497
 11
-18.4689
 21
97.4734
  0
LINE
  8
0
 10
-18.4689
 20
97.4734
 11
-18.2865
 21
97.4266
  0
LINE
  8
0
 10
-18.2865
 20
97.4266
 11
-18.1113
 21
97.3572
  0
LINE
  8
0
 10
-18.1113
 20
97.3572
 11
-17.9463
 21
97.2665
  0
LINE
  8
0
 10
-17.9463
 20
97.2665
 11
-17.7939
 21
97.1558
  0
LINE
  8
0
 10
-17.7939
 20
97.1558
 11
-17.6565
 21
97.0268
  0
LINE
  8
0
 10
-17.6565
 20
97.0268
 11
-17.5365
 21
96.8817
  0
LINE
  8
0
 10
-17.5365
 20
96.8817
 11
-17.4355
 21
96.7226
  0
LINE
  8
0
 10
-17.4355
 20
96.7226
 11
-17.3553
 21
96.5522
  0
LINE
  8
0
 10
-17.3553
 20
96.5522
 11
-17.2971
 21
96.373
  0
LINE
  8
0
 10
-17.2971
 20
96.373
 11
-17.2618
 21
96.188
  0
LINE
  8
0
 10
-17.2618
 20
96.188
 11
-17.25
 21
96
  0
LINE
  8
0
 10
-17.25
 20
96
 11
-17.2618
 21
95.812
  0
LINE
  8
0
 10
-17.2618
 20
95.812
 11
-17.2971
 21
95.627
  0
LINE
  8
0
 10
-17.2971
 20
95.627
 11
-17.3553
 21
95.4478
  0
LINE
  8
0
 10
-17.3553
 20
95.4478
 11
-17.4355
 21
95.2774
  0
LINE
  8
0
 10
-17.4355
 20
95.2774
 11
-17.5365
 21
95.1183
  0
LINE
  8
0
 10
-17.5365
 20
95.1183
 11
-17.6565
 21
94.9732
  0
LINE
  8
0
 10
-17.6565
 20
94.9732
 11
-17.7939
 21
94.8442
  0
LINE
  8
0
 10
-17.7939
 20
94.8442
 11
-17.9463
 21
94.7335
  0
LINE
  8
0
 10
-17.9463
 20
94.7335
 11
-18.1113
 21
94.6428
  0
LINE
  8
0
 10
-18.1113
 20
94.6428
 11
-18.2865
 21
94.5734
  0
LINE
  8
0
 10
-18.2865
 20
94.5734
 11
-18.4689
 21
94.5266
  0
LINE
  8
0
 10
-18.4689
 20
94.5266
 11
-18.6558
 21
94.503
  0
LINE
  8
0
 10
-18.6558
 20
94.503
 11
-18.8442
 21
94.503
  0
LINE
  8
0
 10
-11.3442
 20
94.503
 11
-11.5311
 21
94.5266
  0
LINE
  8
0
 10
-11.5311
 20
94.5266
 11
-11.7135
 21
94.5734
  0
LINE
  8
0
 10
-11.7135
 20
94.5734
 11
-11.8887
 21
94.6428
  0
LINE
  8
0
 10
-11.8887
 20
94.6428
 11
-12.0537
 21
94.7335
  0
LINE
  8
0
 10
-12.0537
 20
94.7335
 11
-12.2061
 21
94.8442
  0
LINE
  8
0
 10
-12.2061
 20
94.8442
 11
-12.3434
 21
94.9732
  0
LINE
  8
0
 10
-12.3434
 20
94.9732
 11
-12.4635
 21
95.1183
  0
LINE
  8
0
 10
-12.4635
 20
95.1183
 11
-12.5645
 21
95.2774
  0
LINE
  8
0
 10
-12.5645
 20
95.2774
 11
-12.6447
 21
95.4478
  0
LINE
  8
0
 10
-12.6447
 20
95.4478
 11
-12.7029
 21
95.627
  0
LINE
  8
0
 10
-12.7029
 20
95.627
 11
-12.7382
 21
95.812
  0
LINE
  8
0
 10
-12.7382
 20
95.812
 11
-12.75
 21
96
  0
LINE
  8
0
 10
-12.75
 20
96
 11
-12.7382
 21
96.188
  0
LINE
  8
0
 10
-12.7382
 20
96.188
 11
-12.7029
 21
96.373
  0
LINE
  8
0
 10
-12.7029
 20
96.373
 11
-12.6447
 21
96.5522
  0
LINE
  8
0
 10
-12.6447
 20
96.5522
 11
-12.5645
 21
96.7226
  0
LINE
  8
0
 10
-12.5645
 20
96.7226
 11
-12.4635
 21
96.8817
  0
LINE
  8
0
 10
-12.4635
 20
96.8817
 11
-12.3434
 21
97.0268
  0
LINE
  8
0
 10
-12.3434
 20
97.0268
 11
-12.2061
 21
97.1558
  0
LINE
  8
0
 10
-12.2061
 20
97.1558
 11
-12.0537
 21
97.2665
  0
LINE
  8
0
 10
-12.0537
 20
97.2665
 11
-11.8887
 21
97.3572
  0
LINE
  8
0
 10
-11.8887
 20
97.3572
 11
-11.7135
 21
97.4266
  0
LINE
  8
0
 10
-11.7135
 20
97.4266
 11
-11.5311
 21
97.4734
  0
LINE
  8
0
 10
-11.5311
 20
97.4734
 11
-11.3442
 21
97.497
  0
LINE
  8
0
 10
-11.3442
 20
97.497
 11
-11.1558
 21
97.497
  0
LINE
  8
0
 10
-11.1558
 20
97.497
 11
-10.9689
 21
97.4734
  0
LINE
  8
0
 10
-10.9689
 20
97.4734
 11
-10.7865
 21
97.4266
  0
LINE
  8
0
 10
-10.7865
 20
97.4266
 11
-10.6113
 21
97.3572
  0
LINE
  8
0
 10
-10.6113
 20
97.3572
 11
-10.4463
 21
97.2665
  0
LINE
  8
0
 10
-10.4463
 20
97.2665
 11
-10.2939
 21
97.1558
  0
LINE
  8
0
 10
-10.2939
 20
97.1558
 11
-10.1565
 21
97.0268
  0
LINE
  8
0
 10
-10.1565
 20
97.0268
 11
-10.0365
 21
96.8817
  0
LINE
  8
0
 10
-10.0365
 20
96.8817
 11
-9.93553
 21
96.7226
  0
LINE
  8
0
 10
-9.93553
 20
96.7226
 11
-9.85533
 21
96.5522
  0
LINE
  8
0
 10
-9.85533
 20
96.5522
 11
-9.79712
 21
96.373
  0
LINE
  8
0
 10
-9.79712
 20
96.373
 11
-9.76183
 21
96.188
  0
LINE
  8
0
 10
-9.76183
 20
96.188
 11
-9.75
 21
96
  0
LINE
  8
0
 10
-9.75
 20
96
 11
-9.76183
 21
95.812
  0
LINE
  8
0
 10
-9.76183
 20
95.812
 11
-9.79712
 21
95.627
  0
LINE
  8
0
 10
-9.79712
 20
95.627
 11
-9.85533
 21
95.4478
  0
LINE
  8
0
 10
-9.85533
 20
95.4478
 11
-9.93553
 21
95.2774
  0
LINE
  8
0
 10
-9.93553
 20
95.2774
 11
-10.0365
 21
95.1183
  0
LINE
  8
0
 10
-10.0365
 20
95.1183
 11
-10.1565
 21
94.9732
  0
LINE
  8
0
 10
-10.1565
 20
94.9732
 11
-10.2939
 21
94.8442
  0
LINE
  8
0
 10
-10.2939
 20
94.8442
 11
-10.4463
 21
94.7335
  0
LINE
  8
0
 10
-10.4463
 20
94.7335
 11
-10.6113
 21
94.6428
  0
LINE
  8
0
 10
-10.6113
 20
94.6428
 11
-10.7865
 21
94.5734
  0
LINE
  8
0
 10
-10.7865
 20
94.5734
 11
-10.9689
 21
94.5266
  0
LINE
  8
0
 10
-10.9689
 20
94.5266
 11
-11.1558
 21
94.503
  0
LINE
  8
0
 10
-11.1558
 20
94.503
 11
-11.3442
 21
94.503
  0
LINE
  8
0
 10
42.7184
 20
68.5443
 11
43.0225
 21
68.6224
  0
LINE
  8
0
 10
43.0225
 20
68.6224
 11
43.3144
 21
68.7379
  0
LINE
  8
0
 10
43.3144
 20
68.7379
 11
43.5896
 21
68.8892
  0
LINE
  8
0
 10
43.5896
 20
68.8892
 11
43.8436
 21
69.0737
  0
LINE
  8
0
 10
43.8436
 20
69.0737
 11
44.0724
 21
69.2886
  0
LINE
  8
0
 10
44.0724
 20
69.2886
 11
44.2725
 21
69.5305
  0
LINE
  8
0
 10
44.2725
 20
69.5305
 11
44.4408
 21
69.7956
  0
LINE
  8
0
 10
44.4408
 20
69.7956
 11
44.5744
 21
70.0797
  0
LINE
  8
0
 10
44.5744
 20
70.0797
 11
44.6714
 21
70.3783
  0
LINE
  8
0
 10
44.6714
 20
70.3783
 11
44.7303
 21
70.6867
  0
LINE
  8
0
 10
44.7303
 20
70.6867
 11
44.75
 21
71
  0
LINE
  8
0
 10
44.75
 20
71
 11
44.75
 21
73
  0
LINE
  8
0
 10
44.75
 20
73
 11
44.7303
 21
73.3133
  0
LINE
  8
0
 10
44.7303
 20
73.3133
 11
44.6714
 21
73.6217
  0
LINE
  8
0
 10
44.6714
 20
73.6217
 11
44.5744
 21
73.9203
  0
LINE
  8
0
 10
44.5744
 20
73.9203
 11
44.4408
 21
74.2044
  0
LINE
  8
0
 10
44.4408
 20
74.2044
 11
44.2725
 21
74.4695
  0
LINE
  8
0
 10
44.2725
 20
74.4695
 11
44.0724
 21
74.7114
  0
LINE
  8
0
 10
44.0724
 20
74.7114
 11
43.8436
 21
74.9263
  0
LINE
  8
0
 10
43.8436
 20
74.9263
 11
43.5896
 21
75.1108
  0
LINE
  8
0
 10
43.5896
 20
75.1108
 11
43.3144
 21
75.2621
  0
LINE
  8
0
 10
43.3144
 20
75.2621
 11
43.0225
 21
75.3776
  0
LINE
  8
0
 10
43.0225
 20
75.3776
 11
42.7184
 21
75.4557
  0
LINE
  8
0
 10
42.7184
 20
75.4557
 11
42.407
 21
75.4951
  0
LINE
  8
0
 10
42.407
 20
75.4951
 11
-42.407
 21
75.4951
  0
LINE
  8
0
 10
-42.407
 20
75.4951
 11
-42.7184
 21
75.4557
  0
LINE
  8
0
 10
-42.7184
 20
75.4557
 11
-43.0225
 21
75.3776
  0
LINE
  8
0
 10
-43.0225
 20
75.3776
 11
-43.3144
 21
75.2621
  0
LINE
  8
0
 10
-43.3144
 20
75.2621
 11
-43.5896
 21
75.1108
  0
LINE
  8
0
 10
-43.5896
 20
75.1108
 11
-43.8436
 21
74.9263
  0
LINE
  8
0
 10
-43.8436
 20
74.9263
 11
-44.0724
 21
74.7114
  0
LINE
  8
0
 10
-44.0724
 20
74.7114
 11
-44.2725
 21
74.4695
  0
LINE
  8
0
 10
-44.2725
 20
74.4695
 11
-44.4408
 21
74.2044
  0
LINE
  8
0
 10
-44.4408
 20
74.2044
 11
-44.5744
 21
73.9203
  0
LINE
  8
0
 10
-44.5744
 20
73.9203
 11
-44.6714
 21
73.6217
  0
LINE
  8
0
 10
-44.6714
 20
73.6217
 11
-44.7303
 21
73.3133
  0
LINE
  8
0
 10
-44.7303
 20
73.3133
 11
-44.75
 21
73
  0
LINE
  8
0
 10
-44.75
 20
73
 11
-44.75
 21
71
  0
LINE
  8
0
 10
-44.75
 20
71
 11
-44.7303
 21
70.6867
  0
LINE
  8
0
 10
-44.7303
 20
70.6867
 11
-44.6714
 21
70.3783
  0
LINE
  8
0
 10
-44.6714
 20
70.3783
 11
-44.5744
 21
70.0797
  0
LINE
  8
0
 10
-44.5744
 20
70.0797
 11
-44.4408
 21
69.7956
  0
LINE
  8
0
 10
-44.4408
 20
69.7956
 11
-44.2725
 21
69.5305
  0
LINE
  8
0
 10
-44.2725
 20
69.5305
 11
-44.0724
 21
69.2886
  0
LINE
  8
0
 10
-44.0724
 20
69.2886
 11
-43.8436
 21
69.0737
  0
LINE
  8
0
 10
-43.8436
 20
69.0737
 11
-43.5896
 21
68.8892
  0
LINE
  8
0
 10
-43.5896
 20
68.8892
 11
-43.3144
 21
68.7379
  0
LINE
  8
0
 10
-43.3144
 20
68.7379
 11
-43.0225
 21
68.6224
  0
LINE
  8
0
 10
-43.0225
 20
68.6224
 11
-42.7184
 21
68.5443
  0
LINE
  8
0
 10
-42.7184
 20
68.5443
 11
-42.407
 21
68.5049
  0
LINE
  8
0
 10
-42.407
 20
68.5049
 11
42.407
 21
68.5049
  0
LINE
  8
0
 10
42.407
 20
68.5049
 11
42.7184
 21
68.5443
  0
LINE
  8
0
 10
33.6558
 20
70.503
 11
33.4689
 21
70.5266
  0
LINE
  8
0
 10
33.4689
 20
70.5266
 11
33.2865
 21
70.5734
  0
LINE
  8
0
 10
33.2865
 20
70.5734
 11
33.1113
 21
70.6428
  0
LINE
  8
0
 10
33.1113
 20
70.6428
 11
32.9463
 21
70.7335
  0
LINE
  8
0
 10
32.9463
 20
70.7335
 11
32.7939
 21
70.8442
  0
LINE
  8
0
 10
32.7939
 20
70.8442
 11
32.6565
 21
70.9732
  0
LINE
  8
0
 10
32.6565
 20
70.9732
 11
32.5365
 21
71.1183
  0
LINE
  8
0
 10
32.5365
 20
71.1183
 11
32.4355
 21
71.2774
  0
LINE
  8
0
 10
32.4355
 20
71.2774
 11
32.3553
 21
71.4478
  0
LINE
  8
0
 10
32.3553
 20
71.4478
 11
32.2971
 21
71.627
  0
LINE
  8
0
 10
32.2971
 20
71.627
 11
32.2618
 21
71.812
  0
LINE
  8
0
 10
32.2618
 20
71.812
 11
32.25
 21
72
  0
LINE
  8
0
 10
32.25
 20
72
 11
32.2618
 21
72.188
  0
LINE
  8
0
 10
32.2618
 20
72.188
 11
32.2971
 21
72.373
  0
LINE
  8
0
 10
32.2971
 20
72.373
 11
32.3553
 21
72.5522
  0
LINE
  8
0
 10
32.3553
 20
72.5522
 11
32.4355
 21
72.7226
  0
LINE
  8
0
 10
32.4355
 20
72.7226
 11
32.5365
 21
72.8817
  0
LINE
  8
0
 10
32.5365
 20
72.8817
 11
32.6565
 21
73.0268
  0
LINE
  8
0
 10
32.6565
 20
73.0268
 11
32.7939
 21
73.1558
  0
LINE
  8
0
 10
32.7939
 20
73.1558
 11
32.9463
 21
73.2665
  0
LINE
  8
0
 10
32.9463
 20
73.2665
 11
33.1113
 21
73.3572
  0
LINE
  8
0
 10
33.1113
 20
73.3572
 11
33.2865
 21
73.4266
  0
LINE
  8
0
 10
33.2865
 20
73.4266
 11
33.4689
 21
73.4734
  0
LINE
  8
0
 10
33.4689
 20
73.4734
 11
33.6558
 21
73.497
  0
LINE
  8
0
 10
33.6558
 20
73.497
 11
33.8442
 21
73.497
  0
LINE
  8
0
 10
33.8442
 20
73.497
 11
34.0311
 21
73.4734
  0
LINE
  8
0
 10
34.0311
 20
73.4734
 11
34.2135
 21
73.4266
  0
LINE
  8
0
 10
34.2135
 20
73.4266
 11
34.3887
 21
73.3572
  0
LINE
  8
0
 10
34.3887
 20
73.3572
 11
34.5537
 21
73.2665
  0
LINE
  8
0
 10
34.5537
 20
73.2665
 11
34.7061
 21
73.1558
  0
LINE
  8
0
 10
34.7061
 20
73.1558
 11
34.8434
 21
73.0268
  0
LINE
  8
0
 10
34.8434
 20
73.0268
 11
34.9635
 21
72.8817
  0
LINE
  8
0
 10
34.9635
 20
72.8817
 11
35.0645
 21
72.7226
  0
LINE
  8
0
 10
35.0645
 20
72.7226
 11
35.1447
 21
72.5522
  0
LINE
  8
0
 10
35.1447
 20
72.5522
 11
35.2029
 21
72.373
  0
LINE
  8
0
 10
35.2029
 20
72.373
 11
35.2382
 21
72.188
  0
LINE
  8
0
 10
35.2382
 20
72.188
 11
35.25
 21
72
  0
LINE
  8
0
 10
35.25
 20
72
 11
35.2382
 21
71.812
  0
LINE
  8
0
 10
35.2382
 20
71.812
 11
35.2029
 21
71.627
  0
LINE
  8
0
 10
35.2029
 20
71.627
 11
35.1447
 21
71.4478
  0
LINE
  8
0
 10
35.1447
 20
71.4478
 11
35.0645
 21
71.2774
  0
LINE
  8
0
 10
35.0645
 20
71.2774
 11
34.9635
 21
71.1183
  0
LINE
  8
0
 10
34.9635
 20
71.1183
 11
34.8434
 21
70.9732
  0
LINE
  8
0
 10
34.8434
 20
70.9732
 11
34.7061
 21
70.8442
  0
LINE
  8
0
 10
34.7061
 20
70.8442
 11
34.5537
 21
70.7335
  0
LINE
  8
0
 10
34.5537
 20
70.7335
 11
34.3887
 21
70.6428
  0
LINE
  8
0
 10
34.3887
 20
70.6428
 11
34.2135
 21
70.5734
  0
LINE
  8
0
 10
34.2135
 20
70.5734
 11
34.0311
 21
70.5266
  0
LINE
  8
0
 10
34.0311
 20
70.5266
 11
33.8442
 21
70.503
  0
LINE
  8
0
 10
33.8442
 20
70.503
 11
33.6558
 21
70.503
  0
LINE
  8
0
 10
41.1558
 20
70.503
 11
40.9689
 21
70.5266
  0
LINE
  8
0
 10
40.9689
 20
70.5266
 11
40.7865
 21
70.5734
  0
LINE
  8
0
 10
40.7865
 20
70.5734
 11
40.6113
 21
70.6428
  0
LINE
  8
0
 10
40.6113
 20
70.6428
 11
40.4463
 21
70.7335
  0
LINE
  8
0
 10
40.4463
 20
70.7335
 11
40.2939
 21
70.8442
  0
LINE
  8
0
 10
40.2939
 20
70.8442
 11
40.1565
 21
70.9732
  0
LINE
  8
0
 10
40.1565
 20
70.9732
 11
40.0365
 21
71.1183
  0
LINE
  8
0
 10
40.0365
 20
71.1183
 11
39.9355
 21
71.2774
  0
LINE
  8
0
 10
39.9355
 20
71.2774
 11
39.8553
 21
71.4478
  0
LINE
  8
0
 10
39.8553
 20
71.4478
 11
39.7971
 21
71.627
  0
LINE
  8
0
 10
39.7971
 20
71.627
 11
39.7618
 21
71.812
  0
LINE
  8
0
 10
39.7618
 20
71.812
 11
39.75
 21
72
  0
LINE
  8
0
 10
39.75
 20
72
 11
39.7618
 21
72.188
  0
LINE
  8
0
 10
39.7618
 20
72.188
 11
39.7971
 21
72.373
  0
LINE
  8
0
 10
39.7971
 20
72.373
 11
39.8553
 21
72.5522
  0
LINE
  8
0
 10
39.8553
 20
72.5522
 11
39.9355
 21
72.7226
  0
LINE
  8
0
 10
39.9355
 20
72.7226
 11
40.0365
 21
72.8817
  0
LINE
  8
0
 10
40.0365
 20
72.8817
 11
40.1565
 21
73.0268
  0
LINE
  8
0
 10
40.1565
 20
73.0268
 11
40.2939
 21
73.1558
  0
LINE
  8
0
 10
40.2939
 20
73.1558
 11
40.4463
 21
73.2665
  0
LINE
  8
0
 10
40.4463
 20
73.2665
 11
40.6113
 21
73.3572
  0
LINE
  8
0
 10
40.6113
 20
73.3572
 11
40.7865
 21
73.4266
  0
LINE
  8
0
 10
40.7865
 20
73.4266
 11
40.9689
 21
73.4734
  0
LINE
  8
0
 10
40.9689
 20
73.4734
 11
41.1558
 21
73.497
  0
LINE
  8
0
 10
41.1558
 20
73.497
 11
41.3442
 21
73.497
  0
LINE
  8
0
 10
41.3442
 20
73.497
 11
41.5311
 21
73.4734
  0
LINE
  8
0
 10
41.5311
 20
73.4734
 11
41.7135
 21
73.4266
  0
LINE
  8
0
 10
41.7135
 20
73.4266
 11
41.8887
 21
73.3572
  0
LINE
  8
0
 10
41.8887
 20
73.3572
 11
42.0537
 21
73.2665
  0
LINE
  8
0
 10
42.0537
 20
73.2665
 11
42.2061
 21
73.1558
  0
LINE
  8
0
 10
42.2061
 20
73.1558
 11
42.3434
 21
73.0268
  0
LINE
  8
0
 10
42.3434
 20
73.0268
 11
42.4635
 21
72.8817
  0
LINE
  8
0
 10
42.4635
 20
72.8817
 11
42.5645
 21
72.7226
  0
LINE
  8
0
 10
42.5645
 20
72.7226
 11
42.6447
 21
72.5522
  0
LINE
  8
0
 10
42.6447
 20
72.5522
 11
42.7029
 21
72.373
  0
LINE
  8
0
 10
42.7029
 20
72.373
 11
42.7382
 21
72.188
  0
LINE
  8
0
 10
42.7382
 20
72.188
 11
42.75
 21
72
  0
LINE
  8
0
 10
42.75
 20
72
 11
42.7382
 21
71.812
  0
LINE
  8
0
 10
42.7382
 20
71.812
 11
42.7029
 21
71.627
  0
LINE
  8
0
 10
42.7029
 20
71.627
 11
42.6447
 21
71.4478
  0
LINE
  8
0
 10
42.6447
 20
71.4478
 11
42.5645
 21
71.2774
  0
LINE
  8
0
 10
42.5645
 20
71.2774
 11
42.4635
 21
71.1183
  0
LINE
  8
0
 10
42.4635
 20
71.1183
 11
42.3434
 21
70.9732
  0
LINE
  8
0
 10
42.3434
 20
70.9732
 11
42.2061
 21
70.8442
  0
LINE
  8
0
 10
42.2061
 20
70.8442
 11
42.0537
 21
70.7335
  0
LINE
  8
0
 10
42.0537
 20
70.7335
 11
41.8887
 21
70.6428
  0
LINE
  8
0
 10
41.8887
 20
70.6428
 11
41.7135
 21
70.5734
  0
LINE
  8
0
 10
41.7135
 20
70.5734
 11
41.5311
 21
70.5266
  0
LINE
  8
0
 10
41.5311
 20
70.5266
 11
41.3442
 21
70.503
  0
LINE
  8
0
 10
41.3442
 20
70.503
 11
41.1558
 21
70.503
  0
LINE
  8
0
 10
-41.3442
 20
70.503
 11
-41.5311
 21
70.5266
  0
LINE
  8
0
 10
-41.5311
 20
70.5266
 11
-41.7135
 21
70.5734
  0
LINE
  8
0
 10
-41.7135
 20
70.5734
 11
-41.8887
 21
70.6428
  0
LINE
  8
0
 10
-41.8887
 20
70.6428
 11
-42.0537
 21
70.7335
  0
LINE
  8
0
 10
-42.0537
 20
70.7335
 11
-42.2061
 21
70.8442
  0
LINE
  8
0
 10
-42.2061
 20
70.8442
 11
-42.3434
 21
70.9732
  0
LINE
  8
0
 10
-42.3434
 20
70.9732
 11
-42.4635
 21
71.1183
  0
LINE
  8
0
 10
-42.4635
 20
71.1183
 11
-42.5645
 21
71.2774
  0
LINE
  8
0
 10
-42.5645
 20
71.2774
 11
-42.6447
 21
71.4478
  0
LINE
  8
0
 10
-42.6447
 20
71.4478
 11
-42.7029
 21
71.627
  0
LINE
  8
0
 10
-42.7029
 20
71.627
 11
-42.7382
 21
71.812
  0
LINE
  8
0
 10
-42.7382
 20
71.812
 11
-42.75
 21
72
  0
LINE
  8
0
 10
-42.75
 20
72
 11
-42.7382
 21
72.188
  0
LINE
  8
0
 10
-42.7382
 20
72.188
 11
-42.7029
 21
72.373
  0
LINE
  8
0
 10
-42.7029
 20
72.373
 11
-42.6447
 21
72.5522
  0
LINE
  8
0
 10
-42.6447
 20
72.5522
 11
-42.5645
 21
72.7226
  0
LINE
  8
0
 10
-42.5645
 20
72.7226
 11
-42.4635
 21
72.8817
  0
LINE
  8
0
 10
-42.4635
 20
72.8817
 11
-42.3434
 21
73.0268
  0
LINE
  8
0
 10
-42.3434
 20
73.0268
 11
-42.2061
 21
73.1558
  0
LINE
  8
0
 10
-42.2061
 20
73.1558
 11
-42.0537
 21
73.2665
  0
LINE
  8
0
 10
-42.0537
 20
73.2665
 11
-41.8887
 21
73.3572
  0
LINE
  8
0
 10
-41.8887
 20
73.3572
 11
-41.7135
 21
73.4266
  0
LINE
  8
0
 10
-41.7135
 20
73.4266
 11
-41.5311
 21
73.4734
  0
LINE
  8
0
 10
-41.5311
 20
73.4734
 11
-41.3442
 21
73.497
  0
LINE
  8
0
 10
-41.3442
 20
73.497
 11
-41.1558
 21
73.497
  0
LINE
  8
0
 10
-41.1558
 20
73.497
 11
-40.9689
 21
73.4734
  0
LINE
  8
0
 10
-40.9689
 20
73.4734
 11
-40.7865
 21
73.4266
  0
LINE
  8
0
 10
-40.7865
 20
73.4266
 11
-40.6113
 21
73.3572
  0
LINE
  8
0
 10
-40.6113
 20
73.3572
 11
-40.4463
 21
73.2665
  0
LINE
  8
0
 10
-40.4463
 20
73.2665
 11
-40.2939
 21
73.1558
  0
LINE
  8
0
 10
-40.2939
 20
73.1558
 11
-40.1565
 21
73.0268
  0
LINE
  8
0
 10
-40.1565
 20
73.0268
 11
-40.0365
 21
72.8817
  0
LINE
  8
0
 10
-40.0365
 20
72.8817
 11
-39.9355
 21
72.7226
  0
LINE
  8
0
 10
-39.9355
 20
72.7226
 11
-39.8553
 21
72.5522
  0
LINE
  8
0
 10
-39.8553
 20
72.5522
 11
-39.7971
 21
72.373
  0
LINE
  8
0
 10
-39.7971
 20
72.373
 11
-39.7618
 21
72.188
  0
LINE
  8
0
 10
-39.7618
 20
72.188
 11
-39.75
 21
72
  0
LINE
  8
0
 10
-39.75
 20
72
 11
-39.7618
 21
71.812
  0
LINE
  8
0
 10
-39.7618
 20
71.812
 11
-39.7971
 21
71.627
  0
LINE
  8
0
 10
-39.7971
 20
71.627
 11
-39.8553
 21
71.4478
  0
LINE
  8
0
 10
-39.8553
 20
71.4478
 11
-39.9355
 21
71.2774
  0
LINE
  8
0
 10
-39.9355
 20
71.2774
 11
-40.0365
 21
71.1183
  0
LINE
  8
0
 10
-40.0365
 20
71.1183
 11
-40.1565
 21
70.9732
  0
LINE
  8
0
 10
-40.1565
 20
70.9732
 11
-40.2939
 21
70.8442
  0
LINE
  8
0
 10
-40.2939
 20
70.8442
 11
-40.4463
 21
70.7335
  0
LINE
  8
0
 10
-40.4463
 20
70.7335
 11
-40.6113
 21
70.6428
  0
LINE
  8
0
 10
-40.6113
 20
70.6428
 11
-40.7865
 21
70.5734
  0
LINE
  8
0
 10
-40.7865
 20
70.5734
 11
-40.9689
 21
70.5266
  0
LINE
  8
0
 10
-40.9689
 20
70.5266
 11
-41.1558
 21
70.503
  0
LINE
  8
0
 10
-41.1558
 20
70.503
 11
-41.3442
 21
70.503
  0
LINE
  8
0
 10
3.65581
 20
70.503
 11
3.46892
 21
70.5266
  0
LINE
  8
0
 10
3.46892
 20
70.5266
 11
3.28647
 21
70.5734
  0
LINE
  8
0
 10
3.28647
 20
70.5734
 11
3.11133
 21
70.6428
  0
LINE
  8
0
 10
3.11133
 20
70.6428
 11
2.94626
 21
70.7335
  0
LINE
  8
0
 10
2.94626
 20
70.7335
 11
2.79385
 21
70.8442
  0
LINE
  8
0
 10
2.79385
 20
70.8442
 11
2.65654
 21
70.9732
  0
LINE
  8
0
 10
2.65654
 20
70.9732
 11
2.53647
 21
71.1183
  0
LINE
  8
0
 10
2.53647
 20
71.1183
 11
2.43553
 21
71.2774
  0
LINE
  8
0
 10
2.43553
 20
71.2774
 11
2.35533
 21
71.4478
  0
LINE
  8
0
 10
2.35533
 20
71.4478
 11
2.29712
 21
71.627
  0
LINE
  8
0
 10
2.29712
 20
71.627
 11
2.26183
 21
71.812
  0
LINE
  8
0
 10
2.26183
 20
71.812
 11
2.25
 21
72
  0
LINE
  8
0
 10
2.25
 20
72
 11
2.26183
 21
72.188
  0
LINE
  8
0
 10
2.26183
 20
72.188
 11
2.29712
 21
72.373
  0
LINE
  8
0
 10
2.29712
 20
72.373
 11
2.35533
 21
72.5522
  0
LINE
  8
0
 10
2.35533
 20
72.5522
 11
2.43553
 21
72.7226
  0
LINE
  8
0
 10
2.43553
 20
72.7226
 11
2.53647
 21
72.8817
  0
LINE
  8
0
 10
2.53647
 20
72.8817
 11
2.65654
 21
73.0268
  0
LINE
  8
0
 10
2.65654
 20
73.0268
 11
2.79385
 21
73.1558
  0
LINE
  8
0
 10
2.79385
 20
73.1558
 11
2.94626
 21
73.2665
  0
LINE
  8
0
 10
2.94626
 20
73.2665
 11
3.11133
 21
73.3572
  0
LINE
  8
0
 10
3.11133
 20
73.3572
 11
3.28647
 21
73.4266
  0
LINE
  8
0
 10
3.28647
 20
73.4266
 11
3.46892
 21
73.4734
  0
LINE
  8
0
 10
3.46892
 20
73.4734
 11
3.65581
 21
73.497
  0
LINE
  8
0
 10
3.65581
 20
73.497
 11
3.84418
 21
73.497
  0
LINE
  8
0
 10
3.84418
 20
73.497
 11
4.03107
 21
73.4734
  0
LINE
  8
0
 10
4.03107
 20
73.4734
 11
4.21352
 21
73.4266
  0
LINE
  8
0
 10
4.21352
 20
73.4266
 11
4.38866
 21
73.3572
  0
LINE
  8
0
 10
4.38866
 20
73.3572
 11
4.55373
 21
73.2665
  0
LINE
  8
0
 10
4.55373
 20
73.2665
 11
4.70613
 21
73.1558
  0
LINE
  8
0
 10
4.70613
 20
73.1558
 11
4.84344
 21
73.0268
  0
LINE
  8
0
 10
4.84344
 20
73.0268
 11
4.96352
 21
72.8817
  0
LINE
  8
0
 10
4.96352
 20
72.8817
 11
5.06445
 21
72.7226
  0
LINE
  8
0
 10
5.06445
 20
72.7226
 11
5.14465
 21
72.5522
  0
LINE
  8
0
 10
5.14465
 20
72.5522
 11
5.20287
 21
72.373
  0
LINE
  8
0
 10
5.20287
 20
72.373
 11
5.23816
 21
72.188
  0
LINE
  8
0
 10
5.23816
 20
72.188
 11
5.25
 21
72
  0
LINE
  8
0
 10
5.25
 20
72
 11
5.23816
 21
71.812
  0
LINE
  8
0
 10
5.23816
 20
71.812
 11
5.20287
 21
71.627
  0
LINE
  8
0
 10
5.20287
 20
71.627
 11
5.14465
 21
71.4478
  0
LINE
  8
0
 10
5.14465
 20
71.4478
 11
5.06445
 21
71.2774
  0
LINE
  8
0
 10
5.06445
 20
71.2774
 11
4.96352
 21
71.1183
  0
LINE
  8
0
 10
4.96352
 20
71.1183
 11
4.84344
 21
70.9732
  0
LINE
  8
0
 10
4.84344
 20
70.9732
 11
4.70613
 21
70.8442
  0
LINE
  8
0
 10
4.70613
 20
70.8442
 11
4.55373
 21
70.7335
  0
LINE
  8
0
 10
4.55373
 20
70.7335
 11
4.38866
 21
70.6428
  0
LINE
  8
0
 10
4.38866
 20
70.6428
 11
4.21352
 21
70.5734
  0
LINE
  8
0
 10
4.21352
 20
70.5734
 11
4.03107
 21
70.5266
  0
LINE
  8
0
 10
4.03107
 20
70.5266
 11
3.84418
 21
70.503
  0
LINE
  8
0
 10
3.84418
 20
70.503
 11
3.65581
 21
70.503
  0
LINE
  8
0
 10
-11.3442
 20
70.503
 11
-11.5311
 21
70.5266
  0
LINE
  8
0
 10
-11.5311
 20
70.5266
 11
-11.7135
 21
70.5734
  0
LINE
  8
0
 10
-11.7135
 20
70.5734
 11
-11.8887
 21
70.6428
  0
LINE
  8
0
 10
-11.8887
 20
70.6428
 11
-12.0537
 21
70.7335
  0
LINE
  8
0
 10
-12.0537
 20
70.7335
 11
-12.2061
 21
70.8442
  0
LINE
  8
0
 10
-12.2061
 20
70.8442
 11
-12.3434
 21
70.9732
  0
LINE
  8
0
 10
-12.3434
 20
70.9732
 11
-12.4635
 21
71.1183
  0
LINE
  8
0
 10
-12.4635
 20
71.1183
 11
-12.5645
 21
71.2774
  0
LINE
  8
0
 10
-12.5645
 20
71.2774
 11
-12.6447
 21
71.4478
  0
LINE
  8
0
 10
-12.6447
 20
71.4478
 11
-12.7029
 21
71.627
  0
LINE
  8
0
 10
-12.7029
 20
71.627
 11
-12.7382
 21
71.812
  0
LINE
  8
0
 10
-12.7382
 20
71.812
 11
-12.75
 21
72
  0
LINE
  8
0
 10
-12.75
 20
72
 11
-12.7382
 21
72.188
  0
LINE
  8
0
 10
-12.7382
 20
72.188
 11
-12.7029
 21
72.373
  0
LINE
  8
0
 10
-12.7029
 20
72.373
 11
-12.6447
 21
72.5522
  0
LINE
  8
0
 10
-12.6447
 20
72.5522
 11
-12.5645
 21
72.7226
  0
LINE
  8
0
 10
-12.5645
 20
72.7226
 11
-12.4635
 21
72.8817
  0
LINE
  8
0
 10
-12.4635
 20
72.8817
 11
-12.3434
 21
73.0268
  0
LINE
  8
0
 10
-12.3434
 20
73.0268
 11
-12.2061
 21
73.1558
  0
LINE
  8
0
 10
-12.2061
 20
73.1558
 11
-12.0537
 21
73.2665
  0
LINE
  8
0
 10
-12.0537
 20
73.2665
 11
-11.8887
 21
73.3572
  0
LINE
  8
0
 10
-11.8887
 20
73.3572
 11
-11.7135
 21
73.4266
  0
LINE
  8
0
 10
-11.7135
 20
73.4266
 11
-11.5311
 21
73.4734
  0
LINE
  8
0
 10
-11.5311
 20
73.4734
 11
-11.3442
 21
73.497
  0
LINE
  8
0
 10
-11.3442
 20
73.497
 11
-11.1558
 21
73.497
  0
LINE
  8
0
 10
-11.1558
 20
73.497
 11
-10.9689
 21
73.4734
  0
LINE
  8
0
 10
-10.9689
 20
73.4734
 11
-10.7865
 21
73.4266
  0
LINE
  8
0
 10
-10.7865
 20
73.4266
 11
-10.6113
 21
73.3572
  0
LINE
  8
0
 10
-10.6113
 20
73.3572
 11
-10.4463
 21
73.2665
  0
LINE
  8
0
 10
-10.4463
 20
73.2665
 11
-10.2939
 21
73.1558
  0
LINE
  8
0
 10
-10.2939
 20
73.1558
 11
-10.1565
 21
73.0268
  0
LINE
  8
0
 10
-10.1565
 20
73.0268
 11
-10.0365
 21
72.8817
  0
LINE
  8
0
 10
-10.0365
 20
72.8817
 11
-9.93553
 21
72.7226
  0
LINE
  8
0
 10
-9.93553
 20
72.7226
 11
-9.85533
 21
72.5522
  0
LINE
  8
0
 10
-9.85533
 20
72.5522
 11
-9.79712
 21
72.373
  0
LINE
  8
0
 10
-9.79712
 20
72.373
 11
-9.76183
 21
72.188
  0
LINE
  8
0
 10
-9.76183
 20
72.188
 11
-9.75
 21
72
  0
LINE
  8
0
 10
-9.75
 20
72
 11
-9.76183
 21
71.812
  0
LINE
  8
0
 10
-9.76183
 20
71.812
 11
-9.79712
 21
71.627
  0
LINE
  8
0
 10
-9.79712
 20
71.627
 11
-9.85533
 21
71.4478
  0
LINE
  8
0
 10
-9.85533
 20
71.4478
 11
-9.93553
 21
71.2774
  0
LINE
  8
0
 10
-9.93553
 20
71.2774
 11
-10.0365
 21
71.1183
  0
LINE
  8
0
 10
-10.0365
 20
71.1183
 11
-10.1565
 21
70.9732
  0
LINE
  8
0
 10
-10.1565
 20
70.9732
 11
-10.2939
 21
70.8442
  0
LINE
  8
0
 10
-10.2939
 20
70.8442
 11
-10.4463
 21
70.7335
  0
LINE
  8
0
 10
-10.4463
 20
70.7335
 11
-10.6113
 21
70.6428
  0
LINE
  8
0
 10
-10.6113
 20
70.6428
 11
-10.7865
 21
70.5734
  0
LINE
  8
0
 10
-10.7865
 20
70.5734
 11
-10.9689
 21
70.5266
  0
LINE
  8
0
 10
-10.9689
 20
70.5266
 11
-11.1558
 21
70.503
  0
LINE
  8
0
 10
-11.1558
 20
70.503
 11
-11.3442
 21
70.503
  0
LINE
  8
0
 10
-3.84418
 20
70.503
 11
-4.03107
 21
70.5266
  0
LINE
  8
0
 10
-4.03107
 20
70.5266
 11
-4.21352
 21
70.5734
  0
LINE
  8
0
 10
-4.21352
 20
70.5734
 11
-4.38866
 21
70.6428
  0
LINE
  8
0
 10
-4.38866
 20
70.6428
 11
-4.55373
 21
70.7335
  0
LINE
  8
0
 10
-4.55373
 20
70.7335
 11
-4.70613
 21
70.8442
  0
LINE
  8
0
 10
-4.70613
 20
70.8442
 11
-4.84344
 21
70.9732
  0
LINE
  8
0
 10
-4.84344
 20
70.9732
 11
-4.96352
 21
71.1183
  0
LINE
  8
0
 10
-4.96352
 20
71.1183
 11
-5.06445
 21
71.2774
  0
LINE
  8
0
 10
-5.06445
 20
71.2774
 11
-5.14465
 21
71.4478
  0
LINE
  8
0
 10
-5.14465
 20
71.4478
 11
-5.20287
 21
71.627
  0
LINE
  8
0
 10
-5.20287
 20
71.627
 11
-5.23816
 21
71.812
  0
LINE
  8
0
 10
-5.23816
 20
71.812
 11
-5.25
 21
72
  0
LINE
  8
0
 10
-5.25
 20
72
 11
-5.23816
 21
72.188
  0
LINE
  8
0
 10
-5.23816
 20
72.188
 11
-5.20287
 21
72.373
  0
LINE
  8
0
 10
-5.20287
 20
72.373
 11
-5.14465
 21
72.5522
  0
LINE
  8
0
 10
-5.14465
 20
72.5522
 11
-5.06445
 21
72.7226
  0
LINE
  8
0
 10
-5.06445
 20
72.7226
 11
-4.96352
 21
72.8817
  0
LINE
  8
0
 10
-4.96352
 20
72.8817
 11
-4.84344
 21
73.0268
  0
LINE
  8
0
 10
-4.84344
 20
73.0268
 11
-4.70613
 21
73.1558
  0
LINE
  8
0
 10
-4.70613
 20
73.1558
 11
-4.55373
 21
73.2665
  0
LINE
  8
0
 10
-4.55373
 20
73.2665
 11
-4.38866
 21
73.3572
  0
LINE
  8
0
 10
-4.38866
 20
73.3572
 11
-4.21352
 21
73.4266
  0
LINE
  8
0
 10
-4.21352
 20
73.4266
 11
-4.03107
 21
73.4734
  0
LINE
  8
0
 10
-4.03107
 20
73.4734
 11
-3.84418
 21
73.497
  0
LINE
  8
0
 10
-3.84418
 20
73.497
 11
-3.65581
 21
73.497
  0
LINE
  8
0
 10
-3.65581
 20
73.497
 11
-3.46892
 21
73.4734
  0
LINE
  8
0
 10
-3.46892
 20
73.4734
 11
-3.28647
 21
73.4266
  0
LINE
  8
0
 10
-3.28647
 20
73.4266
 11
-3.11133
 21
73.3572
  0
LINE
  8
0
 10
-3.11133
 20
73.3572
 11
-2.94626
 21
73.2665
  0
LINE
  8
0
 10
-2.94626
 20
73.2665
 11
-2.79385
 21
73.1558
  0
LINE
  8
0
 10
-2.79385
 20
73.1558
 11
-2.65654
 21
73.0268
  0
LINE
  8
0
 10
-2.65654
 20
73.0268
 11
-2.53647
 21
72.8817
  0
LINE
  8
0
 10
-2.53647
 20
72.8817
 11
-2.43553
 21
72.7226
  0
LINE
  8
0
 10
-2.43553
 20
72.7226
 11
-2.35533
 21
72.5522
  0
LINE
  8
0
 10
-2.35533
 20
72.5522
 11
-2.29712
 21
72.373
  0
LINE
  8
0
 10
-2.29712
 20
72.373
 11
-2.26183
 21
72.188
  0
LINE
  8
0
 10
-2.26183
 20
72.188
 11
-2.25
 21
72
  0
LINE
  8
0
 10
-2.25
 20
72
 11
-2.26183
 21
71.812
  0
LINE
  8
0
 10
-2.26183
 20
71.812
 11
-2.29712
 21
71.627
  0
LINE
  8
0
 10
-2.29712
 20
71.627
 11
-2.35533
 21
71.4478
  0
LINE
  8
0
 10
-2.35533
 20
71.4478
 11
-2.43553
 21
71.2774
  0
LINE
  8
0
 10
-2.43553
 20
71.2774
 11
-2.53647
 21
71.1183
  0
LINE
  8
0
 10
-2.53647
 20
71.1183
 11
-2.65654
 21
70.9732
  0
LINE
  8
0
 10
-2.65654
 20
70.9732
 11
-2.79385
 21
70.8442
  0
LINE
  8
0
 10
-2.79385
 20
70.8442
 11
-2.94626
 21
70.7335
  0
LINE
  8
0
 10
-2.94626
 20
70.7335
 11
-3.11133
 21
70.6428
  0
LINE
  8
0
 10
-3.11133
 20
70.6428
 11
-3.28647
 21
70.5734
  0
LINE
  8
0
 10
-3.28647
 20
70.5734
 11
-3.46892
 21
70.5266
  0
LINE
  8
0
 10
-3.46892
 20
70.5266
 11
-3.65581
 21
70.503
  0
LINE
  8
0
 10
-3.65581
 20
70.503
 11
-3.84418
 21
70.503
  0
LINE
  8
0
 10
18.6558
 20
70.503
 11
18.4689
 21
70.5266
  0
LINE
  8
0
 10
18.4689
 20
70.5266
 11
18.2865
 21
70.5734
  0
LINE
  8
0
 10
18.2865
 20
70.5734
 11
18.1113
 21
70.6428
  0
LINE
  8
0
 10
18.1113
 20
70.6428
 11
17.9463
 21
70.7335
  0
LINE
  8
0
 10
17.9463
 20
70.7335
 11
17.7939
 21
70.8442
  0
LINE
  8
0
 10
17.7939
 20
70.8442
 11
17.6565
 21
70.9732
  0
LINE
  8
0
 10
17.6565
 20
70.9732
 11
17.5365
 21
71.1183
  0
LINE
  8
0
 10
17.5365
 20
71.1183
 11
17.4355
 21
71.2774
  0
LINE
  8
0
 10
17.4355
 20
71.2774
 11
17.3553
 21
71.4478
  0
LINE
  8
0
 10
17.3553
 20
71.4478
 11
17.2971
 21
71.627
  0
LINE
  8
0
 10
17.2971
 20
71.627
 11
17.2618
 21
71.812
  0
LINE
  8
0
 10
17.2618
 20
71.812
 11
17.25
 21
72
  0
LINE
  8
0
 10
17.25
 20
72
 11
17.2618
 21
72.188
  0
LINE
  8
0
 10
17.2618
 20
72.188
 11
17.2971
 21
72.373
  0
LINE
  8
0
 10
17.2971
 20
72.373
 11
17.3553
 21
72.5522
  0
LINE
  8
0
 10
17.3553
 20
72.5522
 11
17.4355
 21
72.7226
  0
LINE
  8
0
 10
17.4355
 20
72.7226
 11
17.5365
 21
72.8817
  0
LINE
  8
0
 10
17.5365
 20
72.8817
 11
17.6565
 21
73.0268
  0
LINE
  8
0
 10
17.6565
 20
73.0268
 11
17.7939
 21
73.1558
  0
LINE
  8
0
 10
17.7939
 20
73.1558
 11
17.9463
 21
73.2665
  0
LINE
  8
0
 10
17.9463
 20
73.2665
 11
18.1113
 21
73.3572
  0
LINE
  8
0
 10
18.1113
 20
73.3572
 11
18.2865
 21
73.4266
  0
LINE
  8
0
 10
18.2865
 20
73.4266
 11
18.4689
 21
73.4734
  0
LINE
  8
0
 10
18.4689
 20
73.4734
 11
18.6558
 21
73.497
  0
LINE
  8
0
 10
18.6558
 20
73.497
 11
18.8442
 21
73.497
  0
LINE
  8
0
 10
18.8442
 20
73.497
 11
19.0311
 21
73.4734
  0
LINE
  8
0
 10
19.0311
 20
73.4734
 11
19.2135
 21
73.4266
  0
LINE
  8
0
 10
19.2135
 20
73.4266
 11
19.3887
 21
73.3572
  0
LINE
  8
0
 10
19.3887
 20
73.3572
 11
19.5537
 21
73.2665
  0
LINE
  8
0
 10
19.5537
 20
73.2665
 11
19.7061
 21
73.1558
  0
LINE
  8
0
 10
19.7061
 20
73.1558
 11
19.8434
 21
73.0268
  0
LINE
  8
0
 10
19.8434
 20
73.0268
 11
19.9635
 21
72.8817
  0
LINE
  8
0
 10
19.9635
 20
72.8817
 11
20.0645
 21
72.7226
  0
LINE
  8
0
 10
20.0645
 20
72.7226
 11
20.1447
 21
72.5522
  0
LINE
  8
0
 10
20.1447
 20
72.5522
 11
20.2029
 21
72.373
  0
LINE
  8
0
 10
20.2029
 20
72.373
 11
20.2382
 21
72.188
  0
LINE
  8
0
 10
20.2382
 20
72.188
 11
20.25
 21
72
  0
LINE
  8
0
 10
20.25
 20
72
 11
20.2382
 21
71.812
  0
LINE
  8
0
 10
20.2382
 20
71.812
 11
20.2029
 21
71.627
  0
LINE
  8
0
 10
20.2029
 20
71.627
 11
20.1447
 21
71.4478
  0
LINE
  8
0
 10
20.1447
 20
71.4478
 11
20.0645
 21
71.2774
  0
LINE
  8
0
 10
20.0645
 20
71.2774
 11
19.9635
 21
71.1183
  0
LINE
  8
0
 10
19.9635
 20
71.1183
 11
19.8434
 21
70.9732
  0
LINE
  8
0
 10
19.8434
 20
70.9732
 11
19.7061
 21
70.8442
  0
LINE
  8
0
 10
19.7061
 20
70.8442
 11
19.5537
 21
70.7335
  0
LINE
  8
0
 10
19.5537
 20
70.7335
 11
19.3887
 21
70.6428
  0
LINE
  8
0
 10
19.3887
 20
70.6428
 11
19.2135
 21
70.5734
  0
LINE
  8
0
 10
19.2135
 20
70.5734
 11
19.0311
 21
70.5266
  0
LINE
  8
0
 10
19.0311
 20
70.5266
 11
18.8442
 21
70.503
  0
LINE
  8
0
 10
18.8442
 20
70.503
 11
18.6558
 21
70.503
  0
LINE
  8
0
 10
26.1558
 20
70.503
 11
25.9689
 21
70.5266
  0
LINE
  8
0
 10
25.9689
 20
70.5266
 11
25.7865
 21
70.5734
  0
LINE
  8
0
 10
25.7865
 20
70.5734
 11
25.6113
 21
70.6428
  0
LINE
  8
0
 10
25.6113
 20
70.6428
 11
25.4463
 21
70.7335
  0
LINE
  8
0
 10
25.4463
 20
70.7335
 11
25.2939
 21
70.8442
  0
LINE
  8
0
 10
25.2939
 20
70.8442
 11
25.1565
 21
70.9732
  0
LINE
  8
0
 10
25.1565
 20
70.9732
 11
25.0365
 21
71.1183
  0
LINE
  8
0
 10
25.0365
 20
71.1183
 11
24.9355
 21
71.2774
  0
LINE
  8
0
 10
24.9355
 20
71.2774
 11
24.8553
 21
71.4478
  0
LINE
  8
0
 10
24.8553
 20
71.4478
 11
24.7971
 21
71.627
  0
LINE
  8
0
 10
24.7971
 20
71.627
 11
24.7618
 21
71.812
  0
LINE
  8
0
 10
24.7618
 20
71.812
 11
24.75
 21
72
  0
LINE
  8
0
 10
24.75
 20
72
 11
24.7618
 21
72.188
  0
LINE
  8
0
 10
24.7618
 20
72.188
 11
24.7971
 21
72.373
  0
LINE
  8
0
 10
24.7971
 20
72.373
 11
24.8553
 21
72.5522
  0
LINE
  8
0
 10
24.8553
 20
72.5522
 11
24.9355
 21
72.7226
  0
LINE
  8
0
 10
24.9355
 20
72.7226
 11
25.0365
 21
72.8817
  0
LINE
  8
0
 10
25.0365
 20
72.8817
 11
25.1565
 21
73.0268
  0
LINE
  8
0
 10
25.1565
 20
73.0268
 11
25.2939
 21
73.1558
  0
LINE
  8
0
 10
25.2939
 20
73.1558
 11
25.4463
 21
73.2665
  0
LINE
  8
0
 10
25.4463
 20
73.2665
 11
25.6113
 21
73.3572
  0
LINE
  8
0
 10
25.6113
 20
73.3572
 11
25.7865
 21
73.4266
  0
LINE
  8
0
 10
25.7865
 20
73.4266
 11
25.9689
 21
73.4734
  0
LINE
  8
0
 10
25.9689
 20
73.4734
 11
26.1558
 21
73.497
  0
LINE
  8
0
 10
26.1558
 20
73.497
 11
26.3442
 21
73.497
  0
LINE
  8
0
 10
26.3442
 20
73.497
 11
26.5311
 21
73.4734
  0
LINE
  8
0
 10
26.5311
 20
73.4734
 11
26.7135
 21
73.4266
  0
LINE
  8
0
 10
26.7135
 20
73.4266
 11
26.8887
 21
73.3572
  0
LINE
  8
0
 10
26.8887
 20
73.3572
 11
27.0537
 21
73.2665
  0
LINE
  8
0
 10
27.0537
 20
73.2665
 11
27.2061
 21
73.1558
  0
LINE
  8
0
 10
27.2061
 20
73.1558
 11
27.3434
 21
73.0268
  0
LINE
  8
0
 10
27.3434
 20
73.0268
 11
27.4635
 21
72.8817
  0
LINE
  8
0
 10
27.4635
 20
72.8817
 11
27.5645
 21
72.7226
  0
LINE
  8
0
 10
27.5645
 20
72.7226
 11
27.6447
 21
72.5522
  0
LINE
  8
0
 10
27.6447
 20
72.5522
 11
27.7029
 21
72.373
  0
LINE
  8
0
 10
27.7029
 20
72.373
 11
27.7382
 21
72.188
  0
LINE
  8
0
 10
27.7382
 20
72.188
 11
27.75
 21
72
  0
LINE
  8
0
 10
27.75
 20
72
 11
27.7382
 21
71.812
  0
LINE
  8
0
 10
27.7382
 20
71.812
 11
27.7029
 21
71.627
  0
LINE
  8
0
 10
27.7029
 20
71.627
 11
27.6447
 21
71.4478
  0
LINE
  8
0
 10
27.6447
 20
71.4478
 11
27.5645
 21
71.2774
  0
LINE
  8
0
 10
27.5645
 20
71.2774
 11
27.4635
 21
71.1183
  0
LINE
  8
0
 10
27.4635
 20
71.1183
 11
27.3434
 21
70.9732
  0
LINE
  8
0
 10
27.3434
 20
70.9732
 11
27.2061
 21
70.8442
  0
LINE
  8
0
 10
27.2061
 20
70.8442
 11
27.0537
 21
70.7335
  0
LINE
  8
0
 10
27.0537
 20
70.7335
 11
26.8887
 21
70.6428
  0
LINE
  8
0
 10
26.8887
 20
70.6428
 11
26.7135
 21
70.5734
  0
LINE
  8
0
 10
26.7135
 20
70.5734
 11
26.5311
 21
70.5266
  0
LINE
  8
0
 10
26.5311
 20
70.5266
 11
26.3442
 21
70.503
  0
LINE
  8
0
 10
26.3442
 20
70.503
 11
26.1558
 21
70.503
  0
LINE
  8
0
 10
11.1558
 20
70.503
 11
10.9689
 21
70.5266
  0
LINE
  8
0
 10
10.9689
 20
70.5266
 11
10.7865
 21
70.5734
  0
LINE
  8
0
 10
10.7865
 20
70.5734
 11
10.6113
 21
70.6428
  0
LINE
  8
0
 10
10.6113
 20
70.6428
 11
10.4463
 21
70.7335
  0
LINE
  8
0
 10
10.4463
 20
70.7335
 11
10.2939
 21
70.8442
  0
LINE
  8
0
 10
10.2939
 20
70.8442
 11
10.1565
 21
70.9732
  0
LINE
  8
0
 10
10.1565
 20
70.9732
 11
10.0365
 21
71.1183
  0
LINE
  8
0
 10
10.0365
 20
71.1183
 11
9.93553
 21
71.2774
  0
LINE
  8
0
 10
9.93553
 20
71.2774
 11
9.85533
 21
71.4478
  0
LINE
  8
0
 10
9.85533
 20
71.4478
 11
9.79712
 21
71.627
  0
LINE
  8
0
 10
9.79712
 20
71.627
 11
9.76183
 21
71.812
  0
LINE
  8
0
 10
9.76183
 20
71.812
 11
9.75
 21
72
  0
LINE
  8
0
 10
9.75
 20
72
 11
9.76183
 21
72.188
  0
LINE
  8
0
 10
9.76183
 20
72.188
 11
9.79712
 21
72.373
  0
LINE
  8
0
 10
9.79712
 20
72.373
 11
9.85533
 21
72.5522
  0
LINE
  8
0
 10
9.85533
 20
72.5522
 11
9.93553
 21
72.7226
  0
LINE
  8
0
 10
9.93553
 20
72.7226
 11
10.0365
 21
72.8817
  0
LINE
  8
0
 10
10.0365
 20
72.8817
 11
10.1565
 21
73.0268
  0
LINE
  8
0
 10
10.1565
 20
73.0268
 11
10.2939
 21
73.1558
  0
LINE
  8
0
 10
10.2939
 20
73.1558
 11
10.4463
 21
73.2665
  0
LINE
  8
0
 10
10.4463
 20
73.2665
 11
10.6113
 21
73.3572
  0
LINE
  8
0
 10
10.6113
 20
73.3572
 11
10.7865
 21
73.4266
  0
LINE
  8
0
 10
10.7865
 20
73.4266
 11
10.9689
 21
73.4734
  0
LINE
  8
0
 10
10.9689
 20
73.4734
 11
11.1558
 21
73.497
  0
LINE
  8
0
 10
11.1558
 20
73.497
 11
11.3442
 21
73.497
  0
LINE
  8
0
 10
11.3442
 20
73.497
 11
11.5311
 21
73.4734
  0
LINE
  8
0
 10
11.5311
 20
73.4734
 11
11.7135
 21
73.4266
  0
LINE
  8
0
 10
11.7135
 20
73.4266
 11
11.8887
 21
73.3572
  0
LINE
  8
0
 10
11.8887
 20
73.3572
 11
12.0537
 21
73.2665
  0
LINE
  8
0
 10
12.0537
 20
73.2665
 11
12.2061
 21
73.1558
  0
LINE
  8
0
 10
12.2061
 20
73.1558
 11
12.3434
 21
73.0268
  0
LINE
  8
0
 10
12.3434
 20
73.0268
 11
12.4635
 21
72.8817
  0
LINE
  8
0
 10
12.4635
 20
72.8817
 11
12.5645
 21
72.7226
  0
LINE
  8
0
 10
12.5645
 20
72.7226
 11
12.6447
 21
72.5522
  0
LINE
  8
0
 10
12.6447
 20
72.5522
 11
12.7029
 21
72.373
  0
LINE
  8
0
 10
12.7029
 20
72.373
 11
12.7382
 21
72.188
  0
LINE
  8
0
 10
12.7382
 20
72.188
 11
12.75
 21
72
  0
LINE
  8
0
 10
12.75
 20
72
 11
12.7382
 21
71.812
  0
LINE
  8
0
 10
12.7382
 20
71.812
 11
12.7029
 21
71.627
  0
LINE
  8
0
 10
12.7029
 20
71.627
 11
12.6447
 21
71.4478
  0
LINE
  8
0
 10
12.6447
 20
71.4478
 11
12.5645
 21
71.2774
  0
LINE
  8
0
 10
12.5645
 20
71.2774
 11
12.4635
 21
71.1183
  0
LINE
  8
0
 10
12.4635
 20
71.1183
 11
12.3434
 21
70.9732
  0
LINE
  8
0
 10
12.3434
 20
70.9732
 11
12.2061
 21
70.8442
  0
LINE
  8
0
 10
12.2061
 20
70.8442
 11
12.0537
 21
70.7335
  0
LINE
  8
0
 10
12.0537
 20
70.7335
 11
11.8887
 21
70.6428
  0
LINE
  8
0
 10
11.8887
 20
70.6428
 11
11.7135
 21
70.5734
  0
LINE
  8
0
 10
11.7135
 20
70.5734
 11
11.5311
 21
70.5266
  0
LINE
  8
0
 10
11.5311
 20
70.5266
 11
11.3442
 21
70.503
  0
LINE
  8
0
 10
11.3442
 20
70.503
 11
11.1558
 21
70.503
  0
LINE
  8
0
 10
-18.8442
 20
70.503
 11
-19.0311
 21
70.5266
  0
LINE
  8
0
 10
-19.0311
 20
70.5266
 11
-19.2135
 21
70.5734
  0
LINE
  8
0
 10
-19.2135
 20
70.5734
 11
-19.3887
 21
70.6428
  0
LINE
  8
0
 10
-19.3887
 20
70.6428
 11
-19.5537
 21
70.7335
  0
LINE
  8
0
 10
-19.5537
 20
70.7335
 11
-19.7061
 21
70.8442
  0
LINE
  8
0
 10
-19.7061
 20
70.8442
 11
-19.8434
 21
70.9732
  0
LINE
  8
0
 10
-19.8434
 20
70.9732
 11
-19.9635
 21
71.1183
  0
LINE
  8
0
 10
-19.9635
 20
71.1183
 11
-20.0645
 21
71.2774
  0
LINE
  8
0
 10
-20.0645
 20
71.2774
 11
-20.1447
 21
71.4478
  0
LINE
  8
0
 10
-20.1447
 20
71.4478
 11
-20.2029
 21
71.627
  0
LINE
  8
0
 10
-20.2029
 20
71.627
 11
-20.2382
 21
71.812
  0
LINE
  8
0
 10
-20.2382
 20
71.812
 11
-20.25
 21
72
  0
LINE
  8
0
 10
-20.25
 20
72
 11
-20.2382
 21
72.188
  0
LINE
  8
0
 10
-20.2382
 20
72.188
 11
-20.2029
 21
72.373
  0
LINE
  8
0
 10
-20.2029
 20
72.373
 11
-20.1447
 21
72.5522
  0
LINE
  8
0
 10
-20.1447
 20
72.5522
 11
-20.0645
 21
72.7226
  0
LINE
  8
0
 10
-20.0645
 20
72.7226
 11
-19.9635
 21
72.8817
  0
LINE
  8
0
 10
-19.9635
 20
72.8817
 11
-19.8434
 21
73.0268
  0
LINE
  8
0
 10
-19.8434
 20
73.0268
 11
-19.7061
 21
73.1558
  0
LINE
  8
0
 10
-19.7061
 20
73.1558
 11
-19.5537
 21
73.2665
  0
LINE
  8
0
 10
-19.5537
 20
73.2665
 11
-19.3887
 21
73.3572
  0
LINE
  8
0
 10
-19.3887
 20
73.3572
 11
-19.2135
 21
73.4266
  0
LINE
  8
0
 10
-19.2135
 20
73.4266
 11
-19.0311
 21
73.4734
  0
LINE
  8
0
 10
-19.0311
 20
73.4734
 11
-18.8442
 21
73.497
  0
LINE
  8
0
 10
-18.8442
 20
73.497
 11
-18.6558
 21
73.497
  0
LINE
  8
0
 10
-18.6558
 20
73.497
 11
-18.4689
 21
73.4734
  0
LINE
  8
0
 10
-18.4689
 20
73.4734
 11
-18.2865
 21
73.4266
  0
LINE
  8
0
 10
-18.2865
 20
73.4266
 11
-18.1113
 21
73.3572
  0
LINE
  8
0
 10
-18.1113
 20
73.3572
 11
-17.9463
 21
73.2665
  0
LINE
  8
0
 10
-17.9463
 20
73.2665
 11
-17.7939
 21
73.1558
  0
LINE
  8
0
 10
-17.7939
 20
73.1558
 11
-17.6565
 21
73.0268
  0
LINE
  8
0
 10
-17.6565
 20
73.0268
 11
-17.5365
 21
72.8817
  0
LINE
  8
0
 10
-17.5365
 20
72.8817
 11
-17.4355
 21
72.7226
  0
LINE
  8
0
 10
-17.4355
 20
72.7226
 11
-17.3553
 21
72.5522
  0
LINE
  8
0
 10
-17.3553
 20
72.5522
 11
-17.2971
 21
72.373
  0
LINE
  8
0
 10
-17.2971
 20
72.373
 11
-17.2618
 21
72.188
  0
LINE
  8
0
 10
-17.2618
 20
72.188
 11
-17.25
 21
72
  0
LINE
  8
0
 10
-17.25
 20
72
 11
-17.2618
 21
71.812
  0
LINE
  8
0
 10
-17.2618
 20
71.812
 11
-17.2971
 21
71.627
  0
LINE
  8
0
 10
-17.2971
 20
71.627
 11
-17.3553
 21
71.4478
  0
LINE
  8
0
 10
-17.3553
 20
71.4478
 11
-17.4355
 21
71.2774
  0
LINE
  8
0
 10
-17.4355
 20
71.2774
 11
-17.5365
 21
71.1183
  0
LINE
  8
0
 10
-17.5365
 20
71.1183
 11
-17.6565
 21
70.9732
  0
LINE
  8
0
 10
-17.6565
 20
70.9732
 11
-17.7939
 21
70.8442
  0
LINE
  8
0
 10
-17.7939
 20
70.8442
 11
-17.9463
 21
70.7335
  0
LINE
  8
0
 10
-17.9463
 20
70.7335
 11
-18.1113
 21
70.6428
  0
LINE
  8
0
 10
-18.1113
 20
70.6428
 11
-18.2865
 21
70.5734
  0
LINE
  8
0
 10
-18.2865
 20
70.5734
 11
-18.4689
 21
70.5266
  0
LINE
  8
0
 10
-18.4689
 20
70.5266
 11
-18.6558
 21
70.503
  0
LINE
  8
0
 10
-18.6558
 20
70.503
 11
-18.8442
 21
70.503
  0
LINE
  8
0
 10
-33.8442
 20
70.503
 11
-34.0311
 21
70.5266
  0
LINE
  8
0
 10
-34.0311
 20
70.5266
 11
-34.2135
 21
70.5734
  0
LINE
  8
0
 10
-34.2135
 20
70.5734
 11
-34.3887
 21
70.6428
  0
LINE
  8
0
 10
-34.3887
 20
70.6428
 11
-34.5537
 21
70.7335
  0
LINE
  8
0
 10
-34.5537
 20
70.7335
 11
-34.7061
 21
70.8442
  0
LINE
  8
0
 10
-34.7061
 20
70.8442
 11
-34.8434
 21
70.9732
  0
LINE
  8
0
 10
-34.8434
 20
70.9732
 11
-34.9635
 21
71.1183
  0
LINE
  8
0
 10
-34.9635
 20
71.1183
 11
-35.0645
 21
71.2774
  0
LINE
  8
0
 10
-35.0645
 20
71.2774
 11
-35.1447
 21
71.4478
  0
LINE
  8
0
 10
-35.1447
 20
71.4478
 11
-35.2029
 21
71.627
  0
LINE
  8
0
 10
-35.2029
 20
71.627
 11
-35.2382
 21
71.812
  0
LINE
  8
0
 10
-35.2382
 20
71.812
 11
-35.25
 21
72
  0
LINE
  8
0
 10
-35.25
 20
72
 11
-35.2382
 21
72.188
  0
LINE
  8
0
 10
-35.2382
 20
72.188
 11
-35.2029
 21
72.373
  0
LINE
  8
0
 10
-35.2029
 20
72.373
 11
-35.1447
 21
72.5522
  0
LINE
  8
0
 10
-35.1447
 20
72.5522
 11
-35.0645
 21
72.7226
  0
LINE
  8
0
 10
-35.0645
 20
72.7226
 11
-34.9635
 21
72.8817
  0
LINE
  8
0
 10
-34.9635
 20
72.8817
 11
-34.8434
 21
73.0268
  0
LINE
  8
0
 10
-34.8434
 20
73.0268
 11
-34.7061
 21
73.1558
  0
LINE
  8
0
 10
-34.7061
 20
73.1558
 11
-34.5537
 21
73.2665
  0
LINE
  8
0
 10
-34.5537
 20
73.2665
 11
-34.3887
 21
73.3572
  0
LINE
  8
0
 10
-34.3887
 20
73.3572
 11
-34.2135
 21
73.4266
  0
LINE
  8
0
 10
-34.2135
 20
73.4266
 11
-34.0311
 21
73.4734
  0
LINE
  8
0
 10
-34.0311
 20
73.4734
 11
-33.8442
 21
73.497
  0
LINE
  8
0
 10
-33.8442
 20
73.497
 11
-33.6558
 21
73.497
  0
LINE
  8
0
 10
-33.6558
 20
73.497
 11
-33.4689
 21
73.4734
  0
LINE
  8
0
 10
-33.4689
 20
73.4734
 11
-33.2865
 21
73.4266
  0
LINE
  8
0
 10
-33.2865
 20
73.4266
 11
-33.1113
 21
73.3572
  0
LINE
  8
0
 10
-33.1113
 20
73.3572
 11
-32.9463
 21
73.2665
  0
LINE
  8
0
 10
-32.9463
 20
73.2665
 11
-32.7939
 21
73.1558
  0
LINE
  8
0
 10
-32.7939
 20
73.1558
 11
-32.6565
 21
73.0268
  0
LINE
  8
0
 10
-32.6565
 20
73.0268
 11
-32.5365
 21
72.8817
  0
LINE
  8
0
 10
-32.5365
 20
72.8817
 11
-32.4355
 21
72.7226
  0
LINE
  8
0
 10
-32.4355
 20
72.7226
 11
-32.3553
 21
72.5522
  0
LINE
  8
0
 10
-32.3553
 20
72.5522
 11
-32.2971
 21
72.373
  0
LINE
  8
0
 10
-32.2971
 20
72.373
 11
-32.2618
 21
72.188
  0
LINE
  8
0
 10
-32.2618
 20
72.188
 11
-32.25
 21
72
  0
LINE
  8
0
 10
-32.25
 20
72
 11
-32.2618
 21
71.812
  0
LINE
  8
0
 10
-32.2618
 20
71.812
 11
-32.2971
 21
71.627
  0
LINE
  8
0
 10
-32.2971
 20
71.627
 11
-32.3553
 21
71.4478
  0
LINE
  8
0
 10
-32.3553
 20
71.4478
 11
-32.4355
 21
71.2774
  0
LINE
  8
0
 10
-32.4355
 20
71.2774
 11
-32.5365
 21
71.1183
  0
LINE
  8
0
 10
-32.5365
 20
71.1183
 11
-32.6565
 21
70.9732
  0
LINE
  8
0
 10
-32.6565
 20
70.9732
 11
-32.7939
 21
70.8442
  0
LINE
  8
0
 10
-32.7939
 20
70.8442
 11
-32.9463
 21
70.7335
  0
LINE
  8
0
 10
-32.9463
 20
70.7335
 11
-33.1113
 21
70.6428
  0
LINE
  8
0
 10
-33.1113
 20
70.6428
 11
-33.2865
 21
70.5734
  0
LINE
  8
0
 10
-33.2865
 20
70.5734
 11
-33.4689
 21
70.5266
  0
LINE
  8
0
 10
-33.4689
 20
70.5266
 11
-33.6558
 21
70.503
  0
LINE
  8
0
 10
-33.6558
 20
70.503
 11
-33.8442
 21
70.503
  0
LINE
  8
0
 10
-26.3442
 20
70.503
 11
-26.5311
 21
70.5266
  0
LINE
  8
0
 10
-26.5311
 20
70.5266
 11
-26.7135
 21
70.5734
  0
LINE
  8
0
 10
-26.7135
 20
70.5734
 11
-26.8887
 21
70.6428
  0
LINE
  8
0
 10
-26.8887
 20
70.6428
 11
-27.0537
 21
70.7335
  0
LINE
  8
0
 10
-27.0537
 20
70.7335
 11
-27.2061
 21
70.8442
  0
LINE
  8
0
 10
-27.2061
 20
70.8442
 11
-27.3434
 21
70.9732
  0
LINE
  8
0
 10
-27.3434
 20
70.9732
 11
-27.4635
 21
71.1183
  0
LINE
  8
0
 10
-27.4635
 20
71.1183
 11
-27.5645
 21
71.2774
  0
LINE
  8
0
 10
-27.5645
 20
71.2774
 11
-27.6447
 21
71.4478
  0
LINE
  8
0
 10
-27.6447
 20
71.4478
 11
-27.7029
 21
71.627
  0
LINE
  8
0
 10
-27.7029
 20
71.627
 11
-27.7382
 21
71.812
  0
LINE
  8
0
 10
-27.7382
 20
71.812
 11
-27.75
 21
72
  0
LINE
  8
0
 10
-27.75
 20
72
 11
-27.7382
 21
72.188
  0
LINE
  8
0
 10
-27.7382
 20
72.188
 11
-27.7029
 21
72.373
  0
LINE
  8
0
 10
-27.7029
 20
72.373
 11
-27.6447
 21
72.5522
  0
LINE
  8
0
 10
-27.6447
 20
72.5522
 11
-27.5645
 21
72.7226
  0
LINE
  8
0
 10
-27.5645
 20
72.7226
 11
-27.4635
 21
72.8817
  0
LINE
  8
0
 10
-27.4635
 20
72.8817
 11
-27.3434
 21
73.0268
  0
LINE
  8
0
 10
-27.3434
 20
73.0268
 11
-27.2061
 21
73.1558
  0
LINE
  8
0
 10
-27.2061
 20
73.1558
 11
-27.0537
 21
73.2665
  0
LINE
  8
0
 10
-27.0537
 20
73.2665
 11
-26.8887
 21
73.3572
  0
LINE
  8
0
 10
-26.8887
 20
73.3572
 11
-26.7135
 21
73.4266
  0
LINE
  8
0
 10
-26.7135
 20
73.4266
 11
-26.5311
 21
73.4734
  0
LINE
  8
0
 10
-26.5311
 20
73.4734
 11
-26.3442
 21
73.497
  0
LINE
  8
0
 10
-26.3442
 20
73.497
 11
-26.1558
 21
73.497
  0
LINE
  8
0
 10
-26.1558
 20
73.497
 11
-25.9689
 21
73.4734
  0
LINE
  8
0
 10
-25.9689
 20
73.4734
 11
-25.7865
 21
73.4266
  0
LINE
  8
0
 10
-25.7865
 20
73.4266
 11
-25.6113
 21
73.3572
  0
LINE
  8
0
 10
-25.6113
 20
73.3572
 11
-25.4463
 21
73.2665
  0
LINE
  8
0
 10
-25.4463
 20
73.2665
 11
-25.2939
 21
73.1558
  0
LINE
  8
0
 10
-25.2939
 20
73.1558
 11
-25.1565
 21
73.0268
  0
LINE
  8
0
 10
-25.1565
 20
73.0268
 11
-25.0365
 21
72.8817
  0
LINE
  8
0
 10
-25.0365
 20
72.8817
 11
-24.9355
 21
72.7226
  0
LINE
  8
0
 10
-24.9355
 20
72.7226
 11
-24.8553
 21
72.5522
  0
LINE
  8
0
 10
-24.8553
 20
72.5522
 11
-24.7971
 21
72.373
  0
LINE
  8
0
 10
-24.7971
 20
72.373
 11
-24.7618
 21
72.188
  0
LINE
  8
0
 10
-24.7618
 20
72.188
 11
-24.75
 21
72
  0
LINE
  8
0
 10
-24.75
 20
72
 11
-24.7618
 21
71.812
  0
LINE
  8
0
 10
-24.7618
 20
71.812
 11
-24.7971
 21
71.627
  0
LINE
  8
0
 10
-24.7971
 20
71.627
 11
-24.8553
 21
71.4478
  0
LINE
  8
0
 10
-24.8553
 20
71.4478
 11
-24.9355
 21
71.2774
  0
LINE
  8
0
 10
-24.9355
 20
71.2774
 11
-25.0365
 21
71.1183
  0
LINE
  8
0
 10
-25.0365
 20
71.1183
 11
-25.1565
 21
70.9732
  0
LINE
  8
0
 10
-25.1565
 20
70.9732
 11
-25.2939
 21
70.8442
  0
LINE
  8
0
 10
-25.2939
 20
70.8442
 11
-25.4463
 21
70.7335
  0
LINE
  8
0
 10
-25.4463
 20
70.7335
 11
-25.6113
 21
70.6428
  0
LINE
  8
0
 10
-25.6113
 20
70.6428
 11
-25.7865
 21
70.5734
  0
LINE
  8
0
 10
-25.7865
 20
70.5734
 11
-25.9689
 21
70.5266
  0
LINE
  8
0
 10
-25.9689
 20
70.5266
 11
-26.1558
 21
70.503
  0
LINE
  8
0
 10
-26.1558
 20
70.503
 11
-26.3442
 21
70.503
  0
ENDSEC
  0
SECTION
  2
OBJECTS
  0
DICTIONARY
  0
ENDSEC
  0
EOF
