<?xml version="1.0" standalone="no"?>
<!DOCTYPE svg PUBLIC "-//W3C//DTD SVG 1.1//EN" "http://www.w3.org/Graphics/SVG/1.1/DTD/svg11.dtd">
<svg width="90mm" height="80mm" viewBox="-45 -148 90 80" xmlns="http://www.w3.org/2000/svg" version="1.1">
<title>OpenSCAD Model</title>
<path d="
M 42.7184,-140.544 L 43.0225,-140.622 L 43.3144,-140.738 L 43.5896,-140.889 L 43.8436,-141.074 L 44.0724,-141.289
 L 44.2725,-141.531 L 44.4408,-141.796 L 44.5744,-142.08 L 44.6714,-142.378 L 44.7303,-142.687 L 44.75,-143
 L 44.75,-145 L 44.7303,-145.313 L 44.6714,-145.622 L 44.5744,-145.92 L 44.4408,-146.204 L 44.2725,-146.469
 L 44.0724,-146.711 L 43.8436,-146.926 L 43.5896,-147.111 L 43.3144,-147.262 L 43.0225,-147.378 L 42.7184,-147.456
 L 42.407,-147.495 L -42.407,-147.495 L -42.7184,-147.456 L -43.0225,-147.378 L -43.3144,-147.262 L -43.5896,-147.111
 L -43.8436,-146.926 L -44.0724,-146.711 L -44.2725,-146.469 L -44.4408,-146.204 L -44.5744,-145.92 L -44.6714,-145.622
 L -44.7303,-145.313 L -44.75,-145 L -44.75,-143 L -44.7303,-142.687 L -44.6714,-142.378 L -44.5744,-142.08
 L -44.4408,-141.796 L -44.2725,-141.531 L -44.0724,-141.289 L -43.8436,-141.074 L -43.5896,-140.889 L -43.3144,-140.738
 L -43.0225,-140.622 L -42.7184,-140.544 L -42.407,-140.505 L 42.407,-140.505 z
M -33.8442,-142.503 L -34.0311,-142.527 L -34.2135,-142.573 L -34.3887,-142.643 L -34.5537,-142.734 L -34.7061,-142.844
 L -34.8434,-142.973 L -34.9635,-143.118 L -35.0645,-143.277 L -35.1447,-143.448 L -35.2029,-143.627 L -35.2382,-143.812
 L -35.25,-144 L -35.2382,-144.188 L -35.2029,-144.373 L -35.1447,-144.552 L -35.0645,-144.723 L -34.9635,-144.882
 L -34.8434,-145.027 L -34.7061,-145.156 L -34.5537,-145.266 L -34.3887,-145.357 L -34.2135,-145.427 L -34.0311,-145.473
 L -33.8442,-145.497 L -33.6558,-145.497 L -33.4689,-145.473 L -33.2865,-145.427 L -33.1113,-145.357 L -32.9463,-145.266
 L -32.7939,-145.156 L -32.6565,-145.027 L -32.5365,-144.882 L -32.4355,-144.723 L -32.3553,-144.552 L -32.2971,-144.373
 L -32.2618,-144.188 L -32.25,-144 L -32.2618,-143.812 L -32.2971,-143.627 L -32.3553,-143.448 L -32.4355,-143.277
 L -32.5365,-143.118 L -32.6565,-142.973 L -32.7939,-142.844 L -32.9463,-142.734 L -33.1113,-142.643 L -33.2865,-142.573
 L -33.4689,-142.527 L -33.6558,-142.503 z
M -11.3442,-142.503 L -11.5311,-142.527 L -11.7135,-142.573 L -11.8887,-142.643 L -12.0537,-142.734 L -12.2061,-142.844
 L -12.3434,-142.973 L -12.4635,-143.118 L -12.5645,-143.277 L -12.6447,-143.448 L -12.7029,-143.627 L -12.7382,-143.812
 L -12.75,-144 L -12.7382,-144.188 L -12.7029,-144.373 L -12.6447,-144.552 L -12.5645,-144.723 L -12.4635,-144.882
 L -12.3434,-145.027 L -12.2061,-145.156 L -12.0537,-145.266 L -11.8887,-145.357 L -11.7135,-145.427 L -11.5311,-145.473
 L -11.3442,-145.497 L -11.1558,-145.497 L -10.9689,-145.473 L -10.7865,-145.427 L -10.6113,-145.357 L -10.4463,-145.266
 L -10.2939,-145.156 L -10.1565,-145.027 L -10.0365,-144.882 L -9.93553,-144.723 L -9.85533,-144.552 L -9.79712,-144.373
 L -9.76183,-144.188 L -9.75,-144 L -9.76183,-143.812 L -9.79712,-143.627 L -9.85533,-143.448 L -9.93553,-143.277
 L -10.0365,-143.118 L -10.1565,-142.973 L -10.2939,-142.844 L -10.4463,-142.734 L -10.6113,-142.643 L -10.7865,-142.573
 L -10.9689,-142.527 L -11.1558,-142.503 z
M -18.8442,-142.503 L -19.0311,-142.527 L -19.2135,-142.573 L -19.3887,-142.643 L -19.5537,-142.734 L -19.7061,-142.844
 L -19.8434,-142.973 L -19.9635,-143.118 L -20.0645,-143.277 L -20.1447,-143.448 L -20.2029,-143.627 L -20.2382,-143.812
 L -20.25,-144 L -20.2382,-144.188 L -20.2029,-144.373 L -20.1447,-144.552 L -20.0645,-144.723 L -19.9635,-144.882
 L -19.8434,-145.027 L -19.7061,-145.156 L -19.5537,-145.266 L -19.3887,-145.357 L -19.2135,-145.427 L -19.0311,-145.473
 L -18.8442,-145.497 L -18.6558,-145.497 L -18.4689,-145.473 L -18.2865,-145.427 L -18.1113,-145.357 L -17.9463,-145.266
 L -17.7939,-145.156 L -17.6565,-145.027 L -17.5365,-144.882 L -17.4355,-144.723 L -17.3553,-144.552 L -17.2971,-144.373
 L -17.2618,-144.188 L -17.25,-144 L -17.2618,-143.812 L -17.2971,-143.627 L -17.3553,-143.448 L -17.4355,-143.277
 L -17.5365,-143.118 L -17.6565,-142.973 L -17.7939,-142.844 L -17.9463,-142.734 L -18.1113,-142.643 L -18.2865,-142.573
 L -18.4689,-142.527 L -18.6558,-142.503 z
M -26.3442,-142.503 L -26.5311,-142.527 L -26.7135,-142.573 L -26.8887,-142.643 L -27.0537,-142.734 L -27.2061,-142.844
 L -27.3434,-142.973 L -27.4635,-143.118 L -27.5645,-143.277 L -27.6447,-143.448 L -27.7029,-143.627 L -27.7382,-143.812
 L -27.75,-144 L -27.7382,-144.188 L -27.7029,-144.373 L -27.6447,-144.552 L -27.5645,-144.723 L -27.4635,-144.882
 L -27.3434,-145.027 L -27.2061,-145.156 L -27.0537,-145.266 L -26.8887,-145.357 L -26.7135,-145.427 L -26.5311,-145.473
 L -26.3442,-145.497 L -26.1558,-145.497 L -25.9689,-145.473 L -25.7865,-145.427 L -25.6113,-145.357 L -25.4463,-145.266
 L -25.2939,-145.156 L -25.1565,-145.027 L -25.0365,-144.882 L -24.9355,-144.723 L -24.8553,-144.552 L -24.7971,-144.373
 L -24.7618,-144.188 L -24.75,-144 L -24.7618,-143.812 L -24.7971,-143.627 L -24.8553,-143.448 L -24.9355,-143.277
 L -25.0365,-143.118 L -25.1565,-142.973 L -25.2939,-142.844 L -25.4463,-142.734 L -25.6113,-142.643 L -25.7865,-142.573
 L -25.9689,-142.527 L -26.1558,-142.503 z
M 3.65581,-142.503 L 3.46892,-142.527 L 3.28647,-142.573 L 3.11133,-142.643 L 2.94626,-142.734 L 2.79385,-142.844
 L 2.65654,-142.973 L 2.53647,-143.118 L 2.43553,-143.277 L 2.35533,-143.448 L 2.29712,-143.627 L 2.26183,-143.812
 L 2.25,-144 L 2.26183,-144.188 L 2.29712,-144.373 L 2.35533,-144.552 L 2.43553,-144.723 L 2.53647,-144.882
 L 2.65654,-145.027 L 2.79385,-145.156 L 2.94626,-145.266 L 3.11133,-145.357 L 3.28647,-145.427 L 3.46892,-145.473
 L 3.65581,-145.497 L 3.84418,-145.497 L 4.03107,-145.473 L 4.21352,-145.427 L 4.38866,-145.357 L 4.55373,-145.266
 L 4.70613,-145.156 L 4.84344,-145.027 L 4.96352,-144.882 L 5.06445,-144.723 L 5.14465,-144.552 L 5.20287,-144.373
 L 5.23816,-144.188 L 5.25,-144 L 5.23816,-143.812 L 5.20287,-143.627 L 5.14465,-143.448 L 5.06445,-143.277
 L 4.96352,-143.118 L 4.84344,-142.973 L 4.70613,-142.844 L 4.55373,-142.734 L 4.38866,-142.643 L 4.21352,-142.573
 L 4.03107,-142.527 L 3.84418,-142.503 z
M 18.6558,-142.503 L 18.4689,-142.527 L 18.2865,-142.573 L 18.1113,-142.643 L 17.9463,-142.734 L 17.7939,-142.844
 L 17.6565,-142.973 L 17.5365,-143.118 L 17.4355,-143.277 L 17.3553,-143.448 L 17.2971,-143.627 L 17.2618,-143.812
 L 17.25,-144 L 17.2618,-144.188 L 17.2971,-144.373 L 17.3553,-144.552 L 17.4355,-144.723 L 17.5365,-144.882
 L 17.6565,-145.027 L 17.7939,-145.156 L 17.9463,-145.266 L 18.1113,-145.357 L 18.2865,-145.427 L 18.4689,-145.473
 L 18.6558,-145.497 L 18.8442,-145.497 L 19.0311,-145.473 L 19.2135,-145.427 L 19.3887,-145.357 L 19.5537,-145.266
 L 19.7061,-145.156 L 19.8434,-145.027 L 19.9635,-144.882 L 20.0645,-144.723 L 20.1447,-144.552 L 20.2029,-144.373
 L 20.2382,-144.188 L 20.25,-144 L 20.2382,-143.812 L 20.2029,-143.627 L 20.1447,-143.448 L 20.0645,-143.277
 L 19.9635,-143.118 L 19.8434,-142.973 L 19.7061,-142.844 L 19.5537,-142.734 L 19.3887,-142.643 L 19.2135,-142.573
 L 19.0311,-142.527 L 18.8442,-142.503 z
M 26.1558,-142.503 L 25.9689,-142.527 L 25.7865,-142.573 L 25.6113,-142.643 L 25.4463,-142.734 L 25.2939,-142.844
 L 25.1565,-142.973 L 25.0365,-143.118 L 24.9355,-143.277 L 24.8553,-143.448 L 24.7971,-143.627 L 24.7618,-143.812
 L 24.75,-144 L 24.7618,-144.188 L 24.7971,-144.373 L 24.8553,-144.552 L 24.9355,-144.723 L 25.0365,-144.882
 L 25.1565,-145.027 L 25.2939,-145.156 L 25.4463,-145.266 L 25.6113,-145.357 L 25.7865,-145.427 L 25.9689,-145.473
 L 26.1558,-145.497 L 26.3442,-145.497 L 26.5311,-145.473 L 26.7135,-145.427 L 26.8887,-145.357 L 27.0537,-145.266
 L 27.2061,-145.156 L 27.3434,-145.027 L 27.4635,-144.882 L 27.5645,-144.723 L 27.6447,-144.552 L 27.7029,-144.373
 L 27.7382,-144.188 L 27.75,-144 L 27.7382,-143.812 L 27.7029,-143.627 L 27.6447,-143.448 L 27.5645,-143.277
 L 27.4635,-143.118 L 27.3434,-142.973 L 27.2061,-142.844 L 27.0537,-142.734 L 26.8887,-142.643 L 26.7135,-142.573
 L 26.5311,-142.527 L 26.3442,-142.503 z
M -41.3442,-142.503 L -41.5311,-142.527 L -41.7135,-142.573 L -41.8887,-142.643 L -42.0537,-142.734 L -42.2061,-142.844
 L -42.3434,-142.973 L -42.4635,-143.118 L -42.5645,-143.277 L -42.6447,-143.448 L -42.7029,-143.627 L -42.7382,-143.812
 L -42.75,-144 L -42.7382,-144.188 L -42.7029,-144.373 L -42.6447,-144.552 L -42.5645,-144.723 L -42.4635,-144.882
 L -42.3434,-145.027 L -42.2061,-145.156 L -42.0537,-145.266 L -41.8887,-145.357 L -41.7135,-145.427 L -41.5311,-145.473
 L -41.3442,-145.497 L -41.1558,-145.497 L -40.9689,-145.473 L -40.7865,-145.427 L -40.6113,-145.357 L -40.4463,-145.266
 L -40.2939,-145.156 L -40.1565,-145.027 L -40.0365,-144.882 L -39.9355,-144.723 L -39.8553,-144.552 L -39.7971,-144.373
 L -39.7618,-144.188 L -39.75,-144 L -39.7618,-143.812 L -39.7971,-143.627 L -39.8553,-143.448 L -39.9355,-143.277
 L -40.0365,-143.118 L -40.1565,-142.973 L -40.2939,-142.844 L -40.4463,-142.734 L -40.6113,-142.643 L -40.7865,-142.573
 L -40.9689,-142.527 L -41.1558,-142.503 z
M -3.84418,-142.503 L -4.03107,-142.527 L -4.21352,-142.573 L -4.38866,-142.643 L -4.55373,-142.734 L -4.70613,-142.844
 L -4.84344,-142.973 L -4.96352,-143.118 L -5.06445,-143.277 L -5.14465,-143.448 L -5.20287,-143.627 L -5.23816,-143.812
 L -5.25,-144 L -5.23816,-144.188 L -5.20287,-144.373 L -5.14465,-144.552 L -5.06445,-144.723 L -4.96352,-144.882
 L -4.84344,-145.027 L -4.70613,-145.156 L -4.55373,-145.266 L -4.38866,-145.357 L -4.21352,-145.427 L -4.03107,-145.473
 L -3.84418,-145.497 L -3.65581,-145.497 L -3.46892,-145.473 L -3.28647,-145.427 L -3.11133,-145.357 L -2.94626,-145.266
 L -2.79385,-145.156 L -2.65654,-145.027 L -2.53647,-144.882 L -2.43553,-144.723 L -2.35533,-144.552 L -2.29712,-144.373
 L -2.26183,-144.188 L -2.25,-144 L -2.26183,-143.812 L -2.29712,-143.627 L -2.35533,-143.448 L -2.43553,-143.277
 L -2.53647,-143.118 L -2.65654,-142.973 L -2.79385,-142.844 L -2.94626,-142.734 L -3.11133,-142.643 L -3.28647,-142.573
 L -3.46892,-142.527 L -3.65581,-142.503 z
M 41.1558,-142.503 L 40.9689,-142.527 L 40.7865,-142.573 L 40.6113,-142.643 L 40.4463,-142.734 L 40.2939,-142.844
 L 40.1565,-142.973 L 40.0365,-143.118 L 39.9355,-143.277 L 39.8553,-143.448 L 39.7971,-143.627 L 39.7618,-143.812
 L 39.75,-144 L 39.7618,-144.188 L 39.7971,-144.373 L 39.8553,-144.552 L 39.9355,-144.723 L 40.0365,-144.882
 L 40.1565,-145.027 L 40.2939,-145.156 L 40.4463,-145.266 L 40.6113,-145.357 L 40.7865,-145.427 L 40.9689,-145.473
 L 41.1558,-145.497 L 41.3442,-145.497 L 41.5311,-145.473 L 41.7135,-145.427 L 41.8887,-145.357 L 42.0537,-145.266
 L 42.2061,-145.156 L 42.3434,-145.027 L 42.4635,-144.882 L 42.5645,-144.723 L 42.6447,-144.552 L 42.7029,-144.373
 L 42.7382,-144.188 L 42.75,-144 L 42.7382,-143.812 L 42.7029,-143.627 L 42.6447,-143.448 L 42.5645,-143.277
 L 42.4635,-143.118 L 42.3434,-142.973 L 42.2061,-142.844 L 42.0537,-142.734 L 41.8887,-142.643 L 41.7135,-142.573
 L 41.5311,-142.527 L 41.3442,-142.503 z
M 11.1558,-142.503 L 10.9689,-142.527 L 10.7865,-142.573 L 10.6113,-142.643 L 10.4463,-142.734 L 10.2939,-142.844
 L 10.1565,-142.973 L 10.0365,-143.118 L 9.93553,-143.277 L 9.85533,-143.448 L 9.79712,-143.627 L 9.76183,-143.812
 L 9.75,-144 L 9.76183,-144.188 L 9.79712,-144.373 L 9.85533,-144.552 L 9.93553,-144.723 L 10.0365,-144.882
 L 10.1565,-145.027 L 10.2939,-145.156 L 10.4463,-145.266 L 10.6113,-145.357 L 10.7865,-145.427 L 10.9689,-145.473
 L 11.1558,-145.497 L 11.3442,-145.497 L 11.5311,-145.473 L 11.7135,-145.427 L 11.8887,-145.357 L 12.0537,-145.266
 L 12.2061,-145.156 L 12.3434,-145.027 L 12.4635,-144.882 L 12.5645,-144.723 L 12.6447,-144.552 L 12.7029,-144.373
 L 12.7382,-144.188 L 12.75,-144 L 12.7382,-143.812 L 12.7029,-143.627 L 12.6447,-143.448 L 12.5645,-143.277
 L 12.4635,-143.118 L 12.3434,-142.973 L 12.2061,-142.844 L 12.0537,-142.734 L 11.8887,-142.643 L 11.7135,-142.573
 L 11.5311,-142.527 L 11.3442,-142.503 z
M 33.6558,-142.503 L 33.4689,-142.527 L 33.2865,-142.573 L 33.1113,-142.643 L 32.9463,-142.734 L 32.7939,-142.844
 L 32.6565,-142.973 L 32.5365,-143.118 L 32.4355,-143.277 L 32.3553,-143.448 L 32.2971,-143.627 L 32.2618,-143.812
 L 32.25,-144 L 32.2618,-144.188 L 32.2971,-144.373 L 32.3553,-144.552 L 32.4355,-144.723 L 32.5365,-144.882
 L 32.6565,-145.027 L 32.7939,-145.156 L 32.9463,-145.266 L 33.1113,-145.357 L 33.2865,-145.427 L 33.4689,-145.473
 L 33.6558,-145.497 L 33.8442,-145.497 L 34.0311,-145.473 L 34.2135,-145.427 L 34.3887,-145.357 L 34.5537,-145.266
 L 34.7061,-145.156 L 34.8434,-145.027 L 34.9635,-144.882 L 35.0645,-144.723 L 35.1447,-144.552 L 35.2029,-144.373
 L 35.2382,-144.188 L 35.25,-144 L 35.2382,-143.812 L 35.2029,-143.627 L 35.1447,-143.448 L 35.0645,-143.277
 L 34.9635,-143.118 L 34.8434,-142.973 L 34.7061,-142.844 L 34.5537,-142.734 L 34.3887,-142.643 L 34.2135,-142.573
 L 34.0311,-142.527 L 33.8442,-142.503 z
M 42.7184,-116.544 L 43.0225,-116.622 L 43.3144,-116.738 L 43.5896,-116.889 L 43.8436,-117.074 L 44.0724,-117.289
 L 44.2725,-117.531 L 44.4408,-117.796 L 44.5744,-118.08 L 44.6714,-118.378 L 44.7303,-118.687 L 44.75,-119
 L 44.75,-121 L 44.7303,-121.313 L 44.6714,-121.622 L 44.5744,-121.92 L 44.4408,-122.204 L 44.2725,-122.469
 L 44.0724,-122.711 L 43.8436,-122.926 L 43.5896,-123.111 L 43.3144,-123.262 L 43.0225,-123.378 L 42.7184,-123.456
 L 42.407,-123.495 L -42.407,-123.495 L -42.7184,-123.456 L -43.0225,-123.378 L -43.3144,-123.262 L -43.5896,-123.111
 L -43.8436,-122.926 L -44.0724,-122.711 L -44.2725,-122.469 L -44.4408,-122.204 L -44.5744,-121.92 L -44.6714,-121.622
 L -44.7303,-121.313 L -44.75,-121 L -44.75,-119 L -44.7303,-118.687 L -44.6714,-118.378 L -44.5744,-118.08
 L -44.4408,-117.796 L -44.2725,-117.531 L -44.0724,-117.289 L -43.8436,-117.074 L -43.5896,-116.889 L -43.3144,-116.738
 L -43.0225,-116.622 L -42.7184,-116.544 L -42.407,-116.505 L 42.407,-116.505 z
M -33.8442,-118.503 L -34.0311,-118.527 L -34.2135,-118.573 L -34.3887,-118.643 L -34.5537,-118.734 L -34.7061,-118.844
 L -34.8434,-118.973 L -34.9635,-119.118 L -35.0645,-119.277 L -35.1447,-119.448 L -35.2029,-119.627 L -35.2382,-119.812
 L -35.25,-120 L -35.2382,-120.188 L -35.2029,-120.373 L -35.1447,-120.552 L -35.0645,-120.723 L -34.9635,-120.882
 L -34.8434,-121.027 L -34.7061,-121.156 L -34.5537,-121.266 L -34.3887,-121.357 L -34.2135,-121.427 L -34.0311,-121.473
 L -33.8442,-121.497 L -33.6558,-121.497 L -33.4689,-121.473 L -33.2865,-121.427 L -33.1113,-121.357 L -32.9463,-121.266
 L -32.7939,-121.156 L -32.6565,-121.027 L -32.5365,-120.882 L -32.4355,-120.723 L -32.3553,-120.552 L -32.2971,-120.373
 L -32.2618,-120.188 L -32.25,-120 L -32.2618,-119.812 L -32.2971,-119.627 L -32.3553,-119.448 L -32.4355,-119.277
 L -32.5365,-119.118 L -32.6565,-118.973 L -32.7939,-118.844 L -32.9463,-118.734 L -33.1113,-118.643 L -33.2865,-118.573
 L -33.4689,-118.527 L -33.6558,-118.503 z
M -11.3442,-118.503 L -11.5311,-118.527 L -11.7135,-118.573 L -11.8887,-118.643 L -12.0537,-118.734 L -12.2061,-118.844
 L -12.3434,-118.973 L -12.4635,-119.118 L -12.5645,-119.277 L -12.6447,-119.448 L -12.7029,-119.627 L -12.7382,-119.812
 L -12.75,-120 L -12.7382,-120.188 L -12.7029,-120.373 L -12.6447,-120.552 L -12.5645,-120.723 L -12.4635,-120.882
 L -12.3434,-121.027 L -12.2061,-121.156 L -12.0537,-121.266 L -11.8887,-121.357 L -11.7135,-121.427 L -11.5311,-121.473
 L -11.3442,-121.497 L -11.1558,-121.497 L -10.9689,-121.473 L -10.7865,-121.427 L -10.6113,-121.357 L -10.4463,-121.266
 L -10.2939,-121.156 L -10.1565,-121.027 L -10.0365,-120.882 L -9.93553,-120.723 L -9.85533,-120.552 L -9.79712,-120.373
 L -9.76183,-120.188 L -9.75,-120 L -9.76183,-119.812 L -9.79712,-119.627 L -9.85533,-119.448 L -9.93553,-119.277
 L -10.0365,-119.118 L -10.1565,-118.973 L -10.2939,-118.844 L -10.4463,-118.734 L -10.6113,-118.643 L -10.7865,-118.573
 L -10.9689,-118.527 L -11.1558,-118.503 z
M -18.8442,-118.503 L -19.0311,-118.527 L -19.2135,-118.573 L -19.3887,-118.643 L -19.5537,-118.734 L -19.7061,-118.844
 L -19.8434,-118.973 L -19.9635,-119.118 L -20.0645,-119.277 L -20.1447,-119.448 L -20.2029,-119.627 L -20.2382,-119.812
 L -20.25,-120 L -20.2382,-120.188 L -20.2029,-120.373 L -20.1447,-120.552 L -20.0645,-120.723 L -19.9635,-120.882
 L -19.8434,-121.027 L -19.7061,-121.156 L -19.5537,-121.266 L -19.3887,-121.357 L -19.2135,-121.427 L -19.0311,-121.473
 L -18.8442,-121.497 L -18.6558,-121.497 L -18.4689,-121.473 L -18.2865,-121.427 L -18.1113,-121.357 L -17.9463,-121.266
 L -17.7939,-121.156 L -17.6565,-121.027 L -17.5365,-120.882 L -17.4355,-120.723 L -17.3553,-120.552 L -17.2971,-120.373
 L -17.2618,-120.188 L -17.25,-120 L -17.2618,-119.812 L -17.2971,-119.627 L -17.3553,-119.448 L -17.4355,-119.277
 L -17.5365,-119.118 L -17.6565,-118.973 L -17.7939,-118.844 L -17.9463,-118.734 L -18.1113,-118.643 L -18.2865,-118.573
 L -18.4689,-118.527 L -18.6558,-118.503 z
M -26.3442,-118.503 L -26.5311,-118.527 L -26.7135,-118.573 L -26.8887,-118.643 L -27.0537,-118.734 L -27.2061,-118.844
 L -27.3434,-118.973 L -27.4635,-119.118 L -27.5645,-119.277 L -27.6447,-119.448 L -27.7029,-119.627 L -27.7382,-119.812
 L -27.75,-120 L -27.7382,-120.188 L -27.7029,-120.373 L -27.6447,-120.552 L -27.5645,-120.723 L -27.4635,-120.882
 L -27.3434,-121.027 L -27.2061,-121.156 L -27.0537,-121.266 L -26.8887,-121.357 L -26.7135,-121.427 L -26.5311,-121.473
 L -26.3442,-121.497 L -26.1558,-121.497 L -25.9689,-121.473 L -25.7865,-121.427 L -25.6113,-121.357 L -25.4463,-121.266
 L -25.2939,-121.156 L -25.1565,-121.027 L -25.0365,-120.882 L -24.9355,-120.723 L -24.8553,-120.552 L -24.7971,-120.373
 L -24.7618,-120.188 L -24.75,-120 L -24.7618,-119.812 L -24.7971,-119.627 L -24.8553,-119.448 L -24.9355,-119.277
 L -25.0365,-119.118 L -25.1565,-118.973 L -25.2939,-118.844 L -25.4463,-118.734 L -25.6113,-118.643 L -25.7865,-118.573
 L -25.9689,-118.527 L -26.1558,-118.503 z
M 3.65581,-118.503 L 3.46892,-118.527 L 3.28647,-118.573 L 3.11133,-118.643 L 2.94626,-118.734 L 2.79385,-118.844
 L 2.65654,-118.973 L 2.53647,-119.118 L 2.43553,-119.277 L 2.35533,-119.448 L 2.29712,-119.627 L 2.26183,-119.812
 L 2.25,-120 L 2.26183,-120.188 L 2.29712,-120.373 L 2.35533,-120.552 L 2.43553,-120.723 L 2.53647,-120.882
 L 2.65654,-121.027 L 2.79385,-121.156 L 2.94626,-121.266 L 3.11133,-121.357 L 3.28647,-121.427 L 3.46892,-121.473
 L 3.65581,-121.497 L 3.84418,-121.497 L 4.03107,-121.473 L 4.21352,-121.427 L 4.38866,-121.357 L 4.55373,-121.266
 L 4.70613,-121.156 L 4.84344,-121.027 L 4.96352,-120.882 L 5.06445,-120.723 L 5.14465,-120.552 L 5.20287,-120.373
 L 5.23816,-120.188 L 5.25,-120 L 5.23816,-119.812 L 5.20287,-119.627 L 5.14465,-119.448 L 5.06445,-119.277
 L 4.96352,-119.118 L 4.84344,-118.973 L 4.70613,-118.844 L 4.55373,-118.734 L 4.38866,-118.643 L 4.21352,-118.573
 L 4.03107,-118.527 L 3.84418,-118.503 z
M 18.6558,-118.503 L 18.4689,-118.527 L 18.2865,-118.573 L 18.1113,-118.643 L 17.9463,-118.734 L 17.7939,-118.844
 L 17.6565,-118.973 L 17.5365,-119.118 L 17.4355,-119.277 L 17.3553,-119.448 L 17.2971,-119.627 L 17.2618,-119.812
 L 17.25,-120 L 17.2618,-120.188 L 17.2971,-120.373 L 17.3553,-120.552 L 17.4355,-120.723 L 17.5365,-120.882
 L 17.6565,-121.027 L 17.7939,-121.156 L 17.9463,-121.266 L 18.1113,-121.357 L 18.2865,-121.427 L 18.4689,-121.473
 L 18.6558,-121.497 L 18.8442,-121.497 L 19.0311,-121.473 L 19.2135,-121.427 L 19.3887,-121.357 L 19.5537,-121.266
 L 19.7061,-121.156 L 19.8434,-121.027 L 19.9635,-120.882 L 20.0645,-120.723 L 20.1447,-120.552 L 20.2029,-120.373
 L 20.2382,-120.188 L 20.25,-120 L 20.2382,-119.812 L 20.2029,-119.627 L 20.1447,-119.448 L 20.0645,-119.277
 L 19.9635,-119.118 L 19.8434,-118.973 L 19.7061,-118.844 L 19.5537,-118.734 L 19.3887,-118.643 L 19.2135,-118.573
 L 19.0311,-118.527 L 18.8442,-118.503 z
M 26.1558,-118.503 L 25.9689,-118.527 L 25.7865,-118.573 L 25.6113,-118.643 L 25.4463,-118.734 L 25.2939,-118.844
 L 25.1565,-118.973 L 25.0365,-119.118 L 24.9355,-119.277 L 24.8553,-119.448 L 24.7971,-119.627 L 24.7618,-119.812
 L 24.75,-120 L 24.7618,-120.188 L 24.7971,-120.373 L 24.8553,-120.552 L 24.9355,-120.723 L 25.0365,-120.882
 L 25.1565,-121.027 L 25.2939,-121.156 L 25.4463,-121.266 L 25.6113,-121.357 L 25.7865,-121.427 L 25.9689,-121.473
 L 26.1558,-121.497 L 26.3442,-121.497 L 26.5311,-121.473 L 26.7135,-121.427 L 26.8887,-121.357 L 27.0537,-121.266
 L 27.2061,-121.156 L 27.3434,-121.027 L 27.4635,-120.882 L 27.5645,-120.723 L 27.6447,-120.552 L 27.7029,-120.373
 L 27.7382,-120.188 L 27.75,-120 L 27.7382,-119.812 L 27.7029,-119.627 L 27.6447,-119.448 L 27.5645,-119.277
 L 27.4635,-119.118 L 27.3434,-118.973 L 27.2061,-118.844 L 27.0537,-118.734 L 26.8887,-118.643 L 26.7135,-118.573
 L 26.5311,-118.527 L 26.3442,-118.503 z
M -41.3442,-118.503 L -41.5311,-118.527 L -41.7135,-118.573 L -41.8887,-118.643 L -42.0537,-118.734 L -42.2061,-118.844
 L -42.3434,-118.973 L -42.4635,-119.118 L -42.5645,-119.277 L -42.6447,-119.448 L -42.7029,-119.627 L -42.7382,-119.812
 L -42.75,-120 L -42.7382,-120.188 L -42.7029,-120.373 L -42.6447,-120.552 L -42.5645,-120.723 L -42.4635,-120.882
 L -42.3434,-121.027 L -42.2061,-121.156 L -42.0537,-121.266 L -41.8887,-121.357 L -41.7135,-121.427 L -41.5311,-121.473
 L -41.3442,-121.497 L -41.1558,-121.497 L -40.9689,-121.473 L -40.7865,-121.427 L -40.6113,-121.357 L -40.4463,-121.266
 L -40.2939,-121.156 L -40.1565,-121.027 L -40.0365,-120.882 L -39.9355,-120.723 L -39.8553,-120.552 L -39.7971,-120.373
 L -39.7618,-120.188 L -39.75,-120 L -39.7618,-119.812 L -39.7971,-119.627 L -39.8553,-119.448 L -39.9355,-119.277
 L -40.0365,-119.118 L -40.1565,-118.973 L -40.2939,-118.844 L -40.4463,-118.734 L -40.6113,-118.643 L -40.7865,-118.573
 L -40.9689,-118.527 L -41.1558,-118.503 z
M -3.84418,-118.503 L -4.03107,-118.527 L -4.21352,-118.573 L -4.38866,-118.643 L -4.55373,-118.734 L -4.70613,-118.844
 L -4.84344,-118.973 L -4.96352,-119.118 L -5.06445,-119.277 L -5.14465,-119.448 L -5.20287,-119.627 L -5.23816,-119.812
 L -5.25,-120 L -5.23816,-120.188 L -5.20287,-120.373 L -5.14465,-120.552 L -5.06445,-120.723 L -4.96352,-120.882
 L -4.84344,-121.027 L -4.70613,-121.156 L -4.55373,-121.266 L -4.38866,-121.357 L -4.21352,-121.427 L -4.03107,-121.473
 L -3.84418,-121.497 L -3.65581,-121.497 L -3.46892,-121.473 L -3.28647,-121.427 L -3.11133,-121.357 L -2.94626,-121.266
 L -2.79385,-121.156 L -2.65654,-121.027 L -2.53647,-120.882 L -2.43553,-120.723 L -2.35533,-120.552 L -2.29712,-120.373
 L -2.26183,-120.188 L -2.25,-120 L -2.26183,-119.812 L -2.29712,-119.627 L -2.35533,-119.448 L -2.43553,-119.277
 L -2.53647,-119.118 L -2.65654,-118.973 L -2.79385,-118.844 L -2.94626,-118.734 L -3.11133,-118.643 L -3.28647,-118.573
 L -3.46892,-118.527 L -3.65581,-118.503 z
M 41.1558,-118.503 L 40.9689,-118.527 L 40.7865,-118.573 L 40.6113,-118.643 L 40.4463,-118.734 L 40.2939,-118.844
 L 40.1565,-118.973 L 40.0365,-119.118 L 39.9355,-119.277 L 39.8553,-119.448 L 39.7971,-119.627 L 39.7618,-119.812
 L 39.75,-120 L 39.7618,-120.188 L 39.7971,-120.373 L 39.8553,-120.552 L 39.9355,-120.723 L 40.0365,-120.882
 L 40.1565,-121.027 L 40.2939,-121.156 L 40.4463,-121.266 L 40.6113,-121.357 L 40.7865,-121.427 L 40.9689,-121.473
 L 41.1558,-121.497 L 41.3442,-121.497 L 41.5311,-121.473 L 41.7135,-121.427 L 41.8887,-121.357 L 42.0537,-121.266
 L 42.2061,-121.156 L 42.3434,-121.027 L 42.4635,-120.882 L 42.5645,-120.723 L 42.6447,-120.552 L 42.7029,-120.373
 L 42.7382,-120.188 L 42.75,-120 L 42.7382,-119.812 L 42.7029,-119.627 L 42.6447,-119.448 L 42.5645,-119.277
 L 42.4635,-119.118 L 42.3434,-118.973 L 42.2061,-118.844 L 42.0537,-118.734 L 41.8887,-118.643 L 41.7135,-118.573
 L 41.5311,-118.527 L 41.3442,-118.503 z
M 11.1558,-118.503 L 10.9689,-118.527 L 10.7865,-118.573 L 10.6113,-118.643 L 10.4463,-118.734 L 10.2939,-118.844
 L 10.1565,-118.973 L 10.0365,-119.118 L 9.93553,-119.277 L 9.85533,-119.448 L 9.79712,-119.627 L 9.76183,-119.812
 L 9.75,-120 L 9.76183,-120.188 L 9.79712,-120.373 L 9.85533,-120.552 L 9.93553,-120.723 L 10.0365,-120.882
 L 10.1565,-121.027 L 10.2939,-121.156 L 10.4463,-121.266 L 10.6113,-121.357 L 10.7865,-121.427 L 10.9689,-121.473
 L 11.1558,-121.497 L 11.3442,-121.497 L 11.5311,-121.473 L 11.7135,-121.427 L 11.8887,-121.357 L 12.0537,-121.266
 L 12.2061,-121.156 L 12.3434,-121.027 L 12.4635,-120.882 L 12.5645,-120.723 L 12.6447,-120.552 L 12.7029,-120.373
 L 12.7382,-120.188 L 12.75,-120 L 12.7382,-119.812 L 12.7029,-119.627 L 12.6447,-119.448 L 12.5645,-119.277
 L 12.4635,-119.118 L 12.3434,-118.973 L 12.2061,-118.844 L 12.0537,-118.734 L 11.8887,-118.643 L 11.7135,-118.573
 L 11.5311,-118.527 L 11.3442,-118.503 z
M 33.6558,-118.503 L 33.4689,-118.527 L 33.2865,-118.573 L 33.1113,-118.643 L 32.9463,-118.734 L 32.7939,-118.844
 L 32.6565,-118.973 L 32.5365,-119.118 L 32.4355,-119.277 L 32.3553,-119.448 L 32.2971,-119.627 L 32.2618,-119.812
 L 32.25,-120 L 32.2618,-120.188 L 32.2971,-120.373 L 32.3553,-120.552 L 32.4355,-120.723 L 32.5365,-120.882
 L 32.6565,-121.027 L 32.7939,-121.156 L 32.9463,-121.266 L 33.1113,-121.357 L 33.2865,-121.427 L 33.4689,-121.473
 L 33.6558,-121.497 L 33.8442,-121.497 L 34.0311,-121.473 L 34.2135,-121.427 L 34.3887,-121.357 L 34.5537,-121.266
 L 34.7061,-121.156 L 34.8434,-121.027 L 34.9635,-120.882 L 35.0645,-120.723 L 35.1447,-120.552 L 35.2029,-120.373
 L 35.2382,-120.188 L 35.25,-120 L 35.2382,-119.812 L 35.2029,-119.627 L 35.1447,-119.448 L 35.0645,-119.277
 L 34.9635,-119.118 L 34.8434,-118.973 L 34.7061,-118.844 L 34.5537,-118.734 L 34.3887,-118.643 L 34.2135,-118.573
 L 34.0311,-118.527 L 33.8442,-118.503 z
M 42.7184,-92.5443 L 43.0225,-92.6224 L 43.3144,-92.7379 L 43.5896,-92.8892 L 43.8436,-93.0737 L 44.0724,-93.2886
 L 44.2725,-93.5305 L 44.4408,-93.7956 L 44.5744,-94.0797 L 44.6714,-94.3783 L 44.7303,-94.6867 L 44.75,-95
 L 44.75,-97 L 44.7303,-97.3133 L 44.6714,-97.6217 L 44.5744,-97.9203 L 44.4408,-98.2044 L 44.2725,-98.4695
 L 44.0724,-98.7114 L 43.8436,-98.9263 L 43.5896,-99.1108 L 43.3144,-99.2621 L 43.0225,-99.3776 L 42.7184,-99.4557
 L 42.407,-99.4951 L -42.407,-99.4951 L -42.7184,-99.4557 L -43.0225,-99.3776 L -43.3144,-99.2621 L -43.5896,-99.1108
 L -43.8436,-98.9263 L -44.0724,-98.7114 L -44.2725,-98.4695 L -44.4408,-98.2044 L -44.5744,-97.9203 L -44.6714,-97.6217
 L -44.7303,-97.3133 L -44.75,-97 L -44.75,-95 L -44.7303,-94.6867 L -44.6714,-94.3783 L -44.5744,-94.0797
 L -44.4408,-93.7956 L -44.2725,-93.5305 L -44.0724,-93.2886 L -43.8436,-93.0737 L -43.5896,-92.8892 L -43.3144,-92.7379
 L -43.0225,-92.6224 L -42.7184,-92.5443 L -42.407,-92.5049 L 42.407,-92.5049 z
M 11.1558,-94.503 L 10.9689,-94.5266 L 10.7865,-94.5734 L 10.6113,-94.6428 L 10.4463,-94.7335 L 10.2939,-94.8442
 L 10.1565,-94.9732 L 10.0365,-95.1183 L 9.93553,-95.2774 L 9.85533,-95.4478 L 9.79712,-95.627 L 9.76183,-95.812
 L 9.75,-96 L 9.76183,-96.188 L 9.79712,-96.373 L 9.85533,-96.5522 L 9.93553,-96.7226 L 10.0365,-96.8817
 L 10.1565,-97.0268 L 10.2939,-97.1558 L 10.4463,-97.2665 L 10.6113,-97.3572 L 10.7865,-97.4266 L 10.9689,-97.4734
 L 11.1558,-97.497 L 11.3442,-97.497 L 11.5311,-97.4734 L 11.7135,-97.4266 L 11.8887,-97.3572 L 12.0537,-97.2665
 L 12.2061,-97.1558 L 12.3434,-97.0268 L 12.4635,-96.8817 L 12.5645,-96.7226 L 12.6447,-96.5522 L 12.7029,-96.373
 L 12.7382,-96.188 L 12.75,-96 L 12.7382,-95.812 L 12.7029,-95.627 L 12.6447,-95.4478 L 12.5645,-95.2774
 L 12.4635,-95.1183 L 12.3434,-94.9732 L 12.2061,-94.8442 L 12.0537,-94.7335 L 11.8887,-94.6428 L 11.7135,-94.5734
 L 11.5311,-94.5266 L 11.3442,-94.503 z
M -33.8442,-94.503 L -34.0311,-94.5266 L -34.2135,-94.5734 L -34.3887,-94.6428 L -34.5537,-94.7335 L -34.7061,-94.8442
 L -34.8434,-94.9732 L -34.9635,-95.1183 L -35.0645,-95.2774 L -35.1447,-95.4478 L -35.2029,-95.627 L -35.2382,-95.812
 L -35.25,-96 L -35.2382,-96.188 L -35.2029,-96.373 L -35.1447,-96.5522 L -35.0645,-96.7226 L -34.9635,-96.8817
 L -34.8434,-97.0268 L -34.7061,-97.1558 L -34.5537,-97.2665 L -34.3887,-97.3572 L -34.2135,-97.4266 L -34.0311,-97.4734
 L -33.8442,-97.497 L -33.6558,-97.497 L -33.4689,-97.4734 L -33.2865,-97.4266 L -33.1113,-97.3572 L -32.9463,-97.2665
 L -32.7939,-97.1558 L -32.6565,-97.0268 L -32.5365,-96.8817 L -32.4355,-96.7226 L -32.3553,-96.5522 L -32.2971,-96.373
 L -32.2618,-96.188 L -32.25,-96 L -32.2618,-95.812 L -32.2971,-95.627 L -32.3553,-95.4478 L -32.4355,-95.2774
 L -32.5365,-95.1183 L -32.6565,-94.9732 L -32.7939,-94.8442 L -32.9463,-94.7335 L -33.1113,-94.6428 L -33.2865,-94.5734
 L -33.4689,-94.5266 L -33.6558,-94.503 z
M 33.6558,-94.503 L 33.4689,-94.5266 L 33.2865,-94.5734 L 33.1113,-94.6428 L 32.9463,-94.7335 L 32.7939,-94.8442
 L 32.6565,-94.9732 L 32.5365,-95.1183 L 32.4355,-95.2774 L 32.3553,-95.4478 L 32.2971,-95.627 L 32.2618,-95.812
 L 32.25,-96 L 32.2618,-96.188 L 32.2971,-96.373 L 32.3553,-96.5522 L 32.4355,-96.7226 L 32.5365,-96.8817
 L 32.6565,-97.0268 L 32.7939,-97.1558 L 32.9463,-97.2665 L 33.1113,-97.3572 L 33.2865,-97.4266 L 33.4689,-97.4734
 L 33.6558,-97.497 L 33.8442,-97.497 L 34.0311,-97.4734 L 34.2135,-97.4266 L 34.3887,-97.3572 L 34.5537,-97.2665
 L 34.7061,-97.1558 L 34.8434,-97.0268 L 34.9635,-96.8817 L 35.0645,-96.7226 L 35.1447,-96.5522 L 35.2029,-96.373
 L 35.2382,-96.188 L 35.25,-96 L 35.2382,-95.812 L 35.2029,-95.627 L 35.1447,-95.4478 L 35.0645,-95.2774
 L 34.9635,-95.1183 L 34.8434,-94.9732 L 34.7061,-94.8442 L 34.5537,-94.7335 L 34.3887,-94.6428 L 34.2135,-94.5734
 L 34.0311,-94.5266 L 33.8442,-94.503 z
M 41.1558,-94.503 L 40.9689,-94.5266 L 40.7865,-94.5734 L 40.6113,-94.6428 L 40.4463,-94.7335 L 40.2939,-94.8442
 L 40.1565,-94.9732 L 40.0365,-95.1183 L 39.9355,-95.2774 L 39.8553,-95.4478 L 39.7971,-95.627 L 39.7618,-95.812
 L 39.75,-96 L 39.7618,-96.188 L 39.7971,-96.373 L 39.8553,-96.5522 L 39.9355,-96.7226 L 40.0365,-96.8817
 L 40.1565,-97.0268 L 40.2939,-97.1558 L 40.4463,-97.2665 L 40.6113,-97.3572 L 40.7865,-97.4266 L 40.9689,-97.4734
 L 41.1558,-97.497 L 41.3442,-97.497 L 41.5311,-97.4734 L 41.7135,-97.4266 L 41.8887,-97.3572 L 42.0537,-97.2665
 L 42.2061,-97.1558 L 42.3434,-97.0268 L 42.4635,-96.8817 L 42.5645,-96.7226 L 42.6447,-96.5522 L 42.7029,-96.373
 L 42.7382,-96.188 L 42.75,-96 L 42.7382,-95.812 L 42.7029,-95.627 L 42.6447,-95.4478 L 42.5645,-95.2774
 L 42.4635,-95.1183 L 42.3434,-94.9732 L 42.2061,-94.8442 L 42.0537,-94.7335 L 41.8887,-94.6428 L 41.7135,-94.5734
 L 41.5311,-94.5266 L 41.3442,-94.503 z
M -3.84418,-94.503 L -4.03107,-94.5266 L -4.21352,-94.5734 L -4.38866,-94.6428 L -4.55373,-94.7335 L -4.70613,-94.8442
 L -4.84344,-94.9732 L -4.96352,-95.1183 L -5.06445,-95.2774 L -5.14465,-95.4478 L -5.20287,-95.627 L -5.23816,-95.812
 L -5.25,-96 L -5.23816,-96.188 L -5.20287,-96.373 L -5.14465,-96.5522 L -5.06445,-96.7226 L -4.96352,-96.8817
 L -4.84344,-97.0268 L -4.70613,-97.1558 L -4.55373,-97.2665 L -4.38866,-97.3572 L -4.21352,-97.4266 L -4.03107,-97.4734
 L -3.84418,-97.497 L -3.65581,-97.497 L -3.46892,-97.4734 L -3.28647,-97.4266 L -3.11133,-97.3572 L -2.94626,-97.2665
 L -2.79385,-97.1558 L -2.65654,-97.0268 L -2.53647,-96.8817 L -2.43553,-96.7226 L -2.35533,-96.5522 L -2.29712,-96.373
 L -2.26183,-96.188 L -2.25,-96 L -2.26183,-95.812 L -2.29712,-95.627 L -2.35533,-95.4478 L -2.43553,-95.2774
 L -2.53647,-95.1183 L -2.65654,-94.9732 L -2.79385,-94.8442 L -2.94626,-94.7335 L -3.11133,-94.6428 L -3.28647,-94.5734
 L -3.46892,-94.5266 L -3.65581,-94.503 z
M -41.3442,-94.503 L -41.5311,-94.5266 L -41.7135,-94.5734 L -41.8887,-94.6428 L -42.0537,-94.7335 L -42.2061,-94.8442
 L -42.3434,-94.9732 L -42.4635,-95.1183 L -42.5645,-95.2774 L -42.6447,-95.4478 L -42.7029,-95.627 L -42.7382,-95.812
 L -42.75,-96 L -42.7382,-96.188 L -42.7029,-96.373 L -42.6447,-96.5522 L -42.5645,-96.7226 L -42.4635,-96.8817
 L -42.3434,-97.0268 L -42.2061,-97.1558 L -42.0537,-97.2665 L -41.8887,-97.3572 L -41.7135,-97.4266 L -41.5311,-97.4734
 L -41.3442,-97.497 L -41.1558,-97.497 L -40.9689,-97.4734 L -40.7865,-97.4266 L -40.6113,-97.3572 L -40.4463,-97.2665
 L -40.2939,-97.1558 L -40.1565,-97.0268 L -40.0365,-96.8817 L -39.9355,-96.7226 L -39.8553,-96.5522 L -39.7971,-96.373
 L -39.7618,-96.188 L -39.75,-96 L -39.7618,-95.812 L -39.7971,-95.627 L -39.8553,-95.4478 L -39.9355,-95.2774
 L -40.0365,-95.1183 L -40.1565,-94.9732 L -40.2939,-94.8442 L -40.4463,-94.7335 L -40.6113,-94.6428 L -40.7865,-94.5734
 L -40.9689,-94.5266 L -41.1558,-94.503 z
M 26.1558,-94.503 L 25.9689,-94.5266 L 25.7865,-94.5734 L 25.6113,-94.6428 L 25.4463,-94.7335 L 25.2939,-94.8442
 L 25.1565,-94.9732 L 25.0365,-95.1183 L 24.9355,-95.2774 L 24.8553,-95.4478 L 24.7971,-95.627 L 24.7618,-95.812
 L 24.75,-96 L 24.7618,-96.188 L 24.7971,-96.373 L 24.8553,-96.5522 L 24.9355,-96.7226 L 25.0365,-96.8817
 L 25.1565,-97.0268 L 25.2939,-97.1558 L 25.4463,-97.2665 L 25.6113,-97.3572 L 25.7865,-97.4266 L 25.9689,-97.4734
 L 26.1558,-97.497 L 26.3442,-97.497 L 26.5311,-97.4734 L 26.7135,-97.4266 L 26.8887,-97.3572 L 27.0537,-97.2665
 L 27.2061,-97.1558 L 27.3434,-97.0268 L 27.4635,-96.8817 L 27.5645,-96.7226 L 27.6447,-96.5522 L 27.7029,-96.373
 L 27.7382,-96.188 L 27.75,-96 L 27.7382,-95.812 L 27.7029,-95.627 L 27.6447,-95.4478 L 27.5645,-95.2774
 L 27.4635,-95.1183 L 27.3434,-94.9732 L 27.2061,-94.8442 L 27.0537,-94.7335 L 26.8887,-94.6428 L 26.7135,-94.5734
 L 26.5311,-94.5266 L 26.3442,-94.503 z
M 18.6558,-94.503 L 18.4689,-94.5266 L 18.2865,-94.5734 L 18.1113,-94.6428 L 17.9463,-94.7335 L 17.7939,-94.8442
 L 17.6565,-94.9732 L 17.5365,-95.1183 L 17.4355,-95.2774 L 17.3553,-95.4478 L 17.2971,-95.627 L 17.2618,-95.812
 L 17.25,-96 L 17.2618,-96.188 L 17.2971,-96.373 L 17.3553,-96.5522 L 17.4355,-96.7226 L 17.5365,-96.8817
 L 17.6565,-97.0268 L 17.7939,-97.1558 L 17.9463,-97.2665 L 18.1113,-97.3572 L 18.2865,-97.4266 L 18.4689,-97.4734
 L 18.6558,-97.497 L 18.8442,-97.497 L 19.0311,-97.4734 L 19.2135,-97.4266 L 19.3887,-97.3572 L 19.5537,-97.2665
 L 19.7061,-97.1558 L 19.8434,-97.0268 L 19.9635,-96.8817 L 20.0645,-96.7226 L 20.1447,-96.5522 L 20.2029,-96.373
 L 20.2382,-96.188 L 20.25,-96 L 20.2382,-95.812 L 20.2029,-95.627 L 20.1447,-95.4478 L 20.0645,-95.2774
 L 19.9635,-95.1183 L 19.8434,-94.9732 L 19.7061,-94.8442 L 19.5537,-94.7335 L 19.3887,-94.6428 L 19.2135,-94.5734
 L 19.0311,-94.5266 L 18.8442,-94.503 z
M 3.65581,-94.503 L 3.46892,-94.5266 L 3.28647,-94.5734 L 3.11133,-94.6428 L 2.94626,-94.7335 L 2.79385,-94.8442
 L 2.65654,-94.9732 L 2.53647,-95.1183 L 2.43553,-95.2774 L 2.35533,-95.4478 L 2.29712,-95.627 L 2.26183,-95.812
 L 2.25,-96 L 2.26183,-96.188 L 2.29712,-96.373 L 2.35533,-96.5522 L 2.43553,-96.7226 L 2.53647,-96.8817
 L 2.65654,-97.0268 L 2.79385,-97.1558 L 2.94626,-97.2665 L 3.11133,-97.3572 L 3.28647,-97.4266 L 3.46892,-97.4734
 L 3.65581,-97.497 L 3.84418,-97.497 L 4.03107,-97.4734 L 4.21352,-97.4266 L 4.38866,-97.3572 L 4.55373,-97.2665
 L 4.70613,-97.1558 L 4.84344,-97.0268 L 4.96352,-96.8817 L 5.06445,-96.7226 L 5.14465,-96.5522 L 5.20287,-96.373
 L 5.23816,-96.188 L 5.25,-96 L 5.23816,-95.812 L 5.20287,-95.627 L 5.14465,-95.4478 L 5.06445,-95.2774
 L 4.96352,-95.1183 L 4.84344,-94.9732 L 4.70613,-94.8442 L 4.55373,-94.7335 L 4.38866,-94.6428 L 4.21352,-94.5734
 L 4.03107,-94.5266 L 3.84418,-94.503 z
M -26.3442,-94.503 L -26.5311,-94.5266 L -26.7135,-94.5734 L -26.8887,-94.6428 L -27.0537,-94.7335 L -27.2061,-94.8442
 L -27.3434,-94.9732 L -27.4635,-95.1183 L -27.5645,-95.2774 L -27.6447,-95.4478 L -27.7029,-95.627 L -27.7382,-95.812
 L -27.75,-96 L -27.7382,-96.188 L -27.7029,-96.373 L -27.6447,-96.5522 L -27.5645,-96.7226 L -27.4635,-96.8817
 L -27.3434,-97.0268 L -27.2061,-97.1558 L -27.0537,-97.2665 L -26.8887,-97.3572 L -26.7135,-97.4266 L -26.5311,-97.4734
 L -26.3442,-97.497 L -26.1558,-97.497 L -25.9689,-97.4734 L -25.7865,-97.4266 L -25.6113,-97.3572 L -25.4463,-97.2665
 L -25.2939,-97.1558 L -25.1565,-97.0268 L -25.0365,-96.8817 L -24.9355,-96.7226 L -24.8553,-96.5522 L -24.7971,-96.373
 L -24.7618,-96.188 L -24.75,-96 L -24.7618,-95.812 L -24.7971,-95.627 L -24.8553,-95.4478 L -24.9355,-95.2774
 L -25.0365,-95.1183 L -25.1565,-94.9732 L -25.2939,-94.8442 L -25.4463,-94.7335 L -25.6113,-94.6428 L -25.7865,-94.5734
 L -25.9689,-94.5266 L -26.1558,-94.503 z
M -18.8442,-94.503 L -19.0311,-94.5266 L -19.2135,-94.5734 L -19.3887,-94.6428 L -19.5537,-94.7335 L -19.7061,-94.8442
 L -19.8434,-94.9732 L -19.9635,-95.1183 L -20.0645,-95.2774 L -20.1447,-95.4478 L -20.2029,-95.627 L -20.2382,-95.812
 L -20.25,-96 L -20.2382,-96.188 L -20.2029,-96.373 L -20.1447,-96.5522 L -20.0645,-96.7226 L -19.9635,-96.8817
 L -19.8434,-97.0268 L -19.7061,-97.1558 L -19.5537,-97.2665 L -19.3887,-97.3572 L -19.2135,-97.4266 L -19.0311,-97.4734
 L -18.8442,-97.497 L -18.6558,-97.497 L -18.4689,-97.4734 L -18.2865,-97.4266 L -18.1113,-97.3572 L -17.9463,-97.2665
 L -17.7939,-97.1558 L -17.6565,-97.0268 L -17.5365,-96.8817 L -17.4355,-96.7226 L -17.3553,-96.5522 L -17.2971,-96.373
 L -17.2618,-96.188 L -17.25,-96 L -17.2618,-95.812 L -17.2971,-95.627 L -17.3553,-95.4478 L -17.4355,-95.2774
 L -17.5365,-95.1183 L -17.6565,-94.9732 L -17.7939,-94.8442 L -17.9463,-94.7335 L -18.1113,-94.6428 L -18.2865,-94.5734
 L -18.4689,-94.5266 L -18.6558,-94.503 z
M -11.3442,-94.503 L -11.5311,-94.5266 L -11.7135,-94.5734 L -11.8887,-94.6428 L -12.0537,-94.7335 L -12.2061,-94.8442
 L -12.3434,-94.9732 L -12.4635,-95.1183 L -12.5645,-95.2774 L -12.6447,-95.4478 L -12.7029,-95.627 L -12.7382,-95.812
 L -12.75,-96 L -12.7382,-96.188 L -12.7029,-96.373 L -12.6447,-96.5522 L -12.5645,-96.7226 L -12.4635,-96.8817
 L -12.3434,-97.0268 L -12.2061,-97.1558 L -12.0537,-97.2665 L -11.8887,-97.3572 L -11.7135,-97.4266 L -11.5311,-97.4734
 L -11.3442,-97.497 L -11.1558,-97.497 L -10.9689,-97.4734 L -10.7865,-97.4266 L -10.6113,-97.3572 L -10.4463,-97.2665
 L -10.2939,-97.1558 L -10.1565,-97.0268 L -10.0365,-96.8817 L -9.93553,-96.7226 L -9.85533,-96.5522 L -9.79712,-96.373
 L -9.76183,-96.188 L -9.75,-96 L -9.76183,-95.812 L -9.79712,-95.627 L -9.85533,-95.4478 L -9.93553,-95.2774
 L -10.0365,-95.1183 L -10.1565,-94.9732 L -10.2939,-94.8442 L -10.4463,-94.7335 L -10.6113,-94.6428 L -10.7865,-94.5734
 L -10.9689,-94.5266 L -11.1558,-94.503 z
M 42.7184,-68.5443 L 43.0225,-68.6224 L 43.3144,-68.7379 L 43.5896,-68.8892 L 43.8436,-69.0737 L 44.0724,-69.2886
 L 44.2725,-69.5305 L 44.4408,-69.7956 L 44.5744,-70.0797 L 44.6714,-70.3783 L 44.7303,-70.6867 L 44.75,-71
 L 44.75,-73 L 44.7303,-73.3133 L 44.6714,-73.6217 L 44.5744,-73.9203 L 44.4408,-74.2044 L 44.2725,-74.4695
 L 44.0724,-74.7114 L 43.8436,-74.9263 L 43.5896,-75.1108 L 43.3144,-75.2621 L 43.0225,-75.3776 L 42.7184,-75.4557
 L 42.407,-75.4951 L -42.407,-75.4951 L -42.7184,-75.4557 L -43.0225,-75.3776 L -43.3144,-75.2621 L -43.5896,-75.1108
 L -43.8436,-74.9263 L -44.0724,-74.7114 L -44.2725,-74.4695 L -44.4408,-74.2044 L -44.5744,-73.9203 L -44.6714,-73.6217
 L -44.7303,-73.3133 L -44.75,-73 L -44.75,-71 L -44.7303,-70.6867 L -44.6714,-70.3783 L -44.5744,-70.0797
 L -44.4408,-69.7956 L -44.2725,-69.5305 L -44.0724,-69.2886 L -43.8436,-69.0737 L -43.5896,-68.8892 L -43.3144,-68.7379
 L -43.0225,-68.6224 L -42.7184,-68.5443 L -42.407,-68.5049 L 42.407,-68.5049 z
M 33.6558,-70.503 L 33.4689,-70.5266 L 33.2865,-70.5734 L 33.1113,-70.6428 L 32.9463,-70.7335 L 32.7939,-70.8442
 L 32.6565,-70.9732 L 32.5365,-71.1183 L 32.4355,-71.2774 L 32.3553,-71.4478 L 32.2971,-71.627 L 32.2618,-71.812
 L 32.25,-72 L 32.2618,-72.188 L 32.2971,-72.373 L 32.3553,-72.5522 L 32.4355,-72.7226 L 32.5365,-72.8817
 L 32.6565,-73.0268 L 32.7939,-73.1558 L 32.9463,-73.2665 L 33.1113,-73.3572 L 33.2865,-73.4266 L 33.4689,-73.4734
 L 33.6558,-73.497 L 33.8442,-73.497 L 34.0311,-73.4734 L 34.2135,-73.4266 L 34.3887,-73.3572 L 34.5537,-73.2665
 L 34.7061,-73.1558 L 34.8434,-73.0268 L 34.9635,-72.8817 L 35.0645,-72.7226 L 35.1447,-72.5522 L 35.2029,-72.373
 L 35.2382,-72.188 L 35.25,-72 L 35.2382,-71.812 L 35.2029,-71.627 L 35.1447,-71.4478 L 35.0645,-71.2774
 L 34.9635,-71.1183 L 34.8434,-70.9732 L 34.7061,-70.8442 L 34.5537,-70.7335 L 34.3887,-70.6428 L 34.2135,-70.5734
 L 34.0311,-70.5266 L 33.8442,-70.503 z
M 41.1558,-70.503 L 40.9689,-70.5266 L 40.7865,-70.5734 L 40.6113,-70.6428 L 40.4463,-70.7335 L 40.2939,-70.8442
 L 40.1565,-70.9732 L 40.0365,-71.1183 L 39.9355,-71.2774 L 39.8553,-71.4478 L 39.7971,-71.627 L 39.7618,-71.812
 L 39.75,-72 L 39.7618,-72.188 L 39.7971,-72.373 L 39.8553,-72.5522 L 39.9355,-72.7226 L 40.0365,-72.8817
 L 40.1565,-73.0268 L 40.2939,-73.1558 L 40.4463,-73.2665 L 40.6113,-73.3572 L 40.7865,-73.4266 L 40.9689,-73.4734
 L 41.1558,-73.497 L 41.3442,-73.497 L 41.5311,-73.4734 L 41.7135,-73.4266 L 41.8887,-73.3572 L 42.0537,-73.2665
 L 42.2061,-73.1558 L 42.3434,-73.0268 L 42.4635,-72.8817 L 42.5645,-72.7226 L 42.6447,-72.5522 L 42.7029,-72.373
 L 42.7382,-72.188 L 42.75,-72 L 42.7382,-71.812 L 42.7029,-71.627 L 42.6447,-71.4478 L 42.5645,-71.2774
 L 42.4635,-71.1183 L 42.3434,-70.9732 L 42.2061,-70.8442 L 42.0537,-70.7335 L 41.8887,-70.6428 L 41.7135,-70.5734
 L 41.5311,-70.5266 L 41.3442,-70.503 z
M -41.3442,-70.503 L -41.5311,-70.5266 L -41.7135,-70.5734 L -41.8887,-70.6428 L -42.0537,-70.7335 L -42.2061,-70.8442
 L -42.3434,-70.9732 L -42.4635,-71.1183 L -42.5645,-71.2774 L -42.6447,-71.4478 L -42.7029,-71.627 L -42.7382,-71.812
 L -42.75,-72 L -42.7382,-72.188 L -42.7029,-72.373 L -42.6447,-72.5522 L -42.5645,-72.7226 L -42.4635,-72.8817
 L -42.3434,-73.0268 L -42.2061,-73.1558 L -42.0537,-73.2665 L -41.8887,-73.3572 L -41.7135,-73.4266 L -41.5311,-73.4734
 L -41.3442,-73.497 L -41.1558,-73.497 L -40.9689,-73.4734 L -40.7865,-73.4266 L -40.6113,-73.3572 L -40.4463,-73.2665
 L -40.2939,-73.1558 L -40.1565,-73.0268 L -40.0365,-72.8817 L -39.9355,-72.7226 L -39.8553,-72.5522 L -39.7971,-72.373
 L -39.7618,-72.188 L -39.75,-72 L -39.7618,-71.812 L -39.7971,-71.627 L -39.8553,-71.4478 L -39.9355,-71.2774
 L -40.0365,-71.1183 L -40.1565,-70.9732 L -40.2939,-70.8442 L -40.4463,-70.7335 L -40.6113,-70.6428 L -40.7865,-70.5734
 L -40.9689,-70.5266 L -41.1558,-70.503 z
M 3.65581,-70.503 L 3.46892,-70.5266 L 3.28647,-70.5734 L 3.11133,-70.6428 L 2.94626,-70.7335 L 2.79385,-70.8442
 L 2.65654,-70.9732 L 2.53647,-71.1183 L 2.43553,-71.2774 L 2.35533,-71.4478 L 2.29712,-71.627 L 2.26183,-71.812
 L 2.25,-72 L 2.26183,-72.188 L 2.29712,-72.373 L 2.35533,-72.5522 L 2.43553,-72.7226 L 2.53647,-72.8817
 L 2.65654,-73.0268 L 2.79385,-73.1558 L 2.94626,-73.2665 L 3.11133,-73.3572 L 3.28647,-73.4266 L 3.46892,-73.4734
 L 3.65581,-73.497 L 3.84418,-73.497 L 4.03107,-73.4734 L 4.21352,-73.4266 L 4.38866,-73.3572 L 4.55373,-73.2665
 L 4.70613,-73.1558 L 4.84344,-73.0268 L 4.96352,-72.8817 L 5.06445,-72.7226 L 5.14465,-72.5522 L 5.20287,-72.373
 L 5.23816,-72.188 L 5.25,-72 L 5.23816,-71.812 L 5.20287,-71.627 L 5.14465,-71.4478 L 5.06445,-71.2774
 L 4.96352,-71.1183 L 4.84344,-70.9732 L 4.70613,-70.8442 L 4.55373,-70.7335 L 4.38866,-70.6428 L 4.21352,-70.5734
 L 4.03107,-70.5266 L 3.84418,-70.503 z
M -11.3442,-70.503 L -11.5311,-70.5266 L -11.7135,-70.5734 L -11.8887,-70.6428 L -12.0537,-70.7335 L -12.2061,-70.8442
 L -12.3434,-70.9732 L -12.4635,-71.1183 L -12.5645,-71.2774 L -12.6447,-71.4478 L -12.7029,-71.627 L -12.7382,-71.812
 L -12.75,-72 L -12.7382,-72.188 L -12.7029,-72.373 L -12.6447,-72.5522 L -12.5645,-72.7226 L -12.4635,-72.8817
 L -12.3434,-73.0268 L -12.2061,-73.1558 L -12.0537,-73.2665 L -11.8887,-73.3572 L -11.7135,-73.4266 L -11.5311,-73.4734
 L -11.3442,-73.497 L -11.1558,-73.497 L -10.9689,-73.4734 L -10.7865,-73.4266 L -10.6113,-73.3572 L -10.4463,-73.2665
 L -10.2939,-73.1558 L -10.1565,-73.0268 L -10.0365,-72.8817 L -9.93553,-72.7226 L -9.85533,-72.5522 L -9.79712,-72.373
 L -9.76183,-72.188 L -9.75,-72 L -9.76183,-71.812 L -9.79712,-71.627 L -9.85533,-71.4478 L -9.93553,-71.2774
 L -10.0365,-71.1183 L -10.1565,-70.9732 L -10.2939,-70.8442 L -10.4463,-70.7335 L -10.6113,-70.6428 L -10.7865,-70.5734
 L -10.9689,-70.5266 L -11.1558,-70.503 z
M -3.84418,-70.503 L -4.03107,-70.5266 L -4.21352,-70.5734 L -4.38866,-70.6428 L -4.55373,-70.7335 L -4.70613,-70.8442
 L -4.84344,-70.9732 L -4.96352,-71.1183 L -5.06445,-71.2774 L -5.14465,-71.4478 L -5.20287,-71.627 L -5.23816,-71.812
 L -5.25,-72 L -5.23816,-72.188 L -5.20287,-72.373 L -5.14465,-72.5522 L -5.06445,-72.7226 L -4.96352,-72.8817
 L -4.84344,-73.0268 L -4.70613,-73.1558 L -4.55373,-73.2665 L -4.38866,-73.3572 L -4.21352,-73.4266 L -4.03107,-73.4734
 L -3.84418,-73.497 L -3.65581,-73.497 L -3.46892,-73.4734 L -3.28647,-73.4266 L -3.11133,-73.3572 L -2.94626,-73.2665
 L -2.79385,-73.1558 L -2.65654,-73.0268 L -2.53647,-72.8817 L -2.43553,-72.7226 L -2.35533,-72.5522 L -2.29712,-72.373
 L -2.26183,-72.188 L -2.25,-72 L -2.26183,-71.812 L -2.29712,-71.627 L -2.35533,-71.4478 L -2.43553,-71.2774
 L -2.53647,-71.1183 L -2.65654,-70.9732 L -2.79385,-70.8442 L -2.94626,-70.7335 L -3.11133,-70.6428 L -3.28647,-70.5734
 L -3.46892,-70.5266 L -3.65581,-70.503 z
M 18.6558,-70.503 L 18.4689,-70.5266 L 18.2865,-70.5734 L 18.1113,-70.6428 L 17.9463,-70.7335 L 17.7939,-70.8442
 L 17.6565,-70.9732 L 17.5365,-71.1183 L 17.4355,-71.2774 L 17.3553,-71.4478 L 17.2971,-71.627 L 17.2618,-71.812
 L 17.25,-72 L 17.2618,-72.188 L 17.2971,-72.373 L 17.3553,-72.5522 L 17.4355,-72.7226 L 17.5365,-72.8817
 L 17.6565,-73.0268 L 17.7939,-73.1558 L 17.9463,-73.2665 L 18.1113,-73.3572 L 18.2865,-73.4266 L 18.4689,-73.4734
 L 18.6558,-73.497 L 18.8442,-73.497 L 19.0311,-73.4734 L 19.2135,-73.4266 L 19.3887,-73.3572 L 19.5537,-73.2665
 L 19.7061,-73.1558 L 19.8434,-73.0268 L 19.9635,-72.8817 L 20.0645,-72.7226 L 20.1447,-72.5522 L 20.2029,-72.373
 L 20.2382,-72.188 L 20.25,-72 L 20.2382,-71.812 L 20.2029,-71.627 L 20.1447,-71.4478 L 20.0645,-71.2774
 L 19.9635,-71.1183 L 19.8434,-70.9732 L 19.7061,-70.8442 L 19.5537,-70.7335 L 19.3887,-70.6428 L 19.2135,-70.5734
 L 19.0311,-70.5266 L 18.8442,-70.503 z
M 26.1558,-70.503 L 25.9689,-70.5266 L 25.7865,-70.5734 L 25.6113,-70.6428 L 25.4463,-70.7335 L 25.2939,-70.8442
 L 25.1565,-70.9732 L 25.0365,-71.1183 L 24.9355,-71.2774 L 24.8553,-71.4478 L 24.7971,-71.627 L 24.7618,-71.812
 L 24.75,-72 L 24.7618,-72.188 L 24.7971,-72.373 L 24.8553,-72.5522 L 24.9355,-72.7226 L 25.0365,-72.8817
 L 25.1565,-73.0268 L 25.2939,-73.1558 L 25.4463,-73.2665 L 25.6113,-73.3572 L 25.7865,-73.4266 L 25.9689,-73.4734
 L 26.1558,-73.497 L 26.3442,-73.497 L 26.5311,-73.4734 L 26.7135,-73.4266 L 26.8887,-73.3572 L 27.0537,-73.2665
 L 27.2061,-73.1558 L 27.3434,-73.0268 L 27.4635,-72.8817 L 27.5645,-72.7226 L 27.6447,-72.5522 L 27.7029,-72.373
 L 27.7382,-72.188 L 27.75,-72 L 27.7382,-71.812 L 27.7029,-71.627 L 27.6447,-71.4478 L 27.5645,-71.2774
 L 27.4635,-71.1183 L 27.3434,-70.9732 L 27.2061,-70.8442 L 27.0537,-70.7335 L 26.8887,-70.6428 L 26.7135,-70.5734
 L 26.5311,-70.5266 L 26.3442,-70.503 z
M 11.1558,-70.503 L 10.9689,-70.5266 L 10.7865,-70.5734 L 10.6113,-70.6428 L 10.4463,-70.7335 L 10.2939,-70.8442
 L 10.1565,-70.9732 L 10.0365,-71.1183 L 9.93553,-71.2774 L 9.85533,-71.4478 L 9.79712,-71.627 L 9.76183,-71.812
 L 9.75,-72 L 9.76183,-72.188 L 9.79712,-72.373 L 9.85533,-72.5522 L 9.93553,-72.7226 L 10.0365,-72.8817
 L 10.1565,-73.0268 L 10.2939,-73.1558 L 10.4463,-73.2665 L 10.6113,-73.3572 L 10.7865,-73.4266 L 10.9689,-73.4734
 L 11.1558,-73.497 L 11.3442,-73.497 L 11.5311,-73.4734 L 11.7135,-73.4266 L 11.8887,-73.3572 L 12.0537,-73.2665
 L 12.2061,-73.1558 L 12.3434,-73.0268 L 12.4635,-72.8817 L 12.5645,-72.7226 L 12.6447,-72.5522 L 12.7029,-72.373
 L 12.7382,-72.188 L 12.75,-72 L 12.7382,-71.812 L 12.7029,-71.627 L 12.6447,-71.4478 L 12.5645,-71.2774
 L 12.4635,-71.1183 L 12.3434,-70.9732 L 12.2061,-70.8442 L 12.0537,-70.7335 L 11.8887,-70.6428 L 11.7135,-70.5734
 L 11.5311,-70.5266 L 11.3442,-70.503 z
M -18.8442,-70.503 L -19.0311,-70.5266 L -19.2135,-70.5734 L -19.3887,-70.6428 L -19.5537,-70.7335 L -19.7061,-70.8442
 L -19.8434,-70.9732 L -19.9635,-71.1183 L -20.0645,-71.2774 L -20.1447,-71.4478 L -20.2029,-71.627 L -20.2382,-71.812
 L -20.25,-72 L -20.2382,-72.188 L -20.2029,-72.373 L -20.1447,-72.5522 L -20.0645,-72.7226 L -19.9635,-72.8817
 L -19.8434,-73.0268 L -19.7061,-73.1558 L -19.5537,-73.2665 L -19.3887,-73.3572 L -19.2135,-73.4266 L -19.0311,-73.4734
 L -18.8442,-73.497 L -18.6558,-73.497 L -18.4689,-73.4734 L -18.2865,-73.4266 L -18.1113,-73.3572 L -17.9463,-73.2665
 L -17.7939,-73.1558 L -17.6565,-73.0268 L -17.5365,-72.8817 L -17.4355,-72.7226 L -17.3553,-72.5522 L -17.2971,-72.373
 L -17.2618,-72.188 L -17.25,-72 L -17.2618,-71.812 L -17.2971,-71.627 L -17.3553,-71.4478 L -17.4355,-71.2774
 L -17.5365,-71.1183 L -17.6565,-70.9732 L -17.7939,-70.8442 L -17.9463,-70.7335 L -18.1113,-70.6428 L -18.2865,-70.5734
 L -18.4689,-70.5266 L -18.6558,-70.503 z
M -33.8442,-70.503 L -34.0311,-70.5266 L -34.2135,-70.5734 L -34.3887,-70.6428 L -34.5537,-70.7335 L -34.7061,-70.8442
 L -34.8434,-70.9732 L -34.9635,-71.1183 L -35.0645,-71.2774 L -35.1447,-71.4478 L -35.2029,-71.627 L -35.2382,-71.812
 L -35.25,-72 L -35.2382,-72.188 L -35.2029,-72.373 L -35.1447,-72.5522 L -35.0645,-72.7226 L -34.9635,-72.8817
 L -34.8434,-73.0268 L -34.7061,-73.1558 L -34.5537,-73.2665 L -34.3887,-73.3572 L -34.2135,-73.4266 L -34.0311,-73.4734
 L -33.8442,-73.497 L -33.6558,-73.497 L -33.4689,-73.4734 L -33.2865,-73.4266 L -33.1113,-73.3572 L -32.9463,-73.2665
 L -32.7939,-73.1558 L -32.6565,-73.0268 L -32.5365,-72.8817 L -32.4355,-72.7226 L -32.3553,-72.5522 L -32.2971,-72.373
 L -32.2618,-72.188 L -32.25,-72 L -32.2618,-71.812 L -32.2971,-71.627 L -32.3553,-71.4478 L -32.4355,-71.2774
 L -32.5365,-71.1183 L -32.6565,-70.9732 L -32.7939,-70.8442 L -32.9463,-70.7335 L -33.1113,-70.6428 L -33.2865,-70.5734
 L -33.4689,-70.5266 L -33.6558,-70.503 z
M -26.3442,-70.503 L -26.5311,-70.5266 L -26.7135,-70.5734 L -26.8887,-70.6428 L -27.0537,-70.7335 L -27.2061,-70.8442
 L -27.3434,-70.9732 L -27.4635,-71.1183 L -27.5645,-71.2774 L -27.6447,-71.4478 L -27.7029,-71.627 L -27.7382,-71.812
 L -27.75,-72 L -27.7382,-72.188 L -27.7029,-72.373 L -27.6447,-72.5522 L -27.5645,-72.7226 L -27.4635,-72.8817
 L -27.3434,-73.0268 L -27.2061,-73.1558 L -27.0537,-73.2665 L -26.8887,-73.3572 L -26.7135,-73.4266 L -26.5311,-73.4734
 L -26.3442,-73.497 L -26.1558,-73.497 L -25.9689,-73.4734 L -25.7865,-73.4266 L -25.6113,-73.3572 L -25.4463,-73.2665
 L -25.2939,-73.1558 L -25.1565,-73.0268 L -25.0365,-72.8817 L -24.9355,-72.7226 L -24.8553,-72.5522 L -24.7971,-72.373
 L -24.7618,-72.188 L -24.75,-72 L -24.7618,-71.812 L -24.7971,-71.627 L -24.8553,-71.4478 L -24.9355,-71.2774
 L -25.0365,-71.1183 L -25.1565,-70.9732 L -25.2939,-70.8442 L -25.4463,-70.7335 L -25.6113,-70.6428 L -25.7865,-70.5734
 L -25.9689,-70.5266 L -26.1558,-70.503 z
" stroke="black" fill="lightgray" stroke-width="0.5"/>
</svg>
