<?xml version="1.0" standalone="no"?>
<!DOCTYPE svg PUBLIC "-//W3C//DTD SVG 1.1//EN" "http://www.w3.org/Graphics/SVG/1.1/DTD/svg11.dtd">
<svg width="16mm" height="104mm" viewBox="-8 -220 16 104" xmlns="http://www.w3.org/2000/svg" version="1.1">
<title>OpenSCAD Model</title>
<path d="
M 5.21844,-212.544 L 5.52254,-212.622 L 5.81444,-212.738 L 6.08955,-212.889 L 6.34355,-213.074 L 6.57242,-213.289
 L 6.77254,-213.531 L 6.94077,-213.796 L 7.07443,-214.08 L 7.17145,-214.378 L 7.23029,-214.687 L 7.25,-215
 L 7.25,-217 L 7.23029,-217.313 L 7.17145,-217.622 L 7.07443,-217.92 L 6.94077,-218.204 L 6.77254,-218.469
 L 6.57242,-218.711 L 6.34355,-218.926 L 6.08955,-219.111 L 5.81444,-219.262 L 5.52254,-219.378 L 5.21844,-219.456
 L 4.90697,-219.495 L -4.90697,-219.495 L -5.21844,-219.456 L -5.52254,-219.378 L -5.81444,-219.262 L -6.08955,-219.111
 L -6.34355,-218.926 L -6.57242,-218.711 L -6.77254,-218.469 L -6.94077,-218.204 L -7.07443,-217.92 L -7.17145,-217.622
 L -7.23029,-217.313 L -7.25,-217 L -7.25,-215 L -7.23029,-214.687 L -7.17145,-214.378 L -7.07443,-214.08
 L -6.94077,-213.796 L -6.77254,-213.531 L -6.57242,-213.289 L -6.34355,-213.074 L -6.08955,-212.889 L -5.81444,-212.738
 L -5.52254,-212.622 L -5.21844,-212.544 L -4.90697,-212.505 L 4.90697,-212.505 z
M 3.65581,-214.503 L 3.46892,-214.527 L 3.28647,-214.573 L 3.11133,-214.643 L 2.94626,-214.734 L 2.79385,-214.844
 L 2.65654,-214.973 L 2.53647,-215.118 L 2.43553,-215.277 L 2.35533,-215.448 L 2.29712,-215.627 L 2.26183,-215.812
 L 2.25,-216 L 2.26183,-216.188 L 2.29712,-216.373 L 2.35533,-216.552 L 2.43553,-216.723 L 2.53647,-216.882
 L 2.65654,-217.027 L 2.79385,-217.156 L 2.94626,-217.266 L 3.11133,-217.357 L 3.28647,-217.427 L 3.46892,-217.473
 L 3.65581,-217.497 L 3.84418,-217.497 L 4.03107,-217.473 L 4.21352,-217.427 L 4.38866,-217.357 L 4.55373,-217.266
 L 4.70613,-217.156 L 4.84344,-217.027 L 4.96352,-216.882 L 5.06445,-216.723 L 5.14465,-216.552 L 5.20287,-216.373
 L 5.23816,-216.188 L 5.25,-216 L 5.23816,-215.812 L 5.20287,-215.627 L 5.14465,-215.448 L 5.06445,-215.277
 L 4.96352,-215.118 L 4.84344,-214.973 L 4.70613,-214.844 L 4.55373,-214.734 L 4.38866,-214.643 L 4.21352,-214.573
 L 4.03107,-214.527 L 3.84418,-214.503 z
M -3.84418,-214.503 L -4.03107,-214.527 L -4.21352,-214.573 L -4.38866,-214.643 L -4.55373,-214.734 L -4.70613,-214.844
 L -4.84344,-214.973 L -4.96352,-215.118 L -5.06445,-215.277 L -5.14465,-215.448 L -5.20287,-215.627 L -5.23816,-215.812
 L -5.25,-216 L -5.23816,-216.188 L -5.20287,-216.373 L -5.14465,-216.552 L -5.06445,-216.723 L -4.96352,-216.882
 L -4.84344,-217.027 L -4.70613,-217.156 L -4.55373,-217.266 L -4.38866,-217.357 L -4.21352,-217.427 L -4.03107,-217.473
 L -3.84418,-217.497 L -3.65581,-217.497 L -3.46892,-217.473 L -3.28647,-217.427 L -3.11133,-217.357 L -2.94626,-217.266
 L -2.79385,-217.156 L -2.65654,-217.027 L -2.53647,-216.882 L -2.43553,-216.723 L -2.35533,-216.552 L -2.29712,-216.373
 L -2.26183,-216.188 L -2.25,-216 L -2.26183,-215.812 L -2.29712,-215.627 L -2.35533,-215.448 L -2.43553,-215.277
 L -2.53647,-215.118 L -2.65654,-214.973 L -2.79385,-214.844 L -2.94626,-214.734 L -3.11133,-214.643 L -3.28647,-214.573
 L -3.46892,-214.527 L -3.65581,-214.503 z
M 5.21844,-188.544 L 5.52254,-188.622 L 5.81444,-188.738 L 6.08955,-188.889 L 6.34355,-189.074 L 6.57242,-189.289
 L 6.77254,-189.531 L 6.94077,-189.796 L 7.07443,-190.08 L 7.17145,-190.378 L 7.23029,-190.687 L 7.25,-191
 L 7.25,-193 L 7.23029,-193.313 L 7.17145,-193.622 L 7.07443,-193.92 L 6.94077,-194.204 L 6.77254,-194.469
 L 6.57242,-194.711 L 6.34355,-194.926 L 6.08955,-195.111 L 5.81444,-195.262 L 5.52254,-195.378 L 5.21844,-195.456
 L 4.90697,-195.495 L -4.90697,-195.495 L -5.21844,-195.456 L -5.52254,-195.378 L -5.81444,-195.262 L -6.08955,-195.111
 L -6.34355,-194.926 L -6.57242,-194.711 L -6.77254,-194.469 L -6.94077,-194.204 L -7.07443,-193.92 L -7.17145,-193.622
 L -7.23029,-193.313 L -7.25,-193 L -7.25,-191 L -7.23029,-190.687 L -7.17145,-190.378 L -7.07443,-190.08
 L -6.94077,-189.796 L -6.77254,-189.531 L -6.57242,-189.289 L -6.34355,-189.074 L -6.08955,-188.889 L -5.81444,-188.738
 L -5.52254,-188.622 L -5.21844,-188.544 L -4.90697,-188.505 L 4.90697,-188.505 z
M 3.65581,-190.503 L 3.46892,-190.527 L 3.28647,-190.573 L 3.11133,-190.643 L 2.94626,-190.734 L 2.79385,-190.844
 L 2.65654,-190.973 L 2.53647,-191.118 L 2.43553,-191.277 L 2.35533,-191.448 L 2.29712,-191.627 L 2.26183,-191.812
 L 2.25,-192 L 2.26183,-192.188 L 2.29712,-192.373 L 2.35533,-192.552 L 2.43553,-192.723 L 2.53647,-192.882
 L 2.65654,-193.027 L 2.79385,-193.156 L 2.94626,-193.266 L 3.11133,-193.357 L 3.28647,-193.427 L 3.46892,-193.473
 L 3.65581,-193.497 L 3.84418,-193.497 L 4.03107,-193.473 L 4.21352,-193.427 L 4.38866,-193.357 L 4.55373,-193.266
 L 4.70613,-193.156 L 4.84344,-193.027 L 4.96352,-192.882 L 5.06445,-192.723 L 5.14465,-192.552 L 5.20287,-192.373
 L 5.23816,-192.188 L 5.25,-192 L 5.23816,-191.812 L 5.20287,-191.627 L 5.14465,-191.448 L 5.06445,-191.277
 L 4.96352,-191.118 L 4.84344,-190.973 L 4.70613,-190.844 L 4.55373,-190.734 L 4.38866,-190.643 L 4.21352,-190.573
 L 4.03107,-190.527 L 3.84418,-190.503 z
M -3.84418,-190.503 L -4.03107,-190.527 L -4.21352,-190.573 L -4.38866,-190.643 L -4.55373,-190.734 L -4.70613,-190.844
 L -4.84344,-190.973 L -4.96352,-191.118 L -5.06445,-191.277 L -5.14465,-191.448 L -5.20287,-191.627 L -5.23816,-191.812
 L -5.25,-192 L -5.23816,-192.188 L -5.20287,-192.373 L -5.14465,-192.552 L -5.06445,-192.723 L -4.96352,-192.882
 L -4.84344,-193.027 L -4.70613,-193.156 L -4.55373,-193.266 L -4.38866,-193.357 L -4.21352,-193.427 L -4.03107,-193.473
 L -3.84418,-193.497 L -3.65581,-193.497 L -3.46892,-193.473 L -3.28647,-193.427 L -3.11133,-193.357 L -2.94626,-193.266
 L -2.79385,-193.156 L -2.65654,-193.027 L -2.53647,-192.882 L -2.43553,-192.723 L -2.35533,-192.552 L -2.29712,-192.373
 L -2.26183,-192.188 L -2.25,-192 L -2.26183,-191.812 L -2.29712,-191.627 L -2.35533,-191.448 L -2.43553,-191.277
 L -2.53647,-191.118 L -2.65654,-190.973 L -2.79385,-190.844 L -2.94626,-190.734 L -3.11133,-190.643 L -3.28647,-190.573
 L -3.46892,-190.527 L -3.65581,-190.503 z
M 5.21844,-164.544 L 5.52254,-164.622 L 5.81444,-164.738 L 6.08955,-164.889 L 6.34355,-165.074 L 6.57242,-165.289
 L 6.77254,-165.531 L 6.94077,-165.796 L 7.07443,-166.08 L 7.17145,-166.378 L 7.23029,-166.687 L 7.25,-167
 L 7.25,-169 L 7.23029,-169.313 L 7.17145,-169.622 L 7.07443,-169.92 L 6.94077,-170.204 L 6.77254,-170.469
 L 6.57242,-170.711 L 6.34355,-170.926 L 6.08955,-171.111 L 5.81444,-171.262 L 5.52254,-171.378 L 5.21844,-171.456
 L 4.90697,-171.495 L -4.90697,-171.495 L -5.21844,-171.456 L -5.52254,-171.378 L -5.81444,-171.262 L -6.08955,-171.111
 L -6.34355,-170.926 L -6.57242,-170.711 L -6.77254,-170.469 L -6.94077,-170.204 L -7.07443,-169.92 L -7.17145,-169.622
 L -7.23029,-169.313 L -7.25,-169 L -7.25,-167 L -7.23029,-166.687 L -7.17145,-166.378 L -7.07443,-166.08
 L -6.94077,-165.796 L -6.77254,-165.531 L -6.57242,-165.289 L -6.34355,-165.074 L -6.08955,-164.889 L -5.81444,-164.738
 L -5.52254,-164.622 L -5.21844,-164.544 L -4.90697,-164.505 L 4.90697,-164.505 z
M 3.65581,-166.503 L 3.46892,-166.527 L 3.28647,-166.573 L 3.11133,-166.643 L 2.94626,-166.734 L 2.79385,-166.844
 L 2.65654,-166.973 L 2.53647,-167.118 L 2.43553,-167.277 L 2.35533,-167.448 L 2.29712,-167.627 L 2.26183,-167.812
 L 2.25,-168 L 2.26183,-168.188 L 2.29712,-168.373 L 2.35533,-168.552 L 2.43553,-168.723 L 2.53647,-168.882
 L 2.65654,-169.027 L 2.79385,-169.156 L 2.94626,-169.266 L 3.11133,-169.357 L 3.28647,-169.427 L 3.46892,-169.473
 L 3.65581,-169.497 L 3.84418,-169.497 L 4.03107,-169.473 L 4.21352,-169.427 L 4.38866,-169.357 L 4.55373,-169.266
 L 4.70613,-169.156 L 4.84344,-169.027 L 4.96352,-168.882 L 5.06445,-168.723 L 5.14465,-168.552 L 5.20287,-168.373
 L 5.23816,-168.188 L 5.25,-168 L 5.23816,-167.812 L 5.20287,-167.627 L 5.14465,-167.448 L 5.06445,-167.277
 L 4.96352,-167.118 L 4.84344,-166.973 L 4.70613,-166.844 L 4.55373,-166.734 L 4.38866,-166.643 L 4.21352,-166.573
 L 4.03107,-166.527 L 3.84418,-166.503 z
M -3.84418,-166.503 L -4.03107,-166.527 L -4.21352,-166.573 L -4.38866,-166.643 L -4.55373,-166.734 L -4.70613,-166.844
 L -4.84344,-166.973 L -4.96352,-167.118 L -5.06445,-167.277 L -5.14465,-167.448 L -5.20287,-167.627 L -5.23816,-167.812
 L -5.25,-168 L -5.23816,-168.188 L -5.20287,-168.373 L -5.14465,-168.552 L -5.06445,-168.723 L -4.96352,-168.882
 L -4.84344,-169.027 L -4.70613,-169.156 L -4.55373,-169.266 L -4.38866,-169.357 L -4.21352,-169.427 L -4.03107,-169.473
 L -3.84418,-169.497 L -3.65581,-169.497 L -3.46892,-169.473 L -3.28647,-169.427 L -3.11133,-169.357 L -2.94626,-169.266
 L -2.79385,-169.156 L -2.65654,-169.027 L -2.53647,-168.882 L -2.43553,-168.723 L -2.35533,-168.552 L -2.29712,-168.373
 L -2.26183,-168.188 L -2.25,-168 L -2.26183,-167.812 L -2.29712,-167.627 L -2.35533,-167.448 L -2.43553,-167.277
 L -2.53647,-167.118 L -2.65654,-166.973 L -2.79385,-166.844 L -2.94626,-166.734 L -3.11133,-166.643 L -3.28647,-166.573
 L -3.46892,-166.527 L -3.65581,-166.503 z
M 5.21844,-140.544 L 5.52254,-140.622 L 5.81444,-140.738 L 6.08955,-140.889 L 6.34355,-141.074 L 6.57242,-141.289
 L 6.77254,-141.531 L 6.94077,-141.796 L 7.07443,-142.08 L 7.17145,-142.378 L 7.23029,-142.687 L 7.25,-143
 L 7.25,-145 L 7.23029,-145.313 L 7.17145,-145.622 L 7.07443,-145.92 L 6.94077,-146.204 L 6.77254,-146.469
 L 6.57242,-146.711 L 6.34355,-146.926 L 6.08955,-147.111 L 5.81444,-147.262 L 5.52254,-147.378 L 5.21844,-147.456
 L 4.90697,-147.495 L -4.90697,-147.495 L -5.21844,-147.456 L -5.52254,-147.378 L -5.81444,-147.262 L -6.08955,-147.111
 L -6.34355,-146.926 L -6.57242,-146.711 L -6.77254,-146.469 L -6.94077,-146.204 L -7.07443,-145.92 L -7.17145,-145.622
 L -7.23029,-145.313 L -7.25,-145 L -7.25,-143 L -7.23029,-142.687 L -7.17145,-142.378 L -7.07443,-142.08
 L -6.94077,-141.796 L -6.77254,-141.531 L -6.57242,-141.289 L -6.34355,-141.074 L -6.08955,-140.889 L -5.81444,-140.738
 L -5.52254,-140.622 L -5.21844,-140.544 L -4.90697,-140.505 L 4.90697,-140.505 z
M 3.65581,-142.503 L 3.46892,-142.527 L 3.28647,-142.573 L 3.11133,-142.643 L 2.94626,-142.734 L 2.79385,-142.844
 L 2.65654,-142.973 L 2.53647,-143.118 L 2.43553,-143.277 L 2.35533,-143.448 L 2.29712,-143.627 L 2.26183,-143.812
 L 2.25,-144 L 2.26183,-144.188 L 2.29712,-144.373 L 2.35533,-144.552 L 2.43553,-144.723 L 2.53647,-144.882
 L 2.65654,-145.027 L 2.79385,-145.156 L 2.94626,-145.266 L 3.11133,-145.357 L 3.28647,-145.427 L 3.46892,-145.473
 L 3.65581,-145.497 L 3.84418,-145.497 L 4.03107,-145.473 L 4.21352,-145.427 L 4.38866,-145.357 L 4.55373,-145.266
 L 4.70613,-145.156 L 4.84344,-145.027 L 4.96352,-144.882 L 5.06445,-144.723 L 5.14465,-144.552 L 5.20287,-144.373
 L 5.23816,-144.188 L 5.25,-144 L 5.23816,-143.812 L 5.20287,-143.627 L 5.14465,-143.448 L 5.06445,-143.277
 L 4.96352,-143.118 L 4.84344,-142.973 L 4.70613,-142.844 L 4.55373,-142.734 L 4.38866,-142.643 L 4.21352,-142.573
 L 4.03107,-142.527 L 3.84418,-142.503 z
M -3.84418,-142.503 L -4.03107,-142.527 L -4.21352,-142.573 L -4.38866,-142.643 L -4.55373,-142.734 L -4.70613,-142.844
 L -4.84344,-142.973 L -4.96352,-143.118 L -5.06445,-143.277 L -5.14465,-143.448 L -5.20287,-143.627 L -5.23816,-143.812
 L -5.25,-144 L -5.23816,-144.188 L -5.20287,-144.373 L -5.14465,-144.552 L -5.06445,-144.723 L -4.96352,-144.882
 L -4.84344,-145.027 L -4.70613,-145.156 L -4.55373,-145.266 L -4.38866,-145.357 L -4.21352,-145.427 L -4.03107,-145.473
 L -3.84418,-145.497 L -3.65581,-145.497 L -3.46892,-145.473 L -3.28647,-145.427 L -3.11133,-145.357 L -2.94626,-145.266
 L -2.79385,-145.156 L -2.65654,-145.027 L -2.53647,-144.882 L -2.43553,-144.723 L -2.35533,-144.552 L -2.29712,-144.373
 L -2.26183,-144.188 L -2.25,-144 L -2.26183,-143.812 L -2.29712,-143.627 L -2.35533,-143.448 L -2.43553,-143.277
 L -2.53647,-143.118 L -2.65654,-142.973 L -2.79385,-142.844 L -2.94626,-142.734 L -3.11133,-142.643 L -3.28647,-142.573
 L -3.46892,-142.527 L -3.65581,-142.503 z
M 5.21844,-116.544 L 5.52254,-116.622 L 5.81444,-116.738 L 6.08955,-116.889 L 6.34355,-117.074 L 6.57242,-117.289
 L 6.77254,-117.531 L 6.94077,-117.796 L 7.07443,-118.08 L 7.17145,-118.378 L 7.23029,-118.687 L 7.25,-119
 L 7.25,-121 L 7.23029,-121.313 L 7.17145,-121.622 L 7.07443,-121.92 L 6.94077,-122.204 L 6.77254,-122.469
 L 6.57242,-122.711 L 6.34355,-122.926 L 6.08955,-123.111 L 5.81444,-123.262 L 5.52254,-123.378 L 5.21844,-123.456
 L 4.90697,-123.495 L -4.90697,-123.495 L -5.21844,-123.456 L -5.52254,-123.378 L -5.81444,-123.262 L -6.08955,-123.111
 L -6.34355,-122.926 L -6.57242,-122.711 L -6.77254,-122.469 L -6.94077,-122.204 L -7.07443,-121.92 L -7.17145,-121.622
 L -7.23029,-121.313 L -7.25,-121 L -7.25,-119 L -7.23029,-118.687 L -7.17145,-118.378 L -7.07443,-118.08
 L -6.94077,-117.796 L -6.77254,-117.531 L -6.57242,-117.289 L -6.34355,-117.074 L -6.08955,-116.889 L -5.81444,-116.738
 L -5.52254,-116.622 L -5.21844,-116.544 L -4.90697,-116.505 L 4.90697,-116.505 z
M 3.65581,-118.503 L 3.46892,-118.527 L 3.28647,-118.573 L 3.11133,-118.643 L 2.94626,-118.734 L 2.79385,-118.844
 L 2.65654,-118.973 L 2.53647,-119.118 L 2.43553,-119.277 L 2.35533,-119.448 L 2.29712,-119.627 L 2.26183,-119.812
 L 2.25,-120 L 2.26183,-120.188 L 2.29712,-120.373 L 2.35533,-120.552 L 2.43553,-120.723 L 2.53647,-120.882
 L 2.65654,-121.027 L 2.79385,-121.156 L 2.94626,-121.266 L 3.11133,-121.357 L 3.28647,-121.427 L 3.46892,-121.473
 L 3.65581,-121.497 L 3.84418,-121.497 L 4.03107,-121.473 L 4.21352,-121.427 L 4.38866,-121.357 L 4.55373,-121.266
 L 4.70613,-121.156 L 4.84344,-121.027 L 4.96352,-120.882 L 5.06445,-120.723 L 5.14465,-120.552 L 5.20287,-120.373
 L 5.23816,-120.188 L 5.25,-120 L 5.23816,-119.812 L 5.20287,-119.627 L 5.14465,-119.448 L 5.06445,-119.277
 L 4.96352,-119.118 L 4.84344,-118.973 L 4.70613,-118.844 L 4.55373,-118.734 L 4.38866,-118.643 L 4.21352,-118.573
 L 4.03107,-118.527 L 3.84418,-118.503 z
M -3.84418,-118.503 L -4.03107,-118.527 L -4.21352,-118.573 L -4.38866,-118.643 L -4.55373,-118.734 L -4.70613,-118.844
 L -4.84344,-118.973 L -4.96352,-119.118 L -5.06445,-119.277 L -5.14465,-119.448 L -5.20287,-119.627 L -5.23816,-119.812
 L -5.25,-120 L -5.23816,-120.188 L -5.20287,-120.373 L -5.14465,-120.552 L -5.06445,-120.723 L -4.96352,-120.882
 L -4.84344,-121.027 L -4.70613,-121.156 L -4.55373,-121.266 L -4.38866,-121.357 L -4.21352,-121.427 L -4.03107,-121.473
 L -3.84418,-121.497 L -3.65581,-121.497 L -3.46892,-121.473 L -3.28647,-121.427 L -3.11133,-121.357 L -2.94626,-121.266
 L -2.79385,-121.156 L -2.65654,-121.027 L -2.53647,-120.882 L -2.43553,-120.723 L -2.35533,-120.552 L -2.29712,-120.373
 L -2.26183,-120.188 L -2.25,-120 L -2.26183,-119.812 L -2.29712,-119.627 L -2.35533,-119.448 L -2.43553,-119.277
 L -2.53647,-119.118 L -2.65654,-118.973 L -2.79385,-118.844 L -2.94626,-118.734 L -3.11133,-118.643 L -3.28647,-118.573
 L -3.46892,-118.527 L -3.65581,-118.503 z
" stroke="black" fill="lightgray" stroke-width="0.5"/>
</svg>
