<?xml version="1.0" standalone="no"?>
<!DOCTYPE svg PUBLIC "-//W3C//DTD SVG 1.1//EN" "http://www.w3.org/Graphics/SVG/1.1/DTD/svg11.dtd">
<svg width="120mm" height="93mm" viewBox="-60 -93 120 93" xmlns="http://www.w3.org/2000/svg" version="1.1">
<title>OpenSCAD Model</title>
<path d="
M 59.5,-87.5 L 59.4606,-88.1267 L 59.3429,-88.7434 L 59.1489,-89.3406 L 58.8815,-89.9088 L 58.5451,-90.4389
 L 58.1448,-90.9227 L 57.6871,-91.3526 L 57.1791,-91.7216 L 56.6289,-92.0241 L 56.0451,-92.2553 L 55.4369,-92.4114
 L 54.8139,-92.4901 L -54.8139,-92.4901 L -55.4369,-92.4114 L -56.0451,-92.2553 L -56.6289,-92.0241 L -57.1791,-91.7216
 L -57.6871,-91.3526 L -58.1448,-90.9227 L -58.5451,-90.4389 L -58.8815,-89.9088 L -59.1489,-89.3406 L -59.3429,-88.7434
 L -59.4606,-88.1267 L -59.5,-87.5 L -59.5,-72 L 59.5,-72 z
M -32.7483,-83.9133 L -32.7483,-87.0867 L -30,-88.6735 L -27.2517,-87.0867 L -27.2517,-83.9133 L -30,-82.3265
 z
M -37.6884,-82.5059 L -38.0621,-82.5531 L -38.427,-82.6468 L -38.7773,-82.7855 L -39.1075,-82.967 L -39.4123,-83.1884
 L -39.6869,-83.4464 L -39.927,-83.7366 L -40.1289,-84.0547 L -40.2893,-84.3956 L -40.4057,-84.7539 L -40.4763,-85.124
 L -40.5,-85.5 L -40.4763,-85.876 L -40.4057,-86.2461 L -40.2893,-86.6044 L -40.1289,-86.9453 L -39.927,-87.2634
 L -39.6869,-87.5536 L -39.4123,-87.8115 L -39.1075,-88.033 L -38.7773,-88.2145 L -38.427,-88.3532 L -38.0621,-88.4469
 L -37.6884,-88.4941 L -37.3116,-88.4941 L -36.9379,-88.4469 L -36.5729,-88.3532 L -36.2227,-88.2145 L -35.8925,-88.033
 L -35.5877,-87.8115 L -35.3131,-87.5536 L -35.0729,-87.2634 L -34.8711,-86.9453 L -34.7107,-86.6044 L -34.5942,-86.2461
 L -34.5237,-85.876 L -34.5,-85.5 L -34.5237,-85.124 L -34.5942,-84.7539 L -34.7107,-84.3956 L -34.8711,-84.0547
 L -35.0729,-83.7366 L -35.3131,-83.4464 L -35.5877,-83.1884 L -35.8925,-82.967 L -36.2227,-82.7855 L -36.5729,-82.6468
 L -36.9379,-82.5531 L -37.3116,-82.5059 z
M 52.3116,-82.5059 L 51.9379,-82.5531 L 51.5729,-82.6468 L 51.2227,-82.7855 L 50.8925,-82.967 L 50.5877,-83.1884
 L 50.3131,-83.4464 L 50.0729,-83.7366 L 49.8711,-84.0547 L 49.7107,-84.3956 L 49.5942,-84.7539 L 49.5237,-85.124
 L 49.5,-85.5 L 49.5237,-85.876 L 49.5942,-86.2461 L 49.7107,-86.6044 L 49.8711,-86.9453 L 50.0729,-87.2634
 L 50.3131,-87.5536 L 50.5877,-87.8115 L 50.8925,-88.033 L 51.2227,-88.2145 L 51.5729,-88.3532 L 51.9379,-88.4469
 L 52.3116,-88.4941 L 52.6884,-88.4941 L 53.0621,-88.4469 L 53.427,-88.3532 L 53.7773,-88.2145 L 54.1075,-88.033
 L 54.4123,-87.8115 L 54.6869,-87.5536 L 54.927,-87.2634 L 55.1289,-86.9453 L 55.2893,-86.6044 L 55.4057,-86.2461
 L 55.4763,-85.876 L 55.5,-85.5 L 55.4763,-85.124 L 55.4057,-84.7539 L 55.2893,-84.3956 L 55.1289,-84.0547
 L 54.927,-83.7366 L 54.6869,-83.4464 L 54.4123,-83.1884 L 54.1075,-82.967 L 53.7773,-82.7855 L 53.427,-82.6468
 L 53.0621,-82.5531 L 52.6884,-82.5059 z
M 37.3116,-82.5059 L 36.9379,-82.5531 L 36.5729,-82.6468 L 36.2227,-82.7855 L 35.8925,-82.967 L 35.5877,-83.1884
 L 35.3131,-83.4464 L 35.0729,-83.7366 L 34.8711,-84.0547 L 34.7107,-84.3956 L 34.5942,-84.7539 L 34.5237,-85.124
 L 34.5,-85.5 L 34.5237,-85.876 L 34.5942,-86.2461 L 34.7107,-86.6044 L 34.8711,-86.9453 L 35.0729,-87.2634
 L 35.3131,-87.5536 L 35.5877,-87.8115 L 35.8925,-88.033 L 36.2227,-88.2145 L 36.5729,-88.3532 L 36.9379,-88.4469
 L 37.3116,-88.4941 L 37.6884,-88.4941 L 38.0621,-88.4469 L 38.427,-88.3532 L 38.7773,-88.2145 L 39.1075,-88.033
 L 39.4123,-87.8115 L 39.6869,-87.5536 L 39.927,-87.2634 L 40.1289,-86.9453 L 40.2893,-86.6044 L 40.4057,-86.2461
 L 40.4763,-85.876 L 40.5,-85.5 L 40.4763,-85.124 L 40.4057,-84.7539 L 40.2893,-84.3956 L 40.1289,-84.0547
 L 39.927,-83.7366 L 39.6869,-83.4464 L 39.4123,-83.1884 L 39.1075,-82.967 L 38.7773,-82.7855 L 38.427,-82.6468
 L 38.0621,-82.5531 L 37.6884,-82.5059 z
M -7.68837,-82.5059 L -8.06213,-82.5531 L -8.42705,-82.6468 L -8.77733,-82.7855 L -9.10747,-82.967 L -9.41226,-83.1884
 L -9.6869,-83.4464 L -9.92705,-83.7366 L -10.1289,-84.0547 L -10.2893,-84.3956 L -10.4057,-84.7539 L -10.4763,-85.124
 L -10.5,-85.5 L -10.4763,-85.876 L -10.4057,-86.2461 L -10.2893,-86.6044 L -10.1289,-86.9453 L -9.92705,-87.2634
 L -9.6869,-87.5536 L -9.41226,-87.8115 L -9.10747,-88.033 L -8.77733,-88.2145 L -8.42705,-88.3532 L -8.06213,-88.4469
 L -7.68837,-88.4941 L -7.31161,-88.4941 L -6.93785,-88.4469 L -6.57294,-88.3532 L -6.22266,-88.2145 L -5.89252,-88.033
 L -5.58772,-87.8115 L -5.31308,-87.5536 L -5.07294,-87.2634 L -4.87108,-86.9453 L -4.71066,-86.6044 L -4.59424,-86.2461
 L -4.52365,-85.876 L -4.5,-85.5 L -4.52365,-85.124 L -4.59424,-84.7539 L -4.71066,-84.3956 L -4.87108,-84.0547
 L -5.07294,-83.7366 L -5.31308,-83.4464 L -5.58772,-83.1884 L -5.89252,-82.967 L -6.22266,-82.7855 L -6.57294,-82.6468
 L -6.93785,-82.5531 L -7.31161,-82.5059 z
M 22.3116,-82.5059 L 21.9379,-82.5531 L 21.5729,-82.6468 L 21.2227,-82.7855 L 20.8925,-82.967 L 20.5877,-83.1884
 L 20.3131,-83.4464 L 20.0729,-83.7366 L 19.8711,-84.0547 L 19.7107,-84.3956 L 19.5942,-84.7539 L 19.5237,-85.124
 L 19.5,-85.5 L 19.5237,-85.876 L 19.5942,-86.2461 L 19.7107,-86.6044 L 19.8711,-86.9453 L 20.0729,-87.2634
 L 20.3131,-87.5536 L 20.5877,-87.8115 L 20.8925,-88.033 L 21.2227,-88.2145 L 21.5729,-88.3532 L 21.9379,-88.4469
 L 22.3116,-88.4941 L 22.6884,-88.4941 L 23.0621,-88.4469 L 23.427,-88.3532 L 23.7773,-88.2145 L 24.1075,-88.033
 L 24.4123,-87.8115 L 24.6869,-87.5536 L 24.927,-87.2634 L 25.1289,-86.9453 L 25.2893,-86.6044 L 25.4057,-86.2461
 L 25.4763,-85.876 L 25.5,-85.5 L 25.4763,-85.124 L 25.4057,-84.7539 L 25.2893,-84.3956 L 25.1289,-84.0547
 L 24.927,-83.7366 L 24.6869,-83.4464 L 24.4123,-83.1884 L 24.1075,-82.967 L 23.7773,-82.7855 L 23.427,-82.6468
 L 23.0621,-82.5531 L 22.6884,-82.5059 z
M -22.6884,-82.5059 L -23.0621,-82.5531 L -23.427,-82.6468 L -23.7773,-82.7855 L -24.1075,-82.967 L -24.4123,-83.1884
 L -24.6869,-83.4464 L -24.927,-83.7366 L -25.1289,-84.0547 L -25.2893,-84.3956 L -25.4057,-84.7539 L -25.4763,-85.124
 L -25.5,-85.5 L -25.4763,-85.876 L -25.4057,-86.2461 L -25.2893,-86.6044 L -25.1289,-86.9453 L -24.927,-87.2634
 L -24.6869,-87.5536 L -24.4123,-87.8115 L -24.1075,-88.033 L -23.7773,-88.2145 L -23.427,-88.3532 L -23.0621,-88.4469
 L -22.6884,-88.4941 L -22.3116,-88.4941 L -21.9379,-88.4469 L -21.5729,-88.3532 L -21.2227,-88.2145 L -20.8925,-88.033
 L -20.5877,-87.8115 L -20.3131,-87.5536 L -20.0729,-87.2634 L -19.8711,-86.9453 L -19.7107,-86.6044 L -19.5942,-86.2461
 L -19.5237,-85.876 L -19.5,-85.5 L -19.5237,-85.124 L -19.5942,-84.7539 L -19.7107,-84.3956 L -19.8711,-84.0547
 L -20.0729,-83.7366 L -20.3131,-83.4464 L -20.5877,-83.1884 L -20.8925,-82.967 L -21.2227,-82.7855 L -21.5729,-82.6468
 L -21.9379,-82.5531 L -22.3116,-82.5059 z
M -52.6884,-82.5059 L -53.0621,-82.5531 L -53.427,-82.6468 L -53.7773,-82.7855 L -54.1075,-82.967 L -54.4123,-83.1884
 L -54.6869,-83.4464 L -54.927,-83.7366 L -55.1289,-84.0547 L -55.2893,-84.3956 L -55.4057,-84.7539 L -55.4763,-85.124
 L -55.5,-85.5 L -55.4763,-85.876 L -55.4057,-86.2461 L -55.2893,-86.6044 L -55.1289,-86.9453 L -54.927,-87.2634
 L -54.6869,-87.5536 L -54.4123,-87.8115 L -54.1075,-88.033 L -53.7773,-88.2145 L -53.427,-88.3532 L -53.0621,-88.4469
 L -52.6884,-88.4941 L -52.3116,-88.4941 L -51.9379,-88.4469 L -51.5729,-88.3532 L -51.2227,-88.2145 L -50.8925,-88.033
 L -50.5877,-87.8115 L -50.3131,-87.5536 L -50.0729,-87.2634 L -49.8711,-86.9453 L -49.7107,-86.6044 L -49.5942,-86.2461
 L -49.5237,-85.876 L -49.5,-85.5 L -49.5237,-85.124 L -49.5942,-84.7539 L -49.7107,-84.3956 L -49.8711,-84.0547
 L -50.0729,-83.7366 L -50.3131,-83.4464 L -50.5877,-83.1884 L -50.8925,-82.967 L -51.2227,-82.7855 L -51.5729,-82.6468
 L -51.9379,-82.5531 L -52.3116,-82.5059 z
M 7.31161,-82.5059 L 6.93785,-82.5531 L 6.57294,-82.6468 L 6.22266,-82.7855 L 5.89252,-82.967 L 5.58772,-83.1884
 L 5.31308,-83.4464 L 5.07294,-83.7366 L 4.87108,-84.0547 L 4.71066,-84.3956 L 4.59424,-84.7539 L 4.52365,-85.124
 L 4.5,-85.5 L 4.52365,-85.876 L 4.59424,-86.2461 L 4.71066,-86.6044 L 4.87108,-86.9453 L 5.07294,-87.2634
 L 5.31308,-87.5536 L 5.58772,-87.8115 L 5.89252,-88.033 L 6.22266,-88.2145 L 6.57294,-88.3532 L 6.93785,-88.4469
 L 7.31161,-88.4941 L 7.68837,-88.4941 L 8.06213,-88.4469 L 8.42705,-88.3532 L 8.77733,-88.2145 L 9.10747,-88.033
 L 9.41226,-87.8115 L 9.6869,-87.5536 L 9.92705,-87.2634 L 10.1289,-86.9453 L 10.2893,-86.6044 L 10.4057,-86.2461
 L 10.4763,-85.876 L 10.5,-85.5 L 10.4763,-85.124 L 10.4057,-84.7539 L 10.2893,-84.3956 L 10.1289,-84.0547
 L 9.92705,-83.7366 L 9.6869,-83.4464 L 9.41226,-83.1884 L 9.10747,-82.967 L 8.77733,-82.7855 L 8.42705,-82.6468
 L 8.06213,-82.5531 L 7.68837,-82.5059 z
M 14.8955,-83.8386 L 14.6881,-83.8648 L 14.4856,-83.9168 L 14.2912,-83.9937 L 14.108,-84.0944 L 13.9389,-84.2173
 L 13.7865,-84.3604 L 13.6532,-84.5215 L 13.5412,-84.698 L 13.4522,-84.8872 L 13.3876,-85.086 L 13.3484,-85.2914
 L 13.3353,-85.5 L 13.3484,-85.7086 L 13.3876,-85.914 L 13.4522,-86.1128 L 13.5412,-86.302 L 13.6532,-86.4785
 L 13.7865,-86.6396 L 13.9389,-86.7827 L 14.108,-86.9055 L 14.2912,-87.0063 L 14.4856,-87.0832 L 14.6881,-87.1352
 L 14.8955,-87.1614 L 15.1045,-87.1614 L 15.3119,-87.1352 L 15.5144,-87.0832 L 15.7088,-87.0063 L 15.892,-86.9055
 L 16.0611,-86.7827 L 16.2135,-86.6396 L 16.3468,-86.4785 L 16.4588,-86.302 L 16.5478,-86.1128 L 16.6124,-85.914
 L 16.6516,-85.7086 L 16.6647,-85.5 L 16.6516,-85.2914 L 16.6124,-85.086 L 16.5478,-84.8872 L 16.4588,-84.698
 L 16.3468,-84.5215 L 16.2135,-84.3604 L 16.0611,-84.2173 L 15.892,-84.0944 L 15.7088,-83.9937 L 15.5144,-83.9168
 L 15.3119,-83.8648 L 15.1045,-83.8386 z
M -45.1045,-83.8386 L -45.3119,-83.8648 L -45.5144,-83.9168 L -45.7088,-83.9937 L -45.892,-84.0944 L -46.0611,-84.2173
 L -46.2135,-84.3604 L -46.3468,-84.5215 L -46.4588,-84.698 L -46.5478,-84.8872 L -46.6124,-85.086 L -46.6516,-85.2914
 L -46.6647,-85.5 L -46.6516,-85.7086 L -46.6124,-85.914 L -46.5478,-86.1128 L -46.4588,-86.302 L -46.3468,-86.4785
 L -46.2135,-86.6396 L -46.0611,-86.7827 L -45.892,-86.9055 L -45.7088,-87.0063 L -45.5144,-87.0832 L -45.3119,-87.1352
 L -45.1045,-87.1614 L -44.8955,-87.1614 L -44.6881,-87.1352 L -44.4856,-87.0832 L -44.2912,-87.0063 L -44.108,-86.9055
 L -43.9389,-86.7827 L -43.7865,-86.6396 L -43.6532,-86.4785 L -43.5412,-86.302 L -43.4522,-86.1128 L -43.3876,-85.914
 L -43.3484,-85.7086 L -43.3353,-85.5 L -43.3484,-85.2914 L -43.3876,-85.086 L -43.4522,-84.8872 L -43.5412,-84.698
 L -43.6532,-84.5215 L -43.7865,-84.3604 L -43.9389,-84.2173 L -44.108,-84.0944 L -44.2912,-83.9937 L -44.4856,-83.9168
 L -44.6881,-83.8648 L -44.8955,-83.8386 z
M 44.8955,-83.8386 L 44.6881,-83.8648 L 44.4856,-83.9168 L 44.2912,-83.9937 L 44.108,-84.0944 L 43.9389,-84.2173
 L 43.7865,-84.3604 L 43.6532,-84.5215 L 43.5412,-84.698 L 43.4522,-84.8872 L 43.3876,-85.086 L 43.3484,-85.2914
 L 43.3353,-85.5 L 43.3484,-85.7086 L 43.3876,-85.914 L 43.4522,-86.1128 L 43.5412,-86.302 L 43.6532,-86.4785
 L 43.7865,-86.6396 L 43.9389,-86.7827 L 44.108,-86.9055 L 44.2912,-87.0063 L 44.4856,-87.0832 L 44.6881,-87.1352
 L 44.8955,-87.1614 L 45.1045,-87.1614 L 45.3119,-87.1352 L 45.5144,-87.0832 L 45.7088,-87.0063 L 45.892,-86.9055
 L 46.0611,-86.7827 L 46.2135,-86.6396 L 46.3468,-86.4785 L 46.4588,-86.302 L 46.5478,-86.1128 L 46.6124,-85.914
 L 46.6516,-85.7086 L 46.6647,-85.5 L 46.6516,-85.2914 L 46.6124,-85.086 L 46.5478,-84.8872 L 46.4588,-84.698
 L 46.3468,-84.5215 L 46.2135,-84.3604 L 46.0611,-84.2173 L 45.892,-84.0944 L 45.7088,-83.9937 L 45.5144,-83.9168
 L 45.3119,-83.8648 L 45.1045,-83.8386 z
M -15.1045,-83.8386 L -15.3119,-83.8648 L -15.5144,-83.9168 L -15.7088,-83.9937 L -15.892,-84.0944 L -16.0611,-84.2173
 L -16.2135,-84.3604 L -16.3468,-84.5215 L -16.4588,-84.698 L -16.5478,-84.8872 L -16.6124,-85.086 L -16.6516,-85.2914
 L -16.6647,-85.5 L -16.6516,-85.7086 L -16.6124,-85.914 L -16.5478,-86.1128 L -16.4588,-86.302 L -16.3468,-86.4785
 L -16.2135,-86.6396 L -16.0611,-86.7827 L -15.892,-86.9055 L -15.7088,-87.0063 L -15.5144,-87.0832 L -15.3119,-87.1352
 L -15.1045,-87.1614 L -14.8955,-87.1614 L -14.6881,-87.1352 L -14.4856,-87.0832 L -14.2912,-87.0063 L -14.108,-86.9055
 L -13.9389,-86.7827 L -13.7865,-86.6396 L -13.6532,-86.4785 L -13.5412,-86.302 L -13.4522,-86.1128 L -13.3876,-85.914
 L -13.3484,-85.7086 L -13.3353,-85.5 L -13.3484,-85.2914 L -13.3876,-85.086 L -13.4522,-84.8872 L -13.5412,-84.698
 L -13.6532,-84.5215 L -13.7865,-84.3604 L -13.9389,-84.2173 L -14.108,-84.0944 L -14.2912,-83.9937 L -14.4856,-83.9168
 L -14.6881,-83.8648 L -14.8955,-83.8386 z
M -56.0142,-74.9 L -56.0142,-80 L -48.9858,-80 L -48.9858,-74.9 z
M 48.9858,-74.9 L 48.9858,-80 L 56.0142,-80 L 56.0142,-74.9 z
M 3.98581,-74.9 L 3.98581,-80 L 11.0142,-80 L 11.0142,-74.9 z
M -11.0142,-74.9 L -11.0142,-80 L -3.98581,-80 L -3.98581,-74.9 z
M 33.9858,-74.9 L 33.9858,-80 L 41.0142,-80 L 41.0142,-74.9 z
M 18.9858,-74.9 L 18.9858,-80 L 26.0142,-80 L 26.0142,-74.9 z
M -26.0142,-74.9 L -26.0142,-80 L -18.9858,-80 L -18.9858,-74.9 z
M -41.0142,-74.9 L -41.0142,-80 L -33.9858,-80 L -33.9858,-74.9 z
M -55.0307,-50.9 L -57.7462,-50.9 L -57.7462,-56 L -55.0307,-56 L -55.0307,-59.9 L -55.1289,-60.0547
 L -55.2893,-60.3956 L -55.4057,-60.7539 L -55.4763,-61.124 L -55.5,-61.5 L -55.4763,-61.876 L -55.4057,-62.2461
 L -55.2893,-62.6044 L -55.1289,-62.9453 L -54.927,-63.2634 L -54.6869,-63.5536 L -54.4123,-63.8115 L -54.1075,-64.033
 L -53.7773,-64.2145 L -53.427,-64.3532 L -53.0621,-64.4469 L -52.6884,-64.4941 L -52.3116,-64.4941 L -51.9379,-64.4469
 L -51.5729,-64.3532 L -51.2227,-64.2145 L -50.8925,-64.033 L -50.5877,-63.8115 L -50.3131,-63.5536 L -50.0729,-63.2634
 L -49.8711,-62.9453 L -49.7107,-62.6044 L -49.5942,-62.2461 L -49.5237,-61.876 L -49.5,-61.5 L -49.5237,-61.124
 L -49.5942,-60.7539 L -49.7107,-60.3956 L -49.8711,-60.0547 L -49.9693,-59.9 L -49.9693,-56 L -47.2538,-56
 L -47.2538,-50.9 L -49.9693,-50.9 L -49.9693,-48 L -40.0307,-48 L -40.0307,-50.9 L -42.7462,-50.9
 L -42.7462,-56 L -40.0307,-56 L -40.0307,-59.9 L -40.1289,-60.0547 L -40.2893,-60.3956 L -40.4057,-60.7539
 L -40.4763,-61.124 L -40.5,-61.5 L -40.4763,-61.876 L -40.4057,-62.2461 L -40.2893,-62.6044 L -40.1289,-62.9453
 L -39.927,-63.2634 L -39.6869,-63.5536 L -39.4123,-63.8115 L -39.1075,-64.033 L -38.7773,-64.2145 L -38.427,-64.3532
 L -38.0621,-64.4469 L -37.6884,-64.4941 L -37.3116,-64.4941 L -36.9379,-64.4469 L -36.5729,-64.3532 L -36.2227,-64.2145
 L -35.8925,-64.033 L -35.5877,-63.8115 L -35.3131,-63.5536 L -35.0729,-63.2634 L -34.8711,-62.9453 L -34.7107,-62.6044
 L -34.5942,-62.2461 L -34.5237,-61.876 L -34.5,-61.5 L -34.5237,-61.124 L -34.5942,-60.7539 L -34.7107,-60.3956
 L -34.8711,-60.0547 L -34.9693,-59.9 L -34.9693,-56 L -32.2538,-56 L -32.2538,-50.9 L -34.9693,-50.9
 L -34.9693,-48 L -25.0307,-48 L -25.0307,-50.9 L -27.7462,-50.9 L -27.7462,-56 L -25.0307,-56
 L -25.0307,-59.9 L -25.1289,-60.0547 L -25.2893,-60.3956 L -25.4057,-60.7539 L -25.4763,-61.124 L -25.5,-61.5
 L -25.4763,-61.876 L -25.4057,-62.2461 L -25.2893,-62.6044 L -25.1289,-62.9453 L -24.927,-63.2634 L -24.6869,-63.5536
 L -24.4123,-63.8115 L -24.1075,-64.033 L -23.7773,-64.2145 L -23.427,-64.3532 L -23.0621,-64.4469 L -22.6884,-64.4941
 L -22.3116,-64.4941 L -21.9379,-64.4469 L -21.5729,-64.3532 L -21.2227,-64.2145 L -20.8925,-64.033 L -20.5877,-63.8115
 L -20.3131,-63.5536 L -20.0729,-63.2634 L -19.8711,-62.9453 L -19.7107,-62.6044 L -19.5942,-62.2461 L -19.5237,-61.876
 L -19.5,-61.5 L -19.5237,-61.124 L -19.5942,-60.7539 L -19.7107,-60.3956 L -19.8711,-60.0547 L -19.9693,-59.9
 L -19.9693,-56 L -17.2538,-56 L -17.2538,-50.9 L -19.9693,-50.9 L -19.9693,-48 L -10.0307,-48
 L -10.0307,-50.9 L -12.7462,-50.9 L -12.7462,-56 L -10.0307,-56 L -10.0307,-59.9 L -10.1289,-60.0547
 L -10.2893,-60.3956 L -10.4057,-60.7539 L -10.4763,-61.124 L -10.5,-61.5 L -10.4763,-61.876 L -10.4057,-62.2461
 L -10.2893,-62.6044 L -10.1289,-62.9453 L -9.92705,-63.2634 L -9.6869,-63.5536 L -9.41226,-63.8115 L -9.10747,-64.033
 L -8.77733,-64.2145 L -8.42705,-64.3532 L -8.06213,-64.4469 L -7.68837,-64.4941 L -7.31161,-64.4941 L -6.93785,-64.4469
 L -6.57294,-64.3532 L -6.22266,-64.2145 L -5.89252,-64.033 L -5.58772,-63.8115 L -5.31308,-63.5536 L -5.07294,-63.2634
 L -4.87108,-62.9453 L -4.71066,-62.6044 L -4.59424,-62.2461 L -4.52365,-61.876 L -4.5,-61.5 L -4.52365,-61.124
 L -4.59424,-60.7539 L -4.71066,-60.3956 L -4.87108,-60.0547 L -4.96927,-59.9 L -4.96927,-56 L -2.25375,-56
 L -2.25375,-50.9 L -4.96927,-50.9 L -4.96927,-48 L 4.96927,-48 L 4.96927,-50.9 L 2.25375,-50.9
 L 2.25375,-56 L 4.96927,-56 L 4.96927,-59.9 L 4.87108,-60.0547 L 4.71066,-60.3956 L 4.59424,-60.7539
 L 4.52365,-61.124 L 4.5,-61.5 L 4.52365,-61.876 L 4.59424,-62.2461 L 4.71066,-62.6044 L 4.87108,-62.9453
 L 5.07294,-63.2634 L 5.31308,-63.5536 L 5.58772,-63.8115 L 5.89252,-64.033 L 6.22266,-64.2145 L 6.57294,-64.3532
 L 6.93785,-64.4469 L 7.31161,-64.4941 L 7.68837,-64.4941 L 8.06213,-64.4469 L 8.42705,-64.3532 L 8.77733,-64.2145
 L 9.10747,-64.033 L 9.41226,-63.8115 L 9.6869,-63.5536 L 9.92705,-63.2634 L 10.1289,-62.9453 L 10.2893,-62.6044
 L 10.4057,-62.2461 L 10.4763,-61.876 L 10.5,-61.5 L 10.4763,-61.124 L 10.4057,-60.7539 L 10.2893,-60.3956
 L 10.1289,-60.0547 L 10.0307,-59.9 L 10.0307,-56 L 12.7462,-56 L 12.7462,-50.9 L 10.0307,-50.9
 L 10.0307,-48 L 19.9693,-48 L 19.9693,-50.9 L 17.2538,-50.9 L 17.2538,-56 L 19.9693,-56
 L 19.9693,-59.9 L 19.8711,-60.0547 L 19.7107,-60.3956 L 19.5942,-60.7539 L 19.5237,-61.124 L 19.5,-61.5
 L 19.5237,-61.876 L 19.5942,-62.2461 L 19.7107,-62.6044 L 19.8711,-62.9453 L 20.0729,-63.2634 L 20.3131,-63.5536
 L 20.5877,-63.8115 L 20.8925,-64.033 L 21.2227,-64.2145 L 21.5729,-64.3532 L 21.9379,-64.4469 L 22.3116,-64.4941
 L 22.6884,-64.4941 L 23.0621,-64.4469 L 23.427,-64.3532 L 23.7773,-64.2145 L 24.1075,-64.033 L 24.4123,-63.8115
 L 24.6869,-63.5536 L 24.927,-63.2634 L 25.1289,-62.9453 L 25.2893,-62.6044 L 25.4057,-62.2461 L 25.4763,-61.876
 L 25.5,-61.5 L 25.4763,-61.124 L 25.4057,-60.7539 L 25.2893,-60.3956 L 25.1289,-60.0547 L 25.0307,-59.9
 L 25.0307,-56 L 27.7462,-56 L 27.7462,-50.9 L 25.0307,-50.9 L 25.0307,-48 L 34.9693,-48
 L 34.9693,-50.9 L 32.2538,-50.9 L 32.2538,-56 L 34.9693,-56 L 34.9693,-59.9 L 34.8711,-60.0547
 L 34.7107,-60.3956 L 34.5942,-60.7539 L 34.5237,-61.124 L 34.5,-61.5 L 34.5237,-61.876 L 34.5942,-62.2461
 L 34.7107,-62.6044 L 34.8711,-62.9453 L 35.0729,-63.2634 L 35.3131,-63.5536 L 35.5877,-63.8115 L 35.8925,-64.033
 L 36.2227,-64.2145 L 36.5729,-64.3532 L 36.9379,-64.4469 L 37.3116,-64.4941 L 37.6884,-64.4941 L 38.0621,-64.4469
 L 38.427,-64.3532 L 38.7773,-64.2145 L 39.1075,-64.033 L 39.4123,-63.8115 L 39.6869,-63.5536 L 39.927,-63.2634
 L 40.1289,-62.9453 L 40.2893,-62.6044 L 40.4057,-62.2461 L 40.4763,-61.876 L 40.5,-61.5 L 40.4763,-61.124
 L 40.4057,-60.7539 L 40.2893,-60.3956 L 40.1289,-60.0547 L 40.0307,-59.9 L 40.0307,-56 L 42.7462,-56
 L 42.7462,-50.9 L 40.0307,-50.9 L 40.0307,-48 L 49.9693,-48 L 49.9693,-50.9 L 47.2538,-50.9
 L 47.2538,-56 L 49.9693,-56 L 49.9693,-59.9 L 49.8711,-60.0547 L 49.7107,-60.3956 L 49.5942,-60.7539
 L 49.5237,-61.124 L 49.5,-61.5 L 49.5237,-61.876 L 49.5942,-62.2461 L 49.7107,-62.6044 L 49.8711,-62.9453
 L 50.0729,-63.2634 L 50.3131,-63.5536 L 50.5877,-63.8115 L 50.8925,-64.033 L 51.2227,-64.2145 L 51.5729,-64.3532
 L 51.9379,-64.4469 L 52.3116,-64.4941 L 52.6884,-64.4941 L 53.0621,-64.4469 L 53.427,-64.3532 L 53.7773,-64.2145
 L 54.1075,-64.033 L 54.4123,-63.8115 L 54.6869,-63.5536 L 54.927,-63.2634 L 55.1289,-62.9453 L 55.2893,-62.6044
 L 55.4057,-62.2461 L 55.4763,-61.876 L 55.5,-61.5 L 55.4763,-61.124 L 55.4057,-60.7539 L 55.2893,-60.3956
 L 55.1289,-60.0547 L 55.0307,-59.9 L 55.0307,-56 L 57.7462,-56 L 57.7462,-50.9 L 55.0307,-50.9
 L 55.0307,-48 L 59.5,-48 L 59.5,-63.5 L 59.4606,-64.1267 L 59.3429,-64.7434 L 59.1489,-65.3406
 L 58.8815,-65.9088 L 58.5451,-66.4389 L 58.1448,-66.9227 L 57.6871,-67.3526 L 57.1791,-67.7216 L 56.6289,-68.0241
 L 56.0451,-68.2553 L 55.4369,-68.4114 L 54.8139,-68.4901 L -54.8139,-68.4901 L -55.4369,-68.4114 L -56.0451,-68.2553
 L -56.6289,-68.0241 L -57.1791,-67.7216 L -57.6871,-67.3526 L -58.1448,-66.9227 L -58.5451,-66.4389 L -58.8815,-65.9088
 L -59.1489,-65.3406 L -59.3429,-64.7434 L -59.4606,-64.1267 L -59.5,-63.5 L -59.5,-48 L -55.0307,-48
 z
M -45.0942,-60.0029 L -45.2811,-60.0266 L -45.4635,-60.0734 L -45.6387,-60.1427 L -45.8037,-60.2335 L -45.9561,-60.3442
 L -46.0934,-60.4732 L -46.2135,-60.6183 L -46.3145,-60.7774 L -46.3947,-60.9478 L -46.4529,-61.127 L -46.4882,-61.312
 L -46.5,-61.5 L -46.4882,-61.688 L -46.4529,-61.873 L -46.3947,-62.0522 L -46.3145,-62.2226 L -46.2135,-62.3817
 L -46.0934,-62.5268 L -45.9561,-62.6558 L -45.8037,-62.7665 L -45.6387,-62.8572 L -45.4635,-62.9266 L -45.2811,-62.9734
 L -45.0942,-62.997 L -44.9058,-62.997 L -44.7189,-62.9734 L -44.5365,-62.9266 L -44.3613,-62.8572 L -44.1963,-62.7665
 L -44.0439,-62.6558 L -43.9065,-62.5268 L -43.7865,-62.3817 L -43.6855,-62.2226 L -43.6053,-62.0522 L -43.5471,-61.873
 L -43.5118,-61.688 L -43.5,-61.5 L -43.5118,-61.312 L -43.5471,-61.127 L -43.6053,-60.9478 L -43.6855,-60.7774
 L -43.7865,-60.6183 L -43.9065,-60.4732 L -44.0439,-60.3442 L -44.1963,-60.2335 L -44.3613,-60.1427 L -44.5365,-60.0734
 L -44.7189,-60.0266 L -44.9058,-60.0029 z
M 44.9058,-60.0029 L 44.7189,-60.0266 L 44.5365,-60.0734 L 44.3613,-60.1427 L 44.1963,-60.2335 L 44.0439,-60.3442
 L 43.9065,-60.4732 L 43.7865,-60.6183 L 43.6855,-60.7774 L 43.6053,-60.9478 L 43.5471,-61.127 L 43.5118,-61.312
 L 43.5,-61.5 L 43.5118,-61.688 L 43.5471,-61.873 L 43.6053,-62.0522 L 43.6855,-62.2226 L 43.7865,-62.3817
 L 43.9065,-62.5268 L 44.0439,-62.6558 L 44.1963,-62.7665 L 44.3613,-62.8572 L 44.5365,-62.9266 L 44.7189,-62.9734
 L 44.9058,-62.997 L 45.0942,-62.997 L 45.2811,-62.9734 L 45.4635,-62.9266 L 45.6387,-62.8572 L 45.8037,-62.7665
 L 45.9561,-62.6558 L 46.0934,-62.5268 L 46.2135,-62.3817 L 46.3145,-62.2226 L 46.3947,-62.0522 L 46.4529,-61.873
 L 46.4882,-61.688 L 46.5,-61.5 L 46.4882,-61.312 L 46.4529,-61.127 L 46.3947,-60.9478 L 46.3145,-60.7774
 L 46.2135,-60.6183 L 46.0934,-60.4732 L 45.9561,-60.3442 L 45.8037,-60.2335 L 45.6387,-60.1427 L 45.4635,-60.0734
 L 45.2811,-60.0266 L 45.0942,-60.0029 z
M -30.0942,-60.0029 L -30.2811,-60.0266 L -30.4635,-60.0734 L -30.6387,-60.1427 L -30.8037,-60.2335 L -30.9561,-60.3442
 L -31.0934,-60.4732 L -31.2135,-60.6183 L -31.3145,-60.7774 L -31.3947,-60.9478 L -31.4529,-61.127 L -31.4882,-61.312
 L -31.5,-61.5 L -31.4882,-61.688 L -31.4529,-61.873 L -31.3947,-62.0522 L -31.3145,-62.2226 L -31.2135,-62.3817
 L -31.0934,-62.5268 L -30.9561,-62.6558 L -30.8037,-62.7665 L -30.6387,-62.8572 L -30.4635,-62.9266 L -30.2811,-62.9734
 L -30.0942,-62.997 L -29.9058,-62.997 L -29.7189,-62.9734 L -29.5365,-62.9266 L -29.3613,-62.8572 L -29.1963,-62.7665
 L -29.0439,-62.6558 L -28.9065,-62.5268 L -28.7865,-62.3817 L -28.6855,-62.2226 L -28.6053,-62.0522 L -28.5471,-61.873
 L -28.5118,-61.688 L -28.5,-61.5 L -28.5118,-61.312 L -28.5471,-61.127 L -28.6053,-60.9478 L -28.6855,-60.7774
 L -28.7865,-60.6183 L -28.9065,-60.4732 L -29.0439,-60.3442 L -29.1963,-60.2335 L -29.3613,-60.1427 L -29.5365,-60.0734
 L -29.7189,-60.0266 L -29.9058,-60.0029 z
M -15.0942,-60.0029 L -15.2811,-60.0266 L -15.4635,-60.0734 L -15.6387,-60.1427 L -15.8037,-60.2335 L -15.9561,-60.3442
 L -16.0934,-60.4732 L -16.2135,-60.6183 L -16.3145,-60.7774 L -16.3947,-60.9478 L -16.4529,-61.127 L -16.4882,-61.312
 L -16.5,-61.5 L -16.4882,-61.688 L -16.4529,-61.873 L -16.3947,-62.0522 L -16.3145,-62.2226 L -16.2135,-62.3817
 L -16.0934,-62.5268 L -15.9561,-62.6558 L -15.8037,-62.7665 L -15.6387,-62.8572 L -15.4635,-62.9266 L -15.2811,-62.9734
 L -15.0942,-62.997 L -14.9058,-62.997 L -14.7189,-62.9734 L -14.5365,-62.9266 L -14.3613,-62.8572 L -14.1963,-62.7665
 L -14.0439,-62.6558 L -13.9065,-62.5268 L -13.7865,-62.3817 L -13.6855,-62.2226 L -13.6053,-62.0522 L -13.5471,-61.873
 L -13.5118,-61.688 L -13.5,-61.5 L -13.5118,-61.312 L -13.5471,-61.127 L -13.6053,-60.9478 L -13.6855,-60.7774
 L -13.7865,-60.6183 L -13.9065,-60.4732 L -14.0439,-60.3442 L -14.1963,-60.2335 L -14.3613,-60.1427 L -14.5365,-60.0734
 L -14.7189,-60.0266 L -14.9058,-60.0029 z
M 14.9058,-60.0029 L 14.7189,-60.0266 L 14.5365,-60.0734 L 14.3613,-60.1427 L 14.1963,-60.2335 L 14.0439,-60.3442
 L 13.9065,-60.4732 L 13.7865,-60.6183 L 13.6855,-60.7774 L 13.6053,-60.9478 L 13.5471,-61.127 L 13.5118,-61.312
 L 13.5,-61.5 L 13.5118,-61.688 L 13.5471,-61.873 L 13.6053,-62.0522 L 13.6855,-62.2226 L 13.7865,-62.3817
 L 13.9065,-62.5268 L 14.0439,-62.6558 L 14.1963,-62.7665 L 14.3613,-62.8572 L 14.5365,-62.9266 L 14.7189,-62.9734
 L 14.9058,-62.997 L 15.0942,-62.997 L 15.2811,-62.9734 L 15.4635,-62.9266 L 15.6387,-62.8572 L 15.8037,-62.7665
 L 15.9561,-62.6558 L 16.0934,-62.5268 L 16.2135,-62.3817 L 16.3145,-62.2226 L 16.3947,-62.0522 L 16.4529,-61.873
 L 16.4882,-61.688 L 16.5,-61.5 L 16.4882,-61.312 L 16.4529,-61.127 L 16.3947,-60.9478 L 16.3145,-60.7774
 L 16.2135,-60.6183 L 16.0934,-60.4732 L 15.9561,-60.3442 L 15.8037,-60.2335 L 15.6387,-60.1427 L 15.4635,-60.0734
 L 15.2811,-60.0266 L 15.0942,-60.0029 z
M -55.0942,-26.9 L -57.804,-26.9 L -57.804,-32 L -55.0942,-32 L -55.0942,-36 L -55.1289,-36.0547
 L -55.2893,-36.3956 L -55.4057,-36.7539 L -55.4763,-37.124 L -55.5,-37.5 L -55.4763,-37.876 L -55.4057,-38.2461
 L -55.2893,-38.6044 L -55.1289,-38.9453 L -54.927,-39.2634 L -54.6869,-39.5536 L -54.4123,-39.8115 L -54.1075,-40.033
 L -53.7773,-40.2145 L -53.427,-40.3532 L -53.0621,-40.4469 L -52.6884,-40.4941 L -52.3116,-40.4941 L -51.9379,-40.4469
 L -51.5729,-40.3532 L -51.2227,-40.2145 L -50.8925,-40.033 L -50.5877,-39.8115 L -50.3131,-39.5536 L -50.0729,-39.2634
 L -49.8711,-38.9453 L -49.7107,-38.6044 L -49.5942,-38.2461 L -49.5237,-37.876 L -49.5,-37.5 L -49.5237,-37.124
 L -49.5942,-36.7539 L -49.7107,-36.3956 L -49.8711,-36.0547 L -49.9058,-36 L -49.9058,-32 L -47.196,-32
 L -47.196,-26.9 L -49.9058,-26.9 L -49.9058,-24 L -40.0942,-24 L -40.0942,-26.9 L -42.804,-26.9
 L -42.804,-32 L -40.0942,-32 L -40.0942,-36 L -40.1289,-36.0547 L -40.2893,-36.3956 L -40.4057,-36.7539
 L -40.4763,-37.124 L -40.5,-37.5 L -40.4763,-37.876 L -40.4057,-38.2461 L -40.2893,-38.6044 L -40.1289,-38.9453
 L -39.927,-39.2634 L -39.6869,-39.5536 L -39.4123,-39.8115 L -39.1075,-40.033 L -38.7773,-40.2145 L -38.427,-40.3532
 L -38.0621,-40.4469 L -37.6884,-40.4941 L -37.3116,-40.4941 L -36.9379,-40.4469 L -36.5729,-40.3532 L -36.2227,-40.2145
 L -35.8925,-40.033 L -35.5877,-39.8115 L -35.3131,-39.5536 L -35.0729,-39.2634 L -34.8711,-38.9453 L -34.7107,-38.6044
 L -34.5942,-38.2461 L -34.5237,-37.876 L -34.5,-37.5 L -34.5237,-37.124 L -34.5942,-36.7539 L -34.7107,-36.3956
 L -34.8711,-36.0547 L -34.9058,-36 L -34.9058,-32 L -32.196,-32 L -32.196,-26.9 L -34.9058,-26.9
 L -34.9058,-24 L -25.0942,-24 L -25.0942,-26.9 L -27.804,-26.9 L -27.804,-32 L -25.0942,-32
 L -25.0942,-36 L -25.1289,-36.0547 L -25.2893,-36.3956 L -25.4057,-36.7539 L -25.4763,-37.124 L -25.5,-37.5
 L -25.4763,-37.876 L -25.4057,-38.2461 L -25.2893,-38.6044 L -25.1289,-38.9453 L -24.927,-39.2634 L -24.6869,-39.5536
 L -24.4123,-39.8115 L -24.1075,-40.033 L -23.7773,-40.2145 L -23.427,-40.3532 L -23.0621,-40.4469 L -22.6884,-40.4941
 L -22.3116,-40.4941 L -21.9379,-40.4469 L -21.5729,-40.3532 L -21.2227,-40.2145 L -20.8925,-40.033 L -20.5877,-39.8115
 L -20.3131,-39.5536 L -20.0729,-39.2634 L -19.8711,-38.9453 L -19.7107,-38.6044 L -19.5942,-38.2461 L -19.5237,-37.876
 L -19.5,-37.5 L -19.5237,-37.124 L -19.5942,-36.7539 L -19.7107,-36.3956 L -19.8711,-36.0547 L -19.9058,-36
 L -19.9058,-32 L -17.196,-32 L -17.196,-26.9 L -19.9058,-26.9 L -19.9058,-24 L -10.0942,-24
 L -10.0942,-26.9 L -12.804,-26.9 L -12.804,-32 L -10.0942,-32 L -10.0942,-36 L -10.1289,-36.0547
 L -10.2893,-36.3956 L -10.4057,-36.7539 L -10.4763,-37.124 L -10.5,-37.5 L -10.4763,-37.876 L -10.4057,-38.2461
 L -10.2893,-38.6044 L -10.1289,-38.9453 L -9.92705,-39.2634 L -9.6869,-39.5536 L -9.41226,-39.8115 L -9.10747,-40.033
 L -8.77733,-40.2145 L -8.42705,-40.3532 L -8.06213,-40.4469 L -7.68837,-40.4941 L -7.31161,-40.4941 L -6.93785,-40.4469
 L -6.57294,-40.3532 L -6.22266,-40.2145 L -5.89252,-40.033 L -5.58772,-39.8115 L -5.31308,-39.5536 L -5.07294,-39.2634
 L -4.87108,-38.9453 L -4.71066,-38.6044 L -4.59424,-38.2461 L -4.52365,-37.876 L -4.5,-37.5 L -4.52365,-37.124
 L -4.59424,-36.7539 L -4.71066,-36.3956 L -4.87108,-36.0547 L -4.90581,-36 L -4.90581,-32 L -2.19603,-32
 L -2.19603,-26.9 L -4.90581,-26.9 L -4.90581,-24 L 4.90581,-24 L 4.90581,-26.9 L 2.19603,-26.9
 L 2.19603,-32 L 4.90581,-32 L 4.90581,-36 L 4.87108,-36.0547 L 4.71066,-36.3956 L 4.59424,-36.7539
 L 4.52365,-37.124 L 4.5,-37.5 L 4.52365,-37.876 L 4.59424,-38.2461 L 4.71066,-38.6044 L 4.87108,-38.9453
 L 5.07294,-39.2634 L 5.31308,-39.5536 L 5.58772,-39.8115 L 5.89252,-40.033 L 6.22266,-40.2145 L 6.57294,-40.3532
 L 6.93785,-40.4469 L 7.31161,-40.4941 L 7.68837,-40.4941 L 8.06213,-40.4469 L 8.42705,-40.3532 L 8.77733,-40.2145
 L 9.10747,-40.033 L 9.41226,-39.8115 L 9.6869,-39.5536 L 9.92705,-39.2634 L 10.1289,-38.9453 L 10.2893,-38.6044
 L 10.4057,-38.2461 L 10.4763,-37.876 L 10.5,-37.5 L 10.4763,-37.124 L 10.4057,-36.7539 L 10.2893,-36.3956
 L 10.1289,-36.0547 L 10.0942,-36 L 10.0942,-32 L 12.804,-32 L 12.804,-26.9 L 10.0942,-26.9
 L 10.0942,-24 L 19.9058,-24 L 19.9058,-26.9 L 17.196,-26.9 L 17.196,-32 L 19.9058,-32
 L 19.9058,-36 L 19.8711,-36.0547 L 19.7107,-36.3956 L 19.5942,-36.7539 L 19.5237,-37.124 L 19.5,-37.5
 L 19.5237,-37.876 L 19.5942,-38.2461 L 19.7107,-38.6044 L 19.8711,-38.9453 L 20.0729,-39.2634 L 20.3131,-39.5536
 L 20.5877,-39.8115 L 20.8925,-40.033 L 21.2227,-40.2145 L 21.5729,-40.3532 L 21.9379,-40.4469 L 22.3116,-40.4941
 L 22.6884,-40.4941 L 23.0621,-40.4469 L 23.427,-40.3532 L 23.7773,-40.2145 L 24.1075,-40.033 L 24.4123,-39.8115
 L 24.6869,-39.5536 L 24.927,-39.2634 L 25.1289,-38.9453 L 25.2893,-38.6044 L 25.4057,-38.2461 L 25.4763,-37.876
 L 25.5,-37.5 L 25.4763,-37.124 L 25.4057,-36.7539 L 25.2893,-36.3956 L 25.1289,-36.0547 L 25.0942,-36
 L 25.0942,-32 L 27.804,-32 L 27.804,-26.9 L 25.0942,-26.9 L 25.0942,-24 L 34.9058,-24
 L 34.9058,-26.9 L 32.196,-26.9 L 32.196,-32 L 34.9058,-32 L 34.9058,-36 L 34.8711,-36.0547
 L 34.7107,-36.3956 L 34.5942,-36.7539 L 34.5237,-37.124 L 34.5,-37.5 L 34.5237,-37.876 L 34.5942,-38.2461
 L 34.7107,-38.6044 L 34.8711,-38.9453 L 35.0729,-39.2634 L 35.3131,-39.5536 L 35.5877,-39.8115 L 35.8925,-40.033
 L 36.2227,-40.2145 L 36.5729,-40.3532 L 36.9379,-40.4469 L 37.3116,-40.4941 L 37.6884,-40.4941 L 38.0621,-40.4469
 L 38.427,-40.3532 L 38.7773,-40.2145 L 39.1075,-40.033 L 39.4123,-39.8115 L 39.6869,-39.5536 L 39.927,-39.2634
 L 40.1289,-38.9453 L 40.2893,-38.6044 L 40.4057,-38.2461 L 40.4763,-37.876 L 40.5,-37.5 L 40.4763,-37.124
 L 40.4057,-36.7539 L 40.2893,-36.3956 L 40.1289,-36.0547 L 40.0942,-36 L 40.0942,-32 L 42.804,-32
 L 42.804,-26.9 L 40.0942,-26.9 L 40.0942,-24 L 49.9058,-24 L 49.9058,-26.9 L 47.196,-26.9
 L 47.196,-32 L 49.9058,-32 L 49.9058,-36 L 49.8711,-36.0547 L 49.7107,-36.3956 L 49.5942,-36.7539
 L 49.5237,-37.124 L 49.5,-37.5 L 49.5237,-37.876 L 49.5942,-38.2461 L 49.7107,-38.6044 L 49.8711,-38.9453
 L 50.0729,-39.2634 L 50.3131,-39.5536 L 50.5877,-39.8115 L 50.8925,-40.033 L 51.2227,-40.2145 L 51.5729,-40.3532
 L 51.9379,-40.4469 L 52.3116,-40.4941 L 52.6884,-40.4941 L 53.0621,-40.4469 L 53.427,-40.3532 L 53.7773,-40.2145
 L 54.1075,-40.033 L 54.4123,-39.8115 L 54.6869,-39.5536 L 54.927,-39.2634 L 55.1289,-38.9453 L 55.2893,-38.6044
 L 55.4057,-38.2461 L 55.4763,-37.876 L 55.5,-37.5 L 55.4763,-37.124 L 55.4057,-36.7539 L 55.2893,-36.3956
 L 55.1289,-36.0547 L 55.0942,-36 L 55.0942,-32 L 57.804,-32 L 57.804,-26.9 L 55.0942,-26.9
 L 55.0942,-24 L 59.5,-24 L 59.5,-39.5 L 59.4606,-40.1267 L 59.3429,-40.7434 L 59.1489,-41.3406
 L 58.8815,-41.9088 L 58.5451,-42.4389 L 58.1448,-42.9227 L 57.6871,-43.3526 L 57.1791,-43.7216 L 56.6289,-44.0241
 L 56.0451,-44.2553 L 55.4369,-44.4114 L 54.8139,-44.4901 L -54.8139,-44.4901 L -55.4369,-44.4114 L -56.0451,-44.2553
 L -56.6289,-44.0241 L -57.1791,-43.7216 L -57.6871,-43.3526 L -58.1448,-42.9227 L -58.5451,-42.4389 L -58.8815,-41.9088
 L -59.1489,-41.3406 L -59.3429,-40.7434 L -59.4606,-40.1267 L -59.5,-39.5 L -59.5,-24 L -55.0942,-24
 z
M 14.9058,-36.0029 L 14.7189,-36.0266 L 14.5365,-36.0734 L 14.3613,-36.1427 L 14.1963,-36.2335 L 14.0439,-36.3442
 L 13.9065,-36.4732 L 13.7865,-36.6183 L 13.6855,-36.7774 L 13.6053,-36.9478 L 13.5471,-37.127 L 13.5118,-37.312
 L 13.5,-37.5 L 13.5118,-37.688 L 13.5471,-37.873 L 13.6053,-38.0522 L 13.6855,-38.2226 L 13.7865,-38.3817
 L 13.9065,-38.5268 L 14.0439,-38.6558 L 14.1963,-38.7665 L 14.3613,-38.8572 L 14.5365,-38.9266 L 14.7189,-38.9734
 L 14.9058,-38.997 L 15.0942,-38.997 L 15.2811,-38.9734 L 15.4635,-38.9266 L 15.6387,-38.8572 L 15.8037,-38.7665
 L 15.9561,-38.6558 L 16.0934,-38.5268 L 16.2135,-38.3817 L 16.3145,-38.2226 L 16.3947,-38.0522 L 16.4529,-37.873
 L 16.4882,-37.688 L 16.5,-37.5 L 16.4882,-37.312 L 16.4529,-37.127 L 16.3947,-36.9478 L 16.3145,-36.7774
 L 16.2135,-36.6183 L 16.0934,-36.4732 L 15.9561,-36.3442 L 15.8037,-36.2335 L 15.6387,-36.1427 L 15.4635,-36.0734
 L 15.2811,-36.0266 L 15.0942,-36.0029 z
M -15.0942,-36.0029 L -15.2811,-36.0266 L -15.4635,-36.0734 L -15.6387,-36.1427 L -15.8037,-36.2335 L -15.9561,-36.3442
 L -16.0934,-36.4732 L -16.2135,-36.6183 L -16.3145,-36.7774 L -16.3947,-36.9478 L -16.4529,-37.127 L -16.4882,-37.312
 L -16.5,-37.5 L -16.4882,-37.688 L -16.4529,-37.873 L -16.3947,-38.0522 L -16.3145,-38.2226 L -16.2135,-38.3817
 L -16.0934,-38.5268 L -15.9561,-38.6558 L -15.8037,-38.7665 L -15.6387,-38.8572 L -15.4635,-38.9266 L -15.2811,-38.9734
 L -15.0942,-38.997 L -14.9058,-38.997 L -14.7189,-38.9734 L -14.5365,-38.9266 L -14.3613,-38.8572 L -14.1963,-38.7665
 L -14.0439,-38.6558 L -13.9065,-38.5268 L -13.7865,-38.3817 L -13.6855,-38.2226 L -13.6053,-38.0522 L -13.5471,-37.873
 L -13.5118,-37.688 L -13.5,-37.5 L -13.5118,-37.312 L -13.5471,-37.127 L -13.6053,-36.9478 L -13.6855,-36.7774
 L -13.7865,-36.6183 L -13.9065,-36.4732 L -14.0439,-36.3442 L -14.1963,-36.2335 L -14.3613,-36.1427 L -14.5365,-36.0734
 L -14.7189,-36.0266 L -14.9058,-36.0029 z
M 44.9058,-36.0029 L 44.7189,-36.0266 L 44.5365,-36.0734 L 44.3613,-36.1427 L 44.1963,-36.2335 L 44.0439,-36.3442
 L 43.9065,-36.4732 L 43.7865,-36.6183 L 43.6855,-36.7774 L 43.6053,-36.9478 L 43.5471,-37.127 L 43.5118,-37.312
 L 43.5,-37.5 L 43.5118,-37.688 L 43.5471,-37.873 L 43.6053,-38.0522 L 43.6855,-38.2226 L 43.7865,-38.3817
 L 43.9065,-38.5268 L 44.0439,-38.6558 L 44.1963,-38.7665 L 44.3613,-38.8572 L 44.5365,-38.9266 L 44.7189,-38.9734
 L 44.9058,-38.997 L 45.0942,-38.997 L 45.2811,-38.9734 L 45.4635,-38.9266 L 45.6387,-38.8572 L 45.8037,-38.7665
 L 45.9561,-38.6558 L 46.0934,-38.5268 L 46.2135,-38.3817 L 46.3145,-38.2226 L 46.3947,-38.0522 L 46.4529,-37.873
 L 46.4882,-37.688 L 46.5,-37.5 L 46.4882,-37.312 L 46.4529,-37.127 L 46.3947,-36.9478 L 46.3145,-36.7774
 L 46.2135,-36.6183 L 46.0934,-36.4732 L 45.9561,-36.3442 L 45.8037,-36.2335 L 45.6387,-36.1427 L 45.4635,-36.0734
 L 45.2811,-36.0266 L 45.0942,-36.0029 z
M -30.0942,-36.0029 L -30.2811,-36.0266 L -30.4635,-36.0734 L -30.6387,-36.1427 L -30.8037,-36.2335 L -30.9561,-36.3442
 L -31.0934,-36.4732 L -31.2135,-36.6183 L -31.3145,-36.7774 L -31.3947,-36.9478 L -31.4529,-37.127 L -31.4882,-37.312
 L -31.5,-37.5 L -31.4882,-37.688 L -31.4529,-37.873 L -31.3947,-38.0522 L -31.3145,-38.2226 L -31.2135,-38.3817
 L -31.0934,-38.5268 L -30.9561,-38.6558 L -30.8037,-38.7665 L -30.6387,-38.8572 L -30.4635,-38.9266 L -30.2811,-38.9734
 L -30.0942,-38.997 L -29.9058,-38.997 L -29.7189,-38.9734 L -29.5365,-38.9266 L -29.3613,-38.8572 L -29.1963,-38.7665
 L -29.0439,-38.6558 L -28.9065,-38.5268 L -28.7865,-38.3817 L -28.6855,-38.2226 L -28.6053,-38.0522 L -28.5471,-37.873
 L -28.5118,-37.688 L -28.5,-37.5 L -28.5118,-37.312 L -28.5471,-37.127 L -28.6053,-36.9478 L -28.6855,-36.7774
 L -28.7865,-36.6183 L -28.9065,-36.4732 L -29.0439,-36.3442 L -29.1963,-36.2335 L -29.3613,-36.1427 L -29.5365,-36.0734
 L -29.7189,-36.0266 L -29.9058,-36.0029 z
M -45.0942,-36.0029 L -45.2811,-36.0266 L -45.4635,-36.0734 L -45.6387,-36.1427 L -45.8037,-36.2335 L -45.9561,-36.3442
 L -46.0934,-36.4732 L -46.2135,-36.6183 L -46.3145,-36.7774 L -46.3947,-36.9478 L -46.4529,-37.127 L -46.4882,-37.312
 L -46.5,-37.5 L -46.4882,-37.688 L -46.4529,-37.873 L -46.3947,-38.0522 L -46.3145,-38.2226 L -46.2135,-38.3817
 L -46.0934,-38.5268 L -45.9561,-38.6558 L -45.8037,-38.7665 L -45.6387,-38.8572 L -45.4635,-38.9266 L -45.2811,-38.9734
 L -45.0942,-38.997 L -44.9058,-38.997 L -44.7189,-38.9734 L -44.5365,-38.9266 L -44.3613,-38.8572 L -44.1963,-38.7665
 L -44.0439,-38.6558 L -43.9065,-38.5268 L -43.7865,-38.3817 L -43.6855,-38.2226 L -43.6053,-38.0522 L -43.5471,-37.873
 L -43.5118,-37.688 L -43.5,-37.5 L -43.5118,-37.312 L -43.5471,-37.127 L -43.6053,-36.9478 L -43.6855,-36.7774
 L -43.7865,-36.6183 L -43.9065,-36.4732 L -44.0439,-36.3442 L -44.1963,-36.2335 L -44.3613,-36.1427 L -44.5365,-36.0734
 L -44.7189,-36.0266 L -44.9058,-36.0029 z
M 59.5,-15.5 L 59.4606,-16.1267 L 59.3429,-16.7434 L 59.1489,-17.3406 L 58.8815,-17.9088 L 58.5451,-18.4389
 L 58.1448,-18.9227 L 57.6871,-19.3526 L 57.1791,-19.7216 L 56.6289,-20.0241 L 56.0451,-20.2553 L 55.4369,-20.4114
 L 54.8139,-20.4901 L -54.8139,-20.4901 L -55.4369,-20.4114 L -56.0451,-20.2553 L -56.6289,-20.0241 L -57.1791,-19.7216
 L -57.6871,-19.3526 L -58.1448,-18.9227 L -58.5451,-18.4389 L -58.8815,-17.9088 L -59.1489,-17.3406 L -59.3429,-16.7434
 L -59.4606,-16.1267 L -59.5,-15.5 L -59.5,-0 L 59.5,-0 z
M 42.2517,-11.9133 L 42.2517,-15.0867 L 45,-16.6735 L 47.7483,-15.0867 L 47.7483,-11.9133 L 45,-10.3265
 z
M -47.7483,-11.9133 L -47.7483,-15.0867 L -45,-16.6735 L -42.2517,-15.0867 L -42.2517,-11.9133 L -45,-10.3265
 z
M 12.2517,-11.9133 L 12.2517,-15.0867 L 15,-16.6735 L 17.7483,-15.0867 L 17.7483,-11.9133 L 15,-10.3265
 z
M -17.7483,-11.9133 L -17.7483,-15.0867 L -15,-16.6735 L -12.2517,-15.0867 L -12.2517,-11.9133 L -15,-10.3265
 z
M -37.6884,-10.5059 L -38.0621,-10.5531 L -38.427,-10.6468 L -38.7773,-10.7855 L -39.1075,-10.967 L -39.4123,-11.1884
 L -39.6869,-11.4464 L -39.927,-11.7366 L -40.1289,-12.0547 L -40.2893,-12.3956 L -40.4057,-12.7539 L -40.4763,-13.124
 L -40.5,-13.5 L -40.4763,-13.876 L -40.4057,-14.2461 L -40.2893,-14.6044 L -40.1289,-14.9453 L -39.927,-15.2634
 L -39.6869,-15.5536 L -39.4123,-15.8115 L -39.1075,-16.033 L -38.7773,-16.2145 L -38.427,-16.3532 L -38.0621,-16.4469
 L -37.6884,-16.4941 L -37.3116,-16.4941 L -36.9379,-16.4469 L -36.5729,-16.3532 L -36.2227,-16.2145 L -35.8925,-16.033
 L -35.5877,-15.8115 L -35.3131,-15.5536 L -35.0729,-15.2634 L -34.8711,-14.9453 L -34.7107,-14.6044 L -34.5942,-14.2461
 L -34.5237,-13.876 L -34.5,-13.5 L -34.5237,-13.124 L -34.5942,-12.7539 L -34.7107,-12.3956 L -34.8711,-12.0547
 L -35.0729,-11.7366 L -35.3131,-11.4464 L -35.5877,-11.1884 L -35.8925,-10.967 L -36.2227,-10.7855 L -36.5729,-10.6468
 L -36.9379,-10.5531 L -37.3116,-10.5059 z
M -7.68837,-10.5059 L -8.06213,-10.5531 L -8.42705,-10.6468 L -8.77733,-10.7855 L -9.10747,-10.967 L -9.41226,-11.1884
 L -9.6869,-11.4464 L -9.92705,-11.7366 L -10.1289,-12.0547 L -10.2893,-12.3956 L -10.4057,-12.7539 L -10.4763,-13.124
 L -10.5,-13.5 L -10.4763,-13.876 L -10.4057,-14.2461 L -10.2893,-14.6044 L -10.1289,-14.9453 L -9.92705,-15.2634
 L -9.6869,-15.5536 L -9.41226,-15.8115 L -9.10747,-16.033 L -8.77733,-16.2145 L -8.42705,-16.3532 L -8.06213,-16.4469
 L -7.68837,-16.4941 L -7.31161,-16.4941 L -6.93785,-16.4469 L -6.57294,-16.3532 L -6.22266,-16.2145 L -5.89252,-16.033
 L -5.58772,-15.8115 L -5.31308,-15.5536 L -5.07294,-15.2634 L -4.87108,-14.9453 L -4.71066,-14.6044 L -4.59424,-14.2461
 L -4.52365,-13.876 L -4.5,-13.5 L -4.52365,-13.124 L -4.59424,-12.7539 L -4.71066,-12.3956 L -4.87108,-12.0547
 L -5.07294,-11.7366 L -5.31308,-11.4464 L -5.58772,-11.1884 L -5.89252,-10.967 L -6.22266,-10.7855 L -6.57294,-10.6468
 L -6.93785,-10.5531 L -7.31161,-10.5059 z
M -22.6884,-10.5059 L -23.0621,-10.5531 L -23.427,-10.6468 L -23.7773,-10.7855 L -24.1075,-10.967 L -24.4123,-11.1884
 L -24.6869,-11.4464 L -24.927,-11.7366 L -25.1289,-12.0547 L -25.2893,-12.3956 L -25.4057,-12.7539 L -25.4763,-13.124
 L -25.5,-13.5 L -25.4763,-13.876 L -25.4057,-14.2461 L -25.2893,-14.6044 L -25.1289,-14.9453 L -24.927,-15.2634
 L -24.6869,-15.5536 L -24.4123,-15.8115 L -24.1075,-16.033 L -23.7773,-16.2145 L -23.427,-16.3532 L -23.0621,-16.4469
 L -22.6884,-16.4941 L -22.3116,-16.4941 L -21.9379,-16.4469 L -21.5729,-16.3532 L -21.2227,-16.2145 L -20.8925,-16.033
 L -20.5877,-15.8115 L -20.3131,-15.5536 L -20.0729,-15.2634 L -19.8711,-14.9453 L -19.7107,-14.6044 L -19.5942,-14.2461
 L -19.5237,-13.876 L -19.5,-13.5 L -19.5237,-13.124 L -19.5942,-12.7539 L -19.7107,-12.3956 L -19.8711,-12.0547
 L -20.0729,-11.7366 L -20.3131,-11.4464 L -20.5877,-11.1884 L -20.8925,-10.967 L -21.2227,-10.7855 L -21.5729,-10.6468
 L -21.9379,-10.5531 L -22.3116,-10.5059 z
M 37.3116,-10.5059 L 36.9379,-10.5531 L 36.5729,-10.6468 L 36.2227,-10.7855 L 35.8925,-10.967 L 35.5877,-11.1884
 L 35.3131,-11.4464 L 35.0729,-11.7366 L 34.8711,-12.0547 L 34.7107,-12.3956 L 34.5942,-12.7539 L 34.5237,-13.124
 L 34.5,-13.5 L 34.5237,-13.876 L 34.5942,-14.2461 L 34.7107,-14.6044 L 34.8711,-14.9453 L 35.0729,-15.2634
 L 35.3131,-15.5536 L 35.5877,-15.8115 L 35.8925,-16.033 L 36.2227,-16.2145 L 36.5729,-16.3532 L 36.9379,-16.4469
 L 37.3116,-16.4941 L 37.6884,-16.4941 L 38.0621,-16.4469 L 38.427,-16.3532 L 38.7773,-16.2145 L 39.1075,-16.033
 L 39.4123,-15.8115 L 39.6869,-15.5536 L 39.927,-15.2634 L 40.1289,-14.9453 L 40.2893,-14.6044 L 40.4057,-14.2461
 L 40.4763,-13.876 L 40.5,-13.5 L 40.4763,-13.124 L 40.4057,-12.7539 L 40.2893,-12.3956 L 40.1289,-12.0547
 L 39.927,-11.7366 L 39.6869,-11.4464 L 39.4123,-11.1884 L 39.1075,-10.967 L 38.7773,-10.7855 L 38.427,-10.6468
 L 38.0621,-10.5531 L 37.6884,-10.5059 z
M 7.31161,-10.5059 L 6.93785,-10.5531 L 6.57294,-10.6468 L 6.22266,-10.7855 L 5.89252,-10.967 L 5.58772,-11.1884
 L 5.31308,-11.4464 L 5.07294,-11.7366 L 4.87108,-12.0547 L 4.71066,-12.3956 L 4.59424,-12.7539 L 4.52365,-13.124
 L 4.5,-13.5 L 4.52365,-13.876 L 4.59424,-14.2461 L 4.71066,-14.6044 L 4.87108,-14.9453 L 5.07294,-15.2634
 L 5.31308,-15.5536 L 5.58772,-15.8115 L 5.89252,-16.033 L 6.22266,-16.2145 L 6.57294,-16.3532 L 6.93785,-16.4469
 L 7.31161,-16.4941 L 7.68837,-16.4941 L 8.06213,-16.4469 L 8.42705,-16.3532 L 8.77733,-16.2145 L 9.10747,-16.033
 L 9.41226,-15.8115 L 9.6869,-15.5536 L 9.92705,-15.2634 L 10.1289,-14.9453 L 10.2893,-14.6044 L 10.4057,-14.2461
 L 10.4763,-13.876 L 10.5,-13.5 L 10.4763,-13.124 L 10.4057,-12.7539 L 10.2893,-12.3956 L 10.1289,-12.0547
 L 9.92705,-11.7366 L 9.6869,-11.4464 L 9.41226,-11.1884 L 9.10747,-10.967 L 8.77733,-10.7855 L 8.42705,-10.6468
 L 8.06213,-10.5531 L 7.68837,-10.5059 z
M -52.6884,-10.5059 L -53.0621,-10.5531 L -53.427,-10.6468 L -53.7773,-10.7855 L -54.1075,-10.967 L -54.4123,-11.1884
 L -54.6869,-11.4464 L -54.927,-11.7366 L -55.1289,-12.0547 L -55.2893,-12.3956 L -55.4057,-12.7539 L -55.4763,-13.124
 L -55.5,-13.5 L -55.4763,-13.876 L -55.4057,-14.2461 L -55.2893,-14.6044 L -55.1289,-14.9453 L -54.927,-15.2634
 L -54.6869,-15.5536 L -54.4123,-15.8115 L -54.1075,-16.033 L -53.7773,-16.2145 L -53.427,-16.3532 L -53.0621,-16.4469
 L -52.6884,-16.4941 L -52.3116,-16.4941 L -51.9379,-16.4469 L -51.5729,-16.3532 L -51.2227,-16.2145 L -50.8925,-16.033
 L -50.5877,-15.8115 L -50.3131,-15.5536 L -50.0729,-15.2634 L -49.8711,-14.9453 L -49.7107,-14.6044 L -49.5942,-14.2461
 L -49.5237,-13.876 L -49.5,-13.5 L -49.5237,-13.124 L -49.5942,-12.7539 L -49.7107,-12.3956 L -49.8711,-12.0547
 L -50.0729,-11.7366 L -50.3131,-11.4464 L -50.5877,-11.1884 L -50.8925,-10.967 L -51.2227,-10.7855 L -51.5729,-10.6468
 L -51.9379,-10.5531 L -52.3116,-10.5059 z
M 22.3116,-10.5059 L 21.9379,-10.5531 L 21.5729,-10.6468 L 21.2227,-10.7855 L 20.8925,-10.967 L 20.5877,-11.1884
 L 20.3131,-11.4464 L 20.0729,-11.7366 L 19.8711,-12.0547 L 19.7107,-12.3956 L 19.5942,-12.7539 L 19.5237,-13.124
 L 19.5,-13.5 L 19.5237,-13.876 L 19.5942,-14.2461 L 19.7107,-14.6044 L 19.8711,-14.9453 L 20.0729,-15.2634
 L 20.3131,-15.5536 L 20.5877,-15.8115 L 20.8925,-16.033 L 21.2227,-16.2145 L 21.5729,-16.3532 L 21.9379,-16.4469
 L 22.3116,-16.4941 L 22.6884,-16.4941 L 23.0621,-16.4469 L 23.427,-16.3532 L 23.7773,-16.2145 L 24.1075,-16.033
 L 24.4123,-15.8115 L 24.6869,-15.5536 L 24.927,-15.2634 L 25.1289,-14.9453 L 25.2893,-14.6044 L 25.4057,-14.2461
 L 25.4763,-13.876 L 25.5,-13.5 L 25.4763,-13.124 L 25.4057,-12.7539 L 25.2893,-12.3956 L 25.1289,-12.0547
 L 24.927,-11.7366 L 24.6869,-11.4464 L 24.4123,-11.1884 L 24.1075,-10.967 L 23.7773,-10.7855 L 23.427,-10.6468
 L 23.0621,-10.5531 L 22.6884,-10.5059 z
M 52.3116,-10.5059 L 51.9379,-10.5531 L 51.5729,-10.6468 L 51.2227,-10.7855 L 50.8925,-10.967 L 50.5877,-11.1884
 L 50.3131,-11.4464 L 50.0729,-11.7366 L 49.8711,-12.0547 L 49.7107,-12.3956 L 49.5942,-12.7539 L 49.5237,-13.124
 L 49.5,-13.5 L 49.5237,-13.876 L 49.5942,-14.2461 L 49.7107,-14.6044 L 49.8711,-14.9453 L 50.0729,-15.2634
 L 50.3131,-15.5536 L 50.5877,-15.8115 L 50.8925,-16.033 L 51.2227,-16.2145 L 51.5729,-16.3532 L 51.9379,-16.4469
 L 52.3116,-16.4941 L 52.6884,-16.4941 L 53.0621,-16.4469 L 53.427,-16.3532 L 53.7773,-16.2145 L 54.1075,-16.033
 L 54.4123,-15.8115 L 54.6869,-15.5536 L 54.927,-15.2634 L 55.1289,-14.9453 L 55.2893,-14.6044 L 55.4057,-14.2461
 L 55.4763,-13.876 L 55.5,-13.5 L 55.4763,-13.124 L 55.4057,-12.7539 L 55.2893,-12.3956 L 55.1289,-12.0547
 L 54.927,-11.7366 L 54.6869,-11.4464 L 54.4123,-11.1884 L 54.1075,-10.967 L 53.7773,-10.7855 L 53.427,-10.6468
 L 53.0621,-10.5531 L 52.6884,-10.5059 z
M -30.0993,-11.9208 L -30.2965,-11.9457 L -30.489,-11.9951 L -30.6737,-12.0682 L -30.8479,-12.164 L -31.0086,-12.2808
 L -31.1535,-12.4168 L -31.2801,-12.5699 L -31.3866,-12.7377 L -31.4712,-12.9175 L -31.5326,-13.1065 L -31.5699,-13.3017
 L -31.5824,-13.5 L -31.5699,-13.6983 L -31.5326,-13.8935 L -31.4712,-14.0825 L -31.3866,-14.2623 L -31.2801,-14.4301
 L -31.1535,-14.5832 L -31.0086,-14.7192 L -30.8479,-14.836 L -30.6737,-14.9317 L -30.489,-15.0049 L -30.2965,-15.0543
 L -30.0993,-15.0792 L -29.9006,-15.0792 L -29.7035,-15.0543 L -29.511,-15.0049 L -29.3263,-14.9317 L -29.1521,-14.836
 L -28.9914,-14.7192 L -28.8465,-14.5832 L -28.7198,-14.4301 L -28.6134,-14.2623 L -28.5288,-14.0825 L -28.4673,-13.8935
 L -28.4301,-13.6983 L -28.4176,-13.5 L -28.4301,-13.3017 L -28.4673,-13.1065 L -28.5288,-12.9175 L -28.6134,-12.7377
 L -28.7198,-12.5699 L -28.8465,-12.4168 L -28.9914,-12.2808 L -29.1521,-12.164 L -29.3263,-12.0682 L -29.511,-11.9951
 L -29.7035,-11.9457 L -29.9006,-11.9208 z
M -26.0719,-2.89999 L -26.0719,-8 L -18.9281,-8 L -18.9281,-2.89999 z
M 48.9281,-2.89999 L 48.9281,-8 L 56.0719,-8 L 56.0719,-2.89999 z
M 33.9281,-2.89999 L 33.9281,-8 L 41.0719,-8 L 41.0719,-2.89999 z
M 18.9281,-2.89999 L 18.9281,-8 L 26.0719,-8 L 26.0719,-2.89999 z
M 3.92809,-2.89999 L 3.92809,-8 L 11.0719,-8 L 11.0719,-2.89999 z
M -56.0719,-2.89999 L -56.0719,-8 L -48.9281,-8 L -48.9281,-2.89999 z
M -41.0719,-2.89999 L -41.0719,-8 L -33.9281,-8 L -33.9281,-2.89999 z
M -11.0719,-2.89999 L -11.0719,-8 L -3.92809,-8 L -3.92809,-2.89999 z
" stroke="black" fill="lightgray" stroke-width="0.5"/>
</svg>
