<?xml version="1.0" standalone="no"?>
<!DOCTYPE svg PUBLIC "-//W3C//DTD SVG 1.1//EN" "http://www.w3.org/Graphics/SVG/1.1/DTD/svg11.dtd">
<svg width="40mm" height="108mm" viewBox="-21 -171 40 108" xmlns="http://www.w3.org/2000/svg" version="1.1">
<title>OpenSCAD Model</title>
<path d="
M -17.25,-143.507 L -16.8948,-143.077 L -16.4371,-142.647 L -15.9291,-142.278 L -15.3789,-141.976 L -14.7951,-141.745
 L -14.1869,-141.589 L -13.5639,-141.51 L 13.5639,-141.51 L 14.1869,-141.589 L 14.7951,-141.745 L 15.3789,-141.976
 L 15.9291,-142.278 L 16.4371,-142.647 L 16.8948,-143.077 L 17.2951,-143.561 L 17.6315,-144.091 L 17.8989,-144.659
 L 18.0929,-145.257 L 18.2106,-145.873 L 18.25,-146.5 L 18.25,-165.5 L 18.2106,-166.127 L 18.0929,-166.743
 L 17.8989,-167.341 L 17.6315,-167.909 L 17.2951,-168.439 L 16.8948,-168.923 L 16.4371,-169.353 L 15.9291,-169.722
 L 15.3789,-170.024 L 14.7951,-170.255 L 14.1869,-170.411 L 13.5639,-170.49 L -13.5639,-170.49 L -14.1869,-170.411
 L -14.7951,-170.255 L -15.3789,-170.024 L -15.9291,-169.722 L -16.4371,-169.353 L -16.8948,-168.923 L -17.25,-168.493
 L -17.25,-170.99 L -20.25,-170.99 L -20.25,-141.01 L -17.25,-141.01 z
M -13.4932,-142.635 L -13.9756,-142.696 L -14.4467,-142.817 L -14.8989,-142.996 L -15.3251,-143.23 L -15.7185,-143.516
 L -16.073,-143.849 L -16.383,-144.224 L -16.6436,-144.634 L -16.8507,-145.074 L -17.001,-145.537 L -17.0921,-146.015
 L -17.1226,-146.5 L -17.1226,-165.5 L -17.0921,-165.985 L -17.001,-166.463 L -16.8507,-166.926 L -16.6436,-167.366
 L -16.383,-167.776 L -16.073,-168.151 L -15.7185,-168.484 L -15.3251,-168.77 L -14.8989,-169.004 L -14.4467,-169.183
 L -13.9756,-169.304 L -13.4932,-169.365 L 13.4932,-169.365 L 13.9756,-169.304 L 14.4467,-169.183 L 14.8989,-169.004
 L 15.3251,-168.77 L 15.7185,-168.484 L 16.073,-168.151 L 16.383,-167.776 L 16.6436,-167.366 L 16.8507,-166.926
 L 17.001,-166.463 L 17.0921,-165.985 L 17.1226,-165.5 L 17.1226,-146.5 L 17.0921,-146.015 L 17.001,-145.537
 L 16.8507,-145.074 L 16.6436,-144.634 L 16.383,-144.224 L 16.073,-143.849 L 15.7185,-143.516 L 15.3251,-143.23
 L 14.8989,-142.996 L 14.4467,-142.817 L 13.9756,-142.696 L 13.4932,-142.635 z
M -17.25,-104.507 L -16.8948,-104.077 L -16.4371,-103.647 L -15.9291,-103.278 L -15.3789,-102.976 L -14.7951,-102.745
 L -14.1869,-102.589 L -13.5639,-102.51 L 13.5639,-102.51 L 14.1869,-102.589 L 14.7951,-102.745 L 15.3789,-102.976
 L 15.9291,-103.278 L 16.4371,-103.647 L 16.8948,-104.077 L 17.2951,-104.561 L 17.6315,-105.091 L 17.8989,-105.659
 L 18.0929,-106.257 L 18.2106,-106.873 L 18.25,-107.5 L 18.25,-126.5 L 18.2106,-127.127 L 18.0929,-127.743
 L 17.8989,-128.341 L 17.6315,-128.909 L 17.2951,-129.439 L 16.8948,-129.923 L 16.4371,-130.353 L 15.9291,-130.722
 L 15.3789,-131.024 L 14.7951,-131.255 L 14.1869,-131.411 L 13.5639,-131.49 L -13.5639,-131.49 L -14.1869,-131.411
 L -14.7951,-131.255 L -15.3789,-131.024 L -15.9291,-130.722 L -16.4371,-130.353 L -16.8948,-129.923 L -17.25,-129.493
 L -17.25,-131.615 L -20.25,-131.615 L -20.25,-102.385 L -17.25,-102.385 z
M 14.1869,-63.5886 L 14.7951,-63.7447 L 15.3789,-63.9759 L 15.9291,-64.2784 L 16.4371,-64.6474 L 16.8948,-65.0773
 L 17.2951,-65.5611 L 17.6315,-66.0912 L 17.8989,-66.6594 L 18.0929,-67.2566 L 18.2106,-67.8733 L 18.25,-68.5
 L 18.25,-87.5 L 18.2106,-88.1267 L 18.0929,-88.7434 L 17.8989,-89.3406 L 17.6315,-89.9088 L 17.2951,-90.4389
 L 16.8948,-90.9227 L 16.4371,-91.3526 L 15.9291,-91.7216 L 15.3789,-92.0241 L 14.7951,-92.2553 L 14.1869,-92.4114
 L 13.5639,-92.4901 L -13.5639,-92.4901 L -14.1869,-92.4114 L -14.7951,-92.2553 L -15.3789,-92.0241 L -15.9291,-91.7216
 L -16.4371,-91.3526 L -16.8948,-90.9227 L -17.2951,-90.4389 L -17.6315,-89.9088 L -17.8989,-89.3406 L -18.0277,-88.9442
 L -20.25,-88.9442 L -20.25,-67.0558 L -18.0277,-67.0558 L -17.8989,-66.6594 L -17.6315,-66.0912 L -17.2951,-65.5611
 L -16.8948,-65.0773 L -16.4371,-64.6474 L -15.9291,-64.2784 L -15.3789,-63.9759 L -14.7951,-63.7447 L -14.1869,-63.5886
 L -13.5639,-63.5099 L 13.5639,-63.5099 z
M 11.0993,-83.1047 L 10.8003,-83.1425 L 10.5083,-83.2175 L 10.2281,-83.3284 L 9.964,-83.4736 L 9.72017,-83.6508
 L 9.50047,-83.8571 L 9.30835,-84.0893 L 9.14685,-84.3438 L 9.01852,-84.6165 L 8.9254,-84.9031 L 8.86891,-85.1992
 L 8.84999,-85.5 L 8.86891,-85.8008 L 8.9254,-86.0968 L 9.01852,-86.3835 L 9.14685,-86.6562 L 9.30835,-86.9107
 L 9.50047,-87.1429 L 9.72017,-87.3492 L 9.964,-87.5264 L 10.2281,-87.6716 L 10.5083,-87.7825 L 10.8003,-87.8575
 L 11.0993,-87.8953 L 11.4007,-87.8953 L 11.6997,-87.8575 L 11.9916,-87.7825 L 12.2719,-87.6716 L 12.536,-87.5264
 L 12.7798,-87.3492 L 12.9995,-87.1429 L 13.1916,-86.9107 L 13.3531,-86.6562 L 13.4815,-86.3835 L 13.5746,-86.0968
 L 13.6311,-85.8008 L 13.65,-85.5 L 13.6311,-85.1992 L 13.5746,-84.9031 L 13.4815,-84.6165 L 13.3531,-84.3438
 L 13.1916,-84.0893 L 12.9995,-83.8571 L 12.7798,-83.6508 L 12.536,-83.4736 L 12.2719,-83.3284 L 11.9916,-83.2175
 L 11.6997,-83.1425 L 11.4007,-83.1047 z
M -11.4007,-83.1047 L -11.6997,-83.1425 L -11.9916,-83.2175 L -12.2719,-83.3284 L -12.536,-83.4736 L -12.7798,-83.6508
 L -12.9995,-83.8571 L -13.1916,-84.0893 L -13.3531,-84.3438 L -13.4815,-84.6165 L -13.5746,-84.9031 L -13.6311,-85.1992
 L -13.65,-85.5 L -13.6311,-85.8008 L -13.5746,-86.0968 L -13.4815,-86.3835 L -13.3531,-86.6562 L -13.1916,-86.9107
 L -12.9995,-87.1429 L -12.7798,-87.3492 L -12.536,-87.5264 L -12.2719,-87.6716 L -11.9916,-87.7825 L -11.6997,-87.8575
 L -11.4007,-87.8953 L -11.0993,-87.8953 L -10.8003,-87.8575 L -10.5083,-87.7825 L -10.2281,-87.6716 L -9.964,-87.5264
 L -9.72017,-87.3492 L -9.50047,-87.1429 L -9.30835,-86.9107 L -9.14685,-86.6562 L -9.01852,-86.3835 L -8.9254,-86.0968
 L -8.86891,-85.8008 L -8.84999,-85.5 L -8.86891,-85.1992 L -8.9254,-84.9031 L -9.01852,-84.6165 L -9.14685,-84.3438
 L -9.30835,-84.0893 L -9.50047,-83.8571 L -9.72017,-83.6508 L -9.964,-83.4736 L -10.2281,-83.3284 L -10.5083,-83.2175
 L -10.8003,-83.1425 L -11.0993,-83.1047 z
M -11.4007,-68.1047 L -11.6997,-68.1425 L -11.9916,-68.2175 L -12.2719,-68.3284 L -12.536,-68.4736 L -12.7798,-68.6508
 L -12.9995,-68.8571 L -13.1916,-69.0893 L -13.3531,-69.3438 L -13.4815,-69.6165 L -13.5746,-69.9032 L -13.6311,-70.1992
 L -13.65,-70.5 L -13.6311,-70.8008 L -13.5746,-71.0969 L -13.4815,-71.3835 L -13.3531,-71.6562 L -13.1916,-71.9107
 L -12.9995,-72.1429 L -12.7798,-72.3492 L -12.536,-72.5264 L -12.2719,-72.6716 L -11.9916,-72.7825 L -11.6997,-72.8575
 L -11.4007,-72.8953 L -11.0993,-72.8953 L -10.8003,-72.8575 L -10.5083,-72.7825 L -10.2281,-72.6716 L -9.964,-72.5264
 L -9.72017,-72.3492 L -9.50047,-72.1429 L -9.30835,-71.9107 L -9.14685,-71.6562 L -9.01852,-71.3835 L -8.9254,-71.0969
 L -8.86891,-70.8008 L -8.84999,-70.5 L -8.86891,-70.1992 L -8.9254,-69.9032 L -9.01852,-69.6165 L -9.14685,-69.3438
 L -9.30835,-69.0893 L -9.50047,-68.8571 L -9.72017,-68.6508 L -9.964,-68.4736 L -10.2281,-68.3284 L -10.5083,-68.2175
 L -10.8003,-68.1425 L -11.0993,-68.1047 z
M 11.0993,-68.1047 L 10.8003,-68.1425 L 10.5083,-68.2175 L 10.2281,-68.3284 L 9.964,-68.4736 L 9.72017,-68.6508
 L 9.50047,-68.8571 L 9.30835,-69.0893 L 9.14685,-69.3438 L 9.01852,-69.6165 L 8.9254,-69.9032 L 8.86891,-70.1992
 L 8.84999,-70.5 L 8.86891,-70.8008 L 8.9254,-71.0969 L 9.01852,-71.3835 L 9.14685,-71.6562 L 9.30835,-71.9107
 L 9.50047,-72.1429 L 9.72017,-72.3492 L 9.964,-72.5264 L 10.2281,-72.6716 L 10.5083,-72.7825 L 10.8003,-72.8575
 L 11.0993,-72.8953 L 11.4007,-72.8953 L 11.6997,-72.8575 L 11.9916,-72.7825 L 12.2719,-72.6716 L 12.536,-72.5264
 L 12.7798,-72.3492 L 12.9995,-72.1429 L 13.1916,-71.9107 L 13.3531,-71.6562 L 13.4815,-71.3835 L 13.5746,-71.0969
 L 13.6311,-70.8008 L 13.65,-70.5 L 13.6311,-70.1992 L 13.5746,-69.9032 L 13.4815,-69.6165 L 13.3531,-69.3438
 L 13.1916,-69.0893 L 12.9995,-68.8571 L 12.7798,-68.6508 L 12.536,-68.4736 L 12.2719,-68.3284 L 11.9916,-68.2175
 L 11.6997,-68.1425 L 11.4007,-68.1047 z
" stroke="black" fill="lightgray" stroke-width="0.5"/>
</svg>
