<?xml version="1.0" standalone="no"?>
<!DOCTYPE svg PUBLIC "-//W3C//DTD SVG 1.1//EN" "http://www.w3.org/Graphics/SVG/1.1/DTD/svg11.dtd">
<svg width="32mm" height="327mm" viewBox="-17 -626 32 327" xmlns="http://www.w3.org/2000/svg" version="1.1">
<title>OpenSCAD Model</title>
<path d="
M -13.5,-553.007 L -13.1448,-552.577 L -12.6871,-552.147 L -12.1791,-551.778 L -11.6289,-551.476 L -11.0451,-551.245
 L -10.4369,-551.089 L -9.81395,-551.01 L 9.81395,-551.01 L 10.4369,-551.089 L 11.0451,-551.245 L 11.6289,-551.476
 L 12.1791,-551.778 L 12.6871,-552.147 L 13.1448,-552.577 L 13.5451,-553.061 L 13.8815,-553.591 L 14.1489,-554.159
 L 14.3429,-554.757 L 14.4606,-555.373 L 14.5,-556 L 14.5,-620 L 14.4606,-620.627 L 14.3429,-621.243
 L 14.1489,-621.841 L 13.8815,-622.409 L 13.5451,-622.939 L 13.1448,-623.423 L 12.6871,-623.853 L 12.1791,-624.222
 L 11.6289,-624.524 L 11.0451,-624.755 L 10.4369,-624.911 L 9.81395,-624.99 L -9.81395,-624.99 L -10.4369,-624.911
 L -11.0451,-624.755 L -11.6289,-624.524 L -12.1791,-624.222 L -12.6871,-623.853 L -13.1448,-623.423 L -13.5,-622.993
 L -13.5,-625.49 L -16.5,-625.49 L -16.5,-550.51 L -13.5,-550.51 z
M -9.75116,-552.008 L -10.2495,-552.071 L -10.7361,-552.196 L -11.2031,-552.381 L -11.6433,-552.623 L -12.0497,-552.918
 L -12.4159,-553.262 L -12.7361,-553.649 L -13.0052,-554.073 L -13.2191,-554.528 L -13.3743,-555.005 L -13.4684,-555.499
 L -13.5,-556 L -13.5,-620 L -13.4684,-620.501 L -13.3743,-620.995 L -13.2191,-621.472 L -13.0052,-621.927
 L -12.7361,-622.351 L -12.4159,-622.738 L -12.0497,-623.082 L -11.6433,-623.377 L -11.2031,-623.619 L -10.7361,-623.804
 L -10.2495,-623.929 L -9.75116,-623.992 L 9.75116,-623.992 L 10.2495,-623.929 L 10.7361,-623.804 L 11.2031,-623.619
 L 11.6433,-623.377 L 12.0497,-623.082 L 12.4159,-622.738 L 12.7361,-622.351 L 13.0052,-621.927 L 13.2191,-621.472
 L 13.3743,-620.995 L 13.4684,-620.501 L 13.5,-620 L 13.5,-556 L 13.4684,-555.499 L 13.3743,-555.005
 L 13.2191,-554.528 L 13.0052,-554.073 L 12.7361,-553.649 L 12.4159,-553.262 L 12.0497,-552.918 L 11.6433,-552.623
 L 11.2031,-552.381 L 10.7361,-552.196 L 10.2495,-552.071 L 9.75116,-552.008 z
M -13.5,-469.007 L -13.1448,-468.577 L -12.6871,-468.147 L -12.1791,-467.778 L -11.6289,-467.476 L -11.0451,-467.245
 L -10.4369,-467.089 L -9.81395,-467.01 L 9.81395,-467.01 L 10.4369,-467.089 L 11.0451,-467.245 L 11.6289,-467.476
 L 12.1791,-467.778 L 12.6871,-468.147 L 13.1448,-468.577 L 13.5451,-469.061 L 13.8815,-469.591 L 14.1489,-470.159
 L 14.3429,-470.757 L 14.4606,-471.373 L 14.5,-472 L 14.5,-536 L 14.4606,-536.627 L 14.3429,-537.243
 L 14.1489,-537.841 L 13.8815,-538.409 L 13.5451,-538.939 L 13.1448,-539.423 L 12.6871,-539.853 L 12.1791,-540.222
 L 11.6289,-540.524 L 11.0451,-540.755 L 10.4369,-540.911 L 9.81395,-540.99 L -9.81395,-540.99 L -10.4369,-540.911
 L -11.0451,-540.755 L -11.6289,-540.524 L -12.1791,-540.222 L -12.6871,-539.853 L -13.1448,-539.423 L -13.5,-538.993
 L -13.5,-541.49 L -16.5,-541.49 L -16.5,-466.51 L -13.5,-466.51 z
M -9.75116,-468.008 L -10.2495,-468.071 L -10.7361,-468.196 L -11.2031,-468.381 L -11.6433,-468.623 L -12.0497,-468.918
 L -12.4159,-469.262 L -12.7361,-469.649 L -13.0052,-470.073 L -13.2191,-470.528 L -13.3743,-471.005 L -13.4684,-471.499
 L -13.5,-472 L -13.5,-536 L -13.4684,-536.501 L -13.3743,-536.995 L -13.2191,-537.472 L -13.0052,-537.927
 L -12.7361,-538.351 L -12.4159,-538.738 L -12.0497,-539.082 L -11.6433,-539.377 L -11.2031,-539.619 L -10.7361,-539.804
 L -10.2495,-539.929 L -9.75116,-539.992 L 9.75116,-539.992 L 10.2495,-539.929 L 10.7361,-539.804 L 11.2031,-539.619
 L 11.6433,-539.377 L 12.0497,-539.082 L 12.4159,-538.738 L 12.7361,-538.351 L 13.0052,-537.927 L 13.2191,-537.472
 L 13.3743,-536.995 L 13.4684,-536.501 L 13.5,-536 L 13.5,-472 L 13.4684,-471.499 L 13.3743,-471.005
 L 13.2191,-470.528 L 13.0052,-470.073 L 12.7361,-469.649 L 12.4159,-469.262 L 12.0497,-468.918 L 11.6433,-468.623
 L 11.2031,-468.381 L 10.7361,-468.196 L 10.2495,-468.071 L 9.75116,-468.008 z
M -13.5,-385.007 L -13.1448,-384.577 L -12.6871,-384.147 L -12.1791,-383.778 L -11.6289,-383.476 L -11.0451,-383.245
 L -10.4369,-383.089 L -9.81395,-383.01 L 9.81395,-383.01 L 10.4369,-383.089 L 11.0451,-383.245 L 11.6289,-383.476
 L 12.1791,-383.778 L 12.6871,-384.147 L 13.1448,-384.577 L 13.5451,-385.061 L 13.8815,-385.591 L 14.1489,-386.159
 L 14.3429,-386.757 L 14.4606,-387.373 L 14.5,-388 L 14.5,-452 L 14.4606,-452.627 L 14.3429,-453.243
 L 14.1489,-453.841 L 13.8815,-454.409 L 13.5451,-454.939 L 13.1448,-455.423 L 12.6871,-455.853 L 12.1791,-456.222
 L 11.6289,-456.524 L 11.0451,-456.755 L 10.4369,-456.911 L 9.81395,-456.99 L -9.81395,-456.99 L -10.4369,-456.911
 L -11.0451,-456.755 L -11.6289,-456.524 L -12.1791,-456.222 L -12.6871,-455.853 L -13.1448,-455.423 L -13.5,-454.993
 L -13.5,-457.479 L -16.5,-457.479 L -16.5,-382.521 L -13.5,-382.521 z
M -9.69545,-384.893 L -10.0833,-384.942 L -10.4619,-385.039 L -10.8254,-385.183 L -11.168,-385.372 L -11.4842,-385.601
 L -11.7692,-385.869 L -12.0184,-386.17 L -12.2279,-386.5 L -12.3943,-386.854 L -12.5151,-387.226 L -12.5884,-387.61
 L -12.6129,-388 L -12.6129,-452 L -12.5884,-452.39 L -12.5151,-452.774 L -12.3943,-453.146 L -12.2279,-453.5
 L -12.0184,-453.83 L -11.7692,-454.131 L -11.4842,-454.399 L -11.168,-454.628 L -10.8254,-454.817 L -10.4619,-454.961
 L -10.0833,-455.058 L -9.69545,-455.107 L 9.69545,-455.107 L 10.0833,-455.058 L 10.4619,-454.961 L 10.8254,-454.817
 L 11.168,-454.628 L 11.4842,-454.399 L 11.7692,-454.131 L 12.0184,-453.83 L 12.2279,-453.5 L 12.3943,-453.146
 L 12.5151,-452.774 L 12.5884,-452.39 L 12.6129,-452 L 12.6129,-388 L 12.5884,-387.61 L 12.5151,-387.226
 L 12.3943,-386.854 L 12.2279,-386.5 L 12.0184,-386.17 L 11.7692,-385.869 L 11.4842,-385.601 L 11.168,-385.372
 L 10.8254,-385.183 L 10.4619,-385.039 L 10.0833,-384.942 L 9.69545,-384.893 z
M 10.4369,-299.089 L 11.0451,-299.245 L 11.6289,-299.476 L 12.1791,-299.778 L 12.6871,-300.147 L 13.1448,-300.577
 L 13.5451,-301.061 L 13.8815,-301.591 L 14.1489,-302.159 L 14.3429,-302.757 L 14.4606,-303.373 L 14.5,-304
 L 14.5,-368 L 14.4606,-368.627 L 14.3429,-369.243 L 14.1489,-369.841 L 13.8815,-370.409 L 13.5451,-370.939
 L 13.1448,-371.423 L 12.6871,-371.853 L 12.1791,-372.222 L 11.6289,-372.524 L 11.0451,-372.755 L 10.4369,-372.911
 L 9.81395,-372.99 L -9.81395,-372.99 L -10.4369,-372.911 L -11.0451,-372.755 L -11.6289,-372.524 L -12.1791,-372.222
 L -12.6871,-371.853 L -13.1448,-371.423 L -13.5,-370.993 L -13.5,-372.153 L -16.5,-372.153 L -16.5,-299.847
 L -13.5,-299.847 L -13.5,-301.007 L -13.1448,-300.577 L -12.6871,-300.147 L -12.1791,-299.778 L -11.6289,-299.476
 L -11.0451,-299.245 L -10.4369,-299.089 L -9.81395,-299.01 L 9.81395,-299.01 z
M 7.34929,-363.605 L 7.05028,-363.643 L 6.75835,-363.717 L 6.47812,-363.828 L 6.214,-363.974 L 5.97017,-364.151
 L 5.75047,-364.357 L 5.55835,-364.589 L 5.39685,-364.844 L 5.26852,-365.117 L 5.1754,-365.403 L 5.11891,-365.699
 L 5.09999,-366 L 5.11891,-366.301 L 5.1754,-366.597 L 5.26852,-366.883 L 5.39685,-367.156 L 5.55835,-367.411
 L 5.75047,-367.643 L 5.97017,-367.849 L 6.214,-368.026 L 6.47812,-368.172 L 6.75835,-368.283 L 7.05028,-368.357
 L 7.34929,-368.395 L 7.6507,-368.395 L 7.94971,-368.357 L 8.24164,-368.283 L 8.52187,-368.172 L 8.78598,-368.026
 L 9.02982,-367.849 L 9.24951,-367.643 L 9.44164,-367.411 L 9.60313,-367.156 L 9.73146,-366.883 L 9.82458,-366.597
 L 9.88107,-366.301 L 9.89999,-366 L 9.88107,-365.699 L 9.82458,-365.403 L 9.73146,-365.117 L 9.60313,-364.844
 L 9.44164,-364.589 L 9.24951,-364.357 L 9.02982,-364.151 L 8.78598,-363.974 L 8.52187,-363.828 L 8.24164,-363.717
 L 7.94971,-363.643 L 7.6507,-363.605 z
M -7.6507,-363.605 L -7.94971,-363.643 L -8.24164,-363.717 L -8.52187,-363.828 L -8.78598,-363.974 L -9.02982,-364.151
 L -9.24951,-364.357 L -9.44164,-364.589 L -9.60313,-364.844 L -9.73146,-365.117 L -9.82458,-365.403 L -9.88107,-365.699
 L -9.89999,-366 L -9.88107,-366.301 L -9.82458,-366.597 L -9.73146,-366.883 L -9.60313,-367.156 L -9.44164,-367.411
 L -9.24951,-367.643 L -9.02982,-367.849 L -8.78598,-368.026 L -8.52187,-368.172 L -8.24164,-368.283 L -7.94971,-368.357
 L -7.6507,-368.395 L -7.34929,-368.395 L -7.05028,-368.357 L -6.75835,-368.283 L -6.47812,-368.172 L -6.214,-368.026
 L -5.97017,-367.849 L -5.75047,-367.643 L -5.55835,-367.411 L -5.39685,-367.156 L -5.26852,-366.883 L -5.1754,-366.597
 L -5.11891,-366.301 L -5.09999,-366 L -5.11891,-365.699 L -5.1754,-365.403 L -5.26852,-365.117 L -5.39685,-364.844
 L -5.55835,-364.589 L -5.75047,-364.357 L -5.97017,-364.151 L -6.214,-363.974 L -6.47812,-363.828 L -6.75835,-363.717
 L -7.05028,-363.643 L -7.34929,-363.605 z
M 7.34929,-303.605 L 7.05028,-303.643 L 6.75835,-303.717 L 6.47812,-303.828 L 6.214,-303.974 L 5.97017,-304.151
 L 5.75047,-304.357 L 5.55835,-304.589 L 5.39685,-304.844 L 5.26852,-305.117 L 5.1754,-305.403 L 5.11891,-305.699
 L 5.09999,-306 L 5.11891,-306.301 L 5.1754,-306.597 L 5.26852,-306.883 L 5.39685,-307.156 L 5.55835,-307.411
 L 5.75047,-307.643 L 5.97017,-307.849 L 6.214,-308.026 L 6.47812,-308.172 L 6.75835,-308.283 L 7.05028,-308.357
 L 7.34929,-308.395 L 7.6507,-308.395 L 7.94971,-308.357 L 8.24164,-308.283 L 8.52187,-308.172 L 8.78598,-308.026
 L 9.02982,-307.849 L 9.24951,-307.643 L 9.44164,-307.411 L 9.60313,-307.156 L 9.73146,-306.883 L 9.82458,-306.597
 L 9.88107,-306.301 L 9.89999,-306 L 9.88107,-305.699 L 9.82458,-305.403 L 9.73146,-305.117 L 9.60313,-304.844
 L 9.44164,-304.589 L 9.24951,-304.357 L 9.02982,-304.151 L 8.78598,-303.974 L 8.52187,-303.828 L 8.24164,-303.717
 L 7.94971,-303.643 L 7.6507,-303.605 z
M -7.6507,-303.605 L -7.94971,-303.643 L -8.24164,-303.717 L -8.52187,-303.828 L -8.78598,-303.974 L -9.02982,-304.151
 L -9.24951,-304.357 L -9.44164,-304.589 L -9.60313,-304.844 L -9.73146,-305.117 L -9.82458,-305.403 L -9.88107,-305.699
 L -9.89999,-306 L -9.88107,-306.301 L -9.82458,-306.597 L -9.73146,-306.883 L -9.60313,-307.156 L -9.44164,-307.411
 L -9.24951,-307.643 L -9.02982,-307.849 L -8.78598,-308.026 L -8.52187,-308.172 L -8.24164,-308.283 L -7.94971,-308.357
 L -7.6507,-308.395 L -7.34929,-308.395 L -7.05028,-308.357 L -6.75835,-308.283 L -6.47812,-308.172 L -6.214,-308.026
 L -5.97017,-307.849 L -5.75047,-307.643 L -5.55835,-307.411 L -5.39685,-307.156 L -5.26852,-306.883 L -5.1754,-306.597
 L -5.11891,-306.301 L -5.09999,-306 L -5.11891,-305.699 L -5.1754,-305.403 L -5.26852,-305.117 L -5.39685,-304.844
 L -5.55835,-304.589 L -5.75047,-304.357 L -5.97017,-304.151 L -6.214,-303.974 L -6.47812,-303.828 L -6.75835,-303.717
 L -7.05028,-303.643 L -7.34929,-303.605 z
" stroke="black" fill="lightgray" stroke-width="0.5"/>
</svg>
