<?xml version="1.0" standalone="no"?>
<!DOCTYPE svg PUBLIC "-//W3C//DTD SVG 1.1//EN" "http://www.w3.org/Graphics/SVG/1.1/DTD/svg11.dtd">
<svg width="60mm" height="147mm" viewBox="-30 -288 60 147" xmlns="http://www.w3.org/2000/svg" version="1.1">
<title>OpenSCAD Model</title>
<path d="
M 25.4369,-258.589 L 26.0451,-258.745 L 26.6289,-258.976 L 27.1791,-259.278 L 27.6871,-259.647 L 28.1448,-260.077
 L 28.5451,-260.561 L 28.8815,-261.091 L 29.1489,-261.659 L 29.3429,-262.257 L 29.4606,-262.873 L 29.5,-263.5
 L 29.5,-282.5 L 29.4606,-283.127 L 29.3429,-283.743 L 29.1489,-284.341 L 28.8815,-284.909 L 28.5451,-285.439
 L 28.1448,-285.923 L 27.6871,-286.353 L 27.1791,-286.722 L 26.6289,-287.024 L 26.0451,-287.255 L 25.4369,-287.411
 L 24.8139,-287.49 L -24.8139,-287.49 L -25.4369,-287.411 L -26.0451,-287.255 L -26.6289,-287.024 L -27.1791,-286.722
 L -27.6871,-286.353 L -28.1448,-285.923 L -28.5451,-285.439 L -28.8815,-284.909 L -29.1489,-284.341 L -29.3429,-283.743
 L -29.4606,-283.127 L -29.5,-282.5 L -29.5,-263.5 L -29.4606,-262.873 L -29.3429,-262.257 L -29.1489,-261.659
 L -28.8815,-261.091 L -28.5451,-260.561 L -28.1448,-260.077 L -27.6871,-259.647 L -27.1791,-259.278 L -26.6289,-258.976
 L -26.0451,-258.745 L -25.4369,-258.589 L -24.8139,-258.51 L 24.8139,-258.51 z
M -24.7512,-259.508 L -25.2495,-259.571 L -25.7361,-259.696 L -26.2031,-259.881 L -26.6433,-260.123 L -27.0497,-260.418
 L -27.4159,-260.762 L -27.7361,-261.149 L -28.0052,-261.573 L -28.2191,-262.028 L -28.3743,-262.505 L -28.4684,-262.999
 L -28.5,-263.5 L -28.5,-282.5 L -28.4684,-283.001 L -28.3743,-283.495 L -28.2191,-283.972 L -28.0052,-284.427
 L -27.7361,-284.851 L -27.4159,-285.238 L -27.0497,-285.582 L -26.6433,-285.877 L -26.2031,-286.119 L -25.7361,-286.304
 L -25.2495,-286.429 L -24.7512,-286.492 L 24.7512,-286.492 L 25.2495,-286.429 L 25.7361,-286.304 L 26.2031,-286.119
 L 26.6433,-285.877 L 27.0497,-285.582 L 27.4159,-285.238 L 27.7361,-284.851 L 28.0052,-284.427 L 28.2191,-283.972
 L 28.3743,-283.495 L 28.4684,-283.001 L 28.5,-282.5 L 28.5,-263.5 L 28.4684,-262.999 L 28.3743,-262.505
 L 28.2191,-262.028 L 28.0052,-261.573 L 27.7361,-261.149 L 27.4159,-260.762 L 27.0497,-260.418 L 26.6433,-260.123
 L 26.2031,-259.881 L 25.7361,-259.696 L 25.2495,-259.571 L 24.7512,-259.508 z
M 25.4369,-219.589 L 26.0451,-219.745 L 26.6289,-219.976 L 27.1791,-220.278 L 27.6871,-220.647 L 28.1448,-221.077
 L 28.5451,-221.561 L 28.8815,-222.091 L 29.1489,-222.659 L 29.3429,-223.257 L 29.4606,-223.873 L 29.5,-224.5
 L 29.5,-243.5 L 29.4606,-244.127 L 29.3429,-244.743 L 29.1489,-245.341 L 28.8815,-245.909 L 28.5451,-246.439
 L 28.1448,-246.923 L 27.6871,-247.353 L 27.1791,-247.722 L 26.6289,-248.024 L 26.0451,-248.255 L 25.4369,-248.411
 L 24.8139,-248.49 L -24.8139,-248.49 L -25.4369,-248.411 L -26.0451,-248.255 L -26.6289,-248.024 L -27.1791,-247.722
 L -27.6871,-247.353 L -28.1448,-246.923 L -28.5451,-246.439 L -28.8815,-245.909 L -29.1489,-245.341 L -29.3429,-244.743
 L -29.4606,-244.127 L -29.5,-243.5 L -29.5,-224.5 L -29.4606,-223.873 L -29.3429,-223.257 L -29.1489,-222.659
 L -28.8815,-222.091 L -28.5451,-221.561 L -28.1448,-221.077 L -27.6871,-220.647 L -27.1791,-220.278 L -26.6289,-219.976
 L -26.0451,-219.745 L -25.4369,-219.589 L -24.8139,-219.51 L 24.8139,-219.51 z
M -24.7512,-220.508 L -25.2495,-220.571 L -25.7361,-220.696 L -26.2031,-220.881 L -26.6433,-221.123 L -27.0497,-221.418
 L -27.4159,-221.762 L -27.7361,-222.149 L -28.0052,-222.573 L -28.2191,-223.028 L -28.3743,-223.505 L -28.4684,-223.999
 L -28.5,-224.5 L -28.5,-243.5 L -28.4684,-244.001 L -28.3743,-244.495 L -28.2191,-244.972 L -28.0052,-245.427
 L -27.7361,-245.851 L -27.4159,-246.238 L -27.0497,-246.582 L -26.6433,-246.877 L -26.2031,-247.119 L -25.7361,-247.304
 L -25.2495,-247.429 L -24.7512,-247.492 L 24.7512,-247.492 L 25.2495,-247.429 L 25.7361,-247.304 L 26.2031,-247.119
 L 26.6433,-246.877 L 27.0497,-246.582 L 27.4159,-246.238 L 27.7361,-245.851 L 28.0052,-245.427 L 28.2191,-244.972
 L 28.3743,-244.495 L 28.4684,-244.001 L 28.5,-243.5 L 28.5,-224.5 L 28.4684,-223.999 L 28.3743,-223.505
 L 28.2191,-223.028 L 28.0052,-222.573 L 27.7361,-222.149 L 27.4159,-221.762 L 27.0497,-221.418 L 26.6433,-221.123
 L 26.2031,-220.881 L 25.7361,-220.696 L 25.2495,-220.571 L 24.7512,-220.508 z
M 25.4369,-180.589 L 26.0451,-180.745 L 26.6289,-180.976 L 27.1791,-181.278 L 27.6871,-181.647 L 28.1448,-182.077
 L 28.5451,-182.561 L 28.8815,-183.091 L 29.1489,-183.659 L 29.3429,-184.257 L 29.4606,-184.873 L 29.5,-185.5
 L 29.5,-204.5 L 29.4606,-205.127 L 29.3429,-205.743 L 29.1489,-206.341 L 28.8815,-206.909 L 28.5451,-207.439
 L 28.1448,-207.923 L 27.6871,-208.353 L 27.1791,-208.722 L 26.6289,-209.024 L 26.0451,-209.255 L 25.4369,-209.411
 L 24.8139,-209.49 L -24.8139,-209.49 L -25.4369,-209.411 L -26.0451,-209.255 L -26.6289,-209.024 L -27.1791,-208.722
 L -27.6871,-208.353 L -28.1448,-207.923 L -28.5451,-207.439 L -28.8815,-206.909 L -29.1489,-206.341 L -29.3429,-205.743
 L -29.4606,-205.127 L -29.5,-204.5 L -29.5,-185.5 L -29.4606,-184.873 L -29.3429,-184.257 L -29.1489,-183.659
 L -28.8815,-183.091 L -28.5451,-182.561 L -28.1448,-182.077 L -27.6871,-181.647 L -27.1791,-181.278 L -26.6289,-180.976
 L -26.0451,-180.745 L -25.4369,-180.589 L -24.8139,-180.51 L 24.8139,-180.51 z
M -24.6954,-182.393 L -25.0833,-182.442 L -25.4619,-182.539 L -25.8254,-182.683 L -26.168,-182.872 L -26.4842,-183.101
 L -26.7692,-183.369 L -27.0184,-183.67 L -27.2279,-184 L -27.3943,-184.354 L -27.5151,-184.726 L -27.5884,-185.11
 L -27.6129,-185.5 L -27.6129,-204.5 L -27.5884,-204.89 L -27.5151,-205.274 L -27.3943,-205.646 L -27.2279,-206
 L -27.0184,-206.33 L -26.7692,-206.631 L -26.4842,-206.899 L -26.168,-207.128 L -25.8254,-207.317 L -25.4619,-207.461
 L -25.0833,-207.558 L -24.6954,-207.607 L 24.6954,-207.607 L 25.0833,-207.558 L 25.4619,-207.461 L 25.8254,-207.317
 L 26.168,-207.128 L 26.4842,-206.899 L 26.7692,-206.631 L 27.0184,-206.33 L 27.2279,-206 L 27.3943,-205.646
 L 27.5151,-205.274 L 27.5884,-204.89 L 27.6129,-204.5 L 27.6129,-185.5 L 27.5884,-185.11 L 27.5151,-184.726
 L 27.3943,-184.354 L 27.2279,-184 L 27.0184,-183.67 L 26.7692,-183.369 L 26.4842,-183.101 L 26.168,-182.872
 L 25.8254,-182.683 L 25.4619,-182.539 L 25.0833,-182.442 L 24.6954,-182.393 z
M 25.4369,-141.589 L 26.0451,-141.745 L 26.6289,-141.976 L 27.1791,-142.278 L 27.6871,-142.647 L 28.1448,-143.077
 L 28.5451,-143.561 L 28.8815,-144.091 L 29.1489,-144.659 L 29.3429,-145.257 L 29.4606,-145.873 L 29.5,-146.5
 L 29.5,-165.5 L 29.4606,-166.127 L 29.3429,-166.743 L 29.1489,-167.341 L 28.8815,-167.909 L 28.5451,-168.439
 L 28.1448,-168.923 L 27.6871,-169.353 L 27.1791,-169.722 L 26.6289,-170.024 L 26.0451,-170.255 L 25.4369,-170.411
 L 24.8139,-170.49 L -24.8139,-170.49 L -25.4369,-170.411 L -26.0451,-170.255 L -26.6289,-170.024 L -27.1791,-169.722
 L -27.6871,-169.353 L -28.1448,-168.923 L -28.5451,-168.439 L -28.8815,-167.909 L -29.1489,-167.341 L -29.3429,-166.743
 L -29.4606,-166.127 L -29.5,-165.5 L -29.5,-146.5 L -29.4606,-145.873 L -29.3429,-145.257 L -29.1489,-144.659
 L -28.8815,-144.091 L -28.5451,-143.561 L -28.1448,-143.077 L -27.6871,-142.647 L -27.1791,-142.278 L -26.6289,-141.976
 L -26.0451,-141.745 L -25.4369,-141.589 L -24.8139,-141.51 L 24.8139,-141.51 z
M 22.3493,-161.105 L 22.0503,-161.143 L 21.7583,-161.217 L 21.4781,-161.328 L 21.214,-161.474 L 20.9702,-161.651
 L 20.7505,-161.857 L 20.5583,-162.089 L 20.3969,-162.344 L 20.2685,-162.617 L 20.1754,-162.903 L 20.1189,-163.199
 L 20.1,-163.5 L 20.1189,-163.801 L 20.1754,-164.097 L 20.2685,-164.383 L 20.3969,-164.656 L 20.5583,-164.911
 L 20.7505,-165.143 L 20.9702,-165.349 L 21.214,-165.526 L 21.4781,-165.672 L 21.7583,-165.783 L 22.0503,-165.857
 L 22.3493,-165.895 L 22.6507,-165.895 L 22.9497,-165.857 L 23.2416,-165.783 L 23.5219,-165.672 L 23.786,-165.526
 L 24.0298,-165.349 L 24.2495,-165.143 L 24.4416,-164.911 L 24.6031,-164.656 L 24.7315,-164.383 L 24.8246,-164.097
 L 24.8811,-163.801 L 24.9,-163.5 L 24.8811,-163.199 L 24.8246,-162.903 L 24.7315,-162.617 L 24.6031,-162.344
 L 24.4416,-162.089 L 24.2495,-161.857 L 24.0298,-161.651 L 23.786,-161.474 L 23.5219,-161.328 L 23.2416,-161.217
 L 22.9497,-161.143 L 22.6507,-161.105 z
M -22.6507,-161.105 L -22.9497,-161.143 L -23.2416,-161.217 L -23.5219,-161.328 L -23.786,-161.474 L -24.0298,-161.651
 L -24.2495,-161.857 L -24.4416,-162.089 L -24.6031,-162.344 L -24.7315,-162.617 L -24.8246,-162.903 L -24.8811,-163.199
 L -24.9,-163.5 L -24.8811,-163.801 L -24.8246,-164.097 L -24.7315,-164.383 L -24.6031,-164.656 L -24.4416,-164.911
 L -24.2495,-165.143 L -24.0298,-165.349 L -23.786,-165.526 L -23.5219,-165.672 L -23.2416,-165.783 L -22.9497,-165.857
 L -22.6507,-165.895 L -22.3493,-165.895 L -22.0503,-165.857 L -21.7583,-165.783 L -21.4781,-165.672 L -21.214,-165.526
 L -20.9702,-165.349 L -20.7505,-165.143 L -20.5583,-164.911 L -20.3969,-164.656 L -20.2685,-164.383 L -20.1754,-164.097
 L -20.1189,-163.801 L -20.1,-163.5 L -20.1189,-163.199 L -20.1754,-162.903 L -20.2685,-162.617 L -20.3969,-162.344
 L -20.5583,-162.089 L -20.7505,-161.857 L -20.9702,-161.651 L -21.214,-161.474 L -21.4781,-161.328 L -21.7583,-161.217
 L -22.0503,-161.143 L -22.3493,-161.105 z
M -22.6507,-146.105 L -22.9497,-146.143 L -23.2416,-146.217 L -23.5219,-146.328 L -23.786,-146.474 L -24.0298,-146.651
 L -24.2495,-146.857 L -24.4416,-147.089 L -24.6031,-147.344 L -24.7315,-147.617 L -24.8246,-147.903 L -24.8811,-148.199
 L -24.9,-148.5 L -24.8811,-148.801 L -24.8246,-149.097 L -24.7315,-149.383 L -24.6031,-149.656 L -24.4416,-149.911
 L -24.2495,-150.143 L -24.0298,-150.349 L -23.786,-150.526 L -23.5219,-150.672 L -23.2416,-150.783 L -22.9497,-150.857
 L -22.6507,-150.895 L -22.3493,-150.895 L -22.0503,-150.857 L -21.7583,-150.783 L -21.4781,-150.672 L -21.214,-150.526
 L -20.9702,-150.349 L -20.7505,-150.143 L -20.5583,-149.911 L -20.3969,-149.656 L -20.2685,-149.383 L -20.1754,-149.097
 L -20.1189,-148.801 L -20.1,-148.5 L -20.1189,-148.199 L -20.1754,-147.903 L -20.2685,-147.617 L -20.3969,-147.344
 L -20.5583,-147.089 L -20.7505,-146.857 L -20.9702,-146.651 L -21.214,-146.474 L -21.4781,-146.328 L -21.7583,-146.217
 L -22.0503,-146.143 L -22.3493,-146.105 z
M 22.3493,-146.105 L 22.0503,-146.143 L 21.7583,-146.217 L 21.4781,-146.328 L 21.214,-146.474 L 20.9702,-146.651
 L 20.7505,-146.857 L 20.5583,-147.089 L 20.3969,-147.344 L 20.2685,-147.617 L 20.1754,-147.903 L 20.1189,-148.199
 L 20.1,-148.5 L 20.1189,-148.801 L 20.1754,-149.097 L 20.2685,-149.383 L 20.3969,-149.656 L 20.5583,-149.911
 L 20.7505,-150.143 L 20.9702,-150.349 L 21.214,-150.526 L 21.4781,-150.672 L 21.7583,-150.783 L 22.0503,-150.857
 L 22.3493,-150.895 L 22.6507,-150.895 L 22.9497,-150.857 L 23.2416,-150.783 L 23.5219,-150.672 L 23.786,-150.526
 L 24.0298,-150.349 L 24.2495,-150.143 L 24.4416,-149.911 L 24.6031,-149.656 L 24.7315,-149.383 L 24.8246,-149.097
 L 24.8811,-148.801 L 24.9,-148.5 L 24.8811,-148.199 L 24.8246,-147.903 L 24.7315,-147.617 L 24.6031,-147.344
 L 24.4416,-147.089 L 24.2495,-146.857 L 24.0298,-146.651 L 23.786,-146.474 L 23.5219,-146.328 L 23.2416,-146.217
 L 22.9497,-146.143 L 22.6507,-146.105 z
" stroke="black" fill="lightgray" stroke-width="0.5"/>
</svg>
