<?xml version="1.0" standalone="no"?>
<!DOCTYPE svg PUBLIC "-//W3C//DTD SVG 1.1//EN" "http://www.w3.org/Graphics/SVG/1.1/DTD/svg11.dtd">
<svg width="46mm" height="214mm" viewBox="-23 -185 46 214" xmlns="http://www.w3.org/2000/svg" version="1.1">
<title>OpenSCAD Model</title>
<path d="
M 22,-142.343 L 22.1489,-142.659 L 22.3429,-143.257 L 22.4606,-143.873 L 22.5,-144.5 L 22.5,-179.5
 L 22.4606,-180.127 L 22.3429,-180.743 L 22.1489,-181.341 L 21.8815,-181.909 L 21.5451,-182.439 L 21.1448,-182.923
 L 20.6871,-183.353 L 20.1791,-183.722 L 19.6289,-184.024 L 19.0451,-184.255 L 18.4369,-184.411 L 17.8139,-184.49
 L -17.8139,-184.49 L -18.4369,-184.411 L -19.0451,-184.255 L -19.6289,-184.024 L -20.1791,-183.722 L -20.6871,-183.353
 L -21.1448,-182.923 L -21.5451,-182.439 L -21.8815,-181.909 L -22.1489,-181.341 L -22.3429,-180.743 L -22.4606,-180.127
 L -22.5,-179.5 L -22.5,-144.5 L -22.4606,-143.873 L -22.3429,-143.257 L -22.1489,-142.659 L -22,-142.343
 L -22,-133.5 L 22,-133.5 z
M 14.8116,-174.006 L 14.4379,-174.053 L 14.0729,-174.147 L 13.7227,-174.286 L 13.3925,-174.467 L 13.0877,-174.688
 L 12.8131,-174.946 L 12.5729,-175.237 L 12.3711,-175.555 L 12.2107,-175.896 L 12.0942,-176.254 L 12.0237,-176.624
 L 12,-177 L 12.0237,-177.376 L 12.0942,-177.746 L 12.2107,-178.104 L 12.3711,-178.445 L 12.5729,-178.763
 L 12.8131,-179.054 L 13.0877,-179.312 L 13.3925,-179.533 L 13.7227,-179.714 L 14.0729,-179.853 L 14.4379,-179.947
 L 14.8116,-179.994 L 15.1884,-179.994 L 15.5621,-179.947 L 15.927,-179.853 L 16.2773,-179.714 L 16.6075,-179.533
 L 16.9123,-179.312 L 17.1869,-179.054 L 17.427,-178.763 L 17.6289,-178.445 L 17.7893,-178.104 L 17.9057,-177.746
 L 17.9763,-177.376 L 18,-177 L 17.9763,-176.624 L 17.9057,-176.254 L 17.7893,-175.896 L 17.6289,-175.555
 L 17.427,-175.237 L 17.1869,-174.946 L 16.9123,-174.688 L 16.6075,-174.467 L 16.2773,-174.286 L 15.927,-174.147
 L 15.5621,-174.053 L 15.1884,-174.006 z
M -15.1884,-174.006 L -15.5621,-174.053 L -15.927,-174.147 L -16.2773,-174.286 L -16.6075,-174.467 L -16.9123,-174.688
 L -17.1869,-174.946 L -17.427,-175.237 L -17.6289,-175.555 L -17.7893,-175.896 L -17.9057,-176.254 L -17.9763,-176.624
 L -18,-177 L -17.9763,-177.376 L -17.9057,-177.746 L -17.7893,-178.104 L -17.6289,-178.445 L -17.427,-178.763
 L -17.1869,-179.054 L -16.9123,-179.312 L -16.6075,-179.533 L -16.2773,-179.714 L -15.927,-179.853 L -15.5621,-179.947
 L -15.1884,-179.994 L -14.8116,-179.994 L -14.4379,-179.947 L -14.0729,-179.853 L -13.7227,-179.714 L -13.3925,-179.533
 L -13.0877,-179.312 L -12.8131,-179.054 L -12.5729,-178.763 L -12.3711,-178.445 L -12.2107,-178.104 L -12.0942,-177.746
 L -12.0237,-177.376 L -12,-177 L -12.0237,-176.624 L -12.0942,-176.254 L -12.2107,-175.896 L -12.3711,-175.555
 L -12.5729,-175.237 L -12.8131,-174.946 L -13.0877,-174.688 L -13.3925,-174.467 L -13.7227,-174.286 L -14.0729,-174.147
 L -14.4379,-174.053 L -14.8116,-174.006 z
M -0.150696,-174.605 L -0.449707,-174.643 L -0.741638,-174.717 L -1.02187,-174.828 L -1.28598,-174.974 L -1.52982,-175.151
 L -1.74951,-175.357 L -1.94164,-175.589 L -2.10313,-175.844 L -2.23146,-176.117 L -2.32458,-176.403 L -2.38107,-176.699
 L -2.39999,-177 L -2.38107,-177.301 L -2.32458,-177.597 L -2.23146,-177.883 L -2.10313,-178.156 L -1.94164,-178.411
 L -1.74951,-178.643 L -1.52982,-178.849 L -1.28598,-179.026 L -1.02187,-179.172 L -0.741638,-179.283 L -0.449707,-179.357
 L -0.150696,-179.395 L 0.150696,-179.395 L 0.449707,-179.357 L 0.741638,-179.283 L 1.02187,-179.172 L 1.28598,-179.026
 L 1.52982,-178.849 L 1.74951,-178.643 L 1.94164,-178.411 L 2.10313,-178.156 L 2.23146,-177.883 L 2.32458,-177.597
 L 2.38107,-177.301 L 2.39999,-177 L 2.38107,-176.699 L 2.32458,-176.403 L 2.23146,-176.117 L 2.10313,-175.844
 L 1.94164,-175.589 L 1.74951,-175.357 L 1.52982,-175.151 L 1.28598,-174.974 L 1.02187,-174.828 L 0.741638,-174.717
 L 0.449707,-174.643 L 0.150696,-174.605 z
M -0.470917,-154.515 L -1.40535,-154.633 L -2.31763,-154.867 L -3.19334,-155.214 L -4.01869,-155.668 L -4.78067,-156.221
 L -5.46725,-156.866 L -6.06763,-157.592 L -6.5723,-158.387 L -6.97331,-159.239 L -7.26436,-160.135 L -7.44086,-161.06
 L -7.5,-162 L -7.44086,-162.94 L -7.26436,-163.865 L -6.97331,-164.761 L -6.5723,-165.613 L -6.06763,-166.408
 L -5.46725,-167.134 L -4.78067,-167.779 L -4.01869,-168.332 L -3.19334,-168.786 L -2.31763,-169.133 L -1.40535,-169.367
 L -0.470917,-169.485 L 0.470917,-169.485 L 1.40535,-169.367 L 2.31763,-169.133 L 3.19334,-168.786 L 4.01869,-168.332
 L 4.78067,-167.779 L 5.46725,-167.134 L 6.06763,-166.408 L 6.5723,-165.613 L 6.97331,-164.761 L 7.26436,-163.865
 L 7.44086,-162.94 L 7.5,-162 L 7.44086,-161.06 L 7.26436,-160.135 L 6.97331,-159.239 L 6.5723,-158.387
 L 6.06763,-157.592 L 5.46725,-156.866 L 4.78067,-156.221 L 4.01869,-155.668 L 3.19334,-155.214 L 2.31763,-154.867
 L 1.40535,-154.633 L 0.470917,-154.515 z
M 0.749512,-158.071 L 1.23605,-158.196 L 1.70311,-158.381 L 2.1433,-158.623 L 2.54968,-158.918 L 2.91586,-159.262
 L 3.23605,-159.649 L 3.50522,-160.073 L 3.7191,-160.528 L 3.87433,-161.005 L 3.96844,-161.499 L 4,-162
 L 3.96844,-162.501 L 3.87433,-162.995 L 3.7191,-163.472 L 3.50522,-163.927 L 3.23605,-164.351 L 2.91586,-164.738
 L 2.54968,-165.082 L 2.1433,-165.377 L 1.70311,-165.619 L 1.23605,-165.804 L 0.749512,-165.929 L 0.25116,-165.992
 L -0.25116,-165.992 L -0.749512,-165.929 L -1.23605,-165.804 L -1.70311,-165.619 L -2.1433,-165.377 L -2.54968,-165.082
 L -2.91586,-164.738 L -3.23605,-164.351 L -3.50522,-163.927 L -3.7191,-163.472 L -3.87433,-162.995 L -3.96844,-162.501
 L -4,-162 L -3.96844,-161.499 L -3.87433,-161.005 L -3.7191,-160.528 L -3.50522,-160.073 L -3.23605,-159.649
 L -2.91586,-159.262 L -2.54968,-158.918 L -2.1433,-158.623 L -1.70311,-158.381 L -1.23605,-158.196 L -0.749512,-158.071
 L -0.25116,-158.008 L 0.25116,-158.008 z
M -0.18837,-159.006 L -0.562134,-159.053 L -0.927048,-159.147 L -1.27733,-159.286 L -1.60747,-159.467 L -1.91226,-159.688
 L -2.1869,-159.946 L -2.42705,-160.237 L -2.62891,-160.555 L -2.78932,-160.896 L -2.90575,-161.254 L -2.97633,-161.624
 L -3,-162 L -2.97633,-162.376 L -2.90575,-162.746 L -2.78932,-163.104 L -2.62891,-163.445 L -2.42705,-163.763
 L -2.1869,-164.054 L -1.91226,-164.312 L -1.60747,-164.533 L -1.27733,-164.714 L -0.927048,-164.853 L -0.562134,-164.947
 L -0.18837,-164.994 L 0.18837,-164.994 L 0.562134,-164.947 L 0.927048,-164.853 L 1.27733,-164.714 L 1.60747,-164.533
 L 1.91226,-164.312 L 2.1869,-164.054 L 2.42705,-163.763 L 2.62891,-163.445 L 2.78932,-163.104 L 2.90575,-162.746
 L 2.97633,-162.376 L 3,-162 L 2.97633,-161.624 L 2.90575,-161.254 L 2.78932,-160.896 L 2.62891,-160.555
 L 2.42705,-160.237 L 2.1869,-159.946 L 1.91226,-159.688 L 1.60747,-159.467 L 1.27733,-159.286 L 0.927048,-159.147
 L 0.562134,-159.053 L 0.18837,-159.006 z
M 14.575,-159.638 L 14.2823,-159.71 L 14.0009,-159.818 L 13.7353,-159.96 L 13.4896,-160.135 L 13.2678,-160.339
 L 13.0732,-160.569 L 12.9091,-160.822 L 12.7779,-161.093 L 12.6818,-161.379 L 12.6222,-161.674 L 12.6001,-161.975
 L 12.6159,-162.276 L 12.6693,-162.572 L 12.7594,-162.86 L 12.8849,-163.134 L 13.0437,-163.39 L 13.2334,-163.624
 L 13.4509,-163.833 L 13.6929,-164.013 L 13.9554,-164.161 L 14.2345,-164.275 L 14.5256,-164.353 L 14.8242,-164.394
 L 15.1256,-164.397 L 15.425,-164.362 L 15.7177,-164.29 L 15.9991,-164.182 L 16.2647,-164.04 L 16.5104,-163.865
 L 16.7322,-163.661 L 16.9268,-163.431 L 17.0909,-163.178 L 17.2221,-162.907 L 17.3182,-162.621 L 17.3778,-162.326
 L 17.3999,-162.025 L 17.3841,-161.724 L 17.3307,-161.428 L 17.2406,-161.14 L 17.1151,-160.866 L 16.9563,-160.61
 L 16.7666,-160.376 L 16.5491,-160.167 L 16.3071,-159.987 L 16.0445,-159.839 L 15.7655,-159.725 L 15.4744,-159.647
 L 15.1758,-159.606 L 14.8744,-159.603 z
M -15.425,-159.638 L -15.7177,-159.71 L -15.9991,-159.818 L -16.2647,-159.96 L -16.5104,-160.135 L -16.7322,-160.339
 L -16.9268,-160.569 L -17.0909,-160.822 L -17.2221,-161.093 L -17.3182,-161.379 L -17.3778,-161.674 L -17.3999,-161.975
 L -17.3841,-162.276 L -17.3307,-162.572 L -17.2406,-162.86 L -17.1151,-163.134 L -16.9563,-163.39 L -16.7666,-163.624
 L -16.5491,-163.833 L -16.3071,-164.013 L -16.0445,-164.161 L -15.7655,-164.275 L -15.4744,-164.353 L -15.1758,-164.394
 L -14.8744,-164.397 L -14.575,-164.362 L -14.2823,-164.29 L -14.0009,-164.182 L -13.7353,-164.04 L -13.4896,-163.865
 L -13.2678,-163.661 L -13.0732,-163.431 L -12.9091,-163.178 L -12.7779,-162.907 L -12.6818,-162.621 L -12.6222,-162.326
 L -12.6001,-162.025 L -12.6159,-161.724 L -12.6693,-161.428 L -12.7594,-161.14 L -12.8849,-160.866 L -13.0437,-160.61
 L -13.2334,-160.376 L -13.4509,-160.167 L -13.6929,-159.987 L -13.9554,-159.839 L -14.2345,-159.725 L -14.5256,-159.647
 L -14.8242,-159.606 L -15.1256,-159.603 z
M -15.1884,-144.006 L -15.5621,-144.053 L -15.927,-144.147 L -16.2773,-144.286 L -16.6075,-144.467 L -16.9123,-144.688
 L -17.1869,-144.946 L -17.427,-145.237 L -17.6289,-145.555 L -17.7893,-145.896 L -17.9057,-146.254 L -17.9763,-146.624
 L -18,-147 L -17.9763,-147.376 L -17.9057,-147.746 L -17.7893,-148.104 L -17.6289,-148.445 L -17.427,-148.763
 L -17.1869,-149.054 L -16.9123,-149.312 L -16.6075,-149.533 L -16.2773,-149.714 L -15.927,-149.853 L -15.5621,-149.947
 L -15.1884,-149.994 L -14.8116,-149.994 L -14.4379,-149.947 L -14.0729,-149.853 L -13.7227,-149.714 L -13.3925,-149.533
 L -13.0877,-149.312 L -12.8131,-149.054 L -12.5729,-148.763 L -12.3711,-148.445 L -12.2107,-148.104 L -12.0942,-147.746
 L -12.0237,-147.376 L -12,-147 L -12.0237,-146.624 L -12.0942,-146.254 L -12.2107,-145.896 L -12.3711,-145.555
 L -12.5729,-145.237 L -12.8131,-144.946 L -13.0877,-144.688 L -13.3925,-144.467 L -13.7227,-144.286 L -14.0729,-144.147
 L -14.4379,-144.053 L -14.8116,-144.006 z
M -0.18837,-144.006 L -0.562134,-144.053 L -0.927048,-144.147 L -1.27733,-144.286 L -1.60747,-144.467 L -1.91226,-144.688
 L -2.1869,-144.946 L -2.42705,-145.237 L -2.62891,-145.555 L -2.78932,-145.896 L -2.90575,-146.254 L -2.97633,-146.624
 L -3,-147 L -2.97633,-147.376 L -2.90575,-147.746 L -2.78932,-148.104 L -2.62891,-148.445 L -2.42705,-148.763
 L -2.1869,-149.054 L -1.91226,-149.312 L -1.60747,-149.533 L -1.27733,-149.714 L -0.927048,-149.853 L -0.562134,-149.947
 L -0.18837,-149.994 L 0.18837,-149.994 L 0.562134,-149.947 L 0.927048,-149.853 L 1.27733,-149.714 L 1.60747,-149.533
 L 1.91226,-149.312 L 2.1869,-149.054 L 2.42705,-148.763 L 2.62891,-148.445 L 2.78932,-148.104 L 2.90575,-147.746
 L 2.97633,-147.376 L 3,-147 L 2.97633,-146.624 L 2.90575,-146.254 L 2.78932,-145.896 L 2.62891,-145.555
 L 2.42705,-145.237 L 2.1869,-144.946 L 1.91226,-144.688 L 1.60747,-144.467 L 1.27733,-144.286 L 0.927048,-144.147
 L 0.562134,-144.053 L 0.18837,-144.006 z
M 14.8116,-144.006 L 14.4379,-144.053 L 14.0729,-144.147 L 13.7227,-144.286 L 13.3925,-144.467 L 13.0877,-144.688
 L 12.8131,-144.946 L 12.5729,-145.237 L 12.3711,-145.555 L 12.2107,-145.896 L 12.0942,-146.254 L 12.0237,-146.624
 L 12,-147 L 12.0237,-147.376 L 12.0942,-147.746 L 12.2107,-148.104 L 12.3711,-148.445 L 12.5729,-148.763
 L 12.8131,-149.054 L 13.0877,-149.312 L 13.3925,-149.533 L 13.7227,-149.714 L 14.0729,-149.853 L 14.4379,-149.947
 L 14.8116,-149.994 L 15.1884,-149.994 L 15.5621,-149.947 L 15.927,-149.853 L 16.2773,-149.714 L 16.6075,-149.533
 L 16.9123,-149.312 L 17.1869,-149.054 L 17.427,-148.763 L 17.6289,-148.445 L 17.7893,-148.104 L 17.9057,-147.746
 L 17.9763,-147.376 L 18,-147 L 17.9763,-146.624 L 17.9057,-146.254 L 17.7893,-145.896 L 17.6289,-145.555
 L 17.427,-145.237 L 17.1869,-144.946 L 16.9123,-144.688 L 16.6075,-144.467 L 16.2773,-144.286 L 15.927,-144.147
 L 15.5621,-144.053 L 15.1884,-144.006 z
M 7.34929,-144.605 L 7.05028,-144.643 L 6.75835,-144.717 L 6.47812,-144.828 L 6.214,-144.974 L 5.97017,-145.151
 L 5.75047,-145.357 L 5.55835,-145.589 L 5.39685,-145.844 L 5.26852,-146.117 L 5.1754,-146.403 L 5.11891,-146.699
 L 5.09999,-147 L 5.11891,-147.301 L 5.1754,-147.597 L 5.26852,-147.883 L 5.39685,-148.156 L 5.55835,-148.411
 L 5.75047,-148.643 L 5.97017,-148.849 L 6.214,-149.026 L 6.47812,-149.172 L 6.75835,-149.283 L 7.05028,-149.357
 L 7.34929,-149.395 L 7.6507,-149.395 L 7.94971,-149.357 L 8.24164,-149.283 L 8.52187,-149.172 L 8.78598,-149.026
 L 9.02982,-148.849 L 9.24951,-148.643 L 9.44164,-148.411 L 9.60313,-148.156 L 9.73146,-147.883 L 9.82458,-147.597
 L 9.88107,-147.301 L 9.89999,-147 L 9.88107,-146.699 L 9.82458,-146.403 L 9.73146,-146.117 L 9.60313,-145.844
 L 9.44164,-145.589 L 9.24951,-145.357 L 9.02982,-145.151 L 8.78598,-144.974 L 8.52187,-144.828 L 8.24164,-144.717
 L 7.94971,-144.643 L 7.6507,-144.605 z
M -7.6507,-144.605 L -7.94971,-144.643 L -8.24164,-144.717 L -8.52187,-144.828 L -8.78598,-144.974 L -9.02982,-145.151
 L -9.24951,-145.357 L -9.44164,-145.589 L -9.60313,-145.844 L -9.73146,-146.117 L -9.82458,-146.403 L -9.88107,-146.699
 L -9.89999,-147 L -9.88107,-147.301 L -9.82458,-147.597 L -9.73146,-147.883 L -9.60313,-148.156 L -9.44164,-148.411
 L -9.24951,-148.643 L -9.02982,-148.849 L -8.78598,-149.026 L -8.52187,-149.172 L -8.24164,-149.283 L -7.94971,-149.357
 L -7.6507,-149.395 L -7.34929,-149.395 L -7.05028,-149.357 L -6.75835,-149.283 L -6.47812,-149.172 L -6.214,-149.026
 L -5.97017,-148.849 L -5.75047,-148.643 L -5.55835,-148.411 L -5.39685,-148.156 L -5.26852,-147.883 L -5.1754,-147.597
 L -5.11891,-147.301 L -5.09999,-147 L -5.11891,-146.699 L -5.1754,-146.403 L -5.26852,-146.117 L -5.39685,-145.844
 L -5.55835,-145.589 L -5.75047,-145.357 L -5.97017,-145.151 L -6.214,-144.974 L -6.47812,-144.828 L -6.75835,-144.717
 L -7.05028,-144.643 L -7.34929,-144.605 z
M -17.5307,-91.4 L -17.6289,-91.5547 L -17.7893,-91.8956 L -17.9057,-92.2539 L -17.9763,-92.624 L -18,-93
 L -17.9763,-93.376 L -17.9057,-93.7461 L -17.7893,-94.1044 L -17.6289,-94.4453 L -17.427,-94.7634 L -17.1869,-95.0536
 L -16.9123,-95.3116 L -16.6075,-95.533 L -16.2773,-95.7145 L -15.927,-95.8532 L -15.5621,-95.9469 L -15.1884,-95.9941
 L -14.8116,-95.9941 L -14.4379,-95.9469 L -14.0729,-95.8532 L -13.7227,-95.7145 L -13.3925,-95.533 L -13.0877,-95.3116
 L -12.8131,-95.0536 L -12.5729,-94.7634 L -12.3711,-94.4453 L -12.2107,-94.1044 L -12.0942,-93.7461 L -12.0237,-93.376
 L -12,-93 L -12.0237,-92.624 L -12.0942,-92.2539 L -12.2107,-91.8956 L -12.3711,-91.5547 L -12.4693,-91.4
 L -12.4693,-79.5 L -2.53072,-79.5 L -2.53072,-91.4 L -2.62891,-91.5547 L -2.78932,-91.8956 L -2.90575,-92.2539
 L -2.97633,-92.624 L -3,-93 L -2.97633,-93.376 L -2.90575,-93.7461 L -2.78932,-94.1044 L -2.62891,-94.4453
 L -2.42705,-94.7634 L -2.1869,-95.0536 L -1.91226,-95.3116 L -1.60747,-95.533 L -1.27733,-95.7145 L -0.927048,-95.8532
 L -0.562134,-95.9469 L -0.18837,-95.9941 L 0.18837,-95.9941 L 0.562134,-95.9469 L 0.927048,-95.8532 L 1.27733,-95.7145
 L 1.60747,-95.533 L 1.91226,-95.3116 L 2.1869,-95.0536 L 2.42705,-94.7634 L 2.62891,-94.4453 L 2.78932,-94.1044
 L 2.90575,-93.7461 L 2.97633,-93.376 L 3,-93 L 2.97633,-92.624 L 2.90575,-92.2539 L 2.78932,-91.8956
 L 2.62891,-91.5547 L 2.53072,-91.4 L 2.53072,-79.5 L 12.4693,-79.5 L 12.4693,-91.4 L 12.3711,-91.5547
 L 12.2107,-91.8956 L 12.0942,-92.2539 L 12.0237,-92.624 L 12,-93 L 12.0237,-93.376 L 12.0942,-93.7461
 L 12.2107,-94.1044 L 12.3711,-94.4453 L 12.5729,-94.7634 L 12.8131,-95.0536 L 13.0877,-95.3116 L 13.3925,-95.533
 L 13.7227,-95.7145 L 14.0729,-95.8532 L 14.4379,-95.9469 L 14.8116,-95.9941 L 15.1884,-95.9941 L 15.5621,-95.9469
 L 15.927,-95.8532 L 16.2773,-95.7145 L 16.6075,-95.533 L 16.9123,-95.3116 L 17.1869,-95.0536 L 17.427,-94.7634
 L 17.6289,-94.4453 L 17.7893,-94.1044 L 17.9057,-93.7461 L 17.9763,-93.376 L 18,-93 L 17.9763,-92.624
 L 17.9057,-92.2539 L 17.7893,-91.8956 L 17.6289,-91.5547 L 17.5307,-91.4 L 17.5307,-79.5 L 22,-79.5
 L 22,-88.343 L 22.1489,-88.6594 L 22.3429,-89.2566 L 22.4606,-89.8733 L 22.5,-90.5 L 22.5,-125.5
 L 22.4606,-126.127 L 22.3429,-126.743 L 22.1489,-127.341 L 21.8815,-127.909 L 21.5451,-128.439 L 21.1448,-128.923
 L 20.6871,-129.353 L 20.1791,-129.722 L 19.6289,-130.024 L 19.0451,-130.255 L 18.4369,-130.411 L 17.8139,-130.49
 L -17.8139,-130.49 L -18.4369,-130.411 L -19.0451,-130.255 L -19.6289,-130.024 L -20.1791,-129.722 L -20.6871,-129.353
 L -21.1448,-128.923 L -21.5451,-128.439 L -21.8815,-127.909 L -22.1489,-127.341 L -22.3429,-126.743 L -22.4606,-126.127
 L -22.5,-125.5 L -22.5,-90.5 L -22.4606,-89.8733 L -22.3429,-89.2566 L -22.1489,-88.6594 L -22,-88.343
 L -22,-79.5 L -17.5307,-79.5 z
M 14.8116,-120.006 L 14.4379,-120.053 L 14.0729,-120.147 L 13.7227,-120.286 L 13.3925,-120.467 L 13.0877,-120.688
 L 12.8131,-120.946 L 12.5729,-121.237 L 12.3711,-121.555 L 12.2107,-121.896 L 12.0942,-122.254 L 12.0237,-122.624
 L 12,-123 L 12.0237,-123.376 L 12.0942,-123.746 L 12.2107,-124.104 L 12.3711,-124.445 L 12.5729,-124.763
 L 12.8131,-125.054 L 13.0877,-125.312 L 13.3925,-125.533 L 13.7227,-125.714 L 14.0729,-125.853 L 14.4379,-125.947
 L 14.8116,-125.994 L 15.1884,-125.994 L 15.5621,-125.947 L 15.927,-125.853 L 16.2773,-125.714 L 16.6075,-125.533
 L 16.9123,-125.312 L 17.1869,-125.054 L 17.427,-124.763 L 17.6289,-124.445 L 17.7893,-124.104 L 17.9057,-123.746
 L 17.9763,-123.376 L 18,-123 L 17.9763,-122.624 L 17.9057,-122.254 L 17.7893,-121.896 L 17.6289,-121.555
 L 17.427,-121.237 L 17.1869,-120.946 L 16.9123,-120.688 L 16.6075,-120.467 L 16.2773,-120.286 L 15.927,-120.147
 L 15.5621,-120.053 L 15.1884,-120.006 z
M -15.1884,-120.006 L -15.5621,-120.053 L -15.927,-120.147 L -16.2773,-120.286 L -16.6075,-120.467 L -16.9123,-120.688
 L -17.1869,-120.946 L -17.427,-121.237 L -17.6289,-121.555 L -17.7893,-121.896 L -17.9057,-122.254 L -17.9763,-122.624
 L -18,-123 L -17.9763,-123.376 L -17.9057,-123.746 L -17.7893,-124.104 L -17.6289,-124.445 L -17.427,-124.763
 L -17.1869,-125.054 L -16.9123,-125.312 L -16.6075,-125.533 L -16.2773,-125.714 L -15.927,-125.853 L -15.5621,-125.947
 L -15.1884,-125.994 L -14.8116,-125.994 L -14.4379,-125.947 L -14.0729,-125.853 L -13.7227,-125.714 L -13.3925,-125.533
 L -13.0877,-125.312 L -12.8131,-125.054 L -12.5729,-124.763 L -12.3711,-124.445 L -12.2107,-124.104 L -12.0942,-123.746
 L -12.0237,-123.376 L -12,-123 L -12.0237,-122.624 L -12.0942,-122.254 L -12.2107,-121.896 L -12.3711,-121.555
 L -12.5729,-121.237 L -12.8131,-120.946 L -13.0877,-120.688 L -13.3925,-120.467 L -13.7227,-120.286 L -14.0729,-120.147
 L -14.4379,-120.053 L -14.8116,-120.006 z
M -0.0941772,-121.503 L -0.281067,-121.527 L -0.463516,-121.573 L -0.638657,-121.643 L -0.803726,-121.734 L -0.956131,-121.844
 L -1.09344,-121.973 L -1.21352,-122.118 L -1.31445,-122.277 L -1.39465,-122.448 L -1.45287,-122.627 L -1.48816,-122.812
 L -1.5,-123 L -1.48816,-123.188 L -1.45287,-123.373 L -1.39465,-123.552 L -1.31445,-123.723 L -1.21352,-123.882
 L -1.09344,-124.027 L -0.956131,-124.156 L -0.803726,-124.266 L -0.638657,-124.357 L -0.463516,-124.427 L -0.281067,-124.473
 L -0.0941772,-124.497 L 0.0941772,-124.497 L 0.281067,-124.473 L 0.463516,-124.427 L 0.638657,-124.357 L 0.803726,-124.266
 L 0.956131,-124.156 L 1.09344,-124.027 L 1.21352,-123.882 L 1.31445,-123.723 L 1.39465,-123.552 L 1.45287,-123.373
 L 1.48816,-123.188 L 1.5,-123 L 1.48816,-122.812 L 1.45287,-122.627 L 1.39465,-122.448 L 1.31445,-122.277
 L 1.21352,-122.118 L 1.09344,-121.973 L 0.956131,-121.844 L 0.803726,-121.734 L 0.638657,-121.643 L 0.463516,-121.573
 L 0.281067,-121.527 L 0.0941772,-121.503 z
M -0.533707,-99.5168 L -1.59273,-99.6506 L -2.62663,-99.916 L -3.61911,-100.309 L -4.55452,-100.823 L -5.41809,-101.451
 L -6.19623,-102.181 L -6.87663,-103.004 L -7.44859,-103.905 L -7.90309,-104.871 L -8.23296,-105.886 L -8.43297,-106.935
 L -8.5,-108 L -8.43297,-109.065 L -8.23296,-110.114 L -7.90309,-111.129 L -7.44859,-112.095 L -6.87663,-112.996
 L -6.19623,-113.819 L -5.41809,-114.549 L -4.55452,-115.177 L -3.61911,-115.691 L -2.62663,-116.084 L -1.59273,-116.349
 L -0.533707,-116.483 L 0.533707,-116.483 L 1.59273,-116.349 L 2.62663,-116.084 L 3.61911,-115.691 L 4.55452,-115.177
 L 5.41809,-114.549 L 6.19623,-113.819 L 6.87663,-112.996 L 7.44859,-112.095 L 7.90309,-111.129 L 8.23296,-110.114
 L 8.43297,-109.065 L 8.5,-108 L 8.43297,-106.935 L 8.23296,-105.886 L 7.90309,-104.871 L 7.44859,-103.905
 L 6.87663,-103.004 L 6.19623,-102.181 L 5.41809,-101.451 L 4.55452,-100.823 L 3.61911,-100.309 L 2.62663,-99.916
 L 1.59273,-99.6506 L 0.533707,-99.5168 z
M -17.8982,-106.327 L -17.8982,-109.673 L -15,-111.347 L -12.1018,-109.673 L -12.1018,-106.327 L -15,-104.653
 z
M 12.1018,-106.327 L 12.1018,-109.673 L 15,-111.347 L 17.8982,-109.673 L 17.8982,-106.327 L 15,-104.653
 z
M -9.17329,-90.1018 L -10.8466,-93 L -9.17329,-95.8982 L -5.82671,-95.8982 L -4.15341,-93 L -5.82671,-90.1018
 z
M 7.40581,-91.503 L 7.21892,-91.5266 L 7.03647,-91.5734 L 6.86133,-91.6428 L 6.69626,-91.7335 L 6.54385,-91.8442
 L 6.40654,-91.9732 L 6.28647,-92.1183 L 6.18553,-92.2774 L 6.10533,-92.4478 L 6.04712,-92.627 L 6.01183,-92.812
 L 6,-93 L 6.01183,-93.188 L 6.04712,-93.373 L 6.10533,-93.5522 L 6.18553,-93.7226 L 6.28647,-93.8817
 L 6.40654,-94.0268 L 6.54385,-94.1558 L 6.69626,-94.2665 L 6.86133,-94.3573 L 7.03647,-94.4266 L 7.21892,-94.4734
 L 7.40581,-94.4971 L 7.59418,-94.4971 L 7.78107,-94.4734 L 7.96352,-94.4266 L 8.13866,-94.3573 L 8.30373,-94.2665
 L 8.45613,-94.1558 L 8.59344,-94.0268 L 8.71352,-93.8817 L 8.81445,-93.7226 L 8.89465,-93.5522 L 8.95287,-93.373
 L 8.98816,-93.188 L 9,-93 L 8.98816,-92.812 L 8.95287,-92.627 L 8.89465,-92.4478 L 8.81445,-92.2774
 L 8.71352,-92.1183 L 8.59344,-91.9732 L 8.45613,-91.8442 L 8.30373,-91.7335 L 8.13866,-91.6428 L 7.96352,-91.5734
 L 7.78107,-91.5266 L 7.59418,-91.503 z
M -17.5942,-29.1566 L -18.085,-29.1566 L -21.17,-34.5 L -18.085,-39.8434 L -17.8741,-39.8434 L -17.7893,-40.1044
 L -17.6289,-40.4453 L -17.427,-40.7634 L -17.1869,-41.0536 L -16.9123,-41.3116 L -16.6075,-41.533 L -16.2773,-41.7145
 L -15.927,-41.8532 L -15.5621,-41.9469 L -15.1884,-41.9941 L -14.8116,-41.9941 L -14.4379,-41.9469 L -14.0729,-41.8532
 L -13.7227,-41.7145 L -13.3925,-41.533 L -13.0877,-41.3116 L -12.8131,-41.0536 L -12.5729,-40.7634 L -12.3711,-40.4453
 L -12.2107,-40.1044 L -12.1259,-39.8434 L -11.915,-39.8434 L -8.83,-34.5 L -11.915,-29.1566 L -12.4058,-29.1566
 L -12.4058,-25.5 L -2.59418,-25.5 L -2.59418,-29.1566 L -3.08499,-29.1566 L -6.17,-34.5 L -3.08499,-39.8434
 L -2.87413,-39.8434 L -2.78932,-40.1044 L -2.62891,-40.4453 L -2.42705,-40.7634 L -2.1869,-41.0536 L -1.91226,-41.3116
 L -1.60747,-41.533 L -1.27733,-41.7145 L -0.927048,-41.8532 L -0.562134,-41.9469 L -0.18837,-41.9941 L 0.18837,-41.9941
 L 0.562134,-41.9469 L 0.927048,-41.8532 L 1.27733,-41.7145 L 1.60747,-41.533 L 1.91226,-41.3116 L 2.1869,-41.0536
 L 2.42705,-40.7634 L 2.62891,-40.4453 L 2.78932,-40.1044 L 2.87413,-39.8434 L 3.08499,-39.8434 L 6.17,-34.5
 L 3.08499,-29.1566 L 2.59418,-29.1566 L 2.59418,-25.5 L 12.4058,-25.5 L 12.4058,-29.1566 L 11.915,-29.1566
 L 8.83,-34.5 L 11.915,-39.8434 L 12.1259,-39.8434 L 12.2107,-40.1044 L 12.3711,-40.4453 L 12.5729,-40.7634
 L 12.8131,-41.0536 L 13.0877,-41.3116 L 13.3925,-41.533 L 13.7227,-41.7145 L 14.0729,-41.8532 L 14.4379,-41.9469
 L 14.8116,-41.9941 L 15.1884,-41.9941 L 15.5621,-41.9469 L 15.927,-41.8532 L 16.2773,-41.7145 L 16.6075,-41.533
 L 16.9123,-41.3116 L 17.1869,-41.0536 L 17.427,-40.7634 L 17.6289,-40.4453 L 17.7893,-40.1044 L 17.8741,-39.8434
 L 18.085,-39.8434 L 21.17,-34.5 L 18.085,-29.1566 L 17.5942,-29.1566 L 17.5942,-25.5 L 22,-25.5
 L 22,-34.343 L 22.1489,-34.6594 L 22.3429,-35.2566 L 22.4606,-35.8733 L 22.5,-36.5 L 22.5,-71.5
 L 22.4606,-72.1267 L 22.3429,-72.7434 L 22.1489,-73.3406 L 21.8815,-73.9088 L 21.5451,-74.4389 L 21.1448,-74.9227
 L 20.6871,-75.3526 L 20.1791,-75.7216 L 19.6289,-76.0241 L 19.0451,-76.2553 L 18.4369,-76.4114 L 17.8139,-76.4901
 L -17.8139,-76.4901 L -18.4369,-76.4114 L -19.0451,-76.2553 L -19.6289,-76.0241 L -20.1791,-75.7216 L -20.6871,-75.3526
 L -21.1448,-74.9227 L -21.5451,-74.4389 L -21.8815,-73.9088 L -22.1489,-73.3406 L -22.3429,-72.7434 L -22.4606,-72.1267
 L -22.5,-71.5 L -22.5,-36.5 L -22.4606,-35.8733 L -22.3429,-35.2566 L -22.1489,-34.6594 L -22,-34.343
 L -22,-25.5 L -17.5942,-25.5 z
M 14.8116,-66.0059 L 14.4379,-66.0531 L 14.0729,-66.1468 L 13.7227,-66.2855 L 13.3925,-66.467 L 13.0877,-66.6884
 L 12.8131,-66.9464 L 12.5729,-67.2366 L 12.3711,-67.5547 L 12.2107,-67.8956 L 12.0942,-68.2539 L 12.0237,-68.624
 L 12,-69 L 12.0237,-69.376 L 12.0942,-69.7461 L 12.2107,-70.1044 L 12.3711,-70.4453 L 12.5729,-70.7634
 L 12.8131,-71.0536 L 13.0877,-71.3115 L 13.3925,-71.533 L 13.7227,-71.7145 L 14.0729,-71.8532 L 14.4379,-71.9469
 L 14.8116,-71.9941 L 15.1884,-71.9941 L 15.5621,-71.9469 L 15.927,-71.8532 L 16.2773,-71.7145 L 16.6075,-71.533
 L 16.9123,-71.3115 L 17.1869,-71.0536 L 17.427,-70.7634 L 17.6289,-70.4453 L 17.7893,-70.1044 L 17.9057,-69.7461
 L 17.9763,-69.376 L 18,-69 L 17.9763,-68.624 L 17.9057,-68.2539 L 17.7893,-67.8956 L 17.6289,-67.5547
 L 17.427,-67.2366 L 17.1869,-66.9464 L 16.9123,-66.6884 L 16.6075,-66.467 L 16.2773,-66.2855 L 15.927,-66.1468
 L 15.5621,-66.0531 L 15.1884,-66.0059 z
M -15.1884,-66.0059 L -15.5621,-66.0531 L -15.927,-66.1468 L -16.2773,-66.2855 L -16.6075,-66.467 L -16.9123,-66.6884
 L -17.1869,-66.9464 L -17.427,-67.2366 L -17.6289,-67.5547 L -17.7893,-67.8956 L -17.9057,-68.2539 L -17.9763,-68.624
 L -18,-69 L -17.9763,-69.376 L -17.9057,-69.7461 L -17.7893,-70.1044 L -17.6289,-70.4453 L -17.427,-70.7634
 L -17.1869,-71.0536 L -16.9123,-71.3115 L -16.6075,-71.533 L -16.2773,-71.7145 L -15.927,-71.8532 L -15.5621,-71.9469
 L -15.1884,-71.9941 L -14.8116,-71.9941 L -14.4379,-71.9469 L -14.0729,-71.8532 L -13.7227,-71.7145 L -13.3925,-71.533
 L -13.0877,-71.3115 L -12.8131,-71.0536 L -12.5729,-70.7634 L -12.3711,-70.4453 L -12.2107,-70.1044 L -12.0942,-69.7461
 L -12.0237,-69.376 L -12,-69 L -12.0237,-68.624 L -12.0942,-68.2539 L -12.2107,-67.8956 L -12.3711,-67.5547
 L -12.5729,-67.2366 L -12.8131,-66.9464 L -13.0877,-66.6884 L -13.3925,-66.467 L -13.7227,-66.2855 L -14.0729,-66.1468
 L -14.4379,-66.0531 L -14.8116,-66.0059 z
M -0.0941772,-67.5029 L -0.281067,-67.5266 L -0.463516,-67.5734 L -0.638657,-67.6427 L -0.803726,-67.7335 L -0.956131,-67.8442
 L -1.09344,-67.9732 L -1.21352,-68.1183 L -1.31445,-68.2774 L -1.39465,-68.4478 L -1.45287,-68.627 L -1.48816,-68.812
 L -1.5,-69 L -1.48816,-69.188 L -1.45287,-69.373 L -1.39465,-69.5522 L -1.31445,-69.7226 L -1.21352,-69.8817
 L -1.09344,-70.0268 L -0.956131,-70.1558 L -0.803726,-70.2665 L -0.638657,-70.3572 L -0.463516,-70.4266 L -0.281067,-70.4734
 L -0.0941772,-70.497 L 0.0941772,-70.497 L 0.281067,-70.4734 L 0.463516,-70.4266 L 0.638657,-70.3572 L 0.803726,-70.2665
 L 0.956131,-70.1558 L 1.09344,-70.0268 L 1.21352,-69.8817 L 1.31445,-69.7226 L 1.39465,-69.5522 L 1.45287,-69.373
 L 1.48816,-69.188 L 1.5,-69 L 1.48816,-68.812 L 1.45287,-68.627 L 1.39465,-68.4478 L 1.31445,-68.2774
 L 1.21352,-68.1183 L 1.09344,-67.9732 L 0.956131,-67.8442 L 0.803726,-67.7335 L 0.638657,-67.6427 L 0.463516,-67.5734
 L 0.281067,-67.5266 L 0.0941772,-67.5029 z
M -0.533707,-45.5168 L -1.59273,-45.6506 L -2.62663,-45.916 L -3.61911,-46.309 L -4.55452,-46.8232 L -5.41809,-47.4506
 L -6.19623,-48.1814 L -6.87663,-49.0038 L -7.44859,-49.9051 L -7.90309,-50.871 L -8.23296,-51.8861 L -8.43297,-52.9347
 L -8.5,-54 L -8.43297,-55.0653 L -8.23296,-56.1139 L -7.90309,-57.129 L -7.44859,-58.0949 L -6.87663,-58.9962
 L -6.19623,-59.8186 L -5.41809,-60.5494 L -4.55452,-61.1768 L -3.61911,-61.691 L -2.62663,-62.084 L -1.59273,-62.3494
 L -0.533707,-62.4832 L 0.533707,-62.4832 L 1.59273,-62.3494 L 2.62663,-62.084 L 3.61911,-61.691 L 4.55452,-61.1768
 L 5.41809,-60.5494 L 6.19623,-59.8186 L 6.87663,-58.9962 L 7.44859,-58.0949 L 7.90309,-57.129 L 8.23296,-56.1139
 L 8.43297,-55.0653 L 8.5,-54 L 8.43297,-52.9347 L 8.23296,-51.8861 L 7.90309,-50.871 L 7.44859,-49.9051
 L 6.87663,-49.0038 L 6.19623,-48.1814 L 5.41809,-47.4506 L 4.55452,-46.8232 L 3.61911,-46.309 L 2.62663,-45.916
 L 1.59273,-45.6506 L 0.533707,-45.5168 z
M 12.1018,-52.3267 L 12.1018,-55.6733 L 15,-57.3466 L 17.8982,-55.6733 L 17.8982,-52.3267 L 15,-50.6534
 z
M -17.8982,-52.3267 L -17.8982,-55.6733 L -15,-57.3466 L -12.1018,-55.6733 L -12.1018,-52.3267 L -15,-50.6534
 z
M -9.17329,-36.1018 L -10.8466,-39 L -9.17329,-41.8982 L -5.82671,-41.8982 L -4.15341,-39 L -5.82671,-36.1018
 z
M 7.40581,-37.503 L 7.21892,-37.5266 L 7.03647,-37.5734 L 6.86133,-37.6428 L 6.69626,-37.7335 L 6.54385,-37.8442
 L 6.40654,-37.9732 L 6.28647,-38.1183 L 6.18553,-38.2774 L 6.10533,-38.4478 L 6.04712,-38.627 L 6.01183,-38.812
 L 6,-39 L 6.01183,-39.188 L 6.04712,-39.373 L 6.10533,-39.5522 L 6.18553,-39.7226 L 6.28647,-39.8817
 L 6.40654,-40.0268 L 6.54385,-40.1558 L 6.69626,-40.2665 L 6.86133,-40.3573 L 7.03647,-40.4266 L 7.21892,-40.4734
 L 7.40581,-40.4971 L 7.59418,-40.4971 L 7.78107,-40.4734 L 7.96352,-40.4266 L 8.13866,-40.3573 L 8.30373,-40.2665
 L 8.45613,-40.1558 L 8.59344,-40.0268 L 8.71352,-39.8817 L 8.81445,-39.7226 L 8.89465,-39.5522 L 8.95287,-39.373
 L 8.98816,-39.188 L 9,-39 L 8.98816,-38.812 L 8.95287,-38.627 L 8.89465,-38.4478 L 8.81445,-38.2774
 L 8.71352,-38.1183 L 8.59344,-37.9732 L 8.45613,-37.8442 L 8.30373,-37.7335 L 8.13866,-37.6428 L 7.96352,-37.5734
 L 7.78107,-37.5266 L 7.59418,-37.503 z
M 22,19.657 L 22.1489,19.3406 L 22.3429,18.7434 L 22.4606,18.1267 L 22.5,17.5 L 22.5,-17.5
 L 22.4606,-18.1267 L 22.3429,-18.7434 L 22.1489,-19.3406 L 21.8815,-19.9088 L 21.5451,-20.4389 L 21.1448,-20.9227
 L 20.6871,-21.3526 L 20.1791,-21.7216 L 19.6289,-22.0241 L 19.0451,-22.2553 L 18.4369,-22.4114 L 17.8139,-22.4901
 L -17.8139,-22.4901 L -18.4369,-22.4114 L -19.0451,-22.2553 L -19.6289,-22.0241 L -20.1791,-21.7216 L -20.6871,-21.3526
 L -21.1448,-20.9227 L -21.5451,-20.4389 L -21.8815,-19.9088 L -22.1489,-19.3406 L -22.3429,-18.7434 L -22.4606,-18.1267
 L -22.5,-17.5 L -22.5,17.5 L -22.4606,18.1267 L -22.3429,18.7434 L -22.1489,19.3406 L -22,19.657
 L -22,28.5 L 22,28.5 z
M -15.1884,-12.0059 L -15.5621,-12.0531 L -15.927,-12.1468 L -16.2773,-12.2855 L -16.6075,-12.467 L -16.9123,-12.6884
 L -17.1869,-12.9464 L -17.427,-13.2366 L -17.6289,-13.5547 L -17.7893,-13.8956 L -17.9057,-14.2539 L -17.9763,-14.624
 L -18,-15 L -17.9763,-15.376 L -17.9057,-15.7461 L -17.7893,-16.1044 L -17.6289,-16.4453 L -17.427,-16.7634
 L -17.1869,-17.0536 L -16.9123,-17.3115 L -16.6075,-17.533 L -16.2773,-17.7145 L -15.927,-17.8532 L -15.5621,-17.9469
 L -15.1884,-17.9941 L -14.8116,-17.9941 L -14.4379,-17.9469 L -14.0729,-17.8532 L -13.7227,-17.7145 L -13.3925,-17.533
 L -13.0877,-17.3115 L -12.8131,-17.0536 L -12.5729,-16.7634 L -12.3711,-16.4453 L -12.2107,-16.1044 L -12.0942,-15.7461
 L -12.0237,-15.376 L -12,-15 L -12.0237,-14.624 L -12.0942,-14.2539 L -12.2107,-13.8956 L -12.3711,-13.5547
 L -12.5729,-13.2366 L -12.8131,-12.9464 L -13.0877,-12.6884 L -13.3925,-12.467 L -13.7227,-12.2855 L -14.0729,-12.1468
 L -14.4379,-12.0531 L -14.8116,-12.0059 z
M 14.8116,-12.0059 L 14.4379,-12.0531 L 14.0729,-12.1468 L 13.7227,-12.2855 L 13.3925,-12.467 L 13.0877,-12.6884
 L 12.8131,-12.9464 L 12.5729,-13.2366 L 12.3711,-13.5547 L 12.2107,-13.8956 L 12.0942,-14.2539 L 12.0237,-14.624
 L 12,-15 L 12.0237,-15.376 L 12.0942,-15.7461 L 12.2107,-16.1044 L 12.3711,-16.4453 L 12.5729,-16.7634
 L 12.8131,-17.0536 L 13.0877,-17.3115 L 13.3925,-17.533 L 13.7227,-17.7145 L 14.0729,-17.8532 L 14.4379,-17.9469
 L 14.8116,-17.9941 L 15.1884,-17.9941 L 15.5621,-17.9469 L 15.927,-17.8532 L 16.2773,-17.7145 L 16.6075,-17.533
 L 16.9123,-17.3115 L 17.1869,-17.0536 L 17.427,-16.7634 L 17.6289,-16.4453 L 17.7893,-16.1044 L 17.9057,-15.7461
 L 17.9763,-15.376 L 18,-15 L 17.9763,-14.624 L 17.9057,-14.2539 L 17.7893,-13.8956 L 17.6289,-13.5547
 L 17.427,-13.2366 L 17.1869,-12.9464 L 16.9123,-12.6884 L 16.6075,-12.467 L 16.2773,-12.2855 L 15.927,-12.1468
 L 15.5621,-12.0531 L 15.1884,-12.0059 z
M -0.150696,-12.6047 L -0.449707,-12.6425 L -0.741638,-12.7175 L -1.02187,-12.8284 L -1.28598,-12.9736 L -1.52982,-13.1508
 L -1.74951,-13.3571 L -1.94164,-13.5893 L -2.10313,-13.8438 L -2.23146,-14.1165 L -2.32458,-14.4031 L -2.38107,-14.6992
 L -2.39999,-15 L -2.38107,-15.3008 L -2.32458,-15.5968 L -2.23146,-15.8835 L -2.10313,-16.1562 L -1.94164,-16.4107
 L -1.74951,-16.6429 L -1.52982,-16.8492 L -1.28598,-17.0264 L -1.02187,-17.1716 L -0.741638,-17.2825 L -0.449707,-17.3575
 L -0.150696,-17.3953 L 0.150696,-17.3953 L 0.449707,-17.3575 L 0.741638,-17.2825 L 1.02187,-17.1716 L 1.28598,-17.0264
 L 1.52982,-16.8492 L 1.74951,-16.6429 L 1.94164,-16.4107 L 2.10313,-16.1562 L 2.23146,-15.8835 L 2.32458,-15.5968
 L 2.38107,-15.3008 L 2.39999,-15 L 2.38107,-14.6992 L 2.32458,-14.4031 L 2.23146,-14.1165 L 2.10313,-13.8438
 L 1.94164,-13.5893 L 1.74951,-13.3571 L 1.52982,-13.1508 L 1.28598,-12.9736 L 1.02187,-12.8284 L 0.741638,-12.7175
 L 0.449707,-12.6425 L 0.150696,-12.6047 z
M -0.470917,7.4852 L -1.40535,7.36714 L -2.31763,7.13292 L -3.19334,6.78619 L -4.01869,6.33246 L -4.78067,5.77884
 L -5.46725,5.13409 L -6.06763,4.40839 L -6.5723,3.61314 L -6.97331,2.76093 L -7.26436,1.86517 L -7.44086,0.939987
 L -7.5,-0 L -7.44086,-0.939987 L -7.26436,-1.86517 L -6.97331,-2.76093 L -6.5723,-3.61314 L -6.06763,-4.40839
 L -5.46725,-5.13409 L -4.78067,-5.77884 L -4.01869,-6.33246 L -3.19334,-6.78619 L -2.31763,-7.13292 L -1.40535,-7.36714
 L -0.470917,-7.4852 L 0.470917,-7.4852 L 1.40535,-7.36714 L 2.31763,-7.13292 L 3.19334,-6.78619 L 4.01869,-6.33246
 L 4.78067,-5.77884 L 5.46725,-5.13409 L 6.06763,-4.40839 L 6.5723,-3.61314 L 6.97331,-2.76093 L 7.26436,-1.86517
 L 7.44086,-0.939987 L 7.5,-0 L 7.44086,0.939987 L 7.26436,1.86517 L 6.97331,2.76093 L 6.5723,3.61314
 L 6.06763,4.40839 L 5.46725,5.13409 L 4.78067,5.77884 L 4.01869,6.33246 L 3.19334,6.78619 L 2.31763,7.13292
 L 1.40535,7.36714 L 0.470917,7.4852 z
M 0.749512,3.92914 L 1.23605,3.80421 L 1.70311,3.61929 L 2.1433,3.3773 L 2.54968,3.08205 L 2.91586,2.73817
 L 3.23605,2.35114 L 3.50522,1.927 L 3.7191,1.47249 L 3.87433,0.994751 L 3.96844,0.501328 L 4,-0
 L 3.96844,-0.501328 L 3.87433,-0.994751 L 3.7191,-1.47249 L 3.50522,-1.927 L 3.23605,-2.35114 L 2.91586,-2.73817
 L 2.54968,-3.08205 L 2.1433,-3.3773 L 1.70311,-3.61929 L 1.23605,-3.80421 L 0.749512,-3.92914 L 0.25116,-3.9921
 L -0.25116,-3.9921 L -0.749512,-3.92914 L -1.23605,-3.80421 L -1.70311,-3.61929 L -2.1433,-3.3773 L -2.54968,-3.08205
 L -2.91586,-2.73817 L -3.23605,-2.35114 L -3.50522,-1.927 L -3.7191,-1.47249 L -3.87433,-0.994751 L -3.96844,-0.501328
 L -4,-0 L -3.96844,0.501328 L -3.87433,0.994751 L -3.7191,1.47249 L -3.50522,1.927 L -3.23605,2.35114
 L -2.91586,2.73817 L -2.54968,3.08205 L -2.1433,3.3773 L -1.70311,3.61929 L -1.23605,3.80421 L -0.749512,3.92914
 L -0.25116,3.9921 L 0.25116,3.9921 z
M -0.18837,2.99408 L -0.562134,2.94685 L -0.927048,2.85316 L -1.27733,2.71448 L -1.60747,2.53297 L -1.91226,2.31154
 L -2.1869,2.05363 L -2.42705,1.76335 L -2.62891,1.44525 L -2.78932,1.10437 L -2.90575,0.746063 L -2.97633,0.375992
 L -3,-0 L -2.97633,-0.375992 L -2.90575,-0.746063 L -2.78932,-1.10437 L -2.62891,-1.44525 L -2.42705,-1.76335
 L -2.1869,-2.05363 L -1.91226,-2.31154 L -1.60747,-2.53297 L -1.27733,-2.71448 L -0.927048,-2.85316 L -0.562134,-2.94685
 L -0.18837,-2.99408 L 0.18837,-2.99408 L 0.562134,-2.94685 L 0.927048,-2.85316 L 1.27733,-2.71448 L 1.60747,-2.53297
 L 1.91226,-2.31154 L 2.1869,-2.05363 L 2.42705,-1.76335 L 2.62891,-1.44525 L 2.78932,-1.10437 L 2.90575,-0.746063
 L 2.97633,-0.375992 L 3,-0 L 2.97633,0.375992 L 2.90575,0.746063 L 2.78932,1.10437 L 2.62891,1.44525
 L 2.42705,1.76335 L 2.1869,2.05363 L 1.91226,2.31154 L 1.60747,2.53297 L 1.27733,2.71448 L 0.927048,2.85316
 L 0.562134,2.94685 L 0.18837,2.99408 z
M -15.425,2.36206 L -15.7177,2.29018 L -15.9991,2.18216 L -16.2647,2.03973 L -16.5104,1.86514 L -16.7322,1.66113
 L -16.9268,1.43094 L -17.0909,1.17816 L -17.2221,0.906815 L -17.3182,0.621155 L -17.3778,0.325714 L -17.3999,0.0251312
 L -17.3841,-0.275848 L -17.3307,-0.572479 L -17.2406,-0.860077 L -17.1151,-1.13411 L -16.9563,-1.39027 L -16.7666,-1.6245
 L -16.5491,-1.8331 L -16.3071,-2.0128 L -16.0445,-2.16075 L -15.7655,-2.27464 L -15.4744,-2.35265 L -15.1758,-2.39355
 L -14.8744,-2.3967 L -14.575,-2.36206 L -14.2823,-2.29018 L -14.0009,-2.18216 L -13.7353,-2.03973 L -13.4896,-1.86514
 L -13.2678,-1.66113 L -13.0732,-1.43094 L -12.9091,-1.17816 L -12.7779,-0.906815 L -12.6818,-0.621155 L -12.6222,-0.325714
 L -12.6001,-0.0251312 L -12.6159,0.275848 L -12.6693,0.572479 L -12.7594,0.860077 L -12.8849,1.13411 L -13.0437,1.39027
 L -13.2334,1.6245 L -13.4509,1.8331 L -13.6929,2.0128 L -13.9554,2.16075 L -14.2345,2.27464 L -14.5256,2.35265
 L -14.8242,2.39355 L -15.1256,2.3967 z
M 14.575,2.36206 L 14.2823,2.29018 L 14.0009,2.18216 L 13.7353,2.03973 L 13.4896,1.86514 L 13.2678,1.66113
 L 13.0732,1.43094 L 12.9091,1.17816 L 12.7779,0.906815 L 12.6818,0.621155 L 12.6222,0.325714 L 12.6001,0.0251312
 L 12.6159,-0.275848 L 12.6693,-0.572479 L 12.7594,-0.860077 L 12.8849,-1.13411 L 13.0437,-1.39027 L 13.2334,-1.6245
 L 13.4509,-1.8331 L 13.6929,-2.0128 L 13.9554,-2.16075 L 14.2345,-2.27464 L 14.5256,-2.35265 L 14.8242,-2.39355
 L 15.1256,-2.3967 L 15.425,-2.36206 L 15.7177,-2.29018 L 15.9991,-2.18216 L 16.2647,-2.03973 L 16.5104,-1.86514
 L 16.7322,-1.66113 L 16.9268,-1.43094 L 17.0909,-1.17816 L 17.2221,-0.906815 L 17.3182,-0.621155 L 17.3778,-0.325714
 L 17.3999,-0.0251312 L 17.3841,0.275848 L 17.3307,0.572479 L 17.2406,0.860077 L 17.1151,1.13411 L 16.9563,1.39027
 L 16.7666,1.6245 L 16.5491,1.8331 L 16.3071,2.0128 L 16.0445,2.16075 L 15.7655,2.27464 L 15.4744,2.35265
 L 15.1758,2.39355 L 14.8744,2.3967 z
M -18.085,24.8434 L -21.17,19.5 L -18.085,14.1566 L -17.8741,14.1566 L -17.7893,13.8956 L -17.6289,13.5547
 L -17.427,13.2366 L -17.1869,12.9464 L -16.9123,12.6884 L -16.6075,12.467 L -16.2773,12.2855 L -15.927,12.1468
 L -15.5621,12.0531 L -15.1884,12.0059 L -14.8116,12.0059 L -14.4379,12.0531 L -14.0729,12.1468 L -13.7227,12.2855
 L -13.3925,12.467 L -13.0877,12.6884 L -12.8131,12.9464 L -12.5729,13.2366 L -12.3711,13.5547 L -12.2107,13.8956
 L -12.1259,14.1566 L -11.915,14.1566 L -8.83,19.5 L -11.915,24.8434 z
M -3.08499,24.8434 L -6.17,19.5 L -3.08499,14.1566 L -2.87413,14.1566 L -2.78932,13.8956 L -2.62891,13.5547
 L -2.42705,13.2366 L -2.1869,12.9464 L -1.91226,12.6884 L -1.60747,12.467 L -1.27733,12.2855 L -0.927048,12.1468
 L -0.562134,12.0531 L -0.18837,12.0059 L 0.18837,12.0059 L 0.562134,12.0531 L 0.927048,12.1468 L 1.27733,12.2855
 L 1.60747,12.467 L 1.91226,12.6884 L 2.1869,12.9464 L 2.42705,13.2366 L 2.62891,13.5547 L 2.78932,13.8956
 L 2.87413,14.1566 L 3.08499,14.1566 L 6.17,19.5 L 3.08499,24.8434 z
M 11.915,24.8434 L 8.83,19.5 L 11.915,14.1566 L 12.1259,14.1566 L 12.2107,13.8956 L 12.3711,13.5547
 L 12.5729,13.2366 L 12.8131,12.9464 L 13.0877,12.6884 L 13.3925,12.467 L 13.7227,12.2855 L 14.0729,12.1468
 L 14.4379,12.0531 L 14.8116,12.0059 L 15.1884,12.0059 L 15.5621,12.0531 L 15.927,12.1468 L 16.2773,12.2855
 L 16.6075,12.467 L 16.9123,12.6884 L 17.1869,12.9464 L 17.427,13.2366 L 17.6289,13.5547 L 17.7893,13.8956
 L 17.8741,14.1566 L 18.085,14.1566 L 21.17,19.5 L 18.085,24.8434 z
M -7.6507,17.3953 L -7.94971,17.3575 L -8.24164,17.2825 L -8.52187,17.1716 L -8.78598,17.0264 L -9.02982,16.8492
 L -9.24951,16.6429 L -9.44164,16.4107 L -9.60313,16.1562 L -9.73146,15.8835 L -9.82458,15.5968 L -9.88107,15.3008
 L -9.89999,15 L -9.88107,14.6992 L -9.82458,14.4031 L -9.73146,14.1165 L -9.60313,13.8438 L -9.44164,13.5893
 L -9.24951,13.3571 L -9.02982,13.1508 L -8.78598,12.9736 L -8.52187,12.8284 L -8.24164,12.7175 L -7.94971,12.6425
 L -7.6507,12.6047 L -7.34929,12.6047 L -7.05028,12.6425 L -6.75835,12.7175 L -6.47812,12.8284 L -6.214,12.9736
 L -5.97017,13.1508 L -5.75047,13.3571 L -5.55835,13.5893 L -5.39685,13.8438 L -5.26852,14.1165 L -5.1754,14.4031
 L -5.11891,14.6992 L -5.09999,15 L -5.11891,15.3008 L -5.1754,15.5968 L -5.26852,15.8835 L -5.39685,16.1562
 L -5.55835,16.4107 L -5.75047,16.6429 L -5.97017,16.8492 L -6.214,17.0264 L -6.47812,17.1716 L -6.75835,17.2825
 L -7.05028,17.3575 L -7.34929,17.3953 z
M 7.34929,17.3953 L 7.05028,17.3575 L 6.75835,17.2825 L 6.47812,17.1716 L 6.214,17.0264 L 5.97017,16.8492
 L 5.75047,16.6429 L 5.55835,16.4107 L 5.39685,16.1562 L 5.26852,15.8835 L 5.1754,15.5968 L 5.11891,15.3008
 L 5.09999,15 L 5.11891,14.6992 L 5.1754,14.4031 L 5.26852,14.1165 L 5.39685,13.8438 L 5.55835,13.5893
 L 5.75047,13.3571 L 5.97017,13.1508 L 6.214,12.9736 L 6.47812,12.8284 L 6.75835,12.7175 L 7.05028,12.6425
 L 7.34929,12.6047 L 7.6507,12.6047 L 7.94971,12.6425 L 8.24164,12.7175 L 8.52187,12.8284 L 8.78598,12.9736
 L 9.02982,13.1508 L 9.24951,13.3571 L 9.44164,13.5893 L 9.60313,13.8438 L 9.73146,14.1165 L 9.82458,14.4031
 L 9.88107,14.6992 L 9.89999,15 L 9.88107,15.3008 L 9.82458,15.5968 L 9.73146,15.8835 L 9.60313,16.1562
 L 9.44164,16.4107 L 9.24951,16.6429 L 9.02982,16.8492 L 8.78598,17.0264 L 8.52187,17.1716 L 8.24164,17.2825
 L 7.94971,17.3575 L 7.6507,17.3953 z
" stroke="black" fill="lightgray" stroke-width="0.5"/>
</svg>
