  0
SECTION
  2
BLOCKS
  0
ENDSEC
  0
SECTION
  2
ENTITIES
  0
LINE
  8
0
 10
22
 20
142.343
 11
22.1489
 21
142.659
  0
LINE
  8
0
 10
22.1489
 20
142.659
 11
22.3429
 21
143.257
  0
LINE
  8
0
 10
22.3429
 20
143.257
 11
22.4606
 21
143.873
  0
LINE
  8
0
 10
22.4606
 20
143.873
 11
22.5
 21
144.5
  0
LINE
  8
0
 10
22.5
 20
144.5
 11
22.5
 21
179.5
  0
LINE
  8
0
 10
22.5
 20
179.5
 11
22.4606
 21
180.127
  0
LINE
  8
0
 10
22.4606
 20
180.127
 11
22.3429
 21
180.743
  0
LINE
  8
0
 10
22.3429
 20
180.743
 11
22.1489
 21
181.341
  0
LINE
  8
0
 10
22.1489
 20
181.341
 11
21.8815
 21
181.909
  0
LINE
  8
0
 10
21.8815
 20
181.909
 11
21.5451
 21
182.439
  0
LINE
  8
0
 10
21.5451
 20
182.439
 11
21.1448
 21
182.923
  0
LINE
  8
0
 10
21.1448
 20
182.923
 11
20.6871
 21
183.353
  0
LINE
  8
0
 10
20.6871
 20
183.353
 11
20.1791
 21
183.722
  0
LINE
  8
0
 10
20.1791
 20
183.722
 11
19.6289
 21
184.024
  0
LINE
  8
0
 10
19.6289
 20
184.024
 11
19.0451
 21
184.255
  0
LINE
  8
0
 10
19.0451
 20
184.255
 11
18.4369
 21
184.411
  0
LINE
  8
0
 10
18.4369
 20
184.411
 11
17.8139
 21
184.49
  0
LINE
  8
0
 10
17.8139
 20
184.49
 11
-17.8139
 21
184.49
  0
LINE
  8
0
 10
-17.8139
 20
184.49
 11
-18.4369
 21
184.411
  0
LINE
  8
0
 10
-18.4369
 20
184.411
 11
-19.0451
 21
184.255
  0
LINE
  8
0
 10
-19.0451
 20
184.255
 11
-19.6289
 21
184.024
  0
LINE
  8
0
 10
-19.6289
 20
184.024
 11
-20.1791
 21
183.722
  0
LINE
  8
0
 10
-20.1791
 20
183.722
 11
-20.6871
 21
183.353
  0
LINE
  8
0
 10
-20.6871
 20
183.353
 11
-21.1448
 21
182.923
  0
LINE
  8
0
 10
-21.1448
 20
182.923
 11
-21.5451
 21
182.439
  0
LINE
  8
0
 10
-21.5451
 20
182.439
 11
-21.8815
 21
181.909
  0
LINE
  8
0
 10
-21.8815
 20
181.909
 11
-22.1489
 21
181.341
  0
LINE
  8
0
 10
-22.1489
 20
181.341
 11
-22.3429
 21
180.743
  0
LINE
  8
0
 10
-22.3429
 20
180.743
 11
-22.4606
 21
180.127
  0
LINE
  8
0
 10
-22.4606
 20
180.127
 11
-22.5
 21
179.5
  0
LINE
  8
0
 10
-22.5
 20
179.5
 11
-22.5
 21
144.5
  0
LINE
  8
0
 10
-22.5
 20
144.5
 11
-22.4606
 21
143.873
  0
LINE
  8
0
 10
-22.4606
 20
143.873
 11
-22.3429
 21
143.257
  0
LINE
  8
0
 10
-22.3429
 20
143.257
 11
-22.1489
 21
142.659
  0
LINE
  8
0
 10
-22.1489
 20
142.659
 11
-22
 21
142.343
  0
LINE
  8
0
 10
-22
 20
142.343
 11
-22
 21
133.5
  0
LINE
  8
0
 10
-22
 20
133.5
 11
22
 21
133.5
  0
LINE
  8
0
 10
22
 20
133.5
 11
22
 21
142.343
  0
LINE
  8
0
 10
14.8116
 20
174.006
 11
14.4379
 21
174.053
  0
LINE
  8
0
 10
14.4379
 20
174.053
 11
14.0729
 21
174.147
  0
LINE
  8
0
 10
14.0729
 20
174.147
 11
13.7227
 21
174.286
  0
LINE
  8
0
 10
13.7227
 20
174.286
 11
13.3925
 21
174.467
  0
LINE
  8
0
 10
13.3925
 20
174.467
 11
13.0877
 21
174.688
  0
LINE
  8
0
 10
13.0877
 20
174.688
 11
12.8131
 21
174.946
  0
LINE
  8
0
 10
12.8131
 20
174.946
 11
12.5729
 21
175.237
  0
LINE
  8
0
 10
12.5729
 20
175.237
 11
12.3711
 21
175.555
  0
LINE
  8
0
 10
12.3711
 20
175.555
 11
12.2107
 21
175.896
  0
LINE
  8
0
 10
12.2107
 20
175.896
 11
12.0942
 21
176.254
  0
LINE
  8
0
 10
12.0942
 20
176.254
 11
12.0237
 21
176.624
  0
LINE
  8
0
 10
12.0237
 20
176.624
 11
12
 21
177
  0
LINE
  8
0
 10
12
 20
177
 11
12.0237
 21
177.376
  0
LINE
  8
0
 10
12.0237
 20
177.376
 11
12.0942
 21
177.746
  0
LINE
  8
0
 10
12.0942
 20
177.746
 11
12.2107
 21
178.104
  0
LINE
  8
0
 10
12.2107
 20
178.104
 11
12.3711
 21
178.445
  0
LINE
  8
0
 10
12.3711
 20
178.445
 11
12.5729
 21
178.763
  0
LINE
  8
0
 10
12.5729
 20
178.763
 11
12.8131
 21
179.054
  0
LINE
  8
0
 10
12.8131
 20
179.054
 11
13.0877
 21
179.312
  0
LINE
  8
0
 10
13.0877
 20
179.312
 11
13.3925
 21
179.533
  0
LINE
  8
0
 10
13.3925
 20
179.533
 11
13.7227
 21
179.714
  0
LINE
  8
0
 10
13.7227
 20
179.714
 11
14.0729
 21
179.853
  0
LINE
  8
0
 10
14.0729
 20
179.853
 11
14.4379
 21
179.947
  0
LINE
  8
0
 10
14.4379
 20
179.947
 11
14.8116
 21
179.994
  0
LINE
  8
0
 10
14.8116
 20
179.994
 11
15.1884
 21
179.994
  0
LINE
  8
0
 10
15.1884
 20
179.994
 11
15.5621
 21
179.947
  0
LINE
  8
0
 10
15.5621
 20
179.947
 11
15.927
 21
179.853
  0
LINE
  8
0
 10
15.927
 20
179.853
 11
16.2773
 21
179.714
  0
LINE
  8
0
 10
16.2773
 20
179.714
 11
16.6075
 21
179.533
  0
LINE
  8
0
 10
16.6075
 20
179.533
 11
16.9123
 21
179.312
  0
LINE
  8
0
 10
16.9123
 20
179.312
 11
17.1869
 21
179.054
  0
LINE
  8
0
 10
17.1869
 20
179.054
 11
17.427
 21
178.763
  0
LINE
  8
0
 10
17.427
 20
178.763
 11
17.6289
 21
178.445
  0
LINE
  8
0
 10
17.6289
 20
178.445
 11
17.7893
 21
178.104
  0
LINE
  8
0
 10
17.7893
 20
178.104
 11
17.9057
 21
177.746
  0
LINE
  8
0
 10
17.9057
 20
177.746
 11
17.9763
 21
177.376
  0
LINE
  8
0
 10
17.9763
 20
177.376
 11
18
 21
177
  0
LINE
  8
0
 10
18
 20
177
 11
17.9763
 21
176.624
  0
LINE
  8
0
 10
17.9763
 20
176.624
 11
17.9057
 21
176.254
  0
LINE
  8
0
 10
17.9057
 20
176.254
 11
17.7893
 21
175.896
  0
LINE
  8
0
 10
17.7893
 20
175.896
 11
17.6289
 21
175.555
  0
LINE
  8
0
 10
17.6289
 20
175.555
 11
17.427
 21
175.237
  0
LINE
  8
0
 10
17.427
 20
175.237
 11
17.1869
 21
174.946
  0
LINE
  8
0
 10
17.1869
 20
174.946
 11
16.9123
 21
174.688
  0
LINE
  8
0
 10
16.9123
 20
174.688
 11
16.6075
 21
174.467
  0
LINE
  8
0
 10
16.6075
 20
174.467
 11
16.2773
 21
174.286
  0
LINE
  8
0
 10
16.2773
 20
174.286
 11
15.927
 21
174.147
  0
LINE
  8
0
 10
15.927
 20
174.147
 11
15.5621
 21
174.053
  0
LINE
  8
0
 10
15.5621
 20
174.053
 11
15.1884
 21
174.006
  0
LINE
  8
0
 10
15.1884
 20
174.006
 11
14.8116
 21
174.006
  0
LINE
  8
0
 10
-15.1884
 20
174.006
 11
-15.5621
 21
174.053
  0
LINE
  8
0
 10
-15.5621
 20
174.053
 11
-15.927
 21
174.147
  0
LINE
  8
0
 10
-15.927
 20
174.147
 11
-16.2773
 21
174.286
  0
LINE
  8
0
 10
-16.2773
 20
174.286
 11
-16.6075
 21
174.467
  0
LINE
  8
0
 10
-16.6075
 20
174.467
 11
-16.9123
 21
174.688
  0
LINE
  8
0
 10
-16.9123
 20
174.688
 11
-17.1869
 21
174.946
  0
LINE
  8
0
 10
-17.1869
 20
174.946
 11
-17.427
 21
175.237
  0
LINE
  8
0
 10
-17.427
 20
175.237
 11
-17.6289
 21
175.555
  0
LINE
  8
0
 10
-17.6289
 20
175.555
 11
-17.7893
 21
175.896
  0
LINE
  8
0
 10
-17.7893
 20
175.896
 11
-17.9057
 21
176.254
  0
LINE
  8
0
 10
-17.9057
 20
176.254
 11
-17.9763
 21
176.624
  0
LINE
  8
0
 10
-17.9763
 20
176.624
 11
-18
 21
177
  0
LINE
  8
0
 10
-18
 20
177
 11
-17.9763
 21
177.376
  0
LINE
  8
0
 10
-17.9763
 20
177.376
 11
-17.9057
 21
177.746
  0
LINE
  8
0
 10
-17.9057
 20
177.746
 11
-17.7893
 21
178.104
  0
LINE
  8
0
 10
-17.7893
 20
178.104
 11
-17.6289
 21
178.445
  0
LINE
  8
0
 10
-17.6289
 20
178.445
 11
-17.427
 21
178.763
  0
LINE
  8
0
 10
-17.427
 20
178.763
 11
-17.1869
 21
179.054
  0
LINE
  8
0
 10
-17.1869
 20
179.054
 11
-16.9123
 21
179.312
  0
LINE
  8
0
 10
-16.9123
 20
179.312
 11
-16.6075
 21
179.533
  0
LINE
  8
0
 10
-16.6075
 20
179.533
 11
-16.2773
 21
179.714
  0
LINE
  8
0
 10
-16.2773
 20
179.714
 11
-15.927
 21
179.853
  0
LINE
  8
0
 10
-15.927
 20
179.853
 11
-15.5621
 21
179.947
  0
LINE
  8
0
 10
-15.5621
 20
179.947
 11
-15.1884
 21
179.994
  0
LINE
  8
0
 10
-15.1884
 20
179.994
 11
-14.8116
 21
179.994
  0
LINE
  8
0
 10
-14.8116
 20
179.994
 11
-14.4379
 21
179.947
  0
LINE
  8
0
 10
-14.4379
 20
179.947
 11
-14.0729
 21
179.853
  0
LINE
  8
0
 10
-14.0729
 20
179.853
 11
-13.7227
 21
179.714
  0
LINE
  8
0
 10
-13.7227
 20
179.714
 11
-13.3925
 21
179.533
  0
LINE
  8
0
 10
-13.3925
 20
179.533
 11
-13.0877
 21
179.312
  0
LINE
  8
0
 10
-13.0877
 20
179.312
 11
-12.8131
 21
179.054
  0
LINE
  8
0
 10
-12.8131
 20
179.054
 11
-12.5729
 21
178.763
  0
LINE
  8
0
 10
-12.5729
 20
178.763
 11
-12.3711
 21
178.445
  0
LINE
  8
0
 10
-12.3711
 20
178.445
 11
-12.2107
 21
178.104
  0
LINE
  8
0
 10
-12.2107
 20
178.104
 11
-12.0942
 21
177.746
  0
LINE
  8
0
 10
-12.0942
 20
177.746
 11
-12.0237
 21
177.376
  0
LINE
  8
0
 10
-12.0237
 20
177.376
 11
-12
 21
177
  0
LINE
  8
0
 10
-12
 20
177
 11
-12.0237
 21
176.624
  0
LINE
  8
0
 10
-12.0237
 20
176.624
 11
-12.0942
 21
176.254
  0
LINE
  8
0
 10
-12.0942
 20
176.254
 11
-12.2107
 21
175.896
  0
LINE
  8
0
 10
-12.2107
 20
175.896
 11
-12.3711
 21
175.555
  0
LINE
  8
0
 10
-12.3711
 20
175.555
 11
-12.5729
 21
175.237
  0
LINE
  8
0
 10
-12.5729
 20
175.237
 11
-12.8131
 21
174.946
  0
LINE
  8
0
 10
-12.8131
 20
174.946
 11
-13.0877
 21
174.688
  0
LINE
  8
0
 10
-13.0877
 20
174.688
 11
-13.3925
 21
174.467
  0
LINE
  8
0
 10
-13.3925
 20
174.467
 11
-13.7227
 21
174.286
  0
LINE
  8
0
 10
-13.7227
 20
174.286
 11
-14.0729
 21
174.147
  0
LINE
  8
0
 10
-14.0729
 20
174.147
 11
-14.4379
 21
174.053
  0
LINE
  8
0
 10
-14.4379
 20
174.053
 11
-14.8116
 21
174.006
  0
LINE
  8
0
 10
-14.8116
 20
174.006
 11
-15.1884
 21
174.006
  0
LINE
  8
0
 10
-0.150696
 20
174.605
 11
-0.449707
 21
174.643
  0
LINE
  8
0
 10
-0.449707
 20
174.643
 11
-0.741638
 21
174.717
  0
LINE
  8
0
 10
-0.741638
 20
174.717
 11
-1.02187
 21
174.828
  0
LINE
  8
0
 10
-1.02187
 20
174.828
 11
-1.28598
 21
174.974
  0
LINE
  8
0
 10
-1.28598
 20
174.974
 11
-1.52982
 21
175.151
  0
LINE
  8
0
 10
-1.52982
 20
175.151
 11
-1.74951
 21
175.357
  0
LINE
  8
0
 10
-1.74951
 20
175.357
 11
-1.94164
 21
175.589
  0
LINE
  8
0
 10
-1.94164
 20
175.589
 11
-2.10313
 21
175.844
  0
LINE
  8
0
 10
-2.10313
 20
175.844
 11
-2.23146
 21
176.117
  0
LINE
  8
0
 10
-2.23146
 20
176.117
 11
-2.32458
 21
176.403
  0
LINE
  8
0
 10
-2.32458
 20
176.403
 11
-2.38107
 21
176.699
  0
LINE
  8
0
 10
-2.38107
 20
176.699
 11
-2.39999
 21
177
  0
LINE
  8
0
 10
-2.39999
 20
177
 11
-2.38107
 21
177.301
  0
LINE
  8
0
 10
-2.38107
 20
177.301
 11
-2.32458
 21
177.597
  0
LINE
  8
0
 10
-2.32458
 20
177.597
 11
-2.23146
 21
177.883
  0
LINE
  8
0
 10
-2.23146
 20
177.883
 11
-2.10313
 21
178.156
  0
LINE
  8
0
 10
-2.10313
 20
178.156
 11
-1.94164
 21
178.411
  0
LINE
  8
0
 10
-1.94164
 20
178.411
 11
-1.74951
 21
178.643
  0
LINE
  8
0
 10
-1.74951
 20
178.643
 11
-1.52982
 21
178.849
  0
LINE
  8
0
 10
-1.52982
 20
178.849
 11
-1.28598
 21
179.026
  0
LINE
  8
0
 10
-1.28598
 20
179.026
 11
-1.02187
 21
179.172
  0
LINE
  8
0
 10
-1.02187
 20
179.172
 11
-0.741638
 21
179.283
  0
LINE
  8
0
 10
-0.741638
 20
179.283
 11
-0.449707
 21
179.357
  0
LINE
  8
0
 10
-0.449707
 20
179.357
 11
-0.150696
 21
179.395
  0
LINE
  8
0
 10
-0.150696
 20
179.395
 11
0.150696
 21
179.395
  0
LINE
  8
0
 10
0.150696
 20
179.395
 11
0.449707
 21
179.357
  0
LINE
  8
0
 10
0.449707
 20
179.357
 11
0.741638
 21
179.283
  0
LINE
  8
0
 10
0.741638
 20
179.283
 11
1.02187
 21
179.172
  0
LINE
  8
0
 10
1.02187
 20
179.172
 11
1.28598
 21
179.026
  0
LINE
  8
0
 10
1.28598
 20
179.026
 11
1.52982
 21
178.849
  0
LINE
  8
0
 10
1.52982
 20
178.849
 11
1.74951
 21
178.643
  0
LINE
  8
0
 10
1.74951
 20
178.643
 11
1.94164
 21
178.411
  0
LINE
  8
0
 10
1.94164
 20
178.411
 11
2.10313
 21
178.156
  0
LINE
  8
0
 10
2.10313
 20
178.156
 11
2.23146
 21
177.883
  0
LINE
  8
0
 10
2.23146
 20
177.883
 11
2.32458
 21
177.597
  0
LINE
  8
0
 10
2.32458
 20
177.597
 11
2.38107
 21
177.301
  0
LINE
  8
0
 10
2.38107
 20
177.301
 11
2.39999
 21
177
  0
LINE
  8
0
 10
2.39999
 20
177
 11
2.38107
 21
176.699
  0
LINE
  8
0
 10
2.38107
 20
176.699
 11
2.32458
 21
176.403
  0
LINE
  8
0
 10
2.32458
 20
176.403
 11
2.23146
 21
176.117
  0
LINE
  8
0
 10
2.23146
 20
176.117
 11
2.10313
 21
175.844
  0
LINE
  8
0
 10
2.10313
 20
175.844
 11
1.94164
 21
175.589
  0
LINE
  8
0
 10
1.94164
 20
175.589
 11
1.74951
 21
175.357
  0
LINE
  8
0
 10
1.74951
 20
175.357
 11
1.52982
 21
175.151
  0
LINE
  8
0
 10
1.52982
 20
175.151
 11
1.28598
 21
174.974
  0
LINE
  8
0
 10
1.28598
 20
174.974
 11
1.02187
 21
174.828
  0
LINE
  8
0
 10
1.02187
 20
174.828
 11
0.741638
 21
174.717
  0
LINE
  8
0
 10
0.741638
 20
174.717
 11
0.449707
 21
174.643
  0
LINE
  8
0
 10
0.449707
 20
174.643
 11
0.150696
 21
174.605
  0
LINE
  8
0
 10
0.150696
 20
174.605
 11
-0.150696
 21
174.605
  0
LINE
  8
0
 10
-0.470917
 20
154.515
 11
-1.40535
 21
154.633
  0
LINE
  8
0
 10
-1.40535
 20
154.633
 11
-2.31763
 21
154.867
  0
LINE
  8
0
 10
-2.31763
 20
154.867
 11
-3.19334
 21
155.214
  0
LINE
  8
0
 10
-3.19334
 20
155.214
 11
-4.01869
 21
155.668
  0
LINE
  8
0
 10
-4.01869
 20
155.668
 11
-4.78067
 21
156.221
  0
LINE
  8
0
 10
-4.78067
 20
156.221
 11
-5.46725
 21
156.866
  0
LINE
  8
0
 10
-5.46725
 20
156.866
 11
-6.06763
 21
157.592
  0
LINE
  8
0
 10
-6.06763
 20
157.592
 11
-6.5723
 21
158.387
  0
LINE
  8
0
 10
-6.5723
 20
158.387
 11
-6.97331
 21
159.239
  0
LINE
  8
0
 10
-6.97331
 20
159.239
 11
-7.26436
 21
160.135
  0
LINE
  8
0
 10
-7.26436
 20
160.135
 11
-7.44086
 21
161.06
  0
LINE
  8
0
 10
-7.44086
 20
161.06
 11
-7.5
 21
162
  0
LINE
  8
0
 10
-7.5
 20
162
 11
-7.44086
 21
162.94
  0
LINE
  8
0
 10
-7.44086
 20
162.94
 11
-7.26436
 21
163.865
  0
LINE
  8
0
 10
-7.26436
 20
163.865
 11
-6.97331
 21
164.761
  0
LINE
  8
0
 10
-6.97331
 20
164.761
 11
-6.5723
 21
165.613
  0
LINE
  8
0
 10
-6.5723
 20
165.613
 11
-6.06763
 21
166.408
  0
LINE
  8
0
 10
-6.06763
 20
166.408
 11
-5.46725
 21
167.134
  0
LINE
  8
0
 10
-5.46725
 20
167.134
 11
-4.78067
 21
167.779
  0
LINE
  8
0
 10
-4.78067
 20
167.779
 11
-4.01869
 21
168.332
  0
LINE
  8
0
 10
-4.01869
 20
168.332
 11
-3.19334
 21
168.786
  0
LINE
  8
0
 10
-3.19334
 20
168.786
 11
-2.31763
 21
169.133
  0
LINE
  8
0
 10
-2.31763
 20
169.133
 11
-1.40535
 21
169.367
  0
LINE
  8
0
 10
-1.40535
 20
169.367
 11
-0.470917
 21
169.485
  0
LINE
  8
0
 10
-0.470917
 20
169.485
 11
0.470917
 21
169.485
  0
LINE
  8
0
 10
0.470917
 20
169.485
 11
1.40535
 21
169.367
  0
LINE
  8
0
 10
1.40535
 20
169.367
 11
2.31763
 21
169.133
  0
LINE
  8
0
 10
2.31763
 20
169.133
 11
3.19334
 21
168.786
  0
LINE
  8
0
 10
3.19334
 20
168.786
 11
4.01869
 21
168.332
  0
LINE
  8
0
 10
4.01869
 20
168.332
 11
4.78067
 21
167.779
  0
LINE
  8
0
 10
4.78067
 20
167.779
 11
5.46725
 21
167.134
  0
LINE
  8
0
 10
5.46725
 20
167.134
 11
6.06763
 21
166.408
  0
LINE
  8
0
 10
6.06763
 20
166.408
 11
6.5723
 21
165.613
  0
LINE
  8
0
 10
6.5723
 20
165.613
 11
6.97331
 21
164.761
  0
LINE
  8
0
 10
6.97331
 20
164.761
 11
7.26436
 21
163.865
  0
LINE
  8
0
 10
7.26436
 20
163.865
 11
7.44086
 21
162.94
  0
LINE
  8
0
 10
7.44086
 20
162.94
 11
7.5
 21
162
  0
LINE
  8
0
 10
7.5
 20
162
 11
7.44086
 21
161.06
  0
LINE
  8
0
 10
7.44086
 20
161.06
 11
7.26436
 21
160.135
  0
LINE
  8
0
 10
7.26436
 20
160.135
 11
6.97331
 21
159.239
  0
LINE
  8
0
 10
6.97331
 20
159.239
 11
6.5723
 21
158.387
  0
LINE
  8
0
 10
6.5723
 20
158.387
 11
6.06763
 21
157.592
  0
LINE
  8
0
 10
6.06763
 20
157.592
 11
5.46725
 21
156.866
  0
LINE
  8
0
 10
5.46725
 20
156.866
 11
4.78067
 21
156.221
  0
LINE
  8
0
 10
4.78067
 20
156.221
 11
4.01869
 21
155.668
  0
LINE
  8
0
 10
4.01869
 20
155.668
 11
3.19334
 21
155.214
  0
LINE
  8
0
 10
3.19334
 20
155.214
 11
2.31763
 21
154.867
  0
LINE
  8
0
 10
2.31763
 20
154.867
 11
1.40535
 21
154.633
  0
LINE
  8
0
 10
1.40535
 20
154.633
 11
0.470917
 21
154.515
  0
LINE
  8
0
 10
0.470917
 20
154.515
 11
-0.470917
 21
154.515
  0
LINE
  8
0
 10
0.749512
 20
158.071
 11
1.23605
 21
158.196
  0
LINE
  8
0
 10
1.23605
 20
158.196
 11
1.70311
 21
158.381
  0
LINE
  8
0
 10
1.70311
 20
158.381
 11
2.1433
 21
158.623
  0
LINE
  8
0
 10
2.1433
 20
158.623
 11
2.54968
 21
158.918
  0
LINE
  8
0
 10
2.54968
 20
158.918
 11
2.91586
 21
159.262
  0
LINE
  8
0
 10
2.91586
 20
159.262
 11
3.23605
 21
159.649
  0
LINE
  8
0
 10
3.23605
 20
159.649
 11
3.50522
 21
160.073
  0
LINE
  8
0
 10
3.50522
 20
160.073
 11
3.7191
 21
160.528
  0
LINE
  8
0
 10
3.7191
 20
160.528
 11
3.87433
 21
161.005
  0
LINE
  8
0
 10
3.87433
 20
161.005
 11
3.96844
 21
161.499
  0
LINE
  8
0
 10
3.96844
 20
161.499
 11
4
 21
162
  0
LINE
  8
0
 10
4
 20
162
 11
3.96844
 21
162.501
  0
LINE
  8
0
 10
3.96844
 20
162.501
 11
3.87433
 21
162.995
  0
LINE
  8
0
 10
3.87433
 20
162.995
 11
3.7191
 21
163.472
  0
LINE
  8
0
 10
3.7191
 20
163.472
 11
3.50522
 21
163.927
  0
LINE
  8
0
 10
3.50522
 20
163.927
 11
3.23605
 21
164.351
  0
LINE
  8
0
 10
3.23605
 20
164.351
 11
2.91586
 21
164.738
  0
LINE
  8
0
 10
2.91586
 20
164.738
 11
2.54968
 21
165.082
  0
LINE
  8
0
 10
2.54968
 20
165.082
 11
2.1433
 21
165.377
  0
LINE
  8
0
 10
2.1433
 20
165.377
 11
1.70311
 21
165.619
  0
LINE
  8
0
 10
1.70311
 20
165.619
 11
1.23605
 21
165.804
  0
LINE
  8
0
 10
1.23605
 20
165.804
 11
0.749512
 21
165.929
  0
LINE
  8
0
 10
0.749512
 20
165.929
 11
0.25116
 21
165.992
  0
LINE
  8
0
 10
0.25116
 20
165.992
 11
-0.25116
 21
165.992
  0
LINE
  8
0
 10
-0.25116
 20
165.992
 11
-0.749512
 21
165.929
  0
LINE
  8
0
 10
-0.749512
 20
165.929
 11
-1.23605
 21
165.804
  0
LINE
  8
0
 10
-1.23605
 20
165.804
 11
-1.70311
 21
165.619
  0
LINE
  8
0
 10
-1.70311
 20
165.619
 11
-2.1433
 21
165.377
  0
LINE
  8
0
 10
-2.1433
 20
165.377
 11
-2.54968
 21
165.082
  0
LINE
  8
0
 10
-2.54968
 20
165.082
 11
-2.91586
 21
164.738
  0
LINE
  8
0
 10
-2.91586
 20
164.738
 11
-3.23605
 21
164.351
  0
LINE
  8
0
 10
-3.23605
 20
164.351
 11
-3.50522
 21
163.927
  0
LINE
  8
0
 10
-3.50522
 20
163.927
 11
-3.7191
 21
163.472
  0
LINE
  8
0
 10
-3.7191
 20
163.472
 11
-3.87433
 21
162.995
  0
LINE
  8
0
 10
-3.87433
 20
162.995
 11
-3.96844
 21
162.501
  0
LINE
  8
0
 10
-3.96844
 20
162.501
 11
-4
 21
162
  0
LINE
  8
0
 10
-4
 20
162
 11
-3.96844
 21
161.499
  0
LINE
  8
0
 10
-3.96844
 20
161.499
 11
-3.87433
 21
161.005
  0
LINE
  8
0
 10
-3.87433
 20
161.005
 11
-3.7191
 21
160.528
  0
LINE
  8
0
 10
-3.7191
 20
160.528
 11
-3.50522
 21
160.073
  0
LINE
  8
0
 10
-3.50522
 20
160.073
 11
-3.23605
 21
159.649
  0
LINE
  8
0
 10
-3.23605
 20
159.649
 11
-2.91586
 21
159.262
  0
LINE
  8
0
 10
-2.91586
 20
159.262
 11
-2.54968
 21
158.918
  0
LINE
  8
0
 10
-2.54968
 20
158.918
 11
-2.1433
 21
158.623
  0
LINE
  8
0
 10
-2.1433
 20
158.623
 11
-1.70311
 21
158.381
  0
LINE
  8
0
 10
-1.70311
 20
158.381
 11
-1.23605
 21
158.196
  0
LINE
  8
0
 10
-1.23605
 20
158.196
 11
-0.749512
 21
158.071
  0
LINE
  8
0
 10
-0.749512
 20
158.071
 11
-0.25116
 21
158.008
  0
LINE
  8
0
 10
-0.25116
 20
158.008
 11
0.25116
 21
158.008
  0
LINE
  8
0
 10
0.25116
 20
158.008
 11
0.749512
 21
158.071
  0
LINE
  8
0
 10
-0.18837
 20
159.006
 11
-0.562134
 21
159.053
  0
LINE
  8
0
 10
-0.562134
 20
159.053
 11
-0.927048
 21
159.147
  0
LINE
  8
0
 10
-0.927048
 20
159.147
 11
-1.27733
 21
159.286
  0
LINE
  8
0
 10
-1.27733
 20
159.286
 11
-1.60747
 21
159.467
  0
LINE
  8
0
 10
-1.60747
 20
159.467
 11
-1.91226
 21
159.688
  0
LINE
  8
0
 10
-1.91226
 20
159.688
 11
-2.1869
 21
159.946
  0
LINE
  8
0
 10
-2.1869
 20
159.946
 11
-2.42705
 21
160.237
  0
LINE
  8
0
 10
-2.42705
 20
160.237
 11
-2.62891
 21
160.555
  0
LINE
  8
0
 10
-2.62891
 20
160.555
 11
-2.78932
 21
160.896
  0
LINE
  8
0
 10
-2.78932
 20
160.896
 11
-2.90575
 21
161.254
  0
LINE
  8
0
 10
-2.90575
 20
161.254
 11
-2.97633
 21
161.624
  0
LINE
  8
0
 10
-2.97633
 20
161.624
 11
-3
 21
162
  0
LINE
  8
0
 10
-3
 20
162
 11
-2.97633
 21
162.376
  0
LINE
  8
0
 10
-2.97633
 20
162.376
 11
-2.90575
 21
162.746
  0
LINE
  8
0
 10
-2.90575
 20
162.746
 11
-2.78932
 21
163.104
  0
LINE
  8
0
 10
-2.78932
 20
163.104
 11
-2.62891
 21
163.445
  0
LINE
  8
0
 10
-2.62891
 20
163.445
 11
-2.42705
 21
163.763
  0
LINE
  8
0
 10
-2.42705
 20
163.763
 11
-2.1869
 21
164.054
  0
LINE
  8
0
 10
-2.1869
 20
164.054
 11
-1.91226
 21
164.312
  0
LINE
  8
0
 10
-1.91226
 20
164.312
 11
-1.60747
 21
164.533
  0
LINE
  8
0
 10
-1.60747
 20
164.533
 11
-1.27733
 21
164.714
  0
LINE
  8
0
 10
-1.27733
 20
164.714
 11
-0.927048
 21
164.853
  0
LINE
  8
0
 10
-0.927048
 20
164.853
 11
-0.562134
 21
164.947
  0
LINE
  8
0
 10
-0.562134
 20
164.947
 11
-0.18837
 21
164.994
  0
LINE
  8
0
 10
-0.18837
 20
164.994
 11
0.18837
 21
164.994
  0
LINE
  8
0
 10
0.18837
 20
164.994
 11
0.562134
 21
164.947
  0
LINE
  8
0
 10
0.562134
 20
164.947
 11
0.927048
 21
164.853
  0
LINE
  8
0
 10
0.927048
 20
164.853
 11
1.27733
 21
164.714
  0
LINE
  8
0
 10
1.27733
 20
164.714
 11
1.60747
 21
164.533
  0
LINE
  8
0
 10
1.60747
 20
164.533
 11
1.91226
 21
164.312
  0
LINE
  8
0
 10
1.91226
 20
164.312
 11
2.1869
 21
164.054
  0
LINE
  8
0
 10
2.1869
 20
164.054
 11
2.42705
 21
163.763
  0
LINE
  8
0
 10
2.42705
 20
163.763
 11
2.62891
 21
163.445
  0
LINE
  8
0
 10
2.62891
 20
163.445
 11
2.78932
 21
163.104
  0
LINE
  8
0
 10
2.78932
 20
163.104
 11
2.90575
 21
162.746
  0
LINE
  8
0
 10
2.90575
 20
162.746
 11
2.97633
 21
162.376
  0
LINE
  8
0
 10
2.97633
 20
162.376
 11
3
 21
162
  0
LINE
  8
0
 10
3
 20
162
 11
2.97633
 21
161.624
  0
LINE
  8
0
 10
2.97633
 20
161.624
 11
2.90575
 21
161.254
  0
LINE
  8
0
 10
2.90575
 20
161.254
 11
2.78932
 21
160.896
  0
LINE
  8
0
 10
2.78932
 20
160.896
 11
2.62891
 21
160.555
  0
LINE
  8
0
 10
2.62891
 20
160.555
 11
2.42705
 21
160.237
  0
LINE
  8
0
 10
2.42705
 20
160.237
 11
2.1869
 21
159.946
  0
LINE
  8
0
 10
2.1869
 20
159.946
 11
1.91226
 21
159.688
  0
LINE
  8
0
 10
1.91226
 20
159.688
 11
1.60747
 21
159.467
  0
LINE
  8
0
 10
1.60747
 20
159.467
 11
1.27733
 21
159.286
  0
LINE
  8
0
 10
1.27733
 20
159.286
 11
0.927048
 21
159.147
  0
LINE
  8
0
 10
0.927048
 20
159.147
 11
0.562134
 21
159.053
  0
LINE
  8
0
 10
0.562134
 20
159.053
 11
0.18837
 21
159.006
  0
LINE
  8
0
 10
0.18837
 20
159.006
 11
-0.18837
 21
159.006
  0
LINE
  8
0
 10
14.575
 20
159.638
 11
14.2823
 21
159.71
  0
LINE
  8
0
 10
14.2823
 20
159.71
 11
14.0009
 21
159.818
  0
LINE
  8
0
 10
14.0009
 20
159.818
 11
13.7353
 21
159.96
  0
LINE
  8
0
 10
13.7353
 20
159.96
 11
13.4896
 21
160.135
  0
LINE
  8
0
 10
13.4896
 20
160.135
 11
13.2678
 21
160.339
  0
LINE
  8
0
 10
13.2678
 20
160.339
 11
13.0732
 21
160.569
  0
LINE
  8
0
 10
13.0732
 20
160.569
 11
12.9091
 21
160.822
  0
LINE
  8
0
 10
12.9091
 20
160.822
 11
12.7779
 21
161.093
  0
LINE
  8
0
 10
12.7779
 20
161.093
 11
12.6818
 21
161.379
  0
LINE
  8
0
 10
12.6818
 20
161.379
 11
12.6222
 21
161.674
  0
LINE
  8
0
 10
12.6222
 20
161.674
 11
12.6001
 21
161.975
  0
LINE
  8
0
 10
12.6001
 20
161.975
 11
12.6159
 21
162.276
  0
LINE
  8
0
 10
12.6159
 20
162.276
 11
12.6693
 21
162.572
  0
LINE
  8
0
 10
12.6693
 20
162.572
 11
12.7594
 21
162.86
  0
LINE
  8
0
 10
12.7594
 20
162.86
 11
12.8849
 21
163.134
  0
LINE
  8
0
 10
12.8849
 20
163.134
 11
13.0437
 21
163.39
  0
LINE
  8
0
 10
13.0437
 20
163.39
 11
13.2334
 21
163.624
  0
LINE
  8
0
 10
13.2334
 20
163.624
 11
13.4509
 21
163.833
  0
LINE
  8
0
 10
13.4509
 20
163.833
 11
13.6929
 21
164.013
  0
LINE
  8
0
 10
13.6929
 20
164.013
 11
13.9554
 21
164.161
  0
LINE
  8
0
 10
13.9554
 20
164.161
 11
14.2345
 21
164.275
  0
LINE
  8
0
 10
14.2345
 20
164.275
 11
14.5256
 21
164.353
  0
LINE
  8
0
 10
14.5256
 20
164.353
 11
14.8242
 21
164.394
  0
LINE
  8
0
 10
14.8242
 20
164.394
 11
15.1256
 21
164.397
  0
LINE
  8
0
 10
15.1256
 20
164.397
 11
15.425
 21
164.362
  0
LINE
  8
0
 10
15.425
 20
164.362
 11
15.7177
 21
164.29
  0
LINE
  8
0
 10
15.7177
 20
164.29
 11
15.9991
 21
164.182
  0
LINE
  8
0
 10
15.9991
 20
164.182
 11
16.2647
 21
164.04
  0
LINE
  8
0
 10
16.2647
 20
164.04
 11
16.5104
 21
163.865
  0
LINE
  8
0
 10
16.5104
 20
163.865
 11
16.7322
 21
163.661
  0
LINE
  8
0
 10
16.7322
 20
163.661
 11
16.9268
 21
163.431
  0
LINE
  8
0
 10
16.9268
 20
163.431
 11
17.0909
 21
163.178
  0
LINE
  8
0
 10
17.0909
 20
163.178
 11
17.2221
 21
162.907
  0
LINE
  8
0
 10
17.2221
 20
162.907
 11
17.3182
 21
162.621
  0
LINE
  8
0
 10
17.3182
 20
162.621
 11
17.3778
 21
162.326
  0
LINE
  8
0
 10
17.3778
 20
162.326
 11
17.3999
 21
162.025
  0
LINE
  8
0
 10
17.3999
 20
162.025
 11
17.3841
 21
161.724
  0
LINE
  8
0
 10
17.3841
 20
161.724
 11
17.3307
 21
161.428
  0
LINE
  8
0
 10
17.3307
 20
161.428
 11
17.2406
 21
161.14
  0
LINE
  8
0
 10
17.2406
 20
161.14
 11
17.1151
 21
160.866
  0
LINE
  8
0
 10
17.1151
 20
160.866
 11
16.9563
 21
160.61
  0
LINE
  8
0
 10
16.9563
 20
160.61
 11
16.7666
 21
160.376
  0
LINE
  8
0
 10
16.7666
 20
160.376
 11
16.5491
 21
160.167
  0
LINE
  8
0
 10
16.5491
 20
160.167
 11
16.3071
 21
159.987
  0
LINE
  8
0
 10
16.3071
 20
159.987
 11
16.0445
 21
159.839
  0
LINE
  8
0
 10
16.0445
 20
159.839
 11
15.7655
 21
159.725
  0
LINE
  8
0
 10
15.7655
 20
159.725
 11
15.4744
 21
159.647
  0
LINE
  8
0
 10
15.4744
 20
159.647
 11
15.1758
 21
159.606
  0
LINE
  8
0
 10
15.1758
 20
159.606
 11
14.8744
 21
159.603
  0
LINE
  8
0
 10
14.8744
 20
159.603
 11
14.575
 21
159.638
  0
LINE
  8
0
 10
-15.425
 20
159.638
 11
-15.7177
 21
159.71
  0
LINE
  8
0
 10
-15.7177
 20
159.71
 11
-15.9991
 21
159.818
  0
LINE
  8
0
 10
-15.9991
 20
159.818
 11
-16.2647
 21
159.96
  0
LINE
  8
0
 10
-16.2647
 20
159.96
 11
-16.5104
 21
160.135
  0
LINE
  8
0
 10
-16.5104
 20
160.135
 11
-16.7322
 21
160.339
  0
LINE
  8
0
 10
-16.7322
 20
160.339
 11
-16.9268
 21
160.569
  0
LINE
  8
0
 10
-16.9268
 20
160.569
 11
-17.0909
 21
160.822
  0
LINE
  8
0
 10
-17.0909
 20
160.822
 11
-17.2221
 21
161.093
  0
LINE
  8
0
 10
-17.2221
 20
161.093
 11
-17.3182
 21
161.379
  0
LINE
  8
0
 10
-17.3182
 20
161.379
 11
-17.3778
 21
161.674
  0
LINE
  8
0
 10
-17.3778
 20
161.674
 11
-17.3999
 21
161.975
  0
LINE
  8
0
 10
-17.3999
 20
161.975
 11
-17.3841
 21
162.276
  0
LINE
  8
0
 10
-17.3841
 20
162.276
 11
-17.3307
 21
162.572
  0
LINE
  8
0
 10
-17.3307
 20
162.572
 11
-17.2406
 21
162.86
  0
LINE
  8
0
 10
-17.2406
 20
162.86
 11
-17.1151
 21
163.134
  0
LINE
  8
0
 10
-17.1151
 20
163.134
 11
-16.9563
 21
163.39
  0
LINE
  8
0
 10
-16.9563
 20
163.39
 11
-16.7666
 21
163.624
  0
LINE
  8
0
 10
-16.7666
 20
163.624
 11
-16.5491
 21
163.833
  0
LINE
  8
0
 10
-16.5491
 20
163.833
 11
-16.3071
 21
164.013
  0
LINE
  8
0
 10
-16.3071
 20
164.013
 11
-16.0445
 21
164.161
  0
LINE
  8
0
 10
-16.0445
 20
164.161
 11
-15.7655
 21
164.275
  0
LINE
  8
0
 10
-15.7655
 20
164.275
 11
-15.4744
 21
164.353
  0
LINE
  8
0
 10
-15.4744
 20
164.353
 11
-15.1758
 21
164.394
  0
LINE
  8
0
 10
-15.1758
 20
164.394
 11
-14.8744
 21
164.397
  0
LINE
  8
0
 10
-14.8744
 20
164.397
 11
-14.575
 21
164.362
  0
LINE
  8
0
 10
-14.575
 20
164.362
 11
-14.2823
 21
164.29
  0
LINE
  8
0
 10
-14.2823
 20
164.29
 11
-14.0009
 21
164.182
  0
LINE
  8
0
 10
-14.0009
 20
164.182
 11
-13.7353
 21
164.04
  0
LINE
  8
0
 10
-13.7353
 20
164.04
 11
-13.4896
 21
163.865
  0
LINE
  8
0
 10
-13.4896
 20
163.865
 11
-13.2678
 21
163.661
  0
LINE
  8
0
 10
-13.2678
 20
163.661
 11
-13.0732
 21
163.431
  0
LINE
  8
0
 10
-13.0732
 20
163.431
 11
-12.9091
 21
163.178
  0
LINE
  8
0
 10
-12.9091
 20
163.178
 11
-12.7779
 21
162.907
  0
LINE
  8
0
 10
-12.7779
 20
162.907
 11
-12.6818
 21
162.621
  0
LINE
  8
0
 10
-12.6818
 20
162.621
 11
-12.6222
 21
162.326
  0
LINE
  8
0
 10
-12.6222
 20
162.326
 11
-12.6001
 21
162.025
  0
LINE
  8
0
 10
-12.6001
 20
162.025
 11
-12.6159
 21
161.724
  0
LINE
  8
0
 10
-12.6159
 20
161.724
 11
-12.6693
 21
161.428
  0
LINE
  8
0
 10
-12.6693
 20
161.428
 11
-12.7594
 21
161.14
  0
LINE
  8
0
 10
-12.7594
 20
161.14
 11
-12.8849
 21
160.866
  0
LINE
  8
0
 10
-12.8849
 20
160.866
 11
-13.0437
 21
160.61
  0
LINE
  8
0
 10
-13.0437
 20
160.61
 11
-13.2334
 21
160.376
  0
LINE
  8
0
 10
-13.2334
 20
160.376
 11
-13.4509
 21
160.167
  0
LINE
  8
0
 10
-13.4509
 20
160.167
 11
-13.6929
 21
159.987
  0
LINE
  8
0
 10
-13.6929
 20
159.987
 11
-13.9554
 21
159.839
  0
LINE
  8
0
 10
-13.9554
 20
159.839
 11
-14.2345
 21
159.725
  0
LINE
  8
0
 10
-14.2345
 20
159.725
 11
-14.5256
 21
159.647
  0
LINE
  8
0
 10
-14.5256
 20
159.647
 11
-14.8242
 21
159.606
  0
LINE
  8
0
 10
-14.8242
 20
159.606
 11
-15.1256
 21
159.603
  0
LINE
  8
0
 10
-15.1256
 20
159.603
 11
-15.425
 21
159.638
  0
LINE
  8
0
 10
-15.1884
 20
144.006
 11
-15.5621
 21
144.053
  0
LINE
  8
0
 10
-15.5621
 20
144.053
 11
-15.927
 21
144.147
  0
LINE
  8
0
 10
-15.927
 20
144.147
 11
-16.2773
 21
144.286
  0
LINE
  8
0
 10
-16.2773
 20
144.286
 11
-16.6075
 21
144.467
  0
LINE
  8
0
 10
-16.6075
 20
144.467
 11
-16.9123
 21
144.688
  0
LINE
  8
0
 10
-16.9123
 20
144.688
 11
-17.1869
 21
144.946
  0
LINE
  8
0
 10
-17.1869
 20
144.946
 11
-17.427
 21
145.237
  0
LINE
  8
0
 10
-17.427
 20
145.237
 11
-17.6289
 21
145.555
  0
LINE
  8
0
 10
-17.6289
 20
145.555
 11
-17.7893
 21
145.896
  0
LINE
  8
0
 10
-17.7893
 20
145.896
 11
-17.9057
 21
146.254
  0
LINE
  8
0
 10
-17.9057
 20
146.254
 11
-17.9763
 21
146.624
  0
LINE
  8
0
 10
-17.9763
 20
146.624
 11
-18
 21
147
  0
LINE
  8
0
 10
-18
 20
147
 11
-17.9763
 21
147.376
  0
LINE
  8
0
 10
-17.9763
 20
147.376
 11
-17.9057
 21
147.746
  0
LINE
  8
0
 10
-17.9057
 20
147.746
 11
-17.7893
 21
148.104
  0
LINE
  8
0
 10
-17.7893
 20
148.104
 11
-17.6289
 21
148.445
  0
LINE
  8
0
 10
-17.6289
 20
148.445
 11
-17.427
 21
148.763
  0
LINE
  8
0
 10
-17.427
 20
148.763
 11
-17.1869
 21
149.054
  0
LINE
  8
0
 10
-17.1869
 20
149.054
 11
-16.9123
 21
149.312
  0
LINE
  8
0
 10
-16.9123
 20
149.312
 11
-16.6075
 21
149.533
  0
LINE
  8
0
 10
-16.6075
 20
149.533
 11
-16.2773
 21
149.714
  0
LINE
  8
0
 10
-16.2773
 20
149.714
 11
-15.927
 21
149.853
  0
LINE
  8
0
 10
-15.927
 20
149.853
 11
-15.5621
 21
149.947
  0
LINE
  8
0
 10
-15.5621
 20
149.947
 11
-15.1884
 21
149.994
  0
LINE
  8
0
 10
-15.1884
 20
149.994
 11
-14.8116
 21
149.994
  0
LINE
  8
0
 10
-14.8116
 20
149.994
 11
-14.4379
 21
149.947
  0
LINE
  8
0
 10
-14.4379
 20
149.947
 11
-14.0729
 21
149.853
  0
LINE
  8
0
 10
-14.0729
 20
149.853
 11
-13.7227
 21
149.714
  0
LINE
  8
0
 10
-13.7227
 20
149.714
 11
-13.3925
 21
149.533
  0
LINE
  8
0
 10
-13.3925
 20
149.533
 11
-13.0877
 21
149.312
  0
LINE
  8
0
 10
-13.0877
 20
149.312
 11
-12.8131
 21
149.054
  0
LINE
  8
0
 10
-12.8131
 20
149.054
 11
-12.5729
 21
148.763
  0
LINE
  8
0
 10
-12.5729
 20
148.763
 11
-12.3711
 21
148.445
  0
LINE
  8
0
 10
-12.3711
 20
148.445
 11
-12.2107
 21
148.104
  0
LINE
  8
0
 10
-12.2107
 20
148.104
 11
-12.0942
 21
147.746
  0
LINE
  8
0
 10
-12.0942
 20
147.746
 11
-12.0237
 21
147.376
  0
LINE
  8
0
 10
-12.0237
 20
147.376
 11
-12
 21
147
  0
LINE
  8
0
 10
-12
 20
147
 11
-12.0237
 21
146.624
  0
LINE
  8
0
 10
-12.0237
 20
146.624
 11
-12.0942
 21
146.254
  0
LINE
  8
0
 10
-12.0942
 20
146.254
 11
-12.2107
 21
145.896
  0
LINE
  8
0
 10
-12.2107
 20
145.896
 11
-12.3711
 21
145.555
  0
LINE
  8
0
 10
-12.3711
 20
145.555
 11
-12.5729
 21
145.237
  0
LINE
  8
0
 10
-12.5729
 20
145.237
 11
-12.8131
 21
144.946
  0
LINE
  8
0
 10
-12.8131
 20
144.946
 11
-13.0877
 21
144.688
  0
LINE
  8
0
 10
-13.0877
 20
144.688
 11
-13.3925
 21
144.467
  0
LINE
  8
0
 10
-13.3925
 20
144.467
 11
-13.7227
 21
144.286
  0
LINE
  8
0
 10
-13.7227
 20
144.286
 11
-14.0729
 21
144.147
  0
LINE
  8
0
 10
-14.0729
 20
144.147
 11
-14.4379
 21
144.053
  0
LINE
  8
0
 10
-14.4379
 20
144.053
 11
-14.8116
 21
144.006
  0
LINE
  8
0
 10
-14.8116
 20
144.006
 11
-15.1884
 21
144.006
  0
LINE
  8
0
 10
-0.18837
 20
144.006
 11
-0.562134
 21
144.053
  0
LINE
  8
0
 10
-0.562134
 20
144.053
 11
-0.927048
 21
144.147
  0
LINE
  8
0
 10
-0.927048
 20
144.147
 11
-1.27733
 21
144.286
  0
LINE
  8
0
 10
-1.27733
 20
144.286
 11
-1.60747
 21
144.467
  0
LINE
  8
0
 10
-1.60747
 20
144.467
 11
-1.91226
 21
144.688
  0
LINE
  8
0
 10
-1.91226
 20
144.688
 11
-2.1869
 21
144.946
  0
LINE
  8
0
 10
-2.1869
 20
144.946
 11
-2.42705
 21
145.237
  0
LINE
  8
0
 10
-2.42705
 20
145.237
 11
-2.62891
 21
145.555
  0
LINE
  8
0
 10
-2.62891
 20
145.555
 11
-2.78932
 21
145.896
  0
LINE
  8
0
 10
-2.78932
 20
145.896
 11
-2.90575
 21
146.254
  0
LINE
  8
0
 10
-2.90575
 20
146.254
 11
-2.97633
 21
146.624
  0
LINE
  8
0
 10
-2.97633
 20
146.624
 11
-3
 21
147
  0
LINE
  8
0
 10
-3
 20
147
 11
-2.97633
 21
147.376
  0
LINE
  8
0
 10
-2.97633
 20
147.376
 11
-2.90575
 21
147.746
  0
LINE
  8
0
 10
-2.90575
 20
147.746
 11
-2.78932
 21
148.104
  0
LINE
  8
0
 10
-2.78932
 20
148.104
 11
-2.62891
 21
148.445
  0
LINE
  8
0
 10
-2.62891
 20
148.445
 11
-2.42705
 21
148.763
  0
LINE
  8
0
 10
-2.42705
 20
148.763
 11
-2.1869
 21
149.054
  0
LINE
  8
0
 10
-2.1869
 20
149.054
 11
-1.91226
 21
149.312
  0
LINE
  8
0
 10
-1.91226
 20
149.312
 11
-1.60747
 21
149.533
  0
LINE
  8
0
 10
-1.60747
 20
149.533
 11
-1.27733
 21
149.714
  0
LINE
  8
0
 10
-1.27733
 20
149.714
 11
-0.927048
 21
149.853
  0
LINE
  8
0
 10
-0.927048
 20
149.853
 11
-0.562134
 21
149.947
  0
LINE
  8
0
 10
-0.562134
 20
149.947
 11
-0.18837
 21
149.994
  0
LINE
  8
0
 10
-0.18837
 20
149.994
 11
0.18837
 21
149.994
  0
LINE
  8
0
 10
0.18837
 20
149.994
 11
0.562134
 21
149.947
  0
LINE
  8
0
 10
0.562134
 20
149.947
 11
0.927048
 21
149.853
  0
LINE
  8
0
 10
0.927048
 20
149.853
 11
1.27733
 21
149.714
  0
LINE
  8
0
 10
1.27733
 20
149.714
 11
1.60747
 21
149.533
  0
LINE
  8
0
 10
1.60747
 20
149.533
 11
1.91226
 21
149.312
  0
LINE
  8
0
 10
1.91226
 20
149.312
 11
2.1869
 21
149.054
  0
LINE
  8
0
 10
2.1869
 20
149.054
 11
2.42705
 21
148.763
  0
LINE
  8
0
 10
2.42705
 20
148.763
 11
2.62891
 21
148.445
  0
LINE
  8
0
 10
2.62891
 20
148.445
 11
2.78932
 21
148.104
  0
LINE
  8
0
 10
2.78932
 20
148.104
 11
2.90575
 21
147.746
  0
LINE
  8
0
 10
2.90575
 20
147.746
 11
2.97633
 21
147.376
  0
LINE
  8
0
 10
2.97633
 20
147.376
 11
3
 21
147
  0
LINE
  8
0
 10
3
 20
147
 11
2.97633
 21
146.624
  0
LINE
  8
0
 10
2.97633
 20
146.624
 11
2.90575
 21
146.254
  0
LINE
  8
0
 10
2.90575
 20
146.254
 11
2.78932
 21
145.896
  0
LINE
  8
0
 10
2.78932
 20
145.896
 11
2.62891
 21
145.555
  0
LINE
  8
0
 10
2.62891
 20
145.555
 11
2.42705
 21
145.237
  0
LINE
  8
0
 10
2.42705
 20
145.237
 11
2.1869
 21
144.946
  0
LINE
  8
0
 10
2.1869
 20
144.946
 11
1.91226
 21
144.688
  0
LINE
  8
0
 10
1.91226
 20
144.688
 11
1.60747
 21
144.467
  0
LINE
  8
0
 10
1.60747
 20
144.467
 11
1.27733
 21
144.286
  0
LINE
  8
0
 10
1.27733
 20
144.286
 11
0.927048
 21
144.147
  0
LINE
  8
0
 10
0.927048
 20
144.147
 11
0.562134
 21
144.053
  0
LINE
  8
0
 10
0.562134
 20
144.053
 11
0.18837
 21
144.006
  0
LINE
  8
0
 10
0.18837
 20
144.006
 11
-0.18837
 21
144.006
  0
LINE
  8
0
 10
14.8116
 20
144.006
 11
14.4379
 21
144.053
  0
LINE
  8
0
 10
14.4379
 20
144.053
 11
14.0729
 21
144.147
  0
LINE
  8
0
 10
14.0729
 20
144.147
 11
13.7227
 21
144.286
  0
LINE
  8
0
 10
13.7227
 20
144.286
 11
13.3925
 21
144.467
  0
LINE
  8
0
 10
13.3925
 20
144.467
 11
13.0877
 21
144.688
  0
LINE
  8
0
 10
13.0877
 20
144.688
 11
12.8131
 21
144.946
  0
LINE
  8
0
 10
12.8131
 20
144.946
 11
12.5729
 21
145.237
  0
LINE
  8
0
 10
12.5729
 20
145.237
 11
12.3711
 21
145.555
  0
LINE
  8
0
 10
12.3711
 20
145.555
 11
12.2107
 21
145.896
  0
LINE
  8
0
 10
12.2107
 20
145.896
 11
12.0942
 21
146.254
  0
LINE
  8
0
 10
12.0942
 20
146.254
 11
12.0237
 21
146.624
  0
LINE
  8
0
 10
12.0237
 20
146.624
 11
12
 21
147
  0
LINE
  8
0
 10
12
 20
147
 11
12.0237
 21
147.376
  0
LINE
  8
0
 10
12.0237
 20
147.376
 11
12.0942
 21
147.746
  0
LINE
  8
0
 10
12.0942
 20
147.746
 11
12.2107
 21
148.104
  0
LINE
  8
0
 10
12.2107
 20
148.104
 11
12.3711
 21
148.445
  0
LINE
  8
0
 10
12.3711
 20
148.445
 11
12.5729
 21
148.763
  0
LINE
  8
0
 10
12.5729
 20
148.763
 11
12.8131
 21
149.054
  0
LINE
  8
0
 10
12.8131
 20
149.054
 11
13.0877
 21
149.312
  0
LINE
  8
0
 10
13.0877
 20
149.312
 11
13.3925
 21
149.533
  0
LINE
  8
0
 10
13.3925
 20
149.533
 11
13.7227
 21
149.714
  0
LINE
  8
0
 10
13.7227
 20
149.714
 11
14.0729
 21
149.853
  0
LINE
  8
0
 10
14.0729
 20
149.853
 11
14.4379
 21
149.947
  0
LINE
  8
0
 10
14.4379
 20
149.947
 11
14.8116
 21
149.994
  0
LINE
  8
0
 10
14.8116
 20
149.994
 11
15.1884
 21
149.994
  0
LINE
  8
0
 10
15.1884
 20
149.994
 11
15.5621
 21
149.947
  0
LINE
  8
0
 10
15.5621
 20
149.947
 11
15.927
 21
149.853
  0
LINE
  8
0
 10
15.927
 20
149.853
 11
16.2773
 21
149.714
  0
LINE
  8
0
 10
16.2773
 20
149.714
 11
16.6075
 21
149.533
  0
LINE
  8
0
 10
16.6075
 20
149.533
 11
16.9123
 21
149.312
  0
LINE
  8
0
 10
16.9123
 20
149.312
 11
17.1869
 21
149.054
  0
LINE
  8
0
 10
17.1869
 20
149.054
 11
17.427
 21
148.763
  0
LINE
  8
0
 10
17.427
 20
148.763
 11
17.6289
 21
148.445
  0
LINE
  8
0
 10
17.6289
 20
148.445
 11
17.7893
 21
148.104
  0
LINE
  8
0
 10
17.7893
 20
148.104
 11
17.9057
 21
147.746
  0
LINE
  8
0
 10
17.9057
 20
147.746
 11
17.9763
 21
147.376
  0
LINE
  8
0
 10
17.9763
 20
147.376
 11
18
 21
147
  0
LINE
  8
0
 10
18
 20
147
 11
17.9763
 21
146.624
  0
LINE
  8
0
 10
17.9763
 20
146.624
 11
17.9057
 21
146.254
  0
LINE
  8
0
 10
17.9057
 20
146.254
 11
17.7893
 21
145.896
  0
LINE
  8
0
 10
17.7893
 20
145.896
 11
17.6289
 21
145.555
  0
LINE
  8
0
 10
17.6289
 20
145.555
 11
17.427
 21
145.237
  0
LINE
  8
0
 10
17.427
 20
145.237
 11
17.1869
 21
144.946
  0
LINE
  8
0
 10
17.1869
 20
144.946
 11
16.9123
 21
144.688
  0
LINE
  8
0
 10
16.9123
 20
144.688
 11
16.6075
 21
144.467
  0
LINE
  8
0
 10
16.6075
 20
144.467
 11
16.2773
 21
144.286
  0
LINE
  8
0
 10
16.2773
 20
144.286
 11
15.927
 21
144.147
  0
LINE
  8
0
 10
15.927
 20
144.147
 11
15.5621
 21
144.053
  0
LINE
  8
0
 10
15.5621
 20
144.053
 11
15.1884
 21
144.006
  0
LINE
  8
0
 10
15.1884
 20
144.006
 11
14.8116
 21
144.006
  0
LINE
  8
0
 10
7.34929
 20
144.605
 11
7.05028
 21
144.643
  0
LINE
  8
0
 10
7.05028
 20
144.643
 11
6.75835
 21
144.717
  0
LINE
  8
0
 10
6.75835
 20
144.717
 11
6.47812
 21
144.828
  0
LINE
  8
0
 10
6.47812
 20
144.828
 11
6.214
 21
144.974
  0
LINE
  8
0
 10
6.214
 20
144.974
 11
5.97017
 21
145.151
  0
LINE
  8
0
 10
5.97017
 20
145.151
 11
5.75047
 21
145.357
  0
LINE
  8
0
 10
5.75047
 20
145.357
 11
5.55835
 21
145.589
  0
LINE
  8
0
 10
5.55835
 20
145.589
 11
5.39685
 21
145.844
  0
LINE
  8
0
 10
5.39685
 20
145.844
 11
5.26852
 21
146.117
  0
LINE
  8
0
 10
5.26852
 20
146.117
 11
5.1754
 21
146.403
  0
LINE
  8
0
 10
5.1754
 20
146.403
 11
5.11891
 21
146.699
  0
LINE
  8
0
 10
5.11891
 20
146.699
 11
5.09999
 21
147
  0
LINE
  8
0
 10
5.09999
 20
147
 11
5.11891
 21
147.301
  0
LINE
  8
0
 10
5.11891
 20
147.301
 11
5.1754
 21
147.597
  0
LINE
  8
0
 10
5.1754
 20
147.597
 11
5.26852
 21
147.883
  0
LINE
  8
0
 10
5.26852
 20
147.883
 11
5.39685
 21
148.156
  0
LINE
  8
0
 10
5.39685
 20
148.156
 11
5.55835
 21
148.411
  0
LINE
  8
0
 10
5.55835
 20
148.411
 11
5.75047
 21
148.643
  0
LINE
  8
0
 10
5.75047
 20
148.643
 11
5.97017
 21
148.849
  0
LINE
  8
0
 10
5.97017
 20
148.849
 11
6.214
 21
149.026
  0
LINE
  8
0
 10
6.214
 20
149.026
 11
6.47812
 21
149.172
  0
LINE
  8
0
 10
6.47812
 20
149.172
 11
6.75835
 21
149.283
  0
LINE
  8
0
 10
6.75835
 20
149.283
 11
7.05028
 21
149.357
  0
LINE
  8
0
 10
7.05028
 20
149.357
 11
7.34929
 21
149.395
  0
LINE
  8
0
 10
7.34929
 20
149.395
 11
7.6507
 21
149.395
  0
LINE
  8
0
 10
7.6507
 20
149.395
 11
7.94971
 21
149.357
  0
LINE
  8
0
 10
7.94971
 20
149.357
 11
8.24164
 21
149.283
  0
LINE
  8
0
 10
8.24164
 20
149.283
 11
8.52187
 21
149.172
  0
LINE
  8
0
 10
8.52187
 20
149.172
 11
8.78598
 21
149.026
  0
LINE
  8
0
 10
8.78598
 20
149.026
 11
9.02982
 21
148.849
  0
LINE
  8
0
 10
9.02982
 20
148.849
 11
9.24951
 21
148.643
  0
LINE
  8
0
 10
9.24951
 20
148.643
 11
9.44164
 21
148.411
  0
LINE
  8
0
 10
9.44164
 20
148.411
 11
9.60313
 21
148.156
  0
LINE
  8
0
 10
9.60313
 20
148.156
 11
9.73146
 21
147.883
  0
LINE
  8
0
 10
9.73146
 20
147.883
 11
9.82458
 21
147.597
  0
LINE
  8
0
 10
9.82458
 20
147.597
 11
9.88107
 21
147.301
  0
LINE
  8
0
 10
9.88107
 20
147.301
 11
9.89999
 21
147
  0
LINE
  8
0
 10
9.89999
 20
147
 11
9.88107
 21
146.699
  0
LINE
  8
0
 10
9.88107
 20
146.699
 11
9.82458
 21
146.403
  0
LINE
  8
0
 10
9.82458
 20
146.403
 11
9.73146
 21
146.117
  0
LINE
  8
0
 10
9.73146
 20
146.117
 11
9.60313
 21
145.844
  0
LINE
  8
0
 10
9.60313
 20
145.844
 11
9.44164
 21
145.589
  0
LINE
  8
0
 10
9.44164
 20
145.589
 11
9.24951
 21
145.357
  0
LINE
  8
0
 10
9.24951
 20
145.357
 11
9.02982
 21
145.151
  0
LINE
  8
0
 10
9.02982
 20
145.151
 11
8.78598
 21
144.974
  0
LINE
  8
0
 10
8.78598
 20
144.974
 11
8.52187
 21
144.828
  0
LINE
  8
0
 10
8.52187
 20
144.828
 11
8.24164
 21
144.717
  0
LINE
  8
0
 10
8.24164
 20
144.717
 11
7.94971
 21
144.643
  0
LINE
  8
0
 10
7.94971
 20
144.643
 11
7.6507
 21
144.605
  0
LINE
  8
0
 10
7.6507
 20
144.605
 11
7.34929
 21
144.605
  0
LINE
  8
0
 10
-7.6507
 20
144.605
 11
-7.94971
 21
144.643
  0
LINE
  8
0
 10
-7.94971
 20
144.643
 11
-8.24164
 21
144.717
  0
LINE
  8
0
 10
-8.24164
 20
144.717
 11
-8.52187
 21
144.828
  0
LINE
  8
0
 10
-8.52187
 20
144.828
 11
-8.78598
 21
144.974
  0
LINE
  8
0
 10
-8.78598
 20
144.974
 11
-9.02982
 21
145.151
  0
LINE
  8
0
 10
-9.02982
 20
145.151
 11
-9.24951
 21
145.357
  0
LINE
  8
0
 10
-9.24951
 20
145.357
 11
-9.44164
 21
145.589
  0
LINE
  8
0
 10
-9.44164
 20
145.589
 11
-9.60313
 21
145.844
  0
LINE
  8
0
 10
-9.60313
 20
145.844
 11
-9.73146
 21
146.117
  0
LINE
  8
0
 10
-9.73146
 20
146.117
 11
-9.82458
 21
146.403
  0
LINE
  8
0
 10
-9.82458
 20
146.403
 11
-9.88107
 21
146.699
  0
LINE
  8
0
 10
-9.88107
 20
146.699
 11
-9.89999
 21
147
  0
LINE
  8
0
 10
-9.89999
 20
147
 11
-9.88107
 21
147.301
  0
LINE
  8
0
 10
-9.88107
 20
147.301
 11
-9.82458
 21
147.597
  0
LINE
  8
0
 10
-9.82458
 20
147.597
 11
-9.73146
 21
147.883
  0
LINE
  8
0
 10
-9.73146
 20
147.883
 11
-9.60313
 21
148.156
  0
LINE
  8
0
 10
-9.60313
 20
148.156
 11
-9.44164
 21
148.411
  0
LINE
  8
0
 10
-9.44164
 20
148.411
 11
-9.24951
 21
148.643
  0
LINE
  8
0
 10
-9.24951
 20
148.643
 11
-9.02982
 21
148.849
  0
LINE
  8
0
 10
-9.02982
 20
148.849
 11
-8.78598
 21
149.026
  0
LINE
  8
0
 10
-8.78598
 20
149.026
 11
-8.52187
 21
149.172
  0
LINE
  8
0
 10
-8.52187
 20
149.172
 11
-8.24164
 21
149.283
  0
LINE
  8
0
 10
-8.24164
 20
149.283
 11
-7.94971
 21
149.357
  0
LINE
  8
0
 10
-7.94971
 20
149.357
 11
-7.6507
 21
149.395
  0
LINE
  8
0
 10
-7.6507
 20
149.395
 11
-7.34929
 21
149.395
  0
LINE
  8
0
 10
-7.34929
 20
149.395
 11
-7.05028
 21
149.357
  0
LINE
  8
0
 10
-7.05028
 20
149.357
 11
-6.75835
 21
149.283
  0
LINE
  8
0
 10
-6.75835
 20
149.283
 11
-6.47812
 21
149.172
  0
LINE
  8
0
 10
-6.47812
 20
149.172
 11
-6.214
 21
149.026
  0
LINE
  8
0
 10
-6.214
 20
149.026
 11
-5.97017
 21
148.849
  0
LINE
  8
0
 10
-5.97017
 20
148.849
 11
-5.75047
 21
148.643
  0
LINE
  8
0
 10
-5.75047
 20
148.643
 11
-5.55835
 21
148.411
  0
LINE
  8
0
 10
-5.55835
 20
148.411
 11
-5.39685
 21
148.156
  0
LINE
  8
0
 10
-5.39685
 20
148.156
 11
-5.26852
 21
147.883
  0
LINE
  8
0
 10
-5.26852
 20
147.883
 11
-5.1754
 21
147.597
  0
LINE
  8
0
 10
-5.1754
 20
147.597
 11
-5.11891
 21
147.301
  0
LINE
  8
0
 10
-5.11891
 20
147.301
 11
-5.09999
 21
147
  0
LINE
  8
0
 10
-5.09999
 20
147
 11
-5.11891
 21
146.699
  0
LINE
  8
0
 10
-5.11891
 20
146.699
 11
-5.1754
 21
146.403
  0
LINE
  8
0
 10
-5.1754
 20
146.403
 11
-5.26852
 21
146.117
  0
LINE
  8
0
 10
-5.26852
 20
146.117
 11
-5.39685
 21
145.844
  0
LINE
  8
0
 10
-5.39685
 20
145.844
 11
-5.55835
 21
145.589
  0
LINE
  8
0
 10
-5.55835
 20
145.589
 11
-5.75047
 21
145.357
  0
LINE
  8
0
 10
-5.75047
 20
145.357
 11
-5.97017
 21
145.151
  0
LINE
  8
0
 10
-5.97017
 20
145.151
 11
-6.214
 21
144.974
  0
LINE
  8
0
 10
-6.214
 20
144.974
 11
-6.47812
 21
144.828
  0
LINE
  8
0
 10
-6.47812
 20
144.828
 11
-6.75835
 21
144.717
  0
LINE
  8
0
 10
-6.75835
 20
144.717
 11
-7.05028
 21
144.643
  0
LINE
  8
0
 10
-7.05028
 20
144.643
 11
-7.34929
 21
144.605
  0
LINE
  8
0
 10
-7.34929
 20
144.605
 11
-7.6507
 21
144.605
  0
LINE
  8
0
 10
-17.5307
 20
91.4
 11
-17.6289
 21
91.5547
  0
LINE
  8
0
 10
-17.6289
 20
91.5547
 11
-17.7893
 21
91.8956
  0
LINE
  8
0
 10
-17.7893
 20
91.8956
 11
-17.9057
 21
92.2539
  0
LINE
  8
0
 10
-17.9057
 20
92.2539
 11
-17.9763
 21
92.624
  0
LINE
  8
0
 10
-17.9763
 20
92.624
 11
-18
 21
93
  0
LINE
  8
0
 10
-18
 20
93
 11
-17.9763
 21
93.376
  0
LINE
  8
0
 10
-17.9763
 20
93.376
 11
-17.9057
 21
93.7461
  0
LINE
  8
0
 10
-17.9057
 20
93.7461
 11
-17.7893
 21
94.1044
  0
LINE
  8
0
 10
-17.7893
 20
94.1044
 11
-17.6289
 21
94.4453
  0
LINE
  8
0
 10
-17.6289
 20
94.4453
 11
-17.427
 21
94.7634
  0
LINE
  8
0
 10
-17.427
 20
94.7634
 11
-17.1869
 21
95.0536
  0
LINE
  8
0
 10
-17.1869
 20
95.0536
 11
-16.9123
 21
95.3116
  0
LINE
  8
0
 10
-16.9123
 20
95.3116
 11
-16.6075
 21
95.533
  0
LINE
  8
0
 10
-16.6075
 20
95.533
 11
-16.2773
 21
95.7145
  0
LINE
  8
0
 10
-16.2773
 20
95.7145
 11
-15.927
 21
95.8532
  0
LINE
  8
0
 10
-15.927
 20
95.8532
 11
-15.5621
 21
95.9469
  0
LINE
  8
0
 10
-15.5621
 20
95.9469
 11
-15.1884
 21
95.9941
  0
LINE
  8
0
 10
-15.1884
 20
95.9941
 11
-14.8116
 21
95.9941
  0
LINE
  8
0
 10
-14.8116
 20
95.9941
 11
-14.4379
 21
95.9469
  0
LINE
  8
0
 10
-14.4379
 20
95.9469
 11
-14.0729
 21
95.8532
  0
LINE
  8
0
 10
-14.0729
 20
95.8532
 11
-13.7227
 21
95.7145
  0
LINE
  8
0
 10
-13.7227
 20
95.7145
 11
-13.3925
 21
95.533
  0
LINE
  8
0
 10
-13.3925
 20
95.533
 11
-13.0877
 21
95.3116
  0
LINE
  8
0
 10
-13.0877
 20
95.3116
 11
-12.8131
 21
95.0536
  0
LINE
  8
0
 10
-12.8131
 20
95.0536
 11
-12.5729
 21
94.7634
  0
LINE
  8
0
 10
-12.5729
 20
94.7634
 11
-12.3711
 21
94.4453
  0
LINE
  8
0
 10
-12.3711
 20
94.4453
 11
-12.2107
 21
94.1044
  0
LINE
  8
0
 10
-12.2107
 20
94.1044
 11
-12.0942
 21
93.7461
  0
LINE
  8
0
 10
-12.0942
 20
93.7461
 11
-12.0237
 21
93.376
  0
LINE
  8
0
 10
-12.0237
 20
93.376
 11
-12
 21
93
  0
LINE
  8
0
 10
-12
 20
93
 11
-12.0237
 21
92.624
  0
LINE
  8
0
 10
-12.0237
 20
92.624
 11
-12.0942
 21
92.2539
  0
LINE
  8
0
 10
-12.0942
 20
92.2539
 11
-12.2107
 21
91.8956
  0
LINE
  8
0
 10
-12.2107
 20
91.8956
 11
-12.3711
 21
91.5547
  0
LINE
  8
0
 10
-12.3711
 20
91.5547
 11
-12.4693
 21
91.4
  0
LINE
  8
0
 10
-12.4693
 20
91.4
 11
-12.4693
 21
79.5
  0
LINE
  8
0
 10
-12.4693
 20
79.5
 11
-2.53072
 21
79.5
  0
LINE
  8
0
 10
-2.53072
 20
79.5
 11
-2.53072
 21
91.4
  0
LINE
  8
0
 10
-2.53072
 20
91.4
 11
-2.62891
 21
91.5547
  0
LINE
  8
0
 10
-2.62891
 20
91.5547
 11
-2.78932
 21
91.8956
  0
LINE
  8
0
 10
-2.78932
 20
91.8956
 11
-2.90575
 21
92.2539
  0
LINE
  8
0
 10
-2.90575
 20
92.2539
 11
-2.97633
 21
92.624
  0
LINE
  8
0
 10
-2.97633
 20
92.624
 11
-3
 21
93
  0
LINE
  8
0
 10
-3
 20
93
 11
-2.97633
 21
93.376
  0
LINE
  8
0
 10
-2.97633
 20
93.376
 11
-2.90575
 21
93.7461
  0
LINE
  8
0
 10
-2.90575
 20
93.7461
 11
-2.78932
 21
94.1044
  0
LINE
  8
0
 10
-2.78932
 20
94.1044
 11
-2.62891
 21
94.4453
  0
LINE
  8
0
 10
-2.62891
 20
94.4453
 11
-2.42705
 21
94.7634
  0
LINE
  8
0
 10
-2.42705
 20
94.7634
 11
-2.1869
 21
95.0536
  0
LINE
  8
0
 10
-2.1869
 20
95.0536
 11
-1.91226
 21
95.3116
  0
LINE
  8
0
 10
-1.91226
 20
95.3116
 11
-1.60747
 21
95.533
  0
LINE
  8
0
 10
-1.60747
 20
95.533
 11
-1.27733
 21
95.7145
  0
LINE
  8
0
 10
-1.27733
 20
95.7145
 11
-0.927048
 21
95.8532
  0
LINE
  8
0
 10
-0.927048
 20
95.8532
 11
-0.562134
 21
95.9469
  0
LINE
  8
0
 10
-0.562134
 20
95.9469
 11
-0.18837
 21
95.9941
  0
LINE
  8
0
 10
-0.18837
 20
95.9941
 11
0.18837
 21
95.9941
  0
LINE
  8
0
 10
0.18837
 20
95.9941
 11
0.562134
 21
95.9469
  0
LINE
  8
0
 10
0.562134
 20
95.9469
 11
0.927048
 21
95.8532
  0
LINE
  8
0
 10
0.927048
 20
95.8532
 11
1.27733
 21
95.7145
  0
LINE
  8
0
 10
1.27733
 20
95.7145
 11
1.60747
 21
95.533
  0
LINE
  8
0
 10
1.60747
 20
95.533
 11
1.91226
 21
95.3116
  0
LINE
  8
0
 10
1.91226
 20
95.3116
 11
2.1869
 21
95.0536
  0
LINE
  8
0
 10
2.1869
 20
95.0536
 11
2.42705
 21
94.7634
  0
LINE
  8
0
 10
2.42705
 20
94.7634
 11
2.62891
 21
94.4453
  0
LINE
  8
0
 10
2.62891
 20
94.4453
 11
2.78932
 21
94.1044
  0
LINE
  8
0
 10
2.78932
 20
94.1044
 11
2.90575
 21
93.7461
  0
LINE
  8
0
 10
2.90575
 20
93.7461
 11
2.97633
 21
93.376
  0
LINE
  8
0
 10
2.97633
 20
93.376
 11
3
 21
93
  0
LINE
  8
0
 10
3
 20
93
 11
2.97633
 21
92.624
  0
LINE
  8
0
 10
2.97633
 20
92.624
 11
2.90575
 21
92.2539
  0
LINE
  8
0
 10
2.90575
 20
92.2539
 11
2.78932
 21
91.8956
  0
LINE
  8
0
 10
2.78932
 20
91.8956
 11
2.62891
 21
91.5547
  0
LINE
  8
0
 10
2.62891
 20
91.5547
 11
2.53072
 21
91.4
  0
LINE
  8
0
 10
2.53072
 20
91.4
 11
2.53072
 21
79.5
  0
LINE
  8
0
 10
2.53072
 20
79.5
 11
12.4693
 21
79.5
  0
LINE
  8
0
 10
12.4693
 20
79.5
 11
12.4693
 21
91.4
  0
LINE
  8
0
 10
12.4693
 20
91.4
 11
12.3711
 21
91.5547
  0
LINE
  8
0
 10
12.3711
 20
91.5547
 11
12.2107
 21
91.8956
  0
LINE
  8
0
 10
12.2107
 20
91.8956
 11
12.0942
 21
92.2539
  0
LINE
  8
0
 10
12.0942
 20
92.2539
 11
12.0237
 21
92.624
  0
LINE
  8
0
 10
12.0237
 20
92.624
 11
12
 21
93
  0
LINE
  8
0
 10
12
 20
93
 11
12.0237
 21
93.376
  0
LINE
  8
0
 10
12.0237
 20
93.376
 11
12.0942
 21
93.7461
  0
LINE
  8
0
 10
12.0942
 20
93.7461
 11
12.2107
 21
94.1044
  0
LINE
  8
0
 10
12.2107
 20
94.1044
 11
12.3711
 21
94.4453
  0
LINE
  8
0
 10
12.3711
 20
94.4453
 11
12.5729
 21
94.7634
  0
LINE
  8
0
 10
12.5729
 20
94.7634
 11
12.8131
 21
95.0536
  0
LINE
  8
0
 10
12.8131
 20
95.0536
 11
13.0877
 21
95.3116
  0
LINE
  8
0
 10
13.0877
 20
95.3116
 11
13.3925
 21
95.533
  0
LINE
  8
0
 10
13.3925
 20
95.533
 11
13.7227
 21
95.7145
  0
LINE
  8
0
 10
13.7227
 20
95.7145
 11
14.0729
 21
95.8532
  0
LINE
  8
0
 10
14.0729
 20
95.8532
 11
14.4379
 21
95.9469
  0
LINE
  8
0
 10
14.4379
 20
95.9469
 11
14.8116
 21
95.9941
  0
LINE
  8
0
 10
14.8116
 20
95.9941
 11
15.1884
 21
95.9941
  0
LINE
  8
0
 10
15.1884
 20
95.9941
 11
15.5621
 21
95.9469
  0
LINE
  8
0
 10
15.5621
 20
95.9469
 11
15.927
 21
95.8532
  0
LINE
  8
0
 10
15.927
 20
95.8532
 11
16.2773
 21
95.7145
  0
LINE
  8
0
 10
16.2773
 20
95.7145
 11
16.6075
 21
95.533
  0
LINE
  8
0
 10
16.6075
 20
95.533
 11
16.9123
 21
95.3116
  0
LINE
  8
0
 10
16.9123
 20
95.3116
 11
17.1869
 21
95.0536
  0
LINE
  8
0
 10
17.1869
 20
95.0536
 11
17.427
 21
94.7634
  0
LINE
  8
0
 10
17.427
 20
94.7634
 11
17.6289
 21
94.4453
  0
LINE
  8
0
 10
17.6289
 20
94.4453
 11
17.7893
 21
94.1044
  0
LINE
  8
0
 10
17.7893
 20
94.1044
 11
17.9057
 21
93.7461
  0
LINE
  8
0
 10
17.9057
 20
93.7461
 11
17.9763
 21
93.376
  0
LINE
  8
0
 10
17.9763
 20
93.376
 11
18
 21
93
  0
LINE
  8
0
 10
18
 20
93
 11
17.9763
 21
92.624
  0
LINE
  8
0
 10
17.9763
 20
92.624
 11
17.9057
 21
92.2539
  0
LINE
  8
0
 10
17.9057
 20
92.2539
 11
17.7893
 21
91.8956
  0
LINE
  8
0
 10
17.7893
 20
91.8956
 11
17.6289
 21
91.5547
  0
LINE
  8
0
 10
17.6289
 20
91.5547
 11
17.5307
 21
91.4
  0
LINE
  8
0
 10
17.5307
 20
91.4
 11
17.5307
 21
79.5
  0
LINE
  8
0
 10
17.5307
 20
79.5
 11
22
 21
79.5
  0
LINE
  8
0
 10
22
 20
79.5
 11
22
 21
88.343
  0
LINE
  8
0
 10
22
 20
88.343
 11
22.1489
 21
88.6594
  0
LINE
  8
0
 10
22.1489
 20
88.6594
 11
22.3429
 21
89.2566
  0
LINE
  8
0
 10
22.3429
 20
89.2566
 11
22.4606
 21
89.8733
  0
LINE
  8
0
 10
22.4606
 20
89.8733
 11
22.5
 21
90.5
  0
LINE
  8
0
 10
22.5
 20
90.5
 11
22.5
 21
125.5
  0
LINE
  8
0
 10
22.5
 20
125.5
 11
22.4606
 21
126.127
  0
LINE
  8
0
 10
22.4606
 20
126.127
 11
22.3429
 21
126.743
  0
LINE
  8
0
 10
22.3429
 20
126.743
 11
22.1489
 21
127.341
  0
LINE
  8
0
 10
22.1489
 20
127.341
 11
21.8815
 21
127.909
  0
LINE
  8
0
 10
21.8815
 20
127.909
 11
21.5451
 21
128.439
  0
LINE
  8
0
 10
21.5451
 20
128.439
 11
21.1448
 21
128.923
  0
LINE
  8
0
 10
21.1448
 20
128.923
 11
20.6871
 21
129.353
  0
LINE
  8
0
 10
20.6871
 20
129.353
 11
20.1791
 21
129.722
  0
LINE
  8
0
 10
20.1791
 20
129.722
 11
19.6289
 21
130.024
  0
LINE
  8
0
 10
19.6289
 20
130.024
 11
19.0451
 21
130.255
  0
LINE
  8
0
 10
19.0451
 20
130.255
 11
18.4369
 21
130.411
  0
LINE
  8
0
 10
18.4369
 20
130.411
 11
17.8139
 21
130.49
  0
LINE
  8
0
 10
17.8139
 20
130.49
 11
-17.8139
 21
130.49
  0
LINE
  8
0
 10
-17.8139
 20
130.49
 11
-18.4369
 21
130.411
  0
LINE
  8
0
 10
-18.4369
 20
130.411
 11
-19.0451
 21
130.255
  0
LINE
  8
0
 10
-19.0451
 20
130.255
 11
-19.6289
 21
130.024
  0
LINE
  8
0
 10
-19.6289
 20
130.024
 11
-20.1791
 21
129.722
  0
LINE
  8
0
 10
-20.1791
 20
129.722
 11
-20.6871
 21
129.353
  0
LINE
  8
0
 10
-20.6871
 20
129.353
 11
-21.1448
 21
128.923
  0
LINE
  8
0
 10
-21.1448
 20
128.923
 11
-21.5451
 21
128.439
  0
LINE
  8
0
 10
-21.5451
 20
128.439
 11
-21.8815
 21
127.909
  0
LINE
  8
0
 10
-21.8815
 20
127.909
 11
-22.1489
 21
127.341
  0
LINE
  8
0
 10
-22.1489
 20
127.341
 11
-22.3429
 21
126.743
  0
LINE
  8
0
 10
-22.3429
 20
126.743
 11
-22.4606
 21
126.127
  0
LINE
  8
0
 10
-22.4606
 20
126.127
 11
-22.5
 21
125.5
  0
LINE
  8
0
 10
-22.5
 20
125.5
 11
-22.5
 21
90.5
  0
LINE
  8
0
 10
-22.5
 20
90.5
 11
-22.4606
 21
89.8733
  0
LINE
  8
0
 10
-22.4606
 20
89.8733
 11
-22.3429
 21
89.2566
  0
LINE
  8
0
 10
-22.3429
 20
89.2566
 11
-22.1489
 21
88.6594
  0
LINE
  8
0
 10
-22.1489
 20
88.6594
 11
-22
 21
88.343
  0
LINE
  8
0
 10
-22
 20
88.343
 11
-22
 21
79.5
  0
LINE
  8
0
 10
-22
 20
79.5
 11
-17.5307
 21
79.5
  0
LINE
  8
0
 10
-17.5307
 20
79.5
 11
-17.5307
 21
91.4
  0
LINE
  8
0
 10
14.8116
 20
120.006
 11
14.4379
 21
120.053
  0
LINE
  8
0
 10
14.4379
 20
120.053
 11
14.0729
 21
120.147
  0
LINE
  8
0
 10
14.0729
 20
120.147
 11
13.7227
 21
120.286
  0
LINE
  8
0
 10
13.7227
 20
120.286
 11
13.3925
 21
120.467
  0
LINE
  8
0
 10
13.3925
 20
120.467
 11
13.0877
 21
120.688
  0
LINE
  8
0
 10
13.0877
 20
120.688
 11
12.8131
 21
120.946
  0
LINE
  8
0
 10
12.8131
 20
120.946
 11
12.5729
 21
121.237
  0
LINE
  8
0
 10
12.5729
 20
121.237
 11
12.3711
 21
121.555
  0
LINE
  8
0
 10
12.3711
 20
121.555
 11
12.2107
 21
121.896
  0
LINE
  8
0
 10
12.2107
 20
121.896
 11
12.0942
 21
122.254
  0
LINE
  8
0
 10
12.0942
 20
122.254
 11
12.0237
 21
122.624
  0
LINE
  8
0
 10
12.0237
 20
122.624
 11
12
 21
123
  0
LINE
  8
0
 10
12
 20
123
 11
12.0237
 21
123.376
  0
LINE
  8
0
 10
12.0237
 20
123.376
 11
12.0942
 21
123.746
  0
LINE
  8
0
 10
12.0942
 20
123.746
 11
12.2107
 21
124.104
  0
LINE
  8
0
 10
12.2107
 20
124.104
 11
12.3711
 21
124.445
  0
LINE
  8
0
 10
12.3711
 20
124.445
 11
12.5729
 21
124.763
  0
LINE
  8
0
 10
12.5729
 20
124.763
 11
12.8131
 21
125.054
  0
LINE
  8
0
 10
12.8131
 20
125.054
 11
13.0877
 21
125.312
  0
LINE
  8
0
 10
13.0877
 20
125.312
 11
13.3925
 21
125.533
  0
LINE
  8
0
 10
13.3925
 20
125.533
 11
13.7227
 21
125.714
  0
LINE
  8
0
 10
13.7227
 20
125.714
 11
14.0729
 21
125.853
  0
LINE
  8
0
 10
14.0729
 20
125.853
 11
14.4379
 21
125.947
  0
LINE
  8
0
 10
14.4379
 20
125.947
 11
14.8116
 21
125.994
  0
LINE
  8
0
 10
14.8116
 20
125.994
 11
15.1884
 21
125.994
  0
LINE
  8
0
 10
15.1884
 20
125.994
 11
15.5621
 21
125.947
  0
LINE
  8
0
 10
15.5621
 20
125.947
 11
15.927
 21
125.853
  0
LINE
  8
0
 10
15.927
 20
125.853
 11
16.2773
 21
125.714
  0
LINE
  8
0
 10
16.2773
 20
125.714
 11
16.6075
 21
125.533
  0
LINE
  8
0
 10
16.6075
 20
125.533
 11
16.9123
 21
125.312
  0
LINE
  8
0
 10
16.9123
 20
125.312
 11
17.1869
 21
125.054
  0
LINE
  8
0
 10
17.1869
 20
125.054
 11
17.427
 21
124.763
  0
LINE
  8
0
 10
17.427
 20
124.763
 11
17.6289
 21
124.445
  0
LINE
  8
0
 10
17.6289
 20
124.445
 11
17.7893
 21
124.104
  0
LINE
  8
0
 10
17.7893
 20
124.104
 11
17.9057
 21
123.746
  0
LINE
  8
0
 10
17.9057
 20
123.746
 11
17.9763
 21
123.376
  0
LINE
  8
0
 10
17.9763
 20
123.376
 11
18
 21
123
  0
LINE
  8
0
 10
18
 20
123
 11
17.9763
 21
122.624
  0
LINE
  8
0
 10
17.9763
 20
122.624
 11
17.9057
 21
122.254
  0
LINE
  8
0
 10
17.9057
 20
122.254
 11
17.7893
 21
121.896
  0
LINE
  8
0
 10
17.7893
 20
121.896
 11
17.6289
 21
121.555
  0
LINE
  8
0
 10
17.6289
 20
121.555
 11
17.427
 21
121.237
  0
LINE
  8
0
 10
17.427
 20
121.237
 11
17.1869
 21
120.946
  0
LINE
  8
0
 10
17.1869
 20
120.946
 11
16.9123
 21
120.688
  0
LINE
  8
0
 10
16.9123
 20
120.688
 11
16.6075
 21
120.467
  0
LINE
  8
0
 10
16.6075
 20
120.467
 11
16.2773
 21
120.286
  0
LINE
  8
0
 10
16.2773
 20
120.286
 11
15.927
 21
120.147
  0
LINE
  8
0
 10
15.927
 20
120.147
 11
15.5621
 21
120.053
  0
LINE
  8
0
 10
15.5621
 20
120.053
 11
15.1884
 21
120.006
  0
LINE
  8
0
 10
15.1884
 20
120.006
 11
14.8116
 21
120.006
  0
LINE
  8
0
 10
-15.1884
 20
120.006
 11
-15.5621
 21
120.053
  0
LINE
  8
0
 10
-15.5621
 20
120.053
 11
-15.927
 21
120.147
  0
LINE
  8
0
 10
-15.927
 20
120.147
 11
-16.2773
 21
120.286
  0
LINE
  8
0
 10
-16.2773
 20
120.286
 11
-16.6075
 21
120.467
  0
LINE
  8
0
 10
-16.6075
 20
120.467
 11
-16.9123
 21
120.688
  0
LINE
  8
0
 10
-16.9123
 20
120.688
 11
-17.1869
 21
120.946
  0
LINE
  8
0
 10
-17.1869
 20
120.946
 11
-17.427
 21
121.237
  0
LINE
  8
0
 10
-17.427
 20
121.237
 11
-17.6289
 21
121.555
  0
LINE
  8
0
 10
-17.6289
 20
121.555
 11
-17.7893
 21
121.896
  0
LINE
  8
0
 10
-17.7893
 20
121.896
 11
-17.9057
 21
122.254
  0
LINE
  8
0
 10
-17.9057
 20
122.254
 11
-17.9763
 21
122.624
  0
LINE
  8
0
 10
-17.9763
 20
122.624
 11
-18
 21
123
  0
LINE
  8
0
 10
-18
 20
123
 11
-17.9763
 21
123.376
  0
LINE
  8
0
 10
-17.9763
 20
123.376
 11
-17.9057
 21
123.746
  0
LINE
  8
0
 10
-17.9057
 20
123.746
 11
-17.7893
 21
124.104
  0
LINE
  8
0
 10
-17.7893
 20
124.104
 11
-17.6289
 21
124.445
  0
LINE
  8
0
 10
-17.6289
 20
124.445
 11
-17.427
 21
124.763
  0
LINE
  8
0
 10
-17.427
 20
124.763
 11
-17.1869
 21
125.054
  0
LINE
  8
0
 10
-17.1869
 20
125.054
 11
-16.9123
 21
125.312
  0
LINE
  8
0
 10
-16.9123
 20
125.312
 11
-16.6075
 21
125.533
  0
LINE
  8
0
 10
-16.6075
 20
125.533
 11
-16.2773
 21
125.714
  0
LINE
  8
0
 10
-16.2773
 20
125.714
 11
-15.927
 21
125.853
  0
LINE
  8
0
 10
-15.927
 20
125.853
 11
-15.5621
 21
125.947
  0
LINE
  8
0
 10
-15.5621
 20
125.947
 11
-15.1884
 21
125.994
  0
LINE
  8
0
 10
-15.1884
 20
125.994
 11
-14.8116
 21
125.994
  0
LINE
  8
0
 10
-14.8116
 20
125.994
 11
-14.4379
 21
125.947
  0
LINE
  8
0
 10
-14.4379
 20
125.947
 11
-14.0729
 21
125.853
  0
LINE
  8
0
 10
-14.0729
 20
125.853
 11
-13.7227
 21
125.714
  0
LINE
  8
0
 10
-13.7227
 20
125.714
 11
-13.3925
 21
125.533
  0
LINE
  8
0
 10
-13.3925
 20
125.533
 11
-13.0877
 21
125.312
  0
LINE
  8
0
 10
-13.0877
 20
125.312
 11
-12.8131
 21
125.054
  0
LINE
  8
0
 10
-12.8131
 20
125.054
 11
-12.5729
 21
124.763
  0
LINE
  8
0
 10
-12.5729
 20
124.763
 11
-12.3711
 21
124.445
  0
LINE
  8
0
 10
-12.3711
 20
124.445
 11
-12.2107
 21
124.104
  0
LINE
  8
0
 10
-12.2107
 20
124.104
 11
-12.0942
 21
123.746
  0
LINE
  8
0
 10
-12.0942
 20
123.746
 11
-12.0237
 21
123.376
  0
LINE
  8
0
 10
-12.0237
 20
123.376
 11
-12
 21
123
  0
LINE
  8
0
 10
-12
 20
123
 11
-12.0237
 21
122.624
  0
LINE
  8
0
 10
-12.0237
 20
122.624
 11
-12.0942
 21
122.254
  0
LINE
  8
0
 10
-12.0942
 20
122.254
 11
-12.2107
 21
121.896
  0
LINE
  8
0
 10
-12.2107
 20
121.896
 11
-12.3711
 21
121.555
  0
LINE
  8
0
 10
-12.3711
 20
121.555
 11
-12.5729
 21
121.237
  0
LINE
  8
0
 10
-12.5729
 20
121.237
 11
-12.8131
 21
120.946
  0
LINE
  8
0
 10
-12.8131
 20
120.946
 11
-13.0877
 21
120.688
  0
LINE
  8
0
 10
-13.0877
 20
120.688
 11
-13.3925
 21
120.467
  0
LINE
  8
0
 10
-13.3925
 20
120.467
 11
-13.7227
 21
120.286
  0
LINE
  8
0
 10
-13.7227
 20
120.286
 11
-14.0729
 21
120.147
  0
LINE
  8
0
 10
-14.0729
 20
120.147
 11
-14.4379
 21
120.053
  0
LINE
  8
0
 10
-14.4379
 20
120.053
 11
-14.8116
 21
120.006
  0
LINE
  8
0
 10
-14.8116
 20
120.006
 11
-15.1884
 21
120.006
  0
LINE
  8
0
 10
-0.0941772
 20
121.503
 11
-0.281067
 21
121.527
  0
LINE
  8
0
 10
-0.281067
 20
121.527
 11
-0.463516
 21
121.573
  0
LINE
  8
0
 10
-0.463516
 20
121.573
 11
-0.638657
 21
121.643
  0
LINE
  8
0
 10
-0.638657
 20
121.643
 11
-0.803726
 21
121.734
  0
LINE
  8
0
 10
-0.803726
 20
121.734
 11
-0.956131
 21
121.844
  0
LINE
  8
0
 10
-0.956131
 20
121.844
 11
-1.09344
 21
121.973
  0
LINE
  8
0
 10
-1.09344
 20
121.973
 11
-1.21352
 21
122.118
  0
LINE
  8
0
 10
-1.21352
 20
122.118
 11
-1.31445
 21
122.277
  0
LINE
  8
0
 10
-1.31445
 20
122.277
 11
-1.39465
 21
122.448
  0
LINE
  8
0
 10
-1.39465
 20
122.448
 11
-1.45287
 21
122.627
  0
LINE
  8
0
 10
-1.45287
 20
122.627
 11
-1.48816
 21
122.812
  0
LINE
  8
0
 10
-1.48816
 20
122.812
 11
-1.5
 21
123
  0
LINE
  8
0
 10
-1.5
 20
123
 11
-1.48816
 21
123.188
  0
LINE
  8
0
 10
-1.48816
 20
123.188
 11
-1.45287
 21
123.373
  0
LINE
  8
0
 10
-1.45287
 20
123.373
 11
-1.39465
 21
123.552
  0
LINE
  8
0
 10
-1.39465
 20
123.552
 11
-1.31445
 21
123.723
  0
LINE
  8
0
 10
-1.31445
 20
123.723
 11
-1.21352
 21
123.882
  0
LINE
  8
0
 10
-1.21352
 20
123.882
 11
-1.09344
 21
124.027
  0
LINE
  8
0
 10
-1.09344
 20
124.027
 11
-0.956131
 21
124.156
  0
LINE
  8
0
 10
-0.956131
 20
124.156
 11
-0.803726
 21
124.266
  0
LINE
  8
0
 10
-0.803726
 20
124.266
 11
-0.638657
 21
124.357
  0
LINE
  8
0
 10
-0.638657
 20
124.357
 11
-0.463516
 21
124.427
  0
LINE
  8
0
 10
-0.463516
 20
124.427
 11
-0.281067
 21
124.473
  0
LINE
  8
0
 10
-0.281067
 20
124.473
 11
-0.0941772
 21
124.497
  0
LINE
  8
0
 10
-0.0941772
 20
124.497
 11
0.0941772
 21
124.497
  0
LINE
  8
0
 10
0.0941772
 20
124.497
 11
0.281067
 21
124.473
  0
LINE
  8
0
 10
0.281067
 20
124.473
 11
0.463516
 21
124.427
  0
LINE
  8
0
 10
0.463516
 20
124.427
 11
0.638657
 21
124.357
  0
LINE
  8
0
 10
0.638657
 20
124.357
 11
0.803726
 21
124.266
  0
LINE
  8
0
 10
0.803726
 20
124.266
 11
0.956131
 21
124.156
  0
LINE
  8
0
 10
0.956131
 20
124.156
 11
1.09344
 21
124.027
  0
LINE
  8
0
 10
1.09344
 20
124.027
 11
1.21352
 21
123.882
  0
LINE
  8
0
 10
1.21352
 20
123.882
 11
1.31445
 21
123.723
  0
LINE
  8
0
 10
1.31445
 20
123.723
 11
1.39465
 21
123.552
  0
LINE
  8
0
 10
1.39465
 20
123.552
 11
1.45287
 21
123.373
  0
LINE
  8
0
 10
1.45287
 20
123.373
 11
1.48816
 21
123.188
  0
LINE
  8
0
 10
1.48816
 20
123.188
 11
1.5
 21
123
  0
LINE
  8
0
 10
1.5
 20
123
 11
1.48816
 21
122.812
  0
LINE
  8
0
 10
1.48816
 20
122.812
 11
1.45287
 21
122.627
  0
LINE
  8
0
 10
1.45287
 20
122.627
 11
1.39465
 21
122.448
  0
LINE
  8
0
 10
1.39465
 20
122.448
 11
1.31445
 21
122.277
  0
LINE
  8
0
 10
1.31445
 20
122.277
 11
1.21352
 21
122.118
  0
LINE
  8
0
 10
1.21352
 20
122.118
 11
1.09344
 21
121.973
  0
LINE
  8
0
 10
1.09344
 20
121.973
 11
0.956131
 21
121.844
  0
LINE
  8
0
 10
0.956131
 20
121.844
 11
0.803726
 21
121.734
  0
LINE
  8
0
 10
0.803726
 20
121.734
 11
0.638657
 21
121.643
  0
LINE
  8
0
 10
0.638657
 20
121.643
 11
0.463516
 21
121.573
  0
LINE
  8
0
 10
0.463516
 20
121.573
 11
0.281067
 21
121.527
  0
LINE
  8
0
 10
0.281067
 20
121.527
 11
0.0941772
 21
121.503
  0
LINE
  8
0
 10
0.0941772
 20
121.503
 11
-0.0941772
 21
121.503
  0
LINE
  8
0
 10
-0.533707
 20
99.5168
 11
-1.59273
 21
99.6506
  0
LINE
  8
0
 10
-1.59273
 20
99.6506
 11
-2.62663
 21
99.916
  0
LINE
  8
0
 10
-2.62663
 20
99.916
 11
-3.61911
 21
100.309
  0
LINE
  8
0
 10
-3.61911
 20
100.309
 11
-4.55452
 21
100.823
  0
LINE
  8
0
 10
-4.55452
 20
100.823
 11
-5.41809
 21
101.451
  0
LINE
  8
0
 10
-5.41809
 20
101.451
 11
-6.19623
 21
102.181
  0
LINE
  8
0
 10
-6.19623
 20
102.181
 11
-6.87663
 21
103.004
  0
LINE
  8
0
 10
-6.87663
 20
103.004
 11
-7.44859
 21
103.905
  0
LINE
  8
0
 10
-7.44859
 20
103.905
 11
-7.90309
 21
104.871
  0
LINE
  8
0
 10
-7.90309
 20
104.871
 11
-8.23296
 21
105.886
  0
LINE
  8
0
 10
-8.23296
 20
105.886
 11
-8.43297
 21
106.935
  0
LINE
  8
0
 10
-8.43297
 20
106.935
 11
-8.5
 21
108
  0
LINE
  8
0
 10
-8.5
 20
108
 11
-8.43297
 21
109.065
  0
LINE
  8
0
 10
-8.43297
 20
109.065
 11
-8.23296
 21
110.114
  0
LINE
  8
0
 10
-8.23296
 20
110.114
 11
-7.90309
 21
111.129
  0
LINE
  8
0
 10
-7.90309
 20
111.129
 11
-7.44859
 21
112.095
  0
LINE
  8
0
 10
-7.44859
 20
112.095
 11
-6.87663
 21
112.996
  0
LINE
  8
0
 10
-6.87663
 20
112.996
 11
-6.19623
 21
113.819
  0
LINE
  8
0
 10
-6.19623
 20
113.819
 11
-5.41809
 21
114.549
  0
LINE
  8
0
 10
-5.41809
 20
114.549
 11
-4.55452
 21
115.177
  0
LINE
  8
0
 10
-4.55452
 20
115.177
 11
-3.61911
 21
115.691
  0
LINE
  8
0
 10
-3.61911
 20
115.691
 11
-2.62663
 21
116.084
  0
LINE
  8
0
 10
-2.62663
 20
116.084
 11
-1.59273
 21
116.349
  0
LINE
  8
0
 10
-1.59273
 20
116.349
 11
-0.533707
 21
116.483
  0
LINE
  8
0
 10
-0.533707
 20
116.483
 11
0.533707
 21
116.483
  0
LINE
  8
0
 10
0.533707
 20
116.483
 11
1.59273
 21
116.349
  0
LINE
  8
0
 10
1.59273
 20
116.349
 11
2.62663
 21
116.084
  0
LINE
  8
0
 10
2.62663
 20
116.084
 11
3.61911
 21
115.691
  0
LINE
  8
0
 10
3.61911
 20
115.691
 11
4.55452
 21
115.177
  0
LINE
  8
0
 10
4.55452
 20
115.177
 11
5.41809
 21
114.549
  0
LINE
  8
0
 10
5.41809
 20
114.549
 11
6.19623
 21
113.819
  0
LINE
  8
0
 10
6.19623
 20
113.819
 11
6.87663
 21
112.996
  0
LINE
  8
0
 10
6.87663
 20
112.996
 11
7.44859
 21
112.095
  0
LINE
  8
0
 10
7.44859
 20
112.095
 11
7.90309
 21
111.129
  0
LINE
  8
0
 10
7.90309
 20
111.129
 11
8.23296
 21
110.114
  0
LINE
  8
0
 10
8.23296
 20
110.114
 11
8.43297
 21
109.065
  0
LINE
  8
0
 10
8.43297
 20
109.065
 11
8.5
 21
108
  0
LINE
  8
0
 10
8.5
 20
108
 11
8.43297
 21
106.935
  0
LINE
  8
0
 10
8.43297
 20
106.935
 11
8.23296
 21
105.886
  0
LINE
  8
0
 10
8.23296
 20
105.886
 11
7.90309
 21
104.871
  0
LINE
  8
0
 10
7.90309
 20
104.871
 11
7.44859
 21
103.905
  0
LINE
  8
0
 10
7.44859
 20
103.905
 11
6.87663
 21
103.004
  0
LINE
  8
0
 10
6.87663
 20
103.004
 11
6.19623
 21
102.181
  0
LINE
  8
0
 10
6.19623
 20
102.181
 11
5.41809
 21
101.451
  0
LINE
  8
0
 10
5.41809
 20
101.451
 11
4.55452
 21
100.823
  0
LINE
  8
0
 10
4.55452
 20
100.823
 11
3.61911
 21
100.309
  0
LINE
  8
0
 10
3.61911
 20
100.309
 11
2.62663
 21
99.916
  0
LINE
  8
0
 10
2.62663
 20
99.916
 11
1.59273
 21
99.6506
  0
LINE
  8
0
 10
1.59273
 20
99.6506
 11
0.533707
 21
99.5168
  0
LINE
  8
0
 10
0.533707
 20
99.5168
 11
-0.533707
 21
99.5168
  0
LINE
  8
0
 10
-17.8982
 20
106.327
 11
-17.8982
 21
109.673
  0
LINE
  8
0
 10
-17.8982
 20
109.673
 11
-15
 21
111.347
  0
LINE
  8
0
 10
-15
 20
111.347
 11
-12.1018
 21
109.673
  0
LINE
  8
0
 10
-12.1018
 20
109.673
 11
-12.1018
 21
106.327
  0
LINE
  8
0
 10
-12.1018
 20
106.327
 11
-15
 21
104.653
  0
LINE
  8
0
 10
-15
 20
104.653
 11
-17.8982
 21
106.327
  0
LINE
  8
0
 10
12.1018
 20
106.327
 11
12.1018
 21
109.673
  0
LINE
  8
0
 10
12.1018
 20
109.673
 11
15
 21
111.347
  0
LINE
  8
0
 10
15
 20
111.347
 11
17.8982
 21
109.673
  0
LINE
  8
0
 10
17.8982
 20
109.673
 11
17.8982
 21
106.327
  0
LINE
  8
0
 10
17.8982
 20
106.327
 11
15
 21
104.653
  0
LINE
  8
0
 10
15
 20
104.653
 11
12.1018
 21
106.327
  0
LINE
  8
0
 10
-9.17329
 20
90.1018
 11
-10.8466
 21
93
  0
LINE
  8
0
 10
-10.8466
 20
93
 11
-9.17329
 21
95.8982
  0
LINE
  8
0
 10
-9.17329
 20
95.8982
 11
-5.82671
 21
95.8982
  0
LINE
  8
0
 10
-5.82671
 20
95.8982
 11
-4.15341
 21
93
  0
LINE
  8
0
 10
-4.15341
 20
93
 11
-5.82671
 21
90.1018
  0
LINE
  8
0
 10
-5.82671
 20
90.1018
 11
-9.17329
 21
90.1018
  0
LINE
  8
0
 10
7.40581
 20
91.503
 11
7.21892
 21
91.5266
  0
LINE
  8
0
 10
7.21892
 20
91.5266
 11
7.03647
 21
91.5734
  0
LINE
  8
0
 10
7.03647
 20
91.5734
 11
6.86133
 21
91.6428
  0
LINE
  8
0
 10
6.86133
 20
91.6428
 11
6.69626
 21
91.7335
  0
LINE
  8
0
 10
6.69626
 20
91.7335
 11
6.54385
 21
91.8442
  0
LINE
  8
0
 10
6.54385
 20
91.8442
 11
6.40654
 21
91.9732
  0
LINE
  8
0
 10
6.40654
 20
91.9732
 11
6.28647
 21
92.1183
  0
LINE
  8
0
 10
6.28647
 20
92.1183
 11
6.18553
 21
92.2774
  0
LINE
  8
0
 10
6.18553
 20
92.2774
 11
6.10533
 21
92.4478
  0
LINE
  8
0
 10
6.10533
 20
92.4478
 11
6.04712
 21
92.627
  0
LINE
  8
0
 10
6.04712
 20
92.627
 11
6.01183
 21
92.812
  0
LINE
  8
0
 10
6.01183
 20
92.812
 11
6
 21
93
  0
LINE
  8
0
 10
6
 20
93
 11
6.01183
 21
93.188
  0
LINE
  8
0
 10
6.01183
 20
93.188
 11
6.04712
 21
93.373
  0
LINE
  8
0
 10
6.04712
 20
93.373
 11
6.10533
 21
93.5522
  0
LINE
  8
0
 10
6.10533
 20
93.5522
 11
6.18553
 21
93.7226
  0
LINE
  8
0
 10
6.18553
 20
93.7226
 11
6.28647
 21
93.8817
  0
LINE
  8
0
 10
6.28647
 20
93.8817
 11
6.40654
 21
94.0268
  0
LINE
  8
0
 10
6.40654
 20
94.0268
 11
6.54385
 21
94.1558
  0
LINE
  8
0
 10
6.54385
 20
94.1558
 11
6.69626
 21
94.2665
  0
LINE
  8
0
 10
6.69626
 20
94.2665
 11
6.86133
 21
94.3573
  0
LINE
  8
0
 10
6.86133
 20
94.3573
 11
7.03647
 21
94.4266
  0
LINE
  8
0
 10
7.03647
 20
94.4266
 11
7.21892
 21
94.4734
  0
LINE
  8
0
 10
7.21892
 20
94.4734
 11
7.40581
 21
94.4971
  0
LINE
  8
0
 10
7.40581
 20
94.4971
 11
7.59418
 21
94.4971
  0
LINE
  8
0
 10
7.59418
 20
94.4971
 11
7.78107
 21
94.4734
  0
LINE
  8
0
 10
7.78107
 20
94.4734
 11
7.96352
 21
94.4266
  0
LINE
  8
0
 10
7.96352
 20
94.4266
 11
8.13866
 21
94.3573
  0
LINE
  8
0
 10
8.13866
 20
94.3573
 11
8.30373
 21
94.2665
  0
LINE
  8
0
 10
8.30373
 20
94.2665
 11
8.45613
 21
94.1558
  0
LINE
  8
0
 10
8.45613
 20
94.1558
 11
8.59344
 21
94.0268
  0
LINE
  8
0
 10
8.59344
 20
94.0268
 11
8.71352
 21
93.8817
  0
LINE
  8
0
 10
8.71352
 20
93.8817
 11
8.81445
 21
93.7226
  0
LINE
  8
0
 10
8.81445
 20
93.7226
 11
8.89465
 21
93.5522
  0
LINE
  8
0
 10
8.89465
 20
93.5522
 11
8.95287
 21
93.373
  0
LINE
  8
0
 10
8.95287
 20
93.373
 11
8.98816
 21
93.188
  0
LINE
  8
0
 10
8.98816
 20
93.188
 11
9
 21
93
  0
LINE
  8
0
 10
9
 20
93
 11
8.98816
 21
92.812
  0
LINE
  8
0
 10
8.98816
 20
92.812
 11
8.95287
 21
92.627
  0
LINE
  8
0
 10
8.95287
 20
92.627
 11
8.89465
 21
92.4478
  0
LINE
  8
0
 10
8.89465
 20
92.4478
 11
8.81445
 21
92.2774
  0
LINE
  8
0
 10
8.81445
 20
92.2774
 11
8.71352
 21
92.1183
  0
LINE
  8
0
 10
8.71352
 20
92.1183
 11
8.59344
 21
91.9732
  0
LINE
  8
0
 10
8.59344
 20
91.9732
 11
8.45613
 21
91.8442
  0
LINE
  8
0
 10
8.45613
 20
91.8442
 11
8.30373
 21
91.7335
  0
LINE
  8
0
 10
8.30373
 20
91.7335
 11
8.13866
 21
91.6428
  0
LINE
  8
0
 10
8.13866
 20
91.6428
 11
7.96352
 21
91.5734
  0
LINE
  8
0
 10
7.96352
 20
91.5734
 11
7.78107
 21
91.5266
  0
LINE
  8
0
 10
7.78107
 20
91.5266
 11
7.59418
 21
91.503
  0
LINE
  8
0
 10
7.59418
 20
91.503
 11
7.40581
 21
91.503
  0
LINE
  8
0
 10
-17.5942
 20
29.1566
 11
-18.085
 21
29.1566
  0
LINE
  8
0
 10
-18.085
 20
29.1566
 11
-21.17
 21
34.5
  0
LINE
  8
0
 10
-21.17
 20
34.5
 11
-18.085
 21
39.8434
  0
LINE
  8
0
 10
-18.085
 20
39.8434
 11
-17.8741
 21
39.8434
  0
LINE
  8
0
 10
-17.8741
 20
39.8434
 11
-17.7893
 21
40.1044
  0
LINE
  8
0
 10
-17.7893
 20
40.1044
 11
-17.6289
 21
40.4453
  0
LINE
  8
0
 10
-17.6289
 20
40.4453
 11
-17.427
 21
40.7634
  0
LINE
  8
0
 10
-17.427
 20
40.7634
 11
-17.1869
 21
41.0536
  0
LINE
  8
0
 10
-17.1869
 20
41.0536
 11
-16.9123
 21
41.3116
  0
LINE
  8
0
 10
-16.9123
 20
41.3116
 11
-16.6075
 21
41.533
  0
LINE
  8
0
 10
-16.6075
 20
41.533
 11
-16.2773
 21
41.7145
  0
LINE
  8
0
 10
-16.2773
 20
41.7145
 11
-15.927
 21
41.8532
  0
LINE
  8
0
 10
-15.927
 20
41.8532
 11
-15.5621
 21
41.9469
  0
LINE
  8
0
 10
-15.5621
 20
41.9469
 11
-15.1884
 21
41.9941
  0
LINE
  8
0
 10
-15.1884
 20
41.9941
 11
-14.8116
 21
41.9941
  0
LINE
  8
0
 10
-14.8116
 20
41.9941
 11
-14.4379
 21
41.9469
  0
LINE
  8
0
 10
-14.4379
 20
41.9469
 11
-14.0729
 21
41.8532
  0
LINE
  8
0
 10
-14.0729
 20
41.8532
 11
-13.7227
 21
41.7145
  0
LINE
  8
0
 10
-13.7227
 20
41.7145
 11
-13.3925
 21
41.533
  0
LINE
  8
0
 10
-13.3925
 20
41.533
 11
-13.0877
 21
41.3116
  0
LINE
  8
0
 10
-13.0877
 20
41.3116
 11
-12.8131
 21
41.0536
  0
LINE
  8
0
 10
-12.8131
 20
41.0536
 11
-12.5729
 21
40.7634
  0
LINE
  8
0
 10
-12.5729
 20
40.7634
 11
-12.3711
 21
40.4453
  0
LINE
  8
0
 10
-12.3711
 20
40.4453
 11
-12.2107
 21
40.1044
  0
LINE
  8
0
 10
-12.2107
 20
40.1044
 11
-12.1259
 21
39.8434
  0
LINE
  8
0
 10
-12.1259
 20
39.8434
 11
-11.915
 21
39.8434
  0
LINE
  8
0
 10
-11.915
 20
39.8434
 11
-8.83
 21
34.5
  0
LINE
  8
0
 10
-8.83
 20
34.5
 11
-11.915
 21
29.1566
  0
LINE
  8
0
 10
-11.915
 20
29.1566
 11
-12.4058
 21
29.1566
  0
LINE
  8
0
 10
-12.4058
 20
29.1566
 11
-12.4058
 21
25.5
  0
LINE
  8
0
 10
-12.4058
 20
25.5
 11
-2.59418
 21
25.5
  0
LINE
  8
0
 10
-2.59418
 20
25.5
 11
-2.59418
 21
29.1566
  0
LINE
  8
0
 10
-2.59418
 20
29.1566
 11
-3.08499
 21
29.1566
  0
LINE
  8
0
 10
-3.08499
 20
29.1566
 11
-6.17
 21
34.5
  0
LINE
  8
0
 10
-6.17
 20
34.5
 11
-3.08499
 21
39.8434
  0
LINE
  8
0
 10
-3.08499
 20
39.8434
 11
-2.87413
 21
39.8434
  0
LINE
  8
0
 10
-2.87413
 20
39.8434
 11
-2.78932
 21
40.1044
  0
LINE
  8
0
 10
-2.78932
 20
40.1044
 11
-2.62891
 21
40.4453
  0
LINE
  8
0
 10
-2.62891
 20
40.4453
 11
-2.42705
 21
40.7634
  0
LINE
  8
0
 10
-2.42705
 20
40.7634
 11
-2.1869
 21
41.0536
  0
LINE
  8
0
 10
-2.1869
 20
41.0536
 11
-1.91226
 21
41.3116
  0
LINE
  8
0
 10
-1.91226
 20
41.3116
 11
-1.60747
 21
41.533
  0
LINE
  8
0
 10
-1.60747
 20
41.533
 11
-1.27733
 21
41.7145
  0
LINE
  8
0
 10
-1.27733
 20
41.7145
 11
-0.927048
 21
41.8532
  0
LINE
  8
0
 10
-0.927048
 20
41.8532
 11
-0.562134
 21
41.9469
  0
LINE
  8
0
 10
-0.562134
 20
41.9469
 11
-0.18837
 21
41.9941
  0
LINE
  8
0
 10
-0.18837
 20
41.9941
 11
0.18837
 21
41.9941
  0
LINE
  8
0
 10
0.18837
 20
41.9941
 11
0.562134
 21
41.9469
  0
LINE
  8
0
 10
0.562134
 20
41.9469
 11
0.927048
 21
41.8532
  0
LINE
  8
0
 10
0.927048
 20
41.8532
 11
1.27733
 21
41.7145
  0
LINE
  8
0
 10
1.27733
 20
41.7145
 11
1.60747
 21
41.533
  0
LINE
  8
0
 10
1.60747
 20
41.533
 11
1.91226
 21
41.3116
  0
LINE
  8
0
 10
1.91226
 20
41.3116
 11
2.1869
 21
41.0536
  0
LINE
  8
0
 10
2.1869
 20
41.0536
 11
2.42705
 21
40.7634
  0
LINE
  8
0
 10
2.42705
 20
40.7634
 11
2.62891
 21
40.4453
  0
LINE
  8
0
 10
2.62891
 20
40.4453
 11
2.78932
 21
40.1044
  0
LINE
  8
0
 10
2.78932
 20
40.1044
 11
2.87413
 21
39.8434
  0
LINE
  8
0
 10
2.87413
 20
39.8434
 11
3.08499
 21
39.8434
  0
LINE
  8
0
 10
3.08499
 20
39.8434
 11
6.17
 21
34.5
  0
LINE
  8
0
 10
6.17
 20
34.5
 11
3.08499
 21
29.1566
  0
LINE
  8
0
 10
3.08499
 20
29.1566
 11
2.59418
 21
29.1566
  0
LINE
  8
0
 10
2.59418
 20
29.1566
 11
2.59418
 21
25.5
  0
LINE
  8
0
 10
2.59418
 20
25.5
 11
12.4058
 21
25.5
  0
LINE
  8
0
 10
12.4058
 20
25.5
 11
12.4058
 21
29.1566
  0
LINE
  8
0
 10
12.4058
 20
29.1566
 11
11.915
 21
29.1566
  0
LINE
  8
0
 10
11.915
 20
29.1566
 11
8.83
 21
34.5
  0
LINE
  8
0
 10
8.83
 20
34.5
 11
11.915
 21
39.8434
  0
LINE
  8
0
 10
11.915
 20
39.8434
 11
12.1259
 21
39.8434
  0
LINE
  8
0
 10
12.1259
 20
39.8434
 11
12.2107
 21
40.1044
  0
LINE
  8
0
 10
12.2107
 20
40.1044
 11
12.3711
 21
40.4453
  0
LINE
  8
0
 10
12.3711
 20
40.4453
 11
12.5729
 21
40.7634
  0
LINE
  8
0
 10
12.5729
 20
40.7634
 11
12.8131
 21
41.0536
  0
LINE
  8
0
 10
12.8131
 20
41.0536
 11
13.0877
 21
41.3116
  0
LINE
  8
0
 10
13.0877
 20
41.3116
 11
13.3925
 21
41.533
  0
LINE
  8
0
 10
13.3925
 20
41.533
 11
13.7227
 21
41.7145
  0
LINE
  8
0
 10
13.7227
 20
41.7145
 11
14.0729
 21
41.8532
  0
LINE
  8
0
 10
14.0729
 20
41.8532
 11
14.4379
 21
41.9469
  0
LINE
  8
0
 10
14.4379
 20
41.9469
 11
14.8116
 21
41.9941
  0
LINE
  8
0
 10
14.8116
 20
41.9941
 11
15.1884
 21
41.9941
  0
LINE
  8
0
 10
15.1884
 20
41.9941
 11
15.5621
 21
41.9469
  0
LINE
  8
0
 10
15.5621
 20
41.9469
 11
15.927
 21
41.8532
  0
LINE
  8
0
 10
15.927
 20
41.8532
 11
16.2773
 21
41.7145
  0
LINE
  8
0
 10
16.2773
 20
41.7145
 11
16.6075
 21
41.533
  0
LINE
  8
0
 10
16.6075
 20
41.533
 11
16.9123
 21
41.3116
  0
LINE
  8
0
 10
16.9123
 20
41.3116
 11
17.1869
 21
41.0536
  0
LINE
  8
0
 10
17.1869
 20
41.0536
 11
17.427
 21
40.7634
  0
LINE
  8
0
 10
17.427
 20
40.7634
 11
17.6289
 21
40.4453
  0
LINE
  8
0
 10
17.6289
 20
40.4453
 11
17.7893
 21
40.1044
  0
LINE
  8
0
 10
17.7893
 20
40.1044
 11
17.8741
 21
39.8434
  0
LINE
  8
0
 10
17.8741
 20
39.8434
 11
18.085
 21
39.8434
  0
LINE
  8
0
 10
18.085
 20
39.8434
 11
21.17
 21
34.5
  0
LINE
  8
0
 10
21.17
 20
34.5
 11
18.085
 21
29.1566
  0
LINE
  8
0
 10
18.085
 20
29.1566
 11
17.5942
 21
29.1566
  0
LINE
  8
0
 10
17.5942
 20
29.1566
 11
17.5942
 21
25.5
  0
LINE
  8
0
 10
17.5942
 20
25.5
 11
22
 21
25.5
  0
LINE
  8
0
 10
22
 20
25.5
 11
22
 21
34.343
  0
LINE
  8
0
 10
22
 20
34.343
 11
22.1489
 21
34.6594
  0
LINE
  8
0
 10
22.1489
 20
34.6594
 11
22.3429
 21
35.2566
  0
LINE
  8
0
 10
22.3429
 20
35.2566
 11
22.4606
 21
35.8733
  0
LINE
  8
0
 10
22.4606
 20
35.8733
 11
22.5
 21
36.5
  0
LINE
  8
0
 10
22.5
 20
36.5
 11
22.5
 21
71.5
  0
LINE
  8
0
 10
22.5
 20
71.5
 11
22.4606
 21
72.1267
  0
LINE
  8
0
 10
22.4606
 20
72.1267
 11
22.3429
 21
72.7434
  0
LINE
  8
0
 10
22.3429
 20
72.7434
 11
22.1489
 21
73.3406
  0
LINE
  8
0
 10
22.1489
 20
73.3406
 11
21.8815
 21
73.9088
  0
LINE
  8
0
 10
21.8815
 20
73.9088
 11
21.5451
 21
74.4389
  0
LINE
  8
0
 10
21.5451
 20
74.4389
 11
21.1448
 21
74.9227
  0
LINE
  8
0
 10
21.1448
 20
74.9227
 11
20.6871
 21
75.3526
  0
LINE
  8
0
 10
20.6871
 20
75.3526
 11
20.1791
 21
75.7216
  0
LINE
  8
0
 10
20.1791
 20
75.7216
 11
19.6289
 21
76.0241
  0
LINE
  8
0
 10
19.6289
 20
76.0241
 11
19.0451
 21
76.2553
  0
LINE
  8
0
 10
19.0451
 20
76.2553
 11
18.4369
 21
76.4114
  0
LINE
  8
0
 10
18.4369
 20
76.4114
 11
17.8139
 21
76.4901
  0
LINE
  8
0
 10
17.8139
 20
76.4901
 11
-17.8139
 21
76.4901
  0
LINE
  8
0
 10
-17.8139
 20
76.4901
 11
-18.4369
 21
76.4114
  0
LINE
  8
0
 10
-18.4369
 20
76.4114
 11
-19.0451
 21
76.2553
  0
LINE
  8
0
 10
-19.0451
 20
76.2553
 11
-19.6289
 21
76.0241
  0
LINE
  8
0
 10
-19.6289
 20
76.0241
 11
-20.1791
 21
75.7216
  0
LINE
  8
0
 10
-20.1791
 20
75.7216
 11
-20.6871
 21
75.3526
  0
LINE
  8
0
 10
-20.6871
 20
75.3526
 11
-21.1448
 21
74.9227
  0
LINE
  8
0
 10
-21.1448
 20
74.9227
 11
-21.5451
 21
74.4389
  0
LINE
  8
0
 10
-21.5451
 20
74.4389
 11
-21.8815
 21
73.9088
  0
LINE
  8
0
 10
-21.8815
 20
73.9088
 11
-22.1489
 21
73.3406
  0
LINE
  8
0
 10
-22.1489
 20
73.3406
 11
-22.3429
 21
72.7434
  0
LINE
  8
0
 10
-22.3429
 20
72.7434
 11
-22.4606
 21
72.1267
  0
LINE
  8
0
 10
-22.4606
 20
72.1267
 11
-22.5
 21
71.5
  0
LINE
  8
0
 10
-22.5
 20
71.5
 11
-22.5
 21
36.5
  0
LINE
  8
0
 10
-22.5
 20
36.5
 11
-22.4606
 21
35.8733
  0
LINE
  8
0
 10
-22.4606
 20
35.8733
 11
-22.3429
 21
35.2566
  0
LINE
  8
0
 10
-22.3429
 20
35.2566
 11
-22.1489
 21
34.6594
  0
LINE
  8
0
 10
-22.1489
 20
34.6594
 11
-22
 21
34.343
  0
LINE
  8
0
 10
-22
 20
34.343
 11
-22
 21
25.5
  0
LINE
  8
0
 10
-22
 20
25.5
 11
-17.5942
 21
25.5
  0
LINE
  8
0
 10
-17.5942
 20
25.5
 11
-17.5942
 21
29.1566
  0
LINE
  8
0
 10
14.8116
 20
66.0059
 11
14.4379
 21
66.0531
  0
LINE
  8
0
 10
14.4379
 20
66.0531
 11
14.0729
 21
66.1468
  0
LINE
  8
0
 10
14.0729
 20
66.1468
 11
13.7227
 21
66.2855
  0
LINE
  8
0
 10
13.7227
 20
66.2855
 11
13.3925
 21
66.467
  0
LINE
  8
0
 10
13.3925
 20
66.467
 11
13.0877
 21
66.6884
  0
LINE
  8
0
 10
13.0877
 20
66.6884
 11
12.8131
 21
66.9464
  0
LINE
  8
0
 10
12.8131
 20
66.9464
 11
12.5729
 21
67.2366
  0
LINE
  8
0
 10
12.5729
 20
67.2366
 11
12.3711
 21
67.5547
  0
LINE
  8
0
 10
12.3711
 20
67.5547
 11
12.2107
 21
67.8956
  0
LINE
  8
0
 10
12.2107
 20
67.8956
 11
12.0942
 21
68.2539
  0
LINE
  8
0
 10
12.0942
 20
68.2539
 11
12.0237
 21
68.624
  0
LINE
  8
0
 10
12.0237
 20
68.624
 11
12
 21
69
  0
LINE
  8
0
 10
12
 20
69
 11
12.0237
 21
69.376
  0
LINE
  8
0
 10
12.0237
 20
69.376
 11
12.0942
 21
69.7461
  0
LINE
  8
0
 10
12.0942
 20
69.7461
 11
12.2107
 21
70.1044
  0
LINE
  8
0
 10
12.2107
 20
70.1044
 11
12.3711
 21
70.4453
  0
LINE
  8
0
 10
12.3711
 20
70.4453
 11
12.5729
 21
70.7634
  0
LINE
  8
0
 10
12.5729
 20
70.7634
 11
12.8131
 21
71.0536
  0
LINE
  8
0
 10
12.8131
 20
71.0536
 11
13.0877
 21
71.3115
  0
LINE
  8
0
 10
13.0877
 20
71.3115
 11
13.3925
 21
71.533
  0
LINE
  8
0
 10
13.3925
 20
71.533
 11
13.7227
 21
71.7145
  0
LINE
  8
0
 10
13.7227
 20
71.7145
 11
14.0729
 21
71.8532
  0
LINE
  8
0
 10
14.0729
 20
71.8532
 11
14.4379
 21
71.9469
  0
LINE
  8
0
 10
14.4379
 20
71.9469
 11
14.8116
 21
71.9941
  0
LINE
  8
0
 10
14.8116
 20
71.9941
 11
15.1884
 21
71.9941
  0
LINE
  8
0
 10
15.1884
 20
71.9941
 11
15.5621
 21
71.9469
  0
LINE
  8
0
 10
15.5621
 20
71.9469
 11
15.927
 21
71.8532
  0
LINE
  8
0
 10
15.927
 20
71.8532
 11
16.2773
 21
71.7145
  0
LINE
  8
0
 10
16.2773
 20
71.7145
 11
16.6075
 21
71.533
  0
LINE
  8
0
 10
16.6075
 20
71.533
 11
16.9123
 21
71.3115
  0
LINE
  8
0
 10
16.9123
 20
71.3115
 11
17.1869
 21
71.0536
  0
LINE
  8
0
 10
17.1869
 20
71.0536
 11
17.427
 21
70.7634
  0
LINE
  8
0
 10
17.427
 20
70.7634
 11
17.6289
 21
70.4453
  0
LINE
  8
0
 10
17.6289
 20
70.4453
 11
17.7893
 21
70.1044
  0
LINE
  8
0
 10
17.7893
 20
70.1044
 11
17.9057
 21
69.7461
  0
LINE
  8
0
 10
17.9057
 20
69.7461
 11
17.9763
 21
69.376
  0
LINE
  8
0
 10
17.9763
 20
69.376
 11
18
 21
69
  0
LINE
  8
0
 10
18
 20
69
 11
17.9763
 21
68.624
  0
LINE
  8
0
 10
17.9763
 20
68.624
 11
17.9057
 21
68.2539
  0
LINE
  8
0
 10
17.9057
 20
68.2539
 11
17.7893
 21
67.8956
  0
LINE
  8
0
 10
17.7893
 20
67.8956
 11
17.6289
 21
67.5547
  0
LINE
  8
0
 10
17.6289
 20
67.5547
 11
17.427
 21
67.2366
  0
LINE
  8
0
 10
17.427
 20
67.2366
 11
17.1869
 21
66.9464
  0
LINE
  8
0
 10
17.1869
 20
66.9464
 11
16.9123
 21
66.6884
  0
LINE
  8
0
 10
16.9123
 20
66.6884
 11
16.6075
 21
66.467
  0
LINE
  8
0
 10
16.6075
 20
66.467
 11
16.2773
 21
66.2855
  0
LINE
  8
0
 10
16.2773
 20
66.2855
 11
15.927
 21
66.1468
  0
LINE
  8
0
 10
15.927
 20
66.1468
 11
15.5621
 21
66.0531
  0
LINE
  8
0
 10
15.5621
 20
66.0531
 11
15.1884
 21
66.0059
  0
LINE
  8
0
 10
15.1884
 20
66.0059
 11
14.8116
 21
66.0059
  0
LINE
  8
0
 10
-15.1884
 20
66.0059
 11
-15.5621
 21
66.0531
  0
LINE
  8
0
 10
-15.5621
 20
66.0531
 11
-15.927
 21
66.1468
  0
LINE
  8
0
 10
-15.927
 20
66.1468
 11
-16.2773
 21
66.2855
  0
LINE
  8
0
 10
-16.2773
 20
66.2855
 11
-16.6075
 21
66.467
  0
LINE
  8
0
 10
-16.6075
 20
66.467
 11
-16.9123
 21
66.6884
  0
LINE
  8
0
 10
-16.9123
 20
66.6884
 11
-17.1869
 21
66.9464
  0
LINE
  8
0
 10
-17.1869
 20
66.9464
 11
-17.427
 21
67.2366
  0
LINE
  8
0
 10
-17.427
 20
67.2366
 11
-17.6289
 21
67.5547
  0
LINE
  8
0
 10
-17.6289
 20
67.5547
 11
-17.7893
 21
67.8956
  0
LINE
  8
0
 10
-17.7893
 20
67.8956
 11
-17.9057
 21
68.2539
  0
LINE
  8
0
 10
-17.9057
 20
68.2539
 11
-17.9763
 21
68.624
  0
LINE
  8
0
 10
-17.9763
 20
68.624
 11
-18
 21
69
  0
LINE
  8
0
 10
-18
 20
69
 11
-17.9763
 21
69.376
  0
LINE
  8
0
 10
-17.9763
 20
69.376
 11
-17.9057
 21
69.7461
  0
LINE
  8
0
 10
-17.9057
 20
69.7461
 11
-17.7893
 21
70.1044
  0
LINE
  8
0
 10
-17.7893
 20
70.1044
 11
-17.6289
 21
70.4453
  0
LINE
  8
0
 10
-17.6289
 20
70.4453
 11
-17.427
 21
70.7634
  0
LINE
  8
0
 10
-17.427
 20
70.7634
 11
-17.1869
 21
71.0536
  0
LINE
  8
0
 10
-17.1869
 20
71.0536
 11
-16.9123
 21
71.3115
  0
LINE
  8
0
 10
-16.9123
 20
71.3115
 11
-16.6075
 21
71.533
  0
LINE
  8
0
 10
-16.6075
 20
71.533
 11
-16.2773
 21
71.7145
  0
LINE
  8
0
 10
-16.2773
 20
71.7145
 11
-15.927
 21
71.8532
  0
LINE
  8
0
 10
-15.927
 20
71.8532
 11
-15.5621
 21
71.9469
  0
LINE
  8
0
 10
-15.5621
 20
71.9469
 11
-15.1884
 21
71.9941
  0
LINE
  8
0
 10
-15.1884
 20
71.9941
 11
-14.8116
 21
71.9941
  0
LINE
  8
0
 10
-14.8116
 20
71.9941
 11
-14.4379
 21
71.9469
  0
LINE
  8
0
 10
-14.4379
 20
71.9469
 11
-14.0729
 21
71.8532
  0
LINE
  8
0
 10
-14.0729
 20
71.8532
 11
-13.7227
 21
71.7145
  0
LINE
  8
0
 10
-13.7227
 20
71.7145
 11
-13.3925
 21
71.533
  0
LINE
  8
0
 10
-13.3925
 20
71.533
 11
-13.0877
 21
71.3115
  0
LINE
  8
0
 10
-13.0877
 20
71.3115
 11
-12.8131
 21
71.0536
  0
LINE
  8
0
 10
-12.8131
 20
71.0536
 11
-12.5729
 21
70.7634
  0
LINE
  8
0
 10
-12.5729
 20
70.7634
 11
-12.3711
 21
70.4453
  0
LINE
  8
0
 10
-12.3711
 20
70.4453
 11
-12.2107
 21
70.1044
  0
LINE
  8
0
 10
-12.2107
 20
70.1044
 11
-12.0942
 21
69.7461
  0
LINE
  8
0
 10
-12.0942
 20
69.7461
 11
-12.0237
 21
69.376
  0
LINE
  8
0
 10
-12.0237
 20
69.376
 11
-12
 21
69
  0
LINE
  8
0
 10
-12
 20
69
 11
-12.0237
 21
68.624
  0
LINE
  8
0
 10
-12.0237
 20
68.624
 11
-12.0942
 21
68.2539
  0
LINE
  8
0
 10
-12.0942
 20
68.2539
 11
-12.2107
 21
67.8956
  0
LINE
  8
0
 10
-12.2107
 20
67.8956
 11
-12.3711
 21
67.5547
  0
LINE
  8
0
 10
-12.3711
 20
67.5547
 11
-12.5729
 21
67.2366
  0
LINE
  8
0
 10
-12.5729
 20
67.2366
 11
-12.8131
 21
66.9464
  0
LINE
  8
0
 10
-12.8131
 20
66.9464
 11
-13.0877
 21
66.6884
  0
LINE
  8
0
 10
-13.0877
 20
66.6884
 11
-13.3925
 21
66.467
  0
LINE
  8
0
 10
-13.3925
 20
66.467
 11
-13.7227
 21
66.2855
  0
LINE
  8
0
 10
-13.7227
 20
66.2855
 11
-14.0729
 21
66.1468
  0
LINE
  8
0
 10
-14.0729
 20
66.1468
 11
-14.4379
 21
66.0531
  0
LINE
  8
0
 10
-14.4379
 20
66.0531
 11
-14.8116
 21
66.0059
  0
LINE
  8
0
 10
-14.8116
 20
66.0059
 11
-15.1884
 21
66.0059
  0
LINE
  8
0
 10
-0.0941772
 20
67.5029
 11
-0.281067
 21
67.5266
  0
LINE
  8
0
 10
-0.281067
 20
67.5266
 11
-0.463516
 21
67.5734
  0
LINE
  8
0
 10
-0.463516
 20
67.5734
 11
-0.638657
 21
67.6427
  0
LINE
  8
0
 10
-0.638657
 20
67.6427
 11
-0.803726
 21
67.7335
  0
LINE
  8
0
 10
-0.803726
 20
67.7335
 11
-0.956131
 21
67.8442
  0
LINE
  8
0
 10
-0.956131
 20
67.8442
 11
-1.09344
 21
67.9732
  0
LINE
  8
0
 10
-1.09344
 20
67.9732
 11
-1.21352
 21
68.1183
  0
LINE
  8
0
 10
-1.21352
 20
68.1183
 11
-1.31445
 21
68.2774
  0
LINE
  8
0
 10
-1.31445
 20
68.2774
 11
-1.39465
 21
68.4478
  0
LINE
  8
0
 10
-1.39465
 20
68.4478
 11
-1.45287
 21
68.627
  0
LINE
  8
0
 10
-1.45287
 20
68.627
 11
-1.48816
 21
68.812
  0
LINE
  8
0
 10
-1.48816
 20
68.812
 11
-1.5
 21
69
  0
LINE
  8
0
 10
-1.5
 20
69
 11
-1.48816
 21
69.188
  0
LINE
  8
0
 10
-1.48816
 20
69.188
 11
-1.45287
 21
69.373
  0
LINE
  8
0
 10
-1.45287
 20
69.373
 11
-1.39465
 21
69.5522
  0
LINE
  8
0
 10
-1.39465
 20
69.5522
 11
-1.31445
 21
69.7226
  0
LINE
  8
0
 10
-1.31445
 20
69.7226
 11
-1.21352
 21
69.8817
  0
LINE
  8
0
 10
-1.21352
 20
69.8817
 11
-1.09344
 21
70.0268
  0
LINE
  8
0
 10
-1.09344
 20
70.0268
 11
-0.956131
 21
70.1558
  0
LINE
  8
0
 10
-0.956131
 20
70.1558
 11
-0.803726
 21
70.2665
  0
LINE
  8
0
 10
-0.803726
 20
70.2665
 11
-0.638657
 21
70.3572
  0
LINE
  8
0
 10
-0.638657
 20
70.3572
 11
-0.463516
 21
70.4266
  0
LINE
  8
0
 10
-0.463516
 20
70.4266
 11
-0.281067
 21
70.4734
  0
LINE
  8
0
 10
-0.281067
 20
70.4734
 11
-0.0941772
 21
70.497
  0
LINE
  8
0
 10
-0.0941772
 20
70.497
 11
0.0941772
 21
70.497
  0
LINE
  8
0
 10
0.0941772
 20
70.497
 11
0.281067
 21
70.4734
  0
LINE
  8
0
 10
0.281067
 20
70.4734
 11
0.463516
 21
70.4266
  0
LINE
  8
0
 10
0.463516
 20
70.4266
 11
0.638657
 21
70.3572
  0
LINE
  8
0
 10
0.638657
 20
70.3572
 11
0.803726
 21
70.2665
  0
LINE
  8
0
 10
0.803726
 20
70.2665
 11
0.956131
 21
70.1558
  0
LINE
  8
0
 10
0.956131
 20
70.1558
 11
1.09344
 21
70.0268
  0
LINE
  8
0
 10
1.09344
 20
70.0268
 11
1.21352
 21
69.8817
  0
LINE
  8
0
 10
1.21352
 20
69.8817
 11
1.31445
 21
69.7226
  0
LINE
  8
0
 10
1.31445
 20
69.7226
 11
1.39465
 21
69.5522
  0
LINE
  8
0
 10
1.39465
 20
69.5522
 11
1.45287
 21
69.373
  0
LINE
  8
0
 10
1.45287
 20
69.373
 11
1.48816
 21
69.188
  0
LINE
  8
0
 10
1.48816
 20
69.188
 11
1.5
 21
69
  0
LINE
  8
0
 10
1.5
 20
69
 11
1.48816
 21
68.812
  0
LINE
  8
0
 10
1.48816
 20
68.812
 11
1.45287
 21
68.627
  0
LINE
  8
0
 10
1.45287
 20
68.627
 11
1.39465
 21
68.4478
  0
LINE
  8
0
 10
1.39465
 20
68.4478
 11
1.31445
 21
68.2774
  0
LINE
  8
0
 10
1.31445
 20
68.2774
 11
1.21352
 21
68.1183
  0
LINE
  8
0
 10
1.21352
 20
68.1183
 11
1.09344
 21
67.9732
  0
LINE
  8
0
 10
1.09344
 20
67.9732
 11
0.956131
 21
67.8442
  0
LINE
  8
0
 10
0.956131
 20
67.8442
 11
0.803726
 21
67.7335
  0
LINE
  8
0
 10
0.803726
 20
67.7335
 11
0.638657
 21
67.6427
  0
LINE
  8
0
 10
0.638657
 20
67.6427
 11
0.463516
 21
67.5734
  0
LINE
  8
0
 10
0.463516
 20
67.5734
 11
0.281067
 21
67.5266
  0
LINE
  8
0
 10
0.281067
 20
67.5266
 11
0.0941772
 21
67.5029
  0
LINE
  8
0
 10
0.0941772
 20
67.5029
 11
-0.0941772
 21
67.5029
  0
LINE
  8
0
 10
-0.533707
 20
45.5168
 11
-1.59273
 21
45.6506
  0
LINE
  8
0
 10
-1.59273
 20
45.6506
 11
-2.62663
 21
45.916
  0
LINE
  8
0
 10
-2.62663
 20
45.916
 11
-3.61911
 21
46.309
  0
LINE
  8
0
 10
-3.61911
 20
46.309
 11
-4.55452
 21
46.8232
  0
LINE
  8
0
 10
-4.55452
 20
46.8232
 11
-5.41809
 21
47.4506
  0
LINE
  8
0
 10
-5.41809
 20
47.4506
 11
-6.19623
 21
48.1814
  0
LINE
  8
0
 10
-6.19623
 20
48.1814
 11
-6.87663
 21
49.0038
  0
LINE
  8
0
 10
-6.87663
 20
49.0038
 11
-7.44859
 21
49.9051
  0
LINE
  8
0
 10
-7.44859
 20
49.9051
 11
-7.90309
 21
50.871
  0
LINE
  8
0
 10
-7.90309
 20
50.871
 11
-8.23296
 21
51.8861
  0
LINE
  8
0
 10
-8.23296
 20
51.8861
 11
-8.43297
 21
52.9347
  0
LINE
  8
0
 10
-8.43297
 20
52.9347
 11
-8.5
 21
54
  0
LINE
  8
0
 10
-8.5
 20
54
 11
-8.43297
 21
55.0653
  0
LINE
  8
0
 10
-8.43297
 20
55.0653
 11
-8.23296
 21
56.1139
  0
LINE
  8
0
 10
-8.23296
 20
56.1139
 11
-7.90309
 21
57.129
  0
LINE
  8
0
 10
-7.90309
 20
57.129
 11
-7.44859
 21
58.0949
  0
LINE
  8
0
 10
-7.44859
 20
58.0949
 11
-6.87663
 21
58.9962
  0
LINE
  8
0
 10
-6.87663
 20
58.9962
 11
-6.19623
 21
59.8186
  0
LINE
  8
0
 10
-6.19623
 20
59.8186
 11
-5.41809
 21
60.5494
  0
LINE
  8
0
 10
-5.41809
 20
60.5494
 11
-4.55452
 21
61.1768
  0
LINE
  8
0
 10
-4.55452
 20
61.1768
 11
-3.61911
 21
61.691
  0
LINE
  8
0
 10
-3.61911
 20
61.691
 11
-2.62663
 21
62.084
  0
LINE
  8
0
 10
-2.62663
 20
62.084
 11
-1.59273
 21
62.3494
  0
LINE
  8
0
 10
-1.59273
 20
62.3494
 11
-0.533707
 21
62.4832
  0
LINE
  8
0
 10
-0.533707
 20
62.4832
 11
0.533707
 21
62.4832
  0
LINE
  8
0
 10
0.533707
 20
62.4832
 11
1.59273
 21
62.3494
  0
LINE
  8
0
 10
1.59273
 20
62.3494
 11
2.62663
 21
62.084
  0
LINE
  8
0
 10
2.62663
 20
62.084
 11
3.61911
 21
61.691
  0
LINE
  8
0
 10
3.61911
 20
61.691
 11
4.55452
 21
61.1768
  0
LINE
  8
0
 10
4.55452
 20
61.1768
 11
5.41809
 21
60.5494
  0
LINE
  8
0
 10
5.41809
 20
60.5494
 11
6.19623
 21
59.8186
  0
LINE
  8
0
 10
6.19623
 20
59.8186
 11
6.87663
 21
58.9962
  0
LINE
  8
0
 10
6.87663
 20
58.9962
 11
7.44859
 21
58.0949
  0
LINE
  8
0
 10
7.44859
 20
58.0949
 11
7.90309
 21
57.129
  0
LINE
  8
0
 10
7.90309
 20
57.129
 11
8.23296
 21
56.1139
  0
LINE
  8
0
 10
8.23296
 20
56.1139
 11
8.43297
 21
55.0653
  0
LINE
  8
0
 10
8.43297
 20
55.0653
 11
8.5
 21
54
  0
LINE
  8
0
 10
8.5
 20
54
 11
8.43297
 21
52.9347
  0
LINE
  8
0
 10
8.43297
 20
52.9347
 11
8.23296
 21
51.8861
  0
LINE
  8
0
 10
8.23296
 20
51.8861
 11
7.90309
 21
50.871
  0
LINE
  8
0
 10
7.90309
 20
50.871
 11
7.44859
 21
49.9051
  0
LINE
  8
0
 10
7.44859
 20
49.9051
 11
6.87663
 21
49.0038
  0
LINE
  8
0
 10
6.87663
 20
49.0038
 11
6.19623
 21
48.1814
  0
LINE
  8
0
 10
6.19623
 20
48.1814
 11
5.41809
 21
47.4506
  0
LINE
  8
0
 10
5.41809
 20
47.4506
 11
4.55452
 21
46.8232
  0
LINE
  8
0
 10
4.55452
 20
46.8232
 11
3.61911
 21
46.309
  0
LINE
  8
0
 10
3.61911
 20
46.309
 11
2.62663
 21
45.916
  0
LINE
  8
0
 10
2.62663
 20
45.916
 11
1.59273
 21
45.6506
  0
LINE
  8
0
 10
1.59273
 20
45.6506
 11
0.533707
 21
45.5168
  0
LINE
  8
0
 10
0.533707
 20
45.5168
 11
-0.533707
 21
45.5168
  0
LINE
  8
0
 10
12.1018
 20
52.3267
 11
12.1018
 21
55.6733
  0
LINE
  8
0
 10
12.1018
 20
55.6733
 11
15
 21
57.3466
  0
LINE
  8
0
 10
15
 20
57.3466
 11
17.8982
 21
55.6733
  0
LINE
  8
0
 10
17.8982
 20
55.6733
 11
17.8982
 21
52.3267
  0
LINE
  8
0
 10
17.8982
 20
52.3267
 11
15
 21
50.6534
  0
LINE
  8
0
 10
15
 20
50.6534
 11
12.1018
 21
52.3267
  0
LINE
  8
0
 10
-17.8982
 20
52.3267
 11
-17.8982
 21
55.6733
  0
LINE
  8
0
 10
-17.8982
 20
55.6733
 11
-15
 21
57.3466
  0
LINE
  8
0
 10
-15
 20
57.3466
 11
-12.1018
 21
55.6733
  0
LINE
  8
0
 10
-12.1018
 20
55.6733
 11
-12.1018
 21
52.3267
  0
LINE
  8
0
 10
-12.1018
 20
52.3267
 11
-15
 21
50.6534
  0
LINE
  8
0
 10
-15
 20
50.6534
 11
-17.8982
 21
52.3267
  0
LINE
  8
0
 10
-9.17329
 20
36.1018
 11
-10.8466
 21
39
  0
LINE
  8
0
 10
-10.8466
 20
39
 11
-9.17329
 21
41.8982
  0
LINE
  8
0
 10
-9.17329
 20
41.8982
 11
-5.82671
 21
41.8982
  0
LINE
  8
0
 10
-5.82671
 20
41.8982
 11
-4.15341
 21
39
  0
LINE
  8
0
 10
-4.15341
 20
39
 11
-5.82671
 21
36.1018
  0
LINE
  8
0
 10
-5.82671
 20
36.1018
 11
-9.17329
 21
36.1018
  0
LINE
  8
0
 10
7.40581
 20
37.503
 11
7.21892
 21
37.5266
  0
LINE
  8
0
 10
7.21892
 20
37.5266
 11
7.03647
 21
37.5734
  0
LINE
  8
0
 10
7.03647
 20
37.5734
 11
6.86133
 21
37.6428
  0
LINE
  8
0
 10
6.86133
 20
37.6428
 11
6.69626
 21
37.7335
  0
LINE
  8
0
 10
6.69626
 20
37.7335
 11
6.54385
 21
37.8442
  0
LINE
  8
0
 10
6.54385
 20
37.8442
 11
6.40654
 21
37.9732
  0
LINE
  8
0
 10
6.40654
 20
37.9732
 11
6.28647
 21
38.1183
  0
LINE
  8
0
 10
6.28647
 20
38.1183
 11
6.18553
 21
38.2774
  0
LINE
  8
0
 10
6.18553
 20
38.2774
 11
6.10533
 21
38.4478
  0
LINE
  8
0
 10
6.10533
 20
38.4478
 11
6.04712
 21
38.627
  0
LINE
  8
0
 10
6.04712
 20
38.627
 11
6.01183
 21
38.812
  0
LINE
  8
0
 10
6.01183
 20
38.812
 11
6
 21
39
  0
LINE
  8
0
 10
6
 20
39
 11
6.01183
 21
39.188
  0
LINE
  8
0
 10
6.01183
 20
39.188
 11
6.04712
 21
39.373
  0
LINE
  8
0
 10
6.04712
 20
39.373
 11
6.10533
 21
39.5522
  0
LINE
  8
0
 10
6.10533
 20
39.5522
 11
6.18553
 21
39.7226
  0
LINE
  8
0
 10
6.18553
 20
39.7226
 11
6.28647
 21
39.8817
  0
LINE
  8
0
 10
6.28647
 20
39.8817
 11
6.40654
 21
40.0268
  0
LINE
  8
0
 10
6.40654
 20
40.0268
 11
6.54385
 21
40.1558
  0
LINE
  8
0
 10
6.54385
 20
40.1558
 11
6.69626
 21
40.2665
  0
LINE
  8
0
 10
6.69626
 20
40.2665
 11
6.86133
 21
40.3573
  0
LINE
  8
0
 10
6.86133
 20
40.3573
 11
7.03647
 21
40.4266
  0
LINE
  8
0
 10
7.03647
 20
40.4266
 11
7.21892
 21
40.4734
  0
LINE
  8
0
 10
7.21892
 20
40.4734
 11
7.40581
 21
40.4971
  0
LINE
  8
0
 10
7.40581
 20
40.4971
 11
7.59418
 21
40.4971
  0
LINE
  8
0
 10
7.59418
 20
40.4971
 11
7.78107
 21
40.4734
  0
LINE
  8
0
 10
7.78107
 20
40.4734
 11
7.96352
 21
40.4266
  0
LINE
  8
0
 10
7.96352
 20
40.4266
 11
8.13866
 21
40.3573
  0
LINE
  8
0
 10
8.13866
 20
40.3573
 11
8.30373
 21
40.2665
  0
LINE
  8
0
 10
8.30373
 20
40.2665
 11
8.45613
 21
40.1558
  0
LINE
  8
0
 10
8.45613
 20
40.1558
 11
8.59344
 21
40.0268
  0
LINE
  8
0
 10
8.59344
 20
40.0268
 11
8.71352
 21
39.8817
  0
LINE
  8
0
 10
8.71352
 20
39.8817
 11
8.81445
 21
39.7226
  0
LINE
  8
0
 10
8.81445
 20
39.7226
 11
8.89465
 21
39.5522
  0
LINE
  8
0
 10
8.89465
 20
39.5522
 11
8.95287
 21
39.373
  0
LINE
  8
0
 10
8.95287
 20
39.373
 11
8.98816
 21
39.188
  0
LINE
  8
0
 10
8.98816
 20
39.188
 11
9
 21
39
  0
LINE
  8
0
 10
9
 20
39
 11
8.98816
 21
38.812
  0
LINE
  8
0
 10
8.98816
 20
38.812
 11
8.95287
 21
38.627
  0
LINE
  8
0
 10
8.95287
 20
38.627
 11
8.89465
 21
38.4478
  0
LINE
  8
0
 10
8.89465
 20
38.4478
 11
8.81445
 21
38.2774
  0
LINE
  8
0
 10
8.81445
 20
38.2774
 11
8.71352
 21
38.1183
  0
LINE
  8
0
 10
8.71352
 20
38.1183
 11
8.59344
 21
37.9732
  0
LINE
  8
0
 10
8.59344
 20
37.9732
 11
8.45613
 21
37.8442
  0
LINE
  8
0
 10
8.45613
 20
37.8442
 11
8.30373
 21
37.7335
  0
LINE
  8
0
 10
8.30373
 20
37.7335
 11
8.13866
 21
37.6428
  0
LINE
  8
0
 10
8.13866
 20
37.6428
 11
7.96352
 21
37.5734
  0
LINE
  8
0
 10
7.96352
 20
37.5734
 11
7.78107
 21
37.5266
  0
LINE
  8
0
 10
7.78107
 20
37.5266
 11
7.59418
 21
37.503
  0
LINE
  8
0
 10
7.59418
 20
37.503
 11
7.40581
 21
37.503
  0
LINE
  8
0
 10
22
 20
-19.657
 11
22.1489
 21
-19.3406
  0
LINE
  8
0
 10
22.1489
 20
-19.3406
 11
22.3429
 21
-18.7434
  0
LINE
  8
0
 10
22.3429
 20
-18.7434
 11
22.4606
 21
-18.1267
  0
LINE
  8
0
 10
22.4606
 20
-18.1267
 11
22.5
 21
-17.5
  0
LINE
  8
0
 10
22.5
 20
-17.5
 11
22.5
 21
17.5
  0
LINE
  8
0
 10
22.5
 20
17.5
 11
22.4606
 21
18.1267
  0
LINE
  8
0
 10
22.4606
 20
18.1267
 11
22.3429
 21
18.7434
  0
LINE
  8
0
 10
22.3429
 20
18.7434
 11
22.1489
 21
19.3406
  0
LINE
  8
0
 10
22.1489
 20
19.3406
 11
21.8815
 21
19.9088
  0
LINE
  8
0
 10
21.8815
 20
19.9088
 11
21.5451
 21
20.4389
  0
LINE
  8
0
 10
21.5451
 20
20.4389
 11
21.1448
 21
20.9227
  0
LINE
  8
0
 10
21.1448
 20
20.9227
 11
20.6871
 21
21.3526
  0
LINE
  8
0
 10
20.6871
 20
21.3526
 11
20.1791
 21
21.7216
  0
LINE
  8
0
 10
20.1791
 20
21.7216
 11
19.6289
 21
22.0241
  0
LINE
  8
0
 10
19.6289
 20
22.0241
 11
19.0451
 21
22.2553
  0
LINE
  8
0
 10
19.0451
 20
22.2553
 11
18.4369
 21
22.4114
  0
LINE
  8
0
 10
18.4369
 20
22.4114
 11
17.8139
 21
22.4901
  0
LINE
  8
0
 10
17.8139
 20
22.4901
 11
-17.8139
 21
22.4901
  0
LINE
  8
0
 10
-17.8139
 20
22.4901
 11
-18.4369
 21
22.4114
  0
LINE
  8
0
 10
-18.4369
 20
22.4114
 11
-19.0451
 21
22.2553
  0
LINE
  8
0
 10
-19.0451
 20
22.2553
 11
-19.6289
 21
22.0241
  0
LINE
  8
0
 10
-19.6289
 20
22.0241
 11
-20.1791
 21
21.7216
  0
LINE
  8
0
 10
-20.1791
 20
21.7216
 11
-20.6871
 21
21.3526
  0
LINE
  8
0
 10
-20.6871
 20
21.3526
 11
-21.1448
 21
20.9227
  0
LINE
  8
0
 10
-21.1448
 20
20.9227
 11
-21.5451
 21
20.4389
  0
LINE
  8
0
 10
-21.5451
 20
20.4389
 11
-21.8815
 21
19.9088
  0
LINE
  8
0
 10
-21.8815
 20
19.9088
 11
-22.1489
 21
19.3406
  0
LINE
  8
0
 10
-22.1489
 20
19.3406
 11
-22.3429
 21
18.7434
  0
LINE
  8
0
 10
-22.3429
 20
18.7434
 11
-22.4606
 21
18.1267
  0
LINE
  8
0
 10
-22.4606
 20
18.1267
 11
-22.5
 21
17.5
  0
LINE
  8
0
 10
-22.5
 20
17.5
 11
-22.5
 21
-17.5
  0
LINE
  8
0
 10
-22.5
 20
-17.5
 11
-22.4606
 21
-18.1267
  0
LINE
  8
0
 10
-22.4606
 20
-18.1267
 11
-22.3429
 21
-18.7434
  0
LINE
  8
0
 10
-22.3429
 20
-18.7434
 11
-22.1489
 21
-19.3406
  0
LINE
  8
0
 10
-22.1489
 20
-19.3406
 11
-22
 21
-19.657
  0
LINE
  8
0
 10
-22
 20
-19.657
 11
-22
 21
-28.5
  0
LINE
  8
0
 10
-22
 20
-28.5
 11
22
 21
-28.5
  0
LINE
  8
0
 10
22
 20
-28.5
 11
22
 21
-19.657
  0
LINE
  8
0
 10
-15.1884
 20
12.0059
 11
-15.5621
 21
12.0531
  0
LINE
  8
0
 10
-15.5621
 20
12.0531
 11
-15.927
 21
12.1468
  0
LINE
  8
0
 10
-15.927
 20
12.1468
 11
-16.2773
 21
12.2855
  0
LINE
  8
0
 10
-16.2773
 20
12.2855
 11
-16.6075
 21
12.467
  0
LINE
  8
0
 10
-16.6075
 20
12.467
 11
-16.9123
 21
12.6884
  0
LINE
  8
0
 10
-16.9123
 20
12.6884
 11
-17.1869
 21
12.9464
  0
LINE
  8
0
 10
-17.1869
 20
12.9464
 11
-17.427
 21
13.2366
  0
LINE
  8
0
 10
-17.427
 20
13.2366
 11
-17.6289
 21
13.5547
  0
LINE
  8
0
 10
-17.6289
 20
13.5547
 11
-17.7893
 21
13.8956
  0
LINE
  8
0
 10
-17.7893
 20
13.8956
 11
-17.9057
 21
14.2539
  0
LINE
  8
0
 10
-17.9057
 20
14.2539
 11
-17.9763
 21
14.624
  0
LINE
  8
0
 10
-17.9763
 20
14.624
 11
-18
 21
15
  0
LINE
  8
0
 10
-18
 20
15
 11
-17.9763
 21
15.376
  0
LINE
  8
0
 10
-17.9763
 20
15.376
 11
-17.9057
 21
15.7461
  0
LINE
  8
0
 10
-17.9057
 20
15.7461
 11
-17.7893
 21
16.1044
  0
LINE
  8
0
 10
-17.7893
 20
16.1044
 11
-17.6289
 21
16.4453
  0
LINE
  8
0
 10
-17.6289
 20
16.4453
 11
-17.427
 21
16.7634
  0
LINE
  8
0
 10
-17.427
 20
16.7634
 11
-17.1869
 21
17.0536
  0
LINE
  8
0
 10
-17.1869
 20
17.0536
 11
-16.9123
 21
17.3115
  0
LINE
  8
0
 10
-16.9123
 20
17.3115
 11
-16.6075
 21
17.533
  0
LINE
  8
0
 10
-16.6075
 20
17.533
 11
-16.2773
 21
17.7145
  0
LINE
  8
0
 10
-16.2773
 20
17.7145
 11
-15.927
 21
17.8532
  0
LINE
  8
0
 10
-15.927
 20
17.8532
 11
-15.5621
 21
17.9469
  0
LINE
  8
0
 10
-15.5621
 20
17.9469
 11
-15.1884
 21
17.9941
  0
LINE
  8
0
 10
-15.1884
 20
17.9941
 11
-14.8116
 21
17.9941
  0
LINE
  8
0
 10
-14.8116
 20
17.9941
 11
-14.4379
 21
17.9469
  0
LINE
  8
0
 10
-14.4379
 20
17.9469
 11
-14.0729
 21
17.8532
  0
LINE
  8
0
 10
-14.0729
 20
17.8532
 11
-13.7227
 21
17.7145
  0
LINE
  8
0
 10
-13.7227
 20
17.7145
 11
-13.3925
 21
17.533
  0
LINE
  8
0
 10
-13.3925
 20
17.533
 11
-13.0877
 21
17.3115
  0
LINE
  8
0
 10
-13.0877
 20
17.3115
 11
-12.8131
 21
17.0536
  0
LINE
  8
0
 10
-12.8131
 20
17.0536
 11
-12.5729
 21
16.7634
  0
LINE
  8
0
 10
-12.5729
 20
16.7634
 11
-12.3711
 21
16.4453
  0
LINE
  8
0
 10
-12.3711
 20
16.4453
 11
-12.2107
 21
16.1044
  0
LINE
  8
0
 10
-12.2107
 20
16.1044
 11
-12.0942
 21
15.7461
  0
LINE
  8
0
 10
-12.0942
 20
15.7461
 11
-12.0237
 21
15.376
  0
LINE
  8
0
 10
-12.0237
 20
15.376
 11
-12
 21
15
  0
LINE
  8
0
 10
-12
 20
15
 11
-12.0237
 21
14.624
  0
LINE
  8
0
 10
-12.0237
 20
14.624
 11
-12.0942
 21
14.2539
  0
LINE
  8
0
 10
-12.0942
 20
14.2539
 11
-12.2107
 21
13.8956
  0
LINE
  8
0
 10
-12.2107
 20
13.8956
 11
-12.3711
 21
13.5547
  0
LINE
  8
0
 10
-12.3711
 20
13.5547
 11
-12.5729
 21
13.2366
  0
LINE
  8
0
 10
-12.5729
 20
13.2366
 11
-12.8131
 21
12.9464
  0
LINE
  8
0
 10
-12.8131
 20
12.9464
 11
-13.0877
 21
12.6884
  0
LINE
  8
0
 10
-13.0877
 20
12.6884
 11
-13.3925
 21
12.467
  0
LINE
  8
0
 10
-13.3925
 20
12.467
 11
-13.7227
 21
12.2855
  0
LINE
  8
0
 10
-13.7227
 20
12.2855
 11
-14.0729
 21
12.1468
  0
LINE
  8
0
 10
-14.0729
 20
12.1468
 11
-14.4379
 21
12.0531
  0
LINE
  8
0
 10
-14.4379
 20
12.0531
 11
-14.8116
 21
12.0059
  0
LINE
  8
0
 10
-14.8116
 20
12.0059
 11
-15.1884
 21
12.0059
  0
LINE
  8
0
 10
14.8116
 20
12.0059
 11
14.4379
 21
12.0531
  0
LINE
  8
0
 10
14.4379
 20
12.0531
 11
14.0729
 21
12.1468
  0
LINE
  8
0
 10
14.0729
 20
12.1468
 11
13.7227
 21
12.2855
  0
LINE
  8
0
 10
13.7227
 20
12.2855
 11
13.3925
 21
12.467
  0
LINE
  8
0
 10
13.3925
 20
12.467
 11
13.0877
 21
12.6884
  0
LINE
  8
0
 10
13.0877
 20
12.6884
 11
12.8131
 21
12.9464
  0
LINE
  8
0
 10
12.8131
 20
12.9464
 11
12.5729
 21
13.2366
  0
LINE
  8
0
 10
12.5729
 20
13.2366
 11
12.3711
 21
13.5547
  0
LINE
  8
0
 10
12.3711
 20
13.5547
 11
12.2107
 21
13.8956
  0
LINE
  8
0
 10
12.2107
 20
13.8956
 11
12.0942
 21
14.2539
  0
LINE
  8
0
 10
12.0942
 20
14.2539
 11
12.0237
 21
14.624
  0
LINE
  8
0
 10
12.0237
 20
14.624
 11
12
 21
15
  0
LINE
  8
0
 10
12
 20
15
 11
12.0237
 21
15.376
  0
LINE
  8
0
 10
12.0237
 20
15.376
 11
12.0942
 21
15.7461
  0
LINE
  8
0
 10
12.0942
 20
15.7461
 11
12.2107
 21
16.1044
  0
LINE
  8
0
 10
12.2107
 20
16.1044
 11
12.3711
 21
16.4453
  0
LINE
  8
0
 10
12.3711
 20
16.4453
 11
12.5729
 21
16.7634
  0
LINE
  8
0
 10
12.5729
 20
16.7634
 11
12.8131
 21
17.0536
  0
LINE
  8
0
 10
12.8131
 20
17.0536
 11
13.0877
 21
17.3115
  0
LINE
  8
0
 10
13.0877
 20
17.3115
 11
13.3925
 21
17.533
  0
LINE
  8
0
 10
13.3925
 20
17.533
 11
13.7227
 21
17.7145
  0
LINE
  8
0
 10
13.7227
 20
17.7145
 11
14.0729
 21
17.8532
  0
LINE
  8
0
 10
14.0729
 20
17.8532
 11
14.4379
 21
17.9469
  0
LINE
  8
0
 10
14.4379
 20
17.9469
 11
14.8116
 21
17.9941
  0
LINE
  8
0
 10
14.8116
 20
17.9941
 11
15.1884
 21
17.9941
  0
LINE
  8
0
 10
15.1884
 20
17.9941
 11
15.5621
 21
17.9469
  0
LINE
  8
0
 10
15.5621
 20
17.9469
 11
15.927
 21
17.8532
  0
LINE
  8
0
 10
15.927
 20
17.8532
 11
16.2773
 21
17.7145
  0
LINE
  8
0
 10
16.2773
 20
17.7145
 11
16.6075
 21
17.533
  0
LINE
  8
0
 10
16.6075
 20
17.533
 11
16.9123
 21
17.3115
  0
LINE
  8
0
 10
16.9123
 20
17.3115
 11
17.1869
 21
17.0536
  0
LINE
  8
0
 10
17.1869
 20
17.0536
 11
17.427
 21
16.7634
  0
LINE
  8
0
 10
17.427
 20
16.7634
 11
17.6289
 21
16.4453
  0
LINE
  8
0
 10
17.6289
 20
16.4453
 11
17.7893
 21
16.1044
  0
LINE
  8
0
 10
17.7893
 20
16.1044
 11
17.9057
 21
15.7461
  0
LINE
  8
0
 10
17.9057
 20
15.7461
 11
17.9763
 21
15.376
  0
LINE
  8
0
 10
17.9763
 20
15.376
 11
18
 21
15
  0
LINE
  8
0
 10
18
 20
15
 11
17.9763
 21
14.624
  0
LINE
  8
0
 10
17.9763
 20
14.624
 11
17.9057
 21
14.2539
  0
LINE
  8
0
 10
17.9057
 20
14.2539
 11
17.7893
 21
13.8956
  0
LINE
  8
0
 10
17.7893
 20
13.8956
 11
17.6289
 21
13.5547
  0
LINE
  8
0
 10
17.6289
 20
13.5547
 11
17.427
 21
13.2366
  0
LINE
  8
0
 10
17.427
 20
13.2366
 11
17.1869
 21
12.9464
  0
LINE
  8
0
 10
17.1869
 20
12.9464
 11
16.9123
 21
12.6884
  0
LINE
  8
0
 10
16.9123
 20
12.6884
 11
16.6075
 21
12.467
  0
LINE
  8
0
 10
16.6075
 20
12.467
 11
16.2773
 21
12.2855
  0
LINE
  8
0
 10
16.2773
 20
12.2855
 11
15.927
 21
12.1468
  0
LINE
  8
0
 10
15.927
 20
12.1468
 11
15.5621
 21
12.0531
  0
LINE
  8
0
 10
15.5621
 20
12.0531
 11
15.1884
 21
12.0059
  0
LINE
  8
0
 10
15.1884
 20
12.0059
 11
14.8116
 21
12.0059
  0
LINE
  8
0
 10
-0.150696
 20
12.6047
 11
-0.449707
 21
12.6425
  0
LINE
  8
0
 10
-0.449707
 20
12.6425
 11
-0.741638
 21
12.7175
  0
LINE
  8
0
 10
-0.741638
 20
12.7175
 11
-1.02187
 21
12.8284
  0
LINE
  8
0
 10
-1.02187
 20
12.8284
 11
-1.28598
 21
12.9736
  0
LINE
  8
0
 10
-1.28598
 20
12.9736
 11
-1.52982
 21
13.1508
  0
LINE
  8
0
 10
-1.52982
 20
13.1508
 11
-1.74951
 21
13.3571
  0
LINE
  8
0
 10
-1.74951
 20
13.3571
 11
-1.94164
 21
13.5893
  0
LINE
  8
0
 10
-1.94164
 20
13.5893
 11
-2.10313
 21
13.8438
  0
LINE
  8
0
 10
-2.10313
 20
13.8438
 11
-2.23146
 21
14.1165
  0
LINE
  8
0
 10
-2.23146
 20
14.1165
 11
-2.32458
 21
14.4031
  0
LINE
  8
0
 10
-2.32458
 20
14.4031
 11
-2.38107
 21
14.6992
  0
LINE
  8
0
 10
-2.38107
 20
14.6992
 11
-2.39999
 21
15
  0
LINE
  8
0
 10
-2.39999
 20
15
 11
-2.38107
 21
15.3008
  0
LINE
  8
0
 10
-2.38107
 20
15.3008
 11
-2.32458
 21
15.5968
  0
LINE
  8
0
 10
-2.32458
 20
15.5968
 11
-2.23146
 21
15.8835
  0
LINE
  8
0
 10
-2.23146
 20
15.8835
 11
-2.10313
 21
16.1562
  0
LINE
  8
0
 10
-2.10313
 20
16.1562
 11
-1.94164
 21
16.4107
  0
LINE
  8
0
 10
-1.94164
 20
16.4107
 11
-1.74951
 21
16.6429
  0
LINE
  8
0
 10
-1.74951
 20
16.6429
 11
-1.52982
 21
16.8492
  0
LINE
  8
0
 10
-1.52982
 20
16.8492
 11
-1.28598
 21
17.0264
  0
LINE
  8
0
 10
-1.28598
 20
17.0264
 11
-1.02187
 21
17.1716
  0
LINE
  8
0
 10
-1.02187
 20
17.1716
 11
-0.741638
 21
17.2825
  0
LINE
  8
0
 10
-0.741638
 20
17.2825
 11
-0.449707
 21
17.3575
  0
LINE
  8
0
 10
-0.449707
 20
17.3575
 11
-0.150696
 21
17.3953
  0
LINE
  8
0
 10
-0.150696
 20
17.3953
 11
0.150696
 21
17.3953
  0
LINE
  8
0
 10
0.150696
 20
17.3953
 11
0.449707
 21
17.3575
  0
LINE
  8
0
 10
0.449707
 20
17.3575
 11
0.741638
 21
17.2825
  0
LINE
  8
0
 10
0.741638
 20
17.2825
 11
1.02187
 21
17.1716
  0
LINE
  8
0
 10
1.02187
 20
17.1716
 11
1.28598
 21
17.0264
  0
LINE
  8
0
 10
1.28598
 20
17.0264
 11
1.52982
 21
16.8492
  0
LINE
  8
0
 10
1.52982
 20
16.8492
 11
1.74951
 21
16.6429
  0
LINE
  8
0
 10
1.74951
 20
16.6429
 11
1.94164
 21
16.4107
  0
LINE
  8
0
 10
1.94164
 20
16.4107
 11
2.10313
 21
16.1562
  0
LINE
  8
0
 10
2.10313
 20
16.1562
 11
2.23146
 21
15.8835
  0
LINE
  8
0
 10
2.23146
 20
15.8835
 11
2.32458
 21
15.5968
  0
LINE
  8
0
 10
2.32458
 20
15.5968
 11
2.38107
 21
15.3008
  0
LINE
  8
0
 10
2.38107
 20
15.3008
 11
2.39999
 21
15
  0
LINE
  8
0
 10
2.39999
 20
15
 11
2.38107
 21
14.6992
  0
LINE
  8
0
 10
2.38107
 20
14.6992
 11
2.32458
 21
14.4031
  0
LINE
  8
0
 10
2.32458
 20
14.4031
 11
2.23146
 21
14.1165
  0
LINE
  8
0
 10
2.23146
 20
14.1165
 11
2.10313
 21
13.8438
  0
LINE
  8
0
 10
2.10313
 20
13.8438
 11
1.94164
 21
13.5893
  0
LINE
  8
0
 10
1.94164
 20
13.5893
 11
1.74951
 21
13.3571
  0
LINE
  8
0
 10
1.74951
 20
13.3571
 11
1.52982
 21
13.1508
  0
LINE
  8
0
 10
1.52982
 20
13.1508
 11
1.28598
 21
12.9736
  0
LINE
  8
0
 10
1.28598
 20
12.9736
 11
1.02187
 21
12.8284
  0
LINE
  8
0
 10
1.02187
 20
12.8284
 11
0.741638
 21
12.7175
  0
LINE
  8
0
 10
0.741638
 20
12.7175
 11
0.449707
 21
12.6425
  0
LINE
  8
0
 10
0.449707
 20
12.6425
 11
0.150696
 21
12.6047
  0
LINE
  8
0
 10
0.150696
 20
12.6047
 11
-0.150696
 21
12.6047
  0
LINE
  8
0
 10
-0.470917
 20
-7.4852
 11
-1.40535
 21
-7.36714
  0
LINE
  8
0
 10
-1.40535
 20
-7.36714
 11
-2.31763
 21
-7.13292
  0
LINE
  8
0
 10
-2.31763
 20
-7.13292
 11
-3.19334
 21
-6.78619
  0
LINE
  8
0
 10
-3.19334
 20
-6.78619
 11
-4.01869
 21
-6.33246
  0
LINE
  8
0
 10
-4.01869
 20
-6.33246
 11
-4.78067
 21
-5.77884
  0
LINE
  8
0
 10
-4.78067
 20
-5.77884
 11
-5.46725
 21
-5.13409
  0
LINE
  8
0
 10
-5.46725
 20
-5.13409
 11
-6.06763
 21
-4.40839
  0
LINE
  8
0
 10
-6.06763
 20
-4.40839
 11
-6.5723
 21
-3.61314
  0
LINE
  8
0
 10
-6.5723
 20
-3.61314
 11
-6.97331
 21
-2.76093
  0
LINE
  8
0
 10
-6.97331
 20
-2.76093
 11
-7.26436
 21
-1.86517
  0
LINE
  8
0
 10
-7.26436
 20
-1.86517
 11
-7.44086
 21
-0.939987
  0
LINE
  8
0
 10
-7.44086
 20
-0.939987
 11
-7.5
 21
0
  0
LINE
  8
0
 10
-7.5
 20
0
 11
-7.44086
 21
0.939987
  0
LINE
  8
0
 10
-7.44086
 20
0.939987
 11
-7.26436
 21
1.86517
  0
LINE
  8
0
 10
-7.26436
 20
1.86517
 11
-6.97331
 21
2.76093
  0
LINE
  8
0
 10
-6.97331
 20
2.76093
 11
-6.5723
 21
3.61314
  0
LINE
  8
0
 10
-6.5723
 20
3.61314
 11
-6.06763
 21
4.40839
  0
LINE
  8
0
 10
-6.06763
 20
4.40839
 11
-5.46725
 21
5.13409
  0
LINE
  8
0
 10
-5.46725
 20
5.13409
 11
-4.78067
 21
5.77884
  0
LINE
  8
0
 10
-4.78067
 20
5.77884
 11
-4.01869
 21
6.33246
  0
LINE
  8
0
 10
-4.01869
 20
6.33246
 11
-3.19334
 21
6.78619
  0
LINE
  8
0
 10
-3.19334
 20
6.78619
 11
-2.31763
 21
7.13292
  0
LINE
  8
0
 10
-2.31763
 20
7.13292
 11
-1.40535
 21
7.36714
  0
LINE
  8
0
 10
-1.40535
 20
7.36714
 11
-0.470917
 21
7.4852
  0
LINE
  8
0
 10
-0.470917
 20
7.4852
 11
0.470917
 21
7.4852
  0
LINE
  8
0
 10
0.470917
 20
7.4852
 11
1.40535
 21
7.36714
  0
LINE
  8
0
 10
1.40535
 20
7.36714
 11
2.31763
 21
7.13292
  0
LINE
  8
0
 10
2.31763
 20
7.13292
 11
3.19334
 21
6.78619
  0
LINE
  8
0
 10
3.19334
 20
6.78619
 11
4.01869
 21
6.33246
  0
LINE
  8
0
 10
4.01869
 20
6.33246
 11
4.78067
 21
5.77884
  0
LINE
  8
0
 10
4.78067
 20
5.77884
 11
5.46725
 21
5.13409
  0
LINE
  8
0
 10
5.46725
 20
5.13409
 11
6.06763
 21
4.40839
  0
LINE
  8
0
 10
6.06763
 20
4.40839
 11
6.5723
 21
3.61314
  0
LINE
  8
0
 10
6.5723
 20
3.61314
 11
6.97331
 21
2.76093
  0
LINE
  8
0
 10
6.97331
 20
2.76093
 11
7.26436
 21
1.86517
  0
LINE
  8
0
 10
7.26436
 20
1.86517
 11
7.44086
 21
0.939987
  0
LINE
  8
0
 10
7.44086
 20
0.939987
 11
7.5
 21
0
  0
LINE
  8
0
 10
7.5
 20
0
 11
7.44086
 21
-0.939987
  0
LINE
  8
0
 10
7.44086
 20
-0.939987
 11
7.26436
 21
-1.86517
  0
LINE
  8
0
 10
7.26436
 20
-1.86517
 11
6.97331
 21
-2.76093
  0
LINE
  8
0
 10
6.97331
 20
-2.76093
 11
6.5723
 21
-3.61314
  0
LINE
  8
0
 10
6.5723
 20
-3.61314
 11
6.06763
 21
-4.40839
  0
LINE
  8
0
 10
6.06763
 20
-4.40839
 11
5.46725
 21
-5.13409
  0
LINE
  8
0
 10
5.46725
 20
-5.13409
 11
4.78067
 21
-5.77884
  0
LINE
  8
0
 10
4.78067
 20
-5.77884
 11
4.01869
 21
-6.33246
  0
LINE
  8
0
 10
4.01869
 20
-6.33246
 11
3.19334
 21
-6.78619
  0
LINE
  8
0
 10
3.19334
 20
-6.78619
 11
2.31763
 21
-7.13292
  0
LINE
  8
0
 10
2.31763
 20
-7.13292
 11
1.40535
 21
-7.36714
  0
LINE
  8
0
 10
1.40535
 20
-7.36714
 11
0.470917
 21
-7.4852
  0
LINE
  8
0
 10
0.470917
 20
-7.4852
 11
-0.470917
 21
-7.4852
  0
LINE
  8
0
 10
0.749512
 20
-3.92914
 11
1.23605
 21
-3.80421
  0
LINE
  8
0
 10
1.23605
 20
-3.80421
 11
1.70311
 21
-3.61929
  0
LINE
  8
0
 10
1.70311
 20
-3.61929
 11
2.1433
 21
-3.3773
  0
LINE
  8
0
 10
2.1433
 20
-3.3773
 11
2.54968
 21
-3.08205
  0
LINE
  8
0
 10
2.54968
 20
-3.08205
 11
2.91586
 21
-2.73817
  0
LINE
  8
0
 10
2.91586
 20
-2.73817
 11
3.23605
 21
-2.35114
  0
LINE
  8
0
 10
3.23605
 20
-2.35114
 11
3.50522
 21
-1.927
  0
LINE
  8
0
 10
3.50522
 20
-1.927
 11
3.7191
 21
-1.47249
  0
LINE
  8
0
 10
3.7191
 20
-1.47249
 11
3.87433
 21
-0.994751
  0
LINE
  8
0
 10
3.87433
 20
-0.994751
 11
3.96844
 21
-0.501328
  0
LINE
  8
0
 10
3.96844
 20
-0.501328
 11
4
 21
0
  0
LINE
  8
0
 10
4
 20
0
 11
3.96844
 21
0.501328
  0
LINE
  8
0
 10
3.96844
 20
0.501328
 11
3.87433
 21
0.994751
  0
LINE
  8
0
 10
3.87433
 20
0.994751
 11
3.7191
 21
1.47249
  0
LINE
  8
0
 10
3.7191
 20
1.47249
 11
3.50522
 21
1.927
  0
LINE
  8
0
 10
3.50522
 20
1.927
 11
3.23605
 21
2.35114
  0
LINE
  8
0
 10
3.23605
 20
2.35114
 11
2.91586
 21
2.73817
  0
LINE
  8
0
 10
2.91586
 20
2.73817
 11
2.54968
 21
3.08205
  0
LINE
  8
0
 10
2.54968
 20
3.08205
 11
2.1433
 21
3.3773
  0
LINE
  8
0
 10
2.1433
 20
3.3773
 11
1.70311
 21
3.61929
  0
LINE
  8
0
 10
1.70311
 20
3.61929
 11
1.23605
 21
3.80421
  0
LINE
  8
0
 10
1.23605
 20
3.80421
 11
0.749512
 21
3.92914
  0
LINE
  8
0
 10
0.749512
 20
3.92914
 11
0.25116
 21
3.9921
  0
LINE
  8
0
 10
0.25116
 20
3.9921
 11
-0.25116
 21
3.9921
  0
LINE
  8
0
 10
-0.25116
 20
3.9921
 11
-0.749512
 21
3.92914
  0
LINE
  8
0
 10
-0.749512
 20
3.92914
 11
-1.23605
 21
3.80421
  0
LINE
  8
0
 10
-1.23605
 20
3.80421
 11
-1.70311
 21
3.61929
  0
LINE
  8
0
 10
-1.70311
 20
3.61929
 11
-2.1433
 21
3.3773
  0
LINE
  8
0
 10
-2.1433
 20
3.3773
 11
-2.54968
 21
3.08205
  0
LINE
  8
0
 10
-2.54968
 20
3.08205
 11
-2.91586
 21
2.73817
  0
LINE
  8
0
 10
-2.91586
 20
2.73817
 11
-3.23605
 21
2.35114
  0
LINE
  8
0
 10
-3.23605
 20
2.35114
 11
-3.50522
 21
1.927
  0
LINE
  8
0
 10
-3.50522
 20
1.927
 11
-3.7191
 21
1.47249
  0
LINE
  8
0
 10
-3.7191
 20
1.47249
 11
-3.87433
 21
0.994751
  0
LINE
  8
0
 10
-3.87433
 20
0.994751
 11
-3.96844
 21
0.501328
  0
LINE
  8
0
 10
-3.96844
 20
0.501328
 11
-4
 21
0
  0
LINE
  8
0
 10
-4
 20
0
 11
-3.96844
 21
-0.501328
  0
LINE
  8
0
 10
-3.96844
 20
-0.501328
 11
-3.87433
 21
-0.994751
  0
LINE
  8
0
 10
-3.87433
 20
-0.994751
 11
-3.7191
 21
-1.47249
  0
LINE
  8
0
 10
-3.7191
 20
-1.47249
 11
-3.50522
 21
-1.927
  0
LINE
  8
0
 10
-3.50522
 20
-1.927
 11
-3.23605
 21
-2.35114
  0
LINE
  8
0
 10
-3.23605
 20
-2.35114
 11
-2.91586
 21
-2.73817
  0
LINE
  8
0
 10
-2.91586
 20
-2.73817
 11
-2.54968
 21
-3.08205
  0
LINE
  8
0
 10
-2.54968
 20
-3.08205
 11
-2.1433
 21
-3.3773
  0
LINE
  8
0
 10
-2.1433
 20
-3.3773
 11
-1.70311
 21
-3.61929
  0
LINE
  8
0
 10
-1.70311
 20
-3.61929
 11
-1.23605
 21
-3.80421
  0
LINE
  8
0
 10
-1.23605
 20
-3.80421
 11
-0.749512
 21
-3.92914
  0
LINE
  8
0
 10
-0.749512
 20
-3.92914
 11
-0.25116
 21
-3.9921
  0
LINE
  8
0
 10
-0.25116
 20
-3.9921
 11
0.25116
 21
-3.9921
  0
LINE
  8
0
 10
0.25116
 20
-3.9921
 11
0.749512
 21
-3.92914
  0
LINE
  8
0
 10
-0.18837
 20
-2.99408
 11
-0.562134
 21
-2.94685
  0
LINE
  8
0
 10
-0.562134
 20
-2.94685
 11
-0.927048
 21
-2.85316
  0
LINE
  8
0
 10
-0.927048
 20
-2.85316
 11
-1.27733
 21
-2.71448
  0
LINE
  8
0
 10
-1.27733
 20
-2.71448
 11
-1.60747
 21
-2.53297
  0
LINE
  8
0
 10
-1.60747
 20
-2.53297
 11
-1.91226
 21
-2.31154
  0
LINE
  8
0
 10
-1.91226
 20
-2.31154
 11
-2.1869
 21
-2.05363
  0
LINE
  8
0
 10
-2.1869
 20
-2.05363
 11
-2.42705
 21
-1.76335
  0
LINE
  8
0
 10
-2.42705
 20
-1.76335
 11
-2.62891
 21
-1.44525
  0
LINE
  8
0
 10
-2.62891
 20
-1.44525
 11
-2.78932
 21
-1.10437
  0
LINE
  8
0
 10
-2.78932
 20
-1.10437
 11
-2.90575
 21
-0.746063
  0
LINE
  8
0
 10
-2.90575
 20
-0.746063
 11
-2.97633
 21
-0.375992
  0
LINE
  8
0
 10
-2.97633
 20
-0.375992
 11
-3
 21
0
  0
LINE
  8
0
 10
-3
 20
0
 11
-2.97633
 21
0.375992
  0
LINE
  8
0
 10
-2.97633
 20
0.375992
 11
-2.90575
 21
0.746063
  0
LINE
  8
0
 10
-2.90575
 20
0.746063
 11
-2.78932
 21
1.10437
  0
LINE
  8
0
 10
-2.78932
 20
1.10437
 11
-2.62891
 21
1.44525
  0
LINE
  8
0
 10
-2.62891
 20
1.44525
 11
-2.42705
 21
1.76335
  0
LINE
  8
0
 10
-2.42705
 20
1.76335
 11
-2.1869
 21
2.05363
  0
LINE
  8
0
 10
-2.1869
 20
2.05363
 11
-1.91226
 21
2.31154
  0
LINE
  8
0
 10
-1.91226
 20
2.31154
 11
-1.60747
 21
2.53297
  0
LINE
  8
0
 10
-1.60747
 20
2.53297
 11
-1.27733
 21
2.71448
  0
LINE
  8
0
 10
-1.27733
 20
2.71448
 11
-0.927048
 21
2.85316
  0
LINE
  8
0
 10
-0.927048
 20
2.85316
 11
-0.562134
 21
2.94685
  0
LINE
  8
0
 10
-0.562134
 20
2.94685
 11
-0.18837
 21
2.99408
  0
LINE
  8
0
 10
-0.18837
 20
2.99408
 11
0.18837
 21
2.99408
  0
LINE
  8
0
 10
0.18837
 20
2.99408
 11
0.562134
 21
2.94685
  0
LINE
  8
0
 10
0.562134
 20
2.94685
 11
0.927048
 21
2.85316
  0
LINE
  8
0
 10
0.927048
 20
2.85316
 11
1.27733
 21
2.71448
  0
LINE
  8
0
 10
1.27733
 20
2.71448
 11
1.60747
 21
2.53297
  0
LINE
  8
0
 10
1.60747
 20
2.53297
 11
1.91226
 21
2.31154
  0
LINE
  8
0
 10
1.91226
 20
2.31154
 11
2.1869
 21
2.05363
  0
LINE
  8
0
 10
2.1869
 20
2.05363
 11
2.42705
 21
1.76335
  0
LINE
  8
0
 10
2.42705
 20
1.76335
 11
2.62891
 21
1.44525
  0
LINE
  8
0
 10
2.62891
 20
1.44525
 11
2.78932
 21
1.10437
  0
LINE
  8
0
 10
2.78932
 20
1.10437
 11
2.90575
 21
0.746063
  0
LINE
  8
0
 10
2.90575
 20
0.746063
 11
2.97633
 21
0.375992
  0
LINE
  8
0
 10
2.97633
 20
0.375992
 11
3
 21
0
  0
LINE
  8
0
 10
3
 20
0
 11
2.97633
 21
-0.375992
  0
LINE
  8
0
 10
2.97633
 20
-0.375992
 11
2.90575
 21
-0.746063
  0
LINE
  8
0
 10
2.90575
 20
-0.746063
 11
2.78932
 21
-1.10437
  0
LINE
  8
0
 10
2.78932
 20
-1.10437
 11
2.62891
 21
-1.44525
  0
LINE
  8
0
 10
2.62891
 20
-1.44525
 11
2.42705
 21
-1.76335
  0
LINE
  8
0
 10
2.42705
 20
-1.76335
 11
2.1869
 21
-2.05363
  0
LINE
  8
0
 10
2.1869
 20
-2.05363
 11
1.91226
 21
-2.31154
  0
LINE
  8
0
 10
1.91226
 20
-2.31154
 11
1.60747
 21
-2.53297
  0
LINE
  8
0
 10
1.60747
 20
-2.53297
 11
1.27733
 21
-2.71448
  0
LINE
  8
0
 10
1.27733
 20
-2.71448
 11
0.927048
 21
-2.85316
  0
LINE
  8
0
 10
0.927048
 20
-2.85316
 11
0.562134
 21
-2.94685
  0
LINE
  8
0
 10
0.562134
 20
-2.94685
 11
0.18837
 21
-2.99408
  0
LINE
  8
0
 10
0.18837
 20
-2.99408
 11
-0.18837
 21
-2.99408
  0
LINE
  8
0
 10
-15.425
 20
-2.36206
 11
-15.7177
 21
-2.29018
  0
LINE
  8
0
 10
-15.7177
 20
-2.29018
 11
-15.9991
 21
-2.18216
  0
LINE
  8
0
 10
-15.9991
 20
-2.18216
 11
-16.2647
 21
-2.03973
  0
LINE
  8
0
 10
-16.2647
 20
-2.03973
 11
-16.5104
 21
-1.86514
  0
LINE
  8
0
 10
-16.5104
 20
-1.86514
 11
-16.7322
 21
-1.66113
  0
LINE
  8
0
 10
-16.7322
 20
-1.66113
 11
-16.9268
 21
-1.43094
  0
LINE
  8
0
 10
-16.9268
 20
-1.43094
 11
-17.0909
 21
-1.17816
  0
LINE
  8
0
 10
-17.0909
 20
-1.17816
 11
-17.2221
 21
-0.906815
  0
LINE
  8
0
 10
-17.2221
 20
-0.906815
 11
-17.3182
 21
-0.621155
  0
LINE
  8
0
 10
-17.3182
 20
-0.621155
 11
-17.3778
 21
-0.325714
  0
LINE
  8
0
 10
-17.3778
 20
-0.325714
 11
-17.3999
 21
-0.0251312
  0
LINE
  8
0
 10
-17.3999
 20
-0.0251312
 11
-17.3841
 21
0.275848
  0
LINE
  8
0
 10
-17.3841
 20
0.275848
 11
-17.3307
 21
0.572479
  0
LINE
  8
0
 10
-17.3307
 20
0.572479
 11
-17.2406
 21
0.860077
  0
LINE
  8
0
 10
-17.2406
 20
0.860077
 11
-17.1151
 21
1.13411
  0
LINE
  8
0
 10
-17.1151
 20
1.13411
 11
-16.9563
 21
1.39027
  0
LINE
  8
0
 10
-16.9563
 20
1.39027
 11
-16.7666
 21
1.6245
  0
LINE
  8
0
 10
-16.7666
 20
1.6245
 11
-16.5491
 21
1.8331
  0
LINE
  8
0
 10
-16.5491
 20
1.8331
 11
-16.3071
 21
2.0128
  0
LINE
  8
0
 10
-16.3071
 20
2.0128
 11
-16.0445
 21
2.16075
  0
LINE
  8
0
 10
-16.0445
 20
2.16075
 11
-15.7655
 21
2.27464
  0
LINE
  8
0
 10
-15.7655
 20
2.27464
 11
-15.4744
 21
2.35265
  0
LINE
  8
0
 10
-15.4744
 20
2.35265
 11
-15.1758
 21
2.39355
  0
LINE
  8
0
 10
-15.1758
 20
2.39355
 11
-14.8744
 21
2.3967
  0
LINE
  8
0
 10
-14.8744
 20
2.3967
 11
-14.575
 21
2.36206
  0
LINE
  8
0
 10
-14.575
 20
2.36206
 11
-14.2823
 21
2.29018
  0
LINE
  8
0
 10
-14.2823
 20
2.29018
 11
-14.0009
 21
2.18216
  0
LINE
  8
0
 10
-14.0009
 20
2.18216
 11
-13.7353
 21
2.03973
  0
LINE
  8
0
 10
-13.7353
 20
2.03973
 11
-13.4896
 21
1.86514
  0
LINE
  8
0
 10
-13.4896
 20
1.86514
 11
-13.2678
 21
1.66113
  0
LINE
  8
0
 10
-13.2678
 20
1.66113
 11
-13.0732
 21
1.43094
  0
LINE
  8
0
 10
-13.0732
 20
1.43094
 11
-12.9091
 21
1.17816
  0
LINE
  8
0
 10
-12.9091
 20
1.17816
 11
-12.7779
 21
0.906815
  0
LINE
  8
0
 10
-12.7779
 20
0.906815
 11
-12.6818
 21
0.621155
  0
LINE
  8
0
 10
-12.6818
 20
0.621155
 11
-12.6222
 21
0.325714
  0
LINE
  8
0
 10
-12.6222
 20
0.325714
 11
-12.6001
 21
0.0251312
  0
LINE
  8
0
 10
-12.6001
 20
0.0251312
 11
-12.6159
 21
-0.275848
  0
LINE
  8
0
 10
-12.6159
 20
-0.275848
 11
-12.6693
 21
-0.572479
  0
LINE
  8
0
 10
-12.6693
 20
-0.572479
 11
-12.7594
 21
-0.860077
  0
LINE
  8
0
 10
-12.7594
 20
-0.860077
 11
-12.8849
 21
-1.13411
  0
LINE
  8
0
 10
-12.8849
 20
-1.13411
 11
-13.0437
 21
-1.39027
  0
LINE
  8
0
 10
-13.0437
 20
-1.39027
 11
-13.2334
 21
-1.6245
  0
LINE
  8
0
 10
-13.2334
 20
-1.6245
 11
-13.4509
 21
-1.8331
  0
LINE
  8
0
 10
-13.4509
 20
-1.8331
 11
-13.6929
 21
-2.0128
  0
LINE
  8
0
 10
-13.6929
 20
-2.0128
 11
-13.9554
 21
-2.16075
  0
LINE
  8
0
 10
-13.9554
 20
-2.16075
 11
-14.2345
 21
-2.27464
  0
LINE
  8
0
 10
-14.2345
 20
-2.27464
 11
-14.5256
 21
-2.35265
  0
LINE
  8
0
 10
-14.5256
 20
-2.35265
 11
-14.8242
 21
-2.39355
  0
LINE
  8
0
 10
-14.8242
 20
-2.39355
 11
-15.1256
 21
-2.3967
  0
LINE
  8
0
 10
-15.1256
 20
-2.3967
 11
-15.425
 21
-2.36206
  0
LINE
  8
0
 10
14.575
 20
-2.36206
 11
14.2823
 21
-2.29018
  0
LINE
  8
0
 10
14.2823
 20
-2.29018
 11
14.0009
 21
-2.18216
  0
LINE
  8
0
 10
14.0009
 20
-2.18216
 11
13.7353
 21
-2.03973
  0
LINE
  8
0
 10
13.7353
 20
-2.03973
 11
13.4896
 21
-1.86514
  0
LINE
  8
0
 10
13.4896
 20
-1.86514
 11
13.2678
 21
-1.66113
  0
LINE
  8
0
 10
13.2678
 20
-1.66113
 11
13.0732
 21
-1.43094
  0
LINE
  8
0
 10
13.0732
 20
-1.43094
 11
12.9091
 21
-1.17816
  0
LINE
  8
0
 10
12.9091
 20
-1.17816
 11
12.7779
 21
-0.906815
  0
LINE
  8
0
 10
12.7779
 20
-0.906815
 11
12.6818
 21
-0.621155
  0
LINE
  8
0
 10
12.6818
 20
-0.621155
 11
12.6222
 21
-0.325714
  0
LINE
  8
0
 10
12.6222
 20
-0.325714
 11
12.6001
 21
-0.0251312
  0
LINE
  8
0
 10
12.6001
 20
-0.0251312
 11
12.6159
 21
0.275848
  0
LINE
  8
0
 10
12.6159
 20
0.275848
 11
12.6693
 21
0.572479
  0
LINE
  8
0
 10
12.6693
 20
0.572479
 11
12.7594
 21
0.860077
  0
LINE
  8
0
 10
12.7594
 20
0.860077
 11
12.8849
 21
1.13411
  0
LINE
  8
0
 10
12.8849
 20
1.13411
 11
13.0437
 21
1.39027
  0
LINE
  8
0
 10
13.0437
 20
1.39027
 11
13.2334
 21
1.6245
  0
LINE
  8
0
 10
13.2334
 20
1.6245
 11
13.4509
 21
1.8331
  0
LINE
  8
0
 10
13.4509
 20
1.8331
 11
13.6929
 21
2.0128
  0
LINE
  8
0
 10
13.6929
 20
2.0128
 11
13.9554
 21
2.16075
  0
LINE
  8
0
 10
13.9554
 20
2.16075
 11
14.2345
 21
2.27464
  0
LINE
  8
0
 10
14.2345
 20
2.27464
 11
14.5256
 21
2.35265
  0
LINE
  8
0
 10
14.5256
 20
2.35265
 11
14.8242
 21
2.39355
  0
LINE
  8
0
 10
14.8242
 20
2.39355
 11
15.1256
 21
2.3967
  0
LINE
  8
0
 10
15.1256
 20
2.3967
 11
15.425
 21
2.36206
  0
LINE
  8
0
 10
15.425
 20
2.36206
 11
15.7177
 21
2.29018
  0
LINE
  8
0
 10
15.7177
 20
2.29018
 11
15.9991
 21
2.18216
  0
LINE
  8
0
 10
15.9991
 20
2.18216
 11
16.2647
 21
2.03973
  0
LINE
  8
0
 10
16.2647
 20
2.03973
 11
16.5104
 21
1.86514
  0
LINE
  8
0
 10
16.5104
 20
1.86514
 11
16.7322
 21
1.66113
  0
LINE
  8
0
 10
16.7322
 20
1.66113
 11
16.9268
 21
1.43094
  0
LINE
  8
0
 10
16.9268
 20
1.43094
 11
17.0909
 21
1.17816
  0
LINE
  8
0
 10
17.0909
 20
1.17816
 11
17.2221
 21
0.906815
  0
LINE
  8
0
 10
17.2221
 20
0.906815
 11
17.3182
 21
0.621155
  0
LINE
  8
0
 10
17.3182
 20
0.621155
 11
17.3778
 21
0.325714
  0
LINE
  8
0
 10
17.3778
 20
0.325714
 11
17.3999
 21
0.0251312
  0
LINE
  8
0
 10
17.3999
 20
0.0251312
 11
17.3841
 21
-0.275848
  0
LINE
  8
0
 10
17.3841
 20
-0.275848
 11
17.3307
 21
-0.572479
  0
LINE
  8
0
 10
17.3307
 20
-0.572479
 11
17.2406
 21
-0.860077
  0
LINE
  8
0
 10
17.2406
 20
-0.860077
 11
17.1151
 21
-1.13411
  0
LINE
  8
0
 10
17.1151
 20
-1.13411
 11
16.9563
 21
-1.39027
  0
LINE
  8
0
 10
16.9563
 20
-1.39027
 11
16.7666
 21
-1.6245
  0
LINE
  8
0
 10
16.7666
 20
-1.6245
 11
16.5491
 21
-1.8331
  0
LINE
  8
0
 10
16.5491
 20
-1.8331
 11
16.3071
 21
-2.0128
  0
LINE
  8
0
 10
16.3071
 20
-2.0128
 11
16.0445
 21
-2.16075
  0
LINE
  8
0
 10
16.0445
 20
-2.16075
 11
15.7655
 21
-2.27464
  0
LINE
  8
0
 10
15.7655
 20
-2.27464
 11
15.4744
 21
-2.35265
  0
LINE
  8
0
 10
15.4744
 20
-2.35265
 11
15.1758
 21
-2.39355
  0
LINE
  8
0
 10
15.1758
 20
-2.39355
 11
14.8744
 21
-2.3967
  0
LINE
  8
0
 10
14.8744
 20
-2.3967
 11
14.575
 21
-2.36206
  0
LINE
  8
0
 10
-18.085
 20
-24.8434
 11
-21.17
 21
-19.5
  0
LINE
  8
0
 10
-21.17
 20
-19.5
 11
-18.085
 21
-14.1566
  0
LINE
  8
0
 10
-18.085
 20
-14.1566
 11
-17.8741
 21
-14.1566
  0
LINE
  8
0
 10
-17.8741
 20
-14.1566
 11
-17.7893
 21
-13.8956
  0
LINE
  8
0
 10
-17.7893
 20
-13.8956
 11
-17.6289
 21
-13.5547
  0
LINE
  8
0
 10
-17.6289
 20
-13.5547
 11
-17.427
 21
-13.2366
  0
LINE
  8
0
 10
-17.427
 20
-13.2366
 11
-17.1869
 21
-12.9464
  0
LINE
  8
0
 10
-17.1869
 20
-12.9464
 11
-16.9123
 21
-12.6884
  0
LINE
  8
0
 10
-16.9123
 20
-12.6884
 11
-16.6075
 21
-12.467
  0
LINE
  8
0
 10
-16.6075
 20
-12.467
 11
-16.2773
 21
-12.2855
  0
LINE
  8
0
 10
-16.2773
 20
-12.2855
 11
-15.927
 21
-12.1468
  0
LINE
  8
0
 10
-15.927
 20
-12.1468
 11
-15.5621
 21
-12.0531
  0
LINE
  8
0
 10
-15.5621
 20
-12.0531
 11
-15.1884
 21
-12.0059
  0
LINE
  8
0
 10
-15.1884
 20
-12.0059
 11
-14.8116
 21
-12.0059
  0
LINE
  8
0
 10
-14.8116
 20
-12.0059
 11
-14.4379
 21
-12.0531
  0
LINE
  8
0
 10
-14.4379
 20
-12.0531
 11
-14.0729
 21
-12.1468
  0
LINE
  8
0
 10
-14.0729
 20
-12.1468
 11
-13.7227
 21
-12.2855
  0
LINE
  8
0
 10
-13.7227
 20
-12.2855
 11
-13.3925
 21
-12.467
  0
LINE
  8
0
 10
-13.3925
 20
-12.467
 11
-13.0877
 21
-12.6884
  0
LINE
  8
0
 10
-13.0877
 20
-12.6884
 11
-12.8131
 21
-12.9464
  0
LINE
  8
0
 10
-12.8131
 20
-12.9464
 11
-12.5729
 21
-13.2366
  0
LINE
  8
0
 10
-12.5729
 20
-13.2366
 11
-12.3711
 21
-13.5547
  0
LINE
  8
0
 10
-12.3711
 20
-13.5547
 11
-12.2107
 21
-13.8956
  0
LINE
  8
0
 10
-12.2107
 20
-13.8956
 11
-12.1259
 21
-14.1566
  0
LINE
  8
0
 10
-12.1259
 20
-14.1566
 11
-11.915
 21
-14.1566
  0
LINE
  8
0
 10
-11.915
 20
-14.1566
 11
-8.83
 21
-19.5
  0
LINE
  8
0
 10
-8.83
 20
-19.5
 11
-11.915
 21
-24.8434
  0
LINE
  8
0
 10
-11.915
 20
-24.8434
 11
-18.085
 21
-24.8434
  0
LINE
  8
0
 10
-3.08499
 20
-24.8434
 11
-6.17
 21
-19.5
  0
LINE
  8
0
 10
-6.17
 20
-19.5
 11
-3.08499
 21
-14.1566
  0
LINE
  8
0
 10
-3.08499
 20
-14.1566
 11
-2.87413
 21
-14.1566
  0
LINE
  8
0
 10
-2.87413
 20
-14.1566
 11
-2.78932
 21
-13.8956
  0
LINE
  8
0
 10
-2.78932
 20
-13.8956
 11
-2.62891
 21
-13.5547
  0
LINE
  8
0
 10
-2.62891
 20
-13.5547
 11
-2.42705
 21
-13.2366
  0
LINE
  8
0
 10
-2.42705
 20
-13.2366
 11
-2.1869
 21
-12.9464
  0
LINE
  8
0
 10
-2.1869
 20
-12.9464
 11
-1.91226
 21
-12.6884
  0
LINE
  8
0
 10
-1.91226
 20
-12.6884
 11
-1.60747
 21
-12.467
  0
LINE
  8
0
 10
-1.60747
 20
-12.467
 11
-1.27733
 21
-12.2855
  0
LINE
  8
0
 10
-1.27733
 20
-12.2855
 11
-0.927048
 21
-12.1468
  0
LINE
  8
0
 10
-0.927048
 20
-12.1468
 11
-0.562134
 21
-12.0531
  0
LINE
  8
0
 10
-0.562134
 20
-12.0531
 11
-0.18837
 21
-12.0059
  0
LINE
  8
0
 10
-0.18837
 20
-12.0059
 11
0.18837
 21
-12.0059
  0
LINE
  8
0
 10
0.18837
 20
-12.0059
 11
0.562134
 21
-12.0531
  0
LINE
  8
0
 10
0.562134
 20
-12.0531
 11
0.927048
 21
-12.1468
  0
LINE
  8
0
 10
0.927048
 20
-12.1468
 11
1.27733
 21
-12.2855
  0
LINE
  8
0
 10
1.27733
 20
-12.2855
 11
1.60747
 21
-12.467
  0
LINE
  8
0
 10
1.60747
 20
-12.467
 11
1.91226
 21
-12.6884
  0
LINE
  8
0
 10
1.91226
 20
-12.6884
 11
2.1869
 21
-12.9464
  0
LINE
  8
0
 10
2.1869
 20
-12.9464
 11
2.42705
 21
-13.2366
  0
LINE
  8
0
 10
2.42705
 20
-13.2366
 11
2.62891
 21
-13.5547
  0
LINE
  8
0
 10
2.62891
 20
-13.5547
 11
2.78932
 21
-13.8956
  0
LINE
  8
0
 10
2.78932
 20
-13.8956
 11
2.87413
 21
-14.1566
  0
LINE
  8
0
 10
2.87413
 20
-14.1566
 11
3.08499
 21
-14.1566
  0
LINE
  8
0
 10
3.08499
 20
-14.1566
 11
6.17
 21
-19.5
  0
LINE
  8
0
 10
6.17
 20
-19.5
 11
3.08499
 21
-24.8434
  0
LINE
  8
0
 10
3.08499
 20
-24.8434
 11
-3.08499
 21
-24.8434
  0
LINE
  8
0
 10
11.915
 20
-24.8434
 11
8.83
 21
-19.5
  0
LINE
  8
0
 10
8.83
 20
-19.5
 11
11.915
 21
-14.1566
  0
LINE
  8
0
 10
11.915
 20
-14.1566
 11
12.1259
 21
-14.1566
  0
LINE
  8
0
 10
12.1259
 20
-14.1566
 11
12.2107
 21
-13.8956
  0
LINE
  8
0
 10
12.2107
 20
-13.8956
 11
12.3711
 21
-13.5547
  0
LINE
  8
0
 10
12.3711
 20
-13.5547
 11
12.5729
 21
-13.2366
  0
LINE
  8
0
 10
12.5729
 20
-13.2366
 11
12.8131
 21
-12.9464
  0
LINE
  8
0
 10
12.8131
 20
-12.9464
 11
13.0877
 21
-12.6884
  0
LINE
  8
0
 10
13.0877
 20
-12.6884
 11
13.3925
 21
-12.467
  0
LINE
  8
0
 10
13.3925
 20
-12.467
 11
13.7227
 21
-12.2855
  0
LINE
  8
0
 10
13.7227
 20
-12.2855
 11
14.0729
 21
-12.1468
  0
LINE
  8
0
 10
14.0729
 20
-12.1468
 11
14.4379
 21
-12.0531
  0
LINE
  8
0
 10
14.4379
 20
-12.0531
 11
14.8116
 21
-12.0059
  0
LINE
  8
0
 10
14.8116
 20
-12.0059
 11
15.1884
 21
-12.0059
  0
LINE
  8
0
 10
15.1884
 20
-12.0059
 11
15.5621
 21
-12.0531
  0
LINE
  8
0
 10
15.5621
 20
-12.0531
 11
15.927
 21
-12.1468
  0
LINE
  8
0
 10
15.927
 20
-12.1468
 11
16.2773
 21
-12.2855
  0
LINE
  8
0
 10
16.2773
 20
-12.2855
 11
16.6075
 21
-12.467
  0
LINE
  8
0
 10
16.6075
 20
-12.467
 11
16.9123
 21
-12.6884
  0
LINE
  8
0
 10
16.9123
 20
-12.6884
 11
17.1869
 21
-12.9464
  0
LINE
  8
0
 10
17.1869
 20
-12.9464
 11
17.427
 21
-13.2366
  0
LINE
  8
0
 10
17.427
 20
-13.2366
 11
17.6289
 21
-13.5547
  0
LINE
  8
0
 10
17.6289
 20
-13.5547
 11
17.7893
 21
-13.8956
  0
LINE
  8
0
 10
17.7893
 20
-13.8956
 11
17.8741
 21
-14.1566
  0
LINE
  8
0
 10
17.8741
 20
-14.1566
 11
18.085
 21
-14.1566
  0
LINE
  8
0
 10
18.085
 20
-14.1566
 11
21.17
 21
-19.5
  0
LINE
  8
0
 10
21.17
 20
-19.5
 11
18.085
 21
-24.8434
  0
LINE
  8
0
 10
18.085
 20
-24.8434
 11
11.915
 21
-24.8434
  0
LINE
  8
0
 10
-7.6507
 20
-17.3953
 11
-7.94971
 21
-17.3575
  0
LINE
  8
0
 10
-7.94971
 20
-17.3575
 11
-8.24164
 21
-17.2825
  0
LINE
  8
0
 10
-8.24164
 20
-17.2825
 11
-8.52187
 21
-17.1716
  0
LINE
  8
0
 10
-8.52187
 20
-17.1716
 11
-8.78598
 21
-17.0264
  0
LINE
  8
0
 10
-8.78598
 20
-17.0264
 11
-9.02982
 21
-16.8492
  0
LINE
  8
0
 10
-9.02982
 20
-16.8492
 11
-9.24951
 21
-16.6429
  0
LINE
  8
0
 10
-9.24951
 20
-16.6429
 11
-9.44164
 21
-16.4107
  0
LINE
  8
0
 10
-9.44164
 20
-16.4107
 11
-9.60313
 21
-16.1562
  0
LINE
  8
0
 10
-9.60313
 20
-16.1562
 11
-9.73146
 21
-15.8835
  0
LINE
  8
0
 10
-9.73146
 20
-15.8835
 11
-9.82458
 21
-15.5968
  0
LINE
  8
0
 10
-9.82458
 20
-15.5968
 11
-9.88107
 21
-15.3008
  0
LINE
  8
0
 10
-9.88107
 20
-15.3008
 11
-9.89999
 21
-15
  0
LINE
  8
0
 10
-9.89999
 20
-15
 11
-9.88107
 21
-14.6992
  0
LINE
  8
0
 10
-9.88107
 20
-14.6992
 11
-9.82458
 21
-14.4031
  0
LINE
  8
0
 10
-9.82458
 20
-14.4031
 11
-9.73146
 21
-14.1165
  0
LINE
  8
0
 10
-9.73146
 20
-14.1165
 11
-9.60313
 21
-13.8438
  0
LINE
  8
0
 10
-9.60313
 20
-13.8438
 11
-9.44164
 21
-13.5893
  0
LINE
  8
0
 10
-9.44164
 20
-13.5893
 11
-9.24951
 21
-13.3571
  0
LINE
  8
0
 10
-9.24951
 20
-13.3571
 11
-9.02982
 21
-13.1508
  0
LINE
  8
0
 10
-9.02982
 20
-13.1508
 11
-8.78598
 21
-12.9736
  0
LINE
  8
0
 10
-8.78598
 20
-12.9736
 11
-8.52187
 21
-12.8284
  0
LINE
  8
0
 10
-8.52187
 20
-12.8284
 11
-8.24164
 21
-12.7175
  0
LINE
  8
0
 10
-8.24164
 20
-12.7175
 11
-7.94971
 21
-12.6425
  0
LINE
  8
0
 10
-7.94971
 20
-12.6425
 11
-7.6507
 21
-12.6047
  0
LINE
  8
0
 10
-7.6507
 20
-12.6047
 11
-7.34929
 21
-12.6047
  0
LINE
  8
0
 10
-7.34929
 20
-12.6047
 11
-7.05028
 21
-12.6425
  0
LINE
  8
0
 10
-7.05028
 20
-12.6425
 11
-6.75835
 21
-12.7175
  0
LINE
  8
0
 10
-6.75835
 20
-12.7175
 11
-6.47812
 21
-12.8284
  0
LINE
  8
0
 10
-6.47812
 20
-12.8284
 11
-6.214
 21
-12.9736
  0
LINE
  8
0
 10
-6.214
 20
-12.9736
 11
-5.97017
 21
-13.1508
  0
LINE
  8
0
 10
-5.97017
 20
-13.1508
 11
-5.75047
 21
-13.3571
  0
LINE
  8
0
 10
-5.75047
 20
-13.3571
 11
-5.55835
 21
-13.5893
  0
LINE
  8
0
 10
-5.55835
 20
-13.5893
 11
-5.39685
 21
-13.8438
  0
LINE
  8
0
 10
-5.39685
 20
-13.8438
 11
-5.26852
 21
-14.1165
  0
LINE
  8
0
 10
-5.26852
 20
-14.1165
 11
-5.1754
 21
-14.4031
  0
LINE
  8
0
 10
-5.1754
 20
-14.4031
 11
-5.11891
 21
-14.6992
  0
LINE
  8
0
 10
-5.11891
 20
-14.6992
 11
-5.09999
 21
-15
  0
LINE
  8
0
 10
-5.09999
 20
-15
 11
-5.11891
 21
-15.3008
  0
LINE
  8
0
 10
-5.11891
 20
-15.3008
 11
-5.1754
 21
-15.5968
  0
LINE
  8
0
 10
-5.1754
 20
-15.5968
 11
-5.26852
 21
-15.8835
  0
LINE
  8
0
 10
-5.26852
 20
-15.8835
 11
-5.39685
 21
-16.1562
  0
LINE
  8
0
 10
-5.39685
 20
-16.1562
 11
-5.55835
 21
-16.4107
  0
LINE
  8
0
 10
-5.55835
 20
-16.4107
 11
-5.75047
 21
-16.6429
  0
LINE
  8
0
 10
-5.75047
 20
-16.6429
 11
-5.97017
 21
-16.8492
  0
LINE
  8
0
 10
-5.97017
 20
-16.8492
 11
-6.214
 21
-17.0264
  0
LINE
  8
0
 10
-6.214
 20
-17.0264
 11
-6.47812
 21
-17.1716
  0
LINE
  8
0
 10
-6.47812
 20
-17.1716
 11
-6.75835
 21
-17.2825
  0
LINE
  8
0
 10
-6.75835
 20
-17.2825
 11
-7.05028
 21
-17.3575
  0
LINE
  8
0
 10
-7.05028
 20
-17.3575
 11
-7.34929
 21
-17.3953
  0
LINE
  8
0
 10
-7.34929
 20
-17.3953
 11
-7.6507
 21
-17.3953
  0
LINE
  8
0
 10
7.34929
 20
-17.3953
 11
7.05028
 21
-17.3575
  0
LINE
  8
0
 10
7.05028
 20
-17.3575
 11
6.75835
 21
-17.2825
  0
LINE
  8
0
 10
6.75835
 20
-17.2825
 11
6.47812
 21
-17.1716
  0
LINE
  8
0
 10
6.47812
 20
-17.1716
 11
6.214
 21
-17.0264
  0
LINE
  8
0
 10
6.214
 20
-17.0264
 11
5.97017
 21
-16.8492
  0
LINE
  8
0
 10
5.97017
 20
-16.8492
 11
5.75047
 21
-16.6429
  0
LINE
  8
0
 10
5.75047
 20
-16.6429
 11
5.55835
 21
-16.4107
  0
LINE
  8
0
 10
5.55835
 20
-16.4107
 11
5.39685
 21
-16.1562
  0
LINE
  8
0
 10
5.39685
 20
-16.1562
 11
5.26852
 21
-15.8835
  0
LINE
  8
0
 10
5.26852
 20
-15.8835
 11
5.1754
 21
-15.5968
  0
LINE
  8
0
 10
5.1754
 20
-15.5968
 11
5.11891
 21
-15.3008
  0
LINE
  8
0
 10
5.11891
 20
-15.3008
 11
5.09999
 21
-15
  0
LINE
  8
0
 10
5.09999
 20
-15
 11
5.11891
 21
-14.6992
  0
LINE
  8
0
 10
5.11891
 20
-14.6992
 11
5.1754
 21
-14.4031
  0
LINE
  8
0
 10
5.1754
 20
-14.4031
 11
5.26852
 21
-14.1165
  0
LINE
  8
0
 10
5.26852
 20
-14.1165
 11
5.39685
 21
-13.8438
  0
LINE
  8
0
 10
5.39685
 20
-13.8438
 11
5.55835
 21
-13.5893
  0
LINE
  8
0
 10
5.55835
 20
-13.5893
 11
5.75047
 21
-13.3571
  0
LINE
  8
0
 10
5.75047
 20
-13.3571
 11
5.97017
 21
-13.1508
  0
LINE
  8
0
 10
5.97017
 20
-13.1508
 11
6.214
 21
-12.9736
  0
LINE
  8
0
 10
6.214
 20
-12.9736
 11
6.47812
 21
-12.8284
  0
LINE
  8
0
 10
6.47812
 20
-12.8284
 11
6.75835
 21
-12.7175
  0
LINE
  8
0
 10
6.75835
 20
-12.7175
 11
7.05028
 21
-12.6425
  0
LINE
  8
0
 10
7.05028
 20
-12.6425
 11
7.34929
 21
-12.6047
  0
LINE
  8
0
 10
7.34929
 20
-12.6047
 11
7.6507
 21
-12.6047
  0
LINE
  8
0
 10
7.6507
 20
-12.6047
 11
7.94971
 21
-12.6425
  0
LINE
  8
0
 10
7.94971
 20
-12.6425
 11
8.24164
 21
-12.7175
  0
LINE
  8
0
 10
8.24164
 20
-12.7175
 11
8.52187
 21
-12.8284
  0
LINE
  8
0
 10
8.52187
 20
-12.8284
 11
8.78598
 21
-12.9736
  0
LINE
  8
0
 10
8.78598
 20
-12.9736
 11
9.02982
 21
-13.1508
  0
LINE
  8
0
 10
9.02982
 20
-13.1508
 11
9.24951
 21
-13.3571
  0
LINE
  8
0
 10
9.24951
 20
-13.3571
 11
9.44164
 21
-13.5893
  0
LINE
  8
0
 10
9.44164
 20
-13.5893
 11
9.60313
 21
-13.8438
  0
LINE
  8
0
 10
9.60313
 20
-13.8438
 11
9.73146
 21
-14.1165
  0
LINE
  8
0
 10
9.73146
 20
-14.1165
 11
9.82458
 21
-14.4031
  0
LINE
  8
0
 10
9.82458
 20
-14.4031
 11
9.88107
 21
-14.6992
  0
LINE
  8
0
 10
9.88107
 20
-14.6992
 11
9.89999
 21
-15
  0
LINE
  8
0
 10
9.89999
 20
-15
 11
9.88107
 21
-15.3008
  0
LINE
  8
0
 10
9.88107
 20
-15.3008
 11
9.82458
 21
-15.5968
  0
LINE
  8
0
 10
9.82458
 20
-15.5968
 11
9.73146
 21
-15.8835
  0
LINE
  8
0
 10
9.73146
 20
-15.8835
 11
9.60313
 21
-16.1562
  0
LINE
  8
0
 10
9.60313
 20
-16.1562
 11
9.44164
 21
-16.4107
  0
LINE
  8
0
 10
9.44164
 20
-16.4107
 11
9.24951
 21
-16.6429
  0
LINE
  8
0
 10
9.24951
 20
-16.6429
 11
9.02982
 21
-16.8492
  0
LINE
  8
0
 10
9.02982
 20
-16.8492
 11
8.78598
 21
-17.0264
  0
LINE
  8
0
 10
8.78598
 20
-17.0264
 11
8.52187
 21
-17.1716
  0
LINE
  8
0
 10
8.52187
 20
-17.1716
 11
8.24164
 21
-17.2825
  0
LINE
  8
0
 10
8.24164
 20
-17.2825
 11
7.94971
 21
-17.3575
  0
LINE
  8
0
 10
7.94971
 20
-17.3575
 11
7.6507
 21
-17.3953
  0
LINE
  8
0
 10
7.6507
 20
-17.3953
 11
7.34929
 21
-17.3953
  0
ENDSEC
  0
SECTION
  2
OBJECTS
  0
DICTIONARY
  0
ENDSEC
  0
EOF
