<?xml version="1.0" standalone="no"?>
<!DOCTYPE svg PUBLIC "-//W3C//DTD SVG 1.1//EN" "http://www.w3.org/Graphics/SVG/1.1/DTD/svg11.dtd">
<svg width="48mm" height="210mm" viewBox="-24 -186 48 210" xmlns="http://www.w3.org/2000/svg" version="1.1">
<title>OpenSCAD Model</title>
<path d="
M 19.8119,-138.214 L 20.4201,-138.37 L 21.0039,-138.601 L 21.5541,-138.903 L 22.0621,-139.272 L 22.5198,-139.702
 L 22.9201,-140.186 L 23.2565,-140.716 L 23.5239,-141.284 L 23.7179,-141.882 L 23.8356,-142.498 L 23.875,-143.125
 L 23.875,-180.875 L 23.8356,-181.502 L 23.7179,-182.118 L 23.5239,-182.716 L 23.2565,-183.284 L 22.9201,-183.814
 L 22.5198,-184.298 L 22.0621,-184.728 L 21.5541,-185.097 L 21.0039,-185.399 L 20.4201,-185.63 L 19.8119,-185.786
 L 19.1889,-185.865 L -19.1889,-185.865 L -19.8119,-185.786 L -20.4201,-185.63 L -21.0039,-185.399 L -21.5541,-185.097
 L -22.0621,-184.728 L -22.5198,-184.298 L -22.9201,-183.814 L -23.2565,-183.284 L -23.5239,-182.716 L -23.7179,-182.118
 L -23.8356,-181.502 L -23.875,-180.875 L -23.875,-143.125 L -23.8356,-142.498 L -23.7179,-141.882 L -23.5239,-141.284
 L -23.2565,-140.716 L -22.9201,-140.186 L -22.5198,-139.702 L -22.0621,-139.272 L -21.5541,-138.903 L -21.0039,-138.601
 L -20.4201,-138.37 L -19.8119,-138.214 L -19.1889,-138.135 L 19.1889,-138.135 z
M -0.150696,-177.605 L -0.449707,-177.643 L -0.741638,-177.717 L -1.02187,-177.828 L -1.28598,-177.974 L -1.52982,-178.151
 L -1.74951,-178.357 L -1.94164,-178.589 L -2.10313,-178.844 L -2.23146,-179.117 L -2.32458,-179.403 L -2.38107,-179.699
 L -2.39999,-180 L -2.38107,-180.301 L -2.32458,-180.597 L -2.23146,-180.883 L -2.10313,-181.156 L -1.94164,-181.411
 L -1.74951,-181.643 L -1.52982,-181.849 L -1.28598,-182.026 L -1.02187,-182.172 L -0.741638,-182.283 L -0.449707,-182.357
 L -0.150696,-182.395 L 0.150696,-182.395 L 0.449707,-182.357 L 0.741638,-182.283 L 1.02187,-182.172 L 1.28598,-182.026
 L 1.52982,-181.849 L 1.74951,-181.643 L 1.94164,-181.411 L 2.10313,-181.156 L 2.23146,-180.883 L 2.32458,-180.597
 L 2.38107,-180.301 L 2.39999,-180 L 2.38107,-179.699 L 2.32458,-179.403 L 2.23146,-179.117 L 2.10313,-178.844
 L 1.94164,-178.589 L 1.74951,-178.357 L 1.52982,-178.151 L 1.28598,-177.974 L 1.02187,-177.828 L 0.741638,-177.717
 L 0.449707,-177.643 L 0.150696,-177.605 z
M 14.8116,-174.006 L 14.4379,-174.053 L 14.0729,-174.147 L 13.7227,-174.286 L 13.3925,-174.467 L 13.0877,-174.688
 L 12.8131,-174.946 L 12.5729,-175.237 L 12.3711,-175.555 L 12.2107,-175.896 L 12.0942,-176.254 L 12.0237,-176.624
 L 12,-177 L 12.0237,-177.376 L 12.0942,-177.746 L 12.2107,-178.104 L 12.3711,-178.445 L 12.5729,-178.763
 L 12.8131,-179.054 L 13.0877,-179.312 L 13.3925,-179.533 L 13.7227,-179.714 L 14.0729,-179.853 L 14.4379,-179.947
 L 14.8116,-179.994 L 15.1884,-179.994 L 15.5621,-179.947 L 15.927,-179.853 L 16.2773,-179.714 L 16.6075,-179.533
 L 16.9123,-179.312 L 17.1869,-179.054 L 17.427,-178.763 L 17.6289,-178.445 L 17.7893,-178.104 L 17.9057,-177.746
 L 17.9763,-177.376 L 18,-177 L 17.9763,-176.624 L 17.9057,-176.254 L 17.7893,-175.896 L 17.6289,-175.555
 L 17.427,-175.237 L 17.1869,-174.946 L 16.9123,-174.688 L 16.6075,-174.467 L 16.2773,-174.286 L 15.927,-174.147
 L 15.5621,-174.053 L 15.1884,-174.006 z
M -15.1884,-174.006 L -15.5621,-174.053 L -15.927,-174.147 L -16.2773,-174.286 L -16.6075,-174.467 L -16.9123,-174.688
 L -17.1869,-174.946 L -17.427,-175.237 L -17.6289,-175.555 L -17.7893,-175.896 L -17.9057,-176.254 L -17.9763,-176.624
 L -18,-177 L -17.9763,-177.376 L -17.9057,-177.746 L -17.7893,-178.104 L -17.6289,-178.445 L -17.427,-178.763
 L -17.1869,-179.054 L -16.9123,-179.312 L -16.6075,-179.533 L -16.2773,-179.714 L -15.927,-179.853 L -15.5621,-179.947
 L -15.1884,-179.994 L -14.8116,-179.994 L -14.4379,-179.947 L -14.0729,-179.853 L -13.7227,-179.714 L -13.3925,-179.533
 L -13.0877,-179.312 L -12.8131,-179.054 L -12.5729,-178.763 L -12.3711,-178.445 L -12.2107,-178.104 L -12.0942,-177.746
 L -12.0237,-177.376 L -12,-177 L -12.0237,-176.624 L -12.0942,-176.254 L -12.2107,-175.896 L -12.3711,-175.555
 L -12.5729,-175.237 L -12.8131,-174.946 L -13.0877,-174.688 L -13.3925,-174.467 L -13.7227,-174.286 L -14.0729,-174.147
 L -14.4379,-174.053 L -14.8116,-174.006 z
M -0.847672,-148.527 L -2.52963,-148.739 L -4.17172,-149.161 L -5.74802,-149.785 L -7.23366,-150.602 L -8.60521,-151.598
 L -9.84106,-152.759 L -10.9217,-154.065 L -11.8301,-155.496 L -12.552,-157.03 L -13.0759,-158.643 L -13.3935,-160.308
 L -13.5,-162 L -13.3935,-163.692 L -13.0759,-165.357 L -12.552,-166.97 L -11.8301,-168.504 L -10.9217,-169.935
 L -9.84106,-171.241 L -8.60521,-172.402 L -7.23366,-173.398 L -5.74802,-174.215 L -4.17172,-174.839 L -2.52963,-175.261
 L -0.847672,-175.473 L 0.847672,-175.473 L 2.52963,-175.261 L 4.17172,-174.839 L 5.74802,-174.215 L 7.23366,-173.398
 L 8.60521,-172.402 L 9.84106,-171.241 L 10.9217,-169.935 L 11.8301,-168.504 L 12.552,-166.97 L 13.0759,-165.357
 L 13.3935,-163.692 L 13.5,-162 L 13.3935,-160.308 L 13.0759,-158.643 L 12.552,-157.03 L 11.8301,-155.496
 L 10.9217,-154.065 L 9.84106,-152.759 L 8.60521,-151.598 L 7.23366,-150.602 L 5.74802,-149.785 L 4.17172,-149.161
 L 2.52963,-148.739 L 0.847672,-148.527 z
M 2.34225,-149.721 L 3.8627,-150.112 L 5.32224,-150.69 L 6.69783,-151.446 L 7.96779,-152.369 L 9.11211,-153.443
 L 10.1127,-154.653 L 10.9538,-155.978 L 11.6222,-157.398 L 12.1073,-158.891 L 12.4014,-160.433 L 12.5,-162
 L 12.4014,-163.567 L 12.1073,-165.109 L 11.6222,-166.602 L 10.9538,-168.022 L 10.1127,-169.347 L 9.11211,-170.557
 L 7.96779,-171.631 L 6.69783,-172.554 L 5.32224,-173.31 L 3.8627,-173.888 L 2.34225,-174.279 L 0.784866,-174.475
 L -0.784866,-174.475 L -2.34225,-174.279 L -3.8627,-173.888 L -5.32224,-173.31 L -6.69783,-172.554 L -7.96779,-171.631
 L -9.11211,-170.557 L -10.1127,-169.347 L -10.9538,-168.022 L -11.6222,-166.602 L -12.1073,-165.109 L -12.4014,-163.567
 L -12.5,-162 L -12.4014,-160.433 L -12.1073,-158.891 L -11.6222,-157.398 L -10.9538,-155.978 L -10.1127,-154.653
 L -9.11211,-153.443 L -7.96779,-152.369 L -6.69783,-151.446 L -5.32224,-150.69 L -3.8627,-150.112 L -2.34225,-149.721
 L -0.784866,-149.525 L 0.784866,-149.525 z
M -0.150696,-166.105 L -0.449707,-166.143 L -0.741638,-166.217 L -1.02187,-166.328 L -1.28598,-166.474 L -1.52982,-166.651
 L -1.74951,-166.857 L -1.94164,-167.089 L -2.10313,-167.344 L -2.23146,-167.617 L -2.32458,-167.903 L -2.38107,-168.199
 L -2.39999,-168.5 L -2.38107,-168.801 L -2.32458,-169.097 L -2.23146,-169.383 L -2.10313,-169.656 L -1.94164,-169.911
 L -1.74951,-170.143 L -1.52982,-170.349 L -1.28598,-170.526 L -1.02187,-170.672 L -0.741638,-170.783 L -0.449707,-170.857
 L -0.150696,-170.895 L 0.150696,-170.895 L 0.449707,-170.857 L 0.741638,-170.783 L 1.02187,-170.672 L 1.28598,-170.526
 L 1.52982,-170.349 L 1.74951,-170.143 L 1.94164,-169.911 L 2.10313,-169.656 L 2.23146,-169.383 L 2.32458,-169.097
 L 2.38107,-168.801 L 2.39999,-168.5 L 2.38107,-168.199 L 2.32458,-167.903 L 2.23146,-167.617 L 2.10313,-167.344
 L 1.94164,-167.089 L 1.74951,-166.857 L 1.52982,-166.651 L 1.28598,-166.474 L 1.02187,-166.328 L 0.741638,-166.217
 L 0.449707,-166.143 L 0.150696,-166.105 z
M -0.18837,-159.006 L -0.562134,-159.053 L -0.927048,-159.147 L -1.27733,-159.286 L -1.60747,-159.467 L -1.91226,-159.688
 L -2.1869,-159.946 L -2.42705,-160.237 L -2.62891,-160.555 L -2.78932,-160.896 L -2.90575,-161.254 L -2.97633,-161.624
 L -3,-162 L -2.97633,-162.376 L -2.90575,-162.746 L -2.78932,-163.104 L -2.62891,-163.445 L -2.42705,-163.763
 L -2.1869,-164.054 L -1.91226,-164.312 L -1.60747,-164.533 L -1.27733,-164.714 L -0.927048,-164.853 L -0.562134,-164.947
 L -0.18837,-164.994 L 0.18837,-164.994 L 0.562134,-164.947 L 0.927048,-164.853 L 1.27733,-164.714 L 1.60747,-164.533
 L 1.91226,-164.312 L 2.1869,-164.054 L 2.42705,-163.763 L 2.62891,-163.445 L 2.78932,-163.104 L 2.90575,-162.746
 L 2.97633,-162.376 L 3,-162 L 2.97633,-161.624 L 2.90575,-161.254 L 2.78932,-160.896 L 2.62891,-160.555
 L 2.42705,-160.237 L 2.1869,-159.946 L 1.91226,-159.688 L 1.60747,-159.467 L 1.27733,-159.286 L 0.927048,-159.147
 L 0.562134,-159.053 L 0.18837,-159.006 z
M 7.40581,-160.503 L 7.21892,-160.527 L 7.03647,-160.573 L 6.86133,-160.643 L 6.69626,-160.734 L 6.54385,-160.844
 L 6.40654,-160.973 L 6.28647,-161.118 L 6.18553,-161.277 L 6.10533,-161.448 L 6.04712,-161.627 L 6.01183,-161.812
 L 6,-162 L 6.01183,-162.188 L 6.04712,-162.373 L 6.10533,-162.552 L 6.18553,-162.723 L 6.28647,-162.882
 L 6.40654,-163.027 L 6.54385,-163.156 L 6.69626,-163.266 L 6.86133,-163.357 L 7.03647,-163.427 L 7.21892,-163.473
 L 7.40581,-163.497 L 8.09418,-163.497 L 8.28107,-163.473 L 8.46352,-163.427 L 8.63866,-163.357 L 8.80373,-163.266
 L 8.95613,-163.156 L 9.09344,-163.027 L 9.21352,-162.882 L 9.31445,-162.723 L 9.39465,-162.552 L 9.45287,-162.373
 L 9.48816,-162.188 L 9.5,-162 L 9.48816,-161.812 L 9.45287,-161.627 L 9.39465,-161.448 L 9.31445,-161.277
 L 9.21352,-161.118 L 9.09344,-160.973 L 8.95613,-160.844 L 8.80373,-160.734 L 8.63866,-160.643 L 8.46352,-160.573
 L 8.28107,-160.527 L 8.09418,-160.503 z
M -8.09418,-160.503 L -8.28107,-160.527 L -8.46352,-160.573 L -8.63866,-160.643 L -8.80373,-160.734 L -8.95613,-160.844
 L -9.09344,-160.973 L -9.21352,-161.118 L -9.31445,-161.277 L -9.39465,-161.448 L -9.45287,-161.627 L -9.48816,-161.812
 L -9.5,-162 L -9.48816,-162.188 L -9.45287,-162.373 L -9.39465,-162.552 L -9.31445,-162.723 L -9.21352,-162.882
 L -9.09344,-163.027 L -8.95613,-163.156 L -8.80373,-163.266 L -8.63866,-163.357 L -8.46352,-163.427 L -8.28107,-163.473
 L -8.09418,-163.497 L -7.40581,-163.497 L -7.21892,-163.473 L -7.03647,-163.427 L -6.86133,-163.357 L -6.69626,-163.266
 L -6.54385,-163.156 L -6.40654,-163.027 L -6.28647,-162.882 L -6.18553,-162.723 L -6.10533,-162.552 L -6.04712,-162.373
 L -6.01183,-162.188 L -6,-162 L -6.01183,-161.812 L -6.04712,-161.627 L -6.10533,-161.448 L -6.18553,-161.277
 L -6.28647,-161.118 L -6.40654,-160.973 L -6.54385,-160.844 L -6.69626,-160.734 L -6.86133,-160.643 L -7.03647,-160.573
 L -7.21892,-160.527 L -7.40581,-160.503 z
M -0.150696,-153.105 L -0.449707,-153.143 L -0.741638,-153.217 L -1.02187,-153.328 L -1.28598,-153.474 L -1.52982,-153.651
 L -1.74951,-153.857 L -1.94164,-154.089 L -2.10313,-154.344 L -2.23146,-154.617 L -2.32458,-154.903 L -2.38107,-155.199
 L -2.39999,-155.5 L -2.38107,-155.801 L -2.32458,-156.097 L -2.23146,-156.383 L -2.10313,-156.656 L -1.94164,-156.911
 L -1.74951,-157.143 L -1.52982,-157.349 L -1.28598,-157.526 L -1.02187,-157.672 L -0.741638,-157.783 L -0.449707,-157.857
 L -0.150696,-157.895 L 0.150696,-157.895 L 0.449707,-157.857 L 0.741638,-157.783 L 1.02187,-157.672 L 1.28598,-157.526
 L 1.52982,-157.349 L 1.74951,-157.143 L 1.94164,-156.911 L 2.10313,-156.656 L 2.23146,-156.383 L 2.32458,-156.097
 L 2.38107,-155.801 L 2.39999,-155.5 L 2.38107,-155.199 L 2.32458,-154.903 L 2.23146,-154.617 L 2.10313,-154.344
 L 1.94164,-154.089 L 1.74951,-153.857 L 1.52982,-153.651 L 1.28598,-153.474 L 1.02187,-153.328 L 0.741638,-153.217
 L 0.449707,-153.143 L 0.150696,-153.105 z
M 17.5997,-159.634 L 17.3063,-159.702 L 17.0238,-159.807 L 16.7567,-159.947 L 16.5092,-160.119 L 16.2853,-160.321
 L 16.0883,-160.549 L 15.9215,-160.8 L 15.7875,-161.07 L 15.6884,-161.355 L 15.6257,-161.649 L 15.6005,-161.95
 L 15.6131,-162.251 L 15.6634,-162.548 L 15.7505,-162.837 L 15.8731,-163.112 L 16.0292,-163.37 L 16.2164,-163.606
 L 16.4318,-163.817 L 16.6719,-163.999 L 16.9329,-164.15 L 17.2107,-164.266 L 17.501,-164.348 L 17.7992,-164.392
 L 18.1005,-164.398 L 18.4002,-164.366 L 18.6937,-164.298 L 18.9762,-164.193 L 19.2433,-164.053 L 19.4908,-163.881
 L 19.7147,-163.679 L 19.9117,-163.451 L 20.0785,-163.2 L 20.2125,-162.93 L 20.3116,-162.645 L 20.3743,-162.351
 L 20.3995,-162.05 L 20.3868,-161.749 L 20.3366,-161.452 L 20.2495,-161.163 L 20.1269,-160.888 L 19.9707,-160.63
 L 19.7835,-160.394 L 19.5682,-160.183 L 19.3281,-160.001 L 19.0671,-159.85 L 18.7893,-159.734 L 18.499,-159.652
 L 18.2008,-159.608 L 17.8995,-159.602 z
M -18.1507,-159.605 L -18.4497,-159.643 L -18.7416,-159.717 L -19.0219,-159.828 L -19.286,-159.974 L -19.5298,-160.151
 L -19.7495,-160.357 L -19.9416,-160.589 L -20.1031,-160.844 L -20.2315,-161.117 L -20.3246,-161.403 L -20.3811,-161.699
 L -20.4,-162 L -20.3811,-162.301 L -20.3246,-162.597 L -20.2315,-162.883 L -20.1031,-163.156 L -19.9416,-163.411
 L -19.7495,-163.643 L -19.5298,-163.849 L -19.286,-164.026 L -19.0219,-164.172 L -18.7416,-164.283 L -18.4497,-164.357
 L -18.1507,-164.395 L -17.8493,-164.395 L -17.5503,-164.357 L -17.2583,-164.283 L -16.9781,-164.172 L -16.714,-164.026
 L -16.4702,-163.849 L -16.2505,-163.643 L -16.0583,-163.411 L -15.8969,-163.156 L -15.7685,-162.883 L -15.6754,-162.597
 L -15.6189,-162.301 L -15.6,-162 L -15.6189,-161.699 L -15.6754,-161.403 L -15.7685,-161.117 L -15.8969,-160.844
 L -16.0583,-160.589 L -16.2505,-160.357 L -16.4702,-160.151 L -16.714,-159.974 L -16.9781,-159.828 L -17.2583,-159.717
 L -17.5503,-159.643 L -17.8493,-159.605 z
M -15.1884,-144.006 L -15.5621,-144.053 L -15.927,-144.147 L -16.2773,-144.286 L -16.6075,-144.467 L -16.9123,-144.688
 L -17.1869,-144.946 L -17.427,-145.237 L -17.6289,-145.555 L -17.7893,-145.896 L -17.9057,-146.254 L -17.9763,-146.624
 L -18,-147 L -17.9763,-147.376 L -17.9057,-147.746 L -17.7893,-148.104 L -17.6289,-148.445 L -17.427,-148.763
 L -17.1869,-149.054 L -16.9123,-149.312 L -16.6075,-149.533 L -16.2773,-149.714 L -15.927,-149.853 L -15.5621,-149.947
 L -15.1884,-149.994 L -14.8116,-149.994 L -14.4379,-149.947 L -14.0729,-149.853 L -13.7227,-149.714 L -13.3925,-149.533
 L -13.0877,-149.312 L -12.8131,-149.054 L -12.5729,-148.763 L -12.3711,-148.445 L -12.2107,-148.104 L -12.0942,-147.746
 L -12.0237,-147.376 L -12,-147 L -12.0237,-146.624 L -12.0942,-146.254 L -12.2107,-145.896 L -12.3711,-145.555
 L -12.5729,-145.237 L -12.8131,-144.946 L -13.0877,-144.688 L -13.3925,-144.467 L -13.7227,-144.286 L -14.0729,-144.147
 L -14.4379,-144.053 L -14.8116,-144.006 z
M 14.8116,-144.006 L 14.4379,-144.053 L 14.0729,-144.147 L 13.7227,-144.286 L 13.3925,-144.467 L 13.0877,-144.688
 L 12.8131,-144.946 L 12.5729,-145.237 L 12.3711,-145.555 L 12.2107,-145.896 L 12.0942,-146.254 L 12.0237,-146.624
 L 12,-147 L 12.0237,-147.376 L 12.0942,-147.746 L 12.2107,-148.104 L 12.3711,-148.445 L 12.5729,-148.763
 L 12.8131,-149.054 L 13.0877,-149.312 L 13.3925,-149.533 L 13.7227,-149.714 L 14.0729,-149.853 L 14.4379,-149.947
 L 14.8116,-149.994 L 15.1884,-149.994 L 15.5621,-149.947 L 15.927,-149.853 L 16.2773,-149.714 L 16.6075,-149.533
 L 16.9123,-149.312 L 17.1869,-149.054 L 17.427,-148.763 L 17.6289,-148.445 L 17.7893,-148.104 L 17.9057,-147.746
 L 17.9763,-147.376 L 18,-147 L 17.9763,-146.624 L 17.9057,-146.254 L 17.7893,-145.896 L 17.6289,-145.555
 L 17.427,-145.237 L 17.1869,-144.946 L 16.9123,-144.688 L 16.6075,-144.467 L 16.2773,-144.286 L 15.927,-144.147
 L 15.5621,-144.053 L 15.1884,-144.006 z
M -0.400238,-141.634 L -0.693665,-141.702 L -0.976166,-141.807 L -1.24326,-141.947 L -1.49075,-142.119 L -1.71472,-142.321
 L -1.91167,-142.549 L -2.07846,-142.8 L -2.21246,-143.07 L -2.31158,-143.355 L -2.37425,-143.649 L -2.39946,-143.95
 L -2.38684,-144.251 L -2.33658,-144.548 L -2.24947,-144.837 L -2.12688,-145.112 L -1.97075,-145.37 L -1.78354,-145.606
 L -1.56821,-145.817 L -1.32812,-145.999 L -1.06712,-146.15 L -0.789276,-146.267 L -0.498978,-146.348 L -0.200821,-146.392
 L 0.100494,-146.398 L 0.400238,-146.366 L 0.693665,-146.298 L 0.976166,-146.193 L 1.24326,-146.053 L 1.49075,-145.881
 L 1.71472,-145.679 L 1.91167,-145.451 L 2.07846,-145.2 L 2.21246,-144.93 L 2.31158,-144.645 L 2.37425,-144.351
 L 2.39946,-144.05 L 2.38684,-143.749 L 2.33658,-143.452 L 2.24947,-143.163 L 2.12688,-142.888 L 1.97075,-142.63
 L 1.78354,-142.394 L 1.56821,-142.183 L 1.32812,-142.001 L 1.06712,-141.85 L 0.789276,-141.734 L 0.498978,-141.652
 L 0.200821,-141.608 L -0.100494,-141.602 z
M 19.8119,-84.2136 L 20.4201,-84.3697 L 21.0039,-84.6009 L 21.5541,-84.9034 L 22.0621,-85.2724 L 22.5198,-85.7023
 L 22.9201,-86.1861 L 23.2565,-86.7162 L 23.5239,-87.2844 L 23.7179,-87.8816 L 23.8356,-88.4983 L 23.875,-89.125
 L 23.875,-126.875 L 23.8356,-127.502 L 23.7179,-128.118 L 23.5239,-128.716 L 23.2565,-129.284 L 22.9201,-129.814
 L 22.5198,-130.298 L 22.0621,-130.728 L 21.5541,-131.097 L 21.0039,-131.399 L 20.4201,-131.63 L 19.8119,-131.786
 L 19.1889,-131.865 L -19.1889,-131.865 L -19.8119,-131.786 L -20.4201,-131.63 L -21.0039,-131.399 L -21.5541,-131.097
 L -22.0621,-130.728 L -22.5198,-130.298 L -22.9201,-129.814 L -23.2565,-129.284 L -23.5239,-128.716 L -23.7179,-128.118
 L -23.8356,-127.502 L -23.875,-126.875 L -23.875,-89.125 L -23.8356,-88.4983 L -23.7179,-87.8816 L -23.5239,-87.2844
 L -23.2565,-86.7162 L -22.9201,-86.1861 L -22.5198,-85.7023 L -22.0621,-85.2724 L -21.5541,-84.9034 L -21.0039,-84.6009
 L -20.4201,-84.3697 L -19.8119,-84.2136 L -19.1889,-84.1349 L 19.1889,-84.1349 z
M -0.0941772,-124.503 L -0.281067,-124.527 L -0.463516,-124.573 L -0.638657,-124.643 L -0.803726,-124.734 L -0.956131,-124.844
 L -1.09344,-124.973 L -1.21352,-125.118 L -1.31445,-125.277 L -1.39465,-125.448 L -1.45287,-125.627 L -1.48816,-125.812
 L -1.5,-126 L -1.48816,-126.188 L -1.45287,-126.373 L -1.39465,-126.552 L -1.31445,-126.723 L -1.21352,-126.882
 L -1.09344,-127.027 L -0.956131,-127.156 L -0.803726,-127.266 L -0.638657,-127.357 L -0.463516,-127.427 L -0.281067,-127.473
 L -0.0941772,-127.497 L 0.0941772,-127.497 L 0.281067,-127.473 L 0.463516,-127.427 L 0.638657,-127.357 L 0.803726,-127.266
 L 0.956131,-127.156 L 1.09344,-127.027 L 1.21352,-126.882 L 1.31445,-126.723 L 1.39465,-126.552 L 1.45287,-126.373
 L 1.48816,-126.188 L 1.5,-126 L 1.48816,-125.812 L 1.45287,-125.627 L 1.39465,-125.448 L 1.31445,-125.277
 L 1.21352,-125.118 L 1.09344,-124.973 L 0.956131,-124.844 L 0.803726,-124.734 L 0.638657,-124.643 L 0.463516,-124.573
 L 0.281067,-124.527 L 0.0941772,-124.503 z
M -15.1884,-120.006 L -15.5621,-120.053 L -15.927,-120.147 L -16.2773,-120.286 L -16.6075,-120.467 L -16.9123,-120.688
 L -17.1869,-120.946 L -17.427,-121.237 L -17.6289,-121.555 L -17.7893,-121.896 L -17.9057,-122.254 L -17.9763,-122.624
 L -18,-123 L -17.9763,-123.376 L -17.9057,-123.746 L -17.7893,-124.104 L -17.6289,-124.445 L -17.427,-124.763
 L -17.1869,-125.054 L -16.9123,-125.312 L -16.6075,-125.533 L -16.2773,-125.714 L -15.927,-125.853 L -15.5621,-125.947
 L -15.1884,-125.994 L -14.8116,-125.994 L -14.4379,-125.947 L -14.0729,-125.853 L -13.7227,-125.714 L -13.3925,-125.533
 L -13.0877,-125.312 L -12.8131,-125.054 L -12.5729,-124.763 L -12.3711,-124.445 L -12.2107,-124.104 L -12.0942,-123.746
 L -12.0237,-123.376 L -12,-123 L -12.0237,-122.624 L -12.0942,-122.254 L -12.2107,-121.896 L -12.3711,-121.555
 L -12.5729,-121.237 L -12.8131,-120.946 L -13.0877,-120.688 L -13.3925,-120.467 L -13.7227,-120.286 L -14.0729,-120.147
 L -14.4379,-120.053 L -14.8116,-120.006 z
M 14.8116,-120.006 L 14.4379,-120.053 L 14.0729,-120.147 L 13.7227,-120.286 L 13.3925,-120.467 L 13.0877,-120.688
 L 12.8131,-120.946 L 12.5729,-121.237 L 12.3711,-121.555 L 12.2107,-121.896 L 12.0942,-122.254 L 12.0237,-122.624
 L 12,-123 L 12.0237,-123.376 L 12.0942,-123.746 L 12.2107,-124.104 L 12.3711,-124.445 L 12.5729,-124.763
 L 12.8131,-125.054 L 13.0877,-125.312 L 13.3925,-125.533 L 13.7227,-125.714 L 14.0729,-125.853 L 14.4379,-125.947
 L 14.8116,-125.994 L 15.1884,-125.994 L 15.5621,-125.947 L 15.927,-125.853 L 16.2773,-125.714 L 16.6075,-125.533
 L 16.9123,-125.312 L 17.1869,-125.054 L 17.427,-124.763 L 17.6289,-124.445 L 17.7893,-124.104 L 17.9057,-123.746
 L 17.9763,-123.376 L 18,-123 L 17.9763,-122.624 L 17.9057,-122.254 L 17.7893,-121.896 L 17.6289,-121.555
 L 17.427,-121.237 L 17.1869,-120.946 L 16.9123,-120.688 L 16.6075,-120.467 L 16.2773,-120.286 L 15.927,-120.147
 L 15.5621,-120.053 L 15.1884,-120.006 z
M -1.00464,-92.0316 L -2.99809,-92.2834 L -4.94426,-92.7831 L -6.81245,-93.5228 L -8.57323,-94.4908 L -10.1988,-95.6718
 L -11.6635,-97.0473 L -12.9443,-98.5954 L -14.0209,-100.292 L -14.8764,-102.11 L -15.4973,-104.021 L -15.8583,-105.913
 L -16.3267,-105.102 L -19.6733,-105.102 L -21.3466,-108 L -19.6733,-110.898 L -16.3267,-110.898 L -15.8583,-110.087
 L -15.4973,-111.979 L -14.8764,-113.89 L -14.0209,-115.708 L -12.9443,-117.405 L -11.6635,-118.953 L -10.1988,-120.328
 L -8.57323,-121.509 L -6.81245,-122.477 L -4.94426,-123.217 L -2.99809,-123.717 L -1.00464,-123.968 L 1.00464,-123.968
 L 2.99809,-123.717 L 4.94426,-123.217 L 6.81245,-122.477 L 8.57323,-121.509 L 10.1988,-120.328 L 11.6635,-118.953
 L 12.9443,-117.405 L 14.0209,-115.708 L 14.8764,-113.89 L 15.4973,-111.979 L 15.8583,-110.087 L 16.3267,-110.898
 L 19.6733,-110.898 L 21.3466,-108 L 19.6733,-105.102 L 16.3267,-105.102 L 15.8583,-105.913 L 15.4973,-104.021
 L 14.8764,-102.11 L 14.0209,-100.292 L 12.9443,-98.5954 L 11.6635,-97.0473 L 10.1988,-95.6718 L 8.57323,-94.4908
 L 6.81245,-93.5228 L 4.94426,-92.7831 L 2.99809,-92.2834 L 1.00464,-92.0316 z
M 1.87381,-98.1771 L 3.09016,-98.4894 L 4.25778,-98.9517 L 5.35826,-99.5567 L 6.37424,-100.295 L 7.28967,-101.155
 L 8.09016,-102.122 L 8.76306,-103.182 L 9.29776,-104.319 L 9.68582,-105.513 L 9.92114,-106.747 L 10,-108
 L 9.92114,-109.253 L 9.68582,-110.487 L 9.29776,-111.681 L 8.76306,-112.818 L 8.09016,-113.878 L 7.28967,-114.845
 L 6.37424,-115.705 L 5.35826,-116.443 L 4.25778,-117.048 L 3.09016,-117.511 L 1.87381,-117.823 L 0.627899,-117.98
 L -0.627899,-117.98 L -1.87381,-117.823 L -3.09016,-117.511 L -4.25778,-117.048 L -5.35826,-116.443 L -6.37424,-115.705
 L -7.28967,-114.845 L -8.09016,-113.878 L -8.76306,-112.818 L -9.29776,-111.681 L -9.68582,-110.487 L -9.92114,-109.253
 L -10,-108 L -9.92114,-106.747 L -9.68582,-105.513 L -9.29776,-104.319 L -8.76306,-103.182 L -8.09016,-102.122
 L -7.28967,-101.155 L -6.37424,-100.295 L -5.35826,-99.5567 L -4.25778,-98.9517 L -3.09016,-98.4894 L -1.87381,-98.1771
 L -0.627899,-98.0197 L 0.627899,-98.0197 z
M -1.67329,-111.602 L -3.34659,-114.5 L -1.67329,-117.398 L 1.67329,-117.398 L 3.34659,-114.5 L 1.67329,-111.602
 z
M -0.18837,-105.006 L -0.562134,-105.053 L -0.927048,-105.147 L -1.27733,-105.286 L -1.60747,-105.467 L -1.91226,-105.688
 L -2.1869,-105.946 L -2.42705,-106.237 L -2.62891,-106.555 L -2.78932,-106.896 L -2.90575,-107.254 L -2.97633,-107.624
 L -3,-108 L -2.97633,-108.376 L -2.90575,-108.746 L -2.78932,-109.104 L -2.62891,-109.445 L -2.42705,-109.763
 L -2.1869,-110.054 L -1.91226,-110.312 L -1.60747,-110.533 L -1.27733,-110.714 L -0.927048,-110.853 L -0.562134,-110.947
 L -0.18837,-110.994 L 0.18837,-110.994 L 0.562134,-110.947 L 0.927048,-110.853 L 1.27733,-110.714 L 1.60747,-110.533
 L 1.91226,-110.312 L 2.1869,-110.054 L 2.42705,-109.763 L 2.62891,-109.445 L 2.78932,-109.104 L 2.90575,-108.746
 L 2.97633,-108.376 L 3,-108 L 2.97633,-107.624 L 2.90575,-107.254 L 2.78932,-106.896 L 2.62891,-106.555
 L 2.42705,-106.237 L 2.1869,-105.946 L 1.91226,-105.688 L 1.60747,-105.467 L 1.27733,-105.286 L 0.927048,-105.147
 L 0.562134,-105.053 L 0.18837,-105.006 z
M -8.09418,-106.503 L -8.28107,-106.527 L -8.46352,-106.573 L -8.63866,-106.643 L -8.80373,-106.734 L -8.95613,-106.844
 L -9.09344,-106.973 L -9.21352,-107.118 L -9.31445,-107.277 L -9.39465,-107.448 L -9.45287,-107.627 L -9.48816,-107.812
 L -9.5,-108 L -9.48816,-108.188 L -9.45287,-108.373 L -9.39465,-108.552 L -9.31445,-108.723 L -9.21352,-108.882
 L -9.09344,-109.027 L -8.95613,-109.156 L -8.80373,-109.266 L -8.63866,-109.357 L -8.46352,-109.427 L -8.28107,-109.473
 L -8.09418,-109.497 L -7.40581,-109.497 L -7.21892,-109.473 L -7.03647,-109.427 L -6.86133,-109.357 L -6.69626,-109.266
 L -6.54385,-109.156 L -6.40654,-109.027 L -6.28647,-108.882 L -6.18553,-108.723 L -6.10533,-108.552 L -6.04712,-108.373
 L -6.01183,-108.188 L -6,-108 L -6.01183,-107.812 L -6.04712,-107.627 L -6.10533,-107.448 L -6.18553,-107.277
 L -6.28647,-107.118 L -6.40654,-106.973 L -6.54385,-106.844 L -6.69626,-106.734 L -6.86133,-106.643 L -7.03647,-106.573
 L -7.21892,-106.527 L -7.40581,-106.503 z
M 7.40581,-106.503 L 7.21892,-106.527 L 7.03647,-106.573 L 6.86133,-106.643 L 6.69626,-106.734 L 6.54385,-106.844
 L 6.40654,-106.973 L 6.28647,-107.118 L 6.18553,-107.277 L 6.10533,-107.448 L 6.04712,-107.627 L 6.01183,-107.812
 L 6,-108 L 6.01183,-108.188 L 6.04712,-108.373 L 6.10533,-108.552 L 6.18553,-108.723 L 6.28647,-108.882
 L 6.40654,-109.027 L 6.54385,-109.156 L 6.69626,-109.266 L 6.86133,-109.357 L 7.03647,-109.427 L 7.21892,-109.473
 L 7.40581,-109.497 L 8.09418,-109.497 L 8.28107,-109.473 L 8.46352,-109.427 L 8.63866,-109.357 L 8.80373,-109.266
 L 8.95613,-109.156 L 9.09344,-109.027 L 9.21352,-108.882 L 9.31445,-108.723 L 9.39465,-108.552 L 9.45287,-108.373
 L 9.48816,-108.188 L 9.5,-108 L 9.48816,-107.812 L 9.45287,-107.627 L 9.39465,-107.448 L 9.31445,-107.277
 L 9.21352,-107.118 L 9.09344,-106.973 L 8.95613,-106.844 L 8.80373,-106.734 L 8.63866,-106.643 L 8.46352,-106.573
 L 8.28107,-106.527 L 8.09418,-106.503 z
M -1.67329,-98.6018 L -3.34659,-101.5 L -1.67329,-104.398 L 1.67329,-104.398 L 3.34659,-101.5 L 1.67329,-98.6018
 z
M -15.1884,-90.0059 L -15.5621,-90.0531 L -15.927,-90.1468 L -16.2773,-90.2855 L -16.6075,-90.467 L -16.9123,-90.6885
 L -17.1869,-90.9464 L -17.427,-91.2366 L -17.6289,-91.5547 L -17.7893,-91.8956 L -17.9057,-92.2539 L -17.9763,-92.624
 L -18,-93 L -17.9763,-93.376 L -17.9057,-93.7461 L -17.7893,-94.1044 L -17.6289,-94.4453 L -17.427,-94.7634
 L -17.1869,-95.0536 L -16.9123,-95.3116 L -16.6075,-95.533 L -16.2773,-95.7145 L -15.927,-95.8532 L -15.5621,-95.9469
 L -15.1884,-95.9941 L -14.8116,-95.9941 L -14.4379,-95.9469 L -14.0729,-95.8532 L -13.7227,-95.7145 L -13.3925,-95.533
 L -13.0877,-95.3116 L -12.8131,-95.0536 L -12.5729,-94.7634 L -12.3711,-94.4453 L -12.2107,-94.1044 L -12.0942,-93.7461
 L -12.0237,-93.376 L -12,-93 L -12.0237,-92.624 L -12.0942,-92.2539 L -12.2107,-91.8956 L -12.3711,-91.5547
 L -12.5729,-91.2366 L -12.8131,-90.9464 L -13.0877,-90.6885 L -13.3925,-90.467 L -13.7227,-90.2855 L -14.0729,-90.1468
 L -14.4379,-90.0531 L -14.8116,-90.0059 z
M 14.8116,-90.0059 L 14.4379,-90.0531 L 14.0729,-90.1468 L 13.7227,-90.2855 L 13.3925,-90.467 L 13.0877,-90.6885
 L 12.8131,-90.9464 L 12.5729,-91.2366 L 12.3711,-91.5547 L 12.2107,-91.8956 L 12.0942,-92.2539 L 12.0237,-92.624
 L 12,-93 L 12.0237,-93.376 L 12.0942,-93.7461 L 12.2107,-94.1044 L 12.3711,-94.4453 L 12.5729,-94.7634
 L 12.8131,-95.0536 L 13.0877,-95.3116 L 13.3925,-95.533 L 13.7227,-95.7145 L 14.0729,-95.8532 L 14.4379,-95.9469
 L 14.8116,-95.9941 L 15.1884,-95.9941 L 15.5621,-95.9469 L 15.927,-95.8532 L 16.2773,-95.7145 L 16.6075,-95.533
 L 16.9123,-95.3116 L 17.1869,-95.0536 L 17.427,-94.7634 L 17.6289,-94.4453 L 17.7893,-94.1044 L 17.9057,-93.7461
 L 17.9763,-93.376 L 18,-93 L 17.9763,-92.624 L 17.9057,-92.2539 L 17.7893,-91.8956 L 17.6289,-91.5547
 L 17.427,-91.2366 L 17.1869,-90.9464 L 16.9123,-90.6885 L 16.6075,-90.467 L 16.2773,-90.2855 L 15.927,-90.1468
 L 15.5621,-90.0531 L 15.1884,-90.0059 z
M -0.250153,-88.521 L -0.433533,-88.564 L -0.610092,-88.6297 L -0.777039,-88.717 L -0.931717,-88.8245 L -1.0717,-88.9505
 L -1.19479,-89.0931 L -1.29903,-89.25 L -1.38278,-89.4187 L -1.44473,-89.5966 L -1.4839,-89.7809 L -1.49966,-89.9686
 L -1.49178,-90.1568 L -1.46036,-90.3425 L -1.40591,-90.5229 L -1.3293,-90.6949 L -1.23172,-90.8561 L -1.11472,-91.0037
 L -0.980118,-91.1355 L -0.830078,-91.2494 L -0.666946,-91.3436 L -0.493286,-91.4166 L -0.311859,-91.4672 L -0.125504,-91.4948
 L 0.0628052,-91.4987 L 0.250153,-91.479 L 0.433533,-91.436 L 0.610092,-91.3703 L 0.777039,-91.2831 L 0.931717,-91.1756
 L 1.0717,-91.0495 L 1.19479,-90.9069 L 1.29903,-90.75 L 1.38278,-90.5813 L 1.44473,-90.4034 L 1.4839,-90.2191
 L 1.49966,-90.0314 L 1.49178,-89.8432 L 1.46036,-89.6575 L 1.40591,-89.4771 L 1.3293,-89.3051 L 1.23172,-89.1439
 L 1.11472,-88.9963 L 0.980118,-88.8645 L 0.830078,-88.7506 L 0.666946,-88.6564 L 0.493286,-88.5834 L 0.311859,-88.5328
 L 0.125504,-88.5053 L -0.0628052,-88.5013 z
M 19.8119,-30.2136 L 20.4201,-30.3697 L 21.0039,-30.6009 L 21.5541,-30.9034 L 22.0621,-31.2724 L 22.5198,-31.7023
 L 22.9201,-32.1861 L 23.2565,-32.7162 L 23.5239,-33.2844 L 23.7179,-33.8816 L 23.8356,-34.4983 L 23.875,-35.125
 L 23.875,-72.875 L 23.8356,-73.5017 L 23.7179,-74.1184 L 23.5239,-74.7156 L 23.2565,-75.2838 L 22.9201,-75.8139
 L 22.5198,-76.2977 L 22.0621,-76.7276 L 21.5541,-77.0966 L 21.0039,-77.3991 L 20.4201,-77.6303 L 19.8119,-77.7864
 L 19.1889,-77.8651 L -19.1889,-77.8651 L -19.8119,-77.7864 L -20.4201,-77.6303 L -21.0039,-77.3991 L -21.5541,-77.0966
 L -22.0621,-76.7276 L -22.5198,-76.2977 L -22.9201,-75.8139 L -23.2565,-75.2838 L -23.5239,-74.7156 L -23.7179,-74.1184
 L -23.8356,-73.5017 L -23.875,-72.875 L -23.875,-35.125 L -23.8356,-34.4983 L -23.7179,-33.8816 L -23.5239,-33.2844
 L -23.2565,-32.7162 L -22.9201,-32.1861 L -22.5198,-31.7023 L -22.0621,-31.2724 L -21.5541,-30.9034 L -21.0039,-30.6009
 L -20.4201,-30.3697 L -19.8119,-30.2136 L -19.1889,-30.1349 L 19.1889,-30.1349 z
M -0.0941772,-70.503 L -0.281067,-70.5266 L -0.463516,-70.5734 L -0.638657,-70.6427 L -0.803726,-70.7335 L -0.956131,-70.8442
 L -1.09344,-70.9732 L -1.21352,-71.1183 L -1.31445,-71.2774 L -1.39465,-71.4478 L -1.45287,-71.627 L -1.48816,-71.812
 L -1.5,-72 L -1.48816,-72.188 L -1.45287,-72.373 L -1.39465,-72.5522 L -1.31445,-72.7226 L -1.21352,-72.8817
 L -1.09344,-73.0268 L -0.956131,-73.1558 L -0.803726,-73.2665 L -0.638657,-73.3572 L -0.463516,-73.4266 L -0.281067,-73.4734
 L -0.0941772,-73.497 L 0.0941772,-73.497 L 0.281067,-73.4734 L 0.463516,-73.4266 L 0.638657,-73.3572 L 0.803726,-73.2665
 L 0.956131,-73.1558 L 1.09344,-73.0268 L 1.21352,-72.8817 L 1.31445,-72.7226 L 1.39465,-72.5522 L 1.45287,-72.373
 L 1.48816,-72.188 L 1.5,-72 L 1.48816,-71.812 L 1.45287,-71.627 L 1.39465,-71.4478 L 1.31445,-71.2774
 L 1.21352,-71.1183 L 1.09344,-70.9732 L 0.956131,-70.8442 L 0.803726,-70.7335 L 0.638657,-70.6427 L 0.463516,-70.5734
 L 0.281067,-70.5266 L 0.0941772,-70.503 z
M -15.1884,-66.0059 L -15.5621,-66.0531 L -15.927,-66.1468 L -16.2773,-66.2855 L -16.6075,-66.467 L -16.9123,-66.6884
 L -17.1869,-66.9464 L -17.427,-67.2366 L -17.6289,-67.5547 L -17.7893,-67.8956 L -17.9057,-68.2539 L -17.9763,-68.624
 L -18,-69 L -17.9763,-69.376 L -17.9057,-69.7461 L -17.7893,-70.1044 L -17.6289,-70.4453 L -17.427,-70.7634
 L -17.1869,-71.0536 L -16.9123,-71.3115 L -16.6075,-71.533 L -16.2773,-71.7145 L -15.927,-71.8532 L -15.5621,-71.9469
 L -15.1884,-71.9941 L -14.8116,-71.9941 L -14.4379,-71.9469 L -14.0729,-71.8532 L -13.7227,-71.7145 L -13.3925,-71.533
 L -13.0877,-71.3115 L -12.8131,-71.0536 L -12.5729,-70.7634 L -12.3711,-70.4453 L -12.2107,-70.1044 L -12.0942,-69.7461
 L -12.0237,-69.376 L -12,-69 L -12.0237,-68.624 L -12.0942,-68.2539 L -12.2107,-67.8956 L -12.3711,-67.5547
 L -12.5729,-67.2366 L -12.8131,-66.9464 L -13.0877,-66.6884 L -13.3925,-66.467 L -13.7227,-66.2855 L -14.0729,-66.1468
 L -14.4379,-66.0531 L -14.8116,-66.0059 z
M 14.8116,-66.0059 L 14.4379,-66.0531 L 14.0729,-66.1468 L 13.7227,-66.2855 L 13.3925,-66.467 L 13.0877,-66.6884
 L 12.8131,-66.9464 L 12.5729,-67.2366 L 12.3711,-67.5547 L 12.2107,-67.8956 L 12.0942,-68.2539 L 12.0237,-68.624
 L 12,-69 L 12.0237,-69.376 L 12.0942,-69.7461 L 12.2107,-70.1044 L 12.3711,-70.4453 L 12.5729,-70.7634
 L 12.8131,-71.0536 L 13.0877,-71.3115 L 13.3925,-71.533 L 13.7227,-71.7145 L 14.0729,-71.8532 L 14.4379,-71.9469
 L 14.8116,-71.9941 L 15.1884,-71.9941 L 15.5621,-71.9469 L 15.927,-71.8532 L 16.2773,-71.7145 L 16.6075,-71.533
 L 16.9123,-71.3115 L 17.1869,-71.0536 L 17.427,-70.7634 L 17.6289,-70.4453 L 17.7893,-70.1044 L 17.9057,-69.7461
 L 17.9763,-69.376 L 18,-69 L 17.9763,-68.624 L 17.9057,-68.2539 L 17.7893,-67.8956 L 17.6289,-67.5547
 L 17.427,-67.2366 L 17.1869,-66.9464 L 16.9123,-66.6884 L 16.6075,-66.467 L 16.2773,-66.2855 L 15.927,-66.1468
 L 15.5621,-66.0531 L 15.1884,-66.0059 z
M -1.00464,-38.0316 L -2.99809,-38.2834 L -4.94426,-38.7831 L -6.81245,-39.5228 L -8.57323,-40.4908 L -10.1988,-41.6718
 L -11.6635,-43.0473 L -12.9443,-44.5954 L -14.0209,-46.2919 L -14.8764,-48.11 L -15.4973,-50.021 L -15.8583,-51.9131
 L -16.3267,-51.1018 L -19.6733,-51.1018 L -21.3466,-54 L -19.6733,-56.8982 L -16.3267,-56.8982 L -15.8583,-56.0869
 L -15.4973,-57.979 L -14.8764,-59.89 L -14.0209,-61.7081 L -12.9443,-63.4046 L -11.6635,-64.9527 L -10.1988,-66.3282
 L -8.57323,-67.5092 L -6.81245,-68.4772 L -4.94426,-69.2169 L -2.99809,-69.7166 L -1.00464,-69.9684 L 1.00464,-69.9684
 L 2.99809,-69.7166 L 4.94426,-69.2169 L 6.81245,-68.4772 L 8.57323,-67.5092 L 10.1988,-66.3282 L 11.6635,-64.9527
 L 12.9443,-63.4046 L 14.0209,-61.7081 L 14.8764,-59.89 L 15.4973,-57.979 L 15.8583,-56.0869 L 16.3267,-56.8982
 L 19.6733,-56.8982 L 21.3466,-54 L 19.6733,-51.1018 L 16.3267,-51.1018 L 15.8583,-51.9131 L 15.4973,-50.021
 L 14.8764,-48.11 L 14.0209,-46.2919 L 12.9443,-44.5954 L 11.6635,-43.0473 L 10.1988,-41.6718 L 8.57323,-40.4908
 L 6.81245,-39.5228 L 4.94426,-38.7831 L 2.99809,-38.2834 L 1.00464,-38.0316 z
M 1.87381,-44.1771 L 3.09016,-44.4894 L 4.25778,-44.9517 L 5.35826,-45.5567 L 6.37424,-46.2949 L 7.28967,-47.1545
 L 8.09016,-48.1222 L 8.76306,-49.1825 L 9.29776,-50.3188 L 9.68582,-51.5131 L 9.92114,-52.7467 L 10,-54
 L 9.92114,-55.2533 L 9.68582,-56.4869 L 9.29776,-57.6812 L 8.76306,-58.8175 L 8.09016,-59.8778 L 7.28967,-60.8455
 L 6.37424,-61.7051 L 5.35826,-62.4433 L 4.25778,-63.0483 L 3.09016,-63.5106 L 1.87381,-63.8229 L 0.627899,-63.9803
 L -0.627899,-63.9803 L -1.87381,-63.8229 L -3.09016,-63.5106 L -4.25778,-63.0483 L -5.35826,-62.4433 L -6.37424,-61.7051
 L -7.28967,-60.8455 L -8.09016,-59.8778 L -8.76306,-58.8175 L -9.29776,-57.6812 L -9.68582,-56.4869 L -9.92114,-55.2533
 L -10,-54 L -9.92114,-52.7467 L -9.68582,-51.5131 L -9.29776,-50.3188 L -8.76306,-49.1825 L -8.09016,-48.1222
 L -7.28967,-47.1545 L -6.37424,-46.2949 L -5.35826,-45.5567 L -4.25778,-44.9517 L -3.09016,-44.4894 L -1.87381,-44.1771
 L -0.627899,-44.0197 L 0.627899,-44.0197 z
M -1.67329,-57.6018 L -3.34659,-60.5 L -1.67329,-63.3982 L 1.67329,-63.3982 L 3.34659,-60.5 L 1.67329,-57.6018
 z
M -0.18837,-51.0059 L -0.562134,-51.0531 L -0.927048,-51.1468 L -1.27733,-51.2855 L -1.60747,-51.467 L -1.91226,-51.6885
 L -2.1869,-51.9464 L -2.42705,-52.2366 L -2.62891,-52.5547 L -2.78932,-52.8956 L -2.90575,-53.2539 L -2.97633,-53.624
 L -3,-54 L -2.97633,-54.376 L -2.90575,-54.7461 L -2.78932,-55.1044 L -2.62891,-55.4453 L -2.42705,-55.7634
 L -2.1869,-56.0536 L -1.91226,-56.3115 L -1.60747,-56.533 L -1.27733,-56.7145 L -0.927048,-56.8532 L -0.562134,-56.9469
 L -0.18837,-56.9941 L 0.18837,-56.9941 L 0.562134,-56.9469 L 0.927048,-56.8532 L 1.27733,-56.7145 L 1.60747,-56.533
 L 1.91226,-56.3115 L 2.1869,-56.0536 L 2.42705,-55.7634 L 2.62891,-55.4453 L 2.78932,-55.1044 L 2.90575,-54.7461
 L 2.97633,-54.376 L 3,-54 L 2.97633,-53.624 L 2.90575,-53.2539 L 2.78932,-52.8956 L 2.62891,-52.5547
 L 2.42705,-52.2366 L 2.1869,-51.9464 L 1.91226,-51.6885 L 1.60747,-51.467 L 1.27733,-51.2855 L 0.927048,-51.1468
 L 0.562134,-51.0531 L 0.18837,-51.0059 z
M -8.09418,-52.503 L -8.28107,-52.5266 L -8.46352,-52.5734 L -8.63866,-52.6428 L -8.80373,-52.7335 L -8.95613,-52.8442
 L -9.09344,-52.9732 L -9.21352,-53.1183 L -9.31445,-53.2774 L -9.39465,-53.4478 L -9.45287,-53.627 L -9.48816,-53.812
 L -9.5,-54 L -9.48816,-54.188 L -9.45287,-54.373 L -9.39465,-54.5522 L -9.31445,-54.7226 L -9.21352,-54.8817
 L -9.09344,-55.0268 L -8.95613,-55.1558 L -8.80373,-55.2665 L -8.63866,-55.3572 L -8.46352,-55.4266 L -8.28107,-55.4734
 L -8.09418,-55.497 L -7.40581,-55.497 L -7.21892,-55.4734 L -7.03647,-55.4266 L -6.86133,-55.3572 L -6.69626,-55.2665
 L -6.54385,-55.1558 L -6.40654,-55.0268 L -6.28647,-54.8817 L -6.18553,-54.7226 L -6.10533,-54.5522 L -6.04712,-54.373
 L -6.01183,-54.188 L -6,-54 L -6.01183,-53.812 L -6.04712,-53.627 L -6.10533,-53.4478 L -6.18553,-53.2774
 L -6.28647,-53.1183 L -6.40654,-52.9732 L -6.54385,-52.8442 L -6.69626,-52.7335 L -6.86133,-52.6428 L -7.03647,-52.5734
 L -7.21892,-52.5266 L -7.40581,-52.503 z
M 7.40581,-52.503 L 7.21892,-52.5266 L 7.03647,-52.5734 L 6.86133,-52.6428 L 6.69626,-52.7335 L 6.54385,-52.8442
 L 6.40654,-52.9732 L 6.28647,-53.1183 L 6.18553,-53.2774 L 6.10533,-53.4478 L 6.04712,-53.627 L 6.01183,-53.812
 L 6,-54 L 6.01183,-54.188 L 6.04712,-54.373 L 6.10533,-54.5522 L 6.18553,-54.7226 L 6.28647,-54.8817
 L 6.40654,-55.0268 L 6.54385,-55.1558 L 6.69626,-55.2665 L 6.86133,-55.3572 L 7.03647,-55.4266 L 7.21892,-55.4734
 L 7.40581,-55.497 L 8.09418,-55.497 L 8.28107,-55.4734 L 8.46352,-55.4266 L 8.63866,-55.3572 L 8.80373,-55.2665
 L 8.95613,-55.1558 L 9.09344,-55.0268 L 9.21352,-54.8817 L 9.31445,-54.7226 L 9.39465,-54.5522 L 9.45287,-54.373
 L 9.48816,-54.188 L 9.5,-54 L 9.48816,-53.812 L 9.45287,-53.627 L 9.39465,-53.4478 L 9.31445,-53.2774
 L 9.21352,-53.1183 L 9.09344,-52.9732 L 8.95613,-52.8442 L 8.80373,-52.7335 L 8.63866,-52.6428 L 8.46352,-52.5734
 L 8.28107,-52.5266 L 8.09418,-52.503 z
M -1.67329,-44.6018 L -3.34659,-47.5 L -1.67329,-50.3982 L 1.67329,-50.3982 L 3.34659,-47.5 L 1.67329,-44.6018
 z
M 14.8116,-36.0059 L 14.4379,-36.0531 L 14.0729,-36.1468 L 13.7227,-36.2855 L 13.3925,-36.467 L 13.0877,-36.6885
 L 12.8131,-36.9464 L 12.5729,-37.2366 L 12.3711,-37.5547 L 12.2107,-37.8956 L 12.0942,-38.2539 L 12.0237,-38.624
 L 12,-39 L 12.0237,-39.376 L 12.0942,-39.7461 L 12.2107,-40.1044 L 12.3711,-40.4453 L 12.5729,-40.7634
 L 12.8131,-41.0536 L 13.0877,-41.3116 L 13.3925,-41.533 L 13.7227,-41.7145 L 14.0729,-41.8532 L 14.4379,-41.9469
 L 14.8116,-41.9941 L 15.1884,-41.9941 L 15.5621,-41.9469 L 15.927,-41.8532 L 16.2773,-41.7145 L 16.6075,-41.533
 L 16.9123,-41.3116 L 17.1869,-41.0536 L 17.427,-40.7634 L 17.6289,-40.4453 L 17.7893,-40.1044 L 17.9057,-39.7461
 L 17.9763,-39.376 L 18,-39 L 17.9763,-38.624 L 17.9057,-38.2539 L 17.7893,-37.8956 L 17.6289,-37.5547
 L 17.427,-37.2366 L 17.1869,-36.9464 L 16.9123,-36.6885 L 16.6075,-36.467 L 16.2773,-36.2855 L 15.927,-36.1468
 L 15.5621,-36.0531 L 15.1884,-36.0059 z
M -15.1884,-36.0059 L -15.5621,-36.0531 L -15.927,-36.1468 L -16.2773,-36.2855 L -16.6075,-36.467 L -16.9123,-36.6885
 L -17.1869,-36.9464 L -17.427,-37.2366 L -17.6289,-37.5547 L -17.7893,-37.8956 L -17.9057,-38.2539 L -17.9763,-38.624
 L -18,-39 L -17.9763,-39.376 L -17.9057,-39.7461 L -17.7893,-40.1044 L -17.6289,-40.4453 L -17.427,-40.7634
 L -17.1869,-41.0536 L -16.9123,-41.3116 L -16.6075,-41.533 L -16.2773,-41.7145 L -15.927,-41.8532 L -15.5621,-41.9469
 L -15.1884,-41.9941 L -14.8116,-41.9941 L -14.4379,-41.9469 L -14.0729,-41.8532 L -13.7227,-41.7145 L -13.3925,-41.533
 L -13.0877,-41.3116 L -12.8131,-41.0536 L -12.5729,-40.7634 L -12.3711,-40.4453 L -12.2107,-40.1044 L -12.0942,-39.7461
 L -12.0237,-39.376 L -12,-39 L -12.0237,-38.624 L -12.0942,-38.2539 L -12.2107,-37.8956 L -12.3711,-37.5547
 L -12.5729,-37.2366 L -12.8131,-36.9464 L -13.0877,-36.6885 L -13.3925,-36.467 L -13.7227,-36.2855 L -14.0729,-36.1468
 L -14.4379,-36.0531 L -14.8116,-36.0059 z
M -0.250153,-34.521 L -0.433533,-34.564 L -0.610092,-34.6297 L -0.777039,-34.717 L -0.931717,-34.8245 L -1.0717,-34.9505
 L -1.19479,-35.0931 L -1.29903,-35.25 L -1.38278,-35.4187 L -1.44473,-35.5966 L -1.4839,-35.7809 L -1.49966,-35.9686
 L -1.49178,-36.1568 L -1.46036,-36.3425 L -1.40591,-36.5229 L -1.3293,-36.6949 L -1.23172,-36.8561 L -1.11472,-37.0037
 L -0.980118,-37.1355 L -0.830078,-37.2494 L -0.666946,-37.3436 L -0.493286,-37.4166 L -0.311859,-37.4672 L -0.125504,-37.4948
 L 0.0628052,-37.4987 L 0.250153,-37.479 L 0.433533,-37.436 L 0.610092,-37.3703 L 0.777039,-37.2831 L 0.931717,-37.1756
 L 1.0717,-37.0495 L 1.19479,-36.9069 L 1.29903,-36.75 L 1.38278,-36.5813 L 1.44473,-36.4034 L 1.4839,-36.2191
 L 1.49966,-36.0314 L 1.49178,-35.8432 L 1.46036,-35.6575 L 1.40591,-35.4771 L 1.3293,-35.3051 L 1.23172,-35.1439
 L 1.11472,-34.9963 L 0.980118,-34.8645 L 0.830078,-34.7506 L 0.666946,-34.6564 L 0.493286,-34.5834 L 0.311859,-34.5328
 L 0.125504,-34.5053 L -0.0628052,-34.5013 z
M 19.8119,23.7864 L 20.4201,23.6303 L 21.0039,23.3991 L 21.5541,23.0966 L 22.0621,22.7276 L 22.5198,22.2977
 L 22.9201,21.8139 L 23.2565,21.2838 L 23.5239,20.7156 L 23.7179,20.1184 L 23.8356,19.5017 L 23.875,18.875
 L 23.875,-18.875 L 23.8356,-19.5017 L 23.7179,-20.1184 L 23.5239,-20.7156 L 23.2565,-21.2838 L 22.9201,-21.8139
 L 22.5198,-22.2977 L 22.0621,-22.7276 L 21.5541,-23.0966 L 21.0039,-23.3991 L 20.4201,-23.6303 L 19.8119,-23.7864
 L 19.1889,-23.8651 L -19.1889,-23.8651 L -19.8119,-23.7864 L -20.4201,-23.6303 L -21.0039,-23.3991 L -21.5541,-23.0966
 L -22.0621,-22.7276 L -22.5198,-22.2977 L -22.9201,-21.8139 L -23.2565,-21.2838 L -23.5239,-20.7156 L -23.7179,-20.1184
 L -23.8356,-19.5017 L -23.875,-18.875 L -23.875,18.875 L -23.8356,19.5017 L -23.7179,20.1184 L -23.5239,20.7156
 L -23.2565,21.2838 L -22.9201,21.8139 L -22.5198,22.2977 L -22.0621,22.7276 L -21.5541,23.0966 L -21.0039,23.3991
 L -20.4201,23.6303 L -19.8119,23.7864 L -19.1889,23.8651 L 19.1889,23.8651 z
M -0.150696,-15.6047 L -0.449707,-15.6425 L -0.741638,-15.7175 L -1.02187,-15.8284 L -1.28598,-15.9736 L -1.52982,-16.1508
 L -1.74951,-16.3571 L -1.94164,-16.5893 L -2.10313,-16.8438 L -2.23146,-17.1165 L -2.32458,-17.4031 L -2.38107,-17.6992
 L -2.39999,-18 L -2.38107,-18.3008 L -2.32458,-18.5968 L -2.23146,-18.8835 L -2.10313,-19.1562 L -1.94164,-19.4107
 L -1.74951,-19.6429 L -1.52982,-19.8492 L -1.28598,-20.0264 L -1.02187,-20.1716 L -0.741638,-20.2825 L -0.449707,-20.3575
 L -0.150696,-20.3953 L 0.150696,-20.3953 L 0.449707,-20.3575 L 0.741638,-20.2825 L 1.02187,-20.1716 L 1.28598,-20.0264
 L 1.52982,-19.8492 L 1.74951,-19.6429 L 1.94164,-19.4107 L 2.10313,-19.1562 L 2.23146,-18.8835 L 2.32458,-18.5968
 L 2.38107,-18.3008 L 2.39999,-18 L 2.38107,-17.6992 L 2.32458,-17.4031 L 2.23146,-17.1165 L 2.10313,-16.8438
 L 1.94164,-16.5893 L 1.74951,-16.3571 L 1.52982,-16.1508 L 1.28598,-15.9736 L 1.02187,-15.8284 L 0.741638,-15.7175
 L 0.449707,-15.6425 L 0.150696,-15.6047 z
M -15.1884,-12.0059 L -15.5621,-12.0531 L -15.927,-12.1468 L -16.2773,-12.2855 L -16.6075,-12.467 L -16.9123,-12.6884
 L -17.1869,-12.9464 L -17.427,-13.2366 L -17.6289,-13.5547 L -17.7893,-13.8956 L -17.9057,-14.2539 L -17.9763,-14.624
 L -18,-15 L -17.9763,-15.376 L -17.9057,-15.7461 L -17.7893,-16.1044 L -17.6289,-16.4453 L -17.427,-16.7634
 L -17.1869,-17.0536 L -16.9123,-17.3115 L -16.6075,-17.533 L -16.2773,-17.7145 L -15.927,-17.8532 L -15.5621,-17.9469
 L -15.1884,-17.9941 L -14.8116,-17.9941 L -14.4379,-17.9469 L -14.0729,-17.8532 L -13.7227,-17.7145 L -13.3925,-17.533
 L -13.0877,-17.3115 L -12.8131,-17.0536 L -12.5729,-16.7634 L -12.3711,-16.4453 L -12.2107,-16.1044 L -12.0942,-15.7461
 L -12.0237,-15.376 L -12,-15 L -12.0237,-14.624 L -12.0942,-14.2539 L -12.2107,-13.8956 L -12.3711,-13.5547
 L -12.5729,-13.2366 L -12.8131,-12.9464 L -13.0877,-12.6884 L -13.3925,-12.467 L -13.7227,-12.2855 L -14.0729,-12.1468
 L -14.4379,-12.0531 L -14.8116,-12.0059 z
M 14.8116,-12.0059 L 14.4379,-12.0531 L 14.0729,-12.1468 L 13.7227,-12.2855 L 13.3925,-12.467 L 13.0877,-12.6884
 L 12.8131,-12.9464 L 12.5729,-13.2366 L 12.3711,-13.5547 L 12.2107,-13.8956 L 12.0942,-14.2539 L 12.0237,-14.624
 L 12,-15 L 12.0237,-15.376 L 12.0942,-15.7461 L 12.2107,-16.1044 L 12.3711,-16.4453 L 12.5729,-16.7634
 L 12.8131,-17.0536 L 13.0877,-17.3115 L 13.3925,-17.533 L 13.7227,-17.7145 L 14.0729,-17.8532 L 14.4379,-17.9469
 L 14.8116,-17.9941 L 15.1884,-17.9941 L 15.5621,-17.9469 L 15.927,-17.8532 L 16.2773,-17.7145 L 16.6075,-17.533
 L 16.9123,-17.3115 L 17.1869,-17.0536 L 17.427,-16.7634 L 17.6289,-16.4453 L 17.7893,-16.1044 L 17.9057,-15.7461
 L 17.9763,-15.376 L 18,-15 L 17.9763,-14.624 L 17.9057,-14.2539 L 17.7893,-13.8956 L 17.6289,-13.5547
 L 17.427,-13.2366 L 17.1869,-12.9464 L 16.9123,-12.6884 L 16.6075,-12.467 L 16.2773,-12.2855 L 15.927,-12.1468
 L 15.5621,-12.0531 L 15.1884,-12.0059 z
M -0.847672,13.4734 L -2.52963,13.2609 L -4.17172,12.8392 L -5.74802,12.2152 L -7.23366,11.3984 L -8.60521,10.4019
 L -9.84106,9.24138 L -10.9217,7.93509 L -11.8301,6.50366 L -12.552,4.96968 L -13.0759,3.3573 L -13.3935,1.69199
 L -13.5,-0 L -13.3935,-1.69199 L -13.0759,-3.3573 L -12.552,-4.96968 L -11.8301,-6.50366 L -10.9217,-7.93509
 L -9.84106,-9.24138 L -8.60521,-10.4019 L -7.23366,-11.3984 L -5.74802,-12.2152 L -4.17172,-12.8392 L -2.52963,-13.2609
 L -0.847672,-13.4734 L 0.847672,-13.4734 L 2.52963,-13.2609 L 4.17172,-12.8392 L 5.74802,-12.2152 L 7.23366,-11.3984
 L 8.60521,-10.4019 L 9.84106,-9.24138 L 10.9217,-7.93509 L 11.8301,-6.50366 L 12.552,-4.96968 L 13.0759,-3.3573
 L 13.3935,-1.69199 L 13.5,-0 L 13.3935,1.69199 L 13.0759,3.3573 L 12.552,4.96968 L 11.8301,6.50366
 L 10.9217,7.93509 L 9.84106,9.24138 L 8.60521,10.4019 L 7.23366,11.3984 L 5.74802,12.2152 L 4.17172,12.8392
 L 2.52963,13.2609 L 0.847672,13.4734 z
M 2.34225,12.2786 L 3.8627,11.8882 L 5.32224,11.3103 L 6.69783,10.5541 L 7.96779,9.63141 L 9.11211,8.55682
 L 10.1127,7.34731 L 10.9538,6.02191 L 11.6222,4.60155 L 12.1073,3.10861 L 12.4014,1.56665 L 12.5,-0
 L 12.4014,-1.56665 L 12.1073,-3.10861 L 11.6222,-4.60155 L 10.9538,-6.02191 L 10.1127,-7.34731 L 9.11211,-8.55682
 L 7.96779,-9.63141 L 6.69783,-10.5541 L 5.32224,-11.3103 L 3.8627,-11.8882 L 2.34225,-12.2786 L 0.784866,-12.4753
 L -0.784866,-12.4753 L -2.34225,-12.2786 L -3.8627,-11.8882 L -5.32224,-11.3103 L -6.69783,-10.5541 L -7.96779,-9.63141
 L -9.11211,-8.55682 L -10.1127,-7.34731 L -10.9538,-6.02191 L -11.6222,-4.60155 L -12.1073,-3.10861 L -12.4014,-1.56665
 L -12.5,-0 L -12.4014,1.56665 L -12.1073,3.10861 L -11.6222,4.60155 L -10.9538,6.02191 L -10.1127,7.34731
 L -9.11211,8.55682 L -7.96779,9.63141 L -6.69783,10.5541 L -5.32224,11.3103 L -3.8627,11.8882 L -2.34225,12.2786
 L -0.784866,12.4753 L 0.784866,12.4753 z
M -0.150696,-4.10472 L -0.449707,-4.1425 L -0.741638,-4.21745 L -1.02187,-4.32841 L -1.28598,-4.4736 L -1.52982,-4.65076
 L -1.74951,-4.85709 L -1.94164,-5.08931 L -2.10313,-5.34378 L -2.23146,-5.6165 L -2.32458,-5.90314 L -2.38107,-6.19919
 L -2.39999,-6.5 L -2.38107,-6.8008 L -2.32458,-7.09685 L -2.23146,-7.38348 L -2.10313,-7.6562 L -1.94164,-7.91068
 L -1.74951,-8.1429 L -1.52982,-8.34923 L -1.28598,-8.52638 L -1.02187,-8.67157 L -0.741638,-8.78253 L -0.449707,-8.85748
 L -0.150696,-8.89526 L 0.150696,-8.89526 L 0.449707,-8.85748 L 0.741638,-8.78253 L 1.02187,-8.67157 L 1.28598,-8.52638
 L 1.52982,-8.34923 L 1.74951,-8.1429 L 1.94164,-7.91068 L 2.10313,-7.6562 L 2.23146,-7.38348 L 2.32458,-7.09685
 L 2.38107,-6.8008 L 2.39999,-6.5 L 2.38107,-6.19919 L 2.32458,-5.90314 L 2.23146,-5.6165 L 2.10313,-5.34378
 L 1.94164,-5.08931 L 1.74951,-4.85709 L 1.52982,-4.65076 L 1.28598,-4.4736 L 1.02187,-4.32841 L 0.741638,-4.21745
 L 0.449707,-4.1425 L 0.150696,-4.10472 z
M -0.18837,2.99408 L -0.562134,2.94685 L -0.927048,2.85316 L -1.27733,2.71448 L -1.60747,2.53297 L -1.91226,2.31154
 L -2.1869,2.05363 L -2.42705,1.76335 L -2.62891,1.44525 L -2.78932,1.10437 L -2.90575,0.746063 L -2.97633,0.375992
 L -3,-0 L -2.97633,-0.375992 L -2.90575,-0.746063 L -2.78932,-1.10437 L -2.62891,-1.44525 L -2.42705,-1.76335
 L -2.1869,-2.05363 L -1.91226,-2.31154 L -1.60747,-2.53297 L -1.27733,-2.71448 L -0.927048,-2.85316 L -0.562134,-2.94685
 L -0.18837,-2.99408 L 0.18837,-2.99408 L 0.562134,-2.94685 L 0.927048,-2.85316 L 1.27733,-2.71448 L 1.60747,-2.53297
 L 1.91226,-2.31154 L 2.1869,-2.05363 L 2.42705,-1.76335 L 2.62891,-1.44525 L 2.78932,-1.10437 L 2.90575,-0.746063
 L 2.97633,-0.375992 L 3,-0 L 2.97633,0.375992 L 2.90575,0.746063 L 2.78932,1.10437 L 2.62891,1.44525
 L 2.42705,1.76335 L 2.1869,2.05363 L 1.91226,2.31154 L 1.60747,2.53297 L 1.27733,2.71448 L 0.927048,2.85316
 L 0.562134,2.94685 L 0.18837,2.99408 z
M -8.09418,1.49704 L -8.28107,1.47342 L -8.46352,1.42657 L -8.63866,1.35724 L -8.80373,1.26648 L -8.95613,1.15576
 L -9.09344,1.02681 L -9.21352,0.881668 L -9.31445,0.722626 L -9.39465,0.552185 L -9.45287,0.373032 L -9.48816,0.187988
 L -9.5,-0 L -9.48816,-0.187988 L -9.45287,-0.373032 L -9.39465,-0.552185 L -9.31445,-0.722626 L -9.21352,-0.881668
 L -9.09344,-1.02681 L -8.95613,-1.15576 L -8.80373,-1.26648 L -8.63866,-1.35724 L -8.46352,-1.42657 L -8.28107,-1.47342
 L -8.09418,-1.49704 L -7.40581,-1.49704 L -7.21892,-1.47342 L -7.03647,-1.42657 L -6.86133,-1.35724 L -6.69626,-1.26648
 L -6.54385,-1.15576 L -6.40654,-1.02681 L -6.28647,-0.881668 L -6.18553,-0.722626 L -6.10533,-0.552185 L -6.04712,-0.373032
 L -6.01183,-0.187988 L -6,-0 L -6.01183,0.187988 L -6.04712,0.373032 L -6.10533,0.552185 L -6.18553,0.722626
 L -6.28647,0.881668 L -6.40654,1.02681 L -6.54385,1.15576 L -6.69626,1.26648 L -6.86133,1.35724 L -7.03647,1.42657
 L -7.21892,1.47342 L -7.40581,1.49704 z
M 7.40581,1.49704 L 7.21892,1.47342 L 7.03647,1.42657 L 6.86133,1.35724 L 6.69626,1.26648 L 6.54385,1.15576
 L 6.40654,1.02681 L 6.28647,0.881668 L 6.18553,0.722626 L 6.10533,0.552185 L 6.04712,0.373032 L 6.01183,0.187988
 L 6,-0 L 6.01183,-0.187988 L 6.04712,-0.373032 L 6.10533,-0.552185 L 6.18553,-0.722626 L 6.28647,-0.881668
 L 6.40654,-1.02681 L 6.54385,-1.15576 L 6.69626,-1.26648 L 6.86133,-1.35724 L 7.03647,-1.42657 L 7.21892,-1.47342
 L 7.40581,-1.49704 L 8.09418,-1.49704 L 8.28107,-1.47342 L 8.46352,-1.42657 L 8.63866,-1.35724 L 8.80373,-1.26648
 L 8.95613,-1.15576 L 9.09344,-1.02681 L 9.21352,-0.881668 L 9.31445,-0.722626 L 9.39465,-0.552185 L 9.45287,-0.373032
 L 9.48816,-0.187988 L 9.5,-0 L 9.48816,0.187988 L 9.45287,0.373032 L 9.39465,0.552185 L 9.31445,0.722626
 L 9.21352,0.881668 L 9.09344,1.02681 L 8.95613,1.15576 L 8.80373,1.26648 L 8.63866,1.35724 L 8.46352,1.42657
 L 8.28107,1.47342 L 8.09418,1.49704 z
M -0.150696,8.89526 L -0.449707,8.85748 L -0.741638,8.78253 L -1.02187,8.67157 L -1.28598,8.52638 L -1.52982,8.34923
 L -1.74951,8.1429 L -1.94164,7.91068 L -2.10313,7.6562 L -2.23146,7.38348 L -2.32458,7.09685 L -2.38107,6.8008
 L -2.39999,6.5 L -2.38107,6.19919 L -2.32458,5.90314 L -2.23146,5.6165 L -2.10313,5.34378 L -1.94164,5.08931
 L -1.74951,4.85709 L -1.52982,4.65076 L -1.28598,4.4736 L -1.02187,4.32841 L -0.741638,4.21745 L -0.449707,4.1425
 L -0.150696,4.10472 L 0.150696,4.10472 L 0.449707,4.1425 L 0.741638,4.21745 L 1.02187,4.32841 L 1.28598,4.4736
 L 1.52982,4.65076 L 1.74951,4.85709 L 1.94164,5.08931 L 2.10313,5.34378 L 2.23146,5.6165 L 2.32458,5.90314
 L 2.38107,6.19919 L 2.39999,6.5 L 2.38107,6.8008 L 2.32458,7.09685 L 2.23146,7.38348 L 2.10313,7.6562
 L 1.94164,7.91068 L 1.74951,8.1429 L 1.52982,8.34923 L 1.28598,8.52638 L 1.02187,8.67157 L 0.741638,8.78253
 L 0.449707,8.85748 L 0.150696,8.89526 z
M 17.5997,2.36638 L 17.3063,2.29756 L 17.0238,2.1925 L 16.7567,2.05287 L 16.5092,1.88086 L 16.2853,1.67918
 L 16.0883,1.45103 L 15.9215,1.2 L 15.7875,0.930023 L 15.6884,0.645401 L 15.6257,0.350586 L 15.6005,0.0502472
 L 15.6131,-0.250854 L 15.6634,-0.548035 L 15.7505,-0.836563 L 15.8731,-1.11191 L 16.0292,-1.36971 L 16.2164,-1.60591
 L 16.4318,-1.81679 L 16.6719,-1.99901 L 16.9329,-2.1497 L 17.2107,-2.26649 L 17.501,-2.34755 L 17.7992,-2.39157
 L 18.1005,-2.39789 L 18.4002,-2.36638 L 18.6937,-2.29756 L 18.9762,-2.1925 L 19.2433,-2.05287 L 19.4908,-1.88086
 L 19.7147,-1.67918 L 19.9117,-1.45103 L 20.0785,-1.2 L 20.2125,-0.930023 L 20.3116,-0.645401 L 20.3743,-0.350586
 L 20.3995,-0.0502472 L 20.3868,0.250854 L 20.3366,0.548035 L 20.2495,0.836563 L 20.1269,1.11191 L 19.9707,1.36971
 L 19.7835,1.60591 L 19.5682,1.81679 L 19.3281,1.99901 L 19.0671,2.1497 L 18.7893,2.26649 L 18.499,2.34755
 L 18.2008,2.39157 L 17.8995,2.39789 z
M -18.1507,2.39526 L -18.4497,2.35748 L -18.7416,2.28253 L -19.0219,2.17157 L -19.286,2.02638 L -19.5298,1.84923
 L -19.7495,1.6429 L -19.9416,1.41068 L -20.1031,1.1562 L -20.2315,0.883484 L -20.3246,0.596848 L -20.3811,0.300797
 L -20.4,-0 L -20.3811,-0.300797 L -20.3246,-0.596848 L -20.2315,-0.883484 L -20.1031,-1.1562 L -19.9416,-1.41068
 L -19.7495,-1.6429 L -19.5298,-1.84923 L -19.286,-2.02638 L -19.0219,-2.17157 L -18.7416,-2.28253 L -18.4497,-2.35748
 L -18.1507,-2.39526 L -17.8493,-2.39526 L -17.5503,-2.35748 L -17.2583,-2.28253 L -16.9781,-2.17157 L -16.714,-2.02638
 L -16.4702,-1.84923 L -16.2505,-1.6429 L -16.0583,-1.41068 L -15.8969,-1.1562 L -15.7685,-0.883484 L -15.6754,-0.596848
 L -15.6189,-0.300797 L -15.6,-0 L -15.6189,0.300797 L -15.6754,0.596848 L -15.7685,0.883484 L -15.8969,1.1562
 L -16.0583,1.41068 L -16.2505,1.6429 L -16.4702,1.84923 L -16.714,2.02638 L -16.9781,2.17157 L -17.2583,2.28253
 L -17.5503,2.35748 L -17.8493,2.39526 z
M 14.8116,17.9941 L 14.4379,17.9469 L 14.0729,17.8532 L 13.7227,17.7145 L 13.3925,17.533 L 13.0877,17.3115
 L 12.8131,17.0536 L 12.5729,16.7634 L 12.3711,16.4453 L 12.2107,16.1044 L 12.0942,15.7461 L 12.0237,15.376
 L 12,15 L 12.0237,14.624 L 12.0942,14.2539 L 12.2107,13.8956 L 12.3711,13.5547 L 12.5729,13.2366
 L 12.8131,12.9464 L 13.0877,12.6884 L 13.3925,12.467 L 13.7227,12.2855 L 14.0729,12.1468 L 14.4379,12.0531
 L 14.8116,12.0059 L 15.1884,12.0059 L 15.5621,12.0531 L 15.927,12.1468 L 16.2773,12.2855 L 16.6075,12.467
 L 16.9123,12.6884 L 17.1869,12.9464 L 17.427,13.2366 L 17.6289,13.5547 L 17.7893,13.8956 L 17.9057,14.2539
 L 17.9763,14.624 L 18,15 L 17.9763,15.376 L 17.9057,15.7461 L 17.7893,16.1044 L 17.6289,16.4453
 L 17.427,16.7634 L 17.1869,17.0536 L 16.9123,17.3115 L 16.6075,17.533 L 16.2773,17.7145 L 15.927,17.8532
 L 15.5621,17.9469 L 15.1884,17.9941 z
M -15.1884,17.9941 L -15.5621,17.9469 L -15.927,17.8532 L -16.2773,17.7145 L -16.6075,17.533 L -16.9123,17.3115
 L -17.1869,17.0536 L -17.427,16.7634 L -17.6289,16.4453 L -17.7893,16.1044 L -17.9057,15.7461 L -17.9763,15.376
 L -18,15 L -17.9763,14.624 L -17.9057,14.2539 L -17.7893,13.8956 L -17.6289,13.5547 L -17.427,13.2366
 L -17.1869,12.9464 L -16.9123,12.6884 L -16.6075,12.467 L -16.2773,12.2855 L -15.927,12.1468 L -15.5621,12.0531
 L -15.1884,12.0059 L -14.8116,12.0059 L -14.4379,12.0531 L -14.0729,12.1468 L -13.7227,12.2855 L -13.3925,12.467
 L -13.0877,12.6884 L -12.8131,12.9464 L -12.5729,13.2366 L -12.3711,13.5547 L -12.2107,13.8956 L -12.0942,14.2539
 L -12.0237,14.624 L -12,15 L -12.0237,15.376 L -12.0942,15.7461 L -12.2107,16.1044 L -12.3711,16.4453
 L -12.5729,16.7634 L -12.8131,17.0536 L -13.0877,17.3115 L -13.3925,17.533 L -13.7227,17.7145 L -14.0729,17.8532
 L -14.4379,17.9469 L -14.8116,17.9941 z
M -0.400238,20.3664 L -0.693665,20.2976 L -0.976166,20.1925 L -1.24326,20.0529 L -1.49075,19.8809 L -1.71472,19.6792
 L -1.91167,19.451 L -2.07846,19.2 L -2.21246,18.93 L -2.31158,18.6454 L -2.37425,18.3506 L -2.39946,18.0503
 L -2.38684,17.7491 L -2.33658,17.452 L -2.24947,17.1634 L -2.12688,16.8881 L -1.97075,16.6303 L -1.78354,16.3941
 L -1.56821,16.1832 L -1.32812,16.001 L -1.06712,15.8503 L -0.789276,15.7335 L -0.498978,15.6524 L -0.200821,15.6084
 L 0.100494,15.6021 L 0.400238,15.6336 L 0.693665,15.7024 L 0.976166,15.8075 L 1.24326,15.9471 L 1.49075,16.1191
 L 1.71472,16.3208 L 1.91167,16.549 L 2.07846,16.8 L 2.21246,17.07 L 2.31158,17.3546 L 2.37425,17.6494
 L 2.39946,17.9497 L 2.38684,18.2509 L 2.33658,18.548 L 2.24947,18.8366 L 2.12688,19.1119 L 1.97075,19.3697
 L 1.78354,19.6059 L 1.56821,19.8168 L 1.32812,19.999 L 1.06712,20.1497 L 0.789276,20.2665 L 0.498978,20.3475
 L 0.200821,20.3916 L -0.100494,20.3979 z
" stroke="black" fill="lightgray" stroke-width="0.5"/>
</svg>
