<?xml version="1.0" standalone="no"?>
<!DOCTYPE svg PUBLIC "-//W3C//DTD SVG 1.1//EN" "http://www.w3.org/Graphics/SVG/1.1/DTD/svg11.dtd">
<svg width="60mm" height="44mm" viewBox="-30 -22 60 44" xmlns="http://www.w3.org/2000/svg" version="1.1">
<title>OpenSCAD Model</title>
<path d="
M 25.4369,21.9114 L 26.0451,21.7553 L 26.6289,21.5241 L 27.1791,21.2216 L 27.6871,20.8526 L 28.1448,20.4227
 L 28.5451,19.9389 L 28.8815,19.4088 L 29.1489,18.8406 L 29.3429,18.2434 L 29.4606,17.6267 L 29.5,17
 L 29.5,-17 L 29.4606,-17.6267 L 29.3429,-18.2434 L 29.1489,-18.8406 L 28.8815,-19.4088 L 28.5451,-19.9389
 L 28.1448,-20.4227 L 27.6871,-20.8526 L 27.1791,-21.2216 L 26.6289,-21.5241 L 26.0451,-21.7553 L 25.4369,-21.9114
 L 24.8139,-21.9901 L -24.8139,-21.9901 L -25.4369,-21.9114 L -26.0451,-21.7553 L -26.6289,-21.5241 L -27.1791,-21.2216
 L -27.6871,-20.8526 L -28.1448,-20.4227 L -28.5451,-19.9389 L -28.8815,-19.4088 L -29.1489,-18.8406 L -29.3429,-18.2434
 L -29.4606,-17.6267 L -29.5,-17 L -29.5,17 L -29.4606,17.6267 L -29.3429,18.2434 L -29.1489,18.8406
 L -28.8815,19.4088 L -28.5451,19.9389 L -28.1448,20.4227 L -27.6871,20.8526 L -27.1791,21.2216 L -26.6289,21.5241
 L -26.0451,21.7553 L -25.4369,21.9114 L -24.8139,21.9901 L 24.8139,21.9901 z
M -22.6884,-12.0059 L -23.0621,-12.0531 L -23.427,-12.1468 L -23.7773,-12.2855 L -24.1075,-12.467 L -24.4123,-12.6884
 L -24.6869,-12.9464 L -24.927,-13.2366 L -25.1289,-13.5547 L -25.2893,-13.8956 L -25.4057,-14.2539 L -25.4763,-14.624
 L -25.5,-15 L -25.4763,-15.376 L -25.4057,-15.7461 L -25.2893,-16.1044 L -25.1289,-16.4453 L -24.927,-16.7634
 L -24.6869,-17.0536 L -24.4123,-17.3115 L -24.1075,-17.533 L -23.7773,-17.7145 L -23.427,-17.8532 L -23.0621,-17.9469
 L -22.6884,-17.9941 L -22.3116,-17.9941 L -21.9379,-17.9469 L -21.5729,-17.8532 L -21.2227,-17.7145 L -20.8925,-17.533
 L -20.5877,-17.3115 L -20.3131,-17.0536 L -20.0729,-16.7634 L -19.8711,-16.4453 L -19.7107,-16.1044 L -19.5942,-15.7461
 L -19.5237,-15.376 L -19.5,-15 L -19.5237,-14.624 L -19.5942,-14.2539 L -19.7107,-13.8956 L -19.8711,-13.5547
 L -20.0729,-13.2366 L -20.3131,-12.9464 L -20.5877,-12.6884 L -20.8925,-12.467 L -21.2227,-12.2855 L -21.5729,-12.1468
 L -21.9379,-12.0531 L -22.3116,-12.0059 z
M -5.59418,-11.5029 L -5.78107,-11.5266 L -5.96352,-11.5734 L -6.13866,-11.6427 L -6.30373,-11.7335 L -6.45613,-11.8442
 L -6.59344,-11.9732 L -6.71352,-12.1183 L -6.81445,-12.2774 L -6.89465,-12.4478 L -6.95287,-12.627 L -6.98816,-12.812
 L -7,-13 L -6.98816,-13.188 L -6.95287,-13.373 L -6.89465,-13.5522 L -6.81445,-13.7226 L -6.71352,-13.8817
 L -6.59344,-14.0268 L -6.45613,-14.1558 L -6.30373,-14.2665 L -6.13866,-14.3572 L -5.96352,-14.4266 L -5.78107,-14.4734
 L -5.59418,-14.497 L -5.40581,-14.497 L -5.21892,-14.4734 L -5.03647,-14.4266 L -4.86133,-14.3572 L -4.69626,-14.2665
 L -4.54385,-14.1558 L -4.40654,-14.0268 L -4.28647,-13.8817 L -4.18553,-13.7226 L -4.10533,-13.5522 L -4.04712,-13.373
 L -4.01183,-13.188 L -4,-13 L -4.01183,-12.812 L -4.04712,-12.627 L -4.10533,-12.4478 L -4.18553,-12.2774
 L -4.28647,-12.1183 L -4.40654,-11.9732 L -4.54385,-11.8442 L -4.69626,-11.7335 L -4.86133,-11.6427 L -5.03647,-11.5734
 L -5.21892,-11.5266 L -5.40581,-11.5029 z
M 20.4058,-11.5029 L 20.2189,-11.5266 L 20.0365,-11.5734 L 19.8613,-11.6427 L 19.6963,-11.7335 L 19.5439,-11.8442
 L 19.4065,-11.9732 L 19.2865,-12.1183 L 19.1855,-12.2774 L 19.1053,-12.4478 L 19.0471,-12.627 L 19.0118,-12.812
 L 19,-13 L 19.0118,-13.188 L 19.0471,-13.373 L 19.1053,-13.5522 L 19.1855,-13.7226 L 19.2865,-13.8817
 L 19.4065,-14.0268 L 19.5439,-14.1558 L 19.6963,-14.2665 L 19.8613,-14.3572 L 20.0365,-14.4266 L 20.2189,-14.4734
 L 20.4058,-14.497 L 20.5942,-14.497 L 20.7811,-14.4734 L 20.9635,-14.4266 L 21.1387,-14.3572 L 21.3037,-14.2665
 L 21.4561,-14.1558 L 21.5934,-14.0268 L 21.7135,-13.8817 L 21.8145,-13.7226 L 21.8947,-13.5522 L 21.9529,-13.373
 L 21.9882,-13.188 L 22,-13 L 21.9882,-12.812 L 21.9529,-12.627 L 21.8947,-12.4478 L 21.8145,-12.2774
 L 21.7135,-12.1183 L 21.5934,-11.9732 L 21.4561,-11.8442 L 21.3037,-11.7335 L 21.1387,-11.6427 L 20.9635,-11.5734
 L 20.7811,-11.5266 L 20.5942,-11.5029 z
M -22.6884,2.99408 L -23.0621,2.94685 L -23.427,2.85316 L -23.7773,2.71448 L -24.1075,2.53297 L -24.4123,2.31154
 L -24.6869,2.05363 L -24.927,1.76335 L -25.1289,1.44525 L -25.2893,1.10437 L -25.4057,0.746063 L -25.4763,0.375992
 L -25.5,-0 L -25.4763,-0.375992 L -25.4057,-0.746063 L -25.2893,-1.10437 L -25.1289,-1.44525 L -24.927,-1.76335
 L -24.6869,-2.05363 L -24.4123,-2.31154 L -24.1075,-2.53297 L -23.7773,-2.71448 L -23.427,-2.85316 L -23.0621,-2.94685
 L -22.6884,-2.99408 L -22.3116,-2.99408 L -21.9379,-2.94685 L -21.5729,-2.85316 L -21.2227,-2.71448 L -20.8925,-2.53297
 L -20.5877,-2.31154 L -20.3131,-2.05363 L -20.0729,-1.76335 L -19.8711,-1.44525 L -19.7107,-1.10437 L -19.5942,-0.746063
 L -19.5237,-0.375992 L -19.5,-0 L -19.5237,0.375992 L -19.5942,0.746063 L -19.7107,1.10437 L -19.8711,1.44525
 L -20.0729,1.76335 L -20.3131,2.05363 L -20.5877,2.31154 L -20.8925,2.53297 L -21.2227,2.71448 L -21.5729,2.85316
 L -21.9379,2.94685 L -22.3116,2.99408 z
M 20.4058,14.497 L 20.2189,14.4734 L 20.0365,14.4266 L 19.8613,14.3572 L 19.6963,14.2665 L 19.5439,14.1558
 L 19.4065,14.0268 L 19.2865,13.8817 L 19.1855,13.7226 L 19.1053,13.5522 L 19.0471,13.373 L 19.0118,13.188
 L 19,13 L 19.0118,12.812 L 19.0471,12.627 L 19.1053,12.4478 L 19.1855,12.2774 L 19.2865,12.1183
 L 19.4065,11.9732 L 19.5439,11.8442 L 19.6963,11.7335 L 19.8613,11.6427 L 20.0365,11.5734 L 20.2189,11.5266
 L 20.4058,11.5029 L 20.5942,11.5029 L 20.7811,11.5266 L 20.9635,11.5734 L 21.1387,11.6427 L 21.3037,11.7335
 L 21.4561,11.8442 L 21.5934,11.9732 L 21.7135,12.1183 L 21.8145,12.2774 L 21.8947,12.4478 L 21.9529,12.627
 L 21.9882,12.812 L 22,13 L 21.9882,13.188 L 21.9529,13.373 L 21.8947,13.5522 L 21.8145,13.7226
 L 21.7135,13.8817 L 21.5934,14.0268 L 21.4561,14.1558 L 21.3037,14.2665 L 21.1387,14.3572 L 20.9635,14.4266
 L 20.7811,14.4734 L 20.5942,14.497 z
M -5.59418,14.497 L -5.78107,14.4734 L -5.96352,14.4266 L -6.13866,14.3572 L -6.30373,14.2665 L -6.45613,14.1558
 L -6.59344,14.0268 L -6.71352,13.8817 L -6.81445,13.7226 L -6.89465,13.5522 L -6.95287,13.373 L -6.98816,13.188
 L -7,13 L -6.98816,12.812 L -6.95287,12.627 L -6.89465,12.4478 L -6.81445,12.2774 L -6.71352,12.1183
 L -6.59344,11.9732 L -6.45613,11.8442 L -6.30373,11.7335 L -6.13866,11.6427 L -5.96352,11.5734 L -5.78107,11.5266
 L -5.59418,11.5029 L -5.40581,11.5029 L -5.21892,11.5266 L -5.03647,11.5734 L -4.86133,11.6427 L -4.69626,11.7335
 L -4.54385,11.8442 L -4.40654,11.9732 L -4.28647,12.1183 L -4.18553,12.2774 L -4.10533,12.4478 L -4.04712,12.627
 L -4.01183,12.812 L -4,13 L -4.01183,13.188 L -4.04712,13.373 L -4.10533,13.5522 L -4.18553,13.7226
 L -4.28647,13.8817 L -4.40654,14.0268 L -4.54385,14.1558 L -4.69626,14.2665 L -4.86133,14.3572 L -5.03647,14.4266
 L -5.21892,14.4734 L -5.40581,14.497 z
M -22.6884,17.9941 L -23.0621,17.9469 L -23.427,17.8532 L -23.7773,17.7145 L -24.1075,17.533 L -24.4123,17.3115
 L -24.6869,17.0536 L -24.927,16.7634 L -25.1289,16.4453 L -25.2893,16.1044 L -25.4057,15.7461 L -25.4763,15.376
 L -25.5,15 L -25.4763,14.624 L -25.4057,14.2539 L -25.2893,13.8956 L -25.1289,13.5547 L -24.927,13.2366
 L -24.6869,12.9464 L -24.4123,12.6884 L -24.1075,12.467 L -23.7773,12.2855 L -23.427,12.1468 L -23.0621,12.0531
 L -22.6884,12.0059 L -22.3116,12.0059 L -21.9379,12.0531 L -21.5729,12.1468 L -21.2227,12.2855 L -20.8925,12.467
 L -20.5877,12.6884 L -20.3131,12.9464 L -20.0729,13.2366 L -19.8711,13.5547 L -19.7107,13.8956 L -19.5942,14.2539
 L -19.5237,14.624 L -19.5,15 L -19.5237,15.376 L -19.5942,15.7461 L -19.7107,16.1044 L -19.8711,16.4453
 L -20.0729,16.7634 L -20.3131,17.0536 L -20.5877,17.3115 L -20.8925,17.533 L -21.2227,17.7145 L -21.5729,17.8532
 L -21.9379,17.9469 L -22.3116,17.9941 z
" stroke="black" fill="lightgray" stroke-width="0.5"/>
</svg>
