<?xml version="1.0" standalone="no"?>
<!DOCTYPE svg PUBLIC "-//W3C//DTD SVG 1.1//EN" "http://www.w3.org/Graphics/SVG/1.1/DTD/svg11.dtd">
<svg width="74mm" height="36mm" viewBox="-37 -36 74 36" xmlns="http://www.w3.org/2000/svg" version="1.1">
<title>OpenSCAD Model</title>
<path d="
M -32.5307,-5 L -34.8462,-5 L -34.8462,-10 L -32.5307,-10 L -32.5307,-11.9 L -32.6289,-12.0547
 L -32.7893,-12.3956 L -32.9057,-12.7539 L -32.9763,-13.124 L -33,-13.5 L -32.9763,-13.876 L -32.9057,-14.2461
 L -32.7893,-14.6044 L -32.6289,-14.9453 L -32.427,-15.2634 L -32.1869,-15.5536 L -31.9123,-15.8115 L -31.6075,-16.033
 L -31.2773,-16.2145 L -30.927,-16.3532 L -30.5621,-16.4469 L -30.1884,-16.4941 L -29.8116,-16.4941 L -29.4379,-16.4469
 L -29.0729,-16.3532 L -28.7227,-16.2145 L -28.3925,-16.033 L -28.0877,-15.8115 L -27.8131,-15.5536 L -27.5729,-15.2634
 L -27.3711,-14.9453 L -27.2107,-14.6044 L -27.0942,-14.2461 L -27.0237,-13.876 L -27,-13.5 L -27.0237,-13.124
 L -27.0942,-12.7539 L -27.2107,-12.3956 L -27.3711,-12.0547 L -27.4693,-11.9 L -27.4693,-10 L -25.1538,-10
 L -25.1538,-5 L -27.4693,-5 L -27.4693,-0 L -17.5307,-0 L -17.5307,-5 L -19.8462,-5
 L -19.8462,-10 L -17.5307,-10 L -17.5307,-11.9 L -17.6289,-12.0547 L -17.7893,-12.3956 L -17.9057,-12.7539
 L -17.9763,-13.124 L -18,-13.5 L -17.9763,-13.876 L -17.9057,-14.2461 L -17.7893,-14.6044 L -17.6289,-14.9453
 L -17.427,-15.2634 L -17.1869,-15.5536 L -16.9123,-15.8115 L -16.6075,-16.033 L -16.2773,-16.2145 L -15.927,-16.3532
 L -15.5621,-16.4469 L -15.1884,-16.4941 L -14.8116,-16.4941 L -14.4379,-16.4469 L -14.0729,-16.3532 L -13.7227,-16.2145
 L -13.3925,-16.033 L -13.0877,-15.8115 L -12.8131,-15.5536 L -12.5729,-15.2634 L -12.3711,-14.9453 L -12.2107,-14.6044
 L -12.0942,-14.2461 L -12.0237,-13.876 L -12,-13.5 L -12.0237,-13.124 L -12.0942,-12.7539 L -12.2107,-12.3956
 L -12.3711,-12.0547 L -12.4693,-11.9 L -12.4693,-10 L -10.1538,-10 L -10.1538,-5 L -12.4693,-5
 L -12.4693,-0 L -2.53072,-0 L -2.53072,-5 L -4.84622,-5 L -4.84622,-10 L -2.53072,-10
 L -2.53072,-11.9 L -2.62891,-12.0547 L -2.78932,-12.3956 L -2.90575,-12.7539 L -2.97633,-13.124 L -3,-13.5
 L -2.97633,-13.876 L -2.90575,-14.2461 L -2.78932,-14.6044 L -2.62891,-14.9453 L -2.42705,-15.2634 L -2.1869,-15.5536
 L -1.91226,-15.8115 L -1.60747,-16.033 L -1.27733,-16.2145 L -0.927048,-16.3532 L -0.562134,-16.4469 L -0.18837,-16.4941
 L 0.18837,-16.4941 L 0.562134,-16.4469 L 0.927048,-16.3532 L 1.27733,-16.2145 L 1.60747,-16.033 L 1.91226,-15.8115
 L 2.1869,-15.5536 L 2.42705,-15.2634 L 2.62891,-14.9453 L 2.78932,-14.6044 L 2.90575,-14.2461 L 2.97633,-13.876
 L 3,-13.5 L 2.97633,-13.124 L 2.90575,-12.7539 L 2.78932,-12.3956 L 2.62891,-12.0547 L 2.53072,-11.9
 L 2.53072,-10 L 4.84622,-10 L 4.84622,-5 L 2.53072,-5 L 2.53072,-0 L 12.4693,-0
 L 12.4693,-5 L 10.1538,-5 L 10.1538,-10 L 12.4693,-10 L 12.4693,-11.9 L 12.3711,-12.0547
 L 12.2107,-12.3956 L 12.0942,-12.7539 L 12.0237,-13.124 L 12,-13.5 L 12.0237,-13.876 L 12.0942,-14.2461
 L 12.2107,-14.6044 L 12.3711,-14.9453 L 12.5729,-15.2634 L 12.8131,-15.5536 L 13.0877,-15.8115 L 13.3925,-16.033
 L 13.7227,-16.2145 L 14.0729,-16.3532 L 14.4379,-16.4469 L 14.8116,-16.4941 L 15.1884,-16.4941 L 15.5621,-16.4469
 L 15.927,-16.3532 L 16.2773,-16.2145 L 16.6075,-16.033 L 16.9123,-15.8115 L 17.1869,-15.5536 L 17.427,-15.2634
 L 17.6289,-14.9453 L 17.7893,-14.6044 L 17.9057,-14.2461 L 17.9763,-13.876 L 18,-13.5 L 17.9763,-13.124
 L 17.9057,-12.7539 L 17.7893,-12.3956 L 17.6289,-12.0547 L 17.5307,-11.9 L 17.5307,-10 L 19.8462,-10
 L 19.8462,-5 L 17.5307,-5 L 17.5307,-0 L 27.4693,-0 L 27.4693,-5 L 25.1538,-5
 L 25.1538,-10 L 27.4693,-10 L 27.4693,-11.9 L 27.3711,-12.0547 L 27.2107,-12.3956 L 27.0942,-12.7539
 L 27.0237,-13.124 L 27,-13.5 L 27.0237,-13.876 L 27.0942,-14.2461 L 27.2107,-14.6044 L 27.3711,-14.9453
 L 27.5729,-15.2634 L 27.8131,-15.5536 L 28.0877,-15.8115 L 28.3925,-16.033 L 28.7227,-16.2145 L 29.0729,-16.3532
 L 29.4379,-16.4469 L 29.8116,-16.4941 L 30.1884,-16.4941 L 30.5621,-16.4469 L 30.927,-16.3532 L 31.2773,-16.2145
 L 31.6075,-16.033 L 31.9123,-15.8115 L 32.1869,-15.5536 L 32.427,-15.2634 L 32.6289,-14.9453 L 32.7893,-14.6044
 L 32.9057,-14.2461 L 32.9763,-13.876 L 33,-13.5 L 32.9763,-13.124 L 32.9057,-12.7539 L 32.7893,-12.3956
 L 32.6289,-12.0547 L 32.5307,-11.9 L 32.5307,-10 L 34.8462,-10 L 34.8462,-5 L 32.5307,-5
 L 32.5307,-0 L 37,-0 L 37,-30.5 L 36.9606,-31.1267 L 36.8429,-31.7434 L 36.6489,-32.3406
 L 36.3815,-32.9088 L 36.0451,-33.4389 L 35.6448,-33.9227 L 35.1871,-34.3526 L 34.6791,-34.7216 L 34.1289,-35.0241
 L 33.5451,-35.2553 L 32.9369,-35.4114 L 32.3139,-35.4901 L -32.3139,-35.4901 L -32.9369,-35.4114 L -33.5451,-35.2553
 L -34.1289,-35.0241 L -34.6791,-34.7216 L -35.1871,-34.3526 L -35.6448,-33.9227 L -36.0451,-33.4389 L -36.3815,-32.9088
 L -36.6489,-32.3406 L -36.8429,-31.7434 L -36.9606,-31.1267 L -37,-30.5 L -37,-0 L -32.5307,-0
 z
M 14.8116,-25.5059 L 14.4379,-25.5531 L 14.0729,-25.6468 L 13.7227,-25.7855 L 13.3925,-25.967 L 13.0877,-26.1884
 L 12.8131,-26.4464 L 12.5729,-26.7366 L 12.3711,-27.0547 L 12.2107,-27.3956 L 12.0942,-27.7539 L 12.0237,-28.124
 L 12,-28.5 L 12.0237,-28.876 L 12.0942,-29.2461 L 12.2107,-29.6044 L 12.3711,-29.9453 L 12.5729,-30.2634
 L 12.8131,-30.5536 L 13.0877,-30.8115 L 13.3925,-31.033 L 13.7227,-31.2145 L 14.0729,-31.3532 L 14.4379,-31.4469
 L 14.8116,-31.4941 L 15.1884,-31.4941 L 15.5621,-31.4469 L 15.927,-31.3532 L 16.2773,-31.2145 L 16.6075,-31.033
 L 16.9123,-30.8115 L 17.1869,-30.5536 L 17.427,-30.2634 L 17.6289,-29.9453 L 17.7893,-29.6044 L 17.9057,-29.2461
 L 17.9763,-28.876 L 18,-28.5 L 17.9763,-28.124 L 17.9057,-27.7539 L 17.7893,-27.3956 L 17.6289,-27.0547
 L 17.427,-26.7366 L 17.1869,-26.4464 L 16.9123,-26.1884 L 16.6075,-25.967 L 16.2773,-25.7855 L 15.927,-25.6468
 L 15.5621,-25.5531 L 15.1884,-25.5059 z
M 29.8116,-25.5059 L 29.4379,-25.5531 L 29.0729,-25.6468 L 28.7227,-25.7855 L 28.3925,-25.967 L 28.0877,-26.1884
 L 27.8131,-26.4464 L 27.5729,-26.7366 L 27.3711,-27.0547 L 27.2107,-27.3956 L 27.0942,-27.7539 L 27.0237,-28.124
 L 27,-28.5 L 27.0237,-28.876 L 27.0942,-29.2461 L 27.2107,-29.6044 L 27.3711,-29.9453 L 27.5729,-30.2634
 L 27.8131,-30.5536 L 28.0877,-30.8115 L 28.3925,-31.033 L 28.7227,-31.2145 L 29.0729,-31.3532 L 29.4379,-31.4469
 L 29.8116,-31.4941 L 30.1884,-31.4941 L 30.5621,-31.4469 L 30.927,-31.3532 L 31.2773,-31.2145 L 31.6075,-31.033
 L 31.9123,-30.8115 L 32.1869,-30.5536 L 32.427,-30.2634 L 32.6289,-29.9453 L 32.7893,-29.6044 L 32.9057,-29.2461
 L 32.9763,-28.876 L 33,-28.5 L 32.9763,-28.124 L 32.9057,-27.7539 L 32.7893,-27.3956 L 32.6289,-27.0547
 L 32.427,-26.7366 L 32.1869,-26.4464 L 31.9123,-26.1884 L 31.6075,-25.967 L 31.2773,-25.7855 L 30.927,-25.6468
 L 30.5621,-25.5531 L 30.1884,-25.5059 z
M -0.18837,-25.5059 L -0.562134,-25.5531 L -0.927048,-25.6468 L -1.27733,-25.7855 L -1.60747,-25.967 L -1.91226,-26.1884
 L -2.1869,-26.4464 L -2.42705,-26.7366 L -2.62891,-27.0547 L -2.78932,-27.3956 L -2.90575,-27.7539 L -2.97633,-28.124
 L -3,-28.5 L -2.97633,-28.876 L -2.90575,-29.2461 L -2.78932,-29.6044 L -2.62891,-29.9453 L -2.42705,-30.2634
 L -2.1869,-30.5536 L -1.91226,-30.8115 L -1.60747,-31.033 L -1.27733,-31.2145 L -0.927048,-31.3532 L -0.562134,-31.4469
 L -0.18837,-31.4941 L 0.18837,-31.4941 L 0.562134,-31.4469 L 0.927048,-31.3532 L 1.27733,-31.2145 L 1.60747,-31.033
 L 1.91226,-30.8115 L 2.1869,-30.5536 L 2.42705,-30.2634 L 2.62891,-29.9453 L 2.78932,-29.6044 L 2.90575,-29.2461
 L 2.97633,-28.876 L 3,-28.5 L 2.97633,-28.124 L 2.90575,-27.7539 L 2.78932,-27.3956 L 2.62891,-27.0547
 L 2.42705,-26.7366 L 2.1869,-26.4464 L 1.91226,-26.1884 L 1.60747,-25.967 L 1.27733,-25.7855 L 0.927048,-25.6468
 L 0.562134,-25.5531 L 0.18837,-25.5059 z
M -30.1884,-25.5059 L -30.5621,-25.5531 L -30.927,-25.6468 L -31.2773,-25.7855 L -31.6075,-25.967 L -31.9123,-26.1884
 L -32.1869,-26.4464 L -32.427,-26.7366 L -32.6289,-27.0547 L -32.7893,-27.3956 L -32.9057,-27.7539 L -32.9763,-28.124
 L -33,-28.5 L -32.9763,-28.876 L -32.9057,-29.2461 L -32.7893,-29.6044 L -32.6289,-29.9453 L -32.427,-30.2634
 L -32.1869,-30.5536 L -31.9123,-30.8115 L -31.6075,-31.033 L -31.2773,-31.2145 L -30.927,-31.3532 L -30.5621,-31.4469
 L -30.1884,-31.4941 L -29.8116,-31.4941 L -29.4379,-31.4469 L -29.0729,-31.3532 L -28.7227,-31.2145 L -28.3925,-31.033
 L -28.0877,-30.8115 L -27.8131,-30.5536 L -27.5729,-30.2634 L -27.3711,-29.9453 L -27.2107,-29.6044 L -27.0942,-29.2461
 L -27.0237,-28.876 L -27,-28.5 L -27.0237,-28.124 L -27.0942,-27.7539 L -27.2107,-27.3956 L -27.3711,-27.0547
 L -27.5729,-26.7366 L -27.8131,-26.4464 L -28.0877,-26.1884 L -28.3925,-25.967 L -28.7227,-25.7855 L -29.0729,-25.6468
 L -29.4379,-25.5531 L -29.8116,-25.5059 z
M -15.1884,-25.5059 L -15.5621,-25.5531 L -15.927,-25.6468 L -16.2773,-25.7855 L -16.6075,-25.967 L -16.9123,-26.1884
 L -17.1869,-26.4464 L -17.427,-26.7366 L -17.6289,-27.0547 L -17.7893,-27.3956 L -17.9057,-27.7539 L -17.9763,-28.124
 L -18,-28.5 L -17.9763,-28.876 L -17.9057,-29.2461 L -17.7893,-29.6044 L -17.6289,-29.9453 L -17.427,-30.2634
 L -17.1869,-30.5536 L -16.9123,-30.8115 L -16.6075,-31.033 L -16.2773,-31.2145 L -15.927,-31.3532 L -15.5621,-31.4469
 L -15.1884,-31.4941 L -14.8116,-31.4941 L -14.4379,-31.4469 L -14.0729,-31.3532 L -13.7227,-31.2145 L -13.3925,-31.033
 L -13.0877,-30.8115 L -12.8131,-30.5536 L -12.5729,-30.2634 L -12.3711,-29.9453 L -12.2107,-29.6044 L -12.0942,-29.2461
 L -12.0237,-28.876 L -12,-28.5 L -12.0237,-28.124 L -12.0942,-27.7539 L -12.2107,-27.3956 L -12.3711,-27.0547
 L -12.5729,-26.7366 L -12.8131,-26.4464 L -13.0877,-26.1884 L -13.3925,-25.967 L -13.7227,-25.7855 L -14.0729,-25.6468
 L -14.4379,-25.5531 L -14.8116,-25.5059 z
M -22.5942,-12.0029 L -22.7811,-12.0266 L -22.9635,-12.0734 L -23.1387,-12.1427 L -23.3037,-12.2335 L -23.4561,-12.3442
 L -23.5934,-12.4732 L -23.7135,-12.6183 L -23.8145,-12.7774 L -23.8947,-12.9478 L -23.9529,-13.127 L -23.9882,-13.312
 L -24,-13.5 L -23.9882,-13.688 L -23.9529,-13.873 L -23.8947,-14.0522 L -23.8145,-14.2226 L -23.7135,-14.3817
 L -23.5934,-14.5268 L -23.4561,-14.6558 L -23.3037,-14.7665 L -23.1387,-14.8572 L -22.9635,-14.9266 L -22.7811,-14.9734
 L -22.5942,-14.997 L -22.4058,-14.997 L -22.2189,-14.9734 L -22.0365,-14.9266 L -21.8613,-14.8572 L -21.6963,-14.7665
 L -21.5439,-14.6558 L -21.4065,-14.5268 L -21.2865,-14.3817 L -21.1855,-14.2226 L -21.1053,-14.0522 L -21.0471,-13.873
 L -21.0118,-13.688 L -21,-13.5 L -21.0118,-13.312 L -21.0471,-13.127 L -21.1053,-12.9478 L -21.1855,-12.7774
 L -21.2865,-12.6183 L -21.4065,-12.4732 L -21.5439,-12.3442 L -21.6963,-12.2335 L -21.8613,-12.1427 L -22.0365,-12.0734
 L -22.2189,-12.0266 L -22.4058,-12.0029 z
M -7.59418,-12.0029 L -7.78107,-12.0266 L -7.96352,-12.0734 L -8.13866,-12.1427 L -8.30373,-12.2335 L -8.45613,-12.3442
 L -8.59344,-12.4732 L -8.71352,-12.6183 L -8.81445,-12.7774 L -8.89465,-12.9478 L -8.95287,-13.127 L -8.98816,-13.312
 L -9,-13.5 L -8.98816,-13.688 L -8.95287,-13.873 L -8.89465,-14.0522 L -8.81445,-14.2226 L -8.71352,-14.3817
 L -8.59344,-14.5268 L -8.45613,-14.6558 L -8.30373,-14.7665 L -8.13866,-14.8572 L -7.96352,-14.9266 L -7.78107,-14.9734
 L -7.59418,-14.997 L -7.40581,-14.997 L -7.21892,-14.9734 L -7.03647,-14.9266 L -6.86133,-14.8572 L -6.69626,-14.7665
 L -6.54385,-14.6558 L -6.40654,-14.5268 L -6.28647,-14.3817 L -6.18553,-14.2226 L -6.10533,-14.0522 L -6.04712,-13.873
 L -6.01183,-13.688 L -6,-13.5 L -6.01183,-13.312 L -6.04712,-13.127 L -6.10533,-12.9478 L -6.18553,-12.7774
 L -6.28647,-12.6183 L -6.40654,-12.4732 L -6.54385,-12.3442 L -6.69626,-12.2335 L -6.86133,-12.1427 L -7.03647,-12.0734
 L -7.21892,-12.0266 L -7.40581,-12.0029 z
M 7.40581,-12.0029 L 7.21892,-12.0266 L 7.03647,-12.0734 L 6.86133,-12.1427 L 6.69626,-12.2335 L 6.54385,-12.3442
 L 6.40654,-12.4732 L 6.28647,-12.6183 L 6.18553,-12.7774 L 6.10533,-12.9478 L 6.04712,-13.127 L 6.01183,-13.312
 L 6,-13.5 L 6.01183,-13.688 L 6.04712,-13.873 L 6.10533,-14.0522 L 6.18553,-14.2226 L 6.28647,-14.3817
 L 6.40654,-14.5268 L 6.54385,-14.6558 L 6.69626,-14.7665 L 6.86133,-14.8572 L 7.03647,-14.9266 L 7.21892,-14.9734
 L 7.40581,-14.997 L 7.59418,-14.997 L 7.78107,-14.9734 L 7.96352,-14.9266 L 8.13866,-14.8572 L 8.30373,-14.7665
 L 8.45613,-14.6558 L 8.59344,-14.5268 L 8.71352,-14.3817 L 8.81445,-14.2226 L 8.89465,-14.0522 L 8.95287,-13.873
 L 8.98816,-13.688 L 9,-13.5 L 8.98816,-13.312 L 8.95287,-13.127 L 8.89465,-12.9478 L 8.81445,-12.7774
 L 8.71352,-12.6183 L 8.59344,-12.4732 L 8.45613,-12.3442 L 8.30373,-12.2335 L 8.13866,-12.1427 L 7.96352,-12.0734
 L 7.78107,-12.0266 L 7.59418,-12.0029 z
" stroke="black" fill="lightgray" stroke-width="0.5"/>
</svg>
