<?xml version="1.0" standalone="no"?>
<!DOCTYPE svg PUBLIC "-//W3C//DTD SVG 1.1//EN" "http://www.w3.org/Graphics/SVG/1.1/DTD/svg11.dtd">
<svg width="38mm" height="32mm" viewBox="-19 -52 38 32" xmlns="http://www.w3.org/2000/svg" version="1.1">
<title>OpenSCAD Model</title>
<path d="
M 16.4684,-44.5443 L 16.7725,-44.6224 L 17.0644,-44.7379 L 17.3396,-44.8892 L 17.5936,-45.0737 L 17.8224,-45.2886
 L 18.0225,-45.5305 L 18.1908,-45.7956 L 18.3244,-46.0797 L 18.4214,-46.3783 L 18.4803,-46.6867 L 18.5,-47
 L 18.5,-49 L 18.4803,-49.3133 L 18.4214,-49.6217 L 18.3244,-49.9203 L 18.1908,-50.2044 L 18.0225,-50.4695
 L 17.8224,-50.7114 L 17.5936,-50.9263 L 17.3396,-51.1108 L 17.0644,-51.2621 L 16.7725,-51.3776 L 16.4684,-51.4557
 L 16.157,-51.4951 L -16.157,-51.4951 L -16.4684,-51.4557 L -16.7725,-51.3776 L -17.0644,-51.2621 L -17.3396,-51.1108
 L -17.5936,-50.9263 L -17.8224,-50.7114 L -18.0225,-50.4695 L -18.1908,-50.2044 L -18.3244,-49.9203 L -18.4214,-49.6217
 L -18.4803,-49.3133 L -18.5,-49 L -18.5,-47 L -18.4803,-46.6867 L -18.4214,-46.3783 L -18.3244,-46.0797
 L -18.1908,-45.7956 L -18.0225,-45.5305 L -17.8224,-45.2886 L -17.5936,-45.0737 L -17.3396,-44.8892 L -17.0644,-44.7379
 L -16.7725,-44.6224 L -16.4684,-44.5443 L -16.157,-44.5049 L 16.157,-44.5049 z
M -15.0942,-46.503 L -15.2811,-46.5266 L -15.4635,-46.5734 L -15.6387,-46.6428 L -15.8037,-46.7335 L -15.9561,-46.8442
 L -16.0934,-46.9732 L -16.2135,-47.1183 L -16.3145,-47.2774 L -16.3947,-47.4478 L -16.4529,-47.627 L -16.4882,-47.812
 L -16.5,-48 L -16.4882,-48.188 L -16.4529,-48.373 L -16.3947,-48.5522 L -16.3145,-48.7226 L -16.2135,-48.8817
 L -16.0934,-49.0268 L -15.9561,-49.1558 L -15.8037,-49.2665 L -15.6387,-49.3572 L -15.4635,-49.4266 L -15.2811,-49.4734
 L -15.0942,-49.497 L -14.9058,-49.497 L -14.7189,-49.4734 L -14.5365,-49.4266 L -14.3613,-49.3572 L -14.1963,-49.2665
 L -14.0439,-49.1558 L -13.9065,-49.0268 L -13.7865,-48.8817 L -13.6855,-48.7226 L -13.6053,-48.5522 L -13.5471,-48.373
 L -13.5118,-48.188 L -13.5,-48 L -13.5118,-47.812 L -13.5471,-47.627 L -13.6053,-47.4478 L -13.6855,-47.2774
 L -13.7865,-47.1183 L -13.9065,-46.9732 L -14.0439,-46.8442 L -14.1963,-46.7335 L -14.3613,-46.6428 L -14.5365,-46.5734
 L -14.7189,-46.5266 L -14.9058,-46.503 z
M 14.9058,-46.503 L 14.7189,-46.5266 L 14.5365,-46.5734 L 14.3613,-46.6428 L 14.1963,-46.7335 L 14.0439,-46.8442
 L 13.9065,-46.9732 L 13.7865,-47.1183 L 13.6855,-47.2774 L 13.6053,-47.4478 L 13.5471,-47.627 L 13.5118,-47.812
 L 13.5,-48 L 13.5118,-48.188 L 13.5471,-48.373 L 13.6053,-48.5522 L 13.6855,-48.7226 L 13.7865,-48.8817
 L 13.9065,-49.0268 L 14.0439,-49.1558 L 14.1963,-49.2665 L 14.3613,-49.3572 L 14.5365,-49.4266 L 14.7189,-49.4734
 L 14.9058,-49.497 L 15.0942,-49.497 L 15.2811,-49.4734 L 15.4635,-49.4266 L 15.6387,-49.3572 L 15.8037,-49.2665
 L 15.9561,-49.1558 L 16.0934,-49.0268 L 16.2135,-48.8817 L 16.3145,-48.7226 L 16.3947,-48.5522 L 16.4529,-48.373
 L 16.4882,-48.188 L 16.5,-48 L 16.4882,-47.812 L 16.4529,-47.627 L 16.3947,-47.4478 L 16.3145,-47.2774
 L 16.2135,-47.1183 L 16.0934,-46.9732 L 15.9561,-46.8442 L 15.8037,-46.7335 L 15.6387,-46.6428 L 15.4635,-46.5734
 L 15.2811,-46.5266 L 15.0942,-46.503 z
M 7.40581,-46.503 L 7.21892,-46.5266 L 7.03647,-46.5734 L 6.86133,-46.6428 L 6.69626,-46.7335 L 6.54385,-46.8442
 L 6.40654,-46.9732 L 6.28647,-47.1183 L 6.18553,-47.2774 L 6.10533,-47.4478 L 6.04712,-47.627 L 6.01183,-47.812
 L 6,-48 L 6.01183,-48.188 L 6.04712,-48.373 L 6.10533,-48.5522 L 6.18553,-48.7226 L 6.28647,-48.8817
 L 6.40654,-49.0268 L 6.54385,-49.1558 L 6.69626,-49.2665 L 6.86133,-49.3572 L 7.03647,-49.4266 L 7.21892,-49.4734
 L 7.40581,-49.497 L 7.59418,-49.497 L 7.78107,-49.4734 L 7.96352,-49.4266 L 8.13866,-49.3572 L 8.30373,-49.2665
 L 8.45613,-49.1558 L 8.59344,-49.0268 L 8.71352,-48.8817 L 8.81445,-48.7226 L 8.89465,-48.5522 L 8.95287,-48.373
 L 8.98816,-48.188 L 9,-48 L 8.98816,-47.812 L 8.95287,-47.627 L 8.89465,-47.4478 L 8.81445,-47.2774
 L 8.71352,-47.1183 L 8.59344,-46.9732 L 8.45613,-46.8442 L 8.30373,-46.7335 L 8.13866,-46.6428 L 7.96352,-46.5734
 L 7.78107,-46.5266 L 7.59418,-46.503 z
M -7.59418,-46.503 L -7.78107,-46.5266 L -7.96352,-46.5734 L -8.13866,-46.6428 L -8.30373,-46.7335 L -8.45613,-46.8442
 L -8.59344,-46.9732 L -8.71352,-47.1183 L -8.81445,-47.2774 L -8.89465,-47.4478 L -8.95287,-47.627 L -8.98816,-47.812
 L -9,-48 L -8.98816,-48.188 L -8.95287,-48.373 L -8.89465,-48.5522 L -8.81445,-48.7226 L -8.71352,-48.8817
 L -8.59344,-49.0268 L -8.45613,-49.1558 L -8.30373,-49.2665 L -8.13866,-49.3572 L -7.96352,-49.4266 L -7.78107,-49.4734
 L -7.59418,-49.497 L -7.40581,-49.497 L -7.21892,-49.4734 L -7.03647,-49.4266 L -6.86133,-49.3572 L -6.69626,-49.2665
 L -6.54385,-49.1558 L -6.40654,-49.0268 L -6.28647,-48.8817 L -6.18553,-48.7226 L -6.10533,-48.5522 L -6.04712,-48.373
 L -6.01183,-48.188 L -6,-48 L -6.01183,-47.812 L -6.04712,-47.627 L -6.10533,-47.4478 L -6.18553,-47.2774
 L -6.28647,-47.1183 L -6.40654,-46.9732 L -6.54385,-46.8442 L -6.69626,-46.7335 L -6.86133,-46.6428 L -7.03647,-46.5734
 L -7.21892,-46.5266 L -7.40581,-46.503 z
M -0.0941772,-46.503 L -0.281067,-46.5266 L -0.463516,-46.5734 L -0.638657,-46.6428 L -0.803726,-46.7335 L -0.956131,-46.8442
 L -1.09344,-46.9732 L -1.21352,-47.1183 L -1.31445,-47.2774 L -1.39465,-47.4478 L -1.45287,-47.627 L -1.48816,-47.812
 L -1.5,-48 L -1.48816,-48.188 L -1.45287,-48.373 L -1.39465,-48.5522 L -1.31445,-48.7226 L -1.21352,-48.8817
 L -1.09344,-49.0268 L -0.956131,-49.1558 L -0.803726,-49.2665 L -0.638657,-49.3572 L -0.463516,-49.4266 L -0.281067,-49.4734
 L -0.0941772,-49.497 L 0.0941772,-49.497 L 0.281067,-49.4734 L 0.463516,-49.4266 L 0.638657,-49.3572 L 0.803726,-49.2665
 L 0.956131,-49.1558 L 1.09344,-49.0268 L 1.21352,-48.8817 L 1.31445,-48.7226 L 1.39465,-48.5522 L 1.45287,-48.373
 L 1.48816,-48.188 L 1.5,-48 L 1.48816,-47.812 L 1.45287,-47.627 L 1.39465,-47.4478 L 1.31445,-47.2774
 L 1.21352,-47.1183 L 1.09344,-46.9732 L 0.956131,-46.8442 L 0.803726,-46.7335 L 0.638657,-46.6428 L 0.463516,-46.5734
 L 0.281067,-46.5266 L 0.0941772,-46.503 z
M 16.4684,-20.5443 L 16.7725,-20.6224 L 17.0644,-20.7379 L 17.3396,-20.8892 L 17.5936,-21.0737 L 17.8224,-21.2886
 L 18.0225,-21.5305 L 18.1908,-21.7956 L 18.3244,-22.0797 L 18.4214,-22.3783 L 18.4803,-22.6867 L 18.5,-23
 L 18.5,-25 L 18.4803,-25.3133 L 18.4214,-25.6217 L 18.3244,-25.9203 L 18.1908,-26.2044 L 18.0225,-26.4695
 L 17.8224,-26.7114 L 17.5936,-26.9263 L 17.3396,-27.1108 L 17.0644,-27.2621 L 16.7725,-27.3776 L 16.4684,-27.4557
 L 16.157,-27.4951 L -16.157,-27.4951 L -16.4684,-27.4557 L -16.7725,-27.3776 L -17.0644,-27.2621 L -17.3396,-27.1108
 L -17.5936,-26.9263 L -17.8224,-26.7114 L -18.0225,-26.4695 L -18.1908,-26.2044 L -18.3244,-25.9203 L -18.4214,-25.6217
 L -18.4803,-25.3133 L -18.5,-25 L -18.5,-23 L -18.4803,-22.6867 L -18.4214,-22.3783 L -18.3244,-22.0797
 L -18.1908,-21.7956 L -18.0225,-21.5305 L -17.8224,-21.2886 L -17.5936,-21.0737 L -17.3396,-20.8892 L -17.0644,-20.7379
 L -16.7725,-20.6224 L -16.4684,-20.5443 L -16.157,-20.5049 L 16.157,-20.5049 z
M 14.9058,-22.503 L 14.7189,-22.5266 L 14.5365,-22.5734 L 14.3613,-22.6428 L 14.1963,-22.7335 L 14.0439,-22.8442
 L 13.9065,-22.9732 L 13.7865,-23.1183 L 13.6855,-23.2774 L 13.6053,-23.4478 L 13.5471,-23.627 L 13.5118,-23.812
 L 13.5,-24 L 13.5118,-24.188 L 13.5471,-24.373 L 13.6053,-24.5522 L 13.6855,-24.7226 L 13.7865,-24.8817
 L 13.9065,-25.0268 L 14.0439,-25.1558 L 14.1963,-25.2665 L 14.3613,-25.3572 L 14.5365,-25.4266 L 14.7189,-25.4734
 L 14.9058,-25.497 L 15.0942,-25.497 L 15.2811,-25.4734 L 15.4635,-25.4266 L 15.6387,-25.3572 L 15.8037,-25.2665
 L 15.9561,-25.1558 L 16.0934,-25.0268 L 16.2135,-24.8817 L 16.3145,-24.7226 L 16.3947,-24.5522 L 16.4529,-24.373
 L 16.4882,-24.188 L 16.5,-24 L 16.4882,-23.812 L 16.4529,-23.627 L 16.3947,-23.4478 L 16.3145,-23.2774
 L 16.2135,-23.1183 L 16.0934,-22.9732 L 15.9561,-22.8442 L 15.8037,-22.7335 L 15.6387,-22.6428 L 15.4635,-22.5734
 L 15.2811,-22.5266 L 15.0942,-22.503 z
M -15.0942,-22.503 L -15.2811,-22.5266 L -15.4635,-22.5734 L -15.6387,-22.6428 L -15.8037,-22.7335 L -15.9561,-22.8442
 L -16.0934,-22.9732 L -16.2135,-23.1183 L -16.3145,-23.2774 L -16.3947,-23.4478 L -16.4529,-23.627 L -16.4882,-23.812
 L -16.5,-24 L -16.4882,-24.188 L -16.4529,-24.373 L -16.3947,-24.5522 L -16.3145,-24.7226 L -16.2135,-24.8817
 L -16.0934,-25.0268 L -15.9561,-25.1558 L -15.8037,-25.2665 L -15.6387,-25.3572 L -15.4635,-25.4266 L -15.2811,-25.4734
 L -15.0942,-25.497 L -14.9058,-25.497 L -14.7189,-25.4734 L -14.5365,-25.4266 L -14.3613,-25.3572 L -14.1963,-25.2665
 L -14.0439,-25.1558 L -13.9065,-25.0268 L -13.7865,-24.8817 L -13.6855,-24.7226 L -13.6053,-24.5522 L -13.5471,-24.373
 L -13.5118,-24.188 L -13.5,-24 L -13.5118,-23.812 L -13.5471,-23.627 L -13.6053,-23.4478 L -13.6855,-23.2774
 L -13.7865,-23.1183 L -13.9065,-22.9732 L -14.0439,-22.8442 L -14.1963,-22.7335 L -14.3613,-22.6428 L -14.5365,-22.5734
 L -14.7189,-22.5266 L -14.9058,-22.503 z
M 7.40581,-22.503 L 7.21892,-22.5266 L 7.03647,-22.5734 L 6.86133,-22.6428 L 6.69626,-22.7335 L 6.54385,-22.8442
 L 6.40654,-22.9732 L 6.28647,-23.1183 L 6.18553,-23.2774 L 6.10533,-23.4478 L 6.04712,-23.627 L 6.01183,-23.812
 L 6,-24 L 6.01183,-24.188 L 6.04712,-24.373 L 6.10533,-24.5522 L 6.18553,-24.7226 L 6.28647,-24.8817
 L 6.40654,-25.0268 L 6.54385,-25.1558 L 6.69626,-25.2665 L 6.86133,-25.3572 L 7.03647,-25.4266 L 7.21892,-25.4734
 L 7.40581,-25.497 L 7.59418,-25.497 L 7.78107,-25.4734 L 7.96352,-25.4266 L 8.13866,-25.3572 L 8.30373,-25.2665
 L 8.45613,-25.1558 L 8.59344,-25.0268 L 8.71352,-24.8817 L 8.81445,-24.7226 L 8.89465,-24.5522 L 8.95287,-24.373
 L 8.98816,-24.188 L 9,-24 L 8.98816,-23.812 L 8.95287,-23.627 L 8.89465,-23.4478 L 8.81445,-23.2774
 L 8.71352,-23.1183 L 8.59344,-22.9732 L 8.45613,-22.8442 L 8.30373,-22.7335 L 8.13866,-22.6428 L 7.96352,-22.5734
 L 7.78107,-22.5266 L 7.59418,-22.503 z
M -7.59418,-22.503 L -7.78107,-22.5266 L -7.96352,-22.5734 L -8.13866,-22.6428 L -8.30373,-22.7335 L -8.45613,-22.8442
 L -8.59344,-22.9732 L -8.71352,-23.1183 L -8.81445,-23.2774 L -8.89465,-23.4478 L -8.95287,-23.627 L -8.98816,-23.812
 L -9,-24 L -8.98816,-24.188 L -8.95287,-24.373 L -8.89465,-24.5522 L -8.81445,-24.7226 L -8.71352,-24.8817
 L -8.59344,-25.0268 L -8.45613,-25.1558 L -8.30373,-25.2665 L -8.13866,-25.3572 L -7.96352,-25.4266 L -7.78107,-25.4734
 L -7.59418,-25.497 L -7.40581,-25.497 L -7.21892,-25.4734 L -7.03647,-25.4266 L -6.86133,-25.3572 L -6.69626,-25.2665
 L -6.54385,-25.1558 L -6.40654,-25.0268 L -6.28647,-24.8817 L -6.18553,-24.7226 L -6.10533,-24.5522 L -6.04712,-24.373
 L -6.01183,-24.188 L -6,-24 L -6.01183,-23.812 L -6.04712,-23.627 L -6.10533,-23.4478 L -6.18553,-23.2774
 L -6.28647,-23.1183 L -6.40654,-22.9732 L -6.54385,-22.8442 L -6.69626,-22.7335 L -6.86133,-22.6428 L -7.03647,-22.5734
 L -7.21892,-22.5266 L -7.40581,-22.503 z
M -0.0941772,-22.503 L -0.281067,-22.5266 L -0.463516,-22.5734 L -0.638657,-22.6428 L -0.803726,-22.7335 L -0.956131,-22.8442
 L -1.09344,-22.9732 L -1.21352,-23.1183 L -1.31445,-23.2774 L -1.39465,-23.4478 L -1.45287,-23.627 L -1.48816,-23.812
 L -1.5,-24 L -1.48816,-24.188 L -1.45287,-24.373 L -1.39465,-24.5522 L -1.31445,-24.7226 L -1.21352,-24.8817
 L -1.09344,-25.0268 L -0.956131,-25.1558 L -0.803726,-25.2665 L -0.638657,-25.3572 L -0.463516,-25.4266 L -0.281067,-25.4734
 L -0.0941772,-25.497 L 0.0941772,-25.497 L 0.281067,-25.4734 L 0.463516,-25.4266 L 0.638657,-25.3572 L 0.803726,-25.2665
 L 0.956131,-25.1558 L 1.09344,-25.0268 L 1.21352,-24.8817 L 1.31445,-24.7226 L 1.39465,-24.5522 L 1.45287,-24.373
 L 1.48816,-24.188 L 1.5,-24 L 1.48816,-23.812 L 1.45287,-23.627 L 1.39465,-23.4478 L 1.31445,-23.2774
 L 1.21352,-23.1183 L 1.09344,-22.9732 L 0.956131,-22.8442 L 0.803726,-22.7335 L 0.638657,-22.6428 L 0.463516,-22.5734
 L 0.281067,-22.5266 L 0.0941772,-22.503 z
" stroke="black" fill="lightgray" stroke-width="0.5"/>
</svg>
