<?xml version="1.0" standalone="no"?>
<!DOCTYPE svg PUBLIC "-//W3C//DTD SVG 1.1//EN" "http://www.w3.org/Graphics/SVG/1.1/DTD/svg11.dtd">
<svg width="44mm" height="60mm" viewBox="-22 -99 44 60" xmlns="http://www.w3.org/2000/svg" version="1.1">
<title>OpenSCAD Model</title>
<path d="
M 17.9369,-39.5886 L 18.5451,-39.7447 L 19.1289,-39.9759 L 19.6791,-40.2784 L 20.1871,-40.6474 L 20.6448,-41.0773
 L 21.0451,-41.5611 L 21.3815,-42.0912 L 21.6489,-42.6594 L 21.8429,-43.2566 L 21.9606,-43.8733 L 22,-44.5
 L 22,-93.5 L 21.9606,-94.1267 L 21.8429,-94.7434 L 21.6489,-95.3406 L 21.3815,-95.9088 L 21.0451,-96.4389
 L 20.6448,-96.9227 L 20.1871,-97.3526 L 19.6791,-97.7216 L 19.1289,-98.0241 L 18.5451,-98.2553 L 17.9369,-98.4114
 L 17.3139,-98.4901 L -17.3139,-98.4901 L -17.9369,-98.4114 L -18.5451,-98.2553 L -19.1289,-98.0241 L -19.6791,-97.7216
 L -20.1871,-97.3526 L -20.6448,-96.9227 L -21.0451,-96.4389 L -21.3815,-95.9088 L -21.6489,-95.3406 L -21.8429,-94.7434
 L -21.9606,-94.1267 L -22,-93.5 L -22,-44.5 L -21.9606,-43.8733 L -21.8429,-43.2566 L -21.6489,-42.6594
 L -21.3815,-42.0912 L -21.0451,-41.5611 L -20.6448,-41.0773 L -20.1871,-40.6474 L -19.6791,-40.2784 L -19.1289,-39.9759
 L -18.5451,-39.7447 L -17.9369,-39.5886 L -17.3139,-39.5099 L 17.3139,-39.5099 z
M -0.18837,-88.5059 L -0.562134,-88.5531 L -0.927048,-88.6468 L -1.27733,-88.7855 L -1.60747,-88.967 L -1.91226,-89.1884
 L -2.1869,-89.4464 L -2.42705,-89.7366 L -2.62891,-90.0547 L -2.78932,-90.3956 L -2.90575,-90.7539 L -2.97633,-91.124
 L -3,-91.5 L -2.97633,-91.876 L -2.90575,-92.2461 L -2.78932,-92.6044 L -2.62891,-92.9453 L -2.42705,-93.2634
 L -2.1869,-93.5536 L -1.91226,-93.8115 L -1.60747,-94.033 L -1.27733,-94.2145 L -0.927048,-94.3532 L -0.562134,-94.4469
 L -0.18837,-94.4941 L 0.18837,-94.4941 L 0.562134,-94.4469 L 0.927048,-94.3532 L 1.27733,-94.2145 L 1.60747,-94.033
 L 1.91226,-93.8115 L 2.1869,-93.5536 L 2.42705,-93.2634 L 2.62891,-92.9453 L 2.78932,-92.6044 L 2.90575,-92.2461
 L 2.97633,-91.876 L 3,-91.5 L 2.97633,-91.124 L 2.90575,-90.7539 L 2.78932,-90.3956 L 2.62891,-90.0547
 L 2.42705,-89.7366 L 2.1869,-89.4464 L 1.91226,-89.1884 L 1.60747,-88.967 L 1.27733,-88.7855 L 0.927048,-88.6468
 L 0.562134,-88.5531 L 0.18837,-88.5059 z
M -15.1884,-88.5059 L -15.5621,-88.5531 L -15.927,-88.6468 L -16.2773,-88.7855 L -16.6075,-88.967 L -16.9123,-89.1884
 L -17.1869,-89.4464 L -17.427,-89.7366 L -17.6289,-90.0547 L -17.7893,-90.3956 L -17.9057,-90.7539 L -17.9763,-91.124
 L -18,-91.5 L -17.9763,-91.876 L -17.9057,-92.2461 L -17.7893,-92.6044 L -17.6289,-92.9453 L -17.427,-93.2634
 L -17.1869,-93.5536 L -16.9123,-93.8115 L -16.6075,-94.033 L -16.2773,-94.2145 L -15.927,-94.3532 L -15.5621,-94.4469
 L -15.1884,-94.4941 L -14.8116,-94.4941 L -14.4379,-94.4469 L -14.0729,-94.3532 L -13.7227,-94.2145 L -13.3925,-94.033
 L -13.0877,-93.8115 L -12.8131,-93.5536 L -12.5729,-93.2634 L -12.3711,-92.9453 L -12.2107,-92.6044 L -12.0942,-92.2461
 L -12.0237,-91.876 L -12,-91.5 L -12.0237,-91.124 L -12.0942,-90.7539 L -12.2107,-90.3956 L -12.3711,-90.0547
 L -12.5729,-89.7366 L -12.8131,-89.4464 L -13.0877,-89.1884 L -13.3925,-88.967 L -13.7227,-88.7855 L -14.0729,-88.6468
 L -14.4379,-88.5531 L -14.8116,-88.5059 z
M 14.8116,-88.5059 L 14.4379,-88.5531 L 14.0729,-88.6468 L 13.7227,-88.7855 L 13.3925,-88.967 L 13.0877,-89.1884
 L 12.8131,-89.4464 L 12.5729,-89.7366 L 12.3711,-90.0547 L 12.2107,-90.3956 L 12.0942,-90.7539 L 12.0237,-91.124
 L 12,-91.5 L 12.0237,-91.876 L 12.0942,-92.2461 L 12.2107,-92.6044 L 12.3711,-92.9453 L 12.5729,-93.2634
 L 12.8131,-93.5536 L 13.0877,-93.8115 L 13.3925,-94.033 L 13.7227,-94.2145 L 14.0729,-94.3532 L 14.4379,-94.4469
 L 14.8116,-94.4941 L 15.1884,-94.4941 L 15.5621,-94.4469 L 15.927,-94.3532 L 16.2773,-94.2145 L 16.6075,-94.033
 L 16.9123,-93.8115 L 17.1869,-93.5536 L 17.427,-93.2634 L 17.6289,-92.9453 L 17.7893,-92.6044 L 17.9057,-92.2461
 L 17.9763,-91.876 L 18,-91.5 L 17.9763,-91.124 L 17.9057,-90.7539 L 17.7893,-90.3956 L 17.6289,-90.0547
 L 17.427,-89.7366 L 17.1869,-89.4464 L 16.9123,-89.1884 L 16.6075,-88.967 L 16.2773,-88.7855 L 15.927,-88.6468
 L 15.5621,-88.5531 L 15.1884,-88.5059 z
M 7.40581,-90.003 L 7.21892,-90.0266 L 7.03647,-90.0734 L 6.86133,-90.1427 L 6.69626,-90.2335 L 6.54385,-90.3442
 L 6.40654,-90.4732 L 6.28647,-90.6183 L 6.18553,-90.7774 L 6.10533,-90.9478 L 6.04712,-91.127 L 6.01183,-91.312
 L 6,-91.5 L 6.01183,-91.688 L 6.04712,-91.873 L 6.10533,-92.0522 L 6.18553,-92.2226 L 6.28647,-92.3817
 L 6.40654,-92.5268 L 6.54385,-92.6558 L 6.69626,-92.7665 L 6.86133,-92.8572 L 7.03647,-92.9266 L 7.21892,-92.9734
 L 7.40581,-92.997 L 7.59418,-92.997 L 7.78107,-92.9734 L 7.96352,-92.9266 L 8.13866,-92.8572 L 8.30373,-92.7665
 L 8.45613,-92.6558 L 8.59344,-92.5268 L 8.71352,-92.3817 L 8.81445,-92.2226 L 8.89465,-92.0522 L 8.95287,-91.873
 L 8.98816,-91.688 L 9,-91.5 L 8.98816,-91.312 L 8.95287,-91.127 L 8.89465,-90.9478 L 8.81445,-90.7774
 L 8.71352,-90.6183 L 8.59344,-90.4732 L 8.45613,-90.3442 L 8.30373,-90.2335 L 8.13866,-90.1427 L 7.96352,-90.0734
 L 7.78107,-90.0266 L 7.59418,-90.003 z
M -7.59418,-90.003 L -7.78107,-90.0266 L -7.96352,-90.0734 L -8.13866,-90.1427 L -8.30373,-90.2335 L -8.45613,-90.3442
 L -8.59344,-90.4732 L -8.71352,-90.6183 L -8.81445,-90.7774 L -8.89465,-90.9478 L -8.95287,-91.127 L -8.98816,-91.312
 L -9,-91.5 L -8.98816,-91.688 L -8.95287,-91.873 L -8.89465,-92.0522 L -8.81445,-92.2226 L -8.71352,-92.3817
 L -8.59344,-92.5268 L -8.45613,-92.6558 L -8.30373,-92.7665 L -8.13866,-92.8572 L -7.96352,-92.9266 L -7.78107,-92.9734
 L -7.59418,-92.997 L -7.40581,-92.997 L -7.21892,-92.9734 L -7.03647,-92.9266 L -6.86133,-92.8572 L -6.69626,-92.7665
 L -6.54385,-92.6558 L -6.40654,-92.5268 L -6.28647,-92.3817 L -6.18553,-92.2226 L -6.10533,-92.0522 L -6.04712,-91.873
 L -6.01183,-91.688 L -6,-91.5 L -6.01183,-91.312 L -6.04712,-91.127 L -6.10533,-90.9478 L -6.18553,-90.7774
 L -6.28647,-90.6183 L -6.40654,-90.4732 L -6.54385,-90.3442 L -6.69626,-90.2335 L -6.86133,-90.1427 L -7.03647,-90.0734
 L -7.21892,-90.0266 L -7.40581,-90.003 z
M 14.9058,-82.5029 L 14.7189,-82.5266 L 14.5365,-82.5734 L 14.3613,-82.6427 L 14.1963,-82.7335 L 14.0439,-82.8442
 L 13.9065,-82.9732 L 13.7865,-83.1183 L 13.6855,-83.2774 L 13.6053,-83.4478 L 13.5471,-83.627 L 13.5118,-83.812
 L 13.5,-84 L 13.5118,-84.188 L 13.5471,-84.373 L 13.6053,-84.5522 L 13.6855,-84.7226 L 13.7865,-84.8817
 L 13.9065,-85.0268 L 14.0439,-85.1558 L 14.1963,-85.2665 L 14.3613,-85.3572 L 14.5365,-85.4266 L 14.7189,-85.4734
 L 14.9058,-85.497 L 15.0942,-85.497 L 15.2811,-85.4734 L 15.4635,-85.4266 L 15.6387,-85.3572 L 15.8037,-85.2665
 L 15.9561,-85.1558 L 16.0934,-85.0268 L 16.2135,-84.8817 L 16.3145,-84.7226 L 16.3947,-84.5522 L 16.4529,-84.373
 L 16.4882,-84.188 L 16.5,-84 L 16.4882,-83.812 L 16.4529,-83.627 L 16.3947,-83.4478 L 16.3145,-83.2774
 L 16.2135,-83.1183 L 16.0934,-82.9732 L 15.9561,-82.8442 L 15.8037,-82.7335 L 15.6387,-82.6427 L 15.4635,-82.5734
 L 15.2811,-82.5266 L 15.0942,-82.5029 z
M -15.0942,-82.5029 L -15.2811,-82.5266 L -15.4635,-82.5734 L -15.6387,-82.6427 L -15.8037,-82.7335 L -15.9561,-82.8442
 L -16.0934,-82.9732 L -16.2135,-83.1183 L -16.3145,-83.2774 L -16.3947,-83.4478 L -16.4529,-83.627 L -16.4882,-83.812
 L -16.5,-84 L -16.4882,-84.188 L -16.4529,-84.373 L -16.3947,-84.5522 L -16.3145,-84.7226 L -16.2135,-84.8817
 L -16.0934,-85.0268 L -15.9561,-85.1558 L -15.8037,-85.2665 L -15.6387,-85.3572 L -15.4635,-85.4266 L -15.2811,-85.4734
 L -15.0942,-85.497 L -14.9058,-85.497 L -14.7189,-85.4734 L -14.5365,-85.4266 L -14.3613,-85.3572 L -14.1963,-85.2665
 L -14.0439,-85.1558 L -13.9065,-85.0268 L -13.7865,-84.8817 L -13.6855,-84.7226 L -13.6053,-84.5522 L -13.5471,-84.373
 L -13.5118,-84.188 L -13.5,-84 L -13.5118,-83.812 L -13.5471,-83.627 L -13.6053,-83.4478 L -13.6855,-83.2774
 L -13.7865,-83.1183 L -13.9065,-82.9732 L -14.0439,-82.8442 L -14.1963,-82.7335 L -14.3613,-82.6427 L -14.5365,-82.5734
 L -14.7189,-82.5266 L -14.9058,-82.5029 z
M -3.85999,-79.46 L -3.85999,-82 L -8.93999,-82 L -8.93999,-84.64 L 8.93999,-84.64 L 8.93999,-82
 L 3.85999,-82 L 3.85999,-79.46 z
M 14.8116,-73.5059 L 14.4379,-73.5531 L 14.0729,-73.6468 L 13.7227,-73.7855 L 13.3925,-73.967 L 13.0877,-74.1884
 L 12.8131,-74.4464 L 12.5729,-74.7366 L 12.3711,-75.0547 L 12.2107,-75.3956 L 12.0942,-75.7539 L 12.0237,-76.124
 L 12,-76.5 L 12.0237,-76.876 L 12.0942,-77.2461 L 12.2107,-77.6044 L 12.3711,-77.9453 L 12.5729,-78.2634
 L 12.8131,-78.5536 L 13.0877,-78.8115 L 13.3925,-79.033 L 13.7227,-79.2145 L 14.0729,-79.3532 L 14.4379,-79.4469
 L 14.8116,-79.4941 L 15.1884,-79.4941 L 15.5621,-79.4469 L 15.927,-79.3532 L 16.2773,-79.2145 L 16.6075,-79.033
 L 16.9123,-78.8115 L 17.1869,-78.5536 L 17.427,-78.2634 L 17.6289,-77.9453 L 17.7893,-77.6044 L 17.9057,-77.2461
 L 17.9763,-76.876 L 18,-76.5 L 17.9763,-76.124 L 17.9057,-75.7539 L 17.7893,-75.3956 L 17.6289,-75.0547
 L 17.427,-74.7366 L 17.1869,-74.4464 L 16.9123,-74.1884 L 16.6075,-73.967 L 16.2773,-73.7855 L 15.927,-73.6468
 L 15.5621,-73.5531 L 15.1884,-73.5059 z
M -15.1884,-73.5059 L -15.5621,-73.5531 L -15.927,-73.6468 L -16.2773,-73.7855 L -16.6075,-73.967 L -16.9123,-74.1884
 L -17.1869,-74.4464 L -17.427,-74.7366 L -17.6289,-75.0547 L -17.7893,-75.3956 L -17.9057,-75.7539 L -17.9763,-76.124
 L -18,-76.5 L -17.9763,-76.876 L -17.9057,-77.2461 L -17.7893,-77.6044 L -17.6289,-77.9453 L -17.427,-78.2634
 L -17.1869,-78.5536 L -16.9123,-78.8115 L -16.6075,-79.033 L -16.2773,-79.2145 L -15.927,-79.3532 L -15.5621,-79.4469
 L -15.1884,-79.4941 L -14.8116,-79.4941 L -14.4379,-79.4469 L -14.0729,-79.3532 L -13.7227,-79.2145 L -13.3925,-79.033
 L -13.0877,-78.8115 L -12.8131,-78.5536 L -12.5729,-78.2634 L -12.3711,-77.9453 L -12.2107,-77.6044 L -12.0942,-77.2461
 L -12.0237,-76.876 L -12,-76.5 L -12.0237,-76.124 L -12.0942,-75.7539 L -12.2107,-75.3956 L -12.3711,-75.0547
 L -12.5729,-74.7366 L -12.8131,-74.4464 L -13.0877,-74.1884 L -13.3925,-73.967 L -13.7227,-73.7855 L -14.0729,-73.6468
 L -14.4379,-73.5531 L -14.8116,-73.5059 z
M -0.31395,-65.5099 L -0.936905,-65.5886 L -1.54507,-65.7447 L -2.12889,-65.9759 L -2.67912,-66.2784 L -3.18712,-66.6474
 L -3.64484,-67.0773 L -4.04507,-67.5611 L -4.38153,-68.0912 L -4.64888,-68.6594 L -4.84291,-69.2565 L -4.96057,-69.8733
 L -5,-70.5 L -4.96057,-71.1267 L -4.84291,-71.7434 L -4.64888,-72.3406 L -4.38153,-72.9088 L -4.04507,-73.4389
 L -3.64484,-73.9227 L -3.18712,-74.3526 L -2.67912,-74.7216 L -2.12889,-75.0241 L -1.54507,-75.2553 L -0.936905,-75.4114
 L -0.31395,-75.4901 L 0.31395,-75.4901 L 0.936905,-75.4114 L 1.54507,-75.2553 L 2.12889,-75.0241 L 2.67912,-74.7216
 L 3.18712,-74.3526 L 3.64484,-73.9227 L 4.04507,-73.4389 L 4.38153,-72.9088 L 4.64888,-72.3406 L 4.84291,-71.7434
 L 4.96057,-71.1267 L 5,-70.5 L 4.96057,-69.8733 L 4.84291,-69.2565 L 4.64888,-68.6594 L 4.38153,-68.0912
 L 4.04507,-67.5611 L 3.64484,-67.0773 L 3.18712,-66.6474 L 2.67912,-66.2784 L 2.12889,-65.9759 L 1.54507,-65.7447
 L 0.936905,-65.5886 L 0.31395,-65.5099 z
M 14.9058,-67.503 L 14.7189,-67.5266 L 14.5365,-67.5734 L 14.3613,-67.6428 L 14.1963,-67.7335 L 14.0439,-67.8442
 L 13.9065,-67.9732 L 13.7865,-68.1183 L 13.6855,-68.2774 L 13.6053,-68.4478 L 13.5471,-68.627 L 13.5118,-68.812
 L 13.5,-69 L 13.5118,-69.188 L 13.5471,-69.373 L 13.6053,-69.5522 L 13.6855,-69.7226 L 13.7865,-69.8817
 L 13.9065,-70.0268 L 14.0439,-70.1558 L 14.1963,-70.2665 L 14.3613,-70.3572 L 14.5365,-70.4266 L 14.7189,-70.4734
 L 14.9058,-70.497 L 15.0942,-70.497 L 15.2811,-70.4734 L 15.4635,-70.4266 L 15.6387,-70.3572 L 15.8037,-70.2665
 L 15.9561,-70.1558 L 16.0934,-70.0268 L 16.2135,-69.8817 L 16.3145,-69.7226 L 16.3947,-69.5522 L 16.4529,-69.373
 L 16.4882,-69.188 L 16.5,-69 L 16.4882,-68.812 L 16.4529,-68.627 L 16.3947,-68.4478 L 16.3145,-68.2774
 L 16.2135,-68.1183 L 16.0934,-67.9732 L 15.9561,-67.8442 L 15.8037,-67.7335 L 15.6387,-67.6428 L 15.4635,-67.5734
 L 15.2811,-67.5266 L 15.0942,-67.503 z
M -15.0942,-67.503 L -15.2811,-67.5266 L -15.4635,-67.5734 L -15.6387,-67.6428 L -15.8037,-67.7335 L -15.9561,-67.8442
 L -16.0934,-67.9732 L -16.2135,-68.1183 L -16.3145,-68.2774 L -16.3947,-68.4478 L -16.4529,-68.627 L -16.4882,-68.812
 L -16.5,-69 L -16.4882,-69.188 L -16.4529,-69.373 L -16.3947,-69.5522 L -16.3145,-69.7226 L -16.2135,-69.8817
 L -16.0934,-70.0268 L -15.9561,-70.1558 L -15.8037,-70.2665 L -15.6387,-70.3572 L -15.4635,-70.4266 L -15.2811,-70.4734
 L -15.0942,-70.497 L -14.9058,-70.497 L -14.7189,-70.4734 L -14.5365,-70.4266 L -14.3613,-70.3572 L -14.1963,-70.2665
 L -14.0439,-70.1558 L -13.9065,-70.0268 L -13.7865,-69.8817 L -13.6855,-69.7226 L -13.6053,-69.5522 L -13.5471,-69.373
 L -13.5118,-69.188 L -13.5,-69 L -13.5118,-68.812 L -13.5471,-68.627 L -13.6053,-68.4478 L -13.6855,-68.2774
 L -13.7865,-68.1183 L -13.9065,-67.9732 L -14.0439,-67.8442 L -14.1963,-67.7335 L -14.3613,-67.6428 L -14.5365,-67.5734
 L -14.7189,-67.5266 L -14.9058,-67.503 z
M -15.1884,-58.5059 L -15.5621,-58.5531 L -15.927,-58.6468 L -16.2773,-58.7855 L -16.6075,-58.967 L -16.9123,-59.1885
 L -17.1869,-59.4464 L -17.427,-59.7366 L -17.6289,-60.0547 L -17.7893,-60.3956 L -17.9057,-60.7539 L -17.9763,-61.124
 L -18,-61.5 L -17.9763,-61.876 L -17.9057,-62.2461 L -17.7893,-62.6044 L -17.6289,-62.9453 L -17.427,-63.2634
 L -17.1869,-63.5536 L -16.9123,-63.8116 L -16.6075,-64.033 L -16.2773,-64.2145 L -15.927,-64.3532 L -15.5621,-64.4469
 L -15.1884,-64.4941 L -14.8116,-64.4941 L -14.4379,-64.4469 L -14.0729,-64.3532 L -13.7227,-64.2145 L -13.3925,-64.033
 L -13.0877,-63.8116 L -12.8131,-63.5536 L -12.5729,-63.2634 L -12.3711,-62.9453 L -12.2107,-62.6044 L -12.0942,-62.2461
 L -12.0237,-61.876 L -12,-61.5 L -12.0237,-61.124 L -12.0942,-60.7539 L -12.2107,-60.3956 L -12.3711,-60.0547
 L -12.5729,-59.7366 L -12.8131,-59.4464 L -13.0877,-59.1885 L -13.3925,-58.967 L -13.7227,-58.7855 L -14.0729,-58.6468
 L -14.4379,-58.5531 L -14.8116,-58.5059 z
M 14.8116,-58.5059 L 14.4379,-58.5531 L 14.0729,-58.6468 L 13.7227,-58.7855 L 13.3925,-58.967 L 13.0877,-59.1885
 L 12.8131,-59.4464 L 12.5729,-59.7366 L 12.3711,-60.0547 L 12.2107,-60.3956 L 12.0942,-60.7539 L 12.0237,-61.124
 L 12,-61.5 L 12.0237,-61.876 L 12.0942,-62.2461 L 12.2107,-62.6044 L 12.3711,-62.9453 L 12.5729,-63.2634
 L 12.8131,-63.5536 L 13.0877,-63.8116 L 13.3925,-64.033 L 13.7227,-64.2145 L 14.0729,-64.3532 L 14.4379,-64.4469
 L 14.8116,-64.4941 L 15.1884,-64.4941 L 15.5621,-64.4469 L 15.927,-64.3532 L 16.2773,-64.2145 L 16.6075,-64.033
 L 16.9123,-63.8116 L 17.1869,-63.5536 L 17.427,-63.2634 L 17.6289,-62.9453 L 17.7893,-62.6044 L 17.9057,-62.2461
 L 17.9763,-61.876 L 18,-61.5 L 17.9763,-61.124 L 17.9057,-60.7539 L 17.7893,-60.3956 L 17.6289,-60.0547
 L 17.427,-59.7366 L 17.1869,-59.4464 L 16.9123,-59.1885 L 16.6075,-58.967 L 16.2773,-58.7855 L 15.927,-58.6468
 L 15.5621,-58.5531 L 15.1884,-58.5059 z
M -15.0942,-52.503 L -15.2811,-52.5266 L -15.4635,-52.5734 L -15.6387,-52.6428 L -15.8037,-52.7335 L -15.9561,-52.8442
 L -16.0934,-52.9732 L -16.2135,-53.1183 L -16.3145,-53.2774 L -16.3947,-53.4478 L -16.4529,-53.627 L -16.4882,-53.812
 L -16.5,-54 L -16.4882,-54.188 L -16.4529,-54.373 L -16.3947,-54.5522 L -16.3145,-54.7226 L -16.2135,-54.8817
 L -16.0934,-55.0268 L -15.9561,-55.1558 L -15.8037,-55.2665 L -15.6387,-55.3573 L -15.4635,-55.4266 L -15.2811,-55.4734
 L -15.0942,-55.4971 L -14.9058,-55.4971 L -14.7189,-55.4734 L -14.5365,-55.4266 L -14.3613,-55.3573 L -14.1963,-55.2665
 L -14.0439,-55.1558 L -13.9065,-55.0268 L -13.7865,-54.8817 L -13.6855,-54.7226 L -13.6053,-54.5522 L -13.5471,-54.373
 L -13.5118,-54.188 L -13.5,-54 L -13.5118,-53.812 L -13.5471,-53.627 L -13.6053,-53.4478 L -13.6855,-53.2774
 L -13.7865,-53.1183 L -13.9065,-52.9732 L -14.0439,-52.8442 L -14.1963,-52.7335 L -14.3613,-52.6428 L -14.5365,-52.5734
 L -14.7189,-52.5266 L -14.9058,-52.503 z
M 14.9058,-52.503 L 14.7189,-52.5266 L 14.5365,-52.5734 L 14.3613,-52.6428 L 14.1963,-52.7335 L 14.0439,-52.8442
 L 13.9065,-52.9732 L 13.7865,-53.1183 L 13.6855,-53.2774 L 13.6053,-53.4478 L 13.5471,-53.627 L 13.5118,-53.812
 L 13.5,-54 L 13.5118,-54.188 L 13.5471,-54.373 L 13.6053,-54.5522 L 13.6855,-54.7226 L 13.7865,-54.8817
 L 13.9065,-55.0268 L 14.0439,-55.1558 L 14.1963,-55.2665 L 14.3613,-55.3573 L 14.5365,-55.4266 L 14.7189,-55.4734
 L 14.9058,-55.4971 L 15.0942,-55.4971 L 15.2811,-55.4734 L 15.4635,-55.4266 L 15.6387,-55.3573 L 15.8037,-55.2665
 L 15.9561,-55.1558 L 16.0934,-55.0268 L 16.2135,-54.8817 L 16.3145,-54.7226 L 16.3947,-54.5522 L 16.4529,-54.373
 L 16.4882,-54.188 L 16.5,-54 L 16.4882,-53.812 L 16.4529,-53.627 L 16.3947,-53.4478 L 16.3145,-53.2774
 L 16.2135,-53.1183 L 16.0934,-52.9732 L 15.9561,-52.8442 L 15.8037,-52.7335 L 15.6387,-52.6428 L 15.4635,-52.5734
 L 15.2811,-52.5266 L 15.0942,-52.503 z
M 14.8116,-43.5059 L 14.4379,-43.5531 L 14.0729,-43.6468 L 13.7227,-43.7855 L 13.3925,-43.967 L 13.0877,-44.1885
 L 12.8131,-44.4464 L 12.5729,-44.7366 L 12.3711,-45.0547 L 12.2107,-45.3956 L 12.0942,-45.7539 L 12.0237,-46.124
 L 12,-46.5 L 12.0237,-46.876 L 12.0942,-47.2461 L 12.2107,-47.6044 L 12.3711,-47.9453 L 12.5729,-48.2634
 L 12.8131,-48.5536 L 13.0877,-48.8116 L 13.3925,-49.033 L 13.7227,-49.2145 L 14.0729,-49.3532 L 14.4379,-49.4469
 L 14.8116,-49.4941 L 15.1884,-49.4941 L 15.5621,-49.4469 L 15.927,-49.3532 L 16.2773,-49.2145 L 16.6075,-49.033
 L 16.9123,-48.8116 L 17.1869,-48.5536 L 17.427,-48.2634 L 17.6289,-47.9453 L 17.7893,-47.6044 L 17.9057,-47.2461
 L 17.9763,-46.876 L 18,-46.5 L 17.9763,-46.124 L 17.9057,-45.7539 L 17.7893,-45.3956 L 17.6289,-45.0547
 L 17.427,-44.7366 L 17.1869,-44.4464 L 16.9123,-44.1885 L 16.6075,-43.967 L 16.2773,-43.7855 L 15.927,-43.6468
 L 15.5621,-43.5531 L 15.1884,-43.5059 z
M -15.1884,-43.5059 L -15.5621,-43.5531 L -15.927,-43.6468 L -16.2773,-43.7855 L -16.6075,-43.967 L -16.9123,-44.1885
 L -17.1869,-44.4464 L -17.427,-44.7366 L -17.6289,-45.0547 L -17.7893,-45.3956 L -17.9057,-45.7539 L -17.9763,-46.124
 L -18,-46.5 L -17.9763,-46.876 L -17.9057,-47.2461 L -17.7893,-47.6044 L -17.6289,-47.9453 L -17.427,-48.2634
 L -17.1869,-48.5536 L -16.9123,-48.8116 L -16.6075,-49.033 L -16.2773,-49.2145 L -15.927,-49.3532 L -15.5621,-49.4469
 L -15.1884,-49.4941 L -14.8116,-49.4941 L -14.4379,-49.4469 L -14.0729,-49.3532 L -13.7227,-49.2145 L -13.3925,-49.033
 L -13.0877,-48.8116 L -12.8131,-48.5536 L -12.5729,-48.2634 L -12.3711,-47.9453 L -12.2107,-47.6044 L -12.0942,-47.2461
 L -12.0237,-46.876 L -12,-46.5 L -12.0237,-46.124 L -12.0942,-45.7539 L -12.2107,-45.3956 L -12.3711,-45.0547
 L -12.5729,-44.7366 L -12.8131,-44.4464 L -13.0877,-44.1885 L -13.3925,-43.967 L -13.7227,-43.7855 L -14.0729,-43.6468
 L -14.4379,-43.5531 L -14.8116,-43.5059 z
M 6.29999,-41.36 L 6.29999,-44 L 11.48,-44 L 11.48,-41.36 z
M -11.48,-41.36 L -11.48,-44 L -6.29999,-44 L -6.29999,-41.36 z
" stroke="black" fill="lightgray" stroke-width="0.5"/>
</svg>
