<?xml version="1.0" standalone="no"?>
<!DOCTYPE svg PUBLIC "-//W3C//DTD SVG 1.1//EN" "http://www.w3.org/Graphics/SVG/1.1/DTD/svg11.dtd">
<svg width="24mm" height="261mm" viewBox="-13 -455 24 261" xmlns="http://www.w3.org/2000/svg" version="1.1">
<title>OpenSCAD Model</title>
<path d="
M -9.75,-412.007 L -9.39484,-411.577 L -8.93712,-411.147 L -8.42912,-410.778 L -7.87889,-410.476 L -7.29507,-410.245
 L -6.6869,-410.089 L -6.06395,-410.01 L 6.06395,-410.01 L 6.6869,-410.089 L 7.29507,-410.245 L 7.87889,-410.476
 L 8.42912,-410.778 L 8.93712,-411.147 L 9.39484,-411.577 L 9.79507,-412.061 L 10.1315,-412.591 L 10.3989,-413.159
 L 10.5929,-413.757 L 10.7106,-414.373 L 10.75,-415 L 10.75,-449 L 10.7106,-449.627 L 10.5929,-450.243
 L 10.3989,-450.841 L 10.1315,-451.409 L 9.79507,-451.939 L 9.39484,-452.423 L 8.93712,-452.853 L 8.42912,-453.222
 L 7.87889,-453.524 L 7.29507,-453.755 L 6.6869,-453.911 L 6.06395,-453.99 L -6.06395,-453.99 L -6.6869,-453.911
 L -7.29507,-453.755 L -7.87889,-453.524 L -8.42912,-453.222 L -8.93712,-452.853 L -9.39484,-452.423 L -9.75,-451.993
 L -9.75,-454.49 L -12.75,-454.49 L -12.75,-409.51 L -9.75,-409.51 z
M -6.00116,-411.008 L -6.49951,-411.071 L -6.98605,-411.196 L -7.45311,-411.381 L -7.8933,-411.623 L -8.29968,-411.918
 L -8.66586,-412.262 L -8.98605,-412.649 L -9.25522,-413.073 L -9.4691,-413.528 L -9.62433,-414.005 L -9.71844,-414.499
 L -9.75,-415 L -9.75,-449 L -9.71844,-449.501 L -9.62433,-449.995 L -9.4691,-450.472 L -9.25522,-450.927
 L -8.98605,-451.351 L -8.66586,-451.738 L -8.29968,-452.082 L -7.8933,-452.377 L -7.45311,-452.619 L -6.98605,-452.804
 L -6.49951,-452.929 L -6.00116,-452.992 L 6.00116,-452.992 L 6.49951,-452.929 L 6.98605,-452.804 L 7.45311,-452.619
 L 7.8933,-452.377 L 8.29968,-452.082 L 8.66586,-451.738 L 8.98605,-451.351 L 9.25522,-450.927 L 9.4691,-450.472
 L 9.62433,-449.995 L 9.71844,-449.501 L 9.75,-449 L 9.75,-415 L 9.71844,-414.499 L 9.62433,-414.005
 L 9.4691,-413.528 L 9.25522,-413.073 L 8.98605,-412.649 L 8.66586,-412.262 L 8.29968,-411.918 L 7.8933,-411.623
 L 7.45311,-411.381 L 6.98605,-411.196 L 6.49951,-411.071 L 6.00116,-411.008 z
M -9.75,-358.007 L -9.39484,-357.577 L -8.93712,-357.147 L -8.42912,-356.778 L -7.87889,-356.476 L -7.29507,-356.245
 L -6.6869,-356.089 L -6.06395,-356.01 L 6.06395,-356.01 L 6.6869,-356.089 L 7.29507,-356.245 L 7.87889,-356.476
 L 8.42912,-356.778 L 8.93712,-357.147 L 9.39484,-357.577 L 9.79507,-358.061 L 10.1315,-358.591 L 10.3989,-359.159
 L 10.5929,-359.757 L 10.7106,-360.373 L 10.75,-361 L 10.75,-395 L 10.7106,-395.627 L 10.5929,-396.243
 L 10.3989,-396.841 L 10.1315,-397.409 L 9.79507,-397.939 L 9.39484,-398.423 L 8.93712,-398.853 L 8.42912,-399.222
 L 7.87889,-399.524 L 7.29507,-399.755 L 6.6869,-399.911 L 6.06395,-399.99 L -6.06395,-399.99 L -6.6869,-399.911
 L -7.29507,-399.755 L -7.87889,-399.524 L -8.42912,-399.222 L -8.93712,-398.853 L -9.39484,-398.423 L -9.75,-397.993
 L -9.75,-400.49 L -12.75,-400.49 L -12.75,-355.51 L -9.75,-355.51 z
M -6.00116,-357.008 L -6.49951,-357.071 L -6.98605,-357.196 L -7.45311,-357.381 L -7.8933,-357.623 L -8.29968,-357.918
 L -8.66586,-358.262 L -8.98605,-358.649 L -9.25522,-359.073 L -9.4691,-359.528 L -9.62433,-360.005 L -9.71844,-360.499
 L -9.75,-361 L -9.75,-395 L -9.71844,-395.501 L -9.62433,-395.995 L -9.4691,-396.472 L -9.25522,-396.927
 L -8.98605,-397.351 L -8.66586,-397.738 L -8.29968,-398.082 L -7.8933,-398.377 L -7.45311,-398.619 L -6.98605,-398.804
 L -6.49951,-398.929 L -6.00116,-398.992 L 6.00116,-398.992 L 6.49951,-398.929 L 6.98605,-398.804 L 7.45311,-398.619
 L 7.8933,-398.377 L 8.29968,-398.082 L 8.66586,-397.738 L 8.98605,-397.351 L 9.25522,-396.927 L 9.4691,-396.472
 L 9.62433,-395.995 L 9.71844,-395.501 L 9.75,-395 L 9.75,-361 L 9.71844,-360.499 L 9.62433,-360.005
 L 9.4691,-359.528 L 9.25522,-359.073 L 8.98605,-358.649 L 8.66586,-358.262 L 8.29968,-357.918 L 7.8933,-357.623
 L 7.45311,-357.381 L 6.98605,-357.196 L 6.49951,-357.071 L 6.00116,-357.008 z
M -9.75,-304.007 L -9.39484,-303.577 L -8.93712,-303.147 L -8.42912,-302.778 L -7.87889,-302.476 L -7.29507,-302.245
 L -6.6869,-302.089 L -6.06395,-302.01 L 6.06395,-302.01 L 6.6869,-302.089 L 7.29507,-302.245 L 7.87889,-302.476
 L 8.42912,-302.778 L 8.93712,-303.147 L 9.39484,-303.577 L 9.79507,-304.061 L 10.1315,-304.591 L 10.3989,-305.159
 L 10.5929,-305.757 L 10.7106,-306.373 L 10.75,-307 L 10.75,-341 L 10.7106,-341.627 L 10.5929,-342.243
 L 10.3989,-342.841 L 10.1315,-343.409 L 9.79507,-343.939 L 9.39484,-344.423 L 8.93712,-344.853 L 8.42912,-345.222
 L 7.87889,-345.524 L 7.29507,-345.755 L 6.6869,-345.911 L 6.06395,-345.99 L -6.06395,-345.99 L -6.6869,-345.911
 L -7.29507,-345.755 L -7.87889,-345.524 L -8.42912,-345.222 L -8.93712,-344.853 L -9.39484,-344.423 L -9.75,-343.993
 L -9.75,-346.49 L -12.75,-346.49 L -12.75,-301.51 L -9.75,-301.51 z
M -5.99316,-303.135 L -6.47565,-303.196 L -6.9467,-303.317 L -7.39888,-303.496 L -7.82506,-303.73 L -8.21851,-304.016
 L -8.57301,-304.349 L -8.88301,-304.724 L -9.1436,-305.134 L -9.35068,-305.574 L -9.50096,-306.037 L -9.59209,-306.515
 L -9.62262,-307 L -9.62262,-341 L -9.59209,-341.485 L -9.50096,-341.963 L -9.35068,-342.426 L -9.1436,-342.866
 L -8.88301,-343.276 L -8.57301,-343.651 L -8.21851,-343.984 L -7.82506,-344.27 L -7.39888,-344.504 L -6.9467,-344.683
 L -6.47565,-344.804 L -5.99316,-344.865 L 5.99316,-344.865 L 6.47565,-344.804 L 6.9467,-344.683 L 7.39888,-344.504
 L 7.82506,-344.27 L 8.21851,-343.984 L 8.57301,-343.651 L 8.88301,-343.276 L 9.1436,-342.866 L 9.35068,-342.426
 L 9.50096,-341.963 L 9.59209,-341.485 L 9.62262,-341 L 9.62262,-307 L 9.59209,-306.515 L 9.50096,-306.037
 L 9.35068,-305.574 L 9.1436,-305.134 L 8.88301,-304.724 L 8.57301,-304.349 L 8.21851,-304.016 L 7.82506,-303.73
 L 7.39888,-303.496 L 6.9467,-303.317 L 6.47565,-303.196 L 5.99316,-303.135 z
M -9.75,-250.007 L -9.39484,-249.577 L -8.93712,-249.147 L -8.42912,-248.778 L -7.87889,-248.476 L -7.29507,-248.245
 L -6.6869,-248.089 L -6.06395,-248.01 L 6.06395,-248.01 L 6.6869,-248.089 L 7.29507,-248.245 L 7.87889,-248.476
 L 8.42912,-248.778 L 8.93712,-249.147 L 9.39484,-249.577 L 9.79507,-250.061 L 10.1315,-250.591 L 10.3989,-251.159
 L 10.5929,-251.757 L 10.7106,-252.373 L 10.75,-253 L 10.75,-287 L 10.7106,-287.627 L 10.5929,-288.243
 L 10.3989,-288.841 L 10.1315,-289.409 L 9.79507,-289.939 L 9.39484,-290.423 L 8.93712,-290.853 L 8.42912,-291.222
 L 7.87889,-291.524 L 7.29507,-291.755 L 6.6869,-291.911 L 6.06395,-291.99 L -6.06395,-291.99 L -6.6869,-291.911
 L -7.29507,-291.755 L -7.87889,-291.524 L -8.42912,-291.222 L -8.93712,-290.853 L -9.39484,-290.423 L -9.75,-289.993
 L -9.75,-292.115 L -12.75,-292.115 L -12.75,-247.885 L -9.75,-247.885 z
M 6.6869,-194.089 L 7.29507,-194.245 L 7.87889,-194.476 L 8.42912,-194.778 L 8.93712,-195.147 L 9.39484,-195.577
 L 9.79507,-196.061 L 10.1315,-196.591 L 10.3989,-197.159 L 10.5929,-197.757 L 10.7106,-198.373 L 10.75,-199
 L 10.75,-233 L 10.7106,-233.627 L 10.5929,-234.243 L 10.3989,-234.841 L 10.1315,-235.409 L 9.79507,-235.939
 L 9.39484,-236.423 L 8.93712,-236.853 L 8.42912,-237.222 L 7.87889,-237.524 L 7.29507,-237.755 L 6.6869,-237.911
 L 6.06395,-237.99 L -6.06395,-237.99 L -6.6869,-237.911 L -7.29507,-237.755 L -7.87889,-237.524 L -8.42912,-237.222
 L -8.93712,-236.853 L -9.39484,-236.423 L -9.79507,-235.939 L -10.1315,-235.409 L -10.3989,-234.841 L -10.5277,-234.444
 L -12.75,-234.444 L -12.75,-197.556 L -10.5277,-197.556 L -10.3989,-197.159 L -10.1315,-196.591 L -9.79507,-196.061
 L -9.39484,-195.577 L -8.93712,-195.147 L -8.42912,-194.778 L -7.87889,-194.476 L -7.29507,-194.245 L -6.6869,-194.089
 L -6.06395,-194.01 L 6.06395,-194.01 z
M -3.9007,-228.605 L -4.19971,-228.643 L -4.49164,-228.717 L -4.77187,-228.828 L -5.03598,-228.974 L -5.27982,-229.151
 L -5.49951,-229.357 L -5.69164,-229.589 L -5.85313,-229.844 L -5.98146,-230.117 L -6.07458,-230.403 L -6.13107,-230.699
 L -6.14999,-231 L -6.13107,-231.301 L -6.07458,-231.597 L -5.98146,-231.883 L -5.85313,-232.156 L -5.69164,-232.411
 L -5.49951,-232.643 L -5.27982,-232.849 L -5.03598,-233.026 L -4.77187,-233.172 L -4.49164,-233.283 L -4.19971,-233.357
 L -3.9007,-233.395 L -3.59929,-233.395 L -3.30028,-233.357 L -3.00835,-233.283 L -2.72812,-233.172 L -2.464,-233.026
 L -2.22017,-232.849 L -2.00047,-232.643 L -1.80835,-232.411 L -1.64685,-232.156 L -1.51852,-231.883 L -1.4254,-231.597
 L -1.36891,-231.301 L -1.34999,-231 L -1.36891,-230.699 L -1.4254,-230.403 L -1.51852,-230.117 L -1.64685,-229.844
 L -1.80835,-229.589 L -2.00047,-229.357 L -2.22017,-229.151 L -2.464,-228.974 L -2.72812,-228.828 L -3.00835,-228.717
 L -3.30028,-228.643 L -3.59929,-228.605 z
M 3.59929,-228.605 L 3.30028,-228.643 L 3.00835,-228.717 L 2.72812,-228.828 L 2.464,-228.974 L 2.22017,-229.151
 L 2.00047,-229.357 L 1.80835,-229.589 L 1.64685,-229.844 L 1.51852,-230.117 L 1.4254,-230.403 L 1.36891,-230.699
 L 1.34999,-231 L 1.36891,-231.301 L 1.4254,-231.597 L 1.51852,-231.883 L 1.64685,-232.156 L 1.80835,-232.411
 L 2.00047,-232.643 L 2.22017,-232.849 L 2.464,-233.026 L 2.72812,-233.172 L 3.00835,-233.283 L 3.30028,-233.357
 L 3.59929,-233.395 L 3.9007,-233.395 L 4.19971,-233.357 L 4.49164,-233.283 L 4.77187,-233.172 L 5.03598,-233.026
 L 5.27982,-232.849 L 5.49951,-232.643 L 5.69164,-232.411 L 5.85313,-232.156 L 5.98146,-231.883 L 6.07458,-231.597
 L 6.13107,-231.301 L 6.14999,-231 L 6.13107,-230.699 L 6.07458,-230.403 L 5.98146,-230.117 L 5.85313,-229.844
 L 5.69164,-229.589 L 5.49951,-229.357 L 5.27982,-229.151 L 5.03598,-228.974 L 4.77187,-228.828 L 4.49164,-228.717
 L 4.19971,-228.643 L 3.9007,-228.605 z
M -3.9007,-198.605 L -4.19971,-198.643 L -4.49164,-198.717 L -4.77187,-198.828 L -5.03598,-198.974 L -5.27982,-199.151
 L -5.49951,-199.357 L -5.69164,-199.589 L -5.85313,-199.844 L -5.98146,-200.117 L -6.07458,-200.403 L -6.13107,-200.699
 L -6.14999,-201 L -6.13107,-201.301 L -6.07458,-201.597 L -5.98146,-201.883 L -5.85313,-202.156 L -5.69164,-202.411
 L -5.49951,-202.643 L -5.27982,-202.849 L -5.03598,-203.026 L -4.77187,-203.172 L -4.49164,-203.283 L -4.19971,-203.357
 L -3.9007,-203.395 L -3.59929,-203.395 L -3.30028,-203.357 L -3.00835,-203.283 L -2.72812,-203.172 L -2.464,-203.026
 L -2.22017,-202.849 L -2.00047,-202.643 L -1.80835,-202.411 L -1.64685,-202.156 L -1.51852,-201.883 L -1.4254,-201.597
 L -1.36891,-201.301 L -1.34999,-201 L -1.36891,-200.699 L -1.4254,-200.403 L -1.51852,-200.117 L -1.64685,-199.844
 L -1.80835,-199.589 L -2.00047,-199.357 L -2.22017,-199.151 L -2.464,-198.974 L -2.72812,-198.828 L -3.00835,-198.717
 L -3.30028,-198.643 L -3.59929,-198.605 z
M 3.59929,-198.605 L 3.30028,-198.643 L 3.00835,-198.717 L 2.72812,-198.828 L 2.464,-198.974 L 2.22017,-199.151
 L 2.00047,-199.357 L 1.80835,-199.589 L 1.64685,-199.844 L 1.51852,-200.117 L 1.4254,-200.403 L 1.36891,-200.699
 L 1.34999,-201 L 1.36891,-201.301 L 1.4254,-201.597 L 1.51852,-201.883 L 1.64685,-202.156 L 1.80835,-202.411
 L 2.00047,-202.643 L 2.22017,-202.849 L 2.464,-203.026 L 2.72812,-203.172 L 3.00835,-203.283 L 3.30028,-203.357
 L 3.59929,-203.395 L 3.9007,-203.395 L 4.19971,-203.357 L 4.49164,-203.283 L 4.77187,-203.172 L 5.03598,-203.026
 L 5.27982,-202.849 L 5.49951,-202.643 L 5.69164,-202.411 L 5.85313,-202.156 L 5.98146,-201.883 L 6.07458,-201.597
 L 6.13107,-201.301 L 6.14999,-201 L 6.13107,-200.699 L 6.07458,-200.403 L 5.98146,-200.117 L 5.85313,-199.844
 L 5.69164,-199.589 L 5.49951,-199.357 L 5.27982,-199.151 L 5.03598,-198.974 L 4.77187,-198.828 L 4.49164,-198.717
 L 4.19971,-198.643 L 3.9007,-198.605 z
" stroke="black" fill="lightgray" stroke-width="0.5"/>
</svg>
