<?xml version="1.0" standalone="no"?>
<!DOCTYPE svg PUBLIC "-//W3C//DTD SVG 1.1//EN" "http://www.w3.org/Graphics/SVG/1.1/DTD/svg11.dtd">
<svg width="22mm" height="132mm" viewBox="-11 -121 22 132" xmlns="http://www.w3.org/2000/svg" version="1.1">
<title>OpenSCAD Model</title>
<path d="
M 1.92065,-99.9316 L 3.16742,-100.252 L 4.36423,-100.726 L 5.49222,-101.346 L 6.53358,-102.102 L 7.47192,-102.983
 L 8.29242,-103.975 L 8.98213,-105.062 L 9.5302,-106.227 L 9.92796,-107.451 L 10.1692,-108.715 L 10.25,-110
 L 10.1692,-111.285 L 9.92796,-112.549 L 9.5302,-113.773 L 8.98213,-114.938 L 8.29242,-116.025 L 7.47192,-117.017
 L 6.53358,-117.898 L 5.49222,-118.654 L 4.36423,-119.274 L 3.16742,-119.748 L 1.92065,-120.068 L 0.6436,-120.23
 L -0.6436,-120.23 L -1.92065,-120.068 L -3.16742,-119.748 L -4.36423,-119.274 L -5.49222,-118.654 L -6.53358,-117.898
 L -7.47192,-117.017 L -8.29242,-116.025 L -8.98213,-114.938 L -9.5302,-113.773 L -9.92796,-112.549 L -10.1692,-111.285
 L -10.25,-110 L -10.1692,-108.715 L -9.92796,-107.451 L -9.5302,-106.227 L -8.98213,-105.062 L -8.29242,-103.975
 L -7.47192,-102.983 L -6.53358,-102.102 L -5.49222,-101.346 L -4.36423,-100.726 L -3.16742,-100.252 L -1.92065,-99.9316
 L -0.6436,-99.7702 L 0.6436,-99.7702 z
M -0.0941772,-116.003 L -0.281067,-116.027 L -0.463516,-116.073 L -0.638657,-116.143 L -0.803726,-116.234 L -0.956131,-116.344
 L -1.09344,-116.473 L -1.21352,-116.618 L -1.31445,-116.777 L -1.39465,-116.948 L -1.45287,-117.127 L -1.48816,-117.312
 L -1.5,-117.5 L -1.48816,-117.688 L -1.45287,-117.873 L -1.39465,-118.052 L -1.31445,-118.223 L -1.21352,-118.382
 L -1.09344,-118.527 L -0.956131,-118.656 L -0.803726,-118.766 L -0.638657,-118.857 L -0.463516,-118.927 L -0.281067,-118.973
 L -0.0941772,-118.997 L 0.0941772,-118.997 L 0.281067,-118.973 L 0.463516,-118.927 L 0.638657,-118.857 L 0.803726,-118.766
 L 0.956131,-118.656 L 1.09344,-118.527 L 1.21352,-118.382 L 1.31445,-118.223 L 1.39465,-118.052 L 1.45287,-117.873
 L 1.48816,-117.688 L 1.5,-117.5 L 1.48816,-117.312 L 1.45287,-117.127 L 1.39465,-116.948 L 1.31445,-116.777
 L 1.21352,-116.618 L 1.09344,-116.473 L 0.956131,-116.344 L 0.803726,-116.234 L 0.638657,-116.143 L 0.463516,-116.073
 L 0.281067,-116.027 L 0.0941772,-116.003 z
M -0.182083,-107.106 L -0.543396,-107.151 L -0.896149,-107.242 L -1.23476,-107.376 L -1.55389,-107.551 L -1.84853,-107.766
 L -2.114,-108.015 L -2.34615,-108.295 L -2.54128,-108.603 L -2.69635,-108.932 L -2.80888,-109.279 L -2.87712,-109.637
 L -2.89999,-110 L -2.87712,-110.363 L -2.80888,-110.721 L -2.69635,-111.068 L -2.54128,-111.397 L -2.34615,-111.705
 L -2.114,-111.985 L -1.84853,-112.234 L -1.55389,-112.449 L -1.23476,-112.624 L -0.896149,-112.758 L -0.543396,-112.849
 L -0.182083,-112.894 L 0.182083,-112.894 L 0.543396,-112.849 L 0.896149,-112.758 L 1.23476,-112.624 L 1.55389,-112.449
 L 1.84853,-112.234 L 2.114,-111.985 L 2.34615,-111.705 L 2.54128,-111.397 L 2.69635,-111.068 L 2.80888,-110.721
 L 2.87712,-110.363 L 2.89999,-110 L 2.87712,-109.637 L 2.80888,-109.279 L 2.69635,-108.932 L 2.54128,-108.603
 L 2.34615,-108.295 L 2.114,-108.015 L 1.84853,-107.766 L 1.55389,-107.551 L 1.23476,-107.376 L 0.896149,-107.242
 L 0.543396,-107.151 L 0.182083,-107.106 z
M -8.09418,-108.503 L -8.28107,-108.527 L -8.46352,-108.573 L -8.63866,-108.643 L -8.80373,-108.734 L -8.95613,-108.844
 L -9.09344,-108.973 L -9.21352,-109.118 L -9.31445,-109.277 L -9.39465,-109.448 L -9.45287,-109.627 L -9.48816,-109.812
 L -9.5,-110 L -9.48816,-110.188 L -9.45287,-110.373 L -9.39465,-110.552 L -9.31445,-110.723 L -9.21352,-110.882
 L -9.09344,-111.027 L -8.95613,-111.156 L -8.80373,-111.266 L -8.63866,-111.357 L -8.46352,-111.427 L -8.28107,-111.473
 L -8.09418,-111.497 L -7.40581,-111.497 L -7.21892,-111.473 L -7.03647,-111.427 L -6.86133,-111.357 L -6.69626,-111.266
 L -6.54385,-111.156 L -6.40654,-111.027 L -6.28647,-110.882 L -6.18553,-110.723 L -6.10533,-110.552 L -6.04712,-110.373
 L -6.01183,-110.188 L -6,-110 L -6.01183,-109.812 L -6.04712,-109.627 L -6.10533,-109.448 L -6.18553,-109.277
 L -6.28647,-109.118 L -6.40654,-108.973 L -6.54385,-108.844 L -6.69626,-108.734 L -6.86133,-108.643 L -7.03647,-108.573
 L -7.21892,-108.527 L -7.40581,-108.503 z
M 7.40581,-108.503 L 7.21892,-108.527 L 7.03647,-108.573 L 6.86133,-108.643 L 6.69626,-108.734 L 6.54385,-108.844
 L 6.40654,-108.973 L 6.28647,-109.118 L 6.18553,-109.277 L 6.10533,-109.448 L 6.04712,-109.627 L 6.01183,-109.812
 L 6,-110 L 6.01183,-110.188 L 6.04712,-110.373 L 6.10533,-110.552 L 6.18553,-110.723 L 6.28647,-110.882
 L 6.40654,-111.027 L 6.54385,-111.156 L 6.69626,-111.266 L 6.86133,-111.357 L 7.03647,-111.427 L 7.21892,-111.473
 L 7.40581,-111.497 L 8.09418,-111.497 L 8.28107,-111.473 L 8.46352,-111.427 L 8.63866,-111.357 L 8.80373,-111.266
 L 8.95613,-111.156 L 9.09344,-111.027 L 9.21352,-110.882 L 9.31445,-110.723 L 9.39465,-110.552 L 9.45287,-110.373
 L 9.48816,-110.188 L 9.5,-110 L 9.48816,-109.812 L 9.45287,-109.627 L 9.39465,-109.448 L 9.31445,-109.277
 L 9.21352,-109.118 L 9.09344,-108.973 L 8.95613,-108.844 L 8.80373,-108.734 L 8.63866,-108.643 L 8.46352,-108.573
 L 8.28107,-108.527 L 8.09418,-108.503 z
M -0.0941772,-101.003 L -0.281067,-101.027 L -0.463516,-101.073 L -0.638657,-101.143 L -0.803726,-101.234 L -0.956131,-101.344
 L -1.09344,-101.473 L -1.21352,-101.618 L -1.31445,-101.777 L -1.39465,-101.948 L -1.45287,-102.127 L -1.48816,-102.312
 L -1.5,-102.5 L -1.48816,-102.688 L -1.45287,-102.873 L -1.39465,-103.052 L -1.31445,-103.223 L -1.21352,-103.382
 L -1.09344,-103.527 L -0.956131,-103.656 L -0.803726,-103.766 L -0.638657,-103.857 L -0.463516,-103.927 L -0.281067,-103.973
 L -0.0941772,-103.997 L 0.0941772,-103.997 L 0.281067,-103.973 L 0.463516,-103.927 L 0.638657,-103.857 L 0.803726,-103.766
 L 0.956131,-103.656 L 1.09344,-103.527 L 1.21352,-103.382 L 1.31445,-103.223 L 1.39465,-103.052 L 1.45287,-102.873
 L 1.48816,-102.688 L 1.5,-102.5 L 1.48816,-102.312 L 1.45287,-102.127 L 1.39465,-101.948 L 1.31445,-101.777
 L 1.21352,-101.618 L 1.09344,-101.473 L 0.956131,-101.344 L 0.803726,-101.234 L 0.638657,-101.143 L 0.463516,-101.073
 L 0.281067,-101.027 L 0.0941772,-101.003 z
M 1.92065,10.0684 L 3.16742,9.74832 L 4.36423,9.27448 L 5.49222,8.65436 L 6.53358,7.89775 L 7.47192,7.0166
 L 8.29242,6.0248 L 8.98213,4.93797 L 9.5302,3.77327 L 9.92796,2.54906 L 10.1692,1.28465 L 10.2471,0.0456696
 L 8.88675,2.40192 L 6.11325,2.40192 L 4.7265,-0 L 6.11325,-2.40192 L 8.88675,-2.40192 L 10.2471,-0.0456696
 L 10.1692,-1.28465 L 9.92796,-2.54906 L 9.5302,-3.77327 L 8.98213,-4.93797 L 8.29242,-6.0248 L 7.47192,-7.0166
 L 6.53358,-7.89775 L 5.49222,-8.65436 L 4.36423,-9.27448 L 3.16742,-9.74832 L 1.92065,-10.0684 L 0.6436,-10.2298
 L -0.6436,-10.2298 L -1.92065,-10.0684 L -3.16742,-9.74832 L -4.36423,-9.27448 L -5.49222,-8.65436 L -6.53358,-7.89775
 L -7.47192,-7.0166 L -8.29242,-6.0248 L -8.98213,-4.93797 L -9.5302,-3.77327 L -9.92796,-2.54906 L -10.1692,-1.28465
 L -10.2471,-0.0456696 L -8.88675,-2.40192 L -6.11325,-2.40192 L -4.7265,-0 L -6.11325,2.40192 L -8.88675,2.40192
 L -10.2471,0.0456696 L -10.1692,1.28465 L -9.92796,2.54906 L -9.5302,3.77327 L -8.98213,4.93797 L -8.29242,6.0248
 L -7.47192,7.0166 L -6.53358,7.89775 L -5.49222,8.65436 L -4.36423,9.27448 L -3.16742,9.74832 L -1.92065,10.0684
 L -0.6436,10.2298 L 0.6436,10.2298 z
M -1.38675,-5.09808 L -2.7735,-7.5 L -1.38675,-9.90192 L 1.38675,-9.90192 L 2.7735,-7.5 L 1.38675,-5.09808
 z
M -0.182083,2.89427 L -0.543396,2.84863 L -0.896149,2.75806 L -1.23476,2.62399 L -1.55389,2.44855 L -1.84853,2.23448
 L -2.114,1.98518 L -2.34615,1.70457 L -2.54128,1.39708 L -2.69635,1.06755 L -2.80888,0.721191 L -2.87712,0.363464
 L -2.89999,-0 L -2.87712,-0.363464 L -2.80888,-0.721191 L -2.69635,-1.06755 L -2.54128,-1.39708 L -2.34615,-1.70457
 L -2.114,-1.98518 L -1.84853,-2.23448 L -1.55389,-2.44855 L -1.23476,-2.62399 L -0.896149,-2.75806 L -0.543396,-2.84863
 L -0.182083,-2.89427 L 0.182083,-2.89427 L 0.543396,-2.84863 L 0.896149,-2.75806 L 1.23476,-2.62399 L 1.55389,-2.44855
 L 1.84853,-2.23448 L 2.114,-1.98518 L 2.34615,-1.70457 L 2.54128,-1.39708 L 2.69635,-1.06755 L 2.80888,-0.721191
 L 2.87712,-0.363464 L 2.89999,-0 L 2.87712,0.363464 L 2.80888,0.721191 L 2.69635,1.06755 L 2.54128,1.39708
 L 2.34615,1.70457 L 2.114,1.98518 L 1.84853,2.23448 L 1.55389,2.44855 L 1.23476,2.62399 L 0.896149,2.75806
 L 0.543396,2.84863 L 0.182083,2.89427 z
M -1.38675,9.90192 L -2.7735,7.5 L -1.38675,5.09808 L 1.38675,5.09808 L 2.7735,7.5 L 1.38675,9.90192
 z
" stroke="black" fill="lightgray" stroke-width="0.5"/>
</svg>
