<?xml version="1.0" standalone="no"?>
<!DOCTYPE svg PUBLIC "-//W3C//DTD SVG 1.1//EN" "http://www.w3.org/Graphics/SVG/1.1/DTD/svg11.dtd">
<svg width="44mm" height="44mm" viewBox="-22 -22 44 44" xmlns="http://www.w3.org/2000/svg" version="1.1">
<title>OpenSCAD Model</title>
<path d="
M 17.9369,21.9114 L 18.5451,21.7553 L 19.1289,21.5241 L 19.6791,21.2216 L 20.1871,20.8526 L 20.6448,20.4227
 L 21.0451,19.9389 L 21.3815,19.4088 L 21.6489,18.8406 L 21.8429,18.2434 L 21.9606,17.6267 L 22,17
 L 22,-17 L 21.9606,-17.6267 L 21.8429,-18.2434 L 21.6489,-18.8406 L 21.3815,-19.4088 L 21.0451,-19.9389
 L 20.6448,-20.4227 L 20.1871,-20.8526 L 19.6791,-21.2216 L 19.1289,-21.5241 L 18.5451,-21.7553 L 17.9369,-21.9114
 L 17.3139,-21.9901 L -17.3139,-21.9901 L -17.9369,-21.9114 L -18.5451,-21.7553 L -19.1289,-21.5241 L -19.6791,-21.2216
 L -20.1871,-20.8526 L -20.6448,-20.4227 L -21.0451,-19.9389 L -21.3815,-19.4088 L -21.6489,-18.8406 L -21.8429,-18.2434
 L -21.9606,-17.6267 L -22,-17 L -22,-2.53999 L 0.0519867,-2.53999 L 0.0519867,2.53999 L -22,2.53999
 L -22,17 L -21.9606,17.6267 L -21.8429,18.2434 L -21.6489,18.8406 L -21.3815,19.4088 L -21.0451,19.9389
 L -20.6448,20.4227 L -20.1871,20.8526 L -19.6791,21.2216 L -19.1289,21.5241 L -18.5451,21.7553 L -17.9369,21.9114
 L -17.3139,21.9901 L 17.3139,21.9901 z
M -15.1884,17.9941 L -15.5621,17.9469 L -15.927,17.8532 L -16.2773,17.7145 L -16.6075,17.533 L -16.9123,17.3115
 L -17.1869,17.0536 L -17.427,16.7634 L -17.6289,16.4453 L -17.7893,16.1044 L -17.9057,15.7461 L -17.9763,15.376
 L -18,15 L -17.9763,14.624 L -17.9057,14.2539 L -17.7893,13.8956 L -17.6289,13.5547 L -17.427,13.2366
 L -17.1869,12.9464 L -16.9123,12.6884 L -16.6075,12.467 L -16.2773,12.2855 L -15.927,12.1468 L -15.5621,12.0531
 L -15.1884,12.0059 L -14.8116,12.0059 L -14.4379,12.0531 L -14.0729,12.1468 L -13.7227,12.2855 L -13.3925,12.467
 L -13.0877,12.6884 L -12.8131,12.9464 L -12.5729,13.2366 L -12.3711,13.5547 L -12.2107,13.8956 L -12.0942,14.2539
 L -12.0237,14.624 L -12,15 L -12.0237,15.376 L -12.0942,15.7461 L -12.2107,16.1044 L -12.3711,16.4453
 L -12.5729,16.7634 L -12.8131,17.0536 L -13.0877,17.3115 L -13.3925,17.533 L -13.7227,17.7145 L -14.0729,17.8532
 L -14.4379,17.9469 L -14.8116,17.9941 z
" stroke="black" fill="lightgray" stroke-width="0.5"/>
</svg>
