solid OpenSCAD_Model
  facet normal -0.998019 -0.0629071 0
    outer loop
      vertex -12 -15 0
      vertex -12.0237 -14.624 3
      vertex -12.0237 -14.624 0
    endloop
  endfacet
  facet normal -0.998019 -0.0629071 0
    outer loop
      vertex -12.0237 -14.624 3
      vertex -12 -15 0
      vertex -12 -15 3
    endloop
  endfacet
  facet normal 0.998019 -0.0629071 0
    outer loop
      vertex -18 -15 3
      vertex -17.9763 -14.624 0
      vertex -17.9763 -14.624 3
    endloop
  endfacet
  facet normal 0.998019 -0.0629071 0
    outer loop
      vertex -17.9763 -14.624 0
      vertex -18 -15 3
      vertex -18 -15 0
    endloop
  endfacet
  facet normal 0 -1 0
    outer loop
      vertex -15.1884 -12.0059 0
      vertex -14.8116 -12.0059 3
      vertex -15.1884 -12.0059 3
    endloop
  endfacet
  facet normal 0 -1 -0
    outer loop
      vertex -14.8116 -12.0059 3
      vertex -15.1884 -12.0059 0
      vertex -14.8116 -12.0059 0
    endloop
  endfacet
  facet normal 0 1 -0
    outer loop
      vertex -14.8116 -17.9941 0
      vertex -15.1884 -17.9941 3
      vertex -14.8116 -17.9941 3
    endloop
  endfacet
  facet normal 0 1 0
    outer loop
      vertex -15.1884 -17.9941 3
      vertex -14.8116 -17.9941 0
      vertex -15.1884 -17.9941 0
    endloop
  endfacet
  facet normal -0.684594 -0.728924 0
    outer loop
      vertex -13.0877 -12.6885 0
      vertex -12.8131 -12.9464 3
      vertex -13.0877 -12.6885 3
    endloop
  endfacet
  facet normal -0.684594 -0.728924 -0
    outer loop
      vertex -12.8131 -12.9464 3
      vertex -13.0877 -12.6885 0
      vertex -12.8131 -12.9464 0
    endloop
  endfacet
  facet normal 0.684594 -0.728924 0
    outer loop
      vertex -17.1869 -12.9464 0
      vertex -16.9123 -12.6885 3
      vertex -17.1869 -12.9464 3
    endloop
  endfacet
  facet normal 0.684594 -0.728924 0
    outer loop
      vertex -16.9123 -12.6885 3
      vertex -17.1869 -12.9464 0
      vertex -16.9123 -12.6885 0
    endloop
  endfacet
  facet normal 0.36823 -0.929735 0
    outer loop
      vertex -16.2773 -12.2855 0
      vertex -15.9271 -12.1468 3
      vertex -16.2773 -12.2855 3
    endloop
  endfacet
  facet normal 0.36823 -0.929735 0
    outer loop
      vertex -15.9271 -12.1468 3
      vertex -16.2773 -12.2855 0
      vertex -15.9271 -12.1468 0
    endloop
  endfacet
  facet normal -0.844415 0.53569 0
    outer loop
      vertex -12.5729 -16.7634 0
      vertex -12.3711 -16.4453 3
      vertex -12.3711 -16.4453 0
    endloop
  endfacet
  facet normal -0.844415 0.53569 0
    outer loop
      vertex -12.3711 -16.4453 3
      vertex -12.5729 -16.7634 0
      vertex -12.5729 -16.7634 3
    endloop
  endfacet
  facet normal -0.904843 -0.425746 0
    outer loop
      vertex -12.2107 -13.8956 0
      vertex -12.3711 -13.5547 3
      vertex -12.3711 -13.5547 0
    endloop
  endfacet
  facet normal -0.904843 -0.425746 0
    outer loop
      vertex -12.3711 -13.5547 3
      vertex -12.2107 -13.8956 0
      vertex -12.2107 -13.8956 3
    endloop
  endfacet
  facet normal -0.982336 -0.187124 0
    outer loop
      vertex -12.0237 -14.624 0
      vertex -12.0942 -14.2539 3
      vertex -12.0942 -14.2539 0
    endloop
  endfacet
  facet normal -0.982336 -0.187124 0
    outer loop
      vertex -12.0942 -14.2539 3
      vertex -12.0237 -14.624 0
      vertex -12.0237 -14.624 3
    endloop
  endfacet
  facet normal -0.36823 -0.929735 0
    outer loop
      vertex -14.0729 -12.1468 0
      vertex -13.7227 -12.2855 3
      vertex -14.0729 -12.1468 3
    endloop
  endfacet
  facet normal -0.36823 -0.929735 -0
    outer loop
      vertex -13.7227 -12.2855 3
      vertex -14.0729 -12.1468 0
      vertex -13.7227 -12.2855 0
    endloop
  endfacet
  facet normal -0.587872 -0.808954 0
    outer loop
      vertex -13.3925 -12.467 0
      vertex -13.0877 -12.6885 3
      vertex -13.3925 -12.467 3
    endloop
  endfacet
  facet normal -0.587872 -0.808954 -0
    outer loop
      vertex -13.0877 -12.6885 3
      vertex -13.3925 -12.467 0
      vertex -13.0877 -12.6885 0
    endloop
  endfacet
  facet normal 0.904843 -0.425746 0
    outer loop
      vertex -17.7893 -13.8956 3
      vertex -17.6289 -13.5547 0
      vertex -17.6289 -13.5547 3
    endloop
  endfacet
  facet normal 0.904843 -0.425746 0
    outer loop
      vertex -17.6289 -13.5547 0
      vertex -17.7893 -13.8956 3
      vertex -17.7893 -13.8956 0
    endloop
  endfacet
  facet normal 0.950993 -0.309212 0
    outer loop
      vertex -17.9058 -14.2539 3
      vertex -17.7893 -13.8956 0
      vertex -17.7893 -13.8956 3
    endloop
  endfacet
  facet normal 0.950993 -0.309212 0
    outer loop
      vertex -17.7893 -13.8956 0
      vertex -17.9058 -14.2539 3
      vertex -17.9058 -14.2539 0
    endloop
  endfacet
  facet normal 0.24865 -0.968593 0
    outer loop
      vertex -15.9271 -12.1468 0
      vertex -15.5621 -12.0531 3
      vertex -15.9271 -12.1468 3
    endloop
  endfacet
  facet normal 0.24865 -0.968593 0
    outer loop
      vertex -15.5621 -12.0531 3
      vertex -15.9271 -12.1468 0
      vertex -15.5621 -12.0531 0
    endloop
  endfacet
  facet normal -0.36823 0.929735 0
    outer loop
      vertex -13.7227 -17.7145 0
      vertex -14.0729 -17.8532 3
      vertex -13.7227 -17.7145 3
    endloop
  endfacet
  facet normal -0.36823 0.929735 0
    outer loop
      vertex -14.0729 -17.8532 3
      vertex -13.7227 -17.7145 0
      vertex -14.0729 -17.8532 0
    endloop
  endfacet
  facet normal -0.481695 0.876339 0
    outer loop
      vertex -13.3925 -17.533 0
      vertex -13.7227 -17.7145 3
      vertex -13.3925 -17.533 3
    endloop
  endfacet
  facet normal -0.481695 0.876339 0
    outer loop
      vertex -13.7227 -17.7145 3
      vertex -13.3925 -17.533 0
      vertex -13.7227 -17.7145 0
    endloop
  endfacet
  facet normal -0.950993 -0.309212 0
    outer loop
      vertex -12.0942 -14.2539 0
      vertex -12.2107 -13.8956 3
      vertex -12.2107 -13.8956 0
    endloop
  endfacet
  facet normal -0.950993 -0.309212 0
    outer loop
      vertex -12.2107 -13.8956 3
      vertex -12.0942 -14.2539 0
      vertex -12.0942 -14.2539 3
    endloop
  endfacet
  facet normal -0.770349 -0.637622 0
    outer loop
      vertex -12.5729 -13.2366 0
      vertex -12.8131 -12.9464 3
      vertex -12.8131 -12.9464 0
    endloop
  endfacet
  facet normal -0.770349 -0.637622 0
    outer loop
      vertex -12.8131 -12.9464 3
      vertex -12.5729 -13.2366 0
      vertex -12.5729 -13.2366 3
    endloop
  endfacet
  facet normal -0.844415 -0.53569 0
    outer loop
      vertex -12.3711 -13.5547 0
      vertex -12.5729 -13.2366 3
      vertex -12.5729 -13.2366 0
    endloop
  endfacet
  facet normal -0.844415 -0.53569 0
    outer loop
      vertex -12.5729 -13.2366 3
      vertex -12.3711 -13.5547 0
      vertex -12.3711 -13.5547 3
    endloop
  endfacet
  facet normal -0.24865 -0.968593 0
    outer loop
      vertex -14.4379 -12.0531 0
      vertex -14.0729 -12.1468 3
      vertex -14.4379 -12.0531 3
    endloop
  endfacet
  facet normal -0.24865 -0.968593 -0
    outer loop
      vertex -14.0729 -12.1468 3
      vertex -14.4379 -12.0531 0
      vertex -14.0729 -12.1468 0
    endloop
  endfacet
  facet normal -0.125309 -0.992118 0
    outer loop
      vertex -14.8116 -12.0059 0
      vertex -14.4379 -12.0531 3
      vertex -14.8116 -12.0059 3
    endloop
  endfacet
  facet normal -0.125309 -0.992118 -0
    outer loop
      vertex -14.4379 -12.0531 3
      vertex -14.8116 -12.0059 0
      vertex -14.4379 -12.0531 0
    endloop
  endfacet
  facet normal -0.481695 -0.876339 0
    outer loop
      vertex -13.7227 -12.2855 0
      vertex -13.3925 -12.467 3
      vertex -13.7227 -12.2855 3
    endloop
  endfacet
  facet normal -0.481695 -0.876339 -0
    outer loop
      vertex -13.3925 -12.467 3
      vertex -13.7227 -12.2855 0
      vertex -13.3925 -12.467 0
    endloop
  endfacet
  facet normal 0.844415 -0.53569 0
    outer loop
      vertex -17.6289 -13.5547 3
      vertex -17.4271 -13.2366 0
      vertex -17.4271 -13.2366 3
    endloop
  endfacet
  facet normal 0.844415 -0.53569 0
    outer loop
      vertex -17.4271 -13.2366 0
      vertex -17.6289 -13.5547 3
      vertex -17.6289 -13.5547 0
    endloop
  endfacet
  facet normal 0.770349 -0.637622 0
    outer loop
      vertex -17.4271 -13.2366 3
      vertex -17.1869 -12.9464 0
      vertex -17.1869 -12.9464 3
    endloop
  endfacet
  facet normal 0.770349 -0.637622 0
    outer loop
      vertex -17.1869 -12.9464 0
      vertex -17.4271 -13.2366 3
      vertex -17.4271 -13.2366 0
    endloop
  endfacet
  facet normal 0.982336 -0.187124 0
    outer loop
      vertex -17.9763 -14.624 3
      vertex -17.9058 -14.2539 0
      vertex -17.9058 -14.2539 3
    endloop
  endfacet
  facet normal 0.982336 -0.187124 0
    outer loop
      vertex -17.9058 -14.2539 0
      vertex -17.9763 -14.624 3
      vertex -17.9763 -14.624 0
    endloop
  endfacet
  facet normal 0.481695 -0.876339 0
    outer loop
      vertex -16.6075 -12.467 0
      vertex -16.2773 -12.2855 3
      vertex -16.6075 -12.467 3
    endloop
  endfacet
  facet normal 0.481695 -0.876339 0
    outer loop
      vertex -16.2773 -12.2855 3
      vertex -16.6075 -12.467 0
      vertex -16.2773 -12.2855 0
    endloop
  endfacet
  facet normal 0.587872 -0.808954 0
    outer loop
      vertex -16.9123 -12.6885 0
      vertex -16.6075 -12.467 3
      vertex -16.9123 -12.6885 3
    endloop
  endfacet
  facet normal 0.587872 -0.808954 0
    outer loop
      vertex -16.6075 -12.467 3
      vertex -16.9123 -12.6885 0
      vertex -16.6075 -12.467 0
    endloop
  endfacet
  facet normal 0.125309 -0.992118 0
    outer loop
      vertex -15.5621 -12.0531 0
      vertex -15.1884 -12.0059 3
      vertex -15.5621 -12.0531 3
    endloop
  endfacet
  facet normal 0.125309 -0.992118 0
    outer loop
      vertex -15.1884 -12.0059 3
      vertex -15.5621 -12.0531 0
      vertex -15.1884 -12.0059 0
    endloop
  endfacet
  facet normal -0.998019 0.0629071 0
    outer loop
      vertex -12.0237 -15.376 0
      vertex -12 -15 3
      vertex -12 -15 0
    endloop
  endfacet
  facet normal -0.998019 0.0629071 0
    outer loop
      vertex -12 -15 3
      vertex -12.0237 -15.376 0
      vertex -12.0237 -15.376 3
    endloop
  endfacet
  facet normal -0.770349 0.637622 0
    outer loop
      vertex -12.8131 -17.0536 0
      vertex -12.5729 -16.7634 3
      vertex -12.5729 -16.7634 0
    endloop
  endfacet
  facet normal -0.770349 0.637622 0
    outer loop
      vertex -12.5729 -16.7634 3
      vertex -12.8131 -17.0536 0
      vertex -12.8131 -17.0536 3
    endloop
  endfacet
  facet normal -0.982336 0.187124 0
    outer loop
      vertex -12.0942 -15.7461 0
      vertex -12.0237 -15.376 3
      vertex -12.0237 -15.376 0
    endloop
  endfacet
  facet normal -0.982336 0.187124 0
    outer loop
      vertex -12.0237 -15.376 3
      vertex -12.0942 -15.7461 0
      vertex -12.0942 -15.7461 3
    endloop
  endfacet
  facet normal -0.587872 0.808954 0
    outer loop
      vertex -13.0877 -17.3115 0
      vertex -13.3925 -17.533 3
      vertex -13.0877 -17.3115 3
    endloop
  endfacet
  facet normal -0.587872 0.808954 0
    outer loop
      vertex -13.3925 -17.533 3
      vertex -13.0877 -17.3115 0
      vertex -13.3925 -17.533 0
    endloop
  endfacet
  facet normal -0.684594 0.728924 0
    outer loop
      vertex -12.8131 -17.0536 0
      vertex -13.0877 -17.3115 3
      vertex -12.8131 -17.0536 3
    endloop
  endfacet
  facet normal -0.684594 0.728924 0
    outer loop
      vertex -13.0877 -17.3115 3
      vertex -12.8131 -17.0536 0
      vertex -13.0877 -17.3115 0
    endloop
  endfacet
  facet normal -0.904843 0.425746 0
    outer loop
      vertex -12.3711 -16.4453 0
      vertex -12.2107 -16.1044 3
      vertex -12.2107 -16.1044 0
    endloop
  endfacet
  facet normal -0.904843 0.425746 0
    outer loop
      vertex -12.2107 -16.1044 3
      vertex -12.3711 -16.4453 0
      vertex -12.3711 -16.4453 3
    endloop
  endfacet
  facet normal 0.684594 0.728924 -0
    outer loop
      vertex -16.9123 -17.3115 0
      vertex -17.1869 -17.0536 3
      vertex -16.9123 -17.3115 3
    endloop
  endfacet
  facet normal 0.684594 0.728924 0
    outer loop
      vertex -17.1869 -17.0536 3
      vertex -16.9123 -17.3115 0
      vertex -17.1869 -17.0536 0
    endloop
  endfacet
  facet normal 0.844415 0.53569 0
    outer loop
      vertex -17.4271 -16.7634 3
      vertex -17.6289 -16.4453 0
      vertex -17.6289 -16.4453 3
    endloop
  endfacet
  facet normal 0.844415 0.53569 0
    outer loop
      vertex -17.6289 -16.4453 0
      vertex -17.4271 -16.7634 3
      vertex -17.4271 -16.7634 0
    endloop
  endfacet
  facet normal 0.950993 0.309212 0
    outer loop
      vertex -17.7893 -16.1044 3
      vertex -17.9058 -15.7461 0
      vertex -17.9058 -15.7461 3
    endloop
  endfacet
  facet normal 0.950993 0.309212 0
    outer loop
      vertex -17.9058 -15.7461 0
      vertex -17.7893 -16.1044 3
      vertex -17.7893 -16.1044 0
    endloop
  endfacet
  facet normal -0.125309 0.992118 0
    outer loop
      vertex -14.4379 -17.9469 0
      vertex -14.8116 -17.9941 3
      vertex -14.4379 -17.9469 3
    endloop
  endfacet
  facet normal -0.125309 0.992118 0
    outer loop
      vertex -14.8116 -17.9941 3
      vertex -14.4379 -17.9469 0
      vertex -14.8116 -17.9941 0
    endloop
  endfacet
  facet normal -0.950993 0.309212 0
    outer loop
      vertex -12.2107 -16.1044 0
      vertex -12.0942 -15.7461 3
      vertex -12.0942 -15.7461 0
    endloop
  endfacet
  facet normal -0.950993 0.309212 0
    outer loop
      vertex -12.0942 -15.7461 3
      vertex -12.2107 -16.1044 0
      vertex -12.2107 -16.1044 3
    endloop
  endfacet
  facet normal 0.125309 0.992118 -0
    outer loop
      vertex -15.1884 -17.9941 0
      vertex -15.5621 -17.9469 3
      vertex -15.1884 -17.9941 3
    endloop
  endfacet
  facet normal 0.125309 0.992118 0
    outer loop
      vertex -15.5621 -17.9469 3
      vertex -15.1884 -17.9941 0
      vertex -15.5621 -17.9469 0
    endloop
  endfacet
  facet normal 0.36823 0.929735 -0
    outer loop
      vertex -15.9271 -17.8532 0
      vertex -16.2773 -17.7145 3
      vertex -15.9271 -17.8532 3
    endloop
  endfacet
  facet normal 0.36823 0.929735 0
    outer loop
      vertex -16.2773 -17.7145 3
      vertex -15.9271 -17.8532 0
      vertex -16.2773 -17.7145 0
    endloop
  endfacet
  facet normal 0.587872 0.808954 -0
    outer loop
      vertex -16.6075 -17.533 0
      vertex -16.9123 -17.3115 3
      vertex -16.6075 -17.533 3
    endloop
  endfacet
  facet normal 0.587872 0.808954 0
    outer loop
      vertex -16.9123 -17.3115 3
      vertex -16.6075 -17.533 0
      vertex -16.9123 -17.3115 0
    endloop
  endfacet
  facet normal 0.24865 0.968593 -0
    outer loop
      vertex -15.5621 -17.9469 0
      vertex -15.9271 -17.8532 3
      vertex -15.5621 -17.9469 3
    endloop
  endfacet
  facet normal 0.24865 0.968593 0
    outer loop
      vertex -15.9271 -17.8532 3
      vertex -15.5621 -17.9469 0
      vertex -15.9271 -17.8532 0
    endloop
  endfacet
  facet normal 0.770349 0.637622 0
    outer loop
      vertex -17.1869 -17.0536 3
      vertex -17.4271 -16.7634 0
      vertex -17.4271 -16.7634 3
    endloop
  endfacet
  facet normal 0.770349 0.637622 0
    outer loop
      vertex -17.4271 -16.7634 0
      vertex -17.1869 -17.0536 3
      vertex -17.1869 -17.0536 0
    endloop
  endfacet
  facet normal 0.904843 0.425746 0
    outer loop
      vertex -17.6289 -16.4453 3
      vertex -17.7893 -16.1044 0
      vertex -17.7893 -16.1044 3
    endloop
  endfacet
  facet normal 0.904843 0.425746 0
    outer loop
      vertex -17.7893 -16.1044 0
      vertex -17.6289 -16.4453 3
      vertex -17.6289 -16.4453 0
    endloop
  endfacet
  facet normal 0.982336 0.187124 0
    outer loop
      vertex -17.9058 -15.7461 3
      vertex -17.9763 -15.376 0
      vertex -17.9763 -15.376 3
    endloop
  endfacet
  facet normal 0.982336 0.187124 0
    outer loop
      vertex -17.9763 -15.376 0
      vertex -17.9058 -15.7461 3
      vertex -17.9058 -15.7461 0
    endloop
  endfacet
  facet normal 0.998019 0.0629071 0
    outer loop
      vertex -17.9763 -15.376 3
      vertex -18 -15 0
      vertex -18 -15 3
    endloop
  endfacet
  facet normal 0.998019 0.0629071 0
    outer loop
      vertex -18 -15 0
      vertex -17.9763 -15.376 3
      vertex -17.9763 -15.376 0
    endloop
  endfacet
  facet normal -0.24865 0.968593 0
    outer loop
      vertex -14.0729 -17.8532 0
      vertex -14.4379 -17.9469 3
      vertex -14.0729 -17.8532 3
    endloop
  endfacet
  facet normal -0.24865 0.968593 0
    outer loop
      vertex -14.4379 -17.9469 3
      vertex -14.0729 -17.8532 0
      vertex -14.4379 -17.9469 0
    endloop
  endfacet
  facet normal 0.481695 0.876339 -0
    outer loop
      vertex -16.2773 -17.7145 0
      vertex -16.6075 -17.533 3
      vertex -16.2773 -17.7145 3
    endloop
  endfacet
  facet normal 0.481695 0.876339 0
    outer loop
      vertex -16.6075 -17.533 3
      vertex -16.2773 -17.7145 0
      vertex -16.6075 -17.533 0
    endloop
  endfacet
  facet normal -1 0 0
    outer loop
      vertex 0.0519991 -2.54 1.5
      vertex 0.0519991 2.54 3
      vertex 0.0519991 2.54 1.5
    endloop
  endfacet
  facet normal -1 -0 0
    outer loop
      vertex 0.0519991 2.54 3
      vertex 0.0519991 -2.54 1.5
      vertex 0.0519991 -2.54 3
    endloop
  endfacet
  facet normal -0 0 1
    outer loop
      vertex -22 2.54 1.5
      vertex 0.0519991 -2.54 1.5
      vertex 0.0519991 2.54 1.5
    endloop
  endfacet
  facet normal 0 0 1
    outer loop
      vertex 0.0519991 -2.54 1.5
      vertex -22 2.54 1.5
      vertex -22 -2.54 1.5
    endloop
  endfacet
  facet normal 0 1 -0
    outer loop
      vertex 0.0519991 -2.54 1.5
      vertex -22 -2.54 3
      vertex 0.0519991 -2.54 3
    endloop
  endfacet
  facet normal 0 1 0
    outer loop
      vertex -22 -2.54 3
      vertex 0.0519991 -2.54 1.5
      vertex -22 -2.54 1.5
    endloop
  endfacet
  facet normal 0 -1 0
    outer loop
      vertex -22 2.54 1.5
      vertex 0.0519991 2.54 3
      vertex -22 2.54 3
    endloop
  endfacet
  facet normal 0 -1 -0
    outer loop
      vertex 0.0519991 2.54 3
      vertex -22 2.54 1.5
      vertex 0.0519991 2.54 1.5
    endloop
  endfacet
  facet normal -1 0 0
    outer loop
      vertex -22 17 0
      vertex -22 2.54 1.5
      vertex -22 17 3
    endloop
  endfacet
  facet normal -1 0 0
    outer loop
      vertex -22 17 0
      vertex -22 -2.54 1.5
      vertex -22 2.54 1.5
    endloop
  endfacet
  facet normal -1 0 0
    outer loop
      vertex -22 -17 0
      vertex -22 -2.54 1.5
      vertex -22 17 0
    endloop
  endfacet
  facet normal -1 0 0
    outer loop
      vertex -22 -17 3
      vertex -22 -2.54 1.5
      vertex -22 -17 0
    endloop
  endfacet
  facet normal -1 0 0
    outer loop
      vertex -22 -2.54 1.5
      vertex -22 -17 3
      vertex -22 -2.54 3
    endloop
  endfacet
  facet normal -1 -0 0
    outer loop
      vertex -22 17 3
      vertex -22 2.54 1.5
      vertex -22 2.54 3
    endloop
  endfacet
  facet normal -0.99803 -0.0627451 0
    outer loop
      vertex -21.9606 -17.6267 0
      vertex -22 -17 3
      vertex -22 -17 0
    endloop
  endfacet
  facet normal -0.99803 -0.0627451 0
    outer loop
      vertex -22 -17 3
      vertex -21.9606 -17.6267 0
      vertex -21.9606 -17.6267 3
    endloop
  endfacet
  facet normal -0.99803 0.0627451 0
    outer loop
      vertex -22 17 0
      vertex -21.9606 17.6267 3
      vertex -21.9606 17.6267 0
    endloop
  endfacet
  facet normal -0.99803 0.0627451 0
    outer loop
      vertex -21.9606 17.6267 3
      vertex -22 17 0
      vertex -22 17 3
    endloop
  endfacet
  facet normal 0 0 1
    outer loop
      vertex 0.0519991 -2.54 3
      vertex -12.0237 -14.624 3
      vertex -12 -15 3
    endloop
  endfacet
  facet normal 0 0 1
    outer loop
      vertex 0.0519991 -2.54 3
      vertex -12.0942 -14.2539 3
      vertex -12.0237 -14.624 3
    endloop
  endfacet
  facet normal 0 0 1
    outer loop
      vertex 0.0519991 -2.54 3
      vertex -12.2107 -13.8956 3
      vertex -12.0942 -14.2539 3
    endloop
  endfacet
  facet normal 0 0 1
    outer loop
      vertex 0.0519991 -2.54 3
      vertex -12.3711 -13.5547 3
      vertex -12.2107 -13.8956 3
    endloop
  endfacet
  facet normal 0 0 1
    outer loop
      vertex 0.0519991 -2.54 3
      vertex -12.5729 -13.2366 3
      vertex -12.3711 -13.5547 3
    endloop
  endfacet
  facet normal 0 0 1
    outer loop
      vertex 0.0519991 -2.54 3
      vertex -12.8131 -12.9464 3
      vertex -12.5729 -13.2366 3
    endloop
  endfacet
  facet normal 0 0 1
    outer loop
      vertex 0.0519991 -2.54 3
      vertex -13.0877 -12.6885 3
      vertex -12.8131 -12.9464 3
    endloop
  endfacet
  facet normal 0 0 1
    outer loop
      vertex 0.0519991 -2.54 3
      vertex -13.3925 -12.467 3
      vertex -13.0877 -12.6885 3
    endloop
  endfacet
  facet normal 0 0 1
    outer loop
      vertex 0.0519991 -2.54 3
      vertex -13.7227 -12.2855 3
      vertex -13.3925 -12.467 3
    endloop
  endfacet
  facet normal 0 0 1
    outer loop
      vertex 0.0519991 -2.54 3
      vertex -14.0729 -12.1468 3
      vertex -13.7227 -12.2855 3
    endloop
  endfacet
  facet normal -0 0 1
    outer loop
      vertex -22 -2.54 3
      vertex -14.0729 -12.1468 3
      vertex 0.0519991 -2.54 3
    endloop
  endfacet
  facet normal 0 0 1
    outer loop
      vertex -14.0729 -12.1468 3
      vertex -22 -2.54 3
      vertex -14.4379 -12.0531 3
    endloop
  endfacet
  facet normal 0 0 1
    outer loop
      vertex -14.4379 -12.0531 3
      vertex -22 -2.54 3
      vertex -14.8116 -12.0059 3
    endloop
  endfacet
  facet normal 0 0 1
    outer loop
      vertex -14.8116 -12.0059 3
      vertex -22 -2.54 3
      vertex -15.1884 -12.0059 3
    endloop
  endfacet
  facet normal 0 0 1
    outer loop
      vertex -15.1884 -12.0059 3
      vertex -22 -2.54 3
      vertex -15.5621 -12.0531 3
    endloop
  endfacet
  facet normal 0 0 1
    outer loop
      vertex -15.5621 -12.0531 3
      vertex -22 -2.54 3
      vertex -15.9271 -12.1468 3
    endloop
  endfacet
  facet normal 0 0 1
    outer loop
      vertex -15.9271 -12.1468 3
      vertex -22 -2.54 3
      vertex -16.2773 -12.2855 3
    endloop
  endfacet
  facet normal 0 0 1
    outer loop
      vertex -22 -17 3
      vertex -18 -15 3
      vertex -17.9763 -14.624 3
    endloop
  endfacet
  facet normal 0 0 1
    outer loop
      vertex -18 -15 3
      vertex -19.1289 -21.5241 3
      vertex -18.5451 -21.7553 3
    endloop
  endfacet
  facet normal 0 0 1
    outer loop
      vertex -18 -15 3
      vertex -19.6791 -21.2216 3
      vertex -19.1289 -21.5241 3
    endloop
  endfacet
  facet normal 0 0 1
    outer loop
      vertex -22 -17 3
      vertex -17.9763 -14.624 3
      vertex -17.9058 -14.2539 3
    endloop
  endfacet
  facet normal 0 0 1
    outer loop
      vertex -18 -15 3
      vertex -20.1871 -20.8526 3
      vertex -19.6791 -21.2216 3
    endloop
  endfacet
  facet normal 0 0 1
    outer loop
      vertex -22 -17 3
      vertex -17.9058 -14.2539 3
      vertex -17.7893 -13.8956 3
    endloop
  endfacet
  facet normal 0 0 1
    outer loop
      vertex -18 -15 3
      vertex -20.6448 -20.4227 3
      vertex -20.1871 -20.8526 3
    endloop
  endfacet
  facet normal 0 0 1
    outer loop
      vertex -18 -15 3
      vertex -21.0451 -19.9389 3
      vertex -20.6448 -20.4227 3
    endloop
  endfacet
  facet normal 0 0 1
    outer loop
      vertex -22 -17 3
      vertex -17.7893 -13.8956 3
      vertex -17.6289 -13.5547 3
    endloop
  endfacet
  facet normal 0 0 1
    outer loop
      vertex -18 -15 3
      vertex -21.3815 -19.4088 3
      vertex -21.0451 -19.9389 3
    endloop
  endfacet
  facet normal 0 0 1
    outer loop
      vertex -22 -2.54 3
      vertex -17.6289 -13.5547 3
      vertex -17.4271 -13.2366 3
    endloop
  endfacet
  facet normal 0 0 1
    outer loop
      vertex -18 -15 3
      vertex -21.6489 -18.8406 3
      vertex -21.3815 -19.4088 3
    endloop
  endfacet
  facet normal 0 0 1
    outer loop
      vertex -18 -15 3
      vertex -21.8429 -18.2435 3
      vertex -21.6489 -18.8406 3
    endloop
  endfacet
  facet normal 0 0 1
    outer loop
      vertex -22 -2.54 3
      vertex -17.4271 -13.2366 3
      vertex -17.1869 -12.9464 3
    endloop
  endfacet
  facet normal 0 0 1
    outer loop
      vertex -18 -15 3
      vertex -21.9606 -17.6267 3
      vertex -21.8429 -18.2435 3
    endloop
  endfacet
  facet normal 0 0 1
    outer loop
      vertex -16.2773 -12.2855 3
      vertex -22 -2.54 3
      vertex -16.6075 -12.467 3
    endloop
  endfacet
  facet normal 0 0 1
    outer loop
      vertex -22 -2.54 3
      vertex -16.9123 -12.6885 3
      vertex -16.6075 -12.467 3
    endloop
  endfacet
  facet normal 0 0 1
    outer loop
      vertex -22 -2.54 3
      vertex -17.1869 -12.9464 3
      vertex -16.9123 -12.6885 3
    endloop
  endfacet
  facet normal 0 0 1
    outer loop
      vertex -17.6289 -13.5547 3
      vertex -22 -2.54 3
      vertex -22 -17 3
    endloop
  endfacet
  facet normal 0 0 1
    outer loop
      vertex -18 -15 3
      vertex -22 -17 3
      vertex -21.9606 -17.6267 3
    endloop
  endfacet
  facet normal 0 0 1
    outer loop
      vertex 17.314 21.9901 3
      vertex 22 17 3
      vertex 21.9606 17.6267 3
    endloop
  endfacet
  facet normal 0 0 1
    outer loop
      vertex 22 17 3
      vertex 0.0519991 2.54 3
      vertex 22 -17 3
    endloop
  endfacet
  facet normal 0 0 1
    outer loop
      vertex 17.314 21.9901 3
      vertex 21.9606 17.6267 3
      vertex 21.8429 18.2435 3
    endloop
  endfacet
  facet normal -0 0 1
    outer loop
      vertex 0.0519991 -2.54 3
      vertex 22 -17 3
      vertex 0.0519991 2.54 3
    endloop
  endfacet
  facet normal 0 0 1
    outer loop
      vertex 17.314 21.9901 3
      vertex 21.8429 18.2435 3
      vertex 21.6489 18.8406 3
    endloop
  endfacet
  facet normal 0 -0 1
    outer loop
      vertex 17.314 -21.9901 3
      vertex 22 -17 3
      vertex 0.0519991 -2.54 3
    endloop
  endfacet
  facet normal 0 0 1
    outer loop
      vertex 17.314 21.9901 3
      vertex 21.6489 18.8406 3
      vertex 21.3815 19.4088 3
    endloop
  endfacet
  facet normal 0 0 1
    outer loop
      vertex 22 -17 3
      vertex 17.314 -21.9901 3
      vertex 21.9606 -17.6267 3
    endloop
  endfacet
  facet normal 0 0 1
    outer loop
      vertex 17.314 21.9901 3
      vertex 21.3815 19.4088 3
      vertex 21.0451 19.9389 3
    endloop
  endfacet
  facet normal 0 0 1
    outer loop
      vertex 21.9606 -17.6267 3
      vertex 17.314 -21.9901 3
      vertex 21.8429 -18.2435 3
    endloop
  endfacet
  facet normal 0 0 1
    outer loop
      vertex 17.314 21.9901 3
      vertex 21.0451 19.9389 3
      vertex 20.6448 20.4227 3
    endloop
  endfacet
  facet normal 0 0 1
    outer loop
      vertex 21.8429 -18.2435 3
      vertex 17.314 -21.9901 3
      vertex 21.6489 -18.8406 3
    endloop
  endfacet
  facet normal 0 0 1
    outer loop
      vertex 17.314 21.9901 3
      vertex 20.6448 20.4227 3
      vertex 20.1871 20.8526 3
    endloop
  endfacet
  facet normal 0 0 1
    outer loop
      vertex 21.6489 -18.8406 3
      vertex 17.314 -21.9901 3
      vertex 21.3815 -19.4088 3
    endloop
  endfacet
  facet normal 0 0 1
    outer loop
      vertex 17.314 21.9901 3
      vertex 20.1871 20.8526 3
      vertex 19.6791 21.2216 3
    endloop
  endfacet
  facet normal 0 0 1
    outer loop
      vertex 21.3815 -19.4088 3
      vertex 17.314 -21.9901 3
      vertex 21.0451 -19.9389 3
    endloop
  endfacet
  facet normal 0 0 1
    outer loop
      vertex 17.314 21.9901 3
      vertex 19.6791 21.2216 3
      vertex 19.1289 21.5241 3
    endloop
  endfacet
  facet normal 0 0 1
    outer loop
      vertex 21.0451 -19.9389 3
      vertex 17.314 -21.9901 3
      vertex 20.6448 -20.4227 3
    endloop
  endfacet
  facet normal 0 0 1
    outer loop
      vertex 17.314 21.9901 3
      vertex 19.1289 21.5241 3
      vertex 18.5451 21.7553 3
    endloop
  endfacet
  facet normal 0 0 1
    outer loop
      vertex 20.6448 -20.4227 3
      vertex 17.314 -21.9901 3
      vertex 20.1871 -20.8526 3
    endloop
  endfacet
  facet normal 0 0 1
    outer loop
      vertex 17.314 21.9901 3
      vertex 18.5451 21.7553 3
      vertex 17.9369 21.9114 3
    endloop
  endfacet
  facet normal 0 0 1
    outer loop
      vertex 20.1871 -20.8526 3
      vertex 17.314 -21.9901 3
      vertex 19.6791 -21.2216 3
    endloop
  endfacet
  facet normal 0 0 1
    outer loop
      vertex 22 17 3
      vertex 17.314 21.9901 3
      vertex 0.0519991 2.54 3
    endloop
  endfacet
  facet normal 0 0 1
    outer loop
      vertex 19.6791 -21.2216 3
      vertex 17.314 -21.9901 3
      vertex 19.1289 -21.5241 3
    endloop
  endfacet
  facet normal 0 0 1
    outer loop
      vertex 19.1289 -21.5241 3
      vertex 17.314 -21.9901 3
      vertex 18.5451 -21.7553 3
    endloop
  endfacet
  facet normal -0 0 1
    outer loop
      vertex -17.314 21.9901 3
      vertex 0.0519991 2.54 3
      vertex 17.314 21.9901 3
    endloop
  endfacet
  facet normal 0 0 1
    outer loop
      vertex -22 17 3
      vertex -17.314 21.9901 3
      vertex -17.9369 21.9114 3
    endloop
  endfacet
  facet normal 0 0 1
    outer loop
      vertex -22 17 3
      vertex -17.9369 21.9114 3
      vertex -18.5451 21.7553 3
    endloop
  endfacet
  facet normal 0 0 1
    outer loop
      vertex -22 17 3
      vertex -18.5451 21.7553 3
      vertex -19.1289 21.5241 3
    endloop
  endfacet
  facet normal 0 0 1
    outer loop
      vertex -22 17 3
      vertex -19.1289 21.5241 3
      vertex -19.6791 21.2216 3
    endloop
  endfacet
  facet normal 0 0 1
    outer loop
      vertex -22 17 3
      vertex -19.6791 21.2216 3
      vertex -20.1871 20.8526 3
    endloop
  endfacet
  facet normal 0 0 1
    outer loop
      vertex -22 17 3
      vertex -20.1871 20.8526 3
      vertex -20.6448 20.4227 3
    endloop
  endfacet
  facet normal 0 0 1
    outer loop
      vertex -22 17 3
      vertex -20.6448 20.4227 3
      vertex -21.0451 19.9389 3
    endloop
  endfacet
  facet normal 0 0 1
    outer loop
      vertex -22 17 3
      vertex -21.0451 19.9389 3
      vertex -21.3815 19.4088 3
    endloop
  endfacet
  facet normal 0 0 1
    outer loop
      vertex -22 17 3
      vertex -21.3815 19.4088 3
      vertex -21.6489 18.8406 3
    endloop
  endfacet
  facet normal 0 0 1
    outer loop
      vertex -22 17 3
      vertex -21.6489 18.8406 3
      vertex -21.8429 18.2435 3
    endloop
  endfacet
  facet normal 0 0 1
    outer loop
      vertex -22 17 3
      vertex -21.8429 18.2435 3
      vertex -21.9606 17.6267 3
    endloop
  endfacet
  facet normal 0 0 1
    outer loop
      vertex -17.314 21.9901 3
      vertex -22 17 3
      vertex 0.0519991 2.54 3
    endloop
  endfacet
  facet normal 0 0 1
    outer loop
      vertex 0.0519991 2.54 3
      vertex -22 17 3
      vertex -22 2.54 3
    endloop
  endfacet
  facet normal 0 0 1
    outer loop
      vertex 18.5451 -21.7553 3
      vertex 17.314 -21.9901 3
      vertex 17.9369 -21.9114 3
    endloop
  endfacet
  facet normal 0 0 1
    outer loop
      vertex -12.0237 -15.376 3
      vertex 0.0519991 -2.54 3
      vertex -12 -15 3
    endloop
  endfacet
  facet normal 0 0 1
    outer loop
      vertex 0.0519991 -2.54 3
      vertex -12.0237 -15.376 3
      vertex 17.314 -21.9901 3
    endloop
  endfacet
  facet normal -0 0 1
    outer loop
      vertex -12.0942 -15.7461 3
      vertex 17.314 -21.9901 3
      vertex -12.0237 -15.376 3
    endloop
  endfacet
  facet normal -0 0 1
    outer loop
      vertex -12.2107 -16.1044 3
      vertex 17.314 -21.9901 3
      vertex -12.0942 -15.7461 3
    endloop
  endfacet
  facet normal -0 0 1
    outer loop
      vertex -12.3711 -16.4453 3
      vertex 17.314 -21.9901 3
      vertex -12.2107 -16.1044 3
    endloop
  endfacet
  facet normal -0 0 1
    outer loop
      vertex -12.5729 -16.7634 3
      vertex 17.314 -21.9901 3
      vertex -12.3711 -16.4453 3
    endloop
  endfacet
  facet normal -0 0 1
    outer loop
      vertex -12.8131 -17.0536 3
      vertex 17.314 -21.9901 3
      vertex -12.5729 -16.7634 3
    endloop
  endfacet
  facet normal -0 0 1
    outer loop
      vertex -13.0877 -17.3115 3
      vertex 17.314 -21.9901 3
      vertex -12.8131 -17.0536 3
    endloop
  endfacet
  facet normal 0 0 1
    outer loop
      vertex -17.314 -21.9901 3
      vertex -13.0877 -17.3115 3
      vertex -13.3925 -17.533 3
    endloop
  endfacet
  facet normal 0 0 1
    outer loop
      vertex -17.314 -21.9901 3
      vertex -13.3925 -17.533 3
      vertex -13.7227 -17.7145 3
    endloop
  endfacet
  facet normal 0 0 1
    outer loop
      vertex -17.314 -21.9901 3
      vertex -13.7227 -17.7145 3
      vertex -14.0729 -17.8532 3
    endloop
  endfacet
  facet normal 0 0 1
    outer loop
      vertex -17.314 -21.9901 3
      vertex -14.0729 -17.8532 3
      vertex -14.4379 -17.9469 3
    endloop
  endfacet
  facet normal 0 0 1
    outer loop
      vertex -17.314 -21.9901 3
      vertex -14.4379 -17.9469 3
      vertex -14.8116 -17.9941 3
    endloop
  endfacet
  facet normal 0 0 1
    outer loop
      vertex -17.314 -21.9901 3
      vertex -14.8116 -17.9941 3
      vertex -15.1884 -17.9941 3
    endloop
  endfacet
  facet normal 0 0 1
    outer loop
      vertex -13.0877 -17.3115 3
      vertex -17.314 -21.9901 3
      vertex 17.314 -21.9901 3
    endloop
  endfacet
  facet normal 0 0 1
    outer loop
      vertex -15.5621 -17.9469 3
      vertex -17.314 -21.9901 3
      vertex -15.1884 -17.9941 3
    endloop
  endfacet
  facet normal 0 0 1
    outer loop
      vertex -15.9271 -17.8532 3
      vertex -17.314 -21.9901 3
      vertex -15.5621 -17.9469 3
    endloop
  endfacet
  facet normal 0 0 1
    outer loop
      vertex -16.2773 -17.7145 3
      vertex -17.314 -21.9901 3
      vertex -15.9271 -17.8532 3
    endloop
  endfacet
  facet normal 0 0 1
    outer loop
      vertex -17.9369 -21.9114 3
      vertex -16.2773 -17.7145 3
      vertex -16.6075 -17.533 3
    endloop
  endfacet
  facet normal 0 0 1
    outer loop
      vertex -18.5451 -21.7553 3
      vertex -16.6075 -17.533 3
      vertex -16.9123 -17.3115 3
    endloop
  endfacet
  facet normal 0 0 1
    outer loop
      vertex -18.5451 -21.7553 3
      vertex -16.9123 -17.3115 3
      vertex -17.1869 -17.0536 3
    endloop
  endfacet
  facet normal 0 0 1
    outer loop
      vertex -18.5451 -21.7553 3
      vertex -17.1869 -17.0536 3
      vertex -17.4271 -16.7634 3
    endloop
  endfacet
  facet normal 0 0 1
    outer loop
      vertex -18.5451 -21.7553 3
      vertex -17.4271 -16.7634 3
      vertex -17.6289 -16.4453 3
    endloop
  endfacet
  facet normal 0 0 1
    outer loop
      vertex -18.5451 -21.7553 3
      vertex -17.6289 -16.4453 3
      vertex -17.7893 -16.1044 3
    endloop
  endfacet
  facet normal 0 0 1
    outer loop
      vertex -18.5451 -21.7553 3
      vertex -17.7893 -16.1044 3
      vertex -17.9058 -15.7461 3
    endloop
  endfacet
  facet normal 0 0 1
    outer loop
      vertex -16.2773 -17.7145 3
      vertex -17.9369 -21.9114 3
      vertex -17.314 -21.9901 3
    endloop
  endfacet
  facet normal 0 0 1
    outer loop
      vertex -18.5451 -21.7553 3
      vertex -17.9058 -15.7461 3
      vertex -17.9763 -15.376 3
    endloop
  endfacet
  facet normal 0 0 1
    outer loop
      vertex -18.5451 -21.7553 3
      vertex -17.9763 -15.376 3
      vertex -18 -15 3
    endloop
  endfacet
  facet normal 0 0 1
    outer loop
      vertex -16.6075 -17.533 3
      vertex -18.5451 -21.7553 3
      vertex -17.9369 -21.9114 3
    endloop
  endfacet
  facet normal 0.99803 -0.0627451 0
    outer loop
      vertex 21.9606 -17.6267 3
      vertex 22 -17 0
      vertex 22 -17 3
    endloop
  endfacet
  facet normal 0.99803 -0.0627451 0
    outer loop
      vertex 22 -17 0
      vertex 21.9606 -17.6267 3
      vertex 21.9606 -17.6267 0
    endloop
  endfacet
  facet normal 0 1 -0
    outer loop
      vertex 17.314 21.9901 0
      vertex -17.314 21.9901 3
      vertex 17.314 21.9901 3
    endloop
  endfacet
  facet normal 0 1 0
    outer loop
      vertex -17.314 21.9901 3
      vertex 17.314 21.9901 0
      vertex -17.314 21.9901 0
    endloop
  endfacet
  facet normal -0.368203 0.929745 0
    outer loop
      vertex -18.5451 21.7553 0
      vertex -19.1289 21.5241 3
      vertex -18.5451 21.7553 3
    endloop
  endfacet
  facet normal -0.368203 0.929745 0
    outer loop
      vertex -19.1289 21.5241 3
      vertex -18.5451 21.7553 0
      vertex -19.1289 21.5241 0
    endloop
  endfacet
  facet normal 0 -1 0
    outer loop
      vertex -17.314 -21.9901 0
      vertex 17.314 -21.9901 3
      vertex -17.314 -21.9901 3
    endloop
  endfacet
  facet normal 0 -1 -0
    outer loop
      vertex 17.314 -21.9901 3
      vertex -17.314 -21.9901 0
      vertex 17.314 -21.9901 0
    endloop
  endfacet
  facet normal 1 -0 0
    outer loop
      vertex 22 -17 3
      vertex 22 17 0
      vertex 22 17 3
    endloop
  endfacet
  facet normal 1 0 0
    outer loop
      vertex 22 17 0
      vertex 22 -17 3
      vertex 22 -17 0
    endloop
  endfacet
  facet normal -0.951061 0.309003 0
    outer loop
      vertex -21.8429 18.2435 0
      vertex -21.6489 18.8406 3
      vertex -21.6489 18.8406 0
    endloop
  endfacet
  facet normal -0.951061 0.309003 0
    outer loop
      vertex -21.6489 18.8406 3
      vertex -21.8429 18.2435 0
      vertex -21.8429 18.2435 3
    endloop
  endfacet
  facet normal -0.684624 0.728896 0
    outer loop
      vertex -20.1871 20.8526 0
      vertex -20.6448 20.4227 3
      vertex -20.1871 20.8526 3
    endloop
  endfacet
  facet normal -0.684624 0.728896 0
    outer loop
      vertex -20.6448 20.4227 3
      vertex -20.1871 20.8526 0
      vertex -20.6448 20.4227 0
    endloop
  endfacet
  facet normal 0.99803 0.0627451 0
    outer loop
      vertex 22 17 3
      vertex 21.9606 17.6267 0
      vertex 21.9606 17.6267 3
    endloop
  endfacet
  facet normal 0.99803 0.0627451 0
    outer loop
      vertex 21.9606 17.6267 0
      vertex 22 17 3
      vertex 22 17 0
    endloop
  endfacet
  facet normal -0.125348 -0.992113 0
    outer loop
      vertex -17.9369 -21.9114 0
      vertex -17.314 -21.9901 3
      vertex -17.9369 -21.9114 3
    endloop
  endfacet
  facet normal -0.125348 -0.992113 -0
    outer loop
      vertex -17.314 -21.9901 3
      vertex -17.9369 -21.9114 0
      vertex -17.314 -21.9901 0
    endloop
  endfacet
  facet normal 0.770462 -0.637486 0
    outer loop
      vertex 20.6448 -20.4227 3
      vertex 21.0451 -19.9389 0
      vertex 21.0451 -19.9389 3
    endloop
  endfacet
  facet normal 0.770462 -0.637486 0
    outer loop
      vertex 21.0451 -19.9389 0
      vertex 20.6448 -20.4227 3
      vertex 20.6448 -20.4227 0
    endloop
  endfacet
  facet normal -0.982276 0.187441 0
    outer loop
      vertex -21.9606 17.6267 0
      vertex -21.8429 18.2435 3
      vertex -21.8429 18.2435 0
    endloop
  endfacet
  facet normal -0.982276 0.187441 0
    outer loop
      vertex -21.8429 18.2435 3
      vertex -21.9606 17.6267 0
      vertex -21.9606 17.6267 3
    endloop
  endfacet
  facet normal -0.587698 0.80908 0
    outer loop
      vertex -19.6791 21.2216 0
      vertex -20.1871 20.8526 3
      vertex -19.6791 21.2216 3
    endloop
  endfacet
  facet normal -0.587698 0.80908 0
    outer loop
      vertex -20.1871 20.8526 3
      vertex -19.6791 21.2216 0
      vertex -20.1871 20.8526 0
    endloop
  endfacet
  facet normal 0.770462 0.637486 0
    outer loop
      vertex 21.0451 19.9389 3
      vertex 20.6448 20.4227 0
      vertex 20.6448 20.4227 3
    endloop
  endfacet
  facet normal 0.770462 0.637486 0
    outer loop
      vertex 20.6448 20.4227 0
      vertex 21.0451 19.9389 3
      vertex 21.0451 19.9389 0
    endloop
  endfacet
  facet normal -0.481784 0.87629 0
    outer loop
      vertex -19.1289 21.5241 0
      vertex -19.6791 21.2216 3
      vertex -19.1289 21.5241 3
    endloop
  endfacet
  facet normal -0.481784 0.87629 0
    outer loop
      vertex -19.6791 21.2216 3
      vertex -19.1289 21.5241 0
      vertex -19.6791 21.2216 0
    endloop
  endfacet
  facet normal -0.248601 -0.968606 0
    outer loop
      vertex -18.5451 -21.7553 0
      vertex -17.9369 -21.9114 3
      vertex -18.5451 -21.7553 3
    endloop
  endfacet
  facet normal -0.248601 -0.968606 -0
    outer loop
      vertex -17.9369 -21.9114 3
      vertex -18.5451 -21.7553 0
      vertex -17.9369 -21.9114 0
    endloop
  endfacet
  facet normal 0.951061 -0.309003 0
    outer loop
      vertex 21.6489 -18.8406 3
      vertex 21.8429 -18.2435 0
      vertex 21.8429 -18.2435 3
    endloop
  endfacet
  facet normal 0.951061 -0.309003 0
    outer loop
      vertex 21.8429 -18.2435 0
      vertex 21.6489 -18.8406 3
      vertex 21.6489 -18.8406 0
    endloop
  endfacet
  facet normal 0.904811 -0.425812 0
    outer loop
      vertex 21.3815 -19.4088 3
      vertex 21.6489 -18.8406 0
      vertex 21.6489 -18.8406 3
    endloop
  endfacet
  facet normal 0.904811 -0.425812 0
    outer loop
      vertex 21.6489 -18.8406 0
      vertex 21.3815 -19.4088 3
      vertex 21.3815 -19.4088 0
    endloop
  endfacet
  facet normal -0.770462 0.637486 0
    outer loop
      vertex -21.0451 19.9389 0
      vertex -20.6448 20.4227 3
      vertex -20.6448 20.4227 0
    endloop
  endfacet
  facet normal -0.770462 0.637486 0
    outer loop
      vertex -20.6448 20.4227 3
      vertex -21.0451 19.9389 0
      vertex -21.0451 19.9389 3
    endloop
  endfacet
  facet normal -0.904811 0.425812 0
    outer loop
      vertex -21.6489 18.8406 0
      vertex -21.3815 19.4088 3
      vertex -21.3815 19.4088 0
    endloop
  endfacet
  facet normal -0.904811 0.425812 0
    outer loop
      vertex -21.3815 19.4088 3
      vertex -21.6489 18.8406 0
      vertex -21.6489 18.8406 3
    endloop
  endfacet
  facet normal 0.951061 0.309003 0
    outer loop
      vertex 21.8429 18.2435 3
      vertex 21.6489 18.8406 0
      vertex 21.6489 18.8406 3
    endloop
  endfacet
  facet normal 0.951061 0.309003 0
    outer loop
      vertex 21.6489 18.8406 0
      vertex 21.8429 18.2435 3
      vertex 21.8429 18.2435 0
    endloop
  endfacet
  facet normal 0.481784 0.87629 -0
    outer loop
      vertex 19.6791 21.2216 0
      vertex 19.1289 21.5241 3
      vertex 19.6791 21.2216 3
    endloop
  endfacet
  facet normal 0.481784 0.87629 0
    outer loop
      vertex 19.1289 21.5241 3
      vertex 19.6791 21.2216 0
      vertex 19.1289 21.5241 0
    endloop
  endfacet
  facet normal 0.368203 0.929745 -0
    outer loop
      vertex 19.1289 21.5241 0
      vertex 18.5451 21.7553 3
      vertex 19.1289 21.5241 3
    endloop
  endfacet
  facet normal 0.368203 0.929745 0
    outer loop
      vertex 18.5451 21.7553 3
      vertex 19.1289 21.5241 0
      vertex 18.5451 21.7553 0
    endloop
  endfacet
  facet normal 0.684624 0.728896 -0
    outer loop
      vertex 20.6448 20.4227 0
      vertex 20.1871 20.8526 3
      vertex 20.6448 20.4227 3
    endloop
  endfacet
  facet normal 0.684624 0.728896 0
    outer loop
      vertex 20.1871 20.8526 3
      vertex 20.6448 20.4227 0
      vertex 20.1871 20.8526 0
    endloop
  endfacet
  facet normal -0.248601 0.968606 0
    outer loop
      vertex -17.9369 21.9114 0
      vertex -18.5451 21.7553 3
      vertex -17.9369 21.9114 3
    endloop
  endfacet
  facet normal -0.248601 0.968606 0
    outer loop
      vertex -18.5451 21.7553 3
      vertex -17.9369 21.9114 0
      vertex -18.5451 21.7553 0
    endloop
  endfacet
  facet normal -0.125348 0.992113 0
    outer loop
      vertex -17.314 21.9901 0
      vertex -17.9369 21.9114 3
      vertex -17.314 21.9901 3
    endloop
  endfacet
  facet normal -0.125348 0.992113 0
    outer loop
      vertex -17.9369 21.9114 3
      vertex -17.314 21.9901 0
      vertex -17.9369 21.9114 0
    endloop
  endfacet
  facet normal 0 0 -1
    outer loop
      vertex 17.314 -21.9901 0
      vertex 22 -17 0
      vertex 21.9606 -17.6267 0
    endloop
  endfacet
  facet normal 0 0 -1
    outer loop
      vertex 22 -17 0
      vertex -12.5729 -13.2366 0
      vertex 22 17 0
    endloop
  endfacet
  facet normal 0 0 -1
    outer loop
      vertex 17.314 -21.9901 0
      vertex 21.9606 -17.6267 0
      vertex 21.8429 -18.2435 0
    endloop
  endfacet
  facet normal 0 0 -1
    outer loop
      vertex -12.8131 -12.9464 0
      vertex 22 17 0
      vertex -12.5729 -13.2366 0
    endloop
  endfacet
  facet normal 0 0 -1
    outer loop
      vertex 17.314 -21.9901 0
      vertex 21.8429 -18.2435 0
      vertex 21.6489 -18.8406 0
    endloop
  endfacet
  facet normal 0 -0 -1
    outer loop
      vertex 17.314 21.9901 0
      vertex 22 17 0
      vertex -12.8131 -12.9464 0
    endloop
  endfacet
  facet normal 0 0 -1
    outer loop
      vertex 17.314 -21.9901 0
      vertex 21.6489 -18.8406 0
      vertex 21.3815 -19.4088 0
    endloop
  endfacet
  facet normal 0 0 -1
    outer loop
      vertex 22 17 0
      vertex 17.314 21.9901 0
      vertex 21.9606 17.6267 0
    endloop
  endfacet
  facet normal 0 0 -1
    outer loop
      vertex 17.314 -21.9901 0
      vertex 21.3815 -19.4088 0
      vertex 21.0451 -19.9389 0
    endloop
  endfacet
  facet normal 0 0 -1
    outer loop
      vertex -12.2107 -13.8956 0
      vertex 22 -17 0
      vertex 17.314 -21.9901 0
    endloop
  endfacet
  facet normal 0 0 -1
    outer loop
      vertex 17.314 -21.9901 0
      vertex 21.0451 -19.9389 0
      vertex 20.6448 -20.4227 0
    endloop
  endfacet
  facet normal 0 0 -1
    outer loop
      vertex 21.8429 18.2435 0
      vertex 17.314 21.9901 0
      vertex 21.6489 18.8406 0
    endloop
  endfacet
  facet normal 0 0 -1
    outer loop
      vertex 17.314 -21.9901 0
      vertex 20.6448 -20.4227 0
      vertex 20.1871 -20.8526 0
    endloop
  endfacet
  facet normal 0 0 -1
    outer loop
      vertex 21.3815 19.4088 0
      vertex 17.314 21.9901 0
      vertex 21.0451 19.9389 0
    endloop
  endfacet
  facet normal 0 0 -1
    outer loop
      vertex 17.314 -21.9901 0
      vertex 20.1871 -20.8526 0
      vertex 19.6791 -21.2216 0
    endloop
  endfacet
  facet normal 0 0 -1
    outer loop
      vertex 21.0451 19.9389 0
      vertex 17.314 21.9901 0
      vertex 20.6448 20.4227 0
    endloop
  endfacet
  facet normal 0 0 -1
    outer loop
      vertex 17.314 -21.9901 0
      vertex 19.6791 -21.2216 0
      vertex 19.1289 -21.5241 0
    endloop
  endfacet
  facet normal 0 0 -1
    outer loop
      vertex 20.6448 20.4227 0
      vertex 17.314 21.9901 0
      vertex 20.1871 20.8526 0
    endloop
  endfacet
  facet normal 0 0 -1
    outer loop
      vertex 17.314 -21.9901 0
      vertex 19.1289 -21.5241 0
      vertex 18.5451 -21.7553 0
    endloop
  endfacet
  facet normal 0 0 -1
    outer loop
      vertex 20.1871 20.8526 0
      vertex 17.314 21.9901 0
      vertex 19.6791 21.2216 0
    endloop
  endfacet
  facet normal 0 0 -1
    outer loop
      vertex 17.314 -21.9901 0
      vertex 18.5451 -21.7553 0
      vertex 17.9369 -21.9114 0
    endloop
  endfacet
  facet normal 0 0 -1
    outer loop
      vertex 19.6791 21.2216 0
      vertex 17.314 21.9901 0
      vertex 19.1289 21.5241 0
    endloop
  endfacet
  facet normal 0 0 -1
    outer loop
      vertex 19.1289 21.5241 0
      vertex 17.314 21.9901 0
      vertex 18.5451 21.7553 0
    endloop
  endfacet
  facet normal 0 0 -1
    outer loop
      vertex 18.5451 21.7553 0
      vertex 17.314 21.9901 0
      vertex 17.9369 21.9114 0
    endloop
  endfacet
  facet normal 0 0 -1
    outer loop
      vertex -12.0237 -14.624 0
      vertex 17.314 -21.9901 0
      vertex -12 -15 0
    endloop
  endfacet
  facet normal 0 0 -1
    outer loop
      vertex 17.314 -21.9901 0
      vertex -12.0237 -15.376 0
      vertex -12 -15 0
    endloop
  endfacet
  facet normal 0 0 -1
    outer loop
      vertex 17.314 -21.9901 0
      vertex -12.0942 -15.7461 0
      vertex -12.0237 -15.376 0
    endloop
  endfacet
  facet normal 0 0 -1
    outer loop
      vertex 17.314 -21.9901 0
      vertex -12.2107 -16.1044 0
      vertex -12.0942 -15.7461 0
    endloop
  endfacet
  facet normal 0 0 -1
    outer loop
      vertex 17.314 -21.9901 0
      vertex -12.3711 -16.4453 0
      vertex -12.2107 -16.1044 0
    endloop
  endfacet
  facet normal 0 0 -1
    outer loop
      vertex 17.314 -21.9901 0
      vertex -12.5729 -16.7634 0
      vertex -12.3711 -16.4453 0
    endloop
  endfacet
  facet normal 0 0 -1
    outer loop
      vertex 17.314 -21.9901 0
      vertex -12.8131 -17.0536 0
      vertex -12.5729 -16.7634 0
    endloop
  endfacet
  facet normal 0 0 -1
    outer loop
      vertex 17.314 -21.9901 0
      vertex -13.0877 -17.3115 0
      vertex -12.8131 -17.0536 0
    endloop
  endfacet
  facet normal 0 0 -1
    outer loop
      vertex -17.314 -21.9901 0
      vertex -13.0877 -17.3115 0
      vertex 17.314 -21.9901 0
    endloop
  endfacet
  facet normal 0 0 -1
    outer loop
      vertex -13.0877 -17.3115 0
      vertex -17.314 -21.9901 0
      vertex -13.3925 -17.533 0
    endloop
  endfacet
  facet normal 0 0 -1
    outer loop
      vertex -13.3925 -17.533 0
      vertex -17.314 -21.9901 0
      vertex -13.7227 -17.7145 0
    endloop
  endfacet
  facet normal 0 0 -1
    outer loop
      vertex -13.7227 -17.7145 0
      vertex -17.314 -21.9901 0
      vertex -14.0729 -17.8532 0
    endloop
  endfacet
  facet normal 0 0 -1
    outer loop
      vertex -14.0729 -17.8532 0
      vertex -17.314 -21.9901 0
      vertex -14.4379 -17.9469 0
    endloop
  endfacet
  facet normal 0 0 -1
    outer loop
      vertex -14.4379 -17.9469 0
      vertex -17.314 -21.9901 0
      vertex -14.8116 -17.9941 0
    endloop
  endfacet
  facet normal -0 0 -1
    outer loop
      vertex -14.8116 -17.9941 0
      vertex -17.314 -21.9901 0
      vertex -15.1884 -17.9941 0
    endloop
  endfacet
  facet normal 0 0 -1
    outer loop
      vertex -17.314 -21.9901 0
      vertex -15.5621 -17.9469 0
      vertex -15.1884 -17.9941 0
    endloop
  endfacet
  facet normal 0 0 -1
    outer loop
      vertex -17.314 -21.9901 0
      vertex -15.9271 -17.8532 0
      vertex -15.5621 -17.9469 0
    endloop
  endfacet
  facet normal 0 0 -1
    outer loop
      vertex -17.314 -21.9901 0
      vertex -16.2773 -17.7145 0
      vertex -15.9271 -17.8532 0
    endloop
  endfacet
  facet normal 0 0 -1
    outer loop
      vertex -17.9369 -21.9114 0
      vertex -16.2773 -17.7145 0
      vertex -17.314 -21.9901 0
    endloop
  endfacet
  facet normal -0 0 -1
    outer loop
      vertex -16.2773 -17.7145 0
      vertex -17.9369 -21.9114 0
      vertex -16.6075 -17.533 0
    endloop
  endfacet
  facet normal 0 0 -1
    outer loop
      vertex -18.5451 -21.7553 0
      vertex -16.6075 -17.533 0
      vertex -17.9369 -21.9114 0
    endloop
  endfacet
  facet normal 0 0 -1
    outer loop
      vertex -19.1289 -21.5241 0
      vertex -16.6075 -17.533 0
      vertex -18.5451 -21.7553 0
    endloop
  endfacet
  facet normal -0 0 -1
    outer loop
      vertex -16.6075 -17.533 0
      vertex -19.1289 -21.5241 0
      vertex -16.9123 -17.3115 0
    endloop
  endfacet
  facet normal 0 0 -1
    outer loop
      vertex -19.6791 -21.2216 0
      vertex -16.9123 -17.3115 0
      vertex -19.1289 -21.5241 0
    endloop
  endfacet
  facet normal 0 0 -1
    outer loop
      vertex -20.1871 -20.8526 0
      vertex -16.9123 -17.3115 0
      vertex -19.6791 -21.2216 0
    endloop
  endfacet
  facet normal -0 0 -1
    outer loop
      vertex -16.9123 -17.3115 0
      vertex -20.1871 -20.8526 0
      vertex -17.1869 -17.0536 0
    endloop
  endfacet
  facet normal 0 0 -1
    outer loop
      vertex -20.6448 -20.4227 0
      vertex -17.1869 -17.0536 0
      vertex -20.1871 -20.8526 0
    endloop
  endfacet
  facet normal 0 0 -1
    outer loop
      vertex -21.0451 -19.9389 0
      vertex -17.1869 -17.0536 0
      vertex -20.6448 -20.4227 0
    endloop
  endfacet
  facet normal -0 0 -1
    outer loop
      vertex -17.1869 -17.0536 0
      vertex -21.0451 -19.9389 0
      vertex -17.4271 -16.7634 0
    endloop
  endfacet
  facet normal 0 0 -1
    outer loop
      vertex -12.0942 -14.2539 0
      vertex 17.314 -21.9901 0
      vertex -12.0237 -14.624 0
    endloop
  endfacet
  facet normal 0 0 -1
    outer loop
      vertex -12.2107 -13.8956 0
      vertex 17.314 -21.9901 0
      vertex -12.0942 -14.2539 0
    endloop
  endfacet
  facet normal 0 0 -1
    outer loop
      vertex 22 -17 0
      vertex -12.2107 -13.8956 0
      vertex -12.3711 -13.5547 0
    endloop
  endfacet
  facet normal 0 0 -1
    outer loop
      vertex 22 -17 0
      vertex -12.3711 -13.5547 0
      vertex -12.5729 -13.2366 0
    endloop
  endfacet
  facet normal 0 0 -1
    outer loop
      vertex 21.6489 18.8406 0
      vertex 17.314 21.9901 0
      vertex 21.3815 19.4088 0
    endloop
  endfacet
  facet normal 0 0 -1
    outer loop
      vertex 21.9606 17.6267 0
      vertex 17.314 21.9901 0
      vertex 21.8429 18.2435 0
    endloop
  endfacet
  facet normal 0 0 -1
    outer loop
      vertex -13.0877 -12.6885 0
      vertex 17.314 21.9901 0
      vertex -12.8131 -12.9464 0
    endloop
  endfacet
  facet normal 0 0 -1
    outer loop
      vertex -13.3925 -12.467 0
      vertex 17.314 21.9901 0
      vertex -13.0877 -12.6885 0
    endloop
  endfacet
  facet normal 0 0 -1
    outer loop
      vertex -17.314 21.9901 0
      vertex -13.3925 -12.467 0
      vertex -13.7227 -12.2855 0
    endloop
  endfacet
  facet normal 0 0 -1
    outer loop
      vertex -22 17 0
      vertex -13.7227 -12.2855 0
      vertex -14.0729 -12.1468 0
    endloop
  endfacet
  facet normal 0 0 -1
    outer loop
      vertex -22 17 0
      vertex -14.0729 -12.1468 0
      vertex -14.4379 -12.0531 0
    endloop
  endfacet
  facet normal 0 0 -1
    outer loop
      vertex -22 17 0
      vertex -14.4379 -12.0531 0
      vertex -14.8116 -12.0059 0
    endloop
  endfacet
  facet normal 0 0 -1
    outer loop
      vertex -22 17 0
      vertex -14.8116 -12.0059 0
      vertex -15.1884 -12.0059 0
    endloop
  endfacet
  facet normal 0 0 -1
    outer loop
      vertex -22 17 0
      vertex -15.1884 -12.0059 0
      vertex -15.5621 -12.0531 0
    endloop
  endfacet
  facet normal 0 0 -1
    outer loop
      vertex -22 17 0
      vertex -15.5621 -12.0531 0
      vertex -15.9271 -12.1468 0
    endloop
  endfacet
  facet normal 0 0 -1
    outer loop
      vertex -22 17 0
      vertex -15.9271 -12.1468 0
      vertex -16.2773 -12.2855 0
    endloop
  endfacet
  facet normal 0 0 -1
    outer loop
      vertex -22 17 0
      vertex -16.2773 -12.2855 0
      vertex -16.6075 -12.467 0
    endloop
  endfacet
  facet normal 0 0 -1
    outer loop
      vertex -22 17 0
      vertex -16.6075 -12.467 0
      vertex -16.9123 -12.6885 0
    endloop
  endfacet
  facet normal 0 0 -1
    outer loop
      vertex -22 17 0
      vertex -16.9123 -12.6885 0
      vertex -17.1869 -12.9464 0
    endloop
  endfacet
  facet normal 0 0 -1
    outer loop
      vertex -13.3925 -12.467 0
      vertex -17.314 21.9901 0
      vertex 17.314 21.9901 0
    endloop
  endfacet
  facet normal 0 0 -1
    outer loop
      vertex -22 -17 0
      vertex -17.1869 -12.9464 0
      vertex -17.4271 -13.2366 0
    endloop
  endfacet
  facet normal 0 0 -1
    outer loop
      vertex -22 -17 0
      vertex -17.4271 -13.2366 0
      vertex -17.6289 -13.5547 0
    endloop
  endfacet
  facet normal 0 0 -1
    outer loop
      vertex -22 -17 0
      vertex -17.6289 -13.5547 0
      vertex -17.7893 -13.8956 0
    endloop
  endfacet
  facet normal 0 0 -1
    outer loop
      vertex -22 -17 0
      vertex -17.7893 -13.8956 0
      vertex -17.9058 -14.2539 0
    endloop
  endfacet
  facet normal 0 0 -1
    outer loop
      vertex -13.7227 -12.2855 0
      vertex -22 17 0
      vertex -17.314 21.9901 0
    endloop
  endfacet
  facet normal 0 0 -1
    outer loop
      vertex -22 -17 0
      vertex -17.9058 -14.2539 0
      vertex -17.9763 -14.624 0
    endloop
  endfacet
  facet normal 0 0 -1
    outer loop
      vertex -22 -17 0
      vertex -17.9763 -14.624 0
      vertex -18 -15 0
    endloop
  endfacet
  facet normal 0 0 -1
    outer loop
      vertex -21.3815 -19.4088 0
      vertex -17.4271 -16.7634 0
      vertex -21.0451 -19.9389 0
    endloop
  endfacet
  facet normal -0 0 -1
    outer loop
      vertex -17.1869 -12.9464 0
      vertex -22 -17 0
      vertex -22 17 0
    endloop
  endfacet
  facet normal 0 0 -1
    outer loop
      vertex -21.6489 -18.8406 0
      vertex -17.4271 -16.7634 0
      vertex -21.3815 -19.4088 0
    endloop
  endfacet
  facet normal 0 0 -1
    outer loop
      vertex -17.314 21.9901 0
      vertex -22 17 0
      vertex -17.9369 21.9114 0
    endloop
  endfacet
  facet normal -0 0 -1
    outer loop
      vertex -17.4271 -16.7634 0
      vertex -21.6489 -18.8406 0
      vertex -17.6289 -16.4453 0
    endloop
  endfacet
  facet normal 0 0 -1
    outer loop
      vertex -17.9369 21.9114 0
      vertex -22 17 0
      vertex -18.5451 21.7553 0
    endloop
  endfacet
  facet normal 0 0 -1
    outer loop
      vertex -21.8429 -18.2435 0
      vertex -17.6289 -16.4453 0
      vertex -21.6489 -18.8406 0
    endloop
  endfacet
  facet normal 0 0 -1
    outer loop
      vertex -18.5451 21.7553 0
      vertex -22 17 0
      vertex -19.1289 21.5241 0
    endloop
  endfacet
  facet normal 0 0 -1
    outer loop
      vertex -21.9606 -17.6267 0
      vertex -17.6289 -16.4453 0
      vertex -21.8429 -18.2435 0
    endloop
  endfacet
  facet normal 0 0 -1
    outer loop
      vertex -19.1289 21.5241 0
      vertex -22 17 0
      vertex -19.6791 21.2216 0
    endloop
  endfacet
  facet normal -0 0 -1
    outer loop
      vertex -17.6289 -16.4453 0
      vertex -21.9606 -17.6267 0
      vertex -17.7893 -16.1044 0
    endloop
  endfacet
  facet normal 0 0 -1
    outer loop
      vertex -19.6791 21.2216 0
      vertex -22 17 0
      vertex -20.1871 20.8526 0
    endloop
  endfacet
  facet normal 0 0 -1
    outer loop
      vertex -22 -17 0
      vertex -17.7893 -16.1044 0
      vertex -21.9606 -17.6267 0
    endloop
  endfacet
  facet normal 0 0 -1
    outer loop
      vertex -20.1871 20.8526 0
      vertex -22 17 0
      vertex -20.6448 20.4227 0
    endloop
  endfacet
  facet normal -0 0 -1
    outer loop
      vertex -17.7893 -16.1044 0
      vertex -22 -17 0
      vertex -17.9058 -15.7461 0
    endloop
  endfacet
  facet normal 0 0 -1
    outer loop
      vertex -20.6448 20.4227 0
      vertex -22 17 0
      vertex -21.0451 19.9389 0
    endloop
  endfacet
  facet normal -0 0 -1
    outer loop
      vertex -17.9058 -15.7461 0
      vertex -22 -17 0
      vertex -17.9763 -15.376 0
    endloop
  endfacet
  facet normal 0 0 -1
    outer loop
      vertex -21.0451 19.9389 0
      vertex -22 17 0
      vertex -21.3815 19.4088 0
    endloop
  endfacet
  facet normal -0 0 -1
    outer loop
      vertex -17.9763 -15.376 0
      vertex -22 -17 0
      vertex -18 -15 0
    endloop
  endfacet
  facet normal 0 0 -1
    outer loop
      vertex -21.3815 19.4088 0
      vertex -22 17 0
      vertex -21.6489 18.8406 0
    endloop
  endfacet
  facet normal 0 0 -1
    outer loop
      vertex -21.6489 18.8406 0
      vertex -22 17 0
      vertex -21.8429 18.2435 0
    endloop
  endfacet
  facet normal 0 0 -1
    outer loop
      vertex -21.8429 18.2435 0
      vertex -22 17 0
      vertex -21.9606 17.6267 0
    endloop
  endfacet
  facet normal -0.951061 -0.309003 0
    outer loop
      vertex -21.6489 -18.8406 0
      vertex -21.8429 -18.2435 3
      vertex -21.8429 -18.2435 0
    endloop
  endfacet
  facet normal -0.951061 -0.309003 0
    outer loop
      vertex -21.8429 -18.2435 3
      vertex -21.6489 -18.8406 0
      vertex -21.6489 -18.8406 3
    endloop
  endfacet
  facet normal -0.770462 -0.637486 0
    outer loop
      vertex -20.6448 -20.4227 0
      vertex -21.0451 -19.9389 3
      vertex -21.0451 -19.9389 0
    endloop
  endfacet
  facet normal -0.770462 -0.637486 0
    outer loop
      vertex -21.0451 -19.9389 3
      vertex -20.6448 -20.4227 0
      vertex -20.6448 -20.4227 3
    endloop
  endfacet
  facet normal -0.904811 -0.425812 0
    outer loop
      vertex -21.3815 -19.4088 0
      vertex -21.6489 -18.8406 3
      vertex -21.6489 -18.8406 0
    endloop
  endfacet
  facet normal -0.904811 -0.425812 0
    outer loop
      vertex -21.6489 -18.8406 3
      vertex -21.3815 -19.4088 0
      vertex -21.3815 -19.4088 3
    endloop
  endfacet
  facet normal -0.368203 -0.929745 0
    outer loop
      vertex -19.1289 -21.5241 0
      vertex -18.5451 -21.7553 3
      vertex -19.1289 -21.5241 3
    endloop
  endfacet
  facet normal -0.368203 -0.929745 -0
    outer loop
      vertex -18.5451 -21.7553 3
      vertex -19.1289 -21.5241 0
      vertex -18.5451 -21.7553 0
    endloop
  endfacet
  facet normal 0.587698 -0.80908 0
    outer loop
      vertex 19.6791 -21.2216 0
      vertex 20.1871 -20.8526 3
      vertex 19.6791 -21.2216 3
    endloop
  endfacet
  facet normal 0.587698 -0.80908 0
    outer loop
      vertex 20.1871 -20.8526 3
      vertex 19.6791 -21.2216 0
      vertex 20.1871 -20.8526 0
    endloop
  endfacet
  facet normal 0.982276 -0.187441 0
    outer loop
      vertex 21.8429 -18.2435 3
      vertex 21.9606 -17.6267 0
      vertex 21.9606 -17.6267 3
    endloop
  endfacet
  facet normal 0.982276 -0.187441 0
    outer loop
      vertex 21.9606 -17.6267 0
      vertex 21.8429 -18.2435 3
      vertex 21.8429 -18.2435 0
    endloop
  endfacet
  facet normal 0.844336 -0.535814 0
    outer loop
      vertex 21.0451 -19.9389 3
      vertex 21.3815 -19.4088 0
      vertex 21.3815 -19.4088 3
    endloop
  endfacet
  facet normal 0.844336 -0.535814 0
    outer loop
      vertex 21.3815 -19.4088 0
      vertex 21.0451 -19.9389 3
      vertex 21.0451 -19.9389 0
    endloop
  endfacet
  facet normal -0.844336 0.535814 0
    outer loop
      vertex -21.3815 19.4088 0
      vertex -21.0451 19.9389 3
      vertex -21.0451 19.9389 0
    endloop
  endfacet
  facet normal -0.844336 0.535814 0
    outer loop
      vertex -21.0451 19.9389 3
      vertex -21.3815 19.4088 0
      vertex -21.3815 19.4088 3
    endloop
  endfacet
  facet normal 0.982276 0.187441 0
    outer loop
      vertex 21.9606 17.6267 3
      vertex 21.8429 18.2435 0
      vertex 21.8429 18.2435 3
    endloop
  endfacet
  facet normal 0.982276 0.187441 0
    outer loop
      vertex 21.8429 18.2435 0
      vertex 21.9606 17.6267 3
      vertex 21.9606 17.6267 0
    endloop
  endfacet
  facet normal 0.904811 0.425812 0
    outer loop
      vertex 21.6489 18.8406 3
      vertex 21.3815 19.4088 0
      vertex 21.3815 19.4088 3
    endloop
  endfacet
  facet normal 0.904811 0.425812 0
    outer loop
      vertex 21.3815 19.4088 0
      vertex 21.6489 18.8406 3
      vertex 21.6489 18.8406 0
    endloop
  endfacet
  facet normal 0.844336 0.535814 0
    outer loop
      vertex 21.3815 19.4088 3
      vertex 21.0451 19.9389 0
      vertex 21.0451 19.9389 3
    endloop
  endfacet
  facet normal 0.844336 0.535814 0
    outer loop
      vertex 21.0451 19.9389 0
      vertex 21.3815 19.4088 3
      vertex 21.3815 19.4088 0
    endloop
  endfacet
  facet normal 0.587698 0.80908 -0
    outer loop
      vertex 20.1871 20.8526 0
      vertex 19.6791 21.2216 3
      vertex 20.1871 20.8526 3
    endloop
  endfacet
  facet normal 0.587698 0.80908 0
    outer loop
      vertex 19.6791 21.2216 3
      vertex 20.1871 20.8526 0
      vertex 19.6791 21.2216 0
    endloop
  endfacet
  facet normal 0.248601 0.968606 -0
    outer loop
      vertex 18.5451 21.7553 0
      vertex 17.9369 21.9114 3
      vertex 18.5451 21.7553 3
    endloop
  endfacet
  facet normal 0.248601 0.968606 0
    outer loop
      vertex 17.9369 21.9114 3
      vertex 18.5451 21.7553 0
      vertex 17.9369 21.9114 0
    endloop
  endfacet
  facet normal 0.125348 0.992113 -0
    outer loop
      vertex 17.9369 21.9114 0
      vertex 17.314 21.9901 3
      vertex 17.9369 21.9114 3
    endloop
  endfacet
  facet normal 0.125348 0.992113 0
    outer loop
      vertex 17.314 21.9901 3
      vertex 17.9369 21.9114 0
      vertex 17.314 21.9901 0
    endloop
  endfacet
  facet normal -0.982276 -0.187441 0
    outer loop
      vertex -21.8429 -18.2435 0
      vertex -21.9606 -17.6267 3
      vertex -21.9606 -17.6267 0
    endloop
  endfacet
  facet normal -0.982276 -0.187441 0
    outer loop
      vertex -21.9606 -17.6267 3
      vertex -21.8429 -18.2435 0
      vertex -21.8429 -18.2435 3
    endloop
  endfacet
  facet normal -0.844336 -0.535814 0
    outer loop
      vertex -21.0451 -19.9389 0
      vertex -21.3815 -19.4088 3
      vertex -21.3815 -19.4088 0
    endloop
  endfacet
  facet normal -0.844336 -0.535814 0
    outer loop
      vertex -21.3815 -19.4088 3
      vertex -21.0451 -19.9389 0
      vertex -21.0451 -19.9389 3
    endloop
  endfacet
  facet normal -0.481784 -0.87629 0
    outer loop
      vertex -19.6791 -21.2216 0
      vertex -19.1289 -21.5241 3
      vertex -19.6791 -21.2216 3
    endloop
  endfacet
  facet normal -0.481784 -0.87629 -0
    outer loop
      vertex -19.1289 -21.5241 3
      vertex -19.6791 -21.2216 0
      vertex -19.1289 -21.5241 0
    endloop
  endfacet
  facet normal -0.587698 -0.80908 0
    outer loop
      vertex -20.1871 -20.8526 0
      vertex -19.6791 -21.2216 3
      vertex -20.1871 -20.8526 3
    endloop
  endfacet
  facet normal -0.587698 -0.80908 -0
    outer loop
      vertex -19.6791 -21.2216 3
      vertex -20.1871 -20.8526 0
      vertex -19.6791 -21.2216 0
    endloop
  endfacet
  facet normal -0.684624 -0.728896 0
    outer loop
      vertex -20.6448 -20.4227 0
      vertex -20.1871 -20.8526 3
      vertex -20.6448 -20.4227 3
    endloop
  endfacet
  facet normal -0.684624 -0.728896 -0
    outer loop
      vertex -20.1871 -20.8526 3
      vertex -20.6448 -20.4227 0
      vertex -20.1871 -20.8526 0
    endloop
  endfacet
  facet normal 0.684624 -0.728896 0
    outer loop
      vertex 20.1871 -20.8526 0
      vertex 20.6448 -20.4227 3
      vertex 20.1871 -20.8526 3
    endloop
  endfacet
  facet normal 0.684624 -0.728896 0
    outer loop
      vertex 20.6448 -20.4227 3
      vertex 20.1871 -20.8526 0
      vertex 20.6448 -20.4227 0
    endloop
  endfacet
  facet normal 0.125348 -0.992113 0
    outer loop
      vertex 17.314 -21.9901 0
      vertex 17.9369 -21.9114 3
      vertex 17.314 -21.9901 3
    endloop
  endfacet
  facet normal 0.125348 -0.992113 0
    outer loop
      vertex 17.9369 -21.9114 3
      vertex 17.314 -21.9901 0
      vertex 17.9369 -21.9114 0
    endloop
  endfacet
  facet normal 0.248601 -0.968606 0
    outer loop
      vertex 17.9369 -21.9114 0
      vertex 18.5451 -21.7553 3
      vertex 17.9369 -21.9114 3
    endloop
  endfacet
  facet normal 0.248601 -0.968606 0
    outer loop
      vertex 18.5451 -21.7553 3
      vertex 17.9369 -21.9114 0
      vertex 18.5451 -21.7553 0
    endloop
  endfacet
  facet normal 0.368203 -0.929745 0
    outer loop
      vertex 18.5451 -21.7553 0
      vertex 19.1289 -21.5241 3
      vertex 18.5451 -21.7553 3
    endloop
  endfacet
  facet normal 0.368203 -0.929745 0
    outer loop
      vertex 19.1289 -21.5241 3
      vertex 18.5451 -21.7553 0
      vertex 19.1289 -21.5241 0
    endloop
  endfacet
  facet normal 0.481784 -0.87629 0
    outer loop
      vertex 19.1289 -21.5241 0
      vertex 19.6791 -21.2216 3
      vertex 19.1289 -21.5241 3
    endloop
  endfacet
  facet normal 0.481784 -0.87629 0
    outer loop
      vertex 19.6791 -21.2216 3
      vertex 19.1289 -21.5241 0
      vertex 19.6791 -21.2216 0
    endloop
  endfacet
endsolid OpenSCAD_Model
