<?xml version="1.0" standalone="no"?>
<!DOCTYPE svg PUBLIC "-//W3C//DTD SVG 1.1//EN" "http://www.w3.org/Graphics/SVG/1.1/DTD/svg11.dtd">
<svg width="44mm" height="93mm" viewBox="-22 -93 44 93" xmlns="http://www.w3.org/2000/svg" version="1.1">
<title>OpenSCAD Model</title>
<path d="
M 22,-74.83 L 12.6603,-74.83 L 12.6603,-81 L 22,-81 L 22,-87.5 L 21.9606,-88.1267
 L 21.8429,-88.7434 L 21.6489,-89.3406 L 21.3815,-89.9088 L 21.0451,-90.4389 L 20.6448,-90.9227 L 20.1871,-91.3526
 L 19.6791,-91.7216 L 19.1289,-92.0241 L 18.5451,-92.2553 L 17.9369,-92.4114 L 17.3139,-92.4901 L -17.3139,-92.4901
 L -17.9369,-92.4114 L -18.5451,-92.2553 L -19.1289,-92.0241 L -19.6791,-91.7216 L -20.1871,-91.3526 L -20.6448,-90.9227
 L -21.0451,-90.4389 L -21.3815,-89.9088 L -21.6489,-89.3406 L -21.8429,-88.7434 L -21.9606,-88.1267 L -22,-87.5
 L -22,-72 L 22,-72 z
M -15.1884,-82.5059 L -15.5621,-82.5531 L -15.927,-82.6468 L -16.2773,-82.7855 L -16.6075,-82.967 L -16.9123,-83.1884
 L -17.1869,-83.4464 L -17.427,-83.7366 L -17.6289,-84.0547 L -17.7893,-84.3956 L -17.9057,-84.7539 L -17.9763,-85.124
 L -18,-85.5 L -17.9763,-85.876 L -17.9057,-86.2461 L -17.7893,-86.6044 L -17.6289,-86.9453 L -17.427,-87.2634
 L -17.1869,-87.5536 L -16.9123,-87.8115 L -16.6075,-88.033 L -16.2773,-88.2145 L -15.927,-88.3532 L -15.5621,-88.4469
 L -15.1884,-88.4941 L -14.8116,-88.4941 L -14.4379,-88.4469 L -14.0729,-88.3532 L -13.7227,-88.2145 L -13.3925,-88.033
 L -13.0877,-87.8115 L -12.8131,-87.5536 L -12.5729,-87.2634 L -12.3711,-86.9453 L -12.2107,-86.6044 L -12.0942,-86.2461
 L -12.0237,-85.876 L -12,-85.5 L -12.0237,-85.124 L -12.0942,-84.7539 L -12.2107,-84.3956 L -12.3711,-84.0547
 L -12.5729,-83.7366 L -12.8131,-83.4464 L -13.0877,-83.1884 L -13.3925,-82.967 L -13.7227,-82.7855 L -14.0729,-82.6468
 L -14.4379,-82.5531 L -14.8116,-82.5059 z
M -0.18837,-82.5059 L -0.562134,-82.5531 L -0.927048,-82.6468 L -1.27733,-82.7855 L -1.60747,-82.967 L -1.91226,-83.1884
 L -2.1869,-83.4464 L -2.42705,-83.7366 L -2.62891,-84.0547 L -2.78932,-84.3956 L -2.90575,-84.7539 L -2.97633,-85.124
 L -3,-85.5 L -2.97633,-85.876 L -2.90575,-86.2461 L -2.78932,-86.6044 L -2.62891,-86.9453 L -2.42705,-87.2634
 L -2.1869,-87.5536 L -1.91226,-87.8115 L -1.60747,-88.033 L -1.27733,-88.2145 L -0.927048,-88.3532 L -0.562134,-88.4469
 L -0.18837,-88.4941 L 0.18837,-88.4941 L 0.562134,-88.4469 L 0.927048,-88.3532 L 1.27733,-88.2145 L 1.60747,-88.033
 L 1.91226,-87.8115 L 2.1869,-87.5536 L 2.42705,-87.2634 L 2.62891,-86.9453 L 2.78932,-86.6044 L 2.90575,-86.2461
 L 2.97633,-85.876 L 3,-85.5 L 2.97633,-85.124 L 2.90575,-84.7539 L 2.78932,-84.3956 L 2.62891,-84.0547
 L 2.42705,-83.7366 L 2.1869,-83.4464 L 1.91226,-83.1884 L 1.60747,-82.967 L 1.27733,-82.7855 L 0.927048,-82.6468
 L 0.562134,-82.5531 L 0.18837,-82.5059 z
M 14.8116,-82.5059 L 14.4379,-82.5531 L 14.0729,-82.6468 L 13.7227,-82.7855 L 13.3925,-82.967 L 13.0877,-83.1884
 L 12.8131,-83.4464 L 12.5729,-83.7366 L 12.3711,-84.0547 L 12.2107,-84.3956 L 12.0942,-84.7539 L 12.0237,-85.124
 L 12,-85.5 L 12.0237,-85.876 L 12.0942,-86.2461 L 12.2107,-86.6044 L 12.3711,-86.9453 L 12.5729,-87.2634
 L 12.8131,-87.5536 L 13.0877,-87.8115 L 13.3925,-88.033 L 13.7227,-88.2145 L 14.0729,-88.3532 L 14.4379,-88.4469
 L 14.8116,-88.4941 L 15.1884,-88.4941 L 15.5621,-88.4469 L 15.927,-88.3532 L 16.2773,-88.2145 L 16.6075,-88.033
 L 16.9123,-87.8115 L 17.1869,-87.5536 L 17.427,-87.2634 L 17.6289,-86.9453 L 17.7893,-86.6044 L 17.9057,-86.2461
 L 17.9763,-85.876 L 18,-85.5 L 17.9763,-85.124 L 17.9057,-84.7539 L 17.7893,-84.3956 L 17.6289,-84.0547
 L 17.427,-83.7366 L 17.1869,-83.4464 L 16.9123,-83.1884 L 16.6075,-82.967 L 16.2773,-82.7855 L 15.927,-82.6468
 L 15.5621,-82.5531 L 15.1884,-82.5059 z
M -2.33968,-74.83 L -2.33968,-81 L 7.01906,-81 L 7.01906,-74.83 z
M -17.3397,-74.83 L -17.3397,-81 L -7.98093,-81 L -7.98093,-74.83 z
M -17.5307,-59.9 L -17.6289,-60.0547 L -17.7893,-60.3956 L -17.9057,-60.7539 L -17.9763,-61.124 L -18,-61.5
 L -17.9763,-61.876 L -17.9057,-62.2461 L -17.7893,-62.6044 L -17.6289,-62.9453 L -17.427,-63.2634 L -17.1869,-63.5536
 L -16.9123,-63.8115 L -16.6075,-64.033 L -16.2773,-64.2145 L -15.927,-64.3532 L -15.5621,-64.4469 L -15.1884,-64.4941
 L -14.8116,-64.4941 L -14.4379,-64.4469 L -14.0729,-64.3532 L -13.7227,-64.2145 L -13.3925,-64.033 L -13.0877,-63.8115
 L -12.8131,-63.5536 L -12.5729,-63.2634 L -12.3711,-62.9453 L -12.2107,-62.6044 L -12.0942,-62.2461 L -12.0237,-61.876
 L -12,-61.5 L -12.0237,-61.124 L -12.0942,-60.7539 L -12.2107,-60.3956 L -12.3711,-60.0547 L -12.4693,-59.9
 L -12.4693,-57 L -7.98093,-57 L -7.98093,-50.83 L -12.4693,-50.83 L -12.4693,-48 L -2.53072,-48
 L -2.53072,-59.9 L -2.62891,-60.0547 L -2.78932,-60.3956 L -2.90575,-60.7539 L -2.97633,-61.124 L -3,-61.5
 L -2.97633,-61.876 L -2.90575,-62.2461 L -2.78932,-62.6044 L -2.62891,-62.9453 L -2.42705,-63.2634 L -2.1869,-63.5536
 L -1.91226,-63.8115 L -1.60747,-64.033 L -1.27733,-64.2145 L -0.927048,-64.3532 L -0.562134,-64.4469 L -0.18837,-64.4941
 L 0.18837,-64.4941 L 0.562134,-64.4469 L 0.927048,-64.3532 L 1.27733,-64.2145 L 1.60747,-64.033 L 1.91226,-63.8115
 L 2.1869,-63.5536 L 2.42705,-63.2634 L 2.62891,-62.9453 L 2.78932,-62.6044 L 2.90575,-62.2461 L 2.97633,-61.876
 L 3,-61.5 L 2.97633,-61.124 L 2.90575,-60.7539 L 2.78932,-60.3956 L 2.62891,-60.0547 L 2.53072,-59.9
 L 2.53072,-57 L 7.01906,-57 L 7.01906,-50.83 L 2.53072,-50.83 L 2.53072,-48 L 12.4693,-48
 L 12.4693,-59.9 L 12.3711,-60.0547 L 12.2107,-60.3956 L 12.0942,-60.7539 L 12.0237,-61.124 L 12,-61.5
 L 12.0237,-61.876 L 12.0942,-62.2461 L 12.2107,-62.6044 L 12.3711,-62.9453 L 12.5729,-63.2634 L 12.8131,-63.5536
 L 13.0877,-63.8115 L 13.3925,-64.033 L 13.7227,-64.2145 L 14.0729,-64.3532 L 14.4379,-64.4469 L 14.8116,-64.4941
 L 15.1884,-64.4941 L 15.5621,-64.4469 L 15.927,-64.3532 L 16.2773,-64.2145 L 16.6075,-64.033 L 16.9123,-63.8115
 L 17.1869,-63.5536 L 17.427,-63.2634 L 17.6289,-62.9453 L 17.7893,-62.6044 L 17.9057,-62.2461 L 17.9763,-61.876
 L 18,-61.5 L 17.9763,-61.124 L 17.9057,-60.7539 L 17.7893,-60.3956 L 17.6289,-60.0547 L 17.5307,-59.9
 L 17.5307,-57 L 22,-57 L 22,-63.5 L 21.9606,-64.1267 L 21.8429,-64.7434 L 21.6489,-65.3406
 L 21.3815,-65.9088 L 21.0451,-66.4389 L 20.6448,-66.9227 L 20.1871,-67.3526 L 19.6791,-67.7216 L 19.1289,-68.0241
 L 18.5451,-68.2553 L 17.9369,-68.4114 L 17.3139,-68.4901 L -17.3139,-68.4901 L -17.9369,-68.4114 L -18.5451,-68.2553
 L -19.1289,-68.0241 L -19.6791,-67.7216 L -20.1871,-67.3526 L -20.6448,-66.9227 L -21.0451,-66.4389 L -21.3815,-65.9088
 L -21.6489,-65.3406 L -21.8429,-64.7434 L -21.9606,-64.1267 L -22,-63.5 L -22,-48 L -17.5307,-48
 z
M 22,-50.83 L 17.5307,-50.83 L 17.5307,-48 L 22,-48 z
M -17.5942,-36 L -17.6289,-36.0547 L -17.7893,-36.3956 L -17.9057,-36.7539 L -17.9763,-37.124 L -18,-37.5
 L -17.9763,-37.876 L -17.9057,-38.2461 L -17.7893,-38.6044 L -17.6289,-38.9453 L -17.427,-39.2634 L -17.1869,-39.5536
 L -16.9123,-39.8115 L -16.6075,-40.033 L -16.2773,-40.2145 L -15.927,-40.3532 L -15.5621,-40.4469 L -15.1884,-40.4941
 L -14.8116,-40.4941 L -14.4379,-40.4469 L -14.0729,-40.3532 L -13.7227,-40.2145 L -13.3925,-40.033 L -13.0877,-39.8115
 L -12.8131,-39.5536 L -12.5729,-39.2634 L -12.3711,-38.9453 L -12.2107,-38.6044 L -12.0942,-38.2461 L -12.0237,-37.876
 L -12,-37.5 L -12.0237,-37.124 L -12.0942,-36.7539 L -12.2107,-36.3956 L -12.3711,-36.0547 L -12.4058,-36
 L -12.4058,-33 L -7.98093,-33 L -7.98093,-26.83 L -12.4058,-26.83 L -12.4058,-24 L -2.59418,-24
 L -2.59418,-36 L -2.62891,-36.0547 L -2.78932,-36.3956 L -2.90575,-36.7539 L -2.97633,-37.124 L -3,-37.5
 L -2.97633,-37.876 L -2.90575,-38.2461 L -2.78932,-38.6044 L -2.62891,-38.9453 L -2.42705,-39.2634 L -2.1869,-39.5536
 L -1.91226,-39.8115 L -1.60747,-40.033 L -1.27733,-40.2145 L -0.927048,-40.3532 L -0.562134,-40.4469 L -0.18837,-40.4941
 L 0.18837,-40.4941 L 0.562134,-40.4469 L 0.927048,-40.3532 L 1.27733,-40.2145 L 1.60747,-40.033 L 1.91226,-39.8115
 L 2.1869,-39.5536 L 2.42705,-39.2634 L 2.62891,-38.9453 L 2.78932,-38.6044 L 2.90575,-38.2461 L 2.97633,-37.876
 L 3,-37.5 L 2.97633,-37.124 L 2.90575,-36.7539 L 2.78932,-36.3956 L 2.62891,-36.0547 L 2.59418,-36
 L 2.59418,-33 L 7.01906,-33 L 7.01906,-26.83 L 2.59418,-26.83 L 2.59418,-24 L 12.4058,-24
 L 12.4058,-36 L 12.3711,-36.0547 L 12.2107,-36.3956 L 12.0942,-36.7539 L 12.0237,-37.124 L 12,-37.5
 L 12.0237,-37.876 L 12.0942,-38.2461 L 12.2107,-38.6044 L 12.3711,-38.9453 L 12.5729,-39.2634 L 12.8131,-39.5536
 L 13.0877,-39.8115 L 13.3925,-40.033 L 13.7227,-40.2145 L 14.0729,-40.3532 L 14.4379,-40.4469 L 14.8116,-40.4941
 L 15.1884,-40.4941 L 15.5621,-40.4469 L 15.927,-40.3532 L 16.2773,-40.2145 L 16.6075,-40.033 L 16.9123,-39.8115
 L 17.1869,-39.5536 L 17.427,-39.2634 L 17.6289,-38.9453 L 17.7893,-38.6044 L 17.9057,-38.2461 L 17.9763,-37.876
 L 18,-37.5 L 17.9763,-37.124 L 17.9057,-36.7539 L 17.7893,-36.3956 L 17.6289,-36.0547 L 17.5942,-36
 L 17.5942,-33 L 22,-33 L 22,-39.5 L 21.9606,-40.1267 L 21.8429,-40.7434 L 21.6489,-41.3406
 L 21.3815,-41.9088 L 21.0451,-42.4389 L 20.6448,-42.9227 L 20.1871,-43.3526 L 19.6791,-43.7216 L 19.1289,-44.0241
 L 18.5451,-44.2553 L 17.9369,-44.4114 L 17.3139,-44.4901 L -17.3139,-44.4901 L -17.9369,-44.4114 L -18.5451,-44.2553
 L -19.1289,-44.0241 L -19.6791,-43.7216 L -20.1871,-43.3526 L -20.6448,-42.9227 L -21.0451,-42.4389 L -21.3815,-41.9088
 L -21.6489,-41.3406 L -21.8429,-40.7434 L -21.9606,-40.1267 L -22,-39.5 L -22,-24 L -17.5942,-24
 z
M 22,-26.83 L 17.5942,-26.83 L 17.5942,-24 L 22,-24 z
M 22,-2.82999 L 12.6603,-2.82999 L 12.6603,-9 L 22,-9 L 22,-15.5 L 21.9606,-16.1267
 L 21.8429,-16.7434 L 21.6489,-17.3406 L 21.3815,-17.9088 L 21.0451,-18.4389 L 20.6448,-18.9227 L 20.1871,-19.3526
 L 19.6791,-19.7216 L 19.1289,-20.0241 L 18.5451,-20.2553 L 17.9369,-20.4114 L 17.3139,-20.4901 L -17.3139,-20.4901
 L -17.9369,-20.4114 L -18.5451,-20.2553 L -19.1289,-20.0241 L -19.6791,-19.7216 L -20.1871,-19.3526 L -20.6448,-18.9227
 L -21.0451,-18.4389 L -21.3815,-17.9088 L -21.6489,-17.3406 L -21.8429,-16.7434 L -21.9606,-16.1267 L -22,-15.5
 L -22,-0 L 22,-0 z
M -15.1884,-10.5059 L -15.5621,-10.5531 L -15.927,-10.6468 L -16.2773,-10.7855 L -16.6075,-10.967 L -16.9123,-11.1884
 L -17.1869,-11.4464 L -17.427,-11.7366 L -17.6289,-12.0547 L -17.7893,-12.3956 L -17.9057,-12.7539 L -17.9763,-13.124
 L -18,-13.5 L -17.9763,-13.876 L -17.9057,-14.2461 L -17.7893,-14.6044 L -17.6289,-14.9453 L -17.427,-15.2634
 L -17.1869,-15.5536 L -16.9123,-15.8115 L -16.6075,-16.033 L -16.2773,-16.2145 L -15.927,-16.3532 L -15.5621,-16.4469
 L -15.1884,-16.4941 L -14.8116,-16.4941 L -14.4379,-16.4469 L -14.0729,-16.3532 L -13.7227,-16.2145 L -13.3925,-16.033
 L -13.0877,-15.8115 L -12.8131,-15.5536 L -12.5729,-15.2634 L -12.3711,-14.9453 L -12.2107,-14.6044 L -12.0942,-14.2461
 L -12.0237,-13.876 L -12,-13.5 L -12.0237,-13.124 L -12.0942,-12.7539 L -12.2107,-12.3956 L -12.3711,-12.0547
 L -12.5729,-11.7366 L -12.8131,-11.4464 L -13.0877,-11.1884 L -13.3925,-10.967 L -13.7227,-10.7855 L -14.0729,-10.6468
 L -14.4379,-10.5531 L -14.8116,-10.5059 z
M -0.18837,-10.5059 L -0.562134,-10.5531 L -0.927048,-10.6468 L -1.27733,-10.7855 L -1.60747,-10.967 L -1.91226,-11.1884
 L -2.1869,-11.4464 L -2.42705,-11.7366 L -2.62891,-12.0547 L -2.78932,-12.3956 L -2.90575,-12.7539 L -2.97633,-13.124
 L -3,-13.5 L -2.97633,-13.876 L -2.90575,-14.2461 L -2.78932,-14.6044 L -2.62891,-14.9453 L -2.42705,-15.2634
 L -2.1869,-15.5536 L -1.91226,-15.8115 L -1.60747,-16.033 L -1.27733,-16.2145 L -0.927048,-16.3532 L -0.562134,-16.4469
 L -0.18837,-16.4941 L 0.18837,-16.4941 L 0.562134,-16.4469 L 0.927048,-16.3532 L 1.27733,-16.2145 L 1.60747,-16.033
 L 1.91226,-15.8115 L 2.1869,-15.5536 L 2.42705,-15.2634 L 2.62891,-14.9453 L 2.78932,-14.6044 L 2.90575,-14.2461
 L 2.97633,-13.876 L 3,-13.5 L 2.97633,-13.124 L 2.90575,-12.7539 L 2.78932,-12.3956 L 2.62891,-12.0547
 L 2.42705,-11.7366 L 2.1869,-11.4464 L 1.91226,-11.1884 L 1.60747,-10.967 L 1.27733,-10.7855 L 0.927048,-10.6468
 L 0.562134,-10.5531 L 0.18837,-10.5059 z
M 14.8116,-10.5059 L 14.4379,-10.5531 L 14.0729,-10.6468 L 13.7227,-10.7855 L 13.3925,-10.967 L 13.0877,-11.1884
 L 12.8131,-11.4464 L 12.5729,-11.7366 L 12.3711,-12.0547 L 12.2107,-12.3956 L 12.0942,-12.7539 L 12.0237,-13.124
 L 12,-13.5 L 12.0237,-13.876 L 12.0942,-14.2461 L 12.2107,-14.6044 L 12.3711,-14.9453 L 12.5729,-15.2634
 L 12.8131,-15.5536 L 13.0877,-15.8115 L 13.3925,-16.033 L 13.7227,-16.2145 L 14.0729,-16.3532 L 14.4379,-16.4469
 L 14.8116,-16.4941 L 15.1884,-16.4941 L 15.5621,-16.4469 L 15.927,-16.3532 L 16.2773,-16.2145 L 16.6075,-16.033
 L 16.9123,-15.8115 L 17.1869,-15.5536 L 17.427,-15.2634 L 17.6289,-14.9453 L 17.7893,-14.6044 L 17.9057,-14.2461
 L 17.9763,-13.876 L 18,-13.5 L 17.9763,-13.124 L 17.9057,-12.7539 L 17.7893,-12.3956 L 17.6289,-12.0547
 L 17.427,-11.7366 L 17.1869,-11.4464 L 16.9123,-11.1884 L 16.6075,-10.967 L 16.2773,-10.7855 L 15.927,-10.6468
 L 15.5621,-10.5531 L 15.1884,-10.5059 z
M -2.33968,-2.82999 L -2.33968,-9 L 7.01906,-9 L 7.01906,-2.82999 z
M -17.3397,-2.82999 L -17.3397,-9 L -7.98093,-9 L -7.98093,-2.82999 z
" stroke="black" fill="lightgray" stroke-width="0.5"/>
</svg>
