solid OpenSCAD_Model
  facet normal -0.866025 0.500001 0
    outer loop
      vertex -5.91425 0 0
      vertex -2.95712 5.12189 5.5
      vertex -2.95712 5.12189 0
    endloop
  endfacet
  facet normal -0.866025 0.500001 0
    outer loop
      vertex -2.95712 5.12189 5.5
      vertex -5.91425 0 0
      vertex -5.91425 0 5.5
    endloop
  endfacet
  facet normal 0 1 -0
    outer loop
      vertex 2.95712 5.12189 0
      vertex -2.95712 5.12189 5.5
      vertex 2.95712 5.12189 5.5
    endloop
  endfacet
  facet normal 0 1 0
    outer loop
      vertex -2.95712 5.12189 5.5
      vertex 2.95712 5.12189 0
      vertex -2.95712 5.12189 0
    endloop
  endfacet
  facet normal -0 0 -1
    outer loop
      vertex -1.75 2.73784 0
      vertex -2.07163 2.50417 0
      vertex -1.75 3.25 0
    endloop
  endfacet
  facet normal -0 0 -1
    outer loop
      vertex 5.91425 0 0
      vertex 3.22437 -0.407332 0
      vertex 3.25 0 0
    endloop
  endfacet
  facet normal 0 0 -1
    outer loop
      vertex 5.91425 0 0
      vertex 3.14789 -0.808242 0
      vertex 3.22437 -0.407332 0
    endloop
  endfacet
  facet normal 0 0 -1
    outer loop
      vertex 5.91425 0 0
      vertex 3.02177 -1.1964 0
      vertex 3.14789 -0.808242 0
    endloop
  endfacet
  facet normal 0 0 -1
    outer loop
      vertex 2.848 -1.5657 0
      vertex 5.91425 0 0
      vertex 2.95712 -5.12189 0
    endloop
  endfacet
  facet normal 0 0 -1
    outer loop
      vertex 5.91425 0 0
      vertex 2.848 -1.5657 0
      vertex 3.02177 -1.1964 0
    endloop
  endfacet
  facet normal 0 0 -1
    outer loop
      vertex 2.95712 -5.12189 0
      vertex 2.6293 -1.9103 0
      vertex 2.848 -1.5657 0
    endloop
  endfacet
  facet normal 0 0 -1
    outer loop
      vertex 2.95712 -5.12189 0
      vertex 2.36915 -2.22478 0
      vertex 2.6293 -1.9103 0
    endloop
  endfacet
  facet normal 0 0 -1
    outer loop
      vertex 1.75 -3.25 0
      vertex 2.36915 -2.22478 0
      vertex 2.95712 -5.12189 0
    endloop
  endfacet
  facet normal 0 0 -1
    outer loop
      vertex 2.36915 -2.22478 0
      vertex 1.75 -3.25 0
      vertex 2.07163 -2.50417 0
    endloop
  endfacet
  facet normal 0 0 -1
    outer loop
      vertex 2.95712 -5.12189 0
      vertex -1.75 -3.25 0
      vertex 1.75 -3.25 0
    endloop
  endfacet
  facet normal 0 0 -1
    outer loop
      vertex -1.75 -3.25 0
      vertex -2.07163 -2.50417 0
      vertex -1.75 -2.73784 0
    endloop
  endfacet
  facet normal 0 0 -1
    outer loop
      vertex -1.75 -3.25 0
      vertex -2.36915 -2.22478 0
      vertex -2.07163 -2.50417 0
    endloop
  endfacet
  facet normal 0 0 -1
    outer loop
      vertex -2.95712 -5.12189 0
      vertex -2.36915 -2.22478 0
      vertex -1.75 -3.25 0
    endloop
  endfacet
  facet normal 0 0 -1
    outer loop
      vertex -2.95712 -5.12189 0
      vertex -1.75 -3.25 0
      vertex 2.95712 -5.12189 0
    endloop
  endfacet
  facet normal -0 0 -1
    outer loop
      vertex -2.36915 -2.22478 0
      vertex -2.95712 -5.12189 0
      vertex -2.6293 -1.9103 0
    endloop
  endfacet
  facet normal 0 0 -1
    outer loop
      vertex -2.95712 -5.12189 0
      vertex -2.848 -1.5657 0
      vertex -2.6293 -1.9103 0
    endloop
  endfacet
  facet normal 0 0 -1
    outer loop
      vertex -5.91425 0 0
      vertex -2.848 -1.5657 0
      vertex -2.95712 -5.12189 0
    endloop
  endfacet
  facet normal 0 0 -1
    outer loop
      vertex -2.848 -1.5657 0
      vertex -5.91425 0 0
      vertex -3.02177 -1.1964 0
    endloop
  endfacet
  facet normal 0 0 -1
    outer loop
      vertex -3.02177 -1.1964 0
      vertex -5.91425 0 0
      vertex -3.14789 -0.808242 0
    endloop
  endfacet
  facet normal 0 0 -1
    outer loop
      vertex -3.14789 -0.808242 0
      vertex -5.91425 0 0
      vertex -3.22437 -0.407332 0
    endloop
  endfacet
  facet normal 0 0 -1
    outer loop
      vertex -3.22437 -0.407332 0
      vertex -5.91425 0 0
      vertex -3.25 0 0
    endloop
  endfacet
  facet normal 0 0 -1
    outer loop
      vertex 3.22437 0.407332 0
      vertex 5.91425 0 0
      vertex 3.25 0 0
    endloop
  endfacet
  facet normal 0 0 -1
    outer loop
      vertex 3.14789 0.808242 0
      vertex 5.91425 0 0
      vertex 3.22437 0.407332 0
    endloop
  endfacet
  facet normal 0 0 -1
    outer loop
      vertex 3.02177 1.1964 0
      vertex 5.91425 0 0
      vertex 3.14789 0.808242 0
    endloop
  endfacet
  facet normal 0 0 -1
    outer loop
      vertex 2.848 1.5657 0
      vertex 5.91425 0 0
      vertex 3.02177 1.1964 0
    endloop
  endfacet
  facet normal 0 0 -1
    outer loop
      vertex 5.91425 0 0
      vertex 2.848 1.5657 0
      vertex 2.95712 5.12189 0
    endloop
  endfacet
  facet normal 0 0 -1
    outer loop
      vertex 2.6293 1.9103 0
      vertex 2.95712 5.12189 0
      vertex 2.848 1.5657 0
    endloop
  endfacet
  facet normal 0 0 -1
    outer loop
      vertex 2.36915 2.22478 0
      vertex 2.95712 5.12189 0
      vertex 2.6293 1.9103 0
    endloop
  endfacet
  facet normal 0 0 -1
    outer loop
      vertex 1.75 3.25 0
      vertex 2.36915 2.22478 0
      vertex 2.07163 2.50417 0
    endloop
  endfacet
  facet normal 0 0 -1
    outer loop
      vertex 1.75 3.25 0
      vertex 2.07163 2.50417 0
      vertex 1.75 2.73784 0
    endloop
  endfacet
  facet normal 0 0 -1
    outer loop
      vertex 2.36915 2.22478 0
      vertex 1.75 3.25 0
      vertex 2.95712 5.12189 0
    endloop
  endfacet
  facet normal 0 0 -1
    outer loop
      vertex -1.75 3.25 0
      vertex 2.95712 5.12189 0
      vertex 1.75 3.25 0
    endloop
  endfacet
  facet normal 0 0 -1
    outer loop
      vertex -2.36915 2.22478 0
      vertex -1.75 3.25 0
      vertex -2.07163 2.50417 0
    endloop
  endfacet
  facet normal 0 0 -1
    outer loop
      vertex -2.95712 5.12189 0
      vertex -2.36915 2.22478 0
      vertex -2.6293 1.9103 0
    endloop
  endfacet
  facet normal 0 0 -1
    outer loop
      vertex -1.75 3.25 0
      vertex -2.95712 5.12189 0
      vertex 2.95712 5.12189 0
    endloop
  endfacet
  facet normal 0 0 -1
    outer loop
      vertex -2.36915 2.22478 0
      vertex -2.95712 5.12189 0
      vertex -1.75 3.25 0
    endloop
  endfacet
  facet normal 0 0 -1
    outer loop
      vertex -2.848 1.5657 0
      vertex -2.95712 5.12189 0
      vertex -2.6293 1.9103 0
    endloop
  endfacet
  facet normal 0 0 -1
    outer loop
      vertex -5.91425 0 0
      vertex -2.848 1.5657 0
      vertex -3.02177 1.1964 0
    endloop
  endfacet
  facet normal 0 0 -1
    outer loop
      vertex -5.91425 0 0
      vertex -3.02177 1.1964 0
      vertex -3.14789 0.808242 0
    endloop
  endfacet
  facet normal 0 0 -1
    outer loop
      vertex -5.91425 0 0
      vertex -3.14789 0.808242 0
      vertex -3.22437 0.407332 0
    endloop
  endfacet
  facet normal 0 0 -1
    outer loop
      vertex -5.91425 0 0
      vertex -3.22437 0.407332 0
      vertex -3.25 0 0
    endloop
  endfacet
  facet normal -0 0 -1
    outer loop
      vertex -2.848 1.5657 0
      vertex -5.91425 0 0
      vertex -2.95712 5.12189 0
    endloop
  endfacet
  facet normal 0 0 -1
    outer loop
      vertex 2.07163 -2.50417 0
      vertex 1.75 -3.25 0
      vertex 1.75 -2.73784 0
    endloop
  endfacet
  facet normal 0 0 1
    outer loop
      vertex -1.75 -2.73784 5.5
      vertex -2.07163 -2.50417 5.5
      vertex -1.75 -3.25 5.5
    endloop
  endfacet
  facet normal 0 0 1
    outer loop
      vertex 5.91425 0 5.5
      vertex 3.22437 0.407332 5.5
      vertex 3.25 0 5.5
    endloop
  endfacet
  facet normal 0 0 1
    outer loop
      vertex 5.91425 0 5.5
      vertex 3.14789 0.808242 5.5
      vertex 3.22437 0.407332 5.5
    endloop
  endfacet
  facet normal 0 0 1
    outer loop
      vertex 5.91425 0 5.5
      vertex 3.02177 1.1964 5.5
      vertex 3.14789 0.808242 5.5
    endloop
  endfacet
  facet normal -0 0 1
    outer loop
      vertex 2.848 1.5657 5.5
      vertex 5.91425 0 5.5
      vertex 2.95712 5.12189 5.5
    endloop
  endfacet
  facet normal 0 0 1
    outer loop
      vertex 5.91425 0 5.5
      vertex 2.848 1.5657 5.5
      vertex 3.02177 1.1964 5.5
    endloop
  endfacet
  facet normal 0 0 1
    outer loop
      vertex 2.95712 5.12189 5.5
      vertex 2.6293 1.9103 5.5
      vertex 2.848 1.5657 5.5
    endloop
  endfacet
  facet normal 0 0 1
    outer loop
      vertex 2.95712 5.12189 5.5
      vertex 2.36915 2.22478 5.5
      vertex 2.6293 1.9103 5.5
    endloop
  endfacet
  facet normal -0 0 1
    outer loop
      vertex 1.75 3.25 5.5
      vertex 2.36915 2.22478 5.5
      vertex 2.95712 5.12189 5.5
    endloop
  endfacet
  facet normal 0 0 1
    outer loop
      vertex 2.36915 2.22478 5.5
      vertex 1.75 3.25 5.5
      vertex 2.07163 2.50417 5.5
    endloop
  endfacet
  facet normal 0 0 1
    outer loop
      vertex 2.95712 5.12189 5.5
      vertex -1.75 3.25 5.5
      vertex 1.75 3.25 5.5
    endloop
  endfacet
  facet normal 0 0 1
    outer loop
      vertex -1.75 3.25 5.5
      vertex -2.07163 2.50417 5.5
      vertex -1.75 2.73784 5.5
    endloop
  endfacet
  facet normal 0 0 1
    outer loop
      vertex -1.75 3.25 5.5
      vertex -2.36915 2.22478 5.5
      vertex -2.07163 2.50417 5.5
    endloop
  endfacet
  facet normal 0 0 1
    outer loop
      vertex -2.95712 5.12189 5.5
      vertex -2.36915 2.22478 5.5
      vertex -1.75 3.25 5.5
    endloop
  endfacet
  facet normal -0 0 1
    outer loop
      vertex -2.95712 5.12189 5.5
      vertex -1.75 3.25 5.5
      vertex 2.95712 5.12189 5.5
    endloop
  endfacet
  facet normal 0 0 1
    outer loop
      vertex -2.36915 2.22478 5.5
      vertex -2.95712 5.12189 5.5
      vertex -2.6293 1.9103 5.5
    endloop
  endfacet
  facet normal 0 0 1
    outer loop
      vertex -2.95712 5.12189 5.5
      vertex -2.848 1.5657 5.5
      vertex -2.6293 1.9103 5.5
    endloop
  endfacet
  facet normal 0 0 1
    outer loop
      vertex -5.91425 0 5.5
      vertex -2.848 1.5657 5.5
      vertex -2.95712 5.12189 5.5
    endloop
  endfacet
  facet normal 0 0 1
    outer loop
      vertex -2.848 1.5657 5.5
      vertex -5.91425 0 5.5
      vertex -3.02177 1.1964 5.5
    endloop
  endfacet
  facet normal 0 0 1
    outer loop
      vertex -3.02177 1.1964 5.5
      vertex -5.91425 0 5.5
      vertex -3.14789 0.808242 5.5
    endloop
  endfacet
  facet normal 0 0 1
    outer loop
      vertex -3.14789 0.808242 5.5
      vertex -5.91425 0 5.5
      vertex -3.22437 0.407332 5.5
    endloop
  endfacet
  facet normal 0 0 1
    outer loop
      vertex -3.22437 0.407332 5.5
      vertex -5.91425 0 5.5
      vertex -3.25 0 5.5
    endloop
  endfacet
  facet normal 0 0 1
    outer loop
      vertex 3.22437 -0.407332 5.5
      vertex 5.91425 0 5.5
      vertex 3.25 0 5.5
    endloop
  endfacet
  facet normal 0 0 1
    outer loop
      vertex 3.14789 -0.808242 5.5
      vertex 5.91425 0 5.5
      vertex 3.22437 -0.407332 5.5
    endloop
  endfacet
  facet normal 0 0 1
    outer loop
      vertex 3.02177 -1.1964 5.5
      vertex 5.91425 0 5.5
      vertex 3.14789 -0.808242 5.5
    endloop
  endfacet
  facet normal 0 0 1
    outer loop
      vertex 2.848 -1.5657 5.5
      vertex 5.91425 0 5.5
      vertex 3.02177 -1.1964 5.5
    endloop
  endfacet
  facet normal 0 0 1
    outer loop
      vertex 5.91425 0 5.5
      vertex 2.848 -1.5657 5.5
      vertex 2.95712 -5.12189 5.5
    endloop
  endfacet
  facet normal -0 0 1
    outer loop
      vertex 2.6293 -1.9103 5.5
      vertex 2.95712 -5.12189 5.5
      vertex 2.848 -1.5657 5.5
    endloop
  endfacet
  facet normal -0 0 1
    outer loop
      vertex 2.36915 -2.22478 5.5
      vertex 2.95712 -5.12189 5.5
      vertex 2.6293 -1.9103 5.5
    endloop
  endfacet
  facet normal 0 0 1
    outer loop
      vertex 1.75 -3.25 5.5
      vertex 2.36915 -2.22478 5.5
      vertex 2.07163 -2.50417 5.5
    endloop
  endfacet
  facet normal 0 0 1
    outer loop
      vertex 1.75 -3.25 5.5
      vertex 2.07163 -2.50417 5.5
      vertex 1.75 -2.73784 5.5
    endloop
  endfacet
  facet normal 0 0 1
    outer loop
      vertex 2.36915 -2.22478 5.5
      vertex 1.75 -3.25 5.5
      vertex 2.95712 -5.12189 5.5
    endloop
  endfacet
  facet normal -0 0 1
    outer loop
      vertex -1.75 -3.25 5.5
      vertex 2.95712 -5.12189 5.5
      vertex 1.75 -3.25 5.5
    endloop
  endfacet
  facet normal 0 0 1
    outer loop
      vertex -2.36915 -2.22478 5.5
      vertex -1.75 -3.25 5.5
      vertex -2.07163 -2.50417 5.5
    endloop
  endfacet
  facet normal 0 0 1
    outer loop
      vertex -2.95712 -5.12189 5.5
      vertex -2.36915 -2.22478 5.5
      vertex -2.6293 -1.9103 5.5
    endloop
  endfacet
  facet normal 0 0 1
    outer loop
      vertex -1.75 -3.25 5.5
      vertex -2.95712 -5.12189 5.5
      vertex 2.95712 -5.12189 5.5
    endloop
  endfacet
  facet normal 0 0 1
    outer loop
      vertex -2.36915 -2.22478 5.5
      vertex -2.95712 -5.12189 5.5
      vertex -1.75 -3.25 5.5
    endloop
  endfacet
  facet normal 0 0 1
    outer loop
      vertex -2.848 -1.5657 5.5
      vertex -2.95712 -5.12189 5.5
      vertex -2.6293 -1.9103 5.5
    endloop
  endfacet
  facet normal 0 0 1
    outer loop
      vertex -5.91425 0 5.5
      vertex -2.848 -1.5657 5.5
      vertex -3.02177 -1.1964 5.5
    endloop
  endfacet
  facet normal 0 0 1
    outer loop
      vertex -5.91425 0 5.5
      vertex -3.02177 -1.1964 5.5
      vertex -3.14789 -0.808242 5.5
    endloop
  endfacet
  facet normal 0 0 1
    outer loop
      vertex -5.91425 0 5.5
      vertex -3.14789 -0.808242 5.5
      vertex -3.22437 -0.407332 5.5
    endloop
  endfacet
  facet normal -0 0 1
    outer loop
      vertex -5.91425 0 5.5
      vertex -3.22437 -0.407332 5.5
      vertex -3.25 0 5.5
    endloop
  endfacet
  facet normal 0 0 1
    outer loop
      vertex -2.848 -1.5657 5.5
      vertex -5.91425 0 5.5
      vertex -2.95712 -5.12189 5.5
    endloop
  endfacet
  facet normal 0 0 1
    outer loop
      vertex 2.07163 2.50417 5.5
      vertex 1.75 3.25 5.5
      vertex 1.75 2.73784 5.5
    endloop
  endfacet
  facet normal 0.866025 -0.500001 0
    outer loop
      vertex 2.95712 -5.12189 5.5
      vertex 5.91425 0 0
      vertex 5.91425 0 5.5
    endloop
  endfacet
  facet normal 0.866025 -0.500001 0
    outer loop
      vertex 5.91425 0 0
      vertex 2.95712 -5.12189 5.5
      vertex 2.95712 -5.12189 0
    endloop
  endfacet
  facet normal 0.866025 0.500001 0
    outer loop
      vertex 5.91425 0 5.5
      vertex 2.95712 5.12189 0
      vertex 2.95712 5.12189 5.5
    endloop
  endfacet
  facet normal 0.866025 0.500001 0
    outer loop
      vertex 2.95712 5.12189 0
      vertex 5.91425 0 5.5
      vertex 5.91425 0 0
    endloop
  endfacet
  facet normal 0 -1 0
    outer loop
      vertex -2.95712 -5.12189 0
      vertex 2.95712 -5.12189 5.5
      vertex -2.95712 -5.12189 5.5
    endloop
  endfacet
  facet normal 0 -1 -0
    outer loop
      vertex 2.95712 -5.12189 5.5
      vertex -2.95712 -5.12189 0
      vertex 2.95712 -5.12189 0
    endloop
  endfacet
  facet normal -0.866025 -0.500001 0
    outer loop
      vertex -2.95712 -5.12189 0
      vertex -5.91425 0 5.5
      vertex -5.91425 0 0
    endloop
  endfacet
  facet normal -0.866025 -0.500001 0
    outer loop
      vertex -5.91425 0 5.5
      vertex -2.95712 -5.12189 0
      vertex -2.95712 -5.12189 5.5
    endloop
  endfacet
  facet normal -1 0 0
    outer loop
      vertex -1.75 -3.25 5.5
      vertex -1.75 -2.73784 5.8
      vertex -1.75 -2.73784 5.5
    endloop
  endfacet
  facet normal -1 -0 0
    outer loop
      vertex -1.75 -2.73784 5.8
      vertex -1.75 -3.25 5.5
      vertex -1.75 -3.25 5.8
    endloop
  endfacet
  facet normal -1 0 0
    outer loop
      vertex -1.75 2.73784 5.5
      vertex -1.75 3.25 5.8
      vertex -1.75 3.25 5.5
    endloop
  endfacet
  facet normal -1 -0 0
    outer loop
      vertex -1.75 3.25 5.8
      vertex -1.75 2.73784 5.5
      vertex -1.75 2.73784 5.8
    endloop
  endfacet
  facet normal -0 0 1
    outer loop
      vertex 1.74144 -2.74407 5.8
      vertex 1.75 -3.25 5.8
      vertex 1.75 -2.73784 5.8
    endloop
  endfacet
  facet normal -0 0 1
    outer loop
      vertex 1.38378 -2.94069 5.8
      vertex 1.75 -3.25 5.8
      vertex 1.74144 -2.74407 5.8
    endloop
  endfacet
  facet normal -0 0 1
    outer loop
      vertex 1.0043 -3.09093 5.8
      vertex 1.75 -3.25 5.8
      vertex 1.38378 -2.94069 5.8
    endloop
  endfacet
  facet normal -0 0 1
    outer loop
      vertex 0.608989 -3.19243 5.8
      vertex 1.75 -3.25 5.8
      vertex 1.0043 -3.09093 5.8
    endloop
  endfacet
  facet normal -0 0 1
    outer loop
      vertex 0.204069 -3.24359 5.8
      vertex 1.75 -3.25 5.8
      vertex 0.608989 -3.19243 5.8
    endloop
  endfacet
  facet normal -0 0 1
    outer loop
      vertex -0.204069 -3.24359 5.8
      vertex 1.75 -3.25 5.8
      vertex 0.204069 -3.24359 5.8
    endloop
  endfacet
  facet normal 0 0 1
    outer loop
      vertex -0.204069 -3.24359 5.8
      vertex -1.75 -3.25 5.8
      vertex 1.75 -3.25 5.8
    endloop
  endfacet
  facet normal 0 0 1
    outer loop
      vertex -0.608989 -3.19243 5.8
      vertex -1.75 -3.25 5.8
      vertex -0.204069 -3.24359 5.8
    endloop
  endfacet
  facet normal 0 0 1
    outer loop
      vertex -1.0043 -3.09093 5.8
      vertex -1.75 -3.25 5.8
      vertex -0.608989 -3.19243 5.8
    endloop
  endfacet
  facet normal 0 0 1
    outer loop
      vertex -1.38378 -2.94069 5.8
      vertex -1.75 -3.25 5.8
      vertex -1.0043 -3.09093 5.8
    endloop
  endfacet
  facet normal 0 0 1
    outer loop
      vertex -1.74144 -2.74407 5.8
      vertex -1.75 -3.25 5.8
      vertex -1.38378 -2.94069 5.8
    endloop
  endfacet
  facet normal 0 0 1
    outer loop
      vertex -1.75 -3.25 5.8
      vertex -1.74144 -2.74407 5.8
      vertex -1.75 -2.73784 5.8
    endloop
  endfacet
  facet normal 0 0 1
    outer loop
      vertex 1.75 3.25 5.8
      vertex 1.74144 2.74407 5.8
      vertex 1.75 2.73784 5.8
    endloop
  endfacet
  facet normal 0 0 1
    outer loop
      vertex 1.75 3.25 5.8
      vertex 1.38378 2.94069 5.8
      vertex 1.74144 2.74407 5.8
    endloop
  endfacet
  facet normal 0 0 1
    outer loop
      vertex 1.75 3.25 5.8
      vertex 1.0043 3.09093 5.8
      vertex 1.38378 2.94069 5.8
    endloop
  endfacet
  facet normal 0 0 1
    outer loop
      vertex 1.75 3.25 5.8
      vertex 0.608989 3.19243 5.8
      vertex 1.0043 3.09093 5.8
    endloop
  endfacet
  facet normal 0 0 1
    outer loop
      vertex 1.75 3.25 5.8
      vertex 0.204069 3.24359 5.8
      vertex 0.608989 3.19243 5.8
    endloop
  endfacet
  facet normal 0 0 1
    outer loop
      vertex 1.75 3.25 5.8
      vertex -0.204069 3.24359 5.8
      vertex 0.204069 3.24359 5.8
    endloop
  endfacet
  facet normal -0 0 1
    outer loop
      vertex -1.75 3.25 5.8
      vertex -0.204069 3.24359 5.8
      vertex 1.75 3.25 5.8
    endloop
  endfacet
  facet normal 0 0 1
    outer loop
      vertex -1.75 3.25 5.8
      vertex -0.608989 3.19243 5.8
      vertex -0.204069 3.24359 5.8
    endloop
  endfacet
  facet normal 0 0 1
    outer loop
      vertex -1.75 3.25 5.8
      vertex -1.0043 3.09093 5.8
      vertex -0.608989 3.19243 5.8
    endloop
  endfacet
  facet normal 0 0 1
    outer loop
      vertex -1.75 3.25 5.8
      vertex -1.38378 2.94069 5.8
      vertex -1.0043 3.09093 5.8
    endloop
  endfacet
  facet normal 0 0 1
    outer loop
      vertex -1.75 3.25 5.8
      vertex -1.74144 2.74407 5.8
      vertex -1.38378 2.94069 5.8
    endloop
  endfacet
  facet normal 0 0 1
    outer loop
      vertex -1.74144 2.74407 5.8
      vertex -1.75 3.25 5.8
      vertex -1.75 2.73784 5.8
    endloop
  endfacet
  facet normal 1 -0 0
    outer loop
      vertex 1.75 -3.25 5.8
      vertex 1.75 -2.73784 5.5
      vertex 1.75 -2.73784 5.8
    endloop
  endfacet
  facet normal 1 0 0
    outer loop
      vertex 1.75 -2.73784 5.5
      vertex 1.75 -3.25 5.8
      vertex 1.75 -3.25 5.5
    endloop
  endfacet
  facet normal 1 -0 0
    outer loop
      vertex 1.75 2.73784 5.8
      vertex 1.75 3.25 5.5
      vertex 1.75 3.25 5.8
    endloop
  endfacet
  facet normal 1 0 0
    outer loop
      vertex 1.75 3.25 5.5
      vertex 1.75 2.73784 5.8
      vertex 1.75 2.73784 5.5
    endloop
  endfacet
  facet normal 0 1 -0
    outer loop
      vertex 1.75 3.25 5.5
      vertex -1.75 3.25 5.8
      vertex 1.75 3.25 5.8
    endloop
  endfacet
  facet normal 0 1 0
    outer loop
      vertex -1.75 3.25 5.8
      vertex 1.75 3.25 5.5
      vertex -1.75 3.25 5.5
    endloop
  endfacet
  facet normal 0 -1 0
    outer loop
      vertex -1.75 -3.25 5.5
      vertex 1.75 -3.25 5.8
      vertex -1.75 -3.25 5.8
    endloop
  endfacet
  facet normal 0 -1 -0
    outer loop
      vertex 1.75 -3.25 5.8
      vertex -1.75 -3.25 5.5
      vertex 1.75 -3.25 5.5
    endloop
  endfacet
  facet normal -1 0 0
    outer loop
      vertex -1.75 -3.25 -0.299999
      vertex -1.75 -2.73784 0
      vertex -1.75 -2.73784 -0.299999
    endloop
  endfacet
  facet normal -1 -0 0
    outer loop
      vertex -1.75 -2.73784 0
      vertex -1.75 -3.25 -0.299999
      vertex -1.75 -3.25 0
    endloop
  endfacet
  facet normal -1 0 0
    outer loop
      vertex -1.75 2.73784 -0.299999
      vertex -1.75 3.25 0
      vertex -1.75 3.25 -0.299999
    endloop
  endfacet
  facet normal -1 -0 0
    outer loop
      vertex -1.75 3.25 0
      vertex -1.75 2.73784 -0.299999
      vertex -1.75 2.73784 0
    endloop
  endfacet
  facet normal 1 -0 0
    outer loop
      vertex 1.75 -3.25 0
      vertex 1.75 -2.73784 -0.299999
      vertex 1.75 -2.73784 0
    endloop
  endfacet
  facet normal 1 0 0
    outer loop
      vertex 1.75 -2.73784 -0.299999
      vertex 1.75 -3.25 0
      vertex 1.75 -3.25 -0.299999
    endloop
  endfacet
  facet normal 1 -0 0
    outer loop
      vertex 1.75 2.73784 0
      vertex 1.75 3.25 -0.299999
      vertex 1.75 3.25 0
    endloop
  endfacet
  facet normal 1 0 0
    outer loop
      vertex 1.75 3.25 -0.299999
      vertex 1.75 2.73784 0
      vertex 1.75 2.73784 -0.299999
    endloop
  endfacet
  facet normal 0 0 -1
    outer loop
      vertex 1.75 -3.25 -0.299999
      vertex 1.74144 -2.74407 -0.299999
      vertex 1.75 -2.73784 -0.299999
    endloop
  endfacet
  facet normal 0 0 -1
    outer loop
      vertex 1.75 -3.25 -0.299999
      vertex 1.38378 -2.94069 -0.299999
      vertex 1.74144 -2.74407 -0.299999
    endloop
  endfacet
  facet normal 0 0 -1
    outer loop
      vertex 1.75 -3.25 -0.299999
      vertex 1.0043 -3.09093 -0.299999
      vertex 1.38378 -2.94069 -0.299999
    endloop
  endfacet
  facet normal 0 0 -1
    outer loop
      vertex 1.75 -3.25 -0.299999
      vertex 0.608989 -3.19243 -0.299999
      vertex 1.0043 -3.09093 -0.299999
    endloop
  endfacet
  facet normal 0 0 -1
    outer loop
      vertex 1.75 -3.25 -0.299999
      vertex 0.204069 -3.24359 -0.299999
      vertex 0.608989 -3.19243 -0.299999
    endloop
  endfacet
  facet normal 0 0 -1
    outer loop
      vertex 1.75 -3.25 -0.299999
      vertex -0.204069 -3.24359 -0.299999
      vertex 0.204069 -3.24359 -0.299999
    endloop
  endfacet
  facet normal 0 0 -1
    outer loop
      vertex -1.75 -3.25 -0.299999
      vertex -0.204069 -3.24359 -0.299999
      vertex 1.75 -3.25 -0.299999
    endloop
  endfacet
  facet normal 0 0 -1
    outer loop
      vertex -1.75 -3.25 -0.299999
      vertex -0.608989 -3.19243 -0.299999
      vertex -0.204069 -3.24359 -0.299999
    endloop
  endfacet
  facet normal 0 0 -1
    outer loop
      vertex -1.75 -3.25 -0.299999
      vertex -1.0043 -3.09093 -0.299999
      vertex -0.608989 -3.19243 -0.299999
    endloop
  endfacet
  facet normal 0 0 -1
    outer loop
      vertex -1.75 -3.25 -0.299999
      vertex -1.38378 -2.94069 -0.299999
      vertex -1.0043 -3.09093 -0.299999
    endloop
  endfacet
  facet normal 0 0 -1
    outer loop
      vertex -1.75 -3.25 -0.299999
      vertex -1.74144 -2.74407 -0.299999
      vertex -1.38378 -2.94069 -0.299999
    endloop
  endfacet
  facet normal -0 0 -1
    outer loop
      vertex -1.74144 -2.74407 -0.299999
      vertex -1.75 -3.25 -0.299999
      vertex -1.75 -2.73784 -0.299999
    endloop
  endfacet
  facet normal 0 0 -1
    outer loop
      vertex 1.74144 2.74407 -0.299999
      vertex 1.75 3.25 -0.299999
      vertex 1.75 2.73784 -0.299999
    endloop
  endfacet
  facet normal 0 0 -1
    outer loop
      vertex 1.38378 2.94069 -0.299999
      vertex 1.75 3.25 -0.299999
      vertex 1.74144 2.74407 -0.299999
    endloop
  endfacet
  facet normal 0 0 -1
    outer loop
      vertex 1.0043 3.09093 -0.299999
      vertex 1.75 3.25 -0.299999
      vertex 1.38378 2.94069 -0.299999
    endloop
  endfacet
  facet normal 0 0 -1
    outer loop
      vertex 0.608989 3.19243 -0.299999
      vertex 1.75 3.25 -0.299999
      vertex 1.0043 3.09093 -0.299999
    endloop
  endfacet
  facet normal 0 0 -1
    outer loop
      vertex 0.204069 3.24359 -0.299999
      vertex 1.75 3.25 -0.299999
      vertex 0.608989 3.19243 -0.299999
    endloop
  endfacet
  facet normal 0 0 -1
    outer loop
      vertex -0.204069 3.24359 -0.299999
      vertex 1.75 3.25 -0.299999
      vertex 0.204069 3.24359 -0.299999
    endloop
  endfacet
  facet normal 0 0 -1
    outer loop
      vertex -0.204069 3.24359 -0.299999
      vertex -1.75 3.25 -0.299999
      vertex 1.75 3.25 -0.299999
    endloop
  endfacet
  facet normal 0 0 -1
    outer loop
      vertex -0.608989 3.19243 -0.299999
      vertex -1.75 3.25 -0.299999
      vertex -0.204069 3.24359 -0.299999
    endloop
  endfacet
  facet normal 0 0 -1
    outer loop
      vertex -1.0043 3.09093 -0.299999
      vertex -1.75 3.25 -0.299999
      vertex -0.608989 3.19243 -0.299999
    endloop
  endfacet
  facet normal 0 0 -1
    outer loop
      vertex -1.38378 2.94069 -0.299999
      vertex -1.75 3.25 -0.299999
      vertex -1.0043 3.09093 -0.299999
    endloop
  endfacet
  facet normal 0 0 -1
    outer loop
      vertex -1.74144 2.74407 -0.299999
      vertex -1.75 3.25 -0.299999
      vertex -1.38378 2.94069 -0.299999
    endloop
  endfacet
  facet normal 0 0 -1
    outer loop
      vertex -1.75 3.25 -0.299999
      vertex -1.74144 2.74407 -0.299999
      vertex -1.75 2.73784 -0.299999
    endloop
  endfacet
  facet normal 0 -1 0
    outer loop
      vertex -1.75 -3.25 -0.299999
      vertex 1.75 -3.25 0
      vertex -1.75 -3.25 0
    endloop
  endfacet
  facet normal 0 -1 -0
    outer loop
      vertex 1.75 -3.25 0
      vertex -1.75 -3.25 -0.299999
      vertex 1.75 -3.25 -0.299999
    endloop
  endfacet
  facet normal 0 1 -0
    outer loop
      vertex 1.75 3.25 -0.299999
      vertex -1.75 3.25 0
      vertex 1.75 3.25 0
    endloop
  endfacet
  facet normal 0 1 0
    outer loop
      vertex -1.75 3.25 0
      vertex 1.75 3.25 -0.299999
      vertex -1.75 3.25 -0.299999
    endloop
  endfacet
  facet normal -0.904836 -0.42576 0
    outer loop
      vertex 3.02177 1.1964 0
      vertex 2.848 1.5657 5.5
      vertex 2.848 1.5657 0
    endloop
  endfacet
  facet normal -0.904836 -0.42576 0
    outer loop
      vertex 2.848 1.5657 5.5
      vertex 3.02177 1.1964 0
      vertex 3.02177 1.1964 5.5
    endloop
  endfacet
  facet normal -0.844317 -0.535845 0
    outer loop
      vertex 2.848 1.5657 0
      vertex 2.6293 1.9103 5.5
      vertex 2.6293 1.9103 0
    endloop
  endfacet
  facet normal -0.844317 -0.535845 0
    outer loop
      vertex 2.6293 1.9103 5.5
      vertex 2.848 1.5657 0
      vertex 2.848 1.5657 5.5
    endloop
  endfacet
  facet normal -0.248693 -0.968582 0
    outer loop
      vertex 0.608989 3.19243 -0.299999
      vertex 1.0043 3.09093 5.8
      vertex 0.608989 3.19243 5.8
    endloop
  endfacet
  facet normal -0.248693 -0.968582 -0
    outer loop
      vertex 1.0043 3.09093 5.8
      vertex 0.608989 3.19243 -0.299999
      vertex 1.0043 3.09093 -0.299999
    endloop
  endfacet
  facet normal -0.36811 -0.929782 0
    outer loop
      vertex 1.0043 3.09093 -0.299999
      vertex 1.38378 2.94069 5.8
      vertex 1.0043 3.09093 5.8
    endloop
  endfacet
  facet normal -0.36811 -0.929782 -0
    outer loop
      vertex 1.38378 2.94069 5.8
      vertex 1.0043 3.09093 -0.299999
      vertex 1.38378 2.94069 -0.299999
    endloop
  endfacet
  facet normal 0.36811 -0.929782 0
    outer loop
      vertex -1.38378 2.94069 -0.299999
      vertex -1.0043 3.09093 5.8
      vertex -1.38378 2.94069 5.8
    endloop
  endfacet
  facet normal 0.36811 -0.929782 0
    outer loop
      vertex -1.0043 3.09093 5.8
      vertex -1.38378 2.94069 -0.299999
      vertex -1.0043 3.09093 -0.299999
    endloop
  endfacet
  facet normal 0.904836 -0.42576 0
    outer loop
      vertex -3.02177 1.1964 5.5
      vertex -2.848 1.5657 0
      vertex -2.848 1.5657 5.5
    endloop
  endfacet
  facet normal 0.904836 -0.42576 0
    outer loop
      vertex -2.848 1.5657 0
      vertex -3.02177 1.1964 5.5
      vertex -3.02177 1.1964 0
    endloop
  endfacet
  facet normal -0.982286 0.187387 0
    outer loop
      vertex 3.14789 -0.808242 0
      vertex 3.22437 -0.407332 5.5
      vertex 3.22437 -0.407332 0
    endloop
  endfacet
  facet normal -0.982286 0.187387 0
    outer loop
      vertex 3.22437 -0.407332 5.5
      vertex 3.14789 -0.808242 0
      vertex 3.14789 -0.808242 5.5
    endloop
  endfacet
  facet normal -0.588452 -0.808532 0
    outer loop
      vertex 1.74144 2.74407 5.8
      vertex 1.75 2.73784 5.5
      vertex 1.75 2.73784 5.8
    endloop
  endfacet
  facet normal -0.587772 -0.809026 -0
    outer loop
      vertex 1.75 2.73784 5.5
      vertex 1.75 2.73784 0
      vertex 2.07163 2.50417 5.5
    endloop
  endfacet
  facet normal -0.588452 -0.808532 0
    outer loop
      vertex 1.74144 2.74407 5.8
      vertex 1.75 2.73784 0
      vertex 1.75 2.73784 5.5
    endloop
  endfacet
  facet normal -0.588452 -0.808532 0
    outer loop
      vertex 1.74144 2.74407 -0.299999
      vertex 1.75 2.73784 0
      vertex 1.74144 2.74407 5.8
    endloop
  endfacet
  facet normal -0.588452 -0.808532 -0
    outer loop
      vertex 1.75 2.73784 0
      vertex 1.74144 2.74407 -0.299999
      vertex 1.75 2.73784 -0.299999
    endloop
  endfacet
  facet normal -0.587772 -0.809026 -0
    outer loop
      vertex 2.07163 2.50417 5.5
      vertex 1.75 2.73784 0
      vertex 2.07163 2.50417 0
    endloop
  endfacet
  facet normal 0.982286 -0.187387 0
    outer loop
      vertex -3.22437 0.407332 5.5
      vertex -3.14789 0.808242 0
      vertex -3.14789 0.808242 5.5
    endloop
  endfacet
  facet normal 0.982286 -0.187387 0
    outer loop
      vertex -3.14789 0.808242 0
      vertex -3.22437 0.407332 5.5
      vertex -3.22437 0.407332 0
    endloop
  endfacet
  facet normal 0.770526 -0.637409 0
    outer loop
      vertex -2.6293 1.9103 5.5
      vertex -2.36915 2.22478 0
      vertex -2.36915 2.22478 5.5
    endloop
  endfacet
  facet normal 0.770526 -0.637409 0
    outer loop
      vertex -2.36915 2.22478 0
      vertex -2.6293 1.9103 5.5
      vertex -2.6293 1.9103 0
    endloop
  endfacet
  facet normal 0.481744 -0.876312 0
    outer loop
      vertex -1.74144 2.74407 -0.299999
      vertex -1.38378 2.94069 5.8
      vertex -1.74144 2.74407 5.8
    endloop
  endfacet
  facet normal 0.481744 -0.876312 0
    outer loop
      vertex -1.38378 2.94069 5.8
      vertex -1.74144 2.74407 -0.299999
      vertex -1.38378 2.94069 -0.299999
    endloop
  endfacet
  facet normal 0.125349 -0.992113 0
    outer loop
      vertex -0.608989 3.19243 -0.299999
      vertex -0.204069 3.24359 5.8
      vertex -0.608989 3.19243 5.8
    endloop
  endfacet
  facet normal 0.125349 -0.992113 0
    outer loop
      vertex -0.204069 3.24359 5.8
      vertex -0.608989 3.19243 -0.299999
      vertex -0.204069 3.24359 -0.299999
    endloop
  endfacet
  facet normal -0.998026 -0.0627975 0
    outer loop
      vertex 3.25 0 0
      vertex 3.22437 0.407332 5.5
      vertex 3.22437 0.407332 0
    endloop
  endfacet
  facet normal -0.998026 -0.0627975 0
    outer loop
      vertex 3.22437 0.407332 5.5
      vertex 3.25 0 0
      vertex 3.25 0 5.5
    endloop
  endfacet
  facet normal -0.951057 0.309017 0
    outer loop
      vertex 3.02177 -1.1964 0
      vertex 3.14789 -0.808242 5.5
      vertex 3.14789 -0.808242 0
    endloop
  endfacet
  facet normal -0.951057 0.309017 0
    outer loop
      vertex 3.14789 -0.808242 5.5
      vertex 3.02177 -1.1964 0
      vertex 3.02177 -1.1964 5.5
    endloop
  endfacet
  facet normal -0.587772 0.809026 0
    outer loop
      vertex 2.07163 -2.50417 5.5
      vertex 2.07163 -2.50417 0
      vertex 1.75 -2.73784 5.5
    endloop
  endfacet
  facet normal -0.588452 0.808532 0
    outer loop
      vertex 1.75 -2.73784 5.5
      vertex 1.74144 -2.74407 5.8
      vertex 1.75 -2.73784 5.8
    endloop
  endfacet
  facet normal -0.587772 0.809026 0
    outer loop
      vertex 1.75 -2.73784 0
      vertex 1.75 -2.73784 5.5
      vertex 2.07163 -2.50417 0
    endloop
  endfacet
  facet normal -0.588452 0.808532 0
    outer loop
      vertex 1.75 -2.73784 0
      vertex 1.74144 -2.74407 5.8
      vertex 1.75 -2.73784 5.5
    endloop
  endfacet
  facet normal -0.588452 0.808532 0
    outer loop
      vertex 1.74144 -2.74407 -0.299999
      vertex 1.75 -2.73784 0
      vertex 1.75 -2.73784 -0.299999
    endloop
  endfacet
  facet normal -0.588452 0.808532 0
    outer loop
      vertex 1.75 -2.73784 0
      vertex 1.74144 -2.74407 -0.299999
      vertex 1.74144 -2.74407 5.8
    endloop
  endfacet
  facet normal -0.951057 -0.309017 0
    outer loop
      vertex 3.14789 0.808242 0
      vertex 3.02177 1.1964 5.5
      vertex 3.02177 1.1964 0
    endloop
  endfacet
  facet normal -0.951057 -0.309017 0
    outer loop
      vertex 3.02177 1.1964 5.5
      vertex 3.14789 0.808242 0
      vertex 3.14789 0.808242 5.5
    endloop
  endfacet
  facet normal -0.684547 -0.728968 0
    outer loop
      vertex 2.07163 2.50417 0
      vertex 2.36915 2.22478 5.5
      vertex 2.07163 2.50417 5.5
    endloop
  endfacet
  facet normal -0.684547 -0.728968 -0
    outer loop
      vertex 2.36915 2.22478 5.5
      vertex 2.07163 2.50417 0
      vertex 2.36915 2.22478 0
    endloop
  endfacet
  facet normal 0 -1 0
    outer loop
      vertex -0.204069 3.24359 -0.299999
      vertex 0.204069 3.24359 5.8
      vertex -0.204069 3.24359 5.8
    endloop
  endfacet
  facet normal 0 -1 -0
    outer loop
      vertex 0.204069 3.24359 5.8
      vertex -0.204069 3.24359 -0.299999
      vertex 0.204069 3.24359 -0.299999
    endloop
  endfacet
  facet normal -0.481744 -0.876312 0
    outer loop
      vertex 1.38378 2.94069 -0.299999
      vertex 1.74144 2.74407 5.8
      vertex 1.38378 2.94069 5.8
    endloop
  endfacet
  facet normal -0.481744 -0.876312 -0
    outer loop
      vertex 1.74144 2.74407 5.8
      vertex 1.38378 2.94069 -0.299999
      vertex 1.74144 2.74407 -0.299999
    endloop
  endfacet
  facet normal 0.998026 -0.0627975 0
    outer loop
      vertex -3.25 0 5.5
      vertex -3.22437 0.407332 0
      vertex -3.22437 0.407332 5.5
    endloop
  endfacet
  facet normal 0.998026 -0.0627975 0
    outer loop
      vertex -3.22437 0.407332 0
      vertex -3.25 0 5.5
      vertex -3.25 0 0
    endloop
  endfacet
  facet normal 0.951057 -0.309017 0
    outer loop
      vertex -3.14789 0.808242 5.5
      vertex -3.02177 1.1964 0
      vertex -3.02177 1.1964 5.5
    endloop
  endfacet
  facet normal 0.951057 -0.309017 0
    outer loop
      vertex -3.02177 1.1964 0
      vertex -3.14789 0.808242 5.5
      vertex -3.14789 0.808242 0
    endloop
  endfacet
  facet normal 0.844317 -0.535845 0
    outer loop
      vertex -2.848 1.5657 5.5
      vertex -2.6293 1.9103 0
      vertex -2.6293 1.9103 5.5
    endloop
  endfacet
  facet normal 0.844317 -0.535845 0
    outer loop
      vertex -2.6293 1.9103 0
      vertex -2.848 1.5657 5.5
      vertex -2.848 1.5657 0
    endloop
  endfacet
  facet normal 0.248693 -0.968582 0
    outer loop
      vertex -1.0043 3.09093 -0.299999
      vertex -0.608989 3.19243 5.8
      vertex -1.0043 3.09093 5.8
    endloop
  endfacet
  facet normal 0.248693 -0.968582 0
    outer loop
      vertex -0.608989 3.19243 5.8
      vertex -1.0043 3.09093 -0.299999
      vertex -0.608989 3.19243 -0.299999
    endloop
  endfacet
  facet normal 0.587772 -0.809026 0
    outer loop
      vertex -2.07163 2.50417 5.5
      vertex -2.07163 2.50417 0
      vertex -1.75 2.73784 5.5
    endloop
  endfacet
  facet normal 0.588452 -0.808532 0
    outer loop
      vertex -1.75 2.73784 5.5
      vertex -1.74144 2.74407 5.8
      vertex -1.75 2.73784 5.8
    endloop
  endfacet
  facet normal 0.587772 -0.809026 0
    outer loop
      vertex -1.75 2.73784 0
      vertex -1.75 2.73784 5.5
      vertex -2.07163 2.50417 0
    endloop
  endfacet
  facet normal 0.588452 -0.808532 0
    outer loop
      vertex -1.75 2.73784 0
      vertex -1.74144 2.74407 5.8
      vertex -1.75 2.73784 5.5
    endloop
  endfacet
  facet normal 0.588452 -0.808532 0
    outer loop
      vertex -1.74144 2.74407 -0.299999
      vertex -1.75 2.73784 0
      vertex -1.75 2.73784 -0.299999
    endloop
  endfacet
  facet normal 0.588452 -0.808532 0
    outer loop
      vertex -1.75 2.73784 0
      vertex -1.74144 2.74407 -0.299999
      vertex -1.74144 2.74407 5.8
    endloop
  endfacet
  facet normal 0.684547 -0.728968 0
    outer loop
      vertex -2.36915 2.22478 0
      vertex -2.07163 2.50417 5.5
      vertex -2.36915 2.22478 5.5
    endloop
  endfacet
  facet normal 0.684547 -0.728968 0
    outer loop
      vertex -2.07163 2.50417 5.5
      vertex -2.36915 2.22478 0
      vertex -2.07163 2.50417 0
    endloop
  endfacet
  facet normal -0.844317 0.535845 0
    outer loop
      vertex 2.6293 -1.9103 0
      vertex 2.848 -1.5657 5.5
      vertex 2.848 -1.5657 0
    endloop
  endfacet
  facet normal -0.844317 0.535845 0
    outer loop
      vertex 2.848 -1.5657 5.5
      vertex 2.6293 -1.9103 0
      vertex 2.6293 -1.9103 5.5
    endloop
  endfacet
  facet normal 0 1 -0
    outer loop
      vertex 0.204069 -3.24359 -0.299999
      vertex -0.204069 -3.24359 5.8
      vertex 0.204069 -3.24359 5.8
    endloop
  endfacet
  facet normal 0 1 0
    outer loop
      vertex -0.204069 -3.24359 5.8
      vertex 0.204069 -3.24359 -0.299999
      vertex -0.204069 -3.24359 -0.299999
    endloop
  endfacet
  facet normal 0.951057 0.309017 0
    outer loop
      vertex -3.02177 -1.1964 5.5
      vertex -3.14789 -0.808242 0
      vertex -3.14789 -0.808242 5.5
    endloop
  endfacet
  facet normal 0.951057 0.309017 0
    outer loop
      vertex -3.14789 -0.808242 0
      vertex -3.02177 -1.1964 5.5
      vertex -3.02177 -1.1964 0
    endloop
  endfacet
  facet normal 0.904836 0.42576 0
    outer loop
      vertex -2.848 -1.5657 5.5
      vertex -3.02177 -1.1964 0
      vertex -3.02177 -1.1964 5.5
    endloop
  endfacet
  facet normal 0.904836 0.42576 0
    outer loop
      vertex -3.02177 -1.1964 0
      vertex -2.848 -1.5657 5.5
      vertex -2.848 -1.5657 0
    endloop
  endfacet
  facet normal -0.125349 0.992113 0
    outer loop
      vertex 0.608989 -3.19243 -0.299999
      vertex 0.204069 -3.24359 5.8
      vertex 0.608989 -3.19243 5.8
    endloop
  endfacet
  facet normal -0.125349 0.992113 0
    outer loop
      vertex 0.204069 -3.24359 5.8
      vertex 0.608989 -3.19243 -0.299999
      vertex 0.204069 -3.24359 -0.299999
    endloop
  endfacet
  facet normal -0.770526 0.637409 0
    outer loop
      vertex 2.36915 -2.22478 0
      vertex 2.6293 -1.9103 5.5
      vertex 2.6293 -1.9103 0
    endloop
  endfacet
  facet normal -0.770526 0.637409 0
    outer loop
      vertex 2.6293 -1.9103 5.5
      vertex 2.36915 -2.22478 0
      vertex 2.36915 -2.22478 5.5
    endloop
  endfacet
  facet normal -0.982286 -0.187387 0
    outer loop
      vertex 3.22437 0.407332 0
      vertex 3.14789 0.808242 5.5
      vertex 3.14789 0.808242 0
    endloop
  endfacet
  facet normal -0.982286 -0.187387 0
    outer loop
      vertex 3.14789 0.808242 5.5
      vertex 3.22437 0.407332 0
      vertex 3.22437 0.407332 5.5
    endloop
  endfacet
  facet normal -0.770526 -0.637409 0
    outer loop
      vertex 2.6293 1.9103 0
      vertex 2.36915 2.22478 5.5
      vertex 2.36915 2.22478 0
    endloop
  endfacet
  facet normal -0.770526 -0.637409 0
    outer loop
      vertex 2.36915 2.22478 5.5
      vertex 2.6293 1.9103 0
      vertex 2.6293 1.9103 5.5
    endloop
  endfacet
  facet normal -0.125349 -0.992113 0
    outer loop
      vertex 0.204069 3.24359 -0.299999
      vertex 0.608989 3.19243 5.8
      vertex 0.204069 3.24359 5.8
    endloop
  endfacet
  facet normal -0.125349 -0.992113 -0
    outer loop
      vertex 0.608989 3.19243 5.8
      vertex 0.204069 3.24359 -0.299999
      vertex 0.608989 3.19243 -0.299999
    endloop
  endfacet
  facet normal -0.998026 0.0627975 0
    outer loop
      vertex 3.22437 -0.407332 0
      vertex 3.25 0 5.5
      vertex 3.25 0 0
    endloop
  endfacet
  facet normal -0.998026 0.0627975 0
    outer loop
      vertex 3.25 0 5.5
      vertex 3.22437 -0.407332 0
      vertex 3.22437 -0.407332 5.5
    endloop
  endfacet
  facet normal 0.36811 0.929782 -0
    outer loop
      vertex -1.0043 -3.09093 -0.299999
      vertex -1.38378 -2.94069 5.8
      vertex -1.0043 -3.09093 5.8
    endloop
  endfacet
  facet normal 0.36811 0.929782 0
    outer loop
      vertex -1.38378 -2.94069 5.8
      vertex -1.0043 -3.09093 -0.299999
      vertex -1.38378 -2.94069 -0.299999
    endloop
  endfacet
  facet normal -0.248693 0.968582 0
    outer loop
      vertex 1.0043 -3.09093 -0.299999
      vertex 0.608989 -3.19243 5.8
      vertex 1.0043 -3.09093 5.8
    endloop
  endfacet
  facet normal -0.248693 0.968582 0
    outer loop
      vertex 0.608989 -3.19243 5.8
      vertex 1.0043 -3.09093 -0.299999
      vertex 0.608989 -3.19243 -0.299999
    endloop
  endfacet
  facet normal -0.481744 0.876312 0
    outer loop
      vertex 1.74144 -2.74407 -0.299999
      vertex 1.38378 -2.94069 5.8
      vertex 1.74144 -2.74407 5.8
    endloop
  endfacet
  facet normal -0.481744 0.876312 0
    outer loop
      vertex 1.38378 -2.94069 5.8
      vertex 1.74144 -2.74407 -0.299999
      vertex 1.38378 -2.94069 -0.299999
    endloop
  endfacet
  facet normal -0.684547 0.728968 0
    outer loop
      vertex 2.36915 -2.22478 0
      vertex 2.07163 -2.50417 5.5
      vertex 2.36915 -2.22478 5.5
    endloop
  endfacet
  facet normal -0.684547 0.728968 0
    outer loop
      vertex 2.07163 -2.50417 5.5
      vertex 2.36915 -2.22478 0
      vertex 2.07163 -2.50417 0
    endloop
  endfacet
  facet normal -0.904836 0.42576 0
    outer loop
      vertex 2.848 -1.5657 0
      vertex 3.02177 -1.1964 5.5
      vertex 3.02177 -1.1964 0
    endloop
  endfacet
  facet normal -0.904836 0.42576 0
    outer loop
      vertex 3.02177 -1.1964 5.5
      vertex 2.848 -1.5657 0
      vertex 2.848 -1.5657 5.5
    endloop
  endfacet
  facet normal 0.588452 0.808532 0
    outer loop
      vertex -1.74144 -2.74407 5.8
      vertex -1.75 -2.73784 5.5
      vertex -1.75 -2.73784 5.8
    endloop
  endfacet
  facet normal 0.587772 0.809026 0
    outer loop
      vertex -1.75 -2.73784 5.5
      vertex -1.75 -2.73784 0
      vertex -2.07163 -2.50417 5.5
    endloop
  endfacet
  facet normal 0.588452 0.808532 0
    outer loop
      vertex -1.74144 -2.74407 5.8
      vertex -1.75 -2.73784 0
      vertex -1.75 -2.73784 5.5
    endloop
  endfacet
  facet normal 0.588452 0.808532 -0
    outer loop
      vertex -1.74144 -2.74407 -0.299999
      vertex -1.75 -2.73784 0
      vertex -1.74144 -2.74407 5.8
    endloop
  endfacet
  facet normal 0.588452 0.808532 0
    outer loop
      vertex -1.75 -2.73784 0
      vertex -1.74144 -2.74407 -0.299999
      vertex -1.75 -2.73784 -0.299999
    endloop
  endfacet
  facet normal 0.587772 0.809026 0
    outer loop
      vertex -2.07163 -2.50417 5.5
      vertex -1.75 -2.73784 0
      vertex -2.07163 -2.50417 0
    endloop
  endfacet
  facet normal 0.248693 0.968582 -0
    outer loop
      vertex -0.608989 -3.19243 -0.299999
      vertex -1.0043 -3.09093 5.8
      vertex -0.608989 -3.19243 5.8
    endloop
  endfacet
  facet normal 0.248693 0.968582 0
    outer loop
      vertex -1.0043 -3.09093 5.8
      vertex -0.608989 -3.19243 -0.299999
      vertex -1.0043 -3.09093 -0.299999
    endloop
  endfacet
  facet normal 0.125349 0.992113 -0
    outer loop
      vertex -0.204069 -3.24359 -0.299999
      vertex -0.608989 -3.19243 5.8
      vertex -0.204069 -3.24359 5.8
    endloop
  endfacet
  facet normal 0.125349 0.992113 0
    outer loop
      vertex -0.608989 -3.19243 5.8
      vertex -0.204069 -3.24359 -0.299999
      vertex -0.608989 -3.19243 -0.299999
    endloop
  endfacet
  facet normal 0.770526 0.637409 0
    outer loop
      vertex -2.36915 -2.22478 5.5
      vertex -2.6293 -1.9103 0
      vertex -2.6293 -1.9103 5.5
    endloop
  endfacet
  facet normal 0.770526 0.637409 0
    outer loop
      vertex -2.6293 -1.9103 0
      vertex -2.36915 -2.22478 5.5
      vertex -2.36915 -2.22478 0
    endloop
  endfacet
  facet normal 0.684547 0.728968 -0
    outer loop
      vertex -2.07163 -2.50417 0
      vertex -2.36915 -2.22478 5.5
      vertex -2.07163 -2.50417 5.5
    endloop
  endfacet
  facet normal 0.684547 0.728968 0
    outer loop
      vertex -2.36915 -2.22478 5.5
      vertex -2.07163 -2.50417 0
      vertex -2.36915 -2.22478 0
    endloop
  endfacet
  facet normal 0.982286 0.187387 0
    outer loop
      vertex -3.14789 -0.808242 5.5
      vertex -3.22437 -0.407332 0
      vertex -3.22437 -0.407332 5.5
    endloop
  endfacet
  facet normal 0.982286 0.187387 0
    outer loop
      vertex -3.22437 -0.407332 0
      vertex -3.14789 -0.808242 5.5
      vertex -3.14789 -0.808242 0
    endloop
  endfacet
  facet normal 0.998026 0.0627975 0
    outer loop
      vertex -3.22437 -0.407332 5.5
      vertex -3.25 0 0
      vertex -3.25 0 5.5
    endloop
  endfacet
  facet normal 0.998026 0.0627975 0
    outer loop
      vertex -3.25 0 0
      vertex -3.22437 -0.407332 5.5
      vertex -3.22437 -0.407332 0
    endloop
  endfacet
  facet normal 0.481744 0.876312 -0
    outer loop
      vertex -1.38378 -2.94069 -0.299999
      vertex -1.74144 -2.74407 5.8
      vertex -1.38378 -2.94069 5.8
    endloop
  endfacet
  facet normal 0.481744 0.876312 0
    outer loop
      vertex -1.74144 -2.74407 5.8
      vertex -1.38378 -2.94069 -0.299999
      vertex -1.74144 -2.74407 -0.299999
    endloop
  endfacet
  facet normal 0.844317 0.535845 0
    outer loop
      vertex -2.6293 -1.9103 5.5
      vertex -2.848 -1.5657 0
      vertex -2.848 -1.5657 5.5
    endloop
  endfacet
  facet normal 0.844317 0.535845 0
    outer loop
      vertex -2.848 -1.5657 0
      vertex -2.6293 -1.9103 5.5
      vertex -2.6293 -1.9103 0
    endloop
  endfacet
  facet normal -0.36811 0.929782 0
    outer loop
      vertex 1.38378 -2.94069 -0.299999
      vertex 1.0043 -3.09093 5.8
      vertex 1.38378 -2.94069 5.8
    endloop
  endfacet
  facet normal -0.36811 0.929782 0
    outer loop
      vertex 1.0043 -3.09093 5.8
      vertex 1.38378 -2.94069 -0.299999
      vertex 1.0043 -3.09093 -0.299999
    endloop
  endfacet
endsolid OpenSCAD_Model
