<?xml version="1.0" standalone="no"?>
<!DOCTYPE svg PUBLIC "-//W3C//DTD SVG 1.1//EN" "http://www.w3.org/Graphics/SVG/1.1/DTD/svg11.dtd">
<svg width="134mm" height="278mm" viewBox="-67 -499 134 278" xmlns="http://www.w3.org/2000/svg" version="1.1">
<title>OpenSCAD Model</title>
<path d="
M 50.25,-498.99 L 21.4645,-498.99 L 24.4547,-496 L 50.25,-496 z
M 62.9369,-365.089 L 63.5451,-365.245 L 64.1289,-365.476 L 64.6791,-365.778 L 65.1871,-366.147 L 65.6448,-366.577
 L 66.0451,-367.061 L 66.3815,-367.591 L 66.6489,-368.159 L 66.8429,-368.757 L 66.9606,-369.373 L 67,-370
 L 67,-493 L 24.6757,-493 L 24.6873,-493.018 L 24.7408,-493.132 L 24.7796,-493.251 L 24.8031,-493.375
 L 24.811,-493.5 L 24.8031,-493.625 L 24.7796,-493.749 L 24.7408,-493.868 L 24.6873,-493.982 L 24.62,-494.088
 L 24.54,-494.185 L 24.4484,-494.271 L 24.3468,-494.344 L 24.2368,-494.405 L 24.12,-494.451 L 23.9984,-494.482
 L 23.8738,-494.498 L 18.7482,-494.498 L 18.6236,-494.482 L 18.502,-494.451 L 18.3852,-494.405 L 18.2752,-494.344
 L 18.1736,-494.271 L 18.082,-494.185 L 18.002,-494.088 L 17.9347,-493.982 L 17.8812,-493.868 L 17.8424,-493.749
 L 17.8189,-493.625 L 17.811,-493.5 L 17.8189,-493.375 L 17.8424,-493.251 L 17.8812,-493.132 L 17.9347,-493.018
 L 18.002,-492.912 L 18.082,-492.815 L 18.1736,-492.729 L 18.2752,-492.656 L 18.3852,-492.595 L 18.502,-492.549
 L 18.6236,-492.518 L 18.7482,-492.502 L 20.7006,-492.502 L 27.2499,-489.909 L 34.2929,-486.037 L 40.7951,-481.313
 L 46.654,-475.811 L 51.7771,-469.618 L 56.0836,-462.832 L 59.5057,-455.56 L 61.9893,-447.916 L 63.4953,-440.021
 L 64,-432 L 63.4953,-423.979 L 61.9893,-416.084 L 59.5057,-408.44 L 56.0836,-401.168 L 51.7771,-394.382
 L 46.654,-388.189 L 40.7951,-382.687 L 34.2929,-377.963 L 27.2499,-374.091 L 19.7771,-371.132 L 11.9924,-369.134
 L 4.01859,-368.126 L -4.01859,-368.126 L -11.9924,-369.134 L -19.7771,-371.132 L -27.2499,-374.091 L -34.2929,-377.963
 L -40.7951,-382.687 L -46.654,-388.189 L -51.7771,-394.382 L -56.0836,-401.168 L -59.5057,-408.44 L -61.9893,-416.084
 L -63.4953,-423.979 L -64,-432 L -63.4953,-440.021 L -61.9893,-447.916 L -59.5057,-455.56 L -56.0836,-462.832
 L -51.7771,-469.618 L -46.654,-475.811 L -40.7951,-481.313 L -34.2929,-486.037 L -27.2499,-489.909 L -19.7771,-492.868
 L -11.9924,-494.866 L -4.01859,-495.874 L 0,-495.874 L 0,-496 L 22.3333,-496 L 19.3432,-498.99
 L -62.3139,-498.99 L -62.9369,-498.911 L -63.5451,-498.755 L -64.1289,-498.524 L -64.6791,-498.222 L -65.1871,-497.853
 L -65.6448,-497.423 L -66.0451,-496.939 L -66.3815,-496.409 L -66.6489,-495.841 L -66.8429,-495.243 L -66.9606,-494.627
 L -67,-494 L -67,-374.994 L -59.8116,-374.994 L -59.4379,-374.947 L -59.0729,-374.853 L -58.7227,-374.714
 L -58.3925,-374.533 L -58.0877,-374.312 L -57.8131,-374.054 L -57.5729,-373.763 L -57.3711,-373.445 L -57.2107,-373.104
 L -57.0942,-372.746 L -57.0237,-372.376 L -57,-372 L -57.0237,-371.624 L -57.0942,-371.254 L -57.2107,-370.896
 L -57.3711,-370.555 L -57.5729,-370.237 L -57.8131,-369.946 L -58.0877,-369.688 L -58.3925,-369.467 L -58.7227,-369.286
 L -59.0729,-369.147 L -59.4379,-369.053 L -59.8116,-369.006 L -66.8905,-369.006 L -66.8429,-368.757 L -66.6489,-368.159
 L -66.3815,-367.591 L -66.0451,-367.061 L -65.6448,-366.577 L -65.1871,-366.147 L -64.6791,-365.778 L -64.1289,-365.476
 L -63.5451,-365.245 L -62.9369,-365.089 L -62.3139,-365.01 L 62.3139,-365.01 z
M -61,-489 L -61,-495 L -58,-495 L -58,-489 z
M 59.8116,-369.006 L 59.4379,-369.053 L 59.0729,-369.147 L 58.7227,-369.286 L 58.3925,-369.467 L 58.0877,-369.688
 L 57.8131,-369.946 L 57.5729,-370.237 L 57.3711,-370.555 L 57.2107,-370.896 L 57.0942,-371.254 L 57.0237,-371.624
 L 57,-372 L 57.0237,-372.376 L 57.0942,-372.746 L 57.2107,-373.104 L 57.3711,-373.445 L 57.5729,-373.763
 L 57.8131,-374.054 L 58.0877,-374.312 L 58.3925,-374.533 L 58.7227,-374.714 L 59.0729,-374.853 L 59.4379,-374.947
 L 59.8116,-374.994 L 60.1884,-374.994 L 60.5621,-374.947 L 60.927,-374.853 L 61.2773,-374.714 L 61.6075,-374.533
 L 61.9123,-374.312 L 62.1869,-374.054 L 62.427,-373.763 L 62.6289,-373.445 L 62.7893,-373.104 L 62.9057,-372.746
 L 62.9763,-372.376 L 63,-372 L 62.9763,-371.624 L 62.9057,-371.254 L 62.7893,-370.896 L 62.6289,-370.555
 L 62.427,-370.237 L 62.1869,-369.946 L 61.9123,-369.688 L 61.6075,-369.467 L 61.2773,-369.286 L 60.927,-369.147
 L 60.5621,-369.053 L 60.1884,-369.006 z
M 62.9369,-221.089 L 63.5451,-221.245 L 64.1289,-221.476 L 64.6791,-221.778 L 65.1871,-222.147 L 65.6448,-222.577
 L 66.0451,-223.061 L 66.3815,-223.591 L 66.6489,-224.159 L 66.8429,-224.757 L 66.9606,-225.373 L 67,-226
 L 67,-350 L 66.9606,-350.627 L 66.8429,-351.243 L 66.6489,-351.841 L 66.3815,-352.409 L 66.0451,-352.939
 L 65.6448,-353.423 L 65.1871,-353.853 L 64.6791,-354.222 L 64.1289,-354.524 L 63.5451,-354.755 L 62.9369,-354.911
 L 62.3139,-354.99 L -62.3139,-354.99 L -62.9369,-354.911 L -63.5451,-354.755 L -64.1289,-354.524 L -64.6791,-354.222
 L -65.1871,-353.853 L -65.6448,-353.423 L -66.0451,-352.939 L -66.3815,-352.409 L -66.6489,-351.841 L -66.8429,-351.243
 L -66.9606,-350.627 L -67,-350 L -67,-230.994 L -59.8116,-230.994 L -59.4379,-230.947 L -59.0729,-230.853
 L -58.7227,-230.714 L -58.3925,-230.533 L -58.0877,-230.312 L -57.8131,-230.054 L -57.5729,-229.763 L -57.3711,-229.445
 L -57.2107,-229.104 L -57.0942,-228.746 L -57.0237,-228.376 L -57,-228 L -57.0237,-227.624 L -57.0942,-227.254
 L -57.2107,-226.896 L -57.3711,-226.555 L -57.5729,-226.237 L -57.8131,-225.946 L -58.0877,-225.688 L -58.3925,-225.467
 L -58.7227,-225.286 L -59.0729,-225.147 L -59.4379,-225.053 L -59.8116,-225.006 L -66.8905,-225.006 L -66.8429,-224.757
 L -66.6489,-224.159 L -66.3815,-223.591 L -66.0451,-223.061 L -65.6448,-222.577 L -65.1871,-222.147 L -64.6791,-221.778
 L -64.1289,-221.476 L -63.5451,-221.245 L -62.9369,-221.089 L -62.3139,-221.01 L 62.3139,-221.01 z
M -0.627899,-278.02 L -1.87381,-278.177 L -3.09016,-278.489 L -4.25778,-278.952 L -5.35826,-279.557 L -6.37424,-280.295
 L -7.28967,-281.155 L -8.09016,-282.122 L -8.76306,-283.182 L -9.29776,-284.319 L -9.68582,-285.513 L -9.92114,-286.747
 L -10,-288 L -9.92114,-289.253 L -9.68582,-290.487 L -9.29776,-291.681 L -8.76306,-292.818 L -8.09016,-293.878
 L -7.28967,-294.845 L -6.37424,-295.705 L -5.35826,-296.443 L -4.25778,-297.048 L -3.09016,-297.511 L -1.87381,-297.823
 L -0.627899,-297.98 L 0.627899,-297.98 L 1.87381,-297.823 L 3.09016,-297.511 L 4.25778,-297.048 L 5.35826,-296.443
 L 6.37424,-295.705 L 7.28967,-294.845 L 8.09016,-293.878 L 8.76306,-292.818 L 9.29776,-291.681 L 9.68582,-290.487
 L 9.92114,-289.253 L 10,-288 L 9.92114,-286.747 L 9.68582,-285.513 L 9.29776,-284.319 L 8.76306,-283.182
 L 8.09016,-282.122 L 7.28967,-281.155 L 6.37424,-280.295 L 5.35826,-279.557 L 4.25778,-278.952 L 3.09016,-278.489
 L 1.87381,-278.177 L 0.627899,-278.02 z
M 59.8116,-225.006 L 59.4379,-225.053 L 59.0729,-225.147 L 58.7227,-225.286 L 58.3925,-225.467 L 58.0877,-225.688
 L 57.8131,-225.946 L 57.5729,-226.237 L 57.3711,-226.555 L 57.2107,-226.896 L 57.0942,-227.254 L 57.0237,-227.624
 L 57,-228 L 57.0237,-228.376 L 57.0942,-228.746 L 57.2107,-229.104 L 57.3711,-229.445 L 57.5729,-229.763
 L 57.8131,-230.054 L 58.0877,-230.312 L 58.3925,-230.533 L 58.7227,-230.714 L 59.0729,-230.853 L 59.4379,-230.947
 L 59.8116,-230.994 L 60.1884,-230.994 L 60.5621,-230.947 L 60.927,-230.853 L 61.2773,-230.714 L 61.6075,-230.533
 L 61.9123,-230.312 L 62.1869,-230.054 L 62.427,-229.763 L 62.6289,-229.445 L 62.7893,-229.104 L 62.9057,-228.746
 L 62.9763,-228.376 L 63,-228 L 62.9763,-227.624 L 62.9057,-227.254 L 62.7893,-226.896 L 62.6289,-226.555
 L 62.427,-226.237 L 62.1869,-225.946 L 61.9123,-225.688 L 61.6075,-225.467 L 61.2773,-225.286 L 60.927,-225.147
 L 60.5621,-225.053 L 60.1884,-225.006 z
" stroke="black" fill="lightgray" stroke-width="0.5"/>
</svg>
