<?xml version="1.0" standalone="no"?>
<!DOCTYPE svg PUBLIC "-//W3C//DTD SVG 1.1//EN" "http://www.w3.org/Graphics/SVG/1.1/DTD/svg11.dtd">
<svg width="60mm" height="206mm" viewBox="-30 -346 60 206" xmlns="http://www.w3.org/2000/svg" version="1.1">
<title>OpenSCAD Model</title>
<path d="
M 25.4369,-302.089 L 26.0451,-302.245 L 26.6289,-302.476 L 27.1791,-302.778 L 27.6871,-303.147 L 28.1448,-303.577
 L 28.5451,-304.061 L 28.8815,-304.591 L 29.1489,-305.159 L 29.3429,-305.757 L 29.4606,-306.373 L 29.5,-307
 L 29.5,-341 L 29.4606,-341.627 L 29.3429,-342.243 L 29.1489,-342.841 L 28.8815,-343.409 L 28.5451,-343.939
 L 28.1448,-344.423 L 27.6871,-344.853 L 27.1791,-345.222 L 26.6289,-345.524 L 26.0451,-345.755 L 25.4369,-345.911
 L 24.8139,-345.99 L -24.8139,-345.99 L -25.4369,-345.911 L -26.0451,-345.755 L -26.6289,-345.524 L -27.1791,-345.222
 L -27.6871,-344.853 L -28.1448,-344.423 L -28.5451,-343.939 L -28.8815,-343.409 L -29.1489,-342.841 L -29.3429,-342.243
 L -29.4606,-341.627 L -29.5,-341 L -29.5,-307 L -29.4606,-306.373 L -29.3429,-305.757 L -29.1489,-305.159
 L -28.8815,-304.591 L -28.5451,-304.061 L -28.1448,-303.577 L -27.6871,-303.147 L -27.1791,-302.778 L -26.6289,-302.476
 L -26.0451,-302.245 L -25.4369,-302.089 L -24.8139,-302.01 L 24.8139,-302.01 z
M -24.7512,-303.008 L -25.2495,-303.071 L -25.7361,-303.196 L -26.2031,-303.381 L -26.6433,-303.623 L -27.0497,-303.918
 L -27.4159,-304.262 L -27.7361,-304.649 L -28.0052,-305.073 L -28.2191,-305.528 L -28.3743,-306.005 L -28.4684,-306.499
 L -28.5,-307 L -28.5,-341 L -28.4684,-341.501 L -28.3743,-341.995 L -28.2191,-342.472 L -28.0052,-342.927
 L -27.7361,-343.351 L -27.4159,-343.738 L -27.0497,-344.082 L -26.6433,-344.377 L -26.2031,-344.619 L -25.7361,-344.804
 L -25.2495,-344.929 L -24.7512,-344.992 L 24.7512,-344.992 L 25.2495,-344.929 L 25.7361,-344.804 L 26.2031,-344.619
 L 26.6433,-344.377 L 27.0497,-344.082 L 27.4159,-343.738 L 27.7361,-343.351 L 28.0052,-342.927 L 28.2191,-342.472
 L 28.3743,-341.995 L 28.4684,-341.501 L 28.5,-341 L 28.5,-307 L 28.4684,-306.499 L 28.3743,-306.005
 L 28.2191,-305.528 L 28.0052,-305.073 L 27.7361,-304.649 L 27.4159,-304.262 L 27.0497,-303.918 L 26.6433,-303.623
 L 26.2031,-303.381 L 25.7361,-303.196 L 25.2495,-303.071 L 24.7512,-303.008 z
M 25.4369,-248.089 L 26.0451,-248.245 L 26.6289,-248.476 L 27.1791,-248.778 L 27.6871,-249.147 L 28.1448,-249.577
 L 28.5451,-250.061 L 28.8815,-250.591 L 29.1489,-251.159 L 29.3429,-251.757 L 29.4606,-252.373 L 29.5,-253
 L 29.5,-287 L 29.4606,-287.627 L 29.3429,-288.243 L 29.1489,-288.841 L 28.8815,-289.409 L 28.5451,-289.939
 L 28.1448,-290.423 L 27.6871,-290.853 L 27.1791,-291.222 L 26.6289,-291.524 L 26.0451,-291.755 L 25.4369,-291.911
 L 24.8139,-291.99 L -24.8139,-291.99 L -25.4369,-291.911 L -26.0451,-291.755 L -26.6289,-291.524 L -27.1791,-291.222
 L -27.6871,-290.853 L -28.1448,-290.423 L -28.5451,-289.939 L -28.8815,-289.409 L -29.1489,-288.841 L -29.3429,-288.243
 L -29.4606,-287.627 L -29.5,-287 L -29.5,-253 L -29.4606,-252.373 L -29.3429,-251.757 L -29.1489,-251.159
 L -28.8815,-250.591 L -28.5451,-250.061 L -28.1448,-249.577 L -27.6871,-249.147 L -27.1791,-248.778 L -26.6289,-248.476
 L -26.0451,-248.245 L -25.4369,-248.089 L -24.8139,-248.01 L 24.8139,-248.01 z
M -24.7432,-249.135 L -25.2256,-249.196 L -25.6967,-249.317 L -26.1489,-249.496 L -26.5751,-249.73 L -26.9685,-250.016
 L -27.323,-250.349 L -27.633,-250.724 L -27.8936,-251.134 L -28.1007,-251.574 L -28.251,-252.037 L -28.3421,-252.515
 L -28.3726,-253 L -28.3726,-287 L -28.3421,-287.485 L -28.251,-287.963 L -28.1007,-288.426 L -27.8936,-288.866
 L -27.633,-289.276 L -27.323,-289.651 L -26.9685,-289.984 L -26.5751,-290.27 L -26.1489,-290.504 L -25.6967,-290.683
 L -25.2256,-290.804 L -24.7432,-290.865 L 24.7432,-290.865 L 25.2256,-290.804 L 25.6967,-290.683 L 26.1489,-290.504
 L 26.5751,-290.27 L 26.9685,-289.984 L 27.323,-289.651 L 27.633,-289.276 L 27.8936,-288.866 L 28.1007,-288.426
 L 28.251,-287.963 L 28.3421,-287.485 L 28.3726,-287 L 28.3726,-253 L 28.3421,-252.515 L 28.251,-252.037
 L 28.1007,-251.574 L 27.8936,-251.134 L 27.633,-250.724 L 27.323,-250.349 L 26.9685,-250.016 L 26.5751,-249.73
 L 26.1489,-249.496 L 25.6967,-249.317 L 25.2256,-249.196 L 24.7432,-249.135 z
M 25.4369,-194.089 L 26.0451,-194.245 L 26.6289,-194.476 L 27.1791,-194.778 L 27.6871,-195.147 L 28.1448,-195.577
 L 28.5451,-196.061 L 28.8815,-196.591 L 29.1489,-197.159 L 29.3429,-197.757 L 29.4606,-198.373 L 29.5,-199
 L 29.5,-233 L 29.4606,-233.627 L 29.3429,-234.243 L 29.1489,-234.841 L 28.8815,-235.409 L 28.5451,-235.939
 L 28.1448,-236.423 L 27.6871,-236.853 L 27.1791,-237.222 L 26.6289,-237.524 L 26.0451,-237.755 L 25.4369,-237.911
 L 24.8139,-237.99 L -24.8139,-237.99 L -25.4369,-237.911 L -26.0451,-237.755 L -26.6289,-237.524 L -27.1791,-237.222
 L -27.6871,-236.853 L -28.1448,-236.423 L -28.5451,-235.939 L -28.8815,-235.409 L -29.1489,-234.841 L -29.3429,-234.243
 L -29.4606,-233.627 L -29.5,-233 L -29.5,-199 L -29.4606,-198.373 L -29.3429,-197.757 L -29.1489,-197.159
 L -28.8815,-196.591 L -28.5451,-196.061 L -28.1448,-195.577 L -27.6871,-195.147 L -27.1791,-194.778 L -26.6289,-194.476
 L -26.0451,-194.245 L -25.4369,-194.089 L -24.8139,-194.01 L 24.8139,-194.01 z
M 25.4369,-140.089 L 26.0451,-140.245 L 26.6289,-140.476 L 27.1791,-140.778 L 27.6871,-141.147 L 28.1448,-141.577
 L 28.5451,-142.061 L 28.8815,-142.591 L 29.1489,-143.159 L 29.3429,-143.757 L 29.4606,-144.373 L 29.5,-145
 L 29.5,-179 L 29.4606,-179.627 L 29.3429,-180.243 L 29.1489,-180.841 L 28.8815,-181.409 L 28.5451,-181.939
 L 28.1448,-182.423 L 27.6871,-182.853 L 27.1791,-183.222 L 26.6289,-183.524 L 26.0451,-183.755 L 25.4369,-183.911
 L 24.8139,-183.99 L -24.8139,-183.99 L -25.4369,-183.911 L -26.0451,-183.755 L -26.6289,-183.524 L -27.1791,-183.222
 L -27.6871,-182.853 L -28.1448,-182.423 L -28.5451,-181.939 L -28.8815,-181.409 L -29.1489,-180.841 L -29.3429,-180.243
 L -29.4606,-179.627 L -29.5,-179 L -29.5,-145 L -29.4606,-144.373 L -29.3429,-143.757 L -29.1489,-143.159
 L -28.8815,-142.591 L -28.5451,-142.061 L -28.1448,-141.577 L -27.6871,-141.147 L -27.1791,-140.778 L -26.6289,-140.476
 L -26.0451,-140.245 L -25.4369,-140.089 L -24.8139,-140.01 L 24.8139,-140.01 z
M -22.6507,-174.605 L -22.9497,-174.643 L -23.2416,-174.717 L -23.5219,-174.828 L -23.786,-174.974 L -24.0298,-175.151
 L -24.2495,-175.357 L -24.4416,-175.589 L -24.6031,-175.844 L -24.7315,-176.117 L -24.8246,-176.403 L -24.8811,-176.699
 L -24.9,-177 L -24.8811,-177.301 L -24.8246,-177.597 L -24.7315,-177.883 L -24.6031,-178.156 L -24.4416,-178.411
 L -24.2495,-178.643 L -24.0298,-178.849 L -23.786,-179.026 L -23.5219,-179.172 L -23.2416,-179.283 L -22.9497,-179.357
 L -22.6507,-179.395 L -22.3493,-179.395 L -22.0503,-179.357 L -21.7583,-179.283 L -21.4781,-179.172 L -21.214,-179.026
 L -20.9702,-178.849 L -20.7505,-178.643 L -20.5583,-178.411 L -20.3969,-178.156 L -20.2685,-177.883 L -20.1754,-177.597
 L -20.1189,-177.301 L -20.1,-177 L -20.1189,-176.699 L -20.1754,-176.403 L -20.2685,-176.117 L -20.3969,-175.844
 L -20.5583,-175.589 L -20.7505,-175.357 L -20.9702,-175.151 L -21.214,-174.974 L -21.4781,-174.828 L -21.7583,-174.717
 L -22.0503,-174.643 L -22.3493,-174.605 z
M 22.3493,-174.605 L 22.0503,-174.643 L 21.7583,-174.717 L 21.4781,-174.828 L 21.214,-174.974 L 20.9702,-175.151
 L 20.7505,-175.357 L 20.5583,-175.589 L 20.3969,-175.844 L 20.2685,-176.117 L 20.1754,-176.403 L 20.1189,-176.699
 L 20.1,-177 L 20.1189,-177.301 L 20.1754,-177.597 L 20.2685,-177.883 L 20.3969,-178.156 L 20.5583,-178.411
 L 20.7505,-178.643 L 20.9702,-178.849 L 21.214,-179.026 L 21.4781,-179.172 L 21.7583,-179.283 L 22.0503,-179.357
 L 22.3493,-179.395 L 22.6507,-179.395 L 22.9497,-179.357 L 23.2416,-179.283 L 23.5219,-179.172 L 23.786,-179.026
 L 24.0298,-178.849 L 24.2495,-178.643 L 24.4416,-178.411 L 24.6031,-178.156 L 24.7315,-177.883 L 24.8246,-177.597
 L 24.8811,-177.301 L 24.9,-177 L 24.8811,-176.699 L 24.8246,-176.403 L 24.7315,-176.117 L 24.6031,-175.844
 L 24.4416,-175.589 L 24.2495,-175.357 L 24.0298,-175.151 L 23.786,-174.974 L 23.5219,-174.828 L 23.2416,-174.717
 L 22.9497,-174.643 L 22.6507,-174.605 z
M -22.6507,-144.605 L -22.9497,-144.643 L -23.2416,-144.717 L -23.5219,-144.828 L -23.786,-144.974 L -24.0298,-145.151
 L -24.2495,-145.357 L -24.4416,-145.589 L -24.6031,-145.844 L -24.7315,-146.117 L -24.8246,-146.403 L -24.8811,-146.699
 L -24.9,-147 L -24.8811,-147.301 L -24.8246,-147.597 L -24.7315,-147.883 L -24.6031,-148.156 L -24.4416,-148.411
 L -24.2495,-148.643 L -24.0298,-148.849 L -23.786,-149.026 L -23.5219,-149.172 L -23.2416,-149.283 L -22.9497,-149.357
 L -22.6507,-149.395 L -22.3493,-149.395 L -22.0503,-149.357 L -21.7583,-149.283 L -21.4781,-149.172 L -21.214,-149.026
 L -20.9702,-148.849 L -20.7505,-148.643 L -20.5583,-148.411 L -20.3969,-148.156 L -20.2685,-147.883 L -20.1754,-147.597
 L -20.1189,-147.301 L -20.1,-147 L -20.1189,-146.699 L -20.1754,-146.403 L -20.2685,-146.117 L -20.3969,-145.844
 L -20.5583,-145.589 L -20.7505,-145.357 L -20.9702,-145.151 L -21.214,-144.974 L -21.4781,-144.828 L -21.7583,-144.717
 L -22.0503,-144.643 L -22.3493,-144.605 z
M 22.3493,-144.605 L 22.0503,-144.643 L 21.7583,-144.717 L 21.4781,-144.828 L 21.214,-144.974 L 20.9702,-145.151
 L 20.7505,-145.357 L 20.5583,-145.589 L 20.3969,-145.844 L 20.2685,-146.117 L 20.1754,-146.403 L 20.1189,-146.699
 L 20.1,-147 L 20.1189,-147.301 L 20.1754,-147.597 L 20.2685,-147.883 L 20.3969,-148.156 L 20.5583,-148.411
 L 20.7505,-148.643 L 20.9702,-148.849 L 21.214,-149.026 L 21.4781,-149.172 L 21.7583,-149.283 L 22.0503,-149.357
 L 22.3493,-149.395 L 22.6507,-149.395 L 22.9497,-149.357 L 23.2416,-149.283 L 23.5219,-149.172 L 23.786,-149.026
 L 24.0298,-148.849 L 24.2495,-148.643 L 24.4416,-148.411 L 24.6031,-148.156 L 24.7315,-147.883 L 24.8246,-147.597
 L 24.8811,-147.301 L 24.9,-147 L 24.8811,-146.699 L 24.8246,-146.403 L 24.7315,-146.117 L 24.6031,-145.844
 L 24.4416,-145.589 L 24.2495,-145.357 L 24.0298,-145.151 L 23.786,-144.974 L 23.5219,-144.828 L 23.2416,-144.717
 L 22.9497,-144.643 L 22.6507,-144.605 z
" stroke="black" fill="lightgray" stroke-width="0.5"/>
</svg>
