  0
SECTION
  2
BLOCKS
  0
ENDSEC
  0
SECTION
  2
ENTITIES
  0
LINE
  8
0
 10
10.9369
 20
409.589
 11
11.5451
 21
409.745
  0
LINE
  8
0
 10
11.5451
 20
409.745
 11
12.1289
 21
409.976
  0
LINE
  8
0
 10
12.1289
 20
409.976
 11
12.6791
 21
410.278
  0
LINE
  8
0
 10
12.6791
 20
410.278
 11
13.1871
 21
410.647
  0
LINE
  8
0
 10
13.1871
 20
410.647
 11
13.6448
 21
411.077
  0
LINE
  8
0
 10
13.6448
 20
411.077
 11
14.0451
 21
411.561
  0
LINE
  8
0
 10
14.0451
 20
411.561
 11
14.3815
 21
412.091
  0
LINE
  8
0
 10
14.3815
 20
412.091
 11
14.6489
 21
412.659
  0
LINE
  8
0
 10
14.6489
 20
412.659
 11
14.8429
 21
413.257
  0
LINE
  8
0
 10
14.8429
 20
413.257
 11
14.9606
 21
413.873
  0
LINE
  8
0
 10
14.9606
 20
413.873
 11
15
 21
414.5
  0
LINE
  8
0
 10
15
 20
414.5
 11
15
 21
449.5
  0
LINE
  8
0
 10
15
 20
449.5
 11
14.9606
 21
450.127
  0
LINE
  8
0
 10
14.9606
 20
450.127
 11
14.8429
 21
450.743
  0
LINE
  8
0
 10
14.8429
 20
450.743
 11
14.6489
 21
451.341
  0
LINE
  8
0
 10
14.6489
 20
451.341
 11
14.3815
 21
451.909
  0
LINE
  8
0
 10
14.3815
 20
451.909
 11
14.0451
 21
452.439
  0
LINE
  8
0
 10
14.0451
 20
452.439
 11
13.6448
 21
452.923
  0
LINE
  8
0
 10
13.6448
 20
452.923
 11
13.1871
 21
453.353
  0
LINE
  8
0
 10
13.1871
 20
453.353
 11
12.6791
 21
453.722
  0
LINE
  8
0
 10
12.6791
 20
453.722
 11
12.1289
 21
454.024
  0
LINE
  8
0
 10
12.1289
 20
454.024
 11
11.5451
 21
454.255
  0
LINE
  8
0
 10
11.5451
 20
454.255
 11
10.9369
 21
454.411
  0
LINE
  8
0
 10
10.9369
 20
454.411
 11
10.3139
 21
454.49
  0
LINE
  8
0
 10
10.3139
 20
454.49
 11
-10.3139
 21
454.49
  0
LINE
  8
0
 10
-10.3139
 20
454.49
 11
-10.9369
 21
454.411
  0
LINE
  8
0
 10
-10.9369
 20
454.411
 11
-11.5451
 21
454.255
  0
LINE
  8
0
 10
-11.5451
 20
454.255
 11
-12.1289
 21
454.024
  0
LINE
  8
0
 10
-12.1289
 20
454.024
 11
-12.6791
 21
453.722
  0
LINE
  8
0
 10
-12.6791
 20
453.722
 11
-13.1871
 21
453.353
  0
LINE
  8
0
 10
-13.1871
 20
453.353
 11
-13.6448
 21
452.923
  0
LINE
  8
0
 10
-13.6448
 20
452.923
 11
-14.0451
 21
452.439
  0
LINE
  8
0
 10
-14.0451
 20
452.439
 11
-14.3815
 21
451.909
  0
LINE
  8
0
 10
-14.3815
 20
451.909
 11
-14.6489
 21
451.341
  0
LINE
  8
0
 10
-14.6489
 20
451.341
 11
-14.8429
 21
450.743
  0
LINE
  8
0
 10
-14.8429
 20
450.743
 11
-14.9606
 21
450.127
  0
LINE
  8
0
 10
-14.9606
 20
450.127
 11
-15
 21
449.5
  0
LINE
  8
0
 10
-15
 20
449.5
 11
-15
 21
414.5
  0
LINE
  8
0
 10
-15
 20
414.5
 11
-14.9606
 21
413.873
  0
LINE
  8
0
 10
-14.9606
 20
413.873
 11
-14.8429
 21
413.257
  0
LINE
  8
0
 10
-14.8429
 20
413.257
 11
-14.6489
 21
412.659
  0
LINE
  8
0
 10
-14.6489
 20
412.659
 11
-14.3815
 21
412.091
  0
LINE
  8
0
 10
-14.3815
 20
412.091
 11
-14.0451
 21
411.561
  0
LINE
  8
0
 10
-14.0451
 20
411.561
 11
-13.6448
 21
411.077
  0
LINE
  8
0
 10
-13.6448
 20
411.077
 11
-13.1871
 21
410.647
  0
LINE
  8
0
 10
-13.1871
 20
410.647
 11
-12.6791
 21
410.278
  0
LINE
  8
0
 10
-12.6791
 20
410.278
 11
-12.1289
 21
409.976
  0
LINE
  8
0
 10
-12.1289
 20
409.976
 11
-11.5451
 21
409.745
  0
LINE
  8
0
 10
-11.5451
 20
409.745
 11
-10.9369
 21
409.589
  0
LINE
  8
0
 10
-10.9369
 20
409.589
 11
-10.3139
 21
409.51
  0
LINE
  8
0
 10
-10.3139
 20
409.51
 11
10.3139
 21
409.51
  0
LINE
  8
0
 10
10.3139
 20
409.51
 11
10.9369
 21
409.589
  0
LINE
  8
0
 10
-10.0482
 20
410.009
 11
-10.6401
 21
410.084
  0
LINE
  8
0
 10
-10.6401
 20
410.084
 11
-11.2178
 21
410.232
  0
LINE
  8
0
 10
-11.2178
 20
410.232
 11
-11.7724
 21
410.452
  0
LINE
  8
0
 10
-11.7724
 20
410.452
 11
-12.2952
 21
410.739
  0
LINE
  8
0
 10
-12.2952
 20
410.739
 11
-12.7778
 21
411.09
  0
LINE
  8
0
 10
-12.7778
 20
411.09
 11
-13.2126
 21
411.498
  0
LINE
  8
0
 10
-13.2126
 20
411.498
 11
-13.5928
 21
411.958
  0
LINE
  8
0
 10
-13.5928
 20
411.958
 11
-13.9124
 21
412.462
  0
LINE
  8
0
 10
-13.9124
 20
412.462
 11
-14.1664
 21
413.001
  0
LINE
  8
0
 10
-14.1664
 20
413.001
 11
-14.3508
 21
413.569
  0
LINE
  8
0
 10
-14.3508
 20
413.569
 11
-14.4625
 21
414.155
  0
LINE
  8
0
 10
-14.4625
 20
414.155
 11
-14.5
 21
414.75
  0
LINE
  8
0
 10
-14.5
 20
414.75
 11
-14.5
 21
449.25
  0
LINE
  8
0
 10
-14.5
 20
449.25
 11
-14.4625
 21
449.845
  0
LINE
  8
0
 10
-14.4625
 20
449.845
 11
-14.3508
 21
450.431
  0
LINE
  8
0
 10
-14.3508
 20
450.431
 11
-14.1664
 21
450.999
  0
LINE
  8
0
 10
-14.1664
 20
450.999
 11
-13.9124
 21
451.538
  0
LINE
  8
0
 10
-13.9124
 20
451.538
 11
-13.5928
 21
452.042
  0
LINE
  8
0
 10
-13.5928
 20
452.042
 11
-13.2126
 21
452.502
  0
LINE
  8
0
 10
-13.2126
 20
452.502
 11
-12.7778
 21
452.91
  0
LINE
  8
0
 10
-12.7778
 20
452.91
 11
-12.2952
 21
453.261
  0
LINE
  8
0
 10
-12.2952
 20
453.261
 11
-11.7724
 21
453.548
  0
LINE
  8
0
 10
-11.7724
 20
453.548
 11
-11.2178
 21
453.768
  0
LINE
  8
0
 10
-11.2178
 20
453.768
 11
-10.6401
 21
453.916
  0
LINE
  8
0
 10
-10.6401
 20
453.916
 11
-10.0482
 21
453.991
  0
LINE
  8
0
 10
-10.0482
 20
453.991
 11
10.0482
 21
453.991
  0
LINE
  8
0
 10
10.0482
 20
453.991
 11
10.6401
 21
453.916
  0
LINE
  8
0
 10
10.6401
 20
453.916
 11
11.2178
 21
453.768
  0
LINE
  8
0
 10
11.2178
 20
453.768
 11
11.7724
 21
453.548
  0
LINE
  8
0
 10
11.7724
 20
453.548
 11
12.2952
 21
453.261
  0
LINE
  8
0
 10
12.2952
 20
453.261
 11
12.7778
 21
452.91
  0
LINE
  8
0
 10
12.7778
 20
452.91
 11
13.2126
 21
452.502
  0
LINE
  8
0
 10
13.2126
 20
452.502
 11
13.5928
 21
452.042
  0
LINE
  8
0
 10
13.5928
 20
452.042
 11
13.9124
 21
451.538
  0
LINE
  8
0
 10
13.9124
 20
451.538
 11
14.1664
 21
450.999
  0
LINE
  8
0
 10
14.1664
 20
450.999
 11
14.3508
 21
450.431
  0
LINE
  8
0
 10
14.3508
 20
450.431
 11
14.4625
 21
449.845
  0
LINE
  8
0
 10
14.4625
 20
449.845
 11
14.5
 21
449.25
  0
LINE
  8
0
 10
14.5
 20
449.25
 11
14.5
 21
414.75
  0
LINE
  8
0
 10
14.5
 20
414.75
 11
14.4625
 21
414.155
  0
LINE
  8
0
 10
14.4625
 20
414.155
 11
14.3508
 21
413.569
  0
LINE
  8
0
 10
14.3508
 20
413.569
 11
14.1664
 21
413.001
  0
LINE
  8
0
 10
14.1664
 20
413.001
 11
13.9124
 21
412.462
  0
LINE
  8
0
 10
13.9124
 20
412.462
 11
13.5928
 21
411.958
  0
LINE
  8
0
 10
13.5928
 20
411.958
 11
13.2126
 21
411.498
  0
LINE
  8
0
 10
13.2126
 20
411.498
 11
12.7778
 21
411.09
  0
LINE
  8
0
 10
12.7778
 20
411.09
 11
12.2952
 21
410.739
  0
LINE
  8
0
 10
12.2952
 20
410.739
 11
11.7724
 21
410.452
  0
LINE
  8
0
 10
11.7724
 20
410.452
 11
11.2178
 21
410.232
  0
LINE
  8
0
 10
11.2178
 20
410.232
 11
10.6401
 21
410.084
  0
LINE
  8
0
 10
10.6401
 20
410.084
 11
10.0482
 21
410.009
  0
LINE
  8
0
 10
10.0482
 20
410.009
 11
-10.0482
 21
410.009
  0
LINE
  8
0
 10
10.9369
 20
355.589
 11
11.5451
 21
355.745
  0
LINE
  8
0
 10
11.5451
 20
355.745
 11
12.1289
 21
355.976
  0
LINE
  8
0
 10
12.1289
 20
355.976
 11
12.6791
 21
356.278
  0
LINE
  8
0
 10
12.6791
 20
356.278
 11
13.1871
 21
356.647
  0
LINE
  8
0
 10
13.1871
 20
356.647
 11
13.6448
 21
357.077
  0
LINE
  8
0
 10
13.6448
 20
357.077
 11
14.0451
 21
357.561
  0
LINE
  8
0
 10
14.0451
 20
357.561
 11
14.3815
 21
358.091
  0
LINE
  8
0
 10
14.3815
 20
358.091
 11
14.6489
 21
358.659
  0
LINE
  8
0
 10
14.6489
 20
358.659
 11
14.8429
 21
359.257
  0
LINE
  8
0
 10
14.8429
 20
359.257
 11
14.9606
 21
359.873
  0
LINE
  8
0
 10
14.9606
 20
359.873
 11
15
 21
360.5
  0
LINE
  8
0
 10
15
 20
360.5
 11
15
 21
395.5
  0
LINE
  8
0
 10
15
 20
395.5
 11
14.9606
 21
396.127
  0
LINE
  8
0
 10
14.9606
 20
396.127
 11
14.8429
 21
396.743
  0
LINE
  8
0
 10
14.8429
 20
396.743
 11
14.6489
 21
397.341
  0
LINE
  8
0
 10
14.6489
 20
397.341
 11
14.3815
 21
397.909
  0
LINE
  8
0
 10
14.3815
 20
397.909
 11
14.0451
 21
398.439
  0
LINE
  8
0
 10
14.0451
 20
398.439
 11
13.6448
 21
398.923
  0
LINE
  8
0
 10
13.6448
 20
398.923
 11
13.1871
 21
399.353
  0
LINE
  8
0
 10
13.1871
 20
399.353
 11
12.6791
 21
399.722
  0
LINE
  8
0
 10
12.6791
 20
399.722
 11
12.1289
 21
400.024
  0
LINE
  8
0
 10
12.1289
 20
400.024
 11
11.5451
 21
400.255
  0
LINE
  8
0
 10
11.5451
 20
400.255
 11
10.9369
 21
400.411
  0
LINE
  8
0
 10
10.9369
 20
400.411
 11
10.3139
 21
400.49
  0
LINE
  8
0
 10
10.3139
 20
400.49
 11
-10.3139
 21
400.49
  0
LINE
  8
0
 10
-10.3139
 20
400.49
 11
-10.9369
 21
400.411
  0
LINE
  8
0
 10
-10.9369
 20
400.411
 11
-11.5451
 21
400.255
  0
LINE
  8
0
 10
-11.5451
 20
400.255
 11
-12.1289
 21
400.024
  0
LINE
  8
0
 10
-12.1289
 20
400.024
 11
-12.6791
 21
399.722
  0
LINE
  8
0
 10
-12.6791
 20
399.722
 11
-13.1871
 21
399.353
  0
LINE
  8
0
 10
-13.1871
 20
399.353
 11
-13.6448
 21
398.923
  0
LINE
  8
0
 10
-13.6448
 20
398.923
 11
-14.0451
 21
398.439
  0
LINE
  8
0
 10
-14.0451
 20
398.439
 11
-14.3815
 21
397.909
  0
LINE
  8
0
 10
-14.3815
 20
397.909
 11
-14.6489
 21
397.341
  0
LINE
  8
0
 10
-14.6489
 20
397.341
 11
-14.8429
 21
396.743
  0
LINE
  8
0
 10
-14.8429
 20
396.743
 11
-14.9606
 21
396.127
  0
LINE
  8
0
 10
-14.9606
 20
396.127
 11
-15
 21
395.5
  0
LINE
  8
0
 10
-15
 20
395.5
 11
-15
 21
360.5
  0
LINE
  8
0
 10
-15
 20
360.5
 11
-14.9606
 21
359.873
  0
LINE
  8
0
 10
-14.9606
 20
359.873
 11
-14.8429
 21
359.257
  0
LINE
  8
0
 10
-14.8429
 20
359.257
 11
-14.6489
 21
358.659
  0
LINE
  8
0
 10
-14.6489
 20
358.659
 11
-14.3815
 21
358.091
  0
LINE
  8
0
 10
-14.3815
 20
358.091
 11
-14.0451
 21
357.561
  0
LINE
  8
0
 10
-14.0451
 20
357.561
 11
-13.6448
 21
357.077
  0
LINE
  8
0
 10
-13.6448
 20
357.077
 11
-13.1871
 21
356.647
  0
LINE
  8
0
 10
-13.1871
 20
356.647
 11
-12.6791
 21
356.278
  0
LINE
  8
0
 10
-12.6791
 20
356.278
 11
-12.1289
 21
355.976
  0
LINE
  8
0
 10
-12.1289
 20
355.976
 11
-11.5451
 21
355.745
  0
LINE
  8
0
 10
-11.5451
 20
355.745
 11
-10.9369
 21
355.589
  0
LINE
  8
0
 10
-10.9369
 20
355.589
 11
-10.3139
 21
355.51
  0
LINE
  8
0
 10
-10.3139
 20
355.51
 11
10.3139
 21
355.51
  0
LINE
  8
0
 10
10.3139
 20
355.51
 11
10.9369
 21
355.589
  0
LINE
  8
0
 10
-10.0482
 20
356.009
 11
-10.6401
 21
356.084
  0
LINE
  8
0
 10
-10.6401
 20
356.084
 11
-11.2178
 21
356.232
  0
LINE
  8
0
 10
-11.2178
 20
356.232
 11
-11.7724
 21
356.452
  0
LINE
  8
0
 10
-11.7724
 20
356.452
 11
-12.2952
 21
356.739
  0
LINE
  8
0
 10
-12.2952
 20
356.739
 11
-12.7778
 21
357.09
  0
LINE
  8
0
 10
-12.7778
 20
357.09
 11
-13.2126
 21
357.498
  0
LINE
  8
0
 10
-13.2126
 20
357.498
 11
-13.5928
 21
357.958
  0
LINE
  8
0
 10
-13.5928
 20
357.958
 11
-13.9124
 21
358.462
  0
LINE
  8
0
 10
-13.9124
 20
358.462
 11
-14.1664
 21
359.001
  0
LINE
  8
0
 10
-14.1664
 20
359.001
 11
-14.3508
 21
359.569
  0
LINE
  8
0
 10
-14.3508
 20
359.569
 11
-14.4625
 21
360.155
  0
LINE
  8
0
 10
-14.4625
 20
360.155
 11
-14.5
 21
360.75
  0
LINE
  8
0
 10
-14.5
 20
360.75
 11
-14.5
 21
395.25
  0
LINE
  8
0
 10
-14.5
 20
395.25
 11
-14.4625
 21
395.845
  0
LINE
  8
0
 10
-14.4625
 20
395.845
 11
-14.3508
 21
396.431
  0
LINE
  8
0
 10
-14.3508
 20
396.431
 11
-14.1664
 21
396.999
  0
LINE
  8
0
 10
-14.1664
 20
396.999
 11
-13.9124
 21
397.538
  0
LINE
  8
0
 10
-13.9124
 20
397.538
 11
-13.5928
 21
398.042
  0
LINE
  8
0
 10
-13.5928
 20
398.042
 11
-13.2126
 21
398.502
  0
LINE
  8
0
 10
-13.2126
 20
398.502
 11
-12.7778
 21
398.91
  0
LINE
  8
0
 10
-12.7778
 20
398.91
 11
-12.2952
 21
399.261
  0
LINE
  8
0
 10
-12.2952
 20
399.261
 11
-11.7724
 21
399.548
  0
LINE
  8
0
 10
-11.7724
 20
399.548
 11
-11.2178
 21
399.768
  0
LINE
  8
0
 10
-11.2178
 20
399.768
 11
-10.6401
 21
399.916
  0
LINE
  8
0
 10
-10.6401
 20
399.916
 11
-10.0482
 21
399.991
  0
LINE
  8
0
 10
-10.0482
 20
399.991
 11
10.0482
 21
399.991
  0
LINE
  8
0
 10
10.0482
 20
399.991
 11
10.6401
 21
399.916
  0
LINE
  8
0
 10
10.6401
 20
399.916
 11
11.2178
 21
399.768
  0
LINE
  8
0
 10
11.2178
 20
399.768
 11
11.7724
 21
399.548
  0
LINE
  8
0
 10
11.7724
 20
399.548
 11
12.2952
 21
399.261
  0
LINE
  8
0
 10
12.2952
 20
399.261
 11
12.7778
 21
398.91
  0
LINE
  8
0
 10
12.7778
 20
398.91
 11
13.2126
 21
398.502
  0
LINE
  8
0
 10
13.2126
 20
398.502
 11
13.5928
 21
398.042
  0
LINE
  8
0
 10
13.5928
 20
398.042
 11
13.9124
 21
397.538
  0
LINE
  8
0
 10
13.9124
 20
397.538
 11
14.1664
 21
396.999
  0
LINE
  8
0
 10
14.1664
 20
396.999
 11
14.3508
 21
396.431
  0
LINE
  8
0
 10
14.3508
 20
396.431
 11
14.4625
 21
395.845
  0
LINE
  8
0
 10
14.4625
 20
395.845
 11
14.5
 21
395.25
  0
LINE
  8
0
 10
14.5
 20
395.25
 11
14.5
 21
360.75
  0
LINE
  8
0
 10
14.5
 20
360.75
 11
14.4625
 21
360.155
  0
LINE
  8
0
 10
14.4625
 20
360.155
 11
14.3508
 21
359.569
  0
LINE
  8
0
 10
14.3508
 20
359.569
 11
14.1664
 21
359.001
  0
LINE
  8
0
 10
14.1664
 20
359.001
 11
13.9124
 21
358.462
  0
LINE
  8
0
 10
13.9124
 20
358.462
 11
13.5928
 21
357.958
  0
LINE
  8
0
 10
13.5928
 20
357.958
 11
13.2126
 21
357.498
  0
LINE
  8
0
 10
13.2126
 20
357.498
 11
12.7778
 21
357.09
  0
LINE
  8
0
 10
12.7778
 20
357.09
 11
12.2952
 21
356.739
  0
LINE
  8
0
 10
12.2952
 20
356.739
 11
11.7724
 21
356.452
  0
LINE
  8
0
 10
11.7724
 20
356.452
 11
11.2178
 21
356.232
  0
LINE
  8
0
 10
11.2178
 20
356.232
 11
10.6401
 21
356.084
  0
LINE
  8
0
 10
10.6401
 20
356.084
 11
10.0482
 21
356.009
  0
LINE
  8
0
 10
10.0482
 20
356.009
 11
-10.0482
 21
356.009
  0
LINE
  8
0
 10
10.9369
 20
301.589
 11
11.5451
 21
301.745
  0
LINE
  8
0
 10
11.5451
 20
301.745
 11
12.1289
 21
301.976
  0
LINE
  8
0
 10
12.1289
 20
301.976
 11
12.6791
 21
302.278
  0
LINE
  8
0
 10
12.6791
 20
302.278
 11
13.1871
 21
302.647
  0
LINE
  8
0
 10
13.1871
 20
302.647
 11
13.6448
 21
303.077
  0
LINE
  8
0
 10
13.6448
 20
303.077
 11
14.0451
 21
303.561
  0
LINE
  8
0
 10
14.0451
 20
303.561
 11
14.3815
 21
304.091
  0
LINE
  8
0
 10
14.3815
 20
304.091
 11
14.6489
 21
304.659
  0
LINE
  8
0
 10
14.6489
 20
304.659
 11
14.8429
 21
305.257
  0
LINE
  8
0
 10
14.8429
 20
305.257
 11
14.9606
 21
305.873
  0
LINE
  8
0
 10
14.9606
 20
305.873
 11
15
 21
306.5
  0
LINE
  8
0
 10
15
 20
306.5
 11
15
 21
341.5
  0
LINE
  8
0
 10
15
 20
341.5
 11
14.9606
 21
342.127
  0
LINE
  8
0
 10
14.9606
 20
342.127
 11
14.8429
 21
342.743
  0
LINE
  8
0
 10
14.8429
 20
342.743
 11
14.6489
 21
343.341
  0
LINE
  8
0
 10
14.6489
 20
343.341
 11
14.3815
 21
343.909
  0
LINE
  8
0
 10
14.3815
 20
343.909
 11
14.0451
 21
344.439
  0
LINE
  8
0
 10
14.0451
 20
344.439
 11
13.6448
 21
344.923
  0
LINE
  8
0
 10
13.6448
 20
344.923
 11
13.1871
 21
345.353
  0
LINE
  8
0
 10
13.1871
 20
345.353
 11
12.6791
 21
345.722
  0
LINE
  8
0
 10
12.6791
 20
345.722
 11
12.1289
 21
346.024
  0
LINE
  8
0
 10
12.1289
 20
346.024
 11
11.5451
 21
346.255
  0
LINE
  8
0
 10
11.5451
 20
346.255
 11
10.9369
 21
346.411
  0
LINE
  8
0
 10
10.9369
 20
346.411
 11
10.3139
 21
346.49
  0
LINE
  8
0
 10
10.3139
 20
346.49
 11
-10.3139
 21
346.49
  0
LINE
  8
0
 10
-10.3139
 20
346.49
 11
-10.9369
 21
346.411
  0
LINE
  8
0
 10
-10.9369
 20
346.411
 11
-11.5451
 21
346.255
  0
LINE
  8
0
 10
-11.5451
 20
346.255
 11
-12.1289
 21
346.024
  0
LINE
  8
0
 10
-12.1289
 20
346.024
 11
-12.6791
 21
345.722
  0
LINE
  8
0
 10
-12.6791
 20
345.722
 11
-13.1871
 21
345.353
  0
LINE
  8
0
 10
-13.1871
 20
345.353
 11
-13.6448
 21
344.923
  0
LINE
  8
0
 10
-13.6448
 20
344.923
 11
-14.0451
 21
344.439
  0
LINE
  8
0
 10
-14.0451
 20
344.439
 11
-14.3815
 21
343.909
  0
LINE
  8
0
 10
-14.3815
 20
343.909
 11
-14.6489
 21
343.341
  0
LINE
  8
0
 10
-14.6489
 20
343.341
 11
-14.8429
 21
342.743
  0
LINE
  8
0
 10
-14.8429
 20
342.743
 11
-14.9606
 21
342.127
  0
LINE
  8
0
 10
-14.9606
 20
342.127
 11
-15
 21
341.5
  0
LINE
  8
0
 10
-15
 20
341.5
 11
-15
 21
306.5
  0
LINE
  8
0
 10
-15
 20
306.5
 11
-14.9606
 21
305.873
  0
LINE
  8
0
 10
-14.9606
 20
305.873
 11
-14.8429
 21
305.257
  0
LINE
  8
0
 10
-14.8429
 20
305.257
 11
-14.6489
 21
304.659
  0
LINE
  8
0
 10
-14.6489
 20
304.659
 11
-14.3815
 21
304.091
  0
LINE
  8
0
 10
-14.3815
 20
304.091
 11
-14.0451
 21
303.561
  0
LINE
  8
0
 10
-14.0451
 20
303.561
 11
-13.6448
 21
303.077
  0
LINE
  8
0
 10
-13.6448
 20
303.077
 11
-13.1871
 21
302.647
  0
LINE
  8
0
 10
-13.1871
 20
302.647
 11
-12.6791
 21
302.278
  0
LINE
  8
0
 10
-12.6791
 20
302.278
 11
-12.1289
 21
301.976
  0
LINE
  8
0
 10
-12.1289
 20
301.976
 11
-11.5451
 21
301.745
  0
LINE
  8
0
 10
-11.5451
 20
301.745
 11
-10.9369
 21
301.589
  0
LINE
  8
0
 10
-10.9369
 20
301.589
 11
-10.3139
 21
301.51
  0
LINE
  8
0
 10
-10.3139
 20
301.51
 11
10.3139
 21
301.51
  0
LINE
  8
0
 10
10.3139
 20
301.51
 11
10.9369
 21
301.589
  0
LINE
  8
0
 10
-10.0482
 20
302.009
 11
-10.6401
 21
302.084
  0
LINE
  8
0
 10
-10.6401
 20
302.084
 11
-11.2178
 21
302.232
  0
LINE
  8
0
 10
-11.2178
 20
302.232
 11
-11.7724
 21
302.452
  0
LINE
  8
0
 10
-11.7724
 20
302.452
 11
-12.2952
 21
302.739
  0
LINE
  8
0
 10
-12.2952
 20
302.739
 11
-12.7778
 21
303.09
  0
LINE
  8
0
 10
-12.7778
 20
303.09
 11
-13.2126
 21
303.498
  0
LINE
  8
0
 10
-13.2126
 20
303.498
 11
-13.5928
 21
303.958
  0
LINE
  8
0
 10
-13.5928
 20
303.958
 11
-13.9124
 21
304.462
  0
LINE
  8
0
 10
-13.9124
 20
304.462
 11
-14.1664
 21
305.001
  0
LINE
  8
0
 10
-14.1664
 20
305.001
 11
-14.3508
 21
305.569
  0
LINE
  8
0
 10
-14.3508
 20
305.569
 11
-14.4625
 21
306.155
  0
LINE
  8
0
 10
-14.4625
 20
306.155
 11
-14.5
 21
306.75
  0
LINE
  8
0
 10
-14.5
 20
306.75
 11
-14.5
 21
341.25
  0
LINE
  8
0
 10
-14.5
 20
341.25
 11
-14.4625
 21
341.845
  0
LINE
  8
0
 10
-14.4625
 20
341.845
 11
-14.3508
 21
342.431
  0
LINE
  8
0
 10
-14.3508
 20
342.431
 11
-14.1664
 21
342.999
  0
LINE
  8
0
 10
-14.1664
 20
342.999
 11
-13.9124
 21
343.538
  0
LINE
  8
0
 10
-13.9124
 20
343.538
 11
-13.5928
 21
344.042
  0
LINE
  8
0
 10
-13.5928
 20
344.042
 11
-13.2126
 21
344.502
  0
LINE
  8
0
 10
-13.2126
 20
344.502
 11
-12.7778
 21
344.91
  0
LINE
  8
0
 10
-12.7778
 20
344.91
 11
-12.2952
 21
345.261
  0
LINE
  8
0
 10
-12.2952
 20
345.261
 11
-11.7724
 21
345.548
  0
LINE
  8
0
 10
-11.7724
 20
345.548
 11
-11.2178
 21
345.768
  0
LINE
  8
0
 10
-11.2178
 20
345.768
 11
-10.6401
 21
345.916
  0
LINE
  8
0
 10
-10.6401
 20
345.916
 11
-10.0482
 21
345.991
  0
LINE
  8
0
 10
-10.0482
 20
345.991
 11
10.0482
 21
345.991
  0
LINE
  8
0
 10
10.0482
 20
345.991
 11
10.6401
 21
345.916
  0
LINE
  8
0
 10
10.6401
 20
345.916
 11
11.2178
 21
345.768
  0
LINE
  8
0
 10
11.2178
 20
345.768
 11
11.7724
 21
345.548
  0
LINE
  8
0
 10
11.7724
 20
345.548
 11
12.2952
 21
345.261
  0
LINE
  8
0
 10
12.2952
 20
345.261
 11
12.7778
 21
344.91
  0
LINE
  8
0
 10
12.7778
 20
344.91
 11
13.2126
 21
344.502
  0
LINE
  8
0
 10
13.2126
 20
344.502
 11
13.5928
 21
344.042
  0
LINE
  8
0
 10
13.5928
 20
344.042
 11
13.9124
 21
343.538
  0
LINE
  8
0
 10
13.9124
 20
343.538
 11
14.1664
 21
342.999
  0
LINE
  8
0
 10
14.1664
 20
342.999
 11
14.3508
 21
342.431
  0
LINE
  8
0
 10
14.3508
 20
342.431
 11
14.4625
 21
341.845
  0
LINE
  8
0
 10
14.4625
 20
341.845
 11
14.5
 21
341.25
  0
LINE
  8
0
 10
14.5
 20
341.25
 11
14.5
 21
306.75
  0
LINE
  8
0
 10
14.5
 20
306.75
 11
14.4625
 21
306.155
  0
LINE
  8
0
 10
14.4625
 20
306.155
 11
14.3508
 21
305.569
  0
LINE
  8
0
 10
14.3508
 20
305.569
 11
14.1664
 21
305.001
  0
LINE
  8
0
 10
14.1664
 20
305.001
 11
13.9124
 21
304.462
  0
LINE
  8
0
 10
13.9124
 20
304.462
 11
13.5928
 21
303.958
  0
LINE
  8
0
 10
13.5928
 20
303.958
 11
13.2126
 21
303.498
  0
LINE
  8
0
 10
13.2126
 20
303.498
 11
12.7778
 21
303.09
  0
LINE
  8
0
 10
12.7778
 20
303.09
 11
12.2952
 21
302.739
  0
LINE
  8
0
 10
12.2952
 20
302.739
 11
11.7724
 21
302.452
  0
LINE
  8
0
 10
11.7724
 20
302.452
 11
11.2178
 21
302.232
  0
LINE
  8
0
 10
11.2178
 20
302.232
 11
10.6401
 21
302.084
  0
LINE
  8
0
 10
10.6401
 20
302.084
 11
10.0482
 21
302.009
  0
LINE
  8
0
 10
10.0482
 20
302.009
 11
-10.0482
 21
302.009
  0
LINE
  8
0
 10
10.9369
 20
247.589
 11
11.5451
 21
247.745
  0
LINE
  8
0
 10
11.5451
 20
247.745
 11
12.1289
 21
247.976
  0
LINE
  8
0
 10
12.1289
 20
247.976
 11
12.6791
 21
248.278
  0
LINE
  8
0
 10
12.6791
 20
248.278
 11
13.1871
 21
248.647
  0
LINE
  8
0
 10
13.1871
 20
248.647
 11
13.6448
 21
249.077
  0
LINE
  8
0
 10
13.6448
 20
249.077
 11
14.0451
 21
249.561
  0
LINE
  8
0
 10
14.0451
 20
249.561
 11
14.3815
 21
250.091
  0
LINE
  8
0
 10
14.3815
 20
250.091
 11
14.6489
 21
250.659
  0
LINE
  8
0
 10
14.6489
 20
250.659
 11
14.8429
 21
251.257
  0
LINE
  8
0
 10
14.8429
 20
251.257
 11
14.9606
 21
251.873
  0
LINE
  8
0
 10
14.9606
 20
251.873
 11
15
 21
252.5
  0
LINE
  8
0
 10
15
 20
252.5
 11
15
 21
287.5
  0
LINE
  8
0
 10
15
 20
287.5
 11
14.9606
 21
288.127
  0
LINE
  8
0
 10
14.9606
 20
288.127
 11
14.8429
 21
288.743
  0
LINE
  8
0
 10
14.8429
 20
288.743
 11
14.6489
 21
289.341
  0
LINE
  8
0
 10
14.6489
 20
289.341
 11
14.3815
 21
289.909
  0
LINE
  8
0
 10
14.3815
 20
289.909
 11
14.0451
 21
290.439
  0
LINE
  8
0
 10
14.0451
 20
290.439
 11
13.6448
 21
290.923
  0
LINE
  8
0
 10
13.6448
 20
290.923
 11
13.1871
 21
291.353
  0
LINE
  8
0
 10
13.1871
 20
291.353
 11
12.6791
 21
291.722
  0
LINE
  8
0
 10
12.6791
 20
291.722
 11
12.1289
 21
292.024
  0
LINE
  8
0
 10
12.1289
 20
292.024
 11
11.5451
 21
292.255
  0
LINE
  8
0
 10
11.5451
 20
292.255
 11
10.9369
 21
292.411
  0
LINE
  8
0
 10
10.9369
 20
292.411
 11
10.3139
 21
292.49
  0
LINE
  8
0
 10
10.3139
 20
292.49
 11
-10.3139
 21
292.49
  0
LINE
  8
0
 10
-10.3139
 20
292.49
 11
-10.9369
 21
292.411
  0
LINE
  8
0
 10
-10.9369
 20
292.411
 11
-11.5451
 21
292.255
  0
LINE
  8
0
 10
-11.5451
 20
292.255
 11
-12.1289
 21
292.024
  0
LINE
  8
0
 10
-12.1289
 20
292.024
 11
-12.6791
 21
291.722
  0
LINE
  8
0
 10
-12.6791
 20
291.722
 11
-13.1871
 21
291.353
  0
LINE
  8
0
 10
-13.1871
 20
291.353
 11
-13.6448
 21
290.923
  0
LINE
  8
0
 10
-13.6448
 20
290.923
 11
-14.0451
 21
290.439
  0
LINE
  8
0
 10
-14.0451
 20
290.439
 11
-14.3815
 21
289.909
  0
LINE
  8
0
 10
-14.3815
 20
289.909
 11
-14.6489
 21
289.341
  0
LINE
  8
0
 10
-14.6489
 20
289.341
 11
-14.8429
 21
288.743
  0
LINE
  8
0
 10
-14.8429
 20
288.743
 11
-14.9606
 21
288.127
  0
LINE
  8
0
 10
-14.9606
 20
288.127
 11
-15
 21
287.5
  0
LINE
  8
0
 10
-15
 20
287.5
 11
-15
 21
252.5
  0
LINE
  8
0
 10
-15
 20
252.5
 11
-14.9606
 21
251.873
  0
LINE
  8
0
 10
-14.9606
 20
251.873
 11
-14.8429
 21
251.257
  0
LINE
  8
0
 10
-14.8429
 20
251.257
 11
-14.6489
 21
250.659
  0
LINE
  8
0
 10
-14.6489
 20
250.659
 11
-14.3815
 21
250.091
  0
LINE
  8
0
 10
-14.3815
 20
250.091
 11
-14.0451
 21
249.561
  0
LINE
  8
0
 10
-14.0451
 20
249.561
 11
-13.6448
 21
249.077
  0
LINE
  8
0
 10
-13.6448
 20
249.077
 11
-13.1871
 21
248.647
  0
LINE
  8
0
 10
-13.1871
 20
248.647
 11
-12.6791
 21
248.278
  0
LINE
  8
0
 10
-12.6791
 20
248.278
 11
-12.1289
 21
247.976
  0
LINE
  8
0
 10
-12.1289
 20
247.976
 11
-11.5451
 21
247.745
  0
LINE
  8
0
 10
-11.5451
 20
247.745
 11
-10.9369
 21
247.589
  0
LINE
  8
0
 10
-10.9369
 20
247.589
 11
-10.3139
 21
247.51
  0
LINE
  8
0
 10
-10.3139
 20
247.51
 11
10.3139
 21
247.51
  0
LINE
  8
0
 10
10.3139
 20
247.51
 11
10.9369
 21
247.589
  0
LINE
  8
0
 10
-9.99297
 20
248.888
 11
-10.4751
 21
248.949
  0
LINE
  8
0
 10
-10.4751
 20
248.949
 11
-10.9457
 21
249.07
  0
LINE
  8
0
 10
-10.9457
 20
249.07
 11
-11.3975
 21
249.249
  0
LINE
  8
0
 10
-11.3975
 20
249.249
 11
-11.8234
 21
249.483
  0
LINE
  8
0
 10
-11.8234
 20
249.483
 11
-12.2165
 21
249.769
  0
LINE
  8
0
 10
-12.2165
 20
249.769
 11
-12.5707
 21
250.101
  0
LINE
  8
0
 10
-12.5707
 20
250.101
 11
-12.8805
 21
250.476
  0
LINE
  8
0
 10
-12.8805
 20
250.476
 11
-13.1408
 21
250.886
  0
LINE
  8
0
 10
-13.1408
 20
250.886
 11
-13.3477
 21
251.326
  0
LINE
  8
0
 10
-13.3477
 20
251.326
 11
-13.4979
 21
251.788
  0
LINE
  8
0
 10
-13.4979
 20
251.788
 11
-13.589
 21
252.265
  0
LINE
  8
0
 10
-13.589
 20
252.265
 11
-13.6195
 21
252.75
  0
LINE
  8
0
 10
-13.6195
 20
252.75
 11
-13.6195
 21
287.25
  0
LINE
  8
0
 10
-13.6195
 20
287.25
 11
-13.589
 21
287.735
  0
LINE
  8
0
 10
-13.589
 20
287.735
 11
-13.4979
 21
288.212
  0
LINE
  8
0
 10
-13.4979
 20
288.212
 11
-13.3477
 21
288.674
  0
LINE
  8
0
 10
-13.3477
 20
288.674
 11
-13.1408
 21
289.114
  0
LINE
  8
0
 10
-13.1408
 20
289.114
 11
-12.8805
 21
289.524
  0
LINE
  8
0
 10
-12.8805
 20
289.524
 11
-12.5707
 21
289.899
  0
LINE
  8
0
 10
-12.5707
 20
289.899
 11
-12.2165
 21
290.231
  0
LINE
  8
0
 10
-12.2165
 20
290.231
 11
-11.8234
 21
290.517
  0
LINE
  8
0
 10
-11.8234
 20
290.517
 11
-11.3975
 21
290.751
  0
LINE
  8
0
 10
-11.3975
 20
290.751
 11
-10.9457
 21
290.93
  0
LINE
  8
0
 10
-10.9457
 20
290.93
 11
-10.4751
 21
291.051
  0
LINE
  8
0
 10
-10.4751
 20
291.051
 11
-9.99297
 21
291.112
  0
LINE
  8
0
 10
-9.99297
 20
291.112
 11
9.99297
 21
291.112
  0
LINE
  8
0
 10
9.99297
 20
291.112
 11
10.4751
 21
291.051
  0
LINE
  8
0
 10
10.4751
 20
291.051
 11
10.9457
 21
290.93
  0
LINE
  8
0
 10
10.9457
 20
290.93
 11
11.3975
 21
290.751
  0
LINE
  8
0
 10
11.3975
 20
290.751
 11
11.8234
 21
290.517
  0
LINE
  8
0
 10
11.8234
 20
290.517
 11
12.2165
 21
290.231
  0
LINE
  8
0
 10
12.2165
 20
290.231
 11
12.5707
 21
289.899
  0
LINE
  8
0
 10
12.5707
 20
289.899
 11
12.8805
 21
289.524
  0
LINE
  8
0
 10
12.8805
 20
289.524
 11
13.1408
 21
289.114
  0
LINE
  8
0
 10
13.1408
 20
289.114
 11
13.3477
 21
288.674
  0
LINE
  8
0
 10
13.3477
 20
288.674
 11
13.4979
 21
288.212
  0
LINE
  8
0
 10
13.4979
 20
288.212
 11
13.589
 21
287.735
  0
LINE
  8
0
 10
13.589
 20
287.735
 11
13.6195
 21
287.25
  0
LINE
  8
0
 10
13.6195
 20
287.25
 11
13.6195
 21
252.75
  0
LINE
  8
0
 10
13.6195
 20
252.75
 11
13.589
 21
252.265
  0
LINE
  8
0
 10
13.589
 20
252.265
 11
13.4979
 21
251.788
  0
LINE
  8
0
 10
13.4979
 20
251.788
 11
13.3477
 21
251.326
  0
LINE
  8
0
 10
13.3477
 20
251.326
 11
13.1408
 21
250.886
  0
LINE
  8
0
 10
13.1408
 20
250.886
 11
12.8805
 21
250.476
  0
LINE
  8
0
 10
12.8805
 20
250.476
 11
12.5707
 21
250.101
  0
LINE
  8
0
 10
12.5707
 20
250.101
 11
12.2165
 21
249.769
  0
LINE
  8
0
 10
12.2165
 20
249.769
 11
11.8234
 21
249.483
  0
LINE
  8
0
 10
11.8234
 20
249.483
 11
11.3975
 21
249.249
  0
LINE
  8
0
 10
11.3975
 20
249.249
 11
10.9457
 21
249.07
  0
LINE
  8
0
 10
10.9457
 20
249.07
 11
10.4751
 21
248.949
  0
LINE
  8
0
 10
10.4751
 20
248.949
 11
9.99297
 21
248.888
  0
LINE
  8
0
 10
9.99297
 20
248.888
 11
-9.99297
 21
248.888
  0
LINE
  8
0
 10
10.9369
 20
193.589
 11
11.5451
 21
193.745
  0
LINE
  8
0
 10
11.5451
 20
193.745
 11
12.1289
 21
193.976
  0
LINE
  8
0
 10
12.1289
 20
193.976
 11
12.6791
 21
194.278
  0
LINE
  8
0
 10
12.6791
 20
194.278
 11
13.1871
 21
194.647
  0
LINE
  8
0
 10
13.1871
 20
194.647
 11
13.6448
 21
195.077
  0
LINE
  8
0
 10
13.6448
 20
195.077
 11
14.0451
 21
195.561
  0
LINE
  8
0
 10
14.0451
 20
195.561
 11
14.3815
 21
196.091
  0
LINE
  8
0
 10
14.3815
 20
196.091
 11
14.6489
 21
196.659
  0
LINE
  8
0
 10
14.6489
 20
196.659
 11
14.8429
 21
197.257
  0
LINE
  8
0
 10
14.8429
 20
197.257
 11
14.9606
 21
197.873
  0
LINE
  8
0
 10
14.9606
 20
197.873
 11
15
 21
198.5
  0
LINE
  8
0
 10
15
 20
198.5
 11
15
 21
233.5
  0
LINE
  8
0
 10
15
 20
233.5
 11
14.9606
 21
234.127
  0
LINE
  8
0
 10
14.9606
 20
234.127
 11
14.8429
 21
234.743
  0
LINE
  8
0
 10
14.8429
 20
234.743
 11
14.6489
 21
235.341
  0
LINE
  8
0
 10
14.6489
 20
235.341
 11
14.3815
 21
235.909
  0
LINE
  8
0
 10
14.3815
 20
235.909
 11
14.0451
 21
236.439
  0
LINE
  8
0
 10
14.0451
 20
236.439
 11
13.6448
 21
236.923
  0
LINE
  8
0
 10
13.6448
 20
236.923
 11
13.1871
 21
237.353
  0
LINE
  8
0
 10
13.1871
 20
237.353
 11
12.6791
 21
237.722
  0
LINE
  8
0
 10
12.6791
 20
237.722
 11
12.1289
 21
238.024
  0
LINE
  8
0
 10
12.1289
 20
238.024
 11
11.5451
 21
238.255
  0
LINE
  8
0
 10
11.5451
 20
238.255
 11
10.9369
 21
238.411
  0
LINE
  8
0
 10
10.9369
 20
238.411
 11
10.3139
 21
238.49
  0
LINE
  8
0
 10
10.3139
 20
238.49
 11
-10.3139
 21
238.49
  0
LINE
  8
0
 10
-10.3139
 20
238.49
 11
-10.9369
 21
238.411
  0
LINE
  8
0
 10
-10.9369
 20
238.411
 11
-11.5451
 21
238.255
  0
LINE
  8
0
 10
-11.5451
 20
238.255
 11
-12.1289
 21
238.024
  0
LINE
  8
0
 10
-12.1289
 20
238.024
 11
-12.6791
 21
237.722
  0
LINE
  8
0
 10
-12.6791
 20
237.722
 11
-13.1871
 21
237.353
  0
LINE
  8
0
 10
-13.1871
 20
237.353
 11
-13.6448
 21
236.923
  0
LINE
  8
0
 10
-13.6448
 20
236.923
 11
-14.0451
 21
236.439
  0
LINE
  8
0
 10
-14.0451
 20
236.439
 11
-14.3815
 21
235.909
  0
LINE
  8
0
 10
-14.3815
 20
235.909
 11
-14.6489
 21
235.341
  0
LINE
  8
0
 10
-14.6489
 20
235.341
 11
-14.8429
 21
234.743
  0
LINE
  8
0
 10
-14.8429
 20
234.743
 11
-14.9606
 21
234.127
  0
LINE
  8
0
 10
-14.9606
 20
234.127
 11
-15
 21
233.5
  0
LINE
  8
0
 10
-15
 20
233.5
 11
-15
 21
198.5
  0
LINE
  8
0
 10
-15
 20
198.5
 11
-14.9606
 21
197.873
  0
LINE
  8
0
 10
-14.9606
 20
197.873
 11
-14.8429
 21
197.257
  0
LINE
  8
0
 10
-14.8429
 20
197.257
 11
-14.6489
 21
196.659
  0
LINE
  8
0
 10
-14.6489
 20
196.659
 11
-14.3815
 21
196.091
  0
LINE
  8
0
 10
-14.3815
 20
196.091
 11
-14.0451
 21
195.561
  0
LINE
  8
0
 10
-14.0451
 20
195.561
 11
-13.6448
 21
195.077
  0
LINE
  8
0
 10
-13.6448
 20
195.077
 11
-13.1871
 21
194.647
  0
LINE
  8
0
 10
-13.1871
 20
194.647
 11
-12.6791
 21
194.278
  0
LINE
  8
0
 10
-12.6791
 20
194.278
 11
-12.1289
 21
193.976
  0
LINE
  8
0
 10
-12.1289
 20
193.976
 11
-11.5451
 21
193.745
  0
LINE
  8
0
 10
-11.5451
 20
193.745
 11
-10.9369
 21
193.589
  0
LINE
  8
0
 10
-10.9369
 20
193.589
 11
-10.3139
 21
193.51
  0
LINE
  8
0
 10
-10.3139
 20
193.51
 11
10.3139
 21
193.51
  0
LINE
  8
0
 10
10.3139
 20
193.51
 11
10.9369
 21
193.589
  0
LINE
  8
0
 10
-7.59418
 20
229.503
 11
-7.78107
 21
229.527
  0
LINE
  8
0
 10
-7.78107
 20
229.527
 11
-7.96352
 21
229.573
  0
LINE
  8
0
 10
-7.96352
 20
229.573
 11
-8.13866
 21
229.643
  0
LINE
  8
0
 10
-8.13866
 20
229.643
 11
-8.30373
 21
229.734
  0
LINE
  8
0
 10
-8.30373
 20
229.734
 11
-8.45613
 21
229.844
  0
LINE
  8
0
 10
-8.45613
 20
229.844
 11
-8.59344
 21
229.973
  0
LINE
  8
0
 10
-8.59344
 20
229.973
 11
-8.71352
 21
230.118
  0
LINE
  8
0
 10
-8.71352
 20
230.118
 11
-8.81445
 21
230.277
  0
LINE
  8
0
 10
-8.81445
 20
230.277
 11
-8.89465
 21
230.448
  0
LINE
  8
0
 10
-8.89465
 20
230.448
 11
-8.95287
 21
230.627
  0
LINE
  8
0
 10
-8.95287
 20
230.627
 11
-8.98816
 21
230.812
  0
LINE
  8
0
 10
-8.98816
 20
230.812
 11
-9
 21
231
  0
LINE
  8
0
 10
-9
 20
231
 11
-8.98816
 21
231.188
  0
LINE
  8
0
 10
-8.98816
 20
231.188
 11
-8.95287
 21
231.373
  0
LINE
  8
0
 10
-8.95287
 20
231.373
 11
-8.89465
 21
231.552
  0
LINE
  8
0
 10
-8.89465
 20
231.552
 11
-8.81445
 21
231.723
  0
LINE
  8
0
 10
-8.81445
 20
231.723
 11
-8.71352
 21
231.882
  0
LINE
  8
0
 10
-8.71352
 20
231.882
 11
-8.59344
 21
232.027
  0
LINE
  8
0
 10
-8.59344
 20
232.027
 11
-8.45613
 21
232.156
  0
LINE
  8
0
 10
-8.45613
 20
232.156
 11
-8.30373
 21
232.266
  0
LINE
  8
0
 10
-8.30373
 20
232.266
 11
-8.13866
 21
232.357
  0
LINE
  8
0
 10
-8.13866
 20
232.357
 11
-7.96352
 21
232.427
  0
LINE
  8
0
 10
-7.96352
 20
232.427
 11
-7.78107
 21
232.473
  0
LINE
  8
0
 10
-7.78107
 20
232.473
 11
-7.59418
 21
232.497
  0
LINE
  8
0
 10
-7.59418
 20
232.497
 11
-7.40581
 21
232.497
  0
LINE
  8
0
 10
-7.40581
 20
232.497
 11
-7.21892
 21
232.473
  0
LINE
  8
0
 10
-7.21892
 20
232.473
 11
-7.03647
 21
232.427
  0
LINE
  8
0
 10
-7.03647
 20
232.427
 11
-6.86133
 21
232.357
  0
LINE
  8
0
 10
-6.86133
 20
232.357
 11
-6.69626
 21
232.266
  0
LINE
  8
0
 10
-6.69626
 20
232.266
 11
-6.54385
 21
232.156
  0
LINE
  8
0
 10
-6.54385
 20
232.156
 11
-6.40654
 21
232.027
  0
LINE
  8
0
 10
-6.40654
 20
232.027
 11
-6.28647
 21
231.882
  0
LINE
  8
0
 10
-6.28647
 20
231.882
 11
-6.18553
 21
231.723
  0
LINE
  8
0
 10
-6.18553
 20
231.723
 11
-6.10533
 21
231.552
  0
LINE
  8
0
 10
-6.10533
 20
231.552
 11
-6.04712
 21
231.373
  0
LINE
  8
0
 10
-6.04712
 20
231.373
 11
-6.01183
 21
231.188
  0
LINE
  8
0
 10
-6.01183
 20
231.188
 11
-6
 21
231
  0
LINE
  8
0
 10
-6
 20
231
 11
-6.01183
 21
230.812
  0
LINE
  8
0
 10
-6.01183
 20
230.812
 11
-6.04712
 21
230.627
  0
LINE
  8
0
 10
-6.04712
 20
230.627
 11
-6.10533
 21
230.448
  0
LINE
  8
0
 10
-6.10533
 20
230.448
 11
-6.18553
 21
230.277
  0
LINE
  8
0
 10
-6.18553
 20
230.277
 11
-6.28647
 21
230.118
  0
LINE
  8
0
 10
-6.28647
 20
230.118
 11
-6.40654
 21
229.973
  0
LINE
  8
0
 10
-6.40654
 20
229.973
 11
-6.54385
 21
229.844
  0
LINE
  8
0
 10
-6.54385
 20
229.844
 11
-6.69626
 21
229.734
  0
LINE
  8
0
 10
-6.69626
 20
229.734
 11
-6.86133
 21
229.643
  0
LINE
  8
0
 10
-6.86133
 20
229.643
 11
-7.03647
 21
229.573
  0
LINE
  8
0
 10
-7.03647
 20
229.573
 11
-7.21892
 21
229.527
  0
LINE
  8
0
 10
-7.21892
 20
229.527
 11
-7.40581
 21
229.503
  0
LINE
  8
0
 10
-7.40581
 20
229.503
 11
-7.59418
 21
229.503
  0
LINE
  8
0
 10
7.40581
 20
229.503
 11
7.21892
 21
229.527
  0
LINE
  8
0
 10
7.21892
 20
229.527
 11
7.03647
 21
229.573
  0
LINE
  8
0
 10
7.03647
 20
229.573
 11
6.86133
 21
229.643
  0
LINE
  8
0
 10
6.86133
 20
229.643
 11
6.69626
 21
229.734
  0
LINE
  8
0
 10
6.69626
 20
229.734
 11
6.54385
 21
229.844
  0
LINE
  8
0
 10
6.54385
 20
229.844
 11
6.40654
 21
229.973
  0
LINE
  8
0
 10
6.40654
 20
229.973
 11
6.28647
 21
230.118
  0
LINE
  8
0
 10
6.28647
 20
230.118
 11
6.18553
 21
230.277
  0
LINE
  8
0
 10
6.18553
 20
230.277
 11
6.10533
 21
230.448
  0
LINE
  8
0
 10
6.10533
 20
230.448
 11
6.04712
 21
230.627
  0
LINE
  8
0
 10
6.04712
 20
230.627
 11
6.01183
 21
230.812
  0
LINE
  8
0
 10
6.01183
 20
230.812
 11
6
 21
231
  0
LINE
  8
0
 10
6
 20
231
 11
6.01183
 21
231.188
  0
LINE
  8
0
 10
6.01183
 20
231.188
 11
6.04712
 21
231.373
  0
LINE
  8
0
 10
6.04712
 20
231.373
 11
6.10533
 21
231.552
  0
LINE
  8
0
 10
6.10533
 20
231.552
 11
6.18553
 21
231.723
  0
LINE
  8
0
 10
6.18553
 20
231.723
 11
6.28647
 21
231.882
  0
LINE
  8
0
 10
6.28647
 20
231.882
 11
6.40654
 21
232.027
  0
LINE
  8
0
 10
6.40654
 20
232.027
 11
6.54385
 21
232.156
  0
LINE
  8
0
 10
6.54385
 20
232.156
 11
6.69626
 21
232.266
  0
LINE
  8
0
 10
6.69626
 20
232.266
 11
6.86133
 21
232.357
  0
LINE
  8
0
 10
6.86133
 20
232.357
 11
7.03647
 21
232.427
  0
LINE
  8
0
 10
7.03647
 20
232.427
 11
7.21892
 21
232.473
  0
LINE
  8
0
 10
7.21892
 20
232.473
 11
7.40581
 21
232.497
  0
LINE
  8
0
 10
7.40581
 20
232.497
 11
7.59418
 21
232.497
  0
LINE
  8
0
 10
7.59418
 20
232.497
 11
7.78107
 21
232.473
  0
LINE
  8
0
 10
7.78107
 20
232.473
 11
7.96352
 21
232.427
  0
LINE
  8
0
 10
7.96352
 20
232.427
 11
8.13866
 21
232.357
  0
LINE
  8
0
 10
8.13866
 20
232.357
 11
8.30373
 21
232.266
  0
LINE
  8
0
 10
8.30373
 20
232.266
 11
8.45613
 21
232.156
  0
LINE
  8
0
 10
8.45613
 20
232.156
 11
8.59344
 21
232.027
  0
LINE
  8
0
 10
8.59344
 20
232.027
 11
8.71352
 21
231.882
  0
LINE
  8
0
 10
8.71352
 20
231.882
 11
8.81445
 21
231.723
  0
LINE
  8
0
 10
8.81445
 20
231.723
 11
8.89465
 21
231.552
  0
LINE
  8
0
 10
8.89465
 20
231.552
 11
8.95287
 21
231.373
  0
LINE
  8
0
 10
8.95287
 20
231.373
 11
8.98816
 21
231.188
  0
LINE
  8
0
 10
8.98816
 20
231.188
 11
9
 21
231
  0
LINE
  8
0
 10
9
 20
231
 11
8.98816
 21
230.812
  0
LINE
  8
0
 10
8.98816
 20
230.812
 11
8.95287
 21
230.627
  0
LINE
  8
0
 10
8.95287
 20
230.627
 11
8.89465
 21
230.448
  0
LINE
  8
0
 10
8.89465
 20
230.448
 11
8.81445
 21
230.277
  0
LINE
  8
0
 10
8.81445
 20
230.277
 11
8.71352
 21
230.118
  0
LINE
  8
0
 10
8.71352
 20
230.118
 11
8.59344
 21
229.973
  0
LINE
  8
0
 10
8.59344
 20
229.973
 11
8.45613
 21
229.844
  0
LINE
  8
0
 10
8.45613
 20
229.844
 11
8.30373
 21
229.734
  0
LINE
  8
0
 10
8.30373
 20
229.734
 11
8.13866
 21
229.643
  0
LINE
  8
0
 10
8.13866
 20
229.643
 11
7.96352
 21
229.573
  0
LINE
  8
0
 10
7.96352
 20
229.573
 11
7.78107
 21
229.527
  0
LINE
  8
0
 10
7.78107
 20
229.527
 11
7.59418
 21
229.503
  0
LINE
  8
0
 10
7.59418
 20
229.503
 11
7.40581
 21
229.503
  0
LINE
  8
0
 10
-7.59418
 20
199.503
 11
-7.78107
 21
199.527
  0
LINE
  8
0
 10
-7.78107
 20
199.527
 11
-7.96352
 21
199.573
  0
LINE
  8
0
 10
-7.96352
 20
199.573
 11
-8.13866
 21
199.643
  0
LINE
  8
0
 10
-8.13866
 20
199.643
 11
-8.30373
 21
199.734
  0
LINE
  8
0
 10
-8.30373
 20
199.734
 11
-8.45613
 21
199.844
  0
LINE
  8
0
 10
-8.45613
 20
199.844
 11
-8.59344
 21
199.973
  0
LINE
  8
0
 10
-8.59344
 20
199.973
 11
-8.71352
 21
200.118
  0
LINE
  8
0
 10
-8.71352
 20
200.118
 11
-8.81445
 21
200.277
  0
LINE
  8
0
 10
-8.81445
 20
200.277
 11
-8.89465
 21
200.448
  0
LINE
  8
0
 10
-8.89465
 20
200.448
 11
-8.95287
 21
200.627
  0
LINE
  8
0
 10
-8.95287
 20
200.627
 11
-8.98816
 21
200.812
  0
LINE
  8
0
 10
-8.98816
 20
200.812
 11
-9
 21
201
  0
LINE
  8
0
 10
-9
 20
201
 11
-8.98816
 21
201.188
  0
LINE
  8
0
 10
-8.98816
 20
201.188
 11
-8.95287
 21
201.373
  0
LINE
  8
0
 10
-8.95287
 20
201.373
 11
-8.89465
 21
201.552
  0
LINE
  8
0
 10
-8.89465
 20
201.552
 11
-8.81445
 21
201.723
  0
LINE
  8
0
 10
-8.81445
 20
201.723
 11
-8.71352
 21
201.882
  0
LINE
  8
0
 10
-8.71352
 20
201.882
 11
-8.59344
 21
202.027
  0
LINE
  8
0
 10
-8.59344
 20
202.027
 11
-8.45613
 21
202.156
  0
LINE
  8
0
 10
-8.45613
 20
202.156
 11
-8.30373
 21
202.266
  0
LINE
  8
0
 10
-8.30373
 20
202.266
 11
-8.13866
 21
202.357
  0
LINE
  8
0
 10
-8.13866
 20
202.357
 11
-7.96352
 21
202.427
  0
LINE
  8
0
 10
-7.96352
 20
202.427
 11
-7.78107
 21
202.473
  0
LINE
  8
0
 10
-7.78107
 20
202.473
 11
-7.59418
 21
202.497
  0
LINE
  8
0
 10
-7.59418
 20
202.497
 11
-7.40581
 21
202.497
  0
LINE
  8
0
 10
-7.40581
 20
202.497
 11
-7.21892
 21
202.473
  0
LINE
  8
0
 10
-7.21892
 20
202.473
 11
-7.03647
 21
202.427
  0
LINE
  8
0
 10
-7.03647
 20
202.427
 11
-6.86133
 21
202.357
  0
LINE
  8
0
 10
-6.86133
 20
202.357
 11
-6.69626
 21
202.266
  0
LINE
  8
0
 10
-6.69626
 20
202.266
 11
-6.54385
 21
202.156
  0
LINE
  8
0
 10
-6.54385
 20
202.156
 11
-6.40654
 21
202.027
  0
LINE
  8
0
 10
-6.40654
 20
202.027
 11
-6.28647
 21
201.882
  0
LINE
  8
0
 10
-6.28647
 20
201.882
 11
-6.18553
 21
201.723
  0
LINE
  8
0
 10
-6.18553
 20
201.723
 11
-6.10533
 21
201.552
  0
LINE
  8
0
 10
-6.10533
 20
201.552
 11
-6.04712
 21
201.373
  0
LINE
  8
0
 10
-6.04712
 20
201.373
 11
-6.01183
 21
201.188
  0
LINE
  8
0
 10
-6.01183
 20
201.188
 11
-6
 21
201
  0
LINE
  8
0
 10
-6
 20
201
 11
-6.01183
 21
200.812
  0
LINE
  8
0
 10
-6.01183
 20
200.812
 11
-6.04712
 21
200.627
  0
LINE
  8
0
 10
-6.04712
 20
200.627
 11
-6.10533
 21
200.448
  0
LINE
  8
0
 10
-6.10533
 20
200.448
 11
-6.18553
 21
200.277
  0
LINE
  8
0
 10
-6.18553
 20
200.277
 11
-6.28647
 21
200.118
  0
LINE
  8
0
 10
-6.28647
 20
200.118
 11
-6.40654
 21
199.973
  0
LINE
  8
0
 10
-6.40654
 20
199.973
 11
-6.54385
 21
199.844
  0
LINE
  8
0
 10
-6.54385
 20
199.844
 11
-6.69626
 21
199.734
  0
LINE
  8
0
 10
-6.69626
 20
199.734
 11
-6.86133
 21
199.643
  0
LINE
  8
0
 10
-6.86133
 20
199.643
 11
-7.03647
 21
199.573
  0
LINE
  8
0
 10
-7.03647
 20
199.573
 11
-7.21892
 21
199.527
  0
LINE
  8
0
 10
-7.21892
 20
199.527
 11
-7.40581
 21
199.503
  0
LINE
  8
0
 10
-7.40581
 20
199.503
 11
-7.59418
 21
199.503
  0
LINE
  8
0
 10
7.40581
 20
199.503
 11
7.21892
 21
199.527
  0
LINE
  8
0
 10
7.21892
 20
199.527
 11
7.03647
 21
199.573
  0
LINE
  8
0
 10
7.03647
 20
199.573
 11
6.86133
 21
199.643
  0
LINE
  8
0
 10
6.86133
 20
199.643
 11
6.69626
 21
199.734
  0
LINE
  8
0
 10
6.69626
 20
199.734
 11
6.54385
 21
199.844
  0
LINE
  8
0
 10
6.54385
 20
199.844
 11
6.40654
 21
199.973
  0
LINE
  8
0
 10
6.40654
 20
199.973
 11
6.28647
 21
200.118
  0
LINE
  8
0
 10
6.28647
 20
200.118
 11
6.18553
 21
200.277
  0
LINE
  8
0
 10
6.18553
 20
200.277
 11
6.10533
 21
200.448
  0
LINE
  8
0
 10
6.10533
 20
200.448
 11
6.04712
 21
200.627
  0
LINE
  8
0
 10
6.04712
 20
200.627
 11
6.01183
 21
200.812
  0
LINE
  8
0
 10
6.01183
 20
200.812
 11
6
 21
201
  0
LINE
  8
0
 10
6
 20
201
 11
6.01183
 21
201.188
  0
LINE
  8
0
 10
6.01183
 20
201.188
 11
6.04712
 21
201.373
  0
LINE
  8
0
 10
6.04712
 20
201.373
 11
6.10533
 21
201.552
  0
LINE
  8
0
 10
6.10533
 20
201.552
 11
6.18553
 21
201.723
  0
LINE
  8
0
 10
6.18553
 20
201.723
 11
6.28647
 21
201.882
  0
LINE
  8
0
 10
6.28647
 20
201.882
 11
6.40654
 21
202.027
  0
LINE
  8
0
 10
6.40654
 20
202.027
 11
6.54385
 21
202.156
  0
LINE
  8
0
 10
6.54385
 20
202.156
 11
6.69626
 21
202.266
  0
LINE
  8
0
 10
6.69626
 20
202.266
 11
6.86133
 21
202.357
  0
LINE
  8
0
 10
6.86133
 20
202.357
 11
7.03647
 21
202.427
  0
LINE
  8
0
 10
7.03647
 20
202.427
 11
7.21892
 21
202.473
  0
LINE
  8
0
 10
7.21892
 20
202.473
 11
7.40581
 21
202.497
  0
LINE
  8
0
 10
7.40581
 20
202.497
 11
7.59418
 21
202.497
  0
LINE
  8
0
 10
7.59418
 20
202.497
 11
7.78107
 21
202.473
  0
LINE
  8
0
 10
7.78107
 20
202.473
 11
7.96352
 21
202.427
  0
LINE
  8
0
 10
7.96352
 20
202.427
 11
8.13866
 21
202.357
  0
LINE
  8
0
 10
8.13866
 20
202.357
 11
8.30373
 21
202.266
  0
LINE
  8
0
 10
8.30373
 20
202.266
 11
8.45613
 21
202.156
  0
LINE
  8
0
 10
8.45613
 20
202.156
 11
8.59344
 21
202.027
  0
LINE
  8
0
 10
8.59344
 20
202.027
 11
8.71352
 21
201.882
  0
LINE
  8
0
 10
8.71352
 20
201.882
 11
8.81445
 21
201.723
  0
LINE
  8
0
 10
8.81445
 20
201.723
 11
8.89465
 21
201.552
  0
LINE
  8
0
 10
8.89465
 20
201.552
 11
8.95287
 21
201.373
  0
LINE
  8
0
 10
8.95287
 20
201.373
 11
8.98816
 21
201.188
  0
LINE
  8
0
 10
8.98816
 20
201.188
 11
9
 21
201
  0
LINE
  8
0
 10
9
 20
201
 11
8.98816
 21
200.812
  0
LINE
  8
0
 10
8.98816
 20
200.812
 11
8.95287
 21
200.627
  0
LINE
  8
0
 10
8.95287
 20
200.627
 11
8.89465
 21
200.448
  0
LINE
  8
0
 10
8.89465
 20
200.448
 11
8.81445
 21
200.277
  0
LINE
  8
0
 10
8.81445
 20
200.277
 11
8.71352
 21
200.118
  0
LINE
  8
0
 10
8.71352
 20
200.118
 11
8.59344
 21
199.973
  0
LINE
  8
0
 10
8.59344
 20
199.973
 11
8.45613
 21
199.844
  0
LINE
  8
0
 10
8.45613
 20
199.844
 11
8.30373
 21
199.734
  0
LINE
  8
0
 10
8.30373
 20
199.734
 11
8.13866
 21
199.643
  0
LINE
  8
0
 10
8.13866
 20
199.643
 11
7.96352
 21
199.573
  0
LINE
  8
0
 10
7.96352
 20
199.573
 11
7.78107
 21
199.527
  0
LINE
  8
0
 10
7.78107
 20
199.527
 11
7.59418
 21
199.503
  0
LINE
  8
0
 10
7.59418
 20
199.503
 11
7.40581
 21
199.503
  0
ENDSEC
  0
SECTION
  2
OBJECTS
  0
DICTIONARY
  0
ENDSEC
  0
EOF
