<?xml version="1.0" standalone="no"?>
<!DOCTYPE svg PUBLIC "-//W3C//DTD SVG 1.1//EN" "http://www.w3.org/Graphics/SVG/1.1/DTD/svg11.dtd">
<svg width="30mm" height="262mm" viewBox="-15 -455 30 262" xmlns="http://www.w3.org/2000/svg" version="1.1">
<title>OpenSCAD Model</title>
<path d="
M 10.9369,-409.589 L 11.5451,-409.745 L 12.1289,-409.976 L 12.6791,-410.278 L 13.1871,-410.647 L 13.6448,-411.077
 L 14.0451,-411.561 L 14.3815,-412.091 L 14.6489,-412.659 L 14.8429,-413.257 L 14.9606,-413.873 L 15,-414.5
 L 15,-449.5 L 14.9606,-450.127 L 14.8429,-450.743 L 14.6489,-451.341 L 14.3815,-451.909 L 14.0451,-452.439
 L 13.6448,-452.923 L 13.1871,-453.353 L 12.6791,-453.722 L 12.1289,-454.024 L 11.5451,-454.255 L 10.9369,-454.411
 L 10.3139,-454.49 L -10.3139,-454.49 L -10.9369,-454.411 L -11.5451,-454.255 L -12.1289,-454.024 L -12.6791,-453.722
 L -13.1871,-453.353 L -13.6448,-452.923 L -14.0451,-452.439 L -14.3815,-451.909 L -14.6489,-451.341 L -14.8429,-450.743
 L -14.9606,-450.127 L -15,-449.5 L -15,-414.5 L -14.9606,-413.873 L -14.8429,-413.257 L -14.6489,-412.659
 L -14.3815,-412.091 L -14.0451,-411.561 L -13.6448,-411.077 L -13.1871,-410.647 L -12.6791,-410.278 L -12.1289,-409.976
 L -11.5451,-409.745 L -10.9369,-409.589 L -10.3139,-409.51 L 10.3139,-409.51 z
M -10.0482,-410.009 L -10.6401,-410.084 L -11.2178,-410.232 L -11.7724,-410.452 L -12.2952,-410.739 L -12.7778,-411.09
 L -13.2126,-411.498 L -13.5928,-411.958 L -13.9124,-412.462 L -14.1664,-413.001 L -14.3508,-413.569 L -14.4625,-414.155
 L -14.5,-414.75 L -14.5,-449.25 L -14.4625,-449.845 L -14.3508,-450.431 L -14.1664,-450.999 L -13.9124,-451.538
 L -13.5928,-452.042 L -13.2126,-452.502 L -12.7778,-452.91 L -12.2952,-453.261 L -11.7724,-453.548 L -11.2178,-453.768
 L -10.6401,-453.916 L -10.0482,-453.991 L 10.0482,-453.991 L 10.6401,-453.916 L 11.2178,-453.768 L 11.7724,-453.548
 L 12.2952,-453.261 L 12.7778,-452.91 L 13.2126,-452.502 L 13.5928,-452.042 L 13.9124,-451.538 L 14.1664,-450.999
 L 14.3508,-450.431 L 14.4625,-449.845 L 14.5,-449.25 L 14.5,-414.75 L 14.4625,-414.155 L 14.3508,-413.569
 L 14.1664,-413.001 L 13.9124,-412.462 L 13.5928,-411.958 L 13.2126,-411.498 L 12.7778,-411.09 L 12.2952,-410.739
 L 11.7724,-410.452 L 11.2178,-410.232 L 10.6401,-410.084 L 10.0482,-410.009 z
M 10.9369,-355.589 L 11.5451,-355.745 L 12.1289,-355.976 L 12.6791,-356.278 L 13.1871,-356.647 L 13.6448,-357.077
 L 14.0451,-357.561 L 14.3815,-358.091 L 14.6489,-358.659 L 14.8429,-359.257 L 14.9606,-359.873 L 15,-360.5
 L 15,-395.5 L 14.9606,-396.127 L 14.8429,-396.743 L 14.6489,-397.341 L 14.3815,-397.909 L 14.0451,-398.439
 L 13.6448,-398.923 L 13.1871,-399.353 L 12.6791,-399.722 L 12.1289,-400.024 L 11.5451,-400.255 L 10.9369,-400.411
 L 10.3139,-400.49 L -10.3139,-400.49 L -10.9369,-400.411 L -11.5451,-400.255 L -12.1289,-400.024 L -12.6791,-399.722
 L -13.1871,-399.353 L -13.6448,-398.923 L -14.0451,-398.439 L -14.3815,-397.909 L -14.6489,-397.341 L -14.8429,-396.743
 L -14.9606,-396.127 L -15,-395.5 L -15,-360.5 L -14.9606,-359.873 L -14.8429,-359.257 L -14.6489,-358.659
 L -14.3815,-358.091 L -14.0451,-357.561 L -13.6448,-357.077 L -13.1871,-356.647 L -12.6791,-356.278 L -12.1289,-355.976
 L -11.5451,-355.745 L -10.9369,-355.589 L -10.3139,-355.51 L 10.3139,-355.51 z
M -10.0482,-356.009 L -10.6401,-356.084 L -11.2178,-356.232 L -11.7724,-356.452 L -12.2952,-356.739 L -12.7778,-357.09
 L -13.2126,-357.498 L -13.5928,-357.958 L -13.9124,-358.462 L -14.1664,-359.001 L -14.3508,-359.569 L -14.4625,-360.155
 L -14.5,-360.75 L -14.5,-395.25 L -14.4625,-395.845 L -14.3508,-396.431 L -14.1664,-396.999 L -13.9124,-397.538
 L -13.5928,-398.042 L -13.2126,-398.502 L -12.7778,-398.91 L -12.2952,-399.261 L -11.7724,-399.548 L -11.2178,-399.768
 L -10.6401,-399.916 L -10.0482,-399.991 L 10.0482,-399.991 L 10.6401,-399.916 L 11.2178,-399.768 L 11.7724,-399.548
 L 12.2952,-399.261 L 12.7778,-398.91 L 13.2126,-398.502 L 13.5928,-398.042 L 13.9124,-397.538 L 14.1664,-396.999
 L 14.3508,-396.431 L 14.4625,-395.845 L 14.5,-395.25 L 14.5,-360.75 L 14.4625,-360.155 L 14.3508,-359.569
 L 14.1664,-359.001 L 13.9124,-358.462 L 13.5928,-357.958 L 13.2126,-357.498 L 12.7778,-357.09 L 12.2952,-356.739
 L 11.7724,-356.452 L 11.2178,-356.232 L 10.6401,-356.084 L 10.0482,-356.009 z
M 10.9369,-301.589 L 11.5451,-301.745 L 12.1289,-301.976 L 12.6791,-302.278 L 13.1871,-302.647 L 13.6448,-303.077
 L 14.0451,-303.561 L 14.3815,-304.091 L 14.6489,-304.659 L 14.8429,-305.257 L 14.9606,-305.873 L 15,-306.5
 L 15,-341.5 L 14.9606,-342.127 L 14.8429,-342.743 L 14.6489,-343.341 L 14.3815,-343.909 L 14.0451,-344.439
 L 13.6448,-344.923 L 13.1871,-345.353 L 12.6791,-345.722 L 12.1289,-346.024 L 11.5451,-346.255 L 10.9369,-346.411
 L 10.3139,-346.49 L -10.3139,-346.49 L -10.9369,-346.411 L -11.5451,-346.255 L -12.1289,-346.024 L -12.6791,-345.722
 L -13.1871,-345.353 L -13.6448,-344.923 L -14.0451,-344.439 L -14.3815,-343.909 L -14.6489,-343.341 L -14.8429,-342.743
 L -14.9606,-342.127 L -15,-341.5 L -15,-306.5 L -14.9606,-305.873 L -14.8429,-305.257 L -14.6489,-304.659
 L -14.3815,-304.091 L -14.0451,-303.561 L -13.6448,-303.077 L -13.1871,-302.647 L -12.6791,-302.278 L -12.1289,-301.976
 L -11.5451,-301.745 L -10.9369,-301.589 L -10.3139,-301.51 L 10.3139,-301.51 z
M -10.0482,-302.009 L -10.6401,-302.084 L -11.2178,-302.232 L -11.7724,-302.452 L -12.2952,-302.739 L -12.7778,-303.09
 L -13.2126,-303.498 L -13.5928,-303.958 L -13.9124,-304.462 L -14.1664,-305.001 L -14.3508,-305.569 L -14.4625,-306.155
 L -14.5,-306.75 L -14.5,-341.25 L -14.4625,-341.845 L -14.3508,-342.431 L -14.1664,-342.999 L -13.9124,-343.538
 L -13.5928,-344.042 L -13.2126,-344.502 L -12.7778,-344.91 L -12.2952,-345.261 L -11.7724,-345.548 L -11.2178,-345.768
 L -10.6401,-345.916 L -10.0482,-345.991 L 10.0482,-345.991 L 10.6401,-345.916 L 11.2178,-345.768 L 11.7724,-345.548
 L 12.2952,-345.261 L 12.7778,-344.91 L 13.2126,-344.502 L 13.5928,-344.042 L 13.9124,-343.538 L 14.1664,-342.999
 L 14.3508,-342.431 L 14.4625,-341.845 L 14.5,-341.25 L 14.5,-306.75 L 14.4625,-306.155 L 14.3508,-305.569
 L 14.1664,-305.001 L 13.9124,-304.462 L 13.5928,-303.958 L 13.2126,-303.498 L 12.7778,-303.09 L 12.2952,-302.739
 L 11.7724,-302.452 L 11.2178,-302.232 L 10.6401,-302.084 L 10.0482,-302.009 z
M 10.9369,-247.589 L 11.5451,-247.745 L 12.1289,-247.976 L 12.6791,-248.278 L 13.1871,-248.647 L 13.6448,-249.077
 L 14.0451,-249.561 L 14.3815,-250.091 L 14.6489,-250.659 L 14.8429,-251.257 L 14.9606,-251.873 L 15,-252.5
 L 15,-287.5 L 14.9606,-288.127 L 14.8429,-288.743 L 14.6489,-289.341 L 14.3815,-289.909 L 14.0451,-290.439
 L 13.6448,-290.923 L 13.1871,-291.353 L 12.6791,-291.722 L 12.1289,-292.024 L 11.5451,-292.255 L 10.9369,-292.411
 L 10.3139,-292.49 L -10.3139,-292.49 L -10.9369,-292.411 L -11.5451,-292.255 L -12.1289,-292.024 L -12.6791,-291.722
 L -13.1871,-291.353 L -13.6448,-290.923 L -14.0451,-290.439 L -14.3815,-289.909 L -14.6489,-289.341 L -14.8429,-288.743
 L -14.9606,-288.127 L -15,-287.5 L -15,-252.5 L -14.9606,-251.873 L -14.8429,-251.257 L -14.6489,-250.659
 L -14.3815,-250.091 L -14.0451,-249.561 L -13.6448,-249.077 L -13.1871,-248.647 L -12.6791,-248.278 L -12.1289,-247.976
 L -11.5451,-247.745 L -10.9369,-247.589 L -10.3139,-247.51 L 10.3139,-247.51 z
M -9.99297,-248.888 L -10.4751,-248.949 L -10.9457,-249.07 L -11.3975,-249.249 L -11.8234,-249.483 L -12.2165,-249.769
 L -12.5707,-250.101 L -12.8805,-250.476 L -13.1408,-250.886 L -13.3477,-251.326 L -13.4979,-251.788 L -13.589,-252.265
 L -13.6195,-252.75 L -13.6195,-287.25 L -13.589,-287.735 L -13.4979,-288.212 L -13.3477,-288.674 L -13.1408,-289.114
 L -12.8805,-289.524 L -12.5707,-289.899 L -12.2165,-290.231 L -11.8234,-290.517 L -11.3975,-290.751 L -10.9457,-290.93
 L -10.4751,-291.051 L -9.99297,-291.112 L 9.99297,-291.112 L 10.4751,-291.051 L 10.9457,-290.93 L 11.3975,-290.751
 L 11.8234,-290.517 L 12.2165,-290.231 L 12.5707,-289.899 L 12.8805,-289.524 L 13.1408,-289.114 L 13.3477,-288.674
 L 13.4979,-288.212 L 13.589,-287.735 L 13.6195,-287.25 L 13.6195,-252.75 L 13.589,-252.265 L 13.4979,-251.788
 L 13.3477,-251.326 L 13.1408,-250.886 L 12.8805,-250.476 L 12.5707,-250.101 L 12.2165,-249.769 L 11.8234,-249.483
 L 11.3975,-249.249 L 10.9457,-249.07 L 10.4751,-248.949 L 9.99297,-248.888 z
M 10.9369,-193.589 L 11.5451,-193.745 L 12.1289,-193.976 L 12.6791,-194.278 L 13.1871,-194.647 L 13.6448,-195.077
 L 14.0451,-195.561 L 14.3815,-196.091 L 14.6489,-196.659 L 14.8429,-197.257 L 14.9606,-197.873 L 15,-198.5
 L 15,-233.5 L 14.9606,-234.127 L 14.8429,-234.743 L 14.6489,-235.341 L 14.3815,-235.909 L 14.0451,-236.439
 L 13.6448,-236.923 L 13.1871,-237.353 L 12.6791,-237.722 L 12.1289,-238.024 L 11.5451,-238.255 L 10.9369,-238.411
 L 10.3139,-238.49 L -10.3139,-238.49 L -10.9369,-238.411 L -11.5451,-238.255 L -12.1289,-238.024 L -12.6791,-237.722
 L -13.1871,-237.353 L -13.6448,-236.923 L -14.0451,-236.439 L -14.3815,-235.909 L -14.6489,-235.341 L -14.8429,-234.743
 L -14.9606,-234.127 L -15,-233.5 L -15,-198.5 L -14.9606,-197.873 L -14.8429,-197.257 L -14.6489,-196.659
 L -14.3815,-196.091 L -14.0451,-195.561 L -13.6448,-195.077 L -13.1871,-194.647 L -12.6791,-194.278 L -12.1289,-193.976
 L -11.5451,-193.745 L -10.9369,-193.589 L -10.3139,-193.51 L 10.3139,-193.51 z
M -7.59418,-229.503 L -7.78107,-229.527 L -7.96352,-229.573 L -8.13866,-229.643 L -8.30373,-229.734 L -8.45613,-229.844
 L -8.59344,-229.973 L -8.71352,-230.118 L -8.81445,-230.277 L -8.89465,-230.448 L -8.95287,-230.627 L -8.98816,-230.812
 L -9,-231 L -8.98816,-231.188 L -8.95287,-231.373 L -8.89465,-231.552 L -8.81445,-231.723 L -8.71352,-231.882
 L -8.59344,-232.027 L -8.45613,-232.156 L -8.30373,-232.266 L -8.13866,-232.357 L -7.96352,-232.427 L -7.78107,-232.473
 L -7.59418,-232.497 L -7.40581,-232.497 L -7.21892,-232.473 L -7.03647,-232.427 L -6.86133,-232.357 L -6.69626,-232.266
 L -6.54385,-232.156 L -6.40654,-232.027 L -6.28647,-231.882 L -6.18553,-231.723 L -6.10533,-231.552 L -6.04712,-231.373
 L -6.01183,-231.188 L -6,-231 L -6.01183,-230.812 L -6.04712,-230.627 L -6.10533,-230.448 L -6.18553,-230.277
 L -6.28647,-230.118 L -6.40654,-229.973 L -6.54385,-229.844 L -6.69626,-229.734 L -6.86133,-229.643 L -7.03647,-229.573
 L -7.21892,-229.527 L -7.40581,-229.503 z
M 7.40581,-229.503 L 7.21892,-229.527 L 7.03647,-229.573 L 6.86133,-229.643 L 6.69626,-229.734 L 6.54385,-229.844
 L 6.40654,-229.973 L 6.28647,-230.118 L 6.18553,-230.277 L 6.10533,-230.448 L 6.04712,-230.627 L 6.01183,-230.812
 L 6,-231 L 6.01183,-231.188 L 6.04712,-231.373 L 6.10533,-231.552 L 6.18553,-231.723 L 6.28647,-231.882
 L 6.40654,-232.027 L 6.54385,-232.156 L 6.69626,-232.266 L 6.86133,-232.357 L 7.03647,-232.427 L 7.21892,-232.473
 L 7.40581,-232.497 L 7.59418,-232.497 L 7.78107,-232.473 L 7.96352,-232.427 L 8.13866,-232.357 L 8.30373,-232.266
 L 8.45613,-232.156 L 8.59344,-232.027 L 8.71352,-231.882 L 8.81445,-231.723 L 8.89465,-231.552 L 8.95287,-231.373
 L 8.98816,-231.188 L 9,-231 L 8.98816,-230.812 L 8.95287,-230.627 L 8.89465,-230.448 L 8.81445,-230.277
 L 8.71352,-230.118 L 8.59344,-229.973 L 8.45613,-229.844 L 8.30373,-229.734 L 8.13866,-229.643 L 7.96352,-229.573
 L 7.78107,-229.527 L 7.59418,-229.503 z
M -7.59418,-199.503 L -7.78107,-199.527 L -7.96352,-199.573 L -8.13866,-199.643 L -8.30373,-199.734 L -8.45613,-199.844
 L -8.59344,-199.973 L -8.71352,-200.118 L -8.81445,-200.277 L -8.89465,-200.448 L -8.95287,-200.627 L -8.98816,-200.812
 L -9,-201 L -8.98816,-201.188 L -8.95287,-201.373 L -8.89465,-201.552 L -8.81445,-201.723 L -8.71352,-201.882
 L -8.59344,-202.027 L -8.45613,-202.156 L -8.30373,-202.266 L -8.13866,-202.357 L -7.96352,-202.427 L -7.78107,-202.473
 L -7.59418,-202.497 L -7.40581,-202.497 L -7.21892,-202.473 L -7.03647,-202.427 L -6.86133,-202.357 L -6.69626,-202.266
 L -6.54385,-202.156 L -6.40654,-202.027 L -6.28647,-201.882 L -6.18553,-201.723 L -6.10533,-201.552 L -6.04712,-201.373
 L -6.01183,-201.188 L -6,-201 L -6.01183,-200.812 L -6.04712,-200.627 L -6.10533,-200.448 L -6.18553,-200.277
 L -6.28647,-200.118 L -6.40654,-199.973 L -6.54385,-199.844 L -6.69626,-199.734 L -6.86133,-199.643 L -7.03647,-199.573
 L -7.21892,-199.527 L -7.40581,-199.503 z
M 7.40581,-199.503 L 7.21892,-199.527 L 7.03647,-199.573 L 6.86133,-199.643 L 6.69626,-199.734 L 6.54385,-199.844
 L 6.40654,-199.973 L 6.28647,-200.118 L 6.18553,-200.277 L 6.10533,-200.448 L 6.04712,-200.627 L 6.01183,-200.812
 L 6,-201 L 6.01183,-201.188 L 6.04712,-201.373 L 6.10533,-201.552 L 6.18553,-201.723 L 6.28647,-201.882
 L 6.40654,-202.027 L 6.54385,-202.156 L 6.69626,-202.266 L 6.86133,-202.357 L 7.03647,-202.427 L 7.21892,-202.473
 L 7.40581,-202.497 L 7.59418,-202.497 L 7.78107,-202.473 L 7.96352,-202.427 L 8.13866,-202.357 L 8.30373,-202.266
 L 8.45613,-202.156 L 8.59344,-202.027 L 8.71352,-201.882 L 8.81445,-201.723 L 8.89465,-201.552 L 8.95287,-201.373
 L 8.98816,-201.188 L 9,-201 L 8.98816,-200.812 L 8.95287,-200.627 L 8.89465,-200.448 L 8.81445,-200.277
 L 8.71352,-200.118 L 8.59344,-199.973 L 8.45613,-199.844 L 8.30373,-199.734 L 8.13866,-199.643 L 7.96352,-199.573
 L 7.78107,-199.527 L 7.59418,-199.503 z
" stroke="black" fill="lightgray" stroke-width="0.5"/>
</svg>
