solid OpenSCAD_Model
  facet normal -0.997969 -0.0637002 0
    outer loop
      vertex -169.5 -15 0
      vertex -169.524 -14.624 3
      vertex -169.524 -14.624 0
    endloop
  endfacet
  facet normal -0.997969 -0.0637002 0
    outer loop
      vertex -169.524 -14.624 3
      vertex -169.5 -15 0
      vertex -169.5 -15 3
    endloop
  endfacet
  facet normal 0.997969 -0.0637002 0
    outer loop
      vertex -175.5 -15 3
      vertex -175.476 -14.624 0
      vertex -175.476 -14.624 3
    endloop
  endfacet
