solid OpenSCAD_Model
  facet normal 0.998026 0.0627961 0
    outer loop
      vertex 5 0 1.5
      vertex 4.96057 0.626666 -1.5
      vertex 4.96057 0.626666 1.5
    endloop
  endfacet
  facet normal 0.998026 0.0627961 0
    outer loop
      vertex 4.96057 0.626666 -1.5
      vertex 5 0 1.5
      vertex 5 0 -1.5
    endloop
  endfacet
  facet normal -0.998026 0.0627961 0
    outer loop
      vertex -5 0 -1.5
      vertex -4.96057 0.626666 1.5
      vertex -4.96057 0.626666 -1.5
    endloop
  endfacet
  facet normal -0.998026 0.0627961 0
    outer loop
      vertex -4.96057 0.626666 1.5
      vertex -5 0 -1.5
      vertex -5 0 1.5
    endloop
  endfacet
  facet normal 0 1 -0
    outer loop
      vertex 0.313952 4.99013 -1.5
      vertex -0.313952 4.99013 1.5
      vertex 0.313952 4.99013 1.5
    endloop
  endfacet
  facet normal 0 1 0
    outer loop
      vertex -0.313952 4.99013 1.5
      vertex 0.313952 4.99013 -1.5
      vertex -0.313952 4.99013 -1.5
    endloop
  endfacet
  facet normal 0 -1 0
    outer loop
      vertex -0.313952 -4.99013 -1.5
      vertex 0.313952 -4.99013 1.5
      vertex -0.313952 -4.99013 1.5
    endloop
  endfacet
  facet normal 0 -1 -0
    outer loop
      vertex 0.313952 -4.99013 1.5
      vertex -0.313952 -4.99013 -1.5
      vertex 0.313952 -4.99013 -1.5
    endloop
  endfacet
  facet normal 0.684549 -0.728967 0
    outer loop
      vertex 3.18712 -3.85257 -1.5
      vertex 3.64484 -3.42274 1.5
      vertex 3.18712 -3.85257 1.5
    endloop
  endfacet
  facet normal 0.684549 -0.728967 0
    outer loop
      vertex 3.64484 -3.42274 1.5
      vertex 3.18712 -3.85257 -1.5
      vertex 3.64484 -3.42274 -1.5
    endloop
  endfacet
  facet normal 0.684549 0.728967 -0
    outer loop
      vertex 3.64484 3.42274 -1.5
      vertex 3.18712 3.85257 1.5
      vertex 3.64484 3.42274 1.5
    endloop
  endfacet
  facet normal 0.684549 0.728967 0
    outer loop
      vertex 3.18712 3.85257 1.5
      vertex 3.64484 3.42274 -1.5
      vertex 3.18712 3.85257 -1.5
    endloop
  endfacet
  facet normal -0.684549 0.728967 0
    outer loop
      vertex -3.18712 3.85257 -1.5
      vertex -3.64484 3.42274 1.5
      vertex -3.18712 3.85257 1.5
    endloop
  endfacet
  facet normal -0.684549 0.728967 0
    outer loop
      vertex -3.64484 3.42274 1.5
      vertex -3.18712 3.85257 -1.5
      vertex -3.64484 3.42274 -1.5
    endloop
  endfacet
  facet normal -0.368124 0.929777 0
    outer loop
      vertex -1.54508 4.75528 -1.5
      vertex -2.1289 4.52413 1.5
      vertex -1.54508 4.75528 1.5
    endloop
  endfacet
  facet normal -0.368124 0.929777 0
    outer loop
      vertex -2.1289 4.52413 1.5
      vertex -1.54508 4.75528 -1.5
      vertex -2.1289 4.52413 -1.5
    endloop
  endfacet
  facet normal 0.904828 0.425778 0
    outer loop
      vertex 4.64888 1.84062 1.5
      vertex 4.38153 2.40877 -1.5
      vertex 4.38153 2.40877 1.5
    endloop
  endfacet
  facet normal 0.904828 0.425778 0
    outer loop
      vertex 4.38153 2.40877 -1.5
      vertex 4.64888 1.84062 1.5
      vertex 4.64888 1.84062 -1.5
    endloop
  endfacet
  facet normal 0.98229 0.187369 0
    outer loop
      vertex 4.96057 0.626666 1.5
      vertex 4.84292 1.24345 -1.5
      vertex 4.84292 1.24345 1.5
    endloop
  endfacet
  facet normal 0.98229 0.187369 0
    outer loop
      vertex 4.84292 1.24345 -1.5
      vertex 4.96057 0.626666 1.5
      vertex 4.96057 0.626666 -1.5
    endloop
  endfacet
  facet normal 0.368124 0.929777 -0
    outer loop
      vertex 2.1289 4.52413 -1.5
      vertex 1.54508 4.75528 1.5
      vertex 2.1289 4.52413 1.5
    endloop
  endfacet
  facet normal 0.368124 0.929777 0
    outer loop
      vertex 1.54508 4.75528 1.5
      vertex 2.1289 4.52413 -1.5
      vertex 1.54508 4.75528 -1.5
    endloop
  endfacet
  facet normal 0.248701 0.96858 -0
    outer loop
      vertex 1.54508 4.75528 -1.5
      vertex 0.936906 4.91144 1.5
      vertex 1.54508 4.75528 1.5
    endloop
  endfacet
  facet normal 0.248701 0.96858 0
    outer loop
      vertex 0.936906 4.91144 1.5
      vertex 1.54508 4.75528 -1.5
      vertex 0.936906 4.91144 -1.5
    endloop
  endfacet
  facet normal 0.481752 0.876308 -0
    outer loop
      vertex 2.67913 4.22164 -1.5
      vertex 2.1289 4.52413 1.5
      vertex 2.67913 4.22164 1.5
    endloop
  endfacet
  facet normal 0.481752 0.876308 0
    outer loop
      vertex 2.1289 4.52413 1.5
      vertex 2.67913 4.22164 -1.5
      vertex 2.1289 4.52413 -1.5
    endloop
  endfacet
  facet normal -0.844328 0.535827 0
    outer loop
      vertex -4.38153 2.40877 -1.5
      vertex -4.04508 2.93893 1.5
      vertex -4.04508 2.93893 -1.5
    endloop
  endfacet
  facet normal -0.844328 0.535827 0
    outer loop
      vertex -4.04508 2.93893 1.5
      vertex -4.38153 2.40877 -1.5
      vertex -4.38153 2.40877 1.5
    endloop
  endfacet
  facet normal -0.770515 0.637422 0
    outer loop
      vertex -4.04508 2.93893 -1.5
      vertex -3.64484 3.42274 1.5
      vertex -3.64484 3.42274 -1.5
    endloop
  endfacet
  facet normal -0.770515 0.637422 0
    outer loop
      vertex -3.64484 3.42274 1.5
      vertex -4.04508 2.93893 -1.5
      vertex -4.04508 2.93893 1.5
    endloop
  endfacet
  facet normal -0.951053 0.309028 0
    outer loop
      vertex -4.84292 1.24345 -1.5
      vertex -4.64888 1.84062 1.5
      vertex -4.64888 1.84062 -1.5
    endloop
  endfacet
  facet normal -0.951053 0.309028 0
    outer loop
      vertex -4.64888 1.84062 1.5
      vertex -4.84292 1.24345 -1.5
      vertex -4.84292 1.24345 1.5
    endloop
  endfacet
  facet normal -0.587779 0.809022 0
    outer loop
      vertex -2.67913 4.22164 -1.5
      vertex -3.18712 3.85257 1.5
      vertex -2.67913 4.22164 1.5
    endloop
  endfacet
  facet normal -0.587779 0.809022 0
    outer loop
      vertex -3.18712 3.85257 1.5
      vertex -2.67913 4.22164 -1.5
      vertex -3.18712 3.85257 -1.5
    endloop
  endfacet
  facet normal -0.248701 0.96858 0
    outer loop
      vertex -0.936906 4.91144 -1.5
      vertex -1.54508 4.75528 1.5
      vertex -0.936906 4.91144 1.5
    endloop
  endfacet
  facet normal -0.248701 0.96858 0
    outer loop
      vertex -1.54508 4.75528 1.5
      vertex -0.936906 4.91144 -1.5
      vertex -1.54508 4.75528 -1.5
    endloop
  endfacet
  facet normal 0.125322 -0.992116 0
    outer loop
      vertex 0.313952 -4.99013 -1.5
      vertex 0.936906 -4.91144 1.5
      vertex 0.313952 -4.99013 1.5
    endloop
  endfacet
  facet normal 0.125322 -0.992116 0
    outer loop
      vertex 0.936906 -4.91144 1.5
      vertex 0.313952 -4.99013 -1.5
      vertex 0.936906 -4.91144 -1.5
    endloop
  endfacet
  facet normal 0.951053 0.309028 0
    outer loop
      vertex 4.84292 1.24345 1.5
      vertex 4.64888 1.84062 -1.5
      vertex 4.64888 1.84062 1.5
    endloop
  endfacet
  facet normal 0.951053 0.309028 0
    outer loop
      vertex 4.64888 1.84062 -1.5
      vertex 4.84292 1.24345 1.5
      vertex 4.84292 1.24345 -1.5
    endloop
  endfacet
  facet normal 0.770515 0.637422 0
    outer loop
      vertex 4.04508 2.93893 1.5
      vertex 3.64484 3.42274 -1.5
      vertex 3.64484 3.42274 1.5
    endloop
  endfacet
  facet normal 0.770515 0.637422 0
    outer loop
      vertex 3.64484 3.42274 -1.5
      vertex 4.04508 2.93893 1.5
      vertex 4.04508 2.93893 -1.5
    endloop
  endfacet
  facet normal 0.844328 0.535827 0
    outer loop
      vertex 4.38153 2.40877 1.5
      vertex 4.04508 2.93893 -1.5
      vertex 4.04508 2.93893 1.5
    endloop
  endfacet
  facet normal 0.844328 0.535827 0
    outer loop
      vertex 4.04508 2.93893 -1.5
      vertex 4.38153 2.40877 1.5
      vertex 4.38153 2.40877 -1.5
    endloop
  endfacet
  facet normal 0.125322 0.992116 -0
    outer loop
      vertex 0.936906 4.91144 -1.5
      vertex 0.313952 4.99013 1.5
      vertex 0.936906 4.91144 1.5
    endloop
  endfacet
  facet normal 0.125322 0.992116 0
    outer loop
      vertex 0.313952 4.99013 1.5
      vertex 0.936906 4.91144 -1.5
      vertex 0.313952 4.99013 -1.5
    endloop
  endfacet
  facet normal 0.587779 0.809022 -0
    outer loop
      vertex 3.18712 3.85257 -1.5
      vertex 2.67913 4.22164 1.5
      vertex 3.18712 3.85257 1.5
    endloop
  endfacet
  facet normal 0.587779 0.809022 0
    outer loop
      vertex 2.67913 4.22164 1.5
      vertex 3.18712 3.85257 -1.5
      vertex 2.67913 4.22164 -1.5
    endloop
  endfacet
  facet normal -0.904828 0.425778 0
    outer loop
      vertex -4.64888 1.84062 -1.5
      vertex -4.38153 2.40877 1.5
      vertex -4.38153 2.40877 -1.5
    endloop
  endfacet
  facet normal -0.904828 0.425778 0
    outer loop
      vertex -4.38153 2.40877 1.5
      vertex -4.64888 1.84062 -1.5
      vertex -4.64888 1.84062 1.5
    endloop
  endfacet
  facet normal -0.98229 0.187369 0
    outer loop
      vertex -4.96057 0.626666 -1.5
      vertex -4.84292 1.24345 1.5
      vertex -4.84292 1.24345 -1.5
    endloop
  endfacet
  facet normal -0.98229 0.187369 0
    outer loop
      vertex -4.84292 1.24345 1.5
      vertex -4.96057 0.626666 -1.5
      vertex -4.96057 0.626666 1.5
    endloop
  endfacet
  facet normal 0 0 1
    outer loop
      vertex 2.4 0 1.5
      vertex 5 0 1.5
      vertex 4.96057 0.626666 1.5
    endloop
  endfacet
  facet normal 0 0 1
    outer loop
      vertex 2.38107 0.300799 1.5
      vertex 4.96057 0.626666 1.5
      vertex 4.84292 1.24345 1.5
    endloop
  endfacet
  facet normal 0 0 1
    outer loop
      vertex 5 0 1.5
      vertex 2.4 0 1.5
      vertex 4.96057 -0.626666 1.5
    endloop
  endfacet
  facet normal 0 0 1
    outer loop
      vertex 2.3246 0.596855 1.5
      vertex 4.84292 1.24345 1.5
      vertex 4.64888 1.84062 1.5
    endloop
  endfacet
  facet normal -0 0 1
    outer loop
      vertex 2.38107 -0.300799 1.5
      vertex 4.96057 -0.626666 1.5
      vertex 2.4 0 1.5
    endloop
  endfacet
  facet normal 0 0 1
    outer loop
      vertex 2.23146 0.883498 1.5
      vertex 4.64888 1.84062 1.5
      vertex 4.38153 2.40877 1.5
    endloop
  endfacet
  facet normal 0 0 1
    outer loop
      vertex 4.96057 -0.626666 1.5
      vertex 2.38107 -0.300799 1.5
      vertex 4.84292 -1.24345 1.5
    endloop
  endfacet
  facet normal 0 0 1
    outer loop
      vertex 2.10314 1.15621 1.5
      vertex 4.38153 2.40877 1.5
      vertex 4.04508 2.93893 1.5
    endloop
  endfacet
  facet normal -0 0 1
    outer loop
      vertex 2.3246 -0.596855 1.5
      vertex 4.84292 -1.24345 1.5
      vertex 2.38107 -0.300799 1.5
    endloop
  endfacet
  facet normal 0 0 1
    outer loop
      vertex 1.94164 1.41068 1.5
      vertex 4.04508 2.93893 1.5
      vertex 3.64484 3.42274 1.5
    endloop
  endfacet
  facet normal 0 0 1
    outer loop
      vertex 4.84292 -1.24345 1.5
      vertex 2.3246 -0.596855 1.5
      vertex 4.64888 -1.84062 1.5
    endloop
  endfacet
  facet normal 0 0 1
    outer loop
      vertex 1.74952 1.64291 1.5
      vertex 3.64484 3.42274 1.5
      vertex 3.18712 3.85257 1.5
    endloop
  endfacet
  facet normal -0 0 1
    outer loop
      vertex 2.23146 -0.883498 1.5
      vertex 4.64888 -1.84062 1.5
      vertex 2.3246 -0.596855 1.5
    endloop
  endfacet
  facet normal 0 0 1
    outer loop
      vertex 1.52982 1.84923 1.5
      vertex 3.18712 3.85257 1.5
      vertex 2.67913 4.22164 1.5
    endloop
  endfacet
  facet normal 0 0 1
    outer loop
      vertex 4.64888 -1.84062 1.5
      vertex 2.23146 -0.883498 1.5
      vertex 4.38153 -2.40877 1.5
    endloop
  endfacet
  facet normal -0 0 1
    outer loop
      vertex 2.10314 -1.15621 1.5
      vertex 4.38153 -2.40877 1.5
      vertex 2.23146 -0.883498 1.5
    endloop
  endfacet
  facet normal 0 0 1
    outer loop
      vertex 4.96057 0.626666 1.5
      vertex 2.38107 0.300799 1.5
      vertex 2.4 0 1.5
    endloop
  endfacet
  facet normal 0 0 1
    outer loop
      vertex 4.84292 1.24345 1.5
      vertex 2.3246 0.596855 1.5
      vertex 2.38107 0.300799 1.5
    endloop
  endfacet
  facet normal 0 0 1
    outer loop
      vertex 4.64888 1.84062 1.5
      vertex 2.23146 0.883498 1.5
      vertex 2.3246 0.596855 1.5
    endloop
  endfacet
  facet normal 0 0 1
    outer loop
      vertex 1.28598 2.02639 1.5
      vertex 2.67913 4.22164 1.5
      vertex 2.1289 4.52413 1.5
    endloop
  endfacet
  facet normal 0 0 1
    outer loop
      vertex 4.38153 2.40877 1.5
      vertex 2.10314 1.15621 1.5
      vertex 2.23146 0.883498 1.5
    endloop
  endfacet
  facet normal 0 0 1
    outer loop
      vertex 4.04508 2.93893 1.5
      vertex 1.94164 1.41068 1.5
      vertex 2.10314 1.15621 1.5
    endloop
  endfacet
  facet normal 0 0 1
    outer loop
      vertex 3.64484 3.42274 1.5
      vertex 1.74952 1.64291 1.5
      vertex 1.94164 1.41068 1.5
    endloop
  endfacet
  facet normal 0 0 1
    outer loop
      vertex 1.02187 2.17158 1.5
      vertex 2.1289 4.52413 1.5
      vertex 1.54508 4.75528 1.5
    endloop
  endfacet
  facet normal 0 0 1
    outer loop
      vertex 3.18712 3.85257 1.5
      vertex 1.52982 1.84923 1.5
      vertex 1.74952 1.64291 1.5
    endloop
  endfacet
  facet normal 0 0 1
    outer loop
      vertex 2.67913 4.22164 1.5
      vertex 1.28598 2.02639 1.5
      vertex 1.52982 1.84923 1.5
    endloop
  endfacet
  facet normal 0 0 1
    outer loop
      vertex 2.1289 4.52413 1.5
      vertex 1.02187 2.17158 1.5
      vertex 1.28598 2.02639 1.5
    endloop
  endfacet
  facet normal 0 0 1
    outer loop
      vertex 0.74164 2.28254 1.5
      vertex 1.54508 4.75528 1.5
      vertex 0.936906 4.91144 1.5
    endloop
  endfacet
  facet normal 0 0 1
    outer loop
      vertex 1.54508 4.75528 1.5
      vertex 0.74164 2.28254 1.5
      vertex 1.02187 2.17158 1.5
    endloop
  endfacet
  facet normal 0 0 1
    outer loop
      vertex 0.936906 4.91144 1.5
      vertex 0.449715 2.35749 1.5
      vertex 0.74164 2.28254 1.5
    endloop
  endfacet
  facet normal 0 0 1
    outer loop
      vertex 0.313952 4.99013 1.5
      vertex 0.449715 2.35749 1.5
      vertex 0.936906 4.91144 1.5
    endloop
  endfacet
  facet normal 0 0 1
    outer loop
      vertex 0.313952 4.99013 1.5
      vertex 0.150697 2.39526 1.5
      vertex 0.449715 2.35749 1.5
    endloop
  endfacet
  facet normal 0 0 1
    outer loop
      vertex 0.313952 4.99013 1.5
      vertex -0.150697 2.39526 1.5
      vertex 0.150697 2.39526 1.5
    endloop
  endfacet
  facet normal -0 0 1
    outer loop
      vertex -0.313952 4.99013 1.5
      vertex -0.150697 2.39526 1.5
      vertex 0.313952 4.99013 1.5
    endloop
  endfacet
  facet normal 0 0 1
    outer loop
      vertex -0.313952 4.99013 1.5
      vertex -0.449715 2.35749 1.5
      vertex -0.150697 2.39526 1.5
    endloop
  endfacet
  facet normal -0 0 1
    outer loop
      vertex -0.936906 4.91144 1.5
      vertex -0.449715 2.35749 1.5
      vertex -0.313952 4.99013 1.5
    endloop
  endfacet
  facet normal 0 0 1
    outer loop
      vertex -0.449715 2.35749 1.5
      vertex -0.936906 4.91144 1.5
      vertex -0.74164 2.28254 1.5
    endloop
  endfacet
  facet normal -0 0 1
    outer loop
      vertex -1.54508 4.75528 1.5
      vertex -0.74164 2.28254 1.5
      vertex -0.936906 4.91144 1.5
    endloop
  endfacet
  facet normal 0 0 1
    outer loop
      vertex -0.74164 2.28254 1.5
      vertex -1.54508 4.75528 1.5
      vertex -1.02187 2.17158 1.5
    endloop
  endfacet
  facet normal -0 0 1
    outer loop
      vertex -2.1289 4.52413 1.5
      vertex -1.02187 2.17158 1.5
      vertex -1.54508 4.75528 1.5
    endloop
  endfacet
  facet normal 0 0 1
    outer loop
      vertex -1.02187 2.17158 1.5
      vertex -2.1289 4.52413 1.5
      vertex -1.28598 2.02639 1.5
    endloop
  endfacet
  facet normal -0 0 1
    outer loop
      vertex -2.67913 4.22164 1.5
      vertex -1.28598 2.02639 1.5
      vertex -2.1289 4.52413 1.5
    endloop
  endfacet
  facet normal 0 0 1
    outer loop
      vertex -1.28598 2.02639 1.5
      vertex -2.67913 4.22164 1.5
      vertex -1.52982 1.84923 1.5
    endloop
  endfacet
  facet normal -0 0 1
    outer loop
      vertex -3.18712 3.85257 1.5
      vertex -1.52982 1.84923 1.5
      vertex -2.67913 4.22164 1.5
    endloop
  endfacet
  facet normal 0 0 1
    outer loop
      vertex -1.52982 1.84923 1.5
      vertex -3.18712 3.85257 1.5
      vertex -1.74952 1.64291 1.5
    endloop
  endfacet
  facet normal -0 0 1
    outer loop
      vertex -3.64484 3.42274 1.5
      vertex -1.74952 1.64291 1.5
      vertex -3.18712 3.85257 1.5
    endloop
  endfacet
  facet normal 0 0 1
    outer loop
      vertex -1.74952 1.64291 1.5
      vertex -3.64484 3.42274 1.5
      vertex -1.94164 1.41068 1.5
    endloop
  endfacet
  facet normal -0 0 1
    outer loop
      vertex -4.04508 2.93893 1.5
      vertex -1.94164 1.41068 1.5
      vertex -3.64484 3.42274 1.5
    endloop
  endfacet
  facet normal 0 0 1
    outer loop
      vertex -1.94164 1.41068 1.5
      vertex -4.04508 2.93893 1.5
      vertex -2.10314 1.15621 1.5
    endloop
  endfacet
  facet normal -0 0 1
    outer loop
      vertex -4.38153 2.40877 1.5
      vertex -2.10314 1.15621 1.5
      vertex -4.04508 2.93893 1.5
    endloop
  endfacet
  facet normal 0 0 1
    outer loop
      vertex 4.38153 -2.40877 1.5
      vertex 2.10314 -1.15621 1.5
      vertex 4.04508 -2.93893 1.5
    endloop
  endfacet
  facet normal -0 0 1
    outer loop
      vertex 1.94164 -1.41068 1.5
      vertex 4.04508 -2.93893 1.5
      vertex 2.10314 -1.15621 1.5
    endloop
  endfacet
  facet normal 0 0 1
    outer loop
      vertex 4.04508 -2.93893 1.5
      vertex 1.94164 -1.41068 1.5
      vertex 3.64484 -3.42274 1.5
    endloop
  endfacet
  facet normal -0 0 1
    outer loop
      vertex 1.74952 -1.64291 1.5
      vertex 3.64484 -3.42274 1.5
      vertex 1.94164 -1.41068 1.5
    endloop
  endfacet
  facet normal 0 0 1
    outer loop
      vertex 3.64484 -3.42274 1.5
      vertex 1.74952 -1.64291 1.5
      vertex 3.18712 -3.85257 1.5
    endloop
  endfacet
  facet normal -0 0 1
    outer loop
      vertex 1.52982 -1.84923 1.5
      vertex 3.18712 -3.85257 1.5
      vertex 1.74952 -1.64291 1.5
    endloop
  endfacet
  facet normal 0 0 1
    outer loop
      vertex 3.18712 -3.85257 1.5
      vertex 1.52982 -1.84923 1.5
      vertex 2.67913 -4.22164 1.5
    endloop
  endfacet
  facet normal -0 0 1
    outer loop
      vertex 1.28598 -2.02639 1.5
      vertex 2.67913 -4.22164 1.5
      vertex 1.52982 -1.84923 1.5
    endloop
  endfacet
  facet normal 0 0 1
    outer loop
      vertex 2.67913 -4.22164 1.5
      vertex 1.28598 -2.02639 1.5
      vertex 2.1289 -4.52413 1.5
    endloop
  endfacet
  facet normal -0 0 1
    outer loop
      vertex 1.02187 -2.17158 1.5
      vertex 2.1289 -4.52413 1.5
      vertex 1.28598 -2.02639 1.5
    endloop
  endfacet
  facet normal 0 0 1
    outer loop
      vertex 2.1289 -4.52413 1.5
      vertex 1.02187 -2.17158 1.5
      vertex 1.54508 -4.75528 1.5
    endloop
  endfacet
  facet normal -0 0 1
    outer loop
      vertex 0.74164 -2.28254 1.5
      vertex 1.54508 -4.75528 1.5
      vertex 1.02187 -2.17158 1.5
    endloop
  endfacet
  facet normal 0 0 1
    outer loop
      vertex 1.54508 -4.75528 1.5
      vertex 0.74164 -2.28254 1.5
      vertex 0.936906 -4.91144 1.5
    endloop
  endfacet
  facet normal -0 0 1
    outer loop
      vertex 0.449715 -2.35749 1.5
      vertex 0.936906 -4.91144 1.5
      vertex 0.74164 -2.28254 1.5
    endloop
  endfacet
  facet normal 0 0 1
    outer loop
      vertex 0.449715 -2.35749 1.5
      vertex 0.313952 -4.99013 1.5
      vertex 0.936906 -4.91144 1.5
    endloop
  endfacet
  facet normal -0 0 1
    outer loop
      vertex 0.150697 -2.39526 1.5
      vertex 0.313952 -4.99013 1.5
      vertex 0.449715 -2.35749 1.5
    endloop
  endfacet
  facet normal -0 0 1
    outer loop
      vertex -0.150697 -2.39526 1.5
      vertex 0.313952 -4.99013 1.5
      vertex 0.150697 -2.39526 1.5
    endloop
  endfacet
  facet normal 0 0 1
    outer loop
      vertex -0.150697 -2.39526 1.5
      vertex -0.313952 -4.99013 1.5
      vertex 0.313952 -4.99013 1.5
    endloop
  endfacet
  facet normal 0 0 1
    outer loop
      vertex -0.449715 -2.35749 1.5
      vertex -0.313952 -4.99013 1.5
      vertex -0.150697 -2.39526 1.5
    endloop
  endfacet
  facet normal 0 0 1
    outer loop
      vertex -0.936906 -4.91144 1.5
      vertex -0.449715 -2.35749 1.5
      vertex -0.74164 -2.28254 1.5
    endloop
  endfacet
  facet normal 0 0 1
    outer loop
      vertex -0.449715 -2.35749 1.5
      vertex -0.936906 -4.91144 1.5
      vertex -0.313952 -4.99013 1.5
    endloop
  endfacet
  facet normal 0 0 1
    outer loop
      vertex -1.54508 -4.75528 1.5
      vertex -0.74164 -2.28254 1.5
      vertex -1.02187 -2.17158 1.5
    endloop
  endfacet
  facet normal 0 0 1
    outer loop
      vertex -2.1289 -4.52413 1.5
      vertex -1.02187 -2.17158 1.5
      vertex -1.28598 -2.02639 1.5
    endloop
  endfacet
  facet normal 0 0 1
    outer loop
      vertex -2.67913 -4.22164 1.5
      vertex -1.28598 -2.02639 1.5
      vertex -1.52982 -1.84923 1.5
    endloop
  endfacet
  facet normal 0 0 1
    outer loop
      vertex -0.74164 -2.28254 1.5
      vertex -1.54508 -4.75528 1.5
      vertex -0.936906 -4.91144 1.5
    endloop
  endfacet
  facet normal 0 0 1
    outer loop
      vertex -3.18712 -3.85257 1.5
      vertex -1.52982 -1.84923 1.5
      vertex -1.74952 -1.64291 1.5
    endloop
  endfacet
  facet normal 0 0 1
    outer loop
      vertex -3.64484 -3.42274 1.5
      vertex -1.74952 -1.64291 1.5
      vertex -1.94164 -1.41068 1.5
    endloop
  endfacet
  facet normal 0 0 1
    outer loop
      vertex -4.04508 -2.93893 1.5
      vertex -1.94164 -1.41068 1.5
      vertex -2.10314 -1.15621 1.5
    endloop
  endfacet
  facet normal 0 0 1
    outer loop
      vertex -1.02187 -2.17158 1.5
      vertex -2.1289 -4.52413 1.5
      vertex -1.54508 -4.75528 1.5
    endloop
  endfacet
  facet normal 0 0 1
    outer loop
      vertex -4.38153 -2.40877 1.5
      vertex -2.10314 -1.15621 1.5
      vertex -2.23146 -0.883498 1.5
    endloop
  endfacet
  facet normal 0 0 1
    outer loop
      vertex -4.64888 -1.84062 1.5
      vertex -2.23146 -0.883498 1.5
      vertex -2.3246 -0.596855 1.5
    endloop
  endfacet
  facet normal 0 0 1
    outer loop
      vertex -4.84292 -1.24345 1.5
      vertex -2.3246 -0.596855 1.5
      vertex -2.38107 -0.300799 1.5
    endloop
  endfacet
  facet normal 0 0 1
    outer loop
      vertex -4.96057 -0.626666 1.5
      vertex -2.38107 -0.300799 1.5
      vertex -2.4 0 1.5
    endloop
  endfacet
  facet normal 0 0 1
    outer loop
      vertex -2.10314 1.15621 1.5
      vertex -4.38153 2.40877 1.5
      vertex -2.23146 0.883498 1.5
    endloop
  endfacet
  facet normal 0 0 1
    outer loop
      vertex -1.28598 -2.02639 1.5
      vertex -2.67913 -4.22164 1.5
      vertex -2.1289 -4.52413 1.5
    endloop
  endfacet
  facet normal -0 0 1
    outer loop
      vertex -4.64888 1.84062 1.5
      vertex -2.23146 0.883498 1.5
      vertex -4.38153 2.40877 1.5
    endloop
  endfacet
  facet normal 0 0 1
    outer loop
      vertex -1.52982 -1.84923 1.5
      vertex -3.18712 -3.85257 1.5
      vertex -2.67913 -4.22164 1.5
    endloop
  endfacet
  facet normal 0 0 1
    outer loop
      vertex -2.23146 0.883498 1.5
      vertex -4.64888 1.84062 1.5
      vertex -2.3246 0.596855 1.5
    endloop
  endfacet
  facet normal 0 0 1
    outer loop
      vertex -1.74952 -1.64291 1.5
      vertex -3.64484 -3.42274 1.5
      vertex -3.18712 -3.85257 1.5
    endloop
  endfacet
  facet normal -0 0 1
    outer loop
      vertex -4.84292 1.24345 1.5
      vertex -2.3246 0.596855 1.5
      vertex -4.64888 1.84062 1.5
    endloop
  endfacet
  facet normal 0 0 1
    outer loop
      vertex -1.94164 -1.41068 1.5
      vertex -4.04508 -2.93893 1.5
      vertex -3.64484 -3.42274 1.5
    endloop
  endfacet
  facet normal 0 0 1
    outer loop
      vertex -2.3246 0.596855 1.5
      vertex -4.84292 1.24345 1.5
      vertex -2.38107 0.300799 1.5
    endloop
  endfacet
  facet normal 0 0 1
    outer loop
      vertex -2.10314 -1.15621 1.5
      vertex -4.38153 -2.40877 1.5
      vertex -4.04508 -2.93893 1.5
    endloop
  endfacet
  facet normal -0 0 1
    outer loop
      vertex -4.96057 0.626666 1.5
      vertex -2.38107 0.300799 1.5
      vertex -4.84292 1.24345 1.5
    endloop
  endfacet
  facet normal 0 0 1
    outer loop
      vertex -2.23146 -0.883498 1.5
      vertex -4.64888 -1.84062 1.5
      vertex -4.38153 -2.40877 1.5
    endloop
  endfacet
  facet normal 0 0 1
    outer loop
      vertex -2.38107 0.300799 1.5
      vertex -4.96057 0.626666 1.5
      vertex -2.4 0 1.5
    endloop
  endfacet
  facet normal 0 0 1
    outer loop
      vertex -2.3246 -0.596855 1.5
      vertex -4.84292 -1.24345 1.5
      vertex -4.64888 -1.84062 1.5
    endloop
  endfacet
  facet normal 0 0 1
    outer loop
      vertex -5 0 1.5
      vertex -2.4 0 1.5
      vertex -4.96057 0.626666 1.5
    endloop
  endfacet
  facet normal 0 0 1
    outer loop
      vertex -2.38107 -0.300799 1.5
      vertex -4.96057 -0.626666 1.5
      vertex -4.84292 -1.24345 1.5
    endloop
  endfacet
  facet normal 0 0 1
    outer loop
      vertex -2.4 0 1.5
      vertex -5 0 1.5
      vertex -4.96057 -0.626666 1.5
    endloop
  endfacet
  facet normal -0.125322 0.992116 0
    outer loop
      vertex -0.313952 4.99013 -1.5
      vertex -0.936906 4.91144 1.5
      vertex -0.313952 4.99013 1.5
    endloop
  endfacet
  facet normal -0.125322 0.992116 0
    outer loop
      vertex -0.936906 4.91144 1.5
      vertex -0.313952 4.99013 -1.5
      vertex -0.936906 4.91144 -1.5
    endloop
  endfacet
  facet normal 0.998026 -0.0627961 0
    outer loop
      vertex 4.96057 -0.626666 1.5
      vertex 5 0 -1.5
      vertex 5 0 1.5
    endloop
  endfacet
  facet normal 0.998026 -0.0627961 0
    outer loop
      vertex 5 0 -1.5
      vertex 4.96057 -0.626666 1.5
      vertex 4.96057 -0.626666 -1.5
    endloop
  endfacet
  facet normal 0.98229 -0.187369 0
    outer loop
      vertex 4.84292 -1.24345 1.5
      vertex 4.96057 -0.626666 -1.5
      vertex 4.96057 -0.626666 1.5
    endloop
  endfacet
  facet normal 0.98229 -0.187369 0
    outer loop
      vertex 4.96057 -0.626666 -1.5
      vertex 4.84292 -1.24345 1.5
      vertex 4.84292 -1.24345 -1.5
    endloop
  endfacet
  facet normal -0.368124 -0.929777 0
    outer loop
      vertex -2.1289 -4.52413 -1.5
      vertex -1.54508 -4.75528 1.5
      vertex -2.1289 -4.52413 1.5
    endloop
  endfacet
  facet normal -0.368124 -0.929777 -0
    outer loop
      vertex -1.54508 -4.75528 1.5
      vertex -2.1289 -4.52413 -1.5
      vertex -1.54508 -4.75528 -1.5
    endloop
  endfacet
  facet normal 0 0 -1
    outer loop
      vertex 2.4 0 -1.5
      vertex 5 0 -1.5
      vertex 4.96057 -0.626666 -1.5
    endloop
  endfacet
  facet normal 0 0 -1
    outer loop
      vertex 2.38107 -0.300799 -1.5
      vertex 4.96057 -0.626666 -1.5
      vertex 4.84292 -1.24345 -1.5
    endloop
  endfacet
  facet normal 0 0 -1
    outer loop
      vertex 5 0 -1.5
      vertex 2.4 0 -1.5
      vertex 4.96057 0.626666 -1.5
    endloop
  endfacet
  facet normal 0 0 -1
    outer loop
      vertex 2.3246 -0.596855 -1.5
      vertex 4.84292 -1.24345 -1.5
      vertex 4.64888 -1.84062 -1.5
    endloop
  endfacet
  facet normal 0 0 -1
    outer loop
      vertex 2.38107 0.300799 -1.5
      vertex 4.96057 0.626666 -1.5
      vertex 2.4 0 -1.5
    endloop
  endfacet
  facet normal 0 0 -1
    outer loop
      vertex 2.23146 -0.883498 -1.5
      vertex 4.64888 -1.84062 -1.5
      vertex 4.38153 -2.40877 -1.5
    endloop
  endfacet
  facet normal -0 0 -1
    outer loop
      vertex 4.96057 0.626666 -1.5
      vertex 2.38107 0.300799 -1.5
      vertex 4.84292 1.24345 -1.5
    endloop
  endfacet
  facet normal 0 0 -1
    outer loop
      vertex 2.10314 -1.15621 -1.5
      vertex 4.38153 -2.40877 -1.5
      vertex 4.04508 -2.93893 -1.5
    endloop
  endfacet
  facet normal 0 0 -1
    outer loop
      vertex 2.3246 0.596855 -1.5
      vertex 4.84292 1.24345 -1.5
      vertex 2.38107 0.300799 -1.5
    endloop
  endfacet
  facet normal 0 0 -1
    outer loop
      vertex 1.94164 -1.41068 -1.5
      vertex 4.04508 -2.93893 -1.5
      vertex 3.64484 -3.42274 -1.5
    endloop
  endfacet
  facet normal -0 0 -1
    outer loop
      vertex 4.84292 1.24345 -1.5
      vertex 2.3246 0.596855 -1.5
      vertex 4.64888 1.84062 -1.5
    endloop
  endfacet
  facet normal 0 0 -1
    outer loop
      vertex 1.74952 -1.64291 -1.5
      vertex 3.64484 -3.42274 -1.5
      vertex 3.18712 -3.85257 -1.5
    endloop
  endfacet
  facet normal 0 0 -1
    outer loop
      vertex 2.23146 0.883498 -1.5
      vertex 4.64888 1.84062 -1.5
      vertex 2.3246 0.596855 -1.5
    endloop
  endfacet
  facet normal 0 0 -1
    outer loop
      vertex 1.52982 -1.84923 -1.5
      vertex 3.18712 -3.85257 -1.5
      vertex 2.67913 -4.22164 -1.5
    endloop
  endfacet
  facet normal -0 0 -1
    outer loop
      vertex 4.64888 1.84062 -1.5
      vertex 2.23146 0.883498 -1.5
      vertex 4.38153 2.40877 -1.5
    endloop
  endfacet
  facet normal 0 0 -1
    outer loop
      vertex 2.10314 1.15621 -1.5
      vertex 4.38153 2.40877 -1.5
      vertex 2.23146 0.883498 -1.5
    endloop
  endfacet
  facet normal 0 0 -1
    outer loop
      vertex 4.96057 -0.626666 -1.5
      vertex 2.38107 -0.300799 -1.5
      vertex 2.4 0 -1.5
    endloop
  endfacet
  facet normal 0 0 -1
    outer loop
      vertex 4.84292 -1.24345 -1.5
      vertex 2.3246 -0.596855 -1.5
      vertex 2.38107 -0.300799 -1.5
    endloop
  endfacet
  facet normal 0 0 -1
    outer loop
      vertex 4.64888 -1.84062 -1.5
      vertex 2.23146 -0.883498 -1.5
      vertex 2.3246 -0.596855 -1.5
    endloop
  endfacet
  facet normal 0 0 -1
    outer loop
      vertex 1.28598 -2.02639 -1.5
      vertex 2.67913 -4.22164 -1.5
      vertex 2.1289 -4.52413 -1.5
    endloop
  endfacet
  facet normal 0 0 -1
    outer loop
      vertex 4.38153 -2.40877 -1.5
      vertex 2.10314 -1.15621 -1.5
      vertex 2.23146 -0.883498 -1.5
    endloop
  endfacet
  facet normal 0 0 -1
    outer loop
      vertex 4.04508 -2.93893 -1.5
      vertex 1.94164 -1.41068 -1.5
      vertex 2.10314 -1.15621 -1.5
    endloop
  endfacet
  facet normal 0 0 -1
    outer loop
      vertex 3.64484 -3.42274 -1.5
      vertex 1.74952 -1.64291 -1.5
      vertex 1.94164 -1.41068 -1.5
    endloop
  endfacet
  facet normal 0 0 -1
    outer loop
      vertex 1.02187 -2.17158 -1.5
      vertex 2.1289 -4.52413 -1.5
      vertex 1.54508 -4.75528 -1.5
    endloop
  endfacet
  facet normal 0 0 -1
    outer loop
      vertex 3.18712 -3.85257 -1.5
      vertex 1.52982 -1.84923 -1.5
      vertex 1.74952 -1.64291 -1.5
    endloop
  endfacet
  facet normal 0 0 -1
    outer loop
      vertex 2.67913 -4.22164 -1.5
      vertex 1.28598 -2.02639 -1.5
      vertex 1.52982 -1.84923 -1.5
    endloop
  endfacet
  facet normal 0 0 -1
    outer loop
      vertex 2.1289 -4.52413 -1.5
      vertex 1.02187 -2.17158 -1.5
      vertex 1.28598 -2.02639 -1.5
    endloop
  endfacet
  facet normal 0 0 -1
    outer loop
      vertex 0.74164 -2.28254 -1.5
      vertex 1.54508 -4.75528 -1.5
      vertex 0.936906 -4.91144 -1.5
    endloop
  endfacet
  facet normal 0 0 -1
    outer loop
      vertex 1.54508 -4.75528 -1.5
      vertex 0.74164 -2.28254 -1.5
      vertex 1.02187 -2.17158 -1.5
    endloop
  endfacet
  facet normal 0 0 -1
    outer loop
      vertex 0.936906 -4.91144 -1.5
      vertex 0.449715 -2.35749 -1.5
      vertex 0.74164 -2.28254 -1.5
    endloop
  endfacet
  facet normal 0 0 -1
    outer loop
      vertex 0.313952 -4.99013 -1.5
      vertex 0.449715 -2.35749 -1.5
      vertex 0.936906 -4.91144 -1.5
    endloop
  endfacet
  facet normal 0 0 -1
    outer loop
      vertex 0.313952 -4.99013 -1.5
      vertex 0.150697 -2.39526 -1.5
      vertex 0.449715 -2.35749 -1.5
    endloop
  endfacet
  facet normal 0 0 -1
    outer loop
      vertex 0.313952 -4.99013 -1.5
      vertex -0.150697 -2.39526 -1.5
      vertex 0.150697 -2.39526 -1.5
    endloop
  endfacet
  facet normal 0 0 -1
    outer loop
      vertex -0.313952 -4.99013 -1.5
      vertex -0.150697 -2.39526 -1.5
      vertex 0.313952 -4.99013 -1.5
    endloop
  endfacet
  facet normal 0 0 -1
    outer loop
      vertex -0.313952 -4.99013 -1.5
      vertex -0.449715 -2.35749 -1.5
      vertex -0.150697 -2.39526 -1.5
    endloop
  endfacet
  facet normal 0 0 -1
    outer loop
      vertex -0.936906 -4.91144 -1.5
      vertex -0.449715 -2.35749 -1.5
      vertex -0.313952 -4.99013 -1.5
    endloop
  endfacet
  facet normal -0 0 -1
    outer loop
      vertex -0.449715 -2.35749 -1.5
      vertex -0.936906 -4.91144 -1.5
      vertex -0.74164 -2.28254 -1.5
    endloop
  endfacet
  facet normal 0 0 -1
    outer loop
      vertex -1.54508 -4.75528 -1.5
      vertex -0.74164 -2.28254 -1.5
      vertex -0.936906 -4.91144 -1.5
    endloop
  endfacet
  facet normal -0 0 -1
    outer loop
      vertex -0.74164 -2.28254 -1.5
      vertex -1.54508 -4.75528 -1.5
      vertex -1.02187 -2.17158 -1.5
    endloop
  endfacet
  facet normal 0 0 -1
    outer loop
      vertex -2.1289 -4.52413 -1.5
      vertex -1.02187 -2.17158 -1.5
      vertex -1.54508 -4.75528 -1.5
    endloop
  endfacet
  facet normal -0 0 -1
    outer loop
      vertex -1.02187 -2.17158 -1.5
      vertex -2.1289 -4.52413 -1.5
      vertex -1.28598 -2.02639 -1.5
    endloop
  endfacet
  facet normal 0 0 -1
    outer loop
      vertex -2.67913 -4.22164 -1.5
      vertex -1.28598 -2.02639 -1.5
      vertex -2.1289 -4.52413 -1.5
    endloop
  endfacet
  facet normal -0 0 -1
    outer loop
      vertex -1.28598 -2.02639 -1.5
      vertex -2.67913 -4.22164 -1.5
      vertex -1.52982 -1.84923 -1.5
    endloop
  endfacet
  facet normal 0 0 -1
    outer loop
      vertex -3.18712 -3.85257 -1.5
      vertex -1.52982 -1.84923 -1.5
      vertex -2.67913 -4.22164 -1.5
    endloop
  endfacet
  facet normal -0 0 -1
    outer loop
      vertex -1.52982 -1.84923 -1.5
      vertex -3.18712 -3.85257 -1.5
      vertex -1.74952 -1.64291 -1.5
    endloop
  endfacet
  facet normal 0 0 -1
    outer loop
      vertex -3.64484 -3.42274 -1.5
      vertex -1.74952 -1.64291 -1.5
      vertex -3.18712 -3.85257 -1.5
    endloop
  endfacet
  facet normal -0 0 -1
    outer loop
      vertex -1.74952 -1.64291 -1.5
      vertex -3.64484 -3.42274 -1.5
      vertex -1.94164 -1.41068 -1.5
    endloop
  endfacet
  facet normal 0 0 -1
    outer loop
      vertex -4.04508 -2.93893 -1.5
      vertex -1.94164 -1.41068 -1.5
      vertex -3.64484 -3.42274 -1.5
    endloop
  endfacet
  facet normal -0 0 -1
    outer loop
      vertex -1.94164 -1.41068 -1.5
      vertex -4.04508 -2.93893 -1.5
      vertex -2.10314 -1.15621 -1.5
    endloop
  endfacet
  facet normal 0 0 -1
    outer loop
      vertex -4.38153 -2.40877 -1.5
      vertex -2.10314 -1.15621 -1.5
      vertex -4.04508 -2.93893 -1.5
    endloop
  endfacet
  facet normal -0 0 -1
    outer loop
      vertex 4.38153 2.40877 -1.5
      vertex 2.10314 1.15621 -1.5
      vertex 4.04508 2.93893 -1.5
    endloop
  endfacet
  facet normal 0 0 -1
    outer loop
      vertex 1.94164 1.41068 -1.5
      vertex 4.04508 2.93893 -1.5
      vertex 2.10314 1.15621 -1.5
    endloop
  endfacet
  facet normal -0 0 -1
    outer loop
      vertex 4.04508 2.93893 -1.5
      vertex 1.94164 1.41068 -1.5
      vertex 3.64484 3.42274 -1.5
    endloop
  endfacet
  facet normal 0 0 -1
    outer loop
      vertex 1.74952 1.64291 -1.5
      vertex 3.64484 3.42274 -1.5
      vertex 1.94164 1.41068 -1.5
    endloop
  endfacet
  facet normal -0 0 -1
    outer loop
      vertex 3.64484 3.42274 -1.5
      vertex 1.74952 1.64291 -1.5
      vertex 3.18712 3.85257 -1.5
    endloop
  endfacet
  facet normal 0 0 -1
    outer loop
      vertex 1.52982 1.84923 -1.5
      vertex 3.18712 3.85257 -1.5
      vertex 1.74952 1.64291 -1.5
    endloop
  endfacet
  facet normal -0 0 -1
    outer loop
      vertex 3.18712 3.85257 -1.5
      vertex 1.52982 1.84923 -1.5
      vertex 2.67913 4.22164 -1.5
    endloop
  endfacet
  facet normal 0 0 -1
    outer loop
      vertex 1.28598 2.02639 -1.5
      vertex 2.67913 4.22164 -1.5
      vertex 1.52982 1.84923 -1.5
    endloop
  endfacet
  facet normal -0 0 -1
    outer loop
      vertex 2.67913 4.22164 -1.5
      vertex 1.28598 2.02639 -1.5
      vertex 2.1289 4.52413 -1.5
    endloop
  endfacet
  facet normal 0 0 -1
    outer loop
      vertex 1.02187 2.17158 -1.5
      vertex 2.1289 4.52413 -1.5
      vertex 1.28598 2.02639 -1.5
    endloop
  endfacet
  facet normal -0 0 -1
    outer loop
      vertex 2.1289 4.52413 -1.5
      vertex 1.02187 2.17158 -1.5
      vertex 1.54508 4.75528 -1.5
    endloop
  endfacet
  facet normal 0 0 -1
    outer loop
      vertex 0.74164 2.28254 -1.5
      vertex 1.54508 4.75528 -1.5
      vertex 1.02187 2.17158 -1.5
    endloop
  endfacet
  facet normal -0 0 -1
    outer loop
      vertex 1.54508 4.75528 -1.5
      vertex 0.74164 2.28254 -1.5
      vertex 0.936906 4.91144 -1.5
    endloop
  endfacet
  facet normal 0 0 -1
    outer loop
      vertex 0.449715 2.35749 -1.5
      vertex 0.936906 4.91144 -1.5
      vertex 0.74164 2.28254 -1.5
    endloop
  endfacet
  facet normal 0 0 -1
    outer loop
      vertex 0.449715 2.35749 -1.5
      vertex 0.313952 4.99013 -1.5
      vertex 0.936906 4.91144 -1.5
    endloop
  endfacet
  facet normal 0 0 -1
    outer loop
      vertex 0.150697 2.39526 -1.5
      vertex 0.313952 4.99013 -1.5
      vertex 0.449715 2.35749 -1.5
    endloop
  endfacet
  facet normal 0 0 -1
    outer loop
      vertex -0.150697 2.39526 -1.5
      vertex 0.313952 4.99013 -1.5
      vertex 0.150697 2.39526 -1.5
    endloop
  endfacet
  facet normal 0 0 -1
    outer loop
      vertex -0.150697 2.39526 -1.5
      vertex -0.313952 4.99013 -1.5
      vertex 0.313952 4.99013 -1.5
    endloop
  endfacet
  facet normal 0 0 -1
    outer loop
      vertex -0.449715 2.35749 -1.5
      vertex -0.313952 4.99013 -1.5
      vertex -0.150697 2.39526 -1.5
    endloop
  endfacet
  facet normal 0 0 -1
    outer loop
      vertex -0.936906 4.91144 -1.5
      vertex -0.449715 2.35749 -1.5
      vertex -0.74164 2.28254 -1.5
    endloop
  endfacet
  facet normal 0 0 -1
    outer loop
      vertex -0.449715 2.35749 -1.5
      vertex -0.936906 4.91144 -1.5
      vertex -0.313952 4.99013 -1.5
    endloop
  endfacet
  facet normal 0 0 -1
    outer loop
      vertex -1.54508 4.75528 -1.5
      vertex -0.74164 2.28254 -1.5
      vertex -1.02187 2.17158 -1.5
    endloop
  endfacet
  facet normal 0 0 -1
    outer loop
      vertex -2.1289 4.52413 -1.5
      vertex -1.02187 2.17158 -1.5
      vertex -1.28598 2.02639 -1.5
    endloop
  endfacet
  facet normal 0 0 -1
    outer loop
      vertex -2.67913 4.22164 -1.5
      vertex -1.28598 2.02639 -1.5
      vertex -1.52982 1.84923 -1.5
    endloop
  endfacet
  facet normal 0 0 -1
    outer loop
      vertex -0.74164 2.28254 -1.5
      vertex -1.54508 4.75528 -1.5
      vertex -0.936906 4.91144 -1.5
    endloop
  endfacet
  facet normal 0 0 -1
    outer loop
      vertex -3.18712 3.85257 -1.5
      vertex -1.52982 1.84923 -1.5
      vertex -1.74952 1.64291 -1.5
    endloop
  endfacet
  facet normal 0 0 -1
    outer loop
      vertex -3.64484 3.42274 -1.5
      vertex -1.74952 1.64291 -1.5
      vertex -1.94164 1.41068 -1.5
    endloop
  endfacet
  facet normal 0 0 -1
    outer loop
      vertex -4.04508 2.93893 -1.5
      vertex -1.94164 1.41068 -1.5
      vertex -2.10314 1.15621 -1.5
    endloop
  endfacet
  facet normal 0 0 -1
    outer loop
      vertex -1.02187 2.17158 -1.5
      vertex -2.1289 4.52413 -1.5
      vertex -1.54508 4.75528 -1.5
    endloop
  endfacet
  facet normal 0 0 -1
    outer loop
      vertex -4.38153 2.40877 -1.5
      vertex -2.10314 1.15621 -1.5
      vertex -2.23146 0.883498 -1.5
    endloop
  endfacet
  facet normal 0 0 -1
    outer loop
      vertex -4.64888 1.84062 -1.5
      vertex -2.23146 0.883498 -1.5
      vertex -2.3246 0.596855 -1.5
    endloop
  endfacet
  facet normal 0 0 -1
    outer loop
      vertex -4.84292 1.24345 -1.5
      vertex -2.3246 0.596855 -1.5
      vertex -2.38107 0.300799 -1.5
    endloop
  endfacet
  facet normal 0 0 -1
    outer loop
      vertex -4.96057 0.626666 -1.5
      vertex -2.38107 0.300799 -1.5
      vertex -2.4 0 -1.5
    endloop
  endfacet
  facet normal -0 0 -1
    outer loop
      vertex -2.10314 -1.15621 -1.5
      vertex -4.38153 -2.40877 -1.5
      vertex -2.23146 -0.883498 -1.5
    endloop
  endfacet
  facet normal 0 0 -1
    outer loop
      vertex -1.28598 2.02639 -1.5
      vertex -2.67913 4.22164 -1.5
      vertex -2.1289 4.52413 -1.5
    endloop
  endfacet
  facet normal 0 0 -1
    outer loop
      vertex -4.64888 -1.84062 -1.5
      vertex -2.23146 -0.883498 -1.5
      vertex -4.38153 -2.40877 -1.5
    endloop
  endfacet
  facet normal 0 0 -1
    outer loop
      vertex -1.52982 1.84923 -1.5
      vertex -3.18712 3.85257 -1.5
      vertex -2.67913 4.22164 -1.5
    endloop
  endfacet
  facet normal -0 0 -1
    outer loop
      vertex -2.23146 -0.883498 -1.5
      vertex -4.64888 -1.84062 -1.5
      vertex -2.3246 -0.596855 -1.5
    endloop
  endfacet
  facet normal 0 0 -1
    outer loop
      vertex -1.74952 1.64291 -1.5
      vertex -3.64484 3.42274 -1.5
      vertex -3.18712 3.85257 -1.5
    endloop
  endfacet
  facet normal 0 0 -1
    outer loop
      vertex -4.84292 -1.24345 -1.5
      vertex -2.3246 -0.596855 -1.5
      vertex -4.64888 -1.84062 -1.5
    endloop
  endfacet
  facet normal 0 0 -1
    outer loop
      vertex -1.94164 1.41068 -1.5
      vertex -4.04508 2.93893 -1.5
      vertex -3.64484 3.42274 -1.5
    endloop
  endfacet
  facet normal -0 0 -1
    outer loop
      vertex -2.3246 -0.596855 -1.5
      vertex -4.84292 -1.24345 -1.5
      vertex -2.38107 -0.300799 -1.5
    endloop
  endfacet
  facet normal 0 0 -1
    outer loop
      vertex -2.10314 1.15621 -1.5
      vertex -4.38153 2.40877 -1.5
      vertex -4.04508 2.93893 -1.5
    endloop
  endfacet
  facet normal 0 0 -1
    outer loop
      vertex -4.96057 -0.626666 -1.5
      vertex -2.38107 -0.300799 -1.5
      vertex -4.84292 -1.24345 -1.5
    endloop
  endfacet
  facet normal 0 0 -1
    outer loop
      vertex -2.23146 0.883498 -1.5
      vertex -4.64888 1.84062 -1.5
      vertex -4.38153 2.40877 -1.5
    endloop
  endfacet
  facet normal -0 0 -1
    outer loop
      vertex -2.38107 -0.300799 -1.5
      vertex -4.96057 -0.626666 -1.5
      vertex -2.4 0 -1.5
    endloop
  endfacet
  facet normal 0 0 -1
    outer loop
      vertex -2.3246 0.596855 -1.5
      vertex -4.84292 1.24345 -1.5
      vertex -4.64888 1.84062 -1.5
    endloop
  endfacet
  facet normal 0 0 -1
    outer loop
      vertex -5 0 -1.5
      vertex -2.4 0 -1.5
      vertex -4.96057 -0.626666 -1.5
    endloop
  endfacet
  facet normal 0 0 -1
    outer loop
      vertex -2.38107 0.300799 -1.5
      vertex -4.96057 0.626666 -1.5
      vertex -4.84292 1.24345 -1.5
    endloop
  endfacet
  facet normal 0 0 -1
    outer loop
      vertex -2.4 0 -1.5
      vertex -5 0 -1.5
      vertex -4.96057 0.626666 -1.5
    endloop
  endfacet
  facet normal 0.587779 -0.809022 0
    outer loop
      vertex 2.67913 -4.22164 -1.5
      vertex 3.18712 -3.85257 1.5
      vertex 2.67913 -4.22164 1.5
    endloop
  endfacet
  facet normal 0.587779 -0.809022 0
    outer loop
      vertex 3.18712 -3.85257 1.5
      vertex 2.67913 -4.22164 -1.5
      vertex 3.18712 -3.85257 -1.5
    endloop
  endfacet
  facet normal 0.368124 -0.929777 0
    outer loop
      vertex 1.54508 -4.75528 -1.5
      vertex 2.1289 -4.52413 1.5
      vertex 1.54508 -4.75528 1.5
    endloop
  endfacet
  facet normal 0.368124 -0.929777 0
    outer loop
      vertex 2.1289 -4.52413 1.5
      vertex 1.54508 -4.75528 -1.5
      vertex 2.1289 -4.52413 -1.5
    endloop
  endfacet
  facet normal -0.481752 0.876308 0
    outer loop
      vertex -2.1289 4.52413 -1.5
      vertex -2.67913 4.22164 1.5
      vertex -2.1289 4.52413 1.5
    endloop
  endfacet
  facet normal -0.481752 0.876308 0
    outer loop
      vertex -2.67913 4.22164 1.5
      vertex -2.1289 4.52413 -1.5
      vertex -2.67913 4.22164 -1.5
    endloop
  endfacet
  facet normal 0.904828 -0.425778 0
    outer loop
      vertex 4.38153 -2.40877 1.5
      vertex 4.64888 -1.84062 -1.5
      vertex 4.64888 -1.84062 1.5
    endloop
  endfacet
  facet normal 0.904828 -0.425778 0
    outer loop
      vertex 4.64888 -1.84062 -1.5
      vertex 4.38153 -2.40877 1.5
      vertex 4.38153 -2.40877 -1.5
    endloop
  endfacet
  facet normal -0.248701 -0.96858 0
    outer loop
      vertex -1.54508 -4.75528 -1.5
      vertex -0.936906 -4.91144 1.5
      vertex -1.54508 -4.75528 1.5
    endloop
  endfacet
  facet normal -0.248701 -0.96858 -0
    outer loop
      vertex -0.936906 -4.91144 1.5
      vertex -1.54508 -4.75528 -1.5
      vertex -0.936906 -4.91144 -1.5
    endloop
  endfacet
  facet normal -0.770515 -0.637422 0
    outer loop
      vertex -3.64484 -3.42274 -1.5
      vertex -4.04508 -2.93893 1.5
      vertex -4.04508 -2.93893 -1.5
    endloop
  endfacet
  facet normal -0.770515 -0.637422 0
    outer loop
      vertex -4.04508 -2.93893 1.5
      vertex -3.64484 -3.42274 -1.5
      vertex -3.64484 -3.42274 1.5
    endloop
  endfacet
  facet normal -0.951053 -0.309028 0
    outer loop
      vertex -4.64888 -1.84062 -1.5
      vertex -4.84292 -1.24345 1.5
      vertex -4.84292 -1.24345 -1.5
    endloop
  endfacet
  facet normal -0.951053 -0.309028 0
    outer loop
      vertex -4.84292 -1.24345 1.5
      vertex -4.64888 -1.84062 -1.5
      vertex -4.64888 -1.84062 1.5
    endloop
  endfacet
  facet normal 0.481752 -0.876308 0
    outer loop
      vertex 2.1289 -4.52413 -1.5
      vertex 2.67913 -4.22164 1.5
      vertex 2.1289 -4.52413 1.5
    endloop
  endfacet
  facet normal 0.481752 -0.876308 0
    outer loop
      vertex 2.67913 -4.22164 1.5
      vertex 2.1289 -4.52413 -1.5
      vertex 2.67913 -4.22164 -1.5
    endloop
  endfacet
  facet normal 0.248701 -0.96858 0
    outer loop
      vertex 0.936906 -4.91144 -1.5
      vertex 1.54508 -4.75528 1.5
      vertex 0.936906 -4.91144 1.5
    endloop
  endfacet
  facet normal 0.248701 -0.96858 0
    outer loop
      vertex 1.54508 -4.75528 1.5
      vertex 0.936906 -4.91144 -1.5
      vertex 1.54508 -4.75528 -1.5
    endloop
  endfacet
  facet normal 0.844328 -0.535827 0
    outer loop
      vertex 4.04508 -2.93893 1.5
      vertex 4.38153 -2.40877 -1.5
      vertex 4.38153 -2.40877 1.5
    endloop
  endfacet
  facet normal 0.844328 -0.535827 0
    outer loop
      vertex 4.38153 -2.40877 -1.5
      vertex 4.04508 -2.93893 1.5
      vertex 4.04508 -2.93893 -1.5
    endloop
  endfacet
  facet normal 0.770515 -0.637422 0
    outer loop
      vertex 3.64484 -3.42274 1.5
      vertex 4.04508 -2.93893 -1.5
      vertex 4.04508 -2.93893 1.5
    endloop
  endfacet
  facet normal 0.770515 -0.637422 0
    outer loop
      vertex 4.04508 -2.93893 -1.5
      vertex 3.64484 -3.42274 1.5
      vertex 3.64484 -3.42274 -1.5
    endloop
  endfacet
  facet normal 0.951053 -0.309028 0
    outer loop
      vertex 4.64888 -1.84062 1.5
      vertex 4.84292 -1.24345 -1.5
      vertex 4.84292 -1.24345 1.5
    endloop
  endfacet
  facet normal 0.951053 -0.309028 0
    outer loop
      vertex 4.84292 -1.24345 -1.5
      vertex 4.64888 -1.84062 1.5
      vertex 4.64888 -1.84062 -1.5
    endloop
  endfacet
  facet normal -0.125322 -0.992116 0
    outer loop
      vertex -0.936906 -4.91144 -1.5
      vertex -0.313952 -4.99013 1.5
      vertex -0.936906 -4.91144 1.5
    endloop
  endfacet
  facet normal -0.125322 -0.992116 -0
    outer loop
      vertex -0.313952 -4.99013 1.5
      vertex -0.936906 -4.91144 -1.5
      vertex -0.313952 -4.99013 -1.5
    endloop
  endfacet
  facet normal -0.684549 -0.728967 0
    outer loop
      vertex -3.64484 -3.42274 -1.5
      vertex -3.18712 -3.85257 1.5
      vertex -3.64484 -3.42274 1.5
    endloop
  endfacet
  facet normal -0.684549 -0.728967 -0
    outer loop
      vertex -3.18712 -3.85257 1.5
      vertex -3.64484 -3.42274 -1.5
      vertex -3.18712 -3.85257 -1.5
    endloop
  endfacet
  facet normal -0.844328 -0.535827 0
    outer loop
      vertex -4.04508 -2.93893 -1.5
      vertex -4.38153 -2.40877 1.5
      vertex -4.38153 -2.40877 -1.5
    endloop
  endfacet
  facet normal -0.844328 -0.535827 0
    outer loop
      vertex -4.38153 -2.40877 1.5
      vertex -4.04508 -2.93893 -1.5
      vertex -4.04508 -2.93893 1.5
    endloop
  endfacet
  facet normal -0.904828 -0.425778 0
    outer loop
      vertex -4.38153 -2.40877 -1.5
      vertex -4.64888 -1.84062 1.5
      vertex -4.64888 -1.84062 -1.5
    endloop
  endfacet
  facet normal -0.904828 -0.425778 0
    outer loop
      vertex -4.64888 -1.84062 1.5
      vertex -4.38153 -2.40877 -1.5
      vertex -4.38153 -2.40877 1.5
    endloop
  endfacet
  facet normal -0.98229 -0.187369 0
    outer loop
      vertex -4.84292 -1.24345 -1.5
      vertex -4.96057 -0.626666 1.5
      vertex -4.96057 -0.626666 -1.5
    endloop
  endfacet
  facet normal -0.98229 -0.187369 0
    outer loop
      vertex -4.96057 -0.626666 1.5
      vertex -4.84292 -1.24345 -1.5
      vertex -4.84292 -1.24345 1.5
    endloop
  endfacet
  facet normal -0.998026 -0.0627961 0
    outer loop
      vertex -4.96057 -0.626666 -1.5
      vertex -5 0 1.5
      vertex -5 0 -1.5
    endloop
  endfacet
  facet normal -0.998026 -0.0627961 0
    outer loop
      vertex -5 0 1.5
      vertex -4.96057 -0.626666 -1.5
      vertex -4.96057 -0.626666 1.5
    endloop
  endfacet
  facet normal -0.481752 -0.876308 0
    outer loop
      vertex -2.67913 -4.22164 -1.5
      vertex -2.1289 -4.52413 1.5
      vertex -2.67913 -4.22164 1.5
    endloop
  endfacet
  facet normal -0.481752 -0.876308 -0
    outer loop
      vertex -2.1289 -4.52413 1.5
      vertex -2.67913 -4.22164 -1.5
      vertex -2.1289 -4.52413 -1.5
    endloop
  endfacet
  facet normal -0.587779 -0.809022 0
    outer loop
      vertex -3.18712 -3.85257 -1.5
      vertex -2.67913 -4.22164 1.5
      vertex -3.18712 -3.85257 1.5
    endloop
  endfacet
  facet normal -0.587779 -0.809022 -0
    outer loop
      vertex -2.67913 -4.22164 1.5
      vertex -3.18712 -3.85257 -1.5
      vertex -2.67913 -4.22164 -1.5
    endloop
  endfacet
  facet normal 0.998026 -0.0628081 0
    outer loop
      vertex -2.4 0 1.5
      vertex -2.38107 0.300799 -1.5
      vertex -2.38107 0.300799 1.5
    endloop
  endfacet
  facet normal 0.998026 -0.0628081 0
    outer loop
      vertex -2.38107 0.300799 -1.5
      vertex -2.4 0 1.5
      vertex -2.4 0 -1.5
    endloop
  endfacet
  facet normal 0.982291 -0.187363 0
    outer loop
      vertex -2.38107 0.300799 1.5
      vertex -2.3246 0.596855 -1.5
      vertex -2.3246 0.596855 1.5
    endloop
  endfacet
  facet normal 0.982291 -0.187363 0
    outer loop
      vertex -2.3246 0.596855 -1.5
      vertex -2.38107 0.300799 1.5
      vertex -2.38107 0.300799 -1.5
    endloop
  endfacet
  facet normal 0.587785 -0.809017 0
    outer loop
      vertex -1.52982 1.84923 -1.5
      vertex -1.28598 2.02639 1.5
      vertex -1.52982 1.84923 1.5
    endloop
  endfacet
  facet normal 0.587785 -0.809017 0
    outer loop
      vertex -1.28598 2.02639 1.5
      vertex -1.52982 1.84923 -1.5
      vertex -1.28598 2.02639 -1.5
    endloop
  endfacet
  facet normal -0.770509 -0.637429 0
    outer loop
      vertex 1.94164 1.41068 -1.5
      vertex 1.74952 1.64291 1.5
      vertex 1.74952 1.64291 -1.5
    endloop
  endfacet
  facet normal -0.770509 -0.637429 0
    outer loop
      vertex 1.74952 1.64291 1.5
      vertex 1.94164 1.41068 -1.5
      vertex 1.94164 1.41068 1.5
    endloop
  endfacet
  facet normal 0.982291 0.187363 0
    outer loop
      vertex -2.3246 -0.596855 1.5
      vertex -2.38107 -0.300799 -1.5
      vertex -2.38107 -0.300799 1.5
    endloop
  endfacet
  facet normal 0.982291 0.187363 0
    outer loop
      vertex -2.38107 -0.300799 -1.5
      vertex -2.3246 -0.596855 1.5
      vertex -2.3246 -0.596855 -1.5
    endloop
  endfacet
  facet normal 0.904838 -0.425756 0
    outer loop
      vertex -2.23146 0.883498 1.5
      vertex -2.10314 1.15621 -1.5
      vertex -2.10314 1.15621 1.5
    endloop
  endfacet
  facet normal 0.904838 -0.425756 0
    outer loop
      vertex -2.10314 1.15621 -1.5
      vertex -2.23146 0.883498 1.5
      vertex -2.23146 0.883498 -1.5
    endloop
  endfacet
  facet normal 0.844315 -0.535847 0
    outer loop
      vertex -2.10314 1.15621 1.5
      vertex -1.94164 1.41068 -1.5
      vertex -1.94164 1.41068 1.5
    endloop
  endfacet
  facet normal 0.844315 -0.535847 0
    outer loop
      vertex -1.94164 1.41068 -1.5
      vertex -2.10314 1.15621 1.5
      vertex -2.10314 1.15621 -1.5
    endloop
  endfacet
  facet normal 0.248679 -0.968586 0
    outer loop
      vertex -0.74164 2.28254 -1.5
      vertex -0.449715 2.35749 1.5
      vertex -0.74164 2.28254 1.5
    endloop
  endfacet
  facet normal 0.248679 -0.968586 0
    outer loop
      vertex -0.449715 2.35749 1.5
      vertex -0.74164 2.28254 -1.5
      vertex -0.449715 2.35749 -1.5
    endloop
  endfacet
  facet normal 0 -1 0
    outer loop
      vertex -0.150697 2.39526 -1.5
      vertex 0.150697 2.39526 1.5
      vertex -0.150697 2.39526 1.5
    endloop
  endfacet
  facet normal 0 -1 -0
    outer loop
      vertex 0.150697 2.39526 1.5
      vertex -0.150697 2.39526 -1.5
      vertex 0.150697 2.39526 -1.5
    endloop
  endfacet
  facet normal -0.951053 -0.309029 0
    outer loop
      vertex 2.3246 0.596855 -1.5
      vertex 2.23146 0.883498 1.5
      vertex 2.23146 0.883498 -1.5
    endloop
  endfacet
  facet normal -0.951053 -0.309029 0
    outer loop
      vertex 2.23146 0.883498 1.5
      vertex 2.3246 0.596855 -1.5
      vertex 2.3246 0.596855 1.5
    endloop
  endfacet
  facet normal -0.998026 -0.0628081 0
    outer loop
      vertex 2.4 0 -1.5
      vertex 2.38107 0.300799 1.5
      vertex 2.38107 0.300799 -1.5
    endloop
  endfacet
  facet normal -0.998026 -0.0628081 0
    outer loop
      vertex 2.38107 0.300799 1.5
      vertex 2.4 0 -1.5
      vertex 2.4 0 1.5
    endloop
  endfacet
  facet normal -0.481739 -0.876315 0
    outer loop
      vertex 1.02187 2.17158 -1.5
      vertex 1.28598 2.02639 1.5
      vertex 1.02187 2.17158 1.5
    endloop
  endfacet
  facet normal -0.481739 -0.876315 -0
    outer loop
      vertex 1.28598 2.02639 1.5
      vertex 1.02187 2.17158 -1.5
      vertex 1.28598 2.02639 -1.5
    endloop
  endfacet
  facet normal -0.368151 -0.929766 0
    outer loop
      vertex 0.74164 2.28254 -1.5
      vertex 1.02187 2.17158 1.5
      vertex 0.74164 2.28254 1.5
    endloop
  endfacet
  facet normal -0.368151 -0.929766 -0
    outer loop
      vertex 1.02187 2.17158 1.5
      vertex 0.74164 2.28254 -1.5
      vertex 1.02187 2.17158 -1.5
    endloop
  endfacet
  facet normal -0.125318 -0.992117 0
    outer loop
      vertex 0.150697 2.39526 -1.5
      vertex 0.449715 2.35749 1.5
      vertex 0.150697 2.39526 1.5
    endloop
  endfacet
  facet normal -0.125318 -0.992117 -0
    outer loop
      vertex 0.449715 2.35749 1.5
      vertex 0.150697 2.39526 -1.5
      vertex 0.449715 2.35749 -1.5
    endloop
  endfacet
  facet normal 0.998026 0.0628081 0
    outer loop
      vertex -2.38107 -0.300799 1.5
      vertex -2.4 0 -1.5
      vertex -2.4 0 1.5
    endloop
  endfacet
  facet normal 0.998026 0.0628081 0
    outer loop
      vertex -2.4 0 -1.5
      vertex -2.38107 -0.300799 1.5
      vertex -2.38107 -0.300799 -1.5
    endloop
  endfacet
  facet normal 0.481739 0.876315 -0
    outer loop
      vertex -1.02187 -2.17158 -1.5
      vertex -1.28598 -2.02639 1.5
      vertex -1.02187 -2.17158 1.5
    endloop
  endfacet
  facet normal 0.481739 0.876315 0
    outer loop
      vertex -1.28598 -2.02639 1.5
      vertex -1.02187 -2.17158 -1.5
      vertex -1.28598 -2.02639 -1.5
    endloop
  endfacet
  facet normal -0.770509 0.637429 0
    outer loop
      vertex 1.74952 -1.64291 -1.5
      vertex 1.94164 -1.41068 1.5
      vertex 1.94164 -1.41068 -1.5
    endloop
  endfacet
  facet normal -0.770509 0.637429 0
    outer loop
      vertex 1.94164 -1.41068 1.5
      vertex 1.74952 -1.64291 -1.5
      vertex 1.74952 -1.64291 1.5
    endloop
  endfacet
  facet normal -0.998026 0.0628081 0
    outer loop
      vertex 2.38107 -0.300799 -1.5
      vertex 2.4 0 1.5
      vertex 2.4 0 -1.5
    endloop
  endfacet
  facet normal -0.998026 0.0628081 0
    outer loop
      vertex 2.4 0 1.5
      vertex 2.38107 -0.300799 -1.5
      vertex 2.38107 -0.300799 1.5
    endloop
  endfacet
  facet normal 0 1 -0
    outer loop
      vertex 0.150697 -2.39526 -1.5
      vertex -0.150697 -2.39526 1.5
      vertex 0.150697 -2.39526 1.5
    endloop
  endfacet
  facet normal 0 1 0
    outer loop
      vertex -0.150697 -2.39526 1.5
      vertex 0.150697 -2.39526 -1.5
      vertex -0.150697 -2.39526 -1.5
    endloop
  endfacet
  facet normal 0.951053 -0.309029 0
    outer loop
      vertex -2.3246 0.596855 1.5
      vertex -2.23146 0.883498 -1.5
      vertex -2.23146 0.883498 1.5
    endloop
  endfacet
  facet normal 0.951053 -0.309029 0
    outer loop
      vertex -2.23146 0.883498 -1.5
      vertex -2.3246 0.596855 1.5
      vertex -2.3246 0.596855 -1.5
    endloop
  endfacet
  facet normal 0.770509 -0.637429 0
    outer loop
      vertex -1.94164 1.41068 1.5
      vertex -1.74952 1.64291 -1.5
      vertex -1.74952 1.64291 1.5
    endloop
  endfacet
  facet normal 0.770509 -0.637429 0
    outer loop
      vertex -1.74952 1.64291 -1.5
      vertex -1.94164 1.41068 1.5
      vertex -1.94164 1.41068 -1.5
    endloop
  endfacet
  facet normal 0.684561 -0.728955 0
    outer loop
      vertex -1.74952 1.64291 -1.5
      vertex -1.52982 1.84923 1.5
      vertex -1.74952 1.64291 1.5
    endloop
  endfacet
  facet normal 0.684561 -0.728955 0
    outer loop
      vertex -1.52982 1.84923 1.5
      vertex -1.74952 1.64291 -1.5
      vertex -1.52982 1.84923 -1.5
    endloop
  endfacet
  facet normal 0.125318 -0.992117 0
    outer loop
      vertex -0.449715 2.35749 -1.5
      vertex -0.150697 2.39526 1.5
      vertex -0.449715 2.35749 1.5
    endloop
  endfacet
  facet normal 0.125318 -0.992117 0
    outer loop
      vertex -0.150697 2.39526 1.5
      vertex -0.449715 2.35749 -1.5
      vertex -0.150697 2.39526 -1.5
    endloop
  endfacet
  facet normal 0.481739 -0.876315 0
    outer loop
      vertex -1.28598 2.02639 -1.5
      vertex -1.02187 2.17158 1.5
      vertex -1.28598 2.02639 1.5
    endloop
  endfacet
  facet normal 0.481739 -0.876315 0
    outer loop
      vertex -1.02187 2.17158 1.5
      vertex -1.28598 2.02639 -1.5
      vertex -1.02187 2.17158 -1.5
    endloop
  endfacet
  facet normal 0.368151 -0.929766 0
    outer loop
      vertex -1.02187 2.17158 -1.5
      vertex -0.74164 2.28254 1.5
      vertex -1.02187 2.17158 1.5
    endloop
  endfacet
  facet normal 0.368151 -0.929766 0
    outer loop
      vertex -0.74164 2.28254 1.5
      vertex -1.02187 2.17158 -1.5
      vertex -0.74164 2.28254 -1.5
    endloop
  endfacet
  facet normal -0.844315 -0.535847 0
    outer loop
      vertex 2.10314 1.15621 -1.5
      vertex 1.94164 1.41068 1.5
      vertex 1.94164 1.41068 -1.5
    endloop
  endfacet
  facet normal -0.844315 -0.535847 0
    outer loop
      vertex 1.94164 1.41068 1.5
      vertex 2.10314 1.15621 -1.5
      vertex 2.10314 1.15621 1.5
    endloop
  endfacet
  facet normal -0.904838 -0.425756 0
    outer loop
      vertex 2.23146 0.883498 -1.5
      vertex 2.10314 1.15621 1.5
      vertex 2.10314 1.15621 -1.5
    endloop
  endfacet
  facet normal -0.904838 -0.425756 0
    outer loop
      vertex 2.10314 1.15621 1.5
      vertex 2.23146 0.883498 -1.5
      vertex 2.23146 0.883498 1.5
    endloop
  endfacet
  facet normal -0.982291 -0.187363 0
    outer loop
      vertex 2.38107 0.300799 -1.5
      vertex 2.3246 0.596855 1.5
      vertex 2.3246 0.596855 -1.5
    endloop
  endfacet
  facet normal -0.982291 -0.187363 0
    outer loop
      vertex 2.3246 0.596855 1.5
      vertex 2.38107 0.300799 -1.5
      vertex 2.38107 0.300799 1.5
    endloop
  endfacet
  facet normal -0.587785 -0.809017 0
    outer loop
      vertex 1.28598 2.02639 -1.5
      vertex 1.52982 1.84923 1.5
      vertex 1.28598 2.02639 1.5
    endloop
  endfacet
  facet normal -0.587785 -0.809017 -0
    outer loop
      vertex 1.52982 1.84923 1.5
      vertex 1.28598 2.02639 -1.5
      vertex 1.52982 1.84923 -1.5
    endloop
  endfacet
  facet normal -0.684561 -0.728955 0
    outer loop
      vertex 1.52982 1.84923 -1.5
      vertex 1.74952 1.64291 1.5
      vertex 1.52982 1.84923 1.5
    endloop
  endfacet
  facet normal -0.684561 -0.728955 -0
    outer loop
      vertex 1.74952 1.64291 1.5
      vertex 1.52982 1.84923 -1.5
      vertex 1.74952 1.64291 -1.5
    endloop
  endfacet
  facet normal -0.248679 -0.968586 0
    outer loop
      vertex 0.449715 2.35749 -1.5
      vertex 0.74164 2.28254 1.5
      vertex 0.449715 2.35749 1.5
    endloop
  endfacet
  facet normal -0.248679 -0.968586 -0
    outer loop
      vertex 0.74164 2.28254 1.5
      vertex 0.449715 2.35749 -1.5
      vertex 0.74164 2.28254 -1.5
    endloop
  endfacet
  facet normal 0.904838 0.425756 0
    outer loop
      vertex -2.10314 -1.15621 1.5
      vertex -2.23146 -0.883498 -1.5
      vertex -2.23146 -0.883498 1.5
    endloop
  endfacet
  facet normal 0.904838 0.425756 0
    outer loop
      vertex -2.23146 -0.883498 -1.5
      vertex -2.10314 -1.15621 1.5
      vertex -2.10314 -1.15621 -1.5
    endloop
  endfacet
  facet normal 0.770509 0.637429 0
    outer loop
      vertex -1.74952 -1.64291 1.5
      vertex -1.94164 -1.41068 -1.5
      vertex -1.94164 -1.41068 1.5
    endloop
  endfacet
  facet normal 0.770509 0.637429 0
    outer loop
      vertex -1.94164 -1.41068 -1.5
      vertex -1.74952 -1.64291 1.5
      vertex -1.74952 -1.64291 -1.5
    endloop
  endfacet
  facet normal 0.844315 0.535847 0
    outer loop
      vertex -1.94164 -1.41068 1.5
      vertex -2.10314 -1.15621 -1.5
      vertex -2.10314 -1.15621 1.5
    endloop
  endfacet
  facet normal 0.844315 0.535847 0
    outer loop
      vertex -2.10314 -1.15621 -1.5
      vertex -1.94164 -1.41068 1.5
      vertex -1.94164 -1.41068 -1.5
    endloop
  endfacet
  facet normal -0.368151 0.929766 0
    outer loop
      vertex 1.02187 -2.17158 -1.5
      vertex 0.74164 -2.28254 1.5
      vertex 1.02187 -2.17158 1.5
    endloop
  endfacet
  facet normal -0.368151 0.929766 0
    outer loop
      vertex 0.74164 -2.28254 1.5
      vertex 1.02187 -2.17158 -1.5
      vertex 0.74164 -2.28254 -1.5
    endloop
  endfacet
  facet normal -0.844315 0.535847 0
    outer loop
      vertex 1.94164 -1.41068 -1.5
      vertex 2.10314 -1.15621 1.5
      vertex 2.10314 -1.15621 -1.5
    endloop
  endfacet
  facet normal -0.844315 0.535847 0
    outer loop
      vertex 2.10314 -1.15621 1.5
      vertex 1.94164 -1.41068 -1.5
      vertex 1.94164 -1.41068 1.5
    endloop
  endfacet
  facet normal -0.951053 0.309029 0
    outer loop
      vertex 2.23146 -0.883498 -1.5
      vertex 2.3246 -0.596855 1.5
      vertex 2.3246 -0.596855 -1.5
    endloop
  endfacet
  facet normal -0.951053 0.309029 0
    outer loop
      vertex 2.3246 -0.596855 1.5
      vertex 2.23146 -0.883498 -1.5
      vertex 2.23146 -0.883498 1.5
    endloop
  endfacet
  facet normal 0.248679 0.968586 -0
    outer loop
      vertex -0.449715 -2.35749 -1.5
      vertex -0.74164 -2.28254 1.5
      vertex -0.449715 -2.35749 1.5
    endloop
  endfacet
  facet normal 0.248679 0.968586 0
    outer loop
      vertex -0.74164 -2.28254 1.5
      vertex -0.449715 -2.35749 -1.5
      vertex -0.74164 -2.28254 -1.5
    endloop
  endfacet
  facet normal 0.368151 0.929766 -0
    outer loop
      vertex -0.74164 -2.28254 -1.5
      vertex -1.02187 -2.17158 1.5
      vertex -0.74164 -2.28254 1.5
    endloop
  endfacet
  facet normal 0.368151 0.929766 0
    outer loop
      vertex -1.02187 -2.17158 1.5
      vertex -0.74164 -2.28254 -1.5
      vertex -1.02187 -2.17158 -1.5
    endloop
  endfacet
  facet normal 0.125318 0.992117 -0
    outer loop
      vertex -0.150697 -2.39526 -1.5
      vertex -0.449715 -2.35749 1.5
      vertex -0.150697 -2.39526 1.5
    endloop
  endfacet
  facet normal 0.125318 0.992117 0
    outer loop
      vertex -0.449715 -2.35749 1.5
      vertex -0.150697 -2.39526 -1.5
      vertex -0.449715 -2.35749 -1.5
    endloop
  endfacet
  facet normal 0.951053 0.309029 0
    outer loop
      vertex -2.23146 -0.883498 1.5
      vertex -2.3246 -0.596855 -1.5
      vertex -2.3246 -0.596855 1.5
    endloop
  endfacet
  facet normal 0.951053 0.309029 0
    outer loop
      vertex -2.3246 -0.596855 -1.5
      vertex -2.23146 -0.883498 1.5
      vertex -2.23146 -0.883498 -1.5
    endloop
  endfacet
  facet normal -0.904838 0.425756 0
    outer loop
      vertex 2.10314 -1.15621 -1.5
      vertex 2.23146 -0.883498 1.5
      vertex 2.23146 -0.883498 -1.5
    endloop
  endfacet
  facet normal -0.904838 0.425756 0
    outer loop
      vertex 2.23146 -0.883498 1.5
      vertex 2.10314 -1.15621 -1.5
      vertex 2.10314 -1.15621 1.5
    endloop
  endfacet
  facet normal -0.982291 0.187363 0
    outer loop
      vertex 2.3246 -0.596855 -1.5
      vertex 2.38107 -0.300799 1.5
      vertex 2.38107 -0.300799 -1.5
    endloop
  endfacet
  facet normal -0.982291 0.187363 0
    outer loop
      vertex 2.38107 -0.300799 1.5
      vertex 2.3246 -0.596855 -1.5
      vertex 2.3246 -0.596855 1.5
    endloop
  endfacet
  facet normal 0.587785 0.809017 -0
    outer loop
      vertex -1.28598 -2.02639 -1.5
      vertex -1.52982 -1.84923 1.5
      vertex -1.28598 -2.02639 1.5
    endloop
  endfacet
  facet normal 0.587785 0.809017 0
    outer loop
      vertex -1.52982 -1.84923 1.5
      vertex -1.28598 -2.02639 -1.5
      vertex -1.52982 -1.84923 -1.5
    endloop
  endfacet
  facet normal 0.684561 0.728955 -0
    outer loop
      vertex -1.52982 -1.84923 -1.5
      vertex -1.74952 -1.64291 1.5
      vertex -1.52982 -1.84923 1.5
    endloop
  endfacet
  facet normal 0.684561 0.728955 0
    outer loop
      vertex -1.74952 -1.64291 1.5
      vertex -1.52982 -1.84923 -1.5
      vertex -1.74952 -1.64291 -1.5
    endloop
  endfacet
  facet normal -0.587785 0.809017 0
    outer loop
      vertex 1.52982 -1.84923 -1.5
      vertex 1.28598 -2.02639 1.5
      vertex 1.52982 -1.84923 1.5
    endloop
  endfacet
  facet normal -0.587785 0.809017 0
    outer loop
      vertex 1.28598 -2.02639 1.5
      vertex 1.52982 -1.84923 -1.5
      vertex 1.28598 -2.02639 -1.5
    endloop
  endfacet
  facet normal -0.248679 0.968586 0
    outer loop
      vertex 0.74164 -2.28254 -1.5
      vertex 0.449715 -2.35749 1.5
      vertex 0.74164 -2.28254 1.5
    endloop
  endfacet
  facet normal -0.248679 0.968586 0
    outer loop
      vertex 0.449715 -2.35749 1.5
      vertex 0.74164 -2.28254 -1.5
      vertex 0.449715 -2.35749 -1.5
    endloop
  endfacet
  facet normal -0.125318 0.992117 0
    outer loop
      vertex 0.449715 -2.35749 -1.5
      vertex 0.150697 -2.39526 1.5
      vertex 0.449715 -2.35749 1.5
    endloop
  endfacet
  facet normal -0.125318 0.992117 0
    outer loop
      vertex 0.150697 -2.39526 1.5
      vertex 0.449715 -2.35749 -1.5
      vertex 0.150697 -2.39526 -1.5
    endloop
  endfacet
  facet normal -0.481739 0.876315 0
    outer loop
      vertex 1.28598 -2.02639 -1.5
      vertex 1.02187 -2.17158 1.5
      vertex 1.28598 -2.02639 1.5
    endloop
  endfacet
  facet normal -0.481739 0.876315 0
    outer loop
      vertex 1.02187 -2.17158 1.5
      vertex 1.28598 -2.02639 -1.5
      vertex 1.02187 -2.17158 -1.5
    endloop
  endfacet
  facet normal -0.684561 0.728955 0
    outer loop
      vertex 1.74952 -1.64291 -1.5
      vertex 1.52982 -1.84923 1.5
      vertex 1.74952 -1.64291 1.5
    endloop
  endfacet
  facet normal -0.684561 0.728955 0
    outer loop
      vertex 1.52982 -1.84923 1.5
      vertex 1.74952 -1.64291 -1.5
      vertex 1.52982 -1.84923 -1.5
    endloop
  endfacet
endsolid OpenSCAD_Model
