<?xml version="1.0" standalone="no"?>
<!DOCTYPE svg PUBLIC "-//W3C//DTD SVG 1.1//EN" "http://www.w3.org/Graphics/SVG/1.1/DTD/svg11.dtd">
<svg width="46mm" height="262mm" viewBox="-23 -725 46 262" xmlns="http://www.w3.org/2000/svg" version="1.1">
<title>OpenSCAD Model</title>
<path d="
M 18.4369,-679.589 L 19.0451,-679.745 L 19.6289,-679.976 L 20.1791,-680.278 L 20.6871,-680.647 L 21.1448,-681.077
 L 21.5451,-681.561 L 21.8815,-682.091 L 22.1489,-682.659 L 22.3429,-683.257 L 22.4606,-683.873 L 22.5,-684.5
 L 22.5,-719.5 L 22.4606,-720.127 L 22.3429,-720.743 L 22.1489,-721.341 L 21.8815,-721.909 L 21.5451,-722.439
 L 21.1448,-722.923 L 20.6871,-723.353 L 20.1791,-723.722 L 19.6289,-724.024 L 19.0451,-724.255 L 18.4369,-724.411
 L 17.8139,-724.49 L -17.8139,-724.49 L -18.4369,-724.411 L -19.0451,-724.255 L -19.6289,-724.024 L -20.1791,-723.722
 L -20.6871,-723.353 L -21.1448,-722.923 L -21.5451,-722.439 L -21.8815,-721.909 L -22.1489,-721.341 L -22.3429,-720.743
 L -22.4606,-720.127 L -22.5,-719.5 L -22.5,-684.5 L -22.4606,-683.873 L -22.3429,-683.257 L -22.1489,-682.659
 L -21.8815,-682.091 L -21.5451,-681.561 L -21.1448,-681.077 L -20.6871,-680.647 L -20.1791,-680.278 L -19.6289,-679.976
 L -19.0451,-679.745 L -18.4369,-679.589 L -17.8139,-679.51 L 17.8139,-679.51 z
M -15.1884,-714.006 L -15.5621,-714.053 L -15.927,-714.147 L -16.2773,-714.286 L -16.6075,-714.467 L -16.9123,-714.688
 L -17.1869,-714.946 L -17.427,-715.237 L -17.6289,-715.555 L -17.7893,-715.896 L -17.9057,-716.254 L -17.9763,-716.624
 L -18,-717 L -17.9763,-717.376 L -17.9057,-717.746 L -17.7893,-718.104 L -17.6289,-718.445 L -17.427,-718.763
 L -17.1869,-719.054 L -16.9123,-719.312 L -16.6075,-719.533 L -16.2773,-719.714 L -15.927,-719.853 L -15.5621,-719.947
 L -15.1884,-719.994 L -14.8116,-719.994 L -14.4379,-719.947 L -14.0729,-719.853 L -13.7227,-719.714 L -13.3925,-719.533
 L -13.0877,-719.312 L -12.8131,-719.054 L -12.5729,-718.763 L -12.3711,-718.445 L -12.2107,-718.104 L -12.0942,-717.746
 L -12.0237,-717.376 L -12,-717 L -12.0237,-716.624 L -12.0942,-716.254 L -12.2107,-715.896 L -12.3711,-715.555
 L -12.5729,-715.237 L -12.8131,-714.946 L -13.0877,-714.688 L -13.3925,-714.467 L -13.7227,-714.286 L -14.0729,-714.147
 L -14.4379,-714.053 L -14.8116,-714.006 z
M 14.8116,-714.006 L 14.4379,-714.053 L 14.0729,-714.147 L 13.7227,-714.286 L 13.3925,-714.467 L 13.0877,-714.688
 L 12.8131,-714.946 L 12.5729,-715.237 L 12.3711,-715.555 L 12.2107,-715.896 L 12.0942,-716.254 L 12.0237,-716.624
 L 12,-717 L 12.0237,-717.376 L 12.0942,-717.746 L 12.2107,-718.104 L 12.3711,-718.445 L 12.5729,-718.763
 L 12.8131,-719.054 L 13.0877,-719.312 L 13.3925,-719.533 L 13.7227,-719.714 L 14.0729,-719.853 L 14.4379,-719.947
 L 14.8116,-719.994 L 15.1884,-719.994 L 15.5621,-719.947 L 15.927,-719.853 L 16.2773,-719.714 L 16.6075,-719.533
 L 16.9123,-719.312 L 17.1869,-719.054 L 17.427,-718.763 L 17.6289,-718.445 L 17.7893,-718.104 L 17.9057,-717.746
 L 17.9763,-717.376 L 18,-717 L 17.9763,-716.624 L 17.9057,-716.254 L 17.7893,-715.896 L 17.6289,-715.555
 L 17.427,-715.237 L 17.1869,-714.946 L 16.9123,-714.688 L 16.6075,-714.467 L 16.2773,-714.286 L 15.927,-714.147
 L 15.5621,-714.053 L 15.1884,-714.006 z
M -0.25116,-685.008 L -0.454224,-685.034 L -1.06743,-685.034 L -3.18547,-685.301 L -5.25328,-685.832 L -7.23824,-686.618
 L -9.10905,-687.646 L -10.8362,-688.901 L -12.3925,-690.363 L -13.7533,-692.008 L -14.4511,-693.107 L -14.5365,-693.073
 L -14.7189,-693.027 L -14.9058,-693.003 L -15.0942,-693.003 L -15.2811,-693.027 L -15.4635,-693.073 L -15.6387,-693.143
 L -15.8037,-693.234 L -15.9561,-693.344 L -16.0934,-693.473 L -16.2135,-693.618 L -16.3145,-693.777 L -16.3947,-693.948
 L -16.4529,-694.127 L -16.4882,-694.312 L -16.5,-694.5 L -16.4882,-694.688 L -16.4529,-694.873 L -16.3947,-695.052
 L -16.3145,-695.223 L -16.2135,-695.382 L -16.0934,-695.527 L -15.9561,-695.656 L -15.8122,-695.76 L -16.4659,-697.772
 L -16.8184,-699.62 L -16.9123,-699.688 L -17.1869,-699.946 L -17.427,-700.237 L -17.6261,-700.55 L -17.7189,-700.527
 L -17.9058,-700.503 L -18.0942,-700.503 L -18.2811,-700.527 L -18.4635,-700.573 L -18.6387,-700.643 L -18.8037,-700.734
 L -18.9561,-700.844 L -19.0934,-700.973 L -19.2135,-701.118 L -19.3145,-701.277 L -19.3947,-701.448 L -19.4529,-701.627
 L -19.4882,-701.812 L -19.5,-702 L -19.4882,-702.188 L -19.4529,-702.373 L -19.3947,-702.552 L -19.3145,-702.723
 L -19.2135,-702.882 L -19.0934,-703.027 L -18.9561,-703.156 L -18.8037,-703.266 L -18.6387,-703.357 L -18.4635,-703.427
 L -18.2811,-703.473 L -18.0942,-703.497 L -17.9058,-703.497 L -17.7189,-703.473 L -17.6261,-703.45 L -17.427,-703.763
 L -17.1869,-704.054 L -16.9123,-704.312 L -16.8184,-704.38 L -16.4659,-706.228 L -15.8122,-708.24 L -15.9561,-708.344
 L -16.0934,-708.473 L -16.2135,-708.618 L -16.3145,-708.777 L -16.3947,-708.948 L -16.4529,-709.127 L -16.4882,-709.312
 L -16.5,-709.5 L -16.4882,-709.688 L -16.4529,-709.873 L -16.3947,-710.052 L -16.3145,-710.223 L -16.2135,-710.382
 L -16.0934,-710.527 L -15.9561,-710.656 L -15.8037,-710.766 L -15.6387,-710.857 L -15.4635,-710.927 L -15.2811,-710.973
 L -15.0942,-710.997 L -14.9058,-710.997 L -14.7189,-710.973 L -14.5365,-710.927 L -14.4511,-710.893 L -13.7533,-711.992
 L -12.3925,-713.637 L -10.8362,-715.099 L -9.10905,-716.354 L -7.23824,-717.382 L -5.25328,-718.168 L -3.18547,-718.699
 L -1.06743,-718.966 L 1.06743,-718.966 L 3.18547,-718.699 L 5.25328,-718.168 L 7.23824,-717.382 L 9.10905,-716.354
 L 10.8362,-715.099 L 12.3925,-713.637 L 13.7533,-711.992 L 14.4511,-710.893 L 14.5365,-710.927 L 14.7189,-710.973
 L 14.9058,-710.997 L 15.0942,-710.997 L 15.2811,-710.973 L 15.4635,-710.927 L 15.6387,-710.857 L 15.8037,-710.766
 L 15.9561,-710.656 L 16.0934,-710.527 L 16.2135,-710.382 L 16.3145,-710.223 L 16.3947,-710.052 L 16.4529,-709.873
 L 16.4882,-709.688 L 16.5,-709.5 L 16.4882,-709.312 L 16.4529,-709.127 L 16.3947,-708.948 L 16.3145,-708.777
 L 16.2135,-708.618 L 16.0934,-708.473 L 15.9561,-708.344 L 15.8122,-708.24 L 16.4659,-706.228 L 16.8184,-704.38
 L 16.9123,-704.312 L 17.1869,-704.054 L 17.427,-703.763 L 17.6261,-703.45 L 17.7189,-703.473 L 17.9058,-703.497
 L 18.0942,-703.497 L 18.2811,-703.473 L 18.4635,-703.427 L 18.6387,-703.357 L 18.8037,-703.266 L 18.9561,-703.156
 L 19.0934,-703.027 L 19.2135,-702.882 L 19.3145,-702.723 L 19.3947,-702.552 L 19.4529,-702.373 L 19.4882,-702.188
 L 19.5,-702 L 19.4882,-701.812 L 19.4529,-701.627 L 19.3947,-701.448 L 19.3145,-701.277 L 19.2135,-701.118
 L 19.0934,-700.973 L 18.9561,-700.844 L 18.8037,-700.734 L 18.6387,-700.643 L 18.4635,-700.573 L 18.2811,-700.527
 L 18.0942,-700.503 L 17.9058,-700.503 L 17.7189,-700.527 L 17.6261,-700.55 L 17.427,-700.237 L 17.1869,-699.946
 L 16.9123,-699.688 L 16.8184,-699.62 L 16.4659,-697.772 L 15.8122,-695.76 L 15.9561,-695.656 L 16.0934,-695.527
 L 16.2135,-695.382 L 16.3145,-695.223 L 16.3947,-695.052 L 16.4529,-694.873 L 16.4882,-694.688 L 16.5,-694.5
 L 16.4882,-694.312 L 16.4529,-694.127 L 16.3947,-693.948 L 16.3145,-693.777 L 16.2135,-693.618 L 16.0934,-693.473
 L 15.9561,-693.344 L 15.8037,-693.234 L 15.6387,-693.143 L 15.4635,-693.073 L 15.2811,-693.027 L 15.0942,-693.003
 L 14.9058,-693.003 L 14.7189,-693.027 L 14.5365,-693.073 L 14.4511,-693.107 L 13.7533,-692.008 L 12.3925,-690.363
 L 10.8362,-688.901 L 9.10905,-687.646 L 7.23824,-686.618 L 5.25328,-685.832 L 3.18547,-685.301 L 1.06743,-685.034
 L 0.454224,-685.034 L 0.25116,-685.008 z
M -15.1884,-684.006 L -15.5621,-684.053 L -15.927,-684.147 L -16.2773,-684.286 L -16.6075,-684.467 L -16.9123,-684.688
 L -17.1869,-684.946 L -17.427,-685.237 L -17.6289,-685.555 L -17.7893,-685.896 L -17.9057,-686.254 L -17.9763,-686.624
 L -18,-687 L -17.9763,-687.376 L -17.9057,-687.746 L -17.7893,-688.104 L -17.6289,-688.445 L -17.427,-688.763
 L -17.1869,-689.054 L -16.9123,-689.312 L -16.6075,-689.533 L -16.2773,-689.714 L -15.927,-689.853 L -15.5621,-689.947
 L -15.1884,-689.994 L -14.8116,-689.994 L -14.4379,-689.947 L -14.0729,-689.853 L -13.7227,-689.714 L -13.3925,-689.533
 L -13.0877,-689.312 L -12.8131,-689.054 L -12.5729,-688.763 L -12.3711,-688.445 L -12.2107,-688.104 L -12.0942,-687.746
 L -12.0237,-687.376 L -12,-687 L -12.0237,-686.624 L -12.0942,-686.254 L -12.2107,-685.896 L -12.3711,-685.555
 L -12.5729,-685.237 L -12.8131,-684.946 L -13.0877,-684.688 L -13.3925,-684.467 L -13.7227,-684.286 L -14.0729,-684.147
 L -14.4379,-684.053 L -14.8116,-684.006 z
M 14.8116,-684.006 L 14.4379,-684.053 L 14.0729,-684.147 L 13.7227,-684.286 L 13.3925,-684.467 L 13.0877,-684.688
 L 12.8131,-684.946 L 12.5729,-685.237 L 12.3711,-685.555 L 12.2107,-685.896 L 12.0942,-686.254 L 12.0237,-686.624
 L 12,-687 L 12.0237,-687.376 L 12.0942,-687.746 L 12.2107,-688.104 L 12.3711,-688.445 L 12.5729,-688.763
 L 12.8131,-689.054 L 13.0877,-689.312 L 13.3925,-689.533 L 13.7227,-689.714 L 14.0729,-689.853 L 14.4379,-689.947
 L 14.8116,-689.994 L 15.1884,-689.994 L 15.5621,-689.947 L 15.927,-689.853 L 16.2773,-689.714 L 16.6075,-689.533
 L 16.9123,-689.312 L 17.1869,-689.054 L 17.427,-688.763 L 17.6289,-688.445 L 17.7893,-688.104 L 17.9057,-687.746
 L 17.9763,-687.376 L 18,-687 L 17.9763,-686.624 L 17.9057,-686.254 L 17.7893,-685.896 L 17.6289,-685.555
 L 17.427,-685.237 L 17.1869,-684.946 L 16.9123,-684.688 L 16.6075,-684.467 L 16.2773,-684.286 L 15.927,-684.147
 L 15.5621,-684.053 L 15.1884,-684.006 z
M 18.4369,-625.589 L 19.0451,-625.745 L 19.6289,-625.976 L 20.1791,-626.278 L 20.6871,-626.647 L 21.1448,-627.077
 L 21.5451,-627.561 L 21.8815,-628.091 L 22.1489,-628.659 L 22.3429,-629.257 L 22.4606,-629.873 L 22.5,-630.5
 L 22.5,-665.5 L 22.4606,-666.127 L 22.3429,-666.743 L 22.1489,-667.341 L 21.8815,-667.909 L 21.5451,-668.439
 L 21.1448,-668.923 L 20.6871,-669.353 L 20.1791,-669.722 L 19.6289,-670.024 L 19.0451,-670.255 L 18.4369,-670.411
 L 17.8139,-670.49 L -17.8139,-670.49 L -18.4369,-670.411 L -19.0451,-670.255 L -19.6289,-670.024 L -20.1791,-669.722
 L -20.6871,-669.353 L -21.1448,-668.923 L -21.5451,-668.439 L -21.8815,-667.909 L -22.1489,-667.341 L -22.3429,-666.743
 L -22.4606,-666.127 L -22.5,-665.5 L -22.5,-630.5 L -22.4606,-629.873 L -22.3429,-629.257 L -22.1489,-628.659
 L -21.8815,-628.091 L -21.5451,-627.561 L -21.1448,-627.077 L -20.6871,-626.647 L -20.1791,-626.278 L -19.6289,-625.976
 L -19.0451,-625.745 L -18.4369,-625.589 L -17.8139,-625.51 L 17.8139,-625.51 z
M 14.8116,-660.006 L 14.4379,-660.053 L 14.0729,-660.147 L 13.7227,-660.286 L 13.3925,-660.467 L 13.0877,-660.688
 L 12.8131,-660.946 L 12.5729,-661.237 L 12.3711,-661.555 L 12.2107,-661.896 L 12.0942,-662.254 L 12.0237,-662.624
 L 12,-663 L 12.0237,-663.376 L 12.0942,-663.746 L 12.2107,-664.104 L 12.3711,-664.445 L 12.5729,-664.763
 L 12.8131,-665.054 L 13.0877,-665.312 L 13.3925,-665.533 L 13.7227,-665.714 L 14.0729,-665.853 L 14.4379,-665.947
 L 14.8116,-665.994 L 15.1884,-665.994 L 15.5621,-665.947 L 15.927,-665.853 L 16.2773,-665.714 L 16.6075,-665.533
 L 16.9123,-665.312 L 17.1869,-665.054 L 17.427,-664.763 L 17.6289,-664.445 L 17.7893,-664.104 L 17.9057,-663.746
 L 17.9763,-663.376 L 18,-663 L 17.9763,-662.624 L 17.9057,-662.254 L 17.7893,-661.896 L 17.6289,-661.555
 L 17.427,-661.237 L 17.1869,-660.946 L 16.9123,-660.688 L 16.6075,-660.467 L 16.2773,-660.286 L 15.927,-660.147
 L 15.5621,-660.053 L 15.1884,-660.006 z
M -15.1884,-660.006 L -15.5621,-660.053 L -15.927,-660.147 L -16.2773,-660.286 L -16.6075,-660.467 L -16.9123,-660.688
 L -17.1869,-660.946 L -17.427,-661.237 L -17.6289,-661.555 L -17.7893,-661.896 L -17.9057,-662.254 L -17.9763,-662.624
 L -18,-663 L -17.9763,-663.376 L -17.9057,-663.746 L -17.7893,-664.104 L -17.6289,-664.445 L -17.427,-664.763
 L -17.1869,-665.054 L -16.9123,-665.312 L -16.6075,-665.533 L -16.2773,-665.714 L -15.927,-665.853 L -15.5621,-665.947
 L -15.1884,-665.994 L -14.8116,-665.994 L -14.4379,-665.947 L -14.0729,-665.853 L -13.7227,-665.714 L -13.3925,-665.533
 L -13.0877,-665.312 L -12.8131,-665.054 L -12.5729,-664.763 L -12.3711,-664.445 L -12.2107,-664.104 L -12.0942,-663.746
 L -12.0237,-663.376 L -12,-663 L -12.0237,-662.624 L -12.0942,-662.254 L -12.2107,-661.896 L -12.3711,-661.555
 L -12.5729,-661.237 L -12.8131,-660.946 L -13.0877,-660.688 L -13.3925,-660.467 L -13.7227,-660.286 L -14.0729,-660.147
 L -14.4379,-660.053 L -14.8116,-660.006 z
M -0.25116,-631.008 L -0.454224,-631.034 L -1.06743,-631.034 L -3.18547,-631.301 L -5.25328,-631.832 L -7.23824,-632.618
 L -9.10905,-633.646 L -10.8362,-634.901 L -12.3925,-636.363 L -13.7533,-638.008 L -14.4511,-639.107 L -14.5365,-639.073
 L -14.7189,-639.027 L -14.9058,-639.003 L -15.0942,-639.003 L -15.2811,-639.027 L -15.4635,-639.073 L -15.6387,-639.143
 L -15.8037,-639.234 L -15.9561,-639.344 L -16.0934,-639.473 L -16.2135,-639.618 L -16.3145,-639.777 L -16.3947,-639.948
 L -16.4529,-640.127 L -16.4882,-640.312 L -16.5,-640.5 L -16.4882,-640.688 L -16.4529,-640.873 L -16.3947,-641.052
 L -16.3145,-641.223 L -16.2135,-641.382 L -16.0934,-641.527 L -15.9561,-641.656 L -15.8122,-641.76 L -16.4659,-643.772
 L -16.8184,-645.62 L -16.9123,-645.688 L -17.1869,-645.946 L -17.427,-646.237 L -17.6261,-646.55 L -17.7189,-646.527
 L -17.9058,-646.503 L -18.0942,-646.503 L -18.2811,-646.527 L -18.4635,-646.573 L -18.6387,-646.643 L -18.8037,-646.734
 L -18.9561,-646.844 L -19.0934,-646.973 L -19.2135,-647.118 L -19.3145,-647.277 L -19.3947,-647.448 L -19.4529,-647.627
 L -19.4882,-647.812 L -19.5,-648 L -19.4882,-648.188 L -19.4529,-648.373 L -19.3947,-648.552 L -19.3145,-648.723
 L -19.2135,-648.882 L -19.0934,-649.027 L -18.9561,-649.156 L -18.8037,-649.266 L -18.6387,-649.357 L -18.4635,-649.427
 L -18.2811,-649.473 L -18.0942,-649.497 L -17.9058,-649.497 L -17.7189,-649.473 L -17.6261,-649.45 L -17.427,-649.763
 L -17.1869,-650.054 L -16.9123,-650.312 L -16.8184,-650.38 L -16.4659,-652.228 L -15.8122,-654.24 L -15.9561,-654.344
 L -16.0934,-654.473 L -16.2135,-654.618 L -16.3145,-654.777 L -16.3947,-654.948 L -16.4529,-655.127 L -16.4882,-655.312
 L -16.5,-655.5 L -16.4882,-655.688 L -16.4529,-655.873 L -16.3947,-656.052 L -16.3145,-656.223 L -16.2135,-656.382
 L -16.0934,-656.527 L -15.9561,-656.656 L -15.8037,-656.766 L -15.6387,-656.857 L -15.4635,-656.927 L -15.2811,-656.973
 L -15.0942,-656.997 L -14.9058,-656.997 L -14.7189,-656.973 L -14.5365,-656.927 L -14.4511,-656.893 L -13.7533,-657.992
 L -12.3925,-659.637 L -10.8362,-661.099 L -9.10905,-662.354 L -7.23824,-663.382 L -5.25328,-664.168 L -3.18547,-664.699
 L -1.06743,-664.966 L 1.06743,-664.966 L 3.18547,-664.699 L 5.25328,-664.168 L 7.23824,-663.382 L 9.10905,-662.354
 L 10.8362,-661.099 L 12.3925,-659.637 L 13.7533,-657.992 L 14.4511,-656.893 L 14.5365,-656.927 L 14.7189,-656.973
 L 14.9058,-656.997 L 15.0942,-656.997 L 15.2811,-656.973 L 15.4635,-656.927 L 15.6387,-656.857 L 15.8037,-656.766
 L 15.9561,-656.656 L 16.0934,-656.527 L 16.2135,-656.382 L 16.3145,-656.223 L 16.3947,-656.052 L 16.4529,-655.873
 L 16.4882,-655.688 L 16.5,-655.5 L 16.4882,-655.312 L 16.4529,-655.127 L 16.3947,-654.948 L 16.3145,-654.777
 L 16.2135,-654.618 L 16.0934,-654.473 L 15.9561,-654.344 L 15.8122,-654.24 L 16.4659,-652.228 L 16.8184,-650.38
 L 16.9123,-650.312 L 17.1869,-650.054 L 17.427,-649.763 L 17.6261,-649.45 L 17.7189,-649.473 L 17.9058,-649.497
 L 18.0942,-649.497 L 18.2811,-649.473 L 18.4635,-649.427 L 18.6387,-649.357 L 18.8037,-649.266 L 18.9561,-649.156
 L 19.0934,-649.027 L 19.2135,-648.882 L 19.3145,-648.723 L 19.3947,-648.552 L 19.4529,-648.373 L 19.4882,-648.188
 L 19.5,-648 L 19.4882,-647.812 L 19.4529,-647.627 L 19.3947,-647.448 L 19.3145,-647.277 L 19.2135,-647.118
 L 19.0934,-646.973 L 18.9561,-646.844 L 18.8037,-646.734 L 18.6387,-646.643 L 18.4635,-646.573 L 18.2811,-646.527
 L 18.0942,-646.503 L 17.9058,-646.503 L 17.7189,-646.527 L 17.6261,-646.55 L 17.427,-646.237 L 17.1869,-645.946
 L 16.9123,-645.688 L 16.8184,-645.62 L 16.4659,-643.772 L 15.8122,-641.76 L 15.9561,-641.656 L 16.0934,-641.527
 L 16.2135,-641.382 L 16.3145,-641.223 L 16.3947,-641.052 L 16.4529,-640.873 L 16.4882,-640.688 L 16.5,-640.5
 L 16.4882,-640.312 L 16.4529,-640.127 L 16.3947,-639.948 L 16.3145,-639.777 L 16.2135,-639.618 L 16.0934,-639.473
 L 15.9561,-639.344 L 15.8037,-639.234 L 15.6387,-639.143 L 15.4635,-639.073 L 15.2811,-639.027 L 15.0942,-639.003
 L 14.9058,-639.003 L 14.7189,-639.027 L 14.5365,-639.073 L 14.4511,-639.107 L 13.7533,-638.008 L 12.3925,-636.363
 L 10.8362,-634.901 L 9.10905,-633.646 L 7.23824,-632.618 L 5.25328,-631.832 L 3.18547,-631.301 L 1.06743,-631.034
 L 0.454224,-631.034 L 0.25116,-631.008 z
M 14.8116,-630.006 L 14.4379,-630.053 L 14.0729,-630.147 L 13.7227,-630.286 L 13.3925,-630.467 L 13.0877,-630.688
 L 12.8131,-630.946 L 12.5729,-631.237 L 12.3711,-631.555 L 12.2107,-631.896 L 12.0942,-632.254 L 12.0237,-632.624
 L 12,-633 L 12.0237,-633.376 L 12.0942,-633.746 L 12.2107,-634.104 L 12.3711,-634.445 L 12.5729,-634.763
 L 12.8131,-635.054 L 13.0877,-635.312 L 13.3925,-635.533 L 13.7227,-635.714 L 14.0729,-635.853 L 14.4379,-635.947
 L 14.8116,-635.994 L 15.1884,-635.994 L 15.5621,-635.947 L 15.927,-635.853 L 16.2773,-635.714 L 16.6075,-635.533
 L 16.9123,-635.312 L 17.1869,-635.054 L 17.427,-634.763 L 17.6289,-634.445 L 17.7893,-634.104 L 17.9057,-633.746
 L 17.9763,-633.376 L 18,-633 L 17.9763,-632.624 L 17.9057,-632.254 L 17.7893,-631.896 L 17.6289,-631.555
 L 17.427,-631.237 L 17.1869,-630.946 L 16.9123,-630.688 L 16.6075,-630.467 L 16.2773,-630.286 L 15.927,-630.147
 L 15.5621,-630.053 L 15.1884,-630.006 z
M -15.1884,-630.006 L -15.5621,-630.053 L -15.927,-630.147 L -16.2773,-630.286 L -16.6075,-630.467 L -16.9123,-630.688
 L -17.1869,-630.946 L -17.427,-631.237 L -17.6289,-631.555 L -17.7893,-631.896 L -17.9057,-632.254 L -17.9763,-632.624
 L -18,-633 L -17.9763,-633.376 L -17.9057,-633.746 L -17.7893,-634.104 L -17.6289,-634.445 L -17.427,-634.763
 L -17.1869,-635.054 L -16.9123,-635.312 L -16.6075,-635.533 L -16.2773,-635.714 L -15.927,-635.853 L -15.5621,-635.947
 L -15.1884,-635.994 L -14.8116,-635.994 L -14.4379,-635.947 L -14.0729,-635.853 L -13.7227,-635.714 L -13.3925,-635.533
 L -13.0877,-635.312 L -12.8131,-635.054 L -12.5729,-634.763 L -12.3711,-634.445 L -12.2107,-634.104 L -12.0942,-633.746
 L -12.0237,-633.376 L -12,-633 L -12.0237,-632.624 L -12.0942,-632.254 L -12.2107,-631.896 L -12.3711,-631.555
 L -12.5729,-631.237 L -12.8131,-630.946 L -13.0877,-630.688 L -13.3925,-630.467 L -13.7227,-630.286 L -14.0729,-630.147
 L -14.4379,-630.053 L -14.8116,-630.006 z
M 18.4369,-571.589 L 19.0451,-571.745 L 19.6289,-571.976 L 20.1791,-572.278 L 20.6871,-572.647 L 21.1448,-573.077
 L 21.5451,-573.561 L 21.8815,-574.091 L 22.1489,-574.659 L 22.3429,-575.257 L 22.4606,-575.873 L 22.5,-576.5
 L 22.5,-611.5 L 22.4606,-612.127 L 22.3429,-612.743 L 22.1489,-613.341 L 21.8815,-613.909 L 21.5451,-614.439
 L 21.1448,-614.923 L 20.6871,-615.353 L 20.1791,-615.722 L 19.6289,-616.024 L 19.0451,-616.255 L 18.4369,-616.411
 L 17.8139,-616.49 L -17.8139,-616.49 L -18.4369,-616.411 L -19.0451,-616.255 L -19.6289,-616.024 L -20.1791,-615.722
 L -20.6871,-615.353 L -21.1448,-614.923 L -21.5451,-614.439 L -21.8815,-613.909 L -22.1489,-613.341 L -22.3429,-612.743
 L -22.4606,-612.127 L -22.5,-611.5 L -22.5,-576.5 L -22.4606,-575.873 L -22.3429,-575.257 L -22.1489,-574.659
 L -21.8815,-574.091 L -21.5451,-573.561 L -21.1448,-573.077 L -20.6871,-572.647 L -20.1791,-572.278 L -19.6289,-571.976
 L -19.0451,-571.745 L -18.4369,-571.589 L -17.8139,-571.51 L 17.8139,-571.51 z
M 14.8116,-606.006 L 14.4379,-606.053 L 14.0729,-606.147 L 13.7227,-606.286 L 13.3925,-606.467 L 13.0877,-606.688
 L 12.8131,-606.946 L 12.5729,-607.237 L 12.3711,-607.555 L 12.2107,-607.896 L 12.0942,-608.254 L 12.0237,-608.624
 L 12,-609 L 12.0237,-609.376 L 12.0942,-609.746 L 12.2107,-610.104 L 12.3711,-610.445 L 12.5729,-610.763
 L 12.8131,-611.054 L 13.0877,-611.312 L 13.3925,-611.533 L 13.7227,-611.714 L 14.0729,-611.853 L 14.4379,-611.947
 L 14.8116,-611.994 L 15.1884,-611.994 L 15.5621,-611.947 L 15.927,-611.853 L 16.2773,-611.714 L 16.6075,-611.533
 L 16.9123,-611.312 L 17.1869,-611.054 L 17.427,-610.763 L 17.6289,-610.445 L 17.7893,-610.104 L 17.9057,-609.746
 L 17.9763,-609.376 L 18,-609 L 17.9763,-608.624 L 17.9057,-608.254 L 17.7893,-607.896 L 17.6289,-607.555
 L 17.427,-607.237 L 17.1869,-606.946 L 16.9123,-606.688 L 16.6075,-606.467 L 16.2773,-606.286 L 15.927,-606.147
 L 15.5621,-606.053 L 15.1884,-606.006 z
M -15.1884,-606.006 L -15.5621,-606.053 L -15.927,-606.147 L -16.2773,-606.286 L -16.6075,-606.467 L -16.9123,-606.688
 L -17.1869,-606.946 L -17.427,-607.237 L -17.6289,-607.555 L -17.7893,-607.896 L -17.9057,-608.254 L -17.9763,-608.624
 L -18,-609 L -17.9763,-609.376 L -17.9057,-609.746 L -17.7893,-610.104 L -17.6289,-610.445 L -17.427,-610.763
 L -17.1869,-611.054 L -16.9123,-611.312 L -16.6075,-611.533 L -16.2773,-611.714 L -15.927,-611.853 L -15.5621,-611.947
 L -15.1884,-611.994 L -14.8116,-611.994 L -14.4379,-611.947 L -14.0729,-611.853 L -13.7227,-611.714 L -13.3925,-611.533
 L -13.0877,-611.312 L -12.8131,-611.054 L -12.5729,-610.763 L -12.3711,-610.445 L -12.2107,-610.104 L -12.0942,-609.746
 L -12.0237,-609.376 L -12,-609 L -12.0237,-608.624 L -12.0942,-608.254 L -12.2107,-607.896 L -12.3711,-607.555
 L -12.5729,-607.237 L -12.8131,-606.946 L -13.0877,-606.688 L -13.3925,-606.467 L -13.7227,-606.286 L -14.0729,-606.147
 L -14.4379,-606.053 L -14.8116,-606.006 z
M -0.25116,-577.008 L -0.454224,-577.034 L -1.06743,-577.034 L -3.18547,-577.301 L -5.25328,-577.832 L -7.23824,-578.618
 L -9.10905,-579.646 L -10.8362,-580.901 L -12.3925,-582.363 L -13.7533,-584.008 L -14.4511,-585.107 L -14.5365,-585.073
 L -14.7189,-585.027 L -14.9058,-585.003 L -15.0942,-585.003 L -15.2811,-585.027 L -15.4635,-585.073 L -15.6387,-585.143
 L -15.8037,-585.234 L -15.9561,-585.344 L -16.0934,-585.473 L -16.2135,-585.618 L -16.3145,-585.777 L -16.3947,-585.948
 L -16.4529,-586.127 L -16.4882,-586.312 L -16.5,-586.5 L -16.4882,-586.688 L -16.4529,-586.873 L -16.3947,-587.052
 L -16.3145,-587.223 L -16.2135,-587.382 L -16.0934,-587.527 L -15.9561,-587.656 L -15.8122,-587.76 L -16.4659,-589.772
 L -16.8184,-591.62 L -16.9123,-591.688 L -17.1869,-591.946 L -17.427,-592.237 L -17.6261,-592.55 L -17.7189,-592.527
 L -17.9058,-592.503 L -18.0942,-592.503 L -18.2811,-592.527 L -18.4635,-592.573 L -18.6387,-592.643 L -18.8037,-592.734
 L -18.9561,-592.844 L -19.0934,-592.973 L -19.2135,-593.118 L -19.3145,-593.277 L -19.3947,-593.448 L -19.4529,-593.627
 L -19.4882,-593.812 L -19.5,-594 L -19.4882,-594.188 L -19.4529,-594.373 L -19.3947,-594.552 L -19.3145,-594.723
 L -19.2135,-594.882 L -19.0934,-595.027 L -18.9561,-595.156 L -18.8037,-595.266 L -18.6387,-595.357 L -18.4635,-595.427
 L -18.2811,-595.473 L -18.0942,-595.497 L -17.9058,-595.497 L -17.7189,-595.473 L -17.6261,-595.45 L -17.427,-595.763
 L -17.1869,-596.054 L -16.9123,-596.312 L -16.8184,-596.38 L -16.4659,-598.228 L -15.8122,-600.24 L -15.9561,-600.344
 L -16.0934,-600.473 L -16.2135,-600.618 L -16.3145,-600.777 L -16.3947,-600.948 L -16.4529,-601.127 L -16.4882,-601.312
 L -16.5,-601.5 L -16.4882,-601.688 L -16.4529,-601.873 L -16.3947,-602.052 L -16.3145,-602.223 L -16.2135,-602.382
 L -16.0934,-602.527 L -15.9561,-602.656 L -15.8037,-602.766 L -15.6387,-602.857 L -15.4635,-602.927 L -15.2811,-602.973
 L -15.0942,-602.997 L -14.9058,-602.997 L -14.7189,-602.973 L -14.5365,-602.927 L -14.4511,-602.893 L -13.7533,-603.992
 L -12.3925,-605.637 L -10.8362,-607.099 L -9.10905,-608.354 L -7.23824,-609.382 L -5.25328,-610.168 L -3.18547,-610.699
 L -1.06743,-610.966 L 1.06743,-610.966 L 3.18547,-610.699 L 5.25328,-610.168 L 7.23824,-609.382 L 9.10905,-608.354
 L 10.8362,-607.099 L 12.3925,-605.637 L 13.7533,-603.992 L 14.4511,-602.893 L 14.5365,-602.927 L 14.7189,-602.973
 L 14.9058,-602.997 L 15.0942,-602.997 L 15.2811,-602.973 L 15.4635,-602.927 L 15.6387,-602.857 L 15.8037,-602.766
 L 15.9561,-602.656 L 16.0934,-602.527 L 16.2135,-602.382 L 16.3145,-602.223 L 16.3947,-602.052 L 16.4529,-601.873
 L 16.4882,-601.688 L 16.5,-601.5 L 16.4882,-601.312 L 16.4529,-601.127 L 16.3947,-600.948 L 16.3145,-600.777
 L 16.2135,-600.618 L 16.0934,-600.473 L 15.9561,-600.344 L 15.8122,-600.24 L 16.4659,-598.228 L 16.8184,-596.38
 L 16.9123,-596.312 L 17.1869,-596.054 L 17.427,-595.763 L 17.6261,-595.45 L 17.7189,-595.473 L 17.9058,-595.497
 L 18.0942,-595.497 L 18.2811,-595.473 L 18.4635,-595.427 L 18.6387,-595.357 L 18.8037,-595.266 L 18.9561,-595.156
 L 19.0934,-595.027 L 19.2135,-594.882 L 19.3145,-594.723 L 19.3947,-594.552 L 19.4529,-594.373 L 19.4882,-594.188
 L 19.5,-594 L 19.4882,-593.812 L 19.4529,-593.627 L 19.3947,-593.448 L 19.3145,-593.277 L 19.2135,-593.118
 L 19.0934,-592.973 L 18.9561,-592.844 L 18.8037,-592.734 L 18.6387,-592.643 L 18.4635,-592.573 L 18.2811,-592.527
 L 18.0942,-592.503 L 17.9058,-592.503 L 17.7189,-592.527 L 17.6261,-592.55 L 17.427,-592.237 L 17.1869,-591.946
 L 16.9123,-591.688 L 16.8184,-591.62 L 16.4659,-589.772 L 15.8122,-587.76 L 15.9561,-587.656 L 16.0934,-587.527
 L 16.2135,-587.382 L 16.3145,-587.223 L 16.3947,-587.052 L 16.4529,-586.873 L 16.4882,-586.688 L 16.5,-586.5
 L 16.4882,-586.312 L 16.4529,-586.127 L 16.3947,-585.948 L 16.3145,-585.777 L 16.2135,-585.618 L 16.0934,-585.473
 L 15.9561,-585.344 L 15.8037,-585.234 L 15.6387,-585.143 L 15.4635,-585.073 L 15.2811,-585.027 L 15.0942,-585.003
 L 14.9058,-585.003 L 14.7189,-585.027 L 14.5365,-585.073 L 14.4511,-585.107 L 13.7533,-584.008 L 12.3925,-582.363
 L 10.8362,-580.901 L 9.10905,-579.646 L 7.23824,-578.618 L 5.25328,-577.832 L 3.18547,-577.301 L 1.06743,-577.034
 L 0.454224,-577.034 L 0.25116,-577.008 z
M 14.8116,-576.006 L 14.4379,-576.053 L 14.0729,-576.147 L 13.7227,-576.286 L 13.3925,-576.467 L 13.0877,-576.688
 L 12.8131,-576.946 L 12.5729,-577.237 L 12.3711,-577.555 L 12.2107,-577.896 L 12.0942,-578.254 L 12.0237,-578.624
 L 12,-579 L 12.0237,-579.376 L 12.0942,-579.746 L 12.2107,-580.104 L 12.3711,-580.445 L 12.5729,-580.763
 L 12.8131,-581.054 L 13.0877,-581.312 L 13.3925,-581.533 L 13.7227,-581.714 L 14.0729,-581.853 L 14.4379,-581.947
 L 14.8116,-581.994 L 15.1884,-581.994 L 15.5621,-581.947 L 15.927,-581.853 L 16.2773,-581.714 L 16.6075,-581.533
 L 16.9123,-581.312 L 17.1869,-581.054 L 17.427,-580.763 L 17.6289,-580.445 L 17.7893,-580.104 L 17.9057,-579.746
 L 17.9763,-579.376 L 18,-579 L 17.9763,-578.624 L 17.9057,-578.254 L 17.7893,-577.896 L 17.6289,-577.555
 L 17.427,-577.237 L 17.1869,-576.946 L 16.9123,-576.688 L 16.6075,-576.467 L 16.2773,-576.286 L 15.927,-576.147
 L 15.5621,-576.053 L 15.1884,-576.006 z
M -15.1884,-576.006 L -15.5621,-576.053 L -15.927,-576.147 L -16.2773,-576.286 L -16.6075,-576.467 L -16.9123,-576.688
 L -17.1869,-576.946 L -17.427,-577.237 L -17.6289,-577.555 L -17.7893,-577.896 L -17.9057,-578.254 L -17.9763,-578.624
 L -18,-579 L -17.9763,-579.376 L -17.9057,-579.746 L -17.7893,-580.104 L -17.6289,-580.445 L -17.427,-580.763
 L -17.1869,-581.054 L -16.9123,-581.312 L -16.6075,-581.533 L -16.2773,-581.714 L -15.927,-581.853 L -15.5621,-581.947
 L -15.1884,-581.994 L -14.8116,-581.994 L -14.4379,-581.947 L -14.0729,-581.853 L -13.7227,-581.714 L -13.3925,-581.533
 L -13.0877,-581.312 L -12.8131,-581.054 L -12.5729,-580.763 L -12.3711,-580.445 L -12.2107,-580.104 L -12.0942,-579.746
 L -12.0237,-579.376 L -12,-579 L -12.0237,-578.624 L -12.0942,-578.254 L -12.2107,-577.896 L -12.3711,-577.555
 L -12.5729,-577.237 L -12.8131,-576.946 L -13.0877,-576.688 L -13.3925,-576.467 L -13.7227,-576.286 L -14.0729,-576.147
 L -14.4379,-576.053 L -14.8116,-576.006 z
M 18.4369,-517.589 L 19.0451,-517.745 L 19.6289,-517.976 L 20.1791,-518.278 L 20.6871,-518.647 L 21.1448,-519.077
 L 21.5451,-519.561 L 21.8815,-520.091 L 22.1489,-520.659 L 22.3429,-521.257 L 22.4606,-521.873 L 22.5,-522.5
 L 22.5,-557.5 L 22.4606,-558.127 L 22.3429,-558.743 L 22.1489,-559.341 L 21.8815,-559.909 L 21.5451,-560.439
 L 21.1448,-560.923 L 20.6871,-561.353 L 20.1791,-561.722 L 19.6289,-562.024 L 19.0451,-562.255 L 18.4369,-562.411
 L 17.8139,-562.49 L -17.8139,-562.49 L -18.4369,-562.411 L -19.0451,-562.255 L -19.6289,-562.024 L -20.1791,-561.722
 L -20.6871,-561.353 L -21.1448,-560.923 L -21.5451,-560.439 L -21.8815,-559.909 L -22.1489,-559.341 L -22.3429,-558.743
 L -22.4606,-558.127 L -22.5,-557.5 L -22.5,-522.5 L -22.4606,-521.873 L -22.3429,-521.257 L -22.1489,-520.659
 L -21.8815,-520.091 L -21.5451,-519.561 L -21.1448,-519.077 L -20.6871,-518.647 L -20.1791,-518.278 L -19.6289,-517.976
 L -19.0451,-517.745 L -18.4369,-517.589 L -17.8139,-517.51 L 17.8139,-517.51 z
M 14.8116,-552.006 L 14.4379,-552.053 L 14.0729,-552.147 L 13.7227,-552.286 L 13.3925,-552.467 L 13.0877,-552.688
 L 12.8131,-552.946 L 12.5729,-553.237 L 12.3711,-553.555 L 12.2107,-553.896 L 12.0942,-554.254 L 12.0237,-554.624
 L 12,-555 L 12.0237,-555.376 L 12.0942,-555.746 L 12.2107,-556.104 L 12.3711,-556.445 L 12.5729,-556.763
 L 12.8131,-557.054 L 13.0877,-557.312 L 13.3925,-557.533 L 13.7227,-557.714 L 14.0729,-557.853 L 14.4379,-557.947
 L 14.8116,-557.994 L 15.1884,-557.994 L 15.5621,-557.947 L 15.927,-557.853 L 16.2773,-557.714 L 16.6075,-557.533
 L 16.9123,-557.312 L 17.1869,-557.054 L 17.427,-556.763 L 17.6289,-556.445 L 17.7893,-556.104 L 17.9057,-555.746
 L 17.9763,-555.376 L 18,-555 L 17.9763,-554.624 L 17.9057,-554.254 L 17.7893,-553.896 L 17.6289,-553.555
 L 17.427,-553.237 L 17.1869,-552.946 L 16.9123,-552.688 L 16.6075,-552.467 L 16.2773,-552.286 L 15.927,-552.147
 L 15.5621,-552.053 L 15.1884,-552.006 z
M -15.1884,-552.006 L -15.5621,-552.053 L -15.927,-552.147 L -16.2773,-552.286 L -16.6075,-552.467 L -16.9123,-552.688
 L -17.1869,-552.946 L -17.427,-553.237 L -17.6289,-553.555 L -17.7893,-553.896 L -17.9057,-554.254 L -17.9763,-554.624
 L -18,-555 L -17.9763,-555.376 L -17.9057,-555.746 L -17.7893,-556.104 L -17.6289,-556.445 L -17.427,-556.763
 L -17.1869,-557.054 L -16.9123,-557.312 L -16.6075,-557.533 L -16.2773,-557.714 L -15.927,-557.853 L -15.5621,-557.947
 L -15.1884,-557.994 L -14.8116,-557.994 L -14.4379,-557.947 L -14.0729,-557.853 L -13.7227,-557.714 L -13.3925,-557.533
 L -13.0877,-557.312 L -12.8131,-557.054 L -12.5729,-556.763 L -12.3711,-556.445 L -12.2107,-556.104 L -12.0942,-555.746
 L -12.0237,-555.376 L -12,-555 L -12.0237,-554.624 L -12.0942,-554.254 L -12.2107,-553.896 L -12.3711,-553.555
 L -12.5729,-553.237 L -12.8131,-552.946 L -13.0877,-552.688 L -13.3925,-552.467 L -13.7227,-552.286 L -14.0729,-552.147
 L -14.4379,-552.053 L -14.8116,-552.006 z
M -0.25116,-523.008 L -0.454224,-523.034 L -1.06743,-523.034 L -3.18547,-523.301 L -5.25328,-523.832 L -7.23824,-524.618
 L -9.10905,-525.646 L -10.8362,-526.901 L -12.3925,-528.363 L -13.7533,-530.008 L -14.4511,-531.107 L -14.5365,-531.073
 L -14.7189,-531.027 L -14.9058,-531.003 L -15.0942,-531.003 L -15.2811,-531.027 L -15.4635,-531.073 L -15.6387,-531.143
 L -15.8037,-531.234 L -15.9561,-531.344 L -16.0934,-531.473 L -16.2135,-531.618 L -16.3145,-531.777 L -16.3947,-531.948
 L -16.4529,-532.127 L -16.4882,-532.312 L -16.5,-532.5 L -16.4882,-532.688 L -16.4529,-532.873 L -16.3947,-533.052
 L -16.3145,-533.223 L -16.2135,-533.382 L -16.0934,-533.527 L -15.9561,-533.656 L -15.8122,-533.76 L -16.4659,-535.772
 L -16.8184,-537.62 L -16.9123,-537.688 L -17.1869,-537.946 L -17.427,-538.237 L -17.6261,-538.55 L -17.7189,-538.527
 L -17.9058,-538.503 L -18.0942,-538.503 L -18.2811,-538.527 L -18.4635,-538.573 L -18.6387,-538.643 L -18.8037,-538.734
 L -18.9561,-538.844 L -19.0934,-538.973 L -19.2135,-539.118 L -19.3145,-539.277 L -19.3947,-539.448 L -19.4529,-539.627
 L -19.4882,-539.812 L -19.5,-540 L -19.4882,-540.188 L -19.4529,-540.373 L -19.3947,-540.552 L -19.3145,-540.723
 L -19.2135,-540.882 L -19.0934,-541.027 L -18.9561,-541.156 L -18.8037,-541.266 L -18.6387,-541.357 L -18.4635,-541.427
 L -18.2811,-541.473 L -18.0942,-541.497 L -17.9058,-541.497 L -17.7189,-541.473 L -17.6261,-541.45 L -17.427,-541.763
 L -17.1869,-542.054 L -16.9123,-542.312 L -16.8184,-542.38 L -16.4659,-544.228 L -15.8122,-546.24 L -15.9561,-546.344
 L -16.0934,-546.473 L -16.2135,-546.618 L -16.3145,-546.777 L -16.3947,-546.948 L -16.4529,-547.127 L -16.4882,-547.312
 L -16.5,-547.5 L -16.4882,-547.688 L -16.4529,-547.873 L -16.3947,-548.052 L -16.3145,-548.223 L -16.2135,-548.382
 L -16.0934,-548.527 L -15.9561,-548.656 L -15.8037,-548.766 L -15.6387,-548.857 L -15.4635,-548.927 L -15.2811,-548.973
 L -15.0942,-548.997 L -14.9058,-548.997 L -14.7189,-548.973 L -14.5365,-548.927 L -14.4511,-548.893 L -13.7533,-549.992
 L -12.3925,-551.637 L -10.8362,-553.099 L -9.10905,-554.354 L -7.23824,-555.382 L -5.25328,-556.168 L -3.18547,-556.699
 L -1.06743,-556.966 L 1.06743,-556.966 L 3.18547,-556.699 L 5.25328,-556.168 L 7.23824,-555.382 L 9.10905,-554.354
 L 10.8362,-553.099 L 12.3925,-551.637 L 13.7533,-549.992 L 14.4511,-548.893 L 14.5365,-548.927 L 14.7189,-548.973
 L 14.9058,-548.997 L 15.0942,-548.997 L 15.2811,-548.973 L 15.4635,-548.927 L 15.6387,-548.857 L 15.8037,-548.766
 L 15.9561,-548.656 L 16.0934,-548.527 L 16.2135,-548.382 L 16.3145,-548.223 L 16.3947,-548.052 L 16.4529,-547.873
 L 16.4882,-547.688 L 16.5,-547.5 L 16.4882,-547.312 L 16.4529,-547.127 L 16.3947,-546.948 L 16.3145,-546.777
 L 16.2135,-546.618 L 16.0934,-546.473 L 15.9561,-546.344 L 15.8122,-546.24 L 16.4659,-544.228 L 16.8184,-542.38
 L 16.9123,-542.312 L 17.1869,-542.054 L 17.427,-541.763 L 17.6261,-541.45 L 17.7189,-541.473 L 17.9058,-541.497
 L 18.0942,-541.497 L 18.2811,-541.473 L 18.4635,-541.427 L 18.6387,-541.357 L 18.8037,-541.266 L 18.9561,-541.156
 L 19.0934,-541.027 L 19.2135,-540.882 L 19.3145,-540.723 L 19.3947,-540.552 L 19.4529,-540.373 L 19.4882,-540.188
 L 19.5,-540 L 19.4882,-539.812 L 19.4529,-539.627 L 19.3947,-539.448 L 19.3145,-539.277 L 19.2135,-539.118
 L 19.0934,-538.973 L 18.9561,-538.844 L 18.8037,-538.734 L 18.6387,-538.643 L 18.4635,-538.573 L 18.2811,-538.527
 L 18.0942,-538.503 L 17.9058,-538.503 L 17.7189,-538.527 L 17.6261,-538.55 L 17.427,-538.237 L 17.1869,-537.946
 L 16.9123,-537.688 L 16.8184,-537.62 L 16.4659,-535.772 L 15.8122,-533.76 L 15.9561,-533.656 L 16.0934,-533.527
 L 16.2135,-533.382 L 16.3145,-533.223 L 16.3947,-533.052 L 16.4529,-532.873 L 16.4882,-532.688 L 16.5,-532.5
 L 16.4882,-532.312 L 16.4529,-532.127 L 16.3947,-531.948 L 16.3145,-531.777 L 16.2135,-531.618 L 16.0934,-531.473
 L 15.9561,-531.344 L 15.8037,-531.234 L 15.6387,-531.143 L 15.4635,-531.073 L 15.2811,-531.027 L 15.0942,-531.003
 L 14.9058,-531.003 L 14.7189,-531.027 L 14.5365,-531.073 L 14.4511,-531.107 L 13.7533,-530.008 L 12.3925,-528.363
 L 10.8362,-526.901 L 9.10905,-525.646 L 7.23824,-524.618 L 5.25328,-523.832 L 3.18547,-523.301 L 1.06743,-523.034
 L 0.454224,-523.034 L 0.25116,-523.008 z
M 14.8116,-522.006 L 14.4379,-522.053 L 14.0729,-522.147 L 13.7227,-522.286 L 13.3925,-522.467 L 13.0877,-522.688
 L 12.8131,-522.946 L 12.5729,-523.237 L 12.3711,-523.555 L 12.2107,-523.896 L 12.0942,-524.254 L 12.0237,-524.624
 L 12,-525 L 12.0237,-525.376 L 12.0942,-525.746 L 12.2107,-526.104 L 12.3711,-526.445 L 12.5729,-526.763
 L 12.8131,-527.054 L 13.0877,-527.312 L 13.3925,-527.533 L 13.7227,-527.714 L 14.0729,-527.853 L 14.4379,-527.947
 L 14.8116,-527.994 L 15.1884,-527.994 L 15.5621,-527.947 L 15.927,-527.853 L 16.2773,-527.714 L 16.6075,-527.533
 L 16.9123,-527.312 L 17.1869,-527.054 L 17.427,-526.763 L 17.6289,-526.445 L 17.7893,-526.104 L 17.9057,-525.746
 L 17.9763,-525.376 L 18,-525 L 17.9763,-524.624 L 17.9057,-524.254 L 17.7893,-523.896 L 17.6289,-523.555
 L 17.427,-523.237 L 17.1869,-522.946 L 16.9123,-522.688 L 16.6075,-522.467 L 16.2773,-522.286 L 15.927,-522.147
 L 15.5621,-522.053 L 15.1884,-522.006 z
M -15.1884,-522.006 L -15.5621,-522.053 L -15.927,-522.147 L -16.2773,-522.286 L -16.6075,-522.467 L -16.9123,-522.688
 L -17.1869,-522.946 L -17.427,-523.237 L -17.6289,-523.555 L -17.7893,-523.896 L -17.9057,-524.254 L -17.9763,-524.624
 L -18,-525 L -17.9763,-525.376 L -17.9057,-525.746 L -17.7893,-526.104 L -17.6289,-526.445 L -17.427,-526.763
 L -17.1869,-527.054 L -16.9123,-527.312 L -16.6075,-527.533 L -16.2773,-527.714 L -15.927,-527.853 L -15.5621,-527.947
 L -15.1884,-527.994 L -14.8116,-527.994 L -14.4379,-527.947 L -14.0729,-527.853 L -13.7227,-527.714 L -13.3925,-527.533
 L -13.0877,-527.312 L -12.8131,-527.054 L -12.5729,-526.763 L -12.3711,-526.445 L -12.2107,-526.104 L -12.0942,-525.746
 L -12.0237,-525.376 L -12,-525 L -12.0237,-524.624 L -12.0942,-524.254 L -12.2107,-523.896 L -12.3711,-523.555
 L -12.5729,-523.237 L -12.8131,-522.946 L -13.0877,-522.688 L -13.3925,-522.467 L -13.7227,-522.286 L -14.0729,-522.147
 L -14.4379,-522.053 L -14.8116,-522.006 z
M 18.4369,-463.589 L 19.0451,-463.745 L 19.6289,-463.976 L 20.1791,-464.278 L 20.6871,-464.647 L 21.1448,-465.077
 L 21.5451,-465.561 L 21.8815,-466.091 L 22.1489,-466.659 L 22.3429,-467.257 L 22.4606,-467.873 L 22.5,-468.5
 L 22.5,-503.5 L 22.4606,-504.127 L 22.3429,-504.743 L 22.1489,-505.341 L 21.8815,-505.909 L 21.5451,-506.439
 L 21.1448,-506.923 L 20.6871,-507.353 L 20.1791,-507.722 L 19.6289,-508.024 L 19.0451,-508.255 L 18.4369,-508.411
 L 17.8139,-508.49 L -17.8139,-508.49 L -18.4369,-508.411 L -19.0451,-508.255 L -19.6289,-508.024 L -20.1791,-507.722
 L -20.6871,-507.353 L -21.1448,-506.923 L -21.5451,-506.439 L -21.8815,-505.909 L -22.1489,-505.341 L -22.3429,-504.743
 L -22.4606,-504.127 L -22.5,-503.5 L -22.5,-468.5 L -22.4606,-467.873 L -22.3429,-467.257 L -22.1489,-466.659
 L -21.8815,-466.091 L -21.5451,-465.561 L -21.1448,-465.077 L -20.6871,-464.647 L -20.1791,-464.278 L -19.6289,-463.976
 L -19.0451,-463.745 L -18.4369,-463.589 L -17.8139,-463.51 L 17.8139,-463.51 z
M 14.8116,-498.006 L 14.4379,-498.053 L 14.0729,-498.147 L 13.7227,-498.286 L 13.3925,-498.467 L 13.0877,-498.688
 L 12.8131,-498.946 L 12.5729,-499.237 L 12.3711,-499.555 L 12.2107,-499.896 L 12.0942,-500.254 L 12.0237,-500.624
 L 12,-501 L 12.0237,-501.376 L 12.0942,-501.746 L 12.2107,-502.104 L 12.3711,-502.445 L 12.5729,-502.763
 L 12.8131,-503.054 L 13.0877,-503.312 L 13.3925,-503.533 L 13.7227,-503.714 L 14.0729,-503.853 L 14.4379,-503.947
 L 14.8116,-503.994 L 15.1884,-503.994 L 15.5621,-503.947 L 15.927,-503.853 L 16.2773,-503.714 L 16.6075,-503.533
 L 16.9123,-503.312 L 17.1869,-503.054 L 17.427,-502.763 L 17.6289,-502.445 L 17.7893,-502.104 L 17.9057,-501.746
 L 17.9763,-501.376 L 18,-501 L 17.9763,-500.624 L 17.9057,-500.254 L 17.7893,-499.896 L 17.6289,-499.555
 L 17.427,-499.237 L 17.1869,-498.946 L 16.9123,-498.688 L 16.6075,-498.467 L 16.2773,-498.286 L 15.927,-498.147
 L 15.5621,-498.053 L 15.1884,-498.006 z
M -15.1884,-498.006 L -15.5621,-498.053 L -15.927,-498.147 L -16.2773,-498.286 L -16.6075,-498.467 L -16.9123,-498.688
 L -17.1869,-498.946 L -17.427,-499.237 L -17.6289,-499.555 L -17.7893,-499.896 L -17.9057,-500.254 L -17.9763,-500.624
 L -18,-501 L -17.9763,-501.376 L -17.9057,-501.746 L -17.7893,-502.104 L -17.6289,-502.445 L -17.427,-502.763
 L -17.1869,-503.054 L -16.9123,-503.312 L -16.6075,-503.533 L -16.2773,-503.714 L -15.927,-503.853 L -15.5621,-503.947
 L -15.1884,-503.994 L -14.8116,-503.994 L -14.4379,-503.947 L -14.0729,-503.853 L -13.7227,-503.714 L -13.3925,-503.533
 L -13.0877,-503.312 L -12.8131,-503.054 L -12.5729,-502.763 L -12.3711,-502.445 L -12.2107,-502.104 L -12.0942,-501.746
 L -12.0237,-501.376 L -12,-501 L -12.0237,-500.624 L -12.0942,-500.254 L -12.2107,-499.896 L -12.3711,-499.555
 L -12.5729,-499.237 L -12.8131,-498.946 L -13.0877,-498.688 L -13.3925,-498.467 L -13.7227,-498.286 L -14.0729,-498.147
 L -14.4379,-498.053 L -14.8116,-498.006 z
M -0.25116,-469.008 L -0.454224,-469.034 L -1.06743,-469.034 L -3.18547,-469.301 L -5.25328,-469.832 L -7.23824,-470.618
 L -9.10905,-471.646 L -10.8362,-472.901 L -12.3925,-474.363 L -13.7533,-476.008 L -14.4511,-477.107 L -14.5365,-477.073
 L -14.7189,-477.027 L -14.9058,-477.003 L -15.0942,-477.003 L -15.2811,-477.027 L -15.4635,-477.073 L -15.6387,-477.143
 L -15.8037,-477.234 L -15.9561,-477.344 L -16.0934,-477.473 L -16.2135,-477.618 L -16.3145,-477.777 L -16.3947,-477.948
 L -16.4529,-478.127 L -16.4882,-478.312 L -16.5,-478.5 L -16.4882,-478.688 L -16.4529,-478.873 L -16.3947,-479.052
 L -16.3145,-479.223 L -16.2135,-479.382 L -16.0934,-479.527 L -15.9561,-479.656 L -15.8122,-479.76 L -16.4659,-481.772
 L -16.8184,-483.62 L -16.9123,-483.688 L -17.1869,-483.946 L -17.427,-484.237 L -17.6261,-484.55 L -17.7189,-484.527
 L -17.9058,-484.503 L -18.0942,-484.503 L -18.2811,-484.527 L -18.4635,-484.573 L -18.6387,-484.643 L -18.8037,-484.734
 L -18.9561,-484.844 L -19.0934,-484.973 L -19.2135,-485.118 L -19.3145,-485.277 L -19.3947,-485.448 L -19.4529,-485.627
 L -19.4882,-485.812 L -19.5,-486 L -19.4882,-486.188 L -19.4529,-486.373 L -19.3947,-486.552 L -19.3145,-486.723
 L -19.2135,-486.882 L -19.0934,-487.027 L -18.9561,-487.156 L -18.8037,-487.266 L -18.6387,-487.357 L -18.4635,-487.427
 L -18.2811,-487.473 L -18.0942,-487.497 L -17.9058,-487.497 L -17.7189,-487.473 L -17.6261,-487.45 L -17.427,-487.763
 L -17.1869,-488.054 L -16.9123,-488.312 L -16.8184,-488.38 L -16.4659,-490.228 L -15.8122,-492.24 L -15.9561,-492.344
 L -16.0934,-492.473 L -16.2135,-492.618 L -16.3145,-492.777 L -16.3947,-492.948 L -16.4529,-493.127 L -16.4882,-493.312
 L -16.5,-493.5 L -16.4882,-493.688 L -16.4529,-493.873 L -16.3947,-494.052 L -16.3145,-494.223 L -16.2135,-494.382
 L -16.0934,-494.527 L -15.9561,-494.656 L -15.8037,-494.766 L -15.6387,-494.857 L -15.4635,-494.927 L -15.2811,-494.973
 L -15.0942,-494.997 L -14.9058,-494.997 L -14.7189,-494.973 L -14.5365,-494.927 L -14.4511,-494.893 L -13.7533,-495.992
 L -12.3925,-497.637 L -10.8362,-499.099 L -9.10905,-500.354 L -7.23824,-501.382 L -5.25328,-502.168 L -3.18547,-502.699
 L -1.06743,-502.966 L 1.06743,-502.966 L 3.18547,-502.699 L 5.25328,-502.168 L 7.23824,-501.382 L 9.10905,-500.354
 L 10.8362,-499.099 L 12.3925,-497.637 L 13.7533,-495.992 L 14.4511,-494.893 L 14.5365,-494.927 L 14.7189,-494.973
 L 14.9058,-494.997 L 15.0942,-494.997 L 15.2811,-494.973 L 15.4635,-494.927 L 15.6387,-494.857 L 15.8037,-494.766
 L 15.9561,-494.656 L 16.0934,-494.527 L 16.2135,-494.382 L 16.3145,-494.223 L 16.3947,-494.052 L 16.4529,-493.873
 L 16.4882,-493.688 L 16.5,-493.5 L 16.4882,-493.312 L 16.4529,-493.127 L 16.3947,-492.948 L 16.3145,-492.777
 L 16.2135,-492.618 L 16.0934,-492.473 L 15.9561,-492.344 L 15.8122,-492.24 L 16.4659,-490.228 L 16.8184,-488.38
 L 16.9123,-488.312 L 17.1869,-488.054 L 17.427,-487.763 L 17.6261,-487.45 L 17.7189,-487.473 L 17.9058,-487.497
 L 18.0942,-487.497 L 18.2811,-487.473 L 18.4635,-487.427 L 18.6387,-487.357 L 18.8037,-487.266 L 18.9561,-487.156
 L 19.0934,-487.027 L 19.2135,-486.882 L 19.3145,-486.723 L 19.3947,-486.552 L 19.4529,-486.373 L 19.4882,-486.188
 L 19.5,-486 L 19.4882,-485.812 L 19.4529,-485.627 L 19.3947,-485.448 L 19.3145,-485.277 L 19.2135,-485.118
 L 19.0934,-484.973 L 18.9561,-484.844 L 18.8037,-484.734 L 18.6387,-484.643 L 18.4635,-484.573 L 18.2811,-484.527
 L 18.0942,-484.503 L 17.9058,-484.503 L 17.7189,-484.527 L 17.6261,-484.55 L 17.427,-484.237 L 17.1869,-483.946
 L 16.9123,-483.688 L 16.8184,-483.62 L 16.4659,-481.772 L 15.8122,-479.76 L 15.9561,-479.656 L 16.0934,-479.527
 L 16.2135,-479.382 L 16.3145,-479.223 L 16.3947,-479.052 L 16.4529,-478.873 L 16.4882,-478.688 L 16.5,-478.5
 L 16.4882,-478.312 L 16.4529,-478.127 L 16.3947,-477.948 L 16.3145,-477.777 L 16.2135,-477.618 L 16.0934,-477.473
 L 15.9561,-477.344 L 15.8037,-477.234 L 15.6387,-477.143 L 15.4635,-477.073 L 15.2811,-477.027 L 15.0942,-477.003
 L 14.9058,-477.003 L 14.7189,-477.027 L 14.5365,-477.073 L 14.4511,-477.107 L 13.7533,-476.008 L 12.3925,-474.363
 L 10.8362,-472.901 L 9.10905,-471.646 L 7.23824,-470.618 L 5.25328,-469.832 L 3.18547,-469.301 L 1.06743,-469.034
 L 0.454224,-469.034 L 0.25116,-469.008 z
M 14.8116,-468.006 L 14.4379,-468.053 L 14.0729,-468.147 L 13.7227,-468.286 L 13.3925,-468.467 L 13.0877,-468.688
 L 12.8131,-468.946 L 12.5729,-469.237 L 12.3711,-469.555 L 12.2107,-469.896 L 12.0942,-470.254 L 12.0237,-470.624
 L 12,-471 L 12.0237,-471.376 L 12.0942,-471.746 L 12.2107,-472.104 L 12.3711,-472.445 L 12.5729,-472.763
 L 12.8131,-473.054 L 13.0877,-473.312 L 13.3925,-473.533 L 13.7227,-473.714 L 14.0729,-473.853 L 14.4379,-473.947
 L 14.8116,-473.994 L 15.1884,-473.994 L 15.5621,-473.947 L 15.927,-473.853 L 16.2773,-473.714 L 16.6075,-473.533
 L 16.9123,-473.312 L 17.1869,-473.054 L 17.427,-472.763 L 17.6289,-472.445 L 17.7893,-472.104 L 17.9057,-471.746
 L 17.9763,-471.376 L 18,-471 L 17.9763,-470.624 L 17.9057,-470.254 L 17.7893,-469.896 L 17.6289,-469.555
 L 17.427,-469.237 L 17.1869,-468.946 L 16.9123,-468.688 L 16.6075,-468.467 L 16.2773,-468.286 L 15.927,-468.147
 L 15.5621,-468.053 L 15.1884,-468.006 z
M -15.1884,-468.006 L -15.5621,-468.053 L -15.927,-468.147 L -16.2773,-468.286 L -16.6075,-468.467 L -16.9123,-468.688
 L -17.1869,-468.946 L -17.427,-469.237 L -17.6289,-469.555 L -17.7893,-469.896 L -17.9057,-470.254 L -17.9763,-470.624
 L -18,-471 L -17.9763,-471.376 L -17.9057,-471.746 L -17.7893,-472.104 L -17.6289,-472.445 L -17.427,-472.763
 L -17.1869,-473.054 L -16.9123,-473.312 L -16.6075,-473.533 L -16.2773,-473.714 L -15.927,-473.853 L -15.5621,-473.947
 L -15.1884,-473.994 L -14.8116,-473.994 L -14.4379,-473.947 L -14.0729,-473.853 L -13.7227,-473.714 L -13.3925,-473.533
 L -13.0877,-473.312 L -12.8131,-473.054 L -12.5729,-472.763 L -12.3711,-472.445 L -12.2107,-472.104 L -12.0942,-471.746
 L -12.0237,-471.376 L -12,-471 L -12.0237,-470.624 L -12.0942,-470.254 L -12.2107,-469.896 L -12.3711,-469.555
 L -12.5729,-469.237 L -12.8131,-468.946 L -13.0877,-468.688 L -13.3925,-468.467 L -13.7227,-468.286 L -14.0729,-468.147
 L -14.4379,-468.053 L -14.8116,-468.006 z
" stroke="black" fill="lightgray" stroke-width="0.5"/>
</svg>
