<?xml version="1.0" standalone="no"?>
<!DOCTYPE svg PUBLIC "-//W3C//DTD SVG 1.1//EN" "http://www.w3.org/Graphics/SVG/1.1/DTD/svg11.dtd">
<svg width="60mm" height="206mm" viewBox="-30 -400 60 206" xmlns="http://www.w3.org/2000/svg" version="1.1">
<title>OpenSCAD Model</title>
<path d="
M 25.4369,-356.089 L 26.0451,-356.245 L 26.6289,-356.476 L 27.1791,-356.778 L 27.6871,-357.147 L 28.1448,-357.577
 L 28.5451,-358.061 L 28.8815,-358.591 L 29.1489,-359.159 L 29.3429,-359.757 L 29.4606,-360.373 L 29.5,-361
 L 29.5,-395 L 29.4606,-395.627 L 29.3429,-396.243 L 29.1489,-396.841 L 28.8815,-397.409 L 28.5451,-397.939
 L 28.1448,-398.423 L 27.6871,-398.853 L 27.1791,-399.222 L 26.6289,-399.524 L 26.0451,-399.755 L 25.4369,-399.911
 L 24.8139,-399.99 L -24.8139,-399.99 L -25.4369,-399.911 L -26.0451,-399.755 L -26.6289,-399.524 L -27.1791,-399.222
 L -27.6871,-398.853 L -28.1448,-398.423 L -28.5451,-397.939 L -28.8815,-397.409 L -29.1489,-396.841 L -29.3429,-396.243
 L -29.4606,-395.627 L -29.5,-395 L -29.5,-361 L -29.4606,-360.373 L -29.3429,-359.757 L -29.1489,-359.159
 L -28.8815,-358.591 L -28.5451,-358.061 L -28.1448,-357.577 L -27.6871,-357.147 L -27.1791,-356.778 L -26.6289,-356.476
 L -26.0451,-356.245 L -25.4369,-356.089 L -24.8139,-356.01 L 24.8139,-356.01 z
M -24.7512,-357.008 L -25.2495,-357.071 L -25.7361,-357.196 L -26.2031,-357.381 L -26.6433,-357.623 L -27.0497,-357.918
 L -27.4159,-358.262 L -27.7361,-358.649 L -28.0052,-359.073 L -28.2191,-359.528 L -28.3743,-360.005 L -28.4684,-360.499
 L -28.5,-361 L -28.5,-395 L -28.4684,-395.501 L -28.3743,-395.995 L -28.2191,-396.472 L -28.0052,-396.927
 L -27.7361,-397.351 L -27.4159,-397.738 L -27.0497,-398.082 L -26.6433,-398.377 L -26.2031,-398.619 L -25.7361,-398.804
 L -25.2495,-398.929 L -24.7512,-398.992 L 24.7512,-398.992 L 25.2495,-398.929 L 25.7361,-398.804 L 26.2031,-398.619
 L 26.6433,-398.377 L 27.0497,-398.082 L 27.4159,-397.738 L 27.7361,-397.351 L 28.0052,-396.927 L 28.2191,-396.472
 L 28.3743,-395.995 L 28.4684,-395.501 L 28.5,-395 L 28.5,-361 L 28.4684,-360.499 L 28.3743,-360.005
 L 28.2191,-359.528 L 28.0052,-359.073 L 27.7361,-358.649 L 27.4159,-358.262 L 27.0497,-357.918 L 26.6433,-357.623
 L 26.2031,-357.381 L 25.7361,-357.196 L 25.2495,-357.071 L 24.7512,-357.008 z
M 25.4369,-302.089 L 26.0451,-302.245 L 26.6289,-302.476 L 27.1791,-302.778 L 27.6871,-303.147 L 28.1448,-303.577
 L 28.5451,-304.061 L 28.8815,-304.591 L 29.1489,-305.159 L 29.3429,-305.757 L 29.4606,-306.373 L 29.5,-307
 L 29.5,-341 L 29.4606,-341.627 L 29.3429,-342.243 L 29.1489,-342.841 L 28.8815,-343.409 L 28.5451,-343.939
 L 28.1448,-344.423 L 27.6871,-344.853 L 27.1791,-345.222 L 26.6289,-345.524 L 26.0451,-345.755 L 25.4369,-345.911
 L 24.8139,-345.99 L -24.8139,-345.99 L -25.4369,-345.911 L -26.0451,-345.755 L -26.6289,-345.524 L -27.1791,-345.222
 L -27.6871,-344.853 L -28.1448,-344.423 L -28.5451,-343.939 L -28.8815,-343.409 L -29.1489,-342.841 L -29.3429,-342.243
 L -29.4606,-341.627 L -29.5,-341 L -29.5,-307 L -29.4606,-306.373 L -29.3429,-305.757 L -29.1489,-305.159
 L -28.8815,-304.591 L -28.5451,-304.061 L -28.1448,-303.577 L -27.6871,-303.147 L -27.1791,-302.778 L -26.6289,-302.476
 L -26.0451,-302.245 L -25.4369,-302.089 L -24.8139,-302.01 L 24.8139,-302.01 z
M -24.7512,-303.008 L -25.2495,-303.071 L -25.7361,-303.196 L -26.2031,-303.381 L -26.6433,-303.623 L -27.0497,-303.918
 L -27.4159,-304.262 L -27.7361,-304.649 L -28.0052,-305.073 L -28.2191,-305.528 L -28.3743,-306.005 L -28.4684,-306.499
 L -28.5,-307 L -28.5,-341 L -28.4684,-341.501 L -28.3743,-341.995 L -28.2191,-342.472 L -28.0052,-342.927
 L -27.7361,-343.351 L -27.4159,-343.738 L -27.0497,-344.082 L -26.6433,-344.377 L -26.2031,-344.619 L -25.7361,-344.804
 L -25.2495,-344.929 L -24.7512,-344.992 L 24.7512,-344.992 L 25.2495,-344.929 L 25.7361,-344.804 L 26.2031,-344.619
 L 26.6433,-344.377 L 27.0497,-344.082 L 27.4159,-343.738 L 27.7361,-343.351 L 28.0052,-342.927 L 28.2191,-342.472
 L 28.3743,-341.995 L 28.4684,-341.501 L 28.5,-341 L 28.5,-307 L 28.4684,-306.499 L 28.3743,-306.005
 L 28.2191,-305.528 L 28.0052,-305.073 L 27.7361,-304.649 L 27.4159,-304.262 L 27.0497,-303.918 L 26.6433,-303.623
 L 26.2031,-303.381 L 25.7361,-303.196 L 25.2495,-303.071 L 24.7512,-303.008 z
M 25.4369,-194.089 L 26.0451,-194.245 L 26.6289,-194.476 L 27.1791,-194.778 L 27.6871,-195.147 L 28.1448,-195.577
 L 28.5451,-196.061 L 28.8815,-196.591 L 29.1489,-197.159 L 29.3429,-197.757 L 29.4606,-198.373 L 29.5,-199
 L 29.5,-233 L 29.4606,-233.627 L 29.3429,-234.243 L 29.1489,-234.841 L 28.8815,-235.409 L 28.5451,-235.939
 L 28.1448,-236.423 L 27.6871,-236.853 L 27.1791,-237.222 L 26.6289,-237.524 L 26.0451,-237.755 L 25.4369,-237.911
 L 24.8139,-237.99 L -24.8139,-237.99 L -25.4369,-237.911 L -26.0451,-237.755 L -26.6289,-237.524 L -27.1791,-237.222
 L -27.6871,-236.853 L -28.1448,-236.423 L -28.5451,-235.939 L -28.8815,-235.409 L -29.1489,-234.841 L -29.3429,-234.243
 L -29.4606,-233.627 L -29.5,-233 L -29.5,-199 L -29.4606,-198.373 L -29.3429,-197.757 L -29.1489,-197.159
 L -28.8815,-196.591 L -28.5451,-196.061 L -28.1448,-195.577 L -27.6871,-195.147 L -27.1791,-194.778 L -26.6289,-194.476
 L -26.0451,-194.245 L -25.4369,-194.089 L -24.8139,-194.01 L 24.8139,-194.01 z
M -22.6507,-228.605 L -22.9497,-228.643 L -23.2416,-228.717 L -23.5219,-228.828 L -23.786,-228.974 L -24.0298,-229.151
 L -24.2495,-229.357 L -24.4416,-229.589 L -24.6031,-229.844 L -24.7315,-230.117 L -24.8246,-230.403 L -24.8811,-230.699
 L -24.9,-231 L -24.8811,-231.301 L -24.8246,-231.597 L -24.7315,-231.883 L -24.6031,-232.156 L -24.4416,-232.411
 L -24.2495,-232.643 L -24.0298,-232.849 L -23.786,-233.026 L -23.5219,-233.172 L -23.2416,-233.283 L -22.9497,-233.357
 L -22.6507,-233.395 L -22.3493,-233.395 L -22.0503,-233.357 L -21.7583,-233.283 L -21.4781,-233.172 L -21.214,-233.026
 L -20.9702,-232.849 L -20.7505,-232.643 L -20.5583,-232.411 L -20.3969,-232.156 L -20.2685,-231.883 L -20.1754,-231.597
 L -20.1189,-231.301 L -20.1,-231 L -20.1189,-230.699 L -20.1754,-230.403 L -20.2685,-230.117 L -20.3969,-229.844
 L -20.5583,-229.589 L -20.7505,-229.357 L -20.9702,-229.151 L -21.214,-228.974 L -21.4781,-228.828 L -21.7583,-228.717
 L -22.0503,-228.643 L -22.3493,-228.605 z
M 22.3493,-228.605 L 22.0503,-228.643 L 21.7583,-228.717 L 21.4781,-228.828 L 21.214,-228.974 L 20.9702,-229.151
 L 20.7505,-229.357 L 20.5583,-229.589 L 20.3969,-229.844 L 20.2685,-230.117 L 20.1754,-230.403 L 20.1189,-230.699
 L 20.1,-231 L 20.1189,-231.301 L 20.1754,-231.597 L 20.2685,-231.883 L 20.3969,-232.156 L 20.5583,-232.411
 L 20.7505,-232.643 L 20.9702,-232.849 L 21.214,-233.026 L 21.4781,-233.172 L 21.7583,-233.283 L 22.0503,-233.357
 L 22.3493,-233.395 L 22.6507,-233.395 L 22.9497,-233.357 L 23.2416,-233.283 L 23.5219,-233.172 L 23.786,-233.026
 L 24.0298,-232.849 L 24.2495,-232.643 L 24.4416,-232.411 L 24.6031,-232.156 L 24.7315,-231.883 L 24.8246,-231.597
 L 24.8811,-231.301 L 24.9,-231 L 24.8811,-230.699 L 24.8246,-230.403 L 24.7315,-230.117 L 24.6031,-229.844
 L 24.4416,-229.589 L 24.2495,-229.357 L 24.0298,-229.151 L 23.786,-228.974 L 23.5219,-228.828 L 23.2416,-228.717
 L 22.9497,-228.643 L 22.6507,-228.605 z
M 22.3493,-198.605 L 22.0503,-198.643 L 21.7583,-198.717 L 21.4781,-198.828 L 21.214,-198.974 L 20.9702,-199.151
 L 20.7505,-199.357 L 20.5583,-199.589 L 20.3969,-199.844 L 20.2685,-200.117 L 20.1754,-200.403 L 20.1189,-200.699
 L 20.1,-201 L 20.1189,-201.301 L 20.1754,-201.597 L 20.2685,-201.883 L 20.3969,-202.156 L 20.5583,-202.411
 L 20.7505,-202.643 L 20.9702,-202.849 L 21.214,-203.026 L 21.4781,-203.172 L 21.7583,-203.283 L 22.0503,-203.357
 L 22.3493,-203.395 L 22.6507,-203.395 L 22.9497,-203.357 L 23.2416,-203.283 L 23.5219,-203.172 L 23.786,-203.026
 L 24.0298,-202.849 L 24.2495,-202.643 L 24.4416,-202.411 L 24.6031,-202.156 L 24.7315,-201.883 L 24.8246,-201.597
 L 24.8811,-201.301 L 24.9,-201 L 24.8811,-200.699 L 24.8246,-200.403 L 24.7315,-200.117 L 24.6031,-199.844
 L 24.4416,-199.589 L 24.2495,-199.357 L 24.0298,-199.151 L 23.786,-198.974 L 23.5219,-198.828 L 23.2416,-198.717
 L 22.9497,-198.643 L 22.6507,-198.605 z
M -22.6507,-198.605 L -22.9497,-198.643 L -23.2416,-198.717 L -23.5219,-198.828 L -23.786,-198.974 L -24.0298,-199.151
 L -24.2495,-199.357 L -24.4416,-199.589 L -24.6031,-199.844 L -24.7315,-200.117 L -24.8246,-200.403 L -24.8811,-200.699
 L -24.9,-201 L -24.8811,-201.301 L -24.8246,-201.597 L -24.7315,-201.883 L -24.6031,-202.156 L -24.4416,-202.411
 L -24.2495,-202.643 L -24.0298,-202.849 L -23.786,-203.026 L -23.5219,-203.172 L -23.2416,-203.283 L -22.9497,-203.357
 L -22.6507,-203.395 L -22.3493,-203.395 L -22.0503,-203.357 L -21.7583,-203.283 L -21.4781,-203.172 L -21.214,-203.026
 L -20.9702,-202.849 L -20.7505,-202.643 L -20.5583,-202.411 L -20.3969,-202.156 L -20.2685,-201.883 L -20.1754,-201.597
 L -20.1189,-201.301 L -20.1,-201 L -20.1189,-200.699 L -20.1754,-200.403 L -20.2685,-200.117 L -20.3969,-199.844
 L -20.5583,-199.589 L -20.7505,-199.357 L -20.9702,-199.151 L -21.214,-198.974 L -21.4781,-198.828 L -21.7583,-198.717
 L -22.0503,-198.643 L -22.3493,-198.605 z
M -28.5451,-250.061 L -28.1448,-249.577 L -27.6871,-249.147 L -27.1791,-248.778 L -26.6289,-248.476 L -26.0451,-248.245
 L -25.4369,-248.089 L -24.8139,-248.01 L 24.8139,-248.01 L 25.4369,-248.089 L 26.0451,-248.245 L 26.6289,-248.476
 L 27.1791,-248.778 L 27.6871,-249.147 L 28.1448,-249.577 L 28.5451,-250.061 L 28.8815,-250.591 L 29.1489,-251.159
 L 29.3429,-251.757 L 29.4606,-252.373 L 29.5,-253 L 29.5,-287 L 29.4606,-287.627 L 29.3429,-288.243
 L 29.1489,-288.841 L 28.8815,-289.409 L 28.5451,-289.939 L 28.1448,-290.423 L 27.6871,-290.853 L 27.1791,-291.222
 L 26.6289,-291.524 L 26.0451,-291.755 L 25.4369,-291.911 L 24.8139,-291.99 L -24.8139,-291.99 L -25.4369,-291.911
 L -26.0451,-291.755 L -26.6289,-291.524 L -27.1791,-291.222 L -27.6871,-290.853 L -28.1448,-290.423 L -28.5451,-289.939
 L -28.8815,-289.409 L -29.1489,-288.841 L -29.3429,-288.243 L -29.4606,-287.627 L -29.5,-287 L -29.5,-253
 L -29.4606,-252.373 L -29.3429,-251.757 L -29.1489,-251.159 L -28.8815,-250.591 z
M -27.5884,-252.61 L -27.6129,-253 L -27.6129,-287 L -27.5884,-287.39 L -27.5151,-287.774 L -27.3943,-288.146
 L -27.2279,-288.5 L -27.0184,-288.83 L -26.7692,-289.131 L -26.4842,-289.399 L -26.168,-289.628 L -25.8254,-289.817
 L -25.4619,-289.961 L -25.0833,-290.058 L -24.6954,-290.107 L 24.6954,-290.107 L 25.0833,-290.058 L 25.4619,-289.961
 L 25.8254,-289.817 L 26.168,-289.628 L 26.4842,-289.399 L 26.7692,-289.131 L 27.0184,-288.83 L 27.2279,-288.5
 L 27.3943,-288.146 L 27.5151,-287.774 L 27.5884,-287.39 L 27.6129,-287 L 27.6129,-253 L 27.5884,-252.61
 L 27.5151,-252.226 L 27.3943,-251.854 L 27.2279,-251.5 L 27.0184,-251.17 L 26.7692,-250.869 L 26.4842,-250.601
 L 26.168,-250.372 L 25.8254,-250.183 L 25.4619,-250.039 L 25.0833,-249.942 L 24.6954,-249.893 L -24.6954,-249.893
 L -25.0833,-249.942 L -25.4619,-250.039 L -25.8254,-250.183 L -26.168,-250.372 L -26.4842,-250.601 L -26.7692,-250.869
 L -27.0184,-251.17 L -27.2279,-251.5 L -27.3943,-251.854 L -27.5151,-252.226 z
" stroke="black" fill="lightgray" stroke-width="0.5"/>
</svg>
