<?xml version="1.0" standalone="no"?>
<!DOCTYPE svg PUBLIC "-//W3C//DTD SVG 1.1//EN" "http://www.w3.org/Graphics/SVG/1.1/DTD/svg11.dtd">
<svg width="6mm" height="6mm" viewBox="-3 -3 6 6" xmlns="http://www.w3.org/2000/svg" version="1.1">
<title>OpenSCAD Model</title>
<path d="
M 0.430969,2.25925 L 0.710724,2.18742 L 0.979279,2.0811 L 1.23239,1.94194 L 1.46606,1.77217 L 1.67662,1.57445
 L 1.86073,1.3519 L 2.0155,1.10803 L 2.13847,0.84668 L 2.22774,0.571976 L 2.28186,0.288254 L 2.29999,-0
 L 2.28186,-0.288254 L 2.22774,-0.571976 L 2.13847,-0.84668 L 2.0155,-1.10803 L 1.86073,-1.3519 L 1.67662,-1.57445
 L 1.46606,-1.77217 L 1.23239,-1.94194 L 0.979279,-2.0811 L 0.710724,-2.18742 L 0.430969,-2.25925 L 0.144409,-2.29546
 L -0.144409,-2.29546 L -0.430969,-2.25925 L -0.710724,-2.18742 L -0.979279,-2.0811 L -1.23239,-1.94194 L -1.46606,-1.77217
 L -1.67662,-1.57445 L -1.86073,-1.3519 L -2.0155,-1.10803 L -2.13847,-0.84668 L -2.22774,-0.571976 L -2.28186,-0.288254
 L -2.29999,-0 L -2.28186,0.288254 L -2.22774,0.571976 L -2.13847,0.84668 L -2.0155,1.10803 L -1.86073,1.3519
 L -1.67662,1.57445 L -1.46606,1.77217 L -1.23239,1.94194 L -0.979279,2.0811 L -0.710724,2.18742 L -0.430969,2.25925
 L -0.144409,2.29546 L 0.144409,2.29546 z
" stroke="black" fill="lightgray" stroke-width="0.5"/>
</svg>
