<?xml version="1.0" standalone="no"?>
<!DOCTYPE svg PUBLIC "-//W3C//DTD SVG 1.1//EN" "http://www.w3.org/Graphics/SVG/1.1/DTD/svg11.dtd">
<svg width="76mm" height="159mm" viewBox="-39 -290 76 159" xmlns="http://www.w3.org/2000/svg" version="1.1">
<title>OpenSCAD Model</title>
<path d="
M -36,-217.007 L -35.6448,-216.577 L -35.1871,-216.147 L -34.6791,-215.778 L -34.1289,-215.476 L -33.5451,-215.245
 L -32.9369,-215.089 L -32.3139,-215.01 L 32.3139,-215.01 L 32.9369,-215.089 L 33.5451,-215.245 L 34.1289,-215.476
 L 34.6791,-215.778 L 35.1871,-216.147 L 35.6448,-216.577 L 36.0451,-217.061 L 36.3815,-217.591 L 36.6489,-218.159
 L 36.8429,-218.757 L 36.9606,-219.373 L 37,-220 L 37,-284 L 36.9606,-284.627 L 36.8429,-285.243
 L 36.6489,-285.841 L 36.3815,-286.409 L 36.0451,-286.939 L 35.6448,-287.423 L 35.1871,-287.853 L 34.6791,-288.222
 L 34.1289,-288.524 L 33.5451,-288.755 L 32.9369,-288.911 L 32.3139,-288.99 L -32.3139,-288.99 L -32.9369,-288.911
 L -33.5451,-288.755 L -34.1289,-288.524 L -34.6791,-288.222 L -35.1871,-287.853 L -35.6448,-287.423 L -36,-286.993
 L -36,-289.479 L -39,-289.479 L -39,-214.521 L -36,-214.521 z
M -32.1954,-216.893 L -32.5833,-216.942 L -32.9619,-217.039 L -33.3254,-217.183 L -33.668,-217.372 L -33.9842,-217.601
 L -34.2692,-217.869 L -34.5184,-218.17 L -34.7279,-218.5 L -34.8943,-218.854 L -35.0151,-219.226 L -35.0884,-219.61
 L -35.1129,-220 L -35.1129,-284 L -35.0884,-284.39 L -35.0151,-284.774 L -34.8943,-285.146 L -34.7279,-285.5
 L -34.5184,-285.83 L -34.2692,-286.131 L -33.9842,-286.399 L -33.668,-286.628 L -33.3254,-286.817 L -32.9619,-286.961
 L -32.5833,-287.058 L -32.1954,-287.107 L 32.1954,-287.107 L 32.5833,-287.058 L 32.9619,-286.961 L 33.3254,-286.817
 L 33.668,-286.628 L 33.9842,-286.399 L 34.2692,-286.131 L 34.5184,-285.83 L 34.7279,-285.5 L 34.8943,-285.146
 L 35.0151,-284.774 L 35.0884,-284.39 L 35.1129,-284 L 35.1129,-220 L 35.0884,-219.61 L 35.0151,-219.226
 L 34.8943,-218.854 L 34.7279,-218.5 L 34.5184,-218.17 L 34.2692,-217.869 L 33.9842,-217.601 L 33.668,-217.372
 L 33.3254,-217.183 L 32.9619,-217.039 L 32.5833,-216.942 L 32.1954,-216.893 z
M 32.9369,-131.089 L 33.5451,-131.245 L 34.1289,-131.476 L 34.6791,-131.778 L 35.1871,-132.147 L 35.6448,-132.577
 L 36.0451,-133.061 L 36.3815,-133.591 L 36.6489,-134.159 L 36.8429,-134.757 L 36.9606,-135.373 L 37,-136
 L 37,-200 L 36.9606,-200.627 L 36.8429,-201.243 L 36.6489,-201.841 L 36.3815,-202.409 L 36.0451,-202.939
 L 35.6448,-203.423 L 35.1871,-203.853 L 34.6791,-204.222 L 34.1289,-204.524 L 33.5451,-204.755 L 32.9369,-204.911
 L 32.3139,-204.99 L -32.3139,-204.99 L -32.9369,-204.911 L -33.5451,-204.755 L -34.1289,-204.524 L -34.6791,-204.222
 L -35.1871,-203.853 L -35.6448,-203.423 L -36,-202.993 L -36,-204.153 L -39,-204.153 L -39,-131.847
 L -36,-131.847 L -36,-133.007 L -35.6448,-132.577 L -35.1871,-132.147 L -34.6791,-131.778 L -34.1289,-131.476
 L -33.5451,-131.245 L -32.9369,-131.089 L -32.3139,-131.01 L 32.3139,-131.01 z
M 29.8493,-195.605 L 29.5503,-195.643 L 29.2583,-195.717 L 28.9781,-195.828 L 28.714,-195.974 L 28.4702,-196.151
 L 28.2505,-196.357 L 28.0583,-196.589 L 27.8969,-196.844 L 27.7685,-197.117 L 27.6754,-197.403 L 27.6189,-197.699
 L 27.6,-198 L 27.6189,-198.301 L 27.6754,-198.597 L 27.7685,-198.883 L 27.8969,-199.156 L 28.0583,-199.411
 L 28.2505,-199.643 L 28.4702,-199.849 L 28.714,-200.026 L 28.9781,-200.172 L 29.2583,-200.283 L 29.5503,-200.357
 L 29.8493,-200.395 L 30.1507,-200.395 L 30.4497,-200.357 L 30.7416,-200.283 L 31.0219,-200.172 L 31.286,-200.026
 L 31.5298,-199.849 L 31.7495,-199.643 L 31.9416,-199.411 L 32.1031,-199.156 L 32.2315,-198.883 L 32.3246,-198.597
 L 32.3811,-198.301 L 32.4,-198 L 32.3811,-197.699 L 32.3246,-197.403 L 32.2315,-197.117 L 32.1031,-196.844
 L 31.9416,-196.589 L 31.7495,-196.357 L 31.5298,-196.151 L 31.286,-195.974 L 31.0219,-195.828 L 30.7416,-195.717
 L 30.4497,-195.643 L 30.1507,-195.605 z
M -30.1507,-195.605 L -30.4497,-195.643 L -30.7416,-195.717 L -31.0219,-195.828 L -31.286,-195.974 L -31.5298,-196.151
 L -31.7495,-196.357 L -31.9416,-196.589 L -32.1031,-196.844 L -32.2315,-197.117 L -32.3246,-197.403 L -32.3811,-197.699
 L -32.4,-198 L -32.3811,-198.301 L -32.3246,-198.597 L -32.2315,-198.883 L -32.1031,-199.156 L -31.9416,-199.411
 L -31.7495,-199.643 L -31.5298,-199.849 L -31.286,-200.026 L -31.0219,-200.172 L -30.7416,-200.283 L -30.4497,-200.357
 L -30.1507,-200.395 L -29.8493,-200.395 L -29.5503,-200.357 L -29.2583,-200.283 L -28.9781,-200.172 L -28.714,-200.026
 L -28.4702,-199.849 L -28.2505,-199.643 L -28.0583,-199.411 L -27.8969,-199.156 L -27.7685,-198.883 L -27.6754,-198.597
 L -27.6189,-198.301 L -27.6,-198 L -27.6189,-197.699 L -27.6754,-197.403 L -27.7685,-197.117 L -27.8969,-196.844
 L -28.0583,-196.589 L -28.2505,-196.357 L -28.4702,-196.151 L -28.714,-195.974 L -28.9781,-195.828 L -29.2583,-195.717
 L -29.5503,-195.643 L -29.8493,-195.605 z
M -30.1507,-135.605 L -30.4497,-135.643 L -30.7416,-135.717 L -31.0219,-135.828 L -31.286,-135.974 L -31.5298,-136.151
 L -31.7495,-136.357 L -31.9416,-136.589 L -32.1031,-136.844 L -32.2315,-137.117 L -32.3246,-137.403 L -32.3811,-137.699
 L -32.4,-138 L -32.3811,-138.301 L -32.3246,-138.597 L -32.2315,-138.883 L -32.1031,-139.156 L -31.9416,-139.411
 L -31.7495,-139.643 L -31.5298,-139.849 L -31.286,-140.026 L -31.0219,-140.172 L -30.7416,-140.283 L -30.4497,-140.357
 L -30.1507,-140.395 L -29.8493,-140.395 L -29.5503,-140.357 L -29.2583,-140.283 L -28.9781,-140.172 L -28.714,-140.026
 L -28.4702,-139.849 L -28.2505,-139.643 L -28.0583,-139.411 L -27.8969,-139.156 L -27.7685,-138.883 L -27.6754,-138.597
 L -27.6189,-138.301 L -27.6,-138 L -27.6189,-137.699 L -27.6754,-137.403 L -27.7685,-137.117 L -27.8969,-136.844
 L -28.0583,-136.589 L -28.2505,-136.357 L -28.4702,-136.151 L -28.714,-135.974 L -28.9781,-135.828 L -29.2583,-135.717
 L -29.5503,-135.643 L -29.8493,-135.605 z
M 29.8493,-135.605 L 29.5503,-135.643 L 29.2583,-135.717 L 28.9781,-135.828 L 28.714,-135.974 L 28.4702,-136.151
 L 28.2505,-136.357 L 28.0583,-136.589 L 27.8969,-136.844 L 27.7685,-137.117 L 27.6754,-137.403 L 27.6189,-137.699
 L 27.6,-138 L 27.6189,-138.301 L 27.6754,-138.597 L 27.7685,-138.883 L 27.8969,-139.156 L 28.0583,-139.411
 L 28.2505,-139.643 L 28.4702,-139.849 L 28.714,-140.026 L 28.9781,-140.172 L 29.2583,-140.283 L 29.5503,-140.357
 L 29.8493,-140.395 L 30.1507,-140.395 L 30.4497,-140.357 L 30.7416,-140.283 L 31.0219,-140.172 L 31.286,-140.026
 L 31.5298,-139.849 L 31.7495,-139.643 L 31.9416,-139.411 L 32.1031,-139.156 L 32.2315,-138.883 L 32.3246,-138.597
 L 32.3811,-138.301 L 32.4,-138 L 32.3811,-137.699 L 32.3246,-137.403 L 32.2315,-137.117 L 32.1031,-136.844
 L 31.9416,-136.589 L 31.7495,-136.357 L 31.5298,-136.151 L 31.286,-135.974 L 31.0219,-135.828 L 30.7416,-135.717
 L 30.4497,-135.643 L 30.1507,-135.605 z
" stroke="black" fill="lightgray" stroke-width="0.5"/>
</svg>
