  0
SECTION
  2
BLOCKS
  0
ENDSEC
  0
SECTION
  2
ENTITIES
  0
LINE
  8
0
 10
-17.25
 20
338.507
 11
-16.8948
 21
338.077
  0
LINE
  8
0
 10
-16.8948
 20
338.077
 11
-16.4371
 21
337.647
  0
LINE
  8
0
 10
-16.4371
 20
337.647
 11
-15.9291
 21
337.278
  0
LINE
  8
0
 10
-15.9291
 20
337.278
 11
-15.3789
 21
336.976
  0
LINE
  8
0
 10
-15.3789
 20
336.976
 11
-14.7951
 21
336.745
  0
LINE
  8
0
 10
-14.7951
 20
336.745
 11
-14.1869
 21
336.589
  0
LINE
  8
0
 10
-14.1869
 20
336.589
 11
-13.5639
 21
336.51
  0
LINE
  8
0
 10
-13.5639
 20
336.51
 11
13.5639
 21
336.51
  0
LINE
  8
0
 10
13.5639
 20
336.51
 11
14.1869
 21
336.589
  0
LINE
  8
0
 10
14.1869
 20
336.589
 11
14.7951
 21
336.745
  0
LINE
  8
0
 10
14.7951
 20
336.745
 11
15.3789
 21
336.976
  0
LINE
  8
0
 10
15.3789
 20
336.976
 11
15.9291
 21
337.278
  0
LINE
  8
0
 10
15.9291
 20
337.278
 11
16.4371
 21
337.647
  0
LINE
  8
0
 10
16.4371
 20
337.647
 11
16.8948
 21
338.077
  0
LINE
  8
0
 10
16.8948
 20
338.077
 11
17.2951
 21
338.561
  0
LINE
  8
0
 10
17.2951
 20
338.561
 11
17.6315
 21
339.091
  0
LINE
  8
0
 10
17.6315
 20
339.091
 11
17.8989
 21
339.659
  0
LINE
  8
0
 10
17.8989
 20
339.659
 11
18.0929
 21
340.257
  0
LINE
  8
0
 10
18.0929
 20
340.257
 11
18.2106
 21
340.873
  0
LINE
  8
0
 10
18.2106
 20
340.873
 11
18.25
 21
341.5
  0
LINE
  8
0
 10
18.25
 20
341.5
 11
18.25
 21
360.5
  0
LINE
  8
0
 10
18.25
 20
360.5
 11
18.2106
 21
361.127
  0
LINE
  8
0
 10
18.2106
 20
361.127
 11
18.0929
 21
361.743
  0
LINE
  8
0
 10
18.0929
 20
361.743
 11
17.8989
 21
362.341
  0
LINE
  8
0
 10
17.8989
 20
362.341
 11
17.6315
 21
362.909
  0
LINE
  8
0
 10
17.6315
 20
362.909
 11
17.2951
 21
363.439
  0
LINE
  8
0
 10
17.2951
 20
363.439
 11
16.8948
 21
363.923
  0
LINE
  8
0
 10
16.8948
 20
363.923
 11
16.4371
 21
364.353
  0
LINE
  8
0
 10
16.4371
 20
364.353
 11
15.9291
 21
364.722
  0
LINE
  8
0
 10
15.9291
 20
364.722
 11
15.3789
 21
365.024
  0
LINE
  8
0
 10
15.3789
 20
365.024
 11
14.7951
 21
365.255
  0
LINE
  8
0
 10
14.7951
 20
365.255
 11
14.1869
 21
365.411
  0
LINE
  8
0
 10
14.1869
 20
365.411
 11
13.5639
 21
365.49
  0
LINE
  8
0
 10
13.5639
 20
365.49
 11
-13.5639
 21
365.49
  0
LINE
  8
0
 10
-13.5639
 20
365.49
 11
-14.1869
 21
365.411
  0
LINE
  8
0
 10
-14.1869
 20
365.411
 11
-14.7951
 21
365.255
  0
LINE
  8
0
 10
-14.7951
 20
365.255
 11
-15.3789
 21
365.024
  0
LINE
  8
0
 10
-15.3789
 20
365.024
 11
-15.9291
 21
364.722
  0
LINE
  8
0
 10
-15.9291
 20
364.722
 11
-16.4371
 21
364.353
  0
LINE
  8
0
 10
-16.4371
 20
364.353
 11
-16.8948
 21
363.923
  0
LINE
  8
0
 10
-16.8948
 20
363.923
 11
-17.25
 21
363.493
  0
LINE
  8
0
 10
-17.25
 20
363.493
 11
-17.25
 21
365.99
  0
LINE
  8
0
 10
-17.25
 20
365.99
 11
-20.25
 21
365.99
  0
LINE
  8
0
 10
-20.25
 20
365.99
 11
-20.25
 21
336.01
  0
LINE
  8
0
 10
-20.25
 20
336.01
 11
-17.25
 21
336.01
  0
LINE
  8
0
 10
-17.25
 20
336.01
 11
-17.25
 21
338.507
  0
LINE
  8
0
 10
-13.5012
 20
337.508
 11
-13.9995
 21
337.571
  0
LINE
  8
0
 10
-13.9995
 20
337.571
 11
-14.4861
 21
337.696
  0
LINE
  8
0
 10
-14.4861
 20
337.696
 11
-14.9531
 21
337.881
  0
LINE
  8
0
 10
-14.9531
 20
337.881
 11
-15.3933
 21
338.123
  0
LINE
  8
0
 10
-15.3933
 20
338.123
 11
-15.7997
 21
338.418
  0
LINE
  8
0
 10
-15.7997
 20
338.418
 11
-16.1659
 21
338.762
  0
LINE
  8
0
 10
-16.1659
 20
338.762
 11
-16.4861
 21
339.149
  0
LINE
  8
0
 10
-16.4861
 20
339.149
 11
-16.7552
 21
339.573
  0
LINE
  8
0
 10
-16.7552
 20
339.573
 11
-16.9691
 21
340.028
  0
LINE
  8
0
 10
-16.9691
 20
340.028
 11
-17.1243
 21
340.505
  0
LINE
  8
0
 10
-17.1243
 20
340.505
 11
-17.2184
 21
340.999
  0
LINE
  8
0
 10
-17.2184
 20
340.999
 11
-17.25
 21
341.5
  0
LINE
  8
0
 10
-17.25
 20
341.5
 11
-17.25
 21
360.5
  0
LINE
  8
0
 10
-17.25
 20
360.5
 11
-17.2184
 21
361.001
  0
LINE
  8
0
 10
-17.2184
 20
361.001
 11
-17.1243
 21
361.495
  0
LINE
  8
0
 10
-17.1243
 20
361.495
 11
-16.9691
 21
361.972
  0
LINE
  8
0
 10
-16.9691
 20
361.972
 11
-16.7552
 21
362.427
  0
LINE
  8
0
 10
-16.7552
 20
362.427
 11
-16.4861
 21
362.851
  0
LINE
  8
0
 10
-16.4861
 20
362.851
 11
-16.1659
 21
363.238
  0
LINE
  8
0
 10
-16.1659
 20
363.238
 11
-15.7997
 21
363.582
  0
LINE
  8
0
 10
-15.7997
 20
363.582
 11
-15.3933
 21
363.877
  0
LINE
  8
0
 10
-15.3933
 20
363.877
 11
-14.9531
 21
364.119
  0
LINE
  8
0
 10
-14.9531
 20
364.119
 11
-14.4861
 21
364.304
  0
LINE
  8
0
 10
-14.4861
 20
364.304
 11
-13.9995
 21
364.429
  0
LINE
  8
0
 10
-13.9995
 20
364.429
 11
-13.5012
 21
364.492
  0
LINE
  8
0
 10
-13.5012
 20
364.492
 11
13.5012
 21
364.492
  0
LINE
  8
0
 10
13.5012
 20
364.492
 11
13.9995
 21
364.429
  0
LINE
  8
0
 10
13.9995
 20
364.429
 11
14.4861
 21
364.304
  0
LINE
  8
0
 10
14.4861
 20
364.304
 11
14.9531
 21
364.119
  0
LINE
  8
0
 10
14.9531
 20
364.119
 11
15.3933
 21
363.877
  0
LINE
  8
0
 10
15.3933
 20
363.877
 11
15.7997
 21
363.582
  0
LINE
  8
0
 10
15.7997
 20
363.582
 11
16.1659
 21
363.238
  0
LINE
  8
0
 10
16.1659
 20
363.238
 11
16.4861
 21
362.851
  0
LINE
  8
0
 10
16.4861
 20
362.851
 11
16.7552
 21
362.427
  0
LINE
  8
0
 10
16.7552
 20
362.427
 11
16.9691
 21
361.972
  0
LINE
  8
0
 10
16.9691
 20
361.972
 11
17.1243
 21
361.495
  0
LINE
  8
0
 10
17.1243
 20
361.495
 11
17.2184
 21
361.001
  0
LINE
  8
0
 10
17.2184
 20
361.001
 11
17.25
 21
360.5
  0
LINE
  8
0
 10
17.25
 20
360.5
 11
17.25
 21
341.5
  0
LINE
  8
0
 10
17.25
 20
341.5
 11
17.2184
 21
340.999
  0
LINE
  8
0
 10
17.2184
 20
340.999
 11
17.1243
 21
340.505
  0
LINE
  8
0
 10
17.1243
 20
340.505
 11
16.9691
 21
340.028
  0
LINE
  8
0
 10
16.9691
 20
340.028
 11
16.7552
 21
339.573
  0
LINE
  8
0
 10
16.7552
 20
339.573
 11
16.4861
 21
339.149
  0
LINE
  8
0
 10
16.4861
 20
339.149
 11
16.1659
 21
338.762
  0
LINE
  8
0
 10
16.1659
 20
338.762
 11
15.7997
 21
338.418
  0
LINE
  8
0
 10
15.7997
 20
338.418
 11
15.3933
 21
338.123
  0
LINE
  8
0
 10
15.3933
 20
338.123
 11
14.9531
 21
337.881
  0
LINE
  8
0
 10
14.9531
 20
337.881
 11
14.4861
 21
337.696
  0
LINE
  8
0
 10
14.4861
 20
337.696
 11
13.9995
 21
337.571
  0
LINE
  8
0
 10
13.9995
 20
337.571
 11
13.5012
 21
337.508
  0
LINE
  8
0
 10
13.5012
 20
337.508
 11
-13.5012
 21
337.508
  0
LINE
  8
0
 10
-17.25
 20
299.507
 11
-16.8948
 21
299.077
  0
LINE
  8
0
 10
-16.8948
 20
299.077
 11
-16.4371
 21
298.647
  0
LINE
  8
0
 10
-16.4371
 20
298.647
 11
-15.9291
 21
298.278
  0
LINE
  8
0
 10
-15.9291
 20
298.278
 11
-15.3789
 21
297.976
  0
LINE
  8
0
 10
-15.3789
 20
297.976
 11
-14.7951
 21
297.745
  0
LINE
  8
0
 10
-14.7951
 20
297.745
 11
-14.1869
 21
297.589
  0
LINE
  8
0
 10
-14.1869
 20
297.589
 11
-13.5639
 21
297.51
  0
LINE
  8
0
 10
-13.5639
 20
297.51
 11
13.5639
 21
297.51
  0
LINE
  8
0
 10
13.5639
 20
297.51
 11
14.1869
 21
297.589
  0
LINE
  8
0
 10
14.1869
 20
297.589
 11
14.7951
 21
297.745
  0
LINE
  8
0
 10
14.7951
 20
297.745
 11
15.3789
 21
297.976
  0
LINE
  8
0
 10
15.3789
 20
297.976
 11
15.9291
 21
298.278
  0
LINE
  8
0
 10
15.9291
 20
298.278
 11
16.4371
 21
298.647
  0
LINE
  8
0
 10
16.4371
 20
298.647
 11
16.8948
 21
299.077
  0
LINE
  8
0
 10
16.8948
 20
299.077
 11
17.2951
 21
299.561
  0
LINE
  8
0
 10
17.2951
 20
299.561
 11
17.6315
 21
300.091
  0
LINE
  8
0
 10
17.6315
 20
300.091
 11
17.8989
 21
300.659
  0
LINE
  8
0
 10
17.8989
 20
300.659
 11
18.0929
 21
301.257
  0
LINE
  8
0
 10
18.0929
 20
301.257
 11
18.2106
 21
301.873
  0
LINE
  8
0
 10
18.2106
 20
301.873
 11
18.25
 21
302.5
  0
LINE
  8
0
 10
18.25
 20
302.5
 11
18.25
 21
321.5
  0
LINE
  8
0
 10
18.25
 20
321.5
 11
18.2106
 21
322.127
  0
LINE
  8
0
 10
18.2106
 20
322.127
 11
18.0929
 21
322.743
  0
LINE
  8
0
 10
18.0929
 20
322.743
 11
17.8989
 21
323.341
  0
LINE
  8
0
 10
17.8989
 20
323.341
 11
17.6315
 21
323.909
  0
LINE
  8
0
 10
17.6315
 20
323.909
 11
17.2951
 21
324.439
  0
LINE
  8
0
 10
17.2951
 20
324.439
 11
16.8948
 21
324.923
  0
LINE
  8
0
 10
16.8948
 20
324.923
 11
16.4371
 21
325.353
  0
LINE
  8
0
 10
16.4371
 20
325.353
 11
15.9291
 21
325.722
  0
LINE
  8
0
 10
15.9291
 20
325.722
 11
15.3789
 21
326.024
  0
LINE
  8
0
 10
15.3789
 20
326.024
 11
14.7951
 21
326.255
  0
LINE
  8
0
 10
14.7951
 20
326.255
 11
14.1869
 21
326.411
  0
LINE
  8
0
 10
14.1869
 20
326.411
 11
13.5639
 21
326.49
  0
LINE
  8
0
 10
13.5639
 20
326.49
 11
-13.5639
 21
326.49
  0
LINE
  8
0
 10
-13.5639
 20
326.49
 11
-14.1869
 21
326.411
  0
LINE
  8
0
 10
-14.1869
 20
326.411
 11
-14.7951
 21
326.255
  0
LINE
  8
0
 10
-14.7951
 20
326.255
 11
-15.3789
 21
326.024
  0
LINE
  8
0
 10
-15.3789
 20
326.024
 11
-15.9291
 21
325.722
  0
LINE
  8
0
 10
-15.9291
 20
325.722
 11
-16.4371
 21
325.353
  0
LINE
  8
0
 10
-16.4371
 20
325.353
 11
-16.8948
 21
324.923
  0
LINE
  8
0
 10
-16.8948
 20
324.923
 11
-17.25
 21
324.493
  0
LINE
  8
0
 10
-17.25
 20
324.493
 11
-17.25
 21
326.99
  0
LINE
  8
0
 10
-17.25
 20
326.99
 11
-20.25
 21
326.99
  0
LINE
  8
0
 10
-20.25
 20
326.99
 11
-20.25
 21
297.01
  0
LINE
  8
0
 10
-20.25
 20
297.01
 11
-17.25
 21
297.01
  0
LINE
  8
0
 10
-17.25
 20
297.01
 11
-17.25
 21
299.507
  0
LINE
  8
0
 10
-13.5012
 20
298.508
 11
-13.9995
 21
298.571
  0
LINE
  8
0
 10
-13.9995
 20
298.571
 11
-14.4861
 21
298.696
  0
LINE
  8
0
 10
-14.4861
 20
298.696
 11
-14.9531
 21
298.881
  0
LINE
  8
0
 10
-14.9531
 20
298.881
 11
-15.3933
 21
299.123
  0
LINE
  8
0
 10
-15.3933
 20
299.123
 11
-15.7997
 21
299.418
  0
LINE
  8
0
 10
-15.7997
 20
299.418
 11
-16.1659
 21
299.762
  0
LINE
  8
0
 10
-16.1659
 20
299.762
 11
-16.4861
 21
300.149
  0
LINE
  8
0
 10
-16.4861
 20
300.149
 11
-16.7552
 21
300.573
  0
LINE
  8
0
 10
-16.7552
 20
300.573
 11
-16.9691
 21
301.028
  0
LINE
  8
0
 10
-16.9691
 20
301.028
 11
-17.1243
 21
301.505
  0
LINE
  8
0
 10
-17.1243
 20
301.505
 11
-17.2184
 21
301.999
  0
LINE
  8
0
 10
-17.2184
 20
301.999
 11
-17.25
 21
302.5
  0
LINE
  8
0
 10
-17.25
 20
302.5
 11
-17.25
 21
321.5
  0
LINE
  8
0
 10
-17.25
 20
321.5
 11
-17.2184
 21
322.001
  0
LINE
  8
0
 10
-17.2184
 20
322.001
 11
-17.1243
 21
322.495
  0
LINE
  8
0
 10
-17.1243
 20
322.495
 11
-16.9691
 21
322.972
  0
LINE
  8
0
 10
-16.9691
 20
322.972
 11
-16.7552
 21
323.427
  0
LINE
  8
0
 10
-16.7552
 20
323.427
 11
-16.4861
 21
323.851
  0
LINE
  8
0
 10
-16.4861
 20
323.851
 11
-16.1659
 21
324.238
  0
LINE
  8
0
 10
-16.1659
 20
324.238
 11
-15.7997
 21
324.582
  0
LINE
  8
0
 10
-15.7997
 20
324.582
 11
-15.3933
 21
324.877
  0
LINE
  8
0
 10
-15.3933
 20
324.877
 11
-14.9531
 21
325.119
  0
LINE
  8
0
 10
-14.9531
 20
325.119
 11
-14.4861
 21
325.304
  0
LINE
  8
0
 10
-14.4861
 20
325.304
 11
-13.9995
 21
325.429
  0
LINE
  8
0
 10
-13.9995
 20
325.429
 11
-13.5012
 21
325.492
  0
LINE
  8
0
 10
-13.5012
 20
325.492
 11
13.5012
 21
325.492
  0
LINE
  8
0
 10
13.5012
 20
325.492
 11
13.9995
 21
325.429
  0
LINE
  8
0
 10
13.9995
 20
325.429
 11
14.4861
 21
325.304
  0
LINE
  8
0
 10
14.4861
 20
325.304
 11
14.9531
 21
325.119
  0
LINE
  8
0
 10
14.9531
 20
325.119
 11
15.3933
 21
324.877
  0
LINE
  8
0
 10
15.3933
 20
324.877
 11
15.7997
 21
324.582
  0
LINE
  8
0
 10
15.7997
 20
324.582
 11
16.1659
 21
324.238
  0
LINE
  8
0
 10
16.1659
 20
324.238
 11
16.4861
 21
323.851
  0
LINE
  8
0
 10
16.4861
 20
323.851
 11
16.7552
 21
323.427
  0
LINE
  8
0
 10
16.7552
 20
323.427
 11
16.9691
 21
322.972
  0
LINE
  8
0
 10
16.9691
 20
322.972
 11
17.1243
 21
322.495
  0
LINE
  8
0
 10
17.1243
 20
322.495
 11
17.2184
 21
322.001
  0
LINE
  8
0
 10
17.2184
 20
322.001
 11
17.25
 21
321.5
  0
LINE
  8
0
 10
17.25
 20
321.5
 11
17.25
 21
302.5
  0
LINE
  8
0
 10
17.25
 20
302.5
 11
17.2184
 21
301.999
  0
LINE
  8
0
 10
17.2184
 20
301.999
 11
17.1243
 21
301.505
  0
LINE
  8
0
 10
17.1243
 20
301.505
 11
16.9691
 21
301.028
  0
LINE
  8
0
 10
16.9691
 20
301.028
 11
16.7552
 21
300.573
  0
LINE
  8
0
 10
16.7552
 20
300.573
 11
16.4861
 21
300.149
  0
LINE
  8
0
 10
16.4861
 20
300.149
 11
16.1659
 21
299.762
  0
LINE
  8
0
 10
16.1659
 20
299.762
 11
15.7997
 21
299.418
  0
LINE
  8
0
 10
15.7997
 20
299.418
 11
15.3933
 21
299.123
  0
LINE
  8
0
 10
15.3933
 20
299.123
 11
14.9531
 21
298.881
  0
LINE
  8
0
 10
14.9531
 20
298.881
 11
14.4861
 21
298.696
  0
LINE
  8
0
 10
14.4861
 20
298.696
 11
13.9995
 21
298.571
  0
LINE
  8
0
 10
13.9995
 20
298.571
 11
13.5012
 21
298.508
  0
LINE
  8
0
 10
13.5012
 20
298.508
 11
-13.5012
 21
298.508
  0
LINE
  8
0
 10
-17.25
 20
260.507
 11
-16.8948
 21
260.077
  0
LINE
  8
0
 10
-16.8948
 20
260.077
 11
-16.4371
 21
259.647
  0
LINE
  8
0
 10
-16.4371
 20
259.647
 11
-15.9291
 21
259.278
  0
LINE
  8
0
 10
-15.9291
 20
259.278
 11
-15.3789
 21
258.976
  0
LINE
  8
0
 10
-15.3789
 20
258.976
 11
-14.7951
 21
258.745
  0
LINE
  8
0
 10
-14.7951
 20
258.745
 11
-14.1869
 21
258.589
  0
LINE
  8
0
 10
-14.1869
 20
258.589
 11
-13.5639
 21
258.51
  0
LINE
  8
0
 10
-13.5639
 20
258.51
 11
13.5639
 21
258.51
  0
LINE
  8
0
 10
13.5639
 20
258.51
 11
14.1869
 21
258.589
  0
LINE
  8
0
 10
14.1869
 20
258.589
 11
14.7951
 21
258.745
  0
LINE
  8
0
 10
14.7951
 20
258.745
 11
15.3789
 21
258.976
  0
LINE
  8
0
 10
15.3789
 20
258.976
 11
15.9291
 21
259.278
  0
LINE
  8
0
 10
15.9291
 20
259.278
 11
16.4371
 21
259.647
  0
LINE
  8
0
 10
16.4371
 20
259.647
 11
16.8948
 21
260.077
  0
LINE
  8
0
 10
16.8948
 20
260.077
 11
17.2951
 21
260.561
  0
LINE
  8
0
 10
17.2951
 20
260.561
 11
17.6315
 21
261.091
  0
LINE
  8
0
 10
17.6315
 20
261.091
 11
17.8989
 21
261.659
  0
LINE
  8
0
 10
17.8989
 20
261.659
 11
18.0929
 21
262.257
  0
LINE
  8
0
 10
18.0929
 20
262.257
 11
18.2106
 21
262.873
  0
LINE
  8
0
 10
18.2106
 20
262.873
 11
18.25
 21
263.5
  0
LINE
  8
0
 10
18.25
 20
263.5
 11
18.25
 21
282.5
  0
LINE
  8
0
 10
18.25
 20
282.5
 11
18.2106
 21
283.127
  0
LINE
  8
0
 10
18.2106
 20
283.127
 11
18.0929
 21
283.743
  0
LINE
  8
0
 10
18.0929
 20
283.743
 11
17.8989
 21
284.341
  0
LINE
  8
0
 10
17.8989
 20
284.341
 11
17.6315
 21
284.909
  0
LINE
  8
0
 10
17.6315
 20
284.909
 11
17.2951
 21
285.439
  0
LINE
  8
0
 10
17.2951
 20
285.439
 11
16.8948
 21
285.923
  0
LINE
  8
0
 10
16.8948
 20
285.923
 11
16.4371
 21
286.353
  0
LINE
  8
0
 10
16.4371
 20
286.353
 11
15.9291
 21
286.722
  0
LINE
  8
0
 10
15.9291
 20
286.722
 11
15.3789
 21
287.024
  0
LINE
  8
0
 10
15.3789
 20
287.024
 11
14.7951
 21
287.255
  0
LINE
  8
0
 10
14.7951
 20
287.255
 11
14.1869
 21
287.411
  0
LINE
  8
0
 10
14.1869
 20
287.411
 11
13.5639
 21
287.49
  0
LINE
  8
0
 10
13.5639
 20
287.49
 11
-13.5639
 21
287.49
  0
LINE
  8
0
 10
-13.5639
 20
287.49
 11
-14.1869
 21
287.411
  0
LINE
  8
0
 10
-14.1869
 20
287.411
 11
-14.7951
 21
287.255
  0
LINE
  8
0
 10
-14.7951
 20
287.255
 11
-15.3789
 21
287.024
  0
LINE
  8
0
 10
-15.3789
 20
287.024
 11
-15.9291
 21
286.722
  0
LINE
  8
0
 10
-15.9291
 20
286.722
 11
-16.4371
 21
286.353
  0
LINE
  8
0
 10
-16.4371
 20
286.353
 11
-16.8948
 21
285.923
  0
LINE
  8
0
 10
-16.8948
 20
285.923
 11
-17.25
 21
285.493
  0
LINE
  8
0
 10
-17.25
 20
285.493
 11
-17.25
 21
287.99
  0
LINE
  8
0
 10
-17.25
 20
287.99
 11
-20.25
 21
287.99
  0
LINE
  8
0
 10
-20.25
 20
287.99
 11
-20.25
 21
258.01
  0
LINE
  8
0
 10
-20.25
 20
258.01
 11
-17.25
 21
258.01
  0
LINE
  8
0
 10
-17.25
 20
258.01
 11
-17.25
 21
260.507
  0
LINE
  8
0
 10
-13.5012
 20
259.508
 11
-13.9995
 21
259.571
  0
LINE
  8
0
 10
-13.9995
 20
259.571
 11
-14.4861
 21
259.696
  0
LINE
  8
0
 10
-14.4861
 20
259.696
 11
-14.9531
 21
259.881
  0
LINE
  8
0
 10
-14.9531
 20
259.881
 11
-15.3933
 21
260.123
  0
LINE
  8
0
 10
-15.3933
 20
260.123
 11
-15.7997
 21
260.418
  0
LINE
  8
0
 10
-15.7997
 20
260.418
 11
-16.1659
 21
260.762
  0
LINE
  8
0
 10
-16.1659
 20
260.762
 11
-16.4861
 21
261.149
  0
LINE
  8
0
 10
-16.4861
 20
261.149
 11
-16.7552
 21
261.573
  0
LINE
  8
0
 10
-16.7552
 20
261.573
 11
-16.9691
 21
262.028
  0
LINE
  8
0
 10
-16.9691
 20
262.028
 11
-17.1243
 21
262.505
  0
LINE
  8
0
 10
-17.1243
 20
262.505
 11
-17.2184
 21
262.999
  0
LINE
  8
0
 10
-17.2184
 20
262.999
 11
-17.25
 21
263.5
  0
LINE
  8
0
 10
-17.25
 20
263.5
 11
-17.25
 21
282.5
  0
LINE
  8
0
 10
-17.25
 20
282.5
 11
-17.2184
 21
283.001
  0
LINE
  8
0
 10
-17.2184
 20
283.001
 11
-17.1243
 21
283.495
  0
LINE
  8
0
 10
-17.1243
 20
283.495
 11
-16.9691
 21
283.972
  0
LINE
  8
0
 10
-16.9691
 20
283.972
 11
-16.7552
 21
284.427
  0
LINE
  8
0
 10
-16.7552
 20
284.427
 11
-16.4861
 21
284.851
  0
LINE
  8
0
 10
-16.4861
 20
284.851
 11
-16.1659
 21
285.238
  0
LINE
  8
0
 10
-16.1659
 20
285.238
 11
-15.7997
 21
285.582
  0
LINE
  8
0
 10
-15.7997
 20
285.582
 11
-15.3933
 21
285.877
  0
LINE
  8
0
 10
-15.3933
 20
285.877
 11
-14.9531
 21
286.119
  0
LINE
  8
0
 10
-14.9531
 20
286.119
 11
-14.4861
 21
286.304
  0
LINE
  8
0
 10
-14.4861
 20
286.304
 11
-13.9995
 21
286.429
  0
LINE
  8
0
 10
-13.9995
 20
286.429
 11
-13.5012
 21
286.492
  0
LINE
  8
0
 10
-13.5012
 20
286.492
 11
13.5012
 21
286.492
  0
LINE
  8
0
 10
13.5012
 20
286.492
 11
13.9995
 21
286.429
  0
LINE
  8
0
 10
13.9995
 20
286.429
 11
14.4861
 21
286.304
  0
LINE
  8
0
 10
14.4861
 20
286.304
 11
14.9531
 21
286.119
  0
LINE
  8
0
 10
14.9531
 20
286.119
 11
15.3933
 21
285.877
  0
LINE
  8
0
 10
15.3933
 20
285.877
 11
15.7997
 21
285.582
  0
LINE
  8
0
 10
15.7997
 20
285.582
 11
16.1659
 21
285.238
  0
LINE
  8
0
 10
16.1659
 20
285.238
 11
16.4861
 21
284.851
  0
LINE
  8
0
 10
16.4861
 20
284.851
 11
16.7552
 21
284.427
  0
LINE
  8
0
 10
16.7552
 20
284.427
 11
16.9691
 21
283.972
  0
LINE
  8
0
 10
16.9691
 20
283.972
 11
17.1243
 21
283.495
  0
LINE
  8
0
 10
17.1243
 20
283.495
 11
17.2184
 21
283.001
  0
LINE
  8
0
 10
17.2184
 20
283.001
 11
17.25
 21
282.5
  0
LINE
  8
0
 10
17.25
 20
282.5
 11
17.25
 21
263.5
  0
LINE
  8
0
 10
17.25
 20
263.5
 11
17.2184
 21
262.999
  0
LINE
  8
0
 10
17.2184
 20
262.999
 11
17.1243
 21
262.505
  0
LINE
  8
0
 10
17.1243
 20
262.505
 11
16.9691
 21
262.028
  0
LINE
  8
0
 10
16.9691
 20
262.028
 11
16.7552
 21
261.573
  0
LINE
  8
0
 10
16.7552
 20
261.573
 11
16.4861
 21
261.149
  0
LINE
  8
0
 10
16.4861
 20
261.149
 11
16.1659
 21
260.762
  0
LINE
  8
0
 10
16.1659
 20
260.762
 11
15.7997
 21
260.418
  0
LINE
  8
0
 10
15.7997
 20
260.418
 11
15.3933
 21
260.123
  0
LINE
  8
0
 10
15.3933
 20
260.123
 11
14.9531
 21
259.881
  0
LINE
  8
0
 10
14.9531
 20
259.881
 11
14.4861
 21
259.696
  0
LINE
  8
0
 10
14.4861
 20
259.696
 11
13.9995
 21
259.571
  0
LINE
  8
0
 10
13.9995
 20
259.571
 11
13.5012
 21
259.508
  0
LINE
  8
0
 10
13.5012
 20
259.508
 11
-13.5012
 21
259.508
  0
LINE
  8
0
 10
-17.25
 20
221.507
 11
-16.8948
 21
221.077
  0
LINE
  8
0
 10
-16.8948
 20
221.077
 11
-16.4371
 21
220.647
  0
LINE
  8
0
 10
-16.4371
 20
220.647
 11
-15.9291
 21
220.278
  0
LINE
  8
0
 10
-15.9291
 20
220.278
 11
-15.3789
 21
219.976
  0
LINE
  8
0
 10
-15.3789
 20
219.976
 11
-14.7951
 21
219.745
  0
LINE
  8
0
 10
-14.7951
 20
219.745
 11
-14.1869
 21
219.589
  0
LINE
  8
0
 10
-14.1869
 20
219.589
 11
-13.5639
 21
219.51
  0
LINE
  8
0
 10
-13.5639
 20
219.51
 11
13.5639
 21
219.51
  0
LINE
  8
0
 10
13.5639
 20
219.51
 11
14.1869
 21
219.589
  0
LINE
  8
0
 10
14.1869
 20
219.589
 11
14.7951
 21
219.745
  0
LINE
  8
0
 10
14.7951
 20
219.745
 11
15.3789
 21
219.976
  0
LINE
  8
0
 10
15.3789
 20
219.976
 11
15.9291
 21
220.278
  0
LINE
  8
0
 10
15.9291
 20
220.278
 11
16.4371
 21
220.647
  0
LINE
  8
0
 10
16.4371
 20
220.647
 11
16.8948
 21
221.077
  0
LINE
  8
0
 10
16.8948
 20
221.077
 11
17.2951
 21
221.561
  0
LINE
  8
0
 10
17.2951
 20
221.561
 11
17.6315
 21
222.091
  0
LINE
  8
0
 10
17.6315
 20
222.091
 11
17.8989
 21
222.659
  0
LINE
  8
0
 10
17.8989
 20
222.659
 11
18.0929
 21
223.257
  0
LINE
  8
0
 10
18.0929
 20
223.257
 11
18.2106
 21
223.873
  0
LINE
  8
0
 10
18.2106
 20
223.873
 11
18.25
 21
224.5
  0
LINE
  8
0
 10
18.25
 20
224.5
 11
18.25
 21
243.5
  0
LINE
  8
0
 10
18.25
 20
243.5
 11
18.2106
 21
244.127
  0
LINE
  8
0
 10
18.2106
 20
244.127
 11
18.0929
 21
244.743
  0
LINE
  8
0
 10
18.0929
 20
244.743
 11
17.8989
 21
245.341
  0
LINE
  8
0
 10
17.8989
 20
245.341
 11
17.6315
 21
245.909
  0
LINE
  8
0
 10
17.6315
 20
245.909
 11
17.2951
 21
246.439
  0
LINE
  8
0
 10
17.2951
 20
246.439
 11
16.8948
 21
246.923
  0
LINE
  8
0
 10
16.8948
 20
246.923
 11
16.4371
 21
247.353
  0
LINE
  8
0
 10
16.4371
 20
247.353
 11
15.9291
 21
247.722
  0
LINE
  8
0
 10
15.9291
 20
247.722
 11
15.3789
 21
248.024
  0
LINE
  8
0
 10
15.3789
 20
248.024
 11
14.7951
 21
248.255
  0
LINE
  8
0
 10
14.7951
 20
248.255
 11
14.1869
 21
248.411
  0
LINE
  8
0
 10
14.1869
 20
248.411
 11
13.5639
 21
248.49
  0
LINE
  8
0
 10
13.5639
 20
248.49
 11
-13.5639
 21
248.49
  0
LINE
  8
0
 10
-13.5639
 20
248.49
 11
-14.1869
 21
248.411
  0
LINE
  8
0
 10
-14.1869
 20
248.411
 11
-14.7951
 21
248.255
  0
LINE
  8
0
 10
-14.7951
 20
248.255
 11
-15.3789
 21
248.024
  0
LINE
  8
0
 10
-15.3789
 20
248.024
 11
-15.9291
 21
247.722
  0
LINE
  8
0
 10
-15.9291
 20
247.722
 11
-16.4371
 21
247.353
  0
LINE
  8
0
 10
-16.4371
 20
247.353
 11
-16.8948
 21
246.923
  0
LINE
  8
0
 10
-16.8948
 20
246.923
 11
-17.25
 21
246.493
  0
LINE
  8
0
 10
-17.25
 20
246.493
 11
-17.25
 21
248.979
  0
LINE
  8
0
 10
-17.25
 20
248.979
 11
-20.25
 21
248.979
  0
LINE
  8
0
 10
-20.25
 20
248.979
 11
-20.25
 21
219.021
  0
LINE
  8
0
 10
-20.25
 20
219.021
 11
-17.25
 21
219.021
  0
LINE
  8
0
 10
-17.25
 20
219.021
 11
-17.25
 21
221.507
  0
LINE
  8
0
 10
-13.4454
 20
221.393
 11
-13.8333
 21
221.442
  0
LINE
  8
0
 10
-13.8333
 20
221.442
 11
-14.2119
 21
221.539
  0
LINE
  8
0
 10
-14.2119
 20
221.539
 11
-14.5754
 21
221.683
  0
LINE
  8
0
 10
-14.5754
 20
221.683
 11
-14.918
 21
221.872
  0
LINE
  8
0
 10
-14.918
 20
221.872
 11
-15.2342
 21
222.101
  0
LINE
  8
0
 10
-15.2342
 20
222.101
 11
-15.5192
 21
222.369
  0
LINE
  8
0
 10
-15.5192
 20
222.369
 11
-15.7684
 21
222.67
  0
LINE
  8
0
 10
-15.7684
 20
222.67
 11
-15.9779
 21
223
  0
LINE
  8
0
 10
-15.9779
 20
223
 11
-16.1443
 21
223.354
  0
LINE
  8
0
 10
-16.1443
 20
223.354
 11
-16.2651
 21
223.726
  0
LINE
  8
0
 10
-16.2651
 20
223.726
 11
-16.3384
 21
224.11
  0
LINE
  8
0
 10
-16.3384
 20
224.11
 11
-16.3629
 21
224.5
  0
LINE
  8
0
 10
-16.3629
 20
224.5
 11
-16.3629
 21
243.5
  0
LINE
  8
0
 10
-16.3629
 20
243.5
 11
-16.3384
 21
243.89
  0
LINE
  8
0
 10
-16.3384
 20
243.89
 11
-16.2651
 21
244.274
  0
LINE
  8
0
 10
-16.2651
 20
244.274
 11
-16.1443
 21
244.646
  0
LINE
  8
0
 10
-16.1443
 20
244.646
 11
-15.9779
 21
245
  0
LINE
  8
0
 10
-15.9779
 20
245
 11
-15.7684
 21
245.33
  0
LINE
  8
0
 10
-15.7684
 20
245.33
 11
-15.5192
 21
245.631
  0
LINE
  8
0
 10
-15.5192
 20
245.631
 11
-15.2342
 21
245.899
  0
LINE
  8
0
 10
-15.2342
 20
245.899
 11
-14.918
 21
246.128
  0
LINE
  8
0
 10
-14.918
 20
246.128
 11
-14.5754
 21
246.317
  0
LINE
  8
0
 10
-14.5754
 20
246.317
 11
-14.2119
 21
246.461
  0
LINE
  8
0
 10
-14.2119
 20
246.461
 11
-13.8333
 21
246.558
  0
LINE
  8
0
 10
-13.8333
 20
246.558
 11
-13.4454
 21
246.607
  0
LINE
  8
0
 10
-13.4454
 20
246.607
 11
13.4454
 21
246.607
  0
LINE
  8
0
 10
13.4454
 20
246.607
 11
13.8333
 21
246.558
  0
LINE
  8
0
 10
13.8333
 20
246.558
 11
14.2119
 21
246.461
  0
LINE
  8
0
 10
14.2119
 20
246.461
 11
14.5754
 21
246.317
  0
LINE
  8
0
 10
14.5754
 20
246.317
 11
14.918
 21
246.128
  0
LINE
  8
0
 10
14.918
 20
246.128
 11
15.2342
 21
245.899
  0
LINE
  8
0
 10
15.2342
 20
245.899
 11
15.5192
 21
245.631
  0
LINE
  8
0
 10
15.5192
 20
245.631
 11
15.7684
 21
245.33
  0
LINE
  8
0
 10
15.7684
 20
245.33
 11
15.9779
 21
245
  0
LINE
  8
0
 10
15.9779
 20
245
 11
16.1443
 21
244.646
  0
LINE
  8
0
 10
16.1443
 20
244.646
 11
16.2651
 21
244.274
  0
LINE
  8
0
 10
16.2651
 20
244.274
 11
16.3384
 21
243.89
  0
LINE
  8
0
 10
16.3384
 20
243.89
 11
16.3629
 21
243.5
  0
LINE
  8
0
 10
16.3629
 20
243.5
 11
16.3629
 21
224.5
  0
LINE
  8
0
 10
16.3629
 20
224.5
 11
16.3384
 21
224.11
  0
LINE
  8
0
 10
16.3384
 20
224.11
 11
16.2651
 21
223.726
  0
LINE
  8
0
 10
16.2651
 20
223.726
 11
16.1443
 21
223.354
  0
LINE
  8
0
 10
16.1443
 20
223.354
 11
15.9779
 21
223
  0
LINE
  8
0
 10
15.9779
 20
223
 11
15.7684
 21
222.67
  0
LINE
  8
0
 10
15.7684
 20
222.67
 11
15.5192
 21
222.369
  0
LINE
  8
0
 10
15.5192
 20
222.369
 11
15.2342
 21
222.101
  0
LINE
  8
0
 10
15.2342
 20
222.101
 11
14.918
 21
221.872
  0
LINE
  8
0
 10
14.918
 20
221.872
 11
14.5754
 21
221.683
  0
LINE
  8
0
 10
14.5754
 20
221.683
 11
14.2119
 21
221.539
  0
LINE
  8
0
 10
14.2119
 20
221.539
 11
13.8333
 21
221.442
  0
LINE
  8
0
 10
13.8333
 20
221.442
 11
13.4454
 21
221.393
  0
LINE
  8
0
 10
13.4454
 20
221.393
 11
-13.4454
 21
221.393
  0
LINE
  8
0
 10
14.1869
 20
180.589
 11
14.7951
 21
180.745
  0
LINE
  8
0
 10
14.7951
 20
180.745
 11
15.3789
 21
180.976
  0
LINE
  8
0
 10
15.3789
 20
180.976
 11
15.9291
 21
181.278
  0
LINE
  8
0
 10
15.9291
 20
181.278
 11
16.4371
 21
181.647
  0
LINE
  8
0
 10
16.4371
 20
181.647
 11
16.8948
 21
182.077
  0
LINE
  8
0
 10
16.8948
 20
182.077
 11
17.2951
 21
182.561
  0
LINE
  8
0
 10
17.2951
 20
182.561
 11
17.6315
 21
183.091
  0
LINE
  8
0
 10
17.6315
 20
183.091
 11
17.8989
 21
183.659
  0
LINE
  8
0
 10
17.8989
 20
183.659
 11
18.0929
 21
184.257
  0
LINE
  8
0
 10
18.0929
 20
184.257
 11
18.2106
 21
184.873
  0
LINE
  8
0
 10
18.2106
 20
184.873
 11
18.25
 21
185.5
  0
LINE
  8
0
 10
18.25
 20
185.5
 11
18.25
 21
204.5
  0
LINE
  8
0
 10
18.25
 20
204.5
 11
18.2106
 21
205.127
  0
LINE
  8
0
 10
18.2106
 20
205.127
 11
18.0929
 21
205.743
  0
LINE
  8
0
 10
18.0929
 20
205.743
 11
17.8989
 21
206.341
  0
LINE
  8
0
 10
17.8989
 20
206.341
 11
17.6315
 21
206.909
  0
LINE
  8
0
 10
17.6315
 20
206.909
 11
17.2951
 21
207.439
  0
LINE
  8
0
 10
17.2951
 20
207.439
 11
16.8948
 21
207.923
  0
LINE
  8
0
 10
16.8948
 20
207.923
 11
16.4371
 21
208.353
  0
LINE
  8
0
 10
16.4371
 20
208.353
 11
15.9291
 21
208.722
  0
LINE
  8
0
 10
15.9291
 20
208.722
 11
15.3789
 21
209.024
  0
LINE
  8
0
 10
15.3789
 20
209.024
 11
14.7951
 21
209.255
  0
LINE
  8
0
 10
14.7951
 20
209.255
 11
14.1869
 21
209.411
  0
LINE
  8
0
 10
14.1869
 20
209.411
 11
13.5639
 21
209.49
  0
LINE
  8
0
 10
13.5639
 20
209.49
 11
-13.5639
 21
209.49
  0
LINE
  8
0
 10
-13.5639
 20
209.49
 11
-14.1869
 21
209.411
  0
LINE
  8
0
 10
-14.1869
 20
209.411
 11
-14.7951
 21
209.255
  0
LINE
  8
0
 10
-14.7951
 20
209.255
 11
-15.3789
 21
209.024
  0
LINE
  8
0
 10
-15.3789
 20
209.024
 11
-15.9291
 21
208.722
  0
LINE
  8
0
 10
-15.9291
 20
208.722
 11
-16.4371
 21
208.353
  0
LINE
  8
0
 10
-16.4371
 20
208.353
 11
-16.8948
 21
207.923
  0
LINE
  8
0
 10
-16.8948
 20
207.923
 11
-17.25
 21
207.493
  0
LINE
  8
0
 10
-17.25
 20
207.493
 11
-17.25
 21
208.653
  0
LINE
  8
0
 10
-17.25
 20
208.653
 11
-20.25
 21
208.653
  0
LINE
  8
0
 10
-20.25
 20
208.653
 11
-20.25
 21
181.347
  0
LINE
  8
0
 10
-20.25
 20
181.347
 11
-17.25
 21
181.347
  0
LINE
  8
0
 10
-17.25
 20
181.347
 11
-17.25
 21
182.507
  0
LINE
  8
0
 10
-17.25
 20
182.507
 11
-16.8948
 21
182.077
  0
LINE
  8
0
 10
-16.8948
 20
182.077
 11
-16.4371
 21
181.647
  0
LINE
  8
0
 10
-16.4371
 20
181.647
 11
-15.9291
 21
181.278
  0
LINE
  8
0
 10
-15.9291
 20
181.278
 11
-15.3789
 21
180.976
  0
LINE
  8
0
 10
-15.3789
 20
180.976
 11
-14.7951
 21
180.745
  0
LINE
  8
0
 10
-14.7951
 20
180.745
 11
-14.1869
 21
180.589
  0
LINE
  8
0
 10
-14.1869
 20
180.589
 11
-13.5639
 21
180.51
  0
LINE
  8
0
 10
-13.5639
 20
180.51
 11
13.5639
 21
180.51
  0
LINE
  8
0
 10
13.5639
 20
180.51
 11
14.1869
 21
180.589
  0
LINE
  8
0
 10
-11.4007
 20
200.105
 11
-11.6997
 21
200.143
  0
LINE
  8
0
 10
-11.6997
 20
200.143
 11
-11.9916
 21
200.217
  0
LINE
  8
0
 10
-11.9916
 20
200.217
 11
-12.2719
 21
200.328
  0
LINE
  8
0
 10
-12.2719
 20
200.328
 11
-12.536
 21
200.474
  0
LINE
  8
0
 10
-12.536
 20
200.474
 11
-12.7798
 21
200.651
  0
LINE
  8
0
 10
-12.7798
 20
200.651
 11
-12.9995
 21
200.857
  0
LINE
  8
0
 10
-12.9995
 20
200.857
 11
-13.1916
 21
201.089
  0
LINE
  8
0
 10
-13.1916
 20
201.089
 11
-13.3531
 21
201.344
  0
LINE
  8
0
 10
-13.3531
 20
201.344
 11
-13.4815
 21
201.617
  0
LINE
  8
0
 10
-13.4815
 20
201.617
 11
-13.5746
 21
201.903
  0
LINE
  8
0
 10
-13.5746
 20
201.903
 11
-13.6311
 21
202.199
  0
LINE
  8
0
 10
-13.6311
 20
202.199
 11
-13.65
 21
202.5
  0
LINE
  8
0
 10
-13.65
 20
202.5
 11
-13.6311
 21
202.801
  0
LINE
  8
0
 10
-13.6311
 20
202.801
 11
-13.5746
 21
203.097
  0
LINE
  8
0
 10
-13.5746
 20
203.097
 11
-13.4815
 21
203.383
  0
LINE
  8
0
 10
-13.4815
 20
203.383
 11
-13.3531
 21
203.656
  0
LINE
  8
0
 10
-13.3531
 20
203.656
 11
-13.1916
 21
203.911
  0
LINE
  8
0
 10
-13.1916
 20
203.911
 11
-12.9995
 21
204.143
  0
LINE
  8
0
 10
-12.9995
 20
204.143
 11
-12.7798
 21
204.349
  0
LINE
  8
0
 10
-12.7798
 20
204.349
 11
-12.536
 21
204.526
  0
LINE
  8
0
 10
-12.536
 20
204.526
 11
-12.2719
 21
204.672
  0
LINE
  8
0
 10
-12.2719
 20
204.672
 11
-11.9916
 21
204.783
  0
LINE
  8
0
 10
-11.9916
 20
204.783
 11
-11.6997
 21
204.857
  0
LINE
  8
0
 10
-11.6997
 20
204.857
 11
-11.4007
 21
204.895
  0
LINE
  8
0
 10
-11.4007
 20
204.895
 11
-11.0993
 21
204.895
  0
LINE
  8
0
 10
-11.0993
 20
204.895
 11
-10.8003
 21
204.857
  0
LINE
  8
0
 10
-10.8003
 20
204.857
 11
-10.5083
 21
204.783
  0
LINE
  8
0
 10
-10.5083
 20
204.783
 11
-10.2281
 21
204.672
  0
LINE
  8
0
 10
-10.2281
 20
204.672
 11
-9.964
 21
204.526
  0
LINE
  8
0
 10
-9.964
 20
204.526
 11
-9.72017
 21
204.349
  0
LINE
  8
0
 10
-9.72017
 20
204.349
 11
-9.50047
 21
204.143
  0
LINE
  8
0
 10
-9.50047
 20
204.143
 11
-9.30835
 21
203.911
  0
LINE
  8
0
 10
-9.30835
 20
203.911
 11
-9.14685
 21
203.656
  0
LINE
  8
0
 10
-9.14685
 20
203.656
 11
-9.01852
 21
203.383
  0
LINE
  8
0
 10
-9.01852
 20
203.383
 11
-8.9254
 21
203.097
  0
LINE
  8
0
 10
-8.9254
 20
203.097
 11
-8.86891
 21
202.801
  0
LINE
  8
0
 10
-8.86891
 20
202.801
 11
-8.84999
 21
202.5
  0
LINE
  8
0
 10
-8.84999
 20
202.5
 11
-8.86891
 21
202.199
  0
LINE
  8
0
 10
-8.86891
 20
202.199
 11
-8.9254
 21
201.903
  0
LINE
  8
0
 10
-8.9254
 20
201.903
 11
-9.01852
 21
201.617
  0
LINE
  8
0
 10
-9.01852
 20
201.617
 11
-9.14685
 21
201.344
  0
LINE
  8
0
 10
-9.14685
 20
201.344
 11
-9.30835
 21
201.089
  0
LINE
  8
0
 10
-9.30835
 20
201.089
 11
-9.50047
 21
200.857
  0
LINE
  8
0
 10
-9.50047
 20
200.857
 11
-9.72017
 21
200.651
  0
LINE
  8
0
 10
-9.72017
 20
200.651
 11
-9.964
 21
200.474
  0
LINE
  8
0
 10
-9.964
 20
200.474
 11
-10.2281
 21
200.328
  0
LINE
  8
0
 10
-10.2281
 20
200.328
 11
-10.5083
 21
200.217
  0
LINE
  8
0
 10
-10.5083
 20
200.217
 11
-10.8003
 21
200.143
  0
LINE
  8
0
 10
-10.8003
 20
200.143
 11
-11.0993
 21
200.105
  0
LINE
  8
0
 10
-11.0993
 20
200.105
 11
-11.4007
 21
200.105
  0
LINE
  8
0
 10
11.0993
 20
200.105
 11
10.8003
 21
200.143
  0
LINE
  8
0
 10
10.8003
 20
200.143
 11
10.5083
 21
200.217
  0
LINE
  8
0
 10
10.5083
 20
200.217
 11
10.2281
 21
200.328
  0
LINE
  8
0
 10
10.2281
 20
200.328
 11
9.964
 21
200.474
  0
LINE
  8
0
 10
9.964
 20
200.474
 11
9.72017
 21
200.651
  0
LINE
  8
0
 10
9.72017
 20
200.651
 11
9.50047
 21
200.857
  0
LINE
  8
0
 10
9.50047
 20
200.857
 11
9.30835
 21
201.089
  0
LINE
  8
0
 10
9.30835
 20
201.089
 11
9.14685
 21
201.344
  0
LINE
  8
0
 10
9.14685
 20
201.344
 11
9.01852
 21
201.617
  0
LINE
  8
0
 10
9.01852
 20
201.617
 11
8.9254
 21
201.903
  0
LINE
  8
0
 10
8.9254
 20
201.903
 11
8.86891
 21
202.199
  0
LINE
  8
0
 10
8.86891
 20
202.199
 11
8.84999
 21
202.5
  0
LINE
  8
0
 10
8.84999
 20
202.5
 11
8.86891
 21
202.801
  0
LINE
  8
0
 10
8.86891
 20
202.801
 11
8.9254
 21
203.097
  0
LINE
  8
0
 10
8.9254
 20
203.097
 11
9.01852
 21
203.383
  0
LINE
  8
0
 10
9.01852
 20
203.383
 11
9.14685
 21
203.656
  0
LINE
  8
0
 10
9.14685
 20
203.656
 11
9.30835
 21
203.911
  0
LINE
  8
0
 10
9.30835
 20
203.911
 11
9.50047
 21
204.143
  0
LINE
  8
0
 10
9.50047
 20
204.143
 11
9.72017
 21
204.349
  0
LINE
  8
0
 10
9.72017
 20
204.349
 11
9.964
 21
204.526
  0
LINE
  8
0
 10
9.964
 20
204.526
 11
10.2281
 21
204.672
  0
LINE
  8
0
 10
10.2281
 20
204.672
 11
10.5083
 21
204.783
  0
LINE
  8
0
 10
10.5083
 20
204.783
 11
10.8003
 21
204.857
  0
LINE
  8
0
 10
10.8003
 20
204.857
 11
11.0993
 21
204.895
  0
LINE
  8
0
 10
11.0993
 20
204.895
 11
11.4007
 21
204.895
  0
LINE
  8
0
 10
11.4007
 20
204.895
 11
11.6997
 21
204.857
  0
LINE
  8
0
 10
11.6997
 20
204.857
 11
11.9916
 21
204.783
  0
LINE
  8
0
 10
11.9916
 20
204.783
 11
12.2719
 21
204.672
  0
LINE
  8
0
 10
12.2719
 20
204.672
 11
12.536
 21
204.526
  0
LINE
  8
0
 10
12.536
 20
204.526
 11
12.7798
 21
204.349
  0
LINE
  8
0
 10
12.7798
 20
204.349
 11
12.9995
 21
204.143
  0
LINE
  8
0
 10
12.9995
 20
204.143
 11
13.1916
 21
203.911
  0
LINE
  8
0
 10
13.1916
 20
203.911
 11
13.3531
 21
203.656
  0
LINE
  8
0
 10
13.3531
 20
203.656
 11
13.4815
 21
203.383
  0
LINE
  8
0
 10
13.4815
 20
203.383
 11
13.5746
 21
203.097
  0
LINE
  8
0
 10
13.5746
 20
203.097
 11
13.6311
 21
202.801
  0
LINE
  8
0
 10
13.6311
 20
202.801
 11
13.65
 21
202.5
  0
LINE
  8
0
 10
13.65
 20
202.5
 11
13.6311
 21
202.199
  0
LINE
  8
0
 10
13.6311
 20
202.199
 11
13.5746
 21
201.903
  0
LINE
  8
0
 10
13.5746
 20
201.903
 11
13.4815
 21
201.617
  0
LINE
  8
0
 10
13.4815
 20
201.617
 11
13.3531
 21
201.344
  0
LINE
  8
0
 10
13.3531
 20
201.344
 11
13.1916
 21
201.089
  0
LINE
  8
0
 10
13.1916
 20
201.089
 11
12.9995
 21
200.857
  0
LINE
  8
0
 10
12.9995
 20
200.857
 11
12.7798
 21
200.651
  0
LINE
  8
0
 10
12.7798
 20
200.651
 11
12.536
 21
200.474
  0
LINE
  8
0
 10
12.536
 20
200.474
 11
12.2719
 21
200.328
  0
LINE
  8
0
 10
12.2719
 20
200.328
 11
11.9916
 21
200.217
  0
LINE
  8
0
 10
11.9916
 20
200.217
 11
11.6997
 21
200.143
  0
LINE
  8
0
 10
11.6997
 20
200.143
 11
11.4007
 21
200.105
  0
LINE
  8
0
 10
11.4007
 20
200.105
 11
11.0993
 21
200.105
  0
LINE
  8
0
 10
-11.4007
 20
185.105
 11
-11.6997
 21
185.143
  0
LINE
  8
0
 10
-11.6997
 20
185.143
 11
-11.9916
 21
185.217
  0
LINE
  8
0
 10
-11.9916
 20
185.217
 11
-12.2719
 21
185.328
  0
LINE
  8
0
 10
-12.2719
 20
185.328
 11
-12.536
 21
185.474
  0
LINE
  8
0
 10
-12.536
 20
185.474
 11
-12.7798
 21
185.651
  0
LINE
  8
0
 10
-12.7798
 20
185.651
 11
-12.9995
 21
185.857
  0
LINE
  8
0
 10
-12.9995
 20
185.857
 11
-13.1916
 21
186.089
  0
LINE
  8
0
 10
-13.1916
 20
186.089
 11
-13.3531
 21
186.344
  0
LINE
  8
0
 10
-13.3531
 20
186.344
 11
-13.4815
 21
186.617
  0
LINE
  8
0
 10
-13.4815
 20
186.617
 11
-13.5746
 21
186.903
  0
LINE
  8
0
 10
-13.5746
 20
186.903
 11
-13.6311
 21
187.199
  0
LINE
  8
0
 10
-13.6311
 20
187.199
 11
-13.65
 21
187.5
  0
LINE
  8
0
 10
-13.65
 20
187.5
 11
-13.6311
 21
187.801
  0
LINE
  8
0
 10
-13.6311
 20
187.801
 11
-13.5746
 21
188.097
  0
LINE
  8
0
 10
-13.5746
 20
188.097
 11
-13.4815
 21
188.383
  0
LINE
  8
0
 10
-13.4815
 20
188.383
 11
-13.3531
 21
188.656
  0
LINE
  8
0
 10
-13.3531
 20
188.656
 11
-13.1916
 21
188.911
  0
LINE
  8
0
 10
-13.1916
 20
188.911
 11
-12.9995
 21
189.143
  0
LINE
  8
0
 10
-12.9995
 20
189.143
 11
-12.7798
 21
189.349
  0
LINE
  8
0
 10
-12.7798
 20
189.349
 11
-12.536
 21
189.526
  0
LINE
  8
0
 10
-12.536
 20
189.526
 11
-12.2719
 21
189.672
  0
LINE
  8
0
 10
-12.2719
 20
189.672
 11
-11.9916
 21
189.783
  0
LINE
  8
0
 10
-11.9916
 20
189.783
 11
-11.6997
 21
189.857
  0
LINE
  8
0
 10
-11.6997
 20
189.857
 11
-11.4007
 21
189.895
  0
LINE
  8
0
 10
-11.4007
 20
189.895
 11
-11.0993
 21
189.895
  0
LINE
  8
0
 10
-11.0993
 20
189.895
 11
-10.8003
 21
189.857
  0
LINE
  8
0
 10
-10.8003
 20
189.857
 11
-10.5083
 21
189.783
  0
LINE
  8
0
 10
-10.5083
 20
189.783
 11
-10.2281
 21
189.672
  0
LINE
  8
0
 10
-10.2281
 20
189.672
 11
-9.964
 21
189.526
  0
LINE
  8
0
 10
-9.964
 20
189.526
 11
-9.72017
 21
189.349
  0
LINE
  8
0
 10
-9.72017
 20
189.349
 11
-9.50047
 21
189.143
  0
LINE
  8
0
 10
-9.50047
 20
189.143
 11
-9.30835
 21
188.911
  0
LINE
  8
0
 10
-9.30835
 20
188.911
 11
-9.14685
 21
188.656
  0
LINE
  8
0
 10
-9.14685
 20
188.656
 11
-9.01852
 21
188.383
  0
LINE
  8
0
 10
-9.01852
 20
188.383
 11
-8.9254
 21
188.097
  0
LINE
  8
0
 10
-8.9254
 20
188.097
 11
-8.86891
 21
187.801
  0
LINE
  8
0
 10
-8.86891
 20
187.801
 11
-8.84999
 21
187.5
  0
LINE
  8
0
 10
-8.84999
 20
187.5
 11
-8.86891
 21
187.199
  0
LINE
  8
0
 10
-8.86891
 20
187.199
 11
-8.9254
 21
186.903
  0
LINE
  8
0
 10
-8.9254
 20
186.903
 11
-9.01852
 21
186.617
  0
LINE
  8
0
 10
-9.01852
 20
186.617
 11
-9.14685
 21
186.344
  0
LINE
  8
0
 10
-9.14685
 20
186.344
 11
-9.30835
 21
186.089
  0
LINE
  8
0
 10
-9.30835
 20
186.089
 11
-9.50047
 21
185.857
  0
LINE
  8
0
 10
-9.50047
 20
185.857
 11
-9.72017
 21
185.651
  0
LINE
  8
0
 10
-9.72017
 20
185.651
 11
-9.964
 21
185.474
  0
LINE
  8
0
 10
-9.964
 20
185.474
 11
-10.2281
 21
185.328
  0
LINE
  8
0
 10
-10.2281
 20
185.328
 11
-10.5083
 21
185.217
  0
LINE
  8
0
 10
-10.5083
 20
185.217
 11
-10.8003
 21
185.143
  0
LINE
  8
0
 10
-10.8003
 20
185.143
 11
-11.0993
 21
185.105
  0
LINE
  8
0
 10
-11.0993
 20
185.105
 11
-11.4007
 21
185.105
  0
LINE
  8
0
 10
11.0993
 20
185.105
 11
10.8003
 21
185.143
  0
LINE
  8
0
 10
10.8003
 20
185.143
 11
10.5083
 21
185.217
  0
LINE
  8
0
 10
10.5083
 20
185.217
 11
10.2281
 21
185.328
  0
LINE
  8
0
 10
10.2281
 20
185.328
 11
9.964
 21
185.474
  0
LINE
  8
0
 10
9.964
 20
185.474
 11
9.72017
 21
185.651
  0
LINE
  8
0
 10
9.72017
 20
185.651
 11
9.50047
 21
185.857
  0
LINE
  8
0
 10
9.50047
 20
185.857
 11
9.30835
 21
186.089
  0
LINE
  8
0
 10
9.30835
 20
186.089
 11
9.14685
 21
186.344
  0
LINE
  8
0
 10
9.14685
 20
186.344
 11
9.01852
 21
186.617
  0
LINE
  8
0
 10
9.01852
 20
186.617
 11
8.9254
 21
186.903
  0
LINE
  8
0
 10
8.9254
 20
186.903
 11
8.86891
 21
187.199
  0
LINE
  8
0
 10
8.86891
 20
187.199
 11
8.84999
 21
187.5
  0
LINE
  8
0
 10
8.84999
 20
187.5
 11
8.86891
 21
187.801
  0
LINE
  8
0
 10
8.86891
 20
187.801
 11
8.9254
 21
188.097
  0
LINE
  8
0
 10
8.9254
 20
188.097
 11
9.01852
 21
188.383
  0
LINE
  8
0
 10
9.01852
 20
188.383
 11
9.14685
 21
188.656
  0
LINE
  8
0
 10
9.14685
 20
188.656
 11
9.30835
 21
188.911
  0
LINE
  8
0
 10
9.30835
 20
188.911
 11
9.50047
 21
189.143
  0
LINE
  8
0
 10
9.50047
 20
189.143
 11
9.72017
 21
189.349
  0
LINE
  8
0
 10
9.72017
 20
189.349
 11
9.964
 21
189.526
  0
LINE
  8
0
 10
9.964
 20
189.526
 11
10.2281
 21
189.672
  0
LINE
  8
0
 10
10.2281
 20
189.672
 11
10.5083
 21
189.783
  0
LINE
  8
0
 10
10.5083
 20
189.783
 11
10.8003
 21
189.857
  0
LINE
  8
0
 10
10.8003
 20
189.857
 11
11.0993
 21
189.895
  0
LINE
  8
0
 10
11.0993
 20
189.895
 11
11.4007
 21
189.895
  0
LINE
  8
0
 10
11.4007
 20
189.895
 11
11.6997
 21
189.857
  0
LINE
  8
0
 10
11.6997
 20
189.857
 11
11.9916
 21
189.783
  0
LINE
  8
0
 10
11.9916
 20
189.783
 11
12.2719
 21
189.672
  0
LINE
  8
0
 10
12.2719
 20
189.672
 11
12.536
 21
189.526
  0
LINE
  8
0
 10
12.536
 20
189.526
 11
12.7798
 21
189.349
  0
LINE
  8
0
 10
12.7798
 20
189.349
 11
12.9995
 21
189.143
  0
LINE
  8
0
 10
12.9995
 20
189.143
 11
13.1916
 21
188.911
  0
LINE
  8
0
 10
13.1916
 20
188.911
 11
13.3531
 21
188.656
  0
LINE
  8
0
 10
13.3531
 20
188.656
 11
13.4815
 21
188.383
  0
LINE
  8
0
 10
13.4815
 20
188.383
 11
13.5746
 21
188.097
  0
LINE
  8
0
 10
13.5746
 20
188.097
 11
13.6311
 21
187.801
  0
LINE
  8
0
 10
13.6311
 20
187.801
 11
13.65
 21
187.5
  0
LINE
  8
0
 10
13.65
 20
187.5
 11
13.6311
 21
187.199
  0
LINE
  8
0
 10
13.6311
 20
187.199
 11
13.5746
 21
186.903
  0
LINE
  8
0
 10
13.5746
 20
186.903
 11
13.4815
 21
186.617
  0
LINE
  8
0
 10
13.4815
 20
186.617
 11
13.3531
 21
186.344
  0
LINE
  8
0
 10
13.3531
 20
186.344
 11
13.1916
 21
186.089
  0
LINE
  8
0
 10
13.1916
 20
186.089
 11
12.9995
 21
185.857
  0
LINE
  8
0
 10
12.9995
 20
185.857
 11
12.7798
 21
185.651
  0
LINE
  8
0
 10
12.7798
 20
185.651
 11
12.536
 21
185.474
  0
LINE
  8
0
 10
12.536
 20
185.474
 11
12.2719
 21
185.328
  0
LINE
  8
0
 10
12.2719
 20
185.328
 11
11.9916
 21
185.217
  0
LINE
  8
0
 10
11.9916
 20
185.217
 11
11.6997
 21
185.143
  0
LINE
  8
0
 10
11.6997
 20
185.143
 11
11.4007
 21
185.105
  0
LINE
  8
0
 10
11.4007
 20
185.105
 11
11.0993
 21
185.105
  0
ENDSEC
  0
SECTION
  2
OBJECTS
  0
DICTIONARY
  0
ENDSEC
  0
EOF
