<?xml version="1.0" standalone="no"?>
<!DOCTYPE svg PUBLIC "-//W3C//DTD SVG 1.1//EN" "http://www.w3.org/Graphics/SVG/1.1/DTD/svg11.dtd">
<svg width="40mm" height="69mm" viewBox="-21 -132 40 69" xmlns="http://www.w3.org/2000/svg" version="1.1">
<title>OpenSCAD Model</title>
<path d="
M -17.25,-104.507 L -16.8948,-104.077 L -16.4371,-103.647 L -15.9291,-103.278 L -15.3789,-102.976 L -14.7951,-102.745
 L -14.1869,-102.589 L -13.5639,-102.51 L 13.5639,-102.51 L 14.1869,-102.589 L 14.7951,-102.745 L 15.3789,-102.976
 L 15.9291,-103.278 L 16.4371,-103.647 L 16.8948,-104.077 L 17.2951,-104.561 L 17.6315,-105.091 L 17.8989,-105.659
 L 18.0929,-106.257 L 18.2106,-106.873 L 18.25,-107.5 L 18.25,-126.5 L 18.2106,-127.127 L 18.0929,-127.743
 L 17.8989,-128.341 L 17.6315,-128.909 L 17.2951,-129.439 L 16.8948,-129.923 L 16.4371,-130.353 L 15.9291,-130.722
 L 15.3789,-131.024 L 14.7951,-131.255 L 14.1869,-131.411 L 13.5639,-131.49 L -13.5639,-131.49 L -14.1869,-131.411
 L -14.7951,-131.255 L -15.3789,-131.024 L -15.9291,-130.722 L -16.4371,-130.353 L -16.8948,-129.923 L -17.25,-129.493
 L -17.25,-131.979 L -20.25,-131.979 L -20.25,-102.021 L -17.25,-102.021 z
M -13.4454,-104.393 L -13.8333,-104.442 L -14.2119,-104.539 L -14.5754,-104.683 L -14.918,-104.872 L -15.2342,-105.101
 L -15.5192,-105.369 L -15.7684,-105.67 L -15.9779,-106 L -16.1443,-106.354 L -16.2651,-106.726 L -16.3384,-107.11
 L -16.3629,-107.5 L -16.3629,-126.5 L -16.3384,-126.89 L -16.2651,-127.274 L -16.1443,-127.646 L -15.9779,-128
 L -15.7684,-128.33 L -15.5192,-128.631 L -15.2342,-128.899 L -14.918,-129.128 L -14.5754,-129.317 L -14.2119,-129.461
 L -13.8333,-129.558 L -13.4454,-129.607 L 13.4454,-129.607 L 13.8333,-129.558 L 14.2119,-129.461 L 14.5754,-129.317
 L 14.918,-129.128 L 15.2342,-128.899 L 15.5192,-128.631 L 15.7684,-128.33 L 15.9779,-128 L 16.1443,-127.646
 L 16.2651,-127.274 L 16.3384,-126.89 L 16.3629,-126.5 L 16.3629,-107.5 L 16.3384,-107.11 L 16.2651,-106.726
 L 16.1443,-106.354 L 15.9779,-106 L 15.7684,-105.67 L 15.5192,-105.369 L 15.2342,-105.101 L 14.918,-104.872
 L 14.5754,-104.683 L 14.2119,-104.539 L 13.8333,-104.442 L 13.4454,-104.393 z
M 14.1869,-63.5886 L 14.7951,-63.7447 L 15.3789,-63.9759 L 15.9291,-64.2784 L 16.4371,-64.6474 L 16.8948,-65.0773
 L 17.2951,-65.5611 L 17.6315,-66.0912 L 17.8989,-66.6594 L 18.0929,-67.2566 L 18.2106,-67.8733 L 18.25,-68.5
 L 18.25,-87.5 L 18.2106,-88.1267 L 18.0929,-88.7434 L 17.8989,-89.3406 L 17.6315,-89.9088 L 17.2951,-90.4389
 L 16.8948,-90.9227 L 16.4371,-91.3526 L 15.9291,-91.7216 L 15.3789,-92.0241 L 14.7951,-92.2553 L 14.1869,-92.4114
 L 13.5639,-92.4901 L -13.5639,-92.4901 L -14.1869,-92.4114 L -14.7951,-92.2553 L -15.3789,-92.0241 L -15.9291,-91.7216
 L -16.4371,-91.3526 L -16.8948,-90.9227 L -17.25,-90.4934 L -17.25,-91.6526 L -20.25,-91.6526 L -20.25,-64.3474
 L -17.25,-64.3474 L -17.25,-65.5066 L -16.8948,-65.0773 L -16.4371,-64.6474 L -15.9291,-64.2784 L -15.3789,-63.9759
 L -14.7951,-63.7447 L -14.1869,-63.5886 L -13.5639,-63.5099 L 13.5639,-63.5099 z
M 11.0993,-83.1047 L 10.8003,-83.1425 L 10.5083,-83.2175 L 10.2281,-83.3284 L 9.964,-83.4736 L 9.72017,-83.6508
 L 9.50047,-83.8571 L 9.30835,-84.0893 L 9.14685,-84.3438 L 9.01852,-84.6165 L 8.9254,-84.9031 L 8.86891,-85.1992
 L 8.84999,-85.5 L 8.86891,-85.8008 L 8.9254,-86.0968 L 9.01852,-86.3835 L 9.14685,-86.6562 L 9.30835,-86.9107
 L 9.50047,-87.1429 L 9.72017,-87.3492 L 9.964,-87.5264 L 10.2281,-87.6716 L 10.5083,-87.7825 L 10.8003,-87.8575
 L 11.0993,-87.8953 L 11.4007,-87.8953 L 11.6997,-87.8575 L 11.9916,-87.7825 L 12.2719,-87.6716 L 12.536,-87.5264
 L 12.7798,-87.3492 L 12.9995,-87.1429 L 13.1916,-86.9107 L 13.3531,-86.6562 L 13.4815,-86.3835 L 13.5746,-86.0968
 L 13.6311,-85.8008 L 13.65,-85.5 L 13.6311,-85.1992 L 13.5746,-84.9031 L 13.4815,-84.6165 L 13.3531,-84.3438
 L 13.1916,-84.0893 L 12.9995,-83.8571 L 12.7798,-83.6508 L 12.536,-83.4736 L 12.2719,-83.3284 L 11.9916,-83.2175
 L 11.6997,-83.1425 L 11.4007,-83.1047 z
M -11.4007,-83.1047 L -11.6997,-83.1425 L -11.9916,-83.2175 L -12.2719,-83.3284 L -12.536,-83.4736 L -12.7798,-83.6508
 L -12.9995,-83.8571 L -13.1916,-84.0893 L -13.3531,-84.3438 L -13.4815,-84.6165 L -13.5746,-84.9031 L -13.6311,-85.1992
 L -13.65,-85.5 L -13.6311,-85.8008 L -13.5746,-86.0968 L -13.4815,-86.3835 L -13.3531,-86.6562 L -13.1916,-86.9107
 L -12.9995,-87.1429 L -12.7798,-87.3492 L -12.536,-87.5264 L -12.2719,-87.6716 L -11.9916,-87.7825 L -11.6997,-87.8575
 L -11.4007,-87.8953 L -11.0993,-87.8953 L -10.8003,-87.8575 L -10.5083,-87.7825 L -10.2281,-87.6716 L -9.964,-87.5264
 L -9.72017,-87.3492 L -9.50047,-87.1429 L -9.30835,-86.9107 L -9.14685,-86.6562 L -9.01852,-86.3835 L -8.9254,-86.0968
 L -8.86891,-85.8008 L -8.84999,-85.5 L -8.86891,-85.1992 L -8.9254,-84.9031 L -9.01852,-84.6165 L -9.14685,-84.3438
 L -9.30835,-84.0893 L -9.50047,-83.8571 L -9.72017,-83.6508 L -9.964,-83.4736 L -10.2281,-83.3284 L -10.5083,-83.2175
 L -10.8003,-83.1425 L -11.0993,-83.1047 z
M 11.0993,-68.1047 L 10.8003,-68.1425 L 10.5083,-68.2175 L 10.2281,-68.3284 L 9.964,-68.4736 L 9.72017,-68.6508
 L 9.50047,-68.8571 L 9.30835,-69.0893 L 9.14685,-69.3438 L 9.01852,-69.6165 L 8.9254,-69.9032 L 8.86891,-70.1992
 L 8.84999,-70.5 L 8.86891,-70.8008 L 8.9254,-71.0969 L 9.01852,-71.3835 L 9.14685,-71.6562 L 9.30835,-71.9107
 L 9.50047,-72.1429 L 9.72017,-72.3492 L 9.964,-72.5264 L 10.2281,-72.6716 L 10.5083,-72.7825 L 10.8003,-72.8575
 L 11.0993,-72.8953 L 11.4007,-72.8953 L 11.6997,-72.8575 L 11.9916,-72.7825 L 12.2719,-72.6716 L 12.536,-72.5264
 L 12.7798,-72.3492 L 12.9995,-72.1429 L 13.1916,-71.9107 L 13.3531,-71.6562 L 13.4815,-71.3835 L 13.5746,-71.0969
 L 13.6311,-70.8008 L 13.65,-70.5 L 13.6311,-70.1992 L 13.5746,-69.9032 L 13.4815,-69.6165 L 13.3531,-69.3438
 L 13.1916,-69.0893 L 12.9995,-68.8571 L 12.7798,-68.6508 L 12.536,-68.4736 L 12.2719,-68.3284 L 11.9916,-68.2175
 L 11.6997,-68.1425 L 11.4007,-68.1047 z
M -11.4007,-68.1047 L -11.6997,-68.1425 L -11.9916,-68.2175 L -12.2719,-68.3284 L -12.536,-68.4736 L -12.7798,-68.6508
 L -12.9995,-68.8571 L -13.1916,-69.0893 L -13.3531,-69.3438 L -13.4815,-69.6165 L -13.5746,-69.9032 L -13.6311,-70.1992
 L -13.65,-70.5 L -13.6311,-70.8008 L -13.5746,-71.0969 L -13.4815,-71.3835 L -13.3531,-71.6562 L -13.1916,-71.9107
 L -12.9995,-72.1429 L -12.7798,-72.3492 L -12.536,-72.5264 L -12.2719,-72.6716 L -11.9916,-72.7825 L -11.6997,-72.8575
 L -11.4007,-72.8953 L -11.0993,-72.8953 L -10.8003,-72.8575 L -10.5083,-72.7825 L -10.2281,-72.6716 L -9.964,-72.5264
 L -9.72017,-72.3492 L -9.50047,-72.1429 L -9.30835,-71.9107 L -9.14685,-71.6562 L -9.01852,-71.3835 L -8.9254,-71.0969
 L -8.86891,-70.8008 L -8.84999,-70.5 L -8.86891,-70.1992 L -8.9254,-69.9032 L -9.01852,-69.6165 L -9.14685,-69.3438
 L -9.30835,-69.0893 L -9.50047,-68.8571 L -9.72017,-68.6508 L -9.964,-68.4736 L -10.2281,-68.3284 L -10.5083,-68.2175
 L -10.8003,-68.1425 L -11.0993,-68.1047 z
" stroke="black" fill="lightgray" stroke-width="0.5"/>
</svg>
