<?xml version="1.0" standalone="no"?>
<!DOCTYPE svg PUBLIC "-//W3C//DTD SVG 1.1//EN" "http://www.w3.org/Graphics/SVG/1.1/DTD/svg11.dtd">
<svg width="74mm" height="152mm" viewBox="-37 -238 74 152" xmlns="http://www.w3.org/2000/svg" version="1.1">
<title>OpenSCAD Model</title>
<path d="
M 32.9369,-140.089 L 33.5451,-140.245 L 34.1289,-140.476 L 34.6791,-140.778 L 35.1871,-141.147 L 35.6448,-141.577
 L 36.0451,-142.061 L 36.3815,-142.591 L 36.6489,-143.159 L 36.8429,-143.757 L 36.9606,-144.373 L 37,-145
 L 37,-179 L 36.9606,-179.627 L 36.8429,-180.243 L 36.6489,-180.841 L 36.3815,-181.409 L 36.0451,-181.939
 L 35.6448,-182.423 L 35.1871,-182.853 L 34.6791,-183.222 L 34.1289,-183.524 L 33.5451,-183.755 L 32.9369,-183.911
 L 32.3139,-183.99 L -32.3139,-183.99 L -32.9369,-183.911 L -33.5451,-183.755 L -34.1289,-183.524 L -34.6791,-183.222
 L -35.1871,-182.853 L -35.6448,-182.423 L -36.0451,-181.939 L -36.3815,-181.409 L -36.6489,-180.841 L -36.8429,-180.243
 L -36.9606,-179.627 L -37,-179 L -37,-145 L -36.9606,-144.373 L -36.8429,-143.757 L -36.6489,-143.159
 L -36.3815,-142.591 L -36.0451,-142.061 L -35.6448,-141.577 L -35.1871,-141.147 L -34.6791,-140.778 L -34.1289,-140.476
 L -33.5451,-140.245 L -32.9369,-140.089 L -32.3139,-140.01 L 32.3139,-140.01 z
M 32.9369,-86.0886 L 33.5451,-86.2447 L 34.1289,-86.4759 L 34.6791,-86.7784 L 35.1871,-87.1474 L 35.6448,-87.5773
 L 36.0451,-88.0611 L 36.3815,-88.5912 L 36.6489,-89.1594 L 36.8429,-89.7566 L 36.9606,-90.3733 L 37,-91
 L 37,-125 L 36.9606,-125.627 L 36.8429,-126.243 L 36.6489,-126.841 L 36.3815,-127.409 L 36.0451,-127.939
 L 35.6448,-128.423 L 35.1871,-128.853 L 34.6791,-129.222 L 34.1289,-129.524 L 33.5451,-129.755 L 32.9369,-129.911
 L 32.3139,-129.99 L -32.3139,-129.99 L -32.9369,-129.911 L -33.5451,-129.755 L -34.1289,-129.524 L -34.6791,-129.222
 L -35.1871,-128.853 L -35.6448,-128.423 L -36.0451,-127.939 L -36.3815,-127.409 L -36.6489,-126.841 L -36.8429,-126.243
 L -36.9606,-125.627 L -37,-125 L -37,-91 L -36.9606,-90.3733 L -36.8429,-89.7566 L -36.6489,-89.1594
 L -36.3815,-88.5912 L -36.0451,-88.0611 L -35.6448,-87.5773 L -35.1871,-87.1474 L -34.6791,-86.7784 L -34.1289,-86.4759
 L -33.5451,-86.2447 L -32.9369,-86.0886 L -32.3139,-86.0099 L 32.3139,-86.0099 z
M 29.8493,-120.605 L 29.5503,-120.643 L 29.2583,-120.717 L 28.9781,-120.828 L 28.714,-120.974 L 28.4702,-121.151
 L 28.2505,-121.357 L 28.0583,-121.589 L 27.8969,-121.844 L 27.7685,-122.117 L 27.6754,-122.403 L 27.6189,-122.699
 L 27.6,-123 L 27.6189,-123.301 L 27.6754,-123.597 L 27.7685,-123.883 L 27.8969,-124.156 L 28.0583,-124.411
 L 28.2505,-124.643 L 28.4702,-124.849 L 28.714,-125.026 L 28.9781,-125.172 L 29.2583,-125.283 L 29.5503,-125.357
 L 29.8493,-125.395 L 30.1507,-125.395 L 30.4497,-125.357 L 30.7416,-125.283 L 31.0219,-125.172 L 31.286,-125.026
 L 31.5298,-124.849 L 31.7495,-124.643 L 31.9416,-124.411 L 32.1031,-124.156 L 32.2315,-123.883 L 32.3246,-123.597
 L 32.3811,-123.301 L 32.4,-123 L 32.3811,-122.699 L 32.3246,-122.403 L 32.2315,-122.117 L 32.1031,-121.844
 L 31.9416,-121.589 L 31.7495,-121.357 L 31.5298,-121.151 L 31.286,-120.974 L 31.0219,-120.828 L 30.7416,-120.717
 L 30.4497,-120.643 L 30.1507,-120.605 z
M -30.1507,-120.605 L -30.4497,-120.643 L -30.7416,-120.717 L -31.0219,-120.828 L -31.286,-120.974 L -31.5298,-121.151
 L -31.7495,-121.357 L -31.9416,-121.589 L -32.1031,-121.844 L -32.2315,-122.117 L -32.3246,-122.403 L -32.3811,-122.699
 L -32.4,-123 L -32.3811,-123.301 L -32.3246,-123.597 L -32.2315,-123.883 L -32.1031,-124.156 L -31.9416,-124.411
 L -31.7495,-124.643 L -31.5298,-124.849 L -31.286,-125.026 L -31.0219,-125.172 L -30.7416,-125.283 L -30.4497,-125.357
 L -30.1507,-125.395 L -29.8493,-125.395 L -29.5503,-125.357 L -29.2583,-125.283 L -28.9781,-125.172 L -28.714,-125.026
 L -28.4702,-124.849 L -28.2505,-124.643 L -28.0583,-124.411 L -27.8969,-124.156 L -27.7685,-123.883 L -27.6754,-123.597
 L -27.6189,-123.301 L -27.6,-123 L -27.6189,-122.699 L -27.6754,-122.403 L -27.7685,-122.117 L -27.8969,-121.844
 L -28.0583,-121.589 L -28.2505,-121.357 L -28.4702,-121.151 L -28.714,-120.974 L -28.9781,-120.828 L -29.2583,-120.717
 L -29.5503,-120.643 L -29.8493,-120.605 z
M -30.1507,-90.6047 L -30.4497,-90.6425 L -30.7416,-90.7175 L -31.0219,-90.8284 L -31.286,-90.9736 L -31.5298,-91.1508
 L -31.7495,-91.3571 L -31.9416,-91.5893 L -32.1031,-91.8438 L -32.2315,-92.1165 L -32.3246,-92.4032 L -32.3811,-92.6992
 L -32.4,-93 L -32.3811,-93.3008 L -32.3246,-93.5969 L -32.2315,-93.8835 L -32.1031,-94.1562 L -31.9416,-94.4107
 L -31.7495,-94.6429 L -31.5298,-94.8492 L -31.286,-95.0264 L -31.0219,-95.1716 L -30.7416,-95.2825 L -30.4497,-95.3575
 L -30.1507,-95.3953 L -29.8493,-95.3953 L -29.5503,-95.3575 L -29.2583,-95.2825 L -28.9781,-95.1716 L -28.714,-95.0264
 L -28.4702,-94.8492 L -28.2505,-94.6429 L -28.0583,-94.4107 L -27.8969,-94.1562 L -27.7685,-93.8835 L -27.6754,-93.5969
 L -27.6189,-93.3008 L -27.6,-93 L -27.6189,-92.6992 L -27.6754,-92.4032 L -27.7685,-92.1165 L -27.8969,-91.8438
 L -28.0583,-91.5893 L -28.2505,-91.3571 L -28.4702,-91.1508 L -28.714,-90.9736 L -28.9781,-90.8284 L -29.2583,-90.7175
 L -29.5503,-90.6425 L -29.8493,-90.6047 z
M 29.8493,-90.6047 L 29.5503,-90.6425 L 29.2583,-90.7175 L 28.9781,-90.8284 L 28.714,-90.9736 L 28.4702,-91.1508
 L 28.2505,-91.3571 L 28.0583,-91.5893 L 27.8969,-91.8438 L 27.7685,-92.1165 L 27.6754,-92.4032 L 27.6189,-92.6992
 L 27.6,-93 L 27.6189,-93.3008 L 27.6754,-93.5969 L 27.7685,-93.8835 L 27.8969,-94.1562 L 28.0583,-94.4107
 L 28.2505,-94.6429 L 28.4702,-94.8492 L 28.714,-95.0264 L 28.9781,-95.1716 L 29.2583,-95.2825 L 29.5503,-95.3575
 L 29.8493,-95.3953 L 30.1507,-95.3953 L 30.4497,-95.3575 L 30.7416,-95.2825 L 31.0219,-95.1716 L 31.286,-95.0264
 L 31.5298,-94.8492 L 31.7495,-94.6429 L 31.9416,-94.4107 L 32.1031,-94.1562 L 32.2315,-93.8835 L 32.3246,-93.5969
 L 32.3811,-93.3008 L 32.4,-93 L 32.3811,-92.6992 L 32.3246,-92.4032 L 32.2315,-92.1165 L 32.1031,-91.8438
 L 31.9416,-91.5893 L 31.7495,-91.3571 L 31.5298,-91.1508 L 31.286,-90.9736 L 31.0219,-90.8284 L 30.7416,-90.7175
 L 30.4497,-90.6425 L 30.1507,-90.6047 z
M 36.0451,-235.939 L 35.6448,-236.423 L 35.1871,-236.853 L 34.6791,-237.222 L 34.1289,-237.524 L 33.5451,-237.755
 L 32.9369,-237.911 L 32.3139,-237.99 L -32.3139,-237.99 L -32.9369,-237.911 L -33.5451,-237.755 L -34.1289,-237.524
 L -34.6791,-237.222 L -35.1871,-236.853 L -35.6448,-236.423 L -36.0451,-235.939 L -36.3815,-235.409 L -36.6489,-234.841
 L -36.8429,-234.243 L -36.9606,-233.627 L -37,-233 L -37,-199 L -36.9606,-198.373 L -36.8429,-197.757
 L -36.6489,-197.159 L -36.3815,-196.591 L -36.0451,-196.061 L -35.6448,-195.577 L -35.1871,-195.147 L -34.6791,-194.778
 L -34.1289,-194.476 L -33.5451,-194.245 L -32.9369,-194.089 L -32.3139,-194.01 L 32.3139,-194.01 L 32.9369,-194.089
 L 33.5451,-194.245 L 34.1289,-194.476 L 34.6791,-194.778 L 35.1871,-195.147 L 35.6448,-195.577 L 36.0451,-196.061
 L 36.3815,-196.591 L 36.6489,-197.159 L 36.8429,-197.757 L 36.9606,-198.373 L 37,-199 L 37,-233
 L 36.9606,-233.627 L 36.8429,-234.243 L 36.6489,-234.841 L 36.3815,-235.409 z
M -34.4685,-196.016 L -34.823,-196.349 L -35.133,-196.724 L -35.3936,-197.134 L -35.6007,-197.574 L -35.751,-198.037
 L -35.8421,-198.515 L -35.8726,-199 L -35.8726,-233 L -35.8421,-233.485 L -35.751,-233.963 L -35.6007,-234.426
 L -35.3936,-234.866 L -35.133,-235.276 L -34.823,-235.651 L -34.4685,-235.984 L -34.0751,-236.27 L -33.6489,-236.504
 L -33.1967,-236.683 L -32.7256,-236.804 L -32.2432,-236.865 L 32.2432,-236.865 L 32.7256,-236.804 L 33.1967,-236.683
 L 33.6489,-236.504 L 34.0751,-236.27 L 34.4685,-235.984 L 34.823,-235.651 L 35.133,-235.276 L 35.3936,-234.866
 L 35.6007,-234.426 L 35.751,-233.963 L 35.8421,-233.485 L 35.8726,-233 L 35.8726,-199 L 35.8421,-198.515
 L 35.751,-198.037 L 35.6007,-197.574 L 35.3936,-197.134 L 35.133,-196.724 L 34.823,-196.349 L 34.4685,-196.016
 L 34.0751,-195.73 L 33.6489,-195.496 L 33.1967,-195.317 L 32.7256,-195.196 L 32.2432,-195.135 L -32.2432,-195.135
 L -32.7256,-195.196 L -33.1967,-195.317 L -33.6489,-195.496 L -34.0751,-195.73 z
" stroke="black" fill="lightgray" stroke-width="0.5"/>
</svg>
