<?xml version="1.0" standalone="no"?>
<!DOCTYPE svg PUBLIC "-//W3C//DTD SVG 1.1//EN" "http://www.w3.org/Graphics/SVG/1.1/DTD/svg11.dtd">
<svg width="46mm" height="154mm" viewBox="-23 -293 46 154" xmlns="http://www.w3.org/2000/svg" version="1.1">
<title>OpenSCAD Model</title>
<path d="
M 18.4369,-247.589 L 19.0451,-247.745 L 19.6289,-247.976 L 20.1791,-248.278 L 20.6871,-248.647 L 21.1448,-249.077
 L 21.5451,-249.561 L 21.8815,-250.091 L 22.1489,-250.659 L 22.3429,-251.257 L 22.4606,-251.873 L 22.5,-252.5
 L 22.5,-287.5 L 22.4606,-288.127 L 22.3429,-288.743 L 22.1489,-289.341 L 21.8815,-289.909 L 21.5451,-290.439
 L 21.1448,-290.923 L 20.6871,-291.353 L 20.1791,-291.722 L 19.6289,-292.024 L 19.0451,-292.255 L 18.4369,-292.411
 L 17.8139,-292.49 L -17.8139,-292.49 L -18.4369,-292.411 L -19.0451,-292.255 L -19.6289,-292.024 L -20.1791,-291.722
 L -20.6871,-291.353 L -21.1448,-290.923 L -21.5451,-290.439 L -21.8815,-289.909 L -22.1489,-289.341 L -22.3429,-288.743
 L -22.4606,-288.127 L -22.5,-287.5 L -22.5,-252.5 L -22.4606,-251.873 L -22.3429,-251.257 L -22.1489,-250.659
 L -21.8815,-250.091 L -21.5451,-249.561 L -21.1448,-249.077 L -20.6871,-248.647 L -20.1791,-248.278 L -19.6289,-247.976
 L -19.0451,-247.745 L -18.4369,-247.589 L -17.8139,-247.51 L 17.8139,-247.51 z
M -12.311,-248.009 L -11.8209,-248.278 L -11.3129,-248.647 L -10.8551,-249.077 L -10.4549,-249.561 L -10.1185,-250.091
 L -9.8511,-250.659 L -9.65707,-251.257 L -9.53941,-251.873 L -9.5,-252.5 L -9.5,-255.5 L -9.53941,-256.127
 L -9.65707,-256.743 L -9.8511,-257.341 L -10.1185,-257.909 L -10.4549,-258.439 L -10.8551,-258.923 L -11.3129,-259.353
 L -11.8209,-259.722 L -12.3711,-260.024 L -12.9549,-260.255 L -13.5631,-260.411 L -14.186,-260.49 L -17.8139,-260.49
 L -18.4369,-260.411 L -19.0451,-260.255 L -19.6289,-260.024 L -20.1791,-259.722 L -20.6871,-259.353 L -21.1448,-258.923
 L -21.5451,-258.439 L -21.8815,-257.909 L -22,-257.657 L -22,-287.5 L -21.9645,-288.064 L -21.8586,-288.619
 L -21.684,-289.157 L -21.4434,-289.668 L -21.1406,-290.145 L -20.7803,-290.58 L -20.3684,-290.967 L -19.9112,-291.299
 L -19.416,-291.572 L -18.8906,-291.78 L -18.3432,-291.92 L -17.7825,-291.991 L 17.7825,-291.991 L 18.3432,-291.92
 L 18.8906,-291.78 L 19.416,-291.572 L 19.9112,-291.299 L 20.3684,-290.967 L 20.7803,-290.58 L 21.1406,-290.145
 L 21.4434,-289.668 L 21.684,-289.157 L 21.8586,-288.619 L 21.9645,-288.064 L 22,-287.5 L 22,-252.5
 L 21.9645,-251.936 L 21.8586,-251.381 L 21.684,-250.843 L 21.4434,-250.332 L 21.1406,-249.855 L 20.7803,-249.42
 L 20.3684,-249.033 L 19.9112,-248.701 L 19.416,-248.428 L 18.8906,-248.22 L 18.3432,-248.08 L 17.7825,-248.009
 z
M 15.4684,-282.544 L 15.7725,-282.622 L 16.0644,-282.738 L 16.3396,-282.889 L 16.5936,-283.074 L 16.8224,-283.289
 L 17.0225,-283.531 L 17.1908,-283.796 L 17.3244,-284.08 L 17.4214,-284.378 L 17.4803,-284.687 L 17.5,-285
 L 17.4803,-285.313 L 17.4214,-285.622 L 17.3244,-285.92 L 17.1908,-286.204 L 17.0225,-286.469 L 16.8224,-286.711
 L 16.5936,-286.926 L 16.3396,-287.111 L 16.0644,-287.262 L 15.7725,-287.378 L 15.4684,-287.456 L 15.157,-287.495
 L 14.843,-287.495 L 14.5315,-287.456 L 14.2274,-287.378 L 13.9355,-287.262 L 13.6604,-287.111 L 13.4064,-286.926
 L 13.1776,-286.711 L 12.9774,-286.469 L 12.8092,-286.204 L 12.6756,-285.92 L 12.5785,-285.622 L 12.5197,-285.313
 L 12.5,-285 L 12.5197,-284.687 L 12.5785,-284.378 L 12.6756,-284.08 L 12.8092,-283.796 L 12.9774,-283.531
 L 13.1776,-283.289 L 13.4064,-283.074 L 13.6604,-282.889 L 13.9355,-282.738 L 14.2274,-282.622 L 14.5315,-282.544
 L 14.843,-282.505 L 15.157,-282.505 z
M 14.9058,-283.503 L 14.7189,-283.527 L 14.5365,-283.573 L 14.3613,-283.643 L 14.1963,-283.734 L 14.0439,-283.844
 L 13.9065,-283.973 L 13.7865,-284.118 L 13.6855,-284.277 L 13.6053,-284.448 L 13.5471,-284.627 L 13.5118,-284.812
 L 13.5,-285 L 13.5118,-285.188 L 13.5471,-285.373 L 13.6053,-285.552 L 13.6855,-285.723 L 13.7865,-285.882
 L 13.9065,-286.027 L 14.0439,-286.156 L 14.1963,-286.266 L 14.3613,-286.357 L 14.5365,-286.427 L 14.7189,-286.473
 L 14.9058,-286.497 L 15.0942,-286.497 L 15.2811,-286.473 L 15.4635,-286.427 L 15.6387,-286.357 L 15.8037,-286.266
 L 15.9561,-286.156 L 16.0934,-286.027 L 16.2135,-285.882 L 16.3145,-285.723 L 16.3947,-285.552 L 16.4529,-285.373
 L 16.4882,-285.188 L 16.5,-285 L 16.4882,-284.812 L 16.4529,-284.627 L 16.3947,-284.448 L 16.3145,-284.277
 L 16.2135,-284.118 L 16.0934,-283.973 L 15.9561,-283.844 L 15.8037,-283.734 L 15.6387,-283.643 L 15.4635,-283.573
 L 15.2811,-283.527 L 15.0942,-283.503 z
M -15.0942,-253.503 L -15.2811,-253.527 L -15.4635,-253.573 L -15.6387,-253.643 L -15.8037,-253.734 L -15.9561,-253.844
 L -16.0934,-253.973 L -16.2135,-254.118 L -16.3145,-254.277 L -16.3947,-254.448 L -16.4529,-254.627 L -16.4882,-254.812
 L -16.5,-255 L -16.4882,-255.188 L -16.4529,-255.373 L -16.3947,-255.552 L -16.3145,-255.723 L -16.2135,-255.882
 L -16.0934,-256.027 L -15.9561,-256.156 L -15.8037,-256.266 L -15.6387,-256.357 L -15.4635,-256.427 L -15.2811,-256.473
 L -15.0942,-256.497 L -14.9058,-256.497 L -14.7189,-256.473 L -14.5365,-256.427 L -14.3613,-256.357 L -14.1963,-256.266
 L -14.0439,-256.156 L -13.9065,-256.027 L -13.7865,-255.882 L -13.6855,-255.723 L -13.6053,-255.552 L -13.5471,-255.373
 L -13.5118,-255.188 L -13.5,-255 L -13.5118,-254.812 L -13.5471,-254.627 L -13.6053,-254.448 L -13.6855,-254.277
 L -13.7865,-254.118 L -13.9065,-253.973 L -14.0439,-253.844 L -14.1963,-253.734 L -14.3613,-253.643 L -14.5365,-253.573
 L -14.7189,-253.527 L -14.9058,-253.503 z
M 18.4369,-193.589 L 19.0451,-193.745 L 19.6289,-193.976 L 20.1791,-194.278 L 20.6871,-194.647 L 21.1448,-195.077
 L 21.5451,-195.561 L 21.8815,-196.091 L 22.1489,-196.659 L 22.3429,-197.257 L 22.4606,-197.873 L 22.5,-198.5
 L 22.5,-233.5 L 22.4606,-234.127 L 22.3429,-234.743 L 22.1489,-235.341 L 21.8815,-235.909 L 21.5451,-236.439
 L 21.1448,-236.923 L 20.6871,-237.353 L 20.1791,-237.722 L 19.6289,-238.024 L 19.0451,-238.255 L 18.4369,-238.411
 L 17.8139,-238.49 L -17.8139,-238.49 L -18.4369,-238.411 L -19.0451,-238.255 L -19.6289,-238.024 L -20.1791,-237.722
 L -20.6871,-237.353 L -21.1448,-236.923 L -21.5451,-236.439 L -21.8815,-235.909 L -22.1489,-235.341 L -22.3429,-234.743
 L -22.4606,-234.127 L -22.5,-233.5 L -22.5,-198.5 L -22.4606,-197.873 L -22.3429,-197.257 L -22.1489,-196.659
 L -21.8815,-196.091 L -21.5451,-195.561 L -21.1448,-195.077 L -20.6871,-194.647 L -20.1791,-194.278 L -19.6289,-193.976
 L -19.0451,-193.745 L -18.4369,-193.589 L -17.8139,-193.51 L 17.8139,-193.51 z
M -12.2539,-194.04 L -11.8209,-194.278 L -11.3129,-194.647 L -10.8551,-195.077 L -10.4549,-195.561 L -10.1185,-196.091
 L -9.8511,-196.659 L -9.65707,-197.257 L -9.53941,-197.873 L -9.5,-198.5 L -9.5,-201.5 L -9.53941,-202.127
 L -9.65707,-202.743 L -9.8511,-203.341 L -10.1185,-203.909 L -10.4549,-204.439 L -10.8551,-204.923 L -11.3129,-205.353
 L -11.8209,-205.722 L -12.3711,-206.024 L -12.9549,-206.255 L -13.5631,-206.411 L -14.186,-206.49 L -17.8139,-206.49
 L -18.4369,-206.411 L -19.0451,-206.255 L -19.6289,-206.024 L -20.1791,-205.722 L -20.6871,-205.353 L -21.1448,-204.923
 L -21.5451,-204.439 L -21.8815,-203.909 L -21.9685,-203.724 L -21.9685,-233.5 L -21.9333,-234.06 L -21.8282,-234.611
 L -21.6547,-235.145 L -21.4158,-235.653 L -21.1151,-236.127 L -20.7574,-236.559 L -20.3483,-236.943 L -19.8944,-237.273
 L -19.4026,-237.543 L -18.8808,-237.75 L -18.3373,-237.889 L -17.7806,-237.96 L 17.7806,-237.96 L 18.3373,-237.889
 L 18.8808,-237.75 L 19.4026,-237.543 L 19.8944,-237.273 L 20.3483,-236.943 L 20.7574,-236.559 L 21.1151,-236.127
 L 21.4158,-235.653 L 21.6547,-235.145 L 21.8282,-234.611 L 21.9333,-234.06 L 21.9685,-233.5 L 21.9685,-198.5
 L 21.9333,-197.94 L 21.8282,-197.389 L 21.6547,-196.855 L 21.4158,-196.347 L 21.1151,-195.873 L 20.7574,-195.441
 L 20.3483,-195.057 L 19.8944,-194.727 L 19.4026,-194.457 L 18.8808,-194.25 L 18.3373,-194.111 L 17.7806,-194.04
 z
M 15.4684,-228.544 L 15.7725,-228.622 L 16.0644,-228.738 L 16.3396,-228.889 L 16.5936,-229.074 L 16.8224,-229.289
 L 17.0225,-229.531 L 17.1908,-229.796 L 17.3244,-230.08 L 17.4214,-230.378 L 17.4803,-230.687 L 17.5,-231
 L 17.4803,-231.313 L 17.4214,-231.622 L 17.3244,-231.92 L 17.1908,-232.204 L 17.0225,-232.469 L 16.8224,-232.711
 L 16.5936,-232.926 L 16.3396,-233.111 L 16.0644,-233.262 L 15.7725,-233.378 L 15.4684,-233.456 L 15.157,-233.495
 L 14.843,-233.495 L 14.5315,-233.456 L 14.2274,-233.378 L 13.9355,-233.262 L 13.6604,-233.111 L 13.4064,-232.926
 L 13.1776,-232.711 L 12.9774,-232.469 L 12.8092,-232.204 L 12.6756,-231.92 L 12.5785,-231.622 L 12.5197,-231.313
 L 12.5,-231 L 12.5197,-230.687 L 12.5785,-230.378 L 12.6756,-230.08 L 12.8092,-229.796 L 12.9774,-229.531
 L 13.1776,-229.289 L 13.4064,-229.074 L 13.6604,-228.889 L 13.9355,-228.738 L 14.2274,-228.622 L 14.5315,-228.544
 L 14.843,-228.505 L 15.157,-228.505 z
M 14.9058,-229.503 L 14.7189,-229.527 L 14.5365,-229.573 L 14.3613,-229.643 L 14.1963,-229.734 L 14.0439,-229.844
 L 13.9065,-229.973 L 13.7865,-230.118 L 13.6855,-230.277 L 13.6053,-230.448 L 13.5471,-230.627 L 13.5118,-230.812
 L 13.5,-231 L 13.5118,-231.188 L 13.5471,-231.373 L 13.6053,-231.552 L 13.6855,-231.723 L 13.7865,-231.882
 L 13.9065,-232.027 L 14.0439,-232.156 L 14.1963,-232.266 L 14.3613,-232.357 L 14.5365,-232.427 L 14.7189,-232.473
 L 14.9058,-232.497 L 15.0942,-232.497 L 15.2811,-232.473 L 15.4635,-232.427 L 15.6387,-232.357 L 15.8037,-232.266
 L 15.9561,-232.156 L 16.0934,-232.027 L 16.2135,-231.882 L 16.3145,-231.723 L 16.3947,-231.552 L 16.4529,-231.373
 L 16.4882,-231.188 L 16.5,-231 L 16.4882,-230.812 L 16.4529,-230.627 L 16.3947,-230.448 L 16.3145,-230.277
 L 16.2135,-230.118 L 16.0934,-229.973 L 15.9561,-229.844 L 15.8037,-229.734 L 15.6387,-229.643 L 15.4635,-229.573
 L 15.2811,-229.527 L 15.0942,-229.503 z
M -15.0942,-199.503 L -15.2811,-199.527 L -15.4635,-199.573 L -15.6387,-199.643 L -15.8037,-199.734 L -15.9561,-199.844
 L -16.0934,-199.973 L -16.2135,-200.118 L -16.3145,-200.277 L -16.3947,-200.448 L -16.4529,-200.627 L -16.4882,-200.812
 L -16.5,-201 L -16.4882,-201.188 L -16.4529,-201.373 L -16.3947,-201.552 L -16.3145,-201.723 L -16.2135,-201.882
 L -16.0934,-202.027 L -15.9561,-202.156 L -15.8037,-202.266 L -15.6387,-202.357 L -15.4635,-202.427 L -15.2811,-202.473
 L -15.0942,-202.497 L -14.9058,-202.497 L -14.7189,-202.473 L -14.5365,-202.427 L -14.3613,-202.357 L -14.1963,-202.266
 L -14.0439,-202.156 L -13.9065,-202.027 L -13.7865,-201.882 L -13.6855,-201.723 L -13.6053,-201.552 L -13.5471,-201.373
 L -13.5118,-201.188 L -13.5,-201 L -13.5118,-200.812 L -13.5471,-200.627 L -13.6053,-200.448 L -13.6855,-200.277
 L -13.7865,-200.118 L -13.9065,-199.973 L -14.0439,-199.844 L -14.1963,-199.734 L -14.3613,-199.643 L -14.5365,-199.573
 L -14.7189,-199.527 L -14.9058,-199.503 z
M 18.4369,-139.589 L 19.0451,-139.745 L 19.6289,-139.976 L 20.1791,-140.278 L 20.6871,-140.647 L 21.1448,-141.077
 L 21.5451,-141.561 L 21.8815,-142.091 L 22.1489,-142.659 L 22.3429,-143.257 L 22.4606,-143.873 L 22.5,-144.5
 L 22.5,-179.5 L 22.4606,-180.127 L 22.3429,-180.743 L 22.1489,-181.341 L 21.8815,-181.909 L 21.5451,-182.439
 L 21.1448,-182.923 L 20.6871,-183.353 L 20.1791,-183.722 L 19.6289,-184.024 L 19.0451,-184.255 L 18.4369,-184.411
 L 17.8139,-184.49 L -17.8139,-184.49 L -18.4369,-184.411 L -19.0451,-184.255 L -19.6289,-184.024 L -20.1791,-183.722
 L -20.6871,-183.353 L -21.1448,-182.923 L -21.5451,-182.439 L -21.8815,-181.909 L -22.1489,-181.341 L -22.3429,-180.743
 L -22.4606,-180.127 L -22.5,-179.5 L -22.5,-144.5 L -22.4606,-143.873 L -22.3429,-143.257 L -22.1489,-142.659
 L -21.8815,-142.091 L -21.5451,-141.561 L -21.1448,-141.077 L -20.6871,-140.647 L -20.1791,-140.278 L -19.6289,-139.976
 L -19.0451,-139.745 L -18.4369,-139.589 L -17.8139,-139.51 L 17.8139,-139.51 z
M -10.3781,-141.682 L -10.1185,-142.091 L -9.8511,-142.659 L -9.65707,-143.257 L -9.53941,-143.873 L -9.5,-144.5
 L -9.5,-147.5 L -9.53941,-148.127 L -9.65707,-148.743 L -9.8511,-149.341 L -10.1185,-149.909 L -10.4549,-150.439
 L -10.8551,-150.923 L -11.3129,-151.353 L -11.8209,-151.722 L -12.3711,-152.024 L -12.9549,-152.255 L -13.5631,-152.411
 L -14.186,-152.49 L -17.8139,-152.49 L -18.4369,-152.411 L -19.0451,-152.255 L -19.6289,-152.024 L -20.1791,-151.722
 L -20.3234,-151.617 L -20.3234,-179.5 L -20.3011,-179.854 L -20.2347,-180.202 L -20.1251,-180.539 L -19.9742,-180.86
 L -19.7842,-181.16 L -19.5582,-181.433 L -19.2997,-181.675 L -19.0128,-181.884 L -18.7021,-182.055 L -18.3725,-182.185
 L -18.0291,-182.273 L -17.6773,-182.318 L 10.3781,-182.318 L 10.1185,-181.909 L 9.8511,-181.341 L 9.65707,-180.743
 L 9.53941,-180.127 L 9.5,-179.5 L 9.5,-176.5 L 9.53941,-175.873 L 9.65707,-175.257 L 9.8511,-174.659
 L 10.1185,-174.091 L 10.4549,-173.561 L 10.8551,-173.077 L 11.3129,-172.647 L 11.8209,-172.278 L 12.3711,-171.976
 L 12.9549,-171.745 L 13.5631,-171.589 L 14.186,-171.51 L 17.8139,-171.51 L 18.4369,-171.589 L 19.0451,-171.745
 L 19.6289,-171.976 L 20.1791,-172.278 L 20.3234,-172.383 L 20.3234,-144.5 L 20.3011,-144.146 L 20.2347,-143.798
 L 20.1251,-143.461 L 19.9742,-143.14 L 19.7842,-142.84 L 19.5582,-142.567 L 19.2997,-142.325 L 19.0128,-142.116
 L 18.7021,-141.945 L 18.3725,-141.815 L 18.0291,-141.727 L 17.6773,-141.682 z
M 14.8493,-174.605 L 14.5503,-174.643 L 14.2583,-174.717 L 13.9781,-174.828 L 13.714,-174.974 L 13.4702,-175.151
 L 13.2505,-175.357 L 13.0583,-175.589 L 12.8969,-175.844 L 12.7685,-176.117 L 12.6754,-176.403 L 12.6189,-176.699
 L 12.6,-177 L 12.6189,-177.301 L 12.6754,-177.597 L 12.7685,-177.883 L 12.8969,-178.156 L 13.0583,-178.411
 L 13.2505,-178.643 L 13.4702,-178.849 L 13.714,-179.026 L 13.9781,-179.172 L 14.2583,-179.283 L 14.5503,-179.357
 L 14.8493,-179.395 L 15.1507,-179.395 L 15.4497,-179.357 L 15.7416,-179.283 L 16.0219,-179.172 L 16.286,-179.026
 L 16.5298,-178.849 L 16.7495,-178.643 L 16.9416,-178.411 L 17.1031,-178.156 L 17.2315,-177.883 L 17.3246,-177.597
 L 17.3811,-177.301 L 17.4,-177 L 17.3811,-176.699 L 17.3246,-176.403 L 17.2315,-176.117 L 17.1031,-175.844
 L 16.9416,-175.589 L 16.7495,-175.357 L 16.5298,-175.151 L 16.286,-174.974 L 16.0219,-174.828 L 15.7416,-174.717
 L 15.4497,-174.643 L 15.1507,-174.605 z
M -15.1507,-144.605 L -15.4497,-144.643 L -15.7416,-144.717 L -16.0219,-144.828 L -16.286,-144.974 L -16.5298,-145.151
 L -16.7495,-145.357 L -16.9416,-145.589 L -17.1031,-145.844 L -17.2315,-146.117 L -17.3246,-146.403 L -17.3811,-146.699
 L -17.4,-147 L -17.3811,-147.301 L -17.3246,-147.597 L -17.2315,-147.883 L -17.1031,-148.156 L -16.9416,-148.411
 L -16.7495,-148.643 L -16.5298,-148.849 L -16.286,-149.026 L -16.0219,-149.172 L -15.7416,-149.283 L -15.4497,-149.357
 L -15.1507,-149.395 L -14.8493,-149.395 L -14.5503,-149.357 L -14.2583,-149.283 L -13.9781,-149.172 L -13.714,-149.026
 L -13.4702,-148.849 L -13.2505,-148.643 L -13.0583,-148.411 L -12.8969,-148.156 L -12.7685,-147.883 L -12.6754,-147.597
 L -12.6189,-147.301 L -12.6,-147 L -12.6189,-146.699 L -12.6754,-146.403 L -12.7685,-146.117 L -12.8969,-145.844
 L -13.0583,-145.589 L -13.2505,-145.357 L -13.4702,-145.151 L -13.714,-144.974 L -13.9781,-144.828 L -14.2583,-144.717
 L -14.5503,-144.643 L -14.8493,-144.605 z
" stroke="black" fill="lightgray" stroke-width="0.5"/>
</svg>
