<?xml version="1.0" standalone="no"?>
<!DOCTYPE svg PUBLIC "-//W3C//DTD SVG 1.1//EN" "http://www.w3.org/Graphics/SVG/1.1/DTD/svg11.dtd">
<svg width="30mm" height="93mm" viewBox="-15 -93 30 93" xmlns="http://www.w3.org/2000/svg" version="1.1">
<title>OpenSCAD Model</title>
<path d="
M 14.5,-74.83 L 5.16031,-74.83 L 5.16031,-81 L 14.5,-81 L 14.5,-87.5 L 14.4606,-88.1267
 L 14.3429,-88.7434 L 14.1489,-89.3406 L 13.8815,-89.9088 L 13.5451,-90.4389 L 13.1448,-90.9227 L 12.6871,-91.3526
 L 12.1791,-91.7216 L 11.6289,-92.0241 L 11.0451,-92.2553 L 10.4369,-92.4114 L 9.81395,-92.4901 L -9.81395,-92.4901
 L -10.4369,-92.4114 L -11.0451,-92.2553 L -11.6289,-92.0241 L -12.1791,-91.7216 L -12.6871,-91.3526 L -13.1448,-90.9227
 L -13.5451,-90.4389 L -13.8815,-89.9088 L -14.1489,-89.3406 L -14.3429,-88.7434 L -14.4606,-88.1267 L -14.5,-87.5
 L -14.5,-72 L 14.5,-72 z
M -9,-89 L -9,-90 L -6,-90 L -6,-89 z
M 6,-89 L 6,-90 L 9,-90 L 9,-89 z
M -9,-84 L -9,-85 L -6,-85 L -6,-84 z
M 6,-84 L 6,-85 L 9,-85 L 9,-84 z
M -9.83968,-74.83 L -9.83968,-81 L -0.480927,-81 L -0.480927,-74.83 z
M -10.0307,-56 L -9.83968,-56 L -9.83968,-57 L -0.480927,-57 L -0.480927,-50.83 L -4.96927,-50.83
 L -4.96927,-48 L 4.96927,-48 L 4.96927,-56 L 5.16031,-56 L 5.16031,-57 L 14.5,-57
 L 14.5,-63.5 L 14.4606,-64.1267 L 14.3429,-64.7434 L 14.1489,-65.3406 L 13.8815,-65.9088 L 13.5451,-66.4389
 L 13.1448,-66.9227 L 12.6871,-67.3526 L 12.1791,-67.7216 L 11.6289,-68.0241 L 11.0451,-68.2553 L 10.4369,-68.4114
 L 9.81395,-68.4901 L -9.81395,-68.4901 L -10.4369,-68.4114 L -11.0451,-68.2553 L -11.6289,-68.0241 L -12.1791,-67.7216
 L -12.6871,-67.3526 L -13.1448,-66.9227 L -13.5451,-66.4389 L -13.8815,-65.9088 L -14.1489,-65.3406 L -14.3429,-64.7434
 L -14.4606,-64.1267 L -14.5,-63.5 L -14.5,-48 L -10.0307,-48 z
M -9,-65 L -9,-66 L -6,-66 L -6,-65 z
M 6,-65 L 6,-66 L 9,-66 L 9,-65 z
M 6,-60 L 6,-61 L 9,-61 L 9,-60 z
M -9,-60 L -9,-61 L -6,-61 L -6,-60 z
M 14.5,-50.83 L 10.0307,-50.83 L 10.0307,-48 L 14.5,-48 z
M -10.0942,-32 L -9.83968,-32 L -9.83968,-33 L -0.480927,-33 L -0.480927,-26.83 L -4.90581,-26.83
 L -4.90581,-24 L 4.90581,-24 L 4.90581,-32 L 5.16031,-32 L 5.16031,-33 L 14.5,-33
 L 14.5,-39.5 L 14.4606,-40.1267 L 14.3429,-40.7434 L 14.1489,-41.3406 L 13.8815,-41.9088 L 13.5451,-42.4389
 L 13.1448,-42.9227 L 12.6871,-43.3526 L 12.1791,-43.7216 L 11.6289,-44.0241 L 11.0451,-44.2553 L 10.4369,-44.4114
 L 9.81395,-44.4901 L -9.81395,-44.4901 L -10.4369,-44.4114 L -11.0451,-44.2553 L -11.6289,-44.0241 L -12.1791,-43.7216
 L -12.6871,-43.3526 L -13.1448,-42.9227 L -13.5451,-42.4389 L -13.8815,-41.9088 L -14.1489,-41.3406 L -14.3429,-40.7434
 L -14.4606,-40.1267 L -14.5,-39.5 L -14.5,-24 L -10.0942,-24 z
M -9,-41 L -9,-42 L -6,-42 L -6,-41 z
M 6,-41 L 6,-42 L 9,-42 L 9,-41 z
M 6,-36 L 6,-37 L 9,-37 L 9,-36 z
M -9,-36 L -9,-37 L -6,-37 L -6,-36 z
M 14.5,-26.83 L 10.0942,-26.83 L 10.0942,-24 L 14.5,-24 z
M 14.5,-2.82999 L 5.16031,-2.82999 L 5.16031,-9 L 14.5,-9 L 14.5,-15.5 L 14.4606,-16.1267
 L 14.3429,-16.7434 L 14.1489,-17.3406 L 13.8815,-17.9088 L 13.5451,-18.4389 L 13.1448,-18.9227 L 12.6871,-19.3526
 L 12.1791,-19.7216 L 11.6289,-20.0241 L 11.0451,-20.2553 L 10.4369,-20.4114 L 9.81395,-20.4901 L -9.81395,-20.4901
 L -10.4369,-20.4114 L -11.0451,-20.2553 L -11.6289,-20.0241 L -12.1791,-19.7216 L -12.6871,-19.3526 L -13.1448,-18.9227
 L -13.5451,-18.4389 L -13.8815,-17.9088 L -14.1489,-17.3406 L -14.3429,-16.7434 L -14.4606,-16.1267 L -14.5,-15.5
 L -14.5,-0 L 14.5,-0 z
M -9,-17 L -9,-18 L -6,-18 L -6,-17 z
M 6,-17 L 6,-18 L 9,-18 L 9,-17 z
M -9,-12 L -9,-13 L -6,-13 L -6,-12 z
M 6,-12 L 6,-13 L 9,-13 L 9,-12 z
M -9.83968,-2.82999 L -9.83968,-9 L -0.480927,-9 L -0.480927,-2.82999 z
" stroke="black" fill="lightgray" stroke-width="0.5"/>
</svg>
