  0
SECTION
  2
BLOCKS
  0
ENDSEC
  0
SECTION
  2
ENTITIES
  0
LINE
  8
0
 10
17.9369
 20
140.089
 11
18.5451
 21
140.245
  0
LINE
  8
0
 10
18.5451
 20
140.245
 11
19.1289
 21
140.476
  0
LINE
  8
0
 10
19.1289
 20
140.476
 11
19.6791
 21
140.778
  0
LINE
  8
0
 10
19.6791
 20
140.778
 11
20.1871
 21
141.147
  0
LINE
  8
0
 10
20.1871
 20
141.147
 11
20.6448
 21
141.577
  0
LINE
  8
0
 10
20.6448
 20
141.577
 11
21.0451
 21
142.061
  0
LINE
  8
0
 10
21.0451
 20
142.061
 11
21.3815
 21
142.591
  0
LINE
  8
0
 10
21.3815
 20
142.591
 11
21.6489
 21
143.159
  0
LINE
  8
0
 10
21.6489
 20
143.159
 11
21.8429
 21
143.757
  0
LINE
  8
0
 10
21.8429
 20
143.757
 11
21.9606
 21
144.373
  0
LINE
  8
0
 10
21.9606
 20
144.373
 11
22
 21
145
  0
LINE
  8
0
 10
22
 20
145
 11
22
 21
179
  0
LINE
  8
0
 10
22
 20
179
 11
21.9606
 21
179.627
  0
LINE
  8
0
 10
21.9606
 20
179.627
 11
21.8429
 21
180.243
  0
LINE
  8
0
 10
21.8429
 20
180.243
 11
21.6489
 21
180.841
  0
LINE
  8
0
 10
21.6489
 20
180.841
 11
21.3815
 21
181.409
  0
LINE
  8
0
 10
21.3815
 20
181.409
 11
21.0451
 21
181.939
  0
LINE
  8
0
 10
21.0451
 20
181.939
 11
20.6448
 21
182.423
  0
LINE
  8
0
 10
20.6448
 20
182.423
 11
20.1871
 21
182.853
  0
LINE
  8
0
 10
20.1871
 20
182.853
 11
19.6791
 21
183.222
  0
LINE
  8
0
 10
19.6791
 20
183.222
 11
19.1289
 21
183.524
  0
LINE
  8
0
 10
19.1289
 20
183.524
 11
18.5451
 21
183.755
  0
LINE
  8
0
 10
18.5451
 20
183.755
 11
17.9369
 21
183.911
  0
LINE
  8
0
 10
17.9369
 20
183.911
 11
17.3139
 21
183.99
  0
LINE
  8
0
 10
17.3139
 20
183.99
 11
-17.3139
 21
183.99
  0
LINE
  8
0
 10
-17.3139
 20
183.99
 11
-17.9369
 21
183.911
  0
LINE
  8
0
 10
-17.9369
 20
183.911
 11
-18.5451
 21
183.755
  0
LINE
  8
0
 10
-18.5451
 20
183.755
 11
-19.1289
 21
183.524
  0
LINE
  8
0
 10
-19.1289
 20
183.524
 11
-19.6791
 21
183.222
  0
LINE
  8
0
 10
-19.6791
 20
183.222
 11
-20.1871
 21
182.853
  0
LINE
  8
0
 10
-20.1871
 20
182.853
 11
-20.6448
 21
182.423
  0
LINE
  8
0
 10
-20.6448
 20
182.423
 11
-21.0451
 21
181.939
  0
LINE
  8
0
 10
-21.0451
 20
181.939
 11
-21.3815
 21
181.409
  0
LINE
  8
0
 10
-21.3815
 20
181.409
 11
-21.6489
 21
180.841
  0
LINE
  8
0
 10
-21.6489
 20
180.841
 11
-21.8429
 21
180.243
  0
LINE
  8
0
 10
-21.8429
 20
180.243
 11
-21.9606
 21
179.627
  0
LINE
  8
0
 10
-21.9606
 20
179.627
 11
-22
 21
179
  0
LINE
  8
0
 10
-22
 20
179
 11
-22
 21
145
  0
LINE
  8
0
 10
-22
 20
145
 11
-21.9606
 21
144.373
  0
LINE
  8
0
 10
-21.9606
 20
144.373
 11
-21.8429
 21
143.757
  0
LINE
  8
0
 10
-21.8429
 20
143.757
 11
-21.6489
 21
143.159
  0
LINE
  8
0
 10
-21.6489
 20
143.159
 11
-21.3815
 21
142.591
  0
LINE
  8
0
 10
-21.3815
 20
142.591
 11
-21.0451
 21
142.061
  0
LINE
  8
0
 10
-21.0451
 20
142.061
 11
-20.6448
 21
141.577
  0
LINE
  8
0
 10
-20.6448
 20
141.577
 11
-20.1871
 21
141.147
  0
LINE
  8
0
 10
-20.1871
 20
141.147
 11
-19.6791
 21
140.778
  0
LINE
  8
0
 10
-19.6791
 20
140.778
 11
-19.1289
 21
140.476
  0
LINE
  8
0
 10
-19.1289
 20
140.476
 11
-18.5451
 21
140.245
  0
LINE
  8
0
 10
-18.5451
 20
140.245
 11
-17.9369
 21
140.089
  0
LINE
  8
0
 10
-17.9369
 20
140.089
 11
-17.3139
 21
140.01
  0
LINE
  8
0
 10
-17.3139
 20
140.01
 11
17.3139
 21
140.01
  0
LINE
  8
0
 10
17.3139
 20
140.01
 11
17.9369
 21
140.089
  0
LINE
  8
0
 10
-15.1884
 20
174.006
 11
-15.5621
 21
174.053
  0
LINE
  8
0
 10
-15.5621
 20
174.053
 11
-15.927
 21
174.147
  0
LINE
  8
0
 10
-15.927
 20
174.147
 11
-16.2773
 21
174.286
  0
LINE
  8
0
 10
-16.2773
 20
174.286
 11
-16.6075
 21
174.467
  0
LINE
  8
0
 10
-16.6075
 20
174.467
 11
-16.9123
 21
174.688
  0
LINE
  8
0
 10
-16.9123
 20
174.688
 11
-17.1869
 21
174.946
  0
LINE
  8
0
 10
-17.1869
 20
174.946
 11
-17.427
 21
175.237
  0
LINE
  8
0
 10
-17.427
 20
175.237
 11
-17.6289
 21
175.555
  0
LINE
  8
0
 10
-17.6289
 20
175.555
 11
-17.7893
 21
175.896
  0
LINE
  8
0
 10
-17.7893
 20
175.896
 11
-17.9057
 21
176.254
  0
LINE
  8
0
 10
-17.9057
 20
176.254
 11
-17.9763
 21
176.624
  0
LINE
  8
0
 10
-17.9763
 20
176.624
 11
-18
 21
177
  0
LINE
  8
0
 10
-18
 20
177
 11
-17.9763
 21
177.376
  0
LINE
  8
0
 10
-17.9763
 20
177.376
 11
-17.9057
 21
177.746
  0
LINE
  8
0
 10
-17.9057
 20
177.746
 11
-17.7893
 21
178.104
  0
LINE
  8
0
 10
-17.7893
 20
178.104
 11
-17.6289
 21
178.445
  0
LINE
  8
0
 10
-17.6289
 20
178.445
 11
-17.427
 21
178.763
  0
LINE
  8
0
 10
-17.427
 20
178.763
 11
-17.1869
 21
179.054
  0
LINE
  8
0
 10
-17.1869
 20
179.054
 11
-16.9123
 21
179.312
  0
LINE
  8
0
 10
-16.9123
 20
179.312
 11
-16.6075
 21
179.533
  0
LINE
  8
0
 10
-16.6075
 20
179.533
 11
-16.2773
 21
179.714
  0
LINE
  8
0
 10
-16.2773
 20
179.714
 11
-15.927
 21
179.853
  0
LINE
  8
0
 10
-15.927
 20
179.853
 11
-15.5621
 21
179.947
  0
LINE
  8
0
 10
-15.5621
 20
179.947
 11
-15.1884
 21
179.994
  0
LINE
  8
0
 10
-15.1884
 20
179.994
 11
-14.8116
 21
179.994
  0
LINE
  8
0
 10
-14.8116
 20
179.994
 11
-14.4379
 21
179.947
  0
LINE
  8
0
 10
-14.4379
 20
179.947
 11
-14.0729
 21
179.853
  0
LINE
  8
0
 10
-14.0729
 20
179.853
 11
-13.7227
 21
179.714
  0
LINE
  8
0
 10
-13.7227
 20
179.714
 11
-13.3925
 21
179.533
  0
LINE
  8
0
 10
-13.3925
 20
179.533
 11
-13.0877
 21
179.312
  0
LINE
  8
0
 10
-13.0877
 20
179.312
 11
-12.8131
 21
179.054
  0
LINE
  8
0
 10
-12.8131
 20
179.054
 11
-12.5729
 21
178.763
  0
LINE
  8
0
 10
-12.5729
 20
178.763
 11
-12.3711
 21
178.445
  0
LINE
  8
0
 10
-12.3711
 20
178.445
 11
-12.2107
 21
178.104
  0
LINE
  8
0
 10
-12.2107
 20
178.104
 11
-12.0942
 21
177.746
  0
LINE
  8
0
 10
-12.0942
 20
177.746
 11
-12.0237
 21
177.376
  0
LINE
  8
0
 10
-12.0237
 20
177.376
 11
-12
 21
177
  0
LINE
  8
0
 10
-12
 20
177
 11
-12.0237
 21
176.624
  0
LINE
  8
0
 10
-12.0237
 20
176.624
 11
-12.0942
 21
176.254
  0
LINE
  8
0
 10
-12.0942
 20
176.254
 11
-12.2107
 21
175.896
  0
LINE
  8
0
 10
-12.2107
 20
175.896
 11
-12.3711
 21
175.555
  0
LINE
  8
0
 10
-12.3711
 20
175.555
 11
-12.5729
 21
175.237
  0
LINE
  8
0
 10
-12.5729
 20
175.237
 11
-12.8131
 21
174.946
  0
LINE
  8
0
 10
-12.8131
 20
174.946
 11
-13.0877
 21
174.688
  0
LINE
  8
0
 10
-13.0877
 20
174.688
 11
-13.3925
 21
174.467
  0
LINE
  8
0
 10
-13.3925
 20
174.467
 11
-13.7227
 21
174.286
  0
LINE
  8
0
 10
-13.7227
 20
174.286
 11
-14.0729
 21
174.147
  0
LINE
  8
0
 10
-14.0729
 20
174.147
 11
-14.4379
 21
174.053
  0
LINE
  8
0
 10
-14.4379
 20
174.053
 11
-14.8116
 21
174.006
  0
LINE
  8
0
 10
-14.8116
 20
174.006
 11
-15.1884
 21
174.006
  0
LINE
  8
0
 10
14.8116
 20
174.006
 11
14.4379
 21
174.053
  0
LINE
  8
0
 10
14.4379
 20
174.053
 11
14.0729
 21
174.147
  0
LINE
  8
0
 10
14.0729
 20
174.147
 11
13.7227
 21
174.286
  0
LINE
  8
0
 10
13.7227
 20
174.286
 11
13.3925
 21
174.467
  0
LINE
  8
0
 10
13.3925
 20
174.467
 11
13.0877
 21
174.688
  0
LINE
  8
0
 10
13.0877
 20
174.688
 11
12.8131
 21
174.946
  0
LINE
  8
0
 10
12.8131
 20
174.946
 11
12.5729
 21
175.237
  0
LINE
  8
0
 10
12.5729
 20
175.237
 11
12.3711
 21
175.555
  0
LINE
  8
0
 10
12.3711
 20
175.555
 11
12.2107
 21
175.896
  0
LINE
  8
0
 10
12.2107
 20
175.896
 11
12.0942
 21
176.254
  0
LINE
  8
0
 10
12.0942
 20
176.254
 11
12.0237
 21
176.624
  0
LINE
  8
0
 10
12.0237
 20
176.624
 11
12
 21
177
  0
LINE
  8
0
 10
12
 20
177
 11
12.0237
 21
177.376
  0
LINE
  8
0
 10
12.0237
 20
177.376
 11
12.0942
 21
177.746
  0
LINE
  8
0
 10
12.0942
 20
177.746
 11
12.2107
 21
178.104
  0
LINE
  8
0
 10
12.2107
 20
178.104
 11
12.3711
 21
178.445
  0
LINE
  8
0
 10
12.3711
 20
178.445
 11
12.5729
 21
178.763
  0
LINE
  8
0
 10
12.5729
 20
178.763
 11
12.8131
 21
179.054
  0
LINE
  8
0
 10
12.8131
 20
179.054
 11
13.0877
 21
179.312
  0
LINE
  8
0
 10
13.0877
 20
179.312
 11
13.3925
 21
179.533
  0
LINE
  8
0
 10
13.3925
 20
179.533
 11
13.7227
 21
179.714
  0
LINE
  8
0
 10
13.7227
 20
179.714
 11
14.0729
 21
179.853
  0
LINE
  8
0
 10
14.0729
 20
179.853
 11
14.4379
 21
179.947
  0
LINE
  8
0
 10
14.4379
 20
179.947
 11
14.8116
 21
179.994
  0
LINE
  8
0
 10
14.8116
 20
179.994
 11
15.1884
 21
179.994
  0
LINE
  8
0
 10
15.1884
 20
179.994
 11
15.5621
 21
179.947
  0
LINE
  8
0
 10
15.5621
 20
179.947
 11
15.927
 21
179.853
  0
LINE
  8
0
 10
15.927
 20
179.853
 11
16.2773
 21
179.714
  0
LINE
  8
0
 10
16.2773
 20
179.714
 11
16.6075
 21
179.533
  0
LINE
  8
0
 10
16.6075
 20
179.533
 11
16.9123
 21
179.312
  0
LINE
  8
0
 10
16.9123
 20
179.312
 11
17.1869
 21
179.054
  0
LINE
  8
0
 10
17.1869
 20
179.054
 11
17.427
 21
178.763
  0
LINE
  8
0
 10
17.427
 20
178.763
 11
17.6289
 21
178.445
  0
LINE
  8
0
 10
17.6289
 20
178.445
 11
17.7893
 21
178.104
  0
LINE
  8
0
 10
17.7893
 20
178.104
 11
17.9057
 21
177.746
  0
LINE
  8
0
 10
17.9057
 20
177.746
 11
17.9763
 21
177.376
  0
LINE
  8
0
 10
17.9763
 20
177.376
 11
18
 21
177
  0
LINE
  8
0
 10
18
 20
177
 11
17.9763
 21
176.624
  0
LINE
  8
0
 10
17.9763
 20
176.624
 11
17.9057
 21
176.254
  0
LINE
  8
0
 10
17.9057
 20
176.254
 11
17.7893
 21
175.896
  0
LINE
  8
0
 10
17.7893
 20
175.896
 11
17.6289
 21
175.555
  0
LINE
  8
0
 10
17.6289
 20
175.555
 11
17.427
 21
175.237
  0
LINE
  8
0
 10
17.427
 20
175.237
 11
17.1869
 21
174.946
  0
LINE
  8
0
 10
17.1869
 20
174.946
 11
16.9123
 21
174.688
  0
LINE
  8
0
 10
16.9123
 20
174.688
 11
16.6075
 21
174.467
  0
LINE
  8
0
 10
16.6075
 20
174.467
 11
16.2773
 21
174.286
  0
LINE
  8
0
 10
16.2773
 20
174.286
 11
15.927
 21
174.147
  0
LINE
  8
0
 10
15.927
 20
174.147
 11
15.5621
 21
174.053
  0
LINE
  8
0
 10
15.5621
 20
174.053
 11
15.1884
 21
174.006
  0
LINE
  8
0
 10
15.1884
 20
174.006
 11
14.8116
 21
174.006
  0
LINE
  8
0
 10
-0.150696
 20
174.605
 11
-0.449707
 21
174.643
  0
LINE
  8
0
 10
-0.449707
 20
174.643
 11
-0.741638
 21
174.717
  0
LINE
  8
0
 10
-0.741638
 20
174.717
 11
-1.02187
 21
174.828
  0
LINE
  8
0
 10
-1.02187
 20
174.828
 11
-1.28598
 21
174.974
  0
LINE
  8
0
 10
-1.28598
 20
174.974
 11
-1.52982
 21
175.151
  0
LINE
  8
0
 10
-1.52982
 20
175.151
 11
-1.74951
 21
175.357
  0
LINE
  8
0
 10
-1.74951
 20
175.357
 11
-1.94164
 21
175.589
  0
LINE
  8
0
 10
-1.94164
 20
175.589
 11
-2.10313
 21
175.844
  0
LINE
  8
0
 10
-2.10313
 20
175.844
 11
-2.23146
 21
176.117
  0
LINE
  8
0
 10
-2.23146
 20
176.117
 11
-2.32458
 21
176.403
  0
LINE
  8
0
 10
-2.32458
 20
176.403
 11
-2.38107
 21
176.699
  0
LINE
  8
0
 10
-2.38107
 20
176.699
 11
-2.39999
 21
177
  0
LINE
  8
0
 10
-2.39999
 20
177
 11
-2.38107
 21
177.301
  0
LINE
  8
0
 10
-2.38107
 20
177.301
 11
-2.32458
 21
177.597
  0
LINE
  8
0
 10
-2.32458
 20
177.597
 11
-2.23146
 21
177.883
  0
LINE
  8
0
 10
-2.23146
 20
177.883
 11
-2.10313
 21
178.156
  0
LINE
  8
0
 10
-2.10313
 20
178.156
 11
-1.94164
 21
178.411
  0
LINE
  8
0
 10
-1.94164
 20
178.411
 11
-1.74951
 21
178.643
  0
LINE
  8
0
 10
-1.74951
 20
178.643
 11
-1.52982
 21
178.849
  0
LINE
  8
0
 10
-1.52982
 20
178.849
 11
-1.28598
 21
179.026
  0
LINE
  8
0
 10
-1.28598
 20
179.026
 11
-1.02187
 21
179.172
  0
LINE
  8
0
 10
-1.02187
 20
179.172
 11
-0.741638
 21
179.283
  0
LINE
  8
0
 10
-0.741638
 20
179.283
 11
-0.449707
 21
179.357
  0
LINE
  8
0
 10
-0.449707
 20
179.357
 11
-0.150696
 21
179.395
  0
LINE
  8
0
 10
-0.150696
 20
179.395
 11
0.150696
 21
179.395
  0
LINE
  8
0
 10
0.150696
 20
179.395
 11
0.449707
 21
179.357
  0
LINE
  8
0
 10
0.449707
 20
179.357
 11
0.741638
 21
179.283
  0
LINE
  8
0
 10
0.741638
 20
179.283
 11
1.02187
 21
179.172
  0
LINE
  8
0
 10
1.02187
 20
179.172
 11
1.28598
 21
179.026
  0
LINE
  8
0
 10
1.28598
 20
179.026
 11
1.52982
 21
178.849
  0
LINE
  8
0
 10
1.52982
 20
178.849
 11
1.74951
 21
178.643
  0
LINE
  8
0
 10
1.74951
 20
178.643
 11
1.94164
 21
178.411
  0
LINE
  8
0
 10
1.94164
 20
178.411
 11
2.10313
 21
178.156
  0
LINE
  8
0
 10
2.10313
 20
178.156
 11
2.23146
 21
177.883
  0
LINE
  8
0
 10
2.23146
 20
177.883
 11
2.32458
 21
177.597
  0
LINE
  8
0
 10
2.32458
 20
177.597
 11
2.38107
 21
177.301
  0
LINE
  8
0
 10
2.38107
 20
177.301
 11
2.39999
 21
177
  0
LINE
  8
0
 10
2.39999
 20
177
 11
2.38107
 21
176.699
  0
LINE
  8
0
 10
2.38107
 20
176.699
 11
2.32458
 21
176.403
  0
LINE
  8
0
 10
2.32458
 20
176.403
 11
2.23146
 21
176.117
  0
LINE
  8
0
 10
2.23146
 20
176.117
 11
2.10313
 21
175.844
  0
LINE
  8
0
 10
2.10313
 20
175.844
 11
1.94164
 21
175.589
  0
LINE
  8
0
 10
1.94164
 20
175.589
 11
1.74951
 21
175.357
  0
LINE
  8
0
 10
1.74951
 20
175.357
 11
1.52982
 21
175.151
  0
LINE
  8
0
 10
1.52982
 20
175.151
 11
1.28598
 21
174.974
  0
LINE
  8
0
 10
1.28598
 20
174.974
 11
1.02187
 21
174.828
  0
LINE
  8
0
 10
1.02187
 20
174.828
 11
0.741638
 21
174.717
  0
LINE
  8
0
 10
0.741638
 20
174.717
 11
0.449707
 21
174.643
  0
LINE
  8
0
 10
0.449707
 20
174.643
 11
0.150696
 21
174.605
  0
LINE
  8
0
 10
0.150696
 20
174.605
 11
-0.150696
 21
174.605
  0
LINE
  8
0
 10
-0.470917
 20
154.515
 11
-1.40535
 21
154.633
  0
LINE
  8
0
 10
-1.40535
 20
154.633
 11
-2.31763
 21
154.867
  0
LINE
  8
0
 10
-2.31763
 20
154.867
 11
-3.19334
 21
155.214
  0
LINE
  8
0
 10
-3.19334
 20
155.214
 11
-4.01869
 21
155.668
  0
LINE
  8
0
 10
-4.01869
 20
155.668
 11
-4.78067
 21
156.221
  0
LINE
  8
0
 10
-4.78067
 20
156.221
 11
-5.46725
 21
156.866
  0
LINE
  8
0
 10
-5.46725
 20
156.866
 11
-6.06763
 21
157.592
  0
LINE
  8
0
 10
-6.06763
 20
157.592
 11
-6.5723
 21
158.387
  0
LINE
  8
0
 10
-6.5723
 20
158.387
 11
-6.97331
 21
159.239
  0
LINE
  8
0
 10
-6.97331
 20
159.239
 11
-7.26436
 21
160.135
  0
LINE
  8
0
 10
-7.26436
 20
160.135
 11
-7.44086
 21
161.06
  0
LINE
  8
0
 10
-7.44086
 20
161.06
 11
-7.5
 21
162
  0
LINE
  8
0
 10
-7.5
 20
162
 11
-7.44086
 21
162.94
  0
LINE
  8
0
 10
-7.44086
 20
162.94
 11
-7.26436
 21
163.865
  0
LINE
  8
0
 10
-7.26436
 20
163.865
 11
-6.97331
 21
164.761
  0
LINE
  8
0
 10
-6.97331
 20
164.761
 11
-6.5723
 21
165.613
  0
LINE
  8
0
 10
-6.5723
 20
165.613
 11
-6.06763
 21
166.408
  0
LINE
  8
0
 10
-6.06763
 20
166.408
 11
-5.46725
 21
167.134
  0
LINE
  8
0
 10
-5.46725
 20
167.134
 11
-4.78067
 21
167.779
  0
LINE
  8
0
 10
-4.78067
 20
167.779
 11
-4.01869
 21
168.332
  0
LINE
  8
0
 10
-4.01869
 20
168.332
 11
-3.19334
 21
168.786
  0
LINE
  8
0
 10
-3.19334
 20
168.786
 11
-2.31763
 21
169.133
  0
LINE
  8
0
 10
-2.31763
 20
169.133
 11
-1.40535
 21
169.367
  0
LINE
  8
0
 10
-1.40535
 20
169.367
 11
-0.470917
 21
169.485
  0
LINE
  8
0
 10
-0.470917
 20
169.485
 11
0.470917
 21
169.485
  0
LINE
  8
0
 10
0.470917
 20
169.485
 11
1.40535
 21
169.367
  0
LINE
  8
0
 10
1.40535
 20
169.367
 11
2.31763
 21
169.133
  0
LINE
  8
0
 10
2.31763
 20
169.133
 11
3.19334
 21
168.786
  0
LINE
  8
0
 10
3.19334
 20
168.786
 11
4.01869
 21
168.332
  0
LINE
  8
0
 10
4.01869
 20
168.332
 11
4.78067
 21
167.779
  0
LINE
  8
0
 10
4.78067
 20
167.779
 11
5.46725
 21
167.134
  0
LINE
  8
0
 10
5.46725
 20
167.134
 11
6.06763
 21
166.408
  0
LINE
  8
0
 10
6.06763
 20
166.408
 11
6.5723
 21
165.613
  0
LINE
  8
0
 10
6.5723
 20
165.613
 11
6.97331
 21
164.761
  0
LINE
  8
0
 10
6.97331
 20
164.761
 11
7.26436
 21
163.865
  0
LINE
  8
0
 10
7.26436
 20
163.865
 11
7.44086
 21
162.94
  0
LINE
  8
0
 10
7.44086
 20
162.94
 11
7.5
 21
162
  0
LINE
  8
0
 10
7.5
 20
162
 11
7.44086
 21
161.06
  0
LINE
  8
0
 10
7.44086
 20
161.06
 11
7.26436
 21
160.135
  0
LINE
  8
0
 10
7.26436
 20
160.135
 11
6.97331
 21
159.239
  0
LINE
  8
0
 10
6.97331
 20
159.239
 11
6.5723
 21
158.387
  0
LINE
  8
0
 10
6.5723
 20
158.387
 11
6.06763
 21
157.592
  0
LINE
  8
0
 10
6.06763
 20
157.592
 11
5.46725
 21
156.866
  0
LINE
  8
0
 10
5.46725
 20
156.866
 11
4.78067
 21
156.221
  0
LINE
  8
0
 10
4.78067
 20
156.221
 11
4.01869
 21
155.668
  0
LINE
  8
0
 10
4.01869
 20
155.668
 11
3.19334
 21
155.214
  0
LINE
  8
0
 10
3.19334
 20
155.214
 11
2.31763
 21
154.867
  0
LINE
  8
0
 10
2.31763
 20
154.867
 11
1.40535
 21
154.633
  0
LINE
  8
0
 10
1.40535
 20
154.633
 11
0.470917
 21
154.515
  0
LINE
  8
0
 10
0.470917
 20
154.515
 11
-0.470917
 21
154.515
  0
LINE
  8
0
 10
0.749512
 20
158.071
 11
1.23605
 21
158.196
  0
LINE
  8
0
 10
1.23605
 20
158.196
 11
1.70311
 21
158.381
  0
LINE
  8
0
 10
1.70311
 20
158.381
 11
2.1433
 21
158.623
  0
LINE
  8
0
 10
2.1433
 20
158.623
 11
2.54968
 21
158.918
  0
LINE
  8
0
 10
2.54968
 20
158.918
 11
2.91586
 21
159.262
  0
LINE
  8
0
 10
2.91586
 20
159.262
 11
3.23605
 21
159.649
  0
LINE
  8
0
 10
3.23605
 20
159.649
 11
3.50522
 21
160.073
  0
LINE
  8
0
 10
3.50522
 20
160.073
 11
3.7191
 21
160.528
  0
LINE
  8
0
 10
3.7191
 20
160.528
 11
3.87433
 21
161.005
  0
LINE
  8
0
 10
3.87433
 20
161.005
 11
3.96844
 21
161.499
  0
LINE
  8
0
 10
3.96844
 20
161.499
 11
4
 21
162
  0
LINE
  8
0
 10
4
 20
162
 11
3.96844
 21
162.501
  0
LINE
  8
0
 10
3.96844
 20
162.501
 11
3.87433
 21
162.995
  0
LINE
  8
0
 10
3.87433
 20
162.995
 11
3.7191
 21
163.472
  0
LINE
  8
0
 10
3.7191
 20
163.472
 11
3.50522
 21
163.927
  0
LINE
  8
0
 10
3.50522
 20
163.927
 11
3.23605
 21
164.351
  0
LINE
  8
0
 10
3.23605
 20
164.351
 11
2.91586
 21
164.738
  0
LINE
  8
0
 10
2.91586
 20
164.738
 11
2.54968
 21
165.082
  0
LINE
  8
0
 10
2.54968
 20
165.082
 11
2.1433
 21
165.377
  0
LINE
  8
0
 10
2.1433
 20
165.377
 11
1.70311
 21
165.619
  0
LINE
  8
0
 10
1.70311
 20
165.619
 11
1.23605
 21
165.804
  0
LINE
  8
0
 10
1.23605
 20
165.804
 11
0.749512
 21
165.929
  0
LINE
  8
0
 10
0.749512
 20
165.929
 11
0.25116
 21
165.992
  0
LINE
  8
0
 10
0.25116
 20
165.992
 11
-0.25116
 21
165.992
  0
LINE
  8
0
 10
-0.25116
 20
165.992
 11
-0.749512
 21
165.929
  0
LINE
  8
0
 10
-0.749512
 20
165.929
 11
-1.23605
 21
165.804
  0
LINE
  8
0
 10
-1.23605
 20
165.804
 11
-1.70311
 21
165.619
  0
LINE
  8
0
 10
-1.70311
 20
165.619
 11
-2.1433
 21
165.377
  0
LINE
  8
0
 10
-2.1433
 20
165.377
 11
-2.54968
 21
165.082
  0
LINE
  8
0
 10
-2.54968
 20
165.082
 11
-2.91586
 21
164.738
  0
LINE
  8
0
 10
-2.91586
 20
164.738
 11
-3.23605
 21
164.351
  0
LINE
  8
0
 10
-3.23605
 20
164.351
 11
-3.50522
 21
163.927
  0
LINE
  8
0
 10
-3.50522
 20
163.927
 11
-3.7191
 21
163.472
  0
LINE
  8
0
 10
-3.7191
 20
163.472
 11
-3.87433
 21
162.995
  0
LINE
  8
0
 10
-3.87433
 20
162.995
 11
-3.96844
 21
162.501
  0
LINE
  8
0
 10
-3.96844
 20
162.501
 11
-4
 21
162
  0
LINE
  8
0
 10
-4
 20
162
 11
-3.96844
 21
161.499
  0
LINE
  8
0
 10
-3.96844
 20
161.499
 11
-3.87433
 21
161.005
  0
LINE
  8
0
 10
-3.87433
 20
161.005
 11
-3.7191
 21
160.528
  0
LINE
  8
0
 10
-3.7191
 20
160.528
 11
-3.50522
 21
160.073
  0
LINE
  8
0
 10
-3.50522
 20
160.073
 11
-3.23605
 21
159.649
  0
LINE
  8
0
 10
-3.23605
 20
159.649
 11
-2.91586
 21
159.262
  0
LINE
  8
0
 10
-2.91586
 20
159.262
 11
-2.54968
 21
158.918
  0
LINE
  8
0
 10
-2.54968
 20
158.918
 11
-2.1433
 21
158.623
  0
LINE
  8
0
 10
-2.1433
 20
158.623
 11
-1.70311
 21
158.381
  0
LINE
  8
0
 10
-1.70311
 20
158.381
 11
-1.23605
 21
158.196
  0
LINE
  8
0
 10
-1.23605
 20
158.196
 11
-0.749512
 21
158.071
  0
LINE
  8
0
 10
-0.749512
 20
158.071
 11
-0.25116
 21
158.008
  0
LINE
  8
0
 10
-0.25116
 20
158.008
 11
0.25116
 21
158.008
  0
LINE
  8
0
 10
0.25116
 20
158.008
 11
0.749512
 21
158.071
  0
LINE
  8
0
 10
-0.18837
 20
159.006
 11
-0.562134
 21
159.053
  0
LINE
  8
0
 10
-0.562134
 20
159.053
 11
-0.927048
 21
159.147
  0
LINE
  8
0
 10
-0.927048
 20
159.147
 11
-1.27733
 21
159.286
  0
LINE
  8
0
 10
-1.27733
 20
159.286
 11
-1.60747
 21
159.467
  0
LINE
  8
0
 10
-1.60747
 20
159.467
 11
-1.91226
 21
159.688
  0
LINE
  8
0
 10
-1.91226
 20
159.688
 11
-2.1869
 21
159.946
  0
LINE
  8
0
 10
-2.1869
 20
159.946
 11
-2.42705
 21
160.237
  0
LINE
  8
0
 10
-2.42705
 20
160.237
 11
-2.62891
 21
160.555
  0
LINE
  8
0
 10
-2.62891
 20
160.555
 11
-2.78932
 21
160.896
  0
LINE
  8
0
 10
-2.78932
 20
160.896
 11
-2.90575
 21
161.254
  0
LINE
  8
0
 10
-2.90575
 20
161.254
 11
-2.97633
 21
161.624
  0
LINE
  8
0
 10
-2.97633
 20
161.624
 11
-3
 21
162
  0
LINE
  8
0
 10
-3
 20
162
 11
-2.97633
 21
162.376
  0
LINE
  8
0
 10
-2.97633
 20
162.376
 11
-2.90575
 21
162.746
  0
LINE
  8
0
 10
-2.90575
 20
162.746
 11
-2.78932
 21
163.104
  0
LINE
  8
0
 10
-2.78932
 20
163.104
 11
-2.62891
 21
163.445
  0
LINE
  8
0
 10
-2.62891
 20
163.445
 11
-2.42705
 21
163.763
  0
LINE
  8
0
 10
-2.42705
 20
163.763
 11
-2.1869
 21
164.054
  0
LINE
  8
0
 10
-2.1869
 20
164.054
 11
-1.91226
 21
164.312
  0
LINE
  8
0
 10
-1.91226
 20
164.312
 11
-1.60747
 21
164.533
  0
LINE
  8
0
 10
-1.60747
 20
164.533
 11
-1.27733
 21
164.714
  0
LINE
  8
0
 10
-1.27733
 20
164.714
 11
-0.927048
 21
164.853
  0
LINE
  8
0
 10
-0.927048
 20
164.853
 11
-0.562134
 21
164.947
  0
LINE
  8
0
 10
-0.562134
 20
164.947
 11
-0.18837
 21
164.994
  0
LINE
  8
0
 10
-0.18837
 20
164.994
 11
0.18837
 21
164.994
  0
LINE
  8
0
 10
0.18837
 20
164.994
 11
0.562134
 21
164.947
  0
LINE
  8
0
 10
0.562134
 20
164.947
 11
0.927048
 21
164.853
  0
LINE
  8
0
 10
0.927048
 20
164.853
 11
1.27733
 21
164.714
  0
LINE
  8
0
 10
1.27733
 20
164.714
 11
1.60747
 21
164.533
  0
LINE
  8
0
 10
1.60747
 20
164.533
 11
1.91226
 21
164.312
  0
LINE
  8
0
 10
1.91226
 20
164.312
 11
2.1869
 21
164.054
  0
LINE
  8
0
 10
2.1869
 20
164.054
 11
2.42705
 21
163.763
  0
LINE
  8
0
 10
2.42705
 20
163.763
 11
2.62891
 21
163.445
  0
LINE
  8
0
 10
2.62891
 20
163.445
 11
2.78932
 21
163.104
  0
LINE
  8
0
 10
2.78932
 20
163.104
 11
2.90575
 21
162.746
  0
LINE
  8
0
 10
2.90575
 20
162.746
 11
2.97633
 21
162.376
  0
LINE
  8
0
 10
2.97633
 20
162.376
 11
3
 21
162
  0
LINE
  8
0
 10
3
 20
162
 11
2.97633
 21
161.624
  0
LINE
  8
0
 10
2.97633
 20
161.624
 11
2.90575
 21
161.254
  0
LINE
  8
0
 10
2.90575
 20
161.254
 11
2.78932
 21
160.896
  0
LINE
  8
0
 10
2.78932
 20
160.896
 11
2.62891
 21
160.555
  0
LINE
  8
0
 10
2.62891
 20
160.555
 11
2.42705
 21
160.237
  0
LINE
  8
0
 10
2.42705
 20
160.237
 11
2.1869
 21
159.946
  0
LINE
  8
0
 10
2.1869
 20
159.946
 11
1.91226
 21
159.688
  0
LINE
  8
0
 10
1.91226
 20
159.688
 11
1.60747
 21
159.467
  0
LINE
  8
0
 10
1.60747
 20
159.467
 11
1.27733
 21
159.286
  0
LINE
  8
0
 10
1.27733
 20
159.286
 11
0.927048
 21
159.147
  0
LINE
  8
0
 10
0.927048
 20
159.147
 11
0.562134
 21
159.053
  0
LINE
  8
0
 10
0.562134
 20
159.053
 11
0.18837
 21
159.006
  0
LINE
  8
0
 10
0.18837
 20
159.006
 11
-0.18837
 21
159.006
  0
LINE
  8
0
 10
14.5997
 20
159.634
 11
14.3063
 21
159.702
  0
LINE
  8
0
 10
14.3063
 20
159.702
 11
14.0238
 21
159.807
  0
LINE
  8
0
 10
14.0238
 20
159.807
 11
13.7567
 21
159.947
  0
LINE
  8
0
 10
13.7567
 20
159.947
 11
13.5092
 21
160.119
  0
LINE
  8
0
 10
13.5092
 20
160.119
 11
13.2853
 21
160.321
  0
LINE
  8
0
 10
13.2853
 20
160.321
 11
13.0883
 21
160.549
  0
LINE
  8
0
 10
13.0883
 20
160.549
 11
12.9215
 21
160.8
  0
LINE
  8
0
 10
12.9215
 20
160.8
 11
12.7875
 21
161.07
  0
LINE
  8
0
 10
12.7875
 20
161.07
 11
12.6884
 21
161.355
  0
LINE
  8
0
 10
12.6884
 20
161.355
 11
12.6257
 21
161.649
  0
LINE
  8
0
 10
12.6257
 20
161.649
 11
12.6005
 21
161.95
  0
LINE
  8
0
 10
12.6005
 20
161.95
 11
12.6131
 21
162.251
  0
LINE
  8
0
 10
12.6131
 20
162.251
 11
12.6634
 21
162.548
  0
LINE
  8
0
 10
12.6634
 20
162.548
 11
12.7505
 21
162.837
  0
LINE
  8
0
 10
12.7505
 20
162.837
 11
12.8731
 21
163.112
  0
LINE
  8
0
 10
12.8731
 20
163.112
 11
13.0292
 21
163.37
  0
LINE
  8
0
 10
13.0292
 20
163.37
 11
13.2164
 21
163.606
  0
LINE
  8
0
 10
13.2164
 20
163.606
 11
13.4318
 21
163.817
  0
LINE
  8
0
 10
13.4318
 20
163.817
 11
13.6719
 21
163.999
  0
LINE
  8
0
 10
13.6719
 20
163.999
 11
13.9329
 21
164.15
  0
LINE
  8
0
 10
13.9329
 20
164.15
 11
14.2107
 21
164.266
  0
LINE
  8
0
 10
14.2107
 20
164.266
 11
14.501
 21
164.348
  0
LINE
  8
0
 10
14.501
 20
164.348
 11
14.7992
 21
164.392
  0
LINE
  8
0
 10
14.7992
 20
164.392
 11
15.1005
 21
164.398
  0
LINE
  8
0
 10
15.1005
 20
164.398
 11
15.4002
 21
164.366
  0
LINE
  8
0
 10
15.4002
 20
164.366
 11
15.6937
 21
164.298
  0
LINE
  8
0
 10
15.6937
 20
164.298
 11
15.9762
 21
164.193
  0
LINE
  8
0
 10
15.9762
 20
164.193
 11
16.2433
 21
164.053
  0
LINE
  8
0
 10
16.2433
 20
164.053
 11
16.4908
 21
163.881
  0
LINE
  8
0
 10
16.4908
 20
163.881
 11
16.7147
 21
163.679
  0
LINE
  8
0
 10
16.7147
 20
163.679
 11
16.9117
 21
163.451
  0
LINE
  8
0
 10
16.9117
 20
163.451
 11
17.0785
 21
163.2
  0
LINE
  8
0
 10
17.0785
 20
163.2
 11
17.2125
 21
162.93
  0
LINE
  8
0
 10
17.2125
 20
162.93
 11
17.3116
 21
162.645
  0
LINE
  8
0
 10
17.3116
 20
162.645
 11
17.3743
 21
162.351
  0
LINE
  8
0
 10
17.3743
 20
162.351
 11
17.3995
 21
162.05
  0
LINE
  8
0
 10
17.3995
 20
162.05
 11
17.3868
 21
161.749
  0
LINE
  8
0
 10
17.3868
 20
161.749
 11
17.3366
 21
161.452
  0
LINE
  8
0
 10
17.3366
 20
161.452
 11
17.2495
 21
161.163
  0
LINE
  8
0
 10
17.2495
 20
161.163
 11
17.1269
 21
160.888
  0
LINE
  8
0
 10
17.1269
 20
160.888
 11
16.9707
 21
160.63
  0
LINE
  8
0
 10
16.9707
 20
160.63
 11
16.7835
 21
160.394
  0
LINE
  8
0
 10
16.7835
 20
160.394
 11
16.5682
 21
160.183
  0
LINE
  8
0
 10
16.5682
 20
160.183
 11
16.3281
 21
160.001
  0
LINE
  8
0
 10
16.3281
 20
160.001
 11
16.0671
 21
159.85
  0
LINE
  8
0
 10
16.0671
 20
159.85
 11
15.7893
 21
159.734
  0
LINE
  8
0
 10
15.7893
 20
159.734
 11
15.499
 21
159.652
  0
LINE
  8
0
 10
15.499
 20
159.652
 11
15.2008
 21
159.608
  0
LINE
  8
0
 10
15.2008
 20
159.608
 11
14.8995
 21
159.602
  0
LINE
  8
0
 10
14.8995
 20
159.602
 11
14.5997
 21
159.634
  0
LINE
  8
0
 10
-15.1507
 20
159.605
 11
-15.4497
 21
159.643
  0
LINE
  8
0
 10
-15.4497
 20
159.643
 11
-15.7416
 21
159.717
  0
LINE
  8
0
 10
-15.7416
 20
159.717
 11
-16.0219
 21
159.828
  0
LINE
  8
0
 10
-16.0219
 20
159.828
 11
-16.286
 21
159.974
  0
LINE
  8
0
 10
-16.286
 20
159.974
 11
-16.5298
 21
160.151
  0
LINE
  8
0
 10
-16.5298
 20
160.151
 11
-16.7495
 21
160.357
  0
LINE
  8
0
 10
-16.7495
 20
160.357
 11
-16.9416
 21
160.589
  0
LINE
  8
0
 10
-16.9416
 20
160.589
 11
-17.1031
 21
160.844
  0
LINE
  8
0
 10
-17.1031
 20
160.844
 11
-17.2315
 21
161.117
  0
LINE
  8
0
 10
-17.2315
 20
161.117
 11
-17.3246
 21
161.403
  0
LINE
  8
0
 10
-17.3246
 20
161.403
 11
-17.3811
 21
161.699
  0
LINE
  8
0
 10
-17.3811
 20
161.699
 11
-17.4
 21
162
  0
LINE
  8
0
 10
-17.4
 20
162
 11
-17.3811
 21
162.301
  0
LINE
  8
0
 10
-17.3811
 20
162.301
 11
-17.3246
 21
162.597
  0
LINE
  8
0
 10
-17.3246
 20
162.597
 11
-17.2315
 21
162.883
  0
LINE
  8
0
 10
-17.2315
 20
162.883
 11
-17.1031
 21
163.156
  0
LINE
  8
0
 10
-17.1031
 20
163.156
 11
-16.9416
 21
163.411
  0
LINE
  8
0
 10
-16.9416
 20
163.411
 11
-16.7495
 21
163.643
  0
LINE
  8
0
 10
-16.7495
 20
163.643
 11
-16.5298
 21
163.849
  0
LINE
  8
0
 10
-16.5298
 20
163.849
 11
-16.286
 21
164.026
  0
LINE
  8
0
 10
-16.286
 20
164.026
 11
-16.0219
 21
164.172
  0
LINE
  8
0
 10
-16.0219
 20
164.172
 11
-15.7416
 21
164.283
  0
LINE
  8
0
 10
-15.7416
 20
164.283
 11
-15.4497
 21
164.357
  0
LINE
  8
0
 10
-15.4497
 20
164.357
 11
-15.1507
 21
164.395
  0
LINE
  8
0
 10
-15.1507
 20
164.395
 11
-14.8493
 21
164.395
  0
LINE
  8
0
 10
-14.8493
 20
164.395
 11
-14.5503
 21
164.357
  0
LINE
  8
0
 10
-14.5503
 20
164.357
 11
-14.2583
 21
164.283
  0
LINE
  8
0
 10
-14.2583
 20
164.283
 11
-13.9781
 21
164.172
  0
LINE
  8
0
 10
-13.9781
 20
164.172
 11
-13.714
 21
164.026
  0
LINE
  8
0
 10
-13.714
 20
164.026
 11
-13.4702
 21
163.849
  0
LINE
  8
0
 10
-13.4702
 20
163.849
 11
-13.2505
 21
163.643
  0
LINE
  8
0
 10
-13.2505
 20
163.643
 11
-13.0583
 21
163.411
  0
LINE
  8
0
 10
-13.0583
 20
163.411
 11
-12.8969
 21
163.156
  0
LINE
  8
0
 10
-12.8969
 20
163.156
 11
-12.7685
 21
162.883
  0
LINE
  8
0
 10
-12.7685
 20
162.883
 11
-12.6754
 21
162.597
  0
LINE
  8
0
 10
-12.6754
 20
162.597
 11
-12.6189
 21
162.301
  0
LINE
  8
0
 10
-12.6189
 20
162.301
 11
-12.6
 21
162
  0
LINE
  8
0
 10
-12.6
 20
162
 11
-12.6189
 21
161.699
  0
LINE
  8
0
 10
-12.6189
 20
161.699
 11
-12.6754
 21
161.403
  0
LINE
  8
0
 10
-12.6754
 20
161.403
 11
-12.7685
 21
161.117
  0
LINE
  8
0
 10
-12.7685
 20
161.117
 11
-12.8969
 21
160.844
  0
LINE
  8
0
 10
-12.8969
 20
160.844
 11
-13.0583
 21
160.589
  0
LINE
  8
0
 10
-13.0583
 20
160.589
 11
-13.2505
 21
160.357
  0
LINE
  8
0
 10
-13.2505
 20
160.357
 11
-13.4702
 21
160.151
  0
LINE
  8
0
 10
-13.4702
 20
160.151
 11
-13.714
 21
159.974
  0
LINE
  8
0
 10
-13.714
 20
159.974
 11
-13.9781
 21
159.828
  0
LINE
  8
0
 10
-13.9781
 20
159.828
 11
-14.2583
 21
159.717
  0
LINE
  8
0
 10
-14.2583
 20
159.717
 11
-14.5503
 21
159.643
  0
LINE
  8
0
 10
-14.5503
 20
159.643
 11
-14.8493
 21
159.605
  0
LINE
  8
0
 10
-14.8493
 20
159.605
 11
-15.1507
 21
159.605
  0
LINE
  8
0
 10
-15.1884
 20
144.006
 11
-15.5621
 21
144.053
  0
LINE
  8
0
 10
-15.5621
 20
144.053
 11
-15.927
 21
144.147
  0
LINE
  8
0
 10
-15.927
 20
144.147
 11
-16.2773
 21
144.286
  0
LINE
  8
0
 10
-16.2773
 20
144.286
 11
-16.6075
 21
144.467
  0
LINE
  8
0
 10
-16.6075
 20
144.467
 11
-16.9123
 21
144.688
  0
LINE
  8
0
 10
-16.9123
 20
144.688
 11
-17.1869
 21
144.946
  0
LINE
  8
0
 10
-17.1869
 20
144.946
 11
-17.427
 21
145.237
  0
LINE
  8
0
 10
-17.427
 20
145.237
 11
-17.6289
 21
145.555
  0
LINE
  8
0
 10
-17.6289
 20
145.555
 11
-17.7893
 21
145.896
  0
LINE
  8
0
 10
-17.7893
 20
145.896
 11
-17.9057
 21
146.254
  0
LINE
  8
0
 10
-17.9057
 20
146.254
 11
-17.9763
 21
146.624
  0
LINE
  8
0
 10
-17.9763
 20
146.624
 11
-18
 21
147
  0
LINE
  8
0
 10
-18
 20
147
 11
-17.9763
 21
147.376
  0
LINE
  8
0
 10
-17.9763
 20
147.376
 11
-17.9057
 21
147.746
  0
LINE
  8
0
 10
-17.9057
 20
147.746
 11
-17.7893
 21
148.104
  0
LINE
  8
0
 10
-17.7893
 20
148.104
 11
-17.6289
 21
148.445
  0
LINE
  8
0
 10
-17.6289
 20
148.445
 11
-17.427
 21
148.763
  0
LINE
  8
0
 10
-17.427
 20
148.763
 11
-17.1869
 21
149.054
  0
LINE
  8
0
 10
-17.1869
 20
149.054
 11
-16.9123
 21
149.312
  0
LINE
  8
0
 10
-16.9123
 20
149.312
 11
-16.6075
 21
149.533
  0
LINE
  8
0
 10
-16.6075
 20
149.533
 11
-16.2773
 21
149.714
  0
LINE
  8
0
 10
-16.2773
 20
149.714
 11
-15.927
 21
149.853
  0
LINE
  8
0
 10
-15.927
 20
149.853
 11
-15.5621
 21
149.947
  0
LINE
  8
0
 10
-15.5621
 20
149.947
 11
-15.1884
 21
149.994
  0
LINE
  8
0
 10
-15.1884
 20
149.994
 11
-14.8116
 21
149.994
  0
LINE
  8
0
 10
-14.8116
 20
149.994
 11
-14.4379
 21
149.947
  0
LINE
  8
0
 10
-14.4379
 20
149.947
 11
-14.0729
 21
149.853
  0
LINE
  8
0
 10
-14.0729
 20
149.853
 11
-13.7227
 21
149.714
  0
LINE
  8
0
 10
-13.7227
 20
149.714
 11
-13.3925
 21
149.533
  0
LINE
  8
0
 10
-13.3925
 20
149.533
 11
-13.0877
 21
149.312
  0
LINE
  8
0
 10
-13.0877
 20
149.312
 11
-12.8131
 21
149.054
  0
LINE
  8
0
 10
-12.8131
 20
149.054
 11
-12.5729
 21
148.763
  0
LINE
  8
0
 10
-12.5729
 20
148.763
 11
-12.3711
 21
148.445
  0
LINE
  8
0
 10
-12.3711
 20
148.445
 11
-12.2107
 21
148.104
  0
LINE
  8
0
 10
-12.2107
 20
148.104
 11
-12.0942
 21
147.746
  0
LINE
  8
0
 10
-12.0942
 20
147.746
 11
-12.0237
 21
147.376
  0
LINE
  8
0
 10
-12.0237
 20
147.376
 11
-12
 21
147
  0
LINE
  8
0
 10
-12
 20
147
 11
-12.0237
 21
146.624
  0
LINE
  8
0
 10
-12.0237
 20
146.624
 11
-12.0942
 21
146.254
  0
LINE
  8
0
 10
-12.0942
 20
146.254
 11
-12.2107
 21
145.896
  0
LINE
  8
0
 10
-12.2107
 20
145.896
 11
-12.3711
 21
145.555
  0
LINE
  8
0
 10
-12.3711
 20
145.555
 11
-12.5729
 21
145.237
  0
LINE
  8
0
 10
-12.5729
 20
145.237
 11
-12.8131
 21
144.946
  0
LINE
  8
0
 10
-12.8131
 20
144.946
 11
-13.0877
 21
144.688
  0
LINE
  8
0
 10
-13.0877
 20
144.688
 11
-13.3925
 21
144.467
  0
LINE
  8
0
 10
-13.3925
 20
144.467
 11
-13.7227
 21
144.286
  0
LINE
  8
0
 10
-13.7227
 20
144.286
 11
-14.0729
 21
144.147
  0
LINE
  8
0
 10
-14.0729
 20
144.147
 11
-14.4379
 21
144.053
  0
LINE
  8
0
 10
-14.4379
 20
144.053
 11
-14.8116
 21
144.006
  0
LINE
  8
0
 10
-14.8116
 20
144.006
 11
-15.1884
 21
144.006
  0
LINE
  8
0
 10
14.8116
 20
144.006
 11
14.4379
 21
144.053
  0
LINE
  8
0
 10
14.4379
 20
144.053
 11
14.0729
 21
144.147
  0
LINE
  8
0
 10
14.0729
 20
144.147
 11
13.7227
 21
144.286
  0
LINE
  8
0
 10
13.7227
 20
144.286
 11
13.3925
 21
144.467
  0
LINE
  8
0
 10
13.3925
 20
144.467
 11
13.0877
 21
144.688
  0
LINE
  8
0
 10
13.0877
 20
144.688
 11
12.8131
 21
144.946
  0
LINE
  8
0
 10
12.8131
 20
144.946
 11
12.5729
 21
145.237
  0
LINE
  8
0
 10
12.5729
 20
145.237
 11
12.3711
 21
145.555
  0
LINE
  8
0
 10
12.3711
 20
145.555
 11
12.2107
 21
145.896
  0
LINE
  8
0
 10
12.2107
 20
145.896
 11
12.0942
 21
146.254
  0
LINE
  8
0
 10
12.0942
 20
146.254
 11
12.0237
 21
146.624
  0
LINE
  8
0
 10
12.0237
 20
146.624
 11
12
 21
147
  0
LINE
  8
0
 10
12
 20
147
 11
12.0237
 21
147.376
  0
LINE
  8
0
 10
12.0237
 20
147.376
 11
12.0942
 21
147.746
  0
LINE
  8
0
 10
12.0942
 20
147.746
 11
12.2107
 21
148.104
  0
LINE
  8
0
 10
12.2107
 20
148.104
 11
12.3711
 21
148.445
  0
LINE
  8
0
 10
12.3711
 20
148.445
 11
12.5729
 21
148.763
  0
LINE
  8
0
 10
12.5729
 20
148.763
 11
12.8131
 21
149.054
  0
LINE
  8
0
 10
12.8131
 20
149.054
 11
13.0877
 21
149.312
  0
LINE
  8
0
 10
13.0877
 20
149.312
 11
13.3925
 21
149.533
  0
LINE
  8
0
 10
13.3925
 20
149.533
 11
13.7227
 21
149.714
  0
LINE
  8
0
 10
13.7227
 20
149.714
 11
14.0729
 21
149.853
  0
LINE
  8
0
 10
14.0729
 20
149.853
 11
14.4379
 21
149.947
  0
LINE
  8
0
 10
14.4379
 20
149.947
 11
14.8116
 21
149.994
  0
LINE
  8
0
 10
14.8116
 20
149.994
 11
15.1884
 21
149.994
  0
LINE
  8
0
 10
15.1884
 20
149.994
 11
15.5621
 21
149.947
  0
LINE
  8
0
 10
15.5621
 20
149.947
 11
15.927
 21
149.853
  0
LINE
  8
0
 10
15.927
 20
149.853
 11
16.2773
 21
149.714
  0
LINE
  8
0
 10
16.2773
 20
149.714
 11
16.6075
 21
149.533
  0
LINE
  8
0
 10
16.6075
 20
149.533
 11
16.9123
 21
149.312
  0
LINE
  8
0
 10
16.9123
 20
149.312
 11
17.1869
 21
149.054
  0
LINE
  8
0
 10
17.1869
 20
149.054
 11
17.427
 21
148.763
  0
LINE
  8
0
 10
17.427
 20
148.763
 11
17.6289
 21
148.445
  0
LINE
  8
0
 10
17.6289
 20
148.445
 11
17.7893
 21
148.104
  0
LINE
  8
0
 10
17.7893
 20
148.104
 11
17.9057
 21
147.746
  0
LINE
  8
0
 10
17.9057
 20
147.746
 11
17.9763
 21
147.376
  0
LINE
  8
0
 10
17.9763
 20
147.376
 11
18
 21
147
  0
LINE
  8
0
 10
18
 20
147
 11
17.9763
 21
146.624
  0
LINE
  8
0
 10
17.9763
 20
146.624
 11
17.9057
 21
146.254
  0
LINE
  8
0
 10
17.9057
 20
146.254
 11
17.7893
 21
145.896
  0
LINE
  8
0
 10
17.7893
 20
145.896
 11
17.6289
 21
145.555
  0
LINE
  8
0
 10
17.6289
 20
145.555
 11
17.427
 21
145.237
  0
LINE
  8
0
 10
17.427
 20
145.237
 11
17.1869
 21
144.946
  0
LINE
  8
0
 10
17.1869
 20
144.946
 11
16.9123
 21
144.688
  0
LINE
  8
0
 10
16.9123
 20
144.688
 11
16.6075
 21
144.467
  0
LINE
  8
0
 10
16.6075
 20
144.467
 11
16.2773
 21
144.286
  0
LINE
  8
0
 10
16.2773
 20
144.286
 11
15.927
 21
144.147
  0
LINE
  8
0
 10
15.927
 20
144.147
 11
15.5621
 21
144.053
  0
LINE
  8
0
 10
15.5621
 20
144.053
 11
15.1884
 21
144.006
  0
LINE
  8
0
 10
15.1884
 20
144.006
 11
14.8116
 21
144.006
  0
LINE
  8
0
 10
-0.400238
 20
144.634
 11
-0.693665
 21
144.702
  0
LINE
  8
0
 10
-0.693665
 20
144.702
 11
-0.976166
 21
144.807
  0
LINE
  8
0
 10
-0.976166
 20
144.807
 11
-1.24326
 21
144.947
  0
LINE
  8
0
 10
-1.24326
 20
144.947
 11
-1.49075
 21
145.119
  0
LINE
  8
0
 10
-1.49075
 20
145.119
 11
-1.71472
 21
145.321
  0
LINE
  8
0
 10
-1.71472
 20
145.321
 11
-1.91167
 21
145.549
  0
LINE
  8
0
 10
-1.91167
 20
145.549
 11
-2.07846
 21
145.8
  0
LINE
  8
0
 10
-2.07846
 20
145.8
 11
-2.21246
 21
146.07
  0
LINE
  8
0
 10
-2.21246
 20
146.07
 11
-2.31158
 21
146.355
  0
LINE
  8
0
 10
-2.31158
 20
146.355
 11
-2.37425
 21
146.649
  0
LINE
  8
0
 10
-2.37425
 20
146.649
 11
-2.39946
 21
146.95
  0
LINE
  8
0
 10
-2.39946
 20
146.95
 11
-2.38684
 21
147.251
  0
LINE
  8
0
 10
-2.38684
 20
147.251
 11
-2.33658
 21
147.548
  0
LINE
  8
0
 10
-2.33658
 20
147.548
 11
-2.24947
 21
147.837
  0
LINE
  8
0
 10
-2.24947
 20
147.837
 11
-2.12688
 21
148.112
  0
LINE
  8
0
 10
-2.12688
 20
148.112
 11
-1.97075
 21
148.37
  0
LINE
  8
0
 10
-1.97075
 20
148.37
 11
-1.78354
 21
148.606
  0
LINE
  8
0
 10
-1.78354
 20
148.606
 11
-1.56821
 21
148.817
  0
LINE
  8
0
 10
-1.56821
 20
148.817
 11
-1.32812
 21
148.999
  0
LINE
  8
0
 10
-1.32812
 20
148.999
 11
-1.06712
 21
149.15
  0
LINE
  8
0
 10
-1.06712
 20
149.15
 11
-0.789276
 21
149.267
  0
LINE
  8
0
 10
-0.789276
 20
149.267
 11
-0.498978
 21
149.348
  0
LINE
  8
0
 10
-0.498978
 20
149.348
 11
-0.200821
 21
149.392
  0
LINE
  8
0
 10
-0.200821
 20
149.392
 11
0.100494
 21
149.398
  0
LINE
  8
0
 10
0.100494
 20
149.398
 11
0.400238
 21
149.366
  0
LINE
  8
0
 10
0.400238
 20
149.366
 11
0.693665
 21
149.298
  0
LINE
  8
0
 10
0.693665
 20
149.298
 11
0.976166
 21
149.193
  0
LINE
  8
0
 10
0.976166
 20
149.193
 11
1.24326
 21
149.053
  0
LINE
  8
0
 10
1.24326
 20
149.053
 11
1.49075
 21
148.881
  0
LINE
  8
0
 10
1.49075
 20
148.881
 11
1.71472
 21
148.679
  0
LINE
  8
0
 10
1.71472
 20
148.679
 11
1.91167
 21
148.451
  0
LINE
  8
0
 10
1.91167
 20
148.451
 11
2.07846
 21
148.2
  0
LINE
  8
0
 10
2.07846
 20
148.2
 11
2.21246
 21
147.93
  0
LINE
  8
0
 10
2.21246
 20
147.93
 11
2.31158
 21
147.645
  0
LINE
  8
0
 10
2.31158
 20
147.645
 11
2.37425
 21
147.351
  0
LINE
  8
0
 10
2.37425
 20
147.351
 11
2.39946
 21
147.05
  0
LINE
  8
0
 10
2.39946
 20
147.05
 11
2.38684
 21
146.749
  0
LINE
  8
0
 10
2.38684
 20
146.749
 11
2.33658
 21
146.452
  0
LINE
  8
0
 10
2.33658
 20
146.452
 11
2.24947
 21
146.163
  0
LINE
  8
0
 10
2.24947
 20
146.163
 11
2.12688
 21
145.888
  0
LINE
  8
0
 10
2.12688
 20
145.888
 11
1.97075
 21
145.63
  0
LINE
  8
0
 10
1.97075
 20
145.63
 11
1.78354
 21
145.394
  0
LINE
  8
0
 10
1.78354
 20
145.394
 11
1.56821
 21
145.183
  0
LINE
  8
0
 10
1.56821
 20
145.183
 11
1.32812
 21
145.001
  0
LINE
  8
0
 10
1.32812
 20
145.001
 11
1.06712
 21
144.85
  0
LINE
  8
0
 10
1.06712
 20
144.85
 11
0.789276
 21
144.734
  0
LINE
  8
0
 10
0.789276
 20
144.734
 11
0.498978
 21
144.652
  0
LINE
  8
0
 10
0.498978
 20
144.652
 11
0.200821
 21
144.608
  0
LINE
  8
0
 10
0.200821
 20
144.608
 11
-0.100494
 21
144.602
  0
LINE
  8
0
 10
-0.100494
 20
144.602
 11
-0.400238
 21
144.634
  0
LINE
  8
0
 10
17.9369
 20
86.0886
 11
18.5451
 21
86.2447
  0
LINE
  8
0
 10
18.5451
 20
86.2447
 11
19.1289
 21
86.4759
  0
LINE
  8
0
 10
19.1289
 20
86.4759
 11
19.6791
 21
86.7784
  0
LINE
  8
0
 10
19.6791
 20
86.7784
 11
20.1871
 21
87.1474
  0
LINE
  8
0
 10
20.1871
 20
87.1474
 11
20.6448
 21
87.5773
  0
LINE
  8
0
 10
20.6448
 20
87.5773
 11
21.0451
 21
88.0611
  0
LINE
  8
0
 10
21.0451
 20
88.0611
 11
21.3815
 21
88.5912
  0
LINE
  8
0
 10
21.3815
 20
88.5912
 11
21.6489
 21
89.1594
  0
LINE
  8
0
 10
21.6489
 20
89.1594
 11
21.8429
 21
89.7566
  0
LINE
  8
0
 10
21.8429
 20
89.7566
 11
21.9606
 21
90.3733
  0
LINE
  8
0
 10
21.9606
 20
90.3733
 11
22
 21
91
  0
LINE
  8
0
 10
22
 20
91
 11
22
 21
125
  0
LINE
  8
0
 10
22
 20
125
 11
21.9606
 21
125.627
  0
LINE
  8
0
 10
21.9606
 20
125.627
 11
21.8429
 21
126.243
  0
LINE
  8
0
 10
21.8429
 20
126.243
 11
21.6489
 21
126.841
  0
LINE
  8
0
 10
21.6489
 20
126.841
 11
21.3815
 21
127.409
  0
LINE
  8
0
 10
21.3815
 20
127.409
 11
21.0451
 21
127.939
  0
LINE
  8
0
 10
21.0451
 20
127.939
 11
20.6448
 21
128.423
  0
LINE
  8
0
 10
20.6448
 20
128.423
 11
20.1871
 21
128.853
  0
LINE
  8
0
 10
20.1871
 20
128.853
 11
19.6791
 21
129.222
  0
LINE
  8
0
 10
19.6791
 20
129.222
 11
19.1289
 21
129.524
  0
LINE
  8
0
 10
19.1289
 20
129.524
 11
18.5451
 21
129.755
  0
LINE
  8
0
 10
18.5451
 20
129.755
 11
17.9369
 21
129.911
  0
LINE
  8
0
 10
17.9369
 20
129.911
 11
17.3139
 21
129.99
  0
LINE
  8
0
 10
17.3139
 20
129.99
 11
-17.3139
 21
129.99
  0
LINE
  8
0
 10
-17.3139
 20
129.99
 11
-17.9369
 21
129.911
  0
LINE
  8
0
 10
-17.9369
 20
129.911
 11
-18.5451
 21
129.755
  0
LINE
  8
0
 10
-18.5451
 20
129.755
 11
-19.1289
 21
129.524
  0
LINE
  8
0
 10
-19.1289
 20
129.524
 11
-19.6791
 21
129.222
  0
LINE
  8
0
 10
-19.6791
 20
129.222
 11
-20.1871
 21
128.853
  0
LINE
  8
0
 10
-20.1871
 20
128.853
 11
-20.6448
 21
128.423
  0
LINE
  8
0
 10
-20.6448
 20
128.423
 11
-21.0451
 21
127.939
  0
LINE
  8
0
 10
-21.0451
 20
127.939
 11
-21.3815
 21
127.409
  0
LINE
  8
0
 10
-21.3815
 20
127.409
 11
-21.6489
 21
126.841
  0
LINE
  8
0
 10
-21.6489
 20
126.841
 11
-21.8429
 21
126.243
  0
LINE
  8
0
 10
-21.8429
 20
126.243
 11
-21.9606
 21
125.627
  0
LINE
  8
0
 10
-21.9606
 20
125.627
 11
-22
 21
125
  0
LINE
  8
0
 10
-22
 20
125
 11
-22
 21
91
  0
LINE
  8
0
 10
-22
 20
91
 11
-21.9606
 21
90.3733
  0
LINE
  8
0
 10
-21.9606
 20
90.3733
 11
-21.8429
 21
89.7566
  0
LINE
  8
0
 10
-21.8429
 20
89.7566
 11
-21.6489
 21
89.1594
  0
LINE
  8
0
 10
-21.6489
 20
89.1594
 11
-21.3815
 21
88.5912
  0
LINE
  8
0
 10
-21.3815
 20
88.5912
 11
-21.0451
 21
88.0611
  0
LINE
  8
0
 10
-21.0451
 20
88.0611
 11
-20.6448
 21
87.5773
  0
LINE
  8
0
 10
-20.6448
 20
87.5773
 11
-20.1871
 21
87.1474
  0
LINE
  8
0
 10
-20.1871
 20
87.1474
 11
-19.6791
 21
86.7784
  0
LINE
  8
0
 10
-19.6791
 20
86.7784
 11
-19.1289
 21
86.4759
  0
LINE
  8
0
 10
-19.1289
 20
86.4759
 11
-18.5451
 21
86.2447
  0
LINE
  8
0
 10
-18.5451
 20
86.2447
 11
-17.9369
 21
86.0886
  0
LINE
  8
0
 10
-17.9369
 20
86.0886
 11
-17.3139
 21
86.0099
  0
LINE
  8
0
 10
-17.3139
 20
86.0099
 11
17.3139
 21
86.0099
  0
LINE
  8
0
 10
17.3139
 20
86.0099
 11
17.9369
 21
86.0886
  0
LINE
  8
0
 10
-15.1884
 20
120.006
 11
-15.5621
 21
120.053
  0
LINE
  8
0
 10
-15.5621
 20
120.053
 11
-15.927
 21
120.147
  0
LINE
  8
0
 10
-15.927
 20
120.147
 11
-16.2773
 21
120.286
  0
LINE
  8
0
 10
-16.2773
 20
120.286
 11
-16.6075
 21
120.467
  0
LINE
  8
0
 10
-16.6075
 20
120.467
 11
-16.9123
 21
120.688
  0
LINE
  8
0
 10
-16.9123
 20
120.688
 11
-17.1869
 21
120.946
  0
LINE
  8
0
 10
-17.1869
 20
120.946
 11
-17.427
 21
121.237
  0
LINE
  8
0
 10
-17.427
 20
121.237
 11
-17.6289
 21
121.555
  0
LINE
  8
0
 10
-17.6289
 20
121.555
 11
-17.7893
 21
121.896
  0
LINE
  8
0
 10
-17.7893
 20
121.896
 11
-17.9057
 21
122.254
  0
LINE
  8
0
 10
-17.9057
 20
122.254
 11
-17.9763
 21
122.624
  0
LINE
  8
0
 10
-17.9763
 20
122.624
 11
-18
 21
123
  0
LINE
  8
0
 10
-18
 20
123
 11
-17.9763
 21
123.376
  0
LINE
  8
0
 10
-17.9763
 20
123.376
 11
-17.9057
 21
123.746
  0
LINE
  8
0
 10
-17.9057
 20
123.746
 11
-17.7893
 21
124.104
  0
LINE
  8
0
 10
-17.7893
 20
124.104
 11
-17.6289
 21
124.445
  0
LINE
  8
0
 10
-17.6289
 20
124.445
 11
-17.427
 21
124.763
  0
LINE
  8
0
 10
-17.427
 20
124.763
 11
-17.1869
 21
125.054
  0
LINE
  8
0
 10
-17.1869
 20
125.054
 11
-16.9123
 21
125.312
  0
LINE
  8
0
 10
-16.9123
 20
125.312
 11
-16.6075
 21
125.533
  0
LINE
  8
0
 10
-16.6075
 20
125.533
 11
-16.2773
 21
125.714
  0
LINE
  8
0
 10
-16.2773
 20
125.714
 11
-15.927
 21
125.853
  0
LINE
  8
0
 10
-15.927
 20
125.853
 11
-15.5621
 21
125.947
  0
LINE
  8
0
 10
-15.5621
 20
125.947
 11
-15.1884
 21
125.994
  0
LINE
  8
0
 10
-15.1884
 20
125.994
 11
-14.8116
 21
125.994
  0
LINE
  8
0
 10
-14.8116
 20
125.994
 11
-14.4379
 21
125.947
  0
LINE
  8
0
 10
-14.4379
 20
125.947
 11
-14.0729
 21
125.853
  0
LINE
  8
0
 10
-14.0729
 20
125.853
 11
-13.7227
 21
125.714
  0
LINE
  8
0
 10
-13.7227
 20
125.714
 11
-13.3925
 21
125.533
  0
LINE
  8
0
 10
-13.3925
 20
125.533
 11
-13.0877
 21
125.312
  0
LINE
  8
0
 10
-13.0877
 20
125.312
 11
-12.8131
 21
125.054
  0
LINE
  8
0
 10
-12.8131
 20
125.054
 11
-12.5729
 21
124.763
  0
LINE
  8
0
 10
-12.5729
 20
124.763
 11
-12.3711
 21
124.445
  0
LINE
  8
0
 10
-12.3711
 20
124.445
 11
-12.2107
 21
124.104
  0
LINE
  8
0
 10
-12.2107
 20
124.104
 11
-12.0942
 21
123.746
  0
LINE
  8
0
 10
-12.0942
 20
123.746
 11
-12.0237
 21
123.376
  0
LINE
  8
0
 10
-12.0237
 20
123.376
 11
-12
 21
123
  0
LINE
  8
0
 10
-12
 20
123
 11
-12.0237
 21
122.624
  0
LINE
  8
0
 10
-12.0237
 20
122.624
 11
-12.0942
 21
122.254
  0
LINE
  8
0
 10
-12.0942
 20
122.254
 11
-12.2107
 21
121.896
  0
LINE
  8
0
 10
-12.2107
 20
121.896
 11
-12.3711
 21
121.555
  0
LINE
  8
0
 10
-12.3711
 20
121.555
 11
-12.5729
 21
121.237
  0
LINE
  8
0
 10
-12.5729
 20
121.237
 11
-12.8131
 21
120.946
  0
LINE
  8
0
 10
-12.8131
 20
120.946
 11
-13.0877
 21
120.688
  0
LINE
  8
0
 10
-13.0877
 20
120.688
 11
-13.3925
 21
120.467
  0
LINE
  8
0
 10
-13.3925
 20
120.467
 11
-13.7227
 21
120.286
  0
LINE
  8
0
 10
-13.7227
 20
120.286
 11
-14.0729
 21
120.147
  0
LINE
  8
0
 10
-14.0729
 20
120.147
 11
-14.4379
 21
120.053
  0
LINE
  8
0
 10
-14.4379
 20
120.053
 11
-14.8116
 21
120.006
  0
LINE
  8
0
 10
-14.8116
 20
120.006
 11
-15.1884
 21
120.006
  0
LINE
  8
0
 10
14.8116
 20
120.006
 11
14.4379
 21
120.053
  0
LINE
  8
0
 10
14.4379
 20
120.053
 11
14.0729
 21
120.147
  0
LINE
  8
0
 10
14.0729
 20
120.147
 11
13.7227
 21
120.286
  0
LINE
  8
0
 10
13.7227
 20
120.286
 11
13.3925
 21
120.467
  0
LINE
  8
0
 10
13.3925
 20
120.467
 11
13.0877
 21
120.688
  0
LINE
  8
0
 10
13.0877
 20
120.688
 11
12.8131
 21
120.946
  0
LINE
  8
0
 10
12.8131
 20
120.946
 11
12.5729
 21
121.237
  0
LINE
  8
0
 10
12.5729
 20
121.237
 11
12.3711
 21
121.555
  0
LINE
  8
0
 10
12.3711
 20
121.555
 11
12.2107
 21
121.896
  0
LINE
  8
0
 10
12.2107
 20
121.896
 11
12.0942
 21
122.254
  0
LINE
  8
0
 10
12.0942
 20
122.254
 11
12.0237
 21
122.624
  0
LINE
  8
0
 10
12.0237
 20
122.624
 11
12
 21
123
  0
LINE
  8
0
 10
12
 20
123
 11
12.0237
 21
123.376
  0
LINE
  8
0
 10
12.0237
 20
123.376
 11
12.0942
 21
123.746
  0
LINE
  8
0
 10
12.0942
 20
123.746
 11
12.2107
 21
124.104
  0
LINE
  8
0
 10
12.2107
 20
124.104
 11
12.3711
 21
124.445
  0
LINE
  8
0
 10
12.3711
 20
124.445
 11
12.5729
 21
124.763
  0
LINE
  8
0
 10
12.5729
 20
124.763
 11
12.8131
 21
125.054
  0
LINE
  8
0
 10
12.8131
 20
125.054
 11
13.0877
 21
125.312
  0
LINE
  8
0
 10
13.0877
 20
125.312
 11
13.3925
 21
125.533
  0
LINE
  8
0
 10
13.3925
 20
125.533
 11
13.7227
 21
125.714
  0
LINE
  8
0
 10
13.7227
 20
125.714
 11
14.0729
 21
125.853
  0
LINE
  8
0
 10
14.0729
 20
125.853
 11
14.4379
 21
125.947
  0
LINE
  8
0
 10
14.4379
 20
125.947
 11
14.8116
 21
125.994
  0
LINE
  8
0
 10
14.8116
 20
125.994
 11
15.1884
 21
125.994
  0
LINE
  8
0
 10
15.1884
 20
125.994
 11
15.5621
 21
125.947
  0
LINE
  8
0
 10
15.5621
 20
125.947
 11
15.927
 21
125.853
  0
LINE
  8
0
 10
15.927
 20
125.853
 11
16.2773
 21
125.714
  0
LINE
  8
0
 10
16.2773
 20
125.714
 11
16.6075
 21
125.533
  0
LINE
  8
0
 10
16.6075
 20
125.533
 11
16.9123
 21
125.312
  0
LINE
  8
0
 10
16.9123
 20
125.312
 11
17.1869
 21
125.054
  0
LINE
  8
0
 10
17.1869
 20
125.054
 11
17.427
 21
124.763
  0
LINE
  8
0
 10
17.427
 20
124.763
 11
17.6289
 21
124.445
  0
LINE
  8
0
 10
17.6289
 20
124.445
 11
17.7893
 21
124.104
  0
LINE
  8
0
 10
17.7893
 20
124.104
 11
17.9057
 21
123.746
  0
LINE
  8
0
 10
17.9057
 20
123.746
 11
17.9763
 21
123.376
  0
LINE
  8
0
 10
17.9763
 20
123.376
 11
18
 21
123
  0
LINE
  8
0
 10
18
 20
123
 11
17.9763
 21
122.624
  0
LINE
  8
0
 10
17.9763
 20
122.624
 11
17.9057
 21
122.254
  0
LINE
  8
0
 10
17.9057
 20
122.254
 11
17.7893
 21
121.896
  0
LINE
  8
0
 10
17.7893
 20
121.896
 11
17.6289
 21
121.555
  0
LINE
  8
0
 10
17.6289
 20
121.555
 11
17.427
 21
121.237
  0
LINE
  8
0
 10
17.427
 20
121.237
 11
17.1869
 21
120.946
  0
LINE
  8
0
 10
17.1869
 20
120.946
 11
16.9123
 21
120.688
  0
LINE
  8
0
 10
16.9123
 20
120.688
 11
16.6075
 21
120.467
  0
LINE
  8
0
 10
16.6075
 20
120.467
 11
16.2773
 21
120.286
  0
LINE
  8
0
 10
16.2773
 20
120.286
 11
15.927
 21
120.147
  0
LINE
  8
0
 10
15.927
 20
120.147
 11
15.5621
 21
120.053
  0
LINE
  8
0
 10
15.5621
 20
120.053
 11
15.1884
 21
120.006
  0
LINE
  8
0
 10
15.1884
 20
120.006
 11
14.8116
 21
120.006
  0
LINE
  8
0
 10
-0.0941772
 20
121.503
 11
-0.281067
 21
121.527
  0
LINE
  8
0
 10
-0.281067
 20
121.527
 11
-0.463516
 21
121.573
  0
LINE
  8
0
 10
-0.463516
 20
121.573
 11
-0.638657
 21
121.643
  0
LINE
  8
0
 10
-0.638657
 20
121.643
 11
-0.803726
 21
121.734
  0
LINE
  8
0
 10
-0.803726
 20
121.734
 11
-0.956131
 21
121.844
  0
LINE
  8
0
 10
-0.956131
 20
121.844
 11
-1.09344
 21
121.973
  0
LINE
  8
0
 10
-1.09344
 20
121.973
 11
-1.21352
 21
122.118
  0
LINE
  8
0
 10
-1.21352
 20
122.118
 11
-1.31445
 21
122.277
  0
LINE
  8
0
 10
-1.31445
 20
122.277
 11
-1.39465
 21
122.448
  0
LINE
  8
0
 10
-1.39465
 20
122.448
 11
-1.45287
 21
122.627
  0
LINE
  8
0
 10
-1.45287
 20
122.627
 11
-1.48816
 21
122.812
  0
LINE
  8
0
 10
-1.48816
 20
122.812
 11
-1.5
 21
123
  0
LINE
  8
0
 10
-1.5
 20
123
 11
-1.48816
 21
123.188
  0
LINE
  8
0
 10
-1.48816
 20
123.188
 11
-1.45287
 21
123.373
  0
LINE
  8
0
 10
-1.45287
 20
123.373
 11
-1.39465
 21
123.552
  0
LINE
  8
0
 10
-1.39465
 20
123.552
 11
-1.31445
 21
123.723
  0
LINE
  8
0
 10
-1.31445
 20
123.723
 11
-1.21352
 21
123.882
  0
LINE
  8
0
 10
-1.21352
 20
123.882
 11
-1.09344
 21
124.027
  0
LINE
  8
0
 10
-1.09344
 20
124.027
 11
-0.956131
 21
124.156
  0
LINE
  8
0
 10
-0.956131
 20
124.156
 11
-0.803726
 21
124.266
  0
LINE
  8
0
 10
-0.803726
 20
124.266
 11
-0.638657
 21
124.357
  0
LINE
  8
0
 10
-0.638657
 20
124.357
 11
-0.463516
 21
124.427
  0
LINE
  8
0
 10
-0.463516
 20
124.427
 11
-0.281067
 21
124.473
  0
LINE
  8
0
 10
-0.281067
 20
124.473
 11
-0.0941772
 21
124.497
  0
LINE
  8
0
 10
-0.0941772
 20
124.497
 11
0.0941772
 21
124.497
  0
LINE
  8
0
 10
0.0941772
 20
124.497
 11
0.281067
 21
124.473
  0
LINE
  8
0
 10
0.281067
 20
124.473
 11
0.463516
 21
124.427
  0
LINE
  8
0
 10
0.463516
 20
124.427
 11
0.638657
 21
124.357
  0
LINE
  8
0
 10
0.638657
 20
124.357
 11
0.803726
 21
124.266
  0
LINE
  8
0
 10
0.803726
 20
124.266
 11
0.956131
 21
124.156
  0
LINE
  8
0
 10
0.956131
 20
124.156
 11
1.09344
 21
124.027
  0
LINE
  8
0
 10
1.09344
 20
124.027
 11
1.21352
 21
123.882
  0
LINE
  8
0
 10
1.21352
 20
123.882
 11
1.31445
 21
123.723
  0
LINE
  8
0
 10
1.31445
 20
123.723
 11
1.39465
 21
123.552
  0
LINE
  8
0
 10
1.39465
 20
123.552
 11
1.45287
 21
123.373
  0
LINE
  8
0
 10
1.45287
 20
123.373
 11
1.48816
 21
123.188
  0
LINE
  8
0
 10
1.48816
 20
123.188
 11
1.5
 21
123
  0
LINE
  8
0
 10
1.5
 20
123
 11
1.48816
 21
122.812
  0
LINE
  8
0
 10
1.48816
 20
122.812
 11
1.45287
 21
122.627
  0
LINE
  8
0
 10
1.45287
 20
122.627
 11
1.39465
 21
122.448
  0
LINE
  8
0
 10
1.39465
 20
122.448
 11
1.31445
 21
122.277
  0
LINE
  8
0
 10
1.31445
 20
122.277
 11
1.21352
 21
122.118
  0
LINE
  8
0
 10
1.21352
 20
122.118
 11
1.09344
 21
121.973
  0
LINE
  8
0
 10
1.09344
 20
121.973
 11
0.956131
 21
121.844
  0
LINE
  8
0
 10
0.956131
 20
121.844
 11
0.803726
 21
121.734
  0
LINE
  8
0
 10
0.803726
 20
121.734
 11
0.638657
 21
121.643
  0
LINE
  8
0
 10
0.638657
 20
121.643
 11
0.463516
 21
121.573
  0
LINE
  8
0
 10
0.463516
 20
121.573
 11
0.281067
 21
121.527
  0
LINE
  8
0
 10
0.281067
 20
121.527
 11
0.0941772
 21
121.503
  0
LINE
  8
0
 10
0.0941772
 20
121.503
 11
-0.0941772
 21
121.503
  0
LINE
  8
0
 10
-0.533707
 20
99.5168
 11
-1.59273
 21
99.6506
  0
LINE
  8
0
 10
-1.59273
 20
99.6506
 11
-2.62663
 21
99.916
  0
LINE
  8
0
 10
-2.62663
 20
99.916
 11
-3.61911
 21
100.309
  0
LINE
  8
0
 10
-3.61911
 20
100.309
 11
-4.55452
 21
100.823
  0
LINE
  8
0
 10
-4.55452
 20
100.823
 11
-5.41809
 21
101.451
  0
LINE
  8
0
 10
-5.41809
 20
101.451
 11
-6.19623
 21
102.181
  0
LINE
  8
0
 10
-6.19623
 20
102.181
 11
-6.87663
 21
103.004
  0
LINE
  8
0
 10
-6.87663
 20
103.004
 11
-7.44859
 21
103.905
  0
LINE
  8
0
 10
-7.44859
 20
103.905
 11
-7.90309
 21
104.871
  0
LINE
  8
0
 10
-7.90309
 20
104.871
 11
-8.23296
 21
105.886
  0
LINE
  8
0
 10
-8.23296
 20
105.886
 11
-8.43297
 21
106.935
  0
LINE
  8
0
 10
-8.43297
 20
106.935
 11
-8.5
 21
108
  0
LINE
  8
0
 10
-8.5
 20
108
 11
-8.43297
 21
109.065
  0
LINE
  8
0
 10
-8.43297
 20
109.065
 11
-8.23296
 21
110.114
  0
LINE
  8
0
 10
-8.23296
 20
110.114
 11
-7.90309
 21
111.129
  0
LINE
  8
0
 10
-7.90309
 20
111.129
 11
-7.44859
 21
112.095
  0
LINE
  8
0
 10
-7.44859
 20
112.095
 11
-6.87663
 21
112.996
  0
LINE
  8
0
 10
-6.87663
 20
112.996
 11
-6.19623
 21
113.819
  0
LINE
  8
0
 10
-6.19623
 20
113.819
 11
-5.41809
 21
114.549
  0
LINE
  8
0
 10
-5.41809
 20
114.549
 11
-4.55452
 21
115.177
  0
LINE
  8
0
 10
-4.55452
 20
115.177
 11
-3.61911
 21
115.691
  0
LINE
  8
0
 10
-3.61911
 20
115.691
 11
-2.62663
 21
116.084
  0
LINE
  8
0
 10
-2.62663
 20
116.084
 11
-1.59273
 21
116.349
  0
LINE
  8
0
 10
-1.59273
 20
116.349
 11
-0.533707
 21
116.483
  0
LINE
  8
0
 10
-0.533707
 20
116.483
 11
0.533707
 21
116.483
  0
LINE
  8
0
 10
0.533707
 20
116.483
 11
1.59273
 21
116.349
  0
LINE
  8
0
 10
1.59273
 20
116.349
 11
2.62663
 21
116.084
  0
LINE
  8
0
 10
2.62663
 20
116.084
 11
3.61911
 21
115.691
  0
LINE
  8
0
 10
3.61911
 20
115.691
 11
4.55452
 21
115.177
  0
LINE
  8
0
 10
4.55452
 20
115.177
 11
5.41809
 21
114.549
  0
LINE
  8
0
 10
5.41809
 20
114.549
 11
6.19623
 21
113.819
  0
LINE
  8
0
 10
6.19623
 20
113.819
 11
6.87663
 21
112.996
  0
LINE
  8
0
 10
6.87663
 20
112.996
 11
7.44859
 21
112.095
  0
LINE
  8
0
 10
7.44859
 20
112.095
 11
7.90309
 21
111.129
  0
LINE
  8
0
 10
7.90309
 20
111.129
 11
8.23296
 21
110.114
  0
LINE
  8
0
 10
8.23296
 20
110.114
 11
8.43297
 21
109.065
  0
LINE
  8
0
 10
8.43297
 20
109.065
 11
8.5
 21
108
  0
LINE
  8
0
 10
8.5
 20
108
 11
8.43297
 21
106.935
  0
LINE
  8
0
 10
8.43297
 20
106.935
 11
8.23296
 21
105.886
  0
LINE
  8
0
 10
8.23296
 20
105.886
 11
7.90309
 21
104.871
  0
LINE
  8
0
 10
7.90309
 20
104.871
 11
7.44859
 21
103.905
  0
LINE
  8
0
 10
7.44859
 20
103.905
 11
6.87663
 21
103.004
  0
LINE
  8
0
 10
6.87663
 20
103.004
 11
6.19623
 21
102.181
  0
LINE
  8
0
 10
6.19623
 20
102.181
 11
5.41809
 21
101.451
  0
LINE
  8
0
 10
5.41809
 20
101.451
 11
4.55452
 21
100.823
  0
LINE
  8
0
 10
4.55452
 20
100.823
 11
3.61911
 21
100.309
  0
LINE
  8
0
 10
3.61911
 20
100.309
 11
2.62663
 21
99.916
  0
LINE
  8
0
 10
2.62663
 20
99.916
 11
1.59273
 21
99.6506
  0
LINE
  8
0
 10
1.59273
 20
99.6506
 11
0.533707
 21
99.5168
  0
LINE
  8
0
 10
0.533707
 20
99.5168
 11
-0.533707
 21
99.5168
  0
LINE
  8
0
 10
-16.6733
 20
105.102
 11
-18.3466
 21
108
  0
LINE
  8
0
 10
-18.3466
 20
108
 11
-16.6733
 21
110.898
  0
LINE
  8
0
 10
-16.6733
 20
110.898
 11
-13.3267
 21
110.898
  0
LINE
  8
0
 10
-13.3267
 20
110.898
 11
-11.6534
 21
108
  0
LINE
  8
0
 10
-11.6534
 20
108
 11
-13.3267
 21
105.102
  0
LINE
  8
0
 10
-13.3267
 20
105.102
 11
-16.6733
 21
105.102
  0
LINE
  8
0
 10
13.3267
 20
105.102
 11
11.6534
 21
108
  0
LINE
  8
0
 10
11.6534
 20
108
 11
13.3267
 21
110.898
  0
LINE
  8
0
 10
13.3267
 20
110.898
 11
16.6733
 21
110.898
  0
LINE
  8
0
 10
16.6733
 20
110.898
 11
18.3466
 21
108
  0
LINE
  8
0
 10
18.3466
 20
108
 11
16.6733
 21
105.102
  0
LINE
  8
0
 10
16.6733
 20
105.102
 11
13.3267
 21
105.102
  0
LINE
  8
0
 10
-15.1884
 20
90.0059
 11
-15.5621
 21
90.0531
  0
LINE
  8
0
 10
-15.5621
 20
90.0531
 11
-15.927
 21
90.1468
  0
LINE
  8
0
 10
-15.927
 20
90.1468
 11
-16.2773
 21
90.2855
  0
LINE
  8
0
 10
-16.2773
 20
90.2855
 11
-16.6075
 21
90.467
  0
LINE
  8
0
 10
-16.6075
 20
90.467
 11
-16.9123
 21
90.6885
  0
LINE
  8
0
 10
-16.9123
 20
90.6885
 11
-17.1869
 21
90.9464
  0
LINE
  8
0
 10
-17.1869
 20
90.9464
 11
-17.427
 21
91.2366
  0
LINE
  8
0
 10
-17.427
 20
91.2366
 11
-17.6289
 21
91.5547
  0
LINE
  8
0
 10
-17.6289
 20
91.5547
 11
-17.7893
 21
91.8956
  0
LINE
  8
0
 10
-17.7893
 20
91.8956
 11
-17.9057
 21
92.2539
  0
LINE
  8
0
 10
-17.9057
 20
92.2539
 11
-17.9763
 21
92.624
  0
LINE
  8
0
 10
-17.9763
 20
92.624
 11
-18
 21
93
  0
LINE
  8
0
 10
-18
 20
93
 11
-17.9763
 21
93.376
  0
LINE
  8
0
 10
-17.9763
 20
93.376
 11
-17.9057
 21
93.7461
  0
LINE
  8
0
 10
-17.9057
 20
93.7461
 11
-17.7893
 21
94.1044
  0
LINE
  8
0
 10
-17.7893
 20
94.1044
 11
-17.6289
 21
94.4453
  0
LINE
  8
0
 10
-17.6289
 20
94.4453
 11
-17.427
 21
94.7634
  0
LINE
  8
0
 10
-17.427
 20
94.7634
 11
-17.1869
 21
95.0536
  0
LINE
  8
0
 10
-17.1869
 20
95.0536
 11
-16.9123
 21
95.3116
  0
LINE
  8
0
 10
-16.9123
 20
95.3116
 11
-16.6075
 21
95.533
  0
LINE
  8
0
 10
-16.6075
 20
95.533
 11
-16.2773
 21
95.7145
  0
LINE
  8
0
 10
-16.2773
 20
95.7145
 11
-15.927
 21
95.8532
  0
LINE
  8
0
 10
-15.927
 20
95.8532
 11
-15.5621
 21
95.9469
  0
LINE
  8
0
 10
-15.5621
 20
95.9469
 11
-15.1884
 21
95.9941
  0
LINE
  8
0
 10
-15.1884
 20
95.9941
 11
-14.8116
 21
95.9941
  0
LINE
  8
0
 10
-14.8116
 20
95.9941
 11
-14.4379
 21
95.9469
  0
LINE
  8
0
 10
-14.4379
 20
95.9469
 11
-14.0729
 21
95.8532
  0
LINE
  8
0
 10
-14.0729
 20
95.8532
 11
-13.7227
 21
95.7145
  0
LINE
  8
0
 10
-13.7227
 20
95.7145
 11
-13.3925
 21
95.533
  0
LINE
  8
0
 10
-13.3925
 20
95.533
 11
-13.0877
 21
95.3116
  0
LINE
  8
0
 10
-13.0877
 20
95.3116
 11
-12.8131
 21
95.0536
  0
LINE
  8
0
 10
-12.8131
 20
95.0536
 11
-12.5729
 21
94.7634
  0
LINE
  8
0
 10
-12.5729
 20
94.7634
 11
-12.3711
 21
94.4453
  0
LINE
  8
0
 10
-12.3711
 20
94.4453
 11
-12.2107
 21
94.1044
  0
LINE
  8
0
 10
-12.2107
 20
94.1044
 11
-12.0942
 21
93.7461
  0
LINE
  8
0
 10
-12.0942
 20
93.7461
 11
-12.0237
 21
93.376
  0
LINE
  8
0
 10
-12.0237
 20
93.376
 11
-12
 21
93
  0
LINE
  8
0
 10
-12
 20
93
 11
-12.0237
 21
92.624
  0
LINE
  8
0
 10
-12.0237
 20
92.624
 11
-12.0942
 21
92.2539
  0
LINE
  8
0
 10
-12.0942
 20
92.2539
 11
-12.2107
 21
91.8956
  0
LINE
  8
0
 10
-12.2107
 20
91.8956
 11
-12.3711
 21
91.5547
  0
LINE
  8
0
 10
-12.3711
 20
91.5547
 11
-12.5729
 21
91.2366
  0
LINE
  8
0
 10
-12.5729
 20
91.2366
 11
-12.8131
 21
90.9464
  0
LINE
  8
0
 10
-12.8131
 20
90.9464
 11
-13.0877
 21
90.6885
  0
LINE
  8
0
 10
-13.0877
 20
90.6885
 11
-13.3925
 21
90.467
  0
LINE
  8
0
 10
-13.3925
 20
90.467
 11
-13.7227
 21
90.2855
  0
LINE
  8
0
 10
-13.7227
 20
90.2855
 11
-14.0729
 21
90.1468
  0
LINE
  8
0
 10
-14.0729
 20
90.1468
 11
-14.4379
 21
90.0531
  0
LINE
  8
0
 10
-14.4379
 20
90.0531
 11
-14.8116
 21
90.0059
  0
LINE
  8
0
 10
-14.8116
 20
90.0059
 11
-15.1884
 21
90.0059
  0
LINE
  8
0
 10
14.8116
 20
90.0059
 11
14.4379
 21
90.0531
  0
LINE
  8
0
 10
14.4379
 20
90.0531
 11
14.0729
 21
90.1468
  0
LINE
  8
0
 10
14.0729
 20
90.1468
 11
13.7227
 21
90.2855
  0
LINE
  8
0
 10
13.7227
 20
90.2855
 11
13.3925
 21
90.467
  0
LINE
  8
0
 10
13.3925
 20
90.467
 11
13.0877
 21
90.6885
  0
LINE
  8
0
 10
13.0877
 20
90.6885
 11
12.8131
 21
90.9464
  0
LINE
  8
0
 10
12.8131
 20
90.9464
 11
12.5729
 21
91.2366
  0
LINE
  8
0
 10
12.5729
 20
91.2366
 11
12.3711
 21
91.5547
  0
LINE
  8
0
 10
12.3711
 20
91.5547
 11
12.2107
 21
91.8956
  0
LINE
  8
0
 10
12.2107
 20
91.8956
 11
12.0942
 21
92.2539
  0
LINE
  8
0
 10
12.0942
 20
92.2539
 11
12.0237
 21
92.624
  0
LINE
  8
0
 10
12.0237
 20
92.624
 11
12
 21
93
  0
LINE
  8
0
 10
12
 20
93
 11
12.0237
 21
93.376
  0
LINE
  8
0
 10
12.0237
 20
93.376
 11
12.0942
 21
93.7461
  0
LINE
  8
0
 10
12.0942
 20
93.7461
 11
12.2107
 21
94.1044
  0
LINE
  8
0
 10
12.2107
 20
94.1044
 11
12.3711
 21
94.4453
  0
LINE
  8
0
 10
12.3711
 20
94.4453
 11
12.5729
 21
94.7634
  0
LINE
  8
0
 10
12.5729
 20
94.7634
 11
12.8131
 21
95.0536
  0
LINE
  8
0
 10
12.8131
 20
95.0536
 11
13.0877
 21
95.3116
  0
LINE
  8
0
 10
13.0877
 20
95.3116
 11
13.3925
 21
95.533
  0
LINE
  8
0
 10
13.3925
 20
95.533
 11
13.7227
 21
95.7145
  0
LINE
  8
0
 10
13.7227
 20
95.7145
 11
14.0729
 21
95.8532
  0
LINE
  8
0
 10
14.0729
 20
95.8532
 11
14.4379
 21
95.9469
  0
LINE
  8
0
 10
14.4379
 20
95.9469
 11
14.8116
 21
95.9941
  0
LINE
  8
0
 10
14.8116
 20
95.9941
 11
15.1884
 21
95.9941
  0
LINE
  8
0
 10
15.1884
 20
95.9941
 11
15.5621
 21
95.9469
  0
LINE
  8
0
 10
15.5621
 20
95.9469
 11
15.927
 21
95.8532
  0
LINE
  8
0
 10
15.927
 20
95.8532
 11
16.2773
 21
95.7145
  0
LINE
  8
0
 10
16.2773
 20
95.7145
 11
16.6075
 21
95.533
  0
LINE
  8
0
 10
16.6075
 20
95.533
 11
16.9123
 21
95.3116
  0
LINE
  8
0
 10
16.9123
 20
95.3116
 11
17.1869
 21
95.0536
  0
LINE
  8
0
 10
17.1869
 20
95.0536
 11
17.427
 21
94.7634
  0
LINE
  8
0
 10
17.427
 20
94.7634
 11
17.6289
 21
94.4453
  0
LINE
  8
0
 10
17.6289
 20
94.4453
 11
17.7893
 21
94.1044
  0
LINE
  8
0
 10
17.7893
 20
94.1044
 11
17.9057
 21
93.7461
  0
LINE
  8
0
 10
17.9057
 20
93.7461
 11
17.9763
 21
93.376
  0
LINE
  8
0
 10
17.9763
 20
93.376
 11
18
 21
93
  0
LINE
  8
0
 10
18
 20
93
 11
17.9763
 21
92.624
  0
LINE
  8
0
 10
17.9763
 20
92.624
 11
17.9057
 21
92.2539
  0
LINE
  8
0
 10
17.9057
 20
92.2539
 11
17.7893
 21
91.8956
  0
LINE
  8
0
 10
17.7893
 20
91.8956
 11
17.6289
 21
91.5547
  0
LINE
  8
0
 10
17.6289
 20
91.5547
 11
17.427
 21
91.2366
  0
LINE
  8
0
 10
17.427
 20
91.2366
 11
17.1869
 21
90.9464
  0
LINE
  8
0
 10
17.1869
 20
90.9464
 11
16.9123
 21
90.6885
  0
LINE
  8
0
 10
16.9123
 20
90.6885
 11
16.6075
 21
90.467
  0
LINE
  8
0
 10
16.6075
 20
90.467
 11
16.2773
 21
90.2855
  0
LINE
  8
0
 10
16.2773
 20
90.2855
 11
15.927
 21
90.1468
  0
LINE
  8
0
 10
15.927
 20
90.1468
 11
15.5621
 21
90.0531
  0
LINE
  8
0
 10
15.5621
 20
90.0531
 11
15.1884
 21
90.0059
  0
LINE
  8
0
 10
15.1884
 20
90.0059
 11
14.8116
 21
90.0059
  0
LINE
  8
0
 10
-0.250153
 20
91.521
 11
-0.433533
 21
91.564
  0
LINE
  8
0
 10
-0.433533
 20
91.564
 11
-0.610092
 21
91.6297
  0
LINE
  8
0
 10
-0.610092
 20
91.6297
 11
-0.777039
 21
91.717
  0
LINE
  8
0
 10
-0.777039
 20
91.717
 11
-0.931717
 21
91.8245
  0
LINE
  8
0
 10
-0.931717
 20
91.8245
 11
-1.0717
 21
91.9505
  0
LINE
  8
0
 10
-1.0717
 20
91.9505
 11
-1.19479
 21
92.0931
  0
LINE
  8
0
 10
-1.19479
 20
92.0931
 11
-1.29903
 21
92.25
  0
LINE
  8
0
 10
-1.29903
 20
92.25
 11
-1.38278
 21
92.4187
  0
LINE
  8
0
 10
-1.38278
 20
92.4187
 11
-1.44473
 21
92.5966
  0
LINE
  8
0
 10
-1.44473
 20
92.5966
 11
-1.4839
 21
92.7809
  0
LINE
  8
0
 10
-1.4839
 20
92.7809
 11
-1.49966
 21
92.9686
  0
LINE
  8
0
 10
-1.49966
 20
92.9686
 11
-1.49178
 21
93.1568
  0
LINE
  8
0
 10
-1.49178
 20
93.1568
 11
-1.46036
 21
93.3425
  0
LINE
  8
0
 10
-1.46036
 20
93.3425
 11
-1.40591
 21
93.5229
  0
LINE
  8
0
 10
-1.40591
 20
93.5229
 11
-1.3293
 21
93.6949
  0
LINE
  8
0
 10
-1.3293
 20
93.6949
 11
-1.23172
 21
93.8561
  0
LINE
  8
0
 10
-1.23172
 20
93.8561
 11
-1.11472
 21
94.0037
  0
LINE
  8
0
 10
-1.11472
 20
94.0037
 11
-0.980118
 21
94.1355
  0
LINE
  8
0
 10
-0.980118
 20
94.1355
 11
-0.830078
 21
94.2494
  0
LINE
  8
0
 10
-0.830078
 20
94.2494
 11
-0.666946
 21
94.3436
  0
LINE
  8
0
 10
-0.666946
 20
94.3436
 11
-0.493286
 21
94.4166
  0
LINE
  8
0
 10
-0.493286
 20
94.4166
 11
-0.311859
 21
94.4672
  0
LINE
  8
0
 10
-0.311859
 20
94.4672
 11
-0.125504
 21
94.4948
  0
LINE
  8
0
 10
-0.125504
 20
94.4948
 11
0.0628052
 21
94.4987
  0
LINE
  8
0
 10
0.0628052
 20
94.4987
 11
0.250153
 21
94.479
  0
LINE
  8
0
 10
0.250153
 20
94.479
 11
0.433533
 21
94.436
  0
LINE
  8
0
 10
0.433533
 20
94.436
 11
0.610092
 21
94.3703
  0
LINE
  8
0
 10
0.610092
 20
94.3703
 11
0.777039
 21
94.2831
  0
LINE
  8
0
 10
0.777039
 20
94.2831
 11
0.931717
 21
94.1756
  0
LINE
  8
0
 10
0.931717
 20
94.1756
 11
1.0717
 21
94.0495
  0
LINE
  8
0
 10
1.0717
 20
94.0495
 11
1.19479
 21
93.9069
  0
LINE
  8
0
 10
1.19479
 20
93.9069
 11
1.29903
 21
93.75
  0
LINE
  8
0
 10
1.29903
 20
93.75
 11
1.38278
 21
93.5813
  0
LINE
  8
0
 10
1.38278
 20
93.5813
 11
1.44473
 21
93.4034
  0
LINE
  8
0
 10
1.44473
 20
93.4034
 11
1.4839
 21
93.2191
  0
LINE
  8
0
 10
1.4839
 20
93.2191
 11
1.49966
 21
93.0314
  0
LINE
  8
0
 10
1.49966
 20
93.0314
 11
1.49178
 21
92.8432
  0
LINE
  8
0
 10
1.49178
 20
92.8432
 11
1.46036
 21
92.6575
  0
LINE
  8
0
 10
1.46036
 20
92.6575
 11
1.40591
 21
92.4771
  0
LINE
  8
0
 10
1.40591
 20
92.4771
 11
1.3293
 21
92.3051
  0
LINE
  8
0
 10
1.3293
 20
92.3051
 11
1.23172
 21
92.1439
  0
LINE
  8
0
 10
1.23172
 20
92.1439
 11
1.11472
 21
91.9963
  0
LINE
  8
0
 10
1.11472
 20
91.9963
 11
0.980118
 21
91.8645
  0
LINE
  8
0
 10
0.980118
 20
91.8645
 11
0.830078
 21
91.7506
  0
LINE
  8
0
 10
0.830078
 20
91.7506
 11
0.666946
 21
91.6564
  0
LINE
  8
0
 10
0.666946
 20
91.6564
 11
0.493286
 21
91.5834
  0
LINE
  8
0
 10
0.493286
 20
91.5834
 11
0.311859
 21
91.5328
  0
LINE
  8
0
 10
0.311859
 20
91.5328
 11
0.125504
 21
91.5053
  0
LINE
  8
0
 10
0.125504
 20
91.5053
 11
-0.0628052
 21
91.5013
  0
LINE
  8
0
 10
-0.0628052
 20
91.5013
 11
-0.250153
 21
91.521
  0
LINE
  8
0
 10
17.9369
 20
32.0886
 11
18.5451
 21
32.2447
  0
LINE
  8
0
 10
18.5451
 20
32.2447
 11
19.1289
 21
32.4759
  0
LINE
  8
0
 10
19.1289
 20
32.4759
 11
19.6791
 21
32.7784
  0
LINE
  8
0
 10
19.6791
 20
32.7784
 11
20.1871
 21
33.1474
  0
LINE
  8
0
 10
20.1871
 20
33.1474
 11
20.6448
 21
33.5773
  0
LINE
  8
0
 10
20.6448
 20
33.5773
 11
21.0451
 21
34.0611
  0
LINE
  8
0
 10
21.0451
 20
34.0611
 11
21.3815
 21
34.5912
  0
LINE
  8
0
 10
21.3815
 20
34.5912
 11
21.6489
 21
35.1594
  0
LINE
  8
0
 10
21.6489
 20
35.1594
 11
21.8429
 21
35.7566
  0
LINE
  8
0
 10
21.8429
 20
35.7566
 11
21.9606
 21
36.3733
  0
LINE
  8
0
 10
21.9606
 20
36.3733
 11
22
 21
37
  0
LINE
  8
0
 10
22
 20
37
 11
22
 21
71
  0
LINE
  8
0
 10
22
 20
71
 11
21.9606
 21
71.6267
  0
LINE
  8
0
 10
21.9606
 20
71.6267
 11
21.8429
 21
72.2434
  0
LINE
  8
0
 10
21.8429
 20
72.2434
 11
21.6489
 21
72.8406
  0
LINE
  8
0
 10
21.6489
 20
72.8406
 11
21.3815
 21
73.4088
  0
LINE
  8
0
 10
21.3815
 20
73.4088
 11
21.0451
 21
73.9389
  0
LINE
  8
0
 10
21.0451
 20
73.9389
 11
20.6448
 21
74.4227
  0
LINE
  8
0
 10
20.6448
 20
74.4227
 11
20.1871
 21
74.8526
  0
LINE
  8
0
 10
20.1871
 20
74.8526
 11
19.6791
 21
75.2216
  0
LINE
  8
0
 10
19.6791
 20
75.2216
 11
19.1289
 21
75.5241
  0
LINE
  8
0
 10
19.1289
 20
75.5241
 11
18.5451
 21
75.7553
  0
LINE
  8
0
 10
18.5451
 20
75.7553
 11
17.9369
 21
75.9114
  0
LINE
  8
0
 10
17.9369
 20
75.9114
 11
17.3139
 21
75.9901
  0
LINE
  8
0
 10
17.3139
 20
75.9901
 11
-17.3139
 21
75.9901
  0
LINE
  8
0
 10
-17.3139
 20
75.9901
 11
-17.9369
 21
75.9114
  0
LINE
  8
0
 10
-17.9369
 20
75.9114
 11
-18.5451
 21
75.7553
  0
LINE
  8
0
 10
-18.5451
 20
75.7553
 11
-19.1289
 21
75.5241
  0
LINE
  8
0
 10
-19.1289
 20
75.5241
 11
-19.6791
 21
75.2216
  0
LINE
  8
0
 10
-19.6791
 20
75.2216
 11
-20.1871
 21
74.8526
  0
LINE
  8
0
 10
-20.1871
 20
74.8526
 11
-20.6448
 21
74.4227
  0
LINE
  8
0
 10
-20.6448
 20
74.4227
 11
-21.0451
 21
73.9389
  0
LINE
  8
0
 10
-21.0451
 20
73.9389
 11
-21.3815
 21
73.4088
  0
LINE
  8
0
 10
-21.3815
 20
73.4088
 11
-21.6489
 21
72.8406
  0
LINE
  8
0
 10
-21.6489
 20
72.8406
 11
-21.8429
 21
72.2434
  0
LINE
  8
0
 10
-21.8429
 20
72.2434
 11
-21.9606
 21
71.6267
  0
LINE
  8
0
 10
-21.9606
 20
71.6267
 11
-22
 21
71
  0
LINE
  8
0
 10
-22
 20
71
 11
-22
 21
37
  0
LINE
  8
0
 10
-22
 20
37
 11
-21.9606
 21
36.3733
  0
LINE
  8
0
 10
-21.9606
 20
36.3733
 11
-21.8429
 21
35.7566
  0
LINE
  8
0
 10
-21.8429
 20
35.7566
 11
-21.6489
 21
35.1594
  0
LINE
  8
0
 10
-21.6489
 20
35.1594
 11
-21.3815
 21
34.5912
  0
LINE
  8
0
 10
-21.3815
 20
34.5912
 11
-21.0451
 21
34.0611
  0
LINE
  8
0
 10
-21.0451
 20
34.0611
 11
-20.6448
 21
33.5773
  0
LINE
  8
0
 10
-20.6448
 20
33.5773
 11
-20.1871
 21
33.1474
  0
LINE
  8
0
 10
-20.1871
 20
33.1474
 11
-19.6791
 21
32.7784
  0
LINE
  8
0
 10
-19.6791
 20
32.7784
 11
-19.1289
 21
32.4759
  0
LINE
  8
0
 10
-19.1289
 20
32.4759
 11
-18.5451
 21
32.2447
  0
LINE
  8
0
 10
-18.5451
 20
32.2447
 11
-17.9369
 21
32.0886
  0
LINE
  8
0
 10
-17.9369
 20
32.0886
 11
-17.3139
 21
32.0099
  0
LINE
  8
0
 10
-17.3139
 20
32.0099
 11
17.3139
 21
32.0099
  0
LINE
  8
0
 10
17.3139
 20
32.0099
 11
17.9369
 21
32.0886
  0
LINE
  8
0
 10
-15.1884
 20
66.0059
 11
-15.5621
 21
66.0531
  0
LINE
  8
0
 10
-15.5621
 20
66.0531
 11
-15.927
 21
66.1468
  0
LINE
  8
0
 10
-15.927
 20
66.1468
 11
-16.2773
 21
66.2855
  0
LINE
  8
0
 10
-16.2773
 20
66.2855
 11
-16.6075
 21
66.467
  0
LINE
  8
0
 10
-16.6075
 20
66.467
 11
-16.9123
 21
66.6884
  0
LINE
  8
0
 10
-16.9123
 20
66.6884
 11
-17.1869
 21
66.9464
  0
LINE
  8
0
 10
-17.1869
 20
66.9464
 11
-17.427
 21
67.2366
  0
LINE
  8
0
 10
-17.427
 20
67.2366
 11
-17.6289
 21
67.5547
  0
LINE
  8
0
 10
-17.6289
 20
67.5547
 11
-17.7893
 21
67.8956
  0
LINE
  8
0
 10
-17.7893
 20
67.8956
 11
-17.9057
 21
68.2539
  0
LINE
  8
0
 10
-17.9057
 20
68.2539
 11
-17.9763
 21
68.624
  0
LINE
  8
0
 10
-17.9763
 20
68.624
 11
-18
 21
69
  0
LINE
  8
0
 10
-18
 20
69
 11
-17.9763
 21
69.376
  0
LINE
  8
0
 10
-17.9763
 20
69.376
 11
-17.9057
 21
69.7461
  0
LINE
  8
0
 10
-17.9057
 20
69.7461
 11
-17.7893
 21
70.1044
  0
LINE
  8
0
 10
-17.7893
 20
70.1044
 11
-17.6289
 21
70.4453
  0
LINE
  8
0
 10
-17.6289
 20
70.4453
 11
-17.427
 21
70.7634
  0
LINE
  8
0
 10
-17.427
 20
70.7634
 11
-17.1869
 21
71.0536
  0
LINE
  8
0
 10
-17.1869
 20
71.0536
 11
-16.9123
 21
71.3115
  0
LINE
  8
0
 10
-16.9123
 20
71.3115
 11
-16.6075
 21
71.533
  0
LINE
  8
0
 10
-16.6075
 20
71.533
 11
-16.2773
 21
71.7145
  0
LINE
  8
0
 10
-16.2773
 20
71.7145
 11
-15.927
 21
71.8532
  0
LINE
  8
0
 10
-15.927
 20
71.8532
 11
-15.5621
 21
71.9469
  0
LINE
  8
0
 10
-15.5621
 20
71.9469
 11
-15.1884
 21
71.9941
  0
LINE
  8
0
 10
-15.1884
 20
71.9941
 11
-14.8116
 21
71.9941
  0
LINE
  8
0
 10
-14.8116
 20
71.9941
 11
-14.4379
 21
71.9469
  0
LINE
  8
0
 10
-14.4379
 20
71.9469
 11
-14.0729
 21
71.8532
  0
LINE
  8
0
 10
-14.0729
 20
71.8532
 11
-13.7227
 21
71.7145
  0
LINE
  8
0
 10
-13.7227
 20
71.7145
 11
-13.3925
 21
71.533
  0
LINE
  8
0
 10
-13.3925
 20
71.533
 11
-13.0877
 21
71.3115
  0
LINE
  8
0
 10
-13.0877
 20
71.3115
 11
-12.8131
 21
71.0536
  0
LINE
  8
0
 10
-12.8131
 20
71.0536
 11
-12.5729
 21
70.7634
  0
LINE
  8
0
 10
-12.5729
 20
70.7634
 11
-12.3711
 21
70.4453
  0
LINE
  8
0
 10
-12.3711
 20
70.4453
 11
-12.2107
 21
70.1044
  0
LINE
  8
0
 10
-12.2107
 20
70.1044
 11
-12.0942
 21
69.7461
  0
LINE
  8
0
 10
-12.0942
 20
69.7461
 11
-12.0237
 21
69.376
  0
LINE
  8
0
 10
-12.0237
 20
69.376
 11
-12
 21
69
  0
LINE
  8
0
 10
-12
 20
69
 11
-12.0237
 21
68.624
  0
LINE
  8
0
 10
-12.0237
 20
68.624
 11
-12.0942
 21
68.2539
  0
LINE
  8
0
 10
-12.0942
 20
68.2539
 11
-12.2107
 21
67.8956
  0
LINE
  8
0
 10
-12.2107
 20
67.8956
 11
-12.3711
 21
67.5547
  0
LINE
  8
0
 10
-12.3711
 20
67.5547
 11
-12.5729
 21
67.2366
  0
LINE
  8
0
 10
-12.5729
 20
67.2366
 11
-12.8131
 21
66.9464
  0
LINE
  8
0
 10
-12.8131
 20
66.9464
 11
-13.0877
 21
66.6884
  0
LINE
  8
0
 10
-13.0877
 20
66.6884
 11
-13.3925
 21
66.467
  0
LINE
  8
0
 10
-13.3925
 20
66.467
 11
-13.7227
 21
66.2855
  0
LINE
  8
0
 10
-13.7227
 20
66.2855
 11
-14.0729
 21
66.1468
  0
LINE
  8
0
 10
-14.0729
 20
66.1468
 11
-14.4379
 21
66.0531
  0
LINE
  8
0
 10
-14.4379
 20
66.0531
 11
-14.8116
 21
66.0059
  0
LINE
  8
0
 10
-14.8116
 20
66.0059
 11
-15.1884
 21
66.0059
  0
LINE
  8
0
 10
14.8116
 20
66.0059
 11
14.4379
 21
66.0531
  0
LINE
  8
0
 10
14.4379
 20
66.0531
 11
14.0729
 21
66.1468
  0
LINE
  8
0
 10
14.0729
 20
66.1468
 11
13.7227
 21
66.2855
  0
LINE
  8
0
 10
13.7227
 20
66.2855
 11
13.3925
 21
66.467
  0
LINE
  8
0
 10
13.3925
 20
66.467
 11
13.0877
 21
66.6884
  0
LINE
  8
0
 10
13.0877
 20
66.6884
 11
12.8131
 21
66.9464
  0
LINE
  8
0
 10
12.8131
 20
66.9464
 11
12.5729
 21
67.2366
  0
LINE
  8
0
 10
12.5729
 20
67.2366
 11
12.3711
 21
67.5547
  0
LINE
  8
0
 10
12.3711
 20
67.5547
 11
12.2107
 21
67.8956
  0
LINE
  8
0
 10
12.2107
 20
67.8956
 11
12.0942
 21
68.2539
  0
LINE
  8
0
 10
12.0942
 20
68.2539
 11
12.0237
 21
68.624
  0
LINE
  8
0
 10
12.0237
 20
68.624
 11
12
 21
69
  0
LINE
  8
0
 10
12
 20
69
 11
12.0237
 21
69.376
  0
LINE
  8
0
 10
12.0237
 20
69.376
 11
12.0942
 21
69.7461
  0
LINE
  8
0
 10
12.0942
 20
69.7461
 11
12.2107
 21
70.1044
  0
LINE
  8
0
 10
12.2107
 20
70.1044
 11
12.3711
 21
70.4453
  0
LINE
  8
0
 10
12.3711
 20
70.4453
 11
12.5729
 21
70.7634
  0
LINE
  8
0
 10
12.5729
 20
70.7634
 11
12.8131
 21
71.0536
  0
LINE
  8
0
 10
12.8131
 20
71.0536
 11
13.0877
 21
71.3115
  0
LINE
  8
0
 10
13.0877
 20
71.3115
 11
13.3925
 21
71.533
  0
LINE
  8
0
 10
13.3925
 20
71.533
 11
13.7227
 21
71.7145
  0
LINE
  8
0
 10
13.7227
 20
71.7145
 11
14.0729
 21
71.8532
  0
LINE
  8
0
 10
14.0729
 20
71.8532
 11
14.4379
 21
71.9469
  0
LINE
  8
0
 10
14.4379
 20
71.9469
 11
14.8116
 21
71.9941
  0
LINE
  8
0
 10
14.8116
 20
71.9941
 11
15.1884
 21
71.9941
  0
LINE
  8
0
 10
15.1884
 20
71.9941
 11
15.5621
 21
71.9469
  0
LINE
  8
0
 10
15.5621
 20
71.9469
 11
15.927
 21
71.8532
  0
LINE
  8
0
 10
15.927
 20
71.8532
 11
16.2773
 21
71.7145
  0
LINE
  8
0
 10
16.2773
 20
71.7145
 11
16.6075
 21
71.533
  0
LINE
  8
0
 10
16.6075
 20
71.533
 11
16.9123
 21
71.3115
  0
LINE
  8
0
 10
16.9123
 20
71.3115
 11
17.1869
 21
71.0536
  0
LINE
  8
0
 10
17.1869
 20
71.0536
 11
17.427
 21
70.7634
  0
LINE
  8
0
 10
17.427
 20
70.7634
 11
17.6289
 21
70.4453
  0
LINE
  8
0
 10
17.6289
 20
70.4453
 11
17.7893
 21
70.1044
  0
LINE
  8
0
 10
17.7893
 20
70.1044
 11
17.9057
 21
69.7461
  0
LINE
  8
0
 10
17.9057
 20
69.7461
 11
17.9763
 21
69.376
  0
LINE
  8
0
 10
17.9763
 20
69.376
 11
18
 21
69
  0
LINE
  8
0
 10
18
 20
69
 11
17.9763
 21
68.624
  0
LINE
  8
0
 10
17.9763
 20
68.624
 11
17.9057
 21
68.2539
  0
LINE
  8
0
 10
17.9057
 20
68.2539
 11
17.7893
 21
67.8956
  0
LINE
  8
0
 10
17.7893
 20
67.8956
 11
17.6289
 21
67.5547
  0
LINE
  8
0
 10
17.6289
 20
67.5547
 11
17.427
 21
67.2366
  0
LINE
  8
0
 10
17.427
 20
67.2366
 11
17.1869
 21
66.9464
  0
LINE
  8
0
 10
17.1869
 20
66.9464
 11
16.9123
 21
66.6884
  0
LINE
  8
0
 10
16.9123
 20
66.6884
 11
16.6075
 21
66.467
  0
LINE
  8
0
 10
16.6075
 20
66.467
 11
16.2773
 21
66.2855
  0
LINE
  8
0
 10
16.2773
 20
66.2855
 11
15.927
 21
66.1468
  0
LINE
  8
0
 10
15.927
 20
66.1468
 11
15.5621
 21
66.0531
  0
LINE
  8
0
 10
15.5621
 20
66.0531
 11
15.1884
 21
66.0059
  0
LINE
  8
0
 10
15.1884
 20
66.0059
 11
14.8116
 21
66.0059
  0
LINE
  8
0
 10
-0.0941772
 20
67.5029
 11
-0.281067
 21
67.5266
  0
LINE
  8
0
 10
-0.281067
 20
67.5266
 11
-0.463516
 21
67.5734
  0
LINE
  8
0
 10
-0.463516
 20
67.5734
 11
-0.638657
 21
67.6427
  0
LINE
  8
0
 10
-0.638657
 20
67.6427
 11
-0.803726
 21
67.7335
  0
LINE
  8
0
 10
-0.803726
 20
67.7335
 11
-0.956131
 21
67.8442
  0
LINE
  8
0
 10
-0.956131
 20
67.8442
 11
-1.09344
 21
67.9732
  0
LINE
  8
0
 10
-1.09344
 20
67.9732
 11
-1.21352
 21
68.1183
  0
LINE
  8
0
 10
-1.21352
 20
68.1183
 11
-1.31445
 21
68.2774
  0
LINE
  8
0
 10
-1.31445
 20
68.2774
 11
-1.39465
 21
68.4478
  0
LINE
  8
0
 10
-1.39465
 20
68.4478
 11
-1.45287
 21
68.627
  0
LINE
  8
0
 10
-1.45287
 20
68.627
 11
-1.48816
 21
68.812
  0
LINE
  8
0
 10
-1.48816
 20
68.812
 11
-1.5
 21
69
  0
LINE
  8
0
 10
-1.5
 20
69
 11
-1.48816
 21
69.188
  0
LINE
  8
0
 10
-1.48816
 20
69.188
 11
-1.45287
 21
69.373
  0
LINE
  8
0
 10
-1.45287
 20
69.373
 11
-1.39465
 21
69.5522
  0
LINE
  8
0
 10
-1.39465
 20
69.5522
 11
-1.31445
 21
69.7226
  0
LINE
  8
0
 10
-1.31445
 20
69.7226
 11
-1.21352
 21
69.8817
  0
LINE
  8
0
 10
-1.21352
 20
69.8817
 11
-1.09344
 21
70.0268
  0
LINE
  8
0
 10
-1.09344
 20
70.0268
 11
-0.956131
 21
70.1558
  0
LINE
  8
0
 10
-0.956131
 20
70.1558
 11
-0.803726
 21
70.2665
  0
LINE
  8
0
 10
-0.803726
 20
70.2665
 11
-0.638657
 21
70.3572
  0
LINE
  8
0
 10
-0.638657
 20
70.3572
 11
-0.463516
 21
70.4266
  0
LINE
  8
0
 10
-0.463516
 20
70.4266
 11
-0.281067
 21
70.4734
  0
LINE
  8
0
 10
-0.281067
 20
70.4734
 11
-0.0941772
 21
70.497
  0
LINE
  8
0
 10
-0.0941772
 20
70.497
 11
0.0941772
 21
70.497
  0
LINE
  8
0
 10
0.0941772
 20
70.497
 11
0.281067
 21
70.4734
  0
LINE
  8
0
 10
0.281067
 20
70.4734
 11
0.463516
 21
70.4266
  0
LINE
  8
0
 10
0.463516
 20
70.4266
 11
0.638657
 21
70.3572
  0
LINE
  8
0
 10
0.638657
 20
70.3572
 11
0.803726
 21
70.2665
  0
LINE
  8
0
 10
0.803726
 20
70.2665
 11
0.956131
 21
70.1558
  0
LINE
  8
0
 10
0.956131
 20
70.1558
 11
1.09344
 21
70.0268
  0
LINE
  8
0
 10
1.09344
 20
70.0268
 11
1.21352
 21
69.8817
  0
LINE
  8
0
 10
1.21352
 20
69.8817
 11
1.31445
 21
69.7226
  0
LINE
  8
0
 10
1.31445
 20
69.7226
 11
1.39465
 21
69.5522
  0
LINE
  8
0
 10
1.39465
 20
69.5522
 11
1.45287
 21
69.373
  0
LINE
  8
0
 10
1.45287
 20
69.373
 11
1.48816
 21
69.188
  0
LINE
  8
0
 10
1.48816
 20
69.188
 11
1.5
 21
69
  0
LINE
  8
0
 10
1.5
 20
69
 11
1.48816
 21
68.812
  0
LINE
  8
0
 10
1.48816
 20
68.812
 11
1.45287
 21
68.627
  0
LINE
  8
0
 10
1.45287
 20
68.627
 11
1.39465
 21
68.4478
  0
LINE
  8
0
 10
1.39465
 20
68.4478
 11
1.31445
 21
68.2774
  0
LINE
  8
0
 10
1.31445
 20
68.2774
 11
1.21352
 21
68.1183
  0
LINE
  8
0
 10
1.21352
 20
68.1183
 11
1.09344
 21
67.9732
  0
LINE
  8
0
 10
1.09344
 20
67.9732
 11
0.956131
 21
67.8442
  0
LINE
  8
0
 10
0.956131
 20
67.8442
 11
0.803726
 21
67.7335
  0
LINE
  8
0
 10
0.803726
 20
67.7335
 11
0.638657
 21
67.6427
  0
LINE
  8
0
 10
0.638657
 20
67.6427
 11
0.463516
 21
67.5734
  0
LINE
  8
0
 10
0.463516
 20
67.5734
 11
0.281067
 21
67.5266
  0
LINE
  8
0
 10
0.281067
 20
67.5266
 11
0.0941772
 21
67.5029
  0
LINE
  8
0
 10
0.0941772
 20
67.5029
 11
-0.0941772
 21
67.5029
  0
LINE
  8
0
 10
-0.533707
 20
45.5168
 11
-1.59273
 21
45.6506
  0
LINE
  8
0
 10
-1.59273
 20
45.6506
 11
-2.62663
 21
45.916
  0
LINE
  8
0
 10
-2.62663
 20
45.916
 11
-3.61911
 21
46.309
  0
LINE
  8
0
 10
-3.61911
 20
46.309
 11
-4.55452
 21
46.8232
  0
LINE
  8
0
 10
-4.55452
 20
46.8232
 11
-5.41809
 21
47.4506
  0
LINE
  8
0
 10
-5.41809
 20
47.4506
 11
-6.19623
 21
48.1814
  0
LINE
  8
0
 10
-6.19623
 20
48.1814
 11
-6.87663
 21
49.0038
  0
LINE
  8
0
 10
-6.87663
 20
49.0038
 11
-7.44859
 21
49.9051
  0
LINE
  8
0
 10
-7.44859
 20
49.9051
 11
-7.90309
 21
50.871
  0
LINE
  8
0
 10
-7.90309
 20
50.871
 11
-8.23296
 21
51.8861
  0
LINE
  8
0
 10
-8.23296
 20
51.8861
 11
-8.43297
 21
52.9347
  0
LINE
  8
0
 10
-8.43297
 20
52.9347
 11
-8.5
 21
54
  0
LINE
  8
0
 10
-8.5
 20
54
 11
-8.43297
 21
55.0653
  0
LINE
  8
0
 10
-8.43297
 20
55.0653
 11
-8.23296
 21
56.1139
  0
LINE
  8
0
 10
-8.23296
 20
56.1139
 11
-7.90309
 21
57.129
  0
LINE
  8
0
 10
-7.90309
 20
57.129
 11
-7.44859
 21
58.0949
  0
LINE
  8
0
 10
-7.44859
 20
58.0949
 11
-6.87663
 21
58.9962
  0
LINE
  8
0
 10
-6.87663
 20
58.9962
 11
-6.19623
 21
59.8186
  0
LINE
  8
0
 10
-6.19623
 20
59.8186
 11
-5.41809
 21
60.5494
  0
LINE
  8
0
 10
-5.41809
 20
60.5494
 11
-4.55452
 21
61.1768
  0
LINE
  8
0
 10
-4.55452
 20
61.1768
 11
-3.61911
 21
61.691
  0
LINE
  8
0
 10
-3.61911
 20
61.691
 11
-2.62663
 21
62.084
  0
LINE
  8
0
 10
-2.62663
 20
62.084
 11
-1.59273
 21
62.3494
  0
LINE
  8
0
 10
-1.59273
 20
62.3494
 11
-0.533707
 21
62.4832
  0
LINE
  8
0
 10
-0.533707
 20
62.4832
 11
0.533707
 21
62.4832
  0
LINE
  8
0
 10
0.533707
 20
62.4832
 11
1.59273
 21
62.3494
  0
LINE
  8
0
 10
1.59273
 20
62.3494
 11
2.62663
 21
62.084
  0
LINE
  8
0
 10
2.62663
 20
62.084
 11
3.61911
 21
61.691
  0
LINE
  8
0
 10
3.61911
 20
61.691
 11
4.55452
 21
61.1768
  0
LINE
  8
0
 10
4.55452
 20
61.1768
 11
5.41809
 21
60.5494
  0
LINE
  8
0
 10
5.41809
 20
60.5494
 11
6.19623
 21
59.8186
  0
LINE
  8
0
 10
6.19623
 20
59.8186
 11
6.87663
 21
58.9962
  0
LINE
  8
0
 10
6.87663
 20
58.9962
 11
7.44859
 21
58.0949
  0
LINE
  8
0
 10
7.44859
 20
58.0949
 11
7.90309
 21
57.129
  0
LINE
  8
0
 10
7.90309
 20
57.129
 11
8.23296
 21
56.1139
  0
LINE
  8
0
 10
8.23296
 20
56.1139
 11
8.43297
 21
55.0653
  0
LINE
  8
0
 10
8.43297
 20
55.0653
 11
8.5
 21
54
  0
LINE
  8
0
 10
8.5
 20
54
 11
8.43297
 21
52.9347
  0
LINE
  8
0
 10
8.43297
 20
52.9347
 11
8.23296
 21
51.8861
  0
LINE
  8
0
 10
8.23296
 20
51.8861
 11
7.90309
 21
50.871
  0
LINE
  8
0
 10
7.90309
 20
50.871
 11
7.44859
 21
49.9051
  0
LINE
  8
0
 10
7.44859
 20
49.9051
 11
6.87663
 21
49.0038
  0
LINE
  8
0
 10
6.87663
 20
49.0038
 11
6.19623
 21
48.1814
  0
LINE
  8
0
 10
6.19623
 20
48.1814
 11
5.41809
 21
47.4506
  0
LINE
  8
0
 10
5.41809
 20
47.4506
 11
4.55452
 21
46.8232
  0
LINE
  8
0
 10
4.55452
 20
46.8232
 11
3.61911
 21
46.309
  0
LINE
  8
0
 10
3.61911
 20
46.309
 11
2.62663
 21
45.916
  0
LINE
  8
0
 10
2.62663
 20
45.916
 11
1.59273
 21
45.6506
  0
LINE
  8
0
 10
1.59273
 20
45.6506
 11
0.533707
 21
45.5168
  0
LINE
  8
0
 10
0.533707
 20
45.5168
 11
-0.533707
 21
45.5168
  0
LINE
  8
0
 10
-16.6733
 20
51.1018
 11
-18.3466
 21
54
  0
LINE
  8
0
 10
-18.3466
 20
54
 11
-16.6733
 21
56.8982
  0
LINE
  8
0
 10
-16.6733
 20
56.8982
 11
-13.3267
 21
56.8982
  0
LINE
  8
0
 10
-13.3267
 20
56.8982
 11
-11.6534
 21
54
  0
LINE
  8
0
 10
-11.6534
 20
54
 11
-13.3267
 21
51.1018
  0
LINE
  8
0
 10
-13.3267
 20
51.1018
 11
-16.6733
 21
51.1018
  0
LINE
  8
0
 10
13.3267
 20
51.1018
 11
11.6534
 21
54
  0
LINE
  8
0
 10
11.6534
 20
54
 11
13.3267
 21
56.8982
  0
LINE
  8
0
 10
13.3267
 20
56.8982
 11
16.6733
 21
56.8982
  0
LINE
  8
0
 10
16.6733
 20
56.8982
 11
18.3466
 21
54
  0
LINE
  8
0
 10
18.3466
 20
54
 11
16.6733
 21
51.1018
  0
LINE
  8
0
 10
16.6733
 20
51.1018
 11
13.3267
 21
51.1018
  0
LINE
  8
0
 10
-15.1884
 20
36.0059
 11
-15.5621
 21
36.0531
  0
LINE
  8
0
 10
-15.5621
 20
36.0531
 11
-15.927
 21
36.1468
  0
LINE
  8
0
 10
-15.927
 20
36.1468
 11
-16.2773
 21
36.2855
  0
LINE
  8
0
 10
-16.2773
 20
36.2855
 11
-16.6075
 21
36.467
  0
LINE
  8
0
 10
-16.6075
 20
36.467
 11
-16.9123
 21
36.6885
  0
LINE
  8
0
 10
-16.9123
 20
36.6885
 11
-17.1869
 21
36.9464
  0
LINE
  8
0
 10
-17.1869
 20
36.9464
 11
-17.427
 21
37.2366
  0
LINE
  8
0
 10
-17.427
 20
37.2366
 11
-17.6289
 21
37.5547
  0
LINE
  8
0
 10
-17.6289
 20
37.5547
 11
-17.7893
 21
37.8956
  0
LINE
  8
0
 10
-17.7893
 20
37.8956
 11
-17.9057
 21
38.2539
  0
LINE
  8
0
 10
-17.9057
 20
38.2539
 11
-17.9763
 21
38.624
  0
LINE
  8
0
 10
-17.9763
 20
38.624
 11
-18
 21
39
  0
LINE
  8
0
 10
-18
 20
39
 11
-17.9763
 21
39.376
  0
LINE
  8
0
 10
-17.9763
 20
39.376
 11
-17.9057
 21
39.7461
  0
LINE
  8
0
 10
-17.9057
 20
39.7461
 11
-17.7893
 21
40.1044
  0
LINE
  8
0
 10
-17.7893
 20
40.1044
 11
-17.6289
 21
40.4453
  0
LINE
  8
0
 10
-17.6289
 20
40.4453
 11
-17.427
 21
40.7634
  0
LINE
  8
0
 10
-17.427
 20
40.7634
 11
-17.1869
 21
41.0536
  0
LINE
  8
0
 10
-17.1869
 20
41.0536
 11
-16.9123
 21
41.3116
  0
LINE
  8
0
 10
-16.9123
 20
41.3116
 11
-16.6075
 21
41.533
  0
LINE
  8
0
 10
-16.6075
 20
41.533
 11
-16.2773
 21
41.7145
  0
LINE
  8
0
 10
-16.2773
 20
41.7145
 11
-15.927
 21
41.8532
  0
LINE
  8
0
 10
-15.927
 20
41.8532
 11
-15.5621
 21
41.9469
  0
LINE
  8
0
 10
-15.5621
 20
41.9469
 11
-15.1884
 21
41.9941
  0
LINE
  8
0
 10
-15.1884
 20
41.9941
 11
-14.8116
 21
41.9941
  0
LINE
  8
0
 10
-14.8116
 20
41.9941
 11
-14.4379
 21
41.9469
  0
LINE
  8
0
 10
-14.4379
 20
41.9469
 11
-14.0729
 21
41.8532
  0
LINE
  8
0
 10
-14.0729
 20
41.8532
 11
-13.7227
 21
41.7145
  0
LINE
  8
0
 10
-13.7227
 20
41.7145
 11
-13.3925
 21
41.533
  0
LINE
  8
0
 10
-13.3925
 20
41.533
 11
-13.0877
 21
41.3116
  0
LINE
  8
0
 10
-13.0877
 20
41.3116
 11
-12.8131
 21
41.0536
  0
LINE
  8
0
 10
-12.8131
 20
41.0536
 11
-12.5729
 21
40.7634
  0
LINE
  8
0
 10
-12.5729
 20
40.7634
 11
-12.3711
 21
40.4453
  0
LINE
  8
0
 10
-12.3711
 20
40.4453
 11
-12.2107
 21
40.1044
  0
LINE
  8
0
 10
-12.2107
 20
40.1044
 11
-12.0942
 21
39.7461
  0
LINE
  8
0
 10
-12.0942
 20
39.7461
 11
-12.0237
 21
39.376
  0
LINE
  8
0
 10
-12.0237
 20
39.376
 11
-12
 21
39
  0
LINE
  8
0
 10
-12
 20
39
 11
-12.0237
 21
38.624
  0
LINE
  8
0
 10
-12.0237
 20
38.624
 11
-12.0942
 21
38.2539
  0
LINE
  8
0
 10
-12.0942
 20
38.2539
 11
-12.2107
 21
37.8956
  0
LINE
  8
0
 10
-12.2107
 20
37.8956
 11
-12.3711
 21
37.5547
  0
LINE
  8
0
 10
-12.3711
 20
37.5547
 11
-12.5729
 21
37.2366
  0
LINE
  8
0
 10
-12.5729
 20
37.2366
 11
-12.8131
 21
36.9464
  0
LINE
  8
0
 10
-12.8131
 20
36.9464
 11
-13.0877
 21
36.6885
  0
LINE
  8
0
 10
-13.0877
 20
36.6885
 11
-13.3925
 21
36.467
  0
LINE
  8
0
 10
-13.3925
 20
36.467
 11
-13.7227
 21
36.2855
  0
LINE
  8
0
 10
-13.7227
 20
36.2855
 11
-14.0729
 21
36.1468
  0
LINE
  8
0
 10
-14.0729
 20
36.1468
 11
-14.4379
 21
36.0531
  0
LINE
  8
0
 10
-14.4379
 20
36.0531
 11
-14.8116
 21
36.0059
  0
LINE
  8
0
 10
-14.8116
 20
36.0059
 11
-15.1884
 21
36.0059
  0
LINE
  8
0
 10
14.8116
 20
36.0059
 11
14.4379
 21
36.0531
  0
LINE
  8
0
 10
14.4379
 20
36.0531
 11
14.0729
 21
36.1468
  0
LINE
  8
0
 10
14.0729
 20
36.1468
 11
13.7227
 21
36.2855
  0
LINE
  8
0
 10
13.7227
 20
36.2855
 11
13.3925
 21
36.467
  0
LINE
  8
0
 10
13.3925
 20
36.467
 11
13.0877
 21
36.6885
  0
LINE
  8
0
 10
13.0877
 20
36.6885
 11
12.8131
 21
36.9464
  0
LINE
  8
0
 10
12.8131
 20
36.9464
 11
12.5729
 21
37.2366
  0
LINE
  8
0
 10
12.5729
 20
37.2366
 11
12.3711
 21
37.5547
  0
LINE
  8
0
 10
12.3711
 20
37.5547
 11
12.2107
 21
37.8956
  0
LINE
  8
0
 10
12.2107
 20
37.8956
 11
12.0942
 21
38.2539
  0
LINE
  8
0
 10
12.0942
 20
38.2539
 11
12.0237
 21
38.624
  0
LINE
  8
0
 10
12.0237
 20
38.624
 11
12
 21
39
  0
LINE
  8
0
 10
12
 20
39
 11
12.0237
 21
39.376
  0
LINE
  8
0
 10
12.0237
 20
39.376
 11
12.0942
 21
39.7461
  0
LINE
  8
0
 10
12.0942
 20
39.7461
 11
12.2107
 21
40.1044
  0
LINE
  8
0
 10
12.2107
 20
40.1044
 11
12.3711
 21
40.4453
  0
LINE
  8
0
 10
12.3711
 20
40.4453
 11
12.5729
 21
40.7634
  0
LINE
  8
0
 10
12.5729
 20
40.7634
 11
12.8131
 21
41.0536
  0
LINE
  8
0
 10
12.8131
 20
41.0536
 11
13.0877
 21
41.3116
  0
LINE
  8
0
 10
13.0877
 20
41.3116
 11
13.3925
 21
41.533
  0
LINE
  8
0
 10
13.3925
 20
41.533
 11
13.7227
 21
41.7145
  0
LINE
  8
0
 10
13.7227
 20
41.7145
 11
14.0729
 21
41.8532
  0
LINE
  8
0
 10
14.0729
 20
41.8532
 11
14.4379
 21
41.9469
  0
LINE
  8
0
 10
14.4379
 20
41.9469
 11
14.8116
 21
41.9941
  0
LINE
  8
0
 10
14.8116
 20
41.9941
 11
15.1884
 21
41.9941
  0
LINE
  8
0
 10
15.1884
 20
41.9941
 11
15.5621
 21
41.9469
  0
LINE
  8
0
 10
15.5621
 20
41.9469
 11
15.927
 21
41.8532
  0
LINE
  8
0
 10
15.927
 20
41.8532
 11
16.2773
 21
41.7145
  0
LINE
  8
0
 10
16.2773
 20
41.7145
 11
16.6075
 21
41.533
  0
LINE
  8
0
 10
16.6075
 20
41.533
 11
16.9123
 21
41.3116
  0
LINE
  8
0
 10
16.9123
 20
41.3116
 11
17.1869
 21
41.0536
  0
LINE
  8
0
 10
17.1869
 20
41.0536
 11
17.427
 21
40.7634
  0
LINE
  8
0
 10
17.427
 20
40.7634
 11
17.6289
 21
40.4453
  0
LINE
  8
0
 10
17.6289
 20
40.4453
 11
17.7893
 21
40.1044
  0
LINE
  8
0
 10
17.7893
 20
40.1044
 11
17.9057
 21
39.7461
  0
LINE
  8
0
 10
17.9057
 20
39.7461
 11
17.9763
 21
39.376
  0
LINE
  8
0
 10
17.9763
 20
39.376
 11
18
 21
39
  0
LINE
  8
0
 10
18
 20
39
 11
17.9763
 21
38.624
  0
LINE
  8
0
 10
17.9763
 20
38.624
 11
17.9057
 21
38.2539
  0
LINE
  8
0
 10
17.9057
 20
38.2539
 11
17.7893
 21
37.8956
  0
LINE
  8
0
 10
17.7893
 20
37.8956
 11
17.6289
 21
37.5547
  0
LINE
  8
0
 10
17.6289
 20
37.5547
 11
17.427
 21
37.2366
  0
LINE
  8
0
 10
17.427
 20
37.2366
 11
17.1869
 21
36.9464
  0
LINE
  8
0
 10
17.1869
 20
36.9464
 11
16.9123
 21
36.6885
  0
LINE
  8
0
 10
16.9123
 20
36.6885
 11
16.6075
 21
36.467
  0
LINE
  8
0
 10
16.6075
 20
36.467
 11
16.2773
 21
36.2855
  0
LINE
  8
0
 10
16.2773
 20
36.2855
 11
15.927
 21
36.1468
  0
LINE
  8
0
 10
15.927
 20
36.1468
 11
15.5621
 21
36.0531
  0
LINE
  8
0
 10
15.5621
 20
36.0531
 11
15.1884
 21
36.0059
  0
LINE
  8
0
 10
15.1884
 20
36.0059
 11
14.8116
 21
36.0059
  0
LINE
  8
0
 10
-0.250153
 20
37.521
 11
-0.433533
 21
37.564
  0
LINE
  8
0
 10
-0.433533
 20
37.564
 11
-0.610092
 21
37.6297
  0
LINE
  8
0
 10
-0.610092
 20
37.6297
 11
-0.777039
 21
37.717
  0
LINE
  8
0
 10
-0.777039
 20
37.717
 11
-0.931717
 21
37.8245
  0
LINE
  8
0
 10
-0.931717
 20
37.8245
 11
-1.0717
 21
37.9505
  0
LINE
  8
0
 10
-1.0717
 20
37.9505
 11
-1.19479
 21
38.0931
  0
LINE
  8
0
 10
-1.19479
 20
38.0931
 11
-1.29903
 21
38.25
  0
LINE
  8
0
 10
-1.29903
 20
38.25
 11
-1.38278
 21
38.4187
  0
LINE
  8
0
 10
-1.38278
 20
38.4187
 11
-1.44473
 21
38.5966
  0
LINE
  8
0
 10
-1.44473
 20
38.5966
 11
-1.4839
 21
38.7809
  0
LINE
  8
0
 10
-1.4839
 20
38.7809
 11
-1.49966
 21
38.9686
  0
LINE
  8
0
 10
-1.49966
 20
38.9686
 11
-1.49178
 21
39.1568
  0
LINE
  8
0
 10
-1.49178
 20
39.1568
 11
-1.46036
 21
39.3425
  0
LINE
  8
0
 10
-1.46036
 20
39.3425
 11
-1.40591
 21
39.5229
  0
LINE
  8
0
 10
-1.40591
 20
39.5229
 11
-1.3293
 21
39.6949
  0
LINE
  8
0
 10
-1.3293
 20
39.6949
 11
-1.23172
 21
39.8561
  0
LINE
  8
0
 10
-1.23172
 20
39.8561
 11
-1.11472
 21
40.0037
  0
LINE
  8
0
 10
-1.11472
 20
40.0037
 11
-0.980118
 21
40.1355
  0
LINE
  8
0
 10
-0.980118
 20
40.1355
 11
-0.830078
 21
40.2494
  0
LINE
  8
0
 10
-0.830078
 20
40.2494
 11
-0.666946
 21
40.3436
  0
LINE
  8
0
 10
-0.666946
 20
40.3436
 11
-0.493286
 21
40.4166
  0
LINE
  8
0
 10
-0.493286
 20
40.4166
 11
-0.311859
 21
40.4672
  0
LINE
  8
0
 10
-0.311859
 20
40.4672
 11
-0.125504
 21
40.4948
  0
LINE
  8
0
 10
-0.125504
 20
40.4948
 11
0.0628052
 21
40.4987
  0
LINE
  8
0
 10
0.0628052
 20
40.4987
 11
0.250153
 21
40.479
  0
LINE
  8
0
 10
0.250153
 20
40.479
 11
0.433533
 21
40.436
  0
LINE
  8
0
 10
0.433533
 20
40.436
 11
0.610092
 21
40.3703
  0
LINE
  8
0
 10
0.610092
 20
40.3703
 11
0.777039
 21
40.2831
  0
LINE
  8
0
 10
0.777039
 20
40.2831
 11
0.931717
 21
40.1756
  0
LINE
  8
0
 10
0.931717
 20
40.1756
 11
1.0717
 21
40.0495
  0
LINE
  8
0
 10
1.0717
 20
40.0495
 11
1.19479
 21
39.9069
  0
LINE
  8
0
 10
1.19479
 20
39.9069
 11
1.29903
 21
39.75
  0
LINE
  8
0
 10
1.29903
 20
39.75
 11
1.38278
 21
39.5813
  0
LINE
  8
0
 10
1.38278
 20
39.5813
 11
1.44473
 21
39.4034
  0
LINE
  8
0
 10
1.44473
 20
39.4034
 11
1.4839
 21
39.2191
  0
LINE
  8
0
 10
1.4839
 20
39.2191
 11
1.49966
 21
39.0314
  0
LINE
  8
0
 10
1.49966
 20
39.0314
 11
1.49178
 21
38.8432
  0
LINE
  8
0
 10
1.49178
 20
38.8432
 11
1.46036
 21
38.6575
  0
LINE
  8
0
 10
1.46036
 20
38.6575
 11
1.40591
 21
38.4771
  0
LINE
  8
0
 10
1.40591
 20
38.4771
 11
1.3293
 21
38.3051
  0
LINE
  8
0
 10
1.3293
 20
38.3051
 11
1.23172
 21
38.1439
  0
LINE
  8
0
 10
1.23172
 20
38.1439
 11
1.11472
 21
37.9963
  0
LINE
  8
0
 10
1.11472
 20
37.9963
 11
0.980118
 21
37.8645
  0
LINE
  8
0
 10
0.980118
 20
37.8645
 11
0.830078
 21
37.7506
  0
LINE
  8
0
 10
0.830078
 20
37.7506
 11
0.666946
 21
37.6564
  0
LINE
  8
0
 10
0.666946
 20
37.6564
 11
0.493286
 21
37.5834
  0
LINE
  8
0
 10
0.493286
 20
37.5834
 11
0.311859
 21
37.5328
  0
LINE
  8
0
 10
0.311859
 20
37.5328
 11
0.125504
 21
37.5053
  0
LINE
  8
0
 10
0.125504
 20
37.5053
 11
-0.0628052
 21
37.5013
  0
LINE
  8
0
 10
-0.0628052
 20
37.5013
 11
-0.250153
 21
37.521
  0
LINE
  8
0
 10
17.9369
 20
-21.9114
 11
18.5451
 21
-21.7553
  0
LINE
  8
0
 10
18.5451
 20
-21.7553
 11
19.1289
 21
-21.5241
  0
LINE
  8
0
 10
19.1289
 20
-21.5241
 11
19.6791
 21
-21.2216
  0
LINE
  8
0
 10
19.6791
 20
-21.2216
 11
20.1871
 21
-20.8526
  0
LINE
  8
0
 10
20.1871
 20
-20.8526
 11
20.6448
 21
-20.4227
  0
LINE
  8
0
 10
20.6448
 20
-20.4227
 11
21.0451
 21
-19.9389
  0
LINE
  8
0
 10
21.0451
 20
-19.9389
 11
21.3815
 21
-19.4088
  0
LINE
  8
0
 10
21.3815
 20
-19.4088
 11
21.6489
 21
-18.8406
  0
LINE
  8
0
 10
21.6489
 20
-18.8406
 11
21.8429
 21
-18.2434
  0
LINE
  8
0
 10
21.8429
 20
-18.2434
 11
21.9606
 21
-17.6267
  0
LINE
  8
0
 10
21.9606
 20
-17.6267
 11
22
 21
-17
  0
LINE
  8
0
 10
22
 20
-17
 11
22
 21
17
  0
LINE
  8
0
 10
22
 20
17
 11
21.9606
 21
17.6267
  0
LINE
  8
0
 10
21.9606
 20
17.6267
 11
21.8429
 21
18.2434
  0
LINE
  8
0
 10
21.8429
 20
18.2434
 11
21.6489
 21
18.8406
  0
LINE
  8
0
 10
21.6489
 20
18.8406
 11
21.3815
 21
19.4088
  0
LINE
  8
0
 10
21.3815
 20
19.4088
 11
21.0451
 21
19.9389
  0
LINE
  8
0
 10
21.0451
 20
19.9389
 11
20.6448
 21
20.4227
  0
LINE
  8
0
 10
20.6448
 20
20.4227
 11
20.1871
 21
20.8526
  0
LINE
  8
0
 10
20.1871
 20
20.8526
 11
19.6791
 21
21.2216
  0
LINE
  8
0
 10
19.6791
 20
21.2216
 11
19.1289
 21
21.5241
  0
LINE
  8
0
 10
19.1289
 20
21.5241
 11
18.5451
 21
21.7553
  0
LINE
  8
0
 10
18.5451
 20
21.7553
 11
17.9369
 21
21.9114
  0
LINE
  8
0
 10
17.9369
 20
21.9114
 11
17.3139
 21
21.9901
  0
LINE
  8
0
 10
17.3139
 20
21.9901
 11
-17.3139
 21
21.9901
  0
LINE
  8
0
 10
-17.3139
 20
21.9901
 11
-17.9369
 21
21.9114
  0
LINE
  8
0
 10
-17.9369
 20
21.9114
 11
-18.5451
 21
21.7553
  0
LINE
  8
0
 10
-18.5451
 20
21.7553
 11
-19.1289
 21
21.5241
  0
LINE
  8
0
 10
-19.1289
 20
21.5241
 11
-19.6791
 21
21.2216
  0
LINE
  8
0
 10
-19.6791
 20
21.2216
 11
-20.1871
 21
20.8526
  0
LINE
  8
0
 10
-20.1871
 20
20.8526
 11
-20.6448
 21
20.4227
  0
LINE
  8
0
 10
-20.6448
 20
20.4227
 11
-21.0451
 21
19.9389
  0
LINE
  8
0
 10
-21.0451
 20
19.9389
 11
-21.3815
 21
19.4088
  0
LINE
  8
0
 10
-21.3815
 20
19.4088
 11
-21.6489
 21
18.8406
  0
LINE
  8
0
 10
-21.6489
 20
18.8406
 11
-21.8429
 21
18.2434
  0
LINE
  8
0
 10
-21.8429
 20
18.2434
 11
-21.9606
 21
17.6267
  0
LINE
  8
0
 10
-21.9606
 20
17.6267
 11
-22
 21
17
  0
LINE
  8
0
 10
-22
 20
17
 11
-22
 21
-17
  0
LINE
  8
0
 10
-22
 20
-17
 11
-21.9606
 21
-17.6267
  0
LINE
  8
0
 10
-21.9606
 20
-17.6267
 11
-21.8429
 21
-18.2434
  0
LINE
  8
0
 10
-21.8429
 20
-18.2434
 11
-21.6489
 21
-18.8406
  0
LINE
  8
0
 10
-21.6489
 20
-18.8406
 11
-21.3815
 21
-19.4088
  0
LINE
  8
0
 10
-21.3815
 20
-19.4088
 11
-21.0451
 21
-19.9389
  0
LINE
  8
0
 10
-21.0451
 20
-19.9389
 11
-20.6448
 21
-20.4227
  0
LINE
  8
0
 10
-20.6448
 20
-20.4227
 11
-20.1871
 21
-20.8526
  0
LINE
  8
0
 10
-20.1871
 20
-20.8526
 11
-19.6791
 21
-21.2216
  0
LINE
  8
0
 10
-19.6791
 20
-21.2216
 11
-19.1289
 21
-21.5241
  0
LINE
  8
0
 10
-19.1289
 20
-21.5241
 11
-18.5451
 21
-21.7553
  0
LINE
  8
0
 10
-18.5451
 20
-21.7553
 11
-17.9369
 21
-21.9114
  0
LINE
  8
0
 10
-17.9369
 20
-21.9114
 11
-17.3139
 21
-21.9901
  0
LINE
  8
0
 10
-17.3139
 20
-21.9901
 11
17.3139
 21
-21.9901
  0
LINE
  8
0
 10
17.3139
 20
-21.9901
 11
17.9369
 21
-21.9114
  0
LINE
  8
0
 10
14.8116
 20
12.0059
 11
14.4379
 21
12.0531
  0
LINE
  8
0
 10
14.4379
 20
12.0531
 11
14.0729
 21
12.1468
  0
LINE
  8
0
 10
14.0729
 20
12.1468
 11
13.7227
 21
12.2855
  0
LINE
  8
0
 10
13.7227
 20
12.2855
 11
13.3925
 21
12.467
  0
LINE
  8
0
 10
13.3925
 20
12.467
 11
13.0877
 21
12.6884
  0
LINE
  8
0
 10
13.0877
 20
12.6884
 11
12.8131
 21
12.9464
  0
LINE
  8
0
 10
12.8131
 20
12.9464
 11
12.5729
 21
13.2366
  0
LINE
  8
0
 10
12.5729
 20
13.2366
 11
12.3711
 21
13.5547
  0
LINE
  8
0
 10
12.3711
 20
13.5547
 11
12.2107
 21
13.8956
  0
LINE
  8
0
 10
12.2107
 20
13.8956
 11
12.0942
 21
14.2539
  0
LINE
  8
0
 10
12.0942
 20
14.2539
 11
12.0237
 21
14.624
  0
LINE
  8
0
 10
12.0237
 20
14.624
 11
12
 21
15
  0
LINE
  8
0
 10
12
 20
15
 11
12.0237
 21
15.376
  0
LINE
  8
0
 10
12.0237
 20
15.376
 11
12.0942
 21
15.7461
  0
LINE
  8
0
 10
12.0942
 20
15.7461
 11
12.2107
 21
16.1044
  0
LINE
  8
0
 10
12.2107
 20
16.1044
 11
12.3711
 21
16.4453
  0
LINE
  8
0
 10
12.3711
 20
16.4453
 11
12.5729
 21
16.7634
  0
LINE
  8
0
 10
12.5729
 20
16.7634
 11
12.8131
 21
17.0536
  0
LINE
  8
0
 10
12.8131
 20
17.0536
 11
13.0877
 21
17.3115
  0
LINE
  8
0
 10
13.0877
 20
17.3115
 11
13.3925
 21
17.533
  0
LINE
  8
0
 10
13.3925
 20
17.533
 11
13.7227
 21
17.7145
  0
LINE
  8
0
 10
13.7227
 20
17.7145
 11
14.0729
 21
17.8532
  0
LINE
  8
0
 10
14.0729
 20
17.8532
 11
14.4379
 21
17.9469
  0
LINE
  8
0
 10
14.4379
 20
17.9469
 11
14.8116
 21
17.9941
  0
LINE
  8
0
 10
14.8116
 20
17.9941
 11
15.1884
 21
17.9941
  0
LINE
  8
0
 10
15.1884
 20
17.9941
 11
15.5621
 21
17.9469
  0
LINE
  8
0
 10
15.5621
 20
17.9469
 11
15.927
 21
17.8532
  0
LINE
  8
0
 10
15.927
 20
17.8532
 11
16.2773
 21
17.7145
  0
LINE
  8
0
 10
16.2773
 20
17.7145
 11
16.6075
 21
17.533
  0
LINE
  8
0
 10
16.6075
 20
17.533
 11
16.9123
 21
17.3115
  0
LINE
  8
0
 10
16.9123
 20
17.3115
 11
17.1869
 21
17.0536
  0
LINE
  8
0
 10
17.1869
 20
17.0536
 11
17.427
 21
16.7634
  0
LINE
  8
0
 10
17.427
 20
16.7634
 11
17.6289
 21
16.4453
  0
LINE
  8
0
 10
17.6289
 20
16.4453
 11
17.7893
 21
16.1044
  0
LINE
  8
0
 10
17.7893
 20
16.1044
 11
17.9057
 21
15.7461
  0
LINE
  8
0
 10
17.9057
 20
15.7461
 11
17.9763
 21
15.376
  0
LINE
  8
0
 10
17.9763
 20
15.376
 11
18
 21
15
  0
LINE
  8
0
 10
18
 20
15
 11
17.9763
 21
14.624
  0
LINE
  8
0
 10
17.9763
 20
14.624
 11
17.9057
 21
14.2539
  0
LINE
  8
0
 10
17.9057
 20
14.2539
 11
17.7893
 21
13.8956
  0
LINE
  8
0
 10
17.7893
 20
13.8956
 11
17.6289
 21
13.5547
  0
LINE
  8
0
 10
17.6289
 20
13.5547
 11
17.427
 21
13.2366
  0
LINE
  8
0
 10
17.427
 20
13.2366
 11
17.1869
 21
12.9464
  0
LINE
  8
0
 10
17.1869
 20
12.9464
 11
16.9123
 21
12.6884
  0
LINE
  8
0
 10
16.9123
 20
12.6884
 11
16.6075
 21
12.467
  0
LINE
  8
0
 10
16.6075
 20
12.467
 11
16.2773
 21
12.2855
  0
LINE
  8
0
 10
16.2773
 20
12.2855
 11
15.927
 21
12.1468
  0
LINE
  8
0
 10
15.927
 20
12.1468
 11
15.5621
 21
12.0531
  0
LINE
  8
0
 10
15.5621
 20
12.0531
 11
15.1884
 21
12.0059
  0
LINE
  8
0
 10
15.1884
 20
12.0059
 11
14.8116
 21
12.0059
  0
LINE
  8
0
 10
-15.1884
 20
12.0059
 11
-15.5621
 21
12.0531
  0
LINE
  8
0
 10
-15.5621
 20
12.0531
 11
-15.927
 21
12.1468
  0
LINE
  8
0
 10
-15.927
 20
12.1468
 11
-16.2773
 21
12.2855
  0
LINE
  8
0
 10
-16.2773
 20
12.2855
 11
-16.6075
 21
12.467
  0
LINE
  8
0
 10
-16.6075
 20
12.467
 11
-16.9123
 21
12.6884
  0
LINE
  8
0
 10
-16.9123
 20
12.6884
 11
-17.1869
 21
12.9464
  0
LINE
  8
0
 10
-17.1869
 20
12.9464
 11
-17.427
 21
13.2366
  0
LINE
  8
0
 10
-17.427
 20
13.2366
 11
-17.6289
 21
13.5547
  0
LINE
  8
0
 10
-17.6289
 20
13.5547
 11
-17.7893
 21
13.8956
  0
LINE
  8
0
 10
-17.7893
 20
13.8956
 11
-17.9057
 21
14.2539
  0
LINE
  8
0
 10
-17.9057
 20
14.2539
 11
-17.9763
 21
14.624
  0
LINE
  8
0
 10
-17.9763
 20
14.624
 11
-18
 21
15
  0
LINE
  8
0
 10
-18
 20
15
 11
-17.9763
 21
15.376
  0
LINE
  8
0
 10
-17.9763
 20
15.376
 11
-17.9057
 21
15.7461
  0
LINE
  8
0
 10
-17.9057
 20
15.7461
 11
-17.7893
 21
16.1044
  0
LINE
  8
0
 10
-17.7893
 20
16.1044
 11
-17.6289
 21
16.4453
  0
LINE
  8
0
 10
-17.6289
 20
16.4453
 11
-17.427
 21
16.7634
  0
LINE
  8
0
 10
-17.427
 20
16.7634
 11
-17.1869
 21
17.0536
  0
LINE
  8
0
 10
-17.1869
 20
17.0536
 11
-16.9123
 21
17.3115
  0
LINE
  8
0
 10
-16.9123
 20
17.3115
 11
-16.6075
 21
17.533
  0
LINE
  8
0
 10
-16.6075
 20
17.533
 11
-16.2773
 21
17.7145
  0
LINE
  8
0
 10
-16.2773
 20
17.7145
 11
-15.927
 21
17.8532
  0
LINE
  8
0
 10
-15.927
 20
17.8532
 11
-15.5621
 21
17.9469
  0
LINE
  8
0
 10
-15.5621
 20
17.9469
 11
-15.1884
 21
17.9941
  0
LINE
  8
0
 10
-15.1884
 20
17.9941
 11
-14.8116
 21
17.9941
  0
LINE
  8
0
 10
-14.8116
 20
17.9941
 11
-14.4379
 21
17.9469
  0
LINE
  8
0
 10
-14.4379
 20
17.9469
 11
-14.0729
 21
17.8532
  0
LINE
  8
0
 10
-14.0729
 20
17.8532
 11
-13.7227
 21
17.7145
  0
LINE
  8
0
 10
-13.7227
 20
17.7145
 11
-13.3925
 21
17.533
  0
LINE
  8
0
 10
-13.3925
 20
17.533
 11
-13.0877
 21
17.3115
  0
LINE
  8
0
 10
-13.0877
 20
17.3115
 11
-12.8131
 21
17.0536
  0
LINE
  8
0
 10
-12.8131
 20
17.0536
 11
-12.5729
 21
16.7634
  0
LINE
  8
0
 10
-12.5729
 20
16.7634
 11
-12.3711
 21
16.4453
  0
LINE
  8
0
 10
-12.3711
 20
16.4453
 11
-12.2107
 21
16.1044
  0
LINE
  8
0
 10
-12.2107
 20
16.1044
 11
-12.0942
 21
15.7461
  0
LINE
  8
0
 10
-12.0942
 20
15.7461
 11
-12.0237
 21
15.376
  0
LINE
  8
0
 10
-12.0237
 20
15.376
 11
-12
 21
15
  0
LINE
  8
0
 10
-12
 20
15
 11
-12.0237
 21
14.624
  0
LINE
  8
0
 10
-12.0237
 20
14.624
 11
-12.0942
 21
14.2539
  0
LINE
  8
0
 10
-12.0942
 20
14.2539
 11
-12.2107
 21
13.8956
  0
LINE
  8
0
 10
-12.2107
 20
13.8956
 11
-12.3711
 21
13.5547
  0
LINE
  8
0
 10
-12.3711
 20
13.5547
 11
-12.5729
 21
13.2366
  0
LINE
  8
0
 10
-12.5729
 20
13.2366
 11
-12.8131
 21
12.9464
  0
LINE
  8
0
 10
-12.8131
 20
12.9464
 11
-13.0877
 21
12.6884
  0
LINE
  8
0
 10
-13.0877
 20
12.6884
 11
-13.3925
 21
12.467
  0
LINE
  8
0
 10
-13.3925
 20
12.467
 11
-13.7227
 21
12.2855
  0
LINE
  8
0
 10
-13.7227
 20
12.2855
 11
-14.0729
 21
12.1468
  0
LINE
  8
0
 10
-14.0729
 20
12.1468
 11
-14.4379
 21
12.0531
  0
LINE
  8
0
 10
-14.4379
 20
12.0531
 11
-14.8116
 21
12.0059
  0
LINE
  8
0
 10
-14.8116
 20
12.0059
 11
-15.1884
 21
12.0059
  0
LINE
  8
0
 10
-0.150696
 20
12.6047
 11
-0.449707
 21
12.6425
  0
LINE
  8
0
 10
-0.449707
 20
12.6425
 11
-0.741638
 21
12.7175
  0
LINE
  8
0
 10
-0.741638
 20
12.7175
 11
-1.02187
 21
12.8284
  0
LINE
  8
0
 10
-1.02187
 20
12.8284
 11
-1.28598
 21
12.9736
  0
LINE
  8
0
 10
-1.28598
 20
12.9736
 11
-1.52982
 21
13.1508
  0
LINE
  8
0
 10
-1.52982
 20
13.1508
 11
-1.74951
 21
13.3571
  0
LINE
  8
0
 10
-1.74951
 20
13.3571
 11
-1.94164
 21
13.5893
  0
LINE
  8
0
 10
-1.94164
 20
13.5893
 11
-2.10313
 21
13.8438
  0
LINE
  8
0
 10
-2.10313
 20
13.8438
 11
-2.23146
 21
14.1165
  0
LINE
  8
0
 10
-2.23146
 20
14.1165
 11
-2.32458
 21
14.4031
  0
LINE
  8
0
 10
-2.32458
 20
14.4031
 11
-2.38107
 21
14.6992
  0
LINE
  8
0
 10
-2.38107
 20
14.6992
 11
-2.39999
 21
15
  0
LINE
  8
0
 10
-2.39999
 20
15
 11
-2.38107
 21
15.3008
  0
LINE
  8
0
 10
-2.38107
 20
15.3008
 11
-2.32458
 21
15.5968
  0
LINE
  8
0
 10
-2.32458
 20
15.5968
 11
-2.23146
 21
15.8835
  0
LINE
  8
0
 10
-2.23146
 20
15.8835
 11
-2.10313
 21
16.1562
  0
LINE
  8
0
 10
-2.10313
 20
16.1562
 11
-1.94164
 21
16.4107
  0
LINE
  8
0
 10
-1.94164
 20
16.4107
 11
-1.74951
 21
16.6429
  0
LINE
  8
0
 10
-1.74951
 20
16.6429
 11
-1.52982
 21
16.8492
  0
LINE
  8
0
 10
-1.52982
 20
16.8492
 11
-1.28598
 21
17.0264
  0
LINE
  8
0
 10
-1.28598
 20
17.0264
 11
-1.02187
 21
17.1716
  0
LINE
  8
0
 10
-1.02187
 20
17.1716
 11
-0.741638
 21
17.2825
  0
LINE
  8
0
 10
-0.741638
 20
17.2825
 11
-0.449707
 21
17.3575
  0
LINE
  8
0
 10
-0.449707
 20
17.3575
 11
-0.150696
 21
17.3953
  0
LINE
  8
0
 10
-0.150696
 20
17.3953
 11
0.150696
 21
17.3953
  0
LINE
  8
0
 10
0.150696
 20
17.3953
 11
0.449707
 21
17.3575
  0
LINE
  8
0
 10
0.449707
 20
17.3575
 11
0.741638
 21
17.2825
  0
LINE
  8
0
 10
0.741638
 20
17.2825
 11
1.02187
 21
17.1716
  0
LINE
  8
0
 10
1.02187
 20
17.1716
 11
1.28598
 21
17.0264
  0
LINE
  8
0
 10
1.28598
 20
17.0264
 11
1.52982
 21
16.8492
  0
LINE
  8
0
 10
1.52982
 20
16.8492
 11
1.74951
 21
16.6429
  0
LINE
  8
0
 10
1.74951
 20
16.6429
 11
1.94164
 21
16.4107
  0
LINE
  8
0
 10
1.94164
 20
16.4107
 11
2.10313
 21
16.1562
  0
LINE
  8
0
 10
2.10313
 20
16.1562
 11
2.23146
 21
15.8835
  0
LINE
  8
0
 10
2.23146
 20
15.8835
 11
2.32458
 21
15.5968
  0
LINE
  8
0
 10
2.32458
 20
15.5968
 11
2.38107
 21
15.3008
  0
LINE
  8
0
 10
2.38107
 20
15.3008
 11
2.39999
 21
15
  0
LINE
  8
0
 10
2.39999
 20
15
 11
2.38107
 21
14.6992
  0
LINE
  8
0
 10
2.38107
 20
14.6992
 11
2.32458
 21
14.4031
  0
LINE
  8
0
 10
2.32458
 20
14.4031
 11
2.23146
 21
14.1165
  0
LINE
  8
0
 10
2.23146
 20
14.1165
 11
2.10313
 21
13.8438
  0
LINE
  8
0
 10
2.10313
 20
13.8438
 11
1.94164
 21
13.5893
  0
LINE
  8
0
 10
1.94164
 20
13.5893
 11
1.74951
 21
13.3571
  0
LINE
  8
0
 10
1.74951
 20
13.3571
 11
1.52982
 21
13.1508
  0
LINE
  8
0
 10
1.52982
 20
13.1508
 11
1.28598
 21
12.9736
  0
LINE
  8
0
 10
1.28598
 20
12.9736
 11
1.02187
 21
12.8284
  0
LINE
  8
0
 10
1.02187
 20
12.8284
 11
0.741638
 21
12.7175
  0
LINE
  8
0
 10
0.741638
 20
12.7175
 11
0.449707
 21
12.6425
  0
LINE
  8
0
 10
0.449707
 20
12.6425
 11
0.150696
 21
12.6047
  0
LINE
  8
0
 10
0.150696
 20
12.6047
 11
-0.150696
 21
12.6047
  0
LINE
  8
0
 10
-0.470917
 20
-7.4852
 11
-1.40535
 21
-7.36714
  0
LINE
  8
0
 10
-1.40535
 20
-7.36714
 11
-2.31763
 21
-7.13292
  0
LINE
  8
0
 10
-2.31763
 20
-7.13292
 11
-3.19334
 21
-6.78619
  0
LINE
  8
0
 10
-3.19334
 20
-6.78619
 11
-4.01869
 21
-6.33246
  0
LINE
  8
0
 10
-4.01869
 20
-6.33246
 11
-4.78067
 21
-5.77884
  0
LINE
  8
0
 10
-4.78067
 20
-5.77884
 11
-5.46725
 21
-5.13409
  0
LINE
  8
0
 10
-5.46725
 20
-5.13409
 11
-6.06763
 21
-4.40839
  0
LINE
  8
0
 10
-6.06763
 20
-4.40839
 11
-6.5723
 21
-3.61314
  0
LINE
  8
0
 10
-6.5723
 20
-3.61314
 11
-6.97331
 21
-2.76093
  0
LINE
  8
0
 10
-6.97331
 20
-2.76093
 11
-7.26436
 21
-1.86517
  0
LINE
  8
0
 10
-7.26436
 20
-1.86517
 11
-7.44086
 21
-0.939987
  0
LINE
  8
0
 10
-7.44086
 20
-0.939987
 11
-7.5
 21
0
  0
LINE
  8
0
 10
-7.5
 20
0
 11
-7.44086
 21
0.939987
  0
LINE
  8
0
 10
-7.44086
 20
0.939987
 11
-7.26436
 21
1.86517
  0
LINE
  8
0
 10
-7.26436
 20
1.86517
 11
-6.97331
 21
2.76093
  0
LINE
  8
0
 10
-6.97331
 20
2.76093
 11
-6.5723
 21
3.61314
  0
LINE
  8
0
 10
-6.5723
 20
3.61314
 11
-6.06763
 21
4.40839
  0
LINE
  8
0
 10
-6.06763
 20
4.40839
 11
-5.46725
 21
5.13409
  0
LINE
  8
0
 10
-5.46725
 20
5.13409
 11
-4.78067
 21
5.77884
  0
LINE
  8
0
 10
-4.78067
 20
5.77884
 11
-4.01869
 21
6.33246
  0
LINE
  8
0
 10
-4.01869
 20
6.33246
 11
-3.19334
 21
6.78619
  0
LINE
  8
0
 10
-3.19334
 20
6.78619
 11
-2.31763
 21
7.13292
  0
LINE
  8
0
 10
-2.31763
 20
7.13292
 11
-1.40535
 21
7.36714
  0
LINE
  8
0
 10
-1.40535
 20
7.36714
 11
-0.470917
 21
7.4852
  0
LINE
  8
0
 10
-0.470917
 20
7.4852
 11
0.470917
 21
7.4852
  0
LINE
  8
0
 10
0.470917
 20
7.4852
 11
1.40535
 21
7.36714
  0
LINE
  8
0
 10
1.40535
 20
7.36714
 11
2.31763
 21
7.13292
  0
LINE
  8
0
 10
2.31763
 20
7.13292
 11
3.19334
 21
6.78619
  0
LINE
  8
0
 10
3.19334
 20
6.78619
 11
4.01869
 21
6.33246
  0
LINE
  8
0
 10
4.01869
 20
6.33246
 11
4.78067
 21
5.77884
  0
LINE
  8
0
 10
4.78067
 20
5.77884
 11
5.46725
 21
5.13409
  0
LINE
  8
0
 10
5.46725
 20
5.13409
 11
6.06763
 21
4.40839
  0
LINE
  8
0
 10
6.06763
 20
4.40839
 11
6.5723
 21
3.61314
  0
LINE
  8
0
 10
6.5723
 20
3.61314
 11
6.97331
 21
2.76093
  0
LINE
  8
0
 10
6.97331
 20
2.76093
 11
7.26436
 21
1.86517
  0
LINE
  8
0
 10
7.26436
 20
1.86517
 11
7.44086
 21
0.939987
  0
LINE
  8
0
 10
7.44086
 20
0.939987
 11
7.5
 21
0
  0
LINE
  8
0
 10
7.5
 20
0
 11
7.44086
 21
-0.939987
  0
LINE
  8
0
 10
7.44086
 20
-0.939987
 11
7.26436
 21
-1.86517
  0
LINE
  8
0
 10
7.26436
 20
-1.86517
 11
6.97331
 21
-2.76093
  0
LINE
  8
0
 10
6.97331
 20
-2.76093
 11
6.5723
 21
-3.61314
  0
LINE
  8
0
 10
6.5723
 20
-3.61314
 11
6.06763
 21
-4.40839
  0
LINE
  8
0
 10
6.06763
 20
-4.40839
 11
5.46725
 21
-5.13409
  0
LINE
  8
0
 10
5.46725
 20
-5.13409
 11
4.78067
 21
-5.77884
  0
LINE
  8
0
 10
4.78067
 20
-5.77884
 11
4.01869
 21
-6.33246
  0
LINE
  8
0
 10
4.01869
 20
-6.33246
 11
3.19334
 21
-6.78619
  0
LINE
  8
0
 10
3.19334
 20
-6.78619
 11
2.31763
 21
-7.13292
  0
LINE
  8
0
 10
2.31763
 20
-7.13292
 11
1.40535
 21
-7.36714
  0
LINE
  8
0
 10
1.40535
 20
-7.36714
 11
0.470917
 21
-7.4852
  0
LINE
  8
0
 10
0.470917
 20
-7.4852
 11
-0.470917
 21
-7.4852
  0
LINE
  8
0
 10
0.749512
 20
-3.92914
 11
1.23605
 21
-3.80421
  0
LINE
  8
0
 10
1.23605
 20
-3.80421
 11
1.70311
 21
-3.61929
  0
LINE
  8
0
 10
1.70311
 20
-3.61929
 11
2.1433
 21
-3.3773
  0
LINE
  8
0
 10
2.1433
 20
-3.3773
 11
2.54968
 21
-3.08205
  0
LINE
  8
0
 10
2.54968
 20
-3.08205
 11
2.91586
 21
-2.73817
  0
LINE
  8
0
 10
2.91586
 20
-2.73817
 11
3.23605
 21
-2.35114
  0
LINE
  8
0
 10
3.23605
 20
-2.35114
 11
3.50522
 21
-1.927
  0
LINE
  8
0
 10
3.50522
 20
-1.927
 11
3.7191
 21
-1.47249
  0
LINE
  8
0
 10
3.7191
 20
-1.47249
 11
3.87433
 21
-0.994751
  0
LINE
  8
0
 10
3.87433
 20
-0.994751
 11
3.96844
 21
-0.501328
  0
LINE
  8
0
 10
3.96844
 20
-0.501328
 11
4
 21
0
  0
LINE
  8
0
 10
4
 20
0
 11
3.96844
 21
0.501328
  0
LINE
  8
0
 10
3.96844
 20
0.501328
 11
3.87433
 21
0.994751
  0
LINE
  8
0
 10
3.87433
 20
0.994751
 11
3.7191
 21
1.47249
  0
LINE
  8
0
 10
3.7191
 20
1.47249
 11
3.50522
 21
1.927
  0
LINE
  8
0
 10
3.50522
 20
1.927
 11
3.23605
 21
2.35114
  0
LINE
  8
0
 10
3.23605
 20
2.35114
 11
2.91586
 21
2.73817
  0
LINE
  8
0
 10
2.91586
 20
2.73817
 11
2.54968
 21
3.08205
  0
LINE
  8
0
 10
2.54968
 20
3.08205
 11
2.1433
 21
3.3773
  0
LINE
  8
0
 10
2.1433
 20
3.3773
 11
1.70311
 21
3.61929
  0
LINE
  8
0
 10
1.70311
 20
3.61929
 11
1.23605
 21
3.80421
  0
LINE
  8
0
 10
1.23605
 20
3.80421
 11
0.749512
 21
3.92914
  0
LINE
  8
0
 10
0.749512
 20
3.92914
 11
0.25116
 21
3.9921
  0
LINE
  8
0
 10
0.25116
 20
3.9921
 11
-0.25116
 21
3.9921
  0
LINE
  8
0
 10
-0.25116
 20
3.9921
 11
-0.749512
 21
3.92914
  0
LINE
  8
0
 10
-0.749512
 20
3.92914
 11
-1.23605
 21
3.80421
  0
LINE
  8
0
 10
-1.23605
 20
3.80421
 11
-1.70311
 21
3.61929
  0
LINE
  8
0
 10
-1.70311
 20
3.61929
 11
-2.1433
 21
3.3773
  0
LINE
  8
0
 10
-2.1433
 20
3.3773
 11
-2.54968
 21
3.08205
  0
LINE
  8
0
 10
-2.54968
 20
3.08205
 11
-2.91586
 21
2.73817
  0
LINE
  8
0
 10
-2.91586
 20
2.73817
 11
-3.23605
 21
2.35114
  0
LINE
  8
0
 10
-3.23605
 20
2.35114
 11
-3.50522
 21
1.927
  0
LINE
  8
0
 10
-3.50522
 20
1.927
 11
-3.7191
 21
1.47249
  0
LINE
  8
0
 10
-3.7191
 20
1.47249
 11
-3.87433
 21
0.994751
  0
LINE
  8
0
 10
-3.87433
 20
0.994751
 11
-3.96844
 21
0.501328
  0
LINE
  8
0
 10
-3.96844
 20
0.501328
 11
-4
 21
0
  0
LINE
  8
0
 10
-4
 20
0
 11
-3.96844
 21
-0.501328
  0
LINE
  8
0
 10
-3.96844
 20
-0.501328
 11
-3.87433
 21
-0.994751
  0
LINE
  8
0
 10
-3.87433
 20
-0.994751
 11
-3.7191
 21
-1.47249
  0
LINE
  8
0
 10
-3.7191
 20
-1.47249
 11
-3.50522
 21
-1.927
  0
LINE
  8
0
 10
-3.50522
 20
-1.927
 11
-3.23605
 21
-2.35114
  0
LINE
  8
0
 10
-3.23605
 20
-2.35114
 11
-2.91586
 21
-2.73817
  0
LINE
  8
0
 10
-2.91586
 20
-2.73817
 11
-2.54968
 21
-3.08205
  0
LINE
  8
0
 10
-2.54968
 20
-3.08205
 11
-2.1433
 21
-3.3773
  0
LINE
  8
0
 10
-2.1433
 20
-3.3773
 11
-1.70311
 21
-3.61929
  0
LINE
  8
0
 10
-1.70311
 20
-3.61929
 11
-1.23605
 21
-3.80421
  0
LINE
  8
0
 10
-1.23605
 20
-3.80421
 11
-0.749512
 21
-3.92914
  0
LINE
  8
0
 10
-0.749512
 20
-3.92914
 11
-0.25116
 21
-3.9921
  0
LINE
  8
0
 10
-0.25116
 20
-3.9921
 11
0.25116
 21
-3.9921
  0
LINE
  8
0
 10
0.25116
 20
-3.9921
 11
0.749512
 21
-3.92914
  0
LINE
  8
0
 10
-0.18837
 20
-2.99408
 11
-0.562134
 21
-2.94685
  0
LINE
  8
0
 10
-0.562134
 20
-2.94685
 11
-0.927048
 21
-2.85316
  0
LINE
  8
0
 10
-0.927048
 20
-2.85316
 11
-1.27733
 21
-2.71448
  0
LINE
  8
0
 10
-1.27733
 20
-2.71448
 11
-1.60747
 21
-2.53297
  0
LINE
  8
0
 10
-1.60747
 20
-2.53297
 11
-1.91226
 21
-2.31154
  0
LINE
  8
0
 10
-1.91226
 20
-2.31154
 11
-2.1869
 21
-2.05363
  0
LINE
  8
0
 10
-2.1869
 20
-2.05363
 11
-2.42705
 21
-1.76335
  0
LINE
  8
0
 10
-2.42705
 20
-1.76335
 11
-2.62891
 21
-1.44525
  0
LINE
  8
0
 10
-2.62891
 20
-1.44525
 11
-2.78932
 21
-1.10437
  0
LINE
  8
0
 10
-2.78932
 20
-1.10437
 11
-2.90575
 21
-0.746063
  0
LINE
  8
0
 10
-2.90575
 20
-0.746063
 11
-2.97633
 21
-0.375992
  0
LINE
  8
0
 10
-2.97633
 20
-0.375992
 11
-3
 21
0
  0
LINE
  8
0
 10
-3
 20
0
 11
-2.97633
 21
0.375992
  0
LINE
  8
0
 10
-2.97633
 20
0.375992
 11
-2.90575
 21
0.746063
  0
LINE
  8
0
 10
-2.90575
 20
0.746063
 11
-2.78932
 21
1.10437
  0
LINE
  8
0
 10
-2.78932
 20
1.10437
 11
-2.62891
 21
1.44525
  0
LINE
  8
0
 10
-2.62891
 20
1.44525
 11
-2.42705
 21
1.76335
  0
LINE
  8
0
 10
-2.42705
 20
1.76335
 11
-2.1869
 21
2.05363
  0
LINE
  8
0
 10
-2.1869
 20
2.05363
 11
-1.91226
 21
2.31154
  0
LINE
  8
0
 10
-1.91226
 20
2.31154
 11
-1.60747
 21
2.53297
  0
LINE
  8
0
 10
-1.60747
 20
2.53297
 11
-1.27733
 21
2.71448
  0
LINE
  8
0
 10
-1.27733
 20
2.71448
 11
-0.927048
 21
2.85316
  0
LINE
  8
0
 10
-0.927048
 20
2.85316
 11
-0.562134
 21
2.94685
  0
LINE
  8
0
 10
-0.562134
 20
2.94685
 11
-0.18837
 21
2.99408
  0
LINE
  8
0
 10
-0.18837
 20
2.99408
 11
0.18837
 21
2.99408
  0
LINE
  8
0
 10
0.18837
 20
2.99408
 11
0.562134
 21
2.94685
  0
LINE
  8
0
 10
0.562134
 20
2.94685
 11
0.927048
 21
2.85316
  0
LINE
  8
0
 10
0.927048
 20
2.85316
 11
1.27733
 21
2.71448
  0
LINE
  8
0
 10
1.27733
 20
2.71448
 11
1.60747
 21
2.53297
  0
LINE
  8
0
 10
1.60747
 20
2.53297
 11
1.91226
 21
2.31154
  0
LINE
  8
0
 10
1.91226
 20
2.31154
 11
2.1869
 21
2.05363
  0
LINE
  8
0
 10
2.1869
 20
2.05363
 11
2.42705
 21
1.76335
  0
LINE
  8
0
 10
2.42705
 20
1.76335
 11
2.62891
 21
1.44525
  0
LINE
  8
0
 10
2.62891
 20
1.44525
 11
2.78932
 21
1.10437
  0
LINE
  8
0
 10
2.78932
 20
1.10437
 11
2.90575
 21
0.746063
  0
LINE
  8
0
 10
2.90575
 20
0.746063
 11
2.97633
 21
0.375992
  0
LINE
  8
0
 10
2.97633
 20
0.375992
 11
3
 21
0
  0
LINE
  8
0
 10
3
 20
0
 11
2.97633
 21
-0.375992
  0
LINE
  8
0
 10
2.97633
 20
-0.375992
 11
2.90575
 21
-0.746063
  0
LINE
  8
0
 10
2.90575
 20
-0.746063
 11
2.78932
 21
-1.10437
  0
LINE
  8
0
 10
2.78932
 20
-1.10437
 11
2.62891
 21
-1.44525
  0
LINE
  8
0
 10
2.62891
 20
-1.44525
 11
2.42705
 21
-1.76335
  0
LINE
  8
0
 10
2.42705
 20
-1.76335
 11
2.1869
 21
-2.05363
  0
LINE
  8
0
 10
2.1869
 20
-2.05363
 11
1.91226
 21
-2.31154
  0
LINE
  8
0
 10
1.91226
 20
-2.31154
 11
1.60747
 21
-2.53297
  0
LINE
  8
0
 10
1.60747
 20
-2.53297
 11
1.27733
 21
-2.71448
  0
LINE
  8
0
 10
1.27733
 20
-2.71448
 11
0.927048
 21
-2.85316
  0
LINE
  8
0
 10
0.927048
 20
-2.85316
 11
0.562134
 21
-2.94685
  0
LINE
  8
0
 10
0.562134
 20
-2.94685
 11
0.18837
 21
-2.99408
  0
LINE
  8
0
 10
0.18837
 20
-2.99408
 11
-0.18837
 21
-2.99408
  0
LINE
  8
0
 10
14.5997
 20
-2.36638
 11
14.3063
 21
-2.29756
  0
LINE
  8
0
 10
14.3063
 20
-2.29756
 11
14.0238
 21
-2.1925
  0
LINE
  8
0
 10
14.0238
 20
-2.1925
 11
13.7567
 21
-2.05287
  0
LINE
  8
0
 10
13.7567
 20
-2.05287
 11
13.5092
 21
-1.88086
  0
LINE
  8
0
 10
13.5092
 20
-1.88086
 11
13.2853
 21
-1.67918
  0
LINE
  8
0
 10
13.2853
 20
-1.67918
 11
13.0883
 21
-1.45103
  0
LINE
  8
0
 10
13.0883
 20
-1.45103
 11
12.9215
 21
-1.2
  0
LINE
  8
0
 10
12.9215
 20
-1.2
 11
12.7875
 21
-0.930023
  0
LINE
  8
0
 10
12.7875
 20
-0.930023
 11
12.6884
 21
-0.645401
  0
LINE
  8
0
 10
12.6884
 20
-0.645401
 11
12.6257
 21
-0.350586
  0
LINE
  8
0
 10
12.6257
 20
-0.350586
 11
12.6005
 21
-0.0502472
  0
LINE
  8
0
 10
12.6005
 20
-0.0502472
 11
12.6131
 21
0.250854
  0
LINE
  8
0
 10
12.6131
 20
0.250854
 11
12.6634
 21
0.548035
  0
LINE
  8
0
 10
12.6634
 20
0.548035
 11
12.7505
 21
0.836563
  0
LINE
  8
0
 10
12.7505
 20
0.836563
 11
12.8731
 21
1.11191
  0
LINE
  8
0
 10
12.8731
 20
1.11191
 11
13.0292
 21
1.36971
  0
LINE
  8
0
 10
13.0292
 20
1.36971
 11
13.2164
 21
1.60591
  0
LINE
  8
0
 10
13.2164
 20
1.60591
 11
13.4318
 21
1.81679
  0
LINE
  8
0
 10
13.4318
 20
1.81679
 11
13.6719
 21
1.99901
  0
LINE
  8
0
 10
13.6719
 20
1.99901
 11
13.9329
 21
2.1497
  0
LINE
  8
0
 10
13.9329
 20
2.1497
 11
14.2107
 21
2.26649
  0
LINE
  8
0
 10
14.2107
 20
2.26649
 11
14.501
 21
2.34755
  0
LINE
  8
0
 10
14.501
 20
2.34755
 11
14.7992
 21
2.39157
  0
LINE
  8
0
 10
14.7992
 20
2.39157
 11
15.1005
 21
2.39789
  0
LINE
  8
0
 10
15.1005
 20
2.39789
 11
15.4002
 21
2.36638
  0
LINE
  8
0
 10
15.4002
 20
2.36638
 11
15.6937
 21
2.29756
  0
LINE
  8
0
 10
15.6937
 20
2.29756
 11
15.9762
 21
2.1925
  0
LINE
  8
0
 10
15.9762
 20
2.1925
 11
16.2433
 21
2.05287
  0
LINE
  8
0
 10
16.2433
 20
2.05287
 11
16.4908
 21
1.88086
  0
LINE
  8
0
 10
16.4908
 20
1.88086
 11
16.7147
 21
1.67918
  0
LINE
  8
0
 10
16.7147
 20
1.67918
 11
16.9117
 21
1.45103
  0
LINE
  8
0
 10
16.9117
 20
1.45103
 11
17.0785
 21
1.2
  0
LINE
  8
0
 10
17.0785
 20
1.2
 11
17.2125
 21
0.930023
  0
LINE
  8
0
 10
17.2125
 20
0.930023
 11
17.3116
 21
0.645401
  0
LINE
  8
0
 10
17.3116
 20
0.645401
 11
17.3743
 21
0.350586
  0
LINE
  8
0
 10
17.3743
 20
0.350586
 11
17.3995
 21
0.0502472
  0
LINE
  8
0
 10
17.3995
 20
0.0502472
 11
17.3868
 21
-0.250854
  0
LINE
  8
0
 10
17.3868
 20
-0.250854
 11
17.3366
 21
-0.548035
  0
LINE
  8
0
 10
17.3366
 20
-0.548035
 11
17.2495
 21
-0.836563
  0
LINE
  8
0
 10
17.2495
 20
-0.836563
 11
17.1269
 21
-1.11191
  0
LINE
  8
0
 10
17.1269
 20
-1.11191
 11
16.9707
 21
-1.36971
  0
LINE
  8
0
 10
16.9707
 20
-1.36971
 11
16.7835
 21
-1.60591
  0
LINE
  8
0
 10
16.7835
 20
-1.60591
 11
16.5682
 21
-1.81679
  0
LINE
  8
0
 10
16.5682
 20
-1.81679
 11
16.3281
 21
-1.99901
  0
LINE
  8
0
 10
16.3281
 20
-1.99901
 11
16.0671
 21
-2.1497
  0
LINE
  8
0
 10
16.0671
 20
-2.1497
 11
15.7893
 21
-2.26649
  0
LINE
  8
0
 10
15.7893
 20
-2.26649
 11
15.499
 21
-2.34755
  0
LINE
  8
0
 10
15.499
 20
-2.34755
 11
15.2008
 21
-2.39157
  0
LINE
  8
0
 10
15.2008
 20
-2.39157
 11
14.8995
 21
-2.39789
  0
LINE
  8
0
 10
14.8995
 20
-2.39789
 11
14.5997
 21
-2.36638
  0
LINE
  8
0
 10
-15.1507
 20
-2.39526
 11
-15.4497
 21
-2.35748
  0
LINE
  8
0
 10
-15.4497
 20
-2.35748
 11
-15.7416
 21
-2.28253
  0
LINE
  8
0
 10
-15.7416
 20
-2.28253
 11
-16.0219
 21
-2.17157
  0
LINE
  8
0
 10
-16.0219
 20
-2.17157
 11
-16.286
 21
-2.02638
  0
LINE
  8
0
 10
-16.286
 20
-2.02638
 11
-16.5298
 21
-1.84923
  0
LINE
  8
0
 10
-16.5298
 20
-1.84923
 11
-16.7495
 21
-1.6429
  0
LINE
  8
0
 10
-16.7495
 20
-1.6429
 11
-16.9416
 21
-1.41068
  0
LINE
  8
0
 10
-16.9416
 20
-1.41068
 11
-17.1031
 21
-1.1562
  0
LINE
  8
0
 10
-17.1031
 20
-1.1562
 11
-17.2315
 21
-0.883484
  0
LINE
  8
0
 10
-17.2315
 20
-0.883484
 11
-17.3246
 21
-0.596848
  0
LINE
  8
0
 10
-17.3246
 20
-0.596848
 11
-17.3811
 21
-0.300797
  0
LINE
  8
0
 10
-17.3811
 20
-0.300797
 11
-17.4
 21
0
  0
LINE
  8
0
 10
-17.4
 20
0
 11
-17.3811
 21
0.300797
  0
LINE
  8
0
 10
-17.3811
 20
0.300797
 11
-17.3246
 21
0.596848
  0
LINE
  8
0
 10
-17.3246
 20
0.596848
 11
-17.2315
 21
0.883484
  0
LINE
  8
0
 10
-17.2315
 20
0.883484
 11
-17.1031
 21
1.1562
  0
LINE
  8
0
 10
-17.1031
 20
1.1562
 11
-16.9416
 21
1.41068
  0
LINE
  8
0
 10
-16.9416
 20
1.41068
 11
-16.7495
 21
1.6429
  0
LINE
  8
0
 10
-16.7495
 20
1.6429
 11
-16.5298
 21
1.84923
  0
LINE
  8
0
 10
-16.5298
 20
1.84923
 11
-16.286
 21
2.02638
  0
LINE
  8
0
 10
-16.286
 20
2.02638
 11
-16.0219
 21
2.17157
  0
LINE
  8
0
 10
-16.0219
 20
2.17157
 11
-15.7416
 21
2.28253
  0
LINE
  8
0
 10
-15.7416
 20
2.28253
 11
-15.4497
 21
2.35748
  0
LINE
  8
0
 10
-15.4497
 20
2.35748
 11
-15.1507
 21
2.39526
  0
LINE
  8
0
 10
-15.1507
 20
2.39526
 11
-14.8493
 21
2.39526
  0
LINE
  8
0
 10
-14.8493
 20
2.39526
 11
-14.5503
 21
2.35748
  0
LINE
  8
0
 10
-14.5503
 20
2.35748
 11
-14.2583
 21
2.28253
  0
LINE
  8
0
 10
-14.2583
 20
2.28253
 11
-13.9781
 21
2.17157
  0
LINE
  8
0
 10
-13.9781
 20
2.17157
 11
-13.714
 21
2.02638
  0
LINE
  8
0
 10
-13.714
 20
2.02638
 11
-13.4702
 21
1.84923
  0
LINE
  8
0
 10
-13.4702
 20
1.84923
 11
-13.2505
 21
1.6429
  0
LINE
  8
0
 10
-13.2505
 20
1.6429
 11
-13.0583
 21
1.41068
  0
LINE
  8
0
 10
-13.0583
 20
1.41068
 11
-12.8969
 21
1.1562
  0
LINE
  8
0
 10
-12.8969
 20
1.1562
 11
-12.7685
 21
0.883484
  0
LINE
  8
0
 10
-12.7685
 20
0.883484
 11
-12.6754
 21
0.596848
  0
LINE
  8
0
 10
-12.6754
 20
0.596848
 11
-12.6189
 21
0.300797
  0
LINE
  8
0
 10
-12.6189
 20
0.300797
 11
-12.6
 21
0
  0
LINE
  8
0
 10
-12.6
 20
0
 11
-12.6189
 21
-0.300797
  0
LINE
  8
0
 10
-12.6189
 20
-0.300797
 11
-12.6754
 21
-0.596848
  0
LINE
  8
0
 10
-12.6754
 20
-0.596848
 11
-12.7685
 21
-0.883484
  0
LINE
  8
0
 10
-12.7685
 20
-0.883484
 11
-12.8969
 21
-1.1562
  0
LINE
  8
0
 10
-12.8969
 20
-1.1562
 11
-13.0583
 21
-1.41068
  0
LINE
  8
0
 10
-13.0583
 20
-1.41068
 11
-13.2505
 21
-1.6429
  0
LINE
  8
0
 10
-13.2505
 20
-1.6429
 11
-13.4702
 21
-1.84923
  0
LINE
  8
0
 10
-13.4702
 20
-1.84923
 11
-13.714
 21
-2.02638
  0
LINE
  8
0
 10
-13.714
 20
-2.02638
 11
-13.9781
 21
-2.17157
  0
LINE
  8
0
 10
-13.9781
 20
-2.17157
 11
-14.2583
 21
-2.28253
  0
LINE
  8
0
 10
-14.2583
 20
-2.28253
 11
-14.5503
 21
-2.35748
  0
LINE
  8
0
 10
-14.5503
 20
-2.35748
 11
-14.8493
 21
-2.39526
  0
LINE
  8
0
 10
-14.8493
 20
-2.39526
 11
-15.1507
 21
-2.39526
  0
LINE
  8
0
 10
14.8116
 20
-17.9941
 11
14.4379
 21
-17.9469
  0
LINE
  8
0
 10
14.4379
 20
-17.9469
 11
14.0729
 21
-17.8532
  0
LINE
  8
0
 10
14.0729
 20
-17.8532
 11
13.7227
 21
-17.7145
  0
LINE
  8
0
 10
13.7227
 20
-17.7145
 11
13.3925
 21
-17.533
  0
LINE
  8
0
 10
13.3925
 20
-17.533
 11
13.0877
 21
-17.3115
  0
LINE
  8
0
 10
13.0877
 20
-17.3115
 11
12.8131
 21
-17.0536
  0
LINE
  8
0
 10
12.8131
 20
-17.0536
 11
12.5729
 21
-16.7634
  0
LINE
  8
0
 10
12.5729
 20
-16.7634
 11
12.3711
 21
-16.4453
  0
LINE
  8
0
 10
12.3711
 20
-16.4453
 11
12.2107
 21
-16.1044
  0
LINE
  8
0
 10
12.2107
 20
-16.1044
 11
12.0942
 21
-15.7461
  0
LINE
  8
0
 10
12.0942
 20
-15.7461
 11
12.0237
 21
-15.376
  0
LINE
  8
0
 10
12.0237
 20
-15.376
 11
12
 21
-15
  0
LINE
  8
0
 10
12
 20
-15
 11
12.0237
 21
-14.624
  0
LINE
  8
0
 10
12.0237
 20
-14.624
 11
12.0942
 21
-14.2539
  0
LINE
  8
0
 10
12.0942
 20
-14.2539
 11
12.2107
 21
-13.8956
  0
LINE
  8
0
 10
12.2107
 20
-13.8956
 11
12.3711
 21
-13.5547
  0
LINE
  8
0
 10
12.3711
 20
-13.5547
 11
12.5729
 21
-13.2366
  0
LINE
  8
0
 10
12.5729
 20
-13.2366
 11
12.8131
 21
-12.9464
  0
LINE
  8
0
 10
12.8131
 20
-12.9464
 11
13.0877
 21
-12.6884
  0
LINE
  8
0
 10
13.0877
 20
-12.6884
 11
13.3925
 21
-12.467
  0
LINE
  8
0
 10
13.3925
 20
-12.467
 11
13.7227
 21
-12.2855
  0
LINE
  8
0
 10
13.7227
 20
-12.2855
 11
14.0729
 21
-12.1468
  0
LINE
  8
0
 10
14.0729
 20
-12.1468
 11
14.4379
 21
-12.0531
  0
LINE
  8
0
 10
14.4379
 20
-12.0531
 11
14.8116
 21
-12.0059
  0
LINE
  8
0
 10
14.8116
 20
-12.0059
 11
15.1884
 21
-12.0059
  0
LINE
  8
0
 10
15.1884
 20
-12.0059
 11
15.5621
 21
-12.0531
  0
LINE
  8
0
 10
15.5621
 20
-12.0531
 11
15.927
 21
-12.1468
  0
LINE
  8
0
 10
15.927
 20
-12.1468
 11
16.2773
 21
-12.2855
  0
LINE
  8
0
 10
16.2773
 20
-12.2855
 11
16.6075
 21
-12.467
  0
LINE
  8
0
 10
16.6075
 20
-12.467
 11
16.9123
 21
-12.6884
  0
LINE
  8
0
 10
16.9123
 20
-12.6884
 11
17.1869
 21
-12.9464
  0
LINE
  8
0
 10
17.1869
 20
-12.9464
 11
17.427
 21
-13.2366
  0
LINE
  8
0
 10
17.427
 20
-13.2366
 11
17.6289
 21
-13.5547
  0
LINE
  8
0
 10
17.6289
 20
-13.5547
 11
17.7893
 21
-13.8956
  0
LINE
  8
0
 10
17.7893
 20
-13.8956
 11
17.9057
 21
-14.2539
  0
LINE
  8
0
 10
17.9057
 20
-14.2539
 11
17.9763
 21
-14.624
  0
LINE
  8
0
 10
17.9763
 20
-14.624
 11
18
 21
-15
  0
LINE
  8
0
 10
18
 20
-15
 11
17.9763
 21
-15.376
  0
LINE
  8
0
 10
17.9763
 20
-15.376
 11
17.9057
 21
-15.7461
  0
LINE
  8
0
 10
17.9057
 20
-15.7461
 11
17.7893
 21
-16.1044
  0
LINE
  8
0
 10
17.7893
 20
-16.1044
 11
17.6289
 21
-16.4453
  0
LINE
  8
0
 10
17.6289
 20
-16.4453
 11
17.427
 21
-16.7634
  0
LINE
  8
0
 10
17.427
 20
-16.7634
 11
17.1869
 21
-17.0536
  0
LINE
  8
0
 10
17.1869
 20
-17.0536
 11
16.9123
 21
-17.3115
  0
LINE
  8
0
 10
16.9123
 20
-17.3115
 11
16.6075
 21
-17.533
  0
LINE
  8
0
 10
16.6075
 20
-17.533
 11
16.2773
 21
-17.7145
  0
LINE
  8
0
 10
16.2773
 20
-17.7145
 11
15.927
 21
-17.8532
  0
LINE
  8
0
 10
15.927
 20
-17.8532
 11
15.5621
 21
-17.9469
  0
LINE
  8
0
 10
15.5621
 20
-17.9469
 11
15.1884
 21
-17.9941
  0
LINE
  8
0
 10
15.1884
 20
-17.9941
 11
14.8116
 21
-17.9941
  0
LINE
  8
0
 10
-15.1884
 20
-17.9941
 11
-15.5621
 21
-17.9469
  0
LINE
  8
0
 10
-15.5621
 20
-17.9469
 11
-15.927
 21
-17.8532
  0
LINE
  8
0
 10
-15.927
 20
-17.8532
 11
-16.2773
 21
-17.7145
  0
LINE
  8
0
 10
-16.2773
 20
-17.7145
 11
-16.6075
 21
-17.533
  0
LINE
  8
0
 10
-16.6075
 20
-17.533
 11
-16.9123
 21
-17.3115
  0
LINE
  8
0
 10
-16.9123
 20
-17.3115
 11
-17.1869
 21
-17.0536
  0
LINE
  8
0
 10
-17.1869
 20
-17.0536
 11
-17.427
 21
-16.7634
  0
LINE
  8
0
 10
-17.427
 20
-16.7634
 11
-17.6289
 21
-16.4453
  0
LINE
  8
0
 10
-17.6289
 20
-16.4453
 11
-17.7893
 21
-16.1044
  0
LINE
  8
0
 10
-17.7893
 20
-16.1044
 11
-17.9057
 21
-15.7461
  0
LINE
  8
0
 10
-17.9057
 20
-15.7461
 11
-17.9763
 21
-15.376
  0
LINE
  8
0
 10
-17.9763
 20
-15.376
 11
-18
 21
-15
  0
LINE
  8
0
 10
-18
 20
-15
 11
-17.9763
 21
-14.624
  0
LINE
  8
0
 10
-17.9763
 20
-14.624
 11
-17.9057
 21
-14.2539
  0
LINE
  8
0
 10
-17.9057
 20
-14.2539
 11
-17.7893
 21
-13.8956
  0
LINE
  8
0
 10
-17.7893
 20
-13.8956
 11
-17.6289
 21
-13.5547
  0
LINE
  8
0
 10
-17.6289
 20
-13.5547
 11
-17.427
 21
-13.2366
  0
LINE
  8
0
 10
-17.427
 20
-13.2366
 11
-17.1869
 21
-12.9464
  0
LINE
  8
0
 10
-17.1869
 20
-12.9464
 11
-16.9123
 21
-12.6884
  0
LINE
  8
0
 10
-16.9123
 20
-12.6884
 11
-16.6075
 21
-12.467
  0
LINE
  8
0
 10
-16.6075
 20
-12.467
 11
-16.2773
 21
-12.2855
  0
LINE
  8
0
 10
-16.2773
 20
-12.2855
 11
-15.927
 21
-12.1468
  0
LINE
  8
0
 10
-15.927
 20
-12.1468
 11
-15.5621
 21
-12.0531
  0
LINE
  8
0
 10
-15.5621
 20
-12.0531
 11
-15.1884
 21
-12.0059
  0
LINE
  8
0
 10
-15.1884
 20
-12.0059
 11
-14.8116
 21
-12.0059
  0
LINE
  8
0
 10
-14.8116
 20
-12.0059
 11
-14.4379
 21
-12.0531
  0
LINE
  8
0
 10
-14.4379
 20
-12.0531
 11
-14.0729
 21
-12.1468
  0
LINE
  8
0
 10
-14.0729
 20
-12.1468
 11
-13.7227
 21
-12.2855
  0
LINE
  8
0
 10
-13.7227
 20
-12.2855
 11
-13.3925
 21
-12.467
  0
LINE
  8
0
 10
-13.3925
 20
-12.467
 11
-13.0877
 21
-12.6884
  0
LINE
  8
0
 10
-13.0877
 20
-12.6884
 11
-12.8131
 21
-12.9464
  0
LINE
  8
0
 10
-12.8131
 20
-12.9464
 11
-12.5729
 21
-13.2366
  0
LINE
  8
0
 10
-12.5729
 20
-13.2366
 11
-12.3711
 21
-13.5547
  0
LINE
  8
0
 10
-12.3711
 20
-13.5547
 11
-12.2107
 21
-13.8956
  0
LINE
  8
0
 10
-12.2107
 20
-13.8956
 11
-12.0942
 21
-14.2539
  0
LINE
  8
0
 10
-12.0942
 20
-14.2539
 11
-12.0237
 21
-14.624
  0
LINE
  8
0
 10
-12.0237
 20
-14.624
 11
-12
 21
-15
  0
LINE
  8
0
 10
-12
 20
-15
 11
-12.0237
 21
-15.376
  0
LINE
  8
0
 10
-12.0237
 20
-15.376
 11
-12.0942
 21
-15.7461
  0
LINE
  8
0
 10
-12.0942
 20
-15.7461
 11
-12.2107
 21
-16.1044
  0
LINE
  8
0
 10
-12.2107
 20
-16.1044
 11
-12.3711
 21
-16.4453
  0
LINE
  8
0
 10
-12.3711
 20
-16.4453
 11
-12.5729
 21
-16.7634
  0
LINE
  8
0
 10
-12.5729
 20
-16.7634
 11
-12.8131
 21
-17.0536
  0
LINE
  8
0
 10
-12.8131
 20
-17.0536
 11
-13.0877
 21
-17.3115
  0
LINE
  8
0
 10
-13.0877
 20
-17.3115
 11
-13.3925
 21
-17.533
  0
LINE
  8
0
 10
-13.3925
 20
-17.533
 11
-13.7227
 21
-17.7145
  0
LINE
  8
0
 10
-13.7227
 20
-17.7145
 11
-14.0729
 21
-17.8532
  0
LINE
  8
0
 10
-14.0729
 20
-17.8532
 11
-14.4379
 21
-17.9469
  0
LINE
  8
0
 10
-14.4379
 20
-17.9469
 11
-14.8116
 21
-17.9941
  0
LINE
  8
0
 10
-14.8116
 20
-17.9941
 11
-15.1884
 21
-17.9941
  0
LINE
  8
0
 10
-0.400238
 20
-17.3664
 11
-0.693665
 21
-17.2976
  0
LINE
  8
0
 10
-0.693665
 20
-17.2976
 11
-0.976166
 21
-17.1925
  0
LINE
  8
0
 10
-0.976166
 20
-17.1925
 11
-1.24326
 21
-17.0529
  0
LINE
  8
0
 10
-1.24326
 20
-17.0529
 11
-1.49075
 21
-16.8809
  0
LINE
  8
0
 10
-1.49075
 20
-16.8809
 11
-1.71472
 21
-16.6792
  0
LINE
  8
0
 10
-1.71472
 20
-16.6792
 11
-1.91167
 21
-16.451
  0
LINE
  8
0
 10
-1.91167
 20
-16.451
 11
-2.07846
 21
-16.2
  0
LINE
  8
0
 10
-2.07846
 20
-16.2
 11
-2.21246
 21
-15.93
  0
LINE
  8
0
 10
-2.21246
 20
-15.93
 11
-2.31158
 21
-15.6454
  0
LINE
  8
0
 10
-2.31158
 20
-15.6454
 11
-2.37425
 21
-15.3506
  0
LINE
  8
0
 10
-2.37425
 20
-15.3506
 11
-2.39946
 21
-15.0502
  0
LINE
  8
0
 10
-2.39946
 20
-15.0502
 11
-2.38684
 21
-14.7491
  0
LINE
  8
0
 10
-2.38684
 20
-14.7491
 11
-2.33658
 21
-14.452
  0
LINE
  8
0
 10
-2.33658
 20
-14.452
 11
-2.24947
 21
-14.1634
  0
LINE
  8
0
 10
-2.24947
 20
-14.1634
 11
-2.12688
 21
-13.8881
  0
LINE
  8
0
 10
-2.12688
 20
-13.8881
 11
-1.97075
 21
-13.6303
  0
LINE
  8
0
 10
-1.97075
 20
-13.6303
 11
-1.78354
 21
-13.3941
  0
LINE
  8
0
 10
-1.78354
 20
-13.3941
 11
-1.56821
 21
-13.1832
  0
LINE
  8
0
 10
-1.56821
 20
-13.1832
 11
-1.32812
 21
-13.001
  0
LINE
  8
0
 10
-1.32812
 20
-13.001
 11
-1.06712
 21
-12.8503
  0
LINE
  8
0
 10
-1.06712
 20
-12.8503
 11
-0.789276
 21
-12.7335
  0
LINE
  8
0
 10
-0.789276
 20
-12.7335
 11
-0.498978
 21
-12.6524
  0
LINE
  8
0
 10
-0.498978
 20
-12.6524
 11
-0.200821
 21
-12.6084
  0
LINE
  8
0
 10
-0.200821
 20
-12.6084
 11
0.100494
 21
-12.6021
  0
LINE
  8
0
 10
0.100494
 20
-12.6021
 11
0.400238
 21
-12.6336
  0
LINE
  8
0
 10
0.400238
 20
-12.6336
 11
0.693665
 21
-12.7024
  0
LINE
  8
0
 10
0.693665
 20
-12.7024
 11
0.976166
 21
-12.8075
  0
LINE
  8
0
 10
0.976166
 20
-12.8075
 11
1.24326
 21
-12.9471
  0
LINE
  8
0
 10
1.24326
 20
-12.9471
 11
1.49075
 21
-13.1191
  0
LINE
  8
0
 10
1.49075
 20
-13.1191
 11
1.71472
 21
-13.3208
  0
LINE
  8
0
 10
1.71472
 20
-13.3208
 11
1.91167
 21
-13.549
  0
LINE
  8
0
 10
1.91167
 20
-13.549
 11
2.07846
 21
-13.8
  0
LINE
  8
0
 10
2.07846
 20
-13.8
 11
2.21246
 21
-14.07
  0
LINE
  8
0
 10
2.21246
 20
-14.07
 11
2.31158
 21
-14.3546
  0
LINE
  8
0
 10
2.31158
 20
-14.3546
 11
2.37425
 21
-14.6494
  0
LINE
  8
0
 10
2.37425
 20
-14.6494
 11
2.39946
 21
-14.9497
  0
LINE
  8
0
 10
2.39946
 20
-14.9497
 11
2.38684
 21
-15.2509
  0
LINE
  8
0
 10
2.38684
 20
-15.2509
 11
2.33658
 21
-15.548
  0
LINE
  8
0
 10
2.33658
 20
-15.548
 11
2.24947
 21
-15.8366
  0
LINE
  8
0
 10
2.24947
 20
-15.8366
 11
2.12688
 21
-16.1119
  0
LINE
  8
0
 10
2.12688
 20
-16.1119
 11
1.97075
 21
-16.3697
  0
LINE
  8
0
 10
1.97075
 20
-16.3697
 11
1.78354
 21
-16.6059
  0
LINE
  8
0
 10
1.78354
 20
-16.6059
 11
1.56821
 21
-16.8168
  0
LINE
  8
0
 10
1.56821
 20
-16.8168
 11
1.32812
 21
-16.999
  0
LINE
  8
0
 10
1.32812
 20
-16.999
 11
1.06712
 21
-17.1497
  0
LINE
  8
0
 10
1.06712
 20
-17.1497
 11
0.789276
 21
-17.2665
  0
LINE
  8
0
 10
0.789276
 20
-17.2665
 11
0.498978
 21
-17.3475
  0
LINE
  8
0
 10
0.498978
 20
-17.3475
 11
0.200821
 21
-17.3916
  0
LINE
  8
0
 10
0.200821
 20
-17.3916
 11
-0.100494
 21
-17.3979
  0
LINE
  8
0
 10
-0.100494
 20
-17.3979
 11
-0.400238
 21
-17.3664
  0
ENDSEC
  0
SECTION
  2
OBJECTS
  0
DICTIONARY
  0
ENDSEC
  0
EOF
