<?xml version="1.0" standalone="no"?>
<!DOCTYPE svg PUBLIC "-//W3C//DTD SVG 1.1//EN" "http://www.w3.org/Graphics/SVG/1.1/DTD/svg11.dtd">
<svg width="44mm" height="206mm" viewBox="-22 -184 44 206" xmlns="http://www.w3.org/2000/svg" version="1.1">
<title>OpenSCAD Model</title>
<path d="
M 17.9369,-140.089 L 18.5451,-140.245 L 19.1289,-140.476 L 19.6791,-140.778 L 20.1871,-141.147 L 20.6448,-141.577
 L 21.0451,-142.061 L 21.3815,-142.591 L 21.6489,-143.159 L 21.8429,-143.757 L 21.9606,-144.373 L 22,-145
 L 22,-179 L 21.9606,-179.627 L 21.8429,-180.243 L 21.6489,-180.841 L 21.3815,-181.409 L 21.0451,-181.939
 L 20.6448,-182.423 L 20.1871,-182.853 L 19.6791,-183.222 L 19.1289,-183.524 L 18.5451,-183.755 L 17.9369,-183.911
 L 17.3139,-183.99 L -17.3139,-183.99 L -17.9369,-183.911 L -18.5451,-183.755 L -19.1289,-183.524 L -19.6791,-183.222
 L -20.1871,-182.853 L -20.6448,-182.423 L -21.0451,-181.939 L -21.3815,-181.409 L -21.6489,-180.841 L -21.8429,-180.243
 L -21.9606,-179.627 L -22,-179 L -22,-145 L -21.9606,-144.373 L -21.8429,-143.757 L -21.6489,-143.159
 L -21.3815,-142.591 L -21.0451,-142.061 L -20.6448,-141.577 L -20.1871,-141.147 L -19.6791,-140.778 L -19.1289,-140.476
 L -18.5451,-140.245 L -17.9369,-140.089 L -17.3139,-140.01 L 17.3139,-140.01 z
M -15.1884,-174.006 L -15.5621,-174.053 L -15.927,-174.147 L -16.2773,-174.286 L -16.6075,-174.467 L -16.9123,-174.688
 L -17.1869,-174.946 L -17.427,-175.237 L -17.6289,-175.555 L -17.7893,-175.896 L -17.9057,-176.254 L -17.9763,-176.624
 L -18,-177 L -17.9763,-177.376 L -17.9057,-177.746 L -17.7893,-178.104 L -17.6289,-178.445 L -17.427,-178.763
 L -17.1869,-179.054 L -16.9123,-179.312 L -16.6075,-179.533 L -16.2773,-179.714 L -15.927,-179.853 L -15.5621,-179.947
 L -15.1884,-179.994 L -14.8116,-179.994 L -14.4379,-179.947 L -14.0729,-179.853 L -13.7227,-179.714 L -13.3925,-179.533
 L -13.0877,-179.312 L -12.8131,-179.054 L -12.5729,-178.763 L -12.3711,-178.445 L -12.2107,-178.104 L -12.0942,-177.746
 L -12.0237,-177.376 L -12,-177 L -12.0237,-176.624 L -12.0942,-176.254 L -12.2107,-175.896 L -12.3711,-175.555
 L -12.5729,-175.237 L -12.8131,-174.946 L -13.0877,-174.688 L -13.3925,-174.467 L -13.7227,-174.286 L -14.0729,-174.147
 L -14.4379,-174.053 L -14.8116,-174.006 z
M 14.8116,-174.006 L 14.4379,-174.053 L 14.0729,-174.147 L 13.7227,-174.286 L 13.3925,-174.467 L 13.0877,-174.688
 L 12.8131,-174.946 L 12.5729,-175.237 L 12.3711,-175.555 L 12.2107,-175.896 L 12.0942,-176.254 L 12.0237,-176.624
 L 12,-177 L 12.0237,-177.376 L 12.0942,-177.746 L 12.2107,-178.104 L 12.3711,-178.445 L 12.5729,-178.763
 L 12.8131,-179.054 L 13.0877,-179.312 L 13.3925,-179.533 L 13.7227,-179.714 L 14.0729,-179.853 L 14.4379,-179.947
 L 14.8116,-179.994 L 15.1884,-179.994 L 15.5621,-179.947 L 15.927,-179.853 L 16.2773,-179.714 L 16.6075,-179.533
 L 16.9123,-179.312 L 17.1869,-179.054 L 17.427,-178.763 L 17.6289,-178.445 L 17.7893,-178.104 L 17.9057,-177.746
 L 17.9763,-177.376 L 18,-177 L 17.9763,-176.624 L 17.9057,-176.254 L 17.7893,-175.896 L 17.6289,-175.555
 L 17.427,-175.237 L 17.1869,-174.946 L 16.9123,-174.688 L 16.6075,-174.467 L 16.2773,-174.286 L 15.927,-174.147
 L 15.5621,-174.053 L 15.1884,-174.006 z
M -0.150696,-174.605 L -0.449707,-174.643 L -0.741638,-174.717 L -1.02187,-174.828 L -1.28598,-174.974 L -1.52982,-175.151
 L -1.74951,-175.357 L -1.94164,-175.589 L -2.10313,-175.844 L -2.23146,-176.117 L -2.32458,-176.403 L -2.38107,-176.699
 L -2.39999,-177 L -2.38107,-177.301 L -2.32458,-177.597 L -2.23146,-177.883 L -2.10313,-178.156 L -1.94164,-178.411
 L -1.74951,-178.643 L -1.52982,-178.849 L -1.28598,-179.026 L -1.02187,-179.172 L -0.741638,-179.283 L -0.449707,-179.357
 L -0.150696,-179.395 L 0.150696,-179.395 L 0.449707,-179.357 L 0.741638,-179.283 L 1.02187,-179.172 L 1.28598,-179.026
 L 1.52982,-178.849 L 1.74951,-178.643 L 1.94164,-178.411 L 2.10313,-178.156 L 2.23146,-177.883 L 2.32458,-177.597
 L 2.38107,-177.301 L 2.39999,-177 L 2.38107,-176.699 L 2.32458,-176.403 L 2.23146,-176.117 L 2.10313,-175.844
 L 1.94164,-175.589 L 1.74951,-175.357 L 1.52982,-175.151 L 1.28598,-174.974 L 1.02187,-174.828 L 0.741638,-174.717
 L 0.449707,-174.643 L 0.150696,-174.605 z
M -0.470917,-154.515 L -1.40535,-154.633 L -2.31763,-154.867 L -3.19334,-155.214 L -4.01869,-155.668 L -4.78067,-156.221
 L -5.46725,-156.866 L -6.06763,-157.592 L -6.5723,-158.387 L -6.97331,-159.239 L -7.26436,-160.135 L -7.44086,-161.06
 L -7.5,-162 L -7.44086,-162.94 L -7.26436,-163.865 L -6.97331,-164.761 L -6.5723,-165.613 L -6.06763,-166.408
 L -5.46725,-167.134 L -4.78067,-167.779 L -4.01869,-168.332 L -3.19334,-168.786 L -2.31763,-169.133 L -1.40535,-169.367
 L -0.470917,-169.485 L 0.470917,-169.485 L 1.40535,-169.367 L 2.31763,-169.133 L 3.19334,-168.786 L 4.01869,-168.332
 L 4.78067,-167.779 L 5.46725,-167.134 L 6.06763,-166.408 L 6.5723,-165.613 L 6.97331,-164.761 L 7.26436,-163.865
 L 7.44086,-162.94 L 7.5,-162 L 7.44086,-161.06 L 7.26436,-160.135 L 6.97331,-159.239 L 6.5723,-158.387
 L 6.06763,-157.592 L 5.46725,-156.866 L 4.78067,-156.221 L 4.01869,-155.668 L 3.19334,-155.214 L 2.31763,-154.867
 L 1.40535,-154.633 L 0.470917,-154.515 z
M 0.749512,-158.071 L 1.23605,-158.196 L 1.70311,-158.381 L 2.1433,-158.623 L 2.54968,-158.918 L 2.91586,-159.262
 L 3.23605,-159.649 L 3.50522,-160.073 L 3.7191,-160.528 L 3.87433,-161.005 L 3.96844,-161.499 L 4,-162
 L 3.96844,-162.501 L 3.87433,-162.995 L 3.7191,-163.472 L 3.50522,-163.927 L 3.23605,-164.351 L 2.91586,-164.738
 L 2.54968,-165.082 L 2.1433,-165.377 L 1.70311,-165.619 L 1.23605,-165.804 L 0.749512,-165.929 L 0.25116,-165.992
 L -0.25116,-165.992 L -0.749512,-165.929 L -1.23605,-165.804 L -1.70311,-165.619 L -2.1433,-165.377 L -2.54968,-165.082
 L -2.91586,-164.738 L -3.23605,-164.351 L -3.50522,-163.927 L -3.7191,-163.472 L -3.87433,-162.995 L -3.96844,-162.501
 L -4,-162 L -3.96844,-161.499 L -3.87433,-161.005 L -3.7191,-160.528 L -3.50522,-160.073 L -3.23605,-159.649
 L -2.91586,-159.262 L -2.54968,-158.918 L -2.1433,-158.623 L -1.70311,-158.381 L -1.23605,-158.196 L -0.749512,-158.071
 L -0.25116,-158.008 L 0.25116,-158.008 z
M -0.18837,-159.006 L -0.562134,-159.053 L -0.927048,-159.147 L -1.27733,-159.286 L -1.60747,-159.467 L -1.91226,-159.688
 L -2.1869,-159.946 L -2.42705,-160.237 L -2.62891,-160.555 L -2.78932,-160.896 L -2.90575,-161.254 L -2.97633,-161.624
 L -3,-162 L -2.97633,-162.376 L -2.90575,-162.746 L -2.78932,-163.104 L -2.62891,-163.445 L -2.42705,-163.763
 L -2.1869,-164.054 L -1.91226,-164.312 L -1.60747,-164.533 L -1.27733,-164.714 L -0.927048,-164.853 L -0.562134,-164.947
 L -0.18837,-164.994 L 0.18837,-164.994 L 0.562134,-164.947 L 0.927048,-164.853 L 1.27733,-164.714 L 1.60747,-164.533
 L 1.91226,-164.312 L 2.1869,-164.054 L 2.42705,-163.763 L 2.62891,-163.445 L 2.78932,-163.104 L 2.90575,-162.746
 L 2.97633,-162.376 L 3,-162 L 2.97633,-161.624 L 2.90575,-161.254 L 2.78932,-160.896 L 2.62891,-160.555
 L 2.42705,-160.237 L 2.1869,-159.946 L 1.91226,-159.688 L 1.60747,-159.467 L 1.27733,-159.286 L 0.927048,-159.147
 L 0.562134,-159.053 L 0.18837,-159.006 z
M 14.5997,-159.634 L 14.3063,-159.702 L 14.0238,-159.807 L 13.7567,-159.947 L 13.5092,-160.119 L 13.2853,-160.321
 L 13.0883,-160.549 L 12.9215,-160.8 L 12.7875,-161.07 L 12.6884,-161.355 L 12.6257,-161.649 L 12.6005,-161.95
 L 12.6131,-162.251 L 12.6634,-162.548 L 12.7505,-162.837 L 12.8731,-163.112 L 13.0292,-163.37 L 13.2164,-163.606
 L 13.4318,-163.817 L 13.6719,-163.999 L 13.9329,-164.15 L 14.2107,-164.266 L 14.501,-164.348 L 14.7992,-164.392
 L 15.1005,-164.398 L 15.4002,-164.366 L 15.6937,-164.298 L 15.9762,-164.193 L 16.2433,-164.053 L 16.4908,-163.881
 L 16.7147,-163.679 L 16.9117,-163.451 L 17.0785,-163.2 L 17.2125,-162.93 L 17.3116,-162.645 L 17.3743,-162.351
 L 17.3995,-162.05 L 17.3868,-161.749 L 17.3366,-161.452 L 17.2495,-161.163 L 17.1269,-160.888 L 16.9707,-160.63
 L 16.7835,-160.394 L 16.5682,-160.183 L 16.3281,-160.001 L 16.0671,-159.85 L 15.7893,-159.734 L 15.499,-159.652
 L 15.2008,-159.608 L 14.8995,-159.602 z
M -15.1507,-159.605 L -15.4497,-159.643 L -15.7416,-159.717 L -16.0219,-159.828 L -16.286,-159.974 L -16.5298,-160.151
 L -16.7495,-160.357 L -16.9416,-160.589 L -17.1031,-160.844 L -17.2315,-161.117 L -17.3246,-161.403 L -17.3811,-161.699
 L -17.4,-162 L -17.3811,-162.301 L -17.3246,-162.597 L -17.2315,-162.883 L -17.1031,-163.156 L -16.9416,-163.411
 L -16.7495,-163.643 L -16.5298,-163.849 L -16.286,-164.026 L -16.0219,-164.172 L -15.7416,-164.283 L -15.4497,-164.357
 L -15.1507,-164.395 L -14.8493,-164.395 L -14.5503,-164.357 L -14.2583,-164.283 L -13.9781,-164.172 L -13.714,-164.026
 L -13.4702,-163.849 L -13.2505,-163.643 L -13.0583,-163.411 L -12.8969,-163.156 L -12.7685,-162.883 L -12.6754,-162.597
 L -12.6189,-162.301 L -12.6,-162 L -12.6189,-161.699 L -12.6754,-161.403 L -12.7685,-161.117 L -12.8969,-160.844
 L -13.0583,-160.589 L -13.2505,-160.357 L -13.4702,-160.151 L -13.714,-159.974 L -13.9781,-159.828 L -14.2583,-159.717
 L -14.5503,-159.643 L -14.8493,-159.605 z
M -15.1884,-144.006 L -15.5621,-144.053 L -15.927,-144.147 L -16.2773,-144.286 L -16.6075,-144.467 L -16.9123,-144.688
 L -17.1869,-144.946 L -17.427,-145.237 L -17.6289,-145.555 L -17.7893,-145.896 L -17.9057,-146.254 L -17.9763,-146.624
 L -18,-147 L -17.9763,-147.376 L -17.9057,-147.746 L -17.7893,-148.104 L -17.6289,-148.445 L -17.427,-148.763
 L -17.1869,-149.054 L -16.9123,-149.312 L -16.6075,-149.533 L -16.2773,-149.714 L -15.927,-149.853 L -15.5621,-149.947
 L -15.1884,-149.994 L -14.8116,-149.994 L -14.4379,-149.947 L -14.0729,-149.853 L -13.7227,-149.714 L -13.3925,-149.533
 L -13.0877,-149.312 L -12.8131,-149.054 L -12.5729,-148.763 L -12.3711,-148.445 L -12.2107,-148.104 L -12.0942,-147.746
 L -12.0237,-147.376 L -12,-147 L -12.0237,-146.624 L -12.0942,-146.254 L -12.2107,-145.896 L -12.3711,-145.555
 L -12.5729,-145.237 L -12.8131,-144.946 L -13.0877,-144.688 L -13.3925,-144.467 L -13.7227,-144.286 L -14.0729,-144.147
 L -14.4379,-144.053 L -14.8116,-144.006 z
M 14.8116,-144.006 L 14.4379,-144.053 L 14.0729,-144.147 L 13.7227,-144.286 L 13.3925,-144.467 L 13.0877,-144.688
 L 12.8131,-144.946 L 12.5729,-145.237 L 12.3711,-145.555 L 12.2107,-145.896 L 12.0942,-146.254 L 12.0237,-146.624
 L 12,-147 L 12.0237,-147.376 L 12.0942,-147.746 L 12.2107,-148.104 L 12.3711,-148.445 L 12.5729,-148.763
 L 12.8131,-149.054 L 13.0877,-149.312 L 13.3925,-149.533 L 13.7227,-149.714 L 14.0729,-149.853 L 14.4379,-149.947
 L 14.8116,-149.994 L 15.1884,-149.994 L 15.5621,-149.947 L 15.927,-149.853 L 16.2773,-149.714 L 16.6075,-149.533
 L 16.9123,-149.312 L 17.1869,-149.054 L 17.427,-148.763 L 17.6289,-148.445 L 17.7893,-148.104 L 17.9057,-147.746
 L 17.9763,-147.376 L 18,-147 L 17.9763,-146.624 L 17.9057,-146.254 L 17.7893,-145.896 L 17.6289,-145.555
 L 17.427,-145.237 L 17.1869,-144.946 L 16.9123,-144.688 L 16.6075,-144.467 L 16.2773,-144.286 L 15.927,-144.147
 L 15.5621,-144.053 L 15.1884,-144.006 z
M -0.400238,-144.634 L -0.693665,-144.702 L -0.976166,-144.807 L -1.24326,-144.947 L -1.49075,-145.119 L -1.71472,-145.321
 L -1.91167,-145.549 L -2.07846,-145.8 L -2.21246,-146.07 L -2.31158,-146.355 L -2.37425,-146.649 L -2.39946,-146.95
 L -2.38684,-147.251 L -2.33658,-147.548 L -2.24947,-147.837 L -2.12688,-148.112 L -1.97075,-148.37 L -1.78354,-148.606
 L -1.56821,-148.817 L -1.32812,-148.999 L -1.06712,-149.15 L -0.789276,-149.267 L -0.498978,-149.348 L -0.200821,-149.392
 L 0.100494,-149.398 L 0.400238,-149.366 L 0.693665,-149.298 L 0.976166,-149.193 L 1.24326,-149.053 L 1.49075,-148.881
 L 1.71472,-148.679 L 1.91167,-148.451 L 2.07846,-148.2 L 2.21246,-147.93 L 2.31158,-147.645 L 2.37425,-147.351
 L 2.39946,-147.05 L 2.38684,-146.749 L 2.33658,-146.452 L 2.24947,-146.163 L 2.12688,-145.888 L 1.97075,-145.63
 L 1.78354,-145.394 L 1.56821,-145.183 L 1.32812,-145.001 L 1.06712,-144.85 L 0.789276,-144.734 L 0.498978,-144.652
 L 0.200821,-144.608 L -0.100494,-144.602 z
M 17.9369,-86.0886 L 18.5451,-86.2447 L 19.1289,-86.4759 L 19.6791,-86.7784 L 20.1871,-87.1474 L 20.6448,-87.5773
 L 21.0451,-88.0611 L 21.3815,-88.5912 L 21.6489,-89.1594 L 21.8429,-89.7566 L 21.9606,-90.3733 L 22,-91
 L 22,-125 L 21.9606,-125.627 L 21.8429,-126.243 L 21.6489,-126.841 L 21.3815,-127.409 L 21.0451,-127.939
 L 20.6448,-128.423 L 20.1871,-128.853 L 19.6791,-129.222 L 19.1289,-129.524 L 18.5451,-129.755 L 17.9369,-129.911
 L 17.3139,-129.99 L -17.3139,-129.99 L -17.9369,-129.911 L -18.5451,-129.755 L -19.1289,-129.524 L -19.6791,-129.222
 L -20.1871,-128.853 L -20.6448,-128.423 L -21.0451,-127.939 L -21.3815,-127.409 L -21.6489,-126.841 L -21.8429,-126.243
 L -21.9606,-125.627 L -22,-125 L -22,-91 L -21.9606,-90.3733 L -21.8429,-89.7566 L -21.6489,-89.1594
 L -21.3815,-88.5912 L -21.0451,-88.0611 L -20.6448,-87.5773 L -20.1871,-87.1474 L -19.6791,-86.7784 L -19.1289,-86.4759
 L -18.5451,-86.2447 L -17.9369,-86.0886 L -17.3139,-86.0099 L 17.3139,-86.0099 z
M 14.8116,-120.006 L 14.4379,-120.053 L 14.0729,-120.147 L 13.7227,-120.286 L 13.3925,-120.467 L 13.0877,-120.688
 L 12.8131,-120.946 L 12.5729,-121.237 L 12.3711,-121.555 L 12.2107,-121.896 L 12.0942,-122.254 L 12.0237,-122.624
 L 12,-123 L 12.0237,-123.376 L 12.0942,-123.746 L 12.2107,-124.104 L 12.3711,-124.445 L 12.5729,-124.763
 L 12.8131,-125.054 L 13.0877,-125.312 L 13.3925,-125.533 L 13.7227,-125.714 L 14.0729,-125.853 L 14.4379,-125.947
 L 14.8116,-125.994 L 15.1884,-125.994 L 15.5621,-125.947 L 15.927,-125.853 L 16.2773,-125.714 L 16.6075,-125.533
 L 16.9123,-125.312 L 17.1869,-125.054 L 17.427,-124.763 L 17.6289,-124.445 L 17.7893,-124.104 L 17.9057,-123.746
 L 17.9763,-123.376 L 18,-123 L 17.9763,-122.624 L 17.9057,-122.254 L 17.7893,-121.896 L 17.6289,-121.555
 L 17.427,-121.237 L 17.1869,-120.946 L 16.9123,-120.688 L 16.6075,-120.467 L 16.2773,-120.286 L 15.927,-120.147
 L 15.5621,-120.053 L 15.1884,-120.006 z
M -15.1884,-120.006 L -15.5621,-120.053 L -15.927,-120.147 L -16.2773,-120.286 L -16.6075,-120.467 L -16.9123,-120.688
 L -17.1869,-120.946 L -17.427,-121.237 L -17.6289,-121.555 L -17.7893,-121.896 L -17.9057,-122.254 L -17.9763,-122.624
 L -18,-123 L -17.9763,-123.376 L -17.9057,-123.746 L -17.7893,-124.104 L -17.6289,-124.445 L -17.427,-124.763
 L -17.1869,-125.054 L -16.9123,-125.312 L -16.6075,-125.533 L -16.2773,-125.714 L -15.927,-125.853 L -15.5621,-125.947
 L -15.1884,-125.994 L -14.8116,-125.994 L -14.4379,-125.947 L -14.0729,-125.853 L -13.7227,-125.714 L -13.3925,-125.533
 L -13.0877,-125.312 L -12.8131,-125.054 L -12.5729,-124.763 L -12.3711,-124.445 L -12.2107,-124.104 L -12.0942,-123.746
 L -12.0237,-123.376 L -12,-123 L -12.0237,-122.624 L -12.0942,-122.254 L -12.2107,-121.896 L -12.3711,-121.555
 L -12.5729,-121.237 L -12.8131,-120.946 L -13.0877,-120.688 L -13.3925,-120.467 L -13.7227,-120.286 L -14.0729,-120.147
 L -14.4379,-120.053 L -14.8116,-120.006 z
M -1.67329,-120.102 L -3.34659,-123 L -1.67329,-125.898 L 1.67329,-125.898 L 3.34659,-123 L 1.67329,-120.102
 z
M -0.533707,-99.5168 L -1.59273,-99.6506 L -2.62663,-99.916 L -3.61911,-100.309 L -4.55452,-100.823 L -5.41809,-101.451
 L -6.19623,-102.181 L -6.87663,-103.004 L -7.44859,-103.905 L -7.90309,-104.871 L -8.23296,-105.886 L -8.43297,-106.935
 L -8.5,-108 L -8.43297,-109.065 L -8.23296,-110.114 L -7.90309,-111.129 L -7.44859,-112.095 L -6.87663,-112.996
 L -6.19623,-113.819 L -5.41809,-114.549 L -4.55452,-115.177 L -3.61911,-115.691 L -2.62663,-116.084 L -1.59273,-116.349
 L -0.533707,-116.483 L 0.533707,-116.483 L 1.59273,-116.349 L 2.62663,-116.084 L 3.61911,-115.691 L 4.55452,-115.177
 L 5.41809,-114.549 L 6.19623,-113.819 L 6.87663,-112.996 L 7.44859,-112.095 L 7.90309,-111.129 L 8.23296,-110.114
 L 8.43297,-109.065 L 8.5,-108 L 8.43297,-106.935 L 8.23296,-105.886 L 7.90309,-104.871 L 7.44859,-103.905
 L 6.87663,-103.004 L 6.19623,-102.181 L 5.41809,-101.451 L 4.55452,-100.823 L 3.61911,-100.309 L 2.62663,-99.916
 L 1.59273,-99.6506 L 0.533707,-99.5168 z
M 12.1018,-106.327 L 12.1018,-109.673 L 15,-111.347 L 17.8982,-109.673 L 17.8982,-106.327 L 15,-104.653
 z
M -16.6733,-105.102 L -18.3466,-108 L -16.6733,-110.898 L -13.3267,-110.898 L -11.6534,-108 L -13.3267,-105.102
 z
M -2.89822,-91.3267 L -2.89822,-94.6733 L 0,-96.3466 L 2.89822,-94.6733 L 2.89822,-91.3267 L 0,-89.6534
 z
M 14.8116,-90.0059 L 14.4379,-90.0531 L 14.0729,-90.1468 L 13.7227,-90.2855 L 13.3925,-90.467 L 13.0877,-90.6885
 L 12.8131,-90.9464 L 12.5729,-91.2366 L 12.3711,-91.5547 L 12.2107,-91.8956 L 12.0942,-92.2539 L 12.0237,-92.624
 L 12,-93 L 12.0237,-93.376 L 12.0942,-93.7461 L 12.2107,-94.1044 L 12.3711,-94.4453 L 12.5729,-94.7634
 L 12.8131,-95.0536 L 13.0877,-95.3116 L 13.3925,-95.533 L 13.7227,-95.7145 L 14.0729,-95.8532 L 14.4379,-95.9469
 L 14.8116,-95.9941 L 15.1884,-95.9941 L 15.5621,-95.9469 L 15.927,-95.8532 L 16.2773,-95.7145 L 16.6075,-95.533
 L 16.9123,-95.3116 L 17.1869,-95.0536 L 17.427,-94.7634 L 17.6289,-94.4453 L 17.7893,-94.1044 L 17.9057,-93.7461
 L 17.9763,-93.376 L 18,-93 L 17.9763,-92.624 L 17.9057,-92.2539 L 17.7893,-91.8956 L 17.6289,-91.5547
 L 17.427,-91.2366 L 17.1869,-90.9464 L 16.9123,-90.6885 L 16.6075,-90.467 L 16.2773,-90.2855 L 15.927,-90.1468
 L 15.5621,-90.0531 L 15.1884,-90.0059 z
M -15.1884,-90.0059 L -15.5621,-90.0531 L -15.927,-90.1468 L -16.2773,-90.2855 L -16.6075,-90.467 L -16.9123,-90.6885
 L -17.1869,-90.9464 L -17.427,-91.2366 L -17.6289,-91.5547 L -17.7893,-91.8956 L -17.9057,-92.2539 L -17.9763,-92.624
 L -18,-93 L -17.9763,-93.376 L -17.9057,-93.7461 L -17.7893,-94.1044 L -17.6289,-94.4453 L -17.427,-94.7634
 L -17.1869,-95.0536 L -16.9123,-95.3116 L -16.6075,-95.533 L -16.2773,-95.7145 L -15.927,-95.8532 L -15.5621,-95.9469
 L -15.1884,-95.9941 L -14.8116,-95.9941 L -14.4379,-95.9469 L -14.0729,-95.8532 L -13.7227,-95.7145 L -13.3925,-95.533
 L -13.0877,-95.3116 L -12.8131,-95.0536 L -12.5729,-94.7634 L -12.3711,-94.4453 L -12.2107,-94.1044 L -12.0942,-93.7461
 L -12.0237,-93.376 L -12,-93 L -12.0237,-92.624 L -12.0942,-92.2539 L -12.2107,-91.8956 L -12.3711,-91.5547
 L -12.5729,-91.2366 L -12.8131,-90.9464 L -13.0877,-90.6885 L -13.3925,-90.467 L -13.7227,-90.2855 L -14.0729,-90.1468
 L -14.4379,-90.0531 L -14.8116,-90.0059 z
M 17.9369,-32.0886 L 18.5451,-32.2447 L 19.1289,-32.4759 L 19.6791,-32.7784 L 20.1871,-33.1474 L 20.6448,-33.5773
 L 21.0451,-34.0611 L 21.3815,-34.5912 L 21.6489,-35.1594 L 21.8429,-35.7566 L 21.9606,-36.3733 L 22,-37
 L 22,-71 L 21.9606,-71.6267 L 21.8429,-72.2434 L 21.6489,-72.8406 L 21.3815,-73.4088 L 21.0451,-73.9389
 L 20.6448,-74.4227 L 20.1871,-74.8526 L 19.6791,-75.2216 L 19.1289,-75.5241 L 18.5451,-75.7553 L 17.9369,-75.9114
 L 17.3139,-75.9901 L -17.3139,-75.9901 L -17.9369,-75.9114 L -18.5451,-75.7553 L -19.1289,-75.5241 L -19.6791,-75.2216
 L -20.1871,-74.8526 L -20.6448,-74.4227 L -21.0451,-73.9389 L -21.3815,-73.4088 L -21.6489,-72.8406 L -21.8429,-72.2434
 L -21.9606,-71.6267 L -22,-71 L -22,-37 L -21.9606,-36.3733 L -21.8429,-35.7566 L -21.6489,-35.1594
 L -21.3815,-34.5912 L -21.0451,-34.0611 L -20.6448,-33.5773 L -20.1871,-33.1474 L -19.6791,-32.7784 L -19.1289,-32.4759
 L -18.5451,-32.2447 L -17.9369,-32.0886 L -17.3139,-32.0099 L 17.3139,-32.0099 z
M 14.8116,-66.0059 L 14.4379,-66.0531 L 14.0729,-66.1468 L 13.7227,-66.2855 L 13.3925,-66.467 L 13.0877,-66.6884
 L 12.8131,-66.9464 L 12.5729,-67.2366 L 12.3711,-67.5547 L 12.2107,-67.8956 L 12.0942,-68.2539 L 12.0237,-68.624
 L 12,-69 L 12.0237,-69.376 L 12.0942,-69.7461 L 12.2107,-70.1044 L 12.3711,-70.4453 L 12.5729,-70.7634
 L 12.8131,-71.0536 L 13.0877,-71.3115 L 13.3925,-71.533 L 13.7227,-71.7145 L 14.0729,-71.8532 L 14.4379,-71.9469
 L 14.8116,-71.9941 L 15.1884,-71.9941 L 15.5621,-71.9469 L 15.927,-71.8532 L 16.2773,-71.7145 L 16.6075,-71.533
 L 16.9123,-71.3115 L 17.1869,-71.0536 L 17.427,-70.7634 L 17.6289,-70.4453 L 17.7893,-70.1044 L 17.9057,-69.7461
 L 17.9763,-69.376 L 18,-69 L 17.9763,-68.624 L 17.9057,-68.2539 L 17.7893,-67.8956 L 17.6289,-67.5547
 L 17.427,-67.2366 L 17.1869,-66.9464 L 16.9123,-66.6884 L 16.6075,-66.467 L 16.2773,-66.2855 L 15.927,-66.1468
 L 15.5621,-66.0531 L 15.1884,-66.0059 z
M -15.1884,-66.0059 L -15.5621,-66.0531 L -15.927,-66.1468 L -16.2773,-66.2855 L -16.6075,-66.467 L -16.9123,-66.6884
 L -17.1869,-66.9464 L -17.427,-67.2366 L -17.6289,-67.5547 L -17.7893,-67.8956 L -17.9057,-68.2539 L -17.9763,-68.624
 L -18,-69 L -17.9763,-69.376 L -17.9057,-69.7461 L -17.7893,-70.1044 L -17.6289,-70.4453 L -17.427,-70.7634
 L -17.1869,-71.0536 L -16.9123,-71.3115 L -16.6075,-71.533 L -16.2773,-71.7145 L -15.927,-71.8532 L -15.5621,-71.9469
 L -15.1884,-71.9941 L -14.8116,-71.9941 L -14.4379,-71.9469 L -14.0729,-71.8532 L -13.7227,-71.7145 L -13.3925,-71.533
 L -13.0877,-71.3115 L -12.8131,-71.0536 L -12.5729,-70.7634 L -12.3711,-70.4453 L -12.2107,-70.1044 L -12.0942,-69.7461
 L -12.0237,-69.376 L -12,-69 L -12.0237,-68.624 L -12.0942,-68.2539 L -12.2107,-67.8956 L -12.3711,-67.5547
 L -12.5729,-67.2366 L -12.8131,-66.9464 L -13.0877,-66.6884 L -13.3925,-66.467 L -13.7227,-66.2855 L -14.0729,-66.1468
 L -14.4379,-66.0531 L -14.8116,-66.0059 z
M -1.67329,-66.1018 L -3.34659,-69 L -1.67329,-71.8982 L 1.67329,-71.8982 L 3.34659,-69 L 1.67329,-66.1018
 z
M -0.533707,-45.5168 L -1.59273,-45.6506 L -2.62663,-45.916 L -3.61911,-46.309 L -4.55452,-46.8232 L -5.41809,-47.4506
 L -6.19623,-48.1814 L -6.87663,-49.0038 L -7.44859,-49.9051 L -7.90309,-50.871 L -8.23296,-51.8861 L -8.43297,-52.9347
 L -8.5,-54 L -8.43297,-55.0653 L -8.23296,-56.1139 L -7.90309,-57.129 L -7.44859,-58.0949 L -6.87663,-58.9962
 L -6.19623,-59.8186 L -5.41809,-60.5494 L -4.55452,-61.1768 L -3.61911,-61.691 L -2.62663,-62.084 L -1.59273,-62.3494
 L -0.533707,-62.4832 L 0.533707,-62.4832 L 1.59273,-62.3494 L 2.62663,-62.084 L 3.61911,-61.691 L 4.55452,-61.1768
 L 5.41809,-60.5494 L 6.19623,-59.8186 L 6.87663,-58.9962 L 7.44859,-58.0949 L 7.90309,-57.129 L 8.23296,-56.1139
 L 8.43297,-55.0653 L 8.5,-54 L 8.43297,-52.9347 L 8.23296,-51.8861 L 7.90309,-50.871 L 7.44859,-49.9051
 L 6.87663,-49.0038 L 6.19623,-48.1814 L 5.41809,-47.4506 L 4.55452,-46.8232 L 3.61911,-46.309 L 2.62663,-45.916
 L 1.59273,-45.6506 L 0.533707,-45.5168 z
M 12.1018,-52.3267 L 12.1018,-55.6733 L 15,-57.3466 L 17.8982,-55.6733 L 17.8982,-52.3267 L 15,-50.6534
 z
M -16.6733,-51.1018 L -18.3466,-54 L -16.6733,-56.8982 L -13.3267,-56.8982 L -11.6534,-54 L -13.3267,-51.1018
 z
M -2.89822,-37.3267 L -2.89822,-40.6733 L 0,-42.3466 L 2.89822,-40.6733 L 2.89822,-37.3267 L 0,-35.6534
 z
M 14.8116,-36.0059 L 14.4379,-36.0531 L 14.0729,-36.1468 L 13.7227,-36.2855 L 13.3925,-36.467 L 13.0877,-36.6885
 L 12.8131,-36.9464 L 12.5729,-37.2366 L 12.3711,-37.5547 L 12.2107,-37.8956 L 12.0942,-38.2539 L 12.0237,-38.624
 L 12,-39 L 12.0237,-39.376 L 12.0942,-39.7461 L 12.2107,-40.1044 L 12.3711,-40.4453 L 12.5729,-40.7634
 L 12.8131,-41.0536 L 13.0877,-41.3116 L 13.3925,-41.533 L 13.7227,-41.7145 L 14.0729,-41.8532 L 14.4379,-41.9469
 L 14.8116,-41.9941 L 15.1884,-41.9941 L 15.5621,-41.9469 L 15.927,-41.8532 L 16.2773,-41.7145 L 16.6075,-41.533
 L 16.9123,-41.3116 L 17.1869,-41.0536 L 17.427,-40.7634 L 17.6289,-40.4453 L 17.7893,-40.1044 L 17.9057,-39.7461
 L 17.9763,-39.376 L 18,-39 L 17.9763,-38.624 L 17.9057,-38.2539 L 17.7893,-37.8956 L 17.6289,-37.5547
 L 17.427,-37.2366 L 17.1869,-36.9464 L 16.9123,-36.6885 L 16.6075,-36.467 L 16.2773,-36.2855 L 15.927,-36.1468
 L 15.5621,-36.0531 L 15.1884,-36.0059 z
M -15.1884,-36.0059 L -15.5621,-36.0531 L -15.927,-36.1468 L -16.2773,-36.2855 L -16.6075,-36.467 L -16.9123,-36.6885
 L -17.1869,-36.9464 L -17.427,-37.2366 L -17.6289,-37.5547 L -17.7893,-37.8956 L -17.9057,-38.2539 L -17.9763,-38.624
 L -18,-39 L -17.9763,-39.376 L -17.9057,-39.7461 L -17.7893,-40.1044 L -17.6289,-40.4453 L -17.427,-40.7634
 L -17.1869,-41.0536 L -16.9123,-41.3116 L -16.6075,-41.533 L -16.2773,-41.7145 L -15.927,-41.8532 L -15.5621,-41.9469
 L -15.1884,-41.9941 L -14.8116,-41.9941 L -14.4379,-41.9469 L -14.0729,-41.8532 L -13.7227,-41.7145 L -13.3925,-41.533
 L -13.0877,-41.3116 L -12.8131,-41.0536 L -12.5729,-40.7634 L -12.3711,-40.4453 L -12.2107,-40.1044 L -12.0942,-39.7461
 L -12.0237,-39.376 L -12,-39 L -12.0237,-38.624 L -12.0942,-38.2539 L -12.2107,-37.8956 L -12.3711,-37.5547
 L -12.5729,-37.2366 L -12.8131,-36.9464 L -13.0877,-36.6885 L -13.3925,-36.467 L -13.7227,-36.2855 L -14.0729,-36.1468
 L -14.4379,-36.0531 L -14.8116,-36.0059 z
M 17.9369,21.9114 L 18.5451,21.7553 L 19.1289,21.5241 L 19.6791,21.2216 L 20.1871,20.8526 L 20.6448,20.4227
 L 21.0451,19.9389 L 21.3815,19.4088 L 21.6489,18.8406 L 21.8429,18.2434 L 21.9606,17.6267 L 22,17
 L 22,-17 L 21.9606,-17.6267 L 21.8429,-18.2434 L 21.6489,-18.8406 L 21.3815,-19.4088 L 21.0451,-19.9389
 L 20.6448,-20.4227 L 20.1871,-20.8526 L 19.6791,-21.2216 L 19.1289,-21.5241 L 18.5451,-21.7553 L 17.9369,-21.9114
 L 17.3139,-21.9901 L -17.3139,-21.9901 L -17.9369,-21.9114 L -18.5451,-21.7553 L -19.1289,-21.5241 L -19.6791,-21.2216
 L -20.1871,-20.8526 L -20.6448,-20.4227 L -21.0451,-19.9389 L -21.3815,-19.4088 L -21.6489,-18.8406 L -21.8429,-18.2434
 L -21.9606,-17.6267 L -22,-17 L -22,17 L -21.9606,17.6267 L -21.8429,18.2434 L -21.6489,18.8406
 L -21.3815,19.4088 L -21.0451,19.9389 L -20.6448,20.4227 L -20.1871,20.8526 L -19.6791,21.2216 L -19.1289,21.5241
 L -18.5451,21.7553 L -17.9369,21.9114 L -17.3139,21.9901 L 17.3139,21.9901 z
M 14.8116,-12.0059 L 14.4379,-12.0531 L 14.0729,-12.1468 L 13.7227,-12.2855 L 13.3925,-12.467 L 13.0877,-12.6884
 L 12.8131,-12.9464 L 12.5729,-13.2366 L 12.3711,-13.5547 L 12.2107,-13.8956 L 12.0942,-14.2539 L 12.0237,-14.624
 L 12,-15 L 12.0237,-15.376 L 12.0942,-15.7461 L 12.2107,-16.1044 L 12.3711,-16.4453 L 12.5729,-16.7634
 L 12.8131,-17.0536 L 13.0877,-17.3115 L 13.3925,-17.533 L 13.7227,-17.7145 L 14.0729,-17.8532 L 14.4379,-17.9469
 L 14.8116,-17.9941 L 15.1884,-17.9941 L 15.5621,-17.9469 L 15.927,-17.8532 L 16.2773,-17.7145 L 16.6075,-17.533
 L 16.9123,-17.3115 L 17.1869,-17.0536 L 17.427,-16.7634 L 17.6289,-16.4453 L 17.7893,-16.1044 L 17.9057,-15.7461
 L 17.9763,-15.376 L 18,-15 L 17.9763,-14.624 L 17.9057,-14.2539 L 17.7893,-13.8956 L 17.6289,-13.5547
 L 17.427,-13.2366 L 17.1869,-12.9464 L 16.9123,-12.6884 L 16.6075,-12.467 L 16.2773,-12.2855 L 15.927,-12.1468
 L 15.5621,-12.0531 L 15.1884,-12.0059 z
M -15.1884,-12.0059 L -15.5621,-12.0531 L -15.927,-12.1468 L -16.2773,-12.2855 L -16.6075,-12.467 L -16.9123,-12.6884
 L -17.1869,-12.9464 L -17.427,-13.2366 L -17.6289,-13.5547 L -17.7893,-13.8956 L -17.9057,-14.2539 L -17.9763,-14.624
 L -18,-15 L -17.9763,-15.376 L -17.9057,-15.7461 L -17.7893,-16.1044 L -17.6289,-16.4453 L -17.427,-16.7634
 L -17.1869,-17.0536 L -16.9123,-17.3115 L -16.6075,-17.533 L -16.2773,-17.7145 L -15.927,-17.8532 L -15.5621,-17.9469
 L -15.1884,-17.9941 L -14.8116,-17.9941 L -14.4379,-17.9469 L -14.0729,-17.8532 L -13.7227,-17.7145 L -13.3925,-17.533
 L -13.0877,-17.3115 L -12.8131,-17.0536 L -12.5729,-16.7634 L -12.3711,-16.4453 L -12.2107,-16.1044 L -12.0942,-15.7461
 L -12.0237,-15.376 L -12,-15 L -12.0237,-14.624 L -12.0942,-14.2539 L -12.2107,-13.8956 L -12.3711,-13.5547
 L -12.5729,-13.2366 L -12.8131,-12.9464 L -13.0877,-12.6884 L -13.3925,-12.467 L -13.7227,-12.2855 L -14.0729,-12.1468
 L -14.4379,-12.0531 L -14.8116,-12.0059 z
M -0.150696,-12.6047 L -0.449707,-12.6425 L -0.741638,-12.7175 L -1.02187,-12.8284 L -1.28598,-12.9736 L -1.52982,-13.1508
 L -1.74951,-13.3571 L -1.94164,-13.5893 L -2.10313,-13.8438 L -2.23146,-14.1165 L -2.32458,-14.4031 L -2.38107,-14.6992
 L -2.39999,-15 L -2.38107,-15.3008 L -2.32458,-15.5968 L -2.23146,-15.8835 L -2.10313,-16.1562 L -1.94164,-16.4107
 L -1.74951,-16.6429 L -1.52982,-16.8492 L -1.28598,-17.0264 L -1.02187,-17.1716 L -0.741638,-17.2825 L -0.449707,-17.3575
 L -0.150696,-17.3953 L 0.150696,-17.3953 L 0.449707,-17.3575 L 0.741638,-17.2825 L 1.02187,-17.1716 L 1.28598,-17.0264
 L 1.52982,-16.8492 L 1.74951,-16.6429 L 1.94164,-16.4107 L 2.10313,-16.1562 L 2.23146,-15.8835 L 2.32458,-15.5968
 L 2.38107,-15.3008 L 2.39999,-15 L 2.38107,-14.6992 L 2.32458,-14.4031 L 2.23146,-14.1165 L 2.10313,-13.8438
 L 1.94164,-13.5893 L 1.74951,-13.3571 L 1.52982,-13.1508 L 1.28598,-12.9736 L 1.02187,-12.8284 L 0.741638,-12.7175
 L 0.449707,-12.6425 L 0.150696,-12.6047 z
M -0.470917,7.4852 L -1.40535,7.36714 L -2.31763,7.13292 L -3.19334,6.78619 L -4.01869,6.33246 L -4.78067,5.77884
 L -5.46725,5.13409 L -6.06763,4.40839 L -6.5723,3.61314 L -6.97331,2.76093 L -7.26436,1.86517 L -7.44086,0.939987
 L -7.5,-0 L -7.44086,-0.939987 L -7.26436,-1.86517 L -6.97331,-2.76093 L -6.5723,-3.61314 L -6.06763,-4.40839
 L -5.46725,-5.13409 L -4.78067,-5.77884 L -4.01869,-6.33246 L -3.19334,-6.78619 L -2.31763,-7.13292 L -1.40535,-7.36714
 L -0.470917,-7.4852 L 0.470917,-7.4852 L 1.40535,-7.36714 L 2.31763,-7.13292 L 3.19334,-6.78619 L 4.01869,-6.33246
 L 4.78067,-5.77884 L 5.46725,-5.13409 L 6.06763,-4.40839 L 6.5723,-3.61314 L 6.97331,-2.76093 L 7.26436,-1.86517
 L 7.44086,-0.939987 L 7.5,-0 L 7.44086,0.939987 L 7.26436,1.86517 L 6.97331,2.76093 L 6.5723,3.61314
 L 6.06763,4.40839 L 5.46725,5.13409 L 4.78067,5.77884 L 4.01869,6.33246 L 3.19334,6.78619 L 2.31763,7.13292
 L 1.40535,7.36714 L 0.470917,7.4852 z
M 0.749512,3.92914 L 1.23605,3.80421 L 1.70311,3.61929 L 2.1433,3.3773 L 2.54968,3.08205 L 2.91586,2.73817
 L 3.23605,2.35114 L 3.50522,1.927 L 3.7191,1.47249 L 3.87433,0.994751 L 3.96844,0.501328 L 4,-0
 L 3.96844,-0.501328 L 3.87433,-0.994751 L 3.7191,-1.47249 L 3.50522,-1.927 L 3.23605,-2.35114 L 2.91586,-2.73817
 L 2.54968,-3.08205 L 2.1433,-3.3773 L 1.70311,-3.61929 L 1.23605,-3.80421 L 0.749512,-3.92914 L 0.25116,-3.9921
 L -0.25116,-3.9921 L -0.749512,-3.92914 L -1.23605,-3.80421 L -1.70311,-3.61929 L -2.1433,-3.3773 L -2.54968,-3.08205
 L -2.91586,-2.73817 L -3.23605,-2.35114 L -3.50522,-1.927 L -3.7191,-1.47249 L -3.87433,-0.994751 L -3.96844,-0.501328
 L -4,-0 L -3.96844,0.501328 L -3.87433,0.994751 L -3.7191,1.47249 L -3.50522,1.927 L -3.23605,2.35114
 L -2.91586,2.73817 L -2.54968,3.08205 L -2.1433,3.3773 L -1.70311,3.61929 L -1.23605,3.80421 L -0.749512,3.92914
 L -0.25116,3.9921 L 0.25116,3.9921 z
M -0.18837,2.99408 L -0.562134,2.94685 L -0.927048,2.85316 L -1.27733,2.71448 L -1.60747,2.53297 L -1.91226,2.31154
 L -2.1869,2.05363 L -2.42705,1.76335 L -2.62891,1.44525 L -2.78932,1.10437 L -2.90575,0.746063 L -2.97633,0.375992
 L -3,-0 L -2.97633,-0.375992 L -2.90575,-0.746063 L -2.78932,-1.10437 L -2.62891,-1.44525 L -2.42705,-1.76335
 L -2.1869,-2.05363 L -1.91226,-2.31154 L -1.60747,-2.53297 L -1.27733,-2.71448 L -0.927048,-2.85316 L -0.562134,-2.94685
 L -0.18837,-2.99408 L 0.18837,-2.99408 L 0.562134,-2.94685 L 0.927048,-2.85316 L 1.27733,-2.71448 L 1.60747,-2.53297
 L 1.91226,-2.31154 L 2.1869,-2.05363 L 2.42705,-1.76335 L 2.62891,-1.44525 L 2.78932,-1.10437 L 2.90575,-0.746063
 L 2.97633,-0.375992 L 3,-0 L 2.97633,0.375992 L 2.90575,0.746063 L 2.78932,1.10437 L 2.62891,1.44525
 L 2.42705,1.76335 L 2.1869,2.05363 L 1.91226,2.31154 L 1.60747,2.53297 L 1.27733,2.71448 L 0.927048,2.85316
 L 0.562134,2.94685 L 0.18837,2.99408 z
M 14.5997,2.36638 L 14.3063,2.29756 L 14.0238,2.1925 L 13.7567,2.05287 L 13.5092,1.88086 L 13.2853,1.67918
 L 13.0883,1.45103 L 12.9215,1.2 L 12.7875,0.930023 L 12.6884,0.645401 L 12.6257,0.350586 L 12.6005,0.0502472
 L 12.6131,-0.250854 L 12.6634,-0.548035 L 12.7505,-0.836563 L 12.8731,-1.11191 L 13.0292,-1.36971 L 13.2164,-1.60591
 L 13.4318,-1.81679 L 13.6719,-1.99901 L 13.9329,-2.1497 L 14.2107,-2.26649 L 14.501,-2.34755 L 14.7992,-2.39157
 L 15.1005,-2.39789 L 15.4002,-2.36638 L 15.6937,-2.29756 L 15.9762,-2.1925 L 16.2433,-2.05287 L 16.4908,-1.88086
 L 16.7147,-1.67918 L 16.9117,-1.45103 L 17.0785,-1.2 L 17.2125,-0.930023 L 17.3116,-0.645401 L 17.3743,-0.350586
 L 17.3995,-0.0502472 L 17.3868,0.250854 L 17.3366,0.548035 L 17.2495,0.836563 L 17.1269,1.11191 L 16.9707,1.36971
 L 16.7835,1.60591 L 16.5682,1.81679 L 16.3281,1.99901 L 16.0671,2.1497 L 15.7893,2.26649 L 15.499,2.34755
 L 15.2008,2.39157 L 14.8995,2.39789 z
M -15.1507,2.39526 L -15.4497,2.35748 L -15.7416,2.28253 L -16.0219,2.17157 L -16.286,2.02638 L -16.5298,1.84923
 L -16.7495,1.6429 L -16.9416,1.41068 L -17.1031,1.1562 L -17.2315,0.883484 L -17.3246,0.596848 L -17.3811,0.300797
 L -17.4,-0 L -17.3811,-0.300797 L -17.3246,-0.596848 L -17.2315,-0.883484 L -17.1031,-1.1562 L -16.9416,-1.41068
 L -16.7495,-1.6429 L -16.5298,-1.84923 L -16.286,-2.02638 L -16.0219,-2.17157 L -15.7416,-2.28253 L -15.4497,-2.35748
 L -15.1507,-2.39526 L -14.8493,-2.39526 L -14.5503,-2.35748 L -14.2583,-2.28253 L -13.9781,-2.17157 L -13.714,-2.02638
 L -13.4702,-1.84923 L -13.2505,-1.6429 L -13.0583,-1.41068 L -12.8969,-1.1562 L -12.7685,-0.883484 L -12.6754,-0.596848
 L -12.6189,-0.300797 L -12.6,-0 L -12.6189,0.300797 L -12.6754,0.596848 L -12.7685,0.883484 L -12.8969,1.1562
 L -13.0583,1.41068 L -13.2505,1.6429 L -13.4702,1.84923 L -13.714,2.02638 L -13.9781,2.17157 L -14.2583,2.28253
 L -14.5503,2.35748 L -14.8493,2.39526 z
M 14.8116,17.9941 L 14.4379,17.9469 L 14.0729,17.8532 L 13.7227,17.7145 L 13.3925,17.533 L 13.0877,17.3115
 L 12.8131,17.0536 L 12.5729,16.7634 L 12.3711,16.4453 L 12.2107,16.1044 L 12.0942,15.7461 L 12.0237,15.376
 L 12,15 L 12.0237,14.624 L 12.0942,14.2539 L 12.2107,13.8956 L 12.3711,13.5547 L 12.5729,13.2366
 L 12.8131,12.9464 L 13.0877,12.6884 L 13.3925,12.467 L 13.7227,12.2855 L 14.0729,12.1468 L 14.4379,12.0531
 L 14.8116,12.0059 L 15.1884,12.0059 L 15.5621,12.0531 L 15.927,12.1468 L 16.2773,12.2855 L 16.6075,12.467
 L 16.9123,12.6884 L 17.1869,12.9464 L 17.427,13.2366 L 17.6289,13.5547 L 17.7893,13.8956 L 17.9057,14.2539
 L 17.9763,14.624 L 18,15 L 17.9763,15.376 L 17.9057,15.7461 L 17.7893,16.1044 L 17.6289,16.4453
 L 17.427,16.7634 L 17.1869,17.0536 L 16.9123,17.3115 L 16.6075,17.533 L 16.2773,17.7145 L 15.927,17.8532
 L 15.5621,17.9469 L 15.1884,17.9941 z
M -15.1884,17.9941 L -15.5621,17.9469 L -15.927,17.8532 L -16.2773,17.7145 L -16.6075,17.533 L -16.9123,17.3115
 L -17.1869,17.0536 L -17.427,16.7634 L -17.6289,16.4453 L -17.7893,16.1044 L -17.9057,15.7461 L -17.9763,15.376
 L -18,15 L -17.9763,14.624 L -17.9057,14.2539 L -17.7893,13.8956 L -17.6289,13.5547 L -17.427,13.2366
 L -17.1869,12.9464 L -16.9123,12.6884 L -16.6075,12.467 L -16.2773,12.2855 L -15.927,12.1468 L -15.5621,12.0531
 L -15.1884,12.0059 L -14.8116,12.0059 L -14.4379,12.0531 L -14.0729,12.1468 L -13.7227,12.2855 L -13.3925,12.467
 L -13.0877,12.6884 L -12.8131,12.9464 L -12.5729,13.2366 L -12.3711,13.5547 L -12.2107,13.8956 L -12.0942,14.2539
 L -12.0237,14.624 L -12,15 L -12.0237,15.376 L -12.0942,15.7461 L -12.2107,16.1044 L -12.3711,16.4453
 L -12.5729,16.7634 L -12.8131,17.0536 L -13.0877,17.3115 L -13.3925,17.533 L -13.7227,17.7145 L -14.0729,17.8532
 L -14.4379,17.9469 L -14.8116,17.9941 z
M -0.400238,17.3664 L -0.693665,17.2976 L -0.976166,17.1925 L -1.24326,17.0529 L -1.49075,16.8809 L -1.71472,16.6792
 L -1.91167,16.451 L -2.07846,16.2 L -2.21246,15.93 L -2.31158,15.6454 L -2.37425,15.3506 L -2.39946,15.0502
 L -2.38684,14.7491 L -2.33658,14.452 L -2.24947,14.1634 L -2.12688,13.8881 L -1.97075,13.6303 L -1.78354,13.3941
 L -1.56821,13.1832 L -1.32812,13.001 L -1.06712,12.8503 L -0.789276,12.7335 L -0.498978,12.6524 L -0.200821,12.6084
 L 0.100494,12.6021 L 0.400238,12.6336 L 0.693665,12.7024 L 0.976166,12.8075 L 1.24326,12.9471 L 1.49075,13.1191
 L 1.71472,13.3208 L 1.91167,13.549 L 2.07846,13.8 L 2.21246,14.07 L 2.31158,14.3546 L 2.37425,14.6494
 L 2.39946,14.9497 L 2.38684,15.2509 L 2.33658,15.548 L 2.24947,15.8366 L 2.12688,16.1119 L 1.97075,16.3697
 L 1.78354,16.6059 L 1.56821,16.8168 L 1.32812,16.999 L 1.06712,17.1497 L 0.789276,17.2665 L 0.498978,17.3475
 L 0.200821,17.3916 L -0.100494,17.3979 z
" stroke="black" fill="lightgray" stroke-width="0.5"/>
</svg>
