<?xml version="1.0" standalone="no"?>
<!DOCTYPE svg PUBLIC "-//W3C//DTD SVG 1.1//EN" "http://www.w3.org/Graphics/SVG/1.1/DTD/svg11.dtd">
<svg width="30mm" height="100mm" viewBox="-15 -185 30 100" xmlns="http://www.w3.org/2000/svg" version="1.1">
<title>OpenSCAD Model</title>
<path d="
M 10.9369,-139.589 L 11.5451,-139.745 L 12.1289,-139.976 L 12.6791,-140.278 L 13.1871,-140.647 L 13.6448,-141.077
 L 14.0451,-141.561 L 14.3815,-142.091 L 14.6489,-142.659 L 14.8429,-143.257 L 14.9606,-143.873 L 15,-144.5
 L 15,-179.5 L 14.9606,-180.127 L 14.8429,-180.743 L 14.6489,-181.341 L 14.3815,-181.909 L 14.0451,-182.439
 L 13.6448,-182.923 L 13.1871,-183.353 L 12.6791,-183.722 L 12.1289,-184.024 L 11.5451,-184.255 L 10.9369,-184.411
 L 10.3139,-184.49 L -10.3139,-184.49 L -10.9369,-184.411 L -11.5451,-184.255 L -12.1289,-184.024 L -12.6791,-183.722
 L -13.1871,-183.353 L -13.6448,-182.923 L -14.0451,-182.439 L -14.3815,-181.909 L -14.6489,-181.341 L -14.8429,-180.743
 L -14.9606,-180.127 L -15,-179.5 L -15,-144.5 L -14.9606,-143.873 L -14.8429,-143.257 L -14.6489,-142.659
 L -14.3815,-142.091 L -14.0451,-141.561 L -13.6448,-141.077 L -13.1871,-140.647 L -12.6791,-140.278 L -12.1289,-139.976
 L -11.5451,-139.745 L -10.9369,-139.589 L -10.3139,-139.51 L 10.3139,-139.51 z
M -4.75392,-140.04 L -4.32086,-140.278 L -3.81287,-140.647 L -3.35515,-141.077 L -2.95491,-141.561 L -2.61845,-142.091
 L -2.3511,-142.659 L -2.15707,-143.257 L -2.03941,-143.873 L -2,-144.5 L -2,-147.5 L -2.03941,-148.127
 L -2.15707,-148.743 L -2.3511,-149.341 L -2.61845,-149.909 L -2.95491,-150.439 L -3.35515,-150.923 L -3.81287,-151.353
 L -4.32086,-151.722 L -4.87109,-152.024 L -5.45491,-152.255 L -6.06308,-152.411 L -6.68604,-152.49 L -10.3139,-152.49
 L -10.9369,-152.411 L -11.5451,-152.255 L -12.1289,-152.024 L -12.6791,-151.722 L -13.1871,-151.353 L -13.6448,-150.923
 L -14.0451,-150.439 L -14.3815,-149.909 L -14.4685,-149.724 L -14.4685,-179.5 L -14.4333,-180.06 L -14.3281,-180.611
 L -14.1547,-181.145 L -13.9158,-181.653 L -13.6151,-182.127 L -13.2574,-182.559 L -12.8483,-182.943 L -12.3944,-183.273
 L -11.9026,-183.543 L -11.3808,-183.75 L -10.8373,-183.889 L -10.2806,-183.96 L 10.2806,-183.96 L 10.8373,-183.889
 L 11.3808,-183.75 L 11.9026,-183.543 L 12.3944,-183.273 L 12.8483,-182.943 L 13.2574,-182.559 L 13.6151,-182.127
 L 13.9158,-181.653 L 14.1547,-181.145 L 14.3281,-180.611 L 14.4333,-180.06 L 14.4685,-179.5 L 14.4685,-144.5
 L 14.4333,-143.94 L 14.3281,-143.389 L 14.1547,-142.855 L 13.9158,-142.347 L 13.6151,-141.873 L 13.2574,-141.441
 L 12.8483,-141.057 L 12.3944,-140.727 L 11.9026,-140.457 L 11.3808,-140.25 L 10.8373,-140.111 L 10.2806,-140.04
 z
M 7.96844,-174.544 L 8.27254,-174.622 L 8.56444,-174.738 L 8.83955,-174.889 L 9.09355,-175.074 L 9.32242,-175.289
 L 9.52254,-175.531 L 9.69077,-175.796 L 9.82443,-176.08 L 9.92145,-176.378 L 9.98029,-176.687 L 10,-177
 L 9.98029,-177.313 L 9.92145,-177.622 L 9.82443,-177.92 L 9.69077,-178.204 L 9.52254,-178.469 L 9.32242,-178.711
 L 9.09355,-178.926 L 8.83955,-179.111 L 8.56444,-179.262 L 8.27254,-179.378 L 7.96844,-179.456 L 7.65697,-179.495
 L 7.34302,-179.495 L 7.03154,-179.456 L 6.72745,-179.378 L 6.43555,-179.262 L 6.16043,-179.111 L 5.90643,-178.926
 L 5.67757,-178.711 L 5.47745,-178.469 L 5.30922,-178.204 L 5.17555,-177.92 L 5.07854,-177.622 L 5.0197,-177.313
 L 5,-177 L 5.0197,-176.687 L 5.07854,-176.378 L 5.17555,-176.08 L 5.30922,-175.796 L 5.47745,-175.531
 L 5.67757,-175.289 L 5.90643,-175.074 L 6.16043,-174.889 L 6.43555,-174.738 L 6.72745,-174.622 L 7.03154,-174.544
 L 7.34302,-174.505 L 7.65697,-174.505 z
M 7.40581,-175.503 L 7.21892,-175.527 L 7.03647,-175.573 L 6.86133,-175.643 L 6.69626,-175.734 L 6.54385,-175.844
 L 6.40654,-175.973 L 6.28647,-176.118 L 6.18553,-176.277 L 6.10533,-176.448 L 6.04712,-176.627 L 6.01183,-176.812
 L 6,-177 L 6.01183,-177.188 L 6.04712,-177.373 L 6.10533,-177.552 L 6.18553,-177.723 L 6.28647,-177.882
 L 6.40654,-178.027 L 6.54385,-178.156 L 6.69626,-178.266 L 6.86133,-178.357 L 7.03647,-178.427 L 7.21892,-178.473
 L 7.40581,-178.497 L 7.59418,-178.497 L 7.78107,-178.473 L 7.96352,-178.427 L 8.13866,-178.357 L 8.30373,-178.266
 L 8.45613,-178.156 L 8.59344,-178.027 L 8.71352,-177.882 L 8.81445,-177.723 L 8.89465,-177.552 L 8.95287,-177.373
 L 8.98816,-177.188 L 9,-177 L 8.98816,-176.812 L 8.95287,-176.627 L 8.89465,-176.448 L 8.81445,-176.277
 L 8.71352,-176.118 L 8.59344,-175.973 L 8.45613,-175.844 L 8.30373,-175.734 L 8.13866,-175.643 L 7.96352,-175.573
 L 7.78107,-175.527 L 7.59418,-175.503 z
M -7.59418,-145.503 L -7.78107,-145.527 L -7.96352,-145.573 L -8.13866,-145.643 L -8.30373,-145.734 L -8.45613,-145.844
 L -8.59344,-145.973 L -8.71352,-146.118 L -8.81445,-146.277 L -8.89465,-146.448 L -8.95287,-146.627 L -8.98816,-146.812
 L -9,-147 L -8.98816,-147.188 L -8.95287,-147.373 L -8.89465,-147.552 L -8.81445,-147.723 L -8.71352,-147.882
 L -8.59344,-148.027 L -8.45613,-148.156 L -8.30373,-148.266 L -8.13866,-148.357 L -7.96352,-148.427 L -7.78107,-148.473
 L -7.59418,-148.497 L -7.40581,-148.497 L -7.21892,-148.473 L -7.03647,-148.427 L -6.86133,-148.357 L -6.69626,-148.266
 L -6.54385,-148.156 L -6.40654,-148.027 L -6.28647,-147.882 L -6.18553,-147.723 L -6.10533,-147.552 L -6.04712,-147.373
 L -6.01183,-147.188 L -6,-147 L -6.01183,-146.812 L -6.04712,-146.627 L -6.10533,-146.448 L -6.18553,-146.277
 L -6.28647,-146.118 L -6.40654,-145.973 L -6.54385,-145.844 L -6.69626,-145.734 L -6.86133,-145.643 L -7.03647,-145.573
 L -7.21892,-145.527 L -7.40581,-145.503 z
M 10.9369,-85.5886 L 11.5451,-85.7447 L 12.1289,-85.9759 L 12.6791,-86.2784 L 13.1871,-86.6474 L 13.6448,-87.0773
 L 14.0451,-87.5611 L 14.3815,-88.0912 L 14.6489,-88.6594 L 14.8429,-89.2566 L 14.9606,-89.8733 L 15,-90.5
 L 15,-125.5 L 14.9606,-126.127 L 14.8429,-126.743 L 14.6489,-127.341 L 14.3815,-127.909 L 14.0451,-128.439
 L 13.6448,-128.923 L 13.1871,-129.353 L 12.6791,-129.722 L 12.1289,-130.024 L 11.5451,-130.255 L 10.9369,-130.411
 L 10.3139,-130.49 L -10.3139,-130.49 L -10.9369,-130.411 L -11.5451,-130.255 L -12.1289,-130.024 L -12.6791,-129.722
 L -13.1871,-129.353 L -13.6448,-128.923 L -14.0451,-128.439 L -14.3815,-127.909 L -14.6489,-127.341 L -14.8429,-126.743
 L -14.9606,-126.127 L -15,-125.5 L -15,-90.5 L -14.9606,-89.8733 L -14.8429,-89.2566 L -14.6489,-88.6594
 L -14.3815,-88.0912 L -14.0451,-87.5611 L -13.6448,-87.0773 L -13.1871,-86.6474 L -12.6791,-86.2784 L -12.1289,-85.9759
 L -11.5451,-85.7447 L -10.9369,-85.5886 L -10.3139,-85.5099 L 10.3139,-85.5099 z
M -2.87805,-87.6822 L -2.61845,-88.0912 L -2.3511,-88.6594 L -2.15707,-89.2566 L -2.03941,-89.8733 L -2,-90.5
 L -2,-93.5 L -2.03941,-94.1267 L -2.15707,-94.7435 L -2.3511,-95.3406 L -2.61845,-95.9088 L -2.95491,-96.4389
 L -3.35515,-96.9227 L -3.81287,-97.3526 L -4.32086,-97.7216 L -4.87109,-98.0241 L -5.45491,-98.2553 L -6.06308,-98.4114
 L -6.68604,-98.4901 L -10.3139,-98.4901 L -10.9369,-98.4114 L -11.5451,-98.2553 L -12.1289,-98.0241 L -12.6791,-97.7216
 L -12.8234,-97.6168 L -12.8234,-125.5 L -12.8011,-125.854 L -12.7347,-126.202 L -12.6251,-126.539 L -12.4742,-126.86
 L -12.2842,-127.16 L -12.0582,-127.433 L -11.7997,-127.675 L -11.5128,-127.884 L -11.2021,-128.055 L -10.8725,-128.185
 L -10.5291,-128.273 L -10.1773,-128.318 L 2.87805,-128.318 L 2.61845,-127.909 L 2.3511,-127.341 L 2.15707,-126.743
 L 2.03941,-126.127 L 2,-125.5 L 2,-122.5 L 2.03941,-121.873 L 2.15707,-121.257 L 2.3511,-120.659
 L 2.61845,-120.091 L 2.95491,-119.561 L 3.35515,-119.077 L 3.81287,-118.647 L 4.32086,-118.278 L 4.87109,-117.976
 L 5.45491,-117.745 L 6.06308,-117.589 L 6.68604,-117.51 L 10.3139,-117.51 L 10.9369,-117.589 L 11.5451,-117.745
 L 12.1289,-117.976 L 12.6791,-118.278 L 12.8234,-118.383 L 12.8234,-90.5 L 12.8011,-90.1461 L 12.7347,-89.7979
 L 12.6251,-89.4606 L 12.4742,-89.1398 L 12.2842,-88.8404 L 12.0582,-88.5672 L 11.7997,-88.3245 L 11.5128,-88.1161
 L 11.2021,-87.9453 L 10.8725,-87.8148 L 10.5291,-87.7266 L 10.1773,-87.6822 z
M 7.34929,-120.605 L 7.05028,-120.643 L 6.75835,-120.717 L 6.47812,-120.828 L 6.214,-120.974 L 5.97017,-121.151
 L 5.75047,-121.357 L 5.55835,-121.589 L 5.39685,-121.844 L 5.26852,-122.117 L 5.1754,-122.403 L 5.11891,-122.699
 L 5.09999,-123 L 5.11891,-123.301 L 5.1754,-123.597 L 5.26852,-123.883 L 5.39685,-124.156 L 5.55835,-124.411
 L 5.75047,-124.643 L 5.97017,-124.849 L 6.214,-125.026 L 6.47812,-125.172 L 6.75835,-125.283 L 7.05028,-125.357
 L 7.34929,-125.395 L 7.6507,-125.395 L 7.94971,-125.357 L 8.24164,-125.283 L 8.52187,-125.172 L 8.78598,-125.026
 L 9.02982,-124.849 L 9.24951,-124.643 L 9.44164,-124.411 L 9.60313,-124.156 L 9.73146,-123.883 L 9.82458,-123.597
 L 9.88107,-123.301 L 9.89999,-123 L 9.88107,-122.699 L 9.82458,-122.403 L 9.73146,-122.117 L 9.60313,-121.844
 L 9.44164,-121.589 L 9.24951,-121.357 L 9.02982,-121.151 L 8.78598,-120.974 L 8.52187,-120.828 L 8.24164,-120.717
 L 7.94971,-120.643 L 7.6507,-120.605 z
M -7.6507,-90.6047 L -7.94971,-90.6425 L -8.24164,-90.7175 L -8.52187,-90.8284 L -8.78598,-90.9736 L -9.02982,-91.1508
 L -9.24951,-91.3571 L -9.44164,-91.5893 L -9.60313,-91.8438 L -9.73146,-92.1165 L -9.82458,-92.4032 L -9.88107,-92.6992
 L -9.89999,-93 L -9.88107,-93.3008 L -9.82458,-93.5969 L -9.73146,-93.8835 L -9.60313,-94.1562 L -9.44164,-94.4107
 L -9.24951,-94.6429 L -9.02982,-94.8492 L -8.78598,-95.0264 L -8.52187,-95.1716 L -8.24164,-95.2825 L -7.94971,-95.3575
 L -7.6507,-95.3953 L -7.34929,-95.3953 L -7.05028,-95.3575 L -6.75835,-95.2825 L -6.47812,-95.1716 L -6.214,-95.0264
 L -5.97017,-94.8492 L -5.75047,-94.6429 L -5.55835,-94.4107 L -5.39685,-94.1562 L -5.26852,-93.8835 L -5.1754,-93.5969
 L -5.11891,-93.3008 L -5.09999,-93 L -5.11891,-92.6992 L -5.1754,-92.4032 L -5.26852,-92.1165 L -5.39685,-91.8438
 L -5.55835,-91.5893 L -5.75047,-91.3571 L -5.97017,-91.1508 L -6.214,-90.9736 L -6.47812,-90.8284 L -6.75835,-90.7175
 L -7.05028,-90.6425 L -7.34929,-90.6047 z
" stroke="black" fill="lightgray" stroke-width="0.5"/>
</svg>
