<?xml version="1.0" standalone="no"?>
<!DOCTYPE svg PUBLIC "-//W3C//DTD SVG 1.1//EN" "http://www.w3.org/Graphics/SVG/1.1/DTD/svg11.dtd">
<svg width="30mm" height="198mm" viewBox="-15 -375 30 198" xmlns="http://www.w3.org/2000/svg" version="1.1">
<title>OpenSCAD Model</title>
<path d="
M 10.4369,-315.589 L 11.0451,-315.745 L 11.6289,-315.976 L 12.1791,-316.278 L 12.6871,-316.647 L 13.1448,-317.077
 L 13.5451,-317.561 L 13.8815,-318.091 L 14.1489,-318.659 L 14.3429,-319.257 L 14.4606,-319.873 L 14.5,-320.5
 L 14.5,-369.5 L 14.4606,-370.127 L 14.3429,-370.743 L 14.1489,-371.341 L 13.8815,-371.909 L 13.5451,-372.439
 L 13.1448,-372.923 L 12.6871,-373.353 L 12.1791,-373.722 L 11.6289,-374.024 L 11.0451,-374.255 L 10.4369,-374.411
 L 9.81395,-374.49 L -9.81395,-374.49 L -10.4369,-374.411 L -11.0451,-374.255 L -11.6289,-374.024 L -12.1791,-373.722
 L -12.6871,-373.353 L -13.1448,-372.923 L -13.5451,-372.439 L -13.8815,-371.909 L -14.1489,-371.341 L -14.3429,-370.743
 L -14.4606,-370.127 L -14.5,-369.5 L -14.5,-320.5 L -14.4606,-319.873 L -14.3429,-319.257 L -14.1489,-318.659
 L -13.8815,-318.091 L -13.5451,-317.561 L -13.1448,-317.077 L -12.6871,-316.647 L -12.1791,-316.278 L -11.6289,-315.976
 L -11.0451,-315.745 L -10.4369,-315.589 L -9.81395,-315.51 L 9.81395,-315.51 z
M -9.54825,-316.009 L -10.1401,-316.084 L -10.7178,-316.232 L -11.2724,-316.452 L -11.7952,-316.739 L -12.2778,-317.09
 L -12.7126,-317.498 L -13.0928,-317.958 L -13.4124,-318.462 L -13.6664,-319.001 L -13.8508,-319.569 L -13.9625,-320.155
 L -14,-320.75 L -14,-369.25 L -13.9625,-369.845 L -13.8508,-370.431 L -13.6664,-370.999 L -13.4124,-371.538
 L -13.0928,-372.042 L -12.7126,-372.502 L -12.2778,-372.91 L -11.7952,-373.261 L -11.2724,-373.548 L -10.7178,-373.768
 L -10.1401,-373.916 L -9.54825,-373.991 L 9.54825,-373.991 L 10.1401,-373.916 L 10.7178,-373.768 L 11.2724,-373.548
 L 11.7952,-373.261 L 12.2778,-372.91 L 12.7126,-372.502 L 13.0928,-372.042 L 13.4124,-371.538 L 13.6664,-370.999
 L 13.8508,-370.431 L 13.9625,-369.845 L 14,-369.25 L 14,-320.75 L 13.9625,-320.155 L 13.8508,-319.569
 L 13.6664,-319.001 L 13.4124,-318.462 L 13.0928,-317.958 L 12.7126,-317.498 L 12.2778,-317.09 L 11.7952,-316.739
 L 11.2724,-316.452 L 10.7178,-316.232 L 10.1401,-316.084 L 9.54825,-316.009 z
M 10.4369,-246.589 L 11.0451,-246.745 L 11.6289,-246.976 L 12.1791,-247.278 L 12.6871,-247.647 L 13.1448,-248.077
 L 13.5451,-248.561 L 13.8815,-249.091 L 14.1489,-249.659 L 14.3429,-250.257 L 14.4606,-250.873 L 14.5,-251.5
 L 14.5,-300.5 L 14.4606,-301.127 L 14.3429,-301.743 L 14.1489,-302.341 L 13.8815,-302.909 L 13.5451,-303.439
 L 13.1448,-303.923 L 12.6871,-304.353 L 12.1791,-304.722 L 11.6289,-305.024 L 11.0451,-305.255 L 10.4369,-305.411
 L 9.81395,-305.49 L -9.81395,-305.49 L -10.4369,-305.411 L -11.0451,-305.255 L -11.6289,-305.024 L -12.1791,-304.722
 L -12.6871,-304.353 L -13.1448,-303.923 L -13.5451,-303.439 L -13.8815,-302.909 L -14.1489,-302.341 L -14.3429,-301.743
 L -14.4606,-301.127 L -14.5,-300.5 L -14.5,-251.5 L -14.4606,-250.873 L -14.3429,-250.257 L -14.1489,-249.659
 L -13.8815,-249.091 L -13.5451,-248.561 L -13.1448,-248.077 L -12.6871,-247.647 L -12.1791,-247.278 L -11.6289,-246.976
 L -11.0451,-246.745 L -10.4369,-246.589 L -9.81395,-246.51 L 9.81395,-246.51 z
M -9.53748,-247.181 L -10.1079,-247.253 L -10.6648,-247.396 L -11.1994,-247.607 L -11.7032,-247.884 L -12.1684,-248.222
 L -12.5875,-248.616 L -12.954,-249.059 L -13.2621,-249.544 L -13.5069,-250.065 L -13.6846,-250.611 L -13.7923,-251.176
 L -13.8284,-251.75 L -13.8284,-300.25 L -13.7923,-300.824 L -13.6846,-301.389 L -13.5069,-301.935 L -13.2621,-302.456
 L -12.954,-302.941 L -12.5875,-303.384 L -12.1684,-303.778 L -11.7032,-304.116 L -11.1994,-304.393 L -10.6648,-304.604
 L -10.1079,-304.747 L -9.53748,-304.819 L 9.53748,-304.819 L 10.1079,-304.747 L 10.6648,-304.604 L 11.1994,-304.393
 L 11.7032,-304.116 L 12.1684,-303.778 L 12.5875,-303.384 L 12.954,-302.941 L 13.2621,-302.456 L 13.5069,-301.935
 L 13.6846,-301.389 L 13.7923,-300.824 L 13.8284,-300.25 L 13.8284,-251.75 L 13.7923,-251.176 L 13.6846,-250.611
 L 13.5069,-250.065 L 13.2621,-249.544 L 12.954,-249.059 L 12.5875,-248.616 L 12.1684,-248.222 L 11.7032,-247.884
 L 11.1994,-247.607 L 10.6648,-247.396 L 10.1079,-247.253 L 9.53748,-247.181 z
M 10.4369,-177.589 L 11.0451,-177.745 L 11.6289,-177.976 L 12.1791,-178.278 L 12.6871,-178.647 L 13.1448,-179.077
 L 13.5451,-179.561 L 13.8815,-180.091 L 14.1489,-180.659 L 14.3429,-181.257 L 14.4606,-181.873 L 14.5,-182.5
 L 14.5,-231.5 L 14.4606,-232.127 L 14.3429,-232.743 L 14.1489,-233.341 L 13.8815,-233.909 L 13.5451,-234.439
 L 13.1448,-234.923 L 12.6871,-235.353 L 12.1791,-235.722 L 11.6289,-236.024 L 11.0451,-236.255 L 10.4369,-236.411
 L 9.81395,-236.49 L -9.81395,-236.49 L -10.4369,-236.411 L -11.0451,-236.255 L -11.6289,-236.024 L -12.1791,-235.722
 L -12.6871,-235.353 L -13.1448,-234.923 L -13.5451,-234.439 L -13.8815,-233.909 L -14.1489,-233.341 L -14.3429,-232.743
 L -14.4606,-232.127 L -14.5,-231.5 L -14.5,-182.5 L -14.4606,-181.873 L -14.3429,-181.257 L -14.1489,-180.659
 L -13.8815,-180.091 L -13.5451,-179.561 L -13.1448,-179.077 L -12.6871,-178.647 L -12.1791,-178.278 L -11.6289,-177.976
 L -11.0451,-177.745 L -10.4369,-177.589 L -9.81395,-177.51 L 9.81395,-177.51 z
M -9.38246,-180.645 L -9.64529,-180.678 L -9.9019,-180.744 L -10.1482,-180.841 L -10.3804,-180.969 L -10.5947,-181.125
 L -10.7878,-181.306 L -10.9567,-181.51 L -11.0987,-181.734 L -11.2115,-181.973 L -11.2934,-182.225 L -11.343,-182.486
 L -11.3596,-182.75 L -11.3596,-231.25 L -11.343,-231.514 L -11.2934,-231.775 L -11.2115,-232.027 L -11.0987,-232.266
 L -10.9567,-232.49 L -10.7878,-232.694 L -10.5947,-232.875 L -10.3804,-233.031 L -10.1482,-233.159 L -9.9019,-233.256
 L -9.64529,-233.322 L -9.38246,-233.355 L 9.38246,-233.355 L 9.64529,-233.322 L 9.9019,-233.256 L 10.1482,-233.159
 L 10.3804,-233.031 L 10.5947,-232.875 L 10.7878,-232.694 L 10.9567,-232.49 L 11.0987,-232.266 L 11.2115,-232.027
 L 11.2934,-231.775 L 11.343,-231.514 L 11.3596,-231.25 L 11.3596,-182.75 L 11.343,-182.486 L 11.2934,-182.225
 L 11.2115,-181.973 L 11.0987,-181.734 L 10.9567,-181.51 L 10.7878,-181.306 L 10.5947,-181.125 L 10.3804,-180.969
 L 10.1482,-180.841 L 9.9019,-180.744 L 9.64529,-180.678 L 9.38246,-180.645 z
" stroke="black" fill="lightgray" stroke-width="0.5"/>
</svg>
