  0
SECTION
  2
BLOCKS
  0
ENDSEC
  0
SECTION
  2
ENTITIES
  0
LINE
  8
0
 10
16.8738
 20
14.1771
 11
18.0902
 21
14.4894
  0
LINE
  8
0
 10
18.0902
 20
14.4894
 11
19.2578
 21
14.9517
  0
LINE
  8
0
 10
19.2578
 20
14.9517
 11
20.3583
 21
15.5567
  0
LINE
  8
0
 10
20.3583
 20
15.5567
 11
21.3742
 21
16.2949
  0
LINE
  8
0
 10
21.3742
 20
16.2949
 11
22.2897
 21
17.1545
  0
LINE
  8
0
 10
22.2897
 20
17.1545
 11
23.0902
 21
18.1222
  0
LINE
  8
0
 10
23.0902
 20
18.1222
 11
23.7631
 21
19.1825
  0
LINE
  8
0
 10
23.7631
 20
19.1825
 11
24.2978
 21
20.3188
  0
LINE
  8
0
 10
24.2978
 20
20.3188
 11
24.6858
 21
21.5131
  0
LINE
  8
0
 10
24.6858
 20
21.5131
 11
24.9211
 21
22.7467
  0
LINE
  8
0
 10
24.9211
 20
22.7467
 11
25
 21
24
  0
LINE
  8
0
 10
25
 20
24
 11
24.9211
 21
25.2533
  0
LINE
  8
0
 10
24.9211
 20
25.2533
 11
24.6858
 21
26.4869
  0
LINE
  8
0
 10
24.6858
 20
26.4869
 11
24.2978
 21
27.6812
  0
LINE
  8
0
 10
24.2978
 20
27.6812
 11
23.7631
 21
28.8175
  0
LINE
  8
0
 10
23.7631
 20
28.8175
 11
23.0902
 21
29.8778
  0
LINE
  8
0
 10
23.0902
 20
29.8778
 11
22.2897
 21
30.8455
  0
LINE
  8
0
 10
22.2897
 20
30.8455
 11
21.3742
 21
31.7051
  0
LINE
  8
0
 10
21.3742
 20
31.7051
 11
20.3583
 21
32.4433
  0
LINE
  8
0
 10
20.3583
 20
32.4433
 11
19.2578
 21
33.0483
  0
LINE
  8
0
 10
19.2578
 20
33.0483
 11
18.0902
 21
33.5106
  0
LINE
  8
0
 10
18.0902
 20
33.5106
 11
16.8738
 21
33.8229
  0
LINE
  8
0
 10
16.8738
 20
33.8229
 11
15.6279
 21
33.9803
  0
LINE
  8
0
 10
15.6279
 20
33.9803
 11
14.3721
 21
33.9803
  0
LINE
  8
0
 10
14.3721
 20
33.9803
 11
13.1262
 21
33.8229
  0
LINE
  8
0
 10
13.1262
 20
33.8229
 11
11.9098
 21
33.5106
  0
LINE
  8
0
 10
11.9098
 20
33.5106
 11
10.7422
 21
33.0483
  0
LINE
  8
0
 10
10.7422
 20
33.0483
 11
9.64172
 21
32.4433
  0
LINE
  8
0
 10
9.64172
 20
32.4433
 11
8.62575
 21
31.7051
  0
LINE
  8
0
 10
8.62575
 20
31.7051
 11
7.86435
 21
30.9901
  0
LINE
  8
0
 10
7.86435
 20
30.9901
 11
-17.3139
 21
30.9901
  0
LINE
  8
0
 10
-17.3139
 20
30.9901
 11
-17.9369
 21
30.9114
  0
LINE
  8
0
 10
-17.9369
 20
30.9114
 11
-18.5451
 21
30.7553
  0
LINE
  8
0
 10
-18.5451
 20
30.7553
 11
-19.1289
 21
30.5241
  0
LINE
  8
0
 10
-19.1289
 20
30.5241
 11
-19.6791
 21
30.2216
  0
LINE
  8
0
 10
-19.6791
 20
30.2216
 11
-20.1871
 21
29.8526
  0
LINE
  8
0
 10
-20.1871
 20
29.8526
 11
-20.6448
 21
29.4227
  0
LINE
  8
0
 10
-20.6448
 20
29.4227
 11
-21.0451
 21
28.9389
  0
LINE
  8
0
 10
-21.0451
 20
28.9389
 11
-21.3815
 21
28.4088
  0
LINE
  8
0
 10
-21.3815
 20
28.4088
 11
-21.6489
 21
27.8406
  0
LINE
  8
0
 10
-21.6489
 20
27.8406
 11
-21.8429
 21
27.2434
  0
LINE
  8
0
 10
-21.8429
 20
27.2434
 11
-21.9606
 21
26.6267
  0
LINE
  8
0
 10
-21.9606
 20
26.6267
 11
-22
 21
26
  0
LINE
  8
0
 10
-22
 20
26
 11
-22
 21
22
  0
LINE
  8
0
 10
-22
 20
22
 11
-21.9606
 21
21.3733
  0
LINE
  8
0
 10
-21.9606
 20
21.3733
 11
-21.8429
 21
20.7566
  0
LINE
  8
0
 10
-21.8429
 20
20.7566
 11
-21.6489
 21
20.1594
  0
LINE
  8
0
 10
-21.6489
 20
20.1594
 11
-21.3815
 21
19.5912
  0
LINE
  8
0
 10
-21.3815
 20
19.5912
 11
-21.0451
 21
19.0611
  0
LINE
  8
0
 10
-21.0451
 20
19.0611
 11
-20.6448
 21
18.5773
  0
LINE
  8
0
 10
-20.6448
 20
18.5773
 11
-20.1871
 21
18.1474
  0
LINE
  8
0
 10
-20.1871
 20
18.1474
 11
-19.6791
 21
17.7784
  0
LINE
  8
0
 10
-19.6791
 20
17.7784
 11
-19.1289
 21
17.4759
  0
LINE
  8
0
 10
-19.1289
 20
17.4759
 11
-18.5451
 21
17.2447
  0
LINE
  8
0
 10
-18.5451
 20
17.2447
 11
-17.9369
 21
17.0886
  0
LINE
  8
0
 10
-17.9369
 20
17.0886
 11
-17.3139
 21
17.0099
  0
LINE
  8
0
 10
-17.3139
 20
17.0099
 11
7.86435
 21
17.0099
  0
LINE
  8
0
 10
7.86435
 20
17.0099
 11
8.62575
 21
16.2949
  0
LINE
  8
0
 10
8.62575
 20
16.2949
 11
9.64172
 21
15.5567
  0
LINE
  8
0
 10
9.64172
 20
15.5567
 11
10.7422
 21
14.9517
  0
LINE
  8
0
 10
10.7422
 20
14.9517
 11
11.9098
 21
14.4894
  0
LINE
  8
0
 10
11.9098
 20
14.4894
 11
13.1262
 21
14.1771
  0
LINE
  8
0
 10
13.1262
 20
14.1771
 11
14.3721
 21
14.0197
  0
LINE
  8
0
 10
14.3721
 20
14.0197
 11
15.6279
 21
14.0197
  0
LINE
  8
0
 10
15.6279
 20
14.0197
 11
16.8738
 21
14.1771
  0
LINE
  8
0
 10
14.7049
 20
19.3093
 11
14.1193
 21
19.3833
  0
LINE
  8
0
 10
14.1193
 20
19.3833
 11
13.5476
 21
19.53
  0
LINE
  8
0
 10
13.5476
 20
19.53
 11
12.9988
 21
19.7473
  0
LINE
  8
0
 10
12.9988
 20
19.7473
 11
12.4816
 21
20.0317
  0
LINE
  8
0
 10
12.4816
 20
20.0317
 11
12.0041
 21
20.3786
  0
LINE
  8
0
 10
12.0041
 20
20.3786
 11
11.5738
 21
20.7826
  0
LINE
  8
0
 10
11.5738
 20
20.7826
 11
11.1976
 21
21.2374
  0
LINE
  8
0
 10
11.1976
 20
21.2374
 11
10.8813
 21
21.7358
  0
LINE
  8
0
 10
10.8813
 20
21.7358
 11
10.63
 21
22.2698
  0
LINE
  8
0
 10
10.63
 20
22.2698
 11
10.4476
 21
22.8312
  0
LINE
  8
0
 10
10.4476
 20
22.8312
 11
10.3371
 21
23.4109
  0
LINE
  8
0
 10
10.3371
 20
23.4109
 11
10.3
 21
24
  0
LINE
  8
0
 10
10.3
 20
24
 11
10.3371
 21
24.5891
  0
LINE
  8
0
 10
10.3371
 20
24.5891
 11
10.4476
 21
25.1688
  0
LINE
  8
0
 10
10.4476
 20
25.1688
 11
10.63
 21
25.7302
  0
LINE
  8
0
 10
10.63
 20
25.7302
 11
10.8813
 21
26.2642
  0
LINE
  8
0
 10
10.8813
 20
26.2642
 11
11.1976
 21
26.7626
  0
LINE
  8
0
 10
11.1976
 20
26.7626
 11
11.5738
 21
27.2174
  0
LINE
  8
0
 10
11.5738
 20
27.2174
 11
12.0041
 21
27.6214
  0
LINE
  8
0
 10
12.0041
 20
27.6214
 11
12.4816
 21
27.9683
  0
LINE
  8
0
 10
12.4816
 20
27.9683
 11
12.9988
 21
28.2527
  0
LINE
  8
0
 10
12.9988
 20
28.2527
 11
13.5476
 21
28.47
  0
LINE
  8
0
 10
13.5476
 20
28.47
 11
14.1193
 21
28.6167
  0
LINE
  8
0
 10
14.1193
 20
28.6167
 11
14.7049
 21
28.6907
  0
LINE
  8
0
 10
14.7049
 20
28.6907
 11
15.2951
 21
28.6907
  0
LINE
  8
0
 10
15.2951
 20
28.6907
 11
15.8807
 21
28.6167
  0
LINE
  8
0
 10
15.8807
 20
28.6167
 11
16.4524
 21
28.47
  0
LINE
  8
0
 10
16.4524
 20
28.47
 11
17.0012
 21
28.2527
  0
LINE
  8
0
 10
17.0012
 20
28.2527
 11
17.5184
 21
27.9683
  0
LINE
  8
0
 10
17.5184
 20
27.9683
 11
17.9959
 21
27.6214
  0
LINE
  8
0
 10
17.9959
 20
27.6214
 11
18.4261
 21
27.2174
  0
LINE
  8
0
 10
18.4261
 20
27.2174
 11
18.8024
 21
26.7626
  0
LINE
  8
0
 10
18.8024
 20
26.7626
 11
19.1186
 21
26.2642
  0
LINE
  8
0
 10
19.1186
 20
26.2642
 11
19.3699
 21
25.7302
  0
LINE
  8
0
 10
19.3699
 20
25.7302
 11
19.5523
 21
25.1688
  0
LINE
  8
0
 10
19.5523
 20
25.1688
 11
19.6629
 21
24.5891
  0
LINE
  8
0
 10
19.6629
 20
24.5891
 11
19.7
 21
24
  0
LINE
  8
0
 10
19.7
 20
24
 11
19.6629
 21
23.4109
  0
LINE
  8
0
 10
19.6629
 20
23.4109
 11
19.5523
 21
22.8312
  0
LINE
  8
0
 10
19.5523
 20
22.8312
 11
19.3699
 21
22.2698
  0
LINE
  8
0
 10
19.3699
 20
22.2698
 11
19.1186
 21
21.7358
  0
LINE
  8
0
 10
19.1186
 20
21.7358
 11
18.8024
 21
21.2374
  0
LINE
  8
0
 10
18.8024
 20
21.2374
 11
18.4261
 21
20.7826
  0
LINE
  8
0
 10
18.4261
 20
20.7826
 11
17.9959
 21
20.3786
  0
LINE
  8
0
 10
17.9959
 20
20.3786
 11
17.5184
 21
20.0317
  0
LINE
  8
0
 10
17.5184
 20
20.0317
 11
17.0012
 21
19.7473
  0
LINE
  8
0
 10
17.0012
 20
19.7473
 11
16.4524
 21
19.53
  0
LINE
  8
0
 10
16.4524
 20
19.53
 11
15.8807
 21
19.3833
  0
LINE
  8
0
 10
15.8807
 20
19.3833
 11
15.2951
 21
19.3093
  0
LINE
  8
0
 10
15.2951
 20
19.3093
 11
14.7049
 21
19.3093
  0
LINE
  8
0
 10
-0.18837
 20
21.0059
 11
-0.562134
 21
21.0531
  0
LINE
  8
0
 10
-0.562134
 20
21.0531
 11
-0.927048
 21
21.1468
  0
LINE
  8
0
 10
-0.927048
 20
21.1468
 11
-1.27733
 21
21.2855
  0
LINE
  8
0
 10
-1.27733
 20
21.2855
 11
-1.60747
 21
21.467
  0
LINE
  8
0
 10
-1.60747
 20
21.467
 11
-1.91226
 21
21.6885
  0
LINE
  8
0
 10
-1.91226
 20
21.6885
 11
-2.1869
 21
21.9464
  0
LINE
  8
0
 10
-2.1869
 20
21.9464
 11
-2.42705
 21
22.2366
  0
LINE
  8
0
 10
-2.42705
 20
22.2366
 11
-2.62891
 21
22.5547
  0
LINE
  8
0
 10
-2.62891
 20
22.5547
 11
-2.78932
 21
22.8956
  0
LINE
  8
0
 10
-2.78932
 20
22.8956
 11
-2.90575
 21
23.2539
  0
LINE
  8
0
 10
-2.90575
 20
23.2539
 11
-2.97633
 21
23.624
  0
LINE
  8
0
 10
-2.97633
 20
23.624
 11
-3
 21
24
  0
LINE
  8
0
 10
-3
 20
24
 11
-2.97633
 21
24.376
  0
LINE
  8
0
 10
-2.97633
 20
24.376
 11
-2.90575
 21
24.7461
  0
LINE
  8
0
 10
-2.90575
 20
24.7461
 11
-2.78932
 21
25.1044
  0
LINE
  8
0
 10
-2.78932
 20
25.1044
 11
-2.62891
 21
25.4453
  0
LINE
  8
0
 10
-2.62891
 20
25.4453
 11
-2.42705
 21
25.7634
  0
LINE
  8
0
 10
-2.42705
 20
25.7634
 11
-2.1869
 21
26.0536
  0
LINE
  8
0
 10
-2.1869
 20
26.0536
 11
-1.91226
 21
26.3115
  0
LINE
  8
0
 10
-1.91226
 20
26.3115
 11
-1.60747
 21
26.533
  0
LINE
  8
0
 10
-1.60747
 20
26.533
 11
-1.27733
 21
26.7145
  0
LINE
  8
0
 10
-1.27733
 20
26.7145
 11
-0.927048
 21
26.8532
  0
LINE
  8
0
 10
-0.927048
 20
26.8532
 11
-0.562134
 21
26.9469
  0
LINE
  8
0
 10
-0.562134
 20
26.9469
 11
-0.18837
 21
26.9941
  0
LINE
  8
0
 10
-0.18837
 20
26.9941
 11
0.18837
 21
26.9941
  0
LINE
  8
0
 10
0.18837
 20
26.9941
 11
0.562134
 21
26.9469
  0
LINE
  8
0
 10
0.562134
 20
26.9469
 11
0.927048
 21
26.8532
  0
LINE
  8
0
 10
0.927048
 20
26.8532
 11
1.27733
 21
26.7145
  0
LINE
  8
0
 10
1.27733
 20
26.7145
 11
1.60747
 21
26.533
  0
LINE
  8
0
 10
1.60747
 20
26.533
 11
1.91226
 21
26.3115
  0
LINE
  8
0
 10
1.91226
 20
26.3115
 11
2.1869
 21
26.0536
  0
LINE
  8
0
 10
2.1869
 20
26.0536
 11
2.42705
 21
25.7634
  0
LINE
  8
0
 10
2.42705
 20
25.7634
 11
2.62891
 21
25.4453
  0
LINE
  8
0
 10
2.62891
 20
25.4453
 11
2.78932
 21
25.1044
  0
LINE
  8
0
 10
2.78932
 20
25.1044
 11
2.90575
 21
24.7461
  0
LINE
  8
0
 10
2.90575
 20
24.7461
 11
2.97633
 21
24.376
  0
LINE
  8
0
 10
2.97633
 20
24.376
 11
3
 21
24
  0
LINE
  8
0
 10
3
 20
24
 11
2.97633
 21
23.624
  0
LINE
  8
0
 10
2.97633
 20
23.624
 11
2.90575
 21
23.2539
  0
LINE
  8
0
 10
2.90575
 20
23.2539
 11
2.78932
 21
22.8956
  0
LINE
  8
0
 10
2.78932
 20
22.8956
 11
2.62891
 21
22.5547
  0
LINE
  8
0
 10
2.62891
 20
22.5547
 11
2.42705
 21
22.2366
  0
LINE
  8
0
 10
2.42705
 20
22.2366
 11
2.1869
 21
21.9464
  0
LINE
  8
0
 10
2.1869
 20
21.9464
 11
1.91226
 21
21.6885
  0
LINE
  8
0
 10
1.91226
 20
21.6885
 11
1.60747
 21
21.467
  0
LINE
  8
0
 10
1.60747
 20
21.467
 11
1.27733
 21
21.2855
  0
LINE
  8
0
 10
1.27733
 20
21.2855
 11
0.927048
 21
21.1468
  0
LINE
  8
0
 10
0.927048
 20
21.1468
 11
0.562134
 21
21.0531
  0
LINE
  8
0
 10
0.562134
 20
21.0531
 11
0.18837
 21
21.0059
  0
LINE
  8
0
 10
0.18837
 20
21.0059
 11
-0.18837
 21
21.0059
  0
LINE
  8
0
 10
-15.1884
 20
21.0059
 11
-15.5621
 21
21.0531
  0
LINE
  8
0
 10
-15.5621
 20
21.0531
 11
-15.927
 21
21.1468
  0
LINE
  8
0
 10
-15.927
 20
21.1468
 11
-16.2773
 21
21.2855
  0
LINE
  8
0
 10
-16.2773
 20
21.2855
 11
-16.6075
 21
21.467
  0
LINE
  8
0
 10
-16.6075
 20
21.467
 11
-16.9123
 21
21.6885
  0
LINE
  8
0
 10
-16.9123
 20
21.6885
 11
-17.1869
 21
21.9464
  0
LINE
  8
0
 10
-17.1869
 20
21.9464
 11
-17.427
 21
22.2366
  0
LINE
  8
0
 10
-17.427
 20
22.2366
 11
-17.6289
 21
22.5547
  0
LINE
  8
0
 10
-17.6289
 20
22.5547
 11
-17.7893
 21
22.8956
  0
LINE
  8
0
 10
-17.7893
 20
22.8956
 11
-17.9057
 21
23.2539
  0
LINE
  8
0
 10
-17.9057
 20
23.2539
 11
-17.9763
 21
23.624
  0
LINE
  8
0
 10
-17.9763
 20
23.624
 11
-18
 21
24
  0
LINE
  8
0
 10
-18
 20
24
 11
-17.9763
 21
24.376
  0
LINE
  8
0
 10
-17.9763
 20
24.376
 11
-17.9057
 21
24.7461
  0
LINE
  8
0
 10
-17.9057
 20
24.7461
 11
-17.7893
 21
25.1044
  0
LINE
  8
0
 10
-17.7893
 20
25.1044
 11
-17.6289
 21
25.4453
  0
LINE
  8
0
 10
-17.6289
 20
25.4453
 11
-17.427
 21
25.7634
  0
LINE
  8
0
 10
-17.427
 20
25.7634
 11
-17.1869
 21
26.0536
  0
LINE
  8
0
 10
-17.1869
 20
26.0536
 11
-16.9123
 21
26.3115
  0
LINE
  8
0
 10
-16.9123
 20
26.3115
 11
-16.6075
 21
26.533
  0
LINE
  8
0
 10
-16.6075
 20
26.533
 11
-16.2773
 21
26.7145
  0
LINE
  8
0
 10
-16.2773
 20
26.7145
 11
-15.927
 21
26.8532
  0
LINE
  8
0
 10
-15.927
 20
26.8532
 11
-15.5621
 21
26.9469
  0
LINE
  8
0
 10
-15.5621
 20
26.9469
 11
-15.1884
 21
26.9941
  0
LINE
  8
0
 10
-15.1884
 20
26.9941
 11
-14.8116
 21
26.9941
  0
LINE
  8
0
 10
-14.8116
 20
26.9941
 11
-14.4379
 21
26.9469
  0
LINE
  8
0
 10
-14.4379
 20
26.9469
 11
-14.0729
 21
26.8532
  0
LINE
  8
0
 10
-14.0729
 20
26.8532
 11
-13.7227
 21
26.7145
  0
LINE
  8
0
 10
-13.7227
 20
26.7145
 11
-13.3925
 21
26.533
  0
LINE
  8
0
 10
-13.3925
 20
26.533
 11
-13.0877
 21
26.3115
  0
LINE
  8
0
 10
-13.0877
 20
26.3115
 11
-12.8131
 21
26.0536
  0
LINE
  8
0
 10
-12.8131
 20
26.0536
 11
-12.5729
 21
25.7634
  0
LINE
  8
0
 10
-12.5729
 20
25.7634
 11
-12.3711
 21
25.4453
  0
LINE
  8
0
 10
-12.3711
 20
25.4453
 11
-12.2107
 21
25.1044
  0
LINE
  8
0
 10
-12.2107
 20
25.1044
 11
-12.0942
 21
24.7461
  0
LINE
  8
0
 10
-12.0942
 20
24.7461
 11
-12.0237
 21
24.376
  0
LINE
  8
0
 10
-12.0237
 20
24.376
 11
-12
 21
24
  0
LINE
  8
0
 10
-12
 20
24
 11
-12.0237
 21
23.624
  0
LINE
  8
0
 10
-12.0237
 20
23.624
 11
-12.0942
 21
23.2539
  0
LINE
  8
0
 10
-12.0942
 20
23.2539
 11
-12.2107
 21
22.8956
  0
LINE
  8
0
 10
-12.2107
 20
22.8956
 11
-12.3711
 21
22.5547
  0
LINE
  8
0
 10
-12.3711
 20
22.5547
 11
-12.5729
 21
22.2366
  0
LINE
  8
0
 10
-12.5729
 20
22.2366
 11
-12.8131
 21
21.9464
  0
LINE
  8
0
 10
-12.8131
 20
21.9464
 11
-13.0877
 21
21.6885
  0
LINE
  8
0
 10
-13.0877
 20
21.6885
 11
-13.3925
 21
21.467
  0
LINE
  8
0
 10
-13.3925
 20
21.467
 11
-13.7227
 21
21.2855
  0
LINE
  8
0
 10
-13.7227
 20
21.2855
 11
-14.0729
 21
21.1468
  0
LINE
  8
0
 10
-14.0729
 20
21.1468
 11
-14.4379
 21
21.0531
  0
LINE
  8
0
 10
-14.4379
 20
21.0531
 11
-14.8116
 21
21.0059
  0
LINE
  8
0
 10
-14.8116
 20
21.0059
 11
-15.1884
 21
21.0059
  0
ENDSEC
  0
SECTION
  2
OBJECTS
  0
DICTIONARY
  0
ENDSEC
  0
EOF
