<?xml version="1.0" standalone="no"?>
<!DOCTYPE svg PUBLIC "-//W3C//DTD SVG 1.1//EN" "http://www.w3.org/Graphics/SVG/1.1/DTD/svg11.dtd">
<svg width="47mm" height="20mm" viewBox="-22 -34 47 20" xmlns="http://www.w3.org/2000/svg" version="1.1">
<title>OpenSCAD Model</title>
<path d="
M 16.8738,-14.1771 L 18.0902,-14.4894 L 19.2578,-14.9517 L 20.3583,-15.5567 L 21.3742,-16.2949 L 22.2897,-17.1545
 L 23.0902,-18.1222 L 23.7631,-19.1825 L 24.2978,-20.3188 L 24.6858,-21.5131 L 24.9211,-22.7467 L 25,-24
 L 24.9211,-25.2533 L 24.6858,-26.4869 L 24.2978,-27.6812 L 23.7631,-28.8175 L 23.0902,-29.8778 L 22.2897,-30.8455
 L 21.3742,-31.7051 L 20.3583,-32.4433 L 19.2578,-33.0483 L 18.0902,-33.5106 L 16.8738,-33.8229 L 15.6279,-33.9803
 L 14.3721,-33.9803 L 13.1262,-33.8229 L 11.9098,-33.5106 L 10.7422,-33.0483 L 9.64172,-32.4433 L 8.62575,-31.7051
 L 7.86435,-30.9901 L -17.3139,-30.9901 L -17.9369,-30.9114 L -18.5451,-30.7553 L -19.1289,-30.5241 L -19.6791,-30.2216
 L -20.1871,-29.8526 L -20.6448,-29.4227 L -21.0451,-28.9389 L -21.3815,-28.4088 L -21.6489,-27.8406 L -21.8429,-27.2434
 L -21.9606,-26.6267 L -22,-26 L -22,-22 L -21.9606,-21.3733 L -21.8429,-20.7566 L -21.6489,-20.1594
 L -21.3815,-19.5912 L -21.0451,-19.0611 L -20.6448,-18.5773 L -20.1871,-18.1474 L -19.6791,-17.7784 L -19.1289,-17.4759
 L -18.5451,-17.2447 L -17.9369,-17.0886 L -17.3139,-17.0099 L 7.86435,-17.0099 L 8.62575,-16.2949 L 9.64172,-15.5567
 L 10.7422,-14.9517 L 11.9098,-14.4894 L 13.1262,-14.1771 L 14.3721,-14.0197 L 15.6279,-14.0197 z
M 14.7049,-19.3093 L 14.1193,-19.3833 L 13.5476,-19.53 L 12.9988,-19.7473 L 12.4816,-20.0317 L 12.0041,-20.3786
 L 11.5738,-20.7826 L 11.1976,-21.2374 L 10.8813,-21.7358 L 10.63,-22.2698 L 10.4476,-22.8312 L 10.3371,-23.4109
 L 10.3,-24 L 10.3371,-24.5891 L 10.4476,-25.1688 L 10.63,-25.7302 L 10.8813,-26.2642 L 11.1976,-26.7626
 L 11.5738,-27.2174 L 12.0041,-27.6214 L 12.4816,-27.9683 L 12.9988,-28.2527 L 13.5476,-28.47 L 14.1193,-28.6167
 L 14.7049,-28.6907 L 15.2951,-28.6907 L 15.8807,-28.6167 L 16.4524,-28.47 L 17.0012,-28.2527 L 17.5184,-27.9683
 L 17.9959,-27.6214 L 18.4261,-27.2174 L 18.8024,-26.7626 L 19.1186,-26.2642 L 19.3699,-25.7302 L 19.5523,-25.1688
 L 19.6629,-24.5891 L 19.7,-24 L 19.6629,-23.4109 L 19.5523,-22.8312 L 19.3699,-22.2698 L 19.1186,-21.7358
 L 18.8024,-21.2374 L 18.4261,-20.7826 L 17.9959,-20.3786 L 17.5184,-20.0317 L 17.0012,-19.7473 L 16.4524,-19.53
 L 15.8807,-19.3833 L 15.2951,-19.3093 z
M -0.18837,-21.0059 L -0.562134,-21.0531 L -0.927048,-21.1468 L -1.27733,-21.2855 L -1.60747,-21.467 L -1.91226,-21.6885
 L -2.1869,-21.9464 L -2.42705,-22.2366 L -2.62891,-22.5547 L -2.78932,-22.8956 L -2.90575,-23.2539 L -2.97633,-23.624
 L -3,-24 L -2.97633,-24.376 L -2.90575,-24.7461 L -2.78932,-25.1044 L -2.62891,-25.4453 L -2.42705,-25.7634
 L -2.1869,-26.0536 L -1.91226,-26.3115 L -1.60747,-26.533 L -1.27733,-26.7145 L -0.927048,-26.8532 L -0.562134,-26.9469
 L -0.18837,-26.9941 L 0.18837,-26.9941 L 0.562134,-26.9469 L 0.927048,-26.8532 L 1.27733,-26.7145 L 1.60747,-26.533
 L 1.91226,-26.3115 L 2.1869,-26.0536 L 2.42705,-25.7634 L 2.62891,-25.4453 L 2.78932,-25.1044 L 2.90575,-24.7461
 L 2.97633,-24.376 L 3,-24 L 2.97633,-23.624 L 2.90575,-23.2539 L 2.78932,-22.8956 L 2.62891,-22.5547
 L 2.42705,-22.2366 L 2.1869,-21.9464 L 1.91226,-21.6885 L 1.60747,-21.467 L 1.27733,-21.2855 L 0.927048,-21.1468
 L 0.562134,-21.0531 L 0.18837,-21.0059 z
M -15.1884,-21.0059 L -15.5621,-21.0531 L -15.927,-21.1468 L -16.2773,-21.2855 L -16.6075,-21.467 L -16.9123,-21.6885
 L -17.1869,-21.9464 L -17.427,-22.2366 L -17.6289,-22.5547 L -17.7893,-22.8956 L -17.9057,-23.2539 L -17.9763,-23.624
 L -18,-24 L -17.9763,-24.376 L -17.9057,-24.7461 L -17.7893,-25.1044 L -17.6289,-25.4453 L -17.427,-25.7634
 L -17.1869,-26.0536 L -16.9123,-26.3115 L -16.6075,-26.533 L -16.2773,-26.7145 L -15.927,-26.8532 L -15.5621,-26.9469
 L -15.1884,-26.9941 L -14.8116,-26.9941 L -14.4379,-26.9469 L -14.0729,-26.8532 L -13.7227,-26.7145 L -13.3925,-26.533
 L -13.0877,-26.3115 L -12.8131,-26.0536 L -12.5729,-25.7634 L -12.3711,-25.4453 L -12.2107,-25.1044 L -12.0942,-24.7461
 L -12.0237,-24.376 L -12,-24 L -12.0237,-23.624 L -12.0942,-23.2539 L -12.2107,-22.8956 L -12.3711,-22.5547
 L -12.5729,-22.2366 L -12.8131,-21.9464 L -13.0877,-21.6885 L -13.3925,-21.467 L -13.7227,-21.2855 L -14.0729,-21.1468
 L -14.4379,-21.0531 L -14.8116,-21.0059 z
" stroke="black" fill="lightgray" stroke-width="0.5"/>
</svg>
