<?xml version="1.0" standalone="no"?>
<!DOCTYPE svg PUBLIC "-//W3C//DTD SVG 1.1//EN" "http://www.w3.org/Graphics/SVG/1.1/DTD/svg11.dtd">
<svg width="30mm" height="74mm" viewBox="-15 -37 30 74" xmlns="http://www.w3.org/2000/svg" version="1.1">
<title>OpenSCAD Model</title>
<path d="
M 10.4369,36.9114 L 11.0451,36.7553 L 11.6289,36.5241 L 12.1791,36.2216 L 12.6871,35.8526 L 13.1448,35.4227
 L 13.5451,34.9389 L 13.8815,34.4088 L 14.1489,33.8406 L 14.3429,33.2434 L 14.4606,32.6267 L 14.5,32
 L 14.5,-32 L 14.4606,-32.6267 L 14.3429,-33.2434 L 14.1489,-33.8406 L 13.8815,-34.4088 L 13.5451,-34.9389
 L 13.1448,-35.4227 L 12.6871,-35.8526 L 12.1791,-36.2216 L 11.6289,-36.5241 L 11.0451,-36.7553 L 10.4369,-36.9114
 L 9.81395,-36.9901 L -9.81395,-36.9901 L -10.4369,-36.9114 L -11.0451,-36.7553 L -11.6289,-36.5241 L -12.1791,-36.2216
 L -12.6871,-35.8526 L -13.1448,-35.4227 L -13.5451,-34.9389 L -13.8815,-34.4088 L -14.1489,-33.8406 L -14.3429,-33.2434
 L -14.4606,-32.6267 L -14.5,-32 L -14.5,32 L -14.4606,32.6267 L -14.3429,33.2434 L -14.1489,33.8406
 L -13.8815,34.4088 L -13.5451,34.9389 L -13.1448,35.4227 L -12.6871,35.8526 L -12.1791,36.2216 L -11.6289,36.5241
 L -11.0451,36.7553 L -10.4369,36.9114 L -9.81395,36.9901 L 9.81395,36.9901 z
M 7.31161,-27.0059 L 6.93785,-27.0531 L 6.57294,-27.1468 L 6.22266,-27.2855 L 5.89252,-27.467 L 5.58772,-27.6884
 L 5.31308,-27.9464 L 5.07294,-28.2366 L 4.87108,-28.5547 L 4.71066,-28.8956 L 4.59424,-29.2539 L 4.52365,-29.624
 L 4.5,-30 L 4.52365,-30.376 L 4.59424,-30.7461 L 4.71066,-31.1044 L 4.87108,-31.4453 L 5.07294,-31.7634
 L 5.31308,-32.0536 L 5.58772,-32.3115 L 5.89252,-32.533 L 6.22266,-32.7145 L 6.57294,-32.8532 L 6.93785,-32.9469
 L 7.31161,-32.9941 L 7.68837,-32.9941 L 8.06213,-32.9469 L 8.42705,-32.8532 L 8.77733,-32.7145 L 9.10747,-32.533
 L 9.41226,-32.3115 L 9.6869,-32.0536 L 9.92705,-31.7634 L 10.1289,-31.4453 L 10.2893,-31.1044 L 10.4057,-30.7461
 L 10.4763,-30.376 L 10.5,-30 L 10.4763,-29.624 L 10.4057,-29.2539 L 10.2893,-28.8956 L 10.1289,-28.5547
 L 9.92705,-28.2366 L 9.6869,-27.9464 L 9.41226,-27.6884 L 9.10747,-27.467 L 8.77733,-27.2855 L 8.42705,-27.1468
 L 8.06213,-27.0531 L 7.68837,-27.0059 z
M -7.68837,-27.0059 L -8.06213,-27.0531 L -8.42705,-27.1468 L -8.77733,-27.2855 L -9.10747,-27.467 L -9.41226,-27.6884
 L -9.6869,-27.9464 L -9.92705,-28.2366 L -10.1289,-28.5547 L -10.2893,-28.8956 L -10.4057,-29.2539 L -10.4763,-29.624
 L -10.5,-30 L -10.4763,-30.376 L -10.4057,-30.7461 L -10.2893,-31.1044 L -10.1289,-31.4453 L -9.92705,-31.7634
 L -9.6869,-32.0536 L -9.41226,-32.3115 L -9.10747,-32.533 L -8.77733,-32.7145 L -8.42705,-32.8532 L -8.06213,-32.9469
 L -7.68837,-32.9941 L -7.31161,-32.9941 L -6.93785,-32.9469 L -6.57294,-32.8532 L -6.22266,-32.7145 L -5.89252,-32.533
 L -5.58772,-32.3115 L -5.31308,-32.0536 L -5.07294,-31.7634 L -4.87108,-31.4453 L -4.71066,-31.1044 L -4.59424,-30.7461
 L -4.52365,-30.376 L -4.5,-30 L -4.52365,-29.624 L -4.59424,-29.2539 L -4.71066,-28.8956 L -4.87108,-28.5547
 L -5.07294,-28.2366 L -5.31308,-27.9464 L -5.58772,-27.6884 L -5.89252,-27.467 L -6.22266,-27.2855 L -6.57294,-27.1468
 L -6.93785,-27.0531 L -7.31161,-27.0059 z
M 5.5,-10.75 L 5.5,-19.25 L 9.5,-19.25 L 9.5,-10.75 z
M -9.5,-10.75 L -9.5,-19.25 L -5.5,-19.25 L -5.5,-10.75 z
M 5.5,4.25 L 5.5,-4.25 L 9.5,-4.25 L 9.5,4.25 z
M -9.5,4.25 L -9.5,-4.25 L -5.5,-4.25 L -5.5,4.25 z
M 5.5,19.25 L 5.5,10.75 L 9.5,10.75 L 9.5,19.25 z
M -9.5,19.25 L -9.5,10.75 L -5.5,10.75 L -5.5,19.25 z
M 7.31161,32.9941 L 6.93785,32.9469 L 6.57294,32.8532 L 6.22266,32.7145 L 5.89252,32.533 L 5.58772,32.3115
 L 5.31308,32.0536 L 5.07294,31.7634 L 4.87108,31.4453 L 4.71066,31.1044 L 4.59424,30.7461 L 4.52365,30.376
 L 4.5,30 L 4.52365,29.624 L 4.59424,29.2539 L 4.71066,28.8956 L 4.87108,28.5547 L 5.07294,28.2366
 L 5.31308,27.9464 L 5.58772,27.6884 L 5.89252,27.467 L 6.22266,27.2855 L 6.57294,27.1468 L 6.93785,27.0531
 L 7.31161,27.0059 L 7.68837,27.0059 L 8.06213,27.0531 L 8.42705,27.1468 L 8.77733,27.2855 L 9.10747,27.467
 L 9.41226,27.6884 L 9.6869,27.9464 L 9.92705,28.2366 L 10.1289,28.5547 L 10.2893,28.8956 L 10.4057,29.2539
 L 10.4763,29.624 L 10.5,30 L 10.4763,30.376 L 10.4057,30.7461 L 10.2893,31.1044 L 10.1289,31.4453
 L 9.92705,31.7634 L 9.6869,32.0536 L 9.41226,32.3115 L 9.10747,32.533 L 8.77733,32.7145 L 8.42705,32.8532
 L 8.06213,32.9469 L 7.68837,32.9941 z
M -7.68837,32.9941 L -8.06213,32.9469 L -8.42705,32.8532 L -8.77733,32.7145 L -9.10747,32.533 L -9.41226,32.3115
 L -9.6869,32.0536 L -9.92705,31.7634 L -10.1289,31.4453 L -10.2893,31.1044 L -10.4057,30.7461 L -10.4763,30.376
 L -10.5,30 L -10.4763,29.624 L -10.4057,29.2539 L -10.2893,28.8956 L -10.1289,28.5547 L -9.92705,28.2366
 L -9.6869,27.9464 L -9.41226,27.6884 L -9.10747,27.467 L -8.77733,27.2855 L -8.42705,27.1468 L -8.06213,27.0531
 L -7.68837,27.0059 L -7.31161,27.0059 L -6.93785,27.0531 L -6.57294,27.1468 L -6.22266,27.2855 L -5.89252,27.467
 L -5.58772,27.6884 L -5.31308,27.9464 L -5.07294,28.2366 L -4.87108,28.5547 L -4.71066,28.8956 L -4.59424,29.2539
 L -4.52365,29.624 L -4.5,30 L -4.52365,30.376 L -4.59424,30.7461 L -4.71066,31.1044 L -4.87108,31.4453
 L -5.07294,31.7634 L -5.31308,32.0536 L -5.58772,32.3115 L -5.89252,32.533 L -6.22266,32.7145 L -6.57294,32.8532
 L -6.93785,32.9469 L -7.31161,32.9941 z
" stroke="black" fill="lightgray" stroke-width="0.5"/>
</svg>
