<?xml version="1.0" standalone="no"?>
<!DOCTYPE svg PUBLIC "-//W3C//DTD SVG 1.1//EN" "http://www.w3.org/Graphics/SVG/1.1/DTD/svg11.dtd">
<svg width="14mm" height="14mm" viewBox="-7 -7 14 14" xmlns="http://www.w3.org/2000/svg" version="1.1">
<title>OpenSCAD Model</title>
<path d="
M 2.9369,6.91142 L 3.54507,6.75528 L 4.12889,6.52412 L 4.67912,6.22163 L 5.18712,5.85255 L 5.64484,5.42273
 L 6.04507,4.93892 L 6.38153,4.40877 L 6.64888,3.84062 L 6.84291,3.24344 L 6.96057,2.62666 L 7,2
 L 7,-2 L 6.96057,-2.62666 L 6.84291,-3.24344 L 6.64888,-3.84062 L 6.38153,-4.40877 L 6.04507,-4.93892
 L 5.64484,-5.42273 L 5.18712,-5.85255 L 4.67912,-6.22163 L 4.12889,-6.52412 L 3.54507,-6.75528 L 2.9369,-6.91142
 L 2.31395,-6.99013 L -2.31395,-6.99013 L -2.9369,-6.91142 L -3.54507,-6.75528 L -4.12889,-6.52412 L -4.67912,-6.22163
 L -5.18712,-5.85255 L -5.64484,-5.42273 L -6.04507,-4.93892 L -6.38153,-4.40877 L -6.64888,-3.84062 L -6.84291,-3.24344
 L -6.96057,-2.62666 L -7,-2 L -7,2 L -6.96057,2.62666 L -6.84291,3.24344 L -6.64888,3.84062
 L -6.38153,4.40877 L -6.04507,4.93892 L -5.64484,5.42273 L -5.18712,5.85255 L -4.67912,6.22163 L -4.12889,6.52412
 L -3.54507,6.75528 L -2.9369,6.91142 L -2.31395,6.99013 L 2.31395,6.99013 z
M -0.18837,2.99408 L -0.562134,2.94685 L -0.927048,2.85316 L -1.27733,2.71448 L -1.60747,2.53297 L -1.91226,2.31154
 L -2.1869,2.05363 L -2.42705,1.76335 L -2.62891,1.44525 L -2.78932,1.10437 L -2.90575,0.746063 L -2.97633,0.375992
 L -3,-0 L -2.97633,-0.375992 L -2.90575,-0.746063 L -2.78932,-1.10437 L -2.62891,-1.44525 L -2.42705,-1.76335
 L -2.1869,-2.05363 L -1.91226,-2.31154 L -1.60747,-2.53297 L -1.27733,-2.71448 L -0.927048,-2.85316 L -0.562134,-2.94685
 L -0.18837,-2.99408 L 0.18837,-2.99408 L 0.562134,-2.94685 L 0.927048,-2.85316 L 1.27733,-2.71448 L 1.60747,-2.53297
 L 1.91226,-2.31154 L 2.1869,-2.05363 L 2.42705,-1.76335 L 2.62891,-1.44525 L 2.78932,-1.10437 L 2.90575,-0.746063
 L 2.97633,-0.375992 L 3,-0 L 2.97633,0.375992 L 2.90575,0.746063 L 2.78932,1.10437 L 2.62891,1.44525
 L 2.42705,1.76335 L 2.1869,2.05363 L 1.91226,2.31154 L 1.60747,2.53297 L 1.27733,2.71448 L 0.927048,2.85316
 L 0.562134,2.94685 L 0.18837,2.99408 z
" stroke="black" fill="lightgray" stroke-width="0.5"/>
</svg>
