solid OpenSCAD_Model
  facet normal -1 0 0
    outer loop
      vertex -7 -2 0
      vertex -7 2 9
      vertex -7 2 0
    endloop
  endfacet
  facet normal -1 -0 0
    outer loop
      vertex -7 2 9
      vertex -7 -2 0
      vertex -7 -2 9
    endloop
  endfacet
  facet normal -0.998026 0.0627957 0
    outer loop
      vertex -7 2 0
      vertex -6.96057 2.62667 9
      vertex -6.96057 2.62667 0
    endloop
  endfacet
  facet normal -0.998026 0.0627957 0
    outer loop
      vertex -6.96057 2.62667 9
      vertex -7 2 0
      vertex -7 2 9
    endloop
  endfacet
  facet normal -0.998026 -0.0627957 0
    outer loop
      vertex -6.96057 -2.62667 0
      vertex -7 -2 9
      vertex -7 -2 0
    endloop
  endfacet
  facet normal -0.998026 -0.0627957 0
    outer loop
      vertex -7 -2 9
      vertex -6.96057 -2.62667 0
      vertex -6.96057 -2.62667 9
    endloop
  endfacet
  facet normal 0 0 1
    outer loop
      vertex 2.78933 1.10437 9
      vertex 7 2 9
      vertex 6.96057 2.62667 9
    endloop
  endfacet
  facet normal 0 0 1
    outer loop
      vertex 7 2 9
      vertex 3 0 9
      vertex 7 -2 9
    endloop
  endfacet
  facet normal 0 0 1
    outer loop
      vertex 2.62892 1.44526 9
      vertex 6.96057 2.62667 9
      vertex 6.84292 3.24345 9
    endloop
  endfacet
  facet normal -0 0 1
    outer loop
      vertex 2.97634 -0.375999 9
      vertex 7 -2 9
      vertex 3 0 9
    endloop
  endfacet
  facet normal 0 0 1
    outer loop
      vertex 2.62892 1.44526 9
      vertex 6.84292 3.24345 9
      vertex 6.64888 3.84062 9
    endloop
  endfacet
  facet normal -0 0 1
    outer loop
      vertex 2.90575 -0.746069 9
      vertex 7 -2 9
      vertex 2.97634 -0.375999 9
    endloop
  endfacet
  facet normal 0 0 1
    outer loop
      vertex 2.42705 1.76336 9
      vertex 6.64888 3.84062 9
      vertex 6.38153 4.40877 9
    endloop
  endfacet
  facet normal -0 0 1
    outer loop
      vertex 2.78933 -1.10437 9
      vertex 7 -2 9
      vertex 2.90575 -0.746069 9
    endloop
  endfacet
  facet normal 0 0 1
    outer loop
      vertex 2.42705 1.76336 9
      vertex 6.38153 4.40877 9
      vertex 6.04508 4.93893 9
    endloop
  endfacet
  facet normal 0 0 1
    outer loop
      vertex 7 -2 9
      vertex 2.78933 -1.10437 9
      vertex 6.96057 -2.62667 9
    endloop
  endfacet
  facet normal 0 0 1
    outer loop
      vertex 2.18691 2.05364 9
      vertex 6.04508 4.93893 9
      vertex 5.64484 5.42274 9
    endloop
  endfacet
  facet normal -0 0 1
    outer loop
      vertex 2.62892 -1.44526 9
      vertex 6.96057 -2.62667 9
      vertex 2.78933 -1.10437 9
    endloop
  endfacet
  facet normal 0 0 1
    outer loop
      vertex 2.18691 2.05364 9
      vertex 5.64484 5.42274 9
      vertex 5.18712 5.85257 9
    endloop
  endfacet
  facet normal 0 0 1
    outer loop
      vertex 6.96057 -2.62667 9
      vertex 2.62892 -1.44526 9
      vertex 6.84292 -3.24345 9
    endloop
  endfacet
  facet normal 0 0 1
    outer loop
      vertex 1.91227 2.31154 9
      vertex 5.18712 5.85257 9
      vertex 4.67913 6.22164 9
    endloop
  endfacet
  facet normal 0 0 1
    outer loop
      vertex 6.84292 -3.24345 9
      vertex 2.62892 -1.44526 9
      vertex 6.64888 -3.84062 9
    endloop
  endfacet
  facet normal 0 0 1
    outer loop
      vertex 1.91227 2.31154 9
      vertex 4.67913 6.22164 9
      vertex 4.1289 6.52413 9
    endloop
  endfacet
  facet normal -0 0 1
    outer loop
      vertex 2.42705 -1.76336 9
      vertex 6.64888 -3.84062 9
      vertex 2.62892 -1.44526 9
    endloop
  endfacet
  facet normal 0 0 1
    outer loop
      vertex 1.60748 2.53298 9
      vertex 4.1289 6.52413 9
      vertex 3.54508 6.75528 9
    endloop
  endfacet
  facet normal 0 0 1
    outer loop
      vertex 6.64888 -3.84062 9
      vertex 2.42705 -1.76336 9
      vertex 6.38153 -4.40877 9
    endloop
  endfacet
  facet normal 0 0 1
    outer loop
      vertex 6.38153 -4.40877 9
      vertex 2.42705 -1.76336 9
      vertex 6.04508 -4.93893 9
    endloop
  endfacet
  facet normal 0 0 1
    outer loop
      vertex 7 2 9
      vertex 2.97634 0.375999 9
      vertex 3 0 9
    endloop
  endfacet
  facet normal 0 0 1
    outer loop
      vertex 1.60748 2.53298 9
      vertex 3.54508 6.75528 9
      vertex 2.93691 6.91144 9
    endloop
  endfacet
  facet normal 0 0 1
    outer loop
      vertex 7 2 9
      vertex 2.90575 0.746069 9
      vertex 2.97634 0.375999 9
    endloop
  endfacet
  facet normal 0 0 1
    outer loop
      vertex 7 2 9
      vertex 2.78933 1.10437 9
      vertex 2.90575 0.746069 9
    endloop
  endfacet
  facet normal 0 0 1
    outer loop
      vertex 6.96057 2.62667 9
      vertex 2.62892 1.44526 9
      vertex 2.78933 1.10437 9
    endloop
  endfacet
  facet normal 0 0 1
    outer loop
      vertex 6.64888 3.84062 9
      vertex 2.42705 1.76336 9
      vertex 2.62892 1.44526 9
    endloop
  endfacet
  facet normal 0 0 1
    outer loop
      vertex 1.27734 2.71448 9
      vertex 2.93691 6.91144 9
      vertex 2.31395 6.99013 9
    endloop
  endfacet
  facet normal 0 0 1
    outer loop
      vertex 6.04508 4.93893 9
      vertex 2.18691 2.05364 9
      vertex 2.42705 1.76336 9
    endloop
  endfacet
  facet normal 0 0 1
    outer loop
      vertex 5.18712 5.85257 9
      vertex 1.91227 2.31154 9
      vertex 2.18691 2.05364 9
    endloop
  endfacet
  facet normal 0 0 1
    outer loop
      vertex 4.1289 6.52413 9
      vertex 1.60748 2.53298 9
      vertex 1.91227 2.31154 9
    endloop
  endfacet
  facet normal 0 0 1
    outer loop
      vertex 2.93691 6.91144 9
      vertex 1.27734 2.71448 9
      vertex 1.60748 2.53298 9
    endloop
  endfacet
  facet normal 0 0 1
    outer loop
      vertex 2.31395 6.99013 9
      vertex 0.927051 2.85317 9
      vertex 1.27734 2.71448 9
    endloop
  endfacet
  facet normal 0 0 1
    outer loop
      vertex 2.31395 6.99013 9
      vertex 0.562143 2.94686 9
      vertex 0.927051 2.85317 9
    endloop
  endfacet
  facet normal 0 0 1
    outer loop
      vertex 2.31395 6.99013 9
      vertex 0.188371 2.99408 9
      vertex 0.562143 2.94686 9
    endloop
  endfacet
  facet normal 0 0 1
    outer loop
      vertex 2.31395 6.99013 9
      vertex -0.188371 2.99408 9
      vertex 0.188371 2.99408 9
    endloop
  endfacet
  facet normal -0 0 1
    outer loop
      vertex -2.31395 6.99013 9
      vertex -0.188371 2.99408 9
      vertex 2.31395 6.99013 9
    endloop
  endfacet
  facet normal 0 0 1
    outer loop
      vertex -0.188371 2.99408 9
      vertex -2.31395 6.99013 9
      vertex -0.562143 2.94686 9
    endloop
  endfacet
  facet normal 0 0 1
    outer loop
      vertex -0.562143 2.94686 9
      vertex -2.31395 6.99013 9
      vertex -0.927051 2.85317 9
    endloop
  endfacet
  facet normal 0 0 1
    outer loop
      vertex -0.927051 2.85317 9
      vertex -2.31395 6.99013 9
      vertex -1.27734 2.71448 9
    endloop
  endfacet
  facet normal -0 0 1
    outer loop
      vertex -2.93691 6.91144 9
      vertex -1.27734 2.71448 9
      vertex -2.31395 6.99013 9
    endloop
  endfacet
  facet normal 0 0 1
    outer loop
      vertex -1.27734 2.71448 9
      vertex -2.93691 6.91144 9
      vertex -1.60748 2.53298 9
    endloop
  endfacet
  facet normal -0 0 1
    outer loop
      vertex -3.54508 6.75528 9
      vertex -1.60748 2.53298 9
      vertex -2.93691 6.91144 9
    endloop
  endfacet
  facet normal -0 0 1
    outer loop
      vertex -4.1289 6.52413 9
      vertex -1.60748 2.53298 9
      vertex -3.54508 6.75528 9
    endloop
  endfacet
  facet normal 0 0 1
    outer loop
      vertex -1.60748 2.53298 9
      vertex -4.1289 6.52413 9
      vertex -1.91227 2.31154 9
    endloop
  endfacet
  facet normal -0 0 1
    outer loop
      vertex -4.67913 6.22164 9
      vertex -1.91227 2.31154 9
      vertex -4.1289 6.52413 9
    endloop
  endfacet
  facet normal -0 0 1
    outer loop
      vertex -5.18712 5.85257 9
      vertex -1.91227 2.31154 9
      vertex -4.67913 6.22164 9
    endloop
  endfacet
  facet normal 0 0 1
    outer loop
      vertex -1.91227 2.31154 9
      vertex -5.18712 5.85257 9
      vertex -2.18691 2.05364 9
    endloop
  endfacet
  facet normal -0 0 1
    outer loop
      vertex -5.64484 5.42274 9
      vertex -2.18691 2.05364 9
      vertex -5.18712 5.85257 9
    endloop
  endfacet
  facet normal -0 0 1
    outer loop
      vertex -6.04508 4.93893 9
      vertex -2.18691 2.05364 9
      vertex -5.64484 5.42274 9
    endloop
  endfacet
  facet normal 0 0 1
    outer loop
      vertex -2.18691 2.05364 9
      vertex -6.04508 4.93893 9
      vertex -2.42705 1.76336 9
    endloop
  endfacet
  facet normal -0 0 1
    outer loop
      vertex 2.18691 -2.05364 9
      vertex 6.04508 -4.93893 9
      vertex 2.42705 -1.76336 9
    endloop
  endfacet
  facet normal 0 0 1
    outer loop
      vertex 6.04508 -4.93893 9
      vertex 2.18691 -2.05364 9
      vertex 5.64484 -5.42274 9
    endloop
  endfacet
  facet normal 0 0 1
    outer loop
      vertex 5.64484 -5.42274 9
      vertex 2.18691 -2.05364 9
      vertex 5.18712 -5.85257 9
    endloop
  endfacet
  facet normal -0 0 1
    outer loop
      vertex 1.91227 -2.31154 9
      vertex 5.18712 -5.85257 9
      vertex 2.18691 -2.05364 9
    endloop
  endfacet
  facet normal 0 0 1
    outer loop
      vertex 5.18712 -5.85257 9
      vertex 1.91227 -2.31154 9
      vertex 4.67913 -6.22164 9
    endloop
  endfacet
  facet normal 0 0 1
    outer loop
      vertex 4.67913 -6.22164 9
      vertex 1.91227 -2.31154 9
      vertex 4.1289 -6.52413 9
    endloop
  endfacet
  facet normal -0 0 1
    outer loop
      vertex 1.60748 -2.53298 9
      vertex 4.1289 -6.52413 9
      vertex 1.91227 -2.31154 9
    endloop
  endfacet
  facet normal 0 0 1
    outer loop
      vertex 4.1289 -6.52413 9
      vertex 1.60748 -2.53298 9
      vertex 3.54508 -6.75528 9
    endloop
  endfacet
  facet normal 0 0 1
    outer loop
      vertex 3.54508 -6.75528 9
      vertex 1.60748 -2.53298 9
      vertex 2.93691 -6.91144 9
    endloop
  endfacet
  facet normal -0 0 1
    outer loop
      vertex 1.27734 -2.71448 9
      vertex 2.93691 -6.91144 9
      vertex 1.60748 -2.53298 9
    endloop
  endfacet
  facet normal 0 0 1
    outer loop
      vertex 2.93691 -6.91144 9
      vertex 1.27734 -2.71448 9
      vertex 2.31395 -6.99013 9
    endloop
  endfacet
  facet normal -0 0 1
    outer loop
      vertex 0.927051 -2.85317 9
      vertex 2.31395 -6.99013 9
      vertex 1.27734 -2.71448 9
    endloop
  endfacet
  facet normal -0 0 1
    outer loop
      vertex 0.562143 -2.94686 9
      vertex 2.31395 -6.99013 9
      vertex 0.927051 -2.85317 9
    endloop
  endfacet
  facet normal -0 0 1
    outer loop
      vertex 0.188371 -2.99408 9
      vertex 2.31395 -6.99013 9
      vertex 0.562143 -2.94686 9
    endloop
  endfacet
  facet normal -0 0 1
    outer loop
      vertex -0.188371 -2.99408 9
      vertex 2.31395 -6.99013 9
      vertex 0.188371 -2.99408 9
    endloop
  endfacet
  facet normal 0 0 1
    outer loop
      vertex -2.31395 -6.99013 9
      vertex -0.188371 -2.99408 9
      vertex -0.562143 -2.94686 9
    endloop
  endfacet
  facet normal 0 0 1
    outer loop
      vertex -2.31395 -6.99013 9
      vertex -0.562143 -2.94686 9
      vertex -0.927051 -2.85317 9
    endloop
  endfacet
  facet normal 0 0 1
    outer loop
      vertex -2.31395 -6.99013 9
      vertex -0.927051 -2.85317 9
      vertex -1.27734 -2.71448 9
    endloop
  endfacet
  facet normal 0 0 1
    outer loop
      vertex -2.93691 -6.91144 9
      vertex -1.27734 -2.71448 9
      vertex -1.60748 -2.53298 9
    endloop
  endfacet
  facet normal 0 0 1
    outer loop
      vertex -4.1289 -6.52413 9
      vertex -1.60748 -2.53298 9
      vertex -1.91227 -2.31154 9
    endloop
  endfacet
  facet normal 0 0 1
    outer loop
      vertex -5.18712 -5.85257 9
      vertex -1.91227 -2.31154 9
      vertex -2.18691 -2.05364 9
    endloop
  endfacet
  facet normal 0 0 1
    outer loop
      vertex -0.188371 -2.99408 9
      vertex -2.31395 -6.99013 9
      vertex 2.31395 -6.99013 9
    endloop
  endfacet
  facet normal 0 0 1
    outer loop
      vertex -6.04508 -4.93893 9
      vertex -2.18691 -2.05364 9
      vertex -2.42705 -1.76336 9
    endloop
  endfacet
  facet normal 0 0 1
    outer loop
      vertex -6.64888 -3.84062 9
      vertex -2.42705 -1.76336 9
      vertex -2.62892 -1.44526 9
    endloop
  endfacet
  facet normal 0 0 1
    outer loop
      vertex -6.96057 -2.62667 9
      vertex -2.62892 -1.44526 9
      vertex -2.78933 -1.10437 9
    endloop
  endfacet
  facet normal 0 0 1
    outer loop
      vertex -7 -2 9
      vertex -2.78933 -1.10437 9
      vertex -2.90575 -0.746069 9
    endloop
  endfacet
  facet normal 0 0 1
    outer loop
      vertex -1.27734 -2.71448 9
      vertex -2.93691 -6.91144 9
      vertex -2.31395 -6.99013 9
    endloop
  endfacet
  facet normal 0 0 1
    outer loop
      vertex -7 -2 9
      vertex -2.90575 -0.746069 9
      vertex -2.97634 -0.375999 9
    endloop
  endfacet
  facet normal 0 0 1
    outer loop
      vertex -7 -2 9
      vertex -2.97634 -0.375999 9
      vertex -3 0 9
    endloop
  endfacet
  facet normal -0 0 1
    outer loop
      vertex -6.38153 4.40877 9
      vertex -2.42705 1.76336 9
      vertex -6.04508 4.93893 9
    endloop
  endfacet
  facet normal 0 0 1
    outer loop
      vertex -7 -2 9
      vertex -3 0 9
      vertex -7 2 9
    endloop
  endfacet
  facet normal -0 0 1
    outer loop
      vertex -6.64888 3.84062 9
      vertex -2.42705 1.76336 9
      vertex -6.38153 4.40877 9
    endloop
  endfacet
  facet normal 0 0 1
    outer loop
      vertex -2.78933 -1.10437 9
      vertex -7 -2 9
      vertex -6.96057 -2.62667 9
    endloop
  endfacet
  facet normal 0 0 1
    outer loop
      vertex -2.42705 1.76336 9
      vertex -6.64888 3.84062 9
      vertex -2.62892 1.44526 9
    endloop
  endfacet
  facet normal 0 0 1
    outer loop
      vertex -1.60748 -2.53298 9
      vertex -3.54508 -6.75528 9
      vertex -2.93691 -6.91144 9
    endloop
  endfacet
  facet normal -0 0 1
    outer loop
      vertex -6.84292 3.24345 9
      vertex -2.62892 1.44526 9
      vertex -6.64888 3.84062 9
    endloop
  endfacet
  facet normal 0 0 1
    outer loop
      vertex -1.60748 -2.53298 9
      vertex -4.1289 -6.52413 9
      vertex -3.54508 -6.75528 9
    endloop
  endfacet
  facet normal -0 0 1
    outer loop
      vertex -6.96057 2.62667 9
      vertex -2.62892 1.44526 9
      vertex -6.84292 3.24345 9
    endloop
  endfacet
  facet normal 0 0 1
    outer loop
      vertex -1.91227 -2.31154 9
      vertex -4.67913 -6.22164 9
      vertex -4.1289 -6.52413 9
    endloop
  endfacet
  facet normal 0 0 1
    outer loop
      vertex -2.62892 1.44526 9
      vertex -6.96057 2.62667 9
      vertex -2.78933 1.10437 9
    endloop
  endfacet
  facet normal 0 0 1
    outer loop
      vertex -1.91227 -2.31154 9
      vertex -5.18712 -5.85257 9
      vertex -4.67913 -6.22164 9
    endloop
  endfacet
  facet normal -0 0 1
    outer loop
      vertex -7 2 9
      vertex -2.78933 1.10437 9
      vertex -6.96057 2.62667 9
    endloop
  endfacet
  facet normal 0 0 1
    outer loop
      vertex -2.18691 -2.05364 9
      vertex -5.64484 -5.42274 9
      vertex -5.18712 -5.85257 9
    endloop
  endfacet
  facet normal 0 0 1
    outer loop
      vertex -2.78933 1.10437 9
      vertex -7 2 9
      vertex -2.90575 0.746069 9
    endloop
  endfacet
  facet normal 0 0 1
    outer loop
      vertex -2.18691 -2.05364 9
      vertex -6.04508 -4.93893 9
      vertex -5.64484 -5.42274 9
    endloop
  endfacet
  facet normal 0 0 1
    outer loop
      vertex -2.90575 0.746069 9
      vertex -7 2 9
      vertex -2.97634 0.375999 9
    endloop
  endfacet
  facet normal 0 0 1
    outer loop
      vertex -2.42705 -1.76336 9
      vertex -6.38153 -4.40877 9
      vertex -6.04508 -4.93893 9
    endloop
  endfacet
  facet normal 0 0 1
    outer loop
      vertex -2.97634 0.375999 9
      vertex -7 2 9
      vertex -3 0 9
    endloop
  endfacet
  facet normal 0 0 1
    outer loop
      vertex -2.42705 -1.76336 9
      vertex -6.64888 -3.84062 9
      vertex -6.38153 -4.40877 9
    endloop
  endfacet
  facet normal 0 0 1
    outer loop
      vertex -2.62892 -1.44526 9
      vertex -6.84292 -3.24345 9
      vertex -6.64888 -3.84062 9
    endloop
  endfacet
  facet normal 0 0 1
    outer loop
      vertex -2.62892 -1.44526 9
      vertex -6.96057 -2.62667 9
      vertex -6.84292 -3.24345 9
    endloop
  endfacet
  facet normal 0.368124 -0.929777 0
    outer loop
      vertex 3.54508 -6.75528 0
      vertex 4.1289 -6.52413 9
      vertex 3.54508 -6.75528 9
    endloop
  endfacet
  facet normal 0.368124 -0.929777 0
    outer loop
      vertex 4.1289 -6.52413 9
      vertex 3.54508 -6.75528 0
      vertex 4.1289 -6.52413 0
    endloop
  endfacet
  facet normal 0.951053 -0.309028 0
    outer loop
      vertex 6.64888 -3.84062 9
      vertex 6.84292 -3.24345 0
      vertex 6.84292 -3.24345 9
    endloop
  endfacet
  facet normal 0.951053 -0.309028 0
    outer loop
      vertex 6.84292 -3.24345 0
      vertex 6.64888 -3.84062 9
      vertex 6.64888 -3.84062 0
    endloop
  endfacet
  facet normal -0.368124 -0.929777 0
    outer loop
      vertex -4.1289 -6.52413 0
      vertex -3.54508 -6.75528 9
      vertex -4.1289 -6.52413 9
    endloop
  endfacet
  facet normal -0.368124 -0.929777 -0
    outer loop
      vertex -3.54508 -6.75528 9
      vertex -4.1289 -6.52413 0
      vertex -3.54508 -6.75528 0
    endloop
  endfacet
  facet normal 0.248703 -0.96858 0
    outer loop
      vertex 2.93691 -6.91144 0
      vertex 3.54508 -6.75528 9
      vertex 2.93691 -6.91144 9
    endloop
  endfacet
  facet normal 0.248703 -0.96858 0
    outer loop
      vertex 3.54508 -6.75528 9
      vertex 2.93691 -6.91144 0
      vertex 3.54508 -6.75528 0
    endloop
  endfacet
  facet normal 1 -0 0
    outer loop
      vertex 7 -2 9
      vertex 7 2 0
      vertex 7 2 9
    endloop
  endfacet
  facet normal 1 0 0
    outer loop
      vertex 7 2 0
      vertex 7 -2 9
      vertex 7 -2 0
    endloop
  endfacet
  facet normal -0.770515 0.637422 0
    outer loop
      vertex -6.04508 4.93893 0
      vertex -5.64484 5.42274 9
      vertex -5.64484 5.42274 0
    endloop
  endfacet
  facet normal -0.770515 0.637422 0
    outer loop
      vertex -5.64484 5.42274 9
      vertex -6.04508 4.93893 0
      vertex -6.04508 4.93893 9
    endloop
  endfacet
  facet normal 0 1 -0
    outer loop
      vertex 2.31395 6.99013 0
      vertex -2.31395 6.99013 9
      vertex 2.31395 6.99013 9
    endloop
  endfacet
  facet normal 0 1 0
    outer loop
      vertex -2.31395 6.99013 9
      vertex 2.31395 6.99013 0
      vertex -2.31395 6.99013 0
    endloop
  endfacet
  facet normal -0.770515 -0.637422 0
    outer loop
      vertex -5.64484 -5.42274 0
      vertex -6.04508 -4.93893 9
      vertex -6.04508 -4.93893 0
    endloop
  endfacet
  facet normal -0.770515 -0.637422 0
    outer loop
      vertex -6.04508 -4.93893 9
      vertex -5.64484 -5.42274 0
      vertex -5.64484 -5.42274 9
    endloop
  endfacet
  facet normal 0 -1 0
    outer loop
      vertex -2.31395 -6.99013 0
      vertex 2.31395 -6.99013 9
      vertex -2.31395 -6.99013 9
    endloop
  endfacet
  facet normal 0 -1 -0
    outer loop
      vertex 2.31395 -6.99013 9
      vertex -2.31395 -6.99013 0
      vertex 2.31395 -6.99013 0
    endloop
  endfacet
  facet normal -0.481752 -0.876308 0
    outer loop
      vertex -4.67913 -6.22164 0
      vertex -4.1289 -6.52413 9
      vertex -4.67913 -6.22164 9
    endloop
  endfacet
  facet normal -0.481752 -0.876308 -0
    outer loop
      vertex -4.1289 -6.52413 9
      vertex -4.67913 -6.22164 0
      vertex -4.1289 -6.52413 0
    endloop
  endfacet
  facet normal 0.770515 -0.637422 0
    outer loop
      vertex 5.64484 -5.42274 9
      vertex 6.04508 -4.93893 0
      vertex 6.04508 -4.93893 9
    endloop
  endfacet
  facet normal 0.770515 -0.637422 0
    outer loop
      vertex 6.04508 -4.93893 0
      vertex 5.64484 -5.42274 9
      vertex 5.64484 -5.42274 0
    endloop
  endfacet
  facet normal 0.904828 -0.425778 0
    outer loop
      vertex 6.38153 -4.40877 9
      vertex 6.64888 -3.84062 0
      vertex 6.64888 -3.84062 9
    endloop
  endfacet
  facet normal 0.904828 -0.425778 0
    outer loop
      vertex 6.64888 -3.84062 0
      vertex 6.38153 -4.40877 9
      vertex 6.38153 -4.40877 0
    endloop
  endfacet
  facet normal -0.951053 0.309028 0
    outer loop
      vertex -6.84292 3.24345 0
      vertex -6.64888 3.84062 9
      vertex -6.64888 3.84062 0
    endloop
  endfacet
  facet normal -0.951053 0.309028 0
    outer loop
      vertex -6.64888 3.84062 9
      vertex -6.84292 3.24345 0
      vertex -6.84292 3.24345 9
    endloop
  endfacet
  facet normal -0.368124 0.929777 0
    outer loop
      vertex -3.54508 6.75528 0
      vertex -4.1289 6.52413 9
      vertex -3.54508 6.75528 9
    endloop
  endfacet
  facet normal -0.368124 0.929777 0
    outer loop
      vertex -4.1289 6.52413 9
      vertex -3.54508 6.75528 0
      vertex -4.1289 6.52413 0
    endloop
  endfacet
  facet normal -0.684549 0.728967 0
    outer loop
      vertex -5.18712 5.85257 0
      vertex -5.64484 5.42274 9
      vertex -5.18712 5.85257 9
    endloop
  endfacet
  facet normal -0.684549 0.728967 0
    outer loop
      vertex -5.64484 5.42274 9
      vertex -5.18712 5.85257 0
      vertex -5.64484 5.42274 0
    endloop
  endfacet
  facet normal 0.844328 0.535827 0
    outer loop
      vertex 6.38153 4.40877 9
      vertex 6.04508 4.93893 0
      vertex 6.04508 4.93893 9
    endloop
  endfacet
  facet normal 0.844328 0.535827 0
    outer loop
      vertex 6.04508 4.93893 0
      vertex 6.38153 4.40877 9
      vertex 6.38153 4.40877 0
    endloop
  endfacet
  facet normal -0.12532 0.992116 0
    outer loop
      vertex -2.31395 6.99013 0
      vertex -2.93691 6.91144 9
      vertex -2.31395 6.99013 9
    endloop
  endfacet
  facet normal -0.12532 0.992116 0
    outer loop
      vertex -2.93691 6.91144 9
      vertex -2.31395 6.99013 0
      vertex -2.93691 6.91144 0
    endloop
  endfacet
  facet normal -0.951053 -0.309028 0
    outer loop
      vertex -6.64888 -3.84062 0
      vertex -6.84292 -3.24345 9
      vertex -6.84292 -3.24345 0
    endloop
  endfacet
  facet normal -0.951053 -0.309028 0
    outer loop
      vertex -6.84292 -3.24345 9
      vertex -6.64888 -3.84062 0
      vertex -6.64888 -3.84062 9
    endloop
  endfacet
  facet normal 0.12532 -0.992116 0
    outer loop
      vertex 2.31395 -6.99013 0
      vertex 2.93691 -6.91144 9
      vertex 2.31395 -6.99013 9
    endloop
  endfacet
  facet normal 0.12532 -0.992116 0
    outer loop
      vertex 2.93691 -6.91144 9
      vertex 2.31395 -6.99013 0
      vertex 2.93691 -6.91144 0
    endloop
  endfacet
  facet normal -0.248703 -0.96858 0
    outer loop
      vertex -3.54508 -6.75528 0
      vertex -2.93691 -6.91144 9
      vertex -3.54508 -6.75528 9
    endloop
  endfacet
  facet normal -0.248703 -0.96858 -0
    outer loop
      vertex -2.93691 -6.91144 9
      vertex -3.54508 -6.75528 0
      vertex -2.93691 -6.91144 0
    endloop
  endfacet
  facet normal -0.12532 -0.992116 0
    outer loop
      vertex -2.93691 -6.91144 0
      vertex -2.31395 -6.99013 9
      vertex -2.93691 -6.91144 9
    endloop
  endfacet
  facet normal -0.12532 -0.992116 -0
    outer loop
      vertex -2.31395 -6.99013 9
      vertex -2.93691 -6.91144 0
      vertex -2.31395 -6.99013 0
    endloop
  endfacet
  facet normal -0.587779 -0.809022 0
    outer loop
      vertex -5.18712 -5.85257 0
      vertex -4.67913 -6.22164 9
      vertex -5.18712 -5.85257 9
    endloop
  endfacet
  facet normal -0.587779 -0.809022 -0
    outer loop
      vertex -4.67913 -6.22164 9
      vertex -5.18712 -5.85257 0
      vertex -4.67913 -6.22164 0
    endloop
  endfacet
  facet normal -0.844328 -0.535827 0
    outer loop
      vertex -6.04508 -4.93893 0
      vertex -6.38153 -4.40877 9
      vertex -6.38153 -4.40877 0
    endloop
  endfacet
  facet normal -0.844328 -0.535827 0
    outer loop
      vertex -6.38153 -4.40877 9
      vertex -6.04508 -4.93893 0
      vertex -6.04508 -4.93893 9
    endloop
  endfacet
  facet normal 0 0 -1
    outer loop
      vertex 2.78933 -1.10437 0
      vertex 7 -2 0
      vertex 6.96057 -2.62667 0
    endloop
  endfacet
  facet normal 0 0 -1
    outer loop
      vertex 7 -2 0
      vertex 3 0 0
      vertex 7 2 0
    endloop
  endfacet
  facet normal 0 0 -1
    outer loop
      vertex 2.62892 -1.44526 0
      vertex 6.96057 -2.62667 0
      vertex 6.84292 -3.24345 0
    endloop
  endfacet
  facet normal 0 0 -1
    outer loop
      vertex 2.97634 0.375999 0
      vertex 7 2 0
      vertex 3 0 0
    endloop
  endfacet
  facet normal 0 0 -1
    outer loop
      vertex 2.62892 -1.44526 0
      vertex 6.84292 -3.24345 0
      vertex 6.64888 -3.84062 0
    endloop
  endfacet
  facet normal 0 0 -1
    outer loop
      vertex 2.90575 0.746069 0
      vertex 7 2 0
      vertex 2.97634 0.375999 0
    endloop
  endfacet
  facet normal 0 0 -1
    outer loop
      vertex 2.42705 -1.76336 0
      vertex 6.64888 -3.84062 0
      vertex 6.38153 -4.40877 0
    endloop
  endfacet
  facet normal 0 0 -1
    outer loop
      vertex 2.78933 1.10437 0
      vertex 7 2 0
      vertex 2.90575 0.746069 0
    endloop
  endfacet
  facet normal 0 0 -1
    outer loop
      vertex 2.42705 -1.76336 0
      vertex 6.38153 -4.40877 0
      vertex 6.04508 -4.93893 0
    endloop
  endfacet
  facet normal -0 0 -1
    outer loop
      vertex 7 2 0
      vertex 2.78933 1.10437 0
      vertex 6.96057 2.62667 0
    endloop
  endfacet
  facet normal 0 0 -1
    outer loop
      vertex 2.18691 -2.05364 0
      vertex 6.04508 -4.93893 0
      vertex 5.64484 -5.42274 0
    endloop
  endfacet
  facet normal 0 0 -1
    outer loop
      vertex 2.62892 1.44526 0
      vertex 6.96057 2.62667 0
      vertex 2.78933 1.10437 0
    endloop
  endfacet
  facet normal 0 0 -1
    outer loop
      vertex 2.18691 -2.05364 0
      vertex 5.64484 -5.42274 0
      vertex 5.18712 -5.85257 0
    endloop
  endfacet
  facet normal -0 0 -1
    outer loop
      vertex 6.96057 2.62667 0
      vertex 2.62892 1.44526 0
      vertex 6.84292 3.24345 0
    endloop
  endfacet
  facet normal 0 0 -1
    outer loop
      vertex 1.91227 -2.31154 0
      vertex 5.18712 -5.85257 0
      vertex 4.67913 -6.22164 0
    endloop
  endfacet
  facet normal -0 0 -1
    outer loop
      vertex 6.84292 3.24345 0
      vertex 2.62892 1.44526 0
      vertex 6.64888 3.84062 0
    endloop
  endfacet
  facet normal 0 0 -1
    outer loop
      vertex 1.91227 -2.31154 0
      vertex 4.67913 -6.22164 0
      vertex 4.1289 -6.52413 0
    endloop
  endfacet
  facet normal 0 0 -1
    outer loop
      vertex 2.42705 1.76336 0
      vertex 6.64888 3.84062 0
      vertex 2.62892 1.44526 0
    endloop
  endfacet
  facet normal 0 0 -1
    outer loop
      vertex 1.60748 -2.53298 0
      vertex 4.1289 -6.52413 0
      vertex 3.54508 -6.75528 0
    endloop
  endfacet
  facet normal -0 0 -1
    outer loop
      vertex 6.64888 3.84062 0
      vertex 2.42705 1.76336 0
      vertex 6.38153 4.40877 0
    endloop
  endfacet
  facet normal -0 0 -1
    outer loop
      vertex 6.38153 4.40877 0
      vertex 2.42705 1.76336 0
      vertex 6.04508 4.93893 0
    endloop
  endfacet
  facet normal 0 0 -1
    outer loop
      vertex 7 -2 0
      vertex 2.97634 -0.375999 0
      vertex 3 0 0
    endloop
  endfacet
  facet normal 0 0 -1
    outer loop
      vertex 1.60748 -2.53298 0
      vertex 3.54508 -6.75528 0
      vertex 2.93691 -6.91144 0
    endloop
  endfacet
  facet normal 0 0 -1
    outer loop
      vertex 7 -2 0
      vertex 2.90575 -0.746069 0
      vertex 2.97634 -0.375999 0
    endloop
  endfacet
  facet normal 0 0 -1
    outer loop
      vertex 7 -2 0
      vertex 2.78933 -1.10437 0
      vertex 2.90575 -0.746069 0
    endloop
  endfacet
  facet normal 0 0 -1
    outer loop
      vertex 6.96057 -2.62667 0
      vertex 2.62892 -1.44526 0
      vertex 2.78933 -1.10437 0
    endloop
  endfacet
  facet normal 0 0 -1
    outer loop
      vertex 6.64888 -3.84062 0
      vertex 2.42705 -1.76336 0
      vertex 2.62892 -1.44526 0
    endloop
  endfacet
  facet normal 0 0 -1
    outer loop
      vertex 1.27734 -2.71448 0
      vertex 2.93691 -6.91144 0
      vertex 2.31395 -6.99013 0
    endloop
  endfacet
  facet normal 0 0 -1
    outer loop
      vertex 6.04508 -4.93893 0
      vertex 2.18691 -2.05364 0
      vertex 2.42705 -1.76336 0
    endloop
  endfacet
  facet normal 0 0 -1
    outer loop
      vertex 5.18712 -5.85257 0
      vertex 1.91227 -2.31154 0
      vertex 2.18691 -2.05364 0
    endloop
  endfacet
  facet normal 0 0 -1
    outer loop
      vertex 4.1289 -6.52413 0
      vertex 1.60748 -2.53298 0
      vertex 1.91227 -2.31154 0
    endloop
  endfacet
  facet normal 0 0 -1
    outer loop
      vertex 2.93691 -6.91144 0
      vertex 1.27734 -2.71448 0
      vertex 1.60748 -2.53298 0
    endloop
  endfacet
  facet normal 0 0 -1
    outer loop
      vertex 2.31395 -6.99013 0
      vertex 0.927051 -2.85317 0
      vertex 1.27734 -2.71448 0
    endloop
  endfacet
  facet normal 0 0 -1
    outer loop
      vertex 2.31395 -6.99013 0
      vertex 0.562143 -2.94686 0
      vertex 0.927051 -2.85317 0
    endloop
  endfacet
  facet normal 0 0 -1
    outer loop
      vertex 2.31395 -6.99013 0
      vertex 0.188371 -2.99408 0
      vertex 0.562143 -2.94686 0
    endloop
  endfacet
  facet normal 0 0 -1
    outer loop
      vertex 2.31395 -6.99013 0
      vertex -0.188371 -2.99408 0
      vertex 0.188371 -2.99408 0
    endloop
  endfacet
  facet normal 0 0 -1
    outer loop
      vertex -2.31395 -6.99013 0
      vertex -0.188371 -2.99408 0
      vertex 2.31395 -6.99013 0
    endloop
  endfacet
  facet normal -0 0 -1
    outer loop
      vertex -0.188371 -2.99408 0
      vertex -2.31395 -6.99013 0
      vertex -0.562143 -2.94686 0
    endloop
  endfacet
  facet normal -0 0 -1
    outer loop
      vertex -0.562143 -2.94686 0
      vertex -2.31395 -6.99013 0
      vertex -0.927051 -2.85317 0
    endloop
  endfacet
  facet normal -0 0 -1
    outer loop
      vertex -0.927051 -2.85317 0
      vertex -2.31395 -6.99013 0
      vertex -1.27734 -2.71448 0
    endloop
  endfacet
  facet normal 0 0 -1
    outer loop
      vertex -2.93691 -6.91144 0
      vertex -1.27734 -2.71448 0
      vertex -2.31395 -6.99013 0
    endloop
  endfacet
  facet normal -0 0 -1
    outer loop
      vertex -1.27734 -2.71448 0
      vertex -2.93691 -6.91144 0
      vertex -1.60748 -2.53298 0
    endloop
  endfacet
  facet normal 0 0 -1
    outer loop
      vertex -3.54508 -6.75528 0
      vertex -1.60748 -2.53298 0
      vertex -2.93691 -6.91144 0
    endloop
  endfacet
  facet normal 0 0 -1
    outer loop
      vertex -4.1289 -6.52413 0
      vertex -1.60748 -2.53298 0
      vertex -3.54508 -6.75528 0
    endloop
  endfacet
  facet normal -0 0 -1
    outer loop
      vertex -1.60748 -2.53298 0
      vertex -4.1289 -6.52413 0
      vertex -1.91227 -2.31154 0
    endloop
  endfacet
  facet normal 0 0 -1
    outer loop
      vertex -4.67913 -6.22164 0
      vertex -1.91227 -2.31154 0
      vertex -4.1289 -6.52413 0
    endloop
  endfacet
  facet normal 0 0 -1
    outer loop
      vertex -5.18712 -5.85257 0
      vertex -1.91227 -2.31154 0
      vertex -4.67913 -6.22164 0
    endloop
  endfacet
  facet normal -0 0 -1
    outer loop
      vertex -1.91227 -2.31154 0
      vertex -5.18712 -5.85257 0
      vertex -2.18691 -2.05364 0
    endloop
  endfacet
  facet normal 0 0 -1
    outer loop
      vertex -5.64484 -5.42274 0
      vertex -2.18691 -2.05364 0
      vertex -5.18712 -5.85257 0
    endloop
  endfacet
  facet normal 0 0 -1
    outer loop
      vertex -6.04508 -4.93893 0
      vertex -2.18691 -2.05364 0
      vertex -5.64484 -5.42274 0
    endloop
  endfacet
  facet normal -0 0 -1
    outer loop
      vertex -2.18691 -2.05364 0
      vertex -6.04508 -4.93893 0
      vertex -2.42705 -1.76336 0
    endloop
  endfacet
  facet normal 0 0 -1
    outer loop
      vertex 2.18691 2.05364 0
      vertex 6.04508 4.93893 0
      vertex 2.42705 1.76336 0
    endloop
  endfacet
  facet normal -0 0 -1
    outer loop
      vertex 6.04508 4.93893 0
      vertex 2.18691 2.05364 0
      vertex 5.64484 5.42274 0
    endloop
  endfacet
  facet normal -0 0 -1
    outer loop
      vertex 5.64484 5.42274 0
      vertex 2.18691 2.05364 0
      vertex 5.18712 5.85257 0
    endloop
  endfacet
  facet normal 0 0 -1
    outer loop
      vertex 1.91227 2.31154 0
      vertex 5.18712 5.85257 0
      vertex 2.18691 2.05364 0
    endloop
  endfacet
  facet normal -0 0 -1
    outer loop
      vertex 5.18712 5.85257 0
      vertex 1.91227 2.31154 0
      vertex 4.67913 6.22164 0
    endloop
  endfacet
  facet normal -0 0 -1
    outer loop
      vertex 4.67913 6.22164 0
      vertex 1.91227 2.31154 0
      vertex 4.1289 6.52413 0
    endloop
  endfacet
  facet normal 0 0 -1
    outer loop
      vertex 1.60748 2.53298 0
      vertex 4.1289 6.52413 0
      vertex 1.91227 2.31154 0
    endloop
  endfacet
  facet normal -0 0 -1
    outer loop
      vertex 4.1289 6.52413 0
      vertex 1.60748 2.53298 0
      vertex 3.54508 6.75528 0
    endloop
  endfacet
  facet normal -0 0 -1
    outer loop
      vertex 3.54508 6.75528 0
      vertex 1.60748 2.53298 0
      vertex 2.93691 6.91144 0
    endloop
  endfacet
  facet normal 0 0 -1
    outer loop
      vertex 1.27734 2.71448 0
      vertex 2.93691 6.91144 0
      vertex 1.60748 2.53298 0
    endloop
  endfacet
  facet normal -0 0 -1
    outer loop
      vertex 2.93691 6.91144 0
      vertex 1.27734 2.71448 0
      vertex 2.31395 6.99013 0
    endloop
  endfacet
  facet normal 0 0 -1
    outer loop
      vertex 0.927051 2.85317 0
      vertex 2.31395 6.99013 0
      vertex 1.27734 2.71448 0
    endloop
  endfacet
  facet normal 0 0 -1
    outer loop
      vertex 0.562143 2.94686 0
      vertex 2.31395 6.99013 0
      vertex 0.927051 2.85317 0
    endloop
  endfacet
  facet normal 0 0 -1
    outer loop
      vertex 0.188371 2.99408 0
      vertex 2.31395 6.99013 0
      vertex 0.562143 2.94686 0
    endloop
  endfacet
  facet normal 0 0 -1
    outer loop
      vertex -0.188371 2.99408 0
      vertex 2.31395 6.99013 0
      vertex 0.188371 2.99408 0
    endloop
  endfacet
  facet normal 0 0 -1
    outer loop
      vertex -2.31395 6.99013 0
      vertex -0.188371 2.99408 0
      vertex -0.562143 2.94686 0
    endloop
  endfacet
  facet normal 0 0 -1
    outer loop
      vertex -2.31395 6.99013 0
      vertex -0.562143 2.94686 0
      vertex -0.927051 2.85317 0
    endloop
  endfacet
  facet normal 0 0 -1
    outer loop
      vertex -2.31395 6.99013 0
      vertex -0.927051 2.85317 0
      vertex -1.27734 2.71448 0
    endloop
  endfacet
  facet normal 0 0 -1
    outer loop
      vertex -2.93691 6.91144 0
      vertex -1.27734 2.71448 0
      vertex -1.60748 2.53298 0
    endloop
  endfacet
  facet normal 0 0 -1
    outer loop
      vertex -4.1289 6.52413 0
      vertex -1.60748 2.53298 0
      vertex -1.91227 2.31154 0
    endloop
  endfacet
  facet normal 0 0 -1
    outer loop
      vertex -5.18712 5.85257 0
      vertex -1.91227 2.31154 0
      vertex -2.18691 2.05364 0
    endloop
  endfacet
  facet normal 0 0 -1
    outer loop
      vertex -0.188371 2.99408 0
      vertex -2.31395 6.99013 0
      vertex 2.31395 6.99013 0
    endloop
  endfacet
  facet normal 0 0 -1
    outer loop
      vertex -6.04508 4.93893 0
      vertex -2.18691 2.05364 0
      vertex -2.42705 1.76336 0
    endloop
  endfacet
  facet normal 0 0 -1
    outer loop
      vertex -6.64888 3.84062 0
      vertex -2.42705 1.76336 0
      vertex -2.62892 1.44526 0
    endloop
  endfacet
  facet normal 0 0 -1
    outer loop
      vertex -6.96057 2.62667 0
      vertex -2.62892 1.44526 0
      vertex -2.78933 1.10437 0
    endloop
  endfacet
  facet normal 0 0 -1
    outer loop
      vertex -7 2 0
      vertex -2.78933 1.10437 0
      vertex -2.90575 0.746069 0
    endloop
  endfacet
  facet normal 0 0 -1
    outer loop
      vertex -1.27734 2.71448 0
      vertex -2.93691 6.91144 0
      vertex -2.31395 6.99013 0
    endloop
  endfacet
  facet normal 0 0 -1
    outer loop
      vertex -7 2 0
      vertex -2.90575 0.746069 0
      vertex -2.97634 0.375999 0
    endloop
  endfacet
  facet normal 0 0 -1
    outer loop
      vertex -7 2 0
      vertex -2.97634 0.375999 0
      vertex -3 0 0
    endloop
  endfacet
  facet normal 0 0 -1
    outer loop
      vertex -6.38153 -4.40877 0
      vertex -2.42705 -1.76336 0
      vertex -6.04508 -4.93893 0
    endloop
  endfacet
  facet normal 0 0 -1
    outer loop
      vertex -7 2 0
      vertex -3 0 0
      vertex -7 -2 0
    endloop
  endfacet
  facet normal 0 0 -1
    outer loop
      vertex -6.64888 -3.84062 0
      vertex -2.42705 -1.76336 0
      vertex -6.38153 -4.40877 0
    endloop
  endfacet
  facet normal 0 0 -1
    outer loop
      vertex -2.78933 1.10437 0
      vertex -7 2 0
      vertex -6.96057 2.62667 0
    endloop
  endfacet
  facet normal -0 0 -1
    outer loop
      vertex -2.42705 -1.76336 0
      vertex -6.64888 -3.84062 0
      vertex -2.62892 -1.44526 0
    endloop
  endfacet
  facet normal 0 0 -1
    outer loop
      vertex -1.60748 2.53298 0
      vertex -3.54508 6.75528 0
      vertex -2.93691 6.91144 0
    endloop
  endfacet
  facet normal 0 0 -1
    outer loop
      vertex -6.84292 -3.24345 0
      vertex -2.62892 -1.44526 0
      vertex -6.64888 -3.84062 0
    endloop
  endfacet
  facet normal 0 0 -1
    outer loop
      vertex -1.60748 2.53298 0
      vertex -4.1289 6.52413 0
      vertex -3.54508 6.75528 0
    endloop
  endfacet
  facet normal 0 0 -1
    outer loop
      vertex -6.96057 -2.62667 0
      vertex -2.62892 -1.44526 0
      vertex -6.84292 -3.24345 0
    endloop
  endfacet
  facet normal 0 0 -1
    outer loop
      vertex -1.91227 2.31154 0
      vertex -4.67913 6.22164 0
      vertex -4.1289 6.52413 0
    endloop
  endfacet
  facet normal -0 0 -1
    outer loop
      vertex -2.62892 -1.44526 0
      vertex -6.96057 -2.62667 0
      vertex -2.78933 -1.10437 0
    endloop
  endfacet
  facet normal 0 0 -1
    outer loop
      vertex -1.91227 2.31154 0
      vertex -5.18712 5.85257 0
      vertex -4.67913 6.22164 0
    endloop
  endfacet
  facet normal 0 0 -1
    outer loop
      vertex -7 -2 0
      vertex -2.78933 -1.10437 0
      vertex -6.96057 -2.62667 0
    endloop
  endfacet
  facet normal 0 0 -1
    outer loop
      vertex -2.18691 2.05364 0
      vertex -5.64484 5.42274 0
      vertex -5.18712 5.85257 0
    endloop
  endfacet
  facet normal -0 0 -1
    outer loop
      vertex -2.78933 -1.10437 0
      vertex -7 -2 0
      vertex -2.90575 -0.746069 0
    endloop
  endfacet
  facet normal 0 0 -1
    outer loop
      vertex -2.18691 2.05364 0
      vertex -6.04508 4.93893 0
      vertex -5.64484 5.42274 0
    endloop
  endfacet
  facet normal -0 0 -1
    outer loop
      vertex -2.90575 -0.746069 0
      vertex -7 -2 0
      vertex -2.97634 -0.375999 0
    endloop
  endfacet
  facet normal 0 0 -1
    outer loop
      vertex -2.42705 1.76336 0
      vertex -6.38153 4.40877 0
      vertex -6.04508 4.93893 0
    endloop
  endfacet
  facet normal -0 0 -1
    outer loop
      vertex -2.97634 -0.375999 0
      vertex -7 -2 0
      vertex -3 0 0
    endloop
  endfacet
  facet normal 0 0 -1
    outer loop
      vertex -2.42705 1.76336 0
      vertex -6.64888 3.84062 0
      vertex -6.38153 4.40877 0
    endloop
  endfacet
  facet normal 0 0 -1
    outer loop
      vertex -2.62892 1.44526 0
      vertex -6.84292 3.24345 0
      vertex -6.64888 3.84062 0
    endloop
  endfacet
  facet normal 0 0 -1
    outer loop
      vertex -2.62892 1.44526 0
      vertex -6.96057 2.62667 0
      vertex -6.84292 3.24345 0
    endloop
  endfacet
  facet normal 0.587779 -0.809022 0
    outer loop
      vertex 4.67913 -6.22164 0
      vertex 5.18712 -5.85257 9
      vertex 4.67913 -6.22164 9
    endloop
  endfacet
  facet normal 0.587779 -0.809022 0
    outer loop
      vertex 5.18712 -5.85257 9
      vertex 4.67913 -6.22164 0
      vertex 5.18712 -5.85257 0
    endloop
  endfacet
  facet normal 0.844328 -0.535827 0
    outer loop
      vertex 6.04508 -4.93893 9
      vertex 6.38153 -4.40877 0
      vertex 6.38153 -4.40877 9
    endloop
  endfacet
  facet normal 0.844328 -0.535827 0
    outer loop
      vertex 6.38153 -4.40877 0
      vertex 6.04508 -4.93893 9
      vertex 6.04508 -4.93893 0
    endloop
  endfacet
  facet normal 0.684549 -0.728967 0
    outer loop
      vertex 5.18712 -5.85257 0
      vertex 5.64484 -5.42274 9
      vertex 5.18712 -5.85257 9
    endloop
  endfacet
  facet normal 0.684549 -0.728967 0
    outer loop
      vertex 5.64484 -5.42274 9
      vertex 5.18712 -5.85257 0
      vertex 5.64484 -5.42274 0
    endloop
  endfacet
  facet normal 0.998026 -0.0627957 0
    outer loop
      vertex 6.96057 -2.62667 9
      vertex 7 -2 0
      vertex 7 -2 9
    endloop
  endfacet
  facet normal 0.998026 -0.0627957 0
    outer loop
      vertex 7 -2 0
      vertex 6.96057 -2.62667 9
      vertex 6.96057 -2.62667 0
    endloop
  endfacet
  facet normal 0.982289 -0.18737 0
    outer loop
      vertex 6.84292 -3.24345 9
      vertex 6.96057 -2.62667 0
      vertex 6.96057 -2.62667 9
    endloop
  endfacet
  facet normal 0.982289 -0.18737 0
    outer loop
      vertex 6.96057 -2.62667 0
      vertex 6.84292 -3.24345 9
      vertex 6.84292 -3.24345 0
    endloop
  endfacet
  facet normal -0.982289 0.18737 0
    outer loop
      vertex -6.96057 2.62667 0
      vertex -6.84292 3.24345 9
      vertex -6.84292 3.24345 0
    endloop
  endfacet
  facet normal -0.982289 0.18737 0
    outer loop
      vertex -6.84292 3.24345 9
      vertex -6.96057 2.62667 0
      vertex -6.96057 2.62667 9
    endloop
  endfacet
  facet normal -0.844328 0.535827 0
    outer loop
      vertex -6.38153 4.40877 0
      vertex -6.04508 4.93893 9
      vertex -6.04508 4.93893 0
    endloop
  endfacet
  facet normal -0.844328 0.535827 0
    outer loop
      vertex -6.04508 4.93893 9
      vertex -6.38153 4.40877 0
      vertex -6.38153 4.40877 9
    endloop
  endfacet
  facet normal -0.904828 0.425778 0
    outer loop
      vertex -6.64888 3.84062 0
      vertex -6.38153 4.40877 9
      vertex -6.38153 4.40877 0
    endloop
  endfacet
  facet normal -0.904828 0.425778 0
    outer loop
      vertex -6.38153 4.40877 9
      vertex -6.64888 3.84062 0
      vertex -6.64888 3.84062 9
    endloop
  endfacet
  facet normal -0.248703 0.96858 0
    outer loop
      vertex -2.93691 6.91144 0
      vertex -3.54508 6.75528 9
      vertex -2.93691 6.91144 9
    endloop
  endfacet
  facet normal -0.248703 0.96858 0
    outer loop
      vertex -3.54508 6.75528 9
      vertex -2.93691 6.91144 0
      vertex -3.54508 6.75528 0
    endloop
  endfacet
  facet normal 0.951053 0.309028 0
    outer loop
      vertex 6.84292 3.24345 9
      vertex 6.64888 3.84062 0
      vertex 6.64888 3.84062 9
    endloop
  endfacet
  facet normal 0.951053 0.309028 0
    outer loop
      vertex 6.64888 3.84062 0
      vertex 6.84292 3.24345 9
      vertex 6.84292 3.24345 0
    endloop
  endfacet
  facet normal 0.904828 0.425778 0
    outer loop
      vertex 6.64888 3.84062 9
      vertex 6.38153 4.40877 0
      vertex 6.38153 4.40877 9
    endloop
  endfacet
  facet normal 0.904828 0.425778 0
    outer loop
      vertex 6.38153 4.40877 0
      vertex 6.64888 3.84062 9
      vertex 6.64888 3.84062 0
    endloop
  endfacet
  facet normal 0.248703 0.96858 -0
    outer loop
      vertex 3.54508 6.75528 0
      vertex 2.93691 6.91144 9
      vertex 3.54508 6.75528 9
    endloop
  endfacet
  facet normal 0.248703 0.96858 0
    outer loop
      vertex 2.93691 6.91144 9
      vertex 3.54508 6.75528 0
      vertex 2.93691 6.91144 0
    endloop
  endfacet
  facet normal -0.684549 -0.728967 0
    outer loop
      vertex -5.64484 -5.42274 0
      vertex -5.18712 -5.85257 9
      vertex -5.64484 -5.42274 9
    endloop
  endfacet
  facet normal -0.684549 -0.728967 -0
    outer loop
      vertex -5.18712 -5.85257 9
      vertex -5.64484 -5.42274 0
      vertex -5.18712 -5.85257 0
    endloop
  endfacet
  facet normal -0.904828 -0.425778 0
    outer loop
      vertex -6.38153 -4.40877 0
      vertex -6.64888 -3.84062 9
      vertex -6.64888 -3.84062 0
    endloop
  endfacet
  facet normal -0.904828 -0.425778 0
    outer loop
      vertex -6.64888 -3.84062 9
      vertex -6.38153 -4.40877 0
      vertex -6.38153 -4.40877 9
    endloop
  endfacet
  facet normal -0.982289 -0.18737 0
    outer loop
      vertex -6.84292 -3.24345 0
      vertex -6.96057 -2.62667 9
      vertex -6.96057 -2.62667 0
    endloop
  endfacet
  facet normal -0.982289 -0.18737 0
    outer loop
      vertex -6.96057 -2.62667 9
      vertex -6.84292 -3.24345 0
      vertex -6.84292 -3.24345 9
    endloop
  endfacet
  facet normal 0.481752 -0.876308 0
    outer loop
      vertex 4.1289 -6.52413 0
      vertex 4.67913 -6.22164 9
      vertex 4.1289 -6.52413 9
    endloop
  endfacet
  facet normal 0.481752 -0.876308 0
    outer loop
      vertex 4.67913 -6.22164 9
      vertex 4.1289 -6.52413 0
      vertex 4.67913 -6.22164 0
    endloop
  endfacet
  facet normal -0.587779 0.809022 0
    outer loop
      vertex -4.67913 6.22164 0
      vertex -5.18712 5.85257 9
      vertex -4.67913 6.22164 9
    endloop
  endfacet
  facet normal -0.587779 0.809022 0
    outer loop
      vertex -5.18712 5.85257 9
      vertex -4.67913 6.22164 0
      vertex -5.18712 5.85257 0
    endloop
  endfacet
  facet normal -0.481752 0.876308 0
    outer loop
      vertex -4.1289 6.52413 0
      vertex -4.67913 6.22164 9
      vertex -4.1289 6.52413 9
    endloop
  endfacet
  facet normal -0.481752 0.876308 0
    outer loop
      vertex -4.67913 6.22164 9
      vertex -4.1289 6.52413 0
      vertex -4.67913 6.22164 0
    endloop
  endfacet
  facet normal 0.998026 0.0627957 0
    outer loop
      vertex 7 2 9
      vertex 6.96057 2.62667 0
      vertex 6.96057 2.62667 9
    endloop
  endfacet
  facet normal 0.998026 0.0627957 0
    outer loop
      vertex 6.96057 2.62667 0
      vertex 7 2 9
      vertex 7 2 0
    endloop
  endfacet
  facet normal 0.587779 0.809022 -0
    outer loop
      vertex 5.18712 5.85257 0
      vertex 4.67913 6.22164 9
      vertex 5.18712 5.85257 9
    endloop
  endfacet
  facet normal 0.587779 0.809022 0
    outer loop
      vertex 4.67913 6.22164 9
      vertex 5.18712 5.85257 0
      vertex 4.67913 6.22164 0
    endloop
  endfacet
  facet normal 0.12532 0.992116 -0
    outer loop
      vertex 2.93691 6.91144 0
      vertex 2.31395 6.99013 9
      vertex 2.93691 6.91144 9
    endloop
  endfacet
  facet normal 0.12532 0.992116 0
    outer loop
      vertex 2.31395 6.99013 9
      vertex 2.93691 6.91144 0
      vertex 2.31395 6.99013 0
    endloop
  endfacet
  facet normal 0.982289 0.18737 0
    outer loop
      vertex 6.96057 2.62667 9
      vertex 6.84292 3.24345 0
      vertex 6.84292 3.24345 9
    endloop
  endfacet
  facet normal 0.982289 0.18737 0
    outer loop
      vertex 6.84292 3.24345 0
      vertex 6.96057 2.62667 9
      vertex 6.96057 2.62667 0
    endloop
  endfacet
  facet normal 0.481752 0.876308 -0
    outer loop
      vertex 4.67913 6.22164 0
      vertex 4.1289 6.52413 9
      vertex 4.67913 6.22164 9
    endloop
  endfacet
  facet normal 0.481752 0.876308 0
    outer loop
      vertex 4.1289 6.52413 9
      vertex 4.67913 6.22164 0
      vertex 4.1289 6.52413 0
    endloop
  endfacet
  facet normal 0.684549 0.728967 -0
    outer loop
      vertex 5.64484 5.42274 0
      vertex 5.18712 5.85257 9
      vertex 5.64484 5.42274 9
    endloop
  endfacet
  facet normal 0.684549 0.728967 0
    outer loop
      vertex 5.18712 5.85257 9
      vertex 5.64484 5.42274 0
      vertex 5.18712 5.85257 0
    endloop
  endfacet
  facet normal 0.770515 0.637422 0
    outer loop
      vertex 6.04508 4.93893 9
      vertex 5.64484 5.42274 0
      vertex 5.64484 5.42274 9
    endloop
  endfacet
  facet normal 0.770515 0.637422 0
    outer loop
      vertex 5.64484 5.42274 0
      vertex 6.04508 4.93893 9
      vertex 6.04508 4.93893 0
    endloop
  endfacet
  facet normal 0.368124 0.929777 -0
    outer loop
      vertex 4.1289 6.52413 0
      vertex 3.54508 6.75528 9
      vertex 4.1289 6.52413 9
    endloop
  endfacet
  facet normal 0.368124 0.929777 0
    outer loop
      vertex 3.54508 6.75528 9
      vertex 4.1289 6.52413 0
      vertex 3.54508 6.75528 0
    endloop
  endfacet
  facet normal -0.844331 -0.535822 0
    outer loop
      vertex 2.62892 1.44526 0
      vertex 2.42705 1.76336 9
      vertex 2.42705 1.76336 0
    endloop
  endfacet
  facet normal -0.844331 -0.535822 0
    outer loop
      vertex 2.42705 1.76336 9
      vertex 2.62892 1.44526 0
      vertex 2.62892 1.44526 9
    endloop
  endfacet
  facet normal -0.368126 -0.929776 0
    outer loop
      vertex 0.927051 2.85317 0
      vertex 1.27734 2.71448 9
      vertex 0.927051 2.85317 9
    endloop
  endfacet
  facet normal -0.368126 -0.929776 -0
    outer loop
      vertex 1.27734 2.71448 9
      vertex 0.927051 2.85317 0
      vertex 1.27734 2.71448 0
    endloop
  endfacet
  facet normal 0.368126 -0.929776 0
    outer loop
      vertex -1.27734 2.71448 0
      vertex -0.927051 2.85317 9
      vertex -1.27734 2.71448 9
    endloop
  endfacet
  facet normal 0.368126 -0.929776 0
    outer loop
      vertex -0.927051 2.85317 9
      vertex -1.27734 2.71448 0
      vertex -0.927051 2.85317 0
    endloop
  endfacet
  facet normal 0.904828 -0.425778 0
    outer loop
      vertex -2.78933 1.10437 9
      vertex -2.62892 1.44526 0
      vertex -2.62892 1.44526 9
    endloop
  endfacet
  facet normal 0.904828 -0.425778 0
    outer loop
      vertex -2.62892 1.44526 0
      vertex -2.78933 1.10437 9
      vertex -2.78933 1.10437 0
    endloop
  endfacet
  facet normal -0.98229 0.187369 0
    outer loop
      vertex 2.90575 -0.746069 0
      vertex 2.97634 -0.375999 9
      vertex 2.97634 -0.375999 0
    endloop
  endfacet
  facet normal -0.98229 0.187369 0
    outer loop
      vertex 2.97634 -0.375999 9
      vertex 2.90575 -0.746069 0
      vertex 2.90575 -0.746069 9
    endloop
  endfacet
  facet normal -0.684541 -0.728974 0
    outer loop
      vertex 1.91227 2.31154 0
      vertex 2.18691 2.05364 9
      vertex 1.91227 2.31154 9
    endloop
  endfacet
  facet normal -0.684541 -0.728974 -0
    outer loop
      vertex 2.18691 2.05364 9
      vertex 1.91227 2.31154 0
      vertex 2.18691 2.05364 0
    endloop
  endfacet
  facet normal -0.58778 -0.809021 0
    outer loop
      vertex 1.60748 2.53298 0
      vertex 1.91227 2.31154 9
      vertex 1.60748 2.53298 9
    endloop
  endfacet
  facet normal -0.58778 -0.809021 -0
    outer loop
      vertex 1.91227 2.31154 9
      vertex 1.60748 2.53298 0
      vertex 1.91227 2.31154 0
    endloop
  endfacet
  facet normal 0.98229 -0.187369 0
    outer loop
      vertex -2.97634 0.375999 9
      vertex -2.90575 0.746069 0
      vertex -2.90575 0.746069 9
    endloop
  endfacet
  facet normal 0.98229 -0.187369 0
    outer loop
      vertex -2.90575 0.746069 0
      vertex -2.97634 0.375999 9
      vertex -2.97634 0.375999 0
    endloop
  endfacet
  facet normal 0.770514 -0.637423 0
    outer loop
      vertex -2.42705 1.76336 9
      vertex -2.18691 2.05364 0
      vertex -2.18691 2.05364 9
    endloop
  endfacet
  facet normal 0.770514 -0.637423 0
    outer loop
      vertex -2.18691 2.05364 0
      vertex -2.42705 1.76336 9
      vertex -2.42705 1.76336 0
    endloop
  endfacet
  facet normal 0.248684 -0.968585 0
    outer loop
      vertex -0.927051 2.85317 0
      vertex -0.562143 2.94686 9
      vertex -0.927051 2.85317 9
    endloop
  endfacet
  facet normal 0.248684 -0.968585 0
    outer loop
      vertex -0.562143 2.94686 9
      vertex -0.927051 2.85317 0
      vertex -0.562143 2.94686 0
    endloop
  endfacet
  facet normal 0.684541 -0.728974 0
    outer loop
      vertex -2.18691 2.05364 0
      vertex -1.91227 2.31154 9
      vertex -2.18691 2.05364 9
    endloop
  endfacet
  facet normal 0.684541 -0.728974 0
    outer loop
      vertex -1.91227 2.31154 9
      vertex -2.18691 2.05364 0
      vertex -1.91227 2.31154 0
    endloop
  endfacet
  facet normal -0.998026 -0.0628015 0
    outer loop
      vertex 3 0 0
      vertex 2.97634 0.375999 9
      vertex 2.97634 0.375999 0
    endloop
  endfacet
  facet normal -0.998026 -0.0628015 0
    outer loop
      vertex 2.97634 0.375999 9
      vertex 3 0 0
      vertex 3 0 9
    endloop
  endfacet
  facet normal -0.770514 -0.637423 0
    outer loop
      vertex 2.42705 1.76336 0
      vertex 2.18691 2.05364 9
      vertex 2.18691 2.05364 0
    endloop
  endfacet
  facet normal -0.770514 -0.637423 0
    outer loop
      vertex 2.18691 2.05364 9
      vertex 2.42705 1.76336 0
      vertex 2.42705 1.76336 9
    endloop
  endfacet
  facet normal 0 -1 0
    outer loop
      vertex -0.188371 2.99408 0
      vertex 0.188371 2.99408 9
      vertex -0.188371 2.99408 9
    endloop
  endfacet
  facet normal 0 -1 -0
    outer loop
      vertex 0.188371 2.99408 9
      vertex -0.188371 2.99408 0
      vertex 0.188371 2.99408 0
    endloop
  endfacet
  facet normal -0.248684 -0.968585 0
    outer loop
      vertex 0.562143 2.94686 0
      vertex 0.927051 2.85317 9
      vertex 0.562143 2.94686 9
    endloop
  endfacet
  facet normal -0.248684 -0.968585 -0
    outer loop
      vertex 0.927051 2.85317 9
      vertex 0.562143 2.94686 0
      vertex 0.927051 2.85317 0
    endloop
  endfacet
  facet normal -0.481762 -0.876302 0
    outer loop
      vertex 1.27734 2.71448 0
      vertex 1.60748 2.53298 9
      vertex 1.27734 2.71448 9
    endloop
  endfacet
  facet normal -0.481762 -0.876302 -0
    outer loop
      vertex 1.60748 2.53298 9
      vertex 1.27734 2.71448 0
      vertex 1.60748 2.53298 0
    endloop
  endfacet
  facet normal 0.998026 -0.0628015 0
    outer loop
      vertex -3 0 9
      vertex -2.97634 0.375999 0
      vertex -2.97634 0.375999 9
    endloop
  endfacet
  facet normal 0.998026 -0.0628015 0
    outer loop
      vertex -2.97634 0.375999 0
      vertex -3 0 9
      vertex -3 0 0
    endloop
  endfacet
  facet normal 0.951056 -0.309019 0
    outer loop
      vertex -2.90575 0.746069 9
      vertex -2.78933 1.10437 0
      vertex -2.78933 1.10437 9
    endloop
  endfacet
  facet normal 0.951056 -0.309019 0
    outer loop
      vertex -2.78933 1.10437 0
      vertex -2.90575 0.746069 9
      vertex -2.90575 0.746069 0
    endloop
  endfacet
  facet normal 0.844331 -0.535822 0
    outer loop
      vertex -2.62892 1.44526 9
      vertex -2.42705 1.76336 0
      vertex -2.42705 1.76336 9
    endloop
  endfacet
  facet normal 0.844331 -0.535822 0
    outer loop
      vertex -2.42705 1.76336 0
      vertex -2.62892 1.44526 9
      vertex -2.62892 1.44526 0
    endloop
  endfacet
  facet normal 0.125337 -0.992114 0
    outer loop
      vertex -0.562143 2.94686 0
      vertex -0.188371 2.99408 9
      vertex -0.562143 2.94686 9
    endloop
  endfacet
  facet normal 0.125337 -0.992114 0
    outer loop
      vertex -0.188371 2.99408 9
      vertex -0.562143 2.94686 0
      vertex -0.188371 2.99408 0
    endloop
  endfacet
  facet normal 0.58778 -0.809021 0
    outer loop
      vertex -1.91227 2.31154 0
      vertex -1.60748 2.53298 9
      vertex -1.91227 2.31154 9
    endloop
  endfacet
  facet normal 0.58778 -0.809021 0
    outer loop
      vertex -1.60748 2.53298 9
      vertex -1.91227 2.31154 0
      vertex -1.60748 2.53298 0
    endloop
  endfacet
  facet normal 0.481762 -0.876302 0
    outer loop
      vertex -1.60748 2.53298 0
      vertex -1.27734 2.71448 9
      vertex -1.60748 2.53298 9
    endloop
  endfacet
  facet normal 0.481762 -0.876302 0
    outer loop
      vertex -1.27734 2.71448 9
      vertex -1.60748 2.53298 0
      vertex -1.27734 2.71448 0
    endloop
  endfacet
  facet normal -0.998026 0.0628015 0
    outer loop
      vertex 2.97634 -0.375999 0
      vertex 3 0 9
      vertex 3 0 0
    endloop
  endfacet
  facet normal -0.998026 0.0628015 0
    outer loop
      vertex 3 0 9
      vertex 2.97634 -0.375999 0
      vertex 2.97634 -0.375999 9
    endloop
  endfacet
  facet normal 0 1 -0
    outer loop
      vertex 0.188371 -2.99408 0
      vertex -0.188371 -2.99408 9
      vertex 0.188371 -2.99408 9
    endloop
  endfacet
  facet normal 0 1 0
    outer loop
      vertex -0.188371 -2.99408 9
      vertex 0.188371 -2.99408 0
      vertex -0.188371 -2.99408 0
    endloop
  endfacet
  facet normal 0.844331 0.535822 0
    outer loop
      vertex -2.42705 -1.76336 9
      vertex -2.62892 -1.44526 0
      vertex -2.62892 -1.44526 9
    endloop
  endfacet
  facet normal 0.844331 0.535822 0
    outer loop
      vertex -2.62892 -1.44526 0
      vertex -2.42705 -1.76336 9
      vertex -2.42705 -1.76336 0
    endloop
  endfacet
  facet normal -0.125337 0.992114 0
    outer loop
      vertex 0.562143 -2.94686 0
      vertex 0.188371 -2.99408 9
      vertex 0.562143 -2.94686 9
    endloop
  endfacet
  facet normal -0.125337 0.992114 0
    outer loop
      vertex 0.188371 -2.99408 9
      vertex 0.562143 -2.94686 0
      vertex 0.188371 -2.99408 0
    endloop
  endfacet
  facet normal -0.368126 0.929776 0
    outer loop
      vertex 1.27734 -2.71448 0
      vertex 0.927051 -2.85317 9
      vertex 1.27734 -2.71448 9
    endloop
  endfacet
  facet normal -0.368126 0.929776 0
    outer loop
      vertex 0.927051 -2.85317 9
      vertex 1.27734 -2.71448 0
      vertex 0.927051 -2.85317 0
    endloop
  endfacet
  facet normal -0.904828 -0.425778 0
    outer loop
      vertex 2.78933 1.10437 0
      vertex 2.62892 1.44526 9
      vertex 2.62892 1.44526 0
    endloop
  endfacet
  facet normal -0.904828 -0.425778 0
    outer loop
      vertex 2.62892 1.44526 9
      vertex 2.78933 1.10437 0
      vertex 2.78933 1.10437 9
    endloop
  endfacet
  facet normal -0.951056 -0.309019 0
    outer loop
      vertex 2.90575 0.746069 0
      vertex 2.78933 1.10437 9
      vertex 2.78933 1.10437 0
    endloop
  endfacet
  facet normal -0.951056 -0.309019 0
    outer loop
      vertex 2.78933 1.10437 9
      vertex 2.90575 0.746069 0
      vertex 2.90575 0.746069 9
    endloop
  endfacet
  facet normal -0.98229 -0.187369 0
    outer loop
      vertex 2.97634 0.375999 0
      vertex 2.90575 0.746069 9
      vertex 2.90575 0.746069 0
    endloop
  endfacet
  facet normal -0.98229 -0.187369 0
    outer loop
      vertex 2.90575 0.746069 9
      vertex 2.97634 0.375999 0
      vertex 2.97634 0.375999 9
    endloop
  endfacet
  facet normal -0.125337 -0.992114 0
    outer loop
      vertex 0.188371 2.99408 0
      vertex 0.562143 2.94686 9
      vertex 0.188371 2.99408 9
    endloop
  endfacet
  facet normal -0.125337 -0.992114 -0
    outer loop
      vertex 0.562143 2.94686 9
      vertex 0.188371 2.99408 0
      vertex 0.562143 2.94686 0
    endloop
  endfacet
  facet normal -0.904828 0.425778 0
    outer loop
      vertex 2.62892 -1.44526 0
      vertex 2.78933 -1.10437 9
      vertex 2.78933 -1.10437 0
    endloop
  endfacet
  facet normal -0.904828 0.425778 0
    outer loop
      vertex 2.78933 -1.10437 9
      vertex 2.62892 -1.44526 0
      vertex 2.62892 -1.44526 9
    endloop
  endfacet
  facet normal -0.951056 0.309019 0
    outer loop
      vertex 2.78933 -1.10437 0
      vertex 2.90575 -0.746069 9
      vertex 2.90575 -0.746069 0
    endloop
  endfacet
  facet normal -0.951056 0.309019 0
    outer loop
      vertex 2.90575 -0.746069 9
      vertex 2.78933 -1.10437 0
      vertex 2.78933 -1.10437 9
    endloop
  endfacet
  facet normal -0.684541 0.728974 0
    outer loop
      vertex 2.18691 -2.05364 0
      vertex 1.91227 -2.31154 9
      vertex 2.18691 -2.05364 9
    endloop
  endfacet
  facet normal -0.684541 0.728974 0
    outer loop
      vertex 1.91227 -2.31154 9
      vertex 2.18691 -2.05364 0
      vertex 1.91227 -2.31154 0
    endloop
  endfacet
  facet normal -0.770514 0.637423 0
    outer loop
      vertex 2.18691 -2.05364 0
      vertex 2.42705 -1.76336 9
      vertex 2.42705 -1.76336 0
    endloop
  endfacet
  facet normal -0.770514 0.637423 0
    outer loop
      vertex 2.42705 -1.76336 9
      vertex 2.18691 -2.05364 0
      vertex 2.18691 -2.05364 9
    endloop
  endfacet
  facet normal -0.844331 0.535822 0
    outer loop
      vertex 2.42705 -1.76336 0
      vertex 2.62892 -1.44526 9
      vertex 2.62892 -1.44526 0
    endloop
  endfacet
  facet normal -0.844331 0.535822 0
    outer loop
      vertex 2.62892 -1.44526 9
      vertex 2.42705 -1.76336 0
      vertex 2.42705 -1.76336 9
    endloop
  endfacet
  facet normal 0.904828 0.425778 0
    outer loop
      vertex -2.62892 -1.44526 9
      vertex -2.78933 -1.10437 0
      vertex -2.78933 -1.10437 9
    endloop
  endfacet
  facet normal 0.904828 0.425778 0
    outer loop
      vertex -2.78933 -1.10437 0
      vertex -2.62892 -1.44526 9
      vertex -2.62892 -1.44526 0
    endloop
  endfacet
  facet normal 0.684541 0.728974 -0
    outer loop
      vertex -1.91227 -2.31154 0
      vertex -2.18691 -2.05364 9
      vertex -1.91227 -2.31154 9
    endloop
  endfacet
  facet normal 0.684541 0.728974 0
    outer loop
      vertex -2.18691 -2.05364 9
      vertex -1.91227 -2.31154 0
      vertex -2.18691 -2.05364 0
    endloop
  endfacet
  facet normal -0.248684 0.968585 0
    outer loop
      vertex 0.927051 -2.85317 0
      vertex 0.562143 -2.94686 9
      vertex 0.927051 -2.85317 9
    endloop
  endfacet
  facet normal -0.248684 0.968585 0
    outer loop
      vertex 0.562143 -2.94686 9
      vertex 0.927051 -2.85317 0
      vertex 0.562143 -2.94686 0
    endloop
  endfacet
  facet normal -0.58778 0.809021 0
    outer loop
      vertex 1.91227 -2.31154 0
      vertex 1.60748 -2.53298 9
      vertex 1.91227 -2.31154 9
    endloop
  endfacet
  facet normal -0.58778 0.809021 0
    outer loop
      vertex 1.60748 -2.53298 9
      vertex 1.91227 -2.31154 0
      vertex 1.60748 -2.53298 0
    endloop
  endfacet
  facet normal -0.481762 0.876302 0
    outer loop
      vertex 1.60748 -2.53298 0
      vertex 1.27734 -2.71448 9
      vertex 1.60748 -2.53298 9
    endloop
  endfacet
  facet normal -0.481762 0.876302 0
    outer loop
      vertex 1.27734 -2.71448 9
      vertex 1.60748 -2.53298 0
      vertex 1.27734 -2.71448 0
    endloop
  endfacet
  facet normal 0.58778 0.809021 -0
    outer loop
      vertex -1.60748 -2.53298 0
      vertex -1.91227 -2.31154 9
      vertex -1.60748 -2.53298 9
    endloop
  endfacet
  facet normal 0.58778 0.809021 0
    outer loop
      vertex -1.91227 -2.31154 9
      vertex -1.60748 -2.53298 0
      vertex -1.91227 -2.31154 0
    endloop
  endfacet
  facet normal 0.248684 0.968585 -0
    outer loop
      vertex -0.562143 -2.94686 0
      vertex -0.927051 -2.85317 9
      vertex -0.562143 -2.94686 9
    endloop
  endfacet
  facet normal 0.248684 0.968585 0
    outer loop
      vertex -0.927051 -2.85317 9
      vertex -0.562143 -2.94686 0
      vertex -0.927051 -2.85317 0
    endloop
  endfacet
  facet normal 0.98229 0.187369 0
    outer loop
      vertex -2.90575 -0.746069 9
      vertex -2.97634 -0.375999 0
      vertex -2.97634 -0.375999 9
    endloop
  endfacet
  facet normal 0.98229 0.187369 0
    outer loop
      vertex -2.97634 -0.375999 0
      vertex -2.90575 -0.746069 9
      vertex -2.90575 -0.746069 0
    endloop
  endfacet
  facet normal 0.998026 0.0628015 0
    outer loop
      vertex -2.97634 -0.375999 9
      vertex -3 0 0
      vertex -3 0 9
    endloop
  endfacet
  facet normal 0.998026 0.0628015 0
    outer loop
      vertex -3 0 0
      vertex -2.97634 -0.375999 9
      vertex -2.97634 -0.375999 0
    endloop
  endfacet
  facet normal 0.481762 0.876302 -0
    outer loop
      vertex -1.27734 -2.71448 0
      vertex -1.60748 -2.53298 9
      vertex -1.27734 -2.71448 9
    endloop
  endfacet
  facet normal 0.481762 0.876302 0
    outer loop
      vertex -1.60748 -2.53298 9
      vertex -1.27734 -2.71448 0
      vertex -1.60748 -2.53298 0
    endloop
  endfacet
  facet normal 0.125337 0.992114 -0
    outer loop
      vertex -0.188371 -2.99408 0
      vertex -0.562143 -2.94686 9
      vertex -0.188371 -2.99408 9
    endloop
  endfacet
  facet normal 0.125337 0.992114 0
    outer loop
      vertex -0.562143 -2.94686 9
      vertex -0.188371 -2.99408 0
      vertex -0.562143 -2.94686 0
    endloop
  endfacet
  facet normal 0.951056 0.309019 0
    outer loop
      vertex -2.78933 -1.10437 9
      vertex -2.90575 -0.746069 0
      vertex -2.90575 -0.746069 9
    endloop
  endfacet
  facet normal 0.951056 0.309019 0
    outer loop
      vertex -2.90575 -0.746069 0
      vertex -2.78933 -1.10437 9
      vertex -2.78933 -1.10437 0
    endloop
  endfacet
  facet normal 0.770514 0.637423 0
    outer loop
      vertex -2.18691 -2.05364 9
      vertex -2.42705 -1.76336 0
      vertex -2.42705 -1.76336 9
    endloop
  endfacet
  facet normal 0.770514 0.637423 0
    outer loop
      vertex -2.42705 -1.76336 0
      vertex -2.18691 -2.05364 9
      vertex -2.18691 -2.05364 0
    endloop
  endfacet
  facet normal 0.368126 0.929776 -0
    outer loop
      vertex -0.927051 -2.85317 0
      vertex -1.27734 -2.71448 9
      vertex -0.927051 -2.85317 9
    endloop
  endfacet
  facet normal 0.368126 0.929776 0
    outer loop
      vertex -1.27734 -2.71448 9
      vertex -0.927051 -2.85317 0
      vertex -1.27734 -2.71448 0
    endloop
  endfacet
endsolid OpenSCAD_Model
