<?xml version="1.0" standalone="no"?>
<!DOCTYPE svg PUBLIC "-//W3C//DTD SVG 1.1//EN" "http://www.w3.org/Graphics/SVG/1.1/DTD/svg11.dtd">
<svg width="60mm" height="267mm" viewBox="-30 -444 60 267" xmlns="http://www.w3.org/2000/svg" version="1.1">
<title>OpenSCAD Model</title>
<path d="
M 25.9369,-384.089 L 26.5451,-384.245 L 27.1289,-384.476 L 27.6791,-384.778 L 28.1871,-385.147 L 28.6448,-385.577
 L 29.0451,-386.061 L 29.3815,-386.591 L 29.6489,-387.159 L 29.8429,-387.757 L 29.9606,-388.373 L 30,-389
 L 30,-439 L 29.9606,-439.627 L 29.8429,-440.243 L 29.6489,-440.841 L 29.3815,-441.409 L 29.0451,-441.939
 L 28.6448,-442.423 L 28.1871,-442.853 L 27.6791,-443.222 L 27.1289,-443.524 L 26.5451,-443.755 L 25.9369,-443.911
 L 25.3139,-443.99 L -25.3139,-443.99 L -25.9369,-443.911 L -26.5451,-443.755 L -27.1289,-443.524 L -27.6791,-443.222
 L -28.1871,-442.853 L -28.6448,-442.423 L -29.0451,-441.939 L -29.3815,-441.409 L -29.6489,-440.841 L -29.8429,-440.243
 L -29.9606,-439.627 L -30,-439 L -30,-389 L -29.9606,-388.373 L -29.8429,-387.757 L -29.6489,-387.159
 L -29.3815,-386.591 L -29.0451,-386.061 L -28.6448,-385.577 L -28.1871,-385.147 L -27.6791,-384.778 L -27.1289,-384.476
 L -26.5451,-384.245 L -25.9369,-384.089 L -25.3139,-384.01 L 25.3139,-384.01 z
M -25.0482,-384.509 L -25.6401,-384.584 L -26.2178,-384.732 L -26.7724,-384.952 L -27.2952,-385.239 L -27.7778,-385.59
 L -28.2126,-385.998 L -28.5928,-386.458 L -28.9124,-386.962 L -29.1664,-387.501 L -29.3508,-388.069 L -29.4625,-388.655
 L -29.5,-389.25 L -29.5,-438.75 L -29.4625,-439.345 L -29.3508,-439.931 L -29.1664,-440.499 L -28.9124,-441.038
 L -28.5928,-441.542 L -28.2126,-442.002 L -27.7778,-442.41 L -27.2952,-442.761 L -26.7724,-443.048 L -26.2178,-443.268
 L -25.6401,-443.416 L -25.0482,-443.491 L 25.0482,-443.491 L 25.6401,-443.416 L 26.2178,-443.268 L 26.7724,-443.048
 L 27.2952,-442.761 L 27.7778,-442.41 L 28.2126,-442.002 L 28.5928,-441.542 L 28.9124,-441.038 L 29.1664,-440.499
 L 29.3508,-439.931 L 29.4625,-439.345 L 29.5,-438.75 L 29.5,-389.25 L 29.4625,-388.655 L 29.3508,-388.069
 L 29.1664,-387.501 L 28.9124,-386.962 L 28.5928,-386.458 L 28.2126,-385.998 L 27.7778,-385.59 L 27.2952,-385.239
 L 26.7724,-384.952 L 26.2178,-384.732 L 25.6401,-384.584 L 25.0482,-384.509 z
M 25.9369,-315.089 L 26.5451,-315.245 L 27.1289,-315.476 L 27.6791,-315.778 L 28.1871,-316.147 L 28.6448,-316.577
 L 29.0451,-317.061 L 29.3815,-317.591 L 29.6489,-318.159 L 29.8429,-318.757 L 29.9606,-319.373 L 30,-320
 L 30,-370 L 29.9606,-370.627 L 29.8429,-371.243 L 29.6489,-371.841 L 29.3815,-372.409 L 29.0451,-372.939
 L 28.6448,-373.423 L 28.1871,-373.853 L 27.6791,-374.222 L 27.1289,-374.524 L 26.5451,-374.755 L 25.9369,-374.911
 L 25.3139,-374.99 L -25.3139,-374.99 L -25.9369,-374.911 L -26.5451,-374.755 L -27.1289,-374.524 L -27.6791,-374.222
 L -28.1871,-373.853 L -28.6448,-373.423 L -29.0451,-372.939 L -29.3815,-372.409 L -29.6489,-371.841 L -29.8429,-371.243
 L -29.9606,-370.627 L -30,-370 L -30,-320 L -29.9606,-319.373 L -29.8429,-318.757 L -29.6489,-318.159
 L -29.3815,-317.591 L -29.0451,-317.061 L -28.6448,-316.577 L -28.1871,-316.147 L -27.6791,-315.778 L -27.1289,-315.476
 L -26.5451,-315.245 L -25.9369,-315.089 L -25.3139,-315.01 L 25.3139,-315.01 z
M -25.0482,-315.509 L -25.6401,-315.584 L -26.2178,-315.732 L -26.7724,-315.952 L -27.2952,-316.239 L -27.7778,-316.59
 L -28.2126,-316.998 L -28.5928,-317.458 L -28.9124,-317.962 L -29.1664,-318.501 L -29.3508,-319.069 L -29.4625,-319.655
 L -29.5,-320.25 L -29.5,-369.75 L -29.4625,-370.345 L -29.3508,-370.931 L -29.1664,-371.499 L -28.9124,-372.038
 L -28.5928,-372.542 L -28.2126,-373.002 L -27.7778,-373.41 L -27.2952,-373.761 L -26.7724,-374.048 L -26.2178,-374.268
 L -25.6401,-374.416 L -25.0482,-374.491 L 25.0482,-374.491 L 25.6401,-374.416 L 26.2178,-374.268 L 26.7724,-374.048
 L 27.2952,-373.761 L 27.7778,-373.41 L 28.2126,-373.002 L 28.5928,-372.542 L 28.9124,-372.038 L 29.1664,-371.499
 L 29.3508,-370.931 L 29.4625,-370.345 L 29.5,-369.75 L 29.5,-320.25 L 29.4625,-319.655 L 29.3508,-319.069
 L 29.1664,-318.501 L 28.9124,-317.962 L 28.5928,-317.458 L 28.2126,-316.998 L 27.7778,-316.59 L 27.2952,-316.239
 L 26.7724,-315.952 L 26.2178,-315.732 L 25.6401,-315.584 L 25.0482,-315.509 z
M 25.9369,-246.089 L 26.5451,-246.245 L 27.1289,-246.476 L 27.6791,-246.778 L 28.1871,-247.147 L 28.6448,-247.577
 L 29.0451,-248.061 L 29.3815,-248.591 L 29.6489,-249.159 L 29.8429,-249.757 L 29.9606,-250.373 L 30,-251
 L 30,-301 L 29.9606,-301.627 L 29.8429,-302.243 L 29.6489,-302.841 L 29.3815,-303.409 L 29.0451,-303.939
 L 28.6448,-304.423 L 28.1871,-304.853 L 27.6791,-305.222 L 27.1289,-305.524 L 26.5451,-305.755 L 25.9369,-305.911
 L 25.3139,-305.99 L -25.3139,-305.99 L -25.9369,-305.911 L -26.5451,-305.755 L -27.1289,-305.524 L -27.6791,-305.222
 L -28.1871,-304.853 L -28.6448,-304.423 L -29.0451,-303.939 L -29.3815,-303.409 L -29.6489,-302.841 L -29.8429,-302.243
 L -29.9606,-301.627 L -30,-301 L -30,-251 L -29.9606,-250.373 L -29.8429,-249.757 L -29.6489,-249.159
 L -29.3815,-248.591 L -29.0451,-248.061 L -28.6448,-247.577 L -28.1871,-247.147 L -27.6791,-246.778 L -27.1289,-246.476
 L -26.5451,-246.245 L -25.9369,-246.089 L -25.3139,-246.01 L 25.3139,-246.01 z
M -24.993,-247.388 L -25.4751,-247.449 L -25.9457,-247.57 L -26.3975,-247.749 L -26.8234,-247.983 L -27.2165,-248.269
 L -27.5707,-248.601 L -27.8805,-248.976 L -28.1408,-249.386 L -28.3477,-249.826 L -28.4979,-250.288 L -28.589,-250.765
 L -28.6195,-251.25 L -28.6195,-300.75 L -28.589,-301.235 L -28.4979,-301.712 L -28.3477,-302.174 L -28.1408,-302.614
 L -27.8805,-303.024 L -27.5707,-303.399 L -27.2165,-303.731 L -26.8234,-304.017 L -26.3975,-304.251 L -25.9457,-304.43
 L -25.4751,-304.551 L -24.993,-304.612 L 24.993,-304.612 L 25.4751,-304.551 L 25.9457,-304.43 L 26.3975,-304.251
 L 26.8234,-304.017 L 27.2165,-303.731 L 27.5707,-303.399 L 27.8805,-303.024 L 28.1408,-302.614 L 28.3477,-302.174
 L 28.4979,-301.712 L 28.589,-301.235 L 28.6195,-300.75 L 28.6195,-251.25 L 28.589,-250.765 L 28.4979,-250.288
 L 28.3477,-249.826 L 28.1408,-249.386 L 27.8805,-248.976 L 27.5707,-248.601 L 27.2165,-248.269 L 26.8234,-247.983
 L 26.3975,-247.749 L 25.9457,-247.57 L 25.4751,-247.449 L 24.993,-247.388 z
M 25.9369,-177.089 L 26.5451,-177.245 L 27.1289,-177.476 L 27.6791,-177.778 L 28.1871,-178.147 L 28.6448,-178.577
 L 29.0451,-179.061 L 29.3815,-179.591 L 29.6489,-180.159 L 29.8429,-180.757 L 29.9606,-181.373 L 30,-182
 L 30,-232 L 29.9606,-232.627 L 29.8429,-233.243 L 29.6489,-233.841 L 29.3815,-234.409 L 29.0451,-234.939
 L 28.6448,-235.423 L 28.1871,-235.853 L 27.6791,-236.222 L 27.1289,-236.524 L 26.5451,-236.755 L 25.9369,-236.911
 L 25.3139,-236.99 L -25.3139,-236.99 L -25.9369,-236.911 L -26.5451,-236.755 L -27.1289,-236.524 L -27.6791,-236.222
 L -28.1871,-235.853 L -28.6448,-235.423 L -29.0451,-234.939 L -29.3815,-234.409 L -29.6489,-233.841 L -29.8429,-233.243
 L -29.9606,-232.627 L -30,-232 L -30,-182 L -29.9606,-181.373 L -29.8429,-180.757 L -29.6489,-180.159
 L -29.3815,-179.591 L -29.0451,-179.061 L -28.6448,-178.577 L -28.1871,-178.147 L -27.6791,-177.778 L -27.1289,-177.476
 L -26.5451,-177.245 L -25.9369,-177.089 L -25.3139,-177.01 L 25.3139,-177.01 z
M 22.4058,-228.003 L 22.2189,-228.027 L 22.0365,-228.073 L 21.8613,-228.143 L 21.6963,-228.234 L 21.5439,-228.344
 L 21.4065,-228.473 L 21.2865,-228.618 L 21.1855,-228.777 L 21.1053,-228.948 L 21.0471,-229.127 L 21.0118,-229.312
 L 21,-229.5 L 21.0118,-229.688 L 21.0471,-229.873 L 21.1053,-230.052 L 21.1855,-230.223 L 21.2865,-230.382
 L 21.4065,-230.527 L 21.5439,-230.656 L 21.6963,-230.766 L 21.8613,-230.857 L 22.0365,-230.927 L 22.2189,-230.973
 L 22.4058,-230.997 L 22.5942,-230.997 L 22.7811,-230.973 L 22.9635,-230.927 L 23.1387,-230.857 L 23.3037,-230.766
 L 23.4561,-230.656 L 23.5934,-230.527 L 23.7135,-230.382 L 23.8145,-230.223 L 23.8947,-230.052 L 23.9529,-229.873
 L 23.9882,-229.688 L 24,-229.5 L 23.9882,-229.312 L 23.9529,-229.127 L 23.8947,-228.948 L 23.8145,-228.777
 L 23.7135,-228.618 L 23.5934,-228.473 L 23.4561,-228.344 L 23.3037,-228.234 L 23.1387,-228.143 L 22.9635,-228.073
 L 22.7811,-228.027 L 22.5942,-228.003 z
M -22.5942,-228.003 L -22.7811,-228.027 L -22.9635,-228.073 L -23.1387,-228.143 L -23.3037,-228.234 L -23.4561,-228.344
 L -23.5934,-228.473 L -23.7135,-228.618 L -23.8145,-228.777 L -23.8947,-228.948 L -23.9529,-229.127 L -23.9882,-229.312
 L -24,-229.5 L -23.9882,-229.688 L -23.9529,-229.873 L -23.8947,-230.052 L -23.8145,-230.223 L -23.7135,-230.382
 L -23.5934,-230.527 L -23.4561,-230.656 L -23.3037,-230.766 L -23.1387,-230.857 L -22.9635,-230.927 L -22.7811,-230.973
 L -22.5942,-230.997 L -22.4058,-230.997 L -22.2189,-230.973 L -22.0365,-230.927 L -21.8613,-230.857 L -21.6963,-230.766
 L -21.5439,-230.656 L -21.4065,-230.527 L -21.2865,-230.382 L -21.1855,-230.223 L -21.1053,-230.052 L -21.0471,-229.873
 L -21.0118,-229.688 L -21,-229.5 L -21.0118,-229.312 L -21.0471,-229.127 L -21.1053,-228.948 L -21.1855,-228.777
 L -21.2865,-228.618 L -21.4065,-228.473 L -21.5439,-228.344 L -21.6963,-228.234 L -21.8613,-228.143 L -22.0365,-228.073
 L -22.2189,-228.027 L -22.4058,-228.003 z
M -22.5942,-183.003 L -22.7811,-183.027 L -22.9635,-183.073 L -23.1387,-183.143 L -23.3037,-183.234 L -23.4561,-183.344
 L -23.5934,-183.473 L -23.7135,-183.618 L -23.8145,-183.777 L -23.8947,-183.948 L -23.9529,-184.127 L -23.9882,-184.312
 L -24,-184.5 L -23.9882,-184.688 L -23.9529,-184.873 L -23.8947,-185.052 L -23.8145,-185.223 L -23.7135,-185.382
 L -23.5934,-185.527 L -23.4561,-185.656 L -23.3037,-185.766 L -23.1387,-185.857 L -22.9635,-185.927 L -22.7811,-185.973
 L -22.5942,-185.997 L -22.4058,-185.997 L -22.2189,-185.973 L -22.0365,-185.927 L -21.8613,-185.857 L -21.6963,-185.766
 L -21.5439,-185.656 L -21.4065,-185.527 L -21.2865,-185.382 L -21.1855,-185.223 L -21.1053,-185.052 L -21.0471,-184.873
 L -21.0118,-184.688 L -21,-184.5 L -21.0118,-184.312 L -21.0471,-184.127 L -21.1053,-183.948 L -21.1855,-183.777
 L -21.2865,-183.618 L -21.4065,-183.473 L -21.5439,-183.344 L -21.6963,-183.234 L -21.8613,-183.143 L -22.0365,-183.073
 L -22.2189,-183.027 L -22.4058,-183.003 z
M 22.4058,-183.003 L 22.2189,-183.027 L 22.0365,-183.073 L 21.8613,-183.143 L 21.6963,-183.234 L 21.5439,-183.344
 L 21.4065,-183.473 L 21.2865,-183.618 L 21.1855,-183.777 L 21.1053,-183.948 L 21.0471,-184.127 L 21.0118,-184.312
 L 21,-184.5 L 21.0118,-184.688 L 21.0471,-184.873 L 21.1053,-185.052 L 21.1855,-185.223 L 21.2865,-185.382
 L 21.4065,-185.527 L 21.5439,-185.656 L 21.6963,-185.766 L 21.8613,-185.857 L 22.0365,-185.927 L 22.2189,-185.973
 L 22.4058,-185.997 L 22.5942,-185.997 L 22.7811,-185.973 L 22.9635,-185.927 L 23.1387,-185.857 L 23.3037,-185.766
 L 23.4561,-185.656 L 23.5934,-185.527 L 23.7135,-185.382 L 23.8145,-185.223 L 23.8947,-185.052 L 23.9529,-184.873
 L 23.9882,-184.688 L 24,-184.5 L 23.9882,-184.312 L 23.9529,-184.127 L 23.8947,-183.948 L 23.8145,-183.777
 L 23.7135,-183.618 L 23.5934,-183.473 L 23.4561,-183.344 L 23.3037,-183.234 L 23.1387,-183.143 L 22.9635,-183.073
 L 22.7811,-183.027 L 22.5942,-183.003 z
" stroke="black" fill="lightgray" stroke-width="0.5"/>
</svg>
