<?xml version="1.0" standalone="no"?>
<!DOCTYPE svg PUBLIC "-//W3C//DTD SVG 1.1//EN" "http://www.w3.org/Graphics/SVG/1.1/DTD/svg11.dtd">
<svg width="16mm" height="80mm" viewBox="-8 -148 16 80" xmlns="http://www.w3.org/2000/svg" version="1.1">
<title>OpenSCAD Model</title>
<path d="
M 5.21844,-140.544 L 5.52254,-140.622 L 5.81444,-140.738 L 6.08955,-140.889 L 6.34355,-141.074 L 6.57242,-141.289
 L 6.77254,-141.531 L 6.94077,-141.796 L 7.07443,-142.08 L 7.17145,-142.378 L 7.23029,-142.687 L 7.25,-143
 L 7.25,-145 L 7.23029,-145.313 L 7.17145,-145.622 L 7.07443,-145.92 L 6.94077,-146.204 L 6.77254,-146.469
 L 6.57242,-146.711 L 6.34355,-146.926 L 6.08955,-147.111 L 5.81444,-147.262 L 5.52254,-147.378 L 5.21844,-147.456
 L 4.90697,-147.495 L -4.90697,-147.495 L -5.21844,-147.456 L -5.52254,-147.378 L -5.81444,-147.262 L -6.08955,-147.111
 L -6.34355,-146.926 L -6.57242,-146.711 L -6.77254,-146.469 L -6.94077,-146.204 L -7.07443,-145.92 L -7.17145,-145.622
 L -7.23029,-145.313 L -7.25,-145 L -7.25,-143 L -7.23029,-142.687 L -7.17145,-142.378 L -7.07443,-142.08
 L -6.94077,-141.796 L -6.77254,-141.531 L -6.57242,-141.289 L -6.34355,-141.074 L -6.08955,-140.889 L -5.81444,-140.738
 L -5.52254,-140.622 L -5.21844,-140.544 L -4.90697,-140.505 L 4.90697,-140.505 z
M 3.65581,-142.503 L 3.46892,-142.527 L 3.28647,-142.573 L 3.11133,-142.643 L 2.94626,-142.734 L 2.79385,-142.844
 L 2.65654,-142.973 L 2.53647,-143.118 L 2.43553,-143.277 L 2.35533,-143.448 L 2.29712,-143.627 L 2.26183,-143.812
 L 2.25,-144 L 2.26183,-144.188 L 2.29712,-144.373 L 2.35533,-144.552 L 2.43553,-144.723 L 2.53647,-144.882
 L 2.65654,-145.027 L 2.79385,-145.156 L 2.94626,-145.266 L 3.11133,-145.357 L 3.28647,-145.427 L 3.46892,-145.473
 L 3.65581,-145.497 L 3.84418,-145.497 L 4.03107,-145.473 L 4.21352,-145.427 L 4.38866,-145.357 L 4.55373,-145.266
 L 4.70613,-145.156 L 4.84344,-145.027 L 4.96352,-144.882 L 5.06445,-144.723 L 5.14465,-144.552 L 5.20287,-144.373
 L 5.23816,-144.188 L 5.25,-144 L 5.23816,-143.812 L 5.20287,-143.627 L 5.14465,-143.448 L 5.06445,-143.277
 L 4.96352,-143.118 L 4.84344,-142.973 L 4.70613,-142.844 L 4.55373,-142.734 L 4.38866,-142.643 L 4.21352,-142.573
 L 4.03107,-142.527 L 3.84418,-142.503 z
M -3.84418,-142.503 L -4.03107,-142.527 L -4.21352,-142.573 L -4.38866,-142.643 L -4.55373,-142.734 L -4.70613,-142.844
 L -4.84344,-142.973 L -4.96352,-143.118 L -5.06445,-143.277 L -5.14465,-143.448 L -5.20287,-143.627 L -5.23816,-143.812
 L -5.25,-144 L -5.23816,-144.188 L -5.20287,-144.373 L -5.14465,-144.552 L -5.06445,-144.723 L -4.96352,-144.882
 L -4.84344,-145.027 L -4.70613,-145.156 L -4.55373,-145.266 L -4.38866,-145.357 L -4.21352,-145.427 L -4.03107,-145.473
 L -3.84418,-145.497 L -3.65581,-145.497 L -3.46892,-145.473 L -3.28647,-145.427 L -3.11133,-145.357 L -2.94626,-145.266
 L -2.79385,-145.156 L -2.65654,-145.027 L -2.53647,-144.882 L -2.43553,-144.723 L -2.35533,-144.552 L -2.29712,-144.373
 L -2.26183,-144.188 L -2.25,-144 L -2.26183,-143.812 L -2.29712,-143.627 L -2.35533,-143.448 L -2.43553,-143.277
 L -2.53647,-143.118 L -2.65654,-142.973 L -2.79385,-142.844 L -2.94626,-142.734 L -3.11133,-142.643 L -3.28647,-142.573
 L -3.46892,-142.527 L -3.65581,-142.503 z
M 5.21844,-116.544 L 5.52254,-116.622 L 5.81444,-116.738 L 6.08955,-116.889 L 6.34355,-117.074 L 6.57242,-117.289
 L 6.77254,-117.531 L 6.94077,-117.796 L 7.07443,-118.08 L 7.17145,-118.378 L 7.23029,-118.687 L 7.25,-119
 L 7.25,-121 L 7.23029,-121.313 L 7.17145,-121.622 L 7.07443,-121.92 L 6.94077,-122.204 L 6.77254,-122.469
 L 6.57242,-122.711 L 6.34355,-122.926 L 6.08955,-123.111 L 5.81444,-123.262 L 5.52254,-123.378 L 5.21844,-123.456
 L 4.90697,-123.495 L -4.90697,-123.495 L -5.21844,-123.456 L -5.52254,-123.378 L -5.81444,-123.262 L -6.08955,-123.111
 L -6.34355,-122.926 L -6.57242,-122.711 L -6.77254,-122.469 L -6.94077,-122.204 L -7.07443,-121.92 L -7.17145,-121.622
 L -7.23029,-121.313 L -7.25,-121 L -7.25,-119 L -7.23029,-118.687 L -7.17145,-118.378 L -7.07443,-118.08
 L -6.94077,-117.796 L -6.77254,-117.531 L -6.57242,-117.289 L -6.34355,-117.074 L -6.08955,-116.889 L -5.81444,-116.738
 L -5.52254,-116.622 L -5.21844,-116.544 L -4.90697,-116.505 L 4.90697,-116.505 z
M 3.65581,-118.503 L 3.46892,-118.527 L 3.28647,-118.573 L 3.11133,-118.643 L 2.94626,-118.734 L 2.79385,-118.844
 L 2.65654,-118.973 L 2.53647,-119.118 L 2.43553,-119.277 L 2.35533,-119.448 L 2.29712,-119.627 L 2.26183,-119.812
 L 2.25,-120 L 2.26183,-120.188 L 2.29712,-120.373 L 2.35533,-120.552 L 2.43553,-120.723 L 2.53647,-120.882
 L 2.65654,-121.027 L 2.79385,-121.156 L 2.94626,-121.266 L 3.11133,-121.357 L 3.28647,-121.427 L 3.46892,-121.473
 L 3.65581,-121.497 L 3.84418,-121.497 L 4.03107,-121.473 L 4.21352,-121.427 L 4.38866,-121.357 L 4.55373,-121.266
 L 4.70613,-121.156 L 4.84344,-121.027 L 4.96352,-120.882 L 5.06445,-120.723 L 5.14465,-120.552 L 5.20287,-120.373
 L 5.23816,-120.188 L 5.25,-120 L 5.23816,-119.812 L 5.20287,-119.627 L 5.14465,-119.448 L 5.06445,-119.277
 L 4.96352,-119.118 L 4.84344,-118.973 L 4.70613,-118.844 L 4.55373,-118.734 L 4.38866,-118.643 L 4.21352,-118.573
 L 4.03107,-118.527 L 3.84418,-118.503 z
M -3.84418,-118.503 L -4.03107,-118.527 L -4.21352,-118.573 L -4.38866,-118.643 L -4.55373,-118.734 L -4.70613,-118.844
 L -4.84344,-118.973 L -4.96352,-119.118 L -5.06445,-119.277 L -5.14465,-119.448 L -5.20287,-119.627 L -5.23816,-119.812
 L -5.25,-120 L -5.23816,-120.188 L -5.20287,-120.373 L -5.14465,-120.552 L -5.06445,-120.723 L -4.96352,-120.882
 L -4.84344,-121.027 L -4.70613,-121.156 L -4.55373,-121.266 L -4.38866,-121.357 L -4.21352,-121.427 L -4.03107,-121.473
 L -3.84418,-121.497 L -3.65581,-121.497 L -3.46892,-121.473 L -3.28647,-121.427 L -3.11133,-121.357 L -2.94626,-121.266
 L -2.79385,-121.156 L -2.65654,-121.027 L -2.53647,-120.882 L -2.43553,-120.723 L -2.35533,-120.552 L -2.29712,-120.373
 L -2.26183,-120.188 L -2.25,-120 L -2.26183,-119.812 L -2.29712,-119.627 L -2.35533,-119.448 L -2.43553,-119.277
 L -2.53647,-119.118 L -2.65654,-118.973 L -2.79385,-118.844 L -2.94626,-118.734 L -3.11133,-118.643 L -3.28647,-118.573
 L -3.46892,-118.527 L -3.65581,-118.503 z
M 5.21844,-92.5443 L 5.52254,-92.6224 L 5.81444,-92.7379 L 6.08955,-92.8892 L 6.34355,-93.0737 L 6.57242,-93.2886
 L 6.77254,-93.5305 L 6.94077,-93.7956 L 7.07443,-94.0797 L 7.17145,-94.3783 L 7.23029,-94.6867 L 7.25,-95
 L 7.25,-97 L 7.23029,-97.3133 L 7.17145,-97.6217 L 7.07443,-97.9203 L 6.94077,-98.2044 L 6.77254,-98.4695
 L 6.57242,-98.7114 L 6.34355,-98.9263 L 6.08955,-99.1108 L 5.81444,-99.2621 L 5.52254,-99.3776 L 5.21844,-99.4557
 L 4.90697,-99.4951 L -4.90697,-99.4951 L -5.21844,-99.4557 L -5.52254,-99.3776 L -5.81444,-99.2621 L -6.08955,-99.1108
 L -6.34355,-98.9263 L -6.57242,-98.7114 L -6.77254,-98.4695 L -6.94077,-98.2044 L -7.07443,-97.9203 L -7.17145,-97.6217
 L -7.23029,-97.3133 L -7.25,-97 L -7.25,-95 L -7.23029,-94.6867 L -7.17145,-94.3783 L -7.07443,-94.0797
 L -6.94077,-93.7956 L -6.77254,-93.5305 L -6.57242,-93.2886 L -6.34355,-93.0737 L -6.08955,-92.8892 L -5.81444,-92.7379
 L -5.52254,-92.6224 L -5.21844,-92.5443 L -4.90697,-92.5049 L 4.90697,-92.5049 z
M 3.65581,-94.503 L 3.46892,-94.5266 L 3.28647,-94.5734 L 3.11133,-94.6428 L 2.94626,-94.7335 L 2.79385,-94.8442
 L 2.65654,-94.9732 L 2.53647,-95.1183 L 2.43553,-95.2774 L 2.35533,-95.4478 L 2.29712,-95.627 L 2.26183,-95.812
 L 2.25,-96 L 2.26183,-96.188 L 2.29712,-96.373 L 2.35533,-96.5522 L 2.43553,-96.7226 L 2.53647,-96.8817
 L 2.65654,-97.0268 L 2.79385,-97.1558 L 2.94626,-97.2665 L 3.11133,-97.3572 L 3.28647,-97.4266 L 3.46892,-97.4734
 L 3.65581,-97.497 L 3.84418,-97.497 L 4.03107,-97.4734 L 4.21352,-97.4266 L 4.38866,-97.3572 L 4.55373,-97.2665
 L 4.70613,-97.1558 L 4.84344,-97.0268 L 4.96352,-96.8817 L 5.06445,-96.7226 L 5.14465,-96.5522 L 5.20287,-96.373
 L 5.23816,-96.188 L 5.25,-96 L 5.23816,-95.812 L 5.20287,-95.627 L 5.14465,-95.4478 L 5.06445,-95.2774
 L 4.96352,-95.1183 L 4.84344,-94.9732 L 4.70613,-94.8442 L 4.55373,-94.7335 L 4.38866,-94.6428 L 4.21352,-94.5734
 L 4.03107,-94.5266 L 3.84418,-94.503 z
M -3.84418,-94.503 L -4.03107,-94.5266 L -4.21352,-94.5734 L -4.38866,-94.6428 L -4.55373,-94.7335 L -4.70613,-94.8442
 L -4.84344,-94.9732 L -4.96352,-95.1183 L -5.06445,-95.2774 L -5.14465,-95.4478 L -5.20287,-95.627 L -5.23816,-95.812
 L -5.25,-96 L -5.23816,-96.188 L -5.20287,-96.373 L -5.14465,-96.5522 L -5.06445,-96.7226 L -4.96352,-96.8817
 L -4.84344,-97.0268 L -4.70613,-97.1558 L -4.55373,-97.2665 L -4.38866,-97.3572 L -4.21352,-97.4266 L -4.03107,-97.4734
 L -3.84418,-97.497 L -3.65581,-97.497 L -3.46892,-97.4734 L -3.28647,-97.4266 L -3.11133,-97.3572 L -2.94626,-97.2665
 L -2.79385,-97.1558 L -2.65654,-97.0268 L -2.53647,-96.8817 L -2.43553,-96.7226 L -2.35533,-96.5522 L -2.29712,-96.373
 L -2.26183,-96.188 L -2.25,-96 L -2.26183,-95.812 L -2.29712,-95.627 L -2.35533,-95.4478 L -2.43553,-95.2774
 L -2.53647,-95.1183 L -2.65654,-94.9732 L -2.79385,-94.8442 L -2.94626,-94.7335 L -3.11133,-94.6428 L -3.28647,-94.5734
 L -3.46892,-94.5266 L -3.65581,-94.503 z
M 5.21844,-68.5443 L 5.52254,-68.6224 L 5.81444,-68.7379 L 6.08955,-68.8892 L 6.34355,-69.0737 L 6.57242,-69.2886
 L 6.77254,-69.5305 L 6.94077,-69.7956 L 7.07443,-70.0797 L 7.17145,-70.3783 L 7.23029,-70.6867 L 7.25,-71
 L 7.25,-73 L 7.23029,-73.3133 L 7.17145,-73.6217 L 7.07443,-73.9203 L 6.94077,-74.2044 L 6.77254,-74.4695
 L 6.57242,-74.7114 L 6.34355,-74.9263 L 6.08955,-75.1108 L 5.81444,-75.2621 L 5.52254,-75.3776 L 5.21844,-75.4557
 L 4.90697,-75.4951 L -4.90697,-75.4951 L -5.21844,-75.4557 L -5.52254,-75.3776 L -5.81444,-75.2621 L -6.08955,-75.1108
 L -6.34355,-74.9263 L -6.57242,-74.7114 L -6.77254,-74.4695 L -6.94077,-74.2044 L -7.07443,-73.9203 L -7.17145,-73.6217
 L -7.23029,-73.3133 L -7.25,-73 L -7.25,-71 L -7.23029,-70.6867 L -7.17145,-70.3783 L -7.07443,-70.0797
 L -6.94077,-69.7956 L -6.77254,-69.5305 L -6.57242,-69.2886 L -6.34355,-69.0737 L -6.08955,-68.8892 L -5.81444,-68.7379
 L -5.52254,-68.6224 L -5.21844,-68.5443 L -4.90697,-68.5049 L 4.90697,-68.5049 z
M 3.65581,-70.503 L 3.46892,-70.5266 L 3.28647,-70.5734 L 3.11133,-70.6428 L 2.94626,-70.7335 L 2.79385,-70.8442
 L 2.65654,-70.9732 L 2.53647,-71.1183 L 2.43553,-71.2774 L 2.35533,-71.4478 L 2.29712,-71.627 L 2.26183,-71.812
 L 2.25,-72 L 2.26183,-72.188 L 2.29712,-72.373 L 2.35533,-72.5522 L 2.43553,-72.7226 L 2.53647,-72.8817
 L 2.65654,-73.0268 L 2.79385,-73.1558 L 2.94626,-73.2665 L 3.11133,-73.3572 L 3.28647,-73.4266 L 3.46892,-73.4734
 L 3.65581,-73.497 L 3.84418,-73.497 L 4.03107,-73.4734 L 4.21352,-73.4266 L 4.38866,-73.3572 L 4.55373,-73.2665
 L 4.70613,-73.1558 L 4.84344,-73.0268 L 4.96352,-72.8817 L 5.06445,-72.7226 L 5.14465,-72.5522 L 5.20287,-72.373
 L 5.23816,-72.188 L 5.25,-72 L 5.23816,-71.812 L 5.20287,-71.627 L 5.14465,-71.4478 L 5.06445,-71.2774
 L 4.96352,-71.1183 L 4.84344,-70.9732 L 4.70613,-70.8442 L 4.55373,-70.7335 L 4.38866,-70.6428 L 4.21352,-70.5734
 L 4.03107,-70.5266 L 3.84418,-70.503 z
M -3.84418,-70.503 L -4.03107,-70.5266 L -4.21352,-70.5734 L -4.38866,-70.6428 L -4.55373,-70.7335 L -4.70613,-70.8442
 L -4.84344,-70.9732 L -4.96352,-71.1183 L -5.06445,-71.2774 L -5.14465,-71.4478 L -5.20287,-71.627 L -5.23816,-71.812
 L -5.25,-72 L -5.23816,-72.188 L -5.20287,-72.373 L -5.14465,-72.5522 L -5.06445,-72.7226 L -4.96352,-72.8817
 L -4.84344,-73.0268 L -4.70613,-73.1558 L -4.55373,-73.2665 L -4.38866,-73.3572 L -4.21352,-73.4266 L -4.03107,-73.4734
 L -3.84418,-73.497 L -3.65581,-73.497 L -3.46892,-73.4734 L -3.28647,-73.4266 L -3.11133,-73.3572 L -2.94626,-73.2665
 L -2.79385,-73.1558 L -2.65654,-73.0268 L -2.53647,-72.8817 L -2.43553,-72.7226 L -2.35533,-72.5522 L -2.29712,-72.373
 L -2.26183,-72.188 L -2.25,-72 L -2.26183,-71.812 L -2.29712,-71.627 L -2.35533,-71.4478 L -2.43553,-71.2774
 L -2.53647,-71.1183 L -2.65654,-70.9732 L -2.79385,-70.8442 L -2.94626,-70.7335 L -3.11133,-70.6428 L -3.28647,-70.5734
 L -3.46892,-70.5266 L -3.65581,-70.503 z
" stroke="black" fill="lightgray" stroke-width="0.5"/>
</svg>
