<?xml version="1.0" standalone="no"?>
<!DOCTYPE svg PUBLIC "-//W3C//DTD SVG 1.1//EN" "http://www.w3.org/Graphics/SVG/1.1/DTD/svg11.dtd">
<svg width="22mm" height="20mm" viewBox="-11 -35 22 20" xmlns="http://www.w3.org/2000/svg" version="1.1">
<title>OpenSCAD Model</title>
<path d="
M 10.963,-25 L 5.48149,-34.4942 L -5.48149,-34.4942 L -10.963,-25 L -5.48149,-15.5058 L 5.48149,-15.5058
 z
M -0.37674,-19.0118 L -1.12428,-19.1063 L -1.8541,-19.2937 L -2.55467,-19.571 L -3.21495,-19.934 L -3.82454,-20.3769
 L -4.37381,-20.8927 L -4.8541,-21.4733 L -5.25783,-22.1095 L -5.57864,-22.7913 L -5.81149,-23.5079 L -5.95268,-24.248
 L -6,-25 L -5.95268,-25.752 L -5.81149,-26.4921 L -5.57864,-27.2087 L -5.25783,-27.8905 L -4.8541,-28.5267
 L -4.37381,-29.1073 L -3.82454,-29.6231 L -3.21495,-30.066 L -2.55467,-30.429 L -1.8541,-30.7063 L -1.12428,-30.8937
 L -0.37674,-30.9882 L 0.37674,-30.9882 L 1.12428,-30.8937 L 1.8541,-30.7063 L 2.55467,-30.429 L 3.21495,-30.066
 L 3.82454,-29.6231 L 4.37381,-29.1073 L 4.8541,-28.5267 L 5.25783,-27.8905 L 5.57864,-27.2087 L 5.81149,-26.4921
 L 5.95268,-25.752 L 6,-25 L 5.95268,-24.248 L 5.81149,-23.5079 L 5.57864,-22.7913 L 5.25783,-22.1095
 L 4.8541,-21.4733 L 4.37381,-20.8927 L 3.82454,-20.3769 L 3.21495,-19.934 L 2.55467,-19.571 L 1.8541,-19.2937
 L 1.12428,-19.1063 L 0.37674,-19.0118 z
" stroke="black" fill="lightgray" stroke-width="0.5"/>
</svg>
