<?xml version="1.0" standalone="no"?>
<!DOCTYPE svg PUBLIC "-//W3C//DTD SVG 1.1//EN" "http://www.w3.org/Graphics/SVG/1.1/DTD/svg11.dtd">
<svg width="38mm" height="16mm" viewBox="-19 -8 38 16" xmlns="http://www.w3.org/2000/svg" version="1.1">
<title>OpenSCAD Model</title>
<path d="
M 16.4684,7.2057 L 16.7725,7.12764 L 17.0644,7.01205 L 17.3396,6.86081 L 17.5936,6.67627 L 17.8224,6.46136
 L 18.0225,6.21945 L 18.1908,5.95438 L 18.3244,5.6703 L 18.4214,5.37172 L 18.4803,5.06332 L 18.5,4.75
 L 18.5,-4.75 L 18.4803,-5.06332 L 18.4214,-5.37172 L 18.3244,-5.6703 L 18.1908,-5.95438 L 18.0225,-6.21945
 L 17.8224,-6.46136 L 17.5936,-6.67627 L 17.3396,-6.86081 L 17.0644,-7.01205 L 16.7725,-7.12764 L 16.4684,-7.2057
 L 16.157,-7.24506 L -16.157,-7.24506 L -16.4684,-7.2057 L -16.7725,-7.12764 L -17.0644,-7.01205 L -17.3396,-6.86081
 L -17.5936,-6.67627 L -17.8224,-6.46136 L -18.0225,-6.21945 L -18.1908,-5.95438 L -18.3244,-5.6703 L -18.4214,-5.37172
 L -18.4803,-5.06332 L -18.5,-4.75 L -18.5,4.75 L -18.4803,5.06332 L -18.4214,5.37172 L -18.3244,5.6703
 L -18.1908,5.95438 L -18.0225,6.21945 L -17.8224,6.46136 L -17.5936,6.67627 L -17.3396,6.86081 L -17.0644,7.01205
 L -16.7725,7.12764 L -16.4684,7.2057 L -16.157,7.24506 L 16.157,7.24506 z
M 7.40581,-2.25294 L 7.21892,-2.27657 L 7.03647,-2.32341 L 6.86133,-2.39275 L 6.69626,-2.48351 L 6.54385,-2.59422
 L 6.40654,-2.72318 L 6.28647,-2.86832 L 6.18553,-3.02736 L 6.10533,-3.1978 L 6.04712,-3.37695 L 6.01183,-3.562
 L 6,-3.75 L 6.01183,-3.93799 L 6.04712,-4.12303 L 6.10533,-4.30219 L 6.18553,-4.47263 L 6.28647,-4.63167
 L 6.40654,-4.77681 L 6.54385,-4.90576 L 6.69626,-5.01648 L 6.86133,-5.10724 L 7.03647,-5.17657 L 7.21892,-5.22342
 L 7.40581,-5.24704 L 7.59418,-5.24704 L 7.78107,-5.22342 L 7.96352,-5.17657 L 8.13866,-5.10724 L 8.30373,-5.01648
 L 8.45613,-4.90576 L 8.59344,-4.77681 L 8.71352,-4.63167 L 8.81445,-4.47263 L 8.89465,-4.30219 L 8.95287,-4.12303
 L 8.98816,-3.93799 L 9,-3.75 L 8.98816,-3.562 L 8.95287,-3.37695 L 8.89465,-3.1978 L 8.81445,-3.02736
 L 8.71352,-2.86832 L 8.59344,-2.72318 L 8.45613,-2.59422 L 8.30373,-2.48351 L 8.13866,-2.39275 L 7.96352,-2.32341
 L 7.78107,-2.27657 L 7.59418,-2.25294 z
M -7.59418,-2.25294 L -7.78107,-2.27657 L -7.96352,-2.32341 L -8.13866,-2.39275 L -8.30373,-2.48351 L -8.45613,-2.59422
 L -8.59344,-2.72318 L -8.71352,-2.86832 L -8.81445,-3.02736 L -8.89465,-3.1978 L -8.95287,-3.37695 L -8.98816,-3.562
 L -9,-3.75 L -8.98816,-3.93799 L -8.95287,-4.12303 L -8.89465,-4.30219 L -8.81445,-4.47263 L -8.71352,-4.63167
 L -8.59344,-4.77681 L -8.45613,-4.90576 L -8.30373,-5.01648 L -8.13866,-5.10724 L -7.96352,-5.17657 L -7.78107,-5.22342
 L -7.59418,-5.24704 L -7.40581,-5.24704 L -7.21892,-5.22342 L -7.03647,-5.17657 L -6.86133,-5.10724 L -6.69626,-5.01648
 L -6.54385,-4.90576 L -6.40654,-4.77681 L -6.28647,-4.63167 L -6.18553,-4.47263 L -6.10533,-4.30219 L -6.04712,-4.12303
 L -6.01183,-3.93799 L -6,-3.75 L -6.01183,-3.562 L -6.04712,-3.37695 L -6.10533,-3.1978 L -6.18553,-3.02736
 L -6.28647,-2.86832 L -6.40654,-2.72318 L -6.54385,-2.59422 L -6.69626,-2.48351 L -6.86133,-2.39275 L -7.03647,-2.32341
 L -7.21892,-2.27657 L -7.40581,-2.25294 z
M -15.0942,-2.25294 L -15.2811,-2.27657 L -15.4635,-2.32341 L -15.6387,-2.39275 L -15.8037,-2.48351 L -15.9561,-2.59422
 L -16.0934,-2.72318 L -16.2135,-2.86832 L -16.3145,-3.02736 L -16.3947,-3.1978 L -16.4529,-3.37695 L -16.4882,-3.562
 L -16.5,-3.75 L -16.4882,-3.93799 L -16.4529,-4.12303 L -16.3947,-4.30219 L -16.3145,-4.47263 L -16.2135,-4.63167
 L -16.0934,-4.77681 L -15.9561,-4.90576 L -15.8037,-5.01648 L -15.6387,-5.10724 L -15.4635,-5.17657 L -15.2811,-5.22342
 L -15.0942,-5.24704 L -14.9058,-5.24704 L -14.7189,-5.22342 L -14.5365,-5.17657 L -14.3613,-5.10724 L -14.1963,-5.01648
 L -14.0439,-4.90576 L -13.9065,-4.77681 L -13.7865,-4.63167 L -13.6855,-4.47263 L -13.6053,-4.30219 L -13.5471,-4.12303
 L -13.5118,-3.93799 L -13.5,-3.75 L -13.5118,-3.562 L -13.5471,-3.37695 L -13.6053,-3.1978 L -13.6855,-3.02736
 L -13.7865,-2.86832 L -13.9065,-2.72318 L -14.0439,-2.59422 L -14.1963,-2.48351 L -14.3613,-2.39275 L -14.5365,-2.32341
 L -14.7189,-2.27657 L -14.9058,-2.25294 z
M 14.9058,-2.25294 L 14.7189,-2.27657 L 14.5365,-2.32341 L 14.3613,-2.39275 L 14.1963,-2.48351 L 14.0439,-2.59422
 L 13.9065,-2.72318 L 13.7865,-2.86832 L 13.6855,-3.02736 L 13.6053,-3.1978 L 13.5471,-3.37695 L 13.5118,-3.562
 L 13.5,-3.75 L 13.5118,-3.93799 L 13.5471,-4.12303 L 13.6053,-4.30219 L 13.6855,-4.47263 L 13.7865,-4.63167
 L 13.9065,-4.77681 L 14.0439,-4.90576 L 14.1963,-5.01648 L 14.3613,-5.10724 L 14.5365,-5.17657 L 14.7189,-5.22342
 L 14.9058,-5.24704 L 15.0942,-5.24704 L 15.2811,-5.22342 L 15.4635,-5.17657 L 15.6387,-5.10724 L 15.8037,-5.01648
 L 15.9561,-4.90576 L 16.0934,-4.77681 L 16.2135,-4.63167 L 16.3145,-4.47263 L 16.3947,-4.30219 L 16.4529,-4.12303
 L 16.4882,-3.93799 L 16.5,-3.75 L 16.4882,-3.562 L 16.4529,-3.37695 L 16.3947,-3.1978 L 16.3145,-3.02736
 L 16.2135,-2.86832 L 16.0934,-2.72318 L 15.9561,-2.59422 L 15.8037,-2.48351 L 15.6387,-2.39275 L 15.4635,-2.32341
 L 15.2811,-2.27657 L 15.0942,-2.25294 z
M -0.0941772,-2.25294 L -0.281067,-2.27657 L -0.463516,-2.32341 L -0.638657,-2.39275 L -0.803726,-2.48351 L -0.956131,-2.59422
 L -1.09344,-2.72318 L -1.21352,-2.86832 L -1.31445,-3.02736 L -1.39465,-3.1978 L -1.45287,-3.37695 L -1.48816,-3.562
 L -1.5,-3.75 L -1.48816,-3.93799 L -1.45287,-4.12303 L -1.39465,-4.30219 L -1.31445,-4.47263 L -1.21352,-4.63167
 L -1.09344,-4.77681 L -0.956131,-4.90576 L -0.803726,-5.01648 L -0.638657,-5.10724 L -0.463516,-5.17657 L -0.281067,-5.22342
 L -0.0941772,-5.24704 L 0.0941772,-5.24704 L 0.281067,-5.22342 L 0.463516,-5.17657 L 0.638657,-5.10724 L 0.803726,-5.01648
 L 0.956131,-4.90576 L 1.09344,-4.77681 L 1.21352,-4.63167 L 1.31445,-4.47263 L 1.39465,-4.30219 L 1.45287,-4.12303
 L 1.48816,-3.93799 L 1.5,-3.75 L 1.48816,-3.562 L 1.45287,-3.37695 L 1.39465,-3.1978 L 1.31445,-3.02736
 L 1.21352,-2.86832 L 1.09344,-2.72318 L 0.956131,-2.59422 L 0.803726,-2.48351 L 0.638657,-2.39275 L 0.463516,-2.32341
 L 0.281067,-2.27657 L 0.0941772,-2.25294 z
M 7.40581,5.24704 L 7.21892,5.22342 L 7.03647,5.17657 L 6.86133,5.10724 L 6.69626,5.01648 L 6.54385,4.90576
 L 6.40654,4.77681 L 6.28647,4.63167 L 6.18553,4.47263 L 6.10533,4.30219 L 6.04712,4.12303 L 6.01183,3.93799
 L 6,3.75 L 6.01183,3.562 L 6.04712,3.37695 L 6.10533,3.1978 L 6.18553,3.02736 L 6.28647,2.86832
 L 6.40654,2.72318 L 6.54385,2.59422 L 6.69626,2.48351 L 6.86133,2.39275 L 7.03647,2.32341 L 7.21892,2.27657
 L 7.40581,2.25294 L 7.59418,2.25294 L 7.78107,2.27657 L 7.96352,2.32341 L 8.13866,2.39275 L 8.30373,2.48351
 L 8.45613,2.59422 L 8.59344,2.72318 L 8.71352,2.86832 L 8.81445,3.02736 L 8.89465,3.1978 L 8.95287,3.37695
 L 8.98816,3.562 L 9,3.75 L 8.98816,3.93799 L 8.95287,4.12303 L 8.89465,4.30219 L 8.81445,4.47263
 L 8.71352,4.63167 L 8.59344,4.77681 L 8.45613,4.90576 L 8.30373,5.01648 L 8.13866,5.10724 L 7.96352,5.17657
 L 7.78107,5.22342 L 7.59418,5.24704 z
M -7.59418,5.24704 L -7.78107,5.22342 L -7.96352,5.17657 L -8.13866,5.10724 L -8.30373,5.01648 L -8.45613,4.90576
 L -8.59344,4.77681 L -8.71352,4.63167 L -8.81445,4.47263 L -8.89465,4.30219 L -8.95287,4.12303 L -8.98816,3.93799
 L -9,3.75 L -8.98816,3.562 L -8.95287,3.37695 L -8.89465,3.1978 L -8.81445,3.02736 L -8.71352,2.86832
 L -8.59344,2.72318 L -8.45613,2.59422 L -8.30373,2.48351 L -8.13866,2.39275 L -7.96352,2.32341 L -7.78107,2.27657
 L -7.59418,2.25294 L -7.40581,2.25294 L -7.21892,2.27657 L -7.03647,2.32341 L -6.86133,2.39275 L -6.69626,2.48351
 L -6.54385,2.59422 L -6.40654,2.72318 L -6.28647,2.86832 L -6.18553,3.02736 L -6.10533,3.1978 L -6.04712,3.37695
 L -6.01183,3.562 L -6,3.75 L -6.01183,3.93799 L -6.04712,4.12303 L -6.10533,4.30219 L -6.18553,4.47263
 L -6.28647,4.63167 L -6.40654,4.77681 L -6.54385,4.90576 L -6.69626,5.01648 L -6.86133,5.10724 L -7.03647,5.17657
 L -7.21892,5.22342 L -7.40581,5.24704 z
M 14.9058,5.24704 L 14.7189,5.22342 L 14.5365,5.17657 L 14.3613,5.10724 L 14.1963,5.01648 L 14.0439,4.90576
 L 13.9065,4.77681 L 13.7865,4.63167 L 13.6855,4.47263 L 13.6053,4.30219 L 13.5471,4.12303 L 13.5118,3.93799
 L 13.5,3.75 L 13.5118,3.562 L 13.5471,3.37695 L 13.6053,3.1978 L 13.6855,3.02736 L 13.7865,2.86832
 L 13.9065,2.72318 L 14.0439,2.59422 L 14.1963,2.48351 L 14.3613,2.39275 L 14.5365,2.32341 L 14.7189,2.27657
 L 14.9058,2.25294 L 15.0942,2.25294 L 15.2811,2.27657 L 15.4635,2.32341 L 15.6387,2.39275 L 15.8037,2.48351
 L 15.9561,2.59422 L 16.0934,2.72318 L 16.2135,2.86832 L 16.3145,3.02736 L 16.3947,3.1978 L 16.4529,3.37695
 L 16.4882,3.562 L 16.5,3.75 L 16.4882,3.93799 L 16.4529,4.12303 L 16.3947,4.30219 L 16.3145,4.47263
 L 16.2135,4.63167 L 16.0934,4.77681 L 15.9561,4.90576 L 15.8037,5.01648 L 15.6387,5.10724 L 15.4635,5.17657
 L 15.2811,5.22342 L 15.0942,5.24704 z
M -15.0942,5.24704 L -15.2811,5.22342 L -15.4635,5.17657 L -15.6387,5.10724 L -15.8037,5.01648 L -15.9561,4.90576
 L -16.0934,4.77681 L -16.2135,4.63167 L -16.3145,4.47263 L -16.3947,4.30219 L -16.4529,4.12303 L -16.4882,3.93799
 L -16.5,3.75 L -16.4882,3.562 L -16.4529,3.37695 L -16.3947,3.1978 L -16.3145,3.02736 L -16.2135,2.86832
 L -16.0934,2.72318 L -15.9561,2.59422 L -15.8037,2.48351 L -15.6387,2.39275 L -15.4635,2.32341 L -15.2811,2.27657
 L -15.0942,2.25294 L -14.9058,2.25294 L -14.7189,2.27657 L -14.5365,2.32341 L -14.3613,2.39275 L -14.1963,2.48351
 L -14.0439,2.59422 L -13.9065,2.72318 L -13.7865,2.86832 L -13.6855,3.02736 L -13.6053,3.1978 L -13.5471,3.37695
 L -13.5118,3.562 L -13.5,3.75 L -13.5118,3.93799 L -13.5471,4.12303 L -13.6053,4.30219 L -13.6855,4.47263
 L -13.7865,4.63167 L -13.9065,4.77681 L -14.0439,4.90576 L -14.1963,5.01648 L -14.3613,5.10724 L -14.5365,5.17657
 L -14.7189,5.22342 L -14.9058,5.24704 z
M -0.0941772,5.24704 L -0.281067,5.22342 L -0.463516,5.17657 L -0.638657,5.10724 L -0.803726,5.01648 L -0.956131,4.90576
 L -1.09344,4.77681 L -1.21352,4.63167 L -1.31445,4.47263 L -1.39465,4.30219 L -1.45287,4.12303 L -1.48816,3.93799
 L -1.5,3.75 L -1.48816,3.562 L -1.45287,3.37695 L -1.39465,3.1978 L -1.31445,3.02736 L -1.21352,2.86832
 L -1.09344,2.72318 L -0.956131,2.59422 L -0.803726,2.48351 L -0.638657,2.39275 L -0.463516,2.32341 L -0.281067,2.27657
 L -0.0941772,2.25294 L 0.0941772,2.25294 L 0.281067,2.27657 L 0.463516,2.32341 L 0.638657,2.39275 L 0.803726,2.48351
 L 0.956131,2.59422 L 1.09344,2.72318 L 1.21352,2.86832 L 1.31445,3.02736 L 1.39465,3.1978 L 1.45287,3.37695
 L 1.48816,3.562 L 1.5,3.75 L 1.48816,3.93799 L 1.45287,4.12303 L 1.39465,4.30219 L 1.31445,4.47263
 L 1.21352,4.63167 L 1.09344,4.77681 L 0.956131,4.90576 L 0.803726,5.01648 L 0.638657,5.10724 L 0.463516,5.17657
 L 0.281067,5.22342 L 0.0941772,5.24704 z
" stroke="black" fill="lightgray" stroke-width="0.5"/>
</svg>
