<?xml version="1.0" standalone="no"?>
<!DOCTYPE svg PUBLIC "-//W3C//DTD SVG 1.1//EN" "http://www.w3.org/Graphics/SVG/1.1/DTD/svg11.dtd">
<svg width="38mm" height="154mm" viewBox="-19 -239 38 154" xmlns="http://www.w3.org/2000/svg" version="1.1">
<title>OpenSCAD Model</title>
<path d="
M 14.6869,-193.589 L 15.2951,-193.745 L 15.8789,-193.976 L 16.4291,-194.278 L 16.9371,-194.647 L 17.3948,-195.077
 L 17.7951,-195.561 L 18.1315,-196.091 L 18.3989,-196.659 L 18.5929,-197.257 L 18.7106,-197.873 L 18.75,-198.5
 L 18.75,-233.5 L 18.7106,-234.127 L 18.5929,-234.743 L 18.3989,-235.341 L 18.1315,-235.909 L 17.7951,-236.439
 L 17.3948,-236.923 L 16.9371,-237.353 L 16.4291,-237.722 L 15.8789,-238.024 L 15.2951,-238.255 L 14.6869,-238.411
 L 14.0639,-238.49 L -14.0639,-238.49 L -14.6869,-238.411 L -15.2951,-238.255 L -15.8789,-238.024 L -16.4291,-237.722
 L -16.9371,-237.353 L -17.3948,-236.923 L -17.7951,-236.439 L -18.1315,-235.909 L -18.3989,-235.341 L -18.5929,-234.743
 L -18.7106,-234.127 L -18.75,-233.5 L -18.75,-198.5 L -18.7106,-197.873 L -18.5929,-197.257 L -18.3989,-196.659
 L -18.1315,-196.091 L -17.7951,-195.561 L -17.3948,-195.077 L -16.9371,-194.647 L -16.4291,-194.278 L -15.8789,-193.976
 L -15.2951,-193.745 L -14.6869,-193.589 L -14.0639,-193.51 L 14.0639,-193.51 z
M -13.7982,-194.009 L -14.3901,-194.084 L -14.9678,-194.232 L -15.5224,-194.452 L -16.0452,-194.739 L -16.5278,-195.09
 L -16.9626,-195.498 L -17.3428,-195.958 L -17.6624,-196.462 L -17.9164,-197.001 L -18.1008,-197.569 L -18.2125,-198.155
 L -18.25,-198.75 L -18.25,-233.25 L -18.2125,-233.845 L -18.1008,-234.431 L -17.9164,-234.999 L -17.6624,-235.538
 L -17.3428,-236.042 L -16.9626,-236.502 L -16.5278,-236.91 L -16.0452,-237.261 L -15.5224,-237.548 L -14.9678,-237.768
 L -14.3901,-237.916 L -13.7982,-237.991 L 13.7982,-237.991 L 14.3901,-237.916 L 14.9678,-237.768 L 15.5224,-237.548
 L 16.0452,-237.261 L 16.5278,-236.91 L 16.9626,-236.502 L 17.3428,-236.042 L 17.6624,-235.538 L 17.9164,-234.999
 L 18.1008,-234.431 L 18.2125,-233.845 L 18.25,-233.25 L 18.25,-198.75 L 18.2125,-198.155 L 18.1008,-197.569
 L 17.9164,-197.001 L 17.6624,-196.462 L 17.3428,-195.958 L 16.9626,-195.498 L 16.5278,-195.09 L 16.0452,-194.739
 L 15.5224,-194.452 L 14.9678,-194.232 L 14.3901,-194.084 L 13.7982,-194.009 z
M 14.6869,-139.589 L 15.2951,-139.745 L 15.8789,-139.976 L 16.4291,-140.278 L 16.9371,-140.647 L 17.3948,-141.077
 L 17.7951,-141.561 L 18.1315,-142.091 L 18.3989,-142.659 L 18.5929,-143.257 L 18.7106,-143.873 L 18.75,-144.5
 L 18.75,-179.5 L 18.7106,-180.127 L 18.5929,-180.743 L 18.3989,-181.341 L 18.1315,-181.909 L 17.7951,-182.439
 L 17.3948,-182.923 L 16.9371,-183.353 L 16.4291,-183.722 L 15.8789,-184.024 L 15.2951,-184.255 L 14.6869,-184.411
 L 14.0639,-184.49 L -14.0639,-184.49 L -14.6869,-184.411 L -15.2951,-184.255 L -15.8789,-184.024 L -16.4291,-183.722
 L -16.9371,-183.353 L -17.3948,-182.923 L -17.7951,-182.439 L -18.1315,-181.909 L -18.3989,-181.341 L -18.5929,-180.743
 L -18.7106,-180.127 L -18.75,-179.5 L -18.75,-144.5 L -18.7106,-143.873 L -18.5929,-143.257 L -18.3989,-142.659
 L -18.1315,-142.091 L -17.7951,-141.561 L -17.3948,-141.077 L -16.9371,-140.647 L -16.4291,-140.278 L -15.8789,-139.976
 L -15.2951,-139.745 L -14.6869,-139.589 L -14.0639,-139.51 L 14.0639,-139.51 z
M -13.743,-140.888 L -14.2251,-140.949 L -14.6957,-141.07 L -15.1475,-141.249 L -15.5734,-141.483 L -15.9665,-141.769
 L -16.3207,-142.101 L -16.6305,-142.476 L -16.8908,-142.886 L -17.0977,-143.326 L -17.2479,-143.788 L -17.339,-144.265
 L -17.3695,-144.75 L -17.3695,-179.25 L -17.339,-179.735 L -17.2479,-180.212 L -17.0977,-180.674 L -16.8908,-181.114
 L -16.6305,-181.524 L -16.3207,-181.899 L -15.9665,-182.231 L -15.5734,-182.517 L -15.1475,-182.751 L -14.6957,-182.93
 L -14.2251,-183.051 L -13.743,-183.112 L 13.743,-183.112 L 14.2251,-183.051 L 14.6957,-182.93 L 15.1475,-182.751
 L 15.5734,-182.517 L 15.9665,-182.231 L 16.3207,-181.899 L 16.6305,-181.524 L 16.8908,-181.114 L 17.0977,-180.674
 L 17.2479,-180.212 L 17.339,-179.735 L 17.3695,-179.25 L 17.3695,-144.75 L 17.339,-144.265 L 17.2479,-143.788
 L 17.0977,-143.326 L 16.8908,-142.886 L 16.6305,-142.476 L 16.3207,-142.101 L 15.9665,-141.769 L 15.5734,-141.483
 L 15.1475,-141.249 L 14.6957,-141.07 L 14.2251,-140.949 L 13.743,-140.888 z
M 14.6869,-85.5886 L 15.2951,-85.7447 L 15.8789,-85.9759 L 16.4291,-86.2784 L 16.9371,-86.6474 L 17.3948,-87.0773
 L 17.7951,-87.5611 L 18.1315,-88.0912 L 18.3989,-88.6594 L 18.5929,-89.2566 L 18.7106,-89.8733 L 18.75,-90.5
 L 18.75,-125.5 L 18.7106,-126.127 L 18.5929,-126.743 L 18.3989,-127.341 L 18.1315,-127.909 L 17.7951,-128.439
 L 17.3948,-128.923 L 16.9371,-129.353 L 16.4291,-129.722 L 15.8789,-130.024 L 15.2951,-130.255 L 14.6869,-130.411
 L 14.0639,-130.49 L -14.0639,-130.49 L -14.6869,-130.411 L -15.2951,-130.255 L -15.8789,-130.024 L -16.4291,-129.722
 L -16.9371,-129.353 L -17.3948,-128.923 L -17.7951,-128.439 L -18.1315,-127.909 L -18.3989,-127.341 L -18.5929,-126.743
 L -18.7106,-126.127 L -18.75,-125.5 L -18.75,-90.5 L -18.7106,-89.8733 L -18.5929,-89.2566 L -18.3989,-88.6594
 L -18.1315,-88.0912 L -17.7951,-87.5611 L -17.3948,-87.0773 L -16.9371,-86.6474 L -16.4291,-86.2784 L -15.8789,-85.9759
 L -15.2951,-85.7447 L -14.6869,-85.5886 L -14.0639,-85.5099 L 14.0639,-85.5099 z
M 11.1558,-121.503 L 10.9689,-121.527 L 10.7865,-121.573 L 10.6113,-121.643 L 10.4463,-121.734 L 10.2939,-121.844
 L 10.1565,-121.973 L 10.0365,-122.118 L 9.93553,-122.277 L 9.85533,-122.448 L 9.79712,-122.627 L 9.76183,-122.812
 L 9.75,-123 L 9.76183,-123.188 L 9.79712,-123.373 L 9.85533,-123.552 L 9.93553,-123.723 L 10.0365,-123.882
 L 10.1565,-124.027 L 10.2939,-124.156 L 10.4463,-124.266 L 10.6113,-124.357 L 10.7865,-124.427 L 10.9689,-124.473
 L 11.1558,-124.497 L 11.3442,-124.497 L 11.5311,-124.473 L 11.7135,-124.427 L 11.8887,-124.357 L 12.0537,-124.266
 L 12.2061,-124.156 L 12.3434,-124.027 L 12.4635,-123.882 L 12.5645,-123.723 L 12.6447,-123.552 L 12.7029,-123.373
 L 12.7382,-123.188 L 12.75,-123 L 12.7382,-122.812 L 12.7029,-122.627 L 12.6447,-122.448 L 12.5645,-122.277
 L 12.4635,-122.118 L 12.3434,-121.973 L 12.2061,-121.844 L 12.0537,-121.734 L 11.8887,-121.643 L 11.7135,-121.573
 L 11.5311,-121.527 L 11.3442,-121.503 z
M -11.3442,-121.503 L -11.5311,-121.527 L -11.7135,-121.573 L -11.8887,-121.643 L -12.0537,-121.734 L -12.2061,-121.844
 L -12.3434,-121.973 L -12.4635,-122.118 L -12.5645,-122.277 L -12.6447,-122.448 L -12.7029,-122.627 L -12.7382,-122.812
 L -12.75,-123 L -12.7382,-123.188 L -12.7029,-123.373 L -12.6447,-123.552 L -12.5645,-123.723 L -12.4635,-123.882
 L -12.3434,-124.027 L -12.2061,-124.156 L -12.0537,-124.266 L -11.8887,-124.357 L -11.7135,-124.427 L -11.5311,-124.473
 L -11.3442,-124.497 L -11.1558,-124.497 L -10.9689,-124.473 L -10.7865,-124.427 L -10.6113,-124.357 L -10.4463,-124.266
 L -10.2939,-124.156 L -10.1565,-124.027 L -10.0365,-123.882 L -9.93553,-123.723 L -9.85533,-123.552 L -9.79712,-123.373
 L -9.76183,-123.188 L -9.75,-123 L -9.76183,-122.812 L -9.79712,-122.627 L -9.85533,-122.448 L -9.93553,-122.277
 L -10.0365,-122.118 L -10.1565,-121.973 L -10.2939,-121.844 L -10.4463,-121.734 L -10.6113,-121.643 L -10.7865,-121.573
 L -10.9689,-121.527 L -11.1558,-121.503 z
M 11.1558,-91.503 L 10.9689,-91.5266 L 10.7865,-91.5734 L 10.6113,-91.6428 L 10.4463,-91.7335 L 10.2939,-91.8442
 L 10.1565,-91.9732 L 10.0365,-92.1183 L 9.93553,-92.2774 L 9.85533,-92.4478 L 9.79712,-92.627 L 9.76183,-92.812
 L 9.75,-93 L 9.76183,-93.188 L 9.79712,-93.373 L 9.85533,-93.5522 L 9.93553,-93.7226 L 10.0365,-93.8817
 L 10.1565,-94.0268 L 10.2939,-94.1558 L 10.4463,-94.2665 L 10.6113,-94.3573 L 10.7865,-94.4266 L 10.9689,-94.4734
 L 11.1558,-94.4971 L 11.3442,-94.4971 L 11.5311,-94.4734 L 11.7135,-94.4266 L 11.8887,-94.3573 L 12.0537,-94.2665
 L 12.2061,-94.1558 L 12.3434,-94.0268 L 12.4635,-93.8817 L 12.5645,-93.7226 L 12.6447,-93.5522 L 12.7029,-93.373
 L 12.7382,-93.188 L 12.75,-93 L 12.7382,-92.812 L 12.7029,-92.627 L 12.6447,-92.4478 L 12.5645,-92.2774
 L 12.4635,-92.1183 L 12.3434,-91.9732 L 12.2061,-91.8442 L 12.0537,-91.7335 L 11.8887,-91.6428 L 11.7135,-91.5734
 L 11.5311,-91.5266 L 11.3442,-91.503 z
M -11.3442,-91.503 L -11.5311,-91.5266 L -11.7135,-91.5734 L -11.8887,-91.6428 L -12.0537,-91.7335 L -12.2061,-91.8442
 L -12.3434,-91.9732 L -12.4635,-92.1183 L -12.5645,-92.2774 L -12.6447,-92.4478 L -12.7029,-92.627 L -12.7382,-92.812
 L -12.75,-93 L -12.7382,-93.188 L -12.7029,-93.373 L -12.6447,-93.5522 L -12.5645,-93.7226 L -12.4635,-93.8817
 L -12.3434,-94.0268 L -12.2061,-94.1558 L -12.0537,-94.2665 L -11.8887,-94.3573 L -11.7135,-94.4266 L -11.5311,-94.4734
 L -11.3442,-94.4971 L -11.1558,-94.4971 L -10.9689,-94.4734 L -10.7865,-94.4266 L -10.6113,-94.3573 L -10.4463,-94.2665
 L -10.2939,-94.1558 L -10.1565,-94.0268 L -10.0365,-93.8817 L -9.93553,-93.7226 L -9.85533,-93.5522 L -9.79712,-93.373
 L -9.76183,-93.188 L -9.75,-93 L -9.76183,-92.812 L -9.79712,-92.627 L -9.85533,-92.4478 L -9.93553,-92.2774
 L -10.0365,-92.1183 L -10.1565,-91.9732 L -10.2939,-91.8442 L -10.4463,-91.7335 L -10.6113,-91.6428 L -10.7865,-91.5734
 L -10.9689,-91.5266 L -11.1558,-91.503 z
" stroke="black" fill="lightgray" stroke-width="0.5"/>
</svg>
