  0
SECTION
  2
BLOCKS
  0
ENDSEC
  0
SECTION
  2
ENTITIES
  0
LINE
  8
0
 10
0.543396
 20
718.151
 11
0.896149
 21
718.242
  0
LINE
  8
0
 10
0.896149
 20
718.242
 11
1.23476
 21
718.376
  0
LINE
  8
0
 10
1.23476
 20
718.376
 11
1.55389
 21
718.551
  0
LINE
  8
0
 10
1.55389
 20
718.551
 11
1.84853
 21
718.766
  0
LINE
  8
0
 10
1.84853
 20
718.766
 11
2.114
 21
719.015
  0
LINE
  8
0
 10
2.114
 20
719.015
 11
2.34615
 21
719.295
  0
LINE
  8
0
 10
2.34615
 20
719.295
 11
2.54128
 21
719.603
  0
LINE
  8
0
 10
2.54128
 20
719.603
 11
2.69635
 21
719.932
  0
LINE
  8
0
 10
2.69635
 20
719.932
 11
2.80888
 21
720.279
  0
LINE
  8
0
 10
2.80888
 20
720.279
 11
2.87712
 21
720.637
  0
LINE
  8
0
 10
2.87712
 20
720.637
 11
2.89999
 21
721
  0
LINE
  8
0
 10
2.89999
 20
721
 11
2.87712
 21
721.363
  0
LINE
  8
0
 10
2.87712
 20
721.363
 11
2.80888
 21
721.721
  0
LINE
  8
0
 10
2.80888
 20
721.721
 11
2.69635
 21
722.068
  0
LINE
  8
0
 10
2.69635
 20
722.068
 11
2.54128
 21
722.397
  0
LINE
  8
0
 10
2.54128
 20
722.397
 11
2.34615
 21
722.705
  0
LINE
  8
0
 10
2.34615
 20
722.705
 11
2.114
 21
722.985
  0
LINE
  8
0
 10
2.114
 20
722.985
 11
1.84853
 21
723.234
  0
LINE
  8
0
 10
1.84853
 20
723.234
 11
1.55389
 21
723.449
  0
LINE
  8
0
 10
1.55389
 20
723.449
 11
1.23476
 21
723.624
  0
LINE
  8
0
 10
1.23476
 20
723.624
 11
0.896149
 21
723.758
  0
LINE
  8
0
 10
0.896149
 20
723.758
 11
0.543396
 21
723.849
  0
LINE
  8
0
 10
0.543396
 20
723.849
 11
0.182083
 21
723.894
  0
LINE
  8
0
 10
0.182083
 20
723.894
 11
-0.182083
 21
723.894
  0
LINE
  8
0
 10
-0.182083
 20
723.894
 11
-0.543396
 21
723.849
  0
LINE
  8
0
 10
-0.543396
 20
723.849
 11
-0.896149
 21
723.758
  0
LINE
  8
0
 10
-0.896149
 20
723.758
 11
-1.23476
 21
723.624
  0
LINE
  8
0
 10
-1.23476
 20
723.624
 11
-1.55389
 21
723.449
  0
LINE
  8
0
 10
-1.55389
 20
723.449
 11
-1.84853
 21
723.234
  0
LINE
  8
0
 10
-1.84853
 20
723.234
 11
-2.114
 21
722.985
  0
LINE
  8
0
 10
-2.114
 20
722.985
 11
-2.34615
 21
722.705
  0
LINE
  8
0
 10
-2.34615
 20
722.705
 11
-2.54128
 21
722.397
  0
LINE
  8
0
 10
-2.54128
 20
722.397
 11
-2.69635
 21
722.068
  0
LINE
  8
0
 10
-2.69635
 20
722.068
 11
-2.80888
 21
721.721
  0
LINE
  8
0
 10
-2.80888
 20
721.721
 11
-2.87712
 21
721.363
  0
LINE
  8
0
 10
-2.87712
 20
721.363
 11
-2.89999
 21
721
  0
LINE
  8
0
 10
-2.89999
 20
721
 11
-2.87712
 21
720.637
  0
LINE
  8
0
 10
-2.87712
 20
720.637
 11
-2.80888
 21
720.279
  0
LINE
  8
0
 10
-2.80888
 20
720.279
 11
-2.69635
 21
719.932
  0
LINE
  8
0
 10
-2.69635
 20
719.932
 11
-2.54128
 21
719.603
  0
LINE
  8
0
 10
-2.54128
 20
719.603
 11
-2.34615
 21
719.295
  0
LINE
  8
0
 10
-2.34615
 20
719.295
 11
-2.114
 21
719.015
  0
LINE
  8
0
 10
-2.114
 20
719.015
 11
-1.84853
 21
718.766
  0
LINE
  8
0
 10
-1.84853
 20
718.766
 11
-1.55389
 21
718.551
  0
LINE
  8
0
 10
-1.55389
 20
718.551
 11
-1.23476
 21
718.376
  0
LINE
  8
0
 10
-1.23476
 20
718.376
 11
-0.896149
 21
718.242
  0
LINE
  8
0
 10
-0.896149
 20
718.242
 11
-0.543396
 21
718.151
  0
LINE
  8
0
 10
-0.543396
 20
718.151
 11
-0.182083
 21
718.106
  0
LINE
  8
0
 10
-0.182083
 20
718.106
 11
0.182083
 21
718.106
  0
LINE
  8
0
 10
0.182083
 20
718.106
 11
0.543396
 21
718.151
  0
LINE
  8
0
 10
0.281067
 20
616.527
 11
0.463516
 21
616.573
  0
LINE
  8
0
 10
0.463516
 20
616.573
 11
0.638657
 21
616.643
  0
LINE
  8
0
 10
0.638657
 20
616.643
 11
0.803726
 21
616.734
  0
LINE
  8
0
 10
0.803726
 20
616.734
 11
0.956131
 21
616.844
  0
LINE
  8
0
 10
0.956131
 20
616.844
 11
1.09344
 21
616.973
  0
LINE
  8
0
 10
1.09344
 20
616.973
 11
1.21352
 21
617.118
  0
LINE
  8
0
 10
1.21352
 20
617.118
 11
1.31445
 21
617.277
  0
LINE
  8
0
 10
1.31445
 20
617.277
 11
1.39465
 21
617.448
  0
LINE
  8
0
 10
1.39465
 20
617.448
 11
1.45287
 21
617.627
  0
LINE
  8
0
 10
1.45287
 20
617.627
 11
1.48816
 21
617.812
  0
LINE
  8
0
 10
1.48816
 20
617.812
 11
1.5
 21
618
  0
LINE
  8
0
 10
1.5
 20
618
 11
1.48816
 21
618.188
  0
LINE
  8
0
 10
1.48816
 20
618.188
 11
1.45287
 21
618.373
  0
LINE
  8
0
 10
1.45287
 20
618.373
 11
1.39465
 21
618.552
  0
LINE
  8
0
 10
1.39465
 20
618.552
 11
1.31445
 21
618.723
  0
LINE
  8
0
 10
1.31445
 20
618.723
 11
1.21352
 21
618.882
  0
LINE
  8
0
 10
1.21352
 20
618.882
 11
1.09344
 21
619.027
  0
LINE
  8
0
 10
1.09344
 20
619.027
 11
0.956131
 21
619.156
  0
LINE
  8
0
 10
0.956131
 20
619.156
 11
0.803726
 21
619.266
  0
LINE
  8
0
 10
0.803726
 20
619.266
 11
0.638657
 21
619.357
  0
LINE
  8
0
 10
0.638657
 20
619.357
 11
0.463516
 21
619.427
  0
LINE
  8
0
 10
0.463516
 20
619.427
 11
0.281067
 21
619.473
  0
LINE
  8
0
 10
0.281067
 20
619.473
 11
0.0941772
 21
619.497
  0
LINE
  8
0
 10
0.0941772
 20
619.497
 11
-0.0941772
 21
619.497
  0
LINE
  8
0
 10
-0.0941772
 20
619.497
 11
-0.281067
 21
619.473
  0
LINE
  8
0
 10
-0.281067
 20
619.473
 11
-0.463516
 21
619.427
  0
LINE
  8
0
 10
-0.463516
 20
619.427
 11
-0.638657
 21
619.357
  0
LINE
  8
0
 10
-0.638657
 20
619.357
 11
-0.803726
 21
619.266
  0
LINE
  8
0
 10
-0.803726
 20
619.266
 11
-0.956131
 21
619.156
  0
LINE
  8
0
 10
-0.956131
 20
619.156
 11
-1.09344
 21
619.027
  0
LINE
  8
0
 10
-1.09344
 20
619.027
 11
-1.21352
 21
618.882
  0
LINE
  8
0
 10
-1.21352
 20
618.882
 11
-1.31445
 21
618.723
  0
LINE
  8
0
 10
-1.31445
 20
618.723
 11
-1.39465
 21
618.552
  0
LINE
  8
0
 10
-1.39465
 20
618.552
 11
-1.45287
 21
618.373
  0
LINE
  8
0
 10
-1.45287
 20
618.373
 11
-1.48816
 21
618.188
  0
LINE
  8
0
 10
-1.48816
 20
618.188
 11
-1.5
 21
618
  0
LINE
  8
0
 10
-1.5
 20
618
 11
-1.48816
 21
617.812
  0
LINE
  8
0
 10
-1.48816
 20
617.812
 11
-1.45287
 21
617.627
  0
LINE
  8
0
 10
-1.45287
 20
617.627
 11
-1.39465
 21
617.448
  0
LINE
  8
0
 10
-1.39465
 20
617.448
 11
-1.31445
 21
617.277
  0
LINE
  8
0
 10
-1.31445
 20
617.277
 11
-1.21352
 21
617.118
  0
LINE
  8
0
 10
-1.21352
 20
617.118
 11
-1.09344
 21
616.973
  0
LINE
  8
0
 10
-1.09344
 20
616.973
 11
-0.956131
 21
616.844
  0
LINE
  8
0
 10
-0.956131
 20
616.844
 11
-0.803726
 21
616.734
  0
LINE
  8
0
 10
-0.803726
 20
616.734
 11
-0.638657
 21
616.643
  0
LINE
  8
0
 10
-0.638657
 20
616.643
 11
-0.463516
 21
616.573
  0
LINE
  8
0
 10
-0.463516
 20
616.573
 11
-0.281067
 21
616.527
  0
LINE
  8
0
 10
-0.281067
 20
616.527
 11
-0.0941772
 21
616.503
  0
LINE
  8
0
 10
-0.0941772
 20
616.503
 11
0.0941772
 21
616.503
  0
LINE
  8
0
 10
0.0941772
 20
616.503
 11
0.281067
 21
616.527
  0
LINE
  8
0
 10
0.281067
 20
513.527
 11
0.463516
 21
513.573
  0
LINE
  8
0
 10
0.463516
 20
513.573
 11
0.638657
 21
513.643
  0
LINE
  8
0
 10
0.638657
 20
513.643
 11
0.803726
 21
513.734
  0
LINE
  8
0
 10
0.803726
 20
513.734
 11
0.956131
 21
513.844
  0
LINE
  8
0
 10
0.956131
 20
513.844
 11
1.09344
 21
513.973
  0
LINE
  8
0
 10
1.09344
 20
513.973
 11
1.21352
 21
514.118
  0
LINE
  8
0
 10
1.21352
 20
514.118
 11
1.31445
 21
514.277
  0
LINE
  8
0
 10
1.31445
 20
514.277
 11
1.39465
 21
514.448
  0
LINE
  8
0
 10
1.39465
 20
514.448
 11
1.45287
 21
514.627
  0
LINE
  8
0
 10
1.45287
 20
514.627
 11
1.48816
 21
514.812
  0
LINE
  8
0
 10
1.48816
 20
514.812
 11
1.5
 21
515
  0
LINE
  8
0
 10
1.5
 20
515
 11
1.48816
 21
515.188
  0
LINE
  8
0
 10
1.48816
 20
515.188
 11
1.45287
 21
515.373
  0
LINE
  8
0
 10
1.45287
 20
515.373
 11
1.39465
 21
515.552
  0
LINE
  8
0
 10
1.39465
 20
515.552
 11
1.31445
 21
515.723
  0
LINE
  8
0
 10
1.31445
 20
515.723
 11
1.21352
 21
515.882
  0
LINE
  8
0
 10
1.21352
 20
515.882
 11
1.09344
 21
516.027
  0
LINE
  8
0
 10
1.09344
 20
516.027
 11
0.956131
 21
516.156
  0
LINE
  8
0
 10
0.956131
 20
516.156
 11
0.803726
 21
516.266
  0
LINE
  8
0
 10
0.803726
 20
516.266
 11
0.638657
 21
516.357
  0
LINE
  8
0
 10
0.638657
 20
516.357
 11
0.463516
 21
516.427
  0
LINE
  8
0
 10
0.463516
 20
516.427
 11
0.281067
 21
516.473
  0
LINE
  8
0
 10
0.281067
 20
516.473
 11
0.0941772
 21
516.497
  0
LINE
  8
0
 10
0.0941772
 20
516.497
 11
-0.0941772
 21
516.497
  0
LINE
  8
0
 10
-0.0941772
 20
516.497
 11
-0.281067
 21
516.473
  0
LINE
  8
0
 10
-0.281067
 20
516.473
 11
-0.463516
 21
516.427
  0
LINE
  8
0
 10
-0.463516
 20
516.427
 11
-0.638657
 21
516.357
  0
LINE
  8
0
 10
-0.638657
 20
516.357
 11
-0.803726
 21
516.266
  0
LINE
  8
0
 10
-0.803726
 20
516.266
 11
-0.956131
 21
516.156
  0
LINE
  8
0
 10
-0.956131
 20
516.156
 11
-1.09344
 21
516.027
  0
LINE
  8
0
 10
-1.09344
 20
516.027
 11
-1.21352
 21
515.882
  0
LINE
  8
0
 10
-1.21352
 20
515.882
 11
-1.31445
 21
515.723
  0
LINE
  8
0
 10
-1.31445
 20
515.723
 11
-1.39465
 21
515.552
  0
LINE
  8
0
 10
-1.39465
 20
515.552
 11
-1.45287
 21
515.373
  0
LINE
  8
0
 10
-1.45287
 20
515.373
 11
-1.48816
 21
515.188
  0
LINE
  8
0
 10
-1.48816
 20
515.188
 11
-1.5
 21
515
  0
LINE
  8
0
 10
-1.5
 20
515
 11
-1.48816
 21
514.812
  0
LINE
  8
0
 10
-1.48816
 20
514.812
 11
-1.45287
 21
514.627
  0
LINE
  8
0
 10
-1.45287
 20
514.627
 11
-1.39465
 21
514.448
  0
LINE
  8
0
 10
-1.39465
 20
514.448
 11
-1.31445
 21
514.277
  0
LINE
  8
0
 10
-1.31445
 20
514.277
 11
-1.21352
 21
514.118
  0
LINE
  8
0
 10
-1.21352
 20
514.118
 11
-1.09344
 21
513.973
  0
LINE
  8
0
 10
-1.09344
 20
513.973
 11
-0.956131
 21
513.844
  0
LINE
  8
0
 10
-0.956131
 20
513.844
 11
-0.803726
 21
513.734
  0
LINE
  8
0
 10
-0.803726
 20
513.734
 11
-0.638657
 21
513.643
  0
LINE
  8
0
 10
-0.638657
 20
513.643
 11
-0.463516
 21
513.573
  0
LINE
  8
0
 10
-0.463516
 20
513.573
 11
-0.281067
 21
513.527
  0
LINE
  8
0
 10
-0.281067
 20
513.527
 11
-0.0941772
 21
513.503
  0
LINE
  8
0
 10
-0.0941772
 20
513.503
 11
0.0941772
 21
513.503
  0
LINE
  8
0
 10
0.0941772
 20
513.503
 11
0.281067
 21
513.527
  0
LINE
  8
0
 10
0.281067
 20
410.527
 11
0.463516
 21
410.573
  0
LINE
  8
0
 10
0.463516
 20
410.573
 11
0.638657
 21
410.643
  0
LINE
  8
0
 10
0.638657
 20
410.643
 11
0.803726
 21
410.734
  0
LINE
  8
0
 10
0.803726
 20
410.734
 11
0.956131
 21
410.844
  0
LINE
  8
0
 10
0.956131
 20
410.844
 11
1.09344
 21
410.973
  0
LINE
  8
0
 10
1.09344
 20
410.973
 11
1.21352
 21
411.118
  0
LINE
  8
0
 10
1.21352
 20
411.118
 11
1.31445
 21
411.277
  0
LINE
  8
0
 10
1.31445
 20
411.277
 11
1.39465
 21
411.448
  0
LINE
  8
0
 10
1.39465
 20
411.448
 11
1.45287
 21
411.627
  0
LINE
  8
0
 10
1.45287
 20
411.627
 11
1.48816
 21
411.812
  0
LINE
  8
0
 10
1.48816
 20
411.812
 11
1.5
 21
412
  0
LINE
  8
0
 10
1.5
 20
412
 11
1.48816
 21
412.188
  0
LINE
  8
0
 10
1.48816
 20
412.188
 11
1.45287
 21
412.373
  0
LINE
  8
0
 10
1.45287
 20
412.373
 11
1.39465
 21
412.552
  0
LINE
  8
0
 10
1.39465
 20
412.552
 11
1.31445
 21
412.723
  0
LINE
  8
0
 10
1.31445
 20
412.723
 11
1.21352
 21
412.882
  0
LINE
  8
0
 10
1.21352
 20
412.882
 11
1.09344
 21
413.027
  0
LINE
  8
0
 10
1.09344
 20
413.027
 11
0.956131
 21
413.156
  0
LINE
  8
0
 10
0.956131
 20
413.156
 11
0.803726
 21
413.266
  0
LINE
  8
0
 10
0.803726
 20
413.266
 11
0.638657
 21
413.357
  0
LINE
  8
0
 10
0.638657
 20
413.357
 11
0.463516
 21
413.427
  0
LINE
  8
0
 10
0.463516
 20
413.427
 11
0.281067
 21
413.473
  0
LINE
  8
0
 10
0.281067
 20
413.473
 11
0.0941772
 21
413.497
  0
LINE
  8
0
 10
0.0941772
 20
413.497
 11
-0.0941772
 21
413.497
  0
LINE
  8
0
 10
-0.0941772
 20
413.497
 11
-0.281067
 21
413.473
  0
LINE
  8
0
 10
-0.281067
 20
413.473
 11
-0.463516
 21
413.427
  0
LINE
  8
0
 10
-0.463516
 20
413.427
 11
-0.638657
 21
413.357
  0
LINE
  8
0
 10
-0.638657
 20
413.357
 11
-0.803726
 21
413.266
  0
LINE
  8
0
 10
-0.803726
 20
413.266
 11
-0.956131
 21
413.156
  0
LINE
  8
0
 10
-0.956131
 20
413.156
 11
-1.09344
 21
413.027
  0
LINE
  8
0
 10
-1.09344
 20
413.027
 11
-1.21352
 21
412.882
  0
LINE
  8
0
 10
-1.21352
 20
412.882
 11
-1.31445
 21
412.723
  0
LINE
  8
0
 10
-1.31445
 20
412.723
 11
-1.39465
 21
412.552
  0
LINE
  8
0
 10
-1.39465
 20
412.552
 11
-1.45287
 21
412.373
  0
LINE
  8
0
 10
-1.45287
 20
412.373
 11
-1.48816
 21
412.188
  0
LINE
  8
0
 10
-1.48816
 20
412.188
 11
-1.5
 21
412
  0
LINE
  8
0
 10
-1.5
 20
412
 11
-1.48816
 21
411.812
  0
LINE
  8
0
 10
-1.48816
 20
411.812
 11
-1.45287
 21
411.627
  0
LINE
  8
0
 10
-1.45287
 20
411.627
 11
-1.39465
 21
411.448
  0
LINE
  8
0
 10
-1.39465
 20
411.448
 11
-1.31445
 21
411.277
  0
LINE
  8
0
 10
-1.31445
 20
411.277
 11
-1.21352
 21
411.118
  0
LINE
  8
0
 10
-1.21352
 20
411.118
 11
-1.09344
 21
410.973
  0
LINE
  8
0
 10
-1.09344
 20
410.973
 11
-0.956131
 21
410.844
  0
LINE
  8
0
 10
-0.956131
 20
410.844
 11
-0.803726
 21
410.734
  0
LINE
  8
0
 10
-0.803726
 20
410.734
 11
-0.638657
 21
410.643
  0
LINE
  8
0
 10
-0.638657
 20
410.643
 11
-0.463516
 21
410.573
  0
LINE
  8
0
 10
-0.463516
 20
410.573
 11
-0.281067
 21
410.527
  0
LINE
  8
0
 10
-0.281067
 20
410.527
 11
-0.0941772
 21
410.503
  0
LINE
  8
0
 10
-0.0941772
 20
410.503
 11
0.0941772
 21
410.503
  0
LINE
  8
0
 10
0.0941772
 20
410.503
 11
0.281067
 21
410.527
  0
LINE
  8
0
 10
0.281067
 20
307.527
 11
0.463516
 21
307.573
  0
LINE
  8
0
 10
0.463516
 20
307.573
 11
0.638657
 21
307.643
  0
LINE
  8
0
 10
0.638657
 20
307.643
 11
0.803726
 21
307.734
  0
LINE
  8
0
 10
0.803726
 20
307.734
 11
0.956131
 21
307.844
  0
LINE
  8
0
 10
0.956131
 20
307.844
 11
1.09344
 21
307.973
  0
LINE
  8
0
 10
1.09344
 20
307.973
 11
1.21352
 21
308.118
  0
LINE
  8
0
 10
1.21352
 20
308.118
 11
1.31445
 21
308.277
  0
LINE
  8
0
 10
1.31445
 20
308.277
 11
1.39465
 21
308.448
  0
LINE
  8
0
 10
1.39465
 20
308.448
 11
1.45287
 21
308.627
  0
LINE
  8
0
 10
1.45287
 20
308.627
 11
1.48816
 21
308.812
  0
LINE
  8
0
 10
1.48816
 20
308.812
 11
1.5
 21
309
  0
LINE
  8
0
 10
1.5
 20
309
 11
1.48816
 21
309.188
  0
LINE
  8
0
 10
1.48816
 20
309.188
 11
1.45287
 21
309.373
  0
LINE
  8
0
 10
1.45287
 20
309.373
 11
1.39465
 21
309.552
  0
LINE
  8
0
 10
1.39465
 20
309.552
 11
1.31445
 21
309.723
  0
LINE
  8
0
 10
1.31445
 20
309.723
 11
1.21352
 21
309.882
  0
LINE
  8
0
 10
1.21352
 20
309.882
 11
1.09344
 21
310.027
  0
LINE
  8
0
 10
1.09344
 20
310.027
 11
0.956131
 21
310.156
  0
LINE
  8
0
 10
0.956131
 20
310.156
 11
0.803726
 21
310.266
  0
LINE
  8
0
 10
0.803726
 20
310.266
 11
0.638657
 21
310.357
  0
LINE
  8
0
 10
0.638657
 20
310.357
 11
0.463516
 21
310.427
  0
LINE
  8
0
 10
0.463516
 20
310.427
 11
0.281067
 21
310.473
  0
LINE
  8
0
 10
0.281067
 20
310.473
 11
0.0941772
 21
310.497
  0
LINE
  8
0
 10
0.0941772
 20
310.497
 11
-0.0941772
 21
310.497
  0
LINE
  8
0
 10
-0.0941772
 20
310.497
 11
-0.281067
 21
310.473
  0
LINE
  8
0
 10
-0.281067
 20
310.473
 11
-0.463516
 21
310.427
  0
LINE
  8
0
 10
-0.463516
 20
310.427
 11
-0.638657
 21
310.357
  0
LINE
  8
0
 10
-0.638657
 20
310.357
 11
-0.803726
 21
310.266
  0
LINE
  8
0
 10
-0.803726
 20
310.266
 11
-0.956131
 21
310.156
  0
LINE
  8
0
 10
-0.956131
 20
310.156
 11
-1.09344
 21
310.027
  0
LINE
  8
0
 10
-1.09344
 20
310.027
 11
-1.21352
 21
309.882
  0
LINE
  8
0
 10
-1.21352
 20
309.882
 11
-1.31445
 21
309.723
  0
LINE
  8
0
 10
-1.31445
 20
309.723
 11
-1.39465
 21
309.552
  0
LINE
  8
0
 10
-1.39465
 20
309.552
 11
-1.45287
 21
309.373
  0
LINE
  8
0
 10
-1.45287
 20
309.373
 11
-1.48816
 21
309.188
  0
LINE
  8
0
 10
-1.48816
 20
309.188
 11
-1.5
 21
309
  0
LINE
  8
0
 10
-1.5
 20
309
 11
-1.48816
 21
308.812
  0
LINE
  8
0
 10
-1.48816
 20
308.812
 11
-1.45287
 21
308.627
  0
LINE
  8
0
 10
-1.45287
 20
308.627
 11
-1.39465
 21
308.448
  0
LINE
  8
0
 10
-1.39465
 20
308.448
 11
-1.31445
 21
308.277
  0
LINE
  8
0
 10
-1.31445
 20
308.277
 11
-1.21352
 21
308.118
  0
LINE
  8
0
 10
-1.21352
 20
308.118
 11
-1.09344
 21
307.973
  0
LINE
  8
0
 10
-1.09344
 20
307.973
 11
-0.956131
 21
307.844
  0
LINE
  8
0
 10
-0.956131
 20
307.844
 11
-0.803726
 21
307.734
  0
LINE
  8
0
 10
-0.803726
 20
307.734
 11
-0.638657
 21
307.643
  0
LINE
  8
0
 10
-0.638657
 20
307.643
 11
-0.463516
 21
307.573
  0
LINE
  8
0
 10
-0.463516
 20
307.573
 11
-0.281067
 21
307.527
  0
LINE
  8
0
 10
-0.281067
 20
307.527
 11
-0.0941772
 21
307.503
  0
LINE
  8
0
 10
-0.0941772
 20
307.503
 11
0.0941772
 21
307.503
  0
LINE
  8
0
 10
0.0941772
 20
307.503
 11
0.281067
 21
307.527
  0
LINE
  8
0
 10
0.281067
 20
204.527
 11
0.463516
 21
204.573
  0
LINE
  8
0
 10
0.463516
 20
204.573
 11
0.638657
 21
204.643
  0
LINE
  8
0
 10
0.638657
 20
204.643
 11
0.803726
 21
204.734
  0
LINE
  8
0
 10
0.803726
 20
204.734
 11
0.956131
 21
204.844
  0
LINE
  8
0
 10
0.956131
 20
204.844
 11
1.09344
 21
204.973
  0
LINE
  8
0
 10
1.09344
 20
204.973
 11
1.21352
 21
205.118
  0
LINE
  8
0
 10
1.21352
 20
205.118
 11
1.31445
 21
205.277
  0
LINE
  8
0
 10
1.31445
 20
205.277
 11
1.39465
 21
205.448
  0
LINE
  8
0
 10
1.39465
 20
205.448
 11
1.45287
 21
205.627
  0
LINE
  8
0
 10
1.45287
 20
205.627
 11
1.48816
 21
205.812
  0
LINE
  8
0
 10
1.48816
 20
205.812
 11
1.5
 21
206
  0
LINE
  8
0
 10
1.5
 20
206
 11
1.48816
 21
206.188
  0
LINE
  8
0
 10
1.48816
 20
206.188
 11
1.45287
 21
206.373
  0
LINE
  8
0
 10
1.45287
 20
206.373
 11
1.39465
 21
206.552
  0
LINE
  8
0
 10
1.39465
 20
206.552
 11
1.31445
 21
206.723
  0
LINE
  8
0
 10
1.31445
 20
206.723
 11
1.21352
 21
206.882
  0
LINE
  8
0
 10
1.21352
 20
206.882
 11
1.09344
 21
207.027
  0
LINE
  8
0
 10
1.09344
 20
207.027
 11
0.956131
 21
207.156
  0
LINE
  8
0
 10
0.956131
 20
207.156
 11
0.803726
 21
207.266
  0
LINE
  8
0
 10
0.803726
 20
207.266
 11
0.638657
 21
207.357
  0
LINE
  8
0
 10
0.638657
 20
207.357
 11
0.463516
 21
207.427
  0
LINE
  8
0
 10
0.463516
 20
207.427
 11
0.281067
 21
207.473
  0
LINE
  8
0
 10
0.281067
 20
207.473
 11
0.0941772
 21
207.497
  0
LINE
  8
0
 10
0.0941772
 20
207.497
 11
-0.0941772
 21
207.497
  0
LINE
  8
0
 10
-0.0941772
 20
207.497
 11
-0.281067
 21
207.473
  0
LINE
  8
0
 10
-0.281067
 20
207.473
 11
-0.463516
 21
207.427
  0
LINE
  8
0
 10
-0.463516
 20
207.427
 11
-0.638657
 21
207.357
  0
LINE
  8
0
 10
-0.638657
 20
207.357
 11
-0.803726
 21
207.266
  0
LINE
  8
0
 10
-0.803726
 20
207.266
 11
-0.956131
 21
207.156
  0
LINE
  8
0
 10
-0.956131
 20
207.156
 11
-1.09344
 21
207.027
  0
LINE
  8
0
 10
-1.09344
 20
207.027
 11
-1.21352
 21
206.882
  0
LINE
  8
0
 10
-1.21352
 20
206.882
 11
-1.31445
 21
206.723
  0
LINE
  8
0
 10
-1.31445
 20
206.723
 11
-1.39465
 21
206.552
  0
LINE
  8
0
 10
-1.39465
 20
206.552
 11
-1.45287
 21
206.373
  0
LINE
  8
0
 10
-1.45287
 20
206.373
 11
-1.48816
 21
206.188
  0
LINE
  8
0
 10
-1.48816
 20
206.188
 11
-1.5
 21
206
  0
LINE
  8
0
 10
-1.5
 20
206
 11
-1.48816
 21
205.812
  0
LINE
  8
0
 10
-1.48816
 20
205.812
 11
-1.45287
 21
205.627
  0
LINE
  8
0
 10
-1.45287
 20
205.627
 11
-1.39465
 21
205.448
  0
LINE
  8
0
 10
-1.39465
 20
205.448
 11
-1.31445
 21
205.277
  0
LINE
  8
0
 10
-1.31445
 20
205.277
 11
-1.21352
 21
205.118
  0
LINE
  8
0
 10
-1.21352
 20
205.118
 11
-1.09344
 21
204.973
  0
LINE
  8
0
 10
-1.09344
 20
204.973
 11
-0.956131
 21
204.844
  0
LINE
  8
0
 10
-0.956131
 20
204.844
 11
-0.803726
 21
204.734
  0
LINE
  8
0
 10
-0.803726
 20
204.734
 11
-0.638657
 21
204.643
  0
LINE
  8
0
 10
-0.638657
 20
204.643
 11
-0.463516
 21
204.573
  0
LINE
  8
0
 10
-0.463516
 20
204.573
 11
-0.281067
 21
204.527
  0
LINE
  8
0
 10
-0.281067
 20
204.527
 11
-0.0941772
 21
204.503
  0
LINE
  8
0
 10
-0.0941772
 20
204.503
 11
0.0941772
 21
204.503
  0
LINE
  8
0
 10
0.0941772
 20
204.503
 11
0.281067
 21
204.527
  0
LINE
  8
0
 10
0.281067
 20
101.527
 11
0.463516
 21
101.573
  0
LINE
  8
0
 10
0.463516
 20
101.573
 11
0.638657
 21
101.643
  0
LINE
  8
0
 10
0.638657
 20
101.643
 11
0.803726
 21
101.734
  0
LINE
  8
0
 10
0.803726
 20
101.734
 11
0.956131
 21
101.844
  0
LINE
  8
0
 10
0.956131
 20
101.844
 11
1.09344
 21
101.973
  0
LINE
  8
0
 10
1.09344
 20
101.973
 11
1.21352
 21
102.118
  0
LINE
  8
0
 10
1.21352
 20
102.118
 11
1.31445
 21
102.277
  0
LINE
  8
0
 10
1.31445
 20
102.277
 11
1.39465
 21
102.448
  0
LINE
  8
0
 10
1.39465
 20
102.448
 11
1.45287
 21
102.627
  0
LINE
  8
0
 10
1.45287
 20
102.627
 11
1.48816
 21
102.812
  0
LINE
  8
0
 10
1.48816
 20
102.812
 11
1.5
 21
103
  0
LINE
  8
0
 10
1.5
 20
103
 11
1.48816
 21
103.188
  0
LINE
  8
0
 10
1.48816
 20
103.188
 11
1.45287
 21
103.373
  0
LINE
  8
0
 10
1.45287
 20
103.373
 11
1.39465
 21
103.552
  0
LINE
  8
0
 10
1.39465
 20
103.552
 11
1.31445
 21
103.723
  0
LINE
  8
0
 10
1.31445
 20
103.723
 11
1.21352
 21
103.882
  0
LINE
  8
0
 10
1.21352
 20
103.882
 11
1.09344
 21
104.027
  0
LINE
  8
0
 10
1.09344
 20
104.027
 11
0.956131
 21
104.156
  0
LINE
  8
0
 10
0.956131
 20
104.156
 11
0.803726
 21
104.266
  0
LINE
  8
0
 10
0.803726
 20
104.266
 11
0.638657
 21
104.357
  0
LINE
  8
0
 10
0.638657
 20
104.357
 11
0.463516
 21
104.427
  0
LINE
  8
0
 10
0.463516
 20
104.427
 11
0.281067
 21
104.473
  0
LINE
  8
0
 10
0.281067
 20
104.473
 11
0.0941772
 21
104.497
  0
LINE
  8
0
 10
0.0941772
 20
104.497
 11
-0.0941772
 21
104.497
  0
LINE
  8
0
 10
-0.0941772
 20
104.497
 11
-0.281067
 21
104.473
  0
LINE
  8
0
 10
-0.281067
 20
104.473
 11
-0.463516
 21
104.427
  0
LINE
  8
0
 10
-0.463516
 20
104.427
 11
-0.638657
 21
104.357
  0
LINE
  8
0
 10
-0.638657
 20
104.357
 11
-0.803726
 21
104.266
  0
LINE
  8
0
 10
-0.803726
 20
104.266
 11
-0.956131
 21
104.156
  0
LINE
  8
0
 10
-0.956131
 20
104.156
 11
-1.09344
 21
104.027
  0
LINE
  8
0
 10
-1.09344
 20
104.027
 11
-1.21352
 21
103.882
  0
LINE
  8
0
 10
-1.21352
 20
103.882
 11
-1.31445
 21
103.723
  0
LINE
  8
0
 10
-1.31445
 20
103.723
 11
-1.39465
 21
103.552
  0
LINE
  8
0
 10
-1.39465
 20
103.552
 11
-1.45287
 21
103.373
  0
LINE
  8
0
 10
-1.45287
 20
103.373
 11
-1.48816
 21
103.188
  0
LINE
  8
0
 10
-1.48816
 20
103.188
 11
-1.5
 21
103
  0
LINE
  8
0
 10
-1.5
 20
103
 11
-1.48816
 21
102.812
  0
LINE
  8
0
 10
-1.48816
 20
102.812
 11
-1.45287
 21
102.627
  0
LINE
  8
0
 10
-1.45287
 20
102.627
 11
-1.39465
 21
102.448
  0
LINE
  8
0
 10
-1.39465
 20
102.448
 11
-1.31445
 21
102.277
  0
LINE
  8
0
 10
-1.31445
 20
102.277
 11
-1.21352
 21
102.118
  0
LINE
  8
0
 10
-1.21352
 20
102.118
 11
-1.09344
 21
101.973
  0
LINE
  8
0
 10
-1.09344
 20
101.973
 11
-0.956131
 21
101.844
  0
LINE
  8
0
 10
-0.956131
 20
101.844
 11
-0.803726
 21
101.734
  0
LINE
  8
0
 10
-0.803726
 20
101.734
 11
-0.638657
 21
101.643
  0
LINE
  8
0
 10
-0.638657
 20
101.643
 11
-0.463516
 21
101.573
  0
LINE
  8
0
 10
-0.463516
 20
101.573
 11
-0.281067
 21
101.527
  0
LINE
  8
0
 10
-0.281067
 20
101.527
 11
-0.0941772
 21
101.503
  0
LINE
  8
0
 10
-0.0941772
 20
101.503
 11
0.0941772
 21
101.503
  0
LINE
  8
0
 10
0.0941772
 20
101.503
 11
0.281067
 21
101.527
  0
LINE
  8
0
 10
0.281067
 20
-1.47342
 11
0.463516
 21
-1.42657
  0
LINE
  8
0
 10
0.463516
 20
-1.42657
 11
0.638657
 21
-1.35724
  0
LINE
  8
0
 10
0.638657
 20
-1.35724
 11
0.803726
 21
-1.26648
  0
LINE
  8
0
 10
0.803726
 20
-1.26648
 11
0.956131
 21
-1.15576
  0
LINE
  8
0
 10
0.956131
 20
-1.15576
 11
1.09344
 21
-1.02681
  0
LINE
  8
0
 10
1.09344
 20
-1.02681
 11
1.21352
 21
-0.881668
  0
LINE
  8
0
 10
1.21352
 20
-0.881668
 11
1.31445
 21
-0.722626
  0
LINE
  8
0
 10
1.31445
 20
-0.722626
 11
1.39465
 21
-0.552185
  0
LINE
  8
0
 10
1.39465
 20
-0.552185
 11
1.45287
 21
-0.373032
  0
LINE
  8
0
 10
1.45287
 20
-0.373032
 11
1.48816
 21
-0.187988
  0
LINE
  8
0
 10
1.48816
 20
-0.187988
 11
1.5
 21
0
  0
LINE
  8
0
 10
1.5
 20
0
 11
1.48816
 21
0.187988
  0
LINE
  8
0
 10
1.48816
 20
0.187988
 11
1.45287
 21
0.373032
  0
LINE
  8
0
 10
1.45287
 20
0.373032
 11
1.39465
 21
0.552185
  0
LINE
  8
0
 10
1.39465
 20
0.552185
 11
1.31445
 21
0.722626
  0
LINE
  8
0
 10
1.31445
 20
0.722626
 11
1.21352
 21
0.881668
  0
LINE
  8
0
 10
1.21352
 20
0.881668
 11
1.09344
 21
1.02681
  0
LINE
  8
0
 10
1.09344
 20
1.02681
 11
0.956131
 21
1.15576
  0
LINE
  8
0
 10
0.956131
 20
1.15576
 11
0.803726
 21
1.26648
  0
LINE
  8
0
 10
0.803726
 20
1.26648
 11
0.638657
 21
1.35724
  0
LINE
  8
0
 10
0.638657
 20
1.35724
 11
0.463516
 21
1.42657
  0
LINE
  8
0
 10
0.463516
 20
1.42657
 11
0.281067
 21
1.47342
  0
LINE
  8
0
 10
0.281067
 20
1.47342
 11
0.0941772
 21
1.49704
  0
LINE
  8
0
 10
0.0941772
 20
1.49704
 11
-0.0941772
 21
1.49704
  0
LINE
  8
0
 10
-0.0941772
 20
1.49704
 11
-0.281067
 21
1.47342
  0
LINE
  8
0
 10
-0.281067
 20
1.47342
 11
-0.463516
 21
1.42657
  0
LINE
  8
0
 10
-0.463516
 20
1.42657
 11
-0.638657
 21
1.35724
  0
LINE
  8
0
 10
-0.638657
 20
1.35724
 11
-0.803726
 21
1.26648
  0
LINE
  8
0
 10
-0.803726
 20
1.26648
 11
-0.956131
 21
1.15576
  0
LINE
  8
0
 10
-0.956131
 20
1.15576
 11
-1.09344
 21
1.02681
  0
LINE
  8
0
 10
-1.09344
 20
1.02681
 11
-1.21352
 21
0.881668
  0
LINE
  8
0
 10
-1.21352
 20
0.881668
 11
-1.31445
 21
0.722626
  0
LINE
  8
0
 10
-1.31445
 20
0.722626
 11
-1.39465
 21
0.552185
  0
LINE
  8
0
 10
-1.39465
 20
0.552185
 11
-1.45287
 21
0.373032
  0
LINE
  8
0
 10
-1.45287
 20
0.373032
 11
-1.48816
 21
0.187988
  0
LINE
  8
0
 10
-1.48816
 20
0.187988
 11
-1.5
 21
0
  0
LINE
  8
0
 10
-1.5
 20
0
 11
-1.48816
 21
-0.187988
  0
LINE
  8
0
 10
-1.48816
 20
-0.187988
 11
-1.45287
 21
-0.373032
  0
LINE
  8
0
 10
-1.45287
 20
-0.373032
 11
-1.39465
 21
-0.552185
  0
LINE
  8
0
 10
-1.39465
 20
-0.552185
 11
-1.31445
 21
-0.722626
  0
LINE
  8
0
 10
-1.31445
 20
-0.722626
 11
-1.21352
 21
-0.881668
  0
LINE
  8
0
 10
-1.21352
 20
-0.881668
 11
-1.09344
 21
-1.02681
  0
LINE
  8
0
 10
-1.09344
 20
-1.02681
 11
-0.956131
 21
-1.15576
  0
LINE
  8
0
 10
-0.956131
 20
-1.15576
 11
-0.803726
 21
-1.26648
  0
LINE
  8
0
 10
-0.803726
 20
-1.26648
 11
-0.638657
 21
-1.35724
  0
LINE
  8
0
 10
-0.638657
 20
-1.35724
 11
-0.463516
 21
-1.42657
  0
LINE
  8
0
 10
-0.463516
 20
-1.42657
 11
-0.281067
 21
-1.47342
  0
LINE
  8
0
 10
-0.281067
 20
-1.47342
 11
-0.0941772
 21
-1.49704
  0
LINE
  8
0
 10
-0.0941772
 20
-1.49704
 11
0.0941772
 21
-1.49704
  0
LINE
  8
0
 10
0.0941772
 20
-1.49704
 11
0.281067
 21
-1.47342
  0
ENDSEC
  0
SECTION
  2
OBJECTS
  0
DICTIONARY
  0
ENDSEC
  0
EOF
