  0
SECTION
  2
BLOCKS
  0
ENDSEC
  0
SECTION
  2
ENTITIES
  0
LINE
  8
0
 10
0.543396
 20
767.151
 11
0.896149
 21
767.242
  0
LINE
  8
0
 10
0.896149
 20
767.242
 11
1.23476
 21
767.376
  0
LINE
  8
0
 10
1.23476
 20
767.376
 11
1.55389
 21
767.551
  0
LINE
  8
0
 10
1.55389
 20
767.551
 11
1.84853
 21
767.766
  0
LINE
  8
0
 10
1.84853
 20
767.766
 11
2.114
 21
768.015
  0
LINE
  8
0
 10
2.114
 20
768.015
 11
2.34615
 21
768.295
  0
LINE
  8
0
 10
2.34615
 20
768.295
 11
2.54128
 21
768.603
  0
LINE
  8
0
 10
2.54128
 20
768.603
 11
2.69635
 21
768.932
  0
LINE
  8
0
 10
2.69635
 20
768.932
 11
2.80888
 21
769.279
  0
LINE
  8
0
 10
2.80888
 20
769.279
 11
2.87712
 21
769.637
  0
LINE
  8
0
 10
2.87712
 20
769.637
 11
2.89999
 21
770
  0
LINE
  8
0
 10
2.89999
 20
770
 11
2.87712
 21
770.363
  0
LINE
  8
0
 10
2.87712
 20
770.363
 11
2.80888
 21
770.721
  0
LINE
  8
0
 10
2.80888
 20
770.721
 11
2.69635
 21
771.068
  0
LINE
  8
0
 10
2.69635
 20
771.068
 11
2.54128
 21
771.397
  0
LINE
  8
0
 10
2.54128
 20
771.397
 11
2.34615
 21
771.705
  0
LINE
  8
0
 10
2.34615
 20
771.705
 11
2.114
 21
771.985
  0
LINE
  8
0
 10
2.114
 20
771.985
 11
1.84853
 21
772.234
  0
LINE
  8
0
 10
1.84853
 20
772.234
 11
1.55389
 21
772.449
  0
LINE
  8
0
 10
1.55389
 20
772.449
 11
1.23476
 21
772.624
  0
LINE
  8
0
 10
1.23476
 20
772.624
 11
0.896149
 21
772.758
  0
LINE
  8
0
 10
0.896149
 20
772.758
 11
0.543396
 21
772.849
  0
LINE
  8
0
 10
0.543396
 20
772.849
 11
0.182083
 21
772.894
  0
LINE
  8
0
 10
0.182083
 20
772.894
 11
-0.182083
 21
772.894
  0
LINE
  8
0
 10
-0.182083
 20
772.894
 11
-0.543396
 21
772.849
  0
LINE
  8
0
 10
-0.543396
 20
772.849
 11
-0.896149
 21
772.758
  0
LINE
  8
0
 10
-0.896149
 20
772.758
 11
-1.23476
 21
772.624
  0
LINE
  8
0
 10
-1.23476
 20
772.624
 11
-1.55389
 21
772.449
  0
LINE
  8
0
 10
-1.55389
 20
772.449
 11
-1.84853
 21
772.234
  0
LINE
  8
0
 10
-1.84853
 20
772.234
 11
-2.114
 21
771.985
  0
LINE
  8
0
 10
-2.114
 20
771.985
 11
-2.34615
 21
771.705
  0
LINE
  8
0
 10
-2.34615
 20
771.705
 11
-2.54128
 21
771.397
  0
LINE
  8
0
 10
-2.54128
 20
771.397
 11
-2.69635
 21
771.068
  0
LINE
  8
0
 10
-2.69635
 20
771.068
 11
-2.80888
 21
770.721
  0
LINE
  8
0
 10
-2.80888
 20
770.721
 11
-2.87712
 21
770.363
  0
LINE
  8
0
 10
-2.87712
 20
770.363
 11
-2.89999
 21
770
  0
LINE
  8
0
 10
-2.89999
 20
770
 11
-2.87712
 21
769.637
  0
LINE
  8
0
 10
-2.87712
 20
769.637
 11
-2.80888
 21
769.279
  0
LINE
  8
0
 10
-2.80888
 20
769.279
 11
-2.69635
 21
768.932
  0
LINE
  8
0
 10
-2.69635
 20
768.932
 11
-2.54128
 21
768.603
  0
LINE
  8
0
 10
-2.54128
 20
768.603
 11
-2.34615
 21
768.295
  0
LINE
  8
0
 10
-2.34615
 20
768.295
 11
-2.114
 21
768.015
  0
LINE
  8
0
 10
-2.114
 20
768.015
 11
-1.84853
 21
767.766
  0
LINE
  8
0
 10
-1.84853
 20
767.766
 11
-1.55389
 21
767.551
  0
LINE
  8
0
 10
-1.55389
 20
767.551
 11
-1.23476
 21
767.376
  0
LINE
  8
0
 10
-1.23476
 20
767.376
 11
-0.896149
 21
767.242
  0
LINE
  8
0
 10
-0.896149
 20
767.242
 11
-0.543396
 21
767.151
  0
LINE
  8
0
 10
-0.543396
 20
767.151
 11
-0.182083
 21
767.106
  0
LINE
  8
0
 10
-0.182083
 20
767.106
 11
0.182083
 21
767.106
  0
LINE
  8
0
 10
0.182083
 20
767.106
 11
0.543396
 21
767.151
  0
LINE
  8
0
 10
0.281067
 20
658.527
 11
0.463516
 21
658.573
  0
LINE
  8
0
 10
0.463516
 20
658.573
 11
0.638657
 21
658.643
  0
LINE
  8
0
 10
0.638657
 20
658.643
 11
0.803726
 21
658.734
  0
LINE
  8
0
 10
0.803726
 20
658.734
 11
0.956131
 21
658.844
  0
LINE
  8
0
 10
0.956131
 20
658.844
 11
1.09344
 21
658.973
  0
LINE
  8
0
 10
1.09344
 20
658.973
 11
1.21352
 21
659.118
  0
LINE
  8
0
 10
1.21352
 20
659.118
 11
1.31445
 21
659.277
  0
LINE
  8
0
 10
1.31445
 20
659.277
 11
1.39465
 21
659.448
  0
LINE
  8
0
 10
1.39465
 20
659.448
 11
1.45287
 21
659.627
  0
LINE
  8
0
 10
1.45287
 20
659.627
 11
1.48816
 21
659.812
  0
LINE
  8
0
 10
1.48816
 20
659.812
 11
1.5
 21
660
  0
LINE
  8
0
 10
1.5
 20
660
 11
1.48816
 21
660.188
  0
LINE
  8
0
 10
1.48816
 20
660.188
 11
1.45287
 21
660.373
  0
LINE
  8
0
 10
1.45287
 20
660.373
 11
1.39465
 21
660.552
  0
LINE
  8
0
 10
1.39465
 20
660.552
 11
1.31445
 21
660.723
  0
LINE
  8
0
 10
1.31445
 20
660.723
 11
1.21352
 21
660.882
  0
LINE
  8
0
 10
1.21352
 20
660.882
 11
1.09344
 21
661.027
  0
LINE
  8
0
 10
1.09344
 20
661.027
 11
0.956131
 21
661.156
  0
LINE
  8
0
 10
0.956131
 20
661.156
 11
0.803726
 21
661.266
  0
LINE
  8
0
 10
0.803726
 20
661.266
 11
0.638657
 21
661.357
  0
LINE
  8
0
 10
0.638657
 20
661.357
 11
0.463516
 21
661.427
  0
LINE
  8
0
 10
0.463516
 20
661.427
 11
0.281067
 21
661.473
  0
LINE
  8
0
 10
0.281067
 20
661.473
 11
0.0941772
 21
661.497
  0
LINE
  8
0
 10
0.0941772
 20
661.497
 11
-0.0941772
 21
661.497
  0
LINE
  8
0
 10
-0.0941772
 20
661.497
 11
-0.281067
 21
661.473
  0
LINE
  8
0
 10
-0.281067
 20
661.473
 11
-0.463516
 21
661.427
  0
LINE
  8
0
 10
-0.463516
 20
661.427
 11
-0.638657
 21
661.357
  0
LINE
  8
0
 10
-0.638657
 20
661.357
 11
-0.803726
 21
661.266
  0
LINE
  8
0
 10
-0.803726
 20
661.266
 11
-0.956131
 21
661.156
  0
LINE
  8
0
 10
-0.956131
 20
661.156
 11
-1.09344
 21
661.027
  0
LINE
  8
0
 10
-1.09344
 20
661.027
 11
-1.21352
 21
660.882
  0
LINE
  8
0
 10
-1.21352
 20
660.882
 11
-1.31445
 21
660.723
  0
LINE
  8
0
 10
-1.31445
 20
660.723
 11
-1.39465
 21
660.552
  0
LINE
  8
0
 10
-1.39465
 20
660.552
 11
-1.45287
 21
660.373
  0
LINE
  8
0
 10
-1.45287
 20
660.373
 11
-1.48816
 21
660.188
  0
LINE
  8
0
 10
-1.48816
 20
660.188
 11
-1.5
 21
660
  0
LINE
  8
0
 10
-1.5
 20
660
 11
-1.48816
 21
659.812
  0
LINE
  8
0
 10
-1.48816
 20
659.812
 11
-1.45287
 21
659.627
  0
LINE
  8
0
 10
-1.45287
 20
659.627
 11
-1.39465
 21
659.448
  0
LINE
  8
0
 10
-1.39465
 20
659.448
 11
-1.31445
 21
659.277
  0
LINE
  8
0
 10
-1.31445
 20
659.277
 11
-1.21352
 21
659.118
  0
LINE
  8
0
 10
-1.21352
 20
659.118
 11
-1.09344
 21
658.973
  0
LINE
  8
0
 10
-1.09344
 20
658.973
 11
-0.956131
 21
658.844
  0
LINE
  8
0
 10
-0.956131
 20
658.844
 11
-0.803726
 21
658.734
  0
LINE
  8
0
 10
-0.803726
 20
658.734
 11
-0.638657
 21
658.643
  0
LINE
  8
0
 10
-0.638657
 20
658.643
 11
-0.463516
 21
658.573
  0
LINE
  8
0
 10
-0.463516
 20
658.573
 11
-0.281067
 21
658.527
  0
LINE
  8
0
 10
-0.281067
 20
658.527
 11
-0.0941772
 21
658.503
  0
LINE
  8
0
 10
-0.0941772
 20
658.503
 11
0.0941772
 21
658.503
  0
LINE
  8
0
 10
0.0941772
 20
658.503
 11
0.281067
 21
658.527
  0
LINE
  8
0
 10
0.281067
 20
548.527
 11
0.463516
 21
548.573
  0
LINE
  8
0
 10
0.463516
 20
548.573
 11
0.638657
 21
548.643
  0
LINE
  8
0
 10
0.638657
 20
548.643
 11
0.803726
 21
548.734
  0
LINE
  8
0
 10
0.803726
 20
548.734
 11
0.956131
 21
548.844
  0
LINE
  8
0
 10
0.956131
 20
548.844
 11
1.09344
 21
548.973
  0
LINE
  8
0
 10
1.09344
 20
548.973
 11
1.21352
 21
549.118
  0
LINE
  8
0
 10
1.21352
 20
549.118
 11
1.31445
 21
549.277
  0
LINE
  8
0
 10
1.31445
 20
549.277
 11
1.39465
 21
549.448
  0
LINE
  8
0
 10
1.39465
 20
549.448
 11
1.45287
 21
549.627
  0
LINE
  8
0
 10
1.45287
 20
549.627
 11
1.48816
 21
549.812
  0
LINE
  8
0
 10
1.48816
 20
549.812
 11
1.5
 21
550
  0
LINE
  8
0
 10
1.5
 20
550
 11
1.48816
 21
550.188
  0
LINE
  8
0
 10
1.48816
 20
550.188
 11
1.45287
 21
550.373
  0
LINE
  8
0
 10
1.45287
 20
550.373
 11
1.39465
 21
550.552
  0
LINE
  8
0
 10
1.39465
 20
550.552
 11
1.31445
 21
550.723
  0
LINE
  8
0
 10
1.31445
 20
550.723
 11
1.21352
 21
550.882
  0
LINE
  8
0
 10
1.21352
 20
550.882
 11
1.09344
 21
551.027
  0
LINE
  8
0
 10
1.09344
 20
551.027
 11
0.956131
 21
551.156
  0
LINE
  8
0
 10
0.956131
 20
551.156
 11
0.803726
 21
551.266
  0
LINE
  8
0
 10
0.803726
 20
551.266
 11
0.638657
 21
551.357
  0
LINE
  8
0
 10
0.638657
 20
551.357
 11
0.463516
 21
551.427
  0
LINE
  8
0
 10
0.463516
 20
551.427
 11
0.281067
 21
551.473
  0
LINE
  8
0
 10
0.281067
 20
551.473
 11
0.0941772
 21
551.497
  0
LINE
  8
0
 10
0.0941772
 20
551.497
 11
-0.0941772
 21
551.497
  0
LINE
  8
0
 10
-0.0941772
 20
551.497
 11
-0.281067
 21
551.473
  0
LINE
  8
0
 10
-0.281067
 20
551.473
 11
-0.463516
 21
551.427
  0
LINE
  8
0
 10
-0.463516
 20
551.427
 11
-0.638657
 21
551.357
  0
LINE
  8
0
 10
-0.638657
 20
551.357
 11
-0.803726
 21
551.266
  0
LINE
  8
0
 10
-0.803726
 20
551.266
 11
-0.956131
 21
551.156
  0
LINE
  8
0
 10
-0.956131
 20
551.156
 11
-1.09344
 21
551.027
  0
LINE
  8
0
 10
-1.09344
 20
551.027
 11
-1.21352
 21
550.882
  0
LINE
  8
0
 10
-1.21352
 20
550.882
 11
-1.31445
 21
550.723
  0
LINE
  8
0
 10
-1.31445
 20
550.723
 11
-1.39465
 21
550.552
  0
LINE
  8
0
 10
-1.39465
 20
550.552
 11
-1.45287
 21
550.373
  0
LINE
  8
0
 10
-1.45287
 20
550.373
 11
-1.48816
 21
550.188
  0
LINE
  8
0
 10
-1.48816
 20
550.188
 11
-1.5
 21
550
  0
LINE
  8
0
 10
-1.5
 20
550
 11
-1.48816
 21
549.812
  0
LINE
  8
0
 10
-1.48816
 20
549.812
 11
-1.45287
 21
549.627
  0
LINE
  8
0
 10
-1.45287
 20
549.627
 11
-1.39465
 21
549.448
  0
LINE
  8
0
 10
-1.39465
 20
549.448
 11
-1.31445
 21
549.277
  0
LINE
  8
0
 10
-1.31445
 20
549.277
 11
-1.21352
 21
549.118
  0
LINE
  8
0
 10
-1.21352
 20
549.118
 11
-1.09344
 21
548.973
  0
LINE
  8
0
 10
-1.09344
 20
548.973
 11
-0.956131
 21
548.844
  0
LINE
  8
0
 10
-0.956131
 20
548.844
 11
-0.803726
 21
548.734
  0
LINE
  8
0
 10
-0.803726
 20
548.734
 11
-0.638657
 21
548.643
  0
LINE
  8
0
 10
-0.638657
 20
548.643
 11
-0.463516
 21
548.573
  0
LINE
  8
0
 10
-0.463516
 20
548.573
 11
-0.281067
 21
548.527
  0
LINE
  8
0
 10
-0.281067
 20
548.527
 11
-0.0941772
 21
548.503
  0
LINE
  8
0
 10
-0.0941772
 20
548.503
 11
0.0941772
 21
548.503
  0
LINE
  8
0
 10
0.0941772
 20
548.503
 11
0.281067
 21
548.527
  0
LINE
  8
0
 10
0.281067
 20
438.527
 11
0.463516
 21
438.573
  0
LINE
  8
0
 10
0.463516
 20
438.573
 11
0.638657
 21
438.643
  0
LINE
  8
0
 10
0.638657
 20
438.643
 11
0.803726
 21
438.734
  0
LINE
  8
0
 10
0.803726
 20
438.734
 11
0.956131
 21
438.844
  0
LINE
  8
0
 10
0.956131
 20
438.844
 11
1.09344
 21
438.973
  0
LINE
  8
0
 10
1.09344
 20
438.973
 11
1.21352
 21
439.118
  0
LINE
  8
0
 10
1.21352
 20
439.118
 11
1.31445
 21
439.277
  0
LINE
  8
0
 10
1.31445
 20
439.277
 11
1.39465
 21
439.448
  0
LINE
  8
0
 10
1.39465
 20
439.448
 11
1.45287
 21
439.627
  0
LINE
  8
0
 10
1.45287
 20
439.627
 11
1.48816
 21
439.812
  0
LINE
  8
0
 10
1.48816
 20
439.812
 11
1.5
 21
440
  0
LINE
  8
0
 10
1.5
 20
440
 11
1.48816
 21
440.188
  0
LINE
  8
0
 10
1.48816
 20
440.188
 11
1.45287
 21
440.373
  0
LINE
  8
0
 10
1.45287
 20
440.373
 11
1.39465
 21
440.552
  0
LINE
  8
0
 10
1.39465
 20
440.552
 11
1.31445
 21
440.723
  0
LINE
  8
0
 10
1.31445
 20
440.723
 11
1.21352
 21
440.882
  0
LINE
  8
0
 10
1.21352
 20
440.882
 11
1.09344
 21
441.027
  0
LINE
  8
0
 10
1.09344
 20
441.027
 11
0.956131
 21
441.156
  0
LINE
  8
0
 10
0.956131
 20
441.156
 11
0.803726
 21
441.266
  0
LINE
  8
0
 10
0.803726
 20
441.266
 11
0.638657
 21
441.357
  0
LINE
  8
0
 10
0.638657
 20
441.357
 11
0.463516
 21
441.427
  0
LINE
  8
0
 10
0.463516
 20
441.427
 11
0.281067
 21
441.473
  0
LINE
  8
0
 10
0.281067
 20
441.473
 11
0.0941772
 21
441.497
  0
LINE
  8
0
 10
0.0941772
 20
441.497
 11
-0.0941772
 21
441.497
  0
LINE
  8
0
 10
-0.0941772
 20
441.497
 11
-0.281067
 21
441.473
  0
LINE
  8
0
 10
-0.281067
 20
441.473
 11
-0.463516
 21
441.427
  0
LINE
  8
0
 10
-0.463516
 20
441.427
 11
-0.638657
 21
441.357
  0
LINE
  8
0
 10
-0.638657
 20
441.357
 11
-0.803726
 21
441.266
  0
LINE
  8
0
 10
-0.803726
 20
441.266
 11
-0.956131
 21
441.156
  0
LINE
  8
0
 10
-0.956131
 20
441.156
 11
-1.09344
 21
441.027
  0
LINE
  8
0
 10
-1.09344
 20
441.027
 11
-1.21352
 21
440.882
  0
LINE
  8
0
 10
-1.21352
 20
440.882
 11
-1.31445
 21
440.723
  0
LINE
  8
0
 10
-1.31445
 20
440.723
 11
-1.39465
 21
440.552
  0
LINE
  8
0
 10
-1.39465
 20
440.552
 11
-1.45287
 21
440.373
  0
LINE
  8
0
 10
-1.45287
 20
440.373
 11
-1.48816
 21
440.188
  0
LINE
  8
0
 10
-1.48816
 20
440.188
 11
-1.5
 21
440
  0
LINE
  8
0
 10
-1.5
 20
440
 11
-1.48816
 21
439.812
  0
LINE
  8
0
 10
-1.48816
 20
439.812
 11
-1.45287
 21
439.627
  0
LINE
  8
0
 10
-1.45287
 20
439.627
 11
-1.39465
 21
439.448
  0
LINE
  8
0
 10
-1.39465
 20
439.448
 11
-1.31445
 21
439.277
  0
LINE
  8
0
 10
-1.31445
 20
439.277
 11
-1.21352
 21
439.118
  0
LINE
  8
0
 10
-1.21352
 20
439.118
 11
-1.09344
 21
438.973
  0
LINE
  8
0
 10
-1.09344
 20
438.973
 11
-0.956131
 21
438.844
  0
LINE
  8
0
 10
-0.956131
 20
438.844
 11
-0.803726
 21
438.734
  0
LINE
  8
0
 10
-0.803726
 20
438.734
 11
-0.638657
 21
438.643
  0
LINE
  8
0
 10
-0.638657
 20
438.643
 11
-0.463516
 21
438.573
  0
LINE
  8
0
 10
-0.463516
 20
438.573
 11
-0.281067
 21
438.527
  0
LINE
  8
0
 10
-0.281067
 20
438.527
 11
-0.0941772
 21
438.503
  0
LINE
  8
0
 10
-0.0941772
 20
438.503
 11
0.0941772
 21
438.503
  0
LINE
  8
0
 10
0.0941772
 20
438.503
 11
0.281067
 21
438.527
  0
LINE
  8
0
 10
0.281067
 20
328.527
 11
0.463516
 21
328.573
  0
LINE
  8
0
 10
0.463516
 20
328.573
 11
0.638657
 21
328.643
  0
LINE
  8
0
 10
0.638657
 20
328.643
 11
0.803726
 21
328.734
  0
LINE
  8
0
 10
0.803726
 20
328.734
 11
0.956131
 21
328.844
  0
LINE
  8
0
 10
0.956131
 20
328.844
 11
1.09344
 21
328.973
  0
LINE
  8
0
 10
1.09344
 20
328.973
 11
1.21352
 21
329.118
  0
LINE
  8
0
 10
1.21352
 20
329.118
 11
1.31445
 21
329.277
  0
LINE
  8
0
 10
1.31445
 20
329.277
 11
1.39465
 21
329.448
  0
LINE
  8
0
 10
1.39465
 20
329.448
 11
1.45287
 21
329.627
  0
LINE
  8
0
 10
1.45287
 20
329.627
 11
1.48816
 21
329.812
  0
LINE
  8
0
 10
1.48816
 20
329.812
 11
1.5
 21
330
  0
LINE
  8
0
 10
1.5
 20
330
 11
1.48816
 21
330.188
  0
LINE
  8
0
 10
1.48816
 20
330.188
 11
1.45287
 21
330.373
  0
LINE
  8
0
 10
1.45287
 20
330.373
 11
1.39465
 21
330.552
  0
LINE
  8
0
 10
1.39465
 20
330.552
 11
1.31445
 21
330.723
  0
LINE
  8
0
 10
1.31445
 20
330.723
 11
1.21352
 21
330.882
  0
LINE
  8
0
 10
1.21352
 20
330.882
 11
1.09344
 21
331.027
  0
LINE
  8
0
 10
1.09344
 20
331.027
 11
0.956131
 21
331.156
  0
LINE
  8
0
 10
0.956131
 20
331.156
 11
0.803726
 21
331.266
  0
LINE
  8
0
 10
0.803726
 20
331.266
 11
0.638657
 21
331.357
  0
LINE
  8
0
 10
0.638657
 20
331.357
 11
0.463516
 21
331.427
  0
LINE
  8
0
 10
0.463516
 20
331.427
 11
0.281067
 21
331.473
  0
LINE
  8
0
 10
0.281067
 20
331.473
 11
0.0941772
 21
331.497
  0
LINE
  8
0
 10
0.0941772
 20
331.497
 11
-0.0941772
 21
331.497
  0
LINE
  8
0
 10
-0.0941772
 20
331.497
 11
-0.281067
 21
331.473
  0
LINE
  8
0
 10
-0.281067
 20
331.473
 11
-0.463516
 21
331.427
  0
LINE
  8
0
 10
-0.463516
 20
331.427
 11
-0.638657
 21
331.357
  0
LINE
  8
0
 10
-0.638657
 20
331.357
 11
-0.803726
 21
331.266
  0
LINE
  8
0
 10
-0.803726
 20
331.266
 11
-0.956131
 21
331.156
  0
LINE
  8
0
 10
-0.956131
 20
331.156
 11
-1.09344
 21
331.027
  0
LINE
  8
0
 10
-1.09344
 20
331.027
 11
-1.21352
 21
330.882
  0
LINE
  8
0
 10
-1.21352
 20
330.882
 11
-1.31445
 21
330.723
  0
LINE
  8
0
 10
-1.31445
 20
330.723
 11
-1.39465
 21
330.552
  0
LINE
  8
0
 10
-1.39465
 20
330.552
 11
-1.45287
 21
330.373
  0
LINE
  8
0
 10
-1.45287
 20
330.373
 11
-1.48816
 21
330.188
  0
LINE
  8
0
 10
-1.48816
 20
330.188
 11
-1.5
 21
330
  0
LINE
  8
0
 10
-1.5
 20
330
 11
-1.48816
 21
329.812
  0
LINE
  8
0
 10
-1.48816
 20
329.812
 11
-1.45287
 21
329.627
  0
LINE
  8
0
 10
-1.45287
 20
329.627
 11
-1.39465
 21
329.448
  0
LINE
  8
0
 10
-1.39465
 20
329.448
 11
-1.31445
 21
329.277
  0
LINE
  8
0
 10
-1.31445
 20
329.277
 11
-1.21352
 21
329.118
  0
LINE
  8
0
 10
-1.21352
 20
329.118
 11
-1.09344
 21
328.973
  0
LINE
  8
0
 10
-1.09344
 20
328.973
 11
-0.956131
 21
328.844
  0
LINE
  8
0
 10
-0.956131
 20
328.844
 11
-0.803726
 21
328.734
  0
LINE
  8
0
 10
-0.803726
 20
328.734
 11
-0.638657
 21
328.643
  0
LINE
  8
0
 10
-0.638657
 20
328.643
 11
-0.463516
 21
328.573
  0
LINE
  8
0
 10
-0.463516
 20
328.573
 11
-0.281067
 21
328.527
  0
LINE
  8
0
 10
-0.281067
 20
328.527
 11
-0.0941772
 21
328.503
  0
LINE
  8
0
 10
-0.0941772
 20
328.503
 11
0.0941772
 21
328.503
  0
LINE
  8
0
 10
0.0941772
 20
328.503
 11
0.281067
 21
328.527
  0
LINE
  8
0
 10
0.281067
 20
218.527
 11
0.463516
 21
218.573
  0
LINE
  8
0
 10
0.463516
 20
218.573
 11
0.638657
 21
218.643
  0
LINE
  8
0
 10
0.638657
 20
218.643
 11
0.803726
 21
218.734
  0
LINE
  8
0
 10
0.803726
 20
218.734
 11
0.956131
 21
218.844
  0
LINE
  8
0
 10
0.956131
 20
218.844
 11
1.09344
 21
218.973
  0
LINE
  8
0
 10
1.09344
 20
218.973
 11
1.21352
 21
219.118
  0
LINE
  8
0
 10
1.21352
 20
219.118
 11
1.31445
 21
219.277
  0
LINE
  8
0
 10
1.31445
 20
219.277
 11
1.39465
 21
219.448
  0
LINE
  8
0
 10
1.39465
 20
219.448
 11
1.45287
 21
219.627
  0
LINE
  8
0
 10
1.45287
 20
219.627
 11
1.48816
 21
219.812
  0
LINE
  8
0
 10
1.48816
 20
219.812
 11
1.5
 21
220
  0
LINE
  8
0
 10
1.5
 20
220
 11
1.48816
 21
220.188
  0
LINE
  8
0
 10
1.48816
 20
220.188
 11
1.45287
 21
220.373
  0
LINE
  8
0
 10
1.45287
 20
220.373
 11
1.39465
 21
220.552
  0
LINE
  8
0
 10
1.39465
 20
220.552
 11
1.31445
 21
220.723
  0
LINE
  8
0
 10
1.31445
 20
220.723
 11
1.21352
 21
220.882
  0
LINE
  8
0
 10
1.21352
 20
220.882
 11
1.09344
 21
221.027
  0
LINE
  8
0
 10
1.09344
 20
221.027
 11
0.956131
 21
221.156
  0
LINE
  8
0
 10
0.956131
 20
221.156
 11
0.803726
 21
221.266
  0
LINE
  8
0
 10
0.803726
 20
221.266
 11
0.638657
 21
221.357
  0
LINE
  8
0
 10
0.638657
 20
221.357
 11
0.463516
 21
221.427
  0
LINE
  8
0
 10
0.463516
 20
221.427
 11
0.281067
 21
221.473
  0
LINE
  8
0
 10
0.281067
 20
221.473
 11
0.0941772
 21
221.497
  0
LINE
  8
0
 10
0.0941772
 20
221.497
 11
-0.0941772
 21
221.497
  0
LINE
  8
0
 10
-0.0941772
 20
221.497
 11
-0.281067
 21
221.473
  0
LINE
  8
0
 10
-0.281067
 20
221.473
 11
-0.463516
 21
221.427
  0
LINE
  8
0
 10
-0.463516
 20
221.427
 11
-0.638657
 21
221.357
  0
LINE
  8
0
 10
-0.638657
 20
221.357
 11
-0.803726
 21
221.266
  0
LINE
  8
0
 10
-0.803726
 20
221.266
 11
-0.956131
 21
221.156
  0
LINE
  8
0
 10
-0.956131
 20
221.156
 11
-1.09344
 21
221.027
  0
LINE
  8
0
 10
-1.09344
 20
221.027
 11
-1.21352
 21
220.882
  0
LINE
  8
0
 10
-1.21352
 20
220.882
 11
-1.31445
 21
220.723
  0
LINE
  8
0
 10
-1.31445
 20
220.723
 11
-1.39465
 21
220.552
  0
LINE
  8
0
 10
-1.39465
 20
220.552
 11
-1.45287
 21
220.373
  0
LINE
  8
0
 10
-1.45287
 20
220.373
 11
-1.48816
 21
220.188
  0
LINE
  8
0
 10
-1.48816
 20
220.188
 11
-1.5
 21
220
  0
LINE
  8
0
 10
-1.5
 20
220
 11
-1.48816
 21
219.812
  0
LINE
  8
0
 10
-1.48816
 20
219.812
 11
-1.45287
 21
219.627
  0
LINE
  8
0
 10
-1.45287
 20
219.627
 11
-1.39465
 21
219.448
  0
LINE
  8
0
 10
-1.39465
 20
219.448
 11
-1.31445
 21
219.277
  0
LINE
  8
0
 10
-1.31445
 20
219.277
 11
-1.21352
 21
219.118
  0
LINE
  8
0
 10
-1.21352
 20
219.118
 11
-1.09344
 21
218.973
  0
LINE
  8
0
 10
-1.09344
 20
218.973
 11
-0.956131
 21
218.844
  0
LINE
  8
0
 10
-0.956131
 20
218.844
 11
-0.803726
 21
218.734
  0
LINE
  8
0
 10
-0.803726
 20
218.734
 11
-0.638657
 21
218.643
  0
LINE
  8
0
 10
-0.638657
 20
218.643
 11
-0.463516
 21
218.573
  0
LINE
  8
0
 10
-0.463516
 20
218.573
 11
-0.281067
 21
218.527
  0
LINE
  8
0
 10
-0.281067
 20
218.527
 11
-0.0941772
 21
218.503
  0
LINE
  8
0
 10
-0.0941772
 20
218.503
 11
0.0941772
 21
218.503
  0
LINE
  8
0
 10
0.0941772
 20
218.503
 11
0.281067
 21
218.527
  0
LINE
  8
0
 10
0.281067
 20
108.527
 11
0.463516
 21
108.573
  0
LINE
  8
0
 10
0.463516
 20
108.573
 11
0.638657
 21
108.643
  0
LINE
  8
0
 10
0.638657
 20
108.643
 11
0.803726
 21
108.734
  0
LINE
  8
0
 10
0.803726
 20
108.734
 11
0.956131
 21
108.844
  0
LINE
  8
0
 10
0.956131
 20
108.844
 11
1.09344
 21
108.973
  0
LINE
  8
0
 10
1.09344
 20
108.973
 11
1.21352
 21
109.118
  0
LINE
  8
0
 10
1.21352
 20
109.118
 11
1.31445
 21
109.277
  0
LINE
  8
0
 10
1.31445
 20
109.277
 11
1.39465
 21
109.448
  0
LINE
  8
0
 10
1.39465
 20
109.448
 11
1.45287
 21
109.627
  0
LINE
  8
0
 10
1.45287
 20
109.627
 11
1.48816
 21
109.812
  0
LINE
  8
0
 10
1.48816
 20
109.812
 11
1.5
 21
110
  0
LINE
  8
0
 10
1.5
 20
110
 11
1.48816
 21
110.188
  0
LINE
  8
0
 10
1.48816
 20
110.188
 11
1.45287
 21
110.373
  0
LINE
  8
0
 10
1.45287
 20
110.373
 11
1.39465
 21
110.552
  0
LINE
  8
0
 10
1.39465
 20
110.552
 11
1.31445
 21
110.723
  0
LINE
  8
0
 10
1.31445
 20
110.723
 11
1.21352
 21
110.882
  0
LINE
  8
0
 10
1.21352
 20
110.882
 11
1.09344
 21
111.027
  0
LINE
  8
0
 10
1.09344
 20
111.027
 11
0.956131
 21
111.156
  0
LINE
  8
0
 10
0.956131
 20
111.156
 11
0.803726
 21
111.266
  0
LINE
  8
0
 10
0.803726
 20
111.266
 11
0.638657
 21
111.357
  0
LINE
  8
0
 10
0.638657
 20
111.357
 11
0.463516
 21
111.427
  0
LINE
  8
0
 10
0.463516
 20
111.427
 11
0.281067
 21
111.473
  0
LINE
  8
0
 10
0.281067
 20
111.473
 11
0.0941772
 21
111.497
  0
LINE
  8
0
 10
0.0941772
 20
111.497
 11
-0.0941772
 21
111.497
  0
LINE
  8
0
 10
-0.0941772
 20
111.497
 11
-0.281067
 21
111.473
  0
LINE
  8
0
 10
-0.281067
 20
111.473
 11
-0.463516
 21
111.427
  0
LINE
  8
0
 10
-0.463516
 20
111.427
 11
-0.638657
 21
111.357
  0
LINE
  8
0
 10
-0.638657
 20
111.357
 11
-0.803726
 21
111.266
  0
LINE
  8
0
 10
-0.803726
 20
111.266
 11
-0.956131
 21
111.156
  0
LINE
  8
0
 10
-0.956131
 20
111.156
 11
-1.09344
 21
111.027
  0
LINE
  8
0
 10
-1.09344
 20
111.027
 11
-1.21352
 21
110.882
  0
LINE
  8
0
 10
-1.21352
 20
110.882
 11
-1.31445
 21
110.723
  0
LINE
  8
0
 10
-1.31445
 20
110.723
 11
-1.39465
 21
110.552
  0
LINE
  8
0
 10
-1.39465
 20
110.552
 11
-1.45287
 21
110.373
  0
LINE
  8
0
 10
-1.45287
 20
110.373
 11
-1.48816
 21
110.188
  0
LINE
  8
0
 10
-1.48816
 20
110.188
 11
-1.5
 21
110
  0
LINE
  8
0
 10
-1.5
 20
110
 11
-1.48816
 21
109.812
  0
LINE
  8
0
 10
-1.48816
 20
109.812
 11
-1.45287
 21
109.627
  0
LINE
  8
0
 10
-1.45287
 20
109.627
 11
-1.39465
 21
109.448
  0
LINE
  8
0
 10
-1.39465
 20
109.448
 11
-1.31445
 21
109.277
  0
LINE
  8
0
 10
-1.31445
 20
109.277
 11
-1.21352
 21
109.118
  0
LINE
  8
0
 10
-1.21352
 20
109.118
 11
-1.09344
 21
108.973
  0
LINE
  8
0
 10
-1.09344
 20
108.973
 11
-0.956131
 21
108.844
  0
LINE
  8
0
 10
-0.956131
 20
108.844
 11
-0.803726
 21
108.734
  0
LINE
  8
0
 10
-0.803726
 20
108.734
 11
-0.638657
 21
108.643
  0
LINE
  8
0
 10
-0.638657
 20
108.643
 11
-0.463516
 21
108.573
  0
LINE
  8
0
 10
-0.463516
 20
108.573
 11
-0.281067
 21
108.527
  0
LINE
  8
0
 10
-0.281067
 20
108.527
 11
-0.0941772
 21
108.503
  0
LINE
  8
0
 10
-0.0941772
 20
108.503
 11
0.0941772
 21
108.503
  0
LINE
  8
0
 10
0.0941772
 20
108.503
 11
0.281067
 21
108.527
  0
LINE
  8
0
 10
0.281067
 20
-1.47342
 11
0.463516
 21
-1.42657
  0
LINE
  8
0
 10
0.463516
 20
-1.42657
 11
0.638657
 21
-1.35724
  0
LINE
  8
0
 10
0.638657
 20
-1.35724
 11
0.803726
 21
-1.26648
  0
LINE
  8
0
 10
0.803726
 20
-1.26648
 11
0.956131
 21
-1.15576
  0
LINE
  8
0
 10
0.956131
 20
-1.15576
 11
1.09344
 21
-1.02681
  0
LINE
  8
0
 10
1.09344
 20
-1.02681
 11
1.21352
 21
-0.881668
  0
LINE
  8
0
 10
1.21352
 20
-0.881668
 11
1.31445
 21
-0.722626
  0
LINE
  8
0
 10
1.31445
 20
-0.722626
 11
1.39465
 21
-0.552185
  0
LINE
  8
0
 10
1.39465
 20
-0.552185
 11
1.45287
 21
-0.373032
  0
LINE
  8
0
 10
1.45287
 20
-0.373032
 11
1.48816
 21
-0.187988
  0
LINE
  8
0
 10
1.48816
 20
-0.187988
 11
1.5
 21
0
  0
LINE
  8
0
 10
1.5
 20
0
 11
1.48816
 21
0.187988
  0
LINE
  8
0
 10
1.48816
 20
0.187988
 11
1.45287
 21
0.373032
  0
LINE
  8
0
 10
1.45287
 20
0.373032
 11
1.39465
 21
0.552185
  0
LINE
  8
0
 10
1.39465
 20
0.552185
 11
1.31445
 21
0.722626
  0
LINE
  8
0
 10
1.31445
 20
0.722626
 11
1.21352
 21
0.881668
  0
LINE
  8
0
 10
1.21352
 20
0.881668
 11
1.09344
 21
1.02681
  0
LINE
  8
0
 10
1.09344
 20
1.02681
 11
0.956131
 21
1.15576
  0
LINE
  8
0
 10
0.956131
 20
1.15576
 11
0.803726
 21
1.26648
  0
LINE
  8
0
 10
0.803726
 20
1.26648
 11
0.638657
 21
1.35724
  0
LINE
  8
0
 10
0.638657
 20
1.35724
 11
0.463516
 21
1.42657
  0
LINE
  8
0
 10
0.463516
 20
1.42657
 11
0.281067
 21
1.47342
  0
LINE
  8
0
 10
0.281067
 20
1.47342
 11
0.0941772
 21
1.49704
  0
LINE
  8
0
 10
0.0941772
 20
1.49704
 11
-0.0941772
 21
1.49704
  0
LINE
  8
0
 10
-0.0941772
 20
1.49704
 11
-0.281067
 21
1.47342
  0
LINE
  8
0
 10
-0.281067
 20
1.47342
 11
-0.463516
 21
1.42657
  0
LINE
  8
0
 10
-0.463516
 20
1.42657
 11
-0.638657
 21
1.35724
  0
LINE
  8
0
 10
-0.638657
 20
1.35724
 11
-0.803726
 21
1.26648
  0
LINE
  8
0
 10
-0.803726
 20
1.26648
 11
-0.956131
 21
1.15576
  0
LINE
  8
0
 10
-0.956131
 20
1.15576
 11
-1.09344
 21
1.02681
  0
LINE
  8
0
 10
-1.09344
 20
1.02681
 11
-1.21352
 21
0.881668
  0
LINE
  8
0
 10
-1.21352
 20
0.881668
 11
-1.31445
 21
0.722626
  0
LINE
  8
0
 10
-1.31445
 20
0.722626
 11
-1.39465
 21
0.552185
  0
LINE
  8
0
 10
-1.39465
 20
0.552185
 11
-1.45287
 21
0.373032
  0
LINE
  8
0
 10
-1.45287
 20
0.373032
 11
-1.48816
 21
0.187988
  0
LINE
  8
0
 10
-1.48816
 20
0.187988
 11
-1.5
 21
0
  0
LINE
  8
0
 10
-1.5
 20
0
 11
-1.48816
 21
-0.187988
  0
LINE
  8
0
 10
-1.48816
 20
-0.187988
 11
-1.45287
 21
-0.373032
  0
LINE
  8
0
 10
-1.45287
 20
-0.373032
 11
-1.39465
 21
-0.552185
  0
LINE
  8
0
 10
-1.39465
 20
-0.552185
 11
-1.31445
 21
-0.722626
  0
LINE
  8
0
 10
-1.31445
 20
-0.722626
 11
-1.21352
 21
-0.881668
  0
LINE
  8
0
 10
-1.21352
 20
-0.881668
 11
-1.09344
 21
-1.02681
  0
LINE
  8
0
 10
-1.09344
 20
-1.02681
 11
-0.956131
 21
-1.15576
  0
LINE
  8
0
 10
-0.956131
 20
-1.15576
 11
-0.803726
 21
-1.26648
  0
LINE
  8
0
 10
-0.803726
 20
-1.26648
 11
-0.638657
 21
-1.35724
  0
LINE
  8
0
 10
-0.638657
 20
-1.35724
 11
-0.463516
 21
-1.42657
  0
LINE
  8
0
 10
-0.463516
 20
-1.42657
 11
-0.281067
 21
-1.47342
  0
LINE
  8
0
 10
-0.281067
 20
-1.47342
 11
-0.0941772
 21
-1.49704
  0
LINE
  8
0
 10
-0.0941772
 20
-1.49704
 11
0.0941772
 21
-1.49704
  0
LINE
  8
0
 10
0.0941772
 20
-1.49704
 11
0.281067
 21
-1.47342
  0
ENDSEC
  0
SECTION
  2
OBJECTS
  0
DICTIONARY
  0
ENDSEC
  0
EOF
