<?xml version="1.0" standalone="no"?>
<!DOCTYPE svg PUBLIC "-//W3C//DTD SVG 1.1//EN" "http://www.w3.org/Graphics/SVG/1.1/DTD/svg11.dtd">
<svg width="60mm" height="16mm" viewBox="-30 -8 60 16" xmlns="http://www.w3.org/2000/svg" version="1.1">
<title>OpenSCAD Model</title>
<path d="
M 27.7184,7.2057 L 28.0225,7.12764 L 28.3144,7.01205 L 28.5896,6.86081 L 28.8436,6.67627 L 29.0724,6.46136
 L 29.2725,6.21945 L 29.4408,5.95438 L 29.5744,5.6703 L 29.6714,5.37172 L 29.7303,5.06332 L 29.75,4.75
 L 29.75,-4.75 L 29.7303,-5.06332 L 29.6714,-5.37172 L 29.5744,-5.6703 L 29.4408,-5.95438 L 29.2725,-6.21945
 L 29.0724,-6.46136 L 28.8436,-6.67627 L 28.5896,-6.86081 L 28.3144,-7.01205 L 28.0225,-7.12764 L 27.7184,-7.2057
 L 27.407,-7.24506 L -27.407,-7.24506 L -27.7184,-7.2057 L -28.0225,-7.12764 L -28.3144,-7.01205 L -28.5896,-6.86081
 L -28.8436,-6.67627 L -29.0724,-6.46136 L -29.2725,-6.21945 L -29.4408,-5.95438 L -29.5744,-5.6703 L -29.6714,-5.37172
 L -29.7303,-5.06332 L -29.75,-4.75 L -29.75,4.75 L -29.7303,5.06332 L -29.6714,5.37172 L -29.5744,5.6703
 L -29.4408,5.95438 L -29.2725,6.21945 L -29.0724,6.46136 L -28.8436,6.67627 L -28.5896,6.86081 L -28.3144,7.01205
 L -28.0225,7.12764 L -27.7184,7.2057 L -27.407,7.24506 L 27.407,7.24506 z
M -3.84418,-2.25294 L -4.03107,-2.27657 L -4.21352,-2.32341 L -4.38866,-2.39275 L -4.55373,-2.48351 L -4.70613,-2.59422
 L -4.84344,-2.72318 L -4.96352,-2.86832 L -5.06445,-3.02736 L -5.14465,-3.1978 L -5.20287,-3.37695 L -5.23816,-3.562
 L -5.25,-3.75 L -5.23816,-3.93799 L -5.20287,-4.12303 L -5.14465,-4.30219 L -5.06445,-4.47263 L -4.96352,-4.63167
 L -4.84344,-4.77681 L -4.70613,-4.90576 L -4.55373,-5.01648 L -4.38866,-5.10724 L -4.21352,-5.17657 L -4.03107,-5.22342
 L -3.84418,-5.24704 L -3.65581,-5.24704 L -3.46892,-5.22342 L -3.28647,-5.17657 L -3.11133,-5.10724 L -2.94626,-5.01648
 L -2.79385,-4.90576 L -2.65654,-4.77681 L -2.53647,-4.63167 L -2.43553,-4.47263 L -2.35533,-4.30219 L -2.29712,-4.12303
 L -2.26183,-3.93799 L -2.25,-3.75 L -2.26183,-3.562 L -2.29712,-3.37695 L -2.35533,-3.1978 L -2.43553,-3.02736
 L -2.53647,-2.86832 L -2.65654,-2.72318 L -2.79385,-2.59422 L -2.94626,-2.48351 L -3.11133,-2.39275 L -3.28647,-2.32341
 L -3.46892,-2.27657 L -3.65581,-2.25294 z
M -18.8442,-2.25294 L -19.0311,-2.27657 L -19.2135,-2.32341 L -19.3887,-2.39275 L -19.5537,-2.48351 L -19.7061,-2.59422
 L -19.8434,-2.72318 L -19.9635,-2.86832 L -20.0645,-3.02736 L -20.1447,-3.1978 L -20.2029,-3.37695 L -20.2382,-3.562
 L -20.25,-3.75 L -20.2382,-3.93799 L -20.2029,-4.12303 L -20.1447,-4.30219 L -20.0645,-4.47263 L -19.9635,-4.63167
 L -19.8434,-4.77681 L -19.7061,-4.90576 L -19.5537,-5.01648 L -19.3887,-5.10724 L -19.2135,-5.17657 L -19.0311,-5.22342
 L -18.8442,-5.24704 L -18.6558,-5.24704 L -18.4689,-5.22342 L -18.2865,-5.17657 L -18.1113,-5.10724 L -17.9463,-5.01648
 L -17.7939,-4.90576 L -17.6565,-4.77681 L -17.5365,-4.63167 L -17.4355,-4.47263 L -17.3553,-4.30219 L -17.2971,-4.12303
 L -17.2618,-3.93799 L -17.25,-3.75 L -17.2618,-3.562 L -17.2971,-3.37695 L -17.3553,-3.1978 L -17.4355,-3.02736
 L -17.5365,-2.86832 L -17.6565,-2.72318 L -17.7939,-2.59422 L -17.9463,-2.48351 L -18.1113,-2.39275 L -18.2865,-2.32341
 L -18.4689,-2.27657 L -18.6558,-2.25294 z
M 11.1558,-2.25294 L 10.9689,-2.27657 L 10.7865,-2.32341 L 10.6113,-2.39275 L 10.4463,-2.48351 L 10.2939,-2.59422
 L 10.1565,-2.72318 L 10.0365,-2.86832 L 9.93553,-3.02736 L 9.85533,-3.1978 L 9.79712,-3.37695 L 9.76183,-3.562
 L 9.75,-3.75 L 9.76183,-3.93799 L 9.79712,-4.12303 L 9.85533,-4.30219 L 9.93553,-4.47263 L 10.0365,-4.63167
 L 10.1565,-4.77681 L 10.2939,-4.90576 L 10.4463,-5.01648 L 10.6113,-5.10724 L 10.7865,-5.17657 L 10.9689,-5.22342
 L 11.1558,-5.24704 L 11.3442,-5.24704 L 11.5311,-5.22342 L 11.7135,-5.17657 L 11.8887,-5.10724 L 12.0537,-5.01648
 L 12.2061,-4.90576 L 12.3434,-4.77681 L 12.4635,-4.63167 L 12.5645,-4.47263 L 12.6447,-4.30219 L 12.7029,-4.12303
 L 12.7382,-3.93799 L 12.75,-3.75 L 12.7382,-3.562 L 12.7029,-3.37695 L 12.6447,-3.1978 L 12.5645,-3.02736
 L 12.4635,-2.86832 L 12.3434,-2.72318 L 12.2061,-2.59422 L 12.0537,-2.48351 L 11.8887,-2.39275 L 11.7135,-2.32341
 L 11.5311,-2.27657 L 11.3442,-2.25294 z
M 18.6558,-2.25294 L 18.4689,-2.27657 L 18.2865,-2.32341 L 18.1113,-2.39275 L 17.9463,-2.48351 L 17.7939,-2.59422
 L 17.6565,-2.72318 L 17.5365,-2.86832 L 17.4355,-3.02736 L 17.3553,-3.1978 L 17.2971,-3.37695 L 17.2618,-3.562
 L 17.25,-3.75 L 17.2618,-3.93799 L 17.2971,-4.12303 L 17.3553,-4.30219 L 17.4355,-4.47263 L 17.5365,-4.63167
 L 17.6565,-4.77681 L 17.7939,-4.90576 L 17.9463,-5.01648 L 18.1113,-5.10724 L 18.2865,-5.17657 L 18.4689,-5.22342
 L 18.6558,-5.24704 L 18.8442,-5.24704 L 19.0311,-5.22342 L 19.2135,-5.17657 L 19.3887,-5.10724 L 19.5537,-5.01648
 L 19.7061,-4.90576 L 19.8434,-4.77681 L 19.9635,-4.63167 L 20.0645,-4.47263 L 20.1447,-4.30219 L 20.2029,-4.12303
 L 20.2382,-3.93799 L 20.25,-3.75 L 20.2382,-3.562 L 20.2029,-3.37695 L 20.1447,-3.1978 L 20.0645,-3.02736
 L 19.9635,-2.86832 L 19.8434,-2.72318 L 19.7061,-2.59422 L 19.5537,-2.48351 L 19.3887,-2.39275 L 19.2135,-2.32341
 L 19.0311,-2.27657 L 18.8442,-2.25294 z
M -26.3442,-2.25294 L -26.5311,-2.27657 L -26.7135,-2.32341 L -26.8887,-2.39275 L -27.0537,-2.48351 L -27.2061,-2.59422
 L -27.3434,-2.72318 L -27.4635,-2.86832 L -27.5645,-3.02736 L -27.6447,-3.1978 L -27.7029,-3.37695 L -27.7382,-3.562
 L -27.75,-3.75 L -27.7382,-3.93799 L -27.7029,-4.12303 L -27.6447,-4.30219 L -27.5645,-4.47263 L -27.4635,-4.63167
 L -27.3434,-4.77681 L -27.2061,-4.90576 L -27.0537,-5.01648 L -26.8887,-5.10724 L -26.7135,-5.17657 L -26.5311,-5.22342
 L -26.3442,-5.24704 L -26.1558,-5.24704 L -25.9689,-5.22342 L -25.7865,-5.17657 L -25.6113,-5.10724 L -25.4463,-5.01648
 L -25.2939,-4.90576 L -25.1565,-4.77681 L -25.0365,-4.63167 L -24.9355,-4.47263 L -24.8553,-4.30219 L -24.7971,-4.12303
 L -24.7618,-3.93799 L -24.75,-3.75 L -24.7618,-3.562 L -24.7971,-3.37695 L -24.8553,-3.1978 L -24.9355,-3.02736
 L -25.0365,-2.86832 L -25.1565,-2.72318 L -25.2939,-2.59422 L -25.4463,-2.48351 L -25.6113,-2.39275 L -25.7865,-2.32341
 L -25.9689,-2.27657 L -26.1558,-2.25294 z
M 26.1558,-2.25294 L 25.9689,-2.27657 L 25.7865,-2.32341 L 25.6113,-2.39275 L 25.4463,-2.48351 L 25.2939,-2.59422
 L 25.1565,-2.72318 L 25.0365,-2.86832 L 24.9355,-3.02736 L 24.8553,-3.1978 L 24.7971,-3.37695 L 24.7618,-3.562
 L 24.75,-3.75 L 24.7618,-3.93799 L 24.7971,-4.12303 L 24.8553,-4.30219 L 24.9355,-4.47263 L 25.0365,-4.63167
 L 25.1565,-4.77681 L 25.2939,-4.90576 L 25.4463,-5.01648 L 25.6113,-5.10724 L 25.7865,-5.17657 L 25.9689,-5.22342
 L 26.1558,-5.24704 L 26.3442,-5.24704 L 26.5311,-5.22342 L 26.7135,-5.17657 L 26.8887,-5.10724 L 27.0537,-5.01648
 L 27.2061,-4.90576 L 27.3434,-4.77681 L 27.4635,-4.63167 L 27.5645,-4.47263 L 27.6447,-4.30219 L 27.7029,-4.12303
 L 27.7382,-3.93799 L 27.75,-3.75 L 27.7382,-3.562 L 27.7029,-3.37695 L 27.6447,-3.1978 L 27.5645,-3.02736
 L 27.4635,-2.86832 L 27.3434,-2.72318 L 27.2061,-2.59422 L 27.0537,-2.48351 L 26.8887,-2.39275 L 26.7135,-2.32341
 L 26.5311,-2.27657 L 26.3442,-2.25294 z
M -11.3442,-2.25294 L -11.5311,-2.27657 L -11.7135,-2.32341 L -11.8887,-2.39275 L -12.0537,-2.48351 L -12.2061,-2.59422
 L -12.3434,-2.72318 L -12.4635,-2.86832 L -12.5645,-3.02736 L -12.6447,-3.1978 L -12.7029,-3.37695 L -12.7382,-3.562
 L -12.75,-3.75 L -12.7382,-3.93799 L -12.7029,-4.12303 L -12.6447,-4.30219 L -12.5645,-4.47263 L -12.4635,-4.63167
 L -12.3434,-4.77681 L -12.2061,-4.90576 L -12.0537,-5.01648 L -11.8887,-5.10724 L -11.7135,-5.17657 L -11.5311,-5.22342
 L -11.3442,-5.24704 L -11.1558,-5.24704 L -10.9689,-5.22342 L -10.7865,-5.17657 L -10.6113,-5.10724 L -10.4463,-5.01648
 L -10.2939,-4.90576 L -10.1565,-4.77681 L -10.0365,-4.63167 L -9.93553,-4.47263 L -9.85533,-4.30219 L -9.79712,-4.12303
 L -9.76183,-3.93799 L -9.75,-3.75 L -9.76183,-3.562 L -9.79712,-3.37695 L -9.85533,-3.1978 L -9.93553,-3.02736
 L -10.0365,-2.86832 L -10.1565,-2.72318 L -10.2939,-2.59422 L -10.4463,-2.48351 L -10.6113,-2.39275 L -10.7865,-2.32341
 L -10.9689,-2.27657 L -11.1558,-2.25294 z
M 3.65581,-2.25294 L 3.46892,-2.27657 L 3.28647,-2.32341 L 3.11133,-2.39275 L 2.94626,-2.48351 L 2.79385,-2.59422
 L 2.65654,-2.72318 L 2.53647,-2.86832 L 2.43553,-3.02736 L 2.35533,-3.1978 L 2.29712,-3.37695 L 2.26183,-3.562
 L 2.25,-3.75 L 2.26183,-3.93799 L 2.29712,-4.12303 L 2.35533,-4.30219 L 2.43553,-4.47263 L 2.53647,-4.63167
 L 2.65654,-4.77681 L 2.79385,-4.90576 L 2.94626,-5.01648 L 3.11133,-5.10724 L 3.28647,-5.17657 L 3.46892,-5.22342
 L 3.65581,-5.24704 L 3.84418,-5.24704 L 4.03107,-5.22342 L 4.21352,-5.17657 L 4.38866,-5.10724 L 4.55373,-5.01648
 L 4.70613,-4.90576 L 4.84344,-4.77681 L 4.96352,-4.63167 L 5.06445,-4.47263 L 5.14465,-4.30219 L 5.20287,-4.12303
 L 5.23816,-3.93799 L 5.25,-3.75 L 5.23816,-3.562 L 5.20287,-3.37695 L 5.14465,-3.1978 L 5.06445,-3.02736
 L 4.96352,-2.86832 L 4.84344,-2.72318 L 4.70613,-2.59422 L 4.55373,-2.48351 L 4.38866,-2.39275 L 4.21352,-2.32341
 L 4.03107,-2.27657 L 3.84418,-2.25294 z
M 18.6558,5.24704 L 18.4689,5.22342 L 18.2865,5.17657 L 18.1113,5.10724 L 17.9463,5.01648 L 17.7939,4.90576
 L 17.6565,4.77681 L 17.5365,4.63167 L 17.4355,4.47263 L 17.3553,4.30219 L 17.2971,4.12303 L 17.2618,3.93799
 L 17.25,3.75 L 17.2618,3.562 L 17.2971,3.37695 L 17.3553,3.1978 L 17.4355,3.02736 L 17.5365,2.86832
 L 17.6565,2.72318 L 17.7939,2.59422 L 17.9463,2.48351 L 18.1113,2.39275 L 18.2865,2.32341 L 18.4689,2.27657
 L 18.6558,2.25294 L 18.8442,2.25294 L 19.0311,2.27657 L 19.2135,2.32341 L 19.3887,2.39275 L 19.5537,2.48351
 L 19.7061,2.59422 L 19.8434,2.72318 L 19.9635,2.86832 L 20.0645,3.02736 L 20.1447,3.1978 L 20.2029,3.37695
 L 20.2382,3.562 L 20.25,3.75 L 20.2382,3.93799 L 20.2029,4.12303 L 20.1447,4.30219 L 20.0645,4.47263
 L 19.9635,4.63167 L 19.8434,4.77681 L 19.7061,4.90576 L 19.5537,5.01648 L 19.3887,5.10724 L 19.2135,5.17657
 L 19.0311,5.22342 L 18.8442,5.24704 z
M -18.8442,5.24704 L -19.0311,5.22342 L -19.2135,5.17657 L -19.3887,5.10724 L -19.5537,5.01648 L -19.7061,4.90576
 L -19.8434,4.77681 L -19.9635,4.63167 L -20.0645,4.47263 L -20.1447,4.30219 L -20.2029,4.12303 L -20.2382,3.93799
 L -20.25,3.75 L -20.2382,3.562 L -20.2029,3.37695 L -20.1447,3.1978 L -20.0645,3.02736 L -19.9635,2.86832
 L -19.8434,2.72318 L -19.7061,2.59422 L -19.5537,2.48351 L -19.3887,2.39275 L -19.2135,2.32341 L -19.0311,2.27657
 L -18.8442,2.25294 L -18.6558,2.25294 L -18.4689,2.27657 L -18.2865,2.32341 L -18.1113,2.39275 L -17.9463,2.48351
 L -17.7939,2.59422 L -17.6565,2.72318 L -17.5365,2.86832 L -17.4355,3.02736 L -17.3553,3.1978 L -17.2971,3.37695
 L -17.2618,3.562 L -17.25,3.75 L -17.2618,3.93799 L -17.2971,4.12303 L -17.3553,4.30219 L -17.4355,4.47263
 L -17.5365,4.63167 L -17.6565,4.77681 L -17.7939,4.90576 L -17.9463,5.01648 L -18.1113,5.10724 L -18.2865,5.17657
 L -18.4689,5.22342 L -18.6558,5.24704 z
M -26.3442,5.24704 L -26.5311,5.22342 L -26.7135,5.17657 L -26.8887,5.10724 L -27.0537,5.01648 L -27.2061,4.90576
 L -27.3434,4.77681 L -27.4635,4.63167 L -27.5645,4.47263 L -27.6447,4.30219 L -27.7029,4.12303 L -27.7382,3.93799
 L -27.75,3.75 L -27.7382,3.562 L -27.7029,3.37695 L -27.6447,3.1978 L -27.5645,3.02736 L -27.4635,2.86832
 L -27.3434,2.72318 L -27.2061,2.59422 L -27.0537,2.48351 L -26.8887,2.39275 L -26.7135,2.32341 L -26.5311,2.27657
 L -26.3442,2.25294 L -26.1558,2.25294 L -25.9689,2.27657 L -25.7865,2.32341 L -25.6113,2.39275 L -25.4463,2.48351
 L -25.2939,2.59422 L -25.1565,2.72318 L -25.0365,2.86832 L -24.9355,3.02736 L -24.8553,3.1978 L -24.7971,3.37695
 L -24.7618,3.562 L -24.75,3.75 L -24.7618,3.93799 L -24.7971,4.12303 L -24.8553,4.30219 L -24.9355,4.47263
 L -25.0365,4.63167 L -25.1565,4.77681 L -25.2939,4.90576 L -25.4463,5.01648 L -25.6113,5.10724 L -25.7865,5.17657
 L -25.9689,5.22342 L -26.1558,5.24704 z
M 11.1558,5.24704 L 10.9689,5.22342 L 10.7865,5.17657 L 10.6113,5.10724 L 10.4463,5.01648 L 10.2939,4.90576
 L 10.1565,4.77681 L 10.0365,4.63167 L 9.93553,4.47263 L 9.85533,4.30219 L 9.79712,4.12303 L 9.76183,3.93799
 L 9.75,3.75 L 9.76183,3.562 L 9.79712,3.37695 L 9.85533,3.1978 L 9.93553,3.02736 L 10.0365,2.86832
 L 10.1565,2.72318 L 10.2939,2.59422 L 10.4463,2.48351 L 10.6113,2.39275 L 10.7865,2.32341 L 10.9689,2.27657
 L 11.1558,2.25294 L 11.3442,2.25294 L 11.5311,2.27657 L 11.7135,2.32341 L 11.8887,2.39275 L 12.0537,2.48351
 L 12.2061,2.59422 L 12.3434,2.72318 L 12.4635,2.86832 L 12.5645,3.02736 L 12.6447,3.1978 L 12.7029,3.37695
 L 12.7382,3.562 L 12.75,3.75 L 12.7382,3.93799 L 12.7029,4.12303 L 12.6447,4.30219 L 12.5645,4.47263
 L 12.4635,4.63167 L 12.3434,4.77681 L 12.2061,4.90576 L 12.0537,5.01648 L 11.8887,5.10724 L 11.7135,5.17657
 L 11.5311,5.22342 L 11.3442,5.24704 z
M 3.65581,5.24704 L 3.46892,5.22342 L 3.28647,5.17657 L 3.11133,5.10724 L 2.94626,5.01648 L 2.79385,4.90576
 L 2.65654,4.77681 L 2.53647,4.63167 L 2.43553,4.47263 L 2.35533,4.30219 L 2.29712,4.12303 L 2.26183,3.93799
 L 2.25,3.75 L 2.26183,3.562 L 2.29712,3.37695 L 2.35533,3.1978 L 2.43553,3.02736 L 2.53647,2.86832
 L 2.65654,2.72318 L 2.79385,2.59422 L 2.94626,2.48351 L 3.11133,2.39275 L 3.28647,2.32341 L 3.46892,2.27657
 L 3.65581,2.25294 L 3.84418,2.25294 L 4.03107,2.27657 L 4.21352,2.32341 L 4.38866,2.39275 L 4.55373,2.48351
 L 4.70613,2.59422 L 4.84344,2.72318 L 4.96352,2.86832 L 5.06445,3.02736 L 5.14465,3.1978 L 5.20287,3.37695
 L 5.23816,3.562 L 5.25,3.75 L 5.23816,3.93799 L 5.20287,4.12303 L 5.14465,4.30219 L 5.06445,4.47263
 L 4.96352,4.63167 L 4.84344,4.77681 L 4.70613,4.90576 L 4.55373,5.01648 L 4.38866,5.10724 L 4.21352,5.17657
 L 4.03107,5.22342 L 3.84418,5.24704 z
M 26.1558,5.24704 L 25.9689,5.22342 L 25.7865,5.17657 L 25.6113,5.10724 L 25.4463,5.01648 L 25.2939,4.90576
 L 25.1565,4.77681 L 25.0365,4.63167 L 24.9355,4.47263 L 24.8553,4.30219 L 24.7971,4.12303 L 24.7618,3.93799
 L 24.75,3.75 L 24.7618,3.562 L 24.7971,3.37695 L 24.8553,3.1978 L 24.9355,3.02736 L 25.0365,2.86832
 L 25.1565,2.72318 L 25.2939,2.59422 L 25.4463,2.48351 L 25.6113,2.39275 L 25.7865,2.32341 L 25.9689,2.27657
 L 26.1558,2.25294 L 26.3442,2.25294 L 26.5311,2.27657 L 26.7135,2.32341 L 26.8887,2.39275 L 27.0537,2.48351
 L 27.2061,2.59422 L 27.3434,2.72318 L 27.4635,2.86832 L 27.5645,3.02736 L 27.6447,3.1978 L 27.7029,3.37695
 L 27.7382,3.562 L 27.75,3.75 L 27.7382,3.93799 L 27.7029,4.12303 L 27.6447,4.30219 L 27.5645,4.47263
 L 27.4635,4.63167 L 27.3434,4.77681 L 27.2061,4.90576 L 27.0537,5.01648 L 26.8887,5.10724 L 26.7135,5.17657
 L 26.5311,5.22342 L 26.3442,5.24704 z
M -11.3442,5.24704 L -11.5311,5.22342 L -11.7135,5.17657 L -11.8887,5.10724 L -12.0537,5.01648 L -12.2061,4.90576
 L -12.3434,4.77681 L -12.4635,4.63167 L -12.5645,4.47263 L -12.6447,4.30219 L -12.7029,4.12303 L -12.7382,3.93799
 L -12.75,3.75 L -12.7382,3.562 L -12.7029,3.37695 L -12.6447,3.1978 L -12.5645,3.02736 L -12.4635,2.86832
 L -12.3434,2.72318 L -12.2061,2.59422 L -12.0537,2.48351 L -11.8887,2.39275 L -11.7135,2.32341 L -11.5311,2.27657
 L -11.3442,2.25294 L -11.1558,2.25294 L -10.9689,2.27657 L -10.7865,2.32341 L -10.6113,2.39275 L -10.4463,2.48351
 L -10.2939,2.59422 L -10.1565,2.72318 L -10.0365,2.86832 L -9.93553,3.02736 L -9.85533,3.1978 L -9.79712,3.37695
 L -9.76183,3.562 L -9.75,3.75 L -9.76183,3.93799 L -9.79712,4.12303 L -9.85533,4.30219 L -9.93553,4.47263
 L -10.0365,4.63167 L -10.1565,4.77681 L -10.2939,4.90576 L -10.4463,5.01648 L -10.6113,5.10724 L -10.7865,5.17657
 L -10.9689,5.22342 L -11.1558,5.24704 z
M -3.84418,5.24704 L -4.03107,5.22342 L -4.21352,5.17657 L -4.38866,5.10724 L -4.55373,5.01648 L -4.70613,4.90576
 L -4.84344,4.77681 L -4.96352,4.63167 L -5.06445,4.47263 L -5.14465,4.30219 L -5.20287,4.12303 L -5.23816,3.93799
 L -5.25,3.75 L -5.23816,3.562 L -5.20287,3.37695 L -5.14465,3.1978 L -5.06445,3.02736 L -4.96352,2.86832
 L -4.84344,2.72318 L -4.70613,2.59422 L -4.55373,2.48351 L -4.38866,2.39275 L -4.21352,2.32341 L -4.03107,2.27657
 L -3.84418,2.25294 L -3.65581,2.25294 L -3.46892,2.27657 L -3.28647,2.32341 L -3.11133,2.39275 L -2.94626,2.48351
 L -2.79385,2.59422 L -2.65654,2.72318 L -2.53647,2.86832 L -2.43553,3.02736 L -2.35533,3.1978 L -2.29712,3.37695
 L -2.26183,3.562 L -2.25,3.75 L -2.26183,3.93799 L -2.29712,4.12303 L -2.35533,4.30219 L -2.43553,4.47263
 L -2.53647,4.63167 L -2.65654,4.77681 L -2.79385,4.90576 L -2.94626,5.01648 L -3.11133,5.10724 L -3.28647,5.17657
 L -3.46892,5.22342 L -3.65581,5.24704 z
" stroke="black" fill="lightgray" stroke-width="0.5"/>
</svg>
