<?xml version="1.0" standalone="no"?>
<!DOCTYPE svg PUBLIC "-//W3C//DTD SVG 1.1//EN" "http://www.w3.org/Graphics/SVG/1.1/DTD/svg11.dtd">
<svg width="30mm" height="62mm" viewBox="-15 -127 30 62" xmlns="http://www.w3.org/2000/svg" version="1.1">
<title>OpenSCAD Model</title>
<path d="
M 10.4369,-113.089 L 11.0451,-113.245 L 11.6289,-113.476 L 12.1791,-113.778 L 12.6871,-114.147 L 13.1448,-114.577
 L 13.5451,-115.061 L 13.8815,-115.591 L 14.1489,-116.159 L 14.3429,-116.757 L 14.4606,-117.373 L 14.5,-118
 L 14.5,-122 L 14.4606,-122.627 L 14.3429,-123.243 L 14.1489,-123.841 L 13.8815,-124.409 L 13.5451,-124.939
 L 13.1448,-125.423 L 12.6871,-125.853 L 12.1791,-126.222 L 11.6289,-126.524 L 11.0451,-126.755 L 10.4369,-126.911
 L 9.81395,-126.99 L -9.81395,-126.99 L -10.4369,-126.911 L -11.0451,-126.755 L -11.6289,-126.524 L -12.1791,-126.222
 L -12.6871,-125.853 L -13.1448,-125.423 L -13.5451,-124.939 L -13.8815,-124.409 L -14.1489,-123.841 L -14.3429,-123.243
 L -14.4606,-122.627 L -14.5,-122 L -14.5,-118 L -14.4606,-117.373 L -14.3429,-116.757 L -14.1489,-116.159
 L -13.8815,-115.591 L -13.5451,-115.061 L -13.1448,-114.577 L -12.6871,-114.147 L -12.1791,-113.778 L -11.6289,-113.476
 L -11.0451,-113.245 L -10.4369,-113.089 L -9.81395,-113.01 L 9.81395,-113.01 z
M -7.86475,-114.203 L -8.58849,-114.294 L -9.29506,-114.475 L -9.97333,-114.744 L -10.6126,-115.095 L -11.2028,-115.524
 L -11.7345,-116.024 L -12.1995,-116.586 L -12.5904,-117.202 L -12.901,-117.862 L -13.1264,-118.555 L -13.2631,-119.272
 L -13.3089,-120 L -13.2631,-120.728 L -13.1264,-121.445 L -12.901,-122.138 L -12.5904,-122.798 L -12.1995,-123.414
 L -11.7345,-123.976 L -11.2028,-124.476 L -10.6126,-124.905 L -9.97333,-125.256 L -9.29506,-125.525 L -8.58849,-125.706
 L -7.86475,-125.797 L 7.86475,-125.797 L 8.58849,-125.706 L 9.29506,-125.525 L 9.97333,-125.256 L 10.6126,-124.905
 L 11.2028,-124.476 L 11.7345,-123.976 L 12.1995,-123.414 L 12.5904,-122.798 L 12.901,-122.138 L 13.1264,-121.445
 L 13.2631,-120.728 L 13.3089,-120 L 13.2631,-119.272 L 13.1264,-118.555 L 12.901,-117.862 L 12.5904,-117.202
 L 12.1995,-116.586 L 11.7345,-116.024 L 11.2028,-115.524 L 10.6126,-115.095 L 9.97333,-114.744 L 9.29506,-114.475
 L 8.58849,-114.294 L 7.86475,-114.203 z
M 10.4369,-89.0886 L 11.0451,-89.2447 L 11.6289,-89.4759 L 12.1791,-89.7784 L 12.6871,-90.1474 L 13.1448,-90.5773
 L 13.5451,-91.0611 L 13.8815,-91.5912 L 14.1489,-92.1594 L 14.3429,-92.7566 L 14.4606,-93.3733 L 14.5,-94
 L 14.5,-98 L 14.4606,-98.6267 L 14.3429,-99.2434 L 14.1489,-99.8406 L 13.8815,-100.409 L 13.5451,-100.939
 L 13.1448,-101.423 L 12.6871,-101.853 L 12.1791,-102.222 L 11.6289,-102.524 L 11.0451,-102.755 L 10.4369,-102.911
 L 9.81395,-102.99 L -9.81395,-102.99 L -10.4369,-102.911 L -11.0451,-102.755 L -11.6289,-102.524 L -12.1791,-102.222
 L -12.6871,-101.853 L -13.1448,-101.423 L -13.5451,-100.939 L -13.8815,-100.409 L -14.1489,-99.8406 L -14.3429,-99.2434
 L -14.4606,-98.6267 L -14.5,-98 L -14.5,-94 L -14.4606,-93.3733 L -14.3429,-92.7566 L -14.1489,-92.1594
 L -13.8815,-91.5912 L -13.5451,-91.0611 L -13.1448,-90.5773 L -12.6871,-90.1474 L -12.1791,-89.7784 L -11.6289,-89.4759
 L -11.0451,-89.2447 L -10.4369,-89.0886 L -9.81395,-89.0099 L 9.81395,-89.0099 z
M -7.74837,-92.0522 L -8.2412,-92.1145 L -8.72234,-92.238 L -9.1842,-92.4209 L -9.61952,-92.6602 L -10.0214,-92.9522
 L -10.3835,-93.2922 L -10.7001,-93.675 L -10.9663,-94.0944 L -11.1778,-94.5439 L -11.3313,-95.0163 L -11.4244,-95.5042
 L -11.4556,-96 L -11.4244,-96.4958 L -11.3313,-96.9837 L -11.1778,-97.4561 L -10.9663,-97.9056 L -10.7001,-98.325
 L -10.3835,-98.7078 L -10.0214,-99.0478 L -9.61952,-99.3398 L -9.1842,-99.5791 L -8.72234,-99.762 L -8.2412,-99.8855
 L -7.74837,-99.9478 L 7.74837,-99.9478 L 8.2412,-99.8855 L 8.72234,-99.762 L 9.1842,-99.5791 L 9.61952,-99.3398
 L 10.0214,-99.0478 L 10.3835,-98.7078 L 10.7001,-98.325 L 10.9663,-97.9056 L 11.1778,-97.4561 L 11.3313,-96.9837
 L 11.4244,-96.4958 L 11.4556,-96 L 11.4244,-95.5042 L 11.3313,-95.0163 L 11.1778,-94.5439 L 10.9663,-94.0944
 L 10.7001,-93.675 L 10.3835,-93.2922 L 10.0214,-92.9522 L 9.61952,-92.6602 L 9.1842,-92.4209 L 8.72234,-92.238
 L 8.2412,-92.1145 L 7.74837,-92.0522 z
M 10.4369,-65.0886 L 11.0451,-65.2447 L 11.6289,-65.4759 L 12.1791,-65.7784 L 12.6871,-66.1474 L 13.1448,-66.5773
 L 13.5451,-67.0611 L 13.8815,-67.5912 L 14.1489,-68.1594 L 14.3429,-68.7566 L 14.4606,-69.3733 L 14.5,-70
 L 14.5,-74 L 14.4606,-74.6267 L 14.3429,-75.2434 L 14.1489,-75.8406 L 13.8815,-76.4088 L 13.5451,-76.9389
 L 13.1448,-77.4227 L 12.6871,-77.8526 L 12.1791,-78.2216 L 11.6289,-78.5241 L 11.0451,-78.7553 L 10.4369,-78.9114
 L 9.81395,-78.9901 L -9.81395,-78.9901 L -10.4369,-78.9114 L -11.0451,-78.7553 L -11.6289,-78.5241 L -12.1791,-78.2216
 L -12.6871,-77.8526 L -13.1448,-77.4227 L -13.5451,-76.9389 L -13.8815,-76.4088 L -14.1489,-75.8406 L -14.3429,-75.2434
 L -14.4606,-74.6267 L -14.5,-74 L -14.5,-70 L -14.4606,-69.3733 L -14.3429,-68.7566 L -14.1489,-68.1594
 L -13.8815,-67.5912 L -13.5451,-67.0611 L -13.1448,-66.5773 L -12.6871,-66.1474 L -12.1791,-65.7784 L -11.6289,-65.4759
 L -11.0451,-65.2447 L -10.4369,-65.0886 L -9.81395,-65.0099 L 9.81395,-65.0099 z
M -7.6507,-69.6047 L -7.94971,-69.6425 L -8.24164,-69.7175 L -8.52187,-69.8284 L -8.78598,-69.9736 L -9.02982,-70.1508
 L -9.24951,-70.3571 L -9.44164,-70.5893 L -9.60313,-70.8438 L -9.73146,-71.1165 L -9.82458,-71.4032 L -9.88107,-71.6992
 L -9.89999,-72 L -9.88107,-72.3008 L -9.82458,-72.5968 L -9.73146,-72.8835 L -9.60313,-73.1562 L -9.44164,-73.4107
 L -9.24951,-73.6429 L -9.02982,-73.8492 L -8.78598,-74.0264 L -8.52187,-74.1716 L -8.24164,-74.2825 L -7.94971,-74.3575
 L -7.6507,-74.3953 L -7.34929,-74.3953 L -7.05028,-74.3575 L -6.75835,-74.2825 L -6.47812,-74.1716 L -6.214,-74.0264
 L -5.97017,-73.8492 L -5.75047,-73.6429 L -5.55835,-73.4107 L -5.39685,-73.1562 L -5.26852,-72.8835 L -5.1754,-72.5968
 L -5.11891,-72.3008 L -5.09999,-72 L -5.11891,-71.6992 L -5.1754,-71.4032 L -5.26852,-71.1165 L -5.39685,-70.8438
 L -5.55835,-70.5893 L -5.75047,-70.3571 L -5.97017,-70.1508 L -6.214,-69.9736 L -6.47812,-69.8284 L -6.75835,-69.7175
 L -7.05028,-69.6425 L -7.34929,-69.6047 z
M 7.34929,-69.6047 L 7.05028,-69.6425 L 6.75835,-69.7175 L 6.47812,-69.8284 L 6.214,-69.9736 L 5.97017,-70.1508
 L 5.75047,-70.3571 L 5.55835,-70.5893 L 5.39685,-70.8438 L 5.26852,-71.1165 L 5.1754,-71.4032 L 5.11891,-71.6992
 L 5.09999,-72 L 5.11891,-72.3008 L 5.1754,-72.5968 L 5.26852,-72.8835 L 5.39685,-73.1562 L 5.55835,-73.4107
 L 5.75047,-73.6429 L 5.97017,-73.8492 L 6.214,-74.0264 L 6.47812,-74.1716 L 6.75835,-74.2825 L 7.05028,-74.3575
 L 7.34929,-74.3953 L 7.6507,-74.3953 L 7.94971,-74.3575 L 8.24164,-74.2825 L 8.52187,-74.1716 L 8.78598,-74.0264
 L 9.02982,-73.8492 L 9.24951,-73.6429 L 9.44164,-73.4107 L 9.60313,-73.1562 L 9.73146,-72.8835 L 9.82458,-72.5968
 L 9.88107,-72.3008 L 9.89999,-72 L 9.88107,-71.6992 L 9.82458,-71.4032 L 9.73146,-71.1165 L 9.60313,-70.8438
 L 9.44164,-70.5893 L 9.24951,-70.3571 L 9.02982,-70.1508 L 8.78598,-69.9736 L 8.52187,-69.8284 L 8.24164,-69.7175
 L 7.94971,-69.6425 L 7.6507,-69.6047 z
" stroke="black" fill="lightgray" stroke-width="0.5"/>
</svg>
