<?xml version="1.0" standalone="no"?>
<!DOCTYPE svg PUBLIC "-//W3C//DTD SVG 1.1//EN" "http://www.w3.org/Graphics/SVG/1.1/DTD/svg11.dtd">
<svg width="54mm" height="494mm" viewBox="-27 -467 54 494" xmlns="http://www.w3.org/2000/svg" version="1.1">
<title>OpenSCAD Model</title>
<path d="
M 4.95561,-414.022 L 8.17249,-414.848 L 11.2605,-416.07 L 14.1709,-417.67 L 16.8578,-419.622 L 19.2788,-421.896
 L 21.3958,-424.455 L 23.1754,-427.259 L 24.5895,-430.264 L 25.6158,-433.423 L 26.2382,-436.685 L 26.4467,-440
 L 26.2382,-443.315 L 25.6158,-446.577 L 24.5895,-449.736 L 23.1754,-452.741 L 21.3958,-455.545 L 19.2788,-458.104
 L 16.8578,-460.378 L 14.1709,-462.33 L 11.2605,-463.93 L 8.17249,-465.152 L 4.95561,-465.978 L 1.6606,-466.395
 L -1.6606,-466.395 L -4.95561,-465.978 L -8.17249,-465.152 L -11.2605,-463.93 L -14.1709,-462.33 L -16.8578,-460.378
 L -19.2788,-458.104 L -21.3958,-455.545 L -23.1754,-452.741 L -24.5895,-449.736 L -25.6158,-446.577 L -26.2382,-443.315
 L -26.4467,-440 L -26.2382,-436.685 L -25.6158,-433.423 L -24.5895,-430.264 L -23.1754,-427.259 L -21.3958,-424.455
 L -19.2788,-421.896 L -16.8578,-419.622 L -14.1709,-417.67 L -11.2605,-416.07 L -8.17249,-414.848 L -4.95561,-414.022
 L -1.6606,-413.605 L 1.6606,-413.605 z
M -0.18837,-452.006 L -0.562134,-452.053 L -0.927048,-452.147 L -1.27733,-452.286 L -1.60747,-452.467 L -1.91226,-452.688
 L -2.1869,-452.946 L -2.42705,-453.237 L -2.62891,-453.555 L -2.78932,-453.896 L -2.90575,-454.254 L -2.97633,-454.624
 L -3,-455 L -2.97633,-455.376 L -2.90575,-455.746 L -2.78932,-456.104 L -2.62891,-456.445 L -2.42705,-456.763
 L -2.1869,-457.054 L -1.91226,-457.312 L -1.60747,-457.533 L -1.27733,-457.714 L -0.927048,-457.853 L -0.562134,-457.947
 L -0.18837,-457.994 L 0.18837,-457.994 L 0.562134,-457.947 L 0.927048,-457.853 L 1.27733,-457.714 L 1.60747,-457.533
 L 1.91226,-457.312 L 2.1869,-457.054 L 2.42705,-456.763 L 2.62891,-456.445 L 2.78932,-456.104 L 2.90575,-455.746
 L 2.97633,-455.376 L 3,-455 L 2.97633,-454.624 L 2.90575,-454.254 L 2.78932,-453.896 L 2.62891,-453.555
 L 2.42705,-453.237 L 2.1869,-452.946 L 1.91226,-452.688 L 1.60747,-452.467 L 1.27733,-452.286 L 0.927048,-452.147
 L 0.562134,-452.053 L 0.18837,-452.006 z
M -11.0072,-448.241 L -11.3007,-448.309 L -11.5832,-448.414 L -11.8503,-448.554 L -12.0977,-448.726 L -12.3217,-448.928
 L -12.5187,-449.156 L -12.6855,-449.407 L -12.8195,-449.677 L -12.9186,-449.962 L -12.9812,-450.256 L -13.0065,-450.557
 L -12.9939,-450.858 L -12.9436,-451.155 L -12.8565,-451.444 L -12.7339,-451.719 L -12.5777,-451.977 L -12.3905,-452.213
 L -12.1752,-452.424 L -11.9351,-452.606 L -11.6741,-452.757 L -11.3963,-452.873 L -11.106,-452.955 L -10.8078,-452.999
 L -10.5065,-453.005 L -10.2067,-452.973 L -9.91331,-452.905 L -9.63083,-452.799 L -9.36372,-452.66 L -9.11624,-452.488
 L -8.89226,-452.286 L -8.69533,-452.058 L -8.52853,-451.807 L -8.39452,-451.537 L -8.29539,-451.252 L -8.23274,-450.958
 L -8.20752,-450.657 L -8.22014,-450.356 L -8.2704,-450.059 L -8.35751,-449.77 L -8.4801,-449.495 L -8.63623,-449.237
 L -8.82344,-449.001 L -9.03879,-448.79 L -9.27885,-448.608 L -9.53987,-448.457 L -9.81772,-448.34 L -10.108,-448.259
 L -10.4062,-448.215 L -10.7075,-448.209 z
M 10.2067,-448.241 L 9.91331,-448.309 L 9.63083,-448.414 L 9.36372,-448.554 L 9.11624,-448.726 L 8.89226,-448.928
 L 8.69533,-449.156 L 8.52853,-449.407 L 8.39452,-449.677 L 8.29539,-449.962 L 8.23274,-450.256 L 8.20752,-450.557
 L 8.22014,-450.858 L 8.2704,-451.155 L 8.35751,-451.444 L 8.4801,-451.719 L 8.63623,-451.977 L 8.82344,-452.213
 L 9.03879,-452.424 L 9.27885,-452.606 L 9.53987,-452.757 L 9.81772,-452.873 L 10.108,-452.955 L 10.4062,-452.999
 L 10.7075,-453.005 L 11.0072,-452.973 L 11.3007,-452.905 L 11.5832,-452.799 L 11.8503,-452.66 L 12.0977,-452.488
 L 12.3217,-452.286 L 12.5187,-452.058 L 12.6855,-451.807 L 12.8195,-451.537 L 12.9186,-451.252 L 12.9812,-450.958
 L 13.0065,-450.657 L 12.9939,-450.356 L 12.9436,-450.059 L 12.8565,-449.77 L 12.7339,-449.495 L 12.5777,-449.237
 L 12.3905,-449.001 L 12.1752,-448.79 L 11.9351,-448.608 L 11.6741,-448.457 L 11.3963,-448.34 L 11.106,-448.259
 L 10.8078,-448.215 L 10.5065,-448.209 z
M -0.0941772,-431.003 L -0.281067,-431.027 L -0.463516,-431.073 L -0.638657,-431.143 L -0.803726,-431.234 L -0.956131,-431.344
 L -1.09344,-431.473 L -1.19904,-431.601 L -1.59273,-431.651 L -2.62663,-431.916 L -3.61911,-432.309 L -4.55452,-432.823
 L -5.41809,-433.451 L -6.19623,-434.181 L -6.87663,-435.004 L -7.44859,-435.905 L -7.90309,-436.871 L -8.23296,-437.886
 L -8.40921,-438.81 L -8.45613,-438.844 L -8.59344,-438.973 L -8.71352,-439.118 L -8.81445,-439.277 L -8.89465,-439.448
 L -8.95287,-439.627 L -8.98816,-439.812 L -9,-440 L -8.98816,-440.188 L -8.95287,-440.373 L -8.89465,-440.552
 L -8.81445,-440.723 L -8.71352,-440.882 L -8.59344,-441.027 L -8.45613,-441.156 L -8.40921,-441.19 L -8.23296,-442.114
 L -7.90309,-443.129 L -7.44859,-444.095 L -6.87663,-444.996 L -6.19623,-445.819 L -5.41809,-446.549 L -4.55452,-447.177
 L -3.61911,-447.691 L -2.62663,-448.084 L -1.59273,-448.349 L -1.19904,-448.399 L -1.09344,-448.527 L -0.956131,-448.656
 L -0.803726,-448.766 L -0.638657,-448.857 L -0.463516,-448.927 L -0.281067,-448.973 L -0.0941772,-448.997 L 0.0941772,-448.997
 L 0.281067,-448.973 L 0.463516,-448.927 L 0.638657,-448.857 L 0.803726,-448.766 L 0.956131,-448.656 L 1.09344,-448.527
 L 1.19904,-448.399 L 1.59273,-448.349 L 2.62663,-448.084 L 3.61911,-447.691 L 4.55452,-447.177 L 5.41809,-446.549
 L 6.19623,-445.819 L 6.87663,-444.996 L 7.44859,-444.095 L 7.90309,-443.129 L 8.23296,-442.114 L 8.40921,-441.19
 L 8.45613,-441.156 L 8.59344,-441.027 L 8.71352,-440.882 L 8.81445,-440.723 L 8.89465,-440.552 L 8.95287,-440.373
 L 8.98816,-440.188 L 9,-440 L 8.98816,-439.812 L 8.95287,-439.627 L 8.89465,-439.448 L 8.81445,-439.277
 L 8.71352,-439.118 L 8.59344,-438.973 L 8.45613,-438.844 L 8.40921,-438.81 L 8.23296,-437.886 L 7.90309,-436.871
 L 7.44859,-435.905 L 6.87663,-435.004 L 6.19623,-434.181 L 5.41809,-433.451 L 4.55452,-432.823 L 3.61911,-432.309
 L 2.62663,-431.916 L 1.59273,-431.651 L 1.19904,-431.601 L 1.09344,-431.473 L 0.956131,-431.344 L 0.803726,-431.234
 L 0.638657,-431.143 L 0.463516,-431.073 L 0.281067,-431.027 L 0.0941772,-431.003 z
M -15.1884,-437.006 L -15.5621,-437.053 L -15.927,-437.147 L -16.2773,-437.286 L -16.6075,-437.467 L -16.9123,-437.688
 L -17.1869,-437.946 L -17.427,-438.237 L -17.6289,-438.555 L -17.7893,-438.896 L -17.9057,-439.254 L -17.9763,-439.624
 L -18,-440 L -17.9763,-440.376 L -17.9057,-440.746 L -17.7893,-441.104 L -17.6289,-441.445 L -17.427,-441.763
 L -17.1869,-442.054 L -16.9123,-442.312 L -16.6075,-442.533 L -16.2773,-442.714 L -15.927,-442.853 L -15.5621,-442.947
 L -15.1884,-442.994 L -14.8116,-442.994 L -14.4379,-442.947 L -14.0729,-442.853 L -13.7227,-442.714 L -13.3925,-442.533
 L -13.0877,-442.312 L -12.8131,-442.054 L -12.5729,-441.763 L -12.3711,-441.445 L -12.2107,-441.104 L -12.0942,-440.746
 L -12.0237,-440.376 L -12,-440 L -12.0237,-439.624 L -12.0942,-439.254 L -12.2107,-438.896 L -12.3711,-438.555
 L -12.5729,-438.237 L -12.8131,-437.946 L -13.0877,-437.688 L -13.3925,-437.467 L -13.7227,-437.286 L -14.0729,-437.147
 L -14.4379,-437.053 L -14.8116,-437.006 z
M 14.8116,-437.006 L 14.4379,-437.053 L 14.0729,-437.147 L 13.7227,-437.286 L 13.3925,-437.467 L 13.0877,-437.688
 L 12.8131,-437.946 L 12.5729,-438.237 L 12.3711,-438.555 L 12.2107,-438.896 L 12.0942,-439.254 L 12.0237,-439.624
 L 12,-440 L 12.0237,-440.376 L 12.0942,-440.746 L 12.2107,-441.104 L 12.3711,-441.445 L 12.5729,-441.763
 L 12.8131,-442.054 L 13.0877,-442.312 L 13.3925,-442.533 L 13.7227,-442.714 L 14.0729,-442.853 L 14.4379,-442.947
 L 14.8116,-442.994 L 15.1884,-442.994 L 15.5621,-442.947 L 15.927,-442.853 L 16.2773,-442.714 L 16.6075,-442.533
 L 16.9123,-442.312 L 17.1869,-442.054 L 17.427,-441.763 L 17.6289,-441.445 L 17.7893,-441.104 L 17.9057,-440.746
 L 17.9763,-440.376 L 18,-440 L 17.9763,-439.624 L 17.9057,-439.254 L 17.7893,-438.896 L 17.6289,-438.555
 L 17.427,-438.237 L 17.1869,-437.946 L 16.9123,-437.688 L 16.6075,-437.467 L 16.2773,-437.286 L 15.927,-437.147
 L 15.5621,-437.053 L 15.1884,-437.006 z
M 10.2067,-427.027 L 9.91331,-427.095 L 9.63083,-427.201 L 9.36372,-427.34 L 9.11624,-427.512 L 8.89226,-427.714
 L 8.69533,-427.942 L 8.52853,-428.193 L 8.39452,-428.463 L 8.29539,-428.748 L 8.23274,-429.042 L 8.20752,-429.343
 L 8.22014,-429.644 L 8.2704,-429.941 L 8.35751,-430.23 L 8.4801,-430.505 L 8.63623,-430.763 L 8.82344,-430.999
 L 9.03879,-431.21 L 9.27885,-431.392 L 9.53987,-431.543 L 9.81772,-431.66 L 10.108,-431.741 L 10.4062,-431.785
 L 10.7075,-431.791 L 11.0072,-431.759 L 11.3007,-431.691 L 11.5832,-431.586 L 11.8503,-431.446 L 12.0977,-431.274
 L 12.3217,-431.072 L 12.5187,-430.844 L 12.6855,-430.593 L 12.8195,-430.323 L 12.9186,-430.038 L 12.9812,-429.744
 L 13.0065,-429.443 L 12.9939,-429.142 L 12.9436,-428.845 L 12.8565,-428.556 L 12.7339,-428.281 L 12.5777,-428.023
 L 12.3905,-427.787 L 12.1752,-427.576 L 11.9351,-427.394 L 11.6741,-427.243 L 11.3963,-427.127 L 11.106,-427.045
 L 10.8078,-427.001 L 10.5065,-426.995 z
M -11.0072,-427.027 L -11.3007,-427.095 L -11.5832,-427.201 L -11.8503,-427.34 L -12.0977,-427.512 L -12.3217,-427.714
 L -12.5187,-427.942 L -12.6855,-428.193 L -12.8195,-428.463 L -12.9186,-428.748 L -12.9812,-429.042 L -13.0065,-429.343
 L -12.9939,-429.644 L -12.9436,-429.941 L -12.8565,-430.23 L -12.7339,-430.505 L -12.5777,-430.763 L -12.3905,-430.999
 L -12.1752,-431.21 L -11.9351,-431.392 L -11.6741,-431.543 L -11.3963,-431.66 L -11.106,-431.741 L -10.8078,-431.785
 L -10.5065,-431.791 L -10.2067,-431.759 L -9.91331,-431.691 L -9.63083,-431.586 L -9.36372,-431.446 L -9.11624,-431.274
 L -8.89226,-431.072 L -8.69533,-430.844 L -8.52853,-430.593 L -8.39452,-430.323 L -8.29539,-430.038 L -8.23274,-429.744
 L -8.20752,-429.443 L -8.22014,-429.142 L -8.2704,-428.845 L -8.35751,-428.556 L -8.4801,-428.281 L -8.63623,-428.023
 L -8.82344,-427.787 L -9.03879,-427.576 L -9.27885,-427.394 L -9.53987,-427.243 L -9.81772,-427.127 L -10.108,-427.045
 L -10.4062,-427.001 L -10.7075,-426.995 z
M -0.18837,-422.006 L -0.562134,-422.053 L -0.927048,-422.147 L -1.27733,-422.286 L -1.60747,-422.467 L -1.91226,-422.688
 L -2.1869,-422.946 L -2.42705,-423.237 L -2.62891,-423.555 L -2.78932,-423.896 L -2.90575,-424.254 L -2.97633,-424.624
 L -3,-425 L -2.97633,-425.376 L -2.90575,-425.746 L -2.78932,-426.104 L -2.62891,-426.445 L -2.42705,-426.763
 L -2.1869,-427.054 L -1.91226,-427.312 L -1.60747,-427.533 L -1.27733,-427.714 L -0.927048,-427.853 L -0.562134,-427.947
 L -0.18837,-427.994 L 0.18837,-427.994 L 0.562134,-427.947 L 0.927048,-427.853 L 1.27733,-427.714 L 1.60747,-427.533
 L 1.91226,-427.312 L 2.1869,-427.054 L 2.42705,-426.763 L 2.62891,-426.445 L 2.78932,-426.104 L 2.90575,-425.746
 L 2.97633,-425.376 L 3,-425 L 2.97633,-424.624 L 2.90575,-424.254 L 2.78932,-423.896 L 2.62891,-423.555
 L 2.42705,-423.237 L 2.1869,-422.946 L 1.91226,-422.688 L 1.60747,-422.467 L 1.27733,-422.286 L 0.927048,-422.147
 L 0.562134,-422.053 L 0.18837,-422.006 z
M 4.9425,-304.09 L 8.15088,-304.914 L 11.2307,-306.134 L 14.1334,-307.729 L 16.8132,-309.676 L 19.2279,-311.944
 L 21.3393,-314.496 L 23.1142,-317.293 L 24.5245,-320.29 L 25.5481,-323.44 L 26.1688,-326.694 L 26.3768,-330
 L 26.1688,-333.306 L 25.5481,-336.56 L 24.5245,-339.71 L 23.1142,-342.707 L 21.3393,-345.504 L 19.2279,-348.056
 L 16.8132,-350.324 L 14.1334,-352.271 L 11.2307,-353.866 L 8.15088,-355.086 L 4.9425,-355.91 L 1.6562,-356.325
 L -1.6562,-356.325 L -4.9425,-355.91 L -8.15088,-355.086 L -11.2307,-353.866 L -14.1334,-352.271 L -16.8132,-350.324
 L -19.2279,-348.056 L -21.3393,-345.504 L -23.1142,-342.707 L -24.5245,-339.71 L -25.5481,-336.56 L -26.1688,-333.306
 L -26.3768,-330 L -26.1688,-326.694 L -25.5481,-323.44 L -24.5245,-320.29 L -23.1142,-317.293 L -21.3393,-314.496
 L -19.2279,-311.944 L -16.8132,-309.676 L -14.1334,-307.729 L -11.2307,-306.134 L -8.15088,-304.914 L -4.9425,-304.09
 L -1.6562,-303.675 L 1.6562,-303.675 z
M -0.18837,-342.006 L -0.562134,-342.053 L -0.927048,-342.147 L -1.27733,-342.286 L -1.60747,-342.467 L -1.91226,-342.688
 L -2.1869,-342.946 L -2.42705,-343.237 L -2.62891,-343.555 L -2.78932,-343.896 L -2.90575,-344.254 L -2.97633,-344.624
 L -3,-345 L -2.97633,-345.376 L -2.90575,-345.746 L -2.78932,-346.104 L -2.62891,-346.445 L -2.42705,-346.763
 L -2.1869,-347.054 L -1.91226,-347.312 L -1.60747,-347.533 L -1.27733,-347.714 L -0.927048,-347.853 L -0.562134,-347.947
 L -0.18837,-347.994 L 0.18837,-347.994 L 0.562134,-347.947 L 0.927048,-347.853 L 1.27733,-347.714 L 1.60747,-347.533
 L 1.91226,-347.312 L 2.1869,-347.054 L 2.42705,-346.763 L 2.62891,-346.445 L 2.78932,-346.104 L 2.90575,-345.746
 L 2.97633,-345.376 L 3,-345 L 2.97633,-344.624 L 2.90575,-344.254 L 2.78932,-343.896 L 2.62891,-343.555
 L 2.42705,-343.237 L 2.1869,-342.946 L 1.91226,-342.688 L 1.60747,-342.467 L 1.27733,-342.286 L 0.927048,-342.147
 L 0.562134,-342.053 L 0.18837,-342.006 z
M 8.9337,-337.709 L 7.26039,-340.607 L 8.93369,-343.505 L 12.2803,-343.505 L 13.9536,-340.607 L 12.2803,-337.709
 z
M -10.8571,-339.128 L -11.0405,-339.171 L -11.2171,-339.237 L -11.384,-339.324 L -11.5387,-339.431 L -11.6787,-339.557
 L -11.8018,-339.7 L -11.906,-339.857 L -11.9898,-340.026 L -12.0517,-340.204 L -12.0909,-340.388 L -12.1067,-340.576
 L -12.0988,-340.764 L -12.0674,-340.95 L -12.0129,-341.13 L -11.9363,-341.302 L -11.8387,-341.463 L -11.7217,-341.611
 L -11.5871,-341.742 L -11.4371,-341.856 L -11.2739,-341.951 L -11.1003,-342.024 L -10.9189,-342.074 L -10.7325,-342.102
 L -10.5442,-342.106 L -10.3568,-342.086 L -10.1734,-342.043 L -9.99689,-341.977 L -9.82996,-341.89 L -9.67528,-341.783
 L -9.53528,-341.656 L -9.4122,-341.514 L -9.30795,-341.357 L -9.2242,-341.188 L -9.16225,-341.01 L -9.12308,-340.826
 L -9.10732,-340.638 L -9.1152,-340.45 L -9.14662,-340.264 L -9.20107,-340.084 L -9.27768,-339.912 L -9.37527,-339.751
 L -9.49228,-339.603 L -9.62686,-339.471 L -9.7769,-339.358 L -9.94003,-339.263 L -10.1137,-339.19 L -10.2951,-339.14
 L -10.4815,-339.112 L -10.6698,-339.108 z
M -0.0941772,-321.003 L -0.281067,-321.027 L -0.463516,-321.073 L -0.638657,-321.143 L -0.803726,-321.234 L -0.956131,-321.344
 L -1.09344,-321.473 L -1.19904,-321.601 L -1.59273,-321.651 L -2.62663,-321.916 L -3.61911,-322.309 L -4.55452,-322.823
 L -5.41809,-323.451 L -6.19623,-324.181 L -6.87663,-325.004 L -7.44859,-325.905 L -7.90309,-326.871 L -8.23296,-327.886
 L -8.40921,-328.81 L -8.45613,-328.844 L -8.59344,-328.973 L -8.71352,-329.118 L -8.81445,-329.277 L -8.89465,-329.448
 L -8.95287,-329.627 L -8.98816,-329.812 L -9,-330 L -8.98816,-330.188 L -8.95287,-330.373 L -8.89465,-330.552
 L -8.81445,-330.723 L -8.71352,-330.882 L -8.59344,-331.027 L -8.45613,-331.156 L -8.40921,-331.19 L -8.23296,-332.114
 L -7.90309,-333.129 L -7.44859,-334.095 L -6.87663,-334.996 L -6.19623,-335.819 L -5.41809,-336.549 L -4.55452,-337.177
 L -3.61911,-337.691 L -2.62663,-338.084 L -1.59273,-338.349 L -1.19904,-338.399 L -1.09344,-338.527 L -0.956131,-338.656
 L -0.803726,-338.766 L -0.638657,-338.857 L -0.463516,-338.927 L -0.281067,-338.973 L -0.0941772,-338.997 L 0.0941772,-338.997
 L 0.281067,-338.973 L 0.463516,-338.927 L 0.638657,-338.857 L 0.803726,-338.766 L 0.956131,-338.656 L 1.09344,-338.527
 L 1.19904,-338.399 L 1.59273,-338.349 L 2.62663,-338.084 L 3.61911,-337.691 L 4.55452,-337.177 L 5.41809,-336.549
 L 6.19623,-335.819 L 6.87663,-334.996 L 7.44859,-334.095 L 7.90309,-333.129 L 8.23296,-332.114 L 8.40921,-331.19
 L 8.45613,-331.156 L 8.59344,-331.027 L 8.71352,-330.882 L 8.81445,-330.723 L 8.89465,-330.552 L 8.95287,-330.373
 L 8.98816,-330.188 L 9,-330 L 8.98816,-329.812 L 8.95287,-329.627 L 8.89465,-329.448 L 8.81445,-329.277
 L 8.71352,-329.118 L 8.59344,-328.973 L 8.45613,-328.844 L 8.40921,-328.81 L 8.23296,-327.886 L 7.90309,-326.871
 L 7.44859,-325.905 L 6.87663,-325.004 L 6.19623,-324.181 L 5.41809,-323.451 L 4.55452,-322.823 L 3.61911,-322.309
 L 2.62663,-321.916 L 1.59273,-321.651 L 1.19904,-321.601 L 1.09344,-321.473 L 0.956131,-321.344 L 0.803726,-321.234
 L 0.638657,-321.143 L 0.463516,-321.073 L 0.281067,-321.027 L 0.0941772,-321.003 z
M -15.1884,-327.006 L -15.5621,-327.053 L -15.927,-327.147 L -16.2773,-327.286 L -16.6075,-327.467 L -16.9123,-327.688
 L -17.1869,-327.946 L -17.427,-328.237 L -17.6289,-328.555 L -17.7893,-328.896 L -17.9057,-329.254 L -17.9763,-329.624
 L -18,-330 L -17.9763,-330.376 L -17.9057,-330.746 L -17.7893,-331.104 L -17.6289,-331.445 L -17.427,-331.763
 L -17.1869,-332.054 L -16.9123,-332.312 L -16.6075,-332.533 L -16.2773,-332.714 L -15.927,-332.853 L -15.5621,-332.947
 L -15.1884,-332.994 L -14.8116,-332.994 L -14.4379,-332.947 L -14.0729,-332.853 L -13.7227,-332.714 L -13.3925,-332.533
 L -13.0877,-332.312 L -12.8131,-332.054 L -12.5729,-331.763 L -12.3711,-331.445 L -12.2107,-331.104 L -12.0942,-330.746
 L -12.0237,-330.376 L -12,-330 L -12.0237,-329.624 L -12.0942,-329.254 L -12.2107,-328.896 L -12.3711,-328.555
 L -12.5729,-328.237 L -12.8131,-327.946 L -13.0877,-327.688 L -13.3925,-327.467 L -13.7227,-327.286 L -14.0729,-327.147
 L -14.4379,-327.053 L -14.8116,-327.006 z
M 14.8116,-327.006 L 14.4379,-327.053 L 14.0729,-327.147 L 13.7227,-327.286 L 13.3925,-327.467 L 13.0877,-327.688
 L 12.8131,-327.946 L 12.5729,-328.237 L 12.3711,-328.555 L 12.2107,-328.896 L 12.0942,-329.254 L 12.0237,-329.624
 L 12,-330 L 12.0237,-330.376 L 12.0942,-330.746 L 12.2107,-331.104 L 12.3711,-331.445 L 12.5729,-331.763
 L 12.8131,-332.054 L 13.0877,-332.312 L 13.3925,-332.533 L 13.7227,-332.714 L 14.0729,-332.853 L 14.4379,-332.947
 L 14.8116,-332.994 L 15.1884,-332.994 L 15.5621,-332.947 L 15.927,-332.853 L 16.2773,-332.714 L 16.6075,-332.533
 L 16.9123,-332.312 L 17.1869,-332.054 L 17.427,-331.763 L 17.6289,-331.445 L 17.7893,-331.104 L 17.9057,-330.746
 L 17.9763,-330.376 L 18,-330 L 17.9763,-329.624 L 17.9057,-329.254 L 17.7893,-328.896 L 17.6289,-328.555
 L 17.427,-328.237 L 17.1869,-327.946 L 16.9123,-327.688 L 16.6075,-327.467 L 16.2773,-327.286 L 15.927,-327.147
 L 15.5621,-327.053 L 15.1884,-327.006 z
M -12.2803,-316.495 L -13.9536,-319.393 L -12.2803,-322.291 L -8.9337,-322.291 L -7.26039,-319.393 L -8.93369,-316.495
 z
M 10.3568,-317.914 L 10.1734,-317.957 L 9.99689,-318.023 L 9.82996,-318.11 L 9.67528,-318.217 L 9.53528,-318.344
 L 9.4122,-318.486 L 9.30795,-318.643 L 9.2242,-318.812 L 9.16225,-318.99 L 9.12308,-319.174 L 9.10732,-319.362
 L 9.1152,-319.55 L 9.14662,-319.736 L 9.20107,-319.916 L 9.27768,-320.088 L 9.37527,-320.249 L 9.49228,-320.397
 L 9.62686,-320.529 L 9.7769,-320.642 L 9.94003,-320.737 L 10.1137,-320.81 L 10.2951,-320.86 L 10.4815,-320.888
 L 10.6698,-320.892 L 10.8571,-320.872 L 11.0405,-320.829 L 11.2171,-320.763 L 11.384,-320.676 L 11.5387,-320.569
 L 11.6787,-320.443 L 11.8018,-320.3 L 11.906,-320.143 L 11.9898,-319.974 L 12.0517,-319.796 L 12.0909,-319.612
 L 12.1067,-319.424 L 12.0988,-319.236 L 12.0674,-319.05 L 12.0129,-318.87 L 11.9363,-318.698 L 11.8387,-318.537
 L 11.7217,-318.389 L 11.5871,-318.258 L 11.4371,-318.144 L 11.2739,-318.049 L 11.1003,-317.976 L 10.9189,-317.926
 L 10.7325,-317.898 L 10.5442,-317.894 z
M -0.18837,-312.006 L -0.562134,-312.053 L -0.927048,-312.147 L -1.27733,-312.286 L -1.60747,-312.467 L -1.91226,-312.688
 L -2.1869,-312.946 L -2.42705,-313.237 L -2.62891,-313.555 L -2.78932,-313.896 L -2.90575,-314.254 L -2.97633,-314.624
 L -3,-315 L -2.97633,-315.376 L -2.90575,-315.746 L -2.78932,-316.104 L -2.62891,-316.445 L -2.42705,-316.763
 L -2.1869,-317.054 L -1.91226,-317.312 L -1.60747,-317.533 L -1.27733,-317.714 L -0.927048,-317.853 L -0.562134,-317.947
 L -0.18837,-317.994 L 0.18837,-317.994 L 0.562134,-317.947 L 0.927048,-317.853 L 1.27733,-317.714 L 1.60747,-317.533
 L 1.91226,-317.312 L 2.1869,-317.054 L 2.42705,-316.763 L 2.62891,-316.445 L 2.78932,-316.104 L 2.90575,-315.746
 L 2.97633,-315.376 L 3,-315 L 2.97633,-314.624 L 2.90575,-314.254 L 2.78932,-313.896 L 2.62891,-313.555
 L 2.42705,-313.237 L 2.1869,-312.946 L 1.91226,-312.688 L 1.60747,-312.467 L 1.27733,-312.286 L 0.927048,-312.147
 L 0.562134,-312.053 L 0.18837,-312.006 z
M 4.97964,-193.896 L 8.21211,-194.726 L 11.3151,-195.954 L 14.2396,-197.562 L 16.9395,-199.524 L 19.3723,-201.808
 L 21.4996,-204.38 L 23.2878,-207.197 L 24.7088,-210.217 L 25.7401,-213.391 L 26.3654,-216.669 L 26.575,-220
 L 26.3654,-223.331 L 25.7401,-226.609 L 24.7088,-229.783 L 23.2878,-232.803 L 21.4996,-235.62 L 19.3723,-238.192
 L 16.9395,-240.476 L 14.2396,-242.438 L 11.3151,-244.046 L 8.21211,-245.274 L 4.97964,-246.104 L 1.66866,-246.523
 L -1.66866,-246.523 L -4.97964,-246.104 L -8.21211,-245.274 L -11.3151,-244.046 L -14.2396,-242.438 L -16.9395,-240.476
 L -19.3723,-238.192 L -21.4996,-235.62 L -23.2878,-232.803 L -24.7088,-229.783 L -25.7401,-226.609 L -26.3654,-223.331
 L -26.575,-220 L -26.3654,-216.669 L -25.7401,-213.391 L -24.7088,-210.217 L -23.2878,-207.197 L -21.4996,-204.38
 L -19.3723,-201.808 L -16.9395,-199.524 L -14.2396,-197.562 L -11.3151,-195.954 L -8.21211,-194.726 L -4.97964,-193.896
 L -1.66866,-193.477 L 1.66866,-193.477 z
M -0.18837,-232.006 L -0.562134,-232.053 L -0.927048,-232.147 L -1.27733,-232.286 L -1.60747,-232.467 L -1.91226,-232.688
 L -2.1869,-232.946 L -2.42705,-233.237 L -2.62891,-233.555 L -2.78932,-233.896 L -2.90575,-234.254 L -2.97633,-234.624
 L -3,-235 L -2.97633,-235.376 L -2.90575,-235.746 L -2.78932,-236.104 L -2.62891,-236.445 L -2.42705,-236.763
 L -2.1869,-237.054 L -1.91226,-237.312 L -1.60747,-237.533 L -1.27733,-237.714 L -0.927048,-237.853 L -0.562134,-237.947
 L -0.18837,-237.994 L 0.18837,-237.994 L 0.562134,-237.947 L 0.927048,-237.853 L 1.27733,-237.714 L 1.60747,-237.533
 L 1.91226,-237.312 L 2.1869,-237.054 L 2.42705,-236.763 L 2.62891,-236.445 L 2.78932,-236.104 L 2.90575,-235.746
 L 2.97633,-235.376 L 3,-235 L 2.97633,-234.624 L 2.90575,-234.254 L 2.78932,-233.896 L 2.62891,-233.555
 L 2.42705,-233.237 L 2.1869,-232.946 L 1.91226,-232.688 L 1.60747,-232.467 L 1.27733,-232.286 L 0.927048,-232.147
 L 0.562134,-232.053 L 0.18837,-232.006 z
M 8.9337,-227.709 L 7.26039,-230.607 L 8.93369,-233.505 L 12.2803,-233.505 L 13.9536,-230.607 L 12.2803,-227.709
 z
M -10.8571,-229.128 L -11.0405,-229.171 L -11.2171,-229.237 L -11.384,-229.324 L -11.5387,-229.431 L -11.6787,-229.557
 L -11.8018,-229.7 L -11.906,-229.857 L -11.9898,-230.026 L -12.0517,-230.204 L -12.0909,-230.388 L -12.1067,-230.576
 L -12.0988,-230.764 L -12.0674,-230.95 L -12.0129,-231.13 L -11.9363,-231.302 L -11.8387,-231.463 L -11.7217,-231.611
 L -11.5871,-231.742 L -11.4371,-231.856 L -11.2739,-231.951 L -11.1003,-232.024 L -10.9189,-232.074 L -10.7325,-232.102
 L -10.5442,-232.106 L -10.3568,-232.086 L -10.1734,-232.043 L -9.99689,-231.977 L -9.82996,-231.89 L -9.67528,-231.783
 L -9.53528,-231.656 L -9.4122,-231.514 L -9.30795,-231.357 L -9.2242,-231.188 L -9.16225,-231.01 L -9.12308,-230.826
 L -9.10732,-230.638 L -9.1152,-230.45 L -9.14662,-230.264 L -9.20107,-230.084 L -9.27768,-229.912 L -9.37527,-229.751
 L -9.49228,-229.603 L -9.62686,-229.471 L -9.7769,-229.358 L -9.94003,-229.263 L -10.1137,-229.19 L -10.2951,-229.14
 L -10.4815,-229.112 L -10.6698,-229.108 z
M -0.0941772,-211.003 L -0.281067,-211.027 L -0.463516,-211.073 L -0.638657,-211.143 L -0.803726,-211.234 L -0.956131,-211.344
 L -1.09344,-211.473 L -1.21352,-211.618 L -1.31445,-211.777 L -1.39465,-211.948 L -1.45287,-212.127 L -1.48816,-212.312
 L -1.5,-212.5 L -1.49026,-212.655 L -2.31763,-212.867 L -3.19334,-213.214 L -4.01869,-213.668 L -4.78067,-214.221
 L -5.46725,-214.866 L -6.06763,-215.592 L -6.5723,-216.387 L -6.97331,-217.239 L -7.26436,-218.135 L -7.33627,-218.512
 L -7.40581,-218.503 L -7.59418,-218.503 L -7.78107,-218.527 L -7.96352,-218.573 L -8.13866,-218.643 L -8.30373,-218.734
 L -8.45613,-218.844 L -8.59344,-218.973 L -8.71352,-219.118 L -8.81445,-219.277 L -8.89465,-219.448 L -8.95287,-219.627
 L -8.98816,-219.812 L -9,-220 L -8.98816,-220.188 L -8.95287,-220.373 L -8.89465,-220.552 L -8.81445,-220.723
 L -8.71352,-220.882 L -8.59344,-221.027 L -8.45613,-221.156 L -8.30373,-221.266 L -8.13866,-221.357 L -7.96352,-221.427
 L -7.78107,-221.473 L -7.59418,-221.497 L -7.40581,-221.497 L -7.33627,-221.488 L -7.26436,-221.865 L -6.97331,-222.761
 L -6.5723,-223.613 L -6.06763,-224.408 L -5.46725,-225.134 L -4.78067,-225.779 L -4.01869,-226.332 L -3.19334,-226.786
 L -2.31763,-227.133 L -1.49026,-227.345 L -1.5,-227.5 L -1.48816,-227.688 L -1.45287,-227.873 L -1.39465,-228.052
 L -1.31445,-228.223 L -1.21352,-228.382 L -1.09344,-228.527 L -0.956131,-228.656 L -0.803726,-228.766 L -0.638657,-228.857
 L -0.463516,-228.927 L -0.281067,-228.973 L -0.0941772,-228.997 L 0.0941772,-228.997 L 0.281067,-228.973 L 0.463516,-228.927
 L 0.638657,-228.857 L 0.803726,-228.766 L 0.956131,-228.656 L 1.09344,-228.527 L 1.21352,-228.382 L 1.31445,-228.223
 L 1.39465,-228.052 L 1.45287,-227.873 L 1.48816,-227.688 L 1.5,-227.5 L 1.49026,-227.345 L 2.31763,-227.133
 L 3.19334,-226.786 L 4.01869,-226.332 L 4.78067,-225.779 L 5.46725,-225.134 L 6.06763,-224.408 L 6.5723,-223.613
 L 6.97331,-222.761 L 7.26436,-221.865 L 7.33627,-221.488 L 7.40581,-221.497 L 7.59418,-221.497 L 7.78107,-221.473
 L 7.96352,-221.427 L 8.13866,-221.357 L 8.30373,-221.266 L 8.45613,-221.156 L 8.59344,-221.027 L 8.71352,-220.882
 L 8.81445,-220.723 L 8.89465,-220.552 L 8.95287,-220.373 L 8.98816,-220.188 L 9,-220 L 8.98816,-219.812
 L 8.95287,-219.627 L 8.89465,-219.448 L 8.81445,-219.277 L 8.71352,-219.118 L 8.59344,-218.973 L 8.45613,-218.844
 L 8.30373,-218.734 L 8.13866,-218.643 L 7.96352,-218.573 L 7.78107,-218.527 L 7.59418,-218.503 L 7.40581,-218.503
 L 7.33627,-218.512 L 7.26436,-218.135 L 6.97331,-217.239 L 6.5723,-216.387 L 6.06763,-215.592 L 5.46725,-214.866
 L 4.78067,-214.221 L 4.01869,-213.668 L 3.19334,-213.214 L 2.31763,-212.867 L 1.49026,-212.655 L 1.5,-212.5
 L 1.48816,-212.312 L 1.45287,-212.127 L 1.39465,-211.948 L 1.31445,-211.777 L 1.21352,-211.618 L 1.09344,-211.473
 L 0.956131,-211.344 L 0.803726,-211.234 L 0.638657,-211.143 L 0.463516,-211.073 L 0.281067,-211.027 L 0.0941772,-211.003
 z
M 0.749512,-216.071 L 1.23605,-216.196 L 1.70311,-216.381 L 2.1433,-216.623 L 2.54968,-216.918 L 2.91586,-217.262
 L 3.23605,-217.649 L 3.50522,-218.073 L 3.7191,-218.528 L 3.87433,-219.005 L 3.96844,-219.499 L 4,-220
 L 3.96844,-220.501 L 3.87433,-220.995 L 3.7191,-221.472 L 3.50522,-221.927 L 3.23605,-222.351 L 2.91586,-222.738
 L 2.54968,-223.082 L 2.1433,-223.377 L 1.70311,-223.619 L 1.23605,-223.804 L 0.749512,-223.929 L 0.25116,-223.992
 L -0.25116,-223.992 L -0.749512,-223.929 L -1.23605,-223.804 L -1.70311,-223.619 L -2.1433,-223.377 L -2.54968,-223.082
 L -2.91586,-222.738 L -3.23605,-222.351 L -3.50522,-221.927 L -3.7191,-221.472 L -3.87433,-220.995 L -3.96844,-220.501
 L -4,-220 L -3.96844,-219.499 L -3.87433,-219.005 L -3.7191,-218.528 L -3.50522,-218.073 L -3.23605,-217.649
 L -2.91586,-217.262 L -2.54968,-216.918 L -2.1433,-216.623 L -1.70311,-216.381 L -1.23605,-216.196 L -0.749512,-216.071
 L -0.25116,-216.008 L 0.25116,-216.008 z
M -0.18837,-217.006 L -0.562134,-217.053 L -0.927048,-217.147 L -1.27733,-217.286 L -1.60747,-217.467 L -1.91226,-217.688
 L -2.1869,-217.946 L -2.42705,-218.237 L -2.62891,-218.555 L -2.78932,-218.896 L -2.90575,-219.254 L -2.97633,-219.624
 L -3,-220 L -2.97633,-220.376 L -2.90575,-220.746 L -2.78932,-221.104 L -2.62891,-221.445 L -2.42705,-221.763
 L -2.1869,-222.054 L -1.91226,-222.312 L -1.60747,-222.533 L -1.27733,-222.714 L -0.927048,-222.853 L -0.562134,-222.947
 L -0.18837,-222.994 L 0.18837,-222.994 L 0.562134,-222.947 L 0.927048,-222.853 L 1.27733,-222.714 L 1.60747,-222.533
 L 1.91226,-222.312 L 2.1869,-222.054 L 2.42705,-221.763 L 2.62891,-221.445 L 2.78932,-221.104 L 2.90575,-220.746
 L 2.97633,-220.376 L 3,-220 L 2.97633,-219.624 L 2.90575,-219.254 L 2.78932,-218.896 L 2.62891,-218.555
 L 2.42705,-218.237 L 2.1869,-217.946 L 1.91226,-217.688 L 1.60747,-217.467 L 1.27733,-217.286 L 0.927048,-217.147
 L 0.562134,-217.053 L 0.18837,-217.006 z
M -15.1884,-217.006 L -15.5621,-217.053 L -15.927,-217.147 L -16.2773,-217.286 L -16.6075,-217.467 L -16.9123,-217.688
 L -17.1869,-217.946 L -17.427,-218.237 L -17.6289,-218.555 L -17.7893,-218.896 L -17.9057,-219.254 L -17.9763,-219.624
 L -18,-220 L -17.9763,-220.376 L -17.9057,-220.746 L -17.7893,-221.104 L -17.6289,-221.445 L -17.427,-221.763
 L -17.1869,-222.054 L -16.9123,-222.312 L -16.6075,-222.533 L -16.2773,-222.714 L -15.927,-222.853 L -15.5621,-222.947
 L -15.1884,-222.994 L -14.8116,-222.994 L -14.4379,-222.947 L -14.0729,-222.853 L -13.7227,-222.714 L -13.3925,-222.533
 L -13.0877,-222.312 L -12.8131,-222.054 L -12.5729,-221.763 L -12.3711,-221.445 L -12.2107,-221.104 L -12.0942,-220.746
 L -12.0237,-220.376 L -12,-220 L -12.0237,-219.624 L -12.0942,-219.254 L -12.2107,-218.896 L -12.3711,-218.555
 L -12.5729,-218.237 L -12.8131,-217.946 L -13.0877,-217.688 L -13.3925,-217.467 L -13.7227,-217.286 L -14.0729,-217.147
 L -14.4379,-217.053 L -14.8116,-217.006 z
M 14.8116,-217.006 L 14.4379,-217.053 L 14.0729,-217.147 L 13.7227,-217.286 L 13.3925,-217.467 L 13.0877,-217.688
 L 12.8131,-217.946 L 12.5729,-218.237 L 12.3711,-218.555 L 12.2107,-218.896 L 12.0942,-219.254 L 12.0237,-219.624
 L 12,-220 L 12.0237,-220.376 L 12.0942,-220.746 L 12.2107,-221.104 L 12.3711,-221.445 L 12.5729,-221.763
 L 12.8131,-222.054 L 13.0877,-222.312 L 13.3925,-222.533 L 13.7227,-222.714 L 14.0729,-222.853 L 14.4379,-222.947
 L 14.8116,-222.994 L 15.1884,-222.994 L 15.5621,-222.947 L 15.927,-222.853 L 16.2773,-222.714 L 16.6075,-222.533
 L 16.9123,-222.312 L 17.1869,-222.054 L 17.427,-221.763 L 17.6289,-221.445 L 17.7893,-221.104 L 17.9057,-220.746
 L 17.9763,-220.376 L 18,-220 L 17.9763,-219.624 L 17.9057,-219.254 L 17.7893,-218.896 L 17.6289,-218.555
 L 17.427,-218.237 L 17.1869,-217.946 L 16.9123,-217.688 L 16.6075,-217.467 L 16.2773,-217.286 L 15.927,-217.147
 L 15.5621,-217.053 L 15.1884,-217.006 z
M -12.2803,-206.495 L -13.9536,-209.393 L -12.2803,-212.291 L -8.9337,-212.291 L -7.26039,-209.393 L -8.93369,-206.495
 z
M 10.3568,-207.914 L 10.1734,-207.957 L 9.99689,-208.023 L 9.82996,-208.11 L 9.67528,-208.217 L 9.53528,-208.344
 L 9.4122,-208.486 L 9.30795,-208.643 L 9.2242,-208.812 L 9.16225,-208.99 L 9.12308,-209.174 L 9.10732,-209.362
 L 9.1152,-209.55 L 9.14662,-209.736 L 9.20107,-209.916 L 9.27768,-210.088 L 9.37527,-210.249 L 9.49228,-210.397
 L 9.62686,-210.529 L 9.7769,-210.642 L 9.94003,-210.737 L 10.1137,-210.81 L 10.2951,-210.86 L 10.4815,-210.888
 L 10.6698,-210.892 L 10.8571,-210.872 L 11.0405,-210.829 L 11.2171,-210.763 L 11.384,-210.676 L 11.5387,-210.569
 L 11.6787,-210.443 L 11.8018,-210.3 L 11.906,-210.143 L 11.9898,-209.974 L 12.0517,-209.796 L 12.0909,-209.612
 L 12.1067,-209.424 L 12.0988,-209.236 L 12.0674,-209.05 L 12.0129,-208.87 L 11.9363,-208.698 L 11.8387,-208.537
 L 11.7217,-208.389 L 11.5871,-208.258 L 11.4371,-208.144 L 11.2739,-208.049 L 11.1003,-207.976 L 10.9189,-207.926
 L 10.7325,-207.898 L 10.5442,-207.894 z
M -0.18837,-202.006 L -0.562134,-202.053 L -0.927048,-202.147 L -1.27733,-202.286 L -1.60747,-202.467 L -1.91226,-202.688
 L -2.1869,-202.946 L -2.42705,-203.237 L -2.62891,-203.555 L -2.78932,-203.896 L -2.90575,-204.254 L -2.97633,-204.624
 L -3,-205 L -2.97633,-205.376 L -2.90575,-205.746 L -2.78932,-206.104 L -2.62891,-206.445 L -2.42705,-206.763
 L -2.1869,-207.054 L -1.91226,-207.312 L -1.60747,-207.533 L -1.27733,-207.714 L -0.927048,-207.853 L -0.562134,-207.947
 L -0.18837,-207.994 L 0.18837,-207.994 L 0.562134,-207.947 L 0.927048,-207.853 L 1.27733,-207.714 L 1.60747,-207.533
 L 1.91226,-207.312 L 2.1869,-207.054 L 2.42705,-206.763 L 2.62891,-206.445 L 2.78932,-206.104 L 2.90575,-205.746
 L 2.97633,-205.376 L 3,-205 L 2.97633,-204.624 L 2.90575,-204.254 L 2.78932,-203.896 L 2.62891,-203.555
 L 2.42705,-203.237 L 2.1869,-202.946 L 1.91226,-202.688 L 1.60747,-202.467 L 1.27733,-202.286 L 0.927048,-202.147
 L 0.562134,-202.053 L 0.18837,-202.006 z
M 4.95561,-84.0217 L 8.17249,-84.8477 L 11.2605,-86.0703 L 14.1709,-87.6703 L 16.8578,-89.6225 L 19.2788,-91.896
 L 21.3958,-94.455 L 23.1754,-97.2592 L 24.5895,-100.264 L 25.6158,-103.423 L 26.2382,-106.685 L 26.4467,-110
 L 26.2382,-113.315 L 25.6158,-116.577 L 24.5895,-119.736 L 23.1754,-122.741 L 21.3958,-125.545 L 19.2788,-128.104
 L 16.8578,-130.378 L 14.1709,-132.33 L 11.2605,-133.93 L 8.17249,-135.152 L 4.95561,-135.978 L 1.6606,-136.395
 L -1.6606,-136.395 L -4.95561,-135.978 L -8.17249,-135.152 L -11.2605,-133.93 L -14.1709,-132.33 L -16.8578,-130.378
 L -19.2788,-128.104 L -21.3958,-125.545 L -23.1754,-122.741 L -24.5895,-119.736 L -25.6158,-116.577 L -26.2382,-113.315
 L -26.4467,-110 L -26.2382,-106.685 L -25.6158,-103.423 L -24.5895,-100.264 L -23.1754,-97.2592 L -21.3958,-94.455
 L -19.2788,-91.896 L -16.8578,-89.6225 L -14.1709,-87.6703 L -11.2605,-86.0703 L -8.17249,-84.8477 L -4.95561,-84.0217
 L -1.6606,-83.6055 L 1.6606,-83.6055 z
M -0.18837,-122.006 L -0.562134,-122.053 L -0.927048,-122.147 L -1.27733,-122.286 L -1.60747,-122.467 L -1.91226,-122.688
 L -2.1869,-122.946 L -2.42705,-123.237 L -2.62891,-123.555 L -2.78932,-123.896 L -2.90575,-124.254 L -2.97633,-124.624
 L -3,-125 L -2.97633,-125.376 L -2.90575,-125.746 L -2.78932,-126.104 L -2.62891,-126.445 L -2.42705,-126.763
 L -2.1869,-127.054 L -1.91226,-127.312 L -1.60747,-127.533 L -1.27733,-127.714 L -0.927048,-127.853 L -0.562134,-127.947
 L -0.18837,-127.994 L 0.18837,-127.994 L 0.562134,-127.947 L 0.927048,-127.853 L 1.27733,-127.714 L 1.60747,-127.533
 L 1.91226,-127.312 L 2.1869,-127.054 L 2.42705,-126.763 L 2.62891,-126.445 L 2.78932,-126.104 L 2.90575,-125.746
 L 2.97633,-125.376 L 3,-125 L 2.97633,-124.624 L 2.90575,-124.254 L 2.78932,-123.896 L 2.62891,-123.555
 L 2.42705,-123.237 L 2.1869,-122.946 L 1.91226,-122.688 L 1.60747,-122.467 L 1.27733,-122.286 L 0.927048,-122.147
 L 0.562134,-122.053 L 0.18837,-122.006 z
M 8.9337,-117.709 L 7.26039,-120.607 L 8.93369,-123.505 L 12.2803,-123.505 L 13.9536,-120.607 L 12.2803,-117.709
 z
M -10.8571,-119.128 L -11.0405,-119.171 L -11.2171,-119.237 L -11.384,-119.324 L -11.5387,-119.431 L -11.6787,-119.557
 L -11.8018,-119.7 L -11.906,-119.857 L -11.9898,-120.026 L -12.0517,-120.204 L -12.0909,-120.388 L -12.1067,-120.576
 L -12.0988,-120.764 L -12.0674,-120.95 L -12.0129,-121.13 L -11.9363,-121.302 L -11.8387,-121.463 L -11.7217,-121.611
 L -11.5871,-121.742 L -11.4371,-121.856 L -11.2739,-121.951 L -11.1003,-122.024 L -10.9189,-122.074 L -10.7325,-122.102
 L -10.5442,-122.106 L -10.3568,-122.086 L -10.1734,-122.043 L -9.99689,-121.977 L -9.82996,-121.89 L -9.67528,-121.783
 L -9.53528,-121.656 L -9.4122,-121.514 L -9.30795,-121.357 L -9.2242,-121.188 L -9.16225,-121.01 L -9.12308,-120.826
 L -9.10732,-120.638 L -9.1152,-120.45 L -9.14662,-120.264 L -9.20107,-120.084 L -9.27768,-119.912 L -9.37527,-119.751
 L -9.49228,-119.603 L -9.62686,-119.471 L -9.7769,-119.358 L -9.94003,-119.263 L -10.1137,-119.19 L -10.2951,-119.14
 L -10.4815,-119.112 L -10.6698,-119.108 z
M -0.0941772,-101.003 L -0.281067,-101.027 L -0.463516,-101.073 L -0.638657,-101.143 L -0.803726,-101.234 L -0.956131,-101.344
 L -1.09344,-101.473 L -1.19904,-101.601 L -1.59273,-101.651 L -2.62663,-101.916 L -3.61911,-102.309 L -4.55452,-102.823
 L -5.41809,-103.451 L -6.19623,-104.181 L -6.87663,-105.004 L -7.44859,-105.905 L -7.90309,-106.871 L -8.23296,-107.886
 L -8.40921,-108.81 L -8.45613,-108.844 L -8.59344,-108.973 L -8.71352,-109.118 L -8.81445,-109.277 L -8.89465,-109.448
 L -8.95287,-109.627 L -8.98816,-109.812 L -9,-110 L -8.98816,-110.188 L -8.95287,-110.373 L -8.89465,-110.552
 L -8.81445,-110.723 L -8.71352,-110.882 L -8.59344,-111.027 L -8.45613,-111.156 L -8.40921,-111.19 L -8.23296,-112.114
 L -7.90309,-113.129 L -7.44859,-114.095 L -6.87663,-114.996 L -6.19623,-115.819 L -5.41809,-116.549 L -4.55452,-117.177
 L -3.61911,-117.691 L -2.62663,-118.084 L -1.59273,-118.349 L -1.19904,-118.399 L -1.09344,-118.527 L -0.956131,-118.656
 L -0.803726,-118.766 L -0.638657,-118.857 L -0.463516,-118.927 L -0.281067,-118.973 L -0.0941772,-118.997 L 0.0941772,-118.997
 L 0.281067,-118.973 L 0.463516,-118.927 L 0.638657,-118.857 L 0.803726,-118.766 L 0.956131,-118.656 L 1.09344,-118.527
 L 1.19904,-118.399 L 1.59273,-118.349 L 2.62663,-118.084 L 3.61911,-117.691 L 4.55452,-117.177 L 5.41809,-116.549
 L 6.19623,-115.819 L 6.87663,-114.996 L 7.44859,-114.095 L 7.90309,-113.129 L 8.23296,-112.114 L 8.40921,-111.19
 L 8.45613,-111.156 L 8.59344,-111.027 L 8.71352,-110.882 L 8.81445,-110.723 L 8.89465,-110.552 L 8.95287,-110.373
 L 8.98816,-110.188 L 9,-110 L 8.98816,-109.812 L 8.95287,-109.627 L 8.89465,-109.448 L 8.81445,-109.277
 L 8.71352,-109.118 L 8.59344,-108.973 L 8.45613,-108.844 L 8.40921,-108.81 L 8.23296,-107.886 L 7.90309,-106.871
 L 7.44859,-105.905 L 6.87663,-105.004 L 6.19623,-104.181 L 5.41809,-103.451 L 4.55452,-102.823 L 3.61911,-102.309
 L 2.62663,-101.916 L 1.59273,-101.651 L 1.19904,-101.601 L 1.09344,-101.473 L 0.956131,-101.344 L 0.803726,-101.234
 L 0.638657,-101.143 L 0.463516,-101.073 L 0.281067,-101.027 L 0.0941772,-101.003 z
M 14.8116,-107.006 L 14.4379,-107.053 L 14.0729,-107.147 L 13.7227,-107.286 L 13.3925,-107.467 L 13.0877,-107.688
 L 12.8131,-107.946 L 12.5729,-108.237 L 12.3711,-108.555 L 12.2107,-108.896 L 12.0942,-109.254 L 12.0237,-109.624
 L 12,-110 L 12.0237,-110.376 L 12.0942,-110.746 L 12.2107,-111.104 L 12.3711,-111.445 L 12.5729,-111.763
 L 12.8131,-112.054 L 13.0877,-112.312 L 13.3925,-112.533 L 13.7227,-112.714 L 14.0729,-112.853 L 14.4379,-112.947
 L 14.8116,-112.994 L 15.1884,-112.994 L 15.5621,-112.947 L 15.927,-112.853 L 16.2773,-112.714 L 16.6075,-112.533
 L 16.9123,-112.312 L 17.1869,-112.054 L 17.427,-111.763 L 17.6289,-111.445 L 17.7893,-111.104 L 17.9057,-110.746
 L 17.9763,-110.376 L 18,-110 L 17.9763,-109.624 L 17.9057,-109.254 L 17.7893,-108.896 L 17.6289,-108.555
 L 17.427,-108.237 L 17.1869,-107.946 L 16.9123,-107.688 L 16.6075,-107.467 L 16.2773,-107.286 L 15.927,-107.147
 L 15.5621,-107.053 L 15.1884,-107.006 z
M -15.1884,-107.006 L -15.5621,-107.053 L -15.927,-107.147 L -16.2773,-107.286 L -16.6075,-107.467 L -16.9123,-107.688
 L -17.1869,-107.946 L -17.427,-108.237 L -17.6289,-108.555 L -17.7893,-108.896 L -17.9057,-109.254 L -17.9763,-109.624
 L -18,-110 L -17.9763,-110.376 L -17.9057,-110.746 L -17.7893,-111.104 L -17.6289,-111.445 L -17.427,-111.763
 L -17.1869,-112.054 L -16.9123,-112.312 L -16.6075,-112.533 L -16.2773,-112.714 L -15.927,-112.853 L -15.5621,-112.947
 L -15.1884,-112.994 L -14.8116,-112.994 L -14.4379,-112.947 L -14.0729,-112.853 L -13.7227,-112.714 L -13.3925,-112.533
 L -13.0877,-112.312 L -12.8131,-112.054 L -12.5729,-111.763 L -12.3711,-111.445 L -12.2107,-111.104 L -12.0942,-110.746
 L -12.0237,-110.376 L -12,-110 L -12.0237,-109.624 L -12.0942,-109.254 L -12.2107,-108.896 L -12.3711,-108.555
 L -12.5729,-108.237 L -12.8131,-107.946 L -13.0877,-107.688 L -13.3925,-107.467 L -13.7227,-107.286 L -14.0729,-107.147
 L -14.4379,-107.053 L -14.8116,-107.006 z
M -12.2803,-96.4948 L -13.9536,-99.393 L -12.2803,-102.291 L -8.9337,-102.291 L -7.26039,-99.393 L -8.93369,-96.4948
 z
M 10.3568,-97.914 L 10.1734,-97.957 L 9.99689,-98.0227 L 9.82996,-98.11 L 9.67528,-98.2175 L 9.53528,-98.3435
 L 9.4122,-98.4861 L 9.30795,-98.643 L 9.2242,-98.8117 L 9.16225,-98.9896 L 9.12308,-99.1739 L 9.10732,-99.3616
 L 9.1152,-99.5498 L 9.14662,-99.7355 L 9.20107,-99.9159 L 9.27768,-100.088 L 9.37527,-100.249 L 9.49228,-100.397
 L 9.62686,-100.529 L 9.7769,-100.642 L 9.94003,-100.737 L 10.1137,-100.81 L 10.2951,-100.86 L 10.4815,-100.888
 L 10.6698,-100.892 L 10.8571,-100.872 L 11.0405,-100.829 L 11.2171,-100.763 L 11.384,-100.676 L 11.5387,-100.569
 L 11.6787,-100.443 L 11.8018,-100.3 L 11.906,-100.143 L 11.9898,-99.9743 L 12.0517,-99.7964 L 12.0909,-99.6121
 L 12.1067,-99.4244 L 12.0988,-99.2362 L 12.0674,-99.0505 L 12.0129,-98.8701 L 11.9363,-98.6981 L 11.8387,-98.5369
 L 11.7217,-98.3893 L 11.5871,-98.2575 L 11.4371,-98.1436 L 11.2739,-98.0494 L 11.1003,-97.9764 L 10.9189,-97.9258
 L 10.7325,-97.8983 L 10.5442,-97.8943 z
M -0.18837,-92.0059 L -0.562134,-92.0531 L -0.927048,-92.1468 L -1.27733,-92.2855 L -1.60747,-92.467 L -1.91226,-92.6885
 L -2.1869,-92.9464 L -2.42705,-93.2366 L -2.62891,-93.5547 L -2.78932,-93.8956 L -2.90575,-94.2539 L -2.97633,-94.624
 L -3,-95 L -2.97633,-95.376 L -2.90575,-95.7461 L -2.78932,-96.1044 L -2.62891,-96.4453 L -2.42705,-96.7634
 L -2.1869,-97.0536 L -1.91226,-97.3116 L -1.60747,-97.533 L -1.27733,-97.7145 L -0.927048,-97.8532 L -0.562134,-97.9469
 L -0.18837,-97.9941 L 0.18837,-97.9941 L 0.562134,-97.9469 L 0.927048,-97.8532 L 1.27733,-97.7145 L 1.60747,-97.533
 L 1.91226,-97.3116 L 2.1869,-97.0536 L 2.42705,-96.7634 L 2.62891,-96.4453 L 2.78932,-96.1044 L 2.90575,-95.7461
 L 2.97633,-95.376 L 3,-95 L 2.97633,-94.624 L 2.90575,-94.2539 L 2.78932,-93.8956 L 2.62891,-93.5547
 L 2.42705,-93.2366 L 2.1869,-92.9464 L 1.91226,-92.6885 L 1.60747,-92.467 L 1.27733,-92.2855 L 0.927048,-92.1468
 L 0.562134,-92.0531 L 0.18837,-92.0059 z
M 4.9425,25.9096 L 8.15088,25.0858 L 11.2307,23.8664 L 14.1334,22.2707 L 16.8132,20.3237 L 19.2279,18.0562
 L 21.3393,15.5039 L 23.1142,12.7071 L 24.5245,9.70995 L 25.5481,6.55963 L 26.1688,3.30588 L 26.3768,-0
 L 26.1688,-3.30588 L 25.5481,-6.55963 L 24.5245,-9.70995 L 23.1142,-12.7071 L 21.3393,-15.5039 L 19.2279,-18.0562
 L 16.8132,-20.3237 L 14.1334,-22.2707 L 11.2307,-23.8664 L 8.15088,-25.0858 L 4.9425,-25.9096 L 1.6562,-26.3248
 L -1.6562,-26.3248 L -4.9425,-25.9096 L -8.15088,-25.0858 L -11.2307,-23.8664 L -14.1334,-22.2707 L -16.8132,-20.3237
 L -19.2279,-18.0562 L -21.3393,-15.5039 L -23.1142,-12.7071 L -24.5245,-9.70995 L -25.5481,-6.55963 L -26.1688,-3.30588
 L -26.3768,-0 L -26.1688,3.30588 L -25.5481,6.55963 L -24.5245,9.70995 L -23.1142,12.7071 L -21.3393,15.5039
 L -19.2279,18.0562 L -16.8132,20.3237 L -14.1334,22.2707 L -11.2307,23.8664 L -8.15088,25.0858 L -4.9425,25.9096
 L -1.6562,26.3248 L 1.6562,26.3248 z
M -0.18837,-12.0059 L -0.562134,-12.0531 L -0.927048,-12.1468 L -1.27733,-12.2855 L -1.60747,-12.467 L -1.91226,-12.6884
 L -2.1869,-12.9464 L -2.42705,-13.2366 L -2.62891,-13.5547 L -2.78932,-13.8956 L -2.90575,-14.2539 L -2.97633,-14.624
 L -3,-15 L -2.97633,-15.376 L -2.90575,-15.7461 L -2.78932,-16.1044 L -2.62891,-16.4453 L -2.42705,-16.7634
 L -2.1869,-17.0536 L -1.91226,-17.3115 L -1.60747,-17.533 L -1.27733,-17.7145 L -0.927048,-17.8532 L -0.562134,-17.9469
 L -0.18837,-17.9941 L 0.18837,-17.9941 L 0.562134,-17.9469 L 0.927048,-17.8532 L 1.27733,-17.7145 L 1.60747,-17.533
 L 1.91226,-17.3115 L 2.1869,-17.0536 L 2.42705,-16.7634 L 2.62891,-16.4453 L 2.78932,-16.1044 L 2.90575,-15.7461
 L 2.97633,-15.376 L 3,-15 L 2.97633,-14.624 L 2.90575,-14.2539 L 2.78932,-13.8956 L 2.62891,-13.5547
 L 2.42705,-13.2366 L 2.1869,-12.9464 L 1.91226,-12.6884 L 1.60747,-12.467 L 1.27733,-12.2855 L 0.927048,-12.1468
 L 0.562134,-12.0531 L 0.18837,-12.0059 z
M -11.0072,-8.2406 L -11.3007,-8.30943 L -11.5832,-8.41449 L -11.8503,-8.55412 L -12.0977,-8.72614 L -12.3217,-8.9278
 L -12.5187,-9.15596 L -12.6855,-9.407 L -12.8195,-9.67696 L -12.9186,-9.96158 L -12.9812,-10.2564 L -13.0065,-10.5567
 L -12.9939,-10.8579 L -12.9436,-11.155 L -12.8565,-11.4436 L -12.7339,-11.7189 L -12.5777,-11.9767 L -12.3905,-12.2129
 L -12.1752,-12.4238 L -11.9351,-12.606 L -11.6741,-12.7567 L -11.3963,-12.8735 L -11.106,-12.9545 L -10.8078,-12.9986
 L -10.5065,-13.0049 L -10.2067,-12.9734 L -9.91331,-12.9046 L -9.63083,-12.7995 L -9.36372,-12.6599 L -9.11624,-12.4879
 L -8.89226,-12.2862 L -8.69533,-12.058 L -8.52853,-11.807 L -8.39452,-11.537 L -8.29539,-11.2524 L -8.23274,-10.9576
 L -8.20752,-10.6573 L -8.22014,-10.3561 L -8.2704,-10.0589 L -8.35751,-9.77042 L -8.4801,-9.49509 L -8.63623,-9.23727
 L -8.82344,-9.00108 L -9.03879,-8.79021 L -9.27885,-8.60799 L -9.53987,-8.45729 L -9.81772,-8.34048 L -10.108,-8.25945
 L -10.4062,-8.21541 L -10.7075,-8.20909 z
M 10.2067,-8.2406 L 9.91331,-8.30943 L 9.63083,-8.41449 L 9.36372,-8.55412 L 9.11624,-8.72614 L 8.89226,-8.9278
 L 8.69533,-9.15596 L 8.52853,-9.407 L 8.39452,-9.67696 L 8.29539,-9.96158 L 8.23274,-10.2564 L 8.20752,-10.5567
 L 8.22014,-10.8579 L 8.2704,-11.155 L 8.35751,-11.4436 L 8.4801,-11.7189 L 8.63623,-11.9767 L 8.82344,-12.2129
 L 9.03879,-12.4238 L 9.27885,-12.606 L 9.53987,-12.7567 L 9.81772,-12.8735 L 10.108,-12.9545 L 10.4062,-12.9986
 L 10.7075,-13.0049 L 11.0072,-12.9734 L 11.3007,-12.9046 L 11.5832,-12.7995 L 11.8503,-12.6599 L 12.0977,-12.4879
 L 12.3217,-12.2862 L 12.5187,-12.058 L 12.6855,-11.807 L 12.8195,-11.537 L 12.9186,-11.2524 L 12.9812,-10.9576
 L 13.0065,-10.6573 L 12.9939,-10.3561 L 12.9436,-10.0589 L 12.8565,-9.77042 L 12.7339,-9.49509 L 12.5777,-9.23727
 L 12.3905,-9.00108 L 12.1752,-8.79021 L 11.9351,-8.60799 L 11.6741,-8.45729 L 11.3963,-8.34048 L 11.106,-8.25945
 L 10.8078,-8.21541 L 10.5065,-8.20909 z
M -0.0941772,8.99704 L -0.281067,8.97342 L -0.463516,8.92657 L -0.638657,8.85724 L -0.803726,8.76648 L -0.956131,8.65576
 L -1.09344,8.52681 L -1.19904,8.39917 L -1.59273,8.34944 L -2.62663,8.08397 L -3.61911,7.69102 L -4.55452,7.17677
 L -5.41809,6.54936 L -6.19623,5.81865 L -6.87663,4.99617 L -7.44859,4.09489 L -7.90309,3.12904 L -8.23296,2.11386
 L -8.40921,1.18985 L -8.45613,1.15576 L -8.59344,1.02681 L -8.71352,0.881668 L -8.81445,0.722626 L -8.89465,0.552185
 L -8.95287,0.373032 L -8.98816,0.187988 L -9,-0 L -8.98816,-0.187988 L -8.95287,-0.373032 L -8.89465,-0.552185
 L -8.81445,-0.722626 L -8.71352,-0.881668 L -8.59344,-1.02681 L -8.45613,-1.15576 L -8.40921,-1.18985 L -8.23296,-2.11386
 L -7.90309,-3.12904 L -7.44859,-4.09489 L -6.87663,-4.99617 L -6.19623,-5.81865 L -5.41809,-6.54936 L -4.55452,-7.17677
 L -3.61911,-7.69102 L -2.62663,-8.08397 L -1.59273,-8.34944 L -1.19904,-8.39917 L -1.09344,-8.52681 L -0.956131,-8.65576
 L -0.803726,-8.76648 L -0.638657,-8.85724 L -0.463516,-8.92657 L -0.281067,-8.97342 L -0.0941772,-8.99704 L 0.0941772,-8.99704
 L 0.281067,-8.97342 L 0.463516,-8.92657 L 0.638657,-8.85724 L 0.803726,-8.76648 L 0.956131,-8.65576 L 1.09344,-8.52681
 L 1.19904,-8.39917 L 1.59273,-8.34944 L 2.62663,-8.08397 L 3.61911,-7.69102 L 4.55452,-7.17677 L 5.41809,-6.54936
 L 6.19623,-5.81865 L 6.87663,-4.99617 L 7.44859,-4.09489 L 7.90309,-3.12904 L 8.23296,-2.11386 L 8.40921,-1.18985
 L 8.45613,-1.15576 L 8.59344,-1.02681 L 8.71352,-0.881668 L 8.81445,-0.722626 L 8.89465,-0.552185 L 8.95287,-0.373032
 L 8.98816,-0.187988 L 9,-0 L 8.98816,0.187988 L 8.95287,0.373032 L 8.89465,0.552185 L 8.81445,0.722626
 L 8.71352,0.881668 L 8.59344,1.02681 L 8.45613,1.15576 L 8.40921,1.18985 L 8.23296,2.11386 L 7.90309,3.12904
 L 7.44859,4.09489 L 6.87663,4.99617 L 6.19623,5.81865 L 5.41809,6.54936 L 4.55452,7.17677 L 3.61911,7.69102
 L 2.62663,8.08397 L 1.59273,8.34944 L 1.19904,8.39917 L 1.09344,8.52681 L 0.956131,8.65576 L 0.803726,8.76648
 L 0.638657,8.85724 L 0.463516,8.92657 L 0.281067,8.97342 L 0.0941772,8.99704 z
M -15.1884,2.99408 L -15.5621,2.94685 L -15.927,2.85316 L -16.2773,2.71448 L -16.6075,2.53297 L -16.9123,2.31154
 L -17.1869,2.05363 L -17.427,1.76335 L -17.6289,1.44525 L -17.7893,1.10437 L -17.9057,0.746063 L -17.9763,0.375992
 L -18,-0 L -17.9763,-0.375992 L -17.9057,-0.746063 L -17.7893,-1.10437 L -17.6289,-1.44525 L -17.427,-1.76335
 L -17.1869,-2.05363 L -16.9123,-2.31154 L -16.6075,-2.53297 L -16.2773,-2.71448 L -15.927,-2.85316 L -15.5621,-2.94685
 L -15.1884,-2.99408 L -14.8116,-2.99408 L -14.4379,-2.94685 L -14.0729,-2.85316 L -13.7227,-2.71448 L -13.3925,-2.53297
 L -13.0877,-2.31154 L -12.8131,-2.05363 L -12.5729,-1.76335 L -12.3711,-1.44525 L -12.2107,-1.10437 L -12.0942,-0.746063
 L -12.0237,-0.375992 L -12,-0 L -12.0237,0.375992 L -12.0942,0.746063 L -12.2107,1.10437 L -12.3711,1.44525
 L -12.5729,1.76335 L -12.8131,2.05363 L -13.0877,2.31154 L -13.3925,2.53297 L -13.7227,2.71448 L -14.0729,2.85316
 L -14.4379,2.94685 L -14.8116,2.99408 z
M 14.8116,2.99408 L 14.4379,2.94685 L 14.0729,2.85316 L 13.7227,2.71448 L 13.3925,2.53297 L 13.0877,2.31154
 L 12.8131,2.05363 L 12.5729,1.76335 L 12.3711,1.44525 L 12.2107,1.10437 L 12.0942,0.746063 L 12.0237,0.375992
 L 12,-0 L 12.0237,-0.375992 L 12.0942,-0.746063 L 12.2107,-1.10437 L 12.3711,-1.44525 L 12.5729,-1.76335
 L 12.8131,-2.05363 L 13.0877,-2.31154 L 13.3925,-2.53297 L 13.7227,-2.71448 L 14.0729,-2.85316 L 14.4379,-2.94685
 L 14.8116,-2.99408 L 15.1884,-2.99408 L 15.5621,-2.94685 L 15.927,-2.85316 L 16.2773,-2.71448 L 16.6075,-2.53297
 L 16.9123,-2.31154 L 17.1869,-2.05363 L 17.427,-1.76335 L 17.6289,-1.44525 L 17.7893,-1.10437 L 17.9057,-0.746063
 L 17.9763,-0.375992 L 18,-0 L 17.9763,0.375992 L 17.9057,0.746063 L 17.7893,1.10437 L 17.6289,1.44525
 L 17.427,1.76335 L 17.1869,2.05363 L 16.9123,2.31154 L 16.6075,2.53297 L 16.2773,2.71448 L 15.927,2.85316
 L 15.5621,2.94685 L 15.1884,2.99408 z
M -11.0072,12.9734 L -11.3007,12.9046 L -11.5832,12.7995 L -11.8503,12.6599 L -12.0977,12.4879 L -12.3217,12.2862
 L -12.5187,12.058 L -12.6855,11.807 L -12.8195,11.537 L -12.9186,11.2524 L -12.9812,10.9576 L -13.0065,10.6573
 L -12.9939,10.3561 L -12.9436,10.0589 L -12.8565,9.77042 L -12.7339,9.49509 L -12.5777,9.23727 L -12.3905,9.00108
 L -12.1752,8.79021 L -11.9351,8.60799 L -11.6741,8.45729 L -11.3963,8.34048 L -11.106,8.25945 L -10.8078,8.21541
 L -10.5065,8.20909 L -10.2067,8.2406 L -9.91331,8.30943 L -9.63083,8.41449 L -9.36372,8.55412 L -9.11624,8.72614
 L -8.89226,8.9278 L -8.69533,9.15596 L -8.52853,9.407 L -8.39452,9.67696 L -8.29539,9.96158 L -8.23274,10.2564
 L -8.20752,10.5567 L -8.22014,10.8579 L -8.2704,11.155 L -8.35751,11.4436 L -8.4801,11.7189 L -8.63623,11.9767
 L -8.82344,12.2129 L -9.03879,12.4238 L -9.27885,12.606 L -9.53987,12.7567 L -9.81772,12.8735 L -10.108,12.9545
 L -10.4062,12.9986 L -10.7075,13.0049 z
M 10.2067,12.9734 L 9.91331,12.9046 L 9.63083,12.7995 L 9.36372,12.6599 L 9.11624,12.4879 L 8.89226,12.2862
 L 8.69533,12.058 L 8.52853,11.807 L 8.39452,11.537 L 8.29539,11.2524 L 8.23274,10.9576 L 8.20752,10.6573
 L 8.22014,10.3561 L 8.2704,10.0589 L 8.35751,9.77042 L 8.4801,9.49509 L 8.63623,9.23727 L 8.82344,9.00108
 L 9.03879,8.79021 L 9.27885,8.60799 L 9.53987,8.45729 L 9.81772,8.34048 L 10.108,8.25945 L 10.4062,8.21541
 L 10.7075,8.20909 L 11.0072,8.2406 L 11.3007,8.30943 L 11.5832,8.41449 L 11.8503,8.55412 L 12.0977,8.72614
 L 12.3217,8.9278 L 12.5187,9.15596 L 12.6855,9.407 L 12.8195,9.67696 L 12.9186,9.96158 L 12.9812,10.2564
 L 13.0065,10.5567 L 12.9939,10.8579 L 12.9436,11.155 L 12.8565,11.4436 L 12.7339,11.7189 L 12.5777,11.9767
 L 12.3905,12.2129 L 12.1752,12.4238 L 11.9351,12.606 L 11.6741,12.7567 L 11.3963,12.8735 L 11.106,12.9545
 L 10.8078,12.9986 L 10.5065,13.0049 z
M -0.18837,17.9941 L -0.562134,17.9469 L -0.927048,17.8532 L -1.27733,17.7145 L -1.60747,17.533 L -1.91226,17.3115
 L -2.1869,17.0536 L -2.42705,16.7634 L -2.62891,16.4453 L -2.78932,16.1044 L -2.90575,15.7461 L -2.97633,15.376
 L -3,15 L -2.97633,14.624 L -2.90575,14.2539 L -2.78932,13.8956 L -2.62891,13.5547 L -2.42705,13.2366
 L -2.1869,12.9464 L -1.91226,12.6884 L -1.60747,12.467 L -1.27733,12.2855 L -0.927048,12.1468 L -0.562134,12.0531
 L -0.18837,12.0059 L 0.18837,12.0059 L 0.562134,12.0531 L 0.927048,12.1468 L 1.27733,12.2855 L 1.60747,12.467
 L 1.91226,12.6884 L 2.1869,12.9464 L 2.42705,13.2366 L 2.62891,13.5547 L 2.78932,13.8956 L 2.90575,14.2539
 L 2.97633,14.624 L 3,15 L 2.97633,15.376 L 2.90575,15.7461 L 2.78932,16.1044 L 2.62891,16.4453
 L 2.42705,16.7634 L 2.1869,17.0536 L 1.91226,17.3115 L 1.60747,17.533 L 1.27733,17.7145 L 0.927048,17.8532
 L 0.562134,17.9469 L 0.18837,17.9941 z
" stroke="black" fill="lightgray" stroke-width="0.5"/>
</svg>
