  0
SECTION
  2
BLOCKS
  0
ENDSEC
  0
SECTION
  2
ENTITIES
  0
LINE
  8
0
 10
17.9369
 20
140.089
 11
18.5451
 21
140.245
  0
LINE
  8
0
 10
18.5451
 20
140.245
 11
19.1289
 21
140.476
  0
LINE
  8
0
 10
19.1289
 20
140.476
 11
19.6791
 21
140.778
  0
LINE
  8
0
 10
19.6791
 20
140.778
 11
20.1871
 21
141.147
  0
LINE
  8
0
 10
20.1871
 20
141.147
 11
20.6448
 21
141.577
  0
LINE
  8
0
 10
20.6448
 20
141.577
 11
21.0451
 21
142.061
  0
LINE
  8
0
 10
21.0451
 20
142.061
 11
21.3815
 21
142.591
  0
LINE
  8
0
 10
21.3815
 20
142.591
 11
21.6489
 21
143.159
  0
LINE
  8
0
 10
21.6489
 20
143.159
 11
21.8429
 21
143.757
  0
LINE
  8
0
 10
21.8429
 20
143.757
 11
21.9606
 21
144.373
  0
LINE
  8
0
 10
21.9606
 20
144.373
 11
22
 21
145
  0
LINE
  8
0
 10
22
 20
145
 11
22
 21
179
  0
LINE
  8
0
 10
22
 20
179
 11
21.9606
 21
179.627
  0
LINE
  8
0
 10
21.9606
 20
179.627
 11
21.8429
 21
180.243
  0
LINE
  8
0
 10
21.8429
 20
180.243
 11
21.6489
 21
180.841
  0
LINE
  8
0
 10
21.6489
 20
180.841
 11
21.3815
 21
181.409
  0
LINE
  8
0
 10
21.3815
 20
181.409
 11
21.0451
 21
181.939
  0
LINE
  8
0
 10
21.0451
 20
181.939
 11
20.6448
 21
182.423
  0
LINE
  8
0
 10
20.6448
 20
182.423
 11
20.1871
 21
182.853
  0
LINE
  8
0
 10
20.1871
 20
182.853
 11
19.6791
 21
183.222
  0
LINE
  8
0
 10
19.6791
 20
183.222
 11
19.1289
 21
183.524
  0
LINE
  8
0
 10
19.1289
 20
183.524
 11
18.5451
 21
183.755
  0
LINE
  8
0
 10
18.5451
 20
183.755
 11
17.9369
 21
183.911
  0
LINE
  8
0
 10
17.9369
 20
183.911
 11
17.3139
 21
183.99
  0
LINE
  8
0
 10
17.3139
 20
183.99
 11
-17.3139
 21
183.99
  0
LINE
  8
0
 10
-17.3139
 20
183.99
 11
-17.9369
 21
183.911
  0
LINE
  8
0
 10
-17.9369
 20
183.911
 11
-18.5451
 21
183.755
  0
LINE
  8
0
 10
-18.5451
 20
183.755
 11
-19.1289
 21
183.524
  0
LINE
  8
0
 10
-19.1289
 20
183.524
 11
-19.6791
 21
183.222
  0
LINE
  8
0
 10
-19.6791
 20
183.222
 11
-20.1871
 21
182.853
  0
LINE
  8
0
 10
-20.1871
 20
182.853
 11
-20.6448
 21
182.423
  0
LINE
  8
0
 10
-20.6448
 20
182.423
 11
-21.0451
 21
181.939
  0
LINE
  8
0
 10
-21.0451
 20
181.939
 11
-21.3815
 21
181.409
  0
LINE
  8
0
 10
-21.3815
 20
181.409
 11
-21.6489
 21
180.841
  0
LINE
  8
0
 10
-21.6489
 20
180.841
 11
-21.8429
 21
180.243
  0
LINE
  8
0
 10
-21.8429
 20
180.243
 11
-21.9606
 21
179.627
  0
LINE
  8
0
 10
-21.9606
 20
179.627
 11
-22
 21
179
  0
LINE
  8
0
 10
-22
 20
179
 11
-22
 21
145
  0
LINE
  8
0
 10
-22
 20
145
 11
-21.9606
 21
144.373
  0
LINE
  8
0
 10
-21.9606
 20
144.373
 11
-21.8429
 21
143.757
  0
LINE
  8
0
 10
-21.8429
 20
143.757
 11
-21.6489
 21
143.159
  0
LINE
  8
0
 10
-21.6489
 20
143.159
 11
-21.3815
 21
142.591
  0
LINE
  8
0
 10
-21.3815
 20
142.591
 11
-21.0451
 21
142.061
  0
LINE
  8
0
 10
-21.0451
 20
142.061
 11
-20.6448
 21
141.577
  0
LINE
  8
0
 10
-20.6448
 20
141.577
 11
-20.1871
 21
141.147
  0
LINE
  8
0
 10
-20.1871
 20
141.147
 11
-19.6791
 21
140.778
  0
LINE
  8
0
 10
-19.6791
 20
140.778
 11
-19.1289
 21
140.476
  0
LINE
  8
0
 10
-19.1289
 20
140.476
 11
-18.5451
 21
140.245
  0
LINE
  8
0
 10
-18.5451
 20
140.245
 11
-17.9369
 21
140.089
  0
LINE
  8
0
 10
-17.9369
 20
140.089
 11
-17.3139
 21
140.01
  0
LINE
  8
0
 10
-17.3139
 20
140.01
 11
17.3139
 21
140.01
  0
LINE
  8
0
 10
17.3139
 20
140.01
 11
17.9369
 21
140.089
  0
LINE
  8
0
 10
-15.2484
 20
143.052
 11
-15.7412
 21
143.114
  0
LINE
  8
0
 10
-15.7412
 20
143.114
 11
-16.2224
 21
143.238
  0
LINE
  8
0
 10
-16.2224
 20
143.238
 11
-16.6842
 21
143.421
  0
LINE
  8
0
 10
-16.6842
 20
143.421
 11
-17.1195
 21
143.66
  0
LINE
  8
0
 10
-17.1195
 20
143.66
 11
-17.5214
 21
143.952
  0
LINE
  8
0
 10
-17.5214
 20
143.952
 11
-17.8835
 21
144.292
  0
LINE
  8
0
 10
-17.8835
 20
144.292
 11
-18.2001
 21
144.675
  0
LINE
  8
0
 10
-18.2001
 20
144.675
 11
-18.4663
 21
145.094
  0
LINE
  8
0
 10
-18.4663
 20
145.094
 11
-18.6778
 21
145.544
  0
LINE
  8
0
 10
-18.6778
 20
145.544
 11
-18.8313
 21
146.016
  0
LINE
  8
0
 10
-18.8313
 20
146.016
 11
-18.9244
 21
146.504
  0
LINE
  8
0
 10
-18.9244
 20
146.504
 11
-18.9556
 21
147
  0
LINE
  8
0
 10
-18.9556
 20
147
 11
-18.9556
 21
177
  0
LINE
  8
0
 10
-18.9556
 20
177
 11
-18.9244
 21
177.496
  0
LINE
  8
0
 10
-18.9244
 20
177.496
 11
-18.8313
 21
177.984
  0
LINE
  8
0
 10
-18.8313
 20
177.984
 11
-18.6778
 21
178.456
  0
LINE
  8
0
 10
-18.6778
 20
178.456
 11
-18.4663
 21
178.906
  0
LINE
  8
0
 10
-18.4663
 20
178.906
 11
-18.2001
 21
179.325
  0
LINE
  8
0
 10
-18.2001
 20
179.325
 11
-17.8835
 21
179.708
  0
LINE
  8
0
 10
-17.8835
 20
179.708
 11
-17.5214
 21
180.048
  0
LINE
  8
0
 10
-17.5214
 20
180.048
 11
-17.1195
 21
180.34
  0
LINE
  8
0
 10
-17.1195
 20
180.34
 11
-16.6842
 21
180.579
  0
LINE
  8
0
 10
-16.6842
 20
180.579
 11
-16.2224
 21
180.762
  0
LINE
  8
0
 10
-16.2224
 20
180.762
 11
-15.7412
 21
180.886
  0
LINE
  8
0
 10
-15.7412
 20
180.886
 11
-15.2484
 21
180.948
  0
LINE
  8
0
 10
-15.2484
 20
180.948
 11
15.2484
 21
180.948
  0
LINE
  8
0
 10
15.2484
 20
180.948
 11
15.7412
 21
180.886
  0
LINE
  8
0
 10
15.7412
 20
180.886
 11
16.2224
 21
180.762
  0
LINE
  8
0
 10
16.2224
 20
180.762
 11
16.6842
 21
180.579
  0
LINE
  8
0
 10
16.6842
 20
180.579
 11
17.1195
 21
180.34
  0
LINE
  8
0
 10
17.1195
 20
180.34
 11
17.5214
 21
180.048
  0
LINE
  8
0
 10
17.5214
 20
180.048
 11
17.8835
 21
179.708
  0
LINE
  8
0
 10
17.8835
 20
179.708
 11
18.2001
 21
179.325
  0
LINE
  8
0
 10
18.2001
 20
179.325
 11
18.4663
 21
178.906
  0
LINE
  8
0
 10
18.4663
 20
178.906
 11
18.6778
 21
178.456
  0
LINE
  8
0
 10
18.6778
 20
178.456
 11
18.8313
 21
177.984
  0
LINE
  8
0
 10
18.8313
 20
177.984
 11
18.9244
 21
177.496
  0
LINE
  8
0
 10
18.9244
 20
177.496
 11
18.9556
 21
177
  0
LINE
  8
0
 10
18.9556
 20
177
 11
18.9556
 21
147
  0
LINE
  8
0
 10
18.9556
 20
147
 11
18.9244
 21
146.504
  0
LINE
  8
0
 10
18.9244
 20
146.504
 11
18.8313
 21
146.016
  0
LINE
  8
0
 10
18.8313
 20
146.016
 11
18.6778
 21
145.544
  0
LINE
  8
0
 10
18.6778
 20
145.544
 11
18.4663
 21
145.094
  0
LINE
  8
0
 10
18.4663
 20
145.094
 11
18.2001
 21
144.675
  0
LINE
  8
0
 10
18.2001
 20
144.675
 11
17.8835
 21
144.292
  0
LINE
  8
0
 10
17.8835
 20
144.292
 11
17.5214
 21
143.952
  0
LINE
  8
0
 10
17.5214
 20
143.952
 11
17.1195
 21
143.66
  0
LINE
  8
0
 10
17.1195
 20
143.66
 11
16.6842
 21
143.421
  0
LINE
  8
0
 10
16.6842
 20
143.421
 11
16.2224
 21
143.238
  0
LINE
  8
0
 10
16.2224
 20
143.238
 11
15.7412
 21
143.114
  0
LINE
  8
0
 10
15.7412
 20
143.114
 11
15.2484
 21
143.052
  0
LINE
  8
0
 10
15.2484
 20
143.052
 11
-15.2484
 21
143.052
  0
LINE
  8
0
 10
17.9369
 20
86.0886
 11
18.5451
 21
86.2447
  0
LINE
  8
0
 10
18.5451
 20
86.2447
 11
19.1289
 21
86.4759
  0
LINE
  8
0
 10
19.1289
 20
86.4759
 11
19.6791
 21
86.7784
  0
LINE
  8
0
 10
19.6791
 20
86.7784
 11
20.1871
 21
87.1474
  0
LINE
  8
0
 10
20.1871
 20
87.1474
 11
20.6448
 21
87.5773
  0
LINE
  8
0
 10
20.6448
 20
87.5773
 11
21.0451
 21
88.0611
  0
LINE
  8
0
 10
21.0451
 20
88.0611
 11
21.3815
 21
88.5912
  0
LINE
  8
0
 10
21.3815
 20
88.5912
 11
21.6489
 21
89.1594
  0
LINE
  8
0
 10
21.6489
 20
89.1594
 11
21.8429
 21
89.7566
  0
LINE
  8
0
 10
21.8429
 20
89.7566
 11
21.9606
 21
90.3733
  0
LINE
  8
0
 10
21.9606
 20
90.3733
 11
22
 21
91
  0
LINE
  8
0
 10
22
 20
91
 11
22
 21
125
  0
LINE
  8
0
 10
22
 20
125
 11
21.9606
 21
125.627
  0
LINE
  8
0
 10
21.9606
 20
125.627
 11
21.8429
 21
126.243
  0
LINE
  8
0
 10
21.8429
 20
126.243
 11
21.6489
 21
126.841
  0
LINE
  8
0
 10
21.6489
 20
126.841
 11
21.3815
 21
127.409
  0
LINE
  8
0
 10
21.3815
 20
127.409
 11
21.0451
 21
127.939
  0
LINE
  8
0
 10
21.0451
 20
127.939
 11
20.6448
 21
128.423
  0
LINE
  8
0
 10
20.6448
 20
128.423
 11
20.1871
 21
128.853
  0
LINE
  8
0
 10
20.1871
 20
128.853
 11
19.6791
 21
129.222
  0
LINE
  8
0
 10
19.6791
 20
129.222
 11
19.1289
 21
129.524
  0
LINE
  8
0
 10
19.1289
 20
129.524
 11
18.5451
 21
129.755
  0
LINE
  8
0
 10
18.5451
 20
129.755
 11
17.9369
 21
129.911
  0
LINE
  8
0
 10
17.9369
 20
129.911
 11
17.3139
 21
129.99
  0
LINE
  8
0
 10
17.3139
 20
129.99
 11
-17.3139
 21
129.99
  0
LINE
  8
0
 10
-17.3139
 20
129.99
 11
-17.9369
 21
129.911
  0
LINE
  8
0
 10
-17.9369
 20
129.911
 11
-18.5451
 21
129.755
  0
LINE
  8
0
 10
-18.5451
 20
129.755
 11
-19.1289
 21
129.524
  0
LINE
  8
0
 10
-19.1289
 20
129.524
 11
-19.6791
 21
129.222
  0
LINE
  8
0
 10
-19.6791
 20
129.222
 11
-20.1871
 21
128.853
  0
LINE
  8
0
 10
-20.1871
 20
128.853
 11
-20.6448
 21
128.423
  0
LINE
  8
0
 10
-20.6448
 20
128.423
 11
-21.0451
 21
127.939
  0
LINE
  8
0
 10
-21.0451
 20
127.939
 11
-21.3815
 21
127.409
  0
LINE
  8
0
 10
-21.3815
 20
127.409
 11
-21.6489
 21
126.841
  0
LINE
  8
0
 10
-21.6489
 20
126.841
 11
-21.8429
 21
126.243
  0
LINE
  8
0
 10
-21.8429
 20
126.243
 11
-21.9606
 21
125.627
  0
LINE
  8
0
 10
-21.9606
 20
125.627
 11
-22
 21
125
  0
LINE
  8
0
 10
-22
 20
125
 11
-22
 21
91
  0
LINE
  8
0
 10
-22
 20
91
 11
-21.9606
 21
90.3733
  0
LINE
  8
0
 10
-21.9606
 20
90.3733
 11
-21.8429
 21
89.7566
  0
LINE
  8
0
 10
-21.8429
 20
89.7566
 11
-21.6489
 21
89.1594
  0
LINE
  8
0
 10
-21.6489
 20
89.1594
 11
-21.3815
 21
88.5912
  0
LINE
  8
0
 10
-21.3815
 20
88.5912
 11
-21.0451
 21
88.0611
  0
LINE
  8
0
 10
-21.0451
 20
88.0611
 11
-20.6448
 21
87.5773
  0
LINE
  8
0
 10
-20.6448
 20
87.5773
 11
-20.1871
 21
87.1474
  0
LINE
  8
0
 10
-20.1871
 20
87.1474
 11
-19.6791
 21
86.7784
  0
LINE
  8
0
 10
-19.6791
 20
86.7784
 11
-19.1289
 21
86.4759
  0
LINE
  8
0
 10
-19.1289
 20
86.4759
 11
-18.5451
 21
86.2447
  0
LINE
  8
0
 10
-18.5451
 20
86.2447
 11
-17.9369
 21
86.0886
  0
LINE
  8
0
 10
-17.9369
 20
86.0886
 11
-17.3139
 21
86.0099
  0
LINE
  8
0
 10
-17.3139
 20
86.0099
 11
17.3139
 21
86.0099
  0
LINE
  8
0
 10
17.3139
 20
86.0099
 11
17.9369
 21
86.0886
  0
LINE
  8
0
 10
14.8493
 20
120.605
 11
14.5503
 21
120.643
  0
LINE
  8
0
 10
14.5503
 20
120.643
 11
14.2583
 21
120.717
  0
LINE
  8
0
 10
14.2583
 20
120.717
 11
13.9781
 21
120.828
  0
LINE
  8
0
 10
13.9781
 20
120.828
 11
13.714
 21
120.974
  0
LINE
  8
0
 10
13.714
 20
120.974
 11
13.4702
 21
121.151
  0
LINE
  8
0
 10
13.4702
 20
121.151
 11
13.2505
 21
121.357
  0
LINE
  8
0
 10
13.2505
 20
121.357
 11
13.0583
 21
121.589
  0
LINE
  8
0
 10
13.0583
 20
121.589
 11
12.8969
 21
121.844
  0
LINE
  8
0
 10
12.8969
 20
121.844
 11
12.7685
 21
122.117
  0
LINE
  8
0
 10
12.7685
 20
122.117
 11
12.6754
 21
122.403
  0
LINE
  8
0
 10
12.6754
 20
122.403
 11
12.6189
 21
122.699
  0
LINE
  8
0
 10
12.6189
 20
122.699
 11
12.6
 21
123
  0
LINE
  8
0
 10
12.6
 20
123
 11
12.6189
 21
123.301
  0
LINE
  8
0
 10
12.6189
 20
123.301
 11
12.6754
 21
123.597
  0
LINE
  8
0
 10
12.6754
 20
123.597
 11
12.7685
 21
123.883
  0
LINE
  8
0
 10
12.7685
 20
123.883
 11
12.8969
 21
124.156
  0
LINE
  8
0
 10
12.8969
 20
124.156
 11
13.0583
 21
124.411
  0
LINE
  8
0
 10
13.0583
 20
124.411
 11
13.2505
 21
124.643
  0
LINE
  8
0
 10
13.2505
 20
124.643
 11
13.4702
 21
124.849
  0
LINE
  8
0
 10
13.4702
 20
124.849
 11
13.714
 21
125.026
  0
LINE
  8
0
 10
13.714
 20
125.026
 11
13.9781
 21
125.172
  0
LINE
  8
0
 10
13.9781
 20
125.172
 11
14.2583
 21
125.283
  0
LINE
  8
0
 10
14.2583
 20
125.283
 11
14.5503
 21
125.357
  0
LINE
  8
0
 10
14.5503
 20
125.357
 11
14.8493
 21
125.395
  0
LINE
  8
0
 10
14.8493
 20
125.395
 11
15.1507
 21
125.395
  0
LINE
  8
0
 10
15.1507
 20
125.395
 11
15.4497
 21
125.357
  0
LINE
  8
0
 10
15.4497
 20
125.357
 11
15.7416
 21
125.283
  0
LINE
  8
0
 10
15.7416
 20
125.283
 11
16.0219
 21
125.172
  0
LINE
  8
0
 10
16.0219
 20
125.172
 11
16.286
 21
125.026
  0
LINE
  8
0
 10
16.286
 20
125.026
 11
16.5298
 21
124.849
  0
LINE
  8
0
 10
16.5298
 20
124.849
 11
16.7495
 21
124.643
  0
LINE
  8
0
 10
16.7495
 20
124.643
 11
16.9416
 21
124.411
  0
LINE
  8
0
 10
16.9416
 20
124.411
 11
17.1031
 21
124.156
  0
LINE
  8
0
 10
17.1031
 20
124.156
 11
17.2315
 21
123.883
  0
LINE
  8
0
 10
17.2315
 20
123.883
 11
17.3246
 21
123.597
  0
LINE
  8
0
 10
17.3246
 20
123.597
 11
17.3811
 21
123.301
  0
LINE
  8
0
 10
17.3811
 20
123.301
 11
17.4
 21
123
  0
LINE
  8
0
 10
17.4
 20
123
 11
17.3811
 21
122.699
  0
LINE
  8
0
 10
17.3811
 20
122.699
 11
17.3246
 21
122.403
  0
LINE
  8
0
 10
17.3246
 20
122.403
 11
17.2315
 21
122.117
  0
LINE
  8
0
 10
17.2315
 20
122.117
 11
17.1031
 21
121.844
  0
LINE
  8
0
 10
17.1031
 20
121.844
 11
16.9416
 21
121.589
  0
LINE
  8
0
 10
16.9416
 20
121.589
 11
16.7495
 21
121.357
  0
LINE
  8
0
 10
16.7495
 20
121.357
 11
16.5298
 21
121.151
  0
LINE
  8
0
 10
16.5298
 20
121.151
 11
16.286
 21
120.974
  0
LINE
  8
0
 10
16.286
 20
120.974
 11
16.0219
 21
120.828
  0
LINE
  8
0
 10
16.0219
 20
120.828
 11
15.7416
 21
120.717
  0
LINE
  8
0
 10
15.7416
 20
120.717
 11
15.4497
 21
120.643
  0
LINE
  8
0
 10
15.4497
 20
120.643
 11
15.1507
 21
120.605
  0
LINE
  8
0
 10
15.1507
 20
120.605
 11
14.8493
 21
120.605
  0
LINE
  8
0
 10
-15.1507
 20
120.605
 11
-15.4497
 21
120.643
  0
LINE
  8
0
 10
-15.4497
 20
120.643
 11
-15.7416
 21
120.717
  0
LINE
  8
0
 10
-15.7416
 20
120.717
 11
-16.0219
 21
120.828
  0
LINE
  8
0
 10
-16.0219
 20
120.828
 11
-16.286
 21
120.974
  0
LINE
  8
0
 10
-16.286
 20
120.974
 11
-16.5298
 21
121.151
  0
LINE
  8
0
 10
-16.5298
 20
121.151
 11
-16.7495
 21
121.357
  0
LINE
  8
0
 10
-16.7495
 20
121.357
 11
-16.9416
 21
121.589
  0
LINE
  8
0
 10
-16.9416
 20
121.589
 11
-17.1031
 21
121.844
  0
LINE
  8
0
 10
-17.1031
 20
121.844
 11
-17.2315
 21
122.117
  0
LINE
  8
0
 10
-17.2315
 20
122.117
 11
-17.3246
 21
122.403
  0
LINE
  8
0
 10
-17.3246
 20
122.403
 11
-17.3811
 21
122.699
  0
LINE
  8
0
 10
-17.3811
 20
122.699
 11
-17.4
 21
123
  0
LINE
  8
0
 10
-17.4
 20
123
 11
-17.3811
 21
123.301
  0
LINE
  8
0
 10
-17.3811
 20
123.301
 11
-17.3246
 21
123.597
  0
LINE
  8
0
 10
-17.3246
 20
123.597
 11
-17.2315
 21
123.883
  0
LINE
  8
0
 10
-17.2315
 20
123.883
 11
-17.1031
 21
124.156
  0
LINE
  8
0
 10
-17.1031
 20
124.156
 11
-16.9416
 21
124.411
  0
LINE
  8
0
 10
-16.9416
 20
124.411
 11
-16.7495
 21
124.643
  0
LINE
  8
0
 10
-16.7495
 20
124.643
 11
-16.5298
 21
124.849
  0
LINE
  8
0
 10
-16.5298
 20
124.849
 11
-16.286
 21
125.026
  0
LINE
  8
0
 10
-16.286
 20
125.026
 11
-16.0219
 21
125.172
  0
LINE
  8
0
 10
-16.0219
 20
125.172
 11
-15.7416
 21
125.283
  0
LINE
  8
0
 10
-15.7416
 20
125.283
 11
-15.4497
 21
125.357
  0
LINE
  8
0
 10
-15.4497
 20
125.357
 11
-15.1507
 21
125.395
  0
LINE
  8
0
 10
-15.1507
 20
125.395
 11
-14.8493
 21
125.395
  0
LINE
  8
0
 10
-14.8493
 20
125.395
 11
-14.5503
 21
125.357
  0
LINE
  8
0
 10
-14.5503
 20
125.357
 11
-14.2583
 21
125.283
  0
LINE
  8
0
 10
-14.2583
 20
125.283
 11
-13.9781
 21
125.172
  0
LINE
  8
0
 10
-13.9781
 20
125.172
 11
-13.714
 21
125.026
  0
LINE
  8
0
 10
-13.714
 20
125.026
 11
-13.4702
 21
124.849
  0
LINE
  8
0
 10
-13.4702
 20
124.849
 11
-13.2505
 21
124.643
  0
LINE
  8
0
 10
-13.2505
 20
124.643
 11
-13.0583
 21
124.411
  0
LINE
  8
0
 10
-13.0583
 20
124.411
 11
-12.8969
 21
124.156
  0
LINE
  8
0
 10
-12.8969
 20
124.156
 11
-12.7685
 21
123.883
  0
LINE
  8
0
 10
-12.7685
 20
123.883
 11
-12.6754
 21
123.597
  0
LINE
  8
0
 10
-12.6754
 20
123.597
 11
-12.6189
 21
123.301
  0
LINE
  8
0
 10
-12.6189
 20
123.301
 11
-12.6
 21
123
  0
LINE
  8
0
 10
-12.6
 20
123
 11
-12.6189
 21
122.699
  0
LINE
  8
0
 10
-12.6189
 20
122.699
 11
-12.6754
 21
122.403
  0
LINE
  8
0
 10
-12.6754
 20
122.403
 11
-12.7685
 21
122.117
  0
LINE
  8
0
 10
-12.7685
 20
122.117
 11
-12.8969
 21
121.844
  0
LINE
  8
0
 10
-12.8969
 20
121.844
 11
-13.0583
 21
121.589
  0
LINE
  8
0
 10
-13.0583
 20
121.589
 11
-13.2505
 21
121.357
  0
LINE
  8
0
 10
-13.2505
 20
121.357
 11
-13.4702
 21
121.151
  0
LINE
  8
0
 10
-13.4702
 20
121.151
 11
-13.714
 21
120.974
  0
LINE
  8
0
 10
-13.714
 20
120.974
 11
-13.9781
 21
120.828
  0
LINE
  8
0
 10
-13.9781
 20
120.828
 11
-14.2583
 21
120.717
  0
LINE
  8
0
 10
-14.2583
 20
120.717
 11
-14.5503
 21
120.643
  0
LINE
  8
0
 10
-14.5503
 20
120.643
 11
-14.8493
 21
120.605
  0
LINE
  8
0
 10
-14.8493
 20
120.605
 11
-15.1507
 21
120.605
  0
LINE
  8
0
 10
-15.1507
 20
90.6047
 11
-15.4497
 21
90.6425
  0
LINE
  8
0
 10
-15.4497
 20
90.6425
 11
-15.7416
 21
90.7175
  0
LINE
  8
0
 10
-15.7416
 20
90.7175
 11
-16.0219
 21
90.8284
  0
LINE
  8
0
 10
-16.0219
 20
90.8284
 11
-16.286
 21
90.9736
  0
LINE
  8
0
 10
-16.286
 20
90.9736
 11
-16.5298
 21
91.1508
  0
LINE
  8
0
 10
-16.5298
 20
91.1508
 11
-16.7495
 21
91.3571
  0
LINE
  8
0
 10
-16.7495
 20
91.3571
 11
-16.9416
 21
91.5893
  0
LINE
  8
0
 10
-16.9416
 20
91.5893
 11
-17.1031
 21
91.8438
  0
LINE
  8
0
 10
-17.1031
 20
91.8438
 11
-17.2315
 21
92.1165
  0
LINE
  8
0
 10
-17.2315
 20
92.1165
 11
-17.3246
 21
92.4032
  0
LINE
  8
0
 10
-17.3246
 20
92.4032
 11
-17.3811
 21
92.6992
  0
LINE
  8
0
 10
-17.3811
 20
92.6992
 11
-17.4
 21
93
  0
LINE
  8
0
 10
-17.4
 20
93
 11
-17.3811
 21
93.3008
  0
LINE
  8
0
 10
-17.3811
 20
93.3008
 11
-17.3246
 21
93.5969
  0
LINE
  8
0
 10
-17.3246
 20
93.5969
 11
-17.2315
 21
93.8835
  0
LINE
  8
0
 10
-17.2315
 20
93.8835
 11
-17.1031
 21
94.1562
  0
LINE
  8
0
 10
-17.1031
 20
94.1562
 11
-16.9416
 21
94.4107
  0
LINE
  8
0
 10
-16.9416
 20
94.4107
 11
-16.7495
 21
94.6429
  0
LINE
  8
0
 10
-16.7495
 20
94.6429
 11
-16.5298
 21
94.8492
  0
LINE
  8
0
 10
-16.5298
 20
94.8492
 11
-16.286
 21
95.0264
  0
LINE
  8
0
 10
-16.286
 20
95.0264
 11
-16.0219
 21
95.1716
  0
LINE
  8
0
 10
-16.0219
 20
95.1716
 11
-15.7416
 21
95.2825
  0
LINE
  8
0
 10
-15.7416
 20
95.2825
 11
-15.4497
 21
95.3575
  0
LINE
  8
0
 10
-15.4497
 20
95.3575
 11
-15.1507
 21
95.3953
  0
LINE
  8
0
 10
-15.1507
 20
95.3953
 11
-14.8493
 21
95.3953
  0
LINE
  8
0
 10
-14.8493
 20
95.3953
 11
-14.5503
 21
95.3575
  0
LINE
  8
0
 10
-14.5503
 20
95.3575
 11
-14.2583
 21
95.2825
  0
LINE
  8
0
 10
-14.2583
 20
95.2825
 11
-13.9781
 21
95.1716
  0
LINE
  8
0
 10
-13.9781
 20
95.1716
 11
-13.714
 21
95.0264
  0
LINE
  8
0
 10
-13.714
 20
95.0264
 11
-13.4702
 21
94.8492
  0
LINE
  8
0
 10
-13.4702
 20
94.8492
 11
-13.2505
 21
94.6429
  0
LINE
  8
0
 10
-13.2505
 20
94.6429
 11
-13.0583
 21
94.4107
  0
LINE
  8
0
 10
-13.0583
 20
94.4107
 11
-12.8969
 21
94.1562
  0
LINE
  8
0
 10
-12.8969
 20
94.1562
 11
-12.7685
 21
93.8835
  0
LINE
  8
0
 10
-12.7685
 20
93.8835
 11
-12.6754
 21
93.5969
  0
LINE
  8
0
 10
-12.6754
 20
93.5969
 11
-12.6189
 21
93.3008
  0
LINE
  8
0
 10
-12.6189
 20
93.3008
 11
-12.6
 21
93
  0
LINE
  8
0
 10
-12.6
 20
93
 11
-12.6189
 21
92.6992
  0
LINE
  8
0
 10
-12.6189
 20
92.6992
 11
-12.6754
 21
92.4032
  0
LINE
  8
0
 10
-12.6754
 20
92.4032
 11
-12.7685
 21
92.1165
  0
LINE
  8
0
 10
-12.7685
 20
92.1165
 11
-12.8969
 21
91.8438
  0
LINE
  8
0
 10
-12.8969
 20
91.8438
 11
-13.0583
 21
91.5893
  0
LINE
  8
0
 10
-13.0583
 20
91.5893
 11
-13.2505
 21
91.3571
  0
LINE
  8
0
 10
-13.2505
 20
91.3571
 11
-13.4702
 21
91.1508
  0
LINE
  8
0
 10
-13.4702
 20
91.1508
 11
-13.714
 21
90.9736
  0
LINE
  8
0
 10
-13.714
 20
90.9736
 11
-13.9781
 21
90.8284
  0
LINE
  8
0
 10
-13.9781
 20
90.8284
 11
-14.2583
 21
90.7175
  0
LINE
  8
0
 10
-14.2583
 20
90.7175
 11
-14.5503
 21
90.6425
  0
LINE
  8
0
 10
-14.5503
 20
90.6425
 11
-14.8493
 21
90.6047
  0
LINE
  8
0
 10
-14.8493
 20
90.6047
 11
-15.1507
 21
90.6047
  0
LINE
  8
0
 10
14.8493
 20
90.6047
 11
14.5503
 21
90.6425
  0
LINE
  8
0
 10
14.5503
 20
90.6425
 11
14.2583
 21
90.7175
  0
LINE
  8
0
 10
14.2583
 20
90.7175
 11
13.9781
 21
90.8284
  0
LINE
  8
0
 10
13.9781
 20
90.8284
 11
13.714
 21
90.9736
  0
LINE
  8
0
 10
13.714
 20
90.9736
 11
13.4702
 21
91.1508
  0
LINE
  8
0
 10
13.4702
 20
91.1508
 11
13.2505
 21
91.3571
  0
LINE
  8
0
 10
13.2505
 20
91.3571
 11
13.0583
 21
91.5893
  0
LINE
  8
0
 10
13.0583
 20
91.5893
 11
12.8969
 21
91.8438
  0
LINE
  8
0
 10
12.8969
 20
91.8438
 11
12.7685
 21
92.1165
  0
LINE
  8
0
 10
12.7685
 20
92.1165
 11
12.6754
 21
92.4032
  0
LINE
  8
0
 10
12.6754
 20
92.4032
 11
12.6189
 21
92.6992
  0
LINE
  8
0
 10
12.6189
 20
92.6992
 11
12.6
 21
93
  0
LINE
  8
0
 10
12.6
 20
93
 11
12.6189
 21
93.3008
  0
LINE
  8
0
 10
12.6189
 20
93.3008
 11
12.6754
 21
93.5969
  0
LINE
  8
0
 10
12.6754
 20
93.5969
 11
12.7685
 21
93.8835
  0
LINE
  8
0
 10
12.7685
 20
93.8835
 11
12.8969
 21
94.1562
  0
LINE
  8
0
 10
12.8969
 20
94.1562
 11
13.0583
 21
94.4107
  0
LINE
  8
0
 10
13.0583
 20
94.4107
 11
13.2505
 21
94.6429
  0
LINE
  8
0
 10
13.2505
 20
94.6429
 11
13.4702
 21
94.8492
  0
LINE
  8
0
 10
13.4702
 20
94.8492
 11
13.714
 21
95.0264
  0
LINE
  8
0
 10
13.714
 20
95.0264
 11
13.9781
 21
95.1716
  0
LINE
  8
0
 10
13.9781
 20
95.1716
 11
14.2583
 21
95.2825
  0
LINE
  8
0
 10
14.2583
 20
95.2825
 11
14.5503
 21
95.3575
  0
LINE
  8
0
 10
14.5503
 20
95.3575
 11
14.8493
 21
95.3953
  0
LINE
  8
0
 10
14.8493
 20
95.3953
 11
15.1507
 21
95.3953
  0
LINE
  8
0
 10
15.1507
 20
95.3953
 11
15.4497
 21
95.3575
  0
LINE
  8
0
 10
15.4497
 20
95.3575
 11
15.7416
 21
95.2825
  0
LINE
  8
0
 10
15.7416
 20
95.2825
 11
16.0219
 21
95.1716
  0
LINE
  8
0
 10
16.0219
 20
95.1716
 11
16.286
 21
95.0264
  0
LINE
  8
0
 10
16.286
 20
95.0264
 11
16.5298
 21
94.8492
  0
LINE
  8
0
 10
16.5298
 20
94.8492
 11
16.7495
 21
94.6429
  0
LINE
  8
0
 10
16.7495
 20
94.6429
 11
16.9416
 21
94.4107
  0
LINE
  8
0
 10
16.9416
 20
94.4107
 11
17.1031
 21
94.1562
  0
LINE
  8
0
 10
17.1031
 20
94.1562
 11
17.2315
 21
93.8835
  0
LINE
  8
0
 10
17.2315
 20
93.8835
 11
17.3246
 21
93.5969
  0
LINE
  8
0
 10
17.3246
 20
93.5969
 11
17.3811
 21
93.3008
  0
LINE
  8
0
 10
17.3811
 20
93.3008
 11
17.4
 21
93
  0
LINE
  8
0
 10
17.4
 20
93
 11
17.3811
 21
92.6992
  0
LINE
  8
0
 10
17.3811
 20
92.6992
 11
17.3246
 21
92.4032
  0
LINE
  8
0
 10
17.3246
 20
92.4032
 11
17.2315
 21
92.1165
  0
LINE
  8
0
 10
17.2315
 20
92.1165
 11
17.1031
 21
91.8438
  0
LINE
  8
0
 10
17.1031
 20
91.8438
 11
16.9416
 21
91.5893
  0
LINE
  8
0
 10
16.9416
 20
91.5893
 11
16.7495
 21
91.3571
  0
LINE
  8
0
 10
16.7495
 20
91.3571
 11
16.5298
 21
91.1508
  0
LINE
  8
0
 10
16.5298
 20
91.1508
 11
16.286
 21
90.9736
  0
LINE
  8
0
 10
16.286
 20
90.9736
 11
16.0219
 21
90.8284
  0
LINE
  8
0
 10
16.0219
 20
90.8284
 11
15.7416
 21
90.7175
  0
LINE
  8
0
 10
15.7416
 20
90.7175
 11
15.4497
 21
90.6425
  0
LINE
  8
0
 10
15.4497
 20
90.6425
 11
15.1507
 21
90.6047
  0
LINE
  8
0
 10
15.1507
 20
90.6047
 11
14.8493
 21
90.6047
  0
ENDSEC
  0
SECTION
  2
OBJECTS
  0
DICTIONARY
  0
ENDSEC
  0
EOF
