<?xml version="1.0" standalone="no"?>
<!DOCTYPE svg PUBLIC "-//W3C//DTD SVG 1.1//EN" "http://www.w3.org/Graphics/SVG/1.1/DTD/svg11.dtd">
<svg width="44mm" height="98mm" viewBox="-22 -184 44 98" xmlns="http://www.w3.org/2000/svg" version="1.1">
<title>OpenSCAD Model</title>
<path d="
M 17.9369,-140.089 L 18.5451,-140.245 L 19.1289,-140.476 L 19.6791,-140.778 L 20.1871,-141.147 L 20.6448,-141.577
 L 21.0451,-142.061 L 21.3815,-142.591 L 21.6489,-143.159 L 21.8429,-143.757 L 21.9606,-144.373 L 22,-145
 L 22,-179 L 21.9606,-179.627 L 21.8429,-180.243 L 21.6489,-180.841 L 21.3815,-181.409 L 21.0451,-181.939
 L 20.6448,-182.423 L 20.1871,-182.853 L 19.6791,-183.222 L 19.1289,-183.524 L 18.5451,-183.755 L 17.9369,-183.911
 L 17.3139,-183.99 L -17.3139,-183.99 L -17.9369,-183.911 L -18.5451,-183.755 L -19.1289,-183.524 L -19.6791,-183.222
 L -20.1871,-182.853 L -20.6448,-182.423 L -21.0451,-181.939 L -21.3815,-181.409 L -21.6489,-180.841 L -21.8429,-180.243
 L -21.9606,-179.627 L -22,-179 L -22,-145 L -21.9606,-144.373 L -21.8429,-143.757 L -21.6489,-143.159
 L -21.3815,-142.591 L -21.0451,-142.061 L -20.6448,-141.577 L -20.1871,-141.147 L -19.6791,-140.778 L -19.1289,-140.476
 L -18.5451,-140.245 L -17.9369,-140.089 L -17.3139,-140.01 L 17.3139,-140.01 z
M -15.2484,-143.052 L -15.7412,-143.114 L -16.2224,-143.238 L -16.6842,-143.421 L -17.1195,-143.66 L -17.5214,-143.952
 L -17.8835,-144.292 L -18.2001,-144.675 L -18.4663,-145.094 L -18.6778,-145.544 L -18.8313,-146.016 L -18.9244,-146.504
 L -18.9556,-147 L -18.9556,-177 L -18.9244,-177.496 L -18.8313,-177.984 L -18.6778,-178.456 L -18.4663,-178.906
 L -18.2001,-179.325 L -17.8835,-179.708 L -17.5214,-180.048 L -17.1195,-180.34 L -16.6842,-180.579 L -16.2224,-180.762
 L -15.7412,-180.886 L -15.2484,-180.948 L 15.2484,-180.948 L 15.7412,-180.886 L 16.2224,-180.762 L 16.6842,-180.579
 L 17.1195,-180.34 L 17.5214,-180.048 L 17.8835,-179.708 L 18.2001,-179.325 L 18.4663,-178.906 L 18.6778,-178.456
 L 18.8313,-177.984 L 18.9244,-177.496 L 18.9556,-177 L 18.9556,-147 L 18.9244,-146.504 L 18.8313,-146.016
 L 18.6778,-145.544 L 18.4663,-145.094 L 18.2001,-144.675 L 17.8835,-144.292 L 17.5214,-143.952 L 17.1195,-143.66
 L 16.6842,-143.421 L 16.2224,-143.238 L 15.7412,-143.114 L 15.2484,-143.052 z
M 17.9369,-86.0886 L 18.5451,-86.2447 L 19.1289,-86.4759 L 19.6791,-86.7784 L 20.1871,-87.1474 L 20.6448,-87.5773
 L 21.0451,-88.0611 L 21.3815,-88.5912 L 21.6489,-89.1594 L 21.8429,-89.7566 L 21.9606,-90.3733 L 22,-91
 L 22,-125 L 21.9606,-125.627 L 21.8429,-126.243 L 21.6489,-126.841 L 21.3815,-127.409 L 21.0451,-127.939
 L 20.6448,-128.423 L 20.1871,-128.853 L 19.6791,-129.222 L 19.1289,-129.524 L 18.5451,-129.755 L 17.9369,-129.911
 L 17.3139,-129.99 L -17.3139,-129.99 L -17.9369,-129.911 L -18.5451,-129.755 L -19.1289,-129.524 L -19.6791,-129.222
 L -20.1871,-128.853 L -20.6448,-128.423 L -21.0451,-127.939 L -21.3815,-127.409 L -21.6489,-126.841 L -21.8429,-126.243
 L -21.9606,-125.627 L -22,-125 L -22,-91 L -21.9606,-90.3733 L -21.8429,-89.7566 L -21.6489,-89.1594
 L -21.3815,-88.5912 L -21.0451,-88.0611 L -20.6448,-87.5773 L -20.1871,-87.1474 L -19.6791,-86.7784 L -19.1289,-86.4759
 L -18.5451,-86.2447 L -17.9369,-86.0886 L -17.3139,-86.0099 L 17.3139,-86.0099 z
M 14.8493,-120.605 L 14.5503,-120.643 L 14.2583,-120.717 L 13.9781,-120.828 L 13.714,-120.974 L 13.4702,-121.151
 L 13.2505,-121.357 L 13.0583,-121.589 L 12.8969,-121.844 L 12.7685,-122.117 L 12.6754,-122.403 L 12.6189,-122.699
 L 12.6,-123 L 12.6189,-123.301 L 12.6754,-123.597 L 12.7685,-123.883 L 12.8969,-124.156 L 13.0583,-124.411
 L 13.2505,-124.643 L 13.4702,-124.849 L 13.714,-125.026 L 13.9781,-125.172 L 14.2583,-125.283 L 14.5503,-125.357
 L 14.8493,-125.395 L 15.1507,-125.395 L 15.4497,-125.357 L 15.7416,-125.283 L 16.0219,-125.172 L 16.286,-125.026
 L 16.5298,-124.849 L 16.7495,-124.643 L 16.9416,-124.411 L 17.1031,-124.156 L 17.2315,-123.883 L 17.3246,-123.597
 L 17.3811,-123.301 L 17.4,-123 L 17.3811,-122.699 L 17.3246,-122.403 L 17.2315,-122.117 L 17.1031,-121.844
 L 16.9416,-121.589 L 16.7495,-121.357 L 16.5298,-121.151 L 16.286,-120.974 L 16.0219,-120.828 L 15.7416,-120.717
 L 15.4497,-120.643 L 15.1507,-120.605 z
M -15.1507,-120.605 L -15.4497,-120.643 L -15.7416,-120.717 L -16.0219,-120.828 L -16.286,-120.974 L -16.5298,-121.151
 L -16.7495,-121.357 L -16.9416,-121.589 L -17.1031,-121.844 L -17.2315,-122.117 L -17.3246,-122.403 L -17.3811,-122.699
 L -17.4,-123 L -17.3811,-123.301 L -17.3246,-123.597 L -17.2315,-123.883 L -17.1031,-124.156 L -16.9416,-124.411
 L -16.7495,-124.643 L -16.5298,-124.849 L -16.286,-125.026 L -16.0219,-125.172 L -15.7416,-125.283 L -15.4497,-125.357
 L -15.1507,-125.395 L -14.8493,-125.395 L -14.5503,-125.357 L -14.2583,-125.283 L -13.9781,-125.172 L -13.714,-125.026
 L -13.4702,-124.849 L -13.2505,-124.643 L -13.0583,-124.411 L -12.8969,-124.156 L -12.7685,-123.883 L -12.6754,-123.597
 L -12.6189,-123.301 L -12.6,-123 L -12.6189,-122.699 L -12.6754,-122.403 L -12.7685,-122.117 L -12.8969,-121.844
 L -13.0583,-121.589 L -13.2505,-121.357 L -13.4702,-121.151 L -13.714,-120.974 L -13.9781,-120.828 L -14.2583,-120.717
 L -14.5503,-120.643 L -14.8493,-120.605 z
M -15.1507,-90.6047 L -15.4497,-90.6425 L -15.7416,-90.7175 L -16.0219,-90.8284 L -16.286,-90.9736 L -16.5298,-91.1508
 L -16.7495,-91.3571 L -16.9416,-91.5893 L -17.1031,-91.8438 L -17.2315,-92.1165 L -17.3246,-92.4032 L -17.3811,-92.6992
 L -17.4,-93 L -17.3811,-93.3008 L -17.3246,-93.5969 L -17.2315,-93.8835 L -17.1031,-94.1562 L -16.9416,-94.4107
 L -16.7495,-94.6429 L -16.5298,-94.8492 L -16.286,-95.0264 L -16.0219,-95.1716 L -15.7416,-95.2825 L -15.4497,-95.3575
 L -15.1507,-95.3953 L -14.8493,-95.3953 L -14.5503,-95.3575 L -14.2583,-95.2825 L -13.9781,-95.1716 L -13.714,-95.0264
 L -13.4702,-94.8492 L -13.2505,-94.6429 L -13.0583,-94.4107 L -12.8969,-94.1562 L -12.7685,-93.8835 L -12.6754,-93.5969
 L -12.6189,-93.3008 L -12.6,-93 L -12.6189,-92.6992 L -12.6754,-92.4032 L -12.7685,-92.1165 L -12.8969,-91.8438
 L -13.0583,-91.5893 L -13.2505,-91.3571 L -13.4702,-91.1508 L -13.714,-90.9736 L -13.9781,-90.8284 L -14.2583,-90.7175
 L -14.5503,-90.6425 L -14.8493,-90.6047 z
M 14.8493,-90.6047 L 14.5503,-90.6425 L 14.2583,-90.7175 L 13.9781,-90.8284 L 13.714,-90.9736 L 13.4702,-91.1508
 L 13.2505,-91.3571 L 13.0583,-91.5893 L 12.8969,-91.8438 L 12.7685,-92.1165 L 12.6754,-92.4032 L 12.6189,-92.6992
 L 12.6,-93 L 12.6189,-93.3008 L 12.6754,-93.5969 L 12.7685,-93.8835 L 12.8969,-94.1562 L 13.0583,-94.4107
 L 13.2505,-94.6429 L 13.4702,-94.8492 L 13.714,-95.0264 L 13.9781,-95.1716 L 14.2583,-95.2825 L 14.5503,-95.3575
 L 14.8493,-95.3953 L 15.1507,-95.3953 L 15.4497,-95.3575 L 15.7416,-95.2825 L 16.0219,-95.1716 L 16.286,-95.0264
 L 16.5298,-94.8492 L 16.7495,-94.6429 L 16.9416,-94.4107 L 17.1031,-94.1562 L 17.2315,-93.8835 L 17.3246,-93.5969
 L 17.3811,-93.3008 L 17.4,-93 L 17.3811,-92.6992 L 17.3246,-92.4032 L 17.2315,-92.1165 L 17.1031,-91.8438
 L 16.9416,-91.5893 L 16.7495,-91.3571 L 16.5298,-91.1508 L 16.286,-90.9736 L 16.0219,-90.8284 L 15.7416,-90.7175
 L 15.4497,-90.6425 L 15.1507,-90.6047 z
" stroke="black" fill="lightgray" stroke-width="0.5"/>
</svg>
