<?xml version="1.0" standalone="no"?>
<!DOCTYPE svg PUBLIC "-//W3C//DTD SVG 1.1//EN" "http://www.w3.org/Graphics/SVG/1.1/DTD/svg11.dtd">
<svg width="8mm" height="8mm" viewBox="-4 -21 8 8" xmlns="http://www.w3.org/2000/svg" version="1.1">
<title>OpenSCAD Model</title>
<path d="
M 1.46844,-13.5443 L 1.77254,-13.6224 L 2.06444,-13.7379 L 2.33955,-13.8892 L 2.59355,-14.0737 L 2.82242,-14.2886
 L 3.02254,-14.5305 L 3.19077,-14.7956 L 3.32443,-15.0797 L 3.42145,-15.3783 L 3.48029,-15.6867 L 3.5,-16
 L 3.5,-18 L 3.48029,-18.3133 L 3.42145,-18.6217 L 3.32443,-18.9203 L 3.19077,-19.2044 L 3.02254,-19.4695
 L 2.82242,-19.7114 L 2.59355,-19.9263 L 2.33955,-20.1108 L 2.06444,-20.2621 L 1.77254,-20.3776 L 1.46844,-20.4557
 L 1.15697,-20.4951 L -1.15697,-20.4951 L -1.46844,-20.4557 L -1.77254,-20.3776 L -2.06444,-20.2621 L -2.33955,-20.1108
 L -2.59355,-19.9263 L -2.82242,-19.7114 L -3.02254,-19.4695 L -3.19077,-19.2044 L -3.32443,-18.9203 L -3.42145,-18.6217
 L -3.48029,-18.3133 L -3.5,-18 L -3.5,-16 L -3.48029,-15.6867 L -3.42145,-15.3783 L -3.32443,-15.0797
 L -3.19077,-14.7956 L -3.02254,-14.5305 L -2.82242,-14.2886 L -2.59355,-14.0737 L -2.33955,-13.8892 L -2.06444,-13.7379
 L -1.77254,-13.6224 L -1.46844,-13.5443 L -1.15697,-13.5049 L 1.15697,-13.5049 z
M -0.0941772,-15.503 L -0.281067,-15.5266 L -0.463516,-15.5734 L -0.638657,-15.6428 L -0.803726,-15.7335 L -0.956131,-15.8442
 L -1.09344,-15.9732 L -1.21352,-16.1183 L -1.31445,-16.2774 L -1.39465,-16.4478 L -1.45287,-16.627 L -1.48816,-16.812
 L -1.5,-17 L -1.48816,-17.188 L -1.45287,-17.373 L -1.39465,-17.5522 L -1.31445,-17.7226 L -1.21352,-17.8817
 L -1.09344,-18.0268 L -0.956131,-18.1558 L -0.803726,-18.2665 L -0.638657,-18.3572 L -0.463516,-18.4266 L -0.281067,-18.4734
 L -0.0941772,-18.497 L 0.0941772,-18.497 L 0.281067,-18.4734 L 0.463516,-18.4266 L 0.638657,-18.3572 L 0.803726,-18.2665
 L 0.956131,-18.1558 L 1.09344,-18.0268 L 1.21352,-17.8817 L 1.31445,-17.7226 L 1.39465,-17.5522 L 1.45287,-17.373
 L 1.48816,-17.188 L 1.5,-17 L 1.48816,-16.812 L 1.45287,-16.627 L 1.39465,-16.4478 L 1.31445,-16.2774
 L 1.21352,-16.1183 L 1.09344,-15.9732 L 0.956131,-15.8442 L 0.803726,-15.7335 L 0.638657,-15.6428 L 0.463516,-15.5734
 L 0.281067,-15.5266 L 0.0941772,-15.503 z
" stroke="black" fill="lightgray" stroke-width="0.5"/>
</svg>
