<?xml version="1.0" standalone="no"?>
<!DOCTYPE svg PUBLIC "-//W3C//DTD SVG 1.1//EN" "http://www.w3.org/Graphics/SVG/1.1/DTD/svg11.dtd">
<svg width="30mm" height="32mm" viewBox="-15 -76 30 32" xmlns="http://www.w3.org/2000/svg" version="1.1">
<title>OpenSCAD Model</title>
<path d="
M 12.7184,-68.5443 L 13.0225,-68.6224 L 13.3144,-68.7379 L 13.5896,-68.8892 L 13.8436,-69.0737 L 14.0724,-69.2886
 L 14.2725,-69.5305 L 14.4408,-69.7956 L 14.5744,-70.0797 L 14.6714,-70.3783 L 14.7303,-70.6867 L 14.75,-71
 L 14.75,-73 L 14.7303,-73.3133 L 14.6714,-73.6217 L 14.5744,-73.9203 L 14.4408,-74.2044 L 14.2725,-74.4695
 L 14.0724,-74.7114 L 13.8436,-74.9263 L 13.5896,-75.1108 L 13.3144,-75.2621 L 13.0225,-75.3776 L 12.7184,-75.4557
 L 12.407,-75.4951 L -12.407,-75.4951 L -12.7184,-75.4557 L -13.0225,-75.3776 L -13.3144,-75.2621 L -13.5896,-75.1108
 L -13.8436,-74.9263 L -14.0724,-74.7114 L -14.2725,-74.4695 L -14.4408,-74.2044 L -14.5744,-73.9203 L -14.6714,-73.6217
 L -14.7303,-73.3133 L -14.75,-73 L -14.75,-71 L -14.7303,-70.6867 L -14.6714,-70.3783 L -14.5744,-70.0797
 L -14.4408,-69.7956 L -14.2725,-69.5305 L -14.0724,-69.2886 L -13.8436,-69.0737 L -13.5896,-68.8892 L -13.3144,-68.7379
 L -13.0225,-68.6224 L -12.7184,-68.5443 L -12.407,-68.5049 L 12.407,-68.5049 z
M -11.3442,-70.503 L -11.5311,-70.5266 L -11.7135,-70.5734 L -11.8887,-70.6428 L -12.0537,-70.7335 L -12.2061,-70.8442
 L -12.3434,-70.9732 L -12.4635,-71.1183 L -12.5645,-71.2774 L -12.6447,-71.4478 L -12.7029,-71.627 L -12.7382,-71.812
 L -12.75,-72 L -12.7382,-72.188 L -12.7029,-72.373 L -12.6447,-72.5522 L -12.5645,-72.7226 L -12.4635,-72.8817
 L -12.3434,-73.0268 L -12.2061,-73.1558 L -12.0537,-73.2665 L -11.8887,-73.3572 L -11.7135,-73.4266 L -11.5311,-73.4734
 L -11.3442,-73.497 L -11.1558,-73.497 L -10.9689,-73.4734 L -10.7865,-73.4266 L -10.6113,-73.3572 L -10.4463,-73.2665
 L -10.2939,-73.1558 L -10.1565,-73.0268 L -10.0365,-72.8817 L -9.93553,-72.7226 L -9.85533,-72.5522 L -9.79712,-72.373
 L -9.76183,-72.188 L -9.75,-72 L -9.76183,-71.812 L -9.79712,-71.627 L -9.85533,-71.4478 L -9.93553,-71.2774
 L -10.0365,-71.1183 L -10.1565,-70.9732 L -10.2939,-70.8442 L -10.4463,-70.7335 L -10.6113,-70.6428 L -10.7865,-70.5734
 L -10.9689,-70.5266 L -11.1558,-70.503 z
M 3.65581,-70.503 L 3.46892,-70.5266 L 3.28647,-70.5734 L 3.11133,-70.6428 L 2.94626,-70.7335 L 2.79385,-70.8442
 L 2.65654,-70.9732 L 2.53647,-71.1183 L 2.43553,-71.2774 L 2.35533,-71.4478 L 2.29712,-71.627 L 2.26183,-71.812
 L 2.25,-72 L 2.26183,-72.188 L 2.29712,-72.373 L 2.35533,-72.5522 L 2.43553,-72.7226 L 2.53647,-72.8817
 L 2.65654,-73.0268 L 2.79385,-73.1558 L 2.94626,-73.2665 L 3.11133,-73.3572 L 3.28647,-73.4266 L 3.46892,-73.4734
 L 3.65581,-73.497 L 3.84418,-73.497 L 4.03107,-73.4734 L 4.21352,-73.4266 L 4.38866,-73.3572 L 4.55373,-73.2665
 L 4.70613,-73.1558 L 4.84344,-73.0268 L 4.96352,-72.8817 L 5.06445,-72.7226 L 5.14465,-72.5522 L 5.20287,-72.373
 L 5.23816,-72.188 L 5.25,-72 L 5.23816,-71.812 L 5.20287,-71.627 L 5.14465,-71.4478 L 5.06445,-71.2774
 L 4.96352,-71.1183 L 4.84344,-70.9732 L 4.70613,-70.8442 L 4.55373,-70.7335 L 4.38866,-70.6428 L 4.21352,-70.5734
 L 4.03107,-70.5266 L 3.84418,-70.503 z
M 11.1558,-70.503 L 10.9689,-70.5266 L 10.7865,-70.5734 L 10.6113,-70.6428 L 10.4463,-70.7335 L 10.2939,-70.8442
 L 10.1565,-70.9732 L 10.0365,-71.1183 L 9.93553,-71.2774 L 9.85533,-71.4478 L 9.79712,-71.627 L 9.76183,-71.812
 L 9.75,-72 L 9.76183,-72.188 L 9.79712,-72.373 L 9.85533,-72.5522 L 9.93553,-72.7226 L 10.0365,-72.8817
 L 10.1565,-73.0268 L 10.2939,-73.1558 L 10.4463,-73.2665 L 10.6113,-73.3572 L 10.7865,-73.4266 L 10.9689,-73.4734
 L 11.1558,-73.497 L 11.3442,-73.497 L 11.5311,-73.4734 L 11.7135,-73.4266 L 11.8887,-73.3572 L 12.0537,-73.2665
 L 12.2061,-73.1558 L 12.3434,-73.0268 L 12.4635,-72.8817 L 12.5645,-72.7226 L 12.6447,-72.5522 L 12.7029,-72.373
 L 12.7382,-72.188 L 12.75,-72 L 12.7382,-71.812 L 12.7029,-71.627 L 12.6447,-71.4478 L 12.5645,-71.2774
 L 12.4635,-71.1183 L 12.3434,-70.9732 L 12.2061,-70.8442 L 12.0537,-70.7335 L 11.8887,-70.6428 L 11.7135,-70.5734
 L 11.5311,-70.5266 L 11.3442,-70.503 z
M -3.84418,-70.503 L -4.03107,-70.5266 L -4.21352,-70.5734 L -4.38866,-70.6428 L -4.55373,-70.7335 L -4.70613,-70.8442
 L -4.84344,-70.9732 L -4.96352,-71.1183 L -5.06445,-71.2774 L -5.14465,-71.4478 L -5.20287,-71.627 L -5.23816,-71.812
 L -5.25,-72 L -5.23816,-72.188 L -5.20287,-72.373 L -5.14465,-72.5522 L -5.06445,-72.7226 L -4.96352,-72.8817
 L -4.84344,-73.0268 L -4.70613,-73.1558 L -4.55373,-73.2665 L -4.38866,-73.3572 L -4.21352,-73.4266 L -4.03107,-73.4734
 L -3.84418,-73.497 L -3.65581,-73.497 L -3.46892,-73.4734 L -3.28647,-73.4266 L -3.11133,-73.3572 L -2.94626,-73.2665
 L -2.79385,-73.1558 L -2.65654,-73.0268 L -2.53647,-72.8817 L -2.43553,-72.7226 L -2.35533,-72.5522 L -2.29712,-72.373
 L -2.26183,-72.188 L -2.25,-72 L -2.26183,-71.812 L -2.29712,-71.627 L -2.35533,-71.4478 L -2.43553,-71.2774
 L -2.53647,-71.1183 L -2.65654,-70.9732 L -2.79385,-70.8442 L -2.94626,-70.7335 L -3.11133,-70.6428 L -3.28647,-70.5734
 L -3.46892,-70.5266 L -3.65581,-70.503 z
M 12.7184,-44.5443 L 13.0225,-44.6224 L 13.3144,-44.7379 L 13.5896,-44.8892 L 13.8436,-45.0737 L 14.0724,-45.2886
 L 14.2725,-45.5305 L 14.4408,-45.7956 L 14.5744,-46.0797 L 14.6714,-46.3783 L 14.7303,-46.6867 L 14.75,-47
 L 14.75,-49 L 14.7303,-49.3133 L 14.6714,-49.6217 L 14.5744,-49.9203 L 14.4408,-50.2044 L 14.2725,-50.4695
 L 14.0724,-50.7114 L 13.8436,-50.9263 L 13.5896,-51.1108 L 13.3144,-51.2621 L 13.0225,-51.3776 L 12.7184,-51.4557
 L 12.407,-51.4951 L -12.407,-51.4951 L -12.7184,-51.4557 L -13.0225,-51.3776 L -13.3144,-51.2621 L -13.5896,-51.1108
 L -13.8436,-50.9263 L -14.0724,-50.7114 L -14.2725,-50.4695 L -14.4408,-50.2044 L -14.5744,-49.9203 L -14.6714,-49.6217
 L -14.7303,-49.3133 L -14.75,-49 L -14.75,-47 L -14.7303,-46.6867 L -14.6714,-46.3783 L -14.5744,-46.0797
 L -14.4408,-45.7956 L -14.2725,-45.5305 L -14.0724,-45.2886 L -13.8436,-45.0737 L -13.5896,-44.8892 L -13.3144,-44.7379
 L -13.0225,-44.6224 L -12.7184,-44.5443 L -12.407,-44.5049 L 12.407,-44.5049 z
M -11.3442,-46.503 L -11.5311,-46.5266 L -11.7135,-46.5734 L -11.8887,-46.6428 L -12.0537,-46.7335 L -12.2061,-46.8442
 L -12.3434,-46.9732 L -12.4635,-47.1183 L -12.5645,-47.2774 L -12.6447,-47.4478 L -12.7029,-47.627 L -12.7382,-47.812
 L -12.75,-48 L -12.7382,-48.188 L -12.7029,-48.373 L -12.6447,-48.5522 L -12.5645,-48.7226 L -12.4635,-48.8817
 L -12.3434,-49.0268 L -12.2061,-49.1558 L -12.0537,-49.2665 L -11.8887,-49.3572 L -11.7135,-49.4266 L -11.5311,-49.4734
 L -11.3442,-49.497 L -11.1558,-49.497 L -10.9689,-49.4734 L -10.7865,-49.4266 L -10.6113,-49.3572 L -10.4463,-49.2665
 L -10.2939,-49.1558 L -10.1565,-49.0268 L -10.0365,-48.8817 L -9.93553,-48.7226 L -9.85533,-48.5522 L -9.79712,-48.373
 L -9.76183,-48.188 L -9.75,-48 L -9.76183,-47.812 L -9.79712,-47.627 L -9.85533,-47.4478 L -9.93553,-47.2774
 L -10.0365,-47.1183 L -10.1565,-46.9732 L -10.2939,-46.8442 L -10.4463,-46.7335 L -10.6113,-46.6428 L -10.7865,-46.5734
 L -10.9689,-46.5266 L -11.1558,-46.503 z
M 3.65581,-46.503 L 3.46892,-46.5266 L 3.28647,-46.5734 L 3.11133,-46.6428 L 2.94626,-46.7335 L 2.79385,-46.8442
 L 2.65654,-46.9732 L 2.53647,-47.1183 L 2.43553,-47.2774 L 2.35533,-47.4478 L 2.29712,-47.627 L 2.26183,-47.812
 L 2.25,-48 L 2.26183,-48.188 L 2.29712,-48.373 L 2.35533,-48.5522 L 2.43553,-48.7226 L 2.53647,-48.8817
 L 2.65654,-49.0268 L 2.79385,-49.1558 L 2.94626,-49.2665 L 3.11133,-49.3572 L 3.28647,-49.4266 L 3.46892,-49.4734
 L 3.65581,-49.497 L 3.84418,-49.497 L 4.03107,-49.4734 L 4.21352,-49.4266 L 4.38866,-49.3572 L 4.55373,-49.2665
 L 4.70613,-49.1558 L 4.84344,-49.0268 L 4.96352,-48.8817 L 5.06445,-48.7226 L 5.14465,-48.5522 L 5.20287,-48.373
 L 5.23816,-48.188 L 5.25,-48 L 5.23816,-47.812 L 5.20287,-47.627 L 5.14465,-47.4478 L 5.06445,-47.2774
 L 4.96352,-47.1183 L 4.84344,-46.9732 L 4.70613,-46.8442 L 4.55373,-46.7335 L 4.38866,-46.6428 L 4.21352,-46.5734
 L 4.03107,-46.5266 L 3.84418,-46.503 z
M 11.1558,-46.503 L 10.9689,-46.5266 L 10.7865,-46.5734 L 10.6113,-46.6428 L 10.4463,-46.7335 L 10.2939,-46.8442
 L 10.1565,-46.9732 L 10.0365,-47.1183 L 9.93553,-47.2774 L 9.85533,-47.4478 L 9.79712,-47.627 L 9.76183,-47.812
 L 9.75,-48 L 9.76183,-48.188 L 9.79712,-48.373 L 9.85533,-48.5522 L 9.93553,-48.7226 L 10.0365,-48.8817
 L 10.1565,-49.0268 L 10.2939,-49.1558 L 10.4463,-49.2665 L 10.6113,-49.3572 L 10.7865,-49.4266 L 10.9689,-49.4734
 L 11.1558,-49.497 L 11.3442,-49.497 L 11.5311,-49.4734 L 11.7135,-49.4266 L 11.8887,-49.3572 L 12.0537,-49.2665
 L 12.2061,-49.1558 L 12.3434,-49.0268 L 12.4635,-48.8817 L 12.5645,-48.7226 L 12.6447,-48.5522 L 12.7029,-48.373
 L 12.7382,-48.188 L 12.75,-48 L 12.7382,-47.812 L 12.7029,-47.627 L 12.6447,-47.4478 L 12.5645,-47.2774
 L 12.4635,-47.1183 L 12.3434,-46.9732 L 12.2061,-46.8442 L 12.0537,-46.7335 L 11.8887,-46.6428 L 11.7135,-46.5734
 L 11.5311,-46.5266 L 11.3442,-46.503 z
M -3.84418,-46.503 L -4.03107,-46.5266 L -4.21352,-46.5734 L -4.38866,-46.6428 L -4.55373,-46.7335 L -4.70613,-46.8442
 L -4.84344,-46.9732 L -4.96352,-47.1183 L -5.06445,-47.2774 L -5.14465,-47.4478 L -5.20287,-47.627 L -5.23816,-47.812
 L -5.25,-48 L -5.23816,-48.188 L -5.20287,-48.373 L -5.14465,-48.5522 L -5.06445,-48.7226 L -4.96352,-48.8817
 L -4.84344,-49.0268 L -4.70613,-49.1558 L -4.55373,-49.2665 L -4.38866,-49.3572 L -4.21352,-49.4266 L -4.03107,-49.4734
 L -3.84418,-49.497 L -3.65581,-49.497 L -3.46892,-49.4734 L -3.28647,-49.4266 L -3.11133,-49.3572 L -2.94626,-49.2665
 L -2.79385,-49.1558 L -2.65654,-49.0268 L -2.53647,-48.8817 L -2.43553,-48.7226 L -2.35533,-48.5522 L -2.29712,-48.373
 L -2.26183,-48.188 L -2.25,-48 L -2.26183,-47.812 L -2.29712,-47.627 L -2.35533,-47.4478 L -2.43553,-47.2774
 L -2.53647,-47.1183 L -2.65654,-46.9732 L -2.79385,-46.8442 L -2.94626,-46.7335 L -3.11133,-46.6428 L -3.28647,-46.5734
 L -3.46892,-46.5266 L -3.65581,-46.503 z
" stroke="black" fill="lightgray" stroke-width="0.5"/>
</svg>
