solid OpenSCAD_Model
  facet normal 0 0 1
    outer loop
      vertex 1.67329 2.89824 8
      vertex 1.67329 -2.89824 8
      vertex 3.34659 0 8
    endloop
  endfacet
  facet normal -0 0 1
    outer loop
      vertex -1.67329 2.89824 8
      vertex 1.67329 -2.89824 8
      vertex 1.67329 2.89824 8
    endloop
  endfacet
  facet normal 0 0 1
    outer loop
      vertex -1.67329 2.89824 8
      vertex -1.67329 -2.89824 8
      vertex 1.67329 -2.89824 8
    endloop
  endfacet
  facet normal 0 -0 1
    outer loop
      vertex -1.67329 -2.89824 8
      vertex -1.67329 2.89824 8
      vertex -3.34659 0 8
    endloop
  endfacet
  facet normal 0 0 -1
    outer loop
      vertex 1.67329 -2.89824 0
      vertex 1.67329 2.89824 0
      vertex 3.34659 0 0
    endloop
  endfacet
  facet normal 0 0 -1
    outer loop
      vertex -1.67329 -2.89824 0
      vertex 1.67329 2.89824 0
      vertex 1.67329 -2.89824 0
    endloop
  endfacet
  facet normal 0 0 -1
    outer loop
      vertex -1.67329 -2.89824 0
      vertex -1.67329 2.89824 0
      vertex 1.67329 2.89824 0
    endloop
  endfacet
  facet normal 0 -0 -1
    outer loop
      vertex -1.67329 2.89824 0
      vertex -1.67329 -2.89824 0
      vertex -3.34659 0 0
    endloop
  endfacet
  facet normal -0.866025 0.5 0
    outer loop
      vertex -3.34659 0 0
      vertex -1.67329 2.89824 8
      vertex -1.67329 2.89824 0
    endloop
  endfacet
  facet normal -0.866025 0.5 0
    outer loop
      vertex -1.67329 2.89824 8
      vertex -3.34659 0 0
      vertex -3.34659 0 8
    endloop
  endfacet
  facet normal 0 1 -0
    outer loop
      vertex 1.67329 2.89824 0
      vertex -1.67329 2.89824 8
      vertex 1.67329 2.89824 8
    endloop
  endfacet
  facet normal 0 1 0
    outer loop
      vertex -1.67329 2.89824 8
      vertex 1.67329 2.89824 0
      vertex -1.67329 2.89824 0
    endloop
  endfacet
  facet normal 0.866025 -0.5 0
    outer loop
      vertex 1.67329 -2.89824 8
      vertex 3.34659 0 0
      vertex 3.34659 0 8
    endloop
  endfacet
  facet normal 0.866025 -0.5 0
    outer loop
      vertex 3.34659 0 0
      vertex 1.67329 -2.89824 8
      vertex 1.67329 -2.89824 0
    endloop
  endfacet
  facet normal 0.866025 0.5 0
    outer loop
      vertex 3.34659 0 8
      vertex 1.67329 2.89824 0
      vertex 1.67329 2.89824 8
    endloop
  endfacet
  facet normal 0.866025 0.5 0
    outer loop
      vertex 1.67329 2.89824 0
      vertex 3.34659 0 8
      vertex 3.34659 0 0
    endloop
  endfacet
  facet normal 0 -1 0
    outer loop
      vertex -1.67329 -2.89824 0
      vertex 1.67329 -2.89824 8
      vertex -1.67329 -2.89824 8
    endloop
  endfacet
  facet normal 0 -1 -0
    outer loop
      vertex 1.67329 -2.89824 8
      vertex -1.67329 -2.89824 0
      vertex 1.67329 -2.89824 0
    endloop
  endfacet
  facet normal -0.866025 -0.5 0
    outer loop
      vertex -1.67329 -2.89824 0
      vertex -3.34659 0 8
      vertex -3.34659 0 0
    endloop
  endfacet
  facet normal -0.866025 -0.5 0
    outer loop
      vertex -3.34659 0 8
      vertex -1.67329 -2.89824 0
      vertex -1.67329 -2.89824 8
    endloop
  endfacet
endsolid OpenSCAD_Model
