  0
SECTION
  2
BLOCKS
  0
ENDSEC
  0
SECTION
  2
ENTITIES
  0
LINE
  8
0
 10
3.17349
 20
5.75
 11
1.58675
 21
8.49832
  0
LINE
  8
0
 10
1.58675
 20
8.49832
 11
-1.58675
 21
8.49832
  0
LINE
  8
0
 10
-1.58675
 20
8.49832
 11
-3.17349
 21
5.75
  0
LINE
  8
0
 10
-3.17349
 20
5.75
 11
-1.58675
 21
3.00168
  0
LINE
  8
0
 10
-1.58675
 20
3.00168
 11
1.58675
 21
3.00168
  0
LINE
  8
0
 10
1.58675
 20
3.00168
 11
3.17349
 21
5.75
  0
LINE
  8
0
 10
-0.0941772
 20
4.25296
 11
-0.281067
 21
4.27658
  0
LINE
  8
0
 10
-0.281067
 20
4.27658
 11
-0.463516
 21
4.32343
  0
LINE
  8
0
 10
-0.463516
 20
4.32343
 11
-0.638657
 21
4.39276
  0
LINE
  8
0
 10
-0.638657
 20
4.39276
 11
-0.803726
 21
4.48352
  0
LINE
  8
0
 10
-0.803726
 20
4.48352
 11
-0.956131
 21
4.59424
  0
LINE
  8
0
 10
-0.956131
 20
4.59424
 11
-1.09344
 21
4.72319
  0
LINE
  8
0
 10
-1.09344
 20
4.72319
 11
-1.21352
 21
4.86833
  0
LINE
  8
0
 10
-1.21352
 20
4.86833
 11
-1.31445
 21
5.02737
  0
LINE
  8
0
 10
-1.31445
 20
5.02737
 11
-1.39465
 21
5.19781
  0
LINE
  8
0
 10
-1.39465
 20
5.19781
 11
-1.45287
 21
5.37697
  0
LINE
  8
0
 10
-1.45287
 20
5.37697
 11
-1.48816
 21
5.56201
  0
LINE
  8
0
 10
-1.48816
 20
5.56201
 11
-1.5
 21
5.75
  0
LINE
  8
0
 10
-1.5
 20
5.75
 11
-1.48816
 21
5.93799
  0
LINE
  8
0
 10
-1.48816
 20
5.93799
 11
-1.45287
 21
6.12303
  0
LINE
  8
0
 10
-1.45287
 20
6.12303
 11
-1.39465
 21
6.30219
  0
LINE
  8
0
 10
-1.39465
 20
6.30219
 11
-1.31445
 21
6.47263
  0
LINE
  8
0
 10
-1.31445
 20
6.47263
 11
-1.21352
 21
6.63167
  0
LINE
  8
0
 10
-1.21352
 20
6.63167
 11
-1.09344
 21
6.77681
  0
LINE
  8
0
 10
-1.09344
 20
6.77681
 11
-0.956131
 21
6.90576
  0
LINE
  8
0
 10
-0.956131
 20
6.90576
 11
-0.803726
 21
7.01648
  0
LINE
  8
0
 10
-0.803726
 20
7.01648
 11
-0.638657
 21
7.10724
  0
LINE
  8
0
 10
-0.638657
 20
7.10724
 11
-0.463516
 21
7.17657
  0
LINE
  8
0
 10
-0.463516
 20
7.17657
 11
-0.281067
 21
7.22342
  0
LINE
  8
0
 10
-0.281067
 20
7.22342
 11
-0.0941772
 21
7.24704
  0
LINE
  8
0
 10
-0.0941772
 20
7.24704
 11
0.0941772
 21
7.24704
  0
LINE
  8
0
 10
0.0941772
 20
7.24704
 11
0.281067
 21
7.22342
  0
LINE
  8
0
 10
0.281067
 20
7.22342
 11
0.463516
 21
7.17657
  0
LINE
  8
0
 10
0.463516
 20
7.17657
 11
0.638657
 21
7.10724
  0
LINE
  8
0
 10
0.638657
 20
7.10724
 11
0.803726
 21
7.01648
  0
LINE
  8
0
 10
0.803726
 20
7.01648
 11
0.956131
 21
6.90576
  0
LINE
  8
0
 10
0.956131
 20
6.90576
 11
1.09344
 21
6.77681
  0
LINE
  8
0
 10
1.09344
 20
6.77681
 11
1.21352
 21
6.63167
  0
LINE
  8
0
 10
1.21352
 20
6.63167
 11
1.31445
 21
6.47263
  0
LINE
  8
0
 10
1.31445
 20
6.47263
 11
1.39465
 21
6.30219
  0
LINE
  8
0
 10
1.39465
 20
6.30219
 11
1.45287
 21
6.12303
  0
LINE
  8
0
 10
1.45287
 20
6.12303
 11
1.48816
 21
5.93799
  0
LINE
  8
0
 10
1.48816
 20
5.93799
 11
1.5
 21
5.75
  0
LINE
  8
0
 10
1.5
 20
5.75
 11
1.48816
 21
5.56201
  0
LINE
  8
0
 10
1.48816
 20
5.56201
 11
1.45287
 21
5.37697
  0
LINE
  8
0
 10
1.45287
 20
5.37697
 11
1.39465
 21
5.19781
  0
LINE
  8
0
 10
1.39465
 20
5.19781
 11
1.31445
 21
5.02737
  0
LINE
  8
0
 10
1.31445
 20
5.02737
 11
1.21352
 21
4.86833
  0
LINE
  8
0
 10
1.21352
 20
4.86833
 11
1.09344
 21
4.72319
  0
LINE
  8
0
 10
1.09344
 20
4.72319
 11
0.956131
 21
4.59424
  0
LINE
  8
0
 10
0.956131
 20
4.59424
 11
0.803726
 21
4.48352
  0
LINE
  8
0
 10
0.803726
 20
4.48352
 11
0.638657
 21
4.39276
  0
LINE
  8
0
 10
0.638657
 20
4.39276
 11
0.463516
 21
4.32343
  0
LINE
  8
0
 10
0.463516
 20
4.32343
 11
0.281067
 21
4.27658
  0
LINE
  8
0
 10
0.281067
 20
4.27658
 11
0.0941772
 21
4.25296
  0
LINE
  8
0
 10
0.0941772
 20
4.25296
 11
-0.0941772
 21
4.25296
  0
ENDSEC
  0
SECTION
  2
OBJECTS
  0
DICTIONARY
  0
ENDSEC
  0
EOF
