<?xml version="1.0" standalone="no"?>
<!DOCTYPE svg PUBLIC "-//W3C//DTD SVG 1.1//EN" "http://www.w3.org/Graphics/SVG/1.1/DTD/svg11.dtd">
<svg width="16mm" height="69mm" viewBox="-8 -132 16 69" xmlns="http://www.w3.org/2000/svg" version="1.1">
<title>OpenSCAD Model</title>
<path d="
M 3.4369,-102.089 L 4.04507,-102.245 L 4.62889,-102.476 L 5.17912,-102.778 L 5.68712,-103.147 L 6.14484,-103.577
 L 6.54507,-104.061 L 6.88153,-104.591 L 7.14888,-105.159 L 7.34291,-105.757 L 7.46057,-106.373 L 7.5,-107
 L 7.5,-127 L 7.46057,-127.627 L 7.34291,-128.243 L 7.14888,-128.841 L 6.88153,-129.409 L 6.54507,-129.939
 L 6.14484,-130.423 L 5.68712,-130.853 L 5.17912,-131.222 L 4.62889,-131.524 L 4.04507,-131.755 L 3.4369,-131.911
 L 2.81395,-131.99 L -2.81395,-131.99 L -3.4369,-131.911 L -4.04507,-131.755 L -4.62889,-131.524 L -5.17912,-131.222
 L -5.68712,-130.853 L -6.14484,-130.423 L -6.54507,-129.939 L -6.88153,-129.409 L -7.14888,-128.841 L -7.34291,-128.243
 L -7.46057,-127.627 L -7.5,-127 L -7.5,-107 L -7.46057,-106.373 L -7.34291,-105.757 L -7.14888,-105.159
 L -6.88153,-104.591 L -6.54507,-104.061 L -6.14484,-103.577 L -5.68712,-103.147 L -5.17912,-102.778 L -4.62889,-102.476
 L -4.04507,-102.245 L -3.4369,-102.089 L -2.81395,-102.01 L 2.81395,-102.01 z
M 2.74606,-102.54 L 3.17912,-102.778 L 3.68712,-103.147 L 4.14484,-103.577 L 4.54507,-104.061 L 4.88153,-104.591
 L 5.14888,-105.159 L 5.34291,-105.757 L 5.46057,-106.373 L 5.5,-107 L 5.5,-110 L 5.46057,-110.627
 L 5.34291,-111.243 L 5.14888,-111.841 L 4.88153,-112.409 L 4.54507,-112.939 L 4.14484,-113.423 L 3.68712,-113.853
 L 3.17912,-114.222 L 2.62889,-114.524 L 2.04507,-114.755 L 1.4369,-114.911 L 0.81395,-114.99 L -2.81395,-114.99
 L -3.4369,-114.911 L -4.04507,-114.755 L -4.62889,-114.524 L -5.17912,-114.222 L -5.68712,-113.853 L -6.14484,-113.423
 L -6.54507,-112.939 L -6.88153,-112.409 L -6.96854,-112.224 L -6.96854,-119.776 L -6.88153,-119.591 L -6.54507,-119.061
 L -6.14484,-118.577 L -5.68712,-118.147 L -5.17912,-117.778 L -4.62889,-117.476 L -4.04507,-117.245 L -3.4369,-117.089
 L -2.81395,-117.01 L 0.81395,-117.01 L 1.4369,-117.089 L 2.04507,-117.245 L 2.62889,-117.476 L 3.17912,-117.778
 L 3.68712,-118.147 L 4.14484,-118.577 L 4.54507,-119.061 L 4.88153,-119.591 L 5.14888,-120.159 L 5.34291,-120.757
 L 5.46057,-121.373 L 5.5,-122 L 5.5,-125 L 5.46057,-125.627 L 5.34291,-126.243 L 5.14888,-126.841
 L 4.88153,-127.409 L 4.54507,-127.939 L 4.14484,-128.423 L 3.68712,-128.853 L 3.17912,-129.222 L 2.62889,-129.524
 L 2.04507,-129.755 L 1.4369,-129.911 L 0.81395,-129.99 L -2.81395,-129.99 L -3.4369,-129.911 L -4.04507,-129.755
 L -4.62889,-129.524 L -5.17912,-129.222 L -5.68712,-128.853 L -6.14484,-128.423 L -6.54507,-127.939 L -6.88153,-127.409
 L -6.95227,-127.258 L -6.9333,-127.56 L -6.82814,-128.111 L -6.65474,-128.645 L -6.4158,-129.153 L -6.11511,-129.627
 L -5.75742,-130.059 L -5.34834,-130.443 L -4.89436,-130.773 L -4.4026,-131.043 L -3.88084,-131.25 L -3.33731,-131.389
 L -2.78058,-131.46 L 2.78058,-131.46 L 3.33731,-131.389 L 3.88084,-131.25 L 4.4026,-131.043 L 4.89436,-130.773
 L 5.34834,-130.443 L 5.75742,-130.059 L 6.11511,-129.627 L 6.4158,-129.153 L 6.65474,-128.645 L 6.82814,-128.111
 L 6.9333,-127.56 L 6.96854,-127 L 6.96854,-107 L 6.9333,-106.44 L 6.82814,-105.889 L 6.65474,-105.355
 L 6.4158,-104.847 L 6.11511,-104.373 L 5.75742,-103.941 L 5.34834,-103.557 L 4.89436,-103.227 L 4.4026,-102.957
 L 3.88084,-102.75 L 3.33731,-102.611 L 2.78058,-102.54 z
M -0.0941772,-123.003 L -0.281067,-123.027 L -0.463516,-123.073 L -0.638657,-123.143 L -0.803726,-123.234 L -0.956131,-123.344
 L -1.09344,-123.473 L -1.21352,-123.618 L -1.31445,-123.777 L -1.39465,-123.948 L -1.45287,-124.127 L -1.48816,-124.312
 L -1.5,-124.5 L -1.48816,-124.688 L -1.45287,-124.873 L -1.39465,-125.052 L -1.31445,-125.223 L -1.21352,-125.382
 L -1.09344,-125.527 L -0.956131,-125.656 L -0.803726,-125.766 L -0.638657,-125.857 L -0.463516,-125.927 L -0.281067,-125.973
 L -0.0941772,-125.997 L 0.0941772,-125.997 L 0.281067,-125.973 L 0.463516,-125.927 L 0.638657,-125.857 L 0.803726,-125.766
 L 0.956131,-125.656 L 1.09344,-125.527 L 1.21352,-125.382 L 1.31445,-125.223 L 1.39465,-125.052 L 1.45287,-124.873
 L 1.48816,-124.688 L 1.5,-124.5 L 1.48816,-124.312 L 1.45287,-124.127 L 1.39465,-123.948 L 1.31445,-123.777
 L 1.21352,-123.618 L 1.09344,-123.473 L 0.956131,-123.344 L 0.803726,-123.234 L 0.638657,-123.143 L 0.463516,-123.073
 L 0.281067,-123.027 L 0.0941772,-123.003 z
M -0.0941772,-108.003 L -0.281067,-108.027 L -0.463516,-108.073 L -0.638657,-108.143 L -0.803726,-108.234 L -0.956131,-108.344
 L -1.09344,-108.473 L -1.21352,-108.618 L -1.31445,-108.777 L -1.39465,-108.948 L -1.45287,-109.127 L -1.48816,-109.312
 L -1.5,-109.5 L -1.48816,-109.688 L -1.45287,-109.873 L -1.39465,-110.052 L -1.31445,-110.223 L -1.21352,-110.382
 L -1.09344,-110.527 L -0.956131,-110.656 L -0.803726,-110.766 L -0.638657,-110.857 L -0.463516,-110.927 L -0.281067,-110.973
 L -0.0941772,-110.997 L 0.0941772,-110.997 L 0.281067,-110.973 L 0.463516,-110.927 L 0.638657,-110.857 L 0.803726,-110.766
 L 0.956131,-110.656 L 1.09344,-110.527 L 1.21352,-110.382 L 1.31445,-110.223 L 1.39465,-110.052 L 1.45287,-109.873
 L 1.48816,-109.688 L 1.5,-109.5 L 1.48816,-109.312 L 1.45287,-109.127 L 1.39465,-108.948 L 1.31445,-108.777
 L 1.21352,-108.618 L 1.09344,-108.473 L 0.956131,-108.344 L 0.803726,-108.234 L 0.638657,-108.143 L 0.463516,-108.073
 L 0.281067,-108.027 L 0.0941772,-108.003 z
M 3.4369,-63.0886 L 4.04507,-63.2447 L 4.62889,-63.4759 L 5.17912,-63.7784 L 5.68712,-64.1474 L 6.14484,-64.5773
 L 6.54507,-65.0611 L 6.88153,-65.5912 L 7.14888,-66.1594 L 7.34291,-66.7566 L 7.46057,-67.3733 L 7.5,-68
 L 7.5,-88 L 7.46057,-88.6267 L 7.34291,-89.2434 L 7.14888,-89.8406 L 6.88153,-90.4088 L 6.54507,-90.9389
 L 6.14484,-91.4227 L 5.68712,-91.8526 L 5.17912,-92.2216 L 4.62889,-92.5241 L 4.04507,-92.7553 L 3.4369,-92.9114
 L 2.81395,-92.9901 L -2.81395,-92.9901 L -3.4369,-92.9114 L -4.04507,-92.7553 L -4.62889,-92.5241 L -5.17912,-92.2216
 L -5.68712,-91.8526 L -6.14484,-91.4227 L -6.54507,-90.9389 L -6.88153,-90.4088 L -7.14888,-89.8406 L -7.34291,-89.2434
 L -7.46057,-88.6267 L -7.5,-88 L -7.5,-68 L -7.46057,-67.3733 L -7.34291,-66.7566 L -7.14888,-66.1594
 L -6.88153,-65.5912 L -6.54507,-65.0611 L -6.14484,-64.5773 L -5.68712,-64.1474 L -5.17912,-63.7784 L -4.62889,-63.4759
 L -4.04507,-63.2447 L -3.4369,-63.0886 L -2.81395,-63.0099 L 2.81395,-63.0099 z
M 5.14888,-87.8406 L 4.88153,-88.4088 L 4.54507,-88.9389 L 4.14484,-89.4227 L 3.68712,-89.8526 L 3.17912,-90.2216
 L 2.62889,-90.5241 L 2.04507,-90.7553 L 1.80142,-90.8178 L 2.67728,-90.8178 L 3.02905,-90.7734 L 3.37247,-90.6852
 L 3.70215,-90.5547 L 4.01285,-90.3839 L 4.2997,-90.1755 L 4.55817,-89.9328 L 4.78418,-89.6595 L 4.97417,-89.3602
 L 5.12514,-89.0394 L 5.2347,-88.7021 L 5.30115,-88.3539 L 5.32341,-88 L 5.32341,-87.3035 z
M -0.150696,-83.1047 L -0.449707,-83.1425 L -0.741638,-83.2175 L -1.02187,-83.3284 L -1.28598,-83.4736 L -1.52982,-83.6508
 L -1.74951,-83.8571 L -1.94164,-84.0893 L -2.10313,-84.3438 L -2.23146,-84.6165 L -2.32458,-84.9031 L -2.38107,-85.1992
 L -2.39999,-85.5 L -2.38107,-85.8008 L -2.32458,-86.0968 L -2.23146,-86.3835 L -2.10313,-86.6562 L -1.94164,-86.9107
 L -1.74951,-87.1429 L -1.52982,-87.3492 L -1.28598,-87.5264 L -1.02187,-87.6716 L -0.741638,-87.7825 L -0.449707,-87.8575
 L -0.150696,-87.8953 L 0.150696,-87.8953 L 0.449707,-87.8575 L 0.741638,-87.7825 L 1.02187,-87.6716 L 1.28598,-87.5264
 L 1.52982,-87.3492 L 1.74951,-87.1429 L 1.94164,-86.9107 L 2.10313,-86.6562 L 2.23146,-86.3835 L 2.32458,-86.0968
 L 2.38107,-85.8008 L 2.39999,-85.5 L 2.38107,-85.1992 L 2.32458,-84.9031 L 2.23146,-84.6165 L 2.10313,-84.3438
 L 1.94164,-84.0893 L 1.74951,-83.8571 L 1.52982,-83.6508 L 1.28598,-83.4736 L 1.02187,-83.3284 L 0.741638,-83.2175
 L 0.449707,-83.1425 L 0.150696,-83.1047 z
M 5.14888,-72.8406 L 4.88153,-73.4088 L 4.54507,-73.9389 L 4.14484,-74.4227 L 3.68712,-74.8526 L 3.17912,-75.2216
 L 2.62889,-75.5241 L 2.04507,-75.7553 L 1.4369,-75.9114 L 0.81395,-75.9901 L -2.81395,-75.9901 L -3.4369,-75.9114
 L -4.04507,-75.7553 L -4.62889,-75.5241 L -5.17912,-75.2216 L -5.32341,-75.1168 L -5.32341,-78.8832 L -5.17912,-78.7784
 L -4.62889,-78.4759 L -4.04507,-78.2447 L -3.4369,-78.0886 L -2.81395,-78.0099 L 0.81395,-78.0099 L 1.4369,-78.0886
 L 2.04507,-78.2447 L 2.62889,-78.4759 L 3.17912,-78.7784 L 3.68712,-79.1474 L 4.14484,-79.5773 L 4.54507,-80.0611
 L 4.88153,-80.5912 L 5.14888,-81.1594 L 5.32341,-81.6965 L 5.32341,-72.3035 z
M -0.150696,-68.1047 L -0.449707,-68.1425 L -0.741638,-68.2175 L -1.02187,-68.3284 L -1.28598,-68.4736 L -1.52982,-68.6508
 L -1.74951,-68.8571 L -1.94164,-69.0893 L -2.10313,-69.3438 L -2.23146,-69.6165 L -2.32458,-69.9032 L -2.38107,-70.1992
 L -2.39999,-70.5 L -2.38107,-70.8008 L -2.32458,-71.0969 L -2.23146,-71.3835 L -2.10313,-71.6562 L -1.94164,-71.9107
 L -1.74951,-72.1429 L -1.52982,-72.3492 L -1.28598,-72.5264 L -1.02187,-72.6716 L -0.741638,-72.7825 L -0.449707,-72.8575
 L -0.150696,-72.8953 L 0.150696,-72.8953 L 0.449707,-72.8575 L 0.741638,-72.7825 L 1.02187,-72.6716 L 1.28598,-72.5264
 L 1.52982,-72.3492 L 1.74951,-72.1429 L 1.94164,-71.9107 L 2.10313,-71.6562 L 2.23146,-71.3835 L 2.32458,-71.0969
 L 2.38107,-70.8008 L 2.39999,-70.5 L 2.38107,-70.1992 L 2.32458,-69.9032 L 2.23146,-69.6165 L 2.10313,-69.3438
 L 1.94164,-69.0893 L 1.74951,-68.8571 L 1.52982,-68.6508 L 1.28598,-68.4736 L 1.02187,-68.3284 L 0.741638,-68.2175
 L 0.449707,-68.1425 L 0.150696,-68.1047 z
" stroke="black" fill="lightgray" stroke-width="0.5"/>
</svg>
