<?xml version="1.0" standalone="no"?>
<!DOCTYPE svg PUBLIC "-//W3C//DTD SVG 1.1//EN" "http://www.w3.org/Graphics/SVG/1.1/DTD/svg11.dtd">
<svg width="89mm" height="44mm" viewBox="-52 -76 89 44" xmlns="http://www.w3.org/2000/svg" version="1.1">
<title>OpenSCAD Model</title>
<path d="
M 32.9369,-32.0886 L 33.5451,-32.2447 L 34.1289,-32.4759 L 34.6791,-32.7784 L 35.1871,-33.1474 L 35.6448,-33.5773
 L 36.0451,-34.0611 L 36.3815,-34.5912 L 36.6489,-35.1594 L 36.8429,-35.7566 L 36.9606,-36.3733 L 37,-37
 L 37,-71 L 36.9606,-71.6267 L 36.8429,-72.2434 L 36.6489,-72.8406 L 36.3815,-73.4088 L 36.0451,-73.9389
 L 35.6448,-74.4227 L 35.1871,-74.8526 L 34.6791,-75.2216 L 34.1289,-75.5241 L 33.5451,-75.7553 L 32.9369,-75.9114
 L 32.3139,-75.9901 L -47.3139,-75.9901 L -47.9369,-75.9114 L -48.5451,-75.7553 L -49.1289,-75.5241 L -49.6791,-75.2216
 L -50.1871,-74.8526 L -50.6448,-74.4227 L -51.0451,-73.9389 L -51.3815,-73.4088 L -51.6489,-72.8406 L -51.8429,-72.2434
 L -51.9606,-71.6267 L -52,-71 L -52,-58 L -36,-58 L -36,-59.6291 L -36.214,-59.4736
 L -36.4781,-59.3284 L -36.7583,-59.2175 L -37.0503,-59.1425 L -37.3493,-59.1047 L -37.6507,-59.1047 L -37.9497,-59.1425
 L -38.2416,-59.2175 L -38.5219,-59.3284 L -38.786,-59.4736 L -39.0298,-59.6508 L -39.2495,-59.8571 L -39.4416,-60.0893
 L -39.6031,-60.3438 L -39.7315,-60.6165 L -39.8246,-60.9031 L -39.8811,-61.1992 L -39.9,-61.5 L -39.8811,-61.8008
 L -39.8246,-62.0968 L -39.7315,-62.3835 L -39.6031,-62.6562 L -39.4416,-62.9107 L -39.2495,-63.1429 L -39.0298,-63.3492
 L -38.786,-63.5264 L -38.5219,-63.6716 L -38.2416,-63.7825 L -37.9497,-63.8575 L -37.6507,-63.8953 L -37.3493,-63.8953
 L -37.0503,-63.8575 L -36.7583,-63.7825 L -36.4781,-63.6716 L -36.214,-63.5264 L -35.9702,-63.3492 L -35.7505,-63.1429
 L -35.5583,-62.9107 L -35.3969,-62.6562 L -35.2685,-62.3835 L -35.1754,-62.0968 L -35.1189,-61.8008 L -35.1,-61.5
 L -35.1189,-61.1992 L -35.1754,-60.9031 L -35.2685,-60.6165 L -35.3969,-60.3438 L -35.5583,-60.0893 L -35.6322,-60
 L -26,-60 L -26,-57 L -25.569,-57 L -25.569,-51 L -26,-51 L -26,-48
 L -35.6322,-48 L -35.5583,-47.9107 L -35.3969,-47.6562 L -35.2685,-47.3835 L -35.1754,-47.0969 L -35.1189,-46.8008
 L -35.1,-46.5 L -35.1189,-46.1992 L -35.1754,-45.9032 L -35.2685,-45.6165 L -35.3969,-45.3438 L -35.5583,-45.0893
 L -35.7505,-44.8571 L -35.9702,-44.6508 L -36.214,-44.4736 L -36.4781,-44.3284 L -36.7583,-44.2175 L -37.0503,-44.1425
 L -37.3493,-44.1047 L -37.6507,-44.1047 L -37.9497,-44.1425 L -38.2416,-44.2175 L -38.5219,-44.3284 L -38.786,-44.4736
 L -39.0298,-44.6508 L -39.2495,-44.8571 L -39.4416,-45.0893 L -39.6031,-45.3438 L -39.7315,-45.6165 L -39.8246,-45.9032
 L -39.8811,-46.1992 L -39.9,-46.5 L -39.8811,-46.8008 L -39.8246,-47.0969 L -39.7315,-47.3835 L -39.6031,-47.6562
 L -39.4416,-47.9107 L -39.2495,-48.1429 L -39.0298,-48.3492 L -38.786,-48.5264 L -38.5219,-48.6716 L -38.2416,-48.7825
 L -37.9497,-48.8575 L -37.6507,-48.8953 L -37.3493,-48.8953 L -37.0503,-48.8575 L -36.7583,-48.7825 L -36.4781,-48.6716
 L -36.214,-48.5264 L -36,-48.3709 L -36,-50 L -52,-50 L -52,-37 L -51.9606,-36.3733
 L -51.8429,-35.7566 L -51.6489,-35.1594 L -51.3815,-34.5912 L -51.0451,-34.0611 L -50.6448,-33.5773 L -50.1871,-33.1474
 L -49.6791,-32.7784 L -49.1289,-32.4759 L -48.5451,-32.2447 L -47.9369,-32.0886 L -47.3139,-32.0099 L 32.3139,-32.0099
 z
M -0.150696,-69.6047 L -0.449707,-69.6425 L -0.741638,-69.7175 L -1.02187,-69.8284 L -1.28598,-69.9736 L -1.52982,-70.1508
 L -1.74951,-70.3571 L -1.94164,-70.5893 L -2.10313,-70.8438 L -2.23146,-71.1165 L -2.32458,-71.4031 L -2.38107,-71.6992
 L -2.39999,-72 L -2.38107,-72.3008 L -2.32458,-72.5968 L -2.23146,-72.8835 L -2.10313,-73.1562 L -1.94164,-73.4107
 L -1.74951,-73.6429 L -1.52982,-73.8492 L -1.28598,-74.0264 L -1.02187,-74.1716 L -0.741638,-74.2825 L -0.449707,-74.3575
 L -0.150696,-74.3953 L 0.150696,-74.3953 L 0.449707,-74.3575 L 0.741638,-74.2825 L 1.02187,-74.1716 L 1.28598,-74.0264
 L 1.52982,-73.8492 L 1.74951,-73.6429 L 1.94164,-73.4107 L 2.10313,-73.1562 L 2.23146,-72.8835 L 2.32458,-72.5968
 L 2.38107,-72.3008 L 2.39999,-72 L 2.38107,-71.6992 L 2.32458,-71.4031 L 2.23146,-71.1165 L 2.10313,-70.8438
 L 1.94164,-70.5893 L 1.74951,-70.3571 L 1.52982,-70.1508 L 1.28598,-69.9736 L 1.02187,-69.8284 L 0.741638,-69.7175
 L 0.449707,-69.6425 L 0.150696,-69.6047 z
M -15.1884,-66.0059 L -15.5621,-66.0531 L -15.927,-66.1468 L -16.2773,-66.2855 L -16.6075,-66.467 L -16.9123,-66.6884
 L -17.1869,-66.9464 L -17.427,-67.2366 L -17.6289,-67.5547 L -17.7893,-67.8956 L -17.9057,-68.2539 L -17.9763,-68.624
 L -18,-69 L -17.9763,-69.376 L -17.9057,-69.7461 L -17.7893,-70.1044 L -17.6289,-70.4453 L -17.427,-70.7634
 L -17.1869,-71.0536 L -16.9123,-71.3115 L -16.6075,-71.533 L -16.2773,-71.7145 L -15.927,-71.8532 L -15.5621,-71.9469
 L -15.1884,-71.9941 L -14.8116,-71.9941 L -14.4379,-71.9469 L -14.0729,-71.8532 L -13.7227,-71.7145 L -13.3925,-71.533
 L -13.0877,-71.3115 L -12.8131,-71.0536 L -12.5729,-70.7634 L -12.3711,-70.4453 L -12.2107,-70.1044 L -12.0942,-69.7461
 L -12.0237,-69.376 L -12,-69 L -12.0237,-68.624 L -12.0942,-68.2539 L -12.2107,-67.8956 L -12.3711,-67.5547
 L -12.5729,-67.2366 L -12.8131,-66.9464 L -13.0877,-66.6884 L -13.3925,-66.467 L -13.7227,-66.2855 L -14.0729,-66.1468
 L -14.4379,-66.0531 L -14.8116,-66.0059 z
M 29.8116,-66.0059 L 29.4379,-66.0531 L 29.0729,-66.1468 L 28.7227,-66.2855 L 28.3925,-66.467 L 28.0877,-66.6884
 L 27.8131,-66.9464 L 27.5729,-67.2366 L 27.3711,-67.5547 L 27.2107,-67.8956 L 27.0942,-68.2539 L 27.0237,-68.624
 L 27,-69 L 27.0237,-69.376 L 27.0942,-69.7461 L 27.2107,-70.1044 L 27.3711,-70.4453 L 27.5729,-70.7634
 L 27.8131,-71.0536 L 28.0877,-71.3115 L 28.3925,-71.533 L 28.7227,-71.7145 L 29.0729,-71.8532 L 29.4379,-71.9469
 L 29.8116,-71.9941 L 30.1884,-71.9941 L 30.5621,-71.9469 L 30.927,-71.8532 L 31.2773,-71.7145 L 31.6075,-71.533
 L 31.9123,-71.3115 L 32.1869,-71.0536 L 32.427,-70.7634 L 32.6289,-70.4453 L 32.7893,-70.1044 L 32.9057,-69.7461
 L 32.9763,-69.376 L 33,-69 L 32.9763,-68.624 L 32.9057,-68.2539 L 32.7893,-67.8956 L 32.6289,-67.5547
 L 32.427,-67.2366 L 32.1869,-66.9464 L 31.9123,-66.6884 L 31.6075,-66.467 L 31.2773,-66.2855 L 30.927,-66.1468
 L 30.5621,-66.0531 L 30.1884,-66.0059 z
M -45.1884,-66.0059 L -45.5621,-66.0531 L -45.927,-66.1468 L -46.2773,-66.2855 L -46.6075,-66.467 L -46.9123,-66.6884
 L -47.1869,-66.9464 L -47.427,-67.2366 L -47.6289,-67.5547 L -47.7893,-67.8956 L -47.9057,-68.2539 L -47.9763,-68.624
 L -48,-69 L -47.9763,-69.376 L -47.9057,-69.7461 L -47.7893,-70.1044 L -47.6289,-70.4453 L -47.427,-70.7634
 L -47.1869,-71.0536 L -46.9123,-71.3115 L -46.6075,-71.533 L -46.2773,-71.7145 L -45.927,-71.8532 L -45.5621,-71.9469
 L -45.1884,-71.9941 L -44.8116,-71.9941 L -44.4379,-71.9469 L -44.0729,-71.8532 L -43.7227,-71.7145 L -43.3925,-71.533
 L -43.0877,-71.3115 L -42.8131,-71.0536 L -42.5729,-70.7634 L -42.3711,-70.4453 L -42.2107,-70.1044 L -42.0942,-69.7461
 L -42.0237,-69.376 L -42,-69 L -42.0237,-68.624 L -42.0942,-68.2539 L -42.2107,-67.8956 L -42.3711,-67.5547
 L -42.5729,-67.2366 L -42.8131,-66.9464 L -43.0877,-66.6884 L -43.3925,-66.467 L -43.7227,-66.2855 L -44.0729,-66.1468
 L -44.4379,-66.0531 L -44.8116,-66.0059 z
M 14.8116,-66.0059 L 14.4379,-66.0531 L 14.0729,-66.1468 L 13.7227,-66.2855 L 13.3925,-66.467 L 13.0877,-66.6884
 L 12.8131,-66.9464 L 12.5729,-67.2366 L 12.3711,-67.5547 L 12.2107,-67.8956 L 12.0942,-68.2539 L 12.0237,-68.624
 L 12,-69 L 12.0237,-69.376 L 12.0942,-69.7461 L 12.2107,-70.1044 L 12.3711,-70.4453 L 12.5729,-70.7634
 L 12.8131,-71.0536 L 13.0877,-71.3115 L 13.3925,-71.533 L 13.7227,-71.7145 L 14.0729,-71.8532 L 14.4379,-71.9469
 L 14.8116,-71.9941 L 15.1884,-71.9941 L 15.5621,-71.9469 L 15.927,-71.8532 L 16.2773,-71.7145 L 16.6075,-71.533
 L 16.9123,-71.3115 L 17.1869,-71.0536 L 17.427,-70.7634 L 17.6289,-70.4453 L 17.7893,-70.1044 L 17.9057,-69.7461
 L 17.9763,-69.376 L 18,-69 L 17.9763,-68.624 L 17.9057,-68.2539 L 17.7893,-67.8956 L 17.6289,-67.5547
 L 17.427,-67.2366 L 17.1869,-66.9464 L 16.9123,-66.6884 L 16.6075,-66.467 L 16.2773,-66.2855 L 15.927,-66.1468
 L 15.5621,-66.0531 L 15.1884,-66.0059 z
M -30.1884,-66.0059 L -30.5621,-66.0531 L -30.927,-66.1468 L -31.2773,-66.2855 L -31.6075,-66.467 L -31.9123,-66.6884
 L -32.1869,-66.9464 L -32.427,-67.2366 L -32.6289,-67.5547 L -32.7893,-67.8956 L -32.9057,-68.2539 L -32.9763,-68.624
 L -33,-69 L -32.9763,-69.376 L -32.9057,-69.7461 L -32.7893,-70.1044 L -32.6289,-70.4453 L -32.427,-70.7634
 L -32.1869,-71.0536 L -31.9123,-71.3115 L -31.6075,-71.533 L -31.2773,-71.7145 L -30.927,-71.8532 L -30.5621,-71.9469
 L -30.1884,-71.9941 L -29.8116,-71.9941 L -29.4379,-71.9469 L -29.0729,-71.8532 L -28.7227,-71.7145 L -28.3925,-71.533
 L -28.0877,-71.3115 L -27.8131,-71.0536 L -27.5729,-70.7634 L -27.3711,-70.4453 L -27.2107,-70.1044 L -27.0942,-69.7461
 L -27.0237,-69.376 L -27,-69 L -27.0237,-68.624 L -27.0942,-68.2539 L -27.2107,-67.8956 L -27.3711,-67.5547
 L -27.5729,-67.2366 L -27.8131,-66.9464 L -28.0877,-66.6884 L -28.3925,-66.467 L -28.7227,-66.2855 L -29.0729,-66.1468
 L -29.4379,-66.0531 L -29.8116,-66.0059 z
M -37.5942,-67.5029 L -37.7811,-67.5266 L -37.9635,-67.5734 L -38.1387,-67.6427 L -38.3037,-67.7335 L -38.4561,-67.8442
 L -38.5934,-67.9732 L -38.7135,-68.1183 L -38.8145,-68.2774 L -38.8947,-68.4478 L -38.9529,-68.627 L -38.9882,-68.812
 L -39,-69 L -38.9882,-69.188 L -38.9529,-69.373 L -38.8947,-69.5522 L -38.8145,-69.7226 L -38.7135,-69.8817
 L -38.5934,-70.0268 L -38.4561,-70.1558 L -38.3037,-70.2665 L -38.1387,-70.3572 L -37.9635,-70.4266 L -37.7811,-70.4734
 L -37.5942,-70.497 L -37.4058,-70.497 L -37.2189,-70.4734 L -37.0365,-70.4266 L -36.8613,-70.3572 L -36.6963,-70.2665
 L -36.5439,-70.1558 L -36.4065,-70.0268 L -36.2865,-69.8817 L -36.1855,-69.7226 L -36.1053,-69.5522 L -36.0471,-69.373
 L -36.0118,-69.188 L -36,-69 L -36.0118,-68.812 L -36.0471,-68.627 L -36.1053,-68.4478 L -36.1855,-68.2774
 L -36.2865,-68.1183 L -36.4065,-67.9732 L -36.5439,-67.8442 L -36.6963,-67.7335 L -36.8613,-67.6427 L -37.0365,-67.5734
 L -37.2189,-67.5266 L -37.4058,-67.5029 z
M -0.784866,-41.5247 L -2.34225,-41.7214 L -3.8627,-42.1118 L -5.32224,-42.6897 L -6.69783,-43.4459 L -7.96779,-44.3686
 L -9.11211,-45.4432 L -10.1127,-46.6527 L -10.9538,-47.9781 L -11.6222,-49.3985 L -12.1073,-50.8914 L -12.1747,-51.2449
 L -12.2773,-51.2855 L -12.6075,-51.467 L -12.9123,-51.6885 L -13.1869,-51.9464 L -13.427,-52.2366 L -13.6289,-52.5547
 L -13.7893,-52.8956 L -13.9057,-53.2539 L -13.9763,-53.624 L -14,-54 L -13.9763,-54.376 L -13.9057,-54.7461
 L -13.7893,-55.1044 L -13.6289,-55.4453 L -13.427,-55.7634 L -13.1869,-56.0536 L -12.9123,-56.3115 L -12.6075,-56.533
 L -12.2773,-56.7145 L -12.1747,-56.7551 L -12.1073,-57.1086 L -11.6222,-58.6015 L -10.9538,-60.0219 L -10.1127,-61.3473
 L -9.11211,-62.5568 L -7.96779,-63.6314 L -6.69783,-64.5541 L -5.32224,-65.3103 L -3.8627,-65.8882 L -2.34225,-66.2786
 L -0.784866,-66.4753 L 0.784866,-66.4753 L 2.34225,-66.2786 L 3.8627,-65.8882 L 5.32224,-65.3103 L 6.69783,-64.5541
 L 7.96779,-63.6314 L 9.11211,-62.5568 L 10.1127,-61.3473 L 10.9538,-60.0219 L 11.6222,-58.6015 L 12.1073,-57.1086
 L 12.4014,-55.5667 L 12.5,-54 L 12.4014,-52.4333 L 12.1073,-50.8914 L 11.6222,-49.3985 L 10.9538,-47.9781
 L 10.1127,-46.6527 L 9.11211,-45.4432 L 7.96779,-44.3686 L 6.69783,-43.4459 L 5.32224,-42.6897 L 3.8627,-42.1118
 L 2.34225,-41.7214 L 0.784866,-41.5247 z
M -20.0942,-61.0029 L -20.2811,-61.0266 L -20.4635,-61.0734 L -20.6387,-61.1427 L -20.8037,-61.2335 L -20.9561,-61.3442
 L -21.0934,-61.4732 L -21.2135,-61.6183 L -21.3145,-61.7774 L -21.3947,-61.9478 L -21.4529,-62.127 L -21.4882,-62.312
 L -21.5,-62.5 L -21.4882,-62.688 L -21.4529,-62.873 L -21.3947,-63.0522 L -21.3145,-63.2226 L -21.2135,-63.3817
 L -21.0934,-63.5268 L -20.9561,-63.6558 L -20.8037,-63.7665 L -20.6387,-63.8572 L -20.4635,-63.9266 L -20.2811,-63.9734
 L -20.0942,-63.997 L -19.9058,-63.997 L -19.7189,-63.9734 L -19.5365,-63.9266 L -19.3613,-63.8572 L -19.1963,-63.7665
 L -19.0439,-63.6558 L -18.9065,-63.5268 L -18.7865,-63.3817 L -18.6855,-63.2226 L -18.6053,-63.0522 L -18.5471,-62.873
 L -18.5118,-62.688 L -18.5,-62.5 L -18.5118,-62.312 L -18.5471,-62.127 L -18.6053,-61.9478 L -18.6855,-61.7774
 L -18.7865,-61.6183 L -18.9065,-61.4732 L -19.0439,-61.3442 L -19.1963,-61.2335 L -19.3613,-61.1427 L -19.5365,-61.0734
 L -19.7189,-61.0266 L -19.9058,-61.0029 z
M 29.9058,-60.0029 L 29.7189,-60.0266 L 29.5365,-60.0734 L 29.3613,-60.1427 L 29.1963,-60.2335 L 29.0439,-60.3442
 L 28.9065,-60.4732 L 28.7865,-60.6183 L 28.6855,-60.7774 L 28.6053,-60.9478 L 28.5471,-61.127 L 28.5118,-61.312
 L 28.5,-61.5 L 28.5118,-61.688 L 28.5471,-61.873 L 28.6053,-62.0522 L 28.6855,-62.2226 L 28.7865,-62.3817
 L 28.9065,-62.5268 L 29.0439,-62.6558 L 29.1963,-62.7665 L 29.3613,-62.8572 L 29.5365,-62.9266 L 29.7189,-62.9734
 L 29.9058,-62.997 L 30.0942,-62.997 L 30.2811,-62.9734 L 30.4635,-62.9266 L 30.6387,-62.8572 L 30.8037,-62.7665
 L 30.9561,-62.6558 L 31.0934,-62.5268 L 31.2135,-62.3817 L 31.3145,-62.2226 L 31.3947,-62.0522 L 31.4529,-61.873
 L 31.4882,-61.688 L 31.5,-61.5 L 31.4882,-61.312 L 31.4529,-61.127 L 31.3947,-60.9478 L 31.3145,-60.7774
 L 31.2135,-60.6183 L 31.0934,-60.4732 L 30.9561,-60.3442 L 30.8037,-60.2335 L 30.6387,-60.1427 L 30.4635,-60.0734
 L 30.2811,-60.0266 L 30.0942,-60.0029 z
M 29.8116,-51.0059 L 29.4379,-51.0531 L 29.0729,-51.1468 L 28.7227,-51.2855 L 28.3925,-51.467 L 28.0877,-51.6885
 L 27.8131,-51.9464 L 27.5729,-52.2366 L 27.3711,-52.5547 L 27.2107,-52.8956 L 27.0942,-53.2539 L 27.0237,-53.624
 L 27,-54 L 27.0237,-54.376 L 27.0942,-54.7461 L 27.2107,-55.1044 L 27.3711,-55.4453 L 27.5729,-55.7634
 L 27.8131,-56.0536 L 28.0877,-56.3115 L 28.3925,-56.533 L 28.7227,-56.7145 L 29.0729,-56.8532 L 29.4379,-56.9469
 L 29.8116,-56.9941 L 30.1884,-56.9941 L 30.5621,-56.9469 L 30.927,-56.8532 L 31.2773,-56.7145 L 31.6075,-56.533
 L 31.9123,-56.3115 L 32.1869,-56.0536 L 32.427,-55.7634 L 32.6289,-55.4453 L 32.7893,-55.1044 L 32.9057,-54.7461
 L 32.9763,-54.376 L 33,-54 L 32.9763,-53.624 L 32.9057,-53.2539 L 32.7893,-52.8956 L 32.6289,-52.5547
 L 32.427,-52.2366 L 32.1869,-51.9464 L 31.9123,-51.6885 L 31.6075,-51.467 L 31.2773,-51.2855 L 30.927,-51.1468
 L 30.5621,-51.0531 L 30.1884,-51.0059 z
M 17.8493,-51.6047 L 17.5503,-51.6425 L 17.2583,-51.7175 L 16.9781,-51.8284 L 16.714,-51.9736 L 16.4702,-52.1508
 L 16.2505,-52.3571 L 16.0583,-52.5893 L 15.8969,-52.8438 L 15.7685,-53.1165 L 15.6754,-53.4032 L 15.6189,-53.6992
 L 15.6,-54 L 15.6189,-54.3008 L 15.6754,-54.5968 L 15.7685,-54.8835 L 15.8969,-55.1562 L 16.0583,-55.4107
 L 16.2505,-55.6429 L 16.4702,-55.8492 L 16.714,-56.0264 L 16.9781,-56.1716 L 17.2583,-56.2825 L 17.5503,-56.3575
 L 17.8493,-56.3953 L 18.1507,-56.3953 L 18.4497,-56.3575 L 18.7416,-56.2825 L 19.0219,-56.1716 L 19.286,-56.0264
 L 19.5298,-55.8492 L 19.7495,-55.6429 L 19.9416,-55.4107 L 20.1031,-55.1562 L 20.2315,-54.8835 L 20.3246,-54.5968
 L 20.3811,-54.3008 L 20.4,-54 L 20.3811,-53.6992 L 20.3246,-53.4032 L 20.2315,-53.1165 L 20.1031,-52.8438
 L 19.9416,-52.5893 L 19.7495,-52.3571 L 19.5298,-52.1508 L 19.286,-51.9736 L 19.0219,-51.8284 L 18.7416,-51.7175
 L 18.4497,-51.6425 L 18.1507,-51.6047 z
M 29.9058,-45.003 L 29.7189,-45.0266 L 29.5365,-45.0734 L 29.3613,-45.1428 L 29.1963,-45.2335 L 29.0439,-45.3442
 L 28.9065,-45.4732 L 28.7865,-45.6183 L 28.6855,-45.7774 L 28.6053,-45.9478 L 28.5471,-46.127 L 28.5118,-46.312
 L 28.5,-46.5 L 28.5118,-46.688 L 28.5471,-46.873 L 28.6053,-47.0522 L 28.6855,-47.2226 L 28.7865,-47.3817
 L 28.9065,-47.5268 L 29.0439,-47.6558 L 29.1963,-47.7665 L 29.3613,-47.8573 L 29.5365,-47.9266 L 29.7189,-47.9734
 L 29.9058,-47.9971 L 30.0942,-47.9971 L 30.2811,-47.9734 L 30.4635,-47.9266 L 30.6387,-47.8573 L 30.8037,-47.7665
 L 30.9561,-47.6558 L 31.0934,-47.5268 L 31.2135,-47.3817 L 31.3145,-47.2226 L 31.3947,-47.0522 L 31.4529,-46.873
 L 31.4882,-46.688 L 31.5,-46.5 L 31.4882,-46.312 L 31.4529,-46.127 L 31.3947,-45.9478 L 31.3145,-45.7774
 L 31.2135,-45.6183 L 31.0934,-45.4732 L 30.9561,-45.3442 L 30.8037,-45.2335 L 30.6387,-45.1428 L 30.4635,-45.0734
 L 30.2811,-45.0266 L 30.0942,-45.003 z
M -20.0942,-44.003 L -20.2811,-44.0266 L -20.4635,-44.0734 L -20.6387,-44.1428 L -20.8037,-44.2335 L -20.9561,-44.3442
 L -21.0934,-44.4732 L -21.2135,-44.6183 L -21.3145,-44.7774 L -21.3947,-44.9478 L -21.4529,-45.127 L -21.4882,-45.312
 L -21.5,-45.5 L -21.4882,-45.688 L -21.4529,-45.873 L -21.3947,-46.0522 L -21.3145,-46.2226 L -21.2135,-46.3817
 L -21.0934,-46.5268 L -20.9561,-46.6558 L -20.8037,-46.7665 L -20.6387,-46.8573 L -20.4635,-46.9266 L -20.2811,-46.9734
 L -20.0942,-46.9971 L -19.9058,-46.9971 L -19.7189,-46.9734 L -19.5365,-46.9266 L -19.3613,-46.8573 L -19.1963,-46.7665
 L -19.0439,-46.6558 L -18.9065,-46.5268 L -18.7865,-46.3817 L -18.6855,-46.2226 L -18.6053,-46.0522 L -18.5471,-45.873
 L -18.5118,-45.688 L -18.5,-45.5 L -18.5118,-45.312 L -18.5471,-45.127 L -18.6053,-44.9478 L -18.6855,-44.7774
 L -18.7865,-44.6183 L -18.9065,-44.4732 L -19.0439,-44.3442 L -19.1963,-44.2335 L -19.3613,-44.1428 L -19.5365,-44.0734
 L -19.7189,-44.0266 L -19.9058,-44.003 z
M -30.1884,-36.0059 L -30.5621,-36.0531 L -30.927,-36.1468 L -31.2773,-36.2855 L -31.6075,-36.467 L -31.9123,-36.6885
 L -32.1869,-36.9464 L -32.427,-37.2366 L -32.6289,-37.5547 L -32.7893,-37.8956 L -32.9057,-38.2539 L -32.9763,-38.624
 L -33,-39 L -32.9763,-39.376 L -32.9057,-39.7461 L -32.7893,-40.1044 L -32.6289,-40.4453 L -32.427,-40.7634
 L -32.1869,-41.0536 L -31.9123,-41.3116 L -31.6075,-41.533 L -31.2773,-41.7145 L -30.927,-41.8532 L -30.5621,-41.9469
 L -30.1884,-41.9941 L -29.8116,-41.9941 L -29.4379,-41.9469 L -29.0729,-41.8532 L -28.7227,-41.7145 L -28.3925,-41.533
 L -28.0877,-41.3116 L -27.8131,-41.0536 L -27.5729,-40.7634 L -27.3711,-40.4453 L -27.2107,-40.1044 L -27.0942,-39.7461
 L -27.0237,-39.376 L -27,-39 L -27.0237,-38.624 L -27.0942,-38.2539 L -27.2107,-37.8956 L -27.3711,-37.5547
 L -27.5729,-37.2366 L -27.8131,-36.9464 L -28.0877,-36.6885 L -28.3925,-36.467 L -28.7227,-36.2855 L -29.0729,-36.1468
 L -29.4379,-36.0531 L -29.8116,-36.0059 z
M -15.1884,-36.0059 L -15.5621,-36.0531 L -15.927,-36.1468 L -16.2773,-36.2855 L -16.6075,-36.467 L -16.9123,-36.6885
 L -17.1869,-36.9464 L -17.427,-37.2366 L -17.6289,-37.5547 L -17.7893,-37.8956 L -17.9057,-38.2539 L -17.9763,-38.624
 L -18,-39 L -17.9763,-39.376 L -17.9057,-39.7461 L -17.7893,-40.1044 L -17.6289,-40.4453 L -17.427,-40.7634
 L -17.1869,-41.0536 L -16.9123,-41.3116 L -16.6075,-41.533 L -16.2773,-41.7145 L -15.927,-41.8532 L -15.5621,-41.9469
 L -15.1884,-41.9941 L -14.8116,-41.9941 L -14.4379,-41.9469 L -14.0729,-41.8532 L -13.7227,-41.7145 L -13.3925,-41.533
 L -13.0877,-41.3116 L -12.8131,-41.0536 L -12.5729,-40.7634 L -12.3711,-40.4453 L -12.2107,-40.1044 L -12.0942,-39.7461
 L -12.0237,-39.376 L -12,-39 L -12.0237,-38.624 L -12.0942,-38.2539 L -12.2107,-37.8956 L -12.3711,-37.5547
 L -12.5729,-37.2366 L -12.8131,-36.9464 L -13.0877,-36.6885 L -13.3925,-36.467 L -13.7227,-36.2855 L -14.0729,-36.1468
 L -14.4379,-36.0531 L -14.8116,-36.0059 z
M -45.1884,-36.0059 L -45.5621,-36.0531 L -45.927,-36.1468 L -46.2773,-36.2855 L -46.6075,-36.467 L -46.9123,-36.6885
 L -47.1869,-36.9464 L -47.427,-37.2366 L -47.6289,-37.5547 L -47.7893,-37.8956 L -47.9057,-38.2539 L -47.9763,-38.624
 L -48,-39 L -47.9763,-39.376 L -47.9057,-39.7461 L -47.7893,-40.1044 L -47.6289,-40.4453 L -47.427,-40.7634
 L -47.1869,-41.0536 L -46.9123,-41.3116 L -46.6075,-41.533 L -46.2773,-41.7145 L -45.927,-41.8532 L -45.5621,-41.9469
 L -45.1884,-41.9941 L -44.8116,-41.9941 L -44.4379,-41.9469 L -44.0729,-41.8532 L -43.7227,-41.7145 L -43.3925,-41.533
 L -43.0877,-41.3116 L -42.8131,-41.0536 L -42.5729,-40.7634 L -42.3711,-40.4453 L -42.2107,-40.1044 L -42.0942,-39.7461
 L -42.0237,-39.376 L -42,-39 L -42.0237,-38.624 L -42.0942,-38.2539 L -42.2107,-37.8956 L -42.3711,-37.5547
 L -42.5729,-37.2366 L -42.8131,-36.9464 L -43.0877,-36.6885 L -43.3925,-36.467 L -43.7227,-36.2855 L -44.0729,-36.1468
 L -44.4379,-36.0531 L -44.8116,-36.0059 z
M 14.8116,-36.0059 L 14.4379,-36.0531 L 14.0729,-36.1468 L 13.7227,-36.2855 L 13.3925,-36.467 L 13.0877,-36.6885
 L 12.8131,-36.9464 L 12.5729,-37.2366 L 12.3711,-37.5547 L 12.2107,-37.8956 L 12.0942,-38.2539 L 12.0237,-38.624
 L 12,-39 L 12.0237,-39.376 L 12.0942,-39.7461 L 12.2107,-40.1044 L 12.3711,-40.4453 L 12.5729,-40.7634
 L 12.8131,-41.0536 L 13.0877,-41.3116 L 13.3925,-41.533 L 13.7227,-41.7145 L 14.0729,-41.8532 L 14.4379,-41.9469
 L 14.8116,-41.9941 L 15.1884,-41.9941 L 15.5621,-41.9469 L 15.927,-41.8532 L 16.2773,-41.7145 L 16.6075,-41.533
 L 16.9123,-41.3116 L 17.1869,-41.0536 L 17.427,-40.7634 L 17.6289,-40.4453 L 17.7893,-40.1044 L 17.9057,-39.7461
 L 17.9763,-39.376 L 18,-39 L 17.9763,-38.624 L 17.9057,-38.2539 L 17.7893,-37.8956 L 17.6289,-37.5547
 L 17.427,-37.2366 L 17.1869,-36.9464 L 16.9123,-36.6885 L 16.6075,-36.467 L 16.2773,-36.2855 L 15.927,-36.1468
 L 15.5621,-36.0531 L 15.1884,-36.0059 z
M 29.8116,-36.0059 L 29.4379,-36.0531 L 29.0729,-36.1468 L 28.7227,-36.2855 L 28.3925,-36.467 L 28.0877,-36.6885
 L 27.8131,-36.9464 L 27.5729,-37.2366 L 27.3711,-37.5547 L 27.2107,-37.8956 L 27.0942,-38.2539 L 27.0237,-38.624
 L 27,-39 L 27.0237,-39.376 L 27.0942,-39.7461 L 27.2107,-40.1044 L 27.3711,-40.4453 L 27.5729,-40.7634
 L 27.8131,-41.0536 L 28.0877,-41.3116 L 28.3925,-41.533 L 28.7227,-41.7145 L 29.0729,-41.8532 L 29.4379,-41.9469
 L 29.8116,-41.9941 L 30.1884,-41.9941 L 30.5621,-41.9469 L 30.927,-41.8532 L 31.2773,-41.7145 L 31.6075,-41.533
 L 31.9123,-41.3116 L 32.1869,-41.0536 L 32.427,-40.7634 L 32.6289,-40.4453 L 32.7893,-40.1044 L 32.9057,-39.7461
 L 32.9763,-39.376 L 33,-39 L 32.9763,-38.624 L 32.9057,-38.2539 L 32.7893,-37.8956 L 32.6289,-37.5547
 L 32.427,-37.2366 L 32.1869,-36.9464 L 31.9123,-36.6885 L 31.6075,-36.467 L 31.2773,-36.2855 L 30.927,-36.1468
 L 30.5621,-36.0531 L 30.1884,-36.0059 z
M -37.5942,-37.503 L -37.7811,-37.5266 L -37.9635,-37.5734 L -38.1387,-37.6428 L -38.3037,-37.7335 L -38.4561,-37.8442
 L -38.5934,-37.9732 L -38.7135,-38.1183 L -38.8145,-38.2774 L -38.8947,-38.4478 L -38.9529,-38.627 L -38.9882,-38.812
 L -39,-39 L -38.9882,-39.188 L -38.9529,-39.373 L -38.8947,-39.5522 L -38.8145,-39.7226 L -38.7135,-39.8817
 L -38.5934,-40.0268 L -38.4561,-40.1558 L -38.3037,-40.2665 L -38.1387,-40.3573 L -37.9635,-40.4266 L -37.7811,-40.4734
 L -37.5942,-40.4971 L -37.4058,-40.4971 L -37.2189,-40.4734 L -37.0365,-40.4266 L -36.8613,-40.3573 L -36.6963,-40.2665
 L -36.5439,-40.1558 L -36.4065,-40.0268 L -36.2865,-39.8817 L -36.1855,-39.7226 L -36.1053,-39.5522 L -36.0471,-39.373
 L -36.0118,-39.188 L -36,-39 L -36.0118,-38.812 L -36.0471,-38.627 L -36.1053,-38.4478 L -36.1855,-38.2774
 L -36.2865,-38.1183 L -36.4065,-37.9732 L -36.5439,-37.8442 L -36.6963,-37.7335 L -36.8613,-37.6428 L -37.0365,-37.5734
 L -37.2189,-37.5266 L -37.4058,-37.503 z
M -0.150696,-33.6047 L -0.449707,-33.6425 L -0.741638,-33.7175 L -1.02187,-33.8284 L -1.28598,-33.9736 L -1.52982,-34.1508
 L -1.74951,-34.3571 L -1.94164,-34.5893 L -2.10313,-34.8438 L -2.23146,-35.1165 L -2.32458,-35.4032 L -2.38107,-35.6992
 L -2.39999,-36 L -2.38107,-36.3008 L -2.32458,-36.5969 L -2.23146,-36.8835 L -2.10313,-37.1562 L -1.94164,-37.4107
 L -1.74951,-37.6429 L -1.52982,-37.8492 L -1.28598,-38.0264 L -1.02187,-38.1716 L -0.741638,-38.2825 L -0.449707,-38.3575
 L -0.150696,-38.3953 L 0.150696,-38.3953 L 0.449707,-38.3575 L 0.741638,-38.2825 L 1.02187,-38.1716 L 1.28598,-38.0264
 L 1.52982,-37.8492 L 1.74951,-37.6429 L 1.94164,-37.4107 L 2.10313,-37.1562 L 2.23146,-36.8835 L 2.32458,-36.5969
 L 2.38107,-36.3008 L 2.39999,-36 L 2.38107,-35.6992 L 2.32458,-35.4032 L 2.23146,-35.1165 L 2.10313,-34.8438
 L 1.94164,-34.5893 L 1.74951,-34.3571 L 1.52982,-34.1508 L 1.28598,-33.9736 L 1.02187,-33.8284 L 0.741638,-33.7175
 L 0.449707,-33.6425 L 0.150696,-33.6047 z
" stroke="black" fill="lightgray" stroke-width="0.5"/>
</svg>
