<?xml version="1.0" standalone="no"?>
<!DOCTYPE svg PUBLIC "-//W3C//DTD SVG 1.1//EN" "http://www.w3.org/Graphics/SVG/1.1/DTD/svg11.dtd">
<svg width="30mm" height="198mm" viewBox="-15 -375 30 198" xmlns="http://www.w3.org/2000/svg" version="1.1">
<title>OpenSCAD Model</title>
<path d="
M 10.9369,-315.089 L 11.5451,-315.245 L 12.1289,-315.476 L 12.6791,-315.778 L 13.1871,-316.147 L 13.6448,-316.577
 L 14.0451,-317.061 L 14.3815,-317.591 L 14.6489,-318.159 L 14.8429,-318.757 L 14.9606,-319.373 L 15,-320
 L 15,-370 L 14.9606,-370.627 L 14.8429,-371.243 L 14.6489,-371.841 L 14.3815,-372.409 L 14.0451,-372.939
 L 13.6448,-373.423 L 13.1871,-373.853 L 12.6791,-374.222 L 12.1289,-374.524 L 11.5451,-374.755 L 10.9369,-374.911
 L 10.3139,-374.99 L -10.3139,-374.99 L -10.9369,-374.911 L -11.5451,-374.755 L -12.1289,-374.524 L -12.6791,-374.222
 L -13.1871,-373.853 L -13.6448,-373.423 L -14.0451,-372.939 L -14.3815,-372.409 L -14.6489,-371.841 L -14.8429,-371.243
 L -14.9606,-370.627 L -15,-370 L -15,-320 L -14.9606,-319.373 L -14.8429,-318.757 L -14.6489,-318.159
 L -14.3815,-317.591 L -14.0451,-317.061 L -13.6448,-316.577 L -13.1871,-316.147 L -12.6791,-315.778 L -12.1289,-315.476
 L -11.5451,-315.245 L -10.9369,-315.089 L -10.3139,-315.01 L 10.3139,-315.01 z
M -10.0482,-315.509 L -10.6401,-315.584 L -11.2178,-315.732 L -11.7724,-315.952 L -12.2952,-316.239 L -12.7778,-316.59
 L -13.2126,-316.998 L -13.5928,-317.458 L -13.9124,-317.962 L -14.1664,-318.501 L -14.3508,-319.069 L -14.4625,-319.655
 L -14.5,-320.25 L -14.5,-369.75 L -14.4625,-370.345 L -14.3508,-370.931 L -14.1664,-371.499 L -13.9124,-372.038
 L -13.5928,-372.542 L -13.2126,-373.002 L -12.7778,-373.41 L -12.2952,-373.761 L -11.7724,-374.048 L -11.2178,-374.268
 L -10.6401,-374.416 L -10.0482,-374.491 L 10.0482,-374.491 L 10.6401,-374.416 L 11.2178,-374.268 L 11.7724,-374.048
 L 12.2952,-373.761 L 12.7778,-373.41 L 13.2126,-373.002 L 13.5928,-372.542 L 13.9124,-372.038 L 14.1664,-371.499
 L 14.3508,-370.931 L 14.4625,-370.345 L 14.5,-369.75 L 14.5,-320.25 L 14.4625,-319.655 L 14.3508,-319.069
 L 14.1664,-318.501 L 13.9124,-317.962 L 13.5928,-317.458 L 13.2126,-316.998 L 12.7778,-316.59 L 12.2952,-316.239
 L 11.7724,-315.952 L 11.2178,-315.732 L 10.6401,-315.584 L 10.0482,-315.509 z
M 10.9369,-246.089 L 11.5451,-246.245 L 12.1289,-246.476 L 12.6791,-246.778 L 13.1871,-247.147 L 13.6448,-247.577
 L 14.0451,-248.061 L 14.3815,-248.591 L 14.6489,-249.159 L 14.8429,-249.757 L 14.9606,-250.373 L 15,-251
 L 15,-301 L 14.9606,-301.627 L 14.8429,-302.243 L 14.6489,-302.841 L 14.3815,-303.409 L 14.0451,-303.939
 L 13.6448,-304.423 L 13.1871,-304.853 L 12.6791,-305.222 L 12.1289,-305.524 L 11.5451,-305.755 L 10.9369,-305.911
 L 10.3139,-305.99 L -10.3139,-305.99 L -10.9369,-305.911 L -11.5451,-305.755 L -12.1289,-305.524 L -12.6791,-305.222
 L -13.1871,-304.853 L -13.6448,-304.423 L -14.0451,-303.939 L -14.3815,-303.409 L -14.6489,-302.841 L -14.8429,-302.243
 L -14.9606,-301.627 L -15,-301 L -15,-251 L -14.9606,-250.373 L -14.8429,-249.757 L -14.6489,-249.159
 L -14.3815,-248.591 L -14.0451,-248.061 L -13.6448,-247.577 L -13.1871,-247.147 L -12.6791,-246.778 L -12.1289,-246.476
 L -11.5451,-246.245 L -10.9369,-246.089 L -10.3139,-246.01 L 10.3139,-246.01 z
M -10.0375,-246.681 L -10.6079,-246.753 L -11.1648,-246.896 L -11.6994,-247.107 L -12.2032,-247.384 L -12.6684,-247.722
 L -13.0875,-248.116 L -13.454,-248.559 L -13.7621,-249.044 L -14.0069,-249.565 L -14.1846,-250.111 L -14.2923,-250.676
 L -14.3284,-251.25 L -14.3284,-300.75 L -14.2923,-301.324 L -14.1846,-301.889 L -14.0069,-302.435 L -13.7621,-302.956
 L -13.454,-303.441 L -13.0875,-303.884 L -12.6684,-304.278 L -12.2032,-304.616 L -11.6994,-304.893 L -11.1648,-305.104
 L -10.6079,-305.247 L -10.0375,-305.319 L 10.0375,-305.319 L 10.6079,-305.247 L 11.1648,-305.104 L 11.6994,-304.893
 L 12.2032,-304.616 L 12.6684,-304.278 L 13.0875,-303.884 L 13.454,-303.441 L 13.7621,-302.956 L 14.0069,-302.435
 L 14.1846,-301.889 L 14.2923,-301.324 L 14.3284,-300.75 L 14.3284,-251.25 L 14.2923,-250.676 L 14.1846,-250.111
 L 14.0069,-249.565 L 13.7621,-249.044 L 13.454,-248.559 L 13.0875,-248.116 L 12.6684,-247.722 L 12.2032,-247.384
 L 11.6994,-247.107 L 11.1648,-246.896 L 10.6079,-246.753 L 10.0375,-246.681 z
M 10.9369,-177.089 L 11.5451,-177.245 L 12.1289,-177.476 L 12.6791,-177.778 L 13.1871,-178.147 L 13.6448,-178.577
 L 14.0451,-179.061 L 14.3815,-179.591 L 14.6489,-180.159 L 14.8429,-180.757 L 14.9606,-181.373 L 15,-182
 L 15,-232 L 14.9606,-232.627 L 14.8429,-233.243 L 14.6489,-233.841 L 14.3815,-234.409 L 14.0451,-234.939
 L 13.6448,-235.423 L 13.1871,-235.853 L 12.6791,-236.222 L 12.1289,-236.524 L 11.5451,-236.755 L 10.9369,-236.911
 L 10.3139,-236.99 L -10.3139,-236.99 L -10.9369,-236.911 L -11.5451,-236.755 L -12.1289,-236.524 L -12.6791,-236.222
 L -13.1871,-235.853 L -13.6448,-235.423 L -14.0451,-234.939 L -14.3815,-234.409 L -14.6489,-233.841 L -14.8429,-233.243
 L -14.9606,-232.627 L -15,-232 L -15,-182 L -14.9606,-181.373 L -14.8429,-180.757 L -14.6489,-180.159
 L -14.3815,-179.591 L -14.0451,-179.061 L -13.6448,-178.577 L -13.1871,-178.147 L -12.6791,-177.778 L -12.1289,-177.476
 L -11.5451,-177.245 L -10.9369,-177.089 L -10.3139,-177.01 L 10.3139,-177.01 z
M -9.88246,-180.145 L -10.1453,-180.178 L -10.4019,-180.244 L -10.6482,-180.341 L -10.8804,-180.469 L -11.0947,-180.625
 L -11.2878,-180.806 L -11.4567,-181.01 L -11.5987,-181.234 L -11.7115,-181.473 L -11.7934,-181.725 L -11.843,-181.986
 L -11.8596,-182.25 L -11.8596,-231.75 L -11.843,-232.014 L -11.7934,-232.275 L -11.7115,-232.527 L -11.5987,-232.766
 L -11.4567,-232.99 L -11.2878,-233.194 L -11.0947,-233.375 L -10.8804,-233.531 L -10.6482,-233.659 L -10.4019,-233.756
 L -10.1453,-233.822 L -9.88246,-233.855 L 9.88246,-233.855 L 10.1453,-233.822 L 10.4019,-233.756 L 10.6482,-233.659
 L 10.8804,-233.531 L 11.0947,-233.375 L 11.2878,-233.194 L 11.4567,-232.99 L 11.5987,-232.766 L 11.7115,-232.527
 L 11.7934,-232.275 L 11.843,-232.014 L 11.8596,-231.75 L 11.8596,-182.25 L 11.843,-181.986 L 11.7934,-181.725
 L 11.7115,-181.473 L 11.5987,-181.234 L 11.4567,-181.01 L 11.2878,-180.806 L 11.0947,-180.625 L 10.8804,-180.469
 L 10.6482,-180.341 L 10.4019,-180.244 L 10.1453,-180.178 L 9.88246,-180.145 z
" stroke="black" fill="lightgray" stroke-width="0.5"/>
</svg>
