<?xml version="1.0" standalone="no"?>
<!DOCTYPE svg PUBLIC "-//W3C//DTD SVG 1.1//EN" "http://www.w3.org/Graphics/SVG/1.1/DTD/svg11.dtd">
<svg width="40mm" height="207mm" viewBox="-21 -347 40 207" xmlns="http://www.w3.org/2000/svg" version="1.1">
<title>OpenSCAD Model</title>
<path d="
M -17.25,-304.007 L -16.8948,-303.577 L -16.4371,-303.147 L -15.9291,-302.778 L -15.3789,-302.476 L -14.7951,-302.245
 L -14.1869,-302.089 L -13.5639,-302.01 L 13.5639,-302.01 L 14.1869,-302.089 L 14.7951,-302.245 L 15.3789,-302.476
 L 15.9291,-302.778 L 16.4371,-303.147 L 16.8948,-303.577 L 17.2951,-304.061 L 17.6315,-304.591 L 17.8989,-305.159
 L 18.0929,-305.757 L 18.2106,-306.373 L 18.25,-307 L 18.25,-341 L 18.2106,-341.627 L 18.0929,-342.243
 L 17.8989,-342.841 L 17.6315,-343.409 L 17.2951,-343.939 L 16.8948,-344.423 L 16.4371,-344.853 L 15.9291,-345.222
 L 15.3789,-345.524 L 14.7951,-345.755 L 14.1869,-345.911 L 13.5639,-345.99 L -13.5639,-345.99 L -14.1869,-345.911
 L -14.7951,-345.755 L -15.3789,-345.524 L -15.9291,-345.222 L -16.4371,-344.853 L -16.8948,-344.423 L -17.25,-343.993
 L -17.25,-346.49 L -20.25,-346.49 L -20.25,-301.51 L -17.25,-301.51 z
M -13.5012,-303.008 L -13.9995,-303.071 L -14.4861,-303.196 L -14.9531,-303.381 L -15.3933,-303.623 L -15.7997,-303.918
 L -16.1659,-304.262 L -16.4861,-304.649 L -16.7552,-305.073 L -16.9691,-305.528 L -17.1243,-306.005 L -17.2184,-306.499
 L -17.25,-307 L -17.25,-341 L -17.2184,-341.501 L -17.1243,-341.995 L -16.9691,-342.472 L -16.7552,-342.927
 L -16.4861,-343.351 L -16.1659,-343.738 L -15.7997,-344.082 L -15.3933,-344.377 L -14.9531,-344.619 L -14.4861,-344.804
 L -13.9995,-344.929 L -13.5012,-344.992 L 13.5012,-344.992 L 13.9995,-344.929 L 14.4861,-344.804 L 14.9531,-344.619
 L 15.3933,-344.377 L 15.7997,-344.082 L 16.1659,-343.738 L 16.4861,-343.351 L 16.7552,-342.927 L 16.9691,-342.472
 L 17.1243,-341.995 L 17.2184,-341.501 L 17.25,-341 L 17.25,-307 L 17.2184,-306.499 L 17.1243,-306.005
 L 16.9691,-305.528 L 16.7552,-305.073 L 16.4861,-304.649 L 16.1659,-304.262 L 15.7997,-303.918 L 15.3933,-303.623
 L 14.9531,-303.381 L 14.4861,-303.196 L 13.9995,-303.071 L 13.5012,-303.008 z
M -17.25,-250.007 L -16.8948,-249.577 L -16.4371,-249.147 L -15.9291,-248.778 L -15.3789,-248.476 L -14.7951,-248.245
 L -14.1869,-248.089 L -13.5639,-248.01 L 13.5639,-248.01 L 14.1869,-248.089 L 14.7951,-248.245 L 15.3789,-248.476
 L 15.9291,-248.778 L 16.4371,-249.147 L 16.8948,-249.577 L 17.2951,-250.061 L 17.6315,-250.591 L 17.8989,-251.159
 L 18.0929,-251.757 L 18.2106,-252.373 L 18.25,-253 L 18.25,-287 L 18.2106,-287.627 L 18.0929,-288.243
 L 17.8989,-288.841 L 17.6315,-289.409 L 17.2951,-289.939 L 16.8948,-290.423 L 16.4371,-290.853 L 15.9291,-291.222
 L 15.3789,-291.524 L 14.7951,-291.755 L 14.1869,-291.911 L 13.5639,-291.99 L -13.5639,-291.99 L -14.1869,-291.911
 L -14.7951,-291.755 L -15.3789,-291.524 L -15.9291,-291.222 L -16.4371,-290.853 L -16.8948,-290.423 L -17.25,-289.993
 L -17.25,-292.49 L -20.25,-292.49 L -20.25,-247.51 L -17.25,-247.51 z
M -13.4932,-249.135 L -13.9756,-249.196 L -14.4467,-249.317 L -14.8989,-249.496 L -15.3251,-249.73 L -15.7185,-250.016
 L -16.073,-250.349 L -16.383,-250.724 L -16.6436,-251.134 L -16.8507,-251.574 L -17.001,-252.037 L -17.0921,-252.515
 L -17.1226,-253 L -17.1226,-287 L -17.0921,-287.485 L -17.001,-287.963 L -16.8507,-288.426 L -16.6436,-288.866
 L -16.383,-289.276 L -16.073,-289.651 L -15.7185,-289.984 L -15.3251,-290.27 L -14.8989,-290.504 L -14.4467,-290.683
 L -13.9756,-290.804 L -13.4932,-290.865 L 13.4932,-290.865 L 13.9756,-290.804 L 14.4467,-290.683 L 14.8989,-290.504
 L 15.3251,-290.27 L 15.7185,-289.984 L 16.073,-289.651 L 16.383,-289.276 L 16.6436,-288.866 L 16.8507,-288.426
 L 17.001,-287.963 L 17.0921,-287.485 L 17.1226,-287 L 17.1226,-253 L 17.0921,-252.515 L 17.001,-252.037
 L 16.8507,-251.574 L 16.6436,-251.134 L 16.383,-250.724 L 16.073,-250.349 L 15.7185,-250.016 L 15.3251,-249.73
 L 14.8989,-249.496 L 14.4467,-249.317 L 13.9756,-249.196 L 13.4932,-249.135 z
M -17.25,-196.007 L -16.8948,-195.577 L -16.4371,-195.147 L -15.9291,-194.778 L -15.3789,-194.476 L -14.7951,-194.245
 L -14.1869,-194.089 L -13.5639,-194.01 L 13.5639,-194.01 L 14.1869,-194.089 L 14.7951,-194.245 L 15.3789,-194.476
 L 15.9291,-194.778 L 16.4371,-195.147 L 16.8948,-195.577 L 17.2951,-196.061 L 17.6315,-196.591 L 17.8989,-197.159
 L 18.0929,-197.757 L 18.2106,-198.373 L 18.25,-199 L 18.25,-233 L 18.2106,-233.627 L 18.0929,-234.243
 L 17.8989,-234.841 L 17.6315,-235.409 L 17.2951,-235.939 L 16.8948,-236.423 L 16.4371,-236.853 L 15.9291,-237.222
 L 15.3789,-237.524 L 14.7951,-237.755 L 14.1869,-237.911 L 13.5639,-237.99 L -13.5639,-237.99 L -14.1869,-237.911
 L -14.7951,-237.755 L -15.3789,-237.524 L -15.9291,-237.222 L -16.4371,-236.853 L -16.8948,-236.423 L -17.25,-235.993
 L -17.25,-238.115 L -20.25,-238.115 L -20.25,-193.885 L -17.25,-193.885 z
M 14.1869,-140.089 L 14.7951,-140.245 L 15.3789,-140.476 L 15.9291,-140.778 L 16.4371,-141.147 L 16.8948,-141.577
 L 17.2951,-142.061 L 17.6315,-142.591 L 17.8989,-143.159 L 18.0929,-143.757 L 18.2106,-144.373 L 18.25,-145
 L 18.25,-179 L 18.2106,-179.627 L 18.0929,-180.243 L 17.8989,-180.841 L 17.6315,-181.409 L 17.2951,-181.939
 L 16.8948,-182.423 L 16.4371,-182.853 L 15.9291,-183.222 L 15.3789,-183.524 L 14.7951,-183.755 L 14.1869,-183.911
 L 13.5639,-183.99 L -13.5639,-183.99 L -14.1869,-183.911 L -14.7951,-183.755 L -15.3789,-183.524 L -15.9291,-183.222
 L -16.4371,-182.853 L -16.8948,-182.423 L -17.2951,-181.939 L -17.6315,-181.409 L -17.8989,-180.841 L -18.0277,-180.444
 L -20.25,-180.444 L -20.25,-143.556 L -18.0277,-143.556 L -17.8989,-143.159 L -17.6315,-142.591 L -17.2951,-142.061
 L -16.8948,-141.577 L -16.4371,-141.147 L -15.9291,-140.778 L -15.3789,-140.476 L -14.7951,-140.245 L -14.1869,-140.089
 L -13.5639,-140.01 L 13.5639,-140.01 z
M 11.0993,-174.605 L 10.8003,-174.643 L 10.5083,-174.717 L 10.2281,-174.828 L 9.964,-174.974 L 9.72017,-175.151
 L 9.50047,-175.357 L 9.30835,-175.589 L 9.14685,-175.844 L 9.01852,-176.117 L 8.9254,-176.403 L 8.86891,-176.699
 L 8.84999,-177 L 8.86891,-177.301 L 8.9254,-177.597 L 9.01852,-177.883 L 9.14685,-178.156 L 9.30835,-178.411
 L 9.50047,-178.643 L 9.72017,-178.849 L 9.964,-179.026 L 10.2281,-179.172 L 10.5083,-179.283 L 10.8003,-179.357
 L 11.0993,-179.395 L 11.4007,-179.395 L 11.6997,-179.357 L 11.9916,-179.283 L 12.2719,-179.172 L 12.536,-179.026
 L 12.7798,-178.849 L 12.9995,-178.643 L 13.1916,-178.411 L 13.3531,-178.156 L 13.4815,-177.883 L 13.5746,-177.597
 L 13.6311,-177.301 L 13.65,-177 L 13.6311,-176.699 L 13.5746,-176.403 L 13.4815,-176.117 L 13.3531,-175.844
 L 13.1916,-175.589 L 12.9995,-175.357 L 12.7798,-175.151 L 12.536,-174.974 L 12.2719,-174.828 L 11.9916,-174.717
 L 11.6997,-174.643 L 11.4007,-174.605 z
M -11.4007,-174.605 L -11.6997,-174.643 L -11.9916,-174.717 L -12.2719,-174.828 L -12.536,-174.974 L -12.7798,-175.151
 L -12.9995,-175.357 L -13.1916,-175.589 L -13.3531,-175.844 L -13.4815,-176.117 L -13.5746,-176.403 L -13.6311,-176.699
 L -13.65,-177 L -13.6311,-177.301 L -13.5746,-177.597 L -13.4815,-177.883 L -13.3531,-178.156 L -13.1916,-178.411
 L -12.9995,-178.643 L -12.7798,-178.849 L -12.536,-179.026 L -12.2719,-179.172 L -11.9916,-179.283 L -11.6997,-179.357
 L -11.4007,-179.395 L -11.0993,-179.395 L -10.8003,-179.357 L -10.5083,-179.283 L -10.2281,-179.172 L -9.964,-179.026
 L -9.72017,-178.849 L -9.50047,-178.643 L -9.30835,-178.411 L -9.14685,-178.156 L -9.01852,-177.883 L -8.9254,-177.597
 L -8.86891,-177.301 L -8.84999,-177 L -8.86891,-176.699 L -8.9254,-176.403 L -9.01852,-176.117 L -9.14685,-175.844
 L -9.30835,-175.589 L -9.50047,-175.357 L -9.72017,-175.151 L -9.964,-174.974 L -10.2281,-174.828 L -10.5083,-174.717
 L -10.8003,-174.643 L -11.0993,-174.605 z
M -11.4007,-144.605 L -11.6997,-144.643 L -11.9916,-144.717 L -12.2719,-144.828 L -12.536,-144.974 L -12.7798,-145.151
 L -12.9995,-145.357 L -13.1916,-145.589 L -13.3531,-145.844 L -13.4815,-146.117 L -13.5746,-146.403 L -13.6311,-146.699
 L -13.65,-147 L -13.6311,-147.301 L -13.5746,-147.597 L -13.4815,-147.883 L -13.3531,-148.156 L -13.1916,-148.411
 L -12.9995,-148.643 L -12.7798,-148.849 L -12.536,-149.026 L -12.2719,-149.172 L -11.9916,-149.283 L -11.6997,-149.357
 L -11.4007,-149.395 L -11.0993,-149.395 L -10.8003,-149.357 L -10.5083,-149.283 L -10.2281,-149.172 L -9.964,-149.026
 L -9.72017,-148.849 L -9.50047,-148.643 L -9.30835,-148.411 L -9.14685,-148.156 L -9.01852,-147.883 L -8.9254,-147.597
 L -8.86891,-147.301 L -8.84999,-147 L -8.86891,-146.699 L -8.9254,-146.403 L -9.01852,-146.117 L -9.14685,-145.844
 L -9.30835,-145.589 L -9.50047,-145.357 L -9.72017,-145.151 L -9.964,-144.974 L -10.2281,-144.828 L -10.5083,-144.717
 L -10.8003,-144.643 L -11.0993,-144.605 z
M 11.0993,-144.605 L 10.8003,-144.643 L 10.5083,-144.717 L 10.2281,-144.828 L 9.964,-144.974 L 9.72017,-145.151
 L 9.50047,-145.357 L 9.30835,-145.589 L 9.14685,-145.844 L 9.01852,-146.117 L 8.9254,-146.403 L 8.86891,-146.699
 L 8.84999,-147 L 8.86891,-147.301 L 8.9254,-147.597 L 9.01852,-147.883 L 9.14685,-148.156 L 9.30835,-148.411
 L 9.50047,-148.643 L 9.72017,-148.849 L 9.964,-149.026 L 10.2281,-149.172 L 10.5083,-149.283 L 10.8003,-149.357
 L 11.0993,-149.395 L 11.4007,-149.395 L 11.6997,-149.357 L 11.9916,-149.283 L 12.2719,-149.172 L 12.536,-149.026
 L 12.7798,-148.849 L 12.9995,-148.643 L 13.1916,-148.411 L 13.3531,-148.156 L 13.4815,-147.883 L 13.5746,-147.597
 L 13.6311,-147.301 L 13.65,-147 L 13.6311,-146.699 L 13.5746,-146.403 L 13.4815,-146.117 L 13.3531,-145.844
 L 13.1916,-145.589 L 12.9995,-145.357 L 12.7798,-145.151 L 12.536,-144.974 L 12.2719,-144.828 L 11.9916,-144.717
 L 11.6997,-144.643 L 11.4007,-144.605 z
" stroke="black" fill="lightgray" stroke-width="0.5"/>
</svg>
