<?xml version="1.0" standalone="no"?>
<!DOCTYPE svg PUBLIC "-//W3C//DTD SVG 1.1//EN" "http://www.w3.org/Graphics/SVG/1.1/DTD/svg11.dtd">
<svg width="60mm" height="198mm" viewBox="-30 -306 60 198" xmlns="http://www.w3.org/2000/svg" version="1.1">
<title>OpenSCAD Model</title>
<path d="
M 25.9369,-246.089 L 26.5451,-246.245 L 27.1289,-246.476 L 27.6791,-246.778 L 28.1871,-247.147 L 28.6448,-247.577
 L 29.0451,-248.061 L 29.3815,-248.591 L 29.6489,-249.159 L 29.8429,-249.757 L 29.9606,-250.373 L 30,-251
 L 30,-301 L 29.9606,-301.627 L 29.8429,-302.243 L 29.6489,-302.841 L 29.3815,-303.409 L 29.0451,-303.939
 L 28.6448,-304.423 L 28.1871,-304.853 L 27.6791,-305.222 L 27.1289,-305.524 L 26.5451,-305.755 L 25.9369,-305.911
 L 25.3139,-305.99 L -25.3139,-305.99 L -25.9369,-305.911 L -26.5451,-305.755 L -27.1289,-305.524 L -27.6791,-305.222
 L -28.1871,-304.853 L -28.6448,-304.423 L -29.0451,-303.939 L -29.3815,-303.409 L -29.6489,-302.841 L -29.8429,-302.243
 L -29.9606,-301.627 L -30,-301 L -30,-251 L -29.9606,-250.373 L -29.8429,-249.757 L -29.6489,-249.159
 L -29.3815,-248.591 L -29.0451,-248.061 L -28.6448,-247.577 L -28.1871,-247.147 L -27.6791,-246.778 L -27.1289,-246.476
 L -26.5451,-246.245 L -25.9369,-246.089 L -25.3139,-246.01 L 25.3139,-246.01 z
M -19.811,-246.509 L -19.3209,-246.778 L -18.8129,-247.147 L -18.3551,-247.577 L -17.9549,-248.061 L -17.6185,-248.591
 L -17.3511,-249.159 L -17.1571,-249.757 L -17.0394,-250.373 L -17,-251 L -17,-254 L -17.0394,-254.627
 L -17.1571,-255.243 L -17.3511,-255.841 L -17.6185,-256.409 L -17.9549,-256.939 L -18.3551,-257.423 L -18.8129,-257.853
 L -19.3209,-258.222 L -19.8711,-258.524 L -20.4549,-258.755 L -21.0631,-258.911 L -21.686,-258.99 L -25.3139,-258.99
 L -25.9369,-258.911 L -26.5451,-258.755 L -27.1289,-258.524 L -27.6791,-258.222 L -28.1871,-257.853 L -28.6448,-257.423
 L -29.0451,-256.939 L -29.3815,-256.409 L -29.5,-256.157 L -29.5,-301 L -29.4645,-301.564 L -29.3586,-302.119
 L -29.184,-302.657 L -28.9434,-303.168 L -28.6406,-303.645 L -28.2803,-304.08 L -27.8684,-304.467 L -27.4112,-304.799
 L -26.916,-305.072 L -26.3906,-305.28 L -25.8432,-305.42 L -25.2825,-305.491 L 25.2825,-305.491 L 25.8432,-305.42
 L 26.3906,-305.28 L 26.916,-305.072 L 27.4112,-304.799 L 27.8684,-304.467 L 28.2803,-304.08 L 28.6406,-303.645
 L 28.9434,-303.168 L 29.184,-302.657 L 29.3586,-302.119 L 29.4645,-301.564 L 29.5,-301 L 29.5,-251
 L 29.4645,-250.436 L 29.3586,-249.881 L 29.184,-249.343 L 28.9434,-248.832 L 28.6406,-248.355 L 28.2803,-247.92
 L 27.8684,-247.533 L 27.4112,-247.201 L 26.916,-246.928 L 26.3906,-246.72 L 25.8432,-246.58 L 25.2825,-246.509
 z
M 22.9684,-296.044 L 23.2725,-296.122 L 23.5644,-296.238 L 23.8396,-296.389 L 24.0936,-296.574 L 24.3224,-296.789
 L 24.5225,-297.031 L 24.6908,-297.296 L 24.8244,-297.58 L 24.9214,-297.878 L 24.9803,-298.187 L 25,-298.5
 L 24.9803,-298.813 L 24.9214,-299.122 L 24.8244,-299.42 L 24.6908,-299.704 L 24.5225,-299.969 L 24.3224,-300.211
 L 24.0936,-300.426 L 23.8396,-300.611 L 23.5644,-300.762 L 23.2725,-300.878 L 22.9684,-300.956 L 22.657,-300.995
 L 22.343,-300.995 L 22.0315,-300.956 L 21.7274,-300.878 L 21.4355,-300.762 L 21.1604,-300.611 L 20.9064,-300.426
 L 20.6776,-300.211 L 20.4774,-299.969 L 20.3092,-299.704 L 20.1756,-299.42 L 20.0785,-299.122 L 20.0197,-298.813
 L 20,-298.5 L 20.0197,-298.187 L 20.0785,-297.878 L 20.1756,-297.58 L 20.3092,-297.296 L 20.4774,-297.031
 L 20.6776,-296.789 L 20.9064,-296.574 L 21.1604,-296.389 L 21.4355,-296.238 L 21.7274,-296.122 L 22.0315,-296.044
 L 22.343,-296.005 L 22.657,-296.005 z
M 22.4058,-297.003 L 22.2189,-297.027 L 22.0365,-297.073 L 21.8613,-297.143 L 21.6963,-297.234 L 21.5439,-297.344
 L 21.4065,-297.473 L 21.2865,-297.618 L 21.1855,-297.777 L 21.1053,-297.948 L 21.0471,-298.127 L 21.0118,-298.312
 L 21,-298.5 L 21.0118,-298.688 L 21.0471,-298.873 L 21.1053,-299.052 L 21.1855,-299.223 L 21.2865,-299.382
 L 21.4065,-299.527 L 21.5439,-299.656 L 21.6963,-299.766 L 21.8613,-299.857 L 22.0365,-299.927 L 22.2189,-299.973
 L 22.4058,-299.997 L 22.5942,-299.997 L 22.7811,-299.973 L 22.9635,-299.927 L 23.1387,-299.857 L 23.3037,-299.766
 L 23.4561,-299.656 L 23.5934,-299.527 L 23.7135,-299.382 L 23.8145,-299.223 L 23.8947,-299.052 L 23.9529,-298.873
 L 23.9882,-298.688 L 24,-298.5 L 23.9882,-298.312 L 23.9529,-298.127 L 23.8947,-297.948 L 23.8145,-297.777
 L 23.7135,-297.618 L 23.5934,-297.473 L 23.4561,-297.344 L 23.3037,-297.234 L 23.1387,-297.143 L 22.9635,-297.073
 L 22.7811,-297.027 L 22.5942,-297.003 z
M -22.5942,-252.003 L -22.7811,-252.027 L -22.9635,-252.073 L -23.1387,-252.143 L -23.3037,-252.234 L -23.4561,-252.344
 L -23.5934,-252.473 L -23.7135,-252.618 L -23.8145,-252.777 L -23.8947,-252.948 L -23.9529,-253.127 L -23.9882,-253.312
 L -24,-253.5 L -23.9882,-253.688 L -23.9529,-253.873 L -23.8947,-254.052 L -23.8145,-254.223 L -23.7135,-254.382
 L -23.5934,-254.527 L -23.4561,-254.656 L -23.3037,-254.766 L -23.1387,-254.857 L -22.9635,-254.927 L -22.7811,-254.973
 L -22.5942,-254.997 L -22.4058,-254.997 L -22.2189,-254.973 L -22.0365,-254.927 L -21.8613,-254.857 L -21.6963,-254.766
 L -21.5439,-254.656 L -21.4065,-254.527 L -21.2865,-254.382 L -21.1855,-254.223 L -21.1053,-254.052 L -21.0471,-253.873
 L -21.0118,-253.688 L -21,-253.5 L -21.0118,-253.312 L -21.0471,-253.127 L -21.1053,-252.948 L -21.1855,-252.777
 L -21.2865,-252.618 L -21.4065,-252.473 L -21.5439,-252.344 L -21.6963,-252.234 L -21.8613,-252.143 L -22.0365,-252.073
 L -22.2189,-252.027 L -22.4058,-252.003 z
M 25.9369,-177.089 L 26.5451,-177.245 L 27.1289,-177.476 L 27.6791,-177.778 L 28.1871,-178.147 L 28.6448,-178.577
 L 29.0451,-179.061 L 29.3815,-179.591 L 29.6489,-180.159 L 29.8429,-180.757 L 29.9606,-181.373 L 30,-182
 L 30,-232 L 29.9606,-232.627 L 29.8429,-233.243 L 29.6489,-233.841 L 29.3815,-234.409 L 29.0451,-234.939
 L 28.6448,-235.423 L 28.1871,-235.853 L 27.6791,-236.222 L 27.1289,-236.524 L 26.5451,-236.755 L 25.9369,-236.911
 L 25.3139,-236.99 L -25.3139,-236.99 L -25.9369,-236.911 L -26.5451,-236.755 L -27.1289,-236.524 L -27.6791,-236.222
 L -28.1871,-235.853 L -28.6448,-235.423 L -29.0451,-234.939 L -29.3815,-234.409 L -29.6489,-233.841 L -29.8429,-233.243
 L -29.9606,-232.627 L -30,-232 L -30,-182 L -29.9606,-181.373 L -29.8429,-180.757 L -29.6489,-180.159
 L -29.3815,-179.591 L -29.0451,-179.061 L -28.6448,-178.577 L -28.1871,-178.147 L -27.6791,-177.778 L -27.1289,-177.476
 L -26.5451,-177.245 L -25.9369,-177.089 L -25.3139,-177.01 L 25.3139,-177.01 z
M -19.0357,-177.986 L -18.8129,-178.147 L -18.3551,-178.577 L -17.9549,-179.061 L -17.6185,-179.591 L -17.3511,-180.159
 L -17.1571,-180.757 L -17.0394,-181.373 L -17,-182 L -17,-185 L -17.0394,-185.627 L -17.1571,-186.243
 L -17.3511,-186.841 L -17.6185,-187.409 L -17.9549,-187.939 L -18.3551,-188.423 L -18.8129,-188.853 L -19.3209,-189.222
 L -19.8711,-189.524 L -20.4549,-189.755 L -21.0631,-189.911 L -21.686,-189.99 L -25.3139,-189.99 L -25.9369,-189.911
 L -26.5451,-189.755 L -27.1289,-189.524 L -27.6791,-189.222 L -28.1871,-188.853 L -28.6448,-188.423 L -29.0224,-187.966
 L -29.0224,-232 L -28.9907,-232.504 L -28.896,-233 L -28.7399,-233.481 L -28.5248,-233.938 L -28.2542,-234.364
 L -27.9322,-234.754 L -27.5639,-235.099 L -27.1553,-235.396 L -26.7126,-235.64 L -26.243,-235.826 L -25.7537,-235.951
 L -25.2526,-236.014 L 19.0357,-236.014 L 18.8129,-235.853 L 18.3551,-235.423 L 17.9549,-234.939 L 17.6185,-234.409
 L 17.3511,-233.841 L 17.1571,-233.243 L 17.0394,-232.627 L 17,-232 L 17,-229 L 17.0394,-228.373
 L 17.1571,-227.757 L 17.3511,-227.159 L 17.6185,-226.591 L 17.9549,-226.061 L 18.3551,-225.577 L 18.8129,-225.147
 L 19.3209,-224.778 L 19.8711,-224.476 L 20.4549,-224.245 L 21.0631,-224.089 L 21.686,-224.01 L 25.3139,-224.01
 L 25.9369,-224.089 L 26.5451,-224.245 L 27.1289,-224.476 L 27.6791,-224.778 L 28.1871,-225.147 L 28.6448,-225.577
 L 29.0224,-226.034 L 29.0224,-182 L 28.9907,-181.496 L 28.896,-181 L 28.7399,-180.519 L 28.5248,-180.062
 L 28.2542,-179.636 L 27.9322,-179.246 L 27.5639,-178.901 L 27.1553,-178.604 L 26.7126,-178.36 L 26.243,-178.174
 L 25.7537,-178.049 L 25.2526,-177.986 z
M 22.4058,-228.003 L 22.2189,-228.027 L 22.0365,-228.073 L 21.8613,-228.143 L 21.6963,-228.234 L 21.5439,-228.344
 L 21.4065,-228.473 L 21.2865,-228.618 L 21.1855,-228.777 L 21.1053,-228.948 L 21.0471,-229.127 L 21.0118,-229.312
 L 21,-229.5 L 21.0118,-229.688 L 21.0471,-229.873 L 21.1053,-230.052 L 21.1855,-230.223 L 21.2865,-230.382
 L 21.4065,-230.527 L 21.5439,-230.656 L 21.6963,-230.766 L 21.8613,-230.857 L 22.0365,-230.927 L 22.2189,-230.973
 L 22.4058,-230.997 L 22.5942,-230.997 L 22.7811,-230.973 L 22.9635,-230.927 L 23.1387,-230.857 L 23.3037,-230.766
 L 23.4561,-230.656 L 23.5934,-230.527 L 23.7135,-230.382 L 23.8145,-230.223 L 23.8947,-230.052 L 23.9529,-229.873
 L 23.9882,-229.688 L 24,-229.5 L 23.9882,-229.312 L 23.9529,-229.127 L 23.8947,-228.948 L 23.8145,-228.777
 L 23.7135,-228.618 L 23.5934,-228.473 L 23.4561,-228.344 L 23.3037,-228.234 L 23.1387,-228.143 L 22.9635,-228.073
 L 22.7811,-228.027 L 22.5942,-228.003 z
M -22.5942,-183.003 L -22.7811,-183.027 L -22.9635,-183.073 L -23.1387,-183.143 L -23.3037,-183.234 L -23.4561,-183.344
 L -23.5934,-183.473 L -23.7135,-183.618 L -23.8145,-183.777 L -23.8947,-183.948 L -23.9529,-184.127 L -23.9882,-184.312
 L -24,-184.5 L -23.9882,-184.688 L -23.9529,-184.873 L -23.8947,-185.052 L -23.8145,-185.223 L -23.7135,-185.382
 L -23.5934,-185.527 L -23.4561,-185.656 L -23.3037,-185.766 L -23.1387,-185.857 L -22.9635,-185.927 L -22.7811,-185.973
 L -22.5942,-185.997 L -22.4058,-185.997 L -22.2189,-185.973 L -22.0365,-185.927 L -21.8613,-185.857 L -21.6963,-185.766
 L -21.5439,-185.656 L -21.4065,-185.527 L -21.2865,-185.382 L -21.1855,-185.223 L -21.1053,-185.052 L -21.0471,-184.873
 L -21.0118,-184.688 L -21,-184.5 L -21.0118,-184.312 L -21.0471,-184.127 L -21.1053,-183.948 L -21.1855,-183.777
 L -21.2865,-183.618 L -21.4065,-183.473 L -21.5439,-183.344 L -21.6963,-183.234 L -21.8613,-183.143 L -22.0365,-183.073
 L -22.2189,-183.027 L -22.4058,-183.003 z
M 25.9369,-108.089 L 26.5451,-108.245 L 27.1289,-108.476 L 27.6791,-108.778 L 28.1871,-109.147 L 28.6448,-109.577
 L 29.0451,-110.061 L 29.3815,-110.591 L 29.6489,-111.159 L 29.8429,-111.757 L 29.9606,-112.373 L 30,-113
 L 30,-163 L 29.9606,-163.627 L 29.8429,-164.243 L 29.6489,-164.841 L 29.3815,-165.409 L 29.0451,-165.939
 L 28.6448,-166.423 L 28.1871,-166.853 L 27.6791,-167.222 L 27.1289,-167.524 L 26.5451,-167.755 L 25.9369,-167.911
 L 25.3139,-167.99 L -25.3139,-167.99 L -25.9369,-167.911 L -26.5451,-167.755 L -27.1289,-167.524 L -27.6791,-167.222
 L -28.1871,-166.853 L -28.6448,-166.423 L -29.0451,-165.939 L -29.3815,-165.409 L -29.6489,-164.841 L -29.8429,-164.243
 L -29.9606,-163.627 L -30,-163 L -30,-113 L -29.9606,-112.373 L -29.8429,-111.757 L -29.6489,-111.159
 L -29.3815,-110.591 L -29.0451,-110.061 L -28.6448,-109.577 L -28.1871,-109.147 L -27.6791,-108.778 L -27.1289,-108.476
 L -26.5451,-108.245 L -25.9369,-108.089 L -25.3139,-108.01 L 25.3139,-108.01 z
M 22.3493,-158.105 L 22.0503,-158.143 L 21.7583,-158.217 L 21.4781,-158.328 L 21.214,-158.474 L 20.9702,-158.651
 L 20.7505,-158.857 L 20.5583,-159.089 L 20.3969,-159.344 L 20.2685,-159.617 L 20.1754,-159.903 L 20.1189,-160.199
 L 20.1,-160.5 L 20.1189,-160.801 L 20.1754,-161.097 L 20.2685,-161.383 L 20.3969,-161.656 L 20.5583,-161.911
 L 20.7505,-162.143 L 20.9702,-162.349 L 21.214,-162.526 L 21.4781,-162.672 L 21.7583,-162.783 L 22.0503,-162.857
 L 22.3493,-162.895 L 22.6507,-162.895 L 22.9497,-162.857 L 23.2416,-162.783 L 23.5219,-162.672 L 23.786,-162.526
 L 24.0298,-162.349 L 24.2495,-162.143 L 24.4416,-161.911 L 24.6031,-161.656 L 24.7315,-161.383 L 24.8246,-161.097
 L 24.8811,-160.801 L 24.9,-160.5 L 24.8811,-160.199 L 24.8246,-159.903 L 24.7315,-159.617 L 24.6031,-159.344
 L 24.4416,-159.089 L 24.2495,-158.857 L 24.0298,-158.651 L 23.786,-158.474 L 23.5219,-158.328 L 23.2416,-158.217
 L 22.9497,-158.143 L 22.6507,-158.105 z
M -22.5942,-159.003 L -22.7811,-159.027 L -22.9635,-159.073 L -23.1387,-159.143 L -23.3037,-159.234 L -23.4561,-159.344
 L -23.5934,-159.473 L -23.7135,-159.618 L -23.8145,-159.777 L -23.8947,-159.948 L -23.9529,-160.127 L -23.9882,-160.312
 L -24,-160.5 L -23.9882,-160.688 L -23.9529,-160.873 L -23.8947,-161.052 L -23.8145,-161.223 L -23.7135,-161.382
 L -23.5934,-161.527 L -23.4561,-161.656 L -23.3037,-161.766 L -23.1387,-161.857 L -22.9635,-161.927 L -22.7811,-161.973
 L -22.5942,-161.997 L -22.4058,-161.997 L -22.2189,-161.973 L -22.0365,-161.927 L -21.8613,-161.857 L -21.6963,-161.766
 L -21.5439,-161.656 L -21.4065,-161.527 L -21.2865,-161.382 L -21.1855,-161.223 L -21.1053,-161.052 L -21.0471,-160.873
 L -21.0118,-160.688 L -21,-160.5 L -21.0118,-160.312 L -21.0471,-160.127 L -21.1053,-159.948 L -21.1855,-159.777
 L -21.2865,-159.618 L -21.4065,-159.473 L -21.5439,-159.344 L -21.6963,-159.234 L -21.8613,-159.143 L -22.0365,-159.073
 L -22.2189,-159.027 L -22.4058,-159.003 z
M -22.6507,-113.105 L -22.9497,-113.143 L -23.2416,-113.217 L -23.5219,-113.328 L -23.786,-113.474 L -24.0298,-113.651
 L -24.2495,-113.857 L -24.4416,-114.089 L -24.6031,-114.344 L -24.7315,-114.617 L -24.8246,-114.903 L -24.8811,-115.199
 L -24.9,-115.5 L -24.8811,-115.801 L -24.8246,-116.097 L -24.7315,-116.383 L -24.6031,-116.656 L -24.4416,-116.911
 L -24.2495,-117.143 L -24.0298,-117.349 L -23.786,-117.526 L -23.5219,-117.672 L -23.2416,-117.783 L -22.9497,-117.857
 L -22.6507,-117.895 L -22.3493,-117.895 L -22.0503,-117.857 L -21.7583,-117.783 L -21.4781,-117.672 L -21.214,-117.526
 L -20.9702,-117.349 L -20.7505,-117.143 L -20.5583,-116.911 L -20.3969,-116.656 L -20.2685,-116.383 L -20.1754,-116.097
 L -20.1189,-115.801 L -20.1,-115.5 L -20.1189,-115.199 L -20.1754,-114.903 L -20.2685,-114.617 L -20.3969,-114.344
 L -20.5583,-114.089 L -20.7505,-113.857 L -20.9702,-113.651 L -21.214,-113.474 L -21.4781,-113.328 L -21.7583,-113.217
 L -22.0503,-113.143 L -22.3493,-113.105 z
M 22.4058,-114.003 L 22.2189,-114.027 L 22.0365,-114.073 L 21.8613,-114.143 L 21.6963,-114.234 L 21.5439,-114.344
 L 21.4065,-114.473 L 21.2865,-114.618 L 21.1855,-114.777 L 21.1053,-114.948 L 21.0471,-115.127 L 21.0118,-115.312
 L 21,-115.5 L 21.0118,-115.688 L 21.0471,-115.873 L 21.1053,-116.052 L 21.1855,-116.223 L 21.2865,-116.382
 L 21.4065,-116.527 L 21.5439,-116.656 L 21.6963,-116.766 L 21.8613,-116.857 L 22.0365,-116.927 L 22.2189,-116.973
 L 22.4058,-116.997 L 22.5942,-116.997 L 22.7811,-116.973 L 22.9635,-116.927 L 23.1387,-116.857 L 23.3037,-116.766
 L 23.4561,-116.656 L 23.5934,-116.527 L 23.7135,-116.382 L 23.8145,-116.223 L 23.8947,-116.052 L 23.9529,-115.873
 L 23.9882,-115.688 L 24,-115.5 L 23.9882,-115.312 L 23.9529,-115.127 L 23.8947,-114.948 L 23.8145,-114.777
 L 23.7135,-114.618 L 23.5934,-114.473 L 23.4561,-114.344 L 23.3037,-114.234 L 23.1387,-114.143 L 22.9635,-114.073
 L 22.7811,-114.027 L 22.5942,-114.003 z
" stroke="black" fill="lightgray" stroke-width="0.5"/>
</svg>
