<?xml version="1.0" standalone="no"?>
<!DOCTYPE svg PUBLIC "-//W3C//DTD SVG 1.1//EN" "http://www.w3.org/Graphics/SVG/1.1/DTD/svg11.dtd">
<svg width="44mm" height="62mm" viewBox="-22 -127 44 62" xmlns="http://www.w3.org/2000/svg" version="1.1">
<title>OpenSCAD Model</title>
<path d="
M 17.9369,-113.089 L 18.5451,-113.245 L 19.1289,-113.476 L 19.6791,-113.778 L 20.1871,-114.147 L 20.6448,-114.577
 L 21.0451,-115.061 L 21.3815,-115.591 L 21.6489,-116.159 L 21.8429,-116.757 L 21.9606,-117.373 L 22,-118
 L 22,-122 L 21.9606,-122.627 L 21.8429,-123.243 L 21.6489,-123.841 L 21.3815,-124.409 L 21.0451,-124.939
 L 20.6448,-125.423 L 20.1871,-125.853 L 19.6791,-126.222 L 19.1289,-126.524 L 18.5451,-126.755 L 17.9369,-126.911
 L 17.3139,-126.99 L -17.3139,-126.99 L -17.9369,-126.911 L -18.5451,-126.755 L -19.1289,-126.524 L -19.6791,-126.222
 L -20.1871,-125.853 L -20.6448,-125.423 L -21.0451,-124.939 L -21.3815,-124.409 L -21.6489,-123.841 L -21.8429,-123.243
 L -21.9606,-122.627 L -22,-122 L -22,-118 L -21.9606,-117.373 L -21.8429,-116.757 L -21.6489,-116.159
 L -21.3815,-115.591 L -21.0451,-115.061 L -20.6448,-114.577 L -20.1871,-114.147 L -19.6791,-113.778 L -19.1289,-113.476
 L -18.5451,-113.245 L -17.9369,-113.089 L -17.3139,-113.01 L 17.3139,-113.01 z
M -15.3647,-114.203 L -16.0885,-114.294 L -16.7951,-114.475 L -17.4733,-114.744 L -18.1126,-115.095 L -18.7028,-115.524
 L -19.2345,-116.024 L -19.6995,-116.586 L -20.0904,-117.202 L -20.401,-117.862 L -20.6264,-118.555 L -20.7631,-119.272
 L -20.8089,-120 L -20.7631,-120.728 L -20.6264,-121.445 L -20.401,-122.138 L -20.0904,-122.798 L -19.6995,-123.414
 L -19.2345,-123.976 L -18.7028,-124.476 L -18.1126,-124.905 L -17.4733,-125.256 L -16.7951,-125.525 L -16.0885,-125.706
 L -15.3647,-125.797 L 15.3647,-125.797 L 16.0885,-125.706 L 16.7951,-125.525 L 17.4733,-125.256 L 18.1126,-124.905
 L 18.7028,-124.476 L 19.2345,-123.976 L 19.6995,-123.414 L 20.0904,-122.798 L 20.401,-122.138 L 20.6264,-121.445
 L 20.7631,-120.728 L 20.8089,-120 L 20.7631,-119.272 L 20.6264,-118.555 L 20.401,-117.862 L 20.0904,-117.202
 L 19.6995,-116.586 L 19.2345,-116.024 L 18.7028,-115.524 L 18.1126,-115.095 L 17.4733,-114.744 L 16.7951,-114.475
 L 16.0885,-114.294 L 15.3647,-114.203 z
M 17.9369,-89.0886 L 18.5451,-89.2447 L 19.1289,-89.4759 L 19.6791,-89.7784 L 20.1871,-90.1474 L 20.6448,-90.5773
 L 21.0451,-91.0611 L 21.3815,-91.5912 L 21.6489,-92.1594 L 21.8429,-92.7566 L 21.9606,-93.3733 L 22,-94
 L 22,-98 L 21.9606,-98.6267 L 21.8429,-99.2434 L 21.6489,-99.8406 L 21.3815,-100.409 L 21.0451,-100.939
 L 20.6448,-101.423 L 20.1871,-101.853 L 19.6791,-102.222 L 19.1289,-102.524 L 18.5451,-102.755 L 17.9369,-102.911
 L 17.3139,-102.99 L -17.3139,-102.99 L -17.9369,-102.911 L -18.5451,-102.755 L -19.1289,-102.524 L -19.6791,-102.222
 L -20.1871,-101.853 L -20.6448,-101.423 L -21.0451,-100.939 L -21.3815,-100.409 L -21.6489,-99.8406 L -21.8429,-99.2434
 L -21.9606,-98.6267 L -22,-98 L -22,-94 L -21.9606,-93.3733 L -21.8429,-92.7566 L -21.6489,-92.1594
 L -21.3815,-91.5912 L -21.0451,-91.0611 L -20.6448,-90.5773 L -20.1871,-90.1474 L -19.6791,-89.7784 L -19.1289,-89.4759
 L -18.5451,-89.2447 L -17.9369,-89.0886 L -17.3139,-89.0099 L 17.3139,-89.0099 z
M -15.2484,-92.0522 L -15.7412,-92.1145 L -16.2224,-92.238 L -16.6842,-92.4209 L -17.1195,-92.6602 L -17.5214,-92.9522
 L -17.8835,-93.2922 L -18.2001,-93.675 L -18.4663,-94.0944 L -18.6778,-94.5439 L -18.8313,-95.0163 L -18.9244,-95.5042
 L -18.9556,-96 L -18.9244,-96.4958 L -18.8313,-96.9837 L -18.6778,-97.4561 L -18.4663,-97.9056 L -18.2001,-98.325
 L -17.8835,-98.7078 L -17.5214,-99.0478 L -17.1195,-99.3398 L -16.6842,-99.5791 L -16.2224,-99.762 L -15.7412,-99.8855
 L -15.2484,-99.9478 L 15.2484,-99.9478 L 15.7412,-99.8855 L 16.2224,-99.762 L 16.6842,-99.5791 L 17.1195,-99.3398
 L 17.5214,-99.0478 L 17.8835,-98.7078 L 18.2001,-98.325 L 18.4663,-97.9056 L 18.6778,-97.4561 L 18.8313,-96.9837
 L 18.9244,-96.4958 L 18.9556,-96 L 18.9244,-95.5042 L 18.8313,-95.0163 L 18.6778,-94.5439 L 18.4663,-94.0944
 L 18.2001,-93.675 L 17.8835,-93.2922 L 17.5214,-92.9522 L 17.1195,-92.6602 L 16.6842,-92.4209 L 16.2224,-92.238
 L 15.7412,-92.1145 L 15.2484,-92.0522 z
M 17.9369,-65.0886 L 18.5451,-65.2447 L 19.1289,-65.4759 L 19.6791,-65.7784 L 20.1871,-66.1474 L 20.6448,-66.5773
 L 21.0451,-67.0611 L 21.3815,-67.5912 L 21.6489,-68.1594 L 21.8429,-68.7566 L 21.9606,-69.3733 L 22,-70
 L 22,-74 L 21.9606,-74.6267 L 21.8429,-75.2434 L 21.6489,-75.8406 L 21.3815,-76.4088 L 21.0451,-76.9389
 L 20.6448,-77.4227 L 20.1871,-77.8526 L 19.6791,-78.2216 L 19.1289,-78.5241 L 18.5451,-78.7553 L 17.9369,-78.9114
 L 17.3139,-78.9901 L -17.3139,-78.9901 L -17.9369,-78.9114 L -18.5451,-78.7553 L -19.1289,-78.5241 L -19.6791,-78.2216
 L -20.1871,-77.8526 L -20.6448,-77.4227 L -21.0451,-76.9389 L -21.3815,-76.4088 L -21.6489,-75.8406 L -21.8429,-75.2434
 L -21.9606,-74.6267 L -22,-74 L -22,-70 L -21.9606,-69.3733 L -21.8429,-68.7566 L -21.6489,-68.1594
 L -21.3815,-67.5912 L -21.0451,-67.0611 L -20.6448,-66.5773 L -20.1871,-66.1474 L -19.6791,-65.7784 L -19.1289,-65.4759
 L -18.5451,-65.2447 L -17.9369,-65.0886 L -17.3139,-65.0099 L 17.3139,-65.0099 z
M 14.8493,-69.6047 L 14.5503,-69.6425 L 14.2583,-69.7175 L 13.9781,-69.8284 L 13.714,-69.9736 L 13.4702,-70.1508
 L 13.2505,-70.3571 L 13.0583,-70.5893 L 12.8969,-70.8438 L 12.7685,-71.1165 L 12.6754,-71.4032 L 12.6189,-71.6992
 L 12.6,-72 L 12.6189,-72.3008 L 12.6754,-72.5968 L 12.7685,-72.8835 L 12.8969,-73.1562 L 13.0583,-73.4107
 L 13.2505,-73.6429 L 13.4702,-73.8492 L 13.714,-74.0264 L 13.9781,-74.1716 L 14.2583,-74.2825 L 14.5503,-74.3575
 L 14.8493,-74.3953 L 15.1507,-74.3953 L 15.4497,-74.3575 L 15.7416,-74.2825 L 16.0219,-74.1716 L 16.286,-74.0264
 L 16.5298,-73.8492 L 16.7495,-73.6429 L 16.9416,-73.4107 L 17.1031,-73.1562 L 17.2315,-72.8835 L 17.3246,-72.5968
 L 17.3811,-72.3008 L 17.4,-72 L 17.3811,-71.6992 L 17.3246,-71.4032 L 17.2315,-71.1165 L 17.1031,-70.8438
 L 16.9416,-70.5893 L 16.7495,-70.3571 L 16.5298,-70.1508 L 16.286,-69.9736 L 16.0219,-69.8284 L 15.7416,-69.7175
 L 15.4497,-69.6425 L 15.1507,-69.6047 z
M -15.1507,-69.6047 L -15.4497,-69.6425 L -15.7416,-69.7175 L -16.0219,-69.8284 L -16.286,-69.9736 L -16.5298,-70.1508
 L -16.7495,-70.3571 L -16.9416,-70.5893 L -17.1031,-70.8438 L -17.2315,-71.1165 L -17.3246,-71.4032 L -17.3811,-71.6992
 L -17.4,-72 L -17.3811,-72.3008 L -17.3246,-72.5968 L -17.2315,-72.8835 L -17.1031,-73.1562 L -16.9416,-73.4107
 L -16.7495,-73.6429 L -16.5298,-73.8492 L -16.286,-74.0264 L -16.0219,-74.1716 L -15.7416,-74.2825 L -15.4497,-74.3575
 L -15.1507,-74.3953 L -14.8493,-74.3953 L -14.5503,-74.3575 L -14.2583,-74.2825 L -13.9781,-74.1716 L -13.714,-74.0264
 L -13.4702,-73.8492 L -13.2505,-73.6429 L -13.0583,-73.4107 L -12.8969,-73.1562 L -12.7685,-72.8835 L -12.6754,-72.5968
 L -12.6189,-72.3008 L -12.6,-72 L -12.6189,-71.6992 L -12.6754,-71.4032 L -12.7685,-71.1165 L -12.8969,-70.8438
 L -13.0583,-70.5893 L -13.2505,-70.3571 L -13.4702,-70.1508 L -13.714,-69.9736 L -13.9781,-69.8284 L -14.2583,-69.7175
 L -14.5503,-69.6425 L -14.8493,-69.6047 z
" stroke="black" fill="lightgray" stroke-width="0.5"/>
</svg>
