solid OpenSCAD_Model
  facet normal -1 0 0
    outer loop
      vertex -22 -2 0
      vertex -22 2 1
      vertex -22 2 0
    endloop
  endfacet
  facet normal -1 -0 0
    outer loop
      vertex -22 2 1
      vertex -22 -2 0
      vertex -22 -2 1
    endloop
  endfacet
  facet normal -0.998029 -0.0627481 0
    outer loop
      vertex -21.9606 -2.62667 0
      vertex -22 -2 1
      vertex -22 -2 0
    endloop
  endfacet
  facet normal -0.998029 -0.0627481 0
    outer loop
      vertex -22 -2 1
      vertex -21.9606 -2.62667 0
      vertex -21.9606 -2.62667 1
    endloop
  endfacet
  facet normal -0.998029 0.0627481 0
    outer loop
      vertex -22 2 0
      vertex -21.9606 2.62667 1
      vertex -21.9606 2.62667 0
    endloop
  endfacet
  facet normal -0.998029 0.0627481 0
    outer loop
      vertex -21.9606 2.62667 1
      vertex -22 2 0
      vertex -22 2 1
    endloop
  endfacet
  facet normal -0 0 1
    outer loop
      vertex 21.25 0.25 1
      vertex 27 0 1
      vertex 26.9606 0.626666 1
    endloop
  endfacet
  facet normal 0 0 1
    outer loop
      vertex 21.25 0.25 1
      vertex 26.9606 0.626666 1
      vertex 26.8429 1.24345 1
    endloop
  endfacet
  facet normal 0 0 1
    outer loop
      vertex 21.25 -0.25 1
      vertex 27 0 1
      vertex 21.25 0.25 1
    endloop
  endfacet
  facet normal 0 0 1
    outer loop
      vertex 21.25 0.25 1
      vertex 26.8429 1.24345 1
      vertex 26.6489 1.84062 1
    endloop
  endfacet
  facet normal 0 0 1
    outer loop
      vertex 27 0 1
      vertex 21.25 -0.25 1
      vertex 26.9606 -0.626666 1
    endloop
  endfacet
  facet normal 0 0 1
    outer loop
      vertex 21.2027 1.002 1
      vertex 26.6489 1.84062 1
      vertex 26.3815 2.40877 1
    endloop
  endfacet
  facet normal 0 0 1
    outer loop
      vertex 26.9606 -0.626666 1
      vertex 21.25 -0.25 1
      vertex 26.8429 -1.24345 1
    endloop
  endfacet
  facet normal 0 0 1
    outer loop
      vertex 21.2027 1.002 1
      vertex 26.3815 2.40877 1
      vertex 26.0451 2.93893 1
    endloop
  endfacet
  facet normal 0 0 1
    outer loop
      vertex 26.8429 -1.24345 1
      vertex 21.25 -0.25 1
      vertex 26.6489 -1.84062 1
    endloop
  endfacet
  facet normal 0 0 1
    outer loop
      vertex 21.2027 1.002 1
      vertex 26.0451 2.93893 1
      vertex 25.6448 3.42274 1
    endloop
  endfacet
  facet normal -0 0 1
    outer loop
      vertex 21.2027 -1.002 1
      vertex 26.6489 -1.84062 1
      vertex 21.25 -0.25 1
    endloop
  endfacet
  facet normal 0 0 1
    outer loop
      vertex 21.2027 1.002 1
      vertex 25.6448 3.42274 1
      vertex 25.1871 3.85257 1
    endloop
  endfacet
  facet normal 0 0 1
    outer loop
      vertex 26.6489 -1.84062 1
      vertex 21.2027 -1.002 1
      vertex 26.3815 -2.40877 1
    endloop
  endfacet
  facet normal 0 0 1
    outer loop
      vertex 21.0615 1.74214 1
      vertex 25.1871 3.85257 1
      vertex 24.6791 4.22164 1
    endloop
  endfacet
  facet normal 0 0 1
    outer loop
      vertex 26.3815 -2.40877 1
      vertex 21.2027 -1.002 1
      vertex 26.0451 -2.93893 1
    endloop
  endfacet
  facet normal 0 0 1
    outer loop
      vertex 21.0615 1.74214 1
      vertex 24.6791 4.22164 1
      vertex 24.1289 4.52413 1
    endloop
  endfacet
  facet normal 0 0 1
    outer loop
      vertex 26.0451 -2.93893 1
      vertex 21.2027 -1.002 1
      vertex 25.6448 -3.42274 1
    endloop
  endfacet
  facet normal 0 0 1
    outer loop
      vertex 21.0615 1.74214 1
      vertex 24.1289 4.52413 1
      vertex 23.5451 4.75528 1
    endloop
  endfacet
  facet normal 0 0 1
    outer loop
      vertex 25.6448 -3.42274 1
      vertex 21.2027 -1.002 1
      vertex 25.1871 -3.85257 1
    endloop
  endfacet
  facet normal 0 0 1
    outer loop
      vertex 20.8287 2.45875 1
      vertex 23.5451 4.75528 1
      vertex 22.9369 4.91144 1
    endloop
  endfacet
  facet normal -0 0 1
    outer loop
      vertex 21.0615 -1.74214 1
      vertex 25.1871 -3.85257 1
      vertex 21.2027 -1.002 1
    endloop
  endfacet
  facet normal 0 0 1
    outer loop
      vertex 20.8287 2.45875 1
      vertex 22.9369 4.91144 1
      vertex 22.314 4.99013 1
    endloop
  endfacet
  facet normal 0 0 1
    outer loop
      vertex 25.1871 -3.85257 1
      vertex 21.0615 -1.74214 1
      vertex 24.6791 -4.22164 1
    endloop
  endfacet
  facet normal 0 0 1
    outer loop
      vertex 20.5078 3.14052 1
      vertex 22.314 4.99013 1
      vertex 21.686 4.99013 1
    endloop
  endfacet
  facet normal 0 0 1
    outer loop
      vertex 24.6791 -4.22164 1
      vertex 21.0615 -1.74214 1
      vertex 24.1289 -4.52413 1
    endloop
  endfacet
  facet normal 0 0 1
    outer loop
      vertex 24.1289 -4.52413 1
      vertex 21.0615 -1.74214 1
      vertex 23.5451 -4.75528 1
    endloop
  endfacet
  facet normal 0 0 1
    outer loop
      vertex 26.6489 1.84062 1
      vertex 21.2027 1.002 1
      vertex 21.25 0.25 1
    endloop
  endfacet
  facet normal 0 0 1
    outer loop
      vertex 20.5078 3.14052 1
      vertex 21.686 4.99013 1
      vertex 21.0631 4.91144 1
    endloop
  endfacet
  facet normal 0 0 1
    outer loop
      vertex 20.5078 3.14052 1
      vertex 21.0631 4.91144 1
      vertex 21.0626 4.91131 1
    endloop
  endfacet
  facet normal 0 0 1
    outer loop
      vertex 25.1871 3.85257 1
      vertex 21.0615 1.74214 1
      vertex 21.2027 1.002 1
    endloop
  endfacet
  facet normal 0 0 1
    outer loop
      vertex 20.1041 3.77671 1
      vertex 21.0626 4.91131 1
      vertex 21.0451 4.93893 1
    endloop
  endfacet
  facet normal 0 0 1
    outer loop
      vertex 23.5451 4.75528 1
      vertex 20.8287 2.45875 1
      vertex 21.0615 1.74214 1
    endloop
  endfacet
  facet normal 0 0 1
    outer loop
      vertex 19.6238 4.35728 1
      vertex 21.0451 4.93893 1
      vertex 20.6448 5.42274 1
    endloop
  endfacet
  facet normal 0 0 1
    outer loop
      vertex 22.314 4.99013 1
      vertex 20.5078 3.14052 1
      vertex 20.8287 2.45875 1
    endloop
  endfacet
  facet normal 0 0 1
    outer loop
      vertex 19.6238 4.35728 1
      vertex 20.6448 5.42274 1
      vertex 20.1871 5.85257 1
    endloop
  endfacet
  facet normal 0 0 1
    outer loop
      vertex 21.0626 4.91131 1
      vertex 20.1041 3.77671 1
      vertex 20.5078 3.14052 1
    endloop
  endfacet
  facet normal 0 0 1
    outer loop
      vertex 19.0745 4.87308 1
      vertex 20.1871 5.85257 1
      vertex 19.6791 6.22164 1
    endloop
  endfacet
  facet normal 0 0 1
    outer loop
      vertex 21.0451 4.93893 1
      vertex 19.6238 4.35728 1
      vertex 20.1041 3.77671 1
    endloop
  endfacet
  facet normal 0 0 1
    outer loop
      vertex 18.465 5.31597 1
      vertex 19.6791 6.22164 1
      vertex 19.1289 6.52413 1
    endloop
  endfacet
  facet normal 0 0 1
    outer loop
      vertex 20.1871 5.85257 1
      vertex 19.0745 4.87308 1
      vertex 19.6238 4.35728 1
    endloop
  endfacet
  facet normal 0 0 1
    outer loop
      vertex 18.465 5.31597 1
      vertex 19.1289 6.52413 1
      vertex 18.5451 6.75528 1
    endloop
  endfacet
  facet normal 0 0 1
    outer loop
      vertex 19.6791 6.22164 1
      vertex 18.465 5.31597 1
      vertex 19.0745 4.87308 1
    endloop
  endfacet
  facet normal 0 0 1
    outer loop
      vertex 17.8047 5.67896 1
      vertex 18.5451 6.75528 1
      vertex 17.9369 6.91144 1
    endloop
  endfacet
  facet normal 0 0 1
    outer loop
      vertex 18.5451 6.75528 1
      vertex 17.8047 5.67896 1
      vertex 18.465 5.31597 1
    endloop
  endfacet
  facet normal 0 0 1
    outer loop
      vertex 17.1041 5.95634 1
      vertex 17.9369 6.91144 1
      vertex 17.314 6.99013 1
    endloop
  endfacet
  facet normal 0 0 1
    outer loop
      vertex 17.9369 6.91144 1
      vertex 17.1041 5.95634 1
      vertex 17.8047 5.67896 1
    endloop
  endfacet
  facet normal 0 0 1
    outer loop
      vertex 17.314 6.99013 1
      vertex 16.3743 6.14372 1
      vertex 17.1041 5.95634 1
    endloop
  endfacet
  facet normal 0 0 1
    outer loop
      vertex 17.314 6.99013 1
      vertex 15.6267 6.23816 1
      vertex 16.3743 6.14372 1
    endloop
  endfacet
  facet normal 0 0 1
    outer loop
      vertex 17.314 6.99013 1
      vertex -15.6267 6.23816 1
      vertex 15.6267 6.23816 1
    endloop
  endfacet
  facet normal -0 0 1
    outer loop
      vertex -17.314 6.99013 1
      vertex -15.6267 6.23816 1
      vertex 17.314 6.99013 1
    endloop
  endfacet
  facet normal 0 0 1
    outer loop
      vertex -17.314 6.99013 1
      vertex -16.3743 6.14372 1
      vertex -15.6267 6.23816 1
    endloop
  endfacet
  facet normal 0 0 1
    outer loop
      vertex -17.314 6.99013 1
      vertex -17.1041 5.95634 1
      vertex -16.3743 6.14372 1
    endloop
  endfacet
  facet normal -0 0 1
    outer loop
      vertex -17.9369 6.91144 1
      vertex -17.1041 5.95634 1
      vertex -17.314 6.99013 1
    endloop
  endfacet
  facet normal 0 0 1
    outer loop
      vertex -17.1041 5.95634 1
      vertex -17.9369 6.91144 1
      vertex -17.8047 5.67896 1
    endloop
  endfacet
  facet normal -0 0 1
    outer loop
      vertex -18.5451 6.75528 1
      vertex -17.8047 5.67896 1
      vertex -17.9369 6.91144 1
    endloop
  endfacet
  facet normal 0 0 1
    outer loop
      vertex -17.8047 5.67896 1
      vertex -18.5451 6.75528 1
      vertex -18.465 5.31597 1
    endloop
  endfacet
  facet normal -0 0 1
    outer loop
      vertex -19.1289 6.52413 1
      vertex -18.465 5.31597 1
      vertex -18.5451 6.75528 1
    endloop
  endfacet
  facet normal -0 0 1
    outer loop
      vertex -19.6791 6.22164 1
      vertex -18.465 5.31597 1
      vertex -19.1289 6.52413 1
    endloop
  endfacet
  facet normal 0 0 1
    outer loop
      vertex -18.465 5.31597 1
      vertex -19.6791 6.22164 1
      vertex -19.0745 4.87308 1
    endloop
  endfacet
  facet normal -0 0 1
    outer loop
      vertex -20.1871 5.85257 1
      vertex -19.0745 4.87308 1
      vertex -19.6791 6.22164 1
    endloop
  endfacet
  facet normal 0 0 1
    outer loop
      vertex -19.0745 4.87308 1
      vertex -20.1871 5.85257 1
      vertex -19.6238 4.35728 1
    endloop
  endfacet
  facet normal -0 0 1
    outer loop
      vertex -20.6448 5.42274 1
      vertex -19.6238 4.35728 1
      vertex -20.1871 5.85257 1
    endloop
  endfacet
  facet normal -0 0 1
    outer loop
      vertex -21.0451 4.93893 1
      vertex -19.6238 4.35728 1
      vertex -20.6448 5.42274 1
    endloop
  endfacet
  facet normal 0 0 1
    outer loop
      vertex -19.6238 4.35728 1
      vertex -21.0451 4.93893 1
      vertex -20.1041 3.77671 1
    endloop
  endfacet
  facet normal -0 0 1
    outer loop
      vertex -21.3815 4.40877 1
      vertex -20.1041 3.77671 1
      vertex -21.0451 4.93893 1
    endloop
  endfacet
  facet normal 0 0 1
    outer loop
      vertex -20.1041 3.77671 1
      vertex -21.3815 4.40877 1
      vertex -20.5078 3.14052 1
    endloop
  endfacet
  facet normal -0 0 1
    outer loop
      vertex -21.6489 3.84062 1
      vertex -20.5078 3.14052 1
      vertex -21.3815 4.40877 1
    endloop
  endfacet
  facet normal -0 0 1
    outer loop
      vertex -21.8429 3.24345 1
      vertex -20.5078 3.14052 1
      vertex -21.6489 3.84062 1
    endloop
  endfacet
  facet normal 0 0 1
    outer loop
      vertex -20.5078 3.14052 1
      vertex -21.8429 3.24345 1
      vertex -20.8287 2.45875 1
    endloop
  endfacet
  facet normal 0 0 1
    outer loop
      vertex -22 2 1
      vertex -20.8287 2.45875 1
      vertex -21.9606 2.62667 1
    endloop
  endfacet
  facet normal -0 0 1
    outer loop
      vertex -21.9606 2.62667 1
      vertex -20.8287 2.45875 1
      vertex -21.8429 3.24345 1
    endloop
  endfacet
  facet normal -0 0 1
    outer loop
      vertex 20.8287 -2.45875 1
      vertex 23.5451 -4.75528 1
      vertex 21.0615 -1.74214 1
    endloop
  endfacet
  facet normal 0 0 1
    outer loop
      vertex 23.5451 -4.75528 1
      vertex 20.8287 -2.45875 1
      vertex 22.9369 -4.91144 1
    endloop
  endfacet
  facet normal 0 0 1
    outer loop
      vertex 22.9369 -4.91144 1
      vertex 20.8287 -2.45875 1
      vertex 22.314 -4.99013 1
    endloop
  endfacet
  facet normal -0 0 1
    outer loop
      vertex 20.5078 -3.14052 1
      vertex 22.314 -4.99013 1
      vertex 20.8287 -2.45875 1
    endloop
  endfacet
  facet normal 0 0 1
    outer loop
      vertex 22.314 -4.99013 1
      vertex 20.5078 -3.14052 1
      vertex 21.686 -4.99013 1
    endloop
  endfacet
  facet normal 0 0 1
    outer loop
      vertex 21.686 -4.99013 1
      vertex 20.5078 -3.14052 1
      vertex 21.0631 -4.91144 1
    endloop
  endfacet
  facet normal 0 0 1
    outer loop
      vertex 21.0631 -4.91144 1
      vertex 20.5078 -3.14052 1
      vertex 21.0626 -4.91131 1
    endloop
  endfacet
  facet normal -0 0 1
    outer loop
      vertex 20.1041 -3.77671 1
      vertex 21.0626 -4.91131 1
      vertex 20.5078 -3.14052 1
    endloop
  endfacet
  facet normal 0 0 1
    outer loop
      vertex 21.0626 -4.91131 1
      vertex 20.1041 -3.77671 1
      vertex 21.0451 -4.93893 1
    endloop
  endfacet
  facet normal -0 0 1
    outer loop
      vertex 19.6238 -4.35728 1
      vertex 21.0451 -4.93893 1
      vertex 20.1041 -3.77671 1
    endloop
  endfacet
  facet normal 0 0 1
    outer loop
      vertex 21.0451 -4.93893 1
      vertex 19.6238 -4.35728 1
      vertex 20.6448 -5.42274 1
    endloop
  endfacet
  facet normal 0 0 1
    outer loop
      vertex 20.6448 -5.42274 1
      vertex 19.6238 -4.35728 1
      vertex 20.1871 -5.85257 1
    endloop
  endfacet
  facet normal -0 0 1
    outer loop
      vertex 19.0745 -4.87308 1
      vertex 20.1871 -5.85257 1
      vertex 19.6238 -4.35728 1
    endloop
  endfacet
  facet normal 0 0 1
    outer loop
      vertex 20.1871 -5.85257 1
      vertex 19.0745 -4.87308 1
      vertex 19.6791 -6.22164 1
    endloop
  endfacet
  facet normal -0 0 1
    outer loop
      vertex 18.465 -5.31597 1
      vertex 19.6791 -6.22164 1
      vertex 19.0745 -4.87308 1
    endloop
  endfacet
  facet normal 0 0 1
    outer loop
      vertex 19.6791 -6.22164 1
      vertex 18.465 -5.31597 1
      vertex 19.1289 -6.52413 1
    endloop
  endfacet
  facet normal 0 0 1
    outer loop
      vertex 19.1289 -6.52413 1
      vertex 18.465 -5.31597 1
      vertex 18.5451 -6.75528 1
    endloop
  endfacet
  facet normal -0 0 1
    outer loop
      vertex 17.8047 -5.67896 1
      vertex 18.5451 -6.75528 1
      vertex 18.465 -5.31597 1
    endloop
  endfacet
  facet normal 0 0 1
    outer loop
      vertex 18.5451 -6.75528 1
      vertex 17.8047 -5.67896 1
      vertex 17.9369 -6.91144 1
    endloop
  endfacet
  facet normal -0 0 1
    outer loop
      vertex 17.1041 -5.95634 1
      vertex 17.9369 -6.91144 1
      vertex 17.8047 -5.67896 1
    endloop
  endfacet
  facet normal 0 0 1
    outer loop
      vertex 17.9369 -6.91144 1
      vertex 17.1041 -5.95634 1
      vertex 17.314 -6.99013 1
    endloop
  endfacet
  facet normal -0 0 1
    outer loop
      vertex 16.3743 -6.14372 1
      vertex 17.314 -6.99013 1
      vertex 17.1041 -5.95634 1
    endloop
  endfacet
  facet normal -0 0 1
    outer loop
      vertex 15.6267 -6.23816 1
      vertex 17.314 -6.99013 1
      vertex 16.3743 -6.14372 1
    endloop
  endfacet
  facet normal -0 0 1
    outer loop
      vertex -15.6267 -6.23816 1
      vertex 17.314 -6.99013 1
      vertex 15.6267 -6.23816 1
    endloop
  endfacet
  facet normal 0 0 1
    outer loop
      vertex -15.6267 -6.23816 1
      vertex -17.314 -6.99013 1
      vertex 17.314 -6.99013 1
    endloop
  endfacet
  facet normal 0 0 1
    outer loop
      vertex -16.3743 -6.14372 1
      vertex -17.314 -6.99013 1
      vertex -15.6267 -6.23816 1
    endloop
  endfacet
  facet normal 0 0 1
    outer loop
      vertex -17.1041 -5.95634 1
      vertex -17.314 -6.99013 1
      vertex -16.3743 -6.14372 1
    endloop
  endfacet
  facet normal 0 0 1
    outer loop
      vertex -17.9369 -6.91144 1
      vertex -17.1041 -5.95634 1
      vertex -17.8047 -5.67896 1
    endloop
  endfacet
  facet normal 0 0 1
    outer loop
      vertex -17.1041 -5.95634 1
      vertex -17.9369 -6.91144 1
      vertex -17.314 -6.99013 1
    endloop
  endfacet
  facet normal 0 0 1
    outer loop
      vertex -18.5451 -6.75528 1
      vertex -17.8047 -5.67896 1
      vertex -18.465 -5.31597 1
    endloop
  endfacet
  facet normal 0 0 1
    outer loop
      vertex -17.8047 -5.67896 1
      vertex -18.5451 -6.75528 1
      vertex -17.9369 -6.91144 1
    endloop
  endfacet
  facet normal 0 0 1
    outer loop
      vertex -19.6791 -6.22164 1
      vertex -18.465 -5.31597 1
      vertex -19.0745 -4.87308 1
    endloop
  endfacet
  facet normal 0 0 1
    outer loop
      vertex -18.465 -5.31597 1
      vertex -19.1289 -6.52413 1
      vertex -18.5451 -6.75528 1
    endloop
  endfacet
  facet normal 0 0 1
    outer loop
      vertex -20.1871 -5.85257 1
      vertex -19.0745 -4.87308 1
      vertex -19.6238 -4.35728 1
    endloop
  endfacet
  facet normal 0 0 1
    outer loop
      vertex -18.465 -5.31597 1
      vertex -19.6791 -6.22164 1
      vertex -19.1289 -6.52413 1
    endloop
  endfacet
  facet normal 0 0 1
    outer loop
      vertex -21.0451 -4.93893 1
      vertex -19.6238 -4.35728 1
      vertex -20.1041 -3.77671 1
    endloop
  endfacet
  facet normal 0 0 1
    outer loop
      vertex -19.0745 -4.87308 1
      vertex -20.1871 -5.85257 1
      vertex -19.6791 -6.22164 1
    endloop
  endfacet
  facet normal 0 0 1
    outer loop
      vertex -21.3815 -4.40877 1
      vertex -20.1041 -3.77671 1
      vertex -20.5078 -3.14052 1
    endloop
  endfacet
  facet normal 0 0 1
    outer loop
      vertex -19.6238 -4.35728 1
      vertex -20.6448 -5.42274 1
      vertex -20.1871 -5.85257 1
    endloop
  endfacet
  facet normal 0 0 1
    outer loop
      vertex -21.8429 -3.24345 1
      vertex -20.5078 -3.14052 1
      vertex -20.8287 -2.45875 1
    endloop
  endfacet
  facet normal 0 0 1
    outer loop
      vertex -19.6238 -4.35728 1
      vertex -21.0451 -4.93893 1
      vertex -20.6448 -5.42274 1
    endloop
  endfacet
  facet normal -0 0 1
    outer loop
      vertex -22 -2 1
      vertex -20.8287 -2.45875 1
      vertex -21.0615 -1.74214 1
    endloop
  endfacet
  facet normal 0 0 1
    outer loop
      vertex -22 -2 1
      vertex -21.0615 -1.74214 1
      vertex -21.2027 -1.002 1
    endloop
  endfacet
  facet normal 0 0 1
    outer loop
      vertex -22 -2 1
      vertex -21.2027 -1.002 1
      vertex -21.25 -0.25 1
    endloop
  endfacet
  facet normal 0 0 1
    outer loop
      vertex -20.1041 -3.77671 1
      vertex -21.3815 -4.40877 1
      vertex -21.0451 -4.93893 1
    endloop
  endfacet
  facet normal 0 0 1
    outer loop
      vertex -20.8287 2.45875 1
      vertex -22 2 1
      vertex -21.0615 1.74214 1
    endloop
  endfacet
  facet normal 0 0 1
    outer loop
      vertex -21.0615 1.74214 1
      vertex -22 2 1
      vertex -21.2027 1.002 1
    endloop
  endfacet
  facet normal 0 0 1
    outer loop
      vertex -22 -2 1
      vertex -21.25 -0.25 1
      vertex -22 2 1
    endloop
  endfacet
  facet normal 0 0 1
    outer loop
      vertex -21.2027 1.002 1
      vertex -22 2 1
      vertex -21.25 0.25 1
    endloop
  endfacet
  facet normal 0 0 1
    outer loop
      vertex -20.8287 -2.45875 1
      vertex -22 -2 1
      vertex -21.9606 -2.62667 1
    endloop
  endfacet
  facet normal 0 0 1
    outer loop
      vertex -21.25 0.25 1
      vertex -22 2 1
      vertex -21.25 -0.25 1
    endloop
  endfacet
  facet normal 0 0 1
    outer loop
      vertex -20.5078 -3.14052 1
      vertex -21.6489 -3.84062 1
      vertex -21.3815 -4.40877 1
    endloop
  endfacet
  facet normal 0 0 1
    outer loop
      vertex -20.5078 -3.14052 1
      vertex -21.8429 -3.24345 1
      vertex -21.6489 -3.84062 1
    endloop
  endfacet
  facet normal 0 0 1
    outer loop
      vertex -20.8287 -2.45875 1
      vertex -21.9606 -2.62667 1
      vertex -21.8429 -3.24345 1
    endloop
  endfacet
  facet normal 0 1 -0
    outer loop
      vertex 17.314 6.99013 0
      vertex -17.314 6.99013 1
      vertex 17.314 6.99013 1
    endloop
  endfacet
  facet normal 0 1 0
    outer loop
      vertex -17.314 6.99013 1
      vertex 17.314 6.99013 0
      vertex -17.314 6.99013 0
    endloop
  endfacet
  facet normal 0.125332 0.992115 -0
    outer loop
      vertex 17.9369 6.91144 0
      vertex 17.314 6.99013 1
      vertex 17.9369 6.91144 1
    endloop
  endfacet
  facet normal 0.125332 0.992115 0
    outer loop
      vertex 17.314 6.99013 1
      vertex 17.9369 6.91144 0
      vertex 17.314 6.99013 0
    endloop
  endfacet
  facet normal 0 -1 0
    outer loop
      vertex -17.314 -6.99013 0
      vertex 17.314 -6.99013 1
      vertex -17.314 -6.99013 1
    endloop
  endfacet
  facet normal 0 -1 -0
    outer loop
      vertex 17.314 -6.99013 1
      vertex -17.314 -6.99013 0
      vertex 17.314 -6.99013 0
    endloop
  endfacet
  facet normal -0.125332 0.992115 0
    outer loop
      vertex -17.314 6.99013 0
      vertex -17.9369 6.91144 1
      vertex -17.314 6.99013 1
    endloop
  endfacet
  facet normal -0.125332 0.992115 0
    outer loop
      vertex -17.9369 6.91144 1
      vertex -17.314 6.99013 0
      vertex -17.9369 6.91144 0
    endloop
  endfacet
  facet normal -0.125332 -0.992115 0
    outer loop
      vertex -17.9369 -6.91144 0
      vertex -17.314 -6.99013 1
      vertex -17.9369 -6.91144 1
    endloop
  endfacet
  facet normal -0.125332 -0.992115 -0
    outer loop
      vertex -17.314 -6.99013 1
      vertex -17.9369 -6.91144 0
      vertex -17.314 -6.99013 0
    endloop
  endfacet
  facet normal 0.770468 -0.637478 0
    outer loop
      vertex 20.6448 -5.42274 1
      vertex 21.0451 -4.93893 0
      vertex 21.0451 -4.93893 1
    endloop
  endfacet
  facet normal 0.770468 -0.637478 0
    outer loop
      vertex 21.0451 -4.93893 0
      vertex 20.6448 -5.42274 1
      vertex 20.6448 -5.42274 0
    endloop
  endfacet
  facet normal -0.481772 0.876297 0
    outer loop
      vertex -19.1289 6.52413 0
      vertex -19.6791 6.22164 1
      vertex -19.1289 6.52413 1
    endloop
  endfacet
  facet normal -0.481772 0.876297 0
    outer loop
      vertex -19.6791 6.22164 1
      vertex -19.1289 6.52413 0
      vertex -19.6791 6.22164 0
    endloop
  endfacet
  facet normal -0.770468 0.637478 0
    outer loop
      vertex -21.0451 4.93893 0
      vertex -20.6448 5.42274 1
      vertex -20.6448 5.42274 0
    endloop
  endfacet
  facet normal -0.770468 0.637478 0
    outer loop
      vertex -20.6448 5.42274 1
      vertex -21.0451 4.93893 0
      vertex -21.0451 4.93893 1
    endloop
  endfacet
  facet normal 0.587771 0.809027 -0
    outer loop
      vertex 20.1871 5.85257 0
      vertex 19.6791 6.22164 1
      vertex 20.1871 5.85257 1
    endloop
  endfacet
  facet normal 0.587771 0.809027 0
    outer loop
      vertex 19.6791 6.22164 1
      vertex 20.1871 5.85257 0
      vertex 19.6791 6.22164 0
    endloop
  endfacet
  facet normal -0.248691 -0.968583 0
    outer loop
      vertex -18.5451 -6.75528 0
      vertex -17.9369 -6.91144 1
      vertex -18.5451 -6.75528 1
    endloop
  endfacet
  facet normal -0.248691 -0.968583 -0
    outer loop
      vertex -17.9369 -6.91144 1
      vertex -18.5451 -6.75528 0
      vertex -17.9369 -6.91144 0
    endloop
  endfacet
  facet normal -0.951072 0.30897 0
    outer loop
      vertex -21.8429 3.24345 0
      vertex -21.6489 3.84062 1
      vertex -21.6489 3.84062 0
    endloop
  endfacet
  facet normal -0.951072 0.30897 0
    outer loop
      vertex -21.6489 3.84062 1
      vertex -21.8429 3.24345 0
      vertex -21.8429 3.24345 1
    endloop
  endfacet
  facet normal -0.844364 0.53577 0
    outer loop
      vertex -21.3815 4.40877 0
      vertex -21.0451 4.93893 1
      vertex -21.0451 4.93893 0
    endloop
  endfacet
  facet normal -0.844364 0.53577 0
    outer loop
      vertex -21.0451 4.93893 1
      vertex -21.3815 4.40877 0
      vertex -21.3815 4.40877 1
    endloop
  endfacet
  facet normal -0.368135 0.929773 0
    outer loop
      vertex -18.5451 6.75528 0
      vertex -19.1289 6.52413 1
      vertex -18.5451 6.75528 1
    endloop
  endfacet
  facet normal -0.368135 0.929773 0
    outer loop
      vertex -19.1289 6.52413 1
      vertex -18.5451 6.75528 0
      vertex -19.1289 6.52413 0
    endloop
  endfacet
  facet normal -0.248691 0.968583 0
    outer loop
      vertex -17.9369 6.91144 0
      vertex -18.5451 6.75528 1
      vertex -17.9369 6.91144 1
    endloop
  endfacet
  facet normal -0.248691 0.968583 0
    outer loop
      vertex -18.5451 6.75528 1
      vertex -17.9369 6.91144 0
      vertex -18.5451 6.75528 0
    endloop
  endfacet
  facet normal 0.248691 0.968583 -0
    outer loop
      vertex 18.5451 6.75528 0
      vertex 17.9369 6.91144 1
      vertex 18.5451 6.75528 1
    endloop
  endfacet
  facet normal 0.248691 0.968583 0
    outer loop
      vertex 17.9369 6.91144 1
      vertex 18.5451 6.75528 0
      vertex 17.9369 6.91144 0
    endloop
  endfacet
  facet normal 0.770468 0.637478 0
    outer loop
      vertex 21.0451 4.93893 1
      vertex 20.6448 5.42274 0
      vertex 20.6448 5.42274 1
    endloop
  endfacet
  facet normal 0.770468 0.637478 0
    outer loop
      vertex 20.6448 5.42274 0
      vertex 21.0451 4.93893 1
      vertex 21.0451 4.93893 0
    endloop
  endfacet
  facet normal 0.844718 0.535212 0
    outer loop
      vertex 21.0626 4.91131 1
      vertex 21.0451 4.93893 0
      vertex 21.0451 4.93893 1
    endloop
  endfacet
  facet normal 0.844718 0.535212 0
    outer loop
      vertex 21.0451 4.93893 0
      vertex 21.0626 4.91131 1
      vertex 21.0626 4.91131 0
    endloop
  endfacet
  facet normal 0.684565 0.728952 -0
    outer loop
      vertex 20.6448 5.42274 0
      vertex 20.1871 5.85257 1
      vertex 20.6448 5.42274 1
    endloop
  endfacet
  facet normal 0.684565 0.728952 0
    outer loop
      vertex 20.1871 5.85257 1
      vertex 20.6448 5.42274 0
      vertex 20.1871 5.85257 0
    endloop
  endfacet
  facet normal 0 0 -1
    outer loop
      vertex 26.9606 -0.626666 0
      vertex 26.9606 0.626666 0
      vertex 27 0 0
    endloop
  endfacet
  facet normal 0 0 -1
    outer loop
      vertex 26.8429 -1.24345 0
      vertex 26.9606 0.626666 0
      vertex 26.9606 -0.626666 0
    endloop
  endfacet
  facet normal 0 0 -1
    outer loop
      vertex 26.8429 -1.24345 0
      vertex 26.8429 1.24345 0
      vertex 26.9606 0.626666 0
    endloop
  endfacet
  facet normal 0 0 -1
    outer loop
      vertex 26.6489 -1.84062 0
      vertex 26.8429 1.24345 0
      vertex 26.8429 -1.24345 0
    endloop
  endfacet
  facet normal 0 0 -1
    outer loop
      vertex 26.6489 -1.84062 0
      vertex 26.6489 1.84062 0
      vertex 26.8429 1.24345 0
    endloop
  endfacet
  facet normal 0 0 -1
    outer loop
      vertex 26.3815 -2.40877 0
      vertex 26.6489 1.84062 0
      vertex 26.6489 -1.84062 0
    endloop
  endfacet
  facet normal 0 0 -1
    outer loop
      vertex 26.3815 -2.40877 0
      vertex 26.3815 2.40877 0
      vertex 26.6489 1.84062 0
    endloop
  endfacet
  facet normal 0 0 -1
    outer loop
      vertex 26.0451 -2.93893 0
      vertex 26.3815 2.40877 0
      vertex 26.3815 -2.40877 0
    endloop
  endfacet
  facet normal 0 0 -1
    outer loop
      vertex 26.0451 -2.93893 0
      vertex 26.0451 2.93893 0
      vertex 26.3815 2.40877 0
    endloop
  endfacet
  facet normal 0 0 -1
    outer loop
      vertex 25.6448 -3.42274 0
      vertex 26.0451 2.93893 0
      vertex 26.0451 -2.93893 0
    endloop
  endfacet
  facet normal 0 0 -1
    outer loop
      vertex 25.6448 -3.42274 0
      vertex 25.6448 3.42274 0
      vertex 26.0451 2.93893 0
    endloop
  endfacet
  facet normal 0 0 -1
    outer loop
      vertex 25.1871 -3.85257 0
      vertex 25.6448 3.42274 0
      vertex 25.6448 -3.42274 0
    endloop
  endfacet
  facet normal 0 0 -1
    outer loop
      vertex 25.1871 -3.85257 0
      vertex 25.1871 3.85257 0
      vertex 25.6448 3.42274 0
    endloop
  endfacet
  facet normal 0 0 -1
    outer loop
      vertex 24.6791 -4.22164 0
      vertex 25.1871 3.85257 0
      vertex 25.1871 -3.85257 0
    endloop
  endfacet
  facet normal 0 0 -1
    outer loop
      vertex 24.6791 -4.22164 0
      vertex 24.6791 4.22164 0
      vertex 25.1871 3.85257 0
    endloop
  endfacet
  facet normal 0 0 -1
    outer loop
      vertex 24.1289 -4.52413 0
      vertex 24.6791 4.22164 0
      vertex 24.6791 -4.22164 0
    endloop
  endfacet
  facet normal 0 0 -1
    outer loop
      vertex 24.1289 -4.52413 0
      vertex 24.1289 4.52413 0
      vertex 24.6791 4.22164 0
    endloop
  endfacet
  facet normal 0 0 -1
    outer loop
      vertex 23.5451 -4.75528 0
      vertex 24.1289 4.52413 0
      vertex 24.1289 -4.52413 0
    endloop
  endfacet
  facet normal 0 0 -1
    outer loop
      vertex 23.5451 -4.75528 0
      vertex 23.5451 4.75528 0
      vertex 24.1289 4.52413 0
    endloop
  endfacet
  facet normal 0 0 -1
    outer loop
      vertex 22.9369 -4.91144 0
      vertex 23.5451 4.75528 0
      vertex 23.5451 -4.75528 0
    endloop
  endfacet
  facet normal 0 0 -1
    outer loop
      vertex 22.9369 -4.91144 0
      vertex 22.9369 4.91144 0
      vertex 23.5451 4.75528 0
    endloop
  endfacet
  facet normal 0 0 -1
    outer loop
      vertex 22.314 -4.99013 0
      vertex 22.9369 4.91144 0
      vertex 22.9369 -4.91144 0
    endloop
  endfacet
  facet normal 0 0 -1
    outer loop
      vertex 22.314 -4.99013 0
      vertex 22.314 4.99013 0
      vertex 22.9369 4.91144 0
    endloop
  endfacet
  facet normal 0 0 -1
    outer loop
      vertex 21.686 -4.99013 0
      vertex 22.314 4.99013 0
      vertex 22.314 -4.99013 0
    endloop
  endfacet
  facet normal 0 0 -1
    outer loop
      vertex 21.686 -4.99013 0
      vertex 21.686 4.99013 0
      vertex 22.314 4.99013 0
    endloop
  endfacet
  facet normal 0 0 -1
    outer loop
      vertex 21.0626 -4.91131 0
      vertex 21.686 -4.99013 0
      vertex 21.0631 -4.91144 0
    endloop
  endfacet
  facet normal 0 0 -1
    outer loop
      vertex 21.686 -4.99013 0
      vertex 21.0626 -4.91131 0
      vertex 21.686 4.99013 0
    endloop
  endfacet
  facet normal 0 0 -1
    outer loop
      vertex 21.0626 4.91131 0
      vertex 21.686 4.99013 0
      vertex 21.0626 -4.91131 0
    endloop
  endfacet
  facet normal 0 0 -1
    outer loop
      vertex 21.686 4.99013 0
      vertex 21.0626 4.91131 0
      vertex 21.0631 4.91144 0
    endloop
  endfacet
  facet normal 0 0 -1
    outer loop
      vertex 20.6448 -5.42274 0
      vertex 21.0626 -4.91131 0
      vertex 21.0451 -4.93893 0
    endloop
  endfacet
  facet normal -0 0 -1
    outer loop
      vertex 21.0626 -4.91131 0
      vertex 17.314 -6.99013 0
      vertex 21.0626 4.91131 0
    endloop
  endfacet
  facet normal 0 0 -1
    outer loop
      vertex 21.0626 -4.91131 0
      vertex 20.6448 -5.42274 0
      vertex 17.314 -6.99013 0
    endloop
  endfacet
  facet normal 0 0 -1
    outer loop
      vertex 17.314 6.99013 0
      vertex 21.0626 4.91131 0
      vertex 17.314 -6.99013 0
    endloop
  endfacet
  facet normal 0 0 -1
    outer loop
      vertex 17.314 -6.99013 0
      vertex 20.6448 -5.42274 0
      vertex 20.1871 -5.85257 0
    endloop
  endfacet
  facet normal -0 -0 -1
    outer loop
      vertex 20.6448 5.42274 0
      vertex 21.0626 4.91131 0
      vertex 17.314 6.99013 0
    endloop
  endfacet
  facet normal 0 0 -1
    outer loop
      vertex 17.314 -6.99013 0
      vertex 20.1871 -5.85257 0
      vertex 19.6791 -6.22164 0
    endloop
  endfacet
  facet normal 0 0 -1
    outer loop
      vertex 21.0626 4.91131 0
      vertex 20.6448 5.42274 0
      vertex 21.0451 4.93893 0
    endloop
  endfacet
  facet normal 0 0 -1
    outer loop
      vertex 17.314 -6.99013 0
      vertex 19.6791 -6.22164 0
      vertex 19.1289 -6.52413 0
    endloop
  endfacet
  facet normal 0 0 -1
    outer loop
      vertex 20.6448 5.42274 0
      vertex 17.314 6.99013 0
      vertex 20.1871 5.85257 0
    endloop
  endfacet
  facet normal 0 0 -1
    outer loop
      vertex 17.314 -6.99013 0
      vertex 19.1289 -6.52413 0
      vertex 18.5451 -6.75528 0
    endloop
  endfacet
  facet normal 0 0 -1
    outer loop
      vertex 20.1871 5.85257 0
      vertex 17.314 6.99013 0
      vertex 19.6791 6.22164 0
    endloop
  endfacet
  facet normal 0 0 -1
    outer loop
      vertex 17.314 -6.99013 0
      vertex 18.5451 -6.75528 0
      vertex 17.9369 -6.91144 0
    endloop
  endfacet
  facet normal 0 0 -1
    outer loop
      vertex 19.6791 6.22164 0
      vertex 17.314 6.99013 0
      vertex 19.1289 6.52413 0
    endloop
  endfacet
  facet normal 0 0 -1
    outer loop
      vertex 19.1289 6.52413 0
      vertex 17.314 6.99013 0
      vertex 18.5451 6.75528 0
    endloop
  endfacet
  facet normal 0 0 -1
    outer loop
      vertex 18.5451 6.75528 0
      vertex 17.314 6.99013 0
      vertex 17.9369 6.91144 0
    endloop
  endfacet
  facet normal 0 0 -1
    outer loop
      vertex -17.314 -6.99013 0
      vertex 17.314 6.99013 0
      vertex 17.314 -6.99013 0
    endloop
  endfacet
  facet normal 0 0 -1
    outer loop
      vertex -17.314 -6.99013 0
      vertex -17.314 6.99013 0
      vertex 17.314 6.99013 0
    endloop
  endfacet
  facet normal 0 0 -1
    outer loop
      vertex -22 -2 0
      vertex -17.314 -6.99013 0
      vertex -17.9369 -6.91144 0
    endloop
  endfacet
  facet normal 0 0 -1
    outer loop
      vertex -17.314 -6.99013 0
      vertex -22 -2 0
      vertex -17.314 6.99013 0
    endloop
  endfacet
  facet normal 0 0 -1
    outer loop
      vertex -22 -2 0
      vertex -17.9369 -6.91144 0
      vertex -18.5451 -6.75528 0
    endloop
  endfacet
  facet normal 0 0 -1
    outer loop
      vertex -22 2 0
      vertex -17.314 6.99013 0
      vertex -22 -2 0
    endloop
  endfacet
  facet normal 0 0 -1
    outer loop
      vertex -22 -2 0
      vertex -18.5451 -6.75528 0
      vertex -19.1289 -6.52413 0
    endloop
  endfacet
  facet normal 0 0 -1
    outer loop
      vertex -17.314 6.99013 0
      vertex -22 2 0
      vertex -17.9369 6.91144 0
    endloop
  endfacet
  facet normal 0 0 -1
    outer loop
      vertex -22 -2 0
      vertex -19.1289 -6.52413 0
      vertex -19.6791 -6.22164 0
    endloop
  endfacet
  facet normal 0 0 -1
    outer loop
      vertex -17.9369 6.91144 0
      vertex -22 2 0
      vertex -18.5451 6.75528 0
    endloop
  endfacet
  facet normal 0 0 -1
    outer loop
      vertex -22 -2 0
      vertex -19.6791 -6.22164 0
      vertex -20.1871 -5.85257 0
    endloop
  endfacet
  facet normal 0 0 -1
    outer loop
      vertex -18.5451 6.75528 0
      vertex -22 2 0
      vertex -19.1289 6.52413 0
    endloop
  endfacet
  facet normal 0 0 -1
    outer loop
      vertex -22 -2 0
      vertex -20.1871 -5.85257 0
      vertex -20.6448 -5.42274 0
    endloop
  endfacet
  facet normal 0 0 -1
    outer loop
      vertex -19.1289 6.52413 0
      vertex -22 2 0
      vertex -19.6791 6.22164 0
    endloop
  endfacet
  facet normal 0 0 -1
    outer loop
      vertex -22 -2 0
      vertex -20.6448 -5.42274 0
      vertex -21.0451 -4.93893 0
    endloop
  endfacet
  facet normal 0 0 -1
    outer loop
      vertex -19.6791 6.22164 0
      vertex -22 2 0
      vertex -20.1871 5.85257 0
    endloop
  endfacet
  facet normal 0 0 -1
    outer loop
      vertex -22 -2 0
      vertex -21.0451 -4.93893 0
      vertex -21.3815 -4.40877 0
    endloop
  endfacet
  facet normal 0 0 -1
    outer loop
      vertex -20.1871 5.85257 0
      vertex -22 2 0
      vertex -20.6448 5.42274 0
    endloop
  endfacet
  facet normal 0 0 -1
    outer loop
      vertex -22 -2 0
      vertex -21.3815 -4.40877 0
      vertex -21.6489 -3.84062 0
    endloop
  endfacet
  facet normal 0 0 -1
    outer loop
      vertex -20.6448 5.42274 0
      vertex -22 2 0
      vertex -21.0451 4.93893 0
    endloop
  endfacet
  facet normal 0 0 -1
    outer loop
      vertex -22 -2 0
      vertex -21.6489 -3.84062 0
      vertex -21.8429 -3.24345 0
    endloop
  endfacet
  facet normal 0 0 -1
    outer loop
      vertex -21.0451 4.93893 0
      vertex -22 2 0
      vertex -21.3815 4.40877 0
    endloop
  endfacet
  facet normal 0 0 -1
    outer loop
      vertex -22 -2 0
      vertex -21.8429 -3.24345 0
      vertex -21.9606 -2.62667 0
    endloop
  endfacet
  facet normal 0 0 -1
    outer loop
      vertex -21.3815 4.40877 0
      vertex -22 2 0
      vertex -21.6489 3.84062 0
    endloop
  endfacet
  facet normal 0 0 -1
    outer loop
      vertex -21.6489 3.84062 0
      vertex -22 2 0
      vertex -21.8429 3.24345 0
    endloop
  endfacet
  facet normal 0 0 -1
    outer loop
      vertex -21.8429 3.24345 0
      vertex -22 2 0
      vertex -21.9606 2.62667 0
    endloop
  endfacet
  facet normal -0.951072 -0.30897 0
    outer loop
      vertex -21.6489 -3.84062 0
      vertex -21.8429 -3.24345 1
      vertex -21.8429 -3.24345 0
    endloop
  endfacet
  facet normal -0.951072 -0.30897 0
    outer loop
      vertex -21.8429 -3.24345 1
      vertex -21.6489 -3.84062 0
      vertex -21.6489 -3.84062 1
    endloop
  endfacet
  facet normal -0.770468 -0.637478 0
    outer loop
      vertex -20.6448 -5.42274 0
      vertex -21.0451 -4.93893 1
      vertex -21.0451 -4.93893 0
    endloop
  endfacet
  facet normal -0.770468 -0.637478 0
    outer loop
      vertex -21.0451 -4.93893 1
      vertex -20.6448 -5.42274 0
      vertex -20.6448 -5.42274 1
    endloop
  endfacet
  facet normal -0.904797 -0.425843 0
    outer loop
      vertex -21.3815 -4.40877 0
      vertex -21.6489 -3.84062 1
      vertex -21.6489 -3.84062 0
    endloop
  endfacet
  facet normal -0.904797 -0.425843 0
    outer loop
      vertex -21.6489 -3.84062 1
      vertex -21.3815 -4.40877 0
      vertex -21.3815 -4.40877 1
    endloop
  endfacet
  facet normal -0.368135 -0.929773 0
    outer loop
      vertex -19.1289 -6.52413 0
      vertex -18.5451 -6.75528 1
      vertex -19.1289 -6.52413 1
    endloop
  endfacet
  facet normal -0.368135 -0.929773 -0
    outer loop
      vertex -18.5451 -6.75528 1
      vertex -19.1289 -6.52413 0
      vertex -18.5451 -6.75528 0
    endloop
  endfacet
  facet normal -0.684565 -0.728952 0
    outer loop
      vertex -20.6448 -5.42274 0
      vertex -20.1871 -5.85257 1
      vertex -20.6448 -5.42274 1
    endloop
  endfacet
  facet normal -0.684565 -0.728952 -0
    outer loop
      vertex -20.1871 -5.85257 1
      vertex -20.6448 -5.42274 0
      vertex -20.1871 -5.85257 0
    endloop
  endfacet
  facet normal 0.587771 -0.809027 0
    outer loop
      vertex 19.6791 -6.22164 0
      vertex 20.1871 -5.85257 1
      vertex 19.6791 -6.22164 1
    endloop
  endfacet
  facet normal 0.587771 -0.809027 0
    outer loop
      vertex 20.1871 -5.85257 1
      vertex 19.6791 -6.22164 0
      vertex 20.1871 -5.85257 0
    endloop
  endfacet
  facet normal -0.982275 0.187447 0
    outer loop
      vertex -21.9606 2.62667 0
      vertex -21.8429 3.24345 1
      vertex -21.8429 3.24345 0
    endloop
  endfacet
  facet normal -0.982275 0.187447 0
    outer loop
      vertex -21.8429 3.24345 1
      vertex -21.9606 2.62667 0
      vertex -21.9606 2.62667 1
    endloop
  endfacet
  facet normal -0.904797 0.425843 0
    outer loop
      vertex -21.6489 3.84062 0
      vertex -21.3815 4.40877 1
      vertex -21.3815 4.40877 0
    endloop
  endfacet
  facet normal -0.904797 0.425843 0
    outer loop
      vertex -21.3815 4.40877 1
      vertex -21.6489 3.84062 0
      vertex -21.6489 3.84062 1
    endloop
  endfacet
  facet normal -0.684565 0.728952 0
    outer loop
      vertex -20.1871 5.85257 0
      vertex -20.6448 5.42274 1
      vertex -20.1871 5.85257 1
    endloop
  endfacet
  facet normal -0.684565 0.728952 0
    outer loop
      vertex -20.6448 5.42274 1
      vertex -20.1871 5.85257 0
      vertex -20.6448 5.42274 0
    endloop
  endfacet
  facet normal -0.587771 0.809027 0
    outer loop
      vertex -19.6791 6.22164 0
      vertex -20.1871 5.85257 1
      vertex -19.6791 6.22164 1
    endloop
  endfacet
  facet normal -0.587771 0.809027 0
    outer loop
      vertex -20.1871 5.85257 1
      vertex -19.6791 6.22164 0
      vertex -20.1871 5.85257 0
    endloop
  endfacet
  facet normal 0.368135 0.929773 -0
    outer loop
      vertex 19.1289 6.52413 0
      vertex 18.5451 6.75528 1
      vertex 19.1289 6.52413 1
    endloop
  endfacet
  facet normal 0.368135 0.929773 0
    outer loop
      vertex 18.5451 6.75528 1
      vertex 19.1289 6.52413 0
      vertex 18.5451 6.75528 0
    endloop
  endfacet
  facet normal 0.481772 0.876297 -0
    outer loop
      vertex 19.6791 6.22164 0
      vertex 19.1289 6.52413 1
      vertex 19.6791 6.22164 1
    endloop
  endfacet
  facet normal 0.481772 0.876297 0
    outer loop
      vertex 19.1289 6.52413 1
      vertex 19.6791 6.22164 0
      vertex 19.1289 6.52413 0
    endloop
  endfacet
  facet normal -0.982275 -0.187447 0
    outer loop
      vertex -21.8429 -3.24345 0
      vertex -21.9606 -2.62667 1
      vertex -21.9606 -2.62667 0
    endloop
  endfacet
  facet normal -0.982275 -0.187447 0
    outer loop
      vertex -21.9606 -2.62667 1
      vertex -21.8429 -3.24345 0
      vertex -21.8429 -3.24345 1
    endloop
  endfacet
  facet normal -0.844364 -0.53577 0
    outer loop
      vertex -21.0451 -4.93893 0
      vertex -21.3815 -4.40877 1
      vertex -21.3815 -4.40877 0
    endloop
  endfacet
  facet normal -0.844364 -0.53577 0
    outer loop
      vertex -21.3815 -4.40877 1
      vertex -21.0451 -4.93893 0
      vertex -21.0451 -4.93893 1
    endloop
  endfacet
  facet normal -0.481772 -0.876297 0
    outer loop
      vertex -19.6791 -6.22164 0
      vertex -19.1289 -6.52413 1
      vertex -19.6791 -6.22164 1
    endloop
  endfacet
  facet normal -0.481772 -0.876297 -0
    outer loop
      vertex -19.1289 -6.52413 1
      vertex -19.6791 -6.22164 0
      vertex -19.1289 -6.52413 0
    endloop
  endfacet
  facet normal -0.587771 -0.809027 0
    outer loop
      vertex -20.1871 -5.85257 0
      vertex -19.6791 -6.22164 1
      vertex -20.1871 -5.85257 1
    endloop
  endfacet
  facet normal -0.587771 -0.809027 -0
    outer loop
      vertex -19.6791 -6.22164 1
      vertex -20.1871 -5.85257 0
      vertex -19.6791 -6.22164 0
    endloop
  endfacet
  facet normal 0.684565 -0.728952 0
    outer loop
      vertex 20.1871 -5.85257 0
      vertex 20.6448 -5.42274 1
      vertex 20.1871 -5.85257 1
    endloop
  endfacet
  facet normal 0.684565 -0.728952 0
    outer loop
      vertex 20.6448 -5.42274 1
      vertex 20.1871 -5.85257 0
      vertex 20.6448 -5.42274 0
    endloop
  endfacet
  facet normal 0.125332 -0.992115 0
    outer loop
      vertex 17.314 -6.99013 0
      vertex 17.9369 -6.91144 1
      vertex 17.314 -6.99013 1
    endloop
  endfacet
  facet normal 0.125332 -0.992115 0
    outer loop
      vertex 17.9369 -6.91144 1
      vertex 17.314 -6.99013 0
      vertex 17.9369 -6.91144 0
    endloop
  endfacet
  facet normal 0.844718 -0.535212 0
    outer loop
      vertex 21.0451 -4.93893 1
      vertex 21.0626 -4.91131 0
      vertex 21.0626 -4.91131 1
    endloop
  endfacet
  facet normal 0.844718 -0.535212 0
    outer loop
      vertex 21.0626 -4.91131 0
      vertex 21.0451 -4.93893 1
      vertex 21.0451 -4.93893 0
    endloop
  endfacet
  facet normal 0.248691 -0.968583 0
    outer loop
      vertex 17.9369 -6.91144 0
      vertex 18.5451 -6.75528 1
      vertex 17.9369 -6.91144 1
    endloop
  endfacet
  facet normal 0.248691 -0.968583 0
    outer loop
      vertex 18.5451 -6.75528 1
      vertex 17.9369 -6.91144 0
      vertex 18.5451 -6.75528 0
    endloop
  endfacet
  facet normal 0.368135 -0.929773 0
    outer loop
      vertex 18.5451 -6.75528 0
      vertex 19.1289 -6.52413 1
      vertex 18.5451 -6.75528 1
    endloop
  endfacet
  facet normal 0.368135 -0.929773 0
    outer loop
      vertex 19.1289 -6.52413 1
      vertex 18.5451 -6.75528 0
      vertex 19.1289 -6.52413 0
    endloop
  endfacet
  facet normal 0.481772 -0.876297 0
    outer loop
      vertex 19.1289 -6.52413 0
      vertex 19.6791 -6.22164 1
      vertex 19.1289 -6.52413 1
    endloop
  endfacet
  facet normal 0.481772 -0.876297 0
    outer loop
      vertex 19.6791 -6.22164 1
      vertex 19.1289 -6.52413 0
      vertex 19.6791 -6.22164 0
    endloop
  endfacet
  facet normal -1 0 0
    outer loop
      vertex -21.25 -0.25 1
      vertex -21.25 0.25 2
      vertex -21.25 0.25 1
    endloop
  endfacet
  facet normal -1 -0 0
    outer loop
      vertex -21.25 0.25 2
      vertex -21.25 -0.25 1
      vertex -21.25 -0.25 2
    endloop
  endfacet
  facet normal -0.998028 -0.0627749 0
    outer loop
      vertex -21.2027 -1.002 1
      vertex -21.25 -0.25 2
      vertex -21.25 -0.25 1
    endloop
  endfacet
  facet normal -0.998028 -0.0627749 0
    outer loop
      vertex -21.25 -0.25 2
      vertex -21.2027 -1.002 1
      vertex -21.2027 -1.002 2
    endloop
  endfacet
  facet normal -0.125328 0.992115 0
    outer loop
      vertex -15.6267 6.23816 1
      vertex -16.3743 6.14372 2
      vertex -15.6267 6.23816 2
    endloop
  endfacet
  facet normal -0.125328 0.992115 0
    outer loop
      vertex -16.3743 6.14372 2
      vertex -15.6267 6.23816 1
      vertex -16.3743 6.14372 1
    endloop
  endfacet
  facet normal 0 1 -0
    outer loop
      vertex 15.6267 6.23816 1
      vertex -15.6267 6.23816 2
      vertex 15.6267 6.23816 2
    endloop
  endfacet
  facet normal 0 1 0
    outer loop
      vertex -15.6267 6.23816 2
      vertex 15.6267 6.23816 1
      vertex -15.6267 6.23816 1
    endloop
  endfacet
  facet normal -0.125328 -0.992115 0
    outer loop
      vertex -16.3743 -6.14372 1
      vertex -15.6267 -6.23816 2
      vertex -16.3743 -6.14372 2
    endloop
  endfacet
  facet normal -0.125328 -0.992115 -0
    outer loop
      vertex -15.6267 -6.23816 2
      vertex -16.3743 -6.14372 1
      vertex -15.6267 -6.23816 1
    endloop
  endfacet
  facet normal 0 -1 0
    outer loop
      vertex -15.6267 -6.23816 1
      vertex 15.6267 -6.23816 2
      vertex -15.6267 -6.23816 2
    endloop
  endfacet
  facet normal 0 -1 -0
    outer loop
      vertex 15.6267 -6.23816 2
      vertex -15.6267 -6.23816 1
      vertex 15.6267 -6.23816 1
    endloop
  endfacet
  facet normal 0.770506 -0.637432 0
    outer loop
      vertex 19.6238 -4.35728 2
      vertex 20.1041 -3.77671 1
      vertex 20.1041 -3.77671 2
    endloop
  endfacet
  facet normal 0.770506 -0.637432 0
    outer loop
      vertex 20.1041 -3.77671 1
      vertex 19.6238 -4.35728 2
      vertex 19.6238 -4.35728 1
    endloop
  endfacet
  facet normal 0.125328 0.992115 -0
    outer loop
      vertex 16.3743 6.14372 1
      vertex 15.6267 6.23816 2
      vertex 16.3743 6.14372 2
    endloop
  endfacet
  facet normal 0.125328 0.992115 0
    outer loop
      vertex 15.6267 6.23816 2
      vertex 16.3743 6.14372 1
      vertex 15.6267 6.23816 1
    endloop
  endfacet
  facet normal 0.951072 -0.308968 0
    outer loop
      vertex 20.8287 -2.45875 2
      vertex 21.0615 -1.74214 1
      vertex 21.0615 -1.74214 2
    endloop
  endfacet
  facet normal 0.951072 -0.308968 0
    outer loop
      vertex 21.0615 -1.74214 1
      vertex 20.8287 -2.45875 2
      vertex 20.8287 -2.45875 1
    endloop
  endfacet
  facet normal -0.248689 0.968583 0
    outer loop
      vertex -16.3743 6.14372 1
      vertex -17.1041 5.95634 2
      vertex -16.3743 6.14372 2
    endloop
  endfacet
  facet normal -0.248689 0.968583 0
    outer loop
      vertex -17.1041 5.95634 2
      vertex -16.3743 6.14372 1
      vertex -17.1041 5.95634 1
    endloop
  endfacet
  facet normal -0.998028 0.0627749 0
    outer loop
      vertex -21.25 0.25 1
      vertex -21.2027 1.002 2
      vertex -21.2027 1.002 1
    endloop
  endfacet
  facet normal -0.998028 0.0627749 0
    outer loop
      vertex -21.2027 1.002 2
      vertex -21.25 0.25 1
      vertex -21.25 0.25 2
    endloop
  endfacet
  facet normal 0 0 1
    outer loop
      vertex 15.6267 6.23816 2
      vertex 21.25 0.25 2
      vertex 21.2027 1.002 2
    endloop
  endfacet
  facet normal 0 0 1
    outer loop
      vertex 21.25 0.25 2
      vertex 15.6267 6.23816 2
      vertex 21.25 -0.25 2
    endloop
  endfacet
  facet normal 0 0 1
    outer loop
      vertex 15.6267 6.23816 2
      vertex 21.2027 1.002 2
      vertex 21.0615 1.74214 2
    endloop
  endfacet
  facet normal 0 0 1
    outer loop
      vertex 15.6267 -6.23816 2
      vertex 21.25 -0.25 2
      vertex 15.6267 6.23816 2
    endloop
  endfacet
  facet normal 0 0 1
    outer loop
      vertex 20.5078 3.14052 2
      vertex 21.0615 1.74214 2
      vertex 20.8287 2.45875 2
    endloop
  endfacet
  facet normal 0 0 1
    outer loop
      vertex 20.1041 3.77671 2
      vertex 21.0615 1.74214 2
      vertex 20.5078 3.14052 2
    endloop
  endfacet
  facet normal 0 0 1
    outer loop
      vertex 19.6238 4.35728 2
      vertex 21.0615 1.74214 2
      vertex 20.1041 3.77671 2
    endloop
  endfacet
  facet normal 0 0 1
    outer loop
      vertex 19.0745 4.87308 2
      vertex 21.0615 1.74214 2
      vertex 19.6238 4.35728 2
    endloop
  endfacet
  facet normal 0 0 1
    outer loop
      vertex 21.0615 -1.74214 2
      vertex 20.5078 -3.14052 2
      vertex 20.8287 -2.45875 2
    endloop
  endfacet
  facet normal 0 0 1
    outer loop
      vertex 21.0615 -1.74214 2
      vertex 20.1041 -3.77671 2
      vertex 20.5078 -3.14052 2
    endloop
  endfacet
  facet normal 0 0 1
    outer loop
      vertex 18.465 5.31597 2
      vertex 21.0615 1.74214 2
      vertex 19.0745 4.87308 2
    endloop
  endfacet
  facet normal 0 0 1
    outer loop
      vertex 21.0615 -1.74214 2
      vertex 19.6238 -4.35728 2
      vertex 20.1041 -3.77671 2
    endloop
  endfacet
  facet normal 0 0 1
    outer loop
      vertex 17.8047 5.67896 2
      vertex 21.0615 1.74214 2
      vertex 18.465 5.31597 2
    endloop
  endfacet
  facet normal 0 0 1
    outer loop
      vertex 21.0615 -1.74214 2
      vertex 19.0745 -4.87308 2
      vertex 19.6238 -4.35728 2
    endloop
  endfacet
  facet normal 0 0 1
    outer loop
      vertex 17.1041 5.95634 2
      vertex 21.0615 1.74214 2
      vertex 17.8047 5.67896 2
    endloop
  endfacet
  facet normal 0 0 1
    outer loop
      vertex 21.0615 -1.74214 2
      vertex 18.465 -5.31597 2
      vertex 19.0745 -4.87308 2
    endloop
  endfacet
  facet normal 0 0 1
    outer loop
      vertex 16.3743 6.14372 2
      vertex 21.0615 1.74214 2
      vertex 17.1041 5.95634 2
    endloop
  endfacet
  facet normal 0 0 1
    outer loop
      vertex 21.0615 -1.74214 2
      vertex 17.8047 -5.67896 2
      vertex 18.465 -5.31597 2
    endloop
  endfacet
  facet normal 0 0 1
    outer loop
      vertex 15.6267 6.23816 2
      vertex 21.0615 1.74214 2
      vertex 16.3743 6.14372 2
    endloop
  endfacet
  facet normal 0 0 1
    outer loop
      vertex 21.0615 -1.74214 2
      vertex 17.1041 -5.95634 2
      vertex 17.8047 -5.67896 2
    endloop
  endfacet
  facet normal 0 0 1
    outer loop
      vertex 21.25 -0.25 2
      vertex 15.6267 -6.23816 2
      vertex 21.2027 -1.002 2
    endloop
  endfacet
  facet normal 0 0 1
    outer loop
      vertex 21.0615 -1.74214 2
      vertex 16.3743 -6.14372 2
      vertex 17.1041 -5.95634 2
    endloop
  endfacet
  facet normal 0 0 1
    outer loop
      vertex 21.2027 -1.002 2
      vertex 15.6267 -6.23816 2
      vertex 21.0615 -1.74214 2
    endloop
  endfacet
  facet normal 0 0 1
    outer loop
      vertex 21.0615 -1.74214 2
      vertex 15.6267 -6.23816 2
      vertex 16.3743 -6.14372 2
    endloop
  endfacet
  facet normal -0 0 1
    outer loop
      vertex -15.6267 6.23816 2
      vertex 15.6267 -6.23816 2
      vertex 15.6267 6.23816 2
    endloop
  endfacet
  facet normal 0 0 1
    outer loop
      vertex -15.6267 6.23816 2
      vertex -15.6267 -6.23816 2
      vertex 15.6267 -6.23816 2
    endloop
  endfacet
  facet normal 0 0 1
    outer loop
      vertex -21.25 0.25 2
      vertex -15.6267 6.23816 2
      vertex -16.3743 6.14372 2
    endloop
  endfacet
  facet normal 0 0 1
    outer loop
      vertex -15.6267 6.23816 2
      vertex -21.25 0.25 2
      vertex -15.6267 -6.23816 2
    endloop
  endfacet
  facet normal 0 0 1
    outer loop
      vertex -21.25 0.25 2
      vertex -16.3743 6.14372 2
      vertex -17.1041 5.95634 2
    endloop
  endfacet
  facet normal -0 0 1
    outer loop
      vertex -21.25 -0.25 2
      vertex -15.6267 -6.23816 2
      vertex -21.25 0.25 2
    endloop
  endfacet
  facet normal 0 0 1
    outer loop
      vertex -21.25 0.25 2
      vertex -17.1041 5.95634 2
      vertex -17.8047 5.67896 2
    endloop
  endfacet
  facet normal 0 0 1
    outer loop
      vertex -15.6267 -6.23816 2
      vertex -21.25 -0.25 2
      vertex -16.3743 -6.14372 2
    endloop
  endfacet
  facet normal 0 0 1
    outer loop
      vertex -21.25 0.25 2
      vertex -17.8047 5.67896 2
      vertex -18.465 5.31597 2
    endloop
  endfacet
  facet normal 0 0 1
    outer loop
      vertex -16.3743 -6.14372 2
      vertex -21.25 -0.25 2
      vertex -17.1041 -5.95634 2
    endloop
  endfacet
  facet normal 0 0 1
    outer loop
      vertex -21.25 0.25 2
      vertex -18.465 5.31597 2
      vertex -19.0745 4.87308 2
    endloop
  endfacet
  facet normal 0 0 1
    outer loop
      vertex -17.1041 -5.95634 2
      vertex -21.25 -0.25 2
      vertex -17.8047 -5.67896 2
    endloop
  endfacet
  facet normal 0 0 1
    outer loop
      vertex -21.25 0.25 2
      vertex -19.0745 4.87308 2
      vertex -19.6238 4.35728 2
    endloop
  endfacet
  facet normal 0 0 1
    outer loop
      vertex -17.8047 -5.67896 2
      vertex -21.25 -0.25 2
      vertex -18.465 -5.31597 2
    endloop
  endfacet
  facet normal 0 0 1
    outer loop
      vertex -21.25 0.25 2
      vertex -19.6238 4.35728 2
      vertex -20.1041 3.77671 2
    endloop
  endfacet
  facet normal 0 0 1
    outer loop
      vertex -18.465 -5.31597 2
      vertex -21.25 -0.25 2
      vertex -19.0745 -4.87308 2
    endloop
  endfacet
  facet normal 0 0 1
    outer loop
      vertex -21.25 0.25 2
      vertex -20.1041 3.77671 2
      vertex -20.5078 3.14052 2
    endloop
  endfacet
  facet normal 0 0 1
    outer loop
      vertex -19.0745 -4.87308 2
      vertex -21.25 -0.25 2
      vertex -19.6238 -4.35728 2
    endloop
  endfacet
  facet normal 0 0 1
    outer loop
      vertex -21.25 0.25 2
      vertex -20.5078 3.14052 2
      vertex -20.8287 2.45875 2
    endloop
  endfacet
  facet normal 0 0 1
    outer loop
      vertex -19.6238 -4.35728 2
      vertex -21.25 -0.25 2
      vertex -20.1041 -3.77671 2
    endloop
  endfacet
  facet normal 0 0 1
    outer loop
      vertex -21.25 0.25 2
      vertex -20.8287 2.45875 2
      vertex -21.0615 1.74214 2
    endloop
  endfacet
  facet normal 0 0 1
    outer loop
      vertex -20.1041 -3.77671 2
      vertex -21.25 -0.25 2
      vertex -20.5078 -3.14052 2
    endloop
  endfacet
  facet normal 0 0 1
    outer loop
      vertex -21.25 0.25 2
      vertex -21.0615 1.74214 2
      vertex -21.2027 1.002 2
    endloop
  endfacet
  facet normal 0 0 1
    outer loop
      vertex -20.5078 -3.14052 2
      vertex -21.25 -0.25 2
      vertex -20.8287 -2.45875 2
    endloop
  endfacet
  facet normal 0 0 1
    outer loop
      vertex -20.8287 -2.45875 2
      vertex -21.25 -0.25 2
      vertex -21.0615 -1.74214 2
    endloop
  endfacet
  facet normal 0 0 1
    outer loop
      vertex -21.0615 -1.74214 2
      vertex -21.25 -0.25 2
      vertex -21.2027 -1.002 2
    endloop
  endfacet
  facet normal -0.770506 -0.637432 0
    outer loop
      vertex -19.6238 -4.35728 1
      vertex -20.1041 -3.77671 2
      vertex -20.1041 -3.77671 1
    endloop
  endfacet
  facet normal -0.770506 -0.637432 0
    outer loop
      vertex -20.1041 -3.77671 2
      vertex -19.6238 -4.35728 1
      vertex -19.6238 -4.35728 2
    endloop
  endfacet
  facet normal -0.368116 -0.92978 0
    outer loop
      vertex -17.8047 -5.67896 1
      vertex -17.1041 -5.95634 2
      vertex -17.8047 -5.67896 2
    endloop
  endfacet
  facet normal -0.368116 -0.92978 -0
    outer loop
      vertex -17.1041 -5.95634 2
      vertex -17.8047 -5.67896 1
      vertex -17.1041 -5.95634 1
    endloop
  endfacet
  facet normal 0.684528 0.728987 -0
    outer loop
      vertex 19.6238 4.35728 1
      vertex 19.0745 4.87308 2
      vertex 19.6238 4.35728 2
    endloop
  endfacet
  facet normal 0.684528 0.728987 0
    outer loop
      vertex 19.0745 4.87308 2
      vertex 19.6238 4.35728 1
      vertex 19.0745 4.87308 1
    endloop
  endfacet
  facet normal 0.368116 0.92978 -0
    outer loop
      vertex 17.8047 5.67896 1
      vertex 17.1041 5.95634 2
      vertex 17.8047 5.67896 2
    endloop
  endfacet
  facet normal 0.368116 0.92978 0
    outer loop
      vertex 17.1041 5.95634 2
      vertex 17.8047 5.67896 1
      vertex 17.1041 5.95634 1
    endloop
  endfacet
  facet normal 0.982285 0.187395 0
    outer loop
      vertex 21.2027 1.002 2
      vertex 21.0615 1.74214 1
      vertex 21.0615 1.74214 2
    endloop
  endfacet
  facet normal 0.982285 0.187395 0
    outer loop
      vertex 21.0615 1.74214 1
      vertex 21.2027 1.002 2
      vertex 21.2027 1.002 1
    endloop
  endfacet
  facet normal -0.587839 0.808978 0
    outer loop
      vertex -18.465 5.31597 1
      vertex -19.0745 4.87308 2
      vertex -18.465 5.31597 2
    endloop
  endfacet
  facet normal -0.587839 0.808978 0
    outer loop
      vertex -19.0745 4.87308 2
      vertex -18.465 5.31597 1
      vertex -19.0745 4.87308 1
    endloop
  endfacet
  facet normal -0.770506 0.637432 0
    outer loop
      vertex -20.1041 3.77671 1
      vertex -19.6238 4.35728 2
      vertex -19.6238 4.35728 1
    endloop
  endfacet
  facet normal -0.770506 0.637432 0
    outer loop
      vertex -19.6238 4.35728 2
      vertex -20.1041 3.77671 1
      vertex -20.1041 3.77671 2
    endloop
  endfacet
  facet normal -0.684528 0.728987 0
    outer loop
      vertex -19.0745 4.87308 1
      vertex -19.6238 4.35728 2
      vertex -19.0745 4.87308 2
    endloop
  endfacet
  facet normal -0.684528 0.728987 0
    outer loop
      vertex -19.6238 4.35728 2
      vertex -19.0745 4.87308 1
      vertex -19.6238 4.35728 1
    endloop
  endfacet
  facet normal -0.48174 0.876314 0
    outer loop
      vertex -17.8047 5.67896 1
      vertex -18.465 5.31597 2
      vertex -17.8047 5.67896 2
    endloop
  endfacet
  facet normal -0.48174 0.876314 0
    outer loop
      vertex -18.465 5.31597 2
      vertex -17.8047 5.67896 1
      vertex -18.465 5.31597 1
    endloop
  endfacet
  facet normal -0.844351 0.53579 0
    outer loop
      vertex -20.5078 3.14052 1
      vertex -20.1041 3.77671 2
      vertex -20.1041 3.77671 1
    endloop
  endfacet
  facet normal -0.844351 0.53579 0
    outer loop
      vertex -20.1041 3.77671 2
      vertex -20.5078 3.14052 1
      vertex -20.5078 3.14052 2
    endloop
  endfacet
  facet normal -0.951072 0.308968 0
    outer loop
      vertex -21.0615 1.74214 1
      vertex -20.8287 2.45875 2
      vertex -20.8287 2.45875 1
    endloop
  endfacet
  facet normal -0.951072 0.308968 0
    outer loop
      vertex -20.8287 2.45875 2
      vertex -21.0615 1.74214 1
      vertex -21.0615 1.74214 2
    endloop
  endfacet
  facet normal -0.904784 0.42587 0
    outer loop
      vertex -20.8287 2.45875 1
      vertex -20.5078 3.14052 2
      vertex -20.5078 3.14052 1
    endloop
  endfacet
  facet normal -0.904784 0.42587 0
    outer loop
      vertex -20.5078 3.14052 2
      vertex -20.8287 2.45875 1
      vertex -20.8287 2.45875 2
    endloop
  endfacet
  facet normal -0.982285 0.187395 0
    outer loop
      vertex -21.2027 1.002 1
      vertex -21.0615 1.74214 2
      vertex -21.0615 1.74214 1
    endloop
  endfacet
  facet normal -0.982285 0.187395 0
    outer loop
      vertex -21.0615 1.74214 2
      vertex -21.2027 1.002 1
      vertex -21.2027 1.002 2
    endloop
  endfacet
  facet normal -0.951072 -0.308968 0
    outer loop
      vertex -20.8287 -2.45875 1
      vertex -21.0615 -1.74214 2
      vertex -21.0615 -1.74214 1
    endloop
  endfacet
  facet normal -0.951072 -0.308968 0
    outer loop
      vertex -21.0615 -1.74214 2
      vertex -20.8287 -2.45875 1
      vertex -20.8287 -2.45875 2
    endloop
  endfacet
  facet normal -0.982285 -0.187395 0
    outer loop
      vertex -21.0615 -1.74214 1
      vertex -21.2027 -1.002 2
      vertex -21.2027 -1.002 1
    endloop
  endfacet
  facet normal -0.982285 -0.187395 0
    outer loop
      vertex -21.2027 -1.002 2
      vertex -21.0615 -1.74214 1
      vertex -21.0615 -1.74214 2
    endloop
  endfacet
  facet normal 0.125328 -0.992115 0
    outer loop
      vertex 15.6267 -6.23816 1
      vertex 16.3743 -6.14372 2
      vertex 15.6267 -6.23816 2
    endloop
  endfacet
  facet normal 0.125328 -0.992115 0
    outer loop
      vertex 16.3743 -6.14372 2
      vertex 15.6267 -6.23816 1
      vertex 16.3743 -6.14372 1
    endloop
  endfacet
  facet normal 0.368116 -0.92978 0
    outer loop
      vertex 17.1041 -5.95634 1
      vertex 17.8047 -5.67896 2
      vertex 17.1041 -5.95634 2
    endloop
  endfacet
  facet normal 0.368116 -0.92978 0
    outer loop
      vertex 17.8047 -5.67896 2
      vertex 17.1041 -5.95634 1
      vertex 17.8047 -5.67896 1
    endloop
  endfacet
  facet normal -0.587839 -0.808978 0
    outer loop
      vertex -19.0745 -4.87308 1
      vertex -18.465 -5.31597 2
      vertex -19.0745 -4.87308 2
    endloop
  endfacet
  facet normal -0.587839 -0.808978 -0
    outer loop
      vertex -18.465 -5.31597 2
      vertex -19.0745 -4.87308 1
      vertex -18.465 -5.31597 1
    endloop
  endfacet
  facet normal -0.48174 -0.876314 0
    outer loop
      vertex -18.465 -5.31597 1
      vertex -17.8047 -5.67896 2
      vertex -18.465 -5.31597 2
    endloop
  endfacet
  facet normal -0.48174 -0.876314 -0
    outer loop
      vertex -17.8047 -5.67896 2
      vertex -18.465 -5.31597 1
      vertex -17.8047 -5.67896 1
    endloop
  endfacet
  facet normal 0.844351 -0.53579 0
    outer loop
      vertex 20.1041 -3.77671 2
      vertex 20.5078 -3.14052 1
      vertex 20.5078 -3.14052 2
    endloop
  endfacet
  facet normal 0.844351 -0.53579 0
    outer loop
      vertex 20.5078 -3.14052 1
      vertex 20.1041 -3.77671 2
      vertex 20.1041 -3.77671 1
    endloop
  endfacet
  facet normal 0.904784 0.42587 0
    outer loop
      vertex 20.8287 2.45875 2
      vertex 20.5078 3.14052 1
      vertex 20.5078 3.14052 2
    endloop
  endfacet
  facet normal 0.904784 0.42587 0
    outer loop
      vertex 20.5078 3.14052 1
      vertex 20.8287 2.45875 2
      vertex 20.8287 2.45875 1
    endloop
  endfacet
  facet normal 0.587839 0.808978 -0
    outer loop
      vertex 19.0745 4.87308 1
      vertex 18.465 5.31597 2
      vertex 19.0745 4.87308 2
    endloop
  endfacet
  facet normal 0.587839 0.808978 0
    outer loop
      vertex 18.465 5.31597 2
      vertex 19.0745 4.87308 1
      vertex 18.465 5.31597 1
    endloop
  endfacet
  facet normal 0.48174 0.876314 -0
    outer loop
      vertex 18.465 5.31597 1
      vertex 17.8047 5.67896 2
      vertex 18.465 5.31597 2
    endloop
  endfacet
  facet normal 0.48174 0.876314 0
    outer loop
      vertex 17.8047 5.67896 2
      vertex 18.465 5.31597 1
      vertex 17.8047 5.67896 1
    endloop
  endfacet
  facet normal 0.248689 0.968583 -0
    outer loop
      vertex 17.1041 5.95634 1
      vertex 16.3743 6.14372 2
      vertex 17.1041 5.95634 2
    endloop
  endfacet
  facet normal 0.248689 0.968583 0
    outer loop
      vertex 16.3743 6.14372 2
      vertex 17.1041 5.95634 1
      vertex 16.3743 6.14372 1
    endloop
  endfacet
  facet normal 0.951072 0.308968 0
    outer loop
      vertex 21.0615 1.74214 2
      vertex 20.8287 2.45875 1
      vertex 20.8287 2.45875 2
    endloop
  endfacet
  facet normal 0.951072 0.308968 0
    outer loop
      vertex 20.8287 2.45875 1
      vertex 21.0615 1.74214 2
      vertex 21.0615 1.74214 1
    endloop
  endfacet
  facet normal 0.904784 -0.42587 0
    outer loop
      vertex 20.5078 -3.14052 2
      vertex 20.8287 -2.45875 1
      vertex 20.8287 -2.45875 2
    endloop
  endfacet
  facet normal 0.904784 -0.42587 0
    outer loop
      vertex 20.8287 -2.45875 1
      vertex 20.5078 -3.14052 2
      vertex 20.5078 -3.14052 1
    endloop
  endfacet
  facet normal 0.998028 -0.0627749 0
    outer loop
      vertex 21.2027 -1.002 2
      vertex 21.25 -0.25 1
      vertex 21.25 -0.25 2
    endloop
  endfacet
  facet normal 0.998028 -0.0627749 0
    outer loop
      vertex 21.25 -0.25 1
      vertex 21.2027 -1.002 2
      vertex 21.2027 -1.002 1
    endloop
  endfacet
  facet normal 0.982285 -0.187395 0
    outer loop
      vertex 21.0615 -1.74214 2
      vertex 21.2027 -1.002 1
      vertex 21.2027 -1.002 2
    endloop
  endfacet
  facet normal 0.982285 -0.187395 0
    outer loop
      vertex 21.2027 -1.002 1
      vertex 21.0615 -1.74214 2
      vertex 21.0615 -1.74214 1
    endloop
  endfacet
  facet normal -0.368116 0.92978 0
    outer loop
      vertex -17.1041 5.95634 1
      vertex -17.8047 5.67896 2
      vertex -17.1041 5.95634 2
    endloop
  endfacet
  facet normal -0.368116 0.92978 0
    outer loop
      vertex -17.8047 5.67896 2
      vertex -17.1041 5.95634 1
      vertex -17.8047 5.67896 1
    endloop
  endfacet
  facet normal -0.904784 -0.42587 0
    outer loop
      vertex -20.5078 -3.14052 1
      vertex -20.8287 -2.45875 2
      vertex -20.8287 -2.45875 1
    endloop
  endfacet
  facet normal -0.904784 -0.42587 0
    outer loop
      vertex -20.8287 -2.45875 2
      vertex -20.5078 -3.14052 1
      vertex -20.5078 -3.14052 2
    endloop
  endfacet
  facet normal -0.844351 -0.53579 0
    outer loop
      vertex -20.1041 -3.77671 1
      vertex -20.5078 -3.14052 2
      vertex -20.5078 -3.14052 1
    endloop
  endfacet
  facet normal -0.844351 -0.53579 0
    outer loop
      vertex -20.5078 -3.14052 2
      vertex -20.1041 -3.77671 1
      vertex -20.1041 -3.77671 2
    endloop
  endfacet
  facet normal -0.684528 -0.728987 0
    outer loop
      vertex -19.6238 -4.35728 1
      vertex -19.0745 -4.87308 2
      vertex -19.6238 -4.35728 2
    endloop
  endfacet
  facet normal -0.684528 -0.728987 -0
    outer loop
      vertex -19.0745 -4.87308 2
      vertex -19.6238 -4.35728 1
      vertex -19.0745 -4.87308 1
    endloop
  endfacet
  facet normal 0.248689 -0.968583 0
    outer loop
      vertex 16.3743 -6.14372 1
      vertex 17.1041 -5.95634 2
      vertex 16.3743 -6.14372 2
    endloop
  endfacet
  facet normal 0.248689 -0.968583 0
    outer loop
      vertex 17.1041 -5.95634 2
      vertex 16.3743 -6.14372 1
      vertex 17.1041 -5.95634 1
    endloop
  endfacet
  facet normal 0.48174 -0.876314 0
    outer loop
      vertex 17.8047 -5.67896 1
      vertex 18.465 -5.31597 2
      vertex 17.8047 -5.67896 2
    endloop
  endfacet
  facet normal 0.48174 -0.876314 0
    outer loop
      vertex 18.465 -5.31597 2
      vertex 17.8047 -5.67896 1
      vertex 18.465 -5.31597 1
    endloop
  endfacet
  facet normal 0.684528 -0.728987 0
    outer loop
      vertex 19.0745 -4.87308 1
      vertex 19.6238 -4.35728 2
      vertex 19.0745 -4.87308 2
    endloop
  endfacet
  facet normal 0.684528 -0.728987 0
    outer loop
      vertex 19.6238 -4.35728 2
      vertex 19.0745 -4.87308 1
      vertex 19.6238 -4.35728 1
    endloop
  endfacet
  facet normal 0.844351 0.53579 0
    outer loop
      vertex 20.5078 3.14052 2
      vertex 20.1041 3.77671 1
      vertex 20.1041 3.77671 2
    endloop
  endfacet
  facet normal 0.844351 0.53579 0
    outer loop
      vertex 20.1041 3.77671 1
      vertex 20.5078 3.14052 2
      vertex 20.5078 3.14052 1
    endloop
  endfacet
  facet normal 1 -0 0
    outer loop
      vertex 21.25 -0.25 2
      vertex 21.25 0.25 1
      vertex 21.25 0.25 2
    endloop
  endfacet
  facet normal 1 0 0
    outer loop
      vertex 21.25 0.25 1
      vertex 21.25 -0.25 2
      vertex 21.25 -0.25 1
    endloop
  endfacet
  facet normal 0.998028 0.0627749 0
    outer loop
      vertex 21.25 0.25 2
      vertex 21.2027 1.002 1
      vertex 21.2027 1.002 2
    endloop
  endfacet
  facet normal 0.998028 0.0627749 0
    outer loop
      vertex 21.2027 1.002 1
      vertex 21.25 0.25 2
      vertex 21.25 0.25 1
    endloop
  endfacet
  facet normal -0.248689 -0.968583 0
    outer loop
      vertex -17.1041 -5.95634 1
      vertex -16.3743 -6.14372 2
      vertex -17.1041 -5.95634 2
    endloop
  endfacet
  facet normal -0.248689 -0.968583 -0
    outer loop
      vertex -16.3743 -6.14372 2
      vertex -17.1041 -5.95634 1
      vertex -16.3743 -6.14372 1
    endloop
  endfacet
  facet normal 0.587839 -0.808978 0
    outer loop
      vertex 18.465 -5.31597 1
      vertex 19.0745 -4.87308 2
      vertex 18.465 -5.31597 2
    endloop
  endfacet
  facet normal 0.587839 -0.808978 0
    outer loop
      vertex 19.0745 -4.87308 2
      vertex 18.465 -5.31597 1
      vertex 19.0745 -4.87308 1
    endloop
  endfacet
  facet normal 0.770506 0.637432 0
    outer loop
      vertex 20.1041 3.77671 2
      vertex 19.6238 4.35728 1
      vertex 19.6238 4.35728 2
    endloop
  endfacet
  facet normal 0.770506 0.637432 0
    outer loop
      vertex 19.6238 4.35728 1
      vertex 20.1041 3.77671 2
      vertex 20.1041 3.77671 1
    endloop
  endfacet
  facet normal 0.844364 0.53577 0
    outer loop
      vertex 26.3815 2.40877 1
      vertex 26.0451 2.93893 0
      vertex 26.0451 2.93893 1
    endloop
  endfacet
  facet normal 0.844364 0.53577 0
    outer loop
      vertex 26.0451 2.93893 0
      vertex 26.3815 2.40877 1
      vertex 26.3815 2.40877 0
    endloop
  endfacet
  facet normal 0.368135 0.929773 -0
    outer loop
      vertex 24.1289 4.52413 0
      vertex 23.5451 4.75528 1
      vertex 24.1289 4.52413 1
    endloop
  endfacet
  facet normal 0.368135 0.929773 0
    outer loop
      vertex 23.5451 4.75528 1
      vertex 24.1289 4.52413 0
      vertex 23.5451 4.75528 0
    endloop
  endfacet
  facet normal 0.982275 -0.187446 0
    outer loop
      vertex 26.8429 -1.24345 1
      vertex 26.9606 -0.626666 0
      vertex 26.9606 -0.626666 1
    endloop
  endfacet
  facet normal 0.982275 -0.187446 0
    outer loop
      vertex 26.9606 -0.626666 0
      vertex 26.8429 -1.24345 1
      vertex 26.8429 -1.24345 0
    endloop
  endfacet
  facet normal 0.982275 0.187446 0
    outer loop
      vertex 26.9606 0.626666 1
      vertex 26.8429 1.24345 0
      vertex 26.8429 1.24345 1
    endloop
  endfacet
  facet normal 0.982275 0.187446 0
    outer loop
      vertex 26.8429 1.24345 0
      vertex 26.9606 0.626666 1
      vertex 26.9606 0.626666 0
    endloop
  endfacet
  facet normal 0.684565 0.728952 -0
    outer loop
      vertex 25.6448 3.42274 0
      vertex 25.1871 3.85257 1
      vertex 25.6448 3.42274 1
    endloop
  endfacet
  facet normal 0.684565 0.728952 0
    outer loop
      vertex 25.1871 3.85257 1
      vertex 25.6448 3.42274 0
      vertex 25.1871 3.85257 0
    endloop
  endfacet
  facet normal 0 1 -0
    outer loop
      vertex 22.314 4.99013 0
      vertex 21.686 4.99013 1
      vertex 22.314 4.99013 1
    endloop
  endfacet
  facet normal 0 1 0
    outer loop
      vertex 21.686 4.99013 1
      vertex 22.314 4.99013 0
      vertex 21.686 4.99013 0
    endloop
  endfacet
  facet normal 0.481772 0.876297 -0
    outer loop
      vertex 24.6791 4.22164 0
      vertex 24.1289 4.52413 1
      vertex 24.6791 4.22164 1
    endloop
  endfacet
  facet normal 0.481772 0.876297 0
    outer loop
      vertex 24.1289 4.52413 1
      vertex 24.6791 4.22164 0
      vertex 24.1289 4.52413 0
    endloop
  endfacet
  facet normal -0.251634 0.967823 0
    outer loop
      vertex 21.0631 4.91144 0
      vertex 21.0626 4.91131 1
      vertex 21.0631 4.91144 1
    endloop
  endfacet
  facet normal -0.251634 0.967823 0
    outer loop
      vertex 21.0626 4.91131 1
      vertex 21.0631 4.91144 0
      vertex 21.0626 4.91131 0
    endloop
  endfacet
  facet normal 0.998029 0.0627485 0
    outer loop
      vertex 27 0 1
      vertex 26.9606 0.626666 0
      vertex 26.9606 0.626666 1
    endloop
  endfacet
  facet normal 0.998029 0.0627485 0
    outer loop
      vertex 26.9606 0.626666 0
      vertex 27 0 1
      vertex 27 0 0
    endloop
  endfacet
  facet normal 0.951072 -0.30897 0
    outer loop
      vertex 26.6489 -1.84062 1
      vertex 26.8429 -1.24345 0
      vertex 26.8429 -1.24345 1
    endloop
  endfacet
  facet normal 0.951072 -0.30897 0
    outer loop
      vertex 26.8429 -1.24345 0
      vertex 26.6489 -1.84062 1
      vertex 26.6489 -1.84062 0
    endloop
  endfacet
  facet normal 0.770468 0.637478 0
    outer loop
      vertex 26.0451 2.93893 1
      vertex 25.6448 3.42274 0
      vertex 25.6448 3.42274 1
    endloop
  endfacet
  facet normal 0.770468 0.637478 0
    outer loop
      vertex 25.6448 3.42274 0
      vertex 26.0451 2.93893 1
      vertex 26.0451 2.93893 0
    endloop
  endfacet
  facet normal -0.125332 0.992115 0
    outer loop
      vertex 21.686 4.99013 0
      vertex 21.0631 4.91144 1
      vertex 21.686 4.99013 1
    endloop
  endfacet
  facet normal -0.125332 0.992115 0
    outer loop
      vertex 21.0631 4.91144 1
      vertex 21.686 4.99013 0
      vertex 21.0631 4.91144 0
    endloop
  endfacet
  facet normal 0.248691 0.968583 -0
    outer loop
      vertex 23.5451 4.75528 0
      vertex 22.9369 4.91144 1
      vertex 23.5451 4.75528 1
    endloop
  endfacet
  facet normal 0.248691 0.968583 0
    outer loop
      vertex 22.9369 4.91144 1
      vertex 23.5451 4.75528 0
      vertex 22.9369 4.91144 0
    endloop
  endfacet
  facet normal 0.125332 0.992115 -0
    outer loop
      vertex 22.9369 4.91144 0
      vertex 22.314 4.99013 1
      vertex 22.9369 4.91144 1
    endloop
  endfacet
  facet normal 0.125332 0.992115 0
    outer loop
      vertex 22.314 4.99013 1
      vertex 22.9369 4.91144 0
      vertex 22.314 4.99013 0
    endloop
  endfacet
  facet normal 0.587771 0.809027 -0
    outer loop
      vertex 25.1871 3.85257 0
      vertex 24.6791 4.22164 1
      vertex 25.1871 3.85257 1
    endloop
  endfacet
  facet normal 0.587771 0.809027 0
    outer loop
      vertex 24.6791 4.22164 1
      vertex 25.1871 3.85257 0
      vertex 24.6791 4.22164 0
    endloop
  endfacet
  facet normal 0.125332 -0.992115 0
    outer loop
      vertex 22.314 -4.99013 0
      vertex 22.9369 -4.91144 1
      vertex 22.314 -4.99013 1
    endloop
  endfacet
  facet normal 0.125332 -0.992115 0
    outer loop
      vertex 22.9369 -4.91144 1
      vertex 22.314 -4.99013 0
      vertex 22.9369 -4.91144 0
    endloop
  endfacet
  facet normal 0.248691 -0.968583 0
    outer loop
      vertex 22.9369 -4.91144 0
      vertex 23.5451 -4.75528 1
      vertex 22.9369 -4.91144 1
    endloop
  endfacet
  facet normal 0.248691 -0.968583 0
    outer loop
      vertex 23.5451 -4.75528 1
      vertex 22.9369 -4.91144 0
      vertex 23.5451 -4.75528 0
    endloop
  endfacet
  facet normal 0.481772 -0.876297 0
    outer loop
      vertex 24.1289 -4.52413 0
      vertex 24.6791 -4.22164 1
      vertex 24.1289 -4.52413 1
    endloop
  endfacet
  facet normal 0.481772 -0.876297 0
    outer loop
      vertex 24.6791 -4.22164 1
      vertex 24.1289 -4.52413 0
      vertex 24.6791 -4.22164 0
    endloop
  endfacet
  facet normal 0.904797 0.425843 0
    outer loop
      vertex 26.6489 1.84062 1
      vertex 26.3815 2.40877 0
      vertex 26.3815 2.40877 1
    endloop
  endfacet
  facet normal 0.904797 0.425843 0
    outer loop
      vertex 26.3815 2.40877 0
      vertex 26.6489 1.84062 1
      vertex 26.6489 1.84062 0
    endloop
  endfacet
  facet normal 0.951072 0.30897 0
    outer loop
      vertex 26.8429 1.24345 1
      vertex 26.6489 1.84062 0
      vertex 26.6489 1.84062 1
    endloop
  endfacet
  facet normal 0.951072 0.30897 0
    outer loop
      vertex 26.6489 1.84062 0
      vertex 26.8429 1.24345 1
      vertex 26.8429 1.24345 0
    endloop
  endfacet
  facet normal 0.998029 -0.0627485 0
    outer loop
      vertex 26.9606 -0.626666 1
      vertex 27 0 0
      vertex 27 0 1
    endloop
  endfacet
  facet normal 0.998029 -0.0627485 0
    outer loop
      vertex 27 0 0
      vertex 26.9606 -0.626666 1
      vertex 26.9606 -0.626666 0
    endloop
  endfacet
  facet normal 0.770468 -0.637478 0
    outer loop
      vertex 25.6448 -3.42274 1
      vertex 26.0451 -2.93893 0
      vertex 26.0451 -2.93893 1
    endloop
  endfacet
  facet normal 0.770468 -0.637478 0
    outer loop
      vertex 26.0451 -2.93893 0
      vertex 25.6448 -3.42274 1
      vertex 25.6448 -3.42274 0
    endloop
  endfacet
  facet normal 0.844364 -0.53577 0
    outer loop
      vertex 26.0451 -2.93893 1
      vertex 26.3815 -2.40877 0
      vertex 26.3815 -2.40877 1
    endloop
  endfacet
  facet normal 0.844364 -0.53577 0
    outer loop
      vertex 26.3815 -2.40877 0
      vertex 26.0451 -2.93893 1
      vertex 26.0451 -2.93893 0
    endloop
  endfacet
  facet normal -0.251634 -0.967823 0
    outer loop
      vertex 21.0626 -4.91131 0
      vertex 21.0631 -4.91144 1
      vertex 21.0626 -4.91131 1
    endloop
  endfacet
  facet normal -0.251634 -0.967823 -0
    outer loop
      vertex 21.0631 -4.91144 1
      vertex 21.0626 -4.91131 0
      vertex 21.0631 -4.91144 0
    endloop
  endfacet
  facet normal 0.368135 -0.929773 0
    outer loop
      vertex 23.5451 -4.75528 0
      vertex 24.1289 -4.52413 1
      vertex 23.5451 -4.75528 1
    endloop
  endfacet
  facet normal 0.368135 -0.929773 0
    outer loop
      vertex 24.1289 -4.52413 1
      vertex 23.5451 -4.75528 0
      vertex 24.1289 -4.52413 0
    endloop
  endfacet
  facet normal 0.684565 -0.728952 0
    outer loop
      vertex 25.1871 -3.85257 0
      vertex 25.6448 -3.42274 1
      vertex 25.1871 -3.85257 1
    endloop
  endfacet
  facet normal 0.684565 -0.728952 0
    outer loop
      vertex 25.6448 -3.42274 1
      vertex 25.1871 -3.85257 0
      vertex 25.6448 -3.42274 0
    endloop
  endfacet
  facet normal 0.587771 -0.809027 0
    outer loop
      vertex 24.6791 -4.22164 0
      vertex 25.1871 -3.85257 1
      vertex 24.6791 -4.22164 1
    endloop
  endfacet
  facet normal 0.587771 -0.809027 0
    outer loop
      vertex 25.1871 -3.85257 1
      vertex 24.6791 -4.22164 0
      vertex 25.1871 -3.85257 0
    endloop
  endfacet
  facet normal 0.904797 -0.425843 0
    outer loop
      vertex 26.3815 -2.40877 1
      vertex 26.6489 -1.84062 0
      vertex 26.6489 -1.84062 1
    endloop
  endfacet
  facet normal 0.904797 -0.425843 0
    outer loop
      vertex 26.6489 -1.84062 0
      vertex 26.3815 -2.40877 1
      vertex 26.3815 -2.40877 0
    endloop
  endfacet
  facet normal 0 -1 0
    outer loop
      vertex 21.686 -4.99013 0
      vertex 22.314 -4.99013 1
      vertex 21.686 -4.99013 1
    endloop
  endfacet
  facet normal 0 -1 -0
    outer loop
      vertex 22.314 -4.99013 1
      vertex 21.686 -4.99013 0
      vertex 22.314 -4.99013 0
    endloop
  endfacet
  facet normal -0.125332 -0.992115 0
    outer loop
      vertex 21.0631 -4.91144 0
      vertex 21.686 -4.99013 1
      vertex 21.0631 -4.91144 1
    endloop
  endfacet
  facet normal -0.125332 -0.992115 -0
    outer loop
      vertex 21.686 -4.99013 1
      vertex 21.0631 -4.91144 0
      vertex 21.686 -4.99013 0
    endloop
  endfacet
endsolid OpenSCAD_Model
