<?xml version="1.0" standalone="no"?>
<!DOCTYPE svg PUBLIC "-//W3C//DTD SVG 1.1//EN" "http://www.w3.org/Graphics/SVG/1.1/DTD/svg11.dtd">
<svg width="120mm" height="93mm" viewBox="-60 -93 120 93" xmlns="http://www.w3.org/2000/svg" version="1.1">
<title>OpenSCAD Model</title>
<path d="
M 59.5,-87.5 L 59.4606,-88.1267 L 59.3429,-88.7434 L 59.1489,-89.3406 L 58.8815,-89.9088 L 58.5451,-90.4389
 L 58.1448,-90.9227 L 57.6871,-91.3526 L 57.1791,-91.7216 L 56.6289,-92.0241 L 56.0451,-92.2553 L 55.4369,-92.4114
 L 54.8139,-92.4901 L -54.8139,-92.4901 L -55.4369,-92.4114 L -56.0451,-92.2553 L -56.6289,-92.0241 L -57.1791,-91.7216
 L -57.6871,-91.3526 L -58.1448,-90.9227 L -58.5451,-90.4389 L -58.8815,-89.9088 L -59.1489,-89.3406 L -59.3429,-88.7434
 L -59.4606,-88.1267 L -59.5,-87.5 L -59.5,-72 L 59.5,-72 z
M -52.6884,-82.5059 L -53.0621,-82.5531 L -53.427,-82.6468 L -53.7773,-82.7855 L -54.1075,-82.967 L -54.4123,-83.1884
 L -54.6869,-83.4464 L -54.927,-83.7366 L -55.1289,-84.0547 L -55.2893,-84.3956 L -55.4057,-84.7539 L -55.4763,-85.124
 L -55.5,-85.5 L -55.4763,-85.876 L -55.4057,-86.2461 L -55.2893,-86.6044 L -55.1289,-86.9453 L -54.927,-87.2634
 L -54.6869,-87.5536 L -54.4123,-87.8115 L -54.1075,-88.033 L -53.7773,-88.2145 L -53.427,-88.3532 L -53.0621,-88.4469
 L -52.6884,-88.4941 L -52.3116,-88.4941 L -51.9379,-88.4469 L -51.5729,-88.3532 L -51.2227,-88.2145 L -50.8925,-88.033
 L -50.5877,-87.8115 L -50.3131,-87.5536 L -50.0729,-87.2634 L -49.8711,-86.9453 L -49.7107,-86.6044 L -49.5942,-86.2461
 L -49.5237,-85.876 L -49.5,-85.5 L -49.5237,-85.124 L -49.5942,-84.7539 L -49.7107,-84.3956 L -49.8711,-84.0547
 L -50.0729,-83.7366 L -50.3131,-83.4464 L -50.5877,-83.1884 L -50.8925,-82.967 L -51.2227,-82.7855 L -51.5729,-82.6468
 L -51.9379,-82.5531 L -52.3116,-82.5059 z
M -37.6884,-82.5059 L -38.0621,-82.5531 L -38.427,-82.6468 L -38.7773,-82.7855 L -39.1075,-82.967 L -39.4123,-83.1884
 L -39.6869,-83.4464 L -39.927,-83.7366 L -40.1289,-84.0547 L -40.2893,-84.3956 L -40.4057,-84.7539 L -40.4763,-85.124
 L -40.5,-85.5 L -40.4763,-85.876 L -40.4057,-86.2461 L -40.2893,-86.6044 L -40.1289,-86.9453 L -39.927,-87.2634
 L -39.6869,-87.5536 L -39.4123,-87.8115 L -39.1075,-88.033 L -38.7773,-88.2145 L -38.427,-88.3532 L -38.0621,-88.4469
 L -37.6884,-88.4941 L -37.3116,-88.4941 L -36.9379,-88.4469 L -36.5729,-88.3532 L -36.2227,-88.2145 L -35.8925,-88.033
 L -35.5877,-87.8115 L -35.3131,-87.5536 L -35.0729,-87.2634 L -34.8711,-86.9453 L -34.7107,-86.6044 L -34.5942,-86.2461
 L -34.5237,-85.876 L -34.5,-85.5 L -34.5237,-85.124 L -34.5942,-84.7539 L -34.7107,-84.3956 L -34.8711,-84.0547
 L -35.0729,-83.7366 L -35.3131,-83.4464 L -35.5877,-83.1884 L -35.8925,-82.967 L -36.2227,-82.7855 L -36.5729,-82.6468
 L -36.9379,-82.5531 L -37.3116,-82.5059 z
M 52.3116,-82.5059 L 51.9379,-82.5531 L 51.5729,-82.6468 L 51.2227,-82.7855 L 50.8925,-82.967 L 50.5877,-83.1884
 L 50.3131,-83.4464 L 50.0729,-83.7366 L 49.8711,-84.0547 L 49.7107,-84.3956 L 49.5942,-84.7539 L 49.5237,-85.124
 L 49.5,-85.5 L 49.5237,-85.876 L 49.5942,-86.2461 L 49.7107,-86.6044 L 49.8711,-86.9453 L 50.0729,-87.2634
 L 50.3131,-87.5536 L 50.5877,-87.8115 L 50.8925,-88.033 L 51.2227,-88.2145 L 51.5729,-88.3532 L 51.9379,-88.4469
 L 52.3116,-88.4941 L 52.6884,-88.4941 L 53.0621,-88.4469 L 53.427,-88.3532 L 53.7773,-88.2145 L 54.1075,-88.033
 L 54.4123,-87.8115 L 54.6869,-87.5536 L 54.927,-87.2634 L 55.1289,-86.9453 L 55.2893,-86.6044 L 55.4057,-86.2461
 L 55.4763,-85.876 L 55.5,-85.5 L 55.4763,-85.124 L 55.4057,-84.7539 L 55.2893,-84.3956 L 55.1289,-84.0547
 L 54.927,-83.7366 L 54.6869,-83.4464 L 54.4123,-83.1884 L 54.1075,-82.967 L 53.7773,-82.7855 L 53.427,-82.6468
 L 53.0621,-82.5531 L 52.6884,-82.5059 z
M -7.68837,-82.5059 L -8.06213,-82.5531 L -8.42705,-82.6468 L -8.77733,-82.7855 L -9.10747,-82.967 L -9.41226,-83.1884
 L -9.6869,-83.4464 L -9.92705,-83.7366 L -10.1289,-84.0547 L -10.2893,-84.3956 L -10.4057,-84.7539 L -10.4763,-85.124
 L -10.5,-85.5 L -10.4763,-85.876 L -10.4057,-86.2461 L -10.2893,-86.6044 L -10.1289,-86.9453 L -9.92705,-87.2634
 L -9.6869,-87.5536 L -9.41226,-87.8115 L -9.10747,-88.033 L -8.77733,-88.2145 L -8.42705,-88.3532 L -8.06213,-88.4469
 L -7.68837,-88.4941 L -7.31161,-88.4941 L -6.93785,-88.4469 L -6.57294,-88.3532 L -6.22266,-88.2145 L -5.89252,-88.033
 L -5.58772,-87.8115 L -5.31308,-87.5536 L -5.07294,-87.2634 L -4.87108,-86.9453 L -4.71066,-86.6044 L -4.59424,-86.2461
 L -4.52365,-85.876 L -4.5,-85.5 L -4.52365,-85.124 L -4.59424,-84.7539 L -4.71066,-84.3956 L -4.87108,-84.0547
 L -5.07294,-83.7366 L -5.31308,-83.4464 L -5.58772,-83.1884 L -5.89252,-82.967 L -6.22266,-82.7855 L -6.57294,-82.6468
 L -6.93785,-82.5531 L -7.31161,-82.5059 z
M 37.3116,-82.5059 L 36.9379,-82.5531 L 36.5729,-82.6468 L 36.2227,-82.7855 L 35.8925,-82.967 L 35.5877,-83.1884
 L 35.3131,-83.4464 L 35.0729,-83.7366 L 34.8711,-84.0547 L 34.7107,-84.3956 L 34.5942,-84.7539 L 34.5237,-85.124
 L 34.5,-85.5 L 34.5237,-85.876 L 34.5942,-86.2461 L 34.7107,-86.6044 L 34.8711,-86.9453 L 35.0729,-87.2634
 L 35.3131,-87.5536 L 35.5877,-87.8115 L 35.8925,-88.033 L 36.2227,-88.2145 L 36.5729,-88.3532 L 36.9379,-88.4469
 L 37.3116,-88.4941 L 37.6884,-88.4941 L 38.0621,-88.4469 L 38.427,-88.3532 L 38.7773,-88.2145 L 39.1075,-88.033
 L 39.4123,-87.8115 L 39.6869,-87.5536 L 39.927,-87.2634 L 40.1289,-86.9453 L 40.2893,-86.6044 L 40.4057,-86.2461
 L 40.4763,-85.876 L 40.5,-85.5 L 40.4763,-85.124 L 40.4057,-84.7539 L 40.2893,-84.3956 L 40.1289,-84.0547
 L 39.927,-83.7366 L 39.6869,-83.4464 L 39.4123,-83.1884 L 39.1075,-82.967 L 38.7773,-82.7855 L 38.427,-82.6468
 L 38.0621,-82.5531 L 37.6884,-82.5059 z
M 7.31161,-82.5059 L 6.93785,-82.5531 L 6.57294,-82.6468 L 6.22266,-82.7855 L 5.89252,-82.967 L 5.58772,-83.1884
 L 5.31308,-83.4464 L 5.07294,-83.7366 L 4.87108,-84.0547 L 4.71066,-84.3956 L 4.59424,-84.7539 L 4.52365,-85.124
 L 4.5,-85.5 L 4.52365,-85.876 L 4.59424,-86.2461 L 4.71066,-86.6044 L 4.87108,-86.9453 L 5.07294,-87.2634
 L 5.31308,-87.5536 L 5.58772,-87.8115 L 5.89252,-88.033 L 6.22266,-88.2145 L 6.57294,-88.3532 L 6.93785,-88.4469
 L 7.31161,-88.4941 L 7.68837,-88.4941 L 8.06213,-88.4469 L 8.42705,-88.3532 L 8.77733,-88.2145 L 9.10747,-88.033
 L 9.41226,-87.8115 L 9.6869,-87.5536 L 9.92705,-87.2634 L 10.1289,-86.9453 L 10.2893,-86.6044 L 10.4057,-86.2461
 L 10.4763,-85.876 L 10.5,-85.5 L 10.4763,-85.124 L 10.4057,-84.7539 L 10.2893,-84.3956 L 10.1289,-84.0547
 L 9.92705,-83.7366 L 9.6869,-83.4464 L 9.41226,-83.1884 L 9.10747,-82.967 L 8.77733,-82.7855 L 8.42705,-82.6468
 L 8.06213,-82.5531 L 7.68837,-82.5059 z
M 22.3116,-82.5059 L 21.9379,-82.5531 L 21.5729,-82.6468 L 21.2227,-82.7855 L 20.8925,-82.967 L 20.5877,-83.1884
 L 20.3131,-83.4464 L 20.0729,-83.7366 L 19.8711,-84.0547 L 19.7107,-84.3956 L 19.5942,-84.7539 L 19.5237,-85.124
 L 19.5,-85.5 L 19.5237,-85.876 L 19.5942,-86.2461 L 19.7107,-86.6044 L 19.8711,-86.9453 L 20.0729,-87.2634
 L 20.3131,-87.5536 L 20.5877,-87.8115 L 20.8925,-88.033 L 21.2227,-88.2145 L 21.5729,-88.3532 L 21.9379,-88.4469
 L 22.3116,-88.4941 L 22.6884,-88.4941 L 23.0621,-88.4469 L 23.427,-88.3532 L 23.7773,-88.2145 L 24.1075,-88.033
 L 24.4123,-87.8115 L 24.6869,-87.5536 L 24.927,-87.2634 L 25.1289,-86.9453 L 25.2893,-86.6044 L 25.4057,-86.2461
 L 25.4763,-85.876 L 25.5,-85.5 L 25.4763,-85.124 L 25.4057,-84.7539 L 25.2893,-84.3956 L 25.1289,-84.0547
 L 24.927,-83.7366 L 24.6869,-83.4464 L 24.4123,-83.1884 L 24.1075,-82.967 L 23.7773,-82.7855 L 23.427,-82.6468
 L 23.0621,-82.5531 L 22.6884,-82.5059 z
M -22.6884,-82.5059 L -23.0621,-82.5531 L -23.427,-82.6468 L -23.7773,-82.7855 L -24.1075,-82.967 L -24.4123,-83.1884
 L -24.6869,-83.4464 L -24.927,-83.7366 L -25.1289,-84.0547 L -25.2893,-84.3956 L -25.4057,-84.7539 L -25.4763,-85.124
 L -25.5,-85.5 L -25.4763,-85.876 L -25.4057,-86.2461 L -25.2893,-86.6044 L -25.1289,-86.9453 L -24.927,-87.2634
 L -24.6869,-87.5536 L -24.4123,-87.8115 L -24.1075,-88.033 L -23.7773,-88.2145 L -23.427,-88.3532 L -23.0621,-88.4469
 L -22.6884,-88.4941 L -22.3116,-88.4941 L -21.9379,-88.4469 L -21.5729,-88.3532 L -21.2227,-88.2145 L -20.8925,-88.033
 L -20.5877,-87.8115 L -20.3131,-87.5536 L -20.0729,-87.2634 L -19.8711,-86.9453 L -19.7107,-86.6044 L -19.5942,-86.2461
 L -19.5237,-85.876 L -19.5,-85.5 L -19.5237,-85.124 L -19.5942,-84.7539 L -19.7107,-84.3956 L -19.8711,-84.0547
 L -20.0729,-83.7366 L -20.3131,-83.4464 L -20.5877,-83.1884 L -20.8925,-82.967 L -21.2227,-82.7855 L -21.5729,-82.6468
 L -21.9379,-82.5531 L -22.3116,-82.5059 z
M 44.8493,-83.1047 L 44.5503,-83.1425 L 44.2583,-83.2175 L 43.9781,-83.3284 L 43.714,-83.4736 L 43.4702,-83.6508
 L 43.2505,-83.8571 L 43.0583,-84.0893 L 42.8969,-84.3438 L 42.7685,-84.6165 L 42.6754,-84.9031 L 42.6189,-85.1992
 L 42.6,-85.5 L 42.6189,-85.8008 L 42.6754,-86.0968 L 42.7685,-86.3835 L 42.8969,-86.6562 L 43.0583,-86.9107
 L 43.2505,-87.1429 L 43.4702,-87.3492 L 43.714,-87.5264 L 43.9781,-87.6716 L 44.2583,-87.7825 L 44.5503,-87.8575
 L 44.8493,-87.8953 L 45.1507,-87.8953 L 45.4497,-87.8575 L 45.7416,-87.7825 L 46.0219,-87.6716 L 46.286,-87.5264
 L 46.5298,-87.3492 L 46.7495,-87.1429 L 46.9416,-86.9107 L 47.1031,-86.6562 L 47.2315,-86.3835 L 47.3246,-86.0968
 L 47.3811,-85.8008 L 47.4,-85.5 L 47.3811,-85.1992 L 47.3246,-84.9031 L 47.2315,-84.6165 L 47.1031,-84.3438
 L 46.9416,-84.0893 L 46.7495,-83.8571 L 46.5298,-83.6508 L 46.286,-83.4736 L 46.0219,-83.3284 L 45.7416,-83.2175
 L 45.4497,-83.1425 L 45.1507,-83.1047 z
M -30.1507,-83.1047 L -30.4497,-83.1425 L -30.7416,-83.2175 L -31.0219,-83.3284 L -31.286,-83.4736 L -31.5298,-83.6508
 L -31.7495,-83.8571 L -31.9416,-84.0893 L -32.1031,-84.3438 L -32.2315,-84.6165 L -32.3246,-84.9031 L -32.3811,-85.1992
 L -32.4,-85.5 L -32.3811,-85.8008 L -32.3246,-86.0968 L -32.2315,-86.3835 L -32.1031,-86.6562 L -31.9416,-86.9107
 L -31.7495,-87.1429 L -31.5298,-87.3492 L -31.286,-87.5264 L -31.0219,-87.6716 L -30.7416,-87.7825 L -30.4497,-87.8575
 L -30.1507,-87.8953 L -29.8493,-87.8953 L -29.5503,-87.8575 L -29.2583,-87.7825 L -28.9781,-87.6716 L -28.714,-87.5264
 L -28.4702,-87.3492 L -28.2505,-87.1429 L -28.0583,-86.9107 L -27.8969,-86.6562 L -27.7685,-86.3835 L -27.6754,-86.0968
 L -27.6189,-85.8008 L -27.6,-85.5 L -27.6189,-85.1992 L -27.6754,-84.9031 L -27.7685,-84.6165 L -27.8969,-84.3438
 L -28.0583,-84.0893 L -28.2505,-83.8571 L -28.4702,-83.6508 L -28.714,-83.4736 L -28.9781,-83.3284 L -29.2583,-83.2175
 L -29.5503,-83.1425 L -29.8493,-83.1047 z
M -45.1507,-83.1047 L -45.4497,-83.1425 L -45.7416,-83.2175 L -46.0219,-83.3284 L -46.286,-83.4736 L -46.5298,-83.6508
 L -46.7495,-83.8571 L -46.9416,-84.0893 L -47.1031,-84.3438 L -47.2315,-84.6165 L -47.3246,-84.9031 L -47.3811,-85.1992
 L -47.4,-85.5 L -47.3811,-85.8008 L -47.3246,-86.0968 L -47.2315,-86.3835 L -47.1031,-86.6562 L -46.9416,-86.9107
 L -46.7495,-87.1429 L -46.5298,-87.3492 L -46.286,-87.5264 L -46.0219,-87.6716 L -45.7416,-87.7825 L -45.4497,-87.8575
 L -45.1507,-87.8953 L -44.8493,-87.8953 L -44.5503,-87.8575 L -44.2583,-87.7825 L -43.9781,-87.6716 L -43.714,-87.5264
 L -43.4702,-87.3492 L -43.2505,-87.1429 L -43.0583,-86.9107 L -42.8969,-86.6562 L -42.7685,-86.3835 L -42.6754,-86.0968
 L -42.6189,-85.8008 L -42.6,-85.5 L -42.6189,-85.1992 L -42.6754,-84.9031 L -42.7685,-84.6165 L -42.8969,-84.3438
 L -43.0583,-84.0893 L -43.2505,-83.8571 L -43.4702,-83.6508 L -43.714,-83.4736 L -43.9781,-83.3284 L -44.2583,-83.2175
 L -44.5503,-83.1425 L -44.8493,-83.1047 z
M -15.1507,-83.1047 L -15.4497,-83.1425 L -15.7416,-83.2175 L -16.0219,-83.3284 L -16.286,-83.4736 L -16.5298,-83.6508
 L -16.7495,-83.8571 L -16.9416,-84.0893 L -17.1031,-84.3438 L -17.2315,-84.6165 L -17.3246,-84.9031 L -17.3811,-85.1992
 L -17.4,-85.5 L -17.3811,-85.8008 L -17.3246,-86.0968 L -17.2315,-86.3835 L -17.1031,-86.6562 L -16.9416,-86.9107
 L -16.7495,-87.1429 L -16.5298,-87.3492 L -16.286,-87.5264 L -16.0219,-87.6716 L -15.7416,-87.7825 L -15.4497,-87.8575
 L -15.1507,-87.8953 L -14.8493,-87.8953 L -14.5503,-87.8575 L -14.2583,-87.7825 L -13.9781,-87.6716 L -13.714,-87.5264
 L -13.4702,-87.3492 L -13.2505,-87.1429 L -13.0583,-86.9107 L -12.8969,-86.6562 L -12.7685,-86.3835 L -12.6754,-86.0968
 L -12.6189,-85.8008 L -12.6,-85.5 L -12.6189,-85.1992 L -12.6754,-84.9031 L -12.7685,-84.6165 L -12.8969,-84.3438
 L -13.0583,-84.0893 L -13.2505,-83.8571 L -13.4702,-83.6508 L -13.714,-83.4736 L -13.9781,-83.3284 L -14.2583,-83.2175
 L -14.5503,-83.1425 L -14.8493,-83.1047 z
M 14.8493,-83.1047 L 14.5503,-83.1425 L 14.2583,-83.2175 L 13.9781,-83.3284 L 13.714,-83.4736 L 13.4702,-83.6508
 L 13.2505,-83.8571 L 13.0583,-84.0893 L 12.8969,-84.3438 L 12.7685,-84.6165 L 12.6754,-84.9031 L 12.6189,-85.1992
 L 12.6,-85.5 L 12.6189,-85.8008 L 12.6754,-86.0968 L 12.7685,-86.3835 L 12.8969,-86.6562 L 13.0583,-86.9107
 L 13.2505,-87.1429 L 13.4702,-87.3492 L 13.714,-87.5264 L 13.9781,-87.6716 L 14.2583,-87.7825 L 14.5503,-87.8575
 L 14.8493,-87.8953 L 15.1507,-87.8953 L 15.4497,-87.8575 L 15.7416,-87.7825 L 16.0219,-87.6716 L 16.286,-87.5264
 L 16.5298,-87.3492 L 16.7495,-87.1429 L 16.9416,-86.9107 L 17.1031,-86.6562 L 17.2315,-86.3835 L 17.3246,-86.0968
 L 17.3811,-85.8008 L 17.4,-85.5 L 17.3811,-85.1992 L 17.3246,-84.9031 L 17.2315,-84.6165 L 17.1031,-84.3438
 L 16.9416,-84.0893 L 16.7495,-83.8571 L 16.5298,-83.6508 L 16.286,-83.4736 L 16.0219,-83.3284 L 15.7416,-83.2175
 L 15.4497,-83.1425 L 15.1507,-83.1047 z
M 48.9858,-75.6 L 48.9858,-81 L 56.0142,-81 L 56.0142,-75.6 z
M -11.0142,-75.6 L -11.0142,-81 L -3.98581,-81 L -3.98581,-75.6 z
M 3.98581,-75.6 L 3.98581,-81 L 11.0142,-81 L 11.0142,-75.6 z
M -56.0142,-75.6 L -56.0142,-81 L -48.9858,-81 L -48.9858,-75.6 z
M -41.0142,-75.6 L -41.0142,-81 L -33.9858,-81 L -33.9858,-75.6 z
M 33.9858,-75.6 L 33.9858,-81 L 41.0142,-81 L 41.0142,-75.6 z
M 18.9858,-75.6 L 18.9858,-81 L 26.0142,-81 L 26.0142,-75.6 z
M -26.0142,-75.6 L -26.0142,-81 L -18.9858,-81 L -18.9858,-75.6 z
M -55.0307,-51.6 L -57.7462,-51.6 L -57.7462,-57 L -55.0307,-57 L -55.0307,-59.9 L -55.1289,-60.0547
 L -55.2893,-60.3956 L -55.4057,-60.7539 L -55.4763,-61.124 L -55.5,-61.5 L -55.4763,-61.876 L -55.4057,-62.2461
 L -55.2893,-62.6044 L -55.1289,-62.9453 L -54.927,-63.2634 L -54.6869,-63.5536 L -54.4123,-63.8115 L -54.1075,-64.033
 L -53.7773,-64.2145 L -53.427,-64.3532 L -53.0621,-64.4469 L -52.6884,-64.4941 L -52.3116,-64.4941 L -51.9379,-64.4469
 L -51.5729,-64.3532 L -51.2227,-64.2145 L -50.8925,-64.033 L -50.5877,-63.8115 L -50.3131,-63.5536 L -50.0729,-63.2634
 L -49.8711,-62.9453 L -49.7107,-62.6044 L -49.5942,-62.2461 L -49.5237,-61.876 L -49.5,-61.5 L -49.5237,-61.124
 L -49.5942,-60.7539 L -49.7107,-60.3956 L -49.8711,-60.0547 L -49.9693,-59.9 L -49.9693,-57 L -47.2538,-57
 L -47.2538,-51.6 L -49.9693,-51.6 L -49.9693,-48 L -40.0307,-48 L -40.0307,-51.6 L -42.7462,-51.6
 L -42.7462,-57 L -40.0307,-57 L -40.0307,-59.9 L -40.1289,-60.0547 L -40.2893,-60.3956 L -40.4057,-60.7539
 L -40.4763,-61.124 L -40.5,-61.5 L -40.4763,-61.876 L -40.4057,-62.2461 L -40.2893,-62.6044 L -40.1289,-62.9453
 L -39.927,-63.2634 L -39.6869,-63.5536 L -39.4123,-63.8115 L -39.1075,-64.033 L -38.7773,-64.2145 L -38.427,-64.3532
 L -38.0621,-64.4469 L -37.6884,-64.4941 L -37.3116,-64.4941 L -36.9379,-64.4469 L -36.5729,-64.3532 L -36.2227,-64.2145
 L -35.8925,-64.033 L -35.5877,-63.8115 L -35.3131,-63.5536 L -35.0729,-63.2634 L -34.8711,-62.9453 L -34.7107,-62.6044
 L -34.5942,-62.2461 L -34.5237,-61.876 L -34.5,-61.5 L -34.5237,-61.124 L -34.5942,-60.7539 L -34.7107,-60.3956
 L -34.8711,-60.0547 L -34.9693,-59.9 L -34.9693,-57 L -32.2538,-57 L -32.2538,-51.6 L -34.9693,-51.6
 L -34.9693,-48 L -25.0307,-48 L -25.0307,-51.6 L -27.7462,-51.6 L -27.7462,-57 L -25.0307,-57
 L -25.0307,-59.9 L -25.1289,-60.0547 L -25.2893,-60.3956 L -25.4057,-60.7539 L -25.4763,-61.124 L -25.5,-61.5
 L -25.4763,-61.876 L -25.4057,-62.2461 L -25.2893,-62.6044 L -25.1289,-62.9453 L -24.927,-63.2634 L -24.6869,-63.5536
 L -24.4123,-63.8115 L -24.1075,-64.033 L -23.7773,-64.2145 L -23.427,-64.3532 L -23.0621,-64.4469 L -22.6884,-64.4941
 L -22.3116,-64.4941 L -21.9379,-64.4469 L -21.5729,-64.3532 L -21.2227,-64.2145 L -20.8925,-64.033 L -20.5877,-63.8115
 L -20.3131,-63.5536 L -20.0729,-63.2634 L -19.8711,-62.9453 L -19.7107,-62.6044 L -19.5942,-62.2461 L -19.5237,-61.876
 L -19.5,-61.5 L -19.5237,-61.124 L -19.5942,-60.7539 L -19.7107,-60.3956 L -19.8711,-60.0547 L -19.9693,-59.9
 L -19.9693,-57 L -17.2538,-57 L -17.2538,-51.6 L -19.9693,-51.6 L -19.9693,-48 L -10.0307,-48
 L -10.0307,-51.6 L -12.7462,-51.6 L -12.7462,-57 L -10.0307,-57 L -10.0307,-59.9 L -10.1289,-60.0547
 L -10.2893,-60.3956 L -10.4057,-60.7539 L -10.4763,-61.124 L -10.5,-61.5 L -10.4763,-61.876 L -10.4057,-62.2461
 L -10.2893,-62.6044 L -10.1289,-62.9453 L -9.92705,-63.2634 L -9.6869,-63.5536 L -9.41226,-63.8115 L -9.10747,-64.033
 L -8.77733,-64.2145 L -8.42705,-64.3532 L -8.06213,-64.4469 L -7.68837,-64.4941 L -7.31161,-64.4941 L -6.93785,-64.4469
 L -6.57294,-64.3532 L -6.22266,-64.2145 L -5.89252,-64.033 L -5.58772,-63.8115 L -5.31308,-63.5536 L -5.07294,-63.2634
 L -4.87108,-62.9453 L -4.71066,-62.6044 L -4.59424,-62.2461 L -4.52365,-61.876 L -4.5,-61.5 L -4.52365,-61.124
 L -4.59424,-60.7539 L -4.71066,-60.3956 L -4.87108,-60.0547 L -4.96927,-59.9 L -4.96927,-57 L -2.25375,-57
 L -2.25375,-51.6 L -4.96927,-51.6 L -4.96927,-48 L 4.96927,-48 L 4.96927,-51.6 L 2.25375,-51.6
 L 2.25375,-57 L 4.96927,-57 L 4.96927,-59.9 L 4.87108,-60.0547 L 4.71066,-60.3956 L 4.59424,-60.7539
 L 4.52365,-61.124 L 4.5,-61.5 L 4.52365,-61.876 L 4.59424,-62.2461 L 4.71066,-62.6044 L 4.87108,-62.9453
 L 5.07294,-63.2634 L 5.31308,-63.5536 L 5.58772,-63.8115 L 5.89252,-64.033 L 6.22266,-64.2145 L 6.57294,-64.3532
 L 6.93785,-64.4469 L 7.31161,-64.4941 L 7.68837,-64.4941 L 8.06213,-64.4469 L 8.42705,-64.3532 L 8.77733,-64.2145
 L 9.10747,-64.033 L 9.41226,-63.8115 L 9.6869,-63.5536 L 9.92705,-63.2634 L 10.1289,-62.9453 L 10.2893,-62.6044
 L 10.4057,-62.2461 L 10.4763,-61.876 L 10.5,-61.5 L 10.4763,-61.124 L 10.4057,-60.7539 L 10.2893,-60.3956
 L 10.1289,-60.0547 L 10.0307,-59.9 L 10.0307,-57 L 12.7462,-57 L 12.7462,-51.6 L 10.0307,-51.6
 L 10.0307,-48 L 19.9693,-48 L 19.9693,-51.6 L 17.2538,-51.6 L 17.2538,-57 L 19.9693,-57
 L 19.9693,-59.9 L 19.8711,-60.0547 L 19.7107,-60.3956 L 19.5942,-60.7539 L 19.5237,-61.124 L 19.5,-61.5
 L 19.5237,-61.876 L 19.5942,-62.2461 L 19.7107,-62.6044 L 19.8711,-62.9453 L 20.0729,-63.2634 L 20.3131,-63.5536
 L 20.5877,-63.8115 L 20.8925,-64.033 L 21.2227,-64.2145 L 21.5729,-64.3532 L 21.9379,-64.4469 L 22.3116,-64.4941
 L 22.6884,-64.4941 L 23.0621,-64.4469 L 23.427,-64.3532 L 23.7773,-64.2145 L 24.1075,-64.033 L 24.4123,-63.8115
 L 24.6869,-63.5536 L 24.927,-63.2634 L 25.1289,-62.9453 L 25.2893,-62.6044 L 25.4057,-62.2461 L 25.4763,-61.876
 L 25.5,-61.5 L 25.4763,-61.124 L 25.4057,-60.7539 L 25.2893,-60.3956 L 25.1289,-60.0547 L 25.0307,-59.9
 L 25.0307,-57 L 27.7462,-57 L 27.7462,-51.6 L 25.0307,-51.6 L 25.0307,-48 L 34.9693,-48
 L 34.9693,-51.6 L 32.2538,-51.6 L 32.2538,-57 L 34.9693,-57 L 34.9693,-59.9 L 34.8711,-60.0547
 L 34.7107,-60.3956 L 34.5942,-60.7539 L 34.5237,-61.124 L 34.5,-61.5 L 34.5237,-61.876 L 34.5942,-62.2461
 L 34.7107,-62.6044 L 34.8711,-62.9453 L 35.0729,-63.2634 L 35.3131,-63.5536 L 35.5877,-63.8115 L 35.8925,-64.033
 L 36.2227,-64.2145 L 36.5729,-64.3532 L 36.9379,-64.4469 L 37.3116,-64.4941 L 37.6884,-64.4941 L 38.0621,-64.4469
 L 38.427,-64.3532 L 38.7773,-64.2145 L 39.1075,-64.033 L 39.4123,-63.8115 L 39.6869,-63.5536 L 39.927,-63.2634
 L 40.1289,-62.9453 L 40.2893,-62.6044 L 40.4057,-62.2461 L 40.4763,-61.876 L 40.5,-61.5 L 40.4763,-61.124
 L 40.4057,-60.7539 L 40.2893,-60.3956 L 40.1289,-60.0547 L 40.0307,-59.9 L 40.0307,-57 L 42.7462,-57
 L 42.7462,-51.6 L 40.0307,-51.6 L 40.0307,-48 L 49.9693,-48 L 49.9693,-51.6 L 47.2538,-51.6
 L 47.2538,-57 L 49.9693,-57 L 49.9693,-59.9 L 49.8711,-60.0547 L 49.7107,-60.3956 L 49.5942,-60.7539
 L 49.5237,-61.124 L 49.5,-61.5 L 49.5237,-61.876 L 49.5942,-62.2461 L 49.7107,-62.6044 L 49.8711,-62.9453
 L 50.0729,-63.2634 L 50.3131,-63.5536 L 50.5877,-63.8115 L 50.8925,-64.033 L 51.2227,-64.2145 L 51.5729,-64.3532
 L 51.9379,-64.4469 L 52.3116,-64.4941 L 52.6884,-64.4941 L 53.0621,-64.4469 L 53.427,-64.3532 L 53.7773,-64.2145
 L 54.1075,-64.033 L 54.4123,-63.8115 L 54.6869,-63.5536 L 54.927,-63.2634 L 55.1289,-62.9453 L 55.2893,-62.6044
 L 55.4057,-62.2461 L 55.4763,-61.876 L 55.5,-61.5 L 55.4763,-61.124 L 55.4057,-60.7539 L 55.2893,-60.3956
 L 55.1289,-60.0547 L 55.0307,-59.9 L 55.0307,-57 L 57.7462,-57 L 57.7462,-51.6 L 55.0307,-51.6
 L 55.0307,-48 L 59.5,-48 L 59.5,-63.5 L 59.4606,-64.1267 L 59.3429,-64.7434 L 59.1489,-65.3406
 L 58.8815,-65.9088 L 58.5451,-66.4389 L 58.1448,-66.9227 L 57.6871,-67.3526 L 57.1791,-67.7216 L 56.6289,-68.0241
 L 56.0451,-68.2553 L 55.4369,-68.4114 L 54.8139,-68.4901 L -54.8139,-68.4901 L -55.4369,-68.4114 L -56.0451,-68.2553
 L -56.6289,-68.0241 L -57.1791,-67.7216 L -57.6871,-67.3526 L -58.1448,-66.9227 L -58.5451,-66.4389 L -58.8815,-65.9088
 L -59.1489,-65.3406 L -59.3429,-64.7434 L -59.4606,-64.1267 L -59.5,-63.5 L -59.5,-48 L -55.0307,-48
 z
M 43.3267,-58.6018 L 41.6534,-61.5 L 43.3267,-64.3982 L 46.6733,-64.3982 L 48.3466,-61.5 L 46.6733,-58.6018
 z
M -16.6733,-58.6018 L -18.3466,-61.5 L -16.6733,-64.3982 L -13.3267,-64.3982 L -11.6534,-61.5 L -13.3267,-58.6018
 z
M 13.3267,-58.6018 L 11.6534,-61.5 L 13.3267,-64.3982 L 16.6733,-64.3982 L 18.3466,-61.5 L 16.6733,-58.6018
 z
M -46.6733,-58.6018 L -48.3466,-61.5 L -46.6733,-64.3982 L -43.3267,-64.3982 L -41.6534,-61.5 L -43.3267,-58.6018
 z
M -31.6733,-58.6018 L -33.3466,-61.5 L -31.6733,-64.3982 L -28.3267,-64.3982 L -26.6534,-61.5 L -28.3267,-58.6018
 z
M -0.150696,-59.1047 L -0.449707,-59.1425 L -0.741638,-59.2175 L -1.02187,-59.3284 L -1.28598,-59.4736 L -1.52982,-59.6508
 L -1.74951,-59.8571 L -1.94164,-60.0893 L -2.10313,-60.3438 L -2.23146,-60.6165 L -2.32458,-60.9031 L -2.38107,-61.1992
 L -2.39999,-61.5 L -2.38107,-61.8008 L -2.32458,-62.0968 L -2.23146,-62.3835 L -2.10313,-62.6562 L -1.94164,-62.9107
 L -1.74951,-63.1429 L -1.52982,-63.3492 L -1.28598,-63.5264 L -1.02187,-63.6716 L -0.741638,-63.7825 L -0.449707,-63.8575
 L -0.150696,-63.8953 L 0.150696,-63.8953 L 0.449707,-63.8575 L 0.741638,-63.7825 L 1.02187,-63.6716 L 1.28598,-63.5264
 L 1.52982,-63.3492 L 1.74951,-63.1429 L 1.94164,-62.9107 L 2.10313,-62.6562 L 2.23146,-62.3835 L 2.32458,-62.0968
 L 2.38107,-61.8008 L 2.39999,-61.5 L 2.38107,-61.1992 L 2.32458,-60.9031 L 2.23146,-60.6165 L 2.10313,-60.3438
 L 1.94164,-60.0893 L 1.74951,-59.8571 L 1.52982,-59.6508 L 1.28598,-59.4736 L 1.02187,-59.3284 L 0.741638,-59.2175
 L 0.449707,-59.1425 L 0.150696,-59.1047 z
M 29.8493,-59.1047 L 29.5503,-59.1425 L 29.2583,-59.2175 L 28.9781,-59.3284 L 28.714,-59.4736 L 28.4702,-59.6508
 L 28.2505,-59.8571 L 28.0583,-60.0893 L 27.8969,-60.3438 L 27.7685,-60.6165 L 27.6754,-60.9031 L 27.6189,-61.1992
 L 27.6,-61.5 L 27.6189,-61.8008 L 27.6754,-62.0968 L 27.7685,-62.3835 L 27.8969,-62.6562 L 28.0583,-62.9107
 L 28.2505,-63.1429 L 28.4702,-63.3492 L 28.714,-63.5264 L 28.9781,-63.6716 L 29.2583,-63.7825 L 29.5503,-63.8575
 L 29.8493,-63.8953 L 30.1507,-63.8953 L 30.4497,-63.8575 L 30.7416,-63.7825 L 31.0219,-63.6716 L 31.286,-63.5264
 L 31.5298,-63.3492 L 31.7495,-63.1429 L 31.9416,-62.9107 L 32.1031,-62.6562 L 32.2315,-62.3835 L 32.3246,-62.0968
 L 32.3811,-61.8008 L 32.4,-61.5 L 32.3811,-61.1992 L 32.3246,-60.9031 L 32.2315,-60.6165 L 32.1031,-60.3438
 L 31.9416,-60.0893 L 31.7495,-59.8571 L 31.5298,-59.6508 L 31.286,-59.4736 L 31.0219,-59.3284 L 30.7416,-59.2175
 L 30.4497,-59.1425 L 30.1507,-59.1047 z
M -55.0942,-27.6 L -57.804,-27.6 L -57.804,-33 L -55.0942,-33 L -55.0942,-36 L -55.1289,-36.0547
 L -55.2893,-36.3956 L -55.4057,-36.7539 L -55.4763,-37.124 L -55.5,-37.5 L -55.4763,-37.876 L -55.4057,-38.2461
 L -55.2893,-38.6044 L -55.1289,-38.9453 L -54.927,-39.2634 L -54.6869,-39.5536 L -54.4123,-39.8115 L -54.1075,-40.033
 L -53.7773,-40.2145 L -53.427,-40.3532 L -53.0621,-40.4469 L -52.6884,-40.4941 L -52.3116,-40.4941 L -51.9379,-40.4469
 L -51.5729,-40.3532 L -51.2227,-40.2145 L -50.8925,-40.033 L -50.5877,-39.8115 L -50.3131,-39.5536 L -50.0729,-39.2634
 L -49.8711,-38.9453 L -49.7107,-38.6044 L -49.5942,-38.2461 L -49.5237,-37.876 L -49.5,-37.5 L -49.5237,-37.124
 L -49.5942,-36.7539 L -49.7107,-36.3956 L -49.8711,-36.0547 L -49.9058,-36 L -49.9058,-33 L -47.196,-33
 L -47.196,-27.6 L -49.9058,-27.6 L -49.9058,-24 L -40.0942,-24 L -40.0942,-27.6 L -42.804,-27.6
 L -42.804,-33 L -40.0942,-33 L -40.0942,-36 L -40.1289,-36.0547 L -40.2893,-36.3956 L -40.4057,-36.7539
 L -40.4763,-37.124 L -40.5,-37.5 L -40.4763,-37.876 L -40.4057,-38.2461 L -40.2893,-38.6044 L -40.1289,-38.9453
 L -39.927,-39.2634 L -39.6869,-39.5536 L -39.4123,-39.8115 L -39.1075,-40.033 L -38.7773,-40.2145 L -38.427,-40.3532
 L -38.0621,-40.4469 L -37.6884,-40.4941 L -37.3116,-40.4941 L -36.9379,-40.4469 L -36.5729,-40.3532 L -36.2227,-40.2145
 L -35.8925,-40.033 L -35.5877,-39.8115 L -35.3131,-39.5536 L -35.0729,-39.2634 L -34.8711,-38.9453 L -34.7107,-38.6044
 L -34.5942,-38.2461 L -34.5237,-37.876 L -34.5,-37.5 L -34.5237,-37.124 L -34.5942,-36.7539 L -34.7107,-36.3956
 L -34.8711,-36.0547 L -34.9058,-36 L -34.9058,-33 L -32.196,-33 L -32.196,-27.6 L -34.9058,-27.6
 L -34.9058,-24 L -25.0942,-24 L -25.0942,-27.6 L -27.804,-27.6 L -27.804,-33 L -25.0942,-33
 L -25.0942,-36 L -25.1289,-36.0547 L -25.2893,-36.3956 L -25.4057,-36.7539 L -25.4763,-37.124 L -25.5,-37.5
 L -25.4763,-37.876 L -25.4057,-38.2461 L -25.2893,-38.6044 L -25.1289,-38.9453 L -24.927,-39.2634 L -24.6869,-39.5536
 L -24.4123,-39.8115 L -24.1075,-40.033 L -23.7773,-40.2145 L -23.427,-40.3532 L -23.0621,-40.4469 L -22.6884,-40.4941
 L -22.3116,-40.4941 L -21.9379,-40.4469 L -21.5729,-40.3532 L -21.2227,-40.2145 L -20.8925,-40.033 L -20.5877,-39.8115
 L -20.3131,-39.5536 L -20.0729,-39.2634 L -19.8711,-38.9453 L -19.7107,-38.6044 L -19.5942,-38.2461 L -19.5237,-37.876
 L -19.5,-37.5 L -19.5237,-37.124 L -19.5942,-36.7539 L -19.7107,-36.3956 L -19.8711,-36.0547 L -19.9058,-36
 L -19.9058,-33 L -17.196,-33 L -17.196,-27.6 L -19.9058,-27.6 L -19.9058,-24 L -10.0942,-24
 L -10.0942,-27.6 L -12.804,-27.6 L -12.804,-33 L -10.0942,-33 L -10.0942,-36 L -10.1289,-36.0547
 L -10.2893,-36.3956 L -10.4057,-36.7539 L -10.4763,-37.124 L -10.5,-37.5 L -10.4763,-37.876 L -10.4057,-38.2461
 L -10.2893,-38.6044 L -10.1289,-38.9453 L -9.92705,-39.2634 L -9.6869,-39.5536 L -9.41226,-39.8115 L -9.10747,-40.033
 L -8.77733,-40.2145 L -8.42705,-40.3532 L -8.06213,-40.4469 L -7.68837,-40.4941 L -7.31161,-40.4941 L -6.93785,-40.4469
 L -6.57294,-40.3532 L -6.22266,-40.2145 L -5.89252,-40.033 L -5.58772,-39.8115 L -5.31308,-39.5536 L -5.07294,-39.2634
 L -4.87108,-38.9453 L -4.71066,-38.6044 L -4.59424,-38.2461 L -4.52365,-37.876 L -4.5,-37.5 L -4.52365,-37.124
 L -4.59424,-36.7539 L -4.71066,-36.3956 L -4.87108,-36.0547 L -4.90581,-36 L -4.90581,-33 L -2.19603,-33
 L -2.19603,-27.6 L -4.90581,-27.6 L -4.90581,-24 L 4.90581,-24 L 4.90581,-27.6 L 2.19603,-27.6
 L 2.19603,-33 L 4.90581,-33 L 4.90581,-36 L 4.87108,-36.0547 L 4.71066,-36.3956 L 4.59424,-36.7539
 L 4.52365,-37.124 L 4.5,-37.5 L 4.52365,-37.876 L 4.59424,-38.2461 L 4.71066,-38.6044 L 4.87108,-38.9453
 L 5.07294,-39.2634 L 5.31308,-39.5536 L 5.58772,-39.8115 L 5.89252,-40.033 L 6.22266,-40.2145 L 6.57294,-40.3532
 L 6.93785,-40.4469 L 7.31161,-40.4941 L 7.68837,-40.4941 L 8.06213,-40.4469 L 8.42705,-40.3532 L 8.77733,-40.2145
 L 9.10747,-40.033 L 9.41226,-39.8115 L 9.6869,-39.5536 L 9.92705,-39.2634 L 10.1289,-38.9453 L 10.2893,-38.6044
 L 10.4057,-38.2461 L 10.4763,-37.876 L 10.5,-37.5 L 10.4763,-37.124 L 10.4057,-36.7539 L 10.2893,-36.3956
 L 10.1289,-36.0547 L 10.0942,-36 L 10.0942,-33 L 12.804,-33 L 12.804,-27.6 L 10.0942,-27.6
 L 10.0942,-24 L 19.9058,-24 L 19.9058,-27.6 L 17.196,-27.6 L 17.196,-33 L 19.9058,-33
 L 19.9058,-36 L 19.8711,-36.0547 L 19.7107,-36.3956 L 19.5942,-36.7539 L 19.5237,-37.124 L 19.5,-37.5
 L 19.5237,-37.876 L 19.5942,-38.2461 L 19.7107,-38.6044 L 19.8711,-38.9453 L 20.0729,-39.2634 L 20.3131,-39.5536
 L 20.5877,-39.8115 L 20.8925,-40.033 L 21.2227,-40.2145 L 21.5729,-40.3532 L 21.9379,-40.4469 L 22.3116,-40.4941
 L 22.6884,-40.4941 L 23.0621,-40.4469 L 23.427,-40.3532 L 23.7773,-40.2145 L 24.1075,-40.033 L 24.4123,-39.8115
 L 24.6869,-39.5536 L 24.927,-39.2634 L 25.1289,-38.9453 L 25.2893,-38.6044 L 25.4057,-38.2461 L 25.4763,-37.876
 L 25.5,-37.5 L 25.4763,-37.124 L 25.4057,-36.7539 L 25.2893,-36.3956 L 25.1289,-36.0547 L 25.0942,-36
 L 25.0942,-33 L 27.804,-33 L 27.804,-27.6 L 25.0942,-27.6 L 25.0942,-24 L 34.9058,-24
 L 34.9058,-27.6 L 32.196,-27.6 L 32.196,-33 L 34.9058,-33 L 34.9058,-36 L 34.8711,-36.0547
 L 34.7107,-36.3956 L 34.5942,-36.7539 L 34.5237,-37.124 L 34.5,-37.5 L 34.5237,-37.876 L 34.5942,-38.2461
 L 34.7107,-38.6044 L 34.8711,-38.9453 L 35.0729,-39.2634 L 35.3131,-39.5536 L 35.5877,-39.8115 L 35.8925,-40.033
 L 36.2227,-40.2145 L 36.5729,-40.3532 L 36.9379,-40.4469 L 37.3116,-40.4941 L 37.6884,-40.4941 L 38.0621,-40.4469
 L 38.427,-40.3532 L 38.7773,-40.2145 L 39.1075,-40.033 L 39.4123,-39.8115 L 39.6869,-39.5536 L 39.927,-39.2634
 L 40.1289,-38.9453 L 40.2893,-38.6044 L 40.4057,-38.2461 L 40.4763,-37.876 L 40.5,-37.5 L 40.4763,-37.124
 L 40.4057,-36.7539 L 40.2893,-36.3956 L 40.1289,-36.0547 L 40.0942,-36 L 40.0942,-33 L 42.804,-33
 L 42.804,-27.6 L 40.0942,-27.6 L 40.0942,-24 L 49.9058,-24 L 49.9058,-27.6 L 47.196,-27.6
 L 47.196,-33 L 49.9058,-33 L 49.9058,-36 L 49.8711,-36.0547 L 49.7107,-36.3956 L 49.5942,-36.7539
 L 49.5237,-37.124 L 49.5,-37.5 L 49.5237,-37.876 L 49.5942,-38.2461 L 49.7107,-38.6044 L 49.8711,-38.9453
 L 50.0729,-39.2634 L 50.3131,-39.5536 L 50.5877,-39.8115 L 50.8925,-40.033 L 51.2227,-40.2145 L 51.5729,-40.3532
 L 51.9379,-40.4469 L 52.3116,-40.4941 L 52.6884,-40.4941 L 53.0621,-40.4469 L 53.427,-40.3532 L 53.7773,-40.2145
 L 54.1075,-40.033 L 54.4123,-39.8115 L 54.6869,-39.5536 L 54.927,-39.2634 L 55.1289,-38.9453 L 55.2893,-38.6044
 L 55.4057,-38.2461 L 55.4763,-37.876 L 55.5,-37.5 L 55.4763,-37.124 L 55.4057,-36.7539 L 55.2893,-36.3956
 L 55.1289,-36.0547 L 55.0942,-36 L 55.0942,-33 L 57.804,-33 L 57.804,-27.6 L 55.0942,-27.6
 L 55.0942,-24 L 59.5,-24 L 59.5,-39.5 L 59.4606,-40.1267 L 59.3429,-40.7434 L 59.1489,-41.3406
 L 58.8815,-41.9088 L 58.5451,-42.4389 L 58.1448,-42.9227 L 57.6871,-43.3526 L 57.1791,-43.7216 L 56.6289,-44.0241
 L 56.0451,-44.2553 L 55.4369,-44.4114 L 54.8139,-44.4901 L -54.8139,-44.4901 L -55.4369,-44.4114 L -56.0451,-44.2553
 L -56.6289,-44.0241 L -57.1791,-43.7216 L -57.6871,-43.3526 L -58.1448,-42.9227 L -58.5451,-42.4389 L -58.8815,-41.9088
 L -59.1489,-41.3406 L -59.3429,-40.7434 L -59.4606,-40.1267 L -59.5,-39.5 L -59.5,-24 L -55.0942,-24
 z
M -31.6733,-34.6018 L -33.3466,-37.5 L -31.6733,-40.3982 L -28.3267,-40.3982 L -26.6534,-37.5 L -28.3267,-34.6018
 z
M -16.6733,-34.6018 L -18.3466,-37.5 L -16.6733,-40.3982 L -13.3267,-40.3982 L -11.6534,-37.5 L -13.3267,-34.6018
 z
M 13.3267,-34.6018 L 11.6534,-37.5 L 13.3267,-40.3982 L 16.6733,-40.3982 L 18.3466,-37.5 L 16.6733,-34.6018
 z
M 43.3267,-34.6018 L 41.6534,-37.5 L 43.3267,-40.3982 L 46.6733,-40.3982 L 48.3466,-37.5 L 46.6733,-34.6018
 z
M -46.6733,-34.6018 L -48.3466,-37.5 L -46.6733,-40.3982 L -43.3267,-40.3982 L -41.6534,-37.5 L -43.3267,-34.6018
 z
M 59.5,-15.5 L 59.4606,-16.1267 L 59.3429,-16.7434 L 59.1489,-17.3406 L 58.8815,-17.9088 L 58.5451,-18.4389
 L 58.1448,-18.9227 L 57.6871,-19.3526 L 57.1791,-19.7216 L 56.6289,-20.0241 L 56.0451,-20.2553 L 55.4369,-20.4114
 L 54.8139,-20.4901 L -54.8139,-20.4901 L -55.4369,-20.4114 L -56.0451,-20.2553 L -56.6289,-20.0241 L -57.1791,-19.7216
 L -57.6871,-19.3526 L -58.1448,-18.9227 L -58.5451,-18.4389 L -58.8815,-17.9088 L -59.1489,-17.3406 L -59.3429,-16.7434
 L -59.4606,-16.1267 L -59.5,-15.5 L -59.5,-0 L 59.5,-0 z
M 52.3116,-10.5059 L 51.9379,-10.5531 L 51.5729,-10.6468 L 51.2227,-10.7855 L 50.8925,-10.967 L 50.5877,-11.1884
 L 50.3131,-11.4464 L 50.0729,-11.7366 L 49.8711,-12.0547 L 49.7107,-12.3956 L 49.5942,-12.7539 L 49.5237,-13.124
 L 49.5,-13.5 L 49.5237,-13.876 L 49.5942,-14.2461 L 49.7107,-14.6044 L 49.8711,-14.9453 L 50.0729,-15.2634
 L 50.3131,-15.5536 L 50.5877,-15.8115 L 50.8925,-16.033 L 51.2227,-16.2145 L 51.5729,-16.3532 L 51.9379,-16.4469
 L 52.3116,-16.4941 L 52.6884,-16.4941 L 53.0621,-16.4469 L 53.427,-16.3532 L 53.7773,-16.2145 L 54.1075,-16.033
 L 54.4123,-15.8115 L 54.6869,-15.5536 L 54.927,-15.2634 L 55.1289,-14.9453 L 55.2893,-14.6044 L 55.4057,-14.2461
 L 55.4763,-13.876 L 55.5,-13.5 L 55.4763,-13.124 L 55.4057,-12.7539 L 55.2893,-12.3956 L 55.1289,-12.0547
 L 54.927,-11.7366 L 54.6869,-11.4464 L 54.4123,-11.1884 L 54.1075,-10.967 L 53.7773,-10.7855 L 53.427,-10.6468
 L 53.0621,-10.5531 L 52.6884,-10.5059 z
M 22.3116,-10.5059 L 21.9379,-10.5531 L 21.5729,-10.6468 L 21.2227,-10.7855 L 20.8925,-10.967 L 20.5877,-11.1884
 L 20.3131,-11.4464 L 20.0729,-11.7366 L 19.8711,-12.0547 L 19.7107,-12.3956 L 19.5942,-12.7539 L 19.5237,-13.124
 L 19.5,-13.5 L 19.5237,-13.876 L 19.5942,-14.2461 L 19.7107,-14.6044 L 19.8711,-14.9453 L 20.0729,-15.2634
 L 20.3131,-15.5536 L 20.5877,-15.8115 L 20.8925,-16.033 L 21.2227,-16.2145 L 21.5729,-16.3532 L 21.9379,-16.4469
 L 22.3116,-16.4941 L 22.6884,-16.4941 L 23.0621,-16.4469 L 23.427,-16.3532 L 23.7773,-16.2145 L 24.1075,-16.033
 L 24.4123,-15.8115 L 24.6869,-15.5536 L 24.927,-15.2634 L 25.1289,-14.9453 L 25.2893,-14.6044 L 25.4057,-14.2461
 L 25.4763,-13.876 L 25.5,-13.5 L 25.4763,-13.124 L 25.4057,-12.7539 L 25.2893,-12.3956 L 25.1289,-12.0547
 L 24.927,-11.7366 L 24.6869,-11.4464 L 24.4123,-11.1884 L 24.1075,-10.967 L 23.7773,-10.7855 L 23.427,-10.6468
 L 23.0621,-10.5531 L 22.6884,-10.5059 z
M -7.68837,-10.5059 L -8.06213,-10.5531 L -8.42705,-10.6468 L -8.77733,-10.7855 L -9.10747,-10.967 L -9.41226,-11.1884
 L -9.6869,-11.4464 L -9.92705,-11.7366 L -10.1289,-12.0547 L -10.2893,-12.3956 L -10.4057,-12.7539 L -10.4763,-13.124
 L -10.5,-13.5 L -10.4763,-13.876 L -10.4057,-14.2461 L -10.2893,-14.6044 L -10.1289,-14.9453 L -9.92705,-15.2634
 L -9.6869,-15.5536 L -9.41226,-15.8115 L -9.10747,-16.033 L -8.77733,-16.2145 L -8.42705,-16.3532 L -8.06213,-16.4469
 L -7.68837,-16.4941 L -7.31161,-16.4941 L -6.93785,-16.4469 L -6.57294,-16.3532 L -6.22266,-16.2145 L -5.89252,-16.033
 L -5.58772,-15.8115 L -5.31308,-15.5536 L -5.07294,-15.2634 L -4.87108,-14.9453 L -4.71066,-14.6044 L -4.59424,-14.2461
 L -4.52365,-13.876 L -4.5,-13.5 L -4.52365,-13.124 L -4.59424,-12.7539 L -4.71066,-12.3956 L -4.87108,-12.0547
 L -5.07294,-11.7366 L -5.31308,-11.4464 L -5.58772,-11.1884 L -5.89252,-10.967 L -6.22266,-10.7855 L -6.57294,-10.6468
 L -6.93785,-10.5531 L -7.31161,-10.5059 z
M 7.31161,-10.5059 L 6.93785,-10.5531 L 6.57294,-10.6468 L 6.22266,-10.7855 L 5.89252,-10.967 L 5.58772,-11.1884
 L 5.31308,-11.4464 L 5.07294,-11.7366 L 4.87108,-12.0547 L 4.71066,-12.3956 L 4.59424,-12.7539 L 4.52365,-13.124
 L 4.5,-13.5 L 4.52365,-13.876 L 4.59424,-14.2461 L 4.71066,-14.6044 L 4.87108,-14.9453 L 5.07294,-15.2634
 L 5.31308,-15.5536 L 5.58772,-15.8115 L 5.89252,-16.033 L 6.22266,-16.2145 L 6.57294,-16.3532 L 6.93785,-16.4469
 L 7.31161,-16.4941 L 7.68837,-16.4941 L 8.06213,-16.4469 L 8.42705,-16.3532 L 8.77733,-16.2145 L 9.10747,-16.033
 L 9.41226,-15.8115 L 9.6869,-15.5536 L 9.92705,-15.2634 L 10.1289,-14.9453 L 10.2893,-14.6044 L 10.4057,-14.2461
 L 10.4763,-13.876 L 10.5,-13.5 L 10.4763,-13.124 L 10.4057,-12.7539 L 10.2893,-12.3956 L 10.1289,-12.0547
 L 9.92705,-11.7366 L 9.6869,-11.4464 L 9.41226,-11.1884 L 9.10747,-10.967 L 8.77733,-10.7855 L 8.42705,-10.6468
 L 8.06213,-10.5531 L 7.68837,-10.5059 z
M -52.6884,-10.5059 L -53.0621,-10.5531 L -53.427,-10.6468 L -53.7773,-10.7855 L -54.1075,-10.967 L -54.4123,-11.1884
 L -54.6869,-11.4464 L -54.927,-11.7366 L -55.1289,-12.0547 L -55.2893,-12.3956 L -55.4057,-12.7539 L -55.4763,-13.124
 L -55.5,-13.5 L -55.4763,-13.876 L -55.4057,-14.2461 L -55.2893,-14.6044 L -55.1289,-14.9453 L -54.927,-15.2634
 L -54.6869,-15.5536 L -54.4123,-15.8115 L -54.1075,-16.033 L -53.7773,-16.2145 L -53.427,-16.3532 L -53.0621,-16.4469
 L -52.6884,-16.4941 L -52.3116,-16.4941 L -51.9379,-16.4469 L -51.5729,-16.3532 L -51.2227,-16.2145 L -50.8925,-16.033
 L -50.5877,-15.8115 L -50.3131,-15.5536 L -50.0729,-15.2634 L -49.8711,-14.9453 L -49.7107,-14.6044 L -49.5942,-14.2461
 L -49.5237,-13.876 L -49.5,-13.5 L -49.5237,-13.124 L -49.5942,-12.7539 L -49.7107,-12.3956 L -49.8711,-12.0547
 L -50.0729,-11.7366 L -50.3131,-11.4464 L -50.5877,-11.1884 L -50.8925,-10.967 L -51.2227,-10.7855 L -51.5729,-10.6468
 L -51.9379,-10.5531 L -52.3116,-10.5059 z
M -37.6884,-10.5059 L -38.0621,-10.5531 L -38.427,-10.6468 L -38.7773,-10.7855 L -39.1075,-10.967 L -39.4123,-11.1884
 L -39.6869,-11.4464 L -39.927,-11.7366 L -40.1289,-12.0547 L -40.2893,-12.3956 L -40.4057,-12.7539 L -40.4763,-13.124
 L -40.5,-13.5 L -40.4763,-13.876 L -40.4057,-14.2461 L -40.2893,-14.6044 L -40.1289,-14.9453 L -39.927,-15.2634
 L -39.6869,-15.5536 L -39.4123,-15.8115 L -39.1075,-16.033 L -38.7773,-16.2145 L -38.427,-16.3532 L -38.0621,-16.4469
 L -37.6884,-16.4941 L -37.3116,-16.4941 L -36.9379,-16.4469 L -36.5729,-16.3532 L -36.2227,-16.2145 L -35.8925,-16.033
 L -35.5877,-15.8115 L -35.3131,-15.5536 L -35.0729,-15.2634 L -34.8711,-14.9453 L -34.7107,-14.6044 L -34.5942,-14.2461
 L -34.5237,-13.876 L -34.5,-13.5 L -34.5237,-13.124 L -34.5942,-12.7539 L -34.7107,-12.3956 L -34.8711,-12.0547
 L -35.0729,-11.7366 L -35.3131,-11.4464 L -35.5877,-11.1884 L -35.8925,-10.967 L -36.2227,-10.7855 L -36.5729,-10.6468
 L -36.9379,-10.5531 L -37.3116,-10.5059 z
M 37.3116,-10.5059 L 36.9379,-10.5531 L 36.5729,-10.6468 L 36.2227,-10.7855 L 35.8925,-10.967 L 35.5877,-11.1884
 L 35.3131,-11.4464 L 35.0729,-11.7366 L 34.8711,-12.0547 L 34.7107,-12.3956 L 34.5942,-12.7539 L 34.5237,-13.124
 L 34.5,-13.5 L 34.5237,-13.876 L 34.5942,-14.2461 L 34.7107,-14.6044 L 34.8711,-14.9453 L 35.0729,-15.2634
 L 35.3131,-15.5536 L 35.5877,-15.8115 L 35.8925,-16.033 L 36.2227,-16.2145 L 36.5729,-16.3532 L 36.9379,-16.4469
 L 37.3116,-16.4941 L 37.6884,-16.4941 L 38.0621,-16.4469 L 38.427,-16.3532 L 38.7773,-16.2145 L 39.1075,-16.033
 L 39.4123,-15.8115 L 39.6869,-15.5536 L 39.927,-15.2634 L 40.1289,-14.9453 L 40.2893,-14.6044 L 40.4057,-14.2461
 L 40.4763,-13.876 L 40.5,-13.5 L 40.4763,-13.124 L 40.4057,-12.7539 L 40.2893,-12.3956 L 40.1289,-12.0547
 L 39.927,-11.7366 L 39.6869,-11.4464 L 39.4123,-11.1884 L 39.1075,-10.967 L 38.7773,-10.7855 L 38.427,-10.6468
 L 38.0621,-10.5531 L 37.6884,-10.5059 z
M -22.6884,-10.5059 L -23.0621,-10.5531 L -23.427,-10.6468 L -23.7773,-10.7855 L -24.1075,-10.967 L -24.4123,-11.1884
 L -24.6869,-11.4464 L -24.927,-11.7366 L -25.1289,-12.0547 L -25.2893,-12.3956 L -25.4057,-12.7539 L -25.4763,-13.124
 L -25.5,-13.5 L -25.4763,-13.876 L -25.4057,-14.2461 L -25.2893,-14.6044 L -25.1289,-14.9453 L -24.927,-15.2634
 L -24.6869,-15.5536 L -24.4123,-15.8115 L -24.1075,-16.033 L -23.7773,-16.2145 L -23.427,-16.3532 L -23.0621,-16.4469
 L -22.6884,-16.4941 L -22.3116,-16.4941 L -21.9379,-16.4469 L -21.5729,-16.3532 L -21.2227,-16.2145 L -20.8925,-16.033
 L -20.5877,-15.8115 L -20.3131,-15.5536 L -20.0729,-15.2634 L -19.8711,-14.9453 L -19.7107,-14.6044 L -19.5942,-14.2461
 L -19.5237,-13.876 L -19.5,-13.5 L -19.5237,-13.124 L -19.5942,-12.7539 L -19.7107,-12.3956 L -19.8711,-12.0547
 L -20.0729,-11.7366 L -20.3131,-11.4464 L -20.5877,-11.1884 L -20.8925,-10.967 L -21.2227,-10.7855 L -21.5729,-10.6468
 L -21.9379,-10.5531 L -22.3116,-10.5059 z
M -1.67329,-10.6018 L -3.34659,-13.5 L -1.67329,-16.3982 L 1.67329,-16.3982 L 3.34659,-13.5 L 1.67329,-10.6018
 z
M 28.3267,-10.6018 L 26.6534,-13.5 L 28.3267,-16.3982 L 31.6733,-16.3982 L 33.3466,-13.5 L 31.6733,-10.6018
 z
M 14.8493,-11.1047 L 14.5503,-11.1425 L 14.2583,-11.2175 L 13.9781,-11.3284 L 13.714,-11.4736 L 13.4702,-11.6508
 L 13.2505,-11.8571 L 13.0583,-12.0893 L 12.8969,-12.3438 L 12.7685,-12.6165 L 12.6754,-12.9031 L 12.6189,-13.1992
 L 12.6,-13.5 L 12.6189,-13.8008 L 12.6754,-14.0968 L 12.7685,-14.3835 L 12.8969,-14.6562 L 13.0583,-14.9107
 L 13.2505,-15.1429 L 13.4702,-15.3492 L 13.714,-15.5264 L 13.9781,-15.6716 L 14.2583,-15.7825 L 14.5503,-15.8575
 L 14.8493,-15.8953 L 15.1507,-15.8953 L 15.4497,-15.8575 L 15.7416,-15.7825 L 16.0219,-15.6716 L 16.286,-15.5264
 L 16.5298,-15.3492 L 16.7495,-15.1429 L 16.9416,-14.9107 L 17.1031,-14.6562 L 17.2315,-14.3835 L 17.3246,-14.0968
 L 17.3811,-13.8008 L 17.4,-13.5 L 17.3811,-13.1992 L 17.3246,-12.9031 L 17.2315,-12.6165 L 17.1031,-12.3438
 L 16.9416,-12.0893 L 16.7495,-11.8571 L 16.5298,-11.6508 L 16.286,-11.4736 L 16.0219,-11.3284 L 15.7416,-11.2175
 L 15.4497,-11.1425 L 15.1507,-11.1047 z
M -45.1507,-11.1047 L -45.4497,-11.1425 L -45.7416,-11.2175 L -46.0219,-11.3284 L -46.286,-11.4736 L -46.5298,-11.6508
 L -46.7495,-11.8571 L -46.9416,-12.0893 L -47.1031,-12.3438 L -47.2315,-12.6165 L -47.3246,-12.9031 L -47.3811,-13.1992
 L -47.4,-13.5 L -47.3811,-13.8008 L -47.3246,-14.0968 L -47.2315,-14.3835 L -47.1031,-14.6562 L -46.9416,-14.9107
 L -46.7495,-15.1429 L -46.5298,-15.3492 L -46.286,-15.5264 L -46.0219,-15.6716 L -45.7416,-15.7825 L -45.4497,-15.8575
 L -45.1507,-15.8953 L -44.8493,-15.8953 L -44.5503,-15.8575 L -44.2583,-15.7825 L -43.9781,-15.6716 L -43.714,-15.5264
 L -43.4702,-15.3492 L -43.2505,-15.1429 L -43.0583,-14.9107 L -42.8969,-14.6562 L -42.7685,-14.3835 L -42.6754,-14.0968
 L -42.6189,-13.8008 L -42.6,-13.5 L -42.6189,-13.1992 L -42.6754,-12.9031 L -42.7685,-12.6165 L -42.8969,-12.3438
 L -43.0583,-12.0893 L -43.2505,-11.8571 L -43.4702,-11.6508 L -43.714,-11.4736 L -43.9781,-11.3284 L -44.2583,-11.2175
 L -44.5503,-11.1425 L -44.8493,-11.1047 z
M -30.1507,-11.1047 L -30.4497,-11.1425 L -30.7416,-11.2175 L -31.0219,-11.3284 L -31.286,-11.4736 L -31.5298,-11.6508
 L -31.7495,-11.8571 L -31.9416,-12.0893 L -32.1031,-12.3438 L -32.2315,-12.6165 L -32.3246,-12.9031 L -32.3811,-13.1992
 L -32.4,-13.5 L -32.3811,-13.8008 L -32.3246,-14.0968 L -32.2315,-14.3835 L -32.1031,-14.6562 L -31.9416,-14.9107
 L -31.7495,-15.1429 L -31.5298,-15.3492 L -31.286,-15.5264 L -31.0219,-15.6716 L -30.7416,-15.7825 L -30.4497,-15.8575
 L -30.1507,-15.8953 L -29.8493,-15.8953 L -29.5503,-15.8575 L -29.2583,-15.7825 L -28.9781,-15.6716 L -28.714,-15.5264
 L -28.4702,-15.3492 L -28.2505,-15.1429 L -28.0583,-14.9107 L -27.8969,-14.6562 L -27.7685,-14.3835 L -27.6754,-14.0968
 L -27.6189,-13.8008 L -27.6,-13.5 L -27.6189,-13.1992 L -27.6754,-12.9031 L -27.7685,-12.6165 L -27.8969,-12.3438
 L -28.0583,-12.0893 L -28.2505,-11.8571 L -28.4702,-11.6508 L -28.714,-11.4736 L -28.9781,-11.3284 L -29.2583,-11.2175
 L -29.5503,-11.1425 L -29.8493,-11.1047 z
M -15.1507,-11.1047 L -15.4497,-11.1425 L -15.7416,-11.2175 L -16.0219,-11.3284 L -16.286,-11.4736 L -16.5298,-11.6508
 L -16.7495,-11.8571 L -16.9416,-12.0893 L -17.1031,-12.3438 L -17.2315,-12.6165 L -17.3246,-12.9031 L -17.3811,-13.1992
 L -17.4,-13.5 L -17.3811,-13.8008 L -17.3246,-14.0968 L -17.2315,-14.3835 L -17.1031,-14.6562 L -16.9416,-14.9107
 L -16.7495,-15.1429 L -16.5298,-15.3492 L -16.286,-15.5264 L -16.0219,-15.6716 L -15.7416,-15.7825 L -15.4497,-15.8575
 L -15.1507,-15.8953 L -14.8493,-15.8953 L -14.5503,-15.8575 L -14.2583,-15.7825 L -13.9781,-15.6716 L -13.714,-15.5264
 L -13.4702,-15.3492 L -13.2505,-15.1429 L -13.0583,-14.9107 L -12.8969,-14.6562 L -12.7685,-14.3835 L -12.6754,-14.0968
 L -12.6189,-13.8008 L -12.6,-13.5 L -12.6189,-13.1992 L -12.6754,-12.9031 L -12.7685,-12.6165 L -12.8969,-12.3438
 L -13.0583,-12.0893 L -13.2505,-11.8571 L -13.4702,-11.6508 L -13.714,-11.4736 L -13.9781,-11.3284 L -14.2583,-11.2175
 L -14.5503,-11.1425 L -14.8493,-11.1047 z
M 44.8493,-11.1047 L 44.5503,-11.1425 L 44.2583,-11.2175 L 43.9781,-11.3284 L 43.714,-11.4736 L 43.4702,-11.6508
 L 43.2505,-11.8571 L 43.0583,-12.0893 L 42.8969,-12.3438 L 42.7685,-12.6165 L 42.6754,-12.9031 L 42.6189,-13.1992
 L 42.6,-13.5 L 42.6189,-13.8008 L 42.6754,-14.0968 L 42.7685,-14.3835 L 42.8969,-14.6562 L 43.0583,-14.9107
 L 43.2505,-15.1429 L 43.4702,-15.3492 L 43.714,-15.5264 L 43.9781,-15.6716 L 44.2583,-15.7825 L 44.5503,-15.8575
 L 44.8493,-15.8953 L 45.1507,-15.8953 L 45.4497,-15.8575 L 45.7416,-15.7825 L 46.0219,-15.6716 L 46.286,-15.5264
 L 46.5298,-15.3492 L 46.7495,-15.1429 L 46.9416,-14.9107 L 47.1031,-14.6562 L 47.2315,-14.3835 L 47.3246,-14.0968
 L 47.3811,-13.8008 L 47.4,-13.5 L 47.3811,-13.1992 L 47.3246,-12.9031 L 47.2315,-12.6165 L 47.1031,-12.3438
 L 46.9416,-12.0893 L 46.7495,-11.8571 L 46.5298,-11.6508 L 46.286,-11.4736 L 46.0219,-11.3284 L 45.7416,-11.2175
 L 45.4497,-11.1425 L 45.1507,-11.1047 z
M 3.92809,-3.59999 L 3.92809,-9 L 11.0719,-9 L 11.0719,-3.59999 z
M -11.0719,-3.59999 L -11.0719,-9 L -3.92809,-9 L -3.92809,-3.59999 z
M 18.9281,-3.59999 L 18.9281,-9 L 26.0719,-9 L 26.0719,-3.59999 z
M 48.9281,-3.59999 L 48.9281,-9 L 56.0719,-9 L 56.0719,-3.59999 z
M -26.0719,-3.59999 L -26.0719,-9 L -18.9281,-9 L -18.9281,-3.59999 z
M -41.0719,-3.59999 L -41.0719,-9 L -33.9281,-9 L -33.9281,-3.59999 z
M 33.9281,-3.59999 L 33.9281,-9 L 41.0719,-9 L 41.0719,-3.59999 z
M -56.0719,-3.59999 L -56.0719,-9 L -48.9281,-9 L -48.9281,-3.59999 z
" stroke="black" fill="lightgray" stroke-width="0.5"/>
</svg>
