<?xml version="1.0" standalone="no"?>
<!DOCTYPE svg PUBLIC "-//W3C//DTD SVG 1.1//EN" "http://www.w3.org/Graphics/SVG/1.1/DTD/svg11.dtd">
<svg width="60mm" height="177mm" viewBox="-30 -344 60 177" xmlns="http://www.w3.org/2000/svg" version="1.1">
<title>OpenSCAD Model</title>
<path d="
M 25.4369,-307.339 L 26.0451,-307.495 L 26.6289,-307.726 L 27.1791,-308.028 L 27.6871,-308.397 L 28.1448,-308.827
 L 28.5451,-309.311 L 28.8815,-309.841 L 29.1489,-310.409 L 29.3429,-311.007 L 29.4606,-311.623 L 29.5,-312.25
 L 29.5,-338.75 L 29.4606,-339.377 L 29.3429,-339.993 L 29.1489,-340.591 L 28.8815,-341.159 L 28.5451,-341.689
 L 28.1448,-342.173 L 27.6871,-342.603 L 27.1791,-342.972 L 26.6289,-343.274 L 26.0451,-343.505 L 25.4369,-343.661
 L 24.8139,-343.74 L -24.8139,-343.74 L -25.4369,-343.661 L -26.0451,-343.505 L -26.6289,-343.274 L -27.1791,-342.972
 L -27.6871,-342.603 L -28.1448,-342.173 L -28.5451,-341.689 L -28.8815,-341.159 L -29.1489,-340.591 L -29.3429,-339.993
 L -29.4606,-339.377 L -29.5,-338.75 L -29.5,-312.25 L -29.4606,-311.623 L -29.3429,-311.007 L -29.1489,-310.409
 L -28.8815,-309.841 L -28.5451,-309.311 L -28.1448,-308.827 L -27.6871,-308.397 L -27.1791,-308.028 L -26.6289,-307.726
 L -26.0451,-307.495 L -25.4369,-307.339 L -24.8139,-307.26 L 24.8139,-307.26 z
M -24.7512,-308.258 L -25.2495,-308.321 L -25.7361,-308.446 L -26.2031,-308.631 L -26.6433,-308.873 L -27.0497,-309.168
 L -27.4159,-309.512 L -27.7361,-309.899 L -28.0052,-310.323 L -28.2191,-310.778 L -28.3743,-311.255 L -28.4684,-311.749
 L -28.5,-312.25 L -28.5,-338.75 L -28.4684,-339.251 L -28.3743,-339.745 L -28.2191,-340.222 L -28.0052,-340.677
 L -27.7361,-341.101 L -27.4159,-341.488 L -27.0497,-341.832 L -26.6433,-342.127 L -26.2031,-342.369 L -25.7361,-342.554
 L -25.2495,-342.679 L -24.7512,-342.742 L 24.7512,-342.742 L 25.2495,-342.679 L 25.7361,-342.554 L 26.2031,-342.369
 L 26.6433,-342.127 L 27.0497,-341.832 L 27.4159,-341.488 L 27.7361,-341.101 L 28.0052,-340.677 L 28.2191,-340.222
 L 28.3743,-339.745 L 28.4684,-339.251 L 28.5,-338.75 L 28.5,-312.25 L 28.4684,-311.749 L 28.3743,-311.255
 L 28.2191,-310.778 L 28.0052,-310.323 L 27.7361,-309.899 L 27.4159,-309.512 L 27.0497,-309.168 L 26.6433,-308.873
 L 26.2031,-308.631 L 25.7361,-308.446 L 25.2495,-308.321 L 24.7512,-308.258 z
M 25.4369,-260.839 L 26.0451,-260.995 L 26.6289,-261.226 L 27.1791,-261.528 L 27.6871,-261.897 L 28.1448,-262.327
 L 28.5451,-262.811 L 28.8815,-263.341 L 29.1489,-263.909 L 29.3429,-264.507 L 29.4606,-265.123 L 29.5,-265.75
 L 29.5,-292.25 L 29.4606,-292.877 L 29.3429,-293.493 L 29.1489,-294.091 L 28.8815,-294.659 L 28.5451,-295.189
 L 28.1448,-295.673 L 27.6871,-296.103 L 27.1791,-296.472 L 26.6289,-296.774 L 26.0451,-297.005 L 25.4369,-297.161
 L 24.8139,-297.24 L -24.8139,-297.24 L -25.4369,-297.161 L -26.0451,-297.005 L -26.6289,-296.774 L -27.1791,-296.472
 L -27.6871,-296.103 L -28.1448,-295.673 L -28.5451,-295.189 L -28.8815,-294.659 L -29.1489,-294.091 L -29.3429,-293.493
 L -29.4606,-292.877 L -29.5,-292.25 L -29.5,-265.75 L -29.4606,-265.123 L -29.3429,-264.507 L -29.1489,-263.909
 L -28.8815,-263.341 L -28.5451,-262.811 L -28.1448,-262.327 L -27.6871,-261.897 L -27.1791,-261.528 L -26.6289,-261.226
 L -26.0451,-260.995 L -25.4369,-260.839 L -24.8139,-260.76 L 24.8139,-260.76 z
M -24.7512,-261.758 L -25.2495,-261.821 L -25.7361,-261.946 L -26.2031,-262.131 L -26.6433,-262.373 L -27.0497,-262.668
 L -27.4159,-263.012 L -27.7361,-263.399 L -28.0052,-263.823 L -28.2191,-264.278 L -28.3743,-264.755 L -28.4684,-265.249
 L -28.5,-265.75 L -28.5,-292.25 L -28.4684,-292.751 L -28.3743,-293.245 L -28.2191,-293.722 L -28.0052,-294.177
 L -27.7361,-294.601 L -27.4159,-294.988 L -27.0497,-295.332 L -26.6433,-295.627 L -26.2031,-295.869 L -25.7361,-296.054
 L -25.2495,-296.179 L -24.7512,-296.242 L 24.7512,-296.242 L 25.2495,-296.179 L 25.7361,-296.054 L 26.2031,-295.869
 L 26.6433,-295.627 L 27.0497,-295.332 L 27.4159,-294.988 L 27.7361,-294.601 L 28.0052,-294.177 L 28.2191,-293.722
 L 28.3743,-293.245 L 28.4684,-292.751 L 28.5,-292.25 L 28.5,-265.75 L 28.4684,-265.249 L 28.3743,-264.755
 L 28.2191,-264.278 L 28.0052,-263.823 L 27.7361,-263.399 L 27.4159,-263.012 L 27.0497,-262.668 L 26.6433,-262.373
 L 26.2031,-262.131 L 25.7361,-261.946 L 25.2495,-261.821 L 24.7512,-261.758 z
M 25.4369,-214.339 L 26.0451,-214.495 L 26.6289,-214.726 L 27.1791,-215.028 L 27.6871,-215.397 L 28.1448,-215.827
 L 28.5451,-216.311 L 28.8815,-216.841 L 29.1489,-217.409 L 29.3429,-218.007 L 29.4606,-218.623 L 29.5,-219.25
 L 29.5,-245.75 L 29.4606,-246.377 L 29.3429,-246.993 L 29.1489,-247.591 L 28.8815,-248.159 L 28.5451,-248.689
 L 28.1448,-249.173 L 27.6871,-249.603 L 27.1791,-249.972 L 26.6289,-250.274 L 26.0451,-250.505 L 25.4369,-250.661
 L 24.8139,-250.74 L -24.8139,-250.74 L -25.4369,-250.661 L -26.0451,-250.505 L -26.6289,-250.274 L -27.1791,-249.972
 L -27.6871,-249.603 L -28.1448,-249.173 L -28.5451,-248.689 L -28.8815,-248.159 L -29.1489,-247.591 L -29.3429,-246.993
 L -29.4606,-246.377 L -29.5,-245.75 L -29.5,-219.25 L -29.4606,-218.623 L -29.3429,-218.007 L -29.1489,-217.409
 L -28.8815,-216.841 L -28.5451,-216.311 L -28.1448,-215.827 L -27.6871,-215.397 L -27.1791,-215.028 L -26.6289,-214.726
 L -26.0451,-214.495 L -25.4369,-214.339 L -24.8139,-214.26 L 24.8139,-214.26 z
M -24.6954,-216.143 L -25.0833,-216.192 L -25.4619,-216.289 L -25.8254,-216.433 L -26.168,-216.622 L -26.4842,-216.851
 L -26.7692,-217.119 L -27.0184,-217.42 L -27.2279,-217.75 L -27.3943,-218.104 L -27.5151,-218.476 L -27.5884,-218.86
 L -27.6129,-219.25 L -27.6129,-245.75 L -27.5884,-246.14 L -27.5151,-246.524 L -27.3943,-246.896 L -27.2279,-247.25
 L -27.0184,-247.58 L -26.7692,-247.881 L -26.4842,-248.149 L -26.168,-248.378 L -25.8254,-248.567 L -25.4619,-248.711
 L -25.0833,-248.808 L -24.6954,-248.857 L 24.6954,-248.857 L 25.0833,-248.808 L 25.4619,-248.711 L 25.8254,-248.567
 L 26.168,-248.378 L 26.4842,-248.149 L 26.7692,-247.881 L 27.0184,-247.58 L 27.2279,-247.25 L 27.3943,-246.896
 L 27.5151,-246.524 L 27.5884,-246.14 L 27.6129,-245.75 L 27.6129,-219.25 L 27.5884,-218.86 L 27.5151,-218.476
 L 27.3943,-218.104 L 27.2279,-217.75 L 27.0184,-217.42 L 26.7692,-217.119 L 26.4842,-216.851 L 26.168,-216.622
 L 25.8254,-216.433 L 25.4619,-216.289 L 25.0833,-216.192 L 24.6954,-216.143 z
M 25.4369,-167.839 L 26.0451,-167.995 L 26.6289,-168.226 L 27.1791,-168.528 L 27.6871,-168.897 L 28.1448,-169.327
 L 28.5451,-169.811 L 28.8815,-170.341 L 29.1489,-170.909 L 29.3429,-171.507 L 29.4606,-172.123 L 29.5,-172.75
 L 29.5,-199.25 L 29.4606,-199.877 L 29.3429,-200.493 L 29.1489,-201.091 L 28.8815,-201.659 L 28.5451,-202.189
 L 28.1448,-202.673 L 27.6871,-203.103 L 27.1791,-203.472 L 26.6289,-203.774 L 26.0451,-204.005 L 25.4369,-204.161
 L 24.8139,-204.24 L -24.8139,-204.24 L -25.4369,-204.161 L -26.0451,-204.005 L -26.6289,-203.774 L -27.1791,-203.472
 L -27.6871,-203.103 L -28.1448,-202.673 L -28.5451,-202.189 L -28.8815,-201.659 L -29.1489,-201.091 L -29.3429,-200.493
 L -29.4606,-199.877 L -29.5,-199.25 L -29.5,-172.75 L -29.4606,-172.123 L -29.3429,-171.507 L -29.1489,-170.909
 L -28.8815,-170.341 L -28.5451,-169.811 L -28.1448,-169.327 L -27.6871,-168.897 L -27.1791,-168.528 L -26.6289,-168.226
 L -26.0451,-167.995 L -25.4369,-167.839 L -24.8139,-167.76 L 24.8139,-167.76 z
M -22.6507,-194.855 L -22.9497,-194.893 L -23.2416,-194.967 L -23.5219,-195.078 L -23.786,-195.224 L -24.0298,-195.401
 L -24.2495,-195.607 L -24.4416,-195.839 L -24.6031,-196.094 L -24.7315,-196.367 L -24.8246,-196.653 L -24.8811,-196.949
 L -24.9,-197.25 L -24.8811,-197.551 L -24.8246,-197.847 L -24.7315,-198.133 L -24.6031,-198.406 L -24.4416,-198.661
 L -24.2495,-198.893 L -24.0298,-199.099 L -23.786,-199.276 L -23.5219,-199.422 L -23.2416,-199.533 L -22.9497,-199.607
 L -22.6507,-199.645 L -22.3493,-199.645 L -22.0503,-199.607 L -21.7583,-199.533 L -21.4781,-199.422 L -21.214,-199.276
 L -20.9702,-199.099 L -20.7505,-198.893 L -20.5583,-198.661 L -20.3969,-198.406 L -20.2685,-198.133 L -20.1754,-197.847
 L -20.1189,-197.551 L -20.1,-197.25 L -20.1189,-196.949 L -20.1754,-196.653 L -20.2685,-196.367 L -20.3969,-196.094
 L -20.5583,-195.839 L -20.7505,-195.607 L -20.9702,-195.401 L -21.214,-195.224 L -21.4781,-195.078 L -21.7583,-194.967
 L -22.0503,-194.893 L -22.3493,-194.855 z
M 22.3493,-194.855 L 22.0503,-194.893 L 21.7583,-194.967 L 21.4781,-195.078 L 21.214,-195.224 L 20.9702,-195.401
 L 20.7505,-195.607 L 20.5583,-195.839 L 20.3969,-196.094 L 20.2685,-196.367 L 20.1754,-196.653 L 20.1189,-196.949
 L 20.1,-197.25 L 20.1189,-197.551 L 20.1754,-197.847 L 20.2685,-198.133 L 20.3969,-198.406 L 20.5583,-198.661
 L 20.7505,-198.893 L 20.9702,-199.099 L 21.214,-199.276 L 21.4781,-199.422 L 21.7583,-199.533 L 22.0503,-199.607
 L 22.3493,-199.645 L 22.6507,-199.645 L 22.9497,-199.607 L 23.2416,-199.533 L 23.5219,-199.422 L 23.786,-199.276
 L 24.0298,-199.099 L 24.2495,-198.893 L 24.4416,-198.661 L 24.6031,-198.406 L 24.7315,-198.133 L 24.8246,-197.847
 L 24.8811,-197.551 L 24.9,-197.25 L 24.8811,-196.949 L 24.8246,-196.653 L 24.7315,-196.367 L 24.6031,-196.094
 L 24.4416,-195.839 L 24.2495,-195.607 L 24.0298,-195.401 L 23.786,-195.224 L 23.5219,-195.078 L 23.2416,-194.967
 L 22.9497,-194.893 L 22.6507,-194.855 z
M -22.6507,-172.355 L -22.9497,-172.393 L -23.2416,-172.467 L -23.5219,-172.578 L -23.786,-172.724 L -24.0298,-172.901
 L -24.2495,-173.107 L -24.4416,-173.339 L -24.6031,-173.594 L -24.7315,-173.867 L -24.8246,-174.153 L -24.8811,-174.449
 L -24.9,-174.75 L -24.8811,-175.051 L -24.8246,-175.347 L -24.7315,-175.633 L -24.6031,-175.906 L -24.4416,-176.161
 L -24.2495,-176.393 L -24.0298,-176.599 L -23.786,-176.776 L -23.5219,-176.922 L -23.2416,-177.033 L -22.9497,-177.107
 L -22.6507,-177.145 L -22.3493,-177.145 L -22.0503,-177.107 L -21.7583,-177.033 L -21.4781,-176.922 L -21.214,-176.776
 L -20.9702,-176.599 L -20.7505,-176.393 L -20.5583,-176.161 L -20.3969,-175.906 L -20.2685,-175.633 L -20.1754,-175.347
 L -20.1189,-175.051 L -20.1,-174.75 L -20.1189,-174.449 L -20.1754,-174.153 L -20.2685,-173.867 L -20.3969,-173.594
 L -20.5583,-173.339 L -20.7505,-173.107 L -20.9702,-172.901 L -21.214,-172.724 L -21.4781,-172.578 L -21.7583,-172.467
 L -22.0503,-172.393 L -22.3493,-172.355 z
M 22.3493,-172.355 L 22.0503,-172.393 L 21.7583,-172.467 L 21.4781,-172.578 L 21.214,-172.724 L 20.9702,-172.901
 L 20.7505,-173.107 L 20.5583,-173.339 L 20.3969,-173.594 L 20.2685,-173.867 L 20.1754,-174.153 L 20.1189,-174.449
 L 20.1,-174.75 L 20.1189,-175.051 L 20.1754,-175.347 L 20.2685,-175.633 L 20.3969,-175.906 L 20.5583,-176.161
 L 20.7505,-176.393 L 20.9702,-176.599 L 21.214,-176.776 L 21.4781,-176.922 L 21.7583,-177.033 L 22.0503,-177.107
 L 22.3493,-177.145 L 22.6507,-177.145 L 22.9497,-177.107 L 23.2416,-177.033 L 23.5219,-176.922 L 23.786,-176.776
 L 24.0298,-176.599 L 24.2495,-176.393 L 24.4416,-176.161 L 24.6031,-175.906 L 24.7315,-175.633 L 24.8246,-175.347
 L 24.8811,-175.051 L 24.9,-174.75 L 24.8811,-174.449 L 24.8246,-174.153 L 24.7315,-173.867 L 24.6031,-173.594
 L 24.4416,-173.339 L 24.2495,-173.107 L 24.0298,-172.901 L 23.786,-172.724 L 23.5219,-172.578 L 23.2416,-172.467
 L 22.9497,-172.393 L 22.6507,-172.355 z
" stroke="black" fill="lightgray" stroke-width="0.5"/>
</svg>
