<?xml version="1.0" standalone="no"?>
<!DOCTYPE svg PUBLIC "-//W3C//DTD SVG 1.1//EN" "http://www.w3.org/Graphics/SVG/1.1/DTD/svg11.dtd">
<svg width="6mm" height="520mm" viewBox="-3 -518 6 520" xmlns="http://www.w3.org/2000/svg" version="1.1">
<title>OpenSCAD Model</title>
<path d="
M 0.543396,-512.151 L 0.896149,-512.242 L 1.23476,-512.376 L 1.55389,-512.551 L 1.84853,-512.766 L 2.114,-513.015
 L 2.34615,-513.295 L 2.54128,-513.603 L 2.69635,-513.932 L 2.80888,-514.279 L 2.87712,-514.637 L 2.89999,-515
 L 2.87712,-515.363 L 2.80888,-515.721 L 2.69635,-516.068 L 2.54128,-516.397 L 2.34615,-516.705 L 2.114,-516.985
 L 1.84853,-517.234 L 1.55389,-517.449 L 1.23476,-517.624 L 0.896149,-517.758 L 0.543396,-517.849 L 0.182083,-517.894
 L -0.182083,-517.894 L -0.543396,-517.849 L -0.896149,-517.758 L -1.23476,-517.624 L -1.55389,-517.449 L -1.84853,-517.234
 L -2.114,-516.985 L -2.34615,-516.705 L -2.54128,-516.397 L -2.69635,-516.068 L -2.80888,-515.721 L -2.87712,-515.363
 L -2.89999,-515 L -2.87712,-514.637 L -2.80888,-514.279 L -2.69635,-513.932 L -2.54128,-513.603 L -2.34615,-513.295
 L -2.114,-513.015 L -1.84853,-512.766 L -1.55389,-512.551 L -1.23476,-512.376 L -0.896149,-512.242 L -0.543396,-512.151
 L -0.182083,-512.106 L 0.182083,-512.106 z
M 0.281067,-410.527 L 0.463516,-410.573 L 0.638657,-410.643 L 0.803726,-410.734 L 0.956131,-410.844 L 1.09344,-410.973
 L 1.21352,-411.118 L 1.31445,-411.277 L 1.39465,-411.448 L 1.45287,-411.627 L 1.48816,-411.812 L 1.5,-412
 L 1.48816,-412.188 L 1.45287,-412.373 L 1.39465,-412.552 L 1.31445,-412.723 L 1.21352,-412.882 L 1.09344,-413.027
 L 0.956131,-413.156 L 0.803726,-413.266 L 0.638657,-413.357 L 0.463516,-413.427 L 0.281067,-413.473 L 0.0941772,-413.497
 L -0.0941772,-413.497 L -0.281067,-413.473 L -0.463516,-413.427 L -0.638657,-413.357 L -0.803726,-413.266 L -0.956131,-413.156
 L -1.09344,-413.027 L -1.21352,-412.882 L -1.31445,-412.723 L -1.39465,-412.552 L -1.45287,-412.373 L -1.48816,-412.188
 L -1.5,-412 L -1.48816,-411.812 L -1.45287,-411.627 L -1.39465,-411.448 L -1.31445,-411.277 L -1.21352,-411.118
 L -1.09344,-410.973 L -0.956131,-410.844 L -0.803726,-410.734 L -0.638657,-410.643 L -0.463516,-410.573 L -0.281067,-410.527
 L -0.0941772,-410.503 L 0.0941772,-410.503 z
M 0.281067,-307.527 L 0.463516,-307.573 L 0.638657,-307.643 L 0.803726,-307.734 L 0.956131,-307.844 L 1.09344,-307.973
 L 1.21352,-308.118 L 1.31445,-308.277 L 1.39465,-308.448 L 1.45287,-308.627 L 1.48816,-308.812 L 1.5,-309
 L 1.48816,-309.188 L 1.45287,-309.373 L 1.39465,-309.552 L 1.31445,-309.723 L 1.21352,-309.882 L 1.09344,-310.027
 L 0.956131,-310.156 L 0.803726,-310.266 L 0.638657,-310.357 L 0.463516,-310.427 L 0.281067,-310.473 L 0.0941772,-310.497
 L -0.0941772,-310.497 L -0.281067,-310.473 L -0.463516,-310.427 L -0.638657,-310.357 L -0.803726,-310.266 L -0.956131,-310.156
 L -1.09344,-310.027 L -1.21352,-309.882 L -1.31445,-309.723 L -1.39465,-309.552 L -1.45287,-309.373 L -1.48816,-309.188
 L -1.5,-309 L -1.48816,-308.812 L -1.45287,-308.627 L -1.39465,-308.448 L -1.31445,-308.277 L -1.21352,-308.118
 L -1.09344,-307.973 L -0.956131,-307.844 L -0.803726,-307.734 L -0.638657,-307.643 L -0.463516,-307.573 L -0.281067,-307.527
 L -0.0941772,-307.503 L 0.0941772,-307.503 z
M 0.281067,-204.527 L 0.463516,-204.573 L 0.638657,-204.643 L 0.803726,-204.734 L 0.956131,-204.844 L 1.09344,-204.973
 L 1.21352,-205.118 L 1.31445,-205.277 L 1.39465,-205.448 L 1.45287,-205.627 L 1.48816,-205.812 L 1.5,-206
 L 1.48816,-206.188 L 1.45287,-206.373 L 1.39465,-206.552 L 1.31445,-206.723 L 1.21352,-206.882 L 1.09344,-207.027
 L 0.956131,-207.156 L 0.803726,-207.266 L 0.638657,-207.357 L 0.463516,-207.427 L 0.281067,-207.473 L 0.0941772,-207.497
 L -0.0941772,-207.497 L -0.281067,-207.473 L -0.463516,-207.427 L -0.638657,-207.357 L -0.803726,-207.266 L -0.956131,-207.156
 L -1.09344,-207.027 L -1.21352,-206.882 L -1.31445,-206.723 L -1.39465,-206.552 L -1.45287,-206.373 L -1.48816,-206.188
 L -1.5,-206 L -1.48816,-205.812 L -1.45287,-205.627 L -1.39465,-205.448 L -1.31445,-205.277 L -1.21352,-205.118
 L -1.09344,-204.973 L -0.956131,-204.844 L -0.803726,-204.734 L -0.638657,-204.643 L -0.463516,-204.573 L -0.281067,-204.527
 L -0.0941772,-204.503 L 0.0941772,-204.503 z
M 0.281067,-101.527 L 0.463516,-101.573 L 0.638657,-101.643 L 0.803726,-101.734 L 0.956131,-101.844 L 1.09344,-101.973
 L 1.21352,-102.118 L 1.31445,-102.277 L 1.39465,-102.448 L 1.45287,-102.627 L 1.48816,-102.812 L 1.5,-103
 L 1.48816,-103.188 L 1.45287,-103.373 L 1.39465,-103.552 L 1.31445,-103.723 L 1.21352,-103.882 L 1.09344,-104.027
 L 0.956131,-104.156 L 0.803726,-104.266 L 0.638657,-104.357 L 0.463516,-104.427 L 0.281067,-104.473 L 0.0941772,-104.497
 L -0.0941772,-104.497 L -0.281067,-104.473 L -0.463516,-104.427 L -0.638657,-104.357 L -0.803726,-104.266 L -0.956131,-104.156
 L -1.09344,-104.027 L -1.21352,-103.882 L -1.31445,-103.723 L -1.39465,-103.552 L -1.45287,-103.373 L -1.48816,-103.188
 L -1.5,-103 L -1.48816,-102.812 L -1.45287,-102.627 L -1.39465,-102.448 L -1.31445,-102.277 L -1.21352,-102.118
 L -1.09344,-101.973 L -0.956131,-101.844 L -0.803726,-101.734 L -0.638657,-101.643 L -0.463516,-101.573 L -0.281067,-101.527
 L -0.0941772,-101.503 L 0.0941772,-101.503 z
M 0.281067,1.47342 L 0.463516,1.42657 L 0.638657,1.35724 L 0.803726,1.26648 L 0.956131,1.15576 L 1.09344,1.02681
 L 1.21352,0.881668 L 1.31445,0.722626 L 1.39465,0.552185 L 1.45287,0.373032 L 1.48816,0.187988 L 1.5,-0
 L 1.48816,-0.187988 L 1.45287,-0.373032 L 1.39465,-0.552185 L 1.31445,-0.722626 L 1.21352,-0.881668 L 1.09344,-1.02681
 L 0.956131,-1.15576 L 0.803726,-1.26648 L 0.638657,-1.35724 L 0.463516,-1.42657 L 0.281067,-1.47342 L 0.0941772,-1.49704
 L -0.0941772,-1.49704 L -0.281067,-1.47342 L -0.463516,-1.42657 L -0.638657,-1.35724 L -0.803726,-1.26648 L -0.956131,-1.15576
 L -1.09344,-1.02681 L -1.21352,-0.881668 L -1.31445,-0.722626 L -1.39465,-0.552185 L -1.45287,-0.373032 L -1.48816,-0.187988
 L -1.5,-0 L -1.48816,0.187988 L -1.45287,0.373032 L -1.39465,0.552185 L -1.31445,0.722626 L -1.21352,0.881668
 L -1.09344,1.02681 L -0.956131,1.15576 L -0.803726,1.26648 L -0.638657,1.35724 L -0.463516,1.42657 L -0.281067,1.47342
 L -0.0941772,1.49704 L 0.0941772,1.49704 z
" stroke="black" fill="lightgray" stroke-width="0.5"/>
</svg>
