solid OpenSCAD_Model
  facet normal 0.998026 0.0627978 0
    outer loop
      vertex 2.9 0 3
      vertex 2.87713 0.363466 0
      vertex 2.87713 0.363466 3
    endloop
  endfacet
  facet normal 0.998026 0.0627978 0
    outer loop
      vertex 2.87713 0.363466 0
      vertex 2.9 0 3
      vertex 2.9 0 0
    endloop
  endfacet
  facet normal -0.998026 0.0627978 0
    outer loop
      vertex -2.9 0 0
      vertex -2.87713 0.363466 3
      vertex -2.87713 0.363466 0
    endloop
  endfacet
  facet normal -0.998026 0.0627978 0
    outer loop
      vertex -2.87713 0.363466 3
      vertex -2.9 0 0
      vertex -2.9 0 3
    endloop
  endfacet
  facet normal 0 1 -0
    outer loop
      vertex 0.182092 2.89428 0
      vertex -0.182092 2.89428 3
      vertex 0.182092 2.89428 3
    endloop
  endfacet
  facet normal 0 1 0
    outer loop
      vertex -0.182092 2.89428 3
      vertex 0.182092 2.89428 0
      vertex -0.182092 2.89428 0
    endloop
  endfacet
  facet normal 0 -1 0
    outer loop
      vertex -0.182092 -2.89428 0
      vertex 0.182092 -2.89428 3
      vertex -0.182092 -2.89428 3
    endloop
  endfacet
  facet normal 0 -1 -0
    outer loop
      vertex 0.182092 -2.89428 3
      vertex -0.182092 -2.89428 0
      vertex 0.182092 -2.89428 0
    endloop
  endfacet
  facet normal 0.684544 0.728972 -0
    outer loop
      vertex 2.11401 1.98519 0
      vertex 1.84853 2.23449 3
      vertex 2.11401 1.98519 3
    endloop
  endfacet
  facet normal 0.684544 0.728972 0
    outer loop
      vertex 1.84853 2.23449 3
      vertex 2.11401 1.98519 0
      vertex 1.84853 2.23449 0
    endloop
  endfacet
  facet normal -0.684544 0.728972 0
    outer loop
      vertex -1.84853 2.23449 0
      vertex -2.11401 1.98519 3
      vertex -1.84853 2.23449 3
    endloop
  endfacet
  facet normal -0.684544 0.728972 0
    outer loop
      vertex -2.11401 1.98519 3
      vertex -1.84853 2.23449 0
      vertex -2.11401 1.98519 0
    endloop
  endfacet
  facet normal -0.368111 0.929782 0
    outer loop
      vertex -0.896149 2.75806 0
      vertex -1.23476 2.624 3
      vertex -0.896149 2.75806 3
    endloop
  endfacet
  facet normal -0.368111 0.929782 0
    outer loop
      vertex -1.23476 2.624 3
      vertex -0.896149 2.75806 0
      vertex -1.23476 2.624 0
    endloop
  endfacet
  facet normal 0.904832 0.425768 0
    outer loop
      vertex 2.69635 1.06756 3
      vertex 2.54129 1.39709 0
      vertex 2.54129 1.39709 3
    endloop
  endfacet
  facet normal 0.904832 0.425768 0
    outer loop
      vertex 2.54129 1.39709 0
      vertex 2.69635 1.06756 3
      vertex 2.69635 1.06756 0
    endloop
  endfacet
  facet normal 0.368111 0.929782 -0
    outer loop
      vertex 1.23476 2.624 0
      vertex 0.896149 2.75806 3
      vertex 1.23476 2.624 3
    endloop
  endfacet
  facet normal 0.368111 0.929782 0
    outer loop
      vertex 0.896149 2.75806 3
      vertex 1.23476 2.624 0
      vertex 0.896149 2.75806 0
    endloop
  endfacet
  facet normal 0.248692 0.968583 -0
    outer loop
      vertex 0.896149 2.75806 0
      vertex 0.543406 2.84863 3
      vertex 0.896149 2.75806 3
    endloop
  endfacet
  facet normal 0.248692 0.968583 0
    outer loop
      vertex 0.543406 2.84863 3
      vertex 0.896149 2.75806 0
      vertex 0.543406 2.84863 0
    endloop
  endfacet
  facet normal 0.587783 0.809019 -0
    outer loop
      vertex 1.84853 2.23449 0
      vertex 1.5539 2.44855 3
      vertex 1.84853 2.23449 3
    endloop
  endfacet
  facet normal 0.587783 0.809019 0
    outer loop
      vertex 1.5539 2.44855 3
      vertex 1.84853 2.23449 0
      vertex 1.5539 2.44855 0
    endloop
  endfacet
  facet normal -0.904832 0.425768 0
    outer loop
      vertex -2.69635 1.06756 0
      vertex -2.54129 1.39709 3
      vertex -2.54129 1.39709 0
    endloop
  endfacet
  facet normal -0.904832 0.425768 0
    outer loop
      vertex -2.54129 1.39709 3
      vertex -2.69635 1.06756 0
      vertex -2.69635 1.06756 3
    endloop
  endfacet
  facet normal 0 0 1
    outer loop
      vertex 2.87713 0.363466 3
      vertex 2.87713 -0.363466 3
      vertex 2.9 0 3
    endloop
  endfacet
  facet normal 0 0 1
    outer loop
      vertex 2.80889 0.7212 3
      vertex 2.87713 -0.363466 3
      vertex 2.87713 0.363466 3
    endloop
  endfacet
  facet normal 0 0 1
    outer loop
      vertex 2.80889 0.7212 3
      vertex 2.80889 -0.7212 3
      vertex 2.87713 -0.363466 3
    endloop
  endfacet
  facet normal 0 0 1
    outer loop
      vertex 2.69635 1.06756 3
      vertex 2.80889 -0.7212 3
      vertex 2.80889 0.7212 3
    endloop
  endfacet
  facet normal 0 0 1
    outer loop
      vertex 2.69635 1.06756 3
      vertex 2.69635 -1.06756 3
      vertex 2.80889 -0.7212 3
    endloop
  endfacet
  facet normal 0 0 1
    outer loop
      vertex 2.54129 1.39709 3
      vertex 2.69635 -1.06756 3
      vertex 2.69635 1.06756 3
    endloop
  endfacet
  facet normal 0 0 1
    outer loop
      vertex 2.54129 1.39709 3
      vertex 2.54129 -1.39709 3
      vertex 2.69635 -1.06756 3
    endloop
  endfacet
  facet normal 0 0 1
    outer loop
      vertex 2.34615 1.70458 3
      vertex 2.54129 -1.39709 3
      vertex 2.54129 1.39709 3
    endloop
  endfacet
  facet normal 0 0 1
    outer loop
      vertex 2.34615 1.70458 3
      vertex 2.34615 -1.70458 3
      vertex 2.54129 -1.39709 3
    endloop
  endfacet
  facet normal 0 0 1
    outer loop
      vertex 2.11401 1.98519 3
      vertex 2.34615 -1.70458 3
      vertex 2.34615 1.70458 3
    endloop
  endfacet
  facet normal 0 0 1
    outer loop
      vertex 2.11401 1.98519 3
      vertex 2.11401 -1.98519 3
      vertex 2.34615 -1.70458 3
    endloop
  endfacet
  facet normal 0 0 1
    outer loop
      vertex 1.84853 2.23449 3
      vertex 2.11401 -1.98519 3
      vertex 2.11401 1.98519 3
    endloop
  endfacet
  facet normal 0 0 1
    outer loop
      vertex 1.84853 2.23449 3
      vertex 1.84853 -2.23449 3
      vertex 2.11401 -1.98519 3
    endloop
  endfacet
  facet normal 0 0 1
    outer loop
      vertex 1.5539 2.44855 3
      vertex 1.84853 -2.23449 3
      vertex 1.84853 2.23449 3
    endloop
  endfacet
  facet normal 0 0 1
    outer loop
      vertex 1.5539 2.44855 3
      vertex 1.5539 -2.44855 3
      vertex 1.84853 -2.23449 3
    endloop
  endfacet
  facet normal 0 0 1
    outer loop
      vertex 1.23476 2.624 3
      vertex 1.5539 -2.44855 3
      vertex 1.5539 2.44855 3
    endloop
  endfacet
  facet normal 0 0 1
    outer loop
      vertex 1.23476 2.624 3
      vertex 1.23476 -2.624 3
      vertex 1.5539 -2.44855 3
    endloop
  endfacet
  facet normal 0 0 1
    outer loop
      vertex 0.896149 2.75806 3
      vertex 1.23476 -2.624 3
      vertex 1.23476 2.624 3
    endloop
  endfacet
  facet normal 0 0 1
    outer loop
      vertex 0.896149 2.75806 3
      vertex 0.896149 -2.75806 3
      vertex 1.23476 -2.624 3
    endloop
  endfacet
  facet normal 0 0 1
    outer loop
      vertex 0.543406 2.84863 3
      vertex 0.896149 -2.75806 3
      vertex 0.896149 2.75806 3
    endloop
  endfacet
  facet normal 0 0 1
    outer loop
      vertex 0.543406 2.84863 3
      vertex 0.543406 -2.84863 3
      vertex 0.896149 -2.75806 3
    endloop
  endfacet
  facet normal 0 0 1
    outer loop
      vertex 0.182092 2.89428 3
      vertex 0.543406 -2.84863 3
      vertex 0.543406 2.84863 3
    endloop
  endfacet
  facet normal 0 0 1
    outer loop
      vertex 0.182092 2.89428 3
      vertex 0.182092 -2.89428 3
      vertex 0.543406 -2.84863 3
    endloop
  endfacet
  facet normal -0 0 1
    outer loop
      vertex -0.182092 2.89428 3
      vertex 0.182092 -2.89428 3
      vertex 0.182092 2.89428 3
    endloop
  endfacet
  facet normal 0 0 1
    outer loop
      vertex -0.182092 2.89428 3
      vertex -0.182092 -2.89428 3
      vertex 0.182092 -2.89428 3
    endloop
  endfacet
  facet normal -0 0 1
    outer loop
      vertex -0.543406 2.84863 3
      vertex -0.182092 -2.89428 3
      vertex -0.182092 2.89428 3
    endloop
  endfacet
  facet normal 0 0 1
    outer loop
      vertex -0.543406 2.84863 3
      vertex -0.543406 -2.84863 3
      vertex -0.182092 -2.89428 3
    endloop
  endfacet
  facet normal -0 0 1
    outer loop
      vertex -0.896149 2.75806 3
      vertex -0.543406 -2.84863 3
      vertex -0.543406 2.84863 3
    endloop
  endfacet
  facet normal 0 0 1
    outer loop
      vertex -0.896149 2.75806 3
      vertex -0.896149 -2.75806 3
      vertex -0.543406 -2.84863 3
    endloop
  endfacet
  facet normal -0 0 1
    outer loop
      vertex -1.23476 2.624 3
      vertex -0.896149 -2.75806 3
      vertex -0.896149 2.75806 3
    endloop
  endfacet
  facet normal 0 0 1
    outer loop
      vertex -1.23476 2.624 3
      vertex -1.23476 -2.624 3
      vertex -0.896149 -2.75806 3
    endloop
  endfacet
  facet normal -0 0 1
    outer loop
      vertex -1.5539 2.44855 3
      vertex -1.23476 -2.624 3
      vertex -1.23476 2.624 3
    endloop
  endfacet
  facet normal 0 0 1
    outer loop
      vertex -1.5539 2.44855 3
      vertex -1.5539 -2.44855 3
      vertex -1.23476 -2.624 3
    endloop
  endfacet
  facet normal -0 0 1
    outer loop
      vertex -1.84853 2.23449 3
      vertex -1.5539 -2.44855 3
      vertex -1.5539 2.44855 3
    endloop
  endfacet
  facet normal 0 0 1
    outer loop
      vertex -1.84853 2.23449 3
      vertex -1.84853 -2.23449 3
      vertex -1.5539 -2.44855 3
    endloop
  endfacet
  facet normal -0 0 1
    outer loop
      vertex -2.11401 1.98519 3
      vertex -1.84853 -2.23449 3
      vertex -1.84853 2.23449 3
    endloop
  endfacet
  facet normal 0 0 1
    outer loop
      vertex -2.11401 1.98519 3
      vertex -2.11401 -1.98519 3
      vertex -1.84853 -2.23449 3
    endloop
  endfacet
  facet normal -0 0 1
    outer loop
      vertex -2.34615 1.70458 3
      vertex -2.11401 -1.98519 3
      vertex -2.11401 1.98519 3
    endloop
  endfacet
  facet normal 0 0 1
    outer loop
      vertex -2.34615 1.70458 3
      vertex -2.34615 -1.70458 3
      vertex -2.11401 -1.98519 3
    endloop
  endfacet
  facet normal -0 0 1
    outer loop
      vertex -2.54129 1.39709 3
      vertex -2.34615 -1.70458 3
      vertex -2.34615 1.70458 3
    endloop
  endfacet
  facet normal 0 0 1
    outer loop
      vertex -2.54129 1.39709 3
      vertex -2.54129 -1.39709 3
      vertex -2.34615 -1.70458 3
    endloop
  endfacet
  facet normal -0 0 1
    outer loop
      vertex -2.69635 1.06756 3
      vertex -2.54129 -1.39709 3
      vertex -2.54129 1.39709 3
    endloop
  endfacet
  facet normal 0 0 1
    outer loop
      vertex -2.69635 1.06756 3
      vertex -2.69635 -1.06756 3
      vertex -2.54129 -1.39709 3
    endloop
  endfacet
  facet normal -0 0 1
    outer loop
      vertex -2.80889 0.7212 3
      vertex -2.69635 -1.06756 3
      vertex -2.69635 1.06756 3
    endloop
  endfacet
  facet normal 0 0 1
    outer loop
      vertex -2.80889 0.7212 3
      vertex -2.80889 -0.7212 3
      vertex -2.69635 -1.06756 3
    endloop
  endfacet
  facet normal -0 0 1
    outer loop
      vertex -2.87713 0.363466 3
      vertex -2.80889 -0.7212 3
      vertex -2.80889 0.7212 3
    endloop
  endfacet
  facet normal 0 0 1
    outer loop
      vertex -2.87713 0.363466 3
      vertex -2.87713 -0.363466 3
      vertex -2.80889 -0.7212 3
    endloop
  endfacet
  facet normal 0 -0 1
    outer loop
      vertex -2.87713 -0.363466 3
      vertex -2.87713 0.363466 3
      vertex -2.9 0 3
    endloop
  endfacet
  facet normal -0.481756 0.876305 0
    outer loop
      vertex -1.23476 2.624 0
      vertex -1.5539 2.44855 3
      vertex -1.23476 2.624 3
    endloop
  endfacet
  facet normal -0.481756 0.876305 0
    outer loop
      vertex -1.5539 2.44855 3
      vertex -1.23476 2.624 0
      vertex -1.5539 2.44855 0
    endloop
  endfacet
  facet normal -0.125348 0.992113 0
    outer loop
      vertex -0.182092 2.89428 0
      vertex -0.543406 2.84863 3
      vertex -0.182092 2.89428 3
    endloop
  endfacet
  facet normal -0.125348 0.992113 0
    outer loop
      vertex -0.543406 2.84863 3
      vertex -0.182092 2.89428 0
      vertex -0.543406 2.84863 0
    endloop
  endfacet
  facet normal 0 0 -1
    outer loop
      vertex 1.5 0 0
      vertex 2.9 0 0
      vertex 2.87713 -0.363466 0
    endloop
  endfacet
  facet normal 0 0 -1
    outer loop
      vertex 1.48817 -0.188 0
      vertex 2.87713 -0.363466 0
      vertex 2.80889 -0.7212 0
    endloop
  endfacet
  facet normal 0 0 -1
    outer loop
      vertex 2.9 0 0
      vertex 1.5 0 0
      vertex 2.87713 0.363466 0
    endloop
  endfacet
  facet normal 0 0 -1
    outer loop
      vertex 1.45287 -0.373034 0
      vertex 2.80889 -0.7212 0
      vertex 2.69635 -1.06756 0
    endloop
  endfacet
  facet normal 0 0 -1
    outer loop
      vertex 1.48817 0.188 0
      vertex 2.87713 0.363466 0
      vertex 1.5 0 0
    endloop
  endfacet
  facet normal 0 0 -1
    outer loop
      vertex 1.39466 -0.552186 0
      vertex 2.69635 -1.06756 0
      vertex 2.54129 -1.39709 0
    endloop
  endfacet
  facet normal -0 0 -1
    outer loop
      vertex 2.87713 0.363466 0
      vertex 1.48817 0.188 0
      vertex 2.80889 0.7212 0
    endloop
  endfacet
  facet normal 0 0 -1
    outer loop
      vertex 1.31446 -0.722631 0
      vertex 2.54129 -1.39709 0
      vertex 2.34615 -1.70458 0
    endloop
  endfacet
  facet normal 0 0 -1
    outer loop
      vertex 1.45287 0.373034 0
      vertex 2.80889 0.7212 0
      vertex 1.48817 0.188 0
    endloop
  endfacet
  facet normal 0 0 -1
    outer loop
      vertex 1.21352 -0.881678 0
      vertex 2.34615 -1.70458 0
      vertex 2.11401 -1.98519 0
    endloop
  endfacet
  facet normal -0 0 -1
    outer loop
      vertex 2.80889 0.7212 0
      vertex 1.45287 0.373034 0
      vertex 2.69635 1.06756 0
    endloop
  endfacet
  facet normal 0 0 -1
    outer loop
      vertex 1.09345 -1.02682 0
      vertex 2.11401 -1.98519 0
      vertex 1.84853 -2.23449 0
    endloop
  endfacet
  facet normal 0 0 -1
    outer loop
      vertex 1.39466 0.552186 0
      vertex 2.69635 1.06756 0
      vertex 1.45287 0.373034 0
    endloop
  endfacet
  facet normal 0 0 -1
    outer loop
      vertex 0.956136 -1.15577 0
      vertex 1.84853 -2.23449 0
      vertex 1.5539 -2.44855 0
    endloop
  endfacet
  facet normal -0 0 -1
    outer loop
      vertex 2.69635 1.06756 0
      vertex 1.39466 0.552186 0
      vertex 2.54129 1.39709 0
    endloop
  endfacet
  facet normal 0 0 -1
    outer loop
      vertex 1.31446 0.722631 0
      vertex 2.54129 1.39709 0
      vertex 1.39466 0.552186 0
    endloop
  endfacet
  facet normal 0 0 -1
    outer loop
      vertex 2.87713 -0.363466 0
      vertex 1.48817 -0.188 0
      vertex 1.5 0 0
    endloop
  endfacet
  facet normal 0 0 -1
    outer loop
      vertex 2.80889 -0.7212 0
      vertex 1.45287 -0.373034 0
      vertex 1.48817 -0.188 0
    endloop
  endfacet
  facet normal 0 0 -1
    outer loop
      vertex 2.69635 -1.06756 0
      vertex 1.39466 -0.552186 0
      vertex 1.45287 -0.373034 0
    endloop
  endfacet
  facet normal 0 0 -1
    outer loop
      vertex 2.54129 -1.39709 0
      vertex 1.31446 -0.722631 0
      vertex 1.39466 -0.552186 0
    endloop
  endfacet
  facet normal 0 0 -1
    outer loop
      vertex 0.80374 -1.26649 0
      vertex 1.5539 -2.44855 0
      vertex 1.23476 -2.624 0
    endloop
  endfacet
  facet normal 0 0 -1
    outer loop
      vertex 2.34615 -1.70458 0
      vertex 1.21352 -0.881678 0
      vertex 1.31446 -0.722631 0
    endloop
  endfacet
  facet normal 0 0 -1
    outer loop
      vertex 2.11401 -1.98519 0
      vertex 1.09345 -1.02682 0
      vertex 1.21352 -0.881678 0
    endloop
  endfacet
  facet normal 0 0 -1
    outer loop
      vertex 1.84853 -2.23449 0
      vertex 0.956136 -1.15577 0
      vertex 1.09345 -1.02682 0
    endloop
  endfacet
  facet normal 0 0 -1
    outer loop
      vertex 0.638668 -1.35724 0
      vertex 1.23476 -2.624 0
      vertex 0.896149 -2.75806 0
    endloop
  endfacet
  facet normal 0 0 -1
    outer loop
      vertex 1.5539 -2.44855 0
      vertex 0.80374 -1.26649 0
      vertex 0.956136 -1.15577 0
    endloop
  endfacet
  facet normal 0 0 -1
    outer loop
      vertex 1.23476 -2.624 0
      vertex 0.638668 -1.35724 0
      vertex 0.80374 -1.26649 0
    endloop
  endfacet
  facet normal 0 0 -1
    outer loop
      vertex 0.463525 -1.42658 0
      vertex 0.896149 -2.75806 0
      vertex 0.543406 -2.84863 0
    endloop
  endfacet
  facet normal 0 0 -1
    outer loop
      vertex 0.896149 -2.75806 0
      vertex 0.463525 -1.42658 0
      vertex 0.638668 -1.35724 0
    endloop
  endfacet
  facet normal 0 0 -1
    outer loop
      vertex 0.543406 -2.84863 0
      vertex 0.281072 -1.47343 0
      vertex 0.463525 -1.42658 0
    endloop
  endfacet
  facet normal 0 0 -1
    outer loop
      vertex 0.182092 -2.89428 0
      vertex 0.281072 -1.47343 0
      vertex 0.543406 -2.84863 0
    endloop
  endfacet
  facet normal 0 0 -1
    outer loop
      vertex 0.182092 -2.89428 0
      vertex 0.0941849 -1.49704 0
      vertex 0.281072 -1.47343 0
    endloop
  endfacet
  facet normal 0 0 -1
    outer loop
      vertex 0.182092 -2.89428 0
      vertex -0.0941849 -1.49704 0
      vertex 0.0941849 -1.49704 0
    endloop
  endfacet
  facet normal 0 0 -1
    outer loop
      vertex -0.182092 -2.89428 0
      vertex -0.0941849 -1.49704 0
      vertex 0.182092 -2.89428 0
    endloop
  endfacet
  facet normal 0 0 -1
    outer loop
      vertex -0.182092 -2.89428 0
      vertex -0.281072 -1.47343 0
      vertex -0.0941849 -1.49704 0
    endloop
  endfacet
  facet normal 0 0 -1
    outer loop
      vertex -0.543406 -2.84863 0
      vertex -0.281072 -1.47343 0
      vertex -0.182092 -2.89428 0
    endloop
  endfacet
  facet normal -0 0 -1
    outer loop
      vertex -0.281072 -1.47343 0
      vertex -0.543406 -2.84863 0
      vertex -0.463525 -1.42658 0
    endloop
  endfacet
  facet normal 0 0 -1
    outer loop
      vertex -0.896149 -2.75806 0
      vertex -0.463525 -1.42658 0
      vertex -0.543406 -2.84863 0
    endloop
  endfacet
  facet normal -0 0 -1
    outer loop
      vertex -0.463525 -1.42658 0
      vertex -0.896149 -2.75806 0
      vertex -0.638668 -1.35724 0
    endloop
  endfacet
  facet normal 0 0 -1
    outer loop
      vertex -1.23476 -2.624 0
      vertex -0.638668 -1.35724 0
      vertex -0.896149 -2.75806 0
    endloop
  endfacet
  facet normal -0 0 -1
    outer loop
      vertex -0.638668 -1.35724 0
      vertex -1.23476 -2.624 0
      vertex -0.80374 -1.26649 0
    endloop
  endfacet
  facet normal 0 0 -1
    outer loop
      vertex -1.5539 -2.44855 0
      vertex -0.80374 -1.26649 0
      vertex -1.23476 -2.624 0
    endloop
  endfacet
  facet normal -0 0 -1
    outer loop
      vertex -0.80374 -1.26649 0
      vertex -1.5539 -2.44855 0
      vertex -0.956136 -1.15577 0
    endloop
  endfacet
  facet normal 0 0 -1
    outer loop
      vertex -1.84853 -2.23449 0
      vertex -0.956136 -1.15577 0
      vertex -1.5539 -2.44855 0
    endloop
  endfacet
  facet normal -0 0 -1
    outer loop
      vertex -0.956136 -1.15577 0
      vertex -1.84853 -2.23449 0
      vertex -1.09345 -1.02682 0
    endloop
  endfacet
  facet normal 0 0 -1
    outer loop
      vertex -2.11401 -1.98519 0
      vertex -1.09345 -1.02682 0
      vertex -1.84853 -2.23449 0
    endloop
  endfacet
  facet normal -0 0 -1
    outer loop
      vertex -1.09345 -1.02682 0
      vertex -2.11401 -1.98519 0
      vertex -1.21352 -0.881678 0
    endloop
  endfacet
  facet normal 0 0 -1
    outer loop
      vertex -2.34615 -1.70458 0
      vertex -1.21352 -0.881678 0
      vertex -2.11401 -1.98519 0
    endloop
  endfacet
  facet normal 0 0 -1
    outer loop
      vertex -2.54129 -1.39709 0
      vertex -1.31446 -0.722631 0
      vertex -2.34615 -1.70458 0
    endloop
  endfacet
  facet normal -0 0 -1
    outer loop
      vertex -1.21352 -0.881678 0
      vertex -2.34615 -1.70458 0
      vertex -1.31446 -0.722631 0
    endloop
  endfacet
  facet normal -0 0 -1
    outer loop
      vertex 2.54129 1.39709 0
      vertex 1.31446 0.722631 0
      vertex 2.34615 1.70458 0
    endloop
  endfacet
  facet normal 0 0 -1
    outer loop
      vertex 1.21352 0.881678 0
      vertex 2.34615 1.70458 0
      vertex 1.31446 0.722631 0
    endloop
  endfacet
  facet normal -0 0 -1
    outer loop
      vertex 2.34615 1.70458 0
      vertex 1.21352 0.881678 0
      vertex 2.11401 1.98519 0
    endloop
  endfacet
  facet normal 0 0 -1
    outer loop
      vertex 1.09345 1.02682 0
      vertex 2.11401 1.98519 0
      vertex 1.21352 0.881678 0
    endloop
  endfacet
  facet normal -0 0 -1
    outer loop
      vertex 2.11401 1.98519 0
      vertex 1.09345 1.02682 0
      vertex 1.84853 2.23449 0
    endloop
  endfacet
  facet normal 0 0 -1
    outer loop
      vertex 0.956136 1.15577 0
      vertex 1.84853 2.23449 0
      vertex 1.09345 1.02682 0
    endloop
  endfacet
  facet normal -0 0 -1
    outer loop
      vertex 1.84853 2.23449 0
      vertex 0.956136 1.15577 0
      vertex 1.5539 2.44855 0
    endloop
  endfacet
  facet normal 0 0 -1
    outer loop
      vertex 0.80374 1.26649 0
      vertex 1.5539 2.44855 0
      vertex 0.956136 1.15577 0
    endloop
  endfacet
  facet normal -0 0 -1
    outer loop
      vertex 1.5539 2.44855 0
      vertex 0.80374 1.26649 0
      vertex 1.23476 2.624 0
    endloop
  endfacet
  facet normal 0 0 -1
    outer loop
      vertex 0.638668 1.35724 0
      vertex 1.23476 2.624 0
      vertex 0.80374 1.26649 0
    endloop
  endfacet
  facet normal -0 0 -1
    outer loop
      vertex 1.23476 2.624 0
      vertex 0.638668 1.35724 0
      vertex 0.896149 2.75806 0
    endloop
  endfacet
  facet normal 0 0 -1
    outer loop
      vertex 0.463525 1.42658 0
      vertex 0.896149 2.75806 0
      vertex 0.638668 1.35724 0
    endloop
  endfacet
  facet normal -0 0 -1
    outer loop
      vertex 0.896149 2.75806 0
      vertex 0.463525 1.42658 0
      vertex 0.543406 2.84863 0
    endloop
  endfacet
  facet normal 0 0 -1
    outer loop
      vertex 0.281072 1.47343 0
      vertex 0.543406 2.84863 0
      vertex 0.463525 1.42658 0
    endloop
  endfacet
  facet normal 0 0 -1
    outer loop
      vertex 0.281072 1.47343 0
      vertex 0.182092 2.89428 0
      vertex 0.543406 2.84863 0
    endloop
  endfacet
  facet normal 0 0 -1
    outer loop
      vertex 0.0941849 1.49704 0
      vertex 0.182092 2.89428 0
      vertex 0.281072 1.47343 0
    endloop
  endfacet
  facet normal 0 0 -1
    outer loop
      vertex -0.0941849 1.49704 0
      vertex 0.182092 2.89428 0
      vertex 0.0941849 1.49704 0
    endloop
  endfacet
  facet normal 0 0 -1
    outer loop
      vertex -0.0941849 1.49704 0
      vertex -0.182092 2.89428 0
      vertex 0.182092 2.89428 0
    endloop
  endfacet
  facet normal 0 0 -1
    outer loop
      vertex -0.281072 1.47343 0
      vertex -0.182092 2.89428 0
      vertex -0.0941849 1.49704 0
    endloop
  endfacet
  facet normal 0 0 -1
    outer loop
      vertex -0.543406 2.84863 0
      vertex -0.281072 1.47343 0
      vertex -0.463525 1.42658 0
    endloop
  endfacet
  facet normal 0 0 -1
    outer loop
      vertex -0.281072 1.47343 0
      vertex -0.543406 2.84863 0
      vertex -0.182092 2.89428 0
    endloop
  endfacet
  facet normal 0 0 -1
    outer loop
      vertex -0.896149 2.75806 0
      vertex -0.463525 1.42658 0
      vertex -0.638668 1.35724 0
    endloop
  endfacet
  facet normal 0 0 -1
    outer loop
      vertex -1.23476 2.624 0
      vertex -0.638668 1.35724 0
      vertex -0.80374 1.26649 0
    endloop
  endfacet
  facet normal 0 0 -1
    outer loop
      vertex -0.463525 1.42658 0
      vertex -0.896149 2.75806 0
      vertex -0.543406 2.84863 0
    endloop
  endfacet
  facet normal 0 0 -1
    outer loop
      vertex -1.5539 2.44855 0
      vertex -0.80374 1.26649 0
      vertex -0.956136 1.15577 0
    endloop
  endfacet
  facet normal 0 0 -1
    outer loop
      vertex -1.84853 2.23449 0
      vertex -0.956136 1.15577 0
      vertex -1.09345 1.02682 0
    endloop
  endfacet
  facet normal 0 0 -1
    outer loop
      vertex -2.11401 1.98519 0
      vertex -1.09345 1.02682 0
      vertex -1.21352 0.881678 0
    endloop
  endfacet
  facet normal 0 0 -1
    outer loop
      vertex -0.638668 1.35724 0
      vertex -1.23476 2.624 0
      vertex -0.896149 2.75806 0
    endloop
  endfacet
  facet normal 0 0 -1
    outer loop
      vertex -2.34615 1.70458 0
      vertex -1.21352 0.881678 0
      vertex -1.31446 0.722631 0
    endloop
  endfacet
  facet normal 0 0 -1
    outer loop
      vertex -2.54129 1.39709 0
      vertex -1.31446 0.722631 0
      vertex -1.39466 0.552186 0
    endloop
  endfacet
  facet normal 0 0 -1
    outer loop
      vertex -2.69635 1.06756 0
      vertex -1.39466 0.552186 0
      vertex -1.45287 0.373034 0
    endloop
  endfacet
  facet normal 0 0 -1
    outer loop
      vertex -2.80889 0.7212 0
      vertex -1.45287 0.373034 0
      vertex -1.48817 0.188 0
    endloop
  endfacet
  facet normal 0 0 -1
    outer loop
      vertex -0.80374 1.26649 0
      vertex -1.5539 2.44855 0
      vertex -1.23476 2.624 0
    endloop
  endfacet
  facet normal 0 0 -1
    outer loop
      vertex -2.87713 0.363466 0
      vertex -1.48817 0.188 0
      vertex -1.5 0 0
    endloop
  endfacet
  facet normal -0 0 -1
    outer loop
      vertex -1.31446 -0.722631 0
      vertex -2.54129 -1.39709 0
      vertex -1.39466 -0.552186 0
    endloop
  endfacet
  facet normal 0 0 -1
    outer loop
      vertex -2.69635 -1.06756 0
      vertex -1.39466 -0.552186 0
      vertex -2.54129 -1.39709 0
    endloop
  endfacet
  facet normal 0 0 -1
    outer loop
      vertex -0.956136 1.15577 0
      vertex -1.84853 2.23449 0
      vertex -1.5539 2.44855 0
    endloop
  endfacet
  facet normal -0 0 -1
    outer loop
      vertex -1.39466 -0.552186 0
      vertex -2.69635 -1.06756 0
      vertex -1.45287 -0.373034 0
    endloop
  endfacet
  facet normal 0 0 -1
    outer loop
      vertex -1.09345 1.02682 0
      vertex -2.11401 1.98519 0
      vertex -1.84853 2.23449 0
    endloop
  endfacet
  facet normal 0 0 -1
    outer loop
      vertex -2.80889 -0.7212 0
      vertex -1.45287 -0.373034 0
      vertex -2.69635 -1.06756 0
    endloop
  endfacet
  facet normal 0 0 -1
    outer loop
      vertex -1.21352 0.881678 0
      vertex -2.34615 1.70458 0
      vertex -2.11401 1.98519 0
    endloop
  endfacet
  facet normal -0 0 -1
    outer loop
      vertex -1.45287 -0.373034 0
      vertex -2.80889 -0.7212 0
      vertex -1.48817 -0.188 0
    endloop
  endfacet
  facet normal 0 0 -1
    outer loop
      vertex -1.31446 0.722631 0
      vertex -2.54129 1.39709 0
      vertex -2.34615 1.70458 0
    endloop
  endfacet
  facet normal 0 0 -1
    outer loop
      vertex -2.87713 -0.363466 0
      vertex -1.48817 -0.188 0
      vertex -2.80889 -0.7212 0
    endloop
  endfacet
  facet normal 0 0 -1
    outer loop
      vertex -1.39466 0.552186 0
      vertex -2.69635 1.06756 0
      vertex -2.54129 1.39709 0
    endloop
  endfacet
  facet normal -0 0 -1
    outer loop
      vertex -1.48817 -0.188 0
      vertex -2.87713 -0.363466 0
      vertex -1.5 0 0
    endloop
  endfacet
  facet normal 0 0 -1
    outer loop
      vertex -1.45287 0.373034 0
      vertex -2.80889 0.7212 0
      vertex -2.69635 1.06756 0
    endloop
  endfacet
  facet normal 0 0 -1
    outer loop
      vertex -2.9 0 0
      vertex -1.5 0 0
      vertex -2.87713 -0.363466 0
    endloop
  endfacet
  facet normal 0 0 -1
    outer loop
      vertex -1.48817 0.188 0
      vertex -2.87713 0.363466 0
      vertex -2.80889 0.7212 0
    endloop
  endfacet
  facet normal 0 0 -1
    outer loop
      vertex -1.5 0 0
      vertex -2.9 0 0
      vertex -2.87713 0.363466 0
    endloop
  endfacet
  facet normal 0.125348 -0.992113 0
    outer loop
      vertex 0.182092 -2.89428 0
      vertex 0.543406 -2.84863 3
      vertex 0.182092 -2.89428 3
    endloop
  endfacet
  facet normal 0.125348 -0.992113 0
    outer loop
      vertex 0.543406 -2.84863 3
      vertex 0.182092 -2.89428 0
      vertex 0.543406 -2.84863 0
    endloop
  endfacet
  facet normal 0.368111 -0.929782 0
    outer loop
      vertex 0.896149 -2.75806 0
      vertex 1.23476 -2.624 3
      vertex 0.896149 -2.75806 3
    endloop
  endfacet
  facet normal 0.368111 -0.929782 0
    outer loop
      vertex 1.23476 -2.624 3
      vertex 0.896149 -2.75806 0
      vertex 1.23476 -2.624 0
    endloop
  endfacet
  facet normal 0.951056 0.309019 0
    outer loop
      vertex 2.80889 0.7212 3
      vertex 2.69635 1.06756 0
      vertex 2.69635 1.06756 3
    endloop
  endfacet
  facet normal 0.951056 0.309019 0
    outer loop
      vertex 2.69635 1.06756 0
      vertex 2.80889 0.7212 3
      vertex 2.80889 0.7212 0
    endloop
  endfacet
  facet normal 0.982288 0.187378 0
    outer loop
      vertex 2.87713 0.363466 3
      vertex 2.80889 0.7212 0
      vertex 2.80889 0.7212 3
    endloop
  endfacet
  facet normal 0.982288 0.187378 0
    outer loop
      vertex 2.80889 0.7212 0
      vertex 2.87713 0.363466 3
      vertex 2.87713 0.363466 0
    endloop
  endfacet
  facet normal 0.770514 0.637423 0
    outer loop
      vertex 2.34615 1.70458 3
      vertex 2.11401 1.98519 0
      vertex 2.11401 1.98519 3
    endloop
  endfacet
  facet normal 0.770514 0.637423 0
    outer loop
      vertex 2.11401 1.98519 0
      vertex 2.34615 1.70458 3
      vertex 2.34615 1.70458 0
    endloop
  endfacet
  facet normal 0.844327 0.535829 0
    outer loop
      vertex 2.54129 1.39709 3
      vertex 2.34615 1.70458 0
      vertex 2.34615 1.70458 3
    endloop
  endfacet
  facet normal 0.844327 0.535829 0
    outer loop
      vertex 2.34615 1.70458 0
      vertex 2.54129 1.39709 3
      vertex 2.54129 1.39709 0
    endloop
  endfacet
  facet normal 0.125348 0.992113 -0
    outer loop
      vertex 0.543406 2.84863 0
      vertex 0.182092 2.89428 3
      vertex 0.543406 2.84863 3
    endloop
  endfacet
  facet normal 0.125348 0.992113 0
    outer loop
      vertex 0.182092 2.89428 3
      vertex 0.543406 2.84863 0
      vertex 0.182092 2.89428 0
    endloop
  endfacet
  facet normal 0.481756 0.876305 -0
    outer loop
      vertex 1.5539 2.44855 0
      vertex 1.23476 2.624 3
      vertex 1.5539 2.44855 3
    endloop
  endfacet
  facet normal 0.481756 0.876305 0
    outer loop
      vertex 1.23476 2.624 3
      vertex 1.5539 2.44855 0
      vertex 1.23476 2.624 0
    endloop
  endfacet
  facet normal -0.844327 0.535829 0
    outer loop
      vertex -2.54129 1.39709 0
      vertex -2.34615 1.70458 3
      vertex -2.34615 1.70458 0
    endloop
  endfacet
  facet normal -0.844327 0.535829 0
    outer loop
      vertex -2.34615 1.70458 3
      vertex -2.54129 1.39709 0
      vertex -2.54129 1.39709 3
    endloop
  endfacet
  facet normal -0.770514 0.637423 0
    outer loop
      vertex -2.34615 1.70458 0
      vertex -2.11401 1.98519 3
      vertex -2.11401 1.98519 0
    endloop
  endfacet
  facet normal -0.770514 0.637423 0
    outer loop
      vertex -2.11401 1.98519 3
      vertex -2.34615 1.70458 0
      vertex -2.34615 1.70458 3
    endloop
  endfacet
  facet normal -0.951056 0.309019 0
    outer loop
      vertex -2.80889 0.7212 0
      vertex -2.69635 1.06756 3
      vertex -2.69635 1.06756 0
    endloop
  endfacet
  facet normal -0.951056 0.309019 0
    outer loop
      vertex -2.69635 1.06756 3
      vertex -2.80889 0.7212 0
      vertex -2.80889 0.7212 3
    endloop
  endfacet
  facet normal -0.982288 0.187378 0
    outer loop
      vertex -2.87713 0.363466 0
      vertex -2.80889 0.7212 3
      vertex -2.80889 0.7212 0
    endloop
  endfacet
  facet normal -0.982288 0.187378 0
    outer loop
      vertex -2.80889 0.7212 3
      vertex -2.87713 0.363466 0
      vertex -2.87713 0.363466 3
    endloop
  endfacet
  facet normal -0.587783 0.809019 0
    outer loop
      vertex -1.5539 2.44855 0
      vertex -1.84853 2.23449 3
      vertex -1.5539 2.44855 3
    endloop
  endfacet
  facet normal -0.587783 0.809019 0
    outer loop
      vertex -1.84853 2.23449 3
      vertex -1.5539 2.44855 0
      vertex -1.84853 2.23449 0
    endloop
  endfacet
  facet normal -0.248692 0.968583 0
    outer loop
      vertex -0.543406 2.84863 0
      vertex -0.896149 2.75806 3
      vertex -0.543406 2.84863 3
    endloop
  endfacet
  facet normal -0.248692 0.968583 0
    outer loop
      vertex -0.896149 2.75806 3
      vertex -0.543406 2.84863 0
      vertex -0.896149 2.75806 0
    endloop
  endfacet
  facet normal 0.998026 -0.0627978 0
    outer loop
      vertex 2.87713 -0.363466 3
      vertex 2.9 0 0
      vertex 2.9 0 3
    endloop
  endfacet
  facet normal 0.998026 -0.0627978 0
    outer loop
      vertex 2.9 0 0
      vertex 2.87713 -0.363466 3
      vertex 2.87713 -0.363466 0
    endloop
  endfacet
  facet normal 0.904832 -0.425768 0
    outer loop
      vertex 2.54129 -1.39709 3
      vertex 2.69635 -1.06756 0
      vertex 2.69635 -1.06756 3
    endloop
  endfacet
  facet normal 0.904832 -0.425768 0
    outer loop
      vertex 2.69635 -1.06756 0
      vertex 2.54129 -1.39709 3
      vertex 2.54129 -1.39709 0
    endloop
  endfacet
  facet normal -0.684544 -0.728972 0
    outer loop
      vertex -2.11401 -1.98519 0
      vertex -1.84853 -2.23449 3
      vertex -2.11401 -1.98519 3
    endloop
  endfacet
  facet normal -0.684544 -0.728972 -0
    outer loop
      vertex -1.84853 -2.23449 3
      vertex -2.11401 -1.98519 0
      vertex -1.84853 -2.23449 0
    endloop
  endfacet
  facet normal -0.904832 -0.425768 0
    outer loop
      vertex -2.54129 -1.39709 0
      vertex -2.69635 -1.06756 3
      vertex -2.69635 -1.06756 0
    endloop
  endfacet
  facet normal -0.904832 -0.425768 0
    outer loop
      vertex -2.69635 -1.06756 3
      vertex -2.54129 -1.39709 0
      vertex -2.54129 -1.39709 3
    endloop
  endfacet
  facet normal -0.844327 -0.535829 0
    outer loop
      vertex -2.34615 -1.70458 0
      vertex -2.54129 -1.39709 3
      vertex -2.54129 -1.39709 0
    endloop
  endfacet
  facet normal -0.844327 -0.535829 0
    outer loop
      vertex -2.54129 -1.39709 3
      vertex -2.34615 -1.70458 0
      vertex -2.34615 -1.70458 3
    endloop
  endfacet
  facet normal 0.481756 -0.876305 0
    outer loop
      vertex 1.23476 -2.624 0
      vertex 1.5539 -2.44855 3
      vertex 1.23476 -2.624 3
    endloop
  endfacet
  facet normal 0.481756 -0.876305 0
    outer loop
      vertex 1.5539 -2.44855 3
      vertex 1.23476 -2.624 0
      vertex 1.5539 -2.44855 0
    endloop
  endfacet
  facet normal 0.982288 -0.187378 0
    outer loop
      vertex 2.80889 -0.7212 3
      vertex 2.87713 -0.363466 0
      vertex 2.87713 -0.363466 3
    endloop
  endfacet
  facet normal 0.982288 -0.187378 0
    outer loop
      vertex 2.87713 -0.363466 0
      vertex 2.80889 -0.7212 3
      vertex 2.80889 -0.7212 0
    endloop
  endfacet
  facet normal 0.951056 -0.309019 0
    outer loop
      vertex 2.69635 -1.06756 3
      vertex 2.80889 -0.7212 0
      vertex 2.80889 -0.7212 3
    endloop
  endfacet
  facet normal 0.951056 -0.309019 0
    outer loop
      vertex 2.80889 -0.7212 0
      vertex 2.69635 -1.06756 3
      vertex 2.69635 -1.06756 0
    endloop
  endfacet
  facet normal -0.770514 -0.637423 0
    outer loop
      vertex -2.11401 -1.98519 0
      vertex -2.34615 -1.70458 3
      vertex -2.34615 -1.70458 0
    endloop
  endfacet
  facet normal -0.770514 -0.637423 0
    outer loop
      vertex -2.34615 -1.70458 3
      vertex -2.11401 -1.98519 0
      vertex -2.11401 -1.98519 3
    endloop
  endfacet
  facet normal -0.982288 -0.187378 0
    outer loop
      vertex -2.80889 -0.7212 0
      vertex -2.87713 -0.363466 3
      vertex -2.87713 -0.363466 0
    endloop
  endfacet
  facet normal -0.982288 -0.187378 0
    outer loop
      vertex -2.87713 -0.363466 3
      vertex -2.80889 -0.7212 0
      vertex -2.80889 -0.7212 3
    endloop
  endfacet
  facet normal -0.998026 -0.0627978 0
    outer loop
      vertex -2.87713 -0.363466 0
      vertex -2.9 0 3
      vertex -2.9 0 0
    endloop
  endfacet
  facet normal -0.998026 -0.0627978 0
    outer loop
      vertex -2.9 0 3
      vertex -2.87713 -0.363466 0
      vertex -2.87713 -0.363466 3
    endloop
  endfacet
  facet normal -0.951056 -0.309019 0
    outer loop
      vertex -2.69635 -1.06756 0
      vertex -2.80889 -0.7212 3
      vertex -2.80889 -0.7212 0
    endloop
  endfacet
  facet normal -0.951056 -0.309019 0
    outer loop
      vertex -2.80889 -0.7212 3
      vertex -2.69635 -1.06756 0
      vertex -2.69635 -1.06756 3
    endloop
  endfacet
  facet normal 0.587783 -0.809019 0
    outer loop
      vertex 1.5539 -2.44855 0
      vertex 1.84853 -2.23449 3
      vertex 1.5539 -2.44855 3
    endloop
  endfacet
  facet normal 0.587783 -0.809019 0
    outer loop
      vertex 1.84853 -2.23449 3
      vertex 1.5539 -2.44855 0
      vertex 1.84853 -2.23449 0
    endloop
  endfacet
  facet normal 0.248692 -0.968583 0
    outer loop
      vertex 0.543406 -2.84863 0
      vertex 0.896149 -2.75806 3
      vertex 0.543406 -2.84863 3
    endloop
  endfacet
  facet normal 0.248692 -0.968583 0
    outer loop
      vertex 0.896149 -2.75806 3
      vertex 0.543406 -2.84863 0
      vertex 0.896149 -2.75806 0
    endloop
  endfacet
  facet normal 0.844327 -0.535829 0
    outer loop
      vertex 2.34615 -1.70458 3
      vertex 2.54129 -1.39709 0
      vertex 2.54129 -1.39709 3
    endloop
  endfacet
  facet normal 0.844327 -0.535829 0
    outer loop
      vertex 2.54129 -1.39709 0
      vertex 2.34615 -1.70458 3
      vertex 2.34615 -1.70458 0
    endloop
  endfacet
  facet normal 0.770514 -0.637423 0
    outer loop
      vertex 2.11401 -1.98519 3
      vertex 2.34615 -1.70458 0
      vertex 2.34615 -1.70458 3
    endloop
  endfacet
  facet normal 0.770514 -0.637423 0
    outer loop
      vertex 2.34615 -1.70458 0
      vertex 2.11401 -1.98519 3
      vertex 2.11401 -1.98519 0
    endloop
  endfacet
  facet normal -0.125348 -0.992113 0
    outer loop
      vertex -0.543406 -2.84863 0
      vertex -0.182092 -2.89428 3
      vertex -0.543406 -2.84863 3
    endloop
  endfacet
  facet normal -0.125348 -0.992113 -0
    outer loop
      vertex -0.182092 -2.89428 3
      vertex -0.543406 -2.84863 0
      vertex -0.182092 -2.89428 0
    endloop
  endfacet
  facet normal -0.368111 -0.929782 0
    outer loop
      vertex -1.23476 -2.624 0
      vertex -0.896149 -2.75806 3
      vertex -1.23476 -2.624 3
    endloop
  endfacet
  facet normal -0.368111 -0.929782 -0
    outer loop
      vertex -0.896149 -2.75806 3
      vertex -1.23476 -2.624 0
      vertex -0.896149 -2.75806 0
    endloop
  endfacet
  facet normal -0.248692 -0.968583 0
    outer loop
      vertex -0.896149 -2.75806 0
      vertex -0.543406 -2.84863 3
      vertex -0.896149 -2.75806 3
    endloop
  endfacet
  facet normal -0.248692 -0.968583 -0
    outer loop
      vertex -0.543406 -2.84863 3
      vertex -0.896149 -2.75806 0
      vertex -0.543406 -2.84863 0
    endloop
  endfacet
  facet normal 0.684544 -0.728972 0
    outer loop
      vertex 1.84853 -2.23449 0
      vertex 2.11401 -1.98519 3
      vertex 1.84853 -2.23449 3
    endloop
  endfacet
  facet normal 0.684544 -0.728972 0
    outer loop
      vertex 2.11401 -1.98519 3
      vertex 1.84853 -2.23449 0
      vertex 2.11401 -1.98519 0
    endloop
  endfacet
  facet normal -0.481756 -0.876305 0
    outer loop
      vertex -1.5539 -2.44855 0
      vertex -1.23476 -2.624 3
      vertex -1.5539 -2.44855 3
    endloop
  endfacet
  facet normal -0.481756 -0.876305 -0
    outer loop
      vertex -1.23476 -2.624 3
      vertex -1.5539 -2.44855 0
      vertex -1.23476 -2.624 0
    endloop
  endfacet
  facet normal -0.587783 -0.809019 0
    outer loop
      vertex -1.84853 -2.23449 0
      vertex -1.5539 -2.44855 3
      vertex -1.84853 -2.23449 3
    endloop
  endfacet
  facet normal -0.587783 -0.809019 -0
    outer loop
      vertex -1.5539 -2.44855 3
      vertex -1.84853 -2.23449 0
      vertex -1.5539 -2.44855 0
    endloop
  endfacet
  facet normal -0.951057 0.309017 0
    outer loop
      vertex -1.45287 0.373034 -30
      vertex -1.39466 0.552186 0
      vertex -1.39466 0.552186 -30
    endloop
  endfacet
  facet normal -0.951057 0.309017 0
    outer loop
      vertex -1.39466 0.552186 0
      vertex -1.45287 0.373034 -30
      vertex -1.45287 0.373034 0
    endloop
  endfacet
  facet normal 0.844314 0.535848 0
    outer loop
      vertex 1.31446 0.722631 0
      vertex 1.21352 0.881678 -30
      vertex 1.21352 0.881678 0
    endloop
  endfacet
  facet normal 0.844314 0.535848 0
    outer loop
      vertex 1.21352 0.881678 -30
      vertex 1.31446 0.722631 0
      vertex 1.31446 0.722631 -30
    endloop
  endfacet
  facet normal 0.368106 0.929784 -0
    outer loop
      vertex 0.638668 1.35724 -30
      vertex 0.463525 1.42658 0
      vertex 0.638668 1.35724 0
    endloop
  endfacet
  facet normal 0.368106 0.929784 0
    outer loop
      vertex 0.463525 1.42658 0
      vertex 0.638668 1.35724 -30
      vertex 0.463525 1.42658 -30
    endloop
  endfacet
  facet normal -0.368106 0.929784 0
    outer loop
      vertex -0.463525 1.42658 -30
      vertex -0.638668 1.35724 0
      vertex -0.463525 1.42658 0
    endloop
  endfacet
  facet normal -0.368106 0.929784 0
    outer loop
      vertex -0.638668 1.35724 0
      vertex -0.463525 1.42658 -30
      vertex -0.638668 1.35724 -30
    endloop
  endfacet
  facet normal -0.904838 0.425756 0
    outer loop
      vertex -1.39466 0.552186 -30
      vertex -1.31446 0.722631 0
      vertex -1.31446 0.722631 -30
    endloop
  endfacet
  facet normal -0.904838 0.425756 0
    outer loop
      vertex -1.31446 0.722631 0
      vertex -1.39466 0.552186 -30
      vertex -1.39466 0.552186 0
    endloop
  endfacet
  facet normal 0.998026 -0.0628013 0
    outer loop
      vertex 1.48817 -0.188 0
      vertex 1.5 0 -30
      vertex 1.5 0 0
    endloop
  endfacet
  facet normal 0.998026 -0.0628013 0
    outer loop
      vertex 1.5 0 -30
      vertex 1.48817 -0.188 0
      vertex 1.48817 -0.188 -30
    endloop
  endfacet
  facet normal 0.368106 -0.929784 0
    outer loop
      vertex 0.463525 -1.42658 -30
      vertex 0.638668 -1.35724 0
      vertex 0.463525 -1.42658 0
    endloop
  endfacet
  facet normal 0.368106 -0.929784 0
    outer loop
      vertex 0.638668 -1.35724 0
      vertex 0.463525 -1.42658 -30
      vertex 0.638668 -1.35724 -30
    endloop
  endfacet
  facet normal 0.684557 0.728959 -0
    outer loop
      vertex 1.09345 1.02682 -30
      vertex 0.956136 1.15577 0
      vertex 1.09345 1.02682 0
    endloop
  endfacet
  facet normal 0.684557 0.728959 0
    outer loop
      vertex 0.956136 1.15577 0
      vertex 1.09345 1.02682 -30
      vertex 0.956136 1.15577 -30
    endloop
  endfacet
  facet normal 0.125337 0.992114 -0
    outer loop
      vertex 0.281072 1.47343 -30
      vertex 0.0941849 1.49704 0
      vertex 0.281072 1.47343 0
    endloop
  endfacet
  facet normal 0.125337 0.992114 0
    outer loop
      vertex 0.0941849 1.49704 0
      vertex 0.281072 1.47343 -30
      vertex 0.0941849 1.49704 -30
    endloop
  endfacet
  facet normal -0.770518 0.637418 0
    outer loop
      vertex -1.21352 0.881678 -30
      vertex -1.09345 1.02682 0
      vertex -1.09345 1.02682 -30
    endloop
  endfacet
  facet normal -0.770518 0.637418 0
    outer loop
      vertex -1.09345 1.02682 0
      vertex -1.21352 0.881678 -30
      vertex -1.21352 0.881678 0
    endloop
  endfacet
  facet normal -0.125337 0.992114 0
    outer loop
      vertex -0.0941849 1.49704 -30
      vertex -0.281072 1.47343 0
      vertex -0.0941849 1.49704 0
    endloop
  endfacet
  facet normal -0.125337 0.992114 0
    outer loop
      vertex -0.281072 1.47343 0
      vertex -0.0941849 1.49704 -30
      vertex -0.281072 1.47343 -30
    endloop
  endfacet
  facet normal -0.684557 0.728959 0
    outer loop
      vertex -0.956136 1.15577 -30
      vertex -1.09345 1.02682 0
      vertex -0.956136 1.15577 0
    endloop
  endfacet
  facet normal -0.684557 0.728959 0
    outer loop
      vertex -1.09345 1.02682 0
      vertex -0.956136 1.15577 -30
      vertex -1.09345 1.02682 -30
    endloop
  endfacet
  facet normal 0.998026 0.0628013 0
    outer loop
      vertex 1.5 0 0
      vertex 1.48817 0.188 -30
      vertex 1.48817 0.188 0
    endloop
  endfacet
  facet normal 0.998026 0.0628013 0
    outer loop
      vertex 1.48817 0.188 -30
      vertex 1.5 0 0
      vertex 1.5 0 -30
    endloop
  endfacet
  facet normal 0.24871 -0.968578 0
    outer loop
      vertex 0.281072 -1.47343 -30
      vertex 0.463525 -1.42658 0
      vertex 0.281072 -1.47343 0
    endloop
  endfacet
  facet normal 0.24871 -0.968578 0
    outer loop
      vertex 0.463525 -1.42658 0
      vertex 0.281072 -1.47343 -30
      vertex 0.463525 -1.42658 -30
    endloop
  endfacet
  facet normal 0.770518 0.637418 0
    outer loop
      vertex 1.21352 0.881678 0
      vertex 1.09345 1.02682 -30
      vertex 1.09345 1.02682 0
    endloop
  endfacet
  facet normal 0.770518 0.637418 0
    outer loop
      vertex 1.09345 1.02682 -30
      vertex 1.21352 0.881678 0
      vertex 1.21352 0.881678 -30
    endloop
  endfacet
  facet normal 0 1 -0
    outer loop
      vertex 0.0941849 1.49704 -30
      vertex -0.0941849 1.49704 0
      vertex 0.0941849 1.49704 0
    endloop
  endfacet
  facet normal 0 1 0
    outer loop
      vertex -0.0941849 1.49704 0
      vertex 0.0941849 1.49704 -30
      vertex -0.0941849 1.49704 -30
    endloop
  endfacet
  facet normal 0.24871 0.968578 -0
    outer loop
      vertex 0.463525 1.42658 -30
      vertex 0.281072 1.47343 0
      vertex 0.463525 1.42658 0
    endloop
  endfacet
  facet normal 0.24871 0.968578 0
    outer loop
      vertex 0.281072 1.47343 0
      vertex 0.463525 1.42658 -30
      vertex 0.281072 1.47343 -30
    endloop
  endfacet
  facet normal 0.587778 0.809022 -0
    outer loop
      vertex 0.956136 1.15577 -30
      vertex 0.80374 1.26649 0
      vertex 0.956136 1.15577 0
    endloop
  endfacet
  facet normal 0.587778 0.809022 0
    outer loop
      vertex 0.80374 1.26649 0
      vertex 0.956136 1.15577 -30
      vertex 0.80374 1.26649 -30
    endloop
  endfacet
  facet normal 0.481757 0.876305 -0
    outer loop
      vertex 0.80374 1.26649 -30
      vertex 0.638668 1.35724 0
      vertex 0.80374 1.26649 0
    endloop
  endfacet
  facet normal 0.481757 0.876305 0
    outer loop
      vertex 0.638668 1.35724 0
      vertex 0.80374 1.26649 -30
      vertex 0.638668 1.35724 -30
    endloop
  endfacet
  facet normal -0.998026 0.0628013 0
    outer loop
      vertex -1.5 0 -30
      vertex -1.48817 0.188 0
      vertex -1.48817 0.188 -30
    endloop
  endfacet
  facet normal -0.998026 0.0628013 0
    outer loop
      vertex -1.48817 0.188 0
      vertex -1.5 0 -30
      vertex -1.5 0 0
    endloop
  endfacet
  facet normal -0.844314 0.535848 0
    outer loop
      vertex -1.31446 0.722631 -30
      vertex -1.21352 0.881678 0
      vertex -1.21352 0.881678 -30
    endloop
  endfacet
  facet normal -0.844314 0.535848 0
    outer loop
      vertex -1.21352 0.881678 0
      vertex -1.31446 0.722631 -30
      vertex -1.31446 0.722631 0
    endloop
  endfacet
  facet normal -0.24871 0.968578 0
    outer loop
      vertex -0.281072 1.47343 -30
      vertex -0.463525 1.42658 0
      vertex -0.281072 1.47343 0
    endloop
  endfacet
  facet normal -0.24871 0.968578 0
    outer loop
      vertex -0.463525 1.42658 0
      vertex -0.281072 1.47343 -30
      vertex -0.463525 1.42658 -30
    endloop
  endfacet
  facet normal -0.481757 0.876305 0
    outer loop
      vertex -0.638668 1.35724 -30
      vertex -0.80374 1.26649 0
      vertex -0.638668 1.35724 0
    endloop
  endfacet
  facet normal -0.481757 0.876305 0
    outer loop
      vertex -0.80374 1.26649 0
      vertex -0.638668 1.35724 -30
      vertex -0.80374 1.26649 -30
    endloop
  endfacet
  facet normal -0.587778 0.809022 0
    outer loop
      vertex -0.80374 1.26649 -30
      vertex -0.956136 1.15577 0
      vertex -0.80374 1.26649 0
    endloop
  endfacet
  facet normal -0.587778 0.809022 0
    outer loop
      vertex -0.956136 1.15577 0
      vertex -0.80374 1.26649 -30
      vertex -0.956136 1.15577 -30
    endloop
  endfacet
  facet normal 0.982284 -0.187396 0
    outer loop
      vertex 1.45287 -0.373034 0
      vertex 1.48817 -0.188 -30
      vertex 1.48817 -0.188 0
    endloop
  endfacet
  facet normal 0.982284 -0.187396 0
    outer loop
      vertex 1.48817 -0.188 -30
      vertex 1.45287 -0.373034 0
      vertex 1.45287 -0.373034 -30
    endloop
  endfacet
  facet normal 0.125337 -0.992114 0
    outer loop
      vertex 0.0941849 -1.49704 -30
      vertex 0.281072 -1.47343 0
      vertex 0.0941849 -1.49704 0
    endloop
  endfacet
  facet normal 0.125337 -0.992114 0
    outer loop
      vertex 0.281072 -1.47343 0
      vertex 0.0941849 -1.49704 -30
      vertex 0.281072 -1.47343 -30
    endloop
  endfacet
  facet normal 0.904838 0.425756 0
    outer loop
      vertex 1.39466 0.552186 0
      vertex 1.31446 0.722631 -30
      vertex 1.31446 0.722631 0
    endloop
  endfacet
  facet normal 0.904838 0.425756 0
    outer loop
      vertex 1.31446 0.722631 -30
      vertex 1.39466 0.552186 0
      vertex 1.39466 0.552186 -30
    endloop
  endfacet
  facet normal 0.951057 0.309017 0
    outer loop
      vertex 1.45287 0.373034 0
      vertex 1.39466 0.552186 -30
      vertex 1.39466 0.552186 0
    endloop
  endfacet
  facet normal 0.951057 0.309017 0
    outer loop
      vertex 1.39466 0.552186 -30
      vertex 1.45287 0.373034 0
      vertex 1.45287 0.373034 -30
    endloop
  endfacet
  facet normal 0.982284 0.187396 0
    outer loop
      vertex 1.48817 0.188 0
      vertex 1.45287 0.373034 -30
      vertex 1.45287 0.373034 0
    endloop
  endfacet
  facet normal 0.982284 0.187396 0
    outer loop
      vertex 1.45287 0.373034 -30
      vertex 1.48817 0.188 0
      vertex 1.48817 0.188 -30
    endloop
  endfacet
  facet normal -0.982284 0.187396 0
    outer loop
      vertex -1.48817 0.188 -30
      vertex -1.45287 0.373034 0
      vertex -1.45287 0.373034 -30
    endloop
  endfacet
  facet normal -0.982284 0.187396 0
    outer loop
      vertex -1.45287 0.373034 0
      vertex -1.48817 0.188 -30
      vertex -1.48817 0.188 0
    endloop
  endfacet
  facet normal 0.481757 -0.876305 0
    outer loop
      vertex 0.638668 -1.35724 -30
      vertex 0.80374 -1.26649 0
      vertex 0.638668 -1.35724 0
    endloop
  endfacet
  facet normal 0.481757 -0.876305 0
    outer loop
      vertex 0.80374 -1.26649 0
      vertex 0.638668 -1.35724 -30
      vertex 0.80374 -1.26649 -30
    endloop
  endfacet
  facet normal 0.684557 -0.728959 0
    outer loop
      vertex 0.956136 -1.15577 -30
      vertex 1.09345 -1.02682 0
      vertex 0.956136 -1.15577 0
    endloop
  endfacet
  facet normal 0.684557 -0.728959 0
    outer loop
      vertex 1.09345 -1.02682 0
      vertex 0.956136 -1.15577 -30
      vertex 1.09345 -1.02682 -30
    endloop
  endfacet
  facet normal 0.770518 -0.637418 0
    outer loop
      vertex 1.09345 -1.02682 0
      vertex 1.21352 -0.881678 -30
      vertex 1.21352 -0.881678 0
    endloop
  endfacet
  facet normal 0.770518 -0.637418 0
    outer loop
      vertex 1.21352 -0.881678 -30
      vertex 1.09345 -1.02682 0
      vertex 1.09345 -1.02682 -30
    endloop
  endfacet
  facet normal -0.368106 -0.929784 0
    outer loop
      vertex -0.638668 -1.35724 -30
      vertex -0.463525 -1.42658 0
      vertex -0.638668 -1.35724 0
    endloop
  endfacet
  facet normal -0.368106 -0.929784 -0
    outer loop
      vertex -0.463525 -1.42658 0
      vertex -0.638668 -1.35724 -30
      vertex -0.463525 -1.42658 -30
    endloop
  endfacet
  facet normal -0.125337 -0.992114 0
    outer loop
      vertex -0.281072 -1.47343 -30
      vertex -0.0941849 -1.49704 0
      vertex -0.281072 -1.47343 0
    endloop
  endfacet
  facet normal -0.125337 -0.992114 -0
    outer loop
      vertex -0.0941849 -1.49704 0
      vertex -0.281072 -1.47343 -30
      vertex -0.0941849 -1.49704 -30
    endloop
  endfacet
  facet normal -0.998026 -0.0628013 0
    outer loop
      vertex -1.48817 -0.188 -30
      vertex -1.5 0 0
      vertex -1.5 0 -30
    endloop
  endfacet
  facet normal -0.998026 -0.0628013 0
    outer loop
      vertex -1.5 0 0
      vertex -1.48817 -0.188 -30
      vertex -1.48817 -0.188 0
    endloop
  endfacet
  facet normal -0.904838 -0.425756 0
    outer loop
      vertex -1.31446 -0.722631 -30
      vertex -1.39466 -0.552186 0
      vertex -1.39466 -0.552186 -30
    endloop
  endfacet
  facet normal -0.904838 -0.425756 0
    outer loop
      vertex -1.39466 -0.552186 0
      vertex -1.31446 -0.722631 -30
      vertex -1.31446 -0.722631 0
    endloop
  endfacet
  facet normal -0.951057 -0.309017 0
    outer loop
      vertex -1.39466 -0.552186 -30
      vertex -1.45287 -0.373034 0
      vertex -1.45287 -0.373034 -30
    endloop
  endfacet
  facet normal -0.951057 -0.309017 0
    outer loop
      vertex -1.45287 -0.373034 0
      vertex -1.39466 -0.552186 -30
      vertex -1.39466 -0.552186 0
    endloop
  endfacet
  facet normal -0.684557 -0.728959 0
    outer loop
      vertex -1.09345 -1.02682 -30
      vertex -0.956136 -1.15577 0
      vertex -1.09345 -1.02682 0
    endloop
  endfacet
  facet normal -0.684557 -0.728959 -0
    outer loop
      vertex -0.956136 -1.15577 0
      vertex -1.09345 -1.02682 -30
      vertex -0.956136 -1.15577 -30
    endloop
  endfacet
  facet normal 0.951057 -0.309017 0
    outer loop
      vertex 1.39466 -0.552186 0
      vertex 1.45287 -0.373034 -30
      vertex 1.45287 -0.373034 0
    endloop
  endfacet
  facet normal 0.951057 -0.309017 0
    outer loop
      vertex 1.45287 -0.373034 -30
      vertex 1.39466 -0.552186 0
      vertex 1.39466 -0.552186 -30
    endloop
  endfacet
  facet normal 0.904838 -0.425756 0
    outer loop
      vertex 1.31446 -0.722631 0
      vertex 1.39466 -0.552186 -30
      vertex 1.39466 -0.552186 0
    endloop
  endfacet
  facet normal 0.904838 -0.425756 0
    outer loop
      vertex 1.39466 -0.552186 -30
      vertex 1.31446 -0.722631 0
      vertex 1.31446 -0.722631 -30
    endloop
  endfacet
  facet normal 0.587778 -0.809022 0
    outer loop
      vertex 0.80374 -1.26649 -30
      vertex 0.956136 -1.15577 0
      vertex 0.80374 -1.26649 0
    endloop
  endfacet
  facet normal 0.587778 -0.809022 0
    outer loop
      vertex 0.956136 -1.15577 0
      vertex 0.80374 -1.26649 -30
      vertex 0.956136 -1.15577 -30
    endloop
  endfacet
  facet normal 0.844314 -0.535848 0
    outer loop
      vertex 1.21352 -0.881678 0
      vertex 1.31446 -0.722631 -30
      vertex 1.31446 -0.722631 0
    endloop
  endfacet
  facet normal 0.844314 -0.535848 0
    outer loop
      vertex 1.31446 -0.722631 -30
      vertex 1.21352 -0.881678 0
      vertex 1.21352 -0.881678 -30
    endloop
  endfacet
  facet normal -0.587778 -0.809022 0
    outer loop
      vertex -0.956136 -1.15577 -30
      vertex -0.80374 -1.26649 0
      vertex -0.956136 -1.15577 0
    endloop
  endfacet
  facet normal -0.587778 -0.809022 -0
    outer loop
      vertex -0.80374 -1.26649 0
      vertex -0.956136 -1.15577 -30
      vertex -0.80374 -1.26649 -30
    endloop
  endfacet
  facet normal 0 -1 0
    outer loop
      vertex -0.0941849 -1.49704 -30
      vertex 0.0941849 -1.49704 0
      vertex -0.0941849 -1.49704 0
    endloop
  endfacet
  facet normal 0 -1 -0
    outer loop
      vertex 0.0941849 -1.49704 0
      vertex -0.0941849 -1.49704 -30
      vertex 0.0941849 -1.49704 -30
    endloop
  endfacet
  facet normal -0.24871 -0.968578 0
    outer loop
      vertex -0.463525 -1.42658 -30
      vertex -0.281072 -1.47343 0
      vertex -0.463525 -1.42658 0
    endloop
  endfacet
  facet normal -0.24871 -0.968578 -0
    outer loop
      vertex -0.281072 -1.47343 0
      vertex -0.463525 -1.42658 -30
      vertex -0.281072 -1.47343 -30
    endloop
  endfacet
  facet normal 0 0 -1
    outer loop
      vertex 1.48817 -0.188 -30
      vertex 1.48817 0.188 -30
      vertex 1.5 0 -30
    endloop
  endfacet
  facet normal 0 0 -1
    outer loop
      vertex 1.45287 -0.373034 -30
      vertex 1.48817 0.188 -30
      vertex 1.48817 -0.188 -30
    endloop
  endfacet
  facet normal 0 0 -1
    outer loop
      vertex 1.45287 -0.373034 -30
      vertex 1.45287 0.373034 -30
      vertex 1.48817 0.188 -30
    endloop
  endfacet
  facet normal 0 0 -1
    outer loop
      vertex 1.39466 -0.552186 -30
      vertex 1.45287 0.373034 -30
      vertex 1.45287 -0.373034 -30
    endloop
  endfacet
  facet normal 0 0 -1
    outer loop
      vertex 1.39466 -0.552186 -30
      vertex 1.39466 0.552186 -30
      vertex 1.45287 0.373034 -30
    endloop
  endfacet
  facet normal 0 0 -1
    outer loop
      vertex 1.31446 -0.722631 -30
      vertex 1.39466 0.552186 -30
      vertex 1.39466 -0.552186 -30
    endloop
  endfacet
  facet normal 0 0 -1
    outer loop
      vertex 1.31446 -0.722631 -30
      vertex 1.31446 0.722631 -30
      vertex 1.39466 0.552186 -30
    endloop
  endfacet
  facet normal 0 0 -1
    outer loop
      vertex 1.21352 -0.881678 -30
      vertex 1.31446 0.722631 -30
      vertex 1.31446 -0.722631 -30
    endloop
  endfacet
  facet normal 0 0 -1
    outer loop
      vertex 1.21352 -0.881678 -30
      vertex 1.21352 0.881678 -30
      vertex 1.31446 0.722631 -30
    endloop
  endfacet
  facet normal 0 0 -1
    outer loop
      vertex 1.09345 -1.02682 -30
      vertex 1.21352 0.881678 -30
      vertex 1.21352 -0.881678 -30
    endloop
  endfacet
  facet normal 0 0 -1
    outer loop
      vertex 1.09345 -1.02682 -30
      vertex 1.09345 1.02682 -30
      vertex 1.21352 0.881678 -30
    endloop
  endfacet
  facet normal 0 0 -1
    outer loop
      vertex 0.956136 -1.15577 -30
      vertex 1.09345 1.02682 -30
      vertex 1.09345 -1.02682 -30
    endloop
  endfacet
  facet normal 0 0 -1
    outer loop
      vertex 0.956136 -1.15577 -30
      vertex 0.956136 1.15577 -30
      vertex 1.09345 1.02682 -30
    endloop
  endfacet
  facet normal 0 0 -1
    outer loop
      vertex 0.80374 -1.26649 -30
      vertex 0.956136 1.15577 -30
      vertex 0.956136 -1.15577 -30
    endloop
  endfacet
  facet normal 0 0 -1
    outer loop
      vertex 0.80374 -1.26649 -30
      vertex 0.80374 1.26649 -30
      vertex 0.956136 1.15577 -30
    endloop
  endfacet
  facet normal 0 0 -1
    outer loop
      vertex 0.638668 -1.35724 -30
      vertex 0.80374 1.26649 -30
      vertex 0.80374 -1.26649 -30
    endloop
  endfacet
  facet normal 0 0 -1
    outer loop
      vertex 0.638668 -1.35724 -30
      vertex 0.638668 1.35724 -30
      vertex 0.80374 1.26649 -30
    endloop
  endfacet
  facet normal 0 0 -1
    outer loop
      vertex 0.463525 -1.42658 -30
      vertex 0.638668 1.35724 -30
      vertex 0.638668 -1.35724 -30
    endloop
  endfacet
  facet normal 0 0 -1
    outer loop
      vertex 0.463525 -1.42658 -30
      vertex 0.463525 1.42658 -30
      vertex 0.638668 1.35724 -30
    endloop
  endfacet
  facet normal 0 0 -1
    outer loop
      vertex 0.281072 -1.47343 -30
      vertex 0.463525 1.42658 -30
      vertex 0.463525 -1.42658 -30
    endloop
  endfacet
  facet normal 0 0 -1
    outer loop
      vertex 0.281072 -1.47343 -30
      vertex 0.281072 1.47343 -30
      vertex 0.463525 1.42658 -30
    endloop
  endfacet
  facet normal 0 0 -1
    outer loop
      vertex 0.0941849 -1.49704 -30
      vertex 0.281072 1.47343 -30
      vertex 0.281072 -1.47343 -30
    endloop
  endfacet
  facet normal 0 0 -1
    outer loop
      vertex 0.0941849 -1.49704 -30
      vertex 0.0941849 1.49704 -30
      vertex 0.281072 1.47343 -30
    endloop
  endfacet
  facet normal 0 0 -1
    outer loop
      vertex -0.0941849 -1.49704 -30
      vertex 0.0941849 1.49704 -30
      vertex 0.0941849 -1.49704 -30
    endloop
  endfacet
  facet normal 0 0 -1
    outer loop
      vertex -0.0941849 -1.49704 -30
      vertex -0.0941849 1.49704 -30
      vertex 0.0941849 1.49704 -30
    endloop
  endfacet
  facet normal 0 0 -1
    outer loop
      vertex -0.281072 -1.47343 -30
      vertex -0.0941849 1.49704 -30
      vertex -0.0941849 -1.49704 -30
    endloop
  endfacet
  facet normal 0 0 -1
    outer loop
      vertex -0.281072 -1.47343 -30
      vertex -0.281072 1.47343 -30
      vertex -0.0941849 1.49704 -30
    endloop
  endfacet
  facet normal 0 0 -1
    outer loop
      vertex -0.463525 -1.42658 -30
      vertex -0.281072 1.47343 -30
      vertex -0.281072 -1.47343 -30
    endloop
  endfacet
  facet normal 0 0 -1
    outer loop
      vertex -0.463525 -1.42658 -30
      vertex -0.463525 1.42658 -30
      vertex -0.281072 1.47343 -30
    endloop
  endfacet
  facet normal 0 0 -1
    outer loop
      vertex -0.638668 -1.35724 -30
      vertex -0.463525 1.42658 -30
      vertex -0.463525 -1.42658 -30
    endloop
  endfacet
  facet normal 0 0 -1
    outer loop
      vertex -0.638668 -1.35724 -30
      vertex -0.638668 1.35724 -30
      vertex -0.463525 1.42658 -30
    endloop
  endfacet
  facet normal 0 0 -1
    outer loop
      vertex -0.80374 -1.26649 -30
      vertex -0.638668 1.35724 -30
      vertex -0.638668 -1.35724 -30
    endloop
  endfacet
  facet normal 0 0 -1
    outer loop
      vertex -0.80374 -1.26649 -30
      vertex -0.80374 1.26649 -30
      vertex -0.638668 1.35724 -30
    endloop
  endfacet
  facet normal 0 0 -1
    outer loop
      vertex -0.956136 -1.15577 -30
      vertex -0.80374 1.26649 -30
      vertex -0.80374 -1.26649 -30
    endloop
  endfacet
  facet normal 0 0 -1
    outer loop
      vertex -0.956136 -1.15577 -30
      vertex -0.956136 1.15577 -30
      vertex -0.80374 1.26649 -30
    endloop
  endfacet
  facet normal 0 0 -1
    outer loop
      vertex -1.09345 -1.02682 -30
      vertex -0.956136 1.15577 -30
      vertex -0.956136 -1.15577 -30
    endloop
  endfacet
  facet normal 0 0 -1
    outer loop
      vertex -1.09345 -1.02682 -30
      vertex -1.09345 1.02682 -30
      vertex -0.956136 1.15577 -30
    endloop
  endfacet
  facet normal 0 0 -1
    outer loop
      vertex -1.21352 -0.881678 -30
      vertex -1.09345 1.02682 -30
      vertex -1.09345 -1.02682 -30
    endloop
  endfacet
  facet normal 0 0 -1
    outer loop
      vertex -1.21352 -0.881678 -30
      vertex -1.21352 0.881678 -30
      vertex -1.09345 1.02682 -30
    endloop
  endfacet
  facet normal 0 0 -1
    outer loop
      vertex -1.31446 -0.722631 -30
      vertex -1.21352 0.881678 -30
      vertex -1.21352 -0.881678 -30
    endloop
  endfacet
  facet normal 0 0 -1
    outer loop
      vertex -1.31446 -0.722631 -30
      vertex -1.31446 0.722631 -30
      vertex -1.21352 0.881678 -30
    endloop
  endfacet
  facet normal 0 0 -1
    outer loop
      vertex -1.39466 -0.552186 -30
      vertex -1.31446 0.722631 -30
      vertex -1.31446 -0.722631 -30
    endloop
  endfacet
  facet normal 0 0 -1
    outer loop
      vertex -1.39466 -0.552186 -30
      vertex -1.39466 0.552186 -30
      vertex -1.31446 0.722631 -30
    endloop
  endfacet
  facet normal 0 0 -1
    outer loop
      vertex -1.45287 -0.373034 -30
      vertex -1.39466 0.552186 -30
      vertex -1.39466 -0.552186 -30
    endloop
  endfacet
  facet normal 0 0 -1
    outer loop
      vertex -1.45287 -0.373034 -30
      vertex -1.45287 0.373034 -30
      vertex -1.39466 0.552186 -30
    endloop
  endfacet
  facet normal 0 0 -1
    outer loop
      vertex -1.48817 -0.188 -30
      vertex -1.45287 0.373034 -30
      vertex -1.45287 -0.373034 -30
    endloop
  endfacet
  facet normal 0 0 -1
    outer loop
      vertex -1.48817 -0.188 -30
      vertex -1.48817 0.188 -30
      vertex -1.45287 0.373034 -30
    endloop
  endfacet
  facet normal 0 -0 -1
    outer loop
      vertex -1.48817 0.188 -30
      vertex -1.48817 -0.188 -30
      vertex -1.5 0 -30
    endloop
  endfacet
  facet normal -0.982284 -0.187396 0
    outer loop
      vertex -1.45287 -0.373034 -30
      vertex -1.48817 -0.188 0
      vertex -1.48817 -0.188 -30
    endloop
  endfacet
  facet normal -0.982284 -0.187396 0
    outer loop
      vertex -1.48817 -0.188 0
      vertex -1.45287 -0.373034 -30
      vertex -1.45287 -0.373034 0
    endloop
  endfacet
  facet normal -0.844314 -0.535848 0
    outer loop
      vertex -1.21352 -0.881678 -30
      vertex -1.31446 -0.722631 0
      vertex -1.31446 -0.722631 -30
    endloop
  endfacet
  facet normal -0.844314 -0.535848 0
    outer loop
      vertex -1.31446 -0.722631 0
      vertex -1.21352 -0.881678 -30
      vertex -1.21352 -0.881678 0
    endloop
  endfacet
  facet normal -0.481757 -0.876305 0
    outer loop
      vertex -0.80374 -1.26649 -30
      vertex -0.638668 -1.35724 0
      vertex -0.80374 -1.26649 0
    endloop
  endfacet
  facet normal -0.481757 -0.876305 -0
    outer loop
      vertex -0.638668 -1.35724 0
      vertex -0.80374 -1.26649 -30
      vertex -0.638668 -1.35724 -30
    endloop
  endfacet
  facet normal -0.770518 -0.637418 0
    outer loop
      vertex -1.09345 -1.02682 -30
      vertex -1.21352 -0.881678 0
      vertex -1.21352 -0.881678 -30
    endloop
  endfacet
  facet normal -0.770518 -0.637418 0
    outer loop
      vertex -1.21352 -0.881678 0
      vertex -1.09345 -1.02682 -30
      vertex -1.09345 -1.02682 0
    endloop
  endfacet
endsolid OpenSCAD_Model
