solid OpenSCAD_Model
  facet normal -1 0 0
    outer loop
      vertex -14.5 -9.5 0
      vertex -14.5 9.5 1
      vertex -14.5 9.5 0
    endloop
  endfacet
  facet normal -1 -0 0
    outer loop
      vertex -14.5 9.5 1
      vertex -14.5 -9.5 0
      vertex -14.5 -9.5 1
    endloop
  endfacet
  facet normal -0.99803 -0.0627451 0
    outer loop
      vertex -14.4606 -10.1267 0
      vertex -14.5 -9.5 1
      vertex -14.5 -9.5 0
    endloop
  endfacet
  facet normal -0.99803 -0.0627451 0
    outer loop
      vertex -14.5 -9.5 1
      vertex -14.4606 -10.1267 0
      vertex -14.4606 -10.1267 1
    endloop
  endfacet
  facet normal -0 0 1
    outer loop
      vertex 13.75 7.75 1
      vertex 14.5 4.99013 1
      vertex 14.5 9.5 1
    endloop
  endfacet
  facet normal 0 0 1
    outer loop
      vertex 14.5 4.99013 1
      vertex 13.75 7.75 1
      vertex 14.5 -4.99013 1
    endloop
  endfacet
  facet normal -0 0 1
    outer loop
      vertex 13.3287 9.95875 1
      vertex 14.5 9.5 1
      vertex 14.4606 10.1267 1
    endloop
  endfacet
  facet normal 0 0 1
    outer loop
      vertex 13.75 -7.75 1
      vertex 14.5 -4.99013 1
      vertex 13.75 7.75 1
    endloop
  endfacet
  facet normal 0 0 1
    outer loop
      vertex 13.3287 9.95875 1
      vertex 14.4606 10.1267 1
      vertex 14.3429 10.7434 1
    endloop
  endfacet
  facet normal 0 0 1
    outer loop
      vertex 14.5 -4.99013 1
      vertex 13.75 -7.75 1
      vertex 14.5 -9.5 1
    endloop
  endfacet
  facet normal 0 0 1
    outer loop
      vertex 13.0078 10.6405 1
      vertex 14.3429 10.7434 1
      vertex 14.1489 11.3406 1
    endloop
  endfacet
  facet normal -0 0 1
    outer loop
      vertex 13.7027 -8.502 1
      vertex 14.5 -9.5 1
      vertex 13.75 -7.75 1
    endloop
  endfacet
  facet normal 0 0 1
    outer loop
      vertex 13.0078 10.6405 1
      vertex 14.1489 11.3406 1
      vertex 13.8815 11.9088 1
    endloop
  endfacet
  facet normal -0 0 1
    outer loop
      vertex 13.5615 -9.24214 1
      vertex 14.5 -9.5 1
      vertex 13.7027 -8.502 1
    endloop
  endfacet
  facet normal 0 0 1
    outer loop
      vertex 13.3287 -9.95875 1
      vertex 14.5 -9.5 1
      vertex 13.5615 -9.24214 1
    endloop
  endfacet
  facet normal 0 0 1
    outer loop
      vertex 14.5 9.5 1
      vertex 13.7027 8.502 1
      vertex 13.75 7.75 1
    endloop
  endfacet
  facet normal 0 0 1
    outer loop
      vertex 14.5 9.5 1
      vertex 13.5615 9.24214 1
      vertex 13.7027 8.502 1
    endloop
  endfacet
  facet normal 0 0 1
    outer loop
      vertex 12.6041 11.2767 1
      vertex 13.8815 11.9088 1
      vertex 13.5451 12.4389 1
    endloop
  endfacet
  facet normal 0 0 1
    outer loop
      vertex 14.5 9.5 1
      vertex 13.3287 9.95875 1
      vertex 13.5615 9.24214 1
    endloop
  endfacet
  facet normal 0 0 1
    outer loop
      vertex 12.1238 11.8573 1
      vertex 13.5451 12.4389 1
      vertex 13.1448 12.9227 1
    endloop
  endfacet
  facet normal 0 0 1
    outer loop
      vertex 14.3429 10.7434 1
      vertex 13.0078 10.6405 1
      vertex 13.3287 9.95875 1
    endloop
  endfacet
  facet normal 0 0 1
    outer loop
      vertex 12.1238 11.8573 1
      vertex 13.1448 12.9227 1
      vertex 12.6871 13.3526 1
    endloop
  endfacet
  facet normal 0 0 1
    outer loop
      vertex 13.8815 11.9088 1
      vertex 12.6041 11.2767 1
      vertex 13.0078 10.6405 1
    endloop
  endfacet
  facet normal 0 0 1
    outer loop
      vertex 11.5745 12.3731 1
      vertex 12.6871 13.3526 1
      vertex 12.1791 13.7216 1
    endloop
  endfacet
  facet normal 0 0 1
    outer loop
      vertex 13.5451 12.4389 1
      vertex 12.1238 11.8573 1
      vertex 12.6041 11.2767 1
    endloop
  endfacet
  facet normal 0 0 1
    outer loop
      vertex 10.965 12.816 1
      vertex 12.1791 13.7216 1
      vertex 11.6289 14.0241 1
    endloop
  endfacet
  facet normal 0 0 1
    outer loop
      vertex 12.6871 13.3526 1
      vertex 11.5745 12.3731 1
      vertex 12.1238 11.8573 1
    endloop
  endfacet
  facet normal 0 0 1
    outer loop
      vertex 10.965 12.816 1
      vertex 11.6289 14.0241 1
      vertex 11.0451 14.2553 1
    endloop
  endfacet
  facet normal 0 0 1
    outer loop
      vertex 12.1791 13.7216 1
      vertex 10.965 12.816 1
      vertex 11.5745 12.3731 1
    endloop
  endfacet
  facet normal 0 0 1
    outer loop
      vertex 10.3047 13.179 1
      vertex 11.0451 14.2553 1
      vertex 10.4369 14.4114 1
    endloop
  endfacet
  facet normal 0 0 1
    outer loop
      vertex 11.0451 14.2553 1
      vertex 10.3047 13.179 1
      vertex 10.965 12.816 1
    endloop
  endfacet
  facet normal 0 0 1
    outer loop
      vertex 9.6041 13.4563 1
      vertex 10.4369 14.4114 1
      vertex 9.81395 14.4901 1
    endloop
  endfacet
  facet normal 0 0 1
    outer loop
      vertex 10.4369 14.4114 1
      vertex 9.6041 13.4563 1
      vertex 10.3047 13.179 1
    endloop
  endfacet
  facet normal 0 0 1
    outer loop
      vertex 9.81395 14.4901 1
      vertex 8.87429 13.6437 1
      vertex 9.6041 13.4563 1
    endloop
  endfacet
  facet normal 0 0 1
    outer loop
      vertex 9.81395 14.4901 1
      vertex 8.12674 13.7382 1
      vertex 8.87429 13.6437 1
    endloop
  endfacet
  facet normal 0 0 1
    outer loop
      vertex 9.81395 14.4901 1
      vertex -8.12674 13.7382 1
      vertex 8.12674 13.7382 1
    endloop
  endfacet
  facet normal -0 0 1
    outer loop
      vertex -9.81395 14.4901 1
      vertex -8.12674 13.7382 1
      vertex 9.81395 14.4901 1
    endloop
  endfacet
  facet normal 0 0 1
    outer loop
      vertex -9.81395 14.4901 1
      vertex -8.87429 13.6437 1
      vertex -8.12674 13.7382 1
    endloop
  endfacet
  facet normal 0 0 1
    outer loop
      vertex -9.81395 14.4901 1
      vertex -9.6041 13.4563 1
      vertex -8.87429 13.6437 1
    endloop
  endfacet
  facet normal -0 0 1
    outer loop
      vertex -10.4369 14.4114 1
      vertex -9.6041 13.4563 1
      vertex -9.81395 14.4901 1
    endloop
  endfacet
  facet normal 0 0 1
    outer loop
      vertex -9.6041 13.4563 1
      vertex -10.4369 14.4114 1
      vertex -10.3047 13.179 1
    endloop
  endfacet
  facet normal -0 0 1
    outer loop
      vertex -11.0451 14.2553 1
      vertex -10.3047 13.179 1
      vertex -10.4369 14.4114 1
    endloop
  endfacet
  facet normal 0 0 1
    outer loop
      vertex -10.3047 13.179 1
      vertex -11.0451 14.2553 1
      vertex -10.965 12.816 1
    endloop
  endfacet
  facet normal -0 0 1
    outer loop
      vertex -11.6289 14.0241 1
      vertex -10.965 12.816 1
      vertex -11.0451 14.2553 1
    endloop
  endfacet
  facet normal -0 0 1
    outer loop
      vertex -12.1791 13.7216 1
      vertex -10.965 12.816 1
      vertex -11.6289 14.0241 1
    endloop
  endfacet
  facet normal 0 0 1
    outer loop
      vertex -10.965 12.816 1
      vertex -12.1791 13.7216 1
      vertex -11.5745 12.3731 1
    endloop
  endfacet
  facet normal -0 0 1
    outer loop
      vertex -12.6871 13.3526 1
      vertex -11.5745 12.3731 1
      vertex -12.1791 13.7216 1
    endloop
  endfacet
  facet normal 0 0 1
    outer loop
      vertex -11.5745 12.3731 1
      vertex -12.6871 13.3526 1
      vertex -12.1238 11.8573 1
    endloop
  endfacet
  facet normal -0 0 1
    outer loop
      vertex -13.1448 12.9227 1
      vertex -12.1238 11.8573 1
      vertex -12.6871 13.3526 1
    endloop
  endfacet
  facet normal -0 0 1
    outer loop
      vertex -13.5451 12.4389 1
      vertex -12.1238 11.8573 1
      vertex -13.1448 12.9227 1
    endloop
  endfacet
  facet normal 0 0 1
    outer loop
      vertex -12.1238 11.8573 1
      vertex -13.5451 12.4389 1
      vertex -12.6041 11.2767 1
    endloop
  endfacet
  facet normal -0 0 1
    outer loop
      vertex -13.8815 11.9088 1
      vertex -12.6041 11.2767 1
      vertex -13.5451 12.4389 1
    endloop
  endfacet
  facet normal 0 0 1
    outer loop
      vertex -12.6041 11.2767 1
      vertex -13.8815 11.9088 1
      vertex -13.0078 10.6405 1
    endloop
  endfacet
  facet normal -0 0 1
    outer loop
      vertex -14.1489 11.3406 1
      vertex -13.0078 10.6405 1
      vertex -13.8815 11.9088 1
    endloop
  endfacet
  facet normal -0 0 1
    outer loop
      vertex -14.3429 10.7434 1
      vertex -13.0078 10.6405 1
      vertex -14.1489 11.3406 1
    endloop
  endfacet
  facet normal 0 0 1
    outer loop
      vertex -13.0078 10.6405 1
      vertex -14.3429 10.7434 1
      vertex -13.3287 9.95875 1
    endloop
  endfacet
  facet normal 0 0 1
    outer loop
      vertex -14.5 9.5 1
      vertex -13.3287 9.95875 1
      vertex -14.4606 10.1267 1
    endloop
  endfacet
  facet normal -0 0 1
    outer loop
      vertex -14.4606 10.1267 1
      vertex -13.3287 9.95875 1
      vertex -14.3429 10.7434 1
    endloop
  endfacet
  facet normal 0 0 1
    outer loop
      vertex 19.4606 0.626666 1
      vertex 19.4606 -0.626666 1
      vertex 19.5 0 1
    endloop
  endfacet
  facet normal 0 0 1
    outer loop
      vertex 19.3429 1.24345 1
      vertex 19.4606 -0.626666 1
      vertex 19.4606 0.626666 1
    endloop
  endfacet
  facet normal 0 0 1
    outer loop
      vertex 19.3429 1.24345 1
      vertex 19.3429 -1.24345 1
      vertex 19.4606 -0.626666 1
    endloop
  endfacet
  facet normal 0 0 1
    outer loop
      vertex 19.1489 1.84062 1
      vertex 19.3429 -1.24345 1
      vertex 19.3429 1.24345 1
    endloop
  endfacet
  facet normal 0 0 1
    outer loop
      vertex 19.1489 1.84062 1
      vertex 19.1489 -1.84062 1
      vertex 19.3429 -1.24345 1
    endloop
  endfacet
  facet normal 0 0 1
    outer loop
      vertex 18.8815 2.40877 1
      vertex 19.1489 -1.84062 1
      vertex 19.1489 1.84062 1
    endloop
  endfacet
  facet normal 0 0 1
    outer loop
      vertex 18.8815 2.40877 1
      vertex 18.8815 -2.40877 1
      vertex 19.1489 -1.84062 1
    endloop
  endfacet
  facet normal 0 0 1
    outer loop
      vertex 18.5451 2.93893 1
      vertex 18.8815 -2.40877 1
      vertex 18.8815 2.40877 1
    endloop
  endfacet
  facet normal 0 0 1
    outer loop
      vertex 18.5451 2.93893 1
      vertex 18.5451 -2.93893 1
      vertex 18.8815 -2.40877 1
    endloop
  endfacet
  facet normal 0 0 1
    outer loop
      vertex 18.1448 3.42274 1
      vertex 18.5451 -2.93893 1
      vertex 18.5451 2.93893 1
    endloop
  endfacet
  facet normal 0 0 1
    outer loop
      vertex 18.1448 3.42274 1
      vertex 18.1448 -3.42274 1
      vertex 18.5451 -2.93893 1
    endloop
  endfacet
  facet normal 0 0 1
    outer loop
      vertex 17.6871 3.85257 1
      vertex 18.1448 -3.42274 1
      vertex 18.1448 3.42274 1
    endloop
  endfacet
  facet normal 0 0 1
    outer loop
      vertex 17.6871 3.85257 1
      vertex 17.6871 -3.85257 1
      vertex 18.1448 -3.42274 1
    endloop
  endfacet
  facet normal 0 0 1
    outer loop
      vertex 17.1791 4.22164 1
      vertex 17.6871 -3.85257 1
      vertex 17.6871 3.85257 1
    endloop
  endfacet
  facet normal 0 0 1
    outer loop
      vertex 17.1791 4.22164 1
      vertex 17.1791 -4.22164 1
      vertex 17.6871 -3.85257 1
    endloop
  endfacet
  facet normal 0 0 1
    outer loop
      vertex 16.6289 4.52413 1
      vertex 17.1791 -4.22164 1
      vertex 17.1791 4.22164 1
    endloop
  endfacet
  facet normal 0 0 1
    outer loop
      vertex 16.6289 4.52413 1
      vertex 16.6289 -4.52413 1
      vertex 17.1791 -4.22164 1
    endloop
  endfacet
  facet normal 0 0 1
    outer loop
      vertex 16.0451 4.75528 1
      vertex 16.6289 -4.52413 1
      vertex 16.6289 4.52413 1
    endloop
  endfacet
  facet normal 0 0 1
    outer loop
      vertex 16.0451 4.75528 1
      vertex 16.0451 -4.75528 1
      vertex 16.6289 -4.52413 1
    endloop
  endfacet
  facet normal 0 0 1
    outer loop
      vertex 14.5 4.99013 1
      vertex 16.0451 4.75528 1
      vertex 15.4369 4.91144 1
    endloop
  endfacet
  facet normal 0 0 1
    outer loop
      vertex 16.0451 4.75528 1
      vertex 14.5 4.99013 1
      vertex 16.0451 -4.75528 1
    endloop
  endfacet
  facet normal -0 0 1
    outer loop
      vertex 14.5 4.99013 1
      vertex 15.4369 4.91144 1
      vertex 14.814 4.99013 1
    endloop
  endfacet
  facet normal 0 0 1
    outer loop
      vertex 14.5 -4.99013 1
      vertex 16.0451 -4.75528 1
      vertex 14.5 4.99013 1
    endloop
  endfacet
  facet normal 0 0 1
    outer loop
      vertex 16.0451 -4.75528 1
      vertex 14.5 -4.99013 1
      vertex 15.4369 -4.91144 1
    endloop
  endfacet
  facet normal 0 0 1
    outer loop
      vertex 15.4369 -4.91144 1
      vertex 14.5 -4.99013 1
      vertex 14.814 -4.99013 1
    endloop
  endfacet
  facet normal 0 0 1
    outer loop
      vertex 14.5 -9.5 1
      vertex 13.3287 -9.95875 1
      vertex 14.4606 -10.1267 1
    endloop
  endfacet
  facet normal 0 0 1
    outer loop
      vertex 14.4606 -10.1267 1
      vertex 13.3287 -9.95875 1
      vertex 14.3429 -10.7434 1
    endloop
  endfacet
  facet normal -0 0 1
    outer loop
      vertex 13.0078 -10.6405 1
      vertex 14.3429 -10.7434 1
      vertex 13.3287 -9.95875 1
    endloop
  endfacet
  facet normal 0 0 1
    outer loop
      vertex 14.3429 -10.7434 1
      vertex 13.0078 -10.6405 1
      vertex 14.1489 -11.3406 1
    endloop
  endfacet
  facet normal 0 0 1
    outer loop
      vertex 14.1489 -11.3406 1
      vertex 13.0078 -10.6405 1
      vertex 13.8815 -11.9088 1
    endloop
  endfacet
  facet normal -0 0 1
    outer loop
      vertex 12.6041 -11.2767 1
      vertex 13.8815 -11.9088 1
      vertex 13.0078 -10.6405 1
    endloop
  endfacet
  facet normal 0 0 1
    outer loop
      vertex 13.8815 -11.9088 1
      vertex 12.6041 -11.2767 1
      vertex 13.5451 -12.4389 1
    endloop
  endfacet
  facet normal -0 0 1
    outer loop
      vertex 12.1238 -11.8573 1
      vertex 13.5451 -12.4389 1
      vertex 12.6041 -11.2767 1
    endloop
  endfacet
  facet normal 0 0 1
    outer loop
      vertex 13.5451 -12.4389 1
      vertex 12.1238 -11.8573 1
      vertex 13.1448 -12.9227 1
    endloop
  endfacet
  facet normal 0 0 1
    outer loop
      vertex 13.1448 -12.9227 1
      vertex 12.1238 -11.8573 1
      vertex 12.6871 -13.3526 1
    endloop
  endfacet
  facet normal -0 0 1
    outer loop
      vertex 11.5745 -12.3731 1
      vertex 12.6871 -13.3526 1
      vertex 12.1238 -11.8573 1
    endloop
  endfacet
  facet normal 0 0 1
    outer loop
      vertex 12.6871 -13.3526 1
      vertex 11.5745 -12.3731 1
      vertex 12.1791 -13.7216 1
    endloop
  endfacet
  facet normal -0 0 1
    outer loop
      vertex 10.965 -12.816 1
      vertex 12.1791 -13.7216 1
      vertex 11.5745 -12.3731 1
    endloop
  endfacet
  facet normal 0 0 1
    outer loop
      vertex 12.1791 -13.7216 1
      vertex 10.965 -12.816 1
      vertex 11.6289 -14.0241 1
    endloop
  endfacet
  facet normal 0 0 1
    outer loop
      vertex 11.6289 -14.0241 1
      vertex 10.965 -12.816 1
      vertex 11.0451 -14.2553 1
    endloop
  endfacet
  facet normal -0 0 1
    outer loop
      vertex 10.3047 -13.179 1
      vertex 11.0451 -14.2553 1
      vertex 10.965 -12.816 1
    endloop
  endfacet
  facet normal 0 0 1
    outer loop
      vertex 11.0451 -14.2553 1
      vertex 10.3047 -13.179 1
      vertex 10.4369 -14.4114 1
    endloop
  endfacet
  facet normal -0 0 1
    outer loop
      vertex 9.6041 -13.4563 1
      vertex 10.4369 -14.4114 1
      vertex 10.3047 -13.179 1
    endloop
  endfacet
  facet normal 0 0 1
    outer loop
      vertex 10.4369 -14.4114 1
      vertex 9.6041 -13.4563 1
      vertex 9.81395 -14.4901 1
    endloop
  endfacet
  facet normal -0 0 1
    outer loop
      vertex 8.87429 -13.6437 1
      vertex 9.81395 -14.4901 1
      vertex 9.6041 -13.4563 1
    endloop
  endfacet
  facet normal -0 0 1
    outer loop
      vertex 8.12674 -13.7382 1
      vertex 9.81395 -14.4901 1
      vertex 8.87429 -13.6437 1
    endloop
  endfacet
  facet normal -0 0 1
    outer loop
      vertex -8.12674 -13.7382 1
      vertex 9.81395 -14.4901 1
      vertex 8.12674 -13.7382 1
    endloop
  endfacet
  facet normal 0 0 1
    outer loop
      vertex -8.12674 -13.7382 1
      vertex -9.81395 -14.4901 1
      vertex 9.81395 -14.4901 1
    endloop
  endfacet
  facet normal 0 0 1
    outer loop
      vertex -8.87429 -13.6437 1
      vertex -9.81395 -14.4901 1
      vertex -8.12674 -13.7382 1
    endloop
  endfacet
  facet normal 0 0 1
    outer loop
      vertex -9.6041 -13.4563 1
      vertex -9.81395 -14.4901 1
      vertex -8.87429 -13.6437 1
    endloop
  endfacet
  facet normal 0 0 1
    outer loop
      vertex -10.4369 -14.4114 1
      vertex -9.6041 -13.4563 1
      vertex -10.3047 -13.179 1
    endloop
  endfacet
  facet normal 0 0 1
    outer loop
      vertex -9.6041 -13.4563 1
      vertex -10.4369 -14.4114 1
      vertex -9.81395 -14.4901 1
    endloop
  endfacet
  facet normal 0 0 1
    outer loop
      vertex -11.0451 -14.2553 1
      vertex -10.3047 -13.179 1
      vertex -10.965 -12.816 1
    endloop
  endfacet
  facet normal 0 0 1
    outer loop
      vertex -10.3047 -13.179 1
      vertex -11.0451 -14.2553 1
      vertex -10.4369 -14.4114 1
    endloop
  endfacet
  facet normal 0 0 1
    outer loop
      vertex -12.1791 -13.7216 1
      vertex -10.965 -12.816 1
      vertex -11.5745 -12.3731 1
    endloop
  endfacet
  facet normal 0 0 1
    outer loop
      vertex -10.965 -12.816 1
      vertex -11.6289 -14.0241 1
      vertex -11.0451 -14.2553 1
    endloop
  endfacet
  facet normal 0 0 1
    outer loop
      vertex -12.6871 -13.3526 1
      vertex -11.5745 -12.3731 1
      vertex -12.1238 -11.8573 1
    endloop
  endfacet
  facet normal 0 0 1
    outer loop
      vertex -10.965 -12.816 1
      vertex -12.1791 -13.7216 1
      vertex -11.6289 -14.0241 1
    endloop
  endfacet
  facet normal 0 0 1
    outer loop
      vertex -13.5451 -12.4389 1
      vertex -12.1238 -11.8573 1
      vertex -12.6041 -11.2767 1
    endloop
  endfacet
  facet normal 0 0 1
    outer loop
      vertex -11.5745 -12.3731 1
      vertex -12.6871 -13.3526 1
      vertex -12.1791 -13.7216 1
    endloop
  endfacet
  facet normal 0 0 1
    outer loop
      vertex -13.8815 -11.9088 1
      vertex -12.6041 -11.2767 1
      vertex -13.0078 -10.6405 1
    endloop
  endfacet
  facet normal 0 0 1
    outer loop
      vertex -12.1238 -11.8573 1
      vertex -13.1448 -12.9227 1
      vertex -12.6871 -13.3526 1
    endloop
  endfacet
  facet normal 0 0 1
    outer loop
      vertex -14.3429 -10.7434 1
      vertex -13.0078 -10.6405 1
      vertex -13.3287 -9.95875 1
    endloop
  endfacet
  facet normal 0 0 1
    outer loop
      vertex -12.1238 -11.8573 1
      vertex -13.5451 -12.4389 1
      vertex -13.1448 -12.9227 1
    endloop
  endfacet
  facet normal -0 0 1
    outer loop
      vertex -14.5 -9.5 1
      vertex -13.3287 -9.95875 1
      vertex -13.5615 -9.24214 1
    endloop
  endfacet
  facet normal 0 0 1
    outer loop
      vertex -14.5 -9.5 1
      vertex -13.5615 -9.24214 1
      vertex -13.7027 -8.502 1
    endloop
  endfacet
  facet normal 0 0 1
    outer loop
      vertex -14.5 -9.5 1
      vertex -13.7027 -8.502 1
      vertex -13.75 -7.75 1
    endloop
  endfacet
  facet normal 0 0 1
    outer loop
      vertex -12.6041 -11.2767 1
      vertex -13.8815 -11.9088 1
      vertex -13.5451 -12.4389 1
    endloop
  endfacet
  facet normal 0 0 1
    outer loop
      vertex -13.75 7.75 1
      vertex -14.5 9.5 1
      vertex -13.75 -7.75 1
    endloop
  endfacet
  facet normal 0 0 1
    outer loop
      vertex -13.3287 9.95875 1
      vertex -14.5 9.5 1
      vertex -13.5615 9.24214 1
    endloop
  endfacet
  facet normal 0 0 1
    outer loop
      vertex -14.5 -9.5 1
      vertex -13.75 -7.75 1
      vertex -14.5 9.5 1
    endloop
  endfacet
  facet normal 0 0 1
    outer loop
      vertex -13.5615 9.24214 1
      vertex -14.5 9.5 1
      vertex -13.7027 8.502 1
    endloop
  endfacet
  facet normal 0 0 1
    outer loop
      vertex -13.3287 -9.95875 1
      vertex -14.5 -9.5 1
      vertex -14.4606 -10.1267 1
    endloop
  endfacet
  facet normal 0 0 1
    outer loop
      vertex -13.7027 8.502 1
      vertex -14.5 9.5 1
      vertex -13.75 7.75 1
    endloop
  endfacet
  facet normal 0 0 1
    outer loop
      vertex -13.0078 -10.6405 1
      vertex -14.1489 -11.3406 1
      vertex -13.8815 -11.9088 1
    endloop
  endfacet
  facet normal 0 0 1
    outer loop
      vertex -13.0078 -10.6405 1
      vertex -14.3429 -10.7434 1
      vertex -14.1489 -11.3406 1
    endloop
  endfacet
  facet normal 0 0 1
    outer loop
      vertex -13.3287 -9.95875 1
      vertex -14.4606 -10.1267 1
      vertex -14.3429 -10.7434 1
    endloop
  endfacet
  facet normal 0.770462 0.637486 0
    outer loop
      vertex 13.5451 12.4389 1
      vertex 13.1448 12.9227 0
      vertex 13.1448 12.9227 1
    endloop
  endfacet
  facet normal 0.770462 0.637486 0
    outer loop
      vertex 13.1448 12.9227 0
      vertex 13.5451 12.4389 1
      vertex 13.5451 12.4389 0
    endloop
  endfacet
  facet normal -0.770462 0.637486 0
    outer loop
      vertex -13.5451 12.4389 0
      vertex -13.1448 12.9227 1
      vertex -13.1448 12.9227 0
    endloop
  endfacet
  facet normal -0.770462 0.637486 0
    outer loop
      vertex -13.1448 12.9227 1
      vertex -13.5451 12.4389 0
      vertex -13.5451 12.4389 1
    endloop
  endfacet
  facet normal -0.125338 -0.992114 0
    outer loop
      vertex -10.4369 -14.4114 0
      vertex -9.81395 -14.4901 1
      vertex -10.4369 -14.4114 1
    endloop
  endfacet
  facet normal -0.125338 -0.992114 -0
    outer loop
      vertex -9.81395 -14.4901 1
      vertex -10.4369 -14.4114 0
      vertex -9.81395 -14.4901 0
    endloop
  endfacet
  facet normal 0.99803 -0.0627451 0
    outer loop
      vertex 14.4606 -10.1267 1
      vertex 14.5 -9.5 0
      vertex 14.5 -9.5 1
    endloop
  endfacet
  facet normal 0.99803 -0.0627451 0
    outer loop
      vertex 14.5 -9.5 0
      vertex 14.4606 -10.1267 1
      vertex 14.4606 -10.1267 0
    endloop
  endfacet
  facet normal 1 -0 0
    outer loop
      vertex 14.5 4.99013 1
      vertex 14.5 9.5 0
      vertex 14.5 9.5 1
    endloop
  endfacet
  facet normal 1 0 0
    outer loop
      vertex 14.5 9.5 0
      vertex 14.5 4.99013 1
      vertex 14.5 4.99013 0
    endloop
  endfacet
  facet normal 1 -0 0
    outer loop
      vertex 14.5 -9.5 1
      vertex 14.5 -4.99013 0
      vertex 14.5 -4.99013 1
    endloop
  endfacet
  facet normal 1 0 0
    outer loop
      vertex 14.5 -4.99013 0
      vertex 14.5 -9.5 1
      vertex 14.5 -9.5 0
    endloop
  endfacet
  facet normal -0.368203 0.929745 0
    outer loop
      vertex -11.0451 14.2553 0
      vertex -11.6289 14.0241 1
      vertex -11.0451 14.2553 1
    endloop
  endfacet
  facet normal -0.368203 0.929745 0
    outer loop
      vertex -11.6289 14.0241 1
      vertex -11.0451 14.2553 0
      vertex -11.6289 14.0241 0
    endloop
  endfacet
  facet normal 0 1 -0
    outer loop
      vertex 9.81395 14.4901 0
      vertex -9.81395 14.4901 1
      vertex 9.81395 14.4901 1
    endloop
  endfacet
  facet normal 0 1 0
    outer loop
      vertex -9.81395 14.4901 1
      vertex 9.81395 14.4901 0
      vertex -9.81395 14.4901 0
    endloop
  endfacet
  facet normal -0.99803 0.0627451 0
    outer loop
      vertex -14.5 9.5 0
      vertex -14.4606 10.1267 1
      vertex -14.4606 10.1267 0
    endloop
  endfacet
  facet normal -0.99803 0.0627451 0
    outer loop
      vertex -14.4606 10.1267 1
      vertex -14.5 9.5 0
      vertex -14.5 9.5 1
    endloop
  endfacet
  facet normal -0.248601 -0.968606 0
    outer loop
      vertex -11.0451 -14.2553 0
      vertex -10.4369 -14.4114 1
      vertex -11.0451 -14.2553 1
    endloop
  endfacet
  facet normal -0.248601 -0.968606 -0
    outer loop
      vertex -10.4369 -14.4114 1
      vertex -11.0451 -14.2553 0
      vertex -10.4369 -14.4114 0
    endloop
  endfacet
  facet normal 0 -1 0
    outer loop
      vertex -9.81395 -14.4901 0
      vertex 9.81395 -14.4901 1
      vertex -9.81395 -14.4901 1
    endloop
  endfacet
  facet normal 0 -1 -0
    outer loop
      vertex 9.81395 -14.4901 1
      vertex -9.81395 -14.4901 0
      vertex 9.81395 -14.4901 0
    endloop
  endfacet
  facet normal 0.951076 0.308956 0
    outer loop
      vertex 14.3429 10.7434 1
      vertex 14.1489 11.3406 0
      vertex 14.1489 11.3406 1
    endloop
  endfacet
  facet normal 0.951076 0.308956 0
    outer loop
      vertex 14.1489 11.3406 0
      vertex 14.3429 10.7434 1
      vertex 14.3429 10.7434 0
    endloop
  endfacet
  facet normal 0.125338 0.992114 -0
    outer loop
      vertex 10.4369 14.4114 0
      vertex 9.81395 14.4901 1
      vertex 10.4369 14.4114 1
    endloop
  endfacet
  facet normal 0.125338 0.992114 0
    outer loop
      vertex 9.81395 14.4901 1
      vertex 10.4369 14.4114 0
      vertex 9.81395 14.4901 0
    endloop
  endfacet
  facet normal -0.684624 0.728896 0
    outer loop
      vertex -12.6871 13.3526 0
      vertex -13.1448 12.9227 1
      vertex -12.6871 13.3526 1
    endloop
  endfacet
  facet normal -0.684624 0.728896 0
    outer loop
      vertex -13.1448 12.9227 1
      vertex -12.6871 13.3526 0
      vertex -13.1448 12.9227 0
    endloop
  endfacet
  facet normal -0.951076 0.308956 0
    outer loop
      vertex -14.3429 10.7434 0
      vertex -14.1489 11.3406 1
      vertex -14.1489 11.3406 0
    endloop
  endfacet
  facet normal -0.951076 0.308956 0
    outer loop
      vertex -14.1489 11.3406 1
      vertex -14.3429 10.7434 0
      vertex -14.3429 10.7434 1
    endloop
  endfacet
  facet normal 0 0 -1
    outer loop
      vertex 9.81395 -14.4901 0
      vertex 14.5 -4.99013 0
      vertex 14.5 -9.5 0
    endloop
  endfacet
  facet normal 0 0 -1
    outer loop
      vertex -9.81395 -14.4901 0
      vertex 14.5 -4.99013 0
      vertex 9.81395 -14.4901 0
    endloop
  endfacet
  facet normal 0 0 -1
    outer loop
      vertex 9.81395 -14.4901 0
      vertex 14.5 -9.5 0
      vertex 14.4606 -10.1267 0
    endloop
  endfacet
  facet normal 0 0 -1
    outer loop
      vertex -14.5 -9.5 0
      vertex 14.5 -4.99013 0
      vertex -9.81395 -14.4901 0
    endloop
  endfacet
  facet normal 0 0 -1
    outer loop
      vertex 9.81395 -14.4901 0
      vertex 14.4606 -10.1267 0
      vertex 14.3429 -10.7434 0
    endloop
  endfacet
  facet normal 0 0 -1
    outer loop
      vertex -14.5 9.5 0
      vertex 14.5 4.99013 0
      vertex -14.5 -9.5 0
    endloop
  endfacet
  facet normal 0 0 -1
    outer loop
      vertex 9.81395 -14.4901 0
      vertex 14.3429 -10.7434 0
      vertex 14.1489 -11.3406 0
    endloop
  endfacet
  facet normal 0 0 -1
    outer loop
      vertex 14.5 9.5 0
      vertex 9.81395 14.4901 0
      vertex 14.4606 10.1267 0
    endloop
  endfacet
  facet normal 0 0 -1
    outer loop
      vertex 9.81395 -14.4901 0
      vertex 14.1489 -11.3406 0
      vertex 13.8815 -11.9088 0
    endloop
  endfacet
  facet normal 0 0 -1
    outer loop
      vertex 14.4606 10.1267 0
      vertex 9.81395 14.4901 0
      vertex 14.3429 10.7434 0
    endloop
  endfacet
  facet normal 0 0 -1
    outer loop
      vertex 9.81395 -14.4901 0
      vertex 13.8815 -11.9088 0
      vertex 13.5451 -12.4389 0
    endloop
  endfacet
  facet normal 0 0 -1
    outer loop
      vertex 14.3429 10.7434 0
      vertex 9.81395 14.4901 0
      vertex 14.1489 11.3406 0
    endloop
  endfacet
  facet normal 0 0 -1
    outer loop
      vertex 9.81395 -14.4901 0
      vertex 13.5451 -12.4389 0
      vertex 13.1448 -12.9227 0
    endloop
  endfacet
  facet normal 0 0 -1
    outer loop
      vertex 14.1489 11.3406 0
      vertex 9.81395 14.4901 0
      vertex 13.8815 11.9088 0
    endloop
  endfacet
  facet normal 0 0 -1
    outer loop
      vertex 9.81395 -14.4901 0
      vertex 13.1448 -12.9227 0
      vertex 12.6871 -13.3526 0
    endloop
  endfacet
  facet normal 0 0 -1
    outer loop
      vertex 13.8815 11.9088 0
      vertex 9.81395 14.4901 0
      vertex 13.5451 12.4389 0
    endloop
  endfacet
  facet normal 0 0 -1
    outer loop
      vertex 9.81395 -14.4901 0
      vertex 12.6871 -13.3526 0
      vertex 12.1791 -13.7216 0
    endloop
  endfacet
  facet normal 0 0 -1
    outer loop
      vertex 13.5451 12.4389 0
      vertex 9.81395 14.4901 0
      vertex 13.1448 12.9227 0
    endloop
  endfacet
  facet normal 0 0 -1
    outer loop
      vertex 9.81395 -14.4901 0
      vertex 12.1791 -13.7216 0
      vertex 11.6289 -14.0241 0
    endloop
  endfacet
  facet normal 0 0 -1
    outer loop
      vertex 13.1448 12.9227 0
      vertex 9.81395 14.4901 0
      vertex 12.6871 13.3526 0
    endloop
  endfacet
  facet normal 0 0 -1
    outer loop
      vertex 9.81395 -14.4901 0
      vertex 11.6289 -14.0241 0
      vertex 11.0451 -14.2553 0
    endloop
  endfacet
  facet normal 0 0 -1
    outer loop
      vertex 12.6871 13.3526 0
      vertex 9.81395 14.4901 0
      vertex 12.1791 13.7216 0
    endloop
  endfacet
  facet normal 0 0 -1
    outer loop
      vertex 9.81395 -14.4901 0
      vertex 11.0451 -14.2553 0
      vertex 10.4369 -14.4114 0
    endloop
  endfacet
  facet normal 0 0 -1
    outer loop
      vertex 12.1791 13.7216 0
      vertex 9.81395 14.4901 0
      vertex 11.6289 14.0241 0
    endloop
  endfacet
  facet normal 0 0 -1
    outer loop
      vertex 11.6289 14.0241 0
      vertex 9.81395 14.4901 0
      vertex 11.0451 14.2553 0
    endloop
  endfacet
  facet normal 0 0 -1
    outer loop
      vertex 11.0451 14.2553 0
      vertex 9.81395 14.4901 0
      vertex 10.4369 14.4114 0
    endloop
  endfacet
  facet normal -0 0 -1
    outer loop
      vertex 14.5 -4.99013 0
      vertex -14.5 -9.5 0
      vertex 14.5 4.99013 0
    endloop
  endfacet
  facet normal 0 -0 -1
    outer loop
      vertex -9.81395 14.4901 0
      vertex 14.5 4.99013 0
      vertex -14.5 9.5 0
    endloop
  endfacet
  facet normal 0 0 -1
    outer loop
      vertex -14.5 -9.5 0
      vertex -9.81395 -14.4901 0
      vertex -10.4369 -14.4114 0
    endloop
  endfacet
  facet normal 0 0 -1
    outer loop
      vertex 14.5 4.99013 0
      vertex 9.81395 14.4901 0
      vertex 14.5 9.5 0
    endloop
  endfacet
  facet normal 0 0 -1
    outer loop
      vertex -14.5 -9.5 0
      vertex -10.4369 -14.4114 0
      vertex -11.0451 -14.2553 0
    endloop
  endfacet
  facet normal 0 0 -1
    outer loop
      vertex 14.5 4.99013 0
      vertex -9.81395 14.4901 0
      vertex 9.81395 14.4901 0
    endloop
  endfacet
  facet normal 0 0 -1
    outer loop
      vertex -14.5 -9.5 0
      vertex -11.0451 -14.2553 0
      vertex -11.6289 -14.0241 0
    endloop
  endfacet
  facet normal 0 0 -1
    outer loop
      vertex -9.81395 14.4901 0
      vertex -14.5 9.5 0
      vertex -10.4369 14.4114 0
    endloop
  endfacet
  facet normal 0 0 -1
    outer loop
      vertex -14.5 -9.5 0
      vertex -11.6289 -14.0241 0
      vertex -12.1791 -13.7216 0
    endloop
  endfacet
  facet normal 0 0 -1
    outer loop
      vertex -10.4369 14.4114 0
      vertex -14.5 9.5 0
      vertex -11.0451 14.2553 0
    endloop
  endfacet
  facet normal 0 0 -1
    outer loop
      vertex -14.5 -9.5 0
      vertex -12.1791 -13.7216 0
      vertex -12.6871 -13.3526 0
    endloop
  endfacet
  facet normal 0 0 -1
    outer loop
      vertex -11.0451 14.2553 0
      vertex -14.5 9.5 0
      vertex -11.6289 14.0241 0
    endloop
  endfacet
  facet normal 0 0 -1
    outer loop
      vertex -14.5 -9.5 0
      vertex -12.6871 -13.3526 0
      vertex -13.1448 -12.9227 0
    endloop
  endfacet
  facet normal 0 0 -1
    outer loop
      vertex -11.6289 14.0241 0
      vertex -14.5 9.5 0
      vertex -12.1791 13.7216 0
    endloop
  endfacet
  facet normal 0 0 -1
    outer loop
      vertex -14.5 -9.5 0
      vertex -13.1448 -12.9227 0
      vertex -13.5451 -12.4389 0
    endloop
  endfacet
  facet normal 0 0 -1
    outer loop
      vertex -12.1791 13.7216 0
      vertex -14.5 9.5 0
      vertex -12.6871 13.3526 0
    endloop
  endfacet
  facet normal 0 0 -1
    outer loop
      vertex -14.5 -9.5 0
      vertex -13.5451 -12.4389 0
      vertex -13.8815 -11.9088 0
    endloop
  endfacet
  facet normal 0 0 -1
    outer loop
      vertex -12.6871 13.3526 0
      vertex -14.5 9.5 0
      vertex -13.1448 12.9227 0
    endloop
  endfacet
  facet normal 0 0 -1
    outer loop
      vertex -14.5 -9.5 0
      vertex -13.8815 -11.9088 0
      vertex -14.1489 -11.3406 0
    endloop
  endfacet
  facet normal 0 0 -1
    outer loop
      vertex -13.1448 12.9227 0
      vertex -14.5 9.5 0
      vertex -13.5451 12.4389 0
    endloop
  endfacet
  facet normal 0 0 -1
    outer loop
      vertex -14.5 -9.5 0
      vertex -14.1489 -11.3406 0
      vertex -14.3429 -10.7434 0
    endloop
  endfacet
  facet normal 0 0 -1
    outer loop
      vertex -13.5451 12.4389 0
      vertex -14.5 9.5 0
      vertex -13.8815 11.9088 0
    endloop
  endfacet
  facet normal 0 0 -1
    outer loop
      vertex -14.5 -9.5 0
      vertex -14.3429 -10.7434 0
      vertex -14.4606 -10.1267 0
    endloop
  endfacet
  facet normal 0 0 -1
    outer loop
      vertex -13.8815 11.9088 0
      vertex -14.5 9.5 0
      vertex -14.1489 11.3406 0
    endloop
  endfacet
  facet normal 0 0 -1
    outer loop
      vertex -14.1489 11.3406 0
      vertex -14.5 9.5 0
      vertex -14.3429 10.7434 0
    endloop
  endfacet
  facet normal 0 0 -1
    outer loop
      vertex -14.3429 10.7434 0
      vertex -14.5 9.5 0
      vertex -14.4606 10.1267 0
    endloop
  endfacet
  facet normal 0 0 -1
    outer loop
      vertex 19.4606 -0.626666 0
      vertex 19.4606 0.626666 0
      vertex 19.5 0 0
    endloop
  endfacet
  facet normal 0 0 -1
    outer loop
      vertex 19.3429 -1.24345 0
      vertex 19.4606 0.626666 0
      vertex 19.4606 -0.626666 0
    endloop
  endfacet
  facet normal 0 0 -1
    outer loop
      vertex 19.3429 -1.24345 0
      vertex 19.3429 1.24345 0
      vertex 19.4606 0.626666 0
    endloop
  endfacet
  facet normal 0 0 -1
    outer loop
      vertex 19.1489 -1.84062 0
      vertex 19.3429 1.24345 0
      vertex 19.3429 -1.24345 0
    endloop
  endfacet
  facet normal 0 0 -1
    outer loop
      vertex 19.1489 -1.84062 0
      vertex 19.1489 1.84062 0
      vertex 19.3429 1.24345 0
    endloop
  endfacet
  facet normal 0 0 -1
    outer loop
      vertex 18.8815 -2.40877 0
      vertex 19.1489 1.84062 0
      vertex 19.1489 -1.84062 0
    endloop
  endfacet
  facet normal 0 0 -1
    outer loop
      vertex 18.8815 -2.40877 0
      vertex 18.8815 2.40877 0
      vertex 19.1489 1.84062 0
    endloop
  endfacet
  facet normal 0 0 -1
    outer loop
      vertex 18.5451 -2.93893 0
      vertex 18.8815 2.40877 0
      vertex 18.8815 -2.40877 0
    endloop
  endfacet
  facet normal 0 0 -1
    outer loop
      vertex 18.5451 -2.93893 0
      vertex 18.5451 2.93893 0
      vertex 18.8815 2.40877 0
    endloop
  endfacet
  facet normal 0 0 -1
    outer loop
      vertex 18.1448 -3.42274 0
      vertex 18.5451 2.93893 0
      vertex 18.5451 -2.93893 0
    endloop
  endfacet
  facet normal 0 0 -1
    outer loop
      vertex 18.1448 -3.42274 0
      vertex 18.1448 3.42274 0
      vertex 18.5451 2.93893 0
    endloop
  endfacet
  facet normal 0 0 -1
    outer loop
      vertex 17.6871 -3.85257 0
      vertex 18.1448 3.42274 0
      vertex 18.1448 -3.42274 0
    endloop
  endfacet
  facet normal 0 0 -1
    outer loop
      vertex 17.6871 -3.85257 0
      vertex 17.6871 3.85257 0
      vertex 18.1448 3.42274 0
    endloop
  endfacet
  facet normal 0 0 -1
    outer loop
      vertex 17.1791 -4.22164 0
      vertex 17.6871 3.85257 0
      vertex 17.6871 -3.85257 0
    endloop
  endfacet
  facet normal 0 0 -1
    outer loop
      vertex 17.1791 -4.22164 0
      vertex 17.1791 4.22164 0
      vertex 17.6871 3.85257 0
    endloop
  endfacet
  facet normal 0 0 -1
    outer loop
      vertex 16.6289 -4.52413 0
      vertex 17.1791 4.22164 0
      vertex 17.1791 -4.22164 0
    endloop
  endfacet
  facet normal 0 0 -1
    outer loop
      vertex 16.6289 -4.52413 0
      vertex 16.6289 4.52413 0
      vertex 17.1791 4.22164 0
    endloop
  endfacet
  facet normal 0 0 -1
    outer loop
      vertex 16.0451 -4.75528 0
      vertex 16.6289 4.52413 0
      vertex 16.6289 -4.52413 0
    endloop
  endfacet
  facet normal 0 0 -1
    outer loop
      vertex 16.0451 -4.75528 0
      vertex 16.0451 4.75528 0
      vertex 16.6289 4.52413 0
    endloop
  endfacet
  facet normal 0 0 -1
    outer loop
      vertex 14.5 -4.99013 0
      vertex 16.0451 -4.75528 0
      vertex 15.4369 -4.91144 0
    endloop
  endfacet
  facet normal -0 0 -1
    outer loop
      vertex 16.0451 -4.75528 0
      vertex 14.5 -4.99013 0
      vertex 16.0451 4.75528 0
    endloop
  endfacet
  facet normal 0 0 -1
    outer loop
      vertex 14.5 -4.99013 0
      vertex 15.4369 -4.91144 0
      vertex 14.814 -4.99013 0
    endloop
  endfacet
  facet normal 0 0 -1
    outer loop
      vertex 14.5 4.99013 0
      vertex 16.0451 4.75528 0
      vertex 14.5 -4.99013 0
    endloop
  endfacet
  facet normal 0 0 -1
    outer loop
      vertex 16.0451 4.75528 0
      vertex 14.5 4.99013 0
      vertex 15.4369 4.91144 0
    endloop
  endfacet
  facet normal 0 0 -1
    outer loop
      vertex 15.4369 4.91144 0
      vertex 14.5 4.99013 0
      vertex 14.814 4.99013 0
    endloop
  endfacet
  facet normal -0.951076 -0.308956 0
    outer loop
      vertex -14.1489 -11.3406 0
      vertex -14.3429 -10.7434 1
      vertex -14.3429 -10.7434 0
    endloop
  endfacet
  facet normal -0.951076 -0.308956 0
    outer loop
      vertex -14.3429 -10.7434 1
      vertex -14.1489 -11.3406 0
      vertex -14.1489 -11.3406 1
    endloop
  endfacet
  facet normal -0.770462 -0.637486 0
    outer loop
      vertex -13.1448 -12.9227 0
      vertex -13.5451 -12.4389 1
      vertex -13.5451 -12.4389 0
    endloop
  endfacet
  facet normal -0.770462 -0.637486 0
    outer loop
      vertex -13.5451 -12.4389 1
      vertex -13.1448 -12.9227 0
      vertex -13.1448 -12.9227 1
    endloop
  endfacet
  facet normal -0.904811 -0.425812 0
    outer loop
      vertex -13.8815 -11.9088 0
      vertex -14.1489 -11.3406 1
      vertex -14.1489 -11.3406 0
    endloop
  endfacet
  facet normal -0.904811 -0.425812 0
    outer loop
      vertex -14.1489 -11.3406 1
      vertex -13.8815 -11.9088 0
      vertex -13.8815 -11.9088 1
    endloop
  endfacet
  facet normal -0.368203 -0.929745 0
    outer loop
      vertex -11.6289 -14.0241 0
      vertex -11.0451 -14.2553 1
      vertex -11.6289 -14.0241 1
    endloop
  endfacet
  facet normal -0.368203 -0.929745 -0
    outer loop
      vertex -11.0451 -14.2553 1
      vertex -11.6289 -14.0241 0
      vertex -11.0451 -14.2553 0
    endloop
  endfacet
  facet normal -0.684624 -0.728896 0
    outer loop
      vertex -13.1448 -12.9227 0
      vertex -12.6871 -13.3526 1
      vertex -13.1448 -12.9227 1
    endloop
  endfacet
  facet normal -0.684624 -0.728896 -0
    outer loop
      vertex -12.6871 -13.3526 1
      vertex -13.1448 -12.9227 0
      vertex -12.6871 -13.3526 0
    endloop
  endfacet
  facet normal 0.98227 0.187471 0
    outer loop
      vertex 14.4606 10.1267 1
      vertex 14.3429 10.7434 0
      vertex 14.3429 10.7434 1
    endloop
  endfacet
  facet normal 0.98227 0.187471 0
    outer loop
      vertex 14.3429 10.7434 0
      vertex 14.4606 10.1267 1
      vertex 14.4606 10.1267 0
    endloop
  endfacet
  facet normal 0.99803 0.0627451 0
    outer loop
      vertex 14.5 9.5 1
      vertex 14.4606 10.1267 0
      vertex 14.4606 10.1267 1
    endloop
  endfacet
  facet normal 0.99803 0.0627451 0
    outer loop
      vertex 14.4606 10.1267 0
      vertex 14.5 9.5 1
      vertex 14.5 9.5 0
    endloop
  endfacet
  facet normal 0.844336 0.535814 0
    outer loop
      vertex 13.8815 11.9088 1
      vertex 13.5451 12.4389 0
      vertex 13.5451 12.4389 1
    endloop
  endfacet
  facet normal 0.844336 0.535814 0
    outer loop
      vertex 13.5451 12.4389 0
      vertex 13.8815 11.9088 1
      vertex 13.8815 11.9088 0
    endloop
  endfacet
  facet normal 0.904811 0.425812 0
    outer loop
      vertex 14.1489 11.3406 1
      vertex 13.8815 11.9088 0
      vertex 13.8815 11.9088 1
    endloop
  endfacet
  facet normal 0.904811 0.425812 0
    outer loop
      vertex 13.8815 11.9088 0
      vertex 14.1489 11.3406 1
      vertex 14.1489 11.3406 0
    endloop
  endfacet
  facet normal 0.481784 0.87629 -0
    outer loop
      vertex 12.1791 13.7216 0
      vertex 11.6289 14.0241 1
      vertex 12.1791 13.7216 1
    endloop
  endfacet
  facet normal 0.481784 0.87629 0
    outer loop
      vertex 11.6289 14.0241 1
      vertex 12.1791 13.7216 0
      vertex 11.6289 14.0241 0
    endloop
  endfacet
  facet normal 0.684624 0.728896 -0
    outer loop
      vertex 13.1448 12.9227 0
      vertex 12.6871 13.3526 1
      vertex 13.1448 12.9227 1
    endloop
  endfacet
  facet normal 0.684624 0.728896 0
    outer loop
      vertex 12.6871 13.3526 1
      vertex 13.1448 12.9227 0
      vertex 12.6871 13.3526 0
    endloop
  endfacet
  facet normal 0.368203 0.929745 -0
    outer loop
      vertex 11.6289 14.0241 0
      vertex 11.0451 14.2553 1
      vertex 11.6289 14.0241 1
    endloop
  endfacet
  facet normal 0.368203 0.929745 0
    outer loop
      vertex 11.0451 14.2553 1
      vertex 11.6289 14.0241 0
      vertex 11.0451 14.2553 0
    endloop
  endfacet
  facet normal -0.587698 0.80908 0
    outer loop
      vertex -12.1791 13.7216 0
      vertex -12.6871 13.3526 1
      vertex -12.1791 13.7216 1
    endloop
  endfacet
  facet normal -0.587698 0.80908 0
    outer loop
      vertex -12.6871 13.3526 1
      vertex -12.1791 13.7216 0
      vertex -12.6871 13.3526 0
    endloop
  endfacet
  facet normal -0.481784 0.87629 0
    outer loop
      vertex -11.6289 14.0241 0
      vertex -12.1791 13.7216 1
      vertex -11.6289 14.0241 1
    endloop
  endfacet
  facet normal -0.481784 0.87629 0
    outer loop
      vertex -12.1791 13.7216 1
      vertex -11.6289 14.0241 0
      vertex -12.1791 13.7216 0
    endloop
  endfacet
  facet normal -0.98227 0.187471 0
    outer loop
      vertex -14.4606 10.1267 0
      vertex -14.3429 10.7434 1
      vertex -14.3429 10.7434 0
    endloop
  endfacet
  facet normal -0.98227 0.187471 0
    outer loop
      vertex -14.3429 10.7434 1
      vertex -14.4606 10.1267 0
      vertex -14.4606 10.1267 1
    endloop
  endfacet
  facet normal -0.98227 -0.187471 0
    outer loop
      vertex -14.3429 -10.7434 0
      vertex -14.4606 -10.1267 1
      vertex -14.4606 -10.1267 0
    endloop
  endfacet
  facet normal -0.98227 -0.187471 0
    outer loop
      vertex -14.4606 -10.1267 1
      vertex -14.3429 -10.7434 0
      vertex -14.3429 -10.7434 1
    endloop
  endfacet
  facet normal -0.844336 -0.535814 0
    outer loop
      vertex -13.5451 -12.4389 0
      vertex -13.8815 -11.9088 1
      vertex -13.8815 -11.9088 0
    endloop
  endfacet
  facet normal -0.844336 -0.535814 0
    outer loop
      vertex -13.8815 -11.9088 1
      vertex -13.5451 -12.4389 0
      vertex -13.5451 -12.4389 1
    endloop
  endfacet
  facet normal -0.481784 -0.87629 0
    outer loop
      vertex -12.1791 -13.7216 0
      vertex -11.6289 -14.0241 1
      vertex -12.1791 -13.7216 1
    endloop
  endfacet
  facet normal -0.481784 -0.87629 -0
    outer loop
      vertex -11.6289 -14.0241 1
      vertex -12.1791 -13.7216 0
      vertex -11.6289 -14.0241 0
    endloop
  endfacet
  facet normal -0.587698 -0.80908 0
    outer loop
      vertex -12.6871 -13.3526 0
      vertex -12.1791 -13.7216 1
      vertex -12.6871 -13.3526 1
    endloop
  endfacet
  facet normal -0.587698 -0.80908 -0
    outer loop
      vertex -12.1791 -13.7216 1
      vertex -12.6871 -13.3526 0
      vertex -12.1791 -13.7216 0
    endloop
  endfacet
  facet normal 0.770462 -0.637486 0
    outer loop
      vertex 13.1448 -12.9227 1
      vertex 13.5451 -12.4389 0
      vertex 13.5451 -12.4389 1
    endloop
  endfacet
  facet normal 0.770462 -0.637486 0
    outer loop
      vertex 13.5451 -12.4389 0
      vertex 13.1448 -12.9227 1
      vertex 13.1448 -12.9227 0
    endloop
  endfacet
  facet normal 0.368203 -0.929745 0
    outer loop
      vertex 11.0451 -14.2553 0
      vertex 11.6289 -14.0241 1
      vertex 11.0451 -14.2553 1
    endloop
  endfacet
  facet normal 0.368203 -0.929745 0
    outer loop
      vertex 11.6289 -14.0241 1
      vertex 11.0451 -14.2553 0
      vertex 11.6289 -14.0241 0
    endloop
  endfacet
  facet normal 0.587698 0.80908 -0
    outer loop
      vertex 12.6871 13.3526 0
      vertex 12.1791 13.7216 1
      vertex 12.6871 13.3526 1
    endloop
  endfacet
  facet normal 0.587698 0.80908 0
    outer loop
      vertex 12.1791 13.7216 1
      vertex 12.6871 13.3526 0
      vertex 12.1791 13.7216 0
    endloop
  endfacet
  facet normal 0.248601 0.968606 -0
    outer loop
      vertex 11.0451 14.2553 0
      vertex 10.4369 14.4114 1
      vertex 11.0451 14.2553 1
    endloop
  endfacet
  facet normal 0.248601 0.968606 0
    outer loop
      vertex 10.4369 14.4114 1
      vertex 11.0451 14.2553 0
      vertex 10.4369 14.4114 0
    endloop
  endfacet
  facet normal -0.248601 0.968606 0
    outer loop
      vertex -10.4369 14.4114 0
      vertex -11.0451 14.2553 1
      vertex -10.4369 14.4114 1
    endloop
  endfacet
  facet normal -0.248601 0.968606 0
    outer loop
      vertex -11.0451 14.2553 1
      vertex -10.4369 14.4114 0
      vertex -11.0451 14.2553 0
    endloop
  endfacet
  facet normal -0.125338 0.992114 0
    outer loop
      vertex -9.81395 14.4901 0
      vertex -10.4369 14.4114 1
      vertex -9.81395 14.4901 1
    endloop
  endfacet
  facet normal -0.125338 0.992114 0
    outer loop
      vertex -10.4369 14.4114 1
      vertex -9.81395 14.4901 0
      vertex -10.4369 14.4114 0
    endloop
  endfacet
  facet normal -0.904811 0.425812 0
    outer loop
      vertex -14.1489 11.3406 0
      vertex -13.8815 11.9088 1
      vertex -13.8815 11.9088 0
    endloop
  endfacet
  facet normal -0.904811 0.425812 0
    outer loop
      vertex -13.8815 11.9088 1
      vertex -14.1489 11.3406 0
      vertex -14.1489 11.3406 1
    endloop
  endfacet
  facet normal -0.844336 0.535814 0
    outer loop
      vertex -13.8815 11.9088 0
      vertex -13.5451 12.4389 1
      vertex -13.5451 12.4389 0
    endloop
  endfacet
  facet normal -0.844336 0.535814 0
    outer loop
      vertex -13.5451 12.4389 1
      vertex -13.8815 11.9088 0
      vertex -13.8815 11.9088 1
    endloop
  endfacet
  facet normal 0.587698 -0.80908 0
    outer loop
      vertex 12.1791 -13.7216 0
      vertex 12.6871 -13.3526 1
      vertex 12.1791 -13.7216 1
    endloop
  endfacet
  facet normal 0.587698 -0.80908 0
    outer loop
      vertex 12.6871 -13.3526 1
      vertex 12.1791 -13.7216 0
      vertex 12.6871 -13.3526 0
    endloop
  endfacet
  facet normal 0.904811 -0.425812 0
    outer loop
      vertex 13.8815 -11.9088 1
      vertex 14.1489 -11.3406 0
      vertex 14.1489 -11.3406 1
    endloop
  endfacet
  facet normal 0.904811 -0.425812 0
    outer loop
      vertex 14.1489 -11.3406 0
      vertex 13.8815 -11.9088 1
      vertex 13.8815 -11.9088 0
    endloop
  endfacet
  facet normal 0.844336 -0.535814 0
    outer loop
      vertex 13.5451 -12.4389 1
      vertex 13.8815 -11.9088 0
      vertex 13.8815 -11.9088 1
    endloop
  endfacet
  facet normal 0.844336 -0.535814 0
    outer loop
      vertex 13.8815 -11.9088 0
      vertex 13.5451 -12.4389 1
      vertex 13.5451 -12.4389 0
    endloop
  endfacet
  facet normal 0.951076 -0.308956 0
    outer loop
      vertex 14.1489 -11.3406 1
      vertex 14.3429 -10.7434 0
      vertex 14.3429 -10.7434 1
    endloop
  endfacet
  facet normal 0.951076 -0.308956 0
    outer loop
      vertex 14.3429 -10.7434 0
      vertex 14.1489 -11.3406 1
      vertex 14.1489 -11.3406 0
    endloop
  endfacet
  facet normal 0.248601 -0.968606 0
    outer loop
      vertex 10.4369 -14.4114 0
      vertex 11.0451 -14.2553 1
      vertex 10.4369 -14.4114 1
    endloop
  endfacet
  facet normal 0.248601 -0.968606 0
    outer loop
      vertex 11.0451 -14.2553 1
      vertex 10.4369 -14.4114 0
      vertex 11.0451 -14.2553 0
    endloop
  endfacet
  facet normal 0.125338 -0.992114 0
    outer loop
      vertex 9.81395 -14.4901 0
      vertex 10.4369 -14.4114 1
      vertex 9.81395 -14.4901 1
    endloop
  endfacet
  facet normal 0.125338 -0.992114 0
    outer loop
      vertex 10.4369 -14.4114 1
      vertex 9.81395 -14.4901 0
      vertex 10.4369 -14.4114 0
    endloop
  endfacet
  facet normal 0.481784 -0.87629 0
    outer loop
      vertex 11.6289 -14.0241 0
      vertex 12.1791 -13.7216 1
      vertex 11.6289 -14.0241 1
    endloop
  endfacet
  facet normal 0.481784 -0.87629 0
    outer loop
      vertex 12.1791 -13.7216 1
      vertex 11.6289 -14.0241 0
      vertex 12.1791 -13.7216 0
    endloop
  endfacet
  facet normal 0.684624 -0.728896 0
    outer loop
      vertex 12.6871 -13.3526 0
      vertex 13.1448 -12.9227 1
      vertex 12.6871 -13.3526 1
    endloop
  endfacet
  facet normal 0.684624 -0.728896 0
    outer loop
      vertex 13.1448 -12.9227 1
      vertex 12.6871 -13.3526 0
      vertex 13.1448 -12.9227 0
    endloop
  endfacet
  facet normal 0.98227 -0.187471 0
    outer loop
      vertex 14.3429 -10.7434 1
      vertex 14.4606 -10.1267 0
      vertex 14.4606 -10.1267 1
    endloop
  endfacet
  facet normal 0.98227 -0.187471 0
    outer loop
      vertex 14.4606 -10.1267 0
      vertex 14.3429 -10.7434 1
      vertex 14.3429 -10.7434 0
    endloop
  endfacet
  facet normal -1 0 0
    outer loop
      vertex -13.75 -7.75 1
      vertex -13.75 7.75 2
      vertex -13.75 7.75 1
    endloop
  endfacet
  facet normal -1 -0 0
    outer loop
      vertex -13.75 7.75 2
      vertex -13.75 -7.75 1
      vertex -13.75 -7.75 2
    endloop
  endfacet
  facet normal -0.770522 0.637413 0
    outer loop
      vertex -12.6041 11.2767 1
      vertex -12.1238 11.8573 2
      vertex -12.1238 11.8573 1
    endloop
  endfacet
  facet normal -0.770522 0.637413 0
    outer loop
      vertex -12.1238 11.8573 2
      vertex -12.6041 11.2767 1
      vertex -12.6041 11.2767 2
    endloop
  endfacet
  facet normal 0 0 1
    outer loop
      vertex 8.12674 13.7382 2
      vertex 13.75 7.75 2
      vertex 13.7027 8.502 2
    endloop
  endfacet
  facet normal 0 0 1
    outer loop
      vertex -13.75 7.75 2
      vertex 13.75 7.75 2
      vertex 8.12674 13.7382 2
    endloop
  endfacet
  facet normal 0 0 1
    outer loop
      vertex 8.12674 13.7382 2
      vertex 13.7027 8.502 2
      vertex 13.5615 9.24214 2
    endloop
  endfacet
  facet normal 0 0 1
    outer loop
      vertex 13.75 7.75 2
      vertex -13.75 7.75 2
      vertex 13.75 -7.75 2
    endloop
  endfacet
  facet normal 0 0 1
    outer loop
      vertex 8.12674 13.7382 2
      vertex 13.5615 9.24214 2
      vertex 13.3287 9.95875 2
    endloop
  endfacet
  facet normal 0 0 1
    outer loop
      vertex 13.75 -7.75 2
      vertex 8.12674 -13.7382 2
      vertex 13.7027 -8.502 2
    endloop
  endfacet
  facet normal 0 0 1
    outer loop
      vertex 8.12674 13.7382 2
      vertex 13.3287 9.95875 2
      vertex 13.0078 10.6405 2
    endloop
  endfacet
  facet normal 0 0 1
    outer loop
      vertex 13.7027 -8.502 2
      vertex 8.12674 -13.7382 2
      vertex 13.5615 -9.24214 2
    endloop
  endfacet
  facet normal 0 0 1
    outer loop
      vertex 8.12674 13.7382 2
      vertex 13.0078 10.6405 2
      vertex 12.6041 11.2767 2
    endloop
  endfacet
  facet normal 0 0 1
    outer loop
      vertex 13.5615 -9.24214 2
      vertex 8.12674 -13.7382 2
      vertex 13.3287 -9.95875 2
    endloop
  endfacet
  facet normal 0 0 1
    outer loop
      vertex 8.12674 13.7382 2
      vertex 12.6041 11.2767 2
      vertex 12.1238 11.8573 2
    endloop
  endfacet
  facet normal 0 0 1
    outer loop
      vertex 13.3287 -9.95875 2
      vertex 8.12674 -13.7382 2
      vertex 13.0078 -10.6405 2
    endloop
  endfacet
  facet normal 0 0 1
    outer loop
      vertex 8.12674 13.7382 2
      vertex 12.1238 11.8573 2
      vertex 11.5745 12.3731 2
    endloop
  endfacet
  facet normal 0 0 1
    outer loop
      vertex 13.0078 -10.6405 2
      vertex 8.12674 -13.7382 2
      vertex 12.6041 -11.2767 2
    endloop
  endfacet
  facet normal 0 0 1
    outer loop
      vertex 8.12674 13.7382 2
      vertex 11.5745 12.3731 2
      vertex 10.965 12.816 2
    endloop
  endfacet
  facet normal 0 0 1
    outer loop
      vertex 12.6041 -11.2767 2
      vertex 8.12674 -13.7382 2
      vertex 12.1238 -11.8573 2
    endloop
  endfacet
  facet normal 0 0 1
    outer loop
      vertex 8.12674 13.7382 2
      vertex 10.965 12.816 2
      vertex 10.3047 13.179 2
    endloop
  endfacet
  facet normal 0 0 1
    outer loop
      vertex 12.1238 -11.8573 2
      vertex 8.12674 -13.7382 2
      vertex 11.5745 -12.3731 2
    endloop
  endfacet
  facet normal 0 0 1
    outer loop
      vertex 8.12674 13.7382 2
      vertex 10.3047 13.179 2
      vertex 9.6041 13.4563 2
    endloop
  endfacet
  facet normal 0 0 1
    outer loop
      vertex 11.5745 -12.3731 2
      vertex 8.12674 -13.7382 2
      vertex 10.965 -12.816 2
    endloop
  endfacet
  facet normal 0 0 1
    outer loop
      vertex 8.12674 13.7382 2
      vertex 9.6041 13.4563 2
      vertex 8.87429 13.6437 2
    endloop
  endfacet
  facet normal 0 0 1
    outer loop
      vertex 10.965 -12.816 2
      vertex 8.12674 -13.7382 2
      vertex 10.3047 -13.179 2
    endloop
  endfacet
  facet normal 0 0 1
    outer loop
      vertex 10.3047 -13.179 2
      vertex 8.12674 -13.7382 2
      vertex 9.6041 -13.4563 2
    endloop
  endfacet
  facet normal 0 0 1
    outer loop
      vertex 9.6041 -13.4563 2
      vertex 8.12674 -13.7382 2
      vertex 8.87429 -13.6437 2
    endloop
  endfacet
  facet normal 0 0 1
    outer loop
      vertex -13.75 7.75 2
      vertex 8.12674 13.7382 2
      vertex -8.12674 13.7382 2
    endloop
  endfacet
  facet normal 0 0 1
    outer loop
      vertex -13.75 -7.75 2
      vertex 13.75 -7.75 2
      vertex -13.75 7.75 2
    endloop
  endfacet
  facet normal 0 0 1
    outer loop
      vertex -13.75 7.75 2
      vertex -8.12674 13.7382 2
      vertex -8.87429 13.6437 2
    endloop
  endfacet
  facet normal 0 0 1
    outer loop
      vertex 13.75 -7.75 2
      vertex -13.75 -7.75 2
      vertex 8.12674 -13.7382 2
    endloop
  endfacet
  facet normal 0 0 1
    outer loop
      vertex -13.75 7.75 2
      vertex -8.87429 13.6437 2
      vertex -9.6041 13.4563 2
    endloop
  endfacet
  facet normal 0 0 1
    outer loop
      vertex 8.12674 -13.7382 2
      vertex -13.75 -7.75 2
      vertex -8.12674 -13.7382 2
    endloop
  endfacet
  facet normal 0 0 1
    outer loop
      vertex -13.75 7.75 2
      vertex -9.6041 13.4563 2
      vertex -10.3047 13.179 2
    endloop
  endfacet
  facet normal 0 0 1
    outer loop
      vertex -8.12674 -13.7382 2
      vertex -13.75 -7.75 2
      vertex -8.87429 -13.6437 2
    endloop
  endfacet
  facet normal 0 0 1
    outer loop
      vertex -13.75 7.75 2
      vertex -10.3047 13.179 2
      vertex -10.965 12.816 2
    endloop
  endfacet
  facet normal 0 0 1
    outer loop
      vertex -8.87429 -13.6437 2
      vertex -13.75 -7.75 2
      vertex -9.6041 -13.4563 2
    endloop
  endfacet
  facet normal 0 0 1
    outer loop
      vertex -13.75 7.75 2
      vertex -10.965 12.816 2
      vertex -11.5745 12.3731 2
    endloop
  endfacet
  facet normal 0 0 1
    outer loop
      vertex -9.6041 -13.4563 2
      vertex -13.75 -7.75 2
      vertex -10.3047 -13.179 2
    endloop
  endfacet
  facet normal 0 0 1
    outer loop
      vertex -13.75 7.75 2
      vertex -11.5745 12.3731 2
      vertex -12.1238 11.8573 2
    endloop
  endfacet
  facet normal 0 0 1
    outer loop
      vertex -10.3047 -13.179 2
      vertex -13.75 -7.75 2
      vertex -10.965 -12.816 2
    endloop
  endfacet
  facet normal 0 0 1
    outer loop
      vertex -13.75 7.75 2
      vertex -12.1238 11.8573 2
      vertex -12.6041 11.2767 2
    endloop
  endfacet
  facet normal 0 0 1
    outer loop
      vertex -10.965 -12.816 2
      vertex -13.75 -7.75 2
      vertex -11.5745 -12.3731 2
    endloop
  endfacet
  facet normal 0 0 1
    outer loop
      vertex -13.75 7.75 2
      vertex -12.6041 11.2767 2
      vertex -13.0078 10.6405 2
    endloop
  endfacet
  facet normal 0 0 1
    outer loop
      vertex -11.5745 -12.3731 2
      vertex -13.75 -7.75 2
      vertex -12.1238 -11.8573 2
    endloop
  endfacet
  facet normal 0 0 1
    outer loop
      vertex -13.75 7.75 2
      vertex -13.0078 10.6405 2
      vertex -13.3287 9.95875 2
    endloop
  endfacet
  facet normal 0 0 1
    outer loop
      vertex -12.1238 -11.8573 2
      vertex -13.75 -7.75 2
      vertex -12.6041 -11.2767 2
    endloop
  endfacet
  facet normal 0 0 1
    outer loop
      vertex -13.75 7.75 2
      vertex -13.3287 9.95875 2
      vertex -13.5615 9.24214 2
    endloop
  endfacet
  facet normal 0 0 1
    outer loop
      vertex -12.6041 -11.2767 2
      vertex -13.75 -7.75 2
      vertex -13.0078 -10.6405 2
    endloop
  endfacet
  facet normal 0 0 1
    outer loop
      vertex -13.75 7.75 2
      vertex -13.5615 9.24214 2
      vertex -13.7027 8.502 2
    endloop
  endfacet
  facet normal 0 0 1
    outer loop
      vertex -13.0078 -10.6405 2
      vertex -13.75 -7.75 2
      vertex -13.3287 -9.95875 2
    endloop
  endfacet
  facet normal 0 0 1
    outer loop
      vertex -13.3287 -9.95875 2
      vertex -13.75 -7.75 2
      vertex -13.5615 -9.24214 2
    endloop
  endfacet
  facet normal 0 0 1
    outer loop
      vertex -13.5615 -9.24214 2
      vertex -13.75 -7.75 2
      vertex -13.7027 -8.502 2
    endloop
  endfacet
  facet normal -0.125415 -0.992104 0
    outer loop
      vertex -8.87429 -13.6437 1
      vertex -8.12674 -13.7382 2
      vertex -8.87429 -13.6437 2
    endloop
  endfacet
  facet normal -0.125415 -0.992104 -0
    outer loop
      vertex -8.12674 -13.7382 2
      vertex -8.87429 -13.6437 1
      vertex -8.12674 -13.7382 1
    endloop
  endfacet
  facet normal 0.982285 -0.187395 0
    outer loop
      vertex 13.5615 -9.24214 2
      vertex 13.7027 -8.502 1
      vertex 13.7027 -8.502 2
    endloop
  endfacet
  facet normal 0.982285 -0.187395 0
    outer loop
      vertex 13.7027 -8.502 1
      vertex 13.5615 -9.24214 2
      vertex 13.5615 -9.24214 1
    endloop
  endfacet
  facet normal 0 -1 0
    outer loop
      vertex -8.12674 -13.7382 1
      vertex 8.12674 -13.7382 2
      vertex -8.12674 -13.7382 2
    endloop
  endfacet
  facet normal 0 -1 -0
    outer loop
      vertex 8.12674 -13.7382 2
      vertex -8.12674 -13.7382 1
      vertex 8.12674 -13.7382 1
    endloop
  endfacet
  facet normal 0.998028 -0.0627749 0
    outer loop
      vertex 13.7027 -8.502 2
      vertex 13.75 -7.75 1
      vertex 13.75 -7.75 2
    endloop
  endfacet
  facet normal 0.998028 -0.0627749 0
    outer loop
      vertex 13.75 -7.75 1
      vertex 13.7027 -8.502 2
      vertex 13.7027 -8.502 1
    endloop
  endfacet
  facet normal 0.125415 0.992104 -0
    outer loop
      vertex 8.87429 13.6437 1
      vertex 8.12674 13.7382 2
      vertex 8.87429 13.6437 2
    endloop
  endfacet
  facet normal 0.125415 0.992104 0
    outer loop
      vertex 8.12674 13.7382 2
      vertex 8.87429 13.6437 1
      vertex 8.12674 13.7382 1
    endloop
  endfacet
  facet normal 0 1 -0
    outer loop
      vertex 8.12674 13.7382 1
      vertex -8.12674 13.7382 2
      vertex 8.12674 13.7382 2
    endloop
  endfacet
  facet normal 0 1 0
    outer loop
      vertex -8.12674 13.7382 2
      vertex 8.12674 13.7382 1
      vertex -8.12674 13.7382 1
    endloop
  endfacet
  facet normal -0.587848 -0.808971 0
    outer loop
      vertex -11.5745 -12.3731 1
      vertex -10.965 -12.816 2
      vertex -11.5745 -12.3731 2
    endloop
  endfacet
  facet normal -0.587848 -0.808971 -0
    outer loop
      vertex -10.965 -12.816 2
      vertex -11.5745 -12.3731 1
      vertex -10.965 -12.816 1
    endloop
  endfacet
  facet normal 0.125415 -0.992104 0
    outer loop
      vertex 8.12674 -13.7382 1
      vertex 8.87429 -13.6437 2
      vertex 8.12674 -13.7382 2
    endloop
  endfacet
  facet normal 0.125415 -0.992104 0
    outer loop
      vertex 8.87429 -13.6437 2
      vertex 8.12674 -13.7382 1
      vertex 8.87429 -13.6437 1
    endloop
  endfacet
  facet normal 0.951072 0.308968 0
    outer loop
      vertex 13.5615 9.24214 2
      vertex 13.3287 9.95875 1
      vertex 13.3287 9.95875 2
    endloop
  endfacet
  facet normal 0.951072 0.308968 0
    outer loop
      vertex 13.3287 9.95875 1
      vertex 13.5615 9.24214 2
      vertex 13.5615 9.24214 1
    endloop
  endfacet
  facet normal 0.684528 0.728987 -0
    outer loop
      vertex 12.1238 11.8573 1
      vertex 11.5745 12.3731 2
      vertex 12.1238 11.8573 2
    endloop
  endfacet
  facet normal 0.684528 0.728987 0
    outer loop
      vertex 11.5745 12.3731 2
      vertex 12.1238 11.8573 1
      vertex 11.5745 12.3731 1
    endloop
  endfacet
  facet normal 0.982285 0.187395 0
    outer loop
      vertex 13.7027 8.502 2
      vertex 13.5615 9.24214 1
      vertex 13.5615 9.24214 2
    endloop
  endfacet
  facet normal 0.982285 0.187395 0
    outer loop
      vertex 13.5615 9.24214 1
      vertex 13.7027 8.502 2
      vertex 13.7027 8.502 1
    endloop
  endfacet
  facet normal 1 -0 0
    outer loop
      vertex 13.75 -7.75 2
      vertex 13.75 7.75 1
      vertex 13.75 7.75 2
    endloop
  endfacet
  facet normal 1 0 0
    outer loop
      vertex 13.75 7.75 1
      vertex 13.75 -7.75 2
      vertex 13.75 -7.75 1
    endloop
  endfacet
  facet normal -0.587848 0.808971 0
    outer loop
      vertex -10.965 12.816 1
      vertex -11.5745 12.3731 2
      vertex -10.965 12.816 2
    endloop
  endfacet
  facet normal -0.587848 0.808971 0
    outer loop
      vertex -11.5745 12.3731 2
      vertex -10.965 12.816 1
      vertex -11.5745 12.3731 1
    endloop
  endfacet
  facet normal -0.368025 0.929816 0
    outer loop
      vertex -9.6041 13.4563 1
      vertex -10.3047 13.179 2
      vertex -9.6041 13.4563 2
    endloop
  endfacet
  facet normal -0.368025 0.929816 0
    outer loop
      vertex -10.3047 13.179 2
      vertex -9.6041 13.4563 1
      vertex -10.3047 13.179 1
    endloop
  endfacet
  facet normal -0.951072 0.308968 0
    outer loop
      vertex -13.5615 9.24214 1
      vertex -13.3287 9.95875 2
      vertex -13.3287 9.95875 1
    endloop
  endfacet
  facet normal -0.951072 0.308968 0
    outer loop
      vertex -13.3287 9.95875 2
      vertex -13.5615 9.24214 1
      vertex -13.5615 9.24214 2
    endloop
  endfacet
  facet normal -0.951072 -0.308968 0
    outer loop
      vertex -13.3287 -9.95875 1
      vertex -13.5615 -9.24214 2
      vertex -13.5615 -9.24214 1
    endloop
  endfacet
  facet normal -0.951072 -0.308968 0
    outer loop
      vertex -13.5615 -9.24214 2
      vertex -13.3287 -9.95875 1
      vertex -13.3287 -9.95875 2
    endloop
  endfacet
  facet normal -0.998028 -0.0627749 0
    outer loop
      vertex -13.7027 -8.502 1
      vertex -13.75 -7.75 2
      vertex -13.75 -7.75 1
    endloop
  endfacet
  facet normal -0.998028 -0.0627749 0
    outer loop
      vertex -13.75 -7.75 2
      vertex -13.7027 -8.502 1
      vertex -13.7027 -8.502 2
    endloop
  endfacet
  facet normal -0.770522 -0.637413 0
    outer loop
      vertex -12.1238 -11.8573 1
      vertex -12.6041 -11.2767 2
      vertex -12.6041 -11.2767 1
    endloop
  endfacet
  facet normal -0.770522 -0.637413 0
    outer loop
      vertex -12.6041 -11.2767 2
      vertex -12.1238 -11.8573 1
      vertex -12.1238 -11.8573 2
    endloop
  endfacet
  facet normal -0.248711 -0.968578 0
    outer loop
      vertex -9.6041 -13.4563 1
      vertex -8.87429 -13.6437 2
      vertex -9.6041 -13.4563 2
    endloop
  endfacet
  facet normal -0.248711 -0.968578 -0
    outer loop
      vertex -8.87429 -13.6437 2
      vertex -9.6041 -13.4563 1
      vertex -8.87429 -13.6437 1
    endloop
  endfacet
  facet normal -0.481751 -0.876308 0
    outer loop
      vertex -10.965 -12.816 1
      vertex -10.3047 -13.179 2
      vertex -10.965 -12.816 2
    endloop
  endfacet
  facet normal -0.481751 -0.876308 -0
    outer loop
      vertex -10.3047 -13.179 2
      vertex -10.965 -12.816 1
      vertex -10.3047 -13.179 1
    endloop
  endfacet
  facet normal 0.90478 0.42588 0
    outer loop
      vertex 13.3287 9.95875 2
      vertex 13.0078 10.6405 1
      vertex 13.0078 10.6405 2
    endloop
  endfacet
  facet normal 0.90478 0.42588 0
    outer loop
      vertex 13.0078 10.6405 1
      vertex 13.3287 9.95875 2
      vertex 13.3287 9.95875 1
    endloop
  endfacet
  facet normal 0.770522 0.637413 0
    outer loop
      vertex 12.6041 11.2767 2
      vertex 12.1238 11.8573 1
      vertex 12.1238 11.8573 2
    endloop
  endfacet
  facet normal 0.770522 0.637413 0
    outer loop
      vertex 12.1238 11.8573 1
      vertex 12.6041 11.2767 2
      vertex 12.6041 11.2767 1
    endloop
  endfacet
  facet normal 0.587848 0.808971 -0
    outer loop
      vertex 11.5745 12.3731 1
      vertex 10.965 12.816 2
      vertex 11.5745 12.3731 2
    endloop
  endfacet
  facet normal 0.587848 0.808971 0
    outer loop
      vertex 10.965 12.816 2
      vertex 11.5745 12.3731 1
      vertex 10.965 12.816 1
    endloop
  endfacet
  facet normal 0.248711 0.968578 -0
    outer loop
      vertex 9.6041 13.4563 1
      vertex 8.87429 13.6437 2
      vertex 9.6041 13.4563 2
    endloop
  endfacet
  facet normal 0.248711 0.968578 0
    outer loop
      vertex 8.87429 13.6437 2
      vertex 9.6041 13.4563 1
      vertex 8.87429 13.6437 1
    endloop
  endfacet
  facet normal 0.368025 0.929816 -0
    outer loop
      vertex 10.3047 13.179 1
      vertex 9.6041 13.4563 2
      vertex 10.3047 13.179 2
    endloop
  endfacet
  facet normal 0.368025 0.929816 0
    outer loop
      vertex 9.6041 13.4563 2
      vertex 10.3047 13.179 1
      vertex 9.6041 13.4563 1
    endloop
  endfacet
  facet normal 0.481751 0.876308 -0
    outer loop
      vertex 10.965 12.816 1
      vertex 10.3047 13.179 2
      vertex 10.965 12.816 2
    endloop
  endfacet
  facet normal 0.481751 0.876308 0
    outer loop
      vertex 10.3047 13.179 2
      vertex 10.965 12.816 1
      vertex 10.3047 13.179 1
    endloop
  endfacet
  facet normal 0.998028 0.0627749 0
    outer loop
      vertex 13.75 7.75 2
      vertex 13.7027 8.502 1
      vertex 13.7027 8.502 2
    endloop
  endfacet
  facet normal 0.998028 0.0627749 0
    outer loop
      vertex 13.7027 8.502 1
      vertex 13.75 7.75 2
      vertex 13.75 7.75 1
    endloop
  endfacet
  facet normal 0.684528 -0.728987 0
    outer loop
      vertex 11.5745 -12.3731 1
      vertex 12.1238 -11.8573 2
      vertex 11.5745 -12.3731 2
    endloop
  endfacet
  facet normal 0.684528 -0.728987 0
    outer loop
      vertex 12.1238 -11.8573 2
      vertex 11.5745 -12.3731 1
      vertex 12.1238 -11.8573 1
    endloop
  endfacet
  facet normal -0.684528 0.728987 0
    outer loop
      vertex -11.5745 12.3731 1
      vertex -12.1238 11.8573 2
      vertex -11.5745 12.3731 2
    endloop
  endfacet
  facet normal -0.684528 0.728987 0
    outer loop
      vertex -12.1238 11.8573 2
      vertex -11.5745 12.3731 1
      vertex -12.1238 11.8573 1
    endloop
  endfacet
  facet normal -0.481751 0.876308 0
    outer loop
      vertex -10.3047 13.179 1
      vertex -10.965 12.816 2
      vertex -10.3047 13.179 2
    endloop
  endfacet
  facet normal -0.481751 0.876308 0
    outer loop
      vertex -10.965 12.816 2
      vertex -10.3047 13.179 1
      vertex -10.965 12.816 1
    endloop
  endfacet
  facet normal -0.125415 0.992104 0
    outer loop
      vertex -8.12674 13.7382 1
      vertex -8.87429 13.6437 2
      vertex -8.12674 13.7382 2
    endloop
  endfacet
  facet normal -0.125415 0.992104 0
    outer loop
      vertex -8.87429 13.6437 2
      vertex -8.12674 13.7382 1
      vertex -8.87429 13.6437 1
    endloop
  endfacet
  facet normal -0.90478 0.42588 0
    outer loop
      vertex -13.3287 9.95875 1
      vertex -13.0078 10.6405 2
      vertex -13.0078 10.6405 1
    endloop
  endfacet
  facet normal -0.90478 0.42588 0
    outer loop
      vertex -13.0078 10.6405 2
      vertex -13.3287 9.95875 1
      vertex -13.3287 9.95875 2
    endloop
  endfacet
  facet normal -0.844355 0.535784 0
    outer loop
      vertex -13.0078 10.6405 1
      vertex -12.6041 11.2767 2
      vertex -12.6041 11.2767 1
    endloop
  endfacet
  facet normal -0.844355 0.535784 0
    outer loop
      vertex -12.6041 11.2767 2
      vertex -13.0078 10.6405 1
      vertex -13.0078 10.6405 2
    endloop
  endfacet
  facet normal -0.998028 0.0627749 0
    outer loop
      vertex -13.75 7.75 1
      vertex -13.7027 8.502 2
      vertex -13.7027 8.502 1
    endloop
  endfacet
  facet normal -0.998028 0.0627749 0
    outer loop
      vertex -13.7027 8.502 2
      vertex -13.75 7.75 1
      vertex -13.75 7.75 2
    endloop
  endfacet
  facet normal -0.982285 -0.187395 0
    outer loop
      vertex -13.5615 -9.24214 1
      vertex -13.7027 -8.502 2
      vertex -13.7027 -8.502 1
    endloop
  endfacet
  facet normal -0.982285 -0.187395 0
    outer loop
      vertex -13.7027 -8.502 2
      vertex -13.5615 -9.24214 1
      vertex -13.5615 -9.24214 2
    endloop
  endfacet
  facet normal -0.90478 -0.42588 0
    outer loop
      vertex -13.0078 -10.6405 1
      vertex -13.3287 -9.95875 2
      vertex -13.3287 -9.95875 1
    endloop
  endfacet
  facet normal -0.90478 -0.42588 0
    outer loop
      vertex -13.3287 -9.95875 2
      vertex -13.0078 -10.6405 1
      vertex -13.0078 -10.6405 2
    endloop
  endfacet
  facet normal -0.844355 -0.535784 0
    outer loop
      vertex -12.6041 -11.2767 1
      vertex -13.0078 -10.6405 2
      vertex -13.0078 -10.6405 1
    endloop
  endfacet
  facet normal -0.844355 -0.535784 0
    outer loop
      vertex -13.0078 -10.6405 2
      vertex -12.6041 -11.2767 1
      vertex -12.6041 -11.2767 2
    endloop
  endfacet
  facet normal -0.684528 -0.728987 0
    outer loop
      vertex -12.1238 -11.8573 1
      vertex -11.5745 -12.3731 2
      vertex -12.1238 -11.8573 2
    endloop
  endfacet
  facet normal -0.684528 -0.728987 -0
    outer loop
      vertex -11.5745 -12.3731 2
      vertex -12.1238 -11.8573 1
      vertex -11.5745 -12.3731 1
    endloop
  endfacet
  facet normal -0.368025 -0.929816 0
    outer loop
      vertex -10.3047 -13.179 1
      vertex -9.6041 -13.4563 2
      vertex -10.3047 -13.179 2
    endloop
  endfacet
  facet normal -0.368025 -0.929816 -0
    outer loop
      vertex -9.6041 -13.4563 2
      vertex -10.3047 -13.179 1
      vertex -9.6041 -13.4563 1
    endloop
  endfacet
  facet normal 0.844355 0.535784 0
    outer loop
      vertex 13.0078 10.6405 2
      vertex 12.6041 11.2767 1
      vertex 12.6041 11.2767 2
    endloop
  endfacet
  facet normal 0.844355 0.535784 0
    outer loop
      vertex 12.6041 11.2767 1
      vertex 13.0078 10.6405 2
      vertex 13.0078 10.6405 1
    endloop
  endfacet
  facet normal 0.368025 -0.929816 0
    outer loop
      vertex 9.6041 -13.4563 1
      vertex 10.3047 -13.179 2
      vertex 9.6041 -13.4563 2
    endloop
  endfacet
  facet normal 0.368025 -0.929816 0
    outer loop
      vertex 10.3047 -13.179 2
      vertex 9.6041 -13.4563 1
      vertex 10.3047 -13.179 1
    endloop
  endfacet
  facet normal 0.587848 -0.808971 0
    outer loop
      vertex 10.965 -12.816 1
      vertex 11.5745 -12.3731 2
      vertex 10.965 -12.816 2
    endloop
  endfacet
  facet normal 0.587848 -0.808971 0
    outer loop
      vertex 11.5745 -12.3731 2
      vertex 10.965 -12.816 1
      vertex 11.5745 -12.3731 1
    endloop
  endfacet
  facet normal 0.951072 -0.308968 0
    outer loop
      vertex 13.3287 -9.95875 2
      vertex 13.5615 -9.24214 1
      vertex 13.5615 -9.24214 2
    endloop
  endfacet
  facet normal 0.951072 -0.308968 0
    outer loop
      vertex 13.5615 -9.24214 1
      vertex 13.3287 -9.95875 2
      vertex 13.3287 -9.95875 1
    endloop
  endfacet
  facet normal -0.248711 0.968578 0
    outer loop
      vertex -8.87429 13.6437 1
      vertex -9.6041 13.4563 2
      vertex -8.87429 13.6437 2
    endloop
  endfacet
  facet normal -0.248711 0.968578 0
    outer loop
      vertex -9.6041 13.4563 2
      vertex -8.87429 13.6437 1
      vertex -9.6041 13.4563 1
    endloop
  endfacet
  facet normal -0.982285 0.187395 0
    outer loop
      vertex -13.7027 8.502 1
      vertex -13.5615 9.24214 2
      vertex -13.5615 9.24214 1
    endloop
  endfacet
  facet normal -0.982285 0.187395 0
    outer loop
      vertex -13.5615 9.24214 2
      vertex -13.7027 8.502 1
      vertex -13.7027 8.502 2
    endloop
  endfacet
  facet normal 0.248711 -0.968578 0
    outer loop
      vertex 8.87429 -13.6437 1
      vertex 9.6041 -13.4563 2
      vertex 8.87429 -13.6437 2
    endloop
  endfacet
  facet normal 0.248711 -0.968578 0
    outer loop
      vertex 9.6041 -13.4563 2
      vertex 8.87429 -13.6437 1
      vertex 9.6041 -13.4563 1
    endloop
  endfacet
  facet normal 0.481751 -0.876308 0
    outer loop
      vertex 10.3047 -13.179 1
      vertex 10.965 -12.816 2
      vertex 10.3047 -13.179 2
    endloop
  endfacet
  facet normal 0.481751 -0.876308 0
    outer loop
      vertex 10.965 -12.816 2
      vertex 10.3047 -13.179 1
      vertex 10.965 -12.816 1
    endloop
  endfacet
  facet normal 0.770522 -0.637413 0
    outer loop
      vertex 12.1238 -11.8573 2
      vertex 12.6041 -11.2767 1
      vertex 12.6041 -11.2767 2
    endloop
  endfacet
  facet normal 0.770522 -0.637413 0
    outer loop
      vertex 12.6041 -11.2767 1
      vertex 12.1238 -11.8573 2
      vertex 12.1238 -11.8573 1
    endloop
  endfacet
  facet normal 0.90478 -0.42588 0
    outer loop
      vertex 13.0078 -10.6405 2
      vertex 13.3287 -9.95875 1
      vertex 13.3287 -9.95875 2
    endloop
  endfacet
  facet normal 0.90478 -0.42588 0
    outer loop
      vertex 13.3287 -9.95875 1
      vertex 13.0078 -10.6405 2
      vertex 13.0078 -10.6405 1
    endloop
  endfacet
  facet normal 0.844355 -0.535784 0
    outer loop
      vertex 12.6041 -11.2767 2
      vertex 13.0078 -10.6405 1
      vertex 13.0078 -10.6405 2
    endloop
  endfacet
  facet normal 0.844355 -0.535784 0
    outer loop
      vertex 13.0078 -10.6405 1
      vertex 12.6041 -11.2767 2
      vertex 12.6041 -11.2767 1
    endloop
  endfacet
  facet normal 0.998029 0.0627485 0
    outer loop
      vertex 19.5 0 1
      vertex 19.4606 0.626666 0
      vertex 19.4606 0.626666 1
    endloop
  endfacet
  facet normal 0.998029 0.0627485 0
    outer loop
      vertex 19.4606 0.626666 0
      vertex 19.5 0 1
      vertex 19.5 0 0
    endloop
  endfacet
  facet normal 0.684565 0.728952 -0
    outer loop
      vertex 18.1448 3.42274 0
      vertex 17.6871 3.85257 1
      vertex 18.1448 3.42274 1
    endloop
  endfacet
  facet normal 0.684565 0.728952 0
    outer loop
      vertex 17.6871 3.85257 1
      vertex 18.1448 3.42274 0
      vertex 17.6871 3.85257 0
    endloop
  endfacet
  facet normal 0.904797 0.425843 0
    outer loop
      vertex 19.1489 1.84062 1
      vertex 18.8815 2.40877 0
      vertex 18.8815 2.40877 1
    endloop
  endfacet
  facet normal 0.904797 0.425843 0
    outer loop
      vertex 18.8815 2.40877 0
      vertex 19.1489 1.84062 1
      vertex 19.1489 1.84062 0
    endloop
  endfacet
  facet normal 0.982275 0.187446 0
    outer loop
      vertex 19.4606 0.626666 1
      vertex 19.3429 1.24345 0
      vertex 19.3429 1.24345 1
    endloop
  endfacet
  facet normal 0.982275 0.187446 0
    outer loop
      vertex 19.3429 1.24345 0
      vertex 19.4606 0.626666 1
      vertex 19.4606 0.626666 0
    endloop
  endfacet
  facet normal 0.368135 0.929773 -0
    outer loop
      vertex 16.6289 4.52413 0
      vertex 16.0451 4.75528 1
      vertex 16.6289 4.52413 1
    endloop
  endfacet
  facet normal 0.368135 0.929773 0
    outer loop
      vertex 16.0451 4.75528 1
      vertex 16.6289 4.52413 0
      vertex 16.0451 4.75528 0
    endloop
  endfacet
  facet normal 0.125332 0.992115 -0
    outer loop
      vertex 15.4369 4.91144 0
      vertex 14.814 4.99013 1
      vertex 15.4369 4.91144 1
    endloop
  endfacet
  facet normal 0.125332 0.992115 0
    outer loop
      vertex 14.814 4.99013 1
      vertex 15.4369 4.91144 0
      vertex 14.814 4.99013 0
    endloop
  endfacet
  facet normal 0.587771 0.809027 -0
    outer loop
      vertex 17.6871 3.85257 0
      vertex 17.1791 4.22164 1
      vertex 17.6871 3.85257 1
    endloop
  endfacet
  facet normal 0.587771 0.809027 0
    outer loop
      vertex 17.1791 4.22164 1
      vertex 17.6871 3.85257 0
      vertex 17.1791 4.22164 0
    endloop
  endfacet
  facet normal 0.998029 -0.0627485 0
    outer loop
      vertex 19.4606 -0.626666 1
      vertex 19.5 0 0
      vertex 19.5 0 1
    endloop
  endfacet
  facet normal 0.998029 -0.0627485 0
    outer loop
      vertex 19.5 0 0
      vertex 19.4606 -0.626666 1
      vertex 19.4606 -0.626666 0
    endloop
  endfacet
  facet normal 0.248691 -0.968583 0
    outer loop
      vertex 15.4369 -4.91144 0
      vertex 16.0451 -4.75528 1
      vertex 15.4369 -4.91144 1
    endloop
  endfacet
  facet normal 0.248691 -0.968583 0
    outer loop
      vertex 16.0451 -4.75528 1
      vertex 15.4369 -4.91144 0
      vertex 16.0451 -4.75528 0
    endloop
  endfacet
  facet normal 0.951072 0.30897 0
    outer loop
      vertex 19.3429 1.24345 1
      vertex 19.1489 1.84062 0
      vertex 19.1489 1.84062 1
    endloop
  endfacet
  facet normal 0.951072 0.30897 0
    outer loop
      vertex 19.1489 1.84062 0
      vertex 19.3429 1.24345 1
      vertex 19.3429 1.24345 0
    endloop
  endfacet
  facet normal 0.770468 0.637478 0
    outer loop
      vertex 18.5451 2.93893 1
      vertex 18.1448 3.42274 0
      vertex 18.1448 3.42274 1
    endloop
  endfacet
  facet normal 0.770468 0.637478 0
    outer loop
      vertex 18.1448 3.42274 0
      vertex 18.5451 2.93893 1
      vertex 18.5451 2.93893 0
    endloop
  endfacet
  facet normal 0.844364 0.53577 0
    outer loop
      vertex 18.8815 2.40877 1
      vertex 18.5451 2.93893 0
      vertex 18.5451 2.93893 1
    endloop
  endfacet
  facet normal 0.844364 0.53577 0
    outer loop
      vertex 18.5451 2.93893 0
      vertex 18.8815 2.40877 1
      vertex 18.8815 2.40877 0
    endloop
  endfacet
  facet normal 0 1 -0
    outer loop
      vertex 14.814 4.99013 0
      vertex 14.5 4.99013 1
      vertex 14.814 4.99013 1
    endloop
  endfacet
  facet normal 0 1 0
    outer loop
      vertex 14.5 4.99013 1
      vertex 14.814 4.99013 0
      vertex 14.5 4.99013 0
    endloop
  endfacet
  facet normal 0.248691 0.968583 -0
    outer loop
      vertex 16.0451 4.75528 0
      vertex 15.4369 4.91144 1
      vertex 16.0451 4.75528 1
    endloop
  endfacet
  facet normal 0.248691 0.968583 0
    outer loop
      vertex 15.4369 4.91144 1
      vertex 16.0451 4.75528 0
      vertex 15.4369 4.91144 0
    endloop
  endfacet
  facet normal 0.481772 0.876297 -0
    outer loop
      vertex 17.1791 4.22164 0
      vertex 16.6289 4.52413 1
      vertex 17.1791 4.22164 1
    endloop
  endfacet
  facet normal 0.481772 0.876297 0
    outer loop
      vertex 16.6289 4.52413 1
      vertex 17.1791 4.22164 0
      vertex 16.6289 4.52413 0
    endloop
  endfacet
  facet normal 0.951072 -0.30897 0
    outer loop
      vertex 19.1489 -1.84062 1
      vertex 19.3429 -1.24345 0
      vertex 19.3429 -1.24345 1
    endloop
  endfacet
  facet normal 0.951072 -0.30897 0
    outer loop
      vertex 19.3429 -1.24345 0
      vertex 19.1489 -1.84062 1
      vertex 19.1489 -1.84062 0
    endloop
  endfacet
  facet normal 0.982275 -0.187446 0
    outer loop
      vertex 19.3429 -1.24345 1
      vertex 19.4606 -0.626666 0
      vertex 19.4606 -0.626666 1
    endloop
  endfacet
  facet normal 0.982275 -0.187446 0
    outer loop
      vertex 19.4606 -0.626666 0
      vertex 19.3429 -1.24345 1
      vertex 19.3429 -1.24345 0
    endloop
  endfacet
  facet normal 0.481772 -0.876297 0
    outer loop
      vertex 16.6289 -4.52413 0
      vertex 17.1791 -4.22164 1
      vertex 16.6289 -4.52413 1
    endloop
  endfacet
  facet normal 0.481772 -0.876297 0
    outer loop
      vertex 17.1791 -4.22164 1
      vertex 16.6289 -4.52413 0
      vertex 17.1791 -4.22164 0
    endloop
  endfacet
  facet normal 0.368135 -0.929773 0
    outer loop
      vertex 16.0451 -4.75528 0
      vertex 16.6289 -4.52413 1
      vertex 16.0451 -4.75528 1
    endloop
  endfacet
  facet normal 0.368135 -0.929773 0
    outer loop
      vertex 16.6289 -4.52413 1
      vertex 16.0451 -4.75528 0
      vertex 16.6289 -4.52413 0
    endloop
  endfacet
  facet normal 0.587771 -0.809027 0
    outer loop
      vertex 17.1791 -4.22164 0
      vertex 17.6871 -3.85257 1
      vertex 17.1791 -4.22164 1
    endloop
  endfacet
  facet normal 0.587771 -0.809027 0
    outer loop
      vertex 17.6871 -3.85257 1
      vertex 17.1791 -4.22164 0
      vertex 17.6871 -3.85257 0
    endloop
  endfacet
  facet normal 0.770468 -0.637478 0
    outer loop
      vertex 18.1448 -3.42274 1
      vertex 18.5451 -2.93893 0
      vertex 18.5451 -2.93893 1
    endloop
  endfacet
  facet normal 0.770468 -0.637478 0
    outer loop
      vertex 18.5451 -2.93893 0
      vertex 18.1448 -3.42274 1
      vertex 18.1448 -3.42274 0
    endloop
  endfacet
  facet normal 0.844364 -0.53577 0
    outer loop
      vertex 18.5451 -2.93893 1
      vertex 18.8815 -2.40877 0
      vertex 18.8815 -2.40877 1
    endloop
  endfacet
  facet normal 0.844364 -0.53577 0
    outer loop
      vertex 18.8815 -2.40877 0
      vertex 18.5451 -2.93893 1
      vertex 18.5451 -2.93893 0
    endloop
  endfacet
  facet normal 0 -1 0
    outer loop
      vertex 14.5 -4.99013 0
      vertex 14.814 -4.99013 1
      vertex 14.5 -4.99013 1
    endloop
  endfacet
  facet normal 0 -1 -0
    outer loop
      vertex 14.814 -4.99013 1
      vertex 14.5 -4.99013 0
      vertex 14.814 -4.99013 0
    endloop
  endfacet
  facet normal 0.684565 -0.728952 0
    outer loop
      vertex 17.6871 -3.85257 0
      vertex 18.1448 -3.42274 1
      vertex 17.6871 -3.85257 1
    endloop
  endfacet
  facet normal 0.684565 -0.728952 0
    outer loop
      vertex 18.1448 -3.42274 1
      vertex 17.6871 -3.85257 0
      vertex 18.1448 -3.42274 0
    endloop
  endfacet
  facet normal 0.904797 -0.425843 0
    outer loop
      vertex 18.8815 -2.40877 1
      vertex 19.1489 -1.84062 0
      vertex 19.1489 -1.84062 1
    endloop
  endfacet
  facet normal 0.904797 -0.425843 0
    outer loop
      vertex 19.1489 -1.84062 0
      vertex 18.8815 -2.40877 1
      vertex 18.8815 -2.40877 0
    endloop
  endfacet
  facet normal 0.125332 -0.992115 0
    outer loop
      vertex 14.814 -4.99013 0
      vertex 15.4369 -4.91144 1
      vertex 14.814 -4.99013 1
    endloop
  endfacet
  facet normal 0.125332 -0.992115 0
    outer loop
      vertex 15.4369 -4.91144 1
      vertex 14.814 -4.99013 0
      vertex 15.4369 -4.91144 0
    endloop
  endfacet
endsolid OpenSCAD_Model
