<?xml version="1.0" standalone="no"?>
<!DOCTYPE svg PUBLIC "-//W3C//DTD SVG 1.1//EN" "http://www.w3.org/Graphics/SVG/1.1/DTD/svg11.dtd">
<svg width="32mm" height="267mm" viewBox="-17 -513 32 267" xmlns="http://www.w3.org/2000/svg" version="1.1">
<title>OpenSCAD Model</title>
<path d="
M -13.5,-455.507 L -13.1448,-455.077 L -12.6871,-454.647 L -12.1791,-454.278 L -11.6289,-453.976 L -11.0451,-453.745
 L -10.4369,-453.589 L -9.81395,-453.51 L 9.81395,-453.51 L 10.4369,-453.589 L 11.0451,-453.745 L 11.6289,-453.976
 L 12.1791,-454.278 L 12.6871,-454.647 L 13.1448,-455.077 L 13.5451,-455.561 L 13.8815,-456.091 L 14.1489,-456.659
 L 14.3429,-457.257 L 14.4606,-457.873 L 14.5,-458.5 L 14.5,-507.5 L 14.4606,-508.127 L 14.3429,-508.743
 L 14.1489,-509.341 L 13.8815,-509.909 L 13.5451,-510.439 L 13.1448,-510.923 L 12.6871,-511.353 L 12.1791,-511.722
 L 11.6289,-512.024 L 11.0451,-512.255 L 10.4369,-512.411 L 9.81395,-512.49 L -9.81395,-512.49 L -10.4369,-512.411
 L -11.0451,-512.255 L -11.6289,-512.024 L -12.1791,-511.722 L -12.6871,-511.353 L -13.1448,-510.923 L -13.5,-510.493
 L -13.5,-512.99 L -16.5,-512.99 L -16.5,-453.01 L -13.5,-453.01 z
M -9.75116,-454.508 L -10.2495,-454.571 L -10.7361,-454.696 L -11.2031,-454.881 L -11.6433,-455.123 L -12.0497,-455.418
 L -12.4159,-455.762 L -12.7361,-456.149 L -13.0052,-456.573 L -13.2191,-457.028 L -13.3743,-457.505 L -13.4684,-457.999
 L -13.5,-458.5 L -13.5,-507.5 L -13.4684,-508.001 L -13.3743,-508.495 L -13.2191,-508.972 L -13.0052,-509.427
 L -12.7361,-509.851 L -12.4159,-510.238 L -12.0497,-510.582 L -11.6433,-510.877 L -11.2031,-511.119 L -10.7361,-511.304
 L -10.2495,-511.429 L -9.75116,-511.492 L 9.75116,-511.492 L 10.2495,-511.429 L 10.7361,-511.304 L 11.2031,-511.119
 L 11.6433,-510.877 L 12.0497,-510.582 L 12.4159,-510.238 L 12.7361,-509.851 L 13.0052,-509.427 L 13.2191,-508.972
 L 13.3743,-508.495 L 13.4684,-508.001 L 13.5,-507.5 L 13.5,-458.5 L 13.4684,-457.999 L 13.3743,-457.505
 L 13.2191,-457.028 L 13.0052,-456.573 L 12.7361,-456.149 L 12.4159,-455.762 L 12.0497,-455.418 L 11.6433,-455.123
 L 11.2031,-454.881 L 10.7361,-454.696 L 10.2495,-454.571 L 9.75116,-454.508 z
M -13.5,-386.507 L -13.1448,-386.077 L -12.6871,-385.647 L -12.1791,-385.278 L -11.6289,-384.976 L -11.0451,-384.745
 L -10.4369,-384.589 L -9.81395,-384.51 L 9.81395,-384.51 L 10.4369,-384.589 L 11.0451,-384.745 L 11.6289,-384.976
 L 12.1791,-385.278 L 12.6871,-385.647 L 13.1448,-386.077 L 13.5451,-386.561 L 13.8815,-387.091 L 14.1489,-387.659
 L 14.3429,-388.257 L 14.4606,-388.873 L 14.5,-389.5 L 14.5,-438.5 L 14.4606,-439.127 L 14.3429,-439.743
 L 14.1489,-440.341 L 13.8815,-440.909 L 13.5451,-441.439 L 13.1448,-441.923 L 12.6871,-442.353 L 12.1791,-442.722
 L 11.6289,-443.024 L 11.0451,-443.255 L 10.4369,-443.411 L 9.81395,-443.49 L -9.81395,-443.49 L -10.4369,-443.411
 L -11.0451,-443.255 L -11.6289,-443.024 L -12.1791,-442.722 L -12.6871,-442.353 L -13.1448,-441.923 L -13.5,-441.493
 L -13.5,-443.99 L -16.5,-443.99 L -16.5,-384.01 L -13.5,-384.01 z
M -9.75116,-385.508 L -10.2495,-385.571 L -10.7361,-385.696 L -11.2031,-385.881 L -11.6433,-386.123 L -12.0497,-386.418
 L -12.4159,-386.762 L -12.7361,-387.149 L -13.0052,-387.573 L -13.2191,-388.028 L -13.3743,-388.505 L -13.4684,-388.999
 L -13.5,-389.5 L -13.5,-438.5 L -13.4684,-439.001 L -13.3743,-439.495 L -13.2191,-439.972 L -13.0052,-440.427
 L -12.7361,-440.851 L -12.4159,-441.238 L -12.0497,-441.582 L -11.6433,-441.877 L -11.2031,-442.119 L -10.7361,-442.304
 L -10.2495,-442.429 L -9.75116,-442.492 L 9.75116,-442.492 L 10.2495,-442.429 L 10.7361,-442.304 L 11.2031,-442.119
 L 11.6433,-441.877 L 12.0497,-441.582 L 12.4159,-441.238 L 12.7361,-440.851 L 13.0052,-440.427 L 13.2191,-439.972
 L 13.3743,-439.495 L 13.4684,-439.001 L 13.5,-438.5 L 13.5,-389.5 L 13.4684,-388.999 L 13.3743,-388.505
 L 13.2191,-388.028 L 13.0052,-387.573 L 12.7361,-387.149 L 12.4159,-386.762 L 12.0497,-386.418 L 11.6433,-386.123
 L 11.2031,-385.881 L 10.7361,-385.696 L 10.2495,-385.571 L 9.75116,-385.508 z
M -13.5,-317.507 L -13.1448,-317.077 L -12.6871,-316.647 L -12.1791,-316.278 L -11.6289,-315.976 L -11.0451,-315.745
 L -10.4369,-315.589 L -9.81395,-315.51 L 9.81395,-315.51 L 10.4369,-315.589 L 11.0451,-315.745 L 11.6289,-315.976
 L 12.1791,-316.278 L 12.6871,-316.647 L 13.1448,-317.077 L 13.5451,-317.561 L 13.8815,-318.091 L 14.1489,-318.659
 L 14.3429,-319.257 L 14.4606,-319.873 L 14.5,-320.5 L 14.5,-369.5 L 14.4606,-370.127 L 14.3429,-370.743
 L 14.1489,-371.341 L 13.8815,-371.909 L 13.5451,-372.439 L 13.1448,-372.923 L 12.6871,-373.353 L 12.1791,-373.722
 L 11.6289,-374.024 L 11.0451,-374.255 L 10.4369,-374.411 L 9.81395,-374.49 L -9.81395,-374.49 L -10.4369,-374.411
 L -11.0451,-374.255 L -11.6289,-374.024 L -12.1791,-373.722 L -12.6871,-373.353 L -13.1448,-372.923 L -13.5,-372.493
 L -13.5,-374.979 L -16.5,-374.979 L -16.5,-315.021 L -13.5,-315.021 z
M -9.69545,-317.393 L -10.0833,-317.442 L -10.4619,-317.539 L -10.8254,-317.683 L -11.168,-317.872 L -11.4842,-318.101
 L -11.7692,-318.369 L -12.0184,-318.67 L -12.2279,-319 L -12.3943,-319.354 L -12.5151,-319.726 L -12.5884,-320.11
 L -12.6129,-320.5 L -12.6129,-369.5 L -12.5884,-369.89 L -12.5151,-370.274 L -12.3943,-370.646 L -12.2279,-371
 L -12.0184,-371.33 L -11.7692,-371.631 L -11.4842,-371.899 L -11.168,-372.128 L -10.8254,-372.317 L -10.4619,-372.461
 L -10.0833,-372.558 L -9.69545,-372.607 L 9.69545,-372.607 L 10.0833,-372.558 L 10.4619,-372.461 L 10.8254,-372.317
 L 11.168,-372.128 L 11.4842,-371.899 L 11.7692,-371.631 L 12.0184,-371.33 L 12.2279,-371 L 12.3943,-370.646
 L 12.5151,-370.274 L 12.5884,-369.89 L 12.6129,-369.5 L 12.6129,-320.5 L 12.5884,-320.11 L 12.5151,-319.726
 L 12.3943,-319.354 L 12.2279,-319 L 12.0184,-318.67 L 11.7692,-318.369 L 11.4842,-318.101 L 11.168,-317.872
 L 10.8254,-317.683 L 10.4619,-317.539 L 10.0833,-317.442 L 9.69545,-317.393 z
M 10.4369,-246.589 L 11.0451,-246.745 L 11.6289,-246.976 L 12.1791,-247.278 L 12.6871,-247.647 L 13.1448,-248.077
 L 13.5451,-248.561 L 13.8815,-249.091 L 14.1489,-249.659 L 14.3429,-250.257 L 14.4606,-250.873 L 14.5,-251.5
 L 14.5,-300.5 L 14.4606,-301.127 L 14.3429,-301.743 L 14.1489,-302.341 L 13.8815,-302.909 L 13.5451,-303.439
 L 13.1448,-303.923 L 12.6871,-304.353 L 12.1791,-304.722 L 11.6289,-305.024 L 11.0451,-305.255 L 10.4369,-305.411
 L 9.81395,-305.49 L -9.81395,-305.49 L -10.4369,-305.411 L -11.0451,-305.255 L -11.6289,-305.024 L -12.1791,-304.722
 L -12.6871,-304.353 L -13.1448,-303.923 L -13.5,-303.493 L -13.5,-304.653 L -16.5,-304.653 L -16.5,-247.347
 L -13.5,-247.347 L -13.5,-248.507 L -13.1448,-248.077 L -12.6871,-247.647 L -12.1791,-247.278 L -11.6289,-246.976
 L -11.0451,-246.745 L -10.4369,-246.589 L -9.81395,-246.51 L 9.81395,-246.51 z
M -7.6507,-296.105 L -7.94971,-296.143 L -8.24164,-296.217 L -8.52187,-296.328 L -8.78598,-296.474 L -9.02982,-296.651
 L -9.24951,-296.857 L -9.44164,-297.089 L -9.60313,-297.344 L -9.73146,-297.617 L -9.82458,-297.903 L -9.88107,-298.199
 L -9.89999,-298.5 L -9.88107,-298.801 L -9.82458,-299.097 L -9.73146,-299.383 L -9.60313,-299.656 L -9.44164,-299.911
 L -9.24951,-300.143 L -9.02982,-300.349 L -8.78598,-300.526 L -8.52187,-300.672 L -8.24164,-300.783 L -7.94971,-300.857
 L -7.6507,-300.895 L -7.34929,-300.895 L -7.05028,-300.857 L -6.75835,-300.783 L -6.47812,-300.672 L -6.214,-300.526
 L -5.97017,-300.349 L -5.75047,-300.143 L -5.55835,-299.911 L -5.39685,-299.656 L -5.26852,-299.383 L -5.1754,-299.097
 L -5.11891,-298.801 L -5.09999,-298.5 L -5.11891,-298.199 L -5.1754,-297.903 L -5.26852,-297.617 L -5.39685,-297.344
 L -5.55835,-297.089 L -5.75047,-296.857 L -5.97017,-296.651 L -6.214,-296.474 L -6.47812,-296.328 L -6.75835,-296.217
 L -7.05028,-296.143 L -7.34929,-296.105 z
M 7.34929,-296.105 L 7.05028,-296.143 L 6.75835,-296.217 L 6.47812,-296.328 L 6.214,-296.474 L 5.97017,-296.651
 L 5.75047,-296.857 L 5.55835,-297.089 L 5.39685,-297.344 L 5.26852,-297.617 L 5.1754,-297.903 L 5.11891,-298.199
 L 5.09999,-298.5 L 5.11891,-298.801 L 5.1754,-299.097 L 5.26852,-299.383 L 5.39685,-299.656 L 5.55835,-299.911
 L 5.75047,-300.143 L 5.97017,-300.349 L 6.214,-300.526 L 6.47812,-300.672 L 6.75835,-300.783 L 7.05028,-300.857
 L 7.34929,-300.895 L 7.6507,-300.895 L 7.94971,-300.857 L 8.24164,-300.783 L 8.52187,-300.672 L 8.78598,-300.526
 L 9.02982,-300.349 L 9.24951,-300.143 L 9.44164,-299.911 L 9.60313,-299.656 L 9.73146,-299.383 L 9.82458,-299.097
 L 9.88107,-298.801 L 9.89999,-298.5 L 9.88107,-298.199 L 9.82458,-297.903 L 9.73146,-297.617 L 9.60313,-297.344
 L 9.44164,-297.089 L 9.24951,-296.857 L 9.02982,-296.651 L 8.78598,-296.474 L 8.52187,-296.328 L 8.24164,-296.217
 L 7.94971,-296.143 L 7.6507,-296.105 z
M -7.6507,-251.105 L -7.94971,-251.143 L -8.24164,-251.217 L -8.52187,-251.328 L -8.78598,-251.474 L -9.02982,-251.651
 L -9.24951,-251.857 L -9.44164,-252.089 L -9.60313,-252.344 L -9.73146,-252.617 L -9.82458,-252.903 L -9.88107,-253.199
 L -9.89999,-253.5 L -9.88107,-253.801 L -9.82458,-254.097 L -9.73146,-254.383 L -9.60313,-254.656 L -9.44164,-254.911
 L -9.24951,-255.143 L -9.02982,-255.349 L -8.78598,-255.526 L -8.52187,-255.672 L -8.24164,-255.783 L -7.94971,-255.857
 L -7.6507,-255.895 L -7.34929,-255.895 L -7.05028,-255.857 L -6.75835,-255.783 L -6.47812,-255.672 L -6.214,-255.526
 L -5.97017,-255.349 L -5.75047,-255.143 L -5.55835,-254.911 L -5.39685,-254.656 L -5.26852,-254.383 L -5.1754,-254.097
 L -5.11891,-253.801 L -5.09999,-253.5 L -5.11891,-253.199 L -5.1754,-252.903 L -5.26852,-252.617 L -5.39685,-252.344
 L -5.55835,-252.089 L -5.75047,-251.857 L -5.97017,-251.651 L -6.214,-251.474 L -6.47812,-251.328 L -6.75835,-251.217
 L -7.05028,-251.143 L -7.34929,-251.105 z
M 7.34929,-251.105 L 7.05028,-251.143 L 6.75835,-251.217 L 6.47812,-251.328 L 6.214,-251.474 L 5.97017,-251.651
 L 5.75047,-251.857 L 5.55835,-252.089 L 5.39685,-252.344 L 5.26852,-252.617 L 5.1754,-252.903 L 5.11891,-253.199
 L 5.09999,-253.5 L 5.11891,-253.801 L 5.1754,-254.097 L 5.26852,-254.383 L 5.39685,-254.656 L 5.55835,-254.911
 L 5.75047,-255.143 L 5.97017,-255.349 L 6.214,-255.526 L 6.47812,-255.672 L 6.75835,-255.783 L 7.05028,-255.857
 L 7.34929,-255.895 L 7.6507,-255.895 L 7.94971,-255.857 L 8.24164,-255.783 L 8.52187,-255.672 L 8.78598,-255.526
 L 9.02982,-255.349 L 9.24951,-255.143 L 9.44164,-254.911 L 9.60313,-254.656 L 9.73146,-254.383 L 9.82458,-254.097
 L 9.88107,-253.801 L 9.89999,-253.5 L 9.88107,-253.199 L 9.82458,-252.903 L 9.73146,-252.617 L 9.60313,-252.344
 L 9.44164,-252.089 L 9.24951,-251.857 L 9.02982,-251.651 L 8.78598,-251.474 L 8.52187,-251.328 L 8.24164,-251.217
 L 7.94971,-251.143 L 7.6507,-251.105 z
" stroke="black" fill="lightgray" stroke-width="0.5"/>
</svg>
