<?xml version="1.0" standalone="no"?>
<!DOCTYPE svg PUBLIC "-//W3C//DTD SVG 1.1//EN" "http://www.w3.org/Graphics/SVG/1.1/DTD/svg11.dtd">
<svg width="30mm" height="328mm" viewBox="-15 -542 30 328" xmlns="http://www.w3.org/2000/svg" version="1.1">
<title>OpenSCAD Model</title>
<path d="
M 10.9369,-466.589 L 11.5451,-466.745 L 12.1289,-466.976 L 12.6791,-467.278 L 13.1871,-467.647 L 13.6448,-468.077
 L 14.0451,-468.561 L 14.3815,-469.091 L 14.6489,-469.659 L 14.8429,-470.257 L 14.9606,-470.873 L 15,-471.5
 L 15,-536.5 L 14.9606,-537.127 L 14.8429,-537.743 L 14.6489,-538.341 L 14.3815,-538.909 L 14.0451,-539.439
 L 13.6448,-539.923 L 13.1871,-540.353 L 12.6791,-540.722 L 12.1289,-541.024 L 11.5451,-541.255 L 10.9369,-541.411
 L 10.3139,-541.49 L -10.3139,-541.49 L -10.9369,-541.411 L -11.5451,-541.255 L -12.1289,-541.024 L -12.6791,-540.722
 L -13.1871,-540.353 L -13.6448,-539.923 L -14.0451,-539.439 L -14.3815,-538.909 L -14.6489,-538.341 L -14.8429,-537.743
 L -14.9606,-537.127 L -15,-536.5 L -15,-471.5 L -14.9606,-470.873 L -14.8429,-470.257 L -14.6489,-469.659
 L -14.3815,-469.091 L -14.0451,-468.561 L -13.6448,-468.077 L -13.1871,-467.647 L -12.6791,-467.278 L -12.1289,-466.976
 L -11.5451,-466.745 L -10.9369,-466.589 L -10.3139,-466.51 L 10.3139,-466.51 z
M -10.0482,-467.009 L -10.6401,-467.084 L -11.2178,-467.232 L -11.7724,-467.452 L -12.2952,-467.739 L -12.7778,-468.09
 L -13.2126,-468.498 L -13.5928,-468.958 L -13.9124,-469.462 L -14.1664,-470.001 L -14.3508,-470.569 L -14.4625,-471.155
 L -14.5,-471.75 L -14.5,-536.25 L -14.4625,-536.845 L -14.3508,-537.431 L -14.1664,-537.999 L -13.9124,-538.538
 L -13.5928,-539.042 L -13.2126,-539.502 L -12.7778,-539.91 L -12.2952,-540.261 L -11.7724,-540.548 L -11.2178,-540.768
 L -10.6401,-540.916 L -10.0482,-540.991 L 10.0482,-540.991 L 10.6401,-540.916 L 11.2178,-540.768 L 11.7724,-540.548
 L 12.2952,-540.261 L 12.7778,-539.91 L 13.2126,-539.502 L 13.5928,-539.042 L 13.9124,-538.538 L 14.1664,-537.999
 L 14.3508,-537.431 L 14.4625,-536.845 L 14.5,-536.25 L 14.5,-471.75 L 14.4625,-471.155 L 14.3508,-470.569
 L 14.1664,-470.001 L 13.9124,-469.462 L 13.5928,-468.958 L 13.2126,-468.498 L 12.7778,-468.09 L 12.2952,-467.739
 L 11.7724,-467.452 L 11.2178,-467.232 L 10.6401,-467.084 L 10.0482,-467.009 z
M 10.9369,-382.589 L 11.5451,-382.745 L 12.1289,-382.976 L 12.6791,-383.278 L 13.1871,-383.647 L 13.6448,-384.077
 L 14.0451,-384.561 L 14.3815,-385.091 L 14.6489,-385.659 L 14.8429,-386.257 L 14.9606,-386.873 L 15,-387.5
 L 15,-452.5 L 14.9606,-453.127 L 14.8429,-453.743 L 14.6489,-454.341 L 14.3815,-454.909 L 14.0451,-455.439
 L 13.6448,-455.923 L 13.1871,-456.353 L 12.6791,-456.722 L 12.1289,-457.024 L 11.5451,-457.255 L 10.9369,-457.411
 L 10.3139,-457.49 L -10.3139,-457.49 L -10.9369,-457.411 L -11.5451,-457.255 L -12.1289,-457.024 L -12.6791,-456.722
 L -13.1871,-456.353 L -13.6448,-455.923 L -14.0451,-455.439 L -14.3815,-454.909 L -14.6489,-454.341 L -14.8429,-453.743
 L -14.9606,-453.127 L -15,-452.5 L -15,-387.5 L -14.9606,-386.873 L -14.8429,-386.257 L -14.6489,-385.659
 L -14.3815,-385.091 L -14.0451,-384.561 L -13.6448,-384.077 L -13.1871,-383.647 L -12.6791,-383.278 L -12.1289,-382.976
 L -11.5451,-382.745 L -10.9369,-382.589 L -10.3139,-382.51 L 10.3139,-382.51 z
M -10.0482,-383.009 L -10.6401,-383.084 L -11.2178,-383.232 L -11.7724,-383.452 L -12.2952,-383.739 L -12.7778,-384.09
 L -13.2126,-384.498 L -13.5928,-384.958 L -13.9124,-385.462 L -14.1664,-386.001 L -14.3508,-386.569 L -14.4625,-387.155
 L -14.5,-387.75 L -14.5,-452.25 L -14.4625,-452.845 L -14.3508,-453.431 L -14.1664,-453.999 L -13.9124,-454.538
 L -13.5928,-455.042 L -13.2126,-455.502 L -12.7778,-455.91 L -12.2952,-456.261 L -11.7724,-456.548 L -11.2178,-456.768
 L -10.6401,-456.916 L -10.0482,-456.991 L 10.0482,-456.991 L 10.6401,-456.916 L 11.2178,-456.768 L 11.7724,-456.548
 L 12.2952,-456.261 L 12.7778,-455.91 L 13.2126,-455.502 L 13.5928,-455.042 L 13.9124,-454.538 L 14.1664,-453.999
 L 14.3508,-453.431 L 14.4625,-452.845 L 14.5,-452.25 L 14.5,-387.75 L 14.4625,-387.155 L 14.3508,-386.569
 L 14.1664,-386.001 L 13.9124,-385.462 L 13.5928,-384.958 L 13.2126,-384.498 L 12.7778,-384.09 L 12.2952,-383.739
 L 11.7724,-383.452 L 11.2178,-383.232 L 10.6401,-383.084 L 10.0482,-383.009 z
M 10.9369,-298.589 L 11.5451,-298.745 L 12.1289,-298.976 L 12.6791,-299.278 L 13.1871,-299.647 L 13.6448,-300.077
 L 14.0451,-300.561 L 14.3815,-301.091 L 14.6489,-301.659 L 14.8429,-302.257 L 14.9606,-302.873 L 15,-303.5
 L 15,-368.5 L 14.9606,-369.127 L 14.8429,-369.743 L 14.6489,-370.341 L 14.3815,-370.909 L 14.0451,-371.439
 L 13.6448,-371.923 L 13.1871,-372.353 L 12.6791,-372.722 L 12.1289,-373.024 L 11.5451,-373.255 L 10.9369,-373.411
 L 10.3139,-373.49 L -10.3139,-373.49 L -10.9369,-373.411 L -11.5451,-373.255 L -12.1289,-373.024 L -12.6791,-372.722
 L -13.1871,-372.353 L -13.6448,-371.923 L -14.0451,-371.439 L -14.3815,-370.909 L -14.6489,-370.341 L -14.8429,-369.743
 L -14.9606,-369.127 L -15,-368.5 L -15,-303.5 L -14.9606,-302.873 L -14.8429,-302.257 L -14.6489,-301.659
 L -14.3815,-301.091 L -14.0451,-300.561 L -13.6448,-300.077 L -13.1871,-299.647 L -12.6791,-299.278 L -12.1289,-298.976
 L -11.5451,-298.745 L -10.9369,-298.589 L -10.3139,-298.51 L 10.3139,-298.51 z
M -9.99297,-299.888 L -10.4751,-299.949 L -10.9457,-300.07 L -11.3975,-300.249 L -11.8234,-300.483 L -12.2165,-300.769
 L -12.5707,-301.101 L -12.8805,-301.476 L -13.1408,-301.886 L -13.3477,-302.326 L -13.4979,-302.788 L -13.589,-303.265
 L -13.6195,-303.75 L -13.6195,-368.25 L -13.589,-368.735 L -13.4979,-369.212 L -13.3477,-369.674 L -13.1408,-370.114
 L -12.8805,-370.524 L -12.5707,-370.899 L -12.2165,-371.231 L -11.8234,-371.517 L -11.3975,-371.751 L -10.9457,-371.93
 L -10.4751,-372.051 L -9.99297,-372.112 L 9.99297,-372.112 L 10.4751,-372.051 L 10.9457,-371.93 L 11.3975,-371.751
 L 11.8234,-371.517 L 12.2165,-371.231 L 12.5707,-370.899 L 12.8805,-370.524 L 13.1408,-370.114 L 13.3477,-369.674
 L 13.4979,-369.212 L 13.589,-368.735 L 13.6195,-368.25 L 13.6195,-303.75 L 13.589,-303.265 L 13.4979,-302.788
 L 13.3477,-302.326 L 13.1408,-301.886 L 12.8805,-301.476 L 12.5707,-301.101 L 12.2165,-300.769 L 11.8234,-300.483
 L 11.3975,-300.249 L 10.9457,-300.07 L 10.4751,-299.949 L 9.99297,-299.888 z
M 10.9369,-214.589 L 11.5451,-214.745 L 12.1289,-214.976 L 12.6791,-215.278 L 13.1871,-215.647 L 13.6448,-216.077
 L 14.0451,-216.561 L 14.3815,-217.091 L 14.6489,-217.659 L 14.8429,-218.257 L 14.9606,-218.873 L 15,-219.5
 L 15,-284.5 L 14.9606,-285.127 L 14.8429,-285.743 L 14.6489,-286.341 L 14.3815,-286.909 L 14.0451,-287.439
 L 13.6448,-287.923 L 13.1871,-288.353 L 12.6791,-288.722 L 12.1289,-289.024 L 11.5451,-289.255 L 10.9369,-289.411
 L 10.3139,-289.49 L -10.3139,-289.49 L -10.9369,-289.411 L -11.5451,-289.255 L -12.1289,-289.024 L -12.6791,-288.722
 L -13.1871,-288.353 L -13.6448,-287.923 L -14.0451,-287.439 L -14.3815,-286.909 L -14.6489,-286.341 L -14.8429,-285.743
 L -14.9606,-285.127 L -15,-284.5 L -15,-219.5 L -14.9606,-218.873 L -14.8429,-218.257 L -14.6489,-217.659
 L -14.3815,-217.091 L -14.0451,-216.561 L -13.6448,-216.077 L -13.1871,-215.647 L -12.6791,-215.278 L -12.1289,-214.976
 L -11.5451,-214.745 L -10.9369,-214.589 L -10.3139,-214.51 L 10.3139,-214.51 z
M 7.40581,-280.503 L 7.21892,-280.527 L 7.03647,-280.573 L 6.86133,-280.643 L 6.69626,-280.734 L 6.54385,-280.844
 L 6.40654,-280.973 L 6.28647,-281.118 L 6.18553,-281.277 L 6.10533,-281.448 L 6.04712,-281.627 L 6.01183,-281.812
 L 6,-282 L 6.01183,-282.188 L 6.04712,-282.373 L 6.10533,-282.552 L 6.18553,-282.723 L 6.28647,-282.882
 L 6.40654,-283.027 L 6.54385,-283.156 L 6.69626,-283.266 L 6.86133,-283.357 L 7.03647,-283.427 L 7.21892,-283.473
 L 7.40581,-283.497 L 7.59418,-283.497 L 7.78107,-283.473 L 7.96352,-283.427 L 8.13866,-283.357 L 8.30373,-283.266
 L 8.45613,-283.156 L 8.59344,-283.027 L 8.71352,-282.882 L 8.81445,-282.723 L 8.89465,-282.552 L 8.95287,-282.373
 L 8.98816,-282.188 L 9,-282 L 8.98816,-281.812 L 8.95287,-281.627 L 8.89465,-281.448 L 8.81445,-281.277
 L 8.71352,-281.118 L 8.59344,-280.973 L 8.45613,-280.844 L 8.30373,-280.734 L 8.13866,-280.643 L 7.96352,-280.573
 L 7.78107,-280.527 L 7.59418,-280.503 z
M -7.59418,-280.503 L -7.78107,-280.527 L -7.96352,-280.573 L -8.13866,-280.643 L -8.30373,-280.734 L -8.45613,-280.844
 L -8.59344,-280.973 L -8.71352,-281.118 L -8.81445,-281.277 L -8.89465,-281.448 L -8.95287,-281.627 L -8.98816,-281.812
 L -9,-282 L -8.98816,-282.188 L -8.95287,-282.373 L -8.89465,-282.552 L -8.81445,-282.723 L -8.71352,-282.882
 L -8.59344,-283.027 L -8.45613,-283.156 L -8.30373,-283.266 L -8.13866,-283.357 L -7.96352,-283.427 L -7.78107,-283.473
 L -7.59418,-283.497 L -7.40581,-283.497 L -7.21892,-283.473 L -7.03647,-283.427 L -6.86133,-283.357 L -6.69626,-283.266
 L -6.54385,-283.156 L -6.40654,-283.027 L -6.28647,-282.882 L -6.18553,-282.723 L -6.10533,-282.552 L -6.04712,-282.373
 L -6.01183,-282.188 L -6,-282 L -6.01183,-281.812 L -6.04712,-281.627 L -6.10533,-281.448 L -6.18553,-281.277
 L -6.28647,-281.118 L -6.40654,-280.973 L -6.54385,-280.844 L -6.69626,-280.734 L -6.86133,-280.643 L -7.03647,-280.573
 L -7.21892,-280.527 L -7.40581,-280.503 z
M -7.59418,-220.503 L -7.78107,-220.527 L -7.96352,-220.573 L -8.13866,-220.643 L -8.30373,-220.734 L -8.45613,-220.844
 L -8.59344,-220.973 L -8.71352,-221.118 L -8.81445,-221.277 L -8.89465,-221.448 L -8.95287,-221.627 L -8.98816,-221.812
 L -9,-222 L -8.98816,-222.188 L -8.95287,-222.373 L -8.89465,-222.552 L -8.81445,-222.723 L -8.71352,-222.882
 L -8.59344,-223.027 L -8.45613,-223.156 L -8.30373,-223.266 L -8.13866,-223.357 L -7.96352,-223.427 L -7.78107,-223.473
 L -7.59418,-223.497 L -7.40581,-223.497 L -7.21892,-223.473 L -7.03647,-223.427 L -6.86133,-223.357 L -6.69626,-223.266
 L -6.54385,-223.156 L -6.40654,-223.027 L -6.28647,-222.882 L -6.18553,-222.723 L -6.10533,-222.552 L -6.04712,-222.373
 L -6.01183,-222.188 L -6,-222 L -6.01183,-221.812 L -6.04712,-221.627 L -6.10533,-221.448 L -6.18553,-221.277
 L -6.28647,-221.118 L -6.40654,-220.973 L -6.54385,-220.844 L -6.69626,-220.734 L -6.86133,-220.643 L -7.03647,-220.573
 L -7.21892,-220.527 L -7.40581,-220.503 z
M 7.40581,-220.503 L 7.21892,-220.527 L 7.03647,-220.573 L 6.86133,-220.643 L 6.69626,-220.734 L 6.54385,-220.844
 L 6.40654,-220.973 L 6.28647,-221.118 L 6.18553,-221.277 L 6.10533,-221.448 L 6.04712,-221.627 L 6.01183,-221.812
 L 6,-222 L 6.01183,-222.188 L 6.04712,-222.373 L 6.10533,-222.552 L 6.18553,-222.723 L 6.28647,-222.882
 L 6.40654,-223.027 L 6.54385,-223.156 L 6.69626,-223.266 L 6.86133,-223.357 L 7.03647,-223.427 L 7.21892,-223.473
 L 7.40581,-223.497 L 7.59418,-223.497 L 7.78107,-223.473 L 7.96352,-223.427 L 8.13866,-223.357 L 8.30373,-223.266
 L 8.45613,-223.156 L 8.59344,-223.027 L 8.71352,-222.882 L 8.81445,-222.723 L 8.89465,-222.552 L 8.95287,-222.373
 L 8.98816,-222.188 L 9,-222 L 8.98816,-221.812 L 8.95287,-221.627 L 8.89465,-221.448 L 8.81445,-221.277
 L 8.71352,-221.118 L 8.59344,-220.973 L 8.45613,-220.844 L 8.30373,-220.734 L 8.13866,-220.643 L 7.96352,-220.573
 L 7.78107,-220.527 L 7.59418,-220.503 z
" stroke="black" fill="lightgray" stroke-width="0.5"/>
</svg>
