<?xml version="1.0" standalone="no"?>
<!DOCTYPE svg PUBLIC "-//W3C//DTD SVG 1.1//EN" "http://www.w3.org/Graphics/SVG/1.1/DTD/svg11.dtd">
<svg width="74mm" height="206mm" viewBox="-37 -346 74 206" xmlns="http://www.w3.org/2000/svg" version="1.1">
<title>OpenSCAD Model</title>
<path d="
M 32.9369,-302.089 L 33.5451,-302.245 L 34.1289,-302.476 L 34.6791,-302.778 L 35.1871,-303.147 L 35.6448,-303.577
 L 36.0451,-304.061 L 36.3815,-304.591 L 36.6489,-305.159 L 36.8429,-305.757 L 36.9606,-306.373 L 37,-307
 L 37,-341 L 36.9606,-341.627 L 36.8429,-342.243 L 36.6489,-342.841 L 36.3815,-343.409 L 36.0451,-343.939
 L 35.6448,-344.423 L 35.1871,-344.853 L 34.6791,-345.222 L 34.1289,-345.524 L 33.5451,-345.755 L 32.9369,-345.911
 L 32.3139,-345.99 L -32.3139,-345.99 L -32.9369,-345.911 L -33.5451,-345.755 L -34.1289,-345.524 L -34.6791,-345.222
 L -35.1871,-344.853 L -35.6448,-344.423 L -36.0451,-343.939 L -36.3815,-343.409 L -36.6489,-342.841 L -36.8429,-342.243
 L -36.9606,-341.627 L -37,-341 L -37,-307 L -36.9606,-306.373 L -36.8429,-305.757 L -36.6489,-305.159
 L -36.3815,-304.591 L -36.0451,-304.061 L -35.6448,-303.577 L -35.1871,-303.147 L -34.6791,-302.778 L -34.1289,-302.476
 L -33.5451,-302.245 L -32.9369,-302.089 L -32.3139,-302.01 L 32.3139,-302.01 z
M -32.2512,-303.008 L -32.7495,-303.071 L -33.2361,-303.196 L -33.7031,-303.381 L -34.1433,-303.623 L -34.5497,-303.918
 L -34.9159,-304.262 L -35.2361,-304.649 L -35.5052,-305.073 L -35.7191,-305.528 L -35.8743,-306.005 L -35.9685,-306.499
 L -36,-307 L -36,-341 L -35.9685,-341.501 L -35.8743,-341.995 L -35.7191,-342.472 L -35.5052,-342.927
 L -35.2361,-343.351 L -34.9159,-343.738 L -34.5497,-344.082 L -34.1433,-344.377 L -33.7031,-344.619 L -33.2361,-344.804
 L -32.7495,-344.929 L -32.2512,-344.992 L 32.2512,-344.992 L 32.7495,-344.929 L 33.2361,-344.804 L 33.7031,-344.619
 L 34.1433,-344.377 L 34.5497,-344.082 L 34.9159,-343.738 L 35.2361,-343.351 L 35.5052,-342.927 L 35.7191,-342.472
 L 35.8743,-341.995 L 35.9685,-341.501 L 36,-341 L 36,-307 L 35.9685,-306.499 L 35.8743,-306.005
 L 35.7191,-305.528 L 35.5052,-305.073 L 35.2361,-304.649 L 34.9159,-304.262 L 34.5497,-303.918 L 34.1433,-303.623
 L 33.7031,-303.381 L 33.2361,-303.196 L 32.7495,-303.071 L 32.2512,-303.008 z
M 32.9369,-194.089 L 33.5451,-194.245 L 34.1289,-194.476 L 34.6791,-194.778 L 35.1871,-195.147 L 35.6448,-195.577
 L 36.0451,-196.061 L 36.3815,-196.591 L 36.6489,-197.159 L 36.8429,-197.757 L 36.9606,-198.373 L 37,-199
 L 37,-233 L 36.9606,-233.627 L 36.8429,-234.243 L 36.6489,-234.841 L 36.3815,-235.409 L 36.0451,-235.939
 L 35.6448,-236.423 L 35.1871,-236.853 L 34.6791,-237.222 L 34.1289,-237.524 L 33.5451,-237.755 L 32.9369,-237.911
 L 32.3139,-237.99 L -32.3139,-237.99 L -32.9369,-237.911 L -33.5451,-237.755 L -34.1289,-237.524 L -34.6791,-237.222
 L -35.1871,-236.853 L -35.6448,-236.423 L -36.0451,-235.939 L -36.3815,-235.409 L -36.6489,-234.841 L -36.8429,-234.243
 L -36.9606,-233.627 L -37,-233 L -37,-199 L -36.9606,-198.373 L -36.8429,-197.757 L -36.6489,-197.159
 L -36.3815,-196.591 L -36.0451,-196.061 L -35.6448,-195.577 L -35.1871,-195.147 L -34.6791,-194.778 L -34.1289,-194.476
 L -33.5451,-194.245 L -32.9369,-194.089 L -32.3139,-194.01 L 32.3139,-194.01 z
M 32.9369,-140.089 L 33.5451,-140.245 L 34.1289,-140.476 L 34.6791,-140.778 L 35.1871,-141.147 L 35.6448,-141.577
 L 36.0451,-142.061 L 36.3815,-142.591 L 36.6489,-143.159 L 36.8429,-143.757 L 36.9606,-144.373 L 37,-145
 L 37,-179 L 36.9606,-179.627 L 36.8429,-180.243 L 36.6489,-180.841 L 36.3815,-181.409 L 36.0451,-181.939
 L 35.6448,-182.423 L 35.1871,-182.853 L 34.6791,-183.222 L 34.1289,-183.524 L 33.5451,-183.755 L 32.9369,-183.911
 L 32.3139,-183.99 L -32.3139,-183.99 L -32.9369,-183.911 L -33.5451,-183.755 L -34.1289,-183.524 L -34.6791,-183.222
 L -35.1871,-182.853 L -35.6448,-182.423 L -36.0451,-181.939 L -36.3815,-181.409 L -36.6489,-180.841 L -36.8429,-180.243
 L -36.9606,-179.627 L -37,-179 L -37,-145 L -36.9606,-144.373 L -36.8429,-143.757 L -36.6489,-143.159
 L -36.3815,-142.591 L -36.0451,-142.061 L -35.6448,-141.577 L -35.1871,-141.147 L -34.6791,-140.778 L -34.1289,-140.476
 L -33.5451,-140.245 L -32.9369,-140.089 L -32.3139,-140.01 L 32.3139,-140.01 z
M 29.8493,-174.605 L 29.5503,-174.643 L 29.2583,-174.717 L 28.9781,-174.828 L 28.714,-174.974 L 28.4702,-175.151
 L 28.2505,-175.357 L 28.0583,-175.589 L 27.8969,-175.844 L 27.7685,-176.117 L 27.6754,-176.403 L 27.6189,-176.699
 L 27.6,-177 L 27.6189,-177.301 L 27.6754,-177.597 L 27.7685,-177.883 L 27.8969,-178.156 L 28.0583,-178.411
 L 28.2505,-178.643 L 28.4702,-178.849 L 28.714,-179.026 L 28.9781,-179.172 L 29.2583,-179.283 L 29.5503,-179.357
 L 29.8493,-179.395 L 30.1507,-179.395 L 30.4497,-179.357 L 30.7416,-179.283 L 31.0219,-179.172 L 31.286,-179.026
 L 31.5298,-178.849 L 31.7495,-178.643 L 31.9416,-178.411 L 32.1031,-178.156 L 32.2315,-177.883 L 32.3246,-177.597
 L 32.3811,-177.301 L 32.4,-177 L 32.3811,-176.699 L 32.3246,-176.403 L 32.2315,-176.117 L 32.1031,-175.844
 L 31.9416,-175.589 L 31.7495,-175.357 L 31.5298,-175.151 L 31.286,-174.974 L 31.0219,-174.828 L 30.7416,-174.717
 L 30.4497,-174.643 L 30.1507,-174.605 z
M -30.1507,-174.605 L -30.4497,-174.643 L -30.7416,-174.717 L -31.0219,-174.828 L -31.286,-174.974 L -31.5298,-175.151
 L -31.7495,-175.357 L -31.9416,-175.589 L -32.1031,-175.844 L -32.2315,-176.117 L -32.3246,-176.403 L -32.3811,-176.699
 L -32.4,-177 L -32.3811,-177.301 L -32.3246,-177.597 L -32.2315,-177.883 L -32.1031,-178.156 L -31.9416,-178.411
 L -31.7495,-178.643 L -31.5298,-178.849 L -31.286,-179.026 L -31.0219,-179.172 L -30.7416,-179.283 L -30.4497,-179.357
 L -30.1507,-179.395 L -29.8493,-179.395 L -29.5503,-179.357 L -29.2583,-179.283 L -28.9781,-179.172 L -28.714,-179.026
 L -28.4702,-178.849 L -28.2505,-178.643 L -28.0583,-178.411 L -27.8969,-178.156 L -27.7685,-177.883 L -27.6754,-177.597
 L -27.6189,-177.301 L -27.6,-177 L -27.6189,-176.699 L -27.6754,-176.403 L -27.7685,-176.117 L -27.8969,-175.844
 L -28.0583,-175.589 L -28.2505,-175.357 L -28.4702,-175.151 L -28.714,-174.974 L -28.9781,-174.828 L -29.2583,-174.717
 L -29.5503,-174.643 L -29.8493,-174.605 z
M -30.1507,-144.605 L -30.4497,-144.643 L -30.7416,-144.717 L -31.0219,-144.828 L -31.286,-144.974 L -31.5298,-145.151
 L -31.7495,-145.357 L -31.9416,-145.589 L -32.1031,-145.844 L -32.2315,-146.117 L -32.3246,-146.403 L -32.3811,-146.699
 L -32.4,-147 L -32.3811,-147.301 L -32.3246,-147.597 L -32.2315,-147.883 L -32.1031,-148.156 L -31.9416,-148.411
 L -31.7495,-148.643 L -31.5298,-148.849 L -31.286,-149.026 L -31.0219,-149.172 L -30.7416,-149.283 L -30.4497,-149.357
 L -30.1507,-149.395 L -29.8493,-149.395 L -29.5503,-149.357 L -29.2583,-149.283 L -28.9781,-149.172 L -28.714,-149.026
 L -28.4702,-148.849 L -28.2505,-148.643 L -28.0583,-148.411 L -27.8969,-148.156 L -27.7685,-147.883 L -27.6754,-147.597
 L -27.6189,-147.301 L -27.6,-147 L -27.6189,-146.699 L -27.6754,-146.403 L -27.7685,-146.117 L -27.8969,-145.844
 L -28.0583,-145.589 L -28.2505,-145.357 L -28.4702,-145.151 L -28.714,-144.974 L -28.9781,-144.828 L -29.2583,-144.717
 L -29.5503,-144.643 L -29.8493,-144.605 z
M 29.8493,-144.605 L 29.5503,-144.643 L 29.2583,-144.717 L 28.9781,-144.828 L 28.714,-144.974 L 28.4702,-145.151
 L 28.2505,-145.357 L 28.0583,-145.589 L 27.8969,-145.844 L 27.7685,-146.117 L 27.6754,-146.403 L 27.6189,-146.699
 L 27.6,-147 L 27.6189,-147.301 L 27.6754,-147.597 L 27.7685,-147.883 L 27.8969,-148.156 L 28.0583,-148.411
 L 28.2505,-148.643 L 28.4702,-148.849 L 28.714,-149.026 L 28.9781,-149.172 L 29.2583,-149.283 L 29.5503,-149.357
 L 29.8493,-149.395 L 30.1507,-149.395 L 30.4497,-149.357 L 30.7416,-149.283 L 31.0219,-149.172 L 31.286,-149.026
 L 31.5298,-148.849 L 31.7495,-148.643 L 31.9416,-148.411 L 32.1031,-148.156 L 32.2315,-147.883 L 32.3246,-147.597
 L 32.3811,-147.301 L 32.4,-147 L 32.3811,-146.699 L 32.3246,-146.403 L 32.2315,-146.117 L 32.1031,-145.844
 L 31.9416,-145.589 L 31.7495,-145.357 L 31.5298,-145.151 L 31.286,-144.974 L 31.0219,-144.828 L 30.7416,-144.717
 L 30.4497,-144.643 L 30.1507,-144.605 z
M -36.0451,-250.061 L -35.6448,-249.577 L -35.1871,-249.147 L -34.6791,-248.778 L -34.1289,-248.476 L -33.5451,-248.245
 L -32.9369,-248.089 L -32.3139,-248.01 L 32.3139,-248.01 L 32.9369,-248.089 L 33.5451,-248.245 L 34.1289,-248.476
 L 34.6791,-248.778 L 35.1871,-249.147 L 35.6448,-249.577 L 36.0451,-250.061 L 36.3815,-250.591 L 36.6489,-251.159
 L 36.8429,-251.757 L 36.9606,-252.373 L 37,-253 L 37,-287 L 36.9606,-287.627 L 36.8429,-288.243
 L 36.6489,-288.841 L 36.3815,-289.409 L 36.0451,-289.939 L 35.6448,-290.423 L 35.1871,-290.853 L 34.6791,-291.222
 L 34.1289,-291.524 L 33.5451,-291.755 L 32.9369,-291.911 L 32.3139,-291.99 L -32.3139,-291.99 L -32.9369,-291.911
 L -33.5451,-291.755 L -34.1289,-291.524 L -34.6791,-291.222 L -35.1871,-290.853 L -35.6448,-290.423 L -36.0451,-289.939
 L -36.3815,-289.409 L -36.6489,-288.841 L -36.8429,-288.243 L -36.9606,-287.627 L -37,-287 L -37,-253
 L -36.9606,-252.373 L -36.8429,-251.757 L -36.6489,-251.159 L -36.3815,-250.591 z
M -35.8421,-252.515 L -35.8726,-253 L -35.8726,-287 L -35.8421,-287.485 L -35.751,-287.963 L -35.6007,-288.426
 L -35.3936,-288.866 L -35.133,-289.276 L -34.823,-289.651 L -34.4685,-289.984 L -34.0751,-290.27 L -33.6489,-290.504
 L -33.1967,-290.683 L -32.7256,-290.804 L -32.2432,-290.865 L 32.2432,-290.865 L 32.7256,-290.804 L 33.1967,-290.683
 L 33.6489,-290.504 L 34.0751,-290.27 L 34.4685,-289.984 L 34.823,-289.651 L 35.133,-289.276 L 35.3936,-288.866
 L 35.6007,-288.426 L 35.751,-287.963 L 35.8421,-287.485 L 35.8726,-287 L 35.8726,-253 L 35.8421,-252.515
 L 35.751,-252.037 L 35.6007,-251.574 L 35.3936,-251.134 L 35.133,-250.724 L 34.823,-250.349 L 34.4685,-250.016
 L 34.0751,-249.73 L 33.6489,-249.496 L 33.1967,-249.317 L 32.7256,-249.196 L 32.2432,-249.135 L -32.2432,-249.135
 L -32.7256,-249.196 L -33.1967,-249.317 L -33.6489,-249.496 L -34.0751,-249.73 L -34.4685,-250.016 L -34.823,-250.349
 L -35.133,-250.724 L -35.3936,-251.134 L -35.6007,-251.574 L -35.751,-252.037 z
" stroke="black" fill="lightgray" stroke-width="0.5"/>
</svg>
