<?xml version="1.0" standalone="no"?>
<!DOCTYPE svg PUBLIC "-//W3C//DTD SVG 1.1//EN" "http://www.w3.org/Graphics/SVG/1.1/DTD/svg11.dtd">
<svg width="30mm" height="412mm" viewBox="-15 -794 30 412" xmlns="http://www.w3.org/2000/svg" version="1.1">
<title>OpenSCAD Model</title>
<path d="
M 10.9369,-718.589 L 11.5451,-718.745 L 12.1289,-718.976 L 12.6791,-719.278 L 13.1871,-719.647 L 13.6448,-720.077
 L 14.0451,-720.561 L 14.3815,-721.091 L 14.6489,-721.659 L 14.8429,-722.257 L 14.9606,-722.873 L 15,-723.5
 L 15,-788.5 L 14.9606,-789.127 L 14.8429,-789.743 L 14.6489,-790.341 L 14.3815,-790.909 L 14.0451,-791.439
 L 13.6448,-791.923 L 13.1871,-792.353 L 12.6791,-792.722 L 12.1289,-793.024 L 11.5451,-793.255 L 10.9369,-793.411
 L 10.3139,-793.49 L -10.3139,-793.49 L -10.9369,-793.411 L -11.5451,-793.255 L -12.1289,-793.024 L -12.6791,-792.722
 L -13.1871,-792.353 L -13.6448,-791.923 L -14.0451,-791.439 L -14.3815,-790.909 L -14.6489,-790.341 L -14.8429,-789.743
 L -14.9606,-789.127 L -15,-788.5 L -15,-723.5 L -14.9606,-722.873 L -14.8429,-722.257 L -14.6489,-721.659
 L -14.3815,-721.091 L -14.0451,-720.561 L -13.6448,-720.077 L -13.1871,-719.647 L -12.6791,-719.278 L -12.1289,-718.976
 L -11.5451,-718.745 L -10.9369,-718.589 L -10.3139,-718.51 L 10.3139,-718.51 z
M -4.81104,-719.009 L -4.32086,-719.278 L -3.81287,-719.647 L -3.35515,-720.077 L -2.95491,-720.561 L -2.61845,-721.091
 L -2.3511,-721.659 L -2.15707,-722.257 L -2.03941,-722.873 L -2,-723.5 L -2,-726.5 L -2.03941,-727.127
 L -2.15707,-727.743 L -2.3511,-728.341 L -2.61845,-728.909 L -2.95491,-729.439 L -3.35515,-729.923 L -3.81287,-730.353
 L -4.32086,-730.722 L -4.87109,-731.024 L -5.45491,-731.255 L -6.06308,-731.411 L -6.68604,-731.49 L -10.3139,-731.49
 L -10.9369,-731.411 L -11.5451,-731.255 L -12.1289,-731.024 L -12.6791,-730.722 L -13.1871,-730.353 L -13.6448,-729.923
 L -14.0451,-729.439 L -14.3815,-728.909 L -14.5,-728.657 L -14.5,-788.5 L -14.4645,-789.064 L -14.3586,-789.619
 L -14.184,-790.157 L -13.9434,-790.668 L -13.6406,-791.145 L -13.2803,-791.58 L -12.8684,-791.967 L -12.4112,-792.299
 L -11.916,-792.572 L -11.3906,-792.78 L -10.8432,-792.92 L -10.2825,-792.991 L 10.2825,-792.991 L 10.8432,-792.92
 L 11.3906,-792.78 L 11.916,-792.572 L 12.4112,-792.299 L 12.8684,-791.967 L 13.2803,-791.58 L 13.6406,-791.145
 L 13.9434,-790.668 L 14.184,-790.157 L 14.3586,-789.619 L 14.4645,-789.064 L 14.5,-788.5 L 14.5,-723.5
 L 14.4645,-722.936 L 14.3586,-722.381 L 14.184,-721.843 L 13.9434,-721.332 L 13.6406,-720.855 L 13.2803,-720.42
 L 12.8684,-720.033 L 12.4112,-719.701 L 11.916,-719.428 L 11.3906,-719.22 L 10.8432,-719.08 L 10.2825,-719.009
 z
M 7.96844,-783.544 L 8.27254,-783.622 L 8.56444,-783.738 L 8.83955,-783.889 L 9.09355,-784.074 L 9.32242,-784.289
 L 9.52254,-784.531 L 9.69077,-784.796 L 9.82443,-785.08 L 9.92145,-785.378 L 9.98029,-785.687 L 10,-786
 L 9.98029,-786.313 L 9.92145,-786.622 L 9.82443,-786.92 L 9.69077,-787.204 L 9.52254,-787.469 L 9.32242,-787.711
 L 9.09355,-787.926 L 8.83955,-788.111 L 8.56444,-788.262 L 8.27254,-788.378 L 7.96844,-788.456 L 7.65697,-788.495
 L 7.34302,-788.495 L 7.03154,-788.456 L 6.72745,-788.378 L 6.43555,-788.262 L 6.16043,-788.111 L 5.90643,-787.926
 L 5.67757,-787.711 L 5.47745,-787.469 L 5.30922,-787.204 L 5.17555,-786.92 L 5.07854,-786.622 L 5.0197,-786.313
 L 5,-786 L 5.0197,-785.687 L 5.07854,-785.378 L 5.17555,-785.08 L 5.30922,-784.796 L 5.47745,-784.531
 L 5.67757,-784.289 L 5.90643,-784.074 L 6.16043,-783.889 L 6.43555,-783.738 L 6.72745,-783.622 L 7.03154,-783.544
 L 7.34302,-783.505 L 7.65697,-783.505 z
M 7.40581,-784.503 L 7.21892,-784.527 L 7.03647,-784.573 L 6.86133,-784.643 L 6.69626,-784.734 L 6.54385,-784.844
 L 6.40654,-784.973 L 6.28647,-785.118 L 6.18553,-785.277 L 6.10533,-785.448 L 6.04712,-785.627 L 6.01183,-785.812
 L 6,-786 L 6.01183,-786.188 L 6.04712,-786.373 L 6.10533,-786.552 L 6.18553,-786.723 L 6.28647,-786.882
 L 6.40654,-787.027 L 6.54385,-787.156 L 6.69626,-787.266 L 6.86133,-787.357 L 7.03647,-787.427 L 7.21892,-787.473
 L 7.40581,-787.497 L 7.59418,-787.497 L 7.78107,-787.473 L 7.96352,-787.427 L 8.13866,-787.357 L 8.30373,-787.266
 L 8.45613,-787.156 L 8.59344,-787.027 L 8.71352,-786.882 L 8.81445,-786.723 L 8.89465,-786.552 L 8.95287,-786.373
 L 8.98816,-786.188 L 9,-786 L 8.98816,-785.812 L 8.95287,-785.627 L 8.89465,-785.448 L 8.81445,-785.277
 L 8.71352,-785.118 L 8.59344,-784.973 L 8.45613,-784.844 L 8.30373,-784.734 L 8.13866,-784.643 L 7.96352,-784.573
 L 7.78107,-784.527 L 7.59418,-784.503 z
M -7.59418,-724.503 L -7.78107,-724.527 L -7.96352,-724.573 L -8.13866,-724.643 L -8.30373,-724.734 L -8.45613,-724.844
 L -8.59344,-724.973 L -8.71352,-725.118 L -8.81445,-725.277 L -8.89465,-725.448 L -8.95287,-725.627 L -8.98816,-725.812
 L -9,-726 L -8.98816,-726.188 L -8.95287,-726.373 L -8.89465,-726.552 L -8.81445,-726.723 L -8.71352,-726.882
 L -8.59344,-727.027 L -8.45613,-727.156 L -8.30373,-727.266 L -8.13866,-727.357 L -7.96352,-727.427 L -7.78107,-727.473
 L -7.59418,-727.497 L -7.40581,-727.497 L -7.21892,-727.473 L -7.03647,-727.427 L -6.86133,-727.357 L -6.69626,-727.266
 L -6.54385,-727.156 L -6.40654,-727.027 L -6.28647,-726.882 L -6.18553,-726.723 L -6.10533,-726.552 L -6.04712,-726.373
 L -6.01183,-726.188 L -6,-726 L -6.01183,-725.812 L -6.04712,-725.627 L -6.10533,-725.448 L -6.18553,-725.277
 L -6.28647,-725.118 L -6.40654,-724.973 L -6.54385,-724.844 L -6.69626,-724.734 L -6.86133,-724.643 L -7.03647,-724.573
 L -7.21892,-724.527 L -7.40581,-724.503 z
M 10.9369,-634.589 L 11.5451,-634.745 L 12.1289,-634.976 L 12.6791,-635.278 L 13.1871,-635.647 L 13.6448,-636.077
 L 14.0451,-636.561 L 14.3815,-637.091 L 14.6489,-637.659 L 14.8429,-638.257 L 14.9606,-638.873 L 15,-639.5
 L 15,-704.5 L 14.9606,-705.127 L 14.8429,-705.743 L 14.6489,-706.341 L 14.3815,-706.909 L 14.0451,-707.439
 L 13.6448,-707.923 L 13.1871,-708.353 L 12.6791,-708.722 L 12.1289,-709.024 L 11.5451,-709.255 L 10.9369,-709.411
 L 10.3139,-709.49 L -10.3139,-709.49 L -10.9369,-709.411 L -11.5451,-709.255 L -12.1289,-709.024 L -12.6791,-708.722
 L -13.1871,-708.353 L -13.6448,-707.923 L -14.0451,-707.439 L -14.3815,-706.909 L -14.6489,-706.341 L -14.8429,-705.743
 L -14.9606,-705.127 L -15,-704.5 L -15,-639.5 L -14.9606,-638.873 L -14.8429,-638.257 L -14.6489,-637.659
 L -14.3815,-637.091 L -14.0451,-636.561 L -13.6448,-636.077 L -13.1871,-635.647 L -12.6791,-635.278 L -12.1289,-634.976
 L -11.5451,-634.745 L -10.9369,-634.589 L -10.3139,-634.51 L 10.3139,-634.51 z
M -4.81104,-635.009 L -4.32086,-635.278 L -3.81287,-635.647 L -3.35515,-636.077 L -2.95491,-636.561 L -2.61845,-637.091
 L -2.3511,-637.659 L -2.15707,-638.257 L -2.03941,-638.873 L -2,-639.5 L -2,-642.5 L -2.03941,-643.127
 L -2.15707,-643.743 L -2.3511,-644.341 L -2.61845,-644.909 L -2.95491,-645.439 L -3.35515,-645.923 L -3.81287,-646.353
 L -4.32086,-646.722 L -4.87109,-647.024 L -5.45491,-647.255 L -6.06308,-647.411 L -6.68604,-647.49 L -10.3139,-647.49
 L -10.9369,-647.411 L -11.5451,-647.255 L -12.1289,-647.024 L -12.6791,-646.722 L -13.1871,-646.353 L -13.6448,-645.923
 L -14.0451,-645.439 L -14.3815,-644.909 L -14.5,-644.657 L -14.5,-704.5 L -14.4645,-705.064 L -14.3586,-705.619
 L -14.184,-706.157 L -13.9434,-706.668 L -13.6406,-707.145 L -13.2803,-707.58 L -12.8684,-707.967 L -12.4112,-708.299
 L -11.916,-708.572 L -11.3906,-708.78 L -10.8432,-708.92 L -10.2825,-708.991 L 10.2825,-708.991 L 10.8432,-708.92
 L 11.3906,-708.78 L 11.916,-708.572 L 12.4112,-708.299 L 12.8684,-707.967 L 13.2803,-707.58 L 13.6406,-707.145
 L 13.9434,-706.668 L 14.184,-706.157 L 14.3586,-705.619 L 14.4645,-705.064 L 14.5,-704.5 L 14.5,-639.5
 L 14.4645,-638.936 L 14.3586,-638.381 L 14.184,-637.843 L 13.9434,-637.332 L 13.6406,-636.855 L 13.2803,-636.42
 L 12.8684,-636.033 L 12.4112,-635.701 L 11.916,-635.428 L 11.3906,-635.22 L 10.8432,-635.08 L 10.2825,-635.009
 z
M 7.96844,-699.544 L 8.27254,-699.622 L 8.56444,-699.738 L 8.83955,-699.889 L 9.09355,-700.074 L 9.32242,-700.289
 L 9.52254,-700.531 L 9.69077,-700.796 L 9.82443,-701.08 L 9.92145,-701.378 L 9.98029,-701.687 L 10,-702
 L 9.98029,-702.313 L 9.92145,-702.622 L 9.82443,-702.92 L 9.69077,-703.204 L 9.52254,-703.469 L 9.32242,-703.711
 L 9.09355,-703.926 L 8.83955,-704.111 L 8.56444,-704.262 L 8.27254,-704.378 L 7.96844,-704.456 L 7.65697,-704.495
 L 7.34302,-704.495 L 7.03154,-704.456 L 6.72745,-704.378 L 6.43555,-704.262 L 6.16043,-704.111 L 5.90643,-703.926
 L 5.67757,-703.711 L 5.47745,-703.469 L 5.30922,-703.204 L 5.17555,-702.92 L 5.07854,-702.622 L 5.0197,-702.313
 L 5,-702 L 5.0197,-701.687 L 5.07854,-701.378 L 5.17555,-701.08 L 5.30922,-700.796 L 5.47745,-700.531
 L 5.67757,-700.289 L 5.90643,-700.074 L 6.16043,-699.889 L 6.43555,-699.738 L 6.72745,-699.622 L 7.03154,-699.544
 L 7.34302,-699.505 L 7.65697,-699.505 z
M 7.40581,-700.503 L 7.21892,-700.527 L 7.03647,-700.573 L 6.86133,-700.643 L 6.69626,-700.734 L 6.54385,-700.844
 L 6.40654,-700.973 L 6.28647,-701.118 L 6.18553,-701.277 L 6.10533,-701.448 L 6.04712,-701.627 L 6.01183,-701.812
 L 6,-702 L 6.01183,-702.188 L 6.04712,-702.373 L 6.10533,-702.552 L 6.18553,-702.723 L 6.28647,-702.882
 L 6.40654,-703.027 L 6.54385,-703.156 L 6.69626,-703.266 L 6.86133,-703.357 L 7.03647,-703.427 L 7.21892,-703.473
 L 7.40581,-703.497 L 7.59418,-703.497 L 7.78107,-703.473 L 7.96352,-703.427 L 8.13866,-703.357 L 8.30373,-703.266
 L 8.45613,-703.156 L 8.59344,-703.027 L 8.71352,-702.882 L 8.81445,-702.723 L 8.89465,-702.552 L 8.95287,-702.373
 L 8.98816,-702.188 L 9,-702 L 8.98816,-701.812 L 8.95287,-701.627 L 8.89465,-701.448 L 8.81445,-701.277
 L 8.71352,-701.118 L 8.59344,-700.973 L 8.45613,-700.844 L 8.30373,-700.734 L 8.13866,-700.643 L 7.96352,-700.573
 L 7.78107,-700.527 L 7.59418,-700.503 z
M -7.59418,-640.503 L -7.78107,-640.527 L -7.96352,-640.573 L -8.13866,-640.643 L -8.30373,-640.734 L -8.45613,-640.844
 L -8.59344,-640.973 L -8.71352,-641.118 L -8.81445,-641.277 L -8.89465,-641.448 L -8.95287,-641.627 L -8.98816,-641.812
 L -9,-642 L -8.98816,-642.188 L -8.95287,-642.373 L -8.89465,-642.552 L -8.81445,-642.723 L -8.71352,-642.882
 L -8.59344,-643.027 L -8.45613,-643.156 L -8.30373,-643.266 L -8.13866,-643.357 L -7.96352,-643.427 L -7.78107,-643.473
 L -7.59418,-643.497 L -7.40581,-643.497 L -7.21892,-643.473 L -7.03647,-643.427 L -6.86133,-643.357 L -6.69626,-643.266
 L -6.54385,-643.156 L -6.40654,-643.027 L -6.28647,-642.882 L -6.18553,-642.723 L -6.10533,-642.552 L -6.04712,-642.373
 L -6.01183,-642.188 L -6,-642 L -6.01183,-641.812 L -6.04712,-641.627 L -6.10533,-641.448 L -6.18553,-641.277
 L -6.28647,-641.118 L -6.40654,-640.973 L -6.54385,-640.844 L -6.69626,-640.734 L -6.86133,-640.643 L -7.03647,-640.573
 L -7.21892,-640.527 L -7.40581,-640.503 z
M 10.9369,-550.589 L 11.5451,-550.745 L 12.1289,-550.976 L 12.6791,-551.278 L 13.1871,-551.647 L 13.6448,-552.077
 L 14.0451,-552.561 L 14.3815,-553.091 L 14.6489,-553.659 L 14.8429,-554.257 L 14.9606,-554.873 L 15,-555.5
 L 15,-620.5 L 14.9606,-621.127 L 14.8429,-621.743 L 14.6489,-622.341 L 14.3815,-622.909 L 14.0451,-623.439
 L 13.6448,-623.923 L 13.1871,-624.353 L 12.6791,-624.722 L 12.1289,-625.024 L 11.5451,-625.255 L 10.9369,-625.411
 L 10.3139,-625.49 L -10.3139,-625.49 L -10.9369,-625.411 L -11.5451,-625.255 L -12.1289,-625.024 L -12.6791,-624.722
 L -13.1871,-624.353 L -13.6448,-623.923 L -14.0451,-623.439 L -14.3815,-622.909 L -14.6489,-622.341 L -14.8429,-621.743
 L -14.9606,-621.127 L -15,-620.5 L -15,-555.5 L -14.9606,-554.873 L -14.8429,-554.257 L -14.6489,-553.659
 L -14.3815,-553.091 L -14.0451,-552.561 L -13.6448,-552.077 L -13.1871,-551.647 L -12.6791,-551.278 L -12.1289,-550.976
 L -11.5451,-550.745 L -10.9369,-550.589 L -10.3139,-550.51 L 10.3139,-550.51 z
M -4.81104,-551.009 L -4.32086,-551.278 L -3.81287,-551.647 L -3.35515,-552.077 L -2.95491,-552.561 L -2.61845,-553.091
 L -2.3511,-553.659 L -2.15707,-554.257 L -2.03941,-554.873 L -2,-555.5 L -2,-558.5 L -2.03941,-559.127
 L -2.15707,-559.743 L -2.3511,-560.341 L -2.61845,-560.909 L -2.95491,-561.439 L -3.35515,-561.923 L -3.81287,-562.353
 L -4.32086,-562.722 L -4.87109,-563.024 L -5.45491,-563.255 L -6.06308,-563.411 L -6.68604,-563.49 L -10.3139,-563.49
 L -10.9369,-563.411 L -11.5451,-563.255 L -12.1289,-563.024 L -12.6791,-562.722 L -13.1871,-562.353 L -13.6448,-561.923
 L -14.0451,-561.439 L -14.3815,-560.909 L -14.5,-560.657 L -14.5,-620.5 L -14.4645,-621.064 L -14.3586,-621.619
 L -14.184,-622.157 L -13.9434,-622.668 L -13.6406,-623.145 L -13.2803,-623.58 L -12.8684,-623.967 L -12.4112,-624.299
 L -11.916,-624.572 L -11.3906,-624.78 L -10.8432,-624.92 L -10.2825,-624.991 L 10.2825,-624.991 L 10.8432,-624.92
 L 11.3906,-624.78 L 11.916,-624.572 L 12.4112,-624.299 L 12.8684,-623.967 L 13.2803,-623.58 L 13.6406,-623.145
 L 13.9434,-622.668 L 14.184,-622.157 L 14.3586,-621.619 L 14.4645,-621.064 L 14.5,-620.5 L 14.5,-555.5
 L 14.4645,-554.936 L 14.3586,-554.381 L 14.184,-553.843 L 13.9434,-553.332 L 13.6406,-552.855 L 13.2803,-552.42
 L 12.8684,-552.033 L 12.4112,-551.701 L 11.916,-551.428 L 11.3906,-551.22 L 10.8432,-551.08 L 10.2825,-551.009
 z
M 7.96844,-615.544 L 8.27254,-615.622 L 8.56444,-615.738 L 8.83955,-615.889 L 9.09355,-616.074 L 9.32242,-616.289
 L 9.52254,-616.531 L 9.69077,-616.796 L 9.82443,-617.08 L 9.92145,-617.378 L 9.98029,-617.687 L 10,-618
 L 9.98029,-618.313 L 9.92145,-618.622 L 9.82443,-618.92 L 9.69077,-619.204 L 9.52254,-619.469 L 9.32242,-619.711
 L 9.09355,-619.926 L 8.83955,-620.111 L 8.56444,-620.262 L 8.27254,-620.378 L 7.96844,-620.456 L 7.65697,-620.495
 L 7.34302,-620.495 L 7.03154,-620.456 L 6.72745,-620.378 L 6.43555,-620.262 L 6.16043,-620.111 L 5.90643,-619.926
 L 5.67757,-619.711 L 5.47745,-619.469 L 5.30922,-619.204 L 5.17555,-618.92 L 5.07854,-618.622 L 5.0197,-618.313
 L 5,-618 L 5.0197,-617.687 L 5.07854,-617.378 L 5.17555,-617.08 L 5.30922,-616.796 L 5.47745,-616.531
 L 5.67757,-616.289 L 5.90643,-616.074 L 6.16043,-615.889 L 6.43555,-615.738 L 6.72745,-615.622 L 7.03154,-615.544
 L 7.34302,-615.505 L 7.65697,-615.505 z
M 7.40581,-616.503 L 7.21892,-616.527 L 7.03647,-616.573 L 6.86133,-616.643 L 6.69626,-616.734 L 6.54385,-616.844
 L 6.40654,-616.973 L 6.28647,-617.118 L 6.18553,-617.277 L 6.10533,-617.448 L 6.04712,-617.627 L 6.01183,-617.812
 L 6,-618 L 6.01183,-618.188 L 6.04712,-618.373 L 6.10533,-618.552 L 6.18553,-618.723 L 6.28647,-618.882
 L 6.40654,-619.027 L 6.54385,-619.156 L 6.69626,-619.266 L 6.86133,-619.357 L 7.03647,-619.427 L 7.21892,-619.473
 L 7.40581,-619.497 L 7.59418,-619.497 L 7.78107,-619.473 L 7.96352,-619.427 L 8.13866,-619.357 L 8.30373,-619.266
 L 8.45613,-619.156 L 8.59344,-619.027 L 8.71352,-618.882 L 8.81445,-618.723 L 8.89465,-618.552 L 8.95287,-618.373
 L 8.98816,-618.188 L 9,-618 L 8.98816,-617.812 L 8.95287,-617.627 L 8.89465,-617.448 L 8.81445,-617.277
 L 8.71352,-617.118 L 8.59344,-616.973 L 8.45613,-616.844 L 8.30373,-616.734 L 8.13866,-616.643 L 7.96352,-616.573
 L 7.78107,-616.527 L 7.59418,-616.503 z
M -7.59418,-556.503 L -7.78107,-556.527 L -7.96352,-556.573 L -8.13866,-556.643 L -8.30373,-556.734 L -8.45613,-556.844
 L -8.59344,-556.973 L -8.71352,-557.118 L -8.81445,-557.277 L -8.89465,-557.448 L -8.95287,-557.627 L -8.98816,-557.812
 L -9,-558 L -8.98816,-558.188 L -8.95287,-558.373 L -8.89465,-558.552 L -8.81445,-558.723 L -8.71352,-558.882
 L -8.59344,-559.027 L -8.45613,-559.156 L -8.30373,-559.266 L -8.13866,-559.357 L -7.96352,-559.427 L -7.78107,-559.473
 L -7.59418,-559.497 L -7.40581,-559.497 L -7.21892,-559.473 L -7.03647,-559.427 L -6.86133,-559.357 L -6.69626,-559.266
 L -6.54385,-559.156 L -6.40654,-559.027 L -6.28647,-558.882 L -6.18553,-558.723 L -6.10533,-558.552 L -6.04712,-558.373
 L -6.01183,-558.188 L -6,-558 L -6.01183,-557.812 L -6.04712,-557.627 L -6.10533,-557.448 L -6.18553,-557.277
 L -6.28647,-557.118 L -6.40654,-556.973 L -6.54385,-556.844 L -6.69626,-556.734 L -6.86133,-556.643 L -7.03647,-556.573
 L -7.21892,-556.527 L -7.40581,-556.503 z
M 10.9369,-466.589 L 11.5451,-466.745 L 12.1289,-466.976 L 12.6791,-467.278 L 13.1871,-467.647 L 13.6448,-468.077
 L 14.0451,-468.561 L 14.3815,-469.091 L 14.6489,-469.659 L 14.8429,-470.257 L 14.9606,-470.873 L 15,-471.5
 L 15,-536.5 L 14.9606,-537.127 L 14.8429,-537.743 L 14.6489,-538.341 L 14.3815,-538.909 L 14.0451,-539.439
 L 13.6448,-539.923 L 13.1871,-540.353 L 12.6791,-540.722 L 12.1289,-541.024 L 11.5451,-541.255 L 10.9369,-541.411
 L 10.3139,-541.49 L -10.3139,-541.49 L -10.9369,-541.411 L -11.5451,-541.255 L -12.1289,-541.024 L -12.6791,-540.722
 L -13.1871,-540.353 L -13.6448,-539.923 L -14.0451,-539.439 L -14.3815,-538.909 L -14.6489,-538.341 L -14.8429,-537.743
 L -14.9606,-537.127 L -15,-536.5 L -15,-471.5 L -14.9606,-470.873 L -14.8429,-470.257 L -14.6489,-469.659
 L -14.3815,-469.091 L -14.0451,-468.561 L -13.6448,-468.077 L -13.1871,-467.647 L -12.6791,-467.278 L -12.1289,-466.976
 L -11.5451,-466.745 L -10.9369,-466.589 L -10.3139,-466.51 L 10.3139,-466.51 z
M -4.75392,-467.04 L -4.32086,-467.278 L -3.81287,-467.647 L -3.35515,-468.077 L -2.95491,-468.561 L -2.61845,-469.091
 L -2.3511,-469.659 L -2.15707,-470.257 L -2.03941,-470.873 L -2,-471.5 L -2,-474.5 L -2.03941,-475.127
 L -2.15707,-475.743 L -2.3511,-476.341 L -2.61845,-476.909 L -2.95491,-477.439 L -3.35515,-477.923 L -3.81287,-478.353
 L -4.32086,-478.722 L -4.87109,-479.024 L -5.45491,-479.255 L -6.06308,-479.411 L -6.68604,-479.49 L -10.3139,-479.49
 L -10.9369,-479.411 L -11.5451,-479.255 L -12.1289,-479.024 L -12.6791,-478.722 L -13.1871,-478.353 L -13.6448,-477.923
 L -14.0451,-477.439 L -14.3815,-476.909 L -14.4685,-476.724 L -14.4685,-536.5 L -14.4333,-537.06 L -14.3281,-537.611
 L -14.1547,-538.145 L -13.9158,-538.653 L -13.6151,-539.127 L -13.2574,-539.559 L -12.8483,-539.943 L -12.3944,-540.273
 L -11.9026,-540.543 L -11.3808,-540.75 L -10.8373,-540.889 L -10.2806,-540.96 L 10.2806,-540.96 L 10.8373,-540.889
 L 11.3808,-540.75 L 11.9026,-540.543 L 12.3944,-540.273 L 12.8483,-539.943 L 13.2574,-539.559 L 13.6151,-539.127
 L 13.9158,-538.653 L 14.1547,-538.145 L 14.3281,-537.611 L 14.4333,-537.06 L 14.4685,-536.5 L 14.4685,-471.5
 L 14.4333,-470.94 L 14.3281,-470.389 L 14.1547,-469.855 L 13.9158,-469.347 L 13.6151,-468.873 L 13.2574,-468.441
 L 12.8483,-468.057 L 12.3944,-467.727 L 11.9026,-467.457 L 11.3808,-467.25 L 10.8373,-467.111 L 10.2806,-467.04
 z
M 7.96844,-531.544 L 8.27254,-531.622 L 8.56444,-531.738 L 8.83955,-531.889 L 9.09355,-532.074 L 9.32242,-532.289
 L 9.52254,-532.531 L 9.69077,-532.796 L 9.82443,-533.08 L 9.92145,-533.378 L 9.98029,-533.687 L 10,-534
 L 9.98029,-534.313 L 9.92145,-534.622 L 9.82443,-534.92 L 9.69077,-535.204 L 9.52254,-535.469 L 9.32242,-535.711
 L 9.09355,-535.926 L 8.83955,-536.111 L 8.56444,-536.262 L 8.27254,-536.378 L 7.96844,-536.456 L 7.65697,-536.495
 L 7.34302,-536.495 L 7.03154,-536.456 L 6.72745,-536.378 L 6.43555,-536.262 L 6.16043,-536.111 L 5.90643,-535.926
 L 5.67757,-535.711 L 5.47745,-535.469 L 5.30922,-535.204 L 5.17555,-534.92 L 5.07854,-534.622 L 5.0197,-534.313
 L 5,-534 L 5.0197,-533.687 L 5.07854,-533.378 L 5.17555,-533.08 L 5.30922,-532.796 L 5.47745,-532.531
 L 5.67757,-532.289 L 5.90643,-532.074 L 6.16043,-531.889 L 6.43555,-531.738 L 6.72745,-531.622 L 7.03154,-531.544
 L 7.34302,-531.505 L 7.65697,-531.505 z
M 7.40581,-532.503 L 7.21892,-532.527 L 7.03647,-532.573 L 6.86133,-532.643 L 6.69626,-532.734 L 6.54385,-532.844
 L 6.40654,-532.973 L 6.28647,-533.118 L 6.18553,-533.277 L 6.10533,-533.448 L 6.04712,-533.627 L 6.01183,-533.812
 L 6,-534 L 6.01183,-534.188 L 6.04712,-534.373 L 6.10533,-534.552 L 6.18553,-534.723 L 6.28647,-534.882
 L 6.40654,-535.027 L 6.54385,-535.156 L 6.69626,-535.266 L 6.86133,-535.357 L 7.03647,-535.427 L 7.21892,-535.473
 L 7.40581,-535.497 L 7.59418,-535.497 L 7.78107,-535.473 L 7.96352,-535.427 L 8.13866,-535.357 L 8.30373,-535.266
 L 8.45613,-535.156 L 8.59344,-535.027 L 8.71352,-534.882 L 8.81445,-534.723 L 8.89465,-534.552 L 8.95287,-534.373
 L 8.98816,-534.188 L 9,-534 L 8.98816,-533.812 L 8.95287,-533.627 L 8.89465,-533.448 L 8.81445,-533.277
 L 8.71352,-533.118 L 8.59344,-532.973 L 8.45613,-532.844 L 8.30373,-532.734 L 8.13866,-532.643 L 7.96352,-532.573
 L 7.78107,-532.527 L 7.59418,-532.503 z
M -7.59418,-472.503 L -7.78107,-472.527 L -7.96352,-472.573 L -8.13866,-472.643 L -8.30373,-472.734 L -8.45613,-472.844
 L -8.59344,-472.973 L -8.71352,-473.118 L -8.81445,-473.277 L -8.89465,-473.448 L -8.95287,-473.627 L -8.98816,-473.812
 L -9,-474 L -8.98816,-474.188 L -8.95287,-474.373 L -8.89465,-474.552 L -8.81445,-474.723 L -8.71352,-474.882
 L -8.59344,-475.027 L -8.45613,-475.156 L -8.30373,-475.266 L -8.13866,-475.357 L -7.96352,-475.427 L -7.78107,-475.473
 L -7.59418,-475.497 L -7.40581,-475.497 L -7.21892,-475.473 L -7.03647,-475.427 L -6.86133,-475.357 L -6.69626,-475.266
 L -6.54385,-475.156 L -6.40654,-475.027 L -6.28647,-474.882 L -6.18553,-474.723 L -6.10533,-474.552 L -6.04712,-474.373
 L -6.01183,-474.188 L -6,-474 L -6.01183,-473.812 L -6.04712,-473.627 L -6.10533,-473.448 L -6.18553,-473.277
 L -6.28647,-473.118 L -6.40654,-472.973 L -6.54385,-472.844 L -6.69626,-472.734 L -6.86133,-472.643 L -7.03647,-472.573
 L -7.21892,-472.527 L -7.40581,-472.503 z
M 10.9369,-382.589 L 11.5451,-382.745 L 12.1289,-382.976 L 12.6791,-383.278 L 13.1871,-383.647 L 13.6448,-384.077
 L 14.0451,-384.561 L 14.3815,-385.091 L 14.6489,-385.659 L 14.8429,-386.257 L 14.9606,-386.873 L 15,-387.5
 L 15,-452.5 L 14.9606,-453.127 L 14.8429,-453.743 L 14.6489,-454.341 L 14.3815,-454.909 L 14.0451,-455.439
 L 13.6448,-455.923 L 13.1871,-456.353 L 12.6791,-456.722 L 12.1289,-457.024 L 11.5451,-457.255 L 10.9369,-457.411
 L 10.3139,-457.49 L -10.3139,-457.49 L -10.9369,-457.411 L -11.5451,-457.255 L -12.1289,-457.024 L -12.6791,-456.722
 L -13.1871,-456.353 L -13.6448,-455.923 L -14.0451,-455.439 L -14.3815,-454.909 L -14.6489,-454.341 L -14.8429,-453.743
 L -14.9606,-453.127 L -15,-452.5 L -15,-387.5 L -14.9606,-386.873 L -14.8429,-386.257 L -14.6489,-385.659
 L -14.3815,-385.091 L -14.0451,-384.561 L -13.6448,-384.077 L -13.1871,-383.647 L -12.6791,-383.278 L -12.1289,-382.976
 L -11.5451,-382.745 L -10.9369,-382.589 L -10.3139,-382.51 L 10.3139,-382.51 z
M -2.87805,-384.682 L -2.61845,-385.091 L -2.3511,-385.659 L -2.15707,-386.257 L -2.03941,-386.873 L -2,-387.5
 L -2,-390.5 L -2.03941,-391.127 L -2.15707,-391.743 L -2.3511,-392.341 L -2.61845,-392.909 L -2.95491,-393.439
 L -3.35515,-393.923 L -3.81287,-394.353 L -4.32086,-394.722 L -4.87109,-395.024 L -5.45491,-395.255 L -6.06308,-395.411
 L -6.68604,-395.49 L -10.3139,-395.49 L -10.9369,-395.411 L -11.5451,-395.255 L -12.1289,-395.024 L -12.6791,-394.722
 L -12.8234,-394.617 L -12.8234,-452.5 L -12.8011,-452.854 L -12.7347,-453.202 L -12.6251,-453.539 L -12.4742,-453.86
 L -12.2842,-454.16 L -12.0582,-454.433 L -11.7997,-454.675 L -11.5128,-454.884 L -11.2021,-455.055 L -10.8725,-455.185
 L -10.5291,-455.273 L -10.1773,-455.318 L 2.87805,-455.318 L 2.61845,-454.909 L 2.3511,-454.341 L 2.15707,-453.743
 L 2.03941,-453.127 L 2,-452.5 L 2,-449.5 L 2.03941,-448.873 L 2.15707,-448.257 L 2.3511,-447.659
 L 2.61845,-447.091 L 2.95491,-446.561 L 3.35515,-446.077 L 3.81287,-445.647 L 4.32086,-445.278 L 4.87109,-444.976
 L 5.45491,-444.745 L 6.06308,-444.589 L 6.68604,-444.51 L 10.3139,-444.51 L 10.9369,-444.589 L 11.5451,-444.745
 L 12.1289,-444.976 L 12.6791,-445.278 L 12.8234,-445.383 L 12.8234,-387.5 L 12.8011,-387.146 L 12.7347,-386.798
 L 12.6251,-386.461 L 12.4742,-386.14 L 12.2842,-385.84 L 12.0582,-385.567 L 11.7997,-385.325 L 11.5128,-385.116
 L 11.2021,-384.945 L 10.8725,-384.815 L 10.5291,-384.727 L 10.1773,-384.682 z
M 7.34929,-447.605 L 7.05028,-447.643 L 6.75835,-447.717 L 6.47812,-447.828 L 6.214,-447.974 L 5.97017,-448.151
 L 5.75047,-448.357 L 5.55835,-448.589 L 5.39685,-448.844 L 5.26852,-449.117 L 5.1754,-449.403 L 5.11891,-449.699
 L 5.09999,-450 L 5.11891,-450.301 L 5.1754,-450.597 L 5.26852,-450.883 L 5.39685,-451.156 L 5.55835,-451.411
 L 5.75047,-451.643 L 5.97017,-451.849 L 6.214,-452.026 L 6.47812,-452.172 L 6.75835,-452.283 L 7.05028,-452.357
 L 7.34929,-452.395 L 7.6507,-452.395 L 7.94971,-452.357 L 8.24164,-452.283 L 8.52187,-452.172 L 8.78598,-452.026
 L 9.02982,-451.849 L 9.24951,-451.643 L 9.44164,-451.411 L 9.60313,-451.156 L 9.73146,-450.883 L 9.82458,-450.597
 L 9.88107,-450.301 L 9.89999,-450 L 9.88107,-449.699 L 9.82458,-449.403 L 9.73146,-449.117 L 9.60313,-448.844
 L 9.44164,-448.589 L 9.24951,-448.357 L 9.02982,-448.151 L 8.78598,-447.974 L 8.52187,-447.828 L 8.24164,-447.717
 L 7.94971,-447.643 L 7.6507,-447.605 z
M -7.6507,-387.605 L -7.94971,-387.643 L -8.24164,-387.717 L -8.52187,-387.828 L -8.78598,-387.974 L -9.02982,-388.151
 L -9.24951,-388.357 L -9.44164,-388.589 L -9.60313,-388.844 L -9.73146,-389.117 L -9.82458,-389.403 L -9.88107,-389.699
 L -9.89999,-390 L -9.88107,-390.301 L -9.82458,-390.597 L -9.73146,-390.883 L -9.60313,-391.156 L -9.44164,-391.411
 L -9.24951,-391.643 L -9.02982,-391.849 L -8.78598,-392.026 L -8.52187,-392.172 L -8.24164,-392.283 L -7.94971,-392.357
 L -7.6507,-392.395 L -7.34929,-392.395 L -7.05028,-392.357 L -6.75835,-392.283 L -6.47812,-392.172 L -6.214,-392.026
 L -5.97017,-391.849 L -5.75047,-391.643 L -5.55835,-391.411 L -5.39685,-391.156 L -5.26852,-390.883 L -5.1754,-390.597
 L -5.11891,-390.301 L -5.09999,-390 L -5.11891,-389.699 L -5.1754,-389.403 L -5.26852,-389.117 L -5.39685,-388.844
 L -5.55835,-388.589 L -5.75047,-388.357 L -5.97017,-388.151 L -6.214,-387.974 L -6.47812,-387.828 L -6.75835,-387.717
 L -7.05028,-387.643 L -7.34929,-387.605 z
" stroke="black" fill="lightgray" stroke-width="0.5"/>
</svg>
