<?xml version="1.0" standalone="no"?>
<!DOCTYPE svg PUBLIC "-//W3C//DTD SVG 1.1//EN" "http://www.w3.org/Graphics/SVG/1.1/DTD/svg11.dtd">
<svg width="40mm" height="147mm" viewBox="-21 -249 40 147" xmlns="http://www.w3.org/2000/svg" version="1.1">
<title>OpenSCAD Model</title>
<path d="
M -17.25,-221.507 L -16.8948,-221.077 L -16.4371,-220.647 L -15.9291,-220.278 L -15.3789,-219.976 L -14.7951,-219.745
 L -14.1869,-219.589 L -13.5639,-219.51 L 13.5639,-219.51 L 14.1869,-219.589 L 14.7951,-219.745 L 15.3789,-219.976
 L 15.9291,-220.278 L 16.4371,-220.647 L 16.8948,-221.077 L 17.2951,-221.561 L 17.6315,-222.091 L 17.8989,-222.659
 L 18.0929,-223.257 L 18.2106,-223.873 L 18.25,-224.5 L 18.25,-243.5 L 18.2106,-244.127 L 18.0929,-244.743
 L 17.8989,-245.341 L 17.6315,-245.909 L 17.2951,-246.439 L 16.8948,-246.923 L 16.4371,-247.353 L 15.9291,-247.722
 L 15.3789,-248.024 L 14.7951,-248.255 L 14.1869,-248.411 L 13.5639,-248.49 L -13.5639,-248.49 L -14.1869,-248.411
 L -14.7951,-248.255 L -15.3789,-248.024 L -15.9291,-247.722 L -16.4371,-247.353 L -16.8948,-246.923 L -17.25,-246.493
 L -17.25,-248.99 L -20.25,-248.99 L -20.25,-219.01 L -17.25,-219.01 z
M -13.5012,-220.508 L -13.9995,-220.571 L -14.4861,-220.696 L -14.9531,-220.881 L -15.3933,-221.123 L -15.7997,-221.418
 L -16.1659,-221.762 L -16.4861,-222.149 L -16.7552,-222.573 L -16.9691,-223.028 L -17.1243,-223.505 L -17.2184,-223.999
 L -17.25,-224.5 L -17.25,-243.5 L -17.2184,-244.001 L -17.1243,-244.495 L -16.9691,-244.972 L -16.7552,-245.427
 L -16.4861,-245.851 L -16.1659,-246.238 L -15.7997,-246.582 L -15.3933,-246.877 L -14.9531,-247.119 L -14.4861,-247.304
 L -13.9995,-247.429 L -13.5012,-247.492 L 13.5012,-247.492 L 13.9995,-247.429 L 14.4861,-247.304 L 14.9531,-247.119
 L 15.3933,-246.877 L 15.7997,-246.582 L 16.1659,-246.238 L 16.4861,-245.851 L 16.7552,-245.427 L 16.9691,-244.972
 L 17.1243,-244.495 L 17.2184,-244.001 L 17.25,-243.5 L 17.25,-224.5 L 17.2184,-223.999 L 17.1243,-223.505
 L 16.9691,-223.028 L 16.7552,-222.573 L 16.4861,-222.149 L 16.1659,-221.762 L 15.7997,-221.418 L 15.3933,-221.123
 L 14.9531,-220.881 L 14.4861,-220.696 L 13.9995,-220.571 L 13.5012,-220.508 z
M -17.25,-182.507 L -16.8948,-182.077 L -16.4371,-181.647 L -15.9291,-181.278 L -15.3789,-180.976 L -14.7951,-180.745
 L -14.1869,-180.589 L -13.5639,-180.51 L 13.5639,-180.51 L 14.1869,-180.589 L 14.7951,-180.745 L 15.3789,-180.976
 L 15.9291,-181.278 L 16.4371,-181.647 L 16.8948,-182.077 L 17.2951,-182.561 L 17.6315,-183.091 L 17.8989,-183.659
 L 18.0929,-184.257 L 18.2106,-184.873 L 18.25,-185.5 L 18.25,-204.5 L 18.2106,-205.127 L 18.0929,-205.743
 L 17.8989,-206.341 L 17.6315,-206.909 L 17.2951,-207.439 L 16.8948,-207.923 L 16.4371,-208.353 L 15.9291,-208.722
 L 15.3789,-209.024 L 14.7951,-209.255 L 14.1869,-209.411 L 13.5639,-209.49 L -13.5639,-209.49 L -14.1869,-209.411
 L -14.7951,-209.255 L -15.3789,-209.024 L -15.9291,-208.722 L -16.4371,-208.353 L -16.8948,-207.923 L -17.25,-207.493
 L -17.25,-209.99 L -20.25,-209.99 L -20.25,-180.01 L -17.25,-180.01 z
M -13.4932,-181.635 L -13.9756,-181.696 L -14.4467,-181.817 L -14.8989,-181.996 L -15.3251,-182.23 L -15.7185,-182.516
 L -16.073,-182.849 L -16.383,-183.224 L -16.6436,-183.634 L -16.8507,-184.074 L -17.001,-184.537 L -17.0921,-185.015
 L -17.1226,-185.5 L -17.1226,-204.5 L -17.0921,-204.985 L -17.001,-205.463 L -16.8507,-205.926 L -16.6436,-206.366
 L -16.383,-206.776 L -16.073,-207.151 L -15.7185,-207.484 L -15.3251,-207.77 L -14.8989,-208.004 L -14.4467,-208.183
 L -13.9756,-208.304 L -13.4932,-208.365 L 13.4932,-208.365 L 13.9756,-208.304 L 14.4467,-208.183 L 14.8989,-208.004
 L 15.3251,-207.77 L 15.7185,-207.484 L 16.073,-207.151 L 16.383,-206.776 L 16.6436,-206.366 L 16.8507,-205.926
 L 17.001,-205.463 L 17.0921,-204.985 L 17.1226,-204.5 L 17.1226,-185.5 L 17.0921,-185.015 L 17.001,-184.537
 L 16.8507,-184.074 L 16.6436,-183.634 L 16.383,-183.224 L 16.073,-182.849 L 15.7185,-182.516 L 15.3251,-182.23
 L 14.8989,-181.996 L 14.4467,-181.817 L 13.9756,-181.696 L 13.4932,-181.635 z
M -17.25,-143.507 L -16.8948,-143.077 L -16.4371,-142.647 L -15.9291,-142.278 L -15.3789,-141.976 L -14.7951,-141.745
 L -14.1869,-141.589 L -13.5639,-141.51 L 13.5639,-141.51 L 14.1869,-141.589 L 14.7951,-141.745 L 15.3789,-141.976
 L 15.9291,-142.278 L 16.4371,-142.647 L 16.8948,-143.077 L 17.2951,-143.561 L 17.6315,-144.091 L 17.8989,-144.659
 L 18.0929,-145.257 L 18.2106,-145.873 L 18.25,-146.5 L 18.25,-165.5 L 18.2106,-166.127 L 18.0929,-166.743
 L 17.8989,-167.341 L 17.6315,-167.909 L 17.2951,-168.439 L 16.8948,-168.923 L 16.4371,-169.353 L 15.9291,-169.722
 L 15.3789,-170.024 L 14.7951,-170.255 L 14.1869,-170.411 L 13.5639,-170.49 L -13.5639,-170.49 L -14.1869,-170.411
 L -14.7951,-170.255 L -15.3789,-170.024 L -15.9291,-169.722 L -16.4371,-169.353 L -16.8948,-168.923 L -17.25,-168.493
 L -17.25,-170.615 L -20.25,-170.615 L -20.25,-141.385 L -17.25,-141.385 z
M 14.1869,-102.589 L 14.7951,-102.745 L 15.3789,-102.976 L 15.9291,-103.278 L 16.4371,-103.647 L 16.8948,-104.077
 L 17.2951,-104.561 L 17.6315,-105.091 L 17.8989,-105.659 L 18.0929,-106.257 L 18.2106,-106.873 L 18.25,-107.5
 L 18.25,-126.5 L 18.2106,-127.127 L 18.0929,-127.743 L 17.8989,-128.341 L 17.6315,-128.909 L 17.2951,-129.439
 L 16.8948,-129.923 L 16.4371,-130.353 L 15.9291,-130.722 L 15.3789,-131.024 L 14.7951,-131.255 L 14.1869,-131.411
 L 13.5639,-131.49 L -13.5639,-131.49 L -14.1869,-131.411 L -14.7951,-131.255 L -15.3789,-131.024 L -15.9291,-130.722
 L -16.4371,-130.353 L -16.8948,-129.923 L -17.2951,-129.439 L -17.6315,-128.909 L -17.8989,-128.341 L -18.0277,-127.944
 L -20.25,-127.944 L -20.25,-106.056 L -18.0277,-106.056 L -17.8989,-105.659 L -17.6315,-105.091 L -17.2951,-104.561
 L -16.8948,-104.077 L -16.4371,-103.647 L -15.9291,-103.278 L -15.3789,-102.976 L -14.7951,-102.745 L -14.1869,-102.589
 L -13.5639,-102.51 L 13.5639,-102.51 z
M 11.0993,-122.105 L 10.8003,-122.143 L 10.5083,-122.217 L 10.2281,-122.328 L 9.964,-122.474 L 9.72017,-122.651
 L 9.50047,-122.857 L 9.30835,-123.089 L 9.14685,-123.344 L 9.01852,-123.617 L 8.9254,-123.903 L 8.86891,-124.199
 L 8.84999,-124.5 L 8.86891,-124.801 L 8.9254,-125.097 L 9.01852,-125.383 L 9.14685,-125.656 L 9.30835,-125.911
 L 9.50047,-126.143 L 9.72017,-126.349 L 9.964,-126.526 L 10.2281,-126.672 L 10.5083,-126.783 L 10.8003,-126.857
 L 11.0993,-126.895 L 11.4007,-126.895 L 11.6997,-126.857 L 11.9916,-126.783 L 12.2719,-126.672 L 12.536,-126.526
 L 12.7798,-126.349 L 12.9995,-126.143 L 13.1916,-125.911 L 13.3531,-125.656 L 13.4815,-125.383 L 13.5746,-125.097
 L 13.6311,-124.801 L 13.65,-124.5 L 13.6311,-124.199 L 13.5746,-123.903 L 13.4815,-123.617 L 13.3531,-123.344
 L 13.1916,-123.089 L 12.9995,-122.857 L 12.7798,-122.651 L 12.536,-122.474 L 12.2719,-122.328 L 11.9916,-122.217
 L 11.6997,-122.143 L 11.4007,-122.105 z
M -11.4007,-122.105 L -11.6997,-122.143 L -11.9916,-122.217 L -12.2719,-122.328 L -12.536,-122.474 L -12.7798,-122.651
 L -12.9995,-122.857 L -13.1916,-123.089 L -13.3531,-123.344 L -13.4815,-123.617 L -13.5746,-123.903 L -13.6311,-124.199
 L -13.65,-124.5 L -13.6311,-124.801 L -13.5746,-125.097 L -13.4815,-125.383 L -13.3531,-125.656 L -13.1916,-125.911
 L -12.9995,-126.143 L -12.7798,-126.349 L -12.536,-126.526 L -12.2719,-126.672 L -11.9916,-126.783 L -11.6997,-126.857
 L -11.4007,-126.895 L -11.0993,-126.895 L -10.8003,-126.857 L -10.5083,-126.783 L -10.2281,-126.672 L -9.964,-126.526
 L -9.72017,-126.349 L -9.50047,-126.143 L -9.30835,-125.911 L -9.14685,-125.656 L -9.01852,-125.383 L -8.9254,-125.097
 L -8.86891,-124.801 L -8.84999,-124.5 L -8.86891,-124.199 L -8.9254,-123.903 L -9.01852,-123.617 L -9.14685,-123.344
 L -9.30835,-123.089 L -9.50047,-122.857 L -9.72017,-122.651 L -9.964,-122.474 L -10.2281,-122.328 L -10.5083,-122.217
 L -10.8003,-122.143 L -11.0993,-122.105 z
M -11.4007,-107.105 L -11.6997,-107.143 L -11.9916,-107.217 L -12.2719,-107.328 L -12.536,-107.474 L -12.7798,-107.651
 L -12.9995,-107.857 L -13.1916,-108.089 L -13.3531,-108.344 L -13.4815,-108.617 L -13.5746,-108.903 L -13.6311,-109.199
 L -13.65,-109.5 L -13.6311,-109.801 L -13.5746,-110.097 L -13.4815,-110.383 L -13.3531,-110.656 L -13.1916,-110.911
 L -12.9995,-111.143 L -12.7798,-111.349 L -12.536,-111.526 L -12.2719,-111.672 L -11.9916,-111.783 L -11.6997,-111.857
 L -11.4007,-111.895 L -11.0993,-111.895 L -10.8003,-111.857 L -10.5083,-111.783 L -10.2281,-111.672 L -9.964,-111.526
 L -9.72017,-111.349 L -9.50047,-111.143 L -9.30835,-110.911 L -9.14685,-110.656 L -9.01852,-110.383 L -8.9254,-110.097
 L -8.86891,-109.801 L -8.84999,-109.5 L -8.86891,-109.199 L -8.9254,-108.903 L -9.01852,-108.617 L -9.14685,-108.344
 L -9.30835,-108.089 L -9.50047,-107.857 L -9.72017,-107.651 L -9.964,-107.474 L -10.2281,-107.328 L -10.5083,-107.217
 L -10.8003,-107.143 L -11.0993,-107.105 z
M 11.0993,-107.105 L 10.8003,-107.143 L 10.5083,-107.217 L 10.2281,-107.328 L 9.964,-107.474 L 9.72017,-107.651
 L 9.50047,-107.857 L 9.30835,-108.089 L 9.14685,-108.344 L 9.01852,-108.617 L 8.9254,-108.903 L 8.86891,-109.199
 L 8.84999,-109.5 L 8.86891,-109.801 L 8.9254,-110.097 L 9.01852,-110.383 L 9.14685,-110.656 L 9.30835,-110.911
 L 9.50047,-111.143 L 9.72017,-111.349 L 9.964,-111.526 L 10.2281,-111.672 L 10.5083,-111.783 L 10.8003,-111.857
 L 11.0993,-111.895 L 11.4007,-111.895 L 11.6997,-111.857 L 11.9916,-111.783 L 12.2719,-111.672 L 12.536,-111.526
 L 12.7798,-111.349 L 12.9995,-111.143 L 13.1916,-110.911 L 13.3531,-110.656 L 13.4815,-110.383 L 13.5746,-110.097
 L 13.6311,-109.801 L 13.65,-109.5 L 13.6311,-109.199 L 13.5746,-108.903 L 13.4815,-108.617 L 13.3531,-108.344
 L 13.1916,-108.089 L 12.9995,-107.857 L 12.7798,-107.651 L 12.536,-107.474 L 12.2719,-107.328 L 11.9916,-107.217
 L 11.6997,-107.143 L 11.4007,-107.105 z
" stroke="black" fill="lightgray" stroke-width="0.5"/>
</svg>
