<?xml version="1.0" standalone="no"?>
<!DOCTYPE svg PUBLIC "-//W3C//DTD SVG 1.1//EN" "http://www.w3.org/Graphics/SVG/1.1/DTD/svg11.dtd">
<svg width="60mm" height="267mm" viewBox="-30 -444 60 267" xmlns="http://www.w3.org/2000/svg" version="1.1">
<title>OpenSCAD Model</title>
<path d="
M 25.4369,-384.589 L 26.0451,-384.745 L 26.6289,-384.976 L 27.1791,-385.278 L 27.6871,-385.647 L 28.1448,-386.077
 L 28.5451,-386.561 L 28.8815,-387.091 L 29.1489,-387.659 L 29.3429,-388.257 L 29.4606,-388.873 L 29.5,-389.5
 L 29.5,-438.5 L 29.4606,-439.127 L 29.3429,-439.743 L 29.1489,-440.341 L 28.8815,-440.909 L 28.5451,-441.439
 L 28.1448,-441.923 L 27.6871,-442.353 L 27.1791,-442.722 L 26.6289,-443.024 L 26.0451,-443.255 L 25.4369,-443.411
 L 24.8139,-443.49 L -24.8139,-443.49 L -25.4369,-443.411 L -26.0451,-443.255 L -26.6289,-443.024 L -27.1791,-442.722
 L -27.6871,-442.353 L -28.1448,-441.923 L -28.5451,-441.439 L -28.8815,-440.909 L -29.1489,-440.341 L -29.3429,-439.743
 L -29.4606,-439.127 L -29.5,-438.5 L -29.5,-389.5 L -29.4606,-388.873 L -29.3429,-388.257 L -29.1489,-387.659
 L -28.8815,-387.091 L -28.5451,-386.561 L -28.1448,-386.077 L -27.6871,-385.647 L -27.1791,-385.278 L -26.6289,-384.976
 L -26.0451,-384.745 L -25.4369,-384.589 L -24.8139,-384.51 L 24.8139,-384.51 z
M -24.7512,-385.508 L -25.2495,-385.571 L -25.7361,-385.696 L -26.2031,-385.881 L -26.6433,-386.123 L -27.0497,-386.418
 L -27.4159,-386.762 L -27.7361,-387.149 L -28.0052,-387.573 L -28.2191,-388.028 L -28.3743,-388.505 L -28.4684,-388.999
 L -28.5,-389.5 L -28.5,-438.5 L -28.4684,-439.001 L -28.3743,-439.495 L -28.2191,-439.972 L -28.0052,-440.427
 L -27.7361,-440.851 L -27.4159,-441.238 L -27.0497,-441.582 L -26.6433,-441.877 L -26.2031,-442.119 L -25.7361,-442.304
 L -25.2495,-442.429 L -24.7512,-442.492 L 24.7512,-442.492 L 25.2495,-442.429 L 25.7361,-442.304 L 26.2031,-442.119
 L 26.6433,-441.877 L 27.0497,-441.582 L 27.4159,-441.238 L 27.7361,-440.851 L 28.0052,-440.427 L 28.2191,-439.972
 L 28.3743,-439.495 L 28.4684,-439.001 L 28.5,-438.5 L 28.5,-389.5 L 28.4684,-388.999 L 28.3743,-388.505
 L 28.2191,-388.028 L 28.0052,-387.573 L 27.7361,-387.149 L 27.4159,-386.762 L 27.0497,-386.418 L 26.6433,-386.123
 L 26.2031,-385.881 L 25.7361,-385.696 L 25.2495,-385.571 L 24.7512,-385.508 z
M 25.4369,-315.589 L 26.0451,-315.745 L 26.6289,-315.976 L 27.1791,-316.278 L 27.6871,-316.647 L 28.1448,-317.077
 L 28.5451,-317.561 L 28.8815,-318.091 L 29.1489,-318.659 L 29.3429,-319.257 L 29.4606,-319.873 L 29.5,-320.5
 L 29.5,-369.5 L 29.4606,-370.127 L 29.3429,-370.743 L 29.1489,-371.341 L 28.8815,-371.909 L 28.5451,-372.439
 L 28.1448,-372.923 L 27.6871,-373.353 L 27.1791,-373.722 L 26.6289,-374.024 L 26.0451,-374.255 L 25.4369,-374.411
 L 24.8139,-374.49 L -24.8139,-374.49 L -25.4369,-374.411 L -26.0451,-374.255 L -26.6289,-374.024 L -27.1791,-373.722
 L -27.6871,-373.353 L -28.1448,-372.923 L -28.5451,-372.439 L -28.8815,-371.909 L -29.1489,-371.341 L -29.3429,-370.743
 L -29.4606,-370.127 L -29.5,-369.5 L -29.5,-320.5 L -29.4606,-319.873 L -29.3429,-319.257 L -29.1489,-318.659
 L -28.8815,-318.091 L -28.5451,-317.561 L -28.1448,-317.077 L -27.6871,-316.647 L -27.1791,-316.278 L -26.6289,-315.976
 L -26.0451,-315.745 L -25.4369,-315.589 L -24.8139,-315.51 L 24.8139,-315.51 z
M -24.7432,-316.635 L -25.2256,-316.696 L -25.6967,-316.817 L -26.1489,-316.996 L -26.5751,-317.23 L -26.9685,-317.516
 L -27.323,-317.849 L -27.633,-318.224 L -27.8936,-318.634 L -28.1007,-319.074 L -28.251,-319.537 L -28.3421,-320.015
 L -28.3726,-320.5 L -28.3726,-369.5 L -28.3421,-369.985 L -28.251,-370.463 L -28.1007,-370.926 L -27.8936,-371.366
 L -27.633,-371.776 L -27.323,-372.151 L -26.9685,-372.484 L -26.5751,-372.77 L -26.1489,-373.004 L -25.6967,-373.183
 L -25.2256,-373.304 L -24.7432,-373.365 L 24.7432,-373.365 L 25.2256,-373.304 L 25.6967,-373.183 L 26.1489,-373.004
 L 26.5751,-372.77 L 26.9685,-372.484 L 27.323,-372.151 L 27.633,-371.776 L 27.8936,-371.366 L 28.1007,-370.926
 L 28.251,-370.463 L 28.3421,-369.985 L 28.3726,-369.5 L 28.3726,-320.5 L 28.3421,-320.015 L 28.251,-319.537
 L 28.1007,-319.074 L 27.8936,-318.634 L 27.633,-318.224 L 27.323,-317.849 L 26.9685,-317.516 L 26.5751,-317.23
 L 26.1489,-316.996 L 25.6967,-316.817 L 25.2256,-316.696 L 24.7432,-316.635 z
M 25.4369,-246.589 L 26.0451,-246.745 L 26.6289,-246.976 L 27.1791,-247.278 L 27.6871,-247.647 L 28.1448,-248.077
 L 28.5451,-248.561 L 28.8815,-249.091 L 29.1489,-249.659 L 29.3429,-250.257 L 29.4606,-250.873 L 29.5,-251.5
 L 29.5,-300.5 L 29.4606,-301.127 L 29.3429,-301.743 L 29.1489,-302.341 L 28.8815,-302.909 L 28.5451,-303.439
 L 28.1448,-303.923 L 27.6871,-304.353 L 27.1791,-304.722 L 26.6289,-305.024 L 26.0451,-305.255 L 25.4369,-305.411
 L 24.8139,-305.49 L -24.8139,-305.49 L -25.4369,-305.411 L -26.0451,-305.255 L -26.6289,-305.024 L -27.1791,-304.722
 L -27.6871,-304.353 L -28.1448,-303.923 L -28.5451,-303.439 L -28.8815,-302.909 L -29.1489,-302.341 L -29.3429,-301.743
 L -29.4606,-301.127 L -29.5,-300.5 L -29.5,-251.5 L -29.4606,-250.873 L -29.3429,-250.257 L -29.1489,-249.659
 L -28.8815,-249.091 L -28.5451,-248.561 L -28.1448,-248.077 L -27.6871,-247.647 L -27.1791,-247.278 L -26.6289,-246.976
 L -26.0451,-246.745 L -25.4369,-246.589 L -24.8139,-246.51 L 24.8139,-246.51 z
M 25.4369,-177.589 L 26.0451,-177.745 L 26.6289,-177.976 L 27.1791,-178.278 L 27.6871,-178.647 L 28.1448,-179.077
 L 28.5451,-179.561 L 28.8815,-180.091 L 29.1489,-180.659 L 29.3429,-181.257 L 29.4606,-181.873 L 29.5,-182.5
 L 29.5,-231.5 L 29.4606,-232.127 L 29.3429,-232.743 L 29.1489,-233.341 L 28.8815,-233.909 L 28.5451,-234.439
 L 28.1448,-234.923 L 27.6871,-235.353 L 27.1791,-235.722 L 26.6289,-236.024 L 26.0451,-236.255 L 25.4369,-236.411
 L 24.8139,-236.49 L -24.8139,-236.49 L -25.4369,-236.411 L -26.0451,-236.255 L -26.6289,-236.024 L -27.1791,-235.722
 L -27.6871,-235.353 L -28.1448,-234.923 L -28.5451,-234.439 L -28.8815,-233.909 L -29.1489,-233.341 L -29.3429,-232.743
 L -29.4606,-232.127 L -29.5,-231.5 L -29.5,-182.5 L -29.4606,-181.873 L -29.3429,-181.257 L -29.1489,-180.659
 L -28.8815,-180.091 L -28.5451,-179.561 L -28.1448,-179.077 L -27.6871,-178.647 L -27.1791,-178.278 L -26.6289,-177.976
 L -26.0451,-177.745 L -25.4369,-177.589 L -24.8139,-177.51 L 24.8139,-177.51 z
M 22.3493,-227.105 L 22.0503,-227.143 L 21.7583,-227.217 L 21.4781,-227.328 L 21.214,-227.474 L 20.9702,-227.651
 L 20.7505,-227.857 L 20.5583,-228.089 L 20.3969,-228.344 L 20.2685,-228.617 L 20.1754,-228.903 L 20.1189,-229.199
 L 20.1,-229.5 L 20.1189,-229.801 L 20.1754,-230.097 L 20.2685,-230.383 L 20.3969,-230.656 L 20.5583,-230.911
 L 20.7505,-231.143 L 20.9702,-231.349 L 21.214,-231.526 L 21.4781,-231.672 L 21.7583,-231.783 L 22.0503,-231.857
 L 22.3493,-231.895 L 22.6507,-231.895 L 22.9497,-231.857 L 23.2416,-231.783 L 23.5219,-231.672 L 23.786,-231.526
 L 24.0298,-231.349 L 24.2495,-231.143 L 24.4416,-230.911 L 24.6031,-230.656 L 24.7315,-230.383 L 24.8246,-230.097
 L 24.8811,-229.801 L 24.9,-229.5 L 24.8811,-229.199 L 24.8246,-228.903 L 24.7315,-228.617 L 24.6031,-228.344
 L 24.4416,-228.089 L 24.2495,-227.857 L 24.0298,-227.651 L 23.786,-227.474 L 23.5219,-227.328 L 23.2416,-227.217
 L 22.9497,-227.143 L 22.6507,-227.105 z
M -22.6507,-227.105 L -22.9497,-227.143 L -23.2416,-227.217 L -23.5219,-227.328 L -23.786,-227.474 L -24.0298,-227.651
 L -24.2495,-227.857 L -24.4416,-228.089 L -24.6031,-228.344 L -24.7315,-228.617 L -24.8246,-228.903 L -24.8811,-229.199
 L -24.9,-229.5 L -24.8811,-229.801 L -24.8246,-230.097 L -24.7315,-230.383 L -24.6031,-230.656 L -24.4416,-230.911
 L -24.2495,-231.143 L -24.0298,-231.349 L -23.786,-231.526 L -23.5219,-231.672 L -23.2416,-231.783 L -22.9497,-231.857
 L -22.6507,-231.895 L -22.3493,-231.895 L -22.0503,-231.857 L -21.7583,-231.783 L -21.4781,-231.672 L -21.214,-231.526
 L -20.9702,-231.349 L -20.7505,-231.143 L -20.5583,-230.911 L -20.3969,-230.656 L -20.2685,-230.383 L -20.1754,-230.097
 L -20.1189,-229.801 L -20.1,-229.5 L -20.1189,-229.199 L -20.1754,-228.903 L -20.2685,-228.617 L -20.3969,-228.344
 L -20.5583,-228.089 L -20.7505,-227.857 L -20.9702,-227.651 L -21.214,-227.474 L -21.4781,-227.328 L -21.7583,-227.217
 L -22.0503,-227.143 L -22.3493,-227.105 z
M -22.6507,-182.105 L -22.9497,-182.143 L -23.2416,-182.217 L -23.5219,-182.328 L -23.786,-182.474 L -24.0298,-182.651
 L -24.2495,-182.857 L -24.4416,-183.089 L -24.6031,-183.344 L -24.7315,-183.617 L -24.8246,-183.903 L -24.8811,-184.199
 L -24.9,-184.5 L -24.8811,-184.801 L -24.8246,-185.097 L -24.7315,-185.383 L -24.6031,-185.656 L -24.4416,-185.911
 L -24.2495,-186.143 L -24.0298,-186.349 L -23.786,-186.526 L -23.5219,-186.672 L -23.2416,-186.783 L -22.9497,-186.857
 L -22.6507,-186.895 L -22.3493,-186.895 L -22.0503,-186.857 L -21.7583,-186.783 L -21.4781,-186.672 L -21.214,-186.526
 L -20.9702,-186.349 L -20.7505,-186.143 L -20.5583,-185.911 L -20.3969,-185.656 L -20.2685,-185.383 L -20.1754,-185.097
 L -20.1189,-184.801 L -20.1,-184.5 L -20.1189,-184.199 L -20.1754,-183.903 L -20.2685,-183.617 L -20.3969,-183.344
 L -20.5583,-183.089 L -20.7505,-182.857 L -20.9702,-182.651 L -21.214,-182.474 L -21.4781,-182.328 L -21.7583,-182.217
 L -22.0503,-182.143 L -22.3493,-182.105 z
M 22.3493,-182.105 L 22.0503,-182.143 L 21.7583,-182.217 L 21.4781,-182.328 L 21.214,-182.474 L 20.9702,-182.651
 L 20.7505,-182.857 L 20.5583,-183.089 L 20.3969,-183.344 L 20.2685,-183.617 L 20.1754,-183.903 L 20.1189,-184.199
 L 20.1,-184.5 L 20.1189,-184.801 L 20.1754,-185.097 L 20.2685,-185.383 L 20.3969,-185.656 L 20.5583,-185.911
 L 20.7505,-186.143 L 20.9702,-186.349 L 21.214,-186.526 L 21.4781,-186.672 L 21.7583,-186.783 L 22.0503,-186.857
 L 22.3493,-186.895 L 22.6507,-186.895 L 22.9497,-186.857 L 23.2416,-186.783 L 23.5219,-186.672 L 23.786,-186.526
 L 24.0298,-186.349 L 24.2495,-186.143 L 24.4416,-185.911 L 24.6031,-185.656 L 24.7315,-185.383 L 24.8246,-185.097
 L 24.8811,-184.801 L 24.9,-184.5 L 24.8811,-184.199 L 24.8246,-183.903 L 24.7315,-183.617 L 24.6031,-183.344
 L 24.4416,-183.089 L 24.2495,-182.857 L 24.0298,-182.651 L 23.786,-182.474 L 23.5219,-182.328 L 23.2416,-182.217
 L 22.9497,-182.143 L 22.6507,-182.105 z
" stroke="black" fill="lightgray" stroke-width="0.5"/>
</svg>
