<?xml version="1.0" standalone="no"?>
<!DOCTYPE svg PUBLIC "-//W3C//DTD SVG 1.1//EN" "http://www.w3.org/Graphics/SVG/1.1/DTD/svg11.dtd">
<svg width="14mm" height="147mm" viewBox="-7 -288 14 147" xmlns="http://www.w3.org/2000/svg" version="1.1">
<title>OpenSCAD Model</title>
<path d="
M 2.9369,-258.589 L 3.54507,-258.745 L 4.12889,-258.976 L 4.67912,-259.278 L 5.18712,-259.647 L 5.64484,-260.077
 L 6.04507,-260.561 L 6.38153,-261.091 L 6.64888,-261.659 L 6.84291,-262.257 L 6.96057,-262.873 L 7,-263.5
 L 7,-282.5 L 6.96057,-283.127 L 6.84291,-283.743 L 6.64888,-284.341 L 6.38153,-284.909 L 6.04507,-285.439
 L 5.64484,-285.923 L 5.18712,-286.353 L 4.67912,-286.722 L 4.12889,-287.024 L 3.54507,-287.255 L 2.9369,-287.411
 L 2.31395,-287.49 L -2.31395,-287.49 L -2.9369,-287.411 L -3.54507,-287.255 L -4.12889,-287.024 L -4.67912,-286.722
 L -5.18712,-286.353 L -5.64484,-285.923 L -6.04507,-285.439 L -6.38153,-284.909 L -6.64888,-284.341 L -6.84291,-283.743
 L -6.96057,-283.127 L -7,-282.5 L -7,-263.5 L -6.96057,-262.873 L -6.84291,-262.257 L -6.64888,-261.659
 L -6.38153,-261.091 L -6.04507,-260.561 L -5.64484,-260.077 L -5.18712,-259.647 L -4.67912,-259.278 L -4.12889,-258.976
 L -3.54507,-258.745 L -2.9369,-258.589 L -2.31395,-258.51 L 2.31395,-258.51 z
M -2.04825,-259.009 L -2.64006,-259.084 L -3.21782,-259.232 L -3.77245,-259.452 L -4.29517,-259.739 L -4.77776,-260.09
 L -5.2126,-260.498 L -5.59282,-260.958 L -5.91245,-261.462 L -6.16643,-262.001 L -6.35077,-262.569 L -6.46254,-263.155
 L -6.5,-263.75 L -6.5,-282.25 L -6.46254,-282.845 L -6.35077,-283.431 L -6.16643,-283.999 L -5.91245,-284.538
 L -5.59282,-285.042 L -5.2126,-285.502 L -4.77776,-285.91 L -4.29517,-286.261 L -3.77245,-286.548 L -3.21782,-286.768
 L -2.64006,-286.916 L -2.04825,-286.991 L 2.04825,-286.991 L 2.64006,-286.916 L 3.21782,-286.768 L 3.77245,-286.548
 L 4.29517,-286.261 L 4.77776,-285.91 L 5.2126,-285.502 L 5.59282,-285.042 L 5.91245,-284.538 L 6.16643,-283.999
 L 6.35077,-283.431 L 6.46254,-282.845 L 6.5,-282.25 L 6.5,-263.75 L 6.46254,-263.155 L 6.35077,-262.569
 L 6.16643,-262.001 L 5.91245,-261.462 L 5.59282,-260.958 L 5.2126,-260.498 L 4.77776,-260.09 L 4.29517,-259.739
 L 3.77245,-259.452 L 3.21782,-259.232 L 2.64006,-259.084 L 2.04825,-259.009 z
M 2.9369,-219.589 L 3.54507,-219.745 L 4.12889,-219.976 L 4.67912,-220.278 L 5.18712,-220.647 L 5.64484,-221.077
 L 6.04507,-221.561 L 6.38153,-222.091 L 6.64888,-222.659 L 6.84291,-223.257 L 6.96057,-223.873 L 7,-224.5
 L 7,-243.5 L 6.96057,-244.127 L 6.84291,-244.743 L 6.64888,-245.341 L 6.38153,-245.909 L 6.04507,-246.439
 L 5.64484,-246.923 L 5.18712,-247.353 L 4.67912,-247.722 L 4.12889,-248.024 L 3.54507,-248.255 L 2.9369,-248.411
 L 2.31395,-248.49 L -2.31395,-248.49 L -2.9369,-248.411 L -3.54507,-248.255 L -4.12889,-248.024 L -4.67912,-247.722
 L -5.18712,-247.353 L -5.64484,-246.923 L -6.04507,-246.439 L -6.38153,-245.909 L -6.64888,-245.341 L -6.84291,-244.743
 L -6.96057,-244.127 L -7,-243.5 L -7,-224.5 L -6.96057,-223.873 L -6.84291,-223.257 L -6.64888,-222.659
 L -6.38153,-222.091 L -6.04507,-221.561 L -5.64484,-221.077 L -5.18712,-220.647 L -4.67912,-220.278 L -4.12889,-219.976
 L -3.54507,-219.745 L -2.9369,-219.589 L -2.31395,-219.51 L 2.31395,-219.51 z
M -2.04825,-220.009 L -2.64006,-220.084 L -3.21782,-220.232 L -3.77245,-220.452 L -4.29517,-220.739 L -4.77776,-221.09
 L -5.2126,-221.498 L -5.59282,-221.958 L -5.91245,-222.462 L -6.16643,-223.001 L -6.35077,-223.569 L -6.46254,-224.155
 L -6.5,-224.75 L -6.5,-243.25 L -6.46254,-243.845 L -6.35077,-244.431 L -6.16643,-244.999 L -5.91245,-245.538
 L -5.59282,-246.042 L -5.2126,-246.502 L -4.77776,-246.91 L -4.29517,-247.261 L -3.77245,-247.548 L -3.21782,-247.768
 L -2.64006,-247.916 L -2.04825,-247.991 L 2.04825,-247.991 L 2.64006,-247.916 L 3.21782,-247.768 L 3.77245,-247.548
 L 4.29517,-247.261 L 4.77776,-246.91 L 5.2126,-246.502 L 5.59282,-246.042 L 5.91245,-245.538 L 6.16643,-244.999
 L 6.35077,-244.431 L 6.46254,-243.845 L 6.5,-243.25 L 6.5,-224.75 L 6.46254,-224.155 L 6.35077,-223.569
 L 6.16643,-223.001 L 5.91245,-222.462 L 5.59282,-221.958 L 5.2126,-221.498 L 4.77776,-221.09 L 4.29517,-220.739
 L 3.77245,-220.452 L 3.21782,-220.232 L 2.64006,-220.084 L 2.04825,-220.009 z
M 2.9369,-180.589 L 3.54507,-180.745 L 4.12889,-180.976 L 4.67912,-181.278 L 5.18712,-181.647 L 5.64484,-182.077
 L 6.04507,-182.561 L 6.38153,-183.091 L 6.64888,-183.659 L 6.84291,-184.257 L 6.96057,-184.873 L 7,-185.5
 L 7,-204.5 L 6.96057,-205.127 L 6.84291,-205.743 L 6.64888,-206.341 L 6.38153,-206.909 L 6.04507,-207.439
 L 5.64484,-207.923 L 5.18712,-208.353 L 4.67912,-208.722 L 4.12889,-209.024 L 3.54507,-209.255 L 2.9369,-209.411
 L 2.31395,-209.49 L -2.31395,-209.49 L -2.9369,-209.411 L -3.54507,-209.255 L -4.12889,-209.024 L -4.67912,-208.722
 L -5.18712,-208.353 L -5.64484,-207.923 L -6.04507,-207.439 L -6.38153,-206.909 L -6.64888,-206.341 L -6.84291,-205.743
 L -6.96057,-205.127 L -7,-204.5 L -7,-185.5 L -6.96057,-184.873 L -6.84291,-184.257 L -6.64888,-183.659
 L -6.38153,-183.091 L -6.04507,-182.561 L -5.64484,-182.077 L -5.18712,-181.647 L -4.67912,-181.278 L -4.12889,-180.976
 L -3.54507,-180.745 L -2.9369,-180.589 L -2.31395,-180.51 L 2.31395,-180.51 z
M -2.03748,-181.181 L -2.60791,-181.253 L -3.16481,-181.396 L -3.6994,-181.607 L -4.20325,-181.884 L -4.6684,-182.222
 L -5.08754,-182.616 L -5.45403,-183.059 L -5.76212,-183.544 L -6.00691,-184.065 L -6.18459,-184.611 L -6.29233,-185.176
 L -6.32843,-185.75 L -6.32843,-204.25 L -6.29233,-204.824 L -6.18459,-205.389 L -6.00691,-205.935 L -5.76212,-206.456
 L -5.45403,-206.941 L -5.08754,-207.384 L -4.6684,-207.778 L -4.20325,-208.116 L -3.6994,-208.393 L -3.16481,-208.604
 L -2.60791,-208.747 L -2.03748,-208.819 L 2.03748,-208.819 L 2.60791,-208.747 L 3.16481,-208.604 L 3.6994,-208.393
 L 4.20325,-208.116 L 4.6684,-207.778 L 5.08754,-207.384 L 5.45403,-206.941 L 5.76212,-206.456 L 6.00691,-205.935
 L 6.18459,-205.389 L 6.29233,-204.824 L 6.32843,-204.25 L 6.32843,-185.75 L 6.29233,-185.176 L 6.18459,-184.611
 L 6.00691,-184.065 L 5.76212,-183.544 L 5.45403,-183.059 L 5.08754,-182.616 L 4.6684,-182.222 L 4.20325,-181.884
 L 3.6994,-181.607 L 3.16481,-181.396 L 2.60791,-181.253 L 2.03748,-181.181 z
M 2.9369,-141.589 L 3.54507,-141.745 L 4.12889,-141.976 L 4.67912,-142.278 L 5.18712,-142.647 L 5.64484,-143.077
 L 6.04507,-143.561 L 6.38153,-144.091 L 6.64888,-144.659 L 6.84291,-145.257 L 6.96057,-145.873 L 7,-146.5
 L 7,-165.5 L 6.96057,-166.127 L 6.84291,-166.743 L 6.64888,-167.341 L 6.38153,-167.909 L 6.04507,-168.439
 L 5.64484,-168.923 L 5.18712,-169.353 L 4.67912,-169.722 L 4.12889,-170.024 L 3.54507,-170.255 L 2.9369,-170.411
 L 2.31395,-170.49 L -2.31395,-170.49 L -2.9369,-170.411 L -3.54507,-170.255 L -4.12889,-170.024 L -4.67912,-169.722
 L -5.18712,-169.353 L -5.64484,-168.923 L -6.04507,-168.439 L -6.38153,-167.909 L -6.64888,-167.341 L -6.84291,-166.743
 L -6.96057,-166.127 L -7,-165.5 L -7,-146.5 L -6.96057,-145.873 L -6.84291,-145.257 L -6.64888,-144.659
 L -6.38153,-144.091 L -6.04507,-143.561 L -5.64484,-143.077 L -5.18712,-142.647 L -4.67912,-142.278 L -4.12889,-141.976
 L -3.54507,-141.745 L -2.9369,-141.589 L -2.31395,-141.51 L 2.31395,-141.51 z
M -1.88246,-144.645 L -2.14529,-144.678 L -2.4019,-144.744 L -2.64822,-144.841 L -2.88039,-144.969 L -3.09473,-145.125
 L -3.28784,-145.306 L -3.45673,-145.51 L -3.59868,-145.734 L -3.71149,-145.973 L -3.79335,-146.225 L -3.84299,-146.486
 L -3.85962,-146.75 L -3.85962,-165.25 L -3.84299,-165.514 L -3.79335,-165.775 L -3.71149,-166.027 L -3.59868,-166.266
 L -3.45673,-166.49 L -3.28784,-166.694 L -3.09473,-166.875 L -2.88039,-167.031 L -2.64822,-167.159 L -2.4019,-167.256
 L -2.14529,-167.322 L -1.88246,-167.355 L 1.88246,-167.355 L 2.14529,-167.322 L 2.4019,-167.256 L 2.64822,-167.159
 L 2.88039,-167.031 L 3.09473,-166.875 L 3.28784,-166.694 L 3.45673,-166.49 L 3.59868,-166.266 L 3.71149,-166.027
 L 3.79335,-165.775 L 3.84299,-165.514 L 3.85962,-165.25 L 3.85962,-146.75 L 3.84299,-146.486 L 3.79335,-146.225
 L 3.71149,-145.973 L 3.59868,-145.734 L 3.45673,-145.51 L 3.28784,-145.306 L 3.09473,-145.125 L 2.88039,-144.969
 L 2.64822,-144.841 L 2.4019,-144.744 L 2.14529,-144.678 L 1.88246,-144.645 z
" stroke="black" fill="lightgray" stroke-width="0.5"/>
</svg>
