<?xml version="1.0" standalone="no"?>
<!DOCTYPE svg PUBLIC "-//W3C//DTD SVG 1.1//EN" "http://www.w3.org/Graphics/SVG/1.1/DTD/svg11.dtd">
<svg width="32mm" height="472mm" viewBox="-16 -456 32 472" xmlns="http://www.w3.org/2000/svg" version="1.1">
<title>OpenSCAD Model</title>
<path d="
M 2.94315,-424.571 L 4.85364,-425.062 L 6.68759,-425.788 L 8.41608,-426.738 L 10.0118,-427.898 L 11.4497,-429.248
 L 12.707,-430.768 L 13.7639,-432.433 L 14.6037,-434.218 L 15.2133,-436.094 L 15.5829,-438.031 L 15.7067,-440
 L 15.5829,-441.969 L 15.2133,-443.906 L 14.6037,-445.782 L 13.7639,-447.567 L 12.707,-449.232 L 11.4497,-450.752
 L 10.0118,-452.102 L 8.41608,-453.262 L 6.68759,-454.212 L 4.85364,-454.938 L 2.94315,-455.429 L 0.986221,-455.676
 L -0.986221,-455.676 L -2.94315,-455.429 L -4.85364,-454.938 L -6.68759,-454.212 L -8.41608,-453.262 L -10.0118,-452.102
 L -11.4497,-450.752 L -12.707,-449.232 L -13.7639,-447.567 L -14.6037,-445.782 L -15.2133,-443.906 L -15.5829,-441.969
 L -15.7067,-440 L -15.5829,-438.031 L -15.2133,-436.094 L -14.6037,-434.218 L -13.7639,-432.433 L -12.707,-430.768
 L -11.4497,-429.248 L -10.0118,-427.898 L -8.41608,-426.738 L -6.68759,-425.788 L -4.85364,-425.062 L -2.94315,-424.571
 L -0.986221,-424.324 L 0.986221,-424.324 z
M -8.90024,-446.134 L -9.19366,-446.202 L -9.47617,-446.307 L -9.74326,-446.447 L -9.99075,-446.619 L -10.2147,-446.821
 L -10.4117,-447.049 L -10.5785,-447.3 L -10.7125,-447.57 L -10.8116,-447.855 L -10.8743,-448.149 L -10.8995,-448.45
 L -10.8868,-448.751 L -10.8366,-449.048 L -10.7495,-449.337 L -10.6269,-449.612 L -10.4707,-449.87 L -10.2835,-450.106
 L -10.0682,-450.317 L -9.82812,-450.499 L -9.56712,-450.65 L -9.28928,-450.766 L -8.99898,-450.848 L -8.70082,-450.892
 L -8.39949,-450.898 L -8.09975,-450.866 L -7.80632,-450.798 L -7.52382,-450.693 L -7.25673,-450.553 L -7.00923,-450.381
 L -6.78526,-450.179 L -6.58832,-449.951 L -6.42152,-449.7 L -6.28752,-449.43 L -6.1884,-449.145 L -6.12573,-448.851
 L -6.10052,-448.55 L -6.11314,-448.249 L -6.16341,-447.952 L -6.25052,-447.663 L -6.37311,-447.388 L -6.52924,-447.13
 L -6.71645,-446.894 L -6.93178,-446.683 L -7.17186,-446.501 L -7.43286,-446.35 L -7.71071,-446.233 L -8.00101,-446.152
 L -8.29916,-446.108 L -8.60049,-446.102 z
M 8.09975,-446.134 L 7.80632,-446.202 L 7.52382,-446.307 L 7.25673,-446.447 L 7.00923,-446.619 L 6.78526,-446.821
 L 6.58832,-447.049 L 6.42152,-447.3 L 6.28752,-447.57 L 6.1884,-447.855 L 6.12573,-448.149 L 6.10052,-448.45
 L 6.11314,-448.751 L 6.16341,-449.048 L 6.25052,-449.337 L 6.37311,-449.612 L 6.52924,-449.87 L 6.71645,-450.106
 L 6.93178,-450.317 L 7.17186,-450.499 L 7.43286,-450.65 L 7.71071,-450.766 L 8.00101,-450.848 L 8.29916,-450.892
 L 8.60049,-450.898 L 8.90024,-450.866 L 9.19366,-450.798 L 9.47617,-450.693 L 9.74326,-450.553 L 9.99075,-450.381
 L 10.2147,-450.179 L 10.4117,-449.951 L 10.5785,-449.7 L 10.7125,-449.43 L 10.8116,-449.145 L 10.8743,-448.851
 L 10.8995,-448.55 L 10.8868,-448.249 L 10.8366,-447.952 L 10.7495,-447.663 L 10.6269,-447.388 L 10.4707,-447.13
 L 10.2835,-446.894 L 10.0682,-446.683 L 9.82812,-446.501 L 9.56712,-446.35 L 9.28928,-446.233 L 8.99898,-446.152
 L 8.70082,-446.108 L 8.39949,-446.102 z
M -0.533707,-431.517 L -1.59273,-431.651 L -2.62663,-431.916 L -3.61911,-432.309 L -4.55452,-432.823 L -5.41809,-433.451
 L -6.19623,-434.181 L -6.87663,-435.004 L -7.44859,-435.905 L -7.90309,-436.871 L -8.23296,-437.886 L -8.43297,-438.935
 L -8.5,-440 L -8.43297,-441.065 L -8.23296,-442.114 L -7.90309,-443.129 L -7.44859,-444.095 L -6.87663,-444.996
 L -6.19623,-445.819 L -5.41809,-446.549 L -4.55452,-447.177 L -3.61911,-447.691 L -2.62663,-448.084 L -1.59273,-448.349
 L -0.533707,-448.483 L 0.533707,-448.483 L 1.59273,-448.349 L 2.62663,-448.084 L 3.61911,-447.691 L 4.55452,-447.177
 L 5.41809,-446.549 L 6.19623,-445.819 L 6.87663,-444.996 L 7.44859,-444.095 L 7.90309,-443.129 L 8.23296,-442.114
 L 8.43297,-441.065 L 8.5,-440 L 8.43297,-438.935 L 8.23296,-437.886 L 7.90309,-436.871 L 7.44859,-435.905
 L 6.87663,-435.004 L 6.19623,-434.181 L 5.41809,-433.451 L 4.55452,-432.823 L 3.61911,-432.309 L 2.62663,-431.916
 L 1.59273,-431.651 L 0.533707,-431.517 z
M 8.09975,-429.134 L 7.80632,-429.202 L 7.52382,-429.307 L 7.25673,-429.447 L 7.00923,-429.619 L 6.78526,-429.821
 L 6.58832,-430.049 L 6.42152,-430.3 L 6.28752,-430.57 L 6.1884,-430.855 L 6.12573,-431.149 L 6.10052,-431.45
 L 6.11314,-431.751 L 6.16341,-432.048 L 6.25052,-432.337 L 6.37311,-432.612 L 6.52924,-432.87 L 6.71645,-433.106
 L 6.93178,-433.317 L 7.17186,-433.499 L 7.43286,-433.65 L 7.71071,-433.767 L 8.00101,-433.848 L 8.29916,-433.892
 L 8.60049,-433.898 L 8.90024,-433.866 L 9.19366,-433.798 L 9.47617,-433.693 L 9.74326,-433.553 L 9.99075,-433.381
 L 10.2147,-433.179 L 10.4117,-432.951 L 10.5785,-432.7 L 10.7125,-432.43 L 10.8116,-432.145 L 10.8743,-431.851
 L 10.8995,-431.55 L 10.8868,-431.249 L 10.8366,-430.952 L 10.7495,-430.663 L 10.6269,-430.388 L 10.4707,-430.13
 L 10.2835,-429.894 L 10.0682,-429.683 L 9.82812,-429.501 L 9.56712,-429.35 L 9.28928,-429.234 L 8.99898,-429.152
 L 8.70082,-429.108 L 8.39949,-429.102 z
M -8.90024,-429.134 L -9.19366,-429.202 L -9.47617,-429.307 L -9.74326,-429.447 L -9.99075,-429.619 L -10.2147,-429.821
 L -10.4117,-430.049 L -10.5785,-430.3 L -10.7125,-430.57 L -10.8116,-430.855 L -10.8743,-431.149 L -10.8995,-431.45
 L -10.8868,-431.751 L -10.8366,-432.048 L -10.7495,-432.337 L -10.6269,-432.612 L -10.4707,-432.87 L -10.2835,-433.106
 L -10.0682,-433.317 L -9.82812,-433.499 L -9.56712,-433.65 L -9.28928,-433.767 L -8.99898,-433.848 L -8.70082,-433.892
 L -8.39949,-433.898 L -8.09975,-433.866 L -7.80632,-433.798 L -7.52382,-433.693 L -7.25673,-433.553 L -7.00923,-433.381
 L -6.78526,-433.179 L -6.58832,-432.951 L -6.42152,-432.7 L -6.28752,-432.43 L -6.1884,-432.145 L -6.12573,-431.851
 L -6.10052,-431.55 L -6.11314,-431.249 L -6.16341,-430.952 L -6.25052,-430.663 L -6.37311,-430.388 L -6.52924,-430.13
 L -6.71645,-429.894 L -6.93178,-429.683 L -7.17186,-429.501 L -7.43286,-429.35 L -7.71071,-429.234 L -8.00101,-429.152
 L -8.29916,-429.108 L -8.60049,-429.102 z
M 2.93004,-314.64 L 4.83203,-315.129 L 6.65782,-315.851 L 8.37862,-316.797 L 9.96727,-317.952 L 11.3987,-319.296
 L 12.6504,-320.809 L 13.7026,-322.467 L 14.5387,-324.244 L 15.1455,-326.111 L 15.5135,-328.04 L 15.6368,-330
 L 15.5135,-331.96 L 15.1455,-333.889 L 14.5387,-335.756 L 13.7026,-337.533 L 12.6504,-339.191 L 11.3987,-340.704
 L 9.96727,-342.048 L 8.37862,-343.203 L 6.65782,-344.149 L 4.83203,-344.871 L 2.93004,-345.36 L 0.981842,-345.606
 L -0.981842,-345.606 L -2.93004,-345.36 L -4.83203,-344.871 L -6.65782,-344.149 L -8.37862,-343.203 L -9.96727,-342.048
 L -11.3987,-340.704 L -12.6504,-339.191 L -13.7026,-337.533 L -14.5387,-335.756 L -15.1455,-333.889 L -15.5135,-331.96
 L -15.6368,-330 L -15.5135,-328.04 L -15.1455,-326.111 L -14.5387,-324.244 L -13.7026,-322.467 L -12.6504,-320.809
 L -11.3987,-319.296 L -9.96727,-317.952 L -8.37862,-316.797 L -6.65782,-315.851 L -4.83203,-315.129 L -2.93004,-314.64
 L -0.981842,-314.394 L 0.981842,-314.394 z
M 5.60176,-336.827 L 5.60176,-340.173 L 8.49998,-341.847 L 11.3982,-340.173 L 11.3982,-336.827 L 8.5,-335.153
 z
M -11.3982,-336.827 L -11.3982,-340.173 L -8.5,-341.847 L -5.60176,-340.173 L -5.60176,-336.827 L -8.49998,-335.153
 z
M -0.533707,-321.517 L -1.59273,-321.651 L -2.62663,-321.916 L -3.61911,-322.309 L -4.55452,-322.823 L -5.41809,-323.451
 L -6.19623,-324.181 L -6.87663,-325.004 L -7.44859,-325.905 L -7.90309,-326.871 L -8.23296,-327.886 L -8.43297,-328.935
 L -8.5,-330 L -8.43297,-331.065 L -8.23296,-332.114 L -7.90309,-333.129 L -7.44859,-334.095 L -6.87663,-334.996
 L -6.19623,-335.819 L -5.41809,-336.549 L -4.55452,-337.177 L -3.61911,-337.691 L -2.62663,-338.084 L -1.59273,-338.349
 L -0.533707,-338.483 L 0.533707,-338.483 L 1.59273,-338.349 L 2.62663,-338.084 L 3.61911,-337.691 L 4.55452,-337.177
 L 5.41809,-336.549 L 6.19623,-335.819 L 6.87663,-334.996 L 7.44859,-334.095 L 7.90309,-333.129 L 8.23296,-332.114
 L 8.43297,-331.065 L 8.5,-330 L 8.43297,-328.935 L 8.23296,-327.886 L 7.90309,-326.871 L 7.44859,-325.905
 L 6.87663,-325.004 L 6.19623,-324.181 L 5.41809,-323.451 L 4.55452,-322.823 L 3.61911,-322.309 L 2.62663,-321.916
 L 1.59273,-321.651 L 0.533707,-321.517 z
M -11.3982,-319.827 L -11.3982,-323.173 L -8.5,-324.847 L -5.60176,-323.173 L -5.60176,-319.827 L -8.49998,-318.153
 z
M 5.60176,-319.827 L 5.60176,-323.173 L 8.49998,-324.847 L 11.3982,-323.173 L 11.3982,-319.827 L 8.5,-318.153
 z
M 2.96718,-204.445 L 4.89328,-204.94 L 6.7422,-205.672 L 8.4848,-206.63 L 10.0936,-207.799 L 11.5432,-209.16
 L 12.8108,-210.692 L 13.8763,-212.371 L 14.723,-214.171 L 15.3375,-216.062 L 15.7101,-218.015 L 15.835,-220
 L 15.7101,-221.985 L 15.3375,-223.938 L 14.723,-225.829 L 13.8763,-227.629 L 12.8108,-229.308 L 11.5432,-230.84
 L 10.0936,-232.201 L 8.4848,-233.37 L 6.7422,-234.328 L 4.89328,-235.06 L 2.96718,-235.555 L 0.994278,-235.804
 L -0.994278,-235.804 L -2.96718,-235.555 L -4.89328,-235.06 L -6.7422,-234.328 L -8.4848,-233.37 L -10.0936,-232.201
 L -11.5432,-230.84 L -12.8108,-229.308 L -13.8763,-227.629 L -14.723,-225.829 L -15.3375,-223.938 L -15.7101,-221.985
 L -15.835,-220 L -15.7101,-218.015 L -15.3375,-216.062 L -14.723,-214.171 L -13.8763,-212.371 L -12.8108,-210.692
 L -11.5432,-209.16 L -10.0936,-207.799 L -8.4848,-206.63 L -6.7422,-205.672 L -4.89328,-204.94 L -2.96718,-204.445
 L -0.994278,-204.196 L 0.994278,-204.196 z
M -11.3982,-226.827 L -11.3982,-230.173 L -8.5,-231.847 L -5.60176,-230.173 L -5.60176,-226.827 L -8.49998,-225.153
 z
M 5.60176,-226.827 L 5.60176,-230.173 L 8.49998,-231.847 L 11.3982,-230.173 L 11.3982,-226.827 L 8.5,-225.153
 z
M -0.470917,-212.515 L -1.40535,-212.633 L -2.31763,-212.867 L -3.19334,-213.214 L -4.01869,-213.668 L -4.78067,-214.221
 L -5.46725,-214.866 L -6.06763,-215.592 L -6.5723,-216.387 L -6.97331,-217.239 L -7.26436,-218.135 L -7.44086,-219.06
 L -7.5,-220 L -7.44086,-220.94 L -7.26436,-221.865 L -6.97331,-222.761 L -6.5723,-223.613 L -6.06763,-224.408
 L -5.46725,-225.134 L -4.78067,-225.779 L -4.01869,-226.332 L -3.19334,-226.786 L -2.31763,-227.133 L -1.40535,-227.367
 L -0.470917,-227.485 L 0.470917,-227.485 L 1.40535,-227.367 L 2.31763,-227.133 L 3.19334,-226.786 L 4.01869,-226.332
 L 4.78067,-225.779 L 5.46725,-225.134 L 6.06763,-224.408 L 6.5723,-223.613 L 6.97331,-222.761 L 7.26436,-221.865
 L 7.44086,-220.94 L 7.5,-220 L 7.44086,-219.06 L 7.26436,-218.135 L 6.97331,-217.239 L 6.5723,-216.387
 L 6.06763,-215.592 L 5.46725,-214.866 L 4.78067,-214.221 L 4.01869,-213.668 L 3.19334,-213.214 L 2.31763,-212.867
 L 1.40535,-212.633 L 0.470917,-212.515 z
M 0.749512,-216.071 L 1.23605,-216.196 L 1.70311,-216.381 L 2.1433,-216.623 L 2.54968,-216.918 L 2.91586,-217.262
 L 3.23605,-217.649 L 3.50522,-218.073 L 3.7191,-218.528 L 3.87433,-219.005 L 3.96844,-219.499 L 4,-220
 L 3.96844,-220.501 L 3.87433,-220.995 L 3.7191,-221.472 L 3.50522,-221.927 L 3.23605,-222.351 L 2.91586,-222.738
 L 2.54968,-223.082 L 2.1433,-223.377 L 1.70311,-223.619 L 1.23605,-223.804 L 0.749512,-223.929 L 0.25116,-223.992
 L -0.25116,-223.992 L -0.749512,-223.929 L -1.23605,-223.804 L -1.70311,-223.619 L -2.1433,-223.377 L -2.54968,-223.082
 L -2.91586,-222.738 L -3.23605,-222.351 L -3.50522,-221.927 L -3.7191,-221.472 L -3.87433,-220.995 L -3.96844,-220.501
 L -4,-220 L -3.96844,-219.499 L -3.87433,-219.005 L -3.7191,-218.528 L -3.50522,-218.073 L -3.23605,-217.649
 L -2.91586,-217.262 L -2.54968,-216.918 L -2.1433,-216.623 L -1.70311,-216.381 L -1.23605,-216.196 L -0.749512,-216.071
 L -0.25116,-216.008 L 0.25116,-216.008 z
M -0.18837,-217.006 L -0.562134,-217.053 L -0.927048,-217.147 L -1.27733,-217.286 L -1.60747,-217.467 L -1.91226,-217.688
 L -2.1869,-217.946 L -2.42705,-218.237 L -2.62891,-218.555 L -2.78932,-218.896 L -2.90575,-219.254 L -2.97633,-219.624
 L -3,-220 L -2.97633,-220.376 L -2.90575,-220.746 L -2.78932,-221.104 L -2.62891,-221.445 L -2.42705,-221.763
 L -2.1869,-222.054 L -1.91226,-222.312 L -1.60747,-222.533 L -1.27733,-222.714 L -0.927048,-222.853 L -0.562134,-222.947
 L -0.18837,-222.994 L 0.18837,-222.994 L 0.562134,-222.947 L 0.927048,-222.853 L 1.27733,-222.714 L 1.60747,-222.533
 L 1.91226,-222.312 L 2.1869,-222.054 L 2.42705,-221.763 L 2.62891,-221.445 L 2.78932,-221.104 L 2.90575,-220.746
 L 2.97633,-220.376 L 3,-220 L 2.97633,-219.624 L 2.90575,-219.254 L 2.78932,-218.896 L 2.62891,-218.555
 L 2.42705,-218.237 L 2.1869,-217.946 L 1.91226,-217.688 L 1.60747,-217.467 L 1.27733,-217.286 L 0.927048,-217.147
 L 0.562134,-217.053 L 0.18837,-217.006 z
M 5.60176,-209.827 L 5.60176,-213.173 L 8.49998,-214.847 L 11.3982,-213.173 L 11.3982,-209.827 L 8.5,-208.153
 z
M -11.3982,-209.827 L -11.3982,-213.173 L -8.5,-214.847 L -5.60176,-213.173 L -5.60176,-209.827 L -8.49998,-208.153
 z
M 2.94315,-94.5715 L 4.85364,-95.062 L 6.68759,-95.7881 L 8.41608,-96.7384 L 10.0118,-97.8978 L 11.4497,-99.248
 L 12.707,-100.768 L 13.7639,-102.433 L 14.6037,-104.218 L 15.2133,-106.094 L 15.5829,-108.031 L 15.7067,-110
 L 15.5829,-111.969 L 15.2133,-113.906 L 14.6037,-115.782 L 13.7639,-117.567 L 12.707,-119.232 L 11.4497,-120.752
 L 10.0118,-122.102 L 8.41608,-123.262 L 6.68759,-124.212 L 4.85364,-124.938 L 2.94315,-125.429 L 0.986221,-125.676
 L -0.986221,-125.676 L -2.94315,-125.429 L -4.85364,-124.938 L -6.68759,-124.212 L -8.41608,-123.262 L -10.0118,-122.102
 L -11.4497,-120.752 L -12.707,-119.232 L -13.7639,-117.567 L -14.6037,-115.782 L -15.2133,-113.906 L -15.5829,-111.969
 L -15.7067,-110 L -15.5829,-108.031 L -15.2133,-106.094 L -14.6037,-104.218 L -13.7639,-102.433 L -12.707,-100.768
 L -11.4497,-99.248 L -10.0118,-97.8978 L -8.41608,-96.7384 L -6.68759,-95.7881 L -4.85364,-95.062 L -2.94315,-94.5715
 L -0.986221,-94.3243 L 0.986221,-94.3243 z
M -11.3982,-116.827 L -11.3982,-120.173 L -8.5,-121.847 L -5.60176,-120.173 L -5.60176,-116.827 L -8.49998,-115.153
 z
M 5.60176,-116.827 L 5.60176,-120.173 L 8.49998,-121.847 L 11.3982,-120.173 L 11.3982,-116.827 L 8.5,-115.153
 z
M -0.533707,-101.517 L -1.59273,-101.651 L -2.62663,-101.916 L -3.61911,-102.309 L -4.55452,-102.823 L -5.41809,-103.451
 L -6.19623,-104.181 L -6.87663,-105.004 L -7.44859,-105.905 L -7.90309,-106.871 L -8.23296,-107.886 L -8.43297,-108.935
 L -8.5,-110 L -8.43297,-111.065 L -8.23296,-112.114 L -7.90309,-113.129 L -7.44859,-114.095 L -6.87663,-114.996
 L -6.19623,-115.819 L -5.41809,-116.549 L -4.55452,-117.177 L -3.61911,-117.691 L -2.62663,-118.084 L -1.59273,-118.349
 L -0.533707,-118.483 L 0.533707,-118.483 L 1.59273,-118.349 L 2.62663,-118.084 L 3.61911,-117.691 L 4.55452,-117.177
 L 5.41809,-116.549 L 6.19623,-115.819 L 6.87663,-114.996 L 7.44859,-114.095 L 7.90309,-113.129 L 8.23296,-112.114
 L 8.43297,-111.065 L 8.5,-110 L 8.43297,-108.935 L 8.23296,-107.886 L 7.90309,-106.871 L 7.44859,-105.905
 L 6.87663,-105.004 L 6.19623,-104.181 L 5.41809,-103.451 L 4.55452,-102.823 L 3.61911,-102.309 L 2.62663,-101.916
 L 1.59273,-101.651 L 0.533707,-101.517 z
M -11.3982,-99.8267 L -11.3982,-103.173 L -8.5,-104.847 L -5.60176,-103.173 L -5.60176,-99.8267 L -8.49998,-98.1534
 z
M 5.60176,-99.8267 L 5.60176,-103.173 L 8.49998,-104.847 L 11.3982,-103.173 L 11.3982,-99.8267 L 8.5,-98.1534
 z
M 2.93004,15.3598 L 4.83203,14.8715 L 6.65782,14.1486 L 8.37862,13.2026 L 9.96727,12.0484 L 11.3987,10.7041
 L 12.6504,9.19107 L 13.7026,7.53308 L 14.5387,5.75629 L 15.1455,3.8887 L 15.5135,1.95981 L 15.6368,-0
 L 15.5135,-1.95981 L 15.1455,-3.8887 L 14.5387,-5.75629 L 13.7026,-7.53308 L 12.6504,-9.19107 L 11.3987,-10.7041
 L 9.96727,-12.0484 L 8.37862,-13.2026 L 6.65782,-14.1486 L 4.83203,-14.8715 L 2.93004,-15.3598 L 0.981842,-15.6059
 L -0.981842,-15.6059 L -2.93004,-15.3598 L -4.83203,-14.8715 L -6.65782,-14.1486 L -8.37862,-13.2026 L -9.96727,-12.0484
 L -11.3987,-10.7041 L -12.6504,-9.19107 L -13.7026,-7.53308 L -14.5387,-5.75629 L -15.1455,-3.8887 L -15.5135,-1.95981
 L -15.6368,-0 L -15.5135,1.95981 L -15.1455,3.8887 L -14.5387,5.75629 L -13.7026,7.53308 L -12.6504,9.19107
 L -11.3987,10.7041 L -9.96727,12.0484 L -8.37862,13.2026 L -6.65782,14.1486 L -4.83203,14.8715 L -2.93004,15.3598
 L -0.981842,15.6059 L 0.981842,15.6059 z
M 8.09975,-6.13361 L 7.80632,-6.20242 L 7.52382,-6.30748 L 7.25673,-6.44711 L 7.00923,-6.61913 L 6.78526,-6.8208
 L 6.58832,-7.04895 L 6.42152,-7.29999 L 6.28752,-7.56996 L 6.1884,-7.85458 L 6.12573,-8.1494 L 6.10052,-8.44974
 L 6.11314,-8.75085 L 6.16341,-9.04803 L 6.25052,-9.33656 L 6.37311,-9.61191 L 6.52924,-9.86971 L 6.71645,-10.1059
 L 6.93178,-10.3168 L 7.17186,-10.499 L 7.43286,-10.6497 L 7.71071,-10.7665 L 8.00101,-10.8475 L 8.29916,-10.8916
 L 8.60049,-10.8979 L 8.90024,-10.8664 L 9.19366,-10.7976 L 9.47617,-10.6925 L 9.74326,-10.5529 L 9.99075,-10.3809
 L 10.2147,-10.1792 L 10.4117,-9.95103 L 10.5785,-9.7 L 10.7125,-9.43002 L 10.8116,-9.1454 L 10.8743,-8.85059
 L 10.8995,-8.55025 L 10.8868,-8.24913 L 10.8366,-7.95195 L 10.7495,-7.66342 L 10.6269,-7.38808 L 10.4707,-7.13028
 L 10.2835,-6.89407 L 10.0682,-6.6832 L 9.82812,-6.50098 L 9.56712,-6.35028 L 9.28928,-6.23349 L 8.99898,-6.15244
 L 8.70082,-6.10841 L 8.39949,-6.1021 z
M -8.90024,-6.13361 L -9.19366,-6.20242 L -9.47617,-6.30748 L -9.74326,-6.44711 L -9.99075,-6.61913 L -10.2147,-6.8208
 L -10.4117,-7.04895 L -10.5785,-7.29999 L -10.7125,-7.56996 L -10.8116,-7.85458 L -10.8743,-8.1494 L -10.8995,-8.44974
 L -10.8868,-8.75085 L -10.8366,-9.04803 L -10.7495,-9.33656 L -10.6269,-9.61191 L -10.4707,-9.86971 L -10.2835,-10.1059
 L -10.0682,-10.3168 L -9.82812,-10.499 L -9.56712,-10.6497 L -9.28928,-10.7665 L -8.99898,-10.8475 L -8.70082,-10.8916
 L -8.39949,-10.8979 L -8.09975,-10.8664 L -7.80632,-10.7976 L -7.52382,-10.6925 L -7.25673,-10.5529 L -7.00923,-10.3809
 L -6.78526,-10.1792 L -6.58832,-9.95103 L -6.42152,-9.7 L -6.28752,-9.43002 L -6.1884,-9.1454 L -6.12573,-8.85059
 L -6.10052,-8.55025 L -6.11314,-8.24913 L -6.16341,-7.95195 L -6.25052,-7.66342 L -6.37311,-7.38808 L -6.52924,-7.13028
 L -6.71645,-6.89407 L -6.93178,-6.6832 L -7.17186,-6.50098 L -7.43286,-6.35028 L -7.71071,-6.23349 L -8.00101,-6.15244
 L -8.29916,-6.10841 L -8.60049,-6.1021 z
M -0.533707,8.48322 L -1.59273,8.34944 L -2.62663,8.08397 L -3.61911,7.69102 L -4.55452,7.17677 L -5.41809,6.54936
 L -6.19623,5.81865 L -6.87663,4.99617 L -7.44859,4.09489 L -7.90309,3.12904 L -8.23296,2.11386 L -8.43297,1.06532
 L -8.5,-0 L -8.43297,-1.06532 L -8.23296,-2.11386 L -7.90309,-3.12904 L -7.44859,-4.09489 L -6.87663,-4.99617
 L -6.19623,-5.81865 L -5.41809,-6.54936 L -4.55452,-7.17677 L -3.61911,-7.69102 L -2.62663,-8.08397 L -1.59273,-8.34944
 L -0.533707,-8.48322 L 0.533707,-8.48322 L 1.59273,-8.34944 L 2.62663,-8.08397 L 3.61911,-7.69102 L 4.55452,-7.17677
 L 5.41809,-6.54936 L 6.19623,-5.81865 L 6.87663,-4.99617 L 7.44859,-4.09489 L 7.90309,-3.12904 L 8.23296,-2.11386
 L 8.43297,-1.06532 L 8.5,-0 L 8.43297,1.06532 L 8.23296,2.11386 L 7.90309,3.12904 L 7.44859,4.09489
 L 6.87663,4.99617 L 6.19623,5.81865 L 5.41809,6.54936 L 4.55452,7.17677 L 3.61911,7.69102 L 2.62663,8.08397
 L 1.59273,8.34944 L 0.533707,8.48322 z
M -8.90024,10.8664 L -9.19366,10.7976 L -9.47617,10.6925 L -9.74326,10.5529 L -9.99075,10.3809 L -10.2147,10.1792
 L -10.4117,9.95103 L -10.5785,9.7 L -10.7125,9.43002 L -10.8116,9.1454 L -10.8743,8.85059 L -10.8995,8.55025
 L -10.8868,8.24913 L -10.8366,7.95195 L -10.7495,7.66342 L -10.6269,7.38808 L -10.4707,7.13028 L -10.2835,6.89407
 L -10.0682,6.6832 L -9.82812,6.50098 L -9.56712,6.35028 L -9.28928,6.23349 L -8.99898,6.15244 L -8.70082,6.10841
 L -8.39949,6.1021 L -8.09975,6.13361 L -7.80632,6.20242 L -7.52382,6.30748 L -7.25673,6.44711 L -7.00923,6.61913
 L -6.78526,6.8208 L -6.58832,7.04895 L -6.42152,7.29999 L -6.28752,7.56996 L -6.1884,7.85458 L -6.12573,8.1494
 L -6.10052,8.44974 L -6.11314,8.75085 L -6.16341,9.04803 L -6.25052,9.33656 L -6.37311,9.61191 L -6.52924,9.86971
 L -6.71645,10.1059 L -6.93178,10.3168 L -7.17186,10.499 L -7.43286,10.6497 L -7.71071,10.7665 L -8.00101,10.8475
 L -8.29916,10.8916 L -8.60049,10.8979 z
M 8.09975,10.8664 L 7.80632,10.7976 L 7.52382,10.6925 L 7.25673,10.5529 L 7.00923,10.3809 L 6.78526,10.1792
 L 6.58832,9.95103 L 6.42152,9.7 L 6.28752,9.43002 L 6.1884,9.1454 L 6.12573,8.85059 L 6.10052,8.55025
 L 6.11314,8.24913 L 6.16341,7.95195 L 6.25052,7.66342 L 6.37311,7.38808 L 6.52924,7.13028 L 6.71645,6.89407
 L 6.93178,6.6832 L 7.17186,6.50098 L 7.43286,6.35028 L 7.71071,6.23349 L 8.00101,6.15244 L 8.29916,6.10841
 L 8.60049,6.1021 L 8.90024,6.13361 L 9.19366,6.20242 L 9.47617,6.30748 L 9.74326,6.44711 L 9.99075,6.61913
 L 10.2147,6.8208 L 10.4117,7.04895 L 10.5785,7.29999 L 10.7125,7.56996 L 10.8116,7.85458 L 10.8743,8.1494
 L 10.8995,8.44974 L 10.8868,8.75085 L 10.8366,9.04803 L 10.7495,9.33656 L 10.6269,9.61191 L 10.4707,9.86971
 L 10.2835,10.1059 L 10.0682,10.3168 L 9.82812,10.499 L 9.56712,10.6497 L 9.28928,10.7665 L 8.99898,10.8475
 L 8.70082,10.8916 L 8.39949,10.8979 z
" stroke="black" fill="lightgray" stroke-width="0.5"/>
</svg>
