  0
SECTION
  2
BLOCKS
  0
ENDSEC
  0
SECTION
  2
ENTITIES
  0
LINE
  8
0
 10
10.9369
 20
591.089
 11
11.5451
 21
591.245
  0
LINE
  8
0
 10
11.5451
 20
591.245
 11
12.1289
 21
591.476
  0
LINE
  8
0
 10
12.1289
 20
591.476
 11
12.6791
 21
591.778
  0
LINE
  8
0
 10
12.6791
 20
591.778
 11
13.1871
 21
592.147
  0
LINE
  8
0
 10
13.1871
 20
592.147
 11
13.6448
 21
592.577
  0
LINE
  8
0
 10
13.6448
 20
592.577
 11
14.0451
 21
593.061
  0
LINE
  8
0
 10
14.0451
 20
593.061
 11
14.3815
 21
593.591
  0
LINE
  8
0
 10
14.3815
 20
593.591
 11
14.6489
 21
594.159
  0
LINE
  8
0
 10
14.6489
 20
594.159
 11
14.8429
 21
594.757
  0
LINE
  8
0
 10
14.8429
 20
594.757
 11
14.9606
 21
595.373
  0
LINE
  8
0
 10
14.9606
 20
595.373
 11
15
 21
596
  0
LINE
  8
0
 10
15
 20
596
 11
15
 21
646
  0
LINE
  8
0
 10
15
 20
646
 11
14.9606
 21
646.627
  0
LINE
  8
0
 10
14.9606
 20
646.627
 11
14.8429
 21
647.243
  0
LINE
  8
0
 10
14.8429
 20
647.243
 11
14.6489
 21
647.841
  0
LINE
  8
0
 10
14.6489
 20
647.841
 11
14.3815
 21
648.409
  0
LINE
  8
0
 10
14.3815
 20
648.409
 11
14.0451
 21
648.939
  0
LINE
  8
0
 10
14.0451
 20
648.939
 11
13.6448
 21
649.423
  0
LINE
  8
0
 10
13.6448
 20
649.423
 11
13.1871
 21
649.853
  0
LINE
  8
0
 10
13.1871
 20
649.853
 11
12.6791
 21
650.222
  0
LINE
  8
0
 10
12.6791
 20
650.222
 11
12.1289
 21
650.524
  0
LINE
  8
0
 10
12.1289
 20
650.524
 11
11.5451
 21
650.755
  0
LINE
  8
0
 10
11.5451
 20
650.755
 11
10.9369
 21
650.911
  0
LINE
  8
0
 10
10.9369
 20
650.911
 11
10.3139
 21
650.99
  0
LINE
  8
0
 10
10.3139
 20
650.99
 11
-10.3139
 21
650.99
  0
LINE
  8
0
 10
-10.3139
 20
650.99
 11
-10.9369
 21
650.911
  0
LINE
  8
0
 10
-10.9369
 20
650.911
 11
-11.5451
 21
650.755
  0
LINE
  8
0
 10
-11.5451
 20
650.755
 11
-12.1289
 21
650.524
  0
LINE
  8
0
 10
-12.1289
 20
650.524
 11
-12.6791
 21
650.222
  0
LINE
  8
0
 10
-12.6791
 20
650.222
 11
-13.1871
 21
649.853
  0
LINE
  8
0
 10
-13.1871
 20
649.853
 11
-13.6448
 21
649.423
  0
LINE
  8
0
 10
-13.6448
 20
649.423
 11
-14.0451
 21
648.939
  0
LINE
  8
0
 10
-14.0451
 20
648.939
 11
-14.3815
 21
648.409
  0
LINE
  8
0
 10
-14.3815
 20
648.409
 11
-14.6489
 21
647.841
  0
LINE
  8
0
 10
-14.6489
 20
647.841
 11
-14.8429
 21
647.243
  0
LINE
  8
0
 10
-14.8429
 20
647.243
 11
-14.9606
 21
646.627
  0
LINE
  8
0
 10
-14.9606
 20
646.627
 11
-15
 21
646
  0
LINE
  8
0
 10
-15
 20
646
 11
-15
 21
596
  0
LINE
  8
0
 10
-15
 20
596
 11
-14.9606
 21
595.373
  0
LINE
  8
0
 10
-14.9606
 20
595.373
 11
-14.8429
 21
594.757
  0
LINE
  8
0
 10
-14.8429
 20
594.757
 11
-14.6489
 21
594.159
  0
LINE
  8
0
 10
-14.6489
 20
594.159
 11
-14.3815
 21
593.591
  0
LINE
  8
0
 10
-14.3815
 20
593.591
 11
-14.0451
 21
593.061
  0
LINE
  8
0
 10
-14.0451
 20
593.061
 11
-13.6448
 21
592.577
  0
LINE
  8
0
 10
-13.6448
 20
592.577
 11
-13.1871
 21
592.147
  0
LINE
  8
0
 10
-13.1871
 20
592.147
 11
-12.6791
 21
591.778
  0
LINE
  8
0
 10
-12.6791
 20
591.778
 11
-12.1289
 21
591.476
  0
LINE
  8
0
 10
-12.1289
 20
591.476
 11
-11.5451
 21
591.245
  0
LINE
  8
0
 10
-11.5451
 20
591.245
 11
-10.9369
 21
591.089
  0
LINE
  8
0
 10
-10.9369
 20
591.089
 11
-10.3139
 21
591.01
  0
LINE
  8
0
 10
-10.3139
 20
591.01
 11
10.3139
 21
591.01
  0
LINE
  8
0
 10
10.3139
 20
591.01
 11
10.9369
 21
591.089
  0
LINE
  8
0
 10
-4.81104
 20
591.509
 11
-4.32086
 21
591.778
  0
LINE
  8
0
 10
-4.32086
 20
591.778
 11
-3.81287
 21
592.147
  0
LINE
  8
0
 10
-3.81287
 20
592.147
 11
-3.35515
 21
592.577
  0
LINE
  8
0
 10
-3.35515
 20
592.577
 11
-2.95491
 21
593.061
  0
LINE
  8
0
 10
-2.95491
 20
593.061
 11
-2.61845
 21
593.591
  0
LINE
  8
0
 10
-2.61845
 20
593.591
 11
-2.3511
 21
594.159
  0
LINE
  8
0
 10
-2.3511
 20
594.159
 11
-2.15707
 21
594.757
  0
LINE
  8
0
 10
-2.15707
 20
594.757
 11
-2.03941
 21
595.373
  0
LINE
  8
0
 10
-2.03941
 20
595.373
 11
-2
 21
596
  0
LINE
  8
0
 10
-2
 20
596
 11
-2
 21
599
  0
LINE
  8
0
 10
-2
 20
599
 11
-2.03941
 21
599.627
  0
LINE
  8
0
 10
-2.03941
 20
599.627
 11
-2.15707
 21
600.243
  0
LINE
  8
0
 10
-2.15707
 20
600.243
 11
-2.3511
 21
600.841
  0
LINE
  8
0
 10
-2.3511
 20
600.841
 11
-2.61845
 21
601.409
  0
LINE
  8
0
 10
-2.61845
 20
601.409
 11
-2.95491
 21
601.939
  0
LINE
  8
0
 10
-2.95491
 20
601.939
 11
-3.35515
 21
602.423
  0
LINE
  8
0
 10
-3.35515
 20
602.423
 11
-3.81287
 21
602.853
  0
LINE
  8
0
 10
-3.81287
 20
602.853
 11
-4.32086
 21
603.222
  0
LINE
  8
0
 10
-4.32086
 20
603.222
 11
-4.87109
 21
603.524
  0
LINE
  8
0
 10
-4.87109
 20
603.524
 11
-5.45491
 21
603.755
  0
LINE
  8
0
 10
-5.45491
 20
603.755
 11
-6.06308
 21
603.911
  0
LINE
  8
0
 10
-6.06308
 20
603.911
 11
-6.68604
 21
603.99
  0
LINE
  8
0
 10
-6.68604
 20
603.99
 11
-10.3139
 21
603.99
  0
LINE
  8
0
 10
-10.3139
 20
603.99
 11
-10.9369
 21
603.911
  0
LINE
  8
0
 10
-10.9369
 20
603.911
 11
-11.5451
 21
603.755
  0
LINE
  8
0
 10
-11.5451
 20
603.755
 11
-12.1289
 21
603.524
  0
LINE
  8
0
 10
-12.1289
 20
603.524
 11
-12.6791
 21
603.222
  0
LINE
  8
0
 10
-12.6791
 20
603.222
 11
-13.1871
 21
602.853
  0
LINE
  8
0
 10
-13.1871
 20
602.853
 11
-13.6448
 21
602.423
  0
LINE
  8
0
 10
-13.6448
 20
602.423
 11
-14.0451
 21
601.939
  0
LINE
  8
0
 10
-14.0451
 20
601.939
 11
-14.3815
 21
601.409
  0
LINE
  8
0
 10
-14.3815
 20
601.409
 11
-14.5
 21
601.157
  0
LINE
  8
0
 10
-14.5
 20
601.157
 11
-14.5
 21
646
  0
LINE
  8
0
 10
-14.5
 20
646
 11
-14.4645
 21
646.564
  0
LINE
  8
0
 10
-14.4645
 20
646.564
 11
-14.3586
 21
647.119
  0
LINE
  8
0
 10
-14.3586
 20
647.119
 11
-14.184
 21
647.657
  0
LINE
  8
0
 10
-14.184
 20
647.657
 11
-13.9434
 21
648.168
  0
LINE
  8
0
 10
-13.9434
 20
648.168
 11
-13.6406
 21
648.645
  0
LINE
  8
0
 10
-13.6406
 20
648.645
 11
-13.2803
 21
649.08
  0
LINE
  8
0
 10
-13.2803
 20
649.08
 11
-12.8684
 21
649.467
  0
LINE
  8
0
 10
-12.8684
 20
649.467
 11
-12.4112
 21
649.799
  0
LINE
  8
0
 10
-12.4112
 20
649.799
 11
-11.916
 21
650.072
  0
LINE
  8
0
 10
-11.916
 20
650.072
 11
-11.3906
 21
650.28
  0
LINE
  8
0
 10
-11.3906
 20
650.28
 11
-10.8432
 21
650.42
  0
LINE
  8
0
 10
-10.8432
 20
650.42
 11
-10.2825
 21
650.491
  0
LINE
  8
0
 10
-10.2825
 20
650.491
 11
10.2825
 21
650.491
  0
LINE
  8
0
 10
10.2825
 20
650.491
 11
10.8432
 21
650.42
  0
LINE
  8
0
 10
10.8432
 20
650.42
 11
11.3906
 21
650.28
  0
LINE
  8
0
 10
11.3906
 20
650.28
 11
11.916
 21
650.072
  0
LINE
  8
0
 10
11.916
 20
650.072
 11
12.4112
 21
649.799
  0
LINE
  8
0
 10
12.4112
 20
649.799
 11
12.8684
 21
649.467
  0
LINE
  8
0
 10
12.8684
 20
649.467
 11
13.2803
 21
649.08
  0
LINE
  8
0
 10
13.2803
 20
649.08
 11
13.6406
 21
648.645
  0
LINE
  8
0
 10
13.6406
 20
648.645
 11
13.9434
 21
648.168
  0
LINE
  8
0
 10
13.9434
 20
648.168
 11
14.184
 21
647.657
  0
LINE
  8
0
 10
14.184
 20
647.657
 11
14.3586
 21
647.119
  0
LINE
  8
0
 10
14.3586
 20
647.119
 11
14.4645
 21
646.564
  0
LINE
  8
0
 10
14.4645
 20
646.564
 11
14.5
 21
646
  0
LINE
  8
0
 10
14.5
 20
646
 11
14.5
 21
596
  0
LINE
  8
0
 10
14.5
 20
596
 11
14.4645
 21
595.436
  0
LINE
  8
0
 10
14.4645
 20
595.436
 11
14.3586
 21
594.881
  0
LINE
  8
0
 10
14.3586
 20
594.881
 11
14.184
 21
594.343
  0
LINE
  8
0
 10
14.184
 20
594.343
 11
13.9434
 21
593.832
  0
LINE
  8
0
 10
13.9434
 20
593.832
 11
13.6406
 21
593.355
  0
LINE
  8
0
 10
13.6406
 20
593.355
 11
13.2803
 21
592.92
  0
LINE
  8
0
 10
13.2803
 20
592.92
 11
12.8684
 21
592.533
  0
LINE
  8
0
 10
12.8684
 20
592.533
 11
12.4112
 21
592.201
  0
LINE
  8
0
 10
12.4112
 20
592.201
 11
11.916
 21
591.928
  0
LINE
  8
0
 10
11.916
 20
591.928
 11
11.3906
 21
591.72
  0
LINE
  8
0
 10
11.3906
 20
591.72
 11
10.8432
 21
591.58
  0
LINE
  8
0
 10
10.8432
 20
591.58
 11
10.2825
 21
591.509
  0
LINE
  8
0
 10
10.2825
 20
591.509
 11
-4.81104
 21
591.509
  0
LINE
  8
0
 10
7.96844
 20
641.044
 11
8.27254
 21
641.122
  0
LINE
  8
0
 10
8.27254
 20
641.122
 11
8.56444
 21
641.238
  0
LINE
  8
0
 10
8.56444
 20
641.238
 11
8.83955
 21
641.389
  0
LINE
  8
0
 10
8.83955
 20
641.389
 11
9.09355
 21
641.574
  0
LINE
  8
0
 10
9.09355
 20
641.574
 11
9.32242
 21
641.789
  0
LINE
  8
0
 10
9.32242
 20
641.789
 11
9.52254
 21
642.031
  0
LINE
  8
0
 10
9.52254
 20
642.031
 11
9.69077
 21
642.296
  0
LINE
  8
0
 10
9.69077
 20
642.296
 11
9.82443
 21
642.58
  0
LINE
  8
0
 10
9.82443
 20
642.58
 11
9.92145
 21
642.878
  0
LINE
  8
0
 10
9.92145
 20
642.878
 11
9.98029
 21
643.187
  0
LINE
  8
0
 10
9.98029
 20
643.187
 11
10
 21
643.5
  0
LINE
  8
0
 10
10
 20
643.5
 11
9.98029
 21
643.813
  0
LINE
  8
0
 10
9.98029
 20
643.813
 11
9.92145
 21
644.122
  0
LINE
  8
0
 10
9.92145
 20
644.122
 11
9.82443
 21
644.42
  0
LINE
  8
0
 10
9.82443
 20
644.42
 11
9.69077
 21
644.704
  0
LINE
  8
0
 10
9.69077
 20
644.704
 11
9.52254
 21
644.969
  0
LINE
  8
0
 10
9.52254
 20
644.969
 11
9.32242
 21
645.211
  0
LINE
  8
0
 10
9.32242
 20
645.211
 11
9.09355
 21
645.426
  0
LINE
  8
0
 10
9.09355
 20
645.426
 11
8.83955
 21
645.611
  0
LINE
  8
0
 10
8.83955
 20
645.611
 11
8.56444
 21
645.762
  0
LINE
  8
0
 10
8.56444
 20
645.762
 11
8.27254
 21
645.878
  0
LINE
  8
0
 10
8.27254
 20
645.878
 11
7.96844
 21
645.956
  0
LINE
  8
0
 10
7.96844
 20
645.956
 11
7.65697
 21
645.995
  0
LINE
  8
0
 10
7.65697
 20
645.995
 11
7.34302
 21
645.995
  0
LINE
  8
0
 10
7.34302
 20
645.995
 11
7.03154
 21
645.956
  0
LINE
  8
0
 10
7.03154
 20
645.956
 11
6.72745
 21
645.878
  0
LINE
  8
0
 10
6.72745
 20
645.878
 11
6.43555
 21
645.762
  0
LINE
  8
0
 10
6.43555
 20
645.762
 11
6.16043
 21
645.611
  0
LINE
  8
0
 10
6.16043
 20
645.611
 11
5.90643
 21
645.426
  0
LINE
  8
0
 10
5.90643
 20
645.426
 11
5.67757
 21
645.211
  0
LINE
  8
0
 10
5.67757
 20
645.211
 11
5.47745
 21
644.969
  0
LINE
  8
0
 10
5.47745
 20
644.969
 11
5.30922
 21
644.704
  0
LINE
  8
0
 10
5.30922
 20
644.704
 11
5.17555
 21
644.42
  0
LINE
  8
0
 10
5.17555
 20
644.42
 11
5.07854
 21
644.122
  0
LINE
  8
0
 10
5.07854
 20
644.122
 11
5.0197
 21
643.813
  0
LINE
  8
0
 10
5.0197
 20
643.813
 11
5
 21
643.5
  0
LINE
  8
0
 10
5
 20
643.5
 11
5.0197
 21
643.187
  0
LINE
  8
0
 10
5.0197
 20
643.187
 11
5.07854
 21
642.878
  0
LINE
  8
0
 10
5.07854
 20
642.878
 11
5.17555
 21
642.58
  0
LINE
  8
0
 10
5.17555
 20
642.58
 11
5.30922
 21
642.296
  0
LINE
  8
0
 10
5.30922
 20
642.296
 11
5.47745
 21
642.031
  0
LINE
  8
0
 10
5.47745
 20
642.031
 11
5.67757
 21
641.789
  0
LINE
  8
0
 10
5.67757
 20
641.789
 11
5.90643
 21
641.574
  0
LINE
  8
0
 10
5.90643
 20
641.574
 11
6.16043
 21
641.389
  0
LINE
  8
0
 10
6.16043
 20
641.389
 11
6.43555
 21
641.238
  0
LINE
  8
0
 10
6.43555
 20
641.238
 11
6.72745
 21
641.122
  0
LINE
  8
0
 10
6.72745
 20
641.122
 11
7.03154
 21
641.044
  0
LINE
  8
0
 10
7.03154
 20
641.044
 11
7.34302
 21
641.005
  0
LINE
  8
0
 10
7.34302
 20
641.005
 11
7.65697
 21
641.005
  0
LINE
  8
0
 10
7.65697
 20
641.005
 11
7.96844
 21
641.044
  0
LINE
  8
0
 10
7.40581
 20
642.003
 11
7.21892
 21
642.027
  0
LINE
  8
0
 10
7.21892
 20
642.027
 11
7.03647
 21
642.073
  0
LINE
  8
0
 10
7.03647
 20
642.073
 11
6.86133
 21
642.143
  0
LINE
  8
0
 10
6.86133
 20
642.143
 11
6.69626
 21
642.234
  0
LINE
  8
0
 10
6.69626
 20
642.234
 11
6.54385
 21
642.344
  0
LINE
  8
0
 10
6.54385
 20
642.344
 11
6.40654
 21
642.473
  0
LINE
  8
0
 10
6.40654
 20
642.473
 11
6.28647
 21
642.618
  0
LINE
  8
0
 10
6.28647
 20
642.618
 11
6.18553
 21
642.777
  0
LINE
  8
0
 10
6.18553
 20
642.777
 11
6.10533
 21
642.948
  0
LINE
  8
0
 10
6.10533
 20
642.948
 11
6.04712
 21
643.127
  0
LINE
  8
0
 10
6.04712
 20
643.127
 11
6.01183
 21
643.312
  0
LINE
  8
0
 10
6.01183
 20
643.312
 11
6
 21
643.5
  0
LINE
  8
0
 10
6
 20
643.5
 11
6.01183
 21
643.688
  0
LINE
  8
0
 10
6.01183
 20
643.688
 11
6.04712
 21
643.873
  0
LINE
  8
0
 10
6.04712
 20
643.873
 11
6.10533
 21
644.052
  0
LINE
  8
0
 10
6.10533
 20
644.052
 11
6.18553
 21
644.223
  0
LINE
  8
0
 10
6.18553
 20
644.223
 11
6.28647
 21
644.382
  0
LINE
  8
0
 10
6.28647
 20
644.382
 11
6.40654
 21
644.527
  0
LINE
  8
0
 10
6.40654
 20
644.527
 11
6.54385
 21
644.656
  0
LINE
  8
0
 10
6.54385
 20
644.656
 11
6.69626
 21
644.766
  0
LINE
  8
0
 10
6.69626
 20
644.766
 11
6.86133
 21
644.857
  0
LINE
  8
0
 10
6.86133
 20
644.857
 11
7.03647
 21
644.927
  0
LINE
  8
0
 10
7.03647
 20
644.927
 11
7.21892
 21
644.973
  0
LINE
  8
0
 10
7.21892
 20
644.973
 11
7.40581
 21
644.997
  0
LINE
  8
0
 10
7.40581
 20
644.997
 11
7.59418
 21
644.997
  0
LINE
  8
0
 10
7.59418
 20
644.997
 11
7.78107
 21
644.973
  0
LINE
  8
0
 10
7.78107
 20
644.973
 11
7.96352
 21
644.927
  0
LINE
  8
0
 10
7.96352
 20
644.927
 11
8.13866
 21
644.857
  0
LINE
  8
0
 10
8.13866
 20
644.857
 11
8.30373
 21
644.766
  0
LINE
  8
0
 10
8.30373
 20
644.766
 11
8.45613
 21
644.656
  0
LINE
  8
0
 10
8.45613
 20
644.656
 11
8.59344
 21
644.527
  0
LINE
  8
0
 10
8.59344
 20
644.527
 11
8.71352
 21
644.382
  0
LINE
  8
0
 10
8.71352
 20
644.382
 11
8.81445
 21
644.223
  0
LINE
  8
0
 10
8.81445
 20
644.223
 11
8.89465
 21
644.052
  0
LINE
  8
0
 10
8.89465
 20
644.052
 11
8.95287
 21
643.873
  0
LINE
  8
0
 10
8.95287
 20
643.873
 11
8.98816
 21
643.688
  0
LINE
  8
0
 10
8.98816
 20
643.688
 11
9
 21
643.5
  0
LINE
  8
0
 10
9
 20
643.5
 11
8.98816
 21
643.312
  0
LINE
  8
0
 10
8.98816
 20
643.312
 11
8.95287
 21
643.127
  0
LINE
  8
0
 10
8.95287
 20
643.127
 11
8.89465
 21
642.948
  0
LINE
  8
0
 10
8.89465
 20
642.948
 11
8.81445
 21
642.777
  0
LINE
  8
0
 10
8.81445
 20
642.777
 11
8.71352
 21
642.618
  0
LINE
  8
0
 10
8.71352
 20
642.618
 11
8.59344
 21
642.473
  0
LINE
  8
0
 10
8.59344
 20
642.473
 11
8.45613
 21
642.344
  0
LINE
  8
0
 10
8.45613
 20
642.344
 11
8.30373
 21
642.234
  0
LINE
  8
0
 10
8.30373
 20
642.234
 11
8.13866
 21
642.143
  0
LINE
  8
0
 10
8.13866
 20
642.143
 11
7.96352
 21
642.073
  0
LINE
  8
0
 10
7.96352
 20
642.073
 11
7.78107
 21
642.027
  0
LINE
  8
0
 10
7.78107
 20
642.027
 11
7.59418
 21
642.003
  0
LINE
  8
0
 10
7.59418
 20
642.003
 11
7.40581
 21
642.003
  0
LINE
  8
0
 10
-7.59418
 20
597.003
 11
-7.78107
 21
597.027
  0
LINE
  8
0
 10
-7.78107
 20
597.027
 11
-7.96352
 21
597.073
  0
LINE
  8
0
 10
-7.96352
 20
597.073
 11
-8.13866
 21
597.143
  0
LINE
  8
0
 10
-8.13866
 20
597.143
 11
-8.30373
 21
597.234
  0
LINE
  8
0
 10
-8.30373
 20
597.234
 11
-8.45613
 21
597.344
  0
LINE
  8
0
 10
-8.45613
 20
597.344
 11
-8.59344
 21
597.473
  0
LINE
  8
0
 10
-8.59344
 20
597.473
 11
-8.71352
 21
597.618
  0
LINE
  8
0
 10
-8.71352
 20
597.618
 11
-8.81445
 21
597.777
  0
LINE
  8
0
 10
-8.81445
 20
597.777
 11
-8.89465
 21
597.948
  0
LINE
  8
0
 10
-8.89465
 20
597.948
 11
-8.95287
 21
598.127
  0
LINE
  8
0
 10
-8.95287
 20
598.127
 11
-8.98816
 21
598.312
  0
LINE
  8
0
 10
-8.98816
 20
598.312
 11
-9
 21
598.5
  0
LINE
  8
0
 10
-9
 20
598.5
 11
-8.98816
 21
598.688
  0
LINE
  8
0
 10
-8.98816
 20
598.688
 11
-8.95287
 21
598.873
  0
LINE
  8
0
 10
-8.95287
 20
598.873
 11
-8.89465
 21
599.052
  0
LINE
  8
0
 10
-8.89465
 20
599.052
 11
-8.81445
 21
599.223
  0
LINE
  8
0
 10
-8.81445
 20
599.223
 11
-8.71352
 21
599.382
  0
LINE
  8
0
 10
-8.71352
 20
599.382
 11
-8.59344
 21
599.527
  0
LINE
  8
0
 10
-8.59344
 20
599.527
 11
-8.45613
 21
599.656
  0
LINE
  8
0
 10
-8.45613
 20
599.656
 11
-8.30373
 21
599.766
  0
LINE
  8
0
 10
-8.30373
 20
599.766
 11
-8.13866
 21
599.857
  0
LINE
  8
0
 10
-8.13866
 20
599.857
 11
-7.96352
 21
599.927
  0
LINE
  8
0
 10
-7.96352
 20
599.927
 11
-7.78107
 21
599.973
  0
LINE
  8
0
 10
-7.78107
 20
599.973
 11
-7.59418
 21
599.997
  0
LINE
  8
0
 10
-7.59418
 20
599.997
 11
-7.40581
 21
599.997
  0
LINE
  8
0
 10
-7.40581
 20
599.997
 11
-7.21892
 21
599.973
  0
LINE
  8
0
 10
-7.21892
 20
599.973
 11
-7.03647
 21
599.927
  0
LINE
  8
0
 10
-7.03647
 20
599.927
 11
-6.86133
 21
599.857
  0
LINE
  8
0
 10
-6.86133
 20
599.857
 11
-6.69626
 21
599.766
  0
LINE
  8
0
 10
-6.69626
 20
599.766
 11
-6.54385
 21
599.656
  0
LINE
  8
0
 10
-6.54385
 20
599.656
 11
-6.40654
 21
599.527
  0
LINE
  8
0
 10
-6.40654
 20
599.527
 11
-6.28647
 21
599.382
  0
LINE
  8
0
 10
-6.28647
 20
599.382
 11
-6.18553
 21
599.223
  0
LINE
  8
0
 10
-6.18553
 20
599.223
 11
-6.10533
 21
599.052
  0
LINE
  8
0
 10
-6.10533
 20
599.052
 11
-6.04712
 21
598.873
  0
LINE
  8
0
 10
-6.04712
 20
598.873
 11
-6.01183
 21
598.688
  0
LINE
  8
0
 10
-6.01183
 20
598.688
 11
-6
 21
598.5
  0
LINE
  8
0
 10
-6
 20
598.5
 11
-6.01183
 21
598.312
  0
LINE
  8
0
 10
-6.01183
 20
598.312
 11
-6.04712
 21
598.127
  0
LINE
  8
0
 10
-6.04712
 20
598.127
 11
-6.10533
 21
597.948
  0
LINE
  8
0
 10
-6.10533
 20
597.948
 11
-6.18553
 21
597.777
  0
LINE
  8
0
 10
-6.18553
 20
597.777
 11
-6.28647
 21
597.618
  0
LINE
  8
0
 10
-6.28647
 20
597.618
 11
-6.40654
 21
597.473
  0
LINE
  8
0
 10
-6.40654
 20
597.473
 11
-6.54385
 21
597.344
  0
LINE
  8
0
 10
-6.54385
 20
597.344
 11
-6.69626
 21
597.234
  0
LINE
  8
0
 10
-6.69626
 20
597.234
 11
-6.86133
 21
597.143
  0
LINE
  8
0
 10
-6.86133
 20
597.143
 11
-7.03647
 21
597.073
  0
LINE
  8
0
 10
-7.03647
 20
597.073
 11
-7.21892
 21
597.027
  0
LINE
  8
0
 10
-7.21892
 20
597.027
 11
-7.40581
 21
597.003
  0
LINE
  8
0
 10
-7.40581
 20
597.003
 11
-7.59418
 21
597.003
  0
LINE
  8
0
 10
10.9369
 20
522.089
 11
11.5451
 21
522.245
  0
LINE
  8
0
 10
11.5451
 20
522.245
 11
12.1289
 21
522.476
  0
LINE
  8
0
 10
12.1289
 20
522.476
 11
12.6791
 21
522.778
  0
LINE
  8
0
 10
12.6791
 20
522.778
 11
13.1871
 21
523.147
  0
LINE
  8
0
 10
13.1871
 20
523.147
 11
13.6448
 21
523.577
  0
LINE
  8
0
 10
13.6448
 20
523.577
 11
14.0451
 21
524.061
  0
LINE
  8
0
 10
14.0451
 20
524.061
 11
14.3815
 21
524.591
  0
LINE
  8
0
 10
14.3815
 20
524.591
 11
14.6489
 21
525.159
  0
LINE
  8
0
 10
14.6489
 20
525.159
 11
14.8429
 21
525.757
  0
LINE
  8
0
 10
14.8429
 20
525.757
 11
14.9606
 21
526.373
  0
LINE
  8
0
 10
14.9606
 20
526.373
 11
15
 21
527
  0
LINE
  8
0
 10
15
 20
527
 11
15
 21
577
  0
LINE
  8
0
 10
15
 20
577
 11
14.9606
 21
577.627
  0
LINE
  8
0
 10
14.9606
 20
577.627
 11
14.8429
 21
578.243
  0
LINE
  8
0
 10
14.8429
 20
578.243
 11
14.6489
 21
578.841
  0
LINE
  8
0
 10
14.6489
 20
578.841
 11
14.3815
 21
579.409
  0
LINE
  8
0
 10
14.3815
 20
579.409
 11
14.0451
 21
579.939
  0
LINE
  8
0
 10
14.0451
 20
579.939
 11
13.6448
 21
580.423
  0
LINE
  8
0
 10
13.6448
 20
580.423
 11
13.1871
 21
580.853
  0
LINE
  8
0
 10
13.1871
 20
580.853
 11
12.6791
 21
581.222
  0
LINE
  8
0
 10
12.6791
 20
581.222
 11
12.1289
 21
581.524
  0
LINE
  8
0
 10
12.1289
 20
581.524
 11
11.5451
 21
581.755
  0
LINE
  8
0
 10
11.5451
 20
581.755
 11
10.9369
 21
581.911
  0
LINE
  8
0
 10
10.9369
 20
581.911
 11
10.3139
 21
581.99
  0
LINE
  8
0
 10
10.3139
 20
581.99
 11
-10.3139
 21
581.99
  0
LINE
  8
0
 10
-10.3139
 20
581.99
 11
-10.9369
 21
581.911
  0
LINE
  8
0
 10
-10.9369
 20
581.911
 11
-11.5451
 21
581.755
  0
LINE
  8
0
 10
-11.5451
 20
581.755
 11
-12.1289
 21
581.524
  0
LINE
  8
0
 10
-12.1289
 20
581.524
 11
-12.6791
 21
581.222
  0
LINE
  8
0
 10
-12.6791
 20
581.222
 11
-13.1871
 21
580.853
  0
LINE
  8
0
 10
-13.1871
 20
580.853
 11
-13.6448
 21
580.423
  0
LINE
  8
0
 10
-13.6448
 20
580.423
 11
-14.0451
 21
579.939
  0
LINE
  8
0
 10
-14.0451
 20
579.939
 11
-14.3815
 21
579.409
  0
LINE
  8
0
 10
-14.3815
 20
579.409
 11
-14.6489
 21
578.841
  0
LINE
  8
0
 10
-14.6489
 20
578.841
 11
-14.8429
 21
578.243
  0
LINE
  8
0
 10
-14.8429
 20
578.243
 11
-14.9606
 21
577.627
  0
LINE
  8
0
 10
-14.9606
 20
577.627
 11
-15
 21
577
  0
LINE
  8
0
 10
-15
 20
577
 11
-15
 21
527
  0
LINE
  8
0
 10
-15
 20
527
 11
-14.9606
 21
526.373
  0
LINE
  8
0
 10
-14.9606
 20
526.373
 11
-14.8429
 21
525.757
  0
LINE
  8
0
 10
-14.8429
 20
525.757
 11
-14.6489
 21
525.159
  0
LINE
  8
0
 10
-14.6489
 20
525.159
 11
-14.3815
 21
524.591
  0
LINE
  8
0
 10
-14.3815
 20
524.591
 11
-14.0451
 21
524.061
  0
LINE
  8
0
 10
-14.0451
 20
524.061
 11
-13.6448
 21
523.577
  0
LINE
  8
0
 10
-13.6448
 20
523.577
 11
-13.1871
 21
523.147
  0
LINE
  8
0
 10
-13.1871
 20
523.147
 11
-12.6791
 21
522.778
  0
LINE
  8
0
 10
-12.6791
 20
522.778
 11
-12.1289
 21
522.476
  0
LINE
  8
0
 10
-12.1289
 20
522.476
 11
-11.5451
 21
522.245
  0
LINE
  8
0
 10
-11.5451
 20
522.245
 11
-10.9369
 21
522.089
  0
LINE
  8
0
 10
-10.9369
 20
522.089
 11
-10.3139
 21
522.01
  0
LINE
  8
0
 10
-10.3139
 20
522.01
 11
10.3139
 21
522.01
  0
LINE
  8
0
 10
10.3139
 20
522.01
 11
10.9369
 21
522.089
  0
LINE
  8
0
 10
-4.81104
 20
522.509
 11
-4.32086
 21
522.778
  0
LINE
  8
0
 10
-4.32086
 20
522.778
 11
-3.81287
 21
523.147
  0
LINE
  8
0
 10
-3.81287
 20
523.147
 11
-3.35515
 21
523.577
  0
LINE
  8
0
 10
-3.35515
 20
523.577
 11
-2.95491
 21
524.061
  0
LINE
  8
0
 10
-2.95491
 20
524.061
 11
-2.61845
 21
524.591
  0
LINE
  8
0
 10
-2.61845
 20
524.591
 11
-2.3511
 21
525.159
  0
LINE
  8
0
 10
-2.3511
 20
525.159
 11
-2.15707
 21
525.757
  0
LINE
  8
0
 10
-2.15707
 20
525.757
 11
-2.03941
 21
526.373
  0
LINE
  8
0
 10
-2.03941
 20
526.373
 11
-2
 21
527
  0
LINE
  8
0
 10
-2
 20
527
 11
-2
 21
530
  0
LINE
  8
0
 10
-2
 20
530
 11
-2.03941
 21
530.627
  0
LINE
  8
0
 10
-2.03941
 20
530.627
 11
-2.15707
 21
531.243
  0
LINE
  8
0
 10
-2.15707
 20
531.243
 11
-2.3511
 21
531.841
  0
LINE
  8
0
 10
-2.3511
 20
531.841
 11
-2.61845
 21
532.409
  0
LINE
  8
0
 10
-2.61845
 20
532.409
 11
-2.95491
 21
532.939
  0
LINE
  8
0
 10
-2.95491
 20
532.939
 11
-3.35515
 21
533.423
  0
LINE
  8
0
 10
-3.35515
 20
533.423
 11
-3.81287
 21
533.853
  0
LINE
  8
0
 10
-3.81287
 20
533.853
 11
-4.32086
 21
534.222
  0
LINE
  8
0
 10
-4.32086
 20
534.222
 11
-4.87109
 21
534.524
  0
LINE
  8
0
 10
-4.87109
 20
534.524
 11
-5.45491
 21
534.755
  0
LINE
  8
0
 10
-5.45491
 20
534.755
 11
-6.06308
 21
534.911
  0
LINE
  8
0
 10
-6.06308
 20
534.911
 11
-6.68604
 21
534.99
  0
LINE
  8
0
 10
-6.68604
 20
534.99
 11
-10.3139
 21
534.99
  0
LINE
  8
0
 10
-10.3139
 20
534.99
 11
-10.9369
 21
534.911
  0
LINE
  8
0
 10
-10.9369
 20
534.911
 11
-11.5451
 21
534.755
  0
LINE
  8
0
 10
-11.5451
 20
534.755
 11
-12.1289
 21
534.524
  0
LINE
  8
0
 10
-12.1289
 20
534.524
 11
-12.6791
 21
534.222
  0
LINE
  8
0
 10
-12.6791
 20
534.222
 11
-13.1871
 21
533.853
  0
LINE
  8
0
 10
-13.1871
 20
533.853
 11
-13.6448
 21
533.423
  0
LINE
  8
0
 10
-13.6448
 20
533.423
 11
-14.0451
 21
532.939
  0
LINE
  8
0
 10
-14.0451
 20
532.939
 11
-14.3815
 21
532.409
  0
LINE
  8
0
 10
-14.3815
 20
532.409
 11
-14.5
 21
532.157
  0
LINE
  8
0
 10
-14.5
 20
532.157
 11
-14.5
 21
577
  0
LINE
  8
0
 10
-14.5
 20
577
 11
-14.4645
 21
577.564
  0
LINE
  8
0
 10
-14.4645
 20
577.564
 11
-14.3586
 21
578.119
  0
LINE
  8
0
 10
-14.3586
 20
578.119
 11
-14.184
 21
578.657
  0
LINE
  8
0
 10
-14.184
 20
578.657
 11
-13.9434
 21
579.168
  0
LINE
  8
0
 10
-13.9434
 20
579.168
 11
-13.6406
 21
579.645
  0
LINE
  8
0
 10
-13.6406
 20
579.645
 11
-13.2803
 21
580.08
  0
LINE
  8
0
 10
-13.2803
 20
580.08
 11
-12.8684
 21
580.467
  0
LINE
  8
0
 10
-12.8684
 20
580.467
 11
-12.4112
 21
580.799
  0
LINE
  8
0
 10
-12.4112
 20
580.799
 11
-11.916
 21
581.072
  0
LINE
  8
0
 10
-11.916
 20
581.072
 11
-11.3906
 21
581.28
  0
LINE
  8
0
 10
-11.3906
 20
581.28
 11
-10.8432
 21
581.42
  0
LINE
  8
0
 10
-10.8432
 20
581.42
 11
-10.2825
 21
581.491
  0
LINE
  8
0
 10
-10.2825
 20
581.491
 11
10.2825
 21
581.491
  0
LINE
  8
0
 10
10.2825
 20
581.491
 11
10.8432
 21
581.42
  0
LINE
  8
0
 10
10.8432
 20
581.42
 11
11.3906
 21
581.28
  0
LINE
  8
0
 10
11.3906
 20
581.28
 11
11.916
 21
581.072
  0
LINE
  8
0
 10
11.916
 20
581.072
 11
12.4112
 21
580.799
  0
LINE
  8
0
 10
12.4112
 20
580.799
 11
12.8684
 21
580.467
  0
LINE
  8
0
 10
12.8684
 20
580.467
 11
13.2803
 21
580.08
  0
LINE
  8
0
 10
13.2803
 20
580.08
 11
13.6406
 21
579.645
  0
LINE
  8
0
 10
13.6406
 20
579.645
 11
13.9434
 21
579.168
  0
LINE
  8
0
 10
13.9434
 20
579.168
 11
14.184
 21
578.657
  0
LINE
  8
0
 10
14.184
 20
578.657
 11
14.3586
 21
578.119
  0
LINE
  8
0
 10
14.3586
 20
578.119
 11
14.4645
 21
577.564
  0
LINE
  8
0
 10
14.4645
 20
577.564
 11
14.5
 21
577
  0
LINE
  8
0
 10
14.5
 20
577
 11
14.5
 21
527
  0
LINE
  8
0
 10
14.5
 20
527
 11
14.4645
 21
526.436
  0
LINE
  8
0
 10
14.4645
 20
526.436
 11
14.3586
 21
525.881
  0
LINE
  8
0
 10
14.3586
 20
525.881
 11
14.184
 21
525.343
  0
LINE
  8
0
 10
14.184
 20
525.343
 11
13.9434
 21
524.832
  0
LINE
  8
0
 10
13.9434
 20
524.832
 11
13.6406
 21
524.355
  0
LINE
  8
0
 10
13.6406
 20
524.355
 11
13.2803
 21
523.92
  0
LINE
  8
0
 10
13.2803
 20
523.92
 11
12.8684
 21
523.533
  0
LINE
  8
0
 10
12.8684
 20
523.533
 11
12.4112
 21
523.201
  0
LINE
  8
0
 10
12.4112
 20
523.201
 11
11.916
 21
522.928
  0
LINE
  8
0
 10
11.916
 20
522.928
 11
11.3906
 21
522.72
  0
LINE
  8
0
 10
11.3906
 20
522.72
 11
10.8432
 21
522.58
  0
LINE
  8
0
 10
10.8432
 20
522.58
 11
10.2825
 21
522.509
  0
LINE
  8
0
 10
10.2825
 20
522.509
 11
-4.81104
 21
522.509
  0
LINE
  8
0
 10
7.96844
 20
572.044
 11
8.27254
 21
572.122
  0
LINE
  8
0
 10
8.27254
 20
572.122
 11
8.56444
 21
572.238
  0
LINE
  8
0
 10
8.56444
 20
572.238
 11
8.83955
 21
572.389
  0
LINE
  8
0
 10
8.83955
 20
572.389
 11
9.09355
 21
572.574
  0
LINE
  8
0
 10
9.09355
 20
572.574
 11
9.32242
 21
572.789
  0
LINE
  8
0
 10
9.32242
 20
572.789
 11
9.52254
 21
573.031
  0
LINE
  8
0
 10
9.52254
 20
573.031
 11
9.69077
 21
573.296
  0
LINE
  8
0
 10
9.69077
 20
573.296
 11
9.82443
 21
573.58
  0
LINE
  8
0
 10
9.82443
 20
573.58
 11
9.92145
 21
573.878
  0
LINE
  8
0
 10
9.92145
 20
573.878
 11
9.98029
 21
574.187
  0
LINE
  8
0
 10
9.98029
 20
574.187
 11
10
 21
574.5
  0
LINE
  8
0
 10
10
 20
574.5
 11
9.98029
 21
574.813
  0
LINE
  8
0
 10
9.98029
 20
574.813
 11
9.92145
 21
575.122
  0
LINE
  8
0
 10
9.92145
 20
575.122
 11
9.82443
 21
575.42
  0
LINE
  8
0
 10
9.82443
 20
575.42
 11
9.69077
 21
575.704
  0
LINE
  8
0
 10
9.69077
 20
575.704
 11
9.52254
 21
575.969
  0
LINE
  8
0
 10
9.52254
 20
575.969
 11
9.32242
 21
576.211
  0
LINE
  8
0
 10
9.32242
 20
576.211
 11
9.09355
 21
576.426
  0
LINE
  8
0
 10
9.09355
 20
576.426
 11
8.83955
 21
576.611
  0
LINE
  8
0
 10
8.83955
 20
576.611
 11
8.56444
 21
576.762
  0
LINE
  8
0
 10
8.56444
 20
576.762
 11
8.27254
 21
576.878
  0
LINE
  8
0
 10
8.27254
 20
576.878
 11
7.96844
 21
576.956
  0
LINE
  8
0
 10
7.96844
 20
576.956
 11
7.65697
 21
576.995
  0
LINE
  8
0
 10
7.65697
 20
576.995
 11
7.34302
 21
576.995
  0
LINE
  8
0
 10
7.34302
 20
576.995
 11
7.03154
 21
576.956
  0
LINE
  8
0
 10
7.03154
 20
576.956
 11
6.72745
 21
576.878
  0
LINE
  8
0
 10
6.72745
 20
576.878
 11
6.43555
 21
576.762
  0
LINE
  8
0
 10
6.43555
 20
576.762
 11
6.16043
 21
576.611
  0
LINE
  8
0
 10
6.16043
 20
576.611
 11
5.90643
 21
576.426
  0
LINE
  8
0
 10
5.90643
 20
576.426
 11
5.67757
 21
576.211
  0
LINE
  8
0
 10
5.67757
 20
576.211
 11
5.47745
 21
575.969
  0
LINE
  8
0
 10
5.47745
 20
575.969
 11
5.30922
 21
575.704
  0
LINE
  8
0
 10
5.30922
 20
575.704
 11
5.17555
 21
575.42
  0
LINE
  8
0
 10
5.17555
 20
575.42
 11
5.07854
 21
575.122
  0
LINE
  8
0
 10
5.07854
 20
575.122
 11
5.0197
 21
574.813
  0
LINE
  8
0
 10
5.0197
 20
574.813
 11
5
 21
574.5
  0
LINE
  8
0
 10
5
 20
574.5
 11
5.0197
 21
574.187
  0
LINE
  8
0
 10
5.0197
 20
574.187
 11
5.07854
 21
573.878
  0
LINE
  8
0
 10
5.07854
 20
573.878
 11
5.17555
 21
573.58
  0
LINE
  8
0
 10
5.17555
 20
573.58
 11
5.30922
 21
573.296
  0
LINE
  8
0
 10
5.30922
 20
573.296
 11
5.47745
 21
573.031
  0
LINE
  8
0
 10
5.47745
 20
573.031
 11
5.67757
 21
572.789
  0
LINE
  8
0
 10
5.67757
 20
572.789
 11
5.90643
 21
572.574
  0
LINE
  8
0
 10
5.90643
 20
572.574
 11
6.16043
 21
572.389
  0
LINE
  8
0
 10
6.16043
 20
572.389
 11
6.43555
 21
572.238
  0
LINE
  8
0
 10
6.43555
 20
572.238
 11
6.72745
 21
572.122
  0
LINE
  8
0
 10
6.72745
 20
572.122
 11
7.03154
 21
572.044
  0
LINE
  8
0
 10
7.03154
 20
572.044
 11
7.34302
 21
572.005
  0
LINE
  8
0
 10
7.34302
 20
572.005
 11
7.65697
 21
572.005
  0
LINE
  8
0
 10
7.65697
 20
572.005
 11
7.96844
 21
572.044
  0
LINE
  8
0
 10
7.40581
 20
573.003
 11
7.21892
 21
573.027
  0
LINE
  8
0
 10
7.21892
 20
573.027
 11
7.03647
 21
573.073
  0
LINE
  8
0
 10
7.03647
 20
573.073
 11
6.86133
 21
573.143
  0
LINE
  8
0
 10
6.86133
 20
573.143
 11
6.69626
 21
573.234
  0
LINE
  8
0
 10
6.69626
 20
573.234
 11
6.54385
 21
573.344
  0
LINE
  8
0
 10
6.54385
 20
573.344
 11
6.40654
 21
573.473
  0
LINE
  8
0
 10
6.40654
 20
573.473
 11
6.28647
 21
573.618
  0
LINE
  8
0
 10
6.28647
 20
573.618
 11
6.18553
 21
573.777
  0
LINE
  8
0
 10
6.18553
 20
573.777
 11
6.10533
 21
573.948
  0
LINE
  8
0
 10
6.10533
 20
573.948
 11
6.04712
 21
574.127
  0
LINE
  8
0
 10
6.04712
 20
574.127
 11
6.01183
 21
574.312
  0
LINE
  8
0
 10
6.01183
 20
574.312
 11
6
 21
574.5
  0
LINE
  8
0
 10
6
 20
574.5
 11
6.01183
 21
574.688
  0
LINE
  8
0
 10
6.01183
 20
574.688
 11
6.04712
 21
574.873
  0
LINE
  8
0
 10
6.04712
 20
574.873
 11
6.10533
 21
575.052
  0
LINE
  8
0
 10
6.10533
 20
575.052
 11
6.18553
 21
575.223
  0
LINE
  8
0
 10
6.18553
 20
575.223
 11
6.28647
 21
575.382
  0
LINE
  8
0
 10
6.28647
 20
575.382
 11
6.40654
 21
575.527
  0
LINE
  8
0
 10
6.40654
 20
575.527
 11
6.54385
 21
575.656
  0
LINE
  8
0
 10
6.54385
 20
575.656
 11
6.69626
 21
575.766
  0
LINE
  8
0
 10
6.69626
 20
575.766
 11
6.86133
 21
575.857
  0
LINE
  8
0
 10
6.86133
 20
575.857
 11
7.03647
 21
575.927
  0
LINE
  8
0
 10
7.03647
 20
575.927
 11
7.21892
 21
575.973
  0
LINE
  8
0
 10
7.21892
 20
575.973
 11
7.40581
 21
575.997
  0
LINE
  8
0
 10
7.40581
 20
575.997
 11
7.59418
 21
575.997
  0
LINE
  8
0
 10
7.59418
 20
575.997
 11
7.78107
 21
575.973
  0
LINE
  8
0
 10
7.78107
 20
575.973
 11
7.96352
 21
575.927
  0
LINE
  8
0
 10
7.96352
 20
575.927
 11
8.13866
 21
575.857
  0
LINE
  8
0
 10
8.13866
 20
575.857
 11
8.30373
 21
575.766
  0
LINE
  8
0
 10
8.30373
 20
575.766
 11
8.45613
 21
575.656
  0
LINE
  8
0
 10
8.45613
 20
575.656
 11
8.59344
 21
575.527
  0
LINE
  8
0
 10
8.59344
 20
575.527
 11
8.71352
 21
575.382
  0
LINE
  8
0
 10
8.71352
 20
575.382
 11
8.81445
 21
575.223
  0
LINE
  8
0
 10
8.81445
 20
575.223
 11
8.89465
 21
575.052
  0
LINE
  8
0
 10
8.89465
 20
575.052
 11
8.95287
 21
574.873
  0
LINE
  8
0
 10
8.95287
 20
574.873
 11
8.98816
 21
574.688
  0
LINE
  8
0
 10
8.98816
 20
574.688
 11
9
 21
574.5
  0
LINE
  8
0
 10
9
 20
574.5
 11
8.98816
 21
574.312
  0
LINE
  8
0
 10
8.98816
 20
574.312
 11
8.95287
 21
574.127
  0
LINE
  8
0
 10
8.95287
 20
574.127
 11
8.89465
 21
573.948
  0
LINE
  8
0
 10
8.89465
 20
573.948
 11
8.81445
 21
573.777
  0
LINE
  8
0
 10
8.81445
 20
573.777
 11
8.71352
 21
573.618
  0
LINE
  8
0
 10
8.71352
 20
573.618
 11
8.59344
 21
573.473
  0
LINE
  8
0
 10
8.59344
 20
573.473
 11
8.45613
 21
573.344
  0
LINE
  8
0
 10
8.45613
 20
573.344
 11
8.30373
 21
573.234
  0
LINE
  8
0
 10
8.30373
 20
573.234
 11
8.13866
 21
573.143
  0
LINE
  8
0
 10
8.13866
 20
573.143
 11
7.96352
 21
573.073
  0
LINE
  8
0
 10
7.96352
 20
573.073
 11
7.78107
 21
573.027
  0
LINE
  8
0
 10
7.78107
 20
573.027
 11
7.59418
 21
573.003
  0
LINE
  8
0
 10
7.59418
 20
573.003
 11
7.40581
 21
573.003
  0
LINE
  8
0
 10
-7.59418
 20
528.003
 11
-7.78107
 21
528.027
  0
LINE
  8
0
 10
-7.78107
 20
528.027
 11
-7.96352
 21
528.073
  0
LINE
  8
0
 10
-7.96352
 20
528.073
 11
-8.13866
 21
528.143
  0
LINE
  8
0
 10
-8.13866
 20
528.143
 11
-8.30373
 21
528.234
  0
LINE
  8
0
 10
-8.30373
 20
528.234
 11
-8.45613
 21
528.344
  0
LINE
  8
0
 10
-8.45613
 20
528.344
 11
-8.59344
 21
528.473
  0
LINE
  8
0
 10
-8.59344
 20
528.473
 11
-8.71352
 21
528.618
  0
LINE
  8
0
 10
-8.71352
 20
528.618
 11
-8.81445
 21
528.777
  0
LINE
  8
0
 10
-8.81445
 20
528.777
 11
-8.89465
 21
528.948
  0
LINE
  8
0
 10
-8.89465
 20
528.948
 11
-8.95287
 21
529.127
  0
LINE
  8
0
 10
-8.95287
 20
529.127
 11
-8.98816
 21
529.312
  0
LINE
  8
0
 10
-8.98816
 20
529.312
 11
-9
 21
529.5
  0
LINE
  8
0
 10
-9
 20
529.5
 11
-8.98816
 21
529.688
  0
LINE
  8
0
 10
-8.98816
 20
529.688
 11
-8.95287
 21
529.873
  0
LINE
  8
0
 10
-8.95287
 20
529.873
 11
-8.89465
 21
530.052
  0
LINE
  8
0
 10
-8.89465
 20
530.052
 11
-8.81445
 21
530.223
  0
LINE
  8
0
 10
-8.81445
 20
530.223
 11
-8.71352
 21
530.382
  0
LINE
  8
0
 10
-8.71352
 20
530.382
 11
-8.59344
 21
530.527
  0
LINE
  8
0
 10
-8.59344
 20
530.527
 11
-8.45613
 21
530.656
  0
LINE
  8
0
 10
-8.45613
 20
530.656
 11
-8.30373
 21
530.766
  0
LINE
  8
0
 10
-8.30373
 20
530.766
 11
-8.13866
 21
530.857
  0
LINE
  8
0
 10
-8.13866
 20
530.857
 11
-7.96352
 21
530.927
  0
LINE
  8
0
 10
-7.96352
 20
530.927
 11
-7.78107
 21
530.973
  0
LINE
  8
0
 10
-7.78107
 20
530.973
 11
-7.59418
 21
530.997
  0
LINE
  8
0
 10
-7.59418
 20
530.997
 11
-7.40581
 21
530.997
  0
LINE
  8
0
 10
-7.40581
 20
530.997
 11
-7.21892
 21
530.973
  0
LINE
  8
0
 10
-7.21892
 20
530.973
 11
-7.03647
 21
530.927
  0
LINE
  8
0
 10
-7.03647
 20
530.927
 11
-6.86133
 21
530.857
  0
LINE
  8
0
 10
-6.86133
 20
530.857
 11
-6.69626
 21
530.766
  0
LINE
  8
0
 10
-6.69626
 20
530.766
 11
-6.54385
 21
530.656
  0
LINE
  8
0
 10
-6.54385
 20
530.656
 11
-6.40654
 21
530.527
  0
LINE
  8
0
 10
-6.40654
 20
530.527
 11
-6.28647
 21
530.382
  0
LINE
  8
0
 10
-6.28647
 20
530.382
 11
-6.18553
 21
530.223
  0
LINE
  8
0
 10
-6.18553
 20
530.223
 11
-6.10533
 21
530.052
  0
LINE
  8
0
 10
-6.10533
 20
530.052
 11
-6.04712
 21
529.873
  0
LINE
  8
0
 10
-6.04712
 20
529.873
 11
-6.01183
 21
529.688
  0
LINE
  8
0
 10
-6.01183
 20
529.688
 11
-6
 21
529.5
  0
LINE
  8
0
 10
-6
 20
529.5
 11
-6.01183
 21
529.312
  0
LINE
  8
0
 10
-6.01183
 20
529.312
 11
-6.04712
 21
529.127
  0
LINE
  8
0
 10
-6.04712
 20
529.127
 11
-6.10533
 21
528.948
  0
LINE
  8
0
 10
-6.10533
 20
528.948
 11
-6.18553
 21
528.777
  0
LINE
  8
0
 10
-6.18553
 20
528.777
 11
-6.28647
 21
528.618
  0
LINE
  8
0
 10
-6.28647
 20
528.618
 11
-6.40654
 21
528.473
  0
LINE
  8
0
 10
-6.40654
 20
528.473
 11
-6.54385
 21
528.344
  0
LINE
  8
0
 10
-6.54385
 20
528.344
 11
-6.69626
 21
528.234
  0
LINE
  8
0
 10
-6.69626
 20
528.234
 11
-6.86133
 21
528.143
  0
LINE
  8
0
 10
-6.86133
 20
528.143
 11
-7.03647
 21
528.073
  0
LINE
  8
0
 10
-7.03647
 20
528.073
 11
-7.21892
 21
528.027
  0
LINE
  8
0
 10
-7.21892
 20
528.027
 11
-7.40581
 21
528.003
  0
LINE
  8
0
 10
-7.40581
 20
528.003
 11
-7.59418
 21
528.003
  0
LINE
  8
0
 10
10.9369
 20
453.089
 11
11.5451
 21
453.245
  0
LINE
  8
0
 10
11.5451
 20
453.245
 11
12.1289
 21
453.476
  0
LINE
  8
0
 10
12.1289
 20
453.476
 11
12.6791
 21
453.778
  0
LINE
  8
0
 10
12.6791
 20
453.778
 11
13.1871
 21
454.147
  0
LINE
  8
0
 10
13.1871
 20
454.147
 11
13.6448
 21
454.577
  0
LINE
  8
0
 10
13.6448
 20
454.577
 11
14.0451
 21
455.061
  0
LINE
  8
0
 10
14.0451
 20
455.061
 11
14.3815
 21
455.591
  0
LINE
  8
0
 10
14.3815
 20
455.591
 11
14.6489
 21
456.159
  0
LINE
  8
0
 10
14.6489
 20
456.159
 11
14.8429
 21
456.757
  0
LINE
  8
0
 10
14.8429
 20
456.757
 11
14.9606
 21
457.373
  0
LINE
  8
0
 10
14.9606
 20
457.373
 11
15
 21
458
  0
LINE
  8
0
 10
15
 20
458
 11
15
 21
508
  0
LINE
  8
0
 10
15
 20
508
 11
14.9606
 21
508.627
  0
LINE
  8
0
 10
14.9606
 20
508.627
 11
14.8429
 21
509.243
  0
LINE
  8
0
 10
14.8429
 20
509.243
 11
14.6489
 21
509.841
  0
LINE
  8
0
 10
14.6489
 20
509.841
 11
14.3815
 21
510.409
  0
LINE
  8
0
 10
14.3815
 20
510.409
 11
14.0451
 21
510.939
  0
LINE
  8
0
 10
14.0451
 20
510.939
 11
13.6448
 21
511.423
  0
LINE
  8
0
 10
13.6448
 20
511.423
 11
13.1871
 21
511.853
  0
LINE
  8
0
 10
13.1871
 20
511.853
 11
12.6791
 21
512.222
  0
LINE
  8
0
 10
12.6791
 20
512.222
 11
12.1289
 21
512.524
  0
LINE
  8
0
 10
12.1289
 20
512.524
 11
11.5451
 21
512.755
  0
LINE
  8
0
 10
11.5451
 20
512.755
 11
10.9369
 21
512.911
  0
LINE
  8
0
 10
10.9369
 20
512.911
 11
10.3139
 21
512.99
  0
LINE
  8
0
 10
10.3139
 20
512.99
 11
-10.3139
 21
512.99
  0
LINE
  8
0
 10
-10.3139
 20
512.99
 11
-10.9369
 21
512.911
  0
LINE
  8
0
 10
-10.9369
 20
512.911
 11
-11.5451
 21
512.755
  0
LINE
  8
0
 10
-11.5451
 20
512.755
 11
-12.1289
 21
512.524
  0
LINE
  8
0
 10
-12.1289
 20
512.524
 11
-12.6791
 21
512.222
  0
LINE
  8
0
 10
-12.6791
 20
512.222
 11
-13.1871
 21
511.853
  0
LINE
  8
0
 10
-13.1871
 20
511.853
 11
-13.6448
 21
511.423
  0
LINE
  8
0
 10
-13.6448
 20
511.423
 11
-14.0451
 21
510.939
  0
LINE
  8
0
 10
-14.0451
 20
510.939
 11
-14.3815
 21
510.409
  0
LINE
  8
0
 10
-14.3815
 20
510.409
 11
-14.6489
 21
509.841
  0
LINE
  8
0
 10
-14.6489
 20
509.841
 11
-14.8429
 21
509.243
  0
LINE
  8
0
 10
-14.8429
 20
509.243
 11
-14.9606
 21
508.627
  0
LINE
  8
0
 10
-14.9606
 20
508.627
 11
-15
 21
508
  0
LINE
  8
0
 10
-15
 20
508
 11
-15
 21
458
  0
LINE
  8
0
 10
-15
 20
458
 11
-14.9606
 21
457.373
  0
LINE
  8
0
 10
-14.9606
 20
457.373
 11
-14.8429
 21
456.757
  0
LINE
  8
0
 10
-14.8429
 20
456.757
 11
-14.6489
 21
456.159
  0
LINE
  8
0
 10
-14.6489
 20
456.159
 11
-14.3815
 21
455.591
  0
LINE
  8
0
 10
-14.3815
 20
455.591
 11
-14.0451
 21
455.061
  0
LINE
  8
0
 10
-14.0451
 20
455.061
 11
-13.6448
 21
454.577
  0
LINE
  8
0
 10
-13.6448
 20
454.577
 11
-13.1871
 21
454.147
  0
LINE
  8
0
 10
-13.1871
 20
454.147
 11
-12.6791
 21
453.778
  0
LINE
  8
0
 10
-12.6791
 20
453.778
 11
-12.1289
 21
453.476
  0
LINE
  8
0
 10
-12.1289
 20
453.476
 11
-11.5451
 21
453.245
  0
LINE
  8
0
 10
-11.5451
 20
453.245
 11
-10.9369
 21
453.089
  0
LINE
  8
0
 10
-10.9369
 20
453.089
 11
-10.3139
 21
453.01
  0
LINE
  8
0
 10
-10.3139
 20
453.01
 11
10.3139
 21
453.01
  0
LINE
  8
0
 10
10.3139
 20
453.01
 11
10.9369
 21
453.089
  0
LINE
  8
0
 10
-4.81104
 20
453.509
 11
-4.32086
 21
453.778
  0
LINE
  8
0
 10
-4.32086
 20
453.778
 11
-3.81287
 21
454.147
  0
LINE
  8
0
 10
-3.81287
 20
454.147
 11
-3.35515
 21
454.577
  0
LINE
  8
0
 10
-3.35515
 20
454.577
 11
-2.95491
 21
455.061
  0
LINE
  8
0
 10
-2.95491
 20
455.061
 11
-2.61845
 21
455.591
  0
LINE
  8
0
 10
-2.61845
 20
455.591
 11
-2.3511
 21
456.159
  0
LINE
  8
0
 10
-2.3511
 20
456.159
 11
-2.15707
 21
456.757
  0
LINE
  8
0
 10
-2.15707
 20
456.757
 11
-2.03941
 21
457.373
  0
LINE
  8
0
 10
-2.03941
 20
457.373
 11
-2
 21
458
  0
LINE
  8
0
 10
-2
 20
458
 11
-2
 21
461
  0
LINE
  8
0
 10
-2
 20
461
 11
-2.03941
 21
461.627
  0
LINE
  8
0
 10
-2.03941
 20
461.627
 11
-2.15707
 21
462.243
  0
LINE
  8
0
 10
-2.15707
 20
462.243
 11
-2.3511
 21
462.841
  0
LINE
  8
0
 10
-2.3511
 20
462.841
 11
-2.61845
 21
463.409
  0
LINE
  8
0
 10
-2.61845
 20
463.409
 11
-2.95491
 21
463.939
  0
LINE
  8
0
 10
-2.95491
 20
463.939
 11
-3.35515
 21
464.423
  0
LINE
  8
0
 10
-3.35515
 20
464.423
 11
-3.81287
 21
464.853
  0
LINE
  8
0
 10
-3.81287
 20
464.853
 11
-4.32086
 21
465.222
  0
LINE
  8
0
 10
-4.32086
 20
465.222
 11
-4.87109
 21
465.524
  0
LINE
  8
0
 10
-4.87109
 20
465.524
 11
-5.45491
 21
465.755
  0
LINE
  8
0
 10
-5.45491
 20
465.755
 11
-6.06308
 21
465.911
  0
LINE
  8
0
 10
-6.06308
 20
465.911
 11
-6.68604
 21
465.99
  0
LINE
  8
0
 10
-6.68604
 20
465.99
 11
-10.3139
 21
465.99
  0
LINE
  8
0
 10
-10.3139
 20
465.99
 11
-10.9369
 21
465.911
  0
LINE
  8
0
 10
-10.9369
 20
465.911
 11
-11.5451
 21
465.755
  0
LINE
  8
0
 10
-11.5451
 20
465.755
 11
-12.1289
 21
465.524
  0
LINE
  8
0
 10
-12.1289
 20
465.524
 11
-12.6791
 21
465.222
  0
LINE
  8
0
 10
-12.6791
 20
465.222
 11
-13.1871
 21
464.853
  0
LINE
  8
0
 10
-13.1871
 20
464.853
 11
-13.6448
 21
464.423
  0
LINE
  8
0
 10
-13.6448
 20
464.423
 11
-14.0451
 21
463.939
  0
LINE
  8
0
 10
-14.0451
 20
463.939
 11
-14.3815
 21
463.409
  0
LINE
  8
0
 10
-14.3815
 20
463.409
 11
-14.5
 21
463.157
  0
LINE
  8
0
 10
-14.5
 20
463.157
 11
-14.5
 21
508
  0
LINE
  8
0
 10
-14.5
 20
508
 11
-14.4645
 21
508.564
  0
LINE
  8
0
 10
-14.4645
 20
508.564
 11
-14.3586
 21
509.119
  0
LINE
  8
0
 10
-14.3586
 20
509.119
 11
-14.184
 21
509.657
  0
LINE
  8
0
 10
-14.184
 20
509.657
 11
-13.9434
 21
510.168
  0
LINE
  8
0
 10
-13.9434
 20
510.168
 11
-13.6406
 21
510.645
  0
LINE
  8
0
 10
-13.6406
 20
510.645
 11
-13.2803
 21
511.08
  0
LINE
  8
0
 10
-13.2803
 20
511.08
 11
-12.8684
 21
511.467
  0
LINE
  8
0
 10
-12.8684
 20
511.467
 11
-12.4112
 21
511.799
  0
LINE
  8
0
 10
-12.4112
 20
511.799
 11
-11.916
 21
512.072
  0
LINE
  8
0
 10
-11.916
 20
512.072
 11
-11.3906
 21
512.28
  0
LINE
  8
0
 10
-11.3906
 20
512.28
 11
-10.8432
 21
512.42
  0
LINE
  8
0
 10
-10.8432
 20
512.42
 11
-10.2825
 21
512.491
  0
LINE
  8
0
 10
-10.2825
 20
512.491
 11
10.2825
 21
512.491
  0
LINE
  8
0
 10
10.2825
 20
512.491
 11
10.8432
 21
512.42
  0
LINE
  8
0
 10
10.8432
 20
512.42
 11
11.3906
 21
512.28
  0
LINE
  8
0
 10
11.3906
 20
512.28
 11
11.916
 21
512.072
  0
LINE
  8
0
 10
11.916
 20
512.072
 11
12.4112
 21
511.799
  0
LINE
  8
0
 10
12.4112
 20
511.799
 11
12.8684
 21
511.467
  0
LINE
  8
0
 10
12.8684
 20
511.467
 11
13.2803
 21
511.08
  0
LINE
  8
0
 10
13.2803
 20
511.08
 11
13.6406
 21
510.645
  0
LINE
  8
0
 10
13.6406
 20
510.645
 11
13.9434
 21
510.168
  0
LINE
  8
0
 10
13.9434
 20
510.168
 11
14.184
 21
509.657
  0
LINE
  8
0
 10
14.184
 20
509.657
 11
14.3586
 21
509.119
  0
LINE
  8
0
 10
14.3586
 20
509.119
 11
14.4645
 21
508.564
  0
LINE
  8
0
 10
14.4645
 20
508.564
 11
14.5
 21
508
  0
LINE
  8
0
 10
14.5
 20
508
 11
14.5
 21
458
  0
LINE
  8
0
 10
14.5
 20
458
 11
14.4645
 21
457.436
  0
LINE
  8
0
 10
14.4645
 20
457.436
 11
14.3586
 21
456.881
  0
LINE
  8
0
 10
14.3586
 20
456.881
 11
14.184
 21
456.343
  0
LINE
  8
0
 10
14.184
 20
456.343
 11
13.9434
 21
455.832
  0
LINE
  8
0
 10
13.9434
 20
455.832
 11
13.6406
 21
455.355
  0
LINE
  8
0
 10
13.6406
 20
455.355
 11
13.2803
 21
454.92
  0
LINE
  8
0
 10
13.2803
 20
454.92
 11
12.8684
 21
454.533
  0
LINE
  8
0
 10
12.8684
 20
454.533
 11
12.4112
 21
454.201
  0
LINE
  8
0
 10
12.4112
 20
454.201
 11
11.916
 21
453.928
  0
LINE
  8
0
 10
11.916
 20
453.928
 11
11.3906
 21
453.72
  0
LINE
  8
0
 10
11.3906
 20
453.72
 11
10.8432
 21
453.58
  0
LINE
  8
0
 10
10.8432
 20
453.58
 11
10.2825
 21
453.509
  0
LINE
  8
0
 10
10.2825
 20
453.509
 11
-4.81104
 21
453.509
  0
LINE
  8
0
 10
7.96844
 20
503.044
 11
8.27254
 21
503.122
  0
LINE
  8
0
 10
8.27254
 20
503.122
 11
8.56444
 21
503.238
  0
LINE
  8
0
 10
8.56444
 20
503.238
 11
8.83955
 21
503.389
  0
LINE
  8
0
 10
8.83955
 20
503.389
 11
9.09355
 21
503.574
  0
LINE
  8
0
 10
9.09355
 20
503.574
 11
9.32242
 21
503.789
  0
LINE
  8
0
 10
9.32242
 20
503.789
 11
9.52254
 21
504.031
  0
LINE
  8
0
 10
9.52254
 20
504.031
 11
9.69077
 21
504.296
  0
LINE
  8
0
 10
9.69077
 20
504.296
 11
9.82443
 21
504.58
  0
LINE
  8
0
 10
9.82443
 20
504.58
 11
9.92145
 21
504.878
  0
LINE
  8
0
 10
9.92145
 20
504.878
 11
9.98029
 21
505.187
  0
LINE
  8
0
 10
9.98029
 20
505.187
 11
10
 21
505.5
  0
LINE
  8
0
 10
10
 20
505.5
 11
9.98029
 21
505.813
  0
LINE
  8
0
 10
9.98029
 20
505.813
 11
9.92145
 21
506.122
  0
LINE
  8
0
 10
9.92145
 20
506.122
 11
9.82443
 21
506.42
  0
LINE
  8
0
 10
9.82443
 20
506.42
 11
9.69077
 21
506.704
  0
LINE
  8
0
 10
9.69077
 20
506.704
 11
9.52254
 21
506.969
  0
LINE
  8
0
 10
9.52254
 20
506.969
 11
9.32242
 21
507.211
  0
LINE
  8
0
 10
9.32242
 20
507.211
 11
9.09355
 21
507.426
  0
LINE
  8
0
 10
9.09355
 20
507.426
 11
8.83955
 21
507.611
  0
LINE
  8
0
 10
8.83955
 20
507.611
 11
8.56444
 21
507.762
  0
LINE
  8
0
 10
8.56444
 20
507.762
 11
8.27254
 21
507.878
  0
LINE
  8
0
 10
8.27254
 20
507.878
 11
7.96844
 21
507.956
  0
LINE
  8
0
 10
7.96844
 20
507.956
 11
7.65697
 21
507.995
  0
LINE
  8
0
 10
7.65697
 20
507.995
 11
7.34302
 21
507.995
  0
LINE
  8
0
 10
7.34302
 20
507.995
 11
7.03154
 21
507.956
  0
LINE
  8
0
 10
7.03154
 20
507.956
 11
6.72745
 21
507.878
  0
LINE
  8
0
 10
6.72745
 20
507.878
 11
6.43555
 21
507.762
  0
LINE
  8
0
 10
6.43555
 20
507.762
 11
6.16043
 21
507.611
  0
LINE
  8
0
 10
6.16043
 20
507.611
 11
5.90643
 21
507.426
  0
LINE
  8
0
 10
5.90643
 20
507.426
 11
5.67757
 21
507.211
  0
LINE
  8
0
 10
5.67757
 20
507.211
 11
5.47745
 21
506.969
  0
LINE
  8
0
 10
5.47745
 20
506.969
 11
5.30922
 21
506.704
  0
LINE
  8
0
 10
5.30922
 20
506.704
 11
5.17555
 21
506.42
  0
LINE
  8
0
 10
5.17555
 20
506.42
 11
5.07854
 21
506.122
  0
LINE
  8
0
 10
5.07854
 20
506.122
 11
5.0197
 21
505.813
  0
LINE
  8
0
 10
5.0197
 20
505.813
 11
5
 21
505.5
  0
LINE
  8
0
 10
5
 20
505.5
 11
5.0197
 21
505.187
  0
LINE
  8
0
 10
5.0197
 20
505.187
 11
5.07854
 21
504.878
  0
LINE
  8
0
 10
5.07854
 20
504.878
 11
5.17555
 21
504.58
  0
LINE
  8
0
 10
5.17555
 20
504.58
 11
5.30922
 21
504.296
  0
LINE
  8
0
 10
5.30922
 20
504.296
 11
5.47745
 21
504.031
  0
LINE
  8
0
 10
5.47745
 20
504.031
 11
5.67757
 21
503.789
  0
LINE
  8
0
 10
5.67757
 20
503.789
 11
5.90643
 21
503.574
  0
LINE
  8
0
 10
5.90643
 20
503.574
 11
6.16043
 21
503.389
  0
LINE
  8
0
 10
6.16043
 20
503.389
 11
6.43555
 21
503.238
  0
LINE
  8
0
 10
6.43555
 20
503.238
 11
6.72745
 21
503.122
  0
LINE
  8
0
 10
6.72745
 20
503.122
 11
7.03154
 21
503.044
  0
LINE
  8
0
 10
7.03154
 20
503.044
 11
7.34302
 21
503.005
  0
LINE
  8
0
 10
7.34302
 20
503.005
 11
7.65697
 21
503.005
  0
LINE
  8
0
 10
7.65697
 20
503.005
 11
7.96844
 21
503.044
  0
LINE
  8
0
 10
7.40581
 20
504.003
 11
7.21892
 21
504.027
  0
LINE
  8
0
 10
7.21892
 20
504.027
 11
7.03647
 21
504.073
  0
LINE
  8
0
 10
7.03647
 20
504.073
 11
6.86133
 21
504.143
  0
LINE
  8
0
 10
6.86133
 20
504.143
 11
6.69626
 21
504.234
  0
LINE
  8
0
 10
6.69626
 20
504.234
 11
6.54385
 21
504.344
  0
LINE
  8
0
 10
6.54385
 20
504.344
 11
6.40654
 21
504.473
  0
LINE
  8
0
 10
6.40654
 20
504.473
 11
6.28647
 21
504.618
  0
LINE
  8
0
 10
6.28647
 20
504.618
 11
6.18553
 21
504.777
  0
LINE
  8
0
 10
6.18553
 20
504.777
 11
6.10533
 21
504.948
  0
LINE
  8
0
 10
6.10533
 20
504.948
 11
6.04712
 21
505.127
  0
LINE
  8
0
 10
6.04712
 20
505.127
 11
6.01183
 21
505.312
  0
LINE
  8
0
 10
6.01183
 20
505.312
 11
6
 21
505.5
  0
LINE
  8
0
 10
6
 20
505.5
 11
6.01183
 21
505.688
  0
LINE
  8
0
 10
6.01183
 20
505.688
 11
6.04712
 21
505.873
  0
LINE
  8
0
 10
6.04712
 20
505.873
 11
6.10533
 21
506.052
  0
LINE
  8
0
 10
6.10533
 20
506.052
 11
6.18553
 21
506.223
  0
LINE
  8
0
 10
6.18553
 20
506.223
 11
6.28647
 21
506.382
  0
LINE
  8
0
 10
6.28647
 20
506.382
 11
6.40654
 21
506.527
  0
LINE
  8
0
 10
6.40654
 20
506.527
 11
6.54385
 21
506.656
  0
LINE
  8
0
 10
6.54385
 20
506.656
 11
6.69626
 21
506.766
  0
LINE
  8
0
 10
6.69626
 20
506.766
 11
6.86133
 21
506.857
  0
LINE
  8
0
 10
6.86133
 20
506.857
 11
7.03647
 21
506.927
  0
LINE
  8
0
 10
7.03647
 20
506.927
 11
7.21892
 21
506.973
  0
LINE
  8
0
 10
7.21892
 20
506.973
 11
7.40581
 21
506.997
  0
LINE
  8
0
 10
7.40581
 20
506.997
 11
7.59418
 21
506.997
  0
LINE
  8
0
 10
7.59418
 20
506.997
 11
7.78107
 21
506.973
  0
LINE
  8
0
 10
7.78107
 20
506.973
 11
7.96352
 21
506.927
  0
LINE
  8
0
 10
7.96352
 20
506.927
 11
8.13866
 21
506.857
  0
LINE
  8
0
 10
8.13866
 20
506.857
 11
8.30373
 21
506.766
  0
LINE
  8
0
 10
8.30373
 20
506.766
 11
8.45613
 21
506.656
  0
LINE
  8
0
 10
8.45613
 20
506.656
 11
8.59344
 21
506.527
  0
LINE
  8
0
 10
8.59344
 20
506.527
 11
8.71352
 21
506.382
  0
LINE
  8
0
 10
8.71352
 20
506.382
 11
8.81445
 21
506.223
  0
LINE
  8
0
 10
8.81445
 20
506.223
 11
8.89465
 21
506.052
  0
LINE
  8
0
 10
8.89465
 20
506.052
 11
8.95287
 21
505.873
  0
LINE
  8
0
 10
8.95287
 20
505.873
 11
8.98816
 21
505.688
  0
LINE
  8
0
 10
8.98816
 20
505.688
 11
9
 21
505.5
  0
LINE
  8
0
 10
9
 20
505.5
 11
8.98816
 21
505.312
  0
LINE
  8
0
 10
8.98816
 20
505.312
 11
8.95287
 21
505.127
  0
LINE
  8
0
 10
8.95287
 20
505.127
 11
8.89465
 21
504.948
  0
LINE
  8
0
 10
8.89465
 20
504.948
 11
8.81445
 21
504.777
  0
LINE
  8
0
 10
8.81445
 20
504.777
 11
8.71352
 21
504.618
  0
LINE
  8
0
 10
8.71352
 20
504.618
 11
8.59344
 21
504.473
  0
LINE
  8
0
 10
8.59344
 20
504.473
 11
8.45613
 21
504.344
  0
LINE
  8
0
 10
8.45613
 20
504.344
 11
8.30373
 21
504.234
  0
LINE
  8
0
 10
8.30373
 20
504.234
 11
8.13866
 21
504.143
  0
LINE
  8
0
 10
8.13866
 20
504.143
 11
7.96352
 21
504.073
  0
LINE
  8
0
 10
7.96352
 20
504.073
 11
7.78107
 21
504.027
  0
LINE
  8
0
 10
7.78107
 20
504.027
 11
7.59418
 21
504.003
  0
LINE
  8
0
 10
7.59418
 20
504.003
 11
7.40581
 21
504.003
  0
LINE
  8
0
 10
-7.59418
 20
459.003
 11
-7.78107
 21
459.027
  0
LINE
  8
0
 10
-7.78107
 20
459.027
 11
-7.96352
 21
459.073
  0
LINE
  8
0
 10
-7.96352
 20
459.073
 11
-8.13866
 21
459.143
  0
LINE
  8
0
 10
-8.13866
 20
459.143
 11
-8.30373
 21
459.234
  0
LINE
  8
0
 10
-8.30373
 20
459.234
 11
-8.45613
 21
459.344
  0
LINE
  8
0
 10
-8.45613
 20
459.344
 11
-8.59344
 21
459.473
  0
LINE
  8
0
 10
-8.59344
 20
459.473
 11
-8.71352
 21
459.618
  0
LINE
  8
0
 10
-8.71352
 20
459.618
 11
-8.81445
 21
459.777
  0
LINE
  8
0
 10
-8.81445
 20
459.777
 11
-8.89465
 21
459.948
  0
LINE
  8
0
 10
-8.89465
 20
459.948
 11
-8.95287
 21
460.127
  0
LINE
  8
0
 10
-8.95287
 20
460.127
 11
-8.98816
 21
460.312
  0
LINE
  8
0
 10
-8.98816
 20
460.312
 11
-9
 21
460.5
  0
LINE
  8
0
 10
-9
 20
460.5
 11
-8.98816
 21
460.688
  0
LINE
  8
0
 10
-8.98816
 20
460.688
 11
-8.95287
 21
460.873
  0
LINE
  8
0
 10
-8.95287
 20
460.873
 11
-8.89465
 21
461.052
  0
LINE
  8
0
 10
-8.89465
 20
461.052
 11
-8.81445
 21
461.223
  0
LINE
  8
0
 10
-8.81445
 20
461.223
 11
-8.71352
 21
461.382
  0
LINE
  8
0
 10
-8.71352
 20
461.382
 11
-8.59344
 21
461.527
  0
LINE
  8
0
 10
-8.59344
 20
461.527
 11
-8.45613
 21
461.656
  0
LINE
  8
0
 10
-8.45613
 20
461.656
 11
-8.30373
 21
461.766
  0
LINE
  8
0
 10
-8.30373
 20
461.766
 11
-8.13866
 21
461.857
  0
LINE
  8
0
 10
-8.13866
 20
461.857
 11
-7.96352
 21
461.927
  0
LINE
  8
0
 10
-7.96352
 20
461.927
 11
-7.78107
 21
461.973
  0
LINE
  8
0
 10
-7.78107
 20
461.973
 11
-7.59418
 21
461.997
  0
LINE
  8
0
 10
-7.59418
 20
461.997
 11
-7.40581
 21
461.997
  0
LINE
  8
0
 10
-7.40581
 20
461.997
 11
-7.21892
 21
461.973
  0
LINE
  8
0
 10
-7.21892
 20
461.973
 11
-7.03647
 21
461.927
  0
LINE
  8
0
 10
-7.03647
 20
461.927
 11
-6.86133
 21
461.857
  0
LINE
  8
0
 10
-6.86133
 20
461.857
 11
-6.69626
 21
461.766
  0
LINE
  8
0
 10
-6.69626
 20
461.766
 11
-6.54385
 21
461.656
  0
LINE
  8
0
 10
-6.54385
 20
461.656
 11
-6.40654
 21
461.527
  0
LINE
  8
0
 10
-6.40654
 20
461.527
 11
-6.28647
 21
461.382
  0
LINE
  8
0
 10
-6.28647
 20
461.382
 11
-6.18553
 21
461.223
  0
LINE
  8
0
 10
-6.18553
 20
461.223
 11
-6.10533
 21
461.052
  0
LINE
  8
0
 10
-6.10533
 20
461.052
 11
-6.04712
 21
460.873
  0
LINE
  8
0
 10
-6.04712
 20
460.873
 11
-6.01183
 21
460.688
  0
LINE
  8
0
 10
-6.01183
 20
460.688
 11
-6
 21
460.5
  0
LINE
  8
0
 10
-6
 20
460.5
 11
-6.01183
 21
460.312
  0
LINE
  8
0
 10
-6.01183
 20
460.312
 11
-6.04712
 21
460.127
  0
LINE
  8
0
 10
-6.04712
 20
460.127
 11
-6.10533
 21
459.948
  0
LINE
  8
0
 10
-6.10533
 20
459.948
 11
-6.18553
 21
459.777
  0
LINE
  8
0
 10
-6.18553
 20
459.777
 11
-6.28647
 21
459.618
  0
LINE
  8
0
 10
-6.28647
 20
459.618
 11
-6.40654
 21
459.473
  0
LINE
  8
0
 10
-6.40654
 20
459.473
 11
-6.54385
 21
459.344
  0
LINE
  8
0
 10
-6.54385
 20
459.344
 11
-6.69626
 21
459.234
  0
LINE
  8
0
 10
-6.69626
 20
459.234
 11
-6.86133
 21
459.143
  0
LINE
  8
0
 10
-6.86133
 20
459.143
 11
-7.03647
 21
459.073
  0
LINE
  8
0
 10
-7.03647
 20
459.073
 11
-7.21892
 21
459.027
  0
LINE
  8
0
 10
-7.21892
 20
459.027
 11
-7.40581
 21
459.003
  0
LINE
  8
0
 10
-7.40581
 20
459.003
 11
-7.59418
 21
459.003
  0
LINE
  8
0
 10
10.9369
 20
384.089
 11
11.5451
 21
384.245
  0
LINE
  8
0
 10
11.5451
 20
384.245
 11
12.1289
 21
384.476
  0
LINE
  8
0
 10
12.1289
 20
384.476
 11
12.6791
 21
384.778
  0
LINE
  8
0
 10
12.6791
 20
384.778
 11
13.1871
 21
385.147
  0
LINE
  8
0
 10
13.1871
 20
385.147
 11
13.6448
 21
385.577
  0
LINE
  8
0
 10
13.6448
 20
385.577
 11
14.0451
 21
386.061
  0
LINE
  8
0
 10
14.0451
 20
386.061
 11
14.3815
 21
386.591
  0
LINE
  8
0
 10
14.3815
 20
386.591
 11
14.6489
 21
387.159
  0
LINE
  8
0
 10
14.6489
 20
387.159
 11
14.8429
 21
387.757
  0
LINE
  8
0
 10
14.8429
 20
387.757
 11
14.9606
 21
388.373
  0
LINE
  8
0
 10
14.9606
 20
388.373
 11
15
 21
389
  0
LINE
  8
0
 10
15
 20
389
 11
15
 21
439
  0
LINE
  8
0
 10
15
 20
439
 11
14.9606
 21
439.627
  0
LINE
  8
0
 10
14.9606
 20
439.627
 11
14.8429
 21
440.243
  0
LINE
  8
0
 10
14.8429
 20
440.243
 11
14.6489
 21
440.841
  0
LINE
  8
0
 10
14.6489
 20
440.841
 11
14.3815
 21
441.409
  0
LINE
  8
0
 10
14.3815
 20
441.409
 11
14.0451
 21
441.939
  0
LINE
  8
0
 10
14.0451
 20
441.939
 11
13.6448
 21
442.423
  0
LINE
  8
0
 10
13.6448
 20
442.423
 11
13.1871
 21
442.853
  0
LINE
  8
0
 10
13.1871
 20
442.853
 11
12.6791
 21
443.222
  0
LINE
  8
0
 10
12.6791
 20
443.222
 11
12.1289
 21
443.524
  0
LINE
  8
0
 10
12.1289
 20
443.524
 11
11.5451
 21
443.755
  0
LINE
  8
0
 10
11.5451
 20
443.755
 11
10.9369
 21
443.911
  0
LINE
  8
0
 10
10.9369
 20
443.911
 11
10.3139
 21
443.99
  0
LINE
  8
0
 10
10.3139
 20
443.99
 11
-10.3139
 21
443.99
  0
LINE
  8
0
 10
-10.3139
 20
443.99
 11
-10.9369
 21
443.911
  0
LINE
  8
0
 10
-10.9369
 20
443.911
 11
-11.5451
 21
443.755
  0
LINE
  8
0
 10
-11.5451
 20
443.755
 11
-12.1289
 21
443.524
  0
LINE
  8
0
 10
-12.1289
 20
443.524
 11
-12.6791
 21
443.222
  0
LINE
  8
0
 10
-12.6791
 20
443.222
 11
-13.1871
 21
442.853
  0
LINE
  8
0
 10
-13.1871
 20
442.853
 11
-13.6448
 21
442.423
  0
LINE
  8
0
 10
-13.6448
 20
442.423
 11
-14.0451
 21
441.939
  0
LINE
  8
0
 10
-14.0451
 20
441.939
 11
-14.3815
 21
441.409
  0
LINE
  8
0
 10
-14.3815
 20
441.409
 11
-14.6489
 21
440.841
  0
LINE
  8
0
 10
-14.6489
 20
440.841
 11
-14.8429
 21
440.243
  0
LINE
  8
0
 10
-14.8429
 20
440.243
 11
-14.9606
 21
439.627
  0
LINE
  8
0
 10
-14.9606
 20
439.627
 11
-15
 21
439
  0
LINE
  8
0
 10
-15
 20
439
 11
-15
 21
389
  0
LINE
  8
0
 10
-15
 20
389
 11
-14.9606
 21
388.373
  0
LINE
  8
0
 10
-14.9606
 20
388.373
 11
-14.8429
 21
387.757
  0
LINE
  8
0
 10
-14.8429
 20
387.757
 11
-14.6489
 21
387.159
  0
LINE
  8
0
 10
-14.6489
 20
387.159
 11
-14.3815
 21
386.591
  0
LINE
  8
0
 10
-14.3815
 20
386.591
 11
-14.0451
 21
386.061
  0
LINE
  8
0
 10
-14.0451
 20
386.061
 11
-13.6448
 21
385.577
  0
LINE
  8
0
 10
-13.6448
 20
385.577
 11
-13.1871
 21
385.147
  0
LINE
  8
0
 10
-13.1871
 20
385.147
 11
-12.6791
 21
384.778
  0
LINE
  8
0
 10
-12.6791
 20
384.778
 11
-12.1289
 21
384.476
  0
LINE
  8
0
 10
-12.1289
 20
384.476
 11
-11.5451
 21
384.245
  0
LINE
  8
0
 10
-11.5451
 20
384.245
 11
-10.9369
 21
384.089
  0
LINE
  8
0
 10
-10.9369
 20
384.089
 11
-10.3139
 21
384.01
  0
LINE
  8
0
 10
-10.3139
 20
384.01
 11
10.3139
 21
384.01
  0
LINE
  8
0
 10
10.3139
 20
384.01
 11
10.9369
 21
384.089
  0
LINE
  8
0
 10
-4.75392
 20
384.54
 11
-4.32086
 21
384.778
  0
LINE
  8
0
 10
-4.32086
 20
384.778
 11
-3.81287
 21
385.147
  0
LINE
  8
0
 10
-3.81287
 20
385.147
 11
-3.35515
 21
385.577
  0
LINE
  8
0
 10
-3.35515
 20
385.577
 11
-2.95491
 21
386.061
  0
LINE
  8
0
 10
-2.95491
 20
386.061
 11
-2.61845
 21
386.591
  0
LINE
  8
0
 10
-2.61845
 20
386.591
 11
-2.3511
 21
387.159
  0
LINE
  8
0
 10
-2.3511
 20
387.159
 11
-2.15707
 21
387.757
  0
LINE
  8
0
 10
-2.15707
 20
387.757
 11
-2.03941
 21
388.373
  0
LINE
  8
0
 10
-2.03941
 20
388.373
 11
-2
 21
389
  0
LINE
  8
0
 10
-2
 20
389
 11
-2
 21
392
  0
LINE
  8
0
 10
-2
 20
392
 11
-2.03941
 21
392.627
  0
LINE
  8
0
 10
-2.03941
 20
392.627
 11
-2.15707
 21
393.243
  0
LINE
  8
0
 10
-2.15707
 20
393.243
 11
-2.3511
 21
393.841
  0
LINE
  8
0
 10
-2.3511
 20
393.841
 11
-2.61845
 21
394.409
  0
LINE
  8
0
 10
-2.61845
 20
394.409
 11
-2.95491
 21
394.939
  0
LINE
  8
0
 10
-2.95491
 20
394.939
 11
-3.35515
 21
395.423
  0
LINE
  8
0
 10
-3.35515
 20
395.423
 11
-3.81287
 21
395.853
  0
LINE
  8
0
 10
-3.81287
 20
395.853
 11
-4.32086
 21
396.222
  0
LINE
  8
0
 10
-4.32086
 20
396.222
 11
-4.87109
 21
396.524
  0
LINE
  8
0
 10
-4.87109
 20
396.524
 11
-5.45491
 21
396.755
  0
LINE
  8
0
 10
-5.45491
 20
396.755
 11
-6.06308
 21
396.911
  0
LINE
  8
0
 10
-6.06308
 20
396.911
 11
-6.68604
 21
396.99
  0
LINE
  8
0
 10
-6.68604
 20
396.99
 11
-10.3139
 21
396.99
  0
LINE
  8
0
 10
-10.3139
 20
396.99
 11
-10.9369
 21
396.911
  0
LINE
  8
0
 10
-10.9369
 20
396.911
 11
-11.5451
 21
396.755
  0
LINE
  8
0
 10
-11.5451
 20
396.755
 11
-12.1289
 21
396.524
  0
LINE
  8
0
 10
-12.1289
 20
396.524
 11
-12.6791
 21
396.222
  0
LINE
  8
0
 10
-12.6791
 20
396.222
 11
-13.1871
 21
395.853
  0
LINE
  8
0
 10
-13.1871
 20
395.853
 11
-13.6448
 21
395.423
  0
LINE
  8
0
 10
-13.6448
 20
395.423
 11
-14.0451
 21
394.939
  0
LINE
  8
0
 10
-14.0451
 20
394.939
 11
-14.3815
 21
394.409
  0
LINE
  8
0
 10
-14.3815
 20
394.409
 11
-14.4685
 21
394.224
  0
LINE
  8
0
 10
-14.4685
 20
394.224
 11
-14.4685
 21
439
  0
LINE
  8
0
 10
-14.4685
 20
439
 11
-14.4333
 21
439.56
  0
LINE
  8
0
 10
-14.4333
 20
439.56
 11
-14.3281
 21
440.111
  0
LINE
  8
0
 10
-14.3281
 20
440.111
 11
-14.1547
 21
440.645
  0
LINE
  8
0
 10
-14.1547
 20
440.645
 11
-13.9158
 21
441.153
  0
LINE
  8
0
 10
-13.9158
 20
441.153
 11
-13.6151
 21
441.627
  0
LINE
  8
0
 10
-13.6151
 20
441.627
 11
-13.2574
 21
442.059
  0
LINE
  8
0
 10
-13.2574
 20
442.059
 11
-12.8483
 21
442.443
  0
LINE
  8
0
 10
-12.8483
 20
442.443
 11
-12.3944
 21
442.773
  0
LINE
  8
0
 10
-12.3944
 20
442.773
 11
-11.9026
 21
443.043
  0
LINE
  8
0
 10
-11.9026
 20
443.043
 11
-11.3808
 21
443.25
  0
LINE
  8
0
 10
-11.3808
 20
443.25
 11
-10.8373
 21
443.389
  0
LINE
  8
0
 10
-10.8373
 20
443.389
 11
-10.2806
 21
443.46
  0
LINE
  8
0
 10
-10.2806
 20
443.46
 11
10.2806
 21
443.46
  0
LINE
  8
0
 10
10.2806
 20
443.46
 11
10.8373
 21
443.389
  0
LINE
  8
0
 10
10.8373
 20
443.389
 11
11.3808
 21
443.25
  0
LINE
  8
0
 10
11.3808
 20
443.25
 11
11.9026
 21
443.043
  0
LINE
  8
0
 10
11.9026
 20
443.043
 11
12.3944
 21
442.773
  0
LINE
  8
0
 10
12.3944
 20
442.773
 11
12.8483
 21
442.443
  0
LINE
  8
0
 10
12.8483
 20
442.443
 11
13.2574
 21
442.059
  0
LINE
  8
0
 10
13.2574
 20
442.059
 11
13.6151
 21
441.627
  0
LINE
  8
0
 10
13.6151
 20
441.627
 11
13.9158
 21
441.153
  0
LINE
  8
0
 10
13.9158
 20
441.153
 11
14.1547
 21
440.645
  0
LINE
  8
0
 10
14.1547
 20
440.645
 11
14.3281
 21
440.111
  0
LINE
  8
0
 10
14.3281
 20
440.111
 11
14.4333
 21
439.56
  0
LINE
  8
0
 10
14.4333
 20
439.56
 11
14.4685
 21
439
  0
LINE
  8
0
 10
14.4685
 20
439
 11
14.4685
 21
389
  0
LINE
  8
0
 10
14.4685
 20
389
 11
14.4333
 21
388.44
  0
LINE
  8
0
 10
14.4333
 20
388.44
 11
14.3281
 21
387.889
  0
LINE
  8
0
 10
14.3281
 20
387.889
 11
14.1547
 21
387.355
  0
LINE
  8
0
 10
14.1547
 20
387.355
 11
13.9158
 21
386.847
  0
LINE
  8
0
 10
13.9158
 20
386.847
 11
13.6151
 21
386.373
  0
LINE
  8
0
 10
13.6151
 20
386.373
 11
13.2574
 21
385.941
  0
LINE
  8
0
 10
13.2574
 20
385.941
 11
12.8483
 21
385.557
  0
LINE
  8
0
 10
12.8483
 20
385.557
 11
12.3944
 21
385.227
  0
LINE
  8
0
 10
12.3944
 20
385.227
 11
11.9026
 21
384.957
  0
LINE
  8
0
 10
11.9026
 20
384.957
 11
11.3808
 21
384.75
  0
LINE
  8
0
 10
11.3808
 20
384.75
 11
10.8373
 21
384.611
  0
LINE
  8
0
 10
10.8373
 20
384.611
 11
10.2806
 21
384.54
  0
LINE
  8
0
 10
10.2806
 20
384.54
 11
-4.75392
 21
384.54
  0
LINE
  8
0
 10
7.96844
 20
434.044
 11
8.27254
 21
434.122
  0
LINE
  8
0
 10
8.27254
 20
434.122
 11
8.56444
 21
434.238
  0
LINE
  8
0
 10
8.56444
 20
434.238
 11
8.83955
 21
434.389
  0
LINE
  8
0
 10
8.83955
 20
434.389
 11
9.09355
 21
434.574
  0
LINE
  8
0
 10
9.09355
 20
434.574
 11
9.32242
 21
434.789
  0
LINE
  8
0
 10
9.32242
 20
434.789
 11
9.52254
 21
435.031
  0
LINE
  8
0
 10
9.52254
 20
435.031
 11
9.69077
 21
435.296
  0
LINE
  8
0
 10
9.69077
 20
435.296
 11
9.82443
 21
435.58
  0
LINE
  8
0
 10
9.82443
 20
435.58
 11
9.92145
 21
435.878
  0
LINE
  8
0
 10
9.92145
 20
435.878
 11
9.98029
 21
436.187
  0
LINE
  8
0
 10
9.98029
 20
436.187
 11
10
 21
436.5
  0
LINE
  8
0
 10
10
 20
436.5
 11
9.98029
 21
436.813
  0
LINE
  8
0
 10
9.98029
 20
436.813
 11
9.92145
 21
437.122
  0
LINE
  8
0
 10
9.92145
 20
437.122
 11
9.82443
 21
437.42
  0
LINE
  8
0
 10
9.82443
 20
437.42
 11
9.69077
 21
437.704
  0
LINE
  8
0
 10
9.69077
 20
437.704
 11
9.52254
 21
437.969
  0
LINE
  8
0
 10
9.52254
 20
437.969
 11
9.32242
 21
438.211
  0
LINE
  8
0
 10
9.32242
 20
438.211
 11
9.09355
 21
438.426
  0
LINE
  8
0
 10
9.09355
 20
438.426
 11
8.83955
 21
438.611
  0
LINE
  8
0
 10
8.83955
 20
438.611
 11
8.56444
 21
438.762
  0
LINE
  8
0
 10
8.56444
 20
438.762
 11
8.27254
 21
438.878
  0
LINE
  8
0
 10
8.27254
 20
438.878
 11
7.96844
 21
438.956
  0
LINE
  8
0
 10
7.96844
 20
438.956
 11
7.65697
 21
438.995
  0
LINE
  8
0
 10
7.65697
 20
438.995
 11
7.34302
 21
438.995
  0
LINE
  8
0
 10
7.34302
 20
438.995
 11
7.03154
 21
438.956
  0
LINE
  8
0
 10
7.03154
 20
438.956
 11
6.72745
 21
438.878
  0
LINE
  8
0
 10
6.72745
 20
438.878
 11
6.43555
 21
438.762
  0
LINE
  8
0
 10
6.43555
 20
438.762
 11
6.16043
 21
438.611
  0
LINE
  8
0
 10
6.16043
 20
438.611
 11
5.90643
 21
438.426
  0
LINE
  8
0
 10
5.90643
 20
438.426
 11
5.67757
 21
438.211
  0
LINE
  8
0
 10
5.67757
 20
438.211
 11
5.47745
 21
437.969
  0
LINE
  8
0
 10
5.47745
 20
437.969
 11
5.30922
 21
437.704
  0
LINE
  8
0
 10
5.30922
 20
437.704
 11
5.17555
 21
437.42
  0
LINE
  8
0
 10
5.17555
 20
437.42
 11
5.07854
 21
437.122
  0
LINE
  8
0
 10
5.07854
 20
437.122
 11
5.0197
 21
436.813
  0
LINE
  8
0
 10
5.0197
 20
436.813
 11
5
 21
436.5
  0
LINE
  8
0
 10
5
 20
436.5
 11
5.0197
 21
436.187
  0
LINE
  8
0
 10
5.0197
 20
436.187
 11
5.07854
 21
435.878
  0
LINE
  8
0
 10
5.07854
 20
435.878
 11
5.17555
 21
435.58
  0
LINE
  8
0
 10
5.17555
 20
435.58
 11
5.30922
 21
435.296
  0
LINE
  8
0
 10
5.30922
 20
435.296
 11
5.47745
 21
435.031
  0
LINE
  8
0
 10
5.47745
 20
435.031
 11
5.67757
 21
434.789
  0
LINE
  8
0
 10
5.67757
 20
434.789
 11
5.90643
 21
434.574
  0
LINE
  8
0
 10
5.90643
 20
434.574
 11
6.16043
 21
434.389
  0
LINE
  8
0
 10
6.16043
 20
434.389
 11
6.43555
 21
434.238
  0
LINE
  8
0
 10
6.43555
 20
434.238
 11
6.72745
 21
434.122
  0
LINE
  8
0
 10
6.72745
 20
434.122
 11
7.03154
 21
434.044
  0
LINE
  8
0
 10
7.03154
 20
434.044
 11
7.34302
 21
434.005
  0
LINE
  8
0
 10
7.34302
 20
434.005
 11
7.65697
 21
434.005
  0
LINE
  8
0
 10
7.65697
 20
434.005
 11
7.96844
 21
434.044
  0
LINE
  8
0
 10
7.40581
 20
435.003
 11
7.21892
 21
435.027
  0
LINE
  8
0
 10
7.21892
 20
435.027
 11
7.03647
 21
435.073
  0
LINE
  8
0
 10
7.03647
 20
435.073
 11
6.86133
 21
435.143
  0
LINE
  8
0
 10
6.86133
 20
435.143
 11
6.69626
 21
435.234
  0
LINE
  8
0
 10
6.69626
 20
435.234
 11
6.54385
 21
435.344
  0
LINE
  8
0
 10
6.54385
 20
435.344
 11
6.40654
 21
435.473
  0
LINE
  8
0
 10
6.40654
 20
435.473
 11
6.28647
 21
435.618
  0
LINE
  8
0
 10
6.28647
 20
435.618
 11
6.18553
 21
435.777
  0
LINE
  8
0
 10
6.18553
 20
435.777
 11
6.10533
 21
435.948
  0
LINE
  8
0
 10
6.10533
 20
435.948
 11
6.04712
 21
436.127
  0
LINE
  8
0
 10
6.04712
 20
436.127
 11
6.01183
 21
436.312
  0
LINE
  8
0
 10
6.01183
 20
436.312
 11
6
 21
436.5
  0
LINE
  8
0
 10
6
 20
436.5
 11
6.01183
 21
436.688
  0
LINE
  8
0
 10
6.01183
 20
436.688
 11
6.04712
 21
436.873
  0
LINE
  8
0
 10
6.04712
 20
436.873
 11
6.10533
 21
437.052
  0
LINE
  8
0
 10
6.10533
 20
437.052
 11
6.18553
 21
437.223
  0
LINE
  8
0
 10
6.18553
 20
437.223
 11
6.28647
 21
437.382
  0
LINE
  8
0
 10
6.28647
 20
437.382
 11
6.40654
 21
437.527
  0
LINE
  8
0
 10
6.40654
 20
437.527
 11
6.54385
 21
437.656
  0
LINE
  8
0
 10
6.54385
 20
437.656
 11
6.69626
 21
437.766
  0
LINE
  8
0
 10
6.69626
 20
437.766
 11
6.86133
 21
437.857
  0
LINE
  8
0
 10
6.86133
 20
437.857
 11
7.03647
 21
437.927
  0
LINE
  8
0
 10
7.03647
 20
437.927
 11
7.21892
 21
437.973
  0
LINE
  8
0
 10
7.21892
 20
437.973
 11
7.40581
 21
437.997
  0
LINE
  8
0
 10
7.40581
 20
437.997
 11
7.59418
 21
437.997
  0
LINE
  8
0
 10
7.59418
 20
437.997
 11
7.78107
 21
437.973
  0
LINE
  8
0
 10
7.78107
 20
437.973
 11
7.96352
 21
437.927
  0
LINE
  8
0
 10
7.96352
 20
437.927
 11
8.13866
 21
437.857
  0
LINE
  8
0
 10
8.13866
 20
437.857
 11
8.30373
 21
437.766
  0
LINE
  8
0
 10
8.30373
 20
437.766
 11
8.45613
 21
437.656
  0
LINE
  8
0
 10
8.45613
 20
437.656
 11
8.59344
 21
437.527
  0
LINE
  8
0
 10
8.59344
 20
437.527
 11
8.71352
 21
437.382
  0
LINE
  8
0
 10
8.71352
 20
437.382
 11
8.81445
 21
437.223
  0
LINE
  8
0
 10
8.81445
 20
437.223
 11
8.89465
 21
437.052
  0
LINE
  8
0
 10
8.89465
 20
437.052
 11
8.95287
 21
436.873
  0
LINE
  8
0
 10
8.95287
 20
436.873
 11
8.98816
 21
436.688
  0
LINE
  8
0
 10
8.98816
 20
436.688
 11
9
 21
436.5
  0
LINE
  8
0
 10
9
 20
436.5
 11
8.98816
 21
436.312
  0
LINE
  8
0
 10
8.98816
 20
436.312
 11
8.95287
 21
436.127
  0
LINE
  8
0
 10
8.95287
 20
436.127
 11
8.89465
 21
435.948
  0
LINE
  8
0
 10
8.89465
 20
435.948
 11
8.81445
 21
435.777
  0
LINE
  8
0
 10
8.81445
 20
435.777
 11
8.71352
 21
435.618
  0
LINE
  8
0
 10
8.71352
 20
435.618
 11
8.59344
 21
435.473
  0
LINE
  8
0
 10
8.59344
 20
435.473
 11
8.45613
 21
435.344
  0
LINE
  8
0
 10
8.45613
 20
435.344
 11
8.30373
 21
435.234
  0
LINE
  8
0
 10
8.30373
 20
435.234
 11
8.13866
 21
435.143
  0
LINE
  8
0
 10
8.13866
 20
435.143
 11
7.96352
 21
435.073
  0
LINE
  8
0
 10
7.96352
 20
435.073
 11
7.78107
 21
435.027
  0
LINE
  8
0
 10
7.78107
 20
435.027
 11
7.59418
 21
435.003
  0
LINE
  8
0
 10
7.59418
 20
435.003
 11
7.40581
 21
435.003
  0
LINE
  8
0
 10
-7.59418
 20
390.003
 11
-7.78107
 21
390.027
  0
LINE
  8
0
 10
-7.78107
 20
390.027
 11
-7.96352
 21
390.073
  0
LINE
  8
0
 10
-7.96352
 20
390.073
 11
-8.13866
 21
390.143
  0
LINE
  8
0
 10
-8.13866
 20
390.143
 11
-8.30373
 21
390.234
  0
LINE
  8
0
 10
-8.30373
 20
390.234
 11
-8.45613
 21
390.344
  0
LINE
  8
0
 10
-8.45613
 20
390.344
 11
-8.59344
 21
390.473
  0
LINE
  8
0
 10
-8.59344
 20
390.473
 11
-8.71352
 21
390.618
  0
LINE
  8
0
 10
-8.71352
 20
390.618
 11
-8.81445
 21
390.777
  0
LINE
  8
0
 10
-8.81445
 20
390.777
 11
-8.89465
 21
390.948
  0
LINE
  8
0
 10
-8.89465
 20
390.948
 11
-8.95287
 21
391.127
  0
LINE
  8
0
 10
-8.95287
 20
391.127
 11
-8.98816
 21
391.312
  0
LINE
  8
0
 10
-8.98816
 20
391.312
 11
-9
 21
391.5
  0
LINE
  8
0
 10
-9
 20
391.5
 11
-8.98816
 21
391.688
  0
LINE
  8
0
 10
-8.98816
 20
391.688
 11
-8.95287
 21
391.873
  0
LINE
  8
0
 10
-8.95287
 20
391.873
 11
-8.89465
 21
392.052
  0
LINE
  8
0
 10
-8.89465
 20
392.052
 11
-8.81445
 21
392.223
  0
LINE
  8
0
 10
-8.81445
 20
392.223
 11
-8.71352
 21
392.382
  0
LINE
  8
0
 10
-8.71352
 20
392.382
 11
-8.59344
 21
392.527
  0
LINE
  8
0
 10
-8.59344
 20
392.527
 11
-8.45613
 21
392.656
  0
LINE
  8
0
 10
-8.45613
 20
392.656
 11
-8.30373
 21
392.766
  0
LINE
  8
0
 10
-8.30373
 20
392.766
 11
-8.13866
 21
392.857
  0
LINE
  8
0
 10
-8.13866
 20
392.857
 11
-7.96352
 21
392.927
  0
LINE
  8
0
 10
-7.96352
 20
392.927
 11
-7.78107
 21
392.973
  0
LINE
  8
0
 10
-7.78107
 20
392.973
 11
-7.59418
 21
392.997
  0
LINE
  8
0
 10
-7.59418
 20
392.997
 11
-7.40581
 21
392.997
  0
LINE
  8
0
 10
-7.40581
 20
392.997
 11
-7.21892
 21
392.973
  0
LINE
  8
0
 10
-7.21892
 20
392.973
 11
-7.03647
 21
392.927
  0
LINE
  8
0
 10
-7.03647
 20
392.927
 11
-6.86133
 21
392.857
  0
LINE
  8
0
 10
-6.86133
 20
392.857
 11
-6.69626
 21
392.766
  0
LINE
  8
0
 10
-6.69626
 20
392.766
 11
-6.54385
 21
392.656
  0
LINE
  8
0
 10
-6.54385
 20
392.656
 11
-6.40654
 21
392.527
  0
LINE
  8
0
 10
-6.40654
 20
392.527
 11
-6.28647
 21
392.382
  0
LINE
  8
0
 10
-6.28647
 20
392.382
 11
-6.18553
 21
392.223
  0
LINE
  8
0
 10
-6.18553
 20
392.223
 11
-6.10533
 21
392.052
  0
LINE
  8
0
 10
-6.10533
 20
392.052
 11
-6.04712
 21
391.873
  0
LINE
  8
0
 10
-6.04712
 20
391.873
 11
-6.01183
 21
391.688
  0
LINE
  8
0
 10
-6.01183
 20
391.688
 11
-6
 21
391.5
  0
LINE
  8
0
 10
-6
 20
391.5
 11
-6.01183
 21
391.312
  0
LINE
  8
0
 10
-6.01183
 20
391.312
 11
-6.04712
 21
391.127
  0
LINE
  8
0
 10
-6.04712
 20
391.127
 11
-6.10533
 21
390.948
  0
LINE
  8
0
 10
-6.10533
 20
390.948
 11
-6.18553
 21
390.777
  0
LINE
  8
0
 10
-6.18553
 20
390.777
 11
-6.28647
 21
390.618
  0
LINE
  8
0
 10
-6.28647
 20
390.618
 11
-6.40654
 21
390.473
  0
LINE
  8
0
 10
-6.40654
 20
390.473
 11
-6.54385
 21
390.344
  0
LINE
  8
0
 10
-6.54385
 20
390.344
 11
-6.69626
 21
390.234
  0
LINE
  8
0
 10
-6.69626
 20
390.234
 11
-6.86133
 21
390.143
  0
LINE
  8
0
 10
-6.86133
 20
390.143
 11
-7.03647
 21
390.073
  0
LINE
  8
0
 10
-7.03647
 20
390.073
 11
-7.21892
 21
390.027
  0
LINE
  8
0
 10
-7.21892
 20
390.027
 11
-7.40581
 21
390.003
  0
LINE
  8
0
 10
-7.40581
 20
390.003
 11
-7.59418
 21
390.003
  0
LINE
  8
0
 10
10.9369
 20
315.089
 11
11.5451
 21
315.245
  0
LINE
  8
0
 10
11.5451
 20
315.245
 11
12.1289
 21
315.476
  0
LINE
  8
0
 10
12.1289
 20
315.476
 11
12.6791
 21
315.778
  0
LINE
  8
0
 10
12.6791
 20
315.778
 11
13.1871
 21
316.147
  0
LINE
  8
0
 10
13.1871
 20
316.147
 11
13.6448
 21
316.577
  0
LINE
  8
0
 10
13.6448
 20
316.577
 11
14.0451
 21
317.061
  0
LINE
  8
0
 10
14.0451
 20
317.061
 11
14.3815
 21
317.591
  0
LINE
  8
0
 10
14.3815
 20
317.591
 11
14.6489
 21
318.159
  0
LINE
  8
0
 10
14.6489
 20
318.159
 11
14.8429
 21
318.757
  0
LINE
  8
0
 10
14.8429
 20
318.757
 11
14.9606
 21
319.373
  0
LINE
  8
0
 10
14.9606
 20
319.373
 11
15
 21
320
  0
LINE
  8
0
 10
15
 20
320
 11
15
 21
370
  0
LINE
  8
0
 10
15
 20
370
 11
14.9606
 21
370.627
  0
LINE
  8
0
 10
14.9606
 20
370.627
 11
14.8429
 21
371.243
  0
LINE
  8
0
 10
14.8429
 20
371.243
 11
14.6489
 21
371.841
  0
LINE
  8
0
 10
14.6489
 20
371.841
 11
14.3815
 21
372.409
  0
LINE
  8
0
 10
14.3815
 20
372.409
 11
14.0451
 21
372.939
  0
LINE
  8
0
 10
14.0451
 20
372.939
 11
13.6448
 21
373.423
  0
LINE
  8
0
 10
13.6448
 20
373.423
 11
13.1871
 21
373.853
  0
LINE
  8
0
 10
13.1871
 20
373.853
 11
12.6791
 21
374.222
  0
LINE
  8
0
 10
12.6791
 20
374.222
 11
12.1289
 21
374.524
  0
LINE
  8
0
 10
12.1289
 20
374.524
 11
11.5451
 21
374.755
  0
LINE
  8
0
 10
11.5451
 20
374.755
 11
10.9369
 21
374.911
  0
LINE
  8
0
 10
10.9369
 20
374.911
 11
10.3139
 21
374.99
  0
LINE
  8
0
 10
10.3139
 20
374.99
 11
-10.3139
 21
374.99
  0
LINE
  8
0
 10
-10.3139
 20
374.99
 11
-10.9369
 21
374.911
  0
LINE
  8
0
 10
-10.9369
 20
374.911
 11
-11.5451
 21
374.755
  0
LINE
  8
0
 10
-11.5451
 20
374.755
 11
-12.1289
 21
374.524
  0
LINE
  8
0
 10
-12.1289
 20
374.524
 11
-12.6791
 21
374.222
  0
LINE
  8
0
 10
-12.6791
 20
374.222
 11
-13.1871
 21
373.853
  0
LINE
  8
0
 10
-13.1871
 20
373.853
 11
-13.6448
 21
373.423
  0
LINE
  8
0
 10
-13.6448
 20
373.423
 11
-14.0451
 21
372.939
  0
LINE
  8
0
 10
-14.0451
 20
372.939
 11
-14.3815
 21
372.409
  0
LINE
  8
0
 10
-14.3815
 20
372.409
 11
-14.6489
 21
371.841
  0
LINE
  8
0
 10
-14.6489
 20
371.841
 11
-14.8429
 21
371.243
  0
LINE
  8
0
 10
-14.8429
 20
371.243
 11
-14.9606
 21
370.627
  0
LINE
  8
0
 10
-14.9606
 20
370.627
 11
-15
 21
370
  0
LINE
  8
0
 10
-15
 20
370
 11
-15
 21
320
  0
LINE
  8
0
 10
-15
 20
320
 11
-14.9606
 21
319.373
  0
LINE
  8
0
 10
-14.9606
 20
319.373
 11
-14.8429
 21
318.757
  0
LINE
  8
0
 10
-14.8429
 20
318.757
 11
-14.6489
 21
318.159
  0
LINE
  8
0
 10
-14.6489
 20
318.159
 11
-14.3815
 21
317.591
  0
LINE
  8
0
 10
-14.3815
 20
317.591
 11
-14.0451
 21
317.061
  0
LINE
  8
0
 10
-14.0451
 20
317.061
 11
-13.6448
 21
316.577
  0
LINE
  8
0
 10
-13.6448
 20
316.577
 11
-13.1871
 21
316.147
  0
LINE
  8
0
 10
-13.1871
 20
316.147
 11
-12.6791
 21
315.778
  0
LINE
  8
0
 10
-12.6791
 20
315.778
 11
-12.1289
 21
315.476
  0
LINE
  8
0
 10
-12.1289
 20
315.476
 11
-11.5451
 21
315.245
  0
LINE
  8
0
 10
-11.5451
 20
315.245
 11
-10.9369
 21
315.089
  0
LINE
  8
0
 10
-10.9369
 20
315.089
 11
-10.3139
 21
315.01
  0
LINE
  8
0
 10
-10.3139
 20
315.01
 11
10.3139
 21
315.01
  0
LINE
  8
0
 10
10.3139
 20
315.01
 11
10.9369
 21
315.089
  0
LINE
  8
0
 10
-2.87805
 20
317.182
 11
-2.61845
 21
317.591
  0
LINE
  8
0
 10
-2.61845
 20
317.591
 11
-2.3511
 21
318.159
  0
LINE
  8
0
 10
-2.3511
 20
318.159
 11
-2.15707
 21
318.757
  0
LINE
  8
0
 10
-2.15707
 20
318.757
 11
-2.03941
 21
319.373
  0
LINE
  8
0
 10
-2.03941
 20
319.373
 11
-2
 21
320
  0
LINE
  8
0
 10
-2
 20
320
 11
-2
 21
323
  0
LINE
  8
0
 10
-2
 20
323
 11
-2.03941
 21
323.627
  0
LINE
  8
0
 10
-2.03941
 20
323.627
 11
-2.15707
 21
324.243
  0
LINE
  8
0
 10
-2.15707
 20
324.243
 11
-2.3511
 21
324.841
  0
LINE
  8
0
 10
-2.3511
 20
324.841
 11
-2.61845
 21
325.409
  0
LINE
  8
0
 10
-2.61845
 20
325.409
 11
-2.95491
 21
325.939
  0
LINE
  8
0
 10
-2.95491
 20
325.939
 11
-3.35515
 21
326.423
  0
LINE
  8
0
 10
-3.35515
 20
326.423
 11
-3.81287
 21
326.853
  0
LINE
  8
0
 10
-3.81287
 20
326.853
 11
-4.32086
 21
327.222
  0
LINE
  8
0
 10
-4.32086
 20
327.222
 11
-4.87109
 21
327.524
  0
LINE
  8
0
 10
-4.87109
 20
327.524
 11
-5.45491
 21
327.755
  0
LINE
  8
0
 10
-5.45491
 20
327.755
 11
-6.06308
 21
327.911
  0
LINE
  8
0
 10
-6.06308
 20
327.911
 11
-6.68604
 21
327.99
  0
LINE
  8
0
 10
-6.68604
 20
327.99
 11
-10.3139
 21
327.99
  0
LINE
  8
0
 10
-10.3139
 20
327.99
 11
-10.9369
 21
327.911
  0
LINE
  8
0
 10
-10.9369
 20
327.911
 11
-11.5451
 21
327.755
  0
LINE
  8
0
 10
-11.5451
 20
327.755
 11
-12.1289
 21
327.524
  0
LINE
  8
0
 10
-12.1289
 20
327.524
 11
-12.6791
 21
327.222
  0
LINE
  8
0
 10
-12.6791
 20
327.222
 11
-12.8234
 21
327.117
  0
LINE
  8
0
 10
-12.8234
 20
327.117
 11
-12.8234
 21
370
  0
LINE
  8
0
 10
-12.8234
 20
370
 11
-12.8011
 21
370.354
  0
LINE
  8
0
 10
-12.8011
 20
370.354
 11
-12.7347
 21
370.702
  0
LINE
  8
0
 10
-12.7347
 20
370.702
 11
-12.6251
 21
371.039
  0
LINE
  8
0
 10
-12.6251
 20
371.039
 11
-12.4742
 21
371.36
  0
LINE
  8
0
 10
-12.4742
 20
371.36
 11
-12.2842
 21
371.66
  0
LINE
  8
0
 10
-12.2842
 20
371.66
 11
-12.0582
 21
371.933
  0
LINE
  8
0
 10
-12.0582
 20
371.933
 11
-11.7997
 21
372.175
  0
LINE
  8
0
 10
-11.7997
 20
372.175
 11
-11.5128
 21
372.384
  0
LINE
  8
0
 10
-11.5128
 20
372.384
 11
-11.2021
 21
372.555
  0
LINE
  8
0
 10
-11.2021
 20
372.555
 11
-10.8725
 21
372.685
  0
LINE
  8
0
 10
-10.8725
 20
372.685
 11
-10.5291
 21
372.773
  0
LINE
  8
0
 10
-10.5291
 20
372.773
 11
-10.1773
 21
372.818
  0
LINE
  8
0
 10
-10.1773
 20
372.818
 11
2.87805
 21
372.818
  0
LINE
  8
0
 10
2.87805
 20
372.818
 11
2.61845
 21
372.409
  0
LINE
  8
0
 10
2.61845
 20
372.409
 11
2.3511
 21
371.841
  0
LINE
  8
0
 10
2.3511
 20
371.841
 11
2.15707
 21
371.243
  0
LINE
  8
0
 10
2.15707
 20
371.243
 11
2.03941
 21
370.627
  0
LINE
  8
0
 10
2.03941
 20
370.627
 11
2
 21
370
  0
LINE
  8
0
 10
2
 20
370
 11
2
 21
367
  0
LINE
  8
0
 10
2
 20
367
 11
2.03941
 21
366.373
  0
LINE
  8
0
 10
2.03941
 20
366.373
 11
2.15707
 21
365.757
  0
LINE
  8
0
 10
2.15707
 20
365.757
 11
2.3511
 21
365.159
  0
LINE
  8
0
 10
2.3511
 20
365.159
 11
2.61845
 21
364.591
  0
LINE
  8
0
 10
2.61845
 20
364.591
 11
2.95491
 21
364.061
  0
LINE
  8
0
 10
2.95491
 20
364.061
 11
3.35515
 21
363.577
  0
LINE
  8
0
 10
3.35515
 20
363.577
 11
3.81287
 21
363.147
  0
LINE
  8
0
 10
3.81287
 20
363.147
 11
4.32086
 21
362.778
  0
LINE
  8
0
 10
4.32086
 20
362.778
 11
4.87109
 21
362.476
  0
LINE
  8
0
 10
4.87109
 20
362.476
 11
5.45491
 21
362.245
  0
LINE
  8
0
 10
5.45491
 20
362.245
 11
6.06308
 21
362.089
  0
LINE
  8
0
 10
6.06308
 20
362.089
 11
6.68604
 21
362.01
  0
LINE
  8
0
 10
6.68604
 20
362.01
 11
10.3139
 21
362.01
  0
LINE
  8
0
 10
10.3139
 20
362.01
 11
10.9369
 21
362.089
  0
LINE
  8
0
 10
10.9369
 20
362.089
 11
11.5451
 21
362.245
  0
LINE
  8
0
 10
11.5451
 20
362.245
 11
12.1289
 21
362.476
  0
LINE
  8
0
 10
12.1289
 20
362.476
 11
12.6791
 21
362.778
  0
LINE
  8
0
 10
12.6791
 20
362.778
 11
12.8234
 21
362.883
  0
LINE
  8
0
 10
12.8234
 20
362.883
 11
12.8234
 21
320
  0
LINE
  8
0
 10
12.8234
 20
320
 11
12.8011
 21
319.646
  0
LINE
  8
0
 10
12.8011
 20
319.646
 11
12.7347
 21
319.298
  0
LINE
  8
0
 10
12.7347
 20
319.298
 11
12.6251
 21
318.961
  0
LINE
  8
0
 10
12.6251
 20
318.961
 11
12.4742
 21
318.64
  0
LINE
  8
0
 10
12.4742
 20
318.64
 11
12.2842
 21
318.34
  0
LINE
  8
0
 10
12.2842
 20
318.34
 11
12.0582
 21
318.067
  0
LINE
  8
0
 10
12.0582
 20
318.067
 11
11.7997
 21
317.825
  0
LINE
  8
0
 10
11.7997
 20
317.825
 11
11.5128
 21
317.616
  0
LINE
  8
0
 10
11.5128
 20
317.616
 11
11.2021
 21
317.445
  0
LINE
  8
0
 10
11.2021
 20
317.445
 11
10.8725
 21
317.315
  0
LINE
  8
0
 10
10.8725
 20
317.315
 11
10.5291
 21
317.227
  0
LINE
  8
0
 10
10.5291
 20
317.227
 11
10.1773
 21
317.182
  0
LINE
  8
0
 10
10.1773
 20
317.182
 11
-2.87805
 21
317.182
  0
LINE
  8
0
 10
7.34929
 20
365.105
 11
7.05028
 21
365.143
  0
LINE
  8
0
 10
7.05028
 20
365.143
 11
6.75835
 21
365.217
  0
LINE
  8
0
 10
6.75835
 20
365.217
 11
6.47812
 21
365.328
  0
LINE
  8
0
 10
6.47812
 20
365.328
 11
6.214
 21
365.474
  0
LINE
  8
0
 10
6.214
 20
365.474
 11
5.97017
 21
365.651
  0
LINE
  8
0
 10
5.97017
 20
365.651
 11
5.75047
 21
365.857
  0
LINE
  8
0
 10
5.75047
 20
365.857
 11
5.55835
 21
366.089
  0
LINE
  8
0
 10
5.55835
 20
366.089
 11
5.39685
 21
366.344
  0
LINE
  8
0
 10
5.39685
 20
366.344
 11
5.26852
 21
366.617
  0
LINE
  8
0
 10
5.26852
 20
366.617
 11
5.1754
 21
366.903
  0
LINE
  8
0
 10
5.1754
 20
366.903
 11
5.11891
 21
367.199
  0
LINE
  8
0
 10
5.11891
 20
367.199
 11
5.09999
 21
367.5
  0
LINE
  8
0
 10
5.09999
 20
367.5
 11
5.11891
 21
367.801
  0
LINE
  8
0
 10
5.11891
 20
367.801
 11
5.1754
 21
368.097
  0
LINE
  8
0
 10
5.1754
 20
368.097
 11
5.26852
 21
368.383
  0
LINE
  8
0
 10
5.26852
 20
368.383
 11
5.39685
 21
368.656
  0
LINE
  8
0
 10
5.39685
 20
368.656
 11
5.55835
 21
368.911
  0
LINE
  8
0
 10
5.55835
 20
368.911
 11
5.75047
 21
369.143
  0
LINE
  8
0
 10
5.75047
 20
369.143
 11
5.97017
 21
369.349
  0
LINE
  8
0
 10
5.97017
 20
369.349
 11
6.214
 21
369.526
  0
LINE
  8
0
 10
6.214
 20
369.526
 11
6.47812
 21
369.672
  0
LINE
  8
0
 10
6.47812
 20
369.672
 11
6.75835
 21
369.783
  0
LINE
  8
0
 10
6.75835
 20
369.783
 11
7.05028
 21
369.857
  0
LINE
  8
0
 10
7.05028
 20
369.857
 11
7.34929
 21
369.895
  0
LINE
  8
0
 10
7.34929
 20
369.895
 11
7.6507
 21
369.895
  0
LINE
  8
0
 10
7.6507
 20
369.895
 11
7.94971
 21
369.857
  0
LINE
  8
0
 10
7.94971
 20
369.857
 11
8.24164
 21
369.783
  0
LINE
  8
0
 10
8.24164
 20
369.783
 11
8.52187
 21
369.672
  0
LINE
  8
0
 10
8.52187
 20
369.672
 11
8.78598
 21
369.526
  0
LINE
  8
0
 10
8.78598
 20
369.526
 11
9.02982
 21
369.349
  0
LINE
  8
0
 10
9.02982
 20
369.349
 11
9.24951
 21
369.143
  0
LINE
  8
0
 10
9.24951
 20
369.143
 11
9.44164
 21
368.911
  0
LINE
  8
0
 10
9.44164
 20
368.911
 11
9.60313
 21
368.656
  0
LINE
  8
0
 10
9.60313
 20
368.656
 11
9.73146
 21
368.383
  0
LINE
  8
0
 10
9.73146
 20
368.383
 11
9.82458
 21
368.097
  0
LINE
  8
0
 10
9.82458
 20
368.097
 11
9.88107
 21
367.801
  0
LINE
  8
0
 10
9.88107
 20
367.801
 11
9.89999
 21
367.5
  0
LINE
  8
0
 10
9.89999
 20
367.5
 11
9.88107
 21
367.199
  0
LINE
  8
0
 10
9.88107
 20
367.199
 11
9.82458
 21
366.903
  0
LINE
  8
0
 10
9.82458
 20
366.903
 11
9.73146
 21
366.617
  0
LINE
  8
0
 10
9.73146
 20
366.617
 11
9.60313
 21
366.344
  0
LINE
  8
0
 10
9.60313
 20
366.344
 11
9.44164
 21
366.089
  0
LINE
  8
0
 10
9.44164
 20
366.089
 11
9.24951
 21
365.857
  0
LINE
  8
0
 10
9.24951
 20
365.857
 11
9.02982
 21
365.651
  0
LINE
  8
0
 10
9.02982
 20
365.651
 11
8.78598
 21
365.474
  0
LINE
  8
0
 10
8.78598
 20
365.474
 11
8.52187
 21
365.328
  0
LINE
  8
0
 10
8.52187
 20
365.328
 11
8.24164
 21
365.217
  0
LINE
  8
0
 10
8.24164
 20
365.217
 11
7.94971
 21
365.143
  0
LINE
  8
0
 10
7.94971
 20
365.143
 11
7.6507
 21
365.105
  0
LINE
  8
0
 10
7.6507
 20
365.105
 11
7.34929
 21
365.105
  0
LINE
  8
0
 10
-7.6507
 20
320.105
 11
-7.94971
 21
320.143
  0
LINE
  8
0
 10
-7.94971
 20
320.143
 11
-8.24164
 21
320.217
  0
LINE
  8
0
 10
-8.24164
 20
320.217
 11
-8.52187
 21
320.328
  0
LINE
  8
0
 10
-8.52187
 20
320.328
 11
-8.78598
 21
320.474
  0
LINE
  8
0
 10
-8.78598
 20
320.474
 11
-9.02982
 21
320.651
  0
LINE
  8
0
 10
-9.02982
 20
320.651
 11
-9.24951
 21
320.857
  0
LINE
  8
0
 10
-9.24951
 20
320.857
 11
-9.44164
 21
321.089
  0
LINE
  8
0
 10
-9.44164
 20
321.089
 11
-9.60313
 21
321.344
  0
LINE
  8
0
 10
-9.60313
 20
321.344
 11
-9.73146
 21
321.617
  0
LINE
  8
0
 10
-9.73146
 20
321.617
 11
-9.82458
 21
321.903
  0
LINE
  8
0
 10
-9.82458
 20
321.903
 11
-9.88107
 21
322.199
  0
LINE
  8
0
 10
-9.88107
 20
322.199
 11
-9.89999
 21
322.5
  0
LINE
  8
0
 10
-9.89999
 20
322.5
 11
-9.88107
 21
322.801
  0
LINE
  8
0
 10
-9.88107
 20
322.801
 11
-9.82458
 21
323.097
  0
LINE
  8
0
 10
-9.82458
 20
323.097
 11
-9.73146
 21
323.383
  0
LINE
  8
0
 10
-9.73146
 20
323.383
 11
-9.60313
 21
323.656
  0
LINE
  8
0
 10
-9.60313
 20
323.656
 11
-9.44164
 21
323.911
  0
LINE
  8
0
 10
-9.44164
 20
323.911
 11
-9.24951
 21
324.143
  0
LINE
  8
0
 10
-9.24951
 20
324.143
 11
-9.02982
 21
324.349
  0
LINE
  8
0
 10
-9.02982
 20
324.349
 11
-8.78598
 21
324.526
  0
LINE
  8
0
 10
-8.78598
 20
324.526
 11
-8.52187
 21
324.672
  0
LINE
  8
0
 10
-8.52187
 20
324.672
 11
-8.24164
 21
324.783
  0
LINE
  8
0
 10
-8.24164
 20
324.783
 11
-7.94971
 21
324.857
  0
LINE
  8
0
 10
-7.94971
 20
324.857
 11
-7.6507
 21
324.895
  0
LINE
  8
0
 10
-7.6507
 20
324.895
 11
-7.34929
 21
324.895
  0
LINE
  8
0
 10
-7.34929
 20
324.895
 11
-7.05028
 21
324.857
  0
LINE
  8
0
 10
-7.05028
 20
324.857
 11
-6.75835
 21
324.783
  0
LINE
  8
0
 10
-6.75835
 20
324.783
 11
-6.47812
 21
324.672
  0
LINE
  8
0
 10
-6.47812
 20
324.672
 11
-6.214
 21
324.526
  0
LINE
  8
0
 10
-6.214
 20
324.526
 11
-5.97017
 21
324.349
  0
LINE
  8
0
 10
-5.97017
 20
324.349
 11
-5.75047
 21
324.143
  0
LINE
  8
0
 10
-5.75047
 20
324.143
 11
-5.55835
 21
323.911
  0
LINE
  8
0
 10
-5.55835
 20
323.911
 11
-5.39685
 21
323.656
  0
LINE
  8
0
 10
-5.39685
 20
323.656
 11
-5.26852
 21
323.383
  0
LINE
  8
0
 10
-5.26852
 20
323.383
 11
-5.1754
 21
323.097
  0
LINE
  8
0
 10
-5.1754
 20
323.097
 11
-5.11891
 21
322.801
  0
LINE
  8
0
 10
-5.11891
 20
322.801
 11
-5.09999
 21
322.5
  0
LINE
  8
0
 10
-5.09999
 20
322.5
 11
-5.11891
 21
322.199
  0
LINE
  8
0
 10
-5.11891
 20
322.199
 11
-5.1754
 21
321.903
  0
LINE
  8
0
 10
-5.1754
 20
321.903
 11
-5.26852
 21
321.617
  0
LINE
  8
0
 10
-5.26852
 20
321.617
 11
-5.39685
 21
321.344
  0
LINE
  8
0
 10
-5.39685
 20
321.344
 11
-5.55835
 21
321.089
  0
LINE
  8
0
 10
-5.55835
 20
321.089
 11
-5.75047
 21
320.857
  0
LINE
  8
0
 10
-5.75047
 20
320.857
 11
-5.97017
 21
320.651
  0
LINE
  8
0
 10
-5.97017
 20
320.651
 11
-6.214
 21
320.474
  0
LINE
  8
0
 10
-6.214
 20
320.474
 11
-6.47812
 21
320.328
  0
LINE
  8
0
 10
-6.47812
 20
320.328
 11
-6.75835
 21
320.217
  0
LINE
  8
0
 10
-6.75835
 20
320.217
 11
-7.05028
 21
320.143
  0
LINE
  8
0
 10
-7.05028
 20
320.143
 11
-7.34929
 21
320.105
  0
LINE
  8
0
 10
-7.34929
 20
320.105
 11
-7.6507
 21
320.105
  0
ENDSEC
  0
SECTION
  2
OBJECTS
  0
DICTIONARY
  0
ENDSEC
  0
EOF
