<?xml version="1.0" standalone="no"?>
<!DOCTYPE svg PUBLIC "-//W3C//DTD SVG 1.1//EN" "http://www.w3.org/Graphics/SVG/1.1/DTD/svg11.dtd">
<svg width="120mm" height="93mm" viewBox="-60 -93 120 93" xmlns="http://www.w3.org/2000/svg" version="1.1">
<title>OpenSCAD Model</title>
<path d="
M 59.5,-87.5 L 59.4606,-88.1267 L 59.3429,-88.7434 L 59.1489,-89.3406 L 58.8815,-89.9088 L 58.5451,-90.4389
 L 58.1448,-90.9227 L 57.6871,-91.3526 L 57.1791,-91.7216 L 56.6289,-92.0241 L 56.0451,-92.2553 L 55.4369,-92.4114
 L 54.8139,-92.4901 L -54.8139,-92.4901 L -55.4369,-92.4114 L -56.0451,-92.2553 L -56.6289,-92.0241 L -57.1791,-91.7216
 L -57.6871,-91.3526 L -58.1448,-90.9227 L -58.5451,-90.4389 L -58.8815,-89.9088 L -59.1489,-89.3406 L -59.3429,-88.7434
 L -59.4606,-88.1267 L -59.5,-87.5 L -59.5,-72 L 59.5,-72 z
M 22.3116,-82.5059 L 21.9379,-82.5531 L 21.5729,-82.6468 L 21.2227,-82.7855 L 20.8925,-82.967 L 20.5877,-83.1884
 L 20.3131,-83.4464 L 20.0729,-83.7366 L 19.8711,-84.0547 L 19.7107,-84.3956 L 19.5942,-84.7539 L 19.5237,-85.124
 L 19.5,-85.5 L 19.5237,-85.876 L 19.5942,-86.2461 L 19.7107,-86.6044 L 19.8711,-86.9453 L 20.0729,-87.2634
 L 20.3131,-87.5536 L 20.5877,-87.8115 L 20.8925,-88.033 L 21.2227,-88.2145 L 21.5729,-88.3532 L 21.9379,-88.4469
 L 22.3116,-88.4941 L 22.6884,-88.4941 L 23.0621,-88.4469 L 23.427,-88.3532 L 23.7773,-88.2145 L 24.1075,-88.033
 L 24.4123,-87.8115 L 24.6869,-87.5536 L 24.927,-87.2634 L 25.1289,-86.9453 L 25.2893,-86.6044 L 25.4057,-86.2461
 L 25.4763,-85.876 L 25.5,-85.5 L 25.4763,-85.124 L 25.4057,-84.7539 L 25.2893,-84.3956 L 25.1289,-84.0547
 L 24.927,-83.7366 L 24.6869,-83.4464 L 24.4123,-83.1884 L 24.1075,-82.967 L 23.7773,-82.7855 L 23.427,-82.6468
 L 23.0621,-82.5531 L 22.6884,-82.5059 z
M -22.6884,-82.5059 L -23.0621,-82.5531 L -23.427,-82.6468 L -23.7773,-82.7855 L -24.1075,-82.967 L -24.4123,-83.1884
 L -24.6869,-83.4464 L -24.927,-83.7366 L -25.1289,-84.0547 L -25.2893,-84.3956 L -25.4057,-84.7539 L -25.4763,-85.124
 L -25.5,-85.5 L -25.4763,-85.876 L -25.4057,-86.2461 L -25.2893,-86.6044 L -25.1289,-86.9453 L -24.927,-87.2634
 L -24.6869,-87.5536 L -24.4123,-87.8115 L -24.1075,-88.033 L -23.7773,-88.2145 L -23.427,-88.3532 L -23.0621,-88.4469
 L -22.6884,-88.4941 L -22.3116,-88.4941 L -21.9379,-88.4469 L -21.5729,-88.3532 L -21.2227,-88.2145 L -20.8925,-88.033
 L -20.5877,-87.8115 L -20.3131,-87.5536 L -20.0729,-87.2634 L -19.8711,-86.9453 L -19.7107,-86.6044 L -19.5942,-86.2461
 L -19.5237,-85.876 L -19.5,-85.5 L -19.5237,-85.124 L -19.5942,-84.7539 L -19.7107,-84.3956 L -19.8711,-84.0547
 L -20.0729,-83.7366 L -20.3131,-83.4464 L -20.5877,-83.1884 L -20.8925,-82.967 L -21.2227,-82.7855 L -21.5729,-82.6468
 L -21.9379,-82.5531 L -22.3116,-82.5059 z
M 7.31161,-82.5059 L 6.93785,-82.5531 L 6.57294,-82.6468 L 6.22266,-82.7855 L 5.89252,-82.967 L 5.58772,-83.1884
 L 5.31308,-83.4464 L 5.07294,-83.7366 L 4.87108,-84.0547 L 4.71066,-84.3956 L 4.59424,-84.7539 L 4.52365,-85.124
 L 4.5,-85.5 L 4.52365,-85.876 L 4.59424,-86.2461 L 4.71066,-86.6044 L 4.87108,-86.9453 L 5.07294,-87.2634
 L 5.31308,-87.5536 L 5.58772,-87.8115 L 5.89252,-88.033 L 6.22266,-88.2145 L 6.57294,-88.3532 L 6.93785,-88.4469
 L 7.31161,-88.4941 L 7.68837,-88.4941 L 8.06213,-88.4469 L 8.42705,-88.3532 L 8.77733,-88.2145 L 9.10747,-88.033
 L 9.41226,-87.8115 L 9.6869,-87.5536 L 9.92705,-87.2634 L 10.1289,-86.9453 L 10.2893,-86.6044 L 10.4057,-86.2461
 L 10.4763,-85.876 L 10.5,-85.5 L 10.4763,-85.124 L 10.4057,-84.7539 L 10.2893,-84.3956 L 10.1289,-84.0547
 L 9.92705,-83.7366 L 9.6869,-83.4464 L 9.41226,-83.1884 L 9.10747,-82.967 L 8.77733,-82.7855 L 8.42705,-82.6468
 L 8.06213,-82.5531 L 7.68837,-82.5059 z
M 52.3116,-82.5059 L 51.9379,-82.5531 L 51.5729,-82.6468 L 51.2227,-82.7855 L 50.8925,-82.967 L 50.5877,-83.1884
 L 50.3131,-83.4464 L 50.0729,-83.7366 L 49.8711,-84.0547 L 49.7107,-84.3956 L 49.5942,-84.7539 L 49.5237,-85.124
 L 49.5,-85.5 L 49.5237,-85.876 L 49.5942,-86.2461 L 49.7107,-86.6044 L 49.8711,-86.9453 L 50.0729,-87.2634
 L 50.3131,-87.5536 L 50.5877,-87.8115 L 50.8925,-88.033 L 51.2227,-88.2145 L 51.5729,-88.3532 L 51.9379,-88.4469
 L 52.3116,-88.4941 L 52.6884,-88.4941 L 53.0621,-88.4469 L 53.427,-88.3532 L 53.7773,-88.2145 L 54.1075,-88.033
 L 54.4123,-87.8115 L 54.6869,-87.5536 L 54.927,-87.2634 L 55.1289,-86.9453 L 55.2893,-86.6044 L 55.4057,-86.2461
 L 55.4763,-85.876 L 55.5,-85.5 L 55.4763,-85.124 L 55.4057,-84.7539 L 55.2893,-84.3956 L 55.1289,-84.0547
 L 54.927,-83.7366 L 54.6869,-83.4464 L 54.4123,-83.1884 L 54.1075,-82.967 L 53.7773,-82.7855 L 53.427,-82.6468
 L 53.0621,-82.5531 L 52.6884,-82.5059 z
M -7.68837,-82.5059 L -8.06213,-82.5531 L -8.42705,-82.6468 L -8.77733,-82.7855 L -9.10747,-82.967 L -9.41226,-83.1884
 L -9.6869,-83.4464 L -9.92705,-83.7366 L -10.1289,-84.0547 L -10.2893,-84.3956 L -10.4057,-84.7539 L -10.4763,-85.124
 L -10.5,-85.5 L -10.4763,-85.876 L -10.4057,-86.2461 L -10.2893,-86.6044 L -10.1289,-86.9453 L -9.92705,-87.2634
 L -9.6869,-87.5536 L -9.41226,-87.8115 L -9.10747,-88.033 L -8.77733,-88.2145 L -8.42705,-88.3532 L -8.06213,-88.4469
 L -7.68837,-88.4941 L -7.31161,-88.4941 L -6.93785,-88.4469 L -6.57294,-88.3532 L -6.22266,-88.2145 L -5.89252,-88.033
 L -5.58772,-87.8115 L -5.31308,-87.5536 L -5.07294,-87.2634 L -4.87108,-86.9453 L -4.71066,-86.6044 L -4.59424,-86.2461
 L -4.52365,-85.876 L -4.5,-85.5 L -4.52365,-85.124 L -4.59424,-84.7539 L -4.71066,-84.3956 L -4.87108,-84.0547
 L -5.07294,-83.7366 L -5.31308,-83.4464 L -5.58772,-83.1884 L -5.89252,-82.967 L -6.22266,-82.7855 L -6.57294,-82.6468
 L -6.93785,-82.5531 L -7.31161,-82.5059 z
M -52.6884,-82.5059 L -53.0621,-82.5531 L -53.427,-82.6468 L -53.7773,-82.7855 L -54.1075,-82.967 L -54.4123,-83.1884
 L -54.6869,-83.4464 L -54.927,-83.7366 L -55.1289,-84.0547 L -55.2893,-84.3956 L -55.4057,-84.7539 L -55.4763,-85.124
 L -55.5,-85.5 L -55.4763,-85.876 L -55.4057,-86.2461 L -55.2893,-86.6044 L -55.1289,-86.9453 L -54.927,-87.2634
 L -54.6869,-87.5536 L -54.4123,-87.8115 L -54.1075,-88.033 L -53.7773,-88.2145 L -53.427,-88.3532 L -53.0621,-88.4469
 L -52.6884,-88.4941 L -52.3116,-88.4941 L -51.9379,-88.4469 L -51.5729,-88.3532 L -51.2227,-88.2145 L -50.8925,-88.033
 L -50.5877,-87.8115 L -50.3131,-87.5536 L -50.0729,-87.2634 L -49.8711,-86.9453 L -49.7107,-86.6044 L -49.5942,-86.2461
 L -49.5237,-85.876 L -49.5,-85.5 L -49.5237,-85.124 L -49.5942,-84.7539 L -49.7107,-84.3956 L -49.8711,-84.0547
 L -50.0729,-83.7366 L -50.3131,-83.4464 L -50.5877,-83.1884 L -50.8925,-82.967 L -51.2227,-82.7855 L -51.5729,-82.6468
 L -51.9379,-82.5531 L -52.3116,-82.5059 z
M -37.6884,-82.5059 L -38.0621,-82.5531 L -38.427,-82.6468 L -38.7773,-82.7855 L -39.1075,-82.967 L -39.4123,-83.1884
 L -39.6869,-83.4464 L -39.927,-83.7366 L -40.1289,-84.0547 L -40.2893,-84.3956 L -40.4057,-84.7539 L -40.4763,-85.124
 L -40.5,-85.5 L -40.4763,-85.876 L -40.4057,-86.2461 L -40.2893,-86.6044 L -40.1289,-86.9453 L -39.927,-87.2634
 L -39.6869,-87.5536 L -39.4123,-87.8115 L -39.1075,-88.033 L -38.7773,-88.2145 L -38.427,-88.3532 L -38.0621,-88.4469
 L -37.6884,-88.4941 L -37.3116,-88.4941 L -36.9379,-88.4469 L -36.5729,-88.3532 L -36.2227,-88.2145 L -35.8925,-88.033
 L -35.5877,-87.8115 L -35.3131,-87.5536 L -35.0729,-87.2634 L -34.8711,-86.9453 L -34.7107,-86.6044 L -34.5942,-86.2461
 L -34.5237,-85.876 L -34.5,-85.5 L -34.5237,-85.124 L -34.5942,-84.7539 L -34.7107,-84.3956 L -34.8711,-84.0547
 L -35.0729,-83.7366 L -35.3131,-83.4464 L -35.5877,-83.1884 L -35.8925,-82.967 L -36.2227,-82.7855 L -36.5729,-82.6468
 L -36.9379,-82.5531 L -37.3116,-82.5059 z
M 37.3116,-82.5059 L 36.9379,-82.5531 L 36.5729,-82.6468 L 36.2227,-82.7855 L 35.8925,-82.967 L 35.5877,-83.1884
 L 35.3131,-83.4464 L 35.0729,-83.7366 L 34.8711,-84.0547 L 34.7107,-84.3956 L 34.5942,-84.7539 L 34.5237,-85.124
 L 34.5,-85.5 L 34.5237,-85.876 L 34.5942,-86.2461 L 34.7107,-86.6044 L 34.8711,-86.9453 L 35.0729,-87.2634
 L 35.3131,-87.5536 L 35.5877,-87.8115 L 35.8925,-88.033 L 36.2227,-88.2145 L 36.5729,-88.3532 L 36.9379,-88.4469
 L 37.3116,-88.4941 L 37.6884,-88.4941 L 38.0621,-88.4469 L 38.427,-88.3532 L 38.7773,-88.2145 L 39.1075,-88.033
 L 39.4123,-87.8115 L 39.6869,-87.5536 L 39.927,-87.2634 L 40.1289,-86.9453 L 40.2893,-86.6044 L 40.4057,-86.2461
 L 40.4763,-85.876 L 40.5,-85.5 L 40.4763,-85.124 L 40.4057,-84.7539 L 40.2893,-84.3956 L 40.1289,-84.0547
 L 39.927,-83.7366 L 39.6869,-83.4464 L 39.4123,-83.1884 L 39.1075,-82.967 L 38.7773,-82.7855 L 38.427,-82.6468
 L 38.0621,-82.5531 L 37.6884,-82.5059 z
M 44.5997,-83.1336 L 44.3063,-83.2024 L 44.0238,-83.3075 L 43.7567,-83.4471 L 43.5092,-83.6191 L 43.2853,-83.8208
 L 43.0883,-84.049 L 42.9215,-84.3 L 42.7875,-84.57 L 42.6884,-84.8546 L 42.6257,-85.1494 L 42.6005,-85.4497
 L 42.6131,-85.7509 L 42.6634,-86.048 L 42.7505,-86.3366 L 42.8731,-86.6119 L 43.0292,-86.8697 L 43.2164,-87.1059
 L 43.4318,-87.3168 L 43.6719,-87.499 L 43.9329,-87.6497 L 44.2107,-87.7665 L 44.501,-87.8475 L 44.7992,-87.8916
 L 45.1005,-87.8979 L 45.4002,-87.8664 L 45.6937,-87.7976 L 45.9762,-87.6925 L 46.2433,-87.5529 L 46.4908,-87.3809
 L 46.7147,-87.1792 L 46.9117,-86.951 L 47.0785,-86.7 L 47.2125,-86.43 L 47.3116,-86.1454 L 47.3743,-85.8506
 L 47.3995,-85.5502 L 47.3868,-85.2491 L 47.3366,-84.952 L 47.2495,-84.6634 L 47.1269,-84.3881 L 46.9707,-84.1303
 L 46.7835,-83.8941 L 46.5682,-83.6832 L 46.3281,-83.501 L 46.0671,-83.3503 L 45.7893,-83.2335 L 45.499,-83.1524
 L 45.2008,-83.1084 L 44.8995,-83.1021 z
M -30.4002,-83.1336 L -30.6937,-83.2024 L -30.9762,-83.3075 L -31.2433,-83.4471 L -31.4908,-83.6191 L -31.7147,-83.8208
 L -31.9117,-84.049 L -32.0785,-84.3 L -32.2125,-84.57 L -32.3116,-84.8546 L -32.3743,-85.1494 L -32.3995,-85.4497
 L -32.3868,-85.7509 L -32.3366,-86.048 L -32.2495,-86.3366 L -32.1269,-86.6119 L -31.9707,-86.8697 L -31.7835,-87.1059
 L -31.5682,-87.3168 L -31.3281,-87.499 L -31.0671,-87.6497 L -30.7893,-87.7665 L -30.499,-87.8475 L -30.2008,-87.8916
 L -29.8995,-87.8979 L -29.5997,-87.8664 L -29.3063,-87.7976 L -29.0238,-87.6925 L -28.7567,-87.5529 L -28.5092,-87.3809
 L -28.2853,-87.1792 L -28.0883,-86.951 L -27.9215,-86.7 L -27.7875,-86.43 L -27.6884,-86.1454 L -27.6257,-85.8506
 L -27.6005,-85.5502 L -27.6131,-85.2491 L -27.6634,-84.952 L -27.7505,-84.6634 L -27.8731,-84.3881 L -28.0292,-84.1303
 L -28.2164,-83.8941 L -28.4318,-83.6832 L -28.6719,-83.501 L -28.9329,-83.3503 L -29.2107,-83.2335 L -29.501,-83.1524
 L -29.7992,-83.1084 L -30.1005,-83.1021 z
M -15.4002,-83.1336 L -15.6937,-83.2024 L -15.9762,-83.3075 L -16.2433,-83.4471 L -16.4908,-83.6191 L -16.7147,-83.8208
 L -16.9117,-84.049 L -17.0785,-84.3 L -17.2125,-84.57 L -17.3116,-84.8546 L -17.3743,-85.1494 L -17.3995,-85.4497
 L -17.3868,-85.7509 L -17.3366,-86.048 L -17.2495,-86.3366 L -17.1269,-86.6119 L -16.9707,-86.8697 L -16.7835,-87.1059
 L -16.5682,-87.3168 L -16.3281,-87.499 L -16.0671,-87.6497 L -15.7893,-87.7665 L -15.499,-87.8475 L -15.2008,-87.8916
 L -14.8995,-87.8979 L -14.5997,-87.8664 L -14.3063,-87.7976 L -14.0238,-87.6925 L -13.7567,-87.5529 L -13.5092,-87.3809
 L -13.2853,-87.1792 L -13.0883,-86.951 L -12.9215,-86.7 L -12.7875,-86.43 L -12.6884,-86.1454 L -12.6257,-85.8506
 L -12.6005,-85.5502 L -12.6131,-85.2491 L -12.6634,-84.952 L -12.7505,-84.6634 L -12.8731,-84.3881 L -13.0292,-84.1303
 L -13.2164,-83.8941 L -13.4318,-83.6832 L -13.6719,-83.501 L -13.9329,-83.3503 L -14.2107,-83.2335 L -14.501,-83.1524
 L -14.7992,-83.1084 L -15.1005,-83.1021 z
M -45.4002,-83.1336 L -45.6937,-83.2024 L -45.9762,-83.3075 L -46.2433,-83.4471 L -46.4908,-83.6191 L -46.7147,-83.8208
 L -46.9117,-84.049 L -47.0785,-84.3 L -47.2125,-84.57 L -47.3116,-84.8546 L -47.3743,-85.1494 L -47.3995,-85.4497
 L -47.3868,-85.7509 L -47.3366,-86.048 L -47.2495,-86.3366 L -47.1269,-86.6119 L -46.9707,-86.8697 L -46.7835,-87.1059
 L -46.5682,-87.3168 L -46.3281,-87.499 L -46.0671,-87.6497 L -45.7893,-87.7665 L -45.499,-87.8475 L -45.2008,-87.8916
 L -44.8995,-87.8979 L -44.5997,-87.8664 L -44.3063,-87.7976 L -44.0238,-87.6925 L -43.7567,-87.5529 L -43.5092,-87.3809
 L -43.2853,-87.1792 L -43.0883,-86.951 L -42.9215,-86.7 L -42.7875,-86.43 L -42.6884,-86.1454 L -42.6257,-85.8506
 L -42.6005,-85.5502 L -42.6131,-85.2491 L -42.6634,-84.952 L -42.7505,-84.6634 L -42.8731,-84.3881 L -43.0292,-84.1303
 L -43.2164,-83.8941 L -43.4318,-83.6832 L -43.6719,-83.501 L -43.9329,-83.3503 L -44.2107,-83.2335 L -44.501,-83.1524
 L -44.7992,-83.1084 L -45.1005,-83.1021 z
M 14.5997,-83.1336 L 14.3063,-83.2024 L 14.0238,-83.3075 L 13.7567,-83.4471 L 13.5092,-83.6191 L 13.2853,-83.8208
 L 13.0883,-84.049 L 12.9215,-84.3 L 12.7875,-84.57 L 12.6884,-84.8546 L 12.6257,-85.1494 L 12.6005,-85.4497
 L 12.6131,-85.7509 L 12.6634,-86.048 L 12.7505,-86.3366 L 12.8731,-86.6119 L 13.0292,-86.8697 L 13.2164,-87.1059
 L 13.4318,-87.3168 L 13.6719,-87.499 L 13.9329,-87.6497 L 14.2107,-87.7665 L 14.501,-87.8475 L 14.7992,-87.8916
 L 15.1005,-87.8979 L 15.4002,-87.8664 L 15.6937,-87.7976 L 15.9762,-87.6925 L 16.2433,-87.5529 L 16.4908,-87.3809
 L 16.7147,-87.1792 L 16.9117,-86.951 L 17.0785,-86.7 L 17.2125,-86.43 L 17.3116,-86.1454 L 17.3743,-85.8506
 L 17.3995,-85.5502 L 17.3868,-85.2491 L 17.3366,-84.952 L 17.2495,-84.6634 L 17.1269,-84.3881 L 16.9707,-84.1303
 L 16.7835,-83.8941 L 16.5682,-83.6832 L 16.3281,-83.501 L 16.0671,-83.3503 L 15.7893,-83.2335 L 15.499,-83.1524
 L 15.2008,-83.1084 L 14.8995,-83.1021 z
M -12.8466,-75.6 L -12.8466,-81 L -2.15337,-81 L -2.15337,-75.6 z
M 17.1534,-75.6 L 17.1534,-81 L 27.8466,-81 L 27.8466,-75.6 z
M -27.8466,-75.6 L -27.8466,-81 L -17.1534,-81 L -17.1534,-75.6 z
M 2.15337,-75.6 L 2.15337,-81 L 12.8466,-81 L 12.8466,-75.6 z
M -42.8466,-75.6 L -42.8466,-81 L -32.1534,-81 L -32.1534,-75.6 z
M -57.8466,-75.6 L -57.8466,-81 L -47.1534,-81 L -47.1534,-75.6 z
M 32.1534,-75.6 L 32.1534,-81 L 42.8466,-81 L 42.8466,-75.6 z
M 47.1534,-75.6 L 47.1534,-81 L 57.8466,-81 L 57.8466,-75.6 z
M -55.0307,-51.6 L -57.8466,-51.6 L -57.8466,-57 L -55.0307,-57 L -55.0307,-59.9 L -55.1289,-60.0547
 L -55.2893,-60.3956 L -55.4057,-60.7539 L -55.4763,-61.124 L -55.5,-61.5 L -55.4763,-61.876 L -55.4057,-62.2461
 L -55.2893,-62.6044 L -55.1289,-62.9453 L -54.927,-63.2634 L -54.6869,-63.5536 L -54.4123,-63.8115 L -54.1075,-64.033
 L -53.7773,-64.2145 L -53.427,-64.3532 L -53.0621,-64.4469 L -52.6884,-64.4941 L -52.3116,-64.4941 L -51.9379,-64.4469
 L -51.5729,-64.3532 L -51.2227,-64.2145 L -50.8925,-64.033 L -50.5877,-63.8115 L -50.3131,-63.5536 L -50.0729,-63.2634
 L -49.8711,-62.9453 L -49.7107,-62.6044 L -49.5942,-62.2461 L -49.5237,-61.876 L -49.5,-61.5 L -49.5237,-61.124
 L -49.5942,-60.7539 L -49.7107,-60.3956 L -49.8711,-60.0547 L -49.9693,-59.9 L -49.9693,-57 L -47.1534,-57
 L -47.1534,-51.6 L -49.9693,-51.6 L -49.9693,-48 L -40.0307,-48 L -40.0307,-51.6 L -42.8466,-51.6
 L -42.8466,-57 L -40.0307,-57 L -40.0307,-59.9 L -40.1289,-60.0547 L -40.2893,-60.3956 L -40.4057,-60.7539
 L -40.4763,-61.124 L -40.5,-61.5 L -40.4763,-61.876 L -40.4057,-62.2461 L -40.2893,-62.6044 L -40.1289,-62.9453
 L -39.927,-63.2634 L -39.6869,-63.5536 L -39.4123,-63.8115 L -39.1075,-64.033 L -38.7773,-64.2145 L -38.427,-64.3532
 L -38.0621,-64.4469 L -37.6884,-64.4941 L -37.3116,-64.4941 L -36.9379,-64.4469 L -36.5729,-64.3532 L -36.2227,-64.2145
 L -35.8925,-64.033 L -35.5877,-63.8115 L -35.3131,-63.5536 L -35.0729,-63.2634 L -34.8711,-62.9453 L -34.7107,-62.6044
 L -34.5942,-62.2461 L -34.5237,-61.876 L -34.5,-61.5 L -34.5237,-61.124 L -34.5942,-60.7539 L -34.7107,-60.3956
 L -34.8711,-60.0547 L -34.9693,-59.9 L -34.9693,-57 L -32.1534,-57 L -32.1534,-51.6 L -34.9693,-51.6
 L -34.9693,-48 L -25.0307,-48 L -25.0307,-51.6 L -27.8466,-51.6 L -27.8466,-57 L -25.0307,-57
 L -25.0307,-59.9 L -25.1289,-60.0547 L -25.2893,-60.3956 L -25.4057,-60.7539 L -25.4763,-61.124 L -25.5,-61.5
 L -25.4763,-61.876 L -25.4057,-62.2461 L -25.2893,-62.6044 L -25.1289,-62.9453 L -24.927,-63.2634 L -24.6869,-63.5536
 L -24.4123,-63.8115 L -24.1075,-64.033 L -23.7773,-64.2145 L -23.427,-64.3532 L -23.0621,-64.4469 L -22.6884,-64.4941
 L -22.3116,-64.4941 L -21.9379,-64.4469 L -21.5729,-64.3532 L -21.2227,-64.2145 L -20.8925,-64.033 L -20.5877,-63.8115
 L -20.3131,-63.5536 L -20.0729,-63.2634 L -19.8711,-62.9453 L -19.7107,-62.6044 L -19.5942,-62.2461 L -19.5237,-61.876
 L -19.5,-61.5 L -19.5237,-61.124 L -19.5942,-60.7539 L -19.7107,-60.3956 L -19.8711,-60.0547 L -19.9693,-59.9
 L -19.9693,-57 L -17.1534,-57 L -17.1534,-51.6 L -19.9693,-51.6 L -19.9693,-48 L -10.0307,-48
 L -10.0307,-51.6 L -12.8466,-51.6 L -12.8466,-57 L -10.0307,-57 L -10.0307,-59.9 L -10.1289,-60.0547
 L -10.2893,-60.3956 L -10.4057,-60.7539 L -10.4763,-61.124 L -10.5,-61.5 L -10.4763,-61.876 L -10.4057,-62.2461
 L -10.2893,-62.6044 L -10.1289,-62.9453 L -9.92705,-63.2634 L -9.6869,-63.5536 L -9.41226,-63.8115 L -9.10747,-64.033
 L -8.77733,-64.2145 L -8.42705,-64.3532 L -8.06213,-64.4469 L -7.68837,-64.4941 L -7.31161,-64.4941 L -6.93785,-64.4469
 L -6.57294,-64.3532 L -6.22266,-64.2145 L -5.89252,-64.033 L -5.58772,-63.8115 L -5.31308,-63.5536 L -5.07294,-63.2634
 L -4.87108,-62.9453 L -4.71066,-62.6044 L -4.59424,-62.2461 L -4.52365,-61.876 L -4.5,-61.5 L -4.52365,-61.124
 L -4.59424,-60.7539 L -4.71066,-60.3956 L -4.87108,-60.0547 L -4.96927,-59.9 L -4.96927,-57 L -2.15337,-57
 L -2.15337,-51.6 L -4.96927,-51.6 L -4.96927,-48 L 4.96927,-48 L 4.96927,-51.6 L 2.15337,-51.6
 L 2.15337,-57 L 4.96927,-57 L 4.96927,-59.9 L 4.87108,-60.0547 L 4.71066,-60.3956 L 4.59424,-60.7539
 L 4.52365,-61.124 L 4.5,-61.5 L 4.52365,-61.876 L 4.59424,-62.2461 L 4.71066,-62.6044 L 4.87108,-62.9453
 L 5.07294,-63.2634 L 5.31308,-63.5536 L 5.58772,-63.8115 L 5.89252,-64.033 L 6.22266,-64.2145 L 6.57294,-64.3532
 L 6.93785,-64.4469 L 7.31161,-64.4941 L 7.68837,-64.4941 L 8.06213,-64.4469 L 8.42705,-64.3532 L 8.77733,-64.2145
 L 9.10747,-64.033 L 9.41226,-63.8115 L 9.6869,-63.5536 L 9.92705,-63.2634 L 10.1289,-62.9453 L 10.2893,-62.6044
 L 10.4057,-62.2461 L 10.4763,-61.876 L 10.5,-61.5 L 10.4763,-61.124 L 10.4057,-60.7539 L 10.2893,-60.3956
 L 10.1289,-60.0547 L 10.0307,-59.9 L 10.0307,-57 L 12.8466,-57 L 12.8466,-51.6 L 10.0307,-51.6
 L 10.0307,-48 L 19.9693,-48 L 19.9693,-51.6 L 17.1534,-51.6 L 17.1534,-57 L 19.9693,-57
 L 19.9693,-59.9 L 19.8711,-60.0547 L 19.7107,-60.3956 L 19.5942,-60.7539 L 19.5237,-61.124 L 19.5,-61.5
 L 19.5237,-61.876 L 19.5942,-62.2461 L 19.7107,-62.6044 L 19.8711,-62.9453 L 20.0729,-63.2634 L 20.3131,-63.5536
 L 20.5877,-63.8115 L 20.8925,-64.033 L 21.2227,-64.2145 L 21.5729,-64.3532 L 21.9379,-64.4469 L 22.3116,-64.4941
 L 22.6884,-64.4941 L 23.0621,-64.4469 L 23.427,-64.3532 L 23.7773,-64.2145 L 24.1075,-64.033 L 24.4123,-63.8115
 L 24.6869,-63.5536 L 24.927,-63.2634 L 25.1289,-62.9453 L 25.2893,-62.6044 L 25.4057,-62.2461 L 25.4763,-61.876
 L 25.5,-61.5 L 25.4763,-61.124 L 25.4057,-60.7539 L 25.2893,-60.3956 L 25.1289,-60.0547 L 25.0307,-59.9
 L 25.0307,-57 L 27.8466,-57 L 27.8466,-51.6 L 25.0307,-51.6 L 25.0307,-48 L 34.9693,-48
 L 34.9693,-51.6 L 32.1534,-51.6 L 32.1534,-57 L 34.9693,-57 L 34.9693,-59.9 L 34.8711,-60.0547
 L 34.7107,-60.3956 L 34.5942,-60.7539 L 34.5237,-61.124 L 34.5,-61.5 L 34.5237,-61.876 L 34.5942,-62.2461
 L 34.7107,-62.6044 L 34.8711,-62.9453 L 35.0729,-63.2634 L 35.3131,-63.5536 L 35.5877,-63.8115 L 35.8925,-64.033
 L 36.2227,-64.2145 L 36.5729,-64.3532 L 36.9379,-64.4469 L 37.3116,-64.4941 L 37.6884,-64.4941 L 38.0621,-64.4469
 L 38.427,-64.3532 L 38.7773,-64.2145 L 39.1075,-64.033 L 39.4123,-63.8115 L 39.6869,-63.5536 L 39.927,-63.2634
 L 40.1289,-62.9453 L 40.2893,-62.6044 L 40.4057,-62.2461 L 40.4763,-61.876 L 40.5,-61.5 L 40.4763,-61.124
 L 40.4057,-60.7539 L 40.2893,-60.3956 L 40.1289,-60.0547 L 40.0307,-59.9 L 40.0307,-57 L 42.8466,-57
 L 42.8466,-51.6 L 40.0307,-51.6 L 40.0307,-48 L 49.9693,-48 L 49.9693,-51.6 L 47.1534,-51.6
 L 47.1534,-57 L 49.9693,-57 L 49.9693,-59.9 L 49.8711,-60.0547 L 49.7107,-60.3956 L 49.5942,-60.7539
 L 49.5237,-61.124 L 49.5,-61.5 L 49.5237,-61.876 L 49.5942,-62.2461 L 49.7107,-62.6044 L 49.8711,-62.9453
 L 50.0729,-63.2634 L 50.3131,-63.5536 L 50.5877,-63.8115 L 50.8925,-64.033 L 51.2227,-64.2145 L 51.5729,-64.3532
 L 51.9379,-64.4469 L 52.3116,-64.4941 L 52.6884,-64.4941 L 53.0621,-64.4469 L 53.427,-64.3532 L 53.7773,-64.2145
 L 54.1075,-64.033 L 54.4123,-63.8115 L 54.6869,-63.5536 L 54.927,-63.2634 L 55.1289,-62.9453 L 55.2893,-62.6044
 L 55.4057,-62.2461 L 55.4763,-61.876 L 55.5,-61.5 L 55.4763,-61.124 L 55.4057,-60.7539 L 55.2893,-60.3956
 L 55.1289,-60.0547 L 55.0307,-59.9 L 55.0307,-57 L 57.8466,-57 L 57.8466,-51.6 L 55.0307,-51.6
 L 55.0307,-48 L 59.5,-48 L 59.5,-63.5 L 59.4606,-64.1267 L 59.3429,-64.7434 L 59.1489,-65.3406
 L 58.8815,-65.9088 L 58.5451,-66.4389 L 58.1448,-66.9227 L 57.6871,-67.3526 L 57.1791,-67.7216 L 56.6289,-68.0241
 L 56.0451,-68.2553 L 55.4369,-68.4114 L 54.8139,-68.4901 L -54.8139,-68.4901 L -55.4369,-68.4114 L -56.0451,-68.2553
 L -56.6289,-68.0241 L -57.1791,-67.7216 L -57.6871,-67.3526 L -58.1448,-66.9227 L -58.5451,-66.4389 L -58.8815,-65.9088
 L -59.1489,-65.3406 L -59.3429,-64.7434 L -59.4606,-64.1267 L -59.5,-63.5 L -59.5,-48 L -55.0307,-48
 z
M -47.8982,-59.8267 L -47.8982,-63.1733 L -45,-64.8466 L -42.1018,-63.1733 L -42.1018,-59.8267 L -45,-58.1534
 z
M -17.8982,-59.8267 L -17.8982,-63.1733 L -15,-64.8466 L -12.1018,-63.1733 L -12.1018,-59.8267 L -15,-58.1534
 z
M 12.1018,-59.8267 L 12.1018,-63.1733 L 15,-64.8466 L 17.8982,-63.1733 L 17.8982,-59.8267 L 15,-58.1534
 z
M -32.8982,-59.8267 L -32.8982,-63.1733 L -30,-64.8466 L -27.1018,-63.1733 L -27.1018,-59.8267 L -30,-58.1534
 z
M 42.1018,-59.8267 L 42.1018,-63.1733 L 45,-64.8466 L 47.8982,-63.1733 L 47.8982,-59.8267 L 45,-58.1534
 z
M 29.5997,-59.1336 L 29.3063,-59.2024 L 29.0238,-59.3075 L 28.7567,-59.4471 L 28.5092,-59.6191 L 28.2853,-59.8208
 L 28.0883,-60.049 L 27.9215,-60.3 L 27.7875,-60.57 L 27.6884,-60.8546 L 27.6257,-61.1494 L 27.6005,-61.4497
 L 27.6131,-61.7509 L 27.6634,-62.048 L 27.7505,-62.3366 L 27.8731,-62.6119 L 28.0292,-62.8697 L 28.2164,-63.1059
 L 28.4318,-63.3168 L 28.6719,-63.499 L 28.9329,-63.6497 L 29.2107,-63.7665 L 29.501,-63.8475 L 29.7992,-63.8916
 L 30.1005,-63.8979 L 30.4002,-63.8664 L 30.6937,-63.7976 L 30.9762,-63.6925 L 31.2433,-63.5529 L 31.4908,-63.3809
 L 31.7147,-63.1792 L 31.9117,-62.951 L 32.0785,-62.7 L 32.2125,-62.43 L 32.3116,-62.1454 L 32.3743,-61.8506
 L 32.3995,-61.5502 L 32.3868,-61.2491 L 32.3366,-60.952 L 32.2495,-60.6634 L 32.1269,-60.3881 L 31.9707,-60.1303
 L 31.7835,-59.8941 L 31.5682,-59.6832 L 31.3281,-59.501 L 31.0671,-59.3503 L 30.7893,-59.2335 L 30.499,-59.1524
 L 30.2008,-59.1084 L 29.8995,-59.1021 z
M -0.400238,-59.1336 L -0.693665,-59.2024 L -0.976166,-59.3075 L -1.24326,-59.4471 L -1.49075,-59.6191 L -1.71472,-59.8208
 L -1.91167,-60.049 L -2.07846,-60.3 L -2.21246,-60.57 L -2.31158,-60.8546 L -2.37425,-61.1494 L -2.39946,-61.4497
 L -2.38684,-61.7509 L -2.33658,-62.048 L -2.24947,-62.3366 L -2.12688,-62.6119 L -1.97075,-62.8697 L -1.78354,-63.1059
 L -1.56821,-63.3168 L -1.32812,-63.499 L -1.06712,-63.6497 L -0.789276,-63.7665 L -0.498978,-63.8475 L -0.200821,-63.8916
 L 0.100494,-63.8979 L 0.400238,-63.8664 L 0.693665,-63.7976 L 0.976166,-63.6925 L 1.24326,-63.5529 L 1.49075,-63.3809
 L 1.71472,-63.1792 L 1.91167,-62.951 L 2.07846,-62.7 L 2.21246,-62.43 L 2.31158,-62.1454 L 2.37425,-61.8506
 L 2.39946,-61.5502 L 2.38684,-61.2491 L 2.33658,-60.952 L 2.24947,-60.6634 L 2.12688,-60.3881 L 1.97075,-60.1303
 L 1.78354,-59.8941 L 1.56821,-59.6832 L 1.32812,-59.501 L 1.06712,-59.3503 L 0.789276,-59.2335 L 0.498978,-59.1524
 L 0.200821,-59.1084 L -0.100494,-59.1021 z
M -55.0942,-27.6 L -57.8466,-27.6 L -57.8466,-33 L -55.0942,-33 L -55.0942,-36 L -55.1289,-36.0547
 L -55.2893,-36.3956 L -55.4057,-36.7539 L -55.4763,-37.124 L -55.5,-37.5 L -55.4763,-37.876 L -55.4057,-38.2461
 L -55.2893,-38.6044 L -55.1289,-38.9453 L -54.927,-39.2634 L -54.6869,-39.5536 L -54.4123,-39.8115 L -54.1075,-40.033
 L -53.7773,-40.2145 L -53.427,-40.3532 L -53.0621,-40.4469 L -52.6884,-40.4941 L -52.3116,-40.4941 L -51.9379,-40.4469
 L -51.5729,-40.3532 L -51.2227,-40.2145 L -50.8925,-40.033 L -50.5877,-39.8115 L -50.3131,-39.5536 L -50.0729,-39.2634
 L -49.8711,-38.9453 L -49.7107,-38.6044 L -49.5942,-38.2461 L -49.5237,-37.876 L -49.5,-37.5 L -49.5237,-37.124
 L -49.5942,-36.7539 L -49.7107,-36.3956 L -49.8711,-36.0547 L -49.9058,-36 L -49.9058,-33 L -47.1534,-33
 L -47.1534,-27.6 L -49.9058,-27.6 L -49.9058,-24 L -40.0942,-24 L -40.0942,-27.6 L -42.8466,-27.6
 L -42.8466,-33 L -40.0942,-33 L -40.0942,-36 L -40.1289,-36.0547 L -40.2893,-36.3956 L -40.4057,-36.7539
 L -40.4763,-37.124 L -40.5,-37.5 L -40.4763,-37.876 L -40.4057,-38.2461 L -40.2893,-38.6044 L -40.1289,-38.9453
 L -39.927,-39.2634 L -39.6869,-39.5536 L -39.4123,-39.8115 L -39.1075,-40.033 L -38.7773,-40.2145 L -38.427,-40.3532
 L -38.0621,-40.4469 L -37.6884,-40.4941 L -37.3116,-40.4941 L -36.9379,-40.4469 L -36.5729,-40.3532 L -36.2227,-40.2145
 L -35.8925,-40.033 L -35.5877,-39.8115 L -35.3131,-39.5536 L -35.0729,-39.2634 L -34.8711,-38.9453 L -34.7107,-38.6044
 L -34.5942,-38.2461 L -34.5237,-37.876 L -34.5,-37.5 L -34.5237,-37.124 L -34.5942,-36.7539 L -34.7107,-36.3956
 L -34.8711,-36.0547 L -34.9058,-36 L -34.9058,-33 L -32.1534,-33 L -32.1534,-27.6 L -34.9058,-27.6
 L -34.9058,-24 L -25.0942,-24 L -25.0942,-27.6 L -27.8466,-27.6 L -27.8466,-33 L -25.0942,-33
 L -25.0942,-36 L -25.1289,-36.0547 L -25.2893,-36.3956 L -25.4057,-36.7539 L -25.4763,-37.124 L -25.5,-37.5
 L -25.4763,-37.876 L -25.4057,-38.2461 L -25.2893,-38.6044 L -25.1289,-38.9453 L -24.927,-39.2634 L -24.6869,-39.5536
 L -24.4123,-39.8115 L -24.1075,-40.033 L -23.7773,-40.2145 L -23.427,-40.3532 L -23.0621,-40.4469 L -22.6884,-40.4941
 L -22.3116,-40.4941 L -21.9379,-40.4469 L -21.5729,-40.3532 L -21.2227,-40.2145 L -20.8925,-40.033 L -20.5877,-39.8115
 L -20.3131,-39.5536 L -20.0729,-39.2634 L -19.8711,-38.9453 L -19.7107,-38.6044 L -19.5942,-38.2461 L -19.5237,-37.876
 L -19.5,-37.5 L -19.5237,-37.124 L -19.5942,-36.7539 L -19.7107,-36.3956 L -19.8711,-36.0547 L -19.9058,-36
 L -19.9058,-33 L -17.1534,-33 L -17.1534,-27.6 L -19.9058,-27.6 L -19.9058,-24 L -10.0942,-24
 L -10.0942,-27.6 L -12.8466,-27.6 L -12.8466,-33 L -10.0942,-33 L -10.0942,-36 L -10.1289,-36.0547
 L -10.2893,-36.3956 L -10.4057,-36.7539 L -10.4763,-37.124 L -10.5,-37.5 L -10.4763,-37.876 L -10.4057,-38.2461
 L -10.2893,-38.6044 L -10.1289,-38.9453 L -9.92705,-39.2634 L -9.6869,-39.5536 L -9.41226,-39.8115 L -9.10747,-40.033
 L -8.77733,-40.2145 L -8.42705,-40.3532 L -8.06213,-40.4469 L -7.68837,-40.4941 L -7.31161,-40.4941 L -6.93785,-40.4469
 L -6.57294,-40.3532 L -6.22266,-40.2145 L -5.89252,-40.033 L -5.58772,-39.8115 L -5.31308,-39.5536 L -5.07294,-39.2634
 L -4.87108,-38.9453 L -4.71066,-38.6044 L -4.59424,-38.2461 L -4.52365,-37.876 L -4.5,-37.5 L -4.52365,-37.124
 L -4.59424,-36.7539 L -4.71066,-36.3956 L -4.87108,-36.0547 L -4.90581,-36 L -4.90581,-33 L -2.15337,-33
 L -2.15337,-27.6 L -4.90581,-27.6 L -4.90581,-24 L 4.90581,-24 L 4.90581,-27.6 L 2.15337,-27.6
 L 2.15337,-33 L 4.90581,-33 L 4.90581,-36 L 4.87108,-36.0547 L 4.71066,-36.3956 L 4.59424,-36.7539
 L 4.52365,-37.124 L 4.5,-37.5 L 4.52365,-37.876 L 4.59424,-38.2461 L 4.71066,-38.6044 L 4.87108,-38.9453
 L 5.07294,-39.2634 L 5.31308,-39.5536 L 5.58772,-39.8115 L 5.89252,-40.033 L 6.22266,-40.2145 L 6.57294,-40.3532
 L 6.93785,-40.4469 L 7.31161,-40.4941 L 7.68837,-40.4941 L 8.06213,-40.4469 L 8.42705,-40.3532 L 8.77733,-40.2145
 L 9.10747,-40.033 L 9.41226,-39.8115 L 9.6869,-39.5536 L 9.92705,-39.2634 L 10.1289,-38.9453 L 10.2893,-38.6044
 L 10.4057,-38.2461 L 10.4763,-37.876 L 10.5,-37.5 L 10.4763,-37.124 L 10.4057,-36.7539 L 10.2893,-36.3956
 L 10.1289,-36.0547 L 10.0942,-36 L 10.0942,-33 L 12.8466,-33 L 12.8466,-27.6 L 10.0942,-27.6
 L 10.0942,-24 L 19.9058,-24 L 19.9058,-27.6 L 17.1534,-27.6 L 17.1534,-33 L 19.9058,-33
 L 19.9058,-36 L 19.8711,-36.0547 L 19.7107,-36.3956 L 19.5942,-36.7539 L 19.5237,-37.124 L 19.5,-37.5
 L 19.5237,-37.876 L 19.5942,-38.2461 L 19.7107,-38.6044 L 19.8711,-38.9453 L 20.0729,-39.2634 L 20.3131,-39.5536
 L 20.5877,-39.8115 L 20.8925,-40.033 L 21.2227,-40.2145 L 21.5729,-40.3532 L 21.9379,-40.4469 L 22.3116,-40.4941
 L 22.6884,-40.4941 L 23.0621,-40.4469 L 23.427,-40.3532 L 23.7773,-40.2145 L 24.1075,-40.033 L 24.4123,-39.8115
 L 24.6869,-39.5536 L 24.927,-39.2634 L 25.1289,-38.9453 L 25.2893,-38.6044 L 25.4057,-38.2461 L 25.4763,-37.876
 L 25.5,-37.5 L 25.4763,-37.124 L 25.4057,-36.7539 L 25.2893,-36.3956 L 25.1289,-36.0547 L 25.0942,-36
 L 25.0942,-33 L 27.8466,-33 L 27.8466,-27.6 L 25.0942,-27.6 L 25.0942,-24 L 34.9058,-24
 L 34.9058,-27.6 L 32.1534,-27.6 L 32.1534,-33 L 34.9058,-33 L 34.9058,-36 L 34.8711,-36.0547
 L 34.7107,-36.3956 L 34.5942,-36.7539 L 34.5237,-37.124 L 34.5,-37.5 L 34.5237,-37.876 L 34.5942,-38.2461
 L 34.7107,-38.6044 L 34.8711,-38.9453 L 35.0729,-39.2634 L 35.3131,-39.5536 L 35.5877,-39.8115 L 35.8925,-40.033
 L 36.2227,-40.2145 L 36.5729,-40.3532 L 36.9379,-40.4469 L 37.3116,-40.4941 L 37.6884,-40.4941 L 38.0621,-40.4469
 L 38.427,-40.3532 L 38.7773,-40.2145 L 39.1075,-40.033 L 39.4123,-39.8115 L 39.6869,-39.5536 L 39.927,-39.2634
 L 40.1289,-38.9453 L 40.2893,-38.6044 L 40.4057,-38.2461 L 40.4763,-37.876 L 40.5,-37.5 L 40.4763,-37.124
 L 40.4057,-36.7539 L 40.2893,-36.3956 L 40.1289,-36.0547 L 40.0942,-36 L 40.0942,-33 L 42.8466,-33
 L 42.8466,-27.6 L 40.0942,-27.6 L 40.0942,-24 L 49.9058,-24 L 49.9058,-27.6 L 47.1534,-27.6
 L 47.1534,-33 L 49.9058,-33 L 49.9058,-36 L 49.8711,-36.0547 L 49.7107,-36.3956 L 49.5942,-36.7539
 L 49.5237,-37.124 L 49.5,-37.5 L 49.5237,-37.876 L 49.5942,-38.2461 L 49.7107,-38.6044 L 49.8711,-38.9453
 L 50.0729,-39.2634 L 50.3131,-39.5536 L 50.5877,-39.8115 L 50.8925,-40.033 L 51.2227,-40.2145 L 51.5729,-40.3532
 L 51.9379,-40.4469 L 52.3116,-40.4941 L 52.6884,-40.4941 L 53.0621,-40.4469 L 53.427,-40.3532 L 53.7773,-40.2145
 L 54.1075,-40.033 L 54.4123,-39.8115 L 54.6869,-39.5536 L 54.927,-39.2634 L 55.1289,-38.9453 L 55.2893,-38.6044
 L 55.4057,-38.2461 L 55.4763,-37.876 L 55.5,-37.5 L 55.4763,-37.124 L 55.4057,-36.7539 L 55.2893,-36.3956
 L 55.1289,-36.0547 L 55.0942,-36 L 55.0942,-33 L 57.8466,-33 L 57.8466,-27.6 L 55.0942,-27.6
 L 55.0942,-24 L 59.5,-24 L 59.5,-39.5 L 59.4606,-40.1267 L 59.3429,-40.7434 L 59.1489,-41.3406
 L 58.8815,-41.9088 L 58.5451,-42.4389 L 58.1448,-42.9227 L 57.6871,-43.3526 L 57.1791,-43.7216 L 56.6289,-44.0241
 L 56.0451,-44.2553 L 55.4369,-44.4114 L 54.8139,-44.4901 L -54.8139,-44.4901 L -55.4369,-44.4114 L -56.0451,-44.2553
 L -56.6289,-44.0241 L -57.1791,-43.7216 L -57.6871,-43.3526 L -58.1448,-42.9227 L -58.5451,-42.4389 L -58.8815,-41.9088
 L -59.1489,-41.3406 L -59.3429,-40.7434 L -59.4606,-40.1267 L -59.5,-39.5 L -59.5,-24 L -55.0942,-24
 z
M 12.1018,-35.8267 L 12.1018,-39.1733 L 15,-40.8466 L 17.8982,-39.1733 L 17.8982,-35.8267 L 15,-34.1534
 z
M 42.1018,-35.8267 L 42.1018,-39.1733 L 45,-40.8466 L 47.8982,-39.1733 L 47.8982,-35.8267 L 45,-34.1534
 z
M -47.8982,-35.8267 L -47.8982,-39.1733 L -45,-40.8466 L -42.1018,-39.1733 L -42.1018,-35.8267 L -45,-34.1534
 z
M -17.8982,-35.8267 L -17.8982,-39.1733 L -15,-40.8466 L -12.1018,-39.1733 L -12.1018,-35.8267 L -15,-34.1534
 z
M -32.8982,-35.8267 L -32.8982,-39.1733 L -30,-40.8466 L -27.1018,-39.1733 L -27.1018,-35.8267 L -30,-34.1534
 z
M 59.5,-15.5 L 59.4606,-16.1267 L 59.3429,-16.7434 L 59.1489,-17.3406 L 58.8815,-17.9088 L 58.5451,-18.4389
 L 58.1448,-18.9227 L 57.6871,-19.3526 L 57.1791,-19.7216 L 56.6289,-20.0241 L 56.0451,-20.2553 L 55.4369,-20.4114
 L 54.8139,-20.4901 L -54.8139,-20.4901 L -55.4369,-20.4114 L -56.0451,-20.2553 L -56.6289,-20.0241 L -57.1791,-19.7216
 L -57.6871,-19.3526 L -58.1448,-18.9227 L -58.5451,-18.4389 L -58.8815,-17.9088 L -59.1489,-17.3406 L -59.3429,-16.7434
 L -59.4606,-16.1267 L -59.5,-15.5 L -59.5,-0 L 59.5,-0 z
M 27.1018,-11.8267 L 27.1018,-15.1733 L 30,-16.8466 L 32.8982,-15.1733 L 32.8982,-11.8267 L 30,-10.1534
 z
M -2.89822,-11.8267 L -2.89822,-15.1733 L 0,-16.8466 L 2.89822,-15.1733 L 2.89822,-11.8267 L 0,-10.1534
 z
M 52.3116,-10.5059 L 51.9379,-10.5531 L 51.5729,-10.6468 L 51.2227,-10.7855 L 50.8925,-10.967 L 50.5877,-11.1884
 L 50.3131,-11.4464 L 50.0729,-11.7366 L 49.8711,-12.0547 L 49.7107,-12.3956 L 49.5942,-12.7539 L 49.5237,-13.124
 L 49.5,-13.5 L 49.5237,-13.876 L 49.5942,-14.2461 L 49.7107,-14.6044 L 49.8711,-14.9453 L 50.0729,-15.2634
 L 50.3131,-15.5536 L 50.5877,-15.8115 L 50.8925,-16.033 L 51.2227,-16.2145 L 51.5729,-16.3532 L 51.9379,-16.4469
 L 52.3116,-16.4941 L 52.6884,-16.4941 L 53.0621,-16.4469 L 53.427,-16.3532 L 53.7773,-16.2145 L 54.1075,-16.033
 L 54.4123,-15.8115 L 54.6869,-15.5536 L 54.927,-15.2634 L 55.1289,-14.9453 L 55.2893,-14.6044 L 55.4057,-14.2461
 L 55.4763,-13.876 L 55.5,-13.5 L 55.4763,-13.124 L 55.4057,-12.7539 L 55.2893,-12.3956 L 55.1289,-12.0547
 L 54.927,-11.7366 L 54.6869,-11.4464 L 54.4123,-11.1884 L 54.1075,-10.967 L 53.7773,-10.7855 L 53.427,-10.6468
 L 53.0621,-10.5531 L 52.6884,-10.5059 z
M -22.6884,-10.5059 L -23.0621,-10.5531 L -23.427,-10.6468 L -23.7773,-10.7855 L -24.1075,-10.967 L -24.4123,-11.1884
 L -24.6869,-11.4464 L -24.927,-11.7366 L -25.1289,-12.0547 L -25.2893,-12.3956 L -25.4057,-12.7539 L -25.4763,-13.124
 L -25.5,-13.5 L -25.4763,-13.876 L -25.4057,-14.2461 L -25.2893,-14.6044 L -25.1289,-14.9453 L -24.927,-15.2634
 L -24.6869,-15.5536 L -24.4123,-15.8115 L -24.1075,-16.033 L -23.7773,-16.2145 L -23.427,-16.3532 L -23.0621,-16.4469
 L -22.6884,-16.4941 L -22.3116,-16.4941 L -21.9379,-16.4469 L -21.5729,-16.3532 L -21.2227,-16.2145 L -20.8925,-16.033
 L -20.5877,-15.8115 L -20.3131,-15.5536 L -20.0729,-15.2634 L -19.8711,-14.9453 L -19.7107,-14.6044 L -19.5942,-14.2461
 L -19.5237,-13.876 L -19.5,-13.5 L -19.5237,-13.124 L -19.5942,-12.7539 L -19.7107,-12.3956 L -19.8711,-12.0547
 L -20.0729,-11.7366 L -20.3131,-11.4464 L -20.5877,-11.1884 L -20.8925,-10.967 L -21.2227,-10.7855 L -21.5729,-10.6468
 L -21.9379,-10.5531 L -22.3116,-10.5059 z
M -7.68837,-10.5059 L -8.06213,-10.5531 L -8.42705,-10.6468 L -8.77733,-10.7855 L -9.10747,-10.967 L -9.41226,-11.1884
 L -9.6869,-11.4464 L -9.92705,-11.7366 L -10.1289,-12.0547 L -10.2893,-12.3956 L -10.4057,-12.7539 L -10.4763,-13.124
 L -10.5,-13.5 L -10.4763,-13.876 L -10.4057,-14.2461 L -10.2893,-14.6044 L -10.1289,-14.9453 L -9.92705,-15.2634
 L -9.6869,-15.5536 L -9.41226,-15.8115 L -9.10747,-16.033 L -8.77733,-16.2145 L -8.42705,-16.3532 L -8.06213,-16.4469
 L -7.68837,-16.4941 L -7.31161,-16.4941 L -6.93785,-16.4469 L -6.57294,-16.3532 L -6.22266,-16.2145 L -5.89252,-16.033
 L -5.58772,-15.8115 L -5.31308,-15.5536 L -5.07294,-15.2634 L -4.87108,-14.9453 L -4.71066,-14.6044 L -4.59424,-14.2461
 L -4.52365,-13.876 L -4.5,-13.5 L -4.52365,-13.124 L -4.59424,-12.7539 L -4.71066,-12.3956 L -4.87108,-12.0547
 L -5.07294,-11.7366 L -5.31308,-11.4464 L -5.58772,-11.1884 L -5.89252,-10.967 L -6.22266,-10.7855 L -6.57294,-10.6468
 L -6.93785,-10.5531 L -7.31161,-10.5059 z
M -37.6884,-10.5059 L -38.0621,-10.5531 L -38.427,-10.6468 L -38.7773,-10.7855 L -39.1075,-10.967 L -39.4123,-11.1884
 L -39.6869,-11.4464 L -39.927,-11.7366 L -40.1289,-12.0547 L -40.2893,-12.3956 L -40.4057,-12.7539 L -40.4763,-13.124
 L -40.5,-13.5 L -40.4763,-13.876 L -40.4057,-14.2461 L -40.2893,-14.6044 L -40.1289,-14.9453 L -39.927,-15.2634
 L -39.6869,-15.5536 L -39.4123,-15.8115 L -39.1075,-16.033 L -38.7773,-16.2145 L -38.427,-16.3532 L -38.0621,-16.4469
 L -37.6884,-16.4941 L -37.3116,-16.4941 L -36.9379,-16.4469 L -36.5729,-16.3532 L -36.2227,-16.2145 L -35.8925,-16.033
 L -35.5877,-15.8115 L -35.3131,-15.5536 L -35.0729,-15.2634 L -34.8711,-14.9453 L -34.7107,-14.6044 L -34.5942,-14.2461
 L -34.5237,-13.876 L -34.5,-13.5 L -34.5237,-13.124 L -34.5942,-12.7539 L -34.7107,-12.3956 L -34.8711,-12.0547
 L -35.0729,-11.7366 L -35.3131,-11.4464 L -35.5877,-11.1884 L -35.8925,-10.967 L -36.2227,-10.7855 L -36.5729,-10.6468
 L -36.9379,-10.5531 L -37.3116,-10.5059 z
M 7.31161,-10.5059 L 6.93785,-10.5531 L 6.57294,-10.6468 L 6.22266,-10.7855 L 5.89252,-10.967 L 5.58772,-11.1884
 L 5.31308,-11.4464 L 5.07294,-11.7366 L 4.87108,-12.0547 L 4.71066,-12.3956 L 4.59424,-12.7539 L 4.52365,-13.124
 L 4.5,-13.5 L 4.52365,-13.876 L 4.59424,-14.2461 L 4.71066,-14.6044 L 4.87108,-14.9453 L 5.07294,-15.2634
 L 5.31308,-15.5536 L 5.58772,-15.8115 L 5.89252,-16.033 L 6.22266,-16.2145 L 6.57294,-16.3532 L 6.93785,-16.4469
 L 7.31161,-16.4941 L 7.68837,-16.4941 L 8.06213,-16.4469 L 8.42705,-16.3532 L 8.77733,-16.2145 L 9.10747,-16.033
 L 9.41226,-15.8115 L 9.6869,-15.5536 L 9.92705,-15.2634 L 10.1289,-14.9453 L 10.2893,-14.6044 L 10.4057,-14.2461
 L 10.4763,-13.876 L 10.5,-13.5 L 10.4763,-13.124 L 10.4057,-12.7539 L 10.2893,-12.3956 L 10.1289,-12.0547
 L 9.92705,-11.7366 L 9.6869,-11.4464 L 9.41226,-11.1884 L 9.10747,-10.967 L 8.77733,-10.7855 L 8.42705,-10.6468
 L 8.06213,-10.5531 L 7.68837,-10.5059 z
M -52.6884,-10.5059 L -53.0621,-10.5531 L -53.427,-10.6468 L -53.7773,-10.7855 L -54.1075,-10.967 L -54.4123,-11.1884
 L -54.6869,-11.4464 L -54.927,-11.7366 L -55.1289,-12.0547 L -55.2893,-12.3956 L -55.4057,-12.7539 L -55.4763,-13.124
 L -55.5,-13.5 L -55.4763,-13.876 L -55.4057,-14.2461 L -55.2893,-14.6044 L -55.1289,-14.9453 L -54.927,-15.2634
 L -54.6869,-15.5536 L -54.4123,-15.8115 L -54.1075,-16.033 L -53.7773,-16.2145 L -53.427,-16.3532 L -53.0621,-16.4469
 L -52.6884,-16.4941 L -52.3116,-16.4941 L -51.9379,-16.4469 L -51.5729,-16.3532 L -51.2227,-16.2145 L -50.8925,-16.033
 L -50.5877,-15.8115 L -50.3131,-15.5536 L -50.0729,-15.2634 L -49.8711,-14.9453 L -49.7107,-14.6044 L -49.5942,-14.2461
 L -49.5237,-13.876 L -49.5,-13.5 L -49.5237,-13.124 L -49.5942,-12.7539 L -49.7107,-12.3956 L -49.8711,-12.0547
 L -50.0729,-11.7366 L -50.3131,-11.4464 L -50.5877,-11.1884 L -50.8925,-10.967 L -51.2227,-10.7855 L -51.5729,-10.6468
 L -51.9379,-10.5531 L -52.3116,-10.5059 z
M 37.3116,-10.5059 L 36.9379,-10.5531 L 36.5729,-10.6468 L 36.2227,-10.7855 L 35.8925,-10.967 L 35.5877,-11.1884
 L 35.3131,-11.4464 L 35.0729,-11.7366 L 34.8711,-12.0547 L 34.7107,-12.3956 L 34.5942,-12.7539 L 34.5237,-13.124
 L 34.5,-13.5 L 34.5237,-13.876 L 34.5942,-14.2461 L 34.7107,-14.6044 L 34.8711,-14.9453 L 35.0729,-15.2634
 L 35.3131,-15.5536 L 35.5877,-15.8115 L 35.8925,-16.033 L 36.2227,-16.2145 L 36.5729,-16.3532 L 36.9379,-16.4469
 L 37.3116,-16.4941 L 37.6884,-16.4941 L 38.0621,-16.4469 L 38.427,-16.3532 L 38.7773,-16.2145 L 39.1075,-16.033
 L 39.4123,-15.8115 L 39.6869,-15.5536 L 39.927,-15.2634 L 40.1289,-14.9453 L 40.2893,-14.6044 L 40.4057,-14.2461
 L 40.4763,-13.876 L 40.5,-13.5 L 40.4763,-13.124 L 40.4057,-12.7539 L 40.2893,-12.3956 L 40.1289,-12.0547
 L 39.927,-11.7366 L 39.6869,-11.4464 L 39.4123,-11.1884 L 39.1075,-10.967 L 38.7773,-10.7855 L 38.427,-10.6468
 L 38.0621,-10.5531 L 37.6884,-10.5059 z
M 22.3116,-10.5059 L 21.9379,-10.5531 L 21.5729,-10.6468 L 21.2227,-10.7855 L 20.8925,-10.967 L 20.5877,-11.1884
 L 20.3131,-11.4464 L 20.0729,-11.7366 L 19.8711,-12.0547 L 19.7107,-12.3956 L 19.5942,-12.7539 L 19.5237,-13.124
 L 19.5,-13.5 L 19.5237,-13.876 L 19.5942,-14.2461 L 19.7107,-14.6044 L 19.8711,-14.9453 L 20.0729,-15.2634
 L 20.3131,-15.5536 L 20.5877,-15.8115 L 20.8925,-16.033 L 21.2227,-16.2145 L 21.5729,-16.3532 L 21.9379,-16.4469
 L 22.3116,-16.4941 L 22.6884,-16.4941 L 23.0621,-16.4469 L 23.427,-16.3532 L 23.7773,-16.2145 L 24.1075,-16.033
 L 24.4123,-15.8115 L 24.6869,-15.5536 L 24.927,-15.2634 L 25.1289,-14.9453 L 25.2893,-14.6044 L 25.4057,-14.2461
 L 25.4763,-13.876 L 25.5,-13.5 L 25.4763,-13.124 L 25.4057,-12.7539 L 25.2893,-12.3956 L 25.1289,-12.0547
 L 24.927,-11.7366 L 24.6869,-11.4464 L 24.4123,-11.1884 L 24.1075,-10.967 L 23.7773,-10.7855 L 23.427,-10.6468
 L 23.0621,-10.5531 L 22.6884,-10.5059 z
M -30.4002,-11.1336 L -30.6937,-11.2024 L -30.9762,-11.3075 L -31.2433,-11.4471 L -31.4908,-11.6191 L -31.7147,-11.8208
 L -31.9117,-12.049 L -32.0785,-12.3 L -32.2125,-12.57 L -32.3116,-12.8546 L -32.3743,-13.1494 L -32.3995,-13.4497
 L -32.3868,-13.7509 L -32.3366,-14.048 L -32.2495,-14.3366 L -32.1269,-14.6119 L -31.9707,-14.8697 L -31.7835,-15.1059
 L -31.5682,-15.3168 L -31.3281,-15.499 L -31.0671,-15.6497 L -30.7893,-15.7665 L -30.499,-15.8475 L -30.2008,-15.8916
 L -29.8995,-15.8979 L -29.5997,-15.8664 L -29.3063,-15.7976 L -29.0238,-15.6925 L -28.7567,-15.5529 L -28.5092,-15.3809
 L -28.2853,-15.1792 L -28.0883,-14.951 L -27.9215,-14.7 L -27.7875,-14.43 L -27.6884,-14.1454 L -27.6257,-13.8506
 L -27.6005,-13.5502 L -27.6131,-13.2491 L -27.6634,-12.952 L -27.7505,-12.6634 L -27.8731,-12.3881 L -28.0292,-12.1303
 L -28.2164,-11.8941 L -28.4318,-11.6832 L -28.6719,-11.501 L -28.9329,-11.3503 L -29.2107,-11.2335 L -29.501,-11.1524
 L -29.7992,-11.1084 L -30.1005,-11.1021 z
M 44.5997,-11.1336 L 44.3063,-11.2024 L 44.0238,-11.3075 L 43.7567,-11.4471 L 43.5092,-11.6191 L 43.2853,-11.8208
 L 43.0883,-12.049 L 42.9215,-12.3 L 42.7875,-12.57 L 42.6884,-12.8546 L 42.6257,-13.1494 L 42.6005,-13.4497
 L 42.6131,-13.7509 L 42.6634,-14.048 L 42.7505,-14.3366 L 42.8731,-14.6119 L 43.0292,-14.8697 L 43.2164,-15.1059
 L 43.4318,-15.3168 L 43.6719,-15.499 L 43.9329,-15.6497 L 44.2107,-15.7665 L 44.501,-15.8475 L 44.7992,-15.8916
 L 45.1005,-15.8979 L 45.4002,-15.8664 L 45.6937,-15.7976 L 45.9762,-15.6925 L 46.2433,-15.5529 L 46.4908,-15.3809
 L 46.7147,-15.1792 L 46.9117,-14.951 L 47.0785,-14.7 L 47.2125,-14.43 L 47.3116,-14.1454 L 47.3743,-13.8506
 L 47.3995,-13.5502 L 47.3868,-13.2491 L 47.3366,-12.952 L 47.2495,-12.6634 L 47.1269,-12.3881 L 46.9707,-12.1303
 L 46.7835,-11.8941 L 46.5682,-11.6832 L 46.3281,-11.501 L 46.0671,-11.3503 L 45.7893,-11.2335 L 45.499,-11.1524
 L 45.2008,-11.1084 L 44.8995,-11.1021 z
M -15.4002,-11.1336 L -15.6937,-11.2024 L -15.9762,-11.3075 L -16.2433,-11.4471 L -16.4908,-11.6191 L -16.7147,-11.8208
 L -16.9117,-12.049 L -17.0785,-12.3 L -17.2125,-12.57 L -17.3116,-12.8546 L -17.3743,-13.1494 L -17.3995,-13.4497
 L -17.3868,-13.7509 L -17.3366,-14.048 L -17.2495,-14.3366 L -17.1269,-14.6119 L -16.9707,-14.8697 L -16.7835,-15.1059
 L -16.5682,-15.3168 L -16.3281,-15.499 L -16.0671,-15.6497 L -15.7893,-15.7665 L -15.499,-15.8475 L -15.2008,-15.8916
 L -14.8995,-15.8979 L -14.5997,-15.8664 L -14.3063,-15.7976 L -14.0238,-15.6925 L -13.7567,-15.5529 L -13.5092,-15.3809
 L -13.2853,-15.1792 L -13.0883,-14.951 L -12.9215,-14.7 L -12.7875,-14.43 L -12.6884,-14.1454 L -12.6257,-13.8506
 L -12.6005,-13.5502 L -12.6131,-13.2491 L -12.6634,-12.952 L -12.7505,-12.6634 L -12.8731,-12.3881 L -13.0292,-12.1303
 L -13.2164,-11.8941 L -13.4318,-11.6832 L -13.6719,-11.501 L -13.9329,-11.3503 L -14.2107,-11.2335 L -14.501,-11.1524
 L -14.7992,-11.1084 L -15.1005,-11.1021 z
M 14.5997,-11.1336 L 14.3063,-11.2024 L 14.0238,-11.3075 L 13.7567,-11.4471 L 13.5092,-11.6191 L 13.2853,-11.8208
 L 13.0883,-12.049 L 12.9215,-12.3 L 12.7875,-12.57 L 12.6884,-12.8546 L 12.6257,-13.1494 L 12.6005,-13.4497
 L 12.6131,-13.7509 L 12.6634,-14.048 L 12.7505,-14.3366 L 12.8731,-14.6119 L 13.0292,-14.8697 L 13.2164,-15.1059
 L 13.4318,-15.3168 L 13.6719,-15.499 L 13.9329,-15.6497 L 14.2107,-15.7665 L 14.501,-15.8475 L 14.7992,-15.8916
 L 15.1005,-15.8979 L 15.4002,-15.8664 L 15.6937,-15.7976 L 15.9762,-15.6925 L 16.2433,-15.5529 L 16.4908,-15.3809
 L 16.7147,-15.1792 L 16.9117,-14.951 L 17.0785,-14.7 L 17.2125,-14.43 L 17.3116,-14.1454 L 17.3743,-13.8506
 L 17.3995,-13.5502 L 17.3868,-13.2491 L 17.3366,-12.952 L 17.2495,-12.6634 L 17.1269,-12.3881 L 16.9707,-12.1303
 L 16.7835,-11.8941 L 16.5682,-11.6832 L 16.3281,-11.501 L 16.0671,-11.3503 L 15.7893,-11.2335 L 15.499,-11.1524
 L 15.2008,-11.1084 L 14.8995,-11.1021 z
M -45.4002,-11.1336 L -45.6937,-11.2024 L -45.9762,-11.3075 L -46.2433,-11.4471 L -46.4908,-11.6191 L -46.7147,-11.8208
 L -46.9117,-12.049 L -47.0785,-12.3 L -47.2125,-12.57 L -47.3116,-12.8546 L -47.3743,-13.1494 L -47.3995,-13.4497
 L -47.3868,-13.7509 L -47.3366,-14.048 L -47.2495,-14.3366 L -47.1269,-14.6119 L -46.9707,-14.8697 L -46.7835,-15.1059
 L -46.5682,-15.3168 L -46.3281,-15.499 L -46.0671,-15.6497 L -45.7893,-15.7665 L -45.499,-15.8475 L -45.2008,-15.8916
 L -44.8995,-15.8979 L -44.5997,-15.8664 L -44.3063,-15.7976 L -44.0238,-15.6925 L -43.7567,-15.5529 L -43.5092,-15.3809
 L -43.2853,-15.1792 L -43.0883,-14.951 L -42.9215,-14.7 L -42.7875,-14.43 L -42.6884,-14.1454 L -42.6257,-13.8506
 L -42.6005,-13.5502 L -42.6131,-13.2491 L -42.6634,-12.952 L -42.7505,-12.6634 L -42.8731,-12.3881 L -43.0292,-12.1303
 L -43.2164,-11.8941 L -43.4318,-11.6832 L -43.6719,-11.501 L -43.9329,-11.3503 L -44.2107,-11.2335 L -44.501,-11.1524
 L -44.7992,-11.1084 L -45.1005,-11.1021 z
M -12.8466,-3.59999 L -12.8466,-9 L -2.15337,-9 L -2.15337,-3.59999 z
M 2.15337,-3.59999 L 2.15337,-9 L 12.8466,-9 L 12.8466,-3.59999 z
M 32.1534,-3.59999 L 32.1534,-9 L 42.8466,-9 L 42.8466,-3.59999 z
M 47.1534,-3.59999 L 47.1534,-9 L 57.8466,-9 L 57.8466,-3.59999 z
M -42.8466,-3.59999 L -42.8466,-9 L -32.1534,-9 L -32.1534,-3.59999 z
M 17.1534,-3.59999 L 17.1534,-9 L 27.8466,-9 L 27.8466,-3.59999 z
M -57.8466,-3.59999 L -57.8466,-9 L -47.1534,-9 L -47.1534,-3.59999 z
M -27.8466,-3.59999 L -27.8466,-9 L -17.1534,-9 L -17.1534,-3.59999 z
" stroke="black" fill="lightgray" stroke-width="0.5"/>
</svg>
