<?xml version="1.0" standalone="no"?>
<!DOCTYPE svg PUBLIC "-//W3C//DTD SVG 1.1//EN" "http://www.w3.org/Graphics/SVG/1.1/DTD/svg11.dtd">
<svg width="38mm" height="69mm" viewBox="-19 -132 38 69" xmlns="http://www.w3.org/2000/svg" version="1.1">
<title>OpenSCAD Model</title>
<path d="
M 14.6869,-102.089 L 15.2951,-102.245 L 15.8789,-102.476 L 16.4291,-102.778 L 16.9371,-103.147 L 17.3948,-103.577
 L 17.7951,-104.061 L 18.1315,-104.591 L 18.3989,-105.159 L 18.5929,-105.757 L 18.7106,-106.373 L 18.75,-107
 L 18.75,-127 L 18.7106,-127.627 L 18.5929,-128.243 L 18.3989,-128.841 L 18.1315,-129.409 L 17.7951,-129.939
 L 17.3948,-130.423 L 16.9371,-130.853 L 16.4291,-131.222 L 15.8789,-131.524 L 15.2951,-131.755 L 14.6869,-131.911
 L 14.0639,-131.99 L -14.0639,-131.99 L -14.6869,-131.911 L -15.2951,-131.755 L -15.8789,-131.524 L -16.4291,-131.222
 L -16.9371,-130.853 L -17.3948,-130.423 L -17.7951,-129.939 L -18.1315,-129.409 L -18.3989,-128.841 L -18.5929,-128.243
 L -18.7106,-127.627 L -18.75,-127 L -18.75,-107 L -18.7106,-106.373 L -18.5929,-105.757 L -18.3989,-105.159
 L -18.1315,-104.591 L -17.7951,-104.061 L -17.3948,-103.577 L -16.9371,-103.147 L -16.4291,-102.778 L -15.8789,-102.476
 L -15.2951,-102.245 L -14.6869,-102.089 L -14.0639,-102.01 L 14.0639,-102.01 z
M -8.50392,-102.54 L -8.07086,-102.778 L -7.56287,-103.147 L -7.10515,-103.577 L -6.70491,-104.061 L -6.36845,-104.591
 L -6.1011,-105.159 L -5.90707,-105.757 L -5.78941,-106.373 L -5.75,-107 L -5.75,-110 L -5.78941,-110.627
 L -5.90707,-111.243 L -6.1011,-111.841 L -6.36845,-112.409 L -6.70491,-112.939 L -7.10515,-113.423 L -7.56287,-113.853
 L -8.07086,-114.222 L -8.62109,-114.524 L -9.20491,-114.755 L -9.81308,-114.911 L -10.436,-114.99 L -14.0639,-114.99
 L -14.6869,-114.911 L -15.2951,-114.755 L -15.8789,-114.524 L -16.4291,-114.222 L -16.9371,-113.853 L -17.3948,-113.423
 L -17.7951,-112.939 L -18.1315,-112.409 L -18.2185,-112.224 L -18.2185,-127 L -18.1833,-127.56 L -18.0782,-128.111
 L -17.9047,-128.645 L -17.6658,-129.153 L -17.3651,-129.627 L -17.0074,-130.059 L -16.5983,-130.443 L -16.1444,-130.773
 L -15.6526,-131.043 L -15.1308,-131.25 L -14.5873,-131.389 L -14.0306,-131.46 L 14.0306,-131.46 L 14.5873,-131.389
 L 15.1308,-131.25 L 15.6526,-131.043 L 16.1444,-130.773 L 16.5983,-130.443 L 17.0074,-130.059 L 17.3651,-129.627
 L 17.6658,-129.153 L 17.9047,-128.645 L 18.0782,-128.111 L 18.1833,-127.56 L 18.2185,-127 L 18.2185,-107
 L 18.1833,-106.44 L 18.0782,-105.889 L 17.9047,-105.355 L 17.6658,-104.847 L 17.3651,-104.373 L 17.0074,-103.941
 L 16.5983,-103.557 L 16.1444,-103.227 L 15.6526,-102.957 L 15.1308,-102.75 L 14.5873,-102.611 L 14.0306,-102.54
 z
M 11.7184,-122.044 L 12.0225,-122.122 L 12.3144,-122.238 L 12.5896,-122.389 L 12.8436,-122.574 L 13.0724,-122.789
 L 13.2725,-123.031 L 13.4408,-123.296 L 13.5744,-123.58 L 13.6714,-123.878 L 13.7303,-124.187 L 13.75,-124.5
 L 13.7303,-124.813 L 13.6714,-125.122 L 13.5744,-125.42 L 13.4408,-125.704 L 13.2725,-125.969 L 13.0724,-126.211
 L 12.8436,-126.426 L 12.5896,-126.611 L 12.3144,-126.762 L 12.0225,-126.878 L 11.7184,-126.956 L 11.407,-126.995
 L 11.093,-126.995 L 10.7815,-126.956 L 10.4774,-126.878 L 10.1855,-126.762 L 9.91043,-126.611 L 9.65643,-126.426
 L 9.42757,-126.211 L 9.22745,-125.969 L 9.05922,-125.704 L 8.92555,-125.42 L 8.82854,-125.122 L 8.7697,-124.813
 L 8.75,-124.5 L 8.7697,-124.187 L 8.82854,-123.878 L 8.92555,-123.58 L 9.05922,-123.296 L 9.22745,-123.031
 L 9.42757,-122.789 L 9.65643,-122.574 L 9.91043,-122.389 L 10.1855,-122.238 L 10.4774,-122.122 L 10.7815,-122.044
 L 11.093,-122.005 L 11.407,-122.005 z
M 11.1558,-123.003 L 10.9689,-123.027 L 10.7865,-123.073 L 10.6113,-123.143 L 10.4463,-123.234 L 10.2939,-123.344
 L 10.1565,-123.473 L 10.0365,-123.618 L 9.93553,-123.777 L 9.85533,-123.948 L 9.79712,-124.127 L 9.76183,-124.312
 L 9.75,-124.5 L 9.76183,-124.688 L 9.79712,-124.873 L 9.85533,-125.052 L 9.93553,-125.223 L 10.0365,-125.382
 L 10.1565,-125.527 L 10.2939,-125.656 L 10.4463,-125.766 L 10.6113,-125.857 L 10.7865,-125.927 L 10.9689,-125.973
 L 11.1558,-125.997 L 11.3442,-125.997 L 11.5311,-125.973 L 11.7135,-125.927 L 11.8887,-125.857 L 12.0537,-125.766
 L 12.2061,-125.656 L 12.3434,-125.527 L 12.4635,-125.382 L 12.5645,-125.223 L 12.6447,-125.052 L 12.7029,-124.873
 L 12.7382,-124.688 L 12.75,-124.5 L 12.7382,-124.312 L 12.7029,-124.127 L 12.6447,-123.948 L 12.5645,-123.777
 L 12.4635,-123.618 L 12.3434,-123.473 L 12.2061,-123.344 L 12.0537,-123.234 L 11.8887,-123.143 L 11.7135,-123.073
 L 11.5311,-123.027 L 11.3442,-123.003 z
M -11.3442,-108.003 L -11.5311,-108.027 L -11.7135,-108.073 L -11.8887,-108.143 L -12.0537,-108.234 L -12.2061,-108.344
 L -12.3434,-108.473 L -12.4635,-108.618 L -12.5645,-108.777 L -12.6447,-108.948 L -12.7029,-109.127 L -12.7382,-109.312
 L -12.75,-109.5 L -12.7382,-109.688 L -12.7029,-109.873 L -12.6447,-110.052 L -12.5645,-110.223 L -12.4635,-110.382
 L -12.3434,-110.527 L -12.2061,-110.656 L -12.0537,-110.766 L -11.8887,-110.857 L -11.7135,-110.927 L -11.5311,-110.973
 L -11.3442,-110.997 L -11.1558,-110.997 L -10.9689,-110.973 L -10.7865,-110.927 L -10.6113,-110.857 L -10.4463,-110.766
 L -10.2939,-110.656 L -10.1565,-110.527 L -10.0365,-110.382 L -9.93553,-110.223 L -9.85533,-110.052 L -9.79712,-109.873
 L -9.76183,-109.688 L -9.75,-109.5 L -9.76183,-109.312 L -9.79712,-109.127 L -9.85533,-108.948 L -9.93553,-108.777
 L -10.0365,-108.618 L -10.1565,-108.473 L -10.2939,-108.344 L -10.4463,-108.234 L -10.6113,-108.143 L -10.7865,-108.073
 L -10.9689,-108.027 L -11.1558,-108.003 z
M 14.6869,-63.0886 L 15.2951,-63.2447 L 15.8789,-63.4759 L 16.4291,-63.7784 L 16.9371,-64.1474 L 17.3948,-64.5773
 L 17.7951,-65.0611 L 18.1315,-65.5912 L 18.3989,-66.1594 L 18.5929,-66.7566 L 18.7106,-67.3733 L 18.75,-68
 L 18.75,-88 L 18.7106,-88.6267 L 18.5929,-89.2434 L 18.3989,-89.8406 L 18.1315,-90.4088 L 17.7951,-90.9389
 L 17.3948,-91.4227 L 16.9371,-91.8526 L 16.4291,-92.2216 L 15.8789,-92.5241 L 15.2951,-92.7553 L 14.6869,-92.9114
 L 14.0639,-92.9901 L -14.0639,-92.9901 L -14.6869,-92.9114 L -15.2951,-92.7553 L -15.8789,-92.5241 L -16.4291,-92.2216
 L -16.9371,-91.8526 L -17.3948,-91.4227 L -17.7951,-90.9389 L -18.1315,-90.4088 L -18.3989,-89.8406 L -18.5929,-89.2434
 L -18.7106,-88.6267 L -18.75,-88 L -18.75,-68 L -18.7106,-67.3733 L -18.5929,-66.7566 L -18.3989,-66.1594
 L -18.1315,-65.5912 L -17.7951,-65.0611 L -17.3948,-64.5773 L -16.9371,-64.1474 L -16.4291,-63.7784 L -15.8789,-63.4759
 L -15.2951,-63.2447 L -14.6869,-63.0886 L -14.0639,-63.0099 L 14.0639,-63.0099 z
M -6.62805,-65.1822 L -6.36845,-65.5912 L -6.1011,-66.1594 L -5.90707,-66.7566 L -5.78941,-67.3733 L -5.75,-68
 L -5.75,-71 L -5.78941,-71.6267 L -5.90707,-72.2435 L -6.1011,-72.8406 L -6.36845,-73.4088 L -6.70491,-73.9389
 L -7.10515,-74.4227 L -7.56287,-74.8526 L -8.07086,-75.2216 L -8.62109,-75.5241 L -9.20491,-75.7553 L -9.81308,-75.9114
 L -10.436,-75.9901 L -14.0639,-75.9901 L -14.6869,-75.9114 L -15.2951,-75.7553 L -15.8789,-75.5241 L -16.4291,-75.2216
 L -16.5734,-75.1168 L -16.5734,-88 L -16.5511,-88.3539 L -16.4847,-88.7021 L -16.3751,-89.0394 L -16.2242,-89.3602
 L -16.0342,-89.6595 L -15.8082,-89.9328 L -15.5497,-90.1755 L -15.2628,-90.3839 L -14.9521,-90.5547 L -14.6225,-90.6852
 L -14.2791,-90.7734 L -13.9273,-90.8178 L 6.62805,-90.8178 L 6.36845,-90.4088 L 6.1011,-89.8406 L 5.90707,-89.2434
 L 5.78941,-88.6267 L 5.75,-88 L 5.75,-85 L 5.78941,-84.3733 L 5.90707,-83.7565 L 6.1011,-83.1594
 L 6.36845,-82.5912 L 6.70491,-82.0611 L 7.10515,-81.5773 L 7.56287,-81.1474 L 8.07086,-80.7784 L 8.62109,-80.4759
 L 9.20491,-80.2447 L 9.81308,-80.0886 L 10.436,-80.0099 L 14.0639,-80.0099 L 14.6869,-80.0886 L 15.2951,-80.2447
 L 15.8789,-80.4759 L 16.4291,-80.7784 L 16.5734,-80.8832 L 16.5734,-68 L 16.5511,-67.6461 L 16.4847,-67.2979
 L 16.3751,-66.9606 L 16.2242,-66.6398 L 16.0342,-66.3405 L 15.8082,-66.0672 L 15.5497,-65.8245 L 15.2628,-65.6161
 L 14.9521,-65.4453 L 14.6225,-65.3148 L 14.2791,-65.2266 L 13.9273,-65.1822 z
M 11.0993,-83.1047 L 10.8003,-83.1425 L 10.5083,-83.2175 L 10.2281,-83.3284 L 9.964,-83.4736 L 9.72017,-83.6508
 L 9.50047,-83.8571 L 9.30835,-84.0893 L 9.14685,-84.3438 L 9.01852,-84.6165 L 8.9254,-84.9031 L 8.86891,-85.1992
 L 8.84999,-85.5 L 8.86891,-85.8008 L 8.9254,-86.0968 L 9.01852,-86.3835 L 9.14685,-86.6562 L 9.30835,-86.9107
 L 9.50047,-87.1429 L 9.72017,-87.3492 L 9.964,-87.5264 L 10.2281,-87.6716 L 10.5083,-87.7825 L 10.8003,-87.8575
 L 11.0993,-87.8953 L 11.4007,-87.8953 L 11.6997,-87.8575 L 11.9916,-87.7825 L 12.2719,-87.6716 L 12.536,-87.5264
 L 12.7798,-87.3492 L 12.9995,-87.1429 L 13.1916,-86.9107 L 13.3531,-86.6562 L 13.4815,-86.3835 L 13.5746,-86.0968
 L 13.6311,-85.8008 L 13.65,-85.5 L 13.6311,-85.1992 L 13.5746,-84.9031 L 13.4815,-84.6165 L 13.3531,-84.3438
 L 13.1916,-84.0893 L 12.9995,-83.8571 L 12.7798,-83.6508 L 12.536,-83.4736 L 12.2719,-83.3284 L 11.9916,-83.2175
 L 11.6997,-83.1425 L 11.4007,-83.1047 z
M -11.4007,-68.1047 L -11.6997,-68.1425 L -11.9916,-68.2175 L -12.2719,-68.3284 L -12.536,-68.4736 L -12.7798,-68.6508
 L -12.9995,-68.8571 L -13.1916,-69.0893 L -13.3531,-69.3438 L -13.4815,-69.6165 L -13.5746,-69.9032 L -13.6311,-70.1992
 L -13.65,-70.5 L -13.6311,-70.8008 L -13.5746,-71.0969 L -13.4815,-71.3835 L -13.3531,-71.6562 L -13.1916,-71.9107
 L -12.9995,-72.1429 L -12.7798,-72.3492 L -12.536,-72.5264 L -12.2719,-72.6716 L -11.9916,-72.7825 L -11.6997,-72.8575
 L -11.4007,-72.8953 L -11.0993,-72.8953 L -10.8003,-72.8575 L -10.5083,-72.7825 L -10.2281,-72.6716 L -9.964,-72.5264
 L -9.72017,-72.3492 L -9.50047,-72.1429 L -9.30835,-71.9107 L -9.14685,-71.6562 L -9.01852,-71.3835 L -8.9254,-71.0969
 L -8.86891,-70.8008 L -8.84999,-70.5 L -8.86891,-70.1992 L -8.9254,-69.9032 L -9.01852,-69.6165 L -9.14685,-69.3438
 L -9.30835,-69.0893 L -9.50047,-68.8571 L -9.72017,-68.6508 L -9.964,-68.4736 L -10.2281,-68.3284 L -10.5083,-68.2175
 L -10.8003,-68.1425 L -11.0993,-68.1047 z
" stroke="black" fill="lightgray" stroke-width="0.5"/>
</svg>
