solid OpenSCAD_Model
  facet normal 0.706408 0.0444601 -0.706408
    outer loop
      vertex 1.7 0 -1.9
      vertex 1.68659 0.213066 -1.9
      vertex 3.6 0 0
    endloop
  endfacet
  facet normal -0.706408 -0.0444601 -0.706408
    outer loop
      vertex -1.68659 -0.213066 -1.9
      vertex -3.6 0 0
      vertex -1.7 0 -1.9
    endloop
  endfacet
  facet normal 0.706407 -0.0444479 -0.706409
    outer loop
      vertex 3.57161 -0.4512 0
      vertex 1.68659 -0.213066 -1.9
      vertex 3.6 0 0
    endloop
  endfacet
  facet normal 0 -0.707803 -0.70641
    outer loop
      vertex -0.106744 -1.69664 -1.9
      vertex 0.226046 -3.5929 0
      vertex -0.226046 -3.5929 0
    endloop
  endfacet
  facet normal 0 -0.707803 -0.70641
    outer loop
      vertex 0.226046 -3.5929 0
      vertex -0.106744 -1.69664 -1.9
      vertex 0.106744 -1.69664 -1.9
    endloop
  endfacet
  facet normal -0.706407 0.0444479 -0.706409
    outer loop
      vertex -1.68659 0.213066 -1.9
      vertex -3.6 0 0
      vertex -3.57161 0.4512 0
    endloop
  endfacet
  facet normal 0.484528 -0.515965 -0.706408
    outer loop
      vertex 2.29473 -2.77385 0
      vertex 1.23925 -1.16373 -1.9
      vertex 2.62429 -2.46437 0
    endloop
  endfacet
  facet normal 0.176023 -0.685569 -0.706407
    outer loop
      vertex 0.674572 -3.53623 0
      vertex 0.525329 -1.6168 -1.9
      vertex 1.11246 -3.4238 0
    endloop
  endfacet
  facet normal -0.484528 -0.515965 -0.706408
    outer loop
      vertex -2.29473 -2.77385 0
      vertex -2.62429 -2.46437 0
      vertex -1.23925 -1.16373 -1.9
    endloop
  endfacet
  facet normal -0.484528 0.515965 -0.706408
    outer loop
      vertex -1.23925 1.16373 -1.9
      vertex -2.62429 2.46437 0
      vertex -2.29473 2.77385 0
    endloop
  endfacet
  facet normal -0.176023 0.685569 -0.706407
    outer loop
      vertex -0.525329 1.6168 -1.9
      vertex -1.11246 3.4238 0
      vertex -0.674572 3.53623 0
    endloop
  endfacet
  facet normal 0.545374 0.45117 -0.706408
    outer loop
      vertex 2.91246 2.11603 0
      vertex 1.23925 1.16373 -1.9
      vertex 2.62429 2.46437 0
    endloop
  endfacet
  facet normal 0.695268 0.132624 -0.706409
    outer loop
      vertex 3.57161 0.4512 0
      vertex 1.68659 0.213066 -1.9
      vertex 3.4869 0.895283 0
    endloop
  endfacet
  facet normal 0.597623 -0.379256 -0.706408
    outer loop
      vertex 2.91246 -2.11603 0
      vertex 1.37533 -0.999234 -1.9
      vertex 1.48972 -0.818981 -1.9
    endloop
  endfacet
  facet normal 0.640441 -0.30137 -0.706407
    outer loop
      vertex 3.1547 -1.73431 0
      vertex 1.48972 -0.818981 -1.9
      vertex 3.34719 -1.32525 0
    endloop
  endfacet
  facet normal -0.176023 -0.685569 -0.706407
    outer loop
      vertex -0.674572 -3.53623 0
      vertex -1.11246 -3.4238 0
      vertex -0.525329 -1.6168 -1.9
    endloop
  endfacet
  facet normal -0.545374 -0.45117 -0.706408
    outer loop
      vertex -2.62429 -2.46437 0
      vertex -2.91246 -2.11603 0
      vertex -1.23925 -1.16373 -1.9
    endloop
  endfacet
  facet normal -0.673161 0.218731 -0.706407
    outer loop
      vertex -1.58062 0.625812 -1.9
      vertex -3.4869 0.895283 0
      vertex -3.34719 1.32525 0
    endloop
  endfacet
  facet normal 0 0 1
    outer loop
      vertex 3.57161 0.4512 0
      vertex 3.57161 -0.4512 0
      vertex 3.6 0 0
    endloop
  endfacet
  facet normal 0 0 1
    outer loop
      vertex 3.4869 0.895283 0
      vertex 3.57161 -0.4512 0
      vertex 3.57161 0.4512 0
    endloop
  endfacet
  facet normal 0 0 1
    outer loop
      vertex 3.4869 0.895283 0
      vertex 3.4869 -0.895283 0
      vertex 3.57161 -0.4512 0
    endloop
  endfacet
  facet normal 0 0 1
    outer loop
      vertex 3.34719 1.32525 0
      vertex 3.4869 -0.895283 0
      vertex 3.4869 0.895283 0
    endloop
  endfacet
  facet normal 0 0 1
    outer loop
      vertex 3.34719 1.32525 0
      vertex 3.34719 -1.32525 0
      vertex 3.4869 -0.895283 0
    endloop
  endfacet
  facet normal 0 0 1
    outer loop
      vertex 3.1547 1.73431 0
      vertex 3.34719 -1.32525 0
      vertex 3.34719 1.32525 0
    endloop
  endfacet
  facet normal 0 0 1
    outer loop
      vertex 3.1547 1.73431 0
      vertex 3.1547 -1.73431 0
      vertex 3.34719 -1.32525 0
    endloop
  endfacet
  facet normal 0 0 1
    outer loop
      vertex 2.91246 2.11603 0
      vertex 3.1547 -1.73431 0
      vertex 3.1547 1.73431 0
    endloop
  endfacet
  facet normal 0 0 1
    outer loop
      vertex 2.91246 2.11603 0
      vertex 2.91246 -2.11603 0
      vertex 3.1547 -1.73431 0
    endloop
  endfacet
  facet normal 0 0 1
    outer loop
      vertex 2.62429 2.46437 0
      vertex 2.91246 -2.11603 0
      vertex 2.91246 2.11603 0
    endloop
  endfacet
  facet normal 0 0 1
    outer loop
      vertex 2.62429 2.46437 0
      vertex 2.62429 -2.46437 0
      vertex 2.91246 -2.11603 0
    endloop
  endfacet
  facet normal 0 0 1
    outer loop
      vertex 2.29473 2.77385 0
      vertex 2.62429 -2.46437 0
      vertex 2.62429 2.46437 0
    endloop
  endfacet
  facet normal 0 0 1
    outer loop
      vertex 2.29473 2.77385 0
      vertex 2.29473 -2.77385 0
      vertex 2.62429 -2.46437 0
    endloop
  endfacet
  facet normal 0 0 1
    outer loop
      vertex 1.92898 3.03958 0
      vertex 2.29473 -2.77385 0
      vertex 2.29473 2.77385 0
    endloop
  endfacet
  facet normal 0 0 1
    outer loop
      vertex 1.92898 3.03958 0
      vertex 1.92898 -3.03958 0
      vertex 2.29473 -2.77385 0
    endloop
  endfacet
  facet normal 0 0 1
    outer loop
      vertex 1.53281 3.25738 0
      vertex 1.92898 -3.03958 0
      vertex 1.92898 3.03958 0
    endloop
  endfacet
  facet normal 0 0 1
    outer loop
      vertex 1.53281 3.25738 0
      vertex 1.53281 -3.25738 0
      vertex 1.92898 -3.03958 0
    endloop
  endfacet
  facet normal 0 0 1
    outer loop
      vertex 1.11246 3.4238 0
      vertex 1.53281 -3.25738 0
      vertex 1.53281 3.25738 0
    endloop
  endfacet
  facet normal 0 0 1
    outer loop
      vertex 1.11246 3.4238 0
      vertex 1.11246 -3.4238 0
      vertex 1.53281 -3.25738 0
    endloop
  endfacet
  facet normal 0 0 1
    outer loop
      vertex 0.674572 3.53623 0
      vertex 1.11246 -3.4238 0
      vertex 1.11246 3.4238 0
    endloop
  endfacet
  facet normal 0 0 1
    outer loop
      vertex 0.674572 3.53623 0
      vertex 0.674572 -3.53623 0
      vertex 1.11246 -3.4238 0
    endloop
  endfacet
  facet normal 0 0 1
    outer loop
      vertex 0.226046 3.5929 0
      vertex 0.674572 -3.53623 0
      vertex 0.674572 3.53623 0
    endloop
  endfacet
  facet normal 0 0 1
    outer loop
      vertex 0.226046 3.5929 0
      vertex 0.226046 -3.5929 0
      vertex 0.674572 -3.53623 0
    endloop
  endfacet
  facet normal -0 0 1
    outer loop
      vertex -0.226046 3.5929 0
      vertex 0.226046 -3.5929 0
      vertex 0.226046 3.5929 0
    endloop
  endfacet
  facet normal 0 0 1
    outer loop
      vertex -0.226046 3.5929 0
      vertex -0.226046 -3.5929 0
      vertex 0.226046 -3.5929 0
    endloop
  endfacet
  facet normal -0 0 1
    outer loop
      vertex -0.674572 3.53623 0
      vertex -0.226046 -3.5929 0
      vertex -0.226046 3.5929 0
    endloop
  endfacet
  facet normal 0 0 1
    outer loop
      vertex -0.674572 3.53623 0
      vertex -0.674572 -3.53623 0
      vertex -0.226046 -3.5929 0
    endloop
  endfacet
  facet normal -0 0 1
    outer loop
      vertex -1.11246 3.4238 0
      vertex -0.674572 -3.53623 0
      vertex -0.674572 3.53623 0
    endloop
  endfacet
  facet normal 0 0 1
    outer loop
      vertex -1.11246 3.4238 0
      vertex -1.11246 -3.4238 0
      vertex -0.674572 -3.53623 0
    endloop
  endfacet
  facet normal -0 0 1
    outer loop
      vertex -1.53281 3.25738 0
      vertex -1.11246 -3.4238 0
      vertex -1.11246 3.4238 0
    endloop
  endfacet
  facet normal 0 0 1
    outer loop
      vertex -1.53281 3.25738 0
      vertex -1.53281 -3.25738 0
      vertex -1.11246 -3.4238 0
    endloop
  endfacet
  facet normal -0 0 1
    outer loop
      vertex -1.92898 3.03958 0
      vertex -1.53281 -3.25738 0
      vertex -1.53281 3.25738 0
    endloop
  endfacet
  facet normal 0 0 1
    outer loop
      vertex -1.92898 3.03958 0
      vertex -1.92898 -3.03958 0
      vertex -1.53281 -3.25738 0
    endloop
  endfacet
  facet normal -0 0 1
    outer loop
      vertex -2.29473 2.77385 0
      vertex -1.92898 -3.03958 0
      vertex -1.92898 3.03958 0
    endloop
  endfacet
  facet normal 0 0 1
    outer loop
      vertex -2.29473 2.77385 0
      vertex -2.29473 -2.77385 0
      vertex -1.92898 -3.03958 0
    endloop
  endfacet
  facet normal -0 0 1
    outer loop
      vertex -2.62429 2.46437 0
      vertex -2.29473 -2.77385 0
      vertex -2.29473 2.77385 0
    endloop
  endfacet
  facet normal 0 0 1
    outer loop
      vertex -2.62429 2.46437 0
      vertex -2.62429 -2.46437 0
      vertex -2.29473 -2.77385 0
    endloop
  endfacet
  facet normal -0 0 1
    outer loop
      vertex -2.91246 2.11603 0
      vertex -2.62429 -2.46437 0
      vertex -2.62429 2.46437 0
    endloop
  endfacet
  facet normal 0 0 1
    outer loop
      vertex -2.91246 2.11603 0
      vertex -2.91246 -2.11603 0
      vertex -2.62429 -2.46437 0
    endloop
  endfacet
  facet normal -0 0 1
    outer loop
      vertex -3.1547 1.73431 0
      vertex -2.91246 -2.11603 0
      vertex -2.91246 2.11603 0
    endloop
  endfacet
  facet normal 0 0 1
    outer loop
      vertex -3.1547 1.73431 0
      vertex -3.1547 -1.73431 0
      vertex -2.91246 -2.11603 0
    endloop
  endfacet
  facet normal -0 0 1
    outer loop
      vertex -3.34719 1.32525 0
      vertex -3.1547 -1.73431 0
      vertex -3.1547 1.73431 0
    endloop
  endfacet
  facet normal 0 0 1
    outer loop
      vertex -3.34719 1.32525 0
      vertex -3.34719 -1.32525 0
      vertex -3.1547 -1.73431 0
    endloop
  endfacet
  facet normal -0 0 1
    outer loop
      vertex -3.4869 0.895283 0
      vertex -3.34719 -1.32525 0
      vertex -3.34719 1.32525 0
    endloop
  endfacet
  facet normal 0 0 1
    outer loop
      vertex -3.4869 0.895283 0
      vertex -3.4869 -0.895283 0
      vertex -3.34719 -1.32525 0
    endloop
  endfacet
  facet normal -0 0 1
    outer loop
      vertex -3.57161 0.4512 0
      vertex -3.4869 -0.895283 0
      vertex -3.4869 0.895283 0
    endloop
  endfacet
  facet normal 0 0 1
    outer loop
      vertex -3.57161 0.4512 0
      vertex -3.57161 -0.4512 0
      vertex -3.4869 -0.895283 0
    endloop
  endfacet
  facet normal 0 -0 1
    outer loop
      vertex -3.57161 -0.4512 0
      vertex -3.57161 0.4512 0
      vertex -3.6 0 0
    endloop
  endfacet
  facet normal -0.64044 0.301373 -0.706407
    outer loop
      vertex -1.58062 0.625812 -1.9
      vertex -3.34719 1.32525 0
      vertex -1.48972 0.818981 -1.9
    endloop
  endfacet
  facet normal 0.0886886 0.702228 -0.706406
    outer loop
      vertex 0.318548 1.66989 -1.9
      vertex 0.106744 1.69664 -1.9
      vertex 0.674572 3.53623 0
    endloop
  endfacet
  facet normal 0.176023 0.685569 -0.706407
    outer loop
      vertex 1.11246 3.4238 0
      vertex 0.525329 1.6168 -1.9
      vertex 0.674572 3.53623 0
    endloop
  endfacet
  facet normal 0.484528 0.515965 -0.706408
    outer loop
      vertex 2.62429 2.46437 0
      vertex 1.23925 1.16373 -1.9
      vertex 2.29473 2.77385 0
    endloop
  endfacet
  facet normal 0.64044 0.301373 -0.706407
    outer loop
      vertex 1.58062 0.625812 -1.9
      vertex 1.48972 0.818981 -1.9
      vertex 3.34719 1.32525 0
    endloop
  endfacet
  facet normal 0.545377 0.451166 -0.706408
    outer loop
      vertex 1.37533 0.999234 -1.9
      vertex 1.23925 1.16373 -1.9
      vertex 2.91246 2.11603 0
    endloop
  endfacet
  facet normal 0.673161 0.218731 -0.706407
    outer loop
      vertex 3.4869 0.895283 0
      vertex 1.58062 0.625812 -1.9
      vertex 3.34719 1.32525 0
    endloop
  endfacet
  facet normal 0.706407 0.0444479 -0.706409
    outer loop
      vertex 3.6 0 0
      vertex 1.68659 0.213066 -1.9
      vertex 3.57161 0.4512 0
    endloop
  endfacet
  facet normal 0.597625 -0.379253 -0.706408
    outer loop
      vertex 2.91246 -2.11603 0
      vertex 1.48972 -0.818981 -1.9
      vertex 3.1547 -1.73431 0
    endloop
  endfacet
  facet normal 0.695268 -0.132624 -0.706409
    outer loop
      vertex 3.4869 -0.895283 0
      vertex 1.68659 -0.213066 -1.9
      vertex 3.57161 -0.4512 0
    endloop
  endfacet
  facet normal 0.69527 -0.132618 -0.706408
    outer loop
      vertex 3.4869 -0.895283 0
      vertex 1.64659 -0.422772 -1.9
      vertex 1.68659 -0.213066 -1.9
    endloop
  endfacet
  facet normal 0.545374 -0.45117 -0.706408
    outer loop
      vertex 2.62429 -2.46437 0
      vertex 1.23925 -1.16373 -1.9
      vertex 2.91246 -2.11603 0
    endloop
  endfacet
  facet normal 0.176017 -0.68557 -0.706407
    outer loop
      vertex 0.674572 -3.53623 0
      vertex 0.318548 -1.66989 -1.9
      vertex 0.525329 -1.6168 -1.9
    endloop
  endfacet
  facet normal 0.26056 -0.6581 -0.706408
    outer loop
      vertex 1.53281 -3.25738 0
      vertex 0.525329 -1.6168 -1.9
      vertex 0.723825 -1.53821 -1.9
    endloop
  endfacet
  facet normal 0.340992 -0.620252 -0.706408
    outer loop
      vertex 1.53281 -3.25738 0
      vertex 0.910905 -1.43536 -1.9
      vertex 1.92898 -3.03958 0
    endloop
  endfacet
  facet normal 0.0886886 -0.702228 -0.706406
    outer loop
      vertex 0.674572 -3.53623 0
      vertex 0.106744 -1.69664 -1.9
      vertex 0.318548 -1.66989 -1.9
    endloop
  endfacet
  facet normal -0.673161 -0.218731 -0.706407
    outer loop
      vertex -3.34719 -1.32525 0
      vertex -3.4869 -0.895283 0
      vertex -1.58062 -0.625812 -1.9
    endloop
  endfacet
  facet normal -0.673163 -0.218718 -0.706409
    outer loop
      vertex -1.58062 -0.625812 -1.9
      vertex -3.4869 -0.895283 0
      vertex -1.64659 -0.422772 -1.9
    endloop
  endfacet
  facet normal -0.416034 -0.572628 -0.706408
    outer loop
      vertex -1.92898 -3.03958 0
      vertex -2.29473 -2.77385 0
      vertex -0.910905 -1.43536 -1.9
    endloop
  endfacet
  facet normal -0.484513 -0.515977 -0.70641
    outer loop
      vertex -1.08362 -1.30987 -1.9
      vertex -2.29473 -2.77385 0
      vertex -1.23925 -1.16373 -1.9
    endloop
  endfacet
  facet normal -0.260549 -0.658106 -0.706407
    outer loop
      vertex -1.11246 -3.4238 0
      vertex -1.53281 -3.25738 0
      vertex -0.525329 -1.6168 -1.9
    endloop
  endfacet
  facet normal -0.640441 0.30137 -0.706407
    outer loop
      vertex -1.48972 0.818981 -1.9
      vertex -3.34719 1.32525 0
      vertex -3.1547 1.73431 0
    endloop
  endfacet
  facet normal -0.695268 0.132624 -0.706409
    outer loop
      vertex -1.68659 0.213066 -1.9
      vertex -3.57161 0.4512 0
      vertex -3.4869 0.895283 0
    endloop
  endfacet
  facet normal -0.545374 0.45117 -0.706408
    outer loop
      vertex -1.23925 1.16373 -1.9
      vertex -2.91246 2.11603 0
      vertex -2.62429 2.46437 0
    endloop
  endfacet
  facet normal -0.176017 0.68557 -0.706407
    outer loop
      vertex -0.525329 1.6168 -1.9
      vertex -0.674572 3.53623 0
      vertex -0.318548 1.66989 -1.9
    endloop
  endfacet
  facet normal -0.26056 0.6581 -0.706408
    outer loop
      vertex -0.723825 1.53821 -1.9
      vertex -1.53281 3.25738 0
      vertex -0.525329 1.6168 -1.9
    endloop
  endfacet
  facet normal -0.340992 0.620252 -0.706408
    outer loop
      vertex -0.910905 1.43536 -1.9
      vertex -1.92898 3.03958 0
      vertex -1.53281 3.25738 0
    endloop
  endfacet
  facet normal -0.0886886 0.702228 -0.706406
    outer loop
      vertex -0.318548 1.66989 -1.9
      vertex -0.674572 3.53623 0
      vertex -0.106744 1.69664 -1.9
    endloop
  endfacet
  facet normal 0.260549 0.658106 -0.706407
    outer loop
      vertex 1.53281 3.25738 0
      vertex 0.525329 1.6168 -1.9
      vertex 1.11246 3.4238 0
    endloop
  endfacet
  facet normal 0.0887236 0.702221 -0.706409
    outer loop
      vertex 0.674572 3.53623 0
      vertex 0.106744 1.69664 -1.9
      vertex 0.226046 3.5929 0
    endloop
  endfacet
  facet normal 0.26056 0.6581 -0.706408
    outer loop
      vertex 0.723825 1.53821 -1.9
      vertex 0.525329 1.6168 -1.9
      vertex 1.53281 3.25738 0
    endloop
  endfacet
  facet normal 0.340992 0.620252 -0.706408
    outer loop
      vertex 1.92898 3.03958 0
      vertex 0.910905 1.43536 -1.9
      vertex 1.53281 3.25738 0
    endloop
  endfacet
  facet normal 0.597623 0.379256 -0.706408
    outer loop
      vertex 1.48972 0.818981 -1.9
      vertex 1.37533 0.999234 -1.9
      vertex 2.91246 2.11603 0
    endloop
  endfacet
  facet normal 0.673163 0.218718 -0.706409
    outer loop
      vertex 1.64659 0.422772 -1.9
      vertex 1.58062 0.625812 -1.9
      vertex 3.4869 0.895283 0
    endloop
  endfacet
  facet normal 0.69527 0.132618 -0.706408
    outer loop
      vertex 1.68659 0.213066 -1.9
      vertex 1.64659 0.422772 -1.9
      vertex 3.4869 0.895283 0
    endloop
  endfacet
  facet normal 0.706408 -0.0444601 -0.706408
    outer loop
      vertex 3.6 0 0
      vertex 1.68659 -0.213066 -1.9
      vertex 1.7 0 -1.9
    endloop
  endfacet
  facet normal 0.673161 -0.218731 -0.706407
    outer loop
      vertex 3.34719 -1.32525 0
      vertex 1.58062 -0.625812 -1.9
      vertex 3.4869 -0.895283 0
    endloop
  endfacet
  facet normal 0.64044 -0.301373 -0.706407
    outer loop
      vertex 3.34719 -1.32525 0
      vertex 1.48972 -0.818981 -1.9
      vertex 1.58062 -0.625812 -1.9
    endloop
  endfacet
  facet normal 0.260549 -0.658106 -0.706407
    outer loop
      vertex 1.11246 -3.4238 0
      vertex 0.525329 -1.6168 -1.9
      vertex 1.53281 -3.25738 0
    endloop
  endfacet
  facet normal 0.416034 -0.572628 -0.706408
    outer loop
      vertex 1.92898 -3.03958 0
      vertex 0.910905 -1.43536 -1.9
      vertex 2.29473 -2.77385 0
    endloop
  endfacet
  facet normal 0.484513 -0.515977 -0.70641
    outer loop
      vertex 2.29473 -2.77385 0
      vertex 1.08362 -1.30987 -1.9
      vertex 1.23925 -1.16373 -1.9
    endloop
  endfacet
  facet normal 0.0887236 -0.702221 -0.706409
    outer loop
      vertex 0.226046 -3.5929 0
      vertex 0.106744 -1.69664 -1.9
      vertex 0.674572 -3.53623 0
    endloop
  endfacet
  facet normal -0.695268 -0.132624 -0.706409
    outer loop
      vertex -3.4869 -0.895283 0
      vertex -3.57161 -0.4512 0
      vertex -1.68659 -0.213066 -1.9
    endloop
  endfacet
  facet normal -0.706407 -0.0444479 -0.706409
    outer loop
      vertex -3.57161 -0.4512 0
      vertex -3.6 0 0
      vertex -1.68659 -0.213066 -1.9
    endloop
  endfacet
  facet normal -0.597625 -0.379253 -0.706408
    outer loop
      vertex -2.91246 -2.11603 0
      vertex -3.1547 -1.73431 0
      vertex -1.48972 -0.818981 -1.9
    endloop
  endfacet
  facet normal -0.64044 -0.301373 -0.706407
    outer loop
      vertex -1.48972 -0.818981 -1.9
      vertex -3.34719 -1.32525 0
      vertex -1.58062 -0.625812 -1.9
    endloop
  endfacet
  facet normal -0.340992 -0.620251 -0.706408
    outer loop
      vertex -0.723825 -1.53821 -1.9
      vertex -1.53281 -3.25738 0
      vertex -0.910905 -1.43536 -1.9
    endloop
  endfacet
  facet normal -0.340992 -0.620252 -0.706408
    outer loop
      vertex -1.53281 -3.25738 0
      vertex -1.92898 -3.03958 0
      vertex -0.910905 -1.43536 -1.9
    endloop
  endfacet
  facet normal -0.26056 -0.6581 -0.706408
    outer loop
      vertex -0.525329 -1.6168 -1.9
      vertex -1.53281 -3.25738 0
      vertex -0.723825 -1.53821 -1.9
    endloop
  endfacet
  facet normal -0.0886886 -0.702228 -0.706406
    outer loop
      vertex -0.106744 -1.69664 -1.9
      vertex -0.674572 -3.53623 0
      vertex -0.318548 -1.66989 -1.9
    endloop
  endfacet
  facet normal -0.0887236 -0.702221 -0.706409
    outer loop
      vertex -0.226046 -3.5929 0
      vertex -0.674572 -3.53623 0
      vertex -0.106744 -1.69664 -1.9
    endloop
  endfacet
  facet normal -0.706408 0.0444601 -0.706408
    outer loop
      vertex -1.7 0 -1.9
      vertex -3.6 0 0
      vertex -1.68659 0.213066 -1.9
    endloop
  endfacet
  facet normal -0.597625 0.379253 -0.706408
    outer loop
      vertex -1.48972 0.818981 -1.9
      vertex -3.1547 1.73431 0
      vertex -2.91246 2.11603 0
    endloop
  endfacet
  facet normal -0.597623 0.379256 -0.706408
    outer loop
      vertex -1.48972 0.818981 -1.9
      vertex -2.91246 2.11603 0
      vertex -1.37533 0.999234 -1.9
    endloop
  endfacet
  facet normal -0.260549 0.658106 -0.706407
    outer loop
      vertex -0.525329 1.6168 -1.9
      vertex -1.53281 3.25738 0
      vertex -1.11246 3.4238 0
    endloop
  endfacet
  facet normal -0.416034 0.572628 -0.706408
    outer loop
      vertex -0.910905 1.43536 -1.9
      vertex -2.29473 2.77385 0
      vertex -1.92898 3.03958 0
    endloop
  endfacet
  facet normal -0.484513 0.515977 -0.70641
    outer loop
      vertex -1.23925 1.16373 -1.9
      vertex -2.29473 2.77385 0
      vertex -1.08362 1.30987 -1.9
    endloop
  endfacet
  facet normal -0.0887236 0.702221 -0.706409
    outer loop
      vertex -0.106744 1.69664 -1.9
      vertex -0.674572 3.53623 0
      vertex -0.226046 3.5929 0
    endloop
  endfacet
  facet normal 0 0.707803 -0.70641
    outer loop
      vertex 0.106744 1.69664 -1.9
      vertex -0.226046 3.5929 0
      vertex 0.226046 3.5929 0
    endloop
  endfacet
  facet normal 0 0.707803 -0.70641
    outer loop
      vertex -0.226046 3.5929 0
      vertex 0.106744 1.69664 -1.9
      vertex -0.106744 1.69664 -1.9
    endloop
  endfacet
  facet normal 0.176017 0.68557 -0.706407
    outer loop
      vertex 0.525329 1.6168 -1.9
      vertex 0.318548 1.66989 -1.9
      vertex 0.674572 3.53623 0
    endloop
  endfacet
  facet normal 0.340992 0.620251 -0.706408
    outer loop
      vertex 0.910905 1.43536 -1.9
      vertex 0.723825 1.53821 -1.9
      vertex 1.53281 3.25738 0
    endloop
  endfacet
  facet normal 0.416034 0.572628 -0.706408
    outer loop
      vertex 2.29473 2.77385 0
      vertex 0.910905 1.43536 -1.9
      vertex 1.92898 3.03958 0
    endloop
  endfacet
  facet normal 0.597625 0.379253 -0.706408
    outer loop
      vertex 3.1547 1.73431 0
      vertex 1.48972 0.818981 -1.9
      vertex 2.91246 2.11603 0
    endloop
  endfacet
  facet normal 0.640441 0.30137 -0.706407
    outer loop
      vertex 3.34719 1.32525 0
      vertex 1.48972 0.818981 -1.9
      vertex 3.1547 1.73431 0
    endloop
  endfacet
  facet normal 0.673163 -0.218718 -0.706409
    outer loop
      vertex 3.4869 -0.895283 0
      vertex 1.58062 -0.625812 -1.9
      vertex 1.64659 -0.422772 -1.9
    endloop
  endfacet
  facet normal 0.545377 -0.451166 -0.706408
    outer loop
      vertex 2.91246 -2.11603 0
      vertex 1.23925 -1.16373 -1.9
      vertex 1.37533 -0.999234 -1.9
    endloop
  endfacet
  facet normal 0.416048 -0.572617 -0.70641
    outer loop
      vertex 2.29473 -2.77385 0
      vertex 0.910905 -1.43536 -1.9
      vertex 1.08362 -1.30987 -1.9
    endloop
  endfacet
  facet normal -0.69527 -0.132618 -0.706408
    outer loop
      vertex -1.64659 -0.422772 -1.9
      vertex -3.4869 -0.895283 0
      vertex -1.68659 -0.213066 -1.9
    endloop
  endfacet
  facet normal -0.545377 -0.451166 -0.706408
    outer loop
      vertex -1.23925 -1.16373 -1.9
      vertex -2.91246 -2.11603 0
      vertex -1.37533 -0.999234 -1.9
    endloop
  endfacet
  facet normal -0.597623 -0.379256 -0.706408
    outer loop
      vertex -1.37533 -0.999234 -1.9
      vertex -2.91246 -2.11603 0
      vertex -1.48972 -0.818981 -1.9
    endloop
  endfacet
  facet normal -0.640441 -0.30137 -0.706407
    outer loop
      vertex -3.1547 -1.73431 0
      vertex -3.34719 -1.32525 0
      vertex -1.48972 -0.818981 -1.9
    endloop
  endfacet
  facet normal -0.416048 -0.572617 -0.70641
    outer loop
      vertex -0.910905 -1.43536 -1.9
      vertex -2.29473 -2.77385 0
      vertex -1.08362 -1.30987 -1.9
    endloop
  endfacet
  facet normal -0.176017 -0.68557 -0.706407
    outer loop
      vertex -0.318548 -1.66989 -1.9
      vertex -0.674572 -3.53623 0
      vertex -0.525329 -1.6168 -1.9
    endloop
  endfacet
  facet normal -0.69527 0.132618 -0.706408
    outer loop
      vertex -1.68659 0.213066 -1.9
      vertex -3.4869 0.895283 0
      vertex -1.64659 0.422772 -1.9
    endloop
  endfacet
  facet normal -0.673163 0.218718 -0.706409
    outer loop
      vertex -1.64659 0.422772 -1.9
      vertex -3.4869 0.895283 0
      vertex -1.58062 0.625812 -1.9
    endloop
  endfacet
  facet normal -0.545377 0.451166 -0.706408
    outer loop
      vertex -1.37533 0.999234 -1.9
      vertex -2.91246 2.11603 0
      vertex -1.23925 1.16373 -1.9
    endloop
  endfacet
  facet normal -0.416048 0.572617 -0.70641
    outer loop
      vertex -1.08362 1.30987 -1.9
      vertex -2.29473 2.77385 0
      vertex -0.910905 1.43536 -1.9
    endloop
  endfacet
  facet normal 0.416048 0.572617 -0.70641
    outer loop
      vertex 1.08362 1.30987 -1.9
      vertex 0.910905 1.43536 -1.9
      vertex 2.29473 2.77385 0
    endloop
  endfacet
  facet normal 0.484513 0.515977 -0.70641
    outer loop
      vertex 1.23925 1.16373 -1.9
      vertex 1.08362 1.30987 -1.9
      vertex 2.29473 2.77385 0
    endloop
  endfacet
  facet normal 0.340992 -0.620251 -0.706408
    outer loop
      vertex 1.53281 -3.25738 0
      vertex 0.723825 -1.53821 -1.9
      vertex 0.910905 -1.43536 -1.9
    endloop
  endfacet
  facet normal -0.340992 0.620251 -0.706408
    outer loop
      vertex -0.910905 1.43536 -1.9
      vertex -1.53281 3.25738 0
      vertex -0.723825 1.53821 -1.9
    endloop
  endfacet
  facet normal 0.998025 0.062814 0
    outer loop
      vertex 1.7 0 -1.9
      vertex 1.68659 0.213066 -35
      vertex 1.68659 0.213066 -1.9
    endloop
  endfacet
  facet normal 0.998025 0.062814 0
    outer loop
      vertex 1.68659 0.213066 -35
      vertex 1.7 0 -1.9
      vertex 1.7 0 -35
    endloop
  endfacet
  facet normal -0.998025 0.062814 0
    outer loop
      vertex -1.7 0 -35
      vertex -1.68659 0.213066 -1.9
      vertex -1.68659 0.213066 -35
    endloop
  endfacet
  facet normal -0.998025 0.062814 0
    outer loop
      vertex -1.68659 0.213066 -1.9
      vertex -1.7 0 -35
      vertex -1.7 0 -1.9
    endloop
  endfacet
  facet normal 0 1 -0
    outer loop
      vertex 0.106744 1.69664 -35
      vertex -0.106744 1.69664 -1.9
      vertex 0.106744 1.69664 -1.9
    endloop
  endfacet
  facet normal 0 1 0
    outer loop
      vertex -0.106744 1.69664 -1.9
      vertex 0.106744 1.69664 -35
      vertex -0.106744 1.69664 -35
    endloop
  endfacet
  facet normal 0 -1 0
    outer loop
      vertex -0.106744 -1.69664 -35
      vertex 0.106744 -1.69664 -1.9
      vertex -0.106744 -1.69664 -1.9
    endloop
  endfacet
  facet normal 0 -1 -0
    outer loop
      vertex 0.106744 -1.69664 -1.9
      vertex -0.106744 -1.69664 -35
      vertex 0.106744 -1.69664 -35
    endloop
  endfacet
  facet normal 0.684531 0.728983 -0
    outer loop
      vertex 1.23925 1.16373 -35
      vertex 1.08362 1.30987 -1.9
      vertex 1.23925 1.16373 -1.9
    endloop
  endfacet
  facet normal 0.684531 0.728983 0
    outer loop
      vertex 1.08362 1.30987 -1.9
      vertex 1.23925 1.16373 -35
      vertex 1.08362 1.30987 -35
    endloop
  endfacet
  facet normal -0.684531 0.728983 0
    outer loop
      vertex -1.08362 1.30987 -35
      vertex -1.23925 1.16373 -1.9
      vertex -1.08362 1.30987 -1.9
    endloop
  endfacet
  facet normal -0.684531 0.728983 0
    outer loop
      vertex -1.23925 1.16373 -1.9
      vertex -1.08362 1.30987 -35
      vertex -1.23925 1.16373 -35
    endloop
  endfacet
  facet normal -0.368124 0.929777 0
    outer loop
      vertex -0.525329 1.6168 -35
      vertex -0.723825 1.53821 -1.9
      vertex -0.525329 1.6168 -1.9
    endloop
  endfacet
  facet normal -0.368124 0.929777 0
    outer loop
      vertex -0.723825 1.53821 -1.9
      vertex -0.525329 1.6168 -35
      vertex -0.723825 1.53821 -35
    endloop
  endfacet
  facet normal 0.904824 0.425785 0
    outer loop
      vertex 1.58062 0.625812 -1.9
      vertex 1.48972 0.818981 -35
      vertex 1.48972 0.818981 -1.9
    endloop
  endfacet
  facet normal 0.904824 0.425785 0
    outer loop
      vertex 1.48972 0.818981 -35
      vertex 1.58062 0.625812 -1.9
      vertex 1.58062 0.625812 -35
    endloop
  endfacet
  facet normal 0.368124 0.929777 -0
    outer loop
      vertex 0.723825 1.53821 -35
      vertex 0.525329 1.6168 -1.9
      vertex 0.723825 1.53821 -1.9
    endloop
  endfacet
  facet normal 0.368124 0.929777 0
    outer loop
      vertex 0.525329 1.6168 -1.9
      vertex 0.723825 1.53821 -35
      vertex 0.525329 1.6168 -35
    endloop
  endfacet
  facet normal 0.587801 0.809005 -0
    outer loop
      vertex 1.08362 1.30987 -35
      vertex 0.910905 1.43536 -1.9
      vertex 1.08362 1.30987 -1.9
    endloop
  endfacet
  facet normal 0.587801 0.809005 0
    outer loop
      vertex 0.910905 1.43536 -1.9
      vertex 1.08362 1.30987 -35
      vertex 0.910905 1.43536 -35
    endloop
  endfacet
  facet normal -0.904824 0.425785 0
    outer loop
      vertex -1.58062 0.625812 -35
      vertex -1.48972 0.818981 -1.9
      vertex -1.48972 0.818981 -35
    endloop
  endfacet
  facet normal -0.904824 0.425785 0
    outer loop
      vertex -1.48972 0.818981 -1.9
      vertex -1.58062 0.625812 -35
      vertex -1.58062 0.625812 -1.9
    endloop
  endfacet
  facet normal -0.481761 0.876303 0
    outer loop
      vertex -0.723825 1.53821 -35
      vertex -0.910905 1.43536 -1.9
      vertex -0.723825 1.53821 -1.9
    endloop
  endfacet
  facet normal -0.481761 0.876303 0
    outer loop
      vertex -0.910905 1.43536 -1.9
      vertex -0.723825 1.53821 -35
      vertex -0.910905 1.43536 -35
    endloop
  endfacet
  facet normal -0.24868 0.968586 0
    outer loop
      vertex -0.318548 1.66989 -35
      vertex -0.525329 1.6168 -1.9
      vertex -0.318548 1.66989 -1.9
    endloop
  endfacet
  facet normal -0.24868 0.968586 0
    outer loop
      vertex -0.525329 1.6168 -1.9
      vertex -0.318548 1.66989 -35
      vertex -0.525329 1.6168 -35
    endloop
  endfacet
  facet normal 0 0 -1
    outer loop
      vertex 1.68659 -0.213066 -35
      vertex 1.68659 0.213066 -35
      vertex 1.7 0 -35
    endloop
  endfacet
  facet normal 0 0 -1
    outer loop
      vertex 1.64659 -0.422772 -35
      vertex 1.68659 0.213066 -35
      vertex 1.68659 -0.213066 -35
    endloop
  endfacet
  facet normal 0 0 -1
    outer loop
      vertex 1.64659 -0.422772 -35
      vertex 1.64659 0.422772 -35
      vertex 1.68659 0.213066 -35
    endloop
  endfacet
  facet normal 0 0 -1
    outer loop
      vertex 1.58062 -0.625812 -35
      vertex 1.64659 0.422772 -35
      vertex 1.64659 -0.422772 -35
    endloop
  endfacet
  facet normal 0 0 -1
    outer loop
      vertex 1.58062 -0.625812 -35
      vertex 1.58062 0.625812 -35
      vertex 1.64659 0.422772 -35
    endloop
  endfacet
  facet normal 0 0 -1
    outer loop
      vertex 1.48972 -0.818981 -35
      vertex 1.58062 0.625812 -35
      vertex 1.58062 -0.625812 -35
    endloop
  endfacet
  facet normal 0 0 -1
    outer loop
      vertex 1.48972 -0.818981 -35
      vertex 1.48972 0.818981 -35
      vertex 1.58062 0.625812 -35
    endloop
  endfacet
  facet normal 0 0 -1
    outer loop
      vertex 1.37533 -0.999234 -35
      vertex 1.48972 0.818981 -35
      vertex 1.48972 -0.818981 -35
    endloop
  endfacet
  facet normal 0 0 -1
    outer loop
      vertex 1.37533 -0.999234 -35
      vertex 1.37533 0.999234 -35
      vertex 1.48972 0.818981 -35
    endloop
  endfacet
  facet normal 0 0 -1
    outer loop
      vertex 1.23925 -1.16373 -35
      vertex 1.37533 0.999234 -35
      vertex 1.37533 -0.999234 -35
    endloop
  endfacet
  facet normal 0 0 -1
    outer loop
      vertex 1.23925 -1.16373 -35
      vertex 1.23925 1.16373 -35
      vertex 1.37533 0.999234 -35
    endloop
  endfacet
  facet normal 0 0 -1
    outer loop
      vertex 1.08362 -1.30987 -35
      vertex 1.23925 1.16373 -35
      vertex 1.23925 -1.16373 -35
    endloop
  endfacet
  facet normal 0 0 -1
    outer loop
      vertex 1.08362 -1.30987 -35
      vertex 1.08362 1.30987 -35
      vertex 1.23925 1.16373 -35
    endloop
  endfacet
  facet normal 0 0 -1
    outer loop
      vertex 0.910905 -1.43536 -35
      vertex 1.08362 1.30987 -35
      vertex 1.08362 -1.30987 -35
    endloop
  endfacet
  facet normal 0 0 -1
    outer loop
      vertex 0.910905 -1.43536 -35
      vertex 0.910905 1.43536 -35
      vertex 1.08362 1.30987 -35
    endloop
  endfacet
  facet normal 0 0 -1
    outer loop
      vertex 0.723825 -1.53821 -35
      vertex 0.910905 1.43536 -35
      vertex 0.910905 -1.43536 -35
    endloop
  endfacet
  facet normal 0 0 -1
    outer loop
      vertex 0.723825 -1.53821 -35
      vertex 0.723825 1.53821 -35
      vertex 0.910905 1.43536 -35
    endloop
  endfacet
  facet normal 0 0 -1
    outer loop
      vertex 0.525329 -1.6168 -35
      vertex 0.723825 1.53821 -35
      vertex 0.723825 -1.53821 -35
    endloop
  endfacet
  facet normal 0 0 -1
    outer loop
      vertex 0.525329 -1.6168 -35
      vertex 0.525329 1.6168 -35
      vertex 0.723825 1.53821 -35
    endloop
  endfacet
  facet normal 0 0 -1
    outer loop
      vertex 0.318548 -1.66989 -35
      vertex 0.525329 1.6168 -35
      vertex 0.525329 -1.6168 -35
    endloop
  endfacet
  facet normal 0 0 -1
    outer loop
      vertex 0.318548 -1.66989 -35
      vertex 0.318548 1.66989 -35
      vertex 0.525329 1.6168 -35
    endloop
  endfacet
  facet normal 0 0 -1
    outer loop
      vertex 0.106744 -1.69664 -35
      vertex 0.318548 1.66989 -35
      vertex 0.318548 -1.66989 -35
    endloop
  endfacet
  facet normal 0 0 -1
    outer loop
      vertex 0.106744 -1.69664 -35
      vertex 0.106744 1.69664 -35
      vertex 0.318548 1.66989 -35
    endloop
  endfacet
  facet normal 0 0 -1
    outer loop
      vertex -0.106744 -1.69664 -35
      vertex 0.106744 1.69664 -35
      vertex 0.106744 -1.69664 -35
    endloop
  endfacet
  facet normal 0 0 -1
    outer loop
      vertex -0.106744 -1.69664 -35
      vertex -0.106744 1.69664 -35
      vertex 0.106744 1.69664 -35
    endloop
  endfacet
  facet normal 0 0 -1
    outer loop
      vertex -0.318548 -1.66989 -35
      vertex -0.106744 1.69664 -35
      vertex -0.106744 -1.69664 -35
    endloop
  endfacet
  facet normal 0 0 -1
    outer loop
      vertex -0.318548 -1.66989 -35
      vertex -0.318548 1.66989 -35
      vertex -0.106744 1.69664 -35
    endloop
  endfacet
  facet normal 0 0 -1
    outer loop
      vertex -0.525329 -1.6168 -35
      vertex -0.318548 1.66989 -35
      vertex -0.318548 -1.66989 -35
    endloop
  endfacet
  facet normal 0 0 -1
    outer loop
      vertex -0.525329 -1.6168 -35
      vertex -0.525329 1.6168 -35
      vertex -0.318548 1.66989 -35
    endloop
  endfacet
  facet normal 0 0 -1
    outer loop
      vertex -0.723825 -1.53821 -35
      vertex -0.525329 1.6168 -35
      vertex -0.525329 -1.6168 -35
    endloop
  endfacet
  facet normal 0 0 -1
    outer loop
      vertex -0.723825 -1.53821 -35
      vertex -0.723825 1.53821 -35
      vertex -0.525329 1.6168 -35
    endloop
  endfacet
  facet normal 0 0 -1
    outer loop
      vertex -0.910905 -1.43536 -35
      vertex -0.723825 1.53821 -35
      vertex -0.723825 -1.53821 -35
    endloop
  endfacet
  facet normal 0 0 -1
    outer loop
      vertex -0.910905 -1.43536 -35
      vertex -0.910905 1.43536 -35
      vertex -0.723825 1.53821 -35
    endloop
  endfacet
  facet normal 0 0 -1
    outer loop
      vertex -1.08362 -1.30987 -35
      vertex -0.910905 1.43536 -35
      vertex -0.910905 -1.43536 -35
    endloop
  endfacet
  facet normal 0 0 -1
    outer loop
      vertex -1.08362 -1.30987 -35
      vertex -1.08362 1.30987 -35
      vertex -0.910905 1.43536 -35
    endloop
  endfacet
  facet normal 0 0 -1
    outer loop
      vertex -1.23925 -1.16373 -35
      vertex -1.08362 1.30987 -35
      vertex -1.08362 -1.30987 -35
    endloop
  endfacet
  facet normal 0 0 -1
    outer loop
      vertex -1.23925 -1.16373 -35
      vertex -1.23925 1.16373 -35
      vertex -1.08362 1.30987 -35
    endloop
  endfacet
  facet normal 0 0 -1
    outer loop
      vertex -1.37533 -0.999234 -35
      vertex -1.23925 1.16373 -35
      vertex -1.23925 -1.16373 -35
    endloop
  endfacet
  facet normal 0 0 -1
    outer loop
      vertex -1.37533 -0.999234 -35
      vertex -1.37533 0.999234 -35
      vertex -1.23925 1.16373 -35
    endloop
  endfacet
  facet normal 0 0 -1
    outer loop
      vertex -1.48972 -0.818981 -35
      vertex -1.37533 0.999234 -35
      vertex -1.37533 -0.999234 -35
    endloop
  endfacet
  facet normal 0 0 -1
    outer loop
      vertex -1.48972 -0.818981 -35
      vertex -1.48972 0.818981 -35
      vertex -1.37533 0.999234 -35
    endloop
  endfacet
  facet normal 0 0 -1
    outer loop
      vertex -1.58062 -0.625812 -35
      vertex -1.48972 0.818981 -35
      vertex -1.48972 -0.818981 -35
    endloop
  endfacet
  facet normal 0 0 -1
    outer loop
      vertex -1.58062 -0.625812 -35
      vertex -1.58062 0.625812 -35
      vertex -1.48972 0.818981 -35
    endloop
  endfacet
  facet normal 0 0 -1
    outer loop
      vertex -1.64659 -0.422772 -35
      vertex -1.58062 0.625812 -35
      vertex -1.58062 -0.625812 -35
    endloop
  endfacet
  facet normal 0 0 -1
    outer loop
      vertex -1.64659 -0.422772 -35
      vertex -1.64659 0.422772 -35
      vertex -1.58062 0.625812 -35
    endloop
  endfacet
  facet normal 0 0 -1
    outer loop
      vertex -1.68659 -0.213066 -35
      vertex -1.64659 0.422772 -35
      vertex -1.64659 -0.422772 -35
    endloop
  endfacet
  facet normal 0 0 -1
    outer loop
      vertex -1.68659 -0.213066 -35
      vertex -1.68659 0.213066 -35
      vertex -1.64659 0.422772 -35
    endloop
  endfacet
  facet normal 0 -0 -1
    outer loop
      vertex -1.68659 0.213066 -35
      vertex -1.68659 -0.213066 -35
      vertex -1.7 0 -35
    endloop
  endfacet
  facet normal 0.951059 -0.30901 0
    outer loop
      vertex 1.58062 -0.625812 -1.9
      vertex 1.64659 -0.422772 -35
      vertex 1.64659 -0.422772 -1.9
    endloop
  endfacet
  facet normal 0.951059 -0.30901 0
    outer loop
      vertex 1.64659 -0.422772 -35
      vertex 1.58062 -0.625812 -1.9
      vertex 1.58062 -0.625812 -35
    endloop
  endfacet
  facet normal 0.951059 0.30901 0
    outer loop
      vertex 1.64659 0.422772 -1.9
      vertex 1.58062 0.625812 -35
      vertex 1.58062 0.625812 -1.9
    endloop
  endfacet
  facet normal 0.951059 0.30901 0
    outer loop
      vertex 1.58062 0.625812 -35
      vertex 1.64659 0.422772 -1.9
      vertex 1.64659 0.422772 -35
    endloop
  endfacet
  facet normal 0.98229 0.187365 0
    outer loop
      vertex 1.68659 0.213066 -1.9
      vertex 1.64659 0.422772 -35
      vertex 1.64659 0.422772 -1.9
    endloop
  endfacet
  facet normal 0.98229 0.187365 0
    outer loop
      vertex 1.64659 0.422772 -35
      vertex 1.68659 0.213066 -1.9
      vertex 1.68659 0.213066 -35
    endloop
  endfacet
  facet normal 0.77052 0.637416 0
    outer loop
      vertex 1.37533 0.999234 -1.9
      vertex 1.23925 1.16373 -35
      vertex 1.23925 1.16373 -1.9
    endloop
  endfacet
  facet normal 0.77052 0.637416 0
    outer loop
      vertex 1.23925 1.16373 -35
      vertex 1.37533 0.999234 -1.9
      vertex 1.37533 0.999234 -35
    endloop
  endfacet
  facet normal 0.844332 0.53582 0
    outer loop
      vertex 1.48972 0.818981 -1.9
      vertex 1.37533 0.999234 -35
      vertex 1.37533 0.999234 -1.9
    endloop
  endfacet
  facet normal 0.844332 0.53582 0
    outer loop
      vertex 1.37533 0.999234 -35
      vertex 1.48972 0.818981 -1.9
      vertex 1.48972 0.818981 -35
    endloop
  endfacet
  facet normal 0.24868 0.968586 -0
    outer loop
      vertex 0.525329 1.6168 -35
      vertex 0.318548 1.66989 -1.9
      vertex 0.525329 1.6168 -1.9
    endloop
  endfacet
  facet normal 0.24868 0.968586 0
    outer loop
      vertex 0.318548 1.66989 -1.9
      vertex 0.525329 1.6168 -35
      vertex 0.318548 1.66989 -35
    endloop
  endfacet
  facet normal 0.125301 0.992119 -0
    outer loop
      vertex 0.318548 1.66989 -35
      vertex 0.106744 1.69664 -1.9
      vertex 0.318548 1.66989 -1.9
    endloop
  endfacet
  facet normal 0.125301 0.992119 0
    outer loop
      vertex 0.106744 1.69664 -1.9
      vertex 0.318548 1.66989 -35
      vertex 0.106744 1.69664 -35
    endloop
  endfacet
  facet normal 0.481761 0.876303 -0
    outer loop
      vertex 0.910905 1.43536 -35
      vertex 0.723825 1.53821 -1.9
      vertex 0.910905 1.43536 -1.9
    endloop
  endfacet
  facet normal 0.481761 0.876303 0
    outer loop
      vertex 0.723825 1.53821 -1.9
      vertex 0.910905 1.43536 -35
      vertex 0.723825 1.53821 -35
    endloop
  endfacet
  facet normal -0.844332 0.53582 0
    outer loop
      vertex -1.48972 0.818981 -35
      vertex -1.37533 0.999234 -1.9
      vertex -1.37533 0.999234 -35
    endloop
  endfacet
  facet normal -0.844332 0.53582 0
    outer loop
      vertex -1.37533 0.999234 -1.9
      vertex -1.48972 0.818981 -35
      vertex -1.48972 0.818981 -1.9
    endloop
  endfacet
  facet normal -0.77052 0.637416 0
    outer loop
      vertex -1.37533 0.999234 -35
      vertex -1.23925 1.16373 -1.9
      vertex -1.23925 1.16373 -35
    endloop
  endfacet
  facet normal -0.77052 0.637416 0
    outer loop
      vertex -1.23925 1.16373 -1.9
      vertex -1.37533 0.999234 -35
      vertex -1.37533 0.999234 -1.9
    endloop
  endfacet
  facet normal -0.951059 0.30901 0
    outer loop
      vertex -1.64659 0.422772 -35
      vertex -1.58062 0.625812 -1.9
      vertex -1.58062 0.625812 -35
    endloop
  endfacet
  facet normal -0.951059 0.30901 0
    outer loop
      vertex -1.58062 0.625812 -1.9
      vertex -1.64659 0.422772 -35
      vertex -1.64659 0.422772 -1.9
    endloop
  endfacet
  facet normal -0.98229 0.187365 0
    outer loop
      vertex -1.68659 0.213066 -35
      vertex -1.64659 0.422772 -1.9
      vertex -1.64659 0.422772 -35
    endloop
  endfacet
  facet normal -0.98229 0.187365 0
    outer loop
      vertex -1.64659 0.422772 -1.9
      vertex -1.68659 0.213066 -35
      vertex -1.68659 0.213066 -1.9
    endloop
  endfacet
  facet normal -0.587801 0.809005 0
    outer loop
      vertex -0.910905 1.43536 -35
      vertex -1.08362 1.30987 -1.9
      vertex -0.910905 1.43536 -1.9
    endloop
  endfacet
  facet normal -0.587801 0.809005 0
    outer loop
      vertex -1.08362 1.30987 -1.9
      vertex -0.910905 1.43536 -35
      vertex -1.08362 1.30987 -35
    endloop
  endfacet
  facet normal -0.125301 0.992119 0
    outer loop
      vertex -0.106744 1.69664 -35
      vertex -0.318548 1.66989 -1.9
      vertex -0.106744 1.69664 -1.9
    endloop
  endfacet
  facet normal -0.125301 0.992119 0
    outer loop
      vertex -0.318548 1.66989 -1.9
      vertex -0.106744 1.69664 -35
      vertex -0.318548 1.66989 -35
    endloop
  endfacet
  facet normal -0.904824 -0.425785 0
    outer loop
      vertex -1.48972 -0.818981 -35
      vertex -1.58062 -0.625812 -1.9
      vertex -1.58062 -0.625812 -35
    endloop
  endfacet
  facet normal -0.904824 -0.425785 0
    outer loop
      vertex -1.58062 -0.625812 -1.9
      vertex -1.48972 -0.818981 -35
      vertex -1.48972 -0.818981 -1.9
    endloop
  endfacet
  facet normal -0.844332 -0.53582 0
    outer loop
      vertex -1.37533 -0.999234 -35
      vertex -1.48972 -0.818981 -1.9
      vertex -1.48972 -0.818981 -35
    endloop
  endfacet
  facet normal -0.844332 -0.53582 0
    outer loop
      vertex -1.48972 -0.818981 -1.9
      vertex -1.37533 -0.999234 -35
      vertex -1.37533 -0.999234 -1.9
    endloop
  endfacet
  facet normal 0.481761 -0.876303 0
    outer loop
      vertex 0.723825 -1.53821 -35
      vertex 0.910905 -1.43536 -1.9
      vertex 0.723825 -1.53821 -1.9
    endloop
  endfacet
  facet normal 0.481761 -0.876303 0
    outer loop
      vertex 0.910905 -1.43536 -1.9
      vertex 0.723825 -1.53821 -35
      vertex 0.910905 -1.43536 -35
    endloop
  endfacet
  facet normal 0.904824 -0.425785 0
    outer loop
      vertex 1.48972 -0.818981 -1.9
      vertex 1.58062 -0.625812 -35
      vertex 1.58062 -0.625812 -1.9
    endloop
  endfacet
  facet normal 0.904824 -0.425785 0
    outer loop
      vertex 1.58062 -0.625812 -35
      vertex 1.48972 -0.818981 -1.9
      vertex 1.48972 -0.818981 -35
    endloop
  endfacet
  facet normal -0.77052 -0.637416 0
    outer loop
      vertex -1.23925 -1.16373 -35
      vertex -1.37533 -0.999234 -1.9
      vertex -1.37533 -0.999234 -35
    endloop
  endfacet
  facet normal -0.77052 -0.637416 0
    outer loop
      vertex -1.37533 -0.999234 -1.9
      vertex -1.23925 -1.16373 -35
      vertex -1.23925 -1.16373 -1.9
    endloop
  endfacet
  facet normal -0.98229 -0.187365 0
    outer loop
      vertex -1.64659 -0.422772 -35
      vertex -1.68659 -0.213066 -1.9
      vertex -1.68659 -0.213066 -35
    endloop
  endfacet
  facet normal -0.98229 -0.187365 0
    outer loop
      vertex -1.68659 -0.213066 -1.9
      vertex -1.64659 -0.422772 -35
      vertex -1.64659 -0.422772 -1.9
    endloop
  endfacet
  facet normal -0.998025 -0.062814 0
    outer loop
      vertex -1.68659 -0.213066 -35
      vertex -1.7 0 -1.9
      vertex -1.7 0 -35
    endloop
  endfacet
  facet normal -0.998025 -0.062814 0
    outer loop
      vertex -1.7 0 -1.9
      vertex -1.68659 -0.213066 -35
      vertex -1.68659 -0.213066 -1.9
    endloop
  endfacet
  facet normal -0.951059 -0.30901 0
    outer loop
      vertex -1.58062 -0.625812 -35
      vertex -1.64659 -0.422772 -1.9
      vertex -1.64659 -0.422772 -35
    endloop
  endfacet
  facet normal -0.951059 -0.30901 0
    outer loop
      vertex -1.64659 -0.422772 -1.9
      vertex -1.58062 -0.625812 -35
      vertex -1.58062 -0.625812 -1.9
    endloop
  endfacet
  facet normal 0.368124 -0.929777 0
    outer loop
      vertex 0.525329 -1.6168 -35
      vertex 0.723825 -1.53821 -1.9
      vertex 0.525329 -1.6168 -1.9
    endloop
  endfacet
  facet normal 0.368124 -0.929777 0
    outer loop
      vertex 0.723825 -1.53821 -1.9
      vertex 0.525329 -1.6168 -35
      vertex 0.723825 -1.53821 -35
    endloop
  endfacet
  facet normal 0.24868 -0.968586 0
    outer loop
      vertex 0.318548 -1.66989 -35
      vertex 0.525329 -1.6168 -1.9
      vertex 0.318548 -1.66989 -1.9
    endloop
  endfacet
  facet normal 0.24868 -0.968586 0
    outer loop
      vertex 0.525329 -1.6168 -1.9
      vertex 0.318548 -1.66989 -35
      vertex 0.525329 -1.6168 -35
    endloop
  endfacet
  facet normal 0.125301 -0.992119 0
    outer loop
      vertex 0.106744 -1.69664 -35
      vertex 0.318548 -1.66989 -1.9
      vertex 0.106744 -1.69664 -1.9
    endloop
  endfacet
  facet normal 0.125301 -0.992119 0
    outer loop
      vertex 0.318548 -1.66989 -1.9
      vertex 0.106744 -1.69664 -35
      vertex 0.318548 -1.66989 -35
    endloop
  endfacet
  facet normal 0.587801 -0.809005 0
    outer loop
      vertex 0.910905 -1.43536 -35
      vertex 1.08362 -1.30987 -1.9
      vertex 0.910905 -1.43536 -1.9
    endloop
  endfacet
  facet normal 0.587801 -0.809005 0
    outer loop
      vertex 1.08362 -1.30987 -1.9
      vertex 0.910905 -1.43536 -35
      vertex 1.08362 -1.30987 -35
    endloop
  endfacet
  facet normal 0.98229 -0.187365 0
    outer loop
      vertex 1.64659 -0.422772 -1.9
      vertex 1.68659 -0.213066 -35
      vertex 1.68659 -0.213066 -1.9
    endloop
  endfacet
  facet normal 0.98229 -0.187365 0
    outer loop
      vertex 1.68659 -0.213066 -35
      vertex 1.64659 -0.422772 -1.9
      vertex 1.64659 -0.422772 -35
    endloop
  endfacet
  facet normal 0.998025 -0.062814 0
    outer loop
      vertex 1.68659 -0.213066 -1.9
      vertex 1.7 0 -35
      vertex 1.7 0 -1.9
    endloop
  endfacet
  facet normal 0.998025 -0.062814 0
    outer loop
      vertex 1.7 0 -35
      vertex 1.68659 -0.213066 -1.9
      vertex 1.68659 -0.213066 -35
    endloop
  endfacet
  facet normal -0.368124 -0.929777 0
    outer loop
      vertex -0.723825 -1.53821 -35
      vertex -0.525329 -1.6168 -1.9
      vertex -0.723825 -1.53821 -1.9
    endloop
  endfacet
  facet normal -0.368124 -0.929777 -0
    outer loop
      vertex -0.525329 -1.6168 -1.9
      vertex -0.723825 -1.53821 -35
      vertex -0.525329 -1.6168 -35
    endloop
  endfacet
  facet normal -0.24868 -0.968586 0
    outer loop
      vertex -0.525329 -1.6168 -35
      vertex -0.318548 -1.66989 -1.9
      vertex -0.525329 -1.6168 -1.9
    endloop
  endfacet
  facet normal -0.24868 -0.968586 -0
    outer loop
      vertex -0.318548 -1.66989 -1.9
      vertex -0.525329 -1.6168 -35
      vertex -0.318548 -1.66989 -35
    endloop
  endfacet
  facet normal 0.844332 -0.53582 0
    outer loop
      vertex 1.37533 -0.999234 -1.9
      vertex 1.48972 -0.818981 -35
      vertex 1.48972 -0.818981 -1.9
    endloop
  endfacet
  facet normal 0.844332 -0.53582 0
    outer loop
      vertex 1.48972 -0.818981 -35
      vertex 1.37533 -0.999234 -1.9
      vertex 1.37533 -0.999234 -35
    endloop
  endfacet
  facet normal 0.77052 -0.637416 0
    outer loop
      vertex 1.23925 -1.16373 -1.9
      vertex 1.37533 -0.999234 -35
      vertex 1.37533 -0.999234 -1.9
    endloop
  endfacet
  facet normal 0.77052 -0.637416 0
    outer loop
      vertex 1.37533 -0.999234 -35
      vertex 1.23925 -1.16373 -1.9
      vertex 1.23925 -1.16373 -35
    endloop
  endfacet
  facet normal 0.684531 -0.728983 0
    outer loop
      vertex 1.08362 -1.30987 -35
      vertex 1.23925 -1.16373 -1.9
      vertex 1.08362 -1.30987 -1.9
    endloop
  endfacet
  facet normal 0.684531 -0.728983 0
    outer loop
      vertex 1.23925 -1.16373 -1.9
      vertex 1.08362 -1.30987 -35
      vertex 1.23925 -1.16373 -35
    endloop
  endfacet
  facet normal -0.481761 -0.876303 0
    outer loop
      vertex -0.910905 -1.43536 -35
      vertex -0.723825 -1.53821 -1.9
      vertex -0.910905 -1.43536 -1.9
    endloop
  endfacet
  facet normal -0.481761 -0.876303 -0
    outer loop
      vertex -0.723825 -1.53821 -1.9
      vertex -0.910905 -1.43536 -35
      vertex -0.723825 -1.53821 -35
    endloop
  endfacet
  facet normal -0.125301 -0.992119 0
    outer loop
      vertex -0.318548 -1.66989 -35
      vertex -0.106744 -1.69664 -1.9
      vertex -0.318548 -1.66989 -1.9
    endloop
  endfacet
  facet normal -0.125301 -0.992119 -0
    outer loop
      vertex -0.106744 -1.69664 -1.9
      vertex -0.318548 -1.66989 -35
      vertex -0.106744 -1.69664 -35
    endloop
  endfacet
  facet normal -0.587801 -0.809005 0
    outer loop
      vertex -1.08362 -1.30987 -35
      vertex -0.910905 -1.43536 -1.9
      vertex -1.08362 -1.30987 -1.9
    endloop
  endfacet
  facet normal -0.587801 -0.809005 -0
    outer loop
      vertex -0.910905 -1.43536 -1.9
      vertex -1.08362 -1.30987 -35
      vertex -0.910905 -1.43536 -35
    endloop
  endfacet
  facet normal -0.684531 -0.728983 0
    outer loop
      vertex -1.23925 -1.16373 -35
      vertex -1.08362 -1.30987 -1.9
      vertex -1.23925 -1.16373 -1.9
    endloop
  endfacet
  facet normal -0.684531 -0.728983 -0
    outer loop
      vertex -1.08362 -1.30987 -1.9
      vertex -1.23925 -1.16373 -35
      vertex -1.08362 -1.30987 -35
    endloop
  endfacet
endsolid OpenSCAD_Model
