solid OpenSCAD_Model
  facet normal -0.866025 0.500001 0
    outer loop
      vertex -4.26979 0 0
      vertex -2.13489 3.69775 3.5
      vertex -2.13489 3.69775 0
    endloop
  endfacet
  facet normal -0.866025 0.500001 0
    outer loop
      vertex -2.13489 3.69775 3.5
      vertex -4.26979 0 0
      vertex -4.26979 0 3.5
    endloop
  endfacet
  facet normal 0 1 -0
    outer loop
      vertex 2.13489 3.69775 0
      vertex -2.13489 3.69775 3.5
      vertex 2.13489 3.69775 3.5
    endloop
  endfacet
  facet normal 0 1 0
    outer loop
      vertex -2.13489 3.69775 3.5
      vertex 2.13489 3.69775 0
      vertex -2.13489 3.69775 0
    endloop
  endfacet
  facet normal -0 0 -1
    outer loop
      vertex -1.75 1.40748 0
      vertex -1.82029 1.32252 0
      vertex -1.75 3.25 0
    endloop
  endfacet
  facet normal -0 0 -1
    outer loop
      vertex 4.26979 0 0
      vertex 2.23226 -0.282 0
      vertex 2.25 0 0
    endloop
  endfacet
  facet normal 0 0 -1
    outer loop
      vertex 4.26979 0 0
      vertex 2.17931 -0.559552 0
      vertex 2.23226 -0.282 0
    endloop
  endfacet
  facet normal 0 0 -1
    outer loop
      vertex 1.97169 -1.08395 0
      vertex 4.26979 0 0
      vertex 2.13489 -3.69775 0
    endloop
  endfacet
  facet normal 0 0 -1
    outer loop
      vertex 4.26979 0 0
      vertex 2.092 -0.828279 0
      vertex 2.17931 -0.559552 0
    endloop
  endfacet
  facet normal 0 0 -1
    outer loop
      vertex 4.26979 0 0
      vertex 1.97169 -1.08395 0
      vertex 2.092 -0.828279 0
    endloop
  endfacet
  facet normal 0 0 -1
    outer loop
      vertex 2.13489 -3.69775 0
      vertex 1.82029 -1.32252 0
      vertex 1.97169 -1.08395 0
    endloop
  endfacet
  facet normal 0 0 -1
    outer loop
      vertex 2.13489 -3.69775 0
      vertex 1.75 -3.25 0
      vertex 1.82029 -1.32252 0
    endloop
  endfacet
  facet normal 0 0 -1
    outer loop
      vertex 2.13489 -3.69775 0
      vertex -1.75 -3.25 0
      vertex 1.75 -3.25 0
    endloop
  endfacet
  facet normal 0 0 -1
    outer loop
      vertex -1.75 -3.25 0
      vertex -1.82029 -1.32252 0
      vertex -1.75 -1.40748 0
    endloop
  endfacet
  facet normal 0 0 -1
    outer loop
      vertex -2.13489 -3.69775 0
      vertex -1.82029 -1.32252 0
      vertex -1.75 -3.25 0
    endloop
  endfacet
  facet normal -0 0 -1
    outer loop
      vertex -1.82029 -1.32252 0
      vertex -2.13489 -3.69775 0
      vertex -1.97169 -1.08395 0
    endloop
  endfacet
  facet normal 0 0 -1
    outer loop
      vertex -2.13489 -3.69775 0
      vertex -1.75 -3.25 0
      vertex 2.13489 -3.69775 0
    endloop
  endfacet
  facet normal 0 0 -1
    outer loop
      vertex -4.26979 0 0
      vertex -1.97169 -1.08395 0
      vertex -2.13489 -3.69775 0
    endloop
  endfacet
  facet normal 0 0 -1
    outer loop
      vertex -1.97169 -1.08395 0
      vertex -4.26979 0 0
      vertex -2.092 -0.828279 0
    endloop
  endfacet
  facet normal 0 0 -1
    outer loop
      vertex -2.092 -0.828279 0
      vertex -4.26979 0 0
      vertex -2.17931 -0.559552 0
    endloop
  endfacet
  facet normal 0 0 -1
    outer loop
      vertex -2.17931 -0.559552 0
      vertex -4.26979 0 0
      vertex -2.23226 -0.282 0
    endloop
  endfacet
  facet normal 0 0 -1
    outer loop
      vertex -2.23226 -0.282 0
      vertex -4.26979 0 0
      vertex -2.25 0 0
    endloop
  endfacet
  facet normal 0 0 -1
    outer loop
      vertex 2.23226 0.282 0
      vertex 4.26979 0 0
      vertex 2.25 0 0
    endloop
  endfacet
  facet normal 0 0 -1
    outer loop
      vertex 2.17931 0.559552 0
      vertex 4.26979 0 0
      vertex 2.23226 0.282 0
    endloop
  endfacet
  facet normal 0 0 -1
    outer loop
      vertex 2.092 0.828279 0
      vertex 4.26979 0 0
      vertex 2.17931 0.559552 0
    endloop
  endfacet
  facet normal 0 0 -1
    outer loop
      vertex 1.97169 1.08395 0
      vertex 4.26979 0 0
      vertex 2.092 0.828279 0
    endloop
  endfacet
  facet normal 0 0 -1
    outer loop
      vertex 4.26979 0 0
      vertex 1.97169 1.08395 0
      vertex 2.13489 3.69775 0
    endloop
  endfacet
  facet normal 0 0 -1
    outer loop
      vertex 1.82029 1.32252 0
      vertex 2.13489 3.69775 0
      vertex 1.97169 1.08395 0
    endloop
  endfacet
  facet normal 0 0 -1
    outer loop
      vertex 1.75 3.25 0
      vertex 1.82029 1.32252 0
      vertex 1.75 1.40748 0
    endloop
  endfacet
  facet normal 0 0 -1
    outer loop
      vertex 1.82029 1.32252 0
      vertex 1.75 3.25 0
      vertex 2.13489 3.69775 0
    endloop
  endfacet
  facet normal 0 0 -1
    outer loop
      vertex -1.75 3.25 0
      vertex 2.13489 3.69775 0
      vertex 1.75 3.25 0
    endloop
  endfacet
  facet normal 0 0 -1
    outer loop
      vertex -2.13489 3.69775 0
      vertex -1.82029 1.32252 0
      vertex -1.97169 1.08395 0
    endloop
  endfacet
  facet normal 0 0 -1
    outer loop
      vertex -4.26979 0 0
      vertex -1.97169 1.08395 0
      vertex -2.092 0.828279 0
    endloop
  endfacet
  facet normal 0 0 -1
    outer loop
      vertex -1.75 3.25 0
      vertex -2.13489 3.69775 0
      vertex 2.13489 3.69775 0
    endloop
  endfacet
  facet normal 0 0 -1
    outer loop
      vertex -1.82029 1.32252 0
      vertex -2.13489 3.69775 0
      vertex -1.75 3.25 0
    endloop
  endfacet
  facet normal 0 0 -1
    outer loop
      vertex -4.26979 0 0
      vertex -2.092 0.828279 0
      vertex -2.17931 0.559552 0
    endloop
  endfacet
  facet normal 0 0 -1
    outer loop
      vertex -4.26979 0 0
      vertex -2.17931 0.559552 0
      vertex -2.23226 0.282 0
    endloop
  endfacet
  facet normal 0 0 -1
    outer loop
      vertex -4.26979 0 0
      vertex -2.23226 0.282 0
      vertex -2.25 0 0
    endloop
  endfacet
  facet normal -0 0 -1
    outer loop
      vertex -1.97169 1.08395 0
      vertex -4.26979 0 0
      vertex -2.13489 3.69775 0
    endloop
  endfacet
  facet normal 0 0 -1
    outer loop
      vertex 1.82029 -1.32252 0
      vertex 1.75 -3.25 0
      vertex 1.75 -1.40748 0
    endloop
  endfacet
  facet normal 0.866025 0.500001 0
    outer loop
      vertex 4.26979 0 3.5
      vertex 2.13489 3.69775 0
      vertex 2.13489 3.69775 3.5
    endloop
  endfacet
  facet normal 0.866025 0.500001 0
    outer loop
      vertex 2.13489 3.69775 0
      vertex 4.26979 0 3.5
      vertex 4.26979 0 0
    endloop
  endfacet
  facet normal 0.866025 -0.500001 0
    outer loop
      vertex 2.13489 -3.69775 3.5
      vertex 4.26979 0 0
      vertex 4.26979 0 3.5
    endloop
  endfacet
  facet normal 0.866025 -0.500001 0
    outer loop
      vertex 4.26979 0 0
      vertex 2.13489 -3.69775 3.5
      vertex 2.13489 -3.69775 0
    endloop
  endfacet
  facet normal 0 0 1
    outer loop
      vertex -1.75 -1.40748 3.5
      vertex -1.82029 -1.32252 3.5
      vertex -1.75 -3.25 3.5
    endloop
  endfacet
  facet normal 0 0 1
    outer loop
      vertex 4.26979 0 3.5
      vertex 2.23226 0.282 3.5
      vertex 2.25 0 3.5
    endloop
  endfacet
  facet normal 0 0 1
    outer loop
      vertex 4.26979 0 3.5
      vertex 2.17931 0.559552 3.5
      vertex 2.23226 0.282 3.5
    endloop
  endfacet
  facet normal -0 0 1
    outer loop
      vertex 1.97169 1.08395 3.5
      vertex 4.26979 0 3.5
      vertex 2.13489 3.69775 3.5
    endloop
  endfacet
  facet normal 0 0 1
    outer loop
      vertex 4.26979 0 3.5
      vertex 2.092 0.828279 3.5
      vertex 2.17931 0.559552 3.5
    endloop
  endfacet
  facet normal 0 0 1
    outer loop
      vertex 4.26979 0 3.5
      vertex 1.97169 1.08395 3.5
      vertex 2.092 0.828279 3.5
    endloop
  endfacet
  facet normal 0 0 1
    outer loop
      vertex 2.13489 3.69775 3.5
      vertex 1.82029 1.32252 3.5
      vertex 1.97169 1.08395 3.5
    endloop
  endfacet
  facet normal 0 0 1
    outer loop
      vertex 2.13489 3.69775 3.5
      vertex 1.75 3.25 3.5
      vertex 1.82029 1.32252 3.5
    endloop
  endfacet
  facet normal 0 0 1
    outer loop
      vertex 2.13489 3.69775 3.5
      vertex -1.75 3.25 3.5
      vertex 1.75 3.25 3.5
    endloop
  endfacet
  facet normal 0 0 1
    outer loop
      vertex -1.75 3.25 3.5
      vertex -1.82029 1.32252 3.5
      vertex -1.75 1.40748 3.5
    endloop
  endfacet
  facet normal 0 0 1
    outer loop
      vertex -2.13489 3.69775 3.5
      vertex -1.82029 1.32252 3.5
      vertex -1.75 3.25 3.5
    endloop
  endfacet
  facet normal 0 0 1
    outer loop
      vertex -1.82029 1.32252 3.5
      vertex -2.13489 3.69775 3.5
      vertex -1.97169 1.08395 3.5
    endloop
  endfacet
  facet normal -0 0 1
    outer loop
      vertex -2.13489 3.69775 3.5
      vertex -1.75 3.25 3.5
      vertex 2.13489 3.69775 3.5
    endloop
  endfacet
  facet normal 0 0 1
    outer loop
      vertex -4.26979 0 3.5
      vertex -1.97169 1.08395 3.5
      vertex -2.13489 3.69775 3.5
    endloop
  endfacet
  facet normal 0 0 1
    outer loop
      vertex -1.97169 1.08395 3.5
      vertex -4.26979 0 3.5
      vertex -2.092 0.828279 3.5
    endloop
  endfacet
  facet normal 0 0 1
    outer loop
      vertex -2.092 0.828279 3.5
      vertex -4.26979 0 3.5
      vertex -2.17931 0.559552 3.5
    endloop
  endfacet
  facet normal 0 0 1
    outer loop
      vertex -2.17931 0.559552 3.5
      vertex -4.26979 0 3.5
      vertex -2.23226 0.282 3.5
    endloop
  endfacet
  facet normal 0 0 1
    outer loop
      vertex -2.23226 0.282 3.5
      vertex -4.26979 0 3.5
      vertex -2.25 0 3.5
    endloop
  endfacet
  facet normal 0 0 1
    outer loop
      vertex 2.23226 -0.282 3.5
      vertex 4.26979 0 3.5
      vertex 2.25 0 3.5
    endloop
  endfacet
  facet normal 0 0 1
    outer loop
      vertex 2.17931 -0.559552 3.5
      vertex 4.26979 0 3.5
      vertex 2.23226 -0.282 3.5
    endloop
  endfacet
  facet normal 0 0 1
    outer loop
      vertex 2.092 -0.828279 3.5
      vertex 4.26979 0 3.5
      vertex 2.17931 -0.559552 3.5
    endloop
  endfacet
  facet normal 0 0 1
    outer loop
      vertex 1.97169 -1.08395 3.5
      vertex 4.26979 0 3.5
      vertex 2.092 -0.828279 3.5
    endloop
  endfacet
  facet normal 0 0 1
    outer loop
      vertex 4.26979 0 3.5
      vertex 1.97169 -1.08395 3.5
      vertex 2.13489 -3.69775 3.5
    endloop
  endfacet
  facet normal -0 0 1
    outer loop
      vertex 1.82029 -1.32252 3.5
      vertex 2.13489 -3.69775 3.5
      vertex 1.97169 -1.08395 3.5
    endloop
  endfacet
  facet normal 0 0 1
    outer loop
      vertex 1.75 -3.25 3.5
      vertex 1.82029 -1.32252 3.5
      vertex 1.75 -1.40748 3.5
    endloop
  endfacet
  facet normal 0 0 1
    outer loop
      vertex 1.82029 -1.32252 3.5
      vertex 1.75 -3.25 3.5
      vertex 2.13489 -3.69775 3.5
    endloop
  endfacet
  facet normal -0 0 1
    outer loop
      vertex -1.75 -3.25 3.5
      vertex 2.13489 -3.69775 3.5
      vertex 1.75 -3.25 3.5
    endloop
  endfacet
  facet normal 0 0 1
    outer loop
      vertex -2.13489 -3.69775 3.5
      vertex -1.82029 -1.32252 3.5
      vertex -1.97169 -1.08395 3.5
    endloop
  endfacet
  facet normal 0 0 1
    outer loop
      vertex -4.26979 0 3.5
      vertex -1.97169 -1.08395 3.5
      vertex -2.092 -0.828279 3.5
    endloop
  endfacet
  facet normal 0 0 1
    outer loop
      vertex -1.75 -3.25 3.5
      vertex -2.13489 -3.69775 3.5
      vertex 2.13489 -3.69775 3.5
    endloop
  endfacet
  facet normal 0 0 1
    outer loop
      vertex -1.82029 -1.32252 3.5
      vertex -2.13489 -3.69775 3.5
      vertex -1.75 -3.25 3.5
    endloop
  endfacet
  facet normal 0 0 1
    outer loop
      vertex -4.26979 0 3.5
      vertex -2.092 -0.828279 3.5
      vertex -2.17931 -0.559552 3.5
    endloop
  endfacet
  facet normal 0 0 1
    outer loop
      vertex -4.26979 0 3.5
      vertex -2.17931 -0.559552 3.5
      vertex -2.23226 -0.282 3.5
    endloop
  endfacet
  facet normal -0 0 1
    outer loop
      vertex -4.26979 0 3.5
      vertex -2.23226 -0.282 3.5
      vertex -2.25 0 3.5
    endloop
  endfacet
  facet normal 0 0 1
    outer loop
      vertex -1.97169 -1.08395 3.5
      vertex -4.26979 0 3.5
      vertex -2.13489 -3.69775 3.5
    endloop
  endfacet
  facet normal 0 0 1
    outer loop
      vertex 1.82029 1.32252 3.5
      vertex 1.75 3.25 3.5
      vertex 1.75 1.40748 3.5
    endloop
  endfacet
  facet normal 0 -1 0
    outer loop
      vertex -2.13489 -3.69775 0
      vertex 2.13489 -3.69775 3.5
      vertex -2.13489 -3.69775 3.5
    endloop
  endfacet
  facet normal 0 -1 -0
    outer loop
      vertex 2.13489 -3.69775 3.5
      vertex -2.13489 -3.69775 0
      vertex 2.13489 -3.69775 0
    endloop
  endfacet
  facet normal -0.866025 -0.500001 0
    outer loop
      vertex -2.13489 -3.69775 0
      vertex -4.26979 0 3.5
      vertex -4.26979 0 0
    endloop
  endfacet
  facet normal -0.866025 -0.500001 0
    outer loop
      vertex -4.26979 0 3.5
      vertex -2.13489 -3.69775 0
      vertex -2.13489 -3.69775 3.5
    endloop
  endfacet
  facet normal -1 0 0
    outer loop
      vertex -1.75 -1.40748 3.5
      vertex -1.75 -1.75 3.8
      vertex -1.75 -1.40748 4.1
    endloop
  endfacet
  facet normal -1 0 0
    outer loop
      vertex -1.75 -3.25 3.5
      vertex -1.75 -1.75 3.8
      vertex -1.75 -1.40748 3.5
    endloop
  endfacet
  facet normal -1 -0 0
    outer loop
      vertex -1.75 -1.75 3.8
      vertex -1.75 -3.25 3.5
      vertex -1.75 -3.25 3.8
    endloop
  endfacet
  facet normal -1 -0 0
    outer loop
      vertex -1.75 -1.40748 4.1
      vertex -1.75 -1.75 3.8
      vertex -1.75 -1.75 4.1
    endloop
  endfacet
  facet normal -1 0 0
    outer loop
      vertex -1.75 3.25 3.5
      vertex -1.75 1.75 3.8
      vertex -1.75 3.25 3.8
    endloop
  endfacet
  facet normal -1 0 0
    outer loop
      vertex -1.75 1.40748 3.5
      vertex -1.75 1.75 3.8
      vertex -1.75 3.25 3.5
    endloop
  endfacet
  facet normal -1 0 0
    outer loop
      vertex -1.75 1.40748 4.1
      vertex -1.75 1.75 3.8
      vertex -1.75 1.40748 3.5
    endloop
  endfacet
  facet normal -1 0 0
    outer loop
      vertex -1.75 1.75 3.8
      vertex -1.75 1.40748 4.1
      vertex -1.75 1.75 4.1
    endloop
  endfacet
  facet normal 0 0 1
    outer loop
      vertex 1.20561 -1.89974 3.8
      vertex 1.75 -1.75 3.8
      vertex 1.41171 -1.75 3.8
    endloop
  endfacet
  facet normal 0 0 1
    outer loop
      vertex 1.75 -1.75 3.8
      vertex 1.20561 -1.89974 3.8
      vertex 1.75 -3.25 3.8
    endloop
  endfacet
  facet normal -0 0 1
    outer loop
      vertex 0.958003 -2.03586 3.8
      vertex 1.75 -3.25 3.8
      vertex 1.20561 -1.89974 3.8
    endloop
  endfacet
  facet normal -0 0 1
    outer loop
      vertex 0.695288 -2.13988 3.8
      vertex 1.75 -3.25 3.8
      vertex 0.958003 -2.03586 3.8
    endloop
  endfacet
  facet normal -0 0 1
    outer loop
      vertex 0.421607 -2.21015 3.8
      vertex 1.75 -3.25 3.8
      vertex 0.695288 -2.13988 3.8
    endloop
  endfacet
  facet normal -0 0 1
    outer loop
      vertex 0.141278 -2.24556 3.8
      vertex 1.75 -3.25 3.8
      vertex 0.421607 -2.21015 3.8
    endloop
  endfacet
  facet normal -0 0 1
    outer loop
      vertex -0.141278 -2.24556 3.8
      vertex 1.75 -3.25 3.8
      vertex 0.141278 -2.24556 3.8
    endloop
  endfacet
  facet normal 0 0 1
    outer loop
      vertex -1.75 -3.25 3.8
      vertex -0.141278 -2.24556 3.8
      vertex -0.421607 -2.21015 3.8
    endloop
  endfacet
  facet normal 0 0 1
    outer loop
      vertex -1.75 -3.25 3.8
      vertex -0.421607 -2.21015 3.8
      vertex -0.695288 -2.13988 3.8
    endloop
  endfacet
  facet normal 0 0 1
    outer loop
      vertex -1.75 -3.25 3.8
      vertex -0.695288 -2.13988 3.8
      vertex -0.958003 -2.03586 3.8
    endloop
  endfacet
  facet normal -0 0 1
    outer loop
      vertex -1.75 -1.75 3.8
      vertex -1.20561 -1.89974 3.8
      vertex -1.41171 -1.75 3.8
    endloop
  endfacet
  facet normal 0 0 1
    outer loop
      vertex -1.75 -3.25 3.8
      vertex -1.20561 -1.89974 3.8
      vertex -1.75 -1.75 3.8
    endloop
  endfacet
  facet normal 0 0 1
    outer loop
      vertex -1.20561 -1.89974 3.8
      vertex -1.75 -3.25 3.8
      vertex -0.958003 -2.03586 3.8
    endloop
  endfacet
  facet normal 0 0 1
    outer loop
      vertex -0.141278 -2.24556 3.8
      vertex -1.75 -3.25 3.8
      vertex 1.75 -3.25 3.8
    endloop
  endfacet
  facet normal -0 0 1
    outer loop
      vertex 1.20561 1.89974 3.8
      vertex 1.75 1.75 3.8
      vertex 1.75 3.25 3.8
    endloop
  endfacet
  facet normal 0 0 1
    outer loop
      vertex 1.75 1.75 3.8
      vertex 1.20561 1.89974 3.8
      vertex 1.41171 1.75 3.8
    endloop
  endfacet
  facet normal 0 0 1
    outer loop
      vertex 1.75 3.25 3.8
      vertex 0.958003 2.03586 3.8
      vertex 1.20561 1.89974 3.8
    endloop
  endfacet
  facet normal 0 0 1
    outer loop
      vertex 1.75 3.25 3.8
      vertex 0.695288 2.13988 3.8
      vertex 0.958003 2.03586 3.8
    endloop
  endfacet
  facet normal 0 0 1
    outer loop
      vertex 1.75 3.25 3.8
      vertex 0.421607 2.21015 3.8
      vertex 0.695288 2.13988 3.8
    endloop
  endfacet
  facet normal 0 0 1
    outer loop
      vertex 1.75 3.25 3.8
      vertex 0.141278 2.24556 3.8
      vertex 0.421607 2.21015 3.8
    endloop
  endfacet
  facet normal 0 0 1
    outer loop
      vertex 1.75 3.25 3.8
      vertex -0.141278 2.24556 3.8
      vertex 0.141278 2.24556 3.8
    endloop
  endfacet
  facet normal -0 0 1
    outer loop
      vertex -1.75 3.25 3.8
      vertex -0.141278 2.24556 3.8
      vertex 1.75 3.25 3.8
    endloop
  endfacet
  facet normal 0 0 1
    outer loop
      vertex -0.141278 2.24556 3.8
      vertex -1.75 3.25 3.8
      vertex -0.421607 2.21015 3.8
    endloop
  endfacet
  facet normal 0 0 1
    outer loop
      vertex -0.421607 2.21015 3.8
      vertex -1.75 3.25 3.8
      vertex -0.695288 2.13988 3.8
    endloop
  endfacet
  facet normal 0 0 1
    outer loop
      vertex -0.695288 2.13988 3.8
      vertex -1.75 3.25 3.8
      vertex -0.958003 2.03586 3.8
    endloop
  endfacet
  facet normal 0 0 1
    outer loop
      vertex -1.75 3.25 3.8
      vertex -1.20561 1.89974 3.8
      vertex -0.958003 2.03586 3.8
    endloop
  endfacet
  facet normal 0 0 1
    outer loop
      vertex -1.75 1.75 3.8
      vertex -1.20561 1.89974 3.8
      vertex -1.75 3.25 3.8
    endloop
  endfacet
  facet normal 0 0 1
    outer loop
      vertex -1.20561 1.89974 3.8
      vertex -1.75 1.75 3.8
      vertex -1.41171 1.75 3.8
    endloop
  endfacet
  facet normal 1 0 0
    outer loop
      vertex 1.75 -1.75 3.8
      vertex 1.75 -1.40748 4.1
      vertex 1.75 -1.75 4.1
    endloop
  endfacet
  facet normal 1 0 0
    outer loop
      vertex 1.75 -1.40748 4.1
      vertex 1.75 -1.75 3.8
      vertex 1.75 -1.40748 3.5
    endloop
  endfacet
  facet normal 1 0 0
    outer loop
      vertex 1.75 -3.25 3.5
      vertex 1.75 -1.75 3.8
      vertex 1.75 -3.25 3.8
    endloop
  endfacet
  facet normal 1 0 0
    outer loop
      vertex 1.75 -1.75 3.8
      vertex 1.75 -3.25 3.5
      vertex 1.75 -1.40748 3.5
    endloop
  endfacet
  facet normal 1 0 0
    outer loop
      vertex 1.75 1.75 4.1
      vertex 1.75 1.40748 4.1
      vertex 1.75 1.75 3.8
    endloop
  endfacet
  facet normal 1 -0 0
    outer loop
      vertex 1.75 1.75 3.8
      vertex 1.75 3.25 3.5
      vertex 1.75 3.25 3.8
    endloop
  endfacet
  facet normal 1 0 0
    outer loop
      vertex 1.75 1.75 3.8
      vertex 1.75 1.40748 3.5
      vertex 1.75 3.25 3.5
    endloop
  endfacet
  facet normal 1 0 0
    outer loop
      vertex 1.75 1.40748 3.5
      vertex 1.75 1.75 3.8
      vertex 1.75 1.40748 4.1
    endloop
  endfacet
  facet normal 0 1 -0
    outer loop
      vertex 1.75 3.25 3.5
      vertex -1.75 3.25 3.8
      vertex 1.75 3.25 3.8
    endloop
  endfacet
  facet normal 0 1 0
    outer loop
      vertex -1.75 3.25 3.8
      vertex 1.75 3.25 3.5
      vertex -1.75 3.25 3.5
    endloop
  endfacet
  facet normal 0 -1 0
    outer loop
      vertex -1.75 -3.25 3.5
      vertex 1.75 -3.25 3.8
      vertex -1.75 -3.25 3.8
    endloop
  endfacet
  facet normal 0 -1 -0
    outer loop
      vertex 1.75 -3.25 3.8
      vertex -1.75 -3.25 3.5
      vertex 1.75 -3.25 3.5
    endloop
  endfacet
  facet normal -0 0 1
    outer loop
      vertex 1.64018 -1.54023 4.1
      vertex 1.75 -1.75 4.1
      vertex 1.75 -1.40748 4.1
    endloop
  endfacet
  facet normal -0 0 1
    outer loop
      vertex 1.4342 -1.73365 4.1
      vertex 1.75 -1.75 4.1
      vertex 1.64018 -1.54023 4.1
    endloop
  endfacet
  facet normal 0 0 1
    outer loop
      vertex 1.75 -1.75 4.1
      vertex 1.4342 -1.73365 4.1
      vertex 1.41171 -1.75 4.1
    endloop
  endfacet
  facet normal 0 0 1
    outer loop
      vertex -1.4342 -1.73365 4.1
      vertex -1.75 -1.75 4.1
      vertex -1.41171 -1.75 4.1
    endloop
  endfacet
  facet normal 0 0 1
    outer loop
      vertex -1.64018 -1.54023 4.1
      vertex -1.75 -1.75 4.1
      vertex -1.4342 -1.73365 4.1
    endloop
  endfacet
  facet normal 0 0 1
    outer loop
      vertex -1.75 -1.75 4.1
      vertex -1.64018 -1.54023 4.1
      vertex -1.75 -1.40748 4.1
    endloop
  endfacet
  facet normal 0 0 1
    outer loop
      vertex 1.75 1.75 4.1
      vertex 1.64018 1.54023 4.1
      vertex 1.75 1.40748 4.1
    endloop
  endfacet
  facet normal 0 0 1
    outer loop
      vertex 1.75 1.75 4.1
      vertex 1.4342 1.73365 4.1
      vertex 1.64018 1.54023 4.1
    endloop
  endfacet
  facet normal 0 -0 1
    outer loop
      vertex 1.4342 1.73365 4.1
      vertex 1.75 1.75 4.1
      vertex 1.41171 1.75 4.1
    endloop
  endfacet
  facet normal -0 0 1
    outer loop
      vertex -1.75 1.75 4.1
      vertex -1.4342 1.73365 4.1
      vertex -1.41171 1.75 4.1
    endloop
  endfacet
  facet normal 0 0 1
    outer loop
      vertex -1.75 1.75 4.1
      vertex -1.64018 1.54023 4.1
      vertex -1.4342 1.73365 4.1
    endloop
  endfacet
  facet normal 0 0 1
    outer loop
      vertex -1.64018 1.54023 4.1
      vertex -1.75 1.75 4.1
      vertex -1.75 1.40748 4.1
    endloop
  endfacet
  facet normal 0 1 -0
    outer loop
      vertex 1.75 1.75 3.8
      vertex 1.41171 1.75 4.1
      vertex 1.75 1.75 4.1
    endloop
  endfacet
  facet normal 0 1 0
    outer loop
      vertex 1.41171 1.75 4.1
      vertex 1.75 1.75 3.8
      vertex 1.41171 1.75 3.8
    endloop
  endfacet
  facet normal 0 1 -0
    outer loop
      vertex -1.41171 1.75 3.8
      vertex -1.75 1.75 4.1
      vertex -1.41171 1.75 4.1
    endloop
  endfacet
  facet normal 0 1 0
    outer loop
      vertex -1.75 1.75 4.1
      vertex -1.41171 1.75 3.8
      vertex -1.75 1.75 3.8
    endloop
  endfacet
  facet normal 0 -1 0
    outer loop
      vertex 1.41171 -1.75 3.8
      vertex 1.75 -1.75 4.1
      vertex 1.41171 -1.75 4.1
    endloop
  endfacet
  facet normal 0 -1 -0
    outer loop
      vertex 1.75 -1.75 4.1
      vertex 1.41171 -1.75 3.8
      vertex 1.75 -1.75 3.8
    endloop
  endfacet
  facet normal 0 -1 0
    outer loop
      vertex -1.75 -1.75 3.8
      vertex -1.41171 -1.75 4.1
      vertex -1.75 -1.75 4.1
    endloop
  endfacet
  facet normal 0 -1 -0
    outer loop
      vertex -1.41171 -1.75 4.1
      vertex -1.75 -1.75 3.8
      vertex -1.41171 -1.75 3.8
    endloop
  endfacet
  facet normal -1 0 0
    outer loop
      vertex -1.75 -1.75 -0.299999
      vertex -1.75 -1.40748 -0.599999
      vertex -1.75 -1.75 -0.599999
    endloop
  endfacet
  facet normal -1 0 0
    outer loop
      vertex -1.75 -1.40748 -0.599999
      vertex -1.75 -1.75 -0.299999
      vertex -1.75 -1.40748 0
    endloop
  endfacet
  facet normal -1 0 0
    outer loop
      vertex -1.75 -3.25 0
      vertex -1.75 -1.75 -0.299999
      vertex -1.75 -3.25 -0.299999
    endloop
  endfacet
  facet normal -1 0 0
    outer loop
      vertex -1.75 -1.75 -0.299999
      vertex -1.75 -3.25 0
      vertex -1.75 -1.40748 0
    endloop
  endfacet
  facet normal -1 0 0
    outer loop
      vertex -1.75 1.75 -0.599999
      vertex -1.75 1.40748 -0.599999
      vertex -1.75 1.75 -0.299999
    endloop
  endfacet
  facet normal -1 0 0
    outer loop
      vertex -1.75 1.75 -0.299999
      vertex -1.75 3.25 0
      vertex -1.75 3.25 -0.299999
    endloop
  endfacet
  facet normal -1 0 0
    outer loop
      vertex -1.75 1.75 -0.299999
      vertex -1.75 1.40748 0
      vertex -1.75 3.25 0
    endloop
  endfacet
  facet normal -1 0 0
    outer loop
      vertex -1.75 1.40748 0
      vertex -1.75 1.75 -0.299999
      vertex -1.75 1.40748 -0.599999
    endloop
  endfacet
  facet normal 1 0 0
    outer loop
      vertex 1.75 -1.40748 0
      vertex 1.75 -1.75 -0.299999
      vertex 1.75 -1.40748 -0.599999
    endloop
  endfacet
  facet normal 1 -0 0
    outer loop
      vertex 1.75 -3.25 0
      vertex 1.75 -1.75 -0.299999
      vertex 1.75 -1.40748 0
    endloop
  endfacet
  facet normal 1 0 0
    outer loop
      vertex 1.75 -1.75 -0.299999
      vertex 1.75 -3.25 0
      vertex 1.75 -3.25 -0.299999
    endloop
  endfacet
  facet normal 1 0 0
    outer loop
      vertex 1.75 -1.40748 -0.599999
      vertex 1.75 -1.75 -0.299999
      vertex 1.75 -1.75 -0.599999
    endloop
  endfacet
  facet normal 1 0 0
    outer loop
      vertex 1.75 3.25 0
      vertex 1.75 1.75 -0.299999
      vertex 1.75 3.25 -0.299999
    endloop
  endfacet
  facet normal 1 -0 0
    outer loop
      vertex 1.75 1.40748 0
      vertex 1.75 1.75 -0.299999
      vertex 1.75 3.25 0
    endloop
  endfacet
  facet normal 1 0 0
    outer loop
      vertex 1.75 1.40748 -0.599999
      vertex 1.75 1.75 -0.299999
      vertex 1.75 1.40748 0
    endloop
  endfacet
  facet normal 1 0 0
    outer loop
      vertex 1.75 1.75 -0.299999
      vertex 1.75 1.40748 -0.599999
      vertex 1.75 1.75 -0.599999
    endloop
  endfacet
  facet normal 0 0 -1
    outer loop
      vertex 1.20561 -1.89974 -0.299999
      vertex 1.75 -1.75 -0.299999
      vertex 1.75 -3.25 -0.299999
    endloop
  endfacet
  facet normal -0 0 -1
    outer loop
      vertex 1.75 -1.75 -0.299999
      vertex 1.20561 -1.89974 -0.299999
      vertex 1.41171 -1.75 -0.299999
    endloop
  endfacet
  facet normal 0 0 -1
    outer loop
      vertex 1.75 -3.25 -0.299999
      vertex 0.958003 -2.03586 -0.299999
      vertex 1.20561 -1.89974 -0.299999
    endloop
  endfacet
  facet normal 0 0 -1
    outer loop
      vertex 1.75 -3.25 -0.299999
      vertex 0.695288 -2.13988 -0.299999
      vertex 0.958003 -2.03586 -0.299999
    endloop
  endfacet
  facet normal 0 0 -1
    outer loop
      vertex 1.75 -3.25 -0.299999
      vertex 0.421607 -2.21015 -0.299999
      vertex 0.695288 -2.13988 -0.299999
    endloop
  endfacet
  facet normal 0 0 -1
    outer loop
      vertex 1.75 -3.25 -0.299999
      vertex 0.141278 -2.24556 -0.299999
      vertex 0.421607 -2.21015 -0.299999
    endloop
  endfacet
  facet normal 0 0 -1
    outer loop
      vertex 1.75 -3.25 -0.299999
      vertex -0.141278 -2.24556 -0.299999
      vertex 0.141278 -2.24556 -0.299999
    endloop
  endfacet
  facet normal 0 0 -1
    outer loop
      vertex -1.75 -3.25 -0.299999
      vertex -0.141278 -2.24556 -0.299999
      vertex 1.75 -3.25 -0.299999
    endloop
  endfacet
  facet normal -0 0 -1
    outer loop
      vertex -0.141278 -2.24556 -0.299999
      vertex -1.75 -3.25 -0.299999
      vertex -0.421607 -2.21015 -0.299999
    endloop
  endfacet
  facet normal -0 0 -1
    outer loop
      vertex -0.421607 -2.21015 -0.299999
      vertex -1.75 -3.25 -0.299999
      vertex -0.695288 -2.13988 -0.299999
    endloop
  endfacet
  facet normal -0 0 -1
    outer loop
      vertex -0.695288 -2.13988 -0.299999
      vertex -1.75 -3.25 -0.299999
      vertex -0.958003 -2.03586 -0.299999
    endloop
  endfacet
  facet normal 0 0 -1
    outer loop
      vertex -1.75 -3.25 -0.299999
      vertex -1.20561 -1.89974 -0.299999
      vertex -0.958003 -2.03586 -0.299999
    endloop
  endfacet
  facet normal 0 0 -1
    outer loop
      vertex -1.75 -1.75 -0.299999
      vertex -1.20561 -1.89974 -0.299999
      vertex -1.75 -3.25 -0.299999
    endloop
  endfacet
  facet normal 0 0 -1
    outer loop
      vertex -1.20561 -1.89974 -0.299999
      vertex -1.75 -1.75 -0.299999
      vertex -1.41171 -1.75 -0.299999
    endloop
  endfacet
  facet normal 0 0 -1
    outer loop
      vertex 1.20561 1.89974 -0.299999
      vertex 1.75 1.75 -0.299999
      vertex 1.41171 1.75 -0.299999
    endloop
  endfacet
  facet normal 0 0 -1
    outer loop
      vertex 1.75 1.75 -0.299999
      vertex 1.20561 1.89974 -0.299999
      vertex 1.75 3.25 -0.299999
    endloop
  endfacet
  facet normal 0 0 -1
    outer loop
      vertex 0.958003 2.03586 -0.299999
      vertex 1.75 3.25 -0.299999
      vertex 1.20561 1.89974 -0.299999
    endloop
  endfacet
  facet normal 0 0 -1
    outer loop
      vertex 0.695288 2.13988 -0.299999
      vertex 1.75 3.25 -0.299999
      vertex 0.958003 2.03586 -0.299999
    endloop
  endfacet
  facet normal 0 0 -1
    outer loop
      vertex 0.421607 2.21015 -0.299999
      vertex 1.75 3.25 -0.299999
      vertex 0.695288 2.13988 -0.299999
    endloop
  endfacet
  facet normal 0 0 -1
    outer loop
      vertex 0.141278 2.24556 -0.299999
      vertex 1.75 3.25 -0.299999
      vertex 0.421607 2.21015 -0.299999
    endloop
  endfacet
  facet normal 0 0 -1
    outer loop
      vertex -0.141278 2.24556 -0.299999
      vertex 1.75 3.25 -0.299999
      vertex 0.141278 2.24556 -0.299999
    endloop
  endfacet
  facet normal 0 0 -1
    outer loop
      vertex -1.75 3.25 -0.299999
      vertex -0.141278 2.24556 -0.299999
      vertex -0.421607 2.21015 -0.299999
    endloop
  endfacet
  facet normal 0 0 -1
    outer loop
      vertex -1.75 3.25 -0.299999
      vertex -0.421607 2.21015 -0.299999
      vertex -0.695288 2.13988 -0.299999
    endloop
  endfacet
  facet normal 0 0 -1
    outer loop
      vertex -1.75 3.25 -0.299999
      vertex -0.695288 2.13988 -0.299999
      vertex -0.958003 2.03586 -0.299999
    endloop
  endfacet
  facet normal 0 0 -1
    outer loop
      vertex -1.75 1.75 -0.299999
      vertex -1.20561 1.89974 -0.299999
      vertex -1.41171 1.75 -0.299999
    endloop
  endfacet
  facet normal 0 0 -1
    outer loop
      vertex -1.75 3.25 -0.299999
      vertex -1.20561 1.89974 -0.299999
      vertex -1.75 1.75 -0.299999
    endloop
  endfacet
  facet normal 0 0 -1
    outer loop
      vertex -1.20561 1.89974 -0.299999
      vertex -1.75 3.25 -0.299999
      vertex -0.958003 2.03586 -0.299999
    endloop
  endfacet
  facet normal 0 0 -1
    outer loop
      vertex -0.141278 2.24556 -0.299999
      vertex -1.75 3.25 -0.299999
      vertex 1.75 3.25 -0.299999
    endloop
  endfacet
  facet normal 0 -1 0
    outer loop
      vertex -1.75 -3.25 -0.299999
      vertex 1.75 -3.25 0
      vertex -1.75 -3.25 0
    endloop
  endfacet
  facet normal 0 -1 -0
    outer loop
      vertex 1.75 -3.25 0
      vertex -1.75 -3.25 -0.299999
      vertex 1.75 -3.25 -0.299999
    endloop
  endfacet
  facet normal 0 1 -0
    outer loop
      vertex 1.75 3.25 -0.299999
      vertex -1.75 3.25 0
      vertex 1.75 3.25 0
    endloop
  endfacet
  facet normal 0 1 0
    outer loop
      vertex -1.75 3.25 0
      vertex 1.75 3.25 -0.299999
      vertex -1.75 3.25 -0.299999
    endloop
  endfacet
  facet normal 0 0 -1
    outer loop
      vertex -1.75 -1.75 -0.599999
      vertex -1.4342 -1.73365 -0.599999
      vertex -1.41171 -1.75 -0.599999
    endloop
  endfacet
  facet normal 0 0 -1
    outer loop
      vertex -1.75 -1.75 -0.599999
      vertex -1.64018 -1.54023 -0.599999
      vertex -1.4342 -1.73365 -0.599999
    endloop
  endfacet
  facet normal -0 0 -1
    outer loop
      vertex -1.64018 -1.54023 -0.599999
      vertex -1.75 -1.75 -0.599999
      vertex -1.75 -1.40748 -0.599999
    endloop
  endfacet
  facet normal 0 0 -1
    outer loop
      vertex 1.64018 1.54023 -0.599999
      vertex 1.75 1.75 -0.599999
      vertex 1.75 1.40748 -0.599999
    endloop
  endfacet
  facet normal 0 0 -1
    outer loop
      vertex 1.4342 1.73365 -0.599999
      vertex 1.75 1.75 -0.599999
      vertex 1.64018 1.54023 -0.599999
    endloop
  endfacet
  facet normal -0 0 -1
    outer loop
      vertex 1.75 1.75 -0.599999
      vertex 1.4342 1.73365 -0.599999
      vertex 1.41171 1.75 -0.599999
    endloop
  endfacet
  facet normal 0 0 -1
    outer loop
      vertex -1.4342 1.73365 -0.599999
      vertex -1.75 1.75 -0.599999
      vertex -1.41171 1.75 -0.599999
    endloop
  endfacet
  facet normal 0 0 -1
    outer loop
      vertex -1.64018 1.54023 -0.599999
      vertex -1.75 1.75 -0.599999
      vertex -1.4342 1.73365 -0.599999
    endloop
  endfacet
  facet normal 0 0 -1
    outer loop
      vertex -1.75 1.75 -0.599999
      vertex -1.64018 1.54023 -0.599999
      vertex -1.75 1.40748 -0.599999
    endloop
  endfacet
  facet normal 0 0 -1
    outer loop
      vertex 1.75 -1.75 -0.599999
      vertex 1.64018 -1.54023 -0.599999
      vertex 1.75 -1.40748 -0.599999
    endloop
  endfacet
  facet normal 0 0 -1
    outer loop
      vertex 1.75 -1.75 -0.599999
      vertex 1.4342 -1.73365 -0.599999
      vertex 1.64018 -1.54023 -0.599999
    endloop
  endfacet
  facet normal 0 -0 -1
    outer loop
      vertex 1.4342 -1.73365 -0.599999
      vertex 1.75 -1.75 -0.599999
      vertex 1.41171 -1.75 -0.599999
    endloop
  endfacet
  facet normal 0 -1 0
    outer loop
      vertex 1.41171 -1.75 -0.599999
      vertex 1.75 -1.75 -0.299999
      vertex 1.41171 -1.75 -0.299999
    endloop
  endfacet
  facet normal 0 -1 -0
    outer loop
      vertex 1.75 -1.75 -0.299999
      vertex 1.41171 -1.75 -0.599999
      vertex 1.75 -1.75 -0.599999
    endloop
  endfacet
  facet normal 0 -1 0
    outer loop
      vertex -1.75 -1.75 -0.599999
      vertex -1.41171 -1.75 -0.299999
      vertex -1.75 -1.75 -0.299999
    endloop
  endfacet
  facet normal 0 -1 -0
    outer loop
      vertex -1.41171 -1.75 -0.299999
      vertex -1.75 -1.75 -0.599999
      vertex -1.41171 -1.75 -0.599999
    endloop
  endfacet
  facet normal 0 1 -0
    outer loop
      vertex 1.75 1.75 -0.599999
      vertex 1.41171 1.75 -0.299999
      vertex 1.75 1.75 -0.299999
    endloop
  endfacet
  facet normal 0 1 0
    outer loop
      vertex 1.41171 1.75 -0.299999
      vertex 1.75 1.75 -0.599999
      vertex 1.41171 1.75 -0.599999
    endloop
  endfacet
  facet normal 0 1 -0
    outer loop
      vertex -1.41171 1.75 -0.599999
      vertex -1.75 1.75 -0.299999
      vertex -1.41171 1.75 -0.299999
    endloop
  endfacet
  facet normal 0 1 0
    outer loop
      vertex -1.75 1.75 -0.299999
      vertex -1.41171 1.75 -0.599999
      vertex -1.75 1.75 -0.599999
    endloop
  endfacet
  facet normal -0.998027 -0.0627837 0
    outer loop
      vertex 2.25 0 0
      vertex 2.23226 0.282 3.5
      vertex 2.23226 0.282 0
    endloop
  endfacet
  facet normal -0.998027 -0.0627837 0
    outer loop
      vertex 2.23226 0.282 3.5
      vertex 2.25 0 0
      vertex 2.25 0 3.5
    endloop
  endfacet
  facet normal 0.998027 -0.0627837 0
    outer loop
      vertex -2.25 0 3.5
      vertex -2.23226 0.282 0
      vertex -2.23226 0.282 3.5
    endloop
  endfacet
  facet normal 0.998027 -0.0627837 0
    outer loop
      vertex -2.23226 0.282 0
      vertex -2.25 0 3.5
      vertex -2.25 0 0
    endloop
  endfacet
  facet normal 0 -1 0
    outer loop
      vertex -0.141278 2.24556 -0.299999
      vertex 0.141278 2.24556 3.8
      vertex -0.141278 2.24556 3.8
    endloop
  endfacet
  facet normal 0 -1 -0
    outer loop
      vertex 0.141278 2.24556 3.8
      vertex -0.141278 2.24556 -0.299999
      vertex 0.141278 2.24556 -0.299999
    endloop
  endfacet
  facet normal 0 1 -0
    outer loop
      vertex 0.141278 -2.24556 -0.299999
      vertex -0.141278 -2.24556 3.8
      vertex 0.141278 -2.24556 3.8
    endloop
  endfacet
  facet normal 0 1 0
    outer loop
      vertex -0.141278 -2.24556 3.8
      vertex 0.141278 -2.24556 -0.299999
      vertex -0.141278 -2.24556 -0.299999
    endloop
  endfacet
  facet normal -0.684532 -0.728983 0
    outer loop
      vertex 1.4342 1.73365 -0.599999
      vertex 1.64018 1.54023 4.1
      vertex 1.4342 1.73365 4.1
    endloop
  endfacet
  facet normal -0.684532 -0.728983 -0
    outer loop
      vertex 1.64018 1.54023 4.1
      vertex 1.4342 1.73365 -0.599999
      vertex 1.64018 1.54023 -0.599999
    endloop
  endfacet
  facet normal 0.684532 -0.728983 0
    outer loop
      vertex -1.64018 1.54023 -0.599999
      vertex -1.4342 1.73365 4.1
      vertex -1.64018 1.54023 4.1
    endloop
  endfacet
  facet normal 0.684532 -0.728983 0
    outer loop
      vertex -1.4342 1.73365 4.1
      vertex -1.64018 1.54023 -0.599999
      vertex -1.4342 1.73365 -0.599999
    endloop
  endfacet
  facet normal 0.368136 -0.929772 0
    outer loop
      vertex -0.958003 2.03586 -0.299999
      vertex -0.695288 2.13988 3.8
      vertex -0.958003 2.03586 3.8
    endloop
  endfacet
  facet normal 0.368136 -0.929772 0
    outer loop
      vertex -0.695288 2.13988 3.8
      vertex -0.958003 2.03586 -0.299999
      vertex -0.695288 2.13988 -0.299999
    endloop
  endfacet
  facet normal -0.951061 0.309002 0
    outer loop
      vertex 2.092 -0.828279 0
      vertex 2.17931 -0.559552 3.5
      vertex 2.17931 -0.559552 0
    endloop
  endfacet
  facet normal -0.951061 0.309002 0
    outer loop
      vertex 2.17931 -0.559552 3.5
      vertex 2.092 -0.828279 0
      vertex 2.092 -0.828279 3.5
    endloop
  endfacet
  facet normal -0.904827 -0.42578 0
    outer loop
      vertex 2.092 0.828279 0
      vertex 1.97169 1.08395 3.5
      vertex 1.97169 1.08395 0
    endloop
  endfacet
  facet normal -0.904827 -0.42578 0
    outer loop
      vertex 1.97169 1.08395 3.5
      vertex 2.092 0.828279 0
      vertex 2.092 0.828279 3.5
    endloop
  endfacet
  facet normal -0.982285 -0.187395 0
    outer loop
      vertex 2.23226 0.282 0
      vertex 2.17931 0.559552 3.5
      vertex 2.17931 0.559552 0
    endloop
  endfacet
  facet normal -0.982285 -0.187395 0
    outer loop
      vertex 2.17931 0.559552 3.5
      vertex 2.23226 0.282 0
      vertex 2.23226 0.282 3.5
    endloop
  endfacet
  facet normal -0.368136 -0.929772 0
    outer loop
      vertex 0.695288 2.13988 -0.299999
      vertex 0.958003 2.03586 3.8
      vertex 0.695288 2.13988 3.8
    endloop
  endfacet
  facet normal -0.368136 -0.929772 -0
    outer loop
      vertex 0.958003 2.03586 3.8
      vertex 0.695288 2.13988 -0.299999
      vertex 0.958003 2.03586 -0.299999
    endloop
  endfacet
  facet normal -0.248692 -0.968583 0
    outer loop
      vertex 0.421607 2.21015 -0.299999
      vertex 0.695288 2.13988 3.8
      vertex 0.421607 2.21015 3.8
    endloop
  endfacet
  facet normal -0.248692 -0.968583 -0
    outer loop
      vertex 0.695288 2.13988 3.8
      vertex 0.421607 2.21015 -0.299999
      vertex 0.695288 2.13988 -0.299999
    endloop
  endfacet
  facet normal -0.587784 -0.809018 -0
    outer loop
      vertex 1.20561 1.89974 3.8
      vertex 1.20561 1.89974 -0.299999
      vertex 1.41171 1.75 3.8
    endloop
  endfacet
  facet normal -0.588022 -0.808845 0
    outer loop
      vertex 1.41171 1.75 3.8
      vertex 1.4342 1.73365 4.1
      vertex 1.41171 1.75 4.1
    endloop
  endfacet
  facet normal -0.587784 -0.809018 0
    outer loop
      vertex 1.41171 1.75 -0.299999
      vertex 1.41171 1.75 3.8
      vertex 1.20561 1.89974 -0.299999
    endloop
  endfacet
  facet normal -0.588022 -0.808845 -0
    outer loop
      vertex 1.41171 1.75 3.8
      vertex 1.41171 1.75 -0.299999
      vertex 1.4342 1.73365 4.1
    endloop
  endfacet
  facet normal -0.588022 -0.808845 0
    outer loop
      vertex 1.4342 1.73365 -0.599999
      vertex 1.41171 1.75 -0.299999
      vertex 1.41171 1.75 -0.599999
    endloop
  endfacet
  facet normal -0.588022 -0.808845 0
    outer loop
      vertex 1.41171 1.75 -0.299999
      vertex 1.4342 1.73365 -0.599999
      vertex 1.4342 1.73365 4.1
    endloop
  endfacet
  facet normal 0.904827 -0.42578 0
    outer loop
      vertex -2.092 0.828279 3.5
      vertex -1.97169 1.08395 0
      vertex -1.97169 1.08395 3.5
    endloop
  endfacet
  facet normal 0.904827 -0.42578 0
    outer loop
      vertex -1.97169 1.08395 0
      vertex -2.092 0.828279 3.5
      vertex -2.092 0.828279 0
    endloop
  endfacet
  facet normal 0.770491 -0.637451 0
    outer loop
      vertex -1.82029 1.32252 3.5
      vertex -1.75 1.40748 0
      vertex -1.75 1.40748 3.5
    endloop
  endfacet
  facet normal 0.770491 -0.637451 0
    outer loop
      vertex -1.75 1.40748 0
      vertex -1.82029 1.32252 3.5
      vertex -1.82029 1.32252 0
    endloop
  endfacet
  facet normal 0.770514 -0.637423 0
    outer loop
      vertex -1.75 1.40748 3.5
      vertex -1.64018 1.54023 4.1
      vertex -1.75 1.40748 4.1
    endloop
  endfacet
  facet normal 0.770514 -0.637423 0
    outer loop
      vertex -1.64018 1.54023 4.1
      vertex -1.75 1.40748 3.5
      vertex -1.64018 1.54023 -0.599999
    endloop
  endfacet
  facet normal 0.770514 -0.637423 0
    outer loop
      vertex -1.75 1.40748 0
      vertex -1.64018 1.54023 -0.599999
      vertex -1.75 1.40748 3.5
    endloop
  endfacet
  facet normal 0.770514 -0.637423 0
    outer loop
      vertex -1.64018 1.54023 -0.599999
      vertex -1.75 1.40748 0
      vertex -1.75 1.40748 -0.599999
    endloop
  endfacet
  facet normal 0.951061 -0.309002 0
    outer loop
      vertex -2.17931 0.559552 3.5
      vertex -2.092 0.828279 0
      vertex -2.092 0.828279 3.5
    endloop
  endfacet
  facet normal 0.951061 -0.309002 0
    outer loop
      vertex -2.092 0.828279 0
      vertex -2.17931 0.559552 3.5
      vertex -2.17931 0.559552 0
    endloop
  endfacet
  facet normal 0.481745 -0.876311 0
    outer loop
      vertex -1.20561 1.89974 -0.299999
      vertex -0.958003 2.03586 3.8
      vertex -1.20561 1.89974 3.8
    endloop
  endfacet
  facet normal 0.481745 -0.876311 0
    outer loop
      vertex -0.958003 2.03586 3.8
      vertex -1.20561 1.89974 -0.299999
      vertex -0.958003 2.03586 -0.299999
    endloop
  endfacet
  facet normal 0.12532 -0.992116 0
    outer loop
      vertex -0.421607 2.21015 -0.299999
      vertex -0.141278 2.24556 3.8
      vertex -0.421607 2.21015 3.8
    endloop
  endfacet
  facet normal 0.12532 -0.992116 0
    outer loop
      vertex -0.141278 2.24556 3.8
      vertex -0.421607 2.21015 -0.299999
      vertex -0.141278 2.24556 -0.299999
    endloop
  endfacet
  facet normal -0.12532 0.992116 0
    outer loop
      vertex 0.421607 -2.21015 -0.299999
      vertex 0.141278 -2.24556 3.8
      vertex 0.421607 -2.21015 3.8
    endloop
  endfacet
  facet normal -0.12532 0.992116 0
    outer loop
      vertex 0.141278 -2.24556 3.8
      vertex 0.421607 -2.21015 -0.299999
      vertex 0.141278 -2.24556 -0.299999
    endloop
  endfacet
  facet normal -0.951061 -0.309002 0
    outer loop
      vertex 2.17931 0.559552 0
      vertex 2.092 0.828279 3.5
      vertex 2.092 0.828279 0
    endloop
  endfacet
  facet normal -0.951061 -0.309002 0
    outer loop
      vertex 2.092 0.828279 3.5
      vertex 2.17931 0.559552 0
      vertex 2.17931 0.559552 3.5
    endloop
  endfacet
  facet normal -0.770491 -0.637451 0
    outer loop
      vertex 1.82029 1.32252 0
      vertex 1.75 1.40748 3.5
      vertex 1.75 1.40748 0
    endloop
  endfacet
  facet normal -0.770491 -0.637451 0
    outer loop
      vertex 1.75 1.40748 3.5
      vertex 1.82029 1.32252 0
      vertex 1.82029 1.32252 3.5
    endloop
  endfacet
  facet normal -0.770514 -0.637423 -0
    outer loop
      vertex 1.75 1.40748 0
      vertex 1.64018 1.54023 -0.599999
      vertex 1.75 1.40748 -0.599999
    endloop
  endfacet
  facet normal -0.770514 -0.637423 0
    outer loop
      vertex 1.64018 1.54023 -0.599999
      vertex 1.75 1.40748 0
      vertex 1.64018 1.54023 4.1
    endloop
  endfacet
  facet normal -0.770514 -0.637423 -0
    outer loop
      vertex 1.75 1.40748 3.5
      vertex 1.64018 1.54023 4.1
      vertex 1.75 1.40748 0
    endloop
  endfacet
  facet normal -0.770514 -0.637423 0
    outer loop
      vertex 1.64018 1.54023 4.1
      vertex 1.75 1.40748 3.5
      vertex 1.75 1.40748 4.1
    endloop
  endfacet
  facet normal -0.84433 -0.535824 0
    outer loop
      vertex 1.97169 1.08395 0
      vertex 1.82029 1.32252 3.5
      vertex 1.82029 1.32252 0
    endloop
  endfacet
  facet normal -0.84433 -0.535824 0
    outer loop
      vertex 1.82029 1.32252 3.5
      vertex 1.97169 1.08395 0
      vertex 1.97169 1.08395 3.5
    endloop
  endfacet
  facet normal -0.12532 -0.992116 0
    outer loop
      vertex 0.141278 2.24556 -0.299999
      vertex 0.421607 2.21015 3.8
      vertex 0.141278 2.24556 3.8
    endloop
  endfacet
  facet normal -0.12532 -0.992116 -0
    outer loop
      vertex 0.421607 2.21015 3.8
      vertex 0.141278 2.24556 -0.299999
      vertex 0.421607 2.21015 -0.299999
    endloop
  endfacet
  facet normal -0.481745 -0.876311 0
    outer loop
      vertex 0.958003 2.03586 -0.299999
      vertex 1.20561 1.89974 3.8
      vertex 0.958003 2.03586 3.8
    endloop
  endfacet
  facet normal -0.481745 -0.876311 -0
    outer loop
      vertex 1.20561 1.89974 3.8
      vertex 0.958003 2.03586 -0.299999
      vertex 1.20561 1.89974 -0.299999
    endloop
  endfacet
  facet normal 0.84433 -0.535824 0
    outer loop
      vertex -1.97169 1.08395 3.5
      vertex -1.82029 1.32252 0
      vertex -1.82029 1.32252 3.5
    endloop
  endfacet
  facet normal 0.84433 -0.535824 0
    outer loop
      vertex -1.82029 1.32252 0
      vertex -1.97169 1.08395 3.5
      vertex -1.97169 1.08395 0
    endloop
  endfacet
  facet normal 0.982285 -0.187395 0
    outer loop
      vertex -2.23226 0.282 3.5
      vertex -2.17931 0.559552 0
      vertex -2.17931 0.559552 3.5
    endloop
  endfacet
  facet normal 0.982285 -0.187395 0
    outer loop
      vertex -2.17931 0.559552 0
      vertex -2.23226 0.282 3.5
      vertex -2.23226 0.282 0
    endloop
  endfacet
  facet normal 0.588022 -0.808845 0
    outer loop
      vertex -1.4342 1.73365 4.1
      vertex -1.41171 1.75 3.8
      vertex -1.41171 1.75 4.1
    endloop
  endfacet
  facet normal 0.587784 -0.809018 0
    outer loop
      vertex -1.41171 1.75 3.8
      vertex -1.41171 1.75 -0.299999
      vertex -1.20561 1.89974 3.8
    endloop
  endfacet
  facet normal 0.588022 -0.808845 0
    outer loop
      vertex -1.4342 1.73365 4.1
      vertex -1.41171 1.75 -0.299999
      vertex -1.41171 1.75 3.8
    endloop
  endfacet
  facet normal 0.588022 -0.808845 0
    outer loop
      vertex -1.4342 1.73365 -0.599999
      vertex -1.41171 1.75 -0.299999
      vertex -1.4342 1.73365 4.1
    endloop
  endfacet
  facet normal 0.588022 -0.808845 0
    outer loop
      vertex -1.41171 1.75 -0.299999
      vertex -1.4342 1.73365 -0.599999
      vertex -1.41171 1.75 -0.599999
    endloop
  endfacet
  facet normal 0.587784 -0.809018 0
    outer loop
      vertex -1.20561 1.89974 3.8
      vertex -1.41171 1.75 -0.299999
      vertex -1.20561 1.89974 -0.299999
    endloop
  endfacet
  facet normal 0.248692 -0.968583 0
    outer loop
      vertex -0.695288 2.13988 -0.299999
      vertex -0.421607 2.21015 3.8
      vertex -0.695288 2.13988 3.8
    endloop
  endfacet
  facet normal 0.248692 -0.968583 0
    outer loop
      vertex -0.421607 2.21015 3.8
      vertex -0.695288 2.13988 -0.299999
      vertex -0.421607 2.21015 -0.299999
    endloop
  endfacet
  facet normal -0.84433 0.535824 0
    outer loop
      vertex 1.82029 -1.32252 0
      vertex 1.97169 -1.08395 3.5
      vertex 1.97169 -1.08395 0
    endloop
  endfacet
  facet normal -0.84433 0.535824 0
    outer loop
      vertex 1.97169 -1.08395 3.5
      vertex 1.82029 -1.32252 0
      vertex 1.82029 -1.32252 3.5
    endloop
  endfacet
  facet normal -0.982285 0.187395 0
    outer loop
      vertex 2.17931 -0.559552 0
      vertex 2.23226 -0.282 3.5
      vertex 2.23226 -0.282 0
    endloop
  endfacet
  facet normal -0.982285 0.187395 0
    outer loop
      vertex 2.23226 -0.282 3.5
      vertex 2.17931 -0.559552 0
      vertex 2.17931 -0.559552 3.5
    endloop
  endfacet
  facet normal 0.684532 0.728983 -0
    outer loop
      vertex -1.4342 -1.73365 -0.599999
      vertex -1.64018 -1.54023 4.1
      vertex -1.4342 -1.73365 4.1
    endloop
  endfacet
  facet normal 0.684532 0.728983 0
    outer loop
      vertex -1.64018 -1.54023 4.1
      vertex -1.4342 -1.73365 -0.599999
      vertex -1.64018 -1.54023 -0.599999
    endloop
  endfacet
  facet normal 0.904827 0.42578 0
    outer loop
      vertex -1.97169 -1.08395 3.5
      vertex -2.092 -0.828279 0
      vertex -2.092 -0.828279 3.5
    endloop
  endfacet
  facet normal 0.904827 0.42578 0
    outer loop
      vertex -2.092 -0.828279 0
      vertex -1.97169 -1.08395 3.5
      vertex -1.97169 -1.08395 0
    endloop
  endfacet
  facet normal 0.770514 0.637423 0
    outer loop
      vertex -1.64018 -1.54023 4.1
      vertex -1.75 -1.40748 3.5
      vertex -1.75 -1.40748 4.1
    endloop
  endfacet
  facet normal 0.770514 0.637423 0
    outer loop
      vertex -1.75 -1.40748 3.5
      vertex -1.64018 -1.54023 4.1
      vertex -1.75 -1.40748 0
    endloop
  endfacet
  facet normal 0.770514 0.637423 -0
    outer loop
      vertex -1.64018 -1.54023 -0.599999
      vertex -1.75 -1.40748 0
      vertex -1.64018 -1.54023 4.1
    endloop
  endfacet
  facet normal 0.770514 0.637423 0
    outer loop
      vertex -1.75 -1.40748 0
      vertex -1.64018 -1.54023 -0.599999
      vertex -1.75 -1.40748 -0.599999
    endloop
  endfacet
  facet normal 0.770491 0.637451 0
    outer loop
      vertex -1.75 -1.40748 3.5
      vertex -1.82029 -1.32252 0
      vertex -1.82029 -1.32252 3.5
    endloop
  endfacet
  facet normal 0.770491 0.637451 0
    outer loop
      vertex -1.82029 -1.32252 0
      vertex -1.75 -1.40748 3.5
      vertex -1.75 -1.40748 0
    endloop
  endfacet
  facet normal -0.588022 0.808845 0
    outer loop
      vertex 1.4342 -1.73365 4.1
      vertex 1.41171 -1.75 3.8
      vertex 1.41171 -1.75 4.1
    endloop
  endfacet
  facet normal -0.587784 0.809018 0
    outer loop
      vertex 1.41171 -1.75 3.8
      vertex 1.41171 -1.75 -0.299999
      vertex 1.20561 -1.89974 3.8
    endloop
  endfacet
  facet normal -0.588022 0.808845 0
    outer loop
      vertex 1.4342 -1.73365 4.1
      vertex 1.41171 -1.75 -0.299999
      vertex 1.41171 -1.75 3.8
    endloop
  endfacet
  facet normal -0.588022 0.808845 0
    outer loop
      vertex 1.4342 -1.73365 -0.599999
      vertex 1.41171 -1.75 -0.299999
      vertex 1.4342 -1.73365 4.1
    endloop
  endfacet
  facet normal -0.588022 0.808845 0
    outer loop
      vertex 1.41171 -1.75 -0.299999
      vertex 1.4342 -1.73365 -0.599999
      vertex 1.41171 -1.75 -0.599999
    endloop
  endfacet
  facet normal -0.587784 0.809018 0
    outer loop
      vertex 1.20561 -1.89974 3.8
      vertex 1.41171 -1.75 -0.299999
      vertex 1.20561 -1.89974 -0.299999
    endloop
  endfacet
  facet normal -0.904827 0.42578 0
    outer loop
      vertex 1.97169 -1.08395 0
      vertex 2.092 -0.828279 3.5
      vertex 2.092 -0.828279 0
    endloop
  endfacet
  facet normal -0.904827 0.42578 0
    outer loop
      vertex 2.092 -0.828279 3.5
      vertex 1.97169 -1.08395 0
      vertex 1.97169 -1.08395 3.5
    endloop
  endfacet
  facet normal -0.998027 0.0627837 0
    outer loop
      vertex 2.23226 -0.282 0
      vertex 2.25 0 3.5
      vertex 2.25 0 0
    endloop
  endfacet
  facet normal -0.998027 0.0627837 0
    outer loop
      vertex 2.25 0 3.5
      vertex 2.23226 -0.282 0
      vertex 2.23226 -0.282 3.5
    endloop
  endfacet
  facet normal 0.368136 0.929772 -0
    outer loop
      vertex -0.695288 -2.13988 -0.299999
      vertex -0.958003 -2.03586 3.8
      vertex -0.695288 -2.13988 3.8
    endloop
  endfacet
  facet normal 0.368136 0.929772 0
    outer loop
      vertex -0.958003 -2.03586 3.8
      vertex -0.695288 -2.13988 -0.299999
      vertex -0.958003 -2.03586 -0.299999
    endloop
  endfacet
  facet normal 0.951061 0.309002 0
    outer loop
      vertex -2.092 -0.828279 3.5
      vertex -2.17931 -0.559552 0
      vertex -2.17931 -0.559552 3.5
    endloop
  endfacet
  facet normal 0.951061 0.309002 0
    outer loop
      vertex -2.17931 -0.559552 0
      vertex -2.092 -0.828279 3.5
      vertex -2.092 -0.828279 0
    endloop
  endfacet
  facet normal -0.770514 0.637423 0
    outer loop
      vertex 1.64018 -1.54023 -0.599999
      vertex 1.75 -1.40748 0
      vertex 1.75 -1.40748 -0.599999
    endloop
  endfacet
  facet normal -0.770514 0.637423 0
    outer loop
      vertex 1.75 -1.40748 0
      vertex 1.64018 -1.54023 -0.599999
      vertex 1.75 -1.40748 3.5
    endloop
  endfacet
  facet normal -0.770514 0.637423 0
    outer loop
      vertex 1.64018 -1.54023 4.1
      vertex 1.75 -1.40748 3.5
      vertex 1.64018 -1.54023 -0.599999
    endloop
  endfacet
  facet normal -0.770514 0.637423 0
    outer loop
      vertex 1.75 -1.40748 3.5
      vertex 1.64018 -1.54023 4.1
      vertex 1.75 -1.40748 4.1
    endloop
  endfacet
  facet normal -0.770491 0.637451 0
    outer loop
      vertex 1.75 -1.40748 0
      vertex 1.82029 -1.32252 3.5
      vertex 1.82029 -1.32252 0
    endloop
  endfacet
  facet normal -0.770491 0.637451 0
    outer loop
      vertex 1.82029 -1.32252 3.5
      vertex 1.75 -1.40748 0
      vertex 1.75 -1.40748 3.5
    endloop
  endfacet
  facet normal -0.368136 0.929772 0
    outer loop
      vertex 0.958003 -2.03586 -0.299999
      vertex 0.695288 -2.13988 3.8
      vertex 0.958003 -2.03586 3.8
    endloop
  endfacet
  facet normal -0.368136 0.929772 0
    outer loop
      vertex 0.695288 -2.13988 3.8
      vertex 0.958003 -2.03586 -0.299999
      vertex 0.695288 -2.13988 -0.299999
    endloop
  endfacet
  facet normal -0.248692 0.968583 0
    outer loop
      vertex 0.695288 -2.13988 -0.299999
      vertex 0.421607 -2.21015 3.8
      vertex 0.695288 -2.13988 3.8
    endloop
  endfacet
  facet normal -0.248692 0.968583 0
    outer loop
      vertex 0.421607 -2.21015 3.8
      vertex 0.695288 -2.13988 -0.299999
      vertex 0.421607 -2.21015 -0.299999
    endloop
  endfacet
  facet normal 0.481745 0.876311 -0
    outer loop
      vertex -0.958003 -2.03586 -0.299999
      vertex -1.20561 -1.89974 3.8
      vertex -0.958003 -2.03586 3.8
    endloop
  endfacet
  facet normal 0.481745 0.876311 0
    outer loop
      vertex -1.20561 -1.89974 3.8
      vertex -0.958003 -2.03586 -0.299999
      vertex -1.20561 -1.89974 -0.299999
    endloop
  endfacet
  facet normal 0.587784 0.809018 0
    outer loop
      vertex -1.20561 -1.89974 3.8
      vertex -1.20561 -1.89974 -0.299999
      vertex -1.41171 -1.75 3.8
    endloop
  endfacet
  facet normal 0.588022 0.808845 -0
    outer loop
      vertex -1.41171 -1.75 3.8
      vertex -1.4342 -1.73365 4.1
      vertex -1.41171 -1.75 4.1
    endloop
  endfacet
  facet normal 0.587784 0.809018 -0
    outer loop
      vertex -1.41171 -1.75 -0.299999
      vertex -1.41171 -1.75 3.8
      vertex -1.20561 -1.89974 -0.299999
    endloop
  endfacet
  facet normal 0.588022 0.808845 0
    outer loop
      vertex -1.41171 -1.75 3.8
      vertex -1.41171 -1.75 -0.299999
      vertex -1.4342 -1.73365 4.1
    endloop
  endfacet
  facet normal 0.588022 0.808845 0
    outer loop
      vertex -1.4342 -1.73365 -0.599999
      vertex -1.41171 -1.75 -0.299999
      vertex -1.41171 -1.75 -0.599999
    endloop
  endfacet
  facet normal 0.588022 0.808845 0
    outer loop
      vertex -1.41171 -1.75 -0.299999
      vertex -1.4342 -1.73365 -0.599999
      vertex -1.4342 -1.73365 4.1
    endloop
  endfacet
  facet normal 0.84433 0.535824 0
    outer loop
      vertex -1.82029 -1.32252 3.5
      vertex -1.97169 -1.08395 0
      vertex -1.97169 -1.08395 3.5
    endloop
  endfacet
  facet normal 0.84433 0.535824 0
    outer loop
      vertex -1.97169 -1.08395 0
      vertex -1.82029 -1.32252 3.5
      vertex -1.82029 -1.32252 0
    endloop
  endfacet
  facet normal 0.982285 0.187395 0
    outer loop
      vertex -2.17931 -0.559552 3.5
      vertex -2.23226 -0.282 0
      vertex -2.23226 -0.282 3.5
    endloop
  endfacet
  facet normal 0.982285 0.187395 0
    outer loop
      vertex -2.23226 -0.282 0
      vertex -2.17931 -0.559552 3.5
      vertex -2.17931 -0.559552 0
    endloop
  endfacet
  facet normal 0.998027 0.0627837 0
    outer loop
      vertex -2.23226 -0.282 3.5
      vertex -2.25 0 0
      vertex -2.25 0 3.5
    endloop
  endfacet
  facet normal 0.998027 0.0627837 0
    outer loop
      vertex -2.25 0 0
      vertex -2.23226 -0.282 3.5
      vertex -2.23226 -0.282 0
    endloop
  endfacet
  facet normal -0.684532 0.728983 0
    outer loop
      vertex 1.64018 -1.54023 -0.599999
      vertex 1.4342 -1.73365 4.1
      vertex 1.64018 -1.54023 4.1
    endloop
  endfacet
  facet normal -0.684532 0.728983 0
    outer loop
      vertex 1.4342 -1.73365 4.1
      vertex 1.64018 -1.54023 -0.599999
      vertex 1.4342 -1.73365 -0.599999
    endloop
  endfacet
  facet normal -0.481745 0.876311 0
    outer loop
      vertex 1.20561 -1.89974 -0.299999
      vertex 0.958003 -2.03586 3.8
      vertex 1.20561 -1.89974 3.8
    endloop
  endfacet
  facet normal -0.481745 0.876311 0
    outer loop
      vertex 0.958003 -2.03586 3.8
      vertex 1.20561 -1.89974 -0.299999
      vertex 0.958003 -2.03586 -0.299999
    endloop
  endfacet
  facet normal 0.248692 0.968583 -0
    outer loop
      vertex -0.421607 -2.21015 -0.299999
      vertex -0.695288 -2.13988 3.8
      vertex -0.421607 -2.21015 3.8
    endloop
  endfacet
  facet normal 0.248692 0.968583 0
    outer loop
      vertex -0.695288 -2.13988 3.8
      vertex -0.421607 -2.21015 -0.299999
      vertex -0.695288 -2.13988 -0.299999
    endloop
  endfacet
  facet normal 0.12532 0.992116 -0
    outer loop
      vertex -0.141278 -2.24556 -0.299999
      vertex -0.421607 -2.21015 3.8
      vertex -0.141278 -2.24556 3.8
    endloop
  endfacet
  facet normal 0.12532 0.992116 0
    outer loop
      vertex -0.421607 -2.21015 3.8
      vertex -0.141278 -2.24556 -0.299999
      vertex -0.421607 -2.21015 -0.299999
    endloop
  endfacet
endsolid OpenSCAD_Model
