solid OpenSCAD_Model
  facet normal -0.866025 0.5 0
    outer loop
      vertex -3.34659 0 0
      vertex -1.67329 2.89824 3
      vertex -1.67329 2.89824 0
    endloop
  endfacet
  facet normal -0.866025 0.5 0
    outer loop
      vertex -1.67329 2.89824 3
      vertex -3.34659 0 0
      vertex -3.34659 0 3
    endloop
  endfacet
  facet normal 0 1 -0
    outer loop
      vertex 1.67329 2.89824 0
      vertex -1.67329 2.89824 3
      vertex 1.67329 2.89824 3
    endloop
  endfacet
  facet normal 0 1 0
    outer loop
      vertex -1.67329 2.89824 3
      vertex 1.67329 2.89824 0
      vertex -1.67329 2.89824 0
    endloop
  endfacet
  facet normal -0 0 -1
    outer loop
      vertex 3.34659 0 0
      vertex 1.68659 -0.213066 0
      vertex 1.7 0 0
    endloop
  endfacet
  facet normal 0 0 -1
    outer loop
      vertex 1.48972 -0.818981 0
      vertex 3.34659 0 0
      vertex 1.67329 -2.89824 0
    endloop
  endfacet
  facet normal 0 0 -1
    outer loop
      vertex 3.34659 0 0
      vertex 1.64659 -0.422772 0
      vertex 1.68659 -0.213066 0
    endloop
  endfacet
  facet normal 0 0 -1
    outer loop
      vertex 3.34659 0 0
      vertex 1.58062 -0.625812 0
      vertex 1.64659 -0.422772 0
    endloop
  endfacet
  facet normal 0 0 -1
    outer loop
      vertex 3.34659 0 0
      vertex 1.48972 -0.818981 0
      vertex 1.58062 -0.625812 0
    endloop
  endfacet
  facet normal 0 0 -1
    outer loop
      vertex 1.67329 -2.89824 0
      vertex 1.37533 -0.999234 0
      vertex 1.48972 -0.818981 0
    endloop
  endfacet
  facet normal 0 0 -1
    outer loop
      vertex 1.67329 -2.89824 0
      vertex 1.23925 -1.16373 0
      vertex 1.37533 -0.999234 0
    endloop
  endfacet
  facet normal 0 0 -1
    outer loop
      vertex 1.67329 -2.89824 0
      vertex 1.08362 -1.30987 0
      vertex 1.23925 -1.16373 0
    endloop
  endfacet
  facet normal 0 0 -1
    outer loop
      vertex 1.67329 -2.89824 0
      vertex 0.910905 -1.43536 0
      vertex 1.08362 -1.30987 0
    endloop
  endfacet
  facet normal 0 0 -1
    outer loop
      vertex 1.67329 -2.89824 0
      vertex 0.723825 -1.53821 0
      vertex 0.910905 -1.43536 0
    endloop
  endfacet
  facet normal 0 0 -1
    outer loop
      vertex 1.67329 -2.89824 0
      vertex 0.525329 -1.6168 0
      vertex 0.723825 -1.53821 0
    endloop
  endfacet
  facet normal 0 0 -1
    outer loop
      vertex 1.67329 -2.89824 0
      vertex 0.318548 -1.66989 0
      vertex 0.525329 -1.6168 0
    endloop
  endfacet
  facet normal 0 0 -1
    outer loop
      vertex 1.67329 -2.89824 0
      vertex 0.106744 -1.69664 0
      vertex 0.318548 -1.66989 0
    endloop
  endfacet
  facet normal 0 0 -1
    outer loop
      vertex 1.67329 -2.89824 0
      vertex -0.106744 -1.69664 0
      vertex 0.106744 -1.69664 0
    endloop
  endfacet
  facet normal 0 0 -1
    outer loop
      vertex -1.67329 -2.89824 0
      vertex -0.106744 -1.69664 0
      vertex 1.67329 -2.89824 0
    endloop
  endfacet
  facet normal -0 0 -1
    outer loop
      vertex -0.106744 -1.69664 0
      vertex -1.67329 -2.89824 0
      vertex -0.318548 -1.66989 0
    endloop
  endfacet
  facet normal -0 0 -1
    outer loop
      vertex -0.318548 -1.66989 0
      vertex -1.67329 -2.89824 0
      vertex -0.525329 -1.6168 0
    endloop
  endfacet
  facet normal -0 0 -1
    outer loop
      vertex -0.525329 -1.6168 0
      vertex -1.67329 -2.89824 0
      vertex -0.723825 -1.53821 0
    endloop
  endfacet
  facet normal -0 0 -1
    outer loop
      vertex -0.723825 -1.53821 0
      vertex -1.67329 -2.89824 0
      vertex -0.910905 -1.43536 0
    endloop
  endfacet
  facet normal 0 0 -1
    outer loop
      vertex -1.67329 -2.89824 0
      vertex -1.08362 -1.30987 0
      vertex -0.910905 -1.43536 0
    endloop
  endfacet
  facet normal 0 0 -1
    outer loop
      vertex -1.67329 -2.89824 0
      vertex -1.23925 -1.16373 0
      vertex -1.08362 -1.30987 0
    endloop
  endfacet
  facet normal 0 0 -1
    outer loop
      vertex -1.67329 -2.89824 0
      vertex -1.37533 -0.999234 0
      vertex -1.23925 -1.16373 0
    endloop
  endfacet
  facet normal 0 0 -1
    outer loop
      vertex -1.67329 -2.89824 0
      vertex -1.48972 -0.818981 0
      vertex -1.37533 -0.999234 0
    endloop
  endfacet
  facet normal 0 0 -1
    outer loop
      vertex -3.34659 0 0
      vertex -1.48972 -0.818981 0
      vertex -1.67329 -2.89824 0
    endloop
  endfacet
  facet normal 0 0 -1
    outer loop
      vertex -1.48972 -0.818981 0
      vertex -3.34659 0 0
      vertex -1.58062 -0.625812 0
    endloop
  endfacet
  facet normal 0 0 -1
    outer loop
      vertex -1.58062 -0.625812 0
      vertex -3.34659 0 0
      vertex -1.64659 -0.422772 0
    endloop
  endfacet
  facet normal 0 0 -1
    outer loop
      vertex -1.64659 -0.422772 0
      vertex -3.34659 0 0
      vertex -1.68659 -0.213066 0
    endloop
  endfacet
  facet normal 0 0 -1
    outer loop
      vertex -1.68659 -0.213066 0
      vertex -3.34659 0 0
      vertex -1.7 0 0
    endloop
  endfacet
  facet normal 0 0 -1
    outer loop
      vertex 1.68659 0.213066 0
      vertex 3.34659 0 0
      vertex 1.7 0 0
    endloop
  endfacet
  facet normal 0 0 -1
    outer loop
      vertex 1.64659 0.422772 0
      vertex 3.34659 0 0
      vertex 1.68659 0.213066 0
    endloop
  endfacet
  facet normal 0 0 -1
    outer loop
      vertex 1.58062 0.625812 0
      vertex 3.34659 0 0
      vertex 1.64659 0.422772 0
    endloop
  endfacet
  facet normal 0 0 -1
    outer loop
      vertex 1.48972 0.818981 0
      vertex 3.34659 0 0
      vertex 1.58062 0.625812 0
    endloop
  endfacet
  facet normal 0 0 -1
    outer loop
      vertex 3.34659 0 0
      vertex 1.48972 0.818981 0
      vertex 1.67329 2.89824 0
    endloop
  endfacet
  facet normal 0 0 -1
    outer loop
      vertex 1.37533 0.999234 0
      vertex 1.67329 2.89824 0
      vertex 1.48972 0.818981 0
    endloop
  endfacet
  facet normal 0 0 -1
    outer loop
      vertex 1.23925 1.16373 0
      vertex 1.67329 2.89824 0
      vertex 1.37533 0.999234 0
    endloop
  endfacet
  facet normal 0 0 -1
    outer loop
      vertex 1.08362 1.30987 0
      vertex 1.67329 2.89824 0
      vertex 1.23925 1.16373 0
    endloop
  endfacet
  facet normal 0 0 -1
    outer loop
      vertex 0.910905 1.43536 0
      vertex 1.67329 2.89824 0
      vertex 1.08362 1.30987 0
    endloop
  endfacet
  facet normal 0 0 -1
    outer loop
      vertex 0.723825 1.53821 0
      vertex 1.67329 2.89824 0
      vertex 0.910905 1.43536 0
    endloop
  endfacet
  facet normal 0 0 -1
    outer loop
      vertex 0.525329 1.6168 0
      vertex 1.67329 2.89824 0
      vertex 0.723825 1.53821 0
    endloop
  endfacet
  facet normal 0 0 -1
    outer loop
      vertex 0.318548 1.66989 0
      vertex 1.67329 2.89824 0
      vertex 0.525329 1.6168 0
    endloop
  endfacet
  facet normal 0 0 -1
    outer loop
      vertex 0.106744 1.69664 0
      vertex 1.67329 2.89824 0
      vertex 0.318548 1.66989 0
    endloop
  endfacet
  facet normal 0 0 -1
    outer loop
      vertex -0.106744 1.69664 0
      vertex 1.67329 2.89824 0
      vertex 0.106744 1.69664 0
    endloop
  endfacet
  facet normal 0 0 -1
    outer loop
      vertex -1.67329 2.89824 0
      vertex -0.106744 1.69664 0
      vertex -0.318548 1.66989 0
    endloop
  endfacet
  facet normal 0 0 -1
    outer loop
      vertex -1.67329 2.89824 0
      vertex -0.318548 1.66989 0
      vertex -0.525329 1.6168 0
    endloop
  endfacet
  facet normal 0 0 -1
    outer loop
      vertex -1.67329 2.89824 0
      vertex -0.525329 1.6168 0
      vertex -0.723825 1.53821 0
    endloop
  endfacet
  facet normal 0 0 -1
    outer loop
      vertex -1.67329 2.89824 0
      vertex -0.723825 1.53821 0
      vertex -0.910905 1.43536 0
    endloop
  endfacet
  facet normal 0 0 -1
    outer loop
      vertex -0.106744 1.69664 0
      vertex -1.67329 2.89824 0
      vertex 1.67329 2.89824 0
    endloop
  endfacet
  facet normal 0 0 -1
    outer loop
      vertex -1.08362 1.30987 0
      vertex -1.67329 2.89824 0
      vertex -0.910905 1.43536 0
    endloop
  endfacet
  facet normal 0 0 -1
    outer loop
      vertex -1.23925 1.16373 0
      vertex -1.67329 2.89824 0
      vertex -1.08362 1.30987 0
    endloop
  endfacet
  facet normal 0 0 -1
    outer loop
      vertex -1.37533 0.999234 0
      vertex -1.67329 2.89824 0
      vertex -1.23925 1.16373 0
    endloop
  endfacet
  facet normal 0 0 -1
    outer loop
      vertex -1.48972 0.818981 0
      vertex -1.67329 2.89824 0
      vertex -1.37533 0.999234 0
    endloop
  endfacet
  facet normal 0 0 -1
    outer loop
      vertex -3.34659 0 0
      vertex -1.48972 0.818981 0
      vertex -1.58062 0.625812 0
    endloop
  endfacet
  facet normal 0 0 -1
    outer loop
      vertex -3.34659 0 0
      vertex -1.58062 0.625812 0
      vertex -1.64659 0.422772 0
    endloop
  endfacet
  facet normal 0 0 -1
    outer loop
      vertex -3.34659 0 0
      vertex -1.64659 0.422772 0
      vertex -1.68659 0.213066 0
    endloop
  endfacet
  facet normal 0 0 -1
    outer loop
      vertex -3.34659 0 0
      vertex -1.68659 0.213066 0
      vertex -1.7 0 0
    endloop
  endfacet
  facet normal -0 0 -1
    outer loop
      vertex -1.48972 0.818981 0
      vertex -3.34659 0 0
      vertex -1.67329 2.89824 0
    endloop
  endfacet
  facet normal 0 0 1
    outer loop
      vertex 3.34659 0 3
      vertex 1.68659 0.213066 3
      vertex 1.7 0 3
    endloop
  endfacet
  facet normal -0 0 1
    outer loop
      vertex 1.48972 0.818981 3
      vertex 3.34659 0 3
      vertex 1.67329 2.89824 3
    endloop
  endfacet
  facet normal 0 0 1
    outer loop
      vertex 3.34659 0 3
      vertex 1.64659 0.422772 3
      vertex 1.68659 0.213066 3
    endloop
  endfacet
  facet normal 0 0 1
    outer loop
      vertex 3.34659 0 3
      vertex 1.58062 0.625812 3
      vertex 1.64659 0.422772 3
    endloop
  endfacet
  facet normal 0 0 1
    outer loop
      vertex 3.34659 0 3
      vertex 1.48972 0.818981 3
      vertex 1.58062 0.625812 3
    endloop
  endfacet
  facet normal 0 0 1
    outer loop
      vertex 1.67329 2.89824 3
      vertex 1.37533 0.999234 3
      vertex 1.48972 0.818981 3
    endloop
  endfacet
  facet normal 0 0 1
    outer loop
      vertex 1.67329 2.89824 3
      vertex 1.23925 1.16373 3
      vertex 1.37533 0.999234 3
    endloop
  endfacet
  facet normal 0 0 1
    outer loop
      vertex 1.67329 2.89824 3
      vertex 1.08362 1.30987 3
      vertex 1.23925 1.16373 3
    endloop
  endfacet
  facet normal 0 0 1
    outer loop
      vertex 1.67329 2.89824 3
      vertex 0.910905 1.43536 3
      vertex 1.08362 1.30987 3
    endloop
  endfacet
  facet normal 0 0 1
    outer loop
      vertex 1.67329 2.89824 3
      vertex 0.723825 1.53821 3
      vertex 0.910905 1.43536 3
    endloop
  endfacet
  facet normal 0 0 1
    outer loop
      vertex 1.67329 2.89824 3
      vertex 0.525329 1.6168 3
      vertex 0.723825 1.53821 3
    endloop
  endfacet
  facet normal 0 0 1
    outer loop
      vertex 1.67329 2.89824 3
      vertex 0.318548 1.66989 3
      vertex 0.525329 1.6168 3
    endloop
  endfacet
  facet normal 0 0 1
    outer loop
      vertex 1.67329 2.89824 3
      vertex 0.106744 1.69664 3
      vertex 0.318548 1.66989 3
    endloop
  endfacet
  facet normal 0 0 1
    outer loop
      vertex 1.67329 2.89824 3
      vertex -0.106744 1.69664 3
      vertex 0.106744 1.69664 3
    endloop
  endfacet
  facet normal -0 0 1
    outer loop
      vertex -1.67329 2.89824 3
      vertex -0.106744 1.69664 3
      vertex 1.67329 2.89824 3
    endloop
  endfacet
  facet normal 0 0 1
    outer loop
      vertex -0.106744 1.69664 3
      vertex -1.67329 2.89824 3
      vertex -0.318548 1.66989 3
    endloop
  endfacet
  facet normal 0 0 1
    outer loop
      vertex -0.318548 1.66989 3
      vertex -1.67329 2.89824 3
      vertex -0.525329 1.6168 3
    endloop
  endfacet
  facet normal 0 0 1
    outer loop
      vertex -0.525329 1.6168 3
      vertex -1.67329 2.89824 3
      vertex -0.723825 1.53821 3
    endloop
  endfacet
  facet normal 0 0 1
    outer loop
      vertex -0.723825 1.53821 3
      vertex -1.67329 2.89824 3
      vertex -0.910905 1.43536 3
    endloop
  endfacet
  facet normal 0 0 1
    outer loop
      vertex -1.67329 2.89824 3
      vertex -1.08362 1.30987 3
      vertex -0.910905 1.43536 3
    endloop
  endfacet
  facet normal 0 0 1
    outer loop
      vertex -1.67329 2.89824 3
      vertex -1.23925 1.16373 3
      vertex -1.08362 1.30987 3
    endloop
  endfacet
  facet normal 0 0 1
    outer loop
      vertex -1.67329 2.89824 3
      vertex -1.37533 0.999234 3
      vertex -1.23925 1.16373 3
    endloop
  endfacet
  facet normal 0 0 1
    outer loop
      vertex -1.67329 2.89824 3
      vertex -1.48972 0.818981 3
      vertex -1.37533 0.999234 3
    endloop
  endfacet
  facet normal 0 0 1
    outer loop
      vertex -3.34659 0 3
      vertex -1.48972 0.818981 3
      vertex -1.67329 2.89824 3
    endloop
  endfacet
  facet normal 0 0 1
    outer loop
      vertex -1.48972 0.818981 3
      vertex -3.34659 0 3
      vertex -1.58062 0.625812 3
    endloop
  endfacet
  facet normal 0 0 1
    outer loop
      vertex -1.58062 0.625812 3
      vertex -3.34659 0 3
      vertex -1.64659 0.422772 3
    endloop
  endfacet
  facet normal 0 0 1
    outer loop
      vertex -1.64659 0.422772 3
      vertex -3.34659 0 3
      vertex -1.68659 0.213066 3
    endloop
  endfacet
  facet normal 0 0 1
    outer loop
      vertex -1.68659 0.213066 3
      vertex -3.34659 0 3
      vertex -1.7 0 3
    endloop
  endfacet
  facet normal 0 0 1
    outer loop
      vertex 1.68659 -0.213066 3
      vertex 3.34659 0 3
      vertex 1.7 0 3
    endloop
  endfacet
  facet normal 0 0 1
    outer loop
      vertex 1.64659 -0.422772 3
      vertex 3.34659 0 3
      vertex 1.68659 -0.213066 3
    endloop
  endfacet
  facet normal 0 0 1
    outer loop
      vertex 1.58062 -0.625812 3
      vertex 3.34659 0 3
      vertex 1.64659 -0.422772 3
    endloop
  endfacet
  facet normal 0 0 1
    outer loop
      vertex 1.48972 -0.818981 3
      vertex 3.34659 0 3
      vertex 1.58062 -0.625812 3
    endloop
  endfacet
  facet normal 0 0 1
    outer loop
      vertex 3.34659 0 3
      vertex 1.48972 -0.818981 3
      vertex 1.67329 -2.89824 3
    endloop
  endfacet
  facet normal -0 0 1
    outer loop
      vertex 1.37533 -0.999234 3
      vertex 1.67329 -2.89824 3
      vertex 1.48972 -0.818981 3
    endloop
  endfacet
  facet normal -0 0 1
    outer loop
      vertex 1.23925 -1.16373 3
      vertex 1.67329 -2.89824 3
      vertex 1.37533 -0.999234 3
    endloop
  endfacet
  facet normal -0 0 1
    outer loop
      vertex 1.08362 -1.30987 3
      vertex 1.67329 -2.89824 3
      vertex 1.23925 -1.16373 3
    endloop
  endfacet
  facet normal -0 0 1
    outer loop
      vertex 0.910905 -1.43536 3
      vertex 1.67329 -2.89824 3
      vertex 1.08362 -1.30987 3
    endloop
  endfacet
  facet normal -0 0 1
    outer loop
      vertex 0.723825 -1.53821 3
      vertex 1.67329 -2.89824 3
      vertex 0.910905 -1.43536 3
    endloop
  endfacet
  facet normal -0 0 1
    outer loop
      vertex 0.525329 -1.6168 3
      vertex 1.67329 -2.89824 3
      vertex 0.723825 -1.53821 3
    endloop
  endfacet
  facet normal -0 0 1
    outer loop
      vertex 0.318548 -1.66989 3
      vertex 1.67329 -2.89824 3
      vertex 0.525329 -1.6168 3
    endloop
  endfacet
  facet normal -0 0 1
    outer loop
      vertex 0.106744 -1.69664 3
      vertex 1.67329 -2.89824 3
      vertex 0.318548 -1.66989 3
    endloop
  endfacet
  facet normal -0 0 1
    outer loop
      vertex -0.106744 -1.69664 3
      vertex 1.67329 -2.89824 3
      vertex 0.106744 -1.69664 3
    endloop
  endfacet
  facet normal 0 0 1
    outer loop
      vertex -1.67329 -2.89824 3
      vertex -0.106744 -1.69664 3
      vertex -0.318548 -1.66989 3
    endloop
  endfacet
  facet normal 0 0 1
    outer loop
      vertex -1.67329 -2.89824 3
      vertex -0.318548 -1.66989 3
      vertex -0.525329 -1.6168 3
    endloop
  endfacet
  facet normal 0 0 1
    outer loop
      vertex -1.67329 -2.89824 3
      vertex -0.525329 -1.6168 3
      vertex -0.723825 -1.53821 3
    endloop
  endfacet
  facet normal 0 0 1
    outer loop
      vertex -1.67329 -2.89824 3
      vertex -0.723825 -1.53821 3
      vertex -0.910905 -1.43536 3
    endloop
  endfacet
  facet normal 0 0 1
    outer loop
      vertex -0.106744 -1.69664 3
      vertex -1.67329 -2.89824 3
      vertex 1.67329 -2.89824 3
    endloop
  endfacet
  facet normal 0 0 1
    outer loop
      vertex -1.08362 -1.30987 3
      vertex -1.67329 -2.89824 3
      vertex -0.910905 -1.43536 3
    endloop
  endfacet
  facet normal 0 0 1
    outer loop
      vertex -1.23925 -1.16373 3
      vertex -1.67329 -2.89824 3
      vertex -1.08362 -1.30987 3
    endloop
  endfacet
  facet normal 0 0 1
    outer loop
      vertex -1.37533 -0.999234 3
      vertex -1.67329 -2.89824 3
      vertex -1.23925 -1.16373 3
    endloop
  endfacet
  facet normal 0 0 1
    outer loop
      vertex -1.48972 -0.818981 3
      vertex -1.67329 -2.89824 3
      vertex -1.37533 -0.999234 3
    endloop
  endfacet
  facet normal 0 0 1
    outer loop
      vertex -3.34659 0 3
      vertex -1.48972 -0.818981 3
      vertex -1.58062 -0.625812 3
    endloop
  endfacet
  facet normal 0 0 1
    outer loop
      vertex -3.34659 0 3
      vertex -1.58062 -0.625812 3
      vertex -1.64659 -0.422772 3
    endloop
  endfacet
  facet normal 0 0 1
    outer loop
      vertex -3.34659 0 3
      vertex -1.64659 -0.422772 3
      vertex -1.68659 -0.213066 3
    endloop
  endfacet
  facet normal -0 0 1
    outer loop
      vertex -3.34659 0 3
      vertex -1.68659 -0.213066 3
      vertex -1.7 0 3
    endloop
  endfacet
  facet normal 0 0 1
    outer loop
      vertex -1.48972 -0.818981 3
      vertex -3.34659 0 3
      vertex -1.67329 -2.89824 3
    endloop
  endfacet
  facet normal 0.866025 -0.5 0
    outer loop
      vertex 1.67329 -2.89824 3
      vertex 3.34659 0 0
      vertex 3.34659 0 3
    endloop
  endfacet
  facet normal 0.866025 -0.5 0
    outer loop
      vertex 3.34659 0 0
      vertex 1.67329 -2.89824 3
      vertex 1.67329 -2.89824 0
    endloop
  endfacet
  facet normal 0.866025 0.5 0
    outer loop
      vertex 3.34659 0 3
      vertex 1.67329 2.89824 0
      vertex 1.67329 2.89824 3
    endloop
  endfacet
  facet normal 0.866025 0.5 0
    outer loop
      vertex 1.67329 2.89824 0
      vertex 3.34659 0 3
      vertex 3.34659 0 0
    endloop
  endfacet
  facet normal 0 -1 0
    outer loop
      vertex -1.67329 -2.89824 0
      vertex 1.67329 -2.89824 3
      vertex -1.67329 -2.89824 3
    endloop
  endfacet
  facet normal 0 -1 -0
    outer loop
      vertex 1.67329 -2.89824 3
      vertex -1.67329 -2.89824 0
      vertex 1.67329 -2.89824 0
    endloop
  endfacet
  facet normal -0.866025 -0.5 0
    outer loop
      vertex -1.67329 -2.89824 0
      vertex -3.34659 0 3
      vertex -3.34659 0 0
    endloop
  endfacet
  facet normal -0.866025 -0.5 0
    outer loop
      vertex -3.34659 0 3
      vertex -1.67329 -2.89824 0
      vertex -1.67329 -2.89824 3
    endloop
  endfacet
  facet normal -0.904824 -0.425785 0
    outer loop
      vertex 1.58062 0.625812 0
      vertex 1.48972 0.818981 3
      vertex 1.48972 0.818981 0
    endloop
  endfacet
  facet normal -0.904824 -0.425785 0
    outer loop
      vertex 1.48972 0.818981 3
      vertex 1.58062 0.625812 0
      vertex 1.58062 0.625812 3
    endloop
  endfacet
  facet normal -0.844332 -0.53582 0
    outer loop
      vertex 1.48972 0.818981 0
      vertex 1.37533 0.999234 3
      vertex 1.37533 0.999234 0
    endloop
  endfacet
  facet normal -0.844332 -0.53582 0
    outer loop
      vertex 1.37533 0.999234 3
      vertex 1.48972 0.818981 0
      vertex 1.48972 0.818981 3
    endloop
  endfacet
  facet normal -0.368124 -0.929777 0
    outer loop
      vertex 0.525329 1.6168 0
      vertex 0.723825 1.53821 3
      vertex 0.525329 1.6168 3
    endloop
  endfacet
  facet normal -0.368124 -0.929777 -0
    outer loop
      vertex 0.723825 1.53821 3
      vertex 0.525329 1.6168 0
      vertex 0.723825 1.53821 0
    endloop
  endfacet
  facet normal 0.368124 -0.929777 0
    outer loop
      vertex -0.723825 1.53821 0
      vertex -0.525329 1.6168 3
      vertex -0.723825 1.53821 3
    endloop
  endfacet
  facet normal 0.368124 -0.929777 0
    outer loop
      vertex -0.525329 1.6168 3
      vertex -0.723825 1.53821 0
      vertex -0.525329 1.6168 0
    endloop
  endfacet
  facet normal 0.904824 -0.425785 0
    outer loop
      vertex -1.58062 0.625812 3
      vertex -1.48972 0.818981 0
      vertex -1.48972 0.818981 3
    endloop
  endfacet
  facet normal 0.904824 -0.425785 0
    outer loop
      vertex -1.48972 0.818981 0
      vertex -1.58062 0.625812 3
      vertex -1.58062 0.625812 0
    endloop
  endfacet
  facet normal -0.998025 0.062814 0
    outer loop
      vertex 1.68659 -0.213066 0
      vertex 1.7 0 3
      vertex 1.7 0 0
    endloop
  endfacet
  facet normal -0.998025 0.062814 0
    outer loop
      vertex 1.7 0 3
      vertex 1.68659 -0.213066 0
      vertex 1.68659 -0.213066 3
    endloop
  endfacet
  facet normal -0.684531 -0.728983 0
    outer loop
      vertex 1.08362 1.30987 0
      vertex 1.23925 1.16373 3
      vertex 1.08362 1.30987 3
    endloop
  endfacet
  facet normal -0.684531 -0.728983 -0
    outer loop
      vertex 1.23925 1.16373 3
      vertex 1.08362 1.30987 0
      vertex 1.23925 1.16373 0
    endloop
  endfacet
  facet normal 0 -1 0
    outer loop
      vertex -0.106744 1.69664 0
      vertex 0.106744 1.69664 3
      vertex -0.106744 1.69664 3
    endloop
  endfacet
  facet normal 0 -1 -0
    outer loop
      vertex 0.106744 1.69664 3
      vertex -0.106744 1.69664 0
      vertex 0.106744 1.69664 0
    endloop
  endfacet
  facet normal -0.587801 -0.809005 0
    outer loop
      vertex 0.910905 1.43536 0
      vertex 1.08362 1.30987 3
      vertex 0.910905 1.43536 3
    endloop
  endfacet
  facet normal -0.587801 -0.809005 -0
    outer loop
      vertex 1.08362 1.30987 3
      vertex 0.910905 1.43536 0
      vertex 1.08362 1.30987 0
    endloop
  endfacet
  facet normal 0.998025 -0.062814 0
    outer loop
      vertex -1.7 0 3
      vertex -1.68659 0.213066 0
      vertex -1.68659 0.213066 3
    endloop
  endfacet
  facet normal 0.998025 -0.062814 0
    outer loop
      vertex -1.68659 0.213066 0
      vertex -1.7 0 3
      vertex -1.7 0 0
    endloop
  endfacet
  facet normal 0.77052 -0.637416 0
    outer loop
      vertex -1.37533 0.999234 3
      vertex -1.23925 1.16373 0
      vertex -1.23925 1.16373 3
    endloop
  endfacet
  facet normal 0.77052 -0.637416 0
    outer loop
      vertex -1.23925 1.16373 0
      vertex -1.37533 0.999234 3
      vertex -1.37533 0.999234 0
    endloop
  endfacet
  facet normal 0.481761 -0.876303 0
    outer loop
      vertex -0.910905 1.43536 0
      vertex -0.723825 1.53821 3
      vertex -0.910905 1.43536 3
    endloop
  endfacet
  facet normal 0.481761 -0.876303 0
    outer loop
      vertex -0.723825 1.53821 3
      vertex -0.910905 1.43536 0
      vertex -0.723825 1.53821 0
    endloop
  endfacet
  facet normal 0.24868 -0.968586 0
    outer loop
      vertex -0.525329 1.6168 0
      vertex -0.318548 1.66989 3
      vertex -0.525329 1.6168 3
    endloop
  endfacet
  facet normal 0.24868 -0.968586 0
    outer loop
      vertex -0.318548 1.66989 3
      vertex -0.525329 1.6168 0
      vertex -0.318548 1.66989 0
    endloop
  endfacet
  facet normal 0.684531 0.728983 -0
    outer loop
      vertex -1.08362 -1.30987 0
      vertex -1.23925 -1.16373 3
      vertex -1.08362 -1.30987 3
    endloop
  endfacet
  facet normal 0.684531 0.728983 0
    outer loop
      vertex -1.23925 -1.16373 3
      vertex -1.08362 -1.30987 0
      vertex -1.23925 -1.16373 0
    endloop
  endfacet
  facet normal 0.904824 0.425785 0
    outer loop
      vertex -1.48972 -0.818981 3
      vertex -1.58062 -0.625812 0
      vertex -1.58062 -0.625812 3
    endloop
  endfacet
  facet normal 0.904824 0.425785 0
    outer loop
      vertex -1.58062 -0.625812 0
      vertex -1.48972 -0.818981 3
      vertex -1.48972 -0.818981 0
    endloop
  endfacet
  facet normal -0.904824 0.425785 0
    outer loop
      vertex 1.48972 -0.818981 0
      vertex 1.58062 -0.625812 3
      vertex 1.58062 -0.625812 0
    endloop
  endfacet
  facet normal -0.904824 0.425785 0
    outer loop
      vertex 1.58062 -0.625812 3
      vertex 1.48972 -0.818981 0
      vertex 1.48972 -0.818981 3
    endloop
  endfacet
  facet normal -0.481761 0.876303 0
    outer loop
      vertex 0.910905 -1.43536 0
      vertex 0.723825 -1.53821 3
      vertex 0.910905 -1.43536 3
    endloop
  endfacet
  facet normal -0.481761 0.876303 0
    outer loop
      vertex 0.723825 -1.53821 3
      vertex 0.910905 -1.43536 0
      vertex 0.723825 -1.53821 0
    endloop
  endfacet
  facet normal -0.98229 -0.187365 0
    outer loop
      vertex 1.68659 0.213066 0
      vertex 1.64659 0.422772 3
      vertex 1.64659 0.422772 0
    endloop
  endfacet
  facet normal -0.98229 -0.187365 0
    outer loop
      vertex 1.64659 0.422772 3
      vertex 1.68659 0.213066 0
      vertex 1.68659 0.213066 3
    endloop
  endfacet
  facet normal -0.951059 -0.30901 0
    outer loop
      vertex 1.64659 0.422772 0
      vertex 1.58062 0.625812 3
      vertex 1.58062 0.625812 0
    endloop
  endfacet
  facet normal -0.951059 -0.30901 0
    outer loop
      vertex 1.58062 0.625812 3
      vertex 1.64659 0.422772 0
      vertex 1.64659 0.422772 3
    endloop
  endfacet
  facet normal -0.77052 -0.637416 0
    outer loop
      vertex 1.37533 0.999234 0
      vertex 1.23925 1.16373 3
      vertex 1.23925 1.16373 0
    endloop
  endfacet
  facet normal -0.77052 -0.637416 0
    outer loop
      vertex 1.23925 1.16373 3
      vertex 1.37533 0.999234 0
      vertex 1.37533 0.999234 3
    endloop
  endfacet
  facet normal -0.24868 -0.968586 0
    outer loop
      vertex 0.318548 1.66989 0
      vertex 0.525329 1.6168 3
      vertex 0.318548 1.66989 3
    endloop
  endfacet
  facet normal -0.24868 -0.968586 -0
    outer loop
      vertex 0.525329 1.6168 3
      vertex 0.318548 1.66989 0
      vertex 0.525329 1.6168 0
    endloop
  endfacet
  facet normal -0.125301 -0.992119 0
    outer loop
      vertex 0.106744 1.69664 0
      vertex 0.318548 1.66989 3
      vertex 0.106744 1.69664 3
    endloop
  endfacet
  facet normal -0.125301 -0.992119 -0
    outer loop
      vertex 0.318548 1.66989 3
      vertex 0.106744 1.69664 0
      vertex 0.318548 1.66989 0
    endloop
  endfacet
  facet normal -0.481761 -0.876303 0
    outer loop
      vertex 0.723825 1.53821 0
      vertex 0.910905 1.43536 3
      vertex 0.723825 1.53821 3
    endloop
  endfacet
  facet normal -0.481761 -0.876303 -0
    outer loop
      vertex 0.910905 1.43536 3
      vertex 0.723825 1.53821 0
      vertex 0.910905 1.43536 0
    endloop
  endfacet
  facet normal 0.951059 -0.30901 0
    outer loop
      vertex -1.64659 0.422772 3
      vertex -1.58062 0.625812 0
      vertex -1.58062 0.625812 3
    endloop
  endfacet
  facet normal 0.951059 -0.30901 0
    outer loop
      vertex -1.58062 0.625812 0
      vertex -1.64659 0.422772 3
      vertex -1.64659 0.422772 0
    endloop
  endfacet
  facet normal 0.98229 -0.187365 0
    outer loop
      vertex -1.68659 0.213066 3
      vertex -1.64659 0.422772 0
      vertex -1.64659 0.422772 3
    endloop
  endfacet
  facet normal 0.98229 -0.187365 0
    outer loop
      vertex -1.64659 0.422772 0
      vertex -1.68659 0.213066 3
      vertex -1.68659 0.213066 0
    endloop
  endfacet
  facet normal 0.844332 -0.53582 0
    outer loop
      vertex -1.48972 0.818981 3
      vertex -1.37533 0.999234 0
      vertex -1.37533 0.999234 3
    endloop
  endfacet
  facet normal 0.844332 -0.53582 0
    outer loop
      vertex -1.37533 0.999234 0
      vertex -1.48972 0.818981 3
      vertex -1.48972 0.818981 0
    endloop
  endfacet
  facet normal 0.125301 -0.992119 0
    outer loop
      vertex -0.318548 1.66989 0
      vertex -0.106744 1.69664 3
      vertex -0.318548 1.66989 3
    endloop
  endfacet
  facet normal 0.125301 -0.992119 0
    outer loop
      vertex -0.106744 1.69664 3
      vertex -0.318548 1.66989 0
      vertex -0.106744 1.69664 0
    endloop
  endfacet
  facet normal 0.587801 -0.809005 0
    outer loop
      vertex -1.08362 1.30987 0
      vertex -0.910905 1.43536 3
      vertex -1.08362 1.30987 3
    endloop
  endfacet
  facet normal 0.587801 -0.809005 0
    outer loop
      vertex -0.910905 1.43536 3
      vertex -1.08362 1.30987 0
      vertex -0.910905 1.43536 0
    endloop
  endfacet
  facet normal 0.684531 -0.728983 0
    outer loop
      vertex -1.23925 1.16373 0
      vertex -1.08362 1.30987 3
      vertex -1.23925 1.16373 3
    endloop
  endfacet
  facet normal 0.684531 -0.728983 0
    outer loop
      vertex -1.08362 1.30987 3
      vertex -1.23925 1.16373 0
      vertex -1.08362 1.30987 0
    endloop
  endfacet
  facet normal -0.998025 -0.062814 0
    outer loop
      vertex 1.7 0 0
      vertex 1.68659 0.213066 3
      vertex 1.68659 0.213066 0
    endloop
  endfacet
  facet normal -0.998025 -0.062814 0
    outer loop
      vertex 1.68659 0.213066 3
      vertex 1.7 0 0
      vertex 1.7 0 3
    endloop
  endfacet
  facet normal 0 1 -0
    outer loop
      vertex 0.106744 -1.69664 0
      vertex -0.106744 -1.69664 3
      vertex 0.106744 -1.69664 3
    endloop
  endfacet
  facet normal 0 1 0
    outer loop
      vertex -0.106744 -1.69664 3
      vertex 0.106744 -1.69664 0
      vertex -0.106744 -1.69664 0
    endloop
  endfacet
  facet normal 0.998025 0.062814 0
    outer loop
      vertex -1.68659 -0.213066 3
      vertex -1.7 0 0
      vertex -1.7 0 3
    endloop
  endfacet
  facet normal 0.998025 0.062814 0
    outer loop
      vertex -1.7 0 0
      vertex -1.68659 -0.213066 3
      vertex -1.68659 -0.213066 0
    endloop
  endfacet
  facet normal 0.844332 0.53582 0
    outer loop
      vertex -1.37533 -0.999234 3
      vertex -1.48972 -0.818981 0
      vertex -1.48972 -0.818981 3
    endloop
  endfacet
  facet normal 0.844332 0.53582 0
    outer loop
      vertex -1.48972 -0.818981 0
      vertex -1.37533 -0.999234 3
      vertex -1.37533 -0.999234 0
    endloop
  endfacet
  facet normal -0.951059 0.30901 0
    outer loop
      vertex 1.58062 -0.625812 0
      vertex 1.64659 -0.422772 3
      vertex 1.64659 -0.422772 0
    endloop
  endfacet
  facet normal -0.951059 0.30901 0
    outer loop
      vertex 1.64659 -0.422772 3
      vertex 1.58062 -0.625812 0
      vertex 1.58062 -0.625812 3
    endloop
  endfacet
  facet normal -0.125301 0.992119 0
    outer loop
      vertex 0.318548 -1.66989 0
      vertex 0.106744 -1.69664 3
      vertex 0.318548 -1.66989 3
    endloop
  endfacet
  facet normal -0.125301 0.992119 0
    outer loop
      vertex 0.106744 -1.69664 3
      vertex 0.318548 -1.66989 0
      vertex 0.106744 -1.69664 0
    endloop
  endfacet
  facet normal 0.481761 0.876303 -0
    outer loop
      vertex -0.723825 -1.53821 0
      vertex -0.910905 -1.43536 3
      vertex -0.723825 -1.53821 3
    endloop
  endfacet
  facet normal 0.481761 0.876303 0
    outer loop
      vertex -0.910905 -1.43536 3
      vertex -0.723825 -1.53821 0
      vertex -0.910905 -1.43536 0
    endloop
  endfacet
  facet normal 0.125301 0.992119 -0
    outer loop
      vertex -0.106744 -1.69664 0
      vertex -0.318548 -1.66989 3
      vertex -0.106744 -1.69664 3
    endloop
  endfacet
  facet normal 0.125301 0.992119 0
    outer loop
      vertex -0.318548 -1.66989 3
      vertex -0.106744 -1.69664 0
      vertex -0.318548 -1.66989 0
    endloop
  endfacet
  facet normal 0.24868 0.968586 -0
    outer loop
      vertex -0.318548 -1.66989 0
      vertex -0.525329 -1.6168 3
      vertex -0.318548 -1.66989 3
    endloop
  endfacet
  facet normal 0.24868 0.968586 0
    outer loop
      vertex -0.525329 -1.6168 3
      vertex -0.318548 -1.66989 0
      vertex -0.525329 -1.6168 0
    endloop
  endfacet
  facet normal 0.951059 0.30901 0
    outer loop
      vertex -1.58062 -0.625812 3
      vertex -1.64659 -0.422772 0
      vertex -1.64659 -0.422772 3
    endloop
  endfacet
  facet normal 0.951059 0.30901 0
    outer loop
      vertex -1.64659 -0.422772 0
      vertex -1.58062 -0.625812 3
      vertex -1.58062 -0.625812 0
    endloop
  endfacet
  facet normal 0.98229 0.187365 0
    outer loop
      vertex -1.64659 -0.422772 3
      vertex -1.68659 -0.213066 0
      vertex -1.68659 -0.213066 3
    endloop
  endfacet
  facet normal 0.98229 0.187365 0
    outer loop
      vertex -1.68659 -0.213066 0
      vertex -1.64659 -0.422772 3
      vertex -1.64659 -0.422772 0
    endloop
  endfacet
  facet normal 0.77052 0.637416 0
    outer loop
      vertex -1.23925 -1.16373 3
      vertex -1.37533 -0.999234 0
      vertex -1.37533 -0.999234 3
    endloop
  endfacet
  facet normal 0.77052 0.637416 0
    outer loop
      vertex -1.37533 -0.999234 0
      vertex -1.23925 -1.16373 3
      vertex -1.23925 -1.16373 0
    endloop
  endfacet
  facet normal -0.98229 0.187365 0
    outer loop
      vertex 1.64659 -0.422772 0
      vertex 1.68659 -0.213066 3
      vertex 1.68659 -0.213066 0
    endloop
  endfacet
  facet normal -0.98229 0.187365 0
    outer loop
      vertex 1.68659 -0.213066 3
      vertex 1.64659 -0.422772 0
      vertex 1.64659 -0.422772 3
    endloop
  endfacet
  facet normal -0.368124 0.929777 0
    outer loop
      vertex 0.723825 -1.53821 0
      vertex 0.525329 -1.6168 3
      vertex 0.723825 -1.53821 3
    endloop
  endfacet
  facet normal -0.368124 0.929777 0
    outer loop
      vertex 0.525329 -1.6168 3
      vertex 0.723825 -1.53821 0
      vertex 0.525329 -1.6168 0
    endloop
  endfacet
  facet normal -0.24868 0.968586 0
    outer loop
      vertex 0.525329 -1.6168 0
      vertex 0.318548 -1.66989 3
      vertex 0.525329 -1.6168 3
    endloop
  endfacet
  facet normal -0.24868 0.968586 0
    outer loop
      vertex 0.318548 -1.66989 3
      vertex 0.525329 -1.6168 0
      vertex 0.318548 -1.66989 0
    endloop
  endfacet
  facet normal -0.587801 0.809005 0
    outer loop
      vertex 1.08362 -1.30987 0
      vertex 0.910905 -1.43536 3
      vertex 1.08362 -1.30987 3
    endloop
  endfacet
  facet normal -0.587801 0.809005 0
    outer loop
      vertex 0.910905 -1.43536 3
      vertex 1.08362 -1.30987 0
      vertex 0.910905 -1.43536 0
    endloop
  endfacet
  facet normal -0.844332 0.53582 0
    outer loop
      vertex 1.37533 -0.999234 0
      vertex 1.48972 -0.818981 3
      vertex 1.48972 -0.818981 0
    endloop
  endfacet
  facet normal -0.844332 0.53582 0
    outer loop
      vertex 1.48972 -0.818981 3
      vertex 1.37533 -0.999234 0
      vertex 1.37533 -0.999234 3
    endloop
  endfacet
  facet normal -0.77052 0.637416 0
    outer loop
      vertex 1.23925 -1.16373 0
      vertex 1.37533 -0.999234 3
      vertex 1.37533 -0.999234 0
    endloop
  endfacet
  facet normal -0.77052 0.637416 0
    outer loop
      vertex 1.37533 -0.999234 3
      vertex 1.23925 -1.16373 0
      vertex 1.23925 -1.16373 3
    endloop
  endfacet
  facet normal -0.684531 0.728983 0
    outer loop
      vertex 1.23925 -1.16373 0
      vertex 1.08362 -1.30987 3
      vertex 1.23925 -1.16373 3
    endloop
  endfacet
  facet normal -0.684531 0.728983 0
    outer loop
      vertex 1.08362 -1.30987 3
      vertex 1.23925 -1.16373 0
      vertex 1.08362 -1.30987 0
    endloop
  endfacet
  facet normal 0.587801 0.809005 -0
    outer loop
      vertex -0.910905 -1.43536 0
      vertex -1.08362 -1.30987 3
      vertex -0.910905 -1.43536 3
    endloop
  endfacet
  facet normal 0.587801 0.809005 0
    outer loop
      vertex -1.08362 -1.30987 3
      vertex -0.910905 -1.43536 0
      vertex -1.08362 -1.30987 0
    endloop
  endfacet
  facet normal 0.368124 0.929777 -0
    outer loop
      vertex -0.525329 -1.6168 0
      vertex -0.723825 -1.53821 3
      vertex -0.525329 -1.6168 3
    endloop
  endfacet
  facet normal 0.368124 0.929777 0
    outer loop
      vertex -0.723825 -1.53821 3
      vertex -0.525329 -1.6168 0
      vertex -0.723825 -1.53821 0
    endloop
  endfacet
endsolid OpenSCAD_Model
