solid OpenSCAD_Model
  facet normal -0.998031 -0.0627292 0
    outer loop
      vertex -11.75 -15 0
      vertex -11.7756 -14.5927 3
      vertex -11.7756 -14.5927 0
    endloop
  endfacet
  facet normal -0.998031 -0.0627292 0
    outer loop
      vertex -11.7756 -14.5927 3
      vertex -11.75 -15 0
      vertex -11.75 -15 3
    endloop
  endfacet
  facet normal 0.998031 -0.0627292 0
    outer loop
      vertex -18.25 -15 3
      vertex -18.2244 -14.5927 0
      vertex -18.2244 -14.5927 3
    endloop
  endfacet
  facet normal 0.998031 -0.0627292 0
    outer loop
      vertex -18.2244 -14.5927 0
      vertex -18.25 -15 3
      vertex -18.25 -15 0
    endloop
  endfacet
  facet normal 0 -1 0
    outer loop
      vertex -15.2041 -11.7564 0
      vertex -14.7959 -11.7564 3
      vertex -15.2041 -11.7564 3
    endloop
  endfacet
  facet normal 0 -1 -0
    outer loop
      vertex -14.7959 -11.7564 3
      vertex -15.2041 -11.7564 0
      vertex -14.7959 -11.7564 0
    endloop
  endfacet
  facet normal 0 1 -0
    outer loop
      vertex -14.7959 -18.2436 0
      vertex -15.2041 -18.2436 3
      vertex -14.7959 -18.2436 3
    endloop
  endfacet
  facet normal 0 1 0
    outer loop
      vertex -15.2041 -18.2436 3
      vertex -14.7959 -18.2436 0
      vertex -15.2041 -18.2436 0
    endloop
  endfacet
  facet normal -0.770486 0.637457 0
    outer loop
      vertex -12.6309 -17.2248 0
      vertex -12.3707 -16.9103 3
      vertex -12.3707 -16.9103 0
    endloop
  endfacet
  facet normal -0.770486 0.637457 0
    outer loop
      vertex -12.3707 -16.9103 3
      vertex -12.6309 -17.2248 0
      vertex -12.6309 -17.2248 3
    endloop
  endfacet
  facet normal -0.684585 -0.728933 0
    outer loop
      vertex -12.9284 -12.4958 0
      vertex -12.6309 -12.7752 3
      vertex -12.9284 -12.4958 3
    endloop
  endfacet
  facet normal -0.684585 -0.728933 -0
    outer loop
      vertex -12.6309 -12.7752 3
      vertex -12.9284 -12.4958 0
      vertex -12.6309 -12.7752 0
    endloop
  endfacet
  facet normal 0.684585 -0.728933 0
    outer loop
      vertex -17.3691 -12.7752 0
      vertex -17.0716 -12.4958 3
      vertex -17.3691 -12.7752 3
    endloop
  endfacet
  facet normal 0.684585 -0.728933 0
    outer loop
      vertex -17.0716 -12.4958 3
      vertex -17.3691 -12.7752 0
      vertex -17.0716 -12.4958 0
    endloop
  endfacet
  facet normal 0.368009 -0.929822 0
    outer loop
      vertex -16.3838 -12.0593 0
      vertex -16.0043 -11.9091 3
      vertex -16.3838 -12.0593 3
    endloop
  endfacet
  facet normal 0.368009 -0.929822 0
    outer loop
      vertex -16.0043 -11.9091 3
      vertex -16.3838 -12.0593 0
      vertex -16.0043 -11.9091 0
    endloop
  endfacet
  facet normal -0.904808 -0.425821 0
    outer loop
      vertex -11.9782 -13.8036 0
      vertex -12.152 -13.4343 3
      vertex -12.152 -13.4343 0
    endloop
  endfacet
  facet normal -0.904808 -0.425821 0
    outer loop
      vertex -12.152 -13.4343 3
      vertex -11.9782 -13.8036 0
      vertex -11.9782 -13.8036 3
    endloop
  endfacet
  facet normal -0.844317 -0.535845 0
    outer loop
      vertex -12.152 -13.4343 0
      vertex -12.3707 -13.0897 3
      vertex -12.3707 -13.0897 0
    endloop
  endfacet
  facet normal -0.844317 -0.535845 0
    outer loop
      vertex -12.3707 -13.0897 3
      vertex -12.152 -13.4343 0
      vertex -12.152 -13.4343 3
    endloop
  endfacet
  facet normal -0.368009 -0.929822 0
    outer loop
      vertex -13.9957 -11.9091 0
      vertex -13.6162 -12.0593 3
      vertex -13.9957 -11.9091 3
    endloop
  endfacet
  facet normal -0.368009 -0.929822 -0
    outer loop
      vertex -13.6162 -12.0593 3
      vertex -13.9957 -11.9091 0
      vertex -13.6162 -12.0593 0
    endloop
  endfacet
  facet normal -0.2487 -0.968581 0
    outer loop
      vertex -14.391 -11.8076 0
      vertex -13.9957 -11.9091 3
      vertex -14.391 -11.8076 3
    endloop
  endfacet
  facet normal -0.2487 -0.968581 -0
    outer loop
      vertex -13.9957 -11.9091 3
      vertex -14.391 -11.8076 0
      vertex -13.9957 -11.9091 0
    endloop
  endfacet
  facet normal -0.587778 -0.809022 0
    outer loop
      vertex -13.2586 -12.2559 0
      vertex -12.9284 -12.4958 3
      vertex -13.2586 -12.2559 3
    endloop
  endfacet
  facet normal -0.587778 -0.809022 -0
    outer loop
      vertex -12.9284 -12.4958 3
      vertex -13.2586 -12.2559 0
      vertex -12.9284 -12.4958 0
    endloop
  endfacet
  facet normal 0.904808 -0.425821 0
    outer loop
      vertex -18.0218 -13.8036 3
      vertex -17.848 -13.4343 0
      vertex -17.848 -13.4343 3
    endloop
  endfacet
  facet normal 0.904808 -0.425821 0
    outer loop
      vertex -17.848 -13.4343 0
      vertex -18.0218 -13.8036 3
      vertex -18.0218 -13.8036 0
    endloop
  endfacet
  facet normal 0.770486 -0.637457 0
    outer loop
      vertex -17.6293 -13.0897 3
      vertex -17.3691 -12.7752 0
      vertex -17.3691 -12.7752 3
    endloop
  endfacet
  facet normal 0.770486 -0.637457 0
    outer loop
      vertex -17.3691 -12.7752 0
      vertex -17.6293 -13.0897 3
      vertex -17.6293 -13.0897 0
    endloop
  endfacet
  facet normal 0.951081 -0.308942 0
    outer loop
      vertex -18.1479 -14.1918 3
      vertex -18.0218 -13.8036 0
      vertex -18.0218 -13.8036 3
    endloop
  endfacet
  facet normal 0.951081 -0.308942 0
    outer loop
      vertex -18.0218 -13.8036 0
      vertex -18.1479 -14.1918 3
      vertex -18.1479 -14.1918 0
    endloop
  endfacet
  facet normal 0.481768 -0.876299 0
    outer loop
      vertex -16.7414 -12.2559 0
      vertex -16.3838 -12.0593 3
      vertex -16.7414 -12.2559 3
    endloop
  endfacet
  facet normal 0.481768 -0.876299 0
    outer loop
      vertex -16.3838 -12.0593 3
      vertex -16.7414 -12.2559 0
      vertex -16.3838 -12.0593 0
    endloop
  endfacet
  facet normal 0.125452 -0.9921 0
    outer loop
      vertex -15.609 -11.8076 0
      vertex -15.2041 -11.7564 3
      vertex -15.609 -11.8076 3
    endloop
  endfacet
  facet normal 0.125452 -0.9921 0
    outer loop
      vertex -15.2041 -11.7564 3
      vertex -15.609 -11.8076 0
      vertex -15.2041 -11.7564 0
    endloop
  endfacet
  facet normal -0.125452 0.9921 0
    outer loop
      vertex -14.391 -18.1924 0
      vertex -14.7959 -18.2436 3
      vertex -14.391 -18.1924 3
    endloop
  endfacet
  facet normal -0.125452 0.9921 0
    outer loop
      vertex -14.7959 -18.2436 3
      vertex -14.391 -18.1924 0
      vertex -14.7959 -18.2436 0
    endloop
  endfacet
  facet normal -0.481768 0.876299 0
    outer loop
      vertex -13.2586 -17.7441 0
      vertex -13.6162 -17.9407 3
      vertex -13.2586 -17.7441 3
    endloop
  endfacet
  facet normal -0.481768 0.876299 0
    outer loop
      vertex -13.6162 -17.9407 3
      vertex -13.2586 -17.7441 0
      vertex -13.6162 -17.9407 0
    endloop
  endfacet
  facet normal -0.951081 -0.308942 0
    outer loop
      vertex -11.8521 -14.1918 0
      vertex -11.9782 -13.8036 3
      vertex -11.9782 -13.8036 0
    endloop
  endfacet
  facet normal -0.951081 -0.308942 0
    outer loop
      vertex -11.9782 -13.8036 3
      vertex -11.8521 -14.1918 0
      vertex -11.8521 -14.1918 3
    endloop
  endfacet
  facet normal -0.982276 -0.187439 0
    outer loop
      vertex -11.7756 -14.5927 0
      vertex -11.8521 -14.1918 3
      vertex -11.8521 -14.1918 0
    endloop
  endfacet
  facet normal -0.982276 -0.187439 0
    outer loop
      vertex -11.8521 -14.1918 3
      vertex -11.7756 -14.5927 0
      vertex -11.7756 -14.5927 3
    endloop
  endfacet
  facet normal -0.770486 -0.637457 0
    outer loop
      vertex -12.3707 -13.0897 0
      vertex -12.6309 -12.7752 3
      vertex -12.6309 -12.7752 0
    endloop
  endfacet
  facet normal -0.770486 -0.637457 0
    outer loop
      vertex -12.6309 -12.7752 3
      vertex -12.3707 -13.0897 0
      vertex -12.3707 -13.0897 3
    endloop
  endfacet
  facet normal -0.125452 -0.9921 0
    outer loop
      vertex -14.7959 -11.7564 0
      vertex -14.391 -11.8076 3
      vertex -14.7959 -11.7564 3
    endloop
  endfacet
  facet normal -0.125452 -0.9921 -0
    outer loop
      vertex -14.391 -11.8076 3
      vertex -14.7959 -11.7564 0
      vertex -14.391 -11.8076 0
    endloop
  endfacet
  facet normal -0.481768 -0.876299 0
    outer loop
      vertex -13.6162 -12.0593 0
      vertex -13.2586 -12.2559 3
      vertex -13.6162 -12.0593 3
    endloop
  endfacet
  facet normal -0.481768 -0.876299 -0
    outer loop
      vertex -13.2586 -12.2559 3
      vertex -13.6162 -12.0593 0
      vertex -13.2586 -12.2559 0
    endloop
  endfacet
  facet normal 0.844317 -0.535845 0
    outer loop
      vertex -17.848 -13.4343 3
      vertex -17.6293 -13.0897 0
      vertex -17.6293 -13.0897 3
    endloop
  endfacet
  facet normal 0.844317 -0.535845 0
    outer loop
      vertex -17.6293 -13.0897 0
      vertex -17.848 -13.4343 3
      vertex -17.848 -13.4343 0
    endloop
  endfacet
  facet normal 0.982276 -0.187439 0
    outer loop
      vertex -18.2244 -14.5927 3
      vertex -18.1479 -14.1918 0
      vertex -18.1479 -14.1918 3
    endloop
  endfacet
  facet normal 0.982276 -0.187439 0
    outer loop
      vertex -18.1479 -14.1918 0
      vertex -18.2244 -14.5927 3
      vertex -18.2244 -14.5927 0
    endloop
  endfacet
  facet normal 0.587778 -0.809022 0
    outer loop
      vertex -17.0716 -12.4958 0
      vertex -16.7414 -12.2559 3
      vertex -17.0716 -12.4958 3
    endloop
  endfacet
  facet normal 0.587778 -0.809022 0
    outer loop
      vertex -16.7414 -12.2559 3
      vertex -17.0716 -12.4958 0
      vertex -16.7414 -12.2559 0
    endloop
  endfacet
  facet normal 0.2487 -0.968581 0
    outer loop
      vertex -16.0043 -11.9091 0
      vertex -15.609 -11.8076 3
      vertex -16.0043 -11.9091 3
    endloop
  endfacet
  facet normal 0.2487 -0.968581 0
    outer loop
      vertex -15.609 -11.8076 3
      vertex -16.0043 -11.9091 0
      vertex -15.609 -11.8076 0
    endloop
  endfacet
  facet normal -0.998031 0.0627292 0
    outer loop
      vertex -11.7756 -15.4073 0
      vertex -11.75 -15 3
      vertex -11.75 -15 0
    endloop
  endfacet
  facet normal -0.998031 0.0627292 0
    outer loop
      vertex -11.75 -15 3
      vertex -11.7756 -15.4073 0
      vertex -11.7756 -15.4073 3
    endloop
  endfacet
  facet normal -0.951081 0.308942 0
    outer loop
      vertex -11.9782 -16.1964 0
      vertex -11.8521 -15.8082 3
      vertex -11.8521 -15.8082 0
    endloop
  endfacet
  facet normal -0.951081 0.308942 0
    outer loop
      vertex -11.8521 -15.8082 3
      vertex -11.9782 -16.1964 0
      vertex -11.9782 -16.1964 3
    endloop
  endfacet
  facet normal -0.982276 0.187439 0
    outer loop
      vertex -11.8521 -15.8082 0
      vertex -11.7756 -15.4073 3
      vertex -11.7756 -15.4073 0
    endloop
  endfacet
  facet normal -0.982276 0.187439 0
    outer loop
      vertex -11.7756 -15.4073 3
      vertex -11.8521 -15.8082 0
      vertex -11.8521 -15.8082 3
    endloop
  endfacet
  facet normal 0.904808 0.425821 0
    outer loop
      vertex -17.848 -16.5657 3
      vertex -18.0218 -16.1964 0
      vertex -18.0218 -16.1964 3
    endloop
  endfacet
  facet normal 0.904808 0.425821 0
    outer loop
      vertex -18.0218 -16.1964 0
      vertex -17.848 -16.5657 3
      vertex -17.848 -16.5657 0
    endloop
  endfacet
  facet normal -0.587778 0.809022 0
    outer loop
      vertex -12.9284 -17.5042 0
      vertex -13.2586 -17.7441 3
      vertex -12.9284 -17.5042 3
    endloop
  endfacet
  facet normal -0.587778 0.809022 0
    outer loop
      vertex -13.2586 -17.7441 3
      vertex -12.9284 -17.5042 0
      vertex -13.2586 -17.7441 0
    endloop
  endfacet
  facet normal 0.951081 0.308942 0
    outer loop
      vertex -18.0218 -16.1964 3
      vertex -18.1479 -15.8082 0
      vertex -18.1479 -15.8082 3
    endloop
  endfacet
  facet normal 0.951081 0.308942 0
    outer loop
      vertex -18.1479 -15.8082 0
      vertex -18.0218 -16.1964 3
      vertex -18.0218 -16.1964 0
    endloop
  endfacet
  facet normal -0.684585 0.728933 0
    outer loop
      vertex -12.6309 -17.2248 0
      vertex -12.9284 -17.5042 3
      vertex -12.6309 -17.2248 3
    endloop
  endfacet
  facet normal -0.684585 0.728933 0
    outer loop
      vertex -12.9284 -17.5042 3
      vertex -12.6309 -17.2248 0
      vertex -12.9284 -17.5042 0
    endloop
  endfacet
  facet normal -0.2487 0.968581 0
    outer loop
      vertex -13.9957 -18.0909 0
      vertex -14.391 -18.1924 3
      vertex -13.9957 -18.0909 3
    endloop
  endfacet
  facet normal -0.2487 0.968581 0
    outer loop
      vertex -14.391 -18.1924 3
      vertex -13.9957 -18.0909 0
      vertex -14.391 -18.1924 0
    endloop
  endfacet
  facet normal -0.368009 0.929822 0
    outer loop
      vertex -13.6162 -17.9407 0
      vertex -13.9957 -18.0909 3
      vertex -13.6162 -17.9407 3
    endloop
  endfacet
  facet normal -0.368009 0.929822 0
    outer loop
      vertex -13.9957 -18.0909 3
      vertex -13.6162 -17.9407 0
      vertex -13.9957 -18.0909 0
    endloop
  endfacet
  facet normal -0.904808 0.425821 0
    outer loop
      vertex -12.152 -16.5657 0
      vertex -11.9782 -16.1964 3
      vertex -11.9782 -16.1964 0
    endloop
  endfacet
  facet normal -0.904808 0.425821 0
    outer loop
      vertex -11.9782 -16.1964 3
      vertex -12.152 -16.5657 0
      vertex -12.152 -16.5657 3
    endloop
  endfacet
  facet normal -0.844317 0.535845 0
    outer loop
      vertex -12.3707 -16.9103 0
      vertex -12.152 -16.5657 3
      vertex -12.152 -16.5657 0
    endloop
  endfacet
  facet normal -0.844317 0.535845 0
    outer loop
      vertex -12.152 -16.5657 3
      vertex -12.3707 -16.9103 0
      vertex -12.3707 -16.9103 3
    endloop
  endfacet
  facet normal 0.368009 0.929822 -0
    outer loop
      vertex -16.0043 -18.0909 0
      vertex -16.3838 -17.9407 3
      vertex -16.0043 -18.0909 3
    endloop
  endfacet
  facet normal 0.368009 0.929822 0
    outer loop
      vertex -16.3838 -17.9407 3
      vertex -16.0043 -18.0909 0
      vertex -16.3838 -17.9407 0
    endloop
  endfacet
  facet normal 0.2487 0.968581 -0
    outer loop
      vertex -15.609 -18.1924 0
      vertex -16.0043 -18.0909 3
      vertex -15.609 -18.1924 3
    endloop
  endfacet
  facet normal 0.2487 0.968581 0
    outer loop
      vertex -16.0043 -18.0909 3
      vertex -15.609 -18.1924 0
      vertex -16.0043 -18.0909 0
    endloop
  endfacet
  facet normal 0.770486 0.637457 0
    outer loop
      vertex -17.3691 -17.2248 3
      vertex -17.6293 -16.9103 0
      vertex -17.6293 -16.9103 3
    endloop
  endfacet
  facet normal 0.770486 0.637457 0
    outer loop
      vertex -17.6293 -16.9103 0
      vertex -17.3691 -17.2248 3
      vertex -17.3691 -17.2248 0
    endloop
  endfacet
  facet normal 0.684585 0.728933 -0
    outer loop
      vertex -17.0716 -17.5042 0
      vertex -17.3691 -17.2248 3
      vertex -17.0716 -17.5042 3
    endloop
  endfacet
  facet normal 0.684585 0.728933 0
    outer loop
      vertex -17.3691 -17.2248 3
      vertex -17.0716 -17.5042 0
      vertex -17.3691 -17.2248 0
    endloop
  endfacet
  facet normal 0.982276 0.187439 0
    outer loop
      vertex -18.1479 -15.8082 3
      vertex -18.2244 -15.4073 0
      vertex -18.2244 -15.4073 3
    endloop
  endfacet
  facet normal 0.982276 0.187439 0
    outer loop
      vertex -18.2244 -15.4073 0
      vertex -18.1479 -15.8082 3
      vertex -18.1479 -15.8082 0
    endloop
  endfacet
  facet normal 0.998031 0.0627292 0
    outer loop
      vertex -18.2244 -15.4073 3
      vertex -18.25 -15 0
      vertex -18.25 -15 3
    endloop
  endfacet
  facet normal 0.998031 0.0627292 0
    outer loop
      vertex -18.25 -15 0
      vertex -18.2244 -15.4073 3
      vertex -18.2244 -15.4073 0
    endloop
  endfacet
  facet normal 0.481768 0.876299 -0
    outer loop
      vertex -16.3838 -17.9407 0
      vertex -16.7414 -17.7441 3
      vertex -16.3838 -17.9407 3
    endloop
  endfacet
  facet normal 0.481768 0.876299 0
    outer loop
      vertex -16.7414 -17.7441 3
      vertex -16.3838 -17.9407 0
      vertex -16.7414 -17.7441 0
    endloop
  endfacet
  facet normal 0.587778 0.809022 -0
    outer loop
      vertex -16.7414 -17.7441 0
      vertex -17.0716 -17.5042 3
      vertex -16.7414 -17.7441 3
    endloop
  endfacet
  facet normal 0.587778 0.809022 0
    outer loop
      vertex -17.0716 -17.5042 3
      vertex -16.7414 -17.7441 0
      vertex -17.0716 -17.5042 0
    endloop
  endfacet
  facet normal 0.125452 0.9921 -0
    outer loop
      vertex -15.2041 -18.2436 0
      vertex -15.609 -18.1924 3
      vertex -15.2041 -18.2436 3
    endloop
  endfacet
  facet normal 0.125452 0.9921 0
    outer loop
      vertex -15.609 -18.1924 3
      vertex -15.2041 -18.2436 0
      vertex -15.609 -18.1924 0
    endloop
  endfacet
  facet normal 0.844317 0.535845 0
    outer loop
      vertex -17.6293 -16.9103 3
      vertex -17.848 -16.5657 0
      vertex -17.848 -16.5657 3
    endloop
  endfacet
  facet normal 0.844317 0.535845 0
    outer loop
      vertex -17.848 -16.5657 0
      vertex -17.6293 -16.9103 3
      vertex -17.6293 -16.9103 0
    endloop
  endfacet
  facet normal -1 0 0
    outer loop
      vertex 0.252 -2.84 1.5
      vertex 0.252 2.84 3
      vertex 0.252 2.84 1.5
    endloop
  endfacet
  facet normal -1 -0 0
    outer loop
      vertex 0.252 2.84 3
      vertex 0.252 -2.84 1.5
      vertex 0.252 -2.84 3
    endloop
  endfacet
  facet normal 0 -1 0
    outer loop
      vertex -22 2.84 1.5
      vertex 0.252 2.84 3
      vertex -22 2.84 3
    endloop
  endfacet
  facet normal 0 -1 -0
    outer loop
      vertex 0.252 2.84 3
      vertex -22 2.84 1.5
      vertex 0.252 2.84 1.5
    endloop
  endfacet
  facet normal -0 0 1
    outer loop
      vertex -22 2.84 1.5
      vertex 0.252 -2.84 1.5
      vertex 0.252 2.84 1.5
    endloop
  endfacet
  facet normal 0 0 1
    outer loop
      vertex 0.252 -2.84 1.5
      vertex -22 2.84 1.5
      vertex -22 -2.84 1.5
    endloop
  endfacet
  facet normal 0 1 -0
    outer loop
      vertex 0.252 -2.84 1.5
      vertex -22 -2.84 3
      vertex 0.252 -2.84 3
    endloop
  endfacet
  facet normal 0 1 0
    outer loop
      vertex -22 -2.84 3
      vertex 0.252 -2.84 1.5
      vertex -22 -2.84 1.5
    endloop
  endfacet
  facet normal -1 0 0
    outer loop
      vertex -22 17 0
      vertex -22 2.84 1.5
      vertex -22 17 3
    endloop
  endfacet
  facet normal -1 0 0
    outer loop
      vertex -22 17 0
      vertex -22 -2.84 1.5
      vertex -22 2.84 1.5
    endloop
  endfacet
  facet normal -1 0 0
    outer loop
      vertex -22 -17 0
      vertex -22 -2.84 1.5
      vertex -22 17 0
    endloop
  endfacet
  facet normal -1 0 0
    outer loop
      vertex -22 -17 3
      vertex -22 -2.84 1.5
      vertex -22 -17 0
    endloop
  endfacet
  facet normal -1 0 0
    outer loop
      vertex -22 -2.84 1.5
      vertex -22 -17 3
      vertex -22 -2.84 3
    endloop
  endfacet
  facet normal -1 -0 0
    outer loop
      vertex -22 17 3
      vertex -22 2.84 1.5
      vertex -22 2.84 3
    endloop
  endfacet
  facet normal -0.99803 -0.0627451 0
    outer loop
      vertex -21.9606 -17.6267 0
      vertex -22 -17 3
      vertex -22 -17 0
    endloop
  endfacet
  facet normal -0.99803 -0.0627451 0
    outer loop
      vertex -22 -17 3
      vertex -21.9606 -17.6267 0
      vertex -21.9606 -17.6267 3
    endloop
  endfacet
  facet normal -0.99803 0.0627451 0
    outer loop
      vertex -22 17 0
      vertex -21.9606 17.6267 3
      vertex -21.9606 17.6267 0
    endloop
  endfacet
  facet normal -0.99803 0.0627451 0
    outer loop
      vertex -21.9606 17.6267 3
      vertex -22 17 0
      vertex -22 17 3
    endloop
  endfacet
  facet normal 0 0 1
    outer loop
      vertex 0.252 -2.84 3
      vertex -11.7756 -14.5927 3
      vertex -11.75 -15 3
    endloop
  endfacet
  facet normal 0 0 1
    outer loop
      vertex 0.252 -2.84 3
      vertex -11.8521 -14.1918 3
      vertex -11.7756 -14.5927 3
    endloop
  endfacet
  facet normal 0 0 1
    outer loop
      vertex 0.252 -2.84 3
      vertex -11.9782 -13.8036 3
      vertex -11.8521 -14.1918 3
    endloop
  endfacet
  facet normal 0 0 1
    outer loop
      vertex 0.252 -2.84 3
      vertex -12.152 -13.4343 3
      vertex -11.9782 -13.8036 3
    endloop
  endfacet
  facet normal 0 0 1
    outer loop
      vertex 0.252 -2.84 3
      vertex -12.3707 -13.0897 3
      vertex -12.152 -13.4343 3
    endloop
  endfacet
  facet normal 0 0 1
    outer loop
      vertex 0.252 -2.84 3
      vertex -12.6309 -12.7752 3
      vertex -12.3707 -13.0897 3
    endloop
  endfacet
  facet normal 0 0 1
    outer loop
      vertex 0.252 -2.84 3
      vertex -12.9284 -12.4958 3
      vertex -12.6309 -12.7752 3
    endloop
  endfacet
  facet normal 0 0 1
    outer loop
      vertex 0.252 -2.84 3
      vertex -13.2586 -12.2559 3
      vertex -12.9284 -12.4958 3
    endloop
  endfacet
  facet normal 0 0 1
    outer loop
      vertex 0.252 -2.84 3
      vertex -13.6162 -12.0593 3
      vertex -13.2586 -12.2559 3
    endloop
  endfacet
  facet normal 0 0 1
    outer loop
      vertex 0.252 -2.84 3
      vertex -13.9957 -11.9091 3
      vertex -13.6162 -12.0593 3
    endloop
  endfacet
  facet normal -0 0 1
    outer loop
      vertex -22 -2.84 3
      vertex -13.9957 -11.9091 3
      vertex 0.252 -2.84 3
    endloop
  endfacet
  facet normal 0 0 1
    outer loop
      vertex -13.9957 -11.9091 3
      vertex -22 -2.84 3
      vertex -14.391 -11.8076 3
    endloop
  endfacet
  facet normal 0 0 1
    outer loop
      vertex -14.391 -11.8076 3
      vertex -22 -2.84 3
      vertex -14.7959 -11.7564 3
    endloop
  endfacet
  facet normal 0 0 1
    outer loop
      vertex -14.7959 -11.7564 3
      vertex -22 -2.84 3
      vertex -15.2041 -11.7564 3
    endloop
  endfacet
  facet normal 0 0 1
    outer loop
      vertex -15.2041 -11.7564 3
      vertex -22 -2.84 3
      vertex -15.609 -11.8076 3
    endloop
  endfacet
  facet normal 0 0 1
    outer loop
      vertex -15.609 -11.8076 3
      vertex -22 -2.84 3
      vertex -16.0043 -11.9091 3
    endloop
  endfacet
  facet normal 0 0 1
    outer loop
      vertex -16.0043 -11.9091 3
      vertex -22 -2.84 3
      vertex -16.3838 -12.0593 3
    endloop
  endfacet
  facet normal 0 0 1
    outer loop
      vertex -16.7414 -17.7441 3
      vertex -19.1289 -21.5241 3
      vertex -18.5451 -21.7553 3
    endloop
  endfacet
  facet normal 0 0 1
    outer loop
      vertex -22 -17 3
      vertex -18.25 -15 3
      vertex -18.2244 -14.5927 3
    endloop
  endfacet
  facet normal 0 0 1
    outer loop
      vertex -18.2244 -15.4073 3
      vertex -19.6791 -21.2216 3
      vertex -19.1289 -21.5241 3
    endloop
  endfacet
  facet normal 0 0 1
    outer loop
      vertex -22 -17 3
      vertex -18.2244 -14.5927 3
      vertex -18.1479 -14.1918 3
    endloop
  endfacet
  facet normal 0 0 1
    outer loop
      vertex -18.2244 -15.4073 3
      vertex -20.1871 -20.8526 3
      vertex -19.6791 -21.2216 3
    endloop
  endfacet
  facet normal 0 0 1
    outer loop
      vertex -18.2244 -15.4073 3
      vertex -20.6448 -20.4227 3
      vertex -20.1871 -20.8526 3
    endloop
  endfacet
  facet normal 0 0 1
    outer loop
      vertex -22 -17 3
      vertex -18.1479 -14.1918 3
      vertex -18.0218 -13.8036 3
    endloop
  endfacet
  facet normal 0 0 1
    outer loop
      vertex -18.2244 -15.4073 3
      vertex -21.0451 -19.9389 3
      vertex -20.6448 -20.4227 3
    endloop
  endfacet
  facet normal 0 0 1
    outer loop
      vertex -22 -17 3
      vertex -18.0218 -13.8036 3
      vertex -17.848 -13.4343 3
    endloop
  endfacet
  facet normal 0 0 1
    outer loop
      vertex -18.2244 -15.4073 3
      vertex -21.3815 -19.4088 3
      vertex -21.0451 -19.9389 3
    endloop
  endfacet
  facet normal 0 0 1
    outer loop
      vertex -18.2244 -15.4073 3
      vertex -21.6489 -18.8406 3
      vertex -21.3815 -19.4088 3
    endloop
  endfacet
  facet normal 0 0 1
    outer loop
      vertex -22 -2.84 3
      vertex -17.848 -13.4343 3
      vertex -17.6293 -13.0897 3
    endloop
  endfacet
  facet normal 0 0 1
    outer loop
      vertex -18.2244 -15.4073 3
      vertex -21.8429 -18.2435 3
      vertex -21.6489 -18.8406 3
    endloop
  endfacet
  facet normal 0 0 1
    outer loop
      vertex -18.2244 -15.4073 3
      vertex -21.9606 -17.6267 3
      vertex -21.8429 -18.2435 3
    endloop
  endfacet
  facet normal 0 0 1
    outer loop
      vertex -22 -2.84 3
      vertex -17.6293 -13.0897 3
      vertex -17.3691 -12.7752 3
    endloop
  endfacet
  facet normal 0 0 1
    outer loop
      vertex -16.3838 -12.0593 3
      vertex -22 -2.84 3
      vertex -16.7414 -12.2559 3
    endloop
  endfacet
  facet normal 0 0 1
    outer loop
      vertex -22 -2.84 3
      vertex -17.0716 -12.4958 3
      vertex -16.7414 -12.2559 3
    endloop
  endfacet
  facet normal 0 0 1
    outer loop
      vertex -22 -2.84 3
      vertex -17.3691 -12.7752 3
      vertex -17.0716 -12.4958 3
    endloop
  endfacet
  facet normal 0 0 1
    outer loop
      vertex -17.848 -13.4343 3
      vertex -22 -2.84 3
      vertex -22 -17 3
    endloop
  endfacet
  facet normal 0 0 1
    outer loop
      vertex -18.2244 -15.4073 3
      vertex -22 -17 3
      vertex -21.9606 -17.6267 3
    endloop
  endfacet
  facet normal 0 0 1
    outer loop
      vertex 17.314 21.9901 3
      vertex 22 17 3
      vertex 21.9606 17.6267 3
    endloop
  endfacet
  facet normal 0 0 1
    outer loop
      vertex 22 17 3
      vertex 0.252 2.84 3
      vertex 22 -17 3
    endloop
  endfacet
  facet normal 0 0 1
    outer loop
      vertex 17.314 21.9901 3
      vertex 21.9606 17.6267 3
      vertex 21.8429 18.2435 3
    endloop
  endfacet
  facet normal -0 0 1
    outer loop
      vertex 0.252 -2.84 3
      vertex 22 -17 3
      vertex 0.252 2.84 3
    endloop
  endfacet
  facet normal 0 0 1
    outer loop
      vertex 17.314 21.9901 3
      vertex 21.8429 18.2435 3
      vertex 21.6489 18.8406 3
    endloop
  endfacet
  facet normal 0 -0 1
    outer loop
      vertex 17.314 -21.9901 3
      vertex 22 -17 3
      vertex 0.252 -2.84 3
    endloop
  endfacet
  facet normal 0 0 1
    outer loop
      vertex 17.314 21.9901 3
      vertex 21.6489 18.8406 3
      vertex 21.3815 19.4088 3
    endloop
  endfacet
  facet normal 0 0 1
    outer loop
      vertex 22 -17 3
      vertex 17.314 -21.9901 3
      vertex 21.9606 -17.6267 3
    endloop
  endfacet
  facet normal 0 0 1
    outer loop
      vertex 17.314 21.9901 3
      vertex 21.3815 19.4088 3
      vertex 21.0451 19.9389 3
    endloop
  endfacet
  facet normal 0 0 1
    outer loop
      vertex 21.9606 -17.6267 3
      vertex 17.314 -21.9901 3
      vertex 21.8429 -18.2435 3
    endloop
  endfacet
  facet normal 0 0 1
    outer loop
      vertex 17.314 21.9901 3
      vertex 21.0451 19.9389 3
      vertex 20.6448 20.4227 3
    endloop
  endfacet
  facet normal 0 0 1
    outer loop
      vertex 21.8429 -18.2435 3
      vertex 17.314 -21.9901 3
      vertex 21.6489 -18.8406 3
    endloop
  endfacet
  facet normal 0 0 1
    outer loop
      vertex 17.314 21.9901 3
      vertex 20.6448 20.4227 3
      vertex 20.1871 20.8526 3
    endloop
  endfacet
  facet normal 0 0 1
    outer loop
      vertex 21.6489 -18.8406 3
      vertex 17.314 -21.9901 3
      vertex 21.3815 -19.4088 3
    endloop
  endfacet
  facet normal 0 0 1
    outer loop
      vertex 17.314 21.9901 3
      vertex 20.1871 20.8526 3
      vertex 19.6791 21.2216 3
    endloop
  endfacet
  facet normal 0 0 1
    outer loop
      vertex 21.3815 -19.4088 3
      vertex 17.314 -21.9901 3
      vertex 21.0451 -19.9389 3
    endloop
  endfacet
  facet normal 0 0 1
    outer loop
      vertex 17.314 21.9901 3
      vertex 19.6791 21.2216 3
      vertex 19.1289 21.5241 3
    endloop
  endfacet
  facet normal 0 0 1
    outer loop
      vertex 21.0451 -19.9389 3
      vertex 17.314 -21.9901 3
      vertex 20.6448 -20.4227 3
    endloop
  endfacet
  facet normal 0 0 1
    outer loop
      vertex 17.314 21.9901 3
      vertex 19.1289 21.5241 3
      vertex 18.5451 21.7553 3
    endloop
  endfacet
  facet normal 0 0 1
    outer loop
      vertex 20.6448 -20.4227 3
      vertex 17.314 -21.9901 3
      vertex 20.1871 -20.8526 3
    endloop
  endfacet
  facet normal 0 0 1
    outer loop
      vertex 17.314 21.9901 3
      vertex 18.5451 21.7553 3
      vertex 17.9369 21.9114 3
    endloop
  endfacet
  facet normal 0 0 1
    outer loop
      vertex 20.1871 -20.8526 3
      vertex 17.314 -21.9901 3
      vertex 19.6791 -21.2216 3
    endloop
  endfacet
  facet normal 0 0 1
    outer loop
      vertex 22 17 3
      vertex 17.314 21.9901 3
      vertex 0.252 2.84 3
    endloop
  endfacet
  facet normal 0 0 1
    outer loop
      vertex 19.6791 -21.2216 3
      vertex 17.314 -21.9901 3
      vertex 19.1289 -21.5241 3
    endloop
  endfacet
  facet normal 0 0 1
    outer loop
      vertex 19.1289 -21.5241 3
      vertex 17.314 -21.9901 3
      vertex 18.5451 -21.7553 3
    endloop
  endfacet
  facet normal -0 0 1
    outer loop
      vertex -17.314 21.9901 3
      vertex 0.252 2.84 3
      vertex 17.314 21.9901 3
    endloop
  endfacet
  facet normal 0 0 1
    outer loop
      vertex -22 17 3
      vertex -17.314 21.9901 3
      vertex -17.9369 21.9114 3
    endloop
  endfacet
  facet normal 0 0 1
    outer loop
      vertex -22 17 3
      vertex -17.9369 21.9114 3
      vertex -18.5451 21.7553 3
    endloop
  endfacet
  facet normal 0 0 1
    outer loop
      vertex -22 17 3
      vertex -18.5451 21.7553 3
      vertex -19.1289 21.5241 3
    endloop
  endfacet
  facet normal 0 0 1
    outer loop
      vertex -22 17 3
      vertex -19.1289 21.5241 3
      vertex -19.6791 21.2216 3
    endloop
  endfacet
  facet normal 0 0 1
    outer loop
      vertex -22 17 3
      vertex -19.6791 21.2216 3
      vertex -20.1871 20.8526 3
    endloop
  endfacet
  facet normal 0 0 1
    outer loop
      vertex -22 17 3
      vertex -20.1871 20.8526 3
      vertex -20.6448 20.4227 3
    endloop
  endfacet
  facet normal 0 0 1
    outer loop
      vertex -22 17 3
      vertex -20.6448 20.4227 3
      vertex -21.0451 19.9389 3
    endloop
  endfacet
  facet normal 0 0 1
    outer loop
      vertex -22 17 3
      vertex -21.0451 19.9389 3
      vertex -21.3815 19.4088 3
    endloop
  endfacet
  facet normal 0 0 1
    outer loop
      vertex -22 17 3
      vertex -21.3815 19.4088 3
      vertex -21.6489 18.8406 3
    endloop
  endfacet
  facet normal 0 0 1
    outer loop
      vertex -22 17 3
      vertex -21.6489 18.8406 3
      vertex -21.8429 18.2435 3
    endloop
  endfacet
  facet normal 0 0 1
    outer loop
      vertex -22 17 3
      vertex -21.8429 18.2435 3
      vertex -21.9606 17.6267 3
    endloop
  endfacet
  facet normal 0 0 1
    outer loop
      vertex -17.314 21.9901 3
      vertex -22 17 3
      vertex 0.252 2.84 3
    endloop
  endfacet
  facet normal 0 0 1
    outer loop
      vertex 0.252 2.84 3
      vertex -22 17 3
      vertex -22 2.84 3
    endloop
  endfacet
  facet normal 0 0 1
    outer loop
      vertex 18.5451 -21.7553 3
      vertex 17.314 -21.9901 3
      vertex 17.9369 -21.9114 3
    endloop
  endfacet
  facet normal 0 0 1
    outer loop
      vertex -11.7756 -15.4073 3
      vertex 0.252 -2.84 3
      vertex -11.75 -15 3
    endloop
  endfacet
  facet normal 0 0 1
    outer loop
      vertex 0.252 -2.84 3
      vertex -11.7756 -15.4073 3
      vertex 17.314 -21.9901 3
    endloop
  endfacet
  facet normal -0 0 1
    outer loop
      vertex -11.8521 -15.8082 3
      vertex 17.314 -21.9901 3
      vertex -11.7756 -15.4073 3
    endloop
  endfacet
  facet normal -0 0 1
    outer loop
      vertex -11.9782 -16.1964 3
      vertex 17.314 -21.9901 3
      vertex -11.8521 -15.8082 3
    endloop
  endfacet
  facet normal -0 0 1
    outer loop
      vertex -12.152 -16.5657 3
      vertex 17.314 -21.9901 3
      vertex -11.9782 -16.1964 3
    endloop
  endfacet
  facet normal -0 0 1
    outer loop
      vertex -12.3707 -16.9103 3
      vertex 17.314 -21.9901 3
      vertex -12.152 -16.5657 3
    endloop
  endfacet
  facet normal -0 0 1
    outer loop
      vertex -12.6309 -17.2248 3
      vertex 17.314 -21.9901 3
      vertex -12.3707 -16.9103 3
    endloop
  endfacet
  facet normal -0 0 1
    outer loop
      vertex -12.9284 -17.5042 3
      vertex 17.314 -21.9901 3
      vertex -12.6309 -17.2248 3
    endloop
  endfacet
  facet normal 0 0 1
    outer loop
      vertex -17.314 -21.9901 3
      vertex -12.9284 -17.5042 3
      vertex -13.2586 -17.7441 3
    endloop
  endfacet
  facet normal 0 0 1
    outer loop
      vertex -17.314 -21.9901 3
      vertex -13.2586 -17.7441 3
      vertex -13.6162 -17.9407 3
    endloop
  endfacet
  facet normal 0 0 1
    outer loop
      vertex -17.314 -21.9901 3
      vertex -13.6162 -17.9407 3
      vertex -13.9957 -18.0909 3
    endloop
  endfacet
  facet normal 0 0 1
    outer loop
      vertex -17.314 -21.9901 3
      vertex -13.9957 -18.0909 3
      vertex -14.391 -18.1924 3
    endloop
  endfacet
  facet normal 0 0 1
    outer loop
      vertex -17.314 -21.9901 3
      vertex -14.391 -18.1924 3
      vertex -14.7959 -18.2436 3
    endloop
  endfacet
  facet normal 0 0 1
    outer loop
      vertex -17.314 -21.9901 3
      vertex -14.7959 -18.2436 3
      vertex -15.2041 -18.2436 3
    endloop
  endfacet
  facet normal 0 0 1
    outer loop
      vertex -12.9284 -17.5042 3
      vertex -17.314 -21.9901 3
      vertex 17.314 -21.9901 3
    endloop
  endfacet
  facet normal 0 0 1
    outer loop
      vertex -15.609 -18.1924 3
      vertex -17.314 -21.9901 3
      vertex -15.2041 -18.2436 3
    endloop
  endfacet
  facet normal 0 0 1
    outer loop
      vertex -16.0043 -18.0909 3
      vertex -17.314 -21.9901 3
      vertex -15.609 -18.1924 3
    endloop
  endfacet
  facet normal 0 0 1
    outer loop
      vertex -16.3838 -17.9407 3
      vertex -17.314 -21.9901 3
      vertex -16.0043 -18.0909 3
    endloop
  endfacet
  facet normal 0 0 1
    outer loop
      vertex -17.9369 -21.9114 3
      vertex -16.3838 -17.9407 3
      vertex -16.7414 -17.7441 3
    endloop
  endfacet
  facet normal 0 0 1
    outer loop
      vertex -19.1289 -21.5241 3
      vertex -16.7414 -17.7441 3
      vertex -17.0716 -17.5042 3
    endloop
  endfacet
  facet normal 0 0 1
    outer loop
      vertex -19.1289 -21.5241 3
      vertex -17.0716 -17.5042 3
      vertex -17.3691 -17.2248 3
    endloop
  endfacet
  facet normal 0 0 1
    outer loop
      vertex -19.1289 -21.5241 3
      vertex -17.3691 -17.2248 3
      vertex -17.6293 -16.9103 3
    endloop
  endfacet
  facet normal 0 0 1
    outer loop
      vertex -19.1289 -21.5241 3
      vertex -17.6293 -16.9103 3
      vertex -17.848 -16.5657 3
    endloop
  endfacet
  facet normal 0 0 1
    outer loop
      vertex -16.3838 -17.9407 3
      vertex -17.9369 -21.9114 3
      vertex -17.314 -21.9901 3
    endloop
  endfacet
  facet normal 0 0 1
    outer loop
      vertex -19.1289 -21.5241 3
      vertex -17.848 -16.5657 3
      vertex -18.0218 -16.1964 3
    endloop
  endfacet
  facet normal 0 0 1
    outer loop
      vertex -19.1289 -21.5241 3
      vertex -18.0218 -16.1964 3
      vertex -18.1479 -15.8082 3
    endloop
  endfacet
  facet normal 0 0 1
    outer loop
      vertex -19.1289 -21.5241 3
      vertex -18.1479 -15.8082 3
      vertex -18.2244 -15.4073 3
    endloop
  endfacet
  facet normal 0 0 1
    outer loop
      vertex -22 -17 3
      vertex -18.2244 -15.4073 3
      vertex -18.25 -15 3
    endloop
  endfacet
  facet normal 0 0 1
    outer loop
      vertex -16.7414 -17.7441 3
      vertex -18.5451 -21.7553 3
      vertex -17.9369 -21.9114 3
    endloop
  endfacet
  facet normal 0 1 -0
    outer loop
      vertex 17.314 21.9901 0
      vertex -17.314 21.9901 3
      vertex 17.314 21.9901 3
    endloop
  endfacet
  facet normal 0 1 0
    outer loop
      vertex -17.314 21.9901 3
      vertex 17.314 21.9901 0
      vertex -17.314 21.9901 0
    endloop
  endfacet
  facet normal -0.368203 0.929745 0
    outer loop
      vertex -18.5451 21.7553 0
      vertex -19.1289 21.5241 3
      vertex -18.5451 21.7553 3
    endloop
  endfacet
  facet normal -0.368203 0.929745 0
    outer loop
      vertex -19.1289 21.5241 3
      vertex -18.5451 21.7553 0
      vertex -19.1289 21.5241 0
    endloop
  endfacet
  facet normal 0 -1 0
    outer loop
      vertex -17.314 -21.9901 0
      vertex 17.314 -21.9901 3
      vertex -17.314 -21.9901 3
    endloop
  endfacet
  facet normal 0 -1 -0
    outer loop
      vertex 17.314 -21.9901 3
      vertex -17.314 -21.9901 0
      vertex 17.314 -21.9901 0
    endloop
  endfacet
  facet normal 1 -0 0
    outer loop
      vertex 22 -17 3
      vertex 22 17 0
      vertex 22 17 3
    endloop
  endfacet
  facet normal 1 0 0
    outer loop
      vertex 22 17 0
      vertex 22 -17 3
      vertex 22 -17 0
    endloop
  endfacet
  facet normal -0.951061 0.309003 0
    outer loop
      vertex -21.8429 18.2435 0
      vertex -21.6489 18.8406 3
      vertex -21.6489 18.8406 0
    endloop
  endfacet
  facet normal -0.951061 0.309003 0
    outer loop
      vertex -21.6489 18.8406 3
      vertex -21.8429 18.2435 0
      vertex -21.8429 18.2435 3
    endloop
  endfacet
  facet normal -0.684624 0.728896 0
    outer loop
      vertex -20.1871 20.8526 0
      vertex -20.6448 20.4227 3
      vertex -20.1871 20.8526 3
    endloop
  endfacet
  facet normal -0.684624 0.728896 0
    outer loop
      vertex -20.6448 20.4227 3
      vertex -20.1871 20.8526 0
      vertex -20.6448 20.4227 0
    endloop
  endfacet
  facet normal 0.99803 0.0627451 0
    outer loop
      vertex 22 17 3
      vertex 21.9606 17.6267 0
      vertex 21.9606 17.6267 3
    endloop
  endfacet
  facet normal 0.99803 0.0627451 0
    outer loop
      vertex 21.9606 17.6267 0
      vertex 22 17 3
      vertex 22 17 0
    endloop
  endfacet
  facet normal -0.125348 -0.992113 0
    outer loop
      vertex -17.9369 -21.9114 0
      vertex -17.314 -21.9901 3
      vertex -17.9369 -21.9114 3
    endloop
  endfacet
  facet normal -0.125348 -0.992113 -0
    outer loop
      vertex -17.314 -21.9901 3
      vertex -17.9369 -21.9114 0
      vertex -17.314 -21.9901 0
    endloop
  endfacet
  facet normal 0.770462 -0.637486 0
    outer loop
      vertex 20.6448 -20.4227 3
      vertex 21.0451 -19.9389 0
      vertex 21.0451 -19.9389 3
    endloop
  endfacet
  facet normal 0.770462 -0.637486 0
    outer loop
      vertex 21.0451 -19.9389 0
      vertex 20.6448 -20.4227 3
      vertex 20.6448 -20.4227 0
    endloop
  endfacet
  facet normal -0.982276 0.187441 0
    outer loop
      vertex -21.9606 17.6267 0
      vertex -21.8429 18.2435 3
      vertex -21.8429 18.2435 0
    endloop
  endfacet
  facet normal -0.982276 0.187441 0
    outer loop
      vertex -21.8429 18.2435 3
      vertex -21.9606 17.6267 0
      vertex -21.9606 17.6267 3
    endloop
  endfacet
  facet normal -0.587698 0.80908 0
    outer loop
      vertex -19.6791 21.2216 0
      vertex -20.1871 20.8526 3
      vertex -19.6791 21.2216 3
    endloop
  endfacet
  facet normal -0.587698 0.80908 0
    outer loop
      vertex -20.1871 20.8526 3
      vertex -19.6791 21.2216 0
      vertex -20.1871 20.8526 0
    endloop
  endfacet
  facet normal 0.770462 0.637486 0
    outer loop
      vertex 21.0451 19.9389 3
      vertex 20.6448 20.4227 0
      vertex 20.6448 20.4227 3
    endloop
  endfacet
  facet normal 0.770462 0.637486 0
    outer loop
      vertex 20.6448 20.4227 0
      vertex 21.0451 19.9389 3
      vertex 21.0451 19.9389 0
    endloop
  endfacet
  facet normal -0.481784 0.87629 0
    outer loop
      vertex -19.1289 21.5241 0
      vertex -19.6791 21.2216 3
      vertex -19.1289 21.5241 3
    endloop
  endfacet
  facet normal -0.481784 0.87629 0
    outer loop
      vertex -19.6791 21.2216 3
      vertex -19.1289 21.5241 0
      vertex -19.6791 21.2216 0
    endloop
  endfacet
  facet normal -0.770462 -0.637486 0
    outer loop
      vertex -20.6448 -20.4227 0
      vertex -21.0451 -19.9389 3
      vertex -21.0451 -19.9389 0
    endloop
  endfacet
  facet normal -0.770462 -0.637486 0
    outer loop
      vertex -21.0451 -19.9389 3
      vertex -20.6448 -20.4227 0
      vertex -20.6448 -20.4227 3
    endloop
  endfacet
  facet normal -0.844336 -0.535814 0
    outer loop
      vertex -21.0451 -19.9389 0
      vertex -21.3815 -19.4088 3
      vertex -21.3815 -19.4088 0
    endloop
  endfacet
  facet normal -0.844336 -0.535814 0
    outer loop
      vertex -21.3815 -19.4088 3
      vertex -21.0451 -19.9389 0
      vertex -21.0451 -19.9389 3
    endloop
  endfacet
  facet normal -0.248601 -0.968606 0
    outer loop
      vertex -18.5451 -21.7553 0
      vertex -17.9369 -21.9114 3
      vertex -18.5451 -21.7553 3
    endloop
  endfacet
  facet normal -0.248601 -0.968606 -0
    outer loop
      vertex -17.9369 -21.9114 3
      vertex -18.5451 -21.7553 0
      vertex -17.9369 -21.9114 0
    endloop
  endfacet
  facet normal 0.368203 -0.929745 0
    outer loop
      vertex 18.5451 -21.7553 0
      vertex 19.1289 -21.5241 3
      vertex 18.5451 -21.7553 3
    endloop
  endfacet
  facet normal 0.368203 -0.929745 0
    outer loop
      vertex 19.1289 -21.5241 3
      vertex 18.5451 -21.7553 0
      vertex 19.1289 -21.5241 0
    endloop
  endfacet
  facet normal 0.951061 -0.309003 0
    outer loop
      vertex 21.6489 -18.8406 3
      vertex 21.8429 -18.2435 0
      vertex 21.8429 -18.2435 3
    endloop
  endfacet
  facet normal 0.951061 -0.309003 0
    outer loop
      vertex 21.8429 -18.2435 0
      vertex 21.6489 -18.8406 3
      vertex 21.6489 -18.8406 0
    endloop
  endfacet
  facet normal 0.982276 -0.187441 0
    outer loop
      vertex 21.8429 -18.2435 3
      vertex 21.9606 -17.6267 0
      vertex 21.9606 -17.6267 3
    endloop
  endfacet
  facet normal 0.982276 -0.187441 0
    outer loop
      vertex 21.9606 -17.6267 0
      vertex 21.8429 -18.2435 3
      vertex 21.8429 -18.2435 0
    endloop
  endfacet
  facet normal 0.844336 -0.535814 0
    outer loop
      vertex 21.0451 -19.9389 3
      vertex 21.3815 -19.4088 0
      vertex 21.3815 -19.4088 3
    endloop
  endfacet
  facet normal 0.844336 -0.535814 0
    outer loop
      vertex 21.3815 -19.4088 0
      vertex 21.0451 -19.9389 3
      vertex 21.0451 -19.9389 0
    endloop
  endfacet
  facet normal -0.770462 0.637486 0
    outer loop
      vertex -21.0451 19.9389 0
      vertex -20.6448 20.4227 3
      vertex -20.6448 20.4227 0
    endloop
  endfacet
  facet normal -0.770462 0.637486 0
    outer loop
      vertex -20.6448 20.4227 3
      vertex -21.0451 19.9389 0
      vertex -21.0451 19.9389 3
    endloop
  endfacet
  facet normal -0.904811 0.425812 0
    outer loop
      vertex -21.6489 18.8406 0
      vertex -21.3815 19.4088 3
      vertex -21.3815 19.4088 0
    endloop
  endfacet
  facet normal -0.904811 0.425812 0
    outer loop
      vertex -21.3815 19.4088 3
      vertex -21.6489 18.8406 0
      vertex -21.6489 18.8406 3
    endloop
  endfacet
  facet normal 0.951061 0.309003 0
    outer loop
      vertex 21.8429 18.2435 3
      vertex 21.6489 18.8406 0
      vertex 21.6489 18.8406 3
    endloop
  endfacet
  facet normal 0.951061 0.309003 0
    outer loop
      vertex 21.6489 18.8406 0
      vertex 21.8429 18.2435 3
      vertex 21.8429 18.2435 0
    endloop
  endfacet
  facet normal 0.684624 0.728896 -0
    outer loop
      vertex 20.6448 20.4227 0
      vertex 20.1871 20.8526 3
      vertex 20.6448 20.4227 3
    endloop
  endfacet
  facet normal 0.684624 0.728896 0
    outer loop
      vertex 20.1871 20.8526 3
      vertex 20.6448 20.4227 0
      vertex 20.1871 20.8526 0
    endloop
  endfacet
  facet normal 0.368203 0.929745 -0
    outer loop
      vertex 19.1289 21.5241 0
      vertex 18.5451 21.7553 3
      vertex 19.1289 21.5241 3
    endloop
  endfacet
  facet normal 0.368203 0.929745 0
    outer loop
      vertex 18.5451 21.7553 3
      vertex 19.1289 21.5241 0
      vertex 18.5451 21.7553 0
    endloop
  endfacet
  facet normal -0.248601 0.968606 0
    outer loop
      vertex -17.9369 21.9114 0
      vertex -18.5451 21.7553 3
      vertex -17.9369 21.9114 3
    endloop
  endfacet
  facet normal -0.248601 0.968606 0
    outer loop
      vertex -18.5451 21.7553 3
      vertex -17.9369 21.9114 0
      vertex -18.5451 21.7553 0
    endloop
  endfacet
  facet normal -0.125348 0.992113 0
    outer loop
      vertex -17.314 21.9901 0
      vertex -17.9369 21.9114 3
      vertex -17.314 21.9901 3
    endloop
  endfacet
  facet normal -0.125348 0.992113 0
    outer loop
      vertex -17.9369 21.9114 3
      vertex -17.314 21.9901 0
      vertex -17.9369 21.9114 0
    endloop
  endfacet
  facet normal 0 0 -1
    outer loop
      vertex 17.314 -21.9901 0
      vertex 22 -17 0
      vertex 21.9606 -17.6267 0
    endloop
  endfacet
  facet normal 0 0 -1
    outer loop
      vertex 22 -17 0
      vertex -12.3707 -13.0897 0
      vertex 22 17 0
    endloop
  endfacet
  facet normal 0 0 -1
    outer loop
      vertex 17.314 -21.9901 0
      vertex 21.9606 -17.6267 0
      vertex 21.8429 -18.2435 0
    endloop
  endfacet
  facet normal 0 0 -1
    outer loop
      vertex -12.6309 -12.7752 0
      vertex 22 17 0
      vertex -12.3707 -13.0897 0
    endloop
  endfacet
  facet normal 0 0 -1
    outer loop
      vertex 17.314 -21.9901 0
      vertex 21.8429 -18.2435 0
      vertex 21.6489 -18.8406 0
    endloop
  endfacet
  facet normal 0 -0 -1
    outer loop
      vertex 17.314 21.9901 0
      vertex 22 17 0
      vertex -12.6309 -12.7752 0
    endloop
  endfacet
  facet normal 0 0 -1
    outer loop
      vertex 17.314 -21.9901 0
      vertex 21.6489 -18.8406 0
      vertex 21.3815 -19.4088 0
    endloop
  endfacet
  facet normal 0 0 -1
    outer loop
      vertex 22 17 0
      vertex 17.314 21.9901 0
      vertex 21.9606 17.6267 0
    endloop
  endfacet
  facet normal 0 0 -1
    outer loop
      vertex 17.314 -21.9901 0
      vertex 21.3815 -19.4088 0
      vertex 21.0451 -19.9389 0
    endloop
  endfacet
  facet normal -0 0 -1
    outer loop
      vertex 22 -17 0
      vertex 17.314 -21.9901 0
      vertex -11.9782 -13.8036 0
    endloop
  endfacet
  facet normal 0 0 -1
    outer loop
      vertex 17.314 -21.9901 0
      vertex 21.0451 -19.9389 0
      vertex 20.6448 -20.4227 0
    endloop
  endfacet
  facet normal 0 0 -1
    outer loop
      vertex 21.8429 18.2435 0
      vertex 17.314 21.9901 0
      vertex 21.6489 18.8406 0
    endloop
  endfacet
  facet normal 0 0 -1
    outer loop
      vertex 17.314 -21.9901 0
      vertex 20.6448 -20.4227 0
      vertex 20.1871 -20.8526 0
    endloop
  endfacet
  facet normal 0 0 -1
    outer loop
      vertex 21.3815 19.4088 0
      vertex 17.314 21.9901 0
      vertex 21.0451 19.9389 0
    endloop
  endfacet
  facet normal 0 0 -1
    outer loop
      vertex 17.314 -21.9901 0
      vertex 20.1871 -20.8526 0
      vertex 19.6791 -21.2216 0
    endloop
  endfacet
  facet normal 0 0 -1
    outer loop
      vertex 21.0451 19.9389 0
      vertex 17.314 21.9901 0
      vertex 20.6448 20.4227 0
    endloop
  endfacet
  facet normal 0 0 -1
    outer loop
      vertex 17.314 -21.9901 0
      vertex 19.6791 -21.2216 0
      vertex 19.1289 -21.5241 0
    endloop
  endfacet
  facet normal 0 0 -1
    outer loop
      vertex 20.6448 20.4227 0
      vertex 17.314 21.9901 0
      vertex 20.1871 20.8526 0
    endloop
  endfacet
  facet normal 0 0 -1
    outer loop
      vertex 17.314 -21.9901 0
      vertex 19.1289 -21.5241 0
      vertex 18.5451 -21.7553 0
    endloop
  endfacet
  facet normal 0 0 -1
    outer loop
      vertex 20.1871 20.8526 0
      vertex 17.314 21.9901 0
      vertex 19.6791 21.2216 0
    endloop
  endfacet
  facet normal 0 0 -1
    outer loop
      vertex 17.314 -21.9901 0
      vertex 18.5451 -21.7553 0
      vertex 17.9369 -21.9114 0
    endloop
  endfacet
  facet normal 0 0 -1
    outer loop
      vertex 19.6791 21.2216 0
      vertex 17.314 21.9901 0
      vertex 19.1289 21.5241 0
    endloop
  endfacet
  facet normal 0 0 -1
    outer loop
      vertex 19.1289 21.5241 0
      vertex 17.314 21.9901 0
      vertex 18.5451 21.7553 0
    endloop
  endfacet
  facet normal 0 0 -1
    outer loop
      vertex 18.5451 21.7553 0
      vertex 17.314 21.9901 0
      vertex 17.9369 21.9114 0
    endloop
  endfacet
  facet normal 0 0 -1
    outer loop
      vertex -11.7756 -14.5927 0
      vertex 17.314 -21.9901 0
      vertex -11.75 -15 0
    endloop
  endfacet
  facet normal 0 0 -1
    outer loop
      vertex 17.314 -21.9901 0
      vertex -11.7756 -15.4073 0
      vertex -11.75 -15 0
    endloop
  endfacet
  facet normal 0 0 -1
    outer loop
      vertex 17.314 -21.9901 0
      vertex -11.8521 -15.8082 0
      vertex -11.7756 -15.4073 0
    endloop
  endfacet
  facet normal 0 0 -1
    outer loop
      vertex 17.314 -21.9901 0
      vertex -11.9782 -16.1964 0
      vertex -11.8521 -15.8082 0
    endloop
  endfacet
  facet normal 0 0 -1
    outer loop
      vertex 17.314 -21.9901 0
      vertex -12.152 -16.5657 0
      vertex -11.9782 -16.1964 0
    endloop
  endfacet
  facet normal 0 0 -1
    outer loop
      vertex 17.314 -21.9901 0
      vertex -12.3707 -16.9103 0
      vertex -12.152 -16.5657 0
    endloop
  endfacet
  facet normal 0 0 -1
    outer loop
      vertex 17.314 -21.9901 0
      vertex -12.6309 -17.2248 0
      vertex -12.3707 -16.9103 0
    endloop
  endfacet
  facet normal 0 0 -1
    outer loop
      vertex 17.314 -21.9901 0
      vertex -12.9284 -17.5042 0
      vertex -12.6309 -17.2248 0
    endloop
  endfacet
  facet normal 0 0 -1
    outer loop
      vertex -17.314 -21.9901 0
      vertex -12.9284 -17.5042 0
      vertex 17.314 -21.9901 0
    endloop
  endfacet
  facet normal 0 0 -1
    outer loop
      vertex -12.9284 -17.5042 0
      vertex -17.314 -21.9901 0
      vertex -13.2586 -17.7441 0
    endloop
  endfacet
  facet normal 0 0 -1
    outer loop
      vertex -13.2586 -17.7441 0
      vertex -17.314 -21.9901 0
      vertex -13.6162 -17.9407 0
    endloop
  endfacet
  facet normal 0 0 -1
    outer loop
      vertex -13.6162 -17.9407 0
      vertex -17.314 -21.9901 0
      vertex -13.9957 -18.0909 0
    endloop
  endfacet
  facet normal 0 0 -1
    outer loop
      vertex -13.9957 -18.0909 0
      vertex -17.314 -21.9901 0
      vertex -14.391 -18.1924 0
    endloop
  endfacet
  facet normal 0 0 -1
    outer loop
      vertex -14.391 -18.1924 0
      vertex -17.314 -21.9901 0
      vertex -14.7959 -18.2436 0
    endloop
  endfacet
  facet normal -0 0 -1
    outer loop
      vertex -14.7959 -18.2436 0
      vertex -17.314 -21.9901 0
      vertex -15.2041 -18.2436 0
    endloop
  endfacet
  facet normal 0 0 -1
    outer loop
      vertex -17.314 -21.9901 0
      vertex -15.609 -18.1924 0
      vertex -15.2041 -18.2436 0
    endloop
  endfacet
  facet normal 0 0 -1
    outer loop
      vertex -17.314 -21.9901 0
      vertex -16.0043 -18.0909 0
      vertex -15.609 -18.1924 0
    endloop
  endfacet
  facet normal 0 0 -1
    outer loop
      vertex -17.314 -21.9901 0
      vertex -16.3838 -17.9407 0
      vertex -16.0043 -18.0909 0
    endloop
  endfacet
  facet normal 0 0 -1
    outer loop
      vertex -17.9369 -21.9114 0
      vertex -16.3838 -17.9407 0
      vertex -17.314 -21.9901 0
    endloop
  endfacet
  facet normal -0 0 -1
    outer loop
      vertex -16.3838 -17.9407 0
      vertex -17.9369 -21.9114 0
      vertex -16.7414 -17.7441 0
    endloop
  endfacet
  facet normal 0 0 -1
    outer loop
      vertex -18.5451 -21.7553 0
      vertex -16.7414 -17.7441 0
      vertex -17.9369 -21.9114 0
    endloop
  endfacet
  facet normal 0 0 -1
    outer loop
      vertex -19.1289 -21.5241 0
      vertex -16.7414 -17.7441 0
      vertex -18.5451 -21.7553 0
    endloop
  endfacet
  facet normal -0 0 -1
    outer loop
      vertex -16.7414 -17.7441 0
      vertex -19.1289 -21.5241 0
      vertex -17.0716 -17.5042 0
    endloop
  endfacet
  facet normal 0 0 -1
    outer loop
      vertex -19.6791 -21.2216 0
      vertex -17.0716 -17.5042 0
      vertex -19.1289 -21.5241 0
    endloop
  endfacet
  facet normal 0 0 -1
    outer loop
      vertex -20.1871 -20.8526 0
      vertex -17.0716 -17.5042 0
      vertex -19.6791 -21.2216 0
    endloop
  endfacet
  facet normal -0 0 -1
    outer loop
      vertex -17.0716 -17.5042 0
      vertex -20.1871 -20.8526 0
      vertex -17.3691 -17.2248 0
    endloop
  endfacet
  facet normal 0 0 -1
    outer loop
      vertex -20.6448 -20.4227 0
      vertex -17.3691 -17.2248 0
      vertex -20.1871 -20.8526 0
    endloop
  endfacet
  facet normal 0 0 -1
    outer loop
      vertex -21.0451 -19.9389 0
      vertex -17.3691 -17.2248 0
      vertex -20.6448 -20.4227 0
    endloop
  endfacet
  facet normal -0 0 -1
    outer loop
      vertex -17.3691 -17.2248 0
      vertex -21.0451 -19.9389 0
      vertex -17.6293 -16.9103 0
    endloop
  endfacet
  facet normal 0 0 -1
    outer loop
      vertex -11.8521 -14.1918 0
      vertex 17.314 -21.9901 0
      vertex -11.7756 -14.5927 0
    endloop
  endfacet
  facet normal 0 0 -1
    outer loop
      vertex -11.9782 -13.8036 0
      vertex 17.314 -21.9901 0
      vertex -11.8521 -14.1918 0
    endloop
  endfacet
  facet normal 0 0 -1
    outer loop
      vertex 22 -17 0
      vertex -11.9782 -13.8036 0
      vertex -12.152 -13.4343 0
    endloop
  endfacet
  facet normal 0 0 -1
    outer loop
      vertex 22 -17 0
      vertex -12.152 -13.4343 0
      vertex -12.3707 -13.0897 0
    endloop
  endfacet
  facet normal 0 0 -1
    outer loop
      vertex 21.6489 18.8406 0
      vertex 17.314 21.9901 0
      vertex 21.3815 19.4088 0
    endloop
  endfacet
  facet normal 0 0 -1
    outer loop
      vertex 21.9606 17.6267 0
      vertex 17.314 21.9901 0
      vertex 21.8429 18.2435 0
    endloop
  endfacet
  facet normal 0 0 -1
    outer loop
      vertex -12.9284 -12.4958 0
      vertex 17.314 21.9901 0
      vertex -12.6309 -12.7752 0
    endloop
  endfacet
  facet normal 0 0 -1
    outer loop
      vertex -13.2586 -12.2559 0
      vertex 17.314 21.9901 0
      vertex -12.9284 -12.4958 0
    endloop
  endfacet
  facet normal 0 0 -1
    outer loop
      vertex -17.314 21.9901 0
      vertex -13.2586 -12.2559 0
      vertex -13.6162 -12.0593 0
    endloop
  endfacet
  facet normal 0 0 -1
    outer loop
      vertex -22 17 0
      vertex -13.6162 -12.0593 0
      vertex -13.9957 -11.9091 0
    endloop
  endfacet
  facet normal 0 0 -1
    outer loop
      vertex -22 17 0
      vertex -13.9957 -11.9091 0
      vertex -14.391 -11.8076 0
    endloop
  endfacet
  facet normal 0 0 -1
    outer loop
      vertex -22 17 0
      vertex -14.391 -11.8076 0
      vertex -14.7959 -11.7564 0
    endloop
  endfacet
  facet normal 0 0 -1
    outer loop
      vertex -22 17 0
      vertex -14.7959 -11.7564 0
      vertex -15.2041 -11.7564 0
    endloop
  endfacet
  facet normal 0 0 -1
    outer loop
      vertex -22 17 0
      vertex -15.2041 -11.7564 0
      vertex -15.609 -11.8076 0
    endloop
  endfacet
  facet normal 0 0 -1
    outer loop
      vertex -22 17 0
      vertex -15.609 -11.8076 0
      vertex -16.0043 -11.9091 0
    endloop
  endfacet
  facet normal 0 0 -1
    outer loop
      vertex -22 17 0
      vertex -16.0043 -11.9091 0
      vertex -16.3838 -12.0593 0
    endloop
  endfacet
  facet normal 0 0 -1
    outer loop
      vertex -22 17 0
      vertex -16.3838 -12.0593 0
      vertex -16.7414 -12.2559 0
    endloop
  endfacet
  facet normal 0 0 -1
    outer loop
      vertex -22 17 0
      vertex -16.7414 -12.2559 0
      vertex -17.0716 -12.4958 0
    endloop
  endfacet
  facet normal 0 0 -1
    outer loop
      vertex -13.2586 -12.2559 0
      vertex -17.314 21.9901 0
      vertex 17.314 21.9901 0
    endloop
  endfacet
  facet normal 0 0 -1
    outer loop
      vertex -22 17 0
      vertex -17.0716 -12.4958 0
      vertex -17.3691 -12.7752 0
    endloop
  endfacet
  facet normal 0 0 -1
    outer loop
      vertex -22 17 0
      vertex -17.3691 -12.7752 0
      vertex -17.6293 -13.0897 0
    endloop
  endfacet
  facet normal 0 0 -1
    outer loop
      vertex -22 -17 0
      vertex -17.6293 -13.0897 0
      vertex -17.848 -13.4343 0
    endloop
  endfacet
  facet normal 0 0 -1
    outer loop
      vertex -13.6162 -12.0593 0
      vertex -22 17 0
      vertex -17.314 21.9901 0
    endloop
  endfacet
  facet normal 0 0 -1
    outer loop
      vertex -22 -17 0
      vertex -17.848 -13.4343 0
      vertex -18.0218 -13.8036 0
    endloop
  endfacet
  facet normal 0 0 -1
    outer loop
      vertex -22 -17 0
      vertex -18.0218 -13.8036 0
      vertex -18.1479 -14.1918 0
    endloop
  endfacet
  facet normal 0 0 -1
    outer loop
      vertex -22 -17 0
      vertex -18.1479 -14.1918 0
      vertex -18.2244 -14.5927 0
    endloop
  endfacet
  facet normal 0 0 -1
    outer loop
      vertex -22 -17 0
      vertex -18.2244 -14.5927 0
      vertex -18.25 -15 0
    endloop
  endfacet
  facet normal 0 0 -1
    outer loop
      vertex -21.3815 -19.4088 0
      vertex -17.6293 -16.9103 0
      vertex -21.0451 -19.9389 0
    endloop
  endfacet
  facet normal -0 0 -1
    outer loop
      vertex -17.6293 -13.0897 0
      vertex -22 -17 0
      vertex -22 17 0
    endloop
  endfacet
  facet normal 0 0 -1
    outer loop
      vertex -21.6489 -18.8406 0
      vertex -17.6293 -16.9103 0
      vertex -21.3815 -19.4088 0
    endloop
  endfacet
  facet normal 0 0 -1
    outer loop
      vertex -17.314 21.9901 0
      vertex -22 17 0
      vertex -17.9369 21.9114 0
    endloop
  endfacet
  facet normal -0 0 -1
    outer loop
      vertex -17.6293 -16.9103 0
      vertex -21.6489 -18.8406 0
      vertex -17.848 -16.5657 0
    endloop
  endfacet
  facet normal 0 0 -1
    outer loop
      vertex -17.9369 21.9114 0
      vertex -22 17 0
      vertex -18.5451 21.7553 0
    endloop
  endfacet
  facet normal 0 0 -1
    outer loop
      vertex -21.8429 -18.2435 0
      vertex -17.848 -16.5657 0
      vertex -21.6489 -18.8406 0
    endloop
  endfacet
  facet normal 0 0 -1
    outer loop
      vertex -18.5451 21.7553 0
      vertex -22 17 0
      vertex -19.1289 21.5241 0
    endloop
  endfacet
  facet normal 0 0 -1
    outer loop
      vertex -21.9606 -17.6267 0
      vertex -17.848 -16.5657 0
      vertex -21.8429 -18.2435 0
    endloop
  endfacet
  facet normal 0 0 -1
    outer loop
      vertex -19.1289 21.5241 0
      vertex -22 17 0
      vertex -19.6791 21.2216 0
    endloop
  endfacet
  facet normal -0 0 -1
    outer loop
      vertex -17.848 -16.5657 0
      vertex -21.9606 -17.6267 0
      vertex -18.0218 -16.1964 0
    endloop
  endfacet
  facet normal 0 0 -1
    outer loop
      vertex -19.6791 21.2216 0
      vertex -22 17 0
      vertex -20.1871 20.8526 0
    endloop
  endfacet
  facet normal 0 0 -1
    outer loop
      vertex -22 -17 0
      vertex -18.0218 -16.1964 0
      vertex -21.9606 -17.6267 0
    endloop
  endfacet
  facet normal 0 0 -1
    outer loop
      vertex -20.1871 20.8526 0
      vertex -22 17 0
      vertex -20.6448 20.4227 0
    endloop
  endfacet
  facet normal -0 0 -1
    outer loop
      vertex -18.0218 -16.1964 0
      vertex -22 -17 0
      vertex -18.1479 -15.8082 0
    endloop
  endfacet
  facet normal 0 0 -1
    outer loop
      vertex -20.6448 20.4227 0
      vertex -22 17 0
      vertex -21.0451 19.9389 0
    endloop
  endfacet
  facet normal -0 0 -1
    outer loop
      vertex -18.1479 -15.8082 0
      vertex -22 -17 0
      vertex -18.2244 -15.4073 0
    endloop
  endfacet
  facet normal 0 0 -1
    outer loop
      vertex -21.0451 19.9389 0
      vertex -22 17 0
      vertex -21.3815 19.4088 0
    endloop
  endfacet
  facet normal -0 0 -1
    outer loop
      vertex -18.2244 -15.4073 0
      vertex -22 -17 0
      vertex -18.25 -15 0
    endloop
  endfacet
  facet normal 0 0 -1
    outer loop
      vertex -21.3815 19.4088 0
      vertex -22 17 0
      vertex -21.6489 18.8406 0
    endloop
  endfacet
  facet normal 0 0 -1
    outer loop
      vertex -21.6489 18.8406 0
      vertex -22 17 0
      vertex -21.8429 18.2435 0
    endloop
  endfacet
  facet normal 0 0 -1
    outer loop
      vertex -21.8429 18.2435 0
      vertex -22 17 0
      vertex -21.9606 17.6267 0
    endloop
  endfacet
  facet normal -0.951061 -0.309003 0
    outer loop
      vertex -21.6489 -18.8406 0
      vertex -21.8429 -18.2435 3
      vertex -21.8429 -18.2435 0
    endloop
  endfacet
  facet normal -0.951061 -0.309003 0
    outer loop
      vertex -21.8429 -18.2435 3
      vertex -21.6489 -18.8406 0
      vertex -21.6489 -18.8406 3
    endloop
  endfacet
  facet normal -0.904811 -0.425812 0
    outer loop
      vertex -21.3815 -19.4088 0
      vertex -21.6489 -18.8406 3
      vertex -21.6489 -18.8406 0
    endloop
  endfacet
  facet normal -0.904811 -0.425812 0
    outer loop
      vertex -21.6489 -18.8406 3
      vertex -21.3815 -19.4088 0
      vertex -21.3815 -19.4088 3
    endloop
  endfacet
  facet normal -0.368203 -0.929745 0
    outer loop
      vertex -19.1289 -21.5241 0
      vertex -18.5451 -21.7553 3
      vertex -19.1289 -21.5241 3
    endloop
  endfacet
  facet normal -0.368203 -0.929745 -0
    outer loop
      vertex -18.5451 -21.7553 3
      vertex -19.1289 -21.5241 0
      vertex -18.5451 -21.7553 0
    endloop
  endfacet
  facet normal -0.684624 -0.728896 0
    outer loop
      vertex -20.6448 -20.4227 0
      vertex -20.1871 -20.8526 3
      vertex -20.6448 -20.4227 3
    endloop
  endfacet
  facet normal -0.684624 -0.728896 -0
    outer loop
      vertex -20.1871 -20.8526 3
      vertex -20.6448 -20.4227 0
      vertex -20.1871 -20.8526 0
    endloop
  endfacet
  facet normal 0.99803 -0.0627451 0
    outer loop
      vertex 21.9606 -17.6267 3
      vertex 22 -17 0
      vertex 22 -17 3
    endloop
  endfacet
  facet normal 0.99803 -0.0627451 0
    outer loop
      vertex 22 -17 0
      vertex 21.9606 -17.6267 3
      vertex 21.9606 -17.6267 0
    endloop
  endfacet
  facet normal -0.844336 0.535814 0
    outer loop
      vertex -21.3815 19.4088 0
      vertex -21.0451 19.9389 3
      vertex -21.0451 19.9389 0
    endloop
  endfacet
  facet normal -0.844336 0.535814 0
    outer loop
      vertex -21.0451 19.9389 3
      vertex -21.3815 19.4088 0
      vertex -21.3815 19.4088 3
    endloop
  endfacet
  facet normal 0.982276 0.187441 0
    outer loop
      vertex 21.9606 17.6267 3
      vertex 21.8429 18.2435 0
      vertex 21.8429 18.2435 3
    endloop
  endfacet
  facet normal 0.982276 0.187441 0
    outer loop
      vertex 21.8429 18.2435 0
      vertex 21.9606 17.6267 3
      vertex 21.9606 17.6267 0
    endloop
  endfacet
  facet normal 0.904811 0.425812 0
    outer loop
      vertex 21.6489 18.8406 3
      vertex 21.3815 19.4088 0
      vertex 21.3815 19.4088 3
    endloop
  endfacet
  facet normal 0.904811 0.425812 0
    outer loop
      vertex 21.3815 19.4088 0
      vertex 21.6489 18.8406 3
      vertex 21.6489 18.8406 0
    endloop
  endfacet
  facet normal 0.844336 0.535814 0
    outer loop
      vertex 21.3815 19.4088 3
      vertex 21.0451 19.9389 0
      vertex 21.0451 19.9389 3
    endloop
  endfacet
  facet normal 0.844336 0.535814 0
    outer loop
      vertex 21.0451 19.9389 0
      vertex 21.3815 19.4088 3
      vertex 21.3815 19.4088 0
    endloop
  endfacet
  facet normal 0.587698 0.80908 -0
    outer loop
      vertex 20.1871 20.8526 0
      vertex 19.6791 21.2216 3
      vertex 20.1871 20.8526 3
    endloop
  endfacet
  facet normal 0.587698 0.80908 0
    outer loop
      vertex 19.6791 21.2216 3
      vertex 20.1871 20.8526 0
      vertex 19.6791 21.2216 0
    endloop
  endfacet
  facet normal 0.481784 0.87629 -0
    outer loop
      vertex 19.6791 21.2216 0
      vertex 19.1289 21.5241 3
      vertex 19.6791 21.2216 3
    endloop
  endfacet
  facet normal 0.481784 0.87629 0
    outer loop
      vertex 19.1289 21.5241 3
      vertex 19.6791 21.2216 0
      vertex 19.1289 21.5241 0
    endloop
  endfacet
  facet normal 0.248601 0.968606 -0
    outer loop
      vertex 18.5451 21.7553 0
      vertex 17.9369 21.9114 3
      vertex 18.5451 21.7553 3
    endloop
  endfacet
  facet normal 0.248601 0.968606 0
    outer loop
      vertex 17.9369 21.9114 3
      vertex 18.5451 21.7553 0
      vertex 17.9369 21.9114 0
    endloop
  endfacet
  facet normal 0.125348 0.992113 -0
    outer loop
      vertex 17.9369 21.9114 0
      vertex 17.314 21.9901 3
      vertex 17.9369 21.9114 3
    endloop
  endfacet
  facet normal 0.125348 0.992113 0
    outer loop
      vertex 17.314 21.9901 3
      vertex 17.9369 21.9114 0
      vertex 17.314 21.9901 0
    endloop
  endfacet
  facet normal -0.982276 -0.187441 0
    outer loop
      vertex -21.8429 -18.2435 0
      vertex -21.9606 -17.6267 3
      vertex -21.9606 -17.6267 0
    endloop
  endfacet
  facet normal -0.982276 -0.187441 0
    outer loop
      vertex -21.9606 -17.6267 3
      vertex -21.8429 -18.2435 0
      vertex -21.8429 -18.2435 3
    endloop
  endfacet
  facet normal -0.481784 -0.87629 0
    outer loop
      vertex -19.6791 -21.2216 0
      vertex -19.1289 -21.5241 3
      vertex -19.6791 -21.2216 3
    endloop
  endfacet
  facet normal -0.481784 -0.87629 -0
    outer loop
      vertex -19.1289 -21.5241 3
      vertex -19.6791 -21.2216 0
      vertex -19.1289 -21.5241 0
    endloop
  endfacet
  facet normal -0.587698 -0.80908 0
    outer loop
      vertex -20.1871 -20.8526 0
      vertex -19.6791 -21.2216 3
      vertex -20.1871 -20.8526 3
    endloop
  endfacet
  facet normal -0.587698 -0.80908 -0
    outer loop
      vertex -19.6791 -21.2216 3
      vertex -20.1871 -20.8526 0
      vertex -19.6791 -21.2216 0
    endloop
  endfacet
  facet normal 0.248601 -0.968606 0
    outer loop
      vertex 17.9369 -21.9114 0
      vertex 18.5451 -21.7553 3
      vertex 17.9369 -21.9114 3
    endloop
  endfacet
  facet normal 0.248601 -0.968606 0
    outer loop
      vertex 18.5451 -21.7553 3
      vertex 17.9369 -21.9114 0
      vertex 18.5451 -21.7553 0
    endloop
  endfacet
  facet normal 0.587698 -0.80908 0
    outer loop
      vertex 19.6791 -21.2216 0
      vertex 20.1871 -20.8526 3
      vertex 19.6791 -21.2216 3
    endloop
  endfacet
  facet normal 0.587698 -0.80908 0
    outer loop
      vertex 20.1871 -20.8526 3
      vertex 19.6791 -21.2216 0
      vertex 20.1871 -20.8526 0
    endloop
  endfacet
  facet normal 0.481784 -0.87629 0
    outer loop
      vertex 19.1289 -21.5241 0
      vertex 19.6791 -21.2216 3
      vertex 19.1289 -21.5241 3
    endloop
  endfacet
  facet normal 0.481784 -0.87629 0
    outer loop
      vertex 19.6791 -21.2216 3
      vertex 19.1289 -21.5241 0
      vertex 19.6791 -21.2216 0
    endloop
  endfacet
  facet normal 0.125348 -0.992113 0
    outer loop
      vertex 17.314 -21.9901 0
      vertex 17.9369 -21.9114 3
      vertex 17.314 -21.9901 3
    endloop
  endfacet
  facet normal 0.125348 -0.992113 0
    outer loop
      vertex 17.9369 -21.9114 3
      vertex 17.314 -21.9901 0
      vertex 17.9369 -21.9114 0
    endloop
  endfacet
  facet normal 0.904811 -0.425812 0
    outer loop
      vertex 21.3815 -19.4088 3
      vertex 21.6489 -18.8406 0
      vertex 21.6489 -18.8406 3
    endloop
  endfacet
  facet normal 0.904811 -0.425812 0
    outer loop
      vertex 21.6489 -18.8406 0
      vertex 21.3815 -19.4088 3
      vertex 21.3815 -19.4088 0
    endloop
  endfacet
  facet normal 0.684624 -0.728896 0
    outer loop
      vertex 20.1871 -20.8526 0
      vertex 20.6448 -20.4227 3
      vertex 20.1871 -20.8526 3
    endloop
  endfacet
  facet normal 0.684624 -0.728896 0
    outer loop
      vertex 20.6448 -20.4227 3
      vertex 20.1871 -20.8526 0
      vertex 20.6448 -20.4227 0
    endloop
  endfacet
endsolid OpenSCAD_Model
