solid OpenSCAD_Model
  facet normal 0.587783 0.809018 -0
    outer loop
      vertex 4.46197 18.8936 -6
      vertex 3.75079 19.4103 6
      vertex 4.46197 18.8936 6
    endloop
  endfacet
  facet normal 0.587783 0.809018 0
    outer loop
      vertex 3.75079 19.4103 6
      vertex 4.46197 18.8936 -6
      vertex 3.75079 19.4103 -6
    endloop
  endfacet
  facet normal -0.368121 0.929778 0
    outer loop
      vertex -2.16312 20.1574 -6
      vertex -2.98045 19.8338 6
      vertex -2.16312 20.1574 6
    endloop
  endfacet
  facet normal -0.368121 0.929778 0
    outer loop
      vertex -2.98045 19.8338 6
      vertex -2.16312 20.1574 -6
      vertex -2.98045 19.8338 -6
    endloop
  endfacet
  facet normal -0.904826 0.425782 0
    outer loop
      vertex -6.50844 16.0769 -6
      vertex -6.13415 16.8723 6
      vertex -6.13415 16.8723 -6
    endloop
  endfacet
  facet normal -0.904826 0.425782 0
    outer loop
      vertex -6.13415 16.8723 6
      vertex -6.50844 16.0769 -6
      vertex -6.50844 16.0769 6
    endloop
  endfacet
  facet normal 0.904826 0.425782 0
    outer loop
      vertex 6.50844 16.0769 6
      vertex 6.13415 16.8723 -6
      vertex 6.13415 16.8723 6
    endloop
  endfacet
  facet normal 0.904826 0.425782 0
    outer loop
      vertex 6.13415 16.8723 -6
      vertex 6.50844 16.0769 6
      vertex 6.50844 16.0769 -6
    endloop
  endfacet
  facet normal 0.982288 0.18738 0
    outer loop
      vertex 6.9448 14.3773 6
      vertex 6.78008 15.2408 -6
      vertex 6.78008 15.2408 6
    endloop
  endfacet
  facet normal 0.982288 0.18738 0
    outer loop
      vertex 6.78008 15.2408 -6
      vertex 6.9448 14.3773 6
      vertex 6.9448 14.3773 -6
    endloop
  endfacet
  facet normal 0.84432 0.535839 0
    outer loop
      vertex 6.13415 16.8723 6
      vertex 5.66312 17.6145 -6
      vertex 5.66312 17.6145 6
    endloop
  endfacet
  facet normal 0.84432 0.535839 0
    outer loop
      vertex 5.66312 17.6145 -6
      vertex 6.13415 16.8723 6
      vertex 6.13415 16.8723 -6
    endloop
  endfacet
  facet normal 0.684571 0.728946 -0
    outer loop
      vertex 5.10278 18.2918 -6
      vertex 4.46197 18.8936 6
      vertex 5.10278 18.2918 6
    endloop
  endfacet
  facet normal 0.684571 0.728946 0
    outer loop
      vertex 4.46197 18.8936 6
      vertex 5.10278 18.2918 -6
      vertex 4.46197 18.8936 -6
    endloop
  endfacet
  facet normal 0.368121 0.929778 -0
    outer loop
      vertex 2.98045 19.8338 -6
      vertex 2.16312 20.1574 6
      vertex 2.98045 19.8338 6
    endloop
  endfacet
  facet normal 0.368121 0.929778 0
    outer loop
      vertex 2.16312 20.1574 6
      vertex 2.98045 19.8338 -6
      vertex 2.16312 20.1574 -6
    endloop
  endfacet
  facet normal 0 1 -0
    outer loop
      vertex 0.439533 20.4862 -6
      vertex -0.439533 20.4862 6
      vertex 0.439533 20.4862 6
    endloop
  endfacet
  facet normal 0 1 0
    outer loop
      vertex -0.439533 20.4862 6
      vertex 0.439533 20.4862 -6
      vertex -0.439533 20.4862 -6
    endloop
  endfacet
  facet normal 0 0 -1
    outer loop
      vertex -2 12.25 -6
      vertex 2 17.75 -6
      vertex 2 12.25 -6
    endloop
  endfacet
  facet normal -0 0 -1
    outer loop
      vertex 2 17.75 -6
      vertex -2 12.25 -6
      vertex -2 17.75 -6
    endloop
  endfacet
  facet normal 0 0 -1
    outer loop
      vertex 5.47162 9 -6
      vertex 7 13.5 -6
      vertex 7 0 -6
    endloop
  endfacet
  facet normal 0 0 -1
    outer loop
      vertex 2 12.25 -6
      vertex 7 13.5 -6
      vertex 5.47162 9 -6
    endloop
  endfacet
  facet normal -0 0 -1
    outer loop
      vertex 7 13.5 -6
      vertex 2 12.25 -6
      vertex 6.9448 14.3773 -6
    endloop
  endfacet
  facet normal -0 0 -1
    outer loop
      vertex 6.9448 14.3773 -6
      vertex 2 12.25 -6
      vertex 6.78008 15.2408 -6
    endloop
  endfacet
  facet normal -0 0 -1
    outer loop
      vertex 6.78008 15.2408 -6
      vertex 2 12.25 -6
      vertex 6.50844 16.0769 -6
    endloop
  endfacet
  facet normal 0 0 -1
    outer loop
      vertex 5.47162 9 -6
      vertex 7 0 -6
      vertex 5.47162 3.1 -6
    endloop
  endfacet
  facet normal 0 0 -1
    outer loop
      vertex 7 0 -6
      vertex -5.47162 3.1 -6
      vertex 5.47162 3.1 -6
    endloop
  endfacet
  facet normal 0 0 -1
    outer loop
      vertex -7 0 -6
      vertex -5.47162 9 -6
      vertex -5.47162 3.1 -6
    endloop
  endfacet
  facet normal 0 0 -1
    outer loop
      vertex -5.47162 9 -6
      vertex -7 13.5 -6
      vertex -5.66312 17.6145 -6
    endloop
  endfacet
  facet normal 0 0 -1
    outer loop
      vertex -5.66312 17.6145 -6
      vertex -7 13.5 -6
      vertex -6.13415 16.8723 -6
    endloop
  endfacet
  facet normal 0 0 -1
    outer loop
      vertex -6.13415 16.8723 -6
      vertex -7 13.5 -6
      vertex -6.50844 16.0769 -6
    endloop
  endfacet
  facet normal 0 0 -1
    outer loop
      vertex -6.50844 16.0769 -6
      vertex -7 13.5 -6
      vertex -6.78008 15.2408 -6
    endloop
  endfacet
  facet normal 0 0 -1
    outer loop
      vertex -7 0 -6
      vertex -5.47162 3.1 -6
      vertex 7 0 -6
    endloop
  endfacet
  facet normal -0 0 -1
    outer loop
      vertex -5.47162 9 -6
      vertex -7 0 -6
      vertex -7 13.5 -6
    endloop
  endfacet
  facet normal 0 0 -1
    outer loop
      vertex -6.78008 15.2408 -6
      vertex -7 13.5 -6
      vertex -6.9448 14.3773 -6
    endloop
  endfacet
  facet normal 0 0 -1
    outer loop
      vertex 2 17.75 -6
      vertex 6.50844 16.0769 -6
      vertex 2 12.25 -6
    endloop
  endfacet
  facet normal 0 0 -1
    outer loop
      vertex 6.50844 16.0769 -6
      vertex 2 17.75 -6
      vertex 6.13415 16.8723 -6
    endloop
  endfacet
  facet normal 0 0 -1
    outer loop
      vertex 6.13415 16.8723 -6
      vertex 2 17.75 -6
      vertex 5.66312 17.6145 -6
    endloop
  endfacet
  facet normal 0 0 -1
    outer loop
      vertex 5.66312 17.6145 -6
      vertex 2 17.75 -6
      vertex 5.10278 18.2918 -6
    endloop
  endfacet
  facet normal -0 0 -1
    outer loop
      vertex 5.10278 18.2918 -6
      vertex 2 17.75 -6
      vertex 4.46197 18.8936 -6
    endloop
  endfacet
  facet normal 0 0 -1
    outer loop
      vertex 2 19.25 -6
      vertex 3.75079 19.4103 -6
      vertex 2 17.75 -6
    endloop
  endfacet
  facet normal 0 0 -1
    outer loop
      vertex 2 12.25 -6
      vertex 5.47162 9 -6
      vertex 2 10.75 -6
    endloop
  endfacet
  facet normal 0 0 -1
    outer loop
      vertex 5.47162 9 -6
      vertex -2 10.75 -6
      vertex 2 10.75 -6
    endloop
  endfacet
  facet normal 0 0 -1
    outer loop
      vertex -5.47162 9 -6
      vertex -2 12.25 -6
      vertex -2 10.75 -6
    endloop
  endfacet
  facet normal 0 0 -1
    outer loop
      vertex -2 12.25 -6
      vertex -5.66312 17.6145 -6
      vertex -2 17.75 -6
    endloop
  endfacet
  facet normal 0 -0 -1
    outer loop
      vertex -5.10278 18.2918 -6
      vertex -2 17.75 -6
      vertex -5.66312 17.6145 -6
    endloop
  endfacet
  facet normal 0 0 -1
    outer loop
      vertex -2 19.25 -6
      vertex -2.98045 19.8338 -6
      vertex -2.16312 20.1574 -6
    endloop
  endfacet
  facet normal 0 0 -1
    outer loop
      vertex -2 19.25 -6
      vertex -3.75079 19.4103 -6
      vertex -2.98045 19.8338 -6
    endloop
  endfacet
  facet normal 0 0 -1
    outer loop
      vertex -2 17.75 -6
      vertex -3.75079 19.4103 -6
      vertex -2 19.25 -6
    endloop
  endfacet
  facet normal 0 -0 -1
    outer loop
      vertex -3.75079 19.4103 -6
      vertex -2 17.75 -6
      vertex -4.46197 18.8936 -6
    endloop
  endfacet
  facet normal 0 0 -1
    outer loop
      vertex -5.47162 9 -6
      vertex -2 10.75 -6
      vertex 5.47162 9 -6
    endloop
  endfacet
  facet normal -0 0 -1
    outer loop
      vertex -2 12.25 -6
      vertex -5.47162 9 -6
      vertex -5.66312 17.6145 -6
    endloop
  endfacet
  facet normal 0 -0 -1
    outer loop
      vertex -4.46197 18.8936 -6
      vertex -2 17.75 -6
      vertex -5.10278 18.2918 -6
    endloop
  endfacet
  facet normal -0 0 -1
    outer loop
      vertex 4.46197 18.8936 -6
      vertex 2 17.75 -6
      vertex 3.75079 19.4103 -6
    endloop
  endfacet
  facet normal -0 0 -1
    outer loop
      vertex 3.75079 19.4103 -6
      vertex 2 19.25 -6
      vertex 2.98045 19.8338 -6
    endloop
  endfacet
  facet normal -0 0 -1
    outer loop
      vertex 2.98045 19.8338 -6
      vertex 2 19.25 -6
      vertex 2.16312 20.1574 -6
    endloop
  endfacet
  facet normal 0 0 -1
    outer loop
      vertex 2 19.25 -6
      vertex 1.31167 20.376 -6
      vertex 2.16312 20.1574 -6
    endloop
  endfacet
  facet normal 0 0 -1
    outer loop
      vertex 2 19.25 -6
      vertex 0.439533 20.4862 -6
      vertex 1.31167 20.376 -6
    endloop
  endfacet
  facet normal 0 0 -1
    outer loop
      vertex 2 19.25 -6
      vertex -0.439533 20.4862 -6
      vertex 0.439533 20.4862 -6
    endloop
  endfacet
  facet normal 0 0 -1
    outer loop
      vertex -2 19.25 -6
      vertex -0.439533 20.4862 -6
      vertex 2 19.25 -6
    endloop
  endfacet
  facet normal 0 0 -1
    outer loop
      vertex -0.439533 20.4862 -6
      vertex -2 19.25 -6
      vertex -1.31167 20.376 -6
    endloop
  endfacet
  facet normal 0 0 -1
    outer loop
      vertex -1.31167 20.376 -6
      vertex -2 19.25 -6
      vertex -2.16312 20.1574 -6
    endloop
  endfacet
  facet normal -0.998026 0.0627961 0
    outer loop
      vertex -7 13.5 -6
      vertex -6.9448 14.3773 6
      vertex -6.9448 14.3773 -6
    endloop
  endfacet
  facet normal -0.998026 0.0627961 0
    outer loop
      vertex -6.9448 14.3773 6
      vertex -7 13.5 -6
      vertex -7 13.5 6
    endloop
  endfacet
  facet normal -0.770497 0.637443 0
    outer loop
      vertex -5.66312 17.6145 -6
      vertex -5.10278 18.2918 6
      vertex -5.10278 18.2918 -6
    endloop
  endfacet
  facet normal -0.770497 0.637443 0
    outer loop
      vertex -5.10278 18.2918 6
      vertex -5.66312 17.6145 -6
      vertex -5.66312 17.6145 6
    endloop
  endfacet
  facet normal -0.248674 0.968587 0
    outer loop
      vertex -1.31167 20.376 -6
      vertex -2.16312 20.1574 6
      vertex -1.31167 20.376 6
    endloop
  endfacet
  facet normal -0.248674 0.968587 0
    outer loop
      vertex -2.16312 20.1574 6
      vertex -1.31167 20.376 -6
      vertex -2.16312 20.1574 -6
    endloop
  endfacet
  facet normal -0.684571 0.728946 0
    outer loop
      vertex -4.46197 18.8936 -6
      vertex -5.10278 18.2918 6
      vertex -4.46197 18.8936 6
    endloop
  endfacet
  facet normal -0.684571 0.728946 0
    outer loop
      vertex -5.10278 18.2918 6
      vertex -4.46197 18.8936 -6
      vertex -5.10278 18.2918 -6
    endloop
  endfacet
  facet normal 0.951065 0.308991 0
    outer loop
      vertex 6.78008 15.2408 6
      vertex 6.50844 16.0769 -6
      vertex 6.50844 16.0769 6
    endloop
  endfacet
  facet normal 0.951065 0.308991 0
    outer loop
      vertex 6.50844 16.0769 -6
      vertex 6.78008 15.2408 6
      vertex 6.78008 15.2408 -6
    endloop
  endfacet
  facet normal 0.770497 0.637443 0
    outer loop
      vertex 5.66312 17.6145 6
      vertex 5.10278 18.2918 -6
      vertex 5.10278 18.2918 6
    endloop
  endfacet
  facet normal 0.770497 0.637443 0
    outer loop
      vertex 5.10278 18.2918 -6
      vertex 5.66312 17.6145 6
      vertex 5.66312 17.6145 -6
    endloop
  endfacet
  facet normal 0.481755 0.876306 -0
    outer loop
      vertex 3.75079 19.4103 -6
      vertex 2.98045 19.8338 6
      vertex 3.75079 19.4103 6
    endloop
  endfacet
  facet normal 0.481755 0.876306 0
    outer loop
      vertex 2.98045 19.8338 6
      vertex 3.75079 19.4103 -6
      vertex 2.98045 19.8338 -6
    endloop
  endfacet
  facet normal 0.248674 0.968587 -0
    outer loop
      vertex 2.16312 20.1574 -6
      vertex 1.31167 20.376 6
      vertex 2.16312 20.1574 6
    endloop
  endfacet
  facet normal 0.248674 0.968587 0
    outer loop
      vertex 1.31167 20.376 6
      vertex 2.16312 20.1574 -6
      vertex 1.31167 20.376 -6
    endloop
  endfacet
  facet normal 0.12536 0.992111 -0
    outer loop
      vertex 1.31167 20.376 -6
      vertex 0.439533 20.4862 6
      vertex 1.31167 20.376 6
    endloop
  endfacet
  facet normal 0.12536 0.992111 0
    outer loop
      vertex 0.439533 20.4862 6
      vertex 1.31167 20.376 -6
      vertex 0.439533 20.4862 -6
    endloop
  endfacet
  facet normal -0 0 1
    outer loop
      vertex -2 17.75 6
      vertex 2 12.25 6
      vertex 2 17.75 6
    endloop
  endfacet
  facet normal 0 0 1
    outer loop
      vertex 2 12.25 6
      vertex -2 17.75 6
      vertex -2 12.25 6
    endloop
  endfacet
  facet normal 0 0 1
    outer loop
      vertex 1.31167 20.376 6
      vertex 2 19.25 6
      vertex 2.16312 20.1574 6
    endloop
  endfacet
  facet normal 0 0 1
    outer loop
      vertex 0.439533 20.4862 6
      vertex 2 19.25 6
      vertex 1.31167 20.376 6
    endloop
  endfacet
  facet normal -0 0 1
    outer loop
      vertex -0.439533 20.4862 6
      vertex 2 19.25 6
      vertex 0.439533 20.4862 6
    endloop
  endfacet
  facet normal 0 0 1
    outer loop
      vertex -2 19.25 6
      vertex -0.439533 20.4862 6
      vertex -1.31167 20.376 6
    endloop
  endfacet
  facet normal 0 0 1
    outer loop
      vertex -0.439533 20.4862 6
      vertex -2 19.25 6
      vertex 2 19.25 6
    endloop
  endfacet
  facet normal 0 0 1
    outer loop
      vertex -3.75079 19.4103 6
      vertex -2 17.75 6
      vertex -2 19.25 6
    endloop
  endfacet
  facet normal 0 0 1
    outer loop
      vertex -5.66312 17.6145 6
      vertex -2 17.75 6
      vertex -5.10278 18.2918 6
    endloop
  endfacet
  facet normal -0 0 1
    outer loop
      vertex -2.98045 19.8338 6
      vertex -2 19.25 6
      vertex -2.16312 20.1574 6
    endloop
  endfacet
  facet normal -0 0 1
    outer loop
      vertex -2.16312 20.1574 6
      vertex -2 19.25 6
      vertex -1.31167 20.376 6
    endloop
  endfacet
  facet normal -0 0 1
    outer loop
      vertex 2 17.75 6
      vertex 5.66312 17.6145 6
      vertex 5.10278 18.2918 6
    endloop
  endfacet
  facet normal 0 0 1
    outer loop
      vertex 2 17.75 6
      vertex 5.10278 18.2918 6
      vertex 4.46197 18.8936 6
    endloop
  endfacet
  facet normal 0 0 1
    outer loop
      vertex 2 17.75 6
      vertex 4.46197 18.8936 6
      vertex 3.75079 19.4103 6
    endloop
  endfacet
  facet normal 0 0 1
    outer loop
      vertex 2 19.25 6
      vertex 3.75079 19.4103 6
      vertex 2.98045 19.8338 6
    endloop
  endfacet
  facet normal 0 0 1
    outer loop
      vertex 2 19.25 6
      vertex 2.98045 19.8338 6
      vertex 2.16312 20.1574 6
    endloop
  endfacet
  facet normal 0 0 1
    outer loop
      vertex 3.75079 19.4103 6
      vertex 2 19.25 6
      vertex 2 17.75 6
    endloop
  endfacet
  facet normal 0 0 1
    outer loop
      vertex 5.66312 17.6145 6
      vertex 2 17.75 6
      vertex 2 12.25 6
    endloop
  endfacet
  facet normal 0 0 1
    outer loop
      vertex 5.66312 17.6145 6
      vertex 2 12.25 6
      vertex 5.47162 9 6
    endloop
  endfacet
  facet normal -0 0 1
    outer loop
      vertex 2 10.75 6
      vertex 5.47162 9 6
      vertex 2 12.25 6
    endloop
  endfacet
  facet normal -0 0 1
    outer loop
      vertex -2 10.75 6
      vertex 5.47162 9 6
      vertex 2 10.75 6
    endloop
  endfacet
  facet normal -0 0 1
    outer loop
      vertex -3.75079 19.4103 6
      vertex -2 19.25 6
      vertex -2.98045 19.8338 6
    endloop
  endfacet
  facet normal 0 0 1
    outer loop
      vertex -2 17.75 6
      vertex -3.75079 19.4103 6
      vertex -4.46197 18.8936 6
    endloop
  endfacet
  facet normal 0 0 1
    outer loop
      vertex -2 17.75 6
      vertex -4.46197 18.8936 6
      vertex -5.10278 18.2918 6
    endloop
  endfacet
  facet normal 0 0 1
    outer loop
      vertex -6.13415 16.8723 6
      vertex -2 17.75 6
      vertex -5.66312 17.6145 6
    endloop
  endfacet
  facet normal 0 0 1
    outer loop
      vertex -2 10.75 6
      vertex -5.47162 9 6
      vertex 5.47162 9 6
    endloop
  endfacet
  facet normal 0 0 1
    outer loop
      vertex -6.50844 16.0769 6
      vertex -2 17.75 6
      vertex -6.13415 16.8723 6
    endloop
  endfacet
  facet normal 0 0 1
    outer loop
      vertex -2 12.25 6
      vertex -5.47162 9 6
      vertex -2 10.75 6
    endloop
  endfacet
  facet normal 0 0 1
    outer loop
      vertex -2 17.75 6
      vertex -6.50844 16.0769 6
      vertex -2 12.25 6
    endloop
  endfacet
  facet normal 0 0 1
    outer loop
      vertex 5.47162 9 6
      vertex 7 13.5 6
      vertex 6.9448 14.3773 6
    endloop
  endfacet
  facet normal 0 0 1
    outer loop
      vertex 5.47162 9 6
      vertex 6.9448 14.3773 6
      vertex 6.78008 15.2408 6
    endloop
  endfacet
  facet normal 0 0 1
    outer loop
      vertex 5.47162 9 6
      vertex 6.78008 15.2408 6
      vertex 6.50844 16.0769 6
    endloop
  endfacet
  facet normal 0 0 1
    outer loop
      vertex 5.47162 9 6
      vertex 6.50844 16.0769 6
      vertex 6.13415 16.8723 6
    endloop
  endfacet
  facet normal 0 0 1
    outer loop
      vertex 5.47162 9 6
      vertex 6.13415 16.8723 6
      vertex 5.66312 17.6145 6
    endloop
  endfacet
  facet normal 0 0 1
    outer loop
      vertex 7 13.5 6
      vertex 5.47162 9 6
      vertex 7 0 6
    endloop
  endfacet
  facet normal -0 0 1
    outer loop
      vertex 5.47162 3.1 6
      vertex 7 0 6
      vertex 5.47162 9 6
    endloop
  endfacet
  facet normal -0 0 1
    outer loop
      vertex -5.47162 3.1 6
      vertex 7 0 6
      vertex 5.47162 3.1 6
    endloop
  endfacet
  facet normal -0 0 1
    outer loop
      vertex -6.78008 15.2408 6
      vertex -2 12.25 6
      vertex -6.50844 16.0769 6
    endloop
  endfacet
  facet normal -0 0 1
    outer loop
      vertex -6.9448 14.3773 6
      vertex -2 12.25 6
      vertex -6.78008 15.2408 6
    endloop
  endfacet
  facet normal -0 0 1
    outer loop
      vertex -7 13.5 6
      vertex -2 12.25 6
      vertex -6.9448 14.3773 6
    endloop
  endfacet
  facet normal 0 -0 1
    outer loop
      vertex -5.47162 9 6
      vertex -2 12.25 6
      vertex -7 13.5 6
    endloop
  endfacet
  facet normal 0 0 1
    outer loop
      vertex -7 0 6
      vertex -5.47162 9 6
      vertex -7 13.5 6
    endloop
  endfacet
  facet normal 0 0 1
    outer loop
      vertex -5.47162 3.1 6
      vertex -7 0 6
      vertex 7 0 6
    endloop
  endfacet
  facet normal 0 0 1
    outer loop
      vertex -5.47162 9 6
      vertex -7 0 6
      vertex -5.47162 3.1 6
    endloop
  endfacet
  facet normal -0.951065 0.308991 0
    outer loop
      vertex -6.78008 15.2408 -6
      vertex -6.50844 16.0769 6
      vertex -6.50844 16.0769 -6
    endloop
  endfacet
  facet normal -0.951065 0.308991 0
    outer loop
      vertex -6.50844 16.0769 6
      vertex -6.78008 15.2408 -6
      vertex -6.78008 15.2408 6
    endloop
  endfacet
  facet normal -0.982288 0.18738 0
    outer loop
      vertex -6.9448 14.3773 -6
      vertex -6.78008 15.2408 6
      vertex -6.78008 15.2408 -6
    endloop
  endfacet
  facet normal -0.982288 0.18738 0
    outer loop
      vertex -6.78008 15.2408 6
      vertex -6.9448 14.3773 -6
      vertex -6.9448 14.3773 6
    endloop
  endfacet
  facet normal -0.84432 0.535839 0
    outer loop
      vertex -6.13415 16.8723 -6
      vertex -5.66312 17.6145 6
      vertex -5.66312 17.6145 -6
    endloop
  endfacet
  facet normal -0.84432 0.535839 0
    outer loop
      vertex -5.66312 17.6145 6
      vertex -6.13415 16.8723 -6
      vertex -6.13415 16.8723 6
    endloop
  endfacet
  facet normal -0.12536 0.992111 0
    outer loop
      vertex -0.439533 20.4862 -6
      vertex -1.31167 20.376 6
      vertex -0.439533 20.4862 6
    endloop
  endfacet
  facet normal -0.12536 0.992111 0
    outer loop
      vertex -1.31167 20.376 6
      vertex -0.439533 20.4862 -6
      vertex -1.31167 20.376 -6
    endloop
  endfacet
  facet normal -0.587783 0.809018 0
    outer loop
      vertex -3.75079 19.4103 -6
      vertex -4.46197 18.8936 6
      vertex -3.75079 19.4103 6
    endloop
  endfacet
  facet normal -0.587783 0.809018 0
    outer loop
      vertex -4.46197 18.8936 6
      vertex -3.75079 19.4103 -6
      vertex -4.46197 18.8936 -6
    endloop
  endfacet
  facet normal -0.481755 0.876306 0
    outer loop
      vertex -2.98045 19.8338 -6
      vertex -3.75079 19.4103 6
      vertex -2.98045 19.8338 6
    endloop
  endfacet
  facet normal -0.481755 0.876306 0
    outer loop
      vertex -3.75079 19.4103 6
      vertex -2.98045 19.8338 -6
      vertex -3.75079 19.4103 -6
    endloop
  endfacet
  facet normal 0.998026 0.0627961 0
    outer loop
      vertex 7 13.5 6
      vertex 6.9448 14.3773 -6
      vertex 6.9448 14.3773 6
    endloop
  endfacet
  facet normal 0.998026 0.0627961 0
    outer loop
      vertex 6.9448 14.3773 -6
      vertex 7 13.5 6
      vertex 7 13.5 -6
    endloop
  endfacet
  facet normal -1 0 0
    outer loop
      vertex -7 0 -6
      vertex -7 13.5 6
      vertex -7 13.5 -6
    endloop
  endfacet
  facet normal -1 -0 0
    outer loop
      vertex -7 13.5 6
      vertex -7 0 -6
      vertex -7 0 6
    endloop
  endfacet
  facet normal 1 -0 0
    outer loop
      vertex 7 0 6
      vertex 7 13.5 -6
      vertex 7 13.5 6
    endloop
  endfacet
  facet normal 1 0 0
    outer loop
      vertex 7 13.5 -6
      vertex 7 0 6
      vertex 7 0 -6
    endloop
  endfacet
  facet normal 0 -1 0
    outer loop
      vertex -7 0 6
      vertex -0.204069 0 3.24359
      vertex 7 0 6
    endloop
  endfacet
  facet normal 0 -1 0
    outer loop
      vertex -7 0 6
      vertex -0.608989 0 3.19243
      vertex -0.204069 0 3.24359
    endloop
  endfacet
  facet normal 0 -1 0
    outer loop
      vertex -7 0 6
      vertex -1.0043 0 3.09093
      vertex -0.608989 0 3.19243
    endloop
  endfacet
  facet normal 0 -1 0
    outer loop
      vertex -7 0 6
      vertex -1.38378 0 2.94069
      vertex -1.0043 0 3.09093
    endloop
  endfacet
  facet normal 0 -1 0
    outer loop
      vertex -7 0 6
      vertex -1.74144 0 2.74407
      vertex -1.38378 0 2.94069
    endloop
  endfacet
  facet normal 0 -1 0
    outer loop
      vertex -7 0 6
      vertex -2.07163 0 2.50417
      vertex -1.74144 0 2.74407
    endloop
  endfacet
  facet normal 0 -1 0
    outer loop
      vertex -7 0 6
      vertex -2.36915 0 2.22478
      vertex -2.07163 0 2.50417
    endloop
  endfacet
  facet normal 0 -1 0
    outer loop
      vertex -7 0 6
      vertex -2.6293 0 1.9103
      vertex -2.36915 0 2.22478
    endloop
  endfacet
  facet normal 0 -1 0
    outer loop
      vertex -7 0 6
      vertex -2.848 0 1.5657
      vertex -2.6293 0 1.9103
    endloop
  endfacet
  facet normal 0 -1 0
    outer loop
      vertex -7 0 6
      vertex -3.02177 0 1.1964
      vertex -2.848 0 1.5657
    endloop
  endfacet
  facet normal 0 -1 0
    outer loop
      vertex -7 0 6
      vertex -3.14789 0 0.808242
      vertex -3.02177 0 1.1964
    endloop
  endfacet
  facet normal 0 -1 0
    outer loop
      vertex -7 0 6
      vertex -3.22437 0 0.407332
      vertex -3.14789 0 0.808242
    endloop
  endfacet
  facet normal 0 -1 0
    outer loop
      vertex -7 0 6
      vertex -3.25 0 0
      vertex -3.22437 0 0.407332
    endloop
  endfacet
  facet normal 0 -1 0
    outer loop
      vertex -7 0 -6
      vertex -3.25 0 0
      vertex -7 0 6
    endloop
  endfacet
  facet normal 0 -1 -0
    outer loop
      vertex -3.25 0 0
      vertex -7 0 -6
      vertex -3.22437 0 -0.407332
    endloop
  endfacet
  facet normal 0 -1 -0
    outer loop
      vertex -3.22437 0 -0.407332
      vertex -7 0 -6
      vertex -3.14789 0 -0.808242
    endloop
  endfacet
  facet normal 0 -1 -0
    outer loop
      vertex -3.14789 0 -0.808242
      vertex -7 0 -6
      vertex -3.02177 0 -1.1964
    endloop
  endfacet
  facet normal 0 -1 -0
    outer loop
      vertex -0.204069 0 -3.24359
      vertex -7 0 -6
      vertex 0.204069 0 -3.24359
    endloop
  endfacet
  facet normal 0 -1 -0
    outer loop
      vertex -0.608989 0 -3.19243
      vertex -7 0 -6
      vertex -0.204069 0 -3.24359
    endloop
  endfacet
  facet normal 0 -1 -0
    outer loop
      vertex -1.0043 0 -3.09093
      vertex -7 0 -6
      vertex -0.608989 0 -3.19243
    endloop
  endfacet
  facet normal 0 -1 -0
    outer loop
      vertex -1.38378 0 -2.94069
      vertex -7 0 -6
      vertex -1.0043 0 -3.09093
    endloop
  endfacet
  facet normal 0 -1 -0
    outer loop
      vertex -1.74144 0 -2.74407
      vertex -7 0 -6
      vertex -1.38378 0 -2.94069
    endloop
  endfacet
  facet normal 0 -1 -0
    outer loop
      vertex -2.07163 0 -2.50417
      vertex -7 0 -6
      vertex -1.74144 0 -2.74407
    endloop
  endfacet
  facet normal 0 -1 -0
    outer loop
      vertex -2.36915 0 -2.22478
      vertex -7 0 -6
      vertex -2.07163 0 -2.50417
    endloop
  endfacet
  facet normal 0 -1 -0
    outer loop
      vertex -2.6293 0 -1.9103
      vertex -7 0 -6
      vertex -2.36915 0 -2.22478
    endloop
  endfacet
  facet normal 0 -1 -0
    outer loop
      vertex -2.848 0 -1.5657
      vertex -7 0 -6
      vertex -2.6293 0 -1.9103
    endloop
  endfacet
  facet normal 0 -1 -0
    outer loop
      vertex -3.02177 0 -1.1964
      vertex -7 0 -6
      vertex -2.848 0 -1.5657
    endloop
  endfacet
  facet normal 0 -1 0
    outer loop
      vertex 0.204069 0 3.24359
      vertex 7 0 6
      vertex -0.204069 0 3.24359
    endloop
  endfacet
  facet normal 0 -1 0
    outer loop
      vertex 0.608989 0 3.19243
      vertex 7 0 6
      vertex 0.204069 0 3.24359
    endloop
  endfacet
  facet normal 0 -1 0
    outer loop
      vertex 1.0043 0 3.09093
      vertex 7 0 6
      vertex 0.608989 0 3.19243
    endloop
  endfacet
  facet normal 0 -1 0
    outer loop
      vertex 1.38378 0 2.94069
      vertex 7 0 6
      vertex 1.0043 0 3.09093
    endloop
  endfacet
  facet normal 0 -1 0
    outer loop
      vertex 1.74144 0 2.74407
      vertex 7 0 6
      vertex 1.38378 0 2.94069
    endloop
  endfacet
  facet normal 0 -1 0
    outer loop
      vertex 2.07163 0 2.50417
      vertex 7 0 6
      vertex 1.74144 0 2.74407
    endloop
  endfacet
  facet normal 0 -1 0
    outer loop
      vertex 2.36915 0 2.22478
      vertex 7 0 6
      vertex 2.07163 0 2.50417
    endloop
  endfacet
  facet normal 0 -1 0
    outer loop
      vertex 2.6293 0 1.9103
      vertex 7 0 6
      vertex 2.36915 0 2.22478
    endloop
  endfacet
  facet normal 0 -1 0
    outer loop
      vertex 2.848 0 1.5657
      vertex 7 0 6
      vertex 2.6293 0 1.9103
    endloop
  endfacet
  facet normal 0 -1 0
    outer loop
      vertex 3.02177 0 1.1964
      vertex 7 0 6
      vertex 2.848 0 1.5657
    endloop
  endfacet
  facet normal 0 -1 0
    outer loop
      vertex 3.14789 0 0.808242
      vertex 7 0 6
      vertex 3.02177 0 1.1964
    endloop
  endfacet
  facet normal 0 -1 0
    outer loop
      vertex 3.22437 0 0.407332
      vertex 7 0 6
      vertex 3.14789 0 0.808242
    endloop
  endfacet
  facet normal 0 -1 0
    outer loop
      vertex 3.25 0 0
      vertex 7 0 6
      vertex 3.22437 0 0.407332
    endloop
  endfacet
  facet normal 0 -1 0
    outer loop
      vertex 7 0 -6
      vertex 3.25 0 0
      vertex 3.22437 0 -0.407332
    endloop
  endfacet
  facet normal 0 -1 0
    outer loop
      vertex 7 0 -6
      vertex 3.22437 0 -0.407332
      vertex 3.14789 0 -0.808242
    endloop
  endfacet
  facet normal 0 -1 0
    outer loop
      vertex 7 0 -6
      vertex 3.14789 0 -0.808242
      vertex 3.02177 0 -1.1964
    endloop
  endfacet
  facet normal 0 -1 0
    outer loop
      vertex 7 0 -6
      vertex 3.02177 0 -1.1964
      vertex 2.848 0 -1.5657
    endloop
  endfacet
  facet normal 0 -1 0
    outer loop
      vertex 7 0 -6
      vertex 0.204069 0 -3.24359
      vertex -7 0 -6
    endloop
  endfacet
  facet normal 0 -1 0
    outer loop
      vertex 0.204069 0 -3.24359
      vertex 7 0 -6
      vertex 0.608989 0 -3.19243
    endloop
  endfacet
  facet normal 0 -1 0
    outer loop
      vertex 3.25 0 0
      vertex 7 0 -6
      vertex 7 0 6
    endloop
  endfacet
  facet normal 0 -1 0
    outer loop
      vertex 2.6293 0 -1.9103
      vertex 7 0 -6
      vertex 2.848 0 -1.5657
    endloop
  endfacet
  facet normal 0 -1 0
    outer loop
      vertex 2.36915 0 -2.22478
      vertex 7 0 -6
      vertex 2.6293 0 -1.9103
    endloop
  endfacet
  facet normal 0 -1 0
    outer loop
      vertex 2.07163 0 -2.50417
      vertex 7 0 -6
      vertex 2.36915 0 -2.22478
    endloop
  endfacet
  facet normal 0 -1 0
    outer loop
      vertex 1.74144 0 -2.74407
      vertex 7 0 -6
      vertex 2.07163 0 -2.50417
    endloop
  endfacet
  facet normal 0 -1 0
    outer loop
      vertex 1.38378 0 -2.94069
      vertex 7 0 -6
      vertex 1.74144 0 -2.74407
    endloop
  endfacet
  facet normal 0 -1 0
    outer loop
      vertex 1.0043 0 -3.09093
      vertex 7 0 -6
      vertex 1.38378 0 -2.94069
    endloop
  endfacet
  facet normal 0 -1 0
    outer loop
      vertex 0.608989 0 -3.19243
      vertex 7 0 -6
      vertex 1.0043 0 -3.09093
    endloop
  endfacet
  facet normal 1 -0 0
    outer loop
      vertex -2 10.75 6
      vertex -2 12.25 -6
      vertex -2 12.25 6
    endloop
  endfacet
  facet normal 1 0 0
    outer loop
      vertex -2 12.25 -6
      vertex -2 10.75 6
      vertex -2 10.75 -6
    endloop
  endfacet
  facet normal -1 0 0
    outer loop
      vertex 2 10.75 -6
      vertex 2 12.25 6
      vertex 2 12.25 -6
    endloop
  endfacet
  facet normal -1 -0 0
    outer loop
      vertex 2 12.25 6
      vertex 2 10.75 -6
      vertex 2 10.75 6
    endloop
  endfacet
  facet normal 0 -1 0
    outer loop
      vertex -2 12.25 -6
      vertex 2 12.25 6
      vertex -2 12.25 6
    endloop
  endfacet
  facet normal 0 -1 -0
    outer loop
      vertex 2 12.25 6
      vertex -2 12.25 -6
      vertex 2 12.25 -6
    endloop
  endfacet
  facet normal 0 1 -0
    outer loop
      vertex 2 10.75 -6
      vertex -2 10.75 6
      vertex 2 10.75 6
    endloop
  endfacet
  facet normal 0 1 0
    outer loop
      vertex -2 10.75 6
      vertex 2 10.75 -6
      vertex -2 10.75 -6
    endloop
  endfacet
  facet normal 1 -0 0
    outer loop
      vertex -2 17.75 6
      vertex -2 19.25 -6
      vertex -2 19.25 6
    endloop
  endfacet
  facet normal 1 0 0
    outer loop
      vertex -2 19.25 -6
      vertex -2 17.75 6
      vertex -2 17.75 -6
    endloop
  endfacet
  facet normal -1 0 0
    outer loop
      vertex 2 17.75 -6
      vertex 2 19.25 6
      vertex 2 19.25 -6
    endloop
  endfacet
  facet normal -1 -0 0
    outer loop
      vertex 2 19.25 6
      vertex 2 17.75 -6
      vertex 2 17.75 6
    endloop
  endfacet
  facet normal 0 -1 0
    outer loop
      vertex -2 19.25 -6
      vertex 2 19.25 6
      vertex -2 19.25 6
    endloop
  endfacet
  facet normal 0 -1 -0
    outer loop
      vertex 2 19.25 6
      vertex -2 19.25 -6
      vertex 2 19.25 -6
    endloop
  endfacet
  facet normal 0 1 -0
    outer loop
      vertex 2 17.75 -6
      vertex -2 17.75 6
      vertex 2 17.75 6
    endloop
  endfacet
  facet normal 0 1 0
    outer loop
      vertex -2 17.75 6
      vertex 2 17.75 -6
      vertex -2 17.75 -6
    endloop
  endfacet
  facet normal -0.998026 0 -0.0627975
    outer loop
      vertex 3.25 0 0
      vertex 3.22437 3.1 0.407332
      vertex 3.25 3.1 0
    endloop
  endfacet
  facet normal -0.998026 -0 -0.0627975
    outer loop
      vertex 3.22437 3.1 0.407332
      vertex 3.25 0 0
      vertex 3.22437 0 0.407332
    endloop
  endfacet
  facet normal -0.904836 0 -0.42576
    outer loop
      vertex 3.02177 0 1.1964
      vertex 2.848 3.1 1.5657
      vertex 3.02177 3.1 1.1964
    endloop
  endfacet
  facet normal -0.904836 -0 -0.42576
    outer loop
      vertex 2.848 3.1 1.5657
      vertex 3.02177 0 1.1964
      vertex 2.848 0 1.5657
    endloop
  endfacet
  facet normal -0.36811 0 -0.929782
    outer loop
      vertex 1.0043 0 3.09093
      vertex 1.38378 3.1 2.94069
      vertex 1.38378 0 2.94069
    endloop
  endfacet
  facet normal -0.36811 0 -0.929782
    outer loop
      vertex 1.38378 3.1 2.94069
      vertex 1.0043 0 3.09093
      vertex 1.0043 3.1 3.09093
    endloop
  endfacet
  facet normal -0.982286 0 0.187387
    outer loop
      vertex 3.14789 0 -0.808242
      vertex 3.22437 3.1 -0.407332
      vertex 3.14789 3.1 -0.808242
    endloop
  endfacet
  facet normal -0.982286 0 0.187387
    outer loop
      vertex 3.22437 3.1 -0.407332
      vertex 3.14789 0 -0.808242
      vertex 3.22437 0 -0.407332
    endloop
  endfacet
  facet normal -0.844317 0 -0.535845
    outer loop
      vertex 2.848 0 1.5657
      vertex 2.6293 3.1 1.9103
      vertex 2.848 3.1 1.5657
    endloop
  endfacet
  facet normal -0.844317 -0 -0.535845
    outer loop
      vertex 2.6293 3.1 1.9103
      vertex 2.848 0 1.5657
      vertex 2.6293 0 1.9103
    endloop
  endfacet
  facet normal 0.770526 0 -0.637409
    outer loop
      vertex -2.36915 0 2.22478
      vertex -2.6293 3.1 1.9103
      vertex -2.36915 3.1 2.22478
    endloop
  endfacet
  facet normal 0.770526 0 -0.637409
    outer loop
      vertex -2.6293 3.1 1.9103
      vertex -2.36915 0 2.22478
      vertex -2.6293 0 1.9103
    endloop
  endfacet
  facet normal -0.951057 0 -0.309017
    outer loop
      vertex 3.14789 0 0.808242
      vertex 3.02177 3.1 1.1964
      vertex 3.14789 3.1 0.808242
    endloop
  endfacet
  facet normal -0.951057 -0 -0.309017
    outer loop
      vertex 3.02177 3.1 1.1964
      vertex 3.14789 0 0.808242
      vertex 3.02177 0 1.1964
    endloop
  endfacet
  facet normal -0.684547 0 -0.728968
    outer loop
      vertex 2.07163 0 2.50417
      vertex 2.36915 3.1 2.22478
      vertex 2.36915 0 2.22478
    endloop
  endfacet
  facet normal -0.684547 0 -0.728968
    outer loop
      vertex 2.36915 3.1 2.22478
      vertex 2.07163 0 2.50417
      vertex 2.07163 3.1 2.50417
    endloop
  endfacet
  facet normal 0 0 -1
    outer loop
      vertex -0.204069 0 3.24359
      vertex 0.204069 3.1 3.24359
      vertex 0.204069 0 3.24359
    endloop
  endfacet
  facet normal -0 0 -1
    outer loop
      vertex 0.204069 3.1 3.24359
      vertex -0.204069 0 3.24359
      vertex -0.204069 3.1 3.24359
    endloop
  endfacet
  facet normal -0.248693 0 -0.968582
    outer loop
      vertex 0.608989 0 3.19243
      vertex 1.0043 3.1 3.09093
      vertex 1.0043 0 3.09093
    endloop
  endfacet
  facet normal -0.248693 0 -0.968582
    outer loop
      vertex 1.0043 3.1 3.09093
      vertex 0.608989 0 3.19243
      vertex 0.608989 3.1 3.19243
    endloop
  endfacet
  facet normal -0.58779 0 -0.809014
    outer loop
      vertex 1.74144 0 2.74407
      vertex 2.07163 3.1 2.50417
      vertex 2.07163 0 2.50417
    endloop
  endfacet
  facet normal -0.58779 0 -0.809014
    outer loop
      vertex 2.07163 3.1 2.50417
      vertex 1.74144 0 2.74407
      vertex 1.74144 3.1 2.74407
    endloop
  endfacet
  facet normal 0.998026 0 -0.0627975
    outer loop
      vertex -3.22437 0 0.407332
      vertex -3.25 3.1 0
      vertex -3.22437 3.1 0.407332
    endloop
  endfacet
  facet normal 0.998026 0 -0.0627975
    outer loop
      vertex -3.25 3.1 0
      vertex -3.22437 0 0.407332
      vertex -3.25 0 0
    endloop
  endfacet
  facet normal 0.951057 0 -0.309017
    outer loop
      vertex -3.02177 0 1.1964
      vertex -3.14789 3.1 0.808242
      vertex -3.02177 3.1 1.1964
    endloop
  endfacet
  facet normal 0.951057 0 -0.309017
    outer loop
      vertex -3.14789 3.1 0.808242
      vertex -3.02177 0 1.1964
      vertex -3.14789 0 0.808242
    endloop
  endfacet
  facet normal 0.125349 0 -0.992113
    outer loop
      vertex -0.608989 0 3.19243
      vertex -0.204069 3.1 3.24359
      vertex -0.204069 0 3.24359
    endloop
  endfacet
  facet normal 0.125349 0 -0.992113
    outer loop
      vertex -0.204069 3.1 3.24359
      vertex -0.608989 0 3.19243
      vertex -0.608989 3.1 3.19243
    endloop
  endfacet
  facet normal 0.481744 0 -0.876312
    outer loop
      vertex -1.74144 0 2.74407
      vertex -1.38378 3.1 2.94069
      vertex -1.38378 0 2.94069
    endloop
  endfacet
  facet normal 0.481744 0 -0.876312
    outer loop
      vertex -1.38378 3.1 2.94069
      vertex -1.74144 0 2.74407
      vertex -1.74144 3.1 2.74407
    endloop
  endfacet
  facet normal 0.684547 0 -0.728968
    outer loop
      vertex -2.36915 0 2.22478
      vertex -2.07163 3.1 2.50417
      vertex -2.07163 0 2.50417
    endloop
  endfacet
  facet normal 0.684547 0 -0.728968
    outer loop
      vertex -2.07163 3.1 2.50417
      vertex -2.36915 0 2.22478
      vertex -2.36915 3.1 2.22478
    endloop
  endfacet
  facet normal -0.998026 0 0.0627975
    outer loop
      vertex 3.22437 0 -0.407332
      vertex 3.25 3.1 0
      vertex 3.22437 3.1 -0.407332
    endloop
  endfacet
  facet normal -0.998026 0 0.0627975
    outer loop
      vertex 3.25 3.1 0
      vertex 3.22437 0 -0.407332
      vertex 3.25 0 0
    endloop
  endfacet
  facet normal -0.951057 0 0.309017
    outer loop
      vertex 3.02177 0 -1.1964
      vertex 3.14789 3.1 -0.808242
      vertex 3.02177 3.1 -1.1964
    endloop
  endfacet
  facet normal -0.951057 0 0.309017
    outer loop
      vertex 3.14789 3.1 -0.808242
      vertex 3.02177 0 -1.1964
      vertex 3.14789 0 -0.808242
    endloop
  endfacet
  facet normal -0.844317 0 0.535845
    outer loop
      vertex 2.6293 0 -1.9103
      vertex 2.848 3.1 -1.5657
      vertex 2.6293 3.1 -1.9103
    endloop
  endfacet
  facet normal -0.844317 0 0.535845
    outer loop
      vertex 2.848 3.1 -1.5657
      vertex 2.6293 0 -1.9103
      vertex 2.848 0 -1.5657
    endloop
  endfacet
  facet normal 0.982286 -0 0.187387
    outer loop
      vertex -3.22437 0 -0.407332
      vertex -3.14789 3.1 -0.808242
      vertex -3.22437 3.1 -0.407332
    endloop
  endfacet
  facet normal 0.982286 0 0.187387
    outer loop
      vertex -3.14789 3.1 -0.808242
      vertex -3.22437 0 -0.407332
      vertex -3.14789 0 -0.808242
    endloop
  endfacet
  facet normal -0 0 1
    outer loop
      vertex -0.204069 3.1 -3.24359
      vertex 0.204069 0 -3.24359
      vertex 0.204069 3.1 -3.24359
    endloop
  endfacet
  facet normal 0 0 1
    outer loop
      vertex 0.204069 0 -3.24359
      vertex -0.204069 3.1 -3.24359
      vertex -0.204069 0 -3.24359
    endloop
  endfacet
  facet normal -0.125349 0 0.992113
    outer loop
      vertex 0.204069 3.1 -3.24359
      vertex 0.608989 0 -3.19243
      vertex 0.608989 3.1 -3.19243
    endloop
  endfacet
  facet normal -0.125349 0 0.992113
    outer loop
      vertex 0.608989 0 -3.19243
      vertex 0.204069 3.1 -3.24359
      vertex 0.204069 0 -3.24359
    endloop
  endfacet
  facet normal -0.58779 0 0.809014
    outer loop
      vertex 1.74144 3.1 -2.74407
      vertex 2.07163 0 -2.50417
      vertex 2.07163 3.1 -2.50417
    endloop
  endfacet
  facet normal -0.58779 0 0.809014
    outer loop
      vertex 2.07163 0 -2.50417
      vertex 1.74144 3.1 -2.74407
      vertex 1.74144 0 -2.74407
    endloop
  endfacet
  facet normal -0.982286 0 -0.187387
    outer loop
      vertex 3.22437 0 0.407332
      vertex 3.14789 3.1 0.808242
      vertex 3.22437 3.1 0.407332
    endloop
  endfacet
  facet normal -0.982286 -0 -0.187387
    outer loop
      vertex 3.14789 3.1 0.808242
      vertex 3.22437 0 0.407332
      vertex 3.14789 0 0.808242
    endloop
  endfacet
  facet normal -0.770526 0 -0.637409
    outer loop
      vertex 2.6293 0 1.9103
      vertex 2.36915 3.1 2.22478
      vertex 2.6293 3.1 1.9103
    endloop
  endfacet
  facet normal -0.770526 -0 -0.637409
    outer loop
      vertex 2.36915 3.1 2.22478
      vertex 2.6293 0 1.9103
      vertex 2.36915 0 2.22478
    endloop
  endfacet
  facet normal -0.125349 0 -0.992113
    outer loop
      vertex 0.204069 0 3.24359
      vertex 0.608989 3.1 3.19243
      vertex 0.608989 0 3.19243
    endloop
  endfacet
  facet normal -0.125349 0 -0.992113
    outer loop
      vertex 0.608989 3.1 3.19243
      vertex 0.204069 0 3.24359
      vertex 0.204069 3.1 3.24359
    endloop
  endfacet
  facet normal -0.481744 0 -0.876312
    outer loop
      vertex 1.38378 0 2.94069
      vertex 1.74144 3.1 2.74407
      vertex 1.74144 0 2.74407
    endloop
  endfacet
  facet normal -0.481744 0 -0.876312
    outer loop
      vertex 1.74144 3.1 2.74407
      vertex 1.38378 0 2.94069
      vertex 1.38378 3.1 2.94069
    endloop
  endfacet
  facet normal 0.982286 0 -0.187387
    outer loop
      vertex -3.14789 0 0.808242
      vertex -3.22437 3.1 0.407332
      vertex -3.14789 3.1 0.808242
    endloop
  endfacet
  facet normal 0.982286 0 -0.187387
    outer loop
      vertex -3.22437 3.1 0.407332
      vertex -3.14789 0 0.808242
      vertex -3.22437 0 0.407332
    endloop
  endfacet
  facet normal 0.844317 0 -0.535845
    outer loop
      vertex -2.6293 0 1.9103
      vertex -2.848 3.1 1.5657
      vertex -2.6293 3.1 1.9103
    endloop
  endfacet
  facet normal 0.844317 0 -0.535845
    outer loop
      vertex -2.848 3.1 1.5657
      vertex -2.6293 0 1.9103
      vertex -2.848 0 1.5657
    endloop
  endfacet
  facet normal 0.904836 0 -0.42576
    outer loop
      vertex -2.848 0 1.5657
      vertex -3.02177 3.1 1.1964
      vertex -2.848 3.1 1.5657
    endloop
  endfacet
  facet normal 0.904836 0 -0.42576
    outer loop
      vertex -3.02177 3.1 1.1964
      vertex -2.848 0 1.5657
      vertex -3.02177 0 1.1964
    endloop
  endfacet
  facet normal 0.248693 0 -0.968582
    outer loop
      vertex -1.0043 0 3.09093
      vertex -0.608989 3.1 3.19243
      vertex -0.608989 0 3.19243
    endloop
  endfacet
  facet normal 0.248693 0 -0.968582
    outer loop
      vertex -0.608989 3.1 3.19243
      vertex -1.0043 0 3.09093
      vertex -1.0043 3.1 3.09093
    endloop
  endfacet
  facet normal 0.36811 0 -0.929782
    outer loop
      vertex -1.38378 0 2.94069
      vertex -1.0043 3.1 3.09093
      vertex -1.0043 0 3.09093
    endloop
  endfacet
  facet normal 0.36811 0 -0.929782
    outer loop
      vertex -1.0043 3.1 3.09093
      vertex -1.38378 0 2.94069
      vertex -1.38378 3.1 2.94069
    endloop
  endfacet
  facet normal 0.58779 0 -0.809014
    outer loop
      vertex -2.07163 0 2.50417
      vertex -1.74144 3.1 2.74407
      vertex -1.74144 0 2.74407
    endloop
  endfacet
  facet normal 0.58779 0 -0.809014
    outer loop
      vertex -1.74144 3.1 2.74407
      vertex -2.07163 0 2.50417
      vertex -2.07163 3.1 2.50417
    endloop
  endfacet
  facet normal -0.904836 0 0.42576
    outer loop
      vertex 2.848 0 -1.5657
      vertex 3.02177 3.1 -1.1964
      vertex 2.848 3.1 -1.5657
    endloop
  endfacet
  facet normal -0.904836 0 0.42576
    outer loop
      vertex 3.02177 3.1 -1.1964
      vertex 2.848 0 -1.5657
      vertex 3.02177 0 -1.1964
    endloop
  endfacet
  facet normal 0.248693 0 0.968582
    outer loop
      vertex -1.0043 3.1 -3.09093
      vertex -0.608989 0 -3.19243
      vertex -0.608989 3.1 -3.19243
    endloop
  endfacet
  facet normal 0.248693 0 0.968582
    outer loop
      vertex -0.608989 0 -3.19243
      vertex -1.0043 3.1 -3.09093
      vertex -1.0043 0 -3.09093
    endloop
  endfacet
  facet normal 0.125349 0 0.992113
    outer loop
      vertex -0.608989 3.1 -3.19243
      vertex -0.204069 0 -3.24359
      vertex -0.204069 3.1 -3.24359
    endloop
  endfacet
  facet normal 0.125349 0 0.992113
    outer loop
      vertex -0.204069 0 -3.24359
      vertex -0.608989 3.1 -3.19243
      vertex -0.608989 0 -3.19243
    endloop
  endfacet
  facet normal 0.998026 -0 0.0627975
    outer loop
      vertex -3.25 0 0
      vertex -3.22437 3.1 -0.407332
      vertex -3.25 3.1 0
    endloop
  endfacet
  facet normal 0.998026 0 0.0627975
    outer loop
      vertex -3.22437 3.1 -0.407332
      vertex -3.25 0 0
      vertex -3.22437 0 -0.407332
    endloop
  endfacet
  facet normal 0.951057 -0 0.309017
    outer loop
      vertex -3.14789 0 -0.808242
      vertex -3.02177 3.1 -1.1964
      vertex -3.14789 3.1 -0.808242
    endloop
  endfacet
  facet normal 0.951057 0 0.309017
    outer loop
      vertex -3.02177 3.1 -1.1964
      vertex -3.14789 0 -0.808242
      vertex -3.02177 0 -1.1964
    endloop
  endfacet
  facet normal -0.248693 0 0.968582
    outer loop
      vertex 0.608989 3.1 -3.19243
      vertex 1.0043 0 -3.09093
      vertex 1.0043 3.1 -3.09093
    endloop
  endfacet
  facet normal -0.248693 0 0.968582
    outer loop
      vertex 1.0043 0 -3.09093
      vertex 0.608989 3.1 -3.19243
      vertex 0.608989 0 -3.19243
    endloop
  endfacet
  facet normal -0.481744 0 0.876312
    outer loop
      vertex 1.38378 3.1 -2.94069
      vertex 1.74144 0 -2.74407
      vertex 1.74144 3.1 -2.74407
    endloop
  endfacet
  facet normal -0.481744 0 0.876312
    outer loop
      vertex 1.74144 0 -2.74407
      vertex 1.38378 3.1 -2.94069
      vertex 1.38378 0 -2.94069
    endloop
  endfacet
  facet normal 0.58779 0 0.809014
    outer loop
      vertex -2.07163 3.1 -2.50417
      vertex -1.74144 0 -2.74407
      vertex -1.74144 3.1 -2.74407
    endloop
  endfacet
  facet normal 0.58779 0 0.809014
    outer loop
      vertex -1.74144 0 -2.74407
      vertex -2.07163 3.1 -2.50417
      vertex -2.07163 0 -2.50417
    endloop
  endfacet
  facet normal 0.36811 0 0.929782
    outer loop
      vertex -1.38378 3.1 -2.94069
      vertex -1.0043 0 -3.09093
      vertex -1.0043 3.1 -3.09093
    endloop
  endfacet
  facet normal 0.36811 0 0.929782
    outer loop
      vertex -1.0043 0 -3.09093
      vertex -1.38378 3.1 -2.94069
      vertex -1.38378 0 -2.94069
    endloop
  endfacet
  facet normal 0.770526 -0 0.637409
    outer loop
      vertex -2.6293 0 -1.9103
      vertex -2.36915 3.1 -2.22478
      vertex -2.6293 3.1 -1.9103
    endloop
  endfacet
  facet normal 0.770526 0 0.637409
    outer loop
      vertex -2.36915 3.1 -2.22478
      vertex -2.6293 0 -1.9103
      vertex -2.36915 0 -2.22478
    endloop
  endfacet
  facet normal 0.904836 -0 0.42576
    outer loop
      vertex -3.02177 0 -1.1964
      vertex -2.848 3.1 -1.5657
      vertex -3.02177 3.1 -1.1964
    endloop
  endfacet
  facet normal 0.904836 0 0.42576
    outer loop
      vertex -2.848 3.1 -1.5657
      vertex -3.02177 0 -1.1964
      vertex -2.848 0 -1.5657
    endloop
  endfacet
  facet normal 0.684547 0 0.728968
    outer loop
      vertex -2.36915 3.1 -2.22478
      vertex -2.07163 0 -2.50417
      vertex -2.07163 3.1 -2.50417
    endloop
  endfacet
  facet normal 0.684547 0 0.728968
    outer loop
      vertex -2.07163 0 -2.50417
      vertex -2.36915 3.1 -2.22478
      vertex -2.36915 0 -2.22478
    endloop
  endfacet
  facet normal -0.684547 0 0.728968
    outer loop
      vertex 2.07163 3.1 -2.50417
      vertex 2.36915 0 -2.22478
      vertex 2.36915 3.1 -2.22478
    endloop
  endfacet
  facet normal -0.684547 0 0.728968
    outer loop
      vertex 2.36915 0 -2.22478
      vertex 2.07163 3.1 -2.50417
      vertex 2.07163 0 -2.50417
    endloop
  endfacet
  facet normal -0.770526 0 0.637409
    outer loop
      vertex 2.36915 0 -2.22478
      vertex 2.6293 3.1 -1.9103
      vertex 2.36915 3.1 -2.22478
    endloop
  endfacet
  facet normal -0.770526 0 0.637409
    outer loop
      vertex 2.6293 3.1 -1.9103
      vertex 2.36915 0 -2.22478
      vertex 2.6293 0 -1.9103
    endloop
  endfacet
  facet normal 0.481744 0 0.876312
    outer loop
      vertex -1.74144 3.1 -2.74407
      vertex -1.38378 0 -2.94069
      vertex -1.38378 3.1 -2.94069
    endloop
  endfacet
  facet normal 0.481744 0 0.876312
    outer loop
      vertex -1.38378 0 -2.94069
      vertex -1.74144 3.1 -2.74407
      vertex -1.74144 0 -2.74407
    endloop
  endfacet
  facet normal 0.844317 -0 0.535845
    outer loop
      vertex -2.848 0 -1.5657
      vertex -2.6293 3.1 -1.9103
      vertex -2.848 3.1 -1.5657
    endloop
  endfacet
  facet normal 0.844317 0 0.535845
    outer loop
      vertex -2.6293 3.1 -1.9103
      vertex -2.848 0 -1.5657
      vertex -2.6293 0 -1.9103
    endloop
  endfacet
  facet normal -0.36811 0 0.929782
    outer loop
      vertex 1.0043 3.1 -3.09093
      vertex 1.38378 0 -2.94069
      vertex 1.38378 3.1 -2.94069
    endloop
  endfacet
  facet normal -0.36811 0 0.929782
    outer loop
      vertex 1.38378 0 -2.94069
      vertex 1.0043 3.1 -3.09093
      vertex 1.0043 0 -3.09093
    endloop
  endfacet
  facet normal 1 -0 0
    outer loop
      vertex -5.47162 3.1 6
      vertex -5.47162 9 -6
      vertex -5.47162 9 6
    endloop
  endfacet
  facet normal 1 0 0
    outer loop
      vertex -5.47162 9 -6
      vertex -5.47162 3.1 6
      vertex -5.47162 3.1 -6
    endloop
  endfacet
  facet normal 0 1 0
    outer loop
      vertex 5.47162 3.1 6
      vertex 0.204069 3.1 3.24359
      vertex -5.47162 3.1 6
    endloop
  endfacet
  facet normal 0 1 0
    outer loop
      vertex 5.47162 3.1 6
      vertex 0.608989 3.1 3.19243
      vertex 0.204069 3.1 3.24359
    endloop
  endfacet
  facet normal 0 1 0
    outer loop
      vertex 5.47162 3.1 6
      vertex 1.0043 3.1 3.09093
      vertex 0.608989 3.1 3.19243
    endloop
  endfacet
  facet normal 0 1 0
    outer loop
      vertex 5.47162 3.1 6
      vertex 1.38378 3.1 2.94069
      vertex 1.0043 3.1 3.09093
    endloop
  endfacet
  facet normal 0 1 0
    outer loop
      vertex 5.47162 3.1 6
      vertex 1.74144 3.1 2.74407
      vertex 1.38378 3.1 2.94069
    endloop
  endfacet
  facet normal 0 1 0
    outer loop
      vertex 5.47162 3.1 6
      vertex 2.07163 3.1 2.50417
      vertex 1.74144 3.1 2.74407
    endloop
  endfacet
  facet normal 0 1 0
    outer loop
      vertex 5.47162 3.1 6
      vertex 2.36915 3.1 2.22478
      vertex 2.07163 3.1 2.50417
    endloop
  endfacet
  facet normal 0 1 0
    outer loop
      vertex 5.47162 3.1 6
      vertex 2.6293 3.1 1.9103
      vertex 2.36915 3.1 2.22478
    endloop
  endfacet
  facet normal 0 1 0
    outer loop
      vertex 5.47162 3.1 6
      vertex 2.848 3.1 1.5657
      vertex 2.6293 3.1 1.9103
    endloop
  endfacet
  facet normal 0 1 0
    outer loop
      vertex 5.47162 3.1 6
      vertex 3.02177 3.1 1.1964
      vertex 2.848 3.1 1.5657
    endloop
  endfacet
  facet normal 0 1 0
    outer loop
      vertex 5.47162 3.1 6
      vertex 3.14789 3.1 0.808242
      vertex 3.02177 3.1 1.1964
    endloop
  endfacet
  facet normal 0 1 0
    outer loop
      vertex 5.47162 3.1 6
      vertex 3.22437 3.1 0.407332
      vertex 3.14789 3.1 0.808242
    endloop
  endfacet
  facet normal 0 1 0
    outer loop
      vertex 5.47162 3.1 6
      vertex 3.25 3.1 0
      vertex 3.22437 3.1 0.407332
    endloop
  endfacet
  facet normal 0 1 -0
    outer loop
      vertex 5.47162 3.1 -6
      vertex 3.25 3.1 0
      vertex 5.47162 3.1 6
    endloop
  endfacet
  facet normal 0 1 0
    outer loop
      vertex 3.25 3.1 0
      vertex 5.47162 3.1 -6
      vertex 3.22437 3.1 -0.407332
    endloop
  endfacet
  facet normal 0 1 0
    outer loop
      vertex 3.22437 3.1 -0.407332
      vertex 5.47162 3.1 -6
      vertex 3.14789 3.1 -0.808242
    endloop
  endfacet
  facet normal 0 1 0
    outer loop
      vertex 0.204069 3.1 -3.24359
      vertex 5.47162 3.1 -6
      vertex -0.204069 3.1 -3.24359
    endloop
  endfacet
  facet normal 0 1 0
    outer loop
      vertex 0.608989 3.1 -3.19243
      vertex 5.47162 3.1 -6
      vertex 0.204069 3.1 -3.24359
    endloop
  endfacet
  facet normal 0 1 0
    outer loop
      vertex 1.0043 3.1 -3.09093
      vertex 5.47162 3.1 -6
      vertex 0.608989 3.1 -3.19243
    endloop
  endfacet
  facet normal 0 1 0
    outer loop
      vertex 1.38378 3.1 -2.94069
      vertex 5.47162 3.1 -6
      vertex 1.0043 3.1 -3.09093
    endloop
  endfacet
  facet normal 0 1 0
    outer loop
      vertex 1.74144 3.1 -2.74407
      vertex 5.47162 3.1 -6
      vertex 1.38378 3.1 -2.94069
    endloop
  endfacet
  facet normal 0 1 0
    outer loop
      vertex 2.07163 3.1 -2.50417
      vertex 5.47162 3.1 -6
      vertex 1.74144 3.1 -2.74407
    endloop
  endfacet
  facet normal 0 1 0
    outer loop
      vertex 2.36915 3.1 -2.22478
      vertex 5.47162 3.1 -6
      vertex 2.07163 3.1 -2.50417
    endloop
  endfacet
  facet normal 0 1 0
    outer loop
      vertex 2.6293 3.1 -1.9103
      vertex 5.47162 3.1 -6
      vertex 2.36915 3.1 -2.22478
    endloop
  endfacet
  facet normal 0 1 0
    outer loop
      vertex 2.848 3.1 -1.5657
      vertex 5.47162 3.1 -6
      vertex 2.6293 3.1 -1.9103
    endloop
  endfacet
  facet normal 0 1 0
    outer loop
      vertex 3.02177 3.1 -1.1964
      vertex 5.47162 3.1 -6
      vertex 2.848 3.1 -1.5657
    endloop
  endfacet
  facet normal 0 1 0
    outer loop
      vertex 3.14789 3.1 -0.808242
      vertex 5.47162 3.1 -6
      vertex 3.02177 3.1 -1.1964
    endloop
  endfacet
  facet normal 0 1 -0
    outer loop
      vertex -0.204069 3.1 3.24359
      vertex -5.47162 3.1 6
      vertex 0.204069 3.1 3.24359
    endloop
  endfacet
  facet normal 0 1 -0
    outer loop
      vertex -0.608989 3.1 3.19243
      vertex -5.47162 3.1 6
      vertex -0.204069 3.1 3.24359
    endloop
  endfacet
  facet normal 0 1 -0
    outer loop
      vertex -1.0043 3.1 3.09093
      vertex -5.47162 3.1 6
      vertex -0.608989 3.1 3.19243
    endloop
  endfacet
  facet normal 0 1 -0
    outer loop
      vertex -1.38378 3.1 2.94069
      vertex -5.47162 3.1 6
      vertex -1.0043 3.1 3.09093
    endloop
  endfacet
  facet normal 0 1 -0
    outer loop
      vertex -1.74144 3.1 2.74407
      vertex -5.47162 3.1 6
      vertex -1.38378 3.1 2.94069
    endloop
  endfacet
  facet normal 0 1 -0
    outer loop
      vertex -2.07163 3.1 2.50417
      vertex -5.47162 3.1 6
      vertex -1.74144 3.1 2.74407
    endloop
  endfacet
  facet normal 0 1 -0
    outer loop
      vertex -2.36915 3.1 2.22478
      vertex -5.47162 3.1 6
      vertex -2.07163 3.1 2.50417
    endloop
  endfacet
  facet normal 0 1 -0
    outer loop
      vertex -2.6293 3.1 1.9103
      vertex -5.47162 3.1 6
      vertex -2.36915 3.1 2.22478
    endloop
  endfacet
  facet normal 0 1 -0
    outer loop
      vertex -2.848 3.1 1.5657
      vertex -5.47162 3.1 6
      vertex -2.6293 3.1 1.9103
    endloop
  endfacet
  facet normal 0 1 -0
    outer loop
      vertex -3.02177 3.1 1.1964
      vertex -5.47162 3.1 6
      vertex -2.848 3.1 1.5657
    endloop
  endfacet
  facet normal 0 1 -0
    outer loop
      vertex -3.14789 3.1 0.808242
      vertex -5.47162 3.1 6
      vertex -3.02177 3.1 1.1964
    endloop
  endfacet
  facet normal 0 1 -0
    outer loop
      vertex -3.22437 3.1 0.407332
      vertex -5.47162 3.1 6
      vertex -3.14789 3.1 0.808242
    endloop
  endfacet
  facet normal 0 1 -0
    outer loop
      vertex -3.25 3.1 0
      vertex -5.47162 3.1 6
      vertex -3.22437 3.1 0.407332
    endloop
  endfacet
  facet normal 0 1 0
    outer loop
      vertex -5.47162 3.1 -6
      vertex -3.25 3.1 0
      vertex -3.22437 3.1 -0.407332
    endloop
  endfacet
  facet normal 0 1 0
    outer loop
      vertex -5.47162 3.1 -6
      vertex -3.22437 3.1 -0.407332
      vertex -3.14789 3.1 -0.808242
    endloop
  endfacet
  facet normal 0 1 0
    outer loop
      vertex -5.47162 3.1 -6
      vertex -3.14789 3.1 -0.808242
      vertex -3.02177 3.1 -1.1964
    endloop
  endfacet
  facet normal 0 1 0
    outer loop
      vertex -5.47162 3.1 -6
      vertex -0.204069 3.1 -3.24359
      vertex 5.47162 3.1 -6
    endloop
  endfacet
  facet normal 0 1 0
    outer loop
      vertex -0.204069 3.1 -3.24359
      vertex -5.47162 3.1 -6
      vertex -0.608989 3.1 -3.19243
    endloop
  endfacet
  facet normal 0 1 0
    outer loop
      vertex -0.608989 3.1 -3.19243
      vertex -5.47162 3.1 -6
      vertex -1.0043 3.1 -3.09093
    endloop
  endfacet
  facet normal 0 1 0
    outer loop
      vertex -3.25 3.1 0
      vertex -5.47162 3.1 -6
      vertex -5.47162 3.1 6
    endloop
  endfacet
  facet normal 0 1 0
    outer loop
      vertex -2.848 3.1 -1.5657
      vertex -5.47162 3.1 -6
      vertex -3.02177 3.1 -1.1964
    endloop
  endfacet
  facet normal 0 1 0
    outer loop
      vertex -2.6293 3.1 -1.9103
      vertex -5.47162 3.1 -6
      vertex -2.848 3.1 -1.5657
    endloop
  endfacet
  facet normal 0 1 0
    outer loop
      vertex -2.36915 3.1 -2.22478
      vertex -5.47162 3.1 -6
      vertex -2.6293 3.1 -1.9103
    endloop
  endfacet
  facet normal 0 1 0
    outer loop
      vertex -2.07163 3.1 -2.50417
      vertex -5.47162 3.1 -6
      vertex -2.36915 3.1 -2.22478
    endloop
  endfacet
  facet normal 0 1 0
    outer loop
      vertex -1.74144 3.1 -2.74407
      vertex -5.47162 3.1 -6
      vertex -2.07163 3.1 -2.50417
    endloop
  endfacet
  facet normal 0 1 0
    outer loop
      vertex -1.38378 3.1 -2.94069
      vertex -5.47162 3.1 -6
      vertex -1.74144 3.1 -2.74407
    endloop
  endfacet
  facet normal 0 1 0
    outer loop
      vertex -1.0043 3.1 -3.09093
      vertex -5.47162 3.1 -6
      vertex -1.38378 3.1 -2.94069
    endloop
  endfacet
  facet normal -1 0 0
    outer loop
      vertex 5.47162 3.1 -6
      vertex 5.47162 9 6
      vertex 5.47162 9 -6
    endloop
  endfacet
  facet normal -1 -0 0
    outer loop
      vertex 5.47162 9 6
      vertex 5.47162 3.1 -6
      vertex 5.47162 3.1 6
    endloop
  endfacet
  facet normal 0 -1 0
    outer loop
      vertex -5.47162 9 -6
      vertex 5.47162 9 6
      vertex -5.47162 9 6
    endloop
  endfacet
  facet normal 0 -1 -0
    outer loop
      vertex 5.47162 9 6
      vertex -5.47162 9 -6
      vertex 5.47162 9 -6
    endloop
  endfacet
endsolid OpenSCAD_Model
