solid OpenSCAD_Model
  facet normal 0.998027 0.0627939 0
    outer loop
      vertex 7 0 3
      vertex 6.9448 0.877332 0
      vertex 6.9448 0.877332 3
    endloop
  endfacet
  facet normal 0.998027 0.0627939 0
    outer loop
      vertex 6.9448 0.877332 0
      vertex 7 0 3
      vertex 7 0 0
    endloop
  endfacet
  facet normal -0.998027 0.0627939 0
    outer loop
      vertex -7 0 0
      vertex -6.9448 0.877332 3
      vertex -6.9448 0.877332 0
    endloop
  endfacet
  facet normal -0.998027 0.0627939 0
    outer loop
      vertex -6.9448 0.877332 3
      vertex -7 0 0
      vertex -7 0 3
    endloop
  endfacet
  facet normal 0 1 -0
    outer loop
      vertex 0.439533 6.98619 0
      vertex -0.439533 6.98619 3
      vertex 0.439533 6.98619 3
    endloop
  endfacet
  facet normal 0 1 0
    outer loop
      vertex -0.439533 6.98619 3
      vertex 0.439533 6.98619 0
      vertex -0.439533 6.98619 0
    endloop
  endfacet
  facet normal 0 -1 0
    outer loop
      vertex -0.439533 -6.98619 0
      vertex 0.439533 -6.98619 3
      vertex -0.439533 -6.98619 3
    endloop
  endfacet
  facet normal 0 -1 -0
    outer loop
      vertex 0.439533 -6.98619 3
      vertex -0.439533 -6.98619 0
      vertex 0.439533 -6.98619 0
    endloop
  endfacet
  facet normal 0.684547 0.728969 -0
    outer loop
      vertex 5.10278 4.79183 0
      vertex 4.46197 5.39359 3
      vertex 5.10278 4.79183 3
    endloop
  endfacet
  facet normal 0.684547 0.728969 0
    outer loop
      vertex 4.46197 5.39359 3
      vertex 5.10278 4.79183 0
      vertex 4.46197 5.39359 0
    endloop
  endfacet
  facet normal -0.684547 0.728969 0
    outer loop
      vertex -4.46197 5.39359 0
      vertex -5.10278 4.79183 3
      vertex -4.46197 5.39359 3
    endloop
  endfacet
  facet normal -0.684547 0.728969 0
    outer loop
      vertex -5.10278 4.79183 3
      vertex -4.46197 5.39359 0
      vertex -5.10278 4.79183 0
    endloop
  endfacet
  facet normal -0.368131 0.929774 0
    outer loop
      vertex -2.16312 6.6574 0
      vertex -2.98045 6.33379 3
      vertex -2.16312 6.6574 3
    endloop
  endfacet
  facet normal -0.368131 0.929774 0
    outer loop
      vertex -2.98045 6.33379 3
      vertex -2.16312 6.6574 0
      vertex -2.98045 6.33379 0
    endloop
  endfacet
  facet normal 0.904828 0.425778 0
    outer loop
      vertex 6.50844 2.57687 3
      vertex 6.13415 3.37228 0
      vertex 6.13415 3.37228 3
    endloop
  endfacet
  facet normal 0.904828 0.425778 0
    outer loop
      vertex 6.13415 3.37228 0
      vertex 6.50844 2.57687 3
      vertex 6.50844 2.57687 0
    endloop
  endfacet
  facet normal 0.982287 0.18738 0
    outer loop
      vertex 6.9448 0.877332 3
      vertex 6.78008 1.74083 0
      vertex 6.78008 1.74083 3
    endloop
  endfacet
  facet normal 0.982287 0.18738 0
    outer loop
      vertex 6.78008 1.74083 0
      vertex 6.9448 0.877332 3
      vertex 6.9448 0.877332 0
    endloop
  endfacet
  facet normal 0.368131 0.929774 -0
    outer loop
      vertex 2.98045 6.33379 0
      vertex 2.16312 6.6574 3
      vertex 2.98045 6.33379 3
    endloop
  endfacet
  facet normal 0.368131 0.929774 0
    outer loop
      vertex 2.16312 6.6574 3
      vertex 2.98045 6.33379 0
      vertex 2.16312 6.6574 0
    endloop
  endfacet
  facet normal 0.481755 0.876306 -0
    outer loop
      vertex 3.75079 5.91029 0
      vertex 2.98045 6.33379 3
      vertex 3.75079 5.91029 3
    endloop
  endfacet
  facet normal 0.481755 0.876306 0
    outer loop
      vertex 2.98045 6.33379 3
      vertex 3.75079 5.91029 0
      vertex 2.98045 6.33379 0
    endloop
  endfacet
  facet normal -0.904828 0.425778 0
    outer loop
      vertex -6.50844 2.57687 0
      vertex -6.13415 3.37228 3
      vertex -6.13415 3.37228 0
    endloop
  endfacet
  facet normal -0.904828 0.425778 0
    outer loop
      vertex -6.13415 3.37228 3
      vertex -6.50844 2.57687 0
      vertex -6.50844 2.57687 3
    endloop
  endfacet
  facet normal -0.951058 0.309011 0
    outer loop
      vertex -6.78008 1.74083 0
      vertex -6.50844 2.57687 3
      vertex -6.50844 2.57687 0
    endloop
  endfacet
  facet normal -0.951058 0.309011 0
    outer loop
      vertex -6.50844 2.57687 3
      vertex -6.78008 1.74083 0
      vertex -6.78008 1.74083 3
    endloop
  endfacet
  facet normal -0.248684 0.968585 0
    outer loop
      vertex -1.31167 6.87601 0
      vertex -2.16312 6.6574 3
      vertex -1.31167 6.87601 3
    endloop
  endfacet
  facet normal -0.248684 0.968585 0
    outer loop
      vertex -2.16312 6.6574 3
      vertex -1.31167 6.87601 0
      vertex -2.16312 6.6574 0
    endloop
  endfacet
  facet normal 0.951058 0.309011 0
    outer loop
      vertex 6.78008 1.74083 3
      vertex 6.50844 2.57687 0
      vertex 6.50844 2.57687 3
    endloop
  endfacet
  facet normal 0.951058 0.309011 0
    outer loop
      vertex 6.50844 2.57687 0
      vertex 6.78008 1.74083 3
      vertex 6.78008 1.74083 0
    endloop
  endfacet
  facet normal 0.770511 0.637427 0
    outer loop
      vertex 5.66312 4.1145 3
      vertex 5.10278 4.79183 0
      vertex 5.10278 4.79183 3
    endloop
  endfacet
  facet normal 0.770511 0.637427 0
    outer loop
      vertex 5.10278 4.79183 0
      vertex 5.66312 4.1145 3
      vertex 5.66312 4.1145 0
    endloop
  endfacet
  facet normal 0.844326 0.535829 0
    outer loop
      vertex 6.13415 3.37228 3
      vertex 5.66312 4.1145 0
      vertex 5.66312 4.1145 3
    endloop
  endfacet
  facet normal 0.844326 0.535829 0
    outer loop
      vertex 5.66312 4.1145 0
      vertex 6.13415 3.37228 3
      vertex 6.13415 3.37228 0
    endloop
  endfacet
  facet normal 0.248684 0.968585 -0
    outer loop
      vertex 2.16312 6.6574 0
      vertex 1.31167 6.87601 3
      vertex 2.16312 6.6574 3
    endloop
  endfacet
  facet normal 0.248684 0.968585 0
    outer loop
      vertex 1.31167 6.87601 3
      vertex 2.16312 6.6574 0
      vertex 1.31167 6.87601 0
    endloop
  endfacet
  facet normal 0.125337 0.992114 -0
    outer loop
      vertex 1.31167 6.87601 0
      vertex 0.439533 6.98619 3
      vertex 1.31167 6.87601 3
    endloop
  endfacet
  facet normal 0.125337 0.992114 0
    outer loop
      vertex 0.439533 6.98619 3
      vertex 1.31167 6.87601 0
      vertex 0.439533 6.98619 0
    endloop
  endfacet
  facet normal 0.587783 0.809018 -0
    outer loop
      vertex 4.46197 5.39359 0
      vertex 3.75079 5.91029 3
      vertex 4.46197 5.39359 3
    endloop
  endfacet
  facet normal 0.587783 0.809018 0
    outer loop
      vertex 3.75079 5.91029 3
      vertex 4.46197 5.39359 0
      vertex 3.75079 5.91029 0
    endloop
  endfacet
  facet normal -0.844326 0.535829 0
    outer loop
      vertex -6.13415 3.37228 0
      vertex -5.66312 4.1145 3
      vertex -5.66312 4.1145 0
    endloop
  endfacet
  facet normal -0.844326 0.535829 0
    outer loop
      vertex -5.66312 4.1145 3
      vertex -6.13415 3.37228 0
      vertex -6.13415 3.37228 3
    endloop
  endfacet
  facet normal -0.770511 0.637427 0
    outer loop
      vertex -5.66312 4.1145 0
      vertex -5.10278 4.79183 3
      vertex -5.10278 4.79183 0
    endloop
  endfacet
  facet normal -0.770511 0.637427 0
    outer loop
      vertex -5.10278 4.79183 3
      vertex -5.66312 4.1145 0
      vertex -5.66312 4.1145 3
    endloop
  endfacet
  facet normal -0.982287 0.18738 0
    outer loop
      vertex -6.9448 0.877332 0
      vertex -6.78008 1.74083 3
      vertex -6.78008 1.74083 0
    endloop
  endfacet
  facet normal -0.982287 0.18738 0
    outer loop
      vertex -6.78008 1.74083 3
      vertex -6.9448 0.877332 0
      vertex -6.9448 0.877332 3
    endloop
  endfacet
  facet normal 0 0 1
    outer loop
      vertex 3.05 0 3
      vertex 7 0 3
      vertex 6.9448 0.877332 3
    endloop
  endfacet
  facet normal 0 0 1
    outer loop
      vertex 3.02595 0.382266 3
      vertex 6.9448 0.877332 3
      vertex 6.78008 1.74083 3
    endloop
  endfacet
  facet normal 0 0 1
    outer loop
      vertex 7 0 3
      vertex 3.05 0 3
      vertex 6.9448 -0.877332 3
    endloop
  endfacet
  facet normal 0 0 1
    outer loop
      vertex 2.95418 0.758504 3
      vertex 6.78008 1.74083 3
      vertex 6.50844 2.57687 3
    endloop
  endfacet
  facet normal -0 0 1
    outer loop
      vertex 3.02595 -0.382266 3
      vertex 6.9448 -0.877332 3
      vertex 3.05 0 3
    endloop
  endfacet
  facet normal 0 0 1
    outer loop
      vertex 2.83582 1.12278 3
      vertex 6.50844 2.57687 3
      vertex 6.13415 3.37228 3
    endloop
  endfacet
  facet normal 0 0 1
    outer loop
      vertex 6.9448 -0.877332 3
      vertex 3.02595 -0.382266 3
      vertex 6.78008 -1.74083 3
    endloop
  endfacet
  facet normal 0 0 1
    outer loop
      vertex 2.67274 1.46935 3
      vertex 6.13415 3.37228 3
      vertex 5.66312 4.1145 3
    endloop
  endfacet
  facet normal -0 0 1
    outer loop
      vertex 2.95418 -0.758504 3
      vertex 6.78008 -1.74083 3
      vertex 3.02595 -0.382266 3
    endloop
  endfacet
  facet normal 0 0 1
    outer loop
      vertex 2.4675 1.79274 3
      vertex 5.66312 4.1145 3
      vertex 5.10278 4.79183 3
    endloop
  endfacet
  facet normal 0 0 1
    outer loop
      vertex 6.78008 -1.74083 3
      vertex 2.95418 -0.758504 3
      vertex 6.50844 -2.57687 3
    endloop
  endfacet
  facet normal 0 0 1
    outer loop
      vertex 2.22335 2.08787 3
      vertex 5.10278 4.79183 3
      vertex 4.46197 5.39359 3
    endloop
  endfacet
  facet normal -0 0 1
    outer loop
      vertex 2.83582 -1.12278 3
      vertex 6.50844 -2.57687 3
      vertex 2.95418 -0.758504 3
    endloop
  endfacet
  facet normal 0 0 1
    outer loop
      vertex 1.94414 2.35007 3
      vertex 4.46197 5.39359 3
      vertex 3.75079 5.91029 3
    endloop
  endfacet
  facet normal 0 0 1
    outer loop
      vertex 6.50844 -2.57687 3
      vertex 2.83582 -1.12278 3
      vertex 6.13415 -3.37228 3
    endloop
  endfacet
  facet normal -0 0 1
    outer loop
      vertex 2.67274 -1.46935 3
      vertex 6.13415 -3.37228 3
      vertex 2.83582 -1.12278 3
    endloop
  endfacet
  facet normal 0 0 1
    outer loop
      vertex 6.9448 0.877332 3
      vertex 3.02595 0.382266 3
      vertex 3.05 0 3
    endloop
  endfacet
  facet normal 0 0 1
    outer loop
      vertex 1.63427 2.5752 3
      vertex 3.75079 5.91029 3
      vertex 2.98045 6.33379 3
    endloop
  endfacet
  facet normal 0 0 1
    outer loop
      vertex 6.78008 1.74083 3
      vertex 2.95418 0.758504 3
      vertex 3.02595 0.382266 3
    endloop
  endfacet
  facet normal 0 0 1
    outer loop
      vertex 6.50844 2.57687 3
      vertex 2.83582 1.12278 3
      vertex 2.95418 0.758504 3
    endloop
  endfacet
  facet normal 0 0 1
    outer loop
      vertex 6.13415 3.37228 3
      vertex 2.67274 1.46935 3
      vertex 2.83582 1.12278 3
    endloop
  endfacet
  facet normal 0 0 1
    outer loop
      vertex 5.66312 4.1145 3
      vertex 2.4675 1.79274 3
      vertex 2.67274 1.46935 3
    endloop
  endfacet
  facet normal 0 0 1
    outer loop
      vertex 5.10278 4.79183 3
      vertex 2.22335 2.08787 3
      vertex 2.4675 1.79274 3
    endloop
  endfacet
  facet normal 0 0 1
    outer loop
      vertex 1.29863 2.75972 3
      vertex 2.98045 6.33379 3
      vertex 2.16312 6.6574 3
    endloop
  endfacet
  facet normal 0 0 1
    outer loop
      vertex 4.46197 5.39359 3
      vertex 1.94414 2.35007 3
      vertex 2.22335 2.08787 3
    endloop
  endfacet
  facet normal 0 0 1
    outer loop
      vertex 3.75079 5.91029 3
      vertex 1.63427 2.5752 3
      vertex 1.94414 2.35007 3
    endloop
  endfacet
  facet normal 0 0 1
    outer loop
      vertex 0.942501 2.90072 3
      vertex 2.16312 6.6574 3
      vertex 1.31167 6.87601 3
    endloop
  endfacet
  facet normal 0 0 1
    outer loop
      vertex 2.98045 6.33379 3
      vertex 1.29863 2.75972 3
      vertex 1.63427 2.5752 3
    endloop
  endfacet
  facet normal 0 0 1
    outer loop
      vertex 2.16312 6.6574 3
      vertex 0.942501 2.90072 3
      vertex 1.29863 2.75972 3
    endloop
  endfacet
  facet normal 0 0 1
    outer loop
      vertex 1.31167 6.87601 3
      vertex 0.571512 2.99598 3
      vertex 0.942501 2.90072 3
    endloop
  endfacet
  facet normal 0 0 1
    outer loop
      vertex 0.439533 6.98619 3
      vertex 0.571512 2.99598 3
      vertex 1.31167 6.87601 3
    endloop
  endfacet
  facet normal 0 0 1
    outer loop
      vertex 0.439533 6.98619 3
      vertex 0.19151 3.04398 3
      vertex 0.571512 2.99598 3
    endloop
  endfacet
  facet normal 0 0 1
    outer loop
      vertex 0.439533 6.98619 3
      vertex -0.19151 3.04398 3
      vertex 0.19151 3.04398 3
    endloop
  endfacet
  facet normal -0 0 1
    outer loop
      vertex -0.439533 6.98619 3
      vertex -0.19151 3.04398 3
      vertex 0.439533 6.98619 3
    endloop
  endfacet
  facet normal 0 0 1
    outer loop
      vertex -0.439533 6.98619 3
      vertex -0.571512 2.99598 3
      vertex -0.19151 3.04398 3
    endloop
  endfacet
  facet normal -0 0 1
    outer loop
      vertex -1.31167 6.87601 3
      vertex -0.571512 2.99598 3
      vertex -0.439533 6.98619 3
    endloop
  endfacet
  facet normal 0 0 1
    outer loop
      vertex -0.571512 2.99598 3
      vertex -1.31167 6.87601 3
      vertex -0.942501 2.90072 3
    endloop
  endfacet
  facet normal -0 0 1
    outer loop
      vertex -2.16312 6.6574 3
      vertex -0.942501 2.90072 3
      vertex -1.31167 6.87601 3
    endloop
  endfacet
  facet normal 0 0 1
    outer loop
      vertex -0.942501 2.90072 3
      vertex -2.16312 6.6574 3
      vertex -1.29863 2.75972 3
    endloop
  endfacet
  facet normal -0 0 1
    outer loop
      vertex -2.98045 6.33379 3
      vertex -1.29863 2.75972 3
      vertex -2.16312 6.6574 3
    endloop
  endfacet
  facet normal 0 0 1
    outer loop
      vertex -1.29863 2.75972 3
      vertex -2.98045 6.33379 3
      vertex -1.63427 2.5752 3
    endloop
  endfacet
  facet normal -0 0 1
    outer loop
      vertex -3.75079 5.91029 3
      vertex -1.63427 2.5752 3
      vertex -2.98045 6.33379 3
    endloop
  endfacet
  facet normal 0 0 1
    outer loop
      vertex -1.63427 2.5752 3
      vertex -3.75079 5.91029 3
      vertex -1.94414 2.35007 3
    endloop
  endfacet
  facet normal -0 0 1
    outer loop
      vertex -4.46197 5.39359 3
      vertex -1.94414 2.35007 3
      vertex -3.75079 5.91029 3
    endloop
  endfacet
  facet normal 0 0 1
    outer loop
      vertex -1.94414 2.35007 3
      vertex -4.46197 5.39359 3
      vertex -2.22335 2.08787 3
    endloop
  endfacet
  facet normal -0 0 1
    outer loop
      vertex -5.10278 4.79183 3
      vertex -2.22335 2.08787 3
      vertex -4.46197 5.39359 3
    endloop
  endfacet
  facet normal 0 0 1
    outer loop
      vertex -2.22335 2.08787 3
      vertex -5.10278 4.79183 3
      vertex -2.4675 1.79274 3
    endloop
  endfacet
  facet normal -0 0 1
    outer loop
      vertex -5.66312 4.1145 3
      vertex -2.4675 1.79274 3
      vertex -5.10278 4.79183 3
    endloop
  endfacet
  facet normal 0 0 1
    outer loop
      vertex -2.4675 1.79274 3
      vertex -5.66312 4.1145 3
      vertex -2.67274 1.46935 3
    endloop
  endfacet
  facet normal -0 0 1
    outer loop
      vertex -6.13415 3.37228 3
      vertex -2.67274 1.46935 3
      vertex -5.66312 4.1145 3
    endloop
  endfacet
  facet normal 0 0 1
    outer loop
      vertex 6.13415 -3.37228 3
      vertex 2.67274 -1.46935 3
      vertex 5.66312 -4.1145 3
    endloop
  endfacet
  facet normal -0 0 1
    outer loop
      vertex 2.4675 -1.79274 3
      vertex 5.66312 -4.1145 3
      vertex 2.67274 -1.46935 3
    endloop
  endfacet
  facet normal 0 0 1
    outer loop
      vertex 5.66312 -4.1145 3
      vertex 2.4675 -1.79274 3
      vertex 5.10278 -4.79183 3
    endloop
  endfacet
  facet normal -0 0 1
    outer loop
      vertex 2.22335 -2.08787 3
      vertex 5.10278 -4.79183 3
      vertex 2.4675 -1.79274 3
    endloop
  endfacet
  facet normal 0 0 1
    outer loop
      vertex 5.10278 -4.79183 3
      vertex 2.22335 -2.08787 3
      vertex 4.46197 -5.39359 3
    endloop
  endfacet
  facet normal -0 0 1
    outer loop
      vertex 1.94414 -2.35007 3
      vertex 4.46197 -5.39359 3
      vertex 2.22335 -2.08787 3
    endloop
  endfacet
  facet normal 0 0 1
    outer loop
      vertex 4.46197 -5.39359 3
      vertex 1.94414 -2.35007 3
      vertex 3.75079 -5.91029 3
    endloop
  endfacet
  facet normal -0 0 1
    outer loop
      vertex 1.63427 -2.5752 3
      vertex 3.75079 -5.91029 3
      vertex 1.94414 -2.35007 3
    endloop
  endfacet
  facet normal 0 0 1
    outer loop
      vertex 3.75079 -5.91029 3
      vertex 1.63427 -2.5752 3
      vertex 2.98045 -6.33379 3
    endloop
  endfacet
  facet normal -0 0 1
    outer loop
      vertex 1.29863 -2.75972 3
      vertex 2.98045 -6.33379 3
      vertex 1.63427 -2.5752 3
    endloop
  endfacet
  facet normal 0 0 1
    outer loop
      vertex 2.98045 -6.33379 3
      vertex 1.29863 -2.75972 3
      vertex 2.16312 -6.6574 3
    endloop
  endfacet
  facet normal -0 0 1
    outer loop
      vertex 0.942501 -2.90072 3
      vertex 2.16312 -6.6574 3
      vertex 1.29863 -2.75972 3
    endloop
  endfacet
  facet normal 0 0 1
    outer loop
      vertex 2.16312 -6.6574 3
      vertex 0.942501 -2.90072 3
      vertex 1.31167 -6.87601 3
    endloop
  endfacet
  facet normal -0 0 1
    outer loop
      vertex 0.571512 -2.99598 3
      vertex 1.31167 -6.87601 3
      vertex 0.942501 -2.90072 3
    endloop
  endfacet
  facet normal 0 0 1
    outer loop
      vertex 0.571512 -2.99598 3
      vertex 0.439533 -6.98619 3
      vertex 1.31167 -6.87601 3
    endloop
  endfacet
  facet normal -0 0 1
    outer loop
      vertex 0.19151 -3.04398 3
      vertex 0.439533 -6.98619 3
      vertex 0.571512 -2.99598 3
    endloop
  endfacet
  facet normal -0 0 1
    outer loop
      vertex -0.19151 -3.04398 3
      vertex 0.439533 -6.98619 3
      vertex 0.19151 -3.04398 3
    endloop
  endfacet
  facet normal 0 0 1
    outer loop
      vertex -0.19151 -3.04398 3
      vertex -0.439533 -6.98619 3
      vertex 0.439533 -6.98619 3
    endloop
  endfacet
  facet normal 0 0 1
    outer loop
      vertex -0.571512 -2.99598 3
      vertex -0.439533 -6.98619 3
      vertex -0.19151 -3.04398 3
    endloop
  endfacet
  facet normal 0 0 1
    outer loop
      vertex -1.31167 -6.87601 3
      vertex -0.571512 -2.99598 3
      vertex -0.942501 -2.90072 3
    endloop
  endfacet
  facet normal 0 0 1
    outer loop
      vertex -2.16312 -6.6574 3
      vertex -0.942501 -2.90072 3
      vertex -1.29863 -2.75972 3
    endloop
  endfacet
  facet normal 0 0 1
    outer loop
      vertex -0.571512 -2.99598 3
      vertex -1.31167 -6.87601 3
      vertex -0.439533 -6.98619 3
    endloop
  endfacet
  facet normal 0 0 1
    outer loop
      vertex -2.98045 -6.33379 3
      vertex -1.29863 -2.75972 3
      vertex -1.63427 -2.5752 3
    endloop
  endfacet
  facet normal 0 0 1
    outer loop
      vertex -3.75079 -5.91029 3
      vertex -1.63427 -2.5752 3
      vertex -1.94414 -2.35007 3
    endloop
  endfacet
  facet normal 0 0 1
    outer loop
      vertex -0.942501 -2.90072 3
      vertex -2.16312 -6.6574 3
      vertex -1.31167 -6.87601 3
    endloop
  endfacet
  facet normal 0 0 1
    outer loop
      vertex -4.46197 -5.39359 3
      vertex -1.94414 -2.35007 3
      vertex -2.22335 -2.08787 3
    endloop
  endfacet
  facet normal 0 0 1
    outer loop
      vertex -5.10278 -4.79183 3
      vertex -2.22335 -2.08787 3
      vertex -2.4675 -1.79274 3
    endloop
  endfacet
  facet normal 0 0 1
    outer loop
      vertex -5.66312 -4.1145 3
      vertex -2.4675 -1.79274 3
      vertex -2.67274 -1.46935 3
    endloop
  endfacet
  facet normal 0 0 1
    outer loop
      vertex -6.13415 -3.37228 3
      vertex -2.67274 -1.46935 3
      vertex -2.83582 -1.12278 3
    endloop
  endfacet
  facet normal 0 0 1
    outer loop
      vertex -6.50844 -2.57687 3
      vertex -2.83582 -1.12278 3
      vertex -2.95418 -0.758504 3
    endloop
  endfacet
  facet normal 0 0 1
    outer loop
      vertex -1.29863 -2.75972 3
      vertex -2.98045 -6.33379 3
      vertex -2.16312 -6.6574 3
    endloop
  endfacet
  facet normal 0 0 1
    outer loop
      vertex -6.78008 -1.74083 3
      vertex -2.95418 -0.758504 3
      vertex -3.02595 -0.382266 3
    endloop
  endfacet
  facet normal 0 0 1
    outer loop
      vertex -6.9448 -0.877332 3
      vertex -3.02595 -0.382266 3
      vertex -3.05 0 3
    endloop
  endfacet
  facet normal 0 0 1
    outer loop
      vertex -2.67274 1.46935 3
      vertex -6.13415 3.37228 3
      vertex -2.83582 1.12278 3
    endloop
  endfacet
  facet normal 0 0 1
    outer loop
      vertex -1.63427 -2.5752 3
      vertex -3.75079 -5.91029 3
      vertex -2.98045 -6.33379 3
    endloop
  endfacet
  facet normal -0 0 1
    outer loop
      vertex -6.50844 2.57687 3
      vertex -2.83582 1.12278 3
      vertex -6.13415 3.37228 3
    endloop
  endfacet
  facet normal 0 0 1
    outer loop
      vertex -1.94414 -2.35007 3
      vertex -4.46197 -5.39359 3
      vertex -3.75079 -5.91029 3
    endloop
  endfacet
  facet normal 0 0 1
    outer loop
      vertex -2.83582 1.12278 3
      vertex -6.50844 2.57687 3
      vertex -2.95418 0.758504 3
    endloop
  endfacet
  facet normal 0 0 1
    outer loop
      vertex -2.22335 -2.08787 3
      vertex -5.10278 -4.79183 3
      vertex -4.46197 -5.39359 3
    endloop
  endfacet
  facet normal -0 0 1
    outer loop
      vertex -6.78008 1.74083 3
      vertex -2.95418 0.758504 3
      vertex -6.50844 2.57687 3
    endloop
  endfacet
  facet normal 0 0 1
    outer loop
      vertex -2.4675 -1.79274 3
      vertex -5.66312 -4.1145 3
      vertex -5.10278 -4.79183 3
    endloop
  endfacet
  facet normal 0 0 1
    outer loop
      vertex -2.95418 0.758504 3
      vertex -6.78008 1.74083 3
      vertex -3.02595 0.382266 3
    endloop
  endfacet
  facet normal 0 0 1
    outer loop
      vertex -2.67274 -1.46935 3
      vertex -6.13415 -3.37228 3
      vertex -5.66312 -4.1145 3
    endloop
  endfacet
  facet normal -0 0 1
    outer loop
      vertex -6.9448 0.877332 3
      vertex -3.02595 0.382266 3
      vertex -6.78008 1.74083 3
    endloop
  endfacet
  facet normal 0 0 1
    outer loop
      vertex -2.83582 -1.12278 3
      vertex -6.50844 -2.57687 3
      vertex -6.13415 -3.37228 3
    endloop
  endfacet
  facet normal 0 0 1
    outer loop
      vertex -3.02595 0.382266 3
      vertex -6.9448 0.877332 3
      vertex -3.05 0 3
    endloop
  endfacet
  facet normal 0 0 1
    outer loop
      vertex -2.95418 -0.758504 3
      vertex -6.78008 -1.74083 3
      vertex -6.50844 -2.57687 3
    endloop
  endfacet
  facet normal 0 0 1
    outer loop
      vertex -7 0 3
      vertex -3.05 0 3
      vertex -6.9448 0.877332 3
    endloop
  endfacet
  facet normal 0 0 1
    outer loop
      vertex -3.02595 -0.382266 3
      vertex -6.9448 -0.877332 3
      vertex -6.78008 -1.74083 3
    endloop
  endfacet
  facet normal 0 0 1
    outer loop
      vertex -3.05 0 3
      vertex -7 0 3
      vertex -6.9448 -0.877332 3
    endloop
  endfacet
  facet normal -0.481755 0.876306 0
    outer loop
      vertex -2.98045 6.33379 0
      vertex -3.75079 5.91029 3
      vertex -2.98045 6.33379 3
    endloop
  endfacet
  facet normal -0.481755 0.876306 0
    outer loop
      vertex -3.75079 5.91029 3
      vertex -2.98045 6.33379 0
      vertex -3.75079 5.91029 0
    endloop
  endfacet
  facet normal -0.587783 0.809018 0
    outer loop
      vertex -3.75079 5.91029 0
      vertex -4.46197 5.39359 3
      vertex -3.75079 5.91029 3
    endloop
  endfacet
  facet normal -0.587783 0.809018 0
    outer loop
      vertex -4.46197 5.39359 3
      vertex -3.75079 5.91029 0
      vertex -4.46197 5.39359 0
    endloop
  endfacet
  facet normal -0.125337 0.992114 0
    outer loop
      vertex -0.439533 6.98619 0
      vertex -1.31167 6.87601 3
      vertex -0.439533 6.98619 3
    endloop
  endfacet
  facet normal -0.125337 0.992114 0
    outer loop
      vertex -1.31167 6.87601 3
      vertex -0.439533 6.98619 0
      vertex -1.31167 6.87601 0
    endloop
  endfacet
  facet normal 0.998027 -0.0627939 0
    outer loop
      vertex 6.9448 -0.877332 3
      vertex 7 0 0
      vertex 7 0 3
    endloop
  endfacet
  facet normal 0.998027 -0.0627939 0
    outer loop
      vertex 7 0 0
      vertex 6.9448 -0.877332 3
      vertex 6.9448 -0.877332 0
    endloop
  endfacet
  facet normal 0.904828 -0.425778 0
    outer loop
      vertex 6.13415 -3.37228 3
      vertex 6.50844 -2.57687 0
      vertex 6.50844 -2.57687 3
    endloop
  endfacet
  facet normal 0.904828 -0.425778 0
    outer loop
      vertex 6.50844 -2.57687 0
      vertex 6.13415 -3.37228 3
      vertex 6.13415 -3.37228 0
    endloop
  endfacet
  facet normal -0.684547 -0.728969 0
    outer loop
      vertex -5.10278 -4.79183 0
      vertex -4.46197 -5.39359 3
      vertex -5.10278 -4.79183 3
    endloop
  endfacet
  facet normal -0.684547 -0.728969 -0
    outer loop
      vertex -4.46197 -5.39359 3
      vertex -5.10278 -4.79183 0
      vertex -4.46197 -5.39359 0
    endloop
  endfacet
  facet normal -0.904828 -0.425778 0
    outer loop
      vertex -6.13415 -3.37228 0
      vertex -6.50844 -2.57687 3
      vertex -6.50844 -2.57687 0
    endloop
  endfacet
  facet normal -0.904828 -0.425778 0
    outer loop
      vertex -6.50844 -2.57687 3
      vertex -6.13415 -3.37228 0
      vertex -6.13415 -3.37228 3
    endloop
  endfacet
  facet normal -0.844326 -0.535829 0
    outer loop
      vertex -5.66312 -4.1145 0
      vertex -6.13415 -3.37228 3
      vertex -6.13415 -3.37228 0
    endloop
  endfacet
  facet normal -0.844326 -0.535829 0
    outer loop
      vertex -6.13415 -3.37228 3
      vertex -5.66312 -4.1145 0
      vertex -5.66312 -4.1145 3
    endloop
  endfacet
  facet normal 0 0 -1
    outer loop
      vertex 1.7 0 0
      vertex 7 0 0
      vertex 6.9448 -0.877332 0
    endloop
  endfacet
  facet normal 0 0 -1
    outer loop
      vertex 1.68659 -0.213066 0
      vertex 6.9448 -0.877332 0
      vertex 6.78008 -1.74083 0
    endloop
  endfacet
  facet normal 0 0 -1
    outer loop
      vertex 7 0 0
      vertex 1.7 0 0
      vertex 6.9448 0.877332 0
    endloop
  endfacet
  facet normal 0 0 -1
    outer loop
      vertex 1.64659 -0.422772 0
      vertex 6.78008 -1.74083 0
      vertex 6.50844 -2.57687 0
    endloop
  endfacet
  facet normal 0 0 -1
    outer loop
      vertex 1.68659 0.213066 0
      vertex 6.9448 0.877332 0
      vertex 1.7 0 0
    endloop
  endfacet
  facet normal 0 0 -1
    outer loop
      vertex 1.58062 -0.625812 0
      vertex 6.50844 -2.57687 0
      vertex 6.13415 -3.37228 0
    endloop
  endfacet
  facet normal -0 0 -1
    outer loop
      vertex 6.9448 0.877332 0
      vertex 1.68659 0.213066 0
      vertex 6.78008 1.74083 0
    endloop
  endfacet
  facet normal 0 0 -1
    outer loop
      vertex 1.48972 -0.818981 0
      vertex 6.13415 -3.37228 0
      vertex 5.66312 -4.1145 0
    endloop
  endfacet
  facet normal 0 0 -1
    outer loop
      vertex 1.64659 0.422772 0
      vertex 6.78008 1.74083 0
      vertex 1.68659 0.213066 0
    endloop
  endfacet
  facet normal 0 0 -1
    outer loop
      vertex 1.37533 -0.999234 0
      vertex 5.66312 -4.1145 0
      vertex 5.10278 -4.79183 0
    endloop
  endfacet
  facet normal -0 0 -1
    outer loop
      vertex 6.78008 1.74083 0
      vertex 1.64659 0.422772 0
      vertex 6.50844 2.57687 0
    endloop
  endfacet
  facet normal 0 0 -1
    outer loop
      vertex 1.23925 -1.16373 0
      vertex 5.10278 -4.79183 0
      vertex 4.46197 -5.39359 0
    endloop
  endfacet
  facet normal 0 0 -1
    outer loop
      vertex 1.58062 0.625812 0
      vertex 6.50844 2.57687 0
      vertex 1.64659 0.422772 0
    endloop
  endfacet
  facet normal 0 0 -1
    outer loop
      vertex 1.08362 -1.30987 0
      vertex 4.46197 -5.39359 0
      vertex 3.75079 -5.91029 0
    endloop
  endfacet
  facet normal -0 0 -1
    outer loop
      vertex 6.50844 2.57687 0
      vertex 1.58062 0.625812 0
      vertex 6.13415 3.37228 0
    endloop
  endfacet
  facet normal 0 0 -1
    outer loop
      vertex 0.910905 -1.43536 0
      vertex 3.75079 -5.91029 0
      vertex 2.98045 -6.33379 0
    endloop
  endfacet
  facet normal 0 0 -1
    outer loop
      vertex 1.48972 0.818981 0
      vertex 6.13415 3.37228 0
      vertex 1.58062 0.625812 0
    endloop
  endfacet
  facet normal 0 0 -1
    outer loop
      vertex 0.723825 -1.53821 0
      vertex 2.98045 -6.33379 0
      vertex 2.16312 -6.6574 0
    endloop
  endfacet
  facet normal -0 0 -1
    outer loop
      vertex 6.13415 3.37228 0
      vertex 1.48972 0.818981 0
      vertex 5.66312 4.1145 0
    endloop
  endfacet
  facet normal 0 0 -1
    outer loop
      vertex 1.37533 0.999234 0
      vertex 5.66312 4.1145 0
      vertex 1.48972 0.818981 0
    endloop
  endfacet
  facet normal 0 0 -1
    outer loop
      vertex 6.9448 -0.877332 0
      vertex 1.68659 -0.213066 0
      vertex 1.7 0 0
    endloop
  endfacet
  facet normal 0 0 -1
    outer loop
      vertex 6.78008 -1.74083 0
      vertex 1.64659 -0.422772 0
      vertex 1.68659 -0.213066 0
    endloop
  endfacet
  facet normal 0 0 -1
    outer loop
      vertex 6.50844 -2.57687 0
      vertex 1.58062 -0.625812 0
      vertex 1.64659 -0.422772 0
    endloop
  endfacet
  facet normal 0 0 -1
    outer loop
      vertex 6.13415 -3.37228 0
      vertex 1.48972 -0.818981 0
      vertex 1.58062 -0.625812 0
    endloop
  endfacet
  facet normal 0 0 -1
    outer loop
      vertex 5.66312 -4.1145 0
      vertex 1.37533 -0.999234 0
      vertex 1.48972 -0.818981 0
    endloop
  endfacet
  facet normal 0 0 -1
    outer loop
      vertex 0.525329 -1.6168 0
      vertex 2.16312 -6.6574 0
      vertex 1.31167 -6.87601 0
    endloop
  endfacet
  facet normal 0 0 -1
    outer loop
      vertex 5.10278 -4.79183 0
      vertex 1.23925 -1.16373 0
      vertex 1.37533 -0.999234 0
    endloop
  endfacet
  facet normal 0 0 -1
    outer loop
      vertex 4.46197 -5.39359 0
      vertex 1.08362 -1.30987 0
      vertex 1.23925 -1.16373 0
    endloop
  endfacet
  facet normal 0 0 -1
    outer loop
      vertex 3.75079 -5.91029 0
      vertex 0.910905 -1.43536 0
      vertex 1.08362 -1.30987 0
    endloop
  endfacet
  facet normal 0 0 -1
    outer loop
      vertex 2.98045 -6.33379 0
      vertex 0.723825 -1.53821 0
      vertex 0.910905 -1.43536 0
    endloop
  endfacet
  facet normal 0 0 -1
    outer loop
      vertex 2.16312 -6.6574 0
      vertex 0.525329 -1.6168 0
      vertex 0.723825 -1.53821 0
    endloop
  endfacet
  facet normal 0 0 -1
    outer loop
      vertex 0.318548 -1.66989 0
      vertex 1.31167 -6.87601 0
      vertex 0.439533 -6.98619 0
    endloop
  endfacet
  facet normal 0 0 -1
    outer loop
      vertex 1.31167 -6.87601 0
      vertex 0.318548 -1.66989 0
      vertex 0.525329 -1.6168 0
    endloop
  endfacet
  facet normal 0 0 -1
    outer loop
      vertex 0.439533 -6.98619 0
      vertex 0.106744 -1.69664 0
      vertex 0.318548 -1.66989 0
    endloop
  endfacet
  facet normal 0 0 -1
    outer loop
      vertex 0.439533 -6.98619 0
      vertex -0.106744 -1.69664 0
      vertex 0.106744 -1.69664 0
    endloop
  endfacet
  facet normal 0 0 -1
    outer loop
      vertex -0.439533 -6.98619 0
      vertex -0.106744 -1.69664 0
      vertex 0.439533 -6.98619 0
    endloop
  endfacet
  facet normal -0 0 -1
    outer loop
      vertex -0.106744 -1.69664 0
      vertex -0.439533 -6.98619 0
      vertex -0.318548 -1.66989 0
    endloop
  endfacet
  facet normal 0 0 -1
    outer loop
      vertex -1.31167 -6.87601 0
      vertex -0.318548 -1.66989 0
      vertex -0.439533 -6.98619 0
    endloop
  endfacet
  facet normal -0 0 -1
    outer loop
      vertex -0.318548 -1.66989 0
      vertex -1.31167 -6.87601 0
      vertex -0.525329 -1.6168 0
    endloop
  endfacet
  facet normal 0 0 -1
    outer loop
      vertex -2.16312 -6.6574 0
      vertex -0.525329 -1.6168 0
      vertex -1.31167 -6.87601 0
    endloop
  endfacet
  facet normal -0 0 -1
    outer loop
      vertex -0.525329 -1.6168 0
      vertex -2.16312 -6.6574 0
      vertex -0.723825 -1.53821 0
    endloop
  endfacet
  facet normal 0 0 -1
    outer loop
      vertex -2.98045 -6.33379 0
      vertex -0.723825 -1.53821 0
      vertex -2.16312 -6.6574 0
    endloop
  endfacet
  facet normal -0 0 -1
    outer loop
      vertex -0.723825 -1.53821 0
      vertex -2.98045 -6.33379 0
      vertex -0.910905 -1.43536 0
    endloop
  endfacet
  facet normal 0 0 -1
    outer loop
      vertex -3.75079 -5.91029 0
      vertex -0.910905 -1.43536 0
      vertex -2.98045 -6.33379 0
    endloop
  endfacet
  facet normal -0 0 -1
    outer loop
      vertex -0.910905 -1.43536 0
      vertex -3.75079 -5.91029 0
      vertex -1.08362 -1.30987 0
    endloop
  endfacet
  facet normal 0 0 -1
    outer loop
      vertex -4.46197 -5.39359 0
      vertex -1.08362 -1.30987 0
      vertex -3.75079 -5.91029 0
    endloop
  endfacet
  facet normal -0 0 -1
    outer loop
      vertex -1.08362 -1.30987 0
      vertex -4.46197 -5.39359 0
      vertex -1.23925 -1.16373 0
    endloop
  endfacet
  facet normal 0 0 -1
    outer loop
      vertex -5.10278 -4.79183 0
      vertex -1.23925 -1.16373 0
      vertex -4.46197 -5.39359 0
    endloop
  endfacet
  facet normal -0 0 -1
    outer loop
      vertex -1.23925 -1.16373 0
      vertex -5.10278 -4.79183 0
      vertex -1.37533 -0.999234 0
    endloop
  endfacet
  facet normal 0 0 -1
    outer loop
      vertex -5.66312 -4.1145 0
      vertex -1.37533 -0.999234 0
      vertex -5.10278 -4.79183 0
    endloop
  endfacet
  facet normal -0 0 -1
    outer loop
      vertex 5.66312 4.1145 0
      vertex 1.37533 0.999234 0
      vertex 5.10278 4.79183 0
    endloop
  endfacet
  facet normal 0 0 -1
    outer loop
      vertex 1.23925 1.16373 0
      vertex 5.10278 4.79183 0
      vertex 1.37533 0.999234 0
    endloop
  endfacet
  facet normal -0 0 -1
    outer loop
      vertex 5.10278 4.79183 0
      vertex 1.23925 1.16373 0
      vertex 4.46197 5.39359 0
    endloop
  endfacet
  facet normal 0 0 -1
    outer loop
      vertex 1.08362 1.30987 0
      vertex 4.46197 5.39359 0
      vertex 1.23925 1.16373 0
    endloop
  endfacet
  facet normal -0 0 -1
    outer loop
      vertex 4.46197 5.39359 0
      vertex 1.08362 1.30987 0
      vertex 3.75079 5.91029 0
    endloop
  endfacet
  facet normal 0 0 -1
    outer loop
      vertex 0.910905 1.43536 0
      vertex 3.75079 5.91029 0
      vertex 1.08362 1.30987 0
    endloop
  endfacet
  facet normal -0 0 -1
    outer loop
      vertex 3.75079 5.91029 0
      vertex 0.910905 1.43536 0
      vertex 2.98045 6.33379 0
    endloop
  endfacet
  facet normal 0 0 -1
    outer loop
      vertex 0.723825 1.53821 0
      vertex 2.98045 6.33379 0
      vertex 0.910905 1.43536 0
    endloop
  endfacet
  facet normal -0 0 -1
    outer loop
      vertex 2.98045 6.33379 0
      vertex 0.723825 1.53821 0
      vertex 2.16312 6.6574 0
    endloop
  endfacet
  facet normal 0 0 -1
    outer loop
      vertex 0.525329 1.6168 0
      vertex 2.16312 6.6574 0
      vertex 0.723825 1.53821 0
    endloop
  endfacet
  facet normal -0 0 -1
    outer loop
      vertex 2.16312 6.6574 0
      vertex 0.525329 1.6168 0
      vertex 1.31167 6.87601 0
    endloop
  endfacet
  facet normal 0 0 -1
    outer loop
      vertex 0.318548 1.66989 0
      vertex 1.31167 6.87601 0
      vertex 0.525329 1.6168 0
    endloop
  endfacet
  facet normal -0 0 -1
    outer loop
      vertex 1.31167 6.87601 0
      vertex 0.318548 1.66989 0
      vertex 0.439533 6.98619 0
    endloop
  endfacet
  facet normal 0 0 -1
    outer loop
      vertex 0.106744 1.69664 0
      vertex 0.439533 6.98619 0
      vertex 0.318548 1.66989 0
    endloop
  endfacet
  facet normal 0 0 -1
    outer loop
      vertex -0.106744 1.69664 0
      vertex 0.439533 6.98619 0
      vertex 0.106744 1.69664 0
    endloop
  endfacet
  facet normal 0 0 -1
    outer loop
      vertex -0.439533 6.98619 0
      vertex -0.106744 1.69664 0
      vertex -0.318548 1.66989 0
    endloop
  endfacet
  facet normal 0 0 -1
    outer loop
      vertex -0.106744 1.69664 0
      vertex -0.439533 6.98619 0
      vertex 0.439533 6.98619 0
    endloop
  endfacet
  facet normal 0 0 -1
    outer loop
      vertex -1.31167 6.87601 0
      vertex -0.318548 1.66989 0
      vertex -0.525329 1.6168 0
    endloop
  endfacet
  facet normal 0 0 -1
    outer loop
      vertex -2.16312 6.6574 0
      vertex -0.525329 1.6168 0
      vertex -0.723825 1.53821 0
    endloop
  endfacet
  facet normal 0 0 -1
    outer loop
      vertex -2.98045 6.33379 0
      vertex -0.723825 1.53821 0
      vertex -0.910905 1.43536 0
    endloop
  endfacet
  facet normal 0 0 -1
    outer loop
      vertex -3.75079 5.91029 0
      vertex -0.910905 1.43536 0
      vertex -1.08362 1.30987 0
    endloop
  endfacet
  facet normal 0 0 -1
    outer loop
      vertex -4.46197 5.39359 0
      vertex -1.08362 1.30987 0
      vertex -1.23925 1.16373 0
    endloop
  endfacet
  facet normal 0 0 -1
    outer loop
      vertex -0.318548 1.66989 0
      vertex -1.31167 6.87601 0
      vertex -0.439533 6.98619 0
    endloop
  endfacet
  facet normal 0 0 -1
    outer loop
      vertex -5.10278 4.79183 0
      vertex -1.23925 1.16373 0
      vertex -1.37533 0.999234 0
    endloop
  endfacet
  facet normal 0 0 -1
    outer loop
      vertex -5.66312 4.1145 0
      vertex -1.37533 0.999234 0
      vertex -1.48972 0.818981 0
    endloop
  endfacet
  facet normal 0 0 -1
    outer loop
      vertex -6.13415 3.37228 0
      vertex -1.48972 0.818981 0
      vertex -1.58062 0.625812 0
    endloop
  endfacet
  facet normal 0 0 -1
    outer loop
      vertex -6.50844 2.57687 0
      vertex -1.58062 0.625812 0
      vertex -1.64659 0.422772 0
    endloop
  endfacet
  facet normal 0 0 -1
    outer loop
      vertex -6.78008 1.74083 0
      vertex -1.64659 0.422772 0
      vertex -1.68659 0.213066 0
    endloop
  endfacet
  facet normal 0 0 -1
    outer loop
      vertex -6.9448 0.877332 0
      vertex -1.68659 0.213066 0
      vertex -1.7 0 0
    endloop
  endfacet
  facet normal -0 0 -1
    outer loop
      vertex -1.37533 -0.999234 0
      vertex -5.66312 -4.1145 0
      vertex -1.48972 -0.818981 0
    endloop
  endfacet
  facet normal 0 0 -1
    outer loop
      vertex -0.525329 1.6168 0
      vertex -2.16312 6.6574 0
      vertex -1.31167 6.87601 0
    endloop
  endfacet
  facet normal 0 0 -1
    outer loop
      vertex -6.13415 -3.37228 0
      vertex -1.48972 -0.818981 0
      vertex -5.66312 -4.1145 0
    endloop
  endfacet
  facet normal 0 0 -1
    outer loop
      vertex -0.723825 1.53821 0
      vertex -2.98045 6.33379 0
      vertex -2.16312 6.6574 0
    endloop
  endfacet
  facet normal -0 0 -1
    outer loop
      vertex -1.48972 -0.818981 0
      vertex -6.13415 -3.37228 0
      vertex -1.58062 -0.625812 0
    endloop
  endfacet
  facet normal 0 0 -1
    outer loop
      vertex -0.910905 1.43536 0
      vertex -3.75079 5.91029 0
      vertex -2.98045 6.33379 0
    endloop
  endfacet
  facet normal 0 0 -1
    outer loop
      vertex -6.50844 -2.57687 0
      vertex -1.58062 -0.625812 0
      vertex -6.13415 -3.37228 0
    endloop
  endfacet
  facet normal 0 0 -1
    outer loop
      vertex -1.08362 1.30987 0
      vertex -4.46197 5.39359 0
      vertex -3.75079 5.91029 0
    endloop
  endfacet
  facet normal -0 0 -1
    outer loop
      vertex -1.58062 -0.625812 0
      vertex -6.50844 -2.57687 0
      vertex -1.64659 -0.422772 0
    endloop
  endfacet
  facet normal 0 0 -1
    outer loop
      vertex -1.23925 1.16373 0
      vertex -5.10278 4.79183 0
      vertex -4.46197 5.39359 0
    endloop
  endfacet
  facet normal 0 0 -1
    outer loop
      vertex -6.78008 -1.74083 0
      vertex -1.64659 -0.422772 0
      vertex -6.50844 -2.57687 0
    endloop
  endfacet
  facet normal 0 0 -1
    outer loop
      vertex -1.37533 0.999234 0
      vertex -5.66312 4.1145 0
      vertex -5.10278 4.79183 0
    endloop
  endfacet
  facet normal -0 0 -1
    outer loop
      vertex -1.64659 -0.422772 0
      vertex -6.78008 -1.74083 0
      vertex -1.68659 -0.213066 0
    endloop
  endfacet
  facet normal 0 0 -1
    outer loop
      vertex -1.48972 0.818981 0
      vertex -6.13415 3.37228 0
      vertex -5.66312 4.1145 0
    endloop
  endfacet
  facet normal 0 0 -1
    outer loop
      vertex -6.9448 -0.877332 0
      vertex -1.68659 -0.213066 0
      vertex -6.78008 -1.74083 0
    endloop
  endfacet
  facet normal 0 0 -1
    outer loop
      vertex -1.58062 0.625812 0
      vertex -6.50844 2.57687 0
      vertex -6.13415 3.37228 0
    endloop
  endfacet
  facet normal -0 0 -1
    outer loop
      vertex -1.68659 -0.213066 0
      vertex -6.9448 -0.877332 0
      vertex -1.7 0 0
    endloop
  endfacet
  facet normal 0 0 -1
    outer loop
      vertex -1.64659 0.422772 0
      vertex -6.78008 1.74083 0
      vertex -6.50844 2.57687 0
    endloop
  endfacet
  facet normal 0 0 -1
    outer loop
      vertex -7 0 0
      vertex -1.7 0 0
      vertex -6.9448 -0.877332 0
    endloop
  endfacet
  facet normal 0 0 -1
    outer loop
      vertex -1.68659 0.213066 0
      vertex -6.9448 0.877332 0
      vertex -6.78008 1.74083 0
    endloop
  endfacet
  facet normal 0 0 -1
    outer loop
      vertex -1.7 0 0
      vertex -7 0 0
      vertex -6.9448 0.877332 0
    endloop
  endfacet
  facet normal 0.481755 -0.876306 0
    outer loop
      vertex 2.98045 -6.33379 0
      vertex 3.75079 -5.91029 3
      vertex 2.98045 -6.33379 3
    endloop
  endfacet
  facet normal 0.481755 -0.876306 0
    outer loop
      vertex 3.75079 -5.91029 3
      vertex 2.98045 -6.33379 0
      vertex 3.75079 -5.91029 0
    endloop
  endfacet
  facet normal 0.951058 -0.309011 0
    outer loop
      vertex 6.50844 -2.57687 3
      vertex 6.78008 -1.74083 0
      vertex 6.78008 -1.74083 3
    endloop
  endfacet
  facet normal 0.951058 -0.309011 0
    outer loop
      vertex 6.78008 -1.74083 0
      vertex 6.50844 -2.57687 3
      vertex 6.50844 -2.57687 0
    endloop
  endfacet
  facet normal -0.770511 -0.637427 0
    outer loop
      vertex -5.10278 -4.79183 0
      vertex -5.66312 -4.1145 3
      vertex -5.66312 -4.1145 0
    endloop
  endfacet
  facet normal -0.770511 -0.637427 0
    outer loop
      vertex -5.66312 -4.1145 3
      vertex -5.10278 -4.79183 0
      vertex -5.10278 -4.79183 3
    endloop
  endfacet
  facet normal -0.951058 -0.309011 0
    outer loop
      vertex -6.50844 -2.57687 0
      vertex -6.78008 -1.74083 3
      vertex -6.78008 -1.74083 0
    endloop
  endfacet
  facet normal -0.951058 -0.309011 0
    outer loop
      vertex -6.78008 -1.74083 3
      vertex -6.50844 -2.57687 0
      vertex -6.50844 -2.57687 3
    endloop
  endfacet
  facet normal 0.684547 -0.728969 0
    outer loop
      vertex 4.46197 -5.39359 0
      vertex 5.10278 -4.79183 3
      vertex 4.46197 -5.39359 3
    endloop
  endfacet
  facet normal 0.684547 -0.728969 0
    outer loop
      vertex 5.10278 -4.79183 3
      vertex 4.46197 -5.39359 0
      vertex 5.10278 -4.79183 0
    endloop
  endfacet
  facet normal 0.368131 -0.929774 0
    outer loop
      vertex 2.16312 -6.6574 0
      vertex 2.98045 -6.33379 3
      vertex 2.16312 -6.6574 3
    endloop
  endfacet
  facet normal 0.368131 -0.929774 0
    outer loop
      vertex 2.98045 -6.33379 3
      vertex 2.16312 -6.6574 0
      vertex 2.98045 -6.33379 0
    endloop
  endfacet
  facet normal 0.248684 -0.968585 0
    outer loop
      vertex 1.31167 -6.87601 0
      vertex 2.16312 -6.6574 3
      vertex 1.31167 -6.87601 3
    endloop
  endfacet
  facet normal 0.248684 -0.968585 0
    outer loop
      vertex 2.16312 -6.6574 3
      vertex 1.31167 -6.87601 0
      vertex 2.16312 -6.6574 0
    endloop
  endfacet
  facet normal 0.125337 -0.992114 0
    outer loop
      vertex 0.439533 -6.98619 0
      vertex 1.31167 -6.87601 3
      vertex 0.439533 -6.98619 3
    endloop
  endfacet
  facet normal 0.125337 -0.992114 0
    outer loop
      vertex 1.31167 -6.87601 3
      vertex 0.439533 -6.98619 0
      vertex 1.31167 -6.87601 0
    endloop
  endfacet
  facet normal 0.982287 -0.18738 0
    outer loop
      vertex 6.78008 -1.74083 3
      vertex 6.9448 -0.877332 0
      vertex 6.9448 -0.877332 3
    endloop
  endfacet
  facet normal 0.982287 -0.18738 0
    outer loop
      vertex 6.9448 -0.877332 0
      vertex 6.78008 -1.74083 3
      vertex 6.78008 -1.74083 0
    endloop
  endfacet
  facet normal 0.844326 -0.535829 0
    outer loop
      vertex 5.66312 -4.1145 3
      vertex 6.13415 -3.37228 0
      vertex 6.13415 -3.37228 3
    endloop
  endfacet
  facet normal 0.844326 -0.535829 0
    outer loop
      vertex 6.13415 -3.37228 0
      vertex 5.66312 -4.1145 3
      vertex 5.66312 -4.1145 0
    endloop
  endfacet
  facet normal 0.770511 -0.637427 0
    outer loop
      vertex 5.10278 -4.79183 3
      vertex 5.66312 -4.1145 0
      vertex 5.66312 -4.1145 3
    endloop
  endfacet
  facet normal 0.770511 -0.637427 0
    outer loop
      vertex 5.66312 -4.1145 0
      vertex 5.10278 -4.79183 3
      vertex 5.10278 -4.79183 0
    endloop
  endfacet
  facet normal -0.125337 -0.992114 0
    outer loop
      vertex -1.31167 -6.87601 0
      vertex -0.439533 -6.98619 3
      vertex -1.31167 -6.87601 3
    endloop
  endfacet
  facet normal -0.125337 -0.992114 -0
    outer loop
      vertex -0.439533 -6.98619 3
      vertex -1.31167 -6.87601 0
      vertex -0.439533 -6.98619 0
    endloop
  endfacet
  facet normal -0.368131 -0.929774 0
    outer loop
      vertex -2.98045 -6.33379 0
      vertex -2.16312 -6.6574 3
      vertex -2.98045 -6.33379 3
    endloop
  endfacet
  facet normal -0.368131 -0.929774 -0
    outer loop
      vertex -2.16312 -6.6574 3
      vertex -2.98045 -6.33379 0
      vertex -2.16312 -6.6574 0
    endloop
  endfacet
  facet normal -0.248684 -0.968585 0
    outer loop
      vertex -2.16312 -6.6574 0
      vertex -1.31167 -6.87601 3
      vertex -2.16312 -6.6574 3
    endloop
  endfacet
  facet normal -0.248684 -0.968585 -0
    outer loop
      vertex -1.31167 -6.87601 3
      vertex -2.16312 -6.6574 0
      vertex -1.31167 -6.87601 0
    endloop
  endfacet
  facet normal -0.982287 -0.18738 0
    outer loop
      vertex -6.78008 -1.74083 0
      vertex -6.9448 -0.877332 3
      vertex -6.9448 -0.877332 0
    endloop
  endfacet
  facet normal -0.982287 -0.18738 0
    outer loop
      vertex -6.9448 -0.877332 3
      vertex -6.78008 -1.74083 0
      vertex -6.78008 -1.74083 3
    endloop
  endfacet
  facet normal -0.998027 -0.0627939 0
    outer loop
      vertex -6.9448 -0.877332 0
      vertex -7 0 3
      vertex -7 0 0
    endloop
  endfacet
  facet normal -0.998027 -0.0627939 0
    outer loop
      vertex -7 0 3
      vertex -6.9448 -0.877332 0
      vertex -6.9448 -0.877332 3
    endloop
  endfacet
  facet normal 0.587783 -0.809018 0
    outer loop
      vertex 3.75079 -5.91029 0
      vertex 4.46197 -5.39359 3
      vertex 3.75079 -5.91029 3
    endloop
  endfacet
  facet normal 0.587783 -0.809018 0
    outer loop
      vertex 4.46197 -5.39359 3
      vertex 3.75079 -5.91029 0
      vertex 4.46197 -5.39359 0
    endloop
  endfacet
  facet normal -0.481755 -0.876306 0
    outer loop
      vertex -3.75079 -5.91029 0
      vertex -2.98045 -6.33379 3
      vertex -3.75079 -5.91029 3
    endloop
  endfacet
  facet normal -0.481755 -0.876306 -0
    outer loop
      vertex -2.98045 -6.33379 3
      vertex -3.75079 -5.91029 0
      vertex -2.98045 -6.33379 0
    endloop
  endfacet
  facet normal -0.587783 -0.809018 0
    outer loop
      vertex -4.46197 -5.39359 0
      vertex -3.75079 -5.91029 3
      vertex -4.46197 -5.39359 3
    endloop
  endfacet
  facet normal -0.587783 -0.809018 -0
    outer loop
      vertex -3.75079 -5.91029 3
      vertex -4.46197 -5.39359 0
      vertex -3.75079 -5.91029 0
    endloop
  endfacet
  facet normal 0.844316 0.535846 0
    outer loop
      vertex 2.67274 1.46935 9
      vertex 2.4675 1.79274 3
      vertex 2.4675 1.79274 9
    endloop
  endfacet
  facet normal 0.844316 0.535846 0
    outer loop
      vertex 2.4675 1.79274 3
      vertex 2.67274 1.46935 9
      vertex 2.67274 1.46935 3
    endloop
  endfacet
  facet normal 0.248705 0.968579 -0
    outer loop
      vertex 0.942501 2.90072 3
      vertex 0.571512 2.99598 9
      vertex 0.942501 2.90072 9
    endloop
  endfacet
  facet normal 0.248705 0.968579 0
    outer loop
      vertex 0.571512 2.99598 9
      vertex 0.942501 2.90072 3
      vertex 0.571512 2.99598 3
    endloop
  endfacet
  facet normal 0.368121 0.929778 -0
    outer loop
      vertex 1.29863 2.75972 3
      vertex 0.942501 2.90072 9
      vertex 1.29863 2.75972 9
    endloop
  endfacet
  facet normal 0.368121 0.929778 0
    outer loop
      vertex 0.942501 2.90072 9
      vertex 1.29863 2.75972 3
      vertex 0.942501 2.90072 3
    endloop
  endfacet
  facet normal -0.368121 0.929778 0
    outer loop
      vertex -0.942501 2.90072 3
      vertex -1.29863 2.75972 9
      vertex -0.942501 2.90072 9
    endloop
  endfacet
  facet normal -0.368121 0.929778 0
    outer loop
      vertex -1.29863 2.75972 9
      vertex -0.942501 2.90072 3
      vertex -1.29863 2.75972 3
    endloop
  endfacet
  facet normal -0.904831 0.425772 0
    outer loop
      vertex -2.83582 1.12278 3
      vertex -2.67274 1.46935 9
      vertex -2.67274 1.46935 3
    endloop
  endfacet
  facet normal -0.904831 0.425772 0
    outer loop
      vertex -2.67274 1.46935 9
      vertex -2.83582 1.12278 3
      vertex -2.83582 1.12278 9
    endloop
  endfacet
  facet normal 0.587779 0.809022 -0
    outer loop
      vertex 1.94414 2.35007 3
      vertex 1.63427 2.5752 9
      vertex 1.94414 2.35007 9
    endloop
  endfacet
  facet normal 0.587779 0.809022 0
    outer loop
      vertex 1.63427 2.5752 9
      vertex 1.94414 2.35007 3
      vertex 1.63427 2.5752 3
    endloop
  endfacet
  facet normal -0.998027 0.0627902 0
    outer loop
      vertex -3.05 0 3
      vertex -3.02595 0.382266 9
      vertex -3.02595 0.382266 3
    endloop
  endfacet
  facet normal -0.998027 0.0627902 0
    outer loop
      vertex -3.02595 0.382266 9
      vertex -3.05 0 3
      vertex -3.05 0 9
    endloop
  endfacet
  facet normal -0.770517 0.63742 0
    outer loop
      vertex -2.4675 1.79274 3
      vertex -2.22335 2.08787 9
      vertex -2.22335 2.08787 3
    endloop
  endfacet
  facet normal -0.770517 0.63742 0
    outer loop
      vertex -2.22335 2.08787 9
      vertex -2.4675 1.79274 3
      vertex -2.4675 1.79274 9
    endloop
  endfacet
  facet normal -0.481754 0.876306 0
    outer loop
      vertex -1.29863 2.75972 3
      vertex -1.63427 2.5752 9
      vertex -1.29863 2.75972 9
    endloop
  endfacet
  facet normal -0.481754 0.876306 0
    outer loop
      vertex -1.63427 2.5752 9
      vertex -1.29863 2.75972 3
      vertex -1.63427 2.5752 3
    endloop
  endfacet
  facet normal -0.125319 0.992116 0
    outer loop
      vertex -0.19151 3.04398 3
      vertex -0.571512 2.99598 9
      vertex -0.19151 3.04398 9
    endloop
  endfacet
  facet normal -0.125319 0.992116 0
    outer loop
      vertex -0.571512 2.99598 9
      vertex -0.19151 3.04398 3
      vertex -0.571512 2.99598 3
    endloop
  endfacet
  facet normal 0.684553 0.728963 -0
    outer loop
      vertex 2.22335 2.08787 3
      vertex 1.94414 2.35007 9
      vertex 2.22335 2.08787 9
    endloop
  endfacet
  facet normal 0.684553 0.728963 0
    outer loop
      vertex 1.94414 2.35007 9
      vertex 2.22335 2.08787 3
      vertex 1.94414 2.35007 3
    endloop
  endfacet
  facet normal 0.770517 0.63742 0
    outer loop
      vertex 2.4675 1.79274 9
      vertex 2.22335 2.08787 3
      vertex 2.22335 2.08787 9
    endloop
  endfacet
  facet normal 0.770517 0.63742 0
    outer loop
      vertex 2.22335 2.08787 3
      vertex 2.4675 1.79274 9
      vertex 2.4675 1.79274 3
    endloop
  endfacet
  facet normal 0 1 -0
    outer loop
      vertex 0.19151 3.04398 3
      vertex -0.19151 3.04398 9
      vertex 0.19151 3.04398 9
    endloop
  endfacet
  facet normal 0 1 0
    outer loop
      vertex -0.19151 3.04398 9
      vertex 0.19151 3.04398 3
      vertex -0.19151 3.04398 3
    endloop
  endfacet
  facet normal 0.481754 0.876306 -0
    outer loop
      vertex 1.63427 2.5752 3
      vertex 1.29863 2.75972 9
      vertex 1.63427 2.5752 9
    endloop
  endfacet
  facet normal 0.481754 0.876306 0
    outer loop
      vertex 1.29863 2.75972 9
      vertex 1.63427 2.5752 3
      vertex 1.29863 2.75972 3
    endloop
  endfacet
  facet normal 0 0 1
    outer loop
      vertex 1.7 0 9
      vertex 3.05 0 9
      vertex 3.02595 0.382266 9
    endloop
  endfacet
  facet normal 0 0 1
    outer loop
      vertex 1.68659 0.213066 9
      vertex 3.02595 0.382266 9
      vertex 2.95418 0.758504 9
    endloop
  endfacet
  facet normal 0 0 1
    outer loop
      vertex 3.05 0 9
      vertex 1.7 0 9
      vertex 3.02595 -0.382266 9
    endloop
  endfacet
  facet normal 0 0 1
    outer loop
      vertex 1.64659 0.422772 9
      vertex 2.95418 0.758504 9
      vertex 2.83582 1.12278 9
    endloop
  endfacet
  facet normal -0 0 1
    outer loop
      vertex 1.68659 -0.213066 9
      vertex 3.02595 -0.382266 9
      vertex 1.7 0 9
    endloop
  endfacet
  facet normal 0 0 1
    outer loop
      vertex 1.58062 0.625812 9
      vertex 2.83582 1.12278 9
      vertex 2.67274 1.46935 9
    endloop
  endfacet
  facet normal 0 0 1
    outer loop
      vertex 3.02595 -0.382266 9
      vertex 1.68659 -0.213066 9
      vertex 2.95418 -0.758504 9
    endloop
  endfacet
  facet normal 0 0 1
    outer loop
      vertex 1.48972 0.818981 9
      vertex 2.67274 1.46935 9
      vertex 2.4675 1.79274 9
    endloop
  endfacet
  facet normal -0 0 1
    outer loop
      vertex 1.64659 -0.422772 9
      vertex 2.95418 -0.758504 9
      vertex 1.68659 -0.213066 9
    endloop
  endfacet
  facet normal 0 0 1
    outer loop
      vertex 1.37533 0.999234 9
      vertex 2.4675 1.79274 9
      vertex 2.22335 2.08787 9
    endloop
  endfacet
  facet normal 0 0 1
    outer loop
      vertex 2.95418 -0.758504 9
      vertex 1.64659 -0.422772 9
      vertex 2.83582 -1.12278 9
    endloop
  endfacet
  facet normal 0 0 1
    outer loop
      vertex 1.23925 1.16373 9
      vertex 2.22335 2.08787 9
      vertex 1.94414 2.35007 9
    endloop
  endfacet
  facet normal -0 0 1
    outer loop
      vertex 1.58062 -0.625812 9
      vertex 2.83582 -1.12278 9
      vertex 1.64659 -0.422772 9
    endloop
  endfacet
  facet normal 0 0 1
    outer loop
      vertex 2.83582 -1.12278 9
      vertex 1.58062 -0.625812 9
      vertex 2.67274 -1.46935 9
    endloop
  endfacet
  facet normal 0 0 1
    outer loop
      vertex 3.02595 0.382266 9
      vertex 1.68659 0.213066 9
      vertex 1.7 0 9
    endloop
  endfacet
  facet normal 0 0 1
    outer loop
      vertex 2.95418 0.758504 9
      vertex 1.64659 0.422772 9
      vertex 1.68659 0.213066 9
    endloop
  endfacet
  facet normal 0 0 1
    outer loop
      vertex 1.08362 1.30987 9
      vertex 1.94414 2.35007 9
      vertex 1.63427 2.5752 9
    endloop
  endfacet
  facet normal 0 0 1
    outer loop
      vertex 2.83582 1.12278 9
      vertex 1.58062 0.625812 9
      vertex 1.64659 0.422772 9
    endloop
  endfacet
  facet normal 0 0 1
    outer loop
      vertex 2.67274 1.46935 9
      vertex 1.48972 0.818981 9
      vertex 1.58062 0.625812 9
    endloop
  endfacet
  facet normal 0 0 1
    outer loop
      vertex 2.4675 1.79274 9
      vertex 1.37533 0.999234 9
      vertex 1.48972 0.818981 9
    endloop
  endfacet
  facet normal 0 0 1
    outer loop
      vertex 0.910905 1.43536 9
      vertex 1.63427 2.5752 9
      vertex 1.29863 2.75972 9
    endloop
  endfacet
  facet normal 0 0 1
    outer loop
      vertex 2.22335 2.08787 9
      vertex 1.23925 1.16373 9
      vertex 1.37533 0.999234 9
    endloop
  endfacet
  facet normal 0 0 1
    outer loop
      vertex 1.94414 2.35007 9
      vertex 1.08362 1.30987 9
      vertex 1.23925 1.16373 9
    endloop
  endfacet
  facet normal 0 0 1
    outer loop
      vertex 0.723825 1.53821 9
      vertex 1.29863 2.75972 9
      vertex 0.942501 2.90072 9
    endloop
  endfacet
  facet normal 0 0 1
    outer loop
      vertex 1.63427 2.5752 9
      vertex 0.910905 1.43536 9
      vertex 1.08362 1.30987 9
    endloop
  endfacet
  facet normal 0 0 1
    outer loop
      vertex 1.29863 2.75972 9
      vertex 0.723825 1.53821 9
      vertex 0.910905 1.43536 9
    endloop
  endfacet
  facet normal 0 0 1
    outer loop
      vertex 0.525329 1.6168 9
      vertex 0.942501 2.90072 9
      vertex 0.571512 2.99598 9
    endloop
  endfacet
  facet normal 0 0 1
    outer loop
      vertex 0.942501 2.90072 9
      vertex 0.525329 1.6168 9
      vertex 0.723825 1.53821 9
    endloop
  endfacet
  facet normal 0 0 1
    outer loop
      vertex 0.571512 2.99598 9
      vertex 0.318548 1.66989 9
      vertex 0.525329 1.6168 9
    endloop
  endfacet
  facet normal 0 0 1
    outer loop
      vertex 0.19151 3.04398 9
      vertex 0.318548 1.66989 9
      vertex 0.571512 2.99598 9
    endloop
  endfacet
  facet normal 0 0 1
    outer loop
      vertex 0.19151 3.04398 9
      vertex 0.106744 1.69664 9
      vertex 0.318548 1.66989 9
    endloop
  endfacet
  facet normal 0 0 1
    outer loop
      vertex 0.19151 3.04398 9
      vertex -0.106744 1.69664 9
      vertex 0.106744 1.69664 9
    endloop
  endfacet
  facet normal -0 0 1
    outer loop
      vertex -0.19151 3.04398 9
      vertex -0.106744 1.69664 9
      vertex 0.19151 3.04398 9
    endloop
  endfacet
  facet normal 0 0 1
    outer loop
      vertex -0.19151 3.04398 9
      vertex -0.318548 1.66989 9
      vertex -0.106744 1.69664 9
    endloop
  endfacet
  facet normal -0 0 1
    outer loop
      vertex -0.571512 2.99598 9
      vertex -0.318548 1.66989 9
      vertex -0.19151 3.04398 9
    endloop
  endfacet
  facet normal 0 0 1
    outer loop
      vertex -0.318548 1.66989 9
      vertex -0.571512 2.99598 9
      vertex -0.525329 1.6168 9
    endloop
  endfacet
  facet normal -0 0 1
    outer loop
      vertex -0.942501 2.90072 9
      vertex -0.525329 1.6168 9
      vertex -0.571512 2.99598 9
    endloop
  endfacet
  facet normal 0 0 1
    outer loop
      vertex -0.525329 1.6168 9
      vertex -0.942501 2.90072 9
      vertex -0.723825 1.53821 9
    endloop
  endfacet
  facet normal -0 0 1
    outer loop
      vertex -1.29863 2.75972 9
      vertex -0.723825 1.53821 9
      vertex -0.942501 2.90072 9
    endloop
  endfacet
  facet normal 0 0 1
    outer loop
      vertex -0.723825 1.53821 9
      vertex -1.29863 2.75972 9
      vertex -0.910905 1.43536 9
    endloop
  endfacet
  facet normal -0 0 1
    outer loop
      vertex -1.63427 2.5752 9
      vertex -0.910905 1.43536 9
      vertex -1.29863 2.75972 9
    endloop
  endfacet
  facet normal 0 0 1
    outer loop
      vertex -0.910905 1.43536 9
      vertex -1.63427 2.5752 9
      vertex -1.08362 1.30987 9
    endloop
  endfacet
  facet normal -0 0 1
    outer loop
      vertex -1.94414 2.35007 9
      vertex -1.08362 1.30987 9
      vertex -1.63427 2.5752 9
    endloop
  endfacet
  facet normal 0 0 1
    outer loop
      vertex -1.08362 1.30987 9
      vertex -1.94414 2.35007 9
      vertex -1.23925 1.16373 9
    endloop
  endfacet
  facet normal -0 0 1
    outer loop
      vertex -2.22335 2.08787 9
      vertex -1.23925 1.16373 9
      vertex -1.94414 2.35007 9
    endloop
  endfacet
  facet normal 0 0 1
    outer loop
      vertex -1.23925 1.16373 9
      vertex -2.22335 2.08787 9
      vertex -1.37533 0.999234 9
    endloop
  endfacet
  facet normal -0 0 1
    outer loop
      vertex -2.4675 1.79274 9
      vertex -1.37533 0.999234 9
      vertex -2.22335 2.08787 9
    endloop
  endfacet
  facet normal 0 0 1
    outer loop
      vertex -1.37533 0.999234 9
      vertex -2.4675 1.79274 9
      vertex -1.48972 0.818981 9
    endloop
  endfacet
  facet normal -0 0 1
    outer loop
      vertex -2.67274 1.46935 9
      vertex -1.48972 0.818981 9
      vertex -2.4675 1.79274 9
    endloop
  endfacet
  facet normal 0 0 1
    outer loop
      vertex -1.48972 0.818981 9
      vertex -2.67274 1.46935 9
      vertex -1.58062 0.625812 9
    endloop
  endfacet
  facet normal -0 0 1
    outer loop
      vertex 1.48972 -0.818981 9
      vertex 2.67274 -1.46935 9
      vertex 1.58062 -0.625812 9
    endloop
  endfacet
  facet normal 0 0 1
    outer loop
      vertex 2.67274 -1.46935 9
      vertex 1.48972 -0.818981 9
      vertex 2.4675 -1.79274 9
    endloop
  endfacet
  facet normal -0 0 1
    outer loop
      vertex 1.37533 -0.999234 9
      vertex 2.4675 -1.79274 9
      vertex 1.48972 -0.818981 9
    endloop
  endfacet
  facet normal 0 0 1
    outer loop
      vertex 2.4675 -1.79274 9
      vertex 1.37533 -0.999234 9
      vertex 2.22335 -2.08787 9
    endloop
  endfacet
  facet normal -0 0 1
    outer loop
      vertex 1.23925 -1.16373 9
      vertex 2.22335 -2.08787 9
      vertex 1.37533 -0.999234 9
    endloop
  endfacet
  facet normal 0 0 1
    outer loop
      vertex 2.22335 -2.08787 9
      vertex 1.23925 -1.16373 9
      vertex 1.94414 -2.35007 9
    endloop
  endfacet
  facet normal -0 0 1
    outer loop
      vertex 1.08362 -1.30987 9
      vertex 1.94414 -2.35007 9
      vertex 1.23925 -1.16373 9
    endloop
  endfacet
  facet normal 0 0 1
    outer loop
      vertex 1.94414 -2.35007 9
      vertex 1.08362 -1.30987 9
      vertex 1.63427 -2.5752 9
    endloop
  endfacet
  facet normal -0 0 1
    outer loop
      vertex 0.910905 -1.43536 9
      vertex 1.63427 -2.5752 9
      vertex 1.08362 -1.30987 9
    endloop
  endfacet
  facet normal 0 0 1
    outer loop
      vertex 1.63427 -2.5752 9
      vertex 0.910905 -1.43536 9
      vertex 1.29863 -2.75972 9
    endloop
  endfacet
  facet normal -0 0 1
    outer loop
      vertex 0.723825 -1.53821 9
      vertex 1.29863 -2.75972 9
      vertex 0.910905 -1.43536 9
    endloop
  endfacet
  facet normal 0 0 1
    outer loop
      vertex 1.29863 -2.75972 9
      vertex 0.723825 -1.53821 9
      vertex 0.942501 -2.90072 9
    endloop
  endfacet
  facet normal -0 0 1
    outer loop
      vertex 0.525329 -1.6168 9
      vertex 0.942501 -2.90072 9
      vertex 0.723825 -1.53821 9
    endloop
  endfacet
  facet normal 0 0 1
    outer loop
      vertex 0.942501 -2.90072 9
      vertex 0.525329 -1.6168 9
      vertex 0.571512 -2.99598 9
    endloop
  endfacet
  facet normal -0 0 1
    outer loop
      vertex 0.318548 -1.66989 9
      vertex 0.571512 -2.99598 9
      vertex 0.525329 -1.6168 9
    endloop
  endfacet
  facet normal 0 0 1
    outer loop
      vertex 0.318548 -1.66989 9
      vertex 0.19151 -3.04398 9
      vertex 0.571512 -2.99598 9
    endloop
  endfacet
  facet normal -0 0 1
    outer loop
      vertex 0.106744 -1.69664 9
      vertex 0.19151 -3.04398 9
      vertex 0.318548 -1.66989 9
    endloop
  endfacet
  facet normal -0 0 1
    outer loop
      vertex -0.106744 -1.69664 9
      vertex 0.19151 -3.04398 9
      vertex 0.106744 -1.69664 9
    endloop
  endfacet
  facet normal 0 0 1
    outer loop
      vertex -0.106744 -1.69664 9
      vertex -0.19151 -3.04398 9
      vertex 0.19151 -3.04398 9
    endloop
  endfacet
  facet normal 0 0 1
    outer loop
      vertex -0.318548 -1.66989 9
      vertex -0.19151 -3.04398 9
      vertex -0.106744 -1.69664 9
    endloop
  endfacet
  facet normal 0 0 1
    outer loop
      vertex -0.571512 -2.99598 9
      vertex -0.318548 -1.66989 9
      vertex -0.525329 -1.6168 9
    endloop
  endfacet
  facet normal 0 0 1
    outer loop
      vertex -0.318548 -1.66989 9
      vertex -0.571512 -2.99598 9
      vertex -0.19151 -3.04398 9
    endloop
  endfacet
  facet normal 0 0 1
    outer loop
      vertex -0.942501 -2.90072 9
      vertex -0.525329 -1.6168 9
      vertex -0.723825 -1.53821 9
    endloop
  endfacet
  facet normal 0 0 1
    outer loop
      vertex -1.29863 -2.75972 9
      vertex -0.723825 -1.53821 9
      vertex -0.910905 -1.43536 9
    endloop
  endfacet
  facet normal 0 0 1
    outer loop
      vertex -0.525329 -1.6168 9
      vertex -0.942501 -2.90072 9
      vertex -0.571512 -2.99598 9
    endloop
  endfacet
  facet normal 0 0 1
    outer loop
      vertex -1.63427 -2.5752 9
      vertex -0.910905 -1.43536 9
      vertex -1.08362 -1.30987 9
    endloop
  endfacet
  facet normal 0 0 1
    outer loop
      vertex -1.94414 -2.35007 9
      vertex -1.08362 -1.30987 9
      vertex -1.23925 -1.16373 9
    endloop
  endfacet
  facet normal 0 0 1
    outer loop
      vertex -0.723825 -1.53821 9
      vertex -1.29863 -2.75972 9
      vertex -0.942501 -2.90072 9
    endloop
  endfacet
  facet normal 0 0 1
    outer loop
      vertex -2.22335 -2.08787 9
      vertex -1.23925 -1.16373 9
      vertex -1.37533 -0.999234 9
    endloop
  endfacet
  facet normal 0 0 1
    outer loop
      vertex -2.4675 -1.79274 9
      vertex -1.37533 -0.999234 9
      vertex -1.48972 -0.818981 9
    endloop
  endfacet
  facet normal 0 0 1
    outer loop
      vertex -2.67274 -1.46935 9
      vertex -1.48972 -0.818981 9
      vertex -1.58062 -0.625812 9
    endloop
  endfacet
  facet normal 0 0 1
    outer loop
      vertex -0.910905 -1.43536 9
      vertex -1.63427 -2.5752 9
      vertex -1.29863 -2.75972 9
    endloop
  endfacet
  facet normal 0 0 1
    outer loop
      vertex -2.83582 -1.12278 9
      vertex -1.58062 -0.625812 9
      vertex -1.64659 -0.422772 9
    endloop
  endfacet
  facet normal 0 0 1
    outer loop
      vertex -2.95418 -0.758504 9
      vertex -1.64659 -0.422772 9
      vertex -1.68659 -0.213066 9
    endloop
  endfacet
  facet normal 0 0 1
    outer loop
      vertex -3.02595 -0.382266 9
      vertex -1.68659 -0.213066 9
      vertex -1.7 0 9
    endloop
  endfacet
  facet normal -0 0 1
    outer loop
      vertex -2.83582 1.12278 9
      vertex -1.58062 0.625812 9
      vertex -2.67274 1.46935 9
    endloop
  endfacet
  facet normal 0 0 1
    outer loop
      vertex -1.08362 -1.30987 9
      vertex -1.94414 -2.35007 9
      vertex -1.63427 -2.5752 9
    endloop
  endfacet
  facet normal 0 0 1
    outer loop
      vertex -1.58062 0.625812 9
      vertex -2.83582 1.12278 9
      vertex -1.64659 0.422772 9
    endloop
  endfacet
  facet normal 0 0 1
    outer loop
      vertex -1.23925 -1.16373 9
      vertex -2.22335 -2.08787 9
      vertex -1.94414 -2.35007 9
    endloop
  endfacet
  facet normal -0 0 1
    outer loop
      vertex -2.95418 0.758504 9
      vertex -1.64659 0.422772 9
      vertex -2.83582 1.12278 9
    endloop
  endfacet
  facet normal 0 0 1
    outer loop
      vertex -1.37533 -0.999234 9
      vertex -2.4675 -1.79274 9
      vertex -2.22335 -2.08787 9
    endloop
  endfacet
  facet normal 0 0 1
    outer loop
      vertex -1.64659 0.422772 9
      vertex -2.95418 0.758504 9
      vertex -1.68659 0.213066 9
    endloop
  endfacet
  facet normal 0 0 1
    outer loop
      vertex -1.48972 -0.818981 9
      vertex -2.67274 -1.46935 9
      vertex -2.4675 -1.79274 9
    endloop
  endfacet
  facet normal -0 0 1
    outer loop
      vertex -3.02595 0.382266 9
      vertex -1.68659 0.213066 9
      vertex -2.95418 0.758504 9
    endloop
  endfacet
  facet normal 0 0 1
    outer loop
      vertex -1.58062 -0.625812 9
      vertex -2.83582 -1.12278 9
      vertex -2.67274 -1.46935 9
    endloop
  endfacet
  facet normal 0 0 1
    outer loop
      vertex -1.68659 0.213066 9
      vertex -3.02595 0.382266 9
      vertex -1.7 0 9
    endloop
  endfacet
  facet normal 0 0 1
    outer loop
      vertex -1.64659 -0.422772 9
      vertex -2.95418 -0.758504 9
      vertex -2.83582 -1.12278 9
    endloop
  endfacet
  facet normal 0 0 1
    outer loop
      vertex -3.05 0 9
      vertex -1.7 0 9
      vertex -3.02595 0.382266 9
    endloop
  endfacet
  facet normal 0 0 1
    outer loop
      vertex -1.68659 -0.213066 9
      vertex -3.02595 -0.382266 9
      vertex -2.95418 -0.758504 9
    endloop
  endfacet
  facet normal 0 0 1
    outer loop
      vertex -1.7 0 9
      vertex -3.05 0 9
      vertex -3.02595 -0.382266 9
    endloop
  endfacet
  facet normal -0.951057 0.309016 0
    outer loop
      vertex -2.95418 0.758504 3
      vertex -2.83582 1.12278 9
      vertex -2.83582 1.12278 3
    endloop
  endfacet
  facet normal -0.951057 0.309016 0
    outer loop
      vertex -2.83582 1.12278 9
      vertex -2.95418 0.758504 3
      vertex -2.95418 0.758504 9
    endloop
  endfacet
  facet normal -0.982288 0.187378 0
    outer loop
      vertex -3.02595 0.382266 3
      vertex -2.95418 0.758504 9
      vertex -2.95418 0.758504 3
    endloop
  endfacet
  facet normal -0.982288 0.187378 0
    outer loop
      vertex -2.95418 0.758504 9
      vertex -3.02595 0.382266 3
      vertex -3.02595 0.382266 9
    endloop
  endfacet
  facet normal -0.844316 0.535846 0
    outer loop
      vertex -2.67274 1.46935 3
      vertex -2.4675 1.79274 9
      vertex -2.4675 1.79274 3
    endloop
  endfacet
  facet normal -0.844316 0.535846 0
    outer loop
      vertex -2.4675 1.79274 9
      vertex -2.67274 1.46935 3
      vertex -2.67274 1.46935 9
    endloop
  endfacet
  facet normal -0.248705 0.968579 0
    outer loop
      vertex -0.571512 2.99598 3
      vertex -0.942501 2.90072 9
      vertex -0.571512 2.99598 9
    endloop
  endfacet
  facet normal -0.248705 0.968579 0
    outer loop
      vertex -0.942501 2.90072 9
      vertex -0.571512 2.99598 3
      vertex -0.942501 2.90072 3
    endloop
  endfacet
  facet normal -0.587779 0.809022 0
    outer loop
      vertex -1.63427 2.5752 3
      vertex -1.94414 2.35007 9
      vertex -1.63427 2.5752 9
    endloop
  endfacet
  facet normal -0.587779 0.809022 0
    outer loop
      vertex -1.94414 2.35007 9
      vertex -1.63427 2.5752 3
      vertex -1.94414 2.35007 3
    endloop
  endfacet
  facet normal -0.684553 0.728963 0
    outer loop
      vertex -1.94414 2.35007 3
      vertex -2.22335 2.08787 9
      vertex -1.94414 2.35007 9
    endloop
  endfacet
  facet normal -0.684553 0.728963 0
    outer loop
      vertex -2.22335 2.08787 9
      vertex -1.94414 2.35007 3
      vertex -2.22335 2.08787 3
    endloop
  endfacet
  facet normal 0.998027 0.0627902 0
    outer loop
      vertex 3.05 0 9
      vertex 3.02595 0.382266 3
      vertex 3.02595 0.382266 9
    endloop
  endfacet
  facet normal 0.998027 0.0627902 0
    outer loop
      vertex 3.02595 0.382266 3
      vertex 3.05 0 9
      vertex 3.05 0 3
    endloop
  endfacet
  facet normal 0.998027 -0.0627902 0
    outer loop
      vertex 3.02595 -0.382266 9
      vertex 3.05 0 3
      vertex 3.05 0 9
    endloop
  endfacet
  facet normal 0.998027 -0.0627902 0
    outer loop
      vertex 3.05 0 3
      vertex 3.02595 -0.382266 9
      vertex 3.02595 -0.382266 3
    endloop
  endfacet
  facet normal 0.982288 -0.187378 0
    outer loop
      vertex 2.95418 -0.758504 9
      vertex 3.02595 -0.382266 3
      vertex 3.02595 -0.382266 9
    endloop
  endfacet
  facet normal 0.982288 -0.187378 0
    outer loop
      vertex 3.02595 -0.382266 3
      vertex 2.95418 -0.758504 9
      vertex 2.95418 -0.758504 3
    endloop
  endfacet
  facet normal 0 -1 0
    outer loop
      vertex -0.19151 -3.04398 3
      vertex 0.19151 -3.04398 9
      vertex -0.19151 -3.04398 9
    endloop
  endfacet
  facet normal 0 -1 -0
    outer loop
      vertex 0.19151 -3.04398 9
      vertex -0.19151 -3.04398 3
      vertex 0.19151 -3.04398 3
    endloop
  endfacet
  facet normal -0.998027 -0.0627902 0
    outer loop
      vertex -3.02595 -0.382266 3
      vertex -3.05 0 9
      vertex -3.05 0 3
    endloop
  endfacet
  facet normal -0.998027 -0.0627902 0
    outer loop
      vertex -3.05 0 9
      vertex -3.02595 -0.382266 3
      vertex -3.02595 -0.382266 9
    endloop
  endfacet
  facet normal 0.125319 -0.992116 0
    outer loop
      vertex 0.19151 -3.04398 3
      vertex 0.571512 -2.99598 9
      vertex 0.19151 -3.04398 9
    endloop
  endfacet
  facet normal 0.125319 -0.992116 0
    outer loop
      vertex 0.571512 -2.99598 9
      vertex 0.19151 -3.04398 3
      vertex 0.571512 -2.99598 3
    endloop
  endfacet
  facet normal 0.904831 0.425772 0
    outer loop
      vertex 2.83582 1.12278 9
      vertex 2.67274 1.46935 3
      vertex 2.67274 1.46935 9
    endloop
  endfacet
  facet normal 0.904831 0.425772 0
    outer loop
      vertex 2.67274 1.46935 3
      vertex 2.83582 1.12278 9
      vertex 2.83582 1.12278 3
    endloop
  endfacet
  facet normal 0.951057 0.309016 0
    outer loop
      vertex 2.95418 0.758504 9
      vertex 2.83582 1.12278 3
      vertex 2.83582 1.12278 9
    endloop
  endfacet
  facet normal 0.951057 0.309016 0
    outer loop
      vertex 2.83582 1.12278 3
      vertex 2.95418 0.758504 9
      vertex 2.95418 0.758504 3
    endloop
  endfacet
  facet normal 0.982288 0.187378 0
    outer loop
      vertex 3.02595 0.382266 9
      vertex 2.95418 0.758504 3
      vertex 2.95418 0.758504 9
    endloop
  endfacet
  facet normal 0.982288 0.187378 0
    outer loop
      vertex 2.95418 0.758504 3
      vertex 3.02595 0.382266 9
      vertex 3.02595 0.382266 3
    endloop
  endfacet
  facet normal 0.125319 0.992116 -0
    outer loop
      vertex 0.571512 2.99598 3
      vertex 0.19151 3.04398 9
      vertex 0.571512 2.99598 9
    endloop
  endfacet
  facet normal 0.125319 0.992116 0
    outer loop
      vertex 0.19151 3.04398 9
      vertex 0.571512 2.99598 3
      vertex 0.19151 3.04398 3
    endloop
  endfacet
  facet normal 0.770517 -0.63742 0
    outer loop
      vertex 2.22335 -2.08787 9
      vertex 2.4675 -1.79274 3
      vertex 2.4675 -1.79274 9
    endloop
  endfacet
  facet normal 0.770517 -0.63742 0
    outer loop
      vertex 2.4675 -1.79274 3
      vertex 2.22335 -2.08787 9
      vertex 2.22335 -2.08787 3
    endloop
  endfacet
  facet normal 0.844316 -0.535846 0
    outer loop
      vertex 2.4675 -1.79274 9
      vertex 2.67274 -1.46935 3
      vertex 2.67274 -1.46935 9
    endloop
  endfacet
  facet normal 0.844316 -0.535846 0
    outer loop
      vertex 2.67274 -1.46935 3
      vertex 2.4675 -1.79274 9
      vertex 2.4675 -1.79274 3
    endloop
  endfacet
  facet normal 0.904831 -0.425772 0
    outer loop
      vertex 2.67274 -1.46935 9
      vertex 2.83582 -1.12278 3
      vertex 2.83582 -1.12278 9
    endloop
  endfacet
  facet normal 0.904831 -0.425772 0
    outer loop
      vertex 2.83582 -1.12278 3
      vertex 2.67274 -1.46935 9
      vertex 2.67274 -1.46935 3
    endloop
  endfacet
  facet normal -0.368121 -0.929778 0
    outer loop
      vertex -1.29863 -2.75972 3
      vertex -0.942501 -2.90072 9
      vertex -1.29863 -2.75972 9
    endloop
  endfacet
  facet normal -0.368121 -0.929778 -0
    outer loop
      vertex -0.942501 -2.90072 9
      vertex -1.29863 -2.75972 3
      vertex -0.942501 -2.90072 3
    endloop
  endfacet
  facet normal -0.770517 -0.63742 0
    outer loop
      vertex -2.22335 -2.08787 3
      vertex -2.4675 -1.79274 9
      vertex -2.4675 -1.79274 3
    endloop
  endfacet
  facet normal -0.770517 -0.63742 0
    outer loop
      vertex -2.4675 -1.79274 9
      vertex -2.22335 -2.08787 3
      vertex -2.22335 -2.08787 9
    endloop
  endfacet
  facet normal 0.368121 -0.929778 0
    outer loop
      vertex 0.942501 -2.90072 3
      vertex 1.29863 -2.75972 9
      vertex 0.942501 -2.90072 9
    endloop
  endfacet
  facet normal 0.368121 -0.929778 0
    outer loop
      vertex 1.29863 -2.75972 9
      vertex 0.942501 -2.90072 3
      vertex 1.29863 -2.75972 3
    endloop
  endfacet
  facet normal 0.248705 -0.968579 0
    outer loop
      vertex 0.571512 -2.99598 3
      vertex 0.942501 -2.90072 9
      vertex 0.571512 -2.99598 9
    endloop
  endfacet
  facet normal 0.248705 -0.968579 0
    outer loop
      vertex 0.942501 -2.90072 9
      vertex 0.571512 -2.99598 3
      vertex 0.942501 -2.90072 3
    endloop
  endfacet
  facet normal 0.481754 -0.876306 0
    outer loop
      vertex 1.29863 -2.75972 3
      vertex 1.63427 -2.5752 9
      vertex 1.29863 -2.75972 9
    endloop
  endfacet
  facet normal 0.481754 -0.876306 0
    outer loop
      vertex 1.63427 -2.5752 9
      vertex 1.29863 -2.75972 3
      vertex 1.63427 -2.5752 3
    endloop
  endfacet
  facet normal 0.684553 -0.728963 0
    outer loop
      vertex 1.94414 -2.35007 3
      vertex 2.22335 -2.08787 9
      vertex 1.94414 -2.35007 9
    endloop
  endfacet
  facet normal 0.684553 -0.728963 0
    outer loop
      vertex 2.22335 -2.08787 9
      vertex 1.94414 -2.35007 3
      vertex 2.22335 -2.08787 3
    endloop
  endfacet
  facet normal 0.587779 -0.809022 0
    outer loop
      vertex 1.63427 -2.5752 3
      vertex 1.94414 -2.35007 9
      vertex 1.63427 -2.5752 9
    endloop
  endfacet
  facet normal 0.587779 -0.809022 0
    outer loop
      vertex 1.94414 -2.35007 9
      vertex 1.63427 -2.5752 3
      vertex 1.94414 -2.35007 3
    endloop
  endfacet
  facet normal 0.951057 -0.309016 0
    outer loop
      vertex 2.83582 -1.12278 9
      vertex 2.95418 -0.758504 3
      vertex 2.95418 -0.758504 9
    endloop
  endfacet
  facet normal 0.951057 -0.309016 0
    outer loop
      vertex 2.95418 -0.758504 3
      vertex 2.83582 -1.12278 9
      vertex 2.83582 -1.12278 3
    endloop
  endfacet
  facet normal -0.587779 -0.809022 0
    outer loop
      vertex -1.94414 -2.35007 3
      vertex -1.63427 -2.5752 9
      vertex -1.94414 -2.35007 9
    endloop
  endfacet
  facet normal -0.587779 -0.809022 -0
    outer loop
      vertex -1.63427 -2.5752 9
      vertex -1.94414 -2.35007 3
      vertex -1.63427 -2.5752 3
    endloop
  endfacet
  facet normal -0.248705 -0.968579 0
    outer loop
      vertex -0.942501 -2.90072 3
      vertex -0.571512 -2.99598 9
      vertex -0.942501 -2.90072 9
    endloop
  endfacet
  facet normal -0.248705 -0.968579 -0
    outer loop
      vertex -0.571512 -2.99598 9
      vertex -0.942501 -2.90072 3
      vertex -0.571512 -2.99598 3
    endloop
  endfacet
  facet normal -0.125319 -0.992116 0
    outer loop
      vertex -0.571512 -2.99598 3
      vertex -0.19151 -3.04398 9
      vertex -0.571512 -2.99598 9
    endloop
  endfacet
  facet normal -0.125319 -0.992116 -0
    outer loop
      vertex -0.19151 -3.04398 9
      vertex -0.571512 -2.99598 3
      vertex -0.19151 -3.04398 3
    endloop
  endfacet
  facet normal -0.844316 -0.535846 0
    outer loop
      vertex -2.4675 -1.79274 3
      vertex -2.67274 -1.46935 9
      vertex -2.67274 -1.46935 3
    endloop
  endfacet
  facet normal -0.844316 -0.535846 0
    outer loop
      vertex -2.67274 -1.46935 9
      vertex -2.4675 -1.79274 3
      vertex -2.4675 -1.79274 9
    endloop
  endfacet
  facet normal -0.951057 -0.309016 0
    outer loop
      vertex -2.83582 -1.12278 3
      vertex -2.95418 -0.758504 9
      vertex -2.95418 -0.758504 3
    endloop
  endfacet
  facet normal -0.951057 -0.309016 0
    outer loop
      vertex -2.95418 -0.758504 9
      vertex -2.83582 -1.12278 3
      vertex -2.83582 -1.12278 9
    endloop
  endfacet
  facet normal -0.982288 -0.187378 0
    outer loop
      vertex -2.95418 -0.758504 3
      vertex -3.02595 -0.382266 9
      vertex -3.02595 -0.382266 3
    endloop
  endfacet
  facet normal -0.982288 -0.187378 0
    outer loop
      vertex -3.02595 -0.382266 9
      vertex -2.95418 -0.758504 3
      vertex -2.95418 -0.758504 9
    endloop
  endfacet
  facet normal -0.904831 -0.425772 0
    outer loop
      vertex -2.67274 -1.46935 3
      vertex -2.83582 -1.12278 9
      vertex -2.83582 -1.12278 3
    endloop
  endfacet
  facet normal -0.904831 -0.425772 0
    outer loop
      vertex -2.83582 -1.12278 9
      vertex -2.67274 -1.46935 3
      vertex -2.67274 -1.46935 9
    endloop
  endfacet
  facet normal -0.481754 -0.876306 0
    outer loop
      vertex -1.63427 -2.5752 3
      vertex -1.29863 -2.75972 9
      vertex -1.63427 -2.5752 9
    endloop
  endfacet
  facet normal -0.481754 -0.876306 -0
    outer loop
      vertex -1.29863 -2.75972 9
      vertex -1.63427 -2.5752 3
      vertex -1.29863 -2.75972 3
    endloop
  endfacet
  facet normal -0.684553 -0.728963 0
    outer loop
      vertex -2.22335 -2.08787 3
      vertex -1.94414 -2.35007 9
      vertex -2.22335 -2.08787 9
    endloop
  endfacet
  facet normal -0.684553 -0.728963 -0
    outer loop
      vertex -1.94414 -2.35007 9
      vertex -2.22335 -2.08787 3
      vertex -1.94414 -2.35007 3
    endloop
  endfacet
  facet normal -0.998025 -0.062814 0
    outer loop
      vertex 1.7 0 0
      vertex 1.68659 0.213066 9
      vertex 1.68659 0.213066 0
    endloop
  endfacet
  facet normal -0.998025 -0.062814 0
    outer loop
      vertex 1.68659 0.213066 9
      vertex 1.7 0 0
      vertex 1.7 0 9
    endloop
  endfacet
  facet normal 0.998025 -0.062814 0
    outer loop
      vertex -1.7 0 9
      vertex -1.68659 0.213066 0
      vertex -1.68659 0.213066 9
    endloop
  endfacet
  facet normal 0.998025 -0.062814 0
    outer loop
      vertex -1.68659 0.213066 0
      vertex -1.7 0 9
      vertex -1.7 0 0
    endloop
  endfacet
  facet normal 0 -1 0
    outer loop
      vertex -0.106744 1.69664 0
      vertex 0.106744 1.69664 9
      vertex -0.106744 1.69664 9
    endloop
  endfacet
  facet normal 0 -1 -0
    outer loop
      vertex 0.106744 1.69664 9
      vertex -0.106744 1.69664 0
      vertex 0.106744 1.69664 0
    endloop
  endfacet
  facet normal 0 1 -0
    outer loop
      vertex 0.106744 -1.69664 0
      vertex -0.106744 -1.69664 9
      vertex 0.106744 -1.69664 9
    endloop
  endfacet
  facet normal 0 1 0
    outer loop
      vertex -0.106744 -1.69664 9
      vertex 0.106744 -1.69664 0
      vertex -0.106744 -1.69664 0
    endloop
  endfacet
  facet normal -0.684531 -0.728983 0
    outer loop
      vertex 1.08362 1.30987 0
      vertex 1.23925 1.16373 9
      vertex 1.08362 1.30987 9
    endloop
  endfacet
  facet normal -0.684531 -0.728983 -0
    outer loop
      vertex 1.23925 1.16373 9
      vertex 1.08362 1.30987 0
      vertex 1.23925 1.16373 0
    endloop
  endfacet
  facet normal 0.684531 -0.728983 0
    outer loop
      vertex -1.23925 1.16373 0
      vertex -1.08362 1.30987 9
      vertex -1.23925 1.16373 9
    endloop
  endfacet
  facet normal 0.684531 -0.728983 0
    outer loop
      vertex -1.08362 1.30987 9
      vertex -1.23925 1.16373 0
      vertex -1.08362 1.30987 0
    endloop
  endfacet
  facet normal 0.368124 -0.929777 0
    outer loop
      vertex -0.723825 1.53821 0
      vertex -0.525329 1.6168 9
      vertex -0.723825 1.53821 9
    endloop
  endfacet
  facet normal 0.368124 -0.929777 0
    outer loop
      vertex -0.525329 1.6168 9
      vertex -0.723825 1.53821 0
      vertex -0.525329 1.6168 0
    endloop
  endfacet
  facet normal -0.904824 -0.425785 0
    outer loop
      vertex 1.58062 0.625812 0
      vertex 1.48972 0.818981 9
      vertex 1.48972 0.818981 0
    endloop
  endfacet
  facet normal -0.904824 -0.425785 0
    outer loop
      vertex 1.48972 0.818981 9
      vertex 1.58062 0.625812 0
      vertex 1.58062 0.625812 9
    endloop
  endfacet
  facet normal -0.368124 -0.929777 0
    outer loop
      vertex 0.525329 1.6168 0
      vertex 0.723825 1.53821 9
      vertex 0.525329 1.6168 9
    endloop
  endfacet
  facet normal -0.368124 -0.929777 -0
    outer loop
      vertex 0.723825 1.53821 9
      vertex 0.525329 1.6168 0
      vertex 0.723825 1.53821 0
    endloop
  endfacet
  facet normal -0.587801 -0.809005 0
    outer loop
      vertex 0.910905 1.43536 0
      vertex 1.08362 1.30987 9
      vertex 0.910905 1.43536 9
    endloop
  endfacet
  facet normal -0.587801 -0.809005 -0
    outer loop
      vertex 1.08362 1.30987 9
      vertex 0.910905 1.43536 0
      vertex 1.08362 1.30987 0
    endloop
  endfacet
  facet normal 0.904824 -0.425785 0
    outer loop
      vertex -1.58062 0.625812 9
      vertex -1.48972 0.818981 0
      vertex -1.48972 0.818981 9
    endloop
  endfacet
  facet normal 0.904824 -0.425785 0
    outer loop
      vertex -1.48972 0.818981 0
      vertex -1.58062 0.625812 9
      vertex -1.58062 0.625812 0
    endloop
  endfacet
  facet normal 0.481761 -0.876303 0
    outer loop
      vertex -0.910905 1.43536 0
      vertex -0.723825 1.53821 9
      vertex -0.910905 1.43536 9
    endloop
  endfacet
  facet normal 0.481761 -0.876303 0
    outer loop
      vertex -0.723825 1.53821 9
      vertex -0.910905 1.43536 0
      vertex -0.723825 1.53821 0
    endloop
  endfacet
  facet normal 0.24868 -0.968586 0
    outer loop
      vertex -0.525329 1.6168 0
      vertex -0.318548 1.66989 9
      vertex -0.525329 1.6168 9
    endloop
  endfacet
  facet normal 0.24868 -0.968586 0
    outer loop
      vertex -0.318548 1.66989 9
      vertex -0.525329 1.6168 0
      vertex -0.318548 1.66989 0
    endloop
  endfacet
  facet normal -0.951059 -0.30901 0
    outer loop
      vertex 1.64659 0.422772 0
      vertex 1.58062 0.625812 9
      vertex 1.58062 0.625812 0
    endloop
  endfacet
  facet normal -0.951059 -0.30901 0
    outer loop
      vertex 1.58062 0.625812 9
      vertex 1.64659 0.422772 0
      vertex 1.64659 0.422772 9
    endloop
  endfacet
  facet normal -0.98229 -0.187365 0
    outer loop
      vertex 1.68659 0.213066 0
      vertex 1.64659 0.422772 9
      vertex 1.64659 0.422772 0
    endloop
  endfacet
  facet normal -0.98229 -0.187365 0
    outer loop
      vertex 1.64659 0.422772 9
      vertex 1.68659 0.213066 0
      vertex 1.68659 0.213066 9
    endloop
  endfacet
  facet normal -0.77052 -0.637416 0
    outer loop
      vertex 1.37533 0.999234 0
      vertex 1.23925 1.16373 9
      vertex 1.23925 1.16373 0
    endloop
  endfacet
  facet normal -0.77052 -0.637416 0
    outer loop
      vertex 1.23925 1.16373 9
      vertex 1.37533 0.999234 0
      vertex 1.37533 0.999234 9
    endloop
  endfacet
  facet normal -0.844332 -0.53582 0
    outer loop
      vertex 1.48972 0.818981 0
      vertex 1.37533 0.999234 9
      vertex 1.37533 0.999234 0
    endloop
  endfacet
  facet normal -0.844332 -0.53582 0
    outer loop
      vertex 1.37533 0.999234 9
      vertex 1.48972 0.818981 0
      vertex 1.48972 0.818981 9
    endloop
  endfacet
  facet normal -0.24868 -0.968586 0
    outer loop
      vertex 0.318548 1.66989 0
      vertex 0.525329 1.6168 9
      vertex 0.318548 1.66989 9
    endloop
  endfacet
  facet normal -0.24868 -0.968586 -0
    outer loop
      vertex 0.525329 1.6168 9
      vertex 0.318548 1.66989 0
      vertex 0.525329 1.6168 0
    endloop
  endfacet
  facet normal -0.125301 -0.992119 0
    outer loop
      vertex 0.106744 1.69664 0
      vertex 0.318548 1.66989 9
      vertex 0.106744 1.69664 9
    endloop
  endfacet
  facet normal -0.125301 -0.992119 -0
    outer loop
      vertex 0.318548 1.66989 9
      vertex 0.106744 1.69664 0
      vertex 0.318548 1.66989 0
    endloop
  endfacet
  facet normal -0.481761 -0.876303 0
    outer loop
      vertex 0.723825 1.53821 0
      vertex 0.910905 1.43536 9
      vertex 0.723825 1.53821 9
    endloop
  endfacet
  facet normal -0.481761 -0.876303 -0
    outer loop
      vertex 0.910905 1.43536 9
      vertex 0.723825 1.53821 0
      vertex 0.910905 1.43536 0
    endloop
  endfacet
  facet normal 0.844332 -0.53582 0
    outer loop
      vertex -1.48972 0.818981 9
      vertex -1.37533 0.999234 0
      vertex -1.37533 0.999234 9
    endloop
  endfacet
  facet normal 0.844332 -0.53582 0
    outer loop
      vertex -1.37533 0.999234 0
      vertex -1.48972 0.818981 9
      vertex -1.48972 0.818981 0
    endloop
  endfacet
  facet normal 0.77052 -0.637416 0
    outer loop
      vertex -1.37533 0.999234 9
      vertex -1.23925 1.16373 0
      vertex -1.23925 1.16373 9
    endloop
  endfacet
  facet normal 0.77052 -0.637416 0
    outer loop
      vertex -1.23925 1.16373 0
      vertex -1.37533 0.999234 9
      vertex -1.37533 0.999234 0
    endloop
  endfacet
  facet normal 0.951059 -0.30901 0
    outer loop
      vertex -1.64659 0.422772 9
      vertex -1.58062 0.625812 0
      vertex -1.58062 0.625812 9
    endloop
  endfacet
  facet normal 0.951059 -0.30901 0
    outer loop
      vertex -1.58062 0.625812 0
      vertex -1.64659 0.422772 9
      vertex -1.64659 0.422772 0
    endloop
  endfacet
  facet normal 0.98229 -0.187365 0
    outer loop
      vertex -1.68659 0.213066 9
      vertex -1.64659 0.422772 0
      vertex -1.64659 0.422772 9
    endloop
  endfacet
  facet normal 0.98229 -0.187365 0
    outer loop
      vertex -1.64659 0.422772 0
      vertex -1.68659 0.213066 9
      vertex -1.68659 0.213066 0
    endloop
  endfacet
  facet normal 0.587801 -0.809005 0
    outer loop
      vertex -1.08362 1.30987 0
      vertex -0.910905 1.43536 9
      vertex -1.08362 1.30987 9
    endloop
  endfacet
  facet normal 0.587801 -0.809005 0
    outer loop
      vertex -0.910905 1.43536 9
      vertex -1.08362 1.30987 0
      vertex -0.910905 1.43536 0
    endloop
  endfacet
  facet normal 0.125301 -0.992119 0
    outer loop
      vertex -0.318548 1.66989 0
      vertex -0.106744 1.69664 9
      vertex -0.318548 1.66989 9
    endloop
  endfacet
  facet normal 0.125301 -0.992119 0
    outer loop
      vertex -0.106744 1.69664 9
      vertex -0.318548 1.66989 0
      vertex -0.106744 1.69664 0
    endloop
  endfacet
  facet normal -0.998025 0.062814 0
    outer loop
      vertex 1.68659 -0.213066 0
      vertex 1.7 0 9
      vertex 1.7 0 0
    endloop
  endfacet
  facet normal -0.998025 0.062814 0
    outer loop
      vertex 1.7 0 9
      vertex 1.68659 -0.213066 0
      vertex 1.68659 -0.213066 9
    endloop
  endfacet
  facet normal 0.904824 0.425785 0
    outer loop
      vertex -1.48972 -0.818981 9
      vertex -1.58062 -0.625812 0
      vertex -1.58062 -0.625812 9
    endloop
  endfacet
  facet normal 0.904824 0.425785 0
    outer loop
      vertex -1.58062 -0.625812 0
      vertex -1.48972 -0.818981 9
      vertex -1.48972 -0.818981 0
    endloop
  endfacet
  facet normal 0.844332 0.53582 0
    outer loop
      vertex -1.37533 -0.999234 9
      vertex -1.48972 -0.818981 0
      vertex -1.48972 -0.818981 9
    endloop
  endfacet
  facet normal 0.844332 0.53582 0
    outer loop
      vertex -1.48972 -0.818981 0
      vertex -1.37533 -0.999234 9
      vertex -1.37533 -0.999234 0
    endloop
  endfacet
  facet normal -0.481761 0.876303 0
    outer loop
      vertex 0.910905 -1.43536 0
      vertex 0.723825 -1.53821 9
      vertex 0.910905 -1.43536 9
    endloop
  endfacet
  facet normal -0.481761 0.876303 0
    outer loop
      vertex 0.723825 -1.53821 9
      vertex 0.910905 -1.43536 0
      vertex 0.723825 -1.53821 0
    endloop
  endfacet
  facet normal -0.904824 0.425785 0
    outer loop
      vertex 1.48972 -0.818981 0
      vertex 1.58062 -0.625812 9
      vertex 1.58062 -0.625812 0
    endloop
  endfacet
  facet normal -0.904824 0.425785 0
    outer loop
      vertex 1.58062 -0.625812 9
      vertex 1.48972 -0.818981 0
      vertex 1.48972 -0.818981 9
    endloop
  endfacet
  facet normal 0.77052 0.637416 0
    outer loop
      vertex -1.23925 -1.16373 9
      vertex -1.37533 -0.999234 0
      vertex -1.37533 -0.999234 9
    endloop
  endfacet
  facet normal 0.77052 0.637416 0
    outer loop
      vertex -1.37533 -0.999234 0
      vertex -1.23925 -1.16373 9
      vertex -1.23925 -1.16373 0
    endloop
  endfacet
  facet normal 0.98229 0.187365 0
    outer loop
      vertex -1.64659 -0.422772 9
      vertex -1.68659 -0.213066 0
      vertex -1.68659 -0.213066 9
    endloop
  endfacet
  facet normal 0.98229 0.187365 0
    outer loop
      vertex -1.68659 -0.213066 0
      vertex -1.64659 -0.422772 9
      vertex -1.64659 -0.422772 0
    endloop
  endfacet
  facet normal 0.998025 0.062814 0
    outer loop
      vertex -1.68659 -0.213066 9
      vertex -1.7 0 0
      vertex -1.7 0 9
    endloop
  endfacet
  facet normal 0.998025 0.062814 0
    outer loop
      vertex -1.7 0 0
      vertex -1.68659 -0.213066 9
      vertex -1.68659 -0.213066 0
    endloop
  endfacet
  facet normal 0.951059 0.30901 0
    outer loop
      vertex -1.58062 -0.625812 9
      vertex -1.64659 -0.422772 0
      vertex -1.64659 -0.422772 9
    endloop
  endfacet
  facet normal 0.951059 0.30901 0
    outer loop
      vertex -1.64659 -0.422772 0
      vertex -1.58062 -0.625812 9
      vertex -1.58062 -0.625812 0
    endloop
  endfacet
  facet normal -0.368124 0.929777 0
    outer loop
      vertex 0.723825 -1.53821 0
      vertex 0.525329 -1.6168 9
      vertex 0.723825 -1.53821 9
    endloop
  endfacet
  facet normal -0.368124 0.929777 0
    outer loop
      vertex 0.525329 -1.6168 9
      vertex 0.723825 -1.53821 0
      vertex 0.525329 -1.6168 0
    endloop
  endfacet
  facet normal -0.24868 0.968586 0
    outer loop
      vertex 0.525329 -1.6168 0
      vertex 0.318548 -1.66989 9
      vertex 0.525329 -1.6168 9
    endloop
  endfacet
  facet normal -0.24868 0.968586 0
    outer loop
      vertex 0.318548 -1.66989 9
      vertex 0.525329 -1.6168 0
      vertex 0.318548 -1.66989 0
    endloop
  endfacet
  facet normal -0.125301 0.992119 0
    outer loop
      vertex 0.318548 -1.66989 0
      vertex 0.106744 -1.69664 9
      vertex 0.318548 -1.66989 9
    endloop
  endfacet
  facet normal -0.125301 0.992119 0
    outer loop
      vertex 0.106744 -1.69664 9
      vertex 0.318548 -1.66989 0
      vertex 0.106744 -1.69664 0
    endloop
  endfacet
  facet normal -0.587801 0.809005 0
    outer loop
      vertex 1.08362 -1.30987 0
      vertex 0.910905 -1.43536 9
      vertex 1.08362 -1.30987 9
    endloop
  endfacet
  facet normal -0.587801 0.809005 0
    outer loop
      vertex 0.910905 -1.43536 9
      vertex 1.08362 -1.30987 0
      vertex 0.910905 -1.43536 0
    endloop
  endfacet
  facet normal -0.98229 0.187365 0
    outer loop
      vertex 1.64659 -0.422772 0
      vertex 1.68659 -0.213066 9
      vertex 1.68659 -0.213066 0
    endloop
  endfacet
  facet normal -0.98229 0.187365 0
    outer loop
      vertex 1.68659 -0.213066 9
      vertex 1.64659 -0.422772 0
      vertex 1.64659 -0.422772 9
    endloop
  endfacet
  facet normal -0.951059 0.30901 0
    outer loop
      vertex 1.58062 -0.625812 0
      vertex 1.64659 -0.422772 9
      vertex 1.64659 -0.422772 0
    endloop
  endfacet
  facet normal -0.951059 0.30901 0
    outer loop
      vertex 1.64659 -0.422772 9
      vertex 1.58062 -0.625812 0
      vertex 1.58062 -0.625812 9
    endloop
  endfacet
  facet normal 0.368124 0.929777 -0
    outer loop
      vertex -0.525329 -1.6168 0
      vertex -0.723825 -1.53821 9
      vertex -0.525329 -1.6168 9
    endloop
  endfacet
  facet normal 0.368124 0.929777 0
    outer loop
      vertex -0.723825 -1.53821 9
      vertex -0.525329 -1.6168 0
      vertex -0.723825 -1.53821 0
    endloop
  endfacet
  facet normal 0.24868 0.968586 -0
    outer loop
      vertex -0.318548 -1.66989 0
      vertex -0.525329 -1.6168 9
      vertex -0.318548 -1.66989 9
    endloop
  endfacet
  facet normal 0.24868 0.968586 0
    outer loop
      vertex -0.525329 -1.6168 9
      vertex -0.318548 -1.66989 0
      vertex -0.525329 -1.6168 0
    endloop
  endfacet
  facet normal -0.844332 0.53582 0
    outer loop
      vertex 1.37533 -0.999234 0
      vertex 1.48972 -0.818981 9
      vertex 1.48972 -0.818981 0
    endloop
  endfacet
  facet normal -0.844332 0.53582 0
    outer loop
      vertex 1.48972 -0.818981 9
      vertex 1.37533 -0.999234 0
      vertex 1.37533 -0.999234 9
    endloop
  endfacet
  facet normal -0.77052 0.637416 0
    outer loop
      vertex 1.23925 -1.16373 0
      vertex 1.37533 -0.999234 9
      vertex 1.37533 -0.999234 0
    endloop
  endfacet
  facet normal -0.77052 0.637416 0
    outer loop
      vertex 1.37533 -0.999234 9
      vertex 1.23925 -1.16373 0
      vertex 1.23925 -1.16373 9
    endloop
  endfacet
  facet normal -0.684531 0.728983 0
    outer loop
      vertex 1.23925 -1.16373 0
      vertex 1.08362 -1.30987 9
      vertex 1.23925 -1.16373 9
    endloop
  endfacet
  facet normal -0.684531 0.728983 0
    outer loop
      vertex 1.08362 -1.30987 9
      vertex 1.23925 -1.16373 0
      vertex 1.08362 -1.30987 0
    endloop
  endfacet
  facet normal 0.481761 0.876303 -0
    outer loop
      vertex -0.723825 -1.53821 0
      vertex -0.910905 -1.43536 9
      vertex -0.723825 -1.53821 9
    endloop
  endfacet
  facet normal 0.481761 0.876303 0
    outer loop
      vertex -0.910905 -1.43536 9
      vertex -0.723825 -1.53821 0
      vertex -0.910905 -1.43536 0
    endloop
  endfacet
  facet normal 0.125301 0.992119 -0
    outer loop
      vertex -0.106744 -1.69664 0
      vertex -0.318548 -1.66989 9
      vertex -0.106744 -1.69664 9
    endloop
  endfacet
  facet normal 0.125301 0.992119 0
    outer loop
      vertex -0.318548 -1.66989 9
      vertex -0.106744 -1.69664 0
      vertex -0.318548 -1.66989 0
    endloop
  endfacet
  facet normal 0.587801 0.809005 -0
    outer loop
      vertex -0.910905 -1.43536 0
      vertex -1.08362 -1.30987 9
      vertex -0.910905 -1.43536 9
    endloop
  endfacet
  facet normal 0.587801 0.809005 0
    outer loop
      vertex -1.08362 -1.30987 9
      vertex -0.910905 -1.43536 0
      vertex -1.08362 -1.30987 0
    endloop
  endfacet
  facet normal 0.684531 0.728983 -0
    outer loop
      vertex -1.08362 -1.30987 0
      vertex -1.23925 -1.16373 9
      vertex -1.08362 -1.30987 9
    endloop
  endfacet
  facet normal 0.684531 0.728983 0
    outer loop
      vertex -1.23925 -1.16373 9
      vertex -1.08362 -1.30987 0
      vertex -1.23925 -1.16373 0
    endloop
  endfacet
endsolid OpenSCAD_Model
