solid OpenSCAD_Model
  facet normal -0.998031 -0.0627242 0
    outer loop
      vertex -11.75 0 -1.5
      vertex -11.7756 0.407332 1.5
      vertex -11.7756 0.407332 -1.5
    endloop
  endfacet
  facet normal -0.998031 -0.0627242 0
    outer loop
      vertex -11.7756 0.407332 1.5
      vertex -11.75 0 -1.5
      vertex -11.75 0 1.5
    endloop
  endfacet
  facet normal 0.998031 -0.0627242 0
    outer loop
      vertex -18.25 0 1.5
      vertex -18.2244 0.407332 -1.5
      vertex -18.2244 0.407332 1.5
    endloop
  endfacet
  facet normal 0.998031 -0.0627242 0
    outer loop
      vertex -18.2244 0.407332 -1.5
      vertex -18.25 0 1.5
      vertex -18.25 0 -1.5
    endloop
  endfacet
  facet normal 0 -1 0
    outer loop
      vertex -15.2041 3.24359 -1.5
      vertex -14.7959 3.24359 1.5
      vertex -15.2041 3.24359 1.5
    endloop
  endfacet
  facet normal 0 -1 -0
    outer loop
      vertex -14.7959 3.24359 1.5
      vertex -15.2041 3.24359 -1.5
      vertex -14.7959 3.24359 -1.5
    endloop
  endfacet
  facet normal 0 1 -0
    outer loop
      vertex -14.7959 -3.24359 -1.5
      vertex -15.2041 -3.24359 1.5
      vertex -14.7959 -3.24359 1.5
    endloop
  endfacet
  facet normal 0 1 0
    outer loop
      vertex -15.2041 -3.24359 1.5
      vertex -14.7959 -3.24359 -1.5
      vertex -15.2041 -3.24359 -1.5
    endloop
  endfacet
  facet normal -0.684572 -0.728946 0
    outer loop
      vertex -12.9284 2.50417 -1.5
      vertex -12.6309 2.22478 1.5
      vertex -12.9284 2.50417 1.5
    endloop
  endfacet
  facet normal -0.684572 -0.728946 -0
    outer loop
      vertex -12.6309 2.22478 1.5
      vertex -12.9284 2.50417 -1.5
      vertex -12.6309 2.22478 -1.5
    endloop
  endfacet
  facet normal 0.684572 -0.728946 0
    outer loop
      vertex -17.3691 2.22478 -1.5
      vertex -17.0716 2.50417 1.5
      vertex -17.3691 2.22478 1.5
    endloop
  endfacet
  facet normal 0.684572 -0.728946 0
    outer loop
      vertex -17.0716 2.50417 1.5
      vertex -17.3691 2.22478 -1.5
      vertex -17.0716 2.50417 -1.5
    endloop
  endfacet
  facet normal 0.368093 -0.929789 0
    outer loop
      vertex -16.3838 2.94069 -1.5
      vertex -16.0043 3.09093 1.5
      vertex -16.3838 2.94069 1.5
    endloop
  endfacet
  facet normal 0.368093 -0.929789 0
    outer loop
      vertex -16.0043 3.09093 1.5
      vertex -16.3838 2.94069 -1.5
      vertex -16.0043 3.09093 -1.5
    endloop
  endfacet
  facet normal -0.904808 -0.425821 0
    outer loop
      vertex -11.9782 1.1964 -1.5
      vertex -12.152 1.5657 1.5
      vertex -12.152 1.5657 -1.5
    endloop
  endfacet
  facet normal -0.904808 -0.425821 0
    outer loop
      vertex -12.152 1.5657 1.5
      vertex -11.9782 1.1964 -1.5
      vertex -11.9782 1.1964 1.5
    endloop
  endfacet
  facet normal -0.844317 -0.535845 0
    outer loop
      vertex -12.152 1.5657 -1.5
      vertex -12.3707 1.9103 1.5
      vertex -12.3707 1.9103 -1.5
    endloop
  endfacet
  facet normal -0.844317 -0.535845 0
    outer loop
      vertex -12.3707 1.9103 1.5
      vertex -12.152 1.5657 -1.5
      vertex -12.152 1.5657 1.5
    endloop
  endfacet
  facet normal -0.368093 -0.929789 0
    outer loop
      vertex -13.9957 3.09093 -1.5
      vertex -13.6162 2.94069 1.5
      vertex -13.9957 3.09093 1.5
    endloop
  endfacet
  facet normal -0.368093 -0.929789 -0
    outer loop
      vertex -13.6162 2.94069 1.5
      vertex -13.9957 3.09093 -1.5
      vertex -13.6162 2.94069 -1.5
    endloop
  endfacet
  facet normal -0.2487 -0.968581 0
    outer loop
      vertex -14.391 3.19243 -1.5
      vertex -13.9957 3.09093 1.5
      vertex -14.391 3.19243 1.5
    endloop
  endfacet
  facet normal -0.2487 -0.968581 -0
    outer loop
      vertex -13.9957 3.09093 1.5
      vertex -14.391 3.19243 -1.5
      vertex -13.9957 3.09093 -1.5
    endloop
  endfacet
  facet normal -0.587778 -0.809022 0
    outer loop
      vertex -13.2586 2.74407 -1.5
      vertex -12.9284 2.50417 1.5
      vertex -13.2586 2.74407 1.5
    endloop
  endfacet
  facet normal -0.587778 -0.809022 -0
    outer loop
      vertex -12.9284 2.50417 1.5
      vertex -13.2586 2.74407 -1.5
      vertex -12.9284 2.50417 -1.5
    endloop
  endfacet
  facet normal 0.904808 -0.425821 0
    outer loop
      vertex -18.0218 1.1964 1.5
      vertex -17.848 1.5657 -1.5
      vertex -17.848 1.5657 1.5
    endloop
  endfacet
  facet normal 0.904808 -0.425821 0
    outer loop
      vertex -17.848 1.5657 -1.5
      vertex -18.0218 1.1964 1.5
      vertex -18.0218 1.1964 -1.5
    endloop
  endfacet
  facet normal 0.770466 -0.637481 0
    outer loop
      vertex -17.6293 1.9103 1.5
      vertex -17.3691 2.22478 -1.5
      vertex -17.3691 2.22478 1.5
    endloop
  endfacet
  facet normal 0.770466 -0.637481 0
    outer loop
      vertex -17.3691 2.22478 -1.5
      vertex -17.6293 1.9103 1.5
      vertex -17.6293 1.9103 -1.5
    endloop
  endfacet
  facet normal 0.951071 -0.308972 0
    outer loop
      vertex -18.1479 0.808242 1.5
      vertex -18.0218 1.1964 -1.5
      vertex -18.0218 1.1964 1.5
    endloop
  endfacet
  facet normal 0.951071 -0.308972 0
    outer loop
      vertex -18.0218 1.1964 -1.5
      vertex -18.1479 0.808242 1.5
      vertex -18.1479 0.808242 -1.5
    endloop
  endfacet
  facet normal 0.481806 -0.876278 0
    outer loop
      vertex -16.7414 2.74407 -1.5
      vertex -16.3838 2.94069 1.5
      vertex -16.7414 2.74407 1.5
    endloop
  endfacet
  facet normal 0.481806 -0.876278 0
    outer loop
      vertex -16.3838 2.94069 1.5
      vertex -16.7414 2.74407 -1.5
      vertex -16.3838 2.94069 -1.5
    endloop
  endfacet
  facet normal 0.125356 -0.992112 0
    outer loop
      vertex -15.609 3.19243 -1.5
      vertex -15.2041 3.24359 1.5
      vertex -15.609 3.19243 1.5
    endloop
  endfacet
  facet normal 0.125356 -0.992112 0
    outer loop
      vertex -15.2041 3.24359 1.5
      vertex -15.609 3.19243 -1.5
      vertex -15.2041 3.24359 -1.5
    endloop
  endfacet
  facet normal -0.125356 0.992112 0
    outer loop
      vertex -14.391 -3.19243 -1.5
      vertex -14.7959 -3.24359 1.5
      vertex -14.391 -3.19243 1.5
    endloop
  endfacet
  facet normal -0.125356 0.992112 0
    outer loop
      vertex -14.7959 -3.24359 1.5
      vertex -14.391 -3.19243 -1.5
      vertex -14.7959 -3.24359 -1.5
    endloop
  endfacet
  facet normal -0.481806 0.876278 0
    outer loop
      vertex -13.2586 -2.74407 -1.5
      vertex -13.6162 -2.94069 1.5
      vertex -13.2586 -2.74407 1.5
    endloop
  endfacet
  facet normal -0.481806 0.876278 0
    outer loop
      vertex -13.6162 -2.94069 1.5
      vertex -13.2586 -2.74407 -1.5
      vertex -13.6162 -2.94069 -1.5
    endloop
  endfacet
  facet normal -0.951071 -0.308972 0
    outer loop
      vertex -11.8521 0.808242 -1.5
      vertex -11.9782 1.1964 1.5
      vertex -11.9782 1.1964 -1.5
    endloop
  endfacet
  facet normal -0.951071 -0.308972 0
    outer loop
      vertex -11.9782 1.1964 1.5
      vertex -11.8521 0.808242 -1.5
      vertex -11.8521 0.808242 1.5
    endloop
  endfacet
  facet normal -0.982277 -0.187434 0
    outer loop
      vertex -11.7756 0.407332 -1.5
      vertex -11.8521 0.808242 1.5
      vertex -11.8521 0.808242 -1.5
    endloop
  endfacet
  facet normal -0.982277 -0.187434 0
    outer loop
      vertex -11.8521 0.808242 1.5
      vertex -11.7756 0.407332 -1.5
      vertex -11.7756 0.407332 1.5
    endloop
  endfacet
  facet normal -0.770466 -0.637481 0
    outer loop
      vertex -12.3707 1.9103 -1.5
      vertex -12.6309 2.22478 1.5
      vertex -12.6309 2.22478 -1.5
    endloop
  endfacet
  facet normal -0.770466 -0.637481 0
    outer loop
      vertex -12.6309 2.22478 1.5
      vertex -12.3707 1.9103 -1.5
      vertex -12.3707 1.9103 1.5
    endloop
  endfacet
  facet normal -0.125356 -0.992112 0
    outer loop
      vertex -14.7959 3.24359 -1.5
      vertex -14.391 3.19243 1.5
      vertex -14.7959 3.24359 1.5
    endloop
  endfacet
  facet normal -0.125356 -0.992112 -0
    outer loop
      vertex -14.391 3.19243 1.5
      vertex -14.7959 3.24359 -1.5
      vertex -14.391 3.19243 -1.5
    endloop
  endfacet
  facet normal -0.481806 -0.876278 0
    outer loop
      vertex -13.6162 2.94069 -1.5
      vertex -13.2586 2.74407 1.5
      vertex -13.6162 2.94069 1.5
    endloop
  endfacet
  facet normal -0.481806 -0.876278 -0
    outer loop
      vertex -13.2586 2.74407 1.5
      vertex -13.6162 2.94069 -1.5
      vertex -13.2586 2.74407 -1.5
    endloop
  endfacet
  facet normal 0.844317 -0.535845 0
    outer loop
      vertex -17.848 1.5657 1.5
      vertex -17.6293 1.9103 -1.5
      vertex -17.6293 1.9103 1.5
    endloop
  endfacet
  facet normal 0.844317 -0.535845 0
    outer loop
      vertex -17.6293 1.9103 -1.5
      vertex -17.848 1.5657 1.5
      vertex -17.848 1.5657 -1.5
    endloop
  endfacet
  facet normal 0.982277 -0.187434 0
    outer loop
      vertex -18.2244 0.407332 1.5
      vertex -18.1479 0.808242 -1.5
      vertex -18.1479 0.808242 1.5
    endloop
  endfacet
  facet normal 0.982277 -0.187434 0
    outer loop
      vertex -18.1479 0.808242 -1.5
      vertex -18.2244 0.407332 1.5
      vertex -18.2244 0.407332 -1.5
    endloop
  endfacet
  facet normal 0.587778 -0.809022 0
    outer loop
      vertex -17.0716 2.50417 -1.5
      vertex -16.7414 2.74407 1.5
      vertex -17.0716 2.50417 1.5
    endloop
  endfacet
  facet normal 0.587778 -0.809022 0
    outer loop
      vertex -16.7414 2.74407 1.5
      vertex -17.0716 2.50417 -1.5
      vertex -16.7414 2.74407 -1.5
    endloop
  endfacet
  facet normal 0.2487 -0.968581 0
    outer loop
      vertex -16.0043 3.09093 -1.5
      vertex -15.609 3.19243 1.5
      vertex -16.0043 3.09093 1.5
    endloop
  endfacet
  facet normal 0.2487 -0.968581 0
    outer loop
      vertex -15.609 3.19243 1.5
      vertex -16.0043 3.09093 -1.5
      vertex -15.609 3.19243 -1.5
    endloop
  endfacet
  facet normal -0.951071 0.308972 0
    outer loop
      vertex -11.9782 -1.1964 -1.5
      vertex -11.8521 -0.808242 1.5
      vertex -11.8521 -0.808242 -1.5
    endloop
  endfacet
  facet normal -0.951071 0.308972 0
    outer loop
      vertex -11.8521 -0.808242 1.5
      vertex -11.9782 -1.1964 -1.5
      vertex -11.9782 -1.1964 1.5
    endloop
  endfacet
  facet normal -0.982277 0.187434 0
    outer loop
      vertex -11.8521 -0.808242 -1.5
      vertex -11.7756 -0.407332 1.5
      vertex -11.7756 -0.407332 -1.5
    endloop
  endfacet
  facet normal -0.982277 0.187434 0
    outer loop
      vertex -11.7756 -0.407332 1.5
      vertex -11.8521 -0.808242 -1.5
      vertex -11.8521 -0.808242 1.5
    endloop
  endfacet
  facet normal 0.904808 0.425821 0
    outer loop
      vertex -17.848 -1.5657 1.5
      vertex -18.0218 -1.1964 -1.5
      vertex -18.0218 -1.1964 1.5
    endloop
  endfacet
  facet normal 0.904808 0.425821 0
    outer loop
      vertex -18.0218 -1.1964 -1.5
      vertex -17.848 -1.5657 1.5
      vertex -17.848 -1.5657 -1.5
    endloop
  endfacet
  facet normal -0.587778 0.809022 0
    outer loop
      vertex -12.9284 -2.50417 -1.5
      vertex -13.2586 -2.74407 1.5
      vertex -12.9284 -2.50417 1.5
    endloop
  endfacet
  facet normal -0.587778 0.809022 0
    outer loop
      vertex -13.2586 -2.74407 1.5
      vertex -12.9284 -2.50417 -1.5
      vertex -13.2586 -2.74407 -1.5
    endloop
  endfacet
  facet normal -0.998031 0.0627242 0
    outer loop
      vertex -11.7756 -0.407332 -1.5
      vertex -11.75 0 1.5
      vertex -11.75 0 -1.5
    endloop
  endfacet
  facet normal -0.998031 0.0627242 0
    outer loop
      vertex -11.75 0 1.5
      vertex -11.7756 -0.407332 -1.5
      vertex -11.7756 -0.407332 1.5
    endloop
  endfacet
  facet normal 0.951071 0.308972 0
    outer loop
      vertex -18.0218 -1.1964 1.5
      vertex -18.1479 -0.808242 -1.5
      vertex -18.1479 -0.808242 1.5
    endloop
  endfacet
  facet normal 0.951071 0.308972 0
    outer loop
      vertex -18.1479 -0.808242 -1.5
      vertex -18.0218 -1.1964 1.5
      vertex -18.0218 -1.1964 -1.5
    endloop
  endfacet
  facet normal -0.684572 0.728946 0
    outer loop
      vertex -12.6309 -2.22478 -1.5
      vertex -12.9284 -2.50417 1.5
      vertex -12.6309 -2.22478 1.5
    endloop
  endfacet
  facet normal -0.684572 0.728946 0
    outer loop
      vertex -12.9284 -2.50417 1.5
      vertex -12.6309 -2.22478 -1.5
      vertex -12.9284 -2.50417 -1.5
    endloop
  endfacet
  facet normal -0.2487 0.968581 0
    outer loop
      vertex -13.9957 -3.09093 -1.5
      vertex -14.391 -3.19243 1.5
      vertex -13.9957 -3.09093 1.5
    endloop
  endfacet
  facet normal -0.2487 0.968581 0
    outer loop
      vertex -14.391 -3.19243 1.5
      vertex -13.9957 -3.09093 -1.5
      vertex -14.391 -3.19243 -1.5
    endloop
  endfacet
  facet normal -0.368093 0.929789 0
    outer loop
      vertex -13.6162 -2.94069 -1.5
      vertex -13.9957 -3.09093 1.5
      vertex -13.6162 -2.94069 1.5
    endloop
  endfacet
  facet normal -0.368093 0.929789 0
    outer loop
      vertex -13.9957 -3.09093 1.5
      vertex -13.6162 -2.94069 -1.5
      vertex -13.9957 -3.09093 -1.5
    endloop
  endfacet
  facet normal -0.904808 0.425821 0
    outer loop
      vertex -12.152 -1.5657 -1.5
      vertex -11.9782 -1.1964 1.5
      vertex -11.9782 -1.1964 -1.5
    endloop
  endfacet
  facet normal -0.904808 0.425821 0
    outer loop
      vertex -11.9782 -1.1964 1.5
      vertex -12.152 -1.5657 -1.5
      vertex -12.152 -1.5657 1.5
    endloop
  endfacet
  facet normal -0.844317 0.535845 0
    outer loop
      vertex -12.3707 -1.9103 -1.5
      vertex -12.152 -1.5657 1.5
      vertex -12.152 -1.5657 -1.5
    endloop
  endfacet
  facet normal -0.844317 0.535845 0
    outer loop
      vertex -12.152 -1.5657 1.5
      vertex -12.3707 -1.9103 -1.5
      vertex -12.3707 -1.9103 1.5
    endloop
  endfacet
  facet normal 0.125356 0.992112 -0
    outer loop
      vertex -15.2041 -3.24359 -1.5
      vertex -15.609 -3.19243 1.5
      vertex -15.2041 -3.24359 1.5
    endloop
  endfacet
  facet normal 0.125356 0.992112 0
    outer loop
      vertex -15.609 -3.19243 1.5
      vertex -15.2041 -3.24359 -1.5
      vertex -15.609 -3.19243 -1.5
    endloop
  endfacet
  facet normal 0.368093 0.929789 -0
    outer loop
      vertex -16.0043 -3.09093 -1.5
      vertex -16.3838 -2.94069 1.5
      vertex -16.0043 -3.09093 1.5
    endloop
  endfacet
  facet normal 0.368093 0.929789 0
    outer loop
      vertex -16.3838 -2.94069 1.5
      vertex -16.0043 -3.09093 -1.5
      vertex -16.3838 -2.94069 -1.5
    endloop
  endfacet
  facet normal 0.2487 0.968581 -0
    outer loop
      vertex -15.609 -3.19243 -1.5
      vertex -16.0043 -3.09093 1.5
      vertex -15.609 -3.19243 1.5
    endloop
  endfacet
  facet normal 0.2487 0.968581 0
    outer loop
      vertex -16.0043 -3.09093 1.5
      vertex -15.609 -3.19243 -1.5
      vertex -16.0043 -3.09093 -1.5
    endloop
  endfacet
  facet normal 0.770466 0.637481 0
    outer loop
      vertex -17.3691 -2.22478 1.5
      vertex -17.6293 -1.9103 -1.5
      vertex -17.6293 -1.9103 1.5
    endloop
  endfacet
  facet normal 0.770466 0.637481 0
    outer loop
      vertex -17.6293 -1.9103 -1.5
      vertex -17.3691 -2.22478 1.5
      vertex -17.3691 -2.22478 -1.5
    endloop
  endfacet
  facet normal 0.684572 0.728946 -0
    outer loop
      vertex -17.0716 -2.50417 -1.5
      vertex -17.3691 -2.22478 1.5
      vertex -17.0716 -2.50417 1.5
    endloop
  endfacet
  facet normal 0.684572 0.728946 0
    outer loop
      vertex -17.3691 -2.22478 1.5
      vertex -17.0716 -2.50417 -1.5
      vertex -17.3691 -2.22478 -1.5
    endloop
  endfacet
  facet normal 0.982277 0.187434 0
    outer loop
      vertex -18.1479 -0.808242 1.5
      vertex -18.2244 -0.407332 -1.5
      vertex -18.2244 -0.407332 1.5
    endloop
  endfacet
  facet normal 0.982277 0.187434 0
    outer loop
      vertex -18.2244 -0.407332 -1.5
      vertex -18.1479 -0.808242 1.5
      vertex -18.1479 -0.808242 -1.5
    endloop
  endfacet
  facet normal 0.998031 0.0627242 0
    outer loop
      vertex -18.2244 -0.407332 1.5
      vertex -18.25 0 -1.5
      vertex -18.25 0 1.5
    endloop
  endfacet
  facet normal 0.998031 0.0627242 0
    outer loop
      vertex -18.25 0 -1.5
      vertex -18.2244 -0.407332 1.5
      vertex -18.2244 -0.407332 -1.5
    endloop
  endfacet
  facet normal -0.770466 0.637481 0
    outer loop
      vertex -12.6309 -2.22478 -1.5
      vertex -12.3707 -1.9103 1.5
      vertex -12.3707 -1.9103 -1.5
    endloop
  endfacet
  facet normal -0.770466 0.637481 0
    outer loop
      vertex -12.3707 -1.9103 1.5
      vertex -12.6309 -2.22478 -1.5
      vertex -12.6309 -2.22478 1.5
    endloop
  endfacet
  facet normal 0.481806 0.876278 -0
    outer loop
      vertex -16.3838 -2.94069 -1.5
      vertex -16.7414 -2.74407 1.5
      vertex -16.3838 -2.94069 1.5
    endloop
  endfacet
  facet normal 0.481806 0.876278 0
    outer loop
      vertex -16.7414 -2.74407 1.5
      vertex -16.3838 -2.94069 -1.5
      vertex -16.7414 -2.74407 -1.5
    endloop
  endfacet
  facet normal 0.587778 0.809022 -0
    outer loop
      vertex -16.7414 -2.74407 -1.5
      vertex -17.0716 -2.50417 1.5
      vertex -16.7414 -2.74407 1.5
    endloop
  endfacet
  facet normal 0.587778 0.809022 0
    outer loop
      vertex -17.0716 -2.50417 1.5
      vertex -16.7414 -2.74407 -1.5
      vertex -17.0716 -2.50417 -1.5
    endloop
  endfacet
  facet normal 0.844317 0.535845 0
    outer loop
      vertex -17.6293 -1.9103 1.5
      vertex -17.848 -1.5657 -1.5
      vertex -17.848 -1.5657 1.5
    endloop
  endfacet
  facet normal 0.844317 0.535845 0
    outer loop
      vertex -17.848 -1.5657 -1.5
      vertex -17.6293 -1.9103 1.5
      vertex -17.6293 -1.9103 -1.5
    endloop
  endfacet
  facet normal -0.998026 -0.0628024 0
    outer loop
      vertex 3.25 -15 -1.5
      vertex 3.22437 -14.5927 1.5
      vertex 3.22437 -14.5927 -1.5
    endloop
  endfacet
  facet normal -0.998026 -0.0628024 0
    outer loop
      vertex 3.22437 -14.5927 1.5
      vertex 3.25 -15 -1.5
      vertex 3.25 -15 1.5
    endloop
  endfacet
  facet normal 0.998026 -0.0628024 0
    outer loop
      vertex -3.25 -15 1.5
      vertex -3.22437 -14.5927 -1.5
      vertex -3.22437 -14.5927 1.5
    endloop
  endfacet
  facet normal 0.998026 -0.0628024 0
    outer loop
      vertex -3.22437 -14.5927 -1.5
      vertex -3.25 -15 1.5
      vertex -3.25 -15 -1.5
    endloop
  endfacet
  facet normal 0 -1 0
    outer loop
      vertex -0.204069 -11.7564 -1.5
      vertex 0.204069 -11.7564 1.5
      vertex -0.204069 -11.7564 1.5
    endloop
  endfacet
  facet normal 0 -1 -0
    outer loop
      vertex 0.204069 -11.7564 1.5
      vertex -0.204069 -11.7564 -1.5
      vertex 0.204069 -11.7564 -1.5
    endloop
  endfacet
  facet normal 0 1 -0
    outer loop
      vertex 0.204069 -18.2436 -1.5
      vertex -0.204069 -18.2436 1.5
      vertex 0.204069 -18.2436 1.5
    endloop
  endfacet
  facet normal 0 1 0
    outer loop
      vertex -0.204069 -18.2436 1.5
      vertex 0.204069 -18.2436 -1.5
      vertex -0.204069 -18.2436 -1.5
    endloop
  endfacet
  facet normal -0.68456 -0.728956 0
    outer loop
      vertex 2.07163 -12.4958 -1.5
      vertex 2.36915 -12.7752 1.5
      vertex 2.07163 -12.4958 1.5
    endloop
  endfacet
  facet normal -0.68456 -0.728956 -0
    outer loop
      vertex 2.36915 -12.7752 1.5
      vertex 2.07163 -12.4958 -1.5
      vertex 2.36915 -12.7752 -1.5
    endloop
  endfacet
  facet normal 0.68456 -0.728956 0
    outer loop
      vertex -2.36915 -12.7752 -1.5
      vertex -2.07163 -12.4958 1.5
      vertex -2.36915 -12.7752 1.5
    endloop
  endfacet
  facet normal 0.68456 -0.728956 0
    outer loop
      vertex -2.07163 -12.4958 1.5
      vertex -2.36915 -12.7752 -1.5
      vertex -2.07163 -12.4958 -1.5
    endloop
  endfacet
  facet normal 0.368026 -0.929816 0
    outer loop
      vertex -1.38378 -12.0593 -1.5
      vertex -1.0043 -11.9091 1.5
      vertex -1.38378 -12.0593 1.5
    endloop
  endfacet
  facet normal 0.368026 -0.929816 0
    outer loop
      vertex -1.0043 -11.9091 1.5
      vertex -1.38378 -12.0593 -1.5
      vertex -1.0043 -11.9091 -1.5
    endloop
  endfacet
  facet normal -0.904836 -0.42576 0
    outer loop
      vertex 3.02177 -13.8036 -1.5
      vertex 2.848 -13.4343 1.5
      vertex 2.848 -13.4343 -1.5
    endloop
  endfacet
  facet normal -0.904836 -0.42576 0
    outer loop
      vertex 2.848 -13.4343 1.5
      vertex 3.02177 -13.8036 -1.5
      vertex 3.02177 -13.8036 1.5
    endloop
  endfacet
  facet normal -0.844317 -0.535845 0
    outer loop
      vertex 2.848 -13.4343 -1.5
      vertex 2.6293 -13.0897 1.5
      vertex 2.6293 -13.0897 -1.5
    endloop
  endfacet
  facet normal -0.844317 -0.535845 0
    outer loop
      vertex 2.6293 -13.0897 1.5
      vertex 2.848 -13.4343 -1.5
      vertex 2.848 -13.4343 1.5
    endloop
  endfacet
  facet normal -0.368026 -0.929816 0
    outer loop
      vertex 1.0043 -11.9091 -1.5
      vertex 1.38378 -12.0593 1.5
      vertex 1.0043 -11.9091 1.5
    endloop
  endfacet
  facet normal -0.368026 -0.929816 -0
    outer loop
      vertex 1.38378 -12.0593 1.5
      vertex 1.0043 -11.9091 -1.5
      vertex 1.38378 -12.0593 -1.5
    endloop
  endfacet
  facet normal -0.248693 -0.968582 0
    outer loop
      vertex 0.608989 -11.8076 -1.5
      vertex 1.0043 -11.9091 1.5
      vertex 0.608989 -11.8076 1.5
    endloop
  endfacet
  facet normal -0.248693 -0.968582 -0
    outer loop
      vertex 1.0043 -11.9091 1.5
      vertex 0.608989 -11.8076 -1.5
      vertex 1.0043 -11.9091 -1.5
    endloop
  endfacet
  facet normal -0.58779 -0.809014 0
    outer loop
      vertex 1.74144 -12.2559 -1.5
      vertex 2.07163 -12.4958 1.5
      vertex 1.74144 -12.2559 1.5
    endloop
  endfacet
  facet normal -0.58779 -0.809014 -0
    outer loop
      vertex 2.07163 -12.4958 1.5
      vertex 1.74144 -12.2559 -1.5
      vertex 2.07163 -12.4958 -1.5
    endloop
  endfacet
  facet normal 0.844317 -0.535845 0
    outer loop
      vertex -2.848 -13.4343 1.5
      vertex -2.6293 -13.0897 -1.5
      vertex -2.6293 -13.0897 1.5
    endloop
  endfacet
  facet normal 0.844317 -0.535845 0
    outer loop
      vertex -2.6293 -13.0897 -1.5
      vertex -2.848 -13.4343 1.5
      vertex -2.848 -13.4343 -1.5
    endloop
  endfacet
  facet normal 0.770546 -0.637385 0
    outer loop
      vertex -2.6293 -13.0897 1.5
      vertex -2.36915 -12.7752 -1.5
      vertex -2.36915 -12.7752 1.5
    endloop
  endfacet
  facet normal 0.770546 -0.637385 0
    outer loop
      vertex -2.36915 -12.7752 -1.5
      vertex -2.6293 -13.0897 1.5
      vertex -2.6293 -13.0897 -1.5
    endloop
  endfacet
  facet normal 0.951066 -0.308986 0
    outer loop
      vertex -3.14789 -14.1918 1.5
      vertex -3.02177 -13.8036 -1.5
      vertex -3.02177 -13.8036 1.5
    endloop
  endfacet
  facet normal 0.951066 -0.308986 0
    outer loop
      vertex -3.02177 -13.8036 -1.5
      vertex -3.14789 -14.1918 1.5
      vertex -3.14789 -14.1918 -1.5
    endloop
  endfacet
  facet normal 0.481706 -0.876333 0
    outer loop
      vertex -1.74144 -12.2559 -1.5
      vertex -1.38378 -12.0593 1.5
      vertex -1.74144 -12.2559 1.5
    endloop
  endfacet
  facet normal 0.481706 -0.876333 0
    outer loop
      vertex -1.38378 -12.0593 1.5
      vertex -1.74144 -12.2559 -1.5
      vertex -1.38378 -12.0593 -1.5
    endloop
  endfacet
  facet normal 0.125446 -0.9921 0
    outer loop
      vertex -0.608989 -11.8076 -1.5
      vertex -0.204069 -11.7564 1.5
      vertex -0.608989 -11.8076 1.5
    endloop
  endfacet
  facet normal 0.125446 -0.9921 0
    outer loop
      vertex -0.204069 -11.7564 1.5
      vertex -0.608989 -11.8076 -1.5
      vertex -0.204069 -11.7564 -1.5
    endloop
  endfacet
  facet normal -0.125446 0.9921 0
    outer loop
      vertex 0.608989 -18.1924 -1.5
      vertex 0.204069 -18.2436 1.5
      vertex 0.608989 -18.1924 1.5
    endloop
  endfacet
  facet normal -0.125446 0.9921 0
    outer loop
      vertex 0.204069 -18.2436 1.5
      vertex 0.608989 -18.1924 -1.5
      vertex 0.204069 -18.2436 -1.5
    endloop
  endfacet
  facet normal -0.951066 -0.308986 0
    outer loop
      vertex 3.14789 -14.1918 -1.5
      vertex 3.02177 -13.8036 1.5
      vertex 3.02177 -13.8036 -1.5
    endloop
  endfacet
  facet normal -0.951066 -0.308986 0
    outer loop
      vertex 3.02177 -13.8036 1.5
      vertex 3.14789 -14.1918 -1.5
      vertex 3.14789 -14.1918 1.5
    endloop
  endfacet
  facet normal -0.982285 -0.187391 0
    outer loop
      vertex 3.22437 -14.5927 -1.5
      vertex 3.14789 -14.1918 1.5
      vertex 3.14789 -14.1918 -1.5
    endloop
  endfacet
  facet normal -0.982285 -0.187391 0
    outer loop
      vertex 3.14789 -14.1918 1.5
      vertex 3.22437 -14.5927 -1.5
      vertex 3.22437 -14.5927 1.5
    endloop
  endfacet
  facet normal -0.770546 -0.637385 0
    outer loop
      vertex 2.6293 -13.0897 -1.5
      vertex 2.36915 -12.7752 1.5
      vertex 2.36915 -12.7752 -1.5
    endloop
  endfacet
  facet normal -0.770546 -0.637385 0
    outer loop
      vertex 2.36915 -12.7752 1.5
      vertex 2.6293 -13.0897 -1.5
      vertex 2.6293 -13.0897 1.5
    endloop
  endfacet
  facet normal -0.125446 -0.9921 0
    outer loop
      vertex 0.204069 -11.7564 -1.5
      vertex 0.608989 -11.8076 1.5
      vertex 0.204069 -11.7564 1.5
    endloop
  endfacet
  facet normal -0.125446 -0.9921 -0
    outer loop
      vertex 0.608989 -11.8076 1.5
      vertex 0.204069 -11.7564 -1.5
      vertex 0.608989 -11.8076 -1.5
    endloop
  endfacet
  facet normal -0.481706 -0.876333 0
    outer loop
      vertex 1.38378 -12.0593 -1.5
      vertex 1.74144 -12.2559 1.5
      vertex 1.38378 -12.0593 1.5
    endloop
  endfacet
  facet normal -0.481706 -0.876333 -0
    outer loop
      vertex 1.74144 -12.2559 1.5
      vertex 1.38378 -12.0593 -1.5
      vertex 1.74144 -12.2559 -1.5
    endloop
  endfacet
  facet normal 0.904836 -0.42576 0
    outer loop
      vertex -3.02177 -13.8036 1.5
      vertex -2.848 -13.4343 -1.5
      vertex -2.848 -13.4343 1.5
    endloop
  endfacet
  facet normal 0.904836 -0.42576 0
    outer loop
      vertex -2.848 -13.4343 -1.5
      vertex -3.02177 -13.8036 1.5
      vertex -3.02177 -13.8036 -1.5
    endloop
  endfacet
  facet normal 0.982285 -0.187391 0
    outer loop
      vertex -3.22437 -14.5927 1.5
      vertex -3.14789 -14.1918 -1.5
      vertex -3.14789 -14.1918 1.5
    endloop
  endfacet
  facet normal 0.982285 -0.187391 0
    outer loop
      vertex -3.14789 -14.1918 -1.5
      vertex -3.22437 -14.5927 1.5
      vertex -3.22437 -14.5927 -1.5
    endloop
  endfacet
  facet normal 0.58779 -0.809014 0
    outer loop
      vertex -2.07163 -12.4958 -1.5
      vertex -1.74144 -12.2559 1.5
      vertex -2.07163 -12.4958 1.5
    endloop
  endfacet
  facet normal 0.58779 -0.809014 0
    outer loop
      vertex -1.74144 -12.2559 1.5
      vertex -2.07163 -12.4958 -1.5
      vertex -1.74144 -12.2559 -1.5
    endloop
  endfacet
  facet normal -0.951066 0.308986 0
    outer loop
      vertex 3.02177 -16.1964 -1.5
      vertex 3.14789 -15.8082 1.5
      vertex 3.14789 -15.8082 -1.5
    endloop
  endfacet
  facet normal -0.951066 0.308986 0
    outer loop
      vertex 3.14789 -15.8082 1.5
      vertex 3.02177 -16.1964 -1.5
      vertex 3.02177 -16.1964 1.5
    endloop
  endfacet
  facet normal -0.982285 0.187391 0
    outer loop
      vertex 3.14789 -15.8082 -1.5
      vertex 3.22437 -15.4073 1.5
      vertex 3.22437 -15.4073 -1.5
    endloop
  endfacet
  facet normal -0.982285 0.187391 0
    outer loop
      vertex 3.22437 -15.4073 1.5
      vertex 3.14789 -15.8082 -1.5
      vertex 3.14789 -15.8082 1.5
    endloop
  endfacet
  facet normal -0.58779 0.809014 0
    outer loop
      vertex 2.07163 -17.5042 -1.5
      vertex 1.74144 -17.7441 1.5
      vertex 2.07163 -17.5042 1.5
    endloop
  endfacet
  facet normal -0.58779 0.809014 0
    outer loop
      vertex 1.74144 -17.7441 1.5
      vertex 2.07163 -17.5042 -1.5
      vertex 1.74144 -17.7441 -1.5
    endloop
  endfacet
  facet normal -0.481706 0.876333 0
    outer loop
      vertex 1.74144 -17.7441 -1.5
      vertex 1.38378 -17.9407 1.5
      vertex 1.74144 -17.7441 1.5
    endloop
  endfacet
  facet normal -0.481706 0.876333 0
    outer loop
      vertex 1.38378 -17.9407 1.5
      vertex 1.74144 -17.7441 -1.5
      vertex 1.38378 -17.9407 -1.5
    endloop
  endfacet
  facet normal 0.248693 -0.968582 0
    outer loop
      vertex -1.0043 -11.9091 -1.5
      vertex -0.608989 -11.8076 1.5
      vertex -1.0043 -11.9091 1.5
    endloop
  endfacet
  facet normal 0.248693 -0.968582 0
    outer loop
      vertex -0.608989 -11.8076 1.5
      vertex -1.0043 -11.9091 -1.5
      vertex -0.608989 -11.8076 -1.5
    endloop
  endfacet
  facet normal -0.998026 0.0628024 0
    outer loop
      vertex 3.22437 -15.4073 -1.5
      vertex 3.25 -15 1.5
      vertex 3.25 -15 -1.5
    endloop
  endfacet
  facet normal -0.998026 0.0628024 0
    outer loop
      vertex 3.25 -15 1.5
      vertex 3.22437 -15.4073 -1.5
      vertex 3.22437 -15.4073 1.5
    endloop
  endfacet
  facet normal 0.770546 0.637385 0
    outer loop
      vertex -2.36915 -17.2248 1.5
      vertex -2.6293 -16.9103 -1.5
      vertex -2.6293 -16.9103 1.5
    endloop
  endfacet
  facet normal 0.770546 0.637385 0
    outer loop
      vertex -2.6293 -16.9103 -1.5
      vertex -2.36915 -17.2248 1.5
      vertex -2.36915 -17.2248 -1.5
    endloop
  endfacet
  facet normal 0.951066 0.308986 0
    outer loop
      vertex -3.02177 -16.1964 1.5
      vertex -3.14789 -15.8082 -1.5
      vertex -3.14789 -15.8082 1.5
    endloop
  endfacet
  facet normal 0.951066 0.308986 0
    outer loop
      vertex -3.14789 -15.8082 -1.5
      vertex -3.02177 -16.1964 1.5
      vertex -3.02177 -16.1964 -1.5
    endloop
  endfacet
  facet normal -0.68456 0.728956 0
    outer loop
      vertex 2.36915 -17.2248 -1.5
      vertex 2.07163 -17.5042 1.5
      vertex 2.36915 -17.2248 1.5
    endloop
  endfacet
  facet normal -0.68456 0.728956 0
    outer loop
      vertex 2.07163 -17.5042 1.5
      vertex 2.36915 -17.2248 -1.5
      vertex 2.07163 -17.5042 -1.5
    endloop
  endfacet
