solid OpenSCAD_Model
  facet normal -1 0 0
    outer loop
      vertex -3.5 -1 0
      vertex -3.5 1 1.5
      vertex -3.5 1 0
    endloop
  endfacet
  facet normal -1 -0 0
    outer loop
      vertex -3.5 1 1.5
      vertex -3.5 -1 0
      vertex -3.5 -1 1.5
    endloop
  endfacet
  facet normal -0.36811 0.929782 0
    outer loop
      vertex -1.77254 3.37764 0
      vertex -2.06445 3.26207 1.5
      vertex -1.77254 3.37764 1.5
    endloop
  endfacet
  facet normal -0.36811 0.929782 0
    outer loop
      vertex -2.06445 3.26207 1.5
      vertex -1.77254 3.37764 0
      vertex -2.06445 3.26207 0
    endloop
  endfacet
  facet normal 0 0 1
    outer loop
      vertex 1.58062 0.625812 1.5
      vertex 3.5 1 1.5
      vertex 3.48029 1.31333 1.5
    endloop
  endfacet
  facet normal 0 0 1
    outer loop
      vertex 3.5 1 1.5
      vertex 1.7 0 1.5
      vertex 3.5 -1 1.5
    endloop
  endfacet
  facet normal 0 0 1
    outer loop
      vertex 1.48972 0.818981 1.5
      vertex 3.48029 1.31333 1.5
      vertex 3.42146 1.62172 1.5
    endloop
  endfacet
  facet normal -0 0 1
    outer loop
      vertex 1.68659 -0.213066 1.5
      vertex 3.5 -1 1.5
      vertex 1.7 0 1.5
    endloop
  endfacet
  facet normal 0 0 1
    outer loop
      vertex 1.48972 0.818981 1.5
      vertex 3.42146 1.62172 1.5
      vertex 3.32444 1.92031 1.5
    endloop
  endfacet
  facet normal -0 0 1
    outer loop
      vertex 1.64659 -0.422772 1.5
      vertex 3.5 -1 1.5
      vertex 1.68659 -0.213066 1.5
    endloop
  endfacet
  facet normal 0 0 1
    outer loop
      vertex 1.37533 0.999234 1.5
      vertex 3.32444 1.92031 1.5
      vertex 3.19077 2.20438 1.5
    endloop
  endfacet
  facet normal -0 0 1
    outer loop
      vertex 1.58062 -0.625812 1.5
      vertex 3.5 -1 1.5
      vertex 1.64659 -0.422772 1.5
    endloop
  endfacet
  facet normal 0 0 1
    outer loop
      vertex 1.37533 0.999234 1.5
      vertex 3.19077 2.20438 1.5
      vertex 3.02254 2.46946 1.5
    endloop
  endfacet
  facet normal 0 0 1
    outer loop
      vertex 3.5 -1 1.5
      vertex 1.58062 -0.625812 1.5
      vertex 3.48029 -1.31333 1.5
    endloop
  endfacet
  facet normal 0 0 1
    outer loop
      vertex 1.23925 1.16373 1.5
      vertex 3.02254 2.46946 1.5
      vertex 2.82242 2.71137 1.5
    endloop
  endfacet
  facet normal -0 0 1
    outer loop
      vertex 1.48972 -0.818981 1.5
      vertex 3.48029 -1.31333 1.5
      vertex 1.58062 -0.625812 1.5
    endloop
  endfacet
  facet normal 0 0 1
    outer loop
      vertex 1.23925 1.16373 1.5
      vertex 2.82242 2.71137 1.5
      vertex 2.59356 2.92628 1.5
    endloop
  endfacet
  facet normal 0 0 1
    outer loop
      vertex 3.48029 -1.31333 1.5
      vertex 1.48972 -0.818981 1.5
      vertex 3.42146 -1.62172 1.5
    endloop
  endfacet
  facet normal 0 0 1
    outer loop
      vertex 1.08362 1.30987 1.5
      vertex 2.59356 2.92628 1.5
      vertex 2.33957 3.11082 1.5
    endloop
  endfacet
  facet normal 0 0 1
    outer loop
      vertex 3.42146 -1.62172 1.5
      vertex 1.48972 -0.818981 1.5
      vertex 3.32444 -1.92031 1.5
    endloop
  endfacet
  facet normal 0 0 1
    outer loop
      vertex 1.08362 1.30987 1.5
      vertex 2.33957 3.11082 1.5
      vertex 2.06445 3.26207 1.5
    endloop
  endfacet
  facet normal -0 0 1
    outer loop
      vertex 1.37533 -0.999234 1.5
      vertex 3.32444 -1.92031 1.5
      vertex 1.48972 -0.818981 1.5
    endloop
  endfacet
  facet normal 0 0 1
    outer loop
      vertex 0.910905 1.43536 1.5
      vertex 2.06445 3.26207 1.5
      vertex 1.77254 3.37764 1.5
    endloop
  endfacet
  facet normal 0 0 1
    outer loop
      vertex 3.32444 -1.92031 1.5
      vertex 1.37533 -0.999234 1.5
      vertex 3.19077 -2.20438 1.5
    endloop
  endfacet
  facet normal 0 0 1
    outer loop
      vertex 3.19077 -2.20438 1.5
      vertex 1.37533 -0.999234 1.5
      vertex 3.02254 -2.46946 1.5
    endloop
  endfacet
  facet normal 0 0 1
    outer loop
      vertex 3.5 1 1.5
      vertex 1.68659 0.213066 1.5
      vertex 1.7 0 1.5
    endloop
  endfacet
  facet normal 0 0 1
    outer loop
      vertex 3.5 1 1.5
      vertex 1.64659 0.422772 1.5
      vertex 1.68659 0.213066 1.5
    endloop
  endfacet
  facet normal 0 0 1
    outer loop
      vertex 3.5 1 1.5
      vertex 1.58062 0.625812 1.5
      vertex 1.64659 0.422772 1.5
    endloop
  endfacet
  facet normal 0 0 1
    outer loop
      vertex 3.48029 1.31333 1.5
      vertex 1.48972 0.818981 1.5
      vertex 1.58062 0.625812 1.5
    endloop
  endfacet
  facet normal 0 0 1
    outer loop
      vertex 0.910905 1.43536 1.5
      vertex 1.77254 3.37764 1.5
      vertex 1.46845 3.45572 1.5
    endloop
  endfacet
  facet normal 0 0 1
    outer loop
      vertex 3.32444 1.92031 1.5
      vertex 1.37533 0.999234 1.5
      vertex 1.48972 0.818981 1.5
    endloop
  endfacet
  facet normal 0 0 1
    outer loop
      vertex 3.02254 2.46946 1.5
      vertex 1.23925 1.16373 1.5
      vertex 1.37533 0.999234 1.5
    endloop
  endfacet
  facet normal 0 0 1
    outer loop
      vertex 0.723825 1.53821 1.5
      vertex 1.46845 3.45572 1.5
      vertex 1.15698 3.49507 1.5
    endloop
  endfacet
  facet normal 0 0 1
    outer loop
      vertex 2.59356 2.92628 1.5
      vertex 1.08362 1.30987 1.5
      vertex 1.23925 1.16373 1.5
    endloop
  endfacet
  facet normal 0 0 1
    outer loop
      vertex 2.06445 3.26207 1.5
      vertex 0.910905 1.43536 1.5
      vertex 1.08362 1.30987 1.5
    endloop
  endfacet
  facet normal 0 0 1
    outer loop
      vertex 1.46845 3.45572 1.5
      vertex 0.723825 1.53821 1.5
      vertex 0.910905 1.43536 1.5
    endloop
  endfacet
  facet normal 0 0 1
    outer loop
      vertex 1.15698 3.49507 1.5
      vertex 0.525329 1.6168 1.5
      vertex 0.723825 1.53821 1.5
    endloop
  endfacet
  facet normal 0 0 1
    outer loop
      vertex 1.15698 3.49507 1.5
      vertex 0.318548 1.66989 1.5
      vertex 0.525329 1.6168 1.5
    endloop
  endfacet
  facet normal 0 0 1
    outer loop
      vertex 1.15698 3.49507 1.5
      vertex 0.106744 1.69664 1.5
      vertex 0.318548 1.66989 1.5
    endloop
  endfacet
  facet normal 0 0 1
    outer loop
      vertex 1.15698 3.49507 1.5
      vertex -0.106744 1.69664 1.5
      vertex 0.106744 1.69664 1.5
    endloop
  endfacet
  facet normal -0 0 1
    outer loop
      vertex -1.15698 3.49507 1.5
      vertex -0.106744 1.69664 1.5
      vertex 1.15698 3.49507 1.5
    endloop
  endfacet
  facet normal 0 0 1
    outer loop
      vertex -0.106744 1.69664 1.5
      vertex -1.15698 3.49507 1.5
      vertex -0.318548 1.66989 1.5
    endloop
  endfacet
  facet normal 0 0 1
    outer loop
      vertex -0.318548 1.66989 1.5
      vertex -1.15698 3.49507 1.5
      vertex -0.525329 1.6168 1.5
    endloop
  endfacet
  facet normal 0 0 1
    outer loop
      vertex -0.525329 1.6168 1.5
      vertex -1.15698 3.49507 1.5
      vertex -0.723825 1.53821 1.5
    endloop
  endfacet
  facet normal -0 0 1
    outer loop
      vertex -1.46845 3.45572 1.5
      vertex -0.723825 1.53821 1.5
      vertex -1.15698 3.49507 1.5
    endloop
  endfacet
  facet normal 0 0 1
    outer loop
      vertex -0.723825 1.53821 1.5
      vertex -1.46845 3.45572 1.5
      vertex -0.910905 1.43536 1.5
    endloop
  endfacet
  facet normal -0 0 1
    outer loop
      vertex -1.77254 3.37764 1.5
      vertex -0.910905 1.43536 1.5
      vertex -1.46845 3.45572 1.5
    endloop
  endfacet
  facet normal -0 0 1
    outer loop
      vertex -2.06445 3.26207 1.5
      vertex -0.910905 1.43536 1.5
      vertex -1.77254 3.37764 1.5
    endloop
  endfacet
  facet normal 0 0 1
    outer loop
      vertex -0.910905 1.43536 1.5
      vertex -2.06445 3.26207 1.5
      vertex -1.08362 1.30987 1.5
    endloop
  endfacet
  facet normal -0 0 1
    outer loop
      vertex -2.33957 3.11082 1.5
      vertex -1.08362 1.30987 1.5
      vertex -2.06445 3.26207 1.5
    endloop
  endfacet
  facet normal -0 0 1
    outer loop
      vertex -2.59356 2.92628 1.5
      vertex -1.08362 1.30987 1.5
      vertex -2.33957 3.11082 1.5
    endloop
  endfacet
  facet normal 0 0 1
    outer loop
      vertex -1.08362 1.30987 1.5
      vertex -2.59356 2.92628 1.5
      vertex -1.23925 1.16373 1.5
    endloop
  endfacet
  facet normal -0 0 1
    outer loop
      vertex -2.82242 2.71137 1.5
      vertex -1.23925 1.16373 1.5
      vertex -2.59356 2.92628 1.5
    endloop
  endfacet
  facet normal 0 0 1
    outer loop
      vertex -1.23925 1.16373 1.5
      vertex -3.02254 2.46946 1.5
      vertex -1.37533 0.999234 1.5
    endloop
  endfacet
  facet normal -0 0 1
    outer loop
      vertex -3.02254 2.46946 1.5
      vertex -1.23925 1.16373 1.5
      vertex -2.82242 2.71137 1.5
    endloop
  endfacet
  facet normal -0 0 1
    outer loop
      vertex 1.23925 -1.16373 1.5
      vertex 3.02254 -2.46946 1.5
      vertex 1.37533 -0.999234 1.5
    endloop
  endfacet
  facet normal 0 0 1
    outer loop
      vertex 3.02254 -2.46946 1.5
      vertex 1.23925 -1.16373 1.5
      vertex 2.82242 -2.71137 1.5
    endloop
  endfacet
  facet normal 0 0 1
    outer loop
      vertex 2.82242 -2.71137 1.5
      vertex 1.23925 -1.16373 1.5
      vertex 2.59356 -2.92628 1.5
    endloop
  endfacet
  facet normal -0 0 1
    outer loop
      vertex 1.08362 -1.30987 1.5
      vertex 2.59356 -2.92628 1.5
      vertex 1.23925 -1.16373 1.5
    endloop
  endfacet
  facet normal 0 0 1
    outer loop
      vertex 2.59356 -2.92628 1.5
      vertex 1.08362 -1.30987 1.5
      vertex 2.33957 -3.11082 1.5
    endloop
  endfacet
  facet normal 0 0 1
    outer loop
      vertex 2.33957 -3.11082 1.5
      vertex 1.08362 -1.30987 1.5
      vertex 2.06445 -3.26207 1.5
    endloop
  endfacet
  facet normal -0 0 1
    outer loop
      vertex 0.910905 -1.43536 1.5
      vertex 2.06445 -3.26207 1.5
      vertex 1.08362 -1.30987 1.5
    endloop
  endfacet
  facet normal 0 0 1
    outer loop
      vertex 2.06445 -3.26207 1.5
      vertex 0.910905 -1.43536 1.5
      vertex 1.77254 -3.37764 1.5
    endloop
  endfacet
  facet normal 0 0 1
    outer loop
      vertex 1.77254 -3.37764 1.5
      vertex 0.910905 -1.43536 1.5
      vertex 1.46845 -3.45572 1.5
    endloop
  endfacet
  facet normal -0 0 1
    outer loop
      vertex 0.723825 -1.53821 1.5
      vertex 1.46845 -3.45572 1.5
      vertex 0.910905 -1.43536 1.5
    endloop
  endfacet
  facet normal 0 0 1
    outer loop
      vertex 1.46845 -3.45572 1.5
      vertex 0.723825 -1.53821 1.5
      vertex 1.15698 -3.49507 1.5
    endloop
  endfacet
  facet normal -0 0 1
    outer loop
      vertex 0.525329 -1.6168 1.5
      vertex 1.15698 -3.49507 1.5
      vertex 0.723825 -1.53821 1.5
    endloop
  endfacet
  facet normal -0 0 1
    outer loop
      vertex 0.318548 -1.66989 1.5
      vertex 1.15698 -3.49507 1.5
      vertex 0.525329 -1.6168 1.5
    endloop
  endfacet
  facet normal -0 0 1
    outer loop
      vertex 0.106744 -1.69664 1.5
      vertex 1.15698 -3.49507 1.5
      vertex 0.318548 -1.66989 1.5
    endloop
  endfacet
  facet normal -0 0 1
    outer loop
      vertex -0.106744 -1.69664 1.5
      vertex 1.15698 -3.49507 1.5
      vertex 0.106744 -1.69664 1.5
    endloop
  endfacet
  facet normal 0 0 1
    outer loop
      vertex -1.15698 -3.49507 1.5
      vertex -0.106744 -1.69664 1.5
      vertex -0.318548 -1.66989 1.5
    endloop
  endfacet
  facet normal 0 0 1
    outer loop
      vertex -1.15698 -3.49507 1.5
      vertex -0.318548 -1.66989 1.5
      vertex -0.525329 -1.6168 1.5
    endloop
  endfacet
  facet normal 0 0 1
    outer loop
      vertex -1.15698 -3.49507 1.5
      vertex -0.525329 -1.6168 1.5
      vertex -0.723825 -1.53821 1.5
    endloop
  endfacet
  facet normal 0 0 1
    outer loop
      vertex -1.46845 -3.45572 1.5
      vertex -0.723825 -1.53821 1.5
      vertex -0.910905 -1.43536 1.5
    endloop
  endfacet
  facet normal 0 0 1
    outer loop
      vertex -2.06445 -3.26207 1.5
      vertex -0.910905 -1.43536 1.5
      vertex -1.08362 -1.30987 1.5
    endloop
  endfacet
  facet normal 0 0 1
    outer loop
      vertex -0.106744 -1.69664 1.5
      vertex -1.15698 -3.49507 1.5
      vertex 1.15698 -3.49507 1.5
    endloop
  endfacet
  facet normal 0 0 1
    outer loop
      vertex -2.59356 -2.92628 1.5
      vertex -1.08362 -1.30987 1.5
      vertex -1.23925 -1.16373 1.5
    endloop
  endfacet
  facet normal 0 0 1
    outer loop
      vertex -3.02254 -2.46946 1.5
      vertex -1.23925 -1.16373 1.5
      vertex -1.37533 -0.999234 1.5
    endloop
  endfacet
  facet normal 0 0 1
    outer loop
      vertex -0.723825 -1.53821 1.5
      vertex -1.46845 -3.45572 1.5
      vertex -1.15698 -3.49507 1.5
    endloop
  endfacet
  facet normal 0 0 1
    outer loop
      vertex -3.32444 -1.92031 1.5
      vertex -1.37533 -0.999234 1.5
      vertex -1.48972 -0.818981 1.5
    endloop
  endfacet
  facet normal 0 0 1
    outer loop
      vertex -3.48029 -1.31333 1.5
      vertex -1.48972 -0.818981 1.5
      vertex -1.58062 -0.625812 1.5
    endloop
  endfacet
  facet normal 0 0 1
    outer loop
      vertex -3.5 -1 1.5
      vertex -1.58062 -0.625812 1.5
      vertex -1.64659 -0.422772 1.5
    endloop
  endfacet
  facet normal 0 0 1
    outer loop
      vertex -3.5 -1 1.5
      vertex -1.64659 -0.422772 1.5
      vertex -1.68659 -0.213066 1.5
    endloop
  endfacet
  facet normal 0 0 1
    outer loop
      vertex -0.910905 -1.43536 1.5
      vertex -1.77254 -3.37764 1.5
      vertex -1.46845 -3.45572 1.5
    endloop
  endfacet
  facet normal 0 0 1
    outer loop
      vertex -3.5 -1 1.5
      vertex -1.68659 -0.213066 1.5
      vertex -1.7 0 1.5
    endloop
  endfacet
  facet normal -0 0 1
    outer loop
      vertex -3.19077 2.20438 1.5
      vertex -1.37533 0.999234 1.5
      vertex -3.02254 2.46946 1.5
    endloop
  endfacet
  facet normal -0 0 1
    outer loop
      vertex -3.32444 1.92031 1.5
      vertex -1.37533 0.999234 1.5
      vertex -3.19077 2.20438 1.5
    endloop
  endfacet
  facet normal 0 0 1
    outer loop
      vertex -3.5 -1 1.5
      vertex -1.7 0 1.5
      vertex -3.5 1 1.5
    endloop
  endfacet
  facet normal 0 0 1
    outer loop
      vertex -1.37533 0.999234 1.5
      vertex -3.32444 1.92031 1.5
      vertex -1.48972 0.818981 1.5
    endloop
  endfacet
  facet normal 0 0 1
    outer loop
      vertex -1.58062 -0.625812 1.5
      vertex -3.5 -1 1.5
      vertex -3.48029 -1.31333 1.5
    endloop
  endfacet
  facet normal -0 0 1
    outer loop
      vertex -3.42146 1.62172 1.5
      vertex -1.48972 0.818981 1.5
      vertex -3.32444 1.92031 1.5
    endloop
  endfacet
  facet normal 0 0 1
    outer loop
      vertex -0.910905 -1.43536 1.5
      vertex -2.06445 -3.26207 1.5
      vertex -1.77254 -3.37764 1.5
    endloop
  endfacet
  facet normal -0 0 1
    outer loop
      vertex -3.48029 1.31333 1.5
      vertex -1.48972 0.818981 1.5
      vertex -3.42146 1.62172 1.5
    endloop
  endfacet
  facet normal 0 0 1
    outer loop
      vertex -1.08362 -1.30987 1.5
      vertex -2.33957 -3.11082 1.5
      vertex -2.06445 -3.26207 1.5
    endloop
  endfacet
  facet normal 0 0 1
    outer loop
      vertex -1.48972 0.818981 1.5
      vertex -3.48029 1.31333 1.5
      vertex -1.58062 0.625812 1.5
    endloop
  endfacet
  facet normal 0 0 1
    outer loop
      vertex -1.08362 -1.30987 1.5
      vertex -2.59356 -2.92628 1.5
      vertex -2.33957 -3.11082 1.5
    endloop
  endfacet
  facet normal -0 0 1
    outer loop
      vertex -3.5 1 1.5
      vertex -1.58062 0.625812 1.5
      vertex -3.48029 1.31333 1.5
    endloop
  endfacet
  facet normal 0 0 1
    outer loop
      vertex -1.23925 -1.16373 1.5
      vertex -2.82242 -2.71137 1.5
      vertex -2.59356 -2.92628 1.5
    endloop
  endfacet
  facet normal 0 0 1
    outer loop
      vertex -1.58062 0.625812 1.5
      vertex -3.5 1 1.5
      vertex -1.64659 0.422772 1.5
    endloop
  endfacet
  facet normal 0 0 1
    outer loop
      vertex -1.23925 -1.16373 1.5
      vertex -3.02254 -2.46946 1.5
      vertex -2.82242 -2.71137 1.5
    endloop
  endfacet
  facet normal 0 0 1
    outer loop
      vertex -1.64659 0.422772 1.5
      vertex -3.5 1 1.5
      vertex -1.68659 0.213066 1.5
    endloop
  endfacet
  facet normal 0 0 1
    outer loop
      vertex -1.37533 -0.999234 1.5
      vertex -3.19077 -2.20438 1.5
      vertex -3.02254 -2.46946 1.5
    endloop
  endfacet
  facet normal 0 0 1
    outer loop
      vertex -1.68659 0.213066 1.5
      vertex -3.5 1 1.5
      vertex -1.7 0 1.5
    endloop
  endfacet
  facet normal 0 0 1
    outer loop
      vertex -1.37533 -0.999234 1.5
      vertex -3.32444 -1.92031 1.5
      vertex -3.19077 -2.20438 1.5
    endloop
  endfacet
  facet normal 0 0 1
    outer loop
      vertex -1.48972 -0.818981 1.5
      vertex -3.42146 -1.62172 1.5
      vertex -3.32444 -1.92031 1.5
    endloop
  endfacet
  facet normal 0 0 1
    outer loop
      vertex -1.48972 -0.818981 1.5
      vertex -3.48029 -1.31333 1.5
      vertex -3.42146 -1.62172 1.5
    endloop
  endfacet
  facet normal 0.904831 0.425771 0
    outer loop
      vertex 3.32444 1.92031 1.5
      vertex 3.19077 2.20438 0
      vertex 3.19077 2.20438 1.5
    endloop
  endfacet
  facet normal 0.904831 0.425771 0
    outer loop
      vertex 3.19077 2.20438 0
      vertex 3.32444 1.92031 1.5
      vertex 3.32444 1.92031 0
    endloop
  endfacet
  facet normal -0.12534 -0.992114 0
    outer loop
      vertex -1.46845 -3.45572 0
      vertex -1.15698 -3.49507 1.5
      vertex -1.46845 -3.45572 1.5
    endloop
  endfacet
  facet normal -0.12534 -0.992114 -0
    outer loop
      vertex -1.15698 -3.49507 1.5
      vertex -1.46845 -3.45572 0
      vertex -1.15698 -3.49507 0
    endloop
  endfacet
  facet normal -0.844321 -0.535838 0
    outer loop
      vertex -3.02254 -2.46946 0
      vertex -3.19077 -2.20438 1.5
      vertex -3.19077 -2.20438 0
    endloop
  endfacet
  facet normal -0.844321 -0.535838 0
    outer loop
      vertex -3.19077 -2.20438 1.5
      vertex -3.02254 -2.46946 0
      vertex -3.02254 -2.46946 1.5
    endloop
  endfacet
  facet normal 0.770522 -0.637414 0
    outer loop
      vertex 2.82242 -2.71137 1.5
      vertex 3.02254 -2.46946 0
      vertex 3.02254 -2.46946 1.5
    endloop
  endfacet
  facet normal 0.770522 -0.637414 0
    outer loop
      vertex 3.02254 -2.46946 0
      vertex 2.82242 -2.71137 1.5
      vertex 2.82242 -2.71137 0
    endloop
  endfacet
  facet normal -0.904831 0.425771 0
    outer loop
      vertex -3.32444 1.92031 0
      vertex -3.19077 2.20438 1.5
      vertex -3.19077 2.20438 0
    endloop
  endfacet
  facet normal -0.904831 0.425771 0
    outer loop
      vertex -3.19077 2.20438 1.5
      vertex -3.32444 1.92031 0
      vertex -3.32444 1.92031 1.5
    endloop
  endfacet
  facet normal -0.951054 0.309023 0
    outer loop
      vertex -3.42146 1.62172 0
      vertex -3.32444 1.92031 1.5
      vertex -3.32444 1.92031 0
    endloop
  endfacet
  facet normal -0.951054 0.309023 0
    outer loop
      vertex -3.32444 1.92031 1.5
      vertex -3.42146 1.62172 0
      vertex -3.42146 1.62172 1.5
    endloop
  endfacet
  facet normal 0 -1 0
    outer loop
      vertex -1.15698 -3.49507 0
      vertex 1.15698 -3.49507 1.5
      vertex -1.15698 -3.49507 1.5
    endloop
  endfacet
  facet normal 0 -1 -0
    outer loop
      vertex 1.15698 -3.49507 1.5
      vertex -1.15698 -3.49507 0
      vertex 1.15698 -3.49507 0
    endloop
  endfacet
  facet normal 0.904831 -0.425771 0
    outer loop
      vertex 3.19077 -2.20438 1.5
      vertex 3.32444 -1.92031 0
      vertex 3.32444 -1.92031 1.5
    endloop
  endfacet
  facet normal 0.904831 -0.425771 0
    outer loop
      vertex 3.32444 -1.92031 0
      vertex 3.19077 -2.20438 1.5
      vertex 3.19077 -2.20438 0
    endloop
  endfacet
  facet normal 1 -0 0
    outer loop
      vertex 3.5 -1 1.5
      vertex 3.5 1 0
      vertex 3.5 1 1.5
    endloop
  endfacet
  facet normal 1 0 0
    outer loop
      vertex 3.5 1 0
      vertex 3.5 -1 1.5
      vertex 3.5 -1 0
    endloop
  endfacet
  facet normal -0.982286 0.187386 0
    outer loop
      vertex -3.48029 1.31333 0
      vertex -3.42146 1.62172 1.5
      vertex -3.42146 1.62172 0
    endloop
  endfacet
  facet normal -0.982286 0.187386 0
    outer loop
      vertex -3.42146 1.62172 1.5
      vertex -3.48029 1.31333 0
      vertex -3.48029 1.31333 1.5
    endloop
  endfacet
  facet normal -0.770522 0.637414 0
    outer loop
      vertex -3.02254 2.46946 0
      vertex -2.82242 2.71137 1.5
      vertex -2.82242 2.71137 0
    endloop
  endfacet
  facet normal -0.770522 0.637414 0
    outer loop
      vertex -2.82242 2.71137 1.5
      vertex -3.02254 2.46946 0
      vertex -3.02254 2.46946 1.5
    endloop
  endfacet
  facet normal 0.982286 0.187386 0
    outer loop
      vertex 3.48029 1.31333 1.5
      vertex 3.42146 1.62172 0
      vertex 3.42146 1.62172 1.5
    endloop
  endfacet
  facet normal 0.982286 0.187386 0
    outer loop
      vertex 3.42146 1.62172 0
      vertex 3.48029 1.31333 1.5
      vertex 3.48029 1.31333 0
    endloop
  endfacet
  facet normal 0 0 -1
    outer loop
      vertex 1.58062 -0.625812 0
      vertex 3.5 -1 0
      vertex 3.48029 -1.31333 0
    endloop
  endfacet
  facet normal 0 0 -1
    outer loop
      vertex 3.5 -1 0
      vertex 1.7 0 0
      vertex 3.5 1 0
    endloop
  endfacet
  facet normal 0 0 -1
    outer loop
      vertex 1.48972 -0.818981 0
      vertex 3.48029 -1.31333 0
      vertex 3.42146 -1.62172 0
    endloop
  endfacet
  facet normal 0 0 -1
    outer loop
      vertex 1.68659 0.213066 0
      vertex 3.5 1 0
      vertex 1.7 0 0
    endloop
  endfacet
  facet normal 0 0 -1
    outer loop
      vertex 1.48972 -0.818981 0
      vertex 3.42146 -1.62172 0
      vertex 3.32444 -1.92031 0
    endloop
  endfacet
  facet normal 0 0 -1
    outer loop
      vertex 1.64659 0.422772 0
      vertex 3.5 1 0
      vertex 1.68659 0.213066 0
    endloop
  endfacet
  facet normal 0 0 -1
    outer loop
      vertex 1.37533 -0.999234 0
      vertex 3.32444 -1.92031 0
      vertex 3.19077 -2.20438 0
    endloop
  endfacet
  facet normal 0 0 -1
    outer loop
      vertex 1.58062 0.625812 0
      vertex 3.5 1 0
      vertex 1.64659 0.422772 0
    endloop
  endfacet
  facet normal 0 0 -1
    outer loop
      vertex 1.37533 -0.999234 0
      vertex 3.19077 -2.20438 0
      vertex 3.02254 -2.46946 0
    endloop
  endfacet
  facet normal -0 0 -1
    outer loop
      vertex 3.5 1 0
      vertex 1.58062 0.625812 0
      vertex 3.48029 1.31333 0
    endloop
  endfacet
  facet normal 0 0 -1
    outer loop
      vertex 1.23925 -1.16373 0
      vertex 3.02254 -2.46946 0
      vertex 2.82242 -2.71137 0
    endloop
  endfacet
  facet normal 0 0 -1
    outer loop
      vertex 1.48972 0.818981 0
      vertex 3.48029 1.31333 0
      vertex 1.58062 0.625812 0
    endloop
  endfacet
  facet normal 0 0 -1
    outer loop
      vertex 1.23925 -1.16373 0
      vertex 2.82242 -2.71137 0
      vertex 2.59356 -2.92628 0
    endloop
  endfacet
  facet normal -0 0 -1
    outer loop
      vertex 3.48029 1.31333 0
      vertex 1.48972 0.818981 0
      vertex 3.42146 1.62172 0
    endloop
  endfacet
  facet normal 0 0 -1
    outer loop
      vertex 1.08362 -1.30987 0
      vertex 2.59356 -2.92628 0
      vertex 2.33957 -3.11082 0
    endloop
  endfacet
  facet normal -0 0 -1
    outer loop
      vertex 3.42146 1.62172 0
      vertex 1.48972 0.818981 0
      vertex 3.32444 1.92031 0
    endloop
  endfacet
  facet normal 0 0 -1
    outer loop
      vertex 1.08362 -1.30987 0
      vertex 2.33957 -3.11082 0
      vertex 2.06445 -3.26207 0
    endloop
  endfacet
  facet normal 0 0 -1
    outer loop
      vertex 1.37533 0.999234 0
      vertex 3.32444 1.92031 0
      vertex 1.48972 0.818981 0
    endloop
  endfacet
  facet normal 0 0 -1
    outer loop
      vertex 0.910905 -1.43536 0
      vertex 2.06445 -3.26207 0
      vertex 1.77254 -3.37764 0
    endloop
  endfacet
  facet normal -0 0 -1
    outer loop
      vertex 3.32444 1.92031 0
      vertex 1.37533 0.999234 0
      vertex 3.19077 2.20438 0
    endloop
  endfacet
  facet normal -0 0 -1
    outer loop
      vertex 3.19077 2.20438 0
      vertex 1.37533 0.999234 0
      vertex 3.02254 2.46946 0
    endloop
  endfacet
  facet normal 0 0 -1
    outer loop
      vertex 3.5 -1 0
      vertex 1.68659 -0.213066 0
      vertex 1.7 0 0
    endloop
  endfacet
  facet normal 0 0 -1
    outer loop
      vertex 3.5 -1 0
      vertex 1.64659 -0.422772 0
      vertex 1.68659 -0.213066 0
    endloop
  endfacet
  facet normal 0 0 -1
    outer loop
      vertex 3.5 -1 0
      vertex 1.58062 -0.625812 0
      vertex 1.64659 -0.422772 0
    endloop
  endfacet
  facet normal 0 0 -1
    outer loop
      vertex 3.48029 -1.31333 0
      vertex 1.48972 -0.818981 0
      vertex 1.58062 -0.625812 0
    endloop
  endfacet
  facet normal 0 0 -1
    outer loop
      vertex 0.910905 -1.43536 0
      vertex 1.77254 -3.37764 0
      vertex 1.46845 -3.45572 0
    endloop
  endfacet
  facet normal 0 0 -1
    outer loop
      vertex 3.32444 -1.92031 0
      vertex 1.37533 -0.999234 0
      vertex 1.48972 -0.818981 0
    endloop
  endfacet
  facet normal 0 0 -1
    outer loop
      vertex 3.02254 -2.46946 0
      vertex 1.23925 -1.16373 0
      vertex 1.37533 -0.999234 0
    endloop
  endfacet
  facet normal 0 0 -1
    outer loop
      vertex 0.723825 -1.53821 0
      vertex 1.46845 -3.45572 0
      vertex 1.15698 -3.49507 0
    endloop
  endfacet
  facet normal 0 0 -1
    outer loop
      vertex 2.59356 -2.92628 0
      vertex 1.08362 -1.30987 0
      vertex 1.23925 -1.16373 0
    endloop
  endfacet
  facet normal 0 0 -1
    outer loop
      vertex 2.06445 -3.26207 0
      vertex 0.910905 -1.43536 0
      vertex 1.08362 -1.30987 0
    endloop
  endfacet
  facet normal 0 0 -1
    outer loop
      vertex 1.46845 -3.45572 0
      vertex 0.723825 -1.53821 0
      vertex 0.910905 -1.43536 0
    endloop
  endfacet
  facet normal 0 0 -1
    outer loop
      vertex 1.15698 -3.49507 0
      vertex 0.525329 -1.6168 0
      vertex 0.723825 -1.53821 0
    endloop
  endfacet
  facet normal 0 0 -1
    outer loop
      vertex 1.15698 -3.49507 0
      vertex 0.318548 -1.66989 0
      vertex 0.525329 -1.6168 0
    endloop
  endfacet
  facet normal 0 0 -1
    outer loop
      vertex 1.15698 -3.49507 0
      vertex 0.106744 -1.69664 0
      vertex 0.318548 -1.66989 0
    endloop
  endfacet
  facet normal 0 0 -1
    outer loop
      vertex 1.15698 -3.49507 0
      vertex -0.106744 -1.69664 0
      vertex 0.106744 -1.69664 0
    endloop
  endfacet
  facet normal 0 0 -1
    outer loop
      vertex -1.15698 -3.49507 0
      vertex -0.106744 -1.69664 0
      vertex 1.15698 -3.49507 0
    endloop
  endfacet
  facet normal -0 0 -1
    outer loop
      vertex -0.106744 -1.69664 0
      vertex -1.15698 -3.49507 0
      vertex -0.318548 -1.66989 0
    endloop
  endfacet
  facet normal -0 0 -1
    outer loop
      vertex -0.318548 -1.66989 0
      vertex -1.15698 -3.49507 0
      vertex -0.525329 -1.6168 0
    endloop
  endfacet
  facet normal -0 0 -1
    outer loop
      vertex -0.525329 -1.6168 0
      vertex -1.15698 -3.49507 0
      vertex -0.723825 -1.53821 0
    endloop
  endfacet
  facet normal 0 0 -1
    outer loop
      vertex -1.46845 -3.45572 0
      vertex -0.723825 -1.53821 0
      vertex -1.15698 -3.49507 0
    endloop
  endfacet
  facet normal -0 0 -1
    outer loop
      vertex -0.723825 -1.53821 0
      vertex -1.46845 -3.45572 0
      vertex -0.910905 -1.43536 0
    endloop
  endfacet
  facet normal 0 0 -1
    outer loop
      vertex -1.77254 -3.37764 0
      vertex -0.910905 -1.43536 0
      vertex -1.46845 -3.45572 0
    endloop
  endfacet
  facet normal 0 0 -1
    outer loop
      vertex -2.06445 -3.26207 0
      vertex -0.910905 -1.43536 0
      vertex -1.77254 -3.37764 0
    endloop
  endfacet
  facet normal -0 0 -1
    outer loop
      vertex -0.910905 -1.43536 0
      vertex -2.06445 -3.26207 0
      vertex -1.08362 -1.30987 0
    endloop
  endfacet
  facet normal 0 0 -1
    outer loop
      vertex -2.33957 -3.11082 0
      vertex -1.08362 -1.30987 0
      vertex -2.06445 -3.26207 0
    endloop
  endfacet
  facet normal 0 0 -1
    outer loop
      vertex -2.59356 -2.92628 0
      vertex -1.08362 -1.30987 0
      vertex -2.33957 -3.11082 0
    endloop
  endfacet
  facet normal -0 0 -1
    outer loop
      vertex -1.08362 -1.30987 0
      vertex -2.59356 -2.92628 0
      vertex -1.23925 -1.16373 0
    endloop
  endfacet
  facet normal 0 0 -1
    outer loop
      vertex -2.82242 -2.71137 0
      vertex -1.23925 -1.16373 0
      vertex -2.59356 -2.92628 0
    endloop
  endfacet
  facet normal -0 0 -1
    outer loop
      vertex -1.23925 -1.16373 0
      vertex -3.02254 -2.46946 0
      vertex -1.37533 -0.999234 0
    endloop
  endfacet
  facet normal 0 0 -1
    outer loop
      vertex -3.02254 -2.46946 0
      vertex -1.23925 -1.16373 0
      vertex -2.82242 -2.71137 0
    endloop
  endfacet
  facet normal 0 0 -1
    outer loop
      vertex 1.23925 1.16373 0
      vertex 3.02254 2.46946 0
      vertex 1.37533 0.999234 0
    endloop
  endfacet
  facet normal -0 0 -1
    outer loop
      vertex 3.02254 2.46946 0
      vertex 1.23925 1.16373 0
      vertex 2.82242 2.71137 0
    endloop
  endfacet
  facet normal -0 0 -1
    outer loop
      vertex 2.82242 2.71137 0
      vertex 1.23925 1.16373 0
      vertex 2.59356 2.92628 0
    endloop
  endfacet
  facet normal 0 0 -1
    outer loop
      vertex 1.08362 1.30987 0
      vertex 2.59356 2.92628 0
      vertex 1.23925 1.16373 0
    endloop
  endfacet
  facet normal -0 0 -1
    outer loop
      vertex 2.59356 2.92628 0
      vertex 1.08362 1.30987 0
      vertex 2.33957 3.11082 0
    endloop
  endfacet
  facet normal -0 0 -1
    outer loop
      vertex 2.33957 3.11082 0
      vertex 1.08362 1.30987 0
      vertex 2.06445 3.26207 0
    endloop
  endfacet
  facet normal 0 0 -1
    outer loop
      vertex 0.910905 1.43536 0
      vertex 2.06445 3.26207 0
      vertex 1.08362 1.30987 0
    endloop
  endfacet
  facet normal -0 0 -1
    outer loop
      vertex 2.06445 3.26207 0
      vertex 0.910905 1.43536 0
      vertex 1.77254 3.37764 0
    endloop
  endfacet
  facet normal -0 0 -1
    outer loop
      vertex 1.77254 3.37764 0
      vertex 0.910905 1.43536 0
      vertex 1.46845 3.45572 0
    endloop
  endfacet
  facet normal 0 0 -1
    outer loop
      vertex 0.723825 1.53821 0
      vertex 1.46845 3.45572 0
      vertex 0.910905 1.43536 0
    endloop
  endfacet
  facet normal -0 0 -1
    outer loop
      vertex 1.46845 3.45572 0
      vertex 0.723825 1.53821 0
      vertex 1.15698 3.49507 0
    endloop
  endfacet
  facet normal 0 0 -1
    outer loop
      vertex 0.525329 1.6168 0
      vertex 1.15698 3.49507 0
      vertex 0.723825 1.53821 0
    endloop
  endfacet
  facet normal 0 0 -1
    outer loop
      vertex 0.318548 1.66989 0
      vertex 1.15698 3.49507 0
      vertex 0.525329 1.6168 0
    endloop
  endfacet
  facet normal 0 0 -1
    outer loop
      vertex 0.106744 1.69664 0
      vertex 1.15698 3.49507 0
      vertex 0.318548 1.66989 0
    endloop
  endfacet
  facet normal 0 0 -1
    outer loop
      vertex -0.106744 1.69664 0
      vertex 1.15698 3.49507 0
      vertex 0.106744 1.69664 0
    endloop
  endfacet
  facet normal 0 0 -1
    outer loop
      vertex -1.15698 3.49507 0
      vertex -0.106744 1.69664 0
      vertex -0.318548 1.66989 0
    endloop
  endfacet
  facet normal 0 0 -1
    outer loop
      vertex -1.15698 3.49507 0
      vertex -0.318548 1.66989 0
      vertex -0.525329 1.6168 0
    endloop
  endfacet
  facet normal 0 0 -1
    outer loop
      vertex -1.15698 3.49507 0
      vertex -0.525329 1.6168 0
      vertex -0.723825 1.53821 0
    endloop
  endfacet
  facet normal 0 0 -1
    outer loop
      vertex -1.46845 3.45572 0
      vertex -0.723825 1.53821 0
      vertex -0.910905 1.43536 0
    endloop
  endfacet
  facet normal 0 0 -1
    outer loop
      vertex -2.06445 3.26207 0
      vertex -0.910905 1.43536 0
      vertex -1.08362 1.30987 0
    endloop
  endfacet
  facet normal 0 0 -1
    outer loop
      vertex -0.106744 1.69664 0
      vertex -1.15698 3.49507 0
      vertex 1.15698 3.49507 0
    endloop
  endfacet
  facet normal 0 0 -1
    outer loop
      vertex -2.59356 2.92628 0
      vertex -1.08362 1.30987 0
      vertex -1.23925 1.16373 0
    endloop
  endfacet
  facet normal 0 0 -1
    outer loop
      vertex -3.02254 2.46946 0
      vertex -1.23925 1.16373 0
      vertex -1.37533 0.999234 0
    endloop
  endfacet
  facet normal 0 0 -1
    outer loop
      vertex -0.723825 1.53821 0
      vertex -1.46845 3.45572 0
      vertex -1.15698 3.49507 0
    endloop
  endfacet
  facet normal 0 0 -1
    outer loop
      vertex -3.32444 1.92031 0
      vertex -1.37533 0.999234 0
      vertex -1.48972 0.818981 0
    endloop
  endfacet
  facet normal 0 0 -1
    outer loop
      vertex -3.48029 1.31333 0
      vertex -1.48972 0.818981 0
      vertex -1.58062 0.625812 0
    endloop
  endfacet
  facet normal 0 0 -1
    outer loop
      vertex -3.5 1 0
      vertex -1.58062 0.625812 0
      vertex -1.64659 0.422772 0
    endloop
  endfacet
  facet normal 0 0 -1
    outer loop
      vertex -3.5 1 0
      vertex -1.64659 0.422772 0
      vertex -1.68659 0.213066 0
    endloop
  endfacet
  facet normal 0 0 -1
    outer loop
      vertex -0.910905 1.43536 0
      vertex -1.77254 3.37764 0
      vertex -1.46845 3.45572 0
    endloop
  endfacet
  facet normal 0 0 -1
    outer loop
      vertex -3.5 1 0
      vertex -1.68659 0.213066 0
      vertex -1.7 0 0
    endloop
  endfacet
  facet normal 0 0 -1
    outer loop
      vertex -3.19077 -2.20438 0
      vertex -1.37533 -0.999234 0
      vertex -3.02254 -2.46946 0
    endloop
  endfacet
  facet normal 0 0 -1
    outer loop
      vertex -3.32444 -1.92031 0
      vertex -1.37533 -0.999234 0
      vertex -3.19077 -2.20438 0
    endloop
  endfacet
  facet normal 0 0 -1
    outer loop
      vertex -3.5 1 0
      vertex -1.7 0 0
      vertex -3.5 -1 0
    endloop
  endfacet
  facet normal -0 0 -1
    outer loop
      vertex -1.37533 -0.999234 0
      vertex -3.32444 -1.92031 0
      vertex -1.48972 -0.818981 0
    endloop
  endfacet
  facet normal 0 0 -1
    outer loop
      vertex -1.58062 0.625812 0
      vertex -3.5 1 0
      vertex -3.48029 1.31333 0
    endloop
  endfacet
  facet normal 0 0 -1
    outer loop
      vertex -3.42146 -1.62172 0
      vertex -1.48972 -0.818981 0
      vertex -3.32444 -1.92031 0
    endloop
  endfacet
  facet normal 0 0 -1
    outer loop
      vertex -0.910905 1.43536 0
      vertex -2.06445 3.26207 0
      vertex -1.77254 3.37764 0
    endloop
  endfacet
  facet normal 0 0 -1
    outer loop
      vertex -3.48029 -1.31333 0
      vertex -1.48972 -0.818981 0
      vertex -3.42146 -1.62172 0
    endloop
  endfacet
  facet normal 0 0 -1
    outer loop
      vertex -1.08362 1.30987 0
      vertex -2.33957 3.11082 0
      vertex -2.06445 3.26207 0
    endloop
  endfacet
  facet normal -0 0 -1
    outer loop
      vertex -1.48972 -0.818981 0
      vertex -3.48029 -1.31333 0
      vertex -1.58062 -0.625812 0
    endloop
  endfacet
  facet normal 0 0 -1
    outer loop
      vertex -1.08362 1.30987 0
      vertex -2.59356 2.92628 0
      vertex -2.33957 3.11082 0
    endloop
  endfacet
  facet normal 0 0 -1
    outer loop
      vertex -3.5 -1 0
      vertex -1.58062 -0.625812 0
      vertex -3.48029 -1.31333 0
    endloop
  endfacet
  facet normal 0 0 -1
    outer loop
      vertex -1.23925 1.16373 0
      vertex -2.82242 2.71137 0
      vertex -2.59356 2.92628 0
    endloop
  endfacet
  facet normal -0 0 -1
    outer loop
      vertex -1.58062 -0.625812 0
      vertex -3.5 -1 0
      vertex -1.64659 -0.422772 0
    endloop
  endfacet
  facet normal 0 0 -1
    outer loop
      vertex -1.23925 1.16373 0
      vertex -3.02254 2.46946 0
      vertex -2.82242 2.71137 0
    endloop
  endfacet
  facet normal -0 0 -1
    outer loop
      vertex -1.64659 -0.422772 0
      vertex -3.5 -1 0
      vertex -1.68659 -0.213066 0
    endloop
  endfacet
  facet normal 0 0 -1
    outer loop
      vertex -1.37533 0.999234 0
      vertex -3.19077 2.20438 0
      vertex -3.02254 2.46946 0
    endloop
  endfacet
  facet normal -0 0 -1
    outer loop
      vertex -1.68659 -0.213066 0
      vertex -3.5 -1 0
      vertex -1.7 0 0
    endloop
  endfacet
  facet normal 0 0 -1
    outer loop
      vertex -1.37533 0.999234 0
      vertex -3.32444 1.92031 0
      vertex -3.19077 2.20438 0
    endloop
  endfacet
  facet normal 0 0 -1
    outer loop
      vertex -1.48972 0.818981 0
      vertex -3.42146 1.62172 0
      vertex -3.32444 1.92031 0
    endloop
  endfacet
  facet normal 0 0 -1
    outer loop
      vertex -1.48972 0.818981 0
      vertex -3.48029 1.31333 0
      vertex -3.42146 1.62172 0
    endloop
  endfacet
  facet normal -0.904831 -0.425771 0
    outer loop
      vertex -3.19077 -2.20438 0
      vertex -3.32444 -1.92031 1.5
      vertex -3.32444 -1.92031 0
    endloop
  endfacet
  facet normal -0.904831 -0.425771 0
    outer loop
      vertex -3.32444 -1.92031 1.5
      vertex -3.19077 -2.20438 0
      vertex -3.19077 -2.20438 1.5
    endloop
  endfacet
  facet normal -0.951054 -0.309023 0
    outer loop
      vertex -3.32444 -1.92031 0
      vertex -3.42146 -1.62172 1.5
      vertex -3.42146 -1.62172 0
    endloop
  endfacet
  facet normal -0.951054 -0.309023 0
    outer loop
      vertex -3.42146 -1.62172 1.5
      vertex -3.32444 -1.92031 0
      vertex -3.32444 -1.92031 1.5
    endloop
  endfacet
  facet normal 0.248699 -0.968581 0
    outer loop
      vertex 1.46845 -3.45572 0
      vertex 1.77254 -3.37764 1.5
      vertex 1.46845 -3.45572 1.5
    endloop
  endfacet
  facet normal 0.248699 -0.968581 0
    outer loop
      vertex 1.77254 -3.37764 1.5
      vertex 1.46845 -3.45572 0
      vertex 1.77254 -3.37764 0
    endloop
  endfacet
  facet normal 0.12534 -0.992114 0
    outer loop
      vertex 1.15698 -3.49507 0
      vertex 1.46845 -3.45572 1.5
      vertex 1.15698 -3.49507 1.5
    endloop
  endfacet
  facet normal 0.12534 -0.992114 0
    outer loop
      vertex 1.46845 -3.45572 1.5
      vertex 1.15698 -3.49507 0
      vertex 1.46845 -3.45572 0
    endloop
  endfacet
  facet normal -0.36811 -0.929782 0
    outer loop
      vertex -2.06445 -3.26207 0
      vertex -1.77254 -3.37764 1.5
      vertex -2.06445 -3.26207 1.5
    endloop
  endfacet
  facet normal -0.36811 -0.929782 -0
    outer loop
      vertex -1.77254 -3.37764 1.5
      vertex -2.06445 -3.26207 0
      vertex -1.77254 -3.37764 0
    endloop
  endfacet
  facet normal -0.684541 -0.728975 0
    outer loop
      vertex -2.82242 -2.71137 0
      vertex -2.59356 -2.92628 1.5
      vertex -2.82242 -2.71137 1.5
    endloop
  endfacet
  facet normal -0.684541 -0.728975 -0
    outer loop
      vertex -2.59356 -2.92628 1.5
      vertex -2.82242 -2.71137 0
      vertex -2.59356 -2.92628 0
    endloop
  endfacet
  facet normal -0.481757 -0.876305 0
    outer loop
      vertex -2.33957 -3.11082 0
      vertex -2.06445 -3.26207 1.5
      vertex -2.33957 -3.11082 1.5
    endloop
  endfacet
  facet normal -0.481757 -0.876305 -0
    outer loop
      vertex -2.06445 -3.26207 1.5
      vertex -2.33957 -3.11082 0
      vertex -2.06445 -3.26207 0
    endloop
  endfacet
  facet normal 0.684541 -0.728975 0
    outer loop
      vertex 2.59356 -2.92628 0
      vertex 2.82242 -2.71137 1.5
      vertex 2.59356 -2.92628 1.5
    endloop
  endfacet
  facet normal 0.684541 -0.728975 0
    outer loop
      vertex 2.82242 -2.71137 1.5
      vertex 2.59356 -2.92628 0
      vertex 2.82242 -2.71137 0
    endloop
  endfacet
  facet normal 0.587797 -0.809009 0
    outer loop
      vertex 2.33957 -3.11082 0
      vertex 2.59356 -2.92628 1.5
      vertex 2.33957 -3.11082 1.5
    endloop
  endfacet
  facet normal 0.587797 -0.809009 0
    outer loop
      vertex 2.59356 -2.92628 1.5
      vertex 2.33957 -3.11082 0
      vertex 2.59356 -2.92628 0
    endloop
  endfacet
  facet normal 0.998027 -0.0627808 0
    outer loop
      vertex 3.48029 -1.31333 1.5
      vertex 3.5 -1 0
      vertex 3.5 -1 1.5
    endloop
  endfacet
  facet normal 0.998027 -0.0627808 0
    outer loop
      vertex 3.5 -1 0
      vertex 3.48029 -1.31333 1.5
      vertex 3.48029 -1.31333 0
    endloop
  endfacet
  facet normal -0.998027 0.0627808 0
    outer loop
      vertex -3.5 1 0
      vertex -3.48029 1.31333 1.5
      vertex -3.48029 1.31333 0
    endloop
  endfacet
  facet normal -0.998027 0.0627808 0
    outer loop
      vertex -3.48029 1.31333 1.5
      vertex -3.5 1 0
      vertex -3.5 1 1.5
    endloop
  endfacet
  facet normal -0.844321 0.535838 0
    outer loop
      vertex -3.19077 2.20438 0
      vertex -3.02254 2.46946 1.5
      vertex -3.02254 2.46946 0
    endloop
  endfacet
  facet normal -0.844321 0.535838 0
    outer loop
      vertex -3.02254 2.46946 1.5
      vertex -3.19077 2.20438 0
      vertex -3.19077 2.20438 1.5
    endloop
  endfacet
  facet normal -0.684541 0.728975 0
    outer loop
      vertex -2.59356 2.92628 0
      vertex -2.82242 2.71137 1.5
      vertex -2.59356 2.92628 1.5
    endloop
  endfacet
  facet normal -0.684541 0.728975 0
    outer loop
      vertex -2.82242 2.71137 1.5
      vertex -2.59356 2.92628 0
      vertex -2.82242 2.71137 0
    endloop
  endfacet
  facet normal -0.248699 0.968581 0
    outer loop
      vertex -1.46845 3.45572 0
      vertex -1.77254 3.37764 1.5
      vertex -1.46845 3.45572 1.5
    endloop
  endfacet
  facet normal -0.248699 0.968581 0
    outer loop
      vertex -1.77254 3.37764 1.5
      vertex -1.46845 3.45572 0
      vertex -1.77254 3.37764 0
    endloop
  endfacet
  facet normal 0.770522 0.637414 0
    outer loop
      vertex 3.02254 2.46946 1.5
      vertex 2.82242 2.71137 0
      vertex 2.82242 2.71137 1.5
    endloop
  endfacet
  facet normal 0.770522 0.637414 0
    outer loop
      vertex 2.82242 2.71137 0
      vertex 3.02254 2.46946 1.5
      vertex 3.02254 2.46946 0
    endloop
  endfacet
  facet normal 0.951054 0.309023 0
    outer loop
      vertex 3.42146 1.62172 1.5
      vertex 3.32444 1.92031 0
      vertex 3.32444 1.92031 1.5
    endloop
  endfacet
  facet normal 0.951054 0.309023 0
    outer loop
      vertex 3.32444 1.92031 0
      vertex 3.42146 1.62172 1.5
      vertex 3.42146 1.62172 0
    endloop
  endfacet
  facet normal 0.998027 0.0627808 0
    outer loop
      vertex 3.5 1 1.5
      vertex 3.48029 1.31333 0
      vertex 3.48029 1.31333 1.5
    endloop
  endfacet
  facet normal 0.998027 0.0627808 0
    outer loop
      vertex 3.48029 1.31333 0
      vertex 3.5 1 1.5
      vertex 3.5 1 0
    endloop
  endfacet
  facet normal 0 1 -0
    outer loop
      vertex 1.15698 3.49507 0
      vertex -1.15698 3.49507 1.5
      vertex 1.15698 3.49507 1.5
    endloop
  endfacet
  facet normal 0 1 0
    outer loop
      vertex -1.15698 3.49507 1.5
      vertex 1.15698 3.49507 0
      vertex -1.15698 3.49507 0
    endloop
  endfacet
  facet normal -0.12534 0.992114 0
    outer loop
      vertex -1.15698 3.49507 0
      vertex -1.46845 3.45572 1.5
      vertex -1.15698 3.49507 1.5
    endloop
  endfacet
  facet normal -0.12534 0.992114 0
    outer loop
      vertex -1.46845 3.45572 1.5
      vertex -1.15698 3.49507 0
      vertex -1.46845 3.45572 0
    endloop
  endfacet
  facet normal -0.982286 -0.187386 0
    outer loop
      vertex -3.42146 -1.62172 0
      vertex -3.48029 -1.31333 1.5
      vertex -3.48029 -1.31333 0
    endloop
  endfacet
  facet normal -0.982286 -0.187386 0
    outer loop
      vertex -3.48029 -1.31333 1.5
      vertex -3.42146 -1.62172 0
      vertex -3.42146 -1.62172 1.5
    endloop
  endfacet
  facet normal -0.998027 -0.0627808 0
    outer loop
      vertex -3.48029 -1.31333 0
      vertex -3.5 -1 1.5
      vertex -3.5 -1 0
    endloop
  endfacet
  facet normal -0.998027 -0.0627808 0
    outer loop
      vertex -3.5 -1 1.5
      vertex -3.48029 -1.31333 0
      vertex -3.48029 -1.31333 1.5
    endloop
  endfacet
  facet normal -0.248699 -0.968581 0
    outer loop
      vertex -1.77254 -3.37764 0
      vertex -1.46845 -3.45572 1.5
      vertex -1.77254 -3.37764 1.5
    endloop
  endfacet
  facet normal -0.248699 -0.968581 -0
    outer loop
      vertex -1.46845 -3.45572 1.5
      vertex -1.77254 -3.37764 0
      vertex -1.46845 -3.45572 0
    endloop
  endfacet
  facet normal -0.770522 -0.637414 0
    outer loop
      vertex -2.82242 -2.71137 0
      vertex -3.02254 -2.46946 1.5
      vertex -3.02254 -2.46946 0
    endloop
  endfacet
  facet normal -0.770522 -0.637414 0
    outer loop
      vertex -3.02254 -2.46946 1.5
      vertex -2.82242 -2.71137 0
      vertex -2.82242 -2.71137 1.5
    endloop
  endfacet
  facet normal -0.587797 -0.809009 0
    outer loop
      vertex -2.59356 -2.92628 0
      vertex -2.33957 -3.11082 1.5
      vertex -2.59356 -2.92628 1.5
    endloop
  endfacet
  facet normal -0.587797 -0.809009 -0
    outer loop
      vertex -2.33957 -3.11082 1.5
      vertex -2.59356 -2.92628 0
      vertex -2.33957 -3.11082 0
    endloop
  endfacet
  facet normal 0.481757 -0.876305 0
    outer loop
      vertex 2.06445 -3.26207 0
      vertex 2.33957 -3.11082 1.5
      vertex 2.06445 -3.26207 1.5
    endloop
  endfacet
  facet normal 0.481757 -0.876305 0
    outer loop
      vertex 2.33957 -3.11082 1.5
      vertex 2.06445 -3.26207 0
      vertex 2.33957 -3.11082 0
    endloop
  endfacet
  facet normal 0.36811 -0.929782 0
    outer loop
      vertex 1.77254 -3.37764 0
      vertex 2.06445 -3.26207 1.5
      vertex 1.77254 -3.37764 1.5
    endloop
  endfacet
  facet normal 0.36811 -0.929782 0
    outer loop
      vertex 2.06445 -3.26207 1.5
      vertex 1.77254 -3.37764 0
      vertex 2.06445 -3.26207 0
    endloop
  endfacet
  facet normal 0.844321 -0.535838 0
    outer loop
      vertex 3.02254 -2.46946 1.5
      vertex 3.19077 -2.20438 0
      vertex 3.19077 -2.20438 1.5
    endloop
  endfacet
  facet normal 0.844321 -0.535838 0
    outer loop
      vertex 3.19077 -2.20438 0
      vertex 3.02254 -2.46946 1.5
      vertex 3.02254 -2.46946 0
    endloop
  endfacet
  facet normal 0.982286 -0.187386 0
    outer loop
      vertex 3.42146 -1.62172 1.5
      vertex 3.48029 -1.31333 0
      vertex 3.48029 -1.31333 1.5
    endloop
  endfacet
  facet normal 0.982286 -0.187386 0
    outer loop
      vertex 3.48029 -1.31333 0
      vertex 3.42146 -1.62172 1.5
      vertex 3.42146 -1.62172 0
    endloop
  endfacet
  facet normal 0.951054 -0.309023 0
    outer loop
      vertex 3.32444 -1.92031 1.5
      vertex 3.42146 -1.62172 0
      vertex 3.42146 -1.62172 1.5
    endloop
  endfacet
  facet normal 0.951054 -0.309023 0
    outer loop
      vertex 3.42146 -1.62172 0
      vertex 3.32444 -1.92031 1.5
      vertex 3.32444 -1.92031 0
    endloop
  endfacet
  facet normal -0.587797 0.809009 0
    outer loop
      vertex -2.33957 3.11082 0
      vertex -2.59356 2.92628 1.5
      vertex -2.33957 3.11082 1.5
    endloop
  endfacet
  facet normal -0.587797 0.809009 0
    outer loop
      vertex -2.59356 2.92628 1.5
      vertex -2.33957 3.11082 0
      vertex -2.59356 2.92628 0
    endloop
  endfacet
  facet normal -0.481757 0.876305 0
    outer loop
      vertex -2.06445 3.26207 0
      vertex -2.33957 3.11082 1.5
      vertex -2.06445 3.26207 1.5
    endloop
  endfacet
  facet normal -0.481757 0.876305 0
    outer loop
      vertex -2.33957 3.11082 1.5
      vertex -2.06445 3.26207 0
      vertex -2.33957 3.11082 0
    endloop
  endfacet
  facet normal 0.12534 0.992114 -0
    outer loop
      vertex 1.46845 3.45572 0
      vertex 1.15698 3.49507 1.5
      vertex 1.46845 3.45572 1.5
    endloop
  endfacet
  facet normal 0.12534 0.992114 0
    outer loop
      vertex 1.15698 3.49507 1.5
      vertex 1.46845 3.45572 0
      vertex 1.15698 3.49507 0
    endloop
  endfacet
  facet normal 0.248699 0.968581 -0
    outer loop
      vertex 1.77254 3.37764 0
      vertex 1.46845 3.45572 1.5
      vertex 1.77254 3.37764 1.5
    endloop
  endfacet
  facet normal 0.248699 0.968581 0
    outer loop
      vertex 1.46845 3.45572 1.5
      vertex 1.77254 3.37764 0
      vertex 1.46845 3.45572 0
    endloop
  endfacet
  facet normal 0.844321 0.535838 0
    outer loop
      vertex 3.19077 2.20438 1.5
      vertex 3.02254 2.46946 0
      vertex 3.02254 2.46946 1.5
    endloop
  endfacet
  facet normal 0.844321 0.535838 0
    outer loop
      vertex 3.02254 2.46946 0
      vertex 3.19077 2.20438 1.5
      vertex 3.19077 2.20438 0
    endloop
  endfacet
  facet normal 0.684541 0.728975 -0
    outer loop
      vertex 2.82242 2.71137 0
      vertex 2.59356 2.92628 1.5
      vertex 2.82242 2.71137 1.5
    endloop
  endfacet
  facet normal 0.684541 0.728975 0
    outer loop
      vertex 2.59356 2.92628 1.5
      vertex 2.82242 2.71137 0
      vertex 2.59356 2.92628 0
    endloop
  endfacet
  facet normal 0.36811 0.929782 -0
    outer loop
      vertex 2.06445 3.26207 0
      vertex 1.77254 3.37764 1.5
      vertex 2.06445 3.26207 1.5
    endloop
  endfacet
  facet normal 0.36811 0.929782 0
    outer loop
      vertex 1.77254 3.37764 1.5
      vertex 2.06445 3.26207 0
      vertex 1.77254 3.37764 0
    endloop
  endfacet
  facet normal 0.481757 0.876305 -0
    outer loop
      vertex 2.33957 3.11082 0
      vertex 2.06445 3.26207 1.5
      vertex 2.33957 3.11082 1.5
    endloop
  endfacet
  facet normal 0.481757 0.876305 0
    outer loop
      vertex 2.06445 3.26207 1.5
      vertex 2.33957 3.11082 0
      vertex 2.06445 3.26207 0
    endloop
  endfacet
  facet normal 0.587797 0.809009 -0
    outer loop
      vertex 2.59356 2.92628 0
      vertex 2.33957 3.11082 1.5
      vertex 2.59356 2.92628 1.5
    endloop
  endfacet
  facet normal 0.587797 0.809009 0
    outer loop
      vertex 2.33957 3.11082 1.5
      vertex 2.59356 2.92628 0
      vertex 2.33957 3.11082 0
    endloop
  endfacet
  facet normal -0.904824 -0.425785 0
    outer loop
      vertex 1.58062 0.625812 0
      vertex 1.48972 0.818981 1.5
      vertex 1.48972 0.818981 0
    endloop
  endfacet
  facet normal -0.904824 -0.425785 0
    outer loop
      vertex 1.48972 0.818981 1.5
      vertex 1.58062 0.625812 0
      vertex 1.58062 0.625812 1.5
    endloop
  endfacet
  facet normal -0.844332 -0.53582 0
    outer loop
      vertex 1.48972 0.818981 0
      vertex 1.37533 0.999234 1.5
      vertex 1.37533 0.999234 0
    endloop
  endfacet
  facet normal -0.844332 -0.53582 0
    outer loop
      vertex 1.37533 0.999234 1.5
      vertex 1.48972 0.818981 0
      vertex 1.48972 0.818981 1.5
    endloop
  endfacet
  facet normal -0.368124 -0.929777 0
    outer loop
      vertex 0.525329 1.6168 0
      vertex 0.723825 1.53821 1.5
      vertex 0.525329 1.6168 1.5
    endloop
  endfacet
  facet normal -0.368124 -0.929777 -0
    outer loop
      vertex 0.723825 1.53821 1.5
      vertex 0.525329 1.6168 0
      vertex 0.723825 1.53821 0
    endloop
  endfacet
  facet normal 0.368124 -0.929777 0
    outer loop
      vertex -0.723825 1.53821 0
      vertex -0.525329 1.6168 1.5
      vertex -0.723825 1.53821 1.5
    endloop
  endfacet
  facet normal 0.368124 -0.929777 0
    outer loop
      vertex -0.525329 1.6168 1.5
      vertex -0.723825 1.53821 0
      vertex -0.525329 1.6168 0
    endloop
  endfacet
  facet normal 0.904824 -0.425785 0
    outer loop
      vertex -1.58062 0.625812 1.5
      vertex -1.48972 0.818981 0
      vertex -1.48972 0.818981 1.5
    endloop
  endfacet
  facet normal 0.904824 -0.425785 0
    outer loop
      vertex -1.48972 0.818981 0
      vertex -1.58062 0.625812 1.5
      vertex -1.58062 0.625812 0
    endloop
  endfacet
  facet normal -0.998025 0.062814 0
    outer loop
      vertex 1.68659 -0.213066 0
      vertex 1.7 0 1.5
      vertex 1.7 0 0
    endloop
  endfacet
  facet normal -0.998025 0.062814 0
    outer loop
      vertex 1.7 0 1.5
      vertex 1.68659 -0.213066 0
      vertex 1.68659 -0.213066 1.5
    endloop
  endfacet
  facet normal -0.684531 -0.728983 0
    outer loop
      vertex 1.08362 1.30987 0
      vertex 1.23925 1.16373 1.5
      vertex 1.08362 1.30987 1.5
    endloop
  endfacet
  facet normal -0.684531 -0.728983 -0
    outer loop
      vertex 1.23925 1.16373 1.5
      vertex 1.08362 1.30987 0
      vertex 1.23925 1.16373 0
    endloop
  endfacet
  facet normal 0 -1 0
    outer loop
      vertex -0.106744 1.69664 0
      vertex 0.106744 1.69664 1.5
      vertex -0.106744 1.69664 1.5
    endloop
  endfacet
  facet normal 0 -1 -0
    outer loop
      vertex 0.106744 1.69664 1.5
      vertex -0.106744 1.69664 0
      vertex 0.106744 1.69664 0
    endloop
  endfacet
  facet normal -0.587801 -0.809005 0
    outer loop
      vertex 0.910905 1.43536 0
      vertex 1.08362 1.30987 1.5
      vertex 0.910905 1.43536 1.5
    endloop
  endfacet
  facet normal -0.587801 -0.809005 -0
    outer loop
      vertex 1.08362 1.30987 1.5
      vertex 0.910905 1.43536 0
      vertex 1.08362 1.30987 0
    endloop
  endfacet
  facet normal 0.998025 -0.062814 0
    outer loop
      vertex -1.7 0 1.5
      vertex -1.68659 0.213066 0
      vertex -1.68659 0.213066 1.5
    endloop
  endfacet
  facet normal 0.998025 -0.062814 0
    outer loop
      vertex -1.68659 0.213066 0
      vertex -1.7 0 1.5
      vertex -1.7 0 0
    endloop
  endfacet
  facet normal 0.77052 -0.637416 0
    outer loop
      vertex -1.37533 0.999234 1.5
      vertex -1.23925 1.16373 0
      vertex -1.23925 1.16373 1.5
    endloop
  endfacet
  facet normal 0.77052 -0.637416 0
    outer loop
      vertex -1.23925 1.16373 0
      vertex -1.37533 0.999234 1.5
      vertex -1.37533 0.999234 0
    endloop
  endfacet
  facet normal 0.481761 -0.876303 0
    outer loop
      vertex -0.910905 1.43536 0
      vertex -0.723825 1.53821 1.5
      vertex -0.910905 1.43536 1.5
    endloop
  endfacet
  facet normal 0.481761 -0.876303 0
    outer loop
      vertex -0.723825 1.53821 1.5
      vertex -0.910905 1.43536 0
      vertex -0.723825 1.53821 0
    endloop
  endfacet
  facet normal 0.24868 -0.968586 0
    outer loop
      vertex -0.525329 1.6168 0
      vertex -0.318548 1.66989 1.5
      vertex -0.525329 1.6168 1.5
    endloop
  endfacet
  facet normal 0.24868 -0.968586 0
    outer loop
      vertex -0.318548 1.66989 1.5
      vertex -0.525329 1.6168 0
      vertex -0.318548 1.66989 0
    endloop
  endfacet
  facet normal 0.684531 0.728983 -0
    outer loop
      vertex -1.08362 -1.30987 0
      vertex -1.23925 -1.16373 1.5
      vertex -1.08362 -1.30987 1.5
    endloop
  endfacet
  facet normal 0.684531 0.728983 0
    outer loop
      vertex -1.23925 -1.16373 1.5
      vertex -1.08362 -1.30987 0
      vertex -1.23925 -1.16373 0
    endloop
  endfacet
  facet normal 0.904824 0.425785 0
    outer loop
      vertex -1.48972 -0.818981 1.5
      vertex -1.58062 -0.625812 0
      vertex -1.58062 -0.625812 1.5
    endloop
  endfacet
  facet normal 0.904824 0.425785 0
    outer loop
      vertex -1.58062 -0.625812 0
      vertex -1.48972 -0.818981 1.5
      vertex -1.48972 -0.818981 0
    endloop
  endfacet
  facet normal -0.904824 0.425785 0
    outer loop
      vertex 1.48972 -0.818981 0
      vertex 1.58062 -0.625812 1.5
      vertex 1.58062 -0.625812 0
    endloop
  endfacet
  facet normal -0.904824 0.425785 0
    outer loop
      vertex 1.58062 -0.625812 1.5
      vertex 1.48972 -0.818981 0
      vertex 1.48972 -0.818981 1.5
    endloop
  endfacet
  facet normal -0.481761 0.876303 0
    outer loop
      vertex 0.910905 -1.43536 0
      vertex 0.723825 -1.53821 1.5
      vertex 0.910905 -1.43536 1.5
    endloop
  endfacet
  facet normal -0.481761 0.876303 0
    outer loop
      vertex 0.723825 -1.53821 1.5
      vertex 0.910905 -1.43536 0
      vertex 0.723825 -1.53821 0
    endloop
  endfacet
  facet normal -0.951059 -0.30901 0
    outer loop
      vertex 1.64659 0.422772 0
      vertex 1.58062 0.625812 1.5
      vertex 1.58062 0.625812 0
    endloop
  endfacet
  facet normal -0.951059 -0.30901 0
    outer loop
      vertex 1.58062 0.625812 1.5
      vertex 1.64659 0.422772 0
      vertex 1.64659 0.422772 1.5
    endloop
  endfacet
  facet normal -0.77052 -0.637416 0
    outer loop
      vertex 1.37533 0.999234 0
      vertex 1.23925 1.16373 1.5
      vertex 1.23925 1.16373 0
    endloop
  endfacet
  facet normal -0.77052 -0.637416 0
    outer loop
      vertex 1.23925 1.16373 1.5
      vertex 1.37533 0.999234 0
      vertex 1.37533 0.999234 1.5
    endloop
  endfacet
  facet normal -0.24868 -0.968586 0
    outer loop
      vertex 0.318548 1.66989 0
      vertex 0.525329 1.6168 1.5
      vertex 0.318548 1.66989 1.5
    endloop
  endfacet
  facet normal -0.24868 -0.968586 -0
    outer loop
      vertex 0.525329 1.6168 1.5
      vertex 0.318548 1.66989 0
      vertex 0.525329 1.6168 0
    endloop
  endfacet
  facet normal -0.125301 -0.992119 0
    outer loop
      vertex 0.106744 1.69664 0
      vertex 0.318548 1.66989 1.5
      vertex 0.106744 1.69664 1.5
    endloop
  endfacet
  facet normal -0.125301 -0.992119 -0
    outer loop
      vertex 0.318548 1.66989 1.5
      vertex 0.106744 1.69664 0
      vertex 0.318548 1.66989 0
    endloop
  endfacet
  facet normal -0.481761 -0.876303 0
    outer loop
      vertex 0.723825 1.53821 0
      vertex 0.910905 1.43536 1.5
      vertex 0.723825 1.53821 1.5
    endloop
  endfacet
  facet normal -0.481761 -0.876303 -0
    outer loop
      vertex 0.910905 1.43536 1.5
      vertex 0.723825 1.53821 0
      vertex 0.910905 1.43536 0
    endloop
  endfacet
  facet normal 0.951059 -0.30901 0
    outer loop
      vertex -1.64659 0.422772 1.5
      vertex -1.58062 0.625812 0
      vertex -1.58062 0.625812 1.5
    endloop
  endfacet
  facet normal 0.951059 -0.30901 0
    outer loop
      vertex -1.58062 0.625812 0
      vertex -1.64659 0.422772 1.5
      vertex -1.64659 0.422772 0
    endloop
  endfacet
  facet normal 0.98229 -0.187365 0
    outer loop
      vertex -1.68659 0.213066 1.5
      vertex -1.64659 0.422772 0
      vertex -1.64659 0.422772 1.5
    endloop
  endfacet
  facet normal 0.98229 -0.187365 0
    outer loop
      vertex -1.64659 0.422772 0
      vertex -1.68659 0.213066 1.5
      vertex -1.68659 0.213066 0
    endloop
  endfacet
  facet normal 0.844332 -0.53582 0
    outer loop
      vertex -1.48972 0.818981 1.5
      vertex -1.37533 0.999234 0
      vertex -1.37533 0.999234 1.5
    endloop
  endfacet
  facet normal 0.844332 -0.53582 0
    outer loop
      vertex -1.37533 0.999234 0
      vertex -1.48972 0.818981 1.5
      vertex -1.48972 0.818981 0
    endloop
  endfacet
  facet normal 0.125301 -0.992119 0
    outer loop
      vertex -0.318548 1.66989 0
      vertex -0.106744 1.69664 1.5
      vertex -0.318548 1.66989 1.5
    endloop
  endfacet
  facet normal 0.125301 -0.992119 0
    outer loop
      vertex -0.106744 1.69664 1.5
      vertex -0.318548 1.66989 0
      vertex -0.106744 1.69664 0
    endloop
  endfacet
  facet normal 0.587801 -0.809005 0
    outer loop
      vertex -1.08362 1.30987 0
      vertex -0.910905 1.43536 1.5
      vertex -1.08362 1.30987 1.5
    endloop
  endfacet
  facet normal 0.587801 -0.809005 0
    outer loop
      vertex -0.910905 1.43536 1.5
      vertex -1.08362 1.30987 0
      vertex -0.910905 1.43536 0
    endloop
  endfacet
  facet normal 0.684531 -0.728983 0
    outer loop
      vertex -1.23925 1.16373 0
      vertex -1.08362 1.30987 1.5
      vertex -1.23925 1.16373 1.5
    endloop
  endfacet
  facet normal 0.684531 -0.728983 0
    outer loop
      vertex -1.08362 1.30987 1.5
      vertex -1.23925 1.16373 0
      vertex -1.08362 1.30987 0
    endloop
  endfacet
  facet normal -0.998025 -0.062814 0
    outer loop
      vertex 1.7 0 0
      vertex 1.68659 0.213066 1.5
      vertex 1.68659 0.213066 0
    endloop
  endfacet
  facet normal -0.998025 -0.062814 0
    outer loop
      vertex 1.68659 0.213066 1.5
      vertex 1.7 0 0
      vertex 1.7 0 1.5
    endloop
  endfacet
  facet normal 0.998025 0.062814 0
    outer loop
      vertex -1.68659 -0.213066 1.5
      vertex -1.7 0 0
      vertex -1.7 0 1.5
    endloop
  endfacet
  facet normal 0.998025 0.062814 0
    outer loop
      vertex -1.7 0 0
      vertex -1.68659 -0.213066 1.5
      vertex -1.68659 -0.213066 0
    endloop
  endfacet
  facet normal 0.844332 0.53582 0
    outer loop
      vertex -1.37533 -0.999234 1.5
      vertex -1.48972 -0.818981 0
      vertex -1.48972 -0.818981 1.5
    endloop
  endfacet
  facet normal 0.844332 0.53582 0
    outer loop
      vertex -1.48972 -0.818981 0
      vertex -1.37533 -0.999234 1.5
      vertex -1.37533 -0.999234 0
    endloop
  endfacet
  facet normal -0.951059 0.30901 0
    outer loop
      vertex 1.58062 -0.625812 0
      vertex 1.64659 -0.422772 1.5
      vertex 1.64659 -0.422772 0
    endloop
  endfacet
  facet normal -0.951059 0.30901 0
    outer loop
      vertex 1.64659 -0.422772 1.5
      vertex 1.58062 -0.625812 0
      vertex 1.58062 -0.625812 1.5
    endloop
  endfacet
  facet normal -0.77052 0.637416 0
    outer loop
      vertex 1.23925 -1.16373 0
      vertex 1.37533 -0.999234 1.5
      vertex 1.37533 -0.999234 0
    endloop
  endfacet
  facet normal -0.77052 0.637416 0
    outer loop
      vertex 1.37533 -0.999234 1.5
      vertex 1.23925 -1.16373 0
      vertex 1.23925 -1.16373 1.5
    endloop
  endfacet
  facet normal -0.125301 0.992119 0
    outer loop
      vertex 0.318548 -1.66989 0
      vertex 0.106744 -1.69664 1.5
      vertex 0.318548 -1.66989 1.5
    endloop
  endfacet
  facet normal -0.125301 0.992119 0
    outer loop
      vertex 0.106744 -1.69664 1.5
      vertex 0.318548 -1.66989 0
      vertex 0.106744 -1.69664 0
    endloop
  endfacet
  facet normal -0.587801 0.809005 0
    outer loop
      vertex 1.08362 -1.30987 0
      vertex 0.910905 -1.43536 1.5
      vertex 1.08362 -1.30987 1.5
    endloop
  endfacet
  facet normal -0.587801 0.809005 0
    outer loop
      vertex 0.910905 -1.43536 1.5
      vertex 1.08362 -1.30987 0
      vertex 0.910905 -1.43536 0
    endloop
  endfacet
  facet normal -0.98229 -0.187365 0
    outer loop
      vertex 1.68659 0.213066 0
      vertex 1.64659 0.422772 1.5
      vertex 1.64659 0.422772 0
    endloop
  endfacet
  facet normal -0.98229 -0.187365 0
    outer loop
      vertex 1.64659 0.422772 1.5
      vertex 1.68659 0.213066 0
      vertex 1.68659 0.213066 1.5
    endloop
  endfacet
  facet normal 0.368124 0.929777 -0
    outer loop
      vertex -0.525329 -1.6168 0
      vertex -0.723825 -1.53821 1.5
      vertex -0.525329 -1.6168 1.5
    endloop
  endfacet
  facet normal 0.368124 0.929777 0
    outer loop
      vertex -0.723825 -1.53821 1.5
      vertex -0.525329 -1.6168 0
      vertex -0.723825 -1.53821 0
    endloop
  endfacet
  facet normal 0 1 -0
    outer loop
      vertex 0.106744 -1.69664 0
      vertex -0.106744 -1.69664 1.5
      vertex 0.106744 -1.69664 1.5
    endloop
  endfacet
  facet normal 0 1 0
    outer loop
      vertex -0.106744 -1.69664 1.5
      vertex 0.106744 -1.69664 0
      vertex -0.106744 -1.69664 0
    endloop
  endfacet
  facet normal 0.951059 0.30901 0
    outer loop
      vertex -1.58062 -0.625812 1.5
      vertex -1.64659 -0.422772 0
      vertex -1.64659 -0.422772 1.5
    endloop
  endfacet
  facet normal 0.951059 0.30901 0
    outer loop
      vertex -1.64659 -0.422772 0
      vertex -1.58062 -0.625812 1.5
      vertex -1.58062 -0.625812 0
    endloop
  endfacet
  facet normal 0.98229 0.187365 0
    outer loop
      vertex -1.64659 -0.422772 1.5
      vertex -1.68659 -0.213066 0
      vertex -1.68659 -0.213066 1.5
    endloop
  endfacet
  facet normal 0.98229 0.187365 0
    outer loop
      vertex -1.68659 -0.213066 0
      vertex -1.64659 -0.422772 1.5
      vertex -1.64659 -0.422772 0
    endloop
  endfacet
  facet normal 0.77052 0.637416 0
    outer loop
      vertex -1.23925 -1.16373 1.5
      vertex -1.37533 -0.999234 0
      vertex -1.37533 -0.999234 1.5
    endloop
  endfacet
  facet normal 0.77052 0.637416 0
    outer loop
      vertex -1.37533 -0.999234 0
      vertex -1.23925 -1.16373 1.5
      vertex -1.23925 -1.16373 0
    endloop
  endfacet
  facet normal -0.98229 0.187365 0
    outer loop
      vertex 1.64659 -0.422772 0
      vertex 1.68659 -0.213066 1.5
      vertex 1.68659 -0.213066 0
    endloop
  endfacet
  facet normal -0.98229 0.187365 0
    outer loop
      vertex 1.68659 -0.213066 1.5
      vertex 1.64659 -0.422772 0
      vertex 1.64659 -0.422772 1.5
    endloop
  endfacet
  facet normal -0.844332 0.53582 0
    outer loop
      vertex 1.37533 -0.999234 0
      vertex 1.48972 -0.818981 1.5
      vertex 1.48972 -0.818981 0
    endloop
  endfacet
  facet normal -0.844332 0.53582 0
    outer loop
      vertex 1.48972 -0.818981 1.5
      vertex 1.37533 -0.999234 0
      vertex 1.37533 -0.999234 1.5
    endloop
  endfacet
  facet normal -0.368124 0.929777 0
    outer loop
      vertex 0.723825 -1.53821 0
      vertex 0.525329 -1.6168 1.5
      vertex 0.723825 -1.53821 1.5
    endloop
  endfacet
  facet normal -0.368124 0.929777 0
    outer loop
      vertex 0.525329 -1.6168 1.5
      vertex 0.723825 -1.53821 0
      vertex 0.525329 -1.6168 0
    endloop
  endfacet
  facet normal -0.24868 0.968586 0
    outer loop
      vertex 0.525329 -1.6168 0
      vertex 0.318548 -1.66989 1.5
      vertex 0.525329 -1.6168 1.5
    endloop
  endfacet
  facet normal -0.24868 0.968586 0
    outer loop
      vertex 0.318548 -1.66989 1.5
      vertex 0.525329 -1.6168 0
      vertex 0.318548 -1.66989 0
    endloop
  endfacet
  facet normal -0.684531 0.728983 0
    outer loop
      vertex 1.23925 -1.16373 0
      vertex 1.08362 -1.30987 1.5
      vertex 1.23925 -1.16373 1.5
    endloop
  endfacet
  facet normal -0.684531 0.728983 0
    outer loop
      vertex 1.08362 -1.30987 1.5
      vertex 1.23925 -1.16373 0
      vertex 1.08362 -1.30987 0
    endloop
  endfacet
  facet normal 0.24868 0.968586 -0
    outer loop
      vertex -0.318548 -1.66989 0
      vertex -0.525329 -1.6168 1.5
      vertex -0.318548 -1.66989 1.5
    endloop
  endfacet
  facet normal 0.24868 0.968586 0
    outer loop
      vertex -0.525329 -1.6168 1.5
      vertex -0.318548 -1.66989 0
      vertex -0.525329 -1.6168 0
    endloop
  endfacet
  facet normal 0.481761 0.876303 -0
    outer loop
      vertex -0.723825 -1.53821 0
      vertex -0.910905 -1.43536 1.5
      vertex -0.723825 -1.53821 1.5
    endloop
  endfacet
  facet normal 0.481761 0.876303 0
    outer loop
      vertex -0.910905 -1.43536 1.5
      vertex -0.723825 -1.53821 0
      vertex -0.910905 -1.43536 0
    endloop
  endfacet
  facet normal 0.125301 0.992119 -0
    outer loop
      vertex -0.106744 -1.69664 0
      vertex -0.318548 -1.66989 1.5
      vertex -0.106744 -1.69664 1.5
    endloop
  endfacet
  facet normal 0.125301 0.992119 0
    outer loop
      vertex -0.318548 -1.66989 1.5
      vertex -0.106744 -1.69664 0
      vertex -0.318548 -1.66989 0
    endloop
  endfacet
  facet normal 0.587801 0.809005 -0
    outer loop
      vertex -0.910905 -1.43536 0
      vertex -1.08362 -1.30987 1.5
      vertex -0.910905 -1.43536 1.5
    endloop
  endfacet
  facet normal 0.587801 0.809005 0
    outer loop
      vertex -1.08362 -1.30987 1.5
      vertex -0.910905 -1.43536 0
      vertex -1.08362 -1.30987 0
    endloop
  endfacet
endsolid OpenSCAD_Model
