<?xml version="1.0" standalone="no"?>
<!DOCTYPE svg PUBLIC "-//W3C//DTD SVG 1.1//EN" "http://www.w3.org/Graphics/SVG/1.1/DTD/svg11.dtd">
<svg width="22mm" height="104mm" viewBox="-11 -220 22 104" xmlns="http://www.w3.org/2000/svg" version="1.1">
<title>OpenSCAD Model</title>
<path d="
M 8.96844,-212.544 L 9.27254,-212.622 L 9.56444,-212.738 L 9.83955,-212.889 L 10.0936,-213.074 L 10.3224,-213.289
 L 10.5225,-213.531 L 10.6908,-213.796 L 10.8244,-214.08 L 10.9214,-214.378 L 10.9803,-214.687 L 11,-215
 L 11,-217 L 10.9803,-217.313 L 10.9214,-217.622 L 10.8244,-217.92 L 10.6908,-218.204 L 10.5225,-218.469
 L 10.3224,-218.711 L 10.0936,-218.926 L 9.83955,-219.111 L 9.56444,-219.262 L 9.27254,-219.378 L 8.96844,-219.456
 L 8.65697,-219.495 L -8.65697,-219.495 L -8.96844,-219.456 L -9.27254,-219.378 L -9.56444,-219.262 L -9.83955,-219.111
 L -10.0936,-218.926 L -10.3224,-218.711 L -10.5225,-218.469 L -10.6908,-218.204 L -10.8244,-217.92 L -10.9214,-217.622
 L -10.9803,-217.313 L -11,-217 L -11,-215 L -10.9803,-214.687 L -10.9214,-214.378 L -10.8244,-214.08
 L -10.6908,-213.796 L -10.5225,-213.531 L -10.3224,-213.289 L -10.0936,-213.074 L -9.83955,-212.889 L -9.56444,-212.738
 L -9.27254,-212.622 L -8.96844,-212.544 L -8.65697,-212.505 L 8.65697,-212.505 z
M 7.40581,-214.503 L 7.21892,-214.527 L 7.03647,-214.573 L 6.86133,-214.643 L 6.69626,-214.734 L 6.54385,-214.844
 L 6.40654,-214.973 L 6.28647,-215.118 L 6.18553,-215.277 L 6.10533,-215.448 L 6.04712,-215.627 L 6.01183,-215.812
 L 6,-216 L 6.01183,-216.188 L 6.04712,-216.373 L 6.10533,-216.552 L 6.18553,-216.723 L 6.28647,-216.882
 L 6.40654,-217.027 L 6.54385,-217.156 L 6.69626,-217.266 L 6.86133,-217.357 L 7.03647,-217.427 L 7.21892,-217.473
 L 7.40581,-217.497 L 7.59418,-217.497 L 7.78107,-217.473 L 7.96352,-217.427 L 8.13866,-217.357 L 8.30373,-217.266
 L 8.45613,-217.156 L 8.59344,-217.027 L 8.71352,-216.882 L 8.81445,-216.723 L 8.89465,-216.552 L 8.95287,-216.373
 L 8.98816,-216.188 L 9,-216 L 8.98816,-215.812 L 8.95287,-215.627 L 8.89465,-215.448 L 8.81445,-215.277
 L 8.71352,-215.118 L 8.59344,-214.973 L 8.45613,-214.844 L 8.30373,-214.734 L 8.13866,-214.643 L 7.96352,-214.573
 L 7.78107,-214.527 L 7.59418,-214.503 z
M -0.0941772,-214.503 L -0.281067,-214.527 L -0.463516,-214.573 L -0.638657,-214.643 L -0.803726,-214.734 L -0.956131,-214.844
 L -1.09344,-214.973 L -1.21352,-215.118 L -1.31445,-215.277 L -1.39465,-215.448 L -1.45287,-215.627 L -1.48816,-215.812
 L -1.5,-216 L -1.48816,-216.188 L -1.45287,-216.373 L -1.39465,-216.552 L -1.31445,-216.723 L -1.21352,-216.882
 L -1.09344,-217.027 L -0.956131,-217.156 L -0.803726,-217.266 L -0.638657,-217.357 L -0.463516,-217.427 L -0.281067,-217.473
 L -0.0941772,-217.497 L 0.0941772,-217.497 L 0.281067,-217.473 L 0.463516,-217.427 L 0.638657,-217.357 L 0.803726,-217.266
 L 0.956131,-217.156 L 1.09344,-217.027 L 1.21352,-216.882 L 1.31445,-216.723 L 1.39465,-216.552 L 1.45287,-216.373
 L 1.48816,-216.188 L 1.5,-216 L 1.48816,-215.812 L 1.45287,-215.627 L 1.39465,-215.448 L 1.31445,-215.277
 L 1.21352,-215.118 L 1.09344,-214.973 L 0.956131,-214.844 L 0.803726,-214.734 L 0.638657,-214.643 L 0.463516,-214.573
 L 0.281067,-214.527 L 0.0941772,-214.503 z
M -7.59418,-214.503 L -7.78107,-214.527 L -7.96352,-214.573 L -8.13866,-214.643 L -8.30373,-214.734 L -8.45613,-214.844
 L -8.59344,-214.973 L -8.71352,-215.118 L -8.81445,-215.277 L -8.89465,-215.448 L -8.95287,-215.627 L -8.98816,-215.812
 L -9,-216 L -8.98816,-216.188 L -8.95287,-216.373 L -8.89465,-216.552 L -8.81445,-216.723 L -8.71352,-216.882
 L -8.59344,-217.027 L -8.45613,-217.156 L -8.30373,-217.266 L -8.13866,-217.357 L -7.96352,-217.427 L -7.78107,-217.473
 L -7.59418,-217.497 L -7.40581,-217.497 L -7.21892,-217.473 L -7.03647,-217.427 L -6.86133,-217.357 L -6.69626,-217.266
 L -6.54385,-217.156 L -6.40654,-217.027 L -6.28647,-216.882 L -6.18553,-216.723 L -6.10533,-216.552 L -6.04712,-216.373
 L -6.01183,-216.188 L -6,-216 L -6.01183,-215.812 L -6.04712,-215.627 L -6.10533,-215.448 L -6.18553,-215.277
 L -6.28647,-215.118 L -6.40654,-214.973 L -6.54385,-214.844 L -6.69626,-214.734 L -6.86133,-214.643 L -7.03647,-214.573
 L -7.21892,-214.527 L -7.40581,-214.503 z
M 8.96844,-188.544 L 9.27254,-188.622 L 9.56444,-188.738 L 9.83955,-188.889 L 10.0936,-189.074 L 10.3224,-189.289
 L 10.5225,-189.531 L 10.6908,-189.796 L 10.8244,-190.08 L 10.9214,-190.378 L 10.9803,-190.687 L 11,-191
 L 11,-193 L 10.9803,-193.313 L 10.9214,-193.622 L 10.8244,-193.92 L 10.6908,-194.204 L 10.5225,-194.469
 L 10.3224,-194.711 L 10.0936,-194.926 L 9.83955,-195.111 L 9.56444,-195.262 L 9.27254,-195.378 L 8.96844,-195.456
 L 8.65697,-195.495 L -8.65697,-195.495 L -8.96844,-195.456 L -9.27254,-195.378 L -9.56444,-195.262 L -9.83955,-195.111
 L -10.0936,-194.926 L -10.3224,-194.711 L -10.5225,-194.469 L -10.6908,-194.204 L -10.8244,-193.92 L -10.9214,-193.622
 L -10.9803,-193.313 L -11,-193 L -11,-191 L -10.9803,-190.687 L -10.9214,-190.378 L -10.8244,-190.08
 L -10.6908,-189.796 L -10.5225,-189.531 L -10.3224,-189.289 L -10.0936,-189.074 L -9.83955,-188.889 L -9.56444,-188.738
 L -9.27254,-188.622 L -8.96844,-188.544 L -8.65697,-188.505 L 8.65697,-188.505 z
M 7.40581,-190.503 L 7.21892,-190.527 L 7.03647,-190.573 L 6.86133,-190.643 L 6.69626,-190.734 L 6.54385,-190.844
 L 6.40654,-190.973 L 6.28647,-191.118 L 6.18553,-191.277 L 6.10533,-191.448 L 6.04712,-191.627 L 6.01183,-191.812
 L 6,-192 L 6.01183,-192.188 L 6.04712,-192.373 L 6.10533,-192.552 L 6.18553,-192.723 L 6.28647,-192.882
 L 6.40654,-193.027 L 6.54385,-193.156 L 6.69626,-193.266 L 6.86133,-193.357 L 7.03647,-193.427 L 7.21892,-193.473
 L 7.40581,-193.497 L 7.59418,-193.497 L 7.78107,-193.473 L 7.96352,-193.427 L 8.13866,-193.357 L 8.30373,-193.266
 L 8.45613,-193.156 L 8.59344,-193.027 L 8.71352,-192.882 L 8.81445,-192.723 L 8.89465,-192.552 L 8.95287,-192.373
 L 8.98816,-192.188 L 9,-192 L 8.98816,-191.812 L 8.95287,-191.627 L 8.89465,-191.448 L 8.81445,-191.277
 L 8.71352,-191.118 L 8.59344,-190.973 L 8.45613,-190.844 L 8.30373,-190.734 L 8.13866,-190.643 L 7.96352,-190.573
 L 7.78107,-190.527 L 7.59418,-190.503 z
M -0.0941772,-190.503 L -0.281067,-190.527 L -0.463516,-190.573 L -0.638657,-190.643 L -0.803726,-190.734 L -0.956131,-190.844
 L -1.09344,-190.973 L -1.21352,-191.118 L -1.31445,-191.277 L -1.39465,-191.448 L -1.45287,-191.627 L -1.48816,-191.812
 L -1.5,-192 L -1.48816,-192.188 L -1.45287,-192.373 L -1.39465,-192.552 L -1.31445,-192.723 L -1.21352,-192.882
 L -1.09344,-193.027 L -0.956131,-193.156 L -0.803726,-193.266 L -0.638657,-193.357 L -0.463516,-193.427 L -0.281067,-193.473
 L -0.0941772,-193.497 L 0.0941772,-193.497 L 0.281067,-193.473 L 0.463516,-193.427 L 0.638657,-193.357 L 0.803726,-193.266
 L 0.956131,-193.156 L 1.09344,-193.027 L 1.21352,-192.882 L 1.31445,-192.723 L 1.39465,-192.552 L 1.45287,-192.373
 L 1.48816,-192.188 L 1.5,-192 L 1.48816,-191.812 L 1.45287,-191.627 L 1.39465,-191.448 L 1.31445,-191.277
 L 1.21352,-191.118 L 1.09344,-190.973 L 0.956131,-190.844 L 0.803726,-190.734 L 0.638657,-190.643 L 0.463516,-190.573
 L 0.281067,-190.527 L 0.0941772,-190.503 z
M -7.59418,-190.503 L -7.78107,-190.527 L -7.96352,-190.573 L -8.13866,-190.643 L -8.30373,-190.734 L -8.45613,-190.844
 L -8.59344,-190.973 L -8.71352,-191.118 L -8.81445,-191.277 L -8.89465,-191.448 L -8.95287,-191.627 L -8.98816,-191.812
 L -9,-192 L -8.98816,-192.188 L -8.95287,-192.373 L -8.89465,-192.552 L -8.81445,-192.723 L -8.71352,-192.882
 L -8.59344,-193.027 L -8.45613,-193.156 L -8.30373,-193.266 L -8.13866,-193.357 L -7.96352,-193.427 L -7.78107,-193.473
 L -7.59418,-193.497 L -7.40581,-193.497 L -7.21892,-193.473 L -7.03647,-193.427 L -6.86133,-193.357 L -6.69626,-193.266
 L -6.54385,-193.156 L -6.40654,-193.027 L -6.28647,-192.882 L -6.18553,-192.723 L -6.10533,-192.552 L -6.04712,-192.373
 L -6.01183,-192.188 L -6,-192 L -6.01183,-191.812 L -6.04712,-191.627 L -6.10533,-191.448 L -6.18553,-191.277
 L -6.28647,-191.118 L -6.40654,-190.973 L -6.54385,-190.844 L -6.69626,-190.734 L -6.86133,-190.643 L -7.03647,-190.573
 L -7.21892,-190.527 L -7.40581,-190.503 z
M 8.96844,-164.544 L 9.27254,-164.622 L 9.56444,-164.738 L 9.83955,-164.889 L 10.0936,-165.074 L 10.3224,-165.289
 L 10.5225,-165.531 L 10.6908,-165.796 L 10.8244,-166.08 L 10.9214,-166.378 L 10.9803,-166.687 L 11,-167
 L 11,-169 L 10.9803,-169.313 L 10.9214,-169.622 L 10.8244,-169.92 L 10.6908,-170.204 L 10.5225,-170.469
 L 10.3224,-170.711 L 10.0936,-170.926 L 9.83955,-171.111 L 9.56444,-171.262 L 9.27254,-171.378 L 8.96844,-171.456
 L 8.65697,-171.495 L -8.65697,-171.495 L -8.96844,-171.456 L -9.27254,-171.378 L -9.56444,-171.262 L -9.83955,-171.111
 L -10.0936,-170.926 L -10.3224,-170.711 L -10.5225,-170.469 L -10.6908,-170.204 L -10.8244,-169.92 L -10.9214,-169.622
 L -10.9803,-169.313 L -11,-169 L -11,-167 L -10.9803,-166.687 L -10.9214,-166.378 L -10.8244,-166.08
 L -10.6908,-165.796 L -10.5225,-165.531 L -10.3224,-165.289 L -10.0936,-165.074 L -9.83955,-164.889 L -9.56444,-164.738
 L -9.27254,-164.622 L -8.96844,-164.544 L -8.65697,-164.505 L 8.65697,-164.505 z
M -0.0941772,-166.503 L -0.281067,-166.527 L -0.463516,-166.573 L -0.638657,-166.643 L -0.803726,-166.734 L -0.956131,-166.844
 L -1.09344,-166.973 L -1.21352,-167.118 L -1.31445,-167.277 L -1.39465,-167.448 L -1.45287,-167.627 L -1.48816,-167.812
 L -1.5,-168 L -1.48816,-168.188 L -1.45287,-168.373 L -1.39465,-168.552 L -1.31445,-168.723 L -1.21352,-168.882
 L -1.09344,-169.027 L -0.956131,-169.156 L -0.803726,-169.266 L -0.638657,-169.357 L -0.463516,-169.427 L -0.281067,-169.473
 L -0.0941772,-169.497 L 0.0941772,-169.497 L 0.281067,-169.473 L 0.463516,-169.427 L 0.638657,-169.357 L 0.803726,-169.266
 L 0.956131,-169.156 L 1.09344,-169.027 L 1.21352,-168.882 L 1.31445,-168.723 L 1.39465,-168.552 L 1.45287,-168.373
 L 1.48816,-168.188 L 1.5,-168 L 1.48816,-167.812 L 1.45287,-167.627 L 1.39465,-167.448 L 1.31445,-167.277
 L 1.21352,-167.118 L 1.09344,-166.973 L 0.956131,-166.844 L 0.803726,-166.734 L 0.638657,-166.643 L 0.463516,-166.573
 L 0.281067,-166.527 L 0.0941772,-166.503 z
M 7.40581,-166.503 L 7.21892,-166.527 L 7.03647,-166.573 L 6.86133,-166.643 L 6.69626,-166.734 L 6.54385,-166.844
 L 6.40654,-166.973 L 6.28647,-167.118 L 6.18553,-167.277 L 6.10533,-167.448 L 6.04712,-167.627 L 6.01183,-167.812
 L 6,-168 L 6.01183,-168.188 L 6.04712,-168.373 L 6.10533,-168.552 L 6.18553,-168.723 L 6.28647,-168.882
 L 6.40654,-169.027 L 6.54385,-169.156 L 6.69626,-169.266 L 6.86133,-169.357 L 7.03647,-169.427 L 7.21892,-169.473
 L 7.40581,-169.497 L 7.59418,-169.497 L 7.78107,-169.473 L 7.96352,-169.427 L 8.13866,-169.357 L 8.30373,-169.266
 L 8.45613,-169.156 L 8.59344,-169.027 L 8.71352,-168.882 L 8.81445,-168.723 L 8.89465,-168.552 L 8.95287,-168.373
 L 8.98816,-168.188 L 9,-168 L 8.98816,-167.812 L 8.95287,-167.627 L 8.89465,-167.448 L 8.81445,-167.277
 L 8.71352,-167.118 L 8.59344,-166.973 L 8.45613,-166.844 L 8.30373,-166.734 L 8.13866,-166.643 L 7.96352,-166.573
 L 7.78107,-166.527 L 7.59418,-166.503 z
M -7.59418,-166.503 L -7.78107,-166.527 L -7.96352,-166.573 L -8.13866,-166.643 L -8.30373,-166.734 L -8.45613,-166.844
 L -8.59344,-166.973 L -8.71352,-167.118 L -8.81445,-167.277 L -8.89465,-167.448 L -8.95287,-167.627 L -8.98816,-167.812
 L -9,-168 L -8.98816,-168.188 L -8.95287,-168.373 L -8.89465,-168.552 L -8.81445,-168.723 L -8.71352,-168.882
 L -8.59344,-169.027 L -8.45613,-169.156 L -8.30373,-169.266 L -8.13866,-169.357 L -7.96352,-169.427 L -7.78107,-169.473
 L -7.59418,-169.497 L -7.40581,-169.497 L -7.21892,-169.473 L -7.03647,-169.427 L -6.86133,-169.357 L -6.69626,-169.266
 L -6.54385,-169.156 L -6.40654,-169.027 L -6.28647,-168.882 L -6.18553,-168.723 L -6.10533,-168.552 L -6.04712,-168.373
 L -6.01183,-168.188 L -6,-168 L -6.01183,-167.812 L -6.04712,-167.627 L -6.10533,-167.448 L -6.18553,-167.277
 L -6.28647,-167.118 L -6.40654,-166.973 L -6.54385,-166.844 L -6.69626,-166.734 L -6.86133,-166.643 L -7.03647,-166.573
 L -7.21892,-166.527 L -7.40581,-166.503 z
M 8.96844,-140.544 L 9.27254,-140.622 L 9.56444,-140.738 L 9.83955,-140.889 L 10.0936,-141.074 L 10.3224,-141.289
 L 10.5225,-141.531 L 10.6908,-141.796 L 10.8244,-142.08 L 10.9214,-142.378 L 10.9803,-142.687 L 11,-143
 L 11,-145 L 10.9803,-145.313 L 10.9214,-145.622 L 10.8244,-145.92 L 10.6908,-146.204 L 10.5225,-146.469
 L 10.3224,-146.711 L 10.0936,-146.926 L 9.83955,-147.111 L 9.56444,-147.262 L 9.27254,-147.378 L 8.96844,-147.456
 L 8.65697,-147.495 L -8.65697,-147.495 L -8.96844,-147.456 L -9.27254,-147.378 L -9.56444,-147.262 L -9.83955,-147.111
 L -10.0936,-146.926 L -10.3224,-146.711 L -10.5225,-146.469 L -10.6908,-146.204 L -10.8244,-145.92 L -10.9214,-145.622
 L -10.9803,-145.313 L -11,-145 L -11,-143 L -10.9803,-142.687 L -10.9214,-142.378 L -10.8244,-142.08
 L -10.6908,-141.796 L -10.5225,-141.531 L -10.3224,-141.289 L -10.0936,-141.074 L -9.83955,-140.889 L -9.56444,-140.738
 L -9.27254,-140.622 L -8.96844,-140.544 L -8.65697,-140.505 L 8.65697,-140.505 z
M 7.40581,-142.503 L 7.21892,-142.527 L 7.03647,-142.573 L 6.86133,-142.643 L 6.69626,-142.734 L 6.54385,-142.844
 L 6.40654,-142.973 L 6.28647,-143.118 L 6.18553,-143.277 L 6.10533,-143.448 L 6.04712,-143.627 L 6.01183,-143.812
 L 6,-144 L 6.01183,-144.188 L 6.04712,-144.373 L 6.10533,-144.552 L 6.18553,-144.723 L 6.28647,-144.882
 L 6.40654,-145.027 L 6.54385,-145.156 L 6.69626,-145.266 L 6.86133,-145.357 L 7.03647,-145.427 L 7.21892,-145.473
 L 7.40581,-145.497 L 7.59418,-145.497 L 7.78107,-145.473 L 7.96352,-145.427 L 8.13866,-145.357 L 8.30373,-145.266
 L 8.45613,-145.156 L 8.59344,-145.027 L 8.71352,-144.882 L 8.81445,-144.723 L 8.89465,-144.552 L 8.95287,-144.373
 L 8.98816,-144.188 L 9,-144 L 8.98816,-143.812 L 8.95287,-143.627 L 8.89465,-143.448 L 8.81445,-143.277
 L 8.71352,-143.118 L 8.59344,-142.973 L 8.45613,-142.844 L 8.30373,-142.734 L 8.13866,-142.643 L 7.96352,-142.573
 L 7.78107,-142.527 L 7.59418,-142.503 z
M -0.0941772,-142.503 L -0.281067,-142.527 L -0.463516,-142.573 L -0.638657,-142.643 L -0.803726,-142.734 L -0.956131,-142.844
 L -1.09344,-142.973 L -1.21352,-143.118 L -1.31445,-143.277 L -1.39465,-143.448 L -1.45287,-143.627 L -1.48816,-143.812
 L -1.5,-144 L -1.48816,-144.188 L -1.45287,-144.373 L -1.39465,-144.552 L -1.31445,-144.723 L -1.21352,-144.882
 L -1.09344,-145.027 L -0.956131,-145.156 L -0.803726,-145.266 L -0.638657,-145.357 L -0.463516,-145.427 L -0.281067,-145.473
 L -0.0941772,-145.497 L 0.0941772,-145.497 L 0.281067,-145.473 L 0.463516,-145.427 L 0.638657,-145.357 L 0.803726,-145.266
 L 0.956131,-145.156 L 1.09344,-145.027 L 1.21352,-144.882 L 1.31445,-144.723 L 1.39465,-144.552 L 1.45287,-144.373
 L 1.48816,-144.188 L 1.5,-144 L 1.48816,-143.812 L 1.45287,-143.627 L 1.39465,-143.448 L 1.31445,-143.277
 L 1.21352,-143.118 L 1.09344,-142.973 L 0.956131,-142.844 L 0.803726,-142.734 L 0.638657,-142.643 L 0.463516,-142.573
 L 0.281067,-142.527 L 0.0941772,-142.503 z
M -7.59418,-142.503 L -7.78107,-142.527 L -7.96352,-142.573 L -8.13866,-142.643 L -8.30373,-142.734 L -8.45613,-142.844
 L -8.59344,-142.973 L -8.71352,-143.118 L -8.81445,-143.277 L -8.89465,-143.448 L -8.95287,-143.627 L -8.98816,-143.812
 L -9,-144 L -8.98816,-144.188 L -8.95287,-144.373 L -8.89465,-144.552 L -8.81445,-144.723 L -8.71352,-144.882
 L -8.59344,-145.027 L -8.45613,-145.156 L -8.30373,-145.266 L -8.13866,-145.357 L -7.96352,-145.427 L -7.78107,-145.473
 L -7.59418,-145.497 L -7.40581,-145.497 L -7.21892,-145.473 L -7.03647,-145.427 L -6.86133,-145.357 L -6.69626,-145.266
 L -6.54385,-145.156 L -6.40654,-145.027 L -6.28647,-144.882 L -6.18553,-144.723 L -6.10533,-144.552 L -6.04712,-144.373
 L -6.01183,-144.188 L -6,-144 L -6.01183,-143.812 L -6.04712,-143.627 L -6.10533,-143.448 L -6.18553,-143.277
 L -6.28647,-143.118 L -6.40654,-142.973 L -6.54385,-142.844 L -6.69626,-142.734 L -6.86133,-142.643 L -7.03647,-142.573
 L -7.21892,-142.527 L -7.40581,-142.503 z
M 8.96844,-116.544 L 9.27254,-116.622 L 9.56444,-116.738 L 9.83955,-116.889 L 10.0936,-117.074 L 10.3224,-117.289
 L 10.5225,-117.531 L 10.6908,-117.796 L 10.8244,-118.08 L 10.9214,-118.378 L 10.9803,-118.687 L 11,-119
 L 11,-121 L 10.9803,-121.313 L 10.9214,-121.622 L 10.8244,-121.92 L 10.6908,-122.204 L 10.5225,-122.469
 L 10.3224,-122.711 L 10.0936,-122.926 L 9.83955,-123.111 L 9.56444,-123.262 L 9.27254,-123.378 L 8.96844,-123.456
 L 8.65697,-123.495 L -8.65697,-123.495 L -8.96844,-123.456 L -9.27254,-123.378 L -9.56444,-123.262 L -9.83955,-123.111
 L -10.0936,-122.926 L -10.3224,-122.711 L -10.5225,-122.469 L -10.6908,-122.204 L -10.8244,-121.92 L -10.9214,-121.622
 L -10.9803,-121.313 L -11,-121 L -11,-119 L -10.9803,-118.687 L -10.9214,-118.378 L -10.8244,-118.08
 L -10.6908,-117.796 L -10.5225,-117.531 L -10.3224,-117.289 L -10.0936,-117.074 L -9.83955,-116.889 L -9.56444,-116.738
 L -9.27254,-116.622 L -8.96844,-116.544 L -8.65697,-116.505 L 8.65697,-116.505 z
M 7.40581,-118.503 L 7.21892,-118.527 L 7.03647,-118.573 L 6.86133,-118.643 L 6.69626,-118.734 L 6.54385,-118.844
 L 6.40654,-118.973 L 6.28647,-119.118 L 6.18553,-119.277 L 6.10533,-119.448 L 6.04712,-119.627 L 6.01183,-119.812
 L 6,-120 L 6.01183,-120.188 L 6.04712,-120.373 L 6.10533,-120.552 L 6.18553,-120.723 L 6.28647,-120.882
 L 6.40654,-121.027 L 6.54385,-121.156 L 6.69626,-121.266 L 6.86133,-121.357 L 7.03647,-121.427 L 7.21892,-121.473
 L 7.40581,-121.497 L 7.59418,-121.497 L 7.78107,-121.473 L 7.96352,-121.427 L 8.13866,-121.357 L 8.30373,-121.266
 L 8.45613,-121.156 L 8.59344,-121.027 L 8.71352,-120.882 L 8.81445,-120.723 L 8.89465,-120.552 L 8.95287,-120.373
 L 8.98816,-120.188 L 9,-120 L 8.98816,-119.812 L 8.95287,-119.627 L 8.89465,-119.448 L 8.81445,-119.277
 L 8.71352,-119.118 L 8.59344,-118.973 L 8.45613,-118.844 L 8.30373,-118.734 L 8.13866,-118.643 L 7.96352,-118.573
 L 7.78107,-118.527 L 7.59418,-118.503 z
M -0.0941772,-118.503 L -0.281067,-118.527 L -0.463516,-118.573 L -0.638657,-118.643 L -0.803726,-118.734 L -0.956131,-118.844
 L -1.09344,-118.973 L -1.21352,-119.118 L -1.31445,-119.277 L -1.39465,-119.448 L -1.45287,-119.627 L -1.48816,-119.812
 L -1.5,-120 L -1.48816,-120.188 L -1.45287,-120.373 L -1.39465,-120.552 L -1.31445,-120.723 L -1.21352,-120.882
 L -1.09344,-121.027 L -0.956131,-121.156 L -0.803726,-121.266 L -0.638657,-121.357 L -0.463516,-121.427 L -0.281067,-121.473
 L -0.0941772,-121.497 L 0.0941772,-121.497 L 0.281067,-121.473 L 0.463516,-121.427 L 0.638657,-121.357 L 0.803726,-121.266
 L 0.956131,-121.156 L 1.09344,-121.027 L 1.21352,-120.882 L 1.31445,-120.723 L 1.39465,-120.552 L 1.45287,-120.373
 L 1.48816,-120.188 L 1.5,-120 L 1.48816,-119.812 L 1.45287,-119.627 L 1.39465,-119.448 L 1.31445,-119.277
 L 1.21352,-119.118 L 1.09344,-118.973 L 0.956131,-118.844 L 0.803726,-118.734 L 0.638657,-118.643 L 0.463516,-118.573
 L 0.281067,-118.527 L 0.0941772,-118.503 z
M -7.59418,-118.503 L -7.78107,-118.527 L -7.96352,-118.573 L -8.13866,-118.643 L -8.30373,-118.734 L -8.45613,-118.844
 L -8.59344,-118.973 L -8.71352,-119.118 L -8.81445,-119.277 L -8.89465,-119.448 L -8.95287,-119.627 L -8.98816,-119.812
 L -9,-120 L -8.98816,-120.188 L -8.95287,-120.373 L -8.89465,-120.552 L -8.81445,-120.723 L -8.71352,-120.882
 L -8.59344,-121.027 L -8.45613,-121.156 L -8.30373,-121.266 L -8.13866,-121.357 L -7.96352,-121.427 L -7.78107,-121.473
 L -7.59418,-121.497 L -7.40581,-121.497 L -7.21892,-121.473 L -7.03647,-121.427 L -6.86133,-121.357 L -6.69626,-121.266
 L -6.54385,-121.156 L -6.40654,-121.027 L -6.28647,-120.882 L -6.18553,-120.723 L -6.10533,-120.552 L -6.04712,-120.373
 L -6.01183,-120.188 L -6,-120 L -6.01183,-119.812 L -6.04712,-119.627 L -6.10533,-119.448 L -6.18553,-119.277
 L -6.28647,-119.118 L -6.40654,-118.973 L -6.54385,-118.844 L -6.69626,-118.734 L -6.86133,-118.643 L -7.03647,-118.573
 L -7.21892,-118.527 L -7.40581,-118.503 z
" stroke="black" fill="lightgray" stroke-width="0.5"/>
</svg>
