<?xml version="1.0" standalone="no"?>
<!DOCTYPE svg PUBLIC "-//W3C//DTD SVG 1.1//EN" "http://www.w3.org/Graphics/SVG/1.1/DTD/svg11.dtd">
<svg width="74mm" height="242mm" viewBox="-37 -373 74 242" xmlns="http://www.w3.org/2000/svg" version="1.1">
<title>OpenSCAD Model</title>
<path d="
M 32.9369,-299.089 L 33.5451,-299.245 L 34.1289,-299.476 L 34.6791,-299.778 L 35.1871,-300.147 L 35.6448,-300.577
 L 36.0451,-301.061 L 36.3815,-301.591 L 36.6489,-302.159 L 36.8429,-302.757 L 36.9606,-303.373 L 37,-304
 L 37,-368 L 36.9606,-368.627 L 36.8429,-369.243 L 36.6489,-369.841 L 36.3815,-370.409 L 36.0451,-370.939
 L 35.6448,-371.423 L 35.1871,-371.853 L 34.6791,-372.222 L 34.1289,-372.524 L 33.5451,-372.755 L 32.9369,-372.911
 L 32.3139,-372.99 L -32.3139,-372.99 L -32.9369,-372.911 L -33.5451,-372.755 L -34.1289,-372.524 L -34.6791,-372.222
 L -35.1871,-371.853 L -35.6448,-371.423 L -36.0451,-370.939 L -36.3815,-370.409 L -36.6489,-369.841 L -36.8429,-369.243
 L -36.9606,-368.627 L -37,-368 L -37,-304 L -36.9606,-303.373 L -36.8429,-302.757 L -36.6489,-302.159
 L -36.3815,-301.591 L -36.0451,-301.061 L -35.6448,-300.577 L -35.1871,-300.147 L -34.6791,-299.778 L -34.1289,-299.476
 L -33.5451,-299.245 L -32.9369,-299.089 L -32.3139,-299.01 L 32.3139,-299.01 z
M -32.0482,-299.509 L -32.6401,-299.584 L -33.2178,-299.732 L -33.7724,-299.952 L -34.2952,-300.239 L -34.7778,-300.59
 L -35.2126,-300.998 L -35.5928,-301.458 L -35.9124,-301.962 L -36.1664,-302.501 L -36.3508,-303.069 L -36.4625,-303.655
 L -36.5,-304.25 L -36.5,-367.75 L -36.4625,-368.345 L -36.3508,-368.931 L -36.1664,-369.499 L -35.9124,-370.038
 L -35.5928,-370.542 L -35.2126,-371.002 L -34.7778,-371.41 L -34.2952,-371.761 L -33.7724,-372.048 L -33.2178,-372.268
 L -32.6401,-372.416 L -32.0482,-372.491 L 32.0482,-372.491 L 32.6401,-372.416 L 33.2178,-372.268 L 33.7724,-372.048
 L 34.2952,-371.761 L 34.7778,-371.41 L 35.2126,-371.002 L 35.5928,-370.542 L 35.9124,-370.038 L 36.1664,-369.499
 L 36.3508,-368.931 L 36.4625,-368.345 L 36.5,-367.75 L 36.5,-304.25 L 36.4625,-303.655 L 36.3508,-303.069
 L 36.1664,-302.501 L 35.9124,-301.962 L 35.5928,-301.458 L 35.2126,-300.998 L 34.7778,-300.59 L 34.2952,-300.239
 L 33.7724,-299.952 L 33.2178,-299.732 L 32.6401,-299.584 L 32.0482,-299.509 z
M 32.9369,-215.089 L 33.5451,-215.245 L 34.1289,-215.476 L 34.6791,-215.778 L 35.1871,-216.147 L 35.6448,-216.577
 L 36.0451,-217.061 L 36.3815,-217.591 L 36.6489,-218.159 L 36.8429,-218.757 L 36.9606,-219.373 L 37,-220
 L 37,-284 L 36.9606,-284.627 L 36.8429,-285.243 L 36.6489,-285.841 L 36.3815,-286.409 L 36.0451,-286.939
 L 35.6448,-287.423 L 35.1871,-287.853 L 34.6791,-288.222 L 34.1289,-288.524 L 33.5451,-288.755 L 32.9369,-288.911
 L 32.3139,-288.99 L -32.3139,-288.99 L -32.9369,-288.911 L -33.5451,-288.755 L -34.1289,-288.524 L -34.6791,-288.222
 L -35.1871,-287.853 L -35.6448,-287.423 L -36.0451,-286.939 L -36.3815,-286.409 L -36.6489,-285.841 L -36.8429,-285.243
 L -36.9606,-284.627 L -37,-284 L -37,-220 L -36.9606,-219.373 L -36.8429,-218.757 L -36.6489,-218.159
 L -36.3815,-217.591 L -36.0451,-217.061 L -35.6448,-216.577 L -35.1871,-216.147 L -34.6791,-215.778 L -34.1289,-215.476
 L -33.5451,-215.245 L -32.9369,-215.089 L -32.3139,-215.01 L 32.3139,-215.01 z
M -31.993,-216.388 L -32.4751,-216.449 L -32.9457,-216.57 L -33.3975,-216.749 L -33.8234,-216.983 L -34.2165,-217.269
 L -34.5707,-217.601 L -34.8805,-217.976 L -35.1408,-218.386 L -35.3477,-218.826 L -35.4979,-219.288 L -35.589,-219.765
 L -35.6195,-220.25 L -35.6195,-283.75 L -35.589,-284.235 L -35.4979,-284.712 L -35.3477,-285.174 L -35.1408,-285.614
 L -34.8805,-286.024 L -34.5707,-286.399 L -34.2165,-286.731 L -33.8234,-287.017 L -33.3975,-287.251 L -32.9457,-287.43
 L -32.4751,-287.551 L -31.993,-287.612 L 31.993,-287.612 L 32.4751,-287.551 L 32.9457,-287.43 L 33.3975,-287.251
 L 33.8234,-287.017 L 34.2165,-286.731 L 34.5707,-286.399 L 34.8805,-286.024 L 35.1408,-285.614 L 35.3477,-285.174
 L 35.4979,-284.712 L 35.589,-284.235 L 35.6195,-283.75 L 35.6195,-220.25 L 35.589,-219.765 L 35.4979,-219.288
 L 35.3477,-218.826 L 35.1408,-218.386 L 34.8805,-217.976 L 34.5707,-217.601 L 34.2165,-217.269 L 33.8234,-216.983
 L 33.3975,-216.749 L 32.9457,-216.57 L 32.4751,-216.449 L 31.993,-216.388 z
M 32.9369,-131.089 L 33.5451,-131.245 L 34.1289,-131.476 L 34.6791,-131.778 L 35.1871,-132.147 L 35.6448,-132.577
 L 36.0451,-133.061 L 36.3815,-133.591 L 36.6489,-134.159 L 36.8429,-134.757 L 36.9606,-135.373 L 37,-136
 L 37,-200 L 36.9606,-200.627 L 36.8429,-201.243 L 36.6489,-201.841 L 36.3815,-202.409 L 36.0451,-202.939
 L 35.6448,-203.423 L 35.1871,-203.853 L 34.6791,-204.222 L 34.1289,-204.524 L 33.5451,-204.755 L 32.9369,-204.911
 L 32.3139,-204.99 L -32.3139,-204.99 L -32.9369,-204.911 L -33.5451,-204.755 L -34.1289,-204.524 L -34.6791,-204.222
 L -35.1871,-203.853 L -35.6448,-203.423 L -36.0451,-202.939 L -36.3815,-202.409 L -36.6489,-201.841 L -36.8429,-201.243
 L -36.9606,-200.627 L -37,-200 L -37,-136 L -36.9606,-135.373 L -36.8429,-134.757 L -36.6489,-134.159
 L -36.3815,-133.591 L -36.0451,-133.061 L -35.6448,-132.577 L -35.1871,-132.147 L -34.6791,-131.778 L -34.1289,-131.476
 L -33.5451,-131.245 L -32.9369,-131.089 L -32.3139,-131.01 L 32.3139,-131.01 z
M 29.9058,-196.503 L 29.7189,-196.527 L 29.5365,-196.573 L 29.3613,-196.643 L 29.1963,-196.734 L 29.0439,-196.844
 L 28.9065,-196.973 L 28.7865,-197.118 L 28.6855,-197.277 L 28.6053,-197.448 L 28.5471,-197.627 L 28.5118,-197.812
 L 28.5,-198 L 28.5118,-198.188 L 28.5471,-198.373 L 28.6053,-198.552 L 28.6855,-198.723 L 28.7865,-198.882
 L 28.9065,-199.027 L 29.0439,-199.156 L 29.1963,-199.266 L 29.3613,-199.357 L 29.5365,-199.427 L 29.7189,-199.473
 L 29.9058,-199.497 L 30.0942,-199.497 L 30.2811,-199.473 L 30.4635,-199.427 L 30.6387,-199.357 L 30.8037,-199.266
 L 30.9561,-199.156 L 31.0934,-199.027 L 31.2135,-198.882 L 31.3145,-198.723 L 31.3947,-198.552 L 31.4529,-198.373
 L 31.4882,-198.188 L 31.5,-198 L 31.4882,-197.812 L 31.4529,-197.627 L 31.3947,-197.448 L 31.3145,-197.277
 L 31.2135,-197.118 L 31.0934,-196.973 L 30.9561,-196.844 L 30.8037,-196.734 L 30.6387,-196.643 L 30.4635,-196.573
 L 30.2811,-196.527 L 30.0942,-196.503 z
M -30.0942,-196.503 L -30.2811,-196.527 L -30.4635,-196.573 L -30.6387,-196.643 L -30.8037,-196.734 L -30.9561,-196.844
 L -31.0934,-196.973 L -31.2135,-197.118 L -31.3145,-197.277 L -31.3947,-197.448 L -31.4529,-197.627 L -31.4882,-197.812
 L -31.5,-198 L -31.4882,-198.188 L -31.4529,-198.373 L -31.3947,-198.552 L -31.3145,-198.723 L -31.2135,-198.882
 L -31.0934,-199.027 L -30.9561,-199.156 L -30.8037,-199.266 L -30.6387,-199.357 L -30.4635,-199.427 L -30.2811,-199.473
 L -30.0942,-199.497 L -29.9058,-199.497 L -29.7189,-199.473 L -29.5365,-199.427 L -29.3613,-199.357 L -29.1963,-199.266
 L -29.0439,-199.156 L -28.9065,-199.027 L -28.7865,-198.882 L -28.6855,-198.723 L -28.6053,-198.552 L -28.5471,-198.373
 L -28.5118,-198.188 L -28.5,-198 L -28.5118,-197.812 L -28.5471,-197.627 L -28.6053,-197.448 L -28.6855,-197.277
 L -28.7865,-197.118 L -28.9065,-196.973 L -29.0439,-196.844 L -29.1963,-196.734 L -29.3613,-196.643 L -29.5365,-196.573
 L -29.7189,-196.527 L -29.9058,-196.503 z
M -30.0942,-136.503 L -30.2811,-136.527 L -30.4635,-136.573 L -30.6387,-136.643 L -30.8037,-136.734 L -30.9561,-136.844
 L -31.0934,-136.973 L -31.2135,-137.118 L -31.3145,-137.277 L -31.3947,-137.448 L -31.4529,-137.627 L -31.4882,-137.812
 L -31.5,-138 L -31.4882,-138.188 L -31.4529,-138.373 L -31.3947,-138.552 L -31.3145,-138.723 L -31.2135,-138.882
 L -31.0934,-139.027 L -30.9561,-139.156 L -30.8037,-139.266 L -30.6387,-139.357 L -30.4635,-139.427 L -30.2811,-139.473
 L -30.0942,-139.497 L -29.9058,-139.497 L -29.7189,-139.473 L -29.5365,-139.427 L -29.3613,-139.357 L -29.1963,-139.266
 L -29.0439,-139.156 L -28.9065,-139.027 L -28.7865,-138.882 L -28.6855,-138.723 L -28.6053,-138.552 L -28.5471,-138.373
 L -28.5118,-138.188 L -28.5,-138 L -28.5118,-137.812 L -28.5471,-137.627 L -28.6053,-137.448 L -28.6855,-137.277
 L -28.7865,-137.118 L -28.9065,-136.973 L -29.0439,-136.844 L -29.1963,-136.734 L -29.3613,-136.643 L -29.5365,-136.573
 L -29.7189,-136.527 L -29.9058,-136.503 z
M 29.9058,-136.503 L 29.7189,-136.527 L 29.5365,-136.573 L 29.3613,-136.643 L 29.1963,-136.734 L 29.0439,-136.844
 L 28.9065,-136.973 L 28.7865,-137.118 L 28.6855,-137.277 L 28.6053,-137.448 L 28.5471,-137.627 L 28.5118,-137.812
 L 28.5,-138 L 28.5118,-138.188 L 28.5471,-138.373 L 28.6053,-138.552 L 28.6855,-138.723 L 28.7865,-138.882
 L 28.9065,-139.027 L 29.0439,-139.156 L 29.1963,-139.266 L 29.3613,-139.357 L 29.5365,-139.427 L 29.7189,-139.473
 L 29.9058,-139.497 L 30.0942,-139.497 L 30.2811,-139.473 L 30.4635,-139.427 L 30.6387,-139.357 L 30.8037,-139.266
 L 30.9561,-139.156 L 31.0934,-139.027 L 31.2135,-138.882 L 31.3145,-138.723 L 31.3947,-138.552 L 31.4529,-138.373
 L 31.4882,-138.188 L 31.5,-138 L 31.4882,-137.812 L 31.4529,-137.627 L 31.3947,-137.448 L 31.3145,-137.277
 L 31.2135,-137.118 L 31.0934,-136.973 L 30.9561,-136.844 L 30.8037,-136.734 L 30.6387,-136.643 L 30.4635,-136.573
 L 30.2811,-136.527 L 30.0942,-136.503 z
" stroke="black" fill="lightgray" stroke-width="0.5"/>
</svg>
