<?xml version="1.0" standalone="no"?>
<!DOCTYPE svg PUBLIC "-//W3C//DTD SVG 1.1//EN" "http://www.w3.org/Graphics/SVG/1.1/DTD/svg11.dtd">
<svg width="46mm" height="336mm" viewBox="-23 -582 46 336" xmlns="http://www.w3.org/2000/svg" version="1.1">
<title>OpenSCAD Model</title>
<path d="
M 18.4369,-522.089 L 19.0451,-522.245 L 19.6289,-522.476 L 20.1791,-522.778 L 20.6871,-523.147 L 21.1448,-523.577
 L 21.5451,-524.061 L 21.8815,-524.591 L 22.1489,-525.159 L 22.3429,-525.757 L 22.4606,-526.373 L 22.5,-527
 L 22.5,-577 L 22.4606,-577.627 L 22.3429,-578.243 L 22.1489,-578.841 L 21.8815,-579.409 L 21.5451,-579.939
 L 21.1448,-580.423 L 20.6871,-580.853 L 20.1791,-581.222 L 19.6289,-581.524 L 19.0451,-581.755 L 18.4369,-581.911
 L 17.8139,-581.99 L -17.8139,-581.99 L -18.4369,-581.911 L -19.0451,-581.755 L -19.6289,-581.524 L -20.1791,-581.222
 L -20.6871,-580.853 L -21.1448,-580.423 L -21.5451,-579.939 L -21.8815,-579.409 L -22.1489,-578.841 L -22.3429,-578.243
 L -22.4606,-577.627 L -22.5,-577 L -22.5,-527 L -22.4606,-526.373 L -22.3429,-525.757 L -22.1489,-525.159
 L -21.8815,-524.591 L -21.5451,-524.061 L -21.1448,-523.577 L -20.6871,-523.147 L -20.1791,-522.778 L -19.6289,-522.476
 L -19.0451,-522.245 L -18.4369,-522.089 L -17.8139,-522.01 L 17.8139,-522.01 z
M -12.311,-522.509 L -11.8209,-522.778 L -11.3129,-523.147 L -10.8551,-523.577 L -10.4549,-524.061 L -10.1185,-524.591
 L -9.8511,-525.159 L -9.65707,-525.757 L -9.53941,-526.373 L -9.5,-527 L -9.5,-530 L -9.53941,-530.627
 L -9.65707,-531.243 L -9.8511,-531.841 L -10.1185,-532.409 L -10.4549,-532.939 L -10.8551,-533.423 L -11.3129,-533.853
 L -11.8209,-534.222 L -12.3711,-534.524 L -12.9549,-534.755 L -13.5631,-534.911 L -14.186,-534.99 L -17.8139,-534.99
 L -18.4369,-534.911 L -19.0451,-534.755 L -19.6289,-534.524 L -20.1791,-534.222 L -20.6871,-533.853 L -21.1448,-533.423
 L -21.5451,-532.939 L -21.8815,-532.409 L -22,-532.157 L -22,-577 L -21.9645,-577.564 L -21.8586,-578.119
 L -21.684,-578.657 L -21.4434,-579.168 L -21.1406,-579.645 L -20.7803,-580.08 L -20.3684,-580.467 L -19.9112,-580.799
 L -19.416,-581.072 L -18.8906,-581.28 L -18.3432,-581.42 L -17.7825,-581.491 L 17.7825,-581.491 L 18.3432,-581.42
 L 18.8906,-581.28 L 19.416,-581.072 L 19.9112,-580.799 L 20.3684,-580.467 L 20.7803,-580.08 L 21.1406,-579.645
 L 21.4434,-579.168 L 21.684,-578.657 L 21.8586,-578.119 L 21.9645,-577.564 L 22,-577 L 22,-527
 L 21.9645,-526.436 L 21.8586,-525.881 L 21.684,-525.343 L 21.4434,-524.832 L 21.1406,-524.355 L 20.7803,-523.92
 L 20.3684,-523.533 L 19.9112,-523.201 L 19.416,-522.928 L 18.8906,-522.72 L 18.3432,-522.58 L 17.7825,-522.509
 z
M 15.4684,-572.044 L 15.7725,-572.122 L 16.0644,-572.238 L 16.3396,-572.389 L 16.5936,-572.574 L 16.8224,-572.789
 L 17.0225,-573.031 L 17.1908,-573.296 L 17.3244,-573.58 L 17.4214,-573.878 L 17.4803,-574.187 L 17.5,-574.5
 L 17.4803,-574.813 L 17.4214,-575.122 L 17.3244,-575.42 L 17.1908,-575.704 L 17.0225,-575.969 L 16.8224,-576.211
 L 16.5936,-576.426 L 16.3396,-576.611 L 16.0644,-576.762 L 15.7725,-576.878 L 15.4684,-576.956 L 15.157,-576.995
 L 14.843,-576.995 L 14.5315,-576.956 L 14.2274,-576.878 L 13.9355,-576.762 L 13.6604,-576.611 L 13.4064,-576.426
 L 13.1776,-576.211 L 12.9774,-575.969 L 12.8092,-575.704 L 12.6756,-575.42 L 12.5785,-575.122 L 12.5197,-574.813
 L 12.5,-574.5 L 12.5197,-574.187 L 12.5785,-573.878 L 12.6756,-573.58 L 12.8092,-573.296 L 12.9774,-573.031
 L 13.1776,-572.789 L 13.4064,-572.574 L 13.6604,-572.389 L 13.9355,-572.238 L 14.2274,-572.122 L 14.5315,-572.044
 L 14.843,-572.005 L 15.157,-572.005 z
M 14.9058,-573.003 L 14.7189,-573.027 L 14.5365,-573.073 L 14.3613,-573.143 L 14.1963,-573.234 L 14.0439,-573.344
 L 13.9065,-573.473 L 13.7865,-573.618 L 13.6855,-573.777 L 13.6053,-573.948 L 13.5471,-574.127 L 13.5118,-574.312
 L 13.5,-574.5 L 13.5118,-574.688 L 13.5471,-574.873 L 13.6053,-575.052 L 13.6855,-575.223 L 13.7865,-575.382
 L 13.9065,-575.527 L 14.0439,-575.656 L 14.1963,-575.766 L 14.3613,-575.857 L 14.5365,-575.927 L 14.7189,-575.973
 L 14.9058,-575.997 L 15.0942,-575.997 L 15.2811,-575.973 L 15.4635,-575.927 L 15.6387,-575.857 L 15.8037,-575.766
 L 15.9561,-575.656 L 16.0934,-575.527 L 16.2135,-575.382 L 16.3145,-575.223 L 16.3947,-575.052 L 16.4529,-574.873
 L 16.4882,-574.688 L 16.5,-574.5 L 16.4882,-574.312 L 16.4529,-574.127 L 16.3947,-573.948 L 16.3145,-573.777
 L 16.2135,-573.618 L 16.0934,-573.473 L 15.9561,-573.344 L 15.8037,-573.234 L 15.6387,-573.143 L 15.4635,-573.073
 L 15.2811,-573.027 L 15.0942,-573.003 z
M -15.0942,-528.003 L -15.2811,-528.027 L -15.4635,-528.073 L -15.6387,-528.143 L -15.8037,-528.234 L -15.9561,-528.344
 L -16.0934,-528.473 L -16.2135,-528.618 L -16.3145,-528.777 L -16.3947,-528.948 L -16.4529,-529.127 L -16.4882,-529.312
 L -16.5,-529.5 L -16.4882,-529.688 L -16.4529,-529.873 L -16.3947,-530.052 L -16.3145,-530.223 L -16.2135,-530.382
 L -16.0934,-530.527 L -15.9561,-530.656 L -15.8037,-530.766 L -15.6387,-530.857 L -15.4635,-530.927 L -15.2811,-530.973
 L -15.0942,-530.997 L -14.9058,-530.997 L -14.7189,-530.973 L -14.5365,-530.927 L -14.3613,-530.857 L -14.1963,-530.766
 L -14.0439,-530.656 L -13.9065,-530.527 L -13.7865,-530.382 L -13.6855,-530.223 L -13.6053,-530.052 L -13.5471,-529.873
 L -13.5118,-529.688 L -13.5,-529.5 L -13.5118,-529.312 L -13.5471,-529.127 L -13.6053,-528.948 L -13.6855,-528.777
 L -13.7865,-528.618 L -13.9065,-528.473 L -14.0439,-528.344 L -14.1963,-528.234 L -14.3613,-528.143 L -14.5365,-528.073
 L -14.7189,-528.027 L -14.9058,-528.003 z
M 18.4369,-453.089 L 19.0451,-453.245 L 19.6289,-453.476 L 20.1791,-453.778 L 20.6871,-454.147 L 21.1448,-454.577
 L 21.5451,-455.061 L 21.8815,-455.591 L 22.1489,-456.159 L 22.3429,-456.757 L 22.4606,-457.373 L 22.5,-458
 L 22.5,-508 L 22.4606,-508.627 L 22.3429,-509.243 L 22.1489,-509.841 L 21.8815,-510.409 L 21.5451,-510.939
 L 21.1448,-511.423 L 20.6871,-511.853 L 20.1791,-512.222 L 19.6289,-512.524 L 19.0451,-512.755 L 18.4369,-512.911
 L 17.8139,-512.99 L -17.8139,-512.99 L -18.4369,-512.911 L -19.0451,-512.755 L -19.6289,-512.524 L -20.1791,-512.222
 L -20.6871,-511.853 L -21.1448,-511.423 L -21.5451,-510.939 L -21.8815,-510.409 L -22.1489,-509.841 L -22.3429,-509.243
 L -22.4606,-508.627 L -22.5,-508 L -22.5,-458 L -22.4606,-457.373 L -22.3429,-456.757 L -22.1489,-456.159
 L -21.8815,-455.591 L -21.5451,-455.061 L -21.1448,-454.577 L -20.6871,-454.147 L -20.1791,-453.778 L -19.6289,-453.476
 L -19.0451,-453.245 L -18.4369,-453.089 L -17.8139,-453.01 L 17.8139,-453.01 z
M -12.311,-453.509 L -11.8209,-453.778 L -11.3129,-454.147 L -10.8551,-454.577 L -10.4549,-455.061 L -10.1185,-455.591
 L -9.8511,-456.159 L -9.65707,-456.757 L -9.53941,-457.373 L -9.5,-458 L -9.5,-461 L -9.53941,-461.627
 L -9.65707,-462.243 L -9.8511,-462.841 L -10.1185,-463.409 L -10.4549,-463.939 L -10.8551,-464.423 L -11.3129,-464.853
 L -11.8209,-465.222 L -12.3711,-465.524 L -12.9549,-465.755 L -13.5631,-465.911 L -14.186,-465.99 L -17.8139,-465.99
 L -18.4369,-465.911 L -19.0451,-465.755 L -19.6289,-465.524 L -20.1791,-465.222 L -20.6871,-464.853 L -21.1448,-464.423
 L -21.5451,-463.939 L -21.8815,-463.409 L -22,-463.157 L -22,-508 L -21.9645,-508.564 L -21.8586,-509.119
 L -21.684,-509.657 L -21.4434,-510.168 L -21.1406,-510.645 L -20.7803,-511.08 L -20.3684,-511.467 L -19.9112,-511.799
 L -19.416,-512.072 L -18.8906,-512.28 L -18.3432,-512.42 L -17.7825,-512.491 L 17.7825,-512.491 L 18.3432,-512.42
 L 18.8906,-512.28 L 19.416,-512.072 L 19.9112,-511.799 L 20.3684,-511.467 L 20.7803,-511.08 L 21.1406,-510.645
 L 21.4434,-510.168 L 21.684,-509.657 L 21.8586,-509.119 L 21.9645,-508.564 L 22,-508 L 22,-458
 L 21.9645,-457.436 L 21.8586,-456.881 L 21.684,-456.343 L 21.4434,-455.832 L 21.1406,-455.355 L 20.7803,-454.92
 L 20.3684,-454.533 L 19.9112,-454.201 L 19.416,-453.928 L 18.8906,-453.72 L 18.3432,-453.58 L 17.7825,-453.509
 z
M 15.4684,-503.044 L 15.7725,-503.122 L 16.0644,-503.238 L 16.3396,-503.389 L 16.5936,-503.574 L 16.8224,-503.789
 L 17.0225,-504.031 L 17.1908,-504.296 L 17.3244,-504.58 L 17.4214,-504.878 L 17.4803,-505.187 L 17.5,-505.5
 L 17.4803,-505.813 L 17.4214,-506.122 L 17.3244,-506.42 L 17.1908,-506.704 L 17.0225,-506.969 L 16.8224,-507.211
 L 16.5936,-507.426 L 16.3396,-507.611 L 16.0644,-507.762 L 15.7725,-507.878 L 15.4684,-507.956 L 15.157,-507.995
 L 14.843,-507.995 L 14.5315,-507.956 L 14.2274,-507.878 L 13.9355,-507.762 L 13.6604,-507.611 L 13.4064,-507.426
 L 13.1776,-507.211 L 12.9774,-506.969 L 12.8092,-506.704 L 12.6756,-506.42 L 12.5785,-506.122 L 12.5197,-505.813
 L 12.5,-505.5 L 12.5197,-505.187 L 12.5785,-504.878 L 12.6756,-504.58 L 12.8092,-504.296 L 12.9774,-504.031
 L 13.1776,-503.789 L 13.4064,-503.574 L 13.6604,-503.389 L 13.9355,-503.238 L 14.2274,-503.122 L 14.5315,-503.044
 L 14.843,-503.005 L 15.157,-503.005 z
M 14.9058,-504.003 L 14.7189,-504.027 L 14.5365,-504.073 L 14.3613,-504.143 L 14.1963,-504.234 L 14.0439,-504.344
 L 13.9065,-504.473 L 13.7865,-504.618 L 13.6855,-504.777 L 13.6053,-504.948 L 13.5471,-505.127 L 13.5118,-505.312
 L 13.5,-505.5 L 13.5118,-505.688 L 13.5471,-505.873 L 13.6053,-506.052 L 13.6855,-506.223 L 13.7865,-506.382
 L 13.9065,-506.527 L 14.0439,-506.656 L 14.1963,-506.766 L 14.3613,-506.857 L 14.5365,-506.927 L 14.7189,-506.973
 L 14.9058,-506.997 L 15.0942,-506.997 L 15.2811,-506.973 L 15.4635,-506.927 L 15.6387,-506.857 L 15.8037,-506.766
 L 15.9561,-506.656 L 16.0934,-506.527 L 16.2135,-506.382 L 16.3145,-506.223 L 16.3947,-506.052 L 16.4529,-505.873
 L 16.4882,-505.688 L 16.5,-505.5 L 16.4882,-505.312 L 16.4529,-505.127 L 16.3947,-504.948 L 16.3145,-504.777
 L 16.2135,-504.618 L 16.0934,-504.473 L 15.9561,-504.344 L 15.8037,-504.234 L 15.6387,-504.143 L 15.4635,-504.073
 L 15.2811,-504.027 L 15.0942,-504.003 z
M -15.0942,-459.003 L -15.2811,-459.027 L -15.4635,-459.073 L -15.6387,-459.143 L -15.8037,-459.234 L -15.9561,-459.344
 L -16.0934,-459.473 L -16.2135,-459.618 L -16.3145,-459.777 L -16.3947,-459.948 L -16.4529,-460.127 L -16.4882,-460.312
 L -16.5,-460.5 L -16.4882,-460.688 L -16.4529,-460.873 L -16.3947,-461.052 L -16.3145,-461.223 L -16.2135,-461.382
 L -16.0934,-461.527 L -15.9561,-461.656 L -15.8037,-461.766 L -15.6387,-461.857 L -15.4635,-461.927 L -15.2811,-461.973
 L -15.0942,-461.997 L -14.9058,-461.997 L -14.7189,-461.973 L -14.5365,-461.927 L -14.3613,-461.857 L -14.1963,-461.766
 L -14.0439,-461.656 L -13.9065,-461.527 L -13.7865,-461.382 L -13.6855,-461.223 L -13.6053,-461.052 L -13.5471,-460.873
 L -13.5118,-460.688 L -13.5,-460.5 L -13.5118,-460.312 L -13.5471,-460.127 L -13.6053,-459.948 L -13.6855,-459.777
 L -13.7865,-459.618 L -13.9065,-459.473 L -14.0439,-459.344 L -14.1963,-459.234 L -14.3613,-459.143 L -14.5365,-459.073
 L -14.7189,-459.027 L -14.9058,-459.003 z
M 18.4369,-384.089 L 19.0451,-384.245 L 19.6289,-384.476 L 20.1791,-384.778 L 20.6871,-385.147 L 21.1448,-385.577
 L 21.5451,-386.061 L 21.8815,-386.591 L 22.1489,-387.159 L 22.3429,-387.757 L 22.4606,-388.373 L 22.5,-389
 L 22.5,-439 L 22.4606,-439.627 L 22.3429,-440.243 L 22.1489,-440.841 L 21.8815,-441.409 L 21.5451,-441.939
 L 21.1448,-442.423 L 20.6871,-442.853 L 20.1791,-443.222 L 19.6289,-443.524 L 19.0451,-443.755 L 18.4369,-443.911
 L 17.8139,-443.99 L -17.8139,-443.99 L -18.4369,-443.911 L -19.0451,-443.755 L -19.6289,-443.524 L -20.1791,-443.222
 L -20.6871,-442.853 L -21.1448,-442.423 L -21.5451,-441.939 L -21.8815,-441.409 L -22.1489,-440.841 L -22.3429,-440.243
 L -22.4606,-439.627 L -22.5,-439 L -22.5,-389 L -22.4606,-388.373 L -22.3429,-387.757 L -22.1489,-387.159
 L -21.8815,-386.591 L -21.5451,-386.061 L -21.1448,-385.577 L -20.6871,-385.147 L -20.1791,-384.778 L -19.6289,-384.476
 L -19.0451,-384.245 L -18.4369,-384.089 L -17.8139,-384.01 L 17.8139,-384.01 z
M -12.311,-384.509 L -11.8209,-384.778 L -11.3129,-385.147 L -10.8551,-385.577 L -10.4549,-386.061 L -10.1185,-386.591
 L -9.8511,-387.159 L -9.65707,-387.757 L -9.53941,-388.373 L -9.5,-389 L -9.5,-392 L -9.53941,-392.627
 L -9.65707,-393.243 L -9.8511,-393.841 L -10.1185,-394.409 L -10.4549,-394.939 L -10.8551,-395.423 L -11.3129,-395.853
 L -11.8209,-396.222 L -12.3711,-396.524 L -12.9549,-396.755 L -13.5631,-396.911 L -14.186,-396.99 L -17.8139,-396.99
 L -18.4369,-396.911 L -19.0451,-396.755 L -19.6289,-396.524 L -20.1791,-396.222 L -20.6871,-395.853 L -21.1448,-395.423
 L -21.5451,-394.939 L -21.8815,-394.409 L -22,-394.157 L -22,-439 L -21.9645,-439.564 L -21.8586,-440.119
 L -21.684,-440.657 L -21.4434,-441.168 L -21.1406,-441.645 L -20.7803,-442.08 L -20.3684,-442.467 L -19.9112,-442.799
 L -19.416,-443.072 L -18.8906,-443.28 L -18.3432,-443.42 L -17.7825,-443.491 L 17.7825,-443.491 L 18.3432,-443.42
 L 18.8906,-443.28 L 19.416,-443.072 L 19.9112,-442.799 L 20.3684,-442.467 L 20.7803,-442.08 L 21.1406,-441.645
 L 21.4434,-441.168 L 21.684,-440.657 L 21.8586,-440.119 L 21.9645,-439.564 L 22,-439 L 22,-389
 L 21.9645,-388.436 L 21.8586,-387.881 L 21.684,-387.343 L 21.4434,-386.832 L 21.1406,-386.355 L 20.7803,-385.92
 L 20.3684,-385.533 L 19.9112,-385.201 L 19.416,-384.928 L 18.8906,-384.72 L 18.3432,-384.58 L 17.7825,-384.509
 z
M 15.4684,-434.044 L 15.7725,-434.122 L 16.0644,-434.238 L 16.3396,-434.389 L 16.5936,-434.574 L 16.8224,-434.789
 L 17.0225,-435.031 L 17.1908,-435.296 L 17.3244,-435.58 L 17.4214,-435.878 L 17.4803,-436.187 L 17.5,-436.5
 L 17.4803,-436.813 L 17.4214,-437.122 L 17.3244,-437.42 L 17.1908,-437.704 L 17.0225,-437.969 L 16.8224,-438.211
 L 16.5936,-438.426 L 16.3396,-438.611 L 16.0644,-438.762 L 15.7725,-438.878 L 15.4684,-438.956 L 15.157,-438.995
 L 14.843,-438.995 L 14.5315,-438.956 L 14.2274,-438.878 L 13.9355,-438.762 L 13.6604,-438.611 L 13.4064,-438.426
 L 13.1776,-438.211 L 12.9774,-437.969 L 12.8092,-437.704 L 12.6756,-437.42 L 12.5785,-437.122 L 12.5197,-436.813
 L 12.5,-436.5 L 12.5197,-436.187 L 12.5785,-435.878 L 12.6756,-435.58 L 12.8092,-435.296 L 12.9774,-435.031
 L 13.1776,-434.789 L 13.4064,-434.574 L 13.6604,-434.389 L 13.9355,-434.238 L 14.2274,-434.122 L 14.5315,-434.044
 L 14.843,-434.005 L 15.157,-434.005 z
M 14.9058,-435.003 L 14.7189,-435.027 L 14.5365,-435.073 L 14.3613,-435.143 L 14.1963,-435.234 L 14.0439,-435.344
 L 13.9065,-435.473 L 13.7865,-435.618 L 13.6855,-435.777 L 13.6053,-435.948 L 13.5471,-436.127 L 13.5118,-436.312
 L 13.5,-436.5 L 13.5118,-436.688 L 13.5471,-436.873 L 13.6053,-437.052 L 13.6855,-437.223 L 13.7865,-437.382
 L 13.9065,-437.527 L 14.0439,-437.656 L 14.1963,-437.766 L 14.3613,-437.857 L 14.5365,-437.927 L 14.7189,-437.973
 L 14.9058,-437.997 L 15.0942,-437.997 L 15.2811,-437.973 L 15.4635,-437.927 L 15.6387,-437.857 L 15.8037,-437.766
 L 15.9561,-437.656 L 16.0934,-437.527 L 16.2135,-437.382 L 16.3145,-437.223 L 16.3947,-437.052 L 16.4529,-436.873
 L 16.4882,-436.688 L 16.5,-436.5 L 16.4882,-436.312 L 16.4529,-436.127 L 16.3947,-435.948 L 16.3145,-435.777
 L 16.2135,-435.618 L 16.0934,-435.473 L 15.9561,-435.344 L 15.8037,-435.234 L 15.6387,-435.143 L 15.4635,-435.073
 L 15.2811,-435.027 L 15.0942,-435.003 z
M -15.0942,-390.003 L -15.2811,-390.027 L -15.4635,-390.073 L -15.6387,-390.143 L -15.8037,-390.234 L -15.9561,-390.344
 L -16.0934,-390.473 L -16.2135,-390.618 L -16.3145,-390.777 L -16.3947,-390.948 L -16.4529,-391.127 L -16.4882,-391.312
 L -16.5,-391.5 L -16.4882,-391.688 L -16.4529,-391.873 L -16.3947,-392.052 L -16.3145,-392.223 L -16.2135,-392.382
 L -16.0934,-392.527 L -15.9561,-392.656 L -15.8037,-392.766 L -15.6387,-392.857 L -15.4635,-392.927 L -15.2811,-392.973
 L -15.0942,-392.997 L -14.9058,-392.997 L -14.7189,-392.973 L -14.5365,-392.927 L -14.3613,-392.857 L -14.1963,-392.766
 L -14.0439,-392.656 L -13.9065,-392.527 L -13.7865,-392.382 L -13.6855,-392.223 L -13.6053,-392.052 L -13.5471,-391.873
 L -13.5118,-391.688 L -13.5,-391.5 L -13.5118,-391.312 L -13.5471,-391.127 L -13.6053,-390.948 L -13.6855,-390.777
 L -13.7865,-390.618 L -13.9065,-390.473 L -14.0439,-390.344 L -14.1963,-390.234 L -14.3613,-390.143 L -14.5365,-390.073
 L -14.7189,-390.027 L -14.9058,-390.003 z
M 18.4369,-315.089 L 19.0451,-315.245 L 19.6289,-315.476 L 20.1791,-315.778 L 20.6871,-316.147 L 21.1448,-316.577
 L 21.5451,-317.061 L 21.8815,-317.591 L 22.1489,-318.159 L 22.3429,-318.757 L 22.4606,-319.373 L 22.5,-320
 L 22.5,-370 L 22.4606,-370.627 L 22.3429,-371.243 L 22.1489,-371.841 L 21.8815,-372.409 L 21.5451,-372.939
 L 21.1448,-373.423 L 20.6871,-373.853 L 20.1791,-374.222 L 19.6289,-374.524 L 19.0451,-374.755 L 18.4369,-374.911
 L 17.8139,-374.99 L -17.8139,-374.99 L -18.4369,-374.911 L -19.0451,-374.755 L -19.6289,-374.524 L -20.1791,-374.222
 L -20.6871,-373.853 L -21.1448,-373.423 L -21.5451,-372.939 L -21.8815,-372.409 L -22.1489,-371.841 L -22.3429,-371.243
 L -22.4606,-370.627 L -22.5,-370 L -22.5,-320 L -22.4606,-319.373 L -22.3429,-318.757 L -22.1489,-318.159
 L -21.8815,-317.591 L -21.5451,-317.061 L -21.1448,-316.577 L -20.6871,-316.147 L -20.1791,-315.778 L -19.6289,-315.476
 L -19.0451,-315.245 L -18.4369,-315.089 L -17.8139,-315.01 L 17.8139,-315.01 z
M -11.5357,-315.986 L -11.3129,-316.147 L -10.8551,-316.577 L -10.4549,-317.061 L -10.1185,-317.591 L -9.8511,-318.159
 L -9.65707,-318.757 L -9.53941,-319.373 L -9.5,-320 L -9.5,-323 L -9.53941,-323.627 L -9.65707,-324.243
 L -9.8511,-324.841 L -10.1185,-325.409 L -10.4549,-325.939 L -10.8551,-326.423 L -11.3129,-326.853 L -11.8209,-327.222
 L -12.3711,-327.524 L -12.9549,-327.755 L -13.5631,-327.911 L -14.186,-327.99 L -17.8139,-327.99 L -18.4369,-327.911
 L -19.0451,-327.755 L -19.6289,-327.524 L -20.1791,-327.222 L -20.6871,-326.853 L -21.1448,-326.423 L -21.5224,-325.966
 L -21.5224,-370 L -21.4907,-370.504 L -21.396,-371 L -21.2399,-371.481 L -21.0248,-371.938 L -20.7542,-372.364
 L -20.4322,-372.754 L -20.0639,-373.099 L -19.6553,-373.396 L -19.2126,-373.64 L -18.743,-373.826 L -18.2537,-373.951
 L -17.7526,-374.014 L 11.5357,-374.014 L 11.3129,-373.853 L 10.8551,-373.423 L 10.4549,-372.939 L 10.1185,-372.409
 L 9.8511,-371.841 L 9.65707,-371.243 L 9.53941,-370.627 L 9.5,-370 L 9.5,-367 L 9.53941,-366.373
 L 9.65707,-365.757 L 9.8511,-365.159 L 10.1185,-364.591 L 10.4549,-364.061 L 10.8551,-363.577 L 11.3129,-363.147
 L 11.8209,-362.778 L 12.3711,-362.476 L 12.9549,-362.245 L 13.5631,-362.089 L 14.186,-362.01 L 17.8139,-362.01
 L 18.4369,-362.089 L 19.0451,-362.245 L 19.6289,-362.476 L 20.1791,-362.778 L 20.6871,-363.147 L 21.1448,-363.577
 L 21.5224,-364.034 L 21.5224,-320 L 21.4907,-319.496 L 21.396,-319 L 21.2399,-318.519 L 21.0248,-318.062
 L 20.7542,-317.636 L 20.4322,-317.246 L 20.0639,-316.901 L 19.6553,-316.604 L 19.2126,-316.36 L 18.743,-316.174
 L 18.2537,-316.049 L 17.7526,-315.986 z
M 14.9058,-366.003 L 14.7189,-366.027 L 14.5365,-366.073 L 14.3613,-366.143 L 14.1963,-366.234 L 14.0439,-366.344
 L 13.9065,-366.473 L 13.7865,-366.618 L 13.6855,-366.777 L 13.6053,-366.948 L 13.5471,-367.127 L 13.5118,-367.312
 L 13.5,-367.5 L 13.5118,-367.688 L 13.5471,-367.873 L 13.6053,-368.052 L 13.6855,-368.223 L 13.7865,-368.382
 L 13.9065,-368.527 L 14.0439,-368.656 L 14.1963,-368.766 L 14.3613,-368.857 L 14.5365,-368.927 L 14.7189,-368.973
 L 14.9058,-368.997 L 15.0942,-368.997 L 15.2811,-368.973 L 15.4635,-368.927 L 15.6387,-368.857 L 15.8037,-368.766
 L 15.9561,-368.656 L 16.0934,-368.527 L 16.2135,-368.382 L 16.3145,-368.223 L 16.3947,-368.052 L 16.4529,-367.873
 L 16.4882,-367.688 L 16.5,-367.5 L 16.4882,-367.312 L 16.4529,-367.127 L 16.3947,-366.948 L 16.3145,-366.777
 L 16.2135,-366.618 L 16.0934,-366.473 L 15.9561,-366.344 L 15.8037,-366.234 L 15.6387,-366.143 L 15.4635,-366.073
 L 15.2811,-366.027 L 15.0942,-366.003 z
M -15.0942,-321.003 L -15.2811,-321.027 L -15.4635,-321.073 L -15.6387,-321.143 L -15.8037,-321.234 L -15.9561,-321.344
 L -16.0934,-321.473 L -16.2135,-321.618 L -16.3145,-321.777 L -16.3947,-321.948 L -16.4529,-322.127 L -16.4882,-322.312
 L -16.5,-322.5 L -16.4882,-322.688 L -16.4529,-322.873 L -16.3947,-323.052 L -16.3145,-323.223 L -16.2135,-323.382
 L -16.0934,-323.527 L -15.9561,-323.656 L -15.8037,-323.766 L -15.6387,-323.857 L -15.4635,-323.927 L -15.2811,-323.973
 L -15.0942,-323.997 L -14.9058,-323.997 L -14.7189,-323.973 L -14.5365,-323.927 L -14.3613,-323.857 L -14.1963,-323.766
 L -14.0439,-323.656 L -13.9065,-323.527 L -13.7865,-323.382 L -13.6855,-323.223 L -13.6053,-323.052 L -13.5471,-322.873
 L -13.5118,-322.688 L -13.5,-322.5 L -13.5118,-322.312 L -13.5471,-322.127 L -13.6053,-321.948 L -13.6855,-321.777
 L -13.7865,-321.618 L -13.9065,-321.473 L -14.0439,-321.344 L -14.1963,-321.234 L -14.3613,-321.143 L -14.5365,-321.073
 L -14.7189,-321.027 L -14.9058,-321.003 z
M 18.4369,-246.089 L 19.0451,-246.245 L 19.6289,-246.476 L 20.1791,-246.778 L 20.6871,-247.147 L 21.1448,-247.577
 L 21.5451,-248.061 L 21.8815,-248.591 L 22.1489,-249.159 L 22.3429,-249.757 L 22.4606,-250.373 L 22.5,-251
 L 22.5,-301 L 22.4606,-301.627 L 22.3429,-302.243 L 22.1489,-302.841 L 21.8815,-303.409 L 21.5451,-303.939
 L 21.1448,-304.423 L 20.6871,-304.853 L 20.1791,-305.222 L 19.6289,-305.524 L 19.0451,-305.755 L 18.4369,-305.911
 L 17.8139,-305.99 L -17.8139,-305.99 L -18.4369,-305.911 L -19.0451,-305.755 L -19.6289,-305.524 L -20.1791,-305.222
 L -20.6871,-304.853 L -21.1448,-304.423 L -21.5451,-303.939 L -21.8815,-303.409 L -22.1489,-302.841 L -22.3429,-302.243
 L -22.4606,-301.627 L -22.5,-301 L -22.5,-251 L -22.4606,-250.373 L -22.3429,-249.757 L -22.1489,-249.159
 L -21.8815,-248.591 L -21.5451,-248.061 L -21.1448,-247.577 L -20.6871,-247.147 L -20.1791,-246.778 L -19.6289,-246.476
 L -19.0451,-246.245 L -18.4369,-246.089 L -17.8139,-246.01 L 17.8139,-246.01 z
M 14.8493,-296.105 L 14.5503,-296.143 L 14.2583,-296.217 L 13.9781,-296.328 L 13.714,-296.474 L 13.4702,-296.651
 L 13.2505,-296.857 L 13.0583,-297.089 L 12.8969,-297.344 L 12.7685,-297.617 L 12.6754,-297.903 L 12.6189,-298.199
 L 12.6,-298.5 L 12.6189,-298.801 L 12.6754,-299.097 L 12.7685,-299.383 L 12.8969,-299.656 L 13.0583,-299.911
 L 13.2505,-300.143 L 13.4702,-300.349 L 13.714,-300.526 L 13.9781,-300.672 L 14.2583,-300.783 L 14.5503,-300.857
 L 14.8493,-300.895 L 15.1507,-300.895 L 15.4497,-300.857 L 15.7416,-300.783 L 16.0219,-300.672 L 16.286,-300.526
 L 16.5298,-300.349 L 16.7495,-300.143 L 16.9416,-299.911 L 17.1031,-299.656 L 17.2315,-299.383 L 17.3246,-299.097
 L 17.3811,-298.801 L 17.4,-298.5 L 17.3811,-298.199 L 17.3246,-297.903 L 17.2315,-297.617 L 17.1031,-297.344
 L 16.9416,-297.089 L 16.7495,-296.857 L 16.5298,-296.651 L 16.286,-296.474 L 16.0219,-296.328 L 15.7416,-296.217
 L 15.4497,-296.143 L 15.1507,-296.105 z
M -15.0942,-297.003 L -15.2811,-297.027 L -15.4635,-297.073 L -15.6387,-297.143 L -15.8037,-297.234 L -15.9561,-297.344
 L -16.0934,-297.473 L -16.2135,-297.618 L -16.3145,-297.777 L -16.3947,-297.948 L -16.4529,-298.127 L -16.4882,-298.312
 L -16.5,-298.5 L -16.4882,-298.688 L -16.4529,-298.873 L -16.3947,-299.052 L -16.3145,-299.223 L -16.2135,-299.382
 L -16.0934,-299.527 L -15.9561,-299.656 L -15.8037,-299.766 L -15.6387,-299.857 L -15.4635,-299.927 L -15.2811,-299.973
 L -15.0942,-299.997 L -14.9058,-299.997 L -14.7189,-299.973 L -14.5365,-299.927 L -14.3613,-299.857 L -14.1963,-299.766
 L -14.0439,-299.656 L -13.9065,-299.527 L -13.7865,-299.382 L -13.6855,-299.223 L -13.6053,-299.052 L -13.5471,-298.873
 L -13.5118,-298.688 L -13.5,-298.5 L -13.5118,-298.312 L -13.5471,-298.127 L -13.6053,-297.948 L -13.6855,-297.777
 L -13.7865,-297.618 L -13.9065,-297.473 L -14.0439,-297.344 L -14.1963,-297.234 L -14.3613,-297.143 L -14.5365,-297.073
 L -14.7189,-297.027 L -14.9058,-297.003 z
M -15.1507,-251.105 L -15.4497,-251.143 L -15.7416,-251.217 L -16.0219,-251.328 L -16.286,-251.474 L -16.5298,-251.651
 L -16.7495,-251.857 L -16.9416,-252.089 L -17.1031,-252.344 L -17.2315,-252.617 L -17.3246,-252.903 L -17.3811,-253.199
 L -17.4,-253.5 L -17.3811,-253.801 L -17.3246,-254.097 L -17.2315,-254.383 L -17.1031,-254.656 L -16.9416,-254.911
 L -16.7495,-255.143 L -16.5298,-255.349 L -16.286,-255.526 L -16.0219,-255.672 L -15.7416,-255.783 L -15.4497,-255.857
 L -15.1507,-255.895 L -14.8493,-255.895 L -14.5503,-255.857 L -14.2583,-255.783 L -13.9781,-255.672 L -13.714,-255.526
 L -13.4702,-255.349 L -13.2505,-255.143 L -13.0583,-254.911 L -12.8969,-254.656 L -12.7685,-254.383 L -12.6754,-254.097
 L -12.6189,-253.801 L -12.6,-253.5 L -12.6189,-253.199 L -12.6754,-252.903 L -12.7685,-252.617 L -12.8969,-252.344
 L -13.0583,-252.089 L -13.2505,-251.857 L -13.4702,-251.651 L -13.714,-251.474 L -13.9781,-251.328 L -14.2583,-251.217
 L -14.5503,-251.143 L -14.8493,-251.105 z
M 14.9058,-252.003 L 14.7189,-252.027 L 14.5365,-252.073 L 14.3613,-252.143 L 14.1963,-252.234 L 14.0439,-252.344
 L 13.9065,-252.473 L 13.7865,-252.618 L 13.6855,-252.777 L 13.6053,-252.948 L 13.5471,-253.127 L 13.5118,-253.312
 L 13.5,-253.5 L 13.5118,-253.688 L 13.5471,-253.873 L 13.6053,-254.052 L 13.6855,-254.223 L 13.7865,-254.382
 L 13.9065,-254.527 L 14.0439,-254.656 L 14.1963,-254.766 L 14.3613,-254.857 L 14.5365,-254.927 L 14.7189,-254.973
 L 14.9058,-254.997 L 15.0942,-254.997 L 15.2811,-254.973 L 15.4635,-254.927 L 15.6387,-254.857 L 15.8037,-254.766
 L 15.9561,-254.656 L 16.0934,-254.527 L 16.2135,-254.382 L 16.3145,-254.223 L 16.3947,-254.052 L 16.4529,-253.873
 L 16.4882,-253.688 L 16.5,-253.5 L 16.4882,-253.312 L 16.4529,-253.127 L 16.3947,-252.948 L 16.3145,-252.777
 L 16.2135,-252.618 L 16.0934,-252.473 L 15.9561,-252.344 L 15.8037,-252.234 L 15.6387,-252.143 L 15.4635,-252.073
 L 15.2811,-252.027 L 15.0942,-252.003 z
" stroke="black" fill="lightgray" stroke-width="0.5"/>
</svg>
