<?xml version="1.0" standalone="no"?>
<!DOCTYPE svg PUBLIC "-//W3C//DTD SVG 1.1//EN" "http://www.w3.org/Graphics/SVG/1.1/DTD/svg11.dtd">
<svg width="44mm" height="44mm" viewBox="-22 -22 44 44" xmlns="http://www.w3.org/2000/svg" version="1.1">
<title>OpenSCAD Model</title>
<path d="
M 17.9369,21.9114 L 18.5451,21.7553 L 19.1289,21.5241 L 19.6791,21.2216 L 20.1871,20.8526 L 20.6448,20.4227
 L 21.0451,19.9389 L 21.3815,19.4088 L 21.6489,18.8406 L 21.8429,18.2434 L 21.9606,17.6267 L 22,17
 L 22,-17 L 21.9606,-17.6267 L 21.8429,-18.2434 L 21.6489,-18.8406 L 21.3815,-19.4088 L 21.0451,-19.9389
 L 20.6448,-20.4227 L 20.1871,-20.8526 L 19.6791,-21.2216 L 19.1289,-21.5241 L 18.5451,-21.7553 L 17.9369,-21.9114
 L 17.3139,-21.9901 L 13.1488,-21.9901 L 13.2811,-21.9734 L 13.4635,-21.9266 L 13.6387,-21.8572 L 13.8037,-21.7665
 L 13.9561,-21.6558 L 14.0934,-21.5268 L 14.2135,-21.3817 L 14.3145,-21.2226 L 14.3947,-21.0522 L 14.4529,-20.873
 L 14.4882,-20.688 L 14.5,-20.5 L 14.4882,-20.312 L 14.4529,-20.127 L 14.3947,-19.9478 L 14.3145,-19.7774
 L 14.2135,-19.6183 L 14.0934,-19.4732 L 13.9561,-19.3442 L 13.8037,-19.2335 L 13.6387,-19.1427 L 13.4635,-19.0734
 L 13.2811,-19.0266 L 13.0942,-19.003 L 12.9058,-19.003 L 12.7189,-19.0266 L 12.5365,-19.0734 L 12.3613,-19.1427
 L 12.1963,-19.2335 L 12.0439,-19.3442 L 11.9065,-19.4732 L 11.7865,-19.6183 L 11.6855,-19.7774 L 11.6053,-19.9478
 L 11.5471,-20.127 L 11.5118,-20.312 L 11.5,-20.5 L 11.5118,-20.688 L 11.5471,-20.873 L 11.6053,-21.0522
 L 11.6855,-21.2226 L 11.7865,-21.3817 L 11.9065,-21.5268 L 12.0439,-21.6558 L 12.1963,-21.7665 L 12.3613,-21.8572
 L 12.5365,-21.9266 L 12.7189,-21.9734 L 12.8511,-21.9901 L -12.8511,-21.9901 L -12.7189,-21.9734 L -12.5365,-21.9266
 L -12.3613,-21.8572 L -12.1963,-21.7665 L -12.0439,-21.6558 L -11.9065,-21.5268 L -11.7865,-21.3817 L -11.6855,-21.2226
 L -11.6053,-21.0522 L -11.5471,-20.873 L -11.5118,-20.688 L -11.5,-20.5 L -11.5118,-20.312 L -11.5471,-20.127
 L -11.6053,-19.9478 L -11.6855,-19.7774 L -11.7865,-19.6183 L -11.9065,-19.4732 L -12.0439,-19.3442 L -12.1963,-19.2335
 L -12.3613,-19.1427 L -12.5365,-19.0734 L -12.7189,-19.0266 L -12.9058,-19.003 L -13.0942,-19.003 L -13.2811,-19.0266
 L -13.4635,-19.0734 L -13.6387,-19.1427 L -13.8037,-19.2335 L -13.9561,-19.3442 L -14.0934,-19.4732 L -14.2135,-19.6183
 L -14.3145,-19.7774 L -14.3947,-19.9478 L -14.4529,-20.127 L -14.4882,-20.312 L -14.5,-20.5 L -14.4882,-20.688
 L -14.4529,-20.873 L -14.3947,-21.0522 L -14.3145,-21.2226 L -14.2135,-21.3817 L -14.0934,-21.5268 L -13.9561,-21.6558
 L -13.8037,-21.7665 L -13.6387,-21.8572 L -13.4635,-21.9266 L -13.2811,-21.9734 L -13.1488,-21.9901 L -17.3139,-21.9901
 L -17.9369,-21.9114 L -18.5451,-21.7553 L -19.1289,-21.5241 L -19.6791,-21.2216 L -20.1871,-20.8526 L -20.6448,-20.4227
 L -21.0451,-19.9389 L -21.3815,-19.4088 L -21.6489,-18.8406 L -21.8429,-18.2434 L -21.9606,-17.6267 L -22,-17
 L -22,17 L -21.9606,17.6267 L -21.8429,18.2434 L -21.6489,18.8406 L -21.3815,19.4088 L -21.0451,19.9389
 L -20.6448,20.4227 L -20.1871,20.8526 L -19.6791,21.2216 L -19.1289,21.5241 L -18.5451,21.7553 L -17.9369,21.9114
 L -17.3139,21.9901 L 17.3139,21.9901 z
M 14.9058,-13.5029 L 14.7189,-13.5266 L 14.5365,-13.5734 L 14.3613,-13.6427 L 14.1963,-13.7335 L 14.0439,-13.8442
 L 13.9065,-13.9732 L 13.7865,-14.1183 L 13.6855,-14.2774 L 13.6053,-14.4478 L 13.5471,-14.627 L 13.5118,-14.812
 L 13.5,-15 L 13.5118,-15.188 L 13.5471,-15.373 L 13.6053,-15.5522 L 13.6855,-15.7226 L 13.7865,-15.8817
 L 13.9065,-16.0268 L 14.0439,-16.1558 L 14.1963,-16.2665 L 14.3613,-16.3572 L 14.5365,-16.4266 L 14.7189,-16.4734
 L 14.9058,-16.497 L 15.0942,-16.497 L 15.2811,-16.4734 L 15.4635,-16.4266 L 15.6387,-16.3572 L 15.8037,-16.2665
 L 15.9561,-16.1558 L 16.0934,-16.0268 L 16.2135,-15.8817 L 16.3145,-15.7226 L 16.3947,-15.5522 L 16.4529,-15.373
 L 16.4882,-15.188 L 16.5,-15 L 16.4882,-14.812 L 16.4529,-14.627 L 16.3947,-14.4478 L 16.3145,-14.2774
 L 16.2135,-14.1183 L 16.0934,-13.9732 L 15.9561,-13.8442 L 15.8037,-13.7335 L 15.6387,-13.6427 L 15.4635,-13.5734
 L 15.2811,-13.5266 L 15.0942,-13.5029 z
M -15.0942,-13.5029 L -15.2811,-13.5266 L -15.4635,-13.5734 L -15.6387,-13.6427 L -15.8037,-13.7335 L -15.9561,-13.8442
 L -16.0934,-13.9732 L -16.2135,-14.1183 L -16.3145,-14.2774 L -16.3947,-14.4478 L -16.4529,-14.627 L -16.4882,-14.812
 L -16.5,-15 L -16.4882,-15.188 L -16.4529,-15.373 L -16.3947,-15.5522 L -16.3145,-15.7226 L -16.2135,-15.8817
 L -16.0934,-16.0268 L -15.9561,-16.1558 L -15.8037,-16.2665 L -15.6387,-16.3572 L -15.4635,-16.4266 L -15.2811,-16.4734
 L -15.0942,-16.497 L -14.9058,-16.497 L -14.7189,-16.4734 L -14.5365,-16.4266 L -14.3613,-16.3572 L -14.1963,-16.2665
 L -14.0439,-16.1558 L -13.9065,-16.0268 L -13.7865,-15.8817 L -13.6855,-15.7226 L -13.6053,-15.5522 L -13.5471,-15.373
 L -13.5118,-15.188 L -13.5,-15 L -13.5118,-14.812 L -13.5471,-14.627 L -13.6053,-14.4478 L -13.6855,-14.2774
 L -13.7865,-14.1183 L -13.9065,-13.9732 L -14.0439,-13.8442 L -14.1963,-13.7335 L -14.3613,-13.6427 L -14.5365,-13.5734
 L -14.7189,-13.5266 L -14.9058,-13.5029 z
M -15.0942,1.49704 L -15.2811,1.47342 L -15.4635,1.42657 L -15.6387,1.35724 L -15.8037,1.26648 L -15.9561,1.15576
 L -16.0934,1.02681 L -16.2135,0.881668 L -16.3145,0.722626 L -16.3947,0.552185 L -16.4529,0.373032 L -16.4882,0.187988
 L -16.5,-0 L -16.4882,-0.187988 L -16.4529,-0.373032 L -16.3947,-0.552185 L -16.3145,-0.722626 L -16.2135,-0.881668
 L -16.0934,-1.02681 L -15.9561,-1.15576 L -15.8037,-1.26648 L -15.6387,-1.35724 L -15.4635,-1.42657 L -15.2811,-1.47342
 L -15.0942,-1.49704 L -14.9058,-1.49704 L -14.7189,-1.47342 L -14.5365,-1.42657 L -14.3613,-1.35724 L -14.1963,-1.26648
 L -14.0439,-1.15576 L -13.9065,-1.02681 L -13.7865,-0.881668 L -13.6855,-0.722626 L -13.6053,-0.552185 L -13.5471,-0.373032
 L -13.5118,-0.187988 L -13.5,-0 L -13.5118,0.187988 L -13.5471,0.373032 L -13.6053,0.552185 L -13.6855,0.722626
 L -13.7865,0.881668 L -13.9065,1.02681 L -14.0439,1.15576 L -14.1963,1.26648 L -14.3613,1.35724 L -14.5365,1.42657
 L -14.7189,1.47342 L -14.9058,1.49704 z
M 14.9058,1.49704 L 14.7189,1.47342 L 14.5365,1.42657 L 14.3613,1.35724 L 14.1963,1.26648 L 14.0439,1.15576
 L 13.9065,1.02681 L 13.7865,0.881668 L 13.6855,0.722626 L 13.6053,0.552185 L 13.5471,0.373032 L 13.5118,0.187988
 L 13.5,-0 L 13.5118,-0.187988 L 13.5471,-0.373032 L 13.6053,-0.552185 L 13.6855,-0.722626 L 13.7865,-0.881668
 L 13.9065,-1.02681 L 14.0439,-1.15576 L 14.1963,-1.26648 L 14.3613,-1.35724 L 14.5365,-1.42657 L 14.7189,-1.47342
 L 14.9058,-1.49704 L 15.0942,-1.49704 L 15.2811,-1.47342 L 15.4635,-1.42657 L 15.6387,-1.35724 L 15.8037,-1.26648
 L 15.9561,-1.15576 L 16.0934,-1.02681 L 16.2135,-0.881668 L 16.3145,-0.722626 L 16.3947,-0.552185 L 16.4529,-0.373032
 L 16.4882,-0.187988 L 16.5,-0 L 16.4882,0.187988 L 16.4529,0.373032 L 16.3947,0.552185 L 16.3145,0.722626
 L 16.2135,0.881668 L 16.0934,1.02681 L 15.9561,1.15576 L 15.8037,1.26648 L 15.6387,1.35724 L 15.4635,1.42657
 L 15.2811,1.47342 L 15.0942,1.49704 z
M -13.0942,6.99704 L -13.2811,6.97342 L -13.4635,6.92657 L -13.6387,6.85724 L -13.8037,6.76648 L -13.9561,6.65576
 L -14.0934,6.52681 L -14.2135,6.38167 L -14.3145,6.22263 L -14.3947,6.05219 L -14.4529,5.87303 L -14.4882,5.68799
 L -14.5,5.5 L -14.4882,5.312 L -14.4529,5.12695 L -14.3947,4.9478 L -14.3145,4.77736 L -14.2135,4.61832
 L -14.0934,4.47318 L -13.9561,4.34422 L -13.8037,4.23351 L -13.6387,4.14275 L -13.4635,4.07341 L -13.2811,4.02657
 L -13.0942,4.00294 L -12.9058,4.00294 L -12.7189,4.02657 L -12.5365,4.07341 L -12.3613,4.14275 L -12.1963,4.23351
 L -12.0439,4.34422 L -11.9065,4.47318 L -11.7865,4.61832 L -11.6855,4.77736 L -11.6053,4.9478 L -11.5471,5.12695
 L -11.5118,5.312 L -11.5,5.5 L -11.5118,5.68799 L -11.5471,5.87303 L -11.6053,6.05219 L -11.6855,6.22263
 L -11.7865,6.38167 L -11.9065,6.52681 L -12.0439,6.65576 L -12.1963,6.76648 L -12.3613,6.85724 L -12.5365,6.92657
 L -12.7189,6.97342 L -12.9058,6.99704 z
M 12.9058,6.99704 L 12.7189,6.97342 L 12.5365,6.92657 L 12.3613,6.85724 L 12.1963,6.76648 L 12.0439,6.65576
 L 11.9065,6.52681 L 11.7865,6.38167 L 11.6855,6.22263 L 11.6053,6.05219 L 11.5471,5.87303 L 11.5118,5.68799
 L 11.5,5.5 L 11.5118,5.312 L 11.5471,5.12695 L 11.6053,4.9478 L 11.6855,4.77736 L 11.7865,4.61832
 L 11.9065,4.47318 L 12.0439,4.34422 L 12.1963,4.23351 L 12.3613,4.14275 L 12.5365,4.07341 L 12.7189,4.02657
 L 12.9058,4.00294 L 13.0942,4.00294 L 13.2811,4.02657 L 13.4635,4.07341 L 13.6387,4.14275 L 13.8037,4.23351
 L 13.9561,4.34422 L 14.0934,4.47318 L 14.2135,4.61832 L 14.3145,4.77736 L 14.3947,4.9478 L 14.4529,5.12695
 L 14.4882,5.312 L 14.5,5.5 L 14.4882,5.68799 L 14.4529,5.87303 L 14.3947,6.05219 L 14.3145,6.22263
 L 14.2135,6.38167 L 14.0934,6.52681 L 13.9561,6.65576 L 13.8037,6.76648 L 13.6387,6.85724 L 13.4635,6.92657
 L 13.2811,6.97342 L 13.0942,6.99704 z
M -15.0942,16.497 L -15.2811,16.4734 L -15.4635,16.4266 L -15.6387,16.3572 L -15.8037,16.2665 L -15.9561,16.1558
 L -16.0934,16.0268 L -16.2135,15.8817 L -16.3145,15.7226 L -16.3947,15.5522 L -16.4529,15.373 L -16.4882,15.188
 L -16.5,15 L -16.4882,14.812 L -16.4529,14.627 L -16.3947,14.4478 L -16.3145,14.2774 L -16.2135,14.1183
 L -16.0934,13.9732 L -15.9561,13.8442 L -15.8037,13.7335 L -15.6387,13.6427 L -15.4635,13.5734 L -15.2811,13.5266
 L -15.0942,13.5029 L -14.9058,13.5029 L -14.7189,13.5266 L -14.5365,13.5734 L -14.3613,13.6427 L -14.1963,13.7335
 L -14.0439,13.8442 L -13.9065,13.9732 L -13.7865,14.1183 L -13.6855,14.2774 L -13.6053,14.4478 L -13.5471,14.627
 L -13.5118,14.812 L -13.5,15 L -13.5118,15.188 L -13.5471,15.373 L -13.6053,15.5522 L -13.6855,15.7226
 L -13.7865,15.8817 L -13.9065,16.0268 L -14.0439,16.1558 L -14.1963,16.2665 L -14.3613,16.3572 L -14.5365,16.4266
 L -14.7189,16.4734 L -14.9058,16.497 z
M -0.0941772,16.497 L -0.281067,16.4734 L -0.463516,16.4266 L -0.638657,16.3572 L -0.803726,16.2665 L -0.956131,16.1558
 L -1.09344,16.0268 L -1.21352,15.8817 L -1.31445,15.7226 L -1.39465,15.5522 L -1.45287,15.373 L -1.48816,15.188
 L -1.5,15 L -1.48816,14.812 L -1.45287,14.627 L -1.39465,14.4478 L -1.31445,14.2774 L -1.21352,14.1183
 L -1.09344,13.9732 L -0.956131,13.8442 L -0.803726,13.7335 L -0.638657,13.6427 L -0.463516,13.5734 L -0.281067,13.5266
 L -0.0941772,13.5029 L 0.0941772,13.5029 L 0.281067,13.5266 L 0.463516,13.5734 L 0.638657,13.6427 L 0.803726,13.7335
 L 0.956131,13.8442 L 1.09344,13.9732 L 1.21352,14.1183 L 1.31445,14.2774 L 1.39465,14.4478 L 1.45287,14.627
 L 1.48816,14.812 L 1.5,15 L 1.48816,15.188 L 1.45287,15.373 L 1.39465,15.5522 L 1.31445,15.7226
 L 1.21352,15.8817 L 1.09344,16.0268 L 0.956131,16.1558 L 0.803726,16.2665 L 0.638657,16.3572 L 0.463516,16.4266
 L 0.281067,16.4734 L 0.0941772,16.497 z
M 14.9058,16.497 L 14.7189,16.4734 L 14.5365,16.4266 L 14.3613,16.3572 L 14.1963,16.2665 L 14.0439,16.1558
 L 13.9065,16.0268 L 13.7865,15.8817 L 13.6855,15.7226 L 13.6053,15.5522 L 13.5471,15.373 L 13.5118,15.188
 L 13.5,15 L 13.5118,14.812 L 13.5471,14.627 L 13.6053,14.4478 L 13.6855,14.2774 L 13.7865,14.1183
 L 13.9065,13.9732 L 14.0439,13.8442 L 14.1963,13.7335 L 14.3613,13.6427 L 14.5365,13.5734 L 14.7189,13.5266
 L 14.9058,13.5029 L 15.0942,13.5029 L 15.2811,13.5266 L 15.4635,13.5734 L 15.6387,13.6427 L 15.8037,13.7335
 L 15.9561,13.8442 L 16.0934,13.9732 L 16.2135,14.1183 L 16.3145,14.2774 L 16.3947,14.4478 L 16.4529,14.627
 L 16.4882,14.812 L 16.5,15 L 16.4882,15.188 L 16.4529,15.373 L 16.3947,15.5522 L 16.3145,15.7226
 L 16.2135,15.8817 L 16.0934,16.0268 L 15.9561,16.1558 L 15.8037,16.2665 L 15.6387,16.3572 L 15.4635,16.4266
 L 15.2811,16.4734 L 15.0942,16.497 z
" stroke="black" fill="lightgray" stroke-width="0.5"/>
</svg>
