<?xml version="1.0" standalone="no"?>
<!DOCTYPE svg PUBLIC "-//W3C//DTD SVG 1.1//EN" "http://www.w3.org/Graphics/SVG/1.1/DTD/svg11.dtd">
<svg width="44mm" height="44mm" viewBox="-22 -22 44 44" xmlns="http://www.w3.org/2000/svg" version="1.1">
<title>OpenSCAD Model</title>
<path d="
M 17.9369,21.9114 L 18.5451,21.7553 L 19.1289,21.5241 L 19.6791,21.2216 L 20.1871,20.8526 L 20.6448,20.4227
 L 21.0451,19.9389 L 21.3815,19.4088 L 21.6489,18.8406 L 21.8429,18.2434 L 21.9606,17.6267 L 22,17
 L 22,-17 L 21.9606,-17.6267 L 21.8429,-18.2434 L 21.6489,-18.8406 L 21.3815,-19.4088 L 21.0451,-19.9389
 L 20.6448,-20.4227 L 20.1871,-20.8526 L 19.6791,-21.2216 L 19.1289,-21.5241 L 18.5451,-21.7553 L 17.9369,-21.9114
 L 17.3139,-21.9901 L 13.1488,-21.9901 L 13.2811,-21.9734 L 13.4635,-21.9266 L 13.6387,-21.8572 L 13.8037,-21.7665
 L 13.9561,-21.6558 L 14.0934,-21.5268 L 14.2135,-21.3817 L 14.3145,-21.2226 L 14.3947,-21.0522 L 14.4529,-20.873
 L 14.4882,-20.688 L 14.5,-20.5 L 14.4882,-20.312 L 14.4529,-20.127 L 14.3947,-19.9478 L 14.3145,-19.7774
 L 14.2135,-19.6183 L 14.0934,-19.4732 L 13.9561,-19.3442 L 13.8037,-19.2335 L 13.6387,-19.1427 L 13.4635,-19.0734
 L 13.2811,-19.0266 L 13.0942,-19.003 L 12.9058,-19.003 L 12.7189,-19.0266 L 12.5365,-19.0734 L 12.3613,-19.1427
 L 12.1963,-19.2335 L 12.0439,-19.3442 L 11.9065,-19.4732 L 11.7865,-19.6183 L 11.6855,-19.7774 L 11.6053,-19.9478
 L 11.5471,-20.127 L 11.5118,-20.312 L 11.5,-20.5 L 11.5118,-20.688 L 11.5471,-20.873 L 11.6053,-21.0522
 L 11.6855,-21.2226 L 11.7865,-21.3817 L 11.9065,-21.5268 L 12.0439,-21.6558 L 12.1963,-21.7665 L 12.3613,-21.8572
 L 12.5365,-21.9266 L 12.7189,-21.9734 L 12.8511,-21.9901 L -12.8511,-21.9901 L -12.7189,-21.9734 L -12.5365,-21.9266
 L -12.3613,-21.8572 L -12.1963,-21.7665 L -12.0439,-21.6558 L -11.9065,-21.5268 L -11.7865,-21.3817 L -11.6855,-21.2226
 L -11.6053,-21.0522 L -11.5471,-20.873 L -11.5118,-20.688 L -11.5,-20.5 L -11.5118,-20.312 L -11.5471,-20.127
 L -11.6053,-19.9478 L -11.6855,-19.7774 L -11.7865,-19.6183 L -11.9065,-19.4732 L -12.0439,-19.3442 L -12.1963,-19.2335
 L -12.3613,-19.1427 L -12.5365,-19.0734 L -12.7189,-19.0266 L -12.9058,-19.003 L -13.0942,-19.003 L -13.2811,-19.0266
 L -13.4635,-19.0734 L -13.6387,-19.1427 L -13.8037,-19.2335 L -13.9561,-19.3442 L -14.0934,-19.4732 L -14.2135,-19.6183
 L -14.3145,-19.7774 L -14.3947,-19.9478 L -14.4529,-20.127 L -14.4882,-20.312 L -14.5,-20.5 L -14.4882,-20.688
 L -14.4529,-20.873 L -14.3947,-21.0522 L -14.3145,-21.2226 L -14.2135,-21.3817 L -14.0934,-21.5268 L -13.9561,-21.6558
 L -13.8037,-21.7665 L -13.6387,-21.8572 L -13.4635,-21.9266 L -13.2811,-21.9734 L -13.1488,-21.9901 L -17.3139,-21.9901
 L -17.9369,-21.9114 L -18.5451,-21.7553 L -19.1289,-21.5241 L -19.6791,-21.2216 L -20.1871,-20.8526 L -20.6448,-20.4227
 L -21.0451,-19.9389 L -21.3815,-19.4088 L -21.6489,-18.8406 L -21.8429,-18.2434 L -21.9606,-17.6267 L -22,-17
 L -22,17 L -21.9606,17.6267 L -21.8429,18.2434 L -21.6489,18.8406 L -21.3815,19.4088 L -21.0451,19.9389
 L -20.6448,20.4227 L -20.1871,20.8526 L -19.6791,21.2216 L -19.1289,21.5241 L -18.5451,21.7553 L -17.9369,21.9114
 L -17.3139,21.9901 L 17.3139,21.9901 z
M -15.1884,-12.0059 L -15.5621,-12.0531 L -15.927,-12.1468 L -16.2773,-12.2855 L -16.6075,-12.467 L -16.9123,-12.6884
 L -17.1869,-12.9464 L -17.427,-13.2366 L -17.6289,-13.5547 L -17.7893,-13.8956 L -17.9057,-14.2539 L -17.9763,-14.624
 L -18,-15 L -17.9763,-15.376 L -17.9057,-15.7461 L -17.7893,-16.1044 L -17.6289,-16.4453 L -17.427,-16.7634
 L -17.1869,-17.0536 L -16.9123,-17.3115 L -16.6075,-17.533 L -16.2773,-17.7145 L -15.927,-17.8532 L -15.5621,-17.9469
 L -15.1884,-17.9941 L -14.8116,-17.9941 L -14.4379,-17.9469 L -14.0729,-17.8532 L -13.7227,-17.7145 L -13.3925,-17.533
 L -13.0877,-17.3115 L -12.8131,-17.0536 L -12.5729,-16.7634 L -12.3711,-16.4453 L -12.2107,-16.1044 L -12.0942,-15.7461
 L -12.0237,-15.376 L -12,-15 L -12.0237,-14.624 L -12.0942,-14.2539 L -12.2107,-13.8956 L -12.3711,-13.5547
 L -12.5729,-13.2366 L -12.8131,-12.9464 L -13.0877,-12.6884 L -13.3925,-12.467 L -13.7227,-12.2855 L -14.0729,-12.1468
 L -14.4379,-12.0531 L -14.8116,-12.0059 z
M 14.8116,-12.0059 L 14.4379,-12.0531 L 14.0729,-12.1468 L 13.7227,-12.2855 L 13.3925,-12.467 L 13.0877,-12.6884
 L 12.8131,-12.9464 L 12.5729,-13.2366 L 12.3711,-13.5547 L 12.2107,-13.8956 L 12.0942,-14.2539 L 12.0237,-14.624
 L 12,-15 L 12.0237,-15.376 L 12.0942,-15.7461 L 12.2107,-16.1044 L 12.3711,-16.4453 L 12.5729,-16.7634
 L 12.8131,-17.0536 L 13.0877,-17.3115 L 13.3925,-17.533 L 13.7227,-17.7145 L 14.0729,-17.8532 L 14.4379,-17.9469
 L 14.8116,-17.9941 L 15.1884,-17.9941 L 15.5621,-17.9469 L 15.927,-17.8532 L 16.2773,-17.7145 L 16.6075,-17.533
 L 16.9123,-17.3115 L 17.1869,-17.0536 L 17.427,-16.7634 L 17.6289,-16.4453 L 17.7893,-16.1044 L 17.9057,-15.7461
 L 17.9763,-15.376 L 18,-15 L 17.9763,-14.624 L 17.9057,-14.2539 L 17.7893,-13.8956 L 17.6289,-13.5547
 L 17.427,-13.2366 L 17.1869,-12.9464 L 16.9123,-12.6884 L 16.6075,-12.467 L 16.2773,-12.2855 L 15.927,-12.1468
 L 15.5621,-12.0531 L 15.1884,-12.0059 z
M -15.1884,2.99408 L -15.5621,2.94685 L -15.927,2.85316 L -16.2773,2.71448 L -16.6075,2.53297 L -16.9123,2.31154
 L -17.1869,2.05363 L -17.427,1.76335 L -17.6289,1.44525 L -17.7893,1.10437 L -17.9057,0.746063 L -17.9763,0.375992
 L -18,-0 L -17.9763,-0.375992 L -17.9057,-0.746063 L -17.7893,-1.10437 L -17.6289,-1.44525 L -17.427,-1.76335
 L -17.1869,-2.05363 L -16.9123,-2.31154 L -16.6075,-2.53297 L -16.2773,-2.71448 L -15.927,-2.85316 L -15.5621,-2.94685
 L -15.1884,-2.99408 L -14.8116,-2.99408 L -14.4379,-2.94685 L -14.0729,-2.85316 L -13.7227,-2.71448 L -13.3925,-2.53297
 L -13.0877,-2.31154 L -12.8131,-2.05363 L -12.5729,-1.76335 L -12.3711,-1.44525 L -12.2107,-1.10437 L -12.0942,-0.746063
 L -12.0237,-0.375992 L -12,-0 L -12.0237,0.375992 L -12.0942,0.746063 L -12.2107,1.10437 L -12.3711,1.44525
 L -12.5729,1.76335 L -12.8131,2.05363 L -13.0877,2.31154 L -13.3925,2.53297 L -13.7227,2.71448 L -14.0729,2.85316
 L -14.4379,2.94685 L -14.8116,2.99408 z
M 14.8116,2.99408 L 14.4379,2.94685 L 14.0729,2.85316 L 13.7227,2.71448 L 13.3925,2.53297 L 13.0877,2.31154
 L 12.8131,2.05363 L 12.5729,1.76335 L 12.3711,1.44525 L 12.2107,1.10437 L 12.0942,0.746063 L 12.0237,0.375992
 L 12,-0 L 12.0237,-0.375992 L 12.0942,-0.746063 L 12.2107,-1.10437 L 12.3711,-1.44525 L 12.5729,-1.76335
 L 12.8131,-2.05363 L 13.0877,-2.31154 L 13.3925,-2.53297 L 13.7227,-2.71448 L 14.0729,-2.85316 L 14.4379,-2.94685
 L 14.8116,-2.99408 L 15.1884,-2.99408 L 15.5621,-2.94685 L 15.927,-2.85316 L 16.2773,-2.71448 L 16.6075,-2.53297
 L 16.9123,-2.31154 L 17.1869,-2.05363 L 17.427,-1.76335 L 17.6289,-1.44525 L 17.7893,-1.10437 L 17.9057,-0.746063
 L 17.9763,-0.375992 L 18,-0 L 17.9763,0.375992 L 17.9057,0.746063 L 17.7893,1.10437 L 17.6289,1.44525
 L 17.427,1.76335 L 17.1869,2.05363 L 16.9123,2.31154 L 16.6075,2.53297 L 16.2773,2.71448 L 15.927,2.85316
 L 15.5621,2.94685 L 15.1884,2.99408 z
M 12.9058,6.99704 L 12.7189,6.97342 L 12.5365,6.92657 L 12.3613,6.85724 L 12.1963,6.76648 L 12.0439,6.65576
 L 11.9065,6.52681 L 11.7865,6.38167 L 11.6855,6.22263 L 11.6053,6.05219 L 11.5471,5.87303 L 11.5118,5.68799
 L 11.5,5.5 L 11.5118,5.312 L 11.5471,5.12695 L 11.6053,4.9478 L 11.6855,4.77736 L 11.7865,4.61832
 L 11.9065,4.47318 L 12.0439,4.34422 L 12.1963,4.23351 L 12.3613,4.14275 L 12.5365,4.07341 L 12.7189,4.02657
 L 12.9058,4.00294 L 13.0942,4.00294 L 13.2811,4.02657 L 13.4635,4.07341 L 13.6387,4.14275 L 13.8037,4.23351
 L 13.9561,4.34422 L 14.0934,4.47318 L 14.2135,4.61832 L 14.3145,4.77736 L 14.3947,4.9478 L 14.4529,5.12695
 L 14.4882,5.312 L 14.5,5.5 L 14.4882,5.68799 L 14.4529,5.87303 L 14.3947,6.05219 L 14.3145,6.22263
 L 14.2135,6.38167 L 14.0934,6.52681 L 13.9561,6.65576 L 13.8037,6.76648 L 13.6387,6.85724 L 13.4635,6.92657
 L 13.2811,6.97342 L 13.0942,6.99704 z
M -13.0942,6.99704 L -13.2811,6.97342 L -13.4635,6.92657 L -13.6387,6.85724 L -13.8037,6.76648 L -13.9561,6.65576
 L -14.0934,6.52681 L -14.2135,6.38167 L -14.3145,6.22263 L -14.3947,6.05219 L -14.4529,5.87303 L -14.4882,5.68799
 L -14.5,5.5 L -14.4882,5.312 L -14.4529,5.12695 L -14.3947,4.9478 L -14.3145,4.77736 L -14.2135,4.61832
 L -14.0934,4.47318 L -13.9561,4.34422 L -13.8037,4.23351 L -13.6387,4.14275 L -13.4635,4.07341 L -13.2811,4.02657
 L -13.0942,4.00294 L -12.9058,4.00294 L -12.7189,4.02657 L -12.5365,4.07341 L -12.3613,4.14275 L -12.1963,4.23351
 L -12.0439,4.34422 L -11.9065,4.47318 L -11.7865,4.61832 L -11.6855,4.77736 L -11.6053,4.9478 L -11.5471,5.12695
 L -11.5118,5.312 L -11.5,5.5 L -11.5118,5.68799 L -11.5471,5.87303 L -11.6053,6.05219 L -11.6855,6.22263
 L -11.7865,6.38167 L -11.9065,6.52681 L -12.0439,6.65576 L -12.1963,6.76648 L -12.3613,6.85724 L -12.5365,6.92657
 L -12.7189,6.97342 L -12.9058,6.99704 z
M -0.18837,17.9941 L -0.562134,17.9469 L -0.927048,17.8532 L -1.27733,17.7145 L -1.60747,17.533 L -1.91226,17.3115
 L -2.1869,17.0536 L -2.42705,16.7634 L -2.62891,16.4453 L -2.78932,16.1044 L -2.90575,15.7461 L -2.97633,15.376
 L -3,15 L -2.97633,14.624 L -2.90575,14.2539 L -2.78932,13.8956 L -2.62891,13.5547 L -2.42705,13.2366
 L -2.1869,12.9464 L -1.91226,12.6884 L -1.60747,12.467 L -1.27733,12.2855 L -0.927048,12.1468 L -0.562134,12.0531
 L -0.18837,12.0059 L 0.18837,12.0059 L 0.562134,12.0531 L 0.927048,12.1468 L 1.27733,12.2855 L 1.60747,12.467
 L 1.91226,12.6884 L 2.1869,12.9464 L 2.42705,13.2366 L 2.62891,13.5547 L 2.78932,13.8956 L 2.90575,14.2539
 L 2.97633,14.624 L 3,15 L 2.97633,15.376 L 2.90575,15.7461 L 2.78932,16.1044 L 2.62891,16.4453
 L 2.42705,16.7634 L 2.1869,17.0536 L 1.91226,17.3115 L 1.60747,17.533 L 1.27733,17.7145 L 0.927048,17.8532
 L 0.562134,17.9469 L 0.18837,17.9941 z
M -15.1884,17.9941 L -15.5621,17.9469 L -15.927,17.8532 L -16.2773,17.7145 L -16.6075,17.533 L -16.9123,17.3115
 L -17.1869,17.0536 L -17.427,16.7634 L -17.6289,16.4453 L -17.7893,16.1044 L -17.9057,15.7461 L -17.9763,15.376
 L -18,15 L -17.9763,14.624 L -17.9057,14.2539 L -17.7893,13.8956 L -17.6289,13.5547 L -17.427,13.2366
 L -17.1869,12.9464 L -16.9123,12.6884 L -16.6075,12.467 L -16.2773,12.2855 L -15.927,12.1468 L -15.5621,12.0531
 L -15.1884,12.0059 L -14.8116,12.0059 L -14.4379,12.0531 L -14.0729,12.1468 L -13.7227,12.2855 L -13.3925,12.467
 L -13.0877,12.6884 L -12.8131,12.9464 L -12.5729,13.2366 L -12.3711,13.5547 L -12.2107,13.8956 L -12.0942,14.2539
 L -12.0237,14.624 L -12,15 L -12.0237,15.376 L -12.0942,15.7461 L -12.2107,16.1044 L -12.3711,16.4453
 L -12.5729,16.7634 L -12.8131,17.0536 L -13.0877,17.3115 L -13.3925,17.533 L -13.7227,17.7145 L -14.0729,17.8532
 L -14.4379,17.9469 L -14.8116,17.9941 z
M 14.8116,17.9941 L 14.4379,17.9469 L 14.0729,17.8532 L 13.7227,17.7145 L 13.3925,17.533 L 13.0877,17.3115
 L 12.8131,17.0536 L 12.5729,16.7634 L 12.3711,16.4453 L 12.2107,16.1044 L 12.0942,15.7461 L 12.0237,15.376
 L 12,15 L 12.0237,14.624 L 12.0942,14.2539 L 12.2107,13.8956 L 12.3711,13.5547 L 12.5729,13.2366
 L 12.8131,12.9464 L 13.0877,12.6884 L 13.3925,12.467 L 13.7227,12.2855 L 14.0729,12.1468 L 14.4379,12.0531
 L 14.8116,12.0059 L 15.1884,12.0059 L 15.5621,12.0531 L 15.927,12.1468 L 16.2773,12.2855 L 16.6075,12.467
 L 16.9123,12.6884 L 17.1869,12.9464 L 17.427,13.2366 L 17.6289,13.5547 L 17.7893,13.8956 L 17.9057,14.2539
 L 17.9763,14.624 L 18,15 L 17.9763,15.376 L 17.9057,15.7461 L 17.7893,16.1044 L 17.6289,16.4453
 L 17.427,16.7634 L 17.1869,17.0536 L 16.9123,17.3115 L 16.6075,17.533 L 16.2773,17.7145 L 15.927,17.8532
 L 15.5621,17.9469 L 15.1884,17.9941 z
" stroke="black" fill="lightgray" stroke-width="0.5"/>
</svg>
