<?xml version="1.0" standalone="no"?>
<!DOCTYPE svg PUBLIC "-//W3C//DTD SVG 1.1//EN" "http://www.w3.org/Graphics/SVG/1.1/DTD/svg11.dtd">
<svg width="30mm" height="108mm" viewBox="-15 -210 30 108" xmlns="http://www.w3.org/2000/svg" version="1.1">
<title>OpenSCAD Model</title>
<path d="
M 10.9369,-180.089 L 11.5451,-180.245 L 12.1289,-180.476 L 12.6791,-180.778 L 13.1871,-181.147 L 13.6448,-181.577
 L 14.0451,-182.061 L 14.3815,-182.591 L 14.6489,-183.159 L 14.8429,-183.757 L 14.9606,-184.373 L 15,-185
 L 15,-205 L 14.9606,-205.627 L 14.8429,-206.243 L 14.6489,-206.841 L 14.3815,-207.409 L 14.0451,-207.939
 L 13.6448,-208.423 L 13.1871,-208.853 L 12.6791,-209.222 L 12.1289,-209.524 L 11.5451,-209.755 L 10.9369,-209.911
 L 10.3139,-209.99 L -10.3139,-209.99 L -10.9369,-209.911 L -11.5451,-209.755 L -12.1289,-209.524 L -12.6791,-209.222
 L -13.1871,-208.853 L -13.6448,-208.423 L -14.0451,-207.939 L -14.3815,-207.409 L -14.6489,-206.841 L -14.8429,-206.243
 L -14.9606,-205.627 L -15,-205 L -15,-185 L -14.9606,-184.373 L -14.8429,-183.757 L -14.6489,-183.159
 L -14.3815,-182.591 L -14.0451,-182.061 L -13.6448,-181.577 L -13.1871,-181.147 L -12.6791,-180.778 L -12.1289,-180.476
 L -11.5451,-180.245 L -10.9369,-180.089 L -10.3139,-180.01 L 10.3139,-180.01 z
M -4.81104,-180.509 L -4.32086,-180.778 L -3.81287,-181.147 L -3.35515,-181.577 L -2.95491,-182.061 L -2.61845,-182.591
 L -2.3511,-183.159 L -2.15707,-183.757 L -2.03941,-184.373 L -2,-185 L -2,-188 L -2.03941,-188.627
 L -2.15707,-189.243 L -2.3511,-189.841 L -2.61845,-190.409 L -2.95491,-190.939 L -3.35515,-191.423 L -3.81287,-191.853
 L -4.32086,-192.222 L -4.87109,-192.524 L -5.45491,-192.755 L -6.06308,-192.911 L -6.68604,-192.99 L -10.3139,-192.99
 L -10.9369,-192.911 L -11.5451,-192.755 L -12.1289,-192.524 L -12.6791,-192.222 L -13.1871,-191.853 L -13.6448,-191.423
 L -14.0451,-190.939 L -14.3815,-190.409 L -14.5,-190.157 L -14.5,-205 L -14.4645,-205.564 L -14.3586,-206.119
 L -14.184,-206.657 L -13.9434,-207.168 L -13.6406,-207.645 L -13.2803,-208.08 L -12.8684,-208.467 L -12.4112,-208.799
 L -11.916,-209.072 L -11.3906,-209.28 L -10.8432,-209.42 L -10.2825,-209.491 L 10.2825,-209.491 L 10.8432,-209.42
 L 11.3906,-209.28 L 11.916,-209.072 L 12.4112,-208.799 L 12.8684,-208.467 L 13.2803,-208.08 L 13.6406,-207.645
 L 13.9434,-207.168 L 14.184,-206.657 L 14.3586,-206.119 L 14.4645,-205.564 L 14.5,-205 L 14.5,-185
 L 14.4645,-184.436 L 14.3586,-183.881 L 14.184,-183.343 L 13.9434,-182.832 L 13.6406,-182.355 L 13.2803,-181.92
 L 12.8684,-181.533 L 12.4112,-181.201 L 11.916,-180.928 L 11.3906,-180.72 L 10.8432,-180.58 L 10.2825,-180.509
 z
M 7.96844,-200.044 L 8.27254,-200.122 L 8.56444,-200.238 L 8.83955,-200.389 L 9.09355,-200.574 L 9.32242,-200.789
 L 9.52254,-201.031 L 9.69077,-201.296 L 9.82443,-201.58 L 9.92145,-201.878 L 9.98029,-202.187 L 10,-202.5
 L 9.98029,-202.813 L 9.92145,-203.122 L 9.82443,-203.42 L 9.69077,-203.704 L 9.52254,-203.969 L 9.32242,-204.211
 L 9.09355,-204.426 L 8.83955,-204.611 L 8.56444,-204.762 L 8.27254,-204.878 L 7.96844,-204.956 L 7.65697,-204.995
 L 7.34302,-204.995 L 7.03154,-204.956 L 6.72745,-204.878 L 6.43555,-204.762 L 6.16043,-204.611 L 5.90643,-204.426
 L 5.67757,-204.211 L 5.47745,-203.969 L 5.30922,-203.704 L 5.17555,-203.42 L 5.07854,-203.122 L 5.0197,-202.813
 L 5,-202.5 L 5.0197,-202.187 L 5.07854,-201.878 L 5.17555,-201.58 L 5.30922,-201.296 L 5.47745,-201.031
 L 5.67757,-200.789 L 5.90643,-200.574 L 6.16043,-200.389 L 6.43555,-200.238 L 6.72745,-200.122 L 7.03154,-200.044
 L 7.34302,-200.005 L 7.65697,-200.005 z
M 7.40581,-201.003 L 7.21892,-201.027 L 7.03647,-201.073 L 6.86133,-201.143 L 6.69626,-201.234 L 6.54385,-201.344
 L 6.40654,-201.473 L 6.28647,-201.618 L 6.18553,-201.777 L 6.10533,-201.948 L 6.04712,-202.127 L 6.01183,-202.312
 L 6,-202.5 L 6.01183,-202.688 L 6.04712,-202.873 L 6.10533,-203.052 L 6.18553,-203.223 L 6.28647,-203.382
 L 6.40654,-203.527 L 6.54385,-203.656 L 6.69626,-203.766 L 6.86133,-203.857 L 7.03647,-203.927 L 7.21892,-203.973
 L 7.40581,-203.997 L 7.59418,-203.997 L 7.78107,-203.973 L 7.96352,-203.927 L 8.13866,-203.857 L 8.30373,-203.766
 L 8.45613,-203.656 L 8.59344,-203.527 L 8.71352,-203.382 L 8.81445,-203.223 L 8.89465,-203.052 L 8.95287,-202.873
 L 8.98816,-202.688 L 9,-202.5 L 8.98816,-202.312 L 8.95287,-202.127 L 8.89465,-201.948 L 8.81445,-201.777
 L 8.71352,-201.618 L 8.59344,-201.473 L 8.45613,-201.344 L 8.30373,-201.234 L 8.13866,-201.143 L 7.96352,-201.073
 L 7.78107,-201.027 L 7.59418,-201.003 z
M -7.59418,-186.003 L -7.78107,-186.027 L -7.96352,-186.073 L -8.13866,-186.143 L -8.30373,-186.234 L -8.45613,-186.344
 L -8.59344,-186.473 L -8.71352,-186.618 L -8.81445,-186.777 L -8.89465,-186.948 L -8.95287,-187.127 L -8.98816,-187.312
 L -9,-187.5 L -8.98816,-187.688 L -8.95287,-187.873 L -8.89465,-188.052 L -8.81445,-188.223 L -8.71352,-188.382
 L -8.59344,-188.527 L -8.45613,-188.656 L -8.30373,-188.766 L -8.13866,-188.857 L -7.96352,-188.927 L -7.78107,-188.973
 L -7.59418,-188.997 L -7.40581,-188.997 L -7.21892,-188.973 L -7.03647,-188.927 L -6.86133,-188.857 L -6.69626,-188.766
 L -6.54385,-188.656 L -6.40654,-188.527 L -6.28647,-188.382 L -6.18553,-188.223 L -6.10533,-188.052 L -6.04712,-187.873
 L -6.01183,-187.688 L -6,-187.5 L -6.01183,-187.312 L -6.04712,-187.127 L -6.10533,-186.948 L -6.18553,-186.777
 L -6.28647,-186.618 L -6.40654,-186.473 L -6.54385,-186.344 L -6.69626,-186.234 L -6.86133,-186.143 L -7.03647,-186.073
 L -7.21892,-186.027 L -7.40581,-186.003 z
M 10.9369,-141.089 L 11.5451,-141.245 L 12.1289,-141.476 L 12.6791,-141.778 L 13.1871,-142.147 L 13.6448,-142.577
 L 14.0451,-143.061 L 14.3815,-143.591 L 14.6489,-144.159 L 14.8429,-144.757 L 14.9606,-145.373 L 15,-146
 L 15,-166 L 14.9606,-166.627 L 14.8429,-167.243 L 14.6489,-167.841 L 14.3815,-168.409 L 14.0451,-168.939
 L 13.6448,-169.423 L 13.1871,-169.853 L 12.6791,-170.222 L 12.1289,-170.524 L 11.5451,-170.755 L 10.9369,-170.911
 L 10.3139,-170.99 L -10.3139,-170.99 L -10.9369,-170.911 L -11.5451,-170.755 L -12.1289,-170.524 L -12.6791,-170.222
 L -13.1871,-169.853 L -13.6448,-169.423 L -14.0451,-168.939 L -14.3815,-168.409 L -14.6489,-167.841 L -14.8429,-167.243
 L -14.9606,-166.627 L -15,-166 L -15,-146 L -14.9606,-145.373 L -14.8429,-144.757 L -14.6489,-144.159
 L -14.3815,-143.591 L -14.0451,-143.061 L -13.6448,-142.577 L -13.1871,-142.147 L -12.6791,-141.778 L -12.1289,-141.476
 L -11.5451,-141.245 L -10.9369,-141.089 L -10.3139,-141.01 L 10.3139,-141.01 z
M -4.75392,-141.54 L -4.32086,-141.778 L -3.81287,-142.147 L -3.35515,-142.577 L -2.95491,-143.061 L -2.61845,-143.591
 L -2.3511,-144.159 L -2.15707,-144.757 L -2.03941,-145.373 L -2,-146 L -2,-149 L -2.03941,-149.627
 L -2.15707,-150.243 L -2.3511,-150.841 L -2.61845,-151.409 L -2.95491,-151.939 L -3.35515,-152.423 L -3.81287,-152.853
 L -4.32086,-153.222 L -4.87109,-153.524 L -5.45491,-153.755 L -6.06308,-153.911 L -6.68604,-153.99 L -10.3139,-153.99
 L -10.9369,-153.911 L -11.5451,-153.755 L -12.1289,-153.524 L -12.6791,-153.222 L -13.1871,-152.853 L -13.6448,-152.423
 L -14.0451,-151.939 L -14.3815,-151.409 L -14.4685,-151.224 L -14.4685,-166 L -14.4333,-166.56 L -14.3281,-167.111
 L -14.1547,-167.645 L -13.9158,-168.153 L -13.6151,-168.627 L -13.2574,-169.059 L -12.8483,-169.443 L -12.3944,-169.773
 L -11.9026,-170.043 L -11.3808,-170.25 L -10.8373,-170.389 L -10.2806,-170.46 L 10.2806,-170.46 L 10.8373,-170.389
 L 11.3808,-170.25 L 11.9026,-170.043 L 12.3944,-169.773 L 12.8483,-169.443 L 13.2574,-169.059 L 13.6151,-168.627
 L 13.9158,-168.153 L 14.1547,-167.645 L 14.3281,-167.111 L 14.4333,-166.56 L 14.4685,-166 L 14.4685,-146
 L 14.4333,-145.44 L 14.3281,-144.889 L 14.1547,-144.355 L 13.9158,-143.847 L 13.6151,-143.373 L 13.2574,-142.941
 L 12.8483,-142.557 L 12.3944,-142.227 L 11.9026,-141.957 L 11.3808,-141.75 L 10.8373,-141.611 L 10.2806,-141.54
 z
M 7.96844,-161.044 L 8.27254,-161.122 L 8.56444,-161.238 L 8.83955,-161.389 L 9.09355,-161.574 L 9.32242,-161.789
 L 9.52254,-162.031 L 9.69077,-162.296 L 9.82443,-162.58 L 9.92145,-162.878 L 9.98029,-163.187 L 10,-163.5
 L 9.98029,-163.813 L 9.92145,-164.122 L 9.82443,-164.42 L 9.69077,-164.704 L 9.52254,-164.969 L 9.32242,-165.211
 L 9.09355,-165.426 L 8.83955,-165.611 L 8.56444,-165.762 L 8.27254,-165.878 L 7.96844,-165.956 L 7.65697,-165.995
 L 7.34302,-165.995 L 7.03154,-165.956 L 6.72745,-165.878 L 6.43555,-165.762 L 6.16043,-165.611 L 5.90643,-165.426
 L 5.67757,-165.211 L 5.47745,-164.969 L 5.30922,-164.704 L 5.17555,-164.42 L 5.07854,-164.122 L 5.0197,-163.813
 L 5,-163.5 L 5.0197,-163.187 L 5.07854,-162.878 L 5.17555,-162.58 L 5.30922,-162.296 L 5.47745,-162.031
 L 5.67757,-161.789 L 5.90643,-161.574 L 6.16043,-161.389 L 6.43555,-161.238 L 6.72745,-161.122 L 7.03154,-161.044
 L 7.34302,-161.005 L 7.65697,-161.005 z
M 7.40581,-162.003 L 7.21892,-162.027 L 7.03647,-162.073 L 6.86133,-162.143 L 6.69626,-162.234 L 6.54385,-162.344
 L 6.40654,-162.473 L 6.28647,-162.618 L 6.18553,-162.777 L 6.10533,-162.948 L 6.04712,-163.127 L 6.01183,-163.312
 L 6,-163.5 L 6.01183,-163.688 L 6.04712,-163.873 L 6.10533,-164.052 L 6.18553,-164.223 L 6.28647,-164.382
 L 6.40654,-164.527 L 6.54385,-164.656 L 6.69626,-164.766 L 6.86133,-164.857 L 7.03647,-164.927 L 7.21892,-164.973
 L 7.40581,-164.997 L 7.59418,-164.997 L 7.78107,-164.973 L 7.96352,-164.927 L 8.13866,-164.857 L 8.30373,-164.766
 L 8.45613,-164.656 L 8.59344,-164.527 L 8.71352,-164.382 L 8.81445,-164.223 L 8.89465,-164.052 L 8.95287,-163.873
 L 8.98816,-163.688 L 9,-163.5 L 8.98816,-163.312 L 8.95287,-163.127 L 8.89465,-162.948 L 8.81445,-162.777
 L 8.71352,-162.618 L 8.59344,-162.473 L 8.45613,-162.344 L 8.30373,-162.234 L 8.13866,-162.143 L 7.96352,-162.073
 L 7.78107,-162.027 L 7.59418,-162.003 z
M -7.59418,-147.003 L -7.78107,-147.027 L -7.96352,-147.073 L -8.13866,-147.143 L -8.30373,-147.234 L -8.45613,-147.344
 L -8.59344,-147.473 L -8.71352,-147.618 L -8.81445,-147.777 L -8.89465,-147.948 L -8.95287,-148.127 L -8.98816,-148.312
 L -9,-148.5 L -8.98816,-148.688 L -8.95287,-148.873 L -8.89465,-149.052 L -8.81445,-149.223 L -8.71352,-149.382
 L -8.59344,-149.527 L -8.45613,-149.656 L -8.30373,-149.766 L -8.13866,-149.857 L -7.96352,-149.927 L -7.78107,-149.973
 L -7.59418,-149.997 L -7.40581,-149.997 L -7.21892,-149.973 L -7.03647,-149.927 L -6.86133,-149.857 L -6.69626,-149.766
 L -6.54385,-149.656 L -6.40654,-149.527 L -6.28647,-149.382 L -6.18553,-149.223 L -6.10533,-149.052 L -6.04712,-148.873
 L -6.01183,-148.688 L -6,-148.5 L -6.01183,-148.312 L -6.04712,-148.127 L -6.10533,-147.948 L -6.18553,-147.777
 L -6.28647,-147.618 L -6.40654,-147.473 L -6.54385,-147.344 L -6.69626,-147.234 L -6.86133,-147.143 L -7.03647,-147.073
 L -7.21892,-147.027 L -7.40581,-147.003 z
M 10.9369,-102.089 L 11.5451,-102.245 L 12.1289,-102.476 L 12.6791,-102.778 L 13.1871,-103.147 L 13.6448,-103.577
 L 14.0451,-104.061 L 14.3815,-104.591 L 14.6489,-105.159 L 14.8429,-105.757 L 14.9606,-106.373 L 15,-107
 L 15,-127 L 14.9606,-127.627 L 14.8429,-128.243 L 14.6489,-128.841 L 14.3815,-129.409 L 14.0451,-129.939
 L 13.6448,-130.423 L 13.1871,-130.853 L 12.6791,-131.222 L 12.1289,-131.524 L 11.5451,-131.755 L 10.9369,-131.911
 L 10.3139,-131.99 L -10.3139,-131.99 L -10.9369,-131.911 L -11.5451,-131.755 L -12.1289,-131.524 L -12.6791,-131.222
 L -13.1871,-130.853 L -13.6448,-130.423 L -14.0451,-129.939 L -14.3815,-129.409 L -14.6489,-128.841 L -14.8429,-128.243
 L -14.9606,-127.627 L -15,-127 L -15,-107 L -14.9606,-106.373 L -14.8429,-105.757 L -14.6489,-105.159
 L -14.3815,-104.591 L -14.0451,-104.061 L -13.6448,-103.577 L -13.1871,-103.147 L -12.6791,-102.778 L -12.1289,-102.476
 L -11.5451,-102.245 L -10.9369,-102.089 L -10.3139,-102.01 L 10.3139,-102.01 z
M -2.87805,-104.182 L -2.61845,-104.591 L -2.3511,-105.159 L -2.15707,-105.757 L -2.03941,-106.373 L -2,-107
 L -2,-110 L -2.03941,-110.627 L -2.15707,-111.243 L -2.3511,-111.841 L -2.61845,-112.409 L -2.95491,-112.939
 L -3.35515,-113.423 L -3.81287,-113.853 L -4.32086,-114.222 L -4.87109,-114.524 L -5.45491,-114.755 L -6.06308,-114.911
 L -6.68604,-114.99 L -10.3139,-114.99 L -10.9369,-114.911 L -11.5451,-114.755 L -12.1289,-114.524 L -12.6791,-114.222
 L -12.8234,-114.117 L -12.8234,-127 L -12.8011,-127.354 L -12.7347,-127.702 L -12.6251,-128.039 L -12.4742,-128.36
 L -12.2842,-128.66 L -12.0582,-128.933 L -11.7997,-129.175 L -11.5128,-129.384 L -11.2021,-129.555 L -10.8725,-129.685
 L -10.5291,-129.773 L -10.1773,-129.818 L 2.87805,-129.818 L 2.61845,-129.409 L 2.3511,-128.841 L 2.15707,-128.243
 L 2.03941,-127.627 L 2,-127 L 2,-124 L 2.03941,-123.373 L 2.15707,-122.757 L 2.3511,-122.159
 L 2.61845,-121.591 L 2.95491,-121.061 L 3.35515,-120.577 L 3.81287,-120.147 L 4.32086,-119.778 L 4.87109,-119.476
 L 5.45491,-119.245 L 6.06308,-119.089 L 6.68604,-119.01 L 10.3139,-119.01 L 10.9369,-119.089 L 11.5451,-119.245
 L 12.1289,-119.476 L 12.6791,-119.778 L 12.8234,-119.883 L 12.8234,-107 L 12.8011,-106.646 L 12.7347,-106.298
 L 12.6251,-105.961 L 12.4742,-105.64 L 12.2842,-105.34 L 12.0582,-105.067 L 11.7997,-104.825 L 11.5128,-104.616
 L 11.2021,-104.445 L 10.8725,-104.315 L 10.5291,-104.227 L 10.1773,-104.182 z
M 7.34929,-122.105 L 7.05028,-122.143 L 6.75835,-122.217 L 6.47812,-122.328 L 6.214,-122.474 L 5.97017,-122.651
 L 5.75047,-122.857 L 5.55835,-123.089 L 5.39685,-123.344 L 5.26852,-123.617 L 5.1754,-123.903 L 5.11891,-124.199
 L 5.09999,-124.5 L 5.11891,-124.801 L 5.1754,-125.097 L 5.26852,-125.383 L 5.39685,-125.656 L 5.55835,-125.911
 L 5.75047,-126.143 L 5.97017,-126.349 L 6.214,-126.526 L 6.47812,-126.672 L 6.75835,-126.783 L 7.05028,-126.857
 L 7.34929,-126.895 L 7.6507,-126.895 L 7.94971,-126.857 L 8.24164,-126.783 L 8.52187,-126.672 L 8.78598,-126.526
 L 9.02982,-126.349 L 9.24951,-126.143 L 9.44164,-125.911 L 9.60313,-125.656 L 9.73146,-125.383 L 9.82458,-125.097
 L 9.88107,-124.801 L 9.89999,-124.5 L 9.88107,-124.199 L 9.82458,-123.903 L 9.73146,-123.617 L 9.60313,-123.344
 L 9.44164,-123.089 L 9.24951,-122.857 L 9.02982,-122.651 L 8.78598,-122.474 L 8.52187,-122.328 L 8.24164,-122.217
 L 7.94971,-122.143 L 7.6507,-122.105 z
M -7.6507,-107.105 L -7.94971,-107.143 L -8.24164,-107.217 L -8.52187,-107.328 L -8.78598,-107.474 L -9.02982,-107.651
 L -9.24951,-107.857 L -9.44164,-108.089 L -9.60313,-108.344 L -9.73146,-108.617 L -9.82458,-108.903 L -9.88107,-109.199
 L -9.89999,-109.5 L -9.88107,-109.801 L -9.82458,-110.097 L -9.73146,-110.383 L -9.60313,-110.656 L -9.44164,-110.911
 L -9.24951,-111.143 L -9.02982,-111.349 L -8.78598,-111.526 L -8.52187,-111.672 L -8.24164,-111.783 L -7.94971,-111.857
 L -7.6507,-111.895 L -7.34929,-111.895 L -7.05028,-111.857 L -6.75835,-111.783 L -6.47812,-111.672 L -6.214,-111.526
 L -5.97017,-111.349 L -5.75047,-111.143 L -5.55835,-110.911 L -5.39685,-110.656 L -5.26852,-110.383 L -5.1754,-110.097
 L -5.11891,-109.801 L -5.09999,-109.5 L -5.11891,-109.199 L -5.1754,-108.903 L -5.26852,-108.617 L -5.39685,-108.344
 L -5.55835,-108.089 L -5.75047,-107.857 L -5.97017,-107.651 L -6.214,-107.474 L -6.47812,-107.328 L -6.75835,-107.217
 L -7.05028,-107.143 L -7.34929,-107.105 z
" stroke="black" fill="lightgray" stroke-width="0.5"/>
</svg>
