solid OpenSCAD_Model
  facet normal -0.866025 0.5 0
    outer loop
      vertex -1.75 1.16634 0
      vertex -1.21169 2.09872 1.8
      vertex -1.21169 2.09872 0
    endloop
  endfacet
  facet normal -0.866025 0.5 0
    outer loop
      vertex -1.75 1.16634 0
      vertex -1.75 1.16634 1.8
      vertex -1.21169 2.09872 1.8
    endloop
  endfacet
  facet normal -0.866024 0.500002 0
    outer loop
      vertex -2.42339 0 0
      vertex -1.75 1.16634 1.8
      vertex -1.75 1.16634 0
    endloop
  endfacet
  facet normal -0.866024 0.500002 0
    outer loop
      vertex -1.75 1.16634 1.8
      vertex -2.42339 0 0
      vertex -2.42339 0 1.8
    endloop
  endfacet
  facet normal 0 1 -0
    outer loop
      vertex 1.21169 2.09872 0
      vertex -1.21169 2.09872 1.8
      vertex 1.21169 2.09872 1.8
    endloop
  endfacet
  facet normal 0 1 0
    outer loop
      vertex -1.21169 2.09872 1.8
      vertex 1.21169 2.09872 0
      vertex -1.21169 2.09872 0
    endloop
  endfacet
  facet normal -0 0 1
    outer loop
      vertex 1.21169 -2.09872 0
      vertex 1.75 -3.25 0
      vertex 1.75 -1.16634 0
    endloop
  endfacet
  facet normal -0 0 1
    outer loop
      vertex -1.21169 -2.09872 0
      vertex 1.75 -3.25 0
      vertex 1.21169 -2.09872 0
    endloop
  endfacet
  facet normal 0 0 1
    outer loop
      vertex -1.21169 -2.09872 0
      vertex -1.75 -3.25 0
      vertex 1.75 -3.25 0
    endloop
  endfacet
  facet normal 0 0 1
    outer loop
      vertex -1.75 -3.25 0
      vertex -1.21169 -2.09872 0
      vertex -1.75 -1.16634 0
    endloop
  endfacet
  facet normal 0 0 1
    outer loop
      vertex 1.75 3.25 0
      vertex 1.21169 2.09872 0
      vertex 1.75 1.16634 0
    endloop
  endfacet
  facet normal 0 0 1
    outer loop
      vertex 1.75 3.25 0
      vertex -1.21169 2.09872 0
      vertex 1.21169 2.09872 0
    endloop
  endfacet
  facet normal -0 0 1
    outer loop
      vertex -1.75 3.25 0
      vertex -1.21169 2.09872 0
      vertex 1.75 3.25 0
    endloop
  endfacet
  facet normal 0 0 1
    outer loop
      vertex -1.21169 2.09872 0
      vertex -1.75 3.25 0
      vertex -1.75 1.16634 0
    endloop
  endfacet
  facet normal 0 0 -1
    outer loop
      vertex -1.75 -1.16634 0
      vertex -2.42339 0 0
      vertex -1.75 1.16634 0
    endloop
  endfacet
  facet normal -0 0 -1
    outer loop
      vertex 2.42339 0 0
      vertex 1.75 -1.16634 0
      vertex 1.75 1.16634 0
    endloop
  endfacet
  facet normal 0.866025 0.5 0
    outer loop
      vertex 1.75 1.16634 1.8
      vertex 1.21169 2.09872 0
      vertex 1.21169 2.09872 1.8
    endloop
  endfacet
  facet normal 0.866025 0.5 0
    outer loop
      vertex 1.75 1.16634 1.8
      vertex 1.75 1.16634 0
      vertex 1.21169 2.09872 0
    endloop
  endfacet
  facet normal 0.866024 0.500002 0
    outer loop
      vertex 2.42339 0 1.8
      vertex 1.75 1.16634 0
      vertex 1.75 1.16634 1.8
    endloop
  endfacet
  facet normal 0.866024 0.500002 0
    outer loop
      vertex 1.75 1.16634 0
      vertex 2.42339 0 1.8
      vertex 2.42339 0 0
    endloop
  endfacet
  facet normal 0.866024 -0.500002 0
    outer loop
      vertex 1.75 -1.16634 1.8
      vertex 2.42339 0 0
      vertex 2.42339 0 1.8
    endloop
  endfacet
  facet normal 0.866024 -0.500002 0
    outer loop
      vertex 1.75 -1.16634 1.8
      vertex 1.75 -1.16634 0
      vertex 2.42339 0 0
    endloop
  endfacet
  facet normal 0.866025 -0.5 0
    outer loop
      vertex 1.21169 -2.09872 1.8
      vertex 1.75 -1.16634 0
      vertex 1.75 -1.16634 1.8
    endloop
  endfacet
  facet normal 0.866025 -0.5 0
    outer loop
      vertex 1.75 -1.16634 0
      vertex 1.21169 -2.09872 1.8
      vertex 1.21169 -2.09872 0
    endloop
  endfacet
  facet normal 0 0 -1
    outer loop
      vertex 1.21169 2.09872 1.8
      vertex 1.75 3.25 1.8
      vertex 1.75 1.16634 1.8
    endloop
  endfacet
  facet normal 0 0 -1
    outer loop
      vertex -1.21169 2.09872 1.8
      vertex 1.75 3.25 1.8
      vertex 1.21169 2.09872 1.8
    endloop
  endfacet
  facet normal 0 0 -1
    outer loop
      vertex -1.21169 2.09872 1.8
      vertex -1.75 3.25 1.8
      vertex 1.75 3.25 1.8
    endloop
  endfacet
  facet normal 0 0 -1
    outer loop
      vertex -1.75 3.25 1.8
      vertex -1.21169 2.09872 1.8
      vertex -1.75 1.16634 1.8
    endloop
  endfacet
  facet normal 0 0 1
    outer loop
      vertex 1.75 1.16634 1.8
      vertex 1.75 -1.16634 1.8
      vertex 2.42339 0 1.8
    endloop
  endfacet
  facet normal 0 0 -1
    outer loop
      vertex 1.75 -3.25 1.8
      vertex 1.21169 -2.09872 1.8
      vertex 1.75 -1.16634 1.8
    endloop
  endfacet
  facet normal 0 0 -1
    outer loop
      vertex 1.75 -3.25 1.8
      vertex -1.21169 -2.09872 1.8
      vertex 1.21169 -2.09872 1.8
    endloop
  endfacet
  facet normal 0 0 -1
    outer loop
      vertex -1.75 -3.25 1.8
      vertex -1.21169 -2.09872 1.8
      vertex 1.75 -3.25 1.8
    endloop
  endfacet
  facet normal -0 0 -1
    outer loop
      vertex -1.21169 -2.09872 1.8
      vertex -1.75 -3.25 1.8
      vertex -1.75 -1.16634 1.8
    endloop
  endfacet
  facet normal 0 0 1
    outer loop
      vertex -1.75 1.16634 1.8
      vertex -2.42339 0 1.8
      vertex -1.75 -1.16634 1.8
    endloop
  endfacet
  facet normal 0 -1 0
    outer loop
      vertex -1.21169 -2.09872 0
      vertex 1.21169 -2.09872 1.8
      vertex -1.21169 -2.09872 1.8
    endloop
  endfacet
  facet normal 0 -1 -0
    outer loop
      vertex 1.21169 -2.09872 1.8
      vertex -1.21169 -2.09872 0
      vertex 1.21169 -2.09872 0
    endloop
  endfacet
  facet normal -0.866024 -0.500002 0
    outer loop
      vertex -1.75 -1.16634 0
      vertex -2.42339 0 1.8
      vertex -2.42339 0 0
    endloop
  endfacet
  facet normal -0.866024 -0.500002 0
    outer loop
      vertex -1.75 -1.16634 0
      vertex -1.75 -1.16634 1.8
      vertex -2.42339 0 1.8
    endloop
  endfacet
  facet normal -0.866025 -0.5 0
    outer loop
      vertex -1.21169 -2.09872 0
      vertex -1.75 -1.16634 1.8
      vertex -1.75 -1.16634 0
    endloop
  endfacet
  facet normal -0.866025 -0.5 0
    outer loop
      vertex -1.75 -1.16634 1.8
      vertex -1.21169 -2.09872 0
      vertex -1.21169 -2.09872 1.8
    endloop
  endfacet
  facet normal -1 0 0
    outer loop
      vertex -1.75 -3.25 1.8
      vertex -1.75 -1.75 2.1
      vertex -1.75 -1.16634 1.8
    endloop
  endfacet
  facet normal -1 -0 0
    outer loop
      vertex -1.75 -1.75 2.1
      vertex -1.75 -3.25 1.8
      vertex -1.75 -3.25 2.1
    endloop
  endfacet
  facet normal -1 0 0
    outer loop
      vertex -1.75 3.25 1.8
      vertex -1.75 1.75 2.1
      vertex -1.75 3.25 2.1
    endloop
  endfacet
  facet normal -1 0 0
    outer loop
      vertex -1.75 1.16634 1.8
      vertex -1.75 1.75 2.1
      vertex -1.75 3.25 1.8
    endloop
  endfacet
  facet normal -1 0 0
    outer loop
      vertex -1.75 1.16634 1.8
      vertex -1.75 1.75 2.4
      vertex -1.75 1.75 2.1
    endloop
  endfacet
  facet normal -1 0 0
    outer loop
      vertex -1.75 -1.16634 1.8
      vertex -1.75 1.75 2.4
      vertex -1.75 1.16634 1.8
    endloop
  endfacet
  facet normal -1 0 0
    outer loop
      vertex -1.75 -1.75 2.4
      vertex -1.75 -1.16634 1.8
      vertex -1.75 -1.75 2.1
    endloop
  endfacet
  facet normal -1 0 0
    outer loop
      vertex -1.75 -1.16634 1.8
      vertex -1.75 -1.75 2.4
      vertex -1.75 1.75 2.4
    endloop
  endfacet
  facet normal -0 0 1
    outer loop
      vertex -1.75 -1.75 2.1
      vertex 1.75 -3.25 2.1
      vertex 1.75 -1.75 2.1
    endloop
  endfacet
  facet normal 0 0 1
    outer loop
      vertex 1.75 -3.25 2.1
      vertex -1.75 -1.75 2.1
      vertex -1.75 -3.25 2.1
    endloop
  endfacet
  facet normal -0 0 1
    outer loop
      vertex -1.75 3.25 2.1
      vertex 1.75 1.75 2.1
      vertex 1.75 3.25 2.1
    endloop
  endfacet
  facet normal 0 0 1
    outer loop
      vertex 1.75 1.75 2.1
      vertex -1.75 3.25 2.1
      vertex -1.75 1.75 2.1
    endloop
  endfacet
  facet normal 1 0 0
    outer loop
      vertex 1.75 1.75 2.4
      vertex 1.75 1.16634 1.8
      vertex 1.75 1.75 2.1
    endloop
  endfacet
  facet normal 1 0 0
    outer loop
      vertex 1.75 1.75 2.4
      vertex 1.75 -1.16634 1.8
      vertex 1.75 1.16634 1.8
    endloop
  endfacet
  facet normal 1 -0 0
    outer loop
      vertex 1.75 -1.75 2.4
      vertex 1.75 -1.16634 1.8
      vertex 1.75 1.75 2.4
    endloop
  endfacet
  facet normal 1 -0 0
    outer loop
      vertex 1.75 -1.75 2.1
      vertex 1.75 -1.16634 1.8
      vertex 1.75 -1.75 2.4
    endloop
  endfacet
  facet normal 1 0 0
    outer loop
      vertex 1.75 -3.25 1.8
      vertex 1.75 -1.75 2.1
      vertex 1.75 -3.25 2.1
    endloop
  endfacet
  facet normal 1 0 0
    outer loop
      vertex 1.75 -1.75 2.1
      vertex 1.75 -3.25 1.8
      vertex 1.75 -1.16634 1.8
    endloop
  endfacet
  facet normal 1 -0 0
    outer loop
      vertex 1.75 1.75 2.1
      vertex 1.75 3.25 1.8
      vertex 1.75 3.25 2.1
    endloop
  endfacet
  facet normal 1 0 0
    outer loop
      vertex 1.75 3.25 1.8
      vertex 1.75 1.75 2.1
      vertex 1.75 1.16634 1.8
    endloop
  endfacet
  facet normal 0 1 -0
    outer loop
      vertex 1.75 3.25 1.8
      vertex -1.75 3.25 2.1
      vertex 1.75 3.25 2.1
    endloop
  endfacet
  facet normal 0 1 0
    outer loop
      vertex -1.75 3.25 2.1
      vertex 1.75 3.25 1.8
      vertex -1.75 3.25 1.8
    endloop
  endfacet
  facet normal 0 -1 0
    outer loop
      vertex -1.75 -3.25 1.8
      vertex 1.75 -3.25 2.1
      vertex -1.75 -3.25 2.1
    endloop
  endfacet
  facet normal 0 -1 -0
    outer loop
      vertex 1.75 -3.25 2.1
      vertex -1.75 -3.25 1.8
      vertex 1.75 -3.25 1.8
    endloop
  endfacet
  facet normal 0 0 1
    outer loop
      vertex 1.75 1.75 2.4
      vertex 1.1 0 2.4
      vertex 1.75 -1.75 2.4
    endloop
  endfacet
  facet normal 0 0 1
    outer loop
      vertex 1.75 1.75 2.4
      vertex 1.09133 0.137866 2.4
      vertex 1.1 0 2.4
    endloop
  endfacet
  facet normal 0 0 1
    outer loop
      vertex 1.75 1.75 2.4
      vertex 1.06544 0.273559 2.4
      vertex 1.09133 0.137866 2.4
    endloop
  endfacet
  facet normal 0 0 1
    outer loop
      vertex 1.75 1.75 2.4
      vertex 1.02275 0.404937 2.4
      vertex 1.06544 0.273559 2.4
    endloop
  endfacet
  facet normal 0 0 1
    outer loop
      vertex 1.75 1.75 2.4
      vertex 0.963937 0.529928 2.4
      vertex 1.02275 0.404937 2.4
    endloop
  endfacet
  facet normal 0 0 1
    outer loop
      vertex 1.75 1.75 2.4
      vertex 0.889918 0.646564 2.4
      vertex 0.963937 0.529928 2.4
    endloop
  endfacet
  facet normal 0 0 1
    outer loop
      vertex 1.75 1.75 2.4
      vertex 0.801865 0.753001 2.4
      vertex 0.889918 0.646564 2.4
    endloop
  endfacet
  facet normal 0 0 1
    outer loop
      vertex 1.75 1.75 2.4
      vertex 0.701166 0.847564 2.4
      vertex 0.801865 0.753001 2.4
    endloop
  endfacet
  facet normal 0 0 1
    outer loop
      vertex 1.75 1.75 2.4
      vertex 0.589409 0.928761 2.4
      vertex 0.701166 0.847564 2.4
    endloop
  endfacet
  facet normal 0 0 1
    outer loop
      vertex 1.75 1.75 2.4
      vertex 0.468357 0.995309 2.4
      vertex 0.589409 0.928761 2.4
    endloop
  endfacet
  facet normal 0 0 1
    outer loop
      vertex 1.75 1.75 2.4
      vertex 0.339918 1.04616 2.4
      vertex 0.468357 0.995309 2.4
    endloop
  endfacet
  facet normal 0 0 1
    outer loop
      vertex 1.75 1.75 2.4
      vertex 0.206119 1.08052 2.4
      vertex 0.339918 1.04616 2.4
    endloop
  endfacet
  facet normal 0 0 1
    outer loop
      vertex 1.75 1.75 2.4
      vertex 0.0690689 1.09783 2.4
      vertex 0.206119 1.08052 2.4
    endloop
  endfacet
  facet normal 0 0 1
    outer loop
      vertex 1.75 1.75 2.4
      vertex -0.0690689 1.09783 2.4
      vertex 0.0690689 1.09783 2.4
    endloop
  endfacet
  facet normal -0 0 1
    outer loop
      vertex -1.75 1.75 2.4
      vertex -0.0690689 1.09783 2.4
      vertex 1.75 1.75 2.4
    endloop
  endfacet
  facet normal 0 0 1
    outer loop
      vertex -0.0690689 1.09783 2.4
      vertex -1.75 1.75 2.4
      vertex -0.206119 1.08052 2.4
    endloop
  endfacet
  facet normal 0 0 1
    outer loop
      vertex -1.09133 0.137866 2.4
      vertex -1.75 1.75 2.4
      vertex -1.1 0 2.4
    endloop
  endfacet
  facet normal 0 0 1
    outer loop
      vertex -1.06544 0.273559 2.4
      vertex -1.75 1.75 2.4
      vertex -1.09133 0.137866 2.4
    endloop
  endfacet
  facet normal 0 0 1
    outer loop
      vertex -1.02275 0.404937 2.4
      vertex -1.75 1.75 2.4
      vertex -1.06544 0.273559 2.4
    endloop
  endfacet
  facet normal 0 0 1
    outer loop
      vertex -0.963937 0.529928 2.4
      vertex -1.75 1.75 2.4
      vertex -1.02275 0.404937 2.4
    endloop
  endfacet
  facet normal 0 0 1
    outer loop
      vertex -0.889918 0.646564 2.4
      vertex -1.75 1.75 2.4
      vertex -0.963937 0.529928 2.4
    endloop
  endfacet
  facet normal 0 0 1
    outer loop
      vertex -0.801865 0.753001 2.4
      vertex -1.75 1.75 2.4
      vertex -0.889918 0.646564 2.4
    endloop
  endfacet
  facet normal 0 0 1
    outer loop
      vertex -0.701166 0.847564 2.4
      vertex -1.75 1.75 2.4
      vertex -0.801865 0.753001 2.4
    endloop
  endfacet
  facet normal 0 0 1
    outer loop
      vertex -0.589409 0.928761 2.4
      vertex -1.75 1.75 2.4
      vertex -0.701166 0.847564 2.4
    endloop
  endfacet
  facet normal 0 0 1
    outer loop
      vertex -0.468357 0.995309 2.4
      vertex -1.75 1.75 2.4
      vertex -0.589409 0.928761 2.4
    endloop
  endfacet
  facet normal 0 0 1
    outer loop
      vertex -0.339918 1.04616 2.4
      vertex -1.75 1.75 2.4
      vertex -0.468357 0.995309 2.4
    endloop
  endfacet
  facet normal 0 0 1
    outer loop
      vertex -0.206119 1.08052 2.4
      vertex -1.75 1.75 2.4
      vertex -0.339918 1.04616 2.4
    endloop
  endfacet
  facet normal -0 0 1
    outer loop
      vertex 1.09133 -0.137866 2.4
      vertex 1.75 -1.75 2.4
      vertex 1.1 0 2.4
    endloop
  endfacet
  facet normal -0 0 1
    outer loop
      vertex 1.06544 -0.273559 2.4
      vertex 1.75 -1.75 2.4
      vertex 1.09133 -0.137866 2.4
    endloop
  endfacet
  facet normal -0 0 1
    outer loop
      vertex 1.02275 -0.404937 2.4
      vertex 1.75 -1.75 2.4
      vertex 1.06544 -0.273559 2.4
    endloop
  endfacet
  facet normal -0 0 1
    outer loop
      vertex 0.963937 -0.529928 2.4
      vertex 1.75 -1.75 2.4
      vertex 1.02275 -0.404937 2.4
    endloop
  endfacet
  facet normal -0 0 1
    outer loop
      vertex 0.889918 -0.646564 2.4
      vertex 1.75 -1.75 2.4
      vertex 0.963937 -0.529928 2.4
    endloop
  endfacet
  facet normal -0 0 1
    outer loop
      vertex 0.801865 -0.753001 2.4
      vertex 1.75 -1.75 2.4
      vertex 0.889918 -0.646564 2.4
    endloop
  endfacet
  facet normal -0 0 1
    outer loop
      vertex 0.701166 -0.847564 2.4
      vertex 1.75 -1.75 2.4
      vertex 0.801865 -0.753001 2.4
    endloop
  endfacet
  facet normal -0 0 1
    outer loop
      vertex 0.589409 -0.928761 2.4
      vertex 1.75 -1.75 2.4
      vertex 0.701166 -0.847564 2.4
    endloop
  endfacet
  facet normal -0 0 1
    outer loop
      vertex 0.468357 -0.995309 2.4
      vertex 1.75 -1.75 2.4
      vertex 0.589409 -0.928761 2.4
    endloop
  endfacet
  facet normal -0 0 1
    outer loop
      vertex 0.339918 -1.04616 2.4
      vertex 1.75 -1.75 2.4
      vertex 0.468357 -0.995309 2.4
    endloop
  endfacet
  facet normal -0 0 1
    outer loop
      vertex 0.206119 -1.08052 2.4
      vertex 1.75 -1.75 2.4
      vertex 0.339918 -1.04616 2.4
    endloop
  endfacet
  facet normal -0 0 1
    outer loop
      vertex 0.0690689 -1.09783 2.4
      vertex 1.75 -1.75 2.4
      vertex 0.206119 -1.08052 2.4
    endloop
  endfacet
  facet normal -0 0 1
    outer loop
      vertex -0.0690689 -1.09783 2.4
      vertex 1.75 -1.75 2.4
      vertex 0.0690689 -1.09783 2.4
    endloop
  endfacet
  facet normal 0 0 1
    outer loop
      vertex -1.75 -1.75 2.4
      vertex -0.0690689 -1.09783 2.4
      vertex -0.206119 -1.08052 2.4
    endloop
  endfacet
  facet normal 0 0 1
    outer loop
      vertex -1.75 -1.75 2.4
      vertex -0.206119 -1.08052 2.4
      vertex -0.339918 -1.04616 2.4
    endloop
  endfacet
  facet normal 0 0 1
    outer loop
      vertex -1.75 -1.75 2.4
      vertex -1.1 0 2.4
      vertex -1.75 1.75 2.4
    endloop
  endfacet
  facet normal 0 0 1
    outer loop
      vertex -1.1 0 2.4
      vertex -1.75 -1.75 2.4
      vertex -1.09133 -0.137866 2.4
    endloop
  endfacet
  facet normal 0 0 1
    outer loop
      vertex -1.09133 -0.137866 2.4
      vertex -1.75 -1.75 2.4
      vertex -1.06544 -0.273559 2.4
    endloop
  endfacet
  facet normal 0 0 1
    outer loop
      vertex -0.0690689 -1.09783 2.4
      vertex -1.75 -1.75 2.4
      vertex 1.75 -1.75 2.4
    endloop
  endfacet
  facet normal 0 0 1
    outer loop
      vertex -0.468357 -0.995309 2.4
      vertex -1.75 -1.75 2.4
      vertex -0.339918 -1.04616 2.4
    endloop
  endfacet
  facet normal 0 0 1
    outer loop
      vertex -0.589409 -0.928761 2.4
      vertex -1.75 -1.75 2.4
      vertex -0.468357 -0.995309 2.4
    endloop
  endfacet
  facet normal 0 0 1
    outer loop
      vertex -0.701166 -0.847564 2.4
      vertex -1.75 -1.75 2.4
      vertex -0.589409 -0.928761 2.4
    endloop
  endfacet
  facet normal 0 0 1
    outer loop
      vertex -0.801865 -0.753001 2.4
      vertex -1.75 -1.75 2.4
      vertex -0.701166 -0.847564 2.4
    endloop
  endfacet
  facet normal 0 0 1
    outer loop
      vertex -0.889918 -0.646564 2.4
      vertex -1.75 -1.75 2.4
      vertex -0.801865 -0.753001 2.4
    endloop
  endfacet
  facet normal 0 0 1
    outer loop
      vertex -0.963937 -0.529928 2.4
      vertex -1.75 -1.75 2.4
      vertex -0.889918 -0.646564 2.4
    endloop
  endfacet
  facet normal 0 0 1
    outer loop
      vertex -1.02275 -0.404937 2.4
      vertex -1.75 -1.75 2.4
      vertex -0.963937 -0.529928 2.4
    endloop
  endfacet
  facet normal 0 0 1
    outer loop
      vertex -1.06544 -0.273559 2.4
      vertex -1.75 -1.75 2.4
      vertex -1.02275 -0.404937 2.4
    endloop
  endfacet
  facet normal 0 1 -0
    outer loop
      vertex 1.75 1.75 2.1
      vertex -1.75 1.75 2.4
      vertex 1.75 1.75 2.4
    endloop
  endfacet
  facet normal 0 1 0
    outer loop
      vertex -1.75 1.75 2.4
      vertex 1.75 1.75 2.1
      vertex -1.75 1.75 2.1
    endloop
  endfacet
  facet normal 0 -1 0
    outer loop
      vertex -1.75 -1.75 2.1
      vertex 1.75 -1.75 2.4
      vertex -1.75 -1.75 2.4
    endloop
  endfacet
  facet normal 0 -1 -0
    outer loop
      vertex 1.75 -1.75 2.4
      vertex -1.75 -1.75 2.1
      vertex 1.75 -1.75 2.1
    endloop
  endfacet
  facet normal -1 0 0
    outer loop
      vertex -1.75 1.75 -0.599999
      vertex -1.75 1.16634 0
      vertex -1.75 1.75 -0.299999
    endloop
  endfacet
  facet normal -1 0 0
    outer loop
      vertex -1.75 1.75 -0.599999
      vertex -1.75 -1.16634 0
      vertex -1.75 1.16634 0
    endloop
  endfacet
  facet normal -1 0 0
    outer loop
      vertex -1.75 -1.75 -0.599999
      vertex -1.75 -1.16634 0
      vertex -1.75 1.75 -0.599999
    endloop
  endfacet
  facet normal -1 0 0
    outer loop
      vertex -1.75 -1.75 -0.299999
      vertex -1.75 -1.16634 0
      vertex -1.75 -1.75 -0.599999
    endloop
  endfacet
  facet normal -1 0 0
    outer loop
      vertex -1.75 -3.25 0
      vertex -1.75 -1.75 -0.299999
      vertex -1.75 -3.25 -0.299999
    endloop
  endfacet
  facet normal -1 0 0
    outer loop
      vertex -1.75 -1.75 -0.299999
      vertex -1.75 -3.25 0
      vertex -1.75 -1.16634 0
    endloop
  endfacet
  facet normal -1 0 0
    outer loop
      vertex -1.75 1.75 -0.299999
      vertex -1.75 3.25 0
      vertex -1.75 3.25 -0.299999
    endloop
  endfacet
  facet normal -1 -0 0
    outer loop
      vertex -1.75 3.25 0
      vertex -1.75 1.75 -0.299999
      vertex -1.75 1.16634 0
    endloop
  endfacet
  facet normal 1 -0 0
    outer loop
      vertex 1.75 -3.25 0
      vertex 1.75 -1.75 -0.299999
      vertex 1.75 -1.16634 0
    endloop
  endfacet
  facet normal 1 0 0
    outer loop
      vertex 1.75 -1.75 -0.299999
      vertex 1.75 -3.25 0
      vertex 1.75 -3.25 -0.299999
    endloop
  endfacet
  facet normal 1 0 0
    outer loop
      vertex 1.75 3.25 0
      vertex 1.75 1.75 -0.299999
      vertex 1.75 3.25 -0.299999
    endloop
  endfacet
  facet normal 1 -0 0
    outer loop
      vertex 1.75 1.16634 0
      vertex 1.75 1.75 -0.299999
      vertex 1.75 3.25 0
    endloop
  endfacet
  facet normal 1 0 0
    outer loop
      vertex 1.75 1.16634 0
      vertex 1.75 1.75 -0.599999
      vertex 1.75 1.75 -0.299999
    endloop
  endfacet
  facet normal 1 -0 0
    outer loop
      vertex 1.75 -1.16634 0
      vertex 1.75 1.75 -0.599999
      vertex 1.75 1.16634 0
    endloop
  endfacet
  facet normal 1 0 0
    outer loop
      vertex 1.75 -1.75 -0.599999
      vertex 1.75 -1.16634 0
      vertex 1.75 -1.75 -0.299999
    endloop
  endfacet
  facet normal 1 0 0
    outer loop
      vertex 1.75 -1.16634 0
      vertex 1.75 -1.75 -0.599999
      vertex 1.75 1.75 -0.599999
    endloop
  endfacet
  facet normal 0 0 -1
    outer loop
      vertex -1.75 -3.25 -0.299999
      vertex 1.75 -1.75 -0.299999
      vertex 1.75 -3.25 -0.299999
    endloop
  endfacet
  facet normal -0 0 -1
    outer loop
      vertex 1.75 -1.75 -0.299999
      vertex -1.75 -3.25 -0.299999
      vertex -1.75 -1.75 -0.299999
    endloop
  endfacet
  facet normal 0 0 -1
    outer loop
      vertex -1.75 1.75 -0.299999
      vertex 1.75 3.25 -0.299999
      vertex 1.75 1.75 -0.299999
    endloop
  endfacet
  facet normal -0 0 -1
    outer loop
      vertex 1.75 3.25 -0.299999
      vertex -1.75 1.75 -0.299999
      vertex -1.75 3.25 -0.299999
    endloop
  endfacet
  facet normal 0 -1 0
    outer loop
      vertex -1.75 -3.25 -0.299999
      vertex 1.75 -3.25 0
      vertex -1.75 -3.25 0
    endloop
  endfacet
  facet normal 0 -1 -0
    outer loop
      vertex 1.75 -3.25 0
      vertex -1.75 -3.25 -0.299999
      vertex 1.75 -3.25 -0.299999
    endloop
  endfacet
  facet normal 0 1 -0
    outer loop
      vertex 1.75 3.25 -0.299999
      vertex -1.75 3.25 0
      vertex 1.75 3.25 0
    endloop
  endfacet
  facet normal 0 1 0
    outer loop
      vertex -1.75 3.25 0
      vertex 1.75 3.25 -0.299999
      vertex -1.75 3.25 -0.299999
    endloop
  endfacet
  facet normal 0 0 -1
    outer loop
      vertex 1.75 -1.75 -0.599999
      vertex 1.1 0 -0.599999
      vertex 1.75 1.75 -0.599999
    endloop
  endfacet
  facet normal 0 0 -1
    outer loop
      vertex 1.75 -1.75 -0.599999
      vertex 1.09133 -0.137866 -0.599999
      vertex 1.1 0 -0.599999
    endloop
  endfacet
  facet normal 0 0 -1
    outer loop
      vertex 1.75 -1.75 -0.599999
      vertex 1.06544 -0.273559 -0.599999
      vertex 1.09133 -0.137866 -0.599999
    endloop
  endfacet
  facet normal 0 0 -1
    outer loop
      vertex 1.75 -1.75 -0.599999
      vertex 1.02275 -0.404937 -0.599999
      vertex 1.06544 -0.273559 -0.599999
    endloop
  endfacet
  facet normal 0 0 -1
    outer loop
      vertex 1.75 -1.75 -0.599999
      vertex 0.963937 -0.529928 -0.599999
      vertex 1.02275 -0.404937 -0.599999
    endloop
  endfacet
  facet normal 0 0 -1
    outer loop
      vertex 1.75 -1.75 -0.599999
      vertex 0.889918 -0.646564 -0.599999
      vertex 0.963937 -0.529928 -0.599999
    endloop
  endfacet
  facet normal 0 0 -1
    outer loop
      vertex 1.75 -1.75 -0.599999
      vertex 0.801865 -0.753001 -0.599999
      vertex 0.889918 -0.646564 -0.599999
    endloop
  endfacet
  facet normal 0 0 -1
    outer loop
      vertex 1.75 -1.75 -0.599999
      vertex 0.701166 -0.847564 -0.599999
      vertex 0.801865 -0.753001 -0.599999
    endloop
  endfacet
  facet normal 0 0 -1
    outer loop
      vertex 1.75 -1.75 -0.599999
      vertex 0.589409 -0.928761 -0.599999
      vertex 0.701166 -0.847564 -0.599999
    endloop
  endfacet
  facet normal 0 0 -1
    outer loop
      vertex 1.75 -1.75 -0.599999
      vertex 0.468357 -0.995309 -0.599999
      vertex 0.589409 -0.928761 -0.599999
    endloop
  endfacet
  facet normal 0 0 -1
    outer loop
      vertex 1.75 -1.75 -0.599999
      vertex 0.339918 -1.04616 -0.599999
      vertex 0.468357 -0.995309 -0.599999
    endloop
  endfacet
  facet normal 0 0 -1
    outer loop
      vertex 1.75 -1.75 -0.599999
      vertex 0.206119 -1.08052 -0.599999
      vertex 0.339918 -1.04616 -0.599999
    endloop
  endfacet
  facet normal 0 0 -1
    outer loop
      vertex 1.75 -1.75 -0.599999
      vertex 0.0690689 -1.09783 -0.599999
      vertex 0.206119 -1.08052 -0.599999
    endloop
  endfacet
  facet normal 0 0 -1
    outer loop
      vertex 1.75 -1.75 -0.599999
      vertex -0.0690689 -1.09783 -0.599999
      vertex 0.0690689 -1.09783 -0.599999
    endloop
  endfacet
  facet normal 0 0 -1
    outer loop
      vertex -1.75 -1.75 -0.599999
      vertex -0.0690689 -1.09783 -0.599999
      vertex 1.75 -1.75 -0.599999
    endloop
  endfacet
  facet normal -0 0 -1
    outer loop
      vertex -0.0690689 -1.09783 -0.599999
      vertex -1.75 -1.75 -0.599999
      vertex -0.206119 -1.08052 -0.599999
    endloop
  endfacet
  facet normal -0 0 -1
    outer loop
      vertex -1.09133 -0.137866 -0.599999
      vertex -1.75 -1.75 -0.599999
      vertex -1.1 0 -0.599999
    endloop
  endfacet
  facet normal -0 0 -1
    outer loop
      vertex -1.06544 -0.273559 -0.599999
      vertex -1.75 -1.75 -0.599999
      vertex -1.09133 -0.137866 -0.599999
    endloop
  endfacet
  facet normal -0 0 -1
    outer loop
      vertex -1.02275 -0.404937 -0.599999
      vertex -1.75 -1.75 -0.599999
      vertex -1.06544 -0.273559 -0.599999
    endloop
  endfacet
  facet normal -0 0 -1
    outer loop
      vertex -0.963937 -0.529928 -0.599999
      vertex -1.75 -1.75 -0.599999
      vertex -1.02275 -0.404937 -0.599999
    endloop
  endfacet
  facet normal -0 0 -1
    outer loop
      vertex -0.889918 -0.646564 -0.599999
      vertex -1.75 -1.75 -0.599999
      vertex -0.963937 -0.529928 -0.599999
    endloop
  endfacet
  facet normal -0 0 -1
    outer loop
      vertex -0.801865 -0.753001 -0.599999
      vertex -1.75 -1.75 -0.599999
      vertex -0.889918 -0.646564 -0.599999
    endloop
  endfacet
  facet normal -0 0 -1
    outer loop
      vertex -0.701166 -0.847564 -0.599999
      vertex -1.75 -1.75 -0.599999
      vertex -0.801865 -0.753001 -0.599999
    endloop
  endfacet
  facet normal -0 0 -1
    outer loop
      vertex -0.589409 -0.928761 -0.599999
      vertex -1.75 -1.75 -0.599999
      vertex -0.701166 -0.847564 -0.599999
    endloop
  endfacet
  facet normal -0 0 -1
    outer loop
      vertex -0.468357 -0.995309 -0.599999
      vertex -1.75 -1.75 -0.599999
      vertex -0.589409 -0.928761 -0.599999
    endloop
  endfacet
  facet normal -0 0 -1
    outer loop
      vertex -0.339918 -1.04616 -0.599999
      vertex -1.75 -1.75 -0.599999
      vertex -0.468357 -0.995309 -0.599999
    endloop
  endfacet
  facet normal -0 0 -1
    outer loop
      vertex -0.206119 -1.08052 -0.599999
      vertex -1.75 -1.75 -0.599999
      vertex -0.339918 -1.04616 -0.599999
    endloop
  endfacet
  facet normal 0 0 -1
    outer loop
      vertex 1.09133 0.137866 -0.599999
      vertex 1.75 1.75 -0.599999
      vertex 1.1 0 -0.599999
    endloop
  endfacet
  facet normal 0 0 -1
    outer loop
      vertex 1.06544 0.273559 -0.599999
      vertex 1.75 1.75 -0.599999
      vertex 1.09133 0.137866 -0.599999
    endloop
  endfacet
  facet normal 0 0 -1
    outer loop
      vertex 1.02275 0.404937 -0.599999
      vertex 1.75 1.75 -0.599999
      vertex 1.06544 0.273559 -0.599999
    endloop
  endfacet
  facet normal 0 0 -1
    outer loop
      vertex 0.963937 0.529928 -0.599999
      vertex 1.75 1.75 -0.599999
      vertex 1.02275 0.404937 -0.599999
    endloop
  endfacet
  facet normal 0 0 -1
    outer loop
      vertex 0.889918 0.646564 -0.599999
      vertex 1.75 1.75 -0.599999
      vertex 0.963937 0.529928 -0.599999
    endloop
  endfacet
  facet normal 0 0 -1
    outer loop
      vertex 0.801865 0.753001 -0.599999
      vertex 1.75 1.75 -0.599999
      vertex 0.889918 0.646564 -0.599999
    endloop
  endfacet
  facet normal 0 0 -1
    outer loop
      vertex 0.701166 0.847564 -0.599999
      vertex 1.75 1.75 -0.599999
      vertex 0.801865 0.753001 -0.599999
    endloop
  endfacet
  facet normal 0 0 -1
    outer loop
      vertex 0.589409 0.928761 -0.599999
      vertex 1.75 1.75 -0.599999
      vertex 0.701166 0.847564 -0.599999
    endloop
  endfacet
  facet normal 0 0 -1
    outer loop
      vertex 0.468357 0.995309 -0.599999
      vertex 1.75 1.75 -0.599999
      vertex 0.589409 0.928761 -0.599999
    endloop
  endfacet
  facet normal 0 0 -1
    outer loop
      vertex 0.339918 1.04616 -0.599999
      vertex 1.75 1.75 -0.599999
      vertex 0.468357 0.995309 -0.599999
    endloop
  endfacet
  facet normal 0 0 -1
    outer loop
      vertex 0.206119 1.08052 -0.599999
      vertex 1.75 1.75 -0.599999
      vertex 0.339918 1.04616 -0.599999
    endloop
  endfacet
  facet normal 0 0 -1
    outer loop
      vertex 0.0690689 1.09783 -0.599999
      vertex 1.75 1.75 -0.599999
      vertex 0.206119 1.08052 -0.599999
    endloop
  endfacet
  facet normal 0 0 -1
    outer loop
      vertex -0.0690689 1.09783 -0.599999
      vertex 1.75 1.75 -0.599999
      vertex 0.0690689 1.09783 -0.599999
    endloop
  endfacet
  facet normal 0 0 -1
    outer loop
      vertex -1.75 1.75 -0.599999
      vertex -0.0690689 1.09783 -0.599999
      vertex -0.206119 1.08052 -0.599999
    endloop
  endfacet
  facet normal 0 0 -1
    outer loop
      vertex -1.75 1.75 -0.599999
      vertex -0.206119 1.08052 -0.599999
      vertex -0.339918 1.04616 -0.599999
    endloop
  endfacet
  facet normal 0 0 -1
    outer loop
      vertex -1.75 1.75 -0.599999
      vertex -1.1 0 -0.599999
      vertex -1.75 -1.75 -0.599999
    endloop
  endfacet
  facet normal 0 0 -1
    outer loop
      vertex -1.1 0 -0.599999
      vertex -1.75 1.75 -0.599999
      vertex -1.09133 0.137866 -0.599999
    endloop
  endfacet
  facet normal 0 0 -1
    outer loop
      vertex -1.09133 0.137866 -0.599999
      vertex -1.75 1.75 -0.599999
      vertex -1.06544 0.273559 -0.599999
    endloop
  endfacet
  facet normal 0 0 -1
    outer loop
      vertex -0.0690689 1.09783 -0.599999
      vertex -1.75 1.75 -0.599999
      vertex 1.75 1.75 -0.599999
    endloop
  endfacet
  facet normal 0 0 -1
    outer loop
      vertex -0.468357 0.995309 -0.599999
      vertex -1.75 1.75 -0.599999
      vertex -0.339918 1.04616 -0.599999
    endloop
  endfacet
  facet normal 0 0 -1
    outer loop
      vertex -0.589409 0.928761 -0.599999
      vertex -1.75 1.75 -0.599999
      vertex -0.468357 0.995309 -0.599999
    endloop
  endfacet
  facet normal 0 0 -1
    outer loop
      vertex -0.701166 0.847564 -0.599999
      vertex -1.75 1.75 -0.599999
      vertex -0.589409 0.928761 -0.599999
    endloop
  endfacet
  facet normal 0 0 -1
    outer loop
      vertex -0.801865 0.753001 -0.599999
      vertex -1.75 1.75 -0.599999
      vertex -0.701166 0.847564 -0.599999
    endloop
  endfacet
  facet normal 0 0 -1
    outer loop
      vertex -0.889918 0.646564 -0.599999
      vertex -1.75 1.75 -0.599999
      vertex -0.801865 0.753001 -0.599999
    endloop
  endfacet
  facet normal 0 0 -1
    outer loop
      vertex -0.963937 0.529928 -0.599999
      vertex -1.75 1.75 -0.599999
      vertex -0.889918 0.646564 -0.599999
    endloop
  endfacet
  facet normal 0 0 -1
    outer loop
      vertex -1.02275 0.404937 -0.599999
      vertex -1.75 1.75 -0.599999
      vertex -0.963937 0.529928 -0.599999
    endloop
  endfacet
  facet normal 0 0 -1
    outer loop
      vertex -1.06544 0.273559 -0.599999
      vertex -1.75 1.75 -0.599999
      vertex -1.02275 0.404937 -0.599999
    endloop
  endfacet
  facet normal 0 -1 0
    outer loop
      vertex -1.75 -1.75 -0.599999
      vertex 1.75 -1.75 -0.299999
      vertex -1.75 -1.75 -0.299999
    endloop
  endfacet
  facet normal 0 -1 -0
    outer loop
      vertex 1.75 -1.75 -0.299999
      vertex -1.75 -1.75 -0.599999
      vertex 1.75 -1.75 -0.599999
    endloop
  endfacet
  facet normal 0 1 -0
    outer loop
      vertex 1.75 1.75 -0.599999
      vertex -1.75 1.75 -0.299999
      vertex 1.75 1.75 -0.299999
    endloop
  endfacet
  facet normal 0 1 0
    outer loop
      vertex -1.75 1.75 -0.299999
      vertex 1.75 1.75 -0.599999
      vertex -1.75 1.75 -0.599999
    endloop
  endfacet
  facet normal -0.998028 -0.0627632 0
    outer loop
      vertex 1.1 0 -0.599999
      vertex 1.09133 0.137866 2.4
      vertex 1.09133 0.137866 -0.599999
    endloop
  endfacet
  facet normal -0.998028 -0.0627632 0
    outer loop
      vertex 1.09133 0.137866 2.4
      vertex 1.1 0 -0.599999
      vertex 1.1 0 2.4
    endloop
  endfacet
  facet normal 0.998028 -0.0627632 0
    outer loop
      vertex -1.1 0 2.4
      vertex -1.09133 0.137866 -0.599999
      vertex -1.09133 0.137866 2.4
    endloop
  endfacet
  facet normal 0.998028 -0.0627632 0
    outer loop
      vertex -1.09133 0.137866 -0.599999
      vertex -1.1 0 2.4
      vertex -1.1 0 -0.599999
    endloop
  endfacet
  facet normal 0 -1 0
    outer loop
      vertex -0.0690689 1.09783 -0.599999
      vertex 0.0690689 1.09783 2.4
      vertex -0.0690689 1.09783 2.4
    endloop
  endfacet
  facet normal 0 -1 -0
    outer loop
      vertex 0.0690689 1.09783 2.4
      vertex -0.0690689 1.09783 -0.599999
      vertex 0.0690689 1.09783 -0.599999
    endloop
  endfacet
  facet normal 0 1 -0
    outer loop
      vertex 0.0690689 -1.09783 -0.599999
      vertex -0.0690689 -1.09783 2.4
      vertex 0.0690689 -1.09783 2.4
    endloop
  endfacet
  facet normal 0 1 0
    outer loop
      vertex -0.0690689 -1.09783 2.4
      vertex 0.0690689 -1.09783 -0.599999
      vertex -0.0690689 -1.09783 -0.599999
    endloop
  endfacet
  facet normal -0.770511 0.637427 0
    outer loop
      vertex 0.801865 -0.753001 -0.599999
      vertex 0.889918 -0.646564 2.4
      vertex 0.889918 -0.646564 -0.599999
    endloop
  endfacet
  facet normal -0.770511 0.637427 0
    outer loop
      vertex 0.889918 -0.646564 2.4
      vertex 0.801865 -0.753001 -0.599999
      vertex 0.801865 -0.753001 2.4
    endloop
  endfacet
  facet normal -0.684548 -0.728967 0
    outer loop
      vertex 0.701166 0.847564 -0.599999
      vertex 0.801865 0.753001 2.4
      vertex 0.701166 0.847564 2.4
    endloop
  endfacet
  facet normal -0.684548 -0.728967 -0
    outer loop
      vertex 0.801865 0.753001 2.4
      vertex 0.701166 0.847564 -0.599999
      vertex 0.801865 0.753001 -0.599999
    endloop
  endfacet
  facet normal 0.684548 -0.728967 0
    outer loop
      vertex -0.801865 0.753001 -0.599999
      vertex -0.701166 0.847564 2.4
      vertex -0.801865 0.753001 2.4
    endloop
  endfacet
  facet normal 0.684548 -0.728967 0
    outer loop
      vertex -0.701166 0.847564 2.4
      vertex -0.801865 0.753001 -0.599999
      vertex -0.701166 0.847564 -0.599999
    endloop
  endfacet
  facet normal 0.368115 -0.92978 0
    outer loop
      vertex -0.468357 0.995309 -0.599999
      vertex -0.339918 1.04616 2.4
      vertex -0.468357 0.995309 2.4
    endloop
  endfacet
  facet normal 0.368115 -0.92978 0
    outer loop
      vertex -0.339918 1.04616 2.4
      vertex -0.468357 0.995309 -0.599999
      vertex -0.339918 1.04616 -0.599999
    endloop
  endfacet
  facet normal -0.904836 -0.42576 0
    outer loop
      vertex 1.02275 0.404937 -0.599999
      vertex 0.963937 0.529928 2.4
      vertex 0.963937 0.529928 -0.599999
    endloop
  endfacet
  facet normal -0.904836 -0.42576 0
    outer loop
      vertex 0.963937 0.529928 2.4
      vertex 1.02275 0.404937 -0.599999
      vertex 1.02275 0.404937 2.4
    endloop
  endfacet
  facet normal -0.844329 -0.535824 0
    outer loop
      vertex 0.963937 0.529928 -0.599999
      vertex 0.889918 0.646564 2.4
      vertex 0.889918 0.646564 -0.599999
    endloop
  endfacet
  facet normal -0.844329 -0.535824 0
    outer loop
      vertex 0.889918 0.646564 2.4
      vertex 0.963937 0.529928 -0.599999
      vertex 0.963937 0.529928 2.4
    endloop
  endfacet
  facet normal -0.368115 -0.92978 0
    outer loop
      vertex 0.339918 1.04616 -0.599999
      vertex 0.468357 0.995309 2.4
      vertex 0.339918 1.04616 2.4
    endloop
  endfacet
  facet normal -0.368115 -0.92978 -0
    outer loop
      vertex 0.468357 0.995309 2.4
      vertex 0.339918 1.04616 -0.599999
      vertex 0.468357 0.995309 -0.599999
    endloop
  endfacet
  facet normal -0.248732 -0.968572 0
    outer loop
      vertex 0.206119 1.08052 -0.599999
      vertex 0.339918 1.04616 2.4
      vertex 0.206119 1.08052 2.4
    endloop
  endfacet
  facet normal -0.248732 -0.968572 -0
    outer loop
      vertex 0.339918 1.04616 2.4
      vertex 0.206119 1.08052 -0.599999
      vertex 0.339918 1.04616 -0.599999
    endloop
  endfacet
  facet normal -0.587789 -0.809014 0
    outer loop
      vertex 0.589409 0.928761 -0.599999
      vertex 0.701166 0.847564 2.4
      vertex 0.589409 0.928761 2.4
    endloop
  endfacet
  facet normal -0.587789 -0.809014 -0
    outer loop
      vertex 0.701166 0.847564 2.4
      vertex 0.589409 0.928761 -0.599999
      vertex 0.701166 0.847564 -0.599999
    endloop
  endfacet
  facet normal 0.844329 -0.535824 0
    outer loop
      vertex -0.963937 0.529928 2.4
      vertex -0.889918 0.646564 -0.599999
      vertex -0.889918 0.646564 2.4
    endloop
  endfacet
  facet normal 0.844329 -0.535824 0
    outer loop
      vertex -0.889918 0.646564 -0.599999
      vertex -0.963937 0.529928 2.4
      vertex -0.963937 0.529928 -0.599999
    endloop
  endfacet
  facet normal 0.770511 -0.637427 0
    outer loop
      vertex -0.889918 0.646564 2.4
      vertex -0.801865 0.753001 -0.599999
      vertex -0.801865 0.753001 2.4
    endloop
  endfacet
  facet normal 0.770511 -0.637427 0
    outer loop
      vertex -0.801865 0.753001 -0.599999
      vertex -0.889918 0.646564 2.4
      vertex -0.889918 0.646564 -0.599999
    endloop
  endfacet
  facet normal 0.951051 -0.309035 0
    outer loop
      vertex -1.06544 0.273559 2.4
      vertex -1.02275 0.404937 -0.599999
      vertex -1.02275 0.404937 2.4
    endloop
  endfacet
  facet normal 0.951051 -0.309035 0
    outer loop
      vertex -1.02275 0.404937 -0.599999
      vertex -1.06544 0.273559 2.4
      vertex -1.06544 0.273559 -0.599999
    endloop
  endfacet
  facet normal 0.481749 -0.876309 0
    outer loop
      vertex -0.589409 0.928761 -0.599999
      vertex -0.468357 0.995309 2.4
      vertex -0.589409 0.928761 2.4
    endloop
  endfacet
  facet normal 0.481749 -0.876309 0
    outer loop
      vertex -0.468357 0.995309 2.4
      vertex -0.589409 0.928761 -0.599999
      vertex -0.468357 0.995309 -0.599999
    endloop
  endfacet
  facet normal 0.125309 -0.992118 0
    outer loop
      vertex -0.206119 1.08052 -0.599999
      vertex -0.0690689 1.09783 2.4
      vertex -0.206119 1.08052 2.4
    endloop
  endfacet
  facet normal 0.125309 -0.992118 0
    outer loop
      vertex -0.0690689 1.09783 2.4
      vertex -0.206119 1.08052 -0.599999
      vertex -0.0690689 1.09783 -0.599999
    endloop
  endfacet
  facet normal -0.125309 0.992118 0
    outer loop
      vertex 0.206119 -1.08052 -0.599999
      vertex 0.0690689 -1.09783 2.4
      vertex 0.206119 -1.08052 2.4
    endloop
  endfacet
  facet normal -0.125309 0.992118 0
    outer loop
      vertex 0.0690689 -1.09783 2.4
      vertex 0.206119 -1.08052 -0.599999
      vertex 0.0690689 -1.09783 -0.599999
    endloop
  endfacet
  facet normal -0.951051 -0.309035 0
    outer loop
      vertex 1.06544 0.273559 -0.599999
      vertex 1.02275 0.404937 2.4
      vertex 1.02275 0.404937 -0.599999
    endloop
  endfacet
  facet normal -0.951051 -0.309035 0
    outer loop
      vertex 1.02275 0.404937 2.4
      vertex 1.06544 0.273559 -0.599999
      vertex 1.06544 0.273559 2.4
    endloop
  endfacet
  facet normal -0.98228 -0.187417 0
    outer loop
      vertex 1.09133 0.137866 -0.599999
      vertex 1.06544 0.273559 2.4
      vertex 1.06544 0.273559 -0.599999
    endloop
  endfacet
  facet normal -0.98228 -0.187417 0
    outer loop
      vertex 1.06544 0.273559 2.4
      vertex 1.09133 0.137866 -0.599999
      vertex 1.09133 0.137866 2.4
    endloop
  endfacet
  facet normal -0.770511 -0.637427 0
    outer loop
      vertex 0.889918 0.646564 -0.599999
      vertex 0.801865 0.753001 2.4
      vertex 0.801865 0.753001 -0.599999
    endloop
  endfacet
  facet normal -0.770511 -0.637427 0
    outer loop
      vertex 0.801865 0.753001 2.4
      vertex 0.889918 0.646564 -0.599999
      vertex 0.889918 0.646564 2.4
    endloop
  endfacet
  facet normal -0.125309 -0.992118 0
    outer loop
      vertex 0.0690689 1.09783 -0.599999
      vertex 0.206119 1.08052 2.4
      vertex 0.0690689 1.09783 2.4
    endloop
  endfacet
  facet normal -0.125309 -0.992118 -0
    outer loop
      vertex 0.206119 1.08052 2.4
      vertex 0.0690689 1.09783 -0.599999
      vertex 0.206119 1.08052 -0.599999
    endloop
  endfacet
  facet normal 0.904836 -0.42576 0
    outer loop
      vertex -1.02275 0.404937 2.4
      vertex -0.963937 0.529928 -0.599999
      vertex -0.963937 0.529928 2.4
    endloop
  endfacet
  facet normal 0.904836 -0.42576 0
    outer loop
      vertex -0.963937 0.529928 -0.599999
      vertex -1.02275 0.404937 2.4
      vertex -1.02275 0.404937 -0.599999
    endloop
  endfacet
  facet normal 0.98228 -0.187417 0
    outer loop
      vertex -1.09133 0.137866 2.4
      vertex -1.06544 0.273559 -0.599999
      vertex -1.06544 0.273559 2.4
    endloop
  endfacet
  facet normal 0.98228 -0.187417 0
    outer loop
      vertex -1.06544 0.273559 -0.599999
      vertex -1.09133 0.137866 2.4
      vertex -1.09133 0.137866 -0.599999
    endloop
  endfacet
  facet normal 0.587789 -0.809014 0
    outer loop
      vertex -0.701166 0.847564 -0.599999
      vertex -0.589409 0.928761 2.4
      vertex -0.701166 0.847564 2.4
    endloop
  endfacet
  facet normal 0.587789 -0.809014 0
    outer loop
      vertex -0.589409 0.928761 2.4
      vertex -0.701166 0.847564 -0.599999
      vertex -0.589409 0.928761 -0.599999
    endloop
  endfacet
  facet normal 0.248732 -0.968572 0
    outer loop
      vertex -0.339918 1.04616 -0.599999
      vertex -0.206119 1.08052 2.4
      vertex -0.339918 1.04616 2.4
    endloop
  endfacet
  facet normal 0.248732 -0.968572 0
    outer loop
      vertex -0.206119 1.08052 2.4
      vertex -0.339918 1.04616 -0.599999
      vertex -0.206119 1.08052 -0.599999
    endloop
  endfacet
  facet normal -0.998028 0.0627632 0
    outer loop
      vertex 1.09133 -0.137866 -0.599999
      vertex 1.1 0 2.4
      vertex 1.1 0 -0.599999
    endloop
  endfacet
  facet normal -0.998028 0.0627632 0
    outer loop
      vertex 1.1 0 2.4
      vertex 1.09133 -0.137866 -0.599999
      vertex 1.09133 -0.137866 2.4
    endloop
  endfacet
  facet normal -0.951051 0.309035 0
    outer loop
      vertex 1.02275 -0.404937 -0.599999
      vertex 1.06544 -0.273559 2.4
      vertex 1.06544 -0.273559 -0.599999
    endloop
  endfacet
  facet normal -0.951051 0.309035 0
    outer loop
      vertex 1.06544 -0.273559 2.4
      vertex 1.02275 -0.404937 -0.599999
      vertex 1.02275 -0.404937 2.4
    endloop
  endfacet
  facet normal 0.368115 0.92978 -0
    outer loop
      vertex -0.339918 -1.04616 -0.599999
      vertex -0.468357 -0.995309 2.4
      vertex -0.339918 -1.04616 2.4
    endloop
  endfacet
  facet normal 0.368115 0.92978 0
    outer loop
      vertex -0.468357 -0.995309 2.4
      vertex -0.339918 -1.04616 -0.599999
      vertex -0.468357 -0.995309 -0.599999
    endloop
  endfacet
  facet normal -0.587789 0.809014 0
    outer loop
      vertex 0.701166 -0.847564 -0.599999
      vertex 0.589409 -0.928761 2.4
      vertex 0.701166 -0.847564 2.4
    endloop
  endfacet
  facet normal -0.587789 0.809014 0
    outer loop
      vertex 0.589409 -0.928761 2.4
      vertex 0.701166 -0.847564 -0.599999
      vertex 0.589409 -0.928761 -0.599999
    endloop
  endfacet
  facet normal -0.368115 0.92978 0
    outer loop
      vertex 0.468357 -0.995309 -0.599999
      vertex 0.339918 -1.04616 2.4
      vertex 0.468357 -0.995309 2.4
    endloop
  endfacet
  facet normal -0.368115 0.92978 0
    outer loop
      vertex 0.339918 -1.04616 2.4
      vertex 0.468357 -0.995309 -0.599999
      vertex 0.339918 -1.04616 -0.599999
    endloop
  endfacet
  facet normal -0.481749 -0.876309 0
    outer loop
      vertex 0.468357 0.995309 -0.599999
      vertex 0.589409 0.928761 2.4
      vertex 0.468357 0.995309 2.4
    endloop
  endfacet
  facet normal -0.481749 -0.876309 -0
    outer loop
      vertex 0.589409 0.928761 2.4
      vertex 0.468357 0.995309 -0.599999
      vertex 0.589409 0.928761 -0.599999
    endloop
  endfacet
  facet normal -0.98228 0.187417 0
    outer loop
      vertex 1.06544 -0.273559 -0.599999
      vertex 1.09133 -0.137866 2.4
      vertex 1.09133 -0.137866 -0.599999
    endloop
  endfacet
  facet normal -0.98228 0.187417 0
    outer loop
      vertex 1.09133 -0.137866 2.4
      vertex 1.06544 -0.273559 -0.599999
      vertex 1.06544 -0.273559 2.4
    endloop
  endfacet
  facet normal 0.770511 0.637427 0
    outer loop
      vertex -0.801865 -0.753001 2.4
      vertex -0.889918 -0.646564 -0.599999
      vertex -0.889918 -0.646564 2.4
    endloop
  endfacet
  facet normal 0.770511 0.637427 0
    outer loop
      vertex -0.889918 -0.646564 -0.599999
      vertex -0.801865 -0.753001 2.4
      vertex -0.801865 -0.753001 -0.599999
    endloop
  endfacet
  facet normal 0.951051 0.309035 0
    outer loop
      vertex -1.02275 -0.404937 2.4
      vertex -1.06544 -0.273559 -0.599999
      vertex -1.06544 -0.273559 2.4
    endloop
  endfacet
  facet normal 0.951051 0.309035 0
    outer loop
      vertex -1.06544 -0.273559 -0.599999
      vertex -1.02275 -0.404937 2.4
      vertex -1.02275 -0.404937 -0.599999
    endloop
  endfacet
  facet normal -0.684548 0.728967 0
    outer loop
      vertex 0.801865 -0.753001 -0.599999
      vertex 0.701166 -0.847564 2.4
      vertex 0.801865 -0.753001 2.4
    endloop
  endfacet
  facet normal -0.684548 0.728967 0
    outer loop
      vertex 0.701166 -0.847564 2.4
      vertex 0.801865 -0.753001 -0.599999
      vertex 0.701166 -0.847564 -0.599999
    endloop
  endfacet
  facet normal -0.481749 0.876309 0
    outer loop
      vertex 0.589409 -0.928761 -0.599999
      vertex 0.468357 -0.995309 2.4
      vertex 0.589409 -0.928761 2.4
    endloop
  endfacet
  facet normal -0.481749 0.876309 0
    outer loop
      vertex 0.468357 -0.995309 2.4
      vertex 0.589409 -0.928761 -0.599999
      vertex 0.468357 -0.995309 -0.599999
    endloop
  endfacet
  facet normal -0.248732 0.968572 0
    outer loop
      vertex 0.339918 -1.04616 -0.599999
      vertex 0.206119 -1.08052 2.4
      vertex 0.339918 -1.04616 2.4
    endloop
  endfacet
  facet normal -0.248732 0.968572 0
    outer loop
      vertex 0.206119 -1.08052 2.4
      vertex 0.339918 -1.04616 -0.599999
      vertex 0.206119 -1.08052 -0.599999
    endloop
  endfacet
  facet normal -0.904836 0.42576 0
    outer loop
      vertex 0.963937 -0.529928 -0.599999
      vertex 1.02275 -0.404937 2.4
      vertex 1.02275 -0.404937 -0.599999
    endloop
  endfacet
  facet normal -0.904836 0.42576 0
    outer loop
      vertex 1.02275 -0.404937 2.4
      vertex 0.963937 -0.529928 -0.599999
      vertex 0.963937 -0.529928 2.4
    endloop
  endfacet
  facet normal -0.844329 0.535824 0
    outer loop
      vertex 0.889918 -0.646564 -0.599999
      vertex 0.963937 -0.529928 2.4
      vertex 0.963937 -0.529928 -0.599999
    endloop
  endfacet
  facet normal -0.844329 0.535824 0
    outer loop
      vertex 0.963937 -0.529928 2.4
      vertex 0.889918 -0.646564 -0.599999
      vertex 0.889918 -0.646564 2.4
    endloop
  endfacet
  facet normal 0.125309 0.992118 -0
    outer loop
      vertex -0.0690689 -1.09783 -0.599999
      vertex -0.206119 -1.08052 2.4
      vertex -0.0690689 -1.09783 2.4
    endloop
  endfacet
  facet normal 0.125309 0.992118 0
    outer loop
      vertex -0.206119 -1.08052 2.4
      vertex -0.0690689 -1.09783 -0.599999
      vertex -0.206119 -1.08052 -0.599999
    endloop
  endfacet
  facet normal 0.481749 0.876309 -0
    outer loop
      vertex -0.468357 -0.995309 -0.599999
      vertex -0.589409 -0.928761 2.4
      vertex -0.468357 -0.995309 2.4
    endloop
  endfacet
  facet normal 0.481749 0.876309 0
    outer loop
      vertex -0.589409 -0.928761 2.4
      vertex -0.468357 -0.995309 -0.599999
      vertex -0.589409 -0.928761 -0.599999
    endloop
  endfacet
  facet normal 0.248732 0.968572 -0
    outer loop
      vertex -0.206119 -1.08052 -0.599999
      vertex -0.339918 -1.04616 2.4
      vertex -0.206119 -1.08052 2.4
    endloop
  endfacet
  facet normal 0.248732 0.968572 0
    outer loop
      vertex -0.339918 -1.04616 2.4
      vertex -0.206119 -1.08052 -0.599999
      vertex -0.339918 -1.04616 -0.599999
    endloop
  endfacet
  facet normal 0.684548 0.728967 -0
    outer loop
      vertex -0.701166 -0.847564 -0.599999
      vertex -0.801865 -0.753001 2.4
      vertex -0.701166 -0.847564 2.4
    endloop
  endfacet
  facet normal 0.684548 0.728967 0
    outer loop
      vertex -0.801865 -0.753001 2.4
      vertex -0.701166 -0.847564 -0.599999
      vertex -0.801865 -0.753001 -0.599999
    endloop
  endfacet
  facet normal 0.844329 0.535824 0
    outer loop
      vertex -0.889918 -0.646564 2.4
      vertex -0.963937 -0.529928 -0.599999
      vertex -0.963937 -0.529928 2.4
    endloop
  endfacet
  facet normal 0.844329 0.535824 0
    outer loop
      vertex -0.963937 -0.529928 -0.599999
      vertex -0.889918 -0.646564 2.4
      vertex -0.889918 -0.646564 -0.599999
    endloop
  endfacet
  facet normal 0.904836 0.42576 0
    outer loop
      vertex -0.963937 -0.529928 2.4
      vertex -1.02275 -0.404937 -0.599999
      vertex -1.02275 -0.404937 2.4
    endloop
  endfacet
  facet normal 0.904836 0.42576 0
    outer loop
      vertex -1.02275 -0.404937 -0.599999
      vertex -0.963937 -0.529928 2.4
      vertex -0.963937 -0.529928 -0.599999
    endloop
  endfacet
  facet normal 0.98228 0.187417 0
    outer loop
      vertex -1.06544 -0.273559 2.4
      vertex -1.09133 -0.137866 -0.599999
      vertex -1.09133 -0.137866 2.4
    endloop
  endfacet
  facet normal 0.98228 0.187417 0
    outer loop
      vertex -1.09133 -0.137866 -0.599999
      vertex -1.06544 -0.273559 2.4
      vertex -1.06544 -0.273559 -0.599999
    endloop
  endfacet
  facet normal 0.998028 0.0627632 0
    outer loop
      vertex -1.09133 -0.137866 2.4
      vertex -1.1 0 -0.599999
      vertex -1.1 0 2.4
    endloop
  endfacet
  facet normal 0.998028 0.0627632 0
    outer loop
      vertex -1.1 0 -0.599999
      vertex -1.09133 -0.137866 2.4
      vertex -1.09133 -0.137866 -0.599999
    endloop
  endfacet
  facet normal 0.587789 0.809014 -0
    outer loop
      vertex -0.589409 -0.928761 -0.599999
      vertex -0.701166 -0.847564 2.4
      vertex -0.589409 -0.928761 2.4
    endloop
  endfacet
  facet normal 0.587789 0.809014 0
    outer loop
      vertex -0.701166 -0.847564 2.4
      vertex -0.589409 -0.928761 -0.599999
      vertex -0.701166 -0.847564 -0.599999
    endloop
  endfacet
endsolid OpenSCAD_Model
