<?xml version="1.0" standalone="no"?>
<!DOCTYPE svg PUBLIC "-//W3C//DTD SVG 1.1//EN" "http://www.w3.org/Graphics/SVG/1.1/DTD/svg11.dtd">
<svg width="76mm" height="370mm" viewBox="-53 -347 76 370" xmlns="http://www.w3.org/2000/svg" version="1.1">
<title>OpenSCAD Model</title>
<path d="
M -5.10934,-334.858 L -3.70819,-335.413 L -2.24857,-335.787 L -0.753479,-335.976 L 0.753479,-335.976 L 2.24857,-335.787
 L 3.70819,-335.413 L 5.10934,-334.858 L 5.30566,-334.75 L 7.5,-334.75 L 7.5,-341.5 L 7.53941,-342.127
 L 7.65707,-342.743 L 7.8511,-343.341 L 8.11845,-343.909 L 8.45491,-344.439 L 8.85515,-344.923 L 9.31287,-345.353
 L 9.82086,-345.722 L 10.3711,-346.024 L 10.9549,-346.255 L 11.5631,-346.411 L 12.186,-346.49 L -34.686,-346.49
 L -34.0631,-346.411 L -33.4549,-346.255 L -32.8711,-346.024 L -32.3209,-345.722 L -31.8129,-345.353 L -31.3551,-344.923
 L -30.9549,-344.439 L -30.6185,-343.909 L -30.3511,-343.341 L -30.1571,-342.743 L -30.0394,-342.127 L -30.0311,-341.994
 L -29.8116,-341.994 L -29.4379,-341.947 L -29.0729,-341.853 L -28.7227,-341.714 L -28.3925,-341.533 L -28.0877,-341.312
 L -27.8131,-341.054 L -27.5729,-340.763 L -27.3711,-340.445 L -27.2107,-340.104 L -27.0942,-339.746 L -27.0237,-339.376
 L -27,-339 L -27.0237,-338.624 L -27.0942,-338.254 L -27.2107,-337.896 L -27.3711,-337.555 L -27.5729,-337.237
 L -27.8131,-336.946 L -28.0877,-336.688 L -28.3925,-336.467 L -28.7227,-336.286 L -29.0729,-336.147 L -29.4379,-336.053
 L -29.8116,-336.006 L -30,-336.006 L -30,-334.75 L -5.30566,-334.75 z
M -0.0941772,-340.503 L -0.281067,-340.527 L -0.463516,-340.573 L -0.638657,-340.643 L -0.803726,-340.734 L -0.956131,-340.844
 L -1.09344,-340.973 L -1.21352,-341.118 L -1.31445,-341.277 L -1.39465,-341.448 L -1.45287,-341.627 L -1.48816,-341.812
 L -1.5,-342 L -1.48816,-342.188 L -1.45287,-342.373 L -1.39465,-342.552 L -1.31445,-342.723 L -1.21352,-342.882
 L -1.09344,-343.027 L -0.956131,-343.156 L -0.803726,-343.266 L -0.638657,-343.357 L -0.463516,-343.427 L -0.281067,-343.473
 L -0.0941772,-343.497 L 0.0941772,-343.497 L 0.281067,-343.473 L 0.463516,-343.427 L 0.638657,-343.357 L 0.803726,-343.266
 L 0.956131,-343.156 L 1.09344,-343.027 L 1.21352,-342.882 L 1.31445,-342.723 L 1.39465,-342.552 L 1.45287,-342.373
 L 1.48816,-342.188 L 1.5,-342 L 1.48816,-341.812 L 1.45287,-341.627 L 1.39465,-341.448 L 1.31445,-341.277
 L 1.21352,-341.118 L 1.09344,-340.973 L 0.956131,-340.844 L 0.803726,-340.734 L 0.638657,-340.643 L 0.463516,-340.573
 L 0.281067,-340.527 L 0.0941772,-340.503 z
M -15.1884,-336.006 L -15.5621,-336.053 L -15.927,-336.147 L -16.2773,-336.286 L -16.6075,-336.467 L -16.9123,-336.688
 L -17.1869,-336.946 L -17.427,-337.237 L -17.6289,-337.555 L -17.7893,-337.896 L -17.9057,-338.254 L -17.9763,-338.624
 L -18,-339 L -17.9763,-339.376 L -17.9057,-339.746 L -17.7893,-340.104 L -17.6289,-340.445 L -17.427,-340.763
 L -17.1869,-341.054 L -16.9123,-341.312 L -16.6075,-341.533 L -16.2773,-341.714 L -15.927,-341.853 L -15.5621,-341.947
 L -15.1884,-341.994 L -14.8116,-341.994 L -14.4379,-341.947 L -14.0729,-341.853 L -13.7227,-341.714 L -13.3925,-341.533
 L -13.0877,-341.312 L -12.8131,-341.054 L -12.5729,-340.763 L -12.3711,-340.445 L -12.2107,-340.104 L -12.0942,-339.746
 L -12.0237,-339.376 L -12,-339 L -12.0237,-338.624 L -12.0942,-338.254 L -12.2107,-337.896 L -12.3711,-337.555
 L -12.5729,-337.237 L -12.8131,-336.946 L -13.0877,-336.688 L -13.3925,-336.467 L -13.7227,-336.286 L -14.0729,-336.147
 L -14.4379,-336.053 L -14.8116,-336.006 z
M -22.5942,-337.503 L -22.7811,-337.527 L -22.9635,-337.573 L -23.1387,-337.643 L -23.3037,-337.734 L -23.4561,-337.844
 L -23.5934,-337.973 L -23.7135,-338.118 L -23.8145,-338.277 L -23.8947,-338.448 L -23.9529,-338.627 L -23.9882,-338.812
 L -24,-339 L -23.9882,-339.188 L -23.9529,-339.373 L -23.8947,-339.552 L -23.8145,-339.723 L -23.7135,-339.882
 L -23.5934,-340.027 L -23.4561,-340.156 L -23.3037,-340.266 L -23.1387,-340.357 L -22.9635,-340.427 L -22.7811,-340.473
 L -22.5942,-340.497 L -22.4058,-340.497 L -22.2189,-340.473 L -22.0365,-340.427 L -21.8613,-340.357 L -21.6963,-340.266
 L -21.5439,-340.156 L -21.4065,-340.027 L -21.2865,-339.882 L -21.1855,-339.723 L -21.1053,-339.552 L -21.0471,-339.373
 L -21.0118,-339.188 L -21,-339 L -21.0118,-338.812 L -21.0471,-338.627 L -21.1053,-338.448 L -21.1855,-338.277
 L -21.2865,-338.118 L -21.4065,-337.973 L -21.5439,-337.844 L -21.6963,-337.734 L -21.8613,-337.643 L -22.0365,-337.573
 L -22.2189,-337.527 L -22.4058,-337.503 z
M 11.5631,-301.589 L 10.9549,-301.745 L 10.3711,-301.976 L 9.82086,-302.278 L 9.31287,-302.647 L 8.85515,-303.077
 L 8.45491,-303.561 L 8.11845,-304.091 L 7.8511,-304.659 L 7.65707,-305.257 L 7.53941,-305.873 L 7.5,-306.5
 L 7.5,-313.25 L 5.30566,-313.25 L 5.10934,-313.142 L 3.70819,-312.587 L 2.24857,-312.213 L 0.753479,-312.024
 L -0.753479,-312.024 L -2.24857,-312.213 L -3.70819,-312.587 L -5.10934,-313.142 L -5.30566,-313.25 L -30,-313.25
 L -30,-311.994 L -29.8116,-311.994 L -29.4379,-311.947 L -29.0729,-311.853 L -28.7227,-311.714 L -28.3925,-311.533
 L -28.0877,-311.312 L -27.8131,-311.054 L -27.5729,-310.763 L -27.3711,-310.445 L -27.2107,-310.104 L -27.0942,-309.746
 L -27.0237,-309.376 L -27,-309 L -27.0237,-308.624 L -27.0942,-308.254 L -27.2107,-307.896 L -27.3711,-307.555
 L -27.5729,-307.237 L -27.8131,-306.946 L -28.0877,-306.688 L -28.3925,-306.467 L -28.7227,-306.286 L -29.0729,-306.147
 L -29.4379,-306.053 L -29.8116,-306.006 L -30.0311,-306.006 L -30.0394,-305.873 L -30.1571,-305.257 L -30.3511,-304.659
 L -30.6185,-304.091 L -30.9549,-303.561 L -31.3551,-303.077 L -31.8129,-302.647 L -32.3209,-302.278 L -32.8711,-301.976
 L -33.4549,-301.745 L -34.0631,-301.589 L -34.686,-301.51 L 12.186,-301.51 z
M -15.1884,-306.006 L -15.5621,-306.053 L -15.927,-306.147 L -16.2773,-306.286 L -16.6075,-306.467 L -16.9123,-306.688
 L -17.1869,-306.946 L -17.427,-307.237 L -17.6289,-307.555 L -17.7893,-307.896 L -17.9057,-308.254 L -17.9763,-308.624
 L -18,-309 L -17.9763,-309.376 L -17.9057,-309.746 L -17.7893,-310.104 L -17.6289,-310.445 L -17.427,-310.763
 L -17.1869,-311.054 L -16.9123,-311.312 L -16.6075,-311.533 L -16.2773,-311.714 L -15.927,-311.853 L -15.5621,-311.947
 L -15.1884,-311.994 L -14.8116,-311.994 L -14.4379,-311.947 L -14.0729,-311.853 L -13.7227,-311.714 L -13.3925,-311.533
 L -13.0877,-311.312 L -12.8131,-311.054 L -12.5729,-310.763 L -12.3711,-310.445 L -12.2107,-310.104 L -12.0942,-309.746
 L -12.0237,-309.376 L -12,-309 L -12.0237,-308.624 L -12.0942,-308.254 L -12.2107,-307.896 L -12.3711,-307.555
 L -12.5729,-307.237 L -12.8131,-306.946 L -13.0877,-306.688 L -13.3925,-306.467 L -13.7227,-306.286 L -14.0729,-306.147
 L -14.4379,-306.053 L -14.8116,-306.006 z
M -22.5942,-307.503 L -22.7811,-307.527 L -22.9635,-307.573 L -23.1387,-307.643 L -23.3037,-307.734 L -23.4561,-307.844
 L -23.5934,-307.973 L -23.7135,-308.118 L -23.8145,-308.277 L -23.8947,-308.448 L -23.9529,-308.627 L -23.9882,-308.812
 L -24,-309 L -23.9882,-309.188 L -23.9529,-309.373 L -23.8947,-309.552 L -23.8145,-309.723 L -23.7135,-309.882
 L -23.5934,-310.027 L -23.4561,-310.156 L -23.3037,-310.266 L -23.1387,-310.357 L -22.9635,-310.427 L -22.7811,-310.473
 L -22.5942,-310.497 L -22.4058,-310.497 L -22.2189,-310.473 L -22.0365,-310.427 L -21.8613,-310.357 L -21.6963,-310.266
 L -21.5439,-310.156 L -21.4065,-310.027 L -21.2865,-309.882 L -21.1855,-309.723 L -21.1053,-309.552 L -21.0471,-309.373
 L -21.0118,-309.188 L -21,-309 L -21.0118,-308.812 L -21.0471,-308.627 L -21.1053,-308.448 L -21.1855,-308.277
 L -21.2865,-308.118 L -21.4065,-307.973 L -21.5439,-307.844 L -21.6963,-307.734 L -21.8613,-307.643 L -22.0365,-307.573
 L -22.2189,-307.527 L -22.4058,-307.503 z
M -0.0941772,-304.503 L -0.281067,-304.527 L -0.463516,-304.573 L -0.638657,-304.643 L -0.803726,-304.734 L -0.956131,-304.844
 L -1.09344,-304.973 L -1.21352,-305.118 L -1.31445,-305.277 L -1.39465,-305.448 L -1.45287,-305.627 L -1.48816,-305.812
 L -1.5,-306 L -1.48816,-306.188 L -1.45287,-306.373 L -1.39465,-306.552 L -1.31445,-306.723 L -1.21352,-306.882
 L -1.09344,-307.027 L -0.956131,-307.156 L -0.803726,-307.266 L -0.638657,-307.357 L -0.463516,-307.427 L -0.281067,-307.473
 L -0.0941772,-307.497 L 0.0941772,-307.497 L 0.281067,-307.473 L 0.463516,-307.427 L 0.638657,-307.357 L 0.803726,-307.266
 L 0.956131,-307.156 L 1.09344,-307.027 L 1.21352,-306.882 L 1.31445,-306.723 L 1.39465,-306.552 L 1.45287,-306.373
 L 1.48816,-306.188 L 1.5,-306 L 1.48816,-305.812 L 1.45287,-305.627 L 1.39465,-305.448 L 1.31445,-305.277
 L 1.21352,-305.118 L 1.09344,-304.973 L 0.956131,-304.844 L 0.803726,-304.734 L 0.638657,-304.643 L 0.463516,-304.573
 L 0.281067,-304.527 L 0.0941772,-304.503 z
M -5.10934,-280.858 L -3.70819,-281.413 L -2.24857,-281.787 L -0.753479,-281.976 L 0.753479,-281.976 L 2.24857,-281.787
 L 3.70819,-281.413 L 5.10934,-280.858 L 5.30566,-280.75 L 7.5,-280.75 L 7.5,-287.5 L 7.53941,-288.127
 L 7.65707,-288.743 L 7.8511,-289.341 L 8.11845,-289.909 L 8.45491,-290.439 L 8.85515,-290.923 L 9.31287,-291.353
 L 9.82086,-291.722 L 10.3711,-292.024 L 10.9549,-292.255 L 11.5631,-292.411 L 12.186,-292.49 L -34.686,-292.49
 L -34.0631,-292.411 L -33.4549,-292.255 L -32.8711,-292.024 L -32.3209,-291.722 L -31.8129,-291.353 L -31.3551,-290.923
 L -30.9549,-290.439 L -30.6185,-289.909 L -30.3511,-289.341 L -30.1571,-288.743 L -30.0394,-288.127 L -30.0311,-287.994
 L -29.8116,-287.994 L -29.4379,-287.947 L -29.0729,-287.853 L -28.7227,-287.714 L -28.3925,-287.533 L -28.0877,-287.312
 L -27.8131,-287.054 L -27.5729,-286.763 L -27.3711,-286.445 L -27.2107,-286.104 L -27.0942,-285.746 L -27.0237,-285.376
 L -27,-285 L -27.0237,-284.624 L -27.0942,-284.254 L -27.2107,-283.896 L -27.3711,-283.555 L -27.5729,-283.237
 L -27.8131,-282.946 L -28.0877,-282.688 L -28.3925,-282.467 L -28.7227,-282.286 L -29.0729,-282.147 L -29.4379,-282.053
 L -29.8116,-282.006 L -30,-282.006 L -30,-280.75 L -5.30566,-280.75 z
M -0.0941772,-286.503 L -0.281067,-286.527 L -0.463516,-286.573 L -0.638657,-286.643 L -0.803726,-286.734 L -0.956131,-286.844
 L -1.09344,-286.973 L -1.21352,-287.118 L -1.31445,-287.277 L -1.39465,-287.448 L -1.45287,-287.627 L -1.48816,-287.812
 L -1.5,-288 L -1.48816,-288.188 L -1.45287,-288.373 L -1.39465,-288.552 L -1.31445,-288.723 L -1.21352,-288.882
 L -1.09344,-289.027 L -0.956131,-289.156 L -0.803726,-289.266 L -0.638657,-289.357 L -0.463516,-289.427 L -0.281067,-289.473
 L -0.0941772,-289.497 L 0.0941772,-289.497 L 0.281067,-289.473 L 0.463516,-289.427 L 0.638657,-289.357 L 0.803726,-289.266
 L 0.956131,-289.156 L 1.09344,-289.027 L 1.21352,-288.882 L 1.31445,-288.723 L 1.39465,-288.552 L 1.45287,-288.373
 L 1.48816,-288.188 L 1.5,-288 L 1.48816,-287.812 L 1.45287,-287.627 L 1.39465,-287.448 L 1.31445,-287.277
 L 1.21352,-287.118 L 1.09344,-286.973 L 0.956131,-286.844 L 0.803726,-286.734 L 0.638657,-286.643 L 0.463516,-286.573
 L 0.281067,-286.527 L 0.0941772,-286.503 z
M -15.1884,-282.006 L -15.5621,-282.053 L -15.927,-282.147 L -16.2773,-282.286 L -16.6075,-282.467 L -16.9123,-282.688
 L -17.1869,-282.946 L -17.427,-283.237 L -17.6289,-283.555 L -17.7893,-283.896 L -17.9057,-284.254 L -17.9763,-284.624
 L -18,-285 L -17.9763,-285.376 L -17.9057,-285.746 L -17.7893,-286.104 L -17.6289,-286.445 L -17.427,-286.763
 L -17.1869,-287.054 L -16.9123,-287.312 L -16.6075,-287.533 L -16.2773,-287.714 L -15.927,-287.853 L -15.5621,-287.947
 L -15.1884,-287.994 L -14.8116,-287.994 L -14.4379,-287.947 L -14.0729,-287.853 L -13.7227,-287.714 L -13.3925,-287.533
 L -13.0877,-287.312 L -12.8131,-287.054 L -12.5729,-286.763 L -12.3711,-286.445 L -12.2107,-286.104 L -12.0942,-285.746
 L -12.0237,-285.376 L -12,-285 L -12.0237,-284.624 L -12.0942,-284.254 L -12.2107,-283.896 L -12.3711,-283.555
 L -12.5729,-283.237 L -12.8131,-282.946 L -13.0877,-282.688 L -13.3925,-282.467 L -13.7227,-282.286 L -14.0729,-282.147
 L -14.4379,-282.053 L -14.8116,-282.006 z
M -22.5942,-283.503 L -22.7811,-283.527 L -22.9635,-283.573 L -23.1387,-283.643 L -23.3037,-283.734 L -23.4561,-283.844
 L -23.5934,-283.973 L -23.7135,-284.118 L -23.8145,-284.277 L -23.8947,-284.448 L -23.9529,-284.627 L -23.9882,-284.812
 L -24,-285 L -23.9882,-285.188 L -23.9529,-285.373 L -23.8947,-285.552 L -23.8145,-285.723 L -23.7135,-285.882
 L -23.5934,-286.027 L -23.4561,-286.156 L -23.3037,-286.266 L -23.1387,-286.357 L -22.9635,-286.427 L -22.7811,-286.473
 L -22.5942,-286.497 L -22.4058,-286.497 L -22.2189,-286.473 L -22.0365,-286.427 L -21.8613,-286.357 L -21.6963,-286.266
 L -21.5439,-286.156 L -21.4065,-286.027 L -21.2865,-285.882 L -21.1855,-285.723 L -21.1053,-285.552 L -21.0471,-285.373
 L -21.0118,-285.188 L -21,-285 L -21.0118,-284.812 L -21.0471,-284.627 L -21.1053,-284.448 L -21.1855,-284.277
 L -21.2865,-284.118 L -21.4065,-283.973 L -21.5439,-283.844 L -21.6963,-283.734 L -21.8613,-283.643 L -22.0365,-283.573
 L -22.2189,-283.527 L -22.4058,-283.503 z
M 11.5631,-247.589 L 10.9549,-247.745 L 10.3711,-247.976 L 9.82086,-248.278 L 9.31287,-248.647 L 8.85515,-249.077
 L 8.45491,-249.561 L 8.11845,-250.091 L 7.8511,-250.659 L 7.65707,-251.257 L 7.53941,-251.873 L 7.5,-252.5
 L 7.5,-259.25 L 5.30566,-259.25 L 5.10934,-259.142 L 3.70819,-258.587 L 2.24857,-258.213 L 0.753479,-258.024
 L -0.753479,-258.024 L -2.24857,-258.213 L -3.70819,-258.587 L -5.10934,-259.142 L -5.30566,-259.25 L -30,-259.25
 L -30,-257.994 L -29.8116,-257.994 L -29.4379,-257.947 L -29.0729,-257.853 L -28.7227,-257.714 L -28.3925,-257.533
 L -28.0877,-257.312 L -27.8131,-257.054 L -27.5729,-256.763 L -27.3711,-256.445 L -27.2107,-256.104 L -27.0942,-255.746
 L -27.0237,-255.376 L -27,-255 L -27.0237,-254.624 L -27.0942,-254.254 L -27.2107,-253.896 L -27.3711,-253.555
 L -27.5729,-253.237 L -27.8131,-252.946 L -28.0877,-252.688 L -28.3925,-252.467 L -28.7227,-252.286 L -29.0729,-252.147
 L -29.4379,-252.053 L -29.8116,-252.006 L -30.0311,-252.006 L -30.0394,-251.873 L -30.1571,-251.257 L -30.3511,-250.659
 L -30.6185,-250.091 L -30.9549,-249.561 L -31.3551,-249.077 L -31.8129,-248.647 L -32.3209,-248.278 L -32.8711,-247.976
 L -33.4549,-247.745 L -34.0631,-247.589 L -34.686,-247.51 L 12.186,-247.51 z
M -15.1884,-252.006 L -15.5621,-252.053 L -15.927,-252.147 L -16.2773,-252.286 L -16.6075,-252.467 L -16.9123,-252.688
 L -17.1869,-252.946 L -17.427,-253.237 L -17.6289,-253.555 L -17.7893,-253.896 L -17.9057,-254.254 L -17.9763,-254.624
 L -18,-255 L -17.9763,-255.376 L -17.9057,-255.746 L -17.7893,-256.104 L -17.6289,-256.445 L -17.427,-256.763
 L -17.1869,-257.054 L -16.9123,-257.312 L -16.6075,-257.533 L -16.2773,-257.714 L -15.927,-257.853 L -15.5621,-257.947
 L -15.1884,-257.994 L -14.8116,-257.994 L -14.4379,-257.947 L -14.0729,-257.853 L -13.7227,-257.714 L -13.3925,-257.533
 L -13.0877,-257.312 L -12.8131,-257.054 L -12.5729,-256.763 L -12.3711,-256.445 L -12.2107,-256.104 L -12.0942,-255.746
 L -12.0237,-255.376 L -12,-255 L -12.0237,-254.624 L -12.0942,-254.254 L -12.2107,-253.896 L -12.3711,-253.555
 L -12.5729,-253.237 L -12.8131,-252.946 L -13.0877,-252.688 L -13.3925,-252.467 L -13.7227,-252.286 L -14.0729,-252.147
 L -14.4379,-252.053 L -14.8116,-252.006 z
M -22.5942,-253.503 L -22.7811,-253.527 L -22.9635,-253.573 L -23.1387,-253.643 L -23.3037,-253.734 L -23.4561,-253.844
 L -23.5934,-253.973 L -23.7135,-254.118 L -23.8145,-254.277 L -23.8947,-254.448 L -23.9529,-254.627 L -23.9882,-254.812
 L -24,-255 L -23.9882,-255.188 L -23.9529,-255.373 L -23.8947,-255.552 L -23.8145,-255.723 L -23.7135,-255.882
 L -23.5934,-256.027 L -23.4561,-256.156 L -23.3037,-256.266 L -23.1387,-256.357 L -22.9635,-256.427 L -22.7811,-256.473
 L -22.5942,-256.497 L -22.4058,-256.497 L -22.2189,-256.473 L -22.0365,-256.427 L -21.8613,-256.357 L -21.6963,-256.266
 L -21.5439,-256.156 L -21.4065,-256.027 L -21.2865,-255.882 L -21.1855,-255.723 L -21.1053,-255.552 L -21.0471,-255.373
 L -21.0118,-255.188 L -21,-255 L -21.0118,-254.812 L -21.0471,-254.627 L -21.1053,-254.448 L -21.1855,-254.277
 L -21.2865,-254.118 L -21.4065,-253.973 L -21.5439,-253.844 L -21.6963,-253.734 L -21.8613,-253.643 L -22.0365,-253.573
 L -22.2189,-253.527 L -22.4058,-253.503 z
M -0.0941772,-250.503 L -0.281067,-250.527 L -0.463516,-250.573 L -0.638657,-250.643 L -0.803726,-250.734 L -0.956131,-250.844
 L -1.09344,-250.973 L -1.21352,-251.118 L -1.31445,-251.277 L -1.39465,-251.448 L -1.45287,-251.627 L -1.48816,-251.812
 L -1.5,-252 L -1.48816,-252.188 L -1.45287,-252.373 L -1.39465,-252.552 L -1.31445,-252.723 L -1.21352,-252.882
 L -1.09344,-253.027 L -0.956131,-253.156 L -0.803726,-253.266 L -0.638657,-253.357 L -0.463516,-253.427 L -0.281067,-253.473
 L -0.0941772,-253.497 L 0.0941772,-253.497 L 0.281067,-253.473 L 0.463516,-253.427 L 0.638657,-253.357 L 0.803726,-253.266
 L 0.956131,-253.156 L 1.09344,-253.027 L 1.21352,-252.882 L 1.31445,-252.723 L 1.39465,-252.552 L 1.45287,-252.373
 L 1.48816,-252.188 L 1.5,-252 L 1.48816,-251.812 L 1.45287,-251.627 L 1.39465,-251.448 L 1.31445,-251.277
 L 1.21352,-251.118 L 1.09344,-250.973 L 0.956131,-250.844 L 0.803726,-250.734 L 0.638657,-250.643 L 0.463516,-250.573
 L 0.281067,-250.527 L 0.0941772,-250.503 z
M -5.10934,-226.858 L -3.70819,-227.413 L -2.24857,-227.787 L -0.753479,-227.976 L 0.753479,-227.976 L 2.24857,-227.787
 L 3.70819,-227.413 L 5.10934,-226.858 L 5.30566,-226.75 L 7.5,-226.75 L 7.5,-233.5 L 7.53941,-234.127
 L 7.65707,-234.743 L 7.8511,-235.341 L 8.11845,-235.909 L 8.45491,-236.439 L 8.85515,-236.923 L 9.31287,-237.353
 L 9.82086,-237.722 L 10.3711,-238.024 L 10.9549,-238.255 L 11.5631,-238.411 L 12.186,-238.49 L -34.686,-238.49
 L -34.0631,-238.411 L -33.4549,-238.255 L -32.8711,-238.024 L -32.3209,-237.722 L -31.8129,-237.353 L -31.3551,-236.923
 L -30.9549,-236.439 L -30.6185,-235.909 L -30.3511,-235.341 L -30.1571,-234.743 L -30.0394,-234.127 L -30.0311,-233.994
 L -29.8116,-233.994 L -29.4379,-233.947 L -29.0729,-233.853 L -28.7227,-233.714 L -28.3925,-233.533 L -28.0877,-233.312
 L -27.8131,-233.054 L -27.5729,-232.763 L -27.3711,-232.445 L -27.2107,-232.104 L -27.0942,-231.746 L -27.0237,-231.376
 L -27,-231 L -27.0237,-230.624 L -27.0942,-230.254 L -27.2107,-229.896 L -27.3711,-229.555 L -27.5729,-229.237
 L -27.8131,-228.946 L -28.0877,-228.688 L -28.3925,-228.467 L -28.7227,-228.286 L -29.0729,-228.147 L -29.4379,-228.053
 L -29.8116,-228.006 L -30,-228.006 L -30,-226.75 L -5.30566,-226.75 z
M -0.182083,-231.106 L -0.543396,-231.151 L -0.896149,-231.242 L -1.23476,-231.376 L -1.55389,-231.551 L -1.84853,-231.766
 L -2.114,-232.015 L -2.34615,-232.295 L -2.54128,-232.603 L -2.69635,-232.932 L -2.80888,-233.279 L -2.87712,-233.637
 L -2.89999,-234 L -2.87712,-234.363 L -2.80888,-234.721 L -2.69635,-235.068 L -2.54128,-235.397 L -2.34615,-235.705
 L -2.114,-235.985 L -1.84853,-236.234 L -1.55389,-236.449 L -1.23476,-236.624 L -0.896149,-236.758 L -0.543396,-236.849
 L -0.182083,-236.894 L 0.182083,-236.894 L 0.543396,-236.849 L 0.896149,-236.758 L 1.23476,-236.624 L 1.55389,-236.449
 L 1.84853,-236.234 L 2.114,-235.985 L 2.34615,-235.705 L 2.54128,-235.397 L 2.69635,-235.068 L 2.80888,-234.721
 L 2.87712,-234.363 L 2.89999,-234 L 2.87712,-233.637 L 2.80888,-233.279 L 2.69635,-232.932 L 2.54128,-232.603
 L 2.34615,-232.295 L 2.114,-232.015 L 1.84853,-231.766 L 1.55389,-231.551 L 1.23476,-231.376 L 0.896149,-231.242
 L 0.543396,-231.151 L 0.182083,-231.106 z
M -15.1884,-228.006 L -15.5621,-228.053 L -15.927,-228.147 L -16.2773,-228.286 L -16.6075,-228.467 L -16.9123,-228.688
 L -17.1869,-228.946 L -17.427,-229.237 L -17.6289,-229.555 L -17.7893,-229.896 L -17.9057,-230.254 L -17.9763,-230.624
 L -18,-231 L -17.9763,-231.376 L -17.9057,-231.746 L -17.7893,-232.104 L -17.6289,-232.445 L -17.427,-232.763
 L -17.1869,-233.054 L -16.9123,-233.312 L -16.6075,-233.533 L -16.2773,-233.714 L -15.927,-233.853 L -15.5621,-233.947
 L -15.1884,-233.994 L -14.8116,-233.994 L -14.4379,-233.947 L -14.0729,-233.853 L -13.7227,-233.714 L -13.3925,-233.533
 L -13.0877,-233.312 L -12.8131,-233.054 L -12.5729,-232.763 L -12.3711,-232.445 L -12.2107,-232.104 L -12.0942,-231.746
 L -12.0237,-231.376 L -12,-231 L -12.0237,-230.624 L -12.0942,-230.254 L -12.2107,-229.896 L -12.3711,-229.555
 L -12.5729,-229.237 L -12.8131,-228.946 L -13.0877,-228.688 L -13.3925,-228.467 L -13.7227,-228.286 L -14.0729,-228.147
 L -14.4379,-228.053 L -14.8116,-228.006 z
M -22.5942,-229.503 L -22.7811,-229.527 L -22.9635,-229.573 L -23.1387,-229.643 L -23.3037,-229.734 L -23.4561,-229.844
 L -23.5934,-229.973 L -23.7135,-230.118 L -23.8145,-230.277 L -23.8947,-230.448 L -23.9529,-230.627 L -23.9882,-230.812
 L -24,-231 L -23.9882,-231.188 L -23.9529,-231.373 L -23.8947,-231.552 L -23.8145,-231.723 L -23.7135,-231.882
 L -23.5934,-232.027 L -23.4561,-232.156 L -23.3037,-232.266 L -23.1387,-232.357 L -22.9635,-232.427 L -22.7811,-232.473
 L -22.5942,-232.497 L -22.4058,-232.497 L -22.2189,-232.473 L -22.0365,-232.427 L -21.8613,-232.357 L -21.6963,-232.266
 L -21.5439,-232.156 L -21.4065,-232.027 L -21.2865,-231.882 L -21.1855,-231.723 L -21.1053,-231.552 L -21.0471,-231.373
 L -21.0118,-231.188 L -21,-231 L -21.0118,-230.812 L -21.0471,-230.627 L -21.1053,-230.448 L -21.1855,-230.277
 L -21.2865,-230.118 L -21.4065,-229.973 L -21.5439,-229.844 L -21.6963,-229.734 L -21.8613,-229.643 L -22.0365,-229.573
 L -22.2189,-229.527 L -22.4058,-229.503 z
M 11.5631,-193.589 L 10.9549,-193.745 L 10.3711,-193.976 L 9.82086,-194.278 L 9.31287,-194.647 L 8.85515,-195.077
 L 8.45491,-195.561 L 8.11845,-196.091 L 7.8511,-196.659 L 7.65707,-197.257 L 7.53941,-197.873 L 7.5,-198.5
 L 7.5,-205.25 L 5.30566,-205.25 L 5.10934,-205.142 L 3.70819,-204.587 L 2.24857,-204.213 L 0.753479,-204.024
 L -0.753479,-204.024 L -2.24857,-204.213 L -3.70819,-204.587 L -5.10934,-205.142 L -5.30566,-205.25 L -30,-205.25
 L -30,-203.994 L -29.8116,-203.994 L -29.4379,-203.947 L -29.0729,-203.853 L -28.7227,-203.714 L -28.3925,-203.533
 L -28.0877,-203.312 L -27.8131,-203.054 L -27.5729,-202.763 L -27.3711,-202.445 L -27.2107,-202.104 L -27.0942,-201.746
 L -27.0237,-201.376 L -27,-201 L -27.0237,-200.624 L -27.0942,-200.254 L -27.2107,-199.896 L -27.3711,-199.555
 L -27.5729,-199.237 L -27.8131,-198.946 L -28.0877,-198.688 L -28.3925,-198.467 L -28.7227,-198.286 L -29.0729,-198.147
 L -29.4379,-198.053 L -29.8116,-198.006 L -30.0311,-198.006 L -30.0394,-197.873 L -30.1571,-197.257 L -30.3511,-196.659
 L -30.6185,-196.091 L -30.9549,-195.561 L -31.3551,-195.077 L -31.8129,-194.647 L -32.3209,-194.278 L -32.8711,-193.976
 L -33.4549,-193.745 L -34.0631,-193.589 L -34.686,-193.51 L 12.186,-193.51 z
M -15.1884,-198.006 L -15.5621,-198.053 L -15.927,-198.147 L -16.2773,-198.286 L -16.6075,-198.467 L -16.9123,-198.688
 L -17.1869,-198.946 L -17.427,-199.237 L -17.6289,-199.555 L -17.7893,-199.896 L -17.9057,-200.254 L -17.9763,-200.624
 L -18,-201 L -17.9763,-201.376 L -17.9057,-201.746 L -17.7893,-202.104 L -17.6289,-202.445 L -17.427,-202.763
 L -17.1869,-203.054 L -16.9123,-203.312 L -16.6075,-203.533 L -16.2773,-203.714 L -15.927,-203.853 L -15.5621,-203.947
 L -15.1884,-203.994 L -14.8116,-203.994 L -14.4379,-203.947 L -14.0729,-203.853 L -13.7227,-203.714 L -13.3925,-203.533
 L -13.0877,-203.312 L -12.8131,-203.054 L -12.5729,-202.763 L -12.3711,-202.445 L -12.2107,-202.104 L -12.0942,-201.746
 L -12.0237,-201.376 L -12,-201 L -12.0237,-200.624 L -12.0942,-200.254 L -12.2107,-199.896 L -12.3711,-199.555
 L -12.5729,-199.237 L -12.8131,-198.946 L -13.0877,-198.688 L -13.3925,-198.467 L -13.7227,-198.286 L -14.0729,-198.147
 L -14.4379,-198.053 L -14.8116,-198.006 z
M -22.5942,-199.503 L -22.7811,-199.527 L -22.9635,-199.573 L -23.1387,-199.643 L -23.3037,-199.734 L -23.4561,-199.844
 L -23.5934,-199.973 L -23.7135,-200.118 L -23.8145,-200.277 L -23.8947,-200.448 L -23.9529,-200.627 L -23.9882,-200.812
 L -24,-201 L -23.9882,-201.188 L -23.9529,-201.373 L -23.8947,-201.552 L -23.8145,-201.723 L -23.7135,-201.882
 L -23.5934,-202.027 L -23.4561,-202.156 L -23.3037,-202.266 L -23.1387,-202.357 L -22.9635,-202.427 L -22.7811,-202.473
 L -22.5942,-202.497 L -22.4058,-202.497 L -22.2189,-202.473 L -22.0365,-202.427 L -21.8613,-202.357 L -21.6963,-202.266
 L -21.5439,-202.156 L -21.4065,-202.027 L -21.2865,-201.882 L -21.1855,-201.723 L -21.1053,-201.552 L -21.0471,-201.373
 L -21.0118,-201.188 L -21,-201 L -21.0118,-200.812 L -21.0471,-200.627 L -21.1053,-200.448 L -21.1855,-200.277
 L -21.2865,-200.118 L -21.4065,-199.973 L -21.5439,-199.844 L -21.6963,-199.734 L -21.8613,-199.643 L -22.0365,-199.573
 L -22.2189,-199.527 L -22.4058,-199.503 z
M -0.182083,-195.106 L -0.543396,-195.151 L -0.896149,-195.242 L -1.23476,-195.376 L -1.55389,-195.551 L -1.84853,-195.766
 L -2.114,-196.015 L -2.34615,-196.295 L -2.54128,-196.603 L -2.69635,-196.932 L -2.80888,-197.279 L -2.87712,-197.637
 L -2.89999,-198 L -2.87712,-198.363 L -2.80888,-198.721 L -2.69635,-199.068 L -2.54128,-199.397 L -2.34615,-199.705
 L -2.114,-199.985 L -1.84853,-200.234 L -1.55389,-200.449 L -1.23476,-200.624 L -0.896149,-200.758 L -0.543396,-200.849
 L -0.182083,-200.894 L 0.182083,-200.894 L 0.543396,-200.849 L 0.896149,-200.758 L 1.23476,-200.624 L 1.55389,-200.449
 L 1.84853,-200.234 L 2.114,-199.985 L 2.34615,-199.705 L 2.54128,-199.397 L 2.69635,-199.068 L 2.80888,-198.721
 L 2.87712,-198.363 L 2.89999,-198 L 2.87712,-197.637 L 2.80888,-197.279 L 2.69635,-196.932 L 2.54128,-196.603
 L 2.34615,-196.295 L 2.114,-196.015 L 1.84853,-195.766 L 1.55389,-195.551 L 1.23476,-195.376 L 0.896149,-195.242
 L 0.543396,-195.151 L 0.182083,-195.106 z
M 18.4369,-139.589 L 19.0451,-139.745 L 19.6289,-139.976 L 20.1791,-140.278 L 20.6871,-140.647 L 21.1448,-141.077
 L 21.5451,-141.561 L 21.8815,-142.091 L 22.1489,-142.659 L 22.3429,-143.257 L 22.4606,-143.873 L 22.5,-144.5
 L 22.5,-179.5 L 22.4606,-180.127 L 22.3429,-180.743 L 22.1489,-181.341 L 21.8815,-181.909 L 21.5451,-182.439
 L 21.1448,-182.923 L 20.6871,-183.353 L 20.1791,-183.722 L 19.6289,-184.024 L 19.0451,-184.255 L 18.4369,-184.411
 L 17.8139,-184.49 L -47.8139,-184.49 L -48.4369,-184.411 L -49.0451,-184.255 L -49.6289,-184.024 L -50.1791,-183.722
 L -50.6871,-183.353 L -51.1448,-182.923 L -51.5451,-182.439 L -51.8815,-181.909 L -52.1489,-181.341 L -52.3429,-180.743
 L -52.4606,-180.127 L -52.5,-179.5 L -52.5,-144.5 L -52.4606,-143.873 L -52.3429,-143.257 L -52.1489,-142.659
 L -51.8815,-142.091 L -51.5451,-141.561 L -51.1448,-141.077 L -50.6871,-140.647 L -50.1791,-140.278 L -49.6289,-139.976
 L -49.0451,-139.745 L -48.4369,-139.589 L -47.8139,-139.51 L 17.8139,-139.51 z
M -30.1884,-174.006 L -30.5621,-174.053 L -30.927,-174.147 L -31.2773,-174.286 L -31.6075,-174.467 L -31.9123,-174.688
 L -32.1869,-174.946 L -32.427,-175.237 L -32.6289,-175.555 L -32.7893,-175.896 L -32.9057,-176.254 L -32.9763,-176.624
 L -33,-177 L -32.9763,-177.376 L -32.9057,-177.746 L -32.7893,-178.104 L -32.6289,-178.445 L -32.427,-178.763
 L -32.1869,-179.054 L -31.9123,-179.312 L -31.6075,-179.533 L -31.2773,-179.714 L -30.927,-179.853 L -30.5621,-179.947
 L -30.1884,-179.994 L -29.8116,-179.994 L -29.4379,-179.947 L -29.0729,-179.853 L -28.7227,-179.714 L -28.3925,-179.533
 L -28.0877,-179.312 L -27.8131,-179.054 L -27.5729,-178.763 L -27.3711,-178.445 L -27.2107,-178.104 L -27.0942,-177.746
 L -27.0237,-177.376 L -27,-177 L -27.0237,-176.624 L -27.0942,-176.254 L -27.2107,-175.896 L -27.3711,-175.555
 L -27.5729,-175.237 L -27.8131,-174.946 L -28.0877,-174.688 L -28.3925,-174.467 L -28.7227,-174.286 L -29.0729,-174.147
 L -29.4379,-174.053 L -29.8116,-174.006 z
M 14.8116,-174.006 L 14.4379,-174.053 L 14.0729,-174.147 L 13.7227,-174.286 L 13.3925,-174.467 L 13.0877,-174.688
 L 12.8131,-174.946 L 12.5729,-175.237 L 12.3711,-175.555 L 12.2107,-175.896 L 12.0942,-176.254 L 12.0237,-176.624
 L 12,-177 L 12.0237,-177.376 L 12.0942,-177.746 L 12.2107,-178.104 L 12.3711,-178.445 L 12.5729,-178.763
 L 12.8131,-179.054 L 13.0877,-179.312 L 13.3925,-179.533 L 13.7227,-179.714 L 14.0729,-179.853 L 14.4379,-179.947
 L 14.8116,-179.994 L 15.1884,-179.994 L 15.5621,-179.947 L 15.927,-179.853 L 16.2773,-179.714 L 16.6075,-179.533
 L 16.9123,-179.312 L 17.1869,-179.054 L 17.427,-178.763 L 17.6289,-178.445 L 17.7893,-178.104 L 17.9057,-177.746
 L 17.9763,-177.376 L 18,-177 L 17.9763,-176.624 L 17.9057,-176.254 L 17.7893,-175.896 L 17.6289,-175.555
 L 17.427,-175.237 L 17.1869,-174.946 L 16.9123,-174.688 L 16.6075,-174.467 L 16.2773,-174.286 L 15.927,-174.147
 L 15.5621,-174.053 L 15.1884,-174.006 z
M -45.1884,-174.006 L -45.5621,-174.053 L -45.927,-174.147 L -46.2773,-174.286 L -46.6075,-174.467 L -46.9123,-174.688
 L -47.1869,-174.946 L -47.427,-175.237 L -47.6289,-175.555 L -47.7893,-175.896 L -47.9057,-176.254 L -47.9763,-176.624
 L -48,-177 L -47.9763,-177.376 L -47.9057,-177.746 L -47.7893,-178.104 L -47.6289,-178.445 L -47.427,-178.763
 L -47.1869,-179.054 L -46.9123,-179.312 L -46.6075,-179.533 L -46.2773,-179.714 L -45.927,-179.853 L -45.5621,-179.947
 L -45.1884,-179.994 L -44.8116,-179.994 L -44.4379,-179.947 L -44.0729,-179.853 L -43.7227,-179.714 L -43.3925,-179.533
 L -43.0877,-179.312 L -42.8131,-179.054 L -42.5729,-178.763 L -42.3711,-178.445 L -42.2107,-178.104 L -42.0942,-177.746
 L -42.0237,-177.376 L -42,-177 L -42.0237,-176.624 L -42.0942,-176.254 L -42.2107,-175.896 L -42.3711,-175.555
 L -42.5729,-175.237 L -42.8131,-174.946 L -43.0877,-174.688 L -43.3925,-174.467 L -43.7227,-174.286 L -44.0729,-174.147
 L -44.4379,-174.053 L -44.8116,-174.006 z
M -15.1884,-174.006 L -15.5621,-174.053 L -15.927,-174.147 L -16.2773,-174.286 L -16.6075,-174.467 L -16.9123,-174.688
 L -17.1869,-174.946 L -17.427,-175.237 L -17.6289,-175.555 L -17.7893,-175.896 L -17.9057,-176.254 L -17.9763,-176.624
 L -18,-177 L -17.9763,-177.376 L -17.9057,-177.746 L -17.7893,-178.104 L -17.6289,-178.445 L -17.427,-178.763
 L -17.1869,-179.054 L -16.9123,-179.312 L -16.6075,-179.533 L -16.2773,-179.714 L -15.927,-179.853 L -15.5621,-179.947
 L -15.1884,-179.994 L -14.8116,-179.994 L -14.4379,-179.947 L -14.0729,-179.853 L -13.7227,-179.714 L -13.3925,-179.533
 L -13.0877,-179.312 L -12.8131,-179.054 L -12.5729,-178.763 L -12.3711,-178.445 L -12.2107,-178.104 L -12.0942,-177.746
 L -12.0237,-177.376 L -12,-177 L -12.0237,-176.624 L -12.0942,-176.254 L -12.2107,-175.896 L -12.3711,-175.555
 L -12.5729,-175.237 L -12.8131,-174.946 L -13.0877,-174.688 L -13.3925,-174.467 L -13.7227,-174.286 L -14.0729,-174.147
 L -14.4379,-174.053 L -14.8116,-174.006 z
M -37.5942,-175.503 L -37.7811,-175.527 L -37.9635,-175.573 L -38.1387,-175.643 L -38.3037,-175.734 L -38.4561,-175.844
 L -38.5934,-175.973 L -38.7135,-176.118 L -38.8145,-176.277 L -38.8947,-176.448 L -38.9529,-176.627 L -38.9882,-176.812
 L -39,-177 L -38.9882,-177.188 L -38.9529,-177.373 L -38.8947,-177.552 L -38.8145,-177.723 L -38.7135,-177.882
 L -38.5934,-178.027 L -38.4561,-178.156 L -38.3037,-178.266 L -38.1387,-178.357 L -37.9635,-178.427 L -37.7811,-178.473
 L -37.5942,-178.497 L -37.4058,-178.497 L -37.2189,-178.473 L -37.0365,-178.427 L -36.8613,-178.357 L -36.6963,-178.266
 L -36.5439,-178.156 L -36.4065,-178.027 L -36.2865,-177.882 L -36.1855,-177.723 L -36.1053,-177.552 L -36.0471,-177.373
 L -36.0118,-177.188 L -36,-177 L -36.0118,-176.812 L -36.0471,-176.627 L -36.1053,-176.448 L -36.1855,-176.277
 L -36.2865,-176.118 L -36.4065,-175.973 L -36.5439,-175.844 L -36.6963,-175.734 L -36.8613,-175.643 L -37.0365,-175.573
 L -37.2189,-175.527 L -37.4058,-175.503 z
M -22.5942,-175.503 L -22.7811,-175.527 L -22.9635,-175.573 L -23.1387,-175.643 L -23.3037,-175.734 L -23.4561,-175.844
 L -23.5934,-175.973 L -23.7135,-176.118 L -23.8145,-176.277 L -23.8947,-176.448 L -23.9529,-176.627 L -23.9882,-176.812
 L -24,-177 L -23.9882,-177.188 L -23.9529,-177.373 L -23.8947,-177.552 L -23.8145,-177.723 L -23.7135,-177.882
 L -23.5934,-178.027 L -23.4561,-178.156 L -23.3037,-178.266 L -23.1387,-178.357 L -22.9635,-178.427 L -22.7811,-178.473
 L -22.5942,-178.497 L -22.4058,-178.497 L -22.2189,-178.473 L -22.0365,-178.427 L -21.8613,-178.357 L -21.6963,-178.266
 L -21.5439,-178.156 L -21.4065,-178.027 L -21.2865,-177.882 L -21.1855,-177.723 L -21.1053,-177.552 L -21.0471,-177.373
 L -21.0118,-177.188 L -21,-177 L -21.0118,-176.812 L -21.0471,-176.627 L -21.1053,-176.448 L -21.1855,-176.277
 L -21.2865,-176.118 L -21.4065,-175.973 L -21.5439,-175.844 L -21.6963,-175.734 L -21.8613,-175.643 L -22.0365,-175.573
 L -22.2189,-175.527 L -22.4058,-175.503 z
M -0.753479,-150.024 L -2.24857,-150.213 L -3.70819,-150.587 L -5.10934,-151.142 L -5.30566,-151.25 L -41.75,-151.25
 L -41.75,-172.75 L -5.30566,-172.75 L -5.10934,-172.858 L -3.70819,-173.413 L -2.24857,-173.787 L -0.753479,-173.976
 L 0.753479,-173.976 L 2.24857,-173.787 L 3.70819,-173.413 L 5.10934,-172.858 L 5.30566,-172.75 L 19.75,-172.75
 L 19.75,-151.25 L 5.30566,-151.25 L 5.10934,-151.142 L 3.70819,-150.587 L 2.24857,-150.213 L 0.753479,-150.024
 z
M -45.0942,-168.003 L -45.2811,-168.027 L -45.4635,-168.073 L -45.6387,-168.143 L -45.8037,-168.234 L -45.9561,-168.344
 L -46.0934,-168.473 L -46.2135,-168.618 L -46.3145,-168.777 L -46.3947,-168.948 L -46.4529,-169.127 L -46.4882,-169.312
 L -46.5,-169.5 L -46.4882,-169.688 L -46.4529,-169.873 L -46.3947,-170.052 L -46.3145,-170.223 L -46.2135,-170.382
 L -46.0934,-170.527 L -45.9561,-170.656 L -45.8037,-170.766 L -45.6387,-170.857 L -45.4635,-170.927 L -45.2811,-170.973
 L -45.0942,-170.997 L -44.9058,-170.997 L -44.7189,-170.973 L -44.5365,-170.927 L -44.3613,-170.857 L -44.1963,-170.766
 L -44.0439,-170.656 L -43.9065,-170.527 L -43.7865,-170.382 L -43.6855,-170.223 L -43.6053,-170.052 L -43.5471,-169.873
 L -43.5118,-169.688 L -43.5,-169.5 L -43.5118,-169.312 L -43.5471,-169.127 L -43.6053,-168.948 L -43.6855,-168.777
 L -43.7865,-168.618 L -43.9065,-168.473 L -44.0439,-168.344 L -44.1963,-168.234 L -44.3613,-168.143 L -44.5365,-168.073
 L -44.7189,-168.027 L -44.9058,-168.003 z
M -45.1884,-159.006 L -45.5621,-159.053 L -45.927,-159.147 L -46.2773,-159.286 L -46.6075,-159.467 L -46.9123,-159.688
 L -47.1869,-159.946 L -47.427,-160.237 L -47.6289,-160.555 L -47.7893,-160.896 L -47.9057,-161.254 L -47.9763,-161.624
 L -48,-162 L -47.9763,-162.376 L -47.9057,-162.746 L -47.7893,-163.104 L -47.6289,-163.445 L -47.427,-163.763
 L -47.1869,-164.054 L -46.9123,-164.312 L -46.6075,-164.533 L -46.2773,-164.714 L -45.927,-164.853 L -45.5621,-164.947
 L -45.1884,-164.994 L -44.8116,-164.994 L -44.4379,-164.947 L -44.0729,-164.853 L -43.7227,-164.714 L -43.3925,-164.533
 L -43.0877,-164.312 L -42.8131,-164.054 L -42.5729,-163.763 L -42.3711,-163.445 L -42.2107,-163.104 L -42.0942,-162.746
 L -42.0237,-162.376 L -42,-162 L -42.0237,-161.624 L -42.0942,-161.254 L -42.2107,-160.896 L -42.3711,-160.555
 L -42.5729,-160.237 L -42.8131,-159.946 L -43.0877,-159.688 L -43.3925,-159.467 L -43.7227,-159.286 L -44.0729,-159.147
 L -44.4379,-159.053 L -44.8116,-159.006 z
M -45.0942,-153.003 L -45.2811,-153.027 L -45.4635,-153.073 L -45.6387,-153.143 L -45.8037,-153.234 L -45.9561,-153.344
 L -46.0934,-153.473 L -46.2135,-153.618 L -46.3145,-153.777 L -46.3947,-153.948 L -46.4529,-154.127 L -46.4882,-154.312
 L -46.5,-154.5 L -46.4882,-154.688 L -46.4529,-154.873 L -46.3947,-155.052 L -46.3145,-155.223 L -46.2135,-155.382
 L -46.0934,-155.527 L -45.9561,-155.656 L -45.8037,-155.766 L -45.6387,-155.857 L -45.4635,-155.927 L -45.2811,-155.973
 L -45.0942,-155.997 L -44.9058,-155.997 L -44.7189,-155.973 L -44.5365,-155.927 L -44.3613,-155.857 L -44.1963,-155.766
 L -44.0439,-155.656 L -43.9065,-155.527 L -43.7865,-155.382 L -43.6855,-155.223 L -43.6053,-155.052 L -43.5471,-154.873
 L -43.5118,-154.688 L -43.5,-154.5 L -43.5118,-154.312 L -43.5471,-154.127 L -43.6053,-153.948 L -43.6855,-153.777
 L -43.7865,-153.618 L -43.9065,-153.473 L -44.0439,-153.344 L -44.1963,-153.234 L -44.3613,-153.143 L -44.5365,-153.073
 L -44.7189,-153.027 L -44.9058,-153.003 z
M -45.1884,-144.006 L -45.5621,-144.053 L -45.927,-144.147 L -46.2773,-144.286 L -46.6075,-144.467 L -46.9123,-144.688
 L -47.1869,-144.946 L -47.427,-145.237 L -47.6289,-145.555 L -47.7893,-145.896 L -47.9057,-146.254 L -47.9763,-146.624
 L -48,-147 L -47.9763,-147.376 L -47.9057,-147.746 L -47.7893,-148.104 L -47.6289,-148.445 L -47.427,-148.763
 L -47.1869,-149.054 L -46.9123,-149.312 L -46.6075,-149.533 L -46.2773,-149.714 L -45.927,-149.853 L -45.5621,-149.947
 L -45.1884,-149.994 L -44.8116,-149.994 L -44.4379,-149.947 L -44.0729,-149.853 L -43.7227,-149.714 L -43.3925,-149.533
 L -43.0877,-149.312 L -42.8131,-149.054 L -42.5729,-148.763 L -42.3711,-148.445 L -42.2107,-148.104 L -42.0942,-147.746
 L -42.0237,-147.376 L -42,-147 L -42.0237,-146.624 L -42.0942,-146.254 L -42.2107,-145.896 L -42.3711,-145.555
 L -42.5729,-145.237 L -42.8131,-144.946 L -43.0877,-144.688 L -43.3925,-144.467 L -43.7227,-144.286 L -44.0729,-144.147
 L -44.4379,-144.053 L -44.8116,-144.006 z
M -15.1884,-144.006 L -15.5621,-144.053 L -15.927,-144.147 L -16.2773,-144.286 L -16.6075,-144.467 L -16.9123,-144.688
 L -17.1869,-144.946 L -17.427,-145.237 L -17.6289,-145.555 L -17.7893,-145.896 L -17.9057,-146.254 L -17.9763,-146.624
 L -18,-147 L -17.9763,-147.376 L -17.9057,-147.746 L -17.7893,-148.104 L -17.6289,-148.445 L -17.427,-148.763
 L -17.1869,-149.054 L -16.9123,-149.312 L -16.6075,-149.533 L -16.2773,-149.714 L -15.927,-149.853 L -15.5621,-149.947
 L -15.1884,-149.994 L -14.8116,-149.994 L -14.4379,-149.947 L -14.0729,-149.853 L -13.7227,-149.714 L -13.3925,-149.533
 L -13.0877,-149.312 L -12.8131,-149.054 L -12.5729,-148.763 L -12.3711,-148.445 L -12.2107,-148.104 L -12.0942,-147.746
 L -12.0237,-147.376 L -12,-147 L -12.0237,-146.624 L -12.0942,-146.254 L -12.2107,-145.896 L -12.3711,-145.555
 L -12.5729,-145.237 L -12.8131,-144.946 L -13.0877,-144.688 L -13.3925,-144.467 L -13.7227,-144.286 L -14.0729,-144.147
 L -14.4379,-144.053 L -14.8116,-144.006 z
M -30.1884,-144.006 L -30.5621,-144.053 L -30.927,-144.147 L -31.2773,-144.286 L -31.6075,-144.467 L -31.9123,-144.688
 L -32.1869,-144.946 L -32.427,-145.237 L -32.6289,-145.555 L -32.7893,-145.896 L -32.9057,-146.254 L -32.9763,-146.624
 L -33,-147 L -32.9763,-147.376 L -32.9057,-147.746 L -32.7893,-148.104 L -32.6289,-148.445 L -32.427,-148.763
 L -32.1869,-149.054 L -31.9123,-149.312 L -31.6075,-149.533 L -31.2773,-149.714 L -30.927,-149.853 L -30.5621,-149.947
 L -30.1884,-149.994 L -29.8116,-149.994 L -29.4379,-149.947 L -29.0729,-149.853 L -28.7227,-149.714 L -28.3925,-149.533
 L -28.0877,-149.312 L -27.8131,-149.054 L -27.5729,-148.763 L -27.3711,-148.445 L -27.2107,-148.104 L -27.0942,-147.746
 L -27.0237,-147.376 L -27,-147 L -27.0237,-146.624 L -27.0942,-146.254 L -27.2107,-145.896 L -27.3711,-145.555
 L -27.5729,-145.237 L -27.8131,-144.946 L -28.0877,-144.688 L -28.3925,-144.467 L -28.7227,-144.286 L -29.0729,-144.147
 L -29.4379,-144.053 L -29.8116,-144.006 z
M 14.8116,-144.006 L 14.4379,-144.053 L 14.0729,-144.147 L 13.7227,-144.286 L 13.3925,-144.467 L 13.0877,-144.688
 L 12.8131,-144.946 L 12.5729,-145.237 L 12.3711,-145.555 L 12.2107,-145.896 L 12.0942,-146.254 L 12.0237,-146.624
 L 12,-147 L 12.0237,-147.376 L 12.0942,-147.746 L 12.2107,-148.104 L 12.3711,-148.445 L 12.5729,-148.763
 L 12.8131,-149.054 L 13.0877,-149.312 L 13.3925,-149.533 L 13.7227,-149.714 L 14.0729,-149.853 L 14.4379,-149.947
 L 14.8116,-149.994 L 15.1884,-149.994 L 15.5621,-149.947 L 15.927,-149.853 L 16.2773,-149.714 L 16.6075,-149.533
 L 16.9123,-149.312 L 17.1869,-149.054 L 17.427,-148.763 L 17.6289,-148.445 L 17.7893,-148.104 L 17.9057,-147.746
 L 17.9763,-147.376 L 18,-147 L 17.9763,-146.624 L 17.9057,-146.254 L 17.7893,-145.896 L 17.6289,-145.555
 L 17.427,-145.237 L 17.1869,-144.946 L 16.9123,-144.688 L 16.6075,-144.467 L 16.2773,-144.286 L 15.927,-144.147
 L 15.5621,-144.053 L 15.1884,-144.006 z
M -37.5942,-145.503 L -37.7811,-145.527 L -37.9635,-145.573 L -38.1387,-145.643 L -38.3037,-145.734 L -38.4561,-145.844
 L -38.5934,-145.973 L -38.7135,-146.118 L -38.8145,-146.277 L -38.8947,-146.448 L -38.9529,-146.627 L -38.9882,-146.812
 L -39,-147 L -38.9882,-147.188 L -38.9529,-147.373 L -38.8947,-147.552 L -38.8145,-147.723 L -38.7135,-147.882
 L -38.5934,-148.027 L -38.4561,-148.156 L -38.3037,-148.266 L -38.1387,-148.357 L -37.9635,-148.427 L -37.7811,-148.473
 L -37.5942,-148.497 L -37.4058,-148.497 L -37.2189,-148.473 L -37.0365,-148.427 L -36.8613,-148.357 L -36.6963,-148.266
 L -36.5439,-148.156 L -36.4065,-148.027 L -36.2865,-147.882 L -36.1855,-147.723 L -36.1053,-147.552 L -36.0471,-147.373
 L -36.0118,-147.188 L -36,-147 L -36.0118,-146.812 L -36.0471,-146.627 L -36.1053,-146.448 L -36.1855,-146.277
 L -36.2865,-146.118 L -36.4065,-145.973 L -36.5439,-145.844 L -36.6963,-145.734 L -36.8613,-145.643 L -37.0365,-145.573
 L -37.2189,-145.527 L -37.4058,-145.503 z
M -22.5942,-145.503 L -22.7811,-145.527 L -22.9635,-145.573 L -23.1387,-145.643 L -23.3037,-145.734 L -23.4561,-145.844
 L -23.5934,-145.973 L -23.7135,-146.118 L -23.8145,-146.277 L -23.8947,-146.448 L -23.9529,-146.627 L -23.9882,-146.812
 L -24,-147 L -23.9882,-147.188 L -23.9529,-147.373 L -23.8947,-147.552 L -23.8145,-147.723 L -23.7135,-147.882
 L -23.5934,-148.027 L -23.4561,-148.156 L -23.3037,-148.266 L -23.1387,-148.357 L -22.9635,-148.427 L -22.7811,-148.473
 L -22.5942,-148.497 L -22.4058,-148.497 L -22.2189,-148.473 L -22.0365,-148.427 L -21.8613,-148.357 L -21.6963,-148.266
 L -21.5439,-148.156 L -21.4065,-148.027 L -21.2865,-147.882 L -21.1855,-147.723 L -21.1053,-147.552 L -21.0471,-147.373
 L -21.0118,-147.188 L -21,-147 L -21.0118,-146.812 L -21.0471,-146.627 L -21.1053,-146.448 L -21.1855,-146.277
 L -21.2865,-146.118 L -21.4065,-145.973 L -21.5439,-145.844 L -21.6963,-145.734 L -21.8613,-145.643 L -22.0365,-145.573
 L -22.2189,-145.527 L -22.4058,-145.503 z
M 18.4369,-85.5886 L 19.0451,-85.7447 L 19.6289,-85.9759 L 20.1791,-86.2784 L 20.6871,-86.6474 L 21.1448,-87.0773
 L 21.5451,-87.5611 L 21.8815,-88.0912 L 22.1489,-88.6594 L 22.3429,-89.2566 L 22.4606,-89.8733 L 22.5,-90.5
 L 22.5,-125.5 L 22.4606,-126.127 L 22.3429,-126.743 L 22.1489,-127.341 L 21.8815,-127.909 L 21.5451,-128.439
 L 21.1448,-128.923 L 20.6871,-129.353 L 20.1791,-129.722 L 19.6289,-130.024 L 19.0451,-130.255 L 18.4369,-130.411
 L 17.8139,-130.49 L -47.8139,-130.49 L -48.4369,-130.411 L -49.0451,-130.255 L -49.6289,-130.024 L -50.1791,-129.722
 L -50.6871,-129.353 L -51.1448,-128.923 L -51.5451,-128.439 L -51.8815,-127.909 L -52.1489,-127.341 L -52.3429,-126.743
 L -52.4606,-126.127 L -52.5,-125.5 L -52.5,-90.5 L -52.4606,-89.8733 L -52.3429,-89.2566 L -52.1489,-88.6594
 L -51.8815,-88.0912 L -51.5451,-87.5611 L -51.1448,-87.0773 L -50.6871,-86.6474 L -50.1791,-86.2784 L -49.6289,-85.9759
 L -49.0451,-85.7447 L -48.4369,-85.5886 L -47.8139,-85.5099 L 17.8139,-85.5099 z
M -30.1884,-120.006 L -30.5621,-120.053 L -30.927,-120.147 L -31.2773,-120.286 L -31.6075,-120.467 L -31.9123,-120.688
 L -32.1869,-120.946 L -32.427,-121.237 L -32.6289,-121.555 L -32.7893,-121.896 L -32.9057,-122.254 L -32.9763,-122.624
 L -33,-123 L -32.9763,-123.376 L -32.9057,-123.746 L -32.7893,-124.104 L -32.6289,-124.445 L -32.427,-124.763
 L -32.1869,-125.054 L -31.9123,-125.312 L -31.6075,-125.533 L -31.2773,-125.714 L -30.927,-125.853 L -30.5621,-125.947
 L -30.1884,-125.994 L -29.8116,-125.994 L -29.4379,-125.947 L -29.0729,-125.853 L -28.7227,-125.714 L -28.3925,-125.533
 L -28.0877,-125.312 L -27.8131,-125.054 L -27.5729,-124.763 L -27.3711,-124.445 L -27.2107,-124.104 L -27.0942,-123.746
 L -27.0237,-123.376 L -27,-123 L -27.0237,-122.624 L -27.0942,-122.254 L -27.2107,-121.896 L -27.3711,-121.555
 L -27.5729,-121.237 L -27.8131,-120.946 L -28.0877,-120.688 L -28.3925,-120.467 L -28.7227,-120.286 L -29.0729,-120.147
 L -29.4379,-120.053 L -29.8116,-120.006 z
M 14.8116,-120.006 L 14.4379,-120.053 L 14.0729,-120.147 L 13.7227,-120.286 L 13.3925,-120.467 L 13.0877,-120.688
 L 12.8131,-120.946 L 12.5729,-121.237 L 12.3711,-121.555 L 12.2107,-121.896 L 12.0942,-122.254 L 12.0237,-122.624
 L 12,-123 L 12.0237,-123.376 L 12.0942,-123.746 L 12.2107,-124.104 L 12.3711,-124.445 L 12.5729,-124.763
 L 12.8131,-125.054 L 13.0877,-125.312 L 13.3925,-125.533 L 13.7227,-125.714 L 14.0729,-125.853 L 14.4379,-125.947
 L 14.8116,-125.994 L 15.1884,-125.994 L 15.5621,-125.947 L 15.927,-125.853 L 16.2773,-125.714 L 16.6075,-125.533
 L 16.9123,-125.312 L 17.1869,-125.054 L 17.427,-124.763 L 17.6289,-124.445 L 17.7893,-124.104 L 17.9057,-123.746
 L 17.9763,-123.376 L 18,-123 L 17.9763,-122.624 L 17.9057,-122.254 L 17.7893,-121.896 L 17.6289,-121.555
 L 17.427,-121.237 L 17.1869,-120.946 L 16.9123,-120.688 L 16.6075,-120.467 L 16.2773,-120.286 L 15.927,-120.147
 L 15.5621,-120.053 L 15.1884,-120.006 z
M -45.1884,-120.006 L -45.5621,-120.053 L -45.927,-120.147 L -46.2773,-120.286 L -46.6075,-120.467 L -46.9123,-120.688
 L -47.1869,-120.946 L -47.427,-121.237 L -47.6289,-121.555 L -47.7893,-121.896 L -47.9057,-122.254 L -47.9763,-122.624
 L -48,-123 L -47.9763,-123.376 L -47.9057,-123.746 L -47.7893,-124.104 L -47.6289,-124.445 L -47.427,-124.763
 L -47.1869,-125.054 L -46.9123,-125.312 L -46.6075,-125.533 L -46.2773,-125.714 L -45.927,-125.853 L -45.5621,-125.947
 L -45.1884,-125.994 L -44.8116,-125.994 L -44.4379,-125.947 L -44.0729,-125.853 L -43.7227,-125.714 L -43.3925,-125.533
 L -43.0877,-125.312 L -42.8131,-125.054 L -42.5729,-124.763 L -42.3711,-124.445 L -42.2107,-124.104 L -42.0942,-123.746
 L -42.0237,-123.376 L -42,-123 L -42.0237,-122.624 L -42.0942,-122.254 L -42.2107,-121.896 L -42.3711,-121.555
 L -42.5729,-121.237 L -42.8131,-120.946 L -43.0877,-120.688 L -43.3925,-120.467 L -43.7227,-120.286 L -44.0729,-120.147
 L -44.4379,-120.053 L -44.8116,-120.006 z
M -15.1884,-120.006 L -15.5621,-120.053 L -15.927,-120.147 L -16.2773,-120.286 L -16.6075,-120.467 L -16.9123,-120.688
 L -17.1869,-120.946 L -17.427,-121.237 L -17.6289,-121.555 L -17.7893,-121.896 L -17.9057,-122.254 L -17.9763,-122.624
 L -18,-123 L -17.9763,-123.376 L -17.9057,-123.746 L -17.7893,-124.104 L -17.6289,-124.445 L -17.427,-124.763
 L -17.1869,-125.054 L -16.9123,-125.312 L -16.6075,-125.533 L -16.2773,-125.714 L -15.927,-125.853 L -15.5621,-125.947
 L -15.1884,-125.994 L -14.8116,-125.994 L -14.4379,-125.947 L -14.0729,-125.853 L -13.7227,-125.714 L -13.3925,-125.533
 L -13.0877,-125.312 L -12.8131,-125.054 L -12.5729,-124.763 L -12.3711,-124.445 L -12.2107,-124.104 L -12.0942,-123.746
 L -12.0237,-123.376 L -12,-123 L -12.0237,-122.624 L -12.0942,-122.254 L -12.2107,-121.896 L -12.3711,-121.555
 L -12.5729,-121.237 L -12.8131,-120.946 L -13.0877,-120.688 L -13.3925,-120.467 L -13.7227,-120.286 L -14.0729,-120.147
 L -14.4379,-120.053 L -14.8116,-120.006 z
M -37.5942,-121.503 L -37.7811,-121.527 L -37.9635,-121.573 L -38.1387,-121.643 L -38.3037,-121.734 L -38.4561,-121.844
 L -38.5934,-121.973 L -38.7135,-122.118 L -38.8145,-122.277 L -38.8947,-122.448 L -38.9529,-122.627 L -38.9882,-122.812
 L -39,-123 L -38.9882,-123.188 L -38.9529,-123.373 L -38.8947,-123.552 L -38.8145,-123.723 L -38.7135,-123.882
 L -38.5934,-124.027 L -38.4561,-124.156 L -38.3037,-124.266 L -38.1387,-124.357 L -37.9635,-124.427 L -37.7811,-124.473
 L -37.5942,-124.497 L -37.4058,-124.497 L -37.2189,-124.473 L -37.0365,-124.427 L -36.8613,-124.357 L -36.6963,-124.266
 L -36.5439,-124.156 L -36.4065,-124.027 L -36.2865,-123.882 L -36.1855,-123.723 L -36.1053,-123.552 L -36.0471,-123.373
 L -36.0118,-123.188 L -36,-123 L -36.0118,-122.812 L -36.0471,-122.627 L -36.1053,-122.448 L -36.1855,-122.277
 L -36.2865,-122.118 L -36.4065,-121.973 L -36.5439,-121.844 L -36.6963,-121.734 L -36.8613,-121.643 L -37.0365,-121.573
 L -37.2189,-121.527 L -37.4058,-121.503 z
M -22.5942,-121.503 L -22.7811,-121.527 L -22.9635,-121.573 L -23.1387,-121.643 L -23.3037,-121.734 L -23.4561,-121.844
 L -23.5934,-121.973 L -23.7135,-122.118 L -23.8145,-122.277 L -23.8947,-122.448 L -23.9529,-122.627 L -23.9882,-122.812
 L -24,-123 L -23.9882,-123.188 L -23.9529,-123.373 L -23.8947,-123.552 L -23.8145,-123.723 L -23.7135,-123.882
 L -23.5934,-124.027 L -23.4561,-124.156 L -23.3037,-124.266 L -23.1387,-124.357 L -22.9635,-124.427 L -22.7811,-124.473
 L -22.5942,-124.497 L -22.4058,-124.497 L -22.2189,-124.473 L -22.0365,-124.427 L -21.8613,-124.357 L -21.6963,-124.266
 L -21.5439,-124.156 L -21.4065,-124.027 L -21.2865,-123.882 L -21.1855,-123.723 L -21.1053,-123.552 L -21.0471,-123.373
 L -21.0118,-123.188 L -21,-123 L -21.0118,-122.812 L -21.0471,-122.627 L -21.1053,-122.448 L -21.1855,-122.277
 L -21.2865,-122.118 L -21.4065,-121.973 L -21.5439,-121.844 L -21.6963,-121.734 L -21.8613,-121.643 L -22.0365,-121.573
 L -22.2189,-121.527 L -22.4058,-121.503 z
M -0.753479,-96.0237 L -2.24857,-96.2126 L -3.70819,-96.5873 L -5.10934,-97.1421 L -5.30566,-97.25 L -41.75,-97.25
 L -41.75,-118.75 L -5.30566,-118.75 L -5.10934,-118.858 L -3.70819,-119.413 L -2.24857,-119.787 L -0.753479,-119.976
 L 0.753479,-119.976 L 2.24857,-119.787 L 3.70819,-119.413 L 5.10934,-118.858 L 5.30566,-118.75 L 19.75,-118.75
 L 19.75,-97.25 L 5.30566,-97.25 L 5.10934,-97.1421 L 3.70819,-96.5873 L 2.24857,-96.2126 L 0.753479,-96.0237
 z
M -45.0942,-114.003 L -45.2811,-114.027 L -45.4635,-114.073 L -45.6387,-114.143 L -45.8037,-114.234 L -45.9561,-114.344
 L -46.0934,-114.473 L -46.2135,-114.618 L -46.3145,-114.777 L -46.3947,-114.948 L -46.4529,-115.127 L -46.4882,-115.312
 L -46.5,-115.5 L -46.4882,-115.688 L -46.4529,-115.873 L -46.3947,-116.052 L -46.3145,-116.223 L -46.2135,-116.382
 L -46.0934,-116.527 L -45.9561,-116.656 L -45.8037,-116.766 L -45.6387,-116.857 L -45.4635,-116.927 L -45.2811,-116.973
 L -45.0942,-116.997 L -44.9058,-116.997 L -44.7189,-116.973 L -44.5365,-116.927 L -44.3613,-116.857 L -44.1963,-116.766
 L -44.0439,-116.656 L -43.9065,-116.527 L -43.7865,-116.382 L -43.6855,-116.223 L -43.6053,-116.052 L -43.5471,-115.873
 L -43.5118,-115.688 L -43.5,-115.5 L -43.5118,-115.312 L -43.5471,-115.127 L -43.6053,-114.948 L -43.6855,-114.777
 L -43.7865,-114.618 L -43.9065,-114.473 L -44.0439,-114.344 L -44.1963,-114.234 L -44.3613,-114.143 L -44.5365,-114.073
 L -44.7189,-114.027 L -44.9058,-114.003 z
M -45.1884,-105.006 L -45.5621,-105.053 L -45.927,-105.147 L -46.2773,-105.286 L -46.6075,-105.467 L -46.9123,-105.688
 L -47.1869,-105.946 L -47.427,-106.237 L -47.6289,-106.555 L -47.7893,-106.896 L -47.9057,-107.254 L -47.9763,-107.624
 L -48,-108 L -47.9763,-108.376 L -47.9057,-108.746 L -47.7893,-109.104 L -47.6289,-109.445 L -47.427,-109.763
 L -47.1869,-110.054 L -46.9123,-110.312 L -46.6075,-110.533 L -46.2773,-110.714 L -45.927,-110.853 L -45.5621,-110.947
 L -45.1884,-110.994 L -44.8116,-110.994 L -44.4379,-110.947 L -44.0729,-110.853 L -43.7227,-110.714 L -43.3925,-110.533
 L -43.0877,-110.312 L -42.8131,-110.054 L -42.5729,-109.763 L -42.3711,-109.445 L -42.2107,-109.104 L -42.0942,-108.746
 L -42.0237,-108.376 L -42,-108 L -42.0237,-107.624 L -42.0942,-107.254 L -42.2107,-106.896 L -42.3711,-106.555
 L -42.5729,-106.237 L -42.8131,-105.946 L -43.0877,-105.688 L -43.3925,-105.467 L -43.7227,-105.286 L -44.0729,-105.147
 L -44.4379,-105.053 L -44.8116,-105.006 z
M -45.0942,-99.003 L -45.2811,-99.0266 L -45.4635,-99.0734 L -45.6387,-99.1428 L -45.8037,-99.2335 L -45.9561,-99.3442
 L -46.0934,-99.4732 L -46.2135,-99.6183 L -46.3145,-99.7774 L -46.3947,-99.9478 L -46.4529,-100.127 L -46.4882,-100.312
 L -46.5,-100.5 L -46.4882,-100.688 L -46.4529,-100.873 L -46.3947,-101.052 L -46.3145,-101.223 L -46.2135,-101.382
 L -46.0934,-101.527 L -45.9561,-101.656 L -45.8037,-101.766 L -45.6387,-101.857 L -45.4635,-101.927 L -45.2811,-101.973
 L -45.0942,-101.997 L -44.9058,-101.997 L -44.7189,-101.973 L -44.5365,-101.927 L -44.3613,-101.857 L -44.1963,-101.766
 L -44.0439,-101.656 L -43.9065,-101.527 L -43.7865,-101.382 L -43.6855,-101.223 L -43.6053,-101.052 L -43.5471,-100.873
 L -43.5118,-100.688 L -43.5,-100.5 L -43.5118,-100.312 L -43.5471,-100.127 L -43.6053,-99.9478 L -43.6855,-99.7774
 L -43.7865,-99.6183 L -43.9065,-99.4732 L -44.0439,-99.3442 L -44.1963,-99.2335 L -44.3613,-99.1428 L -44.5365,-99.0734
 L -44.7189,-99.0266 L -44.9058,-99.003 z
M -45.1884,-90.0059 L -45.5621,-90.0531 L -45.927,-90.1468 L -46.2773,-90.2855 L -46.6075,-90.467 L -46.9123,-90.6885
 L -47.1869,-90.9464 L -47.427,-91.2366 L -47.6289,-91.5547 L -47.7893,-91.8956 L -47.9057,-92.2539 L -47.9763,-92.624
 L -48,-93 L -47.9763,-93.376 L -47.9057,-93.7461 L -47.7893,-94.1044 L -47.6289,-94.4453 L -47.427,-94.7634
 L -47.1869,-95.0536 L -46.9123,-95.3116 L -46.6075,-95.533 L -46.2773,-95.7145 L -45.927,-95.8532 L -45.5621,-95.9469
 L -45.1884,-95.9941 L -44.8116,-95.9941 L -44.4379,-95.9469 L -44.0729,-95.8532 L -43.7227,-95.7145 L -43.3925,-95.533
 L -43.0877,-95.3116 L -42.8131,-95.0536 L -42.5729,-94.7634 L -42.3711,-94.4453 L -42.2107,-94.1044 L -42.0942,-93.7461
 L -42.0237,-93.376 L -42,-93 L -42.0237,-92.624 L -42.0942,-92.2539 L -42.2107,-91.8956 L -42.3711,-91.5547
 L -42.5729,-91.2366 L -42.8131,-90.9464 L -43.0877,-90.6885 L -43.3925,-90.467 L -43.7227,-90.2855 L -44.0729,-90.1468
 L -44.4379,-90.0531 L -44.8116,-90.0059 z
M 14.8116,-90.0059 L 14.4379,-90.0531 L 14.0729,-90.1468 L 13.7227,-90.2855 L 13.3925,-90.467 L 13.0877,-90.6885
 L 12.8131,-90.9464 L 12.5729,-91.2366 L 12.3711,-91.5547 L 12.2107,-91.8956 L 12.0942,-92.2539 L 12.0237,-92.624
 L 12,-93 L 12.0237,-93.376 L 12.0942,-93.7461 L 12.2107,-94.1044 L 12.3711,-94.4453 L 12.5729,-94.7634
 L 12.8131,-95.0536 L 13.0877,-95.3116 L 13.3925,-95.533 L 13.7227,-95.7145 L 14.0729,-95.8532 L 14.4379,-95.9469
 L 14.8116,-95.9941 L 15.1884,-95.9941 L 15.5621,-95.9469 L 15.927,-95.8532 L 16.2773,-95.7145 L 16.6075,-95.533
 L 16.9123,-95.3116 L 17.1869,-95.0536 L 17.427,-94.7634 L 17.6289,-94.4453 L 17.7893,-94.1044 L 17.9057,-93.7461
 L 17.9763,-93.376 L 18,-93 L 17.9763,-92.624 L 17.9057,-92.2539 L 17.7893,-91.8956 L 17.6289,-91.5547
 L 17.427,-91.2366 L 17.1869,-90.9464 L 16.9123,-90.6885 L 16.6075,-90.467 L 16.2773,-90.2855 L 15.927,-90.1468
 L 15.5621,-90.0531 L 15.1884,-90.0059 z
M -30.1884,-90.0059 L -30.5621,-90.0531 L -30.927,-90.1468 L -31.2773,-90.2855 L -31.6075,-90.467 L -31.9123,-90.6885
 L -32.1869,-90.9464 L -32.427,-91.2366 L -32.6289,-91.5547 L -32.7893,-91.8956 L -32.9057,-92.2539 L -32.9763,-92.624
 L -33,-93 L -32.9763,-93.376 L -32.9057,-93.7461 L -32.7893,-94.1044 L -32.6289,-94.4453 L -32.427,-94.7634
 L -32.1869,-95.0536 L -31.9123,-95.3116 L -31.6075,-95.533 L -31.2773,-95.7145 L -30.927,-95.8532 L -30.5621,-95.9469
 L -30.1884,-95.9941 L -29.8116,-95.9941 L -29.4379,-95.9469 L -29.0729,-95.8532 L -28.7227,-95.7145 L -28.3925,-95.533
 L -28.0877,-95.3116 L -27.8131,-95.0536 L -27.5729,-94.7634 L -27.3711,-94.4453 L -27.2107,-94.1044 L -27.0942,-93.7461
 L -27.0237,-93.376 L -27,-93 L -27.0237,-92.624 L -27.0942,-92.2539 L -27.2107,-91.8956 L -27.3711,-91.5547
 L -27.5729,-91.2366 L -27.8131,-90.9464 L -28.0877,-90.6885 L -28.3925,-90.467 L -28.7227,-90.2855 L -29.0729,-90.1468
 L -29.4379,-90.0531 L -29.8116,-90.0059 z
M -15.1884,-90.0059 L -15.5621,-90.0531 L -15.927,-90.1468 L -16.2773,-90.2855 L -16.6075,-90.467 L -16.9123,-90.6885
 L -17.1869,-90.9464 L -17.427,-91.2366 L -17.6289,-91.5547 L -17.7893,-91.8956 L -17.9057,-92.2539 L -17.9763,-92.624
 L -18,-93 L -17.9763,-93.376 L -17.9057,-93.7461 L -17.7893,-94.1044 L -17.6289,-94.4453 L -17.427,-94.7634
 L -17.1869,-95.0536 L -16.9123,-95.3116 L -16.6075,-95.533 L -16.2773,-95.7145 L -15.927,-95.8532 L -15.5621,-95.9469
 L -15.1884,-95.9941 L -14.8116,-95.9941 L -14.4379,-95.9469 L -14.0729,-95.8532 L -13.7227,-95.7145 L -13.3925,-95.533
 L -13.0877,-95.3116 L -12.8131,-95.0536 L -12.5729,-94.7634 L -12.3711,-94.4453 L -12.2107,-94.1044 L -12.0942,-93.7461
 L -12.0237,-93.376 L -12,-93 L -12.0237,-92.624 L -12.0942,-92.2539 L -12.2107,-91.8956 L -12.3711,-91.5547
 L -12.5729,-91.2366 L -12.8131,-90.9464 L -13.0877,-90.6885 L -13.3925,-90.467 L -13.7227,-90.2855 L -14.0729,-90.1468
 L -14.4379,-90.0531 L -14.8116,-90.0059 z
M -22.5942,-91.503 L -22.7811,-91.5266 L -22.9635,-91.5734 L -23.1387,-91.6428 L -23.3037,-91.7335 L -23.4561,-91.8442
 L -23.5934,-91.9732 L -23.7135,-92.1183 L -23.8145,-92.2774 L -23.8947,-92.4478 L -23.9529,-92.627 L -23.9882,-92.812
 L -24,-93 L -23.9882,-93.188 L -23.9529,-93.373 L -23.8947,-93.5522 L -23.8145,-93.7226 L -23.7135,-93.8817
 L -23.5934,-94.0268 L -23.4561,-94.1558 L -23.3037,-94.2665 L -23.1387,-94.3573 L -22.9635,-94.4266 L -22.7811,-94.4734
 L -22.5942,-94.4971 L -22.4058,-94.4971 L -22.2189,-94.4734 L -22.0365,-94.4266 L -21.8613,-94.3573 L -21.6963,-94.2665
 L -21.5439,-94.1558 L -21.4065,-94.0268 L -21.2865,-93.8817 L -21.1855,-93.7226 L -21.1053,-93.5522 L -21.0471,-93.373
 L -21.0118,-93.188 L -21,-93 L -21.0118,-92.812 L -21.0471,-92.627 L -21.1053,-92.4478 L -21.1855,-92.2774
 L -21.2865,-92.1183 L -21.4065,-91.9732 L -21.5439,-91.8442 L -21.6963,-91.7335 L -21.8613,-91.6428 L -22.0365,-91.5734
 L -22.2189,-91.5266 L -22.4058,-91.503 z
M -37.5942,-91.503 L -37.7811,-91.5266 L -37.9635,-91.5734 L -38.1387,-91.6428 L -38.3037,-91.7335 L -38.4561,-91.8442
 L -38.5934,-91.9732 L -38.7135,-92.1183 L -38.8145,-92.2774 L -38.8947,-92.4478 L -38.9529,-92.627 L -38.9882,-92.812
 L -39,-93 L -38.9882,-93.188 L -38.9529,-93.373 L -38.8947,-93.5522 L -38.8145,-93.7226 L -38.7135,-93.8817
 L -38.5934,-94.0268 L -38.4561,-94.1558 L -38.3037,-94.2665 L -38.1387,-94.3573 L -37.9635,-94.4266 L -37.7811,-94.4734
 L -37.5942,-94.4971 L -37.4058,-94.4971 L -37.2189,-94.4734 L -37.0365,-94.4266 L -36.8613,-94.3573 L -36.6963,-94.2665
 L -36.5439,-94.1558 L -36.4065,-94.0268 L -36.2865,-93.8817 L -36.1855,-93.7226 L -36.1053,-93.5522 L -36.0471,-93.373
 L -36.0118,-93.188 L -36,-93 L -36.0118,-92.812 L -36.0471,-92.627 L -36.1053,-92.4478 L -36.1855,-92.2774
 L -36.2865,-92.1183 L -36.4065,-91.9732 L -36.5439,-91.8442 L -36.6963,-91.7335 L -36.8613,-91.6428 L -37.0365,-91.5734
 L -37.2189,-91.5266 L -37.4058,-91.503 z
M 18.4369,-31.5886 L 19.0451,-31.7447 L 19.6289,-31.9759 L 20.1791,-32.2784 L 20.6871,-32.6474 L 21.1448,-33.0773
 L 21.5451,-33.5611 L 21.8815,-34.0912 L 22.1489,-34.6594 L 22.3429,-35.2566 L 22.4606,-35.8733 L 22.5,-36.5
 L 22.5,-71.5 L 22.4606,-72.1267 L 22.3429,-72.7434 L 22.1489,-73.3406 L 21.8815,-73.9088 L 21.5451,-74.4389
 L 21.1448,-74.9227 L 20.6871,-75.3526 L 20.1791,-75.7216 L 19.6289,-76.0241 L 19.0451,-76.2553 L 18.4369,-76.4114
 L 17.8139,-76.4901 L -47.8139,-76.4901 L -48.4369,-76.4114 L -49.0451,-76.2553 L -49.6289,-76.0241 L -50.1791,-75.7216
 L -50.6871,-75.3526 L -51.1448,-74.9227 L -51.5451,-74.4389 L -51.8815,-73.9088 L -52.1489,-73.3406 L -52.3429,-72.7434
 L -52.4606,-72.1267 L -52.5,-71.5 L -52.5,-36.5 L -52.4606,-35.8733 L -52.3429,-35.2566 L -52.1489,-34.6594
 L -51.8815,-34.0912 L -51.5451,-33.5611 L -51.1448,-33.0773 L -50.6871,-32.6474 L -50.1791,-32.2784 L -49.6289,-31.9759
 L -49.0451,-31.7447 L -48.4369,-31.5886 L -47.8139,-31.5099 L 17.8139,-31.5099 z
M -15.1884,-66.0059 L -15.5621,-66.0531 L -15.927,-66.1468 L -16.2773,-66.2855 L -16.6075,-66.467 L -16.9123,-66.6884
 L -17.1869,-66.9464 L -17.427,-67.2366 L -17.6289,-67.5547 L -17.7893,-67.8956 L -17.9057,-68.2539 L -17.9763,-68.624
 L -18,-69 L -17.9763,-69.376 L -17.9057,-69.7461 L -17.7893,-70.1044 L -17.6289,-70.4453 L -17.427,-70.7634
 L -17.1869,-71.0536 L -16.9123,-71.3115 L -16.6075,-71.533 L -16.2773,-71.7145 L -15.927,-71.8532 L -15.5621,-71.9469
 L -15.1884,-71.9941 L -14.8116,-71.9941 L -14.4379,-71.9469 L -14.0729,-71.8532 L -13.7227,-71.7145 L -13.3925,-71.533
 L -13.0877,-71.3115 L -12.8131,-71.0536 L -12.5729,-70.7634 L -12.3711,-70.4453 L -12.2107,-70.1044 L -12.0942,-69.7461
 L -12.0237,-69.376 L -12,-69 L -12.0237,-68.624 L -12.0942,-68.2539 L -12.2107,-67.8956 L -12.3711,-67.5547
 L -12.5729,-67.2366 L -12.8131,-66.9464 L -13.0877,-66.6884 L -13.3925,-66.467 L -13.7227,-66.2855 L -14.0729,-66.1468
 L -14.4379,-66.0531 L -14.8116,-66.0059 z
M -30.1884,-66.0059 L -30.5621,-66.0531 L -30.927,-66.1468 L -31.2773,-66.2855 L -31.6075,-66.467 L -31.9123,-66.6884
 L -32.1869,-66.9464 L -32.427,-67.2366 L -32.6289,-67.5547 L -32.7893,-67.8956 L -32.9057,-68.2539 L -32.9763,-68.624
 L -33,-69 L -32.9763,-69.376 L -32.9057,-69.7461 L -32.7893,-70.1044 L -32.6289,-70.4453 L -32.427,-70.7634
 L -32.1869,-71.0536 L -31.9123,-71.3115 L -31.6075,-71.533 L -31.2773,-71.7145 L -30.927,-71.8532 L -30.5621,-71.9469
 L -30.1884,-71.9941 L -29.8116,-71.9941 L -29.4379,-71.9469 L -29.0729,-71.8532 L -28.7227,-71.7145 L -28.3925,-71.533
 L -28.0877,-71.3115 L -27.8131,-71.0536 L -27.5729,-70.7634 L -27.3711,-70.4453 L -27.2107,-70.1044 L -27.0942,-69.7461
 L -27.0237,-69.376 L -27,-69 L -27.0237,-68.624 L -27.0942,-68.2539 L -27.2107,-67.8956 L -27.3711,-67.5547
 L -27.5729,-67.2366 L -27.8131,-66.9464 L -28.0877,-66.6884 L -28.3925,-66.467 L -28.7227,-66.2855 L -29.0729,-66.1468
 L -29.4379,-66.0531 L -29.8116,-66.0059 z
M 14.8116,-66.0059 L 14.4379,-66.0531 L 14.0729,-66.1468 L 13.7227,-66.2855 L 13.3925,-66.467 L 13.0877,-66.6884
 L 12.8131,-66.9464 L 12.5729,-67.2366 L 12.3711,-67.5547 L 12.2107,-67.8956 L 12.0942,-68.2539 L 12.0237,-68.624
 L 12,-69 L 12.0237,-69.376 L 12.0942,-69.7461 L 12.2107,-70.1044 L 12.3711,-70.4453 L 12.5729,-70.7634
 L 12.8131,-71.0536 L 13.0877,-71.3115 L 13.3925,-71.533 L 13.7227,-71.7145 L 14.0729,-71.8532 L 14.4379,-71.9469
 L 14.8116,-71.9941 L 15.1884,-71.9941 L 15.5621,-71.9469 L 15.927,-71.8532 L 16.2773,-71.7145 L 16.6075,-71.533
 L 16.9123,-71.3115 L 17.1869,-71.0536 L 17.427,-70.7634 L 17.6289,-70.4453 L 17.7893,-70.1044 L 17.9057,-69.7461
 L 17.9763,-69.376 L 18,-69 L 17.9763,-68.624 L 17.9057,-68.2539 L 17.7893,-67.8956 L 17.6289,-67.5547
 L 17.427,-67.2366 L 17.1869,-66.9464 L 16.9123,-66.6884 L 16.6075,-66.467 L 16.2773,-66.2855 L 15.927,-66.1468
 L 15.5621,-66.0531 L 15.1884,-66.0059 z
M -45.1884,-66.0059 L -45.5621,-66.0531 L -45.927,-66.1468 L -46.2773,-66.2855 L -46.6075,-66.467 L -46.9123,-66.6884
 L -47.1869,-66.9464 L -47.427,-67.2366 L -47.6289,-67.5547 L -47.7893,-67.8956 L -47.9057,-68.2539 L -47.9763,-68.624
 L -48,-69 L -47.9763,-69.376 L -47.9057,-69.7461 L -47.7893,-70.1044 L -47.6289,-70.4453 L -47.427,-70.7634
 L -47.1869,-71.0536 L -46.9123,-71.3115 L -46.6075,-71.533 L -46.2773,-71.7145 L -45.927,-71.8532 L -45.5621,-71.9469
 L -45.1884,-71.9941 L -44.8116,-71.9941 L -44.4379,-71.9469 L -44.0729,-71.8532 L -43.7227,-71.7145 L -43.3925,-71.533
 L -43.0877,-71.3115 L -42.8131,-71.0536 L -42.5729,-70.7634 L -42.3711,-70.4453 L -42.2107,-70.1044 L -42.0942,-69.7461
 L -42.0237,-69.376 L -42,-69 L -42.0237,-68.624 L -42.0942,-68.2539 L -42.2107,-67.8956 L -42.3711,-67.5547
 L -42.5729,-67.2366 L -42.8131,-66.9464 L -43.0877,-66.6884 L -43.3925,-66.467 L -43.7227,-66.2855 L -44.0729,-66.1468
 L -44.4379,-66.0531 L -44.8116,-66.0059 z
M -37.5942,-67.5029 L -37.7811,-67.5266 L -37.9635,-67.5734 L -38.1387,-67.6427 L -38.3037,-67.7335 L -38.4561,-67.8442
 L -38.5934,-67.9732 L -38.7135,-68.1183 L -38.8145,-68.2774 L -38.8947,-68.4478 L -38.9529,-68.627 L -38.9882,-68.812
 L -39,-69 L -38.9882,-69.188 L -38.9529,-69.373 L -38.8947,-69.5522 L -38.8145,-69.7226 L -38.7135,-69.8817
 L -38.5934,-70.0268 L -38.4561,-70.1558 L -38.3037,-70.2665 L -38.1387,-70.3572 L -37.9635,-70.4266 L -37.7811,-70.4734
 L -37.5942,-70.497 L -37.4058,-70.497 L -37.2189,-70.4734 L -37.0365,-70.4266 L -36.8613,-70.3572 L -36.6963,-70.2665
 L -36.5439,-70.1558 L -36.4065,-70.0268 L -36.2865,-69.8817 L -36.1855,-69.7226 L -36.1053,-69.5522 L -36.0471,-69.373
 L -36.0118,-69.188 L -36,-69 L -36.0118,-68.812 L -36.0471,-68.627 L -36.1053,-68.4478 L -36.1855,-68.2774
 L -36.2865,-68.1183 L -36.4065,-67.9732 L -36.5439,-67.8442 L -36.6963,-67.7335 L -36.8613,-67.6427 L -37.0365,-67.5734
 L -37.2189,-67.5266 L -37.4058,-67.5029 z
M -22.5942,-67.5029 L -22.7811,-67.5266 L -22.9635,-67.5734 L -23.1387,-67.6427 L -23.3037,-67.7335 L -23.4561,-67.8442
 L -23.5934,-67.9732 L -23.7135,-68.1183 L -23.8145,-68.2774 L -23.8947,-68.4478 L -23.9529,-68.627 L -23.9882,-68.812
 L -24,-69 L -23.9882,-69.188 L -23.9529,-69.373 L -23.8947,-69.5522 L -23.8145,-69.7226 L -23.7135,-69.8817
 L -23.5934,-70.0268 L -23.4561,-70.1558 L -23.3037,-70.2665 L -23.1387,-70.3572 L -22.9635,-70.4266 L -22.7811,-70.4734
 L -22.5942,-70.497 L -22.4058,-70.497 L -22.2189,-70.4734 L -22.0365,-70.4266 L -21.8613,-70.3572 L -21.6963,-70.2665
 L -21.5439,-70.1558 L -21.4065,-70.0268 L -21.2865,-69.8817 L -21.1855,-69.7226 L -21.1053,-69.5522 L -21.0471,-69.373
 L -21.0118,-69.188 L -21,-69 L -21.0118,-68.812 L -21.0471,-68.627 L -21.1053,-68.4478 L -21.1855,-68.2774
 L -21.2865,-68.1183 L -21.4065,-67.9732 L -21.5439,-67.8442 L -21.6963,-67.7335 L -21.8613,-67.6427 L -22.0365,-67.5734
 L -22.2189,-67.5266 L -22.4058,-67.5029 z
M -0.753479,-42.0237 L -2.24857,-42.2126 L -3.70819,-42.5873 L -5.10934,-43.1421 L -5.30566,-43.25 L -41.75,-43.25
 L -41.75,-64.75 L -5.30566,-64.75 L -5.10934,-64.8579 L -3.70819,-65.4127 L -2.24857,-65.7874 L -0.753479,-65.9763
 L 0.753479,-65.9763 L 2.24857,-65.7874 L 3.70819,-65.4127 L 5.10934,-64.8579 L 5.30566,-64.75 L 19.75,-64.75
 L 19.75,-43.25 L 5.30566,-43.25 L 5.10934,-43.1421 L 3.70819,-42.5873 L 2.24857,-42.2126 L 0.753479,-42.0237
 z
M -45.0942,-60.0029 L -45.2811,-60.0266 L -45.4635,-60.0734 L -45.6387,-60.1427 L -45.8037,-60.2335 L -45.9561,-60.3442
 L -46.0934,-60.4732 L -46.2135,-60.6183 L -46.3145,-60.7774 L -46.3947,-60.9478 L -46.4529,-61.127 L -46.4882,-61.312
 L -46.5,-61.5 L -46.4882,-61.688 L -46.4529,-61.873 L -46.3947,-62.0522 L -46.3145,-62.2226 L -46.2135,-62.3817
 L -46.0934,-62.5268 L -45.9561,-62.6558 L -45.8037,-62.7665 L -45.6387,-62.8572 L -45.4635,-62.9266 L -45.2811,-62.9734
 L -45.0942,-62.997 L -44.9058,-62.997 L -44.7189,-62.9734 L -44.5365,-62.9266 L -44.3613,-62.8572 L -44.1963,-62.7665
 L -44.0439,-62.6558 L -43.9065,-62.5268 L -43.7865,-62.3817 L -43.6855,-62.2226 L -43.6053,-62.0522 L -43.5471,-61.873
 L -43.5118,-61.688 L -43.5,-61.5 L -43.5118,-61.312 L -43.5471,-61.127 L -43.6053,-60.9478 L -43.6855,-60.7774
 L -43.7865,-60.6183 L -43.9065,-60.4732 L -44.0439,-60.3442 L -44.1963,-60.2335 L -44.3613,-60.1427 L -44.5365,-60.0734
 L -44.7189,-60.0266 L -44.9058,-60.0029 z
M -45.1884,-51.0059 L -45.5621,-51.0531 L -45.927,-51.1468 L -46.2773,-51.2855 L -46.6075,-51.467 L -46.9123,-51.6885
 L -47.1869,-51.9464 L -47.427,-52.2366 L -47.6289,-52.5547 L -47.7893,-52.8956 L -47.9057,-53.2539 L -47.9763,-53.624
 L -48,-54 L -47.9763,-54.376 L -47.9057,-54.7461 L -47.7893,-55.1044 L -47.6289,-55.4453 L -47.427,-55.7634
 L -47.1869,-56.0536 L -46.9123,-56.3115 L -46.6075,-56.533 L -46.2773,-56.7145 L -45.927,-56.8532 L -45.5621,-56.9469
 L -45.1884,-56.9941 L -44.8116,-56.9941 L -44.4379,-56.9469 L -44.0729,-56.8532 L -43.7227,-56.7145 L -43.3925,-56.533
 L -43.0877,-56.3115 L -42.8131,-56.0536 L -42.5729,-55.7634 L -42.3711,-55.4453 L -42.2107,-55.1044 L -42.0942,-54.7461
 L -42.0237,-54.376 L -42,-54 L -42.0237,-53.624 L -42.0942,-53.2539 L -42.2107,-52.8956 L -42.3711,-52.5547
 L -42.5729,-52.2366 L -42.8131,-51.9464 L -43.0877,-51.6885 L -43.3925,-51.467 L -43.7227,-51.2855 L -44.0729,-51.1468
 L -44.4379,-51.0531 L -44.8116,-51.0059 z
M -45.0942,-45.003 L -45.2811,-45.0266 L -45.4635,-45.0734 L -45.6387,-45.1428 L -45.8037,-45.2335 L -45.9561,-45.3442
 L -46.0934,-45.4732 L -46.2135,-45.6183 L -46.3145,-45.7774 L -46.3947,-45.9478 L -46.4529,-46.127 L -46.4882,-46.312
 L -46.5,-46.5 L -46.4882,-46.688 L -46.4529,-46.873 L -46.3947,-47.0522 L -46.3145,-47.2226 L -46.2135,-47.3817
 L -46.0934,-47.5268 L -45.9561,-47.6558 L -45.8037,-47.7665 L -45.6387,-47.8573 L -45.4635,-47.9266 L -45.2811,-47.9734
 L -45.0942,-47.9971 L -44.9058,-47.9971 L -44.7189,-47.9734 L -44.5365,-47.9266 L -44.3613,-47.8573 L -44.1963,-47.7665
 L -44.0439,-47.6558 L -43.9065,-47.5268 L -43.7865,-47.3817 L -43.6855,-47.2226 L -43.6053,-47.0522 L -43.5471,-46.873
 L -43.5118,-46.688 L -43.5,-46.5 L -43.5118,-46.312 L -43.5471,-46.127 L -43.6053,-45.9478 L -43.6855,-45.7774
 L -43.7865,-45.6183 L -43.9065,-45.4732 L -44.0439,-45.3442 L -44.1963,-45.2335 L -44.3613,-45.1428 L -44.5365,-45.0734
 L -44.7189,-45.0266 L -44.9058,-45.003 z
M 14.8116,-36.0059 L 14.4379,-36.0531 L 14.0729,-36.1468 L 13.7227,-36.2855 L 13.3925,-36.467 L 13.0877,-36.6885
 L 12.8131,-36.9464 L 12.5729,-37.2366 L 12.3711,-37.5547 L 12.2107,-37.8956 L 12.0942,-38.2539 L 12.0237,-38.624
 L 12,-39 L 12.0237,-39.376 L 12.0942,-39.7461 L 12.2107,-40.1044 L 12.3711,-40.4453 L 12.5729,-40.7634
 L 12.8131,-41.0536 L 13.0877,-41.3116 L 13.3925,-41.533 L 13.7227,-41.7145 L 14.0729,-41.8532 L 14.4379,-41.9469
 L 14.8116,-41.9941 L 15.1884,-41.9941 L 15.5621,-41.9469 L 15.927,-41.8532 L 16.2773,-41.7145 L 16.6075,-41.533
 L 16.9123,-41.3116 L 17.1869,-41.0536 L 17.427,-40.7634 L 17.6289,-40.4453 L 17.7893,-40.1044 L 17.9057,-39.7461
 L 17.9763,-39.376 L 18,-39 L 17.9763,-38.624 L 17.9057,-38.2539 L 17.7893,-37.8956 L 17.6289,-37.5547
 L 17.427,-37.2366 L 17.1869,-36.9464 L 16.9123,-36.6885 L 16.6075,-36.467 L 16.2773,-36.2855 L 15.927,-36.1468
 L 15.5621,-36.0531 L 15.1884,-36.0059 z
M -30.1884,-36.0059 L -30.5621,-36.0531 L -30.927,-36.1468 L -31.2773,-36.2855 L -31.6075,-36.467 L -31.9123,-36.6885
 L -32.1869,-36.9464 L -32.427,-37.2366 L -32.6289,-37.5547 L -32.7893,-37.8956 L -32.9057,-38.2539 L -32.9763,-38.624
 L -33,-39 L -32.9763,-39.376 L -32.9057,-39.7461 L -32.7893,-40.1044 L -32.6289,-40.4453 L -32.427,-40.7634
 L -32.1869,-41.0536 L -31.9123,-41.3116 L -31.6075,-41.533 L -31.2773,-41.7145 L -30.927,-41.8532 L -30.5621,-41.9469
 L -30.1884,-41.9941 L -29.8116,-41.9941 L -29.4379,-41.9469 L -29.0729,-41.8532 L -28.7227,-41.7145 L -28.3925,-41.533
 L -28.0877,-41.3116 L -27.8131,-41.0536 L -27.5729,-40.7634 L -27.3711,-40.4453 L -27.2107,-40.1044 L -27.0942,-39.7461
 L -27.0237,-39.376 L -27,-39 L -27.0237,-38.624 L -27.0942,-38.2539 L -27.2107,-37.8956 L -27.3711,-37.5547
 L -27.5729,-37.2366 L -27.8131,-36.9464 L -28.0877,-36.6885 L -28.3925,-36.467 L -28.7227,-36.2855 L -29.0729,-36.1468
 L -29.4379,-36.0531 L -29.8116,-36.0059 z
M -15.1884,-36.0059 L -15.5621,-36.0531 L -15.927,-36.1468 L -16.2773,-36.2855 L -16.6075,-36.467 L -16.9123,-36.6885
 L -17.1869,-36.9464 L -17.427,-37.2366 L -17.6289,-37.5547 L -17.7893,-37.8956 L -17.9057,-38.2539 L -17.9763,-38.624
 L -18,-39 L -17.9763,-39.376 L -17.9057,-39.7461 L -17.7893,-40.1044 L -17.6289,-40.4453 L -17.427,-40.7634
 L -17.1869,-41.0536 L -16.9123,-41.3116 L -16.6075,-41.533 L -16.2773,-41.7145 L -15.927,-41.8532 L -15.5621,-41.9469
 L -15.1884,-41.9941 L -14.8116,-41.9941 L -14.4379,-41.9469 L -14.0729,-41.8532 L -13.7227,-41.7145 L -13.3925,-41.533
 L -13.0877,-41.3116 L -12.8131,-41.0536 L -12.5729,-40.7634 L -12.3711,-40.4453 L -12.2107,-40.1044 L -12.0942,-39.7461
 L -12.0237,-39.376 L -12,-39 L -12.0237,-38.624 L -12.0942,-38.2539 L -12.2107,-37.8956 L -12.3711,-37.5547
 L -12.5729,-37.2366 L -12.8131,-36.9464 L -13.0877,-36.6885 L -13.3925,-36.467 L -13.7227,-36.2855 L -14.0729,-36.1468
 L -14.4379,-36.0531 L -14.8116,-36.0059 z
M -45.1884,-36.0059 L -45.5621,-36.0531 L -45.927,-36.1468 L -46.2773,-36.2855 L -46.6075,-36.467 L -46.9123,-36.6885
 L -47.1869,-36.9464 L -47.427,-37.2366 L -47.6289,-37.5547 L -47.7893,-37.8956 L -47.9057,-38.2539 L -47.9763,-38.624
 L -48,-39 L -47.9763,-39.376 L -47.9057,-39.7461 L -47.7893,-40.1044 L -47.6289,-40.4453 L -47.427,-40.7634
 L -47.1869,-41.0536 L -46.9123,-41.3116 L -46.6075,-41.533 L -46.2773,-41.7145 L -45.927,-41.8532 L -45.5621,-41.9469
 L -45.1884,-41.9941 L -44.8116,-41.9941 L -44.4379,-41.9469 L -44.0729,-41.8532 L -43.7227,-41.7145 L -43.3925,-41.533
 L -43.0877,-41.3116 L -42.8131,-41.0536 L -42.5729,-40.7634 L -42.3711,-40.4453 L -42.2107,-40.1044 L -42.0942,-39.7461
 L -42.0237,-39.376 L -42,-39 L -42.0237,-38.624 L -42.0942,-38.2539 L -42.2107,-37.8956 L -42.3711,-37.5547
 L -42.5729,-37.2366 L -42.8131,-36.9464 L -43.0877,-36.6885 L -43.3925,-36.467 L -43.7227,-36.2855 L -44.0729,-36.1468
 L -44.4379,-36.0531 L -44.8116,-36.0059 z
M -22.5942,-37.503 L -22.7811,-37.5266 L -22.9635,-37.5734 L -23.1387,-37.6428 L -23.3037,-37.7335 L -23.4561,-37.8442
 L -23.5934,-37.9732 L -23.7135,-38.1183 L -23.8145,-38.2774 L -23.8947,-38.4478 L -23.9529,-38.627 L -23.9882,-38.812
 L -24,-39 L -23.9882,-39.188 L -23.9529,-39.373 L -23.8947,-39.5522 L -23.8145,-39.7226 L -23.7135,-39.8817
 L -23.5934,-40.0268 L -23.4561,-40.1558 L -23.3037,-40.2665 L -23.1387,-40.3573 L -22.9635,-40.4266 L -22.7811,-40.4734
 L -22.5942,-40.4971 L -22.4058,-40.4971 L -22.2189,-40.4734 L -22.0365,-40.4266 L -21.8613,-40.3573 L -21.6963,-40.2665
 L -21.5439,-40.1558 L -21.4065,-40.0268 L -21.2865,-39.8817 L -21.1855,-39.7226 L -21.1053,-39.5522 L -21.0471,-39.373
 L -21.0118,-39.188 L -21,-39 L -21.0118,-38.812 L -21.0471,-38.627 L -21.1053,-38.4478 L -21.1855,-38.2774
 L -21.2865,-38.1183 L -21.4065,-37.9732 L -21.5439,-37.8442 L -21.6963,-37.7335 L -21.8613,-37.6428 L -22.0365,-37.5734
 L -22.2189,-37.5266 L -22.4058,-37.503 z
M -37.5942,-37.503 L -37.7811,-37.5266 L -37.9635,-37.5734 L -38.1387,-37.6428 L -38.3037,-37.7335 L -38.4561,-37.8442
 L -38.5934,-37.9732 L -38.7135,-38.1183 L -38.8145,-38.2774 L -38.8947,-38.4478 L -38.9529,-38.627 L -38.9882,-38.812
 L -39,-39 L -38.9882,-39.188 L -38.9529,-39.373 L -38.8947,-39.5522 L -38.8145,-39.7226 L -38.7135,-39.8817
 L -38.5934,-40.0268 L -38.4561,-40.1558 L -38.3037,-40.2665 L -38.1387,-40.3573 L -37.9635,-40.4266 L -37.7811,-40.4734
 L -37.5942,-40.4971 L -37.4058,-40.4971 L -37.2189,-40.4734 L -37.0365,-40.4266 L -36.8613,-40.3573 L -36.6963,-40.2665
 L -36.5439,-40.1558 L -36.4065,-40.0268 L -36.2865,-39.8817 L -36.1855,-39.7226 L -36.1053,-39.5522 L -36.0471,-39.373
 L -36.0118,-39.188 L -36,-39 L -36.0118,-38.812 L -36.0471,-38.627 L -36.1053,-38.4478 L -36.1855,-38.2774
 L -36.2865,-38.1183 L -36.4065,-37.9732 L -36.5439,-37.8442 L -36.6963,-37.7335 L -36.8613,-37.6428 L -37.0365,-37.5734
 L -37.2189,-37.5266 L -37.4058,-37.503 z
M 18.4369,22.4114 L 19.0451,22.2553 L 19.6289,22.0241 L 20.1791,21.7216 L 20.6871,21.3526 L 21.1448,20.9227
 L 21.5451,20.4389 L 21.8815,19.9088 L 22.1489,19.3406 L 22.3429,18.7434 L 22.4606,18.1267 L 22.5,17.5
 L 22.5,-17.5 L 22.4606,-18.1267 L 22.3429,-18.7434 L 22.1489,-19.3406 L 21.8815,-19.9088 L 21.5451,-20.4389
 L 21.1448,-20.9227 L 20.6871,-21.3526 L 20.1791,-21.7216 L 19.6289,-22.0241 L 19.0451,-22.2553 L 18.4369,-22.4114
 L 17.8139,-22.4901 L -47.8139,-22.4901 L -48.4369,-22.4114 L -49.0451,-22.2553 L -49.6289,-22.0241 L -50.1791,-21.7216
 L -50.6871,-21.3526 L -51.1448,-20.9227 L -51.5451,-20.4389 L -51.8815,-19.9088 L -52.1489,-19.3406 L -52.3429,-18.7434
 L -52.4606,-18.1267 L -52.5,-17.5 L -52.5,17.5 L -52.4606,18.1267 L -52.3429,18.7434 L -52.1489,19.3406
 L -51.8815,19.9088 L -51.5451,20.4389 L -51.1448,20.9227 L -50.6871,21.3526 L -50.1791,21.7216 L -49.6289,22.0241
 L -49.0451,22.2553 L -48.4369,22.4114 L -47.8139,22.4901 L 17.8139,22.4901 z
M -30.1884,-12.0059 L -30.5621,-12.0531 L -30.927,-12.1468 L -31.2773,-12.2855 L -31.6075,-12.467 L -31.9123,-12.6884
 L -32.1869,-12.9464 L -32.427,-13.2366 L -32.6289,-13.5547 L -32.7893,-13.8956 L -32.9057,-14.2539 L -32.9763,-14.624
 L -33,-15 L -32.9763,-15.376 L -32.9057,-15.7461 L -32.7893,-16.1044 L -32.6289,-16.4453 L -32.427,-16.7634
 L -32.1869,-17.0536 L -31.9123,-17.3115 L -31.6075,-17.533 L -31.2773,-17.7145 L -30.927,-17.8532 L -30.5621,-17.9469
 L -30.1884,-17.9941 L -29.8116,-17.9941 L -29.4379,-17.9469 L -29.0729,-17.8532 L -28.7227,-17.7145 L -28.3925,-17.533
 L -28.0877,-17.3115 L -27.8131,-17.0536 L -27.5729,-16.7634 L -27.3711,-16.4453 L -27.2107,-16.1044 L -27.0942,-15.7461
 L -27.0237,-15.376 L -27,-15 L -27.0237,-14.624 L -27.0942,-14.2539 L -27.2107,-13.8956 L -27.3711,-13.5547
 L -27.5729,-13.2366 L -27.8131,-12.9464 L -28.0877,-12.6884 L -28.3925,-12.467 L -28.7227,-12.2855 L -29.0729,-12.1468
 L -29.4379,-12.0531 L -29.8116,-12.0059 z
M 14.8116,-12.0059 L 14.4379,-12.0531 L 14.0729,-12.1468 L 13.7227,-12.2855 L 13.3925,-12.467 L 13.0877,-12.6884
 L 12.8131,-12.9464 L 12.5729,-13.2366 L 12.3711,-13.5547 L 12.2107,-13.8956 L 12.0942,-14.2539 L 12.0237,-14.624
 L 12,-15 L 12.0237,-15.376 L 12.0942,-15.7461 L 12.2107,-16.1044 L 12.3711,-16.4453 L 12.5729,-16.7634
 L 12.8131,-17.0536 L 13.0877,-17.3115 L 13.3925,-17.533 L 13.7227,-17.7145 L 14.0729,-17.8532 L 14.4379,-17.9469
 L 14.8116,-17.9941 L 15.1884,-17.9941 L 15.5621,-17.9469 L 15.927,-17.8532 L 16.2773,-17.7145 L 16.6075,-17.533
 L 16.9123,-17.3115 L 17.1869,-17.0536 L 17.427,-16.7634 L 17.6289,-16.4453 L 17.7893,-16.1044 L 17.9057,-15.7461
 L 17.9763,-15.376 L 18,-15 L 17.9763,-14.624 L 17.9057,-14.2539 L 17.7893,-13.8956 L 17.6289,-13.5547
 L 17.427,-13.2366 L 17.1869,-12.9464 L 16.9123,-12.6884 L 16.6075,-12.467 L 16.2773,-12.2855 L 15.927,-12.1468
 L 15.5621,-12.0531 L 15.1884,-12.0059 z
M -45.1884,-12.0059 L -45.5621,-12.0531 L -45.927,-12.1468 L -46.2773,-12.2855 L -46.6075,-12.467 L -46.9123,-12.6884
 L -47.1869,-12.9464 L -47.427,-13.2366 L -47.6289,-13.5547 L -47.7893,-13.8956 L -47.9057,-14.2539 L -47.9763,-14.624
 L -48,-15 L -47.9763,-15.376 L -47.9057,-15.7461 L -47.7893,-16.1044 L -47.6289,-16.4453 L -47.427,-16.7634
 L -47.1869,-17.0536 L -46.9123,-17.3115 L -46.6075,-17.533 L -46.2773,-17.7145 L -45.927,-17.8532 L -45.5621,-17.9469
 L -45.1884,-17.9941 L -44.8116,-17.9941 L -44.4379,-17.9469 L -44.0729,-17.8532 L -43.7227,-17.7145 L -43.3925,-17.533
 L -43.0877,-17.3115 L -42.8131,-17.0536 L -42.5729,-16.7634 L -42.3711,-16.4453 L -42.2107,-16.1044 L -42.0942,-15.7461
 L -42.0237,-15.376 L -42,-15 L -42.0237,-14.624 L -42.0942,-14.2539 L -42.2107,-13.8956 L -42.3711,-13.5547
 L -42.5729,-13.2366 L -42.8131,-12.9464 L -43.0877,-12.6884 L -43.3925,-12.467 L -43.7227,-12.2855 L -44.0729,-12.1468
 L -44.4379,-12.0531 L -44.8116,-12.0059 z
M -15.1884,-12.0059 L -15.5621,-12.0531 L -15.927,-12.1468 L -16.2773,-12.2855 L -16.6075,-12.467 L -16.9123,-12.6884
 L -17.1869,-12.9464 L -17.427,-13.2366 L -17.6289,-13.5547 L -17.7893,-13.8956 L -17.9057,-14.2539 L -17.9763,-14.624
 L -18,-15 L -17.9763,-15.376 L -17.9057,-15.7461 L -17.7893,-16.1044 L -17.6289,-16.4453 L -17.427,-16.7634
 L -17.1869,-17.0536 L -16.9123,-17.3115 L -16.6075,-17.533 L -16.2773,-17.7145 L -15.927,-17.8532 L -15.5621,-17.9469
 L -15.1884,-17.9941 L -14.8116,-17.9941 L -14.4379,-17.9469 L -14.0729,-17.8532 L -13.7227,-17.7145 L -13.3925,-17.533
 L -13.0877,-17.3115 L -12.8131,-17.0536 L -12.5729,-16.7634 L -12.3711,-16.4453 L -12.2107,-16.1044 L -12.0942,-15.7461
 L -12.0237,-15.376 L -12,-15 L -12.0237,-14.624 L -12.0942,-14.2539 L -12.2107,-13.8956 L -12.3711,-13.5547
 L -12.5729,-13.2366 L -12.8131,-12.9464 L -13.0877,-12.6884 L -13.3925,-12.467 L -13.7227,-12.2855 L -14.0729,-12.1468
 L -14.4379,-12.0531 L -14.8116,-12.0059 z
M -37.5942,-13.5029 L -37.7811,-13.5266 L -37.9635,-13.5734 L -38.1387,-13.6427 L -38.3037,-13.7335 L -38.4561,-13.8442
 L -38.5934,-13.9732 L -38.7135,-14.1183 L -38.8145,-14.2774 L -38.8947,-14.4478 L -38.9529,-14.627 L -38.9882,-14.812
 L -39,-15 L -38.9882,-15.188 L -38.9529,-15.373 L -38.8947,-15.5522 L -38.8145,-15.7226 L -38.7135,-15.8817
 L -38.5934,-16.0268 L -38.4561,-16.1558 L -38.3037,-16.2665 L -38.1387,-16.3572 L -37.9635,-16.4266 L -37.7811,-16.4734
 L -37.5942,-16.497 L -37.4058,-16.497 L -37.2189,-16.4734 L -37.0365,-16.4266 L -36.8613,-16.3572 L -36.6963,-16.2665
 L -36.5439,-16.1558 L -36.4065,-16.0268 L -36.2865,-15.8817 L -36.1855,-15.7226 L -36.1053,-15.5522 L -36.0471,-15.373
 L -36.0118,-15.188 L -36,-15 L -36.0118,-14.812 L -36.0471,-14.627 L -36.1053,-14.4478 L -36.1855,-14.2774
 L -36.2865,-14.1183 L -36.4065,-13.9732 L -36.5439,-13.8442 L -36.6963,-13.7335 L -36.8613,-13.6427 L -37.0365,-13.5734
 L -37.2189,-13.5266 L -37.4058,-13.5029 z
M -22.5942,-13.5029 L -22.7811,-13.5266 L -22.9635,-13.5734 L -23.1387,-13.6427 L -23.3037,-13.7335 L -23.4561,-13.8442
 L -23.5934,-13.9732 L -23.7135,-14.1183 L -23.8145,-14.2774 L -23.8947,-14.4478 L -23.9529,-14.627 L -23.9882,-14.812
 L -24,-15 L -23.9882,-15.188 L -23.9529,-15.373 L -23.8947,-15.5522 L -23.8145,-15.7226 L -23.7135,-15.8817
 L -23.5934,-16.0268 L -23.4561,-16.1558 L -23.3037,-16.2665 L -23.1387,-16.3572 L -22.9635,-16.4266 L -22.7811,-16.4734
 L -22.5942,-16.497 L -22.4058,-16.497 L -22.2189,-16.4734 L -22.0365,-16.4266 L -21.8613,-16.3572 L -21.6963,-16.2665
 L -21.5439,-16.1558 L -21.4065,-16.0268 L -21.2865,-15.8817 L -21.1855,-15.7226 L -21.1053,-15.5522 L -21.0471,-15.373
 L -21.0118,-15.188 L -21,-15 L -21.0118,-14.812 L -21.0471,-14.627 L -21.1053,-14.4478 L -21.1855,-14.2774
 L -21.2865,-14.1183 L -21.4065,-13.9732 L -21.5439,-13.8442 L -21.6963,-13.7335 L -21.8613,-13.6427 L -22.0365,-13.5734
 L -22.2189,-13.5266 L -22.4058,-13.5029 z
M -0.753479,11.9763 L -2.24857,11.7874 L -3.70819,11.4127 L -5.10934,10.8579 L -5.30566,10.75 L -41.75,10.75
 L -41.75,-10.75 L -5.30566,-10.75 L -5.10934,-10.8579 L -3.70819,-11.4127 L -2.24857,-11.7874 L -0.753479,-11.9763
 L 0.753479,-11.9763 L 2.24857,-11.7874 L 3.70819,-11.4127 L 5.10934,-10.8579 L 5.30566,-10.75 L 19.75,-10.75
 L 19.75,10.75 L 5.30566,10.75 L 5.10934,10.8579 L 3.70819,11.4127 L 2.24857,11.7874 L 0.753479,11.9763
 z
M -45.0942,-6.00294 L -45.2811,-6.02657 L -45.4635,-6.07341 L -45.6387,-6.14275 L -45.8037,-6.23351 L -45.9561,-6.34422
 L -46.0934,-6.47318 L -46.2135,-6.61832 L -46.3145,-6.77736 L -46.3947,-6.9478 L -46.4529,-7.12695 L -46.4882,-7.312
 L -46.5,-7.5 L -46.4882,-7.68799 L -46.4529,-7.87303 L -46.3947,-8.05219 L -46.3145,-8.22263 L -46.2135,-8.38167
 L -46.0934,-8.52681 L -45.9561,-8.65576 L -45.8037,-8.76648 L -45.6387,-8.85724 L -45.4635,-8.92657 L -45.2811,-8.97342
 L -45.0942,-8.99704 L -44.9058,-8.99704 L -44.7189,-8.97342 L -44.5365,-8.92657 L -44.3613,-8.85724 L -44.1963,-8.76648
 L -44.0439,-8.65576 L -43.9065,-8.52681 L -43.7865,-8.38167 L -43.6855,-8.22263 L -43.6053,-8.05219 L -43.5471,-7.87303
 L -43.5118,-7.68799 L -43.5,-7.5 L -43.5118,-7.312 L -43.5471,-7.12695 L -43.6053,-6.9478 L -43.6855,-6.77736
 L -43.7865,-6.61832 L -43.9065,-6.47318 L -44.0439,-6.34422 L -44.1963,-6.23351 L -44.3613,-6.14275 L -44.5365,-6.07341
 L -44.7189,-6.02657 L -44.9058,-6.00294 z
M -45.1884,2.99408 L -45.5621,2.94685 L -45.927,2.85316 L -46.2773,2.71448 L -46.6075,2.53297 L -46.9123,2.31154
 L -47.1869,2.05363 L -47.427,1.76335 L -47.6289,1.44525 L -47.7893,1.10437 L -47.9057,0.746063 L -47.9763,0.375992
 L -48,-0 L -47.9763,-0.375992 L -47.9057,-0.746063 L -47.7893,-1.10437 L -47.6289,-1.44525 L -47.427,-1.76335
 L -47.1869,-2.05363 L -46.9123,-2.31154 L -46.6075,-2.53297 L -46.2773,-2.71448 L -45.927,-2.85316 L -45.5621,-2.94685
 L -45.1884,-2.99408 L -44.8116,-2.99408 L -44.4379,-2.94685 L -44.0729,-2.85316 L -43.7227,-2.71448 L -43.3925,-2.53297
 L -43.0877,-2.31154 L -42.8131,-2.05363 L -42.5729,-1.76335 L -42.3711,-1.44525 L -42.2107,-1.10437 L -42.0942,-0.746063
 L -42.0237,-0.375992 L -42,-0 L -42.0237,0.375992 L -42.0942,0.746063 L -42.2107,1.10437 L -42.3711,1.44525
 L -42.5729,1.76335 L -42.8131,2.05363 L -43.0877,2.31154 L -43.3925,2.53297 L -43.7227,2.71448 L -44.0729,2.85316
 L -44.4379,2.94685 L -44.8116,2.99408 z
M -45.0942,8.99704 L -45.2811,8.97342 L -45.4635,8.92657 L -45.6387,8.85724 L -45.8037,8.76648 L -45.9561,8.65576
 L -46.0934,8.52681 L -46.2135,8.38167 L -46.3145,8.22263 L -46.3947,8.05219 L -46.4529,7.87303 L -46.4882,7.68799
 L -46.5,7.5 L -46.4882,7.312 L -46.4529,7.12695 L -46.3947,6.9478 L -46.3145,6.77736 L -46.2135,6.61832
 L -46.0934,6.47318 L -45.9561,6.34422 L -45.8037,6.23351 L -45.6387,6.14275 L -45.4635,6.07341 L -45.2811,6.02657
 L -45.0942,6.00294 L -44.9058,6.00294 L -44.7189,6.02657 L -44.5365,6.07341 L -44.3613,6.14275 L -44.1963,6.23351
 L -44.0439,6.34422 L -43.9065,6.47318 L -43.7865,6.61832 L -43.6855,6.77736 L -43.6053,6.9478 L -43.5471,7.12695
 L -43.5118,7.312 L -43.5,7.5 L -43.5118,7.68799 L -43.5471,7.87303 L -43.6053,8.05219 L -43.6855,8.22263
 L -43.7865,8.38167 L -43.9065,8.52681 L -44.0439,8.65576 L -44.1963,8.76648 L -44.3613,8.85724 L -44.5365,8.92657
 L -44.7189,8.97342 L -44.9058,8.99704 z
M 14.8116,17.9941 L 14.4379,17.9469 L 14.0729,17.8532 L 13.7227,17.7145 L 13.3925,17.533 L 13.0877,17.3115
 L 12.8131,17.0536 L 12.5729,16.7634 L 12.3711,16.4453 L 12.2107,16.1044 L 12.0942,15.7461 L 12.0237,15.376
 L 12,15 L 12.0237,14.624 L 12.0942,14.2539 L 12.2107,13.8956 L 12.3711,13.5547 L 12.5729,13.2366
 L 12.8131,12.9464 L 13.0877,12.6884 L 13.3925,12.467 L 13.7227,12.2855 L 14.0729,12.1468 L 14.4379,12.0531
 L 14.8116,12.0059 L 15.1884,12.0059 L 15.5621,12.0531 L 15.927,12.1468 L 16.2773,12.2855 L 16.6075,12.467
 L 16.9123,12.6884 L 17.1869,12.9464 L 17.427,13.2366 L 17.6289,13.5547 L 17.7893,13.8956 L 17.9057,14.2539
 L 17.9763,14.624 L 18,15 L 17.9763,15.376 L 17.9057,15.7461 L 17.7893,16.1044 L 17.6289,16.4453
 L 17.427,16.7634 L 17.1869,17.0536 L 16.9123,17.3115 L 16.6075,17.533 L 16.2773,17.7145 L 15.927,17.8532
 L 15.5621,17.9469 L 15.1884,17.9941 z
M -30.1884,17.9941 L -30.5621,17.9469 L -30.927,17.8532 L -31.2773,17.7145 L -31.6075,17.533 L -31.9123,17.3115
 L -32.1869,17.0536 L -32.427,16.7634 L -32.6289,16.4453 L -32.7893,16.1044 L -32.9057,15.7461 L -32.9763,15.376
 L -33,15 L -32.9763,14.624 L -32.9057,14.2539 L -32.7893,13.8956 L -32.6289,13.5547 L -32.427,13.2366
 L -32.1869,12.9464 L -31.9123,12.6884 L -31.6075,12.467 L -31.2773,12.2855 L -30.927,12.1468 L -30.5621,12.0531
 L -30.1884,12.0059 L -29.8116,12.0059 L -29.4379,12.0531 L -29.0729,12.1468 L -28.7227,12.2855 L -28.3925,12.467
 L -28.0877,12.6884 L -27.8131,12.9464 L -27.5729,13.2366 L -27.3711,13.5547 L -27.2107,13.8956 L -27.0942,14.2539
 L -27.0237,14.624 L -27,15 L -27.0237,15.376 L -27.0942,15.7461 L -27.2107,16.1044 L -27.3711,16.4453
 L -27.5729,16.7634 L -27.8131,17.0536 L -28.0877,17.3115 L -28.3925,17.533 L -28.7227,17.7145 L -29.0729,17.8532
 L -29.4379,17.9469 L -29.8116,17.9941 z
M -15.1884,17.9941 L -15.5621,17.9469 L -15.927,17.8532 L -16.2773,17.7145 L -16.6075,17.533 L -16.9123,17.3115
 L -17.1869,17.0536 L -17.427,16.7634 L -17.6289,16.4453 L -17.7893,16.1044 L -17.9057,15.7461 L -17.9763,15.376
 L -18,15 L -17.9763,14.624 L -17.9057,14.2539 L -17.7893,13.8956 L -17.6289,13.5547 L -17.427,13.2366
 L -17.1869,12.9464 L -16.9123,12.6884 L -16.6075,12.467 L -16.2773,12.2855 L -15.927,12.1468 L -15.5621,12.0531
 L -15.1884,12.0059 L -14.8116,12.0059 L -14.4379,12.0531 L -14.0729,12.1468 L -13.7227,12.2855 L -13.3925,12.467
 L -13.0877,12.6884 L -12.8131,12.9464 L -12.5729,13.2366 L -12.3711,13.5547 L -12.2107,13.8956 L -12.0942,14.2539
 L -12.0237,14.624 L -12,15 L -12.0237,15.376 L -12.0942,15.7461 L -12.2107,16.1044 L -12.3711,16.4453
 L -12.5729,16.7634 L -12.8131,17.0536 L -13.0877,17.3115 L -13.3925,17.533 L -13.7227,17.7145 L -14.0729,17.8532
 L -14.4379,17.9469 L -14.8116,17.9941 z
M -45.1884,17.9941 L -45.5621,17.9469 L -45.927,17.8532 L -46.2773,17.7145 L -46.6075,17.533 L -46.9123,17.3115
 L -47.1869,17.0536 L -47.427,16.7634 L -47.6289,16.4453 L -47.7893,16.1044 L -47.9057,15.7461 L -47.9763,15.376
 L -48,15 L -47.9763,14.624 L -47.9057,14.2539 L -47.7893,13.8956 L -47.6289,13.5547 L -47.427,13.2366
 L -47.1869,12.9464 L -46.9123,12.6884 L -46.6075,12.467 L -46.2773,12.2855 L -45.927,12.1468 L -45.5621,12.0531
 L -45.1884,12.0059 L -44.8116,12.0059 L -44.4379,12.0531 L -44.0729,12.1468 L -43.7227,12.2855 L -43.3925,12.467
 L -43.0877,12.6884 L -42.8131,12.9464 L -42.5729,13.2366 L -42.3711,13.5547 L -42.2107,13.8956 L -42.0942,14.2539
 L -42.0237,14.624 L -42,15 L -42.0237,15.376 L -42.0942,15.7461 L -42.2107,16.1044 L -42.3711,16.4453
 L -42.5729,16.7634 L -42.8131,17.0536 L -43.0877,17.3115 L -43.3925,17.533 L -43.7227,17.7145 L -44.0729,17.8532
 L -44.4379,17.9469 L -44.8116,17.9941 z
M -37.5942,16.497 L -37.7811,16.4734 L -37.9635,16.4266 L -38.1387,16.3572 L -38.3037,16.2665 L -38.4561,16.1558
 L -38.5934,16.0268 L -38.7135,15.8817 L -38.8145,15.7226 L -38.8947,15.5522 L -38.9529,15.373 L -38.9882,15.188
 L -39,15 L -38.9882,14.812 L -38.9529,14.627 L -38.8947,14.4478 L -38.8145,14.2774 L -38.7135,14.1183
 L -38.5934,13.9732 L -38.4561,13.8442 L -38.3037,13.7335 L -38.1387,13.6427 L -37.9635,13.5734 L -37.7811,13.5266
 L -37.5942,13.5029 L -37.4058,13.5029 L -37.2189,13.5266 L -37.0365,13.5734 L -36.8613,13.6427 L -36.6963,13.7335
 L -36.5439,13.8442 L -36.4065,13.9732 L -36.2865,14.1183 L -36.1855,14.2774 L -36.1053,14.4478 L -36.0471,14.627
 L -36.0118,14.812 L -36,15 L -36.0118,15.188 L -36.0471,15.373 L -36.1053,15.5522 L -36.1855,15.7226
 L -36.2865,15.8817 L -36.4065,16.0268 L -36.5439,16.1558 L -36.6963,16.2665 L -36.8613,16.3572 L -37.0365,16.4266
 L -37.2189,16.4734 L -37.4058,16.497 z
M -22.5942,16.497 L -22.7811,16.4734 L -22.9635,16.4266 L -23.1387,16.3572 L -23.3037,16.2665 L -23.4561,16.1558
 L -23.5934,16.0268 L -23.7135,15.8817 L -23.8145,15.7226 L -23.8947,15.5522 L -23.9529,15.373 L -23.9882,15.188
 L -24,15 L -23.9882,14.812 L -23.9529,14.627 L -23.8947,14.4478 L -23.8145,14.2774 L -23.7135,14.1183
 L -23.5934,13.9732 L -23.4561,13.8442 L -23.3037,13.7335 L -23.1387,13.6427 L -22.9635,13.5734 L -22.7811,13.5266
 L -22.5942,13.5029 L -22.4058,13.5029 L -22.2189,13.5266 L -22.0365,13.5734 L -21.8613,13.6427 L -21.6963,13.7335
 L -21.5439,13.8442 L -21.4065,13.9732 L -21.2865,14.1183 L -21.1855,14.2774 L -21.1053,14.4478 L -21.0471,14.627
 L -21.0118,14.812 L -21,15 L -21.0118,15.188 L -21.0471,15.373 L -21.1053,15.5522 L -21.1855,15.7226
 L -21.2865,15.8817 L -21.4065,16.0268 L -21.5439,16.1558 L -21.6963,16.2665 L -21.8613,16.3572 L -22.0365,16.4266
 L -22.2189,16.4734 L -22.4058,16.497 z
" stroke="black" fill="lightgray" stroke-width="0.5"/>
</svg>
