<?xml version="1.0" standalone="no"?>
<!DOCTYPE svg PUBLIC "-//W3C//DTD SVG 1.1//EN" "http://www.w3.org/Graphics/SVG/1.1/DTD/svg11.dtd">
<svg width="32mm" height="198mm" viewBox="-17 -306 32 198" xmlns="http://www.w3.org/2000/svg" version="1.1">
<title>OpenSCAD Model</title>
<path d="
M -13.5,-248.507 L -13.1448,-248.077 L -12.6871,-247.647 L -12.1791,-247.278 L -11.6289,-246.976 L -11.0451,-246.745
 L -10.4369,-246.589 L -9.81395,-246.51 L 9.81395,-246.51 L 10.4369,-246.589 L 11.0451,-246.745 L 11.6289,-246.976
 L 12.1791,-247.278 L 12.6871,-247.647 L 13.1448,-248.077 L 13.5451,-248.561 L 13.8815,-249.091 L 14.1489,-249.659
 L 14.3429,-250.257 L 14.4606,-250.873 L 14.5,-251.5 L 14.5,-300.5 L 14.4606,-301.127 L 14.3429,-301.743
 L 14.1489,-302.341 L 13.8815,-302.909 L 13.5451,-303.439 L 13.1448,-303.923 L 12.6871,-304.353 L 12.1791,-304.722
 L 11.6289,-305.024 L 11.0451,-305.255 L 10.4369,-305.411 L 9.81395,-305.49 L -9.81395,-305.49 L -10.4369,-305.411
 L -11.0451,-305.255 L -11.6289,-305.024 L -12.1791,-304.722 L -12.6871,-304.353 L -13.1448,-303.923 L -13.5,-303.493
 L -13.5,-305.99 L -16.5,-305.99 L -16.5,-246.01 L -13.5,-246.01 z
M -9.74316,-247.635 L -10.2256,-247.696 L -10.6967,-247.817 L -11.1489,-247.996 L -11.5751,-248.23 L -11.9685,-248.516
 L -12.323,-248.849 L -12.633,-249.224 L -12.8936,-249.634 L -13.1007,-250.074 L -13.251,-250.537 L -13.3421,-251.015
 L -13.3726,-251.5 L -13.3726,-300.5 L -13.3421,-300.985 L -13.251,-301.463 L -13.1007,-301.926 L -12.8936,-302.366
 L -12.633,-302.776 L -12.323,-303.151 L -11.9685,-303.484 L -11.5751,-303.77 L -11.1489,-304.004 L -10.6967,-304.183
 L -10.2256,-304.304 L -9.74316,-304.365 L 9.74316,-304.365 L 10.2256,-304.304 L 10.6967,-304.183 L 11.1489,-304.004
 L 11.5751,-303.77 L 11.9685,-303.484 L 12.323,-303.151 L 12.633,-302.776 L 12.8936,-302.366 L 13.1007,-301.926
 L 13.251,-301.463 L 13.3421,-300.985 L 13.3726,-300.5 L 13.3726,-251.5 L 13.3421,-251.015 L 13.251,-250.537
 L 13.1007,-250.074 L 12.8936,-249.634 L 12.633,-249.224 L 12.323,-248.849 L 11.9685,-248.516 L 11.5751,-248.23
 L 11.1489,-247.996 L 10.6967,-247.817 L 10.2256,-247.696 L 9.74316,-247.635 z
M -13.5,-179.507 L -13.1448,-179.077 L -12.6871,-178.647 L -12.1791,-178.278 L -11.6289,-177.976 L -11.0451,-177.745
 L -10.4369,-177.589 L -9.81395,-177.51 L 9.81395,-177.51 L 10.4369,-177.589 L 11.0451,-177.745 L 11.6289,-177.976
 L 12.1791,-178.278 L 12.6871,-178.647 L 13.1448,-179.077 L 13.5451,-179.561 L 13.8815,-180.091 L 14.1489,-180.659
 L 14.3429,-181.257 L 14.4606,-181.873 L 14.5,-182.5 L 14.5,-231.5 L 14.4606,-232.127 L 14.3429,-232.743
 L 14.1489,-233.341 L 13.8815,-233.909 L 13.5451,-234.439 L 13.1448,-234.923 L 12.6871,-235.353 L 12.1791,-235.722
 L 11.6289,-236.024 L 11.0451,-236.255 L 10.4369,-236.411 L 9.81395,-236.49 L -9.81395,-236.49 L -10.4369,-236.411
 L -11.0451,-236.255 L -11.6289,-236.024 L -12.1791,-235.722 L -12.6871,-235.353 L -13.1448,-234.923 L -13.5,-234.493
 L -13.5,-236.615 L -16.5,-236.615 L -16.5,-177.385 L -13.5,-177.385 z
M 10.4369,-108.589 L 11.0451,-108.745 L 11.6289,-108.976 L 12.1791,-109.278 L 12.6871,-109.647 L 13.1448,-110.077
 L 13.5451,-110.561 L 13.8815,-111.091 L 14.1489,-111.659 L 14.3429,-112.257 L 14.4606,-112.873 L 14.5,-113.5
 L 14.5,-162.5 L 14.4606,-163.127 L 14.3429,-163.743 L 14.1489,-164.341 L 13.8815,-164.909 L 13.5451,-165.439
 L 13.1448,-165.923 L 12.6871,-166.353 L 12.1791,-166.722 L 11.6289,-167.024 L 11.0451,-167.255 L 10.4369,-167.411
 L 9.81395,-167.49 L -9.81395,-167.49 L -10.4369,-167.411 L -11.0451,-167.255 L -11.6289,-167.024 L -12.1791,-166.722
 L -12.6871,-166.353 L -13.1448,-165.923 L -13.5451,-165.439 L -13.8815,-164.909 L -14.1489,-164.341 L -14.2777,-163.944
 L -16.5,-163.944 L -16.5,-112.056 L -14.2777,-112.056 L -14.1489,-111.659 L -13.8815,-111.091 L -13.5451,-110.561
 L -13.1448,-110.077 L -12.6871,-109.647 L -12.1791,-109.278 L -11.6289,-108.976 L -11.0451,-108.745 L -10.4369,-108.589
 L -9.81395,-108.51 L 9.81395,-108.51 z
M 7.34929,-158.105 L 7.05028,-158.143 L 6.75835,-158.217 L 6.47812,-158.328 L 6.214,-158.474 L 5.97017,-158.651
 L 5.75047,-158.857 L 5.55835,-159.089 L 5.39685,-159.344 L 5.26852,-159.617 L 5.1754,-159.903 L 5.11891,-160.199
 L 5.09999,-160.5 L 5.11891,-160.801 L 5.1754,-161.097 L 5.26852,-161.383 L 5.39685,-161.656 L 5.55835,-161.911
 L 5.75047,-162.143 L 5.97017,-162.349 L 6.214,-162.526 L 6.47812,-162.672 L 6.75835,-162.783 L 7.05028,-162.857
 L 7.34929,-162.895 L 7.6507,-162.895 L 7.94971,-162.857 L 8.24164,-162.783 L 8.52187,-162.672 L 8.78598,-162.526
 L 9.02982,-162.349 L 9.24951,-162.143 L 9.44164,-161.911 L 9.60313,-161.656 L 9.73146,-161.383 L 9.82458,-161.097
 L 9.88107,-160.801 L 9.89999,-160.5 L 9.88107,-160.199 L 9.82458,-159.903 L 9.73146,-159.617 L 9.60313,-159.344
 L 9.44164,-159.089 L 9.24951,-158.857 L 9.02982,-158.651 L 8.78598,-158.474 L 8.52187,-158.328 L 8.24164,-158.217
 L 7.94971,-158.143 L 7.6507,-158.105 z
M -7.6507,-158.105 L -7.94971,-158.143 L -8.24164,-158.217 L -8.52187,-158.328 L -8.78598,-158.474 L -9.02982,-158.651
 L -9.24951,-158.857 L -9.44164,-159.089 L -9.60313,-159.344 L -9.73146,-159.617 L -9.82458,-159.903 L -9.88107,-160.199
 L -9.89999,-160.5 L -9.88107,-160.801 L -9.82458,-161.097 L -9.73146,-161.383 L -9.60313,-161.656 L -9.44164,-161.911
 L -9.24951,-162.143 L -9.02982,-162.349 L -8.78598,-162.526 L -8.52187,-162.672 L -8.24164,-162.783 L -7.94971,-162.857
 L -7.6507,-162.895 L -7.34929,-162.895 L -7.05028,-162.857 L -6.75835,-162.783 L -6.47812,-162.672 L -6.214,-162.526
 L -5.97017,-162.349 L -5.75047,-162.143 L -5.55835,-161.911 L -5.39685,-161.656 L -5.26852,-161.383 L -5.1754,-161.097
 L -5.11891,-160.801 L -5.09999,-160.5 L -5.11891,-160.199 L -5.1754,-159.903 L -5.26852,-159.617 L -5.39685,-159.344
 L -5.55835,-159.089 L -5.75047,-158.857 L -5.97017,-158.651 L -6.214,-158.474 L -6.47812,-158.328 L -6.75835,-158.217
 L -7.05028,-158.143 L -7.34929,-158.105 z
M -7.6507,-113.105 L -7.94971,-113.143 L -8.24164,-113.217 L -8.52187,-113.328 L -8.78598,-113.474 L -9.02982,-113.651
 L -9.24951,-113.857 L -9.44164,-114.089 L -9.60313,-114.344 L -9.73146,-114.617 L -9.82458,-114.903 L -9.88107,-115.199
 L -9.89999,-115.5 L -9.88107,-115.801 L -9.82458,-116.097 L -9.73146,-116.383 L -9.60313,-116.656 L -9.44164,-116.911
 L -9.24951,-117.143 L -9.02982,-117.349 L -8.78598,-117.526 L -8.52187,-117.672 L -8.24164,-117.783 L -7.94971,-117.857
 L -7.6507,-117.895 L -7.34929,-117.895 L -7.05028,-117.857 L -6.75835,-117.783 L -6.47812,-117.672 L -6.214,-117.526
 L -5.97017,-117.349 L -5.75047,-117.143 L -5.55835,-116.911 L -5.39685,-116.656 L -5.26852,-116.383 L -5.1754,-116.097
 L -5.11891,-115.801 L -5.09999,-115.5 L -5.11891,-115.199 L -5.1754,-114.903 L -5.26852,-114.617 L -5.39685,-114.344
 L -5.55835,-114.089 L -5.75047,-113.857 L -5.97017,-113.651 L -6.214,-113.474 L -6.47812,-113.328 L -6.75835,-113.217
 L -7.05028,-113.143 L -7.34929,-113.105 z
M 7.34929,-113.105 L 7.05028,-113.143 L 6.75835,-113.217 L 6.47812,-113.328 L 6.214,-113.474 L 5.97017,-113.651
 L 5.75047,-113.857 L 5.55835,-114.089 L 5.39685,-114.344 L 5.26852,-114.617 L 5.1754,-114.903 L 5.11891,-115.199
 L 5.09999,-115.5 L 5.11891,-115.801 L 5.1754,-116.097 L 5.26852,-116.383 L 5.39685,-116.656 L 5.55835,-116.911
 L 5.75047,-117.143 L 5.97017,-117.349 L 6.214,-117.526 L 6.47812,-117.672 L 6.75835,-117.783 L 7.05028,-117.857
 L 7.34929,-117.895 L 7.6507,-117.895 L 7.94971,-117.857 L 8.24164,-117.783 L 8.52187,-117.672 L 8.78598,-117.526
 L 9.02982,-117.349 L 9.24951,-117.143 L 9.44164,-116.911 L 9.60313,-116.656 L 9.73146,-116.383 L 9.82458,-116.097
 L 9.88107,-115.801 L 9.89999,-115.5 L 9.88107,-115.199 L 9.82458,-114.903 L 9.73146,-114.617 L 9.60313,-114.344
 L 9.44164,-114.089 L 9.24951,-113.857 L 9.02982,-113.651 L 8.78598,-113.474 L 8.52187,-113.328 L 8.24164,-113.217
 L 7.94971,-113.143 L 7.6507,-113.105 z
" stroke="black" fill="lightgray" stroke-width="0.5"/>
</svg>
