<?xml version="1.0" standalone="no"?>
<!DOCTYPE svg PUBLIC "-//W3C//DTD SVG 1.1//EN" "http://www.w3.org/Graphics/SVG/1.1/DTD/svg11.dtd">
<svg width="38mm" height="100mm" viewBox="-19 -185 38 100" xmlns="http://www.w3.org/2000/svg" version="1.1">
<title>OpenSCAD Model</title>
<path d="
M 14.6869,-139.589 L 15.2951,-139.745 L 15.8789,-139.976 L 16.4291,-140.278 L 16.9371,-140.647 L 17.3948,-141.077
 L 17.7951,-141.561 L 18.1315,-142.091 L 18.3989,-142.659 L 18.5929,-143.257 L 18.7106,-143.873 L 18.75,-144.5
 L 18.75,-179.5 L 18.7106,-180.127 L 18.5929,-180.743 L 18.3989,-181.341 L 18.1315,-181.909 L 17.7951,-182.439
 L 17.3948,-182.923 L 16.9371,-183.353 L 16.4291,-183.722 L 15.8789,-184.024 L 15.2951,-184.255 L 14.6869,-184.411
 L 14.0639,-184.49 L -14.0639,-184.49 L -14.6869,-184.411 L -15.2951,-184.255 L -15.8789,-184.024 L -16.4291,-183.722
 L -16.9371,-183.353 L -17.3948,-182.923 L -17.7951,-182.439 L -18.1315,-181.909 L -18.3989,-181.341 L -18.5929,-180.743
 L -18.7106,-180.127 L -18.75,-179.5 L -18.75,-144.5 L -18.7106,-143.873 L -18.5929,-143.257 L -18.3989,-142.659
 L -18.1315,-142.091 L -17.7951,-141.561 L -17.3948,-141.077 L -16.9371,-140.647 L -16.4291,-140.278 L -15.8789,-139.976
 L -15.2951,-139.745 L -14.6869,-139.589 L -14.0639,-139.51 L 14.0639,-139.51 z
M -8.50392,-140.04 L -8.07086,-140.278 L -7.56287,-140.647 L -7.10515,-141.077 L -6.70491,-141.561 L -6.36845,-142.091
 L -6.1011,-142.659 L -5.90707,-143.257 L -5.78941,-143.873 L -5.75,-144.5 L -5.75,-147.5 L -5.78941,-148.127
 L -5.90707,-148.743 L -6.1011,-149.341 L -6.36845,-149.909 L -6.70491,-150.439 L -7.10515,-150.923 L -7.56287,-151.353
 L -8.07086,-151.722 L -8.62109,-152.024 L -9.20491,-152.255 L -9.81308,-152.411 L -10.436,-152.49 L -14.0639,-152.49
 L -14.6869,-152.411 L -15.2951,-152.255 L -15.8789,-152.024 L -16.4291,-151.722 L -16.9371,-151.353 L -17.3948,-150.923
 L -17.7951,-150.439 L -18.1315,-149.909 L -18.2185,-149.724 L -18.2185,-179.5 L -18.1833,-180.06 L -18.0782,-180.611
 L -17.9047,-181.145 L -17.6658,-181.653 L -17.3651,-182.127 L -17.0074,-182.559 L -16.5983,-182.943 L -16.1444,-183.273
 L -15.6526,-183.543 L -15.1308,-183.75 L -14.5873,-183.889 L -14.0306,-183.96 L 14.0306,-183.96 L 14.5873,-183.889
 L 15.1308,-183.75 L 15.6526,-183.543 L 16.1444,-183.273 L 16.5983,-182.943 L 17.0074,-182.559 L 17.3651,-182.127
 L 17.6658,-181.653 L 17.9047,-181.145 L 18.0782,-180.611 L 18.1833,-180.06 L 18.2185,-179.5 L 18.2185,-144.5
 L 18.1833,-143.94 L 18.0782,-143.389 L 17.9047,-142.855 L 17.6658,-142.347 L 17.3651,-141.873 L 17.0074,-141.441
 L 16.5983,-141.057 L 16.1444,-140.727 L 15.6526,-140.457 L 15.1308,-140.25 L 14.5873,-140.111 L 14.0306,-140.04
 z
M 11.7184,-174.544 L 12.0225,-174.622 L 12.3144,-174.738 L 12.5896,-174.889 L 12.8436,-175.074 L 13.0724,-175.289
 L 13.2725,-175.531 L 13.4408,-175.796 L 13.5744,-176.08 L 13.6714,-176.378 L 13.7303,-176.687 L 13.75,-177
 L 13.7303,-177.313 L 13.6714,-177.622 L 13.5744,-177.92 L 13.4408,-178.204 L 13.2725,-178.469 L 13.0724,-178.711
 L 12.8436,-178.926 L 12.5896,-179.111 L 12.3144,-179.262 L 12.0225,-179.378 L 11.7184,-179.456 L 11.407,-179.495
 L 11.093,-179.495 L 10.7815,-179.456 L 10.4774,-179.378 L 10.1855,-179.262 L 9.91043,-179.111 L 9.65643,-178.926
 L 9.42757,-178.711 L 9.22745,-178.469 L 9.05922,-178.204 L 8.92555,-177.92 L 8.82854,-177.622 L 8.7697,-177.313
 L 8.75,-177 L 8.7697,-176.687 L 8.82854,-176.378 L 8.92555,-176.08 L 9.05922,-175.796 L 9.22745,-175.531
 L 9.42757,-175.289 L 9.65643,-175.074 L 9.91043,-174.889 L 10.1855,-174.738 L 10.4774,-174.622 L 10.7815,-174.544
 L 11.093,-174.505 L 11.407,-174.505 z
M 11.1558,-175.503 L 10.9689,-175.527 L 10.7865,-175.573 L 10.6113,-175.643 L 10.4463,-175.734 L 10.2939,-175.844
 L 10.1565,-175.973 L 10.0365,-176.118 L 9.93553,-176.277 L 9.85533,-176.448 L 9.79712,-176.627 L 9.76183,-176.812
 L 9.75,-177 L 9.76183,-177.188 L 9.79712,-177.373 L 9.85533,-177.552 L 9.93553,-177.723 L 10.0365,-177.882
 L 10.1565,-178.027 L 10.2939,-178.156 L 10.4463,-178.266 L 10.6113,-178.357 L 10.7865,-178.427 L 10.9689,-178.473
 L 11.1558,-178.497 L 11.3442,-178.497 L 11.5311,-178.473 L 11.7135,-178.427 L 11.8887,-178.357 L 12.0537,-178.266
 L 12.2061,-178.156 L 12.3434,-178.027 L 12.4635,-177.882 L 12.5645,-177.723 L 12.6447,-177.552 L 12.7029,-177.373
 L 12.7382,-177.188 L 12.75,-177 L 12.7382,-176.812 L 12.7029,-176.627 L 12.6447,-176.448 L 12.5645,-176.277
 L 12.4635,-176.118 L 12.3434,-175.973 L 12.2061,-175.844 L 12.0537,-175.734 L 11.8887,-175.643 L 11.7135,-175.573
 L 11.5311,-175.527 L 11.3442,-175.503 z
M -11.3442,-145.503 L -11.5311,-145.527 L -11.7135,-145.573 L -11.8887,-145.643 L -12.0537,-145.734 L -12.2061,-145.844
 L -12.3434,-145.973 L -12.4635,-146.118 L -12.5645,-146.277 L -12.6447,-146.448 L -12.7029,-146.627 L -12.7382,-146.812
 L -12.75,-147 L -12.7382,-147.188 L -12.7029,-147.373 L -12.6447,-147.552 L -12.5645,-147.723 L -12.4635,-147.882
 L -12.3434,-148.027 L -12.2061,-148.156 L -12.0537,-148.266 L -11.8887,-148.357 L -11.7135,-148.427 L -11.5311,-148.473
 L -11.3442,-148.497 L -11.1558,-148.497 L -10.9689,-148.473 L -10.7865,-148.427 L -10.6113,-148.357 L -10.4463,-148.266
 L -10.2939,-148.156 L -10.1565,-148.027 L -10.0365,-147.882 L -9.93553,-147.723 L -9.85533,-147.552 L -9.79712,-147.373
 L -9.76183,-147.188 L -9.75,-147 L -9.76183,-146.812 L -9.79712,-146.627 L -9.85533,-146.448 L -9.93553,-146.277
 L -10.0365,-146.118 L -10.1565,-145.973 L -10.2939,-145.844 L -10.4463,-145.734 L -10.6113,-145.643 L -10.7865,-145.573
 L -10.9689,-145.527 L -11.1558,-145.503 z
M 14.6869,-85.5886 L 15.2951,-85.7447 L 15.8789,-85.9759 L 16.4291,-86.2784 L 16.9371,-86.6474 L 17.3948,-87.0773
 L 17.7951,-87.5611 L 18.1315,-88.0912 L 18.3989,-88.6594 L 18.5929,-89.2566 L 18.7106,-89.8733 L 18.75,-90.5
 L 18.75,-125.5 L 18.7106,-126.127 L 18.5929,-126.743 L 18.3989,-127.341 L 18.1315,-127.909 L 17.7951,-128.439
 L 17.3948,-128.923 L 16.9371,-129.353 L 16.4291,-129.722 L 15.8789,-130.024 L 15.2951,-130.255 L 14.6869,-130.411
 L 14.0639,-130.49 L -14.0639,-130.49 L -14.6869,-130.411 L -15.2951,-130.255 L -15.8789,-130.024 L -16.4291,-129.722
 L -16.9371,-129.353 L -17.3948,-128.923 L -17.7951,-128.439 L -18.1315,-127.909 L -18.3989,-127.341 L -18.5929,-126.743
 L -18.7106,-126.127 L -18.75,-125.5 L -18.75,-90.5 L -18.7106,-89.8733 L -18.5929,-89.2566 L -18.3989,-88.6594
 L -18.1315,-88.0912 L -17.7951,-87.5611 L -17.3948,-87.0773 L -16.9371,-86.6474 L -16.4291,-86.2784 L -15.8789,-85.9759
 L -15.2951,-85.7447 L -14.6869,-85.5886 L -14.0639,-85.5099 L 14.0639,-85.5099 z
M -6.62805,-87.6822 L -6.36845,-88.0912 L -6.1011,-88.6594 L -5.90707,-89.2566 L -5.78941,-89.8733 L -5.75,-90.5
 L -5.75,-93.5 L -5.78941,-94.1267 L -5.90707,-94.7435 L -6.1011,-95.3406 L -6.36845,-95.9088 L -6.70491,-96.4389
 L -7.10515,-96.9227 L -7.56287,-97.3526 L -8.07086,-97.7216 L -8.62109,-98.0241 L -9.20491,-98.2553 L -9.81308,-98.4114
 L -10.436,-98.4901 L -14.0639,-98.4901 L -14.6869,-98.4114 L -15.2951,-98.2553 L -15.8789,-98.0241 L -16.4291,-97.7216
 L -16.5734,-97.6168 L -16.5734,-125.5 L -16.5511,-125.854 L -16.4847,-126.202 L -16.3751,-126.539 L -16.2242,-126.86
 L -16.0342,-127.16 L -15.8082,-127.433 L -15.5497,-127.675 L -15.2628,-127.884 L -14.9521,-128.055 L -14.6225,-128.185
 L -14.2791,-128.273 L -13.9273,-128.318 L 6.62805,-128.318 L 6.36845,-127.909 L 6.1011,-127.341 L 5.90707,-126.743
 L 5.78941,-126.127 L 5.75,-125.5 L 5.75,-122.5 L 5.78941,-121.873 L 5.90707,-121.257 L 6.1011,-120.659
 L 6.36845,-120.091 L 6.70491,-119.561 L 7.10515,-119.077 L 7.56287,-118.647 L 8.07086,-118.278 L 8.62109,-117.976
 L 9.20491,-117.745 L 9.81308,-117.589 L 10.436,-117.51 L 14.0639,-117.51 L 14.6869,-117.589 L 15.2951,-117.745
 L 15.8789,-117.976 L 16.4291,-118.278 L 16.5734,-118.383 L 16.5734,-90.5 L 16.5511,-90.1461 L 16.4847,-89.7979
 L 16.3751,-89.4606 L 16.2242,-89.1398 L 16.0342,-88.8404 L 15.8082,-88.5672 L 15.5497,-88.3245 L 15.2628,-88.1161
 L 14.9521,-87.9453 L 14.6225,-87.8148 L 14.2791,-87.7266 L 13.9273,-87.6822 z
M 11.0993,-120.605 L 10.8003,-120.643 L 10.5083,-120.717 L 10.2281,-120.828 L 9.964,-120.974 L 9.72017,-121.151
 L 9.50047,-121.357 L 9.30835,-121.589 L 9.14685,-121.844 L 9.01852,-122.117 L 8.9254,-122.403 L 8.86891,-122.699
 L 8.84999,-123 L 8.86891,-123.301 L 8.9254,-123.597 L 9.01852,-123.883 L 9.14685,-124.156 L 9.30835,-124.411
 L 9.50047,-124.643 L 9.72017,-124.849 L 9.964,-125.026 L 10.2281,-125.172 L 10.5083,-125.283 L 10.8003,-125.357
 L 11.0993,-125.395 L 11.4007,-125.395 L 11.6997,-125.357 L 11.9916,-125.283 L 12.2719,-125.172 L 12.536,-125.026
 L 12.7798,-124.849 L 12.9995,-124.643 L 13.1916,-124.411 L 13.3531,-124.156 L 13.4815,-123.883 L 13.5746,-123.597
 L 13.6311,-123.301 L 13.65,-123 L 13.6311,-122.699 L 13.5746,-122.403 L 13.4815,-122.117 L 13.3531,-121.844
 L 13.1916,-121.589 L 12.9995,-121.357 L 12.7798,-121.151 L 12.536,-120.974 L 12.2719,-120.828 L 11.9916,-120.717
 L 11.6997,-120.643 L 11.4007,-120.605 z
M -11.4007,-90.6047 L -11.6997,-90.6425 L -11.9916,-90.7175 L -12.2719,-90.8284 L -12.536,-90.9736 L -12.7798,-91.1508
 L -12.9995,-91.3571 L -13.1916,-91.5893 L -13.3531,-91.8438 L -13.4815,-92.1165 L -13.5746,-92.4032 L -13.6311,-92.6992
 L -13.65,-93 L -13.6311,-93.3008 L -13.5746,-93.5969 L -13.4815,-93.8835 L -13.3531,-94.1562 L -13.1916,-94.4107
 L -12.9995,-94.6429 L -12.7798,-94.8492 L -12.536,-95.0264 L -12.2719,-95.1716 L -11.9916,-95.2825 L -11.6997,-95.3575
 L -11.4007,-95.3953 L -11.0993,-95.3953 L -10.8003,-95.3575 L -10.5083,-95.2825 L -10.2281,-95.1716 L -9.964,-95.0264
 L -9.72017,-94.8492 L -9.50047,-94.6429 L -9.30835,-94.4107 L -9.14685,-94.1562 L -9.01852,-93.8835 L -8.9254,-93.5969
 L -8.86891,-93.3008 L -8.84999,-93 L -8.86891,-92.6992 L -8.9254,-92.4032 L -9.01852,-92.1165 L -9.14685,-91.8438
 L -9.30835,-91.5893 L -9.50047,-91.3571 L -9.72017,-91.1508 L -9.964,-90.9736 L -10.2281,-90.8284 L -10.5083,-90.7175
 L -10.8003,-90.6425 L -11.0993,-90.6047 z
" stroke="black" fill="lightgray" stroke-width="0.5"/>
</svg>
