<?xml version="1.0" standalone="no"?>
<!DOCTYPE svg PUBLIC "-//W3C//DTD SVG 1.1//EN" "http://www.w3.org/Graphics/SVG/1.1/DTD/svg11.dtd">
<svg width="44mm" height="264mm" viewBox="-22 -242 44 264" xmlns="http://www.w3.org/2000/svg" version="1.1">
<title>OpenSCAD Model</title>
<path d="
M 4.02869,-198.881 L 6.64386,-199.552 L 9.15425,-200.546 L 11.5203,-201.847 L 13.7046,-203.434 L 15.6728,-205.282
 L 17.3939,-207.363 L 18.8406,-209.642 L 19.9902,-212.085 L 20.8245,-214.653 L 21.3305,-217.305 L 21.5,-220
 L 21.3305,-222.695 L 20.8245,-225.347 L 19.9902,-227.915 L 18.8406,-230.358 L 17.3939,-232.637 L 15.6728,-234.718
 L 13.7046,-236.566 L 11.5203,-238.153 L 9.15425,-239.454 L 6.64386,-240.448 L 4.02869,-241.119 L 1.34999,-241.458
 L -1.34999,-241.458 L -4.02869,-241.119 L -6.64386,-240.448 L -9.15425,-239.454 L -11.5203,-238.153 L -13.7046,-236.566
 L -15.6728,-234.718 L -17.3939,-232.637 L -18.8406,-230.358 L -19.9902,-227.915 L -20.8245,-225.347 L -21.3305,-222.695
 L -21.5,-220 L -21.3305,-217.305 L -20.8245,-214.653 L -19.9902,-212.085 L -18.8406,-209.642 L -17.3939,-207.363
 L -15.6728,-205.282 L -13.7046,-203.434 L -11.5203,-201.847 L -9.15425,-200.546 L -6.64386,-199.552 L -4.02869,-198.881
 L -1.34999,-198.542 L 1.34999,-198.542 z
M -0.18837,-232.006 L -0.562134,-232.053 L -0.927048,-232.147 L -1.27733,-232.286 L -1.60747,-232.467 L -1.91226,-232.688
 L -2.1869,-232.946 L -2.42705,-233.237 L -2.62891,-233.555 L -2.78932,-233.896 L -2.90575,-234.254 L -2.97633,-234.624
 L -3,-235 L -2.97633,-235.376 L -2.90575,-235.746 L -2.78932,-236.104 L -2.62891,-236.445 L -2.42705,-236.763
 L -2.1869,-237.054 L -1.91226,-237.312 L -1.60747,-237.533 L -1.27733,-237.714 L -0.927048,-237.853 L -0.562134,-237.947
 L -0.18837,-237.994 L 0.18837,-237.994 L 0.562134,-237.947 L 0.927048,-237.853 L 1.27733,-237.714 L 1.60747,-237.533
 L 1.91226,-237.312 L 2.1869,-237.054 L 2.42705,-236.763 L 2.62891,-236.445 L 2.78932,-236.104 L 2.90575,-235.746
 L 2.97633,-235.376 L 3,-235 L 2.97633,-234.624 L 2.90575,-234.254 L 2.78932,-233.896 L 2.62891,-233.555
 L 2.42705,-233.237 L 2.1869,-232.946 L 1.91226,-232.688 L 1.60747,-232.467 L 1.27733,-232.286 L 0.927048,-232.147
 L 0.562134,-232.053 L 0.18837,-232.006 z
M -10.7954,-227.613 L -11.1691,-227.66 L -11.534,-227.754 L -11.8843,-227.893 L -12.2145,-228.074 L -12.5193,-228.295
 L -12.7939,-228.553 L -13.034,-228.844 L -13.2359,-229.162 L -13.3963,-229.503 L -13.5127,-229.861 L -13.5833,-230.231
 L -13.607,-230.607 L -13.5833,-230.983 L -13.5127,-231.353 L -13.3963,-231.711 L -13.2359,-232.052 L -13.034,-232.37
 L -12.7939,-232.661 L -12.5193,-232.919 L -12.2145,-233.14 L -11.8843,-233.321 L -11.534,-233.46 L -11.1691,-233.554
 L -10.7954,-233.601 L -10.4186,-233.601 L -10.0448,-233.554 L -9.67995,-233.46 L -9.32965,-233.321 L -8.99951,-233.14
 L -8.69472,-232.919 L -8.42009,-232.661 L -8.17995,-232.37 L -7.97807,-232.052 L -7.81766,-231.711 L -7.70125,-231.353
 L -7.63065,-230.983 L -7.60699,-230.607 L -7.63065,-230.231 L -7.70125,-229.861 L -7.81766,-229.503 L -7.97807,-229.162
 L -8.17995,-228.844 L -8.42009,-228.553 L -8.69472,-228.295 L -8.99951,-228.074 L -9.32965,-227.893 L -9.67995,-227.754
 L -10.0448,-227.66 L -10.4186,-227.613 z
M 10.4186,-227.613 L 10.0448,-227.66 L 9.67995,-227.754 L 9.32965,-227.893 L 8.99951,-228.074 L 8.69472,-228.295
 L 8.42009,-228.553 L 8.17995,-228.844 L 7.97807,-229.162 L 7.81766,-229.503 L 7.70125,-229.861 L 7.63065,-230.231
 L 7.60699,-230.607 L 7.63065,-230.983 L 7.70125,-231.353 L 7.81766,-231.711 L 7.97807,-232.052 L 8.17995,-232.37
 L 8.42009,-232.661 L 8.69472,-232.919 L 8.99951,-233.14 L 9.32965,-233.321 L 9.67995,-233.46 L 10.0448,-233.554
 L 10.4186,-233.601 L 10.7954,-233.601 L 11.1691,-233.554 L 11.534,-233.46 L 11.8843,-233.321 L 12.2145,-233.14
 L 12.5193,-232.919 L 12.7939,-232.661 L 13.034,-232.37 L 13.2359,-232.052 L 13.3963,-231.711 L 13.5127,-231.353
 L 13.5833,-230.983 L 13.607,-230.607 L 13.5833,-230.231 L 13.5127,-229.861 L 13.3963,-229.503 L 13.2359,-229.162
 L 13.034,-228.844 L 12.7939,-228.553 L 12.5193,-228.295 L 12.2145,-228.074 L 11.8843,-227.893 L 11.534,-227.754
 L 11.1691,-227.66 L 10.7954,-227.613 z
M -0.0941772,-226.003 L -0.281067,-226.027 L -0.463516,-226.073 L -0.638657,-226.143 L -0.803726,-226.234 L -0.956131,-226.344
 L -1.09344,-226.473 L -1.21352,-226.618 L -1.31445,-226.777 L -1.39465,-226.948 L -1.45287,-227.127 L -1.48816,-227.312
 L -1.5,-227.5 L -1.48816,-227.688 L -1.45287,-227.873 L -1.39465,-228.052 L -1.31445,-228.223 L -1.21352,-228.382
 L -1.09344,-228.527 L -0.956131,-228.656 L -0.803726,-228.766 L -0.638657,-228.857 L -0.463516,-228.927 L -0.281067,-228.973
 L -0.0941772,-228.997 L 0.0941772,-228.997 L 0.281067,-228.973 L 0.463516,-228.927 L 0.638657,-228.857 L 0.803726,-228.766
 L 0.956131,-228.656 L 1.09344,-228.527 L 1.21352,-228.382 L 1.31445,-228.223 L 1.39465,-228.052 L 1.45287,-227.873
 L 1.48816,-227.688 L 1.5,-227.5 L 1.48816,-227.312 L 1.45287,-227.127 L 1.39465,-226.948 L 1.31445,-226.777
 L 1.21352,-226.618 L 1.09344,-226.473 L 0.956131,-226.344 L 0.803726,-226.234 L 0.638657,-226.143 L 0.463516,-226.073
 L 0.281067,-226.027 L 0.0941772,-226.003 z
M 14.8116,-217.006 L 14.4379,-217.053 L 14.0729,-217.147 L 13.7227,-217.286 L 13.3925,-217.467 L 13.0877,-217.688
 L 12.8131,-217.946 L 12.5729,-218.237 L 12.3711,-218.555 L 12.2107,-218.896 L 12.0942,-219.254 L 12.0237,-219.624
 L 12,-220 L 12.0237,-220.376 L 12.0942,-220.746 L 12.2107,-221.104 L 12.3711,-221.445 L 12.5729,-221.763
 L 12.8131,-222.054 L 13.0877,-222.312 L 13.3925,-222.533 L 13.7227,-222.714 L 14.0729,-222.853 L 14.4379,-222.947
 L 14.8116,-222.994 L 15.1884,-222.994 L 15.5621,-222.947 L 15.927,-222.853 L 16.2773,-222.714 L 16.6075,-222.533
 L 16.9123,-222.312 L 17.1869,-222.054 L 17.427,-221.763 L 17.6289,-221.445 L 17.7893,-221.104 L 17.9057,-220.746
 L 17.9763,-220.376 L 18,-220 L 17.9763,-219.624 L 17.9057,-219.254 L 17.7893,-218.896 L 17.6289,-218.555
 L 17.427,-218.237 L 17.1869,-217.946 L 16.9123,-217.688 L 16.6075,-217.467 L 16.2773,-217.286 L 15.927,-217.147
 L 15.5621,-217.053 L 15.1884,-217.006 z
M -15.1884,-217.006 L -15.5621,-217.053 L -15.927,-217.147 L -16.2773,-217.286 L -16.6075,-217.467 L -16.9123,-217.688
 L -17.1869,-217.946 L -17.427,-218.237 L -17.6289,-218.555 L -17.7893,-218.896 L -17.9057,-219.254 L -17.9763,-219.624
 L -18,-220 L -17.9763,-220.376 L -17.9057,-220.746 L -17.7893,-221.104 L -17.6289,-221.445 L -17.427,-221.763
 L -17.1869,-222.054 L -16.9123,-222.312 L -16.6075,-222.533 L -16.2773,-222.714 L -15.927,-222.853 L -15.5621,-222.947
 L -15.1884,-222.994 L -14.8116,-222.994 L -14.4379,-222.947 L -14.0729,-222.853 L -13.7227,-222.714 L -13.3925,-222.533
 L -13.0877,-222.312 L -12.8131,-222.054 L -12.5729,-221.763 L -12.3711,-221.445 L -12.2107,-221.104 L -12.0942,-220.746
 L -12.0237,-220.376 L -12,-220 L -12.0237,-219.624 L -12.0942,-219.254 L -12.2107,-218.896 L -12.3711,-218.555
 L -12.5729,-218.237 L -12.8131,-217.946 L -13.0877,-217.688 L -13.3925,-217.467 L -13.7227,-217.286 L -14.0729,-217.147
 L -14.4379,-217.053 L -14.8116,-217.006 z
M -0.185226,-217.056 L -0.552765,-217.102 L -0.911591,-217.194 L -1.25604,-217.331 L -1.58069,-217.509 L -1.88039,-217.727
 L -2.15045,-217.981 L -2.3866,-218.266 L -2.5851,-218.579 L -2.74283,-218.914 L -2.85732,-219.266 L -2.92673,-219.63
 L -2.95,-220 L -2.92673,-220.37 L -2.85732,-220.734 L -2.74283,-221.086 L -2.5851,-221.421 L -2.3866,-221.734
 L -2.15045,-222.019 L -1.88039,-222.273 L -1.58069,-222.491 L -1.25604,-222.669 L -0.911591,-222.806 L -0.552765,-222.898
 L -0.185226,-222.944 L 0.185226,-222.944 L 0.552765,-222.898 L 0.911591,-222.806 L 1.25604,-222.669 L 1.58069,-222.491
 L 1.88039,-222.273 L 2.15045,-222.019 L 2.3866,-221.734 L 2.5851,-221.421 L 2.74283,-221.086 L 2.85732,-220.734
 L 2.92673,-220.37 L 2.95,-220 L 2.92673,-219.63 L 2.85732,-219.266 L 2.74283,-218.914 L 2.5851,-218.579
 L 2.3866,-218.266 L 2.15045,-217.981 L 1.88039,-217.727 L 1.58069,-217.509 L 1.25604,-217.331 L 0.911591,-217.194
 L 0.552765,-217.102 L 0.185226,-217.056 z
M -8.09418,-218.503 L -8.28107,-218.527 L -8.46352,-218.573 L -8.63866,-218.643 L -8.80373,-218.734 L -8.95613,-218.844
 L -9.09344,-218.973 L -9.21352,-219.118 L -9.31445,-219.277 L -9.39465,-219.448 L -9.45287,-219.627 L -9.48816,-219.812
 L -9.5,-220 L -9.48816,-220.188 L -9.45287,-220.373 L -9.39465,-220.552 L -9.31445,-220.723 L -9.21352,-220.882
 L -9.09344,-221.027 L -8.95613,-221.156 L -8.80373,-221.266 L -8.63866,-221.357 L -8.46352,-221.427 L -8.28107,-221.473
 L -8.09418,-221.497 L -7.40581,-221.497 L -7.21892,-221.473 L -7.03647,-221.427 L -6.86133,-221.357 L -6.69626,-221.266
 L -6.54385,-221.156 L -6.40654,-221.027 L -6.28647,-220.882 L -6.18553,-220.723 L -6.10533,-220.552 L -6.04712,-220.373
 L -6.01183,-220.188 L -6,-220 L -6.01183,-219.812 L -6.04712,-219.627 L -6.10533,-219.448 L -6.18553,-219.277
 L -6.28647,-219.118 L -6.40654,-218.973 L -6.54385,-218.844 L -6.69626,-218.734 L -6.86133,-218.643 L -7.03647,-218.573
 L -7.21892,-218.527 L -7.40581,-218.503 z
M 7.40581,-218.503 L 7.21892,-218.527 L 7.03647,-218.573 L 6.86133,-218.643 L 6.69626,-218.734 L 6.54385,-218.844
 L 6.40654,-218.973 L 6.28647,-219.118 L 6.18553,-219.277 L 6.10533,-219.448 L 6.04712,-219.627 L 6.01183,-219.812
 L 6,-220 L 6.01183,-220.188 L 6.04712,-220.373 L 6.10533,-220.552 L 6.18553,-220.723 L 6.28647,-220.882
 L 6.40654,-221.027 L 6.54385,-221.156 L 6.69626,-221.266 L 6.86133,-221.357 L 7.03647,-221.427 L 7.21892,-221.473
 L 7.40581,-221.497 L 8.09418,-221.497 L 8.28107,-221.473 L 8.46352,-221.427 L 8.63866,-221.357 L 8.80373,-221.266
 L 8.95613,-221.156 L 9.09344,-221.027 L 9.21352,-220.882 L 9.31445,-220.723 L 9.39465,-220.552 L 9.45287,-220.373
 L 9.48816,-220.188 L 9.5,-220 L 9.48816,-219.812 L 9.45287,-219.627 L 9.39465,-219.448 L 9.31445,-219.277
 L 9.21352,-219.118 L 9.09344,-218.973 L 8.95613,-218.844 L 8.80373,-218.734 L 8.63866,-218.643 L 8.46352,-218.573
 L 8.28107,-218.527 L 8.09418,-218.503 z
M -0.0941772,-211.003 L -0.281067,-211.027 L -0.463516,-211.073 L -0.638657,-211.143 L -0.803726,-211.234 L -0.956131,-211.344
 L -1.09344,-211.473 L -1.21352,-211.618 L -1.31445,-211.777 L -1.39465,-211.948 L -1.45287,-212.127 L -1.48816,-212.312
 L -1.5,-212.5 L -1.48816,-212.688 L -1.45287,-212.873 L -1.39465,-213.052 L -1.31445,-213.223 L -1.21352,-213.382
 L -1.09344,-213.527 L -0.956131,-213.656 L -0.803726,-213.766 L -0.638657,-213.857 L -0.463516,-213.927 L -0.281067,-213.973
 L -0.0941772,-213.997 L 0.0941772,-213.997 L 0.281067,-213.973 L 0.463516,-213.927 L 0.638657,-213.857 L 0.803726,-213.766
 L 0.956131,-213.656 L 1.09344,-213.527 L 1.21352,-213.382 L 1.31445,-213.223 L 1.39465,-213.052 L 1.45287,-212.873
 L 1.48816,-212.688 L 1.5,-212.5 L 1.48816,-212.312 L 1.45287,-212.127 L 1.39465,-211.948 L 1.31445,-211.777
 L 1.21352,-211.618 L 1.09344,-211.473 L 0.956131,-211.344 L 0.803726,-211.234 L 0.638657,-211.143 L 0.463516,-211.073
 L 0.281067,-211.027 L 0.0941772,-211.003 z
M 10.4186,-206.399 L 10.0448,-206.446 L 9.67995,-206.54 L 9.32965,-206.679 L 8.99951,-206.86 L 8.69472,-207.081
 L 8.42009,-207.339 L 8.17995,-207.63 L 7.97807,-207.948 L 7.81766,-208.289 L 7.70125,-208.647 L 7.63065,-209.017
 L 7.60699,-209.393 L 7.63065,-209.769 L 7.70125,-210.139 L 7.81766,-210.497 L 7.97807,-210.838 L 8.17995,-211.156
 L 8.42009,-211.447 L 8.69472,-211.705 L 8.99951,-211.926 L 9.32965,-212.107 L 9.67995,-212.246 L 10.0448,-212.34
 L 10.4186,-212.387 L 10.7954,-212.387 L 11.1691,-212.34 L 11.534,-212.246 L 11.8843,-212.107 L 12.2145,-211.926
 L 12.5193,-211.705 L 12.7939,-211.447 L 13.034,-211.156 L 13.2359,-210.838 L 13.3963,-210.497 L 13.5127,-210.139
 L 13.5833,-209.769 L 13.607,-209.393 L 13.5833,-209.017 L 13.5127,-208.647 L 13.3963,-208.289 L 13.2359,-207.948
 L 13.034,-207.63 L 12.7939,-207.339 L 12.5193,-207.081 L 12.2145,-206.86 L 11.8843,-206.679 L 11.534,-206.54
 L 11.1691,-206.446 L 10.7954,-206.399 z
M -10.7954,-206.399 L -11.1691,-206.446 L -11.534,-206.54 L -11.8843,-206.679 L -12.2145,-206.86 L -12.5193,-207.081
 L -12.7939,-207.339 L -13.034,-207.63 L -13.2359,-207.948 L -13.3963,-208.289 L -13.5127,-208.647 L -13.5833,-209.017
 L -13.607,-209.393 L -13.5833,-209.769 L -13.5127,-210.139 L -13.3963,-210.497 L -13.2359,-210.838 L -13.034,-211.156
 L -12.7939,-211.447 L -12.5193,-211.705 L -12.2145,-211.926 L -11.8843,-212.107 L -11.534,-212.246 L -11.1691,-212.34
 L -10.7954,-212.387 L -10.4186,-212.387 L -10.0448,-212.34 L -9.67995,-212.246 L -9.32965,-212.107 L -8.99951,-211.926
 L -8.69472,-211.705 L -8.42009,-211.447 L -8.17995,-211.156 L -7.97807,-210.838 L -7.81766,-210.497 L -7.70125,-210.139
 L -7.63065,-209.769 L -7.60699,-209.393 L -7.63065,-209.017 L -7.70125,-208.647 L -7.81766,-208.289 L -7.97807,-207.948
 L -8.17995,-207.63 L -8.42009,-207.339 L -8.69472,-207.081 L -8.99951,-206.86 L -9.32965,-206.679 L -9.67995,-206.54
 L -10.0448,-206.446 L -10.4186,-206.399 z
M -0.18837,-202.006 L -0.562134,-202.053 L -0.927048,-202.147 L -1.27733,-202.286 L -1.60747,-202.467 L -1.91226,-202.688
 L -2.1869,-202.946 L -2.42705,-203.237 L -2.62891,-203.555 L -2.78932,-203.896 L -2.90575,-204.254 L -2.97633,-204.624
 L -3,-205 L -2.97633,-205.376 L -2.90575,-205.746 L -2.78932,-206.104 L -2.62891,-206.445 L -2.42705,-206.763
 L -2.1869,-207.054 L -1.91226,-207.312 L -1.60747,-207.533 L -1.27733,-207.714 L -0.927048,-207.853 L -0.562134,-207.947
 L -0.18837,-207.994 L 0.18837,-207.994 L 0.562134,-207.947 L 0.927048,-207.853 L 1.27733,-207.714 L 1.60747,-207.533
 L 1.91226,-207.312 L 2.1869,-207.054 L 2.42705,-206.763 L 2.62891,-206.445 L 2.78932,-206.104 L 2.90575,-205.746
 L 2.97633,-205.376 L 3,-205 L 2.97633,-204.624 L 2.90575,-204.254 L 2.78932,-203.896 L 2.62891,-203.555
 L 2.42705,-203.237 L 2.1869,-202.946 L 1.91226,-202.688 L 1.60747,-202.467 L 1.27733,-202.286 L 0.927048,-202.147
 L 0.562134,-202.053 L 0.18837,-202.006 z
M 4.02869,-88.8808 L 6.64386,-89.5523 L 9.15425,-90.5462 L 11.5203,-91.847 L 13.7046,-93.434 L 15.6728,-95.2822
 L 17.3939,-97.3626 L 18.8406,-99.6423 L 19.9902,-102.085 L 20.8245,-104.653 L 21.3305,-107.305 L 21.5,-110
 L 21.3305,-112.695 L 20.8245,-115.347 L 19.9902,-117.915 L 18.8406,-120.358 L 17.3939,-122.637 L 15.6728,-124.718
 L 13.7046,-126.566 L 11.5203,-128.153 L 9.15425,-129.454 L 6.64386,-130.448 L 4.02869,-131.119 L 1.34999,-131.458
 L -1.34999,-131.458 L -4.02869,-131.119 L -6.64386,-130.448 L -9.15425,-129.454 L -11.5203,-128.153 L -13.7046,-126.566
 L -15.6728,-124.718 L -17.3939,-122.637 L -18.8406,-120.358 L -19.9902,-117.915 L -20.8245,-115.347 L -21.3305,-112.695
 L -21.5,-110 L -21.3305,-107.305 L -20.8245,-104.653 L -19.9902,-102.085 L -18.8406,-99.6423 L -17.3939,-97.3626
 L -15.6728,-95.2822 L -13.7046,-93.434 L -11.5203,-91.847 L -9.15425,-90.5462 L -6.64386,-89.5523 L -4.02869,-88.8808
 L -1.34999,-88.5424 L 1.34999,-88.5424 z
M -0.18837,-122.006 L -0.562134,-122.053 L -0.927048,-122.147 L -1.27733,-122.286 L -1.60747,-122.467 L -1.91226,-122.688
 L -2.1869,-122.946 L -2.42705,-123.237 L -2.62891,-123.555 L -2.78932,-123.896 L -2.90575,-124.254 L -2.97633,-124.624
 L -3,-125 L -2.97633,-125.376 L -2.90575,-125.746 L -2.78932,-126.104 L -2.62891,-126.445 L -2.42705,-126.763
 L -2.1869,-127.054 L -1.91226,-127.312 L -1.60747,-127.533 L -1.27733,-127.714 L -0.927048,-127.853 L -0.562134,-127.947
 L -0.18837,-127.994 L 0.18837,-127.994 L 0.562134,-127.947 L 0.927048,-127.853 L 1.27733,-127.714 L 1.60747,-127.533
 L 1.91226,-127.312 L 2.1869,-127.054 L 2.42705,-126.763 L 2.62891,-126.445 L 2.78932,-126.104 L 2.90575,-125.746
 L 2.97633,-125.376 L 3,-125 L 2.97633,-124.624 L 2.90575,-124.254 L 2.78932,-123.896 L 2.62891,-123.555
 L 2.42705,-123.237 L 2.1869,-122.946 L 1.91226,-122.688 L 1.60747,-122.467 L 1.27733,-122.286 L 0.927048,-122.147
 L 0.562134,-122.053 L 0.18837,-122.006 z
M 7.922,-115.956 L 5.237,-120.607 L 7.922,-125.258 L 13.292,-125.258 L 15.977,-120.607 L 13.292,-115.956
 z
M -13.292,-115.956 L -15.977,-120.607 L -13.292,-125.258 L -7.922,-125.258 L -5.237,-120.607 L -7.922,-115.956
 z
M -0.0941772,-116.003 L -0.281067,-116.027 L -0.463516,-116.073 L -0.638657,-116.143 L -0.803726,-116.234 L -0.956131,-116.344
 L -1.09344,-116.473 L -1.21352,-116.618 L -1.31445,-116.777 L -1.39465,-116.948 L -1.45287,-117.127 L -1.48816,-117.312
 L -1.5,-117.5 L -1.48816,-117.688 L -1.45287,-117.873 L -1.39465,-118.052 L -1.31445,-118.223 L -1.21352,-118.382
 L -1.09344,-118.527 L -0.956131,-118.656 L -0.803726,-118.766 L -0.638657,-118.857 L -0.463516,-118.927 L -0.281067,-118.973
 L -0.0941772,-118.997 L 0.0941772,-118.997 L 0.281067,-118.973 L 0.463516,-118.927 L 0.638657,-118.857 L 0.803726,-118.766
 L 0.956131,-118.656 L 1.09344,-118.527 L 1.21352,-118.382 L 1.31445,-118.223 L 1.39465,-118.052 L 1.45287,-117.873
 L 1.48816,-117.688 L 1.5,-117.5 L 1.48816,-117.312 L 1.45287,-117.127 L 1.39465,-116.948 L 1.31445,-116.777
 L 1.21352,-116.618 L 1.09344,-116.473 L 0.956131,-116.344 L 0.803726,-116.234 L 0.638657,-116.143 L 0.463516,-116.073
 L 0.281067,-116.027 L 0.0941772,-116.003 z
M -15.1884,-107.006 L -15.5621,-107.053 L -15.927,-107.147 L -16.2773,-107.286 L -16.6075,-107.467 L -16.9123,-107.688
 L -17.1869,-107.946 L -17.427,-108.237 L -17.6289,-108.555 L -17.7893,-108.896 L -17.9057,-109.254 L -17.9763,-109.624
 L -18,-110 L -17.9763,-110.376 L -17.9057,-110.746 L -17.7893,-111.104 L -17.6289,-111.445 L -17.427,-111.763
 L -17.1869,-112.054 L -16.9123,-112.312 L -16.6075,-112.533 L -16.2773,-112.714 L -15.927,-112.853 L -15.5621,-112.947
 L -15.1884,-112.994 L -14.8116,-112.994 L -14.4379,-112.947 L -14.0729,-112.853 L -13.7227,-112.714 L -13.3925,-112.533
 L -13.0877,-112.312 L -12.8131,-112.054 L -12.5729,-111.763 L -12.3711,-111.445 L -12.2107,-111.104 L -12.0942,-110.746
 L -12.0237,-110.376 L -12,-110 L -12.0237,-109.624 L -12.0942,-109.254 L -12.2107,-108.896 L -12.3711,-108.555
 L -12.5729,-108.237 L -12.8131,-107.946 L -13.0877,-107.688 L -13.3925,-107.467 L -13.7227,-107.286 L -14.0729,-107.147
 L -14.4379,-107.053 L -14.8116,-107.006 z
M 14.8116,-107.006 L 14.4379,-107.053 L 14.0729,-107.147 L 13.7227,-107.286 L 13.3925,-107.467 L 13.0877,-107.688
 L 12.8131,-107.946 L 12.5729,-108.237 L 12.3711,-108.555 L 12.2107,-108.896 L 12.0942,-109.254 L 12.0237,-109.624
 L 12,-110 L 12.0237,-110.376 L 12.0942,-110.746 L 12.2107,-111.104 L 12.3711,-111.445 L 12.5729,-111.763
 L 12.8131,-112.054 L 13.0877,-112.312 L 13.3925,-112.533 L 13.7227,-112.714 L 14.0729,-112.853 L 14.4379,-112.947
 L 14.8116,-112.994 L 15.1884,-112.994 L 15.5621,-112.947 L 15.927,-112.853 L 16.2773,-112.714 L 16.6075,-112.533
 L 16.9123,-112.312 L 17.1869,-112.054 L 17.427,-111.763 L 17.6289,-111.445 L 17.7893,-111.104 L 17.9057,-110.746
 L 17.9763,-110.376 L 18,-110 L 17.9763,-109.624 L 17.9057,-109.254 L 17.7893,-108.896 L 17.6289,-108.555
 L 17.427,-108.237 L 17.1869,-107.946 L 16.9123,-107.688 L 16.6075,-107.467 L 16.2773,-107.286 L 15.927,-107.147
 L 15.5621,-107.053 L 15.1884,-107.006 z
M -0.185226,-107.056 L -0.552765,-107.102 L -0.911591,-107.194 L -1.25604,-107.331 L -1.58069,-107.509 L -1.88039,-107.727
 L -2.15045,-107.981 L -2.3866,-108.266 L -2.5851,-108.579 L -2.74283,-108.914 L -2.85732,-109.266 L -2.92673,-109.63
 L -2.95,-110 L -2.92673,-110.37 L -2.85732,-110.734 L -2.74283,-111.086 L -2.5851,-111.421 L -2.3866,-111.734
 L -2.15045,-112.019 L -1.88039,-112.273 L -1.58069,-112.491 L -1.25604,-112.669 L -0.911591,-112.806 L -0.552765,-112.898
 L -0.185226,-112.944 L 0.185226,-112.944 L 0.552765,-112.898 L 0.911591,-112.806 L 1.25604,-112.669 L 1.58069,-112.491
 L 1.88039,-112.273 L 2.15045,-112.019 L 2.3866,-111.734 L 2.5851,-111.421 L 2.74283,-111.086 L 2.85732,-110.734
 L 2.92673,-110.37 L 2.95,-110 L 2.92673,-109.63 L 2.85732,-109.266 L 2.74283,-108.914 L 2.5851,-108.579
 L 2.3866,-108.266 L 2.15045,-107.981 L 1.88039,-107.727 L 1.58069,-107.509 L 1.25604,-107.331 L 0.911591,-107.194
 L 0.552765,-107.102 L 0.185226,-107.056 z
M -8.09418,-108.503 L -8.28107,-108.527 L -8.46352,-108.573 L -8.63866,-108.643 L -8.80373,-108.734 L -8.95613,-108.844
 L -9.09344,-108.973 L -9.21352,-109.118 L -9.31445,-109.277 L -9.39465,-109.448 L -9.45287,-109.627 L -9.48816,-109.812
 L -9.5,-110 L -9.48816,-110.188 L -9.45287,-110.373 L -9.39465,-110.552 L -9.31445,-110.723 L -9.21352,-110.882
 L -9.09344,-111.027 L -8.95613,-111.156 L -8.80373,-111.266 L -8.63866,-111.357 L -8.46352,-111.427 L -8.28107,-111.473
 L -8.09418,-111.497 L -7.40581,-111.497 L -7.21892,-111.473 L -7.03647,-111.427 L -6.86133,-111.357 L -6.69626,-111.266
 L -6.54385,-111.156 L -6.40654,-111.027 L -6.28647,-110.882 L -6.18553,-110.723 L -6.10533,-110.552 L -6.04712,-110.373
 L -6.01183,-110.188 L -6,-110 L -6.01183,-109.812 L -6.04712,-109.627 L -6.10533,-109.448 L -6.18553,-109.277
 L -6.28647,-109.118 L -6.40654,-108.973 L -6.54385,-108.844 L -6.69626,-108.734 L -6.86133,-108.643 L -7.03647,-108.573
 L -7.21892,-108.527 L -7.40581,-108.503 z
M 7.40581,-108.503 L 7.21892,-108.527 L 7.03647,-108.573 L 6.86133,-108.643 L 6.69626,-108.734 L 6.54385,-108.844
 L 6.40654,-108.973 L 6.28647,-109.118 L 6.18553,-109.277 L 6.10533,-109.448 L 6.04712,-109.627 L 6.01183,-109.812
 L 6,-110 L 6.01183,-110.188 L 6.04712,-110.373 L 6.10533,-110.552 L 6.18553,-110.723 L 6.28647,-110.882
 L 6.40654,-111.027 L 6.54385,-111.156 L 6.69626,-111.266 L 6.86133,-111.357 L 7.03647,-111.427 L 7.21892,-111.473
 L 7.40581,-111.497 L 8.09418,-111.497 L 8.28107,-111.473 L 8.46352,-111.427 L 8.63866,-111.357 L 8.80373,-111.266
 L 8.95613,-111.156 L 9.09344,-111.027 L 9.21352,-110.882 L 9.31445,-110.723 L 9.39465,-110.552 L 9.45287,-110.373
 L 9.48816,-110.188 L 9.5,-110 L 9.48816,-109.812 L 9.45287,-109.627 L 9.39465,-109.448 L 9.31445,-109.277
 L 9.21352,-109.118 L 9.09344,-108.973 L 8.95613,-108.844 L 8.80373,-108.734 L 8.63866,-108.643 L 8.46352,-108.573
 L 8.28107,-108.527 L 8.09418,-108.503 z
M -13.292,-94.7425 L -15.977,-99.393 L -13.292,-104.044 L -7.922,-104.044 L -5.237,-99.393 L -7.922,-94.7425
 z
M 7.922,-94.7425 L 5.237,-99.393 L 7.922,-104.044 L 13.292,-104.044 L 15.977,-99.393 L 13.292,-94.7425
 z
M -0.0941772,-101.003 L -0.281067,-101.027 L -0.463516,-101.073 L -0.638657,-101.143 L -0.803726,-101.234 L -0.956131,-101.344
 L -1.09344,-101.473 L -1.21352,-101.618 L -1.31445,-101.777 L -1.39465,-101.948 L -1.45287,-102.127 L -1.48816,-102.312
 L -1.5,-102.5 L -1.48816,-102.688 L -1.45287,-102.873 L -1.39465,-103.052 L -1.31445,-103.223 L -1.21352,-103.382
 L -1.09344,-103.527 L -0.956131,-103.656 L -0.803726,-103.766 L -0.638657,-103.857 L -0.463516,-103.927 L -0.281067,-103.973
 L -0.0941772,-103.997 L 0.0941772,-103.997 L 0.281067,-103.973 L 0.463516,-103.927 L 0.638657,-103.857 L 0.803726,-103.766
 L 0.956131,-103.656 L 1.09344,-103.527 L 1.21352,-103.382 L 1.31445,-103.223 L 1.39465,-103.052 L 1.45287,-102.873
 L 1.48816,-102.688 L 1.5,-102.5 L 1.48816,-102.312 L 1.45287,-102.127 L 1.39465,-101.948 L 1.31445,-101.777
 L 1.21352,-101.618 L 1.09344,-101.473 L 0.956131,-101.344 L 0.803726,-101.234 L 0.638657,-101.143 L 0.463516,-101.073
 L 0.281067,-101.027 L 0.0941772,-101.003 z
M -0.18837,-92.0059 L -0.562134,-92.0531 L -0.927048,-92.1468 L -1.27733,-92.2855 L -1.60747,-92.467 L -1.91226,-92.6885
 L -2.1869,-92.9464 L -2.42705,-93.2366 L -2.62891,-93.5547 L -2.78932,-93.8956 L -2.90575,-94.2539 L -2.97633,-94.624
 L -3,-95 L -2.97633,-95.376 L -2.90575,-95.7461 L -2.78932,-96.1044 L -2.62891,-96.4453 L -2.42705,-96.7634
 L -2.1869,-97.0536 L -1.91226,-97.3116 L -1.60747,-97.533 L -1.27733,-97.7145 L -0.927048,-97.8532 L -0.562134,-97.9469
 L -0.18837,-97.9941 L 0.18837,-97.9941 L 0.562134,-97.9469 L 0.927048,-97.8532 L 1.27733,-97.7145 L 1.60747,-97.533
 L 1.91226,-97.3116 L 2.1869,-97.0536 L 2.42705,-96.7634 L 2.62891,-96.4453 L 2.78932,-96.1044 L 2.90575,-95.7461
 L 2.97633,-95.376 L 3,-95 L 2.97633,-94.624 L 2.90575,-94.2539 L 2.78932,-93.8956 L 2.62891,-93.5547
 L 2.42705,-93.2366 L 2.1869,-92.9464 L 1.91226,-92.6885 L 1.60747,-92.467 L 1.27733,-92.2855 L 0.927048,-92.1468
 L 0.562134,-92.0531 L 0.18837,-92.0059 z
M 4.02869,21.1192 L 6.64386,20.4477 L 9.15425,19.4538 L 11.5203,18.153 L 13.7046,16.566 L 15.6728,14.7178
 L 17.3939,12.6374 L 18.8406,10.3577 L 19.9902,7.91467 L 20.8245,5.34683 L 21.3305,2.69466 L 21.5,-0
 L 21.3305,-2.69466 L 20.8245,-5.34683 L 19.9902,-7.91467 L 18.8406,-10.3577 L 17.3939,-12.6374 L 15.6728,-14.7178
 L 13.7046,-16.566 L 11.5203,-18.153 L 9.15425,-19.4538 L 6.64386,-20.4477 L 4.02869,-21.1192 L 1.34999,-21.4576
 L -1.34999,-21.4576 L -4.02869,-21.1192 L -6.64386,-20.4477 L -9.15425,-19.4538 L -11.5203,-18.153 L -13.7046,-16.566
 L -15.6728,-14.7178 L -17.3939,-12.6374 L -18.8406,-10.3577 L -19.9902,-7.91467 L -20.8245,-5.34683 L -21.3305,-2.69466
 L -21.5,-0 L -21.3305,2.69466 L -20.8245,5.34683 L -19.9902,7.91467 L -18.8406,10.3577 L -17.3939,12.6374
 L -15.6728,14.7178 L -13.7046,16.566 L -11.5203,18.153 L -9.15425,19.4538 L -6.64386,20.4477 L -4.02869,21.1192
 L -1.34999,21.4576 L 1.34999,21.4576 z
M -0.18837,-12.0059 L -0.562134,-12.0531 L -0.927048,-12.1468 L -1.27733,-12.2855 L -1.60747,-12.467 L -1.91226,-12.6884
 L -2.1869,-12.9464 L -2.42705,-13.2366 L -2.62891,-13.5547 L -2.78932,-13.8956 L -2.90575,-14.2539 L -2.97633,-14.624
 L -3,-15 L -2.97633,-15.376 L -2.90575,-15.7461 L -2.78932,-16.1044 L -2.62891,-16.4453 L -2.42705,-16.7634
 L -2.1869,-17.0536 L -1.91226,-17.3115 L -1.60747,-17.533 L -1.27733,-17.7145 L -0.927048,-17.8532 L -0.562134,-17.9469
 L -0.18837,-17.9941 L 0.18837,-17.9941 L 0.562134,-17.9469 L 0.927048,-17.8532 L 1.27733,-17.7145 L 1.60747,-17.533
 L 1.91226,-17.3115 L 2.1869,-17.0536 L 2.42705,-16.7634 L 2.62891,-16.4453 L 2.78932,-16.1044 L 2.90575,-15.7461
 L 2.97633,-15.376 L 3,-15 L 2.97633,-14.624 L 2.90575,-14.2539 L 2.78932,-13.8956 L 2.62891,-13.5547
 L 2.42705,-13.2366 L 2.1869,-12.9464 L 1.91226,-12.6884 L 1.60747,-12.467 L 1.27733,-12.2855 L 0.927048,-12.1468
 L 0.562134,-12.0531 L 0.18837,-12.0059 z
M -13.292,-5.95645 L -15.977,-10.607 L -13.292,-15.2575 L -7.922,-15.2575 L -5.237,-10.607 L -7.922,-5.95645
 z
M 7.922,-5.95645 L 5.237,-10.607 L 7.922,-15.2575 L 13.292,-15.2575 L 15.977,-10.607 L 13.292,-5.95645
 z
M -1.38675,-5.09808 L -2.7735,-7.5 L -1.38675,-9.90192 L 1.38675,-9.90192 L 2.7735,-7.5 L 1.38675,-5.09808
 z
M -15.1884,2.99408 L -15.5621,2.94685 L -15.927,2.85316 L -16.2773,2.71448 L -16.6075,2.53297 L -16.9123,2.31154
 L -17.1869,2.05363 L -17.427,1.76335 L -17.6289,1.44525 L -17.7893,1.10437 L -17.9057,0.746063 L -17.9763,0.375992
 L -18,-0 L -17.9763,-0.375992 L -17.9057,-0.746063 L -17.7893,-1.10437 L -17.6289,-1.44525 L -17.427,-1.76335
 L -17.1869,-2.05363 L -16.9123,-2.31154 L -16.6075,-2.53297 L -16.2773,-2.71448 L -15.927,-2.85316 L -15.5621,-2.94685
 L -15.1884,-2.99408 L -14.8116,-2.99408 L -14.4379,-2.94685 L -14.0729,-2.85316 L -13.7227,-2.71448 L -13.3925,-2.53297
 L -13.0877,-2.31154 L -12.8131,-2.05363 L -12.5729,-1.76335 L -12.3711,-1.44525 L -12.2107,-1.10437 L -12.0942,-0.746063
 L -12.0237,-0.375992 L -12,-0 L -12.0237,0.375992 L -12.0942,0.746063 L -12.2107,1.10437 L -12.3711,1.44525
 L -12.5729,1.76335 L -12.8131,2.05363 L -13.0877,2.31154 L -13.3925,2.53297 L -13.7227,2.71448 L -14.0729,2.85316
 L -14.4379,2.94685 L -14.8116,2.99408 z
M 14.8116,2.99408 L 14.4379,2.94685 L 14.0729,2.85316 L 13.7227,2.71448 L 13.3925,2.53297 L 13.0877,2.31154
 L 12.8131,2.05363 L 12.5729,1.76335 L 12.3711,1.44525 L 12.2107,1.10437 L 12.0942,0.746063 L 12.0237,0.375992
 L 12,-0 L 12.0237,-0.375992 L 12.0942,-0.746063 L 12.2107,-1.10437 L 12.3711,-1.44525 L 12.5729,-1.76335
 L 12.8131,-2.05363 L 13.0877,-2.31154 L 13.3925,-2.53297 L 13.7227,-2.71448 L 14.0729,-2.85316 L 14.4379,-2.94685
 L 14.8116,-2.99408 L 15.1884,-2.99408 L 15.5621,-2.94685 L 15.927,-2.85316 L 16.2773,-2.71448 L 16.6075,-2.53297
 L 16.9123,-2.31154 L 17.1869,-2.05363 L 17.427,-1.76335 L 17.6289,-1.44525 L 17.7893,-1.10437 L 17.9057,-0.746063
 L 17.9763,-0.375992 L 18,-0 L 17.9763,0.375992 L 17.9057,0.746063 L 17.7893,1.10437 L 17.6289,1.44525
 L 17.427,1.76335 L 17.1869,2.05363 L 16.9123,2.31154 L 16.6075,2.53297 L 16.2773,2.71448 L 15.927,2.85316
 L 15.5621,2.94685 L 15.1884,2.99408 z
M -0.185226,2.94417 L -0.552765,2.89774 L -0.911591,2.8056 L -1.25604,2.66924 L -1.58069,2.49075 L -1.88039,2.27301
 L -2.15045,2.01941 L -2.3866,1.73396 L -2.5851,1.42117 L -2.74283,1.08595 L -2.85732,0.733627 L -2.92673,0.36972
 L -2.95,-0 L -2.92673,-0.36972 L -2.85732,-0.733627 L -2.74283,-1.08595 L -2.5851,-1.42117 L -2.3866,-1.73396
 L -2.15045,-2.01941 L -1.88039,-2.27301 L -1.58069,-2.49075 L -1.25604,-2.66924 L -0.911591,-2.8056 L -0.552765,-2.89774
 L -0.185226,-2.94417 L 0.185226,-2.94417 L 0.552765,-2.89774 L 0.911591,-2.8056 L 1.25604,-2.66924 L 1.58069,-2.49075
 L 1.88039,-2.27301 L 2.15045,-2.01941 L 2.3866,-1.73396 L 2.5851,-1.42117 L 2.74283,-1.08595 L 2.85732,-0.733627
 L 2.92673,-0.36972 L 2.95,-0 L 2.92673,0.36972 L 2.85732,0.733627 L 2.74283,1.08595 L 2.5851,1.42117
 L 2.3866,1.73396 L 2.15045,2.01941 L 1.88039,2.27301 L 1.58069,2.49075 L 1.25604,2.66924 L 0.911591,2.8056
 L 0.552765,2.89774 L 0.185226,2.94417 z
M 6.11325,2.40192 L 4.7265,-0 L 6.11325,-2.40192 L 8.88675,-2.40192 L 10.2735,-0 L 8.88675,2.40192
 z
M -8.88675,2.40192 L -10.2735,-0 L -8.88675,-2.40192 L -6.11325,-2.40192 L -4.7265,-0 L -6.11325,2.40192
 z
M -1.38675,9.90192 L -2.7735,7.5 L -1.38675,5.09808 L 1.38675,5.09808 L 2.7735,7.5 L 1.38675,9.90192
 z
M 7.922,15.2575 L 5.237,10.607 L 7.922,5.95645 L 13.292,5.95645 L 15.977,10.607 L 13.292,15.2575
 z
M -13.292,15.2575 L -15.977,10.607 L -13.292,5.95645 L -7.922,5.95645 L -5.237,10.607 L -7.922,15.2575
 z
M -0.18837,17.9941 L -0.562134,17.9469 L -0.927048,17.8532 L -1.27733,17.7145 L -1.60747,17.533 L -1.91226,17.3115
 L -2.1869,17.0536 L -2.42705,16.7634 L -2.62891,16.4453 L -2.78932,16.1044 L -2.90575,15.7461 L -2.97633,15.376
 L -3,15 L -2.97633,14.624 L -2.90575,14.2539 L -2.78932,13.8956 L -2.62891,13.5547 L -2.42705,13.2366
 L -2.1869,12.9464 L -1.91226,12.6884 L -1.60747,12.467 L -1.27733,12.2855 L -0.927048,12.1468 L -0.562134,12.0531
 L -0.18837,12.0059 L 0.18837,12.0059 L 0.562134,12.0531 L 0.927048,12.1468 L 1.27733,12.2855 L 1.60747,12.467
 L 1.91226,12.6884 L 2.1869,12.9464 L 2.42705,13.2366 L 2.62891,13.5547 L 2.78932,13.8956 L 2.90575,14.2539
 L 2.97633,14.624 L 3,15 L 2.97633,15.376 L 2.90575,15.7461 L 2.78932,16.1044 L 2.62891,16.4453
 L 2.42705,16.7634 L 2.1869,17.0536 L 1.91226,17.3115 L 1.60747,17.533 L 1.27733,17.7145 L 0.927048,17.8532
 L 0.562134,17.9469 L 0.18837,17.9941 z
" stroke="black" fill="lightgray" stroke-width="0.5"/>
</svg>
