<?xml version="1.0" standalone="no"?>
<!DOCTYPE svg PUBLIC "-//W3C//DTD SVG 1.1//EN" "http://www.w3.org/Graphics/SVG/1.1/DTD/svg11.dtd">
<svg width="14mm" height="69mm" viewBox="-7 -132 14 69" xmlns="http://www.w3.org/2000/svg" version="1.1">
<title>OpenSCAD Model</title>
<path d="
M 2.9369,-102.589 L 3.54507,-102.745 L 4.12889,-102.976 L 4.67912,-103.278 L 5.18712,-103.647 L 5.64484,-104.077
 L 6.04507,-104.561 L 6.38153,-105.091 L 6.64888,-105.659 L 6.84291,-106.257 L 6.96057,-106.873 L 7,-107.5
 L 7,-126.5 L 6.96057,-127.127 L 6.84291,-127.743 L 6.64888,-128.341 L 6.38153,-128.909 L 6.04507,-129.439
 L 5.64484,-129.923 L 5.18712,-130.353 L 4.67912,-130.722 L 4.12889,-131.024 L 3.54507,-131.255 L 2.9369,-131.411
 L 2.31395,-131.49 L -2.31395,-131.49 L -2.9369,-131.411 L -3.54507,-131.255 L -4.12889,-131.024 L -4.67912,-130.722
 L -5.18712,-130.353 L -5.64484,-129.923 L -6.04507,-129.439 L -6.38153,-128.909 L -6.64888,-128.341 L -6.84291,-127.743
 L -6.96057,-127.127 L -7,-126.5 L -7,-107.5 L -6.96057,-106.873 L -6.84291,-106.257 L -6.64888,-105.659
 L -6.38153,-105.091 L -6.04507,-104.561 L -5.64484,-104.077 L -5.18712,-103.647 L -4.67912,-103.278 L -4.12889,-102.976
 L -3.54507,-102.745 L -2.9369,-102.589 L -2.31395,-102.51 L 2.31395,-102.51 z
M -2.03748,-103.181 L -2.60791,-103.253 L -3.16481,-103.396 L -3.6994,-103.607 L -4.20325,-103.884 L -4.6684,-104.222
 L -5.08754,-104.616 L -5.45403,-105.059 L -5.76212,-105.544 L -6.00691,-106.065 L -6.18459,-106.611 L -6.29233,-107.176
 L -6.32843,-107.75 L -6.32843,-126.25 L -6.29233,-126.824 L -6.18459,-127.389 L -6.00691,-127.935 L -5.76212,-128.456
 L -5.45403,-128.941 L -5.08754,-129.384 L -4.6684,-129.778 L -4.20325,-130.116 L -3.6994,-130.393 L -3.16481,-130.604
 L -2.60791,-130.747 L -2.03748,-130.819 L 2.03748,-130.819 L 2.60791,-130.747 L 3.16481,-130.604 L 3.6994,-130.393
 L 4.20325,-130.116 L 4.6684,-129.778 L 5.08754,-129.384 L 5.45403,-128.941 L 5.76212,-128.456 L 6.00691,-127.935
 L 6.18459,-127.389 L 6.29233,-126.824 L 6.32843,-126.25 L 6.32843,-107.75 L 6.29233,-107.176 L 6.18459,-106.611
 L 6.00691,-106.065 L 5.76212,-105.544 L 5.45403,-105.059 L 5.08754,-104.616 L 4.6684,-104.222 L 4.20325,-103.884
 L 3.6994,-103.607 L 3.16481,-103.396 L 2.60791,-103.253 L 2.03748,-103.181 z
M 2.9369,-63.5886 L 3.54507,-63.7447 L 4.12889,-63.9759 L 4.67912,-64.2784 L 5.18712,-64.6474 L 5.64484,-65.0773
 L 6.04507,-65.5611 L 6.38153,-66.0912 L 6.64888,-66.6594 L 6.84291,-67.2566 L 6.96057,-67.8733 L 7,-68.5
 L 7,-87.5 L 6.96057,-88.1267 L 6.84291,-88.7434 L 6.64888,-89.3406 L 6.38153,-89.9088 L 6.04507,-90.4389
 L 5.64484,-90.9227 L 5.18712,-91.3526 L 4.67912,-91.7216 L 4.12889,-92.0241 L 3.54507,-92.2553 L 2.9369,-92.4114
 L 2.31395,-92.4901 L -2.31395,-92.4901 L -2.9369,-92.4114 L -3.54507,-92.2553 L -4.12889,-92.0241 L -4.67912,-91.7216
 L -5.18712,-91.3526 L -5.64484,-90.9227 L -6.04507,-90.4389 L -6.38153,-89.9088 L -6.64888,-89.3406 L -6.84291,-88.7434
 L -6.96057,-88.1267 L -7,-87.5 L -7,-68.5 L -6.96057,-67.8733 L -6.84291,-67.2566 L -6.64888,-66.6594
 L -6.38153,-66.0912 L -6.04507,-65.5611 L -5.64484,-65.0773 L -5.18712,-64.6474 L -4.67912,-64.2784 L -4.12889,-63.9759
 L -3.54507,-63.7447 L -2.9369,-63.5886 L -2.31395,-63.5099 L 2.31395,-63.5099 z
M -1.88246,-66.6445 L -2.14529,-66.6777 L -2.4019,-66.7436 L -2.64822,-66.8412 L -2.88039,-66.9688 L -3.09473,-67.1245
 L -3.28784,-67.3059 L -3.45673,-67.51 L -3.59868,-67.7337 L -3.71149,-67.9734 L -3.79335,-68.2254 L -3.84299,-68.4856
 L -3.85962,-68.75 L -3.85962,-87.25 L -3.84299,-87.5144 L -3.79335,-87.7746 L -3.71149,-88.0266 L -3.59868,-88.2663
 L -3.45673,-88.49 L -3.28784,-88.6941 L -3.09473,-88.8755 L -2.88039,-89.0312 L -2.64822,-89.1588 L -2.4019,-89.2564
 L -2.14529,-89.3223 L -1.88246,-89.3555 L 1.88246,-89.3555 L 2.14529,-89.3223 L 2.4019,-89.2564 L 2.64822,-89.1588
 L 2.88039,-89.0312 L 3.09473,-88.8755 L 3.28784,-88.6941 L 3.45673,-88.49 L 3.59868,-88.2663 L 3.71149,-88.0266
 L 3.79335,-87.7746 L 3.84299,-87.5144 L 3.85962,-87.25 L 3.85962,-68.75 L 3.84299,-68.4856 L 3.79335,-68.2254
 L 3.71149,-67.9734 L 3.59868,-67.7337 L 3.45673,-67.51 L 3.28784,-67.3059 L 3.09473,-67.1245 L 2.88039,-66.9688
 L 2.64822,-66.8412 L 2.4019,-66.7436 L 2.14529,-66.6777 L 1.88246,-66.6445 z
" stroke="black" fill="lightgray" stroke-width="0.5"/>
</svg>
