<?xml version="1.0" standalone="no"?>
<!DOCTYPE svg PUBLIC "-//W3C//DTD SVG 1.1//EN" "http://www.w3.org/Graphics/SVG/1.1/DTD/svg11.dtd">
<svg width="16mm" height="69mm" viewBox="-8 -132 16 69" xmlns="http://www.w3.org/2000/svg" version="1.1">
<title>OpenSCAD Model</title>
<path d="
M 3.4369,-102.089 L 4.04507,-102.245 L 4.62889,-102.476 L 5.17912,-102.778 L 5.68712,-103.147 L 6.14484,-103.577
 L 6.54507,-104.061 L 6.88153,-104.591 L 7.14888,-105.159 L 7.34291,-105.757 L 7.46057,-106.373 L 7.5,-107
 L 7.5,-127 L 7.46057,-127.627 L 7.34291,-128.243 L 7.14888,-128.841 L 6.88153,-129.409 L 6.54507,-129.939
 L 6.14484,-130.423 L 5.68712,-130.853 L 5.17912,-131.222 L 4.62889,-131.524 L 4.04507,-131.755 L 3.4369,-131.911
 L 2.81395,-131.99 L -2.81395,-131.99 L -3.4369,-131.911 L -4.04507,-131.755 L -4.62889,-131.524 L -5.17912,-131.222
 L -5.68712,-130.853 L -6.14484,-130.423 L -6.54507,-129.939 L -6.88153,-129.409 L -7.14888,-128.841 L -7.34291,-128.243
 L -7.46057,-127.627 L -7.5,-127 L -7.5,-107 L -7.46057,-106.373 L -7.34291,-105.757 L -7.14888,-105.159
 L -6.88153,-104.591 L -6.54507,-104.061 L -6.14484,-103.577 L -5.68712,-103.147 L -5.17912,-102.778 L -4.62889,-102.476
 L -4.04507,-102.245 L -3.4369,-102.089 L -2.81395,-102.01 L 2.81395,-102.01 z
M -2.53748,-102.681 L -3.10791,-102.753 L -3.66481,-102.896 L -4.1994,-103.107 L -4.70325,-103.384 L -5.1684,-103.722
 L -5.58754,-104.116 L -5.95403,-104.559 L -6.26212,-105.044 L -6.50691,-105.565 L -6.68459,-106.111 L -6.79233,-106.676
 L -6.82843,-107.25 L -6.82843,-126.75 L -6.79233,-127.324 L -6.68459,-127.889 L -6.50691,-128.435 L -6.26212,-128.956
 L -5.95403,-129.441 L -5.58754,-129.884 L -5.1684,-130.278 L -4.70325,-130.616 L -4.1994,-130.893 L -3.66481,-131.104
 L -3.10791,-131.247 L -2.53748,-131.319 L 2.53748,-131.319 L 3.10791,-131.247 L 3.66481,-131.104 L 4.1994,-130.893
 L 4.70325,-130.616 L 5.1684,-130.278 L 5.58754,-129.884 L 5.95403,-129.441 L 6.26212,-128.956 L 6.50691,-128.435
 L 6.68459,-127.889 L 6.79233,-127.324 L 6.82843,-126.75 L 6.82843,-107.25 L 6.79233,-106.676 L 6.68459,-106.111
 L 6.50691,-105.565 L 6.26212,-105.044 L 5.95403,-104.559 L 5.58754,-104.116 L 5.1684,-103.722 L 4.70325,-103.384
 L 4.1994,-103.107 L 3.66481,-102.896 L 3.10791,-102.753 L 2.53748,-102.681 z
M 3.4369,-63.0886 L 4.04507,-63.2447 L 4.62889,-63.4759 L 5.17912,-63.7784 L 5.68712,-64.1474 L 6.14484,-64.5773
 L 6.54507,-65.0611 L 6.88153,-65.5912 L 7.14888,-66.1594 L 7.34291,-66.7566 L 7.46057,-67.3733 L 7.5,-68
 L 7.5,-88 L 7.46057,-88.6267 L 7.34291,-89.2434 L 7.14888,-89.8406 L 6.88153,-90.4088 L 6.54507,-90.9389
 L 6.14484,-91.4227 L 5.68712,-91.8526 L 5.17912,-92.2216 L 4.62889,-92.5241 L 4.04507,-92.7553 L 3.4369,-92.9114
 L 2.81395,-92.9901 L -2.81395,-92.9901 L -3.4369,-92.9114 L -4.04507,-92.7553 L -4.62889,-92.5241 L -5.17912,-92.2216
 L -5.68712,-91.8526 L -6.14484,-91.4227 L -6.54507,-90.9389 L -6.88153,-90.4088 L -7.14888,-89.8406 L -7.34291,-89.2434
 L -7.46057,-88.6267 L -7.5,-88 L -7.5,-68 L -7.46057,-67.3733 L -7.34291,-66.7566 L -7.14888,-66.1594
 L -6.88153,-65.5912 L -6.54507,-65.0611 L -6.14484,-64.5773 L -5.68712,-64.1474 L -5.17912,-63.7784 L -4.62889,-63.4759
 L -4.04507,-63.2447 L -3.4369,-63.0886 L -2.81395,-63.0099 L 2.81395,-63.0099 z
M -2.38246,-66.1445 L -2.64529,-66.1777 L -2.9019,-66.2436 L -3.14822,-66.3412 L -3.38039,-66.4688 L -3.59473,-66.6245
 L -3.78784,-66.8059 L -3.95673,-67.01 L -4.09868,-67.2337 L -4.21149,-67.4734 L -4.29335,-67.7254 L -4.34299,-67.9856
 L -4.35962,-68.25 L -4.35962,-87.75 L -4.34299,-88.0144 L -4.29335,-88.2746 L -4.21149,-88.5266 L -4.09868,-88.7663
 L -3.95673,-88.99 L -3.78784,-89.1941 L -3.59473,-89.3755 L -3.38039,-89.5312 L -3.14822,-89.6588 L -2.9019,-89.7564
 L -2.64529,-89.8223 L -2.38246,-89.8555 L 2.38246,-89.8555 L 2.64529,-89.8223 L 2.9019,-89.7564 L 3.14822,-89.6588
 L 3.38039,-89.5312 L 3.59473,-89.3755 L 3.78784,-89.1941 L 3.95673,-88.99 L 4.09868,-88.7663 L 4.21149,-88.5266
 L 4.29335,-88.2746 L 4.34299,-88.0144 L 4.35962,-87.75 L 4.35962,-68.25 L 4.34299,-67.9856 L 4.29335,-67.7254
 L 4.21149,-67.4734 L 4.09868,-67.2337 L 3.95673,-67.01 L 3.78784,-66.8059 L 3.59473,-66.6245 L 3.38039,-66.4688
 L 3.14822,-66.3412 L 2.9019,-66.2436 L 2.64529,-66.1777 L 2.38246,-66.1445 z
" stroke="black" fill="lightgray" stroke-width="0.5"/>
</svg>
