<?xml version="1.0" standalone="no"?>
<!DOCTYPE svg PUBLIC "-//W3C//DTD SVG 1.1//EN" "http://www.w3.org/Graphics/SVG/1.1/DTD/svg11.dtd">
<svg width="30mm" height="28mm" viewBox="-15 -28 30 28" xmlns="http://www.w3.org/2000/svg" version="1.1">
<title>OpenSCAD Model</title>
<path d="
M 14.75,-24.75 L 14.7303,-25.0633 L 14.6714,-25.3717 L 14.5744,-25.6703 L 14.4408,-25.9544 L 14.2725,-26.2195
 L 14.0724,-26.4614 L 13.8436,-26.6763 L 13.5896,-26.8608 L 13.3144,-27.0121 L 13.0225,-27.1276 L 12.7184,-27.2057
 L 12.407,-27.2451 L -12.407,-27.2451 L -12.7184,-27.2057 L -13.0225,-27.1276 L -13.3144,-27.0121 L -13.5896,-26.8608
 L -13.8436,-26.6763 L -14.0724,-26.4614 L -14.2725,-26.2195 L -14.4408,-25.9544 L -14.5744,-25.6703 L -14.6714,-25.3717
 L -14.7303,-25.0633 L -14.75,-24.75 L -14.75,-17 L 14.75,-17 z
M -11.3442,-22.2529 L -11.5311,-22.2766 L -11.7135,-22.3234 L -11.8887,-22.3927 L -12.0537,-22.4835 L -12.2061,-22.5942
 L -12.3434,-22.7232 L -12.4635,-22.8683 L -12.5645,-23.0274 L -12.6447,-23.1978 L -12.7029,-23.377 L -12.7382,-23.562
 L -12.75,-23.75 L -12.7382,-23.938 L -12.7029,-24.123 L -12.6447,-24.3022 L -12.5645,-24.4726 L -12.4635,-24.6317
 L -12.3434,-24.7768 L -12.2061,-24.9058 L -12.0537,-25.0165 L -11.8887,-25.1072 L -11.7135,-25.1766 L -11.5311,-25.2234
 L -11.3442,-25.247 L -11.1558,-25.247 L -10.9689,-25.2234 L -10.7865,-25.1766 L -10.6113,-25.1072 L -10.4463,-25.0165
 L -10.2939,-24.9058 L -10.1565,-24.7768 L -10.0365,-24.6317 L -9.93553,-24.4726 L -9.85533,-24.3022 L -9.79712,-24.123
 L -9.76183,-23.938 L -9.75,-23.75 L -9.76183,-23.562 L -9.79712,-23.377 L -9.85533,-23.1978 L -9.93553,-23.0274
 L -10.0365,-22.8683 L -10.1565,-22.7232 L -10.2939,-22.5942 L -10.4463,-22.4835 L -10.6113,-22.3927 L -10.7865,-22.3234
 L -10.9689,-22.2766 L -11.1558,-22.2529 z
M 3.65581,-22.2529 L 3.46892,-22.2766 L 3.28647,-22.3234 L 3.11133,-22.3927 L 2.94626,-22.4835 L 2.79385,-22.5942
 L 2.65654,-22.7232 L 2.53647,-22.8683 L 2.43553,-23.0274 L 2.35533,-23.1978 L 2.29712,-23.377 L 2.26183,-23.562
 L 2.25,-23.75 L 2.26183,-23.938 L 2.29712,-24.123 L 2.35533,-24.3022 L 2.43553,-24.4726 L 2.53647,-24.6317
 L 2.65654,-24.7768 L 2.79385,-24.9058 L 2.94626,-25.0165 L 3.11133,-25.1072 L 3.28647,-25.1766 L 3.46892,-25.2234
 L 3.65581,-25.247 L 3.84418,-25.247 L 4.03107,-25.2234 L 4.21352,-25.1766 L 4.38866,-25.1072 L 4.55373,-25.0165
 L 4.70613,-24.9058 L 4.84344,-24.7768 L 4.96352,-24.6317 L 5.06445,-24.4726 L 5.14465,-24.3022 L 5.20287,-24.123
 L 5.23816,-23.938 L 5.25,-23.75 L 5.23816,-23.562 L 5.20287,-23.377 L 5.14465,-23.1978 L 5.06445,-23.0274
 L 4.96352,-22.8683 L 4.84344,-22.7232 L 4.70613,-22.5942 L 4.55373,-22.4835 L 4.38866,-22.3927 L 4.21352,-22.3234
 L 4.03107,-22.2766 L 3.84418,-22.2529 z
M -3.84418,-22.2529 L -4.03107,-22.2766 L -4.21352,-22.3234 L -4.38866,-22.3927 L -4.55373,-22.4835 L -4.70613,-22.5942
 L -4.84344,-22.7232 L -4.96352,-22.8683 L -5.06445,-23.0274 L -5.14465,-23.1978 L -5.20287,-23.377 L -5.23816,-23.562
 L -5.25,-23.75 L -5.23816,-23.938 L -5.20287,-24.123 L -5.14465,-24.3022 L -5.06445,-24.4726 L -4.96352,-24.6317
 L -4.84344,-24.7768 L -4.70613,-24.9058 L -4.55373,-25.0165 L -4.38866,-25.1072 L -4.21352,-25.1766 L -4.03107,-25.2234
 L -3.84418,-25.247 L -3.65581,-25.247 L -3.46892,-25.2234 L -3.28647,-25.1766 L -3.11133,-25.1072 L -2.94626,-25.0165
 L -2.79385,-24.9058 L -2.65654,-24.7768 L -2.53647,-24.6317 L -2.43553,-24.4726 L -2.35533,-24.3022 L -2.29712,-24.123
 L -2.26183,-23.938 L -2.25,-23.75 L -2.26183,-23.562 L -2.29712,-23.377 L -2.35533,-23.1978 L -2.43553,-23.0274
 L -2.53647,-22.8683 L -2.65654,-22.7232 L -2.79385,-22.5942 L -2.94626,-22.4835 L -3.11133,-22.3927 L -3.28647,-22.3234
 L -3.46892,-22.2766 L -3.65581,-22.2529 z
M 11.1558,-22.2529 L 10.9689,-22.2766 L 10.7865,-22.3234 L 10.6113,-22.3927 L 10.4463,-22.4835 L 10.2939,-22.5942
 L 10.1565,-22.7232 L 10.0365,-22.8683 L 9.93553,-23.0274 L 9.85533,-23.1978 L 9.79712,-23.377 L 9.76183,-23.562
 L 9.75,-23.75 L 9.76183,-23.938 L 9.79712,-24.123 L 9.85533,-24.3022 L 9.93553,-24.4726 L 10.0365,-24.6317
 L 10.1565,-24.7768 L 10.2939,-24.9058 L 10.4463,-25.0165 L 10.6113,-25.1072 L 10.7865,-25.1766 L 10.9689,-25.2234
 L 11.1558,-25.247 L 11.3442,-25.247 L 11.5311,-25.2234 L 11.7135,-25.1766 L 11.8887,-25.1072 L 12.0537,-25.0165
 L 12.2061,-24.9058 L 12.3434,-24.7768 L 12.4635,-24.6317 L 12.5645,-24.4726 L 12.6447,-24.3022 L 12.7029,-24.123
 L 12.7382,-23.938 L 12.75,-23.75 L 12.7382,-23.562 L 12.7029,-23.377 L 12.6447,-23.1978 L 12.5645,-23.0274
 L 12.4635,-22.8683 L 12.3434,-22.7232 L 12.2061,-22.5942 L 12.0537,-22.4835 L 11.8887,-22.3927 L 11.7135,-22.3234
 L 11.5311,-22.2766 L 11.3442,-22.2529 z
M 7.44975,-22.9516 L 7.35008,-22.9642 L 7.25278,-22.9892 L 7.15936,-23.0261 L 7.07133,-23.0745 L 6.99005,-23.1336
 L 6.91682,-23.2024 L 6.85278,-23.2798 L 6.79895,-23.3646 L 6.75616,-23.4555 L 6.72513,-23.551 L 6.7063,-23.6497
 L 6.7,-23.75 L 6.7063,-23.8503 L 6.72513,-23.9489 L 6.75616,-24.0445 L 6.79895,-24.1354 L 6.85278,-24.2202
 L 6.91682,-24.2976 L 6.99005,-24.3664 L 7.07133,-24.4255 L 7.15936,-24.4738 L 7.25278,-24.5108 L 7.35008,-24.5358
 L 7.44975,-24.5484 L 7.55023,-24.5484 L 7.6499,-24.5358 L 7.74721,-24.5108 L 7.84062,-24.4738 L 7.92865,-24.4255
 L 8.00993,-24.3664 L 8.08316,-24.2976 L 8.1472,-24.2202 L 8.20103,-24.1354 L 8.24382,-24.0445 L 8.27486,-23.9489
 L 8.29369,-23.8503 L 8.29999,-23.75 L 8.29369,-23.6497 L 8.27486,-23.551 L 8.24382,-23.4555 L 8.20103,-23.3646
 L 8.1472,-23.2798 L 8.08316,-23.2024 L 8.00993,-23.1336 L 7.92865,-23.0745 L 7.84062,-23.0261 L 7.74721,-22.9892
 L 7.6499,-22.9642 L 7.55023,-22.9516 z
M -7.55023,-22.9516 L -7.6499,-22.9642 L -7.74721,-22.9892 L -7.84062,-23.0261 L -7.92865,-23.0745 L -8.00993,-23.1336
 L -8.08316,-23.2024 L -8.1472,-23.2798 L -8.20103,-23.3646 L -8.24382,-23.4555 L -8.27486,-23.551 L -8.29369,-23.6497
 L -8.29999,-23.75 L -8.29369,-23.8503 L -8.27486,-23.9489 L -8.24382,-24.0445 L -8.20103,-24.1354 L -8.1472,-24.2202
 L -8.08316,-24.2976 L -8.00993,-24.3664 L -7.92865,-24.4255 L -7.84062,-24.4738 L -7.74721,-24.5108 L -7.6499,-24.5358
 L -7.55023,-24.5484 L -7.44975,-24.5484 L -7.35008,-24.5358 L -7.25278,-24.5108 L -7.15936,-24.4738 L -7.07133,-24.4255
 L -6.99005,-24.3664 L -6.91682,-24.2976 L -6.85278,-24.2202 L -6.79895,-24.1354 L -6.75616,-24.0445 L -6.72513,-23.9489
 L -6.7063,-23.8503 L -6.7,-23.75 L -6.7063,-23.6497 L -6.72513,-23.551 L -6.75616,-23.4555 L -6.79895,-23.3646
 L -6.85278,-23.2798 L -6.91682,-23.2024 L -6.99005,-23.1336 L -7.07133,-23.0745 L -7.15936,-23.0261 L -7.25278,-22.9892
 L -7.35008,-22.9642 L -7.44975,-22.9516 z
M -0.0502319,-22.9516 L -0.149902,-22.9642 L -0.247208,-22.9892 L -0.340622,-23.0261 L -0.42865,-23.0745 L -0.509933,-23.1336
 L -0.58316,-23.2024 L -0.647202,-23.2798 L -0.701035,-23.3646 L -0.74382,-23.4555 L -0.774857,-23.551 L -0.793686,-23.6497
 L -0.799988,-23.75 L -0.793686,-23.8503 L -0.774857,-23.9489 L -0.74382,-24.0445 L -0.701035,-24.1354 L -0.647202,-24.2202
 L -0.58316,-24.2976 L -0.509933,-24.3664 L -0.42865,-24.4255 L -0.340622,-24.4738 L -0.247208,-24.5108 L -0.149902,-24.5358
 L -0.0502319,-24.5484 L 0.0502319,-24.5484 L 0.149902,-24.5358 L 0.247208,-24.5108 L 0.340622,-24.4738 L 0.42865,-24.4255
 L 0.509933,-24.3664 L 0.58316,-24.2976 L 0.647202,-24.2202 L 0.701035,-24.1354 L 0.74382,-24.0445 L 0.774857,-23.9489
 L 0.793686,-23.8503 L 0.799988,-23.75 L 0.793686,-23.6497 L 0.774857,-23.551 L 0.74382,-23.4555 L 0.701035,-23.3646
 L 0.647202,-23.2798 L 0.58316,-23.2024 L 0.509933,-23.1336 L 0.42865,-23.0745 L 0.340622,-23.0261 L 0.247208,-22.9892
 L 0.149902,-22.9642 L 0.0502319,-22.9516 z
M 8.52463,-18.5 L 8.52463,-21 L 13.9754,-21 L 13.9754,-18.5 z
M -6.47536,-18.5 L -6.47536,-21 L -1.02463,-21 L -1.02463,-18.5 z
M 1.02463,-18.5 L 1.02463,-21 L 6.47536,-21 L 6.47536,-18.5 z
M -13.9754,-18.5 L -13.9754,-21 L -8.52463,-21 L -8.52463,-18.5 z
M 14.75,-7.75 L 14.7303,-8.06332 L 14.6714,-8.37172 L 14.5744,-8.6703 L 14.4408,-8.95438 L 14.2725,-9.21945
 L 14.0724,-9.46136 L 13.8436,-9.67627 L 13.5896,-9.86081 L 13.3144,-10.0121 L 13.0225,-10.1276 L 12.7184,-10.2057
 L 12.407,-10.2451 L -12.407,-10.2451 L -12.7184,-10.2057 L -13.0225,-10.1276 L -13.3144,-10.0121 L -13.5896,-9.86081
 L -13.8436,-9.67627 L -14.0724,-9.46136 L -14.2725,-9.21945 L -14.4408,-8.95438 L -14.5744,-8.6703 L -14.6714,-8.37172
 L -14.7303,-8.06332 L -14.75,-7.75 L -14.75,-0 L 14.75,-0 z
M -3.84418,-5.25294 L -4.03107,-5.27657 L -4.21352,-5.32341 L -4.38866,-5.39275 L -4.55373,-5.48351 L -4.70613,-5.59422
 L -4.84344,-5.72318 L -4.96352,-5.86832 L -5.06445,-6.02736 L -5.14465,-6.1978 L -5.20287,-6.37695 L -5.23816,-6.562
 L -5.25,-6.75 L -5.23816,-6.93799 L -5.20287,-7.12303 L -5.14465,-7.30219 L -5.06445,-7.47263 L -4.96352,-7.63167
 L -4.84344,-7.77681 L -4.70613,-7.90576 L -4.55373,-8.01648 L -4.38866,-8.10724 L -4.21352,-8.17657 L -4.03107,-8.22342
 L -3.84418,-8.24704 L -3.65581,-8.24704 L -3.46892,-8.22342 L -3.28647,-8.17657 L -3.11133,-8.10724 L -2.94626,-8.01648
 L -2.79385,-7.90576 L -2.65654,-7.77681 L -2.53647,-7.63167 L -2.43553,-7.47263 L -2.35533,-7.30219 L -2.29712,-7.12303
 L -2.26183,-6.93799 L -2.25,-6.75 L -2.26183,-6.562 L -2.29712,-6.37695 L -2.35533,-6.1978 L -2.43553,-6.02736
 L -2.53647,-5.86832 L -2.65654,-5.72318 L -2.79385,-5.59422 L -2.94626,-5.48351 L -3.11133,-5.39275 L -3.28647,-5.32341
 L -3.46892,-5.27657 L -3.65581,-5.25294 z
M -11.3442,-5.25294 L -11.5311,-5.27657 L -11.7135,-5.32341 L -11.8887,-5.39275 L -12.0537,-5.48351 L -12.2061,-5.59422
 L -12.3434,-5.72318 L -12.4635,-5.86832 L -12.5645,-6.02736 L -12.6447,-6.1978 L -12.7029,-6.37695 L -12.7382,-6.562
 L -12.75,-6.75 L -12.7382,-6.93799 L -12.7029,-7.12303 L -12.6447,-7.30219 L -12.5645,-7.47263 L -12.4635,-7.63167
 L -12.3434,-7.77681 L -12.2061,-7.90576 L -12.0537,-8.01648 L -11.8887,-8.10724 L -11.7135,-8.17657 L -11.5311,-8.22342
 L -11.3442,-8.24704 L -11.1558,-8.24704 L -10.9689,-8.22342 L -10.7865,-8.17657 L -10.6113,-8.10724 L -10.4463,-8.01648
 L -10.2939,-7.90576 L -10.1565,-7.77681 L -10.0365,-7.63167 L -9.93553,-7.47263 L -9.85533,-7.30219 L -9.79712,-7.12303
 L -9.76183,-6.93799 L -9.75,-6.75 L -9.76183,-6.562 L -9.79712,-6.37695 L -9.85533,-6.1978 L -9.93553,-6.02736
 L -10.0365,-5.86832 L -10.1565,-5.72318 L -10.2939,-5.59422 L -10.4463,-5.48351 L -10.6113,-5.39275 L -10.7865,-5.32341
 L -10.9689,-5.27657 L -11.1558,-5.25294 z
M 11.1558,-5.25294 L 10.9689,-5.27657 L 10.7865,-5.32341 L 10.6113,-5.39275 L 10.4463,-5.48351 L 10.2939,-5.59422
 L 10.1565,-5.72318 L 10.0365,-5.86832 L 9.93553,-6.02736 L 9.85533,-6.1978 L 9.79712,-6.37695 L 9.76183,-6.562
 L 9.75,-6.75 L 9.76183,-6.93799 L 9.79712,-7.12303 L 9.85533,-7.30219 L 9.93553,-7.47263 L 10.0365,-7.63167
 L 10.1565,-7.77681 L 10.2939,-7.90576 L 10.4463,-8.01648 L 10.6113,-8.10724 L 10.7865,-8.17657 L 10.9689,-8.22342
 L 11.1558,-8.24704 L 11.3442,-8.24704 L 11.5311,-8.22342 L 11.7135,-8.17657 L 11.8887,-8.10724 L 12.0537,-8.01648
 L 12.2061,-7.90576 L 12.3434,-7.77681 L 12.4635,-7.63167 L 12.5645,-7.47263 L 12.6447,-7.30219 L 12.7029,-7.12303
 L 12.7382,-6.93799 L 12.75,-6.75 L 12.7382,-6.562 L 12.7029,-6.37695 L 12.6447,-6.1978 L 12.5645,-6.02736
 L 12.4635,-5.86832 L 12.3434,-5.72318 L 12.2061,-5.59422 L 12.0537,-5.48351 L 11.8887,-5.39275 L 11.7135,-5.32341
 L 11.5311,-5.27657 L 11.3442,-5.25294 z
M 3.65581,-5.25294 L 3.46892,-5.27657 L 3.28647,-5.32341 L 3.11133,-5.39275 L 2.94626,-5.48351 L 2.79385,-5.59422
 L 2.65654,-5.72318 L 2.53647,-5.86832 L 2.43553,-6.02736 L 2.35533,-6.1978 L 2.29712,-6.37695 L 2.26183,-6.562
 L 2.25,-6.75 L 2.26183,-6.93799 L 2.29712,-7.12303 L 2.35533,-7.30219 L 2.43553,-7.47263 L 2.53647,-7.63167
 L 2.65654,-7.77681 L 2.79385,-7.90576 L 2.94626,-8.01648 L 3.11133,-8.10724 L 3.28647,-8.17657 L 3.46892,-8.22342
 L 3.65581,-8.24704 L 3.84418,-8.24704 L 4.03107,-8.22342 L 4.21352,-8.17657 L 4.38866,-8.10724 L 4.55373,-8.01648
 L 4.70613,-7.90576 L 4.84344,-7.77681 L 4.96352,-7.63167 L 5.06445,-7.47263 L 5.14465,-7.30219 L 5.20287,-7.12303
 L 5.23816,-6.93799 L 5.25,-6.75 L 5.23816,-6.562 L 5.20287,-6.37695 L 5.14465,-6.1978 L 5.06445,-6.02736
 L 4.96352,-5.86832 L 4.84344,-5.72318 L 4.70613,-5.59422 L 4.55373,-5.48351 L 4.38866,-5.39275 L 4.21352,-5.32341
 L 4.03107,-5.27657 L 3.84418,-5.25294 z
M 7.44975,-5.95157 L 7.35008,-5.96416 L 7.25278,-5.98915 L 7.15936,-6.02614 L 7.07133,-6.07452 L 6.99005,-6.13358
 L 6.91682,-6.20236 L 6.85278,-6.27977 L 6.79895,-6.36459 L 6.75616,-6.45549 L 6.72513,-6.55104 L 6.7063,-6.64972
 L 6.7,-6.75 L 6.7063,-6.85027 L 6.72513,-6.94894 L 6.75616,-7.04449 L 6.79895,-7.13539 L 6.85278,-7.22021
 L 6.91682,-7.29762 L 6.99005,-7.36641 L 7.07133,-7.42546 L 7.15936,-7.47385 L 7.25278,-7.51083 L 7.35008,-7.53583
 L 7.44975,-7.54842 L 7.55023,-7.54842 L 7.6499,-7.53583 L 7.74721,-7.51083 L 7.84062,-7.47385 L 7.92865,-7.42546
 L 8.00993,-7.36641 L 8.08316,-7.29762 L 8.1472,-7.22021 L 8.20103,-7.13539 L 8.24382,-7.04449 L 8.27486,-6.94894
 L 8.29369,-6.85027 L 8.29999,-6.75 L 8.29369,-6.64972 L 8.27486,-6.55104 L 8.24382,-6.45549 L 8.20103,-6.36459
 L 8.1472,-6.27977 L 8.08316,-6.20236 L 8.00993,-6.13358 L 7.92865,-6.07452 L 7.84062,-6.02614 L 7.74721,-5.98915
 L 7.6499,-5.96416 L 7.55023,-5.95157 z
M -0.0502319,-5.95157 L -0.149902,-5.96416 L -0.247208,-5.98915 L -0.340622,-6.02614 L -0.42865,-6.07452 L -0.509933,-6.13358
 L -0.58316,-6.20236 L -0.647202,-6.27977 L -0.701035,-6.36459 L -0.74382,-6.45549 L -0.774857,-6.55104 L -0.793686,-6.64972
 L -0.799988,-6.75 L -0.793686,-6.85027 L -0.774857,-6.94894 L -0.74382,-7.04449 L -0.701035,-7.13539 L -0.647202,-7.22021
 L -0.58316,-7.29762 L -0.509933,-7.36641 L -0.42865,-7.42546 L -0.340622,-7.47385 L -0.247208,-7.51083 L -0.149902,-7.53583
 L -0.0502319,-7.54842 L 0.0502319,-7.54842 L 0.149902,-7.53583 L 0.247208,-7.51083 L 0.340622,-7.47385 L 0.42865,-7.42546
 L 0.509933,-7.36641 L 0.58316,-7.29762 L 0.647202,-7.22021 L 0.701035,-7.13539 L 0.74382,-7.04449 L 0.774857,-6.94894
 L 0.793686,-6.85027 L 0.799988,-6.75 L 0.793686,-6.64972 L 0.774857,-6.55104 L 0.74382,-6.45549 L 0.701035,-6.36459
 L 0.647202,-6.27977 L 0.58316,-6.20236 L 0.509933,-6.13358 L 0.42865,-6.07452 L 0.340622,-6.02614 L 0.247208,-5.98915
 L 0.149902,-5.96416 L 0.0502319,-5.95157 z
M -7.55023,-5.95157 L -7.6499,-5.96416 L -7.74721,-5.98915 L -7.84062,-6.02614 L -7.92865,-6.07452 L -8.00993,-6.13358
 L -8.08316,-6.20236 L -8.1472,-6.27977 L -8.20103,-6.36459 L -8.24382,-6.45549 L -8.27486,-6.55104 L -8.29369,-6.64972
 L -8.29999,-6.75 L -8.29369,-6.85027 L -8.27486,-6.94894 L -8.24382,-7.04449 L -8.20103,-7.13539 L -8.1472,-7.22021
 L -8.08316,-7.29762 L -8.00993,-7.36641 L -7.92865,-7.42546 L -7.84062,-7.47385 L -7.74721,-7.51083 L -7.6499,-7.53583
 L -7.55023,-7.54842 L -7.44975,-7.54842 L -7.35008,-7.53583 L -7.25278,-7.51083 L -7.15936,-7.47385 L -7.07133,-7.42546
 L -6.99005,-7.36641 L -6.91682,-7.29762 L -6.85278,-7.22021 L -6.79895,-7.13539 L -6.75616,-7.04449 L -6.72513,-6.94894
 L -6.7063,-6.85027 L -6.7,-6.75 L -6.7063,-6.64972 L -6.72513,-6.55104 L -6.75616,-6.45549 L -6.79895,-6.36459
 L -6.85278,-6.27977 L -6.91682,-6.20236 L -6.99005,-6.13358 L -7.07133,-6.07452 L -7.15936,-6.02614 L -7.25278,-5.98915
 L -7.35008,-5.96416 L -7.44975,-5.95157 z
M -13.9983,-1.5 L -13.9983,-4 L -8.50166,-4 L -8.50166,-1.5 z
M 1.00166,-1.5 L 1.00166,-4 L 6.49832,-4 L 6.49832,-1.5 z
M -6.49832,-1.5 L -6.49832,-4 L -1.00166,-4 L -1.00166,-1.5 z
M 8.50166,-1.5 L 8.50166,-4 L 13.9983,-4 L 13.9983,-1.5 z
" stroke="black" fill="lightgray" stroke-width="0.5"/>
</svg>
