  0
SECTION
  2
BLOCKS
  0
ENDSEC
  0
SECTION
  2
ENTITIES
  0
LINE
  8
0
 10
3.17349
 20
11.5
 11
1.58675
 21
14.2483
  0
LINE
  8
0
 10
1.58675
 20
14.2483
 11
-1.58675
 21
14.2483
  0
LINE
  8
0
 10
-1.58675
 20
14.2483
 11
-3.17349
 21
11.5
  0
LINE
  8
0
 10
-3.17349
 20
11.5
 11
-1.58675
 21
8.75168
  0
LINE
  8
0
 10
-1.58675
 20
8.75168
 11
1.58675
 21
8.75168
  0
LINE
  8
0
 10
1.58675
 20
8.75168
 11
3.17349
 21
11.5
  0
LINE
  8
0
 10
-0.0941772
 20
10.003
 11
-0.281067
 21
10.0266
  0
LINE
  8
0
 10
-0.281067
 20
10.0266
 11
-0.463516
 21
10.0734
  0
LINE
  8
0
 10
-0.463516
 20
10.0734
 11
-0.638657
 21
10.1428
  0
LINE
  8
0
 10
-0.638657
 20
10.1428
 11
-0.803726
 21
10.2335
  0
LINE
  8
0
 10
-0.803726
 20
10.2335
 11
-0.956131
 21
10.3442
  0
LINE
  8
0
 10
-0.956131
 20
10.3442
 11
-1.09344
 21
10.4732
  0
LINE
  8
0
 10
-1.09344
 20
10.4732
 11
-1.21352
 21
10.6183
  0
LINE
  8
0
 10
-1.21352
 20
10.6183
 11
-1.31445
 21
10.7774
  0
LINE
  8
0
 10
-1.31445
 20
10.7774
 11
-1.39465
 21
10.9478
  0
LINE
  8
0
 10
-1.39465
 20
10.9478
 11
-1.45287
 21
11.127
  0
LINE
  8
0
 10
-1.45287
 20
11.127
 11
-1.48816
 21
11.312
  0
LINE
  8
0
 10
-1.48816
 20
11.312
 11
-1.5
 21
11.5
  0
LINE
  8
0
 10
-1.5
 20
11.5
 11
-1.48816
 21
11.688
  0
LINE
  8
0
 10
-1.48816
 20
11.688
 11
-1.45287
 21
11.873
  0
LINE
  8
0
 10
-1.45287
 20
11.873
 11
-1.39465
 21
12.0522
  0
LINE
  8
0
 10
-1.39465
 20
12.0522
 11
-1.31445
 21
12.2226
  0
LINE
  8
0
 10
-1.31445
 20
12.2226
 11
-1.21352
 21
12.3817
  0
LINE
  8
0
 10
-1.21352
 20
12.3817
 11
-1.09344
 21
12.5268
  0
LINE
  8
0
 10
-1.09344
 20
12.5268
 11
-0.956131
 21
12.6558
  0
LINE
  8
0
 10
-0.956131
 20
12.6558
 11
-0.803726
 21
12.7665
  0
LINE
  8
0
 10
-0.803726
 20
12.7665
 11
-0.638657
 21
12.8572
  0
LINE
  8
0
 10
-0.638657
 20
12.8572
 11
-0.463516
 21
12.9266
  0
LINE
  8
0
 10
-0.463516
 20
12.9266
 11
-0.281067
 21
12.9734
  0
LINE
  8
0
 10
-0.281067
 20
12.9734
 11
-0.0941772
 21
12.997
  0
LINE
  8
0
 10
-0.0941772
 20
12.997
 11
0.0941772
 21
12.997
  0
LINE
  8
0
 10
0.0941772
 20
12.997
 11
0.281067
 21
12.9734
  0
LINE
  8
0
 10
0.281067
 20
12.9734
 11
0.463516
 21
12.9266
  0
LINE
  8
0
 10
0.463516
 20
12.9266
 11
0.638657
 21
12.8572
  0
LINE
  8
0
 10
0.638657
 20
12.8572
 11
0.803726
 21
12.7665
  0
LINE
  8
0
 10
0.803726
 20
12.7665
 11
0.956131
 21
12.6558
  0
LINE
  8
0
 10
0.956131
 20
12.6558
 11
1.09344
 21
12.5268
  0
LINE
  8
0
 10
1.09344
 20
12.5268
 11
1.21352
 21
12.3817
  0
LINE
  8
0
 10
1.21352
 20
12.3817
 11
1.31445
 21
12.2226
  0
LINE
  8
0
 10
1.31445
 20
12.2226
 11
1.39465
 21
12.0522
  0
LINE
  8
0
 10
1.39465
 20
12.0522
 11
1.45287
 21
11.873
  0
LINE
  8
0
 10
1.45287
 20
11.873
 11
1.48816
 21
11.688
  0
LINE
  8
0
 10
1.48816
 20
11.688
 11
1.5
 21
11.5
  0
LINE
  8
0
 10
1.5
 20
11.5
 11
1.48816
 21
11.312
  0
LINE
  8
0
 10
1.48816
 20
11.312
 11
1.45287
 21
11.127
  0
LINE
  8
0
 10
1.45287
 20
11.127
 11
1.39465
 21
10.9478
  0
LINE
  8
0
 10
1.39465
 20
10.9478
 11
1.31445
 21
10.7774
  0
LINE
  8
0
 10
1.31445
 20
10.7774
 11
1.21352
 21
10.6183
  0
LINE
  8
0
 10
1.21352
 20
10.6183
 11
1.09344
 21
10.4732
  0
LINE
  8
0
 10
1.09344
 20
10.4732
 11
0.956131
 21
10.3442
  0
LINE
  8
0
 10
0.956131
 20
10.3442
 11
0.803726
 21
10.2335
  0
LINE
  8
0
 10
0.803726
 20
10.2335
 11
0.638657
 21
10.1428
  0
LINE
  8
0
 10
0.638657
 20
10.1428
 11
0.463516
 21
10.0734
  0
LINE
  8
0
 10
0.463516
 20
10.0734
 11
0.281067
 21
10.0266
  0
LINE
  8
0
 10
0.281067
 20
10.0266
 11
0.0941772
 21
10.003
  0
LINE
  8
0
 10
0.0941772
 20
10.003
 11
-0.0941772
 21
10.003
  0
ENDSEC
  0
SECTION
  2
OBJECTS
  0
DICTIONARY
  0
ENDSEC
  0
EOF
