<?xml version="1.0" standalone="no"?>
<!DOCTYPE svg PUBLIC "-//W3C//DTD SVG 1.1//EN" "http://www.w3.org/Graphics/SVG/1.1/DTD/svg11.dtd">
<svg width="8mm" height="7mm" viewBox="-4 -15 8 7" xmlns="http://www.w3.org/2000/svg" version="1.1">
<title>OpenSCAD Model</title>
<path d="
M 3.17349,-11.5 L 1.58675,-14.2483 L -1.58675,-14.2483 L -3.17349,-11.5 L -1.58675,-8.75168 L 1.58675,-8.75168
 z
M -0.0941772,-10.003 L -0.281067,-10.0266 L -0.463516,-10.0734 L -0.638657,-10.1428 L -0.803726,-10.2335 L -0.956131,-10.3442
 L -1.09344,-10.4732 L -1.21352,-10.6183 L -1.31445,-10.7774 L -1.39465,-10.9478 L -1.45287,-11.127 L -1.48816,-11.312
 L -1.5,-11.5 L -1.48816,-11.688 L -1.45287,-11.873 L -1.39465,-12.0522 L -1.31445,-12.2226 L -1.21352,-12.3817
 L -1.09344,-12.5268 L -0.956131,-12.6558 L -0.803726,-12.7665 L -0.638657,-12.8572 L -0.463516,-12.9266 L -0.281067,-12.9734
 L -0.0941772,-12.997 L 0.0941772,-12.997 L 0.281067,-12.9734 L 0.463516,-12.9266 L 0.638657,-12.8572 L 0.803726,-12.7665
 L 0.956131,-12.6558 L 1.09344,-12.5268 L 1.21352,-12.3817 L 1.31445,-12.2226 L 1.39465,-12.0522 L 1.45287,-11.873
 L 1.48816,-11.688 L 1.5,-11.5 L 1.48816,-11.312 L 1.45287,-11.127 L 1.39465,-10.9478 L 1.31445,-10.7774
 L 1.21352,-10.6183 L 1.09344,-10.4732 L 0.956131,-10.3442 L 0.803726,-10.2335 L 0.638657,-10.1428 L 0.463516,-10.0734
 L 0.281067,-10.0266 L 0.0941772,-10.003 z
" stroke="black" fill="lightgray" stroke-width="0.5"/>
</svg>
