solid OpenSCAD_Model
  facet normal 0 -1 0
    outer loop
      vertex -1.58675 -2.74832 0
      vertex 1.58675 -2.74832 10
      vertex -1.58675 -2.74832 10
    endloop
  endfacet
  facet normal 0 -1 -0
    outer loop
      vertex 1.58675 -2.74832 10
      vertex -1.58675 -2.74832 0
      vertex 1.58675 -2.74832 0
    endloop
  endfacet
  facet normal 0 0 -1
    outer loop
      vertex 1.58675 -2.74832 0
      vertex 1.58675 2.74832 0
      vertex 3.17349 0 0
    endloop
  endfacet
  facet normal 0 0 -1
    outer loop
      vertex -1.58675 -2.74832 0
      vertex 1.58675 2.74832 0
      vertex 1.58675 -2.74832 0
    endloop
  endfacet
  facet normal 0 0 -1
    outer loop
      vertex -1.58675 -2.74832 0
      vertex -1.58675 2.74832 0
      vertex 1.58675 2.74832 0
    endloop
  endfacet
  facet normal 0 -0 -1
    outer loop
      vertex -1.58675 2.74832 0
      vertex -1.58675 -2.74832 0
      vertex -3.17349 0 0
    endloop
  endfacet
  facet normal 0.866026 -0.499999 0
    outer loop
      vertex 1.58675 -2.74832 10
      vertex 3.17349 0 0
      vertex 3.17349 0 10
    endloop
  endfacet
  facet normal 0.866026 -0.499999 0
    outer loop
      vertex 3.17349 0 0
      vertex 1.58675 -2.74832 10
      vertex 1.58675 -2.74832 0
    endloop
  endfacet
  facet normal 0.866026 0.499999 0
    outer loop
      vertex 3.17349 0 10
      vertex 1.58675 2.74832 0
      vertex 1.58675 2.74832 10
    endloop
  endfacet
  facet normal 0.866026 0.499999 0
    outer loop
      vertex 1.58675 2.74832 0
      vertex 3.17349 0 10
      vertex 3.17349 0 0
    endloop
  endfacet
  facet normal -0.866026 -0.499999 0
    outer loop
      vertex -1.58675 -2.74832 0
      vertex -3.17349 0 10
      vertex -3.17349 0 0
    endloop
  endfacet
  facet normal -0.866026 -0.499999 0
    outer loop
      vertex -3.17349 0 10
      vertex -1.58675 -2.74832 0
      vertex -1.58675 -2.74832 10
    endloop
  endfacet
  facet normal -0.866026 0.499999 0
    outer loop
      vertex -3.17349 0 0
      vertex -1.58675 2.74832 10
      vertex -1.58675 2.74832 0
    endloop
  endfacet
  facet normal -0.866026 0.499999 0
    outer loop
      vertex -1.58675 2.74832 10
      vertex -3.17349 0 0
      vertex -3.17349 0 10
    endloop
  endfacet
  facet normal 0 0 1
    outer loop
      vertex 1.58675 2.74832 10
      vertex 1.58675 -2.74832 10
      vertex 3.17349 0 10
    endloop
  endfacet
  facet normal -0 0 1
    outer loop
      vertex -1.58675 2.74832 10
      vertex 1.58675 -2.74832 10
      vertex 1.58675 2.74832 10
    endloop
  endfacet
  facet normal 0 0 1
    outer loop
      vertex -1.58675 2.74832 10
      vertex -1.58675 -2.74832 10
      vertex 1.58675 -2.74832 10
    endloop
  endfacet
  facet normal 0 -0 1
    outer loop
      vertex -1.58675 -2.74832 10
      vertex -1.58675 2.74832 10
      vertex -3.17349 0 10
    endloop
  endfacet
  facet normal 0 1 -0
    outer loop
      vertex 1.58675 2.74832 0
      vertex -1.58675 2.74832 10
      vertex 1.58675 2.74832 10
    endloop
  endfacet
  facet normal 0 1 0
    outer loop
      vertex -1.58675 2.74832 10
      vertex 1.58675 2.74832 0
      vertex -1.58675 2.74832 0
    endloop
  endfacet
endsolid OpenSCAD_Model
